0, 0, Header, 1, 2, 384
1, 0, Start_track
1, 0, Tempo, 500000
1, 0, Time_signature, 4, 2, 24, 8
1, 1, End_track
2, 0, Start_track
2, 1501, Note_on_c, 0, 60, 65
2, 1551, Control_c, 0, 64, 127
2, 1554, Note_on_c, 0, 63, 72
2, 1607, Note_on_c, 0, 67, 82
2, 1612, Note_on_c, 0, 60, 0
2, 1667, Note_on_c, 0, 75, 79
2, 1669, Note_on_c, 0, 72, 83
2, 1711, Note_on_c, 0, 79, 85
2, 1769, Note_on_c, 0, 84, 98
2, 1820, Note_on_c, 0, 79, 0
2, 1830, Note_on_c, 0, 79, 83
2, 1896, Note_on_c, 0, 75, 0
2, 1904, Note_on_c, 0, 75, 88
2, 1927, Note_on_c, 0, 72, 0
2, 1935, Note_on_c, 0, 72, 79
2, 2019, Note_on_c, 0, 67, 0
2, 2023, Note_on_c, 0, 67, 70
2, 2088, Note_on_c, 0, 63, 0
2, 2092, Note_on_c, 0, 63, 65
2, 2186, Note_on_c, 0, 60, 58
2, 2219, Note_on_c, 0, 75, 0
2, 2229, Note_on_c, 0, 75, 66
2, 2288, Note_on_c, 0, 79, 0
2, 2293, Note_on_c, 0, 79, 78
2, 2319, Note_on_c, 0, 84, 0
2, 2327, Note_on_c, 0, 84, 62
2, 2356, Note_on_c, 0, 87, 100
2, 2411, Note_on_c, 0, 84, 0
2, 2417, Note_on_c, 0, 84, 87
2, 2472, Note_on_c, 0, 79, 0
2, 2483, Note_on_c, 0, 79, 84
2, 2526, Note_on_c, 0, 75, 0
2, 2532, Note_on_c, 0, 75, 81
2, 2626, Note_on_c, 0, 72, 0
2, 2637, Note_on_c, 0, 72, 85
2, 2703, Note_on_c, 0, 67, 0
2, 2710, Note_on_c, 0, 67, 55
2, 2762, Note_on_c, 0, 77, 79
2, 2780, Note_on_c, 0, 63, 0
2, 2791, Note_on_c, 0, 63, 67
2, 2839, Note_on_c, 0, 82, 88
2, 2872, Note_on_c, 0, 84, 0
2, 2876, Note_on_c, 0, 84, 82
2, 2936, Note_on_c, 0, 89, 102
2, 2944, Note_on_c, 0, 56, 83
2, 2958, Note_on_c, 0, 67, 0
2, 2958, Note_on_c, 0, 60, 0
2, 2995, Note_on_c, 0, 84, 0
2, 3001, Note_on_c, 0, 84, 91
2, 3056, Note_on_c, 0, 82, 0
2, 3066, Note_on_c, 0, 82, 95
2, 3118, Note_on_c, 0, 77, 0
2, 3127, Note_on_c, 0, 77, 66
2, 3141, Note_on_c, 0, 63, 0
2, 3210, Note_on_c, 0, 72, 0
2, 3220, Note_on_c, 0, 72, 81
2, 3285, Note_on_c, 0, 68, 83
2, 3325, Note_on_c, 0, 75, 0
2, 3335, Note_on_c, 0, 75, 77
2, 3377, Note_on_c, 0, 63, 78
2, 3402, Note_on_c, 0, 82, 0
2, 3406, Note_on_c, 0, 82, 85
2, 3463, Note_on_c, 0, 84, 0
2, 3468, Note_on_c, 0, 84, 86
2, 3517, Note_on_c, 0, 56, 0
2, 3517, Note_on_c, 0, 87, 0
2, 3527, Note_on_c, 0, 56, 82
2, 3527, Note_on_c, 0, 87, 103
2, 3586, Note_on_c, 0, 84, 0
2, 3591, Note_on_c, 0, 84, 86
2, 3655, Note_on_c, 0, 82, 0
2, 3660, Note_on_c, 0, 82, 91
2, 3709, Note_on_c, 0, 75, 0
2, 3720, Note_on_c, 0, 75, 78
2, 3801, Note_on_c, 0, 72, 0
2, 3801, Note_on_c, 0, 89, 0
2, 3810, Note_on_c, 0, 72, 84
2, 3811, Note_on_c, 0, 89, 101
2, 3863, Note_on_c, 0, 68, 0
2, 3863, Note_on_c, 0, 84, 0
2, 3867, Note_on_c, 0, 68, 73
2, 3872, Note_on_c, 0, 84, 94
2, 3955, Note_on_c, 0, 63, 0
2, 3955, Note_on_c, 0, 82, 0
2, 3965, Note_on_c, 0, 82, 81
2, 3966, Note_on_c, 0, 63, 76
2, 3985, Note_on_c, 0, 77, 0
2, 3994, Note_on_c, 0, 77, 65
2, 4051, Control_c, 0, 64, 0
2, 4066, Note_on_c, 0, 84, 0
2, 4073, Note_on_c, 0, 72, 0
2, 4074, Note_on_c, 0, 82, 0
2, 4074, Note_on_c, 0, 68, 0
2, 4078, Note_on_c, 0, 79, 0
2, 4082, Note_on_c, 0, 77, 0
2, 4085, Note_on_c, 0, 56, 0
2, 4087, Note_on_c, 0, 63, 0
2, 4093, Note_on_c, 0, 87, 0
2, 4093, Note_on_c, 0, 89, 0
2, 4104, Note_on_c, 0, 89, 106
2, 4108, Note_on_c, 0, 58, 90
2, 4108, Note_on_c, 0, 75, 0
2, 4124, Control_c, 0, 64, 127
2, 4163, Note_on_c, 0, 86, 99
2, 4221, Note_on_c, 0, 82, 95
2, 4292, Note_on_c, 0, 77, 76
2, 4391, Note_on_c, 0, 74, 85
2, 4444, Note_on_c, 0, 70, 76
2, 4531, Note_on_c, 0, 82, 0
2, 4536, Note_on_c, 0, 82, 86
2, 4539, Note_on_c, 0, 65, 79
2, 4600, Note_on_c, 0, 86, 0
2, 4611, Note_on_c, 0, 86, 94
2, 4646, Note_on_c, 0, 89, 0
2, 4653, Note_on_c, 0, 89, 82
2, 4707, Note_on_c, 0, 58, 0
2, 4707, Note_on_c, 0, 70, 0
2, 4711, Note_on_c, 0, 94, 107
2, 4712, Note_on_c, 0, 58, 89
2, 4712, Note_on_c, 0, 70, 79
2, 4776, Note_on_c, 0, 89, 0
2, 4781, Note_on_c, 0, 89, 70
2, 4846, Note_on_c, 0, 86, 0
2, 4852, Note_on_c, 0, 86, 93
2, 4907, Note_on_c, 0, 82, 0
2, 4913, Note_on_c, 0, 82, 82
2, 4976, Note_on_c, 0, 74, 0
2, 4983, Note_on_c, 0, 92, 105
2, 4986, Note_on_c, 0, 74, 86
2, 4999, Note_on_c, 0, 70, 0
2, 5007, Note_on_c, 0, 70, 73
2, 5061, Note_on_c, 0, 89, 0
2, 5068, Note_on_c, 0, 89, 86
2, 5099, Note_on_c, 0, 65, 0
2, 5108, Note_on_c, 0, 65, 83
2, 5130, Note_on_c, 0, 86, 0
2, 5136, Note_on_c, 0, 86, 93
2, 5200, Note_on_c, 0, 80, 84
2, 5226, Control_c, 0, 64, 0
2, 5230, Note_on_c, 0, 58, 0
2, 5230, Note_on_c, 0, 94, 0
2, 5232, Note_on_c, 0, 89, 0
2, 5232, Note_on_c, 0, 70, 0
2, 5232, Note_on_c, 0, 77, 0
2, 5233, Note_on_c, 0, 82, 0
2, 5233, Note_on_c, 0, 86, 0
2, 5253, Note_on_c, 0, 65, 0
2, 5260, Note_on_c, 0, 74, 0
2, 5280, Note_on_c, 0, 91, 108
2, 5281, Note_on_c, 0, 63, 91
2, 5306, Note_on_c, 0, 80, 0
2, 5314, Control_c, 0, 64, 127
2, 5352, Note_on_c, 0, 87, 93
2, 5404, Note_on_c, 0, 82, 91
2, 5478, Note_on_c, 0, 79, 73
2, 5569, Note_on_c, 0, 89, 100
2, 5578, Note_on_c, 0, 75, 84
2, 5621, Note_on_c, 0, 87, 0
2, 5631, Note_on_c, 0, 87, 93
2, 5665, Note_on_c, 0, 70, 78
2, 5690, Note_on_c, 0, 82, 0
2, 5695, Note_on_c, 0, 82, 78
2, 5730, Note_on_c, 0, 77, 79
2, 5756, Note_on_c, 0, 67, 66
2, 5836, Note_on_c, 0, 91, 0
2, 5836, Note_on_c, 0, 92, 0
2, 5841, Note_on_c, 0, 91, 108
2, 5842, Control_c, 0, 64, 0
2, 5848, Note_on_c, 0, 62, 86
2, 5849, Note_on_c, 0, 82, 0
2, 5853, Note_on_c, 0, 79, 0
2, 5854, Note_on_c, 0, 75, 0
2, 5855, Note_on_c, 0, 89, 0
2, 5855, Note_on_c, 0, 70, 0
2, 5855, Note_on_c, 0, 67, 0
2, 5857, Note_on_c, 0, 77, 0
2, 5859, Note_on_c, 0, 63, 0
2, 5875, Note_on_c, 0, 87, 0
2, 5890, Control_c, 0, 64, 127
2, 5901, Note_on_c, 0, 87, 92
2, 5958, Note_on_c, 0, 82, 93
2, 6042, Note_on_c, 0, 79, 78
2, 6149, Note_on_c, 0, 75, 76
2, 6221, Note_on_c, 0, 70, 78
2, 6266, Note_on_c, 0, 79, 0
2, 6271, Note_on_c, 0, 79, 72
2, 6331, Note_on_c, 0, 67, 66
2, 6336, Note_on_c, 0, 82, 0
2, 6346, Note_on_c, 0, 82, 90
2, 6382, Note_on_c, 0, 87, 0
2, 6385, Control_c, 0, 64, 0
2, 6386, Note_on_c, 0, 87, 92
2, 6405, Control_c, 0, 64, 127
2, 6406, Note_on_c, 0, 62, 0
2, 6409, Note_on_c, 0, 79, 0
2, 6425, Note_on_c, 0, 75, 0
2, 6425, Note_on_c, 0, 82, 0
2, 6435, Note_on_c, 0, 91, 0
2, 6444, Note_on_c, 0, 91, 109
2, 6454, Note_on_c, 0, 60, 83
2, 6458, Control_c, 0, 64, 0
2, 6497, Note_on_c, 0, 87, 0
2, 6507, Note_on_c, 0, 87, 93
2, 6528, Note_on_c, 0, 67, 0
2, 6543, Control_c, 0, 64, 127
2, 6571, Note_on_c, 0, 82, 94
2, 6648, Note_on_c, 0, 79, 85
2, 6735, Note_on_c, 0, 75, 76
2, 6804, Note_on_c, 0, 70, 0
2, 6809, Note_on_c, 0, 70, 73
2, 6842, Note_on_c, 0, 82, 0
2, 6847, Note_on_c, 0, 82, 82
2, 6904, Note_on_c, 0, 87, 0
2, 6908, Note_on_c, 0, 67, 68
2, 6912, Note_on_c, 0, 87, 95
2, 6950, Note_on_c, 0, 91, 0
2, 6957, Note_on_c, 0, 91, 92
2, 7016, Note_on_c, 0, 94, 106
2, 7019, Note_on_c, 0, 60, 0
2, 7027, Note_on_c, 0, 60, 84
2, 7073, Note_on_c, 0, 91, 0
2, 7077, Note_on_c, 0, 91, 83
2, 7134, Note_on_c, 0, 87, 0
2, 7145, Note_on_c, 0, 87, 93
2, 7211, Note_on_c, 0, 82, 0
2, 7217, Note_on_c, 0, 82, 89
2, 7303, Note_on_c, 0, 75, 0
2, 7309, Note_on_c, 0, 75, 84
2, 7365, Note_on_c, 0, 70, 0
2, 7369, Note_on_c, 0, 70, 71
2, 7411, Note_on_c, 0, 67, 0
2, 7422, Note_on_c, 0, 67, 79
2, 7435, Note_on_c, 0, 84, 81
2, 7495, Note_on_c, 0, 87, 0
2, 7503, Note_on_c, 0, 87, 94
2, 7534, Note_on_c, 0, 91, 0
2, 7540, Note_on_c, 0, 91, 93
2, 7577, Control_c, 0, 64, 0
2, 7584, Note_on_c, 0, 75, 0
2, 7586, Note_on_c, 0, 70, 0
2, 7589, Note_on_c, 0, 94, 0
2, 7590, Note_on_c, 0, 82, 0
2, 7590, Note_on_c, 0, 60, 0
2, 7597, Note_on_c, 0, 96, 106
2, 7603, Note_on_c, 0, 67, 0
2, 7608, Note_on_c, 0, 56, 80
2, 7610, Note_on_c, 0, 79, 0
2, 7618, Control_c, 0, 64, 127
2, 7649, Note_on_c, 0, 91, 0
2, 7660, Note_on_c, 0, 91, 95
2, 7718, Note_on_c, 0, 87, 0
2, 7722, Note_on_c, 0, 87, 92
2, 7795, Note_on_c, 0, 84, 0
2, 7800, Note_on_c, 0, 84, 82
2, 7888, Note_on_c, 0, 72, 79
2, 7954, Note_on_c, 0, 68, 78
2, 7990, Note_on_c, 0, 77, 80
2, 8057, Note_on_c, 0, 63, 68
2, 8060, Note_on_c, 0, 82, 88
2, 8117, Note_on_c, 0, 84, 0
2, 8125, Note_on_c, 0, 84, 85
2, 8183, Note_on_c, 0, 89, 107
2, 8197, Control_c, 0, 64, 0
2, 8202, Note_on_c, 0, 56, 0
2, 8211, Note_on_c, 0, 56, 82
2, 8232, Control_c, 0, 64, 127
2, 8248, Note_on_c, 0, 84, 0
2, 8255, Note_on_c, 0, 84, 84
2, 8325, Note_on_c, 0, 82, 0
2, 8334, Note_on_c, 0, 82, 93
2, 8363, Note_on_c, 0, 77, 0
2, 8374, Note_on_c, 0, 77, 59
2, 8478, Note_on_c, 0, 72, 0
2, 8478, Note_on_c, 0, 87, 0
2, 8485, Note_on_c, 0, 87, 98
2, 8485, Note_on_c, 0, 72, 86
2, 8540, Note_on_c, 0, 84, 0
2, 8548, Note_on_c, 0, 84, 89
2, 8555, Note_on_c, 0, 68, 0
2, 8566, Note_on_c, 0, 68, 67
2, 8624, Note_on_c, 0, 82, 0
2, 8628, Note_on_c, 0, 82, 88
2, 8663, Note_on_c, 0, 63, 0
2, 8670, Note_on_c, 0, 77, 0
2, 8671, Note_on_c, 0, 63, 74
2, 8679, Note_on_c, 0, 77, 62
2, 8757, Control_c, 0, 64, 0
2, 8768, Note_on_c, 0, 68, 0
2, 8768, Note_on_c, 0, 56, 0
2, 8771, Note_on_c, 0, 82, 0
2, 8773, Note_on_c, 0, 77, 0
2, 8774, Note_on_c, 0, 72, 0
2, 8774, Note_on_c, 0, 87, 0
2, 8778, Note_on_c, 0, 96, 0
2, 8779, Note_on_c, 0, 63, 0
2, 8793, Note_on_c, 0, 84, 0
2, 8793, Note_on_c, 0, 89, 0
2, 8796, Note_on_c, 0, 94, 106
2, 8797, Note_on_c, 0, 58, 92
2, 8824, Control_c, 0, 64, 127
2, 8839, Note_on_c, 0, 91, 0
2, 8889, Note_on_c, 0, 89, 86
2, 8942, Note_on_c, 0, 86, 93
2, 9029, Note_on_c, 0, 82, 81
2, 9112, Note_on_c, 0, 74, 81
2, 9167, Note_on_c, 0, 70, 75
2, 9216, Note_on_c, 0, 79, 69
2, 9268, Note_on_c, 0, 65, 75
2, 9300, Note_on_c, 0, 82, 0
2, 9310, Note_on_c, 0, 82, 87
2, 9361, Note_on_c, 0, 86, 0
2, 9368, Note_on_c, 0, 86, 89
2, 9429, Note_on_c, 0, 91, 108
2, 9431, Note_on_c, 0, 58, 0
2, 9441, Note_on_c, 0, 58, 80
2, 9500, Note_on_c, 0, 86, 0
2, 9511, Note_on_c, 0, 86, 92
2, 9584, Note_on_c, 0, 82, 0
2, 9593, Note_on_c, 0, 82, 89
2, 9669, Note_on_c, 0, 79, 0
2, 9674, Note_on_c, 0, 79, 72
2, 9768, Note_on_c, 0, 94, 0
2, 9776, Note_on_c, 0, 74, 0
2, 9776, Note_on_c, 0, 82, 0
2, 9779, Note_on_c, 0, 94, 103
2, 9781, Note_on_c, 0, 74, 87
2, 9785, Note_on_c, 0, 82, 81
2, 9868, Note_on_c, 0, 89, 0
2, 9879, Note_on_c, 0, 89, 90
2, 9907, Note_on_c, 0, 70, 0
2, 9917, Note_on_c, 0, 70, 78
2, 9960, Note_on_c, 0, 86, 0
2, 9968, Note_on_c, 0, 86, 93
2, 10022, Note_on_c, 0, 65, 0
2, 10032, Note_on_c, 0, 65, 70
2, 10068, Note_on_c, 0, 82, 0
2, 10079, Note_on_c, 0, 82, 72
2, 10352, Note_on_c, 0, 82, 0
2, 10352, Note_on_c, 0, 94, 0
2, 10356, Note_on_c, 0, 94, 104
2, 10357, Note_on_c, 0, 44, 81
2, 10363, Note_on_c, 0, 82, 93
2, 10365, Note_on_c, 0, 79, 0
2, 10366, Note_on_c, 0, 86, 0
2, 10366, Note_on_c, 0, 74, 0
2, 10367, Note_on_c, 0, 70, 0
2, 10368, Control_c, 0, 64, 0
2, 10383, Note_on_c, 0, 58, 0
2, 10383, Note_on_c, 0, 65, 0
2, 10383, Note_on_c, 0, 89, 0
2, 10383, Note_on_c, 0, 91, 0
2, 10429, Control_c, 0, 64, 127
2, 10654, Note_on_c, 0, 51, 60
2, 10778, Note_on_c, 0, 55, 70
2, 10902, Note_on_c, 0, 56, 66
2, 10990, Note_on_c, 0, 55, 0
2, 10991, Note_on_c, 0, 96, 98
2, 11001, Note_on_c, 0, 55, 67
2, 11003, Note_on_c, 0, 84, 89
2, 11089, Note_on_c, 0, 56, 0
2, 11097, Note_on_c, 0, 56, 63
2, 11190, Note_on_c, 0, 58, 72
2, 11248, Note_on_c, 0, 60, 62
2, 11340, Note_on_c, 0, 62, 71
2, 11351, Note_on_c, 0, 82, 0
2, 11452, Note_on_c, 0, 63, 57
2, 11539, Note_on_c, 0, 65, 67
2, 11683, Note_on_c, 0, 67, 63
2, 11862, Note_on_c, 0, 70, 58
2, 12070, Note_on_c, 0, 72, 60
2, 13440, Note_on_c, 0, 44, 0
2, 13440, Note_on_c, 0, 51, 0
2, 13440, Note_on_c, 0, 55, 0
2, 13440, Note_on_c, 0, 58, 0
2, 13440, Note_on_c, 0, 60, 0
2, 13440, Note_on_c, 0, 63, 0
2, 13440, Note_on_c, 0, 84, 0
2, 13440, Note_on_c, 0, 94, 0
2, 13440, Note_on_c, 0, 96, 0
2, 13440, Control_c, 0, 64, 0
2, 13843, Note_on_c, 0, 34, 45
2, 13880, Note_on_c, 0, 41, 50
2, 13938, Note_on_c, 0, 46, 42
2, 13976, Note_on_c, 0, 58, 77
2, 13989, Note_on_c, 0, 50, 47
2, 13991, Note_on_c, 0, 53, 53
2, 14011, Note_on_c, 0, 65, 0
2, 14011, Note_on_c, 0, 72, 0
2, 14011, Note_on_c, 0, 62, 0
2, 14011, Note_on_c, 0, 67, 0
2, 14012, Note_on_c, 0, 70, 0
2, 14012, Note_on_c, 0, 56, 0
2, 15152, Control_c, 0, 64, 127
2, 15175, Note_on_c, 0, 34, 0
2, 15186, Note_on_c, 0, 34, 67
2, 15206, Control_c, 0, 64, 0
2, 15290, Control_c, 0, 64, 127
2, 15450, Control_c, 0, 64, 0
2, 15482, Control_c, 0, 64, 127
2, 15516, Note_on_c, 0, 41, 0
2, 15517, Note_on_c, 0, 53, 0
2, 15517, Note_on_c, 0, 46, 0
2, 15517, Note_on_c, 0, 34, 0
2, 15518, Note_on_c, 0, 50, 0
2, 15521, Control_c, 0, 64, 0
2, 15536, Note_on_c, 0, 58, 0
2, 15569, Note_on_c, 0, 36, 78
2, 15573, Note_on_c, 0, 60, 84
2, 15578, Note_on_c, 0, 55, 70
2, 15579, Note_on_c, 0, 48, 71
2, 15584, Note_on_c, 0, 51, 67
2, 15628, Control_c, 0, 64, 127
2, 15767, Note_on_c, 0, 51, 0
2, 15769, Control_c, 0, 64, 0
2, 15771, Note_on_c, 0, 60, 0
2, 15772, Note_on_c, 0, 48, 0
2, 15775, Note_on_c, 0, 36, 0
2, 15797, Note_on_c, 0, 55, 0
2, 15936, Note_on_c, 0, 63, 95
2, 16028, Note_on_c, 0, 63, 0
2, 16117, Note_on_c, 0, 48, 63
2, 16118, Note_on_c, 0, 36, 63
2, 16154, Note_on_c, 0, 48, 0
2, 16155, Note_on_c, 0, 36, 0
2, 16284, Note_on_c, 0, 65, 93
2, 16293, Note_on_c, 0, 53, 71
2, 16295, Note_on_c, 0, 60, 76
2, 16297, Note_on_c, 0, 41, 72
2, 16299, Note_on_c, 0, 56, 80
2, 16300, Note_on_c, 0, 29, 69
2, 16327, Control_c, 0, 64, 127
2, 16500, Control_c, 0, 64, 0
2, 16505, Note_on_c, 0, 29, 0
2, 16507, Note_on_c, 0, 41, 0
2, 16512, Note_on_c, 0, 53, 0
2, 16519, Note_on_c, 0, 56, 0
2, 16519, Note_on_c, 0, 60, 0
2, 16542, Note_on_c, 0, 65, 0
2, 16555, Note_on_c, 0, 63, 77
2, 16625, Note_on_c, 0, 63, 0
2, 16825, Note_on_c, 0, 65, 86
2, 16837, Note_on_c, 0, 29, 65
2, 16837, Note_on_c, 0, 41, 58
2, 16871, Note_on_c, 0, 41, 0
2, 16875, Note_on_c, 0, 29, 0
2, 17011, Control_c, 0, 64, 127
2, 17015, Note_on_c, 0, 46, 83
2, 17016, Note_on_c, 0, 62, 90
2, 17016, Note_on_c, 0, 34, 71
2, 17018, Note_on_c, 0, 58, 84
2, 17183, Note_on_c, 0, 34, 0
2, 17184, Note_on_c, 0, 46, 0
2, 17187, Note_on_c, 0, 62, 0
2, 17187, Control_c, 0, 64, 0
2, 17203, Note_on_c, 0, 58, 0
2, 17210, Note_on_c, 0, 65, 0
2, 17214, Note_on_c, 0, 65, 79
2, 17280, Note_on_c, 0, 65, 0
2, 17366, Note_on_c, 0, 70, 92
2, 17472, Note_on_c, 0, 70, 0
2, 17540, Note_on_c, 0, 68, 92
2, 17541, Note_on_c, 0, 46, 75
2, 17543, Note_on_c, 0, 34, 72
2, 17591, Note_on_c, 0, 34, 0
2, 17598, Note_on_c, 0, 68, 0
2, 17599, Note_on_c, 0, 46, 0
2, 17708, Note_on_c, 0, 67, 93
2, 17714, Note_on_c, 0, 39, 77
2, 17716, Note_on_c, 0, 51, 75
2, 17717, Note_on_c, 0, 63, 70
2, 17719, Note_on_c, 0, 58, 77
2, 17721, Note_on_c, 0, 55, 76
2, 17740, Control_c, 0, 64, 127
2, 17882, Note_on_c, 0, 65, 80
2, 17883, Control_c, 0, 64, 0
2, 17891, Note_on_c, 0, 51, 0
2, 17892, Note_on_c, 0, 55, 0
2, 17892, Note_on_c, 0, 58, 0
2, 17892, Note_on_c, 0, 39, 0
2, 17895, Note_on_c, 0, 63, 0
2, 17895, Note_on_c, 0, 67, 0
2, 17909, Note_on_c, 0, 65, 0
2, 17968, Note_on_c, 0, 67, 97
2, 17977, Note_on_c, 0, 51, 77
2, 17977, Note_on_c, 0, 63, 83
2, 17977, Note_on_c, 0, 39, 75
2, 17978, Note_on_c, 0, 55, 85
2, 17981, Note_on_c, 0, 58, 81
2, 18009, Control_c, 0, 64, 127
2, 18040, Note_on_c, 0, 51, 0
2, 18147, Note_on_c, 0, 39, 0
2, 18154, Note_on_c, 0, 39, 68
2, 18157, Note_on_c, 0, 51, 67
2, 18250, Note_on_c, 0, 50, 82
2, 18250, Note_on_c, 0, 38, 78
2, 18273, Control_c, 0, 64, 0
2, 18276, Note_on_c, 0, 67, 0
2, 18277, Note_on_c, 0, 55, 0
2, 18278, Note_on_c, 0, 58, 0
2, 18279, Note_on_c, 0, 63, 0
2, 18281, Note_on_c, 0, 38, 0
2, 18282, Note_on_c, 0, 50, 0
2, 18293, Note_on_c, 0, 39, 0
2, 18293, Note_on_c, 0, 51, 0
2, 18435, Note_on_c, 0, 36, 92
2, 18436, Note_on_c, 0, 67, 94
2, 18437, Note_on_c, 0, 48, 90
2, 18438, Note_on_c, 0, 58, 91
2, 18441, Note_on_c, 0, 55, 93
2, 18442, Note_on_c, 0, 63, 87
2, 18462, Control_c, 0, 64, 127
2, 18602, Control_c, 0, 64, 0
2, 18608, Note_on_c, 0, 48, 0
2, 18609, Note_on_c, 0, 67, 0
2, 18610, Note_on_c, 0, 63, 0
2, 18612, Note_on_c, 0, 58, 0
2, 18613, Note_on_c, 0, 55, 0
2, 18624, Note_on_c, 0, 36, 0
2, 18793, Note_on_c, 0, 70, 98
2, 18827, Note_on_c, 0, 70, 0
2, 18963, Note_on_c, 0, 36, 67
2, 18964, Note_on_c, 0, 48, 55
2, 18996, Note_on_c, 0, 36, 0
2, 19015, Note_on_c, 0, 48, 0
2, 19136, Note_on_c, 0, 72, 100
2, 19141, Note_on_c, 0, 60, 96
2, 19143, Note_on_c, 0, 68, 90
2, 19146, Note_on_c, 0, 63, 93
2, 19146, Note_on_c, 0, 29, 88
2, 19147, Note_on_c, 0, 41, 86
2, 19161, Control_c, 0, 64, 127
2, 19268, Note_on_c, 0, 60, 0
2, 19271, Note_on_c, 0, 29, 0
2, 19272, Note_on_c, 0, 72, 0
2, 19272, Note_on_c, 0, 41, 0
2, 19273, Note_on_c, 0, 68, 0
2, 19275, Note_on_c, 0, 63, 0
2, 19277, Control_c, 0, 64, 0
2, 19409, Note_on_c, 0, 65, 95
2, 19491, Note_on_c, 0, 65, 0
2, 19666, Note_on_c, 0, 63, 95
2, 19687, Note_on_c, 0, 29, 70
2, 19688, Note_on_c, 0, 41, 67
2, 19722, Control_c, 0, 64, 127
2, 19799, Control_c, 0, 64, 0
2, 19837, Note_on_c, 0, 29, 0
2, 19848, Note_on_c, 0, 46, 88
2, 19848, Note_on_c, 0, 34, 86
2, 19883, Note_on_c, 0, 41, 0
2, 19914, Note_on_c, 0, 63, 0
2, 19921, Control_c, 0, 64, 127
2, 20026, Note_on_c, 0, 62, 88
2, 20026, Note_on_c, 0, 53, 81
2, 20028, Note_on_c, 0, 58, 80
2, 20096, Note_on_c, 0, 58, 0
2, 20097, Note_on_c, 0, 53, 0
2, 20100, Note_on_c, 0, 62, 0
2, 20106, Note_on_c, 0, 34, 0
2, 20106, Note_on_c, 0, 46, 0
2, 20106, Control_c, 0, 64, 0
2, 20111, Note_on_c, 0, 46, 87
2, 20111, Note_on_c, 0, 34, 89
2, 20158, Note_on_c, 0, 34, 0
2, 20175, Note_on_c, 0, 46, 0
2, 20208, Note_on_c, 0, 60, 91
2, 20269, Note_on_c, 0, 60, 0
2, 20365, Note_on_c, 0, 46, 87
2, 20369, Note_on_c, 0, 34, 83
2, 20370, Note_on_c, 0, 62, 92
2, 20398, Note_on_c, 0, 46, 0
2, 20400, Note_on_c, 0, 34, 0
2, 20490, Note_on_c, 0, 62, 0
2, 20543, Note_on_c, 0, 65, 97
2, 20548, Note_on_c, 0, 39, 85
2, 20549, Note_on_c, 0, 55, 90
2, 20549, Note_on_c, 0, 58, 86
2, 20574, Control_c, 0, 64, 127
2, 20631, Note_on_c, 0, 63, 93
2, 20820, Note_on_c, 0, 63, 0
2, 20829, Note_on_c, 0, 63, 94
2, 20894, Note_on_c, 0, 50, 92
2, 20898, Note_on_c, 0, 38, 89
2, 20982, Note_on_c, 0, 77, 93
2, 21087, Note_on_c, 0, 79, 87
2, 21155, Note_on_c, 0, 82, 95
2, 21170, Control_c, 0, 64, 0
2, 21177, Note_on_c, 0, 58, 0
2, 21177, Note_on_c, 0, 63, 0
2, 21177, Note_on_c, 0, 79, 0
2, 21178, Note_on_c, 0, 38, 0
2, 21178, Note_on_c, 0, 77, 0
2, 21178, Note_on_c, 0, 50, 0
2, 21189, Note_on_c, 0, 39, 0
2, 21189, Note_on_c, 0, 55, 0
2, 21189, Note_on_c, 0, 65, 0
2, 21231, Note_on_c, 0, 75, 99
2, 21232, Note_on_c, 0, 84, 104
2, 21232, Note_on_c, 0, 72, 103
2, 21237, Note_on_c, 0, 48, 102
2, 21239, Note_on_c, 0, 36, 96
2, 21258, Control_c, 0, 64, 127
2, 21265, Note_on_c, 0, 82, 0
2, 21388, Note_on_c, 0, 36, 0
2, 21388, Note_on_c, 0, 48, 0
2, 21398, Note_on_c, 0, 36, 83
2, 21399, Note_on_c, 0, 48, 92
2, 21484, Note_on_c, 0, 36, 0
2, 21484, Control_c, 0, 64, 0
2, 21485, Note_on_c, 0, 75, 0
2, 21486, Note_on_c, 0, 84, 0
2, 21487, Note_on_c, 0, 72, 0
2, 21500, Note_on_c, 0, 51, 82
2, 21501, Note_on_c, 0, 55, 87
2, 21504, Note_on_c, 0, 48, 0
2, 21544, Note_on_c, 0, 55, 0
2, 21548, Note_on_c, 0, 51, 0
2, 21584, Note_on_c, 0, 75, 103
2, 21587, Note_on_c, 0, 67, 85
2, 21593, Note_on_c, 0, 72, 83
2, 21629, Note_on_c, 0, 67, 0
2, 21676, Note_on_c, 0, 36, 88
2, 21703, Note_on_c, 0, 72, 0
2, 21761, Note_on_c, 0, 43, 90
2, 21807, Note_on_c, 0, 42, 94
2, 21847, Note_on_c, 0, 36, 0
2, 21849, Note_on_c, 0, 75, 0
2, 21856, Note_on_c, 0, 43, 0
2, 21878, Note_on_c, 0, 42, 0
2, 21941, Note_on_c, 0, 77, 104
2, 21943, Note_on_c, 0, 68, 103
2, 21944, Note_on_c, 0, 41, 99
2, 21945, Note_on_c, 0, 72, 94
2, 21945, Note_on_c, 0, 65, 94
2, 21947, Note_on_c, 0, 29, 97
2, 21980, Control_c, 0, 64, 127
2, 22103, Note_on_c, 0, 41, 0
2, 22111, Note_on_c, 0, 41, 91
2, 22202, Note_on_c, 0, 65, 0
2, 22202, Note_on_c, 0, 68, 0
2, 22207, Note_on_c, 0, 75, 98
2, 22207, Note_on_c, 0, 68, 95
2, 22208, Note_on_c, 0, 65, 94
2, 22213, Note_on_c, 0, 53, 95
2, 22348, Note_on_c, 0, 41, 0
2, 22354, Note_on_c, 0, 41, 92
2, 22450, Note_on_c, 0, 44, 83
2, 22456, Note_on_c, 0, 77, 0
2, 22464, Note_on_c, 0, 77, 100
2, 22505, Note_on_c, 0, 45, 89
2, 22551, Control_c, 0, 64, 0
2, 22552, Note_on_c, 0, 65, 0
2, 22552, Note_on_c, 0, 75, 0
2, 22553, Note_on_c, 0, 41, 0
2, 22553, Note_on_c, 0, 68, 0
2, 22553, Note_on_c, 0, 72, 0
2, 22553, Note_on_c, 0, 53, 0
2, 22554, Note_on_c, 0, 44, 0
2, 22555, Note_on_c, 0, 45, 0
2, 22556, Note_on_c, 0, 29, 0
2, 22645, Note_on_c, 0, 46, 101
2, 22646, Note_on_c, 0, 34, 98
2, 22679, Control_c, 0, 64, 127
2, 22755, Note_on_c, 0, 77, 0
2, 22801, Note_on_c, 0, 34, 0
2, 22806, Note_on_c, 0, 77, 92
2, 22812, Note_on_c, 0, 34, 83
2, 22813, Note_on_c, 0, 74, 91
2, 22814, Note_on_c, 0, 70, 92
2, 22837, Control_c, 0, 64, 0
2, 22861, Note_on_c, 0, 34, 0
2, 22871, Note_on_c, 0, 46, 0
2, 22880, Note_on_c, 0, 70, 0
2, 22902, Note_on_c, 0, 53, 91
2, 22902, Note_on_c, 0, 74, 0
2, 22905, Note_on_c, 0, 50, 88
2, 22943, Note_on_c, 0, 50, 0
2, 22955, Note_on_c, 0, 77, 0
2, 22959, Note_on_c, 0, 53, 0
2, 22990, Note_on_c, 0, 82, 102
2, 23074, Note_on_c, 0, 34, 89
2, 23082, Note_on_c, 0, 82, 0
2, 23109, Control_c, 0, 64, 127
2, 23158, Note_on_c, 0, 80, 101
2, 23159, Note_on_c, 0, 46, 72
2, 23214, Note_on_c, 0, 50, 71
2, 23230, Control_c, 0, 64, 0
2, 23239, Note_on_c, 0, 34, 0
2, 23258, Note_on_c, 0, 80, 0
2, 23262, Note_on_c, 0, 50, 0
2, 23270, Note_on_c, 0, 46, 0
2, 23341, Note_on_c, 0, 79, 104
2, 23345, Note_on_c, 0, 39, 93
2, 23347, Note_on_c, 0, 67, 98
2, 23349, Note_on_c, 0, 70, 96
2, 23351, Note_on_c, 0, 75, 81
2, 23352, Note_on_c, 0, 51, 94
2, 23377, Control_c, 0, 64, 127
2, 23434, Note_on_c, 0, 77, 97
2, 23500, Note_on_c, 0, 51, 0
2, 23504, Note_on_c, 0, 51, 90
2, 23513, Note_on_c, 0, 67, 0
2, 23514, Note_on_c, 0, 39, 0
2, 23516, Note_on_c, 0, 79, 0
2, 23517, Control_c, 0, 64, 0
2, 23517, Note_on_c, 0, 70, 0
2, 23520, Note_on_c, 0, 77, 0
2, 23546, Note_on_c, 0, 75, 0
2, 23562, Note_on_c, 0, 51, 0
2, 23603, Note_on_c, 0, 55, 93
2, 23612, Note_on_c, 0, 58, 94
2, 23619, Note_on_c, 0, 79, 104
2, 23619, Note_on_c, 0, 67, 99
2, 23620, Note_on_c, 0, 70, 95
2, 23622, Note_on_c, 0, 75, 93
2, 23635, Note_on_c, 0, 55, 0
2, 23669, Note_on_c, 0, 58, 0
2, 23777, Control_c, 0, 64, 127
2, 23800, Note_on_c, 0, 39, 87
2, 23804, Note_on_c, 0, 51, 80
2, 23891, Note_on_c, 0, 50, 97
2, 23894, Note_on_c, 0, 38, 91
2, 23923, Note_on_c, 0, 67, 0
2, 23928, Note_on_c, 0, 39, 0
2, 23928, Note_on_c, 0, 75, 0
2, 23929, Note_on_c, 0, 79, 0
2, 23931, Note_on_c, 0, 51, 0
2, 23933, Note_on_c, 0, 70, 0
2, 23933, Control_c, 0, 64, 0
2, 23934, Note_on_c, 0, 50, 0
2, 23937, Note_on_c, 0, 38, 0
2, 24073, Note_on_c, 0, 48, 100
2, 24073, Note_on_c, 0, 79, 104
2, 24074, Note_on_c, 0, 36, 97
2, 24076, Note_on_c, 0, 67, 98
2, 24079, Note_on_c, 0, 70, 97
2, 24081, Note_on_c, 0, 75, 89
2, 24099, Control_c, 0, 64, 127
2, 24238, Control_c, 0, 64, 0
2, 24245, Note_on_c, 0, 48, 0
2, 24249, Note_on_c, 0, 48, 88
2, 24276, Note_on_c, 0, 36, 0
2, 24322, Note_on_c, 0, 70, 0
2, 24326, Note_on_c, 0, 48, 0
2, 24342, Note_on_c, 0, 55, 95
2, 24343, Note_on_c, 0, 51, 84
2, 24353, Note_on_c, 0, 67, 0
2, 24368, Note_on_c, 0, 75, 0
2, 24372, Note_on_c, 0, 55, 0
2, 24376, Note_on_c, 0, 79, 0
2, 24377, Note_on_c, 0, 51, 0
2, 24435, Note_on_c, 0, 82, 104
2, 24436, Note_on_c, 0, 70, 101
2, 24436, Note_on_c, 0, 79, 99
2, 24438, Note_on_c, 0, 75, 96
2, 24491, Control_c, 0, 64, 127
2, 24499, Note_on_c, 0, 36, 93
2, 24596, Note_on_c, 0, 43, 95
2, 24640, Note_on_c, 0, 42, 85
2, 24665, Note_on_c, 0, 79, 0
2, 24665, Note_on_c, 0, 82, 0
2, 24667, Note_on_c, 0, 75, 0
2, 24669, Note_on_c, 0, 70, 0
2, 24670, Control_c, 0, 64, 0
2, 24676, Note_on_c, 0, 43, 0
2, 24678, Note_on_c, 0, 36, 0
2, 24693, Note_on_c, 0, 42, 0
2, 24794, Note_on_c, 0, 84, 106
2, 24795, Note_on_c, 0, 72, 107
2, 24797, Note_on_c, 0, 75, 104
2, 24797, Note_on_c, 0, 80, 97
2, 24799, Note_on_c, 0, 29, 96
2, 24799, Note_on_c, 0, 41, 95
2, 24837, Control_c, 0, 64, 127
2, 24944, Note_on_c, 0, 41, 0
2, 24950, Note_on_c, 0, 41, 88
2, 25063, Note_on_c, 0, 53, 97
2, 25064, Note_on_c, 0, 77, 101
2, 25064, Note_on_c, 0, 68, 102
2, 25066, Note_on_c, 0, 65, 96
2, 25213, Note_on_c, 0, 41, 0
2, 25218, Note_on_c, 0, 41, 93
2, 25336, Note_on_c, 0, 65, 0
2, 25336, Note_on_c, 0, 75, 0
2, 25342, Note_on_c, 0, 44, 94
2, 25346, Note_on_c, 0, 75, 104
2, 25347, Note_on_c, 0, 65, 90
2, 25393, Note_on_c, 0, 45, 85
2, 25424, Note_on_c, 0, 65, 0
2, 25424, Note_on_c, 0, 84, 0
2, 25425, Note_on_c, 0, 77, 0
2, 25425, Note_on_c, 0, 68, 0
2, 25425, Note_on_c, 0, 72, 0
2, 25426, Note_on_c, 0, 80, 0
2, 25426, Note_on_c, 0, 41, 0
2, 25426, Control_c, 0, 64, 0
2, 25426, Note_on_c, 0, 75, 0
2, 25427, Note_on_c, 0, 44, 0
2, 25428, Note_on_c, 0, 29, 0
2, 25430, Note_on_c, 0, 45, 0
2, 25451, Note_on_c, 0, 53, 0
2, 25529, Note_on_c, 0, 46, 102
2, 25529, Note_on_c, 0, 70, 104
2, 25530, Note_on_c, 0, 34, 95
2, 25530, Note_on_c, 0, 82, 104
2, 25531, Note_on_c, 0, 74, 101
2, 25555, Note_on_c, 0, 46, 0
2, 25563, Note_on_c, 0, 34, 0
2, 25582, Note_on_c, 0, 70, 0
2, 25605, Note_on_c, 0, 74, 0
2, 25628, Note_on_c, 0, 82, 0
2, 25693, Note_on_c, 0, 74, 99
2, 25693, Note_on_c, 0, 46, 96
2, 25693, Note_on_c, 0, 34, 94
2, 25694, Note_on_c, 0, 82, 103
2, 25694, Note_on_c, 0, 70, 102
2, 25755, Note_on_c, 0, 74, 0
2, 25755, Note_on_c, 0, 34, 0
2, 25757, Note_on_c, 0, 82, 0
2, 25766, Note_on_c, 0, 46, 0
2, 25766, Note_on_c, 0, 70, 0
2, 25864, Note_on_c, 0, 31, 89
2, 25864, Note_on_c, 0, 43, 93
2, 25864, Note_on_c, 0, 79, 102
2, 25868, Note_on_c, 0, 67, 94
2, 25893, Note_on_c, 0, 43, 0
2, 25894, Note_on_c, 0, 79, 0
2, 25895, Note_on_c, 0, 31, 0
2, 25912, Note_on_c, 0, 67, 0
2, 26040, Note_on_c, 0, 82, 105
2, 26042, Note_on_c, 0, 70, 103
2, 26043, Note_on_c, 0, 46, 96
2, 26044, Note_on_c, 0, 34, 93
2, 26071, Note_on_c, 0, 46, 0
2, 26071, Note_on_c, 0, 70, 0
2, 26077, Note_on_c, 0, 82, 0
2, 26077, Note_on_c, 0, 34, 0
2, 26214, Note_on_c, 0, 82, 106
2, 26216, Note_on_c, 0, 70, 100
2, 26216, Note_on_c, 0, 34, 95
2, 26216, Note_on_c, 0, 46, 99
2, 26268, Note_on_c, 0, 46, 0
2, 26269, Note_on_c, 0, 70, 0
2, 26269, Note_on_c, 0, 34, 0
2, 26275, Note_on_c, 0, 82, 0
2, 26491, Note_on_c, 0, 84, 106
2, 26491, Note_on_c, 0, 48, 101
2, 26492, Note_on_c, 0, 79, 92
2, 26492, Note_on_c, 0, 72, 108
2, 26493, Note_on_c, 0, 75, 99
2, 26494, Note_on_c, 0, 36, 93
2, 26526, Control_c, 0, 64, 127
2, 26791, Note_on_c, 0, 50, 73
2, 26798, Note_on_c, 0, 38, 71
2, 26888, Control_c, 0, 64, 0
2, 26908, Note_on_c, 0, 79, 0
2, 26909, Note_on_c, 0, 36, 0
2, 26909, Note_on_c, 0, 75, 0
2, 26909, Note_on_c, 0, 48, 0
2, 26911, Note_on_c, 0, 50, 0
2, 26911, Note_on_c, 0, 38, 0
2, 26912, Note_on_c, 0, 72, 0
2, 26913, Note_on_c, 0, 84, 0
2, 26990, Note_on_c, 0, 51, 66
2, 26991, Note_on_c, 0, 39, 60
2, 27360, Note_on_c, 0, 63, 70
2, 27532, Control_c, 0, 64, 127
2, 27544, Note_on_c, 0, 58, 77
2, 27640, Note_on_c, 0, 58, 0
2, 27644, Note_on_c, 0, 58, 63
2, 27884, Note_on_c, 0, 46, 58
2, 28055, Note_on_c, 0, 51, 0
2, 28066, Note_on_c, 0, 51, 61
2, 28066, Note_on_c, 0, 55, 70
2, 28231, Note_on_c, 0, 63, 0
2, 28239, Note_on_c, 0, 63, 70
2, 28416, Note_on_c, 0, 46, 0
2, 28416, Note_on_c, 0, 63, 0
2, 28420, Note_on_c, 0, 46, 60
2, 28425, Note_on_c, 0, 34, 64
2, 28426, Note_on_c, 0, 63, 75
2, 28431, Control_c, 0, 64, 0
2, 28440, Note_on_c, 0, 58, 0
2, 28441, Note_on_c, 0, 39, 0
2, 28442, Note_on_c, 0, 55, 0
2, 28469, Note_on_c, 0, 51, 0
2, 28679, Note_on_c, 0, 65, 76
2, 28746, Note_on_c, 0, 63, 0
2, 28756, Note_on_c, 0, 63, 29
2, 28784, Note_on_c, 0, 63, 0
2, 28792, Control_c, 0, 64, 127
2, 28800, Control_c, 0, 64, 0
2, 28884, Control_c, 0, 64, 127
2, 28978, Note_on_c, 0, 58, 76
2, 29176, Note_on_c, 0, 58, 0
2, 29180, Note_on_c, 0, 58, 71
2, 29337, Note_on_c, 0, 46, 0
2, 29345, Note_on_c, 0, 46, 55
2, 29514, Note_on_c, 0, 53, 67
2, 29517, Note_on_c, 0, 50, 54
2, 29698, Note_on_c, 0, 58, 0
2, 29709, Note_on_c, 0, 58, 71
2, 29792, Note_on_c, 0, 63, 73
2, 29808, Control_c, 0, 64, 0
2, 29843, Note_on_c, 0, 53, 0
2, 29847, Note_on_c, 0, 65, 0
2, 29847, Note_on_c, 0, 34, 0
2, 29848, Note_on_c, 0, 50, 0
2, 29848, Note_on_c, 0, 46, 0
2, 29879, Note_on_c, 0, 67, 88
2, 29891, Note_on_c, 0, 36, 65
2, 29892, Note_on_c, 0, 48, 71
2, 29982, Control_c, 0, 64, 127
2, 30157, Note_on_c, 0, 68, 88
2, 30435, Note_on_c, 0, 67, 0
2, 30440, Note_on_c, 0, 67, 83
2, 30565, Note_on_c, 0, 36, 0
2, 30566, Note_on_c, 0, 63, 0
2, 30566, Note_on_c, 0, 48, 0
2, 30566, Note_on_c, 0, 68, 0
2, 30568, Control_c, 0, 64, 0
2, 30574, Note_on_c, 0, 58, 0
2, 30612, Note_on_c, 0, 46, 67
2, 30614, Note_on_c, 0, 34, 66
2, 30615, Note_on_c, 0, 65, 83
2, 30758, Control_c, 0, 64, 127
2, 30906, Note_on_c, 0, 63, 79
2, 30993, Note_on_c, 0, 50, 72
2, 30993, Note_on_c, 0, 53, 69
2, 31180, Note_on_c, 0, 65, 0
2, 31191, Note_on_c, 0, 65, 87
2, 31290, Note_on_c, 0, 34, 0
2, 31290, Note_on_c, 0, 46, 0
2, 31292, Note_on_c, 0, 50, 0
2, 31299, Control_c, 0, 64, 0
2, 31305, Note_on_c, 0, 53, 0
2, 31357, Note_on_c, 0, 67, 0
2, 31364, Note_on_c, 0, 32, 65
2, 31365, Note_on_c, 0, 63, 0
2, 31367, Note_on_c, 0, 67, 84
2, 31368, Note_on_c, 0, 63, 66
2, 31370, Note_on_c, 0, 44, 68
2, 31374, Note_on_c, 0, 60, 61
2, 31395, Note_on_c, 0, 65, 0
2, 31610, Control_c, 0, 64, 127
2, 31656, Note_on_c, 0, 68, 80
2, 31933, Note_on_c, 0, 44, 0
2, 31933, Note_on_c, 0, 67, 0
2, 31938, Note_on_c, 0, 44, 59
2, 31944, Note_on_c, 0, 67, 73
2, 32110, Note_on_c, 0, 60, 0
2, 32119, Note_on_c, 0, 60, 86
2, 32296, Note_on_c, 0, 51, 54
2, 32473, Note_on_c, 0, 55, 69
2, 32647, Note_on_c, 0, 60, 0
2, 32652, Note_on_c, 0, 60, 59
2, 32735, Note_on_c, 0, 62, 73
2, 32798, Control_c, 0, 64, 0
2, 32802, Note_on_c, 0, 60, 0
2, 32804, Note_on_c, 0, 67, 0
2, 32805, Note_on_c, 0, 44, 0
2, 32806, Note_on_c, 0, 68, 0
2, 32807, Note_on_c, 0, 32, 0
2, 32808, Note_on_c, 0, 51, 0
2, 32810, Note_on_c, 0, 55, 0
2, 32832, Note_on_c, 0, 63, 0
2, 32832, Note_on_c, 0, 46, 66
2, 32837, Note_on_c, 0, 34, 68
2, 32840, Note_on_c, 0, 63, 85
2, 32855, Note_on_c, 0, 62, 0
2, 32996, Note_on_c, 0, 63, 0
2, 33095, Note_on_c, 0, 63, 69
2, 33200, Control_c, 0, 64, 127
2, 33384, Note_on_c, 0, 46, 0
2, 33394, Note_on_c, 0, 46, 56
2, 33396, Note_on_c, 0, 62, 68
2, 33576, Note_on_c, 0, 62, 0
2, 33588, Note_on_c, 0, 62, 86
2, 33759, Note_on_c, 0, 53, 73
2, 33935, Note_on_c, 0, 58, 82
2, 34099, Note_on_c, 0, 63, 0
2, 34109, Note_on_c, 0, 63, 80
2, 34209, Note_on_c, 0, 65, 76
2, 34272, Control_c, 0, 64, 0
2, 34278, Note_on_c, 0, 62, 0
2, 34280, Note_on_c, 0, 46, 0
2, 34285, Note_on_c, 0, 34, 0
2, 34288, Note_on_c, 0, 53, 0
2, 34296, Note_on_c, 0, 68, 95
2, 34306, Note_on_c, 0, 58, 0
2, 34306, Note_on_c, 0, 63, 0
2, 34310, Note_on_c, 0, 39, 70
2, 34313, Note_on_c, 0, 51, 72
2, 34314, Note_on_c, 0, 63, 71
2, 34316, Note_on_c, 0, 58, 71
2, 34437, Control_c, 0, 64, 127
2, 34570, Note_on_c, 0, 67, 90
2, 34851, Note_on_c, 0, 65, 0
2, 34861, Note_on_c, 0, 38, 68
2, 34862, Note_on_c, 0, 65, 84
2, 34862, Note_on_c, 0, 50, 62
2, 34972, Control_c, 0, 64, 0
2, 34977, Note_on_c, 0, 67, 0
2, 34978, Note_on_c, 0, 68, 0
2, 34978, Note_on_c, 0, 58, 0
2, 34979, Note_on_c, 0, 51, 0
2, 34979, Note_on_c, 0, 63, 0
2, 34979, Note_on_c, 0, 39, 0
2, 35029, Note_on_c, 0, 63, 88
2, 35035, Note_on_c, 0, 60, 69
2, 35036, Note_on_c, 0, 36, 62
2, 35044, Note_on_c, 0, 48, 65
2, 35051, Note_on_c, 0, 50, 0
2, 35059, Note_on_c, 0, 38, 0
2, 35128, Control_c, 0, 64, 127
2, 35220, Note_on_c, 0, 48, 0
2, 35226, Note_on_c, 0, 48, 61
2, 35394, Note_on_c, 0, 55, 72
2, 35412, Note_on_c, 0, 65, 0
2, 35415, Note_on_c, 0, 51, 50
2, 35595, Note_on_c, 0, 67, 88
2, 35765, Note_on_c, 0, 67, 0
2, 35771, Note_on_c, 0, 67, 91
2, 35781, Note_on_c, 0, 60, 0
2, 35783, Control_c, 0, 64, 0
2, 35785, Note_on_c, 0, 50, 69
2, 35785, Note_on_c, 0, 38, 69
2, 35786, Note_on_c, 0, 57, 71
2, 35787, Note_on_c, 0, 60, 65
2, 35790, Note_on_c, 0, 55, 0
2, 35791, Note_on_c, 0, 63, 0
2, 35791, Note_on_c, 0, 51, 0
2, 35792, Note_on_c, 0, 48, 0
2, 35792, Note_on_c, 0, 36, 0
2, 35942, Control_c, 0, 64, 127
2, 36040, Note_on_c, 0, 65, 93
2, 36318, Note_on_c, 0, 57, 0
2, 36322, Note_on_c, 0, 64, 92
2, 36324, Note_on_c, 0, 53, 69
2, 36327, Note_on_c, 0, 57, 70
2, 36503, Note_on_c, 0, 65, 0
2, 36511, Note_on_c, 0, 65, 90
2, 36664, Note_on_c, 0, 38, 0
2, 36672, Note_on_c, 0, 38, 68
2, 36856, Note_on_c, 0, 60, 0
2, 36861, Note_on_c, 0, 60, 86
2, 37025, Note_on_c, 0, 50, 0
2, 37035, Note_on_c, 0, 50, 66
2, 37205, Control_c, 0, 64, 0
2, 37209, Note_on_c, 0, 60, 0
2, 37217, Note_on_c, 0, 60, 84
2, 37218, Note_on_c, 0, 43, 68
2, 37224, Note_on_c, 0, 57, 0
2, 37228, Note_on_c, 0, 65, 0
2, 37228, Note_on_c, 0, 64, 0
2, 37229, Note_on_c, 0, 53, 0
2, 37229, Note_on_c, 0, 38, 0
2, 37230, Note_on_c, 0, 50, 0
2, 37236, Note_on_c, 0, 57, 70
2, 37248, Note_on_c, 0, 67, 0
2, 37424, Control_c, 0, 64, 127
2, 37497, Note_on_c, 0, 50, 55
2, 37771, Note_on_c, 0, 62, 77
2, 37785, Note_on_c, 0, 57, 0
2, 37796, Note_on_c, 0, 57, 60
2, 37954, Note_on_c, 0, 62, 0
2, 37959, Note_on_c, 0, 62, 73
2, 37969, Note_on_c, 0, 59, 68
2, 37977, Control_c, 0, 64, 0
2, 38008, Note_on_c, 0, 60, 0
2, 38139, Note_on_c, 0, 50, 0
2, 38140, Note_on_c, 0, 57, 0
2, 38154, Control_c, 0, 64, 127
2, 38330, Note_on_c, 0, 43, 0
2, 38341, Note_on_c, 0, 43, 57
2, 38687, Note_on_c, 0, 39, 68
2, 38694, Control_c, 0, 64, 0
2, 38712, Note_on_c, 0, 43, 0
2, 38719, Note_on_c, 0, 59, 0
2, 38726, Note_on_c, 0, 62, 0
2, 38837, Control_c, 0, 64, 127
2, 38873, Note_on_c, 0, 46, 69
2, 39040, Note_on_c, 0, 51, 69
2, 39041, Note_on_c, 0, 75, 90
2, 39223, Note_on_c, 0, 70, 84
2, 39240, Note_on_c, 0, 55, 67
2, 39306, Note_on_c, 0, 70, 0
2, 39312, Note_on_c, 0, 70, 84
2, 39582, Note_on_c, 0, 51, 0
2, 39592, Note_on_c, 0, 51, 73
2, 39759, Note_on_c, 0, 55, 0
2, 39760, Note_on_c, 0, 63, 90
2, 39763, Note_on_c, 0, 58, 82
2, 39764, Note_on_c, 0, 55, 71
2, 39928, Note_on_c, 0, 75, 0
2, 39933, Note_on_c, 0, 75, 93
2, 40077, Control_c, 0, 64, 0
2, 40080, Note_on_c, 0, 46, 0
2, 40080, Note_on_c, 0, 63, 0
2, 40080, Note_on_c, 0, 58, 0
2, 40082, Note_on_c, 0, 51, 0
2, 40083, Note_on_c, 0, 39, 0
2, 40083, Note_on_c, 0, 70, 0
2, 40083, Note_on_c, 0, 55, 0
2, 40104, Note_on_c, 0, 75, 0
2, 40111, Note_on_c, 0, 34, 84
2, 40114, Note_on_c, 0, 75, 96
2, 40212, Control_c, 0, 64, 127
2, 40297, Note_on_c, 0, 41, 68
2, 40387, Note_on_c, 0, 77, 97
2, 40480, Note_on_c, 0, 46, 83
2, 40644, Note_on_c, 0, 50, 80
2, 40663, Note_on_c, 0, 70, 98
2, 40842, Note_on_c, 0, 70, 0
2, 40847, Note_on_c, 0, 70, 94
2, 40942, Note_on_c, 0, 46, 0
2, 40952, Note_on_c, 0, 46, 79
2, 41044, Note_on_c, 0, 53, 86
2, 41133, Note_on_c, 0, 58, 87
2, 41207, Note_on_c, 0, 62, 96
2, 41293, Note_on_c, 0, 65, 88
2, 41372, Note_on_c, 0, 70, 0
2, 41382, Note_on_c, 0, 70, 89
2, 41441, Note_on_c, 0, 75, 0
2, 41451, Note_on_c, 0, 75, 95
2, 41522, Control_c, 0, 64, 0
2, 41534, Note_on_c, 0, 65, 0
2, 41534, Note_on_c, 0, 77, 0
2, 41534, Note_on_c, 0, 62, 0
2, 41535, Note_on_c, 0, 41, 0
2, 41535, Note_on_c, 0, 53, 0
2, 41536, Note_on_c, 0, 58, 0
2, 41536, Note_on_c, 0, 50, 0
2, 41536, Note_on_c, 0, 46, 0
2, 41548, Note_on_c, 0, 34, 0
2, 41548, Note_on_c, 0, 70, 0
2, 41552, Note_on_c, 0, 79, 104
2, 41557, Note_on_c, 0, 67, 95
2, 41558, Note_on_c, 0, 48, 86
2, 41560, Note_on_c, 0, 70, 91
2, 41564, Note_on_c, 0, 75, 0
2, 41656, Control_c, 0, 64, 127
2, 41828, Note_on_c, 0, 80, 101
2, 41834, Note_on_c, 0, 55, 90
2, 41886, Note_on_c, 0, 67, 0
2, 42101, Note_on_c, 0, 79, 0
2, 42105, Note_on_c, 0, 79, 96
2, 42110, Note_on_c, 0, 58, 80
2, 42110, Note_on_c, 0, 63, 84
2, 42289, Control_c, 0, 64, 0
2, 42290, Note_on_c, 0, 77, 97
2, 42293, Note_on_c, 0, 70, 0
2, 42295, Note_on_c, 0, 74, 88
2, 42296, Note_on_c, 0, 48, 0
2, 42297, Note_on_c, 0, 65, 88
2, 42297, Note_on_c, 0, 46, 87
2, 42297, Note_on_c, 0, 58, 0
2, 42298, Note_on_c, 0, 80, 0
2, 42298, Note_on_c, 0, 70, 87
2, 42298, Note_on_c, 0, 63, 0
2, 42299, Note_on_c, 0, 55, 0
2, 42303, Note_on_c, 0, 79, 0
2, 42408, Control_c, 0, 64, 127
2, 42574, Note_on_c, 0, 75, 92
2, 42670, Note_on_c, 0, 62, 90
2, 42671, Note_on_c, 0, 53, 75
2, 42673, Note_on_c, 0, 58, 78
2, 42839, Note_on_c, 0, 77, 0
2, 42850, Note_on_c, 0, 77, 92
2, 42984, Control_c, 0, 64, 0
2, 42995, Note_on_c, 0, 70, 0
2, 42996, Note_on_c, 0, 65, 0
2, 42996, Note_on_c, 0, 62, 0
2, 42996, Note_on_c, 0, 53, 0
2, 42996, Note_on_c, 0, 74, 0
2, 42997, Note_on_c, 0, 58, 0
2, 42997, Note_on_c, 0, 46, 0
2, 43015, Note_on_c, 0, 75, 0
2, 43019, Note_on_c, 0, 79, 97
2, 43019, Note_on_c, 0, 72, 90
2, 43020, Note_on_c, 0, 75, 81
2, 43024, Note_on_c, 0, 67, 82
2, 43026, Note_on_c, 0, 44, 79
2, 43031, Note_on_c, 0, 77, 0
2, 43215, Control_c, 0, 64, 127
2, 43246, Note_on_c, 0, 67, 0
2, 43306, Note_on_c, 0, 80, 91
2, 43316, Note_on_c, 0, 51, 62
2, 43560, Note_on_c, 0, 79, 0
2, 43565, Note_on_c, 0, 56, 69
2, 43572, Note_on_c, 0, 79, 89
2, 43576, Note_on_c, 0, 60, 59
2, 43752, Note_on_c, 0, 72, 0
2, 43761, Note_on_c, 0, 72, 86
2, 43921, Note_on_c, 0, 56, 0
2, 43927, Note_on_c, 0, 56, 61
2, 44090, Note_on_c, 0, 60, 0
2, 44096, Note_on_c, 0, 60, 66
2, 44097, Note_on_c, 0, 63, 65
2, 44282, Note_on_c, 0, 72, 0
2, 44292, Note_on_c, 0, 72, 77
2, 44367, Note_on_c, 0, 74, 81
2, 44433, Control_c, 0, 64, 0
2, 44436, Note_on_c, 0, 75, 0
2, 44447, Note_on_c, 0, 75, 88
2, 44449, Note_on_c, 0, 46, 71
2, 44449, Note_on_c, 0, 63, 0
2, 44452, Note_on_c, 0, 51, 0
2, 44453, Note_on_c, 0, 80, 0
2, 44454, Note_on_c, 0, 79, 0
2, 44454, Note_on_c, 0, 44, 0
2, 44455, Note_on_c, 0, 56, 0
2, 44455, Note_on_c, 0, 72, 0
2, 44456, Note_on_c, 0, 60, 0
2, 44457, Note_on_c, 0, 74, 0
2, 44463, Note_on_c, 0, 67, 64
2, 44605, Note_on_c, 0, 75, 0
2, 44726, Note_on_c, 0, 75, 89
2, 44732, Note_on_c, 0, 53, 72
2, 44789, Control_c, 0, 64, 127
2, 44999, Note_on_c, 0, 58, 82
2, 45026, Note_on_c, 0, 74, 85
2, 45033, Note_on_c, 0, 75, 0
2, 45035, Control_c, 0, 64, 0
2, 45196, Note_on_c, 0, 74, 0
2, 45201, Note_on_c, 0, 74, 95
2, 45204, Control_c, 0, 64, 127
2, 45207, Note_on_c, 0, 65, 69
2, 45273, Note_on_c, 0, 67, 0
2, 45374, Note_on_c, 0, 60, 69
2, 45551, Note_on_c, 0, 62, 99
2, 45729, Note_on_c, 0, 75, 77
2, 45807, Note_on_c, 0, 77, 86
2, 45890, Note_on_c, 0, 58, 0
2, 45890, Note_on_c, 0, 46, 0
2, 45890, Note_on_c, 0, 60, 0
2, 45890, Note_on_c, 0, 65, 0
2, 45891, Note_on_c, 0, 62, 0
2, 45891, Note_on_c, 0, 53, 0
2, 45892, Control_c, 0, 64, 0
2, 45892, Note_on_c, 0, 74, 0
2, 45893, Note_on_c, 0, 77, 0
2, 45909, Note_on_c, 0, 80, 97
2, 45915, Note_on_c, 0, 51, 80
2, 45918, Note_on_c, 0, 75, 0
2, 45923, Note_on_c, 0, 75, 85
2, 45924, Note_on_c, 0, 70, 79
2, 46041, Control_c, 0, 64, 127
2, 46191, Note_on_c, 0, 79, 92
2, 46191, Note_on_c, 0, 58, 88
2, 46466, Note_on_c, 0, 50, 58
2, 46468, Note_on_c, 0, 77, 87
2, 46622, Control_c, 0, 64, 0
2, 46628, Note_on_c, 0, 51, 0
2, 46628, Note_on_c, 0, 80, 0
2, 46628, Note_on_c, 0, 79, 0
2, 46634, Note_on_c, 0, 50, 0
2, 46648, Note_on_c, 0, 75, 0
2, 46651, Note_on_c, 0, 48, 81
2, 46652, Note_on_c, 0, 75, 87
2, 46717, Note_on_c, 0, 70, 0
2, 46794, Control_c, 0, 64, 127
2, 46829, Note_on_c, 0, 62, 79
2, 46835, Note_on_c, 0, 55, 67
2, 46993, Note_on_c, 0, 58, 0
2, 47003, Note_on_c, 0, 58, 77
2, 47013, Note_on_c, 0, 63, 93
2, 47179, Note_on_c, 0, 79, 93
2, 47339, Note_on_c, 0, 79, 0
2, 47350, Note_on_c, 0, 79, 99
2, 47360, Control_c, 0, 64, 0
2, 47361, Note_on_c, 0, 72, 82
2, 47361, Note_on_c, 0, 62, 0
2, 47364, Note_on_c, 0, 48, 0
2, 47364, Note_on_c, 0, 69, 81
2, 47364, Note_on_c, 0, 63, 0
2, 47364, Note_on_c, 0, 50, 76
2, 47364, Note_on_c, 0, 58, 0
2, 47365, Note_on_c, 0, 55, 0
2, 47366, Note_on_c, 0, 75, 0
2, 47370, Note_on_c, 0, 77, 0
2, 47629, Note_on_c, 0, 77, 93
2, 47639, Note_on_c, 0, 57, 72
2, 47738, Note_on_c, 0, 79, 0
2, 47800, Control_c, 0, 64, 127
2, 47869, Control_c, 0, 64, 0
2, 47902, Note_on_c, 0, 76, 93
2, 47913, Note_on_c, 0, 60, 77
2, 47938, Note_on_c, 0, 69, 0
2, 47940, Note_on_c, 0, 77, 0
2, 48000, Control_c, 0, 64, 127
2, 48103, Note_on_c, 0, 65, 92
2, 48103, Note_on_c, 0, 77, 102
2, 48379, Note_on_c, 0, 79, 101
2, 48382, Note_on_c, 0, 67, 93
2, 48393, Control_c, 0, 64, 0
2, 48468, Control_c, 0, 64, 127
2, 48499, Note_on_c, 0, 50, 0
2, 48503, Note_on_c, 0, 50, 78
2, 48514, Note_on_c, 0, 57, 0
2, 48661, Note_on_c, 0, 80, 99
2, 48666, Note_on_c, 0, 68, 93
2, 48675, Note_on_c, 0, 72, 0
2, 48729, Note_on_c, 0, 76, 0
2, 48852, Note_on_c, 0, 65, 0
2, 48852, Note_on_c, 0, 79, 0
2, 48860, Note_on_c, 0, 67, 0
2, 48861, Note_on_c, 0, 79, 98
2, 48862, Note_on_c, 0, 43, 78
2, 48863, Control_c, 0, 64, 0
2, 48863, Note_on_c, 0, 80, 0
2, 48864, Note_on_c, 0, 68, 0
2, 48864, Note_on_c, 0, 50, 0
2, 48865, Note_on_c, 0, 74, 89
2, 48866, Note_on_c, 0, 77, 0
2, 48867, Note_on_c, 0, 60, 0
2, 48870, Note_on_c, 0, 67, 80
2, 48870, Note_on_c, 0, 71, 82
2, 49029, Note_on_c, 0, 50, 72
2, 49105, Control_c, 0, 64, 127
2, 49214, Note_on_c, 0, 57, 92
2, 49367, Note_on_c, 0, 43, 0
2, 49375, Note_on_c, 0, 43, 79
2, 49466, Note_on_c, 0, 50, 0
2, 49477, Note_on_c, 0, 50, 72
2, 49555, Note_on_c, 0, 59, 97
2, 49560, Note_on_c, 0, 55, 86
2, 49595, Control_c, 0, 64, 0
2, 49601, Note_on_c, 0, 74, 0
2, 49601, Note_on_c, 0, 43, 0
2, 49601, Note_on_c, 0, 50, 0
2, 49601, Note_on_c, 0, 71, 0
2, 49602, Note_on_c, 0, 57, 0
2, 49602, Note_on_c, 0, 67, 0
2, 49602, Note_on_c, 0, 55, 0
2, 49612, Note_on_c, 0, 79, 0
2, 49666, Note_on_c, 0, 59, 0
2, 49720, Note_on_c, 0, 43, 77
2, 49822, Note_on_c, 0, 60, 92
2, 49832, Note_on_c, 0, 57, 86
2, 49840, Note_on_c, 0, 55, 77
2, 49842, Note_on_c, 0, 50, 73
2, 49861, Note_on_c, 0, 43, 0
2, 49978, Note_on_c, 0, 60, 0
2, 49984, Note_on_c, 0, 50, 0
2, 49985, Note_on_c, 0, 57, 0
2, 49986, Note_on_c, 0, 43, 75
2, 50019, Note_on_c, 0, 55, 0
2, 50095, Note_on_c, 0, 62, 89
2, 50096, Note_on_c, 0, 43, 0
2, 50100, Note_on_c, 0, 59, 82
2, 50106, Note_on_c, 0, 43, 70
2, 50107, Note_on_c, 0, 55, 74
2, 50110, Note_on_c, 0, 50, 68
2, 50140, Note_on_c, 0, 55, 0
2, 50144, Note_on_c, 0, 50, 0
2, 50145, Note_on_c, 0, 43, 0
2, 50146, Note_on_c, 0, 59, 0
2, 50220, Note_on_c, 0, 62, 0
2, 50271, Note_on_c, 0, 56, 87
2, 50277, Note_on_c, 0, 44, 86
2, 50278, Note_on_c, 0, 51, 74
2, 50279, Note_on_c, 0, 63, 92
2, 50283, Note_on_c, 0, 60, 77
2, 50329, Note_on_c, 0, 44, 0
2, 50336, Note_on_c, 0, 60, 0
2, 50357, Note_on_c, 0, 51, 0
2, 50373, Note_on_c, 0, 56, 0
2, 50411, Note_on_c, 0, 63, 0
2, 50457, Note_on_c, 0, 32, 80
2, 50561, Note_on_c, 0, 63, 91
2, 50566, Note_on_c, 0, 60, 82
2, 50595, Control_c, 0, 64, 127
2, 50711, Note_on_c, 0, 44, 75
2, 50801, Note_on_c, 0, 51, 70
2, 50830, Note_on_c, 0, 62, 82
2, 50861, Control_c, 0, 64, 0
2, 50910, Note_on_c, 0, 51, 0
2, 50912, Note_on_c, 0, 60, 0
2, 50913, Note_on_c, 0, 62, 0
2, 50914, Note_on_c, 0, 63, 0
2, 50926, Note_on_c, 0, 44, 0
2, 50935, Note_on_c, 0, 44, 74
2, 50949, Note_on_c, 0, 32, 0
2, 51008, Note_on_c, 0, 51, 78
2, 51009, Note_on_c, 0, 56, 88
2, 51012, Note_on_c, 0, 63, 93
2, 51020, Note_on_c, 0, 60, 87
2, 51043, Note_on_c, 0, 51, 0
2, 51050, Note_on_c, 0, 56, 0
2, 51072, Note_on_c, 0, 44, 0
2, 51082, Note_on_c, 0, 63, 0
2, 51087, Note_on_c, 0, 60, 0
2, 51177, Note_on_c, 0, 32, 85
2, 51183, Note_on_c, 0, 44, 82
2, 51283, Note_on_c, 0, 63, 92
2, 51283, Note_on_c, 0, 60, 77
2, 51333, Control_c, 0, 64, 127
2, 51432, Note_on_c, 0, 44, 0
2, 51437, Note_on_c, 0, 44, 84
2, 51515, Note_on_c, 0, 51, 84
2, 51529, Note_on_c, 0, 62, 83
2, 51601, Note_on_c, 0, 44, 0
2, 51608, Note_on_c, 0, 44, 84
2, 51690, Note_on_c, 0, 60, 0
2, 51690, Note_on_c, 0, 51, 0
2, 51690, Note_on_c, 0, 44, 0
2, 51690, Note_on_c, 0, 62, 0
2, 51690, Note_on_c, 0, 32, 0
2, 51691, Note_on_c, 0, 63, 0
2, 51691, Control_c, 0, 64, 0
2, 51708, Note_on_c, 0, 65, 96
2, 51712, Note_on_c, 0, 53, 91
2, 51713, Note_on_c, 0, 58, 83
2, 51715, Note_on_c, 0, 50, 85
2, 51718, Note_on_c, 0, 43, 82
2, 51763, Note_on_c, 0, 53, 0
2, 51768, Note_on_c, 0, 58, 0
2, 51770, Note_on_c, 0, 50, 0
2, 51773, Note_on_c, 0, 43, 0
2, 51840, Note_on_c, 0, 65, 0
2, 51896, Note_on_c, 0, 43, 89
2, 51896, Note_on_c, 0, 31, 86
2, 51924, Note_on_c, 0, 43, 0
2, 51985, Note_on_c, 0, 43, 81
2, 51989, Note_on_c, 0, 65, 92
2, 51990, Note_on_c, 0, 58, 83
2, 51990, Note_on_c, 0, 62, 82
2, 52001, Control_c, 0, 64, 127
2, 52131, Note_on_c, 0, 31, 0
2, 52139, Note_on_c, 0, 43, 0
2, 52141, Note_on_c, 0, 31, 74
2, 52143, Note_on_c, 0, 43, 73
2, 52237, Note_on_c, 0, 50, 75
2, 52239, Note_on_c, 0, 58, 0
2, 52241, Note_on_c, 0, 63, 80
2, 52249, Note_on_c, 0, 58, 60
2, 52316, Note_on_c, 0, 43, 0
2, 52323, Note_on_c, 0, 43, 87
2, 52404, Control_c, 0, 64, 0
2, 52408, Note_on_c, 0, 31, 0
2, 52418, Note_on_c, 0, 50, 0
2, 52419, Note_on_c, 0, 65, 0
2, 52420, Note_on_c, 0, 63, 0
2, 52423, Note_on_c, 0, 58, 0
2, 52423, Note_on_c, 0, 62, 0
2, 52430, Note_on_c, 0, 48, 86
2, 52432, Note_on_c, 0, 62, 91
2, 52433, Note_on_c, 0, 55, 85
2, 52435, Note_on_c, 0, 58, 85
2, 52439, Note_on_c, 0, 43, 0
2, 52444, Note_on_c, 0, 43, 72
2, 52466, Note_on_c, 0, 58, 0
2, 52467, Note_on_c, 0, 55, 0
2, 52470, Note_on_c, 0, 48, 0
2, 52485, Note_on_c, 0, 43, 0
2, 52538, Note_on_c, 0, 62, 0
2, 52612, Note_on_c, 0, 48, 86
2, 52613, Note_on_c, 0, 36, 81
2, 52684, Control_c, 0, 64, 127
2, 52702, Note_on_c, 0, 60, 92
2, 52846, Note_on_c, 0, 36, 0
2, 52856, Note_on_c, 0, 36, 82
2, 52945, Note_on_c, 0, 48, 0
2, 52946, Note_on_c, 0, 62, 90
2, 52950, Note_on_c, 0, 48, 82
2, 52958, Note_on_c, 0, 55, 69
2, 53022, Note_on_c, 0, 36, 0
2, 53028, Note_on_c, 0, 36, 70
2, 53122, Note_on_c, 0, 60, 0
2, 53130, Note_on_c, 0, 48, 0
2, 53130, Note_on_c, 0, 63, 89
2, 53132, Note_on_c, 0, 51, 89
2, 53133, Note_on_c, 0, 60, 79
2, 53134, Note_on_c, 0, 56, 80
2, 53136, Note_on_c, 0, 48, 84
2, 53157, Control_c, 0, 64, 0
2, 53180, Note_on_c, 0, 62, 0
2, 53181, Note_on_c, 0, 36, 0
2, 53182, Note_on_c, 0, 60, 0
2, 53187, Note_on_c, 0, 48, 0
2, 53188, Note_on_c, 0, 51, 0
2, 53193, Note_on_c, 0, 56, 0
2, 53196, Note_on_c, 0, 63, 0
2, 53199, Note_on_c, 0, 55, 0
2, 53315, Note_on_c, 0, 29, 85
2, 53316, Note_on_c, 0, 41, 80
2, 53383, Control_c, 0, 64, 127
2, 53416, Note_on_c, 0, 63, 93
2, 53424, Note_on_c, 0, 60, 82
2, 53426, Note_on_c, 0, 56, 79
2, 53568, Note_on_c, 0, 41, 0
2, 53578, Note_on_c, 0, 41, 78
2, 53672, Note_on_c, 0, 62, 83
2, 53673, Note_on_c, 0, 48, 78
2, 53760, Note_on_c, 0, 41, 0
2, 53767, Note_on_c, 0, 41, 85
2, 53849, Note_on_c, 0, 56, 0
2, 53849, Note_on_c, 0, 60, 0
2, 53850, Note_on_c, 0, 63, 0
2, 53850, Note_on_c, 0, 48, 0
2, 53850, Control_c, 0, 64, 0
2, 53852, Note_on_c, 0, 41, 0
2, 53859, Note_on_c, 0, 62, 0
2, 53864, Note_on_c, 0, 65, 94
2, 53867, Note_on_c, 0, 29, 0
2, 53867, Note_on_c, 0, 62, 86
2, 53868, Note_on_c, 0, 46, 90
2, 53868, Note_on_c, 0, 53, 83
2, 53870, Note_on_c, 0, 58, 85
2, 53902, Note_on_c, 0, 46, 0
2, 53928, Note_on_c, 0, 53, 0
2, 53936, Note_on_c, 0, 62, 0
2, 53952, Note_on_c, 0, 58, 0
2, 54030, Note_on_c, 0, 46, 85
2, 54031, Note_on_c, 0, 34, 83
2, 54074, Control_c, 0, 64, 127
2, 54132, Note_on_c, 0, 62, 91
2, 54147, Note_on_c, 0, 58, 69
2, 54151, Note_on_c, 0, 46, 0
2, 54156, Note_on_c, 0, 46, 61
2, 54282, Note_on_c, 0, 46, 0
2, 54292, Note_on_c, 0, 46, 87
2, 54300, Note_on_c, 0, 34, 0
2, 54386, Note_on_c, 0, 60, 88
2, 54387, Note_on_c, 0, 53, 81
2, 54474, Note_on_c, 0, 46, 0
2, 54478, Note_on_c, 0, 46, 71
2, 54520, Note_on_c, 0, 65, 0
2, 54536, Note_on_c, 0, 60, 0
2, 54536, Note_on_c, 0, 46, 0
2, 54537, Note_on_c, 0, 53, 0
2, 54546, Control_c, 0, 64, 0
2, 54551, Note_on_c, 0, 58, 0
2, 54551, Note_on_c, 0, 62, 0
2, 54578, Note_on_c, 0, 34, 84
2, 54581, Note_on_c, 0, 58, 91
2, 54585, Note_on_c, 0, 55, 80
2, 54673, Control_c, 0, 64, 127
2, 54760, Note_on_c, 0, 46, 72
2, 54927, Note_on_c, 0, 58, 0
2, 54936, Control_c, 0, 64, 0
2, 54938, Note_on_c, 0, 67, 100
2, 54938, Note_on_c, 0, 58, 89
2, 54938, Note_on_c, 0, 53, 90
2, 54942, Note_on_c, 0, 61, 91
2, 54942, Note_on_c, 0, 55, 0
2, 54951, Note_on_c, 0, 55, 75
2, 55011, Control_c, 0, 64, 127
2, 55108, Note_on_c, 0, 52, 83
2, 55111, Note_on_c, 0, 34, 0
2, 55207, Note_on_c, 0, 39, 90
2, 55214, Note_on_c, 0, 51, 90
2, 55216, Control_c, 0, 64, 0
2, 55224, Note_on_c, 0, 53, 0
2, 55225, Note_on_c, 0, 52, 0
2, 55226, Note_on_c, 0, 55, 0
2, 55226, Note_on_c, 0, 67, 0
2, 55228, Note_on_c, 0, 61, 0
2, 55234, Note_on_c, 0, 46, 0
2, 55249, Note_on_c, 0, 58, 0
2, 55288, Note_on_c, 0, 51, 0
2, 55311, Control_c, 0, 64, 127
2, 55311, Note_on_c, 0, 68, 98
2, 55315, Note_on_c, 0, 63, 91
2, 55316, Note_on_c, 0, 60, 86
2, 55488, Note_on_c, 0, 39, 0
2, 55493, Note_on_c, 0, 39, 86
2, 55655, Note_on_c, 0, 46, 94
2, 55659, Note_on_c, 0, 70, 103
2, 55829, Note_on_c, 0, 45, 91
2, 55914, Note_on_c, 0, 39, 0
2, 55914, Note_on_c, 0, 63, 0
2, 55914, Note_on_c, 0, 60, 0
2, 55914, Note_on_c, 0, 46, 0
2, 55915, Note_on_c, 0, 70, 0
2, 55915, Note_on_c, 0, 68, 0
2, 55916, Note_on_c, 0, 45, 0
2, 55918, Control_c, 0, 64, 0
2, 56004, Note_on_c, 0, 55, 92
2, 56005, Note_on_c, 0, 75, 100
2, 56006, Note_on_c, 0, 63, 100
2, 56006, Note_on_c, 0, 67, 96
2, 56006, Note_on_c, 0, 51, 88
2, 56010, Note_on_c, 0, 44, 90
2, 56087, Note_on_c, 0, 44, 0
2, 56111, Note_on_c, 0, 55, 0
2, 56120, Note_on_c, 0, 63, 0
2, 56125, Note_on_c, 0, 51, 0
2, 56133, Note_on_c, 0, 67, 0
2, 56176, Note_on_c, 0, 32, 89
2, 56178, Note_on_c, 0, 44, 89
2, 56209, Note_on_c, 0, 75, 0
2, 56256, Note_on_c, 0, 32, 0
2, 56256, Note_on_c, 0, 44, 0
2, 56290, Note_on_c, 0, 75, 95
2, 56292, Note_on_c, 0, 67, 91
2, 56294, Note_on_c, 0, 63, 92
2, 56348, Control_c, 0, 64, 127
2, 56443, Note_on_c, 0, 44, 76
2, 56520, Note_on_c, 0, 51, 73
2, 56547, Note_on_c, 0, 74, 98
2, 56640, Note_on_c, 0, 44, 0
2, 56647, Note_on_c, 0, 44, 92
2, 56732, Note_on_c, 0, 51, 0
2, 56732, Note_on_c, 0, 67, 0
2, 56732, Note_on_c, 0, 75, 0
2, 56736, Note_on_c, 0, 55, 99
2, 56737, Note_on_c, 0, 75, 100
2, 56742, Note_on_c, 0, 51, 91
2, 56742, Note_on_c, 0, 67, 96
2, 56742, Note_on_c, 0, 72, 96
2, 56778, Control_c, 0, 64, 0
2, 56798, Note_on_c, 0, 67, 0
2, 56798, Note_on_c, 0, 51, 0
2, 56799, Note_on_c, 0, 74, 0
2, 56800, Note_on_c, 0, 75, 0
2, 56801, Note_on_c, 0, 72, 0
2, 56801, Note_on_c, 0, 63, 0
2, 56802, Note_on_c, 0, 55, 0
2, 56803, Note_on_c, 0, 44, 0
2, 56913, Note_on_c, 0, 32, 89
2, 56913, Note_on_c, 0, 44, 93
2, 56954, Control_c, 0, 64, 127
2, 57027, Note_on_c, 0, 75, 98
2, 57028, Note_on_c, 0, 72, 90
2, 57036, Note_on_c, 0, 67, 86
2, 57162, Note_on_c, 0, 44, 0
2, 57167, Note_on_c, 0, 44, 75
2, 57239, Note_on_c, 0, 51, 79
2, 57271, Note_on_c, 0, 74, 97
2, 57331, Note_on_c, 0, 44, 0
2, 57342, Note_on_c, 0, 44, 87
2, 57465, Note_on_c, 0, 70, 92
2, 57466, Note_on_c, 0, 77, 101
2, 57469, Note_on_c, 0, 53, 97
2, 57472, Note_on_c, 0, 50, 93
2, 57473, Note_on_c, 0, 65, 95
2, 57473, Note_on_c, 0, 43, 89
2, 57486, Note_on_c, 0, 32, 0
2, 57488, Note_on_c, 0, 74, 0
2, 57488, Note_on_c, 0, 75, 0
2, 57489, Note_on_c, 0, 67, 0
2, 57489, Note_on_c, 0, 51, 0
2, 57490, Note_on_c, 0, 72, 0
2, 57495, Control_c, 0, 64, 0
2, 57530, Note_on_c, 0, 44, 0
2, 57542, Note_on_c, 0, 50, 0
2, 57565, Note_on_c, 0, 43, 0
2, 57592, Note_on_c, 0, 53, 0
2, 57615, Note_on_c, 0, 65, 0
2, 57638, Note_on_c, 0, 70, 0
2, 57651, Note_on_c, 0, 43, 96
2, 57653, Note_on_c, 0, 31, 90
2, 57676, Note_on_c, 0, 77, 0
2, 57738, Note_on_c, 0, 31, 0
2, 57738, Control_c, 0, 64, 127
2, 57751, Note_on_c, 0, 77, 100
2, 57755, Note_on_c, 0, 70, 97
2, 57755, Note_on_c, 0, 65, 99
2, 57884, Note_on_c, 0, 43, 0
2, 57894, Note_on_c, 0, 43, 88
2, 57985, Note_on_c, 0, 50, 90
2, 58011, Note_on_c, 0, 75, 97
2, 58068, Note_on_c, 0, 43, 0
2, 58079, Note_on_c, 0, 43, 92
2, 58176, Note_on_c, 0, 43, 0
2, 58176, Note_on_c, 0, 65, 0
2, 58179, Note_on_c, 0, 74, 108
2, 58179, Note_on_c, 0, 55, 105
2, 58180, Note_on_c, 0, 48, 100
2, 58183, Note_on_c, 0, 70, 0
2, 58186, Note_on_c, 0, 43, 95
2, 58187, Note_on_c, 0, 65, 96
2, 58187, Note_on_c, 0, 70, 89
2, 58234, Note_on_c, 0, 50, 0
2, 58234, Note_on_c, 0, 77, 0
2, 58234, Note_on_c, 0, 75, 0
2, 58240, Note_on_c, 0, 43, 0
2, 58240, Control_c, 0, 64, 0
2, 58241, Note_on_c, 0, 65, 0
2, 58241, Note_on_c, 0, 70, 0
2, 58244, Note_on_c, 0, 74, 0
2, 58245, Note_on_c, 0, 48, 0
2, 58252, Note_on_c, 0, 55, 0
2, 58361, Note_on_c, 0, 48, 99
2, 58362, Note_on_c, 0, 36, 98
2, 58391, Control_c, 0, 64, 127
2, 58457, Note_on_c, 0, 75, 107
2, 58590, Note_on_c, 0, 48, 0
2, 58601, Note_on_c, 0, 48, 88
2, 58686, Note_on_c, 0, 51, 88
2, 58713, Note_on_c, 0, 36, 0
2, 58720, Note_on_c, 0, 77, 104
2, 58721, Note_on_c, 0, 75, 0
2, 58724, Note_on_c, 0, 36, 61
2, 58726, Note_on_c, 0, 65, 100
2, 58728, Note_on_c, 0, 48, 0
2, 58731, Note_on_c, 0, 75, 73
2, 58735, Note_on_c, 0, 48, 63
2, 58801, Control_c, 0, 64, 0
2, 58809, Note_on_c, 0, 36, 0
2, 58809, Note_on_c, 0, 75, 0
2, 58809, Note_on_c, 0, 48, 0
2, 58809, Note_on_c, 0, 65, 0
2, 58810, Note_on_c, 0, 51, 0
2, 58811, Note_on_c, 0, 77, 0
2, 58890, Note_on_c, 0, 79, 110
2, 58891, Note_on_c, 0, 50, 107
2, 58891, Note_on_c, 0, 38, 100
2, 58894, Note_on_c, 0, 67, 101
2, 58913, Control_c, 0, 64, 127
2, 59103, Control_c, 0, 64, 0
2, 59107, Note_on_c, 0, 38, 0
2, 59108, Note_on_c, 0, 67, 0
2, 59108, Note_on_c, 0, 79, 0
2, 59109, Note_on_c, 0, 50, 0
2, 59155, Note_on_c, 0, 80, 105
2, 59158, Note_on_c, 0, 68, 101
2, 59196, Note_on_c, 0, 68, 0
2, 59207, Note_on_c, 0, 80, 0
2, 59432, Note_on_c, 0, 79, 106
2, 59432, Note_on_c, 0, 60, 100
2, 59434, Note_on_c, 0, 53, 98
2, 59438, Note_on_c, 0, 56, 98
2, 59438, Note_on_c, 0, 67, 102
2, 59473, Control_c, 0, 64, 127
2, 59606, Note_on_c, 0, 72, 74
2, 59607, Note_on_c, 0, 77, 102
2, 59610, Note_on_c, 0, 65, 98
2, 59790, Note_on_c, 0, 50, 93
2, 59793, Note_on_c, 0, 38, 87
2, 59885, Note_on_c, 0, 75, 103
2, 59900, Note_on_c, 0, 63, 91
2, 59973, Note_on_c, 0, 53, 0
2, 59973, Note_on_c, 0, 56, 0
2, 59973, Note_on_c, 0, 60, 0
2, 59977, Note_on_c, 0, 60, 89
2, 59979, Note_on_c, 0, 53, 94
2, 59983, Note_on_c, 0, 56, 92
2, 60134, Note_on_c, 0, 77, 0
2, 60142, Note_on_c, 0, 65, 0
2, 60145, Note_on_c, 0, 77, 98
2, 60146, Note_on_c, 0, 65, 95
2, 60203, Control_c, 0, 64, 0
2, 60208, Note_on_c, 0, 50, 0
2, 60208, Note_on_c, 0, 60, 0
2, 60208, Note_on_c, 0, 67, 0
2, 60209, Note_on_c, 0, 38, 0
2, 60209, Note_on_c, 0, 63, 0
2, 60209, Note_on_c, 0, 53, 0
2, 60209, Note_on_c, 0, 65, 0
2, 60209, Note_on_c, 0, 75, 0
2, 60210, Note_on_c, 0, 72, 0
2, 60211, Note_on_c, 0, 79, 0
2, 60211, Note_on_c, 0, 56, 0
2, 60212, Note_on_c, 0, 77, 0
2, 60318, Note_on_c, 0, 79, 107
2, 60321, Note_on_c, 0, 74, 102
2, 60322, Note_on_c, 0, 71, 100
2, 60322, Note_on_c, 0, 67, 102
2, 60322, Note_on_c, 0, 31, 96
2, 60322, Note_on_c, 0, 43, 99
2, 60349, Control_c, 0, 64, 127
2, 60655, Note_on_c, 0, 53, 90
2, 60657, Note_on_c, 0, 57, 101
2, 60659, Note_on_c, 0, 50, 84
2, 60725, Note_on_c, 0, 31, 0
2, 60727, Note_on_c, 0, 71, 0
2, 60727, Note_on_c, 0, 79, 0
2, 60727, Note_on_c, 0, 74, 0
2, 60729, Note_on_c, 0, 43, 0
2, 60729, Note_on_c, 0, 50, 0
2, 60729, Note_on_c, 0, 53, 0
2, 60729, Note_on_c, 0, 57, 0
2, 60729, Control_c, 0, 64, 0
2, 60741, Note_on_c, 0, 67, 0
2, 60812, Note_on_c, 0, 43, 91
2, 60906, Note_on_c, 0, 50, 90
2, 60908, Note_on_c, 0, 59, 106
2, 60925, Note_on_c, 0, 43, 0
2, 60932, Note_on_c, 0, 43, 67
2, 60935, Note_on_c, 0, 55, 91
2, 61094, Control_c, 0, 64, 127
2, 61102, Note_on_c, 0, 55, 0
2, 61109, Note_on_c, 0, 55, 65
2, 61226, Note_on_c, 0, 60, 103
2, 61393, Note_on_c, 0, 59, 0
2, 61399, Note_on_c, 0, 62, 103
2, 61401, Note_on_c, 0, 71, 101
2, 61401, Note_on_c, 0, 59, 98
2, 61433, Note_on_c, 0, 74, 94
2, 61511, Note_on_c, 0, 79, 94
2, 61547, Note_on_c, 0, 62, 0
2, 61554, Note_on_c, 0, 62, 89
2, 61555, Note_on_c, 0, 55, 0
2, 61564, Note_on_c, 0, 55, 91
2, 61565, Note_on_c, 0, 67, 99
2, 61566, Note_on_c, 0, 43, 0
2, 61570, Note_on_c, 0, 83, 93
2, 61605, Note_on_c, 0, 86, 99
2, 61660, Note_on_c, 0, 91, 109
2, 61667, Note_on_c, 0, 71, 0
2, 61667, Note_on_c, 0, 50, 0
2, 61667, Note_on_c, 0, 62, 0
2, 61668, Note_on_c, 0, 60, 0
2, 61668, Note_on_c, 0, 74, 0
2, 61668, Note_on_c, 0, 59, 0
2, 61669, Control_c, 0, 64, 0
2, 61670, Note_on_c, 0, 55, 0
2, 61670, Note_on_c, 0, 67, 0
2, 61670, Note_on_c, 0, 83, 0
2, 61670, Note_on_c, 0, 86, 0
2, 61671, Note_on_c, 0, 79, 0
2, 61708, Note_on_c, 0, 91, 0
2, 61744, Note_on_c, 0, 72, 109
2, 61749, Note_on_c, 0, 63, 100
2, 61750, Note_on_c, 0, 60, 100
2, 61751, Note_on_c, 0, 67, 91
2, 61777, Control_c, 0, 64, 127
2, 61920, Note_on_c, 0, 48, 97
2, 61926, Control_c, 0, 64, 0
2, 61929, Note_on_c, 0, 60, 0
2, 61929, Note_on_c, 0, 67, 0
2, 61929, Note_on_c, 0, 63, 0
2, 61931, Note_on_c, 0, 72, 0
2, 62092, Note_on_c, 0, 72, 101
2, 62092, Note_on_c, 0, 75, 104
2, 62094, Note_on_c, 0, 67, 95
2, 62095, Note_on_c, 0, 63, 103
2, 62096, Note_on_c, 0, 60, 98
2, 62123, Control_c, 0, 64, 127
2, 62184, Note_on_c, 0, 55, 98
2, 62227, Control_c, 0, 64, 0
2, 62230, Note_on_c, 0, 63, 0
2, 62233, Note_on_c, 0, 75, 0
2, 62234, Note_on_c, 0, 67, 0
2, 62234, Note_on_c, 0, 60, 0
2, 62238, Note_on_c, 0, 72, 0
2, 62261, Note_on_c, 0, 48, 0
2, 62270, Note_on_c, 0, 48, 92
2, 62284, Note_on_c, 0, 55, 0
2, 62305, Note_on_c, 0, 48, 0
2, 62453, Note_on_c, 0, 77, 104
2, 62453, Note_on_c, 0, 41, 101
2, 62457, Note_on_c, 0, 29, 98
2, 62457, Note_on_c, 0, 68, 100
2, 62457, Note_on_c, 0, 65, 95
2, 62458, Note_on_c, 0, 72, 95
2, 62507, Control_c, 0, 64, 127
2, 62615, Note_on_c, 0, 41, 0
2, 62618, Note_on_c, 0, 41, 91
2, 62727, Note_on_c, 0, 77, 0
2, 62730, Note_on_c, 0, 41, 0
2, 62730, Note_on_c, 0, 65, 0
2, 62730, Note_on_c, 0, 68, 0
2, 62733, Note_on_c, 0, 72, 0
2, 62734, Note_on_c, 0, 75, 102
2, 62735, Note_on_c, 0, 68, 96
2, 62735, Note_on_c, 0, 41, 90
2, 62736, Note_on_c, 0, 53, 99
2, 62737, Note_on_c, 0, 65, 95
2, 62868, Note_on_c, 0, 41, 0
2, 62879, Note_on_c, 0, 41, 95
2, 62939, Control_c, 0, 64, 0
2, 62940, Note_on_c, 0, 68, 0
2, 62941, Note_on_c, 0, 53, 0
2, 62980, Note_on_c, 0, 44, 85
2, 62983, Note_on_c, 0, 29, 0
2, 62983, Control_c, 0, 64, 127
2, 63013, Note_on_c, 0, 77, 105
2, 63014, Note_on_c, 0, 65, 0
2, 63020, Note_on_c, 0, 65, 98
2, 63031, Note_on_c, 0, 45, 88
2, 63044, Control_c, 0, 64, 0
2, 63050, Note_on_c, 0, 44, 0
2, 63068, Note_on_c, 0, 41, 0
2, 63083, Note_on_c, 0, 75, 0
2, 63088, Note_on_c, 0, 45, 0
2, 63184, Note_on_c, 0, 46, 104
2, 63185, Note_on_c, 0, 34, 99
2, 63221, Control_c, 0, 64, 127
2, 63229, Note_on_c, 0, 65, 0
2, 63352, Note_on_c, 0, 77, 0
2, 63358, Note_on_c, 0, 74, 98
2, 63359, Note_on_c, 0, 65, 96
2, 63360, Note_on_c, 0, 77, 97
2, 63364, Note_on_c, 0, 70, 85
2, 63440, Note_on_c, 0, 53, 91
2, 63441, Note_on_c, 0, 50, 89
2, 63502, Control_c, 0, 64, 0
2, 63521, Note_on_c, 0, 74, 0
2, 63523, Note_on_c, 0, 50, 0
2, 63524, Note_on_c, 0, 77, 0
2, 63525, Note_on_c, 0, 34, 0
2, 63526, Note_on_c, 0, 46, 0
2, 63526, Note_on_c, 0, 65, 0
2, 63528, Note_on_c, 0, 53, 0
2, 63528, Note_on_c, 0, 70, 0
2, 63534, Note_on_c, 0, 82, 107
2, 63537, Note_on_c, 0, 70, 95
2, 63587, Note_on_c, 0, 82, 0
2, 63595, Note_on_c, 0, 34, 82
2, 63598, Note_on_c, 0, 70, 0
2, 63687, Note_on_c, 0, 46, 88
2, 63718, Note_on_c, 0, 80, 101
2, 63724, Note_on_c, 0, 50, 84
2, 63725, Note_on_c, 0, 68, 100
2, 63730, Note_on_c, 0, 70, 86
2, 63751, Control_c, 0, 64, 127
2, 63797, Note_on_c, 0, 34, 0
2, 63815, Control_c, 0, 64, 0
2, 63818, Note_on_c, 0, 80, 0
2, 63818, Note_on_c, 0, 68, 0
2, 63820, Note_on_c, 0, 46, 0
2, 63822, Note_on_c, 0, 50, 0
2, 63823, Note_on_c, 0, 70, 0
2, 63884, Note_on_c, 0, 79, 105
2, 63889, Note_on_c, 0, 70, 98
2, 63890, Note_on_c, 0, 67, 97
2, 63896, Note_on_c, 0, 39, 89
2, 63896, Note_on_c, 0, 51, 94
2, 63920, Control_c, 0, 64, 127
2, 63959, Note_on_c, 0, 67, 0
2, 63966, Note_on_c, 0, 51, 0
2, 63971, Note_on_c, 0, 77, 97
2, 63973, Note_on_c, 0, 65, 103
2, 63975, Note_on_c, 0, 51, 65
2, 63977, Note_on_c, 0, 75, 73
2, 64043, Note_on_c, 0, 51, 0
2, 64048, Note_on_c, 0, 51, 82
2, 64143, Note_on_c, 0, 55, 86
2, 64151, Note_on_c, 0, 79, 0
2, 64151, Note_on_c, 0, 58, 96
2, 64152, Note_on_c, 0, 46, 82
2, 64158, Note_on_c, 0, 70, 0
2, 64158, Note_on_c, 0, 75, 0
2, 64162, Note_on_c, 0, 79, 104
2, 64166, Note_on_c, 0, 67, 103
2, 64167, Note_on_c, 0, 75, 92
2, 64169, Note_on_c, 0, 70, 95
2, 64246, Note_on_c, 0, 77, 0
2, 64246, Note_on_c, 0, 65, 0
2, 64247, Note_on_c, 0, 51, 0
2, 64247, Note_on_c, 0, 55, 0
2, 64248, Note_on_c, 0, 58, 0
2, 64254, Control_c, 0, 64, 0
2, 64266, Note_on_c, 0, 39, 0
2, 64335, Note_on_c, 0, 46, 0
2, 64344, Note_on_c, 0, 39, 87
2, 64347, Note_on_c, 0, 51, 82
2, 64412, Note_on_c, 0, 51, 0
2, 64419, Note_on_c, 0, 39, 0
2, 64433, Note_on_c, 0, 50, 97
2, 64437, Note_on_c, 0, 38, 91
2, 64469, Note_on_c, 0, 50, 0
2, 64473, Note_on_c, 0, 38, 0
2, 64481, Note_on_c, 0, 67, 0
2, 64519, Note_on_c, 0, 79, 0
2, 64535, Note_on_c, 0, 70, 0
2, 64535, Note_on_c, 0, 75, 0
2, 64623, Note_on_c, 0, 79, 106
2, 64624, Note_on_c, 0, 48, 101
2, 64626, Note_on_c, 0, 67, 101
2, 64626, Note_on_c, 0, 70, 99
2, 64627, Note_on_c, 0, 36, 96
2, 64628, Note_on_c, 0, 75, 95
2, 64680, Control_c, 0, 64, 127
2, 64796, Note_on_c, 0, 48, 0
2, 64801, Note_on_c, 0, 48, 78
2, 64888, Note_on_c, 0, 48, 0
2, 64889, Note_on_c, 0, 67, 0
2, 64890, Control_c, 0, 64, 0
2, 64890, Note_on_c, 0, 70, 0
2, 64890, Note_on_c, 0, 75, 0
2, 64891, Note_on_c, 0, 79, 0
2, 64895, Note_on_c, 0, 51, 83
2, 64898, Note_on_c, 0, 55, 93
2, 64903, Note_on_c, 0, 36, 0
2, 64929, Note_on_c, 0, 55, 0
2, 64933, Note_on_c, 0, 51, 0
2, 64979, Note_on_c, 0, 79, 96
2, 64980, Note_on_c, 0, 82, 105
2, 64981, Note_on_c, 0, 70, 101
2, 64982, Note_on_c, 0, 75, 95
2, 65064, Control_c, 0, 64, 127
2, 65066, Note_on_c, 0, 36, 90
2, 65158, Note_on_c, 0, 43, 97
2, 65218, Note_on_c, 0, 42, 95
2, 65252, Control_c, 0, 64, 0
2, 65253, Note_on_c, 0, 79, 0
2, 65253, Note_on_c, 0, 82, 0
2, 65253, Note_on_c, 0, 70, 0
2, 65253, Note_on_c, 0, 36, 0
2, 65253, Note_on_c, 0, 75, 0
2, 65254, Note_on_c, 0, 43, 0
2, 65264, Note_on_c, 0, 42, 0
2, 65352, Note_on_c, 0, 84, 107
2, 65352, Note_on_c, 0, 29, 98
2, 65352, Note_on_c, 0, 41, 100
2, 65354, Note_on_c, 0, 72, 105
2, 65355, Note_on_c, 0, 75, 101
2, 65355, Note_on_c, 0, 80, 100
2, 65379, Control_c, 0, 64, 127
2, 65518, Note_on_c, 0, 41, 0
2, 65523, Note_on_c, 0, 41, 88
2, 65630, Note_on_c, 0, 77, 99
2, 65630, Note_on_c, 0, 53, 92
2, 65631, Note_on_c, 0, 68, 101
2, 65634, Note_on_c, 0, 65, 94
2, 65637, Note_on_c, 0, 75, 0
2, 65638, Note_on_c, 0, 80, 0
2, 65639, Note_on_c, 0, 84, 0
2, 65640, Note_on_c, 0, 72, 0
2, 65648, Note_on_c, 0, 29, 0
2, 65651, Control_c, 0, 64, 0
2, 65679, Note_on_c, 0, 41, 0
2, 65682, Note_on_c, 0, 53, 0
2, 65785, Note_on_c, 0, 41, 95
2, 65786, Control_c, 0, 64, 127
2, 65856, Note_on_c, 0, 44, 69
2, 65922, Note_on_c, 0, 45, 95
2, 65927, Note_on_c, 0, 75, 93
2, 66075, Control_c, 0, 64, 0
2, 66077, Note_on_c, 0, 44, 0
2, 66080, Note_on_c, 0, 45, 0
2, 66080, Note_on_c, 0, 68, 0
2, 66080, Note_on_c, 0, 77, 0
2, 66080, Note_on_c, 0, 41, 0
2, 66082, Note_on_c, 0, 65, 0
2, 66098, Note_on_c, 0, 46, 102
2, 66098, Note_on_c, 0, 34, 95
2, 66209, Control_c, 0, 64, 127
2, 66290, Note_on_c, 0, 74, 102
2, 66297, Note_on_c, 0, 70, 90
2, 66298, Note_on_c, 0, 65, 90
2, 66339, Control_c, 0, 64, 0
2, 66358, Note_on_c, 0, 58, 93
2, 66358, Note_on_c, 0, 53, 86
2, 66424, Note_on_c, 0, 34, 0
2, 66424, Note_on_c, 0, 46, 0
2, 66425, Note_on_c, 0, 58, 0
2, 66427, Note_on_c, 0, 74, 0
2, 66427, Note_on_c, 0, 53, 0
2, 66429, Note_on_c, 0, 70, 0
2, 66432, Note_on_c, 0, 75, 0
2, 66470, Note_on_c, 0, 65, 0
2, 66472, Note_on_c, 0, 72, 106
2, 66475, Note_on_c, 0, 65, 87
2, 66519, Note_on_c, 0, 65, 0
2, 66541, Note_on_c, 0, 34, 91
2, 66570, Control_c, 0, 64, 127
2, 66646, Note_on_c, 0, 74, 105
2, 66649, Note_on_c, 0, 46, 98
2, 66654, Note_on_c, 0, 65, 94
2, 66656, Note_on_c, 0, 70, 92
2, 66705, Control_c, 0, 64, 0
2, 66705, Note_on_c, 0, 34, 0
2, 66707, Note_on_c, 0, 72, 0
2, 66709, Note_on_c, 0, 65, 0
2, 66714, Note_on_c, 0, 46, 0
2, 66715, Note_on_c, 0, 70, 0
2, 66723, Note_on_c, 0, 74, 0
2, 66811, Note_on_c, 0, 77, 99
2, 66811, Note_on_c, 0, 67, 102
2, 66812, Note_on_c, 0, 39, 94
2, 66813, Note_on_c, 0, 51, 100
2, 66813, Note_on_c, 0, 70, 94
2, 66862, Control_c, 0, 64, 127
2, 66892, Note_on_c, 0, 75, 96
2, 66973, Note_on_c, 0, 46, 84
2, 67054, Note_on_c, 0, 67, 0
2, 67054, Note_on_c, 0, 70, 0
2, 67054, Note_on_c, 0, 75, 0
2, 67059, Note_on_c, 0, 67, 97
2, 67062, Note_on_c, 0, 70, 94
2, 67062, Note_on_c, 0, 75, 101
2, 67182, Note_on_c, 0, 50, 97
2, 67182, Note_on_c, 0, 38, 94
2, 67253, Note_on_c, 0, 77, 0
2, 67259, Note_on_c, 0, 89, 108
2, 67260, Note_on_c, 0, 77, 102
2, 67355, Note_on_c, 0, 79, 97
2, 67356, Note_on_c, 0, 91, 106
2, 67424, Note_on_c, 0, 82, 104
2, 67425, Note_on_c, 0, 94, 107
2, 67475, Control_c, 0, 64, 0
2, 67475, Note_on_c, 0, 67, 0
2, 67479, Note_on_c, 0, 38, 0
2, 67479, Note_on_c, 0, 70, 0
2, 67479, Note_on_c, 0, 50, 0
2, 67479, Note_on_c, 0, 77, 0
2, 67480, Note_on_c, 0, 89, 0
2, 67480, Note_on_c, 0, 79, 0
2, 67480, Note_on_c, 0, 75, 0
2, 67480, Note_on_c, 0, 46, 0
2, 67481, Note_on_c, 0, 91, 0
2, 67481, Note_on_c, 0, 82, 0
2, 67482, Note_on_c, 0, 94, 0
2, 67491, Note_on_c, 0, 39, 0
2, 67491, Note_on_c, 0, 51, 0
2, 67520, Note_on_c, 0, 48, 103
2, 67525, Note_on_c, 0, 36, 90
2, 67526, Note_on_c, 0, 96, 108
2, 67527, Note_on_c, 0, 84, 104
2, 67528, Note_on_c, 0, 87, 91
2, 67553, Control_c, 0, 64, 127
2, 67676, Note_on_c, 0, 48, 0
2, 67684, Note_on_c, 0, 48, 94
2, 67772, Control_c, 0, 64, 0
2, 67779, Note_on_c, 0, 96, 0
2, 67780, Note_on_c, 0, 51, 85
2, 67782, Note_on_c, 0, 55, 87
2, 67792, Note_on_c, 0, 84, 0
2, 67792, Note_on_c, 0, 87, 0
2, 67809, Note_on_c, 0, 48, 0
2, 67818, Note_on_c, 0, 51, 0
2, 67845, Note_on_c, 0, 55, 0
2, 67875, Note_on_c, 0, 75, 103
2, 67876, Note_on_c, 0, 72, 101
2, 67877, Note_on_c, 0, 67, 94
2, 67906, Note_on_c, 0, 36, 0
2, 67952, Control_c, 0, 64, 127
2, 67971, Note_on_c, 0, 36, 90
2, 67977, Note_on_c, 0, 67, 0
2, 68006, Control_c, 0, 64, 0
2, 68064, Note_on_c, 0, 43, 95
2, 68090, Control_c, 0, 64, 127
2, 68102, Note_on_c, 0, 42, 75
2, 68142, Control_c, 0, 64, 0
2, 68149, Note_on_c, 0, 75, 0
2, 68149, Note_on_c, 0, 36, 0
2, 68152, Note_on_c, 0, 72, 0
2, 68155, Note_on_c, 0, 43, 0
2, 68164, Note_on_c, 0, 42, 0
2, 68240, Note_on_c, 0, 77, 103
2, 68246, Note_on_c, 0, 68, 100
2, 68246, Note_on_c, 0, 72, 95
2, 68247, Note_on_c, 0, 41, 99
2, 68247, Note_on_c, 0, 65, 95
2, 68248, Note_on_c, 0, 29, 97
2, 68321, Control_c, 0, 64, 127
2, 68413, Note_on_c, 0, 41, 0
2, 68423, Note_on_c, 0, 41, 90
2, 68459, Control_c, 0, 64, 0
2, 68513, Note_on_c, 0, 68, 0
2, 68520, Note_on_c, 0, 65, 0
2, 68524, Note_on_c, 0, 75, 100
2, 68524, Note_on_c, 0, 68, 98
2, 68525, Note_on_c, 0, 65, 93
2, 68525, Note_on_c, 0, 77, 0
2, 68526, Note_on_c, 0, 53, 93
2, 68529, Note_on_c, 0, 72, 0
2, 68544, Control_c, 0, 64, 127
2, 68697, Note_on_c, 0, 41, 0
2, 68705, Note_on_c, 0, 41, 91
2, 68749, Control_c, 0, 64, 0
2, 68754, Note_on_c, 0, 53, 0
2, 68754, Note_on_c, 0, 75, 0
2, 68812, Note_on_c, 0, 29, 0
2, 68812, Note_on_c, 0, 65, 0
2, 68815, Note_on_c, 0, 77, 103
2, 68816, Note_on_c, 0, 44, 90
2, 68817, Note_on_c, 0, 65, 92
2, 68884, Note_on_c, 0, 44, 0
2, 68889, Note_on_c, 0, 68, 0
2, 68912, Note_on_c, 0, 41, 0
2, 68951, Note_on_c, 0, 65, 0
2, 68984, Note_on_c, 0, 34, 97
2, 68985, Note_on_c, 0, 46, 98
2, 69012, Control_c, 0, 64, 127
2, 69158, Note_on_c, 0, 77, 0
2, 69162, Note_on_c, 0, 65, 92
2, 69162, Note_on_c, 0, 77, 93
2, 69164, Note_on_c, 0, 74, 93
2, 69254, Note_on_c, 0, 53, 95
2, 69254, Note_on_c, 0, 50, 86
2, 69263, Note_on_c, 0, 34, 0
2, 69268, Control_c, 0, 64, 0
2, 69272, Note_on_c, 0, 77, 0
2, 69273, Note_on_c, 0, 65, 0
2, 69275, Note_on_c, 0, 74, 0
2, 69278, Note_on_c, 0, 46, 0
2, 69289, Note_on_c, 0, 53, 0
2, 69292, Note_on_c, 0, 50, 0
2, 69334, Note_on_c, 0, 82, 103
2, 69336, Note_on_c, 0, 70, 92
2, 69344, Note_on_c, 0, 74, 77
2, 69396, Note_on_c, 0, 70, 0
2, 69410, Note_on_c, 0, 34, 91
2, 69434, Note_on_c, 0, 82, 0
2, 69442, Note_on_c, 0, 74, 0
2, 69473, Note_on_c, 0, 34, 0
2, 69502, Note_on_c, 0, 46, 92
2, 69528, Note_on_c, 0, 80, 103
2, 69536, Note_on_c, 0, 50, 76
2, 69538, Note_on_c, 0, 68, 99
2, 69602, Note_on_c, 0, 50, 0
2, 69607, Note_on_c, 0, 46, 0
2, 69607, Note_on_c, 0, 68, 0
2, 69607, Note_on_c, 0, 80, 0
2, 69691, Note_on_c, 0, 39, 93
2, 69692, Note_on_c, 0, 79, 103
2, 69696, Note_on_c, 0, 51, 94
2, 69697, Note_on_c, 0, 67, 94
2, 69698, Note_on_c, 0, 70, 94
2, 69699, Note_on_c, 0, 75, 84
2, 69731, Note_on_c, 0, 70, 0
2, 69757, Control_c, 0, 64, 127
2, 69775, Note_on_c, 0, 77, 89
2, 69778, Note_on_c, 0, 65, 96
2, 69864, Note_on_c, 0, 51, 0
2, 69874, Note_on_c, 0, 51, 68
2, 69970, Note_on_c, 0, 55, 85
2, 69974, Note_on_c, 0, 58, 93
2, 69980, Note_on_c, 0, 67, 0
2, 69980, Note_on_c, 0, 79, 0
2, 69984, Note_on_c, 0, 79, 103
2, 69987, Note_on_c, 0, 75, 0
2, 69991, Note_on_c, 0, 70, 87
2, 69991, Note_on_c, 0, 67, 96
2, 69991, Note_on_c, 0, 75, 90
2, 70149, Note_on_c, 0, 39, 0
2, 70149, Note_on_c, 0, 51, 0
2, 70153, Note_on_c, 0, 39, 90
2, 70155, Note_on_c, 0, 51, 88
2, 70254, Note_on_c, 0, 50, 101
2, 70256, Note_on_c, 0, 38, 94
2, 70269, Control_c, 0, 64, 0
2, 70307, Note_on_c, 0, 65, 0
2, 70307, Note_on_c, 0, 55, 0
2, 70307, Note_on_c, 0, 77, 0
2, 70308, Note_on_c, 0, 67, 0
2, 70308, Note_on_c, 0, 75, 0
2, 70308, Note_on_c, 0, 70, 0
2, 70308, Note_on_c, 0, 50, 0
2, 70309, Note_on_c, 0, 79, 0
2, 70310, Note_on_c, 0, 58, 0
2, 70310, Note_on_c, 0, 39, 0
2, 70311, Note_on_c, 0, 38, 0
2, 70313, Note_on_c, 0, 51, 0
2, 70444, Note_on_c, 0, 79, 103
2, 70446, Note_on_c, 0, 67, 100
2, 70449, Note_on_c, 0, 70, 96
2, 70451, Note_on_c, 0, 75, 90
2, 70452, Note_on_c, 0, 36, 97
2, 70452, Note_on_c, 0, 48, 102
2, 70479, Control_c, 0, 64, 127
2, 70609, Note_on_c, 0, 48, 0
2, 70620, Note_on_c, 0, 48, 90
2, 70715, Note_on_c, 0, 51, 81
2, 70719, Note_on_c, 0, 70, 0
2, 70719, Note_on_c, 0, 55, 90
2, 70721, Note_on_c, 0, 79, 0
2, 70722, Control_c, 0, 64, 0
2, 70722, Note_on_c, 0, 75, 0
2, 70725, Note_on_c, 0, 67, 0
2, 70728, Note_on_c, 0, 48, 0
2, 70748, Note_on_c, 0, 55, 0
2, 70750, Note_on_c, 0, 51, 0
2, 70755, Note_on_c, 0, 36, 0
2, 70801, Note_on_c, 0, 82, 105
2, 70804, Note_on_c, 0, 79, 94
2, 70804, Note_on_c, 0, 70, 101
2, 70805, Note_on_c, 0, 75, 95
2, 70840, Control_c, 0, 64, 127
2, 70896, Note_on_c, 0, 36, 90
2, 70990, Note_on_c, 0, 43, 94
2, 71036, Note_on_c, 0, 42, 91
2, 71065, Note_on_c, 0, 70, 0
2, 71065, Note_on_c, 0, 79, 0
2, 71065, Note_on_c, 0, 82, 0
2, 71067, Note_on_c, 0, 75, 0
2, 71067, Note_on_c, 0, 43, 0
2, 71068, Note_on_c, 0, 36, 0
2, 71081, Control_c, 0, 64, 0
2, 71082, Note_on_c, 0, 42, 0
2, 71180, Note_on_c, 0, 84, 106
2, 71181, Note_on_c, 0, 75, 101
2, 71181, Note_on_c, 0, 41, 100
2, 71183, Note_on_c, 0, 72, 105
2, 71184, Note_on_c, 0, 80, 97
2, 71187, Note_on_c, 0, 29, 96
2, 71201, Control_c, 0, 64, 127
2, 71347, Note_on_c, 0, 41, 0
2, 71351, Note_on_c, 0, 41, 94
2, 71454, Note_on_c, 0, 41, 0
2, 71457, Note_on_c, 0, 77, 102
2, 71458, Note_on_c, 0, 68, 100
2, 71459, Note_on_c, 0, 65, 97
2, 71459, Note_on_c, 0, 41, 94
2, 71459, Note_on_c, 0, 53, 92
2, 71519, Note_on_c, 0, 75, 0
2, 71521, Note_on_c, 0, 72, 0
2, 71521, Note_on_c, 0, 41, 0
2, 71524, Note_on_c, 0, 80, 0
2, 71524, Note_on_c, 0, 53, 0
2, 71527, Note_on_c, 0, 84, 0
2, 71528, Control_c, 0, 64, 0
2, 71531, Note_on_c, 0, 29, 0
2, 71610, Note_on_c, 0, 41, 97
2, 71654, Note_on_c, 0, 68, 0
2, 71712, Note_on_c, 0, 44, 93
2, 71738, Note_on_c, 0, 65, 0
2, 71749, Note_on_c, 0, 65, 95
2, 71750, Note_on_c, 0, 75, 100
2, 71764, Note_on_c, 0, 45, 93
2, 71804, Note_on_c, 0, 65, 0
2, 71807, Note_on_c, 0, 77, 0
2, 71808, Note_on_c, 0, 44, 0
2, 71810, Note_on_c, 0, 75, 0
2, 71810, Note_on_c, 0, 41, 0
2, 71811, Note_on_c, 0, 45, 0
2, 71935, Note_on_c, 0, 70, 104
2, 71935, Note_on_c, 0, 82, 103
2, 71936, Note_on_c, 0, 74, 99
2, 71938, Note_on_c, 0, 34, 100
2, 71939, Note_on_c, 0, 46, 102
2, 71961, Control_c, 0, 64, 127
2, 72099, Note_on_c, 0, 34, 0
2, 72099, Note_on_c, 0, 46, 0
2, 72107, Note_on_c, 0, 46, 96
2, 72107, Note_on_c, 0, 70, 0
2, 72107, Note_on_c, 0, 74, 0
2, 72107, Note_on_c, 0, 82, 0
2, 72110, Note_on_c, 0, 34, 93
2, 72111, Note_on_c, 0, 82, 104
2, 72111, Note_on_c, 0, 70, 100
2, 72112, Note_on_c, 0, 74, 100
2, 72150, Control_c, 0, 64, 0
2, 72165, Note_on_c, 0, 74, 0
2, 72168, Note_on_c, 0, 34, 0
2, 72174, Note_on_c, 0, 82, 0
2, 72176, Note_on_c, 0, 46, 0
2, 72176, Note_on_c, 0, 70, 0
2, 72280, Note_on_c, 0, 31, 90
2, 72281, Note_on_c, 0, 43, 93
2, 72285, Note_on_c, 0, 79, 103
2, 72288, Note_on_c, 0, 67, 93
2, 72311, Note_on_c, 0, 67, 0
2, 72312, Note_on_c, 0, 31, 0
2, 72318, Note_on_c, 0, 79, 0
2, 72330, Note_on_c, 0, 43, 0
2, 72456, Note_on_c, 0, 46, 96
2, 72456, Note_on_c, 0, 34, 92
2, 72457, Note_on_c, 0, 82, 103
2, 72458, Note_on_c, 0, 70, 101
2, 72488, Note_on_c, 0, 46, 0
2, 72491, Note_on_c, 0, 70, 0
2, 72494, Note_on_c, 0, 34, 0
2, 72497, Note_on_c, 0, 82, 0
2, 72634, Note_on_c, 0, 82, 105
2, 72634, Note_on_c, 0, 70, 102
2, 72634, Note_on_c, 0, 46, 99
2, 72635, Note_on_c, 0, 34, 95
2, 72667, Note_on_c, 0, 70, 0
2, 72671, Note_on_c, 0, 46, 0
2, 72672, Note_on_c, 0, 34, 0
2, 72672, Note_on_c, 0, 82, 0
2, 72910, Note_on_c, 0, 48, 102
2, 72911, Note_on_c, 0, 72, 107
2, 72912, Note_on_c, 0, 84, 105
2, 72915, Note_on_c, 0, 36, 95
2, 72915, Note_on_c, 0, 75, 96
2, 72918, Note_on_c, 0, 79, 88
2, 72936, Control_c, 0, 64, 127
2, 73222, Note_on_c, 0, 43, 94
2, 73405, Note_on_c, 0, 36, 0
2, 73405, Note_on_c, 0, 48, 0
2, 73405, Note_on_c, 0, 75, 0
2, 73405, Note_on_c, 0, 84, 0
2, 73409, Note_on_c, 0, 48, 103
2, 73410, Note_on_c, 0, 84, 102
2, 73411, Note_on_c, 0, 75, 102
2, 73411, Note_on_c, 0, 36, 93
2, 73505, Note_on_c, 0, 72, 0
2, 73515, Note_on_c, 0, 72, 96
2, 73574, Note_on_c, 0, 48, 0
2, 73579, Note_on_c, 0, 48, 88
2, 73597, Note_on_c, 0, 75, 0
2, 73607, Note_on_c, 0, 75, 92
2, 73674, Note_on_c, 0, 79, 0
2, 73681, Note_on_c, 0, 79, 96
2, 73683, Note_on_c, 0, 60, 94
2, 73684, Note_on_c, 0, 55, 90
2, 73684, Note_on_c, 0, 51, 92
2, 73785, Note_on_c, 0, 87, 107
2, 73866, Note_on_c, 0, 75, 0
2, 73872, Note_on_c, 0, 75, 98
2, 73950, Note_on_c, 0, 55, 0
2, 73950, Note_on_c, 0, 79, 0
2, 73956, Note_on_c, 0, 79, 95
2, 73956, Note_on_c, 0, 55, 89
2, 74035, Note_on_c, 0, 84, 0
2, 74040, Note_on_c, 0, 84, 96
2, 74099, Note_on_c, 0, 36, 0
2, 74099, Note_on_c, 0, 51, 0
2, 74099, Note_on_c, 0, 60, 0
2, 74099, Control_c, 0, 64, 0
2, 74099, Note_on_c, 0, 87, 0
2, 74099, Note_on_c, 0, 75, 0
2, 74100, Note_on_c, 0, 55, 0
2, 74100, Note_on_c, 0, 72, 0
2, 74100, Note_on_c, 0, 43, 0
2, 74100, Note_on_c, 0, 79, 0
2, 74100, Note_on_c, 0, 84, 0
2, 74119, Note_on_c, 0, 48, 0
2, 74130, Note_on_c, 0, 89, 107
2, 74132, Note_on_c, 0, 80, 104
2, 74133, Note_on_c, 0, 53, 106
2, 74135, Note_on_c, 0, 41, 105
2, 74165, Control_c, 0, 64, 127
2, 74230, Note_on_c, 0, 77, 93
2, 74296, Note_on_c, 0, 53, 0
2, 74306, Note_on_c, 0, 53, 83
2, 74311, Note_on_c, 0, 80, 0
2, 74320, Note_on_c, 0, 80, 89
2, 74420, Note_on_c, 0, 84, 91
2, 74423, Note_on_c, 0, 87, 102
2, 74423, Note_on_c, 0, 60, 93
2, 74424, Note_on_c, 0, 56, 92
2, 74496, Note_on_c, 0, 77, 0
2, 74500, Note_on_c, 0, 77, 97
2, 74595, Note_on_c, 0, 80, 0
2, 74602, Note_on_c, 0, 80, 90
2, 74672, Note_on_c, 0, 53, 0
2, 74680, Note_on_c, 0, 89, 0
2, 74682, Note_on_c, 0, 53, 86
2, 74691, Note_on_c, 0, 89, 105
2, 74780, Note_on_c, 0, 77, 0
2, 74786, Note_on_c, 0, 77, 86
2, 74854, Note_on_c, 0, 80, 0
2, 74854, Note_on_c, 0, 77, 0
2, 74854, Note_on_c, 0, 53, 0
2, 74855, Control_c, 0, 64, 0
2, 74855, Note_on_c, 0, 60, 0
2, 74856, Note_on_c, 0, 41, 0
2, 74857, Note_on_c, 0, 56, 0
2, 74858, Note_on_c, 0, 87, 0
2, 74864, Note_on_c, 0, 84, 0
2, 74864, Note_on_c, 0, 89, 0
2, 74875, Note_on_c, 0, 89, 104
2, 74877, Note_on_c, 0, 46, 102
2, 74877, Note_on_c, 0, 58, 101
2, 74881, Note_on_c, 0, 86, 105
2, 74881, Note_on_c, 0, 82, 101
2, 74933, Control_c, 0, 64, 127
2, 74941, Note_on_c, 0, 46, 0
2, 74960, Note_on_c, 0, 77, 94
2, 75025, Note_on_c, 0, 58, 0
2, 75048, Note_on_c, 0, 82, 0
2, 75048, Note_on_c, 0, 86, 0
2, 75055, Note_on_c, 0, 86, 103
2, 75056, Note_on_c, 0, 89, 0
2, 75059, Note_on_c, 0, 82, 89
2, 75060, Note_on_c, 0, 89, 95
2, 75060, Note_on_c, 0, 58, 90
2, 75133, Note_on_c, 0, 77, 0
2, 75140, Note_on_c, 0, 77, 97
2, 75174, Note_on_c, 0, 62, 96
2, 75174, Note_on_c, 0, 65, 95
2, 75246, Note_on_c, 0, 94, 107
2, 75248, Note_on_c, 0, 86, 0
2, 75258, Note_on_c, 0, 86, 106
2, 75409, Note_on_c, 0, 58, 0
2, 75420, Note_on_c, 0, 58, 91
2, 75429, Note_on_c, 0, 92, 106
2, 75434, Note_on_c, 0, 80, 97
2, 75550, Control_c, 0, 64, 0
2, 75560, Note_on_c, 0, 94, 0
2, 75561, Note_on_c, 0, 86, 0
2, 75562, Note_on_c, 0, 58, 0
2, 75562, Note_on_c, 0, 77, 0
2, 75562, Note_on_c, 0, 82, 0
2, 75562, Note_on_c, 0, 89, 0
2, 75564, Note_on_c, 0, 80, 0
2, 75564, Note_on_c, 0, 62, 0
2, 75565, Note_on_c, 0, 92, 0
2, 75566, Note_on_c, 0, 65, 0
2, 75584, Note_on_c, 0, 91, 108
2, 75590, Note_on_c, 0, 82, 95
2, 75590, Note_on_c, 0, 79, 99
2, 75599, Note_on_c, 0, 51, 90
2, 75602, Note_on_c, 0, 39, 84
2, 75617, Control_c, 0, 64, 127
2, 75676, Note_on_c, 0, 77, 104
2, 75677, Note_on_c, 0, 89, 107
2, 75755, Note_on_c, 0, 51, 0
2, 75763, Note_on_c, 0, 39, 0
2, 75766, Note_on_c, 0, 51, 86
2, 75767, Note_on_c, 0, 39, 64
2, 75863, Note_on_c, 0, 79, 0
2, 75863, Note_on_c, 0, 91, 0
2, 75867, Note_on_c, 0, 55, 92
2, 75867, Note_on_c, 0, 91, 109
2, 75868, Note_on_c, 0, 79, 103
2, 75870, Note_on_c, 0, 58, 93
2, 75870, Note_on_c, 0, 82, 0
2, 75880, Note_on_c, 0, 82, 90
2, 75881, Note_on_c, 0, 87, 92
2, 76048, Note_on_c, 0, 86, 101
2, 76135, Note_on_c, 0, 50, 90
2, 76139, Note_on_c, 0, 87, 0
2, 76142, Note_on_c, 0, 38, 85
2, 76151, Note_on_c, 0, 87, 93
2, 76208, Note_on_c, 0, 89, 0
2, 76218, Note_on_c, 0, 89, 101
2, 76296, Control_c, 0, 64, 0
2, 76302, Note_on_c, 0, 89, 0
2, 76302, Note_on_c, 0, 55, 0
2, 76302, Note_on_c, 0, 38, 0
2, 76302, Note_on_c, 0, 79, 0
2, 76303, Note_on_c, 0, 39, 0
2, 76303, Note_on_c, 0, 50, 0
2, 76303, Note_on_c, 0, 86, 0
2, 76303, Note_on_c, 0, 58, 0
2, 76304, Note_on_c, 0, 77, 0
2, 76316, Note_on_c, 0, 91, 0
2, 76321, Note_on_c, 0, 91, 108
2, 76323, Note_on_c, 0, 51, 0
2, 76323, Note_on_c, 0, 82, 0
2, 76323, Note_on_c, 0, 87, 0
2, 76326, Note_on_c, 0, 48, 100
2, 76330, Note_on_c, 0, 87, 92
2, 76331, Note_on_c, 0, 36, 89
2, 76332, Note_on_c, 0, 82, 99
2, 76367, Note_on_c, 0, 48, 0
2, 76377, Note_on_c, 0, 36, 0
2, 76377, Control_c, 0, 64, 127
2, 76421, Note_on_c, 0, 79, 95
2, 76483, Note_on_c, 0, 48, 88
2, 76500, Note_on_c, 0, 82, 0
2, 76510, Note_on_c, 0, 82, 97
2, 76577, Note_on_c, 0, 87, 0
2, 76587, Note_on_c, 0, 87, 100
2, 76589, Note_on_c, 0, 51, 82
2, 76589, Note_on_c, 0, 55, 89
2, 76677, Note_on_c, 0, 87, 0
2, 76677, Note_on_c, 0, 94, 109
2, 76683, Note_on_c, 0, 87, 92
2, 76769, Note_on_c, 0, 82, 0
2, 76774, Note_on_c, 0, 82, 100
2, 76838, Note_on_c, 0, 48, 0
2, 76845, Note_on_c, 0, 48, 87
2, 76861, Note_on_c, 0, 87, 0
2, 76869, Note_on_c, 0, 87, 96
2, 76930, Note_on_c, 0, 91, 0
2, 76937, Note_on_c, 0, 91, 100
2, 76993, Note_on_c, 0, 82, 0
2, 76994, Note_on_c, 0, 94, 0
2, 76994, Note_on_c, 0, 79, 0
2, 76994, Note_on_c, 0, 48, 0
2, 76994, Note_on_c, 0, 51, 0
2, 76995, Control_c, 0, 64, 0
2, 76995, Note_on_c, 0, 91, 0
2, 76995, Note_on_c, 0, 55, 0
2, 77015, Note_on_c, 0, 87, 0
2, 77018, Note_on_c, 0, 96, 108
2, 77023, Note_on_c, 0, 53, 101
2, 77026, Note_on_c, 0, 87, 102
2, 77027, Note_on_c, 0, 41, 96
2, 77049, Note_on_c, 0, 92, 72
2, 77061, Control_c, 0, 64, 127
2, 77148, Note_on_c, 0, 84, 84
2, 77176, Note_on_c, 0, 53, 0
2, 77182, Note_on_c, 0, 53, 75
2, 77214, Note_on_c, 0, 87, 0
2, 77218, Note_on_c, 0, 87, 86
2, 77296, Note_on_c, 0, 89, 108
2, 77302, Note_on_c, 0, 60, 92
2, 77303, Note_on_c, 0, 56, 97
2, 77306, Note_on_c, 0, 80, 95
2, 77386, Note_on_c, 0, 77, 82
2, 77491, Note_on_c, 0, 80, 0
2, 77491, Note_on_c, 0, 84, 0
2, 77496, Note_on_c, 0, 84, 76
2, 77499, Note_on_c, 0, 80, 94
2, 77575, Note_on_c, 0, 53, 0
2, 77575, Note_on_c, 0, 87, 0
2, 77580, Note_on_c, 0, 87, 99
2, 77582, Note_on_c, 0, 53, 93
2, 77614, Note_on_c, 0, 77, 0
2, 77621, Note_on_c, 0, 77, 94
2, 77702, Control_c, 0, 64, 0
2, 77704, Note_on_c, 0, 96, 0
2, 77705, Note_on_c, 0, 84, 0
2, 77705, Note_on_c, 0, 53, 0
2, 77706, Note_on_c, 0, 60, 0
2, 77706, Note_on_c, 0, 77, 0
2, 77706, Note_on_c, 0, 87, 0
2, 77706, Note_on_c, 0, 89, 0
2, 77706, Note_on_c, 0, 80, 0
2, 77706, Note_on_c, 0, 92, 0
2, 77708, Note_on_c, 0, 56, 0
2, 77721, Note_on_c, 0, 41, 0
2, 77762, Note_on_c, 0, 34, 91
2, 77762, Note_on_c, 0, 46, 99
2, 77763, Note_on_c, 0, 94, 104
2, 77763, Note_on_c, 0, 86, 104
2, 77764, Note_on_c, 0, 82, 105
2, 77775, Control_c, 0, 64, 127
2, 77913, Note_on_c, 0, 46, 0
2, 77928, Note_on_c, 0, 34, 0
2, 77936, Note_on_c, 0, 82, 0
2, 77936, Note_on_c, 0, 86, 0
2, 77936, Note_on_c, 0, 94, 0
2, 77940, Note_on_c, 0, 34, 92
2, 77940, Note_on_c, 0, 94, 106
2, 77941, Note_on_c, 0, 46, 95
2, 77943, Note_on_c, 0, 82, 103
2, 77944, Note_on_c, 0, 86, 103
2, 77997, Control_c, 0, 64, 0
2, 77998, Note_on_c, 0, 34, 0
2, 77999, Note_on_c, 0, 46, 0
2, 78000, Note_on_c, 0, 82, 0
2, 78001, Note_on_c, 0, 94, 0
2, 78028, Note_on_c, 0, 86, 0
2, 78121, Note_on_c, 0, 79, 102
2, 78122, Note_on_c, 0, 91, 108
2, 78123, Note_on_c, 0, 43, 92
2, 78123, Note_on_c, 0, 31, 92
2, 78155, Note_on_c, 0, 43, 0
2, 78156, Note_on_c, 0, 31, 0
2, 78156, Note_on_c, 0, 91, 0
2, 78158, Note_on_c, 0, 79, 0
2, 78293, Note_on_c, 0, 46, 96
2, 78293, Note_on_c, 0, 34, 93
2, 78293, Note_on_c, 0, 82, 106
2, 78293, Note_on_c, 0, 94, 106
2, 78324, Note_on_c, 0, 46, 0
2, 78326, Note_on_c, 0, 34, 0
2, 78333, Note_on_c, 0, 82, 0
2, 78334, Note_on_c, 0, 94, 0
2, 78470, Note_on_c, 0, 94, 109
2, 78473, Note_on_c, 0, 46, 102
2, 78474, Note_on_c, 0, 82, 104
2, 78475, Note_on_c, 0, 34, 95
2, 78525, Note_on_c, 0, 34, 0
2, 78530, Note_on_c, 0, 46, 0
2, 78532, Note_on_c, 0, 94, 0
2, 78534, Note_on_c, 0, 82, 0
2, 78738, Note_on_c, 0, 87, 107
2, 78741, Note_on_c, 0, 96, 109
2, 78741, Note_on_c, 0, 84, 106
2, 78741, Note_on_c, 0, 48, 103
2, 78743, Note_on_c, 0, 91, 102
2, 78746, Note_on_c, 0, 36, 95
2, 78766, Control_c, 0, 64, 127
2, 78897, Note_on_c, 0, 89, 100
2, 78922, Note_on_c, 0, 88, 94
2, 78953, Note_on_c, 0, 86, 64
2, 78958, Note_on_c, 0, 84, 0
2, 78967, Note_on_c, 0, 84, 85
2, 78974, Note_on_c, 0, 81, 90
2, 78981, Note_on_c, 0, 79, 88
2, 78988, Note_on_c, 0, 77, 87
2, 78994, Note_on_c, 0, 76, 97
2, 78999, Note_on_c, 0, 74, 95
2, 79015, Note_on_c, 0, 72, 88
2, 79023, Note_on_c, 0, 71, 87
2, 79030, Note_on_c, 0, 69, 86
2, 79033, Note_on_c, 0, 67, 78
2, 79052, Note_on_c, 0, 60, 63
2, 79054, Note_on_c, 0, 64, 76
2, 79055, Note_on_c, 0, 65, 84
2, 79061, Note_on_c, 0, 62, 70
2, 79085, Note_on_c, 0, 59, 79
2, 79100, Note_on_c, 0, 57, 77
2, 79112, Note_on_c, 0, 35, 67
2, 79119, Note_on_c, 0, 35, 0
2, 79211, Note_on_c, 0, 36, 0
2, 79218, Note_on_c, 0, 36, 98
2, 79221, Note_on_c, 0, 24, 95
2, 79255, Note_on_c, 0, 71, 0
2, 79256, Control_c, 0, 64, 0
2, 79256, Note_on_c, 0, 67, 0
2, 79256, Note_on_c, 0, 86, 0
2, 79257, Note_on_c, 0, 59, 0
2, 79257, Note_on_c, 0, 48, 0
2, 79258, Note_on_c, 0, 87, 0
2, 79258, Note_on_c, 0, 84, 0
2, 79258, Note_on_c, 0, 74, 0
2, 79258, Note_on_c, 0, 57, 0
2, 79258, Note_on_c, 0, 88, 0
2, 79259, Note_on_c, 0, 62, 0
2, 79259, Note_on_c, 0, 64, 0
2, 79259, Note_on_c, 0, 36, 0
2, 79259, Note_on_c, 0, 96, 0
2, 79259, Note_on_c, 0, 76, 0
2, 79259, Note_on_c, 0, 69, 0
2, 79259, Note_on_c, 0, 91, 0
2, 79259, Note_on_c, 0, 89, 0
2, 79260, Note_on_c, 0, 65, 0
2, 79260, Note_on_c, 0, 60, 0
2, 79260, Note_on_c, 0, 81, 0
2, 79260, Note_on_c, 0, 77, 0
2, 79261, Note_on_c, 0, 72, 0
2, 79261, Note_on_c, 0, 79, 0
2, 79280, Note_on_c, 0, 24, 0
2, 79401, Note_on_c, 0, 36, 81
2, 79404, Note_on_c, 0, 24, 75
2, 79431, Note_on_c, 0, 36, 0
2, 79441, Note_on_c, 0, 24, 0
2, 79596, Note_on_c, 0, 51, 76
2, 79693, Note_on_c, 0, 50, 71
2, 79756, Note_on_c, 0, 51, 0
2, 79762, Note_on_c, 0, 46, 72
2, 79807, Note_on_c, 0, 46, 0
2, 79810, Note_on_c, 0, 50, 0
2, 79855, Note_on_c, 0, 53, 72
2, 79941, Note_on_c, 0, 51, 75
2, 79993, Note_on_c, 0, 53, 0
2, 80029, Note_on_c, 0, 50, 64
2, 80088, Note_on_c, 0, 50, 0
2, 80095, Note_on_c, 0, 51, 0
2, 80128, Note_on_c, 0, 58, 81
2, 80193, Note_on_c, 0, 58, 0
2, 80213, Note_on_c, 0, 53, 81
2, 80305, Note_on_c, 0, 62, 90
2, 80394, Note_on_c, 0, 58, 80
2, 80398, Note_on_c, 0, 53, 0
2, 80413, Note_on_c, 0, 62, 0
2, 80459, Note_on_c, 0, 58, 0
2, 80472, Note_on_c, 0, 53, 80
2, 80567, Note_on_c, 0, 51, 82
2, 80645, Note_on_c, 0, 51, 0
2, 80645, Note_on_c, 0, 36, 95
2, 80649, Note_on_c, 0, 24, 91
2, 80655, Note_on_c, 0, 53, 0
2, 80683, Note_on_c, 0, 36, 0
2, 80690, Note_on_c, 0, 24, 0
2, 80835, Note_on_c, 0, 36, 87
2, 80835, Note_on_c, 0, 24, 81
2, 80866, Note_on_c, 0, 36, 0
2, 80885, Note_on_c, 0, 24, 0
2, 81016, Note_on_c, 0, 51, 72
2, 81114, Note_on_c, 0, 50, 67
2, 81143, Note_on_c, 0, 51, 0
2, 81192, Note_on_c, 0, 50, 0
2, 81196, Note_on_c, 0, 46, 75
2, 81277, Note_on_c, 0, 46, 0
2, 81280, Note_on_c, 0, 53, 75
2, 81368, Note_on_c, 0, 51, 78
2, 81398, Note_on_c, 0, 53, 0
2, 81449, Note_on_c, 0, 50, 68
2, 81482, Note_on_c, 0, 50, 0
2, 81515, Note_on_c, 0, 51, 0
2, 81541, Note_on_c, 0, 58, 78
2, 81581, Note_on_c, 0, 58, 0
2, 81640, Note_on_c, 0, 53, 72
2, 81723, Note_on_c, 0, 62, 93
2, 81753, Note_on_c, 0, 53, 0
2, 81817, Note_on_c, 0, 58, 76
2, 81864, Note_on_c, 0, 62, 0
2, 81880, Note_on_c, 0, 53, 75
2, 81883, Note_on_c, 0, 58, 0
2, 81982, Note_on_c, 0, 51, 76
2, 82005, Note_on_c, 0, 53, 0
2, 82045, Note_on_c, 0, 51, 0
2, 82088, Note_on_c, 0, 36, 94
2, 82091, Note_on_c, 0, 24, 89
2, 82125, Note_on_c, 0, 36, 0
2, 82133, Note_on_c, 0, 24, 0
2, 82272, Note_on_c, 0, 36, 90
2, 82273, Note_on_c, 0, 24, 87
2, 82329, Note_on_c, 0, 24, 0
2, 82337, Note_on_c, 0, 36, 0
2, 82435, Note_on_c, 0, 56, 94
2, 82532, Note_on_c, 0, 56, 0
2, 82540, Note_on_c, 0, 55, 78
2, 82625, Note_on_c, 0, 51, 79
2, 82673, Note_on_c, 0, 51, 0
2, 82678, Note_on_c, 0, 55, 0
2, 82708, Note_on_c, 0, 60, 88
2, 82820, Note_on_c, 0, 56, 81
2, 82871, Note_on_c, 0, 60, 0
2, 82894, Note_on_c, 0, 55, 82
2, 82895, Note_on_c, 0, 56, 0
2, 82925, Note_on_c, 0, 55, 0
2, 82996, Note_on_c, 0, 63, 84
2, 83065, Note_on_c, 0, 60, 90
2, 83069, Note_on_c, 0, 63, 0
2, 83163, Note_on_c, 0, 67, 99
2, 83235, Note_on_c, 0, 60, 0
2, 83256, Note_on_c, 0, 63, 84
2, 83335, Note_on_c, 0, 67, 0
2, 83352, Note_on_c, 0, 62, 81
2, 83423, Note_on_c, 0, 63, 0
2, 83430, Note_on_c, 0, 60, 84
2, 83447, Note_on_c, 0, 62, 0
2, 83489, Note_on_c, 0, 60, 0
2, 83522, Note_on_c, 0, 36, 98
2, 83523, Note_on_c, 0, 24, 97
2, 83581, Note_on_c, 0, 36, 0
2, 83635, Note_on_c, 0, 24, 0
2, 83714, Note_on_c, 0, 36, 90
2, 83715, Note_on_c, 0, 24, 87
2, 83788, Note_on_c, 0, 24, 0
2, 83879, Note_on_c, 0, 56, 92
2, 83927, Note_on_c, 0, 36, 0
2, 83973, Note_on_c, 0, 56, 0
2, 83976, Note_on_c, 0, 55, 74
2, 84055, Note_on_c, 0, 51, 79
2, 84083, Note_on_c, 0, 55, 0
2, 84118, Note_on_c, 0, 51, 0
2, 84143, Note_on_c, 0, 60, 90
2, 84248, Note_on_c, 0, 56, 84
2, 84262, Note_on_c, 0, 60, 0
2, 84328, Note_on_c, 0, 55, 84
2, 84336, Note_on_c, 0, 56, 0
2, 84418, Note_on_c, 0, 55, 0
2, 84428, Note_on_c, 0, 63, 89
2, 84509, Note_on_c, 0, 60, 90
2, 84518, Note_on_c, 0, 63, 0
2, 84607, Note_on_c, 0, 67, 98
2, 84638, Note_on_c, 0, 60, 0
2, 84698, Note_on_c, 0, 63, 88
2, 84750, Note_on_c, 0, 67, 0
2, 84783, Note_on_c, 0, 62, 87
2, 84843, Note_on_c, 0, 63, 0
2, 84872, Note_on_c, 0, 60, 76
2, 84904, Note_on_c, 0, 62, 0
2, 84929, Note_on_c, 0, 60, 0
2, 84963, Note_on_c, 0, 48, 94
2, 84966, Note_on_c, 0, 36, 89
2, 85002, Control_c, 0, 64, 127
2, 85132, Note_on_c, 0, 58, 76
2, 85226, Note_on_c, 0, 62, 81
2, 85309, Note_on_c, 0, 48, 0
2, 85312, Note_on_c, 0, 65, 93
2, 85317, Note_on_c, 0, 36, 0
2, 85320, Note_on_c, 0, 48, 88
2, 85322, Note_on_c, 0, 36, 76
2, 85426, Note_on_c, 0, 63, 79
2, 85501, Note_on_c, 0, 62, 0
2, 85509, Note_on_c, 0, 62, 87
2, 85593, Note_on_c, 0, 58, 0
2, 85597, Note_on_c, 0, 53, 94
2, 85597, Note_on_c, 0, 58, 98
2, 85601, Note_on_c, 0, 70, 97
2, 85693, Note_on_c, 0, 65, 0
2, 85699, Note_on_c, 0, 65, 86
2, 85785, Note_on_c, 0, 63, 0
2, 85792, Note_on_c, 0, 63, 80
2, 85878, Note_on_c, 0, 72, 91
2, 85891, Note_on_c, 0, 60, 92
2, 85954, Note_on_c, 0, 65, 0
2, 85965, Note_on_c, 0, 65, 89
2, 86070, Note_on_c, 0, 74, 105
2, 86077, Note_on_c, 0, 62, 0
2, 86088, Note_on_c, 0, 62, 94
2, 86161, Note_on_c, 0, 70, 0
2, 86165, Note_on_c, 0, 70, 83
2, 86231, Note_on_c, 0, 65, 0
2, 86240, Note_on_c, 0, 65, 89
2, 86330, Note_on_c, 0, 63, 0
2, 86334, Note_on_c, 0, 63, 92
2, 86366, Control_c, 0, 64, 0
2, 86389, Note_on_c, 0, 48, 0
2, 86391, Note_on_c, 0, 74, 0
2, 86392, Note_on_c, 0, 62, 0
2, 86392, Note_on_c, 0, 53, 0
2, 86393, Note_on_c, 0, 60, 0
2, 86393, Note_on_c, 0, 58, 0
2, 86394, Note_on_c, 0, 70, 0
2, 86394, Note_on_c, 0, 72, 0
2, 86394, Note_on_c, 0, 63, 0
2, 86395, Note_on_c, 0, 65, 0
2, 86400, Note_on_c, 0, 36, 0
2, 86444, Note_on_c, 0, 48, 91
2, 86447, Note_on_c, 0, 36, 89
2, 86484, Control_c, 0, 64, 127
2, 86639, Note_on_c, 0, 58, 81
2, 86725, Note_on_c, 0, 62, 83
2, 86803, Note_on_c, 0, 65, 93
2, 86822, Note_on_c, 0, 48, 0
2, 86826, Note_on_c, 0, 48, 86
2, 86900, Note_on_c, 0, 63, 90
2, 86983, Note_on_c, 0, 62, 0
2, 86990, Note_on_c, 0, 62, 90
2, 87068, Note_on_c, 0, 58, 0
2, 87078, Note_on_c, 0, 70, 96
2, 87078, Note_on_c, 0, 58, 98
2, 87081, Note_on_c, 0, 53, 91
2, 87160, Note_on_c, 0, 65, 0
2, 87169, Note_on_c, 0, 65, 85
2, 87244, Note_on_c, 0, 63, 0
2, 87248, Note_on_c, 0, 63, 95
2, 87354, Note_on_c, 0, 72, 95
2, 87381, Note_on_c, 0, 60, 88
2, 87452, Note_on_c, 0, 65, 0
2, 87459, Note_on_c, 0, 65, 86
2, 87551, Note_on_c, 0, 74, 106
2, 87552, Note_on_c, 0, 62, 0
2, 87555, Note_on_c, 0, 62, 101
2, 87636, Note_on_c, 0, 70, 0
2, 87647, Note_on_c, 0, 70, 86
2, 87713, Note_on_c, 0, 65, 0
2, 87721, Note_on_c, 0, 65, 89
2, 87805, Note_on_c, 0, 63, 0
2, 87815, Note_on_c, 0, 63, 91
2, 87815, Control_c, 0, 64, 0
2, 87817, Note_on_c, 0, 62, 0
2, 87818, Note_on_c, 0, 70, 0
2, 87820, Note_on_c, 0, 60, 0
2, 87823, Note_on_c, 0, 72, 0
2, 87824, Note_on_c, 0, 58, 0
2, 87824, Note_on_c, 0, 53, 0
2, 87824, Note_on_c, 0, 65, 0
2, 87825, Note_on_c, 0, 74, 0
2, 87827, Note_on_c, 0, 48, 0
2, 87828, Note_on_c, 0, 36, 0
2, 87854, Note_on_c, 0, 63, 0
2, 87908, Note_on_c, 0, 48, 94
2, 87909, Note_on_c, 0, 36, 90
2, 87943, Control_c, 0, 64, 127
2, 88076, Note_on_c, 0, 60, 88
2, 88170, Note_on_c, 0, 63, 81
2, 88263, Note_on_c, 0, 68, 96
2, 88266, Note_on_c, 0, 36, 0
2, 88266, Note_on_c, 0, 48, 0
2, 88270, Note_on_c, 0, 48, 86
2, 88277, Note_on_c, 0, 36, 75
2, 88384, Note_on_c, 0, 67, 71
2, 88427, Note_on_c, 0, 63, 0
2, 88434, Note_on_c, 0, 63, 83
2, 88527, Note_on_c, 0, 60, 0
2, 88536, Note_on_c, 0, 72, 98
2, 88538, Note_on_c, 0, 60, 95
2, 88543, Note_on_c, 0, 56, 95
2, 88634, Note_on_c, 0, 68, 0
2, 88638, Note_on_c, 0, 68, 89
2, 88696, Note_on_c, 0, 67, 0
2, 88706, Note_on_c, 0, 67, 90
2, 88822, Note_on_c, 0, 75, 91
2, 88859, Note_on_c, 0, 62, 86
2, 88903, Note_on_c, 0, 72, 0
2, 88908, Note_on_c, 0, 72, 92
2, 89011, Note_on_c, 0, 56, 0
2, 89011, Note_on_c, 0, 63, 0
2, 89015, Note_on_c, 0, 79, 99
2, 89017, Note_on_c, 0, 63, 96
2, 89019, Note_on_c, 0, 56, 80
2, 89095, Note_on_c, 0, 75, 0
2, 89100, Note_on_c, 0, 75, 92
2, 89181, Note_on_c, 0, 74, 95
2, 89256, Note_on_c, 0, 72, 0
2, 89262, Note_on_c, 0, 72, 92
2, 89325, Control_c, 0, 64, 0
2, 89326, Note_on_c, 0, 36, 0
2, 89328, Note_on_c, 0, 48, 0
2, 89328, Note_on_c, 0, 56, 0
2, 89328, Note_on_c, 0, 67, 0
2, 89329, Note_on_c, 0, 62, 0
2, 89329, Note_on_c, 0, 75, 0
2, 89329, Note_on_c, 0, 79, 0
2, 89330, Note_on_c, 0, 63, 0
2, 89330, Note_on_c, 0, 68, 0
2, 89330, Note_on_c, 0, 72, 0
2, 89331, Note_on_c, 0, 74, 0
2, 89341, Note_on_c, 0, 60, 0
2, 89368, Note_on_c, 0, 48, 103
2, 89369, Note_on_c, 0, 77, 97
2, 89370, Note_on_c, 0, 36, 97
2, 89410, Control_c, 0, 64, 127
2, 89462, Note_on_c, 0, 75, 87
2, 89549, Note_on_c, 0, 74, 97
2, 89656, Note_on_c, 0, 75, 0
2, 89660, Note_on_c, 0, 75, 86
2, 89725, Note_on_c, 0, 48, 0
2, 89736, Note_on_c, 0, 70, 98
2, 89736, Note_on_c, 0, 48, 93
2, 89825, Note_on_c, 0, 74, 0
2, 89834, Note_on_c, 0, 74, 97
2, 89929, Note_on_c, 0, 65, 87
2, 89994, Note_on_c, 0, 70, 0
2, 89997, Note_on_c, 0, 53, 97
2, 89998, Note_on_c, 0, 58, 101
2, 90004, Note_on_c, 0, 70, 94
2, 90101, Note_on_c, 0, 74, 0
2, 90110, Note_on_c, 0, 74, 99
2, 90201, Note_on_c, 0, 75, 0
2, 90205, Note_on_c, 0, 75, 93
2, 90283, Note_on_c, 0, 62, 92
2, 90301, Note_on_c, 0, 77, 0
2, 90311, Note_on_c, 0, 77, 86
2, 90392, Note_on_c, 0, 82, 89
2, 90447, Note_on_c, 0, 70, 0
2, 90455, Note_on_c, 0, 65, 0
2, 90456, Note_on_c, 0, 86, 100
2, 90458, Note_on_c, 0, 70, 96
2, 90460, Note_on_c, 0, 65, 90
2, 90573, Note_on_c, 0, 89, 95
2, 90652, Note_on_c, 0, 94, 103
2, 90767, Control_c, 0, 64, 0
2, 90772, Note_on_c, 0, 82, 0
2, 90772, Note_on_c, 0, 75, 0
2, 90772, Note_on_c, 0, 86, 0
2, 90772, Note_on_c, 0, 62, 0
2, 90772, Note_on_c, 0, 48, 0
2, 90772, Note_on_c, 0, 94, 0
2, 90773, Note_on_c, 0, 77, 0
2, 90773, Note_on_c, 0, 70, 0
2, 90773, Note_on_c, 0, 74, 0
2, 90773, Note_on_c, 0, 89, 0
2, 90773, Note_on_c, 0, 53, 0
2, 90773, Note_on_c, 0, 58, 0
2, 90773, Note_on_c, 0, 65, 0
2, 90785, Note_on_c, 0, 36, 0
2, 90818, Note_on_c, 0, 41, 93
2, 90824, Note_on_c, 0, 48, 90
2, 90842, Note_on_c, 0, 84, 97
2, 90848, Note_on_c, 0, 91, 86
2, 90851, Note_on_c, 0, 87, 88
2, 91000, Control_c, 0, 64, 127
2, 91029, Note_on_c, 0, 72, 79
2, 91035, Note_on_c, 0, 65, 60
2, 91038, Note_on_c, 0, 68, 58
2, 91200, Note_on_c, 0, 68, 0
2, 91200, Note_on_c, 0, 72, 0
2, 91205, Note_on_c, 0, 72, 76
2, 91207, Note_on_c, 0, 65, 0
2, 91208, Note_on_c, 0, 68, 65
2, 91211, Note_on_c, 0, 65, 60
2, 91384, Note_on_c, 0, 72, 0
2, 91392, Note_on_c, 0, 65, 0
2, 91392, Note_on_c, 0, 68, 0
2, 91395, Note_on_c, 0, 72, 76
2, 91398, Note_on_c, 0, 68, 61
2, 91401, Note_on_c, 0, 65, 50
2, 91468, Note_on_c, 0, 72, 0
2, 91475, Note_on_c, 0, 72, 75
2, 91476, Note_on_c, 0, 68, 0
2, 91484, Note_on_c, 0, 65, 0
2, 91486, Note_on_c, 0, 68, 63
2, 91488, Note_on_c, 0, 65, 52
2, 91583, Note_on_c, 0, 79, 90
2, 91660, Note_on_c, 0, 65, 0
2, 91660, Note_on_c, 0, 68, 0
2, 91660, Note_on_c, 0, 72, 0
2, 91667, Note_on_c, 0, 68, 64
2, 91668, Note_on_c, 0, 72, 77
2, 91670, Note_on_c, 0, 65, 58
2, 91845, Note_on_c, 0, 65, 0
2, 91845, Note_on_c, 0, 68, 0
2, 91845, Note_on_c, 0, 72, 0
2, 91855, Note_on_c, 0, 68, 73
2, 91855, Note_on_c, 0, 65, 61
2, 91855, Note_on_c, 0, 72, 68
2, 91929, Note_on_c, 0, 68, 0
2, 91937, Note_on_c, 0, 65, 0
2, 91939, Note_on_c, 0, 68, 90
2, 91944, Note_on_c, 0, 65, 71
2, 91944, Note_on_c, 0, 72, 0
2, 91949, Note_on_c, 0, 77, 83
2, 91952, Note_on_c, 0, 72, 72
2, 92121, Note_on_c, 0, 65, 0
2, 92121, Note_on_c, 0, 68, 0
2, 92121, Note_on_c, 0, 72, 0
2, 92125, Note_on_c, 0, 65, 71
2, 92127, Note_on_c, 0, 72, 65
2, 92130, Note_on_c, 0, 68, 74
2, 92250, Control_c, 0, 64, 0
2, 92259, Note_on_c, 0, 91, 0
2, 92264, Note_on_c, 0, 79, 0
2, 92265, Note_on_c, 0, 72, 0
2, 92265, Note_on_c, 0, 48, 0
2, 92265, Note_on_c, 0, 41, 0
2, 92265, Note_on_c, 0, 77, 0
2, 92266, Note_on_c, 0, 68, 0
2, 92266, Note_on_c, 0, 65, 0
2, 92266, Note_on_c, 0, 84, 0
2, 92282, Note_on_c, 0, 87, 0
2, 92303, Note_on_c, 0, 84, 97
2, 92314, Note_on_c, 0, 53, 74
2, 92315, Note_on_c, 0, 72, 93
2, 92315, Note_on_c, 0, 77, 76
2, 92317, Note_on_c, 0, 82, 88
2, 92318, Note_on_c, 0, 43, 73
2, 92413, Control_c, 0, 64, 127
2, 92490, Note_on_c, 0, 72, 0
2, 92500, Note_on_c, 0, 72, 82
2, 92503, Note_on_c, 0, 65, 70
2, 92506, Note_on_c, 0, 70, 68
2, 92659, Note_on_c, 0, 65, 0
2, 92659, Note_on_c, 0, 70, 0
2, 92659, Note_on_c, 0, 72, 0
2, 92663, Note_on_c, 0, 65, 70
2, 92663, Note_on_c, 0, 72, 72
2, 92665, Note_on_c, 0, 70, 70
2, 92843, Note_on_c, 0, 65, 0
2, 92843, Note_on_c, 0, 70, 0
2, 92843, Note_on_c, 0, 72, 0
2, 92848, Note_on_c, 0, 72, 66
2, 92852, Note_on_c, 0, 65, 67
2, 92853, Note_on_c, 0, 70, 57
2, 92935, Note_on_c, 0, 65, 0
2, 92935, Note_on_c, 0, 70, 0
2, 92935, Note_on_c, 0, 72, 0
2, 92945, Note_on_c, 0, 65, 70
2, 92946, Note_on_c, 0, 72, 74
2, 92946, Note_on_c, 0, 70, 60
2, 93025, Note_on_c, 0, 55, 88
2, 93112, Note_on_c, 0, 72, 0
2, 93119, Note_on_c, 0, 72, 82
2, 93120, Note_on_c, 0, 65, 0
2, 93120, Note_on_c, 0, 70, 0
2, 93130, Note_on_c, 0, 65, 60
2, 93131, Note_on_c, 0, 70, 67
2, 93288, Note_on_c, 0, 65, 0
2, 93288, Note_on_c, 0, 70, 0
2, 93288, Note_on_c, 0, 72, 0
2, 93295, Note_on_c, 0, 72, 66
2, 93297, Note_on_c, 0, 65, 63
2, 93298, Note_on_c, 0, 70, 68
2, 93373, Note_on_c, 0, 53, 0
2, 93381, Note_on_c, 0, 65, 0
2, 93381, Note_on_c, 0, 70, 0
2, 93381, Note_on_c, 0, 72, 0
2, 93384, Note_on_c, 0, 53, 81
2, 93389, Note_on_c, 0, 72, 82
2, 93391, Note_on_c, 0, 65, 73
2, 93392, Note_on_c, 0, 70, 68
2, 93565, Note_on_c, 0, 65, 0
2, 93565, Note_on_c, 0, 70, 0
2, 93565, Note_on_c, 0, 72, 0
2, 93572, Note_on_c, 0, 72, 68
2, 93573, Note_on_c, 0, 65, 59
2, 93574, Note_on_c, 0, 70, 66
2, 93707, Control_c, 0, 64, 0
2, 93723, Note_on_c, 0, 82, 0
2, 93724, Note_on_c, 0, 84, 0
2, 93724, Note_on_c, 0, 77, 0
2, 93724, Note_on_c, 0, 70, 0
2, 93727, Note_on_c, 0, 43, 0
2, 93727, Note_on_c, 0, 65, 0
2, 93742, Note_on_c, 0, 53, 0
2, 93749, Note_on_c, 0, 55, 0
2, 93749, Note_on_c, 0, 72, 0
2, 93754, Note_on_c, 0, 60, 88
2, 93754, Note_on_c, 0, 72, 90
2, 93759, Note_on_c, 0, 55, 77
2, 93759, Note_on_c, 0, 44, 77
2, 93760, Note_on_c, 0, 67, 82
2, 93880, Control_c, 0, 64, 127
2, 93941, Note_on_c, 0, 67, 0
2, 93941, Note_on_c, 0, 72, 0
2, 93946, Note_on_c, 0, 72, 67
2, 93949, Note_on_c, 0, 65, 51
2, 93952, Note_on_c, 0, 67, 53
2, 94118, Note_on_c, 0, 65, 0
2, 94118, Note_on_c, 0, 67, 0
2, 94118, Note_on_c, 0, 72, 0
2, 94122, Note_on_c, 0, 72, 63
2, 94122, Note_on_c, 0, 67, 65
2, 94124, Note_on_c, 0, 65, 66
2, 94295, Note_on_c, 0, 72, 0
2, 94302, Note_on_c, 0, 60, 0
2, 94302, Note_on_c, 0, 65, 0
2, 94302, Note_on_c, 0, 67, 0
2, 94304, Note_on_c, 0, 72, 82
2, 94311, Note_on_c, 0, 67, 61
2, 94313, Note_on_c, 0, 65, 64
2, 94313, Note_on_c, 0, 60, 46
2, 94379, Note_on_c, 0, 67, 0
2, 94379, Note_on_c, 0, 72, 0
2, 94385, Note_on_c, 0, 72, 83
2, 94389, Note_on_c, 0, 67, 73
2, 94394, Note_on_c, 0, 65, 0
2, 94399, Note_on_c, 0, 65, 58
2, 94484, Note_on_c, 0, 79, 91
2, 94579, Note_on_c, 0, 65, 0
2, 94579, Note_on_c, 0, 67, 0
2, 94579, Note_on_c, 0, 72, 0
2, 94583, Note_on_c, 0, 72, 84
2, 94584, Note_on_c, 0, 65, 65
2, 94585, Note_on_c, 0, 67, 74
2, 94748, Note_on_c, 0, 65, 0
2, 94748, Note_on_c, 0, 72, 0
2, 94753, Note_on_c, 0, 72, 79
2, 94755, Note_on_c, 0, 67, 0
2, 94758, Note_on_c, 0, 65, 60
2, 94766, Note_on_c, 0, 67, 47
2, 94840, Note_on_c, 0, 65, 0
2, 94840, Note_on_c, 0, 67, 0
2, 94840, Note_on_c, 0, 72, 0
2, 94844, Note_on_c, 0, 67, 74
2, 94846, Note_on_c, 0, 65, 73
2, 94848, Note_on_c, 0, 72, 83
2, 94852, Note_on_c, 0, 77, 88
2, 95032, Note_on_c, 0, 72, 0
2, 95040, Note_on_c, 0, 65, 0
2, 95040, Note_on_c, 0, 67, 0
2, 95040, Note_on_c, 0, 72, 78
2, 95049, Note_on_c, 0, 65, 68
2, 95050, Note_on_c, 0, 67, 58
2, 95150, Control_c, 0, 64, 0
2, 95169, Note_on_c, 0, 67, 0
2, 95170, Note_on_c, 0, 72, 0
2, 95170, Note_on_c, 0, 79, 0
2, 95171, Note_on_c, 0, 65, 0
2, 95171, Note_on_c, 0, 44, 0
2, 95173, Note_on_c, 0, 60, 0
2, 95174, Note_on_c, 0, 55, 0
2, 95197, Note_on_c, 0, 84, 99
2, 95201, Note_on_c, 0, 77, 0
2, 95211, Note_on_c, 0, 72, 88
2, 95212, Note_on_c, 0, 77, 80
2, 95215, Note_on_c, 0, 43, 72
2, 95217, Note_on_c, 0, 53, 74
2, 95218, Note_on_c, 0, 82, 88
2, 95255, Control_c, 0, 64, 127
2, 95301, Note_on_c, 0, 72, 0
2, 95398, Note_on_c, 0, 72, 70
2, 95398, Note_on_c, 0, 70, 67
2, 95402, Note_on_c, 0, 65, 57
2, 95562, Note_on_c, 0, 65, 0
2, 95569, Note_on_c, 0, 70, 0
2, 95569, Note_on_c, 0, 72, 0
2, 95572, Note_on_c, 0, 65, 56
2, 95574, Note_on_c, 0, 72, 80
2, 95576, Note_on_c, 0, 70, 63
2, 95723, Note_on_c, 0, 72, 0
2, 95731, Note_on_c, 0, 65, 0
2, 95731, Note_on_c, 0, 82, 0
2, 95734, Note_on_c, 0, 72, 75
2, 95735, Note_on_c, 0, 65, 65
2, 95736, Note_on_c, 0, 82, 94
2, 95823, Note_on_c, 0, 70, 0
2, 95823, Note_on_c, 0, 72, 0
2, 95830, Note_on_c, 0, 72, 74
2, 95831, Note_on_c, 0, 65, 0
2, 95834, Note_on_c, 0, 70, 69
2, 95835, Note_on_c, 0, 65, 67
2, 95927, Note_on_c, 0, 55, 88
2, 96015, Note_on_c, 0, 72, 0
2, 96023, Note_on_c, 0, 65, 0
2, 96023, Note_on_c, 0, 70, 0
2, 96026, Note_on_c, 0, 72, 84
2, 96027, Note_on_c, 0, 65, 81
2, 96031, Note_on_c, 0, 70, 71
2, 96192, Note_on_c, 0, 65, 0
2, 96192, Note_on_c, 0, 72, 0
2, 96199, Note_on_c, 0, 70, 0
2, 96202, Note_on_c, 0, 65, 67
2, 96203, Note_on_c, 0, 72, 66
2, 96205, Note_on_c, 0, 70, 63
2, 96276, Note_on_c, 0, 53, 0
2, 96276, Note_on_c, 0, 72, 0
2, 96284, Note_on_c, 0, 65, 0
2, 96285, Note_on_c, 0, 53, 89
2, 96287, Note_on_c, 0, 72, 87
2, 96291, Note_on_c, 0, 65, 86
2, 96460, Note_on_c, 0, 72, 0
2, 96467, Note_on_c, 0, 72, 69
2, 96468, Note_on_c, 0, 70, 0
2, 96473, Note_on_c, 0, 70, 78
2, 96614, Note_on_c, 0, 84, 0
2, 96617, Control_c, 0, 64, 0
2, 96617, Note_on_c, 0, 43, 0
2, 96618, Note_on_c, 0, 53, 0
2, 96618, Note_on_c, 0, 77, 0
2, 96619, Note_on_c, 0, 55, 0
2, 96619, Note_on_c, 0, 82, 0
2, 96619, Note_on_c, 0, 65, 0
2, 96620, Note_on_c, 0, 70, 0
2, 96652, Note_on_c, 0, 72, 0
2, 96660, Note_on_c, 0, 72, 91
2, 96664, Note_on_c, 0, 48, 77
2, 96664, Note_on_c, 0, 41, 73
2, 96664, Note_on_c, 0, 60, 89
2, 96666, Note_on_c, 0, 65, 74
2, 96671, Note_on_c, 0, 68, 86
2, 96671, Note_on_c, 0, 56, 80
2, 96729, Control_c, 0, 64, 127
2, 96760, Note_on_c, 0, 56, 0
2, 96852, Note_on_c, 0, 65, 0
2, 96852, Note_on_c, 0, 72, 0
2, 96856, Note_on_c, 0, 72, 83
2, 96860, Note_on_c, 0, 68, 0
2, 96860, Note_on_c, 0, 65, 62
2, 96864, Note_on_c, 0, 68, 65
2, 97013, Note_on_c, 0, 65, 0
2, 97013, Note_on_c, 0, 68, 0
2, 97013, Note_on_c, 0, 72, 0
2, 97020, Note_on_c, 0, 72, 73
2, 97023, Note_on_c, 0, 65, 71
2, 97024, Note_on_c, 0, 68, 60
2, 97205, Note_on_c, 0, 65, 0
2, 97210, Note_on_c, 0, 65, 74
2, 97210, Note_on_c, 0, 58, 85
2, 97290, Note_on_c, 0, 72, 0
2, 97297, Note_on_c, 0, 72, 85
2, 97392, Note_on_c, 0, 79, 95
2, 97482, Note_on_c, 0, 65, 0
2, 97482, Note_on_c, 0, 68, 0
2, 97482, Note_on_c, 0, 72, 0
2, 97486, Note_on_c, 0, 65, 69
2, 97488, Note_on_c, 0, 68, 78
2, 97490, Note_on_c, 0, 72, 80
2, 97651, Note_on_c, 0, 65, 0
2, 97651, Note_on_c, 0, 68, 0
2, 97651, Note_on_c, 0, 72, 0
2, 97661, Note_on_c, 0, 72, 81
2, 97661, Note_on_c, 0, 68, 69
2, 97662, Note_on_c, 0, 65, 68
2, 97751, Note_on_c, 0, 65, 0
2, 97751, Note_on_c, 0, 72, 0
2, 97752, Note_on_c, 0, 77, 94
2, 97758, Note_on_c, 0, 68, 0
2, 97760, Note_on_c, 0, 72, 81
2, 97761, Note_on_c, 0, 65, 81
2, 97764, Note_on_c, 0, 68, 82
2, 97927, Note_on_c, 0, 65, 0
2, 97927, Note_on_c, 0, 68, 0
2, 97927, Note_on_c, 0, 72, 0
2, 97931, Note_on_c, 0, 72, 66
2, 97933, Note_on_c, 0, 68, 78
2, 97934, Note_on_c, 0, 65, 67
2, 98068, Control_c, 0, 64, 0
2, 98069, Note_on_c, 0, 79, 0
2, 98071, Note_on_c, 0, 41, 0
2, 98071, Note_on_c, 0, 48, 0
2, 98071, Note_on_c, 0, 68, 0
2, 98072, Note_on_c, 0, 58, 0
2, 98072, Note_on_c, 0, 65, 0
2, 98072, Note_on_c, 0, 77, 0
2, 98073, Note_on_c, 0, 60, 0
2, 98073, Note_on_c, 0, 72, 0
2, 98105, Note_on_c, 0, 84, 100
2, 98110, Note_on_c, 0, 72, 93
2, 98113, Note_on_c, 0, 77, 82
2, 98116, Note_on_c, 0, 53, 82
2, 98118, Note_on_c, 0, 82, 88
2, 98125, Note_on_c, 0, 43, 78
2, 98158, Control_c, 0, 64, 127
2, 98227, Note_on_c, 0, 72, 0
2, 98296, Note_on_c, 0, 72, 80
2, 98299, Note_on_c, 0, 65, 72
2, 98299, Note_on_c, 0, 70, 72
2, 98465, Note_on_c, 0, 72, 0
2, 98472, Note_on_c, 0, 65, 0
2, 98472, Note_on_c, 0, 70, 0
2, 98475, Note_on_c, 0, 72, 81
2, 98480, Note_on_c, 0, 70, 70
2, 98481, Note_on_c, 0, 65, 62
2, 98641, Note_on_c, 0, 65, 0
2, 98641, Note_on_c, 0, 70, 0
2, 98641, Note_on_c, 0, 72, 0
2, 98645, Note_on_c, 0, 72, 85
2, 98647, Note_on_c, 0, 65, 76
2, 98651, Note_on_c, 0, 70, 66
2, 98672, Note_on_c, 0, 77, 0
2, 98734, Note_on_c, 0, 72, 0
2, 98741, Note_on_c, 0, 65, 0
2, 98741, Note_on_c, 0, 70, 0
2, 98741, Note_on_c, 0, 72, 84
2, 98747, Note_on_c, 0, 65, 62
2, 98749, Note_on_c, 0, 70, 67
2, 98830, Note_on_c, 0, 60, 84
2, 98836, Note_on_c, 0, 58, 78
2, 98837, Note_on_c, 0, 55, 71
2, 98918, Note_on_c, 0, 65, 0
2, 98918, Note_on_c, 0, 70, 0
2, 98918, Note_on_c, 0, 72, 0
2, 98927, Note_on_c, 0, 65, 74
2, 98927, Note_on_c, 0, 72, 84
2, 98929, Note_on_c, 0, 70, 72
2, 99095, Note_on_c, 0, 65, 0
2, 99095, Note_on_c, 0, 70, 0
2, 99095, Note_on_c, 0, 72, 0
2, 99099, Note_on_c, 0, 72, 72
2, 99100, Note_on_c, 0, 65, 74
2, 99105, Note_on_c, 0, 70, 67
2, 99179, Note_on_c, 0, 65, 0
2, 99179, Note_on_c, 0, 72, 0
2, 99187, Note_on_c, 0, 70, 0
2, 99187, Note_on_c, 0, 82, 0
2, 99189, Note_on_c, 0, 72, 85
2, 99190, Note_on_c, 0, 65, 71
2, 99196, Note_on_c, 0, 70, 84
2, 99198, Note_on_c, 0, 82, 96
2, 99233, Note_on_c, 0, 84, 0
2, 99356, Note_on_c, 0, 65, 0
2, 99356, Note_on_c, 0, 72, 0
2, 99362, Note_on_c, 0, 65, 84
2, 99363, Note_on_c, 0, 70, 0
2, 99365, Note_on_c, 0, 72, 80
2, 99369, Note_on_c, 0, 70, 71
2, 99531, Note_on_c, 0, 72, 0
2, 99533, Note_on_c, 0, 70, 0
2, 99534, Note_on_c, 0, 55, 0
2, 99534, Note_on_c, 0, 60, 0
2, 99534, Note_on_c, 0, 65, 0
2, 99535, Note_on_c, 0, 58, 0
2, 99535, Note_on_c, 0, 43, 0
2, 99535, Note_on_c, 0, 53, 0
2, 99538, Control_c, 0, 64, 0
2, 99555, Note_on_c, 0, 86, 100
2, 99555, Note_on_c, 0, 82, 0
2, 99559, Note_on_c, 0, 80, 93
2, 99560, Note_on_c, 0, 74, 95
2, 99562, Note_on_c, 0, 82, 89
2, 99563, Note_on_c, 0, 44, 82
2, 99570, Note_on_c, 0, 51, 72
2, 99578, Note_on_c, 0, 51, 0
2, 99624, Control_c, 0, 64, 127
2, 99732, Note_on_c, 0, 74, 0
2, 99743, Note_on_c, 0, 74, 82
2, 99749, Note_on_c, 0, 70, 71
2, 99909, Note_on_c, 0, 74, 0
2, 99916, Note_on_c, 0, 70, 0
2, 99919, Note_on_c, 0, 68, 85
2, 99920, Note_on_c, 0, 74, 87
2, 99926, Note_on_c, 0, 70, 73
2, 100093, Note_on_c, 0, 74, 0
2, 100101, Note_on_c, 0, 68, 0
2, 100101, Note_on_c, 0, 70, 0
2, 100104, Note_on_c, 0, 74, 84
2, 100109, Note_on_c, 0, 68, 70
2, 100112, Note_on_c, 0, 70, 58
2, 100193, Note_on_c, 0, 74, 0
2, 100200, Note_on_c, 0, 68, 0
2, 100200, Note_on_c, 0, 70, 0
2, 100204, Note_on_c, 0, 74, 77
2, 100205, Note_on_c, 0, 68, 77
2, 100210, Note_on_c, 0, 70, 58
2, 100283, Note_on_c, 0, 62, 84
2, 100287, Note_on_c, 0, 60, 73
2, 100290, Note_on_c, 0, 56, 75
2, 100369, Note_on_c, 0, 68, 0
2, 100369, Note_on_c, 0, 70, 0
2, 100369, Note_on_c, 0, 74, 0
2, 100378, Note_on_c, 0, 74, 90
2, 100379, Note_on_c, 0, 68, 85
2, 100381, Note_on_c, 0, 70, 76
2, 100554, Note_on_c, 0, 68, 0
2, 100554, Note_on_c, 0, 70, 0
2, 100554, Note_on_c, 0, 74, 0
2, 100558, Note_on_c, 0, 74, 87
2, 100563, Note_on_c, 0, 70, 65
2, 100564, Note_on_c, 0, 68, 68
2, 100631, Note_on_c, 0, 68, 0
2, 100631, Note_on_c, 0, 74, 0
2, 100638, Note_on_c, 0, 68, 92
2, 100638, Note_on_c, 0, 70, 0
2, 100638, Note_on_c, 0, 82, 0
2, 100640, Note_on_c, 0, 74, 91
2, 100647, Note_on_c, 0, 70, 83
2, 100800, Note_on_c, 0, 70, 0
2, 100800, Note_on_c, 0, 74, 0
2, 100811, Note_on_c, 0, 74, 90
2, 100811, Note_on_c, 0, 70, 89
2, 100812, Control_c, 0, 64, 0
2, 100948, Note_on_c, 0, 74, 0
2, 100949, Note_on_c, 0, 70, 0
2, 100950, Note_on_c, 0, 80, 0
2, 100950, Note_on_c, 0, 68, 0
2, 100950, Note_on_c, 0, 56, 0
2, 100951, Note_on_c, 0, 44, 0
2, 100951, Note_on_c, 0, 62, 0
2, 100951, Note_on_c, 0, 60, 0
2, 100953, Note_on_c, 0, 86, 0
2, 100994, Note_on_c, 0, 79, 83
2, 100995, Note_on_c, 0, 87, 101
2, 100997, Note_on_c, 0, 75, 93
2, 101004, Note_on_c, 0, 46, 87
2, 101005, Note_on_c, 0, 53, 84
2, 101006, Note_on_c, 0, 60, 84
2, 101045, Control_c, 0, 64, 127
2, 101160, Note_on_c, 0, 75, 0
2, 101170, Note_on_c, 0, 72, 97
2, 101171, Note_on_c, 0, 75, 93
2, 101345, Note_on_c, 0, 72, 0
2, 101345, Note_on_c, 0, 75, 0
2, 101349, Note_on_c, 0, 75, 92
2, 101349, Note_on_c, 0, 72, 94
2, 101514, Note_on_c, 0, 72, 0
2, 101514, Note_on_c, 0, 75, 0
2, 101525, Note_on_c, 0, 72, 83
2, 101525, Note_on_c, 0, 75, 91
2, 101612, Note_on_c, 0, 77, 100
2, 101617, Note_on_c, 0, 74, 102
2, 101618, Note_on_c, 0, 70, 99
2, 101663, Control_c, 0, 64, 0
2, 101673, Note_on_c, 0, 46, 0
2, 101675, Note_on_c, 0, 79, 0
2, 101676, Note_on_c, 0, 72, 0
2, 101676, Note_on_c, 0, 60, 0
2, 101676, Note_on_c, 0, 75, 0
2, 101684, Note_on_c, 0, 70, 0
2, 101698, Note_on_c, 0, 87, 0
2, 101713, Note_on_c, 0, 53, 0
2, 101717, Note_on_c, 0, 53, 95
2, 101717, Note_on_c, 0, 47, 94
2, 101718, Note_on_c, 0, 59, 103
2, 101718, Note_on_c, 0, 55, 94
2, 101767, Control_c, 0, 64, 127
2, 101829, Note_on_c, 0, 70, 91
2, 101898, Note_on_c, 0, 74, 0
2, 101907, Note_on_c, 0, 74, 98
2, 101990, Note_on_c, 0, 74, 0
2, 101990, Note_on_c, 0, 77, 0
2, 101997, Note_on_c, 0, 77, 95
2, 101999, Note_on_c, 0, 74, 80
2, 102059, Note_on_c, 0, 55, 0
2, 102067, Note_on_c, 0, 55, 100
2, 102070, Note_on_c, 0, 43, 99
2, 102078, Note_on_c, 0, 82, 98
2, 102162, Note_on_c, 0, 86, 99
2, 102251, Note_on_c, 0, 89, 95
2, 102311, Note_on_c, 0, 94, 102
2, 102328, Note_on_c, 0, 43, 0
2, 102336, Note_on_c, 0, 43, 45
2, 102363, Control_c, 0, 64, 0
2, 102370, Note_on_c, 0, 82, 0
2, 102370, Note_on_c, 0, 47, 0
2, 102370, Note_on_c, 0, 74, 0
2, 102370, Note_on_c, 0, 77, 0
2, 102370, Note_on_c, 0, 86, 0
2, 102370, Note_on_c, 0, 53, 0
2, 102371, Note_on_c, 0, 59, 0
2, 102371, Note_on_c, 0, 89, 0
2, 102371, Note_on_c, 0, 70, 0
2, 102372, Note_on_c, 0, 55, 0
2, 102377, Note_on_c, 0, 94, 0
2, 102412, Note_on_c, 0, 43, 0
2, 102431, Note_on_c, 0, 96, 110
2, 102431, Note_on_c, 0, 60, 97
2, 102433, Note_on_c, 0, 48, 97
2, 102433, Note_on_c, 0, 84, 105
2, 102435, Note_on_c, 0, 87, 103
2, 102437, Note_on_c, 0, 55, 87
2, 102438, Note_on_c, 0, 51, 89
2, 102443, Control_c, 0, 64, 127
2, 102604, Note_on_c, 0, 48, 0
2, 102612, Note_on_c, 0, 48, 91
2, 102635, Control_c, 0, 64, 0
2, 102638, Note_on_c, 0, 60, 0
2, 102641, Note_on_c, 0, 96, 0
2, 102645, Note_on_c, 0, 55, 0
2, 102645, Note_on_c, 0, 84, 0
2, 102647, Note_on_c, 0, 51, 0
2, 102647, Note_on_c, 0, 87, 0
2, 102663, Note_on_c, 0, 48, 0
2, 102709, Note_on_c, 0, 51, 82
2, 102718, Note_on_c, 0, 55, 82
2, 102754, Note_on_c, 0, 51, 0
2, 102789, Note_on_c, 0, 55, 0
2, 102794, Note_on_c, 0, 63, 94
2, 102795, Note_on_c, 0, 60, 83
2, 102828, Note_on_c, 0, 63, 0
2, 102829, Note_on_c, 0, 60, 0
2, 102894, Note_on_c, 0, 48, 82
2, 102946, Note_on_c, 0, 48, 0
2, 102987, Note_on_c, 0, 51, 77
2, 103046, Note_on_c, 0, 48, 83
2, 103128, Note_on_c, 0, 48, 0
2, 103130, Note_on_c, 0, 51, 0
2, 103160, Note_on_c, 0, 65, 94
2, 103163, Note_on_c, 0, 53, 95
2, 103166, Note_on_c, 0, 41, 93
2, 103167, Note_on_c, 0, 56, 87
2, 103168, Note_on_c, 0, 60, 82
2, 103201, Note_on_c, 0, 53, 0
2, 103202, Note_on_c, 0, 56, 0
2, 103207, Note_on_c, 0, 41, 0
2, 103207, Note_on_c, 0, 60, 0
2, 103288, Note_on_c, 0, 65, 0
2, 103354, Note_on_c, 0, 53, 88
2, 103355, Note_on_c, 0, 41, 84
2, 103438, Note_on_c, 0, 63, 90
2, 103442, Note_on_c, 0, 60, 85
2, 103443, Note_on_c, 0, 56, 87
2, 103527, Note_on_c, 0, 53, 0
2, 103603, Note_on_c, 0, 41, 0
2, 103609, Note_on_c, 0, 41, 88
2, 103700, Note_on_c, 0, 44, 79
2, 103700, Note_on_c, 0, 65, 93
2, 103749, Control_c, 0, 64, 127
2, 103754, Note_on_c, 0, 48, 86
2, 103891, Control_c, 0, 64, 0
2, 103895, Note_on_c, 0, 56, 0
2, 103897, Note_on_c, 0, 41, 0
2, 103897, Note_on_c, 0, 63, 0
2, 103897, Note_on_c, 0, 60, 0
2, 103898, Note_on_c, 0, 48, 0
2, 103898, Note_on_c, 0, 65, 0
2, 103899, Note_on_c, 0, 46, 98
2, 103899, Note_on_c, 0, 53, 91
2, 103899, Note_on_c, 0, 44, 0
2, 104070, Note_on_c, 0, 46, 0
2, 104075, Note_on_c, 0, 53, 0
2, 104075, Note_on_c, 0, 65, 87
2, 104078, Note_on_c, 0, 58, 82
2, 104081, Note_on_c, 0, 62, 83
2, 104115, Note_on_c, 0, 62, 0
2, 104116, Note_on_c, 0, 58, 0
2, 104169, Note_on_c, 0, 53, 88
2, 104170, Note_on_c, 0, 46, 89
2, 104240, Note_on_c, 0, 65, 0
2, 104256, Note_on_c, 0, 70, 94
2, 104259, Note_on_c, 0, 62, 86
2, 104286, Note_on_c, 0, 46, 0
2, 104287, Note_on_c, 0, 53, 0
2, 104304, Note_on_c, 0, 62, 0
2, 104314, Note_on_c, 0, 70, 0
2, 104346, Note_on_c, 0, 46, 89
2, 104419, Note_on_c, 0, 50, 81
2, 104426, Note_on_c, 0, 68, 97
2, 104476, Note_on_c, 0, 53, 87
2, 104507, Note_on_c, 0, 68, 0
2, 104511, Note_on_c, 0, 50, 0
2, 104515, Note_on_c, 0, 46, 0
2, 104570, Note_on_c, 0, 53, 0
2, 104619, Note_on_c, 0, 58, 95
2, 104620, Note_on_c, 0, 51, 87
2, 104620, Note_on_c, 0, 67, 96
2, 104621, Note_on_c, 0, 55, 79
2, 104621, Note_on_c, 0, 63, 89
2, 104661, Note_on_c, 0, 51, 0
2, 104670, Note_on_c, 0, 58, 0
2, 104701, Note_on_c, 0, 55, 0
2, 104719, Note_on_c, 0, 65, 84
2, 104720, Note_on_c, 0, 63, 0
2, 104724, Note_on_c, 0, 67, 0
2, 104795, Note_on_c, 0, 65, 0
2, 104808, Note_on_c, 0, 51, 84
2, 104891, Note_on_c, 0, 67, 98
2, 104895, Note_on_c, 0, 58, 83
2, 104896, Note_on_c, 0, 63, 92
2, 104897, Note_on_c, 0, 55, 87
2, 104931, Control_c, 0, 64, 127
2, 105039, Note_on_c, 0, 51, 0
2, 105050, Note_on_c, 0, 51, 84
2, 105137, Note_on_c, 0, 50, 89
2, 105251, Control_c, 0, 64, 0
2, 105253, Note_on_c, 0, 67, 0
2, 105254, Note_on_c, 0, 51, 0
2, 105254, Note_on_c, 0, 58, 0
2, 105255, Note_on_c, 0, 63, 0
2, 105256, Note_on_c, 0, 55, 0
2, 105256, Note_on_c, 0, 50, 0
2, 105333, Note_on_c, 0, 55, 99
2, 105335, Note_on_c, 0, 67, 98
2, 105336, Note_on_c, 0, 48, 92
2, 105336, Note_on_c, 0, 60, 92
2, 105336, Note_on_c, 0, 63, 92
2, 105338, Note_on_c, 0, 51, 84
2, 105369, Control_c, 0, 64, 127
2, 105489, Control_c, 0, 64, 0
2, 105492, Note_on_c, 0, 55, 0
2, 105492, Note_on_c, 0, 51, 0
2, 105493, Note_on_c, 0, 63, 0
2, 105493, Note_on_c, 0, 67, 0
2, 105493, Note_on_c, 0, 60, 0
2, 105507, Note_on_c, 0, 48, 0
2, 105517, Note_on_c, 0, 48, 90
2, 105588, Note_on_c, 0, 48, 0
2, 105602, Note_on_c, 0, 51, 84
2, 105607, Note_on_c, 0, 55, 83
2, 105635, Note_on_c, 0, 55, 0
2, 105637, Note_on_c, 0, 51, 0
2, 105703, Note_on_c, 0, 70, 97
2, 105715, Note_on_c, 0, 63, 89
2, 105715, Note_on_c, 0, 60, 86
2, 105761, Control_c, 0, 64, 127
2, 105803, Note_on_c, 0, 48, 83
2, 105879, Note_on_c, 0, 51, 87
2, 105922, Note_on_c, 0, 48, 0
2, 105927, Control_c, 0, 64, 0
2, 105929, Note_on_c, 0, 48, 90
2, 105939, Note_on_c, 0, 60, 0
2, 105949, Note_on_c, 0, 51, 0
2, 105954, Note_on_c, 0, 70, 0
2, 105957, Note_on_c, 0, 48, 0
2, 105958, Note_on_c, 0, 63, 0
2, 106052, Note_on_c, 0, 72, 102
2, 106055, Note_on_c, 0, 60, 100
2, 106059, Note_on_c, 0, 41, 99
2, 106059, Note_on_c, 0, 53, 100
2, 106060, Note_on_c, 0, 68, 94
2, 106062, Note_on_c, 0, 63, 92
2, 106068, Control_c, 0, 64, 127
2, 106180, Control_c, 0, 64, 0
2, 106185, Note_on_c, 0, 41, 0
2, 106186, Note_on_c, 0, 53, 0
2, 106187, Note_on_c, 0, 63, 0
2, 106187, Note_on_c, 0, 60, 0
2, 106187, Note_on_c, 0, 68, 0
2, 106187, Note_on_c, 0, 72, 0
2, 106243, Note_on_c, 0, 41, 91
2, 106243, Note_on_c, 0, 53, 90
2, 106298, Control_c, 0, 64, 127
2, 106332, Note_on_c, 0, 65, 100
2, 106339, Note_on_c, 0, 60, 87
2, 106339, Note_on_c, 0, 56, 97
2, 106383, Note_on_c, 0, 41, 0
2, 106385, Control_c, 0, 64, 0
2, 106391, Note_on_c, 0, 53, 0
2, 106501, Note_on_c, 0, 41, 92
2, 106506, Control_c, 0, 64, 127
2, 106609, Note_on_c, 0, 63, 94
2, 106609, Note_on_c, 0, 44, 82
2, 106676, Note_on_c, 0, 48, 87
2, 106737, Control_c, 0, 64, 0
2, 106744, Note_on_c, 0, 41, 0
2, 106745, Note_on_c, 0, 56, 0
2, 106745, Note_on_c, 0, 48, 0
2, 106745, Note_on_c, 0, 65, 0
2, 106745, Note_on_c, 0, 44, 0
2, 106746, Note_on_c, 0, 63, 0
2, 106752, Note_on_c, 0, 60, 0
2, 106789, Note_on_c, 0, 46, 102
2, 106791, Note_on_c, 0, 53, 91
2, 106794, Note_on_c, 0, 65, 84
2, 106859, Control_c, 0, 64, 127
2, 106951, Note_on_c, 0, 46, 0
2, 106951, Control_c, 0, 64, 0
2, 106954, Note_on_c, 0, 53, 0
2, 106969, Note_on_c, 0, 62, 94
2, 106970, Note_on_c, 0, 58, 87
2, 107028, Note_on_c, 0, 65, 0
2, 107030, Note_on_c, 0, 58, 0
2, 107034, Note_on_c, 0, 62, 0
2, 107051, Note_on_c, 0, 53, 91
2, 107054, Note_on_c, 0, 46, 84
2, 107115, Note_on_c, 0, 46, 0
2, 107141, Note_on_c, 0, 53, 0
2, 107151, Note_on_c, 0, 60, 94
2, 107164, Note_on_c, 0, 58, 85
2, 107242, Note_on_c, 0, 46, 94
2, 107258, Note_on_c, 0, 60, 0
2, 107320, Note_on_c, 0, 58, 0
2, 107326, Note_on_c, 0, 53, 94
2, 107327, Note_on_c, 0, 62, 97
2, 107327, Note_on_c, 0, 58, 90
2, 107416, Note_on_c, 0, 53, 0
2, 107416, Note_on_c, 0, 58, 0
2, 107418, Note_on_c, 0, 62, 0
2, 107435, Note_on_c, 0, 46, 0
2, 107490, Note_on_c, 0, 39, 96
2, 107493, Note_on_c, 0, 65, 102
2, 107498, Note_on_c, 0, 55, 102
2, 107499, Note_on_c, 0, 58, 97
2, 107512, Control_c, 0, 64, 127
2, 107587, Note_on_c, 0, 63, 97
2, 107677, Note_on_c, 0, 51, 90
2, 107750, Note_on_c, 0, 58, 0
2, 107750, Note_on_c, 0, 63, 0
2, 107755, Note_on_c, 0, 58, 83
2, 107757, Note_on_c, 0, 63, 96
2, 107846, Note_on_c, 0, 50, 102
2, 107848, Note_on_c, 0, 38, 98
2, 107924, Note_on_c, 0, 77, 97
2, 108021, Note_on_c, 0, 79, 99
2, 108105, Note_on_c, 0, 82, 100
2, 108134, Control_c, 0, 64, 0
2, 108140, Note_on_c, 0, 63, 0
2, 108142, Note_on_c, 0, 65, 0
2, 108142, Note_on_c, 0, 79, 0
2, 108143, Note_on_c, 0, 51, 0
2, 108143, Note_on_c, 0, 77, 0
2, 108143, Note_on_c, 0, 58, 0
2, 108143, Note_on_c, 0, 38, 0
2, 108144, Note_on_c, 0, 50, 0
2, 108147, Note_on_c, 0, 82, 0
2, 108165, Note_on_c, 0, 39, 0
2, 108165, Note_on_c, 0, 55, 0
2, 108203, Note_on_c, 0, 72, 107
2, 108204, Note_on_c, 0, 84, 105
2, 108205, Note_on_c, 0, 75, 101
2, 108209, Note_on_c, 0, 48, 108
2, 108212, Note_on_c, 0, 36, 100
2, 108249, Control_c, 0, 64, 127
2, 108372, Note_on_c, 0, 48, 0
2, 108379, Note_on_c, 0, 48, 91
2, 108461, Note_on_c, 0, 36, 0
2, 108465, Note_on_c, 0, 75, 0
2, 108466, Note_on_c, 0, 48, 0
2, 108467, Note_on_c, 0, 84, 0
2, 108467, Control_c, 0, 64, 0
2, 108467, Note_on_c, 0, 72, 0
2, 108484, Note_on_c, 0, 51, 87
2, 108484, Note_on_c, 0, 55, 95
2, 108519, Note_on_c, 0, 55, 0
2, 108523, Note_on_c, 0, 51, 0
2, 108561, Note_on_c, 0, 72, 100
2, 108561, Note_on_c, 0, 75, 106
2, 108562, Note_on_c, 0, 67, 99
2, 108648, Note_on_c, 0, 36, 93
2, 108672, Control_c, 0, 64, 127
2, 108679, Note_on_c, 0, 67, 0
2, 108747, Note_on_c, 0, 43, 100
2, 108786, Note_on_c, 0, 42, 77
2, 108817, Note_on_c, 0, 72, 0
2, 108822, Control_c, 0, 64, 0
2, 108827, Note_on_c, 0, 36, 0
2, 108828, Note_on_c, 0, 75, 0
2, 108829, Note_on_c, 0, 43, 0
2, 108848, Note_on_c, 0, 42, 0
2, 108921, Note_on_c, 0, 77, 104
2, 108922, Note_on_c, 0, 72, 98
2, 108923, Note_on_c, 0, 68, 102
2, 108926, Note_on_c, 0, 41, 101
2, 108927, Note_on_c, 0, 29, 102
2, 108927, Note_on_c, 0, 65, 98
2, 109017, Note_on_c, 0, 29, 0
2, 109061, Note_on_c, 0, 68, 0
2, 109086, Note_on_c, 0, 41, 0
2, 109093, Note_on_c, 0, 41, 96
2, 109094, Note_on_c, 0, 65, 0
2, 109186, Note_on_c, 0, 72, 0
2, 109196, Note_on_c, 0, 75, 99
2, 109197, Note_on_c, 0, 72, 88
2, 109197, Note_on_c, 0, 68, 100
2, 109197, Note_on_c, 0, 53, 100
2, 109199, Note_on_c, 0, 65, 92
2, 109224, Control_c, 0, 64, 127
2, 109355, Note_on_c, 0, 41, 0
2, 109363, Note_on_c, 0, 41, 97
2, 109452, Note_on_c, 0, 44, 85
2, 109478, Note_on_c, 0, 65, 0
2, 109478, Note_on_c, 0, 77, 0
2, 109483, Note_on_c, 0, 77, 106
2, 109489, Note_on_c, 0, 65, 100
2, 109493, Note_on_c, 0, 45, 88
2, 109561, Control_c, 0, 64, 0
2, 109567, Note_on_c, 0, 75, 0
2, 109567, Note_on_c, 0, 41, 0
2, 109569, Note_on_c, 0, 53, 0
2, 109569, Note_on_c, 0, 72, 0
2, 109570, Note_on_c, 0, 68, 0
2, 109571, Note_on_c, 0, 45, 0
2, 109571, Note_on_c, 0, 44, 0
2, 109650, Note_on_c, 0, 46, 105
2, 109650, Note_on_c, 0, 34, 99
2, 109670, Control_c, 0, 64, 127
2, 109816, Note_on_c, 0, 46, 0
2, 109816, Note_on_c, 0, 65, 0
2, 109816, Note_on_c, 0, 77, 0
2, 109822, Note_on_c, 0, 65, 96
2, 109824, Note_on_c, 0, 70, 99
2, 109825, Note_on_c, 0, 77, 97
2, 109827, Note_on_c, 0, 46, 88
2, 109863, Control_c, 0, 64, 0
2, 109868, Note_on_c, 0, 34, 0
2, 109871, Note_on_c, 0, 46, 0
2, 109874, Note_on_c, 0, 65, 0
2, 109881, Note_on_c, 0, 70, 0
2, 109911, Note_on_c, 0, 53, 96
2, 109912, Note_on_c, 0, 50, 83
2, 109931, Note_on_c, 0, 77, 0
2, 109943, Note_on_c, 0, 53, 0
2, 109944, Note_on_c, 0, 50, 0
2, 110002, Note_on_c, 0, 82, 105
2, 110003, Note_on_c, 0, 70, 100
2, 110046, Control_c, 0, 64, 127
2, 110066, Note_on_c, 0, 34, 85
2, 110066, Note_on_c, 0, 46, 83
2, 110154, Note_on_c, 0, 46, 0
2, 110164, Note_on_c, 0, 46, 95
2, 110170, Note_on_c, 0, 50, 79
2, 110193, Note_on_c, 0, 80, 104
2, 110196, Note_on_c, 0, 68, 105
2, 110274, Control_c, 0, 64, 0
2, 110278, Note_on_c, 0, 82, 0
2, 110280, Note_on_c, 0, 50, 0
2, 110280, Note_on_c, 0, 70, 0
2, 110281, Note_on_c, 0, 68, 0
2, 110282, Note_on_c, 0, 80, 0
2, 110292, Note_on_c, 0, 34, 0
2, 110300, Note_on_c, 0, 46, 0
2, 110352, Note_on_c, 0, 79, 104
2, 110358, Note_on_c, 0, 67, 98
2, 110358, Note_on_c, 0, 70, 94
2, 110365, Note_on_c, 0, 39, 89
2, 110365, Note_on_c, 0, 51, 91
2, 110384, Control_c, 0, 64, 127
2, 110423, Note_on_c, 0, 67, 0
2, 110438, Note_on_c, 0, 51, 0
2, 110444, Note_on_c, 0, 77, 96
2, 110448, Note_on_c, 0, 51, 77
2, 110449, Note_on_c, 0, 65, 97
2, 110449, Note_on_c, 0, 75, 74
2, 110484, Control_c, 0, 64, 0
2, 110499, Note_on_c, 0, 79, 0
2, 110501, Note_on_c, 0, 65, 0
2, 110502, Note_on_c, 0, 70, 0
2, 110503, Note_on_c, 0, 77, 0
2, 110507, Note_on_c, 0, 39, 0
2, 110515, Note_on_c, 0, 51, 0
2, 110520, Note_on_c, 0, 51, 91
2, 110522, Note_on_c, 0, 75, 0
2, 110592, Control_c, 0, 64, 127
2, 110613, Note_on_c, 0, 55, 86
2, 110615, Control_c, 0, 64, 0
2, 110625, Note_on_c, 0, 58, 92
2, 110630, Note_on_c, 0, 46, 73
2, 110634, Note_on_c, 0, 79, 105
2, 110637, Note_on_c, 0, 67, 101
2, 110639, Note_on_c, 0, 75, 90
2, 110641, Note_on_c, 0, 70, 95
2, 110784, Note_on_c, 0, 55, 0
2, 110791, Control_c, 0, 64, 127
2, 110799, Note_on_c, 0, 51, 0
2, 110802, Note_on_c, 0, 39, 89
2, 110809, Note_on_c, 0, 51, 81
2, 110890, Note_on_c, 0, 50, 98
2, 110893, Note_on_c, 0, 38, 90
2, 110965, Control_c, 0, 64, 0
2, 110968, Note_on_c, 0, 46, 0
2, 110969, Note_on_c, 0, 67, 0
2, 110969, Note_on_c, 0, 79, 0
2, 110970, Note_on_c, 0, 75, 0
2, 110970, Note_on_c, 0, 58, 0
2, 110970, Note_on_c, 0, 39, 0
2, 110970, Note_on_c, 0, 70, 0
2, 110971, Note_on_c, 0, 50, 0
2, 110971, Note_on_c, 0, 38, 0
2, 110971, Note_on_c, 0, 51, 0
2, 111078, Note_on_c, 0, 48, 105
2, 111079, Note_on_c, 0, 79, 104
2, 111081, Note_on_c, 0, 36, 98
2, 111082, Note_on_c, 0, 67, 99
2, 111085, Note_on_c, 0, 75, 98
2, 111085, Note_on_c, 0, 70, 98
2, 111106, Control_c, 0, 64, 127
2, 111244, Note_on_c, 0, 48, 0
2, 111253, Note_on_c, 0, 48, 88
2, 111264, Control_c, 0, 64, 0
2, 111301, Note_on_c, 0, 75, 0
2, 111302, Note_on_c, 0, 70, 0
2, 111303, Note_on_c, 0, 79, 0
2, 111313, Note_on_c, 0, 36, 0
2, 111313, Note_on_c, 0, 67, 0
2, 111316, Note_on_c, 0, 48, 0
2, 111347, Note_on_c, 0, 51, 81
2, 111349, Note_on_c, 0, 55, 82
2, 111381, Note_on_c, 0, 51, 0
2, 111388, Note_on_c, 0, 55, 0
2, 111424, Note_on_c, 0, 82, 107
2, 111425, Note_on_c, 0, 75, 97
2, 111425, Note_on_c, 0, 70, 99
2, 111427, Note_on_c, 0, 79, 96
2, 111475, Control_c, 0, 64, 127
2, 111517, Note_on_c, 0, 36, 91
2, 111608, Note_on_c, 0, 43, 94
2, 111657, Note_on_c, 0, 42, 87
2, 111694, Control_c, 0, 64, 0
2, 111704, Note_on_c, 0, 79, 0
2, 111706, Note_on_c, 0, 82, 0
2, 111707, Note_on_c, 0, 70, 0
2, 111707, Note_on_c, 0, 75, 0
2, 111712, Note_on_c, 0, 36, 0
2, 111715, Note_on_c, 0, 42, 0
2, 111718, Note_on_c, 0, 43, 0
2, 111794, Note_on_c, 0, 84, 107
2, 111796, Note_on_c, 0, 75, 100
2, 111798, Note_on_c, 0, 72, 105
2, 111799, Note_on_c, 0, 41, 101
2, 111799, Note_on_c, 0, 80, 99
2, 111801, Note_on_c, 0, 29, 99
2, 111805, Control_c, 0, 64, 127
2, 111966, Note_on_c, 0, 29, 0
2, 111966, Note_on_c, 0, 41, 0
2, 111969, Control_c, 0, 64, 0
2, 111970, Note_on_c, 0, 75, 0
2, 111971, Note_on_c, 0, 84, 0
2, 111971, Note_on_c, 0, 80, 0
2, 111973, Note_on_c, 0, 41, 91
2, 111982, Note_on_c, 0, 72, 0
2, 112067, Note_on_c, 0, 77, 99
2, 112067, Note_on_c, 0, 68, 103
2, 112069, Note_on_c, 0, 53, 95
2, 112069, Note_on_c, 0, 65, 97
2, 112097, Control_c, 0, 64, 127
2, 112212, Note_on_c, 0, 41, 0
2, 112223, Note_on_c, 0, 41, 102
2, 112340, Note_on_c, 0, 44, 99
2, 112343, Note_on_c, 0, 63, 100
2, 112344, Note_on_c, 0, 75, 101
2, 112390, Note_on_c, 0, 45, 65
2, 112423, Control_c, 0, 64, 0
2, 112430, Note_on_c, 0, 77, 0
2, 112430, Note_on_c, 0, 68, 0
2, 112431, Note_on_c, 0, 41, 0
2, 112431, Note_on_c, 0, 44, 0
2, 112432, Note_on_c, 0, 75, 0
2, 112432, Note_on_c, 0, 63, 0
2, 112433, Note_on_c, 0, 45, 0
2, 112435, Note_on_c, 0, 65, 0
2, 112442, Note_on_c, 0, 53, 0
2, 112539, Note_on_c, 0, 46, 103
2, 112540, Note_on_c, 0, 70, 106
2, 112540, Note_on_c, 0, 34, 97
2, 112540, Note_on_c, 0, 74, 105
2, 112541, Note_on_c, 0, 82, 106
2, 112565, Control_c, 0, 64, 127
2, 112711, Note_on_c, 0, 34, 0
2, 112711, Note_on_c, 0, 46, 0
2, 112711, Note_on_c, 0, 70, 0
2, 112711, Note_on_c, 0, 74, 0
2, 112711, Note_on_c, 0, 82, 0
2, 112719, Note_on_c, 0, 46, 94
2, 112720, Note_on_c, 0, 34, 91
2, 112721, Note_on_c, 0, 82, 102
2, 112721, Note_on_c, 0, 70, 102
2, 112723, Note_on_c, 0, 74, 92
2, 112755, Note_on_c, 0, 70, 0
2, 112761, Control_c, 0, 64, 0
2, 112764, Note_on_c, 0, 46, 0
2, 112766, Note_on_c, 0, 74, 0
2, 112767, Note_on_c, 0, 34, 0
2, 112769, Note_on_c, 0, 82, 0
2, 112886, Note_on_c, 0, 31, 85
2, 112887, Note_on_c, 0, 43, 87
2, 112894, Note_on_c, 0, 79, 101
2, 112898, Note_on_c, 0, 67, 94
2, 112917, Note_on_c, 0, 43, 0
2, 112921, Note_on_c, 0, 31, 0
2, 112928, Note_on_c, 0, 79, 0
2, 112942, Note_on_c, 0, 67, 0
2, 113067, Note_on_c, 0, 34, 94
2, 113068, Note_on_c, 0, 82, 105
2, 113068, Note_on_c, 0, 46, 91
2, 113069, Note_on_c, 0, 70, 103
2, 113093, Note_on_c, 0, 46, 0
2, 113105, Note_on_c, 0, 82, 0
2, 113118, Note_on_c, 0, 70, 0
2, 113126, Note_on_c, 0, 34, 0
2, 113249, Note_on_c, 0, 82, 105
2, 113251, Note_on_c, 0, 70, 100
2, 113252, Note_on_c, 0, 46, 95
2, 113252, Note_on_c, 0, 34, 89
2, 113280, Note_on_c, 0, 70, 0
2, 113281, Note_on_c, 0, 46, 0
2, 113283, Note_on_c, 0, 82, 0
2, 113284, Note_on_c, 0, 34, 0
2, 113518, Note_on_c, 0, 48, 101
2, 113518, Note_on_c, 0, 84, 106
2, 113520, Note_on_c, 0, 72, 109
2, 113521, Note_on_c, 0, 36, 94
2, 113521, Note_on_c, 0, 79, 95
2, 113522, Note_on_c, 0, 75, 98
2, 113694, Control_c, 0, 64, 127
2, 113828, Note_on_c, 0, 38, 74
2, 113830, Note_on_c, 0, 50, 65
2, 113840, Control_c, 0, 64, 0
2, 113939, Note_on_c, 0, 48, 0
2, 113939, Note_on_c, 0, 36, 0
2, 113940, Note_on_c, 0, 50, 0
2, 113941, Note_on_c, 0, 75, 0
2, 113941, Note_on_c, 0, 79, 0
2, 113941, Note_on_c, 0, 38, 0
2, 113943, Note_on_c, 0, 84, 0
2, 113943, Note_on_c, 0, 72, 0
2, 114030, Note_on_c, 0, 39, 67
2, 114031, Note_on_c, 0, 51, 72
2, 114178, Control_c, 0, 64, 127
2, 114220, Note_on_c, 0, 75, 60
2, 114305, Note_on_c, 0, 82, 71
2, 114396, Note_on_c, 0, 63, 73
2, 114399, Note_on_c, 0, 87, 71
2, 114401, Note_on_c, 0, 55, 65
2, 114493, Note_on_c, 0, 82, 0
2, 114497, Note_on_c, 0, 82, 66
2, 114562, Note_on_c, 0, 75, 0
2, 114567, Note_on_c, 0, 75, 65
2, 114573, Note_on_c, 0, 58, 74
2, 114654, Note_on_c, 0, 58, 0
2, 114654, Note_on_c, 0, 75, 0
2, 114661, Note_on_c, 0, 58, 85
2, 114664, Note_on_c, 0, 75, 52
2, 114677, Control_c, 0, 64, 0
2, 114762, Control_c, 0, 64, 127
2, 114923, Note_on_c, 0, 75, 0
2, 114934, Note_on_c, 0, 75, 63
2, 115015, Note_on_c, 0, 82, 0
2, 115019, Note_on_c, 0, 82, 74
2, 115107, Note_on_c, 0, 87, 0
2, 115116, Note_on_c, 0, 87, 78
2, 115207, Note_on_c, 0, 82, 0
2, 115212, Note_on_c, 0, 82, 69
2, 115276, Note_on_c, 0, 75, 0
2, 115284, Note_on_c, 0, 63, 0
2, 115287, Note_on_c, 0, 75, 71
2, 115288, Note_on_c, 0, 63, 73
2, 115430, Note_on_c, 0, 39, 0
2, 115435, Note_on_c, 0, 55, 0
2, 115435, Note_on_c, 0, 51, 0
2, 115435, Note_on_c, 0, 82, 0
2, 115435, Note_on_c, 0, 87, 0
2, 115436, Note_on_c, 0, 75, 0
2, 115441, Control_c, 0, 64, 0
2, 115461, Note_on_c, 0, 58, 0
2, 115461, Note_on_c, 0, 63, 0
2, 115465, Note_on_c, 0, 46, 77
2, 115465, Note_on_c, 0, 63, 82
2, 115466, Note_on_c, 0, 58, 73
2, 115514, Note_on_c, 0, 63, 0
2, 115607, Note_on_c, 0, 46, 0
2, 115614, Control_c, 0, 64, 127
2, 115648, Note_on_c, 0, 77, 65
2, 115750, Note_on_c, 0, 82, 71
2, 115755, Note_on_c, 0, 65, 75
2, 115850, Note_on_c, 0, 89, 74
2, 115929, Note_on_c, 0, 82, 0
2, 115939, Note_on_c, 0, 82, 68
2, 116014, Note_on_c, 0, 77, 0
2, 116018, Note_on_c, 0, 77, 65
2, 116021, Note_on_c, 0, 58, 0
2, 116025, Note_on_c, 0, 58, 79
2, 116190, Note_on_c, 0, 58, 0
2, 116201, Note_on_c, 0, 58, 83
2, 116375, Note_on_c, 0, 77, 0
2, 116381, Note_on_c, 0, 77, 55
2, 116451, Note_on_c, 0, 82, 0
2, 116463, Note_on_c, 0, 82, 82
2, 116544, Note_on_c, 0, 89, 0
2, 116551, Note_on_c, 0, 89, 83
2, 116636, Note_on_c, 0, 82, 0
2, 116643, Note_on_c, 0, 82, 82
2, 116751, Note_on_c, 0, 58, 0
2, 116751, Note_on_c, 0, 77, 0
2, 116755, Note_on_c, 0, 77, 62
2, 116762, Note_on_c, 0, 58, 76
2, 116873, Note_on_c, 0, 82, 0
2, 116873, Note_on_c, 0, 58, 0
2, 116875, Note_on_c, 0, 77, 0
2, 116875, Note_on_c, 0, 89, 0
2, 116876, Note_on_c, 0, 65, 0
2, 116877, Control_c, 0, 64, 0
2, 116932, Note_on_c, 0, 67, 79
2, 116939, Note_on_c, 0, 48, 66
2, 116941, Note_on_c, 0, 58, 74
2, 116947, Note_on_c, 0, 55, 64
2, 116981, Control_c, 0, 64, 127
2, 117105, Note_on_c, 0, 79, 67
2, 117205, Note_on_c, 0, 87, 87
2, 117208, Note_on_c, 0, 68, 89
2, 117301, Note_on_c, 0, 91, 83
2, 117388, Note_on_c, 0, 87, 0
2, 117398, Note_on_c, 0, 87, 77
2, 117488, Note_on_c, 0, 67, 0
2, 117488, Note_on_c, 0, 79, 0
2, 117494, Note_on_c, 0, 67, 84
2, 117494, Note_on_c, 0, 79, 74
2, 117640, Control_c, 0, 64, 0
2, 117658, Note_on_c, 0, 67, 0
2, 117659, Note_on_c, 0, 68, 0
2, 117659, Note_on_c, 0, 79, 0
2, 117660, Note_on_c, 0, 91, 0
2, 117660, Note_on_c, 0, 87, 0
2, 117661, Note_on_c, 0, 55, 0
2, 117662, Note_on_c, 0, 48, 0
2, 117668, Note_on_c, 0, 65, 90
2, 117672, Note_on_c, 0, 58, 0
2, 117679, Note_on_c, 0, 46, 80
2, 117683, Note_on_c, 0, 58, 79
2, 117685, Note_on_c, 0, 53, 65
2, 117757, Control_c, 0, 64, 127
2, 117826, Note_on_c, 0, 65, 0
2, 117831, Note_on_c, 0, 77, 73
2, 117835, Note_on_c, 0, 65, 64
2, 117952, Note_on_c, 0, 82, 78
2, 117953, Note_on_c, 0, 63, 87
2, 118056, Note_on_c, 0, 89, 86
2, 118141, Note_on_c, 0, 82, 0
2, 118152, Note_on_c, 0, 82, 79
2, 118225, Note_on_c, 0, 65, 0
2, 118225, Note_on_c, 0, 77, 0
2, 118235, Note_on_c, 0, 77, 76
2, 118236, Note_on_c, 0, 65, 88
2, 118381, Control_c, 0, 64, 0
2, 118398, Note_on_c, 0, 67, 84
2, 118402, Note_on_c, 0, 56, 87
2, 118404, Note_on_c, 0, 53, 0
2, 118404, Note_on_c, 0, 65, 0
2, 118405, Note_on_c, 0, 63, 0
2, 118405, Note_on_c, 0, 82, 0
2, 118406, Note_on_c, 0, 89, 0
2, 118406, Note_on_c, 0, 77, 0
2, 118406, Note_on_c, 0, 46, 0
2, 118407, Note_on_c, 0, 58, 0
2, 118407, Note_on_c, 0, 44, 82
2, 118408, Note_on_c, 0, 51, 75
2, 118560, Note_on_c, 0, 79, 67
2, 118586, Control_c, 0, 64, 127
2, 118660, Note_on_c, 0, 87, 75
2, 118666, Note_on_c, 0, 68, 83
2, 118768, Note_on_c, 0, 91, 80
2, 118855, Note_on_c, 0, 87, 0
2, 118864, Note_on_c, 0, 87, 74
2, 118955, Note_on_c, 0, 67, 0
2, 118955, Note_on_c, 0, 79, 0
2, 118962, Note_on_c, 0, 79, 69
2, 118965, Note_on_c, 0, 67, 76
2, 119147, Note_on_c, 0, 56, 0
2, 119151, Note_on_c, 0, 60, 72
2, 119152, Note_on_c, 0, 56, 74
2, 119331, Note_on_c, 0, 72, 72
2, 119400, Note_on_c, 0, 79, 0
2, 119411, Note_on_c, 0, 79, 69
2, 119508, Note_on_c, 0, 84, 77
2, 119600, Note_on_c, 0, 79, 0
2, 119611, Note_on_c, 0, 79, 63
2, 119662, Note_on_c, 0, 60, 0
2, 119669, Note_on_c, 0, 72, 0
2, 119671, Note_on_c, 0, 60, 64
2, 119677, Note_on_c, 0, 72, 67
2, 119761, Note_on_c, 0, 62, 72
2, 119833, Control_c, 0, 64, 0
2, 119836, Note_on_c, 0, 56, 0
2, 119836, Note_on_c, 0, 87, 0
2, 119837, Note_on_c, 0, 68, 0
2, 119837, Note_on_c, 0, 72, 0
2, 119838, Note_on_c, 0, 51, 0
2, 119838, Note_on_c, 0, 60, 0
2, 119838, Note_on_c, 0, 84, 0
2, 119838, Note_on_c, 0, 91, 0
2, 119839, Note_on_c, 0, 44, 0
2, 119840, Note_on_c, 0, 62, 0
2, 119854, Note_on_c, 0, 67, 0
2, 119857, Note_on_c, 0, 46, 84
2, 119857, Note_on_c, 0, 63, 79
2, 119859, Note_on_c, 0, 58, 78
2, 119861, Note_on_c, 0, 79, 0
2, 119938, Control_c, 0, 64, 127
2, 120018, Note_on_c, 0, 75, 60
2, 120122, Note_on_c, 0, 63, 0
2, 120131, Note_on_c, 0, 63, 73
2, 120133, Note_on_c, 0, 79, 71
2, 120243, Note_on_c, 0, 87, 84
2, 120399, Note_on_c, 0, 75, 0
2, 120404, Note_on_c, 0, 62, 82
2, 120410, Note_on_c, 0, 75, 52
2, 120606, Note_on_c, 0, 58, 0
2, 120606, Note_on_c, 0, 62, 0
2, 120610, Note_on_c, 0, 58, 78
2, 120611, Note_on_c, 0, 62, 80
2, 120791, Note_on_c, 0, 77, 70
2, 120890, Note_on_c, 0, 82, 70
2, 120975, Note_on_c, 0, 89, 78
2, 121044, Note_on_c, 0, 82, 0
2, 121052, Note_on_c, 0, 82, 77
2, 121136, Note_on_c, 0, 63, 0
2, 121146, Note_on_c, 0, 63, 91
2, 121225, Note_on_c, 0, 65, 84
2, 121293, Control_c, 0, 64, 0
2, 121294, Note_on_c, 0, 79, 0
2, 121294, Note_on_c, 0, 46, 0
2, 121296, Note_on_c, 0, 82, 0
2, 121296, Note_on_c, 0, 62, 0
2, 121298, Note_on_c, 0, 87, 0
2, 121300, Note_on_c, 0, 65, 0
2, 121300, Note_on_c, 0, 77, 0
2, 121301, Note_on_c, 0, 89, 0
2, 121301, Note_on_c, 0, 75, 0
2, 121319, Note_on_c, 0, 68, 94
2, 121320, Note_on_c, 0, 63, 0
2, 121328, Note_on_c, 0, 58, 0
2, 121332, Note_on_c, 0, 63, 79
2, 121333, Note_on_c, 0, 51, 74
2, 121337, Note_on_c, 0, 58, 76
2, 121413, Control_c, 0, 64, 127
2, 121477, Note_on_c, 0, 79, 76
2, 121585, Note_on_c, 0, 87, 82
2, 121593, Note_on_c, 0, 67, 91
2, 121683, Note_on_c, 0, 91, 83
2, 121766, Note_on_c, 0, 87, 0
2, 121771, Note_on_c, 0, 87, 74
2, 121835, Note_on_c, 0, 79, 0
2, 121845, Note_on_c, 0, 79, 58
2, 121875, Note_on_c, 0, 65, 84
2, 122058, Note_on_c, 0, 63, 0
2, 122061, Control_c, 0, 64, 0
2, 122062, Note_on_c, 0, 87, 0
2, 122062, Note_on_c, 0, 68, 0
2, 122063, Note_on_c, 0, 58, 0
2, 122063, Note_on_c, 0, 65, 0
2, 122064, Note_on_c, 0, 91, 0
2, 122064, Note_on_c, 0, 51, 0
2, 122064, Note_on_c, 0, 79, 0
2, 122065, Note_on_c, 0, 67, 0
2, 122067, Note_on_c, 0, 63, 87
2, 122068, Note_on_c, 0, 55, 70
2, 122068, Note_on_c, 0, 48, 80
2, 122165, Control_c, 0, 64, 127
2, 122249, Note_on_c, 0, 75, 67
2, 122352, Note_on_c, 0, 79, 64
2, 122427, Note_on_c, 0, 87, 86
2, 122503, Note_on_c, 0, 79, 0
2, 122512, Note_on_c, 0, 79, 66
2, 122595, Note_on_c, 0, 75, 0
2, 122600, Note_on_c, 0, 75, 74
2, 122602, Note_on_c, 0, 67, 87
2, 122777, Control_c, 0, 64, 0
2, 122780, Note_on_c, 0, 67, 0
2, 122781, Note_on_c, 0, 55, 0
2, 122783, Note_on_c, 0, 48, 0
2, 122783, Note_on_c, 0, 87, 0
2, 122783, Note_on_c, 0, 79, 0
2, 122783, Note_on_c, 0, 63, 0
2, 122783, Note_on_c, 0, 75, 0
2, 122789, Note_on_c, 0, 67, 87
2, 122789, Note_on_c, 0, 60, 82
2, 122793, Note_on_c, 0, 50, 77
2, 122794, Note_on_c, 0, 57, 73
2, 122903, Control_c, 0, 64, 127
2, 122965, Note_on_c, 0, 77, 61
2, 123060, Note_on_c, 0, 84, 82
2, 123065, Note_on_c, 0, 65, 81
2, 123156, Note_on_c, 0, 89, 77
2, 123202, Note_on_c, 0, 67, 0
2, 123240, Note_on_c, 0, 84, 0
2, 123245, Note_on_c, 0, 84, 70
2, 123344, Note_on_c, 0, 64, 80
2, 123517, Note_on_c, 0, 65, 0
2, 123528, Note_on_c, 0, 65, 85
2, 123715, Note_on_c, 0, 72, 74
2, 123809, Note_on_c, 0, 77, 0
2, 123813, Note_on_c, 0, 77, 58
2, 123878, Note_on_c, 0, 60, 0
2, 123886, Note_on_c, 0, 84, 0
2, 123888, Note_on_c, 0, 60, 87
2, 123890, Note_on_c, 0, 84, 78
2, 123978, Note_on_c, 0, 77, 0
2, 123988, Note_on_c, 0, 77, 63
2, 124062, Note_on_c, 0, 72, 0
2, 124068, Note_on_c, 0, 72, 75
2, 124244, Note_on_c, 0, 64, 0
2, 124244, Note_on_c, 0, 77, 0
2, 124245, Note_on_c, 0, 84, 0
2, 124245, Note_on_c, 0, 89, 0
2, 124245, Note_on_c, 0, 65, 0
2, 124246, Note_on_c, 0, 72, 0
2, 124248, Note_on_c, 0, 57, 0
2, 124250, Control_c, 0, 64, 0
2, 124254, Note_on_c, 0, 50, 0
2, 124254, Note_on_c, 0, 60, 0
2, 124257, Note_on_c, 0, 55, 80
2, 124257, Note_on_c, 0, 43, 79
2, 124258, Note_on_c, 0, 50, 73
2, 124262, Note_on_c, 0, 60, 84
2, 124354, Control_c, 0, 64, 127
2, 124362, Note_on_c, 0, 50, 0
2, 124392, Control_c, 0, 64, 0
2, 124456, Note_on_c, 0, 72, 74
2, 124477, Control_c, 0, 64, 127
2, 124539, Note_on_c, 0, 77, 68
2, 124632, Note_on_c, 0, 84, 71
2, 124707, Note_on_c, 0, 77, 0
2, 124713, Note_on_c, 0, 77, 51
2, 124713, Note_on_c, 0, 76, 48
2, 124784, Note_on_c, 0, 72, 0
2, 124794, Note_on_c, 0, 72, 67
2, 124802, Note_on_c, 0, 62, 76
2, 124999, Note_on_c, 0, 55, 0
2, 124999, Note_on_c, 0, 62, 0
2, 125010, Note_on_c, 0, 62, 88
2, 125010, Note_on_c, 0, 55, 68
2, 125010, Note_on_c, 0, 59, 73
2, 125017, Note_on_c, 0, 74, 71
2, 125191, Note_on_c, 0, 74, 0
2, 125200, Note_on_c, 0, 74, 58
2, 125298, Note_on_c, 0, 79, 51
2, 125379, Note_on_c, 0, 86, 68
2, 125738, Note_on_c, 0, 39, 67
2, 125744, Note_on_c, 0, 76, 0
2, 125747, Note_on_c, 0, 86, 0
2, 125748, Note_on_c, 0, 59, 0
2, 125748, Note_on_c, 0, 84, 0
2, 125748, Note_on_c, 0, 62, 0
2, 125748, Note_on_c, 0, 74, 0
2, 125748, Note_on_c, 0, 77, 0
2, 125748, Note_on_c, 0, 72, 0
2, 125748, Note_on_c, 0, 60, 0
2, 125749, Note_on_c, 0, 55, 0
2, 125749, Note_on_c, 0, 43, 0
2, 125749, Note_on_c, 0, 79, 0
2, 125752, Control_c, 0, 64, 0
2, 125928, Control_c, 0, 64, 127
2, 125932, Note_on_c, 0, 46, 64
2, 126112, Note_on_c, 0, 51, 59
2, 126117, Note_on_c, 0, 75, 80
2, 126308, Note_on_c, 0, 70, 83
2, 126310, Note_on_c, 0, 55, 64
2, 126382, Note_on_c, 0, 70, 0
2, 126391, Note_on_c, 0, 70, 87
2, 126658, Note_on_c, 0, 51, 0
2, 126665, Note_on_c, 0, 51, 63
2, 126835, Note_on_c, 0, 55, 0
2, 126844, Note_on_c, 0, 55, 64
2, 126846, Note_on_c, 0, 63, 70
2, 126861, Note_on_c, 0, 58, 72
2, 127004, Note_on_c, 0, 75, 0
2, 127013, Note_on_c, 0, 75, 80
2, 127196, Note_on_c, 0, 46, 0
2, 127196, Note_on_c, 0, 75, 0
2, 127201, Note_on_c, 0, 46, 81
2, 127201, Note_on_c, 0, 75, 88
2, 127241, Control_c, 0, 64, 0
2, 127245, Note_on_c, 0, 58, 0
2, 127245, Note_on_c, 0, 63, 0
2, 127245, Note_on_c, 0, 39, 0
2, 127245, Note_on_c, 0, 55, 0
2, 127245, Note_on_c, 0, 70, 0
2, 127257, Note_on_c, 0, 51, 0
2, 127393, Note_on_c, 0, 53, 69
2, 127411, Note_on_c, 0, 46, 0
2, 127491, Note_on_c, 0, 77, 96
2, 127495, Control_c, 0, 64, 127
2, 127583, Note_on_c, 0, 58, 74
2, 127749, Note_on_c, 0, 70, 92
2, 127772, Note_on_c, 0, 60, 71
2, 127933, Note_on_c, 0, 70, 0
2, 127944, Note_on_c, 0, 70, 96
2, 127945, Note_on_c, 0, 62, 84
2, 128122, Note_on_c, 0, 63, 94
2, 128307, Note_on_c, 0, 65, 93
2, 128478, Note_on_c, 0, 58, 0
2, 128478, Note_on_c, 0, 70, 0
2, 128489, Note_on_c, 0, 58, 85
2, 128489, Note_on_c, 0, 70, 99
2, 128673, Control_c, 0, 64, 0
2, 128674, Note_on_c, 0, 79, 92
2, 128675, Note_on_c, 0, 63, 0
2, 128675, Note_on_c, 0, 62, 0
2, 128676, Note_on_c, 0, 65, 0
2, 128676, Note_on_c, 0, 58, 0
2, 128676, Note_on_c, 0, 77, 0
2, 128676, Note_on_c, 0, 53, 0
2, 128677, Note_on_c, 0, 70, 0
2, 128678, Note_on_c, 0, 60, 0
2, 128678, Note_on_c, 0, 75, 0
2, 128681, Note_on_c, 0, 72, 82
2, 128682, Note_on_c, 0, 60, 69
2, 128688, Note_on_c, 0, 75, 74
2, 128816, Control_c, 0, 64, 127
2, 128873, Note_on_c, 0, 67, 74
2, 128943, Note_on_c, 0, 80, 93
2, 129047, Note_on_c, 0, 72, 0
2, 129057, Note_on_c, 0, 72, 98
2, 129208, Note_on_c, 0, 79, 0
2, 129212, Note_on_c, 0, 79, 88
2, 129407, Note_on_c, 0, 77, 90
2, 129412, Note_on_c, 0, 58, 78
2, 129417, Note_on_c, 0, 74, 86
2, 129438, Note_on_c, 0, 72, 0
2, 129438, Note_on_c, 0, 80, 0
2, 129439, Note_on_c, 0, 75, 0
2, 129440, Note_on_c, 0, 67, 0
2, 129440, Note_on_c, 0, 60, 0
2, 129442, Note_on_c, 0, 79, 0
2, 129443, Control_c, 0, 64, 0
2, 129553, Control_c, 0, 64, 127
2, 129589, Note_on_c, 0, 65, 71
2, 129693, Note_on_c, 0, 75, 81
2, 129796, Note_on_c, 0, 70, 96
2, 129953, Note_on_c, 0, 77, 0
2, 129957, Note_on_c, 0, 77, 86
2, 130155, Note_on_c, 0, 79, 88
2, 130156, Note_on_c, 0, 56, 73
2, 130163, Note_on_c, 0, 72, 72
2, 130174, Control_c, 0, 64, 0
2, 130175, Note_on_c, 0, 74, 0
2, 130176, Note_on_c, 0, 75, 0
2, 130177, Note_on_c, 0, 58, 0
2, 130177, Note_on_c, 0, 65, 0
2, 130177, Note_on_c, 0, 70, 0
2, 130178, Note_on_c, 0, 77, 0
2, 130321, Control_c, 0, 64, 127
2, 130328, Note_on_c, 0, 63, 64
2, 130435, Note_on_c, 0, 80, 86
2, 130538, Note_on_c, 0, 68, 90
2, 130705, Note_on_c, 0, 79, 0
2, 130712, Note_on_c, 0, 79, 80
2, 130899, Note_on_c, 0, 67, 75
2, 130913, Note_on_c, 0, 72, 0
2, 130918, Note_on_c, 0, 72, 68
2, 131258, Note_on_c, 0, 63, 0
2, 131270, Note_on_c, 0, 63, 63
2, 131466, Note_on_c, 0, 72, 0
2, 131475, Note_on_c, 0, 72, 68
2, 131544, Note_on_c, 0, 74, 79
2, 131633, Note_on_c, 0, 75, 76
2, 131635, Note_on_c, 0, 72, 0
2, 131639, Note_on_c, 0, 72, 72
2, 131650, Note_on_c, 0, 68, 0
2, 131655, Note_on_c, 0, 68, 59
2, 131796, Note_on_c, 0, 56, 0
2, 131807, Note_on_c, 0, 56, 70
2, 131911, Note_on_c, 0, 75, 0
2, 131917, Note_on_c, 0, 75, 86
2, 132002, Note_on_c, 0, 60, 76
2, 132165, Note_on_c, 0, 74, 0
2, 132172, Note_on_c, 0, 63, 0
2, 132175, Note_on_c, 0, 74, 92
2, 132176, Note_on_c, 0, 63, 82
2, 132364, Note_on_c, 0, 74, 0
2, 132369, Note_on_c, 0, 74, 90
2, 132370, Note_on_c, 0, 65, 74
2, 132374, Note_on_c, 0, 58, 72
2, 132376, Note_on_c, 0, 56, 0
2, 132376, Note_on_c, 0, 67, 0
2, 132376, Note_on_c, 0, 79, 0
2, 132377, Note_on_c, 0, 80, 0
2, 132377, Note_on_c, 0, 72, 0
2, 132377, Note_on_c, 0, 68, 0
2, 132378, Note_on_c, 0, 75, 0
2, 132379, Note_on_c, 0, 60, 0
2, 132379, Note_on_c, 0, 63, 0
2, 132382, Control_c, 0, 64, 0
2, 132487, Control_c, 0, 64, 127
2, 132564, Note_on_c, 0, 63, 66
2, 132733, Note_on_c, 0, 62, 77
2, 132908, Note_on_c, 0, 75, 62
2, 132984, Note_on_c, 0, 77, 78
2, 133090, Note_on_c, 0, 80, 88
2, 133096, Note_on_c, 0, 70, 60
2, 133109, Note_on_c, 0, 74, 0
2, 133115, Note_on_c, 0, 74, 65
2, 133163, Control_c, 0, 64, 0
2, 133237, Note_on_c, 0, 62, 0
2, 133238, Note_on_c, 0, 58, 0
2, 133239, Note_on_c, 0, 77, 0
2, 133248, Control_c, 0, 64, 127
2, 133263, Note_on_c, 0, 65, 0
2, 133265, Note_on_c, 0, 55, 76
2, 133271, Note_on_c, 0, 63, 0
2, 133367, Note_on_c, 0, 79, 89
2, 133386, Note_on_c, 0, 75, 0
2, 133464, Note_on_c, 0, 62, 87
2, 133629, Note_on_c, 0, 65, 88
2, 133635, Note_on_c, 0, 77, 90
2, 133800, Note_on_c, 0, 70, 0
2, 133813, Control_c, 0, 64, 0
2, 133815, Note_on_c, 0, 55, 0
2, 133818, Note_on_c, 0, 75, 86
2, 133819, Note_on_c, 0, 67, 84
2, 133819, Note_on_c, 0, 62, 0
2, 133820, Note_on_c, 0, 79, 0
2, 133820, Note_on_c, 0, 80, 0
2, 133820, Note_on_c, 0, 72, 80
2, 133820, Note_on_c, 0, 77, 0
2, 133822, Note_on_c, 0, 65, 0
2, 133827, Note_on_c, 0, 60, 72
2, 133831, Note_on_c, 0, 74, 0
2, 134004, Note_on_c, 0, 65, 72
2, 134189, Note_on_c, 0, 63, 77
2, 134238, Control_c, 0, 64, 127
2, 134358, Note_on_c, 0, 79, 84
2, 134530, Note_on_c, 0, 79, 0
2, 134541, Note_on_c, 0, 79, 98
2, 134716, Note_on_c, 0, 62, 80
2, 134733, Note_on_c, 0, 63, 0
2, 134743, Control_c, 0, 64, 0
2, 134768, Control_c, 0, 64, 127
2, 134784, Note_on_c, 0, 65, 0
2, 134832, Note_on_c, 0, 77, 93
2, 134901, Note_on_c, 0, 65, 80
2, 135061, Note_on_c, 0, 68, 79
2, 135090, Note_on_c, 0, 76, 90
2, 135260, Note_on_c, 0, 72, 0
2, 135260, Note_on_c, 0, 77, 0
2, 135265, Note_on_c, 0, 77, 94
2, 135269, Note_on_c, 0, 72, 94
2, 135522, Note_on_c, 0, 80, 67
2, 135573, Note_on_c, 0, 82, 98
2, 135651, Note_on_c, 0, 62, 0
2, 135659, Note_on_c, 0, 62, 69
2, 135828, Note_on_c, 0, 75, 0
2, 135836, Note_on_c, 0, 80, 0
2, 135842, Note_on_c, 0, 80, 91
2, 136020, Note_on_c, 0, 79, 0
2, 136024, Note_on_c, 0, 79, 92
2, 136037, Note_on_c, 0, 55, 65
2, 136040, Note_on_c, 0, 74, 73
2, 136040, Note_on_c, 0, 71, 66
2, 136047, Note_on_c, 0, 82, 0
2, 136047, Note_on_c, 0, 62, 0
2, 136048, Note_on_c, 0, 68, 0
2, 136048, Note_on_c, 0, 72, 0
2, 136048, Note_on_c, 0, 80, 0
2, 136048, Note_on_c, 0, 65, 0
2, 136049, Note_on_c, 0, 76, 0
2, 136049, Note_on_c, 0, 77, 0
2, 136051, Note_on_c, 0, 60, 0
2, 136053, Control_c, 0, 64, 0
2, 136058, Note_on_c, 0, 67, 0
2, 136158, Control_c, 0, 64, 127
2, 136196, Note_on_c, 0, 62, 55
2, 136394, Note_on_c, 0, 69, 66
2, 136573, Note_on_c, 0, 62, 0
2, 136577, Note_on_c, 0, 62, 58
2, 136742, Note_on_c, 0, 71, 0
2, 136746, Note_on_c, 0, 71, 81
2, 136772, Note_on_c, 0, 67, 55
2, 136949, Note_on_c, 0, 62, 0
2, 136954, Note_on_c, 0, 62, 57
2, 137126, Note_on_c, 0, 74, 0
2, 137130, Note_on_c, 0, 74, 76
2, 137295, Note_on_c, 0, 55, 0
2, 137301, Note_on_c, 0, 55, 55
2, 137495, Note_on_c, 0, 79, 0
2, 137497, Note_on_c, 0, 55, 0
2, 137497, Note_on_c, 0, 69, 0
2, 137498, Note_on_c, 0, 62, 0
2, 137498, Note_on_c, 0, 67, 0
2, 137498, Note_on_c, 0, 71, 0
2, 137499, Note_on_c, 0, 56, 67
2, 137499, Note_on_c, 0, 74, 0
2, 137499, Note_on_c, 0, 87, 87
2, 137501, Note_on_c, 0, 79, 72
2, 137513, Control_c, 0, 64, 0
2, 137541, Control_c, 0, 64, 127
2, 137601, Note_on_c, 0, 63, 68
2, 137694, Note_on_c, 0, 67, 67
2, 137756, Note_on_c, 0, 87, 0
2, 137765, Note_on_c, 0, 87, 88
2, 137771, Note_on_c, 0, 68, 77
2, 137871, Note_on_c, 0, 70, 70
2, 137948, Note_on_c, 0, 72, 69
2, 138043, Note_on_c, 0, 74, 90
2, 138046, Note_on_c, 0, 86, 87
2, 138124, Note_on_c, 0, 68, 0
2, 138135, Note_on_c, 0, 68, 80
2, 138232, Note_on_c, 0, 79, 0
2, 138232, Note_on_c, 0, 87, 0
2, 138234, Note_on_c, 0, 75, 89
2, 138236, Note_on_c, 0, 87, 97
2, 138240, Note_on_c, 0, 79, 72
2, 138332, Note_on_c, 0, 74, 0
2, 138337, Note_on_c, 0, 74, 85
2, 138416, Note_on_c, 0, 72, 0
2, 138422, Note_on_c, 0, 72, 74
2, 138478, Note_on_c, 0, 70, 0
2, 138487, Note_on_c, 0, 70, 78
2, 138516, Note_on_c, 0, 87, 0
2, 138523, Note_on_c, 0, 87, 96
2, 138577, Note_on_c, 0, 68, 0
2, 138584, Note_on_c, 0, 68, 84
2, 138670, Note_on_c, 0, 67, 0
2, 138680, Note_on_c, 0, 67, 78
2, 138772, Note_on_c, 0, 65, 69
2, 138792, Note_on_c, 0, 86, 0
2, 138803, Note_on_c, 0, 86, 89
2, 138854, Note_on_c, 0, 63, 0
2, 138858, Note_on_c, 0, 63, 78
2, 138956, Note_on_c, 0, 56, 0
2, 138956, Note_on_c, 0, 68, 0
2, 138957, Note_on_c, 0, 79, 0
2, 138957, Note_on_c, 0, 87, 0
2, 138957, Note_on_c, 0, 74, 0
2, 138957, Note_on_c, 0, 65, 0
2, 138957, Note_on_c, 0, 70, 0
2, 138957, Note_on_c, 0, 75, 0
2, 138957, Note_on_c, 0, 63, 0
2, 138957, Note_on_c, 0, 72, 0
2, 138957, Note_on_c, 0, 67, 0
2, 138961, Control_c, 0, 64, 0
2, 138963, Note_on_c, 0, 55, 80
2, 138973, Note_on_c, 0, 89, 91
2, 138977, Note_on_c, 0, 86, 0
2, 138981, Note_on_c, 0, 86, 84
2, 138984, Note_on_c, 0, 82, 82
2, 139008, Control_c, 0, 64, 127
2, 139066, Note_on_c, 0, 62, 81
2, 139135, Note_on_c, 0, 65, 78
2, 139215, Note_on_c, 0, 89, 0
2, 139225, Note_on_c, 0, 89, 93
2, 139228, Note_on_c, 0, 67, 80
2, 139339, Note_on_c, 0, 70, 85
2, 139426, Note_on_c, 0, 74, 78
2, 139510, Note_on_c, 0, 77, 86
2, 139510, Note_on_c, 0, 87, 94
2, 139576, Note_on_c, 0, 70, 0
2, 139584, Note_on_c, 0, 70, 77
2, 139682, Note_on_c, 0, 60, 80
2, 139683, Note_on_c, 0, 86, 0
2, 139688, Note_on_c, 0, 86, 97
2, 139688, Note_on_c, 0, 55, 0
2, 139690, Note_on_c, 0, 87, 0
2, 139693, Note_on_c, 0, 70, 0
2, 139693, Note_on_c, 0, 65, 0
2, 139693, Note_on_c, 0, 67, 0
2, 139694, Note_on_c, 0, 62, 0
2, 139694, Note_on_c, 0, 77, 0
2, 139695, Note_on_c, 0, 89, 0
2, 139699, Note_on_c, 0, 82, 0
2, 139705, Note_on_c, 0, 82, 83
2, 139710, Control_c, 0, 64, 0
2, 139737, Control_c, 0, 64, 127
2, 139776, Note_on_c, 0, 67, 72
2, 139887, Note_on_c, 0, 70, 81
2, 139961, Note_on_c, 0, 72, 86
2, 139962, Note_on_c, 0, 84, 93
2, 139983, Note_on_c, 0, 74, 0
2, 140053, Note_on_c, 0, 74, 83
2, 140128, Note_on_c, 0, 75, 77
2, 140229, Note_on_c, 0, 86, 0
2, 140235, Note_on_c, 0, 86, 96
2, 140238, Note_on_c, 0, 79, 86
2, 140267, Note_on_c, 0, 72, 0
2, 140276, Note_on_c, 0, 72, 72
2, 140416, Control_c, 0, 64, 0
2, 140417, Note_on_c, 0, 53, 82
2, 140418, Note_on_c, 0, 87, 94
2, 140418, Note_on_c, 0, 82, 0
2, 140418, Note_on_c, 0, 70, 0
2, 140420, Note_on_c, 0, 75, 0
2, 140420, Note_on_c, 0, 74, 0
2, 140420, Note_on_c, 0, 72, 0
2, 140420, Note_on_c, 0, 67, 0
2, 140421, Note_on_c, 0, 84, 0
2, 140422, Note_on_c, 0, 86, 0
2, 140423, Note_on_c, 0, 79, 0
2, 140424, Note_on_c, 0, 60, 0
2, 140425, Note_on_c, 0, 80, 84
2, 140425, Note_on_c, 0, 84, 86
2, 140482, Control_c, 0, 64, 127
2, 140522, Note_on_c, 0, 60, 46
2, 140615, Note_on_c, 0, 63, 71
2, 140674, Note_on_c, 0, 87, 0
2, 140685, Note_on_c, 0, 87, 98
2, 140703, Note_on_c, 0, 67, 74
2, 140800, Note_on_c, 0, 68, 82
2, 140885, Note_on_c, 0, 72, 76
2, 140962, Note_on_c, 0, 75, 78
2, 140963, Note_on_c, 0, 86, 92
2, 141043, Note_on_c, 0, 68, 0
2, 141048, Note_on_c, 0, 68, 65
2, 141133, Control_c, 0, 64, 0
2, 141135, Note_on_c, 0, 75, 0
2, 141135, Note_on_c, 0, 86, 0
2, 141135, Note_on_c, 0, 67, 0
2, 141135, Note_on_c, 0, 68, 0
2, 141135, Note_on_c, 0, 80, 0
2, 141135, Note_on_c, 0, 60, 0
2, 141136, Note_on_c, 0, 87, 0
2, 141136, Note_on_c, 0, 63, 0
2, 141137, Note_on_c, 0, 84, 0
2, 141137, Note_on_c, 0, 72, 0
2, 141143, Note_on_c, 0, 53, 0
2, 141143, Note_on_c, 0, 58, 82
2, 141145, Note_on_c, 0, 89, 93
2, 141145, Note_on_c, 0, 86, 90
2, 141152, Note_on_c, 0, 82, 83
2, 141204, Control_c, 0, 64, 127
2, 141237, Note_on_c, 0, 65, 66
2, 141324, Note_on_c, 0, 70, 82
2, 141411, Note_on_c, 0, 86, 0
2, 141415, Note_on_c, 0, 72, 82
2, 141416, Note_on_c, 0, 86, 100
2, 141496, Note_on_c, 0, 74, 88
2, 141579, Note_on_c, 0, 75, 77
2, 141660, Note_on_c, 0, 77, 80
2, 141661, Note_on_c, 0, 84, 76
2, 141749, Note_on_c, 0, 70, 0
2, 141753, Note_on_c, 0, 70, 74
2, 141851, Control_c, 0, 64, 0
2, 141853, Note_on_c, 0, 70, 0
2, 141853, Note_on_c, 0, 86, 0
2, 141853, Note_on_c, 0, 74, 0
2, 141853, Note_on_c, 0, 75, 0
2, 141853, Note_on_c, 0, 65, 0
2, 141853, Note_on_c, 0, 84, 0
2, 141853, Note_on_c, 0, 58, 0
2, 141854, Note_on_c, 0, 72, 0
2, 141854, Note_on_c, 0, 77, 0
2, 141857, Note_on_c, 0, 82, 0
2, 141864, Note_on_c, 0, 89, 0
2, 141866, Note_on_c, 0, 51, 70
2, 141867, Note_on_c, 0, 82, 97
2, 141870, Note_on_c, 0, 79, 74
2, 141934, Control_c, 0, 64, 127
2, 141966, Note_on_c, 0, 58, 75
2, 142052, Note_on_c, 0, 63, 74
2, 142139, Note_on_c, 0, 65, 65
2, 142222, Note_on_c, 0, 67, 88
2, 142224, Note_on_c, 0, 75, 84
2, 142333, Note_on_c, 0, 73, 72
2, 142415, Note_on_c, 0, 72, 66
2, 142492, Note_on_c, 0, 70, 73
2, 142576, Note_on_c, 0, 68, 91
2, 142656, Note_on_c, 0, 67, 0
2, 142667, Note_on_c, 0, 67, 80
2, 142740, Note_on_c, 0, 65, 0
2, 142750, Note_on_c, 0, 65, 69
2, 142832, Note_on_c, 0, 63, 0
2, 142842, Note_on_c, 0, 63, 71
2, 142924, Note_on_c, 0, 70, 0
2, 142930, Note_on_c, 0, 61, 76
2, 142933, Note_on_c, 0, 70, 86
2, 143022, Note_on_c, 0, 60, 66
2, 143093, Note_on_c, 0, 58, 0
2, 143103, Note_on_c, 0, 58, 81
2, 143259, Control_c, 0, 64, 0
2, 143260, Note_on_c, 0, 63, 0
2, 143260, Note_on_c, 0, 61, 0
2, 143261, Note_on_c, 0, 65, 0
2, 143261, Note_on_c, 0, 60, 0
2, 143261, Note_on_c, 0, 73, 0
2, 143261, Note_on_c, 0, 72, 0
2, 143261, Note_on_c, 0, 75, 0
2, 143261, Note_on_c, 0, 68, 0
2, 143262, Note_on_c, 0, 58, 0
2, 143262, Note_on_c, 0, 79, 0
2, 143262, Note_on_c, 0, 82, 0
2, 143264, Note_on_c, 0, 70, 0
2, 143264, Note_on_c, 0, 51, 0
2, 143278, Note_on_c, 0, 67, 0
2, 143305, Note_on_c, 0, 44, 77
2, 143306, Note_on_c, 0, 75, 82
2, 143309, Note_on_c, 0, 72, 78
2, 143347, Control_c, 0, 64, 127
2, 143403, Note_on_c, 0, 51, 56
2, 143463, Note_on_c, 0, 56, 75
2, 143562, Note_on_c, 0, 75, 0
2, 143569, Note_on_c, 0, 51, 0
2, 143569, Note_on_c, 0, 72, 0
2, 143573, Note_on_c, 0, 75, 78
2, 143577, Note_on_c, 0, 72, 72
2, 143581, Note_on_c, 0, 51, 68
2, 143665, Note_on_c, 0, 60, 86
2, 143754, Note_on_c, 0, 56, 0
2, 143763, Note_on_c, 0, 56, 73
2, 143831, Note_on_c, 0, 51, 0
2, 143841, Note_on_c, 0, 74, 86
2, 143841, Note_on_c, 0, 51, 67
2, 143915, Note_on_c, 0, 56, 0
2, 143924, Note_on_c, 0, 56, 77
2, 144030, Note_on_c, 0, 44, 0
2, 144030, Note_on_c, 0, 75, 0
2, 144033, Control_c, 0, 64, 0
2, 144034, Note_on_c, 0, 60, 0
2, 144035, Note_on_c, 0, 74, 0
2, 144035, Note_on_c, 0, 56, 0
2, 144035, Note_on_c, 0, 44, 83
2, 144038, Note_on_c, 0, 72, 0
2, 144040, Note_on_c, 0, 75, 88
2, 144043, Note_on_c, 0, 72, 81
2, 144053, Note_on_c, 0, 51, 0
2, 144099, Control_c, 0, 64, 127
2, 144117, Note_on_c, 0, 51, 69
2, 144211, Note_on_c, 0, 56, 85
2, 144307, Note_on_c, 0, 51, 0
2, 144311, Note_on_c, 0, 51, 80
2, 144314, Note_on_c, 0, 75, 0
2, 144319, Note_on_c, 0, 75, 84
2, 144322, Note_on_c, 0, 72, 0
2, 144333, Note_on_c, 0, 72, 73
2, 144403, Note_on_c, 0, 60, 92
2, 144491, Note_on_c, 0, 56, 0
2, 144496, Note_on_c, 0, 56, 73
2, 144552, Note_on_c, 0, 51, 0
2, 144559, Note_on_c, 0, 51, 74
2, 144571, Note_on_c, 0, 74, 82
2, 144629, Note_on_c, 0, 56, 0
2, 144639, Note_on_c, 0, 56, 79
2, 144740, Note_on_c, 0, 43, 84
2, 144747, Note_on_c, 0, 77, 96
2, 144752, Note_on_c, 0, 74, 0
2, 144756, Note_on_c, 0, 70, 87
2, 144756, Note_on_c, 0, 74, 89
2, 144768, Note_on_c, 0, 72, 0
2, 144769, Note_on_c, 0, 56, 0
2, 144770, Note_on_c, 0, 75, 0
2, 144770, Note_on_c, 0, 51, 0
2, 144770, Note_on_c, 0, 44, 0
2, 144770, Note_on_c, 0, 60, 0
2, 144772, Control_c, 0, 64, 0
2, 144841, Note_on_c, 0, 43, 0
2, 144842, Note_on_c, 0, 50, 68
2, 144867, Control_c, 0, 64, 127
2, 144943, Note_on_c, 0, 53, 76
2, 145006, Note_on_c, 0, 77, 0
2, 145015, Note_on_c, 0, 77, 92
2, 145021, Note_on_c, 0, 50, 0
2, 145028, Note_on_c, 0, 50, 76
2, 145123, Note_on_c, 0, 58, 95
2, 145205, Note_on_c, 0, 53, 0
2, 145212, Note_on_c, 0, 53, 75
2, 145282, Note_on_c, 0, 50, 0
2, 145292, Note_on_c, 0, 50, 68
2, 145294, Note_on_c, 0, 75, 89
2, 145297, Note_on_c, 0, 70, 0
2, 145304, Note_on_c, 0, 70, 66
2, 145374, Note_on_c, 0, 53, 0
2, 145382, Note_on_c, 0, 53, 82
2, 145474, Control_c, 0, 64, 0
2, 145474, Note_on_c, 0, 74, 0
2, 145476, Note_on_c, 0, 48, 87
2, 145478, Note_on_c, 0, 53, 0
2, 145478, Note_on_c, 0, 75, 0
2, 145478, Note_on_c, 0, 58, 0
2, 145478, Note_on_c, 0, 77, 0
2, 145482, Note_on_c, 0, 70, 0
2, 145485, Note_on_c, 0, 74, 101
2, 145486, Note_on_c, 0, 70, 89
2, 145489, Note_on_c, 0, 50, 0
2, 145551, Control_c, 0, 64, 127
2, 145562, Note_on_c, 0, 51, 79
2, 145655, Note_on_c, 0, 55, 86
2, 145730, Note_on_c, 0, 75, 96
2, 145743, Note_on_c, 0, 51, 0
2, 145753, Note_on_c, 0, 51, 85
2, 145832, Note_on_c, 0, 60, 96
2, 145920, Note_on_c, 0, 55, 0
2, 145924, Note_on_c, 0, 55, 80
2, 146006, Note_on_c, 0, 77, 95
2, 146012, Note_on_c, 0, 51, 0
2, 146020, Note_on_c, 0, 51, 75
2, 146081, Note_on_c, 0, 55, 0
2, 146087, Note_on_c, 0, 55, 90
2, 146166, Note_on_c, 0, 48, 0
2, 146168, Note_on_c, 0, 74, 0
2, 146168, Note_on_c, 0, 51, 0
2, 146168, Note_on_c, 0, 60, 0
2, 146168, Note_on_c, 0, 70, 0
2, 146169, Control_c, 0, 64, 0
2, 146169, Note_on_c, 0, 55, 0
2, 146169, Note_on_c, 0, 77, 0
2, 146187, Note_on_c, 0, 50, 87
2, 146188, Note_on_c, 0, 75, 0
2, 146192, Note_on_c, 0, 79, 100
2, 146197, Note_on_c, 0, 75, 84
2, 146197, Note_on_c, 0, 72, 99
2, 146229, Note_on_c, 0, 50, 0
2, 146273, Control_c, 0, 64, 127
2, 146284, Note_on_c, 0, 56, 78
2, 146351, Note_on_c, 0, 60, 91
2, 146449, Note_on_c, 0, 56, 0
2, 146458, Note_on_c, 0, 56, 97
2, 146465, Note_on_c, 0, 80, 102
2, 146573, Note_on_c, 0, 65, 100
2, 146659, Note_on_c, 0, 64, 96
2, 146741, Note_on_c, 0, 79, 0
2, 146752, Note_on_c, 0, 63, 94
2, 146752, Note_on_c, 0, 79, 97
2, 146837, Note_on_c, 0, 62, 94
2, 146930, Note_on_c, 0, 77, 100
2, 146939, Note_on_c, 0, 61, 91
2, 147018, Note_on_c, 0, 60, 0
2, 147024, Note_on_c, 0, 60, 87
2, 147116, Note_on_c, 0, 59, 89
2, 147186, Note_on_c, 0, 58, 95
2, 147210, Note_on_c, 0, 75, 0
2, 147215, Note_on_c, 0, 75, 98
2, 147280, Note_on_c, 0, 57, 96
2, 147371, Note_on_c, 0, 56, 0
2, 147379, Note_on_c, 0, 56, 78
2, 147448, Note_on_c, 0, 77, 0
2, 147457, Note_on_c, 0, 77, 96
2, 147480, Note_on_c, 0, 55, 80
2, 147545, Note_on_c, 0, 54, 80
2, 147622, Note_on_c, 0, 63, 0
2, 147622, Note_on_c, 0, 80, 0
2, 147622, Note_on_c, 0, 75, 0
2, 147623, Note_on_c, 0, 64, 0
2, 147623, Note_on_c, 0, 62, 0
2, 147623, Note_on_c, 0, 60, 0
2, 147623, Note_on_c, 0, 72, 0
2, 147624, Note_on_c, 0, 65, 0
2, 147624, Note_on_c, 0, 59, 0
2, 147624, Note_on_c, 0, 61, 0
2, 147625, Note_on_c, 0, 57, 0
2, 147626, Note_on_c, 0, 56, 0
2, 147626, Note_on_c, 0, 77, 0
2, 147626, Note_on_c, 0, 54, 0
2, 147626, Note_on_c, 0, 58, 0
2, 147629, Control_c, 0, 64, 0
2, 147640, Note_on_c, 0, 55, 0
2, 147640, Note_on_c, 0, 79, 0
2, 147645, Note_on_c, 0, 55, 102
2, 147646, Note_on_c, 0, 43, 95
2, 147648, Note_on_c, 0, 79, 98
2, 147651, Note_on_c, 0, 74, 96
2, 147651, Note_on_c, 0, 71, 93
2, 147732, Control_c, 0, 64, 127
2, 147829, Note_on_c, 0, 50, 82
2, 147935, Note_on_c, 0, 53, 88
2, 148001, Note_on_c, 0, 55, 0
2, 148010, Note_on_c, 0, 55, 95
2, 148013, Note_on_c, 0, 69, 101
2, 148101, Note_on_c, 0, 50, 0
2, 148110, Note_on_c, 0, 50, 78
2, 148154, Note_on_c, 0, 53, 0
2, 148163, Note_on_c, 0, 53, 86
2, 148247, Note_on_c, 0, 55, 0
2, 148258, Note_on_c, 0, 55, 95
2, 148362, Note_on_c, 0, 71, 0
2, 148362, Note_on_c, 0, 59, 105
2, 148372, Note_on_c, 0, 71, 102
2, 148378, Note_on_c, 0, 67, 100
2, 148398, Control_c, 0, 64, 0
2, 148427, Note_on_c, 0, 69, 0
2, 148427, Note_on_c, 0, 79, 0
2, 148427, Note_on_c, 0, 43, 0
2, 148427, Note_on_c, 0, 74, 0
2, 148427, Note_on_c, 0, 71, 0
2, 148428, Note_on_c, 0, 50, 0
2, 148432, Note_on_c, 0, 67, 0
2, 148433, Note_on_c, 0, 53, 0
2, 148434, Note_on_c, 0, 59, 0
2, 148446, Note_on_c, 0, 55, 0
2, 148549, Note_on_c, 0, 55, 93
2, 148633, Note_on_c, 0, 72, 108
2, 148636, Note_on_c, 0, 69, 97
2, 148638, Note_on_c, 0, 67, 99
2, 148642, Note_on_c, 0, 57, 106
2, 148646, Note_on_c, 0, 60, 97
2, 148650, Note_on_c, 0, 55, 0
2, 148654, Control_c, 0, 64, 127
2, 148739, Note_on_c, 0, 69, 0
2, 148740, Note_on_c, 0, 60, 0
2, 148741, Control_c, 0, 64, 0
2, 148741, Note_on_c, 0, 57, 0
2, 148745, Note_on_c, 0, 67, 0
2, 148749, Note_on_c, 0, 72, 0
2, 148810, Note_on_c, 0, 55, 96
2, 148915, Note_on_c, 0, 59, 99
2, 148918, Note_on_c, 0, 74, 106
2, 148918, Note_on_c, 0, 62, 100
2, 148920, Note_on_c, 0, 67, 99
2, 148922, Note_on_c, 0, 71, 91
2, 148938, Control_c, 0, 64, 127
2, 148961, Note_on_c, 0, 59, 0
2, 148965, Note_on_c, 0, 71, 0
2, 148966, Note_on_c, 0, 55, 0
2, 148968, Note_on_c, 0, 62, 0
2, 148970, Note_on_c, 0, 67, 0
2, 148973, Control_c, 0, 64, 0
2, 148988, Note_on_c, 0, 74, 0
2, 149097, Note_on_c, 0, 72, 108
2, 149100, Note_on_c, 0, 63, 101
2, 149101, Note_on_c, 0, 67, 99
2, 149102, Note_on_c, 0, 60, 101
2, 149130, Control_c, 0, 64, 127
2, 149286, Control_c, 0, 64, 0
2, 149291, Note_on_c, 0, 72, 0
2, 149296, Note_on_c, 0, 63, 0
2, 149306, Note_on_c, 0, 60, 0
2, 149314, Note_on_c, 0, 67, 0
2, 149460, Note_on_c, 0, 75, 105
2, 149463, Note_on_c, 0, 63, 100
2, 149463, Note_on_c, 0, 72, 103
2, 149466, Note_on_c, 0, 67, 93
2, 149468, Note_on_c, 0, 75, 0
2, 149491, Control_c, 0, 64, 127
2, 149492, Note_on_c, 0, 103, 100
2, 149497, Note_on_c, 0, 101, 90
2, 149510, Note_on_c, 0, 100, 78
2, 149534, Note_on_c, 0, 98, 81
2, 149535, Note_on_c, 0, 96, 87
2, 149547, Note_on_c, 0, 95, 79
2, 149555, Note_on_c, 0, 93, 82
2, 149563, Note_on_c, 0, 88, 92
2, 149567, Note_on_c, 0, 89, 92
2, 149570, Note_on_c, 0, 86, 99
2, 149580, Note_on_c, 0, 84, 98
2, 149586, Note_on_c, 0, 81, 99
2, 149586, Note_on_c, 0, 79, 101
2, 149589, Note_on_c, 0, 83, 99
2, 149609, Note_on_c, 0, 76, 96
2, 149613, Note_on_c, 0, 77, 91
2, 149617, Note_on_c, 0, 74, 99
2, 149618, Note_on_c, 0, 70, 75
2, 149621, Note_on_c, 0, 72, 0
2, 149624, Note_on_c, 0, 71, 80
2, 149625, Note_on_c, 0, 69, 81
2, 149625, Note_on_c, 0, 72, 80
2, 149629, Note_on_c, 0, 70, 0
2, 149720, Control_c, 0, 64, 0
2, 149726, Note_on_c, 0, 67, 0
2, 149726, Note_on_c, 0, 74, 0
2, 149726, Note_on_c, 0, 86, 0
2, 149727, Note_on_c, 0, 84, 0
2, 149727, Note_on_c, 0, 72, 0
2, 149727, Note_on_c, 0, 98, 0
2, 149727, Note_on_c, 0, 95, 0
2, 149727, Note_on_c, 0, 63, 0
2, 149727, Note_on_c, 0, 100, 0
2, 149727, Note_on_c, 0, 93, 0
2, 149727, Note_on_c, 0, 69, 0
2, 149727, Note_on_c, 0, 101, 0
2, 149727, Note_on_c, 0, 81, 0
2, 149727, Note_on_c, 0, 83, 0
2, 149728, Note_on_c, 0, 76, 0
2, 149728, Note_on_c, 0, 71, 0
2, 149728, Note_on_c, 0, 88, 0
2, 149728, Note_on_c, 0, 96, 0
2, 149729, Note_on_c, 0, 77, 0
2, 149730, Note_on_c, 0, 79, 0
2, 149731, Note_on_c, 0, 89, 0
2, 149736, Note_on_c, 0, 103, 0
2, 149823, Note_on_c, 0, 77, 103
2, 149824, Note_on_c, 0, 68, 106
2, 149824, Note_on_c, 0, 41, 106
2, 149825, Note_on_c, 0, 65, 100
2, 149825, Note_on_c, 0, 29, 99
2, 149828, Note_on_c, 0, 72, 80
2, 149867, Control_c, 0, 64, 127
2, 149990, Note_on_c, 0, 41, 0
2, 149995, Note_on_c, 0, 41, 90
2, 150097, Note_on_c, 0, 65, 0
2, 150097, Note_on_c, 0, 68, 0
2, 150102, Note_on_c, 0, 53, 97
2, 150103, Note_on_c, 0, 75, 102
2, 150105, Note_on_c, 0, 68, 102
2, 150107, Note_on_c, 0, 65, 96
2, 150124, Control_c, 0, 64, 0
2, 150148, Note_on_c, 0, 41, 0
2, 150148, Note_on_c, 0, 77, 0
2, 150149, Note_on_c, 0, 65, 0
2, 150150, Note_on_c, 0, 68, 0
2, 150151, Note_on_c, 0, 29, 0
2, 150152, Note_on_c, 0, 53, 0
2, 150174, Note_on_c, 0, 72, 0
2, 150228, Note_on_c, 0, 75, 0
2, 150243, Note_on_c, 0, 41, 99
2, 150305, Control_c, 0, 64, 127
2, 150331, Note_on_c, 0, 44, 85
2, 150372, Note_on_c, 0, 77, 102
2, 150373, Note_on_c, 0, 68, 105
2, 150379, Note_on_c, 0, 45, 96
2, 150379, Note_on_c, 0, 65, 98
2, 150460, Control_c, 0, 64, 0
2, 150464, Note_on_c, 0, 41, 0
2, 150465, Note_on_c, 0, 44, 0
2, 150466, Note_on_c, 0, 45, 0
2, 150546, Note_on_c, 0, 46, 107
2, 150546, Note_on_c, 0, 34, 101
2, 150720, Note_on_c, 0, 65, 0
2, 150720, Note_on_c, 0, 77, 0
2, 150725, Note_on_c, 0, 77, 101
2, 150725, Note_on_c, 0, 65, 102
2, 150728, Note_on_c, 0, 70, 96
2, 150730, Note_on_c, 0, 74, 98
2, 150766, Control_c, 0, 64, 127
2, 150810, Note_on_c, 0, 50, 96
2, 150812, Note_on_c, 0, 53, 96
2, 150855, Control_c, 0, 64, 0
2, 150869, Note_on_c, 0, 74, 0
2, 150869, Note_on_c, 0, 50, 0
2, 150869, Note_on_c, 0, 46, 0
2, 150869, Note_on_c, 0, 77, 0
2, 150869, Note_on_c, 0, 65, 0
2, 150870, Note_on_c, 0, 53, 0
2, 150873, Note_on_c, 0, 68, 0
2, 150888, Note_on_c, 0, 34, 0
2, 150904, Note_on_c, 0, 70, 0
2, 150908, Note_on_c, 0, 82, 102
2, 150909, Note_on_c, 0, 70, 96
2, 150947, Note_on_c, 0, 70, 0
2, 150960, Note_on_c, 0, 34, 84
2, 151027, Note_on_c, 0, 82, 0
2, 151058, Note_on_c, 0, 46, 99
2, 151073, Control_c, 0, 64, 127
2, 151084, Note_on_c, 0, 80, 102
2, 151091, Note_on_c, 0, 68, 106
2, 151147, Control_c, 0, 64, 0
2, 151151, Note_on_c, 0, 34, 0
2, 151158, Note_on_c, 0, 46, 0
2, 151158, Note_on_c, 0, 80, 0
2, 151160, Note_on_c, 0, 68, 0
2, 151242, Note_on_c, 0, 79, 105
2, 151248, Note_on_c, 0, 67, 99
2, 151251, Note_on_c, 0, 70, 95
2, 151251, Note_on_c, 0, 39, 89
2, 151251, Note_on_c, 0, 51, 97
2, 151288, Control_c, 0, 64, 127
2, 151319, Note_on_c, 0, 51, 0
2, 151326, Note_on_c, 0, 46, 50
2, 151329, Note_on_c, 0, 51, 66
2, 151330, Note_on_c, 0, 77, 95
2, 151331, Note_on_c, 0, 65, 100
2, 151333, Note_on_c, 0, 75, 69
2, 151411, Note_on_c, 0, 46, 0
2, 151411, Note_on_c, 0, 51, 0
2, 151413, Control_c, 0, 64, 0
2, 151414, Note_on_c, 0, 79, 0
2, 151415, Note_on_c, 0, 65, 0
2, 151416, Note_on_c, 0, 77, 0
2, 151418, Note_on_c, 0, 67, 0
2, 151420, Note_on_c, 0, 51, 88
2, 151421, Note_on_c, 0, 46, 68
2, 151426, Note_on_c, 0, 70, 0
2, 151434, Note_on_c, 0, 39, 0
2, 151434, Note_on_c, 0, 75, 0
2, 151472, Note_on_c, 0, 46, 0
2, 151480, Note_on_c, 0, 51, 0
2, 151497, Note_on_c, 0, 55, 93
2, 151499, Note_on_c, 0, 43, 75
2, 151506, Note_on_c, 0, 58, 89
2, 151531, Note_on_c, 0, 63, 72
2, 151538, Note_on_c, 0, 79, 104
2, 151539, Note_on_c, 0, 70, 96
2, 151539, Note_on_c, 0, 75, 90
2, 151541, Note_on_c, 0, 63, 0
2, 151542, Note_on_c, 0, 67, 102
2, 151546, Note_on_c, 0, 55, 0
2, 151549, Note_on_c, 0, 43, 0
2, 151555, Note_on_c, 0, 58, 0
2, 151587, Control_c, 0, 64, 127
2, 151704, Note_on_c, 0, 39, 85
2, 151706, Note_on_c, 0, 51, 86
2, 151786, Note_on_c, 0, 50, 103
2, 151791, Note_on_c, 0, 38, 85
2, 151814, Control_c, 0, 64, 0
2, 151822, Note_on_c, 0, 39, 0
2, 151823, Note_on_c, 0, 51, 0
2, 151823, Note_on_c, 0, 75, 0
2, 151823, Note_on_c, 0, 67, 0
2, 151823, Note_on_c, 0, 70, 0
2, 151824, Note_on_c, 0, 79, 0
2, 151829, Note_on_c, 0, 50, 0
2, 151831, Note_on_c, 0, 38, 0
2, 151982, Note_on_c, 0, 48, 103
2, 151983, Note_on_c, 0, 79, 106
2, 151984, Note_on_c, 0, 36, 92
2, 151984, Note_on_c, 0, 67, 99
2, 151985, Note_on_c, 0, 70, 97
2, 151988, Note_on_c, 0, 75, 93
2, 152017, Control_c, 0, 64, 127
2, 152163, Note_on_c, 0, 48, 0
2, 152167, Note_on_c, 0, 48, 89
2, 152252, Note_on_c, 0, 51, 89
2, 152255, Control_c, 0, 64, 0
2, 152255, Note_on_c, 0, 55, 94
2, 152263, Note_on_c, 0, 70, 0
2, 152268, Note_on_c, 0, 79, 0
2, 152274, Note_on_c, 0, 67, 0
2, 152274, Note_on_c, 0, 48, 0
2, 152276, Note_on_c, 0, 75, 0
2, 152286, Note_on_c, 0, 36, 0
2, 152290, Note_on_c, 0, 55, 0
2, 152291, Note_on_c, 0, 51, 0
2, 152343, Note_on_c, 0, 82, 106
2, 152343, Note_on_c, 0, 70, 105
2, 152344, Note_on_c, 0, 79, 97
2, 152344, Note_on_c, 0, 75, 97
2, 152401, Control_c, 0, 64, 127
2, 152416, Note_on_c, 0, 36, 94
2, 152512, Note_on_c, 0, 43, 96
2, 152582, Note_on_c, 0, 42, 91
2, 152619, Note_on_c, 0, 82, 0
2, 152620, Note_on_c, 0, 79, 0
2, 152620, Note_on_c, 0, 70, 0
2, 152620, Note_on_c, 0, 42, 0
2, 152620, Note_on_c, 0, 75, 0
2, 152620, Note_on_c, 0, 36, 0
2, 152622, Note_on_c, 0, 43, 0
2, 152622, Control_c, 0, 64, 0
2, 152706, Note_on_c, 0, 84, 106
2, 152709, Note_on_c, 0, 75, 102
2, 152710, Note_on_c, 0, 72, 105
2, 152710, Note_on_c, 0, 41, 99
2, 152711, Note_on_c, 0, 80, 98
2, 152712, Note_on_c, 0, 29, 100
2, 152747, Control_c, 0, 64, 127
2, 152870, Note_on_c, 0, 41, 0
2, 152876, Note_on_c, 0, 41, 89
2, 152929, Note_on_c, 0, 80, 0
2, 152934, Note_on_c, 0, 84, 0
2, 152983, Note_on_c, 0, 53, 99
2, 152983, Note_on_c, 0, 77, 100
2, 152984, Note_on_c, 0, 68, 103
2, 152987, Note_on_c, 0, 65, 99
2, 152997, Control_c, 0, 64, 0
2, 153024, Note_on_c, 0, 29, 0
2, 153026, Note_on_c, 0, 41, 0
2, 153031, Note_on_c, 0, 75, 0
2, 153054, Note_on_c, 0, 72, 0
2, 153093, Note_on_c, 0, 53, 0
2, 153141, Note_on_c, 0, 41, 100
2, 153146, Control_c, 0, 64, 127
2, 153217, Note_on_c, 0, 44, 85
2, 153271, Note_on_c, 0, 45, 96
2, 153271, Note_on_c, 0, 75, 101
2, 153349, Control_c, 0, 64, 0
2, 153351, Note_on_c, 0, 77, 0
2, 153353, Note_on_c, 0, 68, 0
2, 153354, Note_on_c, 0, 65, 0
2, 153354, Note_on_c, 0, 44, 0
2, 153355, Note_on_c, 0, 41, 0
2, 153357, Note_on_c, 0, 45, 0
2, 153357, Note_on_c, 0, 75, 0
2, 153432, Note_on_c, 0, 46, 104
2, 153433, Note_on_c, 0, 34, 100
2, 153461, Control_c, 0, 64, 127
2, 153607, Note_on_c, 0, 46, 0
2, 153609, Note_on_c, 0, 74, 105
2, 153613, Note_on_c, 0, 46, 87
2, 153615, Note_on_c, 0, 70, 92
2, 153615, Note_on_c, 0, 65, 94
2, 153689, Note_on_c, 0, 53, 95
2, 153689, Note_on_c, 0, 50, 90
2, 153742, Control_c, 0, 64, 0
2, 153756, Note_on_c, 0, 34, 0
2, 153758, Note_on_c, 0, 46, 0
2, 153758, Note_on_c, 0, 65, 0
2, 153759, Note_on_c, 0, 50, 0
2, 153760, Note_on_c, 0, 53, 0
2, 153760, Note_on_c, 0, 74, 0
2, 153764, Note_on_c, 0, 70, 0
2, 153788, Note_on_c, 0, 72, 101
2, 153876, Note_on_c, 0, 34, 95
2, 153887, Note_on_c, 0, 72, 0
2, 153914, Control_c, 0, 64, 127
2, 153968, Note_on_c, 0, 34, 0
2, 153972, Note_on_c, 0, 46, 97
2, 153973, Note_on_c, 0, 74, 106
2, 153973, Note_on_c, 0, 65, 92
2, 153974, Note_on_c, 0, 34, 86
2, 153977, Note_on_c, 0, 70, 87
2, 153984, Note_on_c, 0, 70, 0
2, 154037, Note_on_c, 0, 65, 0
2, 154040, Note_on_c, 0, 34, 0
2, 154041, Note_on_c, 0, 74, 0
2, 154042, Note_on_c, 0, 46, 0
2, 154043, Control_c, 0, 64, 0
2, 154141, Note_on_c, 0, 39, 95
2, 154141, Note_on_c, 0, 77, 105
2, 154143, Note_on_c, 0, 67, 106
2, 154144, Note_on_c, 0, 70, 99
2, 154176, Control_c, 0, 64, 127
2, 154218, Note_on_c, 0, 75, 94
2, 154306, Note_on_c, 0, 51, 90
2, 154391, Note_on_c, 0, 67, 0
2, 154391, Note_on_c, 0, 70, 0
2, 154391, Note_on_c, 0, 75, 0
2, 154397, Note_on_c, 0, 67, 99
2, 154400, Note_on_c, 0, 70, 94
2, 154401, Note_on_c, 0, 75, 104
2, 154496, Note_on_c, 0, 50, 96
2, 154498, Note_on_c, 0, 38, 96
2, 154583, Note_on_c, 0, 77, 0
2, 154590, Note_on_c, 0, 89, 107
2, 154591, Note_on_c, 0, 77, 98
2, 154669, Note_on_c, 0, 79, 104
2, 154670, Note_on_c, 0, 91, 110
2, 154757, Note_on_c, 0, 94, 110
2, 154760, Note_on_c, 0, 82, 97
2, 154806, Control_c, 0, 64, 0
2, 154816, Note_on_c, 0, 51, 0
2, 154816, Note_on_c, 0, 75, 0
2, 154816, Note_on_c, 0, 79, 0
2, 154816, Note_on_c, 0, 38, 0
2, 154816, Note_on_c, 0, 77, 0
2, 154816, Note_on_c, 0, 50, 0
2, 154817, Note_on_c, 0, 70, 0
2, 154817, Note_on_c, 0, 89, 0
2, 154817, Note_on_c, 0, 82, 0
2, 154818, Note_on_c, 0, 91, 0
2, 154818, Note_on_c, 0, 94, 0
2, 154828, Note_on_c, 0, 39, 0
2, 154836, Note_on_c, 0, 67, 0
2, 154845, Note_on_c, 0, 48, 103
2, 154851, Note_on_c, 0, 36, 92
2, 154853, Note_on_c, 0, 96, 109
2, 154856, Note_on_c, 0, 84, 104
2, 154856, Note_on_c, 0, 87, 100
2, 154874, Control_c, 0, 64, 127
2, 155005, Note_on_c, 0, 48, 0
2, 155010, Note_on_c, 0, 48, 97
2, 155090, Note_on_c, 0, 51, 91
2, 155091, Note_on_c, 0, 55, 93
2, 155092, Note_on_c, 0, 96, 0
2, 155100, Note_on_c, 0, 87, 0
2, 155100, Control_c, 0, 64, 0
2, 155101, Note_on_c, 0, 84, 0
2, 155102, Note_on_c, 0, 48, 0
2, 155102, Note_on_c, 0, 36, 0
2, 155117, Note_on_c, 0, 55, 0
2, 155126, Note_on_c, 0, 51, 0
2, 155201, Note_on_c, 0, 75, 108
2, 155201, Note_on_c, 0, 72, 104
2, 155201, Note_on_c, 0, 67, 99
2, 155228, Control_c, 0, 64, 127
2, 155285, Note_on_c, 0, 36, 95
2, 155378, Note_on_c, 0, 43, 98
2, 155425, Note_on_c, 0, 42, 96
2, 155447, Note_on_c, 0, 67, 0
2, 155452, Note_on_c, 0, 36, 0
2, 155455, Note_on_c, 0, 72, 0
2, 155455, Note_on_c, 0, 43, 0
2, 155455, Control_c, 0, 64, 0
2, 155458, Note_on_c, 0, 75, 0
2, 155479, Note_on_c, 0, 42, 0
2, 155560, Note_on_c, 0, 77, 106
2, 155564, Note_on_c, 0, 68, 102
2, 155564, Note_on_c, 0, 72, 97
2, 155565, Note_on_c, 0, 65, 99
2, 155569, Note_on_c, 0, 41, 99
2, 155574, Note_on_c, 0, 29, 96
2, 155589, Control_c, 0, 64, 127
2, 155727, Note_on_c, 0, 41, 0
2, 155731, Note_on_c, 0, 41, 93
2, 155841, Note_on_c, 0, 53, 99
2, 155842, Note_on_c, 0, 65, 0
2, 155842, Note_on_c, 0, 68, 0
2, 155845, Note_on_c, 0, 75, 102
2, 155846, Note_on_c, 0, 68, 96
2, 155847, Note_on_c, 0, 65, 94
2, 156003, Note_on_c, 0, 41, 0
2, 156010, Note_on_c, 0, 41, 95
2, 156111, Note_on_c, 0, 77, 0
2, 156114, Note_on_c, 0, 44, 93
2, 156120, Note_on_c, 0, 77, 98
2, 156122, Note_on_c, 0, 69, 82
2, 156157, Note_on_c, 0, 65, 0
2, 156165, Note_on_c, 0, 45, 80
2, 156166, Note_on_c, 0, 65, 67
2, 156228, Note_on_c, 0, 65, 0
2, 156230, Note_on_c, 0, 75, 0
2, 156230, Note_on_c, 0, 44, 0
2, 156230, Note_on_c, 0, 41, 0
2, 156230, Note_on_c, 0, 68, 0
2, 156231, Note_on_c, 0, 53, 0
2, 156233, Note_on_c, 0, 45, 0
2, 156233, Control_c, 0, 64, 0
2, 156234, Note_on_c, 0, 29, 0
2, 156241, Note_on_c, 0, 72, 0
2, 156300, Note_on_c, 0, 34, 95
2, 156300, Note_on_c, 0, 46, 102
2, 156341, Note_on_c, 0, 69, 0
2, 156372, Control_c, 0, 64, 127
2, 156395, Note_on_c, 0, 77, 0
2, 156464, Note_on_c, 0, 34, 0
2, 156464, Note_on_c, 0, 46, 0
2, 156474, Note_on_c, 0, 74, 98
2, 156475, Note_on_c, 0, 46, 89
2, 156475, Note_on_c, 0, 77, 100
2, 156475, Note_on_c, 0, 65, 101
2, 156475, Note_on_c, 0, 70, 97
2, 156475, Note_on_c, 0, 34, 81
2, 156559, Note_on_c, 0, 53, 94
2, 156560, Note_on_c, 0, 50, 92
2, 156574, Control_c, 0, 64, 0
2, 156575, Note_on_c, 0, 34, 0
2, 156585, Note_on_c, 0, 70, 0
2, 156586, Note_on_c, 0, 74, 0
2, 156588, Note_on_c, 0, 77, 0
2, 156589, Note_on_c, 0, 65, 0
2, 156590, Note_on_c, 0, 46, 0
2, 156600, Note_on_c, 0, 53, 0
2, 156650, Note_on_c, 0, 82, 104
2, 156651, Note_on_c, 0, 70, 98
2, 156664, Note_on_c, 0, 50, 0
2, 156676, Note_on_c, 0, 70, 0
2, 156691, Note_on_c, 0, 82, 0
2, 156745, Note_on_c, 0, 34, 72
2, 156839, Note_on_c, 0, 80, 105
2, 156842, Note_on_c, 0, 46, 91
2, 156845, Note_on_c, 0, 68, 102
2, 156848, Control_c, 0, 64, 127
2, 156871, Note_on_c, 0, 34, 0
2, 156890, Note_on_c, 0, 50, 79
2, 156966, Control_c, 0, 64, 0
2, 156969, Note_on_c, 0, 68, 0
2, 156969, Note_on_c, 0, 80, 0
2, 156976, Note_on_c, 0, 50, 0
2, 156976, Note_on_c, 0, 46, 0
2, 157016, Note_on_c, 0, 79, 101
2, 157018, Note_on_c, 0, 70, 99
2, 157020, Note_on_c, 0, 75, 94
2, 157020, Note_on_c, 0, 39, 92
2, 157021, Note_on_c, 0, 51, 97
2, 157021, Note_on_c, 0, 67, 94
2, 157040, Control_c, 0, 64, 127
2, 157091, Note_on_c, 0, 77, 85
2, 157097, Note_on_c, 0, 65, 86
2, 157109, Note_on_c, 0, 67, 0
2, 157119, Control_c, 0, 64, 0
2, 157178, Note_on_c, 0, 75, 0
2, 157178, Note_on_c, 0, 39, 0
2, 157178, Note_on_c, 0, 70, 0
2, 157183, Note_on_c, 0, 65, 0
2, 157186, Note_on_c, 0, 51, 0
2, 157192, Note_on_c, 0, 77, 0
2, 157194, Note_on_c, 0, 79, 0
2, 157195, Note_on_c, 0, 51, 89
2, 157273, Note_on_c, 0, 51, 0
2, 157282, Note_on_c, 0, 55, 90
2, 157285, Note_on_c, 0, 58, 93
2, 157293, Note_on_c, 0, 79, 104
2, 157298, Note_on_c, 0, 67, 102
2, 157299, Note_on_c, 0, 70, 92
2, 157305, Note_on_c, 0, 75, 89
2, 157317, Control_c, 0, 64, 127
2, 157463, Note_on_c, 0, 39, 87
2, 157467, Note_on_c, 0, 51, 82
2, 157556, Note_on_c, 0, 50, 100
2, 157558, Note_on_c, 0, 38, 93
2, 157585, Note_on_c, 0, 55, 0
2, 157589, Note_on_c, 0, 75, 0
2, 157590, Note_on_c, 0, 79, 0
2, 157590, Control_c, 0, 64, 0
2, 157591, Note_on_c, 0, 70, 0
2, 157593, Note_on_c, 0, 58, 0
2, 157593, Note_on_c, 0, 67, 0
2, 157595, Note_on_c, 0, 39, 0
2, 157596, Note_on_c, 0, 51, 0
2, 157603, Note_on_c, 0, 50, 0
2, 157605, Note_on_c, 0, 38, 0
2, 157750, Note_on_c, 0, 48, 101
2, 157750, Note_on_c, 0, 79, 105
2, 157751, Note_on_c, 0, 67, 99
2, 157752, Note_on_c, 0, 36, 93
2, 157753, Note_on_c, 0, 70, 98
2, 157757, Note_on_c, 0, 75, 93
2, 157785, Control_c, 0, 64, 127
2, 157839, Note_on_c, 0, 48, 0
2, 157920, Note_on_c, 0, 48, 90
2, 158013, Note_on_c, 0, 51, 84
2, 158019, Note_on_c, 0, 55, 91
2, 158039, Note_on_c, 0, 67, 0
2, 158052, Control_c, 0, 64, 0
2, 158054, Note_on_c, 0, 36, 0
2, 158054, Note_on_c, 0, 75, 0
2, 158054, Note_on_c, 0, 48, 0
2, 158057, Note_on_c, 0, 70, 0
2, 158057, Note_on_c, 0, 79, 0
2, 158058, Note_on_c, 0, 55, 0
2, 158061, Note_on_c, 0, 51, 0
2, 158097, Note_on_c, 0, 82, 106
2, 158098, Note_on_c, 0, 79, 98
2, 158101, Note_on_c, 0, 75, 96
2, 158102, Note_on_c, 0, 70, 102
2, 158146, Control_c, 0, 64, 127
2, 158194, Note_on_c, 0, 36, 88
2, 158285, Note_on_c, 0, 43, 95
2, 158342, Note_on_c, 0, 42, 79
2, 158375, Note_on_c, 0, 79, 0
2, 158376, Note_on_c, 0, 36, 0
2, 158376, Note_on_c, 0, 70, 0
2, 158377, Note_on_c, 0, 43, 0
2, 158377, Note_on_c, 0, 82, 0
2, 158377, Note_on_c, 0, 75, 0
2, 158377, Control_c, 0, 64, 0
2, 158391, Note_on_c, 0, 42, 0
2, 158477, Note_on_c, 0, 84, 107
2, 158478, Note_on_c, 0, 41, 100
2, 158479, Note_on_c, 0, 75, 102
2, 158479, Note_on_c, 0, 72, 109
2, 158481, Note_on_c, 0, 80, 98
2, 158481, Note_on_c, 0, 29, 95
2, 158515, Control_c, 0, 64, 127
2, 158645, Note_on_c, 0, 41, 0
2, 158649, Note_on_c, 0, 41, 83
2, 158748, Note_on_c, 0, 77, 102
2, 158749, Note_on_c, 0, 68, 104
2, 158750, Note_on_c, 0, 53, 93
2, 158750, Note_on_c, 0, 65, 98
2, 158906, Note_on_c, 0, 41, 0
2, 158912, Note_on_c, 0, 41, 98
2, 159020, Note_on_c, 0, 43, 96
2, 159022, Note_on_c, 0, 75, 0
2, 159025, Note_on_c, 0, 63, 101
2, 159027, Note_on_c, 0, 75, 103
2, 159062, Control_c, 0, 64, 0
2, 159073, Note_on_c, 0, 65, 0
2, 159074, Note_on_c, 0, 84, 0
2, 159076, Note_on_c, 0, 68, 0
2, 159076, Note_on_c, 0, 72, 0
2, 159078, Note_on_c, 0, 63, 0
2, 159078, Note_on_c, 0, 77, 0
2, 159079, Note_on_c, 0, 75, 0
2, 159079, Note_on_c, 0, 53, 0
2, 159079, Note_on_c, 0, 80, 0
2, 159079, Note_on_c, 0, 41, 0
2, 159082, Note_on_c, 0, 43, 0
2, 159083, Note_on_c, 0, 29, 0
2, 159218, Note_on_c, 0, 82, 107
2, 159218, Note_on_c, 0, 34, 98
2, 159218, Note_on_c, 0, 74, 105
2, 159219, Note_on_c, 0, 70, 105
2, 159219, Note_on_c, 0, 46, 102
2, 159244, Control_c, 0, 64, 127
2, 159398, Note_on_c, 0, 34, 0
2, 159398, Note_on_c, 0, 46, 0
2, 159398, Note_on_c, 0, 70, 0
2, 159398, Note_on_c, 0, 82, 0
2, 159403, Note_on_c, 0, 34, 86
2, 159405, Note_on_c, 0, 46, 89
2, 159406, Note_on_c, 0, 74, 0
2, 159407, Note_on_c, 0, 82, 105
2, 159408, Note_on_c, 0, 70, 100
2, 159417, Note_on_c, 0, 74, 95
2, 159460, Note_on_c, 0, 74, 0
2, 159463, Note_on_c, 0, 70, 0
2, 159464, Note_on_c, 0, 82, 0
2, 159466, Note_on_c, 0, 46, 0
2, 159466, Note_on_c, 0, 34, 0
2, 159469, Control_c, 0, 64, 0
2, 159578, Note_on_c, 0, 31, 89
2, 159578, Note_on_c, 0, 43, 91
2, 159578, Note_on_c, 0, 79, 106
2, 159586, Note_on_c, 0, 67, 93
2, 159594, Note_on_c, 0, 69, 64
2, 159609, Note_on_c, 0, 43, 0
2, 159612, Note_on_c, 0, 31, 0
2, 159612, Note_on_c, 0, 67, 0
2, 159617, Note_on_c, 0, 79, 0
2, 159682, Note_on_c, 0, 69, 0
2, 159752, Note_on_c, 0, 70, 103
2, 159753, Note_on_c, 0, 82, 104
2, 159753, Note_on_c, 0, 46, 100
2, 159754, Note_on_c, 0, 34, 94
2, 159780, Note_on_c, 0, 46, 0
2, 159782, Note_on_c, 0, 70, 0
2, 159785, Note_on_c, 0, 34, 0
2, 159788, Note_on_c, 0, 82, 0
2, 159931, Note_on_c, 0, 82, 106
2, 159931, Note_on_c, 0, 46, 102
2, 159931, Note_on_c, 0, 70, 104
2, 159931, Note_on_c, 0, 34, 99
2, 159943, Control_c, 0, 64, 127
2, 159998, Control_c, 0, 64, 0
2, 160028, Note_on_c, 0, 34, 0
2, 160028, Note_on_c, 0, 46, 0
2, 160035, Note_on_c, 0, 70, 0
2, 160058, Note_on_c, 0, 82, 0
2, 160205, Note_on_c, 0, 84, 105
2, 160205, Note_on_c, 0, 72, 108
2, 160207, Note_on_c, 0, 48, 105
2, 160207, Note_on_c, 0, 75, 100
2, 160208, Note_on_c, 0, 79, 93
2, 160209, Note_on_c, 0, 36, 98
2, 160243, Control_c, 0, 64, 127
2, 160510, Note_on_c, 0, 43, 96
2, 160601, Note_on_c, 0, 36, 0
2, 160602, Note_on_c, 0, 48, 0
2, 160602, Note_on_c, 0, 75, 0
2, 160603, Note_on_c, 0, 72, 0
2, 160603, Note_on_c, 0, 43, 0
2, 160603, Note_on_c, 0, 84, 0
2, 160604, Note_on_c, 0, 79, 0
2, 160607, Control_c, 0, 64, 0
2, 160690, Note_on_c, 0, 84, 101
2, 160692, Note_on_c, 0, 75, 101
2, 160692, Note_on_c, 0, 48, 104
2, 160693, Note_on_c, 0, 36, 98
2, 160719, Control_c, 0, 64, 127
2, 160788, Note_on_c, 0, 72, 100
2, 160849, Note_on_c, 0, 48, 0
2, 160856, Note_on_c, 0, 48, 90
2, 160880, Note_on_c, 0, 75, 0
2, 160887, Note_on_c, 0, 75, 86
2, 160960, Note_on_c, 0, 60, 99
2, 160961, Note_on_c, 0, 79, 99
2, 160962, Note_on_c, 0, 55, 95
2, 160962, Note_on_c, 0, 51, 93
2, 161064, Note_on_c, 0, 79, 0
2, 161069, Note_on_c, 0, 87, 106
2, 161069, Note_on_c, 0, 79, 85
2, 161149, Note_on_c, 0, 75, 0
2, 161158, Note_on_c, 0, 75, 101
2, 161233, Note_on_c, 0, 48, 0
2, 161233, Note_on_c, 0, 55, 0
2, 161233, Note_on_c, 0, 79, 0
2, 161237, Note_on_c, 0, 48, 84
2, 161238, Note_on_c, 0, 79, 89
2, 161240, Note_on_c, 0, 55, 82
2, 161244, Note_on_c, 0, 60, 0
2, 161318, Note_on_c, 0, 84, 0
2, 161326, Note_on_c, 0, 84, 99
2, 161390, Note_on_c, 0, 48, 0
2, 161390, Note_on_c, 0, 87, 0
2, 161391, Note_on_c, 0, 51, 0
2, 161391, Note_on_c, 0, 79, 0
2, 161391, Control_c, 0, 64, 0
2, 161391, Note_on_c, 0, 72, 0
2, 161391, Note_on_c, 0, 55, 0
2, 161392, Note_on_c, 0, 84, 0
2, 161395, Note_on_c, 0, 36, 0
2, 161410, Note_on_c, 0, 75, 0
2, 161422, Note_on_c, 0, 89, 108
2, 161427, Note_on_c, 0, 80, 103
2, 161428, Note_on_c, 0, 53, 104
2, 161429, Note_on_c, 0, 41, 102
2, 161472, Control_c, 0, 64, 127
2, 161518, Note_on_c, 0, 77, 96
2, 161602, Note_on_c, 0, 53, 0
2, 161609, Note_on_c, 0, 53, 76
2, 161610, Note_on_c, 0, 80, 0
2, 161614, Note_on_c, 0, 80, 92
2, 161716, Note_on_c, 0, 60, 100
2, 161719, Note_on_c, 0, 56, 95
2, 161720, Note_on_c, 0, 87, 106
2, 161802, Note_on_c, 0, 77, 0
2, 161807, Note_on_c, 0, 77, 94
2, 161894, Note_on_c, 0, 80, 0
2, 161900, Note_on_c, 0, 80, 95
2, 161955, Note_on_c, 0, 53, 0
2, 161967, Note_on_c, 0, 53, 92
2, 161971, Note_on_c, 0, 89, 0
2, 161982, Note_on_c, 0, 89, 108
2, 162071, Note_on_c, 0, 77, 0
2, 162081, Note_on_c, 0, 77, 88
2, 162151, Note_on_c, 0, 77, 0
2, 162151, Note_on_c, 0, 80, 0
2, 162151, Note_on_c, 0, 87, 0
2, 162151, Note_on_c, 0, 60, 0
2, 162151, Note_on_c, 0, 56, 0
2, 162153, Control_c, 0, 64, 0
2, 162155, Note_on_c, 0, 41, 0
2, 162155, Note_on_c, 0, 89, 0
2, 162160, Note_on_c, 0, 46, 104
2, 162161, Note_on_c, 0, 58, 100
2, 162163, Note_on_c, 0, 89, 106
2, 162164, Note_on_c, 0, 82, 102
2, 162165, Note_on_c, 0, 86, 102
2, 162170, Note_on_c, 0, 53, 0
2, 162209, Control_c, 0, 64, 127
2, 162252, Note_on_c, 0, 77, 96
2, 162339, Note_on_c, 0, 58, 0
2, 162339, Note_on_c, 0, 86, 0
2, 162339, Note_on_c, 0, 89, 0
2, 162344, Note_on_c, 0, 58, 89
2, 162344, Note_on_c, 0, 89, 95
2, 162347, Note_on_c, 0, 86, 102
2, 162424, Note_on_c, 0, 58, 0
2, 162424, Note_on_c, 0, 77, 0
2, 162433, Note_on_c, 0, 77, 102
2, 162435, Note_on_c, 0, 65, 103
2, 162435, Note_on_c, 0, 62, 101
2, 162435, Note_on_c, 0, 58, 89
2, 162531, Note_on_c, 0, 86, 0
2, 162536, Note_on_c, 0, 86, 107
2, 162539, Note_on_c, 0, 94, 108
2, 162700, Note_on_c, 0, 58, 0
2, 162711, Note_on_c, 0, 92, 111
2, 162711, Note_on_c, 0, 80, 105
2, 162711, Note_on_c, 0, 58, 94
2, 162869, Note_on_c, 0, 82, 0
2, 162871, Note_on_c, 0, 94, 0
2, 162871, Note_on_c, 0, 77, 0
2, 162872, Note_on_c, 0, 80, 0
2, 162873, Note_on_c, 0, 86, 0
2, 162873, Note_on_c, 0, 89, 0
2, 162873, Note_on_c, 0, 62, 0
2, 162873, Note_on_c, 0, 65, 0
2, 162873, Note_on_c, 0, 46, 0
2, 162873, Note_on_c, 0, 92, 0
2, 162876, Note_on_c, 0, 91, 108
2, 162878, Control_c, 0, 64, 0
2, 162881, Note_on_c, 0, 82, 102
2, 162881, Note_on_c, 0, 79, 103
2, 162885, Note_on_c, 0, 58, 0
2, 162888, Note_on_c, 0, 51, 98
2, 162888, Note_on_c, 0, 39, 87
2, 162938, Control_c, 0, 64, 127
2, 162972, Note_on_c, 0, 77, 107
2, 162972, Note_on_c, 0, 89, 109
2, 163038, Note_on_c, 0, 51, 0
2, 163050, Note_on_c, 0, 51, 90
2, 163161, Note_on_c, 0, 51, 0
2, 163161, Note_on_c, 0, 79, 0
2, 163161, Note_on_c, 0, 91, 0
2, 163162, Note_on_c, 0, 58, 98
2, 163164, Note_on_c, 0, 55, 95
2, 163166, Note_on_c, 0, 91, 113
2, 163167, Note_on_c, 0, 51, 82
2, 163169, Note_on_c, 0, 82, 0
2, 163170, Note_on_c, 0, 79, 107
2, 163175, Note_on_c, 0, 82, 94
2, 163178, Note_on_c, 0, 87, 97
2, 163188, Control_c, 0, 64, 0
2, 163200, Control_c, 0, 64, 127
2, 163349, Note_on_c, 0, 86, 103
2, 163438, Note_on_c, 0, 87, 0
2, 163440, Note_on_c, 0, 50, 97
2, 163442, Note_on_c, 0, 87, 92
2, 163443, Note_on_c, 0, 38, 92
2, 163507, Note_on_c, 0, 89, 0
2, 163513, Note_on_c, 0, 89, 105
2, 163589, Note_on_c, 0, 89, 0
2, 163590, Note_on_c, 0, 51, 0
2, 163590, Note_on_c, 0, 79, 0
2, 163591, Note_on_c, 0, 86, 0
2, 163591, Note_on_c, 0, 58, 0
2, 163591, Note_on_c, 0, 38, 0
2, 163592, Note_on_c, 0, 39, 0
2, 163592, Note_on_c, 0, 55, 0
2, 163592, Note_on_c, 0, 50, 0
2, 163593, Control_c, 0, 64, 0
2, 163607, Note_on_c, 0, 77, 0
2, 163622, Note_on_c, 0, 82, 0
2, 163622, Note_on_c, 0, 91, 0
2, 163630, Note_on_c, 0, 87, 0
2, 163630, Note_on_c, 0, 48, 105
2, 163632, Note_on_c, 0, 91, 110
2, 163633, Note_on_c, 0, 82, 107
2, 163634, Note_on_c, 0, 87, 96
2, 163635, Note_on_c, 0, 36, 93
2, 163668, Control_c, 0, 64, 127
2, 163699, Note_on_c, 0, 36, 0
2, 163732, Note_on_c, 0, 79, 99
2, 163791, Note_on_c, 0, 48, 0
2, 163801, Note_on_c, 0, 48, 92
2, 163814, Note_on_c, 0, 82, 0
2, 163819, Note_on_c, 0, 82, 101
2, 163891, Note_on_c, 0, 87, 0
2, 163895, Note_on_c, 0, 87, 96
2, 163897, Note_on_c, 0, 51, 87
2, 163899, Note_on_c, 0, 55, 94
2, 163975, Note_on_c, 0, 87, 0
2, 163982, Note_on_c, 0, 94, 109
2, 163986, Note_on_c, 0, 87, 96
2, 164067, Note_on_c, 0, 82, 0
2, 164077, Note_on_c, 0, 82, 105
2, 164152, Note_on_c, 0, 48, 0
2, 164152, Note_on_c, 0, 87, 0
2, 164162, Note_on_c, 0, 48, 93
2, 164163, Note_on_c, 0, 87, 97
2, 164236, Note_on_c, 0, 91, 0
2, 164241, Note_on_c, 0, 91, 103
2, 164328, Note_on_c, 0, 96, 110
2, 164328, Note_on_c, 0, 87, 0
2, 164331, Control_c, 0, 64, 0
2, 164332, Note_on_c, 0, 87, 104
2, 164333, Note_on_c, 0, 82, 0
2, 164334, Note_on_c, 0, 92, 95
2, 164336, Note_on_c, 0, 51, 0
2, 164337, Note_on_c, 0, 55, 0
2, 164337, Note_on_c, 0, 48, 0
2, 164338, Note_on_c, 0, 91, 0
2, 164342, Note_on_c, 0, 53, 102
2, 164346, Note_on_c, 0, 41, 100
2, 164352, Note_on_c, 0, 79, 0
2, 164390, Control_c, 0, 64, 127
2, 164424, Note_on_c, 0, 84, 97
2, 164482, Note_on_c, 0, 53, 0
2, 164493, Note_on_c, 0, 53, 92
2, 164505, Note_on_c, 0, 87, 0
2, 164516, Note_on_c, 0, 87, 93
2, 164600, Note_on_c, 0, 60, 100
2, 164603, Note_on_c, 0, 56, 99
2, 164614, Note_on_c, 0, 80, 109
2, 164616, Note_on_c, 0, 89, 110
2, 164702, Note_on_c, 0, 77, 89
2, 164782, Note_on_c, 0, 80, 0
2, 164790, Note_on_c, 0, 80, 101
2, 164851, Note_on_c, 0, 53, 0
2, 164857, Note_on_c, 0, 53, 92
2, 164866, Note_on_c, 0, 84, 0
2, 164866, Note_on_c, 0, 87, 0
2, 164870, Note_on_c, 0, 87, 100
2, 164876, Note_on_c, 0, 84, 88
2, 164958, Note_on_c, 0, 77, 0
2, 164962, Note_on_c, 0, 77, 99
2, 164966, Note_on_c, 0, 94, 0
2, 165017, Note_on_c, 0, 96, 0
2, 165017, Note_on_c, 0, 77, 0
2, 165018, Note_on_c, 0, 80, 0
2, 165018, Control_c, 0, 64, 0
2, 165018, Note_on_c, 0, 84, 0
2, 165018, Note_on_c, 0, 53, 0
2, 165018, Note_on_c, 0, 87, 0
2, 165018, Note_on_c, 0, 89, 0
2, 165018, Note_on_c, 0, 56, 0
2, 165018, Note_on_c, 0, 60, 0
2, 165018, Note_on_c, 0, 92, 0
2, 165050, Note_on_c, 0, 41, 0
2, 165054, Note_on_c, 0, 86, 106
2, 165054, Note_on_c, 0, 94, 108
2, 165055, Note_on_c, 0, 41, 100
2, 165055, Note_on_c, 0, 29, 97
2, 165089, Control_c, 0, 64, 127
2, 165139, Note_on_c, 0, 82, 97
2, 165235, Note_on_c, 0, 86, 0
2, 165235, Note_on_c, 0, 94, 0
2, 165244, Note_on_c, 0, 86, 100
2, 165245, Note_on_c, 0, 94, 106
2, 165319, Note_on_c, 0, 82, 0
2, 165331, Note_on_c, 0, 82, 95
2, 165354, Note_on_c, 0, 94, 0
2, 165356, Note_on_c, 0, 86, 0
2, 165356, Note_on_c, 0, 41, 0
2, 165359, Control_c, 0, 64, 0
2, 165373, Note_on_c, 0, 29, 0
2, 165396, Note_on_c, 0, 82, 0
2, 165412, Note_on_c, 0, 43, 104
2, 165413, Note_on_c, 0, 91, 110
2, 165414, Note_on_c, 0, 31, 97
2, 165414, Note_on_c, 0, 79, 106
2, 165457, Control_c, 0, 64, 127
2, 165593, Note_on_c, 0, 94, 106
2, 165593, Note_on_c, 0, 86, 106
2, 165594, Note_on_c, 0, 82, 104
2, 165611, Note_on_c, 0, 79, 0
2, 165662, Note_on_c, 0, 82, 0
2, 165680, Control_c, 0, 64, 0
2, 165726, Note_on_c, 0, 31, 0
2, 165726, Note_on_c, 0, 43, 0
2, 165726, Note_on_c, 0, 91, 0
2, 165765, Note_on_c, 0, 94, 0
2, 165772, Note_on_c, 0, 86, 0
2, 165776, Note_on_c, 0, 94, 111
2, 165776, Note_on_c, 0, 86, 100
2, 165777, Note_on_c, 0, 82, 106
2, 165782, Note_on_c, 0, 44, 101
2, 165784, Note_on_c, 0, 32, 91
2, 165803, Control_c, 0, 64, 127
2, 166039, Control_c, 0, 64, 0
2, 166044, Note_on_c, 0, 32, 0
2, 166044, Note_on_c, 0, 44, 0
2, 166051, Note_on_c, 0, 96, 110
2, 166053, Note_on_c, 0, 84, 108
2, 166053, Note_on_c, 0, 87, 109
2, 166064, Note_on_c, 0, 82, 0
2, 166087, Note_on_c, 0, 86, 0
2, 166141, Control_c, 0, 64, 127
2, 166155, Note_on_c, 0, 46, 99
2, 166157, Note_on_c, 0, 34, 92
2, 166456, Note_on_c, 0, 46, 0
2, 166461, Note_on_c, 0, 46, 60
2, 166462, Note_on_c, 0, 58, 61
2, 166484, Control_c, 0, 64, 0
2, 166489, Note_on_c, 0, 60, 57
2, 166494, Note_on_c, 0, 60, 0
2, 166495, Note_on_c, 0, 34, 0
2, 166504, Note_on_c, 0, 62, 76
2, 166510, Note_on_c, 0, 46, 0
2, 166550, Note_on_c, 0, 32, 73
2, 166552, Note_on_c, 0, 44, 83
2, 166552, Note_on_c, 0, 63, 90
2, 166663, Note_on_c, 0, 62, 0
2, 166848, Note_on_c, 0, 63, 0
2, 166848, Control_c, 0, 64, 127
2, 166855, Note_on_c, 0, 63, 70
2, 166970, Note_on_c, 0, 94, 0
2, 167040, Note_on_c, 0, 96, 0
2, 167124, Note_on_c, 0, 62, 67
2, 167290, Note_on_c, 0, 91, 85
2, 167306, Note_on_c, 0, 92, 68
2, 167308, Note_on_c, 0, 84, 0
2, 167313, Note_on_c, 0, 80, 63
2, 167316, Note_on_c, 0, 63, 0
2, 167316, Note_on_c, 0, 87, 0
2, 167319, Note_on_c, 0, 84, 66
2, 167323, Note_on_c, 0, 87, 75
2, 167324, Note_on_c, 0, 63, 63
2, 167608, Note_on_c, 0, 63, 0
2, 167612, Note_on_c, 0, 63, 71
2, 167869, Note_on_c, 0, 62, 0
2, 167876, Note_on_c, 0, 62, 67
2, 168031, Control_c, 0, 64, 0
2, 168042, Note_on_c, 0, 43, 65
2, 168042, Note_on_c, 0, 31, 59
2, 168046, Note_on_c, 0, 58, 0
2, 168046, Note_on_c, 0, 62, 0
2, 168046, Note_on_c, 0, 92, 0
2, 168049, Note_on_c, 0, 65, 73
2, 168050, Note_on_c, 0, 62, 64
2, 168051, Note_on_c, 0, 58, 63
2, 168054, Note_on_c, 0, 91, 0
2, 168057, Note_on_c, 0, 87, 0
2, 168057, Note_on_c, 0, 44, 0
2, 168059, Note_on_c, 0, 84, 0
2, 168059, Note_on_c, 0, 80, 0
2, 168060, Note_on_c, 0, 32, 0
2, 168060, Note_on_c, 0, 63, 0
2, 168284, Control_c, 0, 64, 127
2, 168322, Note_on_c, 0, 65, 0
2, 168326, Note_on_c, 0, 65, 79
2, 168624, Note_on_c, 0, 63, 72
2, 168794, Note_on_c, 0, 89, 79
2, 168806, Note_on_c, 0, 62, 0
2, 168815, Note_on_c, 0, 62, 65
2, 168819, Note_on_c, 0, 79, 57
2, 168826, Note_on_c, 0, 82, 67
2, 168830, Note_on_c, 0, 86, 60
2, 169088, Note_on_c, 0, 60, 74
2, 169367, Note_on_c, 0, 62, 0
2, 169378, Note_on_c, 0, 62, 73
2, 169504, Control_c, 0, 64, 0
2, 169528, Note_on_c, 0, 63, 0
2, 169531, Note_on_c, 0, 43, 0
2, 169531, Note_on_c, 0, 82, 0
2, 169532, Note_on_c, 0, 65, 0
2, 169532, Note_on_c, 0, 79, 0
2, 169532, Note_on_c, 0, 58, 0
2, 169532, Note_on_c, 0, 89, 0
2, 169532, Note_on_c, 0, 60, 0
2, 169533, Note_on_c, 0, 86, 0
2, 169533, Note_on_c, 0, 31, 0
2, 169533, Note_on_c, 0, 63, 78
2, 169540, Note_on_c, 0, 41, 69
2, 169543, Note_on_c, 0, 29, 71
2, 169547, Note_on_c, 0, 56, 65
2, 169559, Note_on_c, 0, 62, 0
2, 169566, Control_c, 0, 64, 127
2, 169789, Note_on_c, 0, 63, 0
2, 169800, Note_on_c, 0, 63, 69
2, 169912, Note_on_c, 0, 87, 77
2, 169913, Note_on_c, 0, 84, 78
2, 169930, Note_on_c, 0, 80, 71
2, 170097, Note_on_c, 0, 62, 75
2, 170237, Note_on_c, 0, 29, 0
2, 170238, Note_on_c, 0, 87, 0
2, 170238, Note_on_c, 0, 62, 0
2, 170239, Note_on_c, 0, 84, 0
2, 170239, Note_on_c, 0, 56, 0
2, 170239, Note_on_c, 0, 80, 0
2, 170239, Control_c, 0, 64, 0
2, 170239, Note_on_c, 0, 63, 0
2, 170240, Note_on_c, 0, 41, 0
2, 170271, Note_on_c, 0, 46, 91
2, 170273, Note_on_c, 0, 34, 76
2, 170274, Note_on_c, 0, 65, 89
2, 170283, Note_on_c, 0, 58, 89
2, 170342, Control_c, 0, 64, 127
2, 170411, Note_on_c, 0, 46, 0
2, 170434, Note_on_c, 0, 34, 0
2, 170554, Note_on_c, 0, 62, 79
2, 170628, Note_on_c, 0, 89, 87
2, 170646, Note_on_c, 0, 86, 77
2, 170658, Note_on_c, 0, 82, 68
2, 170817, Note_on_c, 0, 60, 78
2, 170967, Control_c, 0, 64, 0
2, 170968, Note_on_c, 0, 89, 0
2, 170969, Note_on_c, 0, 62, 0
2, 170969, Note_on_c, 0, 60, 0
2, 170970, Note_on_c, 0, 86, 0
2, 170970, Note_on_c, 0, 65, 0
2, 170987, Note_on_c, 0, 58, 0
2, 170998, Note_on_c, 0, 58, 92
2, 170999, Note_on_c, 0, 39, 75
2, 171005, Note_on_c, 0, 51, 72
2, 171007, Note_on_c, 0, 55, 84
2, 171095, Control_c, 0, 64, 127
2, 171367, Note_on_c, 0, 91, 98
2, 171375, Note_on_c, 0, 79, 74
2, 171398, Note_on_c, 0, 85, 65
2, 171737, Note_on_c, 0, 80, 83
2, 171737, Note_on_c, 0, 67, 74
2, 171743, Note_on_c, 0, 92, 86
2, 171747, Note_on_c, 0, 58, 0
2, 171750, Note_on_c, 0, 61, 68
2, 171754, Note_on_c, 0, 58, 58
2, 171878, Note_on_c, 0, 82, 0
2, 172108, Note_on_c, 0, 51, 0
2, 172114, Note_on_c, 0, 94, 90
2, 172118, Note_on_c, 0, 51, 62
2, 172121, Note_on_c, 0, 82, 66
2, 172413, Note_on_c, 0, 84, 53
2, 172431, Note_on_c, 0, 91, 0
2, 172437, Note_on_c, 0, 87, 82
2, 172441, Note_on_c, 0, 91, 62
2, 172442, Control_c, 0, 64, 0
2, 172449, Note_on_c, 0, 85, 0
2, 172450, Note_on_c, 0, 92, 0
2, 172450, Note_on_c, 0, 80, 0
2, 172450, Note_on_c, 0, 67, 0
2, 172450, Note_on_c, 0, 82, 0
2, 172450, Note_on_c, 0, 58, 0
2, 172452, Note_on_c, 0, 39, 0
2, 172452, Note_on_c, 0, 61, 0
2, 172453, Note_on_c, 0, 79, 0
2, 172454, Note_on_c, 0, 94, 0
2, 172469, Note_on_c, 0, 55, 0
2, 172470, Note_on_c, 0, 96, 99
2, 172478, Note_on_c, 0, 55, 70
2, 172478, Note_on_c, 0, 44, 67
2, 172523, Note_on_c, 0, 91, 0
2, 172531, Control_c, 0, 64, 127
2, 172763, Note_on_c, 0, 75, 63
2, 172767, Note_on_c, 0, 72, 67
2, 173070, Note_on_c, 0, 74, 78
2, 173237, Note_on_c, 0, 75, 0
2, 173245, Note_on_c, 0, 72, 0
2, 173248, Note_on_c, 0, 75, 69
2, 173249, Note_on_c, 0, 72, 75
2, 173521, Note_on_c, 0, 72, 0
2, 173521, Note_on_c, 0, 75, 0
2, 173529, Note_on_c, 0, 72, 73
2, 173532, Note_on_c, 0, 75, 68
2, 173602, Note_on_c, 0, 67, 78
2, 173626, Note_on_c, 0, 63, 62
2, 173626, Note_on_c, 0, 60, 51
2, 173783, Note_on_c, 0, 74, 0
2, 173791, Note_on_c, 0, 74, 80
2, 173975, Note_on_c, 0, 87, 0
2, 173977, Control_c, 0, 64, 0
2, 173979, Note_on_c, 0, 43, 69
2, 173980, Note_on_c, 0, 63, 0
2, 173981, Note_on_c, 0, 75, 0
2, 173981, Note_on_c, 0, 72, 0
2, 173982, Note_on_c, 0, 67, 0
2, 173982, Note_on_c, 0, 55, 0
2, 173982, Note_on_c, 0, 44, 0
2, 173982, Note_on_c, 0, 96, 0
2, 173983, Note_on_c, 0, 60, 0
2, 173987, Note_on_c, 0, 53, 64
2, 173990, Note_on_c, 0, 74, 0
2, 173990, Note_on_c, 0, 84, 0
2, 173994, Note_on_c, 0, 77, 82
2, 173994, Note_on_c, 0, 50, 61
2, 173996, Note_on_c, 0, 74, 80
2, 174000, Note_on_c, 0, 70, 78
2, 174005, Note_on_c, 0, 51, 0
2, 174036, Control_c, 0, 64, 127
2, 174266, Note_on_c, 0, 77, 0
2, 174274, Note_on_c, 0, 77, 88
2, 174305, Note_on_c, 0, 43, 0
2, 174309, Note_on_c, 0, 43, 50
2, 174554, Note_on_c, 0, 75, 81
2, 174709, Note_on_c, 0, 70, 0
2, 174709, Note_on_c, 0, 53, 0
2, 174709, Note_on_c, 0, 77, 0
2, 174710, Note_on_c, 0, 50, 0
2, 174710, Note_on_c, 0, 43, 0
2, 174713, Control_c, 0, 64, 0
2, 174735, Note_on_c, 0, 74, 0
2, 174739, Note_on_c, 0, 48, 72
2, 174740, Note_on_c, 0, 74, 88
2, 174746, Note_on_c, 0, 58, 73
2, 174747, Note_on_c, 0, 55, 70
2, 174819, Control_c, 0, 64, 127
2, 174896, Note_on_c, 0, 75, 0
2, 175022, Note_on_c, 0, 75, 84
2, 175107, Note_on_c, 0, 67, 89
2, 175107, Note_on_c, 0, 63, 82
2, 175109, Note_on_c, 0, 60, 75
2, 175280, Note_on_c, 0, 77, 98
2, 175468, Note_on_c, 0, 74, 0
2, 175468, Note_on_c, 0, 60, 0
2, 175468, Note_on_c, 0, 75, 0
2, 175468, Note_on_c, 0, 55, 0
2, 175468, Note_on_c, 0, 58, 0
2, 175468, Note_on_c, 0, 67, 0
2, 175469, Note_on_c, 0, 48, 0
2, 175469, Control_c, 0, 64, 0
2, 175469, Note_on_c, 0, 63, 0
2, 175469, Note_on_c, 0, 77, 0
2, 175500, Note_on_c, 0, 56, 73
2, 175502, Note_on_c, 0, 50, 67
2, 175507, Note_on_c, 0, 79, 102
2, 175508, Note_on_c, 0, 72, 94
2, 175595, Control_c, 0, 64, 127
2, 175795, Note_on_c, 0, 80, 100
2, 176048, Note_on_c, 0, 79, 0
2, 176060, Note_on_c, 0, 79, 99
2, 176240, Note_on_c, 0, 72, 0
2, 176243, Note_on_c, 0, 65, 91
2, 176247, Note_on_c, 0, 77, 100
2, 176249, Note_on_c, 0, 72, 75
2, 176252, Note_on_c, 0, 60, 71
2, 176256, Note_on_c, 0, 56, 0
2, 176267, Note_on_c, 0, 56, 73
2, 176524, Note_on_c, 0, 75, 99
2, 176632, Note_on_c, 0, 50, 0
2, 176636, Note_on_c, 0, 50, 72
2, 176801, Note_on_c, 0, 77, 0
2, 176805, Note_on_c, 0, 77, 96
2, 177000, Note_on_c, 0, 79, 0
2, 177008, Note_on_c, 0, 79, 99
2, 177012, Note_on_c, 0, 43, 77
2, 177016, Note_on_c, 0, 80, 0
2, 177016, Note_on_c, 0, 74, 88
2, 177017, Note_on_c, 0, 67, 84
2, 177017, Note_on_c, 0, 75, 0
2, 177017, Note_on_c, 0, 56, 0
2, 177018, Note_on_c, 0, 71, 84
2, 177019, Note_on_c, 0, 72, 0
2, 177019, Note_on_c, 0, 50, 0
2, 177019, Note_on_c, 0, 60, 0
2, 177020, Note_on_c, 0, 77, 0
2, 177020, Note_on_c, 0, 65, 0
2, 177033, Control_c, 0, 64, 0
2, 177191, Note_on_c, 0, 50, 48
2, 177354, Note_on_c, 0, 53, 81
2, 177523, Note_on_c, 0, 53, 0
2, 177524, Note_on_c, 0, 54, 75
2, 177576, Note_on_c, 0, 54, 0
2, 177604, Note_on_c, 0, 55, 99
2, 177722, Control_c, 0, 64, 127
2, 177900, Note_on_c, 0, 56, 85
2, 177930, Control_c, 0, 64, 0
2, 178045, Note_on_c, 0, 74, 0
2, 178068, Note_on_c, 0, 50, 0
2, 178072, Note_on_c, 0, 60, 90
2, 178078, Note_on_c, 0, 50, 71
2, 178229, Note_on_c, 0, 79, 0
2, 178242, Note_on_c, 0, 62, 87
2, 178366, Note_on_c, 0, 71, 0
2, 178366, Note_on_c, 0, 67, 0
2, 178366, Note_on_c, 0, 62, 0
2, 178369, Note_on_c, 0, 60, 0
2, 178369, Note_on_c, 0, 43, 0
2, 178371, Note_on_c, 0, 55, 0
2, 178371, Note_on_c, 0, 56, 0
2, 178391, Note_on_c, 0, 50, 0
2, 178429, Note_on_c, 0, 59, 99
2, 178430, Note_on_c, 0, 53, 93
2, 178433, Note_on_c, 0, 43, 85
2, 178440, Note_on_c, 0, 50, 81
2, 178469, Note_on_c, 0, 50, 0
2, 178478, Note_on_c, 0, 53, 0
2, 178480, Note_on_c, 0, 43, 0
2, 178508, Note_on_c, 0, 59, 0
2, 178510, Note_on_c, 0, 58, 87
2, 178610, Note_on_c, 0, 58, 0
2, 178612, Note_on_c, 0, 59, 80
2, 178708, Note_on_c, 0, 63, 97
2, 178711, Note_on_c, 0, 53, 87
2, 178715, Note_on_c, 0, 43, 85
2, 178717, Note_on_c, 0, 50, 84
2, 178728, Note_on_c, 0, 59, 0
2, 178756, Note_on_c, 0, 43, 0
2, 178762, Note_on_c, 0, 50, 0
2, 178775, Note_on_c, 0, 53, 0
2, 178799, Note_on_c, 0, 61, 85
2, 178870, Note_on_c, 0, 63, 0
2, 178871, Note_on_c, 0, 61, 0
2, 178871, Note_on_c, 0, 62, 85
2, 178948, Note_on_c, 0, 62, 0
2, 178965, Note_on_c, 0, 43, 93
2, 178968, Note_on_c, 0, 53, 95
2, 178970, Note_on_c, 0, 50, 92
2, 178970, Note_on_c, 0, 68, 98
2, 179036, Control_c, 0, 64, 127
2, 179054, Note_on_c, 0, 66, 87
2, 179074, Control_c, 0, 64, 0
2, 179091, Note_on_c, 0, 43, 0
2, 179093, Note_on_c, 0, 68, 0
2, 179139, Note_on_c, 0, 66, 0
2, 179140, Note_on_c, 0, 67, 88
2, 179151, Note_on_c, 0, 50, 0
2, 179174, Note_on_c, 0, 53, 0
2, 179222, Note_on_c, 0, 71, 89
2, 179223, Note_on_c, 0, 67, 0
2, 179273, Note_on_c, 0, 74, 95
2, 179287, Note_on_c, 0, 71, 0
2, 179309, Note_on_c, 0, 55, 86
2, 179338, Note_on_c, 0, 79, 91
2, 179348, Note_on_c, 0, 74, 0
2, 179392, Note_on_c, 0, 83, 92
2, 179402, Note_on_c, 0, 79, 0
2, 179436, Note_on_c, 0, 86, 96
2, 179474, Note_on_c, 0, 91, 108
2, 179481, Note_on_c, 0, 83, 0
2, 179484, Note_on_c, 0, 62, 87
2, 179485, Note_on_c, 0, 67, 97
2, 179489, Note_on_c, 0, 59, 84
2, 179512, Note_on_c, 0, 55, 0
2, 179527, Control_c, 0, 64, 127
2, 179604, Control_c, 0, 64, 0
2, 179658, Note_on_c, 0, 55, 79
2, 179709, Note_on_c, 0, 62, 0
2, 179709, Note_on_c, 0, 59, 0
2, 179714, Note_on_c, 0, 55, 0
2, 179716, Note_on_c, 0, 67, 0
2, 179719, Note_on_c, 0, 86, 0
2, 179735, Note_on_c, 0, 91, 0
2, 179823, Note_on_c, 0, 72, 106
2, 179830, Note_on_c, 0, 63, 96
2, 179830, Note_on_c, 0, 60, 97
2, 179831, Note_on_c, 0, 67, 93
2, 179865, Control_c, 0, 64, 127
2, 179938, Note_on_c, 0, 72, 0
2, 179940, Control_c, 0, 64, 0
2, 179940, Note_on_c, 0, 67, 0
2, 179944, Note_on_c, 0, 63, 0
2, 179950, Note_on_c, 0, 60, 0
2, 180014, Note_on_c, 0, 67, 73
2, 180193, Note_on_c, 0, 75, 95
2, 180195, Note_on_c, 0, 72, 92
2, 180203, Note_on_c, 0, 67, 0
2, 180213, Note_on_c, 0, 67, 64
2, 180232, Note_on_c, 0, 72, 0
2, 180238, Note_on_c, 0, 75, 0
2, 180238, Note_on_c, 0, 67, 0
2, 180365, Note_on_c, 0, 67, 78
2, 180445, Note_on_c, 0, 72, 94
2, 180466, Note_on_c, 0, 67, 0
2, 180534, Note_on_c, 0, 77, 103
2, 180541, Note_on_c, 0, 72, 0
2, 180543, Note_on_c, 0, 68, 94
2, 180548, Note_on_c, 0, 72, 76
2, 180682, Note_on_c, 0, 72, 0
2, 180682, Note_on_c, 0, 68, 0
2, 180735, Note_on_c, 0, 68, 63
2, 180814, Note_on_c, 0, 75, 94
2, 180814, Note_on_c, 0, 72, 93
2, 180852, Note_on_c, 0, 68, 0
2, 180879, Note_on_c, 0, 77, 0
2, 180902, Control_c, 0, 64, 127
2, 180981, Control_c, 0, 64, 0
2, 180982, Note_on_c, 0, 72, 0
2, 180998, Note_on_c, 0, 68, 64
2, 181002, Control_c, 0, 64, 127
2, 181075, Note_on_c, 0, 77, 96
2, 181075, Note_on_c, 0, 72, 91
2, 181079, Control_c, 0, 64, 0
2, 181112, Note_on_c, 0, 75, 0
2, 181120, Note_on_c, 0, 68, 0
2, 181230, Note_on_c, 0, 72, 0
2, 181260, Note_on_c, 0, 70, 84
2, 181309, Note_on_c, 0, 70, 0
2, 181355, Note_on_c, 0, 70, 93
2, 181424, Note_on_c, 0, 77, 0
2, 181433, Note_on_c, 0, 77, 84
2, 181434, Note_on_c, 0, 74, 91
2, 181497, Note_on_c, 0, 74, 0
2, 181506, Note_on_c, 0, 77, 0
2, 181509, Note_on_c, 0, 70, 0
2, 181518, Note_on_c, 0, 70, 88
2, 181562, Note_on_c, 0, 70, 0
2, 181618, Note_on_c, 0, 82, 102
2, 181625, Note_on_c, 0, 70, 92
2, 181630, Note_on_c, 0, 74, 87
2, 181668, Note_on_c, 0, 70, 0
2, 181682, Note_on_c, 0, 82, 0
2, 181716, Note_on_c, 0, 74, 0
2, 181795, Note_on_c, 0, 80, 101
2, 181811, Note_on_c, 0, 70, 93
2, 181854, Note_on_c, 0, 70, 0
2, 181931, Note_on_c, 0, 80, 0
2, 181970, Note_on_c, 0, 79, 101
2, 181974, Note_on_c, 0, 75, 91
2, 181980, Note_on_c, 0, 70, 96
2, 182008, Control_c, 0, 64, 127
2, 182138, Note_on_c, 0, 70, 0
2, 182150, Note_on_c, 0, 70, 90
2, 182150, Note_on_c, 0, 77, 86
2, 182196, Control_c, 0, 64, 0
2, 182238, Note_on_c, 0, 75, 0
2, 182238, Note_on_c, 0, 79, 0
2, 182243, Note_on_c, 0, 79, 103
2, 182246, Note_on_c, 0, 70, 0
2, 182248, Note_on_c, 0, 75, 81
2, 182253, Note_on_c, 0, 70, 77
2, 182254, Control_c, 0, 64, 127
2, 182438, Note_on_c, 0, 70, 0
2, 182444, Note_on_c, 0, 70, 81
2, 182507, Note_on_c, 0, 65, 87
2, 182509, Note_on_c, 0, 62, 82
2, 182515, Note_on_c, 0, 75, 0
2, 182525, Note_on_c, 0, 75, 76
2, 182587, Control_c, 0, 64, 0
2, 182592, Note_on_c, 0, 77, 0
2, 182595, Note_on_c, 0, 79, 0
2, 182595, Note_on_c, 0, 75, 0
2, 182595, Note_on_c, 0, 70, 0
2, 182596, Note_on_c, 0, 65, 0
2, 182596, Note_on_c, 0, 62, 0
2, 182598, Note_on_c, 0, 77, 84
2, 182682, Note_on_c, 0, 77, 0
2, 182700, Note_on_c, 0, 79, 105
2, 182705, Note_on_c, 0, 70, 92
2, 182705, Note_on_c, 0, 63, 93
2, 182705, Note_on_c, 0, 67, 94
2, 182709, Note_on_c, 0, 60, 89
2, 182709, Note_on_c, 0, 75, 87
2, 182730, Control_c, 0, 64, 127
2, 182868, Note_on_c, 0, 60, 0
2, 182868, Note_on_c, 0, 63, 0
2, 182868, Note_on_c, 0, 67, 0
2, 182868, Note_on_c, 0, 70, 0
2, 182872, Note_on_c, 0, 63, 81
2, 182873, Note_on_c, 0, 67, 80
2, 182873, Note_on_c, 0, 60, 75
2, 182873, Note_on_c, 0, 70, 92
2, 182880, Note_on_c, 0, 79, 0
2, 182880, Control_c, 0, 64, 0
2, 182881, Note_on_c, 0, 75, 0
2, 182929, Note_on_c, 0, 63, 0
2, 182937, Note_on_c, 0, 60, 0
2, 182937, Note_on_c, 0, 67, 0
2, 182945, Note_on_c, 0, 70, 0
2, 183049, Note_on_c, 0, 82, 103
2, 183050, Note_on_c, 0, 75, 90
2, 183068, Note_on_c, 0, 79, 72
2, 183083, Control_c, 0, 64, 127
2, 183103, Note_on_c, 0, 75, 0
2, 183152, Note_on_c, 0, 79, 0
2, 183160, Note_on_c, 0, 70, 85
2, 183234, Note_on_c, 0, 67, 88
2, 183239, Note_on_c, 0, 75, 85
2, 183241, Note_on_c, 0, 63, 84
2, 183241, Note_on_c, 0, 60, 73
2, 183319, Note_on_c, 0, 79, 81
2, 183325, Note_on_c, 0, 67, 0
2, 183325, Note_on_c, 0, 70, 0
2, 183326, Control_c, 0, 64, 0
2, 183326, Note_on_c, 0, 75, 0
2, 183327, Note_on_c, 0, 60, 0
2, 183328, Note_on_c, 0, 63, 0
2, 183329, Note_on_c, 0, 82, 0
2, 183390, Note_on_c, 0, 79, 0
2, 183403, Note_on_c, 0, 75, 96
2, 183405, Note_on_c, 0, 84, 102
2, 183409, Note_on_c, 0, 63, 95
2, 183411, Note_on_c, 0, 56, 82
2, 183413, Note_on_c, 0, 72, 92
2, 183415, Note_on_c, 0, 60, 87
2, 183436, Control_c, 0, 64, 127
2, 183567, Note_on_c, 0, 72, 0
2, 183572, Note_on_c, 0, 72, 95
2, 183582, Note_on_c, 0, 60, 0
2, 183582, Note_on_c, 0, 63, 0
2, 183585, Note_on_c, 0, 84, 0
2, 183586, Control_c, 0, 64, 0
2, 183589, Note_on_c, 0, 63, 85
2, 183590, Note_on_c, 0, 56, 0
2, 183592, Note_on_c, 0, 75, 0
2, 183593, Note_on_c, 0, 60, 72
2, 183595, Note_on_c, 0, 56, 52
2, 183609, Note_on_c, 0, 72, 0
2, 183636, Note_on_c, 0, 60, 0
2, 183651, Note_on_c, 0, 56, 0
2, 183651, Note_on_c, 0, 63, 0
2, 183675, Note_on_c, 0, 77, 100
2, 183841, Note_on_c, 0, 72, 87
2, 183917, Note_on_c, 0, 77, 0
2, 183928, Note_on_c, 0, 72, 0
2, 183935, Note_on_c, 0, 75, 97
2, 183939, Note_on_c, 0, 72, 88
2, 183943, Note_on_c, 0, 63, 96
2, 183946, Note_on_c, 0, 56, 88
2, 183966, Control_c, 0, 64, 127
2, 184102, Control_c, 0, 64, 0
2, 184109, Note_on_c, 0, 56, 0
2, 184111, Note_on_c, 0, 63, 0
2, 184113, Note_on_c, 0, 75, 0
2, 184114, Note_on_c, 0, 72, 0
2, 184120, Note_on_c, 0, 65, 94
2, 184123, Note_on_c, 0, 58, 87
2, 184124, Note_on_c, 0, 62, 85
2, 184153, Note_on_c, 0, 58, 0
2, 184154, Note_on_c, 0, 65, 0
2, 184181, Note_on_c, 0, 62, 0
2, 184209, Note_on_c, 0, 58, 89
2, 184211, Note_on_c, 0, 65, 79
2, 184214, Note_on_c, 0, 62, 86
2, 184258, Note_on_c, 0, 58, 0
2, 184273, Note_on_c, 0, 62, 0
2, 184285, Note_on_c, 0, 74, 95
2, 184285, Note_on_c, 0, 70, 93
2, 184320, Note_on_c, 0, 65, 0
2, 184322, Note_on_c, 0, 70, 0
2, 184326, Note_on_c, 0, 74, 0
2, 184385, Note_on_c, 0, 58, 85
2, 184385, Note_on_c, 0, 65, 90
2, 184385, Note_on_c, 0, 62, 87
2, 184429, Note_on_c, 0, 62, 0
2, 184432, Note_on_c, 0, 58, 0
2, 184461, Note_on_c, 0, 72, 99
2, 184488, Note_on_c, 0, 65, 0
2, 184535, Note_on_c, 0, 72, 0
2, 184637, Note_on_c, 0, 65, 92
2, 184640, Note_on_c, 0, 74, 98
2, 184640, Note_on_c, 0, 58, 90
2, 184641, Note_on_c, 0, 70, 89
2, 184663, Note_on_c, 0, 65, 0
2, 184669, Note_on_c, 0, 58, 0
2, 184670, Note_on_c, 0, 74, 0
2, 184711, Note_on_c, 0, 70, 0
2, 184810, Note_on_c, 0, 77, 100
2, 184821, Note_on_c, 0, 67, 95
2, 184822, Note_on_c, 0, 70, 94
2, 184823, Note_on_c, 0, 51, 87
2, 184824, Note_on_c, 0, 63, 91
2, 184824, Note_on_c, 0, 58, 91
2, 184842, Control_c, 0, 64, 127
2, 184907, Note_on_c, 0, 75, 95
2, 185088, Note_on_c, 0, 70, 0
2, 185088, Note_on_c, 0, 75, 0
2, 185092, Note_on_c, 0, 70, 94
2, 185092, Note_on_c, 0, 75, 93
2, 185171, Note_on_c, 0, 62, 104
2, 185176, Note_on_c, 0, 50, 99
2, 185241, Note_on_c, 0, 77, 0
2, 185252, Note_on_c, 0, 77, 95
2, 185351, Note_on_c, 0, 79, 86
2, 185424, Note_on_c, 0, 82, 95
2, 185425, Control_c, 0, 64, 0
2, 185462, Note_on_c, 0, 51, 0
2, 185462, Note_on_c, 0, 63, 0
2, 185464, Note_on_c, 0, 62, 0
2, 185464, Note_on_c, 0, 79, 0
2, 185464, Note_on_c, 0, 70, 0
2, 185465, Note_on_c, 0, 75, 0
2, 185466, Note_on_c, 0, 58, 0
2, 185466, Note_on_c, 0, 67, 0
2, 185466, Note_on_c, 0, 50, 0
2, 185476, Note_on_c, 0, 82, 0
2, 185479, Note_on_c, 0, 77, 0
2, 185521, Note_on_c, 0, 84, 104
2, 185522, Note_on_c, 0, 75, 98
2, 185522, Note_on_c, 0, 72, 104
2, 185522, Note_on_c, 0, 48, 106
2, 185526, Note_on_c, 0, 36, 98
2, 185548, Control_c, 0, 64, 127
2, 185679, Note_on_c, 0, 48, 0
2, 185684, Note_on_c, 0, 48, 88
2, 185761, Note_on_c, 0, 36, 0
2, 185762, Note_on_c, 0, 72, 0
2, 185763, Note_on_c, 0, 75, 0
2, 185764, Note_on_c, 0, 84, 0
2, 185767, Control_c, 0, 64, 0
2, 185767, Note_on_c, 0, 48, 0
2, 185783, Note_on_c, 0, 51, 87
2, 185799, Note_on_c, 0, 55, 82
2, 185837, Note_on_c, 0, 51, 0
2, 185838, Note_on_c, 0, 55, 0
2, 185868, Note_on_c, 0, 75, 102
2, 185868, Note_on_c, 0, 67, 91
2, 185871, Note_on_c, 0, 72, 86
2, 185895, Note_on_c, 0, 67, 0
2, 185907, Note_on_c, 0, 75, 0
2, 185940, Note_on_c, 0, 72, 0
2, 185959, Note_on_c, 0, 48, 98
2, 185963, Control_c, 0, 64, 127
2, 186057, Note_on_c, 0, 51, 88
2, 186136, Note_on_c, 0, 51, 0
2, 186140, Note_on_c, 0, 48, 0
2, 186142, Control_c, 0, 64, 0
2, 186144, Note_on_c, 0, 48, 88
2, 186201, Note_on_c, 0, 48, 0
2, 186213, Note_on_c, 0, 77, 103
2, 186220, Note_on_c, 0, 72, 91
2, 186220, Note_on_c, 0, 68, 102
2, 186221, Note_on_c, 0, 65, 95
2, 186225, Note_on_c, 0, 41, 99
2, 186227, Note_on_c, 0, 29, 101
2, 186232, Control_c, 0, 64, 127
2, 186350, Control_c, 0, 64, 0
2, 186352, Note_on_c, 0, 77, 0
2, 186352, Note_on_c, 0, 68, 0
2, 186352, Note_on_c, 0, 65, 0
2, 186353, Note_on_c, 0, 41, 0
2, 186355, Note_on_c, 0, 72, 0
2, 186355, Note_on_c, 0, 29, 0
2, 186406, Note_on_c, 0, 41, 82
2, 186489, Note_on_c, 0, 75, 99
2, 186489, Note_on_c, 0, 68, 96
2, 186491, Note_on_c, 0, 65, 91
2, 186494, Note_on_c, 0, 72, 86
2, 186496, Note_on_c, 0, 53, 96
2, 186508, Control_c, 0, 64, 127
2, 186600, Control_c, 0, 64, 0
2, 186647, Note_on_c, 0, 41, 0
2, 186654, Control_c, 0, 64, 127
2, 186658, Note_on_c, 0, 41, 88
2, 186742, Note_on_c, 0, 44, 77
2, 186762, Note_on_c, 0, 65, 0
2, 186763, Note_on_c, 0, 77, 102
2, 186769, Note_on_c, 0, 75, 0
2, 186773, Note_on_c, 0, 65, 92
2, 186781, Note_on_c, 0, 75, 65
2, 186804, Note_on_c, 0, 45, 93
2, 186881, Note_on_c, 0, 44, 0
2, 186881, Control_c, 0, 64, 0
2, 186881, Note_on_c, 0, 75, 0
2, 186881, Note_on_c, 0, 68, 0
2, 186881, Note_on_c, 0, 45, 0
2, 186882, Note_on_c, 0, 65, 0
2, 186892, Note_on_c, 0, 53, 0
2, 186892, Note_on_c, 0, 72, 0
2, 186900, Note_on_c, 0, 41, 0
2, 186946, Note_on_c, 0, 34, 98
2, 186947, Note_on_c, 0, 46, 104
2, 186969, Control_c, 0, 64, 127
2, 187115, Note_on_c, 0, 77, 0
2, 187121, Note_on_c, 0, 77, 94
2, 187125, Note_on_c, 0, 70, 93
2, 187126, Note_on_c, 0, 74, 91
2, 187192, Note_on_c, 0, 46, 0
2, 187196, Control_c, 0, 64, 0
2, 187196, Note_on_c, 0, 34, 0
2, 187198, Note_on_c, 0, 53, 84
2, 187198, Note_on_c, 0, 70, 0
2, 187201, Note_on_c, 0, 46, 75
2, 187202, Note_on_c, 0, 74, 0
2, 187202, Note_on_c, 0, 50, 82
2, 187203, Note_on_c, 0, 77, 0
2, 187223, Note_on_c, 0, 46, 0
2, 187228, Note_on_c, 0, 53, 0
2, 187234, Note_on_c, 0, 50, 0
2, 187298, Note_on_c, 0, 82, 102
2, 187300, Note_on_c, 0, 74, 96
2, 187349, Note_on_c, 0, 74, 0
2, 187360, Note_on_c, 0, 34, 90
2, 187376, Control_c, 0, 64, 127
2, 187467, Note_on_c, 0, 46, 94
2, 187486, Note_on_c, 0, 80, 102
2, 187494, Note_on_c, 0, 50, 76
2, 187576, Note_on_c, 0, 82, 0
2, 187578, Note_on_c, 0, 34, 0
2, 187579, Note_on_c, 0, 46, 0
2, 187579, Control_c, 0, 64, 0
2, 187579, Note_on_c, 0, 50, 0
2, 187582, Note_on_c, 0, 80, 0
2, 187660, Note_on_c, 0, 79, 102
2, 187664, Note_on_c, 0, 67, 96
2, 187666, Note_on_c, 0, 39, 92
2, 187667, Note_on_c, 0, 70, 89
2, 187668, Note_on_c, 0, 51, 94
2, 187691, Control_c, 0, 64, 127
2, 187733, Note_on_c, 0, 77, 97
2, 187822, Note_on_c, 0, 51, 0
2, 187826, Note_on_c, 0, 51, 83
2, 187830, Note_on_c, 0, 46, 65
2, 187921, Note_on_c, 0, 58, 96
2, 187921, Note_on_c, 0, 46, 0
2, 187921, Note_on_c, 0, 79, 0
2, 187923, Note_on_c, 0, 55, 89
2, 187927, Note_on_c, 0, 46, 82
2, 187929, Note_on_c, 0, 67, 0
2, 187929, Note_on_c, 0, 70, 0
2, 187933, Note_on_c, 0, 79, 103
2, 187939, Note_on_c, 0, 67, 101
2, 187939, Note_on_c, 0, 70, 91
2, 187945, Note_on_c, 0, 75, 91
2, 188098, Note_on_c, 0, 39, 0
2, 188098, Note_on_c, 0, 51, 0
2, 188102, Note_on_c, 0, 39, 82
2, 188103, Note_on_c, 0, 51, 82
2, 188194, Note_on_c, 0, 50, 101
2, 188195, Note_on_c, 0, 38, 97
2, 188240, Control_c, 0, 64, 0
2, 188240, Note_on_c, 0, 46, 0
2, 188240, Note_on_c, 0, 55, 0
2, 188241, Note_on_c, 0, 58, 0
2, 188241, Note_on_c, 0, 39, 0
2, 188242, Note_on_c, 0, 51, 0
2, 188242, Note_on_c, 0, 70, 0
2, 188242, Note_on_c, 0, 75, 0
2, 188243, Note_on_c, 0, 77, 0
2, 188244, Note_on_c, 0, 50, 0
2, 188247, Note_on_c, 0, 38, 0
2, 188259, Note_on_c, 0, 67, 0
2, 188267, Note_on_c, 0, 79, 0
2, 188387, Note_on_c, 0, 79, 103
2, 188388, Note_on_c, 0, 48, 105
2, 188389, Note_on_c, 0, 70, 99
2, 188391, Note_on_c, 0, 67, 100
2, 188392, Note_on_c, 0, 75, 94
2, 188392, Note_on_c, 0, 36, 99
2, 188421, Control_c, 0, 64, 127
2, 188559, Note_on_c, 0, 48, 0
2, 188563, Note_on_c, 0, 48, 85
2, 188648, Note_on_c, 0, 36, 0
2, 188649, Note_on_c, 0, 70, 0
2, 188652, Note_on_c, 0, 75, 0
2, 188652, Note_on_c, 0, 48, 0
2, 188655, Note_on_c, 0, 79, 0
2, 188657, Control_c, 0, 64, 0
2, 188666, Note_on_c, 0, 67, 0
2, 188670, Note_on_c, 0, 55, 85
2, 188670, Note_on_c, 0, 51, 73
2, 188720, Note_on_c, 0, 51, 0
2, 188720, Note_on_c, 0, 55, 0
2, 188743, Note_on_c, 0, 82, 107
2, 188745, Note_on_c, 0, 70, 102
2, 188746, Note_on_c, 0, 79, 94
2, 188746, Note_on_c, 0, 75, 99
2, 188782, Control_c, 0, 64, 127
2, 188832, Note_on_c, 0, 36, 91
2, 188935, Note_on_c, 0, 43, 94
2, 188986, Note_on_c, 0, 42, 80
2, 189023, Note_on_c, 0, 82, 0
2, 189023, Note_on_c, 0, 79, 0
2, 189023, Note_on_c, 0, 70, 0
2, 189024, Note_on_c, 0, 36, 0
2, 189024, Note_on_c, 0, 75, 0
2, 189024, Note_on_c, 0, 43, 0
2, 189027, Control_c, 0, 64, 0
2, 189032, Note_on_c, 0, 42, 0
2, 189109, Note_on_c, 0, 84, 105
2, 189111, Note_on_c, 0, 41, 102
2, 189112, Note_on_c, 0, 75, 103
2, 189113, Note_on_c, 0, 72, 106
2, 189114, Note_on_c, 0, 80, 100
2, 189115, Note_on_c, 0, 29, 101
2, 189150, Control_c, 0, 64, 127
2, 189265, Note_on_c, 0, 41, 0
2, 189272, Note_on_c, 0, 41, 96
2, 189377, Note_on_c, 0, 68, 101
2, 189377, Note_on_c, 0, 77, 99
2, 189378, Note_on_c, 0, 65, 96
2, 189378, Note_on_c, 0, 53, 99
2, 189519, Note_on_c, 0, 41, 0
2, 189525, Note_on_c, 0, 41, 99
2, 189555, Control_c, 0, 64, 0
2, 189596, Control_c, 0, 64, 127
2, 189628, Note_on_c, 0, 44, 92
2, 189657, Note_on_c, 0, 75, 0
2, 189666, Note_on_c, 0, 75, 98
2, 189675, Note_on_c, 0, 45, 95
2, 189693, Note_on_c, 0, 72, 0
2, 189696, Control_c, 0, 64, 0
2, 189707, Note_on_c, 0, 77, 0
2, 189708, Note_on_c, 0, 84, 0
2, 189711, Note_on_c, 0, 29, 0
2, 189713, Note_on_c, 0, 75, 0
2, 189714, Note_on_c, 0, 80, 0
2, 189714, Note_on_c, 0, 44, 0
2, 189716, Note_on_c, 0, 41, 0
2, 189721, Note_on_c, 0, 45, 0
2, 189726, Note_on_c, 0, 68, 0
2, 189734, Note_on_c, 0, 53, 0
2, 189734, Note_on_c, 0, 65, 0
2, 189847, Note_on_c, 0, 74, 103
2, 189847, Note_on_c, 0, 82, 104
2, 189847, Note_on_c, 0, 70, 103
2, 189850, Note_on_c, 0, 46, 104
2, 189851, Note_on_c, 0, 34, 100
2, 189895, Control_c, 0, 64, 127
2, 190018, Note_on_c, 0, 34, 0
2, 190018, Note_on_c, 0, 46, 0
2, 190018, Note_on_c, 0, 70, 0
2, 190018, Note_on_c, 0, 74, 0
2, 190018, Note_on_c, 0, 82, 0
2, 190023, Note_on_c, 0, 46, 95
2, 190025, Note_on_c, 0, 34, 89
2, 190025, Note_on_c, 0, 74, 93
2, 190028, Note_on_c, 0, 82, 102
2, 190029, Note_on_c, 0, 70, 94
2, 190082, Note_on_c, 0, 70, 0
2, 190087, Control_c, 0, 64, 0
2, 190092, Note_on_c, 0, 34, 0
2, 190092, Note_on_c, 0, 74, 0
2, 190093, Note_on_c, 0, 82, 0
2, 190095, Note_on_c, 0, 46, 0
2, 190191, Note_on_c, 0, 43, 94
2, 190191, Note_on_c, 0, 31, 87
2, 190198, Note_on_c, 0, 79, 104
2, 190203, Note_on_c, 0, 67, 96
2, 190223, Note_on_c, 0, 43, 0
2, 190223, Note_on_c, 0, 67, 0
2, 190226, Note_on_c, 0, 31, 0
2, 190234, Note_on_c, 0, 79, 0
2, 190372, Note_on_c, 0, 46, 98
2, 190373, Note_on_c, 0, 70, 104
2, 190373, Note_on_c, 0, 82, 104
2, 190373, Note_on_c, 0, 34, 96
2, 190403, Note_on_c, 0, 46, 0
2, 190406, Note_on_c, 0, 70, 0
2, 190410, Note_on_c, 0, 34, 0
2, 190419, Note_on_c, 0, 82, 0
2, 190546, Note_on_c, 0, 82, 104
2, 190546, Note_on_c, 0, 70, 101
2, 190549, Note_on_c, 0, 46, 105
2, 190549, Note_on_c, 0, 34, 102
2, 190590, Note_on_c, 0, 46, 0
2, 190591, Note_on_c, 0, 70, 0
2, 190592, Note_on_c, 0, 34, 0
2, 190598, Note_on_c, 0, 82, 0
2, 190815, Note_on_c, 0, 48, 107
2, 190817, Note_on_c, 0, 72, 110
2, 190818, Note_on_c, 0, 84, 108
2, 190819, Note_on_c, 0, 79, 94
2, 190820, Note_on_c, 0, 75, 102
2, 190821, Note_on_c, 0, 36, 98
2, 190878, Control_c, 0, 64, 127
2, 191024, Note_on_c, 0, 36, 0
2, 191030, Note_on_c, 0, 36, 76
2, 191086, Note_on_c, 0, 48, 0
2, 191091, Note_on_c, 0, 48, 82
2, 191210, Control_c, 0, 64, 0
2, 191215, Note_on_c, 0, 75, 0
2, 191218, Note_on_c, 0, 72, 0
2, 191218, Note_on_c, 0, 48, 0
2, 191218, Note_on_c, 0, 36, 0
2, 191219, Note_on_c, 0, 84, 0
2, 191220, Note_on_c, 0, 79, 0
2, 191281, Note_on_c, 0, 60, 98
2, 191283, Note_on_c, 0, 41, 105
2, 191285, Note_on_c, 0, 53, 101
2, 191286, Note_on_c, 0, 29, 100
2, 191287, Note_on_c, 0, 56, 99
2, 191347, Control_c, 0, 64, 127
2, 191462, Note_on_c, 0, 29, 0
2, 191472, Note_on_c, 0, 29, 74
2, 191531, Note_on_c, 0, 41, 0
2, 191541, Note_on_c, 0, 41, 76
2, 191646, Note_on_c, 0, 29, 0
2, 191654, Note_on_c, 0, 29, 81
2, 191657, Note_on_c, 0, 63, 99
2, 191746, Note_on_c, 0, 41, 0
2, 191753, Note_on_c, 0, 41, 81
2, 191823, Note_on_c, 0, 29, 0
2, 191834, Note_on_c, 0, 29, 84
2, 191915, Note_on_c, 0, 41, 0
2, 191919, Note_on_c, 0, 41, 83
2, 192016, Note_on_c, 0, 65, 104
2, 192023, Note_on_c, 0, 29, 0
2, 192027, Note_on_c, 0, 29, 84
2, 192107, Note_on_c, 0, 41, 0
2, 192114, Note_on_c, 0, 41, 89
2, 192207, Note_on_c, 0, 29, 0
2, 192212, Note_on_c, 0, 29, 75
2, 192230, Note_on_c, 0, 41, 0
2, 192237, Note_on_c, 0, 41, 64
2, 192299, Note_on_c, 0, 29, 0
2, 192299, Note_on_c, 0, 41, 0
2, 192299, Note_on_c, 0, 63, 0
2, 192305, Note_on_c, 0, 63, 101
2, 192309, Note_on_c, 0, 41, 84
2, 192310, Note_on_c, 0, 29, 78
2, 192414, Note_on_c, 0, 29, 0
2, 192421, Note_on_c, 0, 29, 85
2, 192476, Note_on_c, 0, 41, 0
2, 192487, Note_on_c, 0, 41, 82
2, 192560, Note_on_c, 0, 29, 0
2, 192560, Note_on_c, 0, 41, 0
2, 192568, Note_on_c, 0, 65, 0
2, 192571, Note_on_c, 0, 41, 85
2, 192571, Note_on_c, 0, 29, 80
2, 192576, Note_on_c, 0, 65, 101
2, 192673, Note_on_c, 0, 41, 0
2, 192673, Note_on_c, 0, 29, 0
2, 192673, Note_on_c, 0, 53, 0
2, 192673, Control_c, 0, 64, 0
2, 192673, Note_on_c, 0, 65, 0
2, 192674, Note_on_c, 0, 60, 0
2, 192674, Note_on_c, 0, 56, 0
2, 192677, Note_on_c, 0, 63, 0
2, 192744, Note_on_c, 0, 43, 107
2, 192748, Note_on_c, 0, 62, 104
2, 192748, Note_on_c, 0, 31, 97
2, 192750, Note_on_c, 0, 58, 100
2, 192757, Note_on_c, 0, 55, 100
2, 192806, Control_c, 0, 64, 127
2, 192814, Note_on_c, 0, 55, 0
2, 192837, Note_on_c, 0, 43, 0
2, 192846, Note_on_c, 0, 43, 61
2, 192929, Note_on_c, 0, 31, 0
2, 192938, Note_on_c, 0, 31, 76
2, 192943, Note_on_c, 0, 65, 98
2, 193006, Note_on_c, 0, 43, 0
2, 193010, Note_on_c, 0, 43, 84
2, 193105, Note_on_c, 0, 31, 0
2, 193110, Note_on_c, 0, 70, 103
2, 193114, Note_on_c, 0, 31, 85
2, 193182, Note_on_c, 0, 43, 0
2, 193191, Note_on_c, 0, 43, 80
2, 193282, Note_on_c, 0, 43, 0
2, 193291, Note_on_c, 0, 43, 70
2, 193294, Note_on_c, 0, 68, 106
2, 193344, Note_on_c, 0, 43, 0
2, 193351, Note_on_c, 0, 43, 86
2, 193459, Note_on_c, 0, 31, 0
2, 193466, Note_on_c, 0, 31, 91
2, 193466, Note_on_c, 0, 67, 104
2, 193536, Note_on_c, 0, 43, 0
2, 193536, Note_on_c, 0, 65, 0
2, 193540, Note_on_c, 0, 65, 97
2, 193540, Note_on_c, 0, 43, 91
2, 193635, Note_on_c, 0, 31, 0
2, 193646, Note_on_c, 0, 31, 88
2, 193720, Note_on_c, 0, 43, 0
2, 193725, Note_on_c, 0, 43, 92
2, 193728, Note_on_c, 0, 31, 0
2, 193732, Note_on_c, 0, 31, 85
2, 193743, Note_on_c, 0, 67, 0
2, 193747, Note_on_c, 0, 67, 103
2, 193827, Note_on_c, 0, 31, 0
2, 193832, Note_on_c, 0, 31, 86
2, 193896, Note_on_c, 0, 43, 0
2, 193903, Note_on_c, 0, 43, 88
2, 193996, Note_on_c, 0, 31, 0
2, 194000, Note_on_c, 0, 31, 86
2, 194058, Note_on_c, 0, 43, 0
2, 194066, Note_on_c, 0, 43, 91
2, 194106, Control_c, 0, 64, 0
2, 194112, Note_on_c, 0, 31, 0
2, 194113, Note_on_c, 0, 62, 0
2, 194114, Note_on_c, 0, 43, 0
2, 194114, Note_on_c, 0, 58, 0
2, 194114, Note_on_c, 0, 67, 0
2, 194114, Note_on_c, 0, 65, 0
2, 194115, Note_on_c, 0, 70, 0
2, 194115, Note_on_c, 0, 68, 0
2, 194189, Note_on_c, 0, 56, 104
2, 194191, Note_on_c, 0, 67, 104
2, 194192, Note_on_c, 0, 63, 102
2, 194192, Note_on_c, 0, 60, 97
2, 194198, Note_on_c, 0, 44, 106
2, 194216, Note_on_c, 0, 32, 84
2, 194296, Control_c, 0, 64, 127
2, 194380, Note_on_c, 0, 32, 0
2, 194385, Note_on_c, 0, 32, 76
2, 194557, Note_on_c, 0, 32, 0
2, 194561, Note_on_c, 0, 32, 89
2, 194564, Note_on_c, 0, 70, 103
2, 194641, Note_on_c, 0, 44, 0
2, 194647, Note_on_c, 0, 44, 83
2, 194726, Note_on_c, 0, 32, 0
2, 194734, Note_on_c, 0, 32, 88
2, 194810, Note_on_c, 0, 44, 0
2, 194816, Note_on_c, 0, 44, 88
2, 194918, Note_on_c, 0, 32, 0
2, 194922, Note_on_c, 0, 72, 110
2, 194926, Note_on_c, 0, 32, 93
2, 194935, Control_c, 0, 64, 0
2, 194956, Control_c, 0, 64, 127
2, 195010, Note_on_c, 0, 44, 0
2, 195014, Note_on_c, 0, 44, 90
2, 195102, Note_on_c, 0, 32, 0
2, 195114, Note_on_c, 0, 32, 85
2, 195202, Note_on_c, 0, 44, 0
2, 195212, Note_on_c, 0, 44, 93
2, 195214, Note_on_c, 0, 65, 104
2, 195302, Note_on_c, 0, 32, 0
2, 195312, Note_on_c, 0, 32, 92
2, 195386, Note_on_c, 0, 44, 0
2, 195394, Note_on_c, 0, 44, 93
2, 195463, Note_on_c, 0, 32, 0
2, 195472, Note_on_c, 0, 32, 88
2, 195486, Note_on_c, 0, 63, 0
2, 195491, Note_on_c, 0, 63, 104
2, 195637, Note_on_c, 0, 32, 0
2, 195641, Note_on_c, 0, 70, 0
2, 195641, Control_c, 0, 64, 0
2, 195641, Note_on_c, 0, 72, 0
2, 195641, Note_on_c, 0, 60, 0
2, 195642, Note_on_c, 0, 65, 0
2, 195642, Note_on_c, 0, 67, 0
2, 195643, Note_on_c, 0, 56, 0
2, 195643, Note_on_c, 0, 63, 0
2, 195678, Note_on_c, 0, 44, 0
2, 195698, Note_on_c, 0, 70, 105
2, 195703, Note_on_c, 0, 62, 101
2, 195704, Note_on_c, 0, 46, 105
2, 195705, Note_on_c, 0, 65, 94
2, 195705, Note_on_c, 0, 34, 97
2, 195939, Note_on_c, 0, 34, 0
2, 196120, Note_on_c, 0, 67, 106
2, 196162, Control_c, 0, 64, 127
2, 196331, Note_on_c, 0, 70, 0
2, 196342, Note_on_c, 0, 70, 108
2, 196538, Note_on_c, 0, 46, 0
2, 196545, Note_on_c, 0, 46, 96
2, 196554, Note_on_c, 0, 70, 0
2, 196563, Note_on_c, 0, 70, 105
2, 196613, Note_on_c, 0, 48, 87
2, 196675, Note_on_c, 0, 50, 85
2, 196756, Note_on_c, 0, 51, 85
2, 196824, Note_on_c, 0, 53, 83
2, 196895, Note_on_c, 0, 55, 94
2, 196896, Note_on_c, 0, 72, 109
2, 196956, Note_on_c, 0, 56, 90
2, 197015, Note_on_c, 0, 58, 88
2, 197076, Note_on_c, 0, 60, 85
2, 197114, Note_on_c, 0, 62, 0
2, 197119, Note_on_c, 0, 62, 90
2, 197153, Note_on_c, 0, 51, 0
2, 197163, Note_on_c, 0, 63, 76
2, 197164, Note_on_c, 0, 51, 72
2, 197214, Note_on_c, 0, 65, 0
2, 197219, Note_on_c, 0, 65, 86
2, 197283, Note_on_c, 0, 67, 0
2, 197288, Note_on_c, 0, 67, 89
2, 197290, Note_on_c, 0, 69, 79
2, 197345, Note_on_c, 0, 70, 0
2, 197351, Note_on_c, 0, 70, 91
2, 197406, Note_on_c, 0, 72, 0
2, 197416, Note_on_c, 0, 72, 87
2, 197472, Note_on_c, 0, 74, 99
2, 197528, Note_on_c, 0, 75, 84
2, 197605, Note_on_c, 0, 77, 92
2, 197720, Note_on_c, 0, 79, 90
2, 197854, Note_on_c, 0, 80, 84
2, 198009, Note_on_c, 0, 82, 76
2, 198192, Note_on_c, 0, 24, 93
2, 198197, Note_on_c, 0, 24, 0
2, 199207, Note_on_c, 0, 86, 76
2, 199357, Note_on_c, 0, 82, 0
2, 199363, Note_on_c, 0, 82, 64
2, 199595, Note_on_c, 0, 74, 0
2, 199606, Note_on_c, 0, 74, 69
2, 199695, Note_on_c, 0, 75, 0
2, 199700, Note_on_c, 0, 75, 53
2, 199795, Note_on_c, 0, 77, 0
2, 199806, Note_on_c, 0, 77, 73
2, 199895, Note_on_c, 0, 86, 0
2, 199906, Note_on_c, 0, 86, 87
2, 200002, Note_on_c, 0, 82, 0
2, 200013, Note_on_c, 0, 82, 73
2, 200094, Note_on_c, 0, 77, 0
2, 200103, Note_on_c, 0, 77, 67
2, 200217, Note_on_c, 0, 74, 0
2, 200223, Note_on_c, 0, 74, 76
2, 200309, Note_on_c, 0, 75, 0
2, 200316, Note_on_c, 0, 75, 55
2, 200401, Note_on_c, 0, 77, 0
2, 200410, Note_on_c, 0, 77, 68
2, 200494, Note_on_c, 0, 86, 0
2, 200500, Note_on_c, 0, 86, 89
2, 200609, Note_on_c, 0, 82, 0
2, 200616, Note_on_c, 0, 82, 79
2, 200693, Note_on_c, 0, 77, 0
2, 200702, Note_on_c, 0, 77, 67
2, 200808, Note_on_c, 0, 74, 0
2, 200819, Note_on_c, 0, 74, 72
2, 200916, Note_on_c, 0, 75, 0
2, 200920, Note_on_c, 0, 75, 55
2, 201008, Note_on_c, 0, 77, 0
2, 201019, Note_on_c, 0, 77, 64
2, 201100, Note_on_c, 0, 86, 0
2, 201108, Note_on_c, 0, 86, 90
2, 201154, Note_on_c, 0, 46, 0
2, 201208, Note_on_c, 0, 82, 0
2, 201218, Note_on_c, 0, 82, 78
2, 201223, Note_on_c, 0, 48, 0
2, 201285, Note_on_c, 0, 50, 0
2, 201308, Note_on_c, 0, 77, 0
2, 201318, Note_on_c, 0, 77, 55
2, 201431, Note_on_c, 0, 53, 0
2, 201431, Note_on_c, 0, 74, 0
2, 201436, Note_on_c, 0, 74, 78
2, 201500, Note_on_c, 0, 55, 0
2, 201530, Note_on_c, 0, 75, 0
2, 201535, Note_on_c, 0, 75, 56
2, 201561, Note_on_c, 0, 56, 0
2, 201600, Note_on_c, 0, 51, 0
2, 201600, Note_on_c, 0, 58, 0
2, 201600, Note_on_c, 0, 60, 0
2, 201600, Note_on_c, 0, 62, 0
2, 201600, Note_on_c, 0, 63, 0
2, 201600, Note_on_c, 0, 65, 0
2, 201600, Note_on_c, 0, 67, 0
2, 201600, Note_on_c, 0, 69, 0
2, 201600, Note_on_c, 0, 70, 0
2, 201600, Note_on_c, 0, 72, 0
2, 201600, Note_on_c, 0, 79, 0
2, 201600, Note_on_c, 0, 80, 0
2, 201630, Note_on_c, 0, 77, 0
2, 201639, Note_on_c, 0, 77, 71
2, 201738, Note_on_c, 0, 86, 0
2, 201742, Note_on_c, 0, 86, 89
2, 201853, Note_on_c, 0, 82, 0
2, 201858, Note_on_c, 0, 82, 67
2, 201953, Note_on_c, 0, 77, 0
2, 201958, Note_on_c, 0, 77, 55
2, 202091, Note_on_c, 0, 74, 0
2, 202100, Note_on_c, 0, 74, 59
2, 202176, Note_on_c, 0, 75, 0
2, 202185, Note_on_c, 0, 75, 54
2, 202291, Note_on_c, 0, 77, 0
2, 202299, Note_on_c, 0, 77, 58
2, 202398, Note_on_c, 0, 86, 0
2, 202407, Note_on_c, 0, 86, 89
2, 202529, Note_on_c, 0, 82, 0
2, 202539, Note_on_c, 0, 82, 73
2, 202636, Note_on_c, 0, 77, 0
2, 202643, Note_on_c, 0, 77, 61
2, 202767, Note_on_c, 0, 74, 0
2, 202772, Note_on_c, 0, 74, 65
2, 202882, Note_on_c, 0, 75, 0
2, 202893, Note_on_c, 0, 75, 50
2, 202997, Note_on_c, 0, 77, 0
2, 203003, Note_on_c, 0, 77, 42
2, 203159, Note_on_c, 0, 82, 0
2, 203162, Note_on_c, 0, 82, 60
2, 203312, Note_on_c, 0, 86, 0
2, 203320, Note_on_c, 0, 86, 70
2, 203483, Note_on_c, 0, 87, 65
2, 203662, Note_on_c, 0, 89, 56
2, 203837, Note_on_c, 0, 94, 63
2, 204084, Note_on_c, 0, 98, 54
2, 204342, Note_on_c, 0, 60, 38
2, 204382, Note_on_c, 0, 63, 61
2, 204405, Note_on_c, 0, 67, 45
2, 204452, Note_on_c, 0, 72, 95
2, 204616, Note_on_c, 0, 79, 64
2, 204738, Note_on_c, 0, 84, 67
2, 204864, Note_on_c, 0, 86, 0
2, 204874, Note_on_c, 0, 86, 74
2, 204971, Note_on_c, 0, 87, 0
2, 204976, Note_on_c, 0, 87, 74
2, 205086, Note_on_c, 0, 91, 67
2, 205194, Note_on_c, 0, 75, 0
2, 205198, Note_on_c, 0, 75, 85
2, 205213, Note_on_c, 0, 96, 82
2, 205324, Note_on_c, 0, 91, 0
2, 205333, Note_on_c, 0, 91, 75
2, 205440, Note_on_c, 0, 74, 0
2, 205440, Note_on_c, 0, 77, 0
2, 205440, Note_on_c, 0, 82, 0
2, 205455, Note_on_c, 0, 87, 0
2, 205463, Note_on_c, 0, 87, 70
2, 205585, Note_on_c, 0, 86, 0
2, 205590, Note_on_c, 0, 86, 70
2, 205685, Note_on_c, 0, 84, 0
2, 205693, Note_on_c, 0, 84, 69
2, 205785, Note_on_c, 0, 79, 0
2, 205791, Note_on_c, 0, 79, 78
2, 205835, Note_on_c, 0, 56, 54
2, 205877, Note_on_c, 0, 63, 0
2, 205888, Note_on_c, 0, 63, 65
2, 205916, Note_on_c, 0, 68, 87
2, 205931, Note_on_c, 0, 72, 0
2, 205942, Note_on_c, 0, 72, 92
2, 205943, Note_on_c, 0, 77, 96
2, 206072, Note_on_c, 0, 80, 83
2, 206177, Note_on_c, 0, 84, 0
2, 206186, Note_on_c, 0, 84, 69
2, 206261, Note_on_c, 0, 86, 0
2, 206273, Note_on_c, 0, 86, 84
2, 206407, Note_on_c, 0, 87, 0
2, 206418, Note_on_c, 0, 87, 74
2, 206527, Note_on_c, 0, 92, 80
2, 206622, Note_on_c, 0, 68, 0
2, 206622, Note_on_c, 0, 72, 0
2, 206630, Note_on_c, 0, 75, 0
2, 206632, Note_on_c, 0, 72, 85
2, 206633, Note_on_c, 0, 68, 78
2, 206634, Note_on_c, 0, 75, 89
2, 206638, Note_on_c, 0, 96, 0
2, 206642, Note_on_c, 0, 96, 86
2, 206768, Note_on_c, 0, 92, 0
2, 206772, Note_on_c, 0, 92, 74
2, 206853, Note_on_c, 0, 87, 0
2, 206859, Note_on_c, 0, 87, 78
2, 206968, Note_on_c, 0, 86, 0
2, 206979, Note_on_c, 0, 86, 77
2, 207106, Note_on_c, 0, 77, 0
2, 207106, Note_on_c, 0, 84, 0
2, 207114, Note_on_c, 0, 77, 84
2, 207116, Note_on_c, 0, 84, 76
2, 207214, Note_on_c, 0, 80, 0
2, 207224, Note_on_c, 0, 80, 76
2, 207367, Note_on_c, 0, 77, 0
2, 207375, Note_on_c, 0, 72, 0
2, 207376, Note_on_c, 0, 77, 93
2, 207377, Note_on_c, 0, 58, 77
2, 207378, Note_on_c, 0, 65, 76
2, 207379, Note_on_c, 0, 72, 92
2, 207379, Note_on_c, 0, 70, 89
2, 207392, Note_on_c, 0, 96, 0
2, 207394, Note_on_c, 0, 84, 0
2, 207395, Note_on_c, 0, 56, 0
2, 207396, Note_on_c, 0, 94, 0
2, 207397, Note_on_c, 0, 79, 0
2, 207397, Note_on_c, 0, 80, 0
2, 207397, Note_on_c, 0, 87, 0
2, 207397, Note_on_c, 0, 91, 0
2, 207398, Note_on_c, 0, 92, 0
2, 207399, Note_on_c, 0, 67, 0
2, 207399, Note_on_c, 0, 86, 0
2, 207400, Note_on_c, 0, 89, 0
2, 207400, Note_on_c, 0, 75, 0
2, 207400, Note_on_c, 0, 68, 0
2, 207402, Note_on_c, 0, 60, 0
2, 207406, Note_on_c, 0, 63, 0
2, 207406, Note_on_c, 0, 98, 0
2, 207415, Control_c, 0, 64, 0
2, 207467, Control_c, 0, 64, 127
2, 207483, Note_on_c, 0, 82, 89
2, 207609, Note_on_c, 0, 86, 84
2, 207732, Note_on_c, 0, 87, 74
2, 207840, Note_on_c, 0, 89, 71
2, 207960, Note_on_c, 0, 94, 73
2, 208081, Note_on_c, 0, 77, 0
2, 208081, Note_on_c, 0, 82, 0
2, 208083, Note_on_c, 0, 101, 103
2, 208088, Note_on_c, 0, 77, 84
2, 208089, Note_on_c, 0, 82, 101
2, 208096, Note_on_c, 0, 74, 83
2, 208130, Control_c, 0, 64, 0
2, 208135, Control_c, 0, 64, 127
2, 208207, Note_on_c, 0, 99, 91
2, 208304, Note_on_c, 0, 98, 96
2, 208427, Note_on_c, 0, 94, 0
2, 208432, Note_on_c, 0, 94, 74
2, 208527, Note_on_c, 0, 89, 0
2, 208532, Note_on_c, 0, 89, 86
2, 208540, Note_on_c, 0, 80, 92
2, 208688, Note_on_c, 0, 87, 0
2, 208693, Note_on_c, 0, 87, 78
2, 208785, Note_on_c, 0, 79, 93
2, 208787, Note_on_c, 0, 75, 80
2, 208788, Note_on_c, 0, 70, 0
2, 208791, Note_on_c, 0, 63, 63
2, 208792, Note_on_c, 0, 70, 76
2, 208799, Note_on_c, 0, 98, 0
2, 208799, Note_on_c, 0, 99, 0
2, 208799, Note_on_c, 0, 94, 0
2, 208799, Note_on_c, 0, 82, 0
2, 208799, Note_on_c, 0, 87, 0
2, 208799, Note_on_c, 0, 67, 72
2, 208800, Note_on_c, 0, 80, 0
2, 208800, Note_on_c, 0, 86, 0
2, 208800, Note_on_c, 0, 101, 0
2, 208800, Note_on_c, 0, 74, 0
2, 208800, Note_on_c, 0, 58, 0
2, 208800, Note_on_c, 0, 89, 0
2, 208800, Note_on_c, 0, 77, 0
2, 208802, Control_c, 0, 64, 0
2, 208811, Note_on_c, 0, 72, 0
2, 208819, Note_on_c, 0, 65, 0
2, 208872, Control_c, 0, 64, 127
2, 208903, Note_on_c, 0, 82, 88
2, 209028, Note_on_c, 0, 87, 89
2, 209141, Note_on_c, 0, 89, 79
2, 209251, Note_on_c, 0, 77, 83
2, 209261, Note_on_c, 0, 91, 78
2, 209355, Note_on_c, 0, 94, 84
2, 209376, Note_on_c, 0, 62, 80
2, 209410, Note_on_c, 0, 70, 0
2, 209419, Note_on_c, 0, 70, 86
2, 209494, Note_on_c, 0, 103, 107
2, 209495, Note_on_c, 0, 79, 0
2, 209499, Note_on_c, 0, 79, 89
2, 209613, Note_on_c, 0, 99, 94
2, 209737, Note_on_c, 0, 98, 96
2, 209840, Note_on_c, 0, 94, 0
2, 209850, Note_on_c, 0, 94, 78
2, 209948, Note_on_c, 0, 89, 0
2, 209952, Note_on_c, 0, 89, 70
2, 210055, Note_on_c, 0, 87, 0
2, 210059, Note_on_c, 0, 87, 73
2, 210178, Note_on_c, 0, 79, 0
2, 210184, Note_on_c, 0, 79, 93
2, 210186, Note_on_c, 0, 67, 0
2, 210186, Note_on_c, 0, 75, 0
2, 210190, Note_on_c, 0, 75, 85
2, 210191, Note_on_c, 0, 67, 81
2, 210193, Note_on_c, 0, 60, 77
2, 210202, Note_on_c, 0, 77, 0
2, 210204, Note_on_c, 0, 89, 0
2, 210204, Note_on_c, 0, 87, 0
2, 210204, Note_on_c, 0, 91, 0
2, 210204, Note_on_c, 0, 99, 0
2, 210205, Note_on_c, 0, 94, 0
2, 210205, Note_on_c, 0, 82, 0
2, 210205, Note_on_c, 0, 62, 0
2, 210205, Note_on_c, 0, 70, 0
2, 210209, Note_on_c, 0, 63, 0
2, 210209, Note_on_c, 0, 103, 0
2, 210213, Control_c, 0, 64, 0
2, 210216, Note_on_c, 0, 98, 0
2, 210293, Control_c, 0, 64, 127
2, 210313, Note_on_c, 0, 82, 88
2, 210423, Note_on_c, 0, 86, 89
2, 210543, Note_on_c, 0, 87, 90
2, 210656, Note_on_c, 0, 91, 83
2, 210759, Note_on_c, 0, 94, 79
2, 210869, Note_on_c, 0, 82, 0
2, 210878, Note_on_c, 0, 82, 97
2, 210885, Note_on_c, 0, 79, 0
2, 210887, Note_on_c, 0, 87, 0
2, 210889, Note_on_c, 0, 79, 77
2, 210892, Note_on_c, 0, 75, 0
2, 210895, Note_on_c, 0, 103, 106
2, 210898, Control_c, 0, 64, 0
2, 210898, Note_on_c, 0, 75, 84
2, 210915, Note_on_c, 0, 60, 0
2, 210938, Control_c, 0, 64, 127
2, 211002, Note_on_c, 0, 99, 90
2, 211008, Note_on_c, 0, 86, 0
2, 211102, Note_on_c, 0, 98, 98
2, 211207, Note_on_c, 0, 94, 0
2, 211212, Note_on_c, 0, 94, 73
2, 211322, Note_on_c, 0, 91, 0
2, 211328, Note_on_c, 0, 91, 74
2, 211426, Note_on_c, 0, 87, 85
2, 211450, Note_on_c, 0, 56, 63
2, 211520, Note_on_c, 0, 63, 58
2, 211561, Note_on_c, 0, 68, 88
2, 211566, Note_on_c, 0, 72, 88
2, 211570, Note_on_c, 0, 77, 84
2, 211571, Control_c, 0, 64, 0
2, 211572, Note_on_c, 0, 84, 99
2, 211645, Control_c, 0, 64, 127
2, 211710, Note_on_c, 0, 86, 87
2, 211829, Note_on_c, 0, 87, 0
2, 211836, Note_on_c, 0, 87, 92
2, 211949, Note_on_c, 0, 89, 83
2, 212052, Note_on_c, 0, 94, 0
2, 212057, Note_on_c, 0, 94, 82
2, 212167, Note_on_c, 0, 99, 0
2, 212175, Note_on_c, 0, 99, 81
2, 212282, Note_on_c, 0, 77, 0
2, 212290, Note_on_c, 0, 68, 0
2, 212290, Note_on_c, 0, 72, 0
2, 212293, Note_on_c, 0, 77, 95
2, 212295, Note_on_c, 0, 101, 101
2, 212298, Note_on_c, 0, 98, 0
2, 212299, Note_on_c, 0, 68, 82
2, 212301, Note_on_c, 0, 72, 80
2, 212323, Control_c, 0, 64, 0
2, 212375, Control_c, 0, 64, 127
2, 212413, Note_on_c, 0, 99, 0
2, 212417, Note_on_c, 0, 99, 89
2, 212540, Note_on_c, 0, 98, 89
2, 212659, Note_on_c, 0, 94, 0
2, 212670, Note_on_c, 0, 94, 78
2, 212751, Note_on_c, 0, 89, 0
2, 212761, Note_on_c, 0, 89, 74
2, 212774, Note_on_c, 0, 75, 0
2, 212783, Note_on_c, 0, 75, 79
2, 212866, Note_on_c, 0, 103, 0
2, 212874, Note_on_c, 0, 87, 0
2, 212885, Note_on_c, 0, 87, 90
2, 213027, Note_on_c, 0, 72, 0
2, 213035, Note_on_c, 0, 77, 0
2, 213035, Note_on_c, 0, 82, 0
2, 213038, Note_on_c, 0, 72, 92
2, 213040, Note_on_c, 0, 82, 97
2, 213046, Note_on_c, 0, 77, 83
2, 213048, Note_on_c, 0, 65, 79
2, 213049, Note_on_c, 0, 58, 77
2, 213053, Note_on_c, 0, 70, 82
2, 213066, Note_on_c, 0, 86, 0
2, 213066, Note_on_c, 0, 84, 0
2, 213066, Note_on_c, 0, 99, 0
2, 213066, Note_on_c, 0, 101, 0
2, 213066, Note_on_c, 0, 91, 0
2, 213066, Note_on_c, 0, 79, 0
2, 213067, Note_on_c, 0, 68, 0
2, 213067, Note_on_c, 0, 56, 0
2, 213067, Note_on_c, 0, 89, 0
2, 213067, Note_on_c, 0, 63, 0
2, 213068, Note_on_c, 0, 87, 0
2, 213068, Note_on_c, 0, 75, 0
2, 213069, Control_c, 0, 64, 0
2, 213073, Note_on_c, 0, 67, 0
2, 213073, Note_on_c, 0, 98, 0
2, 213081, Note_on_c, 0, 94, 0
2, 213173, Control_c, 0, 64, 127
2, 213181, Note_on_c, 0, 86, 93
2, 213316, Note_on_c, 0, 87, 93
2, 213453, Note_on_c, 0, 89, 91
2, 213605, Note_on_c, 0, 94, 78
2, 213750, Note_on_c, 0, 98, 91
2, 213883, Note_on_c, 0, 79, 90
2, 213892, Note_on_c, 0, 74, 81
2, 213911, Note_on_c, 0, 101, 100
2, 213968, Control_c, 0, 64, 0
2, 213972, Control_c, 0, 64, 127
2, 214067, Note_on_c, 0, 99, 88
2, 214225, Note_on_c, 0, 98, 0
2, 214236, Note_on_c, 0, 98, 92
2, 214402, Note_on_c, 0, 94, 0
2, 214412, Note_on_c, 0, 94, 69
2, 214579, Note_on_c, 0, 82, 0
2, 214579, Note_on_c, 0, 89, 0
2, 214589, Note_on_c, 0, 82, 90
2, 214589, Note_on_c, 0, 89, 74
2, 214855, Note_on_c, 0, 87, 0
2, 214866, Note_on_c, 0, 87, 73
2, 215224, Note_on_c, 0, 82, 0
2, 215230, Note_on_c, 0, 82, 92
2, 215232, Note_on_c, 0, 79, 0
2, 215235, Note_on_c, 0, 60, 70
2, 215237, Note_on_c, 0, 79, 83
2, 215239, Note_on_c, 0, 77, 0
2, 215245, Note_on_c, 0, 77, 73
2, 215312, Control_c, 0, 64, 0
2, 215331, Control_c, 0, 64, 127
2, 215525, Note_on_c, 0, 84, 64
2, 215708, Note_on_c, 0, 86, 0
2, 215716, Note_on_c, 0, 86, 70
2, 215719, Note_on_c, 0, 67, 64
2, 215884, Note_on_c, 0, 87, 0
2, 215890, Note_on_c, 0, 87, 72
2, 216030, Note_on_c, 0, 89, 0
2, 216038, Note_on_c, 0, 70, 0
2, 216041, Note_on_c, 0, 89, 74
2, 216042, Note_on_c, 0, 70, 68
2, 216192, Note_on_c, 0, 94, 0
2, 216196, Note_on_c, 0, 94, 74
2, 216360, Note_on_c, 0, 74, 0
2, 216368, Note_on_c, 0, 98, 0
2, 216371, Note_on_c, 0, 74, 70
2, 216379, Note_on_c, 0, 98, 80
2, 216583, Note_on_c, 0, 94, 0
2, 216594, Note_on_c, 0, 94, 59
2, 216768, Note_on_c, 0, 70, 0
2, 216774, Note_on_c, 0, 70, 68
2, 216775, Note_on_c, 0, 98, 0
2, 216781, Note_on_c, 0, 98, 69
2, 216960, Note_on_c, 0, 58, 0
2, 216960, Note_on_c, 0, 65, 0
2, 216960, Note_on_c, 0, 101, 0
2, 217006, Note_on_c, 0, 72, 0
2, 217013, Note_on_c, 0, 99, 0
2, 217019, Note_on_c, 0, 99, 71
2, 217290, Note_on_c, 0, 77, 0
2, 217295, Note_on_c, 0, 101, 79
2, 217301, Note_on_c, 0, 77, 52
2, 218008, Note_on_c, 0, 72, 43
2, 218058, Note_on_c, 0, 77, 0
2, 218067, Note_on_c, 0, 77, 50
2, 218088, Note_on_c, 0, 79, 0
2, 218100, Note_on_c, 0, 79, 58
2, 218136, Control_c, 0, 64, 0
2, 218142, Control_c, 0, 64, 127
2, 218150, Note_on_c, 0, 84, 0
2, 218155, Note_on_c, 0, 84, 87
2, 218205, Note_on_c, 0, 96, 83
2, 219840, Note_on_c, 0, 60, 0
2, 219840, Note_on_c, 0, 82, 0
2, 220323, Note_on_c, 0, 67, 0
2, 220323, Note_on_c, 0, 86, 0
2, 220479, Note_on_c, 0, 24, 42
2, 220481, Note_on_c, 0, 36, 31
2, 220500, Note_on_c, 0, 87, 0
2, 220584, Note_on_c, 0, 99, 0
2, 220646, Note_on_c, 0, 24, 0
2, 220646, Note_on_c, 0, 36, 0
2, 220646, Note_on_c, 0, 89, 0
2, 220650, Note_on_c, 0, 36, 34
2, 220652, Note_on_c, 0, 24, 38
2, 220800, Note_on_c, 0, 70, 0
2, 220800, Note_on_c, 0, 72, 0
2, 220800, Note_on_c, 0, 74, 0
2, 220800, Note_on_c, 0, 77, 0
2, 220800, Note_on_c, 0, 79, 0
2, 220800, Note_on_c, 0, 84, 0
2, 220800, Note_on_c, 0, 94, 0
2, 220800, Note_on_c, 0, 96, 0
2, 220800, Note_on_c, 0, 98, 0
2, 220800, Note_on_c, 0, 101, 0
2, 221775, Control_c, 0, 64, 0
2, 221859, Control_c, 0, 64, 127
2, 222090, Control_c, 0, 64, 0
2, 222236, Control_c, 0, 64, 127
2, 222405, Control_c, 0, 64, 0
2, 222650, Control_c, 0, 64, 127
2, 222712, Control_c, 0, 64, 0
2, 222796, Control_c, 0, 64, 127
2, 224640, Note_on_c, 0, 36, 0
2, 224801, Note_on_c, 0, 24, 0
2, 225065, Control_c, 0, 64, 0
2, 225066, End_track
0, 0, End_of_file
