0, 0, Header, 1, 2, 384
1, 0, Start_track
1, 0, Tempo, 500000
1, 0, Time_signature, 4, 2, 24, 8
1, 1, End_track
2, 0, Start_track
2, 7, Control_c, 0, 64, 127
2, 1082, Control_c, 0, 64, 0
2, 1466, Control_c, 0, 64, 127
2, 1490, Note_on_c, 0, 63, 47
2, 1552, Note_on_c, 0, 70, 44
2, 1604, Note_on_c, 0, 75, 56
2, 1642, Note_on_c, 0, 87, 74
2, 1746, Note_on_c, 0, 82, 59
2, 1827, Note_on_c, 0, 87, 0
2, 1833, Note_on_c, 0, 87, 68
2, 1919, Note_on_c, 0, 94, 68
2, 1996, Note_on_c, 0, 87, 0
2, 2001, Note_on_c, 0, 87, 67
2, 2081, Note_on_c, 0, 82, 0
2, 2087, Note_on_c, 0, 82, 49
2, 2127, Note_on_c, 0, 87, 0
2, 2136, Note_on_c, 0, 87, 69
2, 2204, Note_on_c, 0, 94, 0
2, 2208, Note_on_c, 0, 94, 74
2, 2296, Note_on_c, 0, 87, 0
2, 2297, Note_on_c, 0, 91, 72
2, 2299, Note_on_c, 0, 79, 85
2, 2303, Note_on_c, 0, 87, 75
2, 2388, Note_on_c, 0, 82, 0
2, 2392, Note_on_c, 0, 82, 53
2, 2480, Note_on_c, 0, 63, 0
2, 2480, Note_on_c, 0, 87, 0
2, 2485, Note_on_c, 0, 87, 70
2, 2486, Note_on_c, 0, 63, 36
2, 2534, Note_on_c, 0, 94, 0
2, 2544, Note_on_c, 0, 94, 64
2, 2611, Note_on_c, 0, 87, 0
2, 2616, Note_on_c, 0, 87, 74
2, 2695, Note_on_c, 0, 82, 0
2, 2706, Note_on_c, 0, 82, 67
2, 2780, Note_on_c, 0, 87, 0
2, 2786, Note_on_c, 0, 87, 73
2, 2856, Note_on_c, 0, 94, 0
2, 2861, Note_on_c, 0, 94, 68
2, 2924, Note_on_c, 0, 77, 84
2, 2926, Note_on_c, 0, 87, 0
2, 2930, Note_on_c, 0, 87, 77
2, 3002, Note_on_c, 0, 82, 0
2, 3012, Note_on_c, 0, 82, 70
2, 3079, Note_on_c, 0, 87, 0
2, 3090, Note_on_c, 0, 87, 72
2, 3148, Note_on_c, 0, 94, 0
2, 3158, Note_on_c, 0, 94, 72
2, 3217, Note_on_c, 0, 63, 0
2, 3217, Note_on_c, 0, 87, 0
2, 3227, Note_on_c, 0, 87, 75
2, 3228, Note_on_c, 0, 63, 36
2, 3302, Note_on_c, 0, 82, 0
2, 3306, Note_on_c, 0, 82, 59
2, 3363, Note_on_c, 0, 87, 0
2, 3373, Note_on_c, 0, 87, 78
2, 3448, Note_on_c, 0, 94, 0
2, 3458, Note_on_c, 0, 94, 74
2, 3517, Note_on_c, 0, 94, 0
2, 3525, Note_on_c, 0, 82, 0
2, 3528, Note_on_c, 0, 94, 73
2, 3529, Note_on_c, 0, 82, 86
2, 3540, Note_on_c, 0, 87, 0
2, 3547, Note_on_c, 0, 87, 78
2, 3648, Note_on_c, 0, 82, 0
2, 3648, Note_on_c, 0, 94, 0
2, 3653, Note_on_c, 0, 94, 54
2, 3654, Note_on_c, 0, 82, 59
2, 3709, Note_on_c, 0, 87, 0
2, 3718, Note_on_c, 0, 87, 74
2, 3778, Note_on_c, 0, 94, 0
2, 3787, Note_on_c, 0, 94, 81
2, 3840, Note_on_c, 0, 87, 0
2, 3848, Note_on_c, 0, 87, 78
2, 3932, Note_on_c, 0, 82, 0
2, 3936, Note_on_c, 0, 82, 67
2, 4016, Note_on_c, 0, 87, 0
2, 4020, Note_on_c, 0, 87, 77
2, 4078, Note_on_c, 0, 94, 0
2, 4086, Note_on_c, 0, 94, 80
2, 4119, Note_on_c, 0, 62, 53
2, 4124, Note_on_c, 0, 70, 0
2, 4128, Note_on_c, 0, 70, 70
2, 4147, Note_on_c, 0, 77, 0
2, 4150, Control_c, 0, 64, 0
2, 4150, Note_on_c, 0, 94, 0
2, 4151, Note_on_c, 0, 82, 0
2, 4151, Note_on_c, 0, 87, 0
2, 4151, Note_on_c, 0, 75, 0
2, 4151, Note_on_c, 0, 79, 0
2, 4151, Note_on_c, 0, 91, 0
2, 4151, Note_on_c, 0, 63, 0
2, 4153, Note_on_c, 0, 89, 83
2, 4158, Note_on_c, 0, 77, 86
2, 4224, Control_c, 0, 64, 127
2, 4233, Note_on_c, 0, 82, 71
2, 4300, Note_on_c, 0, 62, 0
2, 4308, Note_on_c, 0, 89, 0
2, 4313, Note_on_c, 0, 89, 67
2, 4397, Note_on_c, 0, 94, 78
2, 4446, Note_on_c, 0, 89, 0
2, 4457, Note_on_c, 0, 89, 71
2, 4523, Note_on_c, 0, 82, 0
2, 4533, Note_on_c, 0, 82, 76
2, 4608, Note_on_c, 0, 89, 0
2, 4613, Note_on_c, 0, 89, 78
2, 4677, Note_on_c, 0, 94, 0
2, 4682, Note_on_c, 0, 94, 80
2, 4738, Note_on_c, 0, 89, 0
2, 4749, Note_on_c, 0, 89, 72
2, 4823, Note_on_c, 0, 82, 0
2, 4829, Note_on_c, 0, 82, 73
2, 4907, Note_on_c, 0, 89, 0
2, 4914, Note_on_c, 0, 89, 68
2, 4984, Note_on_c, 0, 94, 0
2, 4992, Note_on_c, 0, 94, 73
2, 5053, Note_on_c, 0, 89, 0
2, 5058, Note_on_c, 0, 89, 77
2, 5130, Note_on_c, 0, 82, 0
2, 5141, Note_on_c, 0, 82, 69
2, 5199, Note_on_c, 0, 89, 0
2, 5205, Note_on_c, 0, 89, 75
2, 5291, Note_on_c, 0, 94, 0
2, 5295, Note_on_c, 0, 94, 75
2, 5360, Note_on_c, 0, 89, 0
2, 5366, Note_on_c, 0, 89, 70
2, 5429, Note_on_c, 0, 82, 0
2, 5437, Note_on_c, 0, 82, 71
2, 5498, Note_on_c, 0, 89, 0
2, 5508, Note_on_c, 0, 89, 77
2, 5591, Note_on_c, 0, 94, 0
2, 5598, Note_on_c, 0, 94, 66
2, 5660, Note_on_c, 0, 89, 0
2, 5665, Note_on_c, 0, 92, 84
2, 5668, Note_on_c, 0, 80, 95
2, 5670, Note_on_c, 0, 89, 72
2, 5736, Note_on_c, 0, 82, 0
2, 5741, Note_on_c, 0, 82, 70
2, 5813, Note_on_c, 0, 89, 0
2, 5818, Note_on_c, 0, 89, 81
2, 5890, Note_on_c, 0, 94, 0
2, 5899, Note_on_c, 0, 94, 75
2, 5944, Note_on_c, 0, 89, 0
2, 5955, Note_on_c, 0, 89, 81
2, 5959, Note_on_c, 0, 92, 0
2, 5970, Note_on_c, 0, 79, 88
2, 6028, Note_on_c, 0, 82, 0
2, 6034, Note_on_c, 0, 82, 76
2, 6097, Note_on_c, 0, 89, 0
2, 6107, Note_on_c, 0, 89, 78
2, 6190, Note_on_c, 0, 94, 0
2, 6194, Note_on_c, 0, 94, 82
2, 6251, Note_on_c, 0, 89, 0
2, 6255, Note_on_c, 0, 86, 62
2, 6262, Note_on_c, 0, 89, 74
2, 6274, Note_on_c, 0, 77, 0
2, 6284, Note_on_c, 0, 77, 85
2, 6336, Note_on_c, 0, 82, 0
2, 6346, Note_on_c, 0, 82, 75
2, 6412, Note_on_c, 0, 89, 0
2, 6422, Note_on_c, 0, 89, 66
2, 6497, Note_on_c, 0, 94, 0
2, 6506, Note_on_c, 0, 94, 77
2, 6554, Note_on_c, 0, 60, 64
2, 6578, Control_c, 0, 64, 0
2, 6581, Note_on_c, 0, 79, 0
2, 6581, Note_on_c, 0, 77, 0
2, 6581, Note_on_c, 0, 89, 0
2, 6582, Note_on_c, 0, 80, 0
2, 6583, Note_on_c, 0, 82, 0
2, 6584, Note_on_c, 0, 94, 0
2, 6584, Note_on_c, 0, 67, 65
2, 6589, Note_on_c, 0, 86, 0
2, 6600, Note_on_c, 0, 87, 84
2, 6612, Note_on_c, 0, 70, 0
2, 6617, Note_on_c, 0, 75, 84
2, 6635, Control_c, 0, 64, 127
2, 6674, Note_on_c, 0, 82, 75
2, 6766, Note_on_c, 0, 87, 0
2, 6772, Note_on_c, 0, 87, 77
2, 6837, Note_on_c, 0, 94, 74
2, 6896, Note_on_c, 0, 87, 0
2, 6902, Note_on_c, 0, 87, 76
2, 6981, Note_on_c, 0, 82, 0
2, 6990, Note_on_c, 0, 82, 68
2, 7065, Note_on_c, 0, 87, 0
2, 7071, Note_on_c, 0, 87, 71
2, 7134, Note_on_c, 0, 94, 0
2, 7139, Note_on_c, 0, 94, 74
2, 7211, Note_on_c, 0, 87, 0
2, 7216, Note_on_c, 0, 79, 85
2, 7218, Note_on_c, 0, 87, 79
2, 7288, Note_on_c, 0, 82, 0
2, 7299, Note_on_c, 0, 82, 72
2, 7388, Note_on_c, 0, 87, 0
2, 7392, Note_on_c, 0, 87, 74
2, 7449, Note_on_c, 0, 94, 0
2, 7460, Note_on_c, 0, 94, 75
2, 7511, Note_on_c, 0, 87, 0
2, 7519, Note_on_c, 0, 87, 79
2, 7587, Note_on_c, 0, 82, 0
2, 7597, Note_on_c, 0, 82, 66
2, 7656, Note_on_c, 0, 87, 0
2, 7667, Note_on_c, 0, 87, 76
2, 7741, Note_on_c, 0, 94, 0
2, 7751, Note_on_c, 0, 94, 78
2, 7775, Note_on_c, 0, 60, 0
2, 7775, Note_on_c, 0, 82, 0
2, 7775, Note_on_c, 0, 79, 0
2, 7776, Note_on_c, 0, 87, 0
2, 7776, Note_on_c, 0, 58, 65
2, 7776, Control_c, 0, 64, 0
2, 7777, Note_on_c, 0, 75, 0
2, 7777, Note_on_c, 0, 67, 0
2, 7818, Control_c, 0, 64, 127
2, 7822, Note_on_c, 0, 65, 72
2, 7825, Note_on_c, 0, 86, 84
2, 7856, Note_on_c, 0, 94, 0
2, 7861, Note_on_c, 0, 74, 77
2, 7913, Note_on_c, 0, 82, 67
2, 7987, Note_on_c, 0, 86, 0
2, 7991, Note_on_c, 0, 86, 81
2, 8083, Note_on_c, 0, 94, 69
2, 8133, Note_on_c, 0, 86, 0
2, 8137, Note_on_c, 0, 86, 79
2, 8194, Note_on_c, 0, 82, 0
2, 8205, Note_on_c, 0, 82, 74
2, 8286, Note_on_c, 0, 86, 0
2, 8291, Note_on_c, 0, 86, 77
2, 8363, Note_on_c, 0, 94, 0
2, 8372, Note_on_c, 0, 94, 73
2, 8440, Note_on_c, 0, 86, 0
2, 8448, Note_on_c, 0, 86, 81
2, 8449, Note_on_c, 0, 79, 87
2, 8524, Note_on_c, 0, 82, 0
2, 8528, Note_on_c, 0, 82, 68
2, 8593, Note_on_c, 0, 86, 0
2, 8604, Note_on_c, 0, 86, 79
2, 8632, Note_on_c, 0, 58, 0
2, 8686, Note_on_c, 0, 94, 0
2, 8694, Note_on_c, 0, 94, 72
2, 8747, Note_on_c, 0, 86, 0
2, 8757, Note_on_c, 0, 86, 79
2, 8816, Note_on_c, 0, 82, 0
2, 8816, Note_on_c, 0, 94, 0
2, 8823, Note_on_c, 0, 82, 70
2, 8823, Note_on_c, 0, 94, 62
2, 8885, Note_on_c, 0, 86, 0
2, 8892, Note_on_c, 0, 86, 81
2, 8977, Note_on_c, 0, 94, 0
2, 8985, Note_on_c, 0, 94, 73
2, 8997, Note_on_c, 0, 56, 76
2, 9005, Note_on_c, 0, 74, 0
2, 9005, Note_on_c, 0, 79, 0
2, 9005, Note_on_c, 0, 82, 0
2, 9005, Note_on_c, 0, 65, 0
2, 9008, Control_c, 0, 64, 0
2, 9054, Control_c, 0, 64, 127
2, 9067, Note_on_c, 0, 63, 79
2, 9071, Note_on_c, 0, 84, 84
2, 9100, Note_on_c, 0, 72, 86
2, 9172, Note_on_c, 0, 82, 75
2, 9246, Note_on_c, 0, 84, 0
2, 9253, Note_on_c, 0, 84, 75
2, 9277, Note_on_c, 0, 86, 0
2, 9323, Note_on_c, 0, 94, 0
2, 9332, Note_on_c, 0, 94, 72
2, 9377, Note_on_c, 0, 84, 0
2, 9388, Note_on_c, 0, 84, 80
2, 9461, Note_on_c, 0, 82, 0
2, 9471, Note_on_c, 0, 82, 76
2, 9546, Note_on_c, 0, 84, 0
2, 9555, Note_on_c, 0, 84, 71
2, 9630, Note_on_c, 0, 94, 0
2, 9640, Note_on_c, 0, 94, 75
2, 9699, Note_on_c, 0, 84, 0
2, 9705, Note_on_c, 0, 84, 71
2, 9784, Note_on_c, 0, 82, 0
2, 9789, Note_on_c, 0, 82, 69
2, 9861, Note_on_c, 0, 84, 0
2, 9865, Note_on_c, 0, 84, 62
2, 9937, Note_on_c, 0, 94, 0
2, 9948, Note_on_c, 0, 94, 61
2, 9999, Note_on_c, 0, 84, 0
2, 10006, Note_on_c, 0, 84, 73
2, 10032, Note_on_c, 0, 68, 58
2, 10091, Note_on_c, 0, 82, 0
2, 10100, Note_on_c, 0, 82, 64
2, 10160, Note_on_c, 0, 84, 0
2, 10166, Note_on_c, 0, 84, 68
2, 10184, Note_on_c, 0, 70, 60
2, 10260, Note_on_c, 0, 94, 0
2, 10268, Note_on_c, 0, 94, 68
2, 10321, Note_on_c, 0, 72, 0
2, 10331, Note_on_c, 0, 72, 74
2, 10344, Note_on_c, 0, 84, 0
2, 10353, Note_on_c, 0, 84, 71
2, 10421, Note_on_c, 0, 82, 0
2, 10426, Note_on_c, 0, 82, 69
2, 10452, Note_on_c, 0, 70, 0
2, 10462, Note_on_c, 0, 70, 66
2, 10483, Note_on_c, 0, 84, 0
2, 10488, Note_on_c, 0, 84, 73
2, 10606, Note_on_c, 0, 94, 0
2, 10611, Note_on_c, 0, 94, 51
2, 10644, Note_on_c, 0, 72, 0
2, 10654, Note_on_c, 0, 72, 70
2, 10675, Note_on_c, 0, 84, 0
2, 10679, Note_on_c, 0, 84, 66
2, 10744, Note_on_c, 0, 82, 0
2, 10751, Note_on_c, 0, 82, 69
2, 10805, Note_on_c, 0, 84, 0
2, 10810, Note_on_c, 0, 84, 73
2, 10816, Note_on_c, 0, 74, 69
2, 10913, Note_on_c, 0, 94, 0
2, 10921, Note_on_c, 0, 94, 66
2, 10982, Note_on_c, 0, 84, 0
2, 10990, Note_on_c, 0, 75, 76
2, 10993, Note_on_c, 0, 84, 78
2, 11074, Note_on_c, 0, 82, 0
2, 11080, Note_on_c, 0, 82, 63
2, 11151, Note_on_c, 0, 74, 0
2, 11162, Note_on_c, 0, 74, 75
2, 11166, Note_on_c, 0, 84, 0
2, 11175, Note_on_c, 0, 84, 73
2, 11297, Note_on_c, 0, 94, 0
2, 11307, Note_on_c, 0, 94, 59
2, 11358, Note_on_c, 0, 75, 0
2, 11365, Note_on_c, 0, 75, 71
2, 11374, Note_on_c, 0, 84, 0
2, 11380, Note_on_c, 0, 63, 0
2, 11385, Note_on_c, 0, 84, 76
2, 11489, Note_on_c, 0, 82, 0
2, 11493, Note_on_c, 0, 82, 76
2, 11591, Note_on_c, 0, 77, 67
2, 11604, Note_on_c, 0, 84, 0
2, 11609, Note_on_c, 0, 84, 68
2, 11742, Note_on_c, 0, 94, 0
2, 11748, Note_on_c, 0, 94, 72
2, 11886, Note_on_c, 0, 58, 58
2, 11930, Note_on_c, 0, 65, 59
2, 11969, Note_on_c, 0, 82, 0
2, 11969, Note_on_c, 0, 94, 0
2, 11969, Control_c, 0, 64, 0
2, 11969, Note_on_c, 0, 68, 0
2, 11969, Note_on_c, 0, 74, 0
2, 11969, Note_on_c, 0, 84, 0
2, 11971, Note_on_c, 0, 75, 0
2, 11971, Note_on_c, 0, 56, 0
2, 11973, Note_on_c, 0, 70, 0
2, 11982, Note_on_c, 0, 70, 63
2, 11988, Note_on_c, 0, 72, 0
2, 12003, Note_on_c, 0, 77, 0
2, 12009, Note_on_c, 0, 77, 62
2, 12057, Control_c, 0, 64, 127
2, 12104, Note_on_c, 0, 82, 65
2, 12198, Note_on_c, 0, 94, 92
2, 12226, Note_on_c, 0, 70, 0
2, 12636, Note_on_c, 0, 92, 79
2, 12645, Note_on_c, 0, 89, 69
2, 12820, Note_on_c, 0, 87, 72
2, 12821, Note_on_c, 0, 91, 69
2, 12940, Note_on_c, 0, 89, 0
2, 12945, Note_on_c, 0, 86, 81
2, 12945, Note_on_c, 0, 89, 80
2, 13051, Note_on_c, 0, 84, 69
2, 13056, Note_on_c, 0, 87, 0
2, 13062, Note_on_c, 0, 87, 75
2, 13155, Note_on_c, 0, 82, 0
2, 13155, Note_on_c, 0, 86, 0
2, 13161, Note_on_c, 0, 82, 65
2, 13166, Note_on_c, 0, 86, 76
2, 13178, Note_on_c, 0, 77, 0
2, 13271, Note_on_c, 0, 87, 0
2, 13271, Note_on_c, 0, 91, 0
2, 13277, Note_on_c, 0, 91, 77
2, 13282, Note_on_c, 0, 87, 77
2, 13363, Note_on_c, 0, 86, 0
2, 13363, Note_on_c, 0, 89, 0
2, 13371, Note_on_c, 0, 86, 88
2, 13373, Note_on_c, 0, 89, 75
2, 13470, Note_on_c, 0, 84, 0
2, 13470, Note_on_c, 0, 87, 0
2, 13475, Note_on_c, 0, 84, 60
2, 13481, Note_on_c, 0, 87, 72
2, 13524, Note_on_c, 0, 82, 0
2, 13531, Note_on_c, 0, 82, 73
2, 13555, Note_on_c, 0, 86, 0
2, 13560, Note_on_c, 0, 86, 83
2, 13635, Note_on_c, 0, 80, 74
2, 13647, Note_on_c, 0, 84, 0
2, 13651, Note_on_c, 0, 84, 69
2, 13708, Note_on_c, 0, 82, 0
2, 13719, Note_on_c, 0, 82, 69
2, 13793, Note_on_c, 0, 84, 0
2, 13800, Note_on_c, 0, 84, 81
2, 13816, Note_on_c, 0, 87, 0
2, 13826, Note_on_c, 0, 87, 74
2, 13900, Note_on_c, 0, 82, 0
2, 13900, Note_on_c, 0, 86, 0
2, 13908, Note_on_c, 0, 82, 75
2, 13908, Note_on_c, 0, 86, 77
2, 13969, Note_on_c, 0, 80, 0
2, 13977, Note_on_c, 0, 84, 0
2, 13977, Note_on_c, 0, 92, 0
2, 13980, Note_on_c, 0, 80, 78
2, 13981, Note_on_c, 0, 92, 70
2, 13984, Note_on_c, 0, 84, 80
2, 14062, Note_on_c, 0, 82, 0
2, 14067, Note_on_c, 0, 79, 76
2, 14072, Note_on_c, 0, 82, 75
2, 14146, Note_on_c, 0, 80, 0
2, 14155, Note_on_c, 0, 77, 73
2, 14155, Note_on_c, 0, 80, 77
2, 14215, Note_on_c, 0, 75, 81
2, 14215, Note_on_c, 0, 79, 0
2, 14221, Note_on_c, 0, 79, 73
2, 14284, Note_on_c, 0, 84, 0
2, 14289, Note_on_c, 0, 84, 90
2, 14307, Note_on_c, 0, 80, 0
2, 14312, Note_on_c, 0, 80, 76
2, 14384, Note_on_c, 0, 79, 0
2, 14384, Note_on_c, 0, 82, 0
2, 14389, Note_on_c, 0, 82, 83
2, 14389, Note_on_c, 0, 79, 72
2, 14461, Note_on_c, 0, 77, 0
2, 14461, Note_on_c, 0, 80, 0
2, 14470, Note_on_c, 0, 80, 77
2, 14472, Note_on_c, 0, 77, 68
2, 14522, Note_on_c, 0, 75, 0
2, 14530, Note_on_c, 0, 75, 76
2, 14553, Note_on_c, 0, 79, 0
2, 14562, Note_on_c, 0, 79, 73
2, 14645, Note_on_c, 0, 77, 0
2, 14650, Note_on_c, 0, 74, 62
2, 14650, Note_on_c, 0, 77, 69
2, 14693, Note_on_c, 0, 72, 83
2, 14730, Note_on_c, 0, 75, 0
2, 14734, Note_on_c, 0, 75, 60
2, 14837, Note_on_c, 0, 77, 0
2, 14837, Note_on_c, 0, 80, 0
2, 14846, Note_on_c, 0, 80, 77
2, 14849, Note_on_c, 0, 77, 76
2, 14937, Note_on_c, 0, 75, 0
2, 14937, Note_on_c, 0, 79, 0
2, 14942, Note_on_c, 0, 79, 63
2, 14948, Note_on_c, 0, 75, 73
2, 15022, Note_on_c, 0, 77, 0
2, 15027, Note_on_c, 0, 77, 79
2, 15029, Note_on_c, 0, 74, 0
2, 15040, Note_on_c, 0, 74, 74
2, 15106, Note_on_c, 0, 72, 0
2, 15106, Note_on_c, 0, 75, 0
2, 15110, Note_on_c, 0, 75, 72
2, 15112, Note_on_c, 0, 72, 62
2, 15191, Note_on_c, 0, 74, 0
2, 15198, Note_on_c, 0, 70, 68
2, 15200, Note_on_c, 0, 74, 81
2, 15258, Note_on_c, 0, 68, 75
2, 15267, Note_on_c, 0, 72, 0
2, 15272, Note_on_c, 0, 72, 75
2, 15330, Note_on_c, 0, 67, 70
2, 15352, Note_on_c, 0, 70, 0
2, 15361, Note_on_c, 0, 70, 74
2, 15398, Note_on_c, 0, 65, 0
2, 15402, Note_on_c, 0, 65, 68
2, 15429, Note_on_c, 0, 68, 0
2, 15440, Note_on_c, 0, 68, 74
2, 15486, Note_on_c, 0, 63, 66
2, 15505, Note_on_c, 0, 67, 0
2, 15515, Note_on_c, 0, 67, 75
2, 15557, Note_on_c, 0, 62, 76
2, 15575, Note_on_c, 0, 65, 0
2, 15584, Note_on_c, 0, 65, 75
2, 15623, Note_on_c, 0, 94, 0
2, 15624, Note_on_c, 0, 63, 0
2, 15624, Note_on_c, 0, 75, 0
2, 15625, Note_on_c, 0, 87, 0
2, 15626, Note_on_c, 0, 92, 0
2, 15626, Note_on_c, 0, 70, 0
2, 15627, Note_on_c, 0, 80, 0
2, 15627, Note_on_c, 0, 82, 0
2, 15627, Note_on_c, 0, 86, 0
2, 15628, Note_on_c, 0, 68, 0
2, 15628, Note_on_c, 0, 67, 0
2, 15628, Note_on_c, 0, 58, 0
2, 15628, Note_on_c, 0, 91, 0
2, 15629, Note_on_c, 0, 79, 0
2, 15629, Control_c, 0, 64, 0
2, 15630, Note_on_c, 0, 84, 0
2, 15630, Note_on_c, 0, 74, 0
2, 15630, Note_on_c, 0, 77, 0
2, 15630, Note_on_c, 0, 62, 0
2, 15631, Note_on_c, 0, 72, 0
2, 15631, Note_on_c, 0, 65, 0
2, 15644, Note_on_c, 0, 89, 0
2, 15648, Note_on_c, 0, 60, 68
2, 15653, Note_on_c, 0, 63, 70
2, 15696, Note_on_c, 0, 60, 0
2, 15712, Note_on_c, 0, 58, 68
2, 15730, Note_on_c, 0, 62, 74
2, 15753, Note_on_c, 0, 63, 0
2, 15797, Note_on_c, 0, 56, 74
2, 15805, Note_on_c, 0, 62, 0
2, 15817, Note_on_c, 0, 58, 0
2, 15825, Note_on_c, 0, 60, 79
2, 15848, Note_on_c, 0, 56, 0
2, 15893, Note_on_c, 0, 60, 0
2, 15902, Note_on_c, 0, 55, 64
2, 15920, Note_on_c, 0, 58, 69
2, 16022, Note_on_c, 0, 53, 63
2, 16025, Note_on_c, 0, 55, 0
2, 16026, Note_on_c, 0, 56, 71
2, 16074, Note_on_c, 0, 58, 0
2, 16132, Note_on_c, 0, 53, 0
2, 16168, Note_on_c, 0, 55, 56
2, 16168, Note_on_c, 0, 51, 57
2, 16192, Note_on_c, 0, 56, 0
2, 16352, Note_on_c, 0, 55, 0
2, 16359, Note_on_c, 0, 53, 54
2, 16381, Note_on_c, 0, 50, 48
2, 16384, Note_on_c, 0, 51, 0
2, 16405, Note_on_c, 0, 46, 49
2, 19176, Control_c, 0, 64, 127
2, 19739, Note_on_c, 0, 75, 61
2, 19946, Note_on_c, 0, 77, 76
2, 20106, Note_on_c, 0, 75, 0
2, 20115, Note_on_c, 0, 75, 77
2, 20269, Note_on_c, 0, 70, 64
2, 20321, Note_on_c, 0, 75, 0
2, 20325, Note_on_c, 0, 48, 55
2, 20328, Note_on_c, 0, 75, 77
2, 20331, Control_c, 0, 64, 0
2, 20336, Note_on_c, 0, 53, 0
2, 20359, Control_c, 0, 64, 127
2, 20377, Note_on_c, 0, 82, 89
2, 20551, Note_on_c, 0, 82, 0
2, 20555, Note_on_c, 0, 55, 51
2, 20555, Note_on_c, 0, 82, 73
2, 20559, Note_on_c, 0, 46, 0
2, 20732, Note_on_c, 0, 60, 50
2, 20871, Note_on_c, 0, 62, 61
2, 20897, Note_on_c, 0, 77, 0
2, 20989, Note_on_c, 0, 50, 0
2, 21035, Note_on_c, 0, 82, 0
2, 21045, Note_on_c, 0, 82, 86
2, 21064, Note_on_c, 0, 63, 63
2, 21204, Note_on_c, 0, 82, 0
2, 21214, Note_on_c, 0, 82, 79
2, 21243, Note_on_c, 0, 67, 54
2, 21410, Note_on_c, 0, 72, 66
2, 21565, Note_on_c, 0, 82, 0
2, 21573, Note_on_c, 0, 82, 83
2, 21687, Note_on_c, 0, 59, 60
2, 21734, Note_on_c, 0, 63, 0
2, 21744, Note_on_c, 0, 63, 54
2, 21747, Note_on_c, 0, 71, 65
2, 21772, Note_on_c, 0, 75, 0
2, 21777, Note_on_c, 0, 75, 66
2, 21778, Note_on_c, 0, 68, 61
2, 21792, Control_c, 0, 64, 0
2, 21797, Note_on_c, 0, 82, 0
2, 21798, Note_on_c, 0, 55, 0
2, 21799, Note_on_c, 0, 67, 0
2, 21799, Note_on_c, 0, 48, 0
2, 21799, Note_on_c, 0, 60, 0
2, 21799, Note_on_c, 0, 72, 0
2, 21799, Note_on_c, 0, 62, 0
2, 21800, Note_on_c, 0, 70, 0
2, 21808, Note_on_c, 0, 80, 84
2, 21988, Note_on_c, 0, 79, 78
2, 22029, Note_on_c, 0, 80, 0
2, 22164, Note_on_c, 0, 80, 79
2, 22385, Note_on_c, 0, 82, 76
2, 22421, Note_on_c, 0, 79, 0
2, 22421, Note_on_c, 0, 80, 0
2, 22563, Control_c, 0, 64, 127
2, 22917, Note_on_c, 0, 75, 0
2, 22921, Note_on_c, 0, 75, 60
2, 23103, Note_on_c, 0, 77, 75
2, 23255, Note_on_c, 0, 75, 0
2, 23264, Note_on_c, 0, 75, 78
2, 23412, Note_on_c, 0, 70, 68
2, 23428, Note_on_c, 0, 59, 0
2, 23428, Note_on_c, 0, 68, 0
2, 23428, Note_on_c, 0, 82, 0
2, 23428, Note_on_c, 0, 71, 0
2, 23429, Note_on_c, 0, 77, 0
2, 23430, Control_c, 0, 64, 0
2, 23439, Note_on_c, 0, 63, 0
2, 23454, Note_on_c, 0, 75, 0
2, 23458, Note_on_c, 0, 46, 59
2, 23463, Note_on_c, 0, 75, 76
2, 23493, Control_c, 0, 64, 127
2, 23513, Note_on_c, 0, 82, 85
2, 23669, Note_on_c, 0, 82, 0
2, 23681, Note_on_c, 0, 82, 82
2, 23689, Note_on_c, 0, 55, 49
2, 23842, Note_on_c, 0, 58, 61
2, 24004, Note_on_c, 0, 63, 68
2, 24153, Note_on_c, 0, 82, 0
2, 24162, Note_on_c, 0, 82, 88
2, 24188, Note_on_c, 0, 65, 59
2, 24314, Note_on_c, 0, 58, 0
2, 24314, Note_on_c, 0, 82, 0
2, 24322, Note_on_c, 0, 82, 88
2, 24324, Note_on_c, 0, 58, 47
2, 24359, Note_on_c, 0, 67, 56
2, 24491, Note_on_c, 0, 70, 0
2, 24496, Note_on_c, 0, 70, 70
2, 24652, Note_on_c, 0, 82, 0
2, 24657, Note_on_c, 0, 82, 85
2, 24798, Note_on_c, 0, 63, 0
2, 24802, Note_on_c, 0, 57, 60
2, 24807, Note_on_c, 0, 63, 58
2, 24834, Note_on_c, 0, 72, 77
2, 24860, Note_on_c, 0, 75, 0
2, 24867, Note_on_c, 0, 67, 0
2, 24871, Note_on_c, 0, 75, 70
2, 24872, Note_on_c, 0, 67, 53
2, 24894, Note_on_c, 0, 82, 0
2, 24894, Note_on_c, 0, 55, 0
2, 24898, Note_on_c, 0, 65, 0
2, 24898, Note_on_c, 0, 70, 0
2, 24899, Control_c, 0, 64, 0
2, 24899, Note_on_c, 0, 58, 0
2, 24901, Note_on_c, 0, 46, 0
2, 24920, Note_on_c, 0, 84, 90
2, 25251, Note_on_c, 0, 79, 78
2, 25454, Note_on_c, 0, 77, 77
2, 25820, Note_on_c, 0, 79, 0
2, 25829, Note_on_c, 0, 79, 72
2, 26027, Control_c, 0, 64, 127
2, 26050, Note_on_c, 0, 75, 0
2, 26055, Note_on_c, 0, 75, 64
2, 26526, Note_on_c, 0, 84, 0
2, 26554, Note_on_c, 0, 41, 52
2, 26582, Note_on_c, 0, 79, 0
2, 26583, Control_c, 0, 64, 0
2, 26583, Note_on_c, 0, 57, 0
2, 26584, Note_on_c, 0, 75, 0
2, 26595, Note_on_c, 0, 67, 0
2, 26603, Note_on_c, 0, 63, 0
2, 26603, Note_on_c, 0, 72, 0
2, 26611, Note_on_c, 0, 77, 0
2, 26695, Control_c, 0, 64, 127
2, 26785, Note_on_c, 0, 48, 58
2, 26966, Note_on_c, 0, 60, 72
2, 26966, Note_on_c, 0, 56, 67
2, 27143, Note_on_c, 0, 53, 47
2, 27308, Note_on_c, 0, 63, 82
2, 27348, Note_on_c, 0, 60, 0
2, 27355, Note_on_c, 0, 60, 59
2, 27456, Note_on_c, 0, 56, 0
2, 27462, Note_on_c, 0, 56, 64
2, 27624, Note_on_c, 0, 63, 0
2, 27628, Note_on_c, 0, 68, 90
2, 27629, Note_on_c, 0, 63, 55
2, 27770, Note_on_c, 0, 60, 0
2, 27779, Note_on_c, 0, 60, 68
2, 27970, Note_on_c, 0, 63, 0
2, 27970, Note_on_c, 0, 67, 81
2, 27977, Note_on_c, 0, 63, 69
2, 27980, Note_on_c, 0, 48, 0
2, 27980, Note_on_c, 0, 56, 0
2, 27980, Note_on_c, 0, 53, 0
2, 27981, Note_on_c, 0, 68, 0
2, 27982, Control_c, 0, 64, 0
2, 27985, Note_on_c, 0, 41, 0
2, 27985, Note_on_c, 0, 60, 0
2, 27995, Note_on_c, 0, 41, 54
2, 27996, Note_on_c, 0, 60, 51
2, 28093, Control_c, 0, 64, 127
2, 28161, Note_on_c, 0, 48, 61
2, 28312, Note_on_c, 0, 70, 83
2, 28313, Note_on_c, 0, 53, 64
2, 28462, Note_on_c, 0, 67, 0
2, 28466, Note_on_c, 0, 67, 82
2, 28472, Note_on_c, 0, 55, 60
2, 28629, Note_on_c, 0, 56, 67
2, 28792, Note_on_c, 0, 60, 0
2, 28802, Note_on_c, 0, 60, 63
2, 28953, Note_on_c, 0, 63, 0
2, 28960, Note_on_c, 0, 63, 60
2, 29145, Note_on_c, 0, 53, 0
2, 29149, Note_on_c, 0, 53, 59
2, 29372, Note_on_c, 0, 43, 68
2, 29404, Note_on_c, 0, 67, 0
2, 29404, Note_on_c, 0, 41, 0
2, 29404, Control_c, 0, 64, 0
2, 29404, Note_on_c, 0, 55, 0
2, 29404, Note_on_c, 0, 56, 0
2, 29405, Note_on_c, 0, 53, 0
2, 29405, Note_on_c, 0, 48, 0
2, 29405, Note_on_c, 0, 60, 0
2, 29406, Note_on_c, 0, 63, 0
2, 29407, Note_on_c, 0, 70, 0
2, 29491, Control_c, 0, 64, 127
2, 29535, Note_on_c, 0, 50, 62
2, 29695, Note_on_c, 0, 79, 91
2, 29699, Note_on_c, 0, 59, 66
2, 29710, Note_on_c, 0, 74, 65
2, 29711, Note_on_c, 0, 71, 72
2, 29716, Note_on_c, 0, 67, 63
2, 29849, Note_on_c, 0, 55, 65
2, 30013, Note_on_c, 0, 78, 99
2, 30013, Note_on_c, 0, 74, 0
2, 30018, Note_on_c, 0, 62, 68
2, 30019, Note_on_c, 0, 66, 71
2, 30021, Note_on_c, 0, 71, 0
2, 30024, Note_on_c, 0, 74, 68
2, 30028, Note_on_c, 0, 71, 72
2, 30159, Note_on_c, 0, 59, 0
2, 30170, Note_on_c, 0, 59, 69
2, 30320, Note_on_c, 0, 71, 0
2, 30320, Note_on_c, 0, 74, 0
2, 30320, Note_on_c, 0, 79, 0
2, 30330, Note_on_c, 0, 79, 93
2, 30331, Note_on_c, 0, 74, 75
2, 30332, Note_on_c, 0, 71, 84
2, 30336, Note_on_c, 0, 55, 0
2, 30336, Note_on_c, 0, 67, 0
2, 30342, Note_on_c, 0, 67, 63
2, 30344, Note_on_c, 0, 55, 58
2, 30481, Note_on_c, 0, 62, 0
2, 30488, Note_on_c, 0, 62, 71
2, 30594, Note_on_c, 0, 72, 77
2, 30646, Note_on_c, 0, 59, 0
2, 30646, Note_on_c, 0, 55, 0
2, 30646, Note_on_c, 0, 74, 0
2, 30646, Note_on_c, 0, 78, 0
2, 30646, Note_on_c, 0, 67, 0
2, 30646, Note_on_c, 0, 62, 0
2, 30646, Note_on_c, 0, 43, 0
2, 30647, Note_on_c, 0, 50, 0
2, 30647, Note_on_c, 0, 66, 0
2, 30648, Control_c, 0, 64, 0
2, 30655, Note_on_c, 0, 75, 79
2, 30655, Note_on_c, 0, 48, 65
2, 30660, Note_on_c, 0, 84, 100
2, 30666, Note_on_c, 0, 71, 0
2, 30727, Control_c, 0, 64, 127
2, 30818, Note_on_c, 0, 55, 59
2, 30973, Note_on_c, 0, 72, 0
2, 30973, Note_on_c, 0, 79, 0
2, 30977, Note_on_c, 0, 60, 67
2, 30978, Note_on_c, 0, 79, 84
2, 30984, Note_on_c, 0, 72, 65
2, 31142, Note_on_c, 0, 72, 0
2, 31144, Note_on_c, 0, 77, 84
2, 31146, Note_on_c, 0, 62, 59
2, 31146, Note_on_c, 0, 72, 66
2, 31301, Note_on_c, 0, 63, 65
2, 31449, Note_on_c, 0, 75, 0
2, 31460, Note_on_c, 0, 75, 85
2, 31461, Note_on_c, 0, 67, 61
2, 31633, Note_on_c, 0, 72, 0
2, 31633, Note_on_c, 0, 75, 0
2, 31638, Note_on_c, 0, 72, 66
2, 31639, Note_on_c, 0, 75, 76
2, 31818, Note_on_c, 0, 60, 0
2, 31822, Note_on_c, 0, 60, 66
2, 32025, Note_on_c, 0, 72, 0
2, 32029, Note_on_c, 0, 72, 49
2, 32032, Note_on_c, 0, 41, 56
2, 32037, Note_on_c, 0, 62, 0
2, 32037, Note_on_c, 0, 55, 0
2, 32038, Note_on_c, 0, 63, 0
2, 32038, Note_on_c, 0, 60, 0
2, 32039, Note_on_c, 0, 48, 0
2, 32040, Control_c, 0, 64, 0
2, 32040, Note_on_c, 0, 84, 0
2, 32044, Note_on_c, 0, 67, 0
2, 32044, Note_on_c, 0, 79, 0
2, 32047, Note_on_c, 0, 77, 0
2, 32050, Note_on_c, 0, 75, 0
2, 32171, Control_c, 0, 64, 127
2, 32216, Note_on_c, 0, 63, 74
2, 32235, Note_on_c, 0, 48, 51
2, 32371, Note_on_c, 0, 68, 87
2, 32371, Note_on_c, 0, 72, 0
2, 32390, Note_on_c, 0, 53, 56
2, 32530, Note_on_c, 0, 67, 78
2, 32534, Note_on_c, 0, 55, 63
2, 32670, Note_on_c, 0, 68, 0
2, 32681, Note_on_c, 0, 68, 77
2, 32698, Note_on_c, 0, 56, 68
2, 32847, Note_on_c, 0, 67, 0
2, 32851, Note_on_c, 0, 67, 79
2, 32854, Note_on_c, 0, 60, 71
2, 32993, Note_on_c, 0, 63, 0
2, 32997, Note_on_c, 0, 63, 78
2, 33154, Note_on_c, 0, 53, 0
2, 33159, Note_on_c, 0, 53, 69
2, 33328, Note_on_c, 0, 46, 76
2, 33365, Note_on_c, 0, 41, 0
2, 33365, Note_on_c, 0, 53, 0
2, 33365, Note_on_c, 0, 67, 0
2, 33365, Note_on_c, 0, 55, 0
2, 33366, Note_on_c, 0, 63, 0
2, 33366, Note_on_c, 0, 56, 0
2, 33366, Note_on_c, 0, 68, 0
2, 33366, Note_on_c, 0, 60, 0
2, 33366, Note_on_c, 0, 48, 0
2, 33366, Control_c, 0, 64, 0
2, 33454, Control_c, 0, 64, 127
2, 33494, Note_on_c, 0, 75, 89
2, 33496, Note_on_c, 0, 63, 74
2, 33497, Note_on_c, 0, 53, 71
2, 33653, Note_on_c, 0, 46, 0
2, 33659, Note_on_c, 0, 80, 95
2, 33664, Note_on_c, 0, 58, 75
2, 33664, Note_on_c, 0, 68, 87
2, 33665, Note_on_c, 0, 46, 71
2, 33811, Note_on_c, 0, 60, 70
2, 33824, Note_on_c, 0, 79, 88
2, 33828, Note_on_c, 0, 67, 71
2, 33968, Note_on_c, 0, 80, 0
2, 33976, Note_on_c, 0, 68, 0
2, 33978, Note_on_c, 0, 80, 90
2, 33979, Note_on_c, 0, 62, 68
2, 33981, Note_on_c, 0, 68, 78
2, 34129, Note_on_c, 0, 79, 0
2, 34137, Note_on_c, 0, 79, 83
2, 34137, Note_on_c, 0, 67, 0
2, 34141, Note_on_c, 0, 65, 69
2, 34146, Note_on_c, 0, 67, 74
2, 34298, Note_on_c, 0, 75, 0
2, 34305, Note_on_c, 0, 75, 86
2, 34334, Note_on_c, 0, 70, 61
2, 34475, Note_on_c, 0, 58, 0
2, 34475, Note_on_c, 0, 67, 0
2, 34479, Note_on_c, 0, 58, 68
2, 34479, Note_on_c, 0, 67, 53
2, 34652, Note_on_c, 0, 65, 0
2, 34656, Note_on_c, 0, 65, 61
2, 34682, Note_on_c, 0, 75, 0
2, 34689, Control_c, 0, 64, 0
2, 34690, Note_on_c, 0, 75, 78
2, 34693, Note_on_c, 0, 63, 0
2, 34693, Note_on_c, 0, 60, 0
2, 34693, Note_on_c, 0, 80, 0
2, 34693, Note_on_c, 0, 62, 0
2, 34693, Note_on_c, 0, 53, 0
2, 34694, Note_on_c, 0, 58, 0
2, 34694, Note_on_c, 0, 79, 0
2, 34694, Note_on_c, 0, 67, 0
2, 34694, Note_on_c, 0, 46, 0
2, 34694, Note_on_c, 0, 68, 0
2, 34694, Note_on_c, 0, 70, 0
2, 34695, Note_on_c, 0, 39, 55
2, 34698, Note_on_c, 0, 77, 92
2, 34790, Control_c, 0, 64, 127
2, 34805, Note_on_c, 0, 65, 0
2, 34892, Note_on_c, 0, 46, 66
2, 34905, Note_on_c, 0, 77, 0
2, 34909, Note_on_c, 0, 77, 79
2, 35066, Note_on_c, 0, 51, 63
2, 35237, Note_on_c, 0, 53, 59
2, 35248, Note_on_c, 0, 79, 78
2, 35420, Note_on_c, 0, 77, 0
2, 35425, Note_on_c, 0, 77, 84
2, 35437, Note_on_c, 0, 55, 49
2, 35633, Note_on_c, 0, 58, 56
2, 35811, Note_on_c, 0, 75, 0
2, 35823, Note_on_c, 0, 75, 75
2, 35831, Note_on_c, 0, 63, 53
2, 36042, Note_on_c, 0, 75, 0
2, 36051, Note_on_c, 0, 75, 75
2, 36077, Note_on_c, 0, 65, 49
2, 36372, Note_on_c, 0, 58, 0
2, 36382, Note_on_c, 0, 67, 48
2, 36382, Note_on_c, 0, 58, 33
2, 37862, Note_on_c, 0, 79, 0
2, 37900, Note_on_c, 0, 39, 0
2, 37903, Note_on_c, 0, 58, 0
2, 37908, Note_on_c, 0, 46, 0
2, 37912, Control_c, 0, 64, 0
2, 37916, Note_on_c, 0, 51, 0
2, 37916, Note_on_c, 0, 55, 0
2, 37923, Note_on_c, 0, 53, 0
2, 37939, Note_on_c, 0, 77, 0
2, 37946, Note_on_c, 0, 65, 0
2, 38353, Control_c, 0, 64, 127
2, 38467, Note_on_c, 0, 87, 78
2, 38794, Note_on_c, 0, 86, 91
2, 38868, Note_on_c, 0, 67, 0
2, 39091, Note_on_c, 0, 63, 0
2, 39091, Note_on_c, 0, 87, 0
2, 39095, Note_on_c, 0, 87, 77
2, 39097, Note_on_c, 0, 63, 31
2, 39266, Note_on_c, 0, 82, 85
2, 39431, Note_on_c, 0, 79, 64
2, 39567, Note_on_c, 0, 75, 0
2, 39576, Note_on_c, 0, 75, 60
2, 39742, Note_on_c, 0, 80, 77
2, 39747, Note_on_c, 0, 70, 53
2, 39901, Note_on_c, 0, 68, 57
2, 40049, Control_c, 0, 64, 0
2, 40051, Note_on_c, 0, 79, 0
2, 40055, Note_on_c, 0, 79, 83
2, 40055, Note_on_c, 0, 67, 63
2, 40056, Note_on_c, 0, 70, 0
2, 40057, Note_on_c, 0, 86, 0
2, 40058, Note_on_c, 0, 63, 0
2, 40059, Note_on_c, 0, 82, 0
2, 40060, Note_on_c, 0, 68, 0
2, 40060, Note_on_c, 0, 87, 0
2, 40060, Note_on_c, 0, 75, 0
2, 40061, Note_on_c, 0, 80, 0
2, 40151, Control_c, 0, 64, 127
2, 40202, Note_on_c, 0, 70, 55
2, 40368, Note_on_c, 0, 75, 72
2, 40368, Note_on_c, 0, 80, 78
2, 40512, Note_on_c, 0, 79, 0
2, 40520, Note_on_c, 0, 79, 69
2, 40521, Note_on_c, 0, 82, 82
2, 40716, Control_c, 0, 64, 0
2, 40717, Note_on_c, 0, 63, 58
2, 40723, Note_on_c, 0, 67, 0
2, 40723, Note_on_c, 0, 80, 0
2, 40724, Note_on_c, 0, 75, 0
2, 40725, Note_on_c, 0, 70, 0
2, 41048, Note_on_c, 0, 87, 83
2, 41387, Control_c, 0, 64, 127
2, 41394, Note_on_c, 0, 86, 91
2, 41694, Note_on_c, 0, 87, 0
2, 41698, Note_on_c, 0, 87, 81
2, 41809, Note_on_c, 0, 79, 0
2, 41863, Note_on_c, 0, 63, 0
2, 41863, Note_on_c, 0, 82, 0
2, 41873, Note_on_c, 0, 63, 37
2, 41874, Note_on_c, 0, 82, 80
2, 42027, Note_on_c, 0, 77, 75
2, 42055, Control_c, 0, 64, 0
2, 42056, Note_on_c, 0, 63, 0
2, 42057, Note_on_c, 0, 87, 0
2, 42057, Note_on_c, 0, 86, 0
2, 42155, Control_c, 0, 64, 127
2, 42171, Note_on_c, 0, 74, 65
2, 42293, Note_on_c, 0, 82, 0
2, 42328, Note_on_c, 0, 70, 61
2, 42329, Note_on_c, 0, 80, 78
2, 42343, Note_on_c, 0, 77, 0
2, 42349, Control_c, 0, 64, 0
2, 42424, Control_c, 0, 64, 127
2, 42484, Note_on_c, 0, 65, 49
2, 42628, Control_c, 0, 64, 0
2, 42635, Note_on_c, 0, 70, 0
2, 42638, Note_on_c, 0, 65, 0
2, 42646, Note_on_c, 0, 62, 57
2, 42648, Note_on_c, 0, 79, 80
2, 42650, Note_on_c, 0, 80, 0
2, 42670, Note_on_c, 0, 74, 0
2, 42731, Control_c, 0, 64, 127
2, 42808, Note_on_c, 0, 63, 69
2, 42950, Note_on_c, 0, 80, 78
2, 42951, Note_on_c, 0, 65, 60
2, 43108, Note_on_c, 0, 82, 86
2, 43110, Note_on_c, 0, 70, 61
2, 43243, Control_c, 0, 64, 0
2, 43243, Note_on_c, 0, 80, 0
2, 43243, Note_on_c, 0, 79, 0
2, 43243, Note_on_c, 0, 63, 0
2, 43243, Note_on_c, 0, 82, 0
2, 43244, Note_on_c, 0, 62, 0
2, 43244, Note_on_c, 0, 65, 0
2, 43245, Note_on_c, 0, 70, 0
2, 43268, Note_on_c, 0, 76, 66
2, 43278, Note_on_c, 0, 72, 66
2, 43280, Note_on_c, 0, 67, 50
2, 43280, Note_on_c, 0, 60, 49
2, 43591, Control_c, 0, 64, 127
2, 43597, Note_on_c, 0, 84, 80
2, 43917, Note_on_c, 0, 80, 79
2, 44240, Note_on_c, 0, 79, 80
2, 44390, Note_on_c, 0, 80, 0
2, 44399, Note_on_c, 0, 80, 87
2, 44521, Note_on_c, 0, 76, 0
2, 44522, Note_on_c, 0, 60, 0
2, 44522, Note_on_c, 0, 84, 0
2, 44523, Note_on_c, 0, 67, 0
2, 44523, Note_on_c, 0, 79, 0
2, 44524, Control_c, 0, 64, 0
2, 44536, Note_on_c, 0, 72, 0
2, 44542, Note_on_c, 0, 72, 70
2, 44651, Control_c, 0, 64, 127
2, 44693, Note_on_c, 0, 68, 69
2, 44853, Note_on_c, 0, 63, 59
2, 45005, Note_on_c, 0, 87, 92
2, 45008, Note_on_c, 0, 60, 63
2, 45031, Note_on_c, 0, 75, 35
2, 45315, Note_on_c, 0, 56, 64
2, 45465, Note_on_c, 0, 80, 0
2, 45470, Note_on_c, 0, 80, 79
2, 45475, Note_on_c, 0, 58, 63
2, 45611, Note_on_c, 0, 60, 0
2, 45622, Note_on_c, 0, 60, 66
2, 45780, Note_on_c, 0, 56, 0
2, 45781, Note_on_c, 0, 87, 0
2, 45781, Note_on_c, 0, 58, 0
2, 45781, Note_on_c, 0, 72, 0
2, 45781, Control_c, 0, 64, 0
2, 45782, Note_on_c, 0, 68, 0
2, 45782, Note_on_c, 0, 79, 84
2, 45783, Note_on_c, 0, 63, 0
2, 45795, Note_on_c, 0, 60, 0
2, 45808, Note_on_c, 0, 70, 63
2, 45849, Note_on_c, 0, 80, 0
2, 45911, Control_c, 0, 64, 127
2, 45918, Note_on_c, 0, 75, 0
2, 45944, Note_on_c, 0, 67, 67
2, 46096, Note_on_c, 0, 63, 68
2, 46255, Note_on_c, 0, 87, 95
2, 46260, Note_on_c, 0, 58, 65
2, 46570, Note_on_c, 0, 55, 57
2, 46721, Note_on_c, 0, 56, 66
2, 46863, Note_on_c, 0, 58, 0
2, 46870, Note_on_c, 0, 58, 73
2, 46870, Note_on_c, 0, 82, 83
2, 47020, Note_on_c, 0, 56, 0
2, 47021, Control_c, 0, 64, 0
2, 47021, Note_on_c, 0, 55, 0
2, 47021, Note_on_c, 0, 87, 0
2, 47022, Note_on_c, 0, 67, 0
2, 47022, Note_on_c, 0, 58, 0
2, 47022, Note_on_c, 0, 63, 0
2, 47022, Note_on_c, 0, 82, 0
2, 47022, Note_on_c, 0, 70, 0
2, 47023, Note_on_c, 0, 79, 0
2, 47029, Note_on_c, 0, 84, 90
2, 47043, Note_on_c, 0, 80, 76
2, 47044, Note_on_c, 0, 53, 60
2, 47046, Note_on_c, 0, 72, 72
2, 47057, Note_on_c, 0, 77, 64
2, 47124, Control_c, 0, 64, 127
2, 47191, Note_on_c, 0, 60, 64
2, 47339, Note_on_c, 0, 86, 89
2, 47345, Note_on_c, 0, 74, 74
2, 47346, Note_on_c, 0, 65, 63
2, 47499, Note_on_c, 0, 67, 59
2, 47644, Note_on_c, 0, 87, 92
2, 47656, Note_on_c, 0, 68, 69
2, 47656, Note_on_c, 0, 75, 72
2, 47792, Note_on_c, 0, 72, 0
2, 47802, Note_on_c, 0, 72, 65
2, 47946, Note_on_c, 0, 77, 0
2, 47946, Note_on_c, 0, 84, 0
2, 47956, Note_on_c, 0, 84, 83
2, 47957, Note_on_c, 0, 77, 70
2, 48092, Note_on_c, 0, 84, 0
2, 48102, Note_on_c, 0, 84, 88
2, 48122, Note_on_c, 0, 53, 0
2, 48124, Note_on_c, 0, 58, 63
2, 48129, Note_on_c, 0, 74, 0
2, 48129, Note_on_c, 0, 67, 0
2, 48130, Control_c, 0, 64, 0
2, 48130, Note_on_c, 0, 80, 0
2, 48130, Note_on_c, 0, 87, 0
2, 48130, Note_on_c, 0, 68, 0
2, 48131, Note_on_c, 0, 86, 0
2, 48131, Note_on_c, 0, 65, 0
2, 48131, Note_on_c, 0, 72, 0
2, 48131, Note_on_c, 0, 77, 0
2, 48131, Note_on_c, 0, 60, 0
2, 48132, Note_on_c, 0, 75, 0
2, 48276, Control_c, 0, 64, 127
2, 48277, Note_on_c, 0, 65, 58
2, 48424, Note_on_c, 0, 82, 78
2, 48428, Note_on_c, 0, 70, 58
2, 48591, Note_on_c, 0, 82, 0
2, 48594, Note_on_c, 0, 75, 82
2, 48595, Note_on_c, 0, 82, 77
2, 48609, Control_c, 0, 64, 0
2, 48760, Note_on_c, 0, 84, 0
2, 48760, Control_c, 0, 64, 127
2, 48837, Note_on_c, 0, 70, 0
2, 48913, Note_on_c, 0, 74, 78
2, 49221, Note_on_c, 0, 75, 0
2, 49232, Note_on_c, 0, 75, 83
2, 49402, Note_on_c, 0, 70, 84
2, 49471, Control_c, 0, 64, 0
2, 49473, Note_on_c, 0, 65, 0
2, 49473, Note_on_c, 0, 82, 0
2, 49473, Note_on_c, 0, 58, 0
2, 49474, Note_on_c, 0, 74, 0
2, 49489, Note_on_c, 0, 75, 0
2, 49550, Note_on_c, 0, 51, 57
2, 49589, Control_c, 0, 64, 127
2, 49696, Note_on_c, 0, 58, 65
2, 49720, Note_on_c, 0, 70, 0
2, 49727, Note_on_c, 0, 70, 46
2, 49730, Note_on_c, 0, 82, 60
2, 49847, Note_on_c, 0, 68, 79
2, 49878, Note_on_c, 0, 89, 75
2, 49996, Note_on_c, 0, 58, 0
2, 50005, Note_on_c, 0, 58, 60
2, 50012, Note_on_c, 0, 82, 0
2, 50018, Note_on_c, 0, 82, 60
2, 50162, Note_on_c, 0, 67, 72
2, 50165, Note_on_c, 0, 87, 81
2, 50296, Note_on_c, 0, 58, 0
2, 50301, Note_on_c, 0, 58, 70
2, 50304, Note_on_c, 0, 82, 0
2, 50314, Note_on_c, 0, 82, 71
2, 50457, Note_on_c, 0, 68, 0
2, 50457, Note_on_c, 0, 89, 0
2, 50468, Note_on_c, 0, 68, 74
2, 50469, Note_on_c, 0, 89, 80
2, 50595, Note_on_c, 0, 70, 0
2, 50604, Note_on_c, 0, 70, 66
2, 50609, Note_on_c, 0, 94, 82
2, 50749, Note_on_c, 0, 51, 0
2, 50769, Control_c, 0, 64, 0
2, 50773, Note_on_c, 0, 58, 0
2, 50773, Note_on_c, 0, 87, 0
2, 50774, Note_on_c, 0, 68, 0
2, 50774, Note_on_c, 0, 89, 0
2, 50774, Note_on_c, 0, 82, 0
2, 50787, Note_on_c, 0, 67, 0
2, 50796, Note_on_c, 0, 67, 55
2, 50799, Note_on_c, 0, 63, 54
2, 50903, Control_c, 0, 64, 127
2, 51128, Note_on_c, 0, 75, 82
2, 51133, Note_on_c, 0, 94, 0
2, 51451, Note_on_c, 0, 74, 84
2, 51755, Note_on_c, 0, 75, 0
2, 51764, Note_on_c, 0, 75, 85
2, 51924, Note_on_c, 0, 70, 0
2, 51929, Note_on_c, 0, 70, 83
2, 52012, Control_c, 0, 64, 0
2, 52014, Note_on_c, 0, 67, 0
2, 52015, Note_on_c, 0, 74, 0
2, 52015, Note_on_c, 0, 75, 0
2, 52015, Note_on_c, 0, 63, 0
2, 52082, Note_on_c, 0, 50, 60
2, 52093, Control_c, 0, 64, 127
2, 52238, Note_on_c, 0, 58, 65
2, 52258, Note_on_c, 0, 82, 55
2, 52390, Note_on_c, 0, 68, 77
2, 52399, Note_on_c, 0, 89, 73
2, 52523, Note_on_c, 0, 58, 0
2, 52532, Note_on_c, 0, 58, 66
2, 52538, Note_on_c, 0, 82, 0
2, 52543, Note_on_c, 0, 82, 67
2, 52684, Note_on_c, 0, 50, 0
2, 52691, Note_on_c, 0, 67, 72
2, 52696, Note_on_c, 0, 87, 87
2, 52815, Note_on_c, 0, 58, 0
2, 52821, Note_on_c, 0, 58, 71
2, 52846, Note_on_c, 0, 82, 0
2, 52850, Note_on_c, 0, 82, 75
2, 52992, Note_on_c, 0, 68, 0
2, 52999, Note_on_c, 0, 89, 0
2, 53002, Note_on_c, 0, 68, 72
2, 53004, Note_on_c, 0, 89, 80
2, 53122, Note_on_c, 0, 70, 0
2, 53127, Note_on_c, 0, 70, 68
2, 53148, Note_on_c, 0, 94, 84
2, 53286, Note_on_c, 0, 87, 0
2, 53287, Note_on_c, 0, 68, 0
2, 53287, Note_on_c, 0, 70, 0
2, 53287, Note_on_c, 0, 94, 0
2, 53287, Note_on_c, 0, 89, 0
2, 53287, Control_c, 0, 64, 0
2, 53287, Note_on_c, 0, 82, 0
2, 53287, Note_on_c, 0, 58, 0
2, 53306, Note_on_c, 0, 67, 0
2, 53314, Note_on_c, 0, 67, 63
2, 53320, Note_on_c, 0, 60, 76
2, 53327, Note_on_c, 0, 64, 70
2, 53391, Control_c, 0, 64, 127
2, 53642, Note_on_c, 0, 72, 87
2, 53967, Note_on_c, 0, 60, 0
2, 53967, Note_on_c, 0, 64, 0
2, 53970, Note_on_c, 0, 68, 82
2, 53972, Note_on_c, 0, 60, 59
2, 53973, Note_on_c, 0, 64, 63
2, 53977, Note_on_c, 0, 48, 56
2, 53978, Control_c, 0, 64, 0
2, 53978, Note_on_c, 0, 55, 56
2, 53988, Note_on_c, 0, 72, 0
2, 53991, Note_on_c, 0, 67, 0
2, 54013, Control_c, 0, 64, 127
2, 54074, Note_on_c, 0, 60, 0
2, 54273, Note_on_c, 0, 67, 78
2, 54428, Note_on_c, 0, 68, 0
2, 54439, Note_on_c, 0, 68, 91
2, 54559, Note_on_c, 0, 55, 0
2, 54560, Note_on_c, 0, 48, 0
2, 54561, Note_on_c, 0, 67, 0
2, 54562, Control_c, 0, 64, 0
2, 54566, Note_on_c, 0, 64, 0
2, 54594, Note_on_c, 0, 53, 65
2, 54696, Control_c, 0, 64, 127
2, 54747, Note_on_c, 0, 60, 70
2, 54789, Note_on_c, 0, 53, 0
2, 54890, Note_on_c, 0, 63, 66
2, 55042, Note_on_c, 0, 68, 0
2, 55046, Note_on_c, 0, 75, 91
2, 55046, Note_on_c, 0, 68, 77
2, 55362, Note_on_c, 0, 84, 65
2, 55503, Note_on_c, 0, 68, 0
2, 55510, Note_on_c, 0, 68, 89
2, 55667, Note_on_c, 0, 92, 82
2, 55821, Control_c, 0, 64, 0
2, 55821, Note_on_c, 0, 60, 0
2, 55822, Note_on_c, 0, 63, 0
2, 55822, Note_on_c, 0, 68, 0
2, 55822, Note_on_c, 0, 67, 75
2, 55823, Note_on_c, 0, 55, 65
2, 55823, Note_on_c, 0, 75, 0
2, 55824, Note_on_c, 0, 84, 0
2, 55827, Note_on_c, 0, 92, 0
2, 55925, Control_c, 0, 64, 127
2, 55963, Note_on_c, 0, 58, 60
2, 56123, Note_on_c, 0, 63, 64
2, 56286, Note_on_c, 0, 67, 0
2, 56289, Note_on_c, 0, 75, 86
2, 56297, Note_on_c, 0, 67, 67
2, 56601, Note_on_c, 0, 82, 71
2, 56748, Note_on_c, 0, 87, 80
2, 56902, Note_on_c, 0, 91, 71
2, 56910, Note_on_c, 0, 70, 73
2, 57059, Note_on_c, 0, 72, 82
2, 57062, Note_on_c, 0, 55, 0
2, 57062, Note_on_c, 0, 56, 72
2, 57064, Note_on_c, 0, 68, 65
2, 57064, Note_on_c, 0, 58, 0
2, 57064, Note_on_c, 0, 63, 0
2, 57065, Note_on_c, 0, 87, 0
2, 57065, Note_on_c, 0, 75, 0
2, 57065, Note_on_c, 0, 82, 0
2, 57065, Control_c, 0, 64, 0
2, 57065, Note_on_c, 0, 70, 0
2, 57085, Note_on_c, 0, 67, 0
2, 57116, Note_on_c, 0, 91, 0
2, 57162, Control_c, 0, 64, 127
2, 57219, Note_on_c, 0, 63, 67
2, 57223, Note_on_c, 0, 56, 0
2, 57355, Note_on_c, 0, 74, 81
2, 57369, Note_on_c, 0, 68, 0
2, 57378, Note_on_c, 0, 68, 69
2, 57512, Note_on_c, 0, 70, 70
2, 57659, Note_on_c, 0, 75, 88
2, 57661, Note_on_c, 0, 72, 0
2, 57669, Note_on_c, 0, 72, 68
2, 57826, Note_on_c, 0, 84, 71
2, 57968, Note_on_c, 0, 72, 0
2, 57971, Note_on_c, 0, 87, 74
2, 57974, Note_on_c, 0, 72, 77
2, 58108, Note_on_c, 0, 92, 71
2, 58129, Note_on_c, 0, 75, 0
2, 58134, Note_on_c, 0, 75, 86
2, 58291, Note_on_c, 0, 58, 58
2, 58326, Control_c, 0, 64, 0
2, 58327, Note_on_c, 0, 74, 0
2, 58327, Note_on_c, 0, 70, 0
2, 58327, Note_on_c, 0, 68, 0
2, 58328, Note_on_c, 0, 63, 0
2, 58329, Note_on_c, 0, 72, 0
2, 58333, Note_on_c, 0, 84, 0
2, 58434, Note_on_c, 0, 74, 79
2, 58441, Note_on_c, 0, 65, 56
2, 58444, Control_c, 0, 64, 127
2, 58583, Note_on_c, 0, 74, 0
2, 58587, Note_on_c, 0, 74, 74
2, 58602, Note_on_c, 0, 70, 57
2, 58760, Note_on_c, 0, 86, 66
2, 58763, Note_on_c, 0, 89, 81
2, 58769, Note_on_c, 0, 77, 71
2, 58942, Note_on_c, 0, 94, 80
2, 58944, Note_on_c, 0, 86, 0
2, 58953, Note_on_c, 0, 86, 57
2, 58953, Note_on_c, 0, 82, 61
2, 59591, Note_on_c, 0, 60, 57
2, 59600, Note_on_c, 0, 41, 49
2, 59629, Note_on_c, 0, 63, 57
2, 59634, Note_on_c, 0, 48, 47
2, 59642, Note_on_c, 0, 56, 59
2, 59643, Note_on_c, 0, 68, 66
2, 59646, Note_on_c, 0, 72, 83
2, 59646, Note_on_c, 0, 94, 0
2, 59653, Note_on_c, 0, 74, 0
2, 59655, Note_on_c, 0, 65, 0
2, 59655, Control_c, 0, 64, 0
2, 59655, Note_on_c, 0, 86, 0
2, 59655, Note_on_c, 0, 77, 0
2, 59661, Note_on_c, 0, 82, 0
2, 59661, Note_on_c, 0, 70, 0
2, 59662, Note_on_c, 0, 89, 0
2, 59665, Note_on_c, 0, 58, 0
2, 59665, Note_on_c, 0, 87, 0
2, 59673, Note_on_c, 0, 75, 0
2, 59673, Note_on_c, 0, 92, 0
2, 59688, Control_c, 0, 64, 127
2, 59819, Note_on_c, 0, 60, 0
2, 60096, Note_on_c, 0, 72, 0
2, 60099, Note_on_c, 0, 72, 78
2, 60264, Note_on_c, 0, 72, 0
2, 60272, Note_on_c, 0, 56, 0
2, 60272, Note_on_c, 0, 63, 0
2, 60272, Note_on_c, 0, 68, 0
2, 60275, Note_on_c, 0, 72, 86
2, 60276, Note_on_c, 0, 53, 66
2, 60276, Note_on_c, 0, 56, 63
2, 60276, Note_on_c, 0, 60, 68
2, 60279, Note_on_c, 0, 63, 68
2, 60282, Note_on_c, 0, 68, 74
2, 60579, Note_on_c, 0, 72, 0
2, 60589, Note_on_c, 0, 72, 74
2, 60725, Control_c, 0, 64, 0
2, 60727, Note_on_c, 0, 53, 0
2, 60727, Note_on_c, 0, 56, 0
2, 60727, Note_on_c, 0, 41, 0
2, 60727, Note_on_c, 0, 60, 0
2, 60727, Note_on_c, 0, 63, 0
2, 60728, Note_on_c, 0, 68, 0
2, 60741, Note_on_c, 0, 48, 0
2, 60748, Note_on_c, 0, 72, 0
2, 60753, Note_on_c, 0, 72, 87
2, 60767, Note_on_c, 0, 65, 70
2, 60768, Note_on_c, 0, 62, 70
2, 60769, Note_on_c, 0, 58, 69
2, 60769, Note_on_c, 0, 46, 67
2, 60770, Note_on_c, 0, 53, 70
2, 60775, Note_on_c, 0, 70, 68
2, 60787, Control_c, 0, 64, 127
2, 61074, Note_on_c, 0, 77, 89
2, 61232, Note_on_c, 0, 72, 0
2, 61240, Note_on_c, 0, 65, 0
2, 61240, Note_on_c, 0, 77, 0
2, 61248, Note_on_c, 0, 53, 0
2, 61248, Note_on_c, 0, 58, 0
2, 61248, Note_on_c, 0, 62, 0
2, 61248, Note_on_c, 0, 70, 0
2, 61248, Note_on_c, 0, 77, 92
2, 61250, Note_on_c, 0, 74, 77
2, 61251, Note_on_c, 0, 65, 66
2, 61251, Note_on_c, 0, 62, 66
2, 61251, Note_on_c, 0, 70, 81
2, 61252, Note_on_c, 0, 53, 50
2, 61252, Note_on_c, 0, 58, 59
2, 61278, Note_on_c, 0, 46, 0
2, 61555, Note_on_c, 0, 77, 0
2, 61562, Note_on_c, 0, 77, 95
2, 61718, Note_on_c, 0, 89, 89
2, 61876, Note_on_c, 0, 101, 95
2, 62137, Note_on_c, 0, 43, 60
2, 62161, Note_on_c, 0, 62, 0
2, 62166, Note_on_c, 0, 62, 66
2, 62184, Note_on_c, 0, 53, 0
2, 62192, Note_on_c, 0, 65, 0
2, 62194, Note_on_c, 0, 77, 0
2, 62195, Control_c, 0, 64, 0
2, 62196, Note_on_c, 0, 53, 66
2, 62197, Note_on_c, 0, 65, 64
2, 62208, Note_on_c, 0, 74, 0
2, 62212, Note_on_c, 0, 89, 0
2, 62213, Note_on_c, 0, 101, 0
2, 62215, Note_on_c, 0, 58, 0
2, 62215, Note_on_c, 0, 70, 0
2, 62217, Note_on_c, 0, 74, 87
2, 62219, Note_on_c, 0, 86, 82
2, 62219, Note_on_c, 0, 58, 70
2, 62225, Note_on_c, 0, 70, 75
2, 62269, Control_c, 0, 64, 127
2, 62415, Note_on_c, 0, 86, 0
2, 62653, Note_on_c, 0, 74, 0
2, 62657, Note_on_c, 0, 74, 77
2, 62668, Note_on_c, 0, 62, 0
2, 62814, Note_on_c, 0, 74, 0
2, 62822, Note_on_c, 0, 58, 0
2, 62822, Note_on_c, 0, 65, 0
2, 62822, Note_on_c, 0, 70, 0
2, 62826, Note_on_c, 0, 74, 87
2, 62828, Note_on_c, 0, 65, 67
2, 62829, Note_on_c, 0, 58, 72
2, 62830, Note_on_c, 0, 62, 72
2, 62831, Note_on_c, 0, 70, 79
2, 62833, Note_on_c, 0, 55, 68
2, 63137, Note_on_c, 0, 74, 0
2, 63142, Note_on_c, 0, 74, 79
2, 63285, Note_on_c, 0, 65, 0
2, 63285, Note_on_c, 0, 43, 0
2, 63285, Note_on_c, 0, 58, 0
2, 63286, Note_on_c, 0, 70, 0
2, 63286, Control_c, 0, 64, 0
2, 63290, Note_on_c, 0, 53, 0
2, 63290, Note_on_c, 0, 62, 0
2, 63290, Note_on_c, 0, 74, 0
2, 63300, Note_on_c, 0, 74, 86
2, 63306, Note_on_c, 0, 55, 0
2, 63308, Note_on_c, 0, 63, 74
2, 63312, Note_on_c, 0, 55, 67
2, 63313, Note_on_c, 0, 60, 70
2, 63317, Note_on_c, 0, 67, 69
2, 63317, Note_on_c, 0, 48, 72
2, 63317, Note_on_c, 0, 72, 75
2, 63352, Control_c, 0, 64, 127
2, 63619, Note_on_c, 0, 79, 89
2, 63774, Note_on_c, 0, 67, 0
2, 63774, Note_on_c, 0, 79, 0
2, 63781, Note_on_c, 0, 67, 76
2, 63782, Note_on_c, 0, 55, 0
2, 63782, Note_on_c, 0, 60, 0
2, 63782, Note_on_c, 0, 63, 0
2, 63782, Note_on_c, 0, 72, 0
2, 63785, Note_on_c, 0, 79, 84
2, 63786, Note_on_c, 0, 63, 65
2, 63787, Note_on_c, 0, 55, 60
2, 63787, Note_on_c, 0, 60, 70
2, 63788, Note_on_c, 0, 75, 82
2, 63788, Note_on_c, 0, 72, 75
2, 64089, Note_on_c, 0, 79, 0
2, 64093, Note_on_c, 0, 91, 83
2, 64094, Note_on_c, 0, 79, 95
2, 64235, Note_on_c, 0, 91, 0
2, 64239, Note_on_c, 0, 91, 81
2, 64411, Note_on_c, 0, 103, 107
2, 64423, Note_on_c, 0, 77, 74
2, 64550, Note_on_c, 0, 75, 0
2, 64554, Note_on_c, 0, 75, 89
2, 64729, Note_on_c, 0, 41, 65
2, 64795, Note_on_c, 0, 79, 0
2, 64796, Note_on_c, 0, 103, 0
2, 64796, Note_on_c, 0, 75, 0
2, 64797, Note_on_c, 0, 77, 0
2, 64797, Note_on_c, 0, 74, 0
2, 64798, Note_on_c, 0, 91, 0
2, 64798, Control_c, 0, 64, 0
2, 64798, Note_on_c, 0, 72, 0
2, 64798, Note_on_c, 0, 55, 0
2, 64803, Note_on_c, 0, 48, 0
2, 64811, Note_on_c, 0, 60, 0
2, 64819, Note_on_c, 0, 63, 0
2, 64819, Note_on_c, 0, 67, 0
2, 64872, Control_c, 0, 64, 127
2, 64885, Note_on_c, 0, 48, 61
2, 65025, Note_on_c, 0, 75, 90
2, 65038, Note_on_c, 0, 72, 61
2, 65043, Note_on_c, 0, 56, 69
2, 65044, Note_on_c, 0, 68, 68
2, 65197, Note_on_c, 0, 53, 37
2, 65333, Note_on_c, 0, 48, 0
2, 65333, Note_on_c, 0, 72, 0
2, 65337, Note_on_c, 0, 72, 95
2, 65341, Note_on_c, 0, 60, 67
2, 65344, Note_on_c, 0, 48, 58
2, 65479, Note_on_c, 0, 56, 0
2, 65486, Note_on_c, 0, 56, 67
2, 65651, Note_on_c, 0, 74, 85
2, 65651, Note_on_c, 0, 63, 71
2, 65802, Note_on_c, 0, 60, 0
2, 65802, Note_on_c, 0, 75, 0
2, 65806, Note_on_c, 0, 75, 94
2, 65807, Note_on_c, 0, 60, 69
2, 65940, Note_on_c, 0, 53, 0
2, 65950, Note_on_c, 0, 53, 72
2, 65957, Note_on_c, 0, 56, 0
2, 65958, Control_c, 0, 64, 0
2, 65958, Note_on_c, 0, 74, 0
2, 65958, Note_on_c, 0, 68, 0
2, 65958, Note_on_c, 0, 60, 0
2, 65958, Note_on_c, 0, 63, 0
2, 65958, Note_on_c, 0, 72, 0
2, 65971, Note_on_c, 0, 41, 0
2, 65971, Note_on_c, 0, 48, 0
2, 66032, Control_c, 0, 64, 127
2, 66105, Note_on_c, 0, 60, 66
2, 66274, Note_on_c, 0, 72, 96
2, 66275, Note_on_c, 0, 63, 69
2, 66278, Note_on_c, 0, 68, 87
2, 66416, Note_on_c, 0, 60, 0
2, 66421, Note_on_c, 0, 60, 74
2, 66570, Note_on_c, 0, 68, 0
2, 66580, Note_on_c, 0, 68, 72
2, 66581, Note_on_c, 0, 79, 92
2, 66723, Note_on_c, 0, 63, 0
2, 66723, Note_on_c, 0, 75, 0
2, 66730, Note_on_c, 0, 63, 74
2, 66731, Note_on_c, 0, 75, 97
2, 66877, Note_on_c, 0, 72, 0
2, 66877, Note_on_c, 0, 75, 0
2, 66887, Note_on_c, 0, 75, 95
2, 66888, Note_on_c, 0, 72, 81
2, 67015, Note_on_c, 0, 68, 0
2, 67020, Note_on_c, 0, 68, 76
2, 67204, Note_on_c, 0, 77, 102
2, 67205, Note_on_c, 0, 34, 75
2, 67210, Control_c, 0, 64, 0
2, 67210, Note_on_c, 0, 70, 88
2, 67211, Note_on_c, 0, 79, 0
2, 67211, Note_on_c, 0, 74, 87
2, 67211, Note_on_c, 0, 75, 0
2, 67211, Note_on_c, 0, 63, 0
2, 67211, Note_on_c, 0, 60, 0
2, 67211, Note_on_c, 0, 53, 0
2, 67212, Note_on_c, 0, 72, 0
2, 67212, Note_on_c, 0, 68, 0
2, 67299, Control_c, 0, 64, 127
2, 67336, Note_on_c, 0, 41, 64
2, 67436, Note_on_c, 0, 46, 67
2, 67499, Note_on_c, 0, 48, 66
2, 67556, Note_on_c, 0, 50, 68
2, 67611, Note_on_c, 0, 51, 64
2, 67669, Note_on_c, 0, 53, 75
2, 67726, Note_on_c, 0, 55, 73
2, 67776, Note_on_c, 0, 56, 78
2, 67822, Note_on_c, 0, 46, 0
2, 67829, Note_on_c, 0, 46, 73
2, 67879, Note_on_c, 0, 51, 0
2, 67880, Note_on_c, 0, 50, 0
2, 67882, Note_on_c, 0, 55, 0
2, 67882, Note_on_c, 0, 48, 0
2, 67883, Note_on_c, 0, 56, 0
2, 67883, Note_on_c, 0, 70, 0
2, 67883, Control_c, 0, 64, 0
2, 67884, Note_on_c, 0, 77, 0
2, 67884, Note_on_c, 0, 74, 0
2, 67891, Note_on_c, 0, 53, 0
2, 67901, Note_on_c, 0, 53, 71
2, 67937, Control_c, 0, 64, 127
2, 67976, Note_on_c, 0, 58, 74
2, 68047, Note_on_c, 0, 60, 75
2, 68102, Note_on_c, 0, 62, 72
2, 68160, Note_on_c, 0, 63, 75
2, 68228, Note_on_c, 0, 65, 74
2, 68291, Note_on_c, 0, 67, 76
2, 68351, Note_on_c, 0, 68, 84
2, 68428, Note_on_c, 0, 58, 0
2, 68435, Note_on_c, 0, 58, 88
2, 68478, Note_on_c, 0, 53, 0
2, 68478, Note_on_c, 0, 67, 0
2, 68478, Note_on_c, 0, 63, 0
2, 68478, Note_on_c, 0, 62, 0
2, 68478, Note_on_c, 0, 60, 0
2, 68478, Control_c, 0, 64, 0
2, 68479, Note_on_c, 0, 68, 0
2, 68482, Note_on_c, 0, 34, 0
2, 68497, Note_on_c, 0, 65, 0
2, 68505, Note_on_c, 0, 65, 74
2, 68528, Control_c, 0, 64, 127
2, 68583, Note_on_c, 0, 70, 82
2, 68644, Note_on_c, 0, 72, 77
2, 68699, Note_on_c, 0, 74, 79
2, 68755, Note_on_c, 0, 75, 85
2, 68824, Note_on_c, 0, 77, 86
2, 68892, Note_on_c, 0, 79, 82
2, 68949, Note_on_c, 0, 80, 88
2, 69020, Note_on_c, 0, 70, 0
2, 69030, Note_on_c, 0, 70, 100
2, 69081, Note_on_c, 0, 77, 0
2, 69087, Note_on_c, 0, 77, 87
2, 69165, Note_on_c, 0, 82, 91
2, 69222, Note_on_c, 0, 84, 81
2, 69291, Note_on_c, 0, 86, 98
2, 69352, Note_on_c, 0, 87, 96
2, 69428, Note_on_c, 0, 89, 95
2, 69491, Note_on_c, 0, 91, 91
2, 69546, Note_on_c, 0, 92, 96
2, 69619, Note_on_c, 0, 82, 0
2, 69628, Note_on_c, 0, 82, 105
2, 69629, Note_on_c, 0, 94, 103
2, 69707, Note_on_c, 0, 96, 88
2, 69757, Note_on_c, 0, 94, 0
2, 69765, Note_on_c, 0, 94, 89
2, 69772, Note_on_c, 0, 77, 0
2, 69784, Note_on_c, 0, 77, 81
2, 69857, Note_on_c, 0, 94, 0
2, 69867, Note_on_c, 0, 94, 89
2, 69918, Note_on_c, 0, 70, 0
2, 69918, Note_on_c, 0, 96, 0
2, 69923, Note_on_c, 0, 70, 80
2, 69926, Note_on_c, 0, 96, 82
2, 69972, Note_on_c, 0, 94, 0
2, 69981, Note_on_c, 0, 94, 82
2, 70026, Note_on_c, 0, 96, 0
2, 70031, Note_on_c, 0, 96, 84
2, 70080, Note_on_c, 0, 65, 0
2, 70080, Note_on_c, 0, 94, 0
2, 70084, Note_on_c, 0, 94, 87
2, 70084, Note_on_c, 0, 65, 70
2, 70133, Note_on_c, 0, 96, 0
2, 70139, Note_on_c, 0, 96, 80
2, 70179, Note_on_c, 0, 94, 0
2, 70190, Note_on_c, 0, 94, 85
2, 70218, Note_on_c, 0, 58, 0
2, 70226, Note_on_c, 0, 58, 87
2, 70241, Note_on_c, 0, 96, 0
2, 70251, Note_on_c, 0, 96, 83
2, 70295, Note_on_c, 0, 94, 0
2, 70299, Note_on_c, 0, 94, 86
2, 70348, Note_on_c, 0, 96, 0
2, 70352, Note_on_c, 0, 96, 82
2, 70392, Note_on_c, 0, 53, 78
2, 70402, Note_on_c, 0, 94, 0
2, 70406, Note_on_c, 0, 94, 89
2, 70456, Note_on_c, 0, 96, 0
2, 70467, Note_on_c, 0, 96, 78
2, 70510, Note_on_c, 0, 94, 0
2, 70520, Note_on_c, 0, 94, 90
2, 70548, Note_on_c, 0, 46, 0
2, 70556, Note_on_c, 0, 46, 88
2, 70579, Note_on_c, 0, 96, 0
2, 70584, Note_on_c, 0, 96, 70
2, 70632, Note_on_c, 0, 86, 0
2, 70632, Note_on_c, 0, 94, 0
2, 70637, Note_on_c, 0, 94, 82
2, 70641, Note_on_c, 0, 86, 68
2, 70686, Note_on_c, 0, 96, 0
2, 70696, Note_on_c, 0, 96, 75
2, 70740, Note_on_c, 0, 41, 0
2, 70740, Note_on_c, 0, 94, 0
2, 70745, Note_on_c, 0, 41, 70
2, 70749, Note_on_c, 0, 94, 89
2, 70924, Note_on_c, 0, 94, 0
2, 70929, Note_on_c, 0, 94, 90
2, 70950, Note_on_c, 0, 34, 78
2, 71040, Note_on_c, 0, 72, 0
2, 71040, Note_on_c, 0, 74, 0
2, 71040, Note_on_c, 0, 75, 0
2, 71040, Note_on_c, 0, 79, 0
2, 71040, Note_on_c, 0, 80, 0
2, 71616, Note_on_c, 0, 87, 0
2, 71620, Note_on_c, 0, 75, 112
2, 71621, Note_on_c, 0, 87, 95
2, 71621, Note_on_c, 0, 63, 104
2, 71769, Note_on_c, 0, 63, 0
2, 71769, Note_on_c, 0, 75, 0
2, 71776, Note_on_c, 0, 75, 109
2, 71779, Note_on_c, 0, 63, 98
2, 71923, Note_on_c, 0, 63, 0
2, 71923, Note_on_c, 0, 75, 0
2, 71923, Note_on_c, 0, 87, 0
2, 71928, Note_on_c, 0, 75, 114
2, 71929, Note_on_c, 0, 87, 100
2, 71930, Note_on_c, 0, 63, 98
2, 72092, Note_on_c, 0, 65, 0
2, 72092, Note_on_c, 0, 77, 0
2, 72092, Note_on_c, 0, 89, 0
2, 72096, Note_on_c, 0, 77, 110
2, 72096, Note_on_c, 0, 65, 103
2, 72097, Note_on_c, 0, 89, 93
2, 72245, Note_on_c, 0, 63, 0
2, 72245, Note_on_c, 0, 75, 0
2, 72245, Note_on_c, 0, 87, 0
2, 72250, Note_on_c, 0, 75, 111
2, 72252, Note_on_c, 0, 87, 92
2, 72252, Note_on_c, 0, 63, 99
2, 72407, Note_on_c, 0, 70, 0
2, 72407, Note_on_c, 0, 75, 0
2, 72407, Note_on_c, 0, 82, 0
2, 72412, Note_on_c, 0, 82, 111
2, 72417, Note_on_c, 0, 70, 111
2, 72417, Note_on_c, 0, 27, 87
2, 72417, Note_on_c, 0, 39, 96
2, 72418, Note_on_c, 0, 75, 106
2, 72420, Control_c, 0, 64, 0
2, 72421, Note_on_c, 0, 79, 100
2, 72460, Control_c, 0, 64, 127
2, 72560, Note_on_c, 0, 39, 0
2, 72568, Note_on_c, 0, 70, 0
2, 72568, Note_on_c, 0, 75, 0
2, 72568, Note_on_c, 0, 79, 0
2, 72568, Note_on_c, 0, 82, 0
2, 72570, Note_on_c, 0, 39, 82
2, 72572, Note_on_c, 0, 82, 108
2, 72573, Note_on_c, 0, 51, 88
2, 72577, Note_on_c, 0, 75, 100
2, 72578, Note_on_c, 0, 79, 98
2, 72579, Note_on_c, 0, 70, 100
2, 72583, Note_on_c, 0, 51, 0
2, 72721, Note_on_c, 0, 46, 0
2, 72731, Note_on_c, 0, 46, 80
2, 72734, Note_on_c, 0, 55, 68
2, 72875, Note_on_c, 0, 58, 0
2, 72886, Note_on_c, 0, 58, 87
2, 72888, Note_on_c, 0, 51, 73
2, 72967, Note_on_c, 0, 92, 0
2, 73029, Note_on_c, 0, 51, 0
2, 73029, Note_on_c, 0, 55, 0
2, 73029, Note_on_c, 0, 63, 0
2, 73029, Note_on_c, 0, 82, 0
2, 73036, Note_on_c, 0, 58, 0
2, 73036, Note_on_c, 0, 70, 0
2, 73036, Note_on_c, 0, 75, 0
2, 73036, Note_on_c, 0, 79, 0
2, 73036, Note_on_c, 0, 96, 0
2, 73038, Note_on_c, 0, 82, 107
2, 73038, Note_on_c, 0, 51, 81
2, 73038, Note_on_c, 0, 55, 86
2, 73039, Note_on_c, 0, 63, 89
2, 73040, Note_on_c, 0, 67, 86
2, 73040, Note_on_c, 0, 70, 105
2, 73041, Note_on_c, 0, 58, 83
2, 73042, Note_on_c, 0, 75, 96
2, 73045, Note_on_c, 0, 79, 91
2, 73190, Note_on_c, 0, 63, 0
2, 73190, Note_on_c, 0, 82, 0
2, 73195, Note_on_c, 0, 63, 94
2, 73198, Note_on_c, 0, 55, 0
2, 73198, Note_on_c, 0, 58, 0
2, 73198, Note_on_c, 0, 70, 0
2, 73198, Note_on_c, 0, 75, 0
2, 73199, Note_on_c, 0, 82, 106
2, 73202, Note_on_c, 0, 75, 98
2, 73202, Note_on_c, 0, 58, 78
2, 73202, Note_on_c, 0, 70, 94
2, 73204, Note_on_c, 0, 55, 80
2, 73209, Control_c, 0, 64, 0
2, 73228, Control_c, 0, 64, 127
2, 73336, Note_on_c, 0, 63, 0
2, 73344, Note_on_c, 0, 58, 0
2, 73344, Note_on_c, 0, 67, 0
2, 73344, Note_on_c, 0, 82, 0
2, 73346, Note_on_c, 0, 63, 76
2, 73350, Note_on_c, 0, 82, 79
2, 73351, Note_on_c, 0, 67, 80
2, 73351, Note_on_c, 0, 58, 64
2, 73489, Note_on_c, 0, 67, 0
2, 73489, Note_on_c, 0, 82, 0
2, 73489, Note_on_c, 0, 94, 0
2, 73497, Note_on_c, 0, 70, 0
2, 73497, Note_on_c, 0, 91, 0
2, 73499, Note_on_c, 0, 94, 97
2, 73499, Note_on_c, 0, 82, 108
2, 73501, Note_on_c, 0, 67, 93
2, 73503, Note_on_c, 0, 70, 95
2, 73505, Note_on_c, 0, 91, 84
2, 73658, Note_on_c, 0, 70, 0
2, 73658, Note_on_c, 0, 75, 0
2, 73658, Note_on_c, 0, 87, 0
2, 73663, Note_on_c, 0, 75, 108
2, 73667, Note_on_c, 0, 80, 110
2, 73668, Note_on_c, 0, 87, 93
2, 73669, Note_on_c, 0, 92, 96
2, 73670, Note_on_c, 0, 70, 95
2, 73820, Note_on_c, 0, 79, 0
2, 73820, Note_on_c, 0, 91, 0
2, 73824, Note_on_c, 0, 79, 97
2, 73824, Note_on_c, 0, 91, 85
2, 73827, Note_on_c, 0, 84, 0
2, 73973, Note_on_c, 0, 80, 0
2, 73979, Note_on_c, 0, 80, 93
2, 74142, Note_on_c, 0, 70, 0
2, 74142, Note_on_c, 0, 75, 0
2, 74142, Note_on_c, 0, 79, 0
2, 74142, Note_on_c, 0, 82, 0
2, 74142, Note_on_c, 0, 87, 0
2, 74147, Note_on_c, 0, 82, 109
2, 74152, Note_on_c, 0, 87, 96
2, 74152, Note_on_c, 0, 75, 108
2, 74153, Note_on_c, 0, 79, 101
2, 74154, Note_on_c, 0, 70, 104
2, 74449, Note_on_c, 0, 75, 0
2, 74457, Note_on_c, 0, 63, 0
2, 74457, Note_on_c, 0, 87, 0
2, 74461, Note_on_c, 0, 75, 113
2, 74461, Note_on_c, 0, 87, 97
2, 74462, Note_on_c, 0, 63, 98
2, 74466, Note_on_c, 0, 58, 0
2, 74611, Note_on_c, 0, 65, 0
2, 74611, Note_on_c, 0, 77, 0
2, 74611, Note_on_c, 0, 89, 0
2, 74617, Note_on_c, 0, 77, 108
2, 74620, Note_on_c, 0, 89, 94
2, 74620, Note_on_c, 0, 65, 96
2, 74757, Note_on_c, 0, 63, 0
2, 74757, Note_on_c, 0, 75, 0
2, 74757, Note_on_c, 0, 87, 0
2, 74764, Note_on_c, 0, 75, 105
2, 74765, Note_on_c, 0, 87, 88
2, 74765, Note_on_c, 0, 63, 94
2, 74880, Note_on_c, 0, 34, 0
2, 74880, Note_on_c, 0, 41, 0
2, 74880, Note_on_c, 0, 46, 0
2, 74880, Note_on_c, 0, 53, 0
2, 74880, Note_on_c, 0, 86, 0
2, 74903, Note_on_c, 0, 51, 0
2, 74910, Note_on_c, 0, 70, 0
2, 74910, Note_on_c, 0, 77, 0
2, 74910, Note_on_c, 0, 82, 0
2, 74914, Note_on_c, 0, 94, 0
2, 74915, Note_on_c, 0, 38, 94
2, 74915, Note_on_c, 0, 63, 0
2, 74915, Note_on_c, 0, 55, 0
2, 74915, Note_on_c, 0, 65, 0
2, 74915, Note_on_c, 0, 89, 0
2, 74915, Control_c, 0, 64, 0
2, 74915, Note_on_c, 0, 74, 105
2, 74915, Note_on_c, 0, 91, 0
2, 74916, Note_on_c, 0, 75, 0
2, 74916, Note_on_c, 0, 70, 105
2, 74916, Note_on_c, 0, 77, 95
2, 74916, Note_on_c, 0, 87, 0
2, 74917, Note_on_c, 0, 82, 109
2, 74918, Note_on_c, 0, 92, 0
2, 74919, Note_on_c, 0, 26, 92
2, 74921, Note_on_c, 0, 34, 78
2, 74922, Note_on_c, 0, 86, 94
2, 74926, Note_on_c, 0, 34, 0
2, 74926, Note_on_c, 0, 67, 0
2, 74933, Note_on_c, 0, 27, 0
2, 74933, Note_on_c, 0, 39, 0
2, 74933, Note_on_c, 0, 79, 0
2, 74964, Note_on_c, 0, 26, 0
2, 74972, Control_c, 0, 64, 127
2, 74987, Note_on_c, 0, 86, 0
2, 75018, Note_on_c, 0, 38, 0
2, 75072, Note_on_c, 0, 82, 0
2, 75077, Note_on_c, 0, 38, 95
2, 75079, Note_on_c, 0, 82, 102
2, 75082, Note_on_c, 0, 86, 92
2, 75082, Note_on_c, 0, 50, 91
2, 75082, Note_on_c, 0, 94, 96
2, 75083, Note_on_c, 0, 89, 74
2, 75087, Note_on_c, 0, 94, 0
2, 75095, Note_on_c, 0, 89, 0
2, 75226, Note_on_c, 0, 53, 80
2, 75230, Note_on_c, 0, 81, 74
2, 75236, Note_on_c, 0, 69, 70
2, 75386, Note_on_c, 0, 53, 0
2, 75386, Note_on_c, 0, 70, 0
2, 75395, Note_on_c, 0, 58, 81
2, 75396, Note_on_c, 0, 70, 82
2, 75397, Note_on_c, 0, 53, 65
2, 75532, Note_on_c, 0, 70, 0
2, 75532, Note_on_c, 0, 74, 0
2, 75532, Note_on_c, 0, 77, 0
2, 75532, Note_on_c, 0, 82, 0
2, 75532, Note_on_c, 0, 86, 0
2, 75540, Note_on_c, 0, 53, 0
2, 75540, Note_on_c, 0, 58, 0
2, 75541, Note_on_c, 0, 62, 93
2, 75542, Note_on_c, 0, 74, 102
2, 75542, Note_on_c, 0, 86, 98
2, 75542, Note_on_c, 0, 70, 103
2, 75543, Note_on_c, 0, 65, 85
2, 75544, Note_on_c, 0, 82, 106
2, 75544, Note_on_c, 0, 77, 92
2, 75544, Note_on_c, 0, 53, 77
2, 75547, Note_on_c, 0, 58, 95
2, 75678, Note_on_c, 0, 62, 0
2, 75686, Note_on_c, 0, 58, 0
2, 75686, Note_on_c, 0, 70, 0
2, 75689, Note_on_c, 0, 62, 92
2, 75694, Note_on_c, 0, 82, 0
2, 75694, Note_on_c, 0, 86, 0
2, 75696, Note_on_c, 0, 70, 95
2, 75697, Note_on_c, 0, 58, 91
2, 75698, Note_on_c, 0, 86, 87
2, 75704, Note_on_c, 0, 82, 99
2, 75705, Note_on_c, 0, 94, 87
2, 75717, Note_on_c, 0, 94, 0
2, 75847, Note_on_c, 0, 65, 0
2, 75847, Note_on_c, 0, 74, 0
2, 75855, Note_on_c, 0, 53, 0
2, 75855, Note_on_c, 0, 58, 0
2, 75855, Note_on_c, 0, 62, 0
2, 75855, Note_on_c, 0, 65, 83
2, 75858, Note_on_c, 0, 74, 76
2, 75859, Note_on_c, 0, 62, 76
2, 75860, Note_on_c, 0, 58, 71
2, 75864, Note_on_c, 0, 53, 67
2, 76001, Note_on_c, 0, 53, 0
2, 76001, Note_on_c, 0, 58, 0
2, 76001, Note_on_c, 0, 65, 0
2, 76001, Note_on_c, 0, 82, 0
2, 76001, Note_on_c, 0, 86, 0
2, 76005, Note_on_c, 0, 53, 67
2, 76005, Note_on_c, 0, 94, 96
2, 76006, Note_on_c, 0, 65, 85
2, 76008, Note_on_c, 0, 82, 105
2, 76008, Note_on_c, 0, 58, 83
2, 76009, Note_on_c, 0, 86, 81
2, 76016, Note_on_c, 0, 94, 0
2, 76154, Note_on_c, 0, 74, 0
2, 76162, Note_on_c, 0, 70, 0
2, 76162, Note_on_c, 0, 80, 0
2, 76162, Note_on_c, 0, 86, 0
2, 76166, Note_on_c, 0, 74, 103
2, 76167, Note_on_c, 0, 70, 91
2, 76167, Note_on_c, 0, 92, 99
2, 76168, Note_on_c, 0, 86, 91
2, 76172, Note_on_c, 0, 80, 107
2, 76177, Note_on_c, 0, 92, 0
2, 76328, Note_on_c, 0, 91, 74
2, 76328, Note_on_c, 0, 79, 91
2, 76339, Note_on_c, 0, 91, 0
2, 76431, Note_on_c, 0, 70, 0
2, 76439, Note_on_c, 0, 70, 57
2, 76469, Note_on_c, 0, 80, 0
2, 76479, Note_on_c, 0, 92, 80
2, 76480, Note_on_c, 0, 94, 61
2, 76480, Note_on_c, 0, 80, 90
2, 76485, Note_on_c, 0, 92, 0
2, 76485, Note_on_c, 0, 94, 0
2, 76638, Note_on_c, 0, 70, 0
2, 76638, Note_on_c, 0, 74, 0
2, 76638, Note_on_c, 0, 79, 0
2, 76638, Note_on_c, 0, 82, 0
2, 76643, Note_on_c, 0, 79, 102
2, 76644, Note_on_c, 0, 74, 96
2, 76644, Note_on_c, 0, 91, 92
2, 76649, Note_on_c, 0, 70, 103
2, 76649, Note_on_c, 0, 82, 94
2, 76654, Note_on_c, 0, 91, 0
2, 76945, Note_on_c, 0, 79, 0
2, 76956, Note_on_c, 0, 67, 95
2, 76956, Note_on_c, 0, 79, 102
2, 76956, Note_on_c, 0, 91, 92
2, 77107, Note_on_c, 0, 65, 0
2, 77107, Note_on_c, 0, 77, 0
2, 77107, Note_on_c, 0, 91, 0
2, 77114, Note_on_c, 0, 77, 103
2, 77116, Note_on_c, 0, 89, 89
2, 77118, Note_on_c, 0, 65, 84
2, 77268, Note_on_c, 0, 65, 0
2, 77268, Note_on_c, 0, 77, 0
2, 77268, Note_on_c, 0, 89, 0
2, 77274, Note_on_c, 0, 77, 107
2, 77275, Note_on_c, 0, 89, 90
2, 77277, Note_on_c, 0, 65, 95
2, 77368, Note_on_c, 0, 69, 0
2, 77372, Note_on_c, 0, 53, 0
2, 77372, Note_on_c, 0, 82, 0
2, 77372, Note_on_c, 0, 50, 0
2, 77372, Note_on_c, 0, 80, 0
2, 77372, Note_on_c, 0, 58, 0
2, 77372, Note_on_c, 0, 62, 0
2, 77373, Note_on_c, 0, 67, 0
2, 77373, Note_on_c, 0, 70, 0
2, 77373, Note_on_c, 0, 38, 0
2, 77373, Note_on_c, 0, 81, 0
2, 77373, Note_on_c, 0, 79, 0
2, 77373, Note_on_c, 0, 74, 0
2, 77374, Note_on_c, 0, 86, 0
2, 77374, Control_c, 0, 64, 0
2, 77399, Note_on_c, 0, 89, 0
2, 77406, Control_c, 0, 64, 127
2, 77415, Note_on_c, 0, 48, 94
2, 77418, Note_on_c, 0, 36, 83
2, 77581, Note_on_c, 0, 75, 111
2, 77583, Note_on_c, 0, 87, 95
2, 77585, Note_on_c, 0, 51, 83
2, 77586, Note_on_c, 0, 63, 96
2, 77587, Note_on_c, 0, 55, 75
2, 77721, Note_on_c, 0, 48, 0
2, 77721, Note_on_c, 0, 55, 0
2, 77726, Note_on_c, 0, 60, 86
2, 77726, Note_on_c, 0, 55, 72
2, 77728, Note_on_c, 0, 48, 75
2, 77875, Note_on_c, 0, 60, 0
2, 77875, Note_on_c, 0, 63, 0
2, 77881, Note_on_c, 0, 63, 94
2, 77885, Note_on_c, 0, 60, 87
2, 77886, Note_on_c, 0, 53, 67
2, 77898, Note_on_c, 0, 53, 0
2, 78036, Note_on_c, 0, 75, 0
2, 78036, Note_on_c, 0, 87, 0
2, 78042, Note_on_c, 0, 75, 112
2, 78044, Note_on_c, 0, 87, 93
2, 78174, Note_on_c, 0, 60, 0
2, 78182, Note_on_c, 0, 48, 0
2, 78182, Note_on_c, 0, 55, 0
2, 78186, Note_on_c, 0, 60, 85
2, 78187, Note_on_c, 0, 48, 68
2, 78188, Note_on_c, 0, 55, 71
2, 78343, Note_on_c, 0, 60, 0
2, 78349, Note_on_c, 0, 84, 109
2, 78351, Note_on_c, 0, 55, 0
2, 78354, Note_on_c, 0, 72, 103
2, 78354, Note_on_c, 0, 60, 78
2, 78357, Note_on_c, 0, 55, 69
2, 78474, Note_on_c, 0, 51, 0
2, 78484, Note_on_c, 0, 51, 81
2, 78489, Note_on_c, 0, 48, 0
2, 78499, Note_on_c, 0, 48, 73
2, 78613, Note_on_c, 0, 48, 0
2, 78613, Note_on_c, 0, 63, 0
2, 78614, Note_on_c, 0, 55, 0
2, 78614, Note_on_c, 0, 60, 0
2, 78614, Note_on_c, 0, 87, 0
2, 78614, Note_on_c, 0, 75, 0
2, 78615, Note_on_c, 0, 72, 0
2, 78615, Control_c, 0, 64, 0
2, 78620, Note_on_c, 0, 36, 0
2, 78620, Note_on_c, 0, 65, 0
2, 78620, Note_on_c, 0, 77, 0
2, 78627, Note_on_c, 0, 51, 0
2, 78635, Note_on_c, 0, 84, 0
2, 78644, Note_on_c, 0, 46, 96
2, 78644, Note_on_c, 0, 84, 107
2, 78646, Note_on_c, 0, 34, 86
2, 78649, Note_on_c, 0, 74, 103
2, 78651, Note_on_c, 0, 77, 101
2, 78673, Control_c, 0, 64, 127
2, 78805, Note_on_c, 0, 50, 67
2, 78939, Note_on_c, 0, 58, 90
2, 78949, Note_on_c, 0, 53, 64
2, 78955, Note_on_c, 0, 82, 103
2, 78958, Note_on_c, 0, 70, 96
2, 79096, Note_on_c, 0, 58, 0
2, 79104, Note_on_c, 0, 53, 0
2, 79104, Note_on_c, 0, 70, 0
2, 79104, Note_on_c, 0, 74, 0
2, 79104, Note_on_c, 0, 82, 0
2, 79106, Note_on_c, 0, 62, 83
2, 79107, Note_on_c, 0, 58, 93
2, 79108, Note_on_c, 0, 53, 73
2, 79114, Note_on_c, 0, 82, 108
2, 79114, Note_on_c, 0, 70, 101
2, 79115, Note_on_c, 0, 74, 101
2, 79411, Note_on_c, 0, 58, 0
2, 79418, Note_on_c, 0, 53, 0
2, 79420, Note_on_c, 0, 58, 88
2, 79427, Note_on_c, 0, 53, 62
2, 79454, Note_on_c, 0, 65, 45
2, 79464, Note_on_c, 0, 65, 0
2, 79549, Note_on_c, 0, 53, 0
2, 79557, Note_on_c, 0, 50, 0
2, 79557, Note_on_c, 0, 58, 0
2, 79558, Note_on_c, 0, 53, 81
2, 79560, Note_on_c, 0, 62, 0
2, 79562, Note_on_c, 0, 50, 73
2, 79567, Note_on_c, 0, 58, 67
2, 79695, Note_on_c, 0, 46, 0
2, 79705, Note_on_c, 0, 46, 90
2, 79710, Note_on_c, 0, 70, 0
2, 79710, Note_on_c, 0, 82, 0
2, 79718, Note_on_c, 0, 82, 99
2, 79721, Note_on_c, 0, 70, 80
2, 79814, Note_on_c, 0, 74, 0
2, 79814, Control_c, 0, 64, 0
2, 79814, Note_on_c, 0, 84, 0
2, 79814, Note_on_c, 0, 77, 0
2, 79814, Note_on_c, 0, 58, 0
2, 79814, Note_on_c, 0, 34, 0
2, 79814, Note_on_c, 0, 82, 0
2, 79814, Note_on_c, 0, 50, 0
2, 79815, Note_on_c, 0, 70, 0
2, 79833, Note_on_c, 0, 46, 0
2, 79833, Note_on_c, 0, 53, 0
2, 79857, Note_on_c, 0, 44, 88
2, 79860, Note_on_c, 0, 32, 78
2, 79861, Note_on_c, 0, 82, 104
2, 79867, Note_on_c, 0, 75, 99
2, 79868, Note_on_c, 0, 72, 95
2, 79879, Control_c, 0, 64, 127
2, 80012, Note_on_c, 0, 48, 80
2, 80171, Note_on_c, 0, 44, 0
2, 80171, Note_on_c, 0, 48, 0
2, 80171, Note_on_c, 0, 72, 0
2, 80171, Note_on_c, 0, 75, 0
2, 80175, Note_on_c, 0, 48, 76
2, 80176, Note_on_c, 0, 80, 99
2, 80176, Note_on_c, 0, 72, 85
2, 80178, Note_on_c, 0, 75, 94
2, 80180, Note_on_c, 0, 56, 83
2, 80181, Note_on_c, 0, 44, 77
2, 80315, Note_on_c, 0, 51, 78
2, 80471, Note_on_c, 0, 75, 0
2, 80478, Note_on_c, 0, 56, 0
2, 80478, Note_on_c, 0, 72, 0
2, 80481, Note_on_c, 0, 75, 100
2, 80482, Note_on_c, 0, 79, 98
2, 80482, Note_on_c, 0, 72, 91
2, 80483, Note_on_c, 0, 60, 83
2, 80486, Note_on_c, 0, 32, 0
2, 80489, Note_on_c, 0, 56, 77
2, 80632, Note_on_c, 0, 56, 0
2, 80638, Note_on_c, 0, 56, 84
2, 80778, Note_on_c, 0, 75, 0
2, 80785, Note_on_c, 0, 75, 103
2, 80785, Note_on_c, 0, 72, 0
2, 80793, Note_on_c, 0, 72, 81
2, 80801, Note_on_c, 0, 60, 0
2, 80805, Note_on_c, 0, 60, 79
2, 80809, Note_on_c, 0, 68, 83
2, 80924, Note_on_c, 0, 56, 0
2, 80934, Note_on_c, 0, 56, 76
2, 81093, Note_on_c, 0, 75, 0
2, 81097, Note_on_c, 0, 34, 79
2, 81097, Note_on_c, 0, 75, 109
2, 81119, Control_c, 0, 64, 0
2, 81121, Note_on_c, 0, 82, 0
2, 81121, Note_on_c, 0, 68, 0
2, 81121, Note_on_c, 0, 48, 0
2, 81122, Note_on_c, 0, 56, 0
2, 81122, Note_on_c, 0, 51, 0
2, 81122, Note_on_c, 0, 80, 0
2, 81122, Note_on_c, 0, 72, 0
2, 81123, Note_on_c, 0, 79, 0
2, 81123, Note_on_c, 0, 44, 0
2, 81131, Note_on_c, 0, 60, 0
2, 81185, Control_c, 0, 64, 127
2, 81252, Note_on_c, 0, 41, 80
2, 81254, Note_on_c, 0, 72, 100
2, 81404, Note_on_c, 0, 46, 81
2, 81409, Note_on_c, 0, 77, 106
2, 81546, Note_on_c, 0, 77, 0
2, 81547, Note_on_c, 0, 53, 81
2, 81556, Note_on_c, 0, 77, 108
2, 81704, Note_on_c, 0, 58, 86
2, 81867, Note_on_c, 0, 63, 105
2, 81868, Note_on_c, 0, 51, 100
2, 82014, Note_on_c, 0, 53, 0
2, 82023, Note_on_c, 0, 65, 101
2, 82024, Note_on_c, 0, 53, 99
2, 82168, Note_on_c, 0, 51, 0
2, 82168, Note_on_c, 0, 63, 0
2, 82176, Note_on_c, 0, 58, 0
2, 82177, Note_on_c, 0, 51, 90
2, 82179, Note_on_c, 0, 63, 82
2, 82181, Note_on_c, 0, 58, 59
2, 82337, Note_on_c, 0, 58, 0
2, 82337, Note_on_c, 0, 63, 0
2, 82339, Note_on_c, 0, 72, 0
2, 82339, Note_on_c, 0, 65, 0
2, 82339, Note_on_c, 0, 41, 0
2, 82339, Note_on_c, 0, 51, 0
2, 82339, Control_c, 0, 64, 0
2, 82340, Note_on_c, 0, 46, 0
2, 82343, Note_on_c, 0, 70, 110
2, 82347, Note_on_c, 0, 58, 100
2, 82348, Note_on_c, 0, 63, 89
2, 82349, Note_on_c, 0, 48, 85
2, 82349, Note_on_c, 0, 36, 82
2, 82352, Note_on_c, 0, 34, 0
2, 82352, Note_on_c, 0, 53, 0
2, 82352, Note_on_c, 0, 75, 0
2, 82352, Note_on_c, 0, 77, 0
2, 82354, Note_on_c, 0, 67, 93
2, 82391, Note_on_c, 0, 36, 0
2, 82398, Control_c, 0, 64, 127
2, 82414, Note_on_c, 0, 48, 0
2, 82498, Note_on_c, 0, 58, 0
2, 82498, Note_on_c, 0, 63, 0
2, 82498, Note_on_c, 0, 67, 0
2, 82498, Note_on_c, 0, 70, 0
2, 82504, Note_on_c, 0, 58, 96
2, 82505, Note_on_c, 0, 70, 102
2, 82507, Note_on_c, 0, 63, 67
2, 82507, Note_on_c, 0, 67, 85
2, 82652, Note_on_c, 0, 70, 0
2, 82659, Note_on_c, 0, 70, 85
2, 82704, Note_on_c, 0, 75, 92
2, 82744, Note_on_c, 0, 82, 94
2, 82813, Note_on_c, 0, 82, 0
2, 82818, Note_on_c, 0, 82, 84
2, 82871, Note_on_c, 0, 87, 84
2, 82923, Note_on_c, 0, 94, 104
2, 82944, Note_on_c, 0, 58, 0
2, 82944, Note_on_c, 0, 63, 0
2, 82944, Note_on_c, 0, 67, 0
2, 82944, Note_on_c, 0, 70, 0
2, 82951, Note_on_c, 0, 70, 108
2, 82953, Note_on_c, 0, 58, 94
2, 82953, Note_on_c, 0, 67, 99
2, 82954, Note_on_c, 0, 86, 97
2, 82954, Note_on_c, 0, 63, 89
2, 82990, Note_on_c, 0, 87, 0
2, 82999, Note_on_c, 0, 87, 89
2, 83089, Note_on_c, 0, 58, 0
2, 83089, Note_on_c, 0, 63, 0
2, 83089, Note_on_c, 0, 70, 0
2, 83095, Note_on_c, 0, 70, 97
2, 83097, Note_on_c, 0, 67, 0
2, 83099, Note_on_c, 0, 63, 82
2, 83100, Note_on_c, 0, 58, 83
2, 83101, Note_on_c, 0, 67, 77
2, 83174, Note_on_c, 0, 75, 0
2, 83180, Note_on_c, 0, 75, 86
2, 83235, Note_on_c, 0, 70, 0
2, 83244, Note_on_c, 0, 70, 106
2, 83297, Note_on_c, 0, 86, 0
2, 83397, Note_on_c, 0, 58, 0
2, 83397, Note_on_c, 0, 70, 0
2, 83403, Note_on_c, 0, 70, 108
2, 83403, Note_on_c, 0, 58, 96
2, 83500, Control_c, 0, 64, 0
2, 83500, Note_on_c, 0, 94, 0
2, 83501, Note_on_c, 0, 67, 0
2, 83501, Note_on_c, 0, 70, 0
2, 83501, Note_on_c, 0, 87, 0
2, 83501, Note_on_c, 0, 63, 0
2, 83501, Note_on_c, 0, 58, 0
2, 83502, Note_on_c, 0, 75, 0
2, 83512, Note_on_c, 0, 82, 0
2, 83540, Note_on_c, 0, 68, 106
2, 83544, Note_on_c, 0, 56, 98
2, 83544, Note_on_c, 0, 63, 88
2, 83545, Note_on_c, 0, 47, 94
2, 83548, Note_on_c, 0, 35, 84
2, 83566, Control_c, 0, 64, 127
2, 83708, Note_on_c, 0, 67, 97
2, 83712, Note_on_c, 0, 55, 94
2, 83850, Note_on_c, 0, 56, 0
2, 83850, Note_on_c, 0, 68, 0
2, 83861, Note_on_c, 0, 56, 88
2, 83861, Note_on_c, 0, 68, 92
2, 83868, Note_on_c, 0, 70, 93
2, 83946, Note_on_c, 0, 75, 91
2, 84002, Note_on_c, 0, 82, 96
2, 84003, Note_on_c, 0, 70, 0
2, 84008, Note_on_c, 0, 58, 90
2, 84008, Note_on_c, 0, 70, 103
2, 84057, Note_on_c, 0, 82, 0
2, 84062, Note_on_c, 0, 94, 84
2, 84062, Note_on_c, 0, 82, 94
2, 84072, Note_on_c, 0, 94, 0
2, 84116, Note_on_c, 0, 87, 82
2, 84165, Note_on_c, 0, 94, 101
2, 84226, Note_on_c, 0, 87, 0
2, 84235, Note_on_c, 0, 87, 91
2, 84257, Note_on_c, 0, 82, 0
2, 84265, Note_on_c, 0, 82, 76
2, 84311, Note_on_c, 0, 63, 0
2, 84321, Note_on_c, 0, 63, 98
2, 84322, Note_on_c, 0, 51, 98
2, 84380, Note_on_c, 0, 75, 0
2, 84388, Note_on_c, 0, 75, 80
2, 84433, Note_on_c, 0, 70, 0
2, 84433, Note_on_c, 0, 82, 0
2, 84444, Note_on_c, 0, 82, 81
2, 84445, Note_on_c, 0, 70, 86
2, 84470, Note_on_c, 0, 65, 91
2, 84472, Note_on_c, 0, 53, 93
2, 84618, Note_on_c, 0, 51, 0
2, 84618, Note_on_c, 0, 63, 0
2, 84623, Note_on_c, 0, 63, 88
2, 84624, Note_on_c, 0, 51, 90
2, 84779, Note_on_c, 0, 58, 0
2, 84779, Note_on_c, 0, 63, 0
2, 84779, Note_on_c, 0, 70, 0
2, 84786, Note_on_c, 0, 58, 98
2, 84786, Note_on_c, 0, 70, 106
2, 84787, Note_on_c, 0, 67, 0
2, 84791, Note_on_c, 0, 63, 87
2, 84793, Note_on_c, 0, 94, 0
2, 84796, Note_on_c, 0, 34, 93
2, 84796, Note_on_c, 0, 67, 88
2, 84796, Note_on_c, 0, 65, 0
2, 84796, Note_on_c, 0, 55, 0
2, 84797, Control_c, 0, 64, 0
2, 84797, Note_on_c, 0, 53, 0
2, 84798, Note_on_c, 0, 46, 98
2, 84810, Note_on_c, 0, 47, 0
2, 84817, Note_on_c, 0, 35, 0
2, 84817, Note_on_c, 0, 56, 0
2, 84817, Note_on_c, 0, 68, 0
2, 84840, Note_on_c, 0, 87, 0
2, 84856, Control_c, 0, 64, 127
2, 84933, Note_on_c, 0, 63, 0
2, 84940, Note_on_c, 0, 58, 0
2, 84940, Note_on_c, 0, 67, 0
2, 84940, Note_on_c, 0, 70, 0
2, 84944, Note_on_c, 0, 63, 76
2, 84944, Note_on_c, 0, 70, 91
2, 84946, Note_on_c, 0, 58, 74
2, 84947, Note_on_c, 0, 67, 81
2, 85094, Note_on_c, 0, 70, 0
2, 85100, Note_on_c, 0, 70, 77
2, 85155, Note_on_c, 0, 75, 0
2, 85161, Note_on_c, 0, 75, 97
2, 85194, Note_on_c, 0, 67, 0
2, 85194, Note_on_c, 0, 82, 0
2, 85199, Note_on_c, 0, 82, 81
2, 85199, Note_on_c, 0, 67, 49
2, 85271, Note_on_c, 0, 82, 0
2, 85279, Note_on_c, 0, 86, 74
2, 85281, Note_on_c, 0, 82, 81
2, 85331, Note_on_c, 0, 87, 76
2, 85381, Note_on_c, 0, 94, 101
2, 85393, Note_on_c, 0, 58, 0
2, 85393, Note_on_c, 0, 63, 0
2, 85393, Note_on_c, 0, 67, 0
2, 85393, Note_on_c, 0, 70, 0
2, 85399, Note_on_c, 0, 67, 97
2, 85399, Note_on_c, 0, 58, 96
2, 85401, Note_on_c, 0, 63, 86
2, 85403, Note_on_c, 0, 70, 102
2, 85432, Note_on_c, 0, 86, 0
2, 85440, Note_on_c, 0, 87, 0
2, 85440, Note_on_c, 0, 86, 86
2, 85450, Note_on_c, 0, 87, 80
2, 85532, Note_on_c, 0, 70, 0
2, 85539, Note_on_c, 0, 58, 0
2, 85539, Note_on_c, 0, 63, 0
2, 85542, Note_on_c, 0, 70, 95
2, 85545, Note_on_c, 0, 63, 70
2, 85547, Note_on_c, 0, 67, 0
2, 85550, Note_on_c, 0, 58, 81
2, 85555, Note_on_c, 0, 67, 67
2, 85616, Note_on_c, 0, 75, 0
2, 85623, Note_on_c, 0, 75, 83
2, 85672, Note_on_c, 0, 76, 34
2, 85678, Note_on_c, 0, 76, 0
2, 85685, Note_on_c, 0, 70, 0
2, 85693, Note_on_c, 0, 82, 0
2, 85695, Note_on_c, 0, 70, 97
2, 85847, Note_on_c, 0, 58, 0
2, 85847, Note_on_c, 0, 70, 0
2, 85851, Note_on_c, 0, 58, 94
2, 85853, Note_on_c, 0, 70, 109
2, 85969, Note_on_c, 0, 67, 0
2, 85969, Note_on_c, 0, 51, 0
2, 85970, Note_on_c, 0, 63, 0
2, 85970, Note_on_c, 0, 70, 0
2, 85970, Note_on_c, 0, 94, 0
2, 85970, Note_on_c, 0, 46, 0
2, 85970, Note_on_c, 0, 58, 0
2, 85970, Note_on_c, 0, 87, 0
2, 85971, Note_on_c, 0, 75, 0
2, 85971, Control_c, 0, 64, 0
2, 85977, Note_on_c, 0, 86, 0
2, 85992, Note_on_c, 0, 34, 0
2, 86006, Note_on_c, 0, 72, 106
2, 86010, Note_on_c, 0, 60, 100
2, 86011, Note_on_c, 0, 63, 97
2, 86012, Note_on_c, 0, 67, 89
2, 86039, Control_c, 0, 64, 127
2, 86092, Note_on_c, 0, 67, 0
2, 86097, Note_on_c, 0, 67, 67
2, 86100, Note_on_c, 0, 60, 0
2, 86104, Note_on_c, 0, 60, 71
2, 86238, Note_on_c, 0, 67, 0
2, 86245, Note_on_c, 0, 67, 71
2, 86315, Note_on_c, 0, 67, 0
2, 86315, Note_on_c, 0, 72, 0
2, 86320, Note_on_c, 0, 67, 91
2, 86321, Note_on_c, 0, 72, 89
2, 86325, Note_on_c, 0, 55, 89
2, 86398, Note_on_c, 0, 79, 87
2, 86436, Note_on_c, 0, 84, 84
2, 86464, Note_on_c, 0, 53, 94
2, 86475, Note_on_c, 0, 65, 90
2, 86484, Note_on_c, 0, 84, 0
2, 86490, Note_on_c, 0, 84, 83
2, 86551, Note_on_c, 0, 91, 71
2, 86598, Note_on_c, 0, 96, 88
2, 86618, Note_on_c, 0, 95, 76
2, 86645, Note_on_c, 0, 91, 0
2, 86656, Note_on_c, 0, 91, 84
2, 86657, Note_on_c, 0, 103, 75
2, 86661, Note_on_c, 0, 103, 0
2, 86722, Note_on_c, 0, 84, 0
2, 86733, Note_on_c, 0, 84, 67
2, 86753, Note_on_c, 0, 55, 0
2, 86753, Note_on_c, 0, 67, 0
2, 86760, Note_on_c, 0, 67, 91
2, 86764, Note_on_c, 0, 55, 95
2, 86784, Note_on_c, 0, 84, 0
2, 86795, Note_on_c, 0, 84, 81
2, 86845, Note_on_c, 0, 79, 0
2, 86855, Note_on_c, 0, 79, 85
2, 86914, Note_on_c, 0, 72, 0
2, 86921, Note_on_c, 0, 72, 95
2, 86922, Note_on_c, 0, 63, 0
2, 86929, Note_on_c, 0, 67, 0
2, 86932, Note_on_c, 0, 63, 93
2, 86937, Note_on_c, 0, 51, 88
2, 86940, Note_on_c, 0, 67, 72
2, 87241, Note_on_c, 0, 95, 0
2, 87241, Note_on_c, 0, 51, 0
2, 87241, Note_on_c, 0, 63, 0
2, 87241, Note_on_c, 0, 53, 0
2, 87241, Note_on_c, 0, 65, 0
2, 87241, Note_on_c, 0, 79, 0
2, 87241, Note_on_c, 0, 96, 0
2, 87241, Note_on_c, 0, 67, 0
2, 87241, Note_on_c, 0, 60, 0
2, 87242, Control_c, 0, 64, 0
2, 87242, Note_on_c, 0, 72, 0
2, 87249, Note_on_c, 0, 44, 80
2, 87252, Note_on_c, 0, 84, 0
2, 87252, Note_on_c, 0, 91, 0
2, 87260, Note_on_c, 0, 55, 0
2, 87313, Control_c, 0, 64, 127
2, 87355, Note_on_c, 0, 51, 64
2, 87399, Note_on_c, 0, 56, 79
2, 87483, Note_on_c, 0, 60, 72
2, 87544, Note_on_c, 0, 51, 0
2, 87553, Note_on_c, 0, 72, 97
2, 87553, Note_on_c, 0, 51, 79
2, 87621, Note_on_c, 0, 56, 0
2, 87626, Note_on_c, 0, 56, 62
2, 87674, Note_on_c, 0, 60, 0
2, 87684, Note_on_c, 0, 60, 81
2, 87776, Note_on_c, 0, 63, 73
2, 87849, Note_on_c, 0, 75, 102
2, 87866, Note_on_c, 0, 56, 0
2, 87876, Note_on_c, 0, 56, 74
2, 87959, Note_on_c, 0, 60, 0
2, 87963, Note_on_c, 0, 60, 75
2, 88005, Note_on_c, 0, 63, 0
2, 88013, Note_on_c, 0, 63, 72
2, 88103, Note_on_c, 0, 68, 68
2, 88164, Note_on_c, 0, 80, 98
2, 88166, Note_on_c, 0, 60, 0
2, 88172, Note_on_c, 0, 60, 80
2, 88243, Note_on_c, 0, 63, 0
2, 88252, Note_on_c, 0, 63, 79
2, 88296, Note_on_c, 0, 68, 0
2, 88305, Note_on_c, 0, 68, 83
2, 88389, Note_on_c, 0, 72, 0
2, 88393, Note_on_c, 0, 72, 68
2, 88473, Note_on_c, 0, 44, 0
2, 88480, Note_on_c, 0, 44, 83
2, 88485, Note_on_c, 0, 80, 0
2, 88485, Note_on_c, 0, 79, 99
2, 88486, Note_on_c, 0, 75, 0
2, 88486, Note_on_c, 0, 56, 0
2, 88486, Note_on_c, 0, 51, 0
2, 88486, Note_on_c, 0, 63, 0
2, 88486, Note_on_c, 0, 60, 0
2, 88486, Control_c, 0, 64, 0
2, 88487, Note_on_c, 0, 68, 0
2, 88487, Note_on_c, 0, 72, 0
2, 88488, Note_on_c, 0, 74, 91
2, 88494, Note_on_c, 0, 70, 93
2, 88535, Control_c, 0, 64, 127
2, 88586, Note_on_c, 0, 50, 72
2, 88641, Note_on_c, 0, 53, 71
2, 88707, Note_on_c, 0, 58, 74
2, 88785, Note_on_c, 0, 82, 94
2, 88811, Note_on_c, 0, 74, 0
2, 88815, Note_on_c, 0, 74, 64
2, 88816, Note_on_c, 0, 62, 72
2, 88889, Note_on_c, 0, 65, 69
2, 88942, Note_on_c, 0, 79, 0
2, 88946, Note_on_c, 0, 79, 92
2, 88965, Note_on_c, 0, 70, 0
2, 88971, Note_on_c, 0, 70, 76
2, 89041, Note_on_c, 0, 74, 0
2, 89052, Note_on_c, 0, 74, 82
2, 89113, Note_on_c, 0, 77, 94
2, 89187, Note_on_c, 0, 74, 0
2, 89197, Note_on_c, 0, 74, 82
2, 89218, Note_on_c, 0, 70, 0
2, 89227, Note_on_c, 0, 70, 83
2, 89287, Note_on_c, 0, 65, 0
2, 89298, Note_on_c, 0, 65, 76
2, 89356, Note_on_c, 0, 62, 0
2, 89362, Note_on_c, 0, 62, 78
2, 89456, Note_on_c, 0, 58, 0
2, 89461, Note_on_c, 0, 58, 79
2, 89525, Note_on_c, 0, 54, 78
2, 89617, Note_on_c, 0, 50, 0
2, 89622, Note_on_c, 0, 50, 67
2, 89699, Note_on_c, 0, 43, 90
2, 89722, Note_on_c, 0, 79, 0
2, 89722, Note_on_c, 0, 53, 0
2, 89723, Note_on_c, 0, 54, 0
2, 89723, Note_on_c, 0, 77, 0
2, 89723, Control_c, 0, 64, 0
2, 89723, Note_on_c, 0, 50, 0
2, 89723, Note_on_c, 0, 58, 0
2, 89724, Note_on_c, 0, 62, 0
2, 89724, Note_on_c, 0, 82, 0
2, 89724, Note_on_c, 0, 74, 0
2, 89725, Note_on_c, 0, 70, 0
2, 89740, Note_on_c, 0, 44, 0
2, 89740, Note_on_c, 0, 65, 0
2, 89779, Control_c, 0, 64, 127
2, 89812, Note_on_c, 0, 50, 79
2, 89862, Note_on_c, 0, 55, 65
2, 89958, Note_on_c, 0, 59, 78
2, 90001, Note_on_c, 0, 50, 0
2, 90009, Note_on_c, 0, 50, 73
2, 90012, Note_on_c, 0, 91, 102
2, 90014, Note_on_c, 0, 83, 89
2, 90015, Note_on_c, 0, 86, 92
2, 90016, Note_on_c, 0, 79, 94
2, 90086, Note_on_c, 0, 55, 0
2, 90091, Note_on_c, 0, 55, 59
2, 90132, Note_on_c, 0, 59, 0
2, 90141, Note_on_c, 0, 59, 84
2, 90219, Note_on_c, 0, 62, 79
2, 90309, Note_on_c, 0, 55, 0
2, 90309, Note_on_c, 0, 83, 0
2, 90313, Note_on_c, 0, 55, 76
2, 90315, Note_on_c, 0, 90, 107
2, 90316, Note_on_c, 0, 86, 0
2, 90319, Note_on_c, 0, 78, 103
2, 90320, Note_on_c, 0, 83, 95
2, 90321, Note_on_c, 0, 86, 93
2, 90378, Note_on_c, 0, 59, 0
2, 90387, Note_on_c, 0, 59, 79
2, 90439, Note_on_c, 0, 62, 0
2, 90445, Note_on_c, 0, 62, 69
2, 90520, Note_on_c, 0, 67, 74
2, 90608, Note_on_c, 0, 59, 0
2, 90616, Note_on_c, 0, 79, 0
2, 90616, Note_on_c, 0, 83, 0
2, 90616, Note_on_c, 0, 86, 0
2, 90616, Note_on_c, 0, 91, 0
2, 90618, Note_on_c, 0, 59, 85
2, 90620, Note_on_c, 0, 83, 96
2, 90624, Note_on_c, 0, 91, 100
2, 90626, Note_on_c, 0, 86, 92
2, 90627, Note_on_c, 0, 79, 95
2, 90670, Note_on_c, 0, 62, 0
2, 90680, Note_on_c, 0, 62, 81
2, 90746, Note_on_c, 0, 67, 0
2, 90757, Note_on_c, 0, 67, 69
2, 90819, Note_on_c, 0, 71, 77
2, 90927, Note_on_c, 0, 96, 107
2, 90932, Note_on_c, 0, 48, 85
2, 90935, Note_on_c, 0, 84, 100
2, 90935, Control_c, 0, 64, 0
2, 90935, Note_on_c, 0, 87, 100
2, 90936, Note_on_c, 0, 78, 0
2, 90937, Note_on_c, 0, 59, 0
2, 90938, Note_on_c, 0, 55, 0
2, 90938, Note_on_c, 0, 83, 0
2, 90938, Note_on_c, 0, 71, 0
2, 90939, Note_on_c, 0, 91, 0
2, 90940, Note_on_c, 0, 90, 0
2, 90940, Note_on_c, 0, 50, 0
2, 90946, Note_on_c, 0, 67, 0
2, 90954, Note_on_c, 0, 43, 0
2, 90954, Note_on_c, 0, 62, 0
2, 90954, Note_on_c, 0, 79, 0
2, 90961, Note_on_c, 0, 86, 0
2, 91000, Control_c, 0, 64, 127
2, 91018, Note_on_c, 0, 55, 71
2, 91091, Note_on_c, 0, 60, 75
2, 91187, Note_on_c, 0, 62, 65
2, 91233, Note_on_c, 0, 91, 98
2, 91250, Note_on_c, 0, 63, 78
2, 91296, Note_on_c, 0, 67, 67
2, 91377, Note_on_c, 0, 72, 87
2, 91379, Note_on_c, 0, 89, 102
2, 91476, Note_on_c, 0, 75, 87
2, 91546, Note_on_c, 0, 79, 86
2, 91553, Note_on_c, 0, 48, 0
2, 91564, Note_on_c, 0, 48, 54
2, 91636, Note_on_c, 0, 76, 49
2, 91699, Note_on_c, 0, 72, 0
2, 91703, Note_on_c, 0, 72, 91
2, 91714, Note_on_c, 0, 87, 0
2, 91719, Note_on_c, 0, 87, 101
2, 91768, Note_on_c, 0, 67, 0
2, 91778, Note_on_c, 0, 67, 72
2, 91806, Note_on_c, 0, 63, 0
2, 91812, Note_on_c, 0, 63, 81
2, 91860, Note_on_c, 0, 62, 0
2, 91860, Note_on_c, 0, 87, 0
2, 91870, Note_on_c, 0, 62, 73
2, 91870, Note_on_c, 0, 87, 102
2, 91952, Note_on_c, 0, 60, 0
2, 91958, Note_on_c, 0, 60, 77
2, 92021, Note_on_c, 0, 55, 0
2, 92032, Note_on_c, 0, 55, 80
2, 92179, Note_on_c, 0, 41, 69
2, 92194, Note_on_c, 0, 62, 0
2, 92195, Note_on_c, 0, 60, 0
2, 92195, Note_on_c, 0, 63, 0
2, 92195, Note_on_c, 0, 89, 0
2, 92195, Note_on_c, 0, 48, 0
2, 92195, Note_on_c, 0, 75, 0
2, 92195, Note_on_c, 0, 72, 0
2, 92196, Note_on_c, 0, 91, 0
2, 92196, Note_on_c, 0, 79, 0
2, 92196, Note_on_c, 0, 87, 0
2, 92196, Note_on_c, 0, 84, 0
2, 92197, Control_c, 0, 64, 0
2, 92198, Note_on_c, 0, 76, 0
2, 92199, Note_on_c, 0, 96, 0
2, 92213, Note_on_c, 0, 55, 0
2, 92213, Note_on_c, 0, 67, 0
2, 92282, Control_c, 0, 64, 127
2, 92341, Note_on_c, 0, 75, 98
2, 92342, Note_on_c, 0, 63, 80
2, 92343, Note_on_c, 0, 48, 67
2, 92490, Note_on_c, 0, 48, 0
2, 92493, Note_on_c, 0, 80, 100
2, 92497, Note_on_c, 0, 68, 101
2, 92499, Note_on_c, 0, 51, 73
2, 92501, Note_on_c, 0, 48, 59
2, 92638, Note_on_c, 0, 56, 76
2, 92646, Note_on_c, 0, 79, 94
2, 92656, Note_on_c, 0, 67, 73
2, 92789, Note_on_c, 0, 68, 0
2, 92789, Note_on_c, 0, 80, 0
2, 92796, Note_on_c, 0, 80, 102
2, 92799, Note_on_c, 0, 68, 95
2, 92800, Note_on_c, 0, 60, 75
2, 92943, Note_on_c, 0, 63, 0
2, 92943, Note_on_c, 0, 67, 0
2, 92943, Note_on_c, 0, 79, 0
2, 92947, Note_on_c, 0, 79, 96
2, 92947, Note_on_c, 0, 63, 70
2, 92949, Note_on_c, 0, 67, 85
2, 93104, Note_on_c, 0, 68, 0
2, 93104, Note_on_c, 0, 75, 0
2, 93110, Note_on_c, 0, 68, 73
2, 93112, Note_on_c, 0, 75, 81
2, 93242, Note_on_c, 0, 56, 0
2, 93252, Note_on_c, 0, 56, 84
2, 93416, Note_on_c, 0, 46, 82
2, 93463, Control_c, 0, 64, 0
2, 93463, Note_on_c, 0, 79, 0
2, 93463, Note_on_c, 0, 63, 0
2, 93463, Note_on_c, 0, 67, 0
2, 93463, Note_on_c, 0, 41, 0
2, 93463, Note_on_c, 0, 56, 0
2, 93463, Note_on_c, 0, 75, 0
2, 93463, Note_on_c, 0, 51, 0
2, 93464, Note_on_c, 0, 68, 0
2, 93465, Note_on_c, 0, 80, 0
2, 93466, Note_on_c, 0, 60, 0
2, 93480, Note_on_c, 0, 48, 0
2, 93542, Control_c, 0, 64, 127
2, 93566, Note_on_c, 0, 53, 73
2, 93569, Note_on_c, 0, 87, 105
2, 93569, Note_on_c, 0, 75, 100
2, 93721, Note_on_c, 0, 58, 81
2, 93723, Note_on_c, 0, 92, 102
2, 93725, Note_on_c, 0, 80, 98
2, 93858, Note_on_c, 0, 60, 82
2, 93874, Note_on_c, 0, 91, 100
2, 93877, Note_on_c, 0, 79, 96
2, 94018, Note_on_c, 0, 58, 0
2, 94018, Note_on_c, 0, 80, 0
2, 94018, Note_on_c, 0, 92, 0
2, 94022, Note_on_c, 0, 92, 106
2, 94025, Note_on_c, 0, 80, 100
2, 94026, Note_on_c, 0, 62, 64
2, 94029, Note_on_c, 0, 58, 61
2, 94172, Note_on_c, 0, 91, 0
2, 94174, Note_on_c, 0, 65, 79
2, 94176, Note_on_c, 0, 91, 98
2, 94179, Note_on_c, 0, 79, 0
2, 94186, Note_on_c, 0, 79, 90
2, 94325, Note_on_c, 0, 87, 0
2, 94333, Note_on_c, 0, 75, 0
2, 94336, Note_on_c, 0, 87, 104
2, 94337, Note_on_c, 0, 70, 73
2, 94343, Note_on_c, 0, 75, 83
2, 94464, Note_on_c, 0, 58, 0
2, 94471, Note_on_c, 0, 70, 0
2, 94475, Note_on_c, 0, 58, 78
2, 94476, Note_on_c, 0, 70, 73
2, 94644, Note_on_c, 0, 51, 77
2, 94644, Note_on_c, 0, 65, 0
2, 94644, Note_on_c, 0, 80, 0
2, 94644, Note_on_c, 0, 53, 0
2, 94644, Note_on_c, 0, 62, 0
2, 94644, Note_on_c, 0, 79, 0
2, 94644, Note_on_c, 0, 58, 0
2, 94644, Note_on_c, 0, 91, 0
2, 94644, Note_on_c, 0, 92, 0
2, 94645, Note_on_c, 0, 70, 0
2, 94645, Note_on_c, 0, 60, 0
2, 94645, Control_c, 0, 64, 0
2, 94648, Note_on_c, 0, 46, 0
2, 94654, Note_on_c, 0, 89, 103
2, 94656, Note_on_c, 0, 75, 0
2, 94661, Note_on_c, 0, 77, 96
2, 94663, Note_on_c, 0, 87, 0
2, 94666, Note_on_c, 0, 82, 89
2, 94669, Note_on_c, 0, 87, 89
2, 94702, Control_c, 0, 64, 127
2, 94793, Note_on_c, 0, 58, 75
2, 94817, Note_on_c, 0, 77, 0
2, 94817, Note_on_c, 0, 82, 0
2, 94817, Note_on_c, 0, 89, 0
2, 94822, Note_on_c, 0, 89, 90
2, 94824, Note_on_c, 0, 87, 0
2, 94827, Note_on_c, 0, 77, 86
2, 94828, Note_on_c, 0, 82, 86
2, 94831, Note_on_c, 0, 87, 93
2, 94954, Note_on_c, 0, 63, 68
2, 95103, Note_on_c, 0, 65, 65
2, 95123, Note_on_c, 0, 91, 85
2, 95129, Note_on_c, 0, 79, 78
2, 95285, Note_on_c, 0, 77, 0
2, 95285, Note_on_c, 0, 89, 0
2, 95293, Note_on_c, 0, 67, 66
2, 95294, Note_on_c, 0, 89, 90
2, 95295, Note_on_c, 0, 77, 86
2, 95470, Note_on_c, 0, 70, 60
2, 95639, Note_on_c, 0, 87, 0
2, 95644, Note_on_c, 0, 75, 77
2, 95646, Note_on_c, 0, 87, 92
2, 95831, Note_on_c, 0, 77, 0
2, 95831, Note_on_c, 0, 87, 0
2, 95840, Note_on_c, 0, 87, 85
2, 95841, Note_on_c, 0, 77, 66
2, 96046, Note_on_c, 0, 79, 0
2, 96055, Note_on_c, 0, 79, 70
2, 97121, Note_on_c, 0, 70, 0
2, 97130, Note_on_c, 0, 70, 58
2, 97308, Note_on_c, 0, 72, 73
2, 97472, Note_on_c, 0, 74, 78
2, 97515, Note_on_c, 0, 41, 46
2, 97658, Note_on_c, 0, 75, 0
2, 97664, Note_on_c, 0, 75, 85
2, 97679, Note_on_c, 0, 51, 0
2, 97679, Note_on_c, 0, 65, 0
2, 97681, Note_on_c, 0, 87, 0
2, 97682, Note_on_c, 0, 89, 0
2, 97682, Note_on_c, 0, 63, 0
2, 97684, Note_on_c, 0, 91, 0
2, 97684, Note_on_c, 0, 67, 0
2, 97685, Note_on_c, 0, 70, 0
2, 97685, Note_on_c, 0, 58, 0
2, 97685, Note_on_c, 0, 79, 0
2, 97693, Note_on_c, 0, 56, 61
2, 97693, Control_c, 0, 64, 0
2, 97697, Note_on_c, 0, 72, 0
2, 97697, Note_on_c, 0, 77, 0
2, 97697, Note_on_c, 0, 82, 0
2, 97820, Control_c, 0, 64, 127
2, 97832, Note_on_c, 0, 63, 66
2, 97881, Note_on_c, 0, 74, 0
2, 97995, Note_on_c, 0, 68, 75
2, 98168, Note_on_c, 0, 67, 71
2, 98311, Note_on_c, 0, 68, 0
2, 98322, Note_on_c, 0, 68, 77
2, 98494, Note_on_c, 0, 70, 80
2, 98525, Note_on_c, 0, 63, 0
2, 98525, Note_on_c, 0, 67, 0
2, 98527, Note_on_c, 0, 68, 0
2, 98527, Note_on_c, 0, 56, 0
2, 98527, Control_c, 0, 64, 0
2, 98588, Control_c, 0, 64, 127
2, 98634, Note_on_c, 0, 75, 0
2, 98669, Note_on_c, 0, 72, 83
2, 98675, Note_on_c, 0, 63, 71
2, 98830, Note_on_c, 0, 74, 83
2, 98988, Note_on_c, 0, 46, 63
2, 98992, Note_on_c, 0, 75, 88
2, 99017, Note_on_c, 0, 58, 61
2, 99029, Note_on_c, 0, 63, 0
2, 99029, Note_on_c, 0, 72, 0
2, 99030, Note_on_c, 0, 70, 0
2, 99030, Note_on_c, 0, 74, 0
2, 99032, Control_c, 0, 64, 0
2, 99064, Note_on_c, 0, 41, 0
2, 99172, Note_on_c, 0, 63, 68
2, 99179, Control_c, 0, 64, 127
2, 99348, Note_on_c, 0, 68, 77
2, 99529, Note_on_c, 0, 67, 76
2, 99701, Note_on_c, 0, 68, 0
2, 99707, Note_on_c, 0, 74, 79
2, 99707, Note_on_c, 0, 68, 78
2, 99744, Note_on_c, 0, 63, 0
2, 99744, Note_on_c, 0, 67, 0
2, 99745, Note_on_c, 0, 75, 0
2, 99746, Control_c, 0, 64, 0
2, 99855, Control_c, 0, 64, 127
2, 99890, Note_on_c, 0, 67, 64
2, 100109, Note_on_c, 0, 63, 69
2, 100483, Note_on_c, 0, 63, 0
2, 100483, Note_on_c, 0, 68, 0
2, 100483, Note_on_c, 0, 67, 0
2, 100485, Note_on_c, 0, 74, 0
2, 100487, Control_c, 0, 64, 0
2, 100495, Note_on_c, 0, 75, 80
2, 100497, Note_on_c, 0, 65, 62
2, 100500, Note_on_c, 0, 58, 0
2, 100502, Note_on_c, 0, 39, 50
2, 100508, Note_on_c, 0, 46, 0
2, 100577, Control_c, 0, 64, 127
2, 100684, Note_on_c, 0, 65, 0
2, 100692, Note_on_c, 0, 65, 65
2, 100877, Note_on_c, 0, 46, 63
2, 101053, Note_on_c, 0, 67, 72
2, 101245, Note_on_c, 0, 65, 0
2, 101250, Note_on_c, 0, 51, 52
2, 101250, Note_on_c, 0, 65, 73
2, 101636, Note_on_c, 0, 63, 71
2, 101643, Note_on_c, 0, 53, 53
2, 101859, Note_on_c, 0, 63, 0
2, 101865, Note_on_c, 0, 63, 75
2, 102164, Note_on_c, 0, 55, 57
2, 102243, Control_c, 0, 64, 0
2, 102246, Note_on_c, 0, 53, 0
2, 102246, Note_on_c, 0, 65, 0
2, 102247, Note_on_c, 0, 67, 0
2, 102247, Note_on_c, 0, 75, 0
2, 103157, Note_on_c, 0, 39, 0
2, 103303, Control_c, 0, 64, 127
2, 104377, Note_on_c, 0, 75, 83
2, 104408, Control_c, 0, 64, 0
2, 104463, Control_c, 0, 64, 127
2, 104486, Note_on_c, 0, 51, 0
2, 104532, Note_on_c, 0, 46, 0
2, 104535, Note_on_c, 0, 59, 63
2, 104563, Note_on_c, 0, 63, 0
2, 104572, Note_on_c, 0, 63, 61
2, 104630, Note_on_c, 0, 68, 74
2, 104643, Note_on_c, 0, 71, 76
2, 104678, Note_on_c, 0, 75, 0
2, 104684, Note_on_c, 0, 75, 87
2, 104709, Note_on_c, 0, 55, 0
2, 104716, Control_c, 0, 64, 0
2, 104759, Note_on_c, 0, 82, 97
2, 104885, Control_c, 0, 64, 127
2, 105077, Note_on_c, 0, 82, 0
2, 105082, Note_on_c, 0, 82, 90
2, 106206, Note_on_c, 0, 82, 0
2, 106215, Note_on_c, 0, 82, 86
2, 106225, Note_on_c, 0, 59, 0
2, 106405, Note_on_c, 0, 58, 54
2, 106452, Note_on_c, 0, 63, 0
2, 106463, Note_on_c, 0, 63, 63
2, 106506, Note_on_c, 0, 68, 0
2, 106517, Note_on_c, 0, 68, 56
2, 106567, Note_on_c, 0, 71, 0
2, 106578, Note_on_c, 0, 71, 73
2, 106629, Note_on_c, 0, 75, 0
2, 106639, Note_on_c, 0, 75, 79
2, 106673, Note_on_c, 0, 82, 0
2, 106743, Note_on_c, 0, 80, 89
2, 106752, Control_c, 0, 64, 0
2, 107112, Control_c, 0, 64, 127
2, 108215, Note_on_c, 0, 79, 67
2, 108216, Note_on_c, 0, 62, 45
2, 108220, Note_on_c, 0, 70, 50
2, 108280, Note_on_c, 0, 58, 0
2, 108282, Note_on_c, 0, 71, 0
2, 108283, Note_on_c, 0, 80, 0
2, 108283, Note_on_c, 0, 75, 0
2, 108285, Control_c, 0, 64, 0
2, 108418, Control_c, 0, 64, 127
2, 109132, Note_on_c, 0, 68, 0
2, 109141, Note_on_c, 0, 77, 67
2, 109141, Note_on_c, 0, 68, 51
2, 109198, Note_on_c, 0, 70, 0
2, 109198, Note_on_c, 0, 62, 0
2, 109199, Note_on_c, 0, 79, 0
2, 109199, Control_c, 0, 64, 0
2, 109317, Control_c, 0, 64, 127
2, 109440, Note_on_c, 0, 63, 0
2, 109845, Note_on_c, 0, 63, 61
2, 110191, Note_on_c, 0, 75, 78
2, 110196, Note_on_c, 0, 70, 65
2, 110204, Note_on_c, 0, 67, 51
2, 110218, Note_on_c, 0, 68, 0
2, 110219, Note_on_c, 0, 63, 0
2, 110219, Note_on_c, 0, 77, 0
2, 110219, Note_on_c, 0, 51, 36
2, 110220, Control_c, 0, 64, 0
2, 110300, Control_c, 0, 64, 127
2, 110415, Note_on_c, 0, 70, 0
2, 110420, Note_on_c, 0, 70, 60
2, 110430, Note_on_c, 0, 58, 58
2, 110641, Note_on_c, 0, 63, 52
2, 110817, Note_on_c, 0, 65, 53
2, 111014, Note_on_c, 0, 70, 0
2, 111024, Note_on_c, 0, 70, 68
2, 111029, Note_on_c, 0, 67, 0
2, 111034, Note_on_c, 0, 67, 51
2, 111035, Control_c, 0, 64, 0
2, 111098, Control_c, 0, 64, 127
2, 111244, Note_on_c, 0, 70, 0
2, 111254, Note_on_c, 0, 70, 75
2, 111628, Note_on_c, 0, 70, 0
2, 111634, Note_on_c, 0, 70, 74
2, 111854, Note_on_c, 0, 58, 0
2, 111854, Note_on_c, 0, 75, 0
2, 111854, Note_on_c, 0, 51, 0
2, 111854, Note_on_c, 0, 63, 0
2, 111855, Note_on_c, 0, 65, 0
2, 111855, Note_on_c, 0, 67, 0
2, 111857, Note_on_c, 0, 68, 68
2, 111860, Note_on_c, 0, 49, 49
2, 111865, Control_c, 0, 64, 0
2, 112054, Note_on_c, 0, 67, 63
2, 112060, Note_on_c, 0, 56, 58
2, 112076, Note_on_c, 0, 68, 0
2, 112162, Note_on_c, 0, 70, 0
2, 112247, Note_on_c, 0, 68, 72
2, 112257, Note_on_c, 0, 61, 51
2, 112397, Note_on_c, 0, 67, 0
2, 112446, Note_on_c, 0, 63, 55
2, 112446, Note_on_c, 0, 70, 70
2, 112475, Note_on_c, 0, 68, 0
2, 112627, Control_c, 0, 64, 127
2, 112654, Note_on_c, 0, 65, 51
2, 112872, Note_on_c, 0, 63, 0
2, 112878, Note_on_c, 0, 63, 70
2, 113057, Note_on_c, 0, 65, 0
2, 113068, Note_on_c, 0, 65, 74
2, 113241, Note_on_c, 0, 63, 0
2, 113248, Note_on_c, 0, 63, 75
2, 113472, Note_on_c, 0, 70, 0
2, 113477, Control_c, 0, 64, 0
2, 113480, Note_on_c, 0, 49, 0
2, 113480, Note_on_c, 0, 48, 56
2, 113480, Note_on_c, 0, 70, 75
2, 113481, Note_on_c, 0, 61, 0
2, 113482, Note_on_c, 0, 56, 0
2, 113490, Note_on_c, 0, 63, 0
2, 113502, Note_on_c, 0, 65, 0
2, 113571, Control_c, 0, 64, 127
2, 113679, Note_on_c, 0, 70, 0
2, 113687, Note_on_c, 0, 70, 71
2, 113709, Note_on_c, 0, 51, 53
2, 113898, Note_on_c, 0, 56, 63
2, 114115, Note_on_c, 0, 58, 60
2, 114339, Note_on_c, 0, 70, 0
2, 114344, Note_on_c, 0, 70, 80
2, 114346, Note_on_c, 0, 60, 57
2, 114371, Control_c, 0, 64, 0
2, 114470, Control_c, 0, 64, 127
2, 114585, Note_on_c, 0, 70, 0
2, 114591, Note_on_c, 0, 70, 73
2, 115015, Note_on_c, 0, 70, 0
2, 115020, Note_on_c, 0, 70, 79
2, 115317, Note_on_c, 0, 47, 53
2, 115319, Note_on_c, 0, 68, 76
2, 115364, Control_c, 0, 64, 0
2, 115365, Note_on_c, 0, 60, 0
2, 115365, Note_on_c, 0, 48, 0
2, 115365, Note_on_c, 0, 70, 0
2, 115376, Note_on_c, 0, 56, 0
2, 115376, Note_on_c, 0, 58, 0
2, 115384, Note_on_c, 0, 51, 0
2, 115573, Note_on_c, 0, 51, 47
2, 115832, Note_on_c, 0, 56, 58
2, 116146, Note_on_c, 0, 58, 56
2, 116517, Note_on_c, 0, 63, 67
2, 116519, Note_on_c, 0, 59, 59
2, 116533, Note_on_c, 0, 56, 0
2, 116534, Note_on_c, 0, 58, 0
2, 116782, Control_c, 0, 64, 127
2, 117004, Note_on_c, 0, 68, 0
2, 117120, Note_on_c, 0, 47, 0
2, 117355, Note_on_c, 0, 65, 56
2, 117355, Note_on_c, 0, 47, 40
2, 117408, Note_on_c, 0, 51, 0
2, 117409, Note_on_c, 0, 59, 0
2, 117410, Control_c, 0, 64, 0
2, 117542, Control_c, 0, 64, 127
2, 118397, Note_on_c, 0, 39, 46
2, 118485, Note_on_c, 0, 58, 53
2, 118544, Note_on_c, 0, 47, 0
2, 118544, Control_c, 0, 64, 0
2, 118545, Note_on_c, 0, 65, 0
2, 118571, Note_on_c, 0, 63, 0
2, 118576, Note_on_c, 0, 63, 67
2, 118632, Control_c, 0, 64, 127
2, 118686, Note_on_c, 0, 67, 70
2, 119183, Note_on_c, 0, 46, 58
2, 119520, Note_on_c, 0, 51, 55
2, 119770, Note_on_c, 0, 53, 54
2, 119988, Note_on_c, 0, 55, 50
2, 120176, Note_on_c, 0, 58, 0
2, 120185, Note_on_c, 0, 58, 58
2, 120368, Note_on_c, 0, 63, 0
2, 120374, Note_on_c, 0, 63, 67
2, 120391, Note_on_c, 0, 46, 0
2, 120397, Note_on_c, 0, 46, 36
2, 120407, Note_on_c, 0, 55, 0
2, 120413, Note_on_c, 0, 55, 43
2, 120537, Note_on_c, 0, 58, 0
2, 120546, Note_on_c, 0, 65, 65
2, 120548, Note_on_c, 0, 58, 60
2, 120714, Note_on_c, 0, 67, 0
2, 120721, Note_on_c, 0, 63, 0
2, 120723, Note_on_c, 0, 67, 71
2, 120727, Note_on_c, 0, 63, 71
2, 120890, Note_on_c, 0, 58, 0
2, 120890, Note_on_c, 0, 65, 0
2, 120900, Note_on_c, 0, 65, 69
2, 120901, Note_on_c, 0, 58, 58
2, 120960, Note_on_c, 0, 39, 0
2, 121059, Note_on_c, 0, 63, 0
2, 121059, Note_on_c, 0, 67, 0
2, 121066, Note_on_c, 0, 67, 72
2, 121070, Note_on_c, 0, 63, 62
2, 121205, Note_on_c, 0, 65, 0
2, 121215, Note_on_c, 0, 70, 73
2, 121217, Note_on_c, 0, 65, 68
2, 121390, Note_on_c, 0, 67, 0
2, 121395, Note_on_c, 0, 75, 74
2, 121399, Note_on_c, 0, 67, 62
2, 121543, Note_on_c, 0, 65, 0
2, 121551, Note_on_c, 0, 70, 0
2, 121554, Note_on_c, 0, 65, 68
2, 121555, Note_on_c, 0, 70, 71
2, 121712, Note_on_c, 0, 67, 0
2, 121712, Note_on_c, 0, 75, 0
2, 121720, Note_on_c, 0, 67, 61
2, 121720, Note_on_c, 0, 75, 84
2, 121904, Note_on_c, 0, 70, 0
2, 121908, Note_on_c, 0, 70, 67
2, 121910, Note_on_c, 0, 77, 78
2, 122087, Note_on_c, 0, 79, 71
2, 122088, Note_on_c, 0, 75, 0
2, 122092, Note_on_c, 0, 75, 80
2, 122257, Note_on_c, 0, 70, 0
2, 122265, Note_on_c, 0, 70, 68
2, 122273, Note_on_c, 0, 77, 0
2, 122281, Note_on_c, 0, 77, 76
2, 122472, Note_on_c, 0, 75, 0
2, 122472, Note_on_c, 0, 79, 0
2, 122478, Note_on_c, 0, 75, 67
2, 122478, Note_on_c, 0, 79, 74
2, 122674, Note_on_c, 0, 82, 79
2, 122680, Note_on_c, 0, 77, 0
2, 122688, Note_on_c, 0, 77, 68
2, 122905, Note_on_c, 0, 87, 77
2, 122918, Note_on_c, 0, 79, 0
2, 122923, Note_on_c, 0, 79, 61
2, 123164, Note_on_c, 0, 82, 0
2, 123169, Note_on_c, 0, 82, 74
2, 123170, Note_on_c, 0, 89, 78
2, 123456, Note_on_c, 0, 87, 0
2, 123459, Note_on_c, 0, 87, 72
2, 123473, Note_on_c, 0, 91, 74
2, 123856, Note_on_c, 0, 94, 80
2, 123863, Note_on_c, 0, 91, 0
2, 123870, Note_on_c, 0, 87, 0
2, 123871, Note_on_c, 0, 91, 62
2, 123875, Note_on_c, 0, 87, 58
2, 124131, Note_on_c, 0, 51, 0
2, 124377, Note_on_c, 0, 53, 0
2, 124492, Note_on_c, 0, 94, 0
2, 124497, Note_on_c, 0, 99, 80
2, 124500, Note_on_c, 0, 94, 86
2, 124515, Note_on_c, 0, 87, 0
2, 124523, Note_on_c, 0, 87, 60
2, 124800, Note_on_c, 0, 46, 0
2, 124800, Note_on_c, 0, 55, 0
2, 124800, Note_on_c, 0, 58, 0
2, 124800, Note_on_c, 0, 63, 0
2, 124800, Note_on_c, 0, 65, 0
2, 124800, Note_on_c, 0, 67, 0
2, 124800, Note_on_c, 0, 77, 0
2, 124800, Control_c, 0, 64, 0
2, 126827, Control_c, 0, 64, 127
2, 126855, Note_on_c, 0, 27, 44
2, 126873, Note_on_c, 0, 70, 0
2, 126935, Control_c, 0, 64, 0
2, 127019, Control_c, 0, 64, 127
2, 127073, Control_c, 0, 64, 0
2, 127088, Note_on_c, 0, 75, 0
2, 127180, Control_c, 0, 64, 127
2, 127188, Control_c, 0, 64, 0
2, 127534, Note_on_c, 0, 79, 0
2, 127779, Note_on_c, 0, 82, 0
2, 127779, Note_on_c, 0, 89, 0
2, 128478, Note_on_c, 0, 91, 0
2, 128640, Note_on_c, 0, 87, 0
2, 128640, Note_on_c, 0, 94, 0
2, 128640, Note_on_c, 0, 99, 0
2, 128640, Control_c, 0, 64, 127
2, 131120, Control_c, 0, 64, 0
2, 131205, Control_c, 0, 64, 127
2, 131466, Note_on_c, 0, 27, 0
2, 133228, Control_c, 0, 64, 0
2, 133447, Control_c, 0, 64, 127
2, 133716, Control_c, 0, 64, 0
2, 133717, End_track
0, 0, End_of_file
