0, 0, Header, 1, 2, 384
1, 0, Start_track
1, 0, Tempo, 500000
1, 0, Time_signature, 4, 2, 24, 8
1, 1, End_track
2, 0, Start_track
2, 1326, Note_on_c, 0, 40, 57
2, 1326, Note_on_c, 0, 28, 63
2, 1706, Note_on_c, 0, 29, 67
2, 1716, Note_on_c, 0, 28, 0
2, 1717, Note_on_c, 0, 40, 0
2, 2066, Note_on_c, 0, 29, 0
2, 2067, Note_on_c, 0, 27, 54
2, 2304, Note_on_c, 0, 27, 0
2, 2771, Note_on_c, 0, 28, 57
2, 2780, Control_c, 0, 64, 127
2, 2783, Note_on_c, 0, 40, 54
2, 2928, Note_on_c, 0, 41, 52
2, 2964, Note_on_c, 0, 28, 0
2, 3024, Note_on_c, 0, 42, 68
2, 3115, Note_on_c, 0, 43, 65
2, 3179, Note_on_c, 0, 44, 77
2, 3274, Note_on_c, 0, 45, 75
2, 3335, Note_on_c, 0, 46, 80
2, 3353, Control_c, 0, 64, 0
2, 3353, Note_on_c, 0, 40, 0
2, 3358, Note_on_c, 0, 45, 0
2, 3359, Note_on_c, 0, 41, 0
2, 3360, Note_on_c, 0, 42, 0
2, 3381, Note_on_c, 0, 43, 0
2, 3407, Note_on_c, 0, 47, 76
2, 3412, Note_on_c, 0, 46, 0
2, 3425, Note_on_c, 0, 44, 0
2, 3473, Note_on_c, 0, 47, 0
2, 3492, Note_on_c, 0, 48, 85
2, 3569, Note_on_c, 0, 47, 80
2, 3573, Note_on_c, 0, 48, 0
2, 3650, Note_on_c, 0, 47, 0
2, 3653, Note_on_c, 0, 46, 80
2, 3726, Note_on_c, 0, 46, 0
2, 3745, Note_on_c, 0, 45, 78
2, 3813, Note_on_c, 0, 45, 0
2, 3838, Note_on_c, 0, 44, 75
2, 3888, Note_on_c, 0, 44, 0
2, 3929, Note_on_c, 0, 43, 71
2, 3947, Control_c, 0, 64, 127
2, 4003, Note_on_c, 0, 42, 74
2, 4088, Note_on_c, 0, 41, 70
2, 4136, Note_on_c, 0, 42, 0
2, 4136, Note_on_c, 0, 43, 0
2, 4143, Control_c, 0, 64, 0
2, 4143, Note_on_c, 0, 41, 0
2, 4187, Note_on_c, 0, 28, 72
2, 4188, Note_on_c, 0, 40, 64
2, 4544, Note_on_c, 0, 28, 0
2, 4550, Note_on_c, 0, 40, 0
2, 4561, Note_on_c, 0, 29, 68
2, 4902, Note_on_c, 0, 29, 0
2, 4919, Note_on_c, 0, 27, 55
2, 5184, Note_on_c, 0, 27, 0
2, 5615, Note_on_c, 0, 28, 63
2, 5619, Note_on_c, 0, 40, 57
2, 5621, Control_c, 0, 64, 127
2, 5761, Note_on_c, 0, 41, 56
2, 5853, Note_on_c, 0, 42, 73
2, 5936, Note_on_c, 0, 28, 0
2, 5942, Note_on_c, 0, 43, 71
2, 6011, Note_on_c, 0, 44, 78
2, 6096, Note_on_c, 0, 45, 77
2, 6153, Note_on_c, 0, 43, 0
2, 6154, Note_on_c, 0, 40, 0
2, 6155, Control_c, 0, 64, 0
2, 6155, Note_on_c, 0, 44, 0
2, 6155, Note_on_c, 0, 41, 0
2, 6159, Note_on_c, 0, 42, 0
2, 6161, Note_on_c, 0, 45, 0
2, 6163, Note_on_c, 0, 46, 81
2, 6243, Note_on_c, 0, 47, 78
2, 6244, Note_on_c, 0, 46, 0
2, 6295, Note_on_c, 0, 47, 0
2, 6315, Note_on_c, 0, 48, 85
2, 6388, Note_on_c, 0, 47, 79
2, 6396, Note_on_c, 0, 48, 0
2, 6469, Note_on_c, 0, 46, 78
2, 6481, Note_on_c, 0, 47, 0
2, 6534, Note_on_c, 0, 46, 0
2, 6547, Note_on_c, 0, 45, 79
2, 6638, Note_on_c, 0, 44, 73
2, 6643, Control_c, 0, 64, 127
2, 6722, Note_on_c, 0, 43, 74
2, 6862, Note_on_c, 0, 41, 67
2, 6958, Note_on_c, 0, 45, 0
2, 6962, Note_on_c, 0, 44, 0
2, 6962, Note_on_c, 0, 43, 0
2, 6962, Note_on_c, 0, 41, 0
2, 6965, Control_c, 0, 64, 0
2, 6997, Note_on_c, 0, 28, 81
2, 6999, Note_on_c, 0, 40, 65
2, 7006, Note_on_c, 0, 88, 86
2, 7065, Control_c, 0, 64, 127
2, 7094, Note_on_c, 0, 87, 86
2, 7172, Note_on_c, 0, 83, 82
2, 7262, Note_on_c, 0, 77, 80
2, 7326, Note_on_c, 0, 28, 0
2, 7335, Note_on_c, 0, 83, 0
2, 7335, Control_c, 0, 64, 0
2, 7336, Note_on_c, 0, 87, 0
2, 7336, Note_on_c, 0, 77, 0
2, 7339, Note_on_c, 0, 86, 90
2, 7342, Note_on_c, 0, 88, 0
2, 7345, Note_on_c, 0, 41, 66
2, 7345, Note_on_c, 0, 29, 76
2, 7349, Note_on_c, 0, 40, 0
2, 7395, Control_c, 0, 64, 127
2, 7420, Note_on_c, 0, 85, 85
2, 7514, Note_on_c, 0, 81, 82
2, 7612, Note_on_c, 0, 75, 79
2, 7656, Note_on_c, 0, 85, 0
2, 7661, Note_on_c, 0, 85, 85
2, 7681, Note_on_c, 0, 27, 80
2, 7683, Note_on_c, 0, 39, 65
2, 7693, Control_c, 0, 64, 0
2, 7699, Note_on_c, 0, 81, 0
2, 7700, Note_on_c, 0, 29, 0
2, 7703, Note_on_c, 0, 75, 0
2, 7710, Note_on_c, 0, 41, 0
2, 7710, Note_on_c, 0, 86, 0
2, 7755, Note_on_c, 0, 84, 85
2, 7802, Note_on_c, 0, 85, 0
2, 7837, Note_on_c, 0, 80, 80
2, 7864, Note_on_c, 0, 84, 0
2, 7881, Note_on_c, 0, 80, 0
2, 7911, Note_on_c, 0, 74, 79
2, 7925, Note_on_c, 0, 27, 0
2, 7981, Note_on_c, 0, 39, 0
2, 7995, Note_on_c, 0, 77, 81
2, 8003, Note_on_c, 0, 74, 0
2, 8075, Note_on_c, 0, 83, 87
2, 8078, Note_on_c, 0, 77, 0
2, 8112, Note_on_c, 0, 83, 0
2, 8186, Note_on_c, 0, 89, 74
2, 8244, Note_on_c, 0, 95, 84
2, 8355, Note_on_c, 0, 89, 0
2, 8360, Note_on_c, 0, 28, 61
2, 8360, Note_on_c, 0, 40, 58
2, 8378, Control_c, 0, 64, 127
2, 8409, Note_on_c, 0, 28, 0
2, 8474, Note_on_c, 0, 41, 61
2, 8583, Note_on_c, 0, 42, 71
2, 8670, Note_on_c, 0, 43, 69
2, 8742, Note_on_c, 0, 44, 78
2, 8825, Note_on_c, 0, 45, 79
2, 8829, Note_on_c, 0, 42, 0
2, 8830, Note_on_c, 0, 40, 0
2, 8833, Note_on_c, 0, 41, 0
2, 8835, Note_on_c, 0, 44, 0
2, 8837, Control_c, 0, 64, 0
2, 8847, Note_on_c, 0, 43, 0
2, 8870, Note_on_c, 0, 95, 0
2, 8889, Note_on_c, 0, 45, 0
2, 8901, Note_on_c, 0, 46, 82
2, 8981, Note_on_c, 0, 47, 81
2, 9005, Note_on_c, 0, 46, 0
2, 9021, Note_on_c, 0, 47, 0
2, 9065, Note_on_c, 0, 48, 86
2, 9139, Note_on_c, 0, 47, 86
2, 9142, Note_on_c, 0, 48, 0
2, 9215, Note_on_c, 0, 47, 0
2, 9221, Note_on_c, 0, 46, 79
2, 9284, Note_on_c, 0, 46, 0
2, 9297, Note_on_c, 0, 45, 78
2, 9355, Note_on_c, 0, 45, 0
2, 9393, Note_on_c, 0, 44, 71
2, 9454, Control_c, 0, 64, 127
2, 9466, Note_on_c, 0, 43, 75
2, 9549, Note_on_c, 0, 42, 74
2, 9619, Note_on_c, 0, 41, 73
2, 9699, Note_on_c, 0, 44, 0
2, 9710, Note_on_c, 0, 41, 0
2, 9710, Note_on_c, 0, 42, 0
2, 9711, Note_on_c, 0, 43, 0
2, 9711, Control_c, 0, 64, 0
2, 9740, Note_on_c, 0, 28, 80
2, 9741, Note_on_c, 0, 40, 70
2, 9743, Note_on_c, 0, 88, 80
2, 9826, Note_on_c, 0, 87, 87
2, 9853, Control_c, 0, 64, 127
2, 9902, Note_on_c, 0, 83, 82
2, 9990, Note_on_c, 0, 77, 77
2, 10055, Control_c, 0, 64, 0
2, 10057, Note_on_c, 0, 83, 0
2, 10058, Note_on_c, 0, 40, 0
2, 10058, Note_on_c, 0, 77, 0
2, 10058, Note_on_c, 0, 87, 0
2, 10060, Note_on_c, 0, 28, 0
2, 10060, Note_on_c, 0, 88, 0
2, 10068, Note_on_c, 0, 86, 89
2, 10080, Note_on_c, 0, 41, 70
2, 10080, Note_on_c, 0, 29, 73
2, 10147, Note_on_c, 0, 85, 84
2, 10176, Control_c, 0, 64, 127
2, 10243, Note_on_c, 0, 81, 76
2, 10350, Note_on_c, 0, 75, 71
2, 10414, Note_on_c, 0, 85, 0
2, 10423, Note_on_c, 0, 85, 84
2, 10425, Note_on_c, 0, 27, 78
2, 10425, Note_on_c, 0, 39, 68
2, 10433, Control_c, 0, 64, 0
2, 10444, Note_on_c, 0, 41, 0
2, 10447, Note_on_c, 0, 81, 0
2, 10449, Note_on_c, 0, 75, 0
2, 10452, Note_on_c, 0, 86, 0
2, 10460, Note_on_c, 0, 29, 0
2, 10504, Note_on_c, 0, 84, 82
2, 10536, Note_on_c, 0, 27, 0
2, 10536, Note_on_c, 0, 85, 0
2, 10588, Note_on_c, 0, 80, 80
2, 10606, Note_on_c, 0, 84, 0
2, 10656, Note_on_c, 0, 80, 0
2, 10659, Note_on_c, 0, 39, 0
2, 10669, Note_on_c, 0, 74, 70
2, 10733, Note_on_c, 0, 74, 0
2, 10750, Note_on_c, 0, 77, 81
2, 10813, Control_c, 0, 64, 127
2, 10827, Note_on_c, 0, 83, 89
2, 10924, Note_on_c, 0, 89, 90
2, 10982, Control_c, 0, 64, 0
2, 11001, Note_on_c, 0, 95, 89
2, 11005, Note_on_c, 0, 77, 0
2, 11009, Note_on_c, 0, 89, 0
2, 11109, Note_on_c, 0, 40, 60
2, 11109, Note_on_c, 0, 28, 61
2, 11120, Note_on_c, 0, 28, 0
2, 11128, Control_c, 0, 64, 127
2, 11213, Note_on_c, 0, 41, 66
2, 11321, Note_on_c, 0, 42, 72
2, 11410, Note_on_c, 0, 43, 66
2, 11412, Note_on_c, 0, 83, 0
2, 11443, Control_c, 0, 64, 0
2, 11479, Note_on_c, 0, 44, 80
2, 11486, Note_on_c, 0, 43, 0
2, 11489, Note_on_c, 0, 42, 0
2, 11496, Note_on_c, 0, 41, 0
2, 11504, Note_on_c, 0, 40, 0
2, 11548, Note_on_c, 0, 44, 0
2, 11571, Note_on_c, 0, 45, 74
2, 11596, Note_on_c, 0, 95, 0
2, 11625, Note_on_c, 0, 45, 0
2, 11646, Note_on_c, 0, 46, 76
2, 11731, Note_on_c, 0, 47, 77
2, 11735, Note_on_c, 0, 46, 0
2, 11800, Note_on_c, 0, 47, 0
2, 11822, Note_on_c, 0, 48, 84
2, 11911, Note_on_c, 0, 47, 82
2, 11923, Note_on_c, 0, 48, 0
2, 12001, Note_on_c, 0, 47, 0
2, 12001, Note_on_c, 0, 46, 76
2, 12055, Note_on_c, 0, 46, 0
2, 12077, Note_on_c, 0, 45, 77
2, 12123, Note_on_c, 0, 45, 0
2, 12176, Note_on_c, 0, 44, 70
2, 12215, Note_on_c, 0, 44, 0
2, 12252, Note_on_c, 0, 43, 72
2, 12320, Note_on_c, 0, 43, 0
2, 12323, Note_on_c, 0, 42, 73
2, 12417, Note_on_c, 0, 42, 0
2, 12419, Note_on_c, 0, 41, 66
2, 12491, Note_on_c, 0, 41, 0
2, 12509, Note_on_c, 0, 52, 88
2, 12511, Note_on_c, 0, 40, 70
2, 12607, Note_on_c, 0, 40, 0
2, 12619, Note_on_c, 0, 41, 60
2, 12668, Note_on_c, 0, 41, 0
2, 12685, Note_on_c, 0, 42, 70
2, 12745, Note_on_c, 0, 42, 0
2, 12783, Note_on_c, 0, 43, 65
2, 12822, Note_on_c, 0, 43, 0
2, 12868, Note_on_c, 0, 44, 68
2, 12929, Note_on_c, 0, 44, 0
2, 12966, Note_on_c, 0, 45, 65
2, 13015, Note_on_c, 0, 45, 0
2, 13038, Note_on_c, 0, 46, 68
2, 13130, Note_on_c, 0, 47, 69
2, 13132, Note_on_c, 0, 46, 0
2, 13178, Note_on_c, 0, 47, 0
2, 13191, Note_on_c, 0, 51, 81
2, 13194, Note_on_c, 0, 52, 0
2, 13220, Note_on_c, 0, 48, 74
2, 13296, Note_on_c, 0, 48, 0
2, 13306, Note_on_c, 0, 47, 69
2, 13354, Note_on_c, 0, 47, 0
2, 13388, Note_on_c, 0, 46, 71
2, 13437, Note_on_c, 0, 46, 0
2, 13461, Note_on_c, 0, 45, 71
2, 13491, Note_on_c, 0, 45, 0
2, 13551, Note_on_c, 0, 44, 66
2, 13601, Note_on_c, 0, 44, 0
2, 13621, Note_on_c, 0, 43, 66
2, 13666, Note_on_c, 0, 43, 0
2, 13690, Note_on_c, 0, 42, 69
2, 13784, Note_on_c, 0, 42, 0
2, 13800, Note_on_c, 0, 41, 59
2, 13891, Note_on_c, 0, 40, 69
2, 13896, Note_on_c, 0, 55, 87
2, 13901, Note_on_c, 0, 41, 0
2, 13903, Note_on_c, 0, 51, 0
2, 13914, Note_on_c, 0, 52, 64
2, 13922, Note_on_c, 0, 50, 68
2, 13971, Note_on_c, 0, 41, 69
2, 14044, Note_on_c, 0, 41, 0
2, 14050, Note_on_c, 0, 42, 76
2, 14062, Note_on_c, 0, 40, 0
2, 14129, Note_on_c, 0, 42, 0
2, 14152, Note_on_c, 0, 43, 67
2, 14227, Note_on_c, 0, 44, 75
2, 14296, Note_on_c, 0, 44, 0
2, 14307, Note_on_c, 0, 52, 0
2, 14321, Note_on_c, 0, 45, 69
2, 14365, Note_on_c, 0, 45, 0
2, 14384, Note_on_c, 0, 43, 0
2, 14401, Note_on_c, 0, 46, 70
2, 14478, Note_on_c, 0, 47, 72
2, 14506, Note_on_c, 0, 46, 0
2, 14517, Note_on_c, 0, 47, 0
2, 14578, Note_on_c, 0, 48, 80
2, 14580, Note_on_c, 0, 54, 81
2, 14587, Note_on_c, 0, 49, 79
2, 14656, Note_on_c, 0, 47, 72
2, 14659, Note_on_c, 0, 48, 0
2, 14734, Note_on_c, 0, 46, 70
2, 14768, Note_on_c, 0, 47, 0
2, 14820, Note_on_c, 0, 45, 72
2, 14822, Note_on_c, 0, 46, 0
2, 14863, Note_on_c, 0, 45, 0
2, 14906, Note_on_c, 0, 49, 0
2, 14922, Note_on_c, 0, 44, 66
2, 14968, Control_c, 0, 64, 127
2, 14994, Note_on_c, 0, 43, 77
2, 15078, Note_on_c, 0, 42, 76
2, 15181, Note_on_c, 0, 41, 61
2, 15233, Control_c, 0, 64, 0
2, 15234, Note_on_c, 0, 42, 0
2, 15235, Note_on_c, 0, 41, 0
2, 15235, Note_on_c, 0, 43, 0
2, 15244, Note_on_c, 0, 44, 0
2, 15260, Note_on_c, 0, 50, 0
2, 15260, Note_on_c, 0, 55, 0
2, 15269, Note_on_c, 0, 40, 76
2, 15275, Note_on_c, 0, 54, 0
2, 15277, Note_on_c, 0, 59, 93
2, 15294, Note_on_c, 0, 53, 79
2, 15340, Note_on_c, 0, 41, 71
2, 15367, Note_on_c, 0, 40, 0
2, 15417, Note_on_c, 0, 42, 75
2, 15498, Note_on_c, 0, 41, 0
2, 15514, Note_on_c, 0, 43, 80
2, 15521, Note_on_c, 0, 42, 0
2, 15605, Control_c, 0, 64, 127
2, 15624, Note_on_c, 0, 58, 86
2, 15625, Note_on_c, 0, 44, 79
2, 15627, Note_on_c, 0, 52, 80
2, 15709, Note_on_c, 0, 45, 79
2, 15778, Note_on_c, 0, 46, 82
2, 15859, Note_on_c, 0, 47, 82
2, 15897, Note_on_c, 0, 43, 0
2, 15914, Control_c, 0, 64, 0
2, 15915, Note_on_c, 0, 47, 0
2, 15915, Note_on_c, 0, 52, 0
2, 15916, Note_on_c, 0, 46, 0
2, 15916, Note_on_c, 0, 59, 0
2, 15916, Note_on_c, 0, 58, 0
2, 15916, Note_on_c, 0, 45, 0
2, 15920, Note_on_c, 0, 53, 0
2, 15928, Note_on_c, 0, 44, 0
2, 15953, Note_on_c, 0, 40, 80
2, 15956, Note_on_c, 0, 62, 94
2, 15971, Note_on_c, 0, 57, 81
2, 16047, Note_on_c, 0, 41, 71
2, 16120, Control_c, 0, 64, 127
2, 16122, Note_on_c, 0, 42, 75
2, 16218, Note_on_c, 0, 43, 81
2, 16291, Note_on_c, 0, 61, 89
2, 16294, Note_on_c, 0, 56, 87
2, 16300, Note_on_c, 0, 44, 88
2, 16394, Note_on_c, 0, 45, 73
2, 16464, Note_on_c, 0, 46, 84
2, 16553, Note_on_c, 0, 47, 82
2, 16588, Note_on_c, 0, 40, 0
2, 16589, Note_on_c, 0, 62, 0
2, 16589, Note_on_c, 0, 46, 0
2, 16589, Note_on_c, 0, 43, 0
2, 16590, Note_on_c, 0, 45, 0
2, 16590, Note_on_c, 0, 44, 0
2, 16591, Note_on_c, 0, 57, 0
2, 16591, Note_on_c, 0, 42, 0
2, 16591, Note_on_c, 0, 56, 0
2, 16591, Note_on_c, 0, 61, 0
2, 16594, Control_c, 0, 64, 0
2, 16596, Note_on_c, 0, 41, 0
2, 16611, Note_on_c, 0, 47, 0
2, 16633, Note_on_c, 0, 40, 86
2, 16635, Note_on_c, 0, 64, 92
2, 16636, Note_on_c, 0, 60, 91
2, 16680, Control_c, 0, 64, 127
2, 16738, Note_on_c, 0, 41, 56
2, 16806, Note_on_c, 0, 63, 99
2, 16810, Note_on_c, 0, 42, 87
2, 16814, Note_on_c, 0, 59, 83
2, 16900, Note_on_c, 0, 43, 81
2, 16957, Note_on_c, 0, 40, 0
2, 16957, Note_on_c, 0, 64, 0
2, 16966, Note_on_c, 0, 67, 98
2, 16966, Note_on_c, 0, 40, 87
2, 16967, Note_on_c, 0, 64, 93
2, 16968, Note_on_c, 0, 42, 0
2, 16968, Note_on_c, 0, 60, 0
2, 16968, Note_on_c, 0, 43, 0
2, 16969, Note_on_c, 0, 63, 0
2, 16969, Note_on_c, 0, 59, 0
2, 16970, Control_c, 0, 64, 0
2, 16972, Note_on_c, 0, 41, 0
2, 17026, Control_c, 0, 64, 127
2, 17071, Note_on_c, 0, 41, 63
2, 17131, Note_on_c, 0, 66, 100
2, 17138, Note_on_c, 0, 42, 93
2, 17138, Note_on_c, 0, 63, 90
2, 17222, Note_on_c, 0, 43, 87
2, 17287, Note_on_c, 0, 40, 0
2, 17295, Note_on_c, 0, 64, 0
2, 17295, Note_on_c, 0, 67, 0
2, 17296, Note_on_c, 0, 40, 86
2, 17297, Note_on_c, 0, 71, 98
2, 17302, Note_on_c, 0, 67, 90
2, 17306, Note_on_c, 0, 64, 75
2, 17387, Note_on_c, 0, 41, 0
2, 17398, Note_on_c, 0, 41, 72
2, 17456, Note_on_c, 0, 42, 0
2, 17461, Note_on_c, 0, 42, 91
2, 17462, Note_on_c, 0, 70, 97
2, 17464, Note_on_c, 0, 66, 0
2, 17468, Note_on_c, 0, 66, 96
2, 17525, Note_on_c, 0, 43, 0
2, 17535, Note_on_c, 0, 43, 87
2, 17617, Note_on_c, 0, 40, 0
2, 17617, Note_on_c, 0, 64, 0
2, 17625, Note_on_c, 0, 71, 0
2, 17628, Note_on_c, 0, 74, 105
2, 17628, Note_on_c, 0, 40, 92
2, 17628, Note_on_c, 0, 64, 77
2, 17629, Note_on_c, 0, 71, 98
2, 17710, Note_on_c, 0, 43, 0
2, 17717, Note_on_c, 0, 42, 0
2, 17720, Note_on_c, 0, 43, 76
2, 17722, Note_on_c, 0, 42, 81
2, 17776, Note_on_c, 0, 73, 99
2, 17794, Note_on_c, 0, 70, 0
2, 17801, Note_on_c, 0, 70, 92
2, 17802, Note_on_c, 0, 43, 0
2, 17808, Note_on_c, 0, 43, 85
2, 17952, Note_on_c, 0, 41, 0
2, 17953, Note_on_c, 0, 74, 0
2, 17954, Note_on_c, 0, 63, 0
2, 17954, Note_on_c, 0, 67, 0
2, 17954, Note_on_c, 0, 64, 0
2, 17954, Note_on_c, 0, 73, 0
2, 17955, Note_on_c, 0, 70, 0
2, 17955, Note_on_c, 0, 66, 0
2, 17956, Note_on_c, 0, 43, 0
2, 17959, Control_c, 0, 64, 0
2, 17971, Note_on_c, 0, 42, 0
2, 17986, Note_on_c, 0, 40, 0
2, 17986, Note_on_c, 0, 71, 0
2, 17990, Note_on_c, 0, 78, 110
2, 17992, Note_on_c, 0, 66, 106
2, 17992, Note_on_c, 0, 74, 102
2, 17995, Note_on_c, 0, 71, 91
2, 17996, Note_on_c, 0, 28, 102
2, 17997, Note_on_c, 0, 40, 99
2, 18086, Control_c, 0, 64, 127
2, 18690, Note_on_c, 0, 59, 93
2, 18693, Note_on_c, 0, 40, 0
2, 18695, Note_on_c, 0, 55, 94
2, 18697, Note_on_c, 0, 52, 90
2, 18697, Note_on_c, 0, 40, 80
2, 19038, Note_on_c, 0, 55, 0
2, 19038, Note_on_c, 0, 71, 0
2, 19041, Note_on_c, 0, 76, 101
2, 19043, Note_on_c, 0, 71, 95
2, 19043, Note_on_c, 0, 64, 101
2, 19044, Note_on_c, 0, 67, 96
2, 19049, Note_on_c, 0, 55, 88
2, 19392, Note_on_c, 0, 67, 0
2, 19399, Note_on_c, 0, 52, 0
2, 19399, Note_on_c, 0, 55, 0
2, 19399, Note_on_c, 0, 76, 0
2, 19402, Note_on_c, 0, 79, 106
2, 19403, Note_on_c, 0, 67, 103
2, 19403, Note_on_c, 0, 76, 99
2, 19403, Note_on_c, 0, 60, 98
2, 19404, Note_on_c, 0, 72, 96
2, 19404, Note_on_c, 0, 55, 100
2, 19406, Note_on_c, 0, 52, 98
2, 19752, Note_on_c, 0, 76, 0
2, 19760, Note_on_c, 0, 64, 0
2, 19760, Note_on_c, 0, 67, 0
2, 19760, Note_on_c, 0, 72, 0
2, 19764, Note_on_c, 0, 76, 104
2, 19770, Note_on_c, 0, 72, 96
2, 19771, Note_on_c, 0, 64, 99
2, 19771, Note_on_c, 0, 67, 92
2, 20113, Note_on_c, 0, 52, 0
2, 20113, Note_on_c, 0, 55, 0
2, 20113, Note_on_c, 0, 60, 0
2, 20122, Note_on_c, 0, 60, 92
2, 20124, Note_on_c, 0, 55, 81
2, 20125, Note_on_c, 0, 52, 81
2, 20812, Note_on_c, 0, 60, 0
2, 20812, Note_on_c, 0, 40, 0
2, 20812, Note_on_c, 0, 74, 0
2, 20812, Note_on_c, 0, 52, 0
2, 20813, Note_on_c, 0, 71, 0
2, 20813, Note_on_c, 0, 72, 0
2, 20814, Control_c, 0, 64, 0
2, 20814, Note_on_c, 0, 79, 0
2, 20814, Note_on_c, 0, 55, 0
2, 20820, Note_on_c, 0, 66, 0
2, 20828, Note_on_c, 0, 28, 0
2, 20828, Note_on_c, 0, 59, 0
2, 20828, Note_on_c, 0, 64, 0
2, 20828, Note_on_c, 0, 76, 0
2, 20828, Note_on_c, 0, 78, 0
2, 20833, Note_on_c, 0, 28, 99
2, 20835, Note_on_c, 0, 67, 0
2, 20878, Note_on_c, 0, 28, 0
2, 20881, Control_c, 0, 64, 127
2, 21185, Note_on_c, 0, 64, 106
2, 21185, Note_on_c, 0, 76, 101
2, 21186, Note_on_c, 0, 73, 94
2, 21191, Note_on_c, 0, 69, 91
2, 21527, Note_on_c, 0, 64, 0
2, 21527, Note_on_c, 0, 69, 0
2, 21527, Note_on_c, 0, 73, 0
2, 21527, Note_on_c, 0, 76, 0
2, 21531, Note_on_c, 0, 64, 96
2, 21531, Note_on_c, 0, 81, 103
2, 21532, Note_on_c, 0, 61, 99
2, 21532, Note_on_c, 0, 52, 91
2, 21533, Note_on_c, 0, 69, 98
2, 21534, Note_on_c, 0, 76, 95
2, 21534, Note_on_c, 0, 73, 99
2, 21536, Note_on_c, 0, 57, 97
2, 22248, Note_on_c, 0, 52, 0
2, 22248, Note_on_c, 0, 76, 0
2, 22252, Note_on_c, 0, 79, 106
2, 22253, Note_on_c, 0, 60, 96
2, 22253, Note_on_c, 0, 55, 96
2, 22253, Note_on_c, 0, 72, 100
2, 22253, Note_on_c, 0, 76, 94
2, 22254, Note_on_c, 0, 67, 103
2, 22254, Note_on_c, 0, 52, 91
2, 22270, Control_c, 0, 64, 0
2, 22283, Note_on_c, 0, 64, 0
2, 22283, Note_on_c, 0, 57, 0
2, 22283, Note_on_c, 0, 61, 0
2, 22283, Note_on_c, 0, 73, 0
2, 22284, Note_on_c, 0, 69, 0
2, 22288, Note_on_c, 0, 81, 0
2, 22333, Control_c, 0, 64, 127
2, 22954, Control_c, 0, 64, 0
2, 22962, Note_on_c, 0, 78, 104
2, 22963, Note_on_c, 0, 52, 0
2, 22965, Note_on_c, 0, 59, 90
2, 22966, Note_on_c, 0, 66, 99
2, 22968, Note_on_c, 0, 74, 90
2, 22969, Note_on_c, 0, 54, 88
2, 22973, Note_on_c, 0, 71, 86
2, 22974, Note_on_c, 0, 52, 89
2, 22985, Note_on_c, 0, 60, 0
2, 22987, Note_on_c, 0, 72, 0
2, 22990, Note_on_c, 0, 67, 0
2, 22990, Note_on_c, 0, 79, 0
2, 22992, Note_on_c, 0, 55, 0
2, 22993, Control_c, 0, 64, 127
2, 23024, Note_on_c, 0, 76, 0
2, 23635, Control_c, 0, 64, 0
2, 23638, Note_on_c, 0, 71, 0
2, 23638, Note_on_c, 0, 66, 0
2, 23639, Note_on_c, 0, 52, 0
2, 23639, Note_on_c, 0, 74, 0
2, 23639, Note_on_c, 0, 59, 0
2, 23639, Note_on_c, 0, 54, 0
2, 23654, Note_on_c, 0, 78, 0
2, 23660, Note_on_c, 0, 90, 112
2, 23664, Note_on_c, 0, 28, 93
2, 23664, Note_on_c, 0, 78, 105
2, 23665, Note_on_c, 0, 40, 93
2, 23665, Note_on_c, 0, 83, 92
2, 23667, Note_on_c, 0, 86, 96
2, 23700, Control_c, 0, 64, 127
2, 23769, Note_on_c, 0, 28, 0
2, 24011, Note_on_c, 0, 52, 91
2, 24195, Note_on_c, 0, 64, 96
2, 24195, Note_on_c, 0, 59, 92
2, 24197, Note_on_c, 0, 55, 85
2, 24514, Note_on_c, 0, 52, 0
2, 24514, Note_on_c, 0, 55, 0
2, 24522, Note_on_c, 0, 52, 88
2, 24525, Note_on_c, 0, 55, 63
2, 24691, Note_on_c, 0, 55, 0
2, 24691, Note_on_c, 0, 59, 0
2, 24691, Note_on_c, 0, 83, 0
2, 24696, Note_on_c, 0, 88, 101
2, 24697, Note_on_c, 0, 79, 95
2, 24698, Note_on_c, 0, 83, 96
2, 24701, Note_on_c, 0, 59, 97
2, 24701, Note_on_c, 0, 76, 102
2, 24702, Note_on_c, 0, 55, 91
2, 25044, Note_on_c, 0, 64, 0
2, 25052, Note_on_c, 0, 55, 0
2, 25052, Note_on_c, 0, 79, 0
2, 25054, Note_on_c, 0, 91, 111
2, 25055, Note_on_c, 0, 64, 102
2, 25057, Note_on_c, 0, 84, 100
2, 25057, Note_on_c, 0, 60, 97
2, 25059, Note_on_c, 0, 79, 104
2, 25059, Note_on_c, 0, 55, 95
2, 25397, Note_on_c, 0, 79, 0
2, 25397, Note_on_c, 0, 84, 0
2, 25397, Note_on_c, 0, 88, 0
2, 25403, Note_on_c, 0, 88, 103
2, 25405, Note_on_c, 0, 76, 0
2, 25408, Note_on_c, 0, 84, 101
2, 25408, Note_on_c, 0, 79, 102
2, 25409, Note_on_c, 0, 76, 96
2, 25758, Note_on_c, 0, 60, 0
2, 25758, Note_on_c, 0, 64, 0
2, 25766, Note_on_c, 0, 55, 0
2, 25769, Note_on_c, 0, 64, 92
2, 25770, Note_on_c, 0, 60, 94
2, 25770, Note_on_c, 0, 55, 85
2, 26431, Control_c, 0, 64, 0
2, 26431, Note_on_c, 0, 60, 0
2, 26432, Note_on_c, 0, 52, 0
2, 26432, Note_on_c, 0, 86, 0
2, 26432, Note_on_c, 0, 55, 0
2, 26432, Note_on_c, 0, 88, 0
2, 26432, Note_on_c, 0, 64, 0
2, 26432, Note_on_c, 0, 59, 0
2, 26433, Note_on_c, 0, 83, 0
2, 26433, Note_on_c, 0, 78, 0
2, 26433, Note_on_c, 0, 76, 0
2, 26433, Note_on_c, 0, 91, 0
2, 26433, Note_on_c, 0, 90, 0
2, 26442, Note_on_c, 0, 40, 0
2, 26452, Note_on_c, 0, 28, 97
2, 26453, Note_on_c, 0, 40, 89
2, 26457, Note_on_c, 0, 79, 0
2, 26457, Note_on_c, 0, 84, 0
2, 26488, Control_c, 0, 64, 127
2, 26800, Note_on_c, 0, 52, 93
2, 26976, Note_on_c, 0, 57, 91
2, 26976, Note_on_c, 0, 64, 99
2, 26977, Note_on_c, 0, 61, 95
2, 27137, Note_on_c, 0, 95, 111
2, 27138, Note_on_c, 0, 88, 100
2, 27140, Note_on_c, 0, 83, 103
2, 27144, Note_on_c, 0, 85, 101
2, 27294, Note_on_c, 0, 52, 0
2, 27304, Note_on_c, 0, 52, 85
2, 27463, Note_on_c, 0, 85, 0
2, 27468, Note_on_c, 0, 91, 110
2, 27471, Note_on_c, 0, 61, 0
2, 27471, Note_on_c, 0, 64, 0
2, 27474, Note_on_c, 0, 85, 96
2, 27475, Note_on_c, 0, 79, 103
2, 27479, Note_on_c, 0, 57, 0
2, 27480, Note_on_c, 0, 64, 98
2, 27481, Note_on_c, 0, 61, 95
2, 27483, Note_on_c, 0, 57, 93
2, 27823, Note_on_c, 0, 90, 108
2, 27824, Note_on_c, 0, 57, 0
2, 27824, Note_on_c, 0, 64, 0
2, 27828, Note_on_c, 0, 78, 104
2, 27828, Note_on_c, 0, 84, 90
2, 27830, Note_on_c, 0, 57, 85
2, 27830, Note_on_c, 0, 64, 89
2, 27833, Note_on_c, 0, 60, 96
2, 27878, Note_on_c, 0, 28, 0
2, 27886, Note_on_c, 0, 40, 0
2, 27939, Note_on_c, 0, 95, 0
2, 28515, Note_on_c, 0, 60, 0
2, 28515, Note_on_c, 0, 84, 0
2, 28519, Note_on_c, 0, 93, 110
2, 28520, Note_on_c, 0, 81, 103
2, 28523, Note_on_c, 0, 57, 0
2, 28523, Note_on_c, 0, 90, 0
2, 28525, Note_on_c, 0, 84, 91
2, 28527, Note_on_c, 0, 63, 99
2, 28527, Note_on_c, 0, 87, 95
2, 28527, Note_on_c, 0, 60, 95
2, 28528, Note_on_c, 0, 57, 83
2, 28530, Note_on_c, 0, 90, 96
2, 28546, Note_on_c, 0, 85, 0
2, 28555, Note_on_c, 0, 85, 47
2, 28800, Note_on_c, 0, 88, 0
2, 29248, Note_on_c, 0, 28, 53
2, 29248, Note_on_c, 0, 40, 47
2, 29253, Note_on_c, 0, 28, 0
2, 29349, Note_on_c, 0, 42, 63
2, 29440, Note_on_c, 0, 43, 57
2, 29491, Note_on_c, 0, 42, 0
2, 29495, Note_on_c, 0, 42, 60
2, 29529, Note_on_c, 0, 61, 0
2, 29921, Note_on_c, 0, 40, 0
2, 29932, Note_on_c, 0, 40, 64
2, 30013, Note_on_c, 0, 42, 0
2, 30020, Note_on_c, 0, 42, 69
2, 30120, Note_on_c, 0, 43, 0
2, 30126, Note_on_c, 0, 43, 61
2, 30274, Note_on_c, 0, 40, 0
2, 30278, Note_on_c, 0, 28, 59
2, 30279, Note_on_c, 0, 40, 60
2, 30289, Note_on_c, 0, 28, 0
2, 30627, Note_on_c, 0, 40, 0
2, 30631, Note_on_c, 0, 28, 60
2, 30633, Note_on_c, 0, 40, 59
2, 30658, Note_on_c, 0, 28, 0
2, 30704, Note_on_c, 0, 42, 0
2, 30714, Note_on_c, 0, 42, 64
2, 30804, Note_on_c, 0, 43, 0
2, 30808, Note_on_c, 0, 43, 64
2, 30873, Note_on_c, 0, 42, 0
2, 30877, Note_on_c, 0, 42, 60
2, 30973, Note_on_c, 0, 40, 0
2, 30977, Note_on_c, 0, 40, 55
2, 31160, Note_on_c, 0, 48, 76
2, 31319, Note_on_c, 0, 47, 65
2, 31388, Note_on_c, 0, 85, 0
2, 31395, Note_on_c, 0, 48, 0
2, 31395, Note_on_c, 0, 52, 0
2, 31395, Note_on_c, 0, 60, 0
2, 31396, Note_on_c, 0, 42, 0
2, 31397, Note_on_c, 0, 40, 0
2, 31401, Note_on_c, 0, 48, 72
2, 31403, Note_on_c, 0, 79, 0
2, 31411, Note_on_c, 0, 63, 0
2, 31411, Note_on_c, 0, 83, 0
2, 31411, Note_on_c, 0, 91, 0
2, 31411, Note_on_c, 0, 93, 0
2, 31418, Note_on_c, 0, 43, 0
2, 31418, Note_on_c, 0, 64, 0
2, 31418, Note_on_c, 0, 81, 0
2, 31418, Note_on_c, 0, 84, 0
2, 31426, Note_on_c, 0, 78, 0
2, 31480, Note_on_c, 0, 47, 0
2, 31491, Note_on_c, 0, 47, 72
2, 31503, Note_on_c, 0, 90, 0
2, 31509, Note_on_c, 0, 48, 0
2, 31557, Note_on_c, 0, 57, 0
2, 31561, Note_on_c, 0, 47, 0
2, 31563, Control_c, 0, 64, 0
2, 31582, Note_on_c, 0, 45, 73
2, 31587, Note_on_c, 0, 87, 0
2, 31631, Note_on_c, 0, 45, 0
2, 31653, Note_on_c, 0, 43, 72
2, 31707, Note_on_c, 0, 43, 0
2, 31747, Note_on_c, 0, 45, 67
2, 31809, Note_on_c, 0, 45, 0
2, 31822, Note_on_c, 0, 43, 75
2, 31903, Note_on_c, 0, 43, 0
2, 31913, Note_on_c, 0, 42, 70
2, 31988, Note_on_c, 0, 42, 0
2, 31997, Note_on_c, 0, 40, 70
2, 32097, Note_on_c, 0, 40, 0
2, 32099, Note_on_c, 0, 42, 74
2, 32152, Note_on_c, 0, 42, 0
2, 32169, Note_on_c, 0, 43, 72
2, 32226, Note_on_c, 0, 43, 0
2, 32251, Note_on_c, 0, 42, 69
2, 32321, Note_on_c, 0, 42, 0
2, 32335, Note_on_c, 0, 40, 67
2, 32420, Note_on_c, 0, 40, 0
2, 32675, Note_on_c, 0, 40, 70
2, 32760, Note_on_c, 0, 42, 74
2, 32782, Note_on_c, 0, 40, 0
2, 32831, Note_on_c, 0, 42, 0
2, 32851, Note_on_c, 0, 43, 71
2, 32892, Note_on_c, 0, 43, 0
2, 32943, Note_on_c, 0, 42, 68
2, 33020, Note_on_c, 0, 42, 0
2, 33024, Note_on_c, 0, 40, 69
2, 33081, Note_on_c, 0, 40, 0
2, 33365, Note_on_c, 0, 40, 73
2, 33452, Note_on_c, 0, 42, 71
2, 33511, Note_on_c, 0, 40, 0
2, 33513, Note_on_c, 0, 42, 0
2, 33539, Note_on_c, 0, 43, 76
2, 33605, Note_on_c, 0, 43, 0
2, 33626, Note_on_c, 0, 42, 70
2, 33699, Note_on_c, 0, 42, 0
2, 33710, Note_on_c, 0, 40, 69
2, 33761, Note_on_c, 0, 40, 0
2, 33883, Note_on_c, 0, 48, 76
2, 34019, Note_on_c, 0, 48, 0
2, 34055, Note_on_c, 0, 47, 78
2, 34094, Note_on_c, 0, 47, 0
2, 34141, Note_on_c, 0, 48, 80
2, 34224, Note_on_c, 0, 47, 79
2, 34232, Note_on_c, 0, 48, 0
2, 34304, Note_on_c, 0, 45, 76
2, 34311, Note_on_c, 0, 47, 0
2, 34372, Note_on_c, 0, 45, 0
2, 34386, Note_on_c, 0, 43, 75
2, 34440, Note_on_c, 0, 43, 0
2, 34472, Note_on_c, 0, 45, 74
2, 34532, Note_on_c, 0, 45, 0
2, 34546, Note_on_c, 0, 43, 77
2, 34634, Note_on_c, 0, 43, 0
2, 34634, Note_on_c, 0, 42, 71
2, 34704, Note_on_c, 0, 42, 0
2, 34721, Note_on_c, 0, 40, 76
2, 34724, Note_on_c, 0, 52, 80
2, 34798, Note_on_c, 0, 42, 78
2, 34799, Note_on_c, 0, 54, 72
2, 34800, Note_on_c, 0, 52, 0
2, 34801, Note_on_c, 0, 40, 0
2, 34863, Note_on_c, 0, 54, 0
2, 34871, Note_on_c, 0, 42, 0
2, 34879, Note_on_c, 0, 43, 80
2, 34884, Note_on_c, 0, 55, 69
2, 34933, Note_on_c, 0, 43, 0
2, 34933, Note_on_c, 0, 55, 0
2, 34975, Note_on_c, 0, 42, 71
2, 34976, Note_on_c, 0, 57, 76
2, 35038, Note_on_c, 0, 42, 0
2, 35047, Note_on_c, 0, 40, 74
2, 35067, Note_on_c, 0, 59, 78
2, 35101, Note_on_c, 0, 40, 0
2, 35105, Note_on_c, 0, 57, 0
2, 35148, Note_on_c, 0, 60, 76
2, 35196, Note_on_c, 0, 59, 0
2, 35225, Note_on_c, 0, 60, 0
2, 35232, Note_on_c, 0, 62, 81
2, 35331, Note_on_c, 0, 60, 78
2, 35340, Note_on_c, 0, 62, 0
2, 35385, Note_on_c, 0, 40, 80
2, 35404, Note_on_c, 0, 59, 81
2, 35449, Note_on_c, 0, 60, 0
2, 35473, Note_on_c, 0, 40, 0
2, 35481, Note_on_c, 0, 42, 74
2, 35487, Note_on_c, 0, 57, 75
2, 35527, Note_on_c, 0, 59, 0
2, 35545, Note_on_c, 0, 42, 0
2, 35550, Note_on_c, 0, 57, 0
2, 35564, Note_on_c, 0, 43, 79
2, 35569, Note_on_c, 0, 55, 71
2, 35614, Note_on_c, 0, 55, 0
2, 35615, Note_on_c, 0, 43, 0
2, 35652, Note_on_c, 0, 54, 73
2, 35652, Note_on_c, 0, 42, 78
2, 35720, Note_on_c, 0, 54, 0
2, 35721, Note_on_c, 0, 42, 0
2, 35736, Note_on_c, 0, 40, 73
2, 35738, Note_on_c, 0, 52, 78
2, 35783, Note_on_c, 0, 40, 0
2, 35824, Note_on_c, 0, 52, 0
2, 35838, Note_on_c, 0, 54, 68
2, 35890, Note_on_c, 0, 54, 0
2, 35916, Note_on_c, 0, 55, 71
2, 35918, Note_on_c, 0, 43, 57
2, 35927, Note_on_c, 0, 43, 0
2, 36003, Note_on_c, 0, 55, 0
2, 36009, Note_on_c, 0, 54, 76
2, 36061, Note_on_c, 0, 40, 83
2, 36083, Note_on_c, 0, 54, 0
2, 36090, Note_on_c, 0, 52, 84
2, 36154, Note_on_c, 0, 42, 77
2, 36158, Note_on_c, 0, 54, 72
2, 36161, Note_on_c, 0, 52, 0
2, 36161, Note_on_c, 0, 40, 0
2, 36216, Note_on_c, 0, 54, 0
2, 36218, Note_on_c, 0, 43, 82
2, 36220, Note_on_c, 0, 42, 0
2, 36251, Note_on_c, 0, 55, 78
2, 36286, Note_on_c, 0, 43, 0
2, 36291, Note_on_c, 0, 55, 0
2, 36312, Note_on_c, 0, 42, 73
2, 36315, Note_on_c, 0, 57, 79
2, 36390, Note_on_c, 0, 57, 0
2, 36394, Note_on_c, 0, 59, 80
2, 36396, Note_on_c, 0, 40, 77
2, 36399, Note_on_c, 0, 42, 0
2, 36450, Note_on_c, 0, 40, 0
2, 36465, Note_on_c, 0, 60, 79
2, 36535, Note_on_c, 0, 60, 0
2, 36543, Note_on_c, 0, 62, 78
2, 36556, Note_on_c, 0, 59, 0
2, 36584, Note_on_c, 0, 48, 77
2, 36644, Note_on_c, 0, 60, 75
2, 36668, Note_on_c, 0, 62, 0
2, 36676, Note_on_c, 0, 48, 0
2, 36722, Note_on_c, 0, 59, 80
2, 36732, Note_on_c, 0, 47, 76
2, 36738, Note_on_c, 0, 60, 0
2, 36805, Note_on_c, 0, 47, 0
2, 36806, Note_on_c, 0, 48, 78
2, 36810, Note_on_c, 0, 55, 79
2, 36811, Note_on_c, 0, 59, 0
2, 36870, Note_on_c, 0, 55, 0
2, 36885, Note_on_c, 0, 57, 78
2, 36887, Note_on_c, 0, 45, 73
2, 36890, Note_on_c, 0, 48, 0
2, 36891, Note_on_c, 0, 47, 73
2, 36956, Note_on_c, 0, 45, 0
2, 36967, Note_on_c, 0, 45, 72
2, 36969, Note_on_c, 0, 59, 74
2, 37036, Note_on_c, 0, 45, 0
2, 37040, Note_on_c, 0, 47, 0
2, 37043, Note_on_c, 0, 59, 0
2, 37044, Note_on_c, 0, 43, 78
2, 37048, Note_on_c, 0, 57, 0
2, 37050, Note_on_c, 0, 60, 75
2, 37103, Note_on_c, 0, 43, 0
2, 37119, Note_on_c, 0, 60, 0
2, 37123, Note_on_c, 0, 45, 68
2, 37131, Note_on_c, 0, 59, 82
2, 37197, Note_on_c, 0, 59, 0
2, 37206, Note_on_c, 0, 43, 77
2, 37232, Note_on_c, 0, 45, 0
2, 37243, Note_on_c, 0, 60, 71
2, 37275, Note_on_c, 0, 43, 0
2, 37283, Note_on_c, 0, 42, 79
2, 37284, Note_on_c, 0, 60, 0
2, 37313, Note_on_c, 0, 62, 74
2, 37343, Note_on_c, 0, 42, 0
2, 37379, Note_on_c, 0, 62, 0
2, 37380, Note_on_c, 0, 40, 81
2, 37382, Note_on_c, 0, 64, 76
2, 37466, Note_on_c, 0, 42, 77
2, 37469, Note_on_c, 0, 40, 0
2, 37473, Note_on_c, 0, 64, 0
2, 37475, Note_on_c, 0, 66, 76
2, 37526, Note_on_c, 0, 66, 0
2, 37526, Note_on_c, 0, 42, 0
2, 37541, Note_on_c, 0, 43, 80
2, 37559, Note_on_c, 0, 67, 78
2, 37607, Note_on_c, 0, 43, 0
2, 37613, Note_on_c, 0, 67, 0
2, 37630, Note_on_c, 0, 42, 74
2, 37635, Note_on_c, 0, 69, 72
2, 37694, Note_on_c, 0, 42, 0
2, 37718, Note_on_c, 0, 69, 0
2, 37720, Note_on_c, 0, 40, 80
2, 37720, Note_on_c, 0, 71, 80
2, 37787, Note_on_c, 0, 40, 0
2, 37792, Note_on_c, 0, 71, 0
2, 37805, Note_on_c, 0, 72, 77
2, 37872, Note_on_c, 0, 72, 0
2, 37883, Note_on_c, 0, 74, 75
2, 37971, Note_on_c, 0, 72, 76
2, 38005, Note_on_c, 0, 74, 0
2, 38046, Note_on_c, 0, 71, 74
2, 38065, Note_on_c, 0, 40, 80
2, 38083, Note_on_c, 0, 72, 0
2, 38132, Note_on_c, 0, 69, 72
2, 38145, Note_on_c, 0, 42, 76
2, 38157, Note_on_c, 0, 40, 0
2, 38200, Note_on_c, 0, 71, 0
2, 38218, Note_on_c, 0, 67, 70
2, 38219, Note_on_c, 0, 42, 0
2, 38231, Note_on_c, 0, 69, 0
2, 38234, Note_on_c, 0, 43, 78
2, 38292, Note_on_c, 0, 67, 0
2, 38300, Note_on_c, 0, 43, 0
2, 38309, Note_on_c, 0, 66, 76
2, 38327, Note_on_c, 0, 42, 77
2, 38388, Note_on_c, 0, 66, 0
2, 38390, Note_on_c, 0, 42, 0
2, 38396, Note_on_c, 0, 40, 79
2, 38397, Note_on_c, 0, 64, 75
2, 38436, Note_on_c, 0, 40, 0
2, 38504, Note_on_c, 0, 66, 76
2, 38519, Note_on_c, 0, 64, 0
2, 38574, Note_on_c, 0, 66, 0
2, 38582, Note_on_c, 0, 67, 74
2, 38680, Note_on_c, 0, 66, 76
2, 38681, Note_on_c, 0, 67, 0
2, 38727, Note_on_c, 0, 40, 83
2, 38749, Note_on_c, 0, 66, 0
2, 38752, Note_on_c, 0, 64, 80
2, 38808, Note_on_c, 0, 42, 76
2, 38817, Note_on_c, 0, 40, 0
2, 38822, Note_on_c, 0, 64, 0
2, 38827, Note_on_c, 0, 66, 73
2, 38879, Note_on_c, 0, 42, 0
2, 38879, Note_on_c, 0, 43, 81
2, 38881, Note_on_c, 0, 66, 0
2, 38920, Note_on_c, 0, 67, 74
2, 38932, Note_on_c, 0, 43, 0
2, 38949, Note_on_c, 0, 42, 74
2, 38988, Note_on_c, 0, 69, 76
2, 39006, Note_on_c, 0, 67, 0
2, 39029, Note_on_c, 0, 42, 0
2, 39041, Note_on_c, 0, 69, 0
2, 39048, Note_on_c, 0, 40, 79
2, 39053, Note_on_c, 0, 71, 77
2, 39101, Note_on_c, 0, 40, 0
2, 39133, Note_on_c, 0, 72, 77
2, 39191, Note_on_c, 0, 71, 0
2, 39195, Note_on_c, 0, 72, 0
2, 39204, Note_on_c, 0, 74, 80
2, 39223, Note_on_c, 0, 48, 82
2, 39297, Note_on_c, 0, 72, 77
2, 39309, Note_on_c, 0, 48, 0
2, 39310, Note_on_c, 0, 74, 0
2, 39372, Note_on_c, 0, 47, 82
2, 39373, Note_on_c, 0, 71, 82
2, 39384, Note_on_c, 0, 72, 0
2, 39436, Note_on_c, 0, 47, 0
2, 39448, Note_on_c, 0, 48, 84
2, 39462, Note_on_c, 0, 67, 73
2, 39475, Note_on_c, 0, 71, 0
2, 39534, Note_on_c, 0, 47, 69
2, 39537, Note_on_c, 0, 69, 78
2, 39551, Note_on_c, 0, 48, 0
2, 39619, Note_on_c, 0, 45, 75
2, 39622, Note_on_c, 0, 71, 81
2, 39626, Note_on_c, 0, 69, 0
2, 39656, Note_on_c, 0, 45, 0
2, 39659, Note_on_c, 0, 47, 0
2, 39659, Note_on_c, 0, 67, 0
2, 39664, Note_on_c, 0, 71, 0
2, 39685, Note_on_c, 0, 43, 79
2, 39711, Note_on_c, 0, 72, 86
2, 39734, Note_on_c, 0, 43, 0
2, 39748, Note_on_c, 0, 45, 73
2, 39778, Note_on_c, 0, 72, 0
2, 39785, Note_on_c, 0, 74, 83
2, 39821, Note_on_c, 0, 45, 0
2, 39832, Note_on_c, 0, 43, 74
2, 39874, Note_on_c, 0, 76, 71
2, 39905, Note_on_c, 0, 43, 0
2, 39910, Note_on_c, 0, 42, 75
2, 39937, Note_on_c, 0, 74, 0
2, 39957, Note_on_c, 0, 78, 88
2, 39961, Note_on_c, 0, 76, 0
2, 39997, Note_on_c, 0, 42, 0
2, 40011, Note_on_c, 0, 40, 79
2, 40020, Note_on_c, 0, 78, 0
2, 40051, Control_c, 0, 64, 127
2, 40106, Note_on_c, 0, 52, 74
2, 40185, Note_on_c, 0, 54, 72
2, 40269, Note_on_c, 0, 55, 80
2, 40343, Note_on_c, 0, 52, 0
2, 40347, Note_on_c, 0, 79, 102
2, 40348, Note_on_c, 0, 52, 96
2, 40351, Note_on_c, 0, 76, 87
2, 40353, Note_on_c, 0, 67, 97
2, 40354, Note_on_c, 0, 71, 94
2, 40519, Note_on_c, 0, 71, 0
2, 40525, Note_on_c, 0, 78, 97
2, 40528, Note_on_c, 0, 66, 96
2, 40529, Note_on_c, 0, 74, 85
2, 40529, Note_on_c, 0, 71, 79
2, 40611, Note_on_c, 0, 40, 0
2, 40616, Control_c, 0, 64, 0
2, 40617, Note_on_c, 0, 52, 0
2, 40617, Note_on_c, 0, 71, 0
2, 40618, Note_on_c, 0, 54, 0
2, 40619, Note_on_c, 0, 76, 0
2, 40619, Note_on_c, 0, 55, 0
2, 40619, Note_on_c, 0, 67, 0
2, 40620, Note_on_c, 0, 79, 0
2, 40620, Note_on_c, 0, 66, 0
2, 40622, Note_on_c, 0, 74, 0
2, 40623, Note_on_c, 0, 78, 0
2, 40695, Note_on_c, 0, 40, 71
2, 40734, Control_c, 0, 64, 127
2, 40772, Note_on_c, 0, 52, 74
2, 40874, Note_on_c, 0, 54, 71
2, 40962, Note_on_c, 0, 55, 73
2, 41034, Note_on_c, 0, 52, 0
2, 41043, Note_on_c, 0, 78, 105
2, 41044, Note_on_c, 0, 52, 98
2, 41045, Note_on_c, 0, 66, 104
2, 41045, Note_on_c, 0, 74, 86
2, 41046, Note_on_c, 0, 71, 91
2, 41210, Note_on_c, 0, 55, 0
2, 41210, Note_on_c, 0, 71, 0
2, 41213, Note_on_c, 0, 76, 86
2, 41215, Note_on_c, 0, 67, 81
2, 41216, Note_on_c, 0, 64, 86
2, 41217, Note_on_c, 0, 71, 77
2, 41218, Note_on_c, 0, 55, 77
2, 41226, Note_on_c, 0, 40, 0
2, 41337, Note_on_c, 0, 66, 0
2, 41337, Note_on_c, 0, 55, 0
2, 41338, Note_on_c, 0, 54, 0
2, 41338, Note_on_c, 0, 64, 0
2, 41338, Control_c, 0, 64, 0
2, 41338, Note_on_c, 0, 71, 0
2, 41338, Note_on_c, 0, 67, 0
2, 41339, Note_on_c, 0, 74, 0
2, 41339, Note_on_c, 0, 76, 0
2, 41339, Note_on_c, 0, 78, 0
2, 41349, Note_on_c, 0, 52, 0
2, 41392, Note_on_c, 0, 40, 74
2, 41456, Control_c, 0, 64, 127
2, 41459, Note_on_c, 0, 52, 76
2, 41561, Note_on_c, 0, 54, 71
2, 41633, Note_on_c, 0, 40, 0
2, 41645, Note_on_c, 0, 55, 74
2, 41717, Note_on_c, 0, 52, 0
2, 41729, Note_on_c, 0, 52, 99
2, 41731, Note_on_c, 0, 79, 101
2, 41734, Note_on_c, 0, 76, 86
2, 41735, Note_on_c, 0, 67, 100
2, 41736, Note_on_c, 0, 71, 94
2, 41909, Note_on_c, 0, 71, 0
2, 41912, Note_on_c, 0, 78, 94
2, 41913, Note_on_c, 0, 74, 77
2, 41913, Note_on_c, 0, 66, 93
2, 41913, Note_on_c, 0, 71, 71
2, 42015, Control_c, 0, 64, 0
2, 42019, Note_on_c, 0, 54, 0
2, 42019, Note_on_c, 0, 52, 0
2, 42020, Note_on_c, 0, 66, 0
2, 42020, Note_on_c, 0, 71, 0
2, 42020, Note_on_c, 0, 67, 0
2, 42020, Note_on_c, 0, 79, 0
2, 42020, Note_on_c, 0, 74, 0
2, 42020, Note_on_c, 0, 76, 0
2, 42032, Note_on_c, 0, 55, 0
2, 42040, Note_on_c, 0, 78, 0
2, 42082, Note_on_c, 0, 40, 69
2, 42147, Control_c, 0, 64, 127
2, 42152, Note_on_c, 0, 52, 73
2, 42250, Note_on_c, 0, 54, 72
2, 42255, Note_on_c, 0, 40, 0
2, 42337, Note_on_c, 0, 55, 74
2, 42401, Note_on_c, 0, 52, 0
2, 42405, Note_on_c, 0, 52, 94
2, 42410, Note_on_c, 0, 78, 101
2, 42411, Note_on_c, 0, 71, 94
2, 42412, Note_on_c, 0, 66, 102
2, 42593, Note_on_c, 0, 71, 0
2, 42595, Note_on_c, 0, 76, 84
2, 42597, Note_on_c, 0, 64, 83
2, 42597, Note_on_c, 0, 71, 80
2, 42598, Note_on_c, 0, 67, 82
2, 42713, Note_on_c, 0, 55, 0
2, 42713, Note_on_c, 0, 54, 0
2, 42713, Note_on_c, 0, 52, 0
2, 42713, Note_on_c, 0, 71, 0
2, 42713, Note_on_c, 0, 64, 0
2, 42713, Note_on_c, 0, 67, 0
2, 42714, Note_on_c, 0, 66, 0
2, 42714, Control_c, 0, 64, 0
2, 42715, Note_on_c, 0, 78, 0
2, 42715, Note_on_c, 0, 76, 0
2, 42765, Note_on_c, 0, 40, 74
2, 42808, Control_c, 0, 64, 127
2, 42829, Note_on_c, 0, 52, 79
2, 42937, Note_on_c, 0, 55, 77
2, 43014, Note_on_c, 0, 60, 83
2, 43084, Note_on_c, 0, 52, 0
2, 43089, Note_on_c, 0, 81, 100
2, 43091, Note_on_c, 0, 72, 99
2, 43091, Note_on_c, 0, 52, 91
2, 43095, Note_on_c, 0, 69, 97
2, 43096, Note_on_c, 0, 76, 81
2, 43120, Note_on_c, 0, 78, 50
2, 43261, Note_on_c, 0, 72, 0
2, 43261, Note_on_c, 0, 76, 0
2, 43268, Note_on_c, 0, 67, 95
2, 43268, Note_on_c, 0, 79, 93
2, 43270, Note_on_c, 0, 72, 87
2, 43272, Note_on_c, 0, 76, 70
2, 43368, Note_on_c, 0, 40, 0
2, 43379, Control_c, 0, 64, 0
2, 43379, Note_on_c, 0, 52, 0
2, 43380, Note_on_c, 0, 69, 0
2, 43380, Note_on_c, 0, 60, 0
2, 43380, Note_on_c, 0, 81, 0
2, 43380, Note_on_c, 0, 55, 0
2, 43380, Note_on_c, 0, 76, 0
2, 43381, Note_on_c, 0, 72, 0
2, 43381, Note_on_c, 0, 67, 0
2, 43381, Note_on_c, 0, 79, 0
2, 43381, Note_on_c, 0, 78, 0
2, 43441, Note_on_c, 0, 40, 72
2, 43499, Control_c, 0, 64, 127
2, 43508, Note_on_c, 0, 52, 81
2, 43616, Note_on_c, 0, 55, 78
2, 43699, Note_on_c, 0, 60, 79
2, 43760, Note_on_c, 0, 52, 0
2, 43771, Note_on_c, 0, 52, 89
2, 43777, Note_on_c, 0, 79, 100
2, 43779, Note_on_c, 0, 67, 102
2, 43779, Note_on_c, 0, 72, 98
2, 43786, Note_on_c, 0, 76, 87
2, 43921, Note_on_c, 0, 40, 0
2, 43959, Note_on_c, 0, 78, 92
2, 43960, Note_on_c, 0, 72, 0
2, 43960, Note_on_c, 0, 76, 0
2, 43963, Note_on_c, 0, 66, 92
2, 43965, Note_on_c, 0, 76, 67
2, 43966, Note_on_c, 0, 72, 73
2, 44046, Control_c, 0, 64, 0
2, 44048, Note_on_c, 0, 52, 0
2, 44049, Note_on_c, 0, 55, 0
2, 44049, Note_on_c, 0, 67, 0
2, 44049, Note_on_c, 0, 60, 0
2, 44049, Note_on_c, 0, 79, 0
2, 44049, Note_on_c, 0, 76, 0
2, 44049, Note_on_c, 0, 66, 0
2, 44049, Note_on_c, 0, 72, 0
2, 44051, Note_on_c, 0, 78, 0
2, 44131, Note_on_c, 0, 40, 75
2, 44175, Control_c, 0, 64, 127
2, 44207, Note_on_c, 0, 52, 80
2, 44308, Note_on_c, 0, 55, 81
2, 44328, Note_on_c, 0, 40, 0
2, 44378, Note_on_c, 0, 60, 85
2, 44451, Note_on_c, 0, 52, 0
2, 44456, Note_on_c, 0, 78, 102
2, 44457, Note_on_c, 0, 52, 90
2, 44458, Note_on_c, 0, 72, 86
2, 44459, Note_on_c, 0, 66, 103
2, 44636, Note_on_c, 0, 60, 0
2, 44636, Note_on_c, 0, 72, 0
2, 44638, Note_on_c, 0, 76, 88
2, 44640, Note_on_c, 0, 64, 85
2, 44640, Note_on_c, 0, 67, 86
2, 44641, Note_on_c, 0, 60, 68
2, 44642, Note_on_c, 0, 72, 80
2, 44727, Control_c, 0, 64, 0
2, 44728, Note_on_c, 0, 52, 0
2, 44729, Note_on_c, 0, 64, 0
2, 44729, Note_on_c, 0, 66, 0
2, 44729, Note_on_c, 0, 55, 0
2, 44729, Note_on_c, 0, 67, 0
2, 44730, Note_on_c, 0, 60, 0
2, 44730, Note_on_c, 0, 72, 0
2, 44731, Note_on_c, 0, 78, 0
2, 44731, Note_on_c, 0, 76, 0
2, 44812, Note_on_c, 0, 40, 76
2, 44866, Control_c, 0, 64, 127
2, 44893, Note_on_c, 0, 52, 69
2, 44999, Note_on_c, 0, 55, 74
2, 45056, Note_on_c, 0, 60, 81
2, 45135, Note_on_c, 0, 52, 0
2, 45139, Note_on_c, 0, 52, 85
2, 45148, Note_on_c, 0, 78, 102
2, 45149, Note_on_c, 0, 72, 89
2, 45153, Note_on_c, 0, 76, 88
2, 45154, Note_on_c, 0, 66, 102
2, 45319, Note_on_c, 0, 76, 0
2, 45324, Note_on_c, 0, 79, 94
2, 45326, Note_on_c, 0, 71, 84
2, 45329, Note_on_c, 0, 67, 80
2, 45330, Note_on_c, 0, 76, 69
2, 45381, Note_on_c, 0, 40, 0
2, 45419, Control_c, 0, 64, 0
2, 45421, Note_on_c, 0, 52, 0
2, 45422, Note_on_c, 0, 67, 0
2, 45422, Note_on_c, 0, 66, 0
2, 45423, Note_on_c, 0, 55, 0
2, 45423, Note_on_c, 0, 60, 0
2, 45423, Note_on_c, 0, 72, 0
2, 45423, Note_on_c, 0, 79, 0
2, 45423, Note_on_c, 0, 78, 0
2, 45423, Note_on_c, 0, 71, 0
2, 45493, Note_on_c, 0, 40, 75
2, 45550, Control_c, 0, 64, 127
2, 45570, Note_on_c, 0, 52, 72
2, 45669, Note_on_c, 0, 54, 70
2, 45688, Note_on_c, 0, 40, 0
2, 45744, Note_on_c, 0, 55, 77
2, 45826, Note_on_c, 0, 52, 0
2, 45835, Note_on_c, 0, 52, 94
2, 45845, Note_on_c, 0, 79, 103
2, 45852, Note_on_c, 0, 67, 99
2, 45852, Note_on_c, 0, 71, 97
2, 45864, Note_on_c, 0, 76, 0
2, 45869, Note_on_c, 0, 76, 59
2, 46026, Note_on_c, 0, 71, 0
2, 46028, Note_on_c, 0, 78, 93
2, 46030, Note_on_c, 0, 66, 88
2, 46030, Note_on_c, 0, 74, 84
2, 46032, Note_on_c, 0, 71, 72
2, 46131, Control_c, 0, 64, 0
2, 46131, Note_on_c, 0, 52, 0
2, 46132, Note_on_c, 0, 67, 0
2, 46132, Note_on_c, 0, 71, 0
2, 46132, Note_on_c, 0, 54, 0
2, 46133, Note_on_c, 0, 79, 0
2, 46134, Note_on_c, 0, 66, 0
2, 46135, Note_on_c, 0, 74, 0
2, 46136, Note_on_c, 0, 78, 0
2, 46141, Note_on_c, 0, 55, 0
2, 46200, Note_on_c, 0, 40, 69
2, 46233, Control_c, 0, 64, 127
2, 46267, Note_on_c, 0, 52, 77
2, 46365, Note_on_c, 0, 54, 69
2, 46447, Note_on_c, 0, 55, 76
2, 46517, Note_on_c, 0, 52, 0
2, 46524, Note_on_c, 0, 52, 94
2, 46538, Note_on_c, 0, 78, 102
2, 46541, Note_on_c, 0, 71, 88
2, 46542, Note_on_c, 0, 74, 76
2, 46543, Note_on_c, 0, 66, 103
2, 46709, Note_on_c, 0, 76, 0
2, 46717, Note_on_c, 0, 71, 0
2, 46719, Note_on_c, 0, 76, 87
2, 46721, Note_on_c, 0, 52, 0
2, 46722, Note_on_c, 0, 71, 77
2, 46722, Note_on_c, 0, 64, 84
2, 46727, Note_on_c, 0, 67, 82
2, 46819, Control_c, 0, 64, 0
2, 46820, Note_on_c, 0, 54, 0
2, 46820, Note_on_c, 0, 74, 0
2, 46820, Note_on_c, 0, 55, 0
2, 46820, Note_on_c, 0, 66, 0
2, 46820, Note_on_c, 0, 71, 0
2, 46820, Note_on_c, 0, 67, 0
2, 46821, Note_on_c, 0, 78, 0
2, 46824, Note_on_c, 0, 40, 0
2, 46883, Note_on_c, 0, 40, 73
2, 46909, Control_c, 0, 64, 127
2, 46917, Note_on_c, 0, 64, 0
2, 46964, Note_on_c, 0, 52, 71
2, 47059, Note_on_c, 0, 54, 70
2, 47131, Note_on_c, 0, 55, 76
2, 47208, Note_on_c, 0, 52, 0
2, 47212, Note_on_c, 0, 52, 93
2, 47216, Note_on_c, 0, 76, 0
2, 47217, Note_on_c, 0, 79, 101
2, 47220, Note_on_c, 0, 67, 100
2, 47220, Note_on_c, 0, 71, 98
2, 47227, Note_on_c, 0, 76, 84
2, 47266, Note_on_c, 0, 55, 0
2, 47400, Note_on_c, 0, 71, 0
2, 47404, Note_on_c, 0, 81, 92
2, 47407, Note_on_c, 0, 71, 81
2, 47408, Note_on_c, 0, 69, 81
2, 47416, Note_on_c, 0, 76, 0
2, 47422, Note_on_c, 0, 76, 52
2, 47505, Control_c, 0, 64, 0
2, 47506, Note_on_c, 0, 52, 0
2, 47506, Note_on_c, 0, 71, 0
2, 47508, Note_on_c, 0, 79, 0
2, 47509, Note_on_c, 0, 76, 0
2, 47509, Note_on_c, 0, 67, 0
2, 47509, Note_on_c, 0, 54, 0
2, 47510, Note_on_c, 0, 69, 0
2, 47516, Note_on_c, 0, 40, 0
2, 47572, Note_on_c, 0, 40, 72
2, 47608, Control_c, 0, 64, 127
2, 47642, Note_on_c, 0, 52, 79
2, 47750, Note_on_c, 0, 54, 68
2, 47822, Note_on_c, 0, 55, 75
2, 47892, Note_on_c, 0, 52, 0
2, 47902, Note_on_c, 0, 52, 89
2, 47910, Note_on_c, 0, 79, 98
2, 47913, Note_on_c, 0, 67, 95
2, 47913, Note_on_c, 0, 71, 94
2, 47916, Note_on_c, 0, 76, 83
2, 48000, Note_on_c, 0, 81, 0
2, 48089, Note_on_c, 0, 78, 98
2, 48092, Note_on_c, 0, 66, 91
2, 48197, Note_on_c, 0, 54, 0
2, 48197, Note_on_c, 0, 52, 0
2, 48197, Control_c, 0, 64, 0
2, 48197, Note_on_c, 0, 67, 0
2, 48198, Note_on_c, 0, 71, 0
2, 48198, Note_on_c, 0, 55, 0
2, 48198, Note_on_c, 0, 79, 0
2, 48198, Note_on_c, 0, 66, 0
2, 48199, Note_on_c, 0, 76, 0
2, 48199, Note_on_c, 0, 40, 0
2, 48201, Note_on_c, 0, 78, 0
2, 48244, Note_on_c, 0, 40, 72
2, 48284, Control_c, 0, 64, 127
2, 48311, Note_on_c, 0, 52, 78
2, 48417, Note_on_c, 0, 55, 76
2, 48495, Note_on_c, 0, 60, 82
2, 48552, Note_on_c, 0, 52, 0
2, 48563, Note_on_c, 0, 52, 86
2, 48580, Note_on_c, 0, 81, 98
2, 48586, Note_on_c, 0, 76, 89
2, 48587, Note_on_c, 0, 72, 90
2, 48588, Note_on_c, 0, 69, 97
2, 48592, Note_on_c, 0, 78, 93
2, 48744, Note_on_c, 0, 81, 0
2, 48752, Note_on_c, 0, 69, 0
2, 48752, Note_on_c, 0, 72, 0
2, 48752, Note_on_c, 0, 78, 0
2, 48756, Note_on_c, 0, 81, 95
2, 48758, Note_on_c, 0, 69, 94
2, 48759, Note_on_c, 0, 72, 91
2, 48763, Note_on_c, 0, 78, 91
2, 48867, Control_c, 0, 64, 0
2, 48871, Note_on_c, 0, 76, 0
2, 48871, Note_on_c, 0, 60, 0
2, 48871, Note_on_c, 0, 55, 0
2, 48883, Note_on_c, 0, 52, 0
2, 48890, Note_on_c, 0, 40, 0
2, 48936, Note_on_c, 0, 40, 72
2, 48952, Control_c, 0, 64, 127
2, 49006, Note_on_c, 0, 52, 80
2, 49114, Note_on_c, 0, 55, 75
2, 49187, Note_on_c, 0, 60, 81
2, 49251, Note_on_c, 0, 52, 0
2, 49255, Note_on_c, 0, 52, 85
2, 49259, Note_on_c, 0, 81, 0
2, 49267, Note_on_c, 0, 69, 0
2, 49267, Note_on_c, 0, 72, 0
2, 49267, Note_on_c, 0, 78, 0
2, 49269, Note_on_c, 0, 81, 94
2, 49272, Note_on_c, 0, 72, 91
2, 49275, Note_on_c, 0, 78, 93
2, 49275, Note_on_c, 0, 69, 96
2, 49279, Note_on_c, 0, 76, 77
2, 49443, Note_on_c, 0, 72, 0
2, 49443, Note_on_c, 0, 76, 0
2, 49452, Note_on_c, 0, 72, 100
2, 49453, Note_on_c, 0, 79, 93
2, 49454, Note_on_c, 0, 67, 89
2, 49454, Note_on_c, 0, 76, 74
2, 49556, Control_c, 0, 64, 0
2, 49557, Note_on_c, 0, 52, 0
2, 49558, Note_on_c, 0, 69, 0
2, 49558, Note_on_c, 0, 55, 0
2, 49558, Note_on_c, 0, 60, 0
2, 49559, Note_on_c, 0, 72, 0
2, 49559, Note_on_c, 0, 67, 0
2, 49560, Note_on_c, 0, 81, 0
2, 49560, Note_on_c, 0, 78, 0
2, 49566, Note_on_c, 0, 40, 0
2, 49626, Note_on_c, 0, 40, 78
2, 49666, Control_c, 0, 64, 127
2, 49693, Note_on_c, 0, 52, 82
2, 49802, Note_on_c, 0, 55, 75
2, 49812, Note_on_c, 0, 40, 0
2, 49877, Note_on_c, 0, 60, 81
2, 49950, Note_on_c, 0, 52, 0
2, 49954, Note_on_c, 0, 52, 85
2, 49959, Note_on_c, 0, 78, 100
2, 49961, Note_on_c, 0, 72, 89
2, 49962, Note_on_c, 0, 66, 101
2, 49977, Note_on_c, 0, 75, 61
2, 49981, Note_on_c, 0, 76, 0
2, 49987, Note_on_c, 0, 76, 70
2, 50135, Note_on_c, 0, 72, 0
2, 50135, Note_on_c, 0, 76, 0
2, 50139, Note_on_c, 0, 76, 84
2, 50141, Note_on_c, 0, 72, 74
2, 50144, Note_on_c, 0, 64, 89
2, 50145, Note_on_c, 0, 67, 81
2, 50221, Control_c, 0, 64, 0
2, 50222, Note_on_c, 0, 52, 0
2, 50222, Note_on_c, 0, 72, 0
2, 50222, Note_on_c, 0, 76, 0
2, 50222, Note_on_c, 0, 66, 0
2, 50222, Note_on_c, 0, 67, 0
2, 50222, Note_on_c, 0, 78, 0
2, 50222, Note_on_c, 0, 55, 0
2, 50222, Note_on_c, 0, 60, 0
2, 50223, Note_on_c, 0, 75, 0
2, 50250, Note_on_c, 0, 64, 0
2, 50302, Note_on_c, 0, 40, 75
2, 50319, Control_c, 0, 64, 127
2, 50357, Note_on_c, 0, 79, 0
2, 50371, Note_on_c, 0, 52, 83
2, 50492, Note_on_c, 0, 55, 72
2, 50592, Note_on_c, 0, 60, 77
2, 50618, Note_on_c, 0, 52, 0
2, 50630, Note_on_c, 0, 52, 86
2, 50645, Note_on_c, 0, 79, 96
2, 50645, Note_on_c, 0, 76, 85
2, 50646, Note_on_c, 0, 67, 97
2, 50646, Note_on_c, 0, 72, 85
2, 50810, Note_on_c, 0, 67, 0
2, 50821, Note_on_c, 0, 67, 85
2, 50822, Note_on_c, 0, 64, 79
2, 50822, Note_on_c, 0, 71, 78
2, 50935, Control_c, 0, 64, 0
2, 50936, Note_on_c, 0, 67, 0
2, 50937, Note_on_c, 0, 55, 0
2, 50937, Note_on_c, 0, 60, 0
2, 50937, Note_on_c, 0, 71, 0
2, 50937, Note_on_c, 0, 72, 0
2, 50937, Note_on_c, 0, 76, 0
2, 50938, Note_on_c, 0, 79, 0
2, 50941, Note_on_c, 0, 40, 0
2, 50956, Note_on_c, 0, 52, 0
2, 50956, Note_on_c, 0, 64, 0
2, 50991, Note_on_c, 0, 28, 101
2, 50992, Note_on_c, 0, 40, 90
2, 51010, Control_c, 0, 64, 127
2, 51164, Note_on_c, 0, 40, 0
2, 51169, Note_on_c, 0, 40, 86
2, 51170, Note_on_c, 0, 52, 91
2, 51333, Note_on_c, 0, 52, 0
2, 51336, Note_on_c, 0, 91, 112
2, 51337, Note_on_c, 0, 52, 93
2, 51338, Note_on_c, 0, 64, 103
2, 51338, Note_on_c, 0, 59, 95
2, 51339, Note_on_c, 0, 55, 98
2, 51343, Note_on_c, 0, 79, 103
2, 51345, Note_on_c, 0, 83, 91
2, 51351, Note_on_c, 0, 86, 84
2, 51509, Note_on_c, 0, 83, 0
2, 51509, Note_on_c, 0, 86, 0
2, 51518, Note_on_c, 0, 90, 105
2, 51521, Note_on_c, 0, 83, 88
2, 51521, Note_on_c, 0, 78, 99
2, 51521, Note_on_c, 0, 86, 92
2, 51646, Control_c, 0, 64, 0
2, 51646, Note_on_c, 0, 52, 0
2, 51647, Note_on_c, 0, 91, 0
2, 51647, Note_on_c, 0, 79, 0
2, 51648, Note_on_c, 0, 86, 0
2, 51649, Note_on_c, 0, 64, 0
2, 51649, Note_on_c, 0, 90, 0
2, 51650, Note_on_c, 0, 83, 0
2, 51650, Note_on_c, 0, 55, 0
2, 51650, Note_on_c, 0, 59, 0
2, 51651, Note_on_c, 0, 78, 0
2, 51671, Note_on_c, 0, 28, 0
2, 51671, Note_on_c, 0, 40, 0
2, 51681, Note_on_c, 0, 40, 87
2, 51681, Note_on_c, 0, 28, 95
2, 51717, Control_c, 0, 64, 127
2, 51847, Note_on_c, 0, 40, 0
2, 51857, Note_on_c, 0, 52, 91
2, 51858, Note_on_c, 0, 40, 86
2, 52028, Note_on_c, 0, 59, 97
2, 52032, Note_on_c, 0, 55, 94
2, 52034, Note_on_c, 0, 78, 107
2, 52034, Note_on_c, 0, 90, 109
2, 52036, Note_on_c, 0, 83, 93
2, 52038, Note_on_c, 0, 86, 88
2, 52208, Note_on_c, 0, 83, 0
2, 52213, Note_on_c, 0, 88, 97
2, 52217, Note_on_c, 0, 76, 96
2, 52219, Note_on_c, 0, 83, 85
2, 52219, Note_on_c, 0, 79, 92
2, 52328, Control_c, 0, 64, 0
2, 52329, Note_on_c, 0, 86, 0
2, 52330, Note_on_c, 0, 52, 0
2, 52330, Note_on_c, 0, 90, 0
2, 52330, Note_on_c, 0, 79, 0
2, 52330, Note_on_c, 0, 88, 0
2, 52330, Note_on_c, 0, 78, 0
2, 52331, Note_on_c, 0, 55, 0
2, 52331, Note_on_c, 0, 28, 0
2, 52332, Note_on_c, 0, 40, 0
2, 52332, Note_on_c, 0, 59, 0
2, 52333, Note_on_c, 0, 76, 0
2, 52354, Note_on_c, 0, 83, 0
2, 52368, Note_on_c, 0, 40, 91
2, 52370, Note_on_c, 0, 28, 97
2, 52392, Control_c, 0, 64, 127
2, 52531, Note_on_c, 0, 40, 0
2, 52539, Note_on_c, 0, 52, 89
2, 52541, Note_on_c, 0, 40, 83
2, 52684, Note_on_c, 0, 28, 0
2, 52700, Control_c, 0, 64, 0
2, 52707, Note_on_c, 0, 52, 0
2, 52711, Note_on_c, 0, 52, 90
2, 52711, Note_on_c, 0, 55, 90
2, 52712, Note_on_c, 0, 64, 97
2, 52714, Note_on_c, 0, 59, 93
2, 52715, Note_on_c, 0, 91, 113
2, 52715, Control_c, 0, 64, 127
2, 52723, Note_on_c, 0, 79, 103
2, 52726, Note_on_c, 0, 83, 94
2, 52735, Note_on_c, 0, 86, 69
2, 52892, Note_on_c, 0, 86, 0
2, 52894, Note_on_c, 0, 90, 106
2, 52895, Note_on_c, 0, 83, 0
2, 52896, Note_on_c, 0, 78, 100
2, 52897, Note_on_c, 0, 86, 86
2, 53021, Note_on_c, 0, 91, 0
2, 53021, Note_on_c, 0, 52, 0
2, 53022, Note_on_c, 0, 86, 0
2, 53022, Note_on_c, 0, 79, 0
2, 53022, Control_c, 0, 64, 0
2, 53023, Note_on_c, 0, 90, 0
2, 53023, Note_on_c, 0, 55, 0
2, 53023, Note_on_c, 0, 59, 0
2, 53024, Note_on_c, 0, 78, 0
2, 53024, Note_on_c, 0, 64, 0
2, 53053, Note_on_c, 0, 40, 0
2, 53059, Note_on_c, 0, 40, 86
2, 53060, Note_on_c, 0, 28, 99
2, 53076, Control_c, 0, 64, 127
2, 53214, Note_on_c, 0, 28, 0
2, 53214, Note_on_c, 0, 40, 0
2, 53224, Note_on_c, 0, 40, 85
2, 53225, Note_on_c, 0, 28, 86
2, 53227, Note_on_c, 0, 52, 85
2, 53393, Note_on_c, 0, 64, 96
2, 53396, Note_on_c, 0, 90, 109
2, 53398, Note_on_c, 0, 59, 97
2, 53399, Note_on_c, 0, 64, 0
2, 53399, Note_on_c, 0, 78, 105
2, 53400, Note_on_c, 0, 55, 94
2, 53582, Note_on_c, 0, 88, 97
2, 53586, Note_on_c, 0, 76, 96
2, 53586, Note_on_c, 0, 83, 90
2, 53586, Note_on_c, 0, 79, 95
2, 53711, Control_c, 0, 64, 0
2, 53714, Note_on_c, 0, 90, 0
2, 53714, Note_on_c, 0, 83, 0
2, 53715, Note_on_c, 0, 52, 0
2, 53715, Note_on_c, 0, 78, 0
2, 53715, Note_on_c, 0, 55, 0
2, 53715, Note_on_c, 0, 79, 0
2, 53716, Note_on_c, 0, 59, 0
2, 53716, Note_on_c, 0, 76, 0
2, 53744, Note_on_c, 0, 28, 0
2, 53744, Note_on_c, 0, 40, 0
2, 53749, Note_on_c, 0, 28, 102
2, 53749, Note_on_c, 0, 40, 89
2, 53775, Control_c, 0, 64, 127
2, 53905, Note_on_c, 0, 40, 0
2, 53912, Note_on_c, 0, 52, 93
2, 53915, Note_on_c, 0, 40, 88
2, 54081, Note_on_c, 0, 93, 108
2, 54086, Note_on_c, 0, 60, 95
2, 54086, Note_on_c, 0, 84, 96
2, 54086, Note_on_c, 0, 81, 101
2, 54088, Note_on_c, 0, 55, 89
2, 54259, Note_on_c, 0, 84, 0
2, 54261, Note_on_c, 0, 91, 104
2, 54267, Note_on_c, 0, 84, 93
2, 54270, Note_on_c, 0, 79, 94
2, 54274, Note_on_c, 0, 28, 0
2, 54392, Control_c, 0, 64, 0
2, 54393, Note_on_c, 0, 52, 0
2, 54393, Note_on_c, 0, 93, 0
2, 54393, Note_on_c, 0, 81, 0
2, 54394, Note_on_c, 0, 60, 0
2, 54394, Note_on_c, 0, 40, 0
2, 54394, Note_on_c, 0, 91, 0
2, 54395, Note_on_c, 0, 55, 0
2, 54405, Note_on_c, 0, 88, 0
2, 54424, Note_on_c, 0, 28, 94
2, 54458, Control_c, 0, 64, 127
2, 54520, Note_on_c, 0, 28, 0
2, 54593, Note_on_c, 0, 52, 89
2, 54594, Note_on_c, 0, 40, 82
2, 54758, Note_on_c, 0, 52, 0
2, 54763, Note_on_c, 0, 55, 93
2, 54763, Note_on_c, 0, 60, 93
2, 54765, Note_on_c, 0, 52, 90
2, 54766, Note_on_c, 0, 84, 0
2, 54770, Note_on_c, 0, 91, 107
2, 54772, Note_on_c, 0, 84, 96
2, 54773, Note_on_c, 0, 79, 0
2, 54777, Note_on_c, 0, 79, 96
2, 54958, Note_on_c, 0, 84, 0
2, 54960, Note_on_c, 0, 90, 103
2, 54962, Note_on_c, 0, 78, 101
2, 54962, Note_on_c, 0, 84, 84
2, 55075, Note_on_c, 0, 52, 0
2, 55075, Note_on_c, 0, 91, 0
2, 55075, Note_on_c, 0, 40, 0
2, 55076, Note_on_c, 0, 90, 0
2, 55076, Note_on_c, 0, 79, 0
2, 55076, Control_c, 0, 64, 0
2, 55076, Note_on_c, 0, 84, 0
2, 55076, Note_on_c, 0, 60, 0
2, 55076, Note_on_c, 0, 55, 0
2, 55115, Note_on_c, 0, 28, 97
2, 55115, Note_on_c, 0, 40, 89
2, 55134, Control_c, 0, 64, 127
2, 55272, Note_on_c, 0, 40, 0
2, 55283, Note_on_c, 0, 40, 80
2, 55285, Note_on_c, 0, 52, 85
2, 55448, Note_on_c, 0, 64, 90
2, 55449, Note_on_c, 0, 78, 0
2, 55453, Note_on_c, 0, 55, 93
2, 55453, Note_on_c, 0, 60, 90
2, 55454, Note_on_c, 0, 78, 102
2, 55455, Note_on_c, 0, 90, 107
2, 55455, Note_on_c, 0, 84, 92
2, 55549, Note_on_c, 0, 28, 0
2, 55633, Note_on_c, 0, 84, 0
2, 55643, Note_on_c, 0, 88, 96
2, 55644, Note_on_c, 0, 84, 83
2, 55644, Note_on_c, 0, 76, 93
2, 55648, Note_on_c, 0, 79, 86
2, 55767, Note_on_c, 0, 90, 0
2, 55768, Note_on_c, 0, 52, 0
2, 55768, Note_on_c, 0, 60, 0
2, 55768, Note_on_c, 0, 55, 0
2, 55768, Control_c, 0, 64, 0
2, 55779, Note_on_c, 0, 64, 0
2, 55795, Note_on_c, 0, 40, 0
2, 55800, Note_on_c, 0, 28, 95
2, 55801, Note_on_c, 0, 40, 77
2, 55818, Control_c, 0, 64, 127
2, 55971, Note_on_c, 0, 40, 0
2, 55976, Note_on_c, 0, 52, 85
2, 55976, Note_on_c, 0, 40, 81
2, 56138, Note_on_c, 0, 64, 84
2, 56143, Note_on_c, 0, 55, 88
2, 56144, Note_on_c, 0, 60, 86
2, 56148, Note_on_c, 0, 78, 0
2, 56148, Note_on_c, 0, 84, 0
2, 56152, Note_on_c, 0, 90, 107
2, 56152, Note_on_c, 0, 78, 101
2, 56152, Note_on_c, 0, 84, 91
2, 56330, Note_on_c, 0, 91, 106
2, 56332, Note_on_c, 0, 79, 0
2, 56332, Note_on_c, 0, 88, 0
2, 56334, Note_on_c, 0, 83, 86
2, 56337, Note_on_c, 0, 79, 92
2, 56338, Note_on_c, 0, 88, 81
2, 56341, Note_on_c, 0, 86, 75
2, 56444, Control_c, 0, 64, 0
2, 56445, Note_on_c, 0, 84, 0
2, 56445, Note_on_c, 0, 86, 0
2, 56445, Note_on_c, 0, 40, 0
2, 56445, Note_on_c, 0, 60, 0
2, 56445, Note_on_c, 0, 52, 0
2, 56445, Note_on_c, 0, 90, 0
2, 56445, Note_on_c, 0, 83, 0
2, 56445, Note_on_c, 0, 55, 0
2, 56446, Note_on_c, 0, 78, 0
2, 56455, Note_on_c, 0, 64, 0
2, 56455, Note_on_c, 0, 76, 0
2, 56463, Note_on_c, 0, 28, 0
2, 56500, Note_on_c, 0, 28, 92
2, 56500, Note_on_c, 0, 40, 84
2, 56501, Control_c, 0, 64, 127
2, 56663, Note_on_c, 0, 40, 0
2, 56673, Note_on_c, 0, 40, 84
2, 56674, Note_on_c, 0, 52, 82
2, 56778, Note_on_c, 0, 40, 0
2, 56778, Note_on_c, 0, 52, 0
2, 56783, Note_on_c, 0, 40, 60
2, 56785, Note_on_c, 0, 52, 65
2, 56839, Note_on_c, 0, 91, 0
2, 56844, Note_on_c, 0, 59, 94
2, 56844, Note_on_c, 0, 55, 90
2, 56844, Note_on_c, 0, 91, 110
2, 56847, Note_on_c, 0, 79, 0
2, 56854, Note_on_c, 0, 79, 102
2, 56855, Note_on_c, 0, 88, 0
2, 56855, Note_on_c, 0, 83, 94
2, 56860, Note_on_c, 0, 88, 84
2, 57026, Note_on_c, 0, 83, 0
2, 57027, Note_on_c, 0, 90, 104
2, 57028, Note_on_c, 0, 78, 97
2, 57028, Note_on_c, 0, 86, 91
2, 57054, Note_on_c, 0, 28, 0
2, 57157, Control_c, 0, 64, 0
2, 57158, Note_on_c, 0, 90, 0
2, 57158, Note_on_c, 0, 88, 0
2, 57158, Note_on_c, 0, 52, 0
2, 57158, Note_on_c, 0, 91, 0
2, 57158, Note_on_c, 0, 86, 0
2, 57158, Note_on_c, 0, 79, 0
2, 57159, Note_on_c, 0, 55, 0
2, 57159, Note_on_c, 0, 59, 0
2, 57177, Note_on_c, 0, 40, 0
2, 57184, Note_on_c, 0, 40, 91
2, 57185, Note_on_c, 0, 28, 96
2, 57208, Control_c, 0, 64, 127
2, 57354, Note_on_c, 0, 40, 0
2, 57356, Note_on_c, 0, 52, 90
2, 57359, Note_on_c, 0, 40, 83
2, 57523, Note_on_c, 0, 78, 0
2, 57524, Note_on_c, 0, 64, 92
2, 57526, Note_on_c, 0, 59, 94
2, 57527, Note_on_c, 0, 55, 88
2, 57528, Note_on_c, 0, 90, 106
2, 57531, Note_on_c, 0, 78, 102
2, 57717, Note_on_c, 0, 88, 95
2, 57719, Note_on_c, 0, 83, 83
2, 57720, Note_on_c, 0, 79, 91
2, 57720, Note_on_c, 0, 76, 92
2, 57843, Control_c, 0, 64, 0
2, 57844, Note_on_c, 0, 90, 0
2, 57844, Note_on_c, 0, 52, 0
2, 57844, Note_on_c, 0, 88, 0
2, 57844, Note_on_c, 0, 55, 0
2, 57845, Note_on_c, 0, 83, 0
2, 57845, Note_on_c, 0, 64, 0
2, 57845, Note_on_c, 0, 78, 0
2, 57845, Note_on_c, 0, 79, 0
2, 57846, Note_on_c, 0, 76, 0
2, 57846, Note_on_c, 0, 59, 0
2, 57868, Note_on_c, 0, 28, 0
2, 57868, Note_on_c, 0, 40, 0
2, 57874, Note_on_c, 0, 28, 99
2, 57875, Note_on_c, 0, 40, 86
2, 57899, Control_c, 0, 64, 127
2, 57937, Note_on_c, 0, 40, 0
2, 58052, Note_on_c, 0, 52, 85
2, 58055, Note_on_c, 0, 40, 74
2, 58222, Note_on_c, 0, 52, 0
2, 58225, Note_on_c, 0, 91, 111
2, 58226, Note_on_c, 0, 52, 85
2, 58229, Note_on_c, 0, 64, 87
2, 58229, Note_on_c, 0, 59, 85
2, 58229, Note_on_c, 0, 55, 89
2, 58231, Note_on_c, 0, 83, 93
2, 58232, Note_on_c, 0, 79, 103
2, 58233, Note_on_c, 0, 88, 85
2, 58235, Note_on_c, 0, 86, 84
2, 58237, Note_on_c, 0, 64, 0
2, 58406, Note_on_c, 0, 83, 0
2, 58407, Note_on_c, 0, 93, 103
2, 58410, Note_on_c, 0, 81, 95
2, 58410, Note_on_c, 0, 83, 85
2, 58525, Control_c, 0, 64, 0
2, 58526, Note_on_c, 0, 86, 0
2, 58526, Note_on_c, 0, 52, 0
2, 58526, Note_on_c, 0, 91, 0
2, 58526, Note_on_c, 0, 88, 0
2, 58527, Note_on_c, 0, 79, 0
2, 58527, Note_on_c, 0, 59, 0
2, 58528, Note_on_c, 0, 55, 0
2, 58560, Note_on_c, 0, 28, 0
2, 58560, Note_on_c, 0, 40, 0
2, 58570, Note_on_c, 0, 40, 80
2, 58570, Note_on_c, 0, 28, 92
2, 58575, Control_c, 0, 64, 127
2, 58728, Note_on_c, 0, 40, 0
2, 58734, Note_on_c, 0, 52, 90
2, 58734, Note_on_c, 0, 40, 85
2, 58904, Note_on_c, 0, 91, 110
2, 58905, Note_on_c, 0, 83, 0
2, 58909, Note_on_c, 0, 79, 99
2, 58909, Note_on_c, 0, 55, 90
2, 58910, Note_on_c, 0, 83, 93
2, 58910, Note_on_c, 0, 59, 83
2, 58912, Note_on_c, 0, 88, 87
2, 59087, Note_on_c, 0, 90, 99
2, 59089, Note_on_c, 0, 83, 0
2, 59093, Note_on_c, 0, 78, 92
2, 59099, Note_on_c, 0, 83, 70
2, 59100, Note_on_c, 0, 86, 83
2, 59120, Note_on_c, 0, 28, 0
2, 59209, Control_c, 0, 64, 0
2, 59209, Note_on_c, 0, 91, 0
2, 59209, Note_on_c, 0, 86, 0
2, 59209, Note_on_c, 0, 90, 0
2, 59210, Note_on_c, 0, 52, 0
2, 59210, Note_on_c, 0, 79, 0
2, 59210, Note_on_c, 0, 88, 0
2, 59210, Note_on_c, 0, 78, 0
2, 59211, Note_on_c, 0, 83, 0
2, 59211, Note_on_c, 0, 40, 0
2, 59211, Note_on_c, 0, 55, 0
2, 59211, Note_on_c, 0, 59, 0
2, 59220, Note_on_c, 0, 81, 0
2, 59220, Note_on_c, 0, 93, 0
2, 59251, Note_on_c, 0, 28, 99
2, 59252, Note_on_c, 0, 40, 88
2, 59266, Control_c, 0, 64, 127
2, 59412, Note_on_c, 0, 40, 0
2, 59418, Note_on_c, 0, 40, 76
2, 59423, Note_on_c, 0, 52, 80
2, 59588, Note_on_c, 0, 64, 84
2, 59593, Note_on_c, 0, 60, 92
2, 59599, Note_on_c, 0, 55, 87
2, 59600, Note_on_c, 0, 93, 108
2, 59601, Note_on_c, 0, 84, 98
2, 59601, Note_on_c, 0, 81, 101
2, 59611, Note_on_c, 0, 90, 93
2, 59765, Note_on_c, 0, 93, 0
2, 59773, Note_on_c, 0, 81, 0
2, 59773, Note_on_c, 0, 84, 0
2, 59773, Note_on_c, 0, 90, 0
2, 59775, Note_on_c, 0, 93, 102
2, 59777, Note_on_c, 0, 84, 90
2, 59777, Note_on_c, 0, 81, 97
2, 59784, Note_on_c, 0, 90, 87
2, 59784, Note_on_c, 0, 88, 82
2, 59880, Note_on_c, 0, 28, 0
2, 59892, Note_on_c, 0, 64, 0
2, 59892, Note_on_c, 0, 52, 0
2, 59892, Note_on_c, 0, 93, 0
2, 59893, Control_c, 0, 64, 0
2, 59893, Note_on_c, 0, 88, 0
2, 59893, Note_on_c, 0, 60, 0
2, 59894, Note_on_c, 0, 55, 0
2, 59919, Note_on_c, 0, 40, 0
2, 59937, Note_on_c, 0, 28, 96
2, 59950, Control_c, 0, 64, 127
2, 60011, Note_on_c, 0, 28, 0
2, 60108, Note_on_c, 0, 52, 83
2, 60109, Note_on_c, 0, 40, 76
2, 60280, Note_on_c, 0, 81, 0
2, 60280, Note_on_c, 0, 84, 0
2, 60284, Note_on_c, 0, 93, 105
2, 60285, Note_on_c, 0, 60, 91
2, 60288, Note_on_c, 0, 90, 0
2, 60289, Note_on_c, 0, 84, 94
2, 60289, Note_on_c, 0, 81, 99
2, 60290, Note_on_c, 0, 55, 87
2, 60293, Note_on_c, 0, 90, 91
2, 60464, Note_on_c, 0, 84, 0
2, 60468, Note_on_c, 0, 91, 105
2, 60472, Note_on_c, 0, 79, 95
2, 60472, Note_on_c, 0, 84, 90
2, 60598, Note_on_c, 0, 93, 0
2, 60598, Note_on_c, 0, 52, 0
2, 60598, Note_on_c, 0, 90, 0
2, 60598, Note_on_c, 0, 81, 0
2, 60599, Note_on_c, 0, 91, 0
2, 60599, Control_c, 0, 64, 0
2, 60599, Note_on_c, 0, 60, 0
2, 60599, Note_on_c, 0, 84, 0
2, 60600, Note_on_c, 0, 55, 0
2, 60610, Note_on_c, 0, 40, 0
2, 60630, Note_on_c, 0, 28, 92
2, 60632, Note_on_c, 0, 40, 81
2, 60656, Control_c, 0, 64, 127
2, 60669, Note_on_c, 0, 40, 0
2, 60803, Note_on_c, 0, 52, 92
2, 60805, Note_on_c, 0, 40, 86
2, 60972, Note_on_c, 0, 90, 108
2, 60974, Note_on_c, 0, 60, 88
2, 60975, Note_on_c, 0, 64, 89
2, 60975, Note_on_c, 0, 84, 90
2, 60976, Note_on_c, 0, 78, 103
2, 60977, Note_on_c, 0, 55, 87
2, 61148, Note_on_c, 0, 79, 0
2, 61153, Note_on_c, 0, 91, 108
2, 61155, Note_on_c, 0, 84, 0
2, 61159, Note_on_c, 0, 79, 96
2, 61162, Note_on_c, 0, 84, 75
2, 61201, Note_on_c, 0, 28, 0
2, 61260, Note_on_c, 0, 52, 0
2, 61260, Note_on_c, 0, 90, 0
2, 61261, Note_on_c, 0, 40, 0
2, 61261, Note_on_c, 0, 84, 0
2, 61261, Note_on_c, 0, 78, 0
2, 61262, Note_on_c, 0, 60, 0
2, 61262, Note_on_c, 0, 79, 0
2, 61263, Note_on_c, 0, 55, 0
2, 61263, Control_c, 0, 64, 0
2, 61286, Note_on_c, 0, 64, 0
2, 61312, Note_on_c, 0, 28, 94
2, 61313, Note_on_c, 0, 40, 81
2, 61317, Control_c, 0, 64, 127
2, 61478, Note_on_c, 0, 40, 0
2, 61482, Note_on_c, 0, 52, 87
2, 61483, Note_on_c, 0, 40, 83
2, 61650, Note_on_c, 0, 93, 106
2, 61651, Note_on_c, 0, 60, 86
2, 61653, Note_on_c, 0, 81, 96
2, 61658, Note_on_c, 0, 84, 82
2, 61658, Note_on_c, 0, 55, 85
2, 61659, Note_on_c, 0, 88, 83
2, 61672, Note_on_c, 0, 83, 68
2, 61678, Note_on_c, 0, 83, 0
2, 61831, Note_on_c, 0, 88, 0
2, 61831, Note_on_c, 0, 91, 0
2, 61831, Note_on_c, 0, 95, 107
2, 61835, Note_on_c, 0, 88, 95
2, 61836, Note_on_c, 0, 83, 99
2, 61837, Note_on_c, 0, 91, 96
2, 61935, Note_on_c, 0, 81, 0
2, 61935, Note_on_c, 0, 93, 0
2, 61936, Note_on_c, 0, 52, 0
2, 61936, Note_on_c, 0, 40, 0
2, 61936, Control_c, 0, 64, 0
2, 61936, Note_on_c, 0, 60, 0
2, 61937, Note_on_c, 0, 84, 0
2, 61937, Note_on_c, 0, 55, 0
2, 61946, Note_on_c, 0, 28, 0
2, 61996, Note_on_c, 0, 43, 95
2, 61996, Note_on_c, 0, 31, 88
2, 62000, Control_c, 0, 64, 127
2, 62246, Note_on_c, 0, 31, 0
2, 62246, Note_on_c, 0, 43, 0
2, 62257, Note_on_c, 0, 43, 82
2, 62257, Note_on_c, 0, 31, 75
2, 62257, Note_on_c, 0, 50, 80
2, 62533, Note_on_c, 0, 55, 76
2, 62536, Note_on_c, 0, 62, 76
2, 62691, Note_on_c, 0, 62, 0
2, 62702, Note_on_c, 0, 67, 83
2, 62702, Note_on_c, 0, 62, 78
2, 62707, Note_on_c, 0, 59, 65
2, 62714, Note_on_c, 0, 59, 0
2, 62897, Note_on_c, 0, 74, 83
2, 62978, Note_on_c, 0, 79, 87
2, 62983, Note_on_c, 0, 95, 0
2, 62999, Note_on_c, 0, 88, 0
2, 63004, Note_on_c, 0, 50, 0
2, 63004, Note_on_c, 0, 67, 0
2, 63006, Note_on_c, 0, 62, 0
2, 63007, Note_on_c, 0, 74, 0
2, 63008, Note_on_c, 0, 43, 0
2, 63009, Control_c, 0, 64, 0
2, 63010, Note_on_c, 0, 31, 0
2, 63022, Note_on_c, 0, 55, 0
2, 63023, Note_on_c, 0, 39, 79
2, 63028, Note_on_c, 0, 46, 83
2, 63029, Note_on_c, 0, 91, 0
2, 63046, Note_on_c, 0, 86, 92
2, 63065, Note_on_c, 0, 39, 0
2, 63068, Control_c, 0, 64, 127
2, 63083, Note_on_c, 0, 83, 0
2, 63136, Note_on_c, 0, 84, 89
2, 63202, Note_on_c, 0, 51, 76
2, 63205, Note_on_c, 0, 82, 80
2, 63284, Note_on_c, 0, 81, 77
2, 63367, Note_on_c, 0, 79, 0
2, 63372, Note_on_c, 0, 79, 76
2, 63434, Note_on_c, 0, 77, 80
2, 63513, Note_on_c, 0, 51, 0
2, 63516, Note_on_c, 0, 63, 75
2, 63517, Note_on_c, 0, 51, 72
2, 63521, Note_on_c, 0, 63, 0
2, 63521, Note_on_c, 0, 84, 0
2, 63523, Note_on_c, 0, 58, 73
2, 63525, Note_on_c, 0, 84, 93
2, 63598, Note_on_c, 0, 82, 0
2, 63603, Note_on_c, 0, 82, 86
2, 63674, Note_on_c, 0, 58, 0
2, 63674, Note_on_c, 0, 81, 0
2, 63681, Note_on_c, 0, 81, 80
2, 63683, Note_on_c, 0, 58, 71
2, 63685, Note_on_c, 0, 63, 77
2, 63759, Note_on_c, 0, 79, 0
2, 63770, Note_on_c, 0, 79, 80
2, 63828, Note_on_c, 0, 77, 0
2, 63836, Note_on_c, 0, 77, 83
2, 63932, Note_on_c, 0, 75, 75
2, 63997, Note_on_c, 0, 58, 0
2, 64003, Note_on_c, 0, 46, 0
2, 64004, Note_on_c, 0, 82, 0
2, 64005, Note_on_c, 0, 51, 0
2, 64005, Note_on_c, 0, 79, 0
2, 64005, Note_on_c, 0, 58, 84
2, 64005, Note_on_c, 0, 77, 0
2, 64005, Note_on_c, 0, 84, 0
2, 64006, Note_on_c, 0, 81, 0
2, 64006, Note_on_c, 0, 86, 0
2, 64007, Control_c, 0, 64, 0
2, 64008, Note_on_c, 0, 75, 0
2, 64009, Note_on_c, 0, 79, 86
2, 64009, Note_on_c, 0, 51, 75
2, 64058, Control_c, 0, 64, 127
2, 64093, Note_on_c, 0, 77, 83
2, 64178, Note_on_c, 0, 75, 86
2, 64260, Note_on_c, 0, 74, 79
2, 64333, Note_on_c, 0, 39, 72
2, 64336, Note_on_c, 0, 46, 79
2, 64347, Note_on_c, 0, 72, 83
2, 64427, Note_on_c, 0, 74, 0
2, 64434, Note_on_c, 0, 74, 79
2, 64496, Note_on_c, 0, 75, 0
2, 64503, Note_on_c, 0, 75, 73
2, 64588, Note_on_c, 0, 77, 0
2, 64598, Note_on_c, 0, 77, 83
2, 64665, Note_on_c, 0, 63, 0
2, 64669, Note_on_c, 0, 51, 0
2, 64669, Note_on_c, 0, 74, 0
2, 64669, Note_on_c, 0, 72, 0
2, 64669, Note_on_c, 0, 46, 0
2, 64670, Note_on_c, 0, 39, 0
2, 64670, Note_on_c, 0, 75, 0
2, 64673, Note_on_c, 0, 79, 0
2, 64675, Control_c, 0, 64, 0
2, 64680, Note_on_c, 0, 58, 0
2, 64685, Note_on_c, 0, 29, 97
2, 64742, Control_c, 0, 64, 127
2, 64903, Note_on_c, 0, 29, 0
2, 64952, Note_on_c, 0, 48, 89
2, 64958, Note_on_c, 0, 41, 76
2, 64959, Note_on_c, 0, 29, 77
2, 65214, Note_on_c, 0, 53, 79
2, 65215, Note_on_c, 0, 60, 83
2, 65233, Note_on_c, 0, 77, 0
2, 65379, Note_on_c, 0, 60, 0
2, 65385, Note_on_c, 0, 60, 75
2, 65385, Note_on_c, 0, 65, 85
2, 65559, Note_on_c, 0, 72, 85
2, 65644, Note_on_c, 0, 77, 83
2, 65691, Control_c, 0, 64, 0
2, 65694, Note_on_c, 0, 29, 0
2, 65695, Note_on_c, 0, 53, 0
2, 65696, Note_on_c, 0, 48, 0
2, 65696, Note_on_c, 0, 60, 0
2, 65696, Note_on_c, 0, 65, 0
2, 65696, Note_on_c, 0, 41, 0
2, 65697, Note_on_c, 0, 72, 0
2, 65709, Note_on_c, 0, 43, 85
2, 65711, Note_on_c, 0, 36, 78
2, 65713, Note_on_c, 0, 84, 93
2, 65763, Control_c, 0, 64, 127
2, 65787, Note_on_c, 0, 82, 88
2, 65802, Note_on_c, 0, 36, 0
2, 65865, Note_on_c, 0, 79, 85
2, 65882, Note_on_c, 0, 48, 76
2, 65883, Note_on_c, 0, 55, 84
2, 65948, Note_on_c, 0, 77, 0
2, 65953, Note_on_c, 0, 77, 77
2, 66045, Note_on_c, 0, 72, 75
2, 66113, Note_on_c, 0, 70, 80
2, 66178, Note_on_c, 0, 79, 0
2, 66189, Note_on_c, 0, 79, 87
2, 66201, Note_on_c, 0, 48, 0
2, 66201, Note_on_c, 0, 55, 0
2, 66205, Note_on_c, 0, 48, 73
2, 66209, Note_on_c, 0, 43, 0
2, 66211, Note_on_c, 0, 55, 78
2, 66213, Note_on_c, 0, 43, 71
2, 66255, Note_on_c, 0, 77, 0
2, 66261, Note_on_c, 0, 77, 80
2, 66355, Note_on_c, 0, 43, 0
2, 66355, Note_on_c, 0, 55, 0
2, 66355, Note_on_c, 0, 72, 0
2, 66361, Note_on_c, 0, 72, 81
2, 66365, Note_on_c, 0, 55, 78
2, 66366, Note_on_c, 0, 60, 85
2, 66366, Note_on_c, 0, 43, 74
2, 66439, Note_on_c, 0, 70, 0
2, 66445, Note_on_c, 0, 70, 77
2, 66525, Note_on_c, 0, 67, 83
2, 66610, Note_on_c, 0, 65, 79
2, 66649, Control_c, 0, 64, 0
2, 66649, Note_on_c, 0, 82, 0
2, 66649, Note_on_c, 0, 77, 0
2, 66649, Note_on_c, 0, 60, 0
2, 66649, Note_on_c, 0, 70, 0
2, 66650, Note_on_c, 0, 67, 0
2, 66650, Note_on_c, 0, 84, 0
2, 66651, Note_on_c, 0, 43, 0
2, 66670, Note_on_c, 0, 55, 0
2, 66670, Note_on_c, 0, 72, 0
2, 66670, Note_on_c, 0, 79, 0
2, 66677, Note_on_c, 0, 48, 0
2, 66678, Note_on_c, 0, 72, 82
2, 66680, Note_on_c, 0, 55, 78
2, 66682, Note_on_c, 0, 48, 69
2, 66716, Control_c, 0, 64, 127
2, 66763, Note_on_c, 0, 70, 82
2, 66839, Note_on_c, 0, 67, 82
2, 66915, Note_on_c, 0, 65, 0
2, 66919, Note_on_c, 0, 65, 72
2, 66994, Note_on_c, 0, 60, 82
2, 66997, Note_on_c, 0, 43, 78
2, 67003, Note_on_c, 0, 36, 75
2, 67077, Note_on_c, 0, 70, 0
2, 67084, Note_on_c, 0, 70, 78
2, 67169, Note_on_c, 0, 72, 0
2, 67178, Note_on_c, 0, 72, 76
2, 67259, Note_on_c, 0, 74, 81
2, 67293, Control_c, 0, 64, 0
2, 67294, Note_on_c, 0, 48, 0
2, 67295, Note_on_c, 0, 60, 0
2, 67295, Note_on_c, 0, 65, 0
2, 67295, Note_on_c, 0, 72, 0
2, 67295, Note_on_c, 0, 43, 0
2, 67295, Note_on_c, 0, 70, 0
2, 67295, Note_on_c, 0, 55, 0
2, 67296, Note_on_c, 0, 67, 0
2, 67311, Note_on_c, 0, 74, 0
2, 67315, Note_on_c, 0, 36, 0
2, 67343, Note_on_c, 0, 31, 85
2, 67343, Note_on_c, 0, 43, 88
2, 67361, Control_c, 0, 64, 127
2, 67607, Note_on_c, 0, 31, 0
2, 67607, Note_on_c, 0, 43, 0
2, 67617, Note_on_c, 0, 50, 84
2, 67617, Note_on_c, 0, 43, 83
2, 67618, Note_on_c, 0, 31, 75
2, 67868, Note_on_c, 0, 43, 0
2, 67872, Note_on_c, 0, 55, 80
2, 67875, Note_on_c, 0, 62, 82
2, 67876, Note_on_c, 0, 43, 76
2, 68037, Note_on_c, 0, 62, 0
2, 68045, Note_on_c, 0, 62, 87
2, 68047, Note_on_c, 0, 67, 86
2, 68209, Note_on_c, 0, 74, 86
2, 68294, Note_on_c, 0, 79, 86
2, 68338, Note_on_c, 0, 50, 0
2, 68339, Control_c, 0, 64, 0
2, 68340, Note_on_c, 0, 67, 0
2, 68340, Note_on_c, 0, 62, 0
2, 68340, Note_on_c, 0, 74, 0
2, 68340, Note_on_c, 0, 55, 0
2, 68340, Note_on_c, 0, 31, 0
2, 68341, Note_on_c, 0, 43, 0
2, 68363, Note_on_c, 0, 39, 79
2, 68365, Note_on_c, 0, 86, 94
2, 68366, Note_on_c, 0, 46, 85
2, 68390, Control_c, 0, 64, 127
2, 68407, Note_on_c, 0, 39, 0
2, 68446, Note_on_c, 0, 84, 91
2, 68522, Note_on_c, 0, 82, 82
2, 68525, Note_on_c, 0, 58, 81
2, 68531, Note_on_c, 0, 51, 69
2, 68602, Note_on_c, 0, 81, 80
2, 68689, Note_on_c, 0, 79, 0
2, 68694, Note_on_c, 0, 79, 73
2, 68756, Note_on_c, 0, 77, 79
2, 68828, Note_on_c, 0, 51, 0
2, 68828, Note_on_c, 0, 58, 0
2, 68834, Note_on_c, 0, 58, 78
2, 68835, Note_on_c, 0, 84, 0
2, 68839, Note_on_c, 0, 51, 77
2, 68847, Note_on_c, 0, 84, 91
2, 68912, Note_on_c, 0, 82, 0
2, 68917, Note_on_c, 0, 82, 83
2, 68989, Note_on_c, 0, 58, 0
2, 68989, Note_on_c, 0, 81, 0
2, 68993, Note_on_c, 0, 63, 86
2, 68997, Note_on_c, 0, 51, 0
2, 68998, Note_on_c, 0, 81, 78
2, 69000, Note_on_c, 0, 58, 81
2, 69001, Note_on_c, 0, 51, 79
2, 69073, Note_on_c, 0, 79, 0
2, 69078, Note_on_c, 0, 79, 76
2, 69143, Note_on_c, 0, 77, 0
2, 69147, Note_on_c, 0, 77, 79
2, 69245, Note_on_c, 0, 75, 74
2, 69319, Note_on_c, 0, 58, 0
2, 69325, Note_on_c, 0, 82, 0
2, 69326, Note_on_c, 0, 77, 0
2, 69326, Note_on_c, 0, 75, 0
2, 69326, Note_on_c, 0, 86, 0
2, 69327, Note_on_c, 0, 51, 0
2, 69327, Note_on_c, 0, 79, 0
2, 69328, Note_on_c, 0, 58, 83
2, 69329, Control_c, 0, 64, 0
2, 69331, Note_on_c, 0, 51, 82
2, 69331, Note_on_c, 0, 79, 79
2, 69335, Note_on_c, 0, 46, 0
2, 69342, Note_on_c, 0, 84, 0
2, 69350, Note_on_c, 0, 81, 0
2, 69373, Control_c, 0, 64, 127
2, 69416, Note_on_c, 0, 77, 84
2, 69512, Note_on_c, 0, 75, 82
2, 69583, Note_on_c, 0, 74, 77
2, 69670, Note_on_c, 0, 39, 75
2, 69675, Note_on_c, 0, 46, 80
2, 69675, Note_on_c, 0, 72, 81
2, 69757, Note_on_c, 0, 74, 0
2, 69763, Note_on_c, 0, 74, 76
2, 69826, Note_on_c, 0, 75, 0
2, 69837, Note_on_c, 0, 75, 75
2, 69918, Note_on_c, 0, 77, 0
2, 69923, Note_on_c, 0, 77, 83
2, 69995, Note_on_c, 0, 63, 0
2, 69999, Note_on_c, 0, 79, 0
2, 69999, Note_on_c, 0, 51, 0
2, 70000, Note_on_c, 0, 72, 0
2, 70000, Note_on_c, 0, 77, 0
2, 70000, Note_on_c, 0, 74, 0
2, 70001, Note_on_c, 0, 75, 0
2, 70002, Note_on_c, 0, 46, 0
2, 70002, Note_on_c, 0, 39, 0
2, 70002, Control_c, 0, 64, 0
2, 70010, Note_on_c, 0, 58, 0
2, 70018, Note_on_c, 0, 29, 94
2, 70020, Note_on_c, 0, 41, 85
2, 70064, Control_c, 0, 64, 127
2, 70287, Note_on_c, 0, 29, 0
2, 70287, Note_on_c, 0, 41, 0
2, 70288, Note_on_c, 0, 53, 70
2, 70289, Note_on_c, 0, 48, 86
2, 70292, Note_on_c, 0, 41, 72
2, 70295, Note_on_c, 0, 53, 0
2, 70295, Note_on_c, 0, 29, 75
2, 70554, Note_on_c, 0, 53, 81
2, 70554, Note_on_c, 0, 60, 84
2, 70717, Note_on_c, 0, 60, 0
2, 70724, Note_on_c, 0, 60, 87
2, 70724, Note_on_c, 0, 65, 82
2, 70887, Note_on_c, 0, 72, 83
2, 70972, Note_on_c, 0, 77, 83
2, 71009, Note_on_c, 0, 29, 0
2, 71035, Control_c, 0, 64, 0
2, 71037, Note_on_c, 0, 48, 0
2, 71038, Note_on_c, 0, 53, 0
2, 71038, Note_on_c, 0, 41, 0
2, 71039, Note_on_c, 0, 60, 0
2, 71040, Note_on_c, 0, 72, 0
2, 71041, Note_on_c, 0, 65, 0
2, 71047, Note_on_c, 0, 43, 86
2, 71049, Note_on_c, 0, 36, 81
2, 71050, Note_on_c, 0, 84, 93
2, 71097, Note_on_c, 0, 36, 0
2, 71109, Control_c, 0, 64, 127
2, 71122, Note_on_c, 0, 82, 89
2, 71196, Note_on_c, 0, 79, 85
2, 71227, Note_on_c, 0, 48, 65
2, 71228, Note_on_c, 0, 60, 59
2, 71229, Note_on_c, 0, 55, 75
2, 71285, Note_on_c, 0, 77, 0
2, 71290, Note_on_c, 0, 77, 82
2, 71379, Note_on_c, 0, 72, 80
2, 71458, Note_on_c, 0, 70, 81
2, 71523, Note_on_c, 0, 48, 0
2, 71530, Note_on_c, 0, 48, 80
2, 71531, Note_on_c, 0, 79, 0
2, 71534, Note_on_c, 0, 36, 75
2, 71535, Note_on_c, 0, 81, 77
2, 71538, Note_on_c, 0, 79, 77
2, 71585, Note_on_c, 0, 77, 0
2, 71592, Note_on_c, 0, 77, 79
2, 71669, Note_on_c, 0, 72, 0
2, 71677, Note_on_c, 0, 48, 0
2, 71677, Note_on_c, 0, 55, 0
2, 71677, Note_on_c, 0, 60, 0
2, 71679, Note_on_c, 0, 72, 87
2, 71681, Note_on_c, 0, 55, 75
2, 71682, Note_on_c, 0, 60, 85
2, 71684, Note_on_c, 0, 48, 67
2, 71777, Note_on_c, 0, 70, 0
2, 71782, Note_on_c, 0, 70, 66
2, 71857, Note_on_c, 0, 67, 80
2, 71946, Note_on_c, 0, 65, 82
2, 71993, Control_c, 0, 64, 0
2, 71995, Note_on_c, 0, 77, 0
2, 71995, Note_on_c, 0, 60, 0
2, 71995, Note_on_c, 0, 82, 0
2, 71995, Note_on_c, 0, 81, 0
2, 71996, Note_on_c, 0, 70, 0
2, 71996, Note_on_c, 0, 84, 0
2, 71996, Note_on_c, 0, 43, 0
2, 71996, Note_on_c, 0, 79, 0
2, 71997, Note_on_c, 0, 67, 0
2, 72007, Note_on_c, 0, 48, 0
2, 72007, Note_on_c, 0, 55, 0
2, 72013, Note_on_c, 0, 55, 80
2, 72015, Note_on_c, 0, 72, 0
2, 72018, Note_on_c, 0, 48, 70
2, 72025, Note_on_c, 0, 72, 83
2, 72038, Control_c, 0, 64, 127
2, 72127, Note_on_c, 0, 70, 77
2, 72192, Note_on_c, 0, 36, 0
2, 72192, Note_on_c, 0, 65, 0
2, 72200, Note_on_c, 0, 65, 78
2, 72299, Note_on_c, 0, 70, 0
2, 72309, Note_on_c, 0, 70, 78
2, 72403, Note_on_c, 0, 43, 68
2, 72407, Note_on_c, 0, 72, 0
2, 72408, Note_on_c, 0, 36, 64
2, 72411, Note_on_c, 0, 72, 79
2, 72535, Note_on_c, 0, 77, 71
2, 72653, Note_on_c, 0, 82, 73
2, 72778, Note_on_c, 0, 84, 75
2, 72974, Note_on_c, 0, 86, 92
2, 72991, Note_on_c, 0, 38, 61
2, 72992, Note_on_c, 0, 26, 58
2, 73017, Control_c, 0, 64, 0
2, 73018, Note_on_c, 0, 65, 0
2, 73020, Note_on_c, 0, 77, 0
2, 73020, Note_on_c, 0, 43, 0
2, 73020, Note_on_c, 0, 36, 0
2, 73021, Note_on_c, 0, 72, 0
2, 73021, Note_on_c, 0, 84, 0
2, 73021, Note_on_c, 0, 82, 0
2, 73029, Note_on_c, 0, 55, 0
2, 73036, Note_on_c, 0, 48, 0
2, 73036, Note_on_c, 0, 70, 0
2, 73213, Control_c, 0, 64, 127
2, 73269, Note_on_c, 0, 87, 64
2, 73405, Note_on_c, 0, 86, 0
2, 73410, Note_on_c, 0, 86, 65
2, 73497, Note_on_c, 0, 87, 0
2, 73502, Note_on_c, 0, 87, 57
2, 73566, Note_on_c, 0, 86, 0
2, 73571, Note_on_c, 0, 86, 67
2, 73643, Note_on_c, 0, 87, 0
2, 73651, Note_on_c, 0, 87, 63
2, 73743, Note_on_c, 0, 86, 0
2, 73748, Note_on_c, 0, 86, 61
2, 73804, Note_on_c, 0, 87, 0
2, 73815, Note_on_c, 0, 87, 61
2, 73866, Note_on_c, 0, 86, 0
2, 73875, Note_on_c, 0, 86, 70
2, 73950, Note_on_c, 0, 87, 0
2, 73956, Note_on_c, 0, 87, 64
2, 74050, Note_on_c, 0, 86, 0
2, 74054, Note_on_c, 0, 86, 42
2, 74088, Note_on_c, 0, 87, 0
2, 74099, Note_on_c, 0, 87, 63
2, 74242, Note_on_c, 0, 87, 0
2, 74246, Note_on_c, 0, 87, 68
2, 74311, Note_on_c, 0, 86, 0
2, 74321, Note_on_c, 0, 86, 30
2, 74396, Note_on_c, 0, 87, 0
2, 74404, Note_on_c, 0, 87, 59
2, 74436, Note_on_c, 0, 60, 70
2, 74472, Note_on_c, 0, 86, 0
2, 74477, Note_on_c, 0, 86, 68
2, 74534, Note_on_c, 0, 87, 0
2, 74543, Note_on_c, 0, 87, 60
2, 74595, Note_on_c, 0, 86, 0
2, 74601, Note_on_c, 0, 86, 76
2, 74680, Note_on_c, 0, 87, 0
2, 74684, Note_on_c, 0, 87, 58
2, 74715, Note_on_c, 0, 62, 84
2, 74757, Note_on_c, 0, 86, 0
2, 74762, Note_on_c, 0, 86, 68
2, 74810, Note_on_c, 0, 87, 0
2, 74817, Note_on_c, 0, 87, 65
2, 74872, Note_on_c, 0, 86, 0
2, 74880, Note_on_c, 0, 26, 0
2, 74880, Note_on_c, 0, 86, 73
2, 74949, Note_on_c, 0, 87, 0
2, 74960, Note_on_c, 0, 87, 64
2, 75025, Note_on_c, 0, 86, 0
2, 75034, Note_on_c, 0, 86, 68
2, 75079, Note_on_c, 0, 87, 0
2, 75088, Note_on_c, 0, 87, 66
2, 75141, Note_on_c, 0, 86, 0
2, 75152, Note_on_c, 0, 86, 75
2, 75210, Note_on_c, 0, 87, 0
2, 75221, Note_on_c, 0, 87, 62
2, 75287, Note_on_c, 0, 86, 0
2, 75294, Note_on_c, 0, 86, 68
2, 75340, Note_on_c, 0, 87, 0
2, 75351, Note_on_c, 0, 87, 64
2, 75402, Note_on_c, 0, 86, 0
2, 75410, Note_on_c, 0, 86, 75
2, 75479, Note_on_c, 0, 87, 0
2, 75483, Note_on_c, 0, 87, 65
2, 75555, Note_on_c, 0, 86, 0
2, 75561, Note_on_c, 0, 86, 69
2, 75609, Note_on_c, 0, 87, 0
2, 75614, Note_on_c, 0, 87, 66
2, 75678, Note_on_c, 0, 86, 0
2, 75683, Note_on_c, 0, 86, 68
2, 75716, Note_on_c, 0, 63, 83
2, 75747, Note_on_c, 0, 87, 0
2, 75751, Note_on_c, 0, 87, 66
2, 75893, Note_on_c, 0, 87, 0
2, 75905, Note_on_c, 0, 87, 66
2, 76039, Note_on_c, 0, 87, 0
2, 76043, Note_on_c, 0, 87, 64
2, 76058, Note_on_c, 0, 66, 83
2, 76108, Note_on_c, 0, 86, 0
2, 76119, Note_on_c, 0, 86, 32
2, 76170, Note_on_c, 0, 87, 0
2, 76174, Note_on_c, 0, 87, 67
2, 76231, Note_on_c, 0, 86, 0
2, 76240, Note_on_c, 0, 86, 78
2, 76300, Note_on_c, 0, 63, 0
2, 76300, Note_on_c, 0, 87, 0
2, 76307, Note_on_c, 0, 63, 86
2, 76309, Note_on_c, 0, 87, 69
2, 76369, Note_on_c, 0, 86, 0
2, 76381, Note_on_c, 0, 86, 71
2, 76431, Note_on_c, 0, 87, 0
2, 76435, Note_on_c, 0, 87, 66
2, 76446, Note_on_c, 0, 62, 0
2, 76456, Note_on_c, 0, 62, 79
2, 76492, Note_on_c, 0, 86, 0
2, 76500, Note_on_c, 0, 86, 72
2, 76554, Note_on_c, 0, 63, 0
2, 76554, Note_on_c, 0, 87, 0
2, 76564, Note_on_c, 0, 87, 70
2, 76565, Note_on_c, 0, 63, 66
2, 76623, Note_on_c, 0, 86, 0
2, 76629, Note_on_c, 0, 86, 75
2, 76677, Note_on_c, 0, 66, 0
2, 76684, Note_on_c, 0, 87, 0
2, 76687, Note_on_c, 0, 66, 76
2, 76688, Note_on_c, 0, 87, 71
2, 76746, Note_on_c, 0, 86, 0
2, 76750, Note_on_c, 0, 86, 76
2, 76792, Note_on_c, 0, 87, 0
2, 76796, Note_on_c, 0, 67, 72
2, 76797, Note_on_c, 0, 87, 75
2, 76869, Note_on_c, 0, 86, 0
2, 76873, Note_on_c, 0, 86, 77
2, 76884, Note_on_c, 0, 62, 0
2, 76885, Note_on_c, 0, 69, 72
2, 76894, Note_on_c, 0, 62, 55
2, 76922, Note_on_c, 0, 87, 0
2, 76926, Note_on_c, 0, 87, 78
2, 76984, Note_on_c, 0, 86, 0
2, 76989, Note_on_c, 0, 86, 81
2, 77003, Note_on_c, 0, 70, 77
2, 77045, Note_on_c, 0, 87, 0
2, 77051, Note_on_c, 0, 87, 66
2, 77099, Note_on_c, 0, 69, 0
2, 77099, Note_on_c, 0, 86, 0
2, 77110, Note_on_c, 0, 86, 81
2, 77110, Note_on_c, 0, 69, 84
2, 77153, Note_on_c, 0, 87, 0
2, 77161, Note_on_c, 0, 87, 63
2, 77191, Note_on_c, 0, 67, 0
2, 77201, Note_on_c, 0, 67, 68
2, 77222, Note_on_c, 0, 86, 0
2, 77228, Note_on_c, 0, 86, 83
2, 77283, Note_on_c, 0, 69, 0
2, 77283, Note_on_c, 0, 87, 0
2, 77288, Note_on_c, 0, 87, 73
2, 77290, Note_on_c, 0, 69, 84
2, 77345, Note_on_c, 0, 86, 0
2, 77352, Note_on_c, 0, 86, 82
2, 77368, Note_on_c, 0, 70, 0
2, 77373, Note_on_c, 0, 70, 85
2, 77406, Note_on_c, 0, 87, 0
2, 77413, Note_on_c, 0, 87, 80
2, 77448, Note_on_c, 0, 72, 82
2, 77468, Note_on_c, 0, 86, 0
2, 77473, Note_on_c, 0, 86, 87
2, 77510, Note_on_c, 0, 74, 88
2, 77537, Note_on_c, 0, 87, 0
2, 77548, Note_on_c, 0, 87, 79
2, 77591, Note_on_c, 0, 86, 0
2, 77595, Note_on_c, 0, 75, 95
2, 77598, Note_on_c, 0, 86, 82
2, 77598, Note_on_c, 0, 38, 0
2, 77652, Note_on_c, 0, 87, 0
2, 77656, Note_on_c, 0, 87, 75
2, 77683, Note_on_c, 0, 74, 0
2, 77690, Note_on_c, 0, 74, 86
2, 77713, Note_on_c, 0, 86, 0
2, 77722, Note_on_c, 0, 86, 78
2, 77752, Note_on_c, 0, 72, 0
2, 77759, Note_on_c, 0, 72, 86
2, 77783, Note_on_c, 0, 87, 0
2, 77787, Note_on_c, 0, 87, 72
2, 77813, Note_on_c, 0, 74, 0
2, 77824, Note_on_c, 0, 74, 85
2, 77829, Note_on_c, 0, 86, 0
2, 77834, Note_on_c, 0, 86, 82
2, 77859, Note_on_c, 0, 75, 0
2, 77867, Note_on_c, 0, 75, 97
2, 77882, Note_on_c, 0, 87, 0
2, 77890, Note_on_c, 0, 87, 84
2, 77932, Note_on_c, 0, 78, 97
2, 77944, Note_on_c, 0, 86, 0
2, 77955, Note_on_c, 0, 86, 84
2, 78000, Note_on_c, 0, 79, 97
2, 78074, Note_on_c, 0, 86, 0
2, 78079, Note_on_c, 0, 86, 88
2, 78079, Note_on_c, 0, 81, 94
2, 78144, Note_on_c, 0, 79, 0
2, 78144, Note_on_c, 0, 87, 0
2, 78152, Note_on_c, 0, 79, 93
2, 78152, Note_on_c, 0, 87, 78
2, 78190, Note_on_c, 0, 78, 0
2, 78190, Note_on_c, 0, 86, 0
2, 78197, Note_on_c, 0, 86, 82
2, 78201, Note_on_c, 0, 78, 97
2, 78243, Note_on_c, 0, 87, 0
2, 78254, Note_on_c, 0, 87, 83
2, 78297, Note_on_c, 0, 79, 0
2, 78297, Note_on_c, 0, 86, 0
2, 78306, Note_on_c, 0, 79, 90
2, 78308, Note_on_c, 0, 86, 90
2, 78397, Note_on_c, 0, 81, 0
2, 78401, Note_on_c, 0, 81, 95
2, 78435, Note_on_c, 0, 86, 0
2, 78441, Note_on_c, 0, 86, 87
2, 78497, Note_on_c, 0, 87, 0
2, 78507, Note_on_c, 0, 87, 77
2, 78541, Note_on_c, 0, 82, 97
2, 78574, Note_on_c, 0, 86, 0
2, 78585, Note_on_c, 0, 86, 82
2, 78658, Note_on_c, 0, 87, 0
2, 78664, Note_on_c, 0, 87, 75
2, 78698, Note_on_c, 0, 84, 100
2, 78720, Note_on_c, 0, 60, 0
2, 78720, Note_on_c, 0, 62, 0
2, 78720, Note_on_c, 0, 66, 0
2, 78727, Note_on_c, 0, 86, 0
2, 78739, Note_on_c, 0, 86, 76
2, 78804, Note_on_c, 0, 87, 0
2, 78812, Note_on_c, 0, 87, 81
2, 78881, Note_on_c, 0, 86, 0
2, 78886, Note_on_c, 0, 86, 79
2, 78950, Note_on_c, 0, 87, 0
2, 78961, Note_on_c, 0, 87, 73
2, 79011, Note_on_c, 0, 86, 0
2, 79023, Note_on_c, 0, 86, 75
2, 79073, Note_on_c, 0, 87, 0
2, 79084, Note_on_c, 0, 87, 78
2, 79157, Note_on_c, 0, 86, 0
2, 79167, Note_on_c, 0, 86, 71
2, 79219, Note_on_c, 0, 87, 0
2, 79227, Note_on_c, 0, 87, 68
2, 79280, Note_on_c, 0, 86, 0
2, 79290, Note_on_c, 0, 86, 75
2, 79357, Note_on_c, 0, 87, 0
2, 79368, Note_on_c, 0, 87, 70
2, 79426, Note_on_c, 0, 86, 0
2, 79437, Note_on_c, 0, 86, 72
2, 79495, Note_on_c, 0, 87, 0
2, 79500, Note_on_c, 0, 87, 75
2, 79503, Note_on_c, 0, 82, 0
2, 79507, Note_on_c, 0, 82, 93
2, 79564, Note_on_c, 0, 86, 0
2, 79569, Note_on_c, 0, 86, 78
2, 79626, Note_on_c, 0, 87, 0
2, 79632, Note_on_c, 0, 87, 78
2, 79695, Note_on_c, 0, 86, 0
2, 79701, Note_on_c, 0, 86, 80
2, 79764, Note_on_c, 0, 87, 0
2, 79773, Note_on_c, 0, 87, 78
2, 79802, Note_on_c, 0, 81, 0
2, 79809, Note_on_c, 0, 81, 92
2, 79841, Note_on_c, 0, 86, 0
2, 79845, Note_on_c, 0, 86, 78
2, 79902, Note_on_c, 0, 87, 0
2, 79908, Note_on_c, 0, 87, 76
2, 79964, Note_on_c, 0, 86, 0
2, 79971, Note_on_c, 0, 86, 82
2, 79994, Note_on_c, 0, 84, 0
2, 80000, Note_on_c, 0, 84, 41
2, 80033, Note_on_c, 0, 87, 0
2, 80044, Note_on_c, 0, 87, 72
2, 80064, Note_on_c, 0, 79, 0
2, 80069, Note_on_c, 0, 79, 95
2, 80110, Note_on_c, 0, 86, 0
2, 80114, Note_on_c, 0, 86, 85
2, 80179, Note_on_c, 0, 87, 0
2, 80183, Note_on_c, 0, 87, 82
2, 80248, Note_on_c, 0, 86, 0
2, 80259, Note_on_c, 0, 86, 77
2, 80294, Note_on_c, 0, 79, 0
2, 80298, Note_on_c, 0, 79, 100
2, 80325, Note_on_c, 0, 87, 0
2, 80336, Note_on_c, 0, 87, 78
2, 80386, Note_on_c, 0, 86, 0
2, 80393, Note_on_c, 0, 86, 84
2, 80455, Note_on_c, 0, 87, 0
2, 80466, Note_on_c, 0, 87, 73
2, 80501, Note_on_c, 0, 86, 0
2, 80507, Note_on_c, 0, 86, 84
2, 80570, Note_on_c, 0, 87, 0
2, 80579, Note_on_c, 0, 87, 79
2, 80622, Note_on_c, 0, 77, 92
2, 80632, Note_on_c, 0, 86, 0
2, 80637, Note_on_c, 0, 86, 78
2, 80709, Note_on_c, 0, 87, 0
2, 80713, Note_on_c, 0, 87, 77
2, 80747, Note_on_c, 0, 86, 0
2, 80756, Note_on_c, 0, 86, 83
2, 80824, Note_on_c, 0, 87, 0
2, 80829, Note_on_c, 0, 87, 84
2, 80878, Note_on_c, 0, 86, 0
2, 80888, Note_on_c, 0, 86, 73
2, 80901, Note_on_c, 0, 75, 0
2, 80911, Note_on_c, 0, 75, 87
2, 80962, Note_on_c, 0, 87, 0
2, 80967, Note_on_c, 0, 87, 69
2, 81008, Note_on_c, 0, 86, 0
2, 81018, Note_on_c, 0, 86, 75
2, 81070, Note_on_c, 0, 87, 0
2, 81076, Note_on_c, 0, 87, 81
2, 81131, Note_on_c, 0, 86, 0
2, 81136, Note_on_c, 0, 86, 76
2, 81169, Note_on_c, 0, 63, 0
2, 81200, Note_on_c, 0, 87, 0
2, 81209, Note_on_c, 0, 87, 73
2, 81246, Note_on_c, 0, 86, 0
2, 81253, Note_on_c, 0, 86, 73
2, 81262, Note_on_c, 0, 74, 0
2, 81269, Note_on_c, 0, 74, 86
2, 81323, Note_on_c, 0, 87, 0
2, 81328, Note_on_c, 0, 87, 75
2, 81369, Note_on_c, 0, 86, 0
2, 81373, Note_on_c, 0, 86, 83
2, 81446, Note_on_c, 0, 87, 0
2, 81451, Note_on_c, 0, 87, 75
2, 81484, Note_on_c, 0, 86, 0
2, 81496, Note_on_c, 0, 86, 77
2, 81553, Note_on_c, 0, 87, 0
2, 81559, Note_on_c, 0, 87, 79
2, 81623, Note_on_c, 0, 86, 0
2, 81627, Note_on_c, 0, 86, 76
2, 81761, Note_on_c, 0, 39, 61
2, 81761, Note_on_c, 0, 84, 0
2, 81763, Note_on_c, 0, 27, 65
2, 81772, Note_on_c, 0, 84, 67
2, 81807, Note_on_c, 0, 67, 0
2, 81811, Note_on_c, 0, 86, 0
2, 81812, Note_on_c, 0, 74, 0
2, 81812, Note_on_c, 0, 81, 0
2, 81812, Note_on_c, 0, 87, 0
2, 81813, Note_on_c, 0, 79, 0
2, 81813, Note_on_c, 0, 82, 0
2, 81813, Note_on_c, 0, 69, 0
2, 81814, Note_on_c, 0, 77, 0
2, 81817, Control_c, 0, 64, 0
2, 81818, Note_on_c, 0, 70, 0
2, 81838, Note_on_c, 0, 72, 0
2, 81838, Note_on_c, 0, 75, 0
2, 81838, Note_on_c, 0, 78, 0
2, 81884, Note_on_c, 0, 84, 0
2, 81911, Note_on_c, 0, 86, 73
2, 81922, Note_on_c, 0, 39, 0
2, 81930, Control_c, 0, 64, 127
2, 82029, Note_on_c, 0, 84, 67
2, 82099, Note_on_c, 0, 86, 0
2, 82106, Note_on_c, 0, 86, 67
2, 82160, Note_on_c, 0, 84, 0
2, 82170, Note_on_c, 0, 84, 64
2, 82252, Note_on_c, 0, 86, 0
2, 82257, Note_on_c, 0, 86, 67
2, 82314, Note_on_c, 0, 84, 0
2, 82321, Note_on_c, 0, 84, 72
2, 82383, Note_on_c, 0, 86, 0
2, 82393, Note_on_c, 0, 86, 70
2, 82452, Note_on_c, 0, 84, 0
2, 82457, Note_on_c, 0, 84, 67
2, 82536, Note_on_c, 0, 86, 0
2, 82541, Note_on_c, 0, 86, 69
2, 82582, Note_on_c, 0, 72, 98
2, 82590, Note_on_c, 0, 84, 0
2, 82594, Note_on_c, 0, 84, 83
2, 82605, Control_c, 0, 64, 0
2, 82621, Control_c, 0, 64, 127
2, 82690, Note_on_c, 0, 86, 0
2, 82700, Note_on_c, 0, 86, 62
2, 82736, Note_on_c, 0, 84, 0
2, 82745, Note_on_c, 0, 84, 68
2, 82821, Note_on_c, 0, 86, 0
2, 82829, Note_on_c, 0, 86, 66
2, 82874, Note_on_c, 0, 84, 0
2, 82883, Note_on_c, 0, 84, 68
2, 82959, Note_on_c, 0, 86, 0
2, 82964, Note_on_c, 0, 86, 69
2, 83013, Note_on_c, 0, 84, 0
2, 83019, Note_on_c, 0, 84, 70
2, 83082, Note_on_c, 0, 86, 0
2, 83091, Note_on_c, 0, 86, 69
2, 83143, Note_on_c, 0, 84, 0
2, 83150, Note_on_c, 0, 84, 70
2, 83212, Note_on_c, 0, 86, 0
2, 83219, Note_on_c, 0, 86, 71
2, 83274, Note_on_c, 0, 84, 0
2, 83278, Note_on_c, 0, 84, 70
2, 83351, Note_on_c, 0, 86, 0
2, 83356, Note_on_c, 0, 86, 64
2, 83404, Note_on_c, 0, 84, 0
2, 83409, Note_on_c, 0, 84, 68
2, 83466, Note_on_c, 0, 86, 0
2, 83477, Note_on_c, 0, 86, 73
2, 83515, Note_on_c, 0, 70, 77
2, 83527, Note_on_c, 0, 84, 0
2, 83527, Note_on_c, 0, 39, 49
2, 83538, Note_on_c, 0, 84, 72
2, 83612, Note_on_c, 0, 86, 0
2, 83616, Note_on_c, 0, 86, 69
2, 83681, Note_on_c, 0, 84, 0
2, 83688, Note_on_c, 0, 84, 69
2, 83758, Note_on_c, 0, 86, 0
2, 83766, Note_on_c, 0, 86, 66
2, 83774, Note_on_c, 0, 69, 80
2, 83819, Note_on_c, 0, 84, 0
2, 83830, Note_on_c, 0, 84, 69
2, 83888, Note_on_c, 0, 86, 0
2, 83893, Note_on_c, 0, 86, 76
2, 83930, Note_on_c, 0, 67, 73
2, 83965, Note_on_c, 0, 84, 0
2, 83974, Note_on_c, 0, 84, 73
2, 84046, Note_on_c, 0, 65, 70
2, 84049, Note_on_c, 0, 86, 0
2, 84057, Note_on_c, 0, 86, 71
2, 84126, Note_on_c, 0, 84, 0
2, 84131, Note_on_c, 0, 84, 67
2, 84180, Note_on_c, 0, 86, 0
2, 84190, Note_on_c, 0, 86, 77
2, 84190, Note_on_c, 0, 63, 81
2, 84264, Note_on_c, 0, 84, 0
2, 84276, Note_on_c, 0, 84, 66
2, 84295, Note_on_c, 0, 65, 0
2, 84307, Note_on_c, 0, 65, 67
2, 84349, Note_on_c, 0, 86, 0
2, 84353, Note_on_c, 0, 86, 73
2, 84410, Note_on_c, 0, 67, 0
2, 84410, Note_on_c, 0, 84, 0
2, 84418, Note_on_c, 0, 84, 72
2, 84419, Note_on_c, 0, 67, 72
2, 84464, Note_on_c, 0, 86, 0
2, 84470, Note_on_c, 0, 86, 80
2, 84495, Note_on_c, 0, 69, 0
2, 84503, Note_on_c, 0, 69, 70
2, 84541, Note_on_c, 0, 84, 0
2, 84551, Note_on_c, 0, 84, 76
2, 84579, Note_on_c, 0, 70, 0
2, 84589, Note_on_c, 0, 70, 75
2, 84618, Note_on_c, 0, 86, 0
2, 84623, Note_on_c, 0, 86, 66
2, 84656, Note_on_c, 0, 72, 0
2, 84667, Note_on_c, 0, 72, 85
2, 84679, Note_on_c, 0, 84, 0
2, 84683, Note_on_c, 0, 84, 77
2, 84733, Note_on_c, 0, 86, 0
2, 84736, Note_on_c, 0, 74, 84
2, 84737, Note_on_c, 0, 86, 76
2, 84794, Note_on_c, 0, 84, 0
2, 84798, Note_on_c, 0, 75, 89
2, 84805, Note_on_c, 0, 84, 74
2, 84871, Note_on_c, 0, 86, 0
2, 84877, Note_on_c, 0, 86, 76
2, 84881, Note_on_c, 0, 77, 83
2, 84933, Note_on_c, 0, 84, 0
2, 84940, Note_on_c, 0, 84, 76
2, 84974, Note_on_c, 0, 79, 92
2, 85002, Note_on_c, 0, 86, 0
2, 85012, Note_on_c, 0, 86, 72
2, 85056, Note_on_c, 0, 77, 0
2, 85060, Note_on_c, 0, 77, 85
2, 85063, Note_on_c, 0, 84, 0
2, 85074, Note_on_c, 0, 84, 81
2, 85132, Note_on_c, 0, 75, 0
2, 85144, Note_on_c, 0, 75, 90
2, 85194, Note_on_c, 0, 84, 0
2, 85198, Note_on_c, 0, 84, 80
2, 85209, Note_on_c, 0, 74, 0
2, 85216, Note_on_c, 0, 74, 85
2, 85255, Note_on_c, 0, 86, 0
2, 85264, Note_on_c, 0, 86, 78
2, 85294, Note_on_c, 0, 72, 0
2, 85303, Note_on_c, 0, 72, 83
2, 85317, Note_on_c, 0, 84, 0
2, 85328, Note_on_c, 0, 84, 80
2, 85363, Note_on_c, 0, 70, 0
2, 85372, Note_on_c, 0, 70, 87
2, 85378, Note_on_c, 0, 86, 0
2, 85388, Note_on_c, 0, 86, 78
2, 85455, Note_on_c, 0, 84, 0
2, 85464, Note_on_c, 0, 84, 71
2, 85478, Note_on_c, 0, 69, 0
2, 85489, Note_on_c, 0, 69, 77
2, 85524, Note_on_c, 0, 86, 0
2, 85535, Note_on_c, 0, 86, 66
2, 85555, Note_on_c, 0, 67, 0
2, 85559, Note_on_c, 0, 67, 80
2, 85578, Note_on_c, 0, 84, 0
2, 85582, Note_on_c, 0, 84, 80
2, 85632, Note_on_c, 0, 86, 0
2, 85642, Note_on_c, 0, 86, 81
2, 85655, Note_on_c, 0, 70, 0
2, 85665, Note_on_c, 0, 70, 85
2, 85716, Note_on_c, 0, 84, 0
2, 85725, Note_on_c, 0, 84, 79
2, 85747, Note_on_c, 0, 72, 0
2, 85751, Note_on_c, 0, 72, 79
2, 85785, Note_on_c, 0, 74, 0
2, 85793, Note_on_c, 0, 74, 79
2, 85824, Note_on_c, 0, 84, 0
2, 85828, Note_on_c, 0, 84, 78
2, 85847, Note_on_c, 0, 75, 0
2, 85855, Note_on_c, 0, 75, 92
2, 85893, Note_on_c, 0, 86, 0
2, 85897, Note_on_c, 0, 86, 76
2, 85927, Note_on_c, 0, 78, 74
2, 85946, Note_on_c, 0, 84, 0
2, 85954, Note_on_c, 0, 84, 81
2, 85985, Note_on_c, 0, 79, 0
2, 85993, Note_on_c, 0, 79, 71
2, 86021, Note_on_c, 0, 81, 89
2, 86069, Note_on_c, 0, 84, 0
2, 86076, Note_on_c, 0, 84, 80
2, 86097, Note_on_c, 0, 82, 91
2, 86131, Note_on_c, 0, 86, 0
2, 86141, Note_on_c, 0, 86, 74
2, 86161, Note_on_c, 0, 81, 0
2, 86172, Note_on_c, 0, 81, 82
2, 86184, Note_on_c, 0, 84, 0
2, 86188, Note_on_c, 0, 84, 83
2, 86238, Note_on_c, 0, 79, 0
2, 86243, Note_on_c, 0, 79, 94
2, 86269, Note_on_c, 0, 86, 0
2, 86273, Note_on_c, 0, 86, 63
2, 86323, Note_on_c, 0, 77, 0
2, 86323, Note_on_c, 0, 84, 0
2, 86333, Note_on_c, 0, 77, 93
2, 86333, Note_on_c, 0, 84, 81
2, 86369, Note_on_c, 0, 27, 0
2, 86384, Note_on_c, 0, 86, 0
2, 86388, Note_on_c, 0, 86, 66
2, 86400, Note_on_c, 0, 39, 0
2, 86400, Note_on_c, 0, 63, 0
2, 86400, Note_on_c, 0, 65, 0
2, 86423, Note_on_c, 0, 79, 0
2, 86434, Note_on_c, 0, 79, 97
2, 86499, Note_on_c, 0, 86, 0
2, 86511, Note_on_c, 0, 86, 65
2, 86530, Note_on_c, 0, 77, 0
2, 86541, Note_on_c, 0, 77, 86
2, 86584, Note_on_c, 0, 84, 0
2, 86593, Note_on_c, 0, 84, 69
2, 86645, Note_on_c, 0, 75, 0
2, 86656, Note_on_c, 0, 75, 87
2, 86722, Note_on_c, 0, 84, 0
2, 86733, Note_on_c, 0, 84, 65
2, 86784, Note_on_c, 0, 74, 0
2, 86787, Note_on_c, 0, 74, 83
2, 86876, Note_on_c, 0, 84, 0
2, 86880, Note_on_c, 0, 84, 67
2, 86945, Note_on_c, 0, 75, 0
2, 86956, Note_on_c, 0, 75, 99
2, 87014, Note_on_c, 0, 84, 0
2, 87023, Note_on_c, 0, 84, 71
2, 87106, Note_on_c, 0, 86, 0
2, 87114, Note_on_c, 0, 86, 59
2, 87160, Note_on_c, 0, 84, 0
2, 87171, Note_on_c, 0, 84, 73
2, 87221, Note_on_c, 0, 86, 0
2, 87228, Note_on_c, 0, 86, 70
2, 87229, Note_on_c, 0, 74, 0
2, 87239, Note_on_c, 0, 74, 86
2, 87298, Note_on_c, 0, 84, 0
2, 87306, Note_on_c, 0, 84, 68
2, 87375, Note_on_c, 0, 86, 0
2, 87382, Note_on_c, 0, 86, 63
2, 87436, Note_on_c, 0, 84, 0
2, 87445, Note_on_c, 0, 84, 72
2, 87482, Note_on_c, 0, 72, 0
2, 87487, Note_on_c, 0, 72, 86
2, 87513, Note_on_c, 0, 86, 0
2, 87519, Note_on_c, 0, 86, 67
2, 87575, Note_on_c, 0, 84, 0
2, 87579, Note_on_c, 0, 84, 67
2, 87659, Note_on_c, 0, 86, 0
2, 87666, Note_on_c, 0, 86, 52
2, 87705, Note_on_c, 0, 84, 0
2, 87710, Note_on_c, 0, 84, 71
2, 87790, Note_on_c, 0, 74, 0
2, 87799, Note_on_c, 0, 74, 85
2, 87859, Note_on_c, 0, 84, 0
2, 87864, Note_on_c, 0, 84, 72
2, 87936, Note_on_c, 0, 86, 0
2, 87942, Note_on_c, 0, 86, 64
2, 87989, Note_on_c, 0, 84, 0
2, 87997, Note_on_c, 0, 84, 64
2, 88066, Note_on_c, 0, 86, 0
2, 88077, Note_on_c, 0, 86, 65
2, 88104, Note_on_c, 0, 72, 0
2, 88113, Note_on_c, 0, 72, 84
2, 88143, Note_on_c, 0, 84, 0
2, 88148, Note_on_c, 0, 84, 62
2, 88235, Note_on_c, 0, 86, 0
2, 88240, Note_on_c, 0, 86, 51
2, 88273, Note_on_c, 0, 84, 0
2, 88279, Note_on_c, 0, 84, 72
2, 88419, Note_on_c, 0, 84, 0
2, 88426, Note_on_c, 0, 84, 68
2, 88496, Note_on_c, 0, 70, 0
2, 88502, Note_on_c, 0, 70, 73
2, 88550, Note_on_c, 0, 84, 0
2, 88559, Note_on_c, 0, 84, 66
2, 88650, Note_on_c, 0, 86, 0
2, 88656, Note_on_c, 0, 86, 50
2, 88704, Note_on_c, 0, 84, 0
2, 88714, Note_on_c, 0, 84, 61
2, 88911, Note_on_c, 0, 82, 0
2, 88916, Note_on_c, 0, 82, 70
2, 88922, Note_on_c, 0, 29, 57
2, 88922, Note_on_c, 0, 41, 54
2, 88952, Note_on_c, 0, 74, 0
2, 88952, Control_c, 0, 64, 0
2, 88953, Note_on_c, 0, 86, 0
2, 88953, Note_on_c, 0, 69, 0
2, 88953, Note_on_c, 0, 75, 0
2, 88953, Note_on_c, 0, 72, 0
2, 88953, Note_on_c, 0, 70, 0
2, 88954, Note_on_c, 0, 67, 0
2, 88965, Note_on_c, 0, 79, 0
2, 88965, Note_on_c, 0, 81, 0
2, 88972, Note_on_c, 0, 78, 0
2, 88980, Note_on_c, 0, 84, 0
2, 89018, Note_on_c, 0, 77, 0
2, 89049, Control_c, 0, 64, 127
2, 89084, Note_on_c, 0, 84, 61
2, 89187, Note_on_c, 0, 82, 0
2, 89198, Note_on_c, 0, 82, 62
2, 89256, Note_on_c, 0, 84, 0
2, 89264, Note_on_c, 0, 84, 60
2, 89310, Note_on_c, 0, 82, 0
2, 89319, Note_on_c, 0, 82, 65
2, 89402, Note_on_c, 0, 84, 0
2, 89411, Note_on_c, 0, 84, 63
2, 89464, Note_on_c, 0, 82, 0
2, 89471, Note_on_c, 0, 82, 68
2, 89541, Note_on_c, 0, 84, 0
2, 89546, Note_on_c, 0, 84, 58
2, 89587, Note_on_c, 0, 82, 0
2, 89595, Note_on_c, 0, 82, 65
2, 89648, Note_on_c, 0, 84, 0
2, 89655, Note_on_c, 0, 84, 60
2, 89694, Note_on_c, 0, 82, 0
2, 89701, Note_on_c, 0, 82, 70
2, 89705, Note_on_c, 0, 69, 80
2, 89802, Note_on_c, 0, 82, 0
2, 89806, Note_on_c, 0, 82, 73
2, 89879, Note_on_c, 0, 84, 0
2, 89890, Note_on_c, 0, 84, 55
2, 89925, Note_on_c, 0, 82, 0
2, 89929, Note_on_c, 0, 82, 70
2, 90001, Note_on_c, 0, 84, 0
2, 90007, Note_on_c, 0, 84, 60
2, 90032, Note_on_c, 0, 82, 0
2, 90040, Note_on_c, 0, 82, 74
2, 90109, Note_on_c, 0, 84, 0
2, 90119, Note_on_c, 0, 84, 65
2, 90155, Note_on_c, 0, 82, 0
2, 90165, Note_on_c, 0, 82, 74
2, 90232, Note_on_c, 0, 84, 0
2, 90241, Note_on_c, 0, 84, 61
2, 90270, Note_on_c, 0, 82, 0
2, 90274, Note_on_c, 0, 82, 73
2, 90339, Note_on_c, 0, 84, 0
2, 90348, Note_on_c, 0, 84, 61
2, 90393, Note_on_c, 0, 82, 0
2, 90401, Note_on_c, 0, 72, 79
2, 90403, Note_on_c, 0, 82, 71
2, 90462, Note_on_c, 0, 84, 0
2, 90472, Note_on_c, 0, 84, 61
2, 90508, Note_on_c, 0, 82, 0
2, 90514, Note_on_c, 0, 82, 71
2, 90593, Note_on_c, 0, 84, 0
2, 90598, Note_on_c, 0, 84, 61
2, 90639, Note_on_c, 0, 82, 0
2, 90650, Note_on_c, 0, 82, 69
2, 90708, Note_on_c, 0, 84, 0
2, 90713, Note_on_c, 0, 84, 62
2, 90754, Note_on_c, 0, 82, 0
2, 90758, Note_on_c, 0, 82, 73
2, 90759, Note_on_c, 0, 70, 78
2, 90885, Note_on_c, 0, 82, 0
2, 90889, Note_on_c, 0, 82, 66
2, 90954, Note_on_c, 0, 84, 0
2, 90965, Note_on_c, 0, 84, 51
2, 90992, Note_on_c, 0, 82, 0
2, 90996, Note_on_c, 0, 82, 70
2, 91092, Note_on_c, 0, 84, 0
2, 91096, Note_on_c, 0, 84, 58
2, 91100, Note_on_c, 0, 69, 0
2, 91110, Note_on_c, 0, 69, 78
2, 91123, Note_on_c, 0, 82, 0
2, 91123, Control_c, 0, 64, 0
2, 91130, Note_on_c, 0, 82, 66
2, 91146, Control_c, 0, 64, 127
2, 91200, Note_on_c, 0, 84, 0
2, 91211, Note_on_c, 0, 84, 58
2, 91238, Note_on_c, 0, 82, 0
2, 91244, Note_on_c, 0, 82, 76
2, 91315, Note_on_c, 0, 84, 0
2, 91320, Note_on_c, 0, 84, 63
2, 91368, Note_on_c, 0, 82, 0
2, 91377, Note_on_c, 0, 82, 72
2, 91438, Note_on_c, 0, 84, 0
2, 91443, Note_on_c, 0, 84, 60
2, 91484, Note_on_c, 0, 82, 0
2, 91492, Note_on_c, 0, 82, 68
2, 91560, Note_on_c, 0, 84, 0
2, 91569, Note_on_c, 0, 84, 58
2, 91599, Note_on_c, 0, 82, 0
2, 91604, Note_on_c, 0, 82, 72
2, 91653, Note_on_c, 0, 84, 0
2, 91663, Note_on_c, 0, 84, 58
2, 91722, Note_on_c, 0, 82, 0
2, 91727, Note_on_c, 0, 82, 71
2, 91848, Note_on_c, 0, 81, 60
2, 91851, Note_on_c, 0, 31, 57
2, 91852, Note_on_c, 0, 43, 53
2, 91879, Control_c, 0, 64, 0
2, 91879, Note_on_c, 0, 41, 0
2, 91881, Note_on_c, 0, 82, 0
2, 91881, Note_on_c, 0, 84, 0
2, 91882, Note_on_c, 0, 69, 0
2, 91884, Note_on_c, 0, 70, 0
2, 91906, Note_on_c, 0, 29, 0
2, 91906, Note_on_c, 0, 72, 0
2, 91929, Note_on_c, 0, 81, 0
2, 91968, Control_c, 0, 64, 127
2, 91980, Note_on_c, 0, 82, 58
2, 92082, Note_on_c, 0, 81, 62
2, 92160, Note_on_c, 0, 82, 0
2, 92169, Note_on_c, 0, 82, 53
2, 92206, Note_on_c, 0, 81, 0
2, 92211, Note_on_c, 0, 81, 58
2, 92282, Note_on_c, 0, 82, 0
2, 92287, Note_on_c, 0, 82, 66
2, 92352, Note_on_c, 0, 81, 0
2, 92360, Note_on_c, 0, 81, 62
2, 92421, Note_on_c, 0, 82, 0
2, 92427, Note_on_c, 0, 82, 64
2, 92482, Note_on_c, 0, 81, 0
2, 92491, Note_on_c, 0, 81, 59
2, 92567, Note_on_c, 0, 82, 0
2, 92577, Note_on_c, 0, 82, 53
2, 92620, Note_on_c, 0, 81, 0
2, 92631, Note_on_c, 0, 81, 67
2, 92663, Note_on_c, 0, 69, 78
2, 92705, Note_on_c, 0, 82, 0
2, 92709, Note_on_c, 0, 82, 62
2, 92805, Note_on_c, 0, 81, 0
2, 92809, Note_on_c, 0, 81, 42
2, 92866, Note_on_c, 0, 82, 0
2, 92876, Note_on_c, 0, 82, 60
2, 92928, Note_on_c, 0, 81, 0
2, 92938, Note_on_c, 0, 81, 57
2, 92981, Note_on_c, 0, 82, 0
2, 92991, Note_on_c, 0, 82, 70
2, 93073, Note_on_c, 0, 81, 0
2, 93080, Note_on_c, 0, 81, 54
2, 93150, Note_on_c, 0, 82, 0
2, 93157, Note_on_c, 0, 82, 48
2, 93189, Note_on_c, 0, 81, 0
2, 93195, Note_on_c, 0, 81, 70
2, 93281, Note_on_c, 0, 82, 0
2, 93285, Note_on_c, 0, 82, 61
2, 93312, Note_on_c, 0, 81, 0
2, 93316, Note_on_c, 0, 81, 69
2, 93396, Note_on_c, 0, 82, 0
2, 93406, Note_on_c, 0, 82, 62
2, 93457, Note_on_c, 0, 81, 0
2, 93467, Note_on_c, 0, 81, 54
2, 93483, Note_on_c, 0, 72, 77
2, 93527, Note_on_c, 0, 82, 0
2, 93531, Note_on_c, 0, 82, 60
2, 93603, Note_on_c, 0, 81, 0
2, 93609, Note_on_c, 0, 81, 60
2, 93657, Note_on_c, 0, 82, 0
2, 93668, Note_on_c, 0, 82, 66
2, 93734, Note_on_c, 0, 81, 0
2, 93740, Note_on_c, 0, 81, 57
2, 93803, Note_on_c, 0, 82, 0
2, 93807, Note_on_c, 0, 82, 64
2, 93872, Note_on_c, 0, 81, 0
2, 93879, Note_on_c, 0, 81, 61
2, 93926, Note_on_c, 0, 82, 0
2, 93931, Note_on_c, 0, 70, 73
2, 93935, Note_on_c, 0, 82, 67
2, 94010, Note_on_c, 0, 81, 0
2, 94015, Note_on_c, 0, 81, 60
2, 94072, Note_on_c, 0, 82, 0
2, 94080, Note_on_c, 0, 43, 0
2, 94081, Note_on_c, 0, 82, 61
2, 94087, Note_on_c, 0, 31, 0
2, 94141, Note_on_c, 0, 81, 0
2, 94152, Note_on_c, 0, 81, 61
2, 94210, Note_on_c, 0, 82, 0
2, 94216, Note_on_c, 0, 82, 61
2, 94287, Note_on_c, 0, 81, 0
2, 94292, Note_on_c, 0, 81, 49
2, 94341, Note_on_c, 0, 69, 0
2, 94341, Note_on_c, 0, 82, 0
2, 94345, Note_on_c, 0, 69, 62
2, 94346, Note_on_c, 0, 82, 63
2, 94433, Note_on_c, 0, 81, 0
2, 94438, Note_on_c, 0, 81, 54
2, 94494, Note_on_c, 0, 82, 0
2, 94504, Note_on_c, 0, 82, 59
2, 94579, Note_on_c, 0, 81, 0
2, 94590, Note_on_c, 0, 81, 51
2, 94671, Note_on_c, 0, 82, 0
2, 94682, Note_on_c, 0, 82, 37
2, 94732, Note_on_c, 0, 81, 0
2, 94741, Note_on_c, 0, 81, 49
2, 94817, Note_on_c, 0, 82, 0
2, 94822, Note_on_c, 0, 82, 64
2, 94901, Note_on_c, 0, 81, 0
2, 94906, Note_on_c, 0, 81, 54
2, 94993, Note_on_c, 0, 82, 0
2, 95004, Note_on_c, 0, 82, 58
2, 95101, Note_on_c, 0, 81, 0
2, 95110, Note_on_c, 0, 81, 54
2, 95285, Note_on_c, 0, 55, 54
2, 95383, Note_on_c, 0, 62, 60
2, 95454, Note_on_c, 0, 72, 0
2, 95459, Note_on_c, 0, 72, 61
2, 95465, Note_on_c, 0, 74, 40
2, 95483, Note_on_c, 0, 70, 0
2, 95483, Note_on_c, 0, 67, 60
2, 95484, Control_c, 0, 64, 0
2, 95516, Note_on_c, 0, 82, 0
2, 95546, Note_on_c, 0, 79, 73
2, 95562, Control_c, 0, 64, 127
2, 95623, Note_on_c, 0, 74, 0
2, 95662, Note_on_c, 0, 69, 0
2, 95769, Note_on_c, 0, 81, 0
2, 95777, Note_on_c, 0, 81, 66
2, 95780, Note_on_c, 0, 74, 56
2, 95930, Note_on_c, 0, 72, 0
2, 95930, Note_on_c, 0, 79, 0
2, 95935, Note_on_c, 0, 79, 59
2, 95939, Note_on_c, 0, 72, 51
2, 96023, Note_on_c, 0, 74, 0
2, 96023, Note_on_c, 0, 81, 0
2, 96028, Note_on_c, 0, 81, 53
2, 96033, Note_on_c, 0, 74, 48
2, 96099, Note_on_c, 0, 72, 0
2, 96099, Note_on_c, 0, 79, 0
2, 96108, Note_on_c, 0, 72, 53
2, 96110, Note_on_c, 0, 79, 61
2, 96168, Note_on_c, 0, 74, 0
2, 96177, Note_on_c, 0, 74, 55
2, 96199, Note_on_c, 0, 81, 0
2, 96204, Note_on_c, 0, 81, 38
2, 96245, Note_on_c, 0, 79, 0
2, 96253, Note_on_c, 0, 72, 0
2, 96256, Note_on_c, 0, 79, 66
2, 96257, Note_on_c, 0, 72, 46
2, 96322, Note_on_c, 0, 74, 0
2, 96322, Note_on_c, 0, 81, 0
2, 96327, Note_on_c, 0, 81, 60
2, 96327, Note_on_c, 0, 74, 52
2, 96376, Note_on_c, 0, 72, 0
2, 96384, Note_on_c, 0, 79, 0
2, 96387, Note_on_c, 0, 72, 62
2, 96389, Note_on_c, 0, 79, 64
2, 96445, Note_on_c, 0, 74, 0
2, 96445, Note_on_c, 0, 81, 0
2, 96449, Note_on_c, 0, 74, 58
2, 96454, Note_on_c, 0, 81, 59
2, 96506, Note_on_c, 0, 72, 0
2, 96511, Note_on_c, 0, 72, 62
2, 96514, Note_on_c, 0, 79, 0
2, 96520, Note_on_c, 0, 79, 65
2, 96568, Note_on_c, 0, 74, 0
2, 96576, Note_on_c, 0, 81, 0
2, 96578, Note_on_c, 0, 74, 52
2, 96582, Note_on_c, 0, 81, 45
2, 96614, Note_on_c, 0, 72, 0
2, 96619, Note_on_c, 0, 72, 66
2, 96645, Note_on_c, 0, 79, 0
2, 96649, Note_on_c, 0, 79, 65
2, 96698, Note_on_c, 0, 74, 0
2, 96703, Note_on_c, 0, 74, 52
2, 96706, Note_on_c, 0, 81, 0
2, 96712, Note_on_c, 0, 81, 63
2, 96737, Note_on_c, 0, 72, 0
2, 96741, Note_on_c, 0, 72, 63
2, 96760, Note_on_c, 0, 79, 0
2, 96765, Note_on_c, 0, 79, 71
2, 96814, Note_on_c, 0, 74, 0
2, 96814, Note_on_c, 0, 81, 0
2, 96819, Note_on_c, 0, 74, 59
2, 96824, Note_on_c, 0, 81, 60
2, 96844, Note_on_c, 0, 72, 0
2, 96855, Note_on_c, 0, 72, 66
2, 96875, Note_on_c, 0, 79, 0
2, 96883, Note_on_c, 0, 79, 74
2, 96921, Note_on_c, 0, 74, 0
2, 96926, Note_on_c, 0, 74, 55
2, 96929, Note_on_c, 0, 81, 0
2, 96940, Note_on_c, 0, 81, 62
2, 96983, Note_on_c, 0, 72, 0
2, 96983, Note_on_c, 0, 79, 0
2, 96987, Note_on_c, 0, 72, 61
2, 96991, Note_on_c, 0, 79, 70
2, 97036, Note_on_c, 0, 74, 0
2, 97043, Note_on_c, 0, 74, 53
2, 97082, Note_on_c, 0, 72, 0
2, 97087, Note_on_c, 0, 72, 68
2, 97090, Note_on_c, 0, 79, 0
2, 97097, Note_on_c, 0, 79, 66
2, 97152, Note_on_c, 0, 74, 0
2, 97156, Note_on_c, 0, 74, 53
2, 97198, Note_on_c, 0, 79, 0
2, 97205, Note_on_c, 0, 72, 0
2, 97209, Note_on_c, 0, 79, 69
2, 97210, Note_on_c, 0, 72, 59
2, 97267, Note_on_c, 0, 74, 0
2, 97277, Note_on_c, 0, 74, 58
2, 97313, Note_on_c, 0, 72, 0
2, 97313, Note_on_c, 0, 79, 0
2, 97317, Note_on_c, 0, 79, 69
2, 97318, Note_on_c, 0, 72, 71
2, 97390, Note_on_c, 0, 74, 0
2, 97396, Note_on_c, 0, 74, 54
2, 97428, Note_on_c, 0, 79, 0
2, 97434, Note_on_c, 0, 79, 66
2, 97443, Note_on_c, 0, 72, 0
2, 97450, Note_on_c, 0, 72, 56
2, 97528, Note_on_c, 0, 74, 0
2, 97536, Note_on_c, 0, 74, 49
2, 97543, Note_on_c, 0, 79, 0
2, 97554, Note_on_c, 0, 79, 66
2, 97589, Note_on_c, 0, 72, 0
2, 97593, Note_on_c, 0, 72, 56
2, 97658, Note_on_c, 0, 74, 0
2, 97665, Note_on_c, 0, 74, 47
2, 97689, Note_on_c, 0, 79, 0
2, 97699, Note_on_c, 0, 79, 58
2, 97720, Note_on_c, 0, 72, 0
2, 97731, Note_on_c, 0, 72, 51
2, 97789, Note_on_c, 0, 81, 0
2, 97797, Note_on_c, 0, 74, 0
2, 97800, Note_on_c, 0, 81, 41
2, 97808, Note_on_c, 0, 74, 47
2, 97843, Note_on_c, 0, 79, 0
2, 97854, Note_on_c, 0, 79, 61
2, 97873, Note_on_c, 0, 72, 0
2, 97880, Note_on_c, 0, 72, 46
2, 97920, Note_on_c, 0, 55, 0
2, 97920, Note_on_c, 0, 62, 0
2, 97920, Note_on_c, 0, 67, 0
2, 97927, Note_on_c, 0, 81, 0
2, 97937, Note_on_c, 0, 81, 58
2, 97950, Note_on_c, 0, 74, 0
2, 97955, Note_on_c, 0, 74, 48
2, 98019, Note_on_c, 0, 79, 0
2, 98026, Note_on_c, 0, 79, 59
2, 98042, Note_on_c, 0, 72, 0
2, 98046, Note_on_c, 0, 72, 45
2, 98112, Note_on_c, 0, 81, 0
2, 98123, Note_on_c, 0, 81, 58
2, 98142, Note_on_c, 0, 74, 0
2, 98149, Note_on_c, 0, 74, 44
2, 98257, Note_on_c, 0, 72, 0
2, 98264, Note_on_c, 0, 72, 48
2, 98273, Note_on_c, 0, 79, 0
2, 98284, Note_on_c, 0, 79, 60
2, 98380, Note_on_c, 0, 74, 0
2, 98386, Note_on_c, 0, 74, 41
2, 98388, Note_on_c, 0, 81, 0
2, 98393, Note_on_c, 0, 81, 40
2, 98542, Note_on_c, 0, 72, 0
2, 98551, Note_on_c, 0, 72, 43
2, 98572, Note_on_c, 0, 79, 0
2, 98583, Note_on_c, 0, 79, 46
2, 98741, Note_on_c, 0, 81, 0
2, 98746, Note_on_c, 0, 81, 35
2, 98749, Note_on_c, 0, 72, 0
2, 98749, Note_on_c, 0, 74, 0
2, 98754, Note_on_c, 0, 74, 37
2, 98758, Note_on_c, 0, 72, 26
2, 99125, Note_on_c, 0, 79, 0
2, 99131, Note_on_c, 0, 79, 56
2, 99148, Note_on_c, 0, 74, 0
2, 99154, Note_on_c, 0, 74, 53
2, 99159, Note_on_c, 0, 67, 31
2, 100177, Control_c, 0, 64, 0
2, 101245, Control_c, 0, 64, 127
2, 101598, Note_on_c, 0, 81, 0
2, 101760, Note_on_c, 0, 67, 0
2, 101760, Note_on_c, 0, 72, 0
2, 101760, Note_on_c, 0, 74, 0
2, 101760, Note_on_c, 0, 79, 0
2, 102480, Note_on_c, 0, 77, 67
2, 102748, Note_on_c, 0, 79, 89
2, 103038, Note_on_c, 0, 86, 95
2, 103362, Note_on_c, 0, 87, 95
2, 103603, Note_on_c, 0, 86, 0
2, 103609, Note_on_c, 0, 86, 92
2, 103624, Control_c, 0, 64, 0
2, 103629, Note_on_c, 0, 60, 60
2, 103629, Note_on_c, 0, 75, 69
2, 103631, Note_on_c, 0, 67, 56
2, 103638, Note_on_c, 0, 77, 0
2, 103653, Note_on_c, 0, 79, 0
2, 103718, Control_c, 0, 64, 127
2, 103827, Note_on_c, 0, 74, 54
2, 104017, Note_on_c, 0, 75, 0
2, 104021, Note_on_c, 0, 75, 62
2, 104171, Note_on_c, 0, 82, 84
2, 104171, Note_on_c, 0, 74, 0
2, 104177, Note_on_c, 0, 74, 61
2, 104371, Note_on_c, 0, 75, 0
2, 104380, Note_on_c, 0, 75, 60
2, 104555, Note_on_c, 0, 74, 0
2, 104562, Note_on_c, 0, 74, 42
2, 104739, Note_on_c, 0, 75, 0
2, 104744, Note_on_c, 0, 75, 56
2, 104916, Note_on_c, 0, 74, 0
2, 104926, Note_on_c, 0, 74, 50
2, 105085, Note_on_c, 0, 60, 0
2, 105085, Note_on_c, 0, 67, 0
2, 105085, Note_on_c, 0, 75, 0
2, 105089, Note_on_c, 0, 75, 57
2, 105090, Note_on_c, 0, 60, 54
2, 105095, Note_on_c, 0, 67, 48
2, 105102, Control_c, 0, 64, 0
2, 105105, Note_on_c, 0, 82, 0
2, 105106, Note_on_c, 0, 74, 0
2, 105123, Note_on_c, 0, 87, 0
2, 105131, Note_on_c, 0, 86, 0
2, 105162, Control_c, 0, 64, 127
2, 105266, Note_on_c, 0, 74, 53
2, 105415, Note_on_c, 0, 75, 0
2, 105425, Note_on_c, 0, 75, 67
2, 105615, Note_on_c, 0, 74, 0
2, 105618, Note_on_c, 0, 77, 86
2, 105619, Note_on_c, 0, 74, 77
2, 105784, Note_on_c, 0, 75, 0
2, 105791, Note_on_c, 0, 75, 93
2, 105791, Note_on_c, 0, 79, 96
2, 105809, Control_c, 0, 64, 0
2, 105845, Control_c, 0, 64, 127
2, 105945, Note_on_c, 0, 74, 0
2, 105949, Note_on_c, 0, 74, 76
2, 106054, Note_on_c, 0, 86, 95
2, 106152, Note_on_c, 0, 75, 0
2, 106156, Note_on_c, 0, 75, 81
2, 106300, Note_on_c, 0, 87, 98
2, 106314, Note_on_c, 0, 74, 0
2, 106323, Note_on_c, 0, 74, 73
2, 106498, Note_on_c, 0, 79, 0
2, 106498, Note_on_c, 0, 86, 0
2, 106503, Note_on_c, 0, 74, 0
2, 106503, Note_on_c, 0, 77, 0
2, 106504, Note_on_c, 0, 75, 0
2, 106506, Note_on_c, 0, 86, 97
2, 106510, Note_on_c, 0, 79, 83
2, 106510, Control_c, 0, 64, 0
2, 106516, Note_on_c, 0, 56, 70
2, 106517, Note_on_c, 0, 63, 70
2, 106544, Note_on_c, 0, 60, 0
2, 106575, Control_c, 0, 64, 127
2, 106705, Note_on_c, 0, 67, 0
2, 106710, Note_on_c, 0, 74, 61
2, 106877, Note_on_c, 0, 75, 67
2, 107036, Note_on_c, 0, 74, 0
2, 107037, Note_on_c, 0, 84, 90
2, 107043, Note_on_c, 0, 74, 76
2, 107043, Note_on_c, 0, 87, 0
2, 107212, Note_on_c, 0, 75, 0
2, 107217, Note_on_c, 0, 75, 60
2, 107397, Note_on_c, 0, 74, 0
2, 107406, Note_on_c, 0, 74, 52
2, 107550, Note_on_c, 0, 75, 0
2, 107561, Note_on_c, 0, 75, 57
2, 107758, Note_on_c, 0, 74, 0
2, 107768, Note_on_c, 0, 74, 55
2, 107919, Note_on_c, 0, 56, 0
2, 107919, Note_on_c, 0, 63, 0
2, 107927, Note_on_c, 0, 56, 61
2, 107929, Control_c, 0, 64, 0
2, 107930, Note_on_c, 0, 63, 57
2, 108003, Control_c, 0, 64, 127
2, 108080, Note_on_c, 0, 74, 0
2, 108090, Note_on_c, 0, 74, 54
2, 108264, Note_on_c, 0, 75, 0
2, 108270, Note_on_c, 0, 75, 66
2, 108449, Note_on_c, 0, 74, 0
2, 108449, Note_on_c, 0, 84, 0
2, 108455, Note_on_c, 0, 74, 82
2, 108459, Note_on_c, 0, 84, 81
2, 108602, Note_on_c, 0, 84, 0
2, 108608, Note_on_c, 0, 84, 97
2, 108618, Note_on_c, 0, 75, 0
2, 108621, Control_c, 0, 64, 0
2, 108629, Note_on_c, 0, 75, 90
2, 108637, Note_on_c, 0, 56, 0
2, 108664, Note_on_c, 0, 86, 0
2, 108672, Note_on_c, 0, 79, 0
2, 108687, Control_c, 0, 64, 127
2, 108756, Note_on_c, 0, 74, 0
2, 108766, Note_on_c, 0, 74, 68
2, 108859, Note_on_c, 0, 82, 87
2, 108956, Note_on_c, 0, 75, 0
2, 108967, Note_on_c, 0, 75, 85
2, 109109, Note_on_c, 0, 74, 0
2, 109119, Note_on_c, 0, 74, 84
2, 109127, Note_on_c, 0, 77, 82
2, 109309, Note_on_c, 0, 82, 0
2, 109314, Note_on_c, 0, 82, 94
2, 109317, Note_on_c, 0, 74, 0
2, 109321, Note_on_c, 0, 62, 80
2, 109324, Control_c, 0, 64, 0
2, 109327, Note_on_c, 0, 74, 84
2, 109328, Note_on_c, 0, 63, 0
2, 109328, Note_on_c, 0, 75, 0
2, 109329, Note_on_c, 0, 77, 0
2, 109334, Note_on_c, 0, 55, 70
2, 109347, Note_on_c, 0, 84, 0
2, 109409, Control_c, 0, 64, 127
2, 109506, Note_on_c, 0, 70, 49
2, 109639, Note_on_c, 0, 74, 0
2, 109649, Note_on_c, 0, 74, 59
2, 109848, Note_on_c, 0, 79, 91
2, 109862, Note_on_c, 0, 70, 0
2, 109867, Note_on_c, 0, 70, 62
2, 110023, Note_on_c, 0, 74, 0
2, 110028, Note_on_c, 0, 74, 56
2, 110184, Note_on_c, 0, 70, 0
2, 110190, Note_on_c, 0, 70, 53
2, 110369, Note_on_c, 0, 74, 0
2, 110375, Note_on_c, 0, 74, 61
2, 110538, Note_on_c, 0, 70, 0
2, 110547, Note_on_c, 0, 70, 58
2, 110722, Note_on_c, 0, 74, 0
2, 110730, Note_on_c, 0, 55, 0
2, 110730, Note_on_c, 0, 62, 0
2, 110733, Note_on_c, 0, 74, 64
2, 110735, Note_on_c, 0, 55, 58
2, 110736, Note_on_c, 0, 62, 62
2, 110767, Note_on_c, 0, 79, 0
2, 110777, Control_c, 0, 64, 0
2, 110799, Note_on_c, 0, 82, 0
2, 110814, Control_c, 0, 64, 127
2, 110891, Note_on_c, 0, 70, 0
2, 110902, Note_on_c, 0, 70, 56
2, 111075, Note_on_c, 0, 74, 0
2, 111082, Note_on_c, 0, 74, 64
2, 111244, Note_on_c, 0, 70, 0
2, 111252, Note_on_c, 0, 79, 88
2, 111253, Note_on_c, 0, 70, 84
2, 111413, Note_on_c, 0, 79, 0
2, 111422, Note_on_c, 0, 79, 98
2, 111452, Note_on_c, 0, 74, 0
2, 111456, Note_on_c, 0, 74, 70
2, 111559, Note_on_c, 0, 70, 0
2, 111565, Note_on_c, 0, 70, 79
2, 111689, Note_on_c, 0, 82, 94
2, 111805, Note_on_c, 0, 74, 0
2, 111816, Note_on_c, 0, 74, 68
2, 111936, Note_on_c, 0, 70, 0
2, 111936, Note_on_c, 0, 79, 0
2, 111946, Note_on_c, 0, 79, 85
2, 111946, Note_on_c, 0, 70, 82
2, 112112, Note_on_c, 0, 82, 0
2, 112123, Note_on_c, 0, 82, 88
2, 112127, Note_on_c, 0, 77, 75
2, 112128, Note_on_c, 0, 60, 79
2, 112131, Note_on_c, 0, 53, 71
2, 112131, Note_on_c, 0, 70, 0
2, 112132, Control_c, 0, 64, 0
2, 112133, Note_on_c, 0, 74, 0
2, 112136, Note_on_c, 0, 79, 0
2, 112143, Note_on_c, 0, 55, 0
2, 112151, Note_on_c, 0, 62, 0
2, 112212, Control_c, 0, 64, 127
2, 112294, Note_on_c, 0, 70, 69
2, 112469, Note_on_c, 0, 72, 66
2, 112623, Note_on_c, 0, 84, 95
2, 112650, Note_on_c, 0, 70, 0
2, 112654, Note_on_c, 0, 70, 69
2, 112811, Note_on_c, 0, 72, 0
2, 112820, Note_on_c, 0, 72, 62
2, 112995, Note_on_c, 0, 70, 0
2, 113004, Note_on_c, 0, 70, 64
2, 113180, Note_on_c, 0, 72, 0
2, 113184, Note_on_c, 0, 72, 70
2, 113349, Note_on_c, 0, 70, 0
2, 113360, Note_on_c, 0, 70, 67
2, 113530, Note_on_c, 0, 58, 66
2, 113532, Note_on_c, 0, 74, 76
2, 113537, Note_on_c, 0, 65, 65
2, 113537, Note_on_c, 0, 84, 0
2, 113537, Note_on_c, 0, 72, 0
2, 113538, Note_on_c, 0, 53, 0
2, 113538, Note_on_c, 0, 60, 0
2, 113542, Control_c, 0, 64, 0
2, 113556, Note_on_c, 0, 70, 0
2, 113564, Note_on_c, 0, 77, 0
2, 113564, Note_on_c, 0, 82, 0
2, 113610, Control_c, 0, 64, 127
2, 113714, Note_on_c, 0, 70, 69
2, 113871, Note_on_c, 0, 74, 0
2, 113878, Note_on_c, 0, 74, 77
2, 114055, Note_on_c, 0, 70, 0
2, 114060, Note_on_c, 0, 86, 99
2, 114064, Note_on_c, 0, 70, 84
2, 114216, Note_on_c, 0, 86, 0
2, 114224, Note_on_c, 0, 74, 0
2, 114228, Note_on_c, 0, 86, 101
2, 114230, Note_on_c, 0, 74, 81
2, 114378, Note_on_c, 0, 70, 0
2, 114383, Note_on_c, 0, 70, 71
2, 114489, Note_on_c, 0, 82, 94
2, 114554, Note_on_c, 0, 74, 0
2, 114561, Note_on_c, 0, 74, 75
2, 114719, Note_on_c, 0, 79, 93
2, 114723, Note_on_c, 0, 70, 0
2, 114735, Note_on_c, 0, 70, 80
2, 114864, Note_on_c, 0, 70, 0
2, 114865, Note_on_c, 0, 65, 0
2, 114865, Note_on_c, 0, 58, 0
2, 114865, Note_on_c, 0, 79, 0
2, 114865, Control_c, 0, 64, 0
2, 114885, Note_on_c, 0, 86, 0
2, 114889, Note_on_c, 0, 86, 99
2, 114892, Note_on_c, 0, 74, 0
2, 114892, Note_on_c, 0, 82, 0
2, 114896, Note_on_c, 0, 82, 86
2, 114897, Note_on_c, 0, 74, 91
2, 114897, Note_on_c, 0, 48, 83
2, 114899, Note_on_c, 0, 60, 79
2, 114938, Control_c, 0, 64, 127
2, 115092, Note_on_c, 0, 74, 0
2, 115100, Note_on_c, 0, 67, 56
2, 115102, Note_on_c, 0, 74, 69
2, 115104, Note_on_c, 0, 75, 61
2, 115261, Note_on_c, 0, 75, 0
2, 115265, Note_on_c, 0, 70, 59
2, 115267, Note_on_c, 0, 75, 69
2, 115422, Note_on_c, 0, 82, 0
2, 115430, Note_on_c, 0, 82, 91
2, 115438, Note_on_c, 0, 74, 0
2, 115442, Note_on_c, 0, 63, 68
2, 115444, Note_on_c, 0, 74, 75
2, 115445, Note_on_c, 0, 67, 0
2, 115449, Note_on_c, 0, 67, 52
2, 115607, Note_on_c, 0, 70, 0
2, 115607, Note_on_c, 0, 75, 0
2, 115612, Note_on_c, 0, 75, 65
2, 115617, Note_on_c, 0, 70, 65
2, 115783, Note_on_c, 0, 63, 0
2, 115783, Note_on_c, 0, 67, 0
2, 115783, Note_on_c, 0, 70, 0
2, 115783, Note_on_c, 0, 74, 0
2, 115783, Note_on_c, 0, 75, 0
2, 115789, Note_on_c, 0, 67, 69
2, 115790, Note_on_c, 0, 63, 59
2, 115794, Note_on_c, 0, 70, 57
2, 115794, Note_on_c, 0, 75, 60
2, 115795, Note_on_c, 0, 74, 63
2, 115952, Note_on_c, 0, 70, 0
2, 115963, Note_on_c, 0, 70, 73
2, 115968, Note_on_c, 0, 75, 0
2, 115972, Note_on_c, 0, 75, 70
2, 116121, Note_on_c, 0, 67, 0
2, 116131, Note_on_c, 0, 67, 63
2, 116144, Note_on_c, 0, 63, 0
2, 116144, Note_on_c, 0, 70, 0
2, 116144, Note_on_c, 0, 74, 0
2, 116149, Note_on_c, 0, 63, 67
2, 116152, Note_on_c, 0, 70, 56
2, 116155, Note_on_c, 0, 74, 63
2, 116292, Note_on_c, 0, 70, 0
2, 116293, Note_on_c, 0, 82, 0
2, 116293, Note_on_c, 0, 74, 0
2, 116293, Note_on_c, 0, 63, 0
2, 116293, Note_on_c, 0, 67, 0
2, 116294, Control_c, 0, 64, 0
2, 116295, Note_on_c, 0, 86, 0
2, 116313, Note_on_c, 0, 48, 0
2, 116318, Note_on_c, 0, 48, 77
2, 116321, Note_on_c, 0, 75, 0
2, 116325, Note_on_c, 0, 75, 74
2, 116328, Note_on_c, 0, 72, 66
2, 116359, Control_c, 0, 64, 127
2, 116390, Note_on_c, 0, 60, 0
2, 116421, Note_on_c, 0, 48, 0
2, 116501, Note_on_c, 0, 67, 57
2, 116501, Note_on_c, 0, 63, 64
2, 116506, Note_on_c, 0, 70, 58
2, 116507, Note_on_c, 0, 74, 65
2, 116659, Note_on_c, 0, 70, 0
2, 116659, Note_on_c, 0, 75, 0
2, 116667, Note_on_c, 0, 75, 70
2, 116669, Note_on_c, 0, 70, 70
2, 116838, Note_on_c, 0, 77, 92
2, 116843, Note_on_c, 0, 67, 0
2, 116843, Note_on_c, 0, 70, 0
2, 116843, Note_on_c, 0, 74, 0
2, 116847, Note_on_c, 0, 74, 81
2, 116851, Note_on_c, 0, 63, 0
2, 116852, Note_on_c, 0, 70, 72
2, 116854, Note_on_c, 0, 67, 72
2, 116855, Note_on_c, 0, 63, 70
2, 116997, Note_on_c, 0, 75, 0
2, 117001, Note_on_c, 0, 79, 96
2, 117002, Note_on_c, 0, 75, 94
2, 117012, Note_on_c, 0, 70, 0
2, 117023, Note_on_c, 0, 70, 86
2, 117143, Note_on_c, 0, 74, 0
2, 117154, Note_on_c, 0, 74, 80
2, 117173, Note_on_c, 0, 70, 0
2, 117181, Note_on_c, 0, 63, 0
2, 117181, Note_on_c, 0, 67, 0
2, 117181, Note_on_c, 0, 70, 57
2, 117187, Note_on_c, 0, 63, 55
2, 117188, Note_on_c, 0, 67, 61
2, 117253, Note_on_c, 0, 86, 101
2, 117342, Note_on_c, 0, 70, 0
2, 117342, Note_on_c, 0, 75, 0
2, 117349, Note_on_c, 0, 70, 78
2, 117351, Note_on_c, 0, 75, 86
2, 117496, Note_on_c, 0, 74, 0
2, 117502, Note_on_c, 0, 87, 100
2, 117505, Note_on_c, 0, 74, 89
2, 117508, Note_on_c, 0, 82, 80
2, 117511, Note_on_c, 0, 79, 0
2, 117523, Note_on_c, 0, 79, 74
2, 117621, Control_c, 0, 64, 0
2, 117622, Note_on_c, 0, 82, 0
2, 117622, Note_on_c, 0, 70, 0
2, 117622, Note_on_c, 0, 67, 0
2, 117622, Note_on_c, 0, 86, 0
2, 117623, Note_on_c, 0, 79, 0
2, 117623, Note_on_c, 0, 77, 0
2, 117623, Note_on_c, 0, 75, 0
2, 117623, Note_on_c, 0, 63, 0
2, 117626, Note_on_c, 0, 72, 0
2, 117642, Note_on_c, 0, 74, 0
2, 117642, Note_on_c, 0, 87, 0
2, 117680, Note_on_c, 0, 89, 106
2, 117684, Note_on_c, 0, 46, 89
2, 117684, Note_on_c, 0, 77, 95
2, 117687, Note_on_c, 0, 82, 92
2, 117690, Note_on_c, 0, 79, 86
2, 117703, Control_c, 0, 64, 127
2, 117869, Note_on_c, 0, 74, 70
2, 117872, Note_on_c, 0, 63, 63
2, 117874, Note_on_c, 0, 75, 64
2, 117875, Note_on_c, 0, 67, 42
2, 117880, Note_on_c, 0, 75, 0
2, 118047, Note_on_c, 0, 70, 65
2, 118049, Note_on_c, 0, 67, 0
2, 118055, Note_on_c, 0, 75, 70
2, 118057, Note_on_c, 0, 67, 40
2, 118218, Note_on_c, 0, 87, 97
2, 118218, Note_on_c, 0, 74, 0
2, 118225, Note_on_c, 0, 63, 0
2, 118225, Note_on_c, 0, 67, 0
2, 118225, Note_on_c, 0, 70, 0
2, 118228, Note_on_c, 0, 74, 82
2, 118230, Note_on_c, 0, 70, 70
2, 118231, Note_on_c, 0, 67, 63
2, 118231, Note_on_c, 0, 63, 73
2, 118387, Note_on_c, 0, 75, 0
2, 118394, Note_on_c, 0, 67, 0
2, 118394, Note_on_c, 0, 70, 0
2, 118398, Note_on_c, 0, 75, 71
2, 118398, Note_on_c, 0, 70, 65
2, 118403, Note_on_c, 0, 67, 44
2, 118548, Note_on_c, 0, 74, 0
2, 118557, Note_on_c, 0, 74, 63
2, 118571, Note_on_c, 0, 63, 0
2, 118571, Note_on_c, 0, 67, 0
2, 118571, Note_on_c, 0, 70, 0
2, 118578, Note_on_c, 0, 70, 57
2, 118581, Note_on_c, 0, 67, 63
2, 118581, Note_on_c, 0, 63, 65
2, 118740, Note_on_c, 0, 70, 0
2, 118740, Note_on_c, 0, 75, 0
2, 118745, Note_on_c, 0, 75, 68
2, 118746, Note_on_c, 0, 70, 73
2, 118924, Note_on_c, 0, 63, 0
2, 118924, Note_on_c, 0, 67, 0
2, 118924, Note_on_c, 0, 74, 0
2, 118932, Note_on_c, 0, 63, 71
2, 118934, Note_on_c, 0, 74, 62
2, 118936, Note_on_c, 0, 67, 51
2, 119072, Note_on_c, 0, 63, 0
2, 119073, Note_on_c, 0, 77, 0
2, 119074, Control_c, 0, 64, 0
2, 119077, Note_on_c, 0, 87, 0
2, 119086, Note_on_c, 0, 79, 0
2, 119086, Note_on_c, 0, 82, 0
2, 119093, Note_on_c, 0, 46, 0
2, 119103, Note_on_c, 0, 46, 76
2, 119109, Note_on_c, 0, 75, 0
2, 119116, Note_on_c, 0, 75, 68
2, 119116, Note_on_c, 0, 70, 0
2, 119126, Note_on_c, 0, 70, 51
2, 119132, Control_c, 0, 64, 127
2, 119139, Note_on_c, 0, 89, 0
2, 119170, Note_on_c, 0, 74, 0
2, 119272, Note_on_c, 0, 74, 63
2, 119278, Note_on_c, 0, 70, 0
2, 119282, Note_on_c, 0, 70, 53
2, 119289, Note_on_c, 0, 63, 55
2, 119293, Note_on_c, 0, 67, 0
2, 119298, Note_on_c, 0, 67, 38
2, 119431, Note_on_c, 0, 70, 0
2, 119442, Note_on_c, 0, 70, 70
2, 119462, Note_on_c, 0, 75, 0
2, 119466, Note_on_c, 0, 75, 48
2, 119485, Note_on_c, 0, 46, 0
2, 119622, Note_on_c, 0, 79, 92
2, 119623, Note_on_c, 0, 63, 0
2, 119623, Note_on_c, 0, 67, 0
2, 119623, Note_on_c, 0, 70, 0
2, 119623, Note_on_c, 0, 74, 0
2, 119629, Note_on_c, 0, 67, 76
2, 119631, Note_on_c, 0, 74, 82
2, 119631, Note_on_c, 0, 63, 73
2, 119633, Note_on_c, 0, 70, 70
2, 119784, Note_on_c, 0, 75, 0
2, 119784, Note_on_c, 0, 79, 0
2, 119790, Note_on_c, 0, 79, 93
2, 119792, Note_on_c, 0, 75, 91
2, 119800, Note_on_c, 0, 70, 0
2, 119804, Note_on_c, 0, 70, 82
2, 119938, Note_on_c, 0, 74, 0
2, 119947, Note_on_c, 0, 74, 72
2, 119976, Note_on_c, 0, 63, 0
2, 119976, Note_on_c, 0, 67, 0
2, 119976, Note_on_c, 0, 70, 0
2, 119976, Note_on_c, 0, 75, 0
2, 119980, Note_on_c, 0, 75, 63
2, 119981, Note_on_c, 0, 63, 66
2, 119981, Note_on_c, 0, 70, 62
2, 119981, Note_on_c, 0, 67, 71
2, 120050, Note_on_c, 0, 82, 94
2, 120138, Note_on_c, 0, 70, 0
2, 120143, Note_on_c, 0, 70, 84
2, 120203, Note_on_c, 0, 77, 59
2, 120291, Note_on_c, 0, 63, 0
2, 120299, Note_on_c, 0, 63, 84
2, 120307, Note_on_c, 0, 70, 0
2, 120307, Note_on_c, 0, 75, 0
2, 120307, Note_on_c, 0, 77, 0
2, 120311, Note_on_c, 0, 77, 88
2, 120314, Note_on_c, 0, 70, 70
2, 120316, Note_on_c, 0, 75, 88
2, 120470, Note_on_c, 0, 67, 0
2, 120470, Note_on_c, 0, 70, 0
2, 120470, Note_on_c, 0, 63, 0
2, 120470, Note_on_c, 0, 79, 0
2, 120470, Note_on_c, 0, 82, 0
2, 120470, Note_on_c, 0, 74, 0
2, 120472, Control_c, 0, 64, 0
2, 120476, Note_on_c, 0, 77, 0
2, 120483, Note_on_c, 0, 75, 0
2, 120485, Note_on_c, 0, 77, 98
2, 120487, Note_on_c, 0, 44, 85
2, 120488, Note_on_c, 0, 75, 91
2, 120494, Note_on_c, 0, 56, 90
2, 120531, Note_on_c, 0, 44, 0
2, 120532, Note_on_c, 0, 56, 0
2, 120537, Control_c, 0, 64, 127
2, 120681, Note_on_c, 0, 74, 70
2, 120688, Note_on_c, 0, 70, 60
2, 120694, Note_on_c, 0, 68, 66
2, 120837, Note_on_c, 0, 75, 0
2, 120846, Note_on_c, 0, 75, 67
2, 120849, Note_on_c, 0, 72, 66
2, 121024, Note_on_c, 0, 79, 95
2, 121029, Note_on_c, 0, 70, 0
2, 121029, Note_on_c, 0, 74, 0
2, 121029, Note_on_c, 0, 75, 0
2, 121033, Note_on_c, 0, 74, 82
2, 121040, Note_on_c, 0, 70, 68
2, 121040, Note_on_c, 0, 75, 73
2, 121190, Note_on_c, 0, 72, 0
2, 121190, Note_on_c, 0, 75, 0
2, 121197, Note_on_c, 0, 75, 59
2, 121201, Note_on_c, 0, 72, 66
2, 121367, Note_on_c, 0, 68, 0
2, 121367, Note_on_c, 0, 74, 0
2, 121371, Note_on_c, 0, 63, 56
2, 121372, Note_on_c, 0, 68, 63
2, 121376, Note_on_c, 0, 74, 60
2, 121543, Note_on_c, 0, 75, 0
2, 121551, Note_on_c, 0, 72, 0
2, 121553, Note_on_c, 0, 75, 57
2, 121555, Note_on_c, 0, 72, 68
2, 121720, Note_on_c, 0, 63, 0
2, 121720, Note_on_c, 0, 74, 0
2, 121726, Note_on_c, 0, 63, 76
2, 121730, Note_on_c, 0, 74, 62
2, 121861, Note_on_c, 0, 70, 0
2, 121862, Note_on_c, 0, 68, 0
2, 121862, Note_on_c, 0, 77, 0
2, 121862, Note_on_c, 0, 63, 0
2, 121864, Control_c, 0, 64, 0
2, 121893, Note_on_c, 0, 44, 71
2, 121896, Note_on_c, 0, 72, 0
2, 121896, Note_on_c, 0, 75, 0
2, 121899, Note_on_c, 0, 56, 70
2, 121903, Note_on_c, 0, 72, 52
2, 121908, Note_on_c, 0, 75, 67
2, 121920, Control_c, 0, 64, 127
2, 121931, Note_on_c, 0, 44, 0
2, 121958, Note_on_c, 0, 74, 0
2, 122071, Note_on_c, 0, 63, 71
2, 122085, Note_on_c, 0, 74, 64
2, 122088, Note_on_c, 0, 68, 63
2, 122227, Note_on_c, 0, 72, 0
2, 122227, Note_on_c, 0, 75, 0
2, 122235, Note_on_c, 0, 72, 72
2, 122236, Note_on_c, 0, 75, 67
2, 122411, Note_on_c, 0, 68, 0
2, 122411, Note_on_c, 0, 72, 0
2, 122411, Note_on_c, 0, 74, 0
2, 122415, Note_on_c, 0, 74, 78
2, 122421, Note_on_c, 0, 72, 56
2, 122421, Note_on_c, 0, 68, 57
2, 122572, Note_on_c, 0, 79, 0
2, 122580, Note_on_c, 0, 72, 0
2, 122580, Note_on_c, 0, 75, 0
2, 122581, Note_on_c, 0, 79, 101
2, 122584, Note_on_c, 0, 75, 84
2, 122590, Note_on_c, 0, 72, 82
2, 122764, Note_on_c, 0, 68, 0
2, 122764, Note_on_c, 0, 74, 0
2, 122771, Note_on_c, 0, 68, 67
2, 122772, Note_on_c, 0, 74, 70
2, 122918, Note_on_c, 0, 75, 0
2, 122926, Note_on_c, 0, 75, 97
2, 122929, Note_on_c, 0, 79, 0
2, 122933, Note_on_c, 0, 72, 0
2, 122937, Note_on_c, 0, 72, 74
2, 122995, Note_on_c, 0, 56, 0
2, 123087, Note_on_c, 0, 63, 0
2, 123087, Note_on_c, 0, 74, 0
2, 123094, Note_on_c, 0, 74, 71
2, 123097, Note_on_c, 0, 63, 58
2, 123246, Control_c, 0, 64, 0
2, 123247, Note_on_c, 0, 75, 0
2, 123248, Note_on_c, 0, 72, 0
2, 123248, Note_on_c, 0, 68, 0
2, 123249, Note_on_c, 0, 63, 0
2, 123264, Note_on_c, 0, 74, 0
2, 123267, Note_on_c, 0, 77, 98
2, 123275, Note_on_c, 0, 74, 85
2, 123275, Note_on_c, 0, 43, 74
2, 123310, Control_c, 0, 64, 127
2, 123379, Note_on_c, 0, 43, 0
2, 123449, Note_on_c, 0, 62, 75
2, 123451, Note_on_c, 0, 70, 63
2, 123609, Note_on_c, 0, 74, 0
2, 123614, Note_on_c, 0, 74, 68
2, 123620, Note_on_c, 0, 65, 50
2, 123778, Note_on_c, 0, 62, 0
2, 123778, Note_on_c, 0, 70, 0
2, 123789, Note_on_c, 0, 62, 75
2, 123789, Note_on_c, 0, 70, 68
2, 123955, Note_on_c, 0, 74, 0
2, 123957, Note_on_c, 0, 79, 96
2, 123962, Note_on_c, 0, 65, 0
2, 123965, Note_on_c, 0, 74, 84
2, 123968, Note_on_c, 0, 65, 75
2, 124131, Note_on_c, 0, 62, 0
2, 124139, Note_on_c, 0, 70, 0
2, 124143, Note_on_c, 0, 62, 73
2, 124144, Note_on_c, 0, 70, 64
2, 124300, Note_on_c, 0, 74, 0
2, 124308, Note_on_c, 0, 65, 0
2, 124308, Note_on_c, 0, 70, 0
2, 124311, Note_on_c, 0, 74, 76
2, 124313, Note_on_c, 0, 70, 56
2, 124313, Note_on_c, 0, 65, 69
2, 124469, Note_on_c, 0, 62, 0
2, 124474, Note_on_c, 0, 62, 80
2, 124492, Note_on_c, 0, 70, 0
2, 124504, Note_on_c, 0, 70, 75
2, 124625, Control_c, 0, 64, 0
2, 124626, Note_on_c, 0, 62, 0
2, 124626, Note_on_c, 0, 65, 0
2, 124626, Note_on_c, 0, 79, 0
2, 124646, Note_on_c, 0, 77, 0
2, 124654, Note_on_c, 0, 70, 0
2, 124654, Note_on_c, 0, 74, 0
2, 124656, Note_on_c, 0, 77, 98
2, 124658, Note_on_c, 0, 41, 84
2, 124658, Note_on_c, 0, 74, 95
2, 124662, Note_on_c, 0, 70, 93
2, 124700, Control_c, 0, 64, 127
2, 124723, Note_on_c, 0, 41, 0
2, 124826, Note_on_c, 0, 58, 72
2, 124910, Note_on_c, 0, 82, 92
2, 125012, Note_on_c, 0, 65, 81
2, 125015, Note_on_c, 0, 62, 83
2, 125160, Note_on_c, 0, 58, 0
2, 125167, Note_on_c, 0, 58, 93
2, 125168, Note_on_c, 0, 77, 0
2, 125177, Note_on_c, 0, 77, 97
2, 125299, Note_on_c, 0, 70, 0
2, 125299, Control_c, 0, 64, 0
2, 125300, Note_on_c, 0, 65, 0
2, 125300, Note_on_c, 0, 62, 0
2, 125300, Note_on_c, 0, 58, 0
2, 125302, Note_on_c, 0, 74, 0
2, 125303, Note_on_c, 0, 77, 0
2, 125337, Note_on_c, 0, 82, 0
2, 125343, Note_on_c, 0, 82, 100
2, 125344, Note_on_c, 0, 74, 88
2, 125348, Note_on_c, 0, 70, 98
2, 125352, Note_on_c, 0, 34, 74
2, 125353, Note_on_c, 0, 46, 85
2, 125368, Control_c, 0, 64, 127
2, 125511, Note_on_c, 0, 58, 73
2, 125596, Note_on_c, 0, 84, 103
2, 125598, Note_on_c, 0, 74, 0
2, 125600, Note_on_c, 0, 72, 102
2, 125609, Note_on_c, 0, 74, 80
2, 125706, Note_on_c, 0, 58, 0
2, 125710, Note_on_c, 0, 62, 83
2, 125710, Note_on_c, 0, 65, 80
2, 125711, Note_on_c, 0, 58, 68
2, 125836, Note_on_c, 0, 58, 0
2, 125836, Note_on_c, 0, 74, 0
2, 125844, Note_on_c, 0, 86, 100
2, 125846, Note_on_c, 0, 58, 82
2, 125848, Note_on_c, 0, 74, 96
2, 125990, Note_on_c, 0, 34, 0
2, 126008, Control_c, 0, 64, 0
2, 126008, Note_on_c, 0, 65, 0
2, 126008, Note_on_c, 0, 70, 0
2, 126008, Note_on_c, 0, 82, 0
2, 126008, Note_on_c, 0, 62, 0
2, 126009, Note_on_c, 0, 58, 0
2, 126009, Note_on_c, 0, 74, 0
2, 126009, Note_on_c, 0, 72, 0
2, 126009, Note_on_c, 0, 86, 0
2, 126021, Note_on_c, 0, 46, 0
2, 126044, Note_on_c, 0, 84, 0
2, 126048, Note_on_c, 0, 84, 106
2, 126048, Note_on_c, 0, 72, 107
2, 126051, Note_on_c, 0, 79, 95
2, 126052, Note_on_c, 0, 75, 101
2, 126053, Note_on_c, 0, 36, 91
2, 126097, Control_c, 0, 64, 127
2, 126099, Note_on_c, 0, 36, 0
2, 126216, Note_on_c, 0, 48, 77
2, 126374, Note_on_c, 0, 72, 0
2, 126381, Note_on_c, 0, 72, 91
2, 126393, Note_on_c, 0, 60, 78
2, 126397, Note_on_c, 0, 55, 74
2, 126402, Note_on_c, 0, 51, 70
2, 126551, Note_on_c, 0, 60, 0
2, 126551, Note_on_c, 0, 72, 0
2, 126557, Note_on_c, 0, 72, 90
2, 126558, Note_on_c, 0, 48, 0
2, 126561, Note_on_c, 0, 60, 91
2, 126562, Note_on_c, 0, 48, 85
2, 126563, Note_on_c, 0, 63, 70
2, 126734, Note_on_c, 0, 36, 84
2, 126735, Note_on_c, 0, 51, 0
2, 126735, Note_on_c, 0, 55, 0
2, 126735, Note_on_c, 0, 60, 0
2, 126736, Note_on_c, 0, 77, 104
2, 126738, Note_on_c, 0, 65, 95
2, 126740, Note_on_c, 0, 55, 81
2, 126740, Note_on_c, 0, 51, 86
2, 126740, Note_on_c, 0, 60, 96
2, 126904, Note_on_c, 0, 36, 0
2, 126904, Note_on_c, 0, 48, 0
2, 126904, Note_on_c, 0, 65, 0
2, 126904, Note_on_c, 0, 77, 0
2, 126908, Note_on_c, 0, 36, 75
2, 126909, Note_on_c, 0, 48, 72
2, 126911, Note_on_c, 0, 77, 89
2, 126912, Note_on_c, 0, 65, 78
2, 127088, Note_on_c, 0, 55, 0
2, 127088, Note_on_c, 0, 60, 0
2, 127088, Note_on_c, 0, 72, 0
2, 127096, Note_on_c, 0, 51, 0
2, 127096, Note_on_c, 0, 72, 93
2, 127098, Note_on_c, 0, 55, 78
2, 127098, Note_on_c, 0, 60, 87
2, 127100, Note_on_c, 0, 51, 82
2, 127257, Note_on_c, 0, 48, 0
2, 127257, Note_on_c, 0, 60, 0
2, 127257, Note_on_c, 0, 72, 0
2, 127262, Note_on_c, 0, 48, 74
2, 127268, Note_on_c, 0, 72, 85
2, 127268, Note_on_c, 0, 60, 89
2, 127288, Note_on_c, 0, 36, 0
2, 127399, Control_c, 0, 64, 0
2, 127402, Note_on_c, 0, 51, 0
2, 127403, Note_on_c, 0, 72, 0
2, 127403, Note_on_c, 0, 75, 0
2, 127403, Note_on_c, 0, 55, 0
2, 127403, Note_on_c, 0, 60, 0
2, 127404, Note_on_c, 0, 77, 0
2, 127404, Note_on_c, 0, 79, 0
2, 127405, Note_on_c, 0, 84, 0
2, 127418, Note_on_c, 0, 65, 0
2, 127426, Note_on_c, 0, 48, 0
2, 127426, Note_on_c, 0, 63, 0
2, 127430, Note_on_c, 0, 48, 90
2, 127431, Note_on_c, 0, 75, 99
2, 127431, Note_on_c, 0, 36, 85
2, 127432, Note_on_c, 0, 63, 99
2, 127442, Note_on_c, 0, 73, 75
2, 127503, Note_on_c, 0, 36, 0
2, 127503, Control_c, 0, 64, 127
2, 127541, Note_on_c, 0, 48, 0
2, 127595, Note_on_c, 0, 75, 0
2, 127600, Note_on_c, 0, 75, 87
2, 127603, Note_on_c, 0, 63, 0
2, 127606, Note_on_c, 0, 48, 75
2, 127607, Note_on_c, 0, 63, 74
2, 127611, Note_on_c, 0, 36, 69
2, 127791, Note_on_c, 0, 72, 79
2, 127795, Note_on_c, 0, 55, 72
2, 127795, Note_on_c, 0, 60, 77
2, 127798, Note_on_c, 0, 51, 73
2, 127941, Note_on_c, 0, 72, 0
2, 127948, Note_on_c, 0, 60, 0
2, 127952, Note_on_c, 0, 72, 82
2, 127956, Note_on_c, 0, 48, 0
2, 127956, Note_on_c, 0, 63, 0
2, 127958, Note_on_c, 0, 60, 76
2, 127961, Note_on_c, 0, 63, 63
2, 127962, Note_on_c, 0, 48, 72
2, 128113, Control_c, 0, 64, 0
2, 128125, Note_on_c, 0, 48, 0
2, 128129, Note_on_c, 0, 74, 99
2, 128130, Note_on_c, 0, 70, 92
2, 128132, Note_on_c, 0, 62, 100
2, 128133, Note_on_c, 0, 55, 0
2, 128136, Note_on_c, 0, 48, 76
2, 128140, Note_on_c, 0, 51, 0
2, 128141, Note_on_c, 0, 55, 77
2, 128148, Note_on_c, 0, 51, 73
2, 128171, Note_on_c, 0, 73, 0
2, 128179, Control_c, 0, 64, 127
2, 128302, Note_on_c, 0, 48, 0
2, 128302, Note_on_c, 0, 62, 0
2, 128302, Note_on_c, 0, 74, 0
2, 128309, Note_on_c, 0, 55, 0
2, 128311, Note_on_c, 0, 74, 83
2, 128312, Note_on_c, 0, 48, 64
2, 128312, Note_on_c, 0, 62, 86
2, 128318, Note_on_c, 0, 55, 55
2, 128471, Note_on_c, 0, 70, 0
2, 128478, Note_on_c, 0, 55, 0
2, 128478, Note_on_c, 0, 70, 86
2, 128483, Note_on_c, 0, 58, 80
2, 128485, Note_on_c, 0, 55, 80
2, 128486, Note_on_c, 0, 51, 0
2, 128492, Note_on_c, 0, 51, 67
2, 128499, Note_on_c, 0, 67, 53
2, 128501, Note_on_c, 0, 36, 0
2, 128632, Note_on_c, 0, 48, 0
2, 128640, Note_on_c, 0, 70, 0
2, 128641, Note_on_c, 0, 48, 80
2, 128643, Note_on_c, 0, 36, 74
2, 128644, Note_on_c, 0, 70, 80
2, 128797, Control_c, 0, 64, 0
2, 128799, Note_on_c, 0, 63, 0
2, 128799, Note_on_c, 0, 51, 0
2, 128799, Note_on_c, 0, 55, 0
2, 128799, Note_on_c, 0, 60, 0
2, 128799, Note_on_c, 0, 70, 0
2, 128799, Note_on_c, 0, 58, 0
2, 128801, Note_on_c, 0, 67, 0
2, 128802, Note_on_c, 0, 62, 0
2, 128808, Note_on_c, 0, 36, 0
2, 128816, Note_on_c, 0, 48, 0
2, 128816, Note_on_c, 0, 72, 0
2, 128816, Note_on_c, 0, 75, 0
2, 128821, Note_on_c, 0, 79, 101
2, 128822, Note_on_c, 0, 48, 89
2, 128824, Note_on_c, 0, 67, 98
2, 128826, Note_on_c, 0, 72, 90
2, 128827, Note_on_c, 0, 36, 92
2, 128827, Note_on_c, 0, 75, 96
2, 128870, Note_on_c, 0, 74, 0
2, 128878, Note_on_c, 0, 48, 0
2, 128880, Note_on_c, 0, 36, 0
2, 128885, Note_on_c, 0, 67, 0
2, 128885, Control_c, 0, 64, 127
2, 128931, Note_on_c, 0, 75, 0
2, 128985, Note_on_c, 0, 79, 0
2, 128997, Note_on_c, 0, 79, 93
2, 128998, Note_on_c, 0, 67, 85
2, 128999, Note_on_c, 0, 36, 77
2, 128999, Note_on_c, 0, 75, 84
2, 129177, Note_on_c, 0, 72, 0
2, 129182, Note_on_c, 0, 72, 82
2, 129184, Note_on_c, 0, 48, 72
2, 129185, Note_on_c, 0, 60, 78
2, 129187, Note_on_c, 0, 51, 79
2, 129187, Note_on_c, 0, 55, 71
2, 129338, Note_on_c, 0, 48, 0
2, 129338, Note_on_c, 0, 60, 0
2, 129338, Note_on_c, 0, 72, 0
2, 129343, Note_on_c, 0, 72, 80
2, 129343, Note_on_c, 0, 60, 80
2, 129343, Note_on_c, 0, 48, 77
2, 129511, Note_on_c, 0, 77, 103
2, 129511, Control_c, 0, 64, 0
2, 129515, Note_on_c, 0, 51, 0
2, 129515, Note_on_c, 0, 55, 0
2, 129515, Note_on_c, 0, 60, 0
2, 129515, Note_on_c, 0, 70, 96
2, 129516, Note_on_c, 0, 65, 95
2, 129520, Note_on_c, 0, 60, 91
2, 129523, Note_on_c, 0, 55, 87
2, 129524, Note_on_c, 0, 51, 85
2, 129584, Note_on_c, 0, 36, 0
2, 129584, Control_c, 0, 64, 127
2, 129676, Note_on_c, 0, 77, 0
2, 129684, Note_on_c, 0, 48, 0
2, 129684, Note_on_c, 0, 65, 0
2, 129686, Note_on_c, 0, 77, 79
2, 129690, Note_on_c, 0, 65, 83
2, 129691, Note_on_c, 0, 48, 73
2, 129868, Note_on_c, 0, 51, 0
2, 129868, Note_on_c, 0, 55, 0
2, 129868, Note_on_c, 0, 60, 0
2, 129873, Note_on_c, 0, 60, 87
2, 129875, Note_on_c, 0, 55, 79
2, 129879, Note_on_c, 0, 51, 70
2, 130022, Note_on_c, 0, 72, 0
2, 130030, Note_on_c, 0, 48, 0
2, 130030, Note_on_c, 0, 60, 0
2, 130033, Note_on_c, 0, 72, 89
2, 130034, Note_on_c, 0, 48, 78
2, 130036, Note_on_c, 0, 60, 84
2, 130175, Control_c, 0, 64, 0
2, 130177, Note_on_c, 0, 70, 0
2, 130178, Note_on_c, 0, 72, 0
2, 130178, Note_on_c, 0, 77, 0
2, 130178, Note_on_c, 0, 65, 0
2, 130178, Note_on_c, 0, 60, 0
2, 130178, Note_on_c, 0, 51, 0
2, 130179, Note_on_c, 0, 55, 0
2, 130183, Note_on_c, 0, 67, 0
2, 130183, Note_on_c, 0, 79, 0
2, 130199, Note_on_c, 0, 48, 0
2, 130199, Note_on_c, 0, 75, 0
2, 130204, Note_on_c, 0, 75, 99
2, 130205, Note_on_c, 0, 63, 98
2, 130207, Note_on_c, 0, 48, 92
2, 130209, Note_on_c, 0, 36, 88
2, 130247, Note_on_c, 0, 36, 0
2, 130250, Note_on_c, 0, 63, 0
2, 130275, Note_on_c, 0, 48, 0
2, 130275, Note_on_c, 0, 75, 0
2, 130275, Control_c, 0, 64, 127
2, 130281, Note_on_c, 0, 48, 85
2, 130282, Note_on_c, 0, 63, 92
2, 130285, Note_on_c, 0, 75, 90
2, 130368, Note_on_c, 0, 48, 0
2, 130368, Note_on_c, 0, 63, 0
2, 130368, Note_on_c, 0, 75, 0
2, 130377, Note_on_c, 0, 75, 87
2, 130378, Note_on_c, 0, 48, 79
2, 130378, Note_on_c, 0, 63, 91
2, 130554, Note_on_c, 0, 72, 85
2, 130561, Note_on_c, 0, 60, 77
2, 130563, Note_on_c, 0, 55, 69
2, 130563, Note_on_c, 0, 51, 75
2, 130713, Note_on_c, 0, 60, 0
2, 130713, Note_on_c, 0, 72, 0
2, 130721, Note_on_c, 0, 48, 0
2, 130721, Note_on_c, 0, 55, 0
2, 130724, Note_on_c, 0, 72, 81
2, 130724, Note_on_c, 0, 60, 80
2, 130730, Note_on_c, 0, 48, 75
2, 130730, Note_on_c, 0, 55, 64
2, 130890, Note_on_c, 0, 60, 0
2, 130894, Note_on_c, 0, 74, 98
2, 130897, Note_on_c, 0, 55, 0
2, 130900, Note_on_c, 0, 62, 100
2, 130901, Note_on_c, 0, 60, 90
2, 130902, Note_on_c, 0, 70, 90
2, 130903, Note_on_c, 0, 55, 82
2, 130905, Note_on_c, 0, 51, 0
2, 130915, Note_on_c, 0, 51, 78
2, 131066, Note_on_c, 0, 48, 0
2, 131066, Note_on_c, 0, 62, 0
2, 131066, Note_on_c, 0, 74, 0
2, 131072, Note_on_c, 0, 74, 90
2, 131074, Note_on_c, 0, 48, 76
2, 131076, Note_on_c, 0, 62, 86
2, 131077, Note_on_c, 0, 36, 75
2, 131235, Note_on_c, 0, 70, 0
2, 131246, Note_on_c, 0, 70, 76
2, 131248, Note_on_c, 0, 58, 77
2, 131251, Note_on_c, 0, 55, 0
2, 131258, Note_on_c, 0, 51, 0
2, 131258, Note_on_c, 0, 63, 0
2, 131259, Note_on_c, 0, 55, 69
2, 131263, Note_on_c, 0, 51, 70
2, 131263, Note_on_c, 0, 63, 64
2, 131271, Note_on_c, 0, 67, 46
2, 131397, Note_on_c, 0, 48, 0
2, 131402, Note_on_c, 0, 48, 76
2, 131404, Note_on_c, 0, 63, 0
2, 131404, Note_on_c, 0, 70, 0
2, 131412, Note_on_c, 0, 70, 70
2, 131414, Note_on_c, 0, 63, 63
2, 131562, Control_c, 0, 64, 0
2, 131564, Note_on_c, 0, 74, 0
2, 131564, Note_on_c, 0, 72, 0
2, 131564, Note_on_c, 0, 63, 0
2, 131564, Note_on_c, 0, 62, 0
2, 131565, Note_on_c, 0, 75, 0
2, 131565, Note_on_c, 0, 55, 0
2, 131565, Note_on_c, 0, 58, 0
2, 131566, Note_on_c, 0, 36, 0
2, 131566, Note_on_c, 0, 67, 0
2, 131573, Note_on_c, 0, 60, 0
2, 131581, Note_on_c, 0, 48, 0
2, 131581, Note_on_c, 0, 51, 0
2, 131581, Note_on_c, 0, 70, 0
2, 131599, Note_on_c, 0, 44, 101
2, 131599, Note_on_c, 0, 32, 95
2, 131600, Note_on_c, 0, 72, 99
2, 131600, Note_on_c, 0, 79, 107
2, 131600, Note_on_c, 0, 75, 96
2, 131601, Note_on_c, 0, 67, 100
2, 131635, Control_c, 0, 64, 127
2, 131638, Note_on_c, 0, 32, 0
2, 131638, Note_on_c, 0, 44, 0
2, 131765, Note_on_c, 0, 75, 0
2, 131765, Note_on_c, 0, 79, 0
2, 131774, Note_on_c, 0, 75, 80
2, 131774, Note_on_c, 0, 79, 81
2, 131776, Note_on_c, 0, 44, 83
2, 131950, Note_on_c, 0, 44, 0
2, 131950, Note_on_c, 0, 72, 0
2, 131954, Note_on_c, 0, 72, 83
2, 131954, Note_on_c, 0, 48, 72
2, 131955, Note_on_c, 0, 44, 72
2, 131955, Note_on_c, 0, 60, 80
2, 131957, Note_on_c, 0, 51, 69
2, 132111, Note_on_c, 0, 60, 0
2, 132111, Note_on_c, 0, 72, 0
2, 132119, Note_on_c, 0, 44, 0
2, 132119, Note_on_c, 0, 51, 0
2, 132121, Note_on_c, 0, 72, 80
2, 132121, Note_on_c, 0, 60, 82
2, 132123, Note_on_c, 0, 44, 74
2, 132130, Note_on_c, 0, 51, 68
2, 132280, Note_on_c, 0, 44, 0
2, 132280, Note_on_c, 0, 48, 0
2, 132288, Note_on_c, 0, 75, 0
2, 132290, Note_on_c, 0, 77, 100
2, 132290, Note_on_c, 0, 48, 75
2, 132290, Note_on_c, 0, 65, 95
2, 132291, Note_on_c, 0, 44, 88
2, 132291, Note_on_c, 0, 56, 93
2, 132293, Note_on_c, 0, 70, 95
2, 132296, Note_on_c, 0, 75, 85
2, 132456, Note_on_c, 0, 44, 0
2, 132456, Note_on_c, 0, 65, 0
2, 132456, Note_on_c, 0, 77, 0
2, 132464, Note_on_c, 0, 44, 79
2, 132465, Note_on_c, 0, 77, 85
2, 132468, Note_on_c, 0, 65, 72
2, 132472, Note_on_c, 0, 72, 0
2, 132476, Note_on_c, 0, 72, 67
2, 132641, Note_on_c, 0, 44, 0
2, 132641, Note_on_c, 0, 48, 0
2, 132641, Note_on_c, 0, 60, 0
2, 132641, Note_on_c, 0, 72, 0
2, 132645, Note_on_c, 0, 72, 87
2, 132646, Note_on_c, 0, 60, 84
2, 132650, Note_on_c, 0, 44, 70
2, 132651, Note_on_c, 0, 48, 71
2, 132652, Note_on_c, 0, 63, 73
2, 132653, Note_on_c, 0, 36, 66
2, 132802, Note_on_c, 0, 44, 0
2, 132802, Note_on_c, 0, 72, 0
2, 132810, Note_on_c, 0, 60, 0
2, 132812, Note_on_c, 0, 72, 89
2, 132813, Note_on_c, 0, 44, 79
2, 132814, Note_on_c, 0, 32, 68
2, 132816, Note_on_c, 0, 60, 89
2, 132910, Note_on_c, 0, 36, 0
2, 132973, Control_c, 0, 64, 0
2, 132974, Note_on_c, 0, 65, 0
2, 132974, Note_on_c, 0, 70, 0
2, 132974, Note_on_c, 0, 60, 0
2, 132974, Note_on_c, 0, 77, 0
2, 132974, Note_on_c, 0, 79, 0
2, 132986, Note_on_c, 0, 32, 0
2, 132986, Note_on_c, 0, 44, 0
2, 132986, Note_on_c, 0, 51, 0
2, 132986, Note_on_c, 0, 56, 0
2, 132986, Note_on_c, 0, 63, 0
2, 132986, Note_on_c, 0, 67, 0
2, 132986, Note_on_c, 0, 72, 0
2, 132986, Note_on_c, 0, 75, 0
2, 132993, Note_on_c, 0, 75, 102
2, 132994, Note_on_c, 0, 48, 0
2, 132994, Note_on_c, 0, 63, 101
2, 132995, Note_on_c, 0, 72, 99
2, 132995, Note_on_c, 0, 68, 83
2, 132997, Note_on_c, 0, 44, 95
2, 132998, Note_on_c, 0, 32, 89
2, 133040, Control_c, 0, 64, 127
2, 133056, Note_on_c, 0, 44, 0
2, 133086, Note_on_c, 0, 32, 0
2, 133155, Note_on_c, 0, 75, 0
2, 133163, Note_on_c, 0, 63, 0
2, 133164, Note_on_c, 0, 75, 88
2, 133168, Note_on_c, 0, 63, 92
2, 133186, Note_on_c, 0, 44, 74
2, 133332, Note_on_c, 0, 72, 0
2, 133338, Note_on_c, 0, 72, 85
2, 133341, Note_on_c, 0, 60, 85
2, 133346, Note_on_c, 0, 48, 69
2, 133346, Note_on_c, 0, 51, 75
2, 133501, Note_on_c, 0, 72, 0
2, 133509, Note_on_c, 0, 44, 0
2, 133509, Note_on_c, 0, 60, 0
2, 133511, Note_on_c, 0, 72, 86
2, 133513, Note_on_c, 0, 60, 89
2, 133520, Note_on_c, 0, 44, 83
2, 133682, Note_on_c, 0, 74, 101
2, 133687, Note_on_c, 0, 70, 92
2, 133688, Note_on_c, 0, 62, 101
2, 133693, Note_on_c, 0, 44, 0
2, 133693, Note_on_c, 0, 48, 0
2, 133699, Note_on_c, 0, 48, 71
2, 133704, Note_on_c, 0, 44, 72
2, 133707, Note_on_c, 0, 32, 65
2, 133709, Note_on_c, 0, 56, 67
2, 133854, Note_on_c, 0, 62, 0
2, 133862, Note_on_c, 0, 44, 0
2, 133862, Note_on_c, 0, 74, 0
2, 133865, Note_on_c, 0, 62, 90
2, 133866, Note_on_c, 0, 74, 83
2, 133868, Note_on_c, 0, 44, 74
2, 133870, Note_on_c, 0, 32, 0
2, 133874, Note_on_c, 0, 32, 66
2, 134031, Note_on_c, 0, 70, 0
2, 134039, Note_on_c, 0, 32, 0
2, 134039, Note_on_c, 0, 44, 0
2, 134041, Note_on_c, 0, 58, 77
2, 134042, Note_on_c, 0, 70, 73
2, 134047, Note_on_c, 0, 32, 68
2, 134048, Note_on_c, 0, 44, 74
2, 134184, Note_on_c, 0, 32, 0
2, 134184, Note_on_c, 0, 44, 0
2, 134184, Note_on_c, 0, 70, 0
2, 134190, Note_on_c, 0, 44, 76
2, 134195, Note_on_c, 0, 32, 69
2, 134196, Note_on_c, 0, 70, 77
2, 134343, Note_on_c, 0, 74, 0
2, 134343, Note_on_c, 0, 48, 0
2, 134343, Note_on_c, 0, 63, 0
2, 134344, Control_c, 0, 64, 0
2, 134344, Note_on_c, 0, 56, 0
2, 134344, Note_on_c, 0, 62, 0
2, 134344, Note_on_c, 0, 60, 0
2, 134344, Note_on_c, 0, 72, 0
2, 134344, Note_on_c, 0, 68, 0
2, 134345, Note_on_c, 0, 58, 0
2, 134345, Note_on_c, 0, 70, 0
2, 134346, Note_on_c, 0, 32, 0
2, 134361, Note_on_c, 0, 51, 0
2, 134369, Note_on_c, 0, 44, 0
2, 134369, Note_on_c, 0, 75, 0
2, 134376, Note_on_c, 0, 79, 102
2, 134377, Note_on_c, 0, 67, 94
2, 134377, Note_on_c, 0, 75, 95
2, 134378, Note_on_c, 0, 72, 95
2, 134380, Note_on_c, 0, 44, 97
2, 134380, Note_on_c, 0, 32, 93
2, 134423, Control_c, 0, 64, 127
2, 134430, Note_on_c, 0, 67, 0
2, 134469, Note_on_c, 0, 32, 0
2, 134538, Note_on_c, 0, 79, 0
2, 134545, Note_on_c, 0, 44, 0
2, 134545, Note_on_c, 0, 75, 0
2, 134549, Note_on_c, 0, 79, 88
2, 134551, Note_on_c, 0, 75, 80
2, 134554, Note_on_c, 0, 44, 87
2, 134557, Note_on_c, 0, 32, 73
2, 134722, Note_on_c, 0, 44, 0
2, 134730, Note_on_c, 0, 72, 0
2, 134732, Note_on_c, 0, 48, 72
2, 134733, Note_on_c, 0, 44, 70
2, 134735, Note_on_c, 0, 60, 78
2, 134735, Note_on_c, 0, 72, 81
2, 134736, Note_on_c, 0, 51, 75
2, 134883, Note_on_c, 0, 60, 0
2, 134883, Note_on_c, 0, 72, 0
2, 134890, Note_on_c, 0, 72, 82
2, 134891, Note_on_c, 0, 44, 0
2, 134891, Note_on_c, 0, 48, 0
2, 134893, Note_on_c, 0, 60, 78
2, 134898, Note_on_c, 0, 44, 69
2, 134900, Note_on_c, 0, 48, 61
2, 135052, Note_on_c, 0, 32, 0
2, 135052, Note_on_c, 0, 44, 0
2, 135052, Note_on_c, 0, 48, 0
2, 135059, Note_on_c, 0, 77, 101
2, 135062, Note_on_c, 0, 65, 97
2, 135063, Note_on_c, 0, 32, 79
2, 135064, Note_on_c, 0, 44, 85
2, 135064, Note_on_c, 0, 48, 72
2, 135066, Note_on_c, 0, 70, 94
2, 135221, Note_on_c, 0, 77, 0
2, 135229, Note_on_c, 0, 44, 0
2, 135229, Note_on_c, 0, 65, 0
2, 135232, Note_on_c, 0, 77, 82
2, 135234, Note_on_c, 0, 44, 71
2, 135235, Note_on_c, 0, 65, 72
2, 135398, Note_on_c, 0, 72, 0
2, 135406, Note_on_c, 0, 44, 0
2, 135406, Note_on_c, 0, 48, 0
2, 135406, Note_on_c, 0, 60, 0
2, 135409, Note_on_c, 0, 72, 88
2, 135411, Note_on_c, 0, 60, 83
2, 135413, Note_on_c, 0, 51, 0
2, 135414, Note_on_c, 0, 48, 67
2, 135417, Note_on_c, 0, 44, 68
2, 135419, Note_on_c, 0, 51, 72
2, 135420, Note_on_c, 0, 63, 71
2, 135429, Note_on_c, 0, 63, 0
2, 135567, Note_on_c, 0, 44, 0
2, 135569, Note_on_c, 0, 56, 62
2, 135573, Note_on_c, 0, 44, 70
2, 135582, Note_on_c, 0, 72, 0
2, 135588, Note_on_c, 0, 72, 83
2, 135590, Note_on_c, 0, 60, 0
2, 135594, Note_on_c, 0, 60, 82
2, 135718, Control_c, 0, 64, 0
2, 135720, Note_on_c, 0, 32, 0
2, 135722, Note_on_c, 0, 51, 0
2, 135722, Note_on_c, 0, 48, 0
2, 135723, Note_on_c, 0, 70, 0
2, 135723, Note_on_c, 0, 65, 0
2, 135723, Note_on_c, 0, 60, 0
2, 135723, Note_on_c, 0, 77, 0
2, 135723, Note_on_c, 0, 79, 0
2, 135736, Note_on_c, 0, 56, 0
2, 135736, Note_on_c, 0, 75, 0
2, 135744, Note_on_c, 0, 44, 0
2, 135744, Note_on_c, 0, 72, 0
2, 135747, Note_on_c, 0, 75, 104
2, 135748, Note_on_c, 0, 63, 100
2, 135750, Note_on_c, 0, 72, 91
2, 135751, Note_on_c, 0, 44, 97
2, 135753, Note_on_c, 0, 32, 91
2, 135797, Control_c, 0, 64, 127
2, 135920, Note_on_c, 0, 63, 0
2, 135920, Note_on_c, 0, 75, 0
2, 135924, Note_on_c, 0, 75, 84
2, 135927, Note_on_c, 0, 63, 90
2, 135936, Note_on_c, 0, 44, 0
2, 135939, Note_on_c, 0, 44, 77
2, 136081, Note_on_c, 0, 72, 0
2, 136093, Note_on_c, 0, 72, 89
2, 136094, Note_on_c, 0, 60, 90
2, 136116, Note_on_c, 0, 48, 67
2, 136119, Note_on_c, 0, 51, 64
2, 136258, Note_on_c, 0, 44, 0
2, 136258, Note_on_c, 0, 60, 0
2, 136258, Note_on_c, 0, 72, 0
2, 136267, Note_on_c, 0, 72, 97
2, 136269, Note_on_c, 0, 44, 81
2, 136269, Note_on_c, 0, 60, 83
2, 136427, Note_on_c, 0, 44, 0
2, 136432, Note_on_c, 0, 74, 101
2, 136435, Note_on_c, 0, 48, 0
2, 136437, Note_on_c, 0, 62, 102
2, 136438, Note_on_c, 0, 44, 79
2, 136440, Note_on_c, 0, 48, 72
2, 136443, Note_on_c, 0, 70, 92
2, 136581, Note_on_c, 0, 74, 0
2, 136586, Note_on_c, 0, 74, 94
2, 136588, Note_on_c, 0, 62, 0
2, 136593, Note_on_c, 0, 62, 98
2, 136593, Note_on_c, 0, 60, 0
2, 136765, Note_on_c, 0, 62, 0
2, 136765, Note_on_c, 0, 70, 0
2, 136767, Control_c, 0, 64, 0
2, 136771, Note_on_c, 0, 65, 91
2, 136772, Note_on_c, 0, 70, 95
2, 136773, Note_on_c, 0, 32, 0
2, 136773, Note_on_c, 0, 46, 101
2, 136773, Note_on_c, 0, 62, 90
2, 136774, Note_on_c, 0, 58, 98
2, 136775, Note_on_c, 0, 75, 0
2, 136775, Note_on_c, 0, 72, 0
2, 136775, Note_on_c, 0, 44, 0
2, 136775, Note_on_c, 0, 34, 97
2, 136775, Note_on_c, 0, 63, 0
2, 136776, Note_on_c, 0, 74, 0
2, 136783, Note_on_c, 0, 68, 80
2, 136788, Note_on_c, 0, 51, 0
2, 136796, Note_on_c, 0, 48, 0
2, 136811, Note_on_c, 0, 46, 0
2, 136815, Note_on_c, 0, 34, 0
2, 136815, Note_on_c, 0, 58, 0
2, 136826, Control_c, 0, 64, 127
2, 136937, Note_on_c, 0, 41, 77
2, 137072, Note_on_c, 0, 65, 0
2, 137075, Note_on_c, 0, 41, 0
2, 137078, Control_c, 0, 64, 0
2, 137078, Note_on_c, 0, 62, 0
2, 137088, Note_on_c, 0, 68, 0
2, 137088, Note_on_c, 0, 70, 0
2, 137106, Note_on_c, 0, 91, 114
2, 137108, Note_on_c, 0, 84, 98
2, 137108, Note_on_c, 0, 87, 97
2, 137113, Note_on_c, 0, 36, 98
2, 137113, Note_on_c, 0, 79, 104
2, 137114, Note_on_c, 0, 24, 92
2, 137126, Control_c, 0, 64, 127
2, 137280, Note_on_c, 0, 79, 0
2, 137286, Note_on_c, 0, 67, 87
2, 137287, Note_on_c, 0, 79, 94
2, 137312, Note_on_c, 0, 75, 41
2, 137460, Note_on_c, 0, 72, 96
2, 137463, Note_on_c, 0, 60, 89
2, 137469, Note_on_c, 0, 55, 77
2, 137469, Note_on_c, 0, 48, 72
2, 137474, Note_on_c, 0, 51, 79
2, 137617, Note_on_c, 0, 48, 0
2, 137617, Note_on_c, 0, 84, 0
2, 137625, Note_on_c, 0, 51, 0
2, 137625, Note_on_c, 0, 72, 0
2, 137629, Note_on_c, 0, 48, 70
2, 137629, Note_on_c, 0, 84, 100
2, 137629, Note_on_c, 0, 72, 94
2, 137631, Note_on_c, 0, 51, 61
2, 137794, Note_on_c, 0, 60, 0
2, 137798, Control_c, 0, 64, 0
2, 137800, Note_on_c, 0, 77, 105
2, 137801, Note_on_c, 0, 89, 109
2, 137802, Note_on_c, 0, 51, 0
2, 137802, Note_on_c, 0, 55, 0
2, 137804, Note_on_c, 0, 82, 100
2, 137805, Note_on_c, 0, 60, 100
2, 137807, Note_on_c, 0, 63, 92
2, 137809, Note_on_c, 0, 51, 79
2, 137811, Note_on_c, 0, 55, 85
2, 137832, Control_c, 0, 64, 127
2, 137971, Note_on_c, 0, 36, 0
2, 137971, Note_on_c, 0, 77, 0
2, 137979, Note_on_c, 0, 36, 76
2, 137980, Note_on_c, 0, 77, 99
2, 137982, Note_on_c, 0, 65, 92
2, 138147, Note_on_c, 0, 60, 0
2, 138147, Note_on_c, 0, 72, 0
2, 138154, Note_on_c, 0, 72, 102
2, 138155, Note_on_c, 0, 51, 0
2, 138155, Note_on_c, 0, 55, 0
2, 138157, Note_on_c, 0, 60, 94
2, 138164, Note_on_c, 0, 55, 83
2, 138166, Note_on_c, 0, 51, 77
2, 138301, Note_on_c, 0, 24, 0
2, 138301, Note_on_c, 0, 48, 0
2, 138310, Note_on_c, 0, 48, 83
2, 138321, Note_on_c, 0, 71, 99
2, 138324, Note_on_c, 0, 84, 0
2, 138329, Note_on_c, 0, 84, 100
2, 138329, Note_on_c, 0, 83, 93
2, 138462, Control_c, 0, 64, 0
2, 138463, Note_on_c, 0, 51, 0
2, 138463, Note_on_c, 0, 63, 0
2, 138463, Note_on_c, 0, 82, 0
2, 138464, Note_on_c, 0, 77, 0
2, 138464, Note_on_c, 0, 60, 0
2, 138464, Note_on_c, 0, 89, 0
2, 138464, Note_on_c, 0, 72, 0
2, 138465, Note_on_c, 0, 71, 0
2, 138465, Note_on_c, 0, 83, 0
2, 138465, Note_on_c, 0, 67, 0
2, 138465, Note_on_c, 0, 55, 0
2, 138470, Note_on_c, 0, 91, 0
2, 138478, Note_on_c, 0, 65, 0
2, 138478, Note_on_c, 0, 87, 0
2, 138485, Note_on_c, 0, 36, 0
2, 138485, Note_on_c, 0, 48, 0
2, 138485, Note_on_c, 0, 75, 0
2, 138485, Note_on_c, 0, 79, 0
2, 138485, Note_on_c, 0, 84, 0
2, 138488, Note_on_c, 0, 87, 106
2, 138490, Note_on_c, 0, 48, 100
2, 138491, Note_on_c, 0, 75, 105
2, 138491, Note_on_c, 0, 36, 92
2, 138492, Note_on_c, 0, 84, 88
2, 138494, Note_on_c, 0, 79, 93
2, 138524, Control_c, 0, 64, 127
2, 138662, Note_on_c, 0, 75, 0
2, 138670, Note_on_c, 0, 36, 0
2, 138670, Note_on_c, 0, 48, 0
2, 138673, Note_on_c, 0, 75, 95
2, 138674, Note_on_c, 0, 63, 94
2, 138674, Note_on_c, 0, 48, 81
2, 138677, Note_on_c, 0, 36, 78
2, 138830, Note_on_c, 0, 72, 100
2, 138833, Note_on_c, 0, 60, 97
2, 138850, Note_on_c, 0, 55, 83
2, 138858, Note_on_c, 0, 51, 65
2, 138992, Note_on_c, 0, 72, 0
2, 138992, Note_on_c, 0, 84, 0
2, 138998, Note_on_c, 0, 84, 101
2, 139003, Note_on_c, 0, 72, 107
2, 139008, Note_on_c, 0, 36, 0
2, 139008, Note_on_c, 0, 48, 0
2, 139011, Note_on_c, 0, 48, 86
2, 139018, Note_on_c, 0, 36, 78
2, 139029, Note_on_c, 0, 82, 38
2, 139167, Note_on_c, 0, 86, 104
2, 139169, Note_on_c, 0, 60, 0
2, 139169, Note_on_c, 0, 79, 0
2, 139169, Note_on_c, 0, 82, 0
2, 139173, Note_on_c, 0, 74, 101
2, 139175, Note_on_c, 0, 82, 95
2, 139176, Note_on_c, 0, 51, 0
2, 139176, Note_on_c, 0, 55, 0
2, 139177, Note_on_c, 0, 79, 84
2, 139177, Note_on_c, 0, 60, 91
2, 139180, Note_on_c, 0, 55, 85
2, 139188, Note_on_c, 0, 51, 82
2, 139338, Note_on_c, 0, 74, 0
2, 139345, Note_on_c, 0, 48, 0
2, 139348, Note_on_c, 0, 74, 97
2, 139349, Note_on_c, 0, 62, 100
2, 139353, Note_on_c, 0, 67, 72
2, 139356, Note_on_c, 0, 48, 83
2, 139512, Note_on_c, 0, 70, 97
2, 139513, Note_on_c, 0, 58, 98
2, 139522, Note_on_c, 0, 55, 0
2, 139527, Note_on_c, 0, 55, 90
2, 139530, Note_on_c, 0, 51, 0
2, 139530, Note_on_c, 0, 63, 0
2, 139537, Note_on_c, 0, 63, 71
2, 139539, Note_on_c, 0, 51, 75
2, 139668, Note_on_c, 0, 48, 0
2, 139673, Note_on_c, 0, 48, 90
2, 139676, Note_on_c, 0, 70, 0
2, 139685, Note_on_c, 0, 70, 80
2, 139693, Note_on_c, 0, 39, 57
2, 139809, Note_on_c, 0, 36, 0
2, 139809, Note_on_c, 0, 62, 0
2, 139809, Control_c, 0, 64, 0
2, 139809, Note_on_c, 0, 79, 0
2, 139810, Note_on_c, 0, 82, 0
2, 139810, Note_on_c, 0, 63, 0
2, 139810, Note_on_c, 0, 74, 0
2, 139810, Note_on_c, 0, 48, 0
2, 139810, Note_on_c, 0, 86, 0
2, 139810, Note_on_c, 0, 87, 0
2, 139810, Note_on_c, 0, 75, 0
2, 139810, Note_on_c, 0, 51, 0
2, 139810, Note_on_c, 0, 72, 0
2, 139810, Note_on_c, 0, 55, 0
2, 139811, Note_on_c, 0, 58, 0
2, 139811, Note_on_c, 0, 60, 0
2, 139814, Note_on_c, 0, 39, 0
2, 139814, Note_on_c, 0, 67, 0
2, 139829, Note_on_c, 0, 70, 0
2, 139837, Note_on_c, 0, 84, 0
2, 139846, Note_on_c, 0, 91, 114
2, 139848, Note_on_c, 0, 84, 94
2, 139850, Note_on_c, 0, 79, 104
2, 139852, Note_on_c, 0, 86, 99
2, 139856, Note_on_c, 0, 46, 99
2, 139856, Note_on_c, 0, 34, 95
2, 139860, Control_c, 0, 64, 127
2, 140014, Note_on_c, 0, 34, 0
2, 140014, Note_on_c, 0, 46, 0
2, 140014, Note_on_c, 0, 79, 0
2, 140023, Note_on_c, 0, 79, 97
2, 140024, Note_on_c, 0, 67, 95
2, 140024, Note_on_c, 0, 34, 77
2, 140024, Note_on_c, 0, 46, 75
2, 140183, Note_on_c, 0, 46, 0
2, 140187, Note_on_c, 0, 72, 100
2, 140192, Note_on_c, 0, 60, 92
2, 140194, Note_on_c, 0, 53, 89
2, 140194, Note_on_c, 0, 62, 89
2, 140194, Note_on_c, 0, 46, 86
2, 140196, Note_on_c, 0, 50, 80
2, 140344, Note_on_c, 0, 72, 0
2, 140344, Note_on_c, 0, 84, 0
2, 140354, Note_on_c, 0, 84, 103
2, 140355, Note_on_c, 0, 72, 90
2, 140359, Note_on_c, 0, 46, 0
2, 140365, Note_on_c, 0, 46, 72
2, 140367, Note_on_c, 0, 34, 0
2, 140373, Note_on_c, 0, 34, 64
2, 140525, Note_on_c, 0, 89, 110
2, 140528, Note_on_c, 0, 50, 0
2, 140528, Note_on_c, 0, 53, 0
2, 140528, Note_on_c, 0, 77, 107
2, 140532, Note_on_c, 0, 82, 99
2, 140533, Note_on_c, 0, 86, 0
2, 140537, Note_on_c, 0, 53, 87
2, 140538, Note_on_c, 0, 50, 83
2, 140539, Note_on_c, 0, 58, 97
2, 140697, Note_on_c, 0, 77, 0
2, 140701, Note_on_c, 0, 77, 89
2, 140703, Note_on_c, 0, 65, 91
2, 140705, Note_on_c, 0, 46, 0
2, 140715, Note_on_c, 0, 46, 86
2, 140858, Note_on_c, 0, 72, 0
2, 140866, Note_on_c, 0, 60, 0
2, 140869, Note_on_c, 0, 72, 103
2, 140871, Note_on_c, 0, 60, 96
2, 140881, Note_on_c, 0, 46, 0
2, 140881, Note_on_c, 0, 53, 0
2, 140887, Note_on_c, 0, 46, 78
2, 140889, Note_on_c, 0, 50, 0
2, 140892, Note_on_c, 0, 53, 84
2, 140895, Note_on_c, 0, 50, 68
2, 141027, Note_on_c, 0, 72, 0
2, 141027, Note_on_c, 0, 84, 0
2, 141033, Note_on_c, 0, 84, 97
2, 141034, Note_on_c, 0, 72, 99
2, 141035, Note_on_c, 0, 46, 0
2, 141036, Note_on_c, 0, 58, 0
2, 141046, Note_on_c, 0, 46, 85
2, 141183, Note_on_c, 0, 65, 0
2, 141184, Note_on_c, 0, 53, 0
2, 141184, Note_on_c, 0, 62, 0
2, 141184, Note_on_c, 0, 82, 0
2, 141184, Note_on_c, 0, 89, 0
2, 141184, Note_on_c, 0, 77, 0
2, 141184, Note_on_c, 0, 72, 0
2, 141184, Note_on_c, 0, 50, 0
2, 141184, Note_on_c, 0, 60, 0
2, 141184, Note_on_c, 0, 91, 0
2, 141184, Control_c, 0, 64, 0
2, 141185, Note_on_c, 0, 84, 0
2, 141196, Note_on_c, 0, 67, 0
2, 141204, Note_on_c, 0, 34, 0
2, 141204, Note_on_c, 0, 46, 0
2, 141204, Note_on_c, 0, 79, 0
2, 141206, Note_on_c, 0, 87, 108
2, 141208, Note_on_c, 0, 75, 108
2, 141210, Note_on_c, 0, 79, 98
2, 141212, Note_on_c, 0, 34, 98
2, 141215, Note_on_c, 0, 46, 100
2, 141227, Control_c, 0, 64, 127
2, 141381, Note_on_c, 0, 75, 0
2, 141389, Note_on_c, 0, 75, 102
2, 141392, Note_on_c, 0, 63, 102
2, 141396, Note_on_c, 0, 46, 0
2, 141405, Note_on_c, 0, 46, 81
2, 141407, Note_on_c, 0, 58, 81
2, 141554, Note_on_c, 0, 72, 102
2, 141556, Note_on_c, 0, 60, 99
2, 141561, Note_on_c, 0, 53, 88
2, 141576, Note_on_c, 0, 50, 78
2, 141711, Note_on_c, 0, 72, 0
2, 141721, Note_on_c, 0, 84, 103
2, 141722, Note_on_c, 0, 72, 97
2, 141726, Note_on_c, 0, 34, 0
2, 141734, Note_on_c, 0, 34, 62
2, 141888, Note_on_c, 0, 46, 0
2, 141888, Note_on_c, 0, 53, 0
2, 141894, Note_on_c, 0, 86, 106
2, 141895, Note_on_c, 0, 50, 0
2, 141895, Note_on_c, 0, 58, 0
2, 141897, Note_on_c, 0, 74, 109
2, 141898, Note_on_c, 0, 82, 99
2, 141898, Note_on_c, 0, 46, 91
2, 141898, Note_on_c, 0, 53, 86
2, 141899, Note_on_c, 0, 50, 83
2, 141899, Note_on_c, 0, 58, 97
2, 142064, Note_on_c, 0, 46, 0
2, 142064, Note_on_c, 0, 58, 0
2, 142072, Note_on_c, 0, 53, 0
2, 142073, Note_on_c, 0, 62, 101
2, 142075, Note_on_c, 0, 58, 89
2, 142076, Note_on_c, 0, 46, 82
2, 142076, Note_on_c, 0, 53, 68
2, 142082, Note_on_c, 0, 56, 71
2, 142218, Note_on_c, 0, 58, 0
2, 142229, Note_on_c, 0, 58, 101
2, 142229, Note_on_c, 0, 70, 99
2, 142241, Note_on_c, 0, 53, 0
2, 142241, Note_on_c, 0, 56, 0
2, 142248, Note_on_c, 0, 46, 0
2, 142248, Note_on_c, 0, 50, 0
2, 142252, Note_on_c, 0, 53, 82
2, 142253, Note_on_c, 0, 46, 85
2, 142260, Note_on_c, 0, 50, 85
2, 142387, Note_on_c, 0, 46, 0
2, 142396, Note_on_c, 0, 46, 82
2, 142402, Note_on_c, 0, 72, 0
2, 142406, Note_on_c, 0, 73, 75
2, 142413, Note_on_c, 0, 72, 66
2, 142523, Note_on_c, 0, 34, 0
2, 142524, Note_on_c, 0, 79, 0
2, 142524, Note_on_c, 0, 46, 0
2, 142525, Note_on_c, 0, 63, 0
2, 142525, Note_on_c, 0, 53, 0
2, 142525, Note_on_c, 0, 50, 0
2, 142525, Note_on_c, 0, 62, 0
2, 142526, Note_on_c, 0, 87, 0
2, 142526, Control_c, 0, 64, 0
2, 142526, Note_on_c, 0, 58, 0
2, 142526, Note_on_c, 0, 82, 0
2, 142526, Note_on_c, 0, 75, 0
2, 142526, Note_on_c, 0, 86, 0
2, 142527, Note_on_c, 0, 60, 0
2, 142527, Note_on_c, 0, 72, 0
2, 142527, Note_on_c, 0, 84, 0
2, 142540, Note_on_c, 0, 70, 0
2, 142540, Note_on_c, 0, 73, 0
2, 142540, Note_on_c, 0, 74, 0
2, 142565, Note_on_c, 0, 91, 112
2, 142568, Note_on_c, 0, 86, 97
2, 142568, Note_on_c, 0, 84, 93
2, 142569, Note_on_c, 0, 79, 101
2, 142573, Note_on_c, 0, 32, 96
2, 142575, Note_on_c, 0, 44, 99
2, 142579, Control_c, 0, 64, 127
2, 142740, Note_on_c, 0, 79, 0
2, 142747, Note_on_c, 0, 79, 98
2, 142747, Note_on_c, 0, 67, 96
2, 142748, Note_on_c, 0, 44, 0
2, 142753, Note_on_c, 0, 44, 85
2, 142755, Note_on_c, 0, 32, 0
2, 142761, Note_on_c, 0, 32, 72
2, 142909, Note_on_c, 0, 44, 0
2, 142911, Note_on_c, 0, 72, 104
2, 142913, Note_on_c, 0, 60, 97
2, 142918, Note_on_c, 0, 44, 75
2, 142918, Note_on_c, 0, 48, 79
2, 142928, Note_on_c, 0, 51, 81
2, 143070, Note_on_c, 0, 72, 0
2, 143070, Note_on_c, 0, 84, 0
2, 143077, Note_on_c, 0, 84, 102
2, 143078, Note_on_c, 0, 44, 0
2, 143079, Note_on_c, 0, 72, 108
2, 143086, Note_on_c, 0, 32, 0
2, 143089, Note_on_c, 0, 44, 78
2, 143097, Note_on_c, 0, 32, 72
2, 143247, Note_on_c, 0, 32, 0
2, 143247, Note_on_c, 0, 44, 0
2, 143247, Note_on_c, 0, 48, 0
2, 143250, Note_on_c, 0, 89, 112
2, 143250, Note_on_c, 0, 82, 102
2, 143250, Note_on_c, 0, 77, 110
2, 143255, Note_on_c, 0, 51, 0
2, 143255, Note_on_c, 0, 48, 84
2, 143257, Note_on_c, 0, 36, 82
2, 143257, Note_on_c, 0, 32, 85
2, 143258, Note_on_c, 0, 41, 84
2, 143258, Note_on_c, 0, 44, 89
2, 143260, Note_on_c, 0, 51, 85
2, 143262, Note_on_c, 0, 41, 0
2, 143408, Note_on_c, 0, 77, 0
2, 143416, Note_on_c, 0, 32, 0
2, 143416, Note_on_c, 0, 44, 0
2, 143420, Note_on_c, 0, 77, 103
2, 143421, Note_on_c, 0, 44, 80
2, 143424, Note_on_c, 0, 65, 97
2, 143424, Note_on_c, 0, 32, 72
2, 143585, Note_on_c, 0, 60, 0
2, 143585, Note_on_c, 0, 72, 0
2, 143594, Note_on_c, 0, 72, 104
2, 143596, Note_on_c, 0, 60, 99
2, 143608, Note_on_c, 0, 48, 0
2, 143608, Note_on_c, 0, 51, 0
2, 143614, Note_on_c, 0, 48, 75
2, 143619, Note_on_c, 0, 51, 87
2, 143754, Note_on_c, 0, 44, 0
2, 143754, Note_on_c, 0, 72, 0
2, 143754, Note_on_c, 0, 84, 0
2, 143759, Note_on_c, 0, 84, 100
2, 143761, Note_on_c, 0, 72, 97
2, 143764, Note_on_c, 0, 44, 86
2, 143766, Note_on_c, 0, 56, 69
2, 143884, Note_on_c, 0, 36, 0
2, 143892, Note_on_c, 0, 86, 0
2, 143895, Control_c, 0, 64, 0
2, 143895, Note_on_c, 0, 65, 0
2, 143896, Note_on_c, 0, 82, 0
2, 143896, Note_on_c, 0, 51, 0
2, 143896, Note_on_c, 0, 48, 0
2, 143896, Note_on_c, 0, 77, 0
2, 143896, Note_on_c, 0, 89, 0
2, 143896, Note_on_c, 0, 56, 0
2, 143896, Note_on_c, 0, 60, 0
2, 143897, Note_on_c, 0, 72, 0
2, 143898, Note_on_c, 0, 91, 0
2, 143907, Note_on_c, 0, 67, 0
2, 143915, Note_on_c, 0, 32, 0
2, 143915, Note_on_c, 0, 79, 0
2, 143915, Note_on_c, 0, 84, 0
2, 143918, Note_on_c, 0, 87, 106
2, 143919, Note_on_c, 0, 75, 108
2, 143919, Note_on_c, 0, 84, 87
2, 143922, Note_on_c, 0, 79, 98
2, 143923, Note_on_c, 0, 44, 0
2, 143926, Note_on_c, 0, 32, 96
2, 143927, Note_on_c, 0, 44, 98
2, 143946, Control_c, 0, 64, 127
2, 144069, Note_on_c, 0, 32, 0
2, 144092, Note_on_c, 0, 44, 0
2, 144092, Note_on_c, 0, 75, 0
2, 144098, Note_on_c, 0, 75, 99
2, 144101, Note_on_c, 0, 63, 98
2, 144102, Note_on_c, 0, 44, 85
2, 144271, Note_on_c, 0, 72, 101
2, 144272, Note_on_c, 0, 60, 93
2, 144288, Note_on_c, 0, 48, 70
2, 144290, Note_on_c, 0, 51, 71
2, 144437, Note_on_c, 0, 72, 0
2, 144437, Note_on_c, 0, 84, 0
2, 144445, Note_on_c, 0, 44, 0
2, 144446, Note_on_c, 0, 84, 101
2, 144447, Note_on_c, 0, 72, 102
2, 144453, Note_on_c, 0, 56, 79
2, 144454, Note_on_c, 0, 44, 86
2, 144612, Note_on_c, 0, 86, 107
2, 144617, Note_on_c, 0, 74, 108
2, 144618, Note_on_c, 0, 82, 100
2, 144622, Note_on_c, 0, 44, 0
2, 144629, Note_on_c, 0, 51, 0
2, 144629, Note_on_c, 0, 56, 0
2, 144632, Note_on_c, 0, 44, 86
2, 144635, Note_on_c, 0, 51, 73
2, 144638, Note_on_c, 0, 56, 81
2, 144783, Note_on_c, 0, 74, 0
2, 144789, Note_on_c, 0, 74, 103
2, 144791, Note_on_c, 0, 44, 0
2, 144794, Note_on_c, 0, 62, 97
2, 144798, Note_on_c, 0, 44, 85
2, 144821, Note_on_c, 0, 51, 0
2, 144827, Note_on_c, 0, 51, 36
2, 144949, Note_on_c, 0, 58, 98
2, 144951, Note_on_c, 0, 70, 97
2, 144975, Note_on_c, 0, 48, 0
2, 144975, Note_on_c, 0, 51, 0
2, 144980, Note_on_c, 0, 51, 74
2, 144981, Note_on_c, 0, 48, 71
2, 144983, Note_on_c, 0, 56, 0
2, 145105, Note_on_c, 0, 70, 0
2, 145105, Note_on_c, 0, 82, 0
2, 145110, Note_on_c, 0, 82, 94
2, 145113, Note_on_c, 0, 44, 0
2, 145117, Note_on_c, 0, 70, 89
2, 145122, Note_on_c, 0, 44, 79
2, 145143, Note_on_c, 0, 80, 37
2, 145259, Note_on_c, 0, 80, 0
2, 145259, Note_on_c, 0, 63, 0
2, 145259, Note_on_c, 0, 62, 0
2, 145260, Note_on_c, 0, 79, 0
2, 145260, Note_on_c, 0, 48, 0
2, 145260, Note_on_c, 0, 74, 0
2, 145260, Note_on_c, 0, 75, 0
2, 145260, Note_on_c, 0, 86, 0
2, 145261, Note_on_c, 0, 51, 0
2, 145261, Note_on_c, 0, 82, 0
2, 145261, Note_on_c, 0, 72, 0
2, 145261, Note_on_c, 0, 87, 0
2, 145261, Note_on_c, 0, 58, 0
2, 145261, Note_on_c, 0, 60, 0
2, 145261, Note_on_c, 0, 84, 0
2, 145261, Control_c, 0, 64, 0
2, 145262, Note_on_c, 0, 44, 0
2, 145274, Note_on_c, 0, 70, 0
2, 145291, Note_on_c, 0, 85, 100
2, 145295, Note_on_c, 0, 91, 113
2, 145300, Note_on_c, 0, 31, 97
2, 145301, Note_on_c, 0, 79, 108
2, 145303, Note_on_c, 0, 43, 96
2, 145328, Control_c, 0, 64, 127
2, 145466, Note_on_c, 0, 79, 0
2, 145473, Note_on_c, 0, 79, 98
2, 145473, Note_on_c, 0, 67, 96
2, 145474, Note_on_c, 0, 31, 0
2, 145474, Note_on_c, 0, 43, 0
2, 145479, Note_on_c, 0, 43, 87
2, 145482, Note_on_c, 0, 31, 81
2, 145633, Note_on_c, 0, 72, 103
2, 145635, Note_on_c, 0, 43, 0
2, 145638, Note_on_c, 0, 60, 98
2, 145640, Note_on_c, 0, 43, 89
2, 145644, Note_on_c, 0, 50, 85
2, 145799, Note_on_c, 0, 84, 99
2, 145812, Note_on_c, 0, 31, 0
2, 145812, Note_on_c, 0, 43, 0
2, 145818, Note_on_c, 0, 43, 60
2, 145823, Note_on_c, 0, 31, 68
2, 145824, Note_on_c, 0, 71, 46
2, 145966, Note_on_c, 0, 50, 0
2, 145966, Note_on_c, 0, 60, 0
2, 145966, Note_on_c, 0, 84, 0
2, 145968, Note_on_c, 0, 89, 112
2, 145970, Note_on_c, 0, 77, 107
2, 145971, Note_on_c, 0, 50, 94
2, 145971, Note_on_c, 0, 84, 97
2, 145976, Note_on_c, 0, 60, 103
2, 145994, Note_on_c, 0, 51, 68
2, 146135, Note_on_c, 0, 31, 0
2, 146135, Note_on_c, 0, 43, 0
2, 146135, Note_on_c, 0, 77, 0
2, 146144, Note_on_c, 0, 43, 94
2, 146144, Note_on_c, 0, 31, 88
2, 146146, Note_on_c, 0, 77, 94
2, 146150, Note_on_c, 0, 65, 94
2, 146311, Note_on_c, 0, 60, 0
2, 146311, Note_on_c, 0, 72, 0
2, 146317, Note_on_c, 0, 72, 98
2, 146319, Note_on_c, 0, 43, 0
2, 146321, Note_on_c, 0, 60, 92
2, 146324, Note_on_c, 0, 55, 92
2, 146327, Note_on_c, 0, 50, 0
2, 146330, Note_on_c, 0, 43, 89
2, 146331, Note_on_c, 0, 50, 93
2, 146472, Note_on_c, 0, 84, 0
2, 146480, Note_on_c, 0, 31, 0
2, 146480, Note_on_c, 0, 43, 0
2, 146480, Note_on_c, 0, 72, 0
2, 146482, Note_on_c, 0, 84, 100
2, 146484, Note_on_c, 0, 72, 94
2, 146485, Note_on_c, 0, 43, 91
2, 146487, Note_on_c, 0, 31, 82
2, 146622, Control_c, 0, 64, 0
2, 146631, Note_on_c, 0, 60, 0
2, 146631, Note_on_c, 0, 51, 0
2, 146632, Note_on_c, 0, 85, 0
2, 146632, Note_on_c, 0, 77, 0
2, 146633, Note_on_c, 0, 72, 0
2, 146633, Note_on_c, 0, 50, 0
2, 146633, Note_on_c, 0, 55, 0
2, 146634, Note_on_c, 0, 71, 0
2, 146634, Note_on_c, 0, 79, 0
2, 146634, Note_on_c, 0, 84, 0
2, 146635, Note_on_c, 0, 89, 0
2, 146636, Note_on_c, 0, 91, 0
2, 146636, Note_on_c, 0, 65, 0
2, 146638, Note_on_c, 0, 87, 103
2, 146641, Note_on_c, 0, 31, 0
2, 146641, Note_on_c, 0, 43, 0
2, 146643, Note_on_c, 0, 79, 96
2, 146643, Note_on_c, 0, 75, 108
2, 146644, Note_on_c, 0, 84, 83
2, 146645, Note_on_c, 0, 43, 101
2, 146649, Note_on_c, 0, 67, 0
2, 146652, Note_on_c, 0, 31, 94
2, 146672, Control_c, 0, 64, 127
2, 146803, Note_on_c, 0, 75, 0
2, 146810, Note_on_c, 0, 31, 0
2, 146810, Note_on_c, 0, 43, 0
2, 146814, Note_on_c, 0, 75, 104
2, 146817, Note_on_c, 0, 63, 100
2, 146819, Note_on_c, 0, 43, 90
2, 146821, Note_on_c, 0, 31, 79
2, 146987, Note_on_c, 0, 43, 0
2, 146996, Note_on_c, 0, 55, 94
2, 146996, Note_on_c, 0, 43, 90
2, 146998, Note_on_c, 0, 72, 100
2, 146998, Note_on_c, 0, 60, 98
2, 146999, Note_on_c, 0, 50, 89
2, 147000, Note_on_c, 0, 71, 89
2, 147156, Note_on_c, 0, 72, 0
2, 147156, Note_on_c, 0, 84, 0
2, 147164, Note_on_c, 0, 31, 0
2, 147164, Note_on_c, 0, 43, 0
2, 147167, Note_on_c, 0, 84, 103
2, 147167, Note_on_c, 0, 72, 107
2, 147168, Note_on_c, 0, 43, 95
2, 147173, Note_on_c, 0, 31, 88
2, 147333, Note_on_c, 0, 79, 0
2, 147340, Note_on_c, 0, 43, 0
2, 147340, Note_on_c, 0, 50, 0
2, 147340, Note_on_c, 0, 55, 0
2, 147343, Note_on_c, 0, 86, 105
2, 147344, Note_on_c, 0, 79, 98
2, 147344, Note_on_c, 0, 74, 105
2, 147345, Note_on_c, 0, 50, 84
2, 147345, Note_on_c, 0, 59, 99
2, 147346, Note_on_c, 0, 43, 86
2, 147347, Note_on_c, 0, 55, 88
2, 147517, Note_on_c, 0, 74, 0
2, 147525, Note_on_c, 0, 31, 0
2, 147525, Note_on_c, 0, 43, 0
2, 147527, Note_on_c, 0, 74, 99
2, 147528, Note_on_c, 0, 62, 105
2, 147529, Note_on_c, 0, 43, 89
2, 147532, Note_on_c, 0, 31, 84
2, 147709, Note_on_c, 0, 43, 0
2, 147709, Note_on_c, 0, 50, 0
2, 147709, Note_on_c, 0, 55, 0
2, 147709, Note_on_c, 0, 59, 0
2, 147709, Note_on_c, 0, 62, 0
2, 147709, Note_on_c, 0, 71, 0
2, 147713, Note_on_c, 0, 71, 105
2, 147717, Note_on_c, 0, 62, 104
2, 147717, Note_on_c, 0, 59, 104
2, 147720, Note_on_c, 0, 55, 97
2, 147720, Note_on_c, 0, 50, 97
2, 147720, Note_on_c, 0, 43, 96
2, 148143, Control_c, 0, 64, 0
2, 148145, Note_on_c, 0, 86, 0
2, 148145, Note_on_c, 0, 62, 0
2, 148145, Note_on_c, 0, 87, 0
2, 148145, Note_on_c, 0, 71, 0
2, 148145, Note_on_c, 0, 84, 0
2, 148145, Note_on_c, 0, 74, 0
2, 148145, Note_on_c, 0, 60, 0
2, 148146, Note_on_c, 0, 59, 0
2, 148146, Note_on_c, 0, 63, 0
2, 148148, Note_on_c, 0, 31, 0
2, 148154, Note_on_c, 0, 79, 0
2, 148162, Note_on_c, 0, 43, 0
2, 148162, Note_on_c, 0, 50, 0
2, 148162, Note_on_c, 0, 55, 0
2, 148162, Note_on_c, 0, 72, 0
2, 148162, Note_on_c, 0, 75, 0
2, 148165, Note_on_c, 0, 79, 110
2, 148166, Note_on_c, 0, 67, 108
2, 148166, Note_on_c, 0, 48, 103
2, 148167, Note_on_c, 0, 72, 105
2, 148168, Note_on_c, 0, 75, 99
2, 148169, Note_on_c, 0, 36, 99
2, 148247, Control_c, 0, 64, 127
2, 148262, Note_on_c, 0, 36, 0
2, 148270, Note_on_c, 0, 67, 0
2, 148405, Note_on_c, 0, 67, 85
2, 148409, Note_on_c, 0, 55, 59
2, 148454, Note_on_c, 0, 72, 0
2, 148465, Note_on_c, 0, 72, 79
2, 148508, Note_on_c, 0, 75, 0
2, 148519, Note_on_c, 0, 75, 87
2, 148561, Note_on_c, 0, 48, 0
2, 148566, Note_on_c, 0, 60, 86
2, 148567, Note_on_c, 0, 48, 80
2, 148600, Note_on_c, 0, 79, 0
2, 148605, Note_on_c, 0, 79, 87
2, 148662, Note_on_c, 0, 84, 80
2, 148698, Note_on_c, 0, 87, 90
2, 148715, Note_on_c, 0, 48, 0
2, 148715, Note_on_c, 0, 60, 0
2, 148722, Note_on_c, 0, 48, 86
2, 148723, Note_on_c, 0, 60, 94
2, 148782, Note_on_c, 0, 91, 86
2, 148824, Note_on_c, 0, 96, 94
2, 148862, Note_on_c, 0, 99, 66
2, 148888, Note_on_c, 0, 62, 99
2, 148895, Note_on_c, 0, 50, 95
2, 148984, Note_on_c, 0, 96, 0
2, 148988, Note_on_c, 0, 96, 91
2, 149015, Note_on_c, 0, 91, 0
2, 149025, Note_on_c, 0, 91, 87
2, 149038, Note_on_c, 0, 62, 0
2, 149045, Note_on_c, 0, 50, 0
2, 149047, Note_on_c, 0, 62, 83
2, 149049, Note_on_c, 0, 86, 73
2, 149049, Note_on_c, 0, 50, 77
2, 149107, Note_on_c, 0, 87, 0
2, 149113, Note_on_c, 0, 87, 84
2, 149145, Note_on_c, 0, 84, 0
2, 149154, Note_on_c, 0, 84, 78
2, 149222, Note_on_c, 0, 79, 0
2, 149224, Note_on_c, 0, 63, 89
2, 149226, Note_on_c, 0, 51, 93
2, 149229, Note_on_c, 0, 79, 76
2, 149283, Note_on_c, 0, 75, 0
2, 149294, Note_on_c, 0, 75, 81
2, 149329, Note_on_c, 0, 72, 0
2, 149338, Note_on_c, 0, 72, 78
2, 149391, Note_on_c, 0, 51, 0
2, 149391, Note_on_c, 0, 63, 0
2, 149391, Note_on_c, 0, 67, 0
2, 149395, Note_on_c, 0, 63, 91
2, 149400, Note_on_c, 0, 51, 87
2, 149402, Note_on_c, 0, 67, 76
2, 149544, Control_c, 0, 64, 0
2, 149544, Note_on_c, 0, 86, 0
2, 149548, Note_on_c, 0, 50, 0
2, 149548, Note_on_c, 0, 96, 0
2, 149548, Note_on_c, 0, 63, 0
2, 149548, Note_on_c, 0, 91, 0
2, 149548, Note_on_c, 0, 99, 0
2, 149548, Note_on_c, 0, 60, 0
2, 149548, Note_on_c, 0, 67, 0
2, 149548, Note_on_c, 0, 51, 0
2, 149548, Note_on_c, 0, 79, 0
2, 149548, Note_on_c, 0, 62, 0
2, 149548, Note_on_c, 0, 84, 0
2, 149560, Note_on_c, 0, 48, 0
2, 149560, Note_on_c, 0, 55, 0
2, 149560, Note_on_c, 0, 72, 0
2, 149560, Note_on_c, 0, 87, 0
2, 149566, Note_on_c, 0, 77, 109
2, 149568, Note_on_c, 0, 75, 0
2, 149569, Note_on_c, 0, 72, 100
2, 149571, Note_on_c, 0, 48, 100
2, 149571, Note_on_c, 0, 65, 105
2, 149572, Note_on_c, 0, 36, 97
2, 149574, Note_on_c, 0, 75, 99
2, 149667, Control_c, 0, 64, 127
2, 149744, Note_on_c, 0, 48, 0
2, 149753, Note_on_c, 0, 67, 72
2, 149754, Note_on_c, 0, 48, 59
2, 149813, Note_on_c, 0, 72, 0
2, 149819, Note_on_c, 0, 72, 76
2, 149867, Note_on_c, 0, 75, 0
2, 149873, Note_on_c, 0, 75, 84
2, 149928, Note_on_c, 0, 48, 0
2, 149933, Note_on_c, 0, 48, 76
2, 149965, Note_on_c, 0, 79, 79
2, 150010, Note_on_c, 0, 84, 81
2, 150056, Note_on_c, 0, 87, 87
2, 150082, Note_on_c, 0, 48, 0
2, 150088, Note_on_c, 0, 48, 88
2, 150128, Note_on_c, 0, 91, 91
2, 150177, Note_on_c, 0, 96, 95
2, 150216, Note_on_c, 0, 99, 84
2, 150270, Note_on_c, 0, 50, 87
2, 150272, Note_on_c, 0, 38, 70
2, 150328, Note_on_c, 0, 96, 0
2, 150339, Note_on_c, 0, 96, 90
2, 150374, Note_on_c, 0, 91, 0
2, 150384, Note_on_c, 0, 91, 86
2, 150420, Note_on_c, 0, 50, 0
2, 150424, Note_on_c, 0, 62, 94
2, 150428, Note_on_c, 0, 50, 83
2, 150466, Note_on_c, 0, 87, 0
2, 150472, Note_on_c, 0, 87, 85
2, 150504, Note_on_c, 0, 84, 0
2, 150515, Note_on_c, 0, 84, 77
2, 150566, Note_on_c, 0, 79, 0
2, 150577, Note_on_c, 0, 79, 75
2, 150603, Note_on_c, 0, 63, 89
2, 150603, Note_on_c, 0, 51, 87
2, 150650, Note_on_c, 0, 75, 0
2, 150660, Note_on_c, 0, 75, 80
2, 150712, Note_on_c, 0, 72, 0
2, 150720, Note_on_c, 0, 72, 73
2, 150773, Note_on_c, 0, 48, 0
2, 150773, Note_on_c, 0, 51, 0
2, 150773, Note_on_c, 0, 63, 0
2, 150773, Note_on_c, 0, 67, 0
2, 150777, Note_on_c, 0, 51, 89
2, 150781, Note_on_c, 0, 63, 80
2, 150783, Note_on_c, 0, 67, 66
2, 150785, Note_on_c, 0, 48, 72
2, 150873, Note_on_c, 0, 63, 0
2, 150877, Note_on_c, 0, 63, 64
2, 150956, Note_on_c, 0, 80, 105
2, 150960, Note_on_c, 0, 65, 0
2, 150960, Note_on_c, 0, 99, 0
2, 150962, Note_on_c, 0, 62, 0
2, 150962, Note_on_c, 0, 84, 0
2, 150962, Note_on_c, 0, 75, 0
2, 150962, Note_on_c, 0, 77, 0
2, 150962, Note_on_c, 0, 63, 0
2, 150962, Note_on_c, 0, 87, 0
2, 150962, Note_on_c, 0, 51, 0
2, 150962, Note_on_c, 0, 48, 0
2, 150963, Note_on_c, 0, 68, 103
2, 150964, Control_c, 0, 64, 0
2, 150965, Note_on_c, 0, 38, 0
2, 150965, Note_on_c, 0, 50, 0
2, 150965, Note_on_c, 0, 72, 0
2, 150969, Note_on_c, 0, 72, 99
2, 150970, Note_on_c, 0, 50, 97
2, 150970, Note_on_c, 0, 38, 95
2, 150971, Note_on_c, 0, 74, 96
2, 150973, Note_on_c, 0, 67, 0
2, 150973, Note_on_c, 0, 91, 0
2, 150973, Note_on_c, 0, 96, 0
2, 150981, Note_on_c, 0, 79, 0
2, 150988, Note_on_c, 0, 36, 0
2, 151042, Control_c, 0, 64, 127
2, 151165, Note_on_c, 0, 68, 0
2, 151170, Note_on_c, 0, 68, 72
2, 151196, Note_on_c, 0, 72, 0
2, 151207, Note_on_c, 0, 72, 70
2, 151257, Note_on_c, 0, 74, 0
2, 151263, Note_on_c, 0, 74, 64
2, 151323, Note_on_c, 0, 48, 77
2, 151324, Note_on_c, 0, 60, 80
2, 151334, Note_on_c, 0, 80, 0
2, 151339, Note_on_c, 0, 80, 80
2, 151397, Note_on_c, 0, 84, 84
2, 151438, Note_on_c, 0, 86, 89
2, 151464, Note_on_c, 0, 48, 0
2, 151476, Note_on_c, 0, 48, 95
2, 151530, Note_on_c, 0, 92, 93
2, 151571, Note_on_c, 0, 96, 92
2, 151610, Note_on_c, 0, 98, 89
2, 151649, Note_on_c, 0, 50, 0
2, 151653, Note_on_c, 0, 62, 99
2, 151655, Note_on_c, 0, 50, 95
2, 151656, Note_on_c, 0, 48, 0
2, 151661, Note_on_c, 0, 48, 70
2, 151718, Note_on_c, 0, 96, 0
2, 151728, Note_on_c, 0, 96, 86
2, 151772, Note_on_c, 0, 92, 0
2, 151776, Note_on_c, 0, 92, 82
2, 151810, Note_on_c, 0, 50, 0
2, 151810, Note_on_c, 0, 62, 0
2, 151817, Note_on_c, 0, 62, 96
2, 151821, Note_on_c, 0, 50, 90
2, 151872, Note_on_c, 0, 86, 0
2, 151876, Note_on_c, 0, 86, 83
2, 151902, Note_on_c, 0, 84, 0
2, 151910, Note_on_c, 0, 84, 76
2, 151979, Note_on_c, 0, 80, 0
2, 151983, Note_on_c, 0, 80, 69
2, 151985, Note_on_c, 0, 63, 90
2, 151988, Note_on_c, 0, 51, 83
2, 152056, Note_on_c, 0, 74, 0
2, 152060, Note_on_c, 0, 74, 78
2, 152102, Note_on_c, 0, 72, 0
2, 152113, Note_on_c, 0, 72, 73
2, 152148, Note_on_c, 0, 63, 0
2, 152154, Note_on_c, 0, 63, 85
2, 152156, Note_on_c, 0, 51, 0
2, 152163, Note_on_c, 0, 68, 0
2, 152166, Note_on_c, 0, 51, 84
2, 152175, Note_on_c, 0, 68, 76
2, 152319, Note_on_c, 0, 92, 0
2, 152319, Control_c, 0, 64, 0
2, 152319, Note_on_c, 0, 51, 0
2, 152320, Note_on_c, 0, 84, 0
2, 152320, Note_on_c, 0, 48, 0
2, 152320, Note_on_c, 0, 98, 0
2, 152320, Note_on_c, 0, 86, 0
2, 152320, Note_on_c, 0, 60, 0
2, 152320, Note_on_c, 0, 63, 0
2, 152320, Note_on_c, 0, 62, 0
2, 152320, Note_on_c, 0, 50, 0
2, 152320, Note_on_c, 0, 80, 0
2, 152325, Note_on_c, 0, 72, 0
2, 152325, Note_on_c, 0, 74, 0
2, 152328, Note_on_c, 0, 79, 104
2, 152330, Note_on_c, 0, 67, 101
2, 152332, Note_on_c, 0, 38, 0
2, 152332, Note_on_c, 0, 68, 0
2, 152332, Note_on_c, 0, 96, 0
2, 152336, Note_on_c, 0, 72, 102
2, 152336, Note_on_c, 0, 74, 96
2, 152338, Note_on_c, 0, 38, 97
2, 152372, Note_on_c, 0, 67, 0
2, 152409, Control_c, 0, 64, 127
2, 152508, Note_on_c, 0, 68, 73
2, 152563, Note_on_c, 0, 72, 0
2, 152570, Note_on_c, 0, 72, 76
2, 152616, Note_on_c, 0, 74, 0
2, 152621, Note_on_c, 0, 74, 68
2, 152696, Note_on_c, 0, 60, 83
2, 152698, Note_on_c, 0, 48, 80
2, 152714, Note_on_c, 0, 80, 76
2, 152774, Note_on_c, 0, 84, 81
2, 152811, Note_on_c, 0, 86, 84
2, 152847, Note_on_c, 0, 48, 0
2, 152847, Note_on_c, 0, 60, 0
2, 152857, Note_on_c, 0, 60, 86
2, 152858, Note_on_c, 0, 48, 83
2, 152918, Note_on_c, 0, 92, 85
2, 152966, Note_on_c, 0, 96, 87
2, 152986, Note_on_c, 0, 98, 89
2, 153035, Note_on_c, 0, 62, 86
2, 153035, Note_on_c, 0, 56, 74
2, 153037, Note_on_c, 0, 50, 84
2, 153039, Note_on_c, 0, 56, 0
2, 153039, Note_on_c, 0, 62, 0
2, 153100, Note_on_c, 0, 96, 0
2, 153106, Note_on_c, 0, 96, 86
2, 153146, Note_on_c, 0, 92, 0
2, 153153, Note_on_c, 0, 92, 83
2, 153192, Note_on_c, 0, 50, 0
2, 153197, Note_on_c, 0, 62, 97
2, 153200, Note_on_c, 0, 50, 84
2, 153239, Note_on_c, 0, 86, 0
2, 153249, Note_on_c, 0, 86, 79
2, 153277, Note_on_c, 0, 84, 0
2, 153288, Note_on_c, 0, 84, 76
2, 153361, Note_on_c, 0, 80, 0
2, 153367, Note_on_c, 0, 80, 69
2, 153370, Note_on_c, 0, 63, 88
2, 153373, Note_on_c, 0, 51, 83
2, 153438, Note_on_c, 0, 74, 0
2, 153442, Note_on_c, 0, 74, 81
2, 153477, Note_on_c, 0, 72, 0
2, 153488, Note_on_c, 0, 72, 77
2, 153523, Note_on_c, 0, 63, 0
2, 153534, Note_on_c, 0, 63, 87
2, 153538, Note_on_c, 0, 51, 0
2, 153544, Note_on_c, 0, 51, 90
2, 153546, Note_on_c, 0, 68, 0
2, 153556, Note_on_c, 0, 68, 76
2, 153671, Note_on_c, 0, 98, 0
2, 153672, Control_c, 0, 64, 0
2, 153672, Note_on_c, 0, 86, 0
2, 153673, Note_on_c, 0, 74, 0
2, 153673, Note_on_c, 0, 96, 0
2, 153673, Note_on_c, 0, 80, 0
2, 153673, Note_on_c, 0, 38, 0
2, 153673, Note_on_c, 0, 62, 0
2, 153673, Note_on_c, 0, 50, 0
2, 153673, Note_on_c, 0, 68, 0
2, 153673, Note_on_c, 0, 51, 0
2, 153684, Note_on_c, 0, 48, 0
2, 153684, Note_on_c, 0, 60, 0
2, 153684, Note_on_c, 0, 63, 0
2, 153684, Note_on_c, 0, 79, 0
2, 153684, Note_on_c, 0, 84, 0
2, 153684, Note_on_c, 0, 92, 0
2, 153692, Note_on_c, 0, 72, 0
2, 153708, Note_on_c, 0, 82, 105
2, 153710, Note_on_c, 0, 70, 108
2, 153711, Note_on_c, 0, 75, 105
2, 153712, Note_on_c, 0, 72, 98
2, 153716, Note_on_c, 0, 44, 105
2, 153717, Note_on_c, 0, 32, 96
2, 153761, Control_c, 0, 64, 127
2, 153907, Note_on_c, 0, 68, 77
2, 153960, Note_on_c, 0, 72, 0
2, 153968, Note_on_c, 0, 72, 80
2, 154007, Note_on_c, 0, 75, 0
2, 154011, Note_on_c, 0, 75, 80
2, 154080, Note_on_c, 0, 48, 79
2, 154101, Note_on_c, 0, 80, 78
2, 154161, Note_on_c, 0, 84, 82
2, 154210, Note_on_c, 0, 87, 89
2, 154229, Note_on_c, 0, 48, 0
2, 154236, Note_on_c, 0, 48, 87
2, 154292, Note_on_c, 0, 92, 91
2, 154330, Note_on_c, 0, 96, 93
2, 154372, Note_on_c, 0, 99, 86
2, 154409, Note_on_c, 0, 62, 94
2, 154410, Note_on_c, 0, 50, 85
2, 154414, Note_on_c, 0, 62, 0
2, 154483, Note_on_c, 0, 96, 0
2, 154489, Note_on_c, 0, 96, 87
2, 154536, Note_on_c, 0, 92, 0
2, 154542, Note_on_c, 0, 92, 93
2, 154567, Note_on_c, 0, 50, 0
2, 154571, Note_on_c, 0, 50, 90
2, 154621, Note_on_c, 0, 87, 0
2, 154632, Note_on_c, 0, 87, 86
2, 154675, Note_on_c, 0, 84, 0
2, 154684, Note_on_c, 0, 84, 78
2, 154748, Note_on_c, 0, 63, 86
2, 154754, Note_on_c, 0, 51, 81
2, 154836, Note_on_c, 0, 75, 0
2, 154840, Note_on_c, 0, 75, 80
2, 154882, Note_on_c, 0, 72, 0
2, 154890, Note_on_c, 0, 72, 79
2, 154897, Note_on_c, 0, 63, 0
2, 154909, Note_on_c, 0, 63, 82
2, 154920, Note_on_c, 0, 51, 0
2, 154928, Note_on_c, 0, 51, 76
2, 154944, Note_on_c, 0, 68, 0
2, 154948, Note_on_c, 0, 68, 81
2, 155057, Control_c, 0, 64, 0
2, 155057, Note_on_c, 0, 99, 0
2, 155058, Note_on_c, 0, 92, 0
2, 155059, Note_on_c, 0, 32, 0
2, 155060, Note_on_c, 0, 48, 0
2, 155060, Note_on_c, 0, 50, 0
2, 155060, Note_on_c, 0, 51, 0
2, 155060, Note_on_c, 0, 82, 0
2, 155060, Note_on_c, 0, 70, 0
2, 155060, Note_on_c, 0, 84, 0
2, 155062, Note_on_c, 0, 44, 0
2, 155074, Note_on_c, 0, 63, 0
2, 155074, Note_on_c, 0, 87, 0
2, 155074, Note_on_c, 0, 96, 0
2, 155082, Note_on_c, 0, 68, 0
2, 155082, Note_on_c, 0, 72, 0
2, 155082, Note_on_c, 0, 75, 0
2, 155082, Note_on_c, 0, 80, 0
2, 155087, Note_on_c, 0, 80, 106
2, 155088, Note_on_c, 0, 72, 98
2, 155091, Note_on_c, 0, 68, 104
2, 155093, Note_on_c, 0, 75, 100
2, 155093, Note_on_c, 0, 44, 99
2, 155094, Note_on_c, 0, 32, 91
2, 155129, Note_on_c, 0, 44, 0
2, 155136, Control_c, 0, 64, 127
2, 155143, Note_on_c, 0, 68, 0
2, 155151, Note_on_c, 0, 72, 0
2, 155166, Note_on_c, 0, 32, 0
2, 155288, Note_on_c, 0, 68, 78
2, 155341, Note_on_c, 0, 72, 72
2, 155366, Note_on_c, 0, 75, 0
2, 155374, Note_on_c, 0, 75, 80
2, 155458, Note_on_c, 0, 80, 0
2, 155460, Note_on_c, 0, 60, 83
2, 155463, Note_on_c, 0, 80, 79
2, 155463, Note_on_c, 0, 48, 78
2, 155524, Note_on_c, 0, 84, 79
2, 155569, Note_on_c, 0, 87, 93
2, 155612, Note_on_c, 0, 48, 0
2, 155622, Note_on_c, 0, 48, 80
2, 155657, Note_on_c, 0, 92, 85
2, 155693, Note_on_c, 0, 96, 96
2, 155733, Note_on_c, 0, 99, 78
2, 155799, Note_on_c, 0, 62, 93
2, 155799, Note_on_c, 0, 50, 90
2, 155804, Note_on_c, 0, 62, 0
2, 155850, Note_on_c, 0, 96, 0
2, 155861, Note_on_c, 0, 96, 84
2, 155904, Note_on_c, 0, 92, 0
2, 155908, Note_on_c, 0, 92, 86
2, 155957, Note_on_c, 0, 50, 0
2, 155960, Note_on_c, 0, 62, 94
2, 155967, Note_on_c, 0, 50, 83
2, 155996, Note_on_c, 0, 87, 0
2, 156001, Note_on_c, 0, 87, 84
2, 156042, Note_on_c, 0, 84, 0
2, 156052, Note_on_c, 0, 84, 79
2, 156119, Note_on_c, 0, 80, 0
2, 156123, Note_on_c, 0, 80, 65
2, 156138, Note_on_c, 0, 63, 86
2, 156141, Note_on_c, 0, 51, 88
2, 156195, Note_on_c, 0, 75, 0
2, 156202, Note_on_c, 0, 75, 84
2, 156249, Note_on_c, 0, 72, 0
2, 156260, Note_on_c, 0, 72, 79
2, 156295, Note_on_c, 0, 51, 0
2, 156303, Note_on_c, 0, 68, 0
2, 156306, Note_on_c, 0, 51, 91
2, 156313, Note_on_c, 0, 68, 73
2, 156437, Control_c, 0, 64, 0
2, 156437, Note_on_c, 0, 87, 0
2, 156437, Note_on_c, 0, 99, 0
2, 156438, Note_on_c, 0, 80, 0
2, 156438, Note_on_c, 0, 92, 0
2, 156438, Note_on_c, 0, 68, 0
2, 156438, Note_on_c, 0, 50, 0
2, 156438, Note_on_c, 0, 96, 0
2, 156439, Note_on_c, 0, 60, 0
2, 156439, Note_on_c, 0, 63, 0
2, 156449, Note_on_c, 0, 62, 0
2, 156456, Note_on_c, 0, 48, 0
2, 156456, Note_on_c, 0, 51, 0
2, 156456, Note_on_c, 0, 84, 0
2, 156472, Note_on_c, 0, 72, 0
2, 156472, Note_on_c, 0, 75, 0
2, 156475, Note_on_c, 0, 79, 107
2, 156476, Note_on_c, 0, 72, 100
2, 156476, Note_on_c, 0, 67, 99
2, 156479, Note_on_c, 0, 75, 96
2, 156480, Note_on_c, 0, 43, 102
2, 156480, Note_on_c, 0, 31, 95
2, 156507, Note_on_c, 0, 67, 0
2, 156533, Control_c, 0, 64, 127
2, 156671, Note_on_c, 0, 67, 76
2, 156710, Note_on_c, 0, 72, 0
2, 156717, Note_on_c, 0, 72, 79
2, 156756, Note_on_c, 0, 75, 0
2, 156760, Note_on_c, 0, 75, 77
2, 156840, Note_on_c, 0, 48, 84
2, 156840, Note_on_c, 0, 79, 0
2, 156846, Note_on_c, 0, 79, 86
2, 156909, Note_on_c, 0, 84, 82
2, 156955, Note_on_c, 0, 87, 95
2, 156986, Note_on_c, 0, 48, 0
2, 156993, Note_on_c, 0, 48, 79
2, 156994, Note_on_c, 0, 60, 88
2, 157029, Note_on_c, 0, 91, 95
2, 157081, Note_on_c, 0, 96, 99
2, 157117, Note_on_c, 0, 99, 87
2, 157167, Note_on_c, 0, 62, 96
2, 157174, Note_on_c, 0, 38, 76
2, 157175, Note_on_c, 0, 50, 89
2, 157232, Note_on_c, 0, 96, 0
2, 157241, Note_on_c, 0, 96, 89
2, 157286, Note_on_c, 0, 91, 0
2, 157294, Note_on_c, 0, 91, 84
2, 157332, Note_on_c, 0, 50, 0
2, 157332, Note_on_c, 0, 62, 0
2, 157337, Note_on_c, 0, 62, 101
2, 157343, Note_on_c, 0, 50, 86
2, 157370, Note_on_c, 0, 87, 0
2, 157375, Note_on_c, 0, 87, 85
2, 157409, Note_on_c, 0, 84, 0
2, 157418, Note_on_c, 0, 84, 76
2, 157478, Note_on_c, 0, 79, 0
2, 157484, Note_on_c, 0, 79, 81
2, 157519, Note_on_c, 0, 51, 80
2, 157520, Note_on_c, 0, 63, 85
2, 157555, Note_on_c, 0, 75, 0
2, 157566, Note_on_c, 0, 75, 75
2, 157601, Note_on_c, 0, 72, 0
2, 157611, Note_on_c, 0, 72, 68
2, 157670, Note_on_c, 0, 63, 0
2, 157677, Note_on_c, 0, 63, 81
2, 157678, Note_on_c, 0, 67, 0
2, 157683, Note_on_c, 0, 67, 64
2, 157687, Note_on_c, 0, 55, 62
2, 157785, Note_on_c, 0, 38, 0
2, 157820, Note_on_c, 0, 48, 0
2, 157820, Note_on_c, 0, 87, 0
2, 157820, Note_on_c, 0, 96, 0
2, 157820, Note_on_c, 0, 75, 0
2, 157820, Note_on_c, 0, 99, 0
2, 157821, Note_on_c, 0, 63, 0
2, 157821, Note_on_c, 0, 62, 0
2, 157821, Note_on_c, 0, 60, 0
2, 157821, Control_c, 0, 64, 0
2, 157821, Note_on_c, 0, 67, 0
2, 157821, Note_on_c, 0, 79, 0
2, 157821, Note_on_c, 0, 84, 0
2, 157821, Note_on_c, 0, 51, 0
2, 157822, Note_on_c, 0, 55, 0
2, 157831, Note_on_c, 0, 31, 0
2, 157831, Note_on_c, 0, 43, 0
2, 157831, Note_on_c, 0, 91, 0
2, 157839, Note_on_c, 0, 50, 0
2, 157839, Note_on_c, 0, 72, 0
2, 157852, Note_on_c, 0, 77, 104
2, 157858, Note_on_c, 0, 65, 102
2, 157858, Note_on_c, 0, 74, 97
2, 157858, Note_on_c, 0, 71, 97
2, 157858, Note_on_c, 0, 31, 100
2, 157860, Note_on_c, 0, 43, 100
2, 157893, Control_c, 0, 64, 127
2, 158035, Note_on_c, 0, 67, 71
2, 158085, Note_on_c, 0, 71, 0
2, 158094, Note_on_c, 0, 71, 83
2, 158146, Note_on_c, 0, 74, 0
2, 158153, Note_on_c, 0, 74, 79
2, 158207, Note_on_c, 0, 53, 82
2, 158211, Note_on_c, 0, 41, 83
2, 158241, Note_on_c, 0, 79, 77
2, 158286, Note_on_c, 0, 83, 81
2, 158330, Note_on_c, 0, 86, 89
2, 158346, Note_on_c, 0, 41, 0
2, 158346, Note_on_c, 0, 53, 0
2, 158354, Note_on_c, 0, 53, 87
2, 158356, Note_on_c, 0, 41, 80
2, 158413, Note_on_c, 0, 91, 90
2, 158459, Note_on_c, 0, 95, 93
2, 158481, Note_on_c, 0, 98, 85
2, 158524, Note_on_c, 0, 39, 83
2, 158525, Note_on_c, 0, 51, 88
2, 158534, Note_on_c, 0, 103, 99
2, 158584, Note_on_c, 0, 98, 0
2, 158593, Note_on_c, 0, 98, 78
2, 158607, Note_on_c, 0, 95, 0
2, 158615, Note_on_c, 0, 95, 93
2, 158661, Note_on_c, 0, 91, 0
2, 158666, Note_on_c, 0, 91, 82
2, 158676, Note_on_c, 0, 39, 0
2, 158676, Note_on_c, 0, 51, 0
2, 158683, Note_on_c, 0, 51, 94
2, 158686, Note_on_c, 0, 39, 84
2, 158737, Note_on_c, 0, 86, 0
2, 158742, Note_on_c, 0, 86, 82
2, 158776, Note_on_c, 0, 83, 0
2, 158786, Note_on_c, 0, 83, 83
2, 158849, Note_on_c, 0, 50, 89
2, 158852, Note_on_c, 0, 38, 83
2, 158853, Note_on_c, 0, 77, 0
2, 158853, Note_on_c, 0, 79, 0
2, 158859, Note_on_c, 0, 79, 74
2, 158860, Note_on_c, 0, 77, 71
2, 158929, Note_on_c, 0, 74, 0
2, 158937, Note_on_c, 0, 74, 77
2, 158976, Note_on_c, 0, 71, 0
2, 158986, Note_on_c, 0, 71, 75
2, 159006, Note_on_c, 0, 38, 0
2, 159006, Note_on_c, 0, 50, 0
2, 159015, Note_on_c, 0, 50, 85
2, 159016, Note_on_c, 0, 38, 76
2, 159045, Note_on_c, 0, 67, 0
2, 159050, Note_on_c, 0, 67, 67
2, 159160, Note_on_c, 0, 103, 0
2, 159183, Note_on_c, 0, 31, 0
2, 159191, Note_on_c, 0, 67, 0
2, 159191, Note_on_c, 0, 79, 0
2, 159192, Control_c, 0, 64, 0
2, 159193, Note_on_c, 0, 91, 0
2, 159193, Note_on_c, 0, 95, 0
2, 159194, Note_on_c, 0, 98, 0
2, 159194, Note_on_c, 0, 86, 0
2, 159194, Note_on_c, 0, 41, 0
2, 159194, Note_on_c, 0, 53, 0
2, 159195, Note_on_c, 0, 39, 0
2, 159195, Note_on_c, 0, 71, 0
2, 159195, Note_on_c, 0, 79, 112
2, 159195, Note_on_c, 0, 51, 0
2, 159195, Note_on_c, 0, 38, 0
2, 159196, Note_on_c, 0, 67, 107
2, 159197, Note_on_c, 0, 77, 0
2, 159198, Note_on_c, 0, 65, 0
2, 159198, Note_on_c, 0, 36, 101
2, 159201, Note_on_c, 0, 72, 105
2, 159201, Note_on_c, 0, 75, 104
2, 159206, Note_on_c, 0, 50, 0
2, 159214, Note_on_c, 0, 74, 0
2, 159214, Note_on_c, 0, 83, 0
2, 159244, Note_on_c, 0, 67, 0
2, 159275, Control_c, 0, 64, 127
2, 159305, Note_on_c, 0, 48, 61
2, 159375, Note_on_c, 0, 51, 85
2, 159455, Note_on_c, 0, 55, 86
2, 159527, Note_on_c, 0, 60, 79
2, 159564, Note_on_c, 0, 96, 88
2, 159570, Note_on_c, 0, 84, 79
2, 159615, Note_on_c, 0, 63, 77
2, 159680, Note_on_c, 0, 67, 79
2, 159728, Note_on_c, 0, 72, 0
2, 159728, Note_on_c, 0, 84, 0
2, 159728, Note_on_c, 0, 96, 0
2, 159734, Note_on_c, 0, 96, 98
2, 159737, Note_on_c, 0, 84, 89
2, 159739, Note_on_c, 0, 72, 86
2, 159820, Note_on_c, 0, 75, 0
2, 159824, Note_on_c, 0, 75, 84
2, 159893, Note_on_c, 0, 98, 102
2, 159897, Note_on_c, 0, 79, 0
2, 159902, Note_on_c, 0, 79, 92
2, 159902, Note_on_c, 0, 86, 87
2, 159959, Note_on_c, 0, 75, 0
2, 159964, Note_on_c, 0, 75, 91
2, 160035, Note_on_c, 0, 72, 0
2, 160046, Note_on_c, 0, 72, 95
2, 160066, Note_on_c, 0, 86, 0
2, 160066, Note_on_c, 0, 98, 0
2, 160073, Note_on_c, 0, 98, 90
2, 160074, Note_on_c, 0, 86, 90
2, 160120, Note_on_c, 0, 55, 0
2, 160125, Note_on_c, 0, 55, 43
2, 160143, Note_on_c, 0, 63, 0
2, 160147, Note_on_c, 0, 63, 94
2, 160227, Note_on_c, 0, 60, 0
2, 160238, Note_on_c, 0, 60, 92
2, 160238, Note_on_c, 0, 99, 98
2, 160246, Note_on_c, 0, 87, 93
2, 160323, Note_on_c, 0, 53, 61
2, 160343, Note_on_c, 0, 51, 0
2, 160354, Note_on_c, 0, 51, 70
2, 160404, Note_on_c, 0, 48, 0
2, 160404, Note_on_c, 0, 87, 0
2, 160404, Note_on_c, 0, 99, 0
2, 160411, Note_on_c, 0, 87, 100
2, 160413, Note_on_c, 0, 99, 97
2, 160415, Note_on_c, 0, 48, 86
2, 160488, Note_on_c, 0, 43, 0
2, 160498, Note_on_c, 0, 43, 67
2, 160559, Note_on_c, 0, 84, 0
2, 160559, Note_on_c, 0, 96, 0
2, 160560, Note_on_c, 0, 86, 0
2, 160560, Note_on_c, 0, 43, 0
2, 160560, Note_on_c, 0, 51, 0
2, 160560, Note_on_c, 0, 63, 0
2, 160560, Note_on_c, 0, 67, 0
2, 160560, Note_on_c, 0, 87, 0
2, 160560, Note_on_c, 0, 60, 0
2, 160561, Note_on_c, 0, 79, 0
2, 160561, Control_c, 0, 64, 0
2, 160561, Note_on_c, 0, 55, 0
2, 160561, Note_on_c, 0, 48, 0
2, 160561, Note_on_c, 0, 98, 0
2, 160561, Note_on_c, 0, 99, 0
2, 160565, Note_on_c, 0, 36, 0
2, 160573, Note_on_c, 0, 53, 0
2, 160573, Note_on_c, 0, 72, 0
2, 160573, Note_on_c, 0, 75, 0
2, 160576, Note_on_c, 0, 36, 100
2, 160579, Note_on_c, 0, 72, 102
2, 160580, Note_on_c, 0, 65, 105
2, 160582, Note_on_c, 0, 75, 103
2, 160627, Control_c, 0, 64, 127
2, 160677, Note_on_c, 0, 43, 69
2, 160681, Note_on_c, 0, 48, 83
2, 160773, Note_on_c, 0, 51, 82
2, 160831, Note_on_c, 0, 55, 83
2, 160907, Note_on_c, 0, 60, 83
2, 160938, Note_on_c, 0, 96, 88
2, 160938, Note_on_c, 0, 84, 84
2, 160993, Note_on_c, 0, 63, 86
2, 161061, Note_on_c, 0, 67, 85
2, 161103, Note_on_c, 0, 96, 0
2, 161111, Note_on_c, 0, 72, 0
2, 161111, Note_on_c, 0, 84, 0
2, 161114, Note_on_c, 0, 96, 101
2, 161115, Note_on_c, 0, 84, 91
2, 161116, Note_on_c, 0, 72, 93
2, 161187, Note_on_c, 0, 75, 0
2, 161198, Note_on_c, 0, 75, 87
2, 161267, Note_on_c, 0, 79, 89
2, 161284, Note_on_c, 0, 98, 99
2, 161290, Note_on_c, 0, 86, 86
2, 161318, Note_on_c, 0, 75, 0
2, 161329, Note_on_c, 0, 75, 92
2, 161402, Note_on_c, 0, 72, 0
2, 161407, Note_on_c, 0, 72, 93
2, 161448, Note_on_c, 0, 98, 0
2, 161453, Note_on_c, 0, 98, 100
2, 161456, Note_on_c, 0, 86, 0
2, 161466, Note_on_c, 0, 86, 86
2, 161472, Note_on_c, 0, 67, 0
2, 161482, Note_on_c, 0, 67, 67
2, 161502, Note_on_c, 0, 63, 0
2, 161509, Note_on_c, 0, 63, 95
2, 161600, Note_on_c, 0, 59, 93
2, 161620, Note_on_c, 0, 99, 101
2, 161628, Note_on_c, 0, 87, 98
2, 161688, Note_on_c, 0, 53, 56
2, 161763, Note_on_c, 0, 48, 0
2, 161770, Note_on_c, 0, 48, 79
2, 161771, Note_on_c, 0, 87, 0
2, 161771, Note_on_c, 0, 99, 0
2, 161775, Note_on_c, 0, 87, 103
2, 161775, Note_on_c, 0, 99, 100
2, 161825, Note_on_c, 0, 45, 84
2, 161919, Note_on_c, 0, 98, 0
2, 161920, Control_c, 0, 64, 0
2, 161920, Note_on_c, 0, 99, 0
2, 161920, Note_on_c, 0, 65, 0
2, 161920, Note_on_c, 0, 51, 0
2, 161920, Note_on_c, 0, 86, 0
2, 161920, Note_on_c, 0, 96, 0
2, 161921, Note_on_c, 0, 45, 0
2, 161921, Note_on_c, 0, 63, 0
2, 161921, Note_on_c, 0, 84, 0
2, 161921, Note_on_c, 0, 60, 0
2, 161921, Note_on_c, 0, 48, 0
2, 161921, Note_on_c, 0, 75, 0
2, 161921, Note_on_c, 0, 79, 0
2, 161921, Note_on_c, 0, 43, 0
2, 161921, Note_on_c, 0, 67, 0
2, 161921, Note_on_c, 0, 87, 0
2, 161921, Note_on_c, 0, 55, 0
2, 161925, Note_on_c, 0, 36, 0
2, 161925, Note_on_c, 0, 59, 0
2, 161932, Note_on_c, 0, 53, 0
2, 161939, Note_on_c, 0, 68, 108
2, 161940, Note_on_c, 0, 72, 0
2, 161942, Note_on_c, 0, 26, 84
2, 161944, Note_on_c, 0, 80, 103
2, 161944, Note_on_c, 0, 38, 92
2, 161946, Note_on_c, 0, 72, 101
2, 161946, Note_on_c, 0, 74, 93
2, 161948, Note_on_c, 0, 26, 0
2, 161978, Control_c, 0, 64, 127
2, 162009, Note_on_c, 0, 38, 0
2, 162070, Note_on_c, 0, 45, 57
2, 162114, Note_on_c, 0, 48, 75
2, 162159, Note_on_c, 0, 53, 78
2, 162240, Note_on_c, 0, 74, 0
2, 162256, Note_on_c, 0, 56, 79
2, 162313, Note_on_c, 0, 60, 91
2, 162318, Note_on_c, 0, 84, 90
2, 162320, Note_on_c, 0, 96, 95
2, 162325, Note_on_c, 0, 98, 87
2, 162381, Note_on_c, 0, 65, 74
2, 162462, Note_on_c, 0, 68, 0
2, 162472, Note_on_c, 0, 68, 73
2, 162485, Note_on_c, 0, 84, 0
2, 162485, Note_on_c, 0, 96, 0
2, 162494, Note_on_c, 0, 96, 102
2, 162496, Note_on_c, 0, 84, 92
2, 162516, Note_on_c, 0, 72, 0
2, 162520, Note_on_c, 0, 72, 86
2, 162589, Note_on_c, 0, 77, 84
2, 162647, Note_on_c, 0, 80, 0
2, 162654, Note_on_c, 0, 98, 0
2, 162658, Note_on_c, 0, 80, 91
2, 162661, Note_on_c, 0, 98, 108
2, 162668, Note_on_c, 0, 86, 97
2, 162723, Note_on_c, 0, 77, 0
2, 162734, Note_on_c, 0, 77, 93
2, 162808, Note_on_c, 0, 72, 0
2, 162812, Note_on_c, 0, 72, 64
2, 162816, Note_on_c, 0, 98, 0
2, 162826, Note_on_c, 0, 98, 95
2, 162839, Note_on_c, 0, 68, 0
2, 162839, Note_on_c, 0, 86, 0
2, 162844, Note_on_c, 0, 86, 81
2, 162850, Note_on_c, 0, 68, 65
2, 162931, Note_on_c, 0, 65, 0
2, 162938, Note_on_c, 0, 65, 84
2, 162994, Note_on_c, 0, 99, 92
2, 162999, Note_on_c, 0, 87, 83
2, 163023, Note_on_c, 0, 56, 0
2, 163028, Note_on_c, 0, 56, 85
2, 163115, Note_on_c, 0, 53, 0
2, 163125, Note_on_c, 0, 53, 65
2, 163161, Note_on_c, 0, 87, 0
2, 163161, Note_on_c, 0, 99, 0
2, 163169, Note_on_c, 0, 99, 98
2, 163171, Note_on_c, 0, 87, 96
2, 163192, Note_on_c, 0, 48, 0
2, 163203, Note_on_c, 0, 48, 54
2, 163249, Note_on_c, 0, 44, 78
2, 163330, Note_on_c, 0, 86, 0
2, 163331, Note_on_c, 0, 65, 0
2, 163332, Note_on_c, 0, 53, 0
2, 163332, Note_on_c, 0, 80, 0
2, 163332, Note_on_c, 0, 60, 0
2, 163332, Note_on_c, 0, 68, 0
2, 163332, Note_on_c, 0, 48, 0
2, 163332, Control_c, 0, 64, 0
2, 163332, Note_on_c, 0, 56, 0
2, 163332, Note_on_c, 0, 87, 0
2, 163333, Note_on_c, 0, 44, 0
2, 163334, Note_on_c, 0, 99, 0
2, 163334, Note_on_c, 0, 96, 0
2, 163335, Note_on_c, 0, 98, 0
2, 163338, Note_on_c, 0, 72, 0
2, 163338, Note_on_c, 0, 77, 0
2, 163343, Note_on_c, 0, 79, 107
2, 163345, Note_on_c, 0, 45, 0
2, 163347, Note_on_c, 0, 74, 105
2, 163347, Note_on_c, 0, 38, 91
2, 163348, Note_on_c, 0, 72, 105
2, 163353, Note_on_c, 0, 84, 0
2, 163384, Control_c, 0, 64, 127
2, 163431, Note_on_c, 0, 44, 83
2, 163474, Note_on_c, 0, 48, 76
2, 163530, Note_on_c, 0, 53, 78
2, 163627, Note_on_c, 0, 56, 72
2, 163690, Note_on_c, 0, 60, 81
2, 163711, Note_on_c, 0, 96, 95
2, 163711, Note_on_c, 0, 84, 91
2, 163767, Note_on_c, 0, 65, 72
2, 163856, Note_on_c, 0, 68, 78
2, 163875, Note_on_c, 0, 96, 0
2, 163883, Note_on_c, 0, 84, 0
2, 163886, Note_on_c, 0, 96, 101
2, 163888, Note_on_c, 0, 84, 92
2, 163906, Note_on_c, 0, 72, 0
2, 163910, Note_on_c, 0, 72, 83
2, 163995, Note_on_c, 0, 77, 81
2, 164063, Note_on_c, 0, 98, 102
2, 164067, Note_on_c, 0, 80, 85
2, 164070, Note_on_c, 0, 86, 86
2, 164129, Note_on_c, 0, 77, 0
2, 164138, Note_on_c, 0, 77, 92
2, 164221, Note_on_c, 0, 72, 0
2, 164221, Note_on_c, 0, 86, 0
2, 164221, Note_on_c, 0, 98, 0
2, 164227, Note_on_c, 0, 72, 65
2, 164228, Note_on_c, 0, 98, 96
2, 164231, Note_on_c, 0, 86, 89
2, 164252, Note_on_c, 0, 68, 0
2, 164261, Note_on_c, 0, 68, 77
2, 164336, Note_on_c, 0, 65, 0
2, 164343, Note_on_c, 0, 65, 73
2, 164394, Note_on_c, 0, 99, 94
2, 164396, Note_on_c, 0, 87, 91
2, 164428, Note_on_c, 0, 59, 51
2, 164436, Note_on_c, 0, 56, 0
2, 164440, Note_on_c, 0, 56, 48
2, 164525, Note_on_c, 0, 52, 81
2, 164544, Note_on_c, 0, 99, 0
2, 164549, Note_on_c, 0, 99, 96
2, 164551, Note_on_c, 0, 87, 0
2, 164555, Note_on_c, 0, 87, 99
2, 164582, Note_on_c, 0, 44, 0
2, 164589, Note_on_c, 0, 44, 80
2, 164689, Note_on_c, 0, 38, 0
2, 164698, Control_c, 0, 64, 0
2, 164700, Note_on_c, 0, 65, 0
2, 164700, Note_on_c, 0, 68, 0
2, 164700, Note_on_c, 0, 74, 0
2, 164700, Note_on_c, 0, 53, 0
2, 164700, Note_on_c, 0, 77, 0
2, 164700, Note_on_c, 0, 56, 0
2, 164700, Note_on_c, 0, 60, 0
2, 164701, Note_on_c, 0, 99, 0
2, 164701, Note_on_c, 0, 87, 0
2, 164701, Note_on_c, 0, 48, 0
2, 164701, Note_on_c, 0, 79, 0
2, 164701, Note_on_c, 0, 96, 0
2, 164701, Note_on_c, 0, 98, 0
2, 164705, Note_on_c, 0, 52, 0
2, 164712, Note_on_c, 0, 59, 0
2, 164712, Note_on_c, 0, 86, 0
2, 164720, Note_on_c, 0, 72, 0
2, 164720, Note_on_c, 0, 84, 0
2, 164721, Note_on_c, 0, 75, 99
2, 164723, Note_on_c, 0, 70, 108
2, 164723, Note_on_c, 0, 32, 81
2, 164725, Note_on_c, 0, 84, 90
2, 164726, Note_on_c, 0, 82, 99
2, 164727, Note_on_c, 0, 72, 97
2, 164728, Note_on_c, 0, 80, 0
2, 164736, Control_c, 0, 64, 127
2, 164738, Note_on_c, 0, 80, 82
2, 164755, Note_on_c, 0, 74, 69
2, 164791, Note_on_c, 0, 42, 83
2, 164858, Note_on_c, 0, 32, 0
2, 164903, Note_on_c, 0, 51, 73
2, 164979, Note_on_c, 0, 56, 71
2, 165034, Note_on_c, 0, 60, 67
2, 165076, Note_on_c, 0, 96, 89
2, 165089, Note_on_c, 0, 84, 0
2, 165093, Note_on_c, 0, 84, 73
2, 165124, Note_on_c, 0, 63, 71
2, 165182, Note_on_c, 0, 68, 80
2, 165242, Note_on_c, 0, 72, 0
2, 165247, Note_on_c, 0, 72, 84
2, 165250, Note_on_c, 0, 84, 0
2, 165250, Note_on_c, 0, 96, 0
2, 165254, Note_on_c, 0, 96, 101
2, 165256, Note_on_c, 0, 84, 90
2, 165319, Note_on_c, 0, 75, 0
2, 165328, Note_on_c, 0, 75, 81
2, 165381, Note_on_c, 0, 80, 0
2, 165391, Note_on_c, 0, 80, 88
2, 165420, Note_on_c, 0, 98, 101
2, 165423, Note_on_c, 0, 86, 86
2, 165457, Note_on_c, 0, 75, 0
2, 165467, Note_on_c, 0, 75, 90
2, 165542, Note_on_c, 0, 72, 0
2, 165552, Note_on_c, 0, 72, 85
2, 165580, Note_on_c, 0, 98, 0
2, 165584, Note_on_c, 0, 98, 96
2, 165596, Note_on_c, 0, 86, 0
2, 165600, Note_on_c, 0, 86, 80
2, 165603, Note_on_c, 0, 68, 0
2, 165608, Note_on_c, 0, 68, 71
2, 165649, Note_on_c, 0, 63, 0
2, 165655, Note_on_c, 0, 63, 83
2, 165749, Note_on_c, 0, 60, 0
2, 165749, Note_on_c, 0, 99, 99
2, 165754, Note_on_c, 0, 60, 84
2, 165755, Note_on_c, 0, 87, 89
2, 165812, Note_on_c, 0, 54, 74
2, 165834, Note_on_c, 0, 51, 0
2, 165845, Note_on_c, 0, 51, 84
2, 165911, Note_on_c, 0, 87, 0
2, 165911, Note_on_c, 0, 99, 0
2, 165915, Note_on_c, 0, 87, 102
2, 165917, Note_on_c, 0, 99, 96
2, 165932, Note_on_c, 0, 48, 77
2, 166061, Note_on_c, 0, 99, 0
2, 166062, Control_c, 0, 64, 0
2, 166062, Note_on_c, 0, 86, 0
2, 166062, Note_on_c, 0, 96, 0
2, 166062, Note_on_c, 0, 74, 0
2, 166062, Note_on_c, 0, 82, 0
2, 166064, Note_on_c, 0, 48, 0
2, 166064, Note_on_c, 0, 63, 0
2, 166064, Note_on_c, 0, 70, 0
2, 166064, Note_on_c, 0, 87, 0
2, 166064, Note_on_c, 0, 84, 0
2, 166064, Note_on_c, 0, 56, 0
2, 166065, Note_on_c, 0, 51, 0
2, 166065, Note_on_c, 0, 60, 0
2, 166065, Note_on_c, 0, 54, 0
2, 166072, Note_on_c, 0, 42, 0
2, 166072, Note_on_c, 0, 44, 0
2, 166072, Note_on_c, 0, 98, 0
2, 166080, Note_on_c, 0, 68, 0
2, 166080, Note_on_c, 0, 72, 0
2, 166080, Note_on_c, 0, 75, 0
2, 166080, Note_on_c, 0, 80, 0
2, 166084, Note_on_c, 0, 80, 106
2, 166085, Note_on_c, 0, 32, 90
2, 166085, Note_on_c, 0, 75, 101
2, 166085, Note_on_c, 0, 68, 107
2, 166088, Note_on_c, 0, 72, 97
2, 166126, Control_c, 0, 64, 127
2, 166129, Note_on_c, 0, 32, 0
2, 166261, Note_on_c, 0, 51, 79
2, 166325, Note_on_c, 0, 56, 65
2, 166397, Note_on_c, 0, 60, 75
2, 166458, Note_on_c, 0, 96, 87
2, 166474, Note_on_c, 0, 84, 70
2, 166484, Note_on_c, 0, 63, 75
2, 166548, Note_on_c, 0, 68, 0
2, 166555, Note_on_c, 0, 68, 75
2, 166617, Note_on_c, 0, 72, 0
2, 166617, Note_on_c, 0, 84, 0
2, 166617, Note_on_c, 0, 96, 0
2, 166621, Note_on_c, 0, 72, 76
2, 166621, Note_on_c, 0, 96, 97
2, 166623, Note_on_c, 0, 84, 83
2, 166694, Note_on_c, 0, 75, 0
2, 166700, Note_on_c, 0, 75, 78
2, 166771, Note_on_c, 0, 80, 0
2, 166782, Note_on_c, 0, 80, 86
2, 166788, Note_on_c, 0, 98, 105
2, 166791, Note_on_c, 0, 86, 94
2, 166840, Note_on_c, 0, 75, 0
2, 166846, Note_on_c, 0, 75, 83
2, 166924, Note_on_c, 0, 72, 0
2, 166935, Note_on_c, 0, 72, 85
2, 166947, Note_on_c, 0, 98, 0
2, 166955, Note_on_c, 0, 98, 96
2, 166955, Note_on_c, 0, 86, 0
2, 166965, Note_on_c, 0, 86, 91
2, 166978, Note_on_c, 0, 68, 0
2, 166983, Note_on_c, 0, 68, 79
2, 167032, Note_on_c, 0, 63, 0
2, 167037, Note_on_c, 0, 63, 85
2, 167124, Note_on_c, 0, 99, 95
2, 167132, Note_on_c, 0, 60, 0
2, 167132, Note_on_c, 0, 87, 91
2, 167136, Note_on_c, 0, 60, 84
2, 167162, Note_on_c, 0, 56, 0
2, 167174, Note_on_c, 0, 56, 53
2, 167250, Note_on_c, 0, 52, 61
2, 167285, Note_on_c, 0, 87, 0
2, 167285, Note_on_c, 0, 99, 0
2, 167291, Note_on_c, 0, 99, 101
2, 167295, Note_on_c, 0, 87, 104
2, 167329, Note_on_c, 0, 48, 65
2, 167332, Note_on_c, 0, 47, 63
2, 167477, Note_on_c, 0, 52, 0
2, 167480, Note_on_c, 0, 86, 0
2, 167481, Note_on_c, 0, 99, 0
2, 167481, Control_c, 0, 64, 0
2, 167481, Note_on_c, 0, 56, 0
2, 167481, Note_on_c, 0, 60, 0
2, 167481, Note_on_c, 0, 51, 0
2, 167481, Note_on_c, 0, 96, 0
2, 167481, Note_on_c, 0, 68, 0
2, 167482, Note_on_c, 0, 80, 0
2, 167482, Note_on_c, 0, 63, 0
2, 167482, Note_on_c, 0, 48, 0
2, 167485, Note_on_c, 0, 47, 0
2, 167485, Note_on_c, 0, 72, 0
2, 167485, Note_on_c, 0, 75, 0
2, 167488, Note_on_c, 0, 79, 104
2, 167492, Note_on_c, 0, 72, 100
2, 167493, Note_on_c, 0, 84, 0
2, 167493, Note_on_c, 0, 87, 0
2, 167493, Note_on_c, 0, 98, 0
2, 167493, Note_on_c, 0, 67, 99
2, 167494, Note_on_c, 0, 75, 96
2, 167494, Note_on_c, 0, 31, 82
2, 167531, Note_on_c, 0, 67, 0
2, 167546, Control_c, 0, 64, 127
2, 167604, Note_on_c, 0, 43, 82
2, 167702, Note_on_c, 0, 48, 71
2, 167782, Note_on_c, 0, 51, 81
2, 167862, Note_on_c, 0, 53, 59
2, 167921, Note_on_c, 0, 60, 83
2, 167999, Note_on_c, 0, 63, 83
2, 168015, Note_on_c, 0, 31, 0
2, 168093, Note_on_c, 0, 67, 83
2, 168153, Note_on_c, 0, 43, 0
2, 168159, Control_c, 0, 64, 0
2, 168161, Note_on_c, 0, 67, 0
2, 168161, Note_on_c, 0, 72, 0
2, 168161, Note_on_c, 0, 75, 0
2, 168161, Note_on_c, 0, 79, 0
2, 168164, Note_on_c, 0, 43, 96
2, 168165, Note_on_c, 0, 79, 107
2, 168165, Note_on_c, 0, 67, 105
2, 168166, Note_on_c, 0, 63, 0
2, 168166, Note_on_c, 0, 60, 0
2, 168166, Note_on_c, 0, 72, 96
2, 168166, Note_on_c, 0, 48, 0
2, 168166, Note_on_c, 0, 51, 0
2, 168168, Note_on_c, 0, 75, 100
2, 168176, Note_on_c, 0, 53, 0
2, 168207, Control_c, 0, 64, 127
2, 168268, Note_on_c, 0, 43, 0
2, 168325, Note_on_c, 0, 60, 82
2, 168409, Note_on_c, 0, 63, 94
2, 168499, Note_on_c, 0, 67, 0
2, 168503, Note_on_c, 0, 67, 87
2, 168599, Note_on_c, 0, 72, 0
2, 168605, Note_on_c, 0, 72, 84
2, 168668, Note_on_c, 0, 75, 0
2, 168676, Note_on_c, 0, 75, 86
2, 168760, Note_on_c, 0, 79, 0
2, 168766, Note_on_c, 0, 79, 92
2, 168873, Control_c, 0, 64, 0
2, 168874, Note_on_c, 0, 63, 0
2, 168875, Note_on_c, 0, 72, 0
2, 168875, Note_on_c, 0, 60, 0
2, 168875, Note_on_c, 0, 67, 0
2, 168877, Note_on_c, 0, 79, 0
2, 168877, Note_on_c, 0, 75, 0
2, 168886, Note_on_c, 0, 67, 96
2, 168887, Note_on_c, 0, 91, 104
2, 168887, Note_on_c, 0, 62, 100
2, 168891, Note_on_c, 0, 59, 96
2, 168893, Note_on_c, 0, 55, 96
2, 168921, Control_c, 0, 64, 127
2, 168953, Note_on_c, 0, 88, 88
2, 168954, Note_on_c, 0, 89, 80
2, 168984, Note_on_c, 0, 87, 86
2, 169020, Note_on_c, 0, 86, 91
2, 169058, Note_on_c, 0, 84, 83
2, 169117, Note_on_c, 0, 83, 82
2, 169155, Note_on_c, 0, 80, 86
2, 169192, Note_on_c, 0, 79, 75
2, 169234, Note_on_c, 0, 77, 76
2, 169284, Note_on_c, 0, 75, 83
2, 169317, Note_on_c, 0, 74, 81
2, 169365, Note_on_c, 0, 72, 78
2, 169415, Note_on_c, 0, 71, 74
2, 169456, Note_on_c, 0, 68, 83
2, 169482, Note_on_c, 0, 67, 0
2, 169492, Note_on_c, 0, 67, 79
2, 169540, Note_on_c, 0, 65, 72
2, 169590, Note_on_c, 0, 63, 81
2, 169620, Note_on_c, 0, 62, 0
2, 169630, Note_on_c, 0, 62, 92
2, 169675, Note_on_c, 0, 60, 75
2, 169712, Note_on_c, 0, 59, 0
2, 169722, Note_on_c, 0, 59, 82
2, 169777, Note_on_c, 0, 56, 77
2, 169781, Note_on_c, 0, 55, 0
2, 169785, Note_on_c, 0, 55, 84
2, 169847, Note_on_c, 0, 53, 81
2, 169906, Note_on_c, 0, 51, 90
2, 169940, Note_on_c, 0, 50, 77
2, 170055, Note_on_c, 0, 45, 76
2, 170106, Note_on_c, 0, 41, 64
2, 170107, Note_on_c, 0, 44, 72
2, 170217, Note_on_c, 0, 39, 76
2, 170220, Note_on_c, 0, 27, 72
2, 170227, Note_on_c, 0, 27, 0
2, 170270, Note_on_c, 0, 74, 0
2, 170270, Note_on_c, 0, 55, 0
2, 170270, Note_on_c, 0, 72, 0
2, 170270, Note_on_c, 0, 75, 0
2, 170270, Note_on_c, 0, 83, 0
2, 170270, Note_on_c, 0, 53, 0
2, 170270, Note_on_c, 0, 68, 0
2, 170270, Note_on_c, 0, 45, 0
2, 170270, Note_on_c, 0, 41, 0
2, 170270, Control_c, 0, 64, 0
2, 170270, Note_on_c, 0, 60, 0
2, 170270, Note_on_c, 0, 56, 0
2, 170270, Note_on_c, 0, 77, 0
2, 170270, Note_on_c, 0, 65, 0
2, 170270, Note_on_c, 0, 84, 0
2, 170270, Note_on_c, 0, 67, 0
2, 170270, Note_on_c, 0, 71, 0
2, 170270, Note_on_c, 0, 86, 0
2, 170271, Note_on_c, 0, 59, 0
2, 170271, Note_on_c, 0, 50, 0
2, 170271, Note_on_c, 0, 51, 0
2, 170271, Note_on_c, 0, 62, 0
2, 170271, Note_on_c, 0, 87, 0
2, 170271, Note_on_c, 0, 88, 0
2, 170271, Note_on_c, 0, 63, 0
2, 170271, Note_on_c, 0, 80, 0
2, 170271, Note_on_c, 0, 79, 0
2, 170272, Note_on_c, 0, 39, 0
2, 170272, Note_on_c, 0, 89, 0
2, 170273, Note_on_c, 0, 44, 0
2, 170274, Note_on_c, 0, 91, 0
2, 170313, Note_on_c, 0, 48, 94
2, 170315, Note_on_c, 0, 36, 86
2, 170315, Note_on_c, 0, 24, 89
2, 170350, Control_c, 0, 64, 127
2, 171043, Control_c, 0, 64, 0
2, 171058, Note_on_c, 0, 72, 101
2, 171059, Note_on_c, 0, 67, 94
2, 171061, Note_on_c, 0, 60, 92
2, 171064, Note_on_c, 0, 51, 85
2, 171064, Note_on_c, 0, 63, 91
2, 171066, Note_on_c, 0, 57, 84
2, 171125, Control_c, 0, 64, 127
2, 171778, Note_on_c, 0, 36, 0
2, 171778, Note_on_c, 0, 48, 0
2, 171786, Note_on_c, 0, 24, 0
2, 171787, Note_on_c, 0, 48, 96
2, 171789, Note_on_c, 0, 36, 76
2, 171790, Control_c, 0, 64, 0
2, 171790, Note_on_c, 0, 24, 75
2, 171821, Note_on_c, 0, 72, 0
2, 171821, Note_on_c, 0, 63, 0
2, 171821, Note_on_c, 0, 60, 0
2, 171893, Note_on_c, 0, 51, 0
2, 171924, Control_c, 0, 64, 127
2, 171955, Note_on_c, 0, 57, 0
2, 172469, Note_on_c, 0, 67, 0
2, 172519, Note_on_c, 0, 68, 98
2, 172519, Note_on_c, 0, 72, 90
2, 172521, Note_on_c, 0, 60, 93
2, 172521, Note_on_c, 0, 54, 87
2, 172521, Note_on_c, 0, 63, 95
2, 172525, Note_on_c, 0, 51, 87
2, 172525, Note_on_c, 0, 56, 84
2, 172528, Note_on_c, 0, 66, 78
2, 172531, Note_on_c, 0, 56, 0
2, 172549, Control_c, 0, 64, 0
2, 172615, Note_on_c, 0, 24, 0
2, 172631, Control_c, 0, 64, 127
2, 172646, Note_on_c, 0, 48, 0
2, 173230, Note_on_c, 0, 36, 0
2, 173238, Note_on_c, 0, 24, 78
2, 173240, Note_on_c, 0, 48, 79
2, 173240, Note_on_c, 0, 36, 78
2, 173247, Control_c, 0, 64, 0
2, 173250, Note_on_c, 0, 54, 0
2, 173345, Control_c, 0, 64, 127
2, 173936, Note_on_c, 0, 66, 0
2, 173958, Note_on_c, 0, 69, 94
2, 173959, Note_on_c, 0, 72, 0
2, 173966, Note_on_c, 0, 72, 95
2, 173967, Note_on_c, 0, 51, 0
2, 173967, Note_on_c, 0, 60, 0
2, 173967, Note_on_c, 0, 63, 0
2, 173970, Note_on_c, 0, 53, 84
2, 173970, Note_on_c, 0, 57, 85
2, 173971, Note_on_c, 0, 65, 80
2, 173971, Note_on_c, 0, 60, 89
2, 173971, Note_on_c, 0, 63, 86
2, 173971, Note_on_c, 0, 41, 68
2, 173972, Note_on_c, 0, 51, 78
2, 173975, Note_on_c, 0, 68, 0
2, 173996, Control_c, 0, 64, 0
2, 174051, Control_c, 0, 64, 127
2, 174704, Note_on_c, 0, 24, 0
2, 174704, Note_on_c, 0, 36, 0
2, 174704, Note_on_c, 0, 48, 0
2, 174709, Note_on_c, 0, 36, 79
2, 174709, Note_on_c, 0, 48, 95
2, 174710, Note_on_c, 0, 24, 82
2, 174717, Control_c, 0, 64, 0
2, 174723, Note_on_c, 0, 57, 0
2, 174743, Note_on_c, 0, 41, 0
2, 174812, Control_c, 0, 64, 127
2, 174881, Note_on_c, 0, 72, 0
2, 175457, Note_on_c, 0, 60, 0
2, 175457, Note_on_c, 0, 65, 0
2, 175462, Note_on_c, 0, 68, 93
2, 175462, Note_on_c, 0, 72, 93
2, 175464, Note_on_c, 0, 62, 87
2, 175464, Note_on_c, 0, 53, 0
2, 175467, Note_on_c, 0, 60, 91
2, 175467, Note_on_c, 0, 65, 81
2, 175468, Note_on_c, 0, 53, 83
2, 175477, Note_on_c, 0, 50, 73
2, 176248, Note_on_c, 0, 24, 0
2, 176248, Note_on_c, 0, 36, 0
2, 176248, Note_on_c, 0, 48, 0
2, 176252, Note_on_c, 0, 24, 80
2, 176253, Note_on_c, 0, 48, 82
2, 176254, Note_on_c, 0, 36, 73
2, 176256, Note_on_c, 0, 43, 74
2, 176267, Note_on_c, 0, 60, 0
2, 176267, Control_c, 0, 64, 0
2, 176268, Note_on_c, 0, 68, 0
2, 176268, Note_on_c, 0, 50, 0
2, 176268, Note_on_c, 0, 65, 0
2, 176268, Note_on_c, 0, 53, 0
2, 176286, Note_on_c, 0, 63, 0
2, 176302, Note_on_c, 0, 69, 0
2, 176371, Note_on_c, 0, 51, 0
2, 176424, Note_on_c, 0, 72, 0
2, 176471, Control_c, 0, 64, 127
2, 177884, Note_on_c, 0, 72, 96
2, 177891, Note_on_c, 0, 43, 0
2, 177891, Note_on_c, 0, 48, 0
2, 177897, Note_on_c, 0, 43, 72
2, 177898, Note_on_c, 0, 60, 82
2, 177902, Note_on_c, 0, 55, 82
2, 177902, Note_on_c, 0, 63, 85
2, 177902, Note_on_c, 0, 48, 71
2, 177903, Note_on_c, 0, 67, 68
2, 177905, Note_on_c, 0, 51, 78
2, 177907, Note_on_c, 0, 62, 0
2, 178560, Note_on_c, 0, 24, 0
2, 179512, Note_on_c, 0, 51, 0
2, 179512, Note_on_c, 0, 63, 0
2, 179519, Note_on_c, 0, 63, 90
2, 179520, Note_on_c, 0, 55, 0
2, 179520, Note_on_c, 0, 60, 0
2, 179521, Note_on_c, 0, 91, 100
2, 179523, Note_on_c, 0, 51, 80
2, 179525, Note_on_c, 0, 60, 80
2, 179525, Note_on_c, 0, 79, 86
2, 179526, Note_on_c, 0, 84, 83
2, 179529, Note_on_c, 0, 55, 78
2, 179530, Note_on_c, 0, 87, 87
2, 179681, Note_on_c, 0, 91, 0
2, 179686, Note_on_c, 0, 91, 106
2, 179688, Note_on_c, 0, 79, 0
2, 179696, Note_on_c, 0, 51, 0
2, 179696, Note_on_c, 0, 60, 0
2, 179696, Note_on_c, 0, 84, 0
2, 179696, Note_on_c, 0, 87, 0
2, 179699, Note_on_c, 0, 79, 97
2, 179701, Note_on_c, 0, 84, 80
2, 179703, Note_on_c, 0, 87, 87
2, 179707, Note_on_c, 0, 60, 84
2, 179707, Note_on_c, 0, 51, 77
2, 179712, Note_on_c, 0, 55, 0
2, 179722, Note_on_c, 0, 55, 81
2, 180864, Note_on_c, 0, 36, 0
2, 182400, Note_on_c, 0, 43, 0
2, 182400, Note_on_c, 0, 48, 0
2, 182400, Note_on_c, 0, 51, 0
2, 182400, Note_on_c, 0, 55, 0
2, 182400, Note_on_c, 0, 60, 0
2, 182400, Note_on_c, 0, 63, 0
2, 182400, Note_on_c, 0, 67, 0
2, 182400, Note_on_c, 0, 72, 0
2, 182400, Note_on_c, 0, 79, 0
2, 182400, Note_on_c, 0, 84, 0
2, 182400, Note_on_c, 0, 87, 0
2, 182400, Note_on_c, 0, 91, 0
2, 186021, Control_c, 0, 64, 0
2, 186022, End_track
0, 0, End_of_file
