0, 0, Header, 1, 2, 384
1, 0, Start_track
1, 0, Tempo, 500000
1, 0, Time_signature, 4, 2, 24, 8
1, 1, End_track
2, 0, Start_track
2, 539, Note_on_c, 0, 75, 88
2, 543, Note_on_c, 0, 67, 67
2, 545, Note_on_c, 0, 60, 70
2, 546, Note_on_c, 0, 63, 69
2, 549, Note_on_c, 0, 72, 73
2, 784, Note_on_c, 0, 60, 0
2, 788, Note_on_c, 0, 63, 0
2, 816, Note_on_c, 0, 74, 79
2, 852, Note_on_c, 0, 72, 0
2, 855, Note_on_c, 0, 67, 0
2, 856, Note_on_c, 0, 75, 0
2, 861, Note_on_c, 0, 74, 0
2, 1092, Note_on_c, 0, 75, 88
2, 1109, Note_on_c, 0, 72, 76
2, 1111, Note_on_c, 0, 67, 62
2, 1111, Note_on_c, 0, 60, 62
2, 1114, Note_on_c, 0, 63, 68
2, 1256, Note_on_c, 0, 72, 0
2, 1352, Note_on_c, 0, 60, 0
2, 1371, Note_on_c, 0, 63, 0
2, 1392, Note_on_c, 0, 72, 77
2, 1431, Note_on_c, 0, 72, 0
2, 1431, Note_on_c, 0, 67, 0
2, 1434, Note_on_c, 0, 75, 0
2, 1662, Note_on_c, 0, 75, 84
2, 1671, Note_on_c, 0, 67, 64
2, 1672, Note_on_c, 0, 63, 72
2, 1672, Note_on_c, 0, 72, 74
2, 1678, Note_on_c, 0, 60, 63
2, 1924, Note_on_c, 0, 60, 0
2, 1931, Note_on_c, 0, 63, 0
2, 1932, Note_on_c, 0, 74, 80
2, 1946, Note_on_c, 0, 72, 0
2, 1960, Note_on_c, 0, 43, 28
2, 1971, Note_on_c, 0, 75, 0
2, 1983, Note_on_c, 0, 43, 0
2, 1994, Note_on_c, 0, 74, 0
2, 1996, Note_on_c, 0, 67, 0
2, 2211, Note_on_c, 0, 75, 87
2, 2226, Note_on_c, 0, 60, 66
2, 2226, Note_on_c, 0, 67, 60
2, 2226, Note_on_c, 0, 63, 69
2, 2229, Note_on_c, 0, 72, 72
2, 2484, Note_on_c, 0, 60, 0
2, 2491, Note_on_c, 0, 63, 0
2, 2496, Note_on_c, 0, 72, 0
2, 2496, Note_on_c, 0, 75, 0
2, 2500, Note_on_c, 0, 72, 83
2, 2534, Note_on_c, 0, 67, 0
2, 2540, Note_on_c, 0, 72, 0
2, 2777, Note_on_c, 0, 75, 85
2, 2784, Note_on_c, 0, 72, 71
2, 2784, Note_on_c, 0, 67, 62
2, 2785, Note_on_c, 0, 60, 65
2, 2786, Note_on_c, 0, 63, 70
2, 2856, Control_c, 0, 64, 127
2, 3053, Note_on_c, 0, 74, 79
2, 3064, Control_c, 0, 64, 0
2, 3076, Note_on_c, 0, 72, 0
2, 3077, Note_on_c, 0, 63, 0
2, 3081, Note_on_c, 0, 60, 0
2, 3082, Note_on_c, 0, 67, 0
2, 3084, Note_on_c, 0, 75, 0
2, 3099, Note_on_c, 0, 74, 0
2, 3319, Note_on_c, 0, 75, 84
2, 3337, Note_on_c, 0, 72, 78
2, 3345, Note_on_c, 0, 63, 77
2, 3346, Note_on_c, 0, 67, 57
2, 3368, Note_on_c, 0, 60, 62
2, 3555, Control_c, 0, 64, 127
2, 3594, Note_on_c, 0, 72, 0
2, 3604, Note_on_c, 0, 72, 81
2, 3624, Control_c, 0, 64, 0
2, 3652, Note_on_c, 0, 67, 0
2, 3652, Note_on_c, 0, 63, 0
2, 3653, Note_on_c, 0, 75, 0
2, 3655, Note_on_c, 0, 60, 0
2, 3655, Note_on_c, 0, 72, 0
2, 3882, Note_on_c, 0, 75, 92
2, 3890, Note_on_c, 0, 67, 68
2, 3891, Note_on_c, 0, 63, 78
2, 3892, Note_on_c, 0, 60, 73
2, 3893, Note_on_c, 0, 72, 80
2, 3970, Control_c, 0, 64, 127
2, 4166, Note_on_c, 0, 74, 92
2, 4193, Control_c, 0, 64, 0
2, 4209, Note_on_c, 0, 67, 0
2, 4216, Note_on_c, 0, 72, 0
2, 4219, Note_on_c, 0, 75, 0
2, 4244, Note_on_c, 0, 60, 0
2, 4251, Note_on_c, 0, 74, 0
2, 4256, Note_on_c, 0, 63, 0
2, 4435, Note_on_c, 0, 75, 100
2, 4442, Note_on_c, 0, 72, 91
2, 4448, Note_on_c, 0, 67, 82
2, 4450, Note_on_c, 0, 63, 88
2, 4453, Note_on_c, 0, 60, 82
2, 4500, Control_c, 0, 64, 127
2, 4700, Note_on_c, 0, 72, 0
2, 4705, Note_on_c, 0, 72, 100
2, 4753, Control_c, 0, 64, 0
2, 4765, Note_on_c, 0, 67, 0
2, 4771, Note_on_c, 0, 60, 0
2, 4772, Note_on_c, 0, 63, 0
2, 4773, Note_on_c, 0, 75, 0
2, 4778, Note_on_c, 0, 72, 0
2, 4987, Note_on_c, 0, 75, 104
2, 4988, Note_on_c, 0, 72, 97
2, 4993, Note_on_c, 0, 56, 75
2, 4995, Note_on_c, 0, 68, 93
2, 4995, Note_on_c, 0, 63, 89
2, 5001, Note_on_c, 0, 60, 85
2, 5061, Control_c, 0, 64, 127
2, 5263, Note_on_c, 0, 74, 92
2, 5305, Note_on_c, 0, 72, 0
2, 5309, Note_on_c, 0, 75, 0
2, 5311, Note_on_c, 0, 68, 0
2, 5313, Note_on_c, 0, 63, 0
2, 5314, Note_on_c, 0, 56, 0
2, 5314, Control_c, 0, 64, 0
2, 5318, Note_on_c, 0, 60, 0
2, 5349, Note_on_c, 0, 74, 0
2, 5540, Note_on_c, 0, 75, 95
2, 5549, Note_on_c, 0, 72, 84
2, 5559, Note_on_c, 0, 63, 78
2, 5560, Note_on_c, 0, 68, 77
2, 5566, Note_on_c, 0, 60, 73
2, 5821, Note_on_c, 0, 72, 0
2, 5832, Note_on_c, 0, 72, 89
2, 5842, Note_on_c, 0, 75, 0
2, 5898, Note_on_c, 0, 60, 0
2, 5902, Note_on_c, 0, 68, 0
2, 5902, Note_on_c, 0, 63, 0
2, 5915, Note_on_c, 0, 72, 0
2, 6122, Note_on_c, 0, 75, 91
2, 6126, Note_on_c, 0, 72, 76
2, 6126, Note_on_c, 0, 63, 72
2, 6131, Note_on_c, 0, 68, 74
2, 6132, Note_on_c, 0, 60, 69
2, 6243, Control_c, 0, 64, 127
2, 6403, Note_on_c, 0, 74, 85
2, 6447, Note_on_c, 0, 75, 0
2, 6448, Note_on_c, 0, 63, 0
2, 6450, Note_on_c, 0, 72, 0
2, 6451, Control_c, 0, 64, 0
2, 6452, Note_on_c, 0, 68, 0
2, 6452, Note_on_c, 0, 60, 0
2, 6489, Note_on_c, 0, 74, 0
2, 6677, Note_on_c, 0, 75, 91
2, 6677, Note_on_c, 0, 72, 84
2, 6684, Note_on_c, 0, 63, 74
2, 6684, Note_on_c, 0, 68, 75
2, 6689, Note_on_c, 0, 60, 68
2, 6840, Note_on_c, 0, 72, 0
2, 6960, Note_on_c, 0, 72, 87
2, 6980, Note_on_c, 0, 75, 0
2, 6984, Note_on_c, 0, 68, 0
2, 6992, Note_on_c, 0, 60, 0
2, 7002, Note_on_c, 0, 63, 0
2, 7061, Note_on_c, 0, 72, 0
2, 7238, Note_on_c, 0, 75, 88
2, 7239, Note_on_c, 0, 72, 79
2, 7245, Note_on_c, 0, 63, 72
2, 7246, Note_on_c, 0, 68, 77
2, 7253, Note_on_c, 0, 60, 68
2, 7517, Note_on_c, 0, 74, 82
2, 7569, Note_on_c, 0, 72, 0
2, 7571, Note_on_c, 0, 75, 0
2, 7577, Note_on_c, 0, 60, 0
2, 7580, Note_on_c, 0, 68, 0
2, 7583, Note_on_c, 0, 63, 0
2, 7614, Note_on_c, 0, 74, 0
2, 7800, Note_on_c, 0, 75, 82
2, 7801, Note_on_c, 0, 72, 76
2, 7807, Note_on_c, 0, 60, 68
2, 7807, Note_on_c, 0, 68, 69
2, 7809, Note_on_c, 0, 63, 69
2, 7960, Note_on_c, 0, 72, 0
2, 8038, Note_on_c, 0, 68, 0
2, 8076, Note_on_c, 0, 72, 84
2, 8137, Note_on_c, 0, 60, 0
2, 8158, Note_on_c, 0, 75, 0
2, 8159, Note_on_c, 0, 63, 0
2, 8161, Note_on_c, 0, 72, 0
2, 8352, Note_on_c, 0, 75, 83
2, 8353, Note_on_c, 0, 72, 76
2, 8361, Note_on_c, 0, 63, 76
2, 8365, Note_on_c, 0, 68, 68
2, 8373, Note_on_c, 0, 60, 65
2, 8578, Control_c, 0, 64, 127
2, 8622, Note_on_c, 0, 74, 79
2, 8697, Note_on_c, 0, 72, 0
2, 8701, Control_c, 0, 64, 0
2, 8701, Note_on_c, 0, 75, 0
2, 8705, Note_on_c, 0, 68, 0
2, 8705, Note_on_c, 0, 74, 0
2, 8709, Note_on_c, 0, 60, 0
2, 8721, Note_on_c, 0, 63, 0
2, 8909, Note_on_c, 0, 75, 86
2, 8910, Note_on_c, 0, 72, 76
2, 8915, Note_on_c, 0, 68, 73
2, 8915, Note_on_c, 0, 63, 79
2, 8920, Note_on_c, 0, 60, 73
2, 9016, Control_c, 0, 64, 127
2, 9151, Note_on_c, 0, 63, 0
2, 9154, Control_c, 0, 64, 0
2, 9155, Note_on_c, 0, 60, 0
2, 9177, Note_on_c, 0, 72, 0
2, 9187, Note_on_c, 0, 72, 70
2, 9226, Note_on_c, 0, 72, 0
2, 9227, Note_on_c, 0, 68, 0
2, 9228, Note_on_c, 0, 75, 0
2, 9296, Note_on_c, 0, 36, 87
2, 9330, Note_on_c, 0, 36, 0
2, 9442, Note_on_c, 0, 36, 91
2, 9443, Note_on_c, 0, 77, 99
2, 9444, Note_on_c, 0, 67, 86
2, 9444, Note_on_c, 0, 70, 91
2, 9507, Note_on_c, 0, 36, 0
2, 9572, Note_on_c, 0, 48, 82
2, 9651, Note_on_c, 0, 48, 0
2, 9705, Note_on_c, 0, 36, 80
2, 9713, Note_on_c, 0, 86, 82
2, 9719, Note_on_c, 0, 74, 84
2, 9722, Note_on_c, 0, 86, 0
2, 9737, Note_on_c, 0, 67, 0
2, 9746, Note_on_c, 0, 70, 0
2, 9756, Note_on_c, 0, 77, 0
2, 9830, Note_on_c, 0, 48, 79
2, 9840, Note_on_c, 0, 74, 0
2, 9853, Note_on_c, 0, 36, 0
2, 9865, Note_on_c, 0, 48, 0
2, 9975, Note_on_c, 0, 60, 96
2, 9978, Note_on_c, 0, 77, 89
2, 9980, Note_on_c, 0, 70, 88
2, 9981, Note_on_c, 0, 67, 85
2, 10107, Note_on_c, 0, 55, 76
2, 10111, Note_on_c, 0, 60, 0
2, 10249, Note_on_c, 0, 48, 80
2, 10249, Note_on_c, 0, 55, 0
2, 10251, Note_on_c, 0, 72, 84
2, 10273, Note_on_c, 0, 70, 0
2, 10274, Note_on_c, 0, 67, 0
2, 10279, Note_on_c, 0, 77, 0
2, 10287, Note_on_c, 0, 48, 0
2, 10325, Note_on_c, 0, 72, 0
2, 10390, Note_on_c, 0, 36, 80
2, 10516, Note_on_c, 0, 36, 0
2, 10518, Note_on_c, 0, 77, 93
2, 10521, Note_on_c, 0, 48, 86
2, 10522, Note_on_c, 0, 70, 87
2, 10523, Note_on_c, 0, 67, 87
2, 10593, Note_on_c, 0, 48, 0
2, 10650, Note_on_c, 0, 36, 83
2, 10790, Note_on_c, 0, 36, 0
2, 10794, Note_on_c, 0, 36, 89
2, 10807, Note_on_c, 0, 74, 86
2, 10826, Note_on_c, 0, 67, 0
2, 10844, Note_on_c, 0, 77, 0
2, 10845, Note_on_c, 0, 70, 0
2, 10862, Note_on_c, 0, 74, 0
2, 10921, Note_on_c, 0, 48, 77
2, 10936, Note_on_c, 0, 36, 0
2, 10955, Note_on_c, 0, 48, 0
2, 11061, Note_on_c, 0, 72, 89
2, 11065, Note_on_c, 0, 77, 95
2, 11065, Note_on_c, 0, 60, 93
2, 11069, Note_on_c, 0, 70, 89
2, 11070, Note_on_c, 0, 67, 86
2, 11185, Note_on_c, 0, 60, 0
2, 11197, Note_on_c, 0, 55, 75
2, 11325, Note_on_c, 0, 55, 0
2, 11328, Note_on_c, 0, 72, 0
2, 11330, Note_on_c, 0, 48, 86
2, 11335, Note_on_c, 0, 72, 77
2, 11362, Note_on_c, 0, 67, 0
2, 11368, Note_on_c, 0, 70, 0
2, 11371, Note_on_c, 0, 48, 0
2, 11373, Note_on_c, 0, 77, 0
2, 11458, Note_on_c, 0, 36, 89
2, 11489, Note_on_c, 0, 72, 0
2, 11573, Note_on_c, 0, 36, 0
2, 11585, Note_on_c, 0, 36, 89
2, 11602, Note_on_c, 0, 77, 92
2, 11603, Note_on_c, 0, 70, 92
2, 11605, Note_on_c, 0, 67, 87
2, 11640, Note_on_c, 0, 36, 0
2, 11728, Note_on_c, 0, 48, 78
2, 11801, Note_on_c, 0, 48, 0
2, 11861, Note_on_c, 0, 36, 86
2, 11868, Note_on_c, 0, 74, 85
2, 11915, Note_on_c, 0, 70, 0
2, 11923, Note_on_c, 0, 77, 0
2, 11950, Note_on_c, 0, 36, 0
2, 11963, Note_on_c, 0, 74, 0
2, 11977, Note_on_c, 0, 67, 0
2, 11990, Note_on_c, 0, 48, 78
2, 12031, Note_on_c, 0, 48, 0
2, 12138, Note_on_c, 0, 72, 90
2, 12143, Note_on_c, 0, 60, 97
2, 12144, Note_on_c, 0, 77, 95
2, 12145, Note_on_c, 0, 70, 89
2, 12146, Note_on_c, 0, 67, 88
2, 12260, Note_on_c, 0, 60, 0
2, 12268, Note_on_c, 0, 55, 76
2, 12410, Note_on_c, 0, 72, 0
2, 12417, Note_on_c, 0, 48, 78
2, 12418, Note_on_c, 0, 55, 0
2, 12419, Note_on_c, 0, 72, 79
2, 12446, Note_on_c, 0, 67, 0
2, 12447, Note_on_c, 0, 70, 0
2, 12447, Note_on_c, 0, 77, 0
2, 12460, Note_on_c, 0, 48, 0
2, 12546, Note_on_c, 0, 36, 86
2, 12564, Note_on_c, 0, 72, 0
2, 12677, Note_on_c, 0, 48, 83
2, 12679, Note_on_c, 0, 77, 94
2, 12681, Note_on_c, 0, 70, 86
2, 12681, Note_on_c, 0, 67, 85
2, 12732, Note_on_c, 0, 36, 0
2, 12738, Note_on_c, 0, 48, 0
2, 12805, Note_on_c, 0, 36, 81
2, 12940, Note_on_c, 0, 36, 0
2, 12945, Note_on_c, 0, 36, 84
2, 12949, Note_on_c, 0, 86, 79
2, 12952, Note_on_c, 0, 74, 82
2, 12956, Note_on_c, 0, 86, 0
2, 12974, Note_on_c, 0, 67, 0
2, 12976, Note_on_c, 0, 77, 0
2, 12982, Note_on_c, 0, 70, 0
2, 13022, Note_on_c, 0, 74, 0
2, 13071, Note_on_c, 0, 48, 79
2, 13090, Note_on_c, 0, 36, 0
2, 13105, Note_on_c, 0, 48, 0
2, 13213, Note_on_c, 0, 72, 91
2, 13215, Note_on_c, 0, 77, 95
2, 13217, Note_on_c, 0, 60, 95
2, 13218, Note_on_c, 0, 70, 89
2, 13220, Note_on_c, 0, 67, 89
2, 13335, Note_on_c, 0, 60, 0
2, 13345, Note_on_c, 0, 55, 80
2, 13470, Note_on_c, 0, 72, 0
2, 13475, Note_on_c, 0, 48, 81
2, 13482, Note_on_c, 0, 72, 83
2, 13484, Note_on_c, 0, 55, 0
2, 13493, Note_on_c, 0, 77, 0
2, 13497, Note_on_c, 0, 67, 0
2, 13501, Note_on_c, 0, 70, 0
2, 13519, Note_on_c, 0, 48, 0
2, 13544, Note_on_c, 0, 72, 0
2, 13611, Note_on_c, 0, 36, 88
2, 13651, Note_on_c, 0, 36, 0
2, 13743, Note_on_c, 0, 75, 103
2, 13743, Note_on_c, 0, 36, 85
2, 13746, Note_on_c, 0, 72, 91
2, 13751, Note_on_c, 0, 68, 84
2, 13877, Note_on_c, 0, 48, 77
2, 13946, Note_on_c, 0, 36, 0
2, 13950, Note_on_c, 0, 48, 0
2, 14012, Note_on_c, 0, 36, 82
2, 14018, Note_on_c, 0, 74, 79
2, 14034, Note_on_c, 0, 72, 0
2, 14034, Note_on_c, 0, 68, 0
2, 14040, Note_on_c, 0, 75, 0
2, 14081, Note_on_c, 0, 74, 0
2, 14136, Note_on_c, 0, 48, 80
2, 14166, Note_on_c, 0, 36, 0
2, 14174, Note_on_c, 0, 48, 0
2, 14280, Note_on_c, 0, 72, 96
2, 14281, Note_on_c, 0, 75, 99
2, 14284, Note_on_c, 0, 60, 93
2, 14287, Note_on_c, 0, 68, 90
2, 14289, Note_on_c, 0, 48, 68
2, 14353, Note_on_c, 0, 48, 0
2, 14412, Note_on_c, 0, 56, 74
2, 14440, Note_on_c, 0, 60, 0
2, 14545, Note_on_c, 0, 72, 0
2, 14547, Note_on_c, 0, 48, 80
2, 14555, Note_on_c, 0, 72, 83
2, 14568, Note_on_c, 0, 56, 0
2, 14580, Note_on_c, 0, 75, 0
2, 14587, Note_on_c, 0, 48, 0
2, 14622, Note_on_c, 0, 68, 0
2, 14641, Note_on_c, 0, 72, 0
2, 14681, Note_on_c, 0, 36, 82
2, 14818, Note_on_c, 0, 48, 84
2, 14818, Note_on_c, 0, 75, 94
2, 14819, Note_on_c, 0, 72, 91
2, 14822, Note_on_c, 0, 68, 85
2, 14868, Note_on_c, 0, 36, 0
2, 14879, Note_on_c, 0, 48, 0
2, 14941, Note_on_c, 0, 36, 82
2, 15075, Note_on_c, 0, 36, 0
2, 15081, Note_on_c, 0, 36, 82
2, 15086, Note_on_c, 0, 86, 80
2, 15091, Note_on_c, 0, 86, 0
2, 15091, Note_on_c, 0, 74, 81
2, 15118, Note_on_c, 0, 72, 0
2, 15123, Note_on_c, 0, 68, 0
2, 15125, Note_on_c, 0, 75, 0
2, 15149, Note_on_c, 0, 74, 0
2, 15211, Note_on_c, 0, 48, 72
2, 15238, Note_on_c, 0, 36, 0
2, 15248, Note_on_c, 0, 48, 0
2, 15354, Note_on_c, 0, 75, 94
2, 15354, Note_on_c, 0, 72, 89
2, 15355, Note_on_c, 0, 60, 90
2, 15359, Note_on_c, 0, 68, 86
2, 15486, Note_on_c, 0, 56, 69
2, 15517, Note_on_c, 0, 60, 0
2, 15613, Note_on_c, 0, 72, 0
2, 15619, Note_on_c, 0, 48, 81
2, 15621, Note_on_c, 0, 68, 0
2, 15623, Note_on_c, 0, 72, 78
2, 15628, Note_on_c, 0, 68, 63
2, 15655, Note_on_c, 0, 56, 0
2, 15661, Note_on_c, 0, 75, 0
2, 15663, Note_on_c, 0, 48, 0
2, 15673, Note_on_c, 0, 72, 0
2, 15705, Note_on_c, 0, 68, 0
2, 15755, Note_on_c, 0, 36, 81
2, 15795, Note_on_c, 0, 36, 0
2, 15885, Note_on_c, 0, 36, 87
2, 15893, Note_on_c, 0, 75, 90
2, 15893, Note_on_c, 0, 72, 87
2, 15898, Note_on_c, 0, 68, 85
2, 16019, Note_on_c, 0, 48, 77
2, 16066, Note_on_c, 0, 36, 0
2, 16083, Note_on_c, 0, 48, 0
2, 16150, Note_on_c, 0, 36, 79
2, 16159, Note_on_c, 0, 74, 81
2, 16192, Note_on_c, 0, 72, 0
2, 16196, Note_on_c, 0, 68, 0
2, 16199, Note_on_c, 0, 75, 0
2, 16241, Note_on_c, 0, 74, 0
2, 16271, Note_on_c, 0, 48, 81
2, 16309, Note_on_c, 0, 36, 0
2, 16314, Note_on_c, 0, 48, 0
2, 16425, Note_on_c, 0, 75, 96
2, 16427, Note_on_c, 0, 60, 90
2, 16428, Note_on_c, 0, 72, 88
2, 16431, Note_on_c, 0, 48, 70
2, 16433, Note_on_c, 0, 68, 88
2, 16442, Note_on_c, 0, 48, 0
2, 16553, Note_on_c, 0, 56, 71
2, 16590, Note_on_c, 0, 72, 0
2, 16594, Note_on_c, 0, 60, 0
2, 16686, Note_on_c, 0, 48, 78
2, 16707, Note_on_c, 0, 72, 71
2, 16708, Note_on_c, 0, 56, 0
2, 16708, Note_on_c, 0, 68, 0
2, 16732, Note_on_c, 0, 48, 0
2, 16747, Note_on_c, 0, 75, 0
2, 16774, Note_on_c, 0, 72, 0
2, 16823, Note_on_c, 0, 36, 79
2, 16960, Note_on_c, 0, 48, 82
2, 16961, Note_on_c, 0, 75, 89
2, 16962, Note_on_c, 0, 72, 86
2, 16965, Note_on_c, 0, 68, 85
2, 16988, Note_on_c, 0, 36, 0
2, 17039, Note_on_c, 0, 48, 0
2, 17087, Note_on_c, 0, 36, 81
2, 17135, Note_on_c, 0, 36, 0
2, 17227, Note_on_c, 0, 36, 73
2, 17234, Note_on_c, 0, 86, 76
2, 17237, Note_on_c, 0, 74, 79
2, 17241, Note_on_c, 0, 86, 0
2, 17264, Note_on_c, 0, 72, 0
2, 17267, Note_on_c, 0, 68, 0
2, 17267, Note_on_c, 0, 75, 0
2, 17313, Note_on_c, 0, 74, 0
2, 17351, Note_on_c, 0, 48, 69
2, 17379, Note_on_c, 0, 36, 0
2, 17390, Note_on_c, 0, 48, 0
2, 17498, Note_on_c, 0, 60, 88
2, 17498, Note_on_c, 0, 72, 89
2, 17500, Note_on_c, 0, 75, 90
2, 17514, Note_on_c, 0, 68, 80
2, 17625, Note_on_c, 0, 56, 70
2, 17678, Note_on_c, 0, 60, 0
2, 17751, Note_on_c, 0, 48, 71
2, 17771, Note_on_c, 0, 72, 0
2, 17779, Note_on_c, 0, 68, 0
2, 17782, Note_on_c, 0, 72, 78
2, 17784, Note_on_c, 0, 68, 57
2, 17785, Note_on_c, 0, 56, 0
2, 17792, Note_on_c, 0, 48, 0
2, 17826, Note_on_c, 0, 75, 0
2, 17876, Note_on_c, 0, 72, 0
2, 17879, Note_on_c, 0, 68, 0
2, 17900, Note_on_c, 0, 36, 57
2, 18043, Note_on_c, 0, 48, 59
2, 18048, Note_on_c, 0, 36, 0
2, 18058, Note_on_c, 0, 75, 58
2, 18060, Note_on_c, 0, 72, 54
2, 18066, Note_on_c, 0, 67, 48
2, 18163, Control_c, 0, 64, 127
2, 18341, Note_on_c, 0, 74, 53
2, 18593, Note_on_c, 0, 72, 0
2, 18593, Note_on_c, 0, 75, 0
2, 18597, Control_c, 0, 64, 0
2, 18598, Note_on_c, 0, 72, 53
2, 18600, Note_on_c, 0, 67, 0
2, 18603, Note_on_c, 0, 74, 0
2, 18603, Note_on_c, 0, 75, 54
2, 18604, Note_on_c, 0, 48, 0
2, 18604, Note_on_c, 0, 67, 43
2, 18670, Control_c, 0, 64, 127
2, 18869, Note_on_c, 0, 72, 0
2, 18878, Note_on_c, 0, 60, 71
2, 18879, Note_on_c, 0, 72, 65
2, 19133, Control_c, 0, 64, 0
2, 19137, Note_on_c, 0, 74, 70
2, 19138, Note_on_c, 0, 75, 0
2, 19140, Note_on_c, 0, 62, 76
2, 19142, Note_on_c, 0, 60, 0
2, 19144, Note_on_c, 0, 75, 61
2, 19146, Note_on_c, 0, 67, 0
2, 19146, Note_on_c, 0, 72, 0
2, 19150, Note_on_c, 0, 72, 53
2, 19150, Note_on_c, 0, 67, 58
2, 19207, Control_c, 0, 64, 127
2, 19415, Note_on_c, 0, 67, 0
2, 19415, Note_on_c, 0, 75, 0
2, 19418, Note_on_c, 0, 63, 83
2, 19419, Note_on_c, 0, 75, 68
2, 19425, Note_on_c, 0, 67, 40
2, 19630, Note_on_c, 0, 72, 0
2, 19630, Note_on_c, 0, 74, 0
2, 19634, Note_on_c, 0, 62, 0
2, 19635, Control_c, 0, 64, 0
2, 19683, Note_on_c, 0, 75, 0
2, 19689, Note_on_c, 0, 75, 67
2, 19691, Note_on_c, 0, 67, 0
2, 19701, Note_on_c, 0, 72, 62
2, 19702, Note_on_c, 0, 67, 55
2, 19776, Control_c, 0, 64, 127
2, 19972, Note_on_c, 0, 68, 91
2, 20238, Control_c, 0, 64, 0
2, 20252, Note_on_c, 0, 67, 0
2, 20252, Note_on_c, 0, 72, 0
2, 20252, Note_on_c, 0, 75, 0
2, 20260, Note_on_c, 0, 72, 63
2, 20261, Note_on_c, 0, 48, 68
2, 20262, Note_on_c, 0, 75, 66
2, 20263, Note_on_c, 0, 67, 59
2, 20313, Control_c, 0, 64, 127
2, 20520, Note_on_c, 0, 63, 0
2, 20528, Note_on_c, 0, 67, 0
2, 20531, Note_on_c, 0, 63, 77
2, 20538, Note_on_c, 0, 74, 66
2, 20538, Note_on_c, 0, 67, 45
2, 20797, Note_on_c, 0, 48, 0
2, 20797, Note_on_c, 0, 68, 0
2, 20797, Note_on_c, 0, 74, 0
2, 20798, Control_c, 0, 64, 0
2, 20801, Note_on_c, 0, 63, 0
2, 20804, Note_on_c, 0, 74, 71
2, 20804, Note_on_c, 0, 48, 55
2, 20805, Note_on_c, 0, 67, 0
2, 20805, Note_on_c, 0, 75, 0
2, 20809, Note_on_c, 0, 62, 69
2, 20809, Note_on_c, 0, 75, 69
2, 20812, Note_on_c, 0, 67, 64
2, 20812, Note_on_c, 0, 72, 0
2, 20816, Note_on_c, 0, 72, 63
2, 20851, Note_on_c, 0, 48, 0
2, 20881, Control_c, 0, 64, 127
2, 21089, Note_on_c, 0, 72, 0
2, 21093, Note_on_c, 0, 60, 73
2, 21094, Note_on_c, 0, 72, 67
2, 21353, Control_c, 0, 64, 0
2, 21355, Note_on_c, 0, 62, 0
2, 21356, Note_on_c, 0, 74, 0
2, 21365, Note_on_c, 0, 72, 0
2, 21365, Note_on_c, 0, 75, 0
2, 21369, Note_on_c, 0, 75, 66
2, 21373, Note_on_c, 0, 67, 0
2, 21376, Note_on_c, 0, 72, 55
2, 21380, Note_on_c, 0, 67, 48
2, 21419, Control_c, 0, 64, 127
2, 21645, Note_on_c, 0, 74, 50
2, 21894, Control_c, 0, 64, 0
2, 21895, Note_on_c, 0, 74, 0
2, 21896, Note_on_c, 0, 67, 0
2, 21903, Note_on_c, 0, 60, 0
2, 21903, Note_on_c, 0, 75, 0
2, 21913, Note_on_c, 0, 75, 58
2, 21918, Note_on_c, 0, 72, 0
2, 21922, Note_on_c, 0, 72, 46
2, 21931, Note_on_c, 0, 67, 43
2, 21957, Control_c, 0, 64, 127
2, 22194, Note_on_c, 0, 58, 75
2, 22195, Note_on_c, 0, 72, 0
2, 22203, Note_on_c, 0, 72, 59
2, 22466, Control_c, 0, 64, 0
2, 22467, Note_on_c, 0, 67, 0
2, 22471, Note_on_c, 0, 58, 0
2, 22476, Note_on_c, 0, 58, 68
2, 22479, Note_on_c, 0, 75, 0
2, 22482, Note_on_c, 0, 48, 52
2, 22484, Note_on_c, 0, 75, 60
2, 22487, Note_on_c, 0, 72, 0
2, 22492, Note_on_c, 0, 68, 55
2, 22496, Note_on_c, 0, 72, 55
2, 22533, Control_c, 0, 64, 127
2, 22732, Note_on_c, 0, 72, 0
2, 22740, Note_on_c, 0, 72, 65
2, 22742, Note_on_c, 0, 60, 74
2, 22758, Note_on_c, 0, 74, 58
2, 22998, Note_on_c, 0, 74, 0
2, 22999, Note_on_c, 0, 58, 0
2, 22999, Note_on_c, 0, 60, 0
2, 23000, Control_c, 0, 64, 0
2, 23001, Note_on_c, 0, 48, 0
2, 23016, Note_on_c, 0, 75, 0
2, 23021, Note_on_c, 0, 63, 75
2, 23027, Note_on_c, 0, 75, 64
2, 23032, Note_on_c, 0, 72, 0
2, 23040, Note_on_c, 0, 68, 0
2, 23042, Note_on_c, 0, 72, 48
2, 23045, Note_on_c, 0, 68, 49
2, 23086, Control_c, 0, 64, 127
2, 23289, Note_on_c, 0, 74, 60
2, 23292, Note_on_c, 0, 62, 71
2, 23301, Note_on_c, 0, 72, 0
2, 23307, Note_on_c, 0, 72, 59
2, 23562, Note_on_c, 0, 72, 0
2, 23569, Note_on_c, 0, 75, 0
2, 23570, Note_on_c, 0, 60, 75
2, 23571, Note_on_c, 0, 72, 66
2, 23574, Control_c, 0, 64, 0
2, 23578, Note_on_c, 0, 75, 58
2, 23578, Note_on_c, 0, 63, 0
2, 23579, Note_on_c, 0, 62, 0
2, 23592, Note_on_c, 0, 68, 0
2, 23600, Note_on_c, 0, 68, 50
2, 23608, Note_on_c, 0, 74, 0
2, 23654, Control_c, 0, 64, 127
2, 23843, Note_on_c, 0, 58, 74
2, 23865, Note_on_c, 0, 74, 61
2, 23870, Note_on_c, 0, 70, 55
2, 24092, Note_on_c, 0, 60, 0
2, 24092, Note_on_c, 0, 72, 0
2, 24104, Control_c, 0, 64, 0
2, 24105, Note_on_c, 0, 74, 0
2, 24130, Note_on_c, 0, 68, 0
2, 24130, Note_on_c, 0, 75, 0
2, 24134, Note_on_c, 0, 72, 59
2, 24135, Note_on_c, 0, 75, 59
2, 24141, Note_on_c, 0, 68, 50
2, 24168, Control_c, 0, 64, 127
2, 24199, Note_on_c, 0, 70, 0
2, 24399, Note_on_c, 0, 72, 0
2, 24403, Note_on_c, 0, 60, 71
2, 24405, Note_on_c, 0, 72, 64
2, 24663, Control_c, 0, 64, 0
2, 24668, Note_on_c, 0, 60, 0
2, 24668, Note_on_c, 0, 72, 0
2, 24668, Note_on_c, 0, 75, 0
2, 24668, Note_on_c, 0, 58, 0
2, 24674, Note_on_c, 0, 60, 56
2, 24675, Note_on_c, 0, 68, 0
2, 24678, Note_on_c, 0, 75, 62
2, 24678, Note_on_c, 0, 72, 60
2, 24679, Note_on_c, 0, 68, 61
2, 24682, Note_on_c, 0, 48, 50
2, 24729, Control_c, 0, 64, 127
2, 24963, Note_on_c, 0, 74, 61
2, 25167, Note_on_c, 0, 48, 0
2, 25221, Note_on_c, 0, 74, 0
2, 25222, Control_c, 0, 64, 0
2, 25228, Note_on_c, 0, 72, 0
2, 25228, Note_on_c, 0, 75, 0
2, 25236, Note_on_c, 0, 68, 0
2, 25239, Note_on_c, 0, 75, 51
2, 25239, Note_on_c, 0, 72, 57
2, 25240, Note_on_c, 0, 68, 54
2, 25290, Control_c, 0, 64, 127
2, 25505, Note_on_c, 0, 72, 0
2, 25516, Note_on_c, 0, 72, 55
2, 25774, Note_on_c, 0, 75, 0
2, 25777, Control_c, 0, 64, 0
2, 25780, Note_on_c, 0, 75, 53
2, 25781, Note_on_c, 0, 72, 0
2, 25792, Note_on_c, 0, 72, 54
2, 25797, Note_on_c, 0, 68, 0
2, 25801, Note_on_c, 0, 68, 45
2, 25835, Control_c, 0, 64, 127
2, 26042, Note_on_c, 0, 60, 0
2, 26054, Note_on_c, 0, 55, 67
2, 26061, Note_on_c, 0, 74, 59
2, 26068, Note_on_c, 0, 67, 53
2, 26309, Control_c, 0, 64, 0
2, 26311, Note_on_c, 0, 75, 0
2, 26314, Note_on_c, 0, 74, 0
2, 26319, Note_on_c, 0, 55, 0
2, 26320, Note_on_c, 0, 75, 68
2, 26328, Note_on_c, 0, 55, 68
2, 26334, Note_on_c, 0, 72, 0
2, 26340, Note_on_c, 0, 72, 52
2, 26342, Note_on_c, 0, 68, 0
2, 26353, Note_on_c, 0, 68, 59
2, 26373, Control_c, 0, 64, 127
2, 26585, Note_on_c, 0, 58, 81
2, 26588, Note_on_c, 0, 72, 0
2, 26592, Note_on_c, 0, 72, 65
2, 26840, Control_c, 0, 64, 0
2, 26841, Note_on_c, 0, 67, 0
2, 26842, Note_on_c, 0, 75, 0
2, 26843, Note_on_c, 0, 72, 0
2, 26843, Note_on_c, 0, 68, 0
2, 26844, Note_on_c, 0, 55, 0
2, 26876, Note_on_c, 0, 65, 84
2, 26878, Note_on_c, 0, 60, 77
2, 26880, Note_on_c, 0, 58, 0
2, 26883, Note_on_c, 0, 48, 67
2, 26883, Note_on_c, 0, 58, 71
2, 26889, Note_on_c, 0, 70, 69
2, 26910, Note_on_c, 0, 70, 0
2, 26910, Control_c, 0, 64, 127
2, 27004, Note_on_c, 0, 55, 71
2, 27125, Note_on_c, 0, 65, 0
2, 27144, Note_on_c, 0, 36, 59
2, 27151, Note_on_c, 0, 101, 85
2, 27202, Note_on_c, 0, 58, 0
2, 27283, Note_on_c, 0, 96, 70
2, 27409, Note_on_c, 0, 55, 0
2, 27418, Note_on_c, 0, 55, 56
2, 27418, Note_on_c, 0, 94, 68
2, 27425, Note_on_c, 0, 48, 0
2, 27430, Note_on_c, 0, 48, 48
2, 27540, Note_on_c, 0, 36, 0
2, 27540, Note_on_c, 0, 48, 0
2, 27540, Note_on_c, 0, 96, 0
2, 27544, Note_on_c, 0, 48, 62
2, 27545, Note_on_c, 0, 96, 75
2, 27550, Note_on_c, 0, 36, 53
2, 27678, Note_on_c, 0, 48, 0
2, 27678, Note_on_c, 0, 60, 0
2, 27680, Note_on_c, 0, 89, 75
2, 27683, Note_on_c, 0, 60, 71
2, 27684, Note_on_c, 0, 48, 57
2, 27793, Note_on_c, 0, 48, 0
2, 27804, Note_on_c, 0, 48, 62
2, 27811, Note_on_c, 0, 91, 71
2, 27932, Note_on_c, 0, 48, 0
2, 27937, Note_on_c, 0, 48, 61
2, 27950, Note_on_c, 0, 84, 71
2, 28070, Note_on_c, 0, 55, 0
2, 28078, Note_on_c, 0, 89, 0
2, 28080, Note_on_c, 0, 55, 65
2, 28082, Note_on_c, 0, 89, 72
2, 28208, Note_on_c, 0, 36, 0
2, 28208, Note_on_c, 0, 101, 0
2, 28217, Note_on_c, 0, 101, 86
2, 28217, Note_on_c, 0, 36, 61
2, 28354, Note_on_c, 0, 96, 0
2, 28360, Note_on_c, 0, 96, 76
2, 28392, Note_on_c, 0, 48, 0
2, 28402, Note_on_c, 0, 48, 45
2, 28485, Note_on_c, 0, 94, 0
2, 28490, Note_on_c, 0, 94, 70
2, 28608, Note_on_c, 0, 48, 0
2, 28608, Note_on_c, 0, 96, 0
2, 28614, Note_on_c, 0, 96, 75
2, 28615, Note_on_c, 0, 48, 64
2, 28730, Note_on_c, 0, 48, 0
2, 28730, Note_on_c, 0, 60, 0
2, 28730, Note_on_c, 0, 89, 0
2, 28738, Note_on_c, 0, 89, 72
2, 28739, Note_on_c, 0, 60, 72
2, 28742, Note_on_c, 0, 48, 58
2, 28861, Note_on_c, 0, 48, 0
2, 28861, Note_on_c, 0, 91, 0
2, 28868, Note_on_c, 0, 48, 58
2, 28869, Note_on_c, 0, 36, 0
2, 28872, Note_on_c, 0, 91, 71
2, 28874, Note_on_c, 0, 36, 50
2, 29015, Note_on_c, 0, 48, 0
2, 29015, Note_on_c, 0, 84, 0
2, 29019, Note_on_c, 0, 48, 67
2, 29024, Note_on_c, 0, 84, 67
2, 29137, Note_on_c, 0, 89, 0
2, 29145, Note_on_c, 0, 55, 0
2, 29148, Note_on_c, 0, 89, 72
2, 29149, Note_on_c, 0, 55, 68
2, 29268, Note_on_c, 0, 36, 0
2, 29268, Note_on_c, 0, 101, 0
2, 29275, Note_on_c, 0, 36, 57
2, 29279, Note_on_c, 0, 101, 84
2, 29422, Note_on_c, 0, 96, 0
2, 29426, Note_on_c, 0, 96, 71
2, 29568, Note_on_c, 0, 55, 0
2, 29568, Note_on_c, 0, 94, 0
2, 29575, Note_on_c, 0, 55, 54
2, 29578, Note_on_c, 0, 94, 66
2, 29667, Note_on_c, 0, 48, 0
2, 29672, Note_on_c, 0, 48, 74
2, 29683, Note_on_c, 0, 96, 0
2, 29690, Note_on_c, 0, 96, 52
2, 29810, Control_c, 0, 64, 0
2, 29817, Note_on_c, 0, 60, 0
2, 29817, Note_on_c, 0, 48, 0
2, 29818, Note_on_c, 0, 58, 87
2, 29821, Note_on_c, 0, 89, 0
2, 29831, Note_on_c, 0, 89, 74
2, 29844, Note_on_c, 0, 36, 0
2, 29844, Note_on_c, 0, 91, 0
2, 29844, Control_c, 0, 64, 127
2, 29859, Note_on_c, 0, 55, 0
2, 29859, Note_on_c, 0, 84, 0
2, 29921, Note_on_c, 0, 94, 0
2, 29928, Note_on_c, 0, 101, 0
2, 29958, Note_on_c, 0, 91, 68
2, 29962, Note_on_c, 0, 48, 65
2, 30082, Note_on_c, 0, 58, 0
2, 30084, Control_c, 0, 64, 0
2, 30088, Note_on_c, 0, 58, 82
2, 30090, Note_on_c, 0, 48, 0
2, 30096, Note_on_c, 0, 84, 74
2, 30097, Control_c, 0, 64, 127
2, 30099, Note_on_c, 0, 48, 59
2, 30228, Note_on_c, 0, 48, 0
2, 30228, Note_on_c, 0, 89, 0
2, 30236, Note_on_c, 0, 89, 67
2, 30238, Note_on_c, 0, 48, 67
2, 30362, Note_on_c, 0, 60, 80
2, 30363, Note_on_c, 0, 101, 76
2, 30474, Note_on_c, 0, 48, 0
2, 30481, Note_on_c, 0, 96, 0
2, 30484, Note_on_c, 0, 48, 87
2, 30493, Note_on_c, 0, 96, 73
2, 30617, Note_on_c, 0, 63, 92
2, 30639, Note_on_c, 0, 94, 66
2, 30743, Note_on_c, 0, 48, 0
2, 30753, Note_on_c, 0, 48, 83
2, 30760, Note_on_c, 0, 36, 61
2, 30766, Note_on_c, 0, 36, 0
2, 30888, Note_on_c, 0, 89, 0
2, 30890, Note_on_c, 0, 62, 80
2, 30894, Note_on_c, 0, 89, 77
2, 31011, Note_on_c, 0, 48, 0
2, 31011, Note_on_c, 0, 91, 0
2, 31017, Note_on_c, 0, 91, 66
2, 31020, Note_on_c, 0, 48, 65
2, 31103, Control_c, 0, 64, 0
2, 31104, Note_on_c, 0, 94, 0
2, 31104, Note_on_c, 0, 101, 0
2, 31106, Note_on_c, 0, 58, 0
2, 31106, Note_on_c, 0, 62, 0
2, 31106, Note_on_c, 0, 60, 0
2, 31106, Note_on_c, 0, 96, 0
2, 31107, Note_on_c, 0, 91, 0
2, 31107, Note_on_c, 0, 84, 0
2, 31107, Note_on_c, 0, 89, 0
2, 31127, Note_on_c, 0, 48, 0
2, 31127, Note_on_c, 0, 63, 0
2, 31136, Note_on_c, 0, 63, 99
2, 31136, Note_on_c, 0, 48, 75
2, 31188, Control_c, 0, 64, 127
2, 31280, Note_on_c, 0, 56, 59
2, 31284, Note_on_c, 0, 44, 44
2, 31410, Note_on_c, 0, 36, 59
2, 31411, Note_on_c, 0, 48, 0
2, 31422, Note_on_c, 0, 48, 51
2, 31422, Note_on_c, 0, 99, 85
2, 31567, Note_on_c, 0, 98, 72
2, 31572, Note_on_c, 0, 36, 0
2, 31583, Note_on_c, 0, 60, 36
2, 31680, Note_on_c, 0, 48, 0
2, 31680, Note_on_c, 0, 56, 0
2, 31687, Note_on_c, 0, 56, 70
2, 31688, Note_on_c, 0, 48, 55
2, 31689, Note_on_c, 0, 94, 72
2, 31810, Note_on_c, 0, 48, 0
2, 31815, Note_on_c, 0, 48, 70
2, 31828, Note_on_c, 0, 96, 74
2, 31941, Note_on_c, 0, 60, 0
2, 31945, Note_on_c, 0, 60, 89
2, 31951, Note_on_c, 0, 87, 77
2, 32079, Note_on_c, 0, 48, 0
2, 32090, Note_on_c, 0, 48, 56
2, 32095, Note_on_c, 0, 89, 76
2, 32097, Note_on_c, 0, 36, 56
2, 32202, Note_on_c, 0, 48, 0
2, 32213, Note_on_c, 0, 48, 52
2, 32238, Note_on_c, 0, 84, 68
2, 32348, Note_on_c, 0, 87, 0
2, 32348, Note_on_c, 0, 98, 0
2, 32353, Note_on_c, 0, 87, 72
2, 32363, Note_on_c, 0, 56, 0
2, 32368, Note_on_c, 0, 56, 65
2, 32478, Note_on_c, 0, 99, 0
2, 32486, Note_on_c, 0, 36, 0
2, 32490, Note_on_c, 0, 99, 81
2, 32490, Note_on_c, 0, 36, 60
2, 32494, Note_on_c, 0, 48, 0
2, 32499, Note_on_c, 0, 48, 53
2, 32632, Note_on_c, 0, 60, 0
2, 32632, Note_on_c, 0, 63, 0
2, 32634, Note_on_c, 0, 98, 72
2, 32638, Note_on_c, 0, 60, 54
2, 32640, Note_on_c, 0, 94, 0
2, 32640, Note_on_c, 0, 96, 0
2, 32648, Note_on_c, 0, 96, 53
2, 32732, Note_on_c, 0, 56, 0
2, 32742, Note_on_c, 0, 56, 70
2, 32758, Note_on_c, 0, 94, 73
2, 32870, Note_on_c, 0, 48, 0
2, 32878, Note_on_c, 0, 48, 61
2, 32893, Note_on_c, 0, 96, 0
2, 32897, Note_on_c, 0, 96, 74
2, 33008, Note_on_c, 0, 60, 0
2, 33016, Note_on_c, 0, 87, 0
2, 33018, Note_on_c, 0, 60, 63
2, 33026, Note_on_c, 0, 87, 64
2, 33154, Note_on_c, 0, 48, 0
2, 33154, Note_on_c, 0, 89, 0
2, 33158, Note_on_c, 0, 48, 52
2, 33161, Note_on_c, 0, 89, 67
2, 33269, Note_on_c, 0, 48, 0
2, 33273, Note_on_c, 0, 48, 63
2, 33292, Note_on_c, 0, 84, 0
2, 33297, Note_on_c, 0, 84, 66
2, 33408, Note_on_c, 0, 87, 0
2, 33415, Note_on_c, 0, 56, 0
2, 33415, Note_on_c, 0, 98, 0
2, 33417, Note_on_c, 0, 87, 72
2, 33424, Note_on_c, 0, 56, 57
2, 33538, Note_on_c, 0, 99, 0
2, 33550, Note_on_c, 0, 99, 81
2, 33692, Note_on_c, 0, 60, 0
2, 33699, Note_on_c, 0, 98, 71
2, 33703, Note_on_c, 0, 60, 39
2, 33822, Note_on_c, 0, 94, 0
2, 33830, Note_on_c, 0, 56, 0
2, 33832, Note_on_c, 0, 94, 68
2, 33839, Note_on_c, 0, 56, 58
2, 33960, Note_on_c, 0, 48, 0
2, 33960, Note_on_c, 0, 96, 0
2, 33970, Note_on_c, 0, 48, 58
2, 33972, Note_on_c, 0, 96, 68
2, 34099, Note_on_c, 0, 60, 0
2, 34099, Note_on_c, 0, 87, 0
2, 34107, Note_on_c, 0, 87, 64
2, 34108, Note_on_c, 0, 60, 59
2, 34222, Note_on_c, 0, 48, 0
2, 34226, Note_on_c, 0, 48, 63
2, 34237, Note_on_c, 0, 89, 0
2, 34247, Note_on_c, 0, 89, 60
2, 34360, Note_on_c, 0, 48, 0
2, 34360, Note_on_c, 0, 60, 0
2, 34367, Note_on_c, 0, 48, 60
2, 34368, Note_on_c, 0, 84, 0
2, 34370, Note_on_c, 0, 60, 57
2, 34372, Note_on_c, 0, 84, 65
2, 34490, Note_on_c, 0, 87, 0
2, 34500, Note_on_c, 0, 87, 70
2, 34506, Note_on_c, 0, 56, 0
2, 34511, Note_on_c, 0, 56, 55
2, 34629, Note_on_c, 0, 36, 0
2, 34633, Note_on_c, 0, 36, 51
2, 34636, Note_on_c, 0, 99, 0
2, 34641, Note_on_c, 0, 99, 72
2, 34782, Note_on_c, 0, 60, 0
2, 34782, Note_on_c, 0, 98, 0
2, 34787, Note_on_c, 0, 98, 71
2, 34792, Note_on_c, 0, 60, 34
2, 34905, Note_on_c, 0, 56, 0
2, 34905, Note_on_c, 0, 94, 0
2, 34911, Note_on_c, 0, 56, 63
2, 34915, Note_on_c, 0, 94, 72
2, 34944, Note_on_c, 0, 36, 0
2, 35043, Note_on_c, 0, 48, 0
2, 35043, Note_on_c, 0, 96, 0
2, 35050, Note_on_c, 0, 96, 70
2, 35052, Note_on_c, 0, 48, 59
2, 35143, Note_on_c, 0, 87, 0
2, 35154, Note_on_c, 0, 87, 69
2, 35182, Note_on_c, 0, 60, 0
2, 35187, Note_on_c, 0, 60, 56
2, 35304, Note_on_c, 0, 48, 0
2, 35304, Note_on_c, 0, 89, 0
2, 35309, Note_on_c, 0, 89, 76
2, 35310, Note_on_c, 0, 48, 63
2, 35435, Note_on_c, 0, 48, 0
2, 35441, Note_on_c, 0, 48, 67
2, 35444, Control_c, 0, 64, 0
2, 35447, Note_on_c, 0, 96, 0
2, 35447, Note_on_c, 0, 89, 0
2, 35448, Note_on_c, 0, 56, 0
2, 35448, Note_on_c, 0, 99, 0
2, 35449, Note_on_c, 0, 84, 0
2, 35449, Note_on_c, 0, 87, 0
2, 35450, Note_on_c, 0, 44, 0
2, 35452, Note_on_c, 0, 70, 82
2, 35454, Note_on_c, 0, 67, 69
2, 35458, Note_on_c, 0, 94, 0
2, 35458, Note_on_c, 0, 98, 0
2, 35466, Note_on_c, 0, 60, 0
2, 35593, Note_on_c, 0, 60, 64
2, 35594, Note_on_c, 0, 72, 62
2, 35653, Note_on_c, 0, 60, 0
2, 35696, Note_on_c, 0, 72, 0
2, 35700, Note_on_c, 0, 70, 0
2, 35704, Note_on_c, 0, 72, 78
2, 35742, Note_on_c, 0, 67, 0
2, 35846, Note_on_c, 0, 60, 68
2, 35888, Note_on_c, 0, 72, 0
2, 35890, Note_on_c, 0, 60, 0
2, 35977, Note_on_c, 0, 72, 77
2, 35996, Note_on_c, 0, 67, 56
2, 35998, Note_on_c, 0, 60, 60
2, 36038, Note_on_c, 0, 60, 0
2, 36128, Note_on_c, 0, 60, 67
2, 36171, Note_on_c, 0, 60, 0
2, 36188, Note_on_c, 0, 72, 0
2, 36265, Note_on_c, 0, 72, 74
2, 36389, Note_on_c, 0, 60, 68
2, 36428, Note_on_c, 0, 60, 0
2, 36480, Note_on_c, 0, 67, 0
2, 36529, Note_on_c, 0, 70, 84
2, 36538, Note_on_c, 0, 60, 67
2, 36538, Note_on_c, 0, 67, 61
2, 36552, Note_on_c, 0, 72, 0
2, 36577, Note_on_c, 0, 48, 0
2, 36578, Note_on_c, 0, 60, 0
2, 36661, Note_on_c, 0, 60, 66
2, 36707, Note_on_c, 0, 60, 0
2, 36811, Note_on_c, 0, 72, 78
2, 36829, Note_on_c, 0, 70, 0
2, 36885, Note_on_c, 0, 67, 0
2, 36944, Note_on_c, 0, 60, 70
2, 36983, Note_on_c, 0, 72, 0
2, 36983, Note_on_c, 0, 60, 0
2, 37077, Note_on_c, 0, 72, 81
2, 37090, Note_on_c, 0, 60, 63
2, 37092, Note_on_c, 0, 67, 66
2, 37128, Note_on_c, 0, 60, 0
2, 37215, Note_on_c, 0, 60, 69
2, 37242, Note_on_c, 0, 72, 0
2, 37255, Note_on_c, 0, 60, 0
2, 37349, Note_on_c, 0, 72, 80
2, 37478, Note_on_c, 0, 60, 72
2, 37493, Note_on_c, 0, 67, 0
2, 37516, Note_on_c, 0, 60, 0
2, 37612, Note_on_c, 0, 72, 0
2, 37620, Note_on_c, 0, 70, 84
2, 37627, Note_on_c, 0, 60, 67
2, 37628, Note_on_c, 0, 67, 63
2, 37670, Note_on_c, 0, 60, 0
2, 37750, Note_on_c, 0, 60, 73
2, 37797, Note_on_c, 0, 60, 0
2, 37891, Note_on_c, 0, 72, 80
2, 37909, Note_on_c, 0, 70, 0
2, 37948, Note_on_c, 0, 67, 0
2, 38026, Note_on_c, 0, 60, 69
2, 38062, Note_on_c, 0, 72, 0
2, 38065, Note_on_c, 0, 60, 0
2, 38157, Note_on_c, 0, 72, 87
2, 38161, Note_on_c, 0, 67, 69
2, 38165, Note_on_c, 0, 60, 68
2, 38217, Note_on_c, 0, 60, 0
2, 38296, Note_on_c, 0, 60, 74
2, 38335, Note_on_c, 0, 72, 0
2, 38340, Note_on_c, 0, 60, 0
2, 38435, Note_on_c, 0, 72, 76
2, 38550, Note_on_c, 0, 67, 0
2, 38577, Note_on_c, 0, 60, 74
2, 38615, Note_on_c, 0, 60, 0
2, 38703, Note_on_c, 0, 70, 79
2, 38711, Note_on_c, 0, 60, 70
2, 38711, Note_on_c, 0, 72, 0
2, 38718, Note_on_c, 0, 67, 58
2, 38759, Note_on_c, 0, 60, 0
2, 38850, Note_on_c, 0, 60, 74
2, 38891, Note_on_c, 0, 60, 0
2, 38977, Note_on_c, 0, 72, 84
2, 38979, Note_on_c, 0, 67, 0
2, 38986, Note_on_c, 0, 70, 0
2, 39109, Note_on_c, 0, 60, 68
2, 39149, Note_on_c, 0, 60, 0
2, 39247, Note_on_c, 0, 67, 78
2, 39248, Note_on_c, 0, 72, 0
2, 39250, Note_on_c, 0, 60, 68
2, 39302, Note_on_c, 0, 60, 0
2, 39381, Note_on_c, 0, 60, 70
2, 39425, Note_on_c, 0, 60, 0
2, 39516, Note_on_c, 0, 60, 75
2, 39555, Note_on_c, 0, 60, 0
2, 39656, Note_on_c, 0, 60, 69
2, 39663, Note_on_c, 0, 67, 0
2, 39696, Note_on_c, 0, 60, 0
2, 39779, Note_on_c, 0, 70, 82
2, 39785, Note_on_c, 0, 67, 67
2, 39786, Note_on_c, 0, 48, 71
2, 39915, Note_on_c, 0, 60, 71
2, 39970, Note_on_c, 0, 60, 0
2, 40058, Note_on_c, 0, 72, 84
2, 40076, Note_on_c, 0, 70, 0
2, 40189, Note_on_c, 0, 60, 73
2, 40224, Note_on_c, 0, 72, 0
2, 40229, Note_on_c, 0, 60, 0
2, 40243, Note_on_c, 0, 67, 0
2, 40305, Note_on_c, 0, 48, 0
2, 40324, Note_on_c, 0, 72, 90
2, 40330, Note_on_c, 0, 67, 70
2, 40330, Note_on_c, 0, 60, 68
2, 40373, Note_on_c, 0, 60, 0
2, 40477, Note_on_c, 0, 60, 75
2, 40508, Note_on_c, 0, 72, 0
2, 40531, Note_on_c, 0, 60, 0
2, 40598, Note_on_c, 0, 72, 86
2, 40729, Note_on_c, 0, 60, 78
2, 40772, Note_on_c, 0, 60, 0
2, 40821, Note_on_c, 0, 72, 0
2, 40861, Note_on_c, 0, 70, 83
2, 40872, Note_on_c, 0, 67, 0
2, 40878, Note_on_c, 0, 67, 65
2, 40884, Note_on_c, 0, 60, 72
2, 40926, Note_on_c, 0, 60, 0
2, 40999, Note_on_c, 0, 60, 74
2, 41045, Note_on_c, 0, 60, 0
2, 41132, Note_on_c, 0, 72, 84
2, 41157, Note_on_c, 0, 70, 0
2, 41273, Note_on_c, 0, 60, 70
2, 41275, Note_on_c, 0, 67, 0
2, 41311, Note_on_c, 0, 72, 0
2, 41314, Note_on_c, 0, 60, 0
2, 41402, Note_on_c, 0, 72, 86
2, 41406, Note_on_c, 0, 67, 71
2, 41407, Note_on_c, 0, 60, 70
2, 41451, Note_on_c, 0, 60, 0
2, 41540, Note_on_c, 0, 60, 73
2, 41559, Note_on_c, 0, 72, 0
2, 41588, Note_on_c, 0, 60, 0
2, 41672, Note_on_c, 0, 72, 86
2, 41808, Note_on_c, 0, 60, 75
2, 41850, Note_on_c, 0, 60, 0
2, 41852, Note_on_c, 0, 72, 0
2, 41853, Note_on_c, 0, 67, 0
2, 41945, Note_on_c, 0, 72, 91
2, 41947, Note_on_c, 0, 60, 72
2, 41948, Note_on_c, 0, 67, 71
2, 42000, Note_on_c, 0, 60, 0
2, 42081, Note_on_c, 0, 60, 71
2, 42124, Note_on_c, 0, 60, 0
2, 42222, Note_on_c, 0, 70, 77
2, 42232, Note_on_c, 0, 72, 0
2, 42308, Note_on_c, 0, 67, 0
2, 42352, Note_on_c, 0, 60, 77
2, 42396, Note_on_c, 0, 60, 0
2, 42485, Note_on_c, 0, 72, 90
2, 42497, Note_on_c, 0, 60, 77
2, 42503, Note_on_c, 0, 67, 71
2, 42521, Note_on_c, 0, 70, 0
2, 42535, Note_on_c, 0, 60, 0
2, 42634, Note_on_c, 0, 60, 74
2, 42671, Note_on_c, 0, 60, 0
2, 42760, Note_on_c, 0, 74, 76
2, 42796, Note_on_c, 0, 72, 0
2, 42891, Note_on_c, 0, 60, 76
2, 42934, Note_on_c, 0, 60, 0
2, 43022, Note_on_c, 0, 74, 0
2, 43031, Note_on_c, 0, 75, 83
2, 43032, Note_on_c, 0, 72, 70
2, 43040, Note_on_c, 0, 60, 74
2, 43046, Note_on_c, 0, 67, 0
2, 43051, Note_on_c, 0, 67, 57
2, 43083, Note_on_c, 0, 60, 0
2, 43181, Note_on_c, 0, 60, 78
2, 43282, Note_on_c, 0, 60, 0
2, 43315, Note_on_c, 0, 72, 0
2, 43429, Note_on_c, 0, 60, 82
2, 43478, Note_on_c, 0, 75, 0
2, 43479, Note_on_c, 0, 60, 0
2, 43568, Note_on_c, 0, 67, 0
2, 43572, Note_on_c, 0, 75, 84
2, 43578, Note_on_c, 0, 72, 75
2, 43578, Note_on_c, 0, 67, 72
2, 43578, Note_on_c, 0, 60, 81
2, 43626, Note_on_c, 0, 60, 0
2, 43706, Note_on_c, 0, 60, 67
2, 43822, Note_on_c, 0, 60, 0
2, 43822, Note_on_c, 0, 72, 0
2, 43822, Control_c, 0, 64, 127
2, 43827, Note_on_c, 0, 72, 72
2, 43830, Note_on_c, 0, 60, 75
2, 43830, Note_on_c, 0, 77, 82
2, 44054, Note_on_c, 0, 67, 0
2, 44055, Note_on_c, 0, 72, 0
2, 44055, Control_c, 0, 64, 0
2, 44055, Note_on_c, 0, 60, 0
2, 44056, Note_on_c, 0, 75, 0
2, 44059, Note_on_c, 0, 77, 0
2, 44098, Note_on_c, 0, 82, 95
2, 44104, Note_on_c, 0, 36, 70
2, 44110, Note_on_c, 0, 72, 79
2, 44145, Note_on_c, 0, 36, 0
2, 44160, Note_on_c, 0, 72, 0
2, 44235, Note_on_c, 0, 72, 74
2, 44239, Note_on_c, 0, 41, 68
2, 44279, Note_on_c, 0, 72, 0
2, 44280, Note_on_c, 0, 41, 0
2, 44364, Note_on_c, 0, 46, 82
2, 44369, Note_on_c, 0, 84, 87
2, 44403, Note_on_c, 0, 46, 0
2, 44428, Note_on_c, 0, 82, 0
2, 44486, Note_on_c, 0, 41, 72
2, 44517, Note_on_c, 0, 72, 84
2, 44527, Note_on_c, 0, 41, 0
2, 44528, Note_on_c, 0, 84, 0
2, 44543, Note_on_c, 0, 72, 0
2, 44622, Note_on_c, 0, 48, 84
2, 44644, Note_on_c, 0, 84, 98
2, 44647, Note_on_c, 0, 72, 83
2, 44679, Note_on_c, 0, 48, 0
2, 44763, Note_on_c, 0, 46, 81
2, 44766, Note_on_c, 0, 72, 0
2, 44776, Note_on_c, 0, 72, 84
2, 44808, Note_on_c, 0, 46, 0
2, 44815, Note_on_c, 0, 84, 0
2, 44815, Note_on_c, 0, 72, 0
2, 44907, Note_on_c, 0, 53, 84
2, 44908, Note_on_c, 0, 84, 94
2, 44992, Note_on_c, 0, 53, 0
2, 45038, Note_on_c, 0, 48, 73
2, 45048, Note_on_c, 0, 72, 77
2, 45078, Note_on_c, 0, 48, 0
2, 45092, Note_on_c, 0, 72, 0
2, 45102, Note_on_c, 0, 84, 0
2, 45164, Note_on_c, 0, 36, 84
2, 45171, Note_on_c, 0, 82, 97
2, 45193, Note_on_c, 0, 72, 81
2, 45225, Note_on_c, 0, 72, 0
2, 45227, Note_on_c, 0, 36, 0
2, 45306, Note_on_c, 0, 41, 71
2, 45311, Note_on_c, 0, 72, 74
2, 45354, Note_on_c, 0, 41, 0
2, 45356, Note_on_c, 0, 72, 0
2, 45443, Note_on_c, 0, 46, 82
2, 45446, Note_on_c, 0, 84, 89
2, 45478, Note_on_c, 0, 46, 0
2, 45488, Note_on_c, 0, 82, 0
2, 45561, Note_on_c, 0, 41, 79
2, 45585, Note_on_c, 0, 72, 87
2, 45608, Note_on_c, 0, 84, 0
2, 45609, Note_on_c, 0, 41, 0
2, 45615, Note_on_c, 0, 72, 0
2, 45704, Note_on_c, 0, 48, 91
2, 45712, Note_on_c, 0, 84, 99
2, 45721, Note_on_c, 0, 72, 96
2, 45763, Note_on_c, 0, 72, 0
2, 45766, Note_on_c, 0, 48, 0
2, 45846, Note_on_c, 0, 46, 80
2, 45861, Note_on_c, 0, 72, 79
2, 45890, Note_on_c, 0, 46, 0
2, 45898, Note_on_c, 0, 72, 0
2, 45918, Note_on_c, 0, 84, 0
2, 45984, Note_on_c, 0, 53, 82
2, 45984, Note_on_c, 0, 84, 91
2, 46069, Note_on_c, 0, 53, 0
2, 46107, Note_on_c, 0, 48, 79
2, 46122, Note_on_c, 0, 72, 83
2, 46145, Note_on_c, 0, 48, 0
2, 46161, Note_on_c, 0, 72, 0
2, 46162, Note_on_c, 0, 84, 0
2, 46245, Note_on_c, 0, 36, 83
2, 46256, Note_on_c, 0, 82, 93
2, 46263, Note_on_c, 0, 72, 84
2, 46307, Note_on_c, 0, 72, 0
2, 46316, Note_on_c, 0, 36, 0
2, 46387, Note_on_c, 0, 41, 70
2, 46396, Note_on_c, 0, 72, 70
2, 46435, Note_on_c, 0, 41, 0
2, 46443, Note_on_c, 0, 72, 0
2, 46510, Note_on_c, 0, 82, 0
2, 46526, Note_on_c, 0, 46, 78
2, 46529, Note_on_c, 0, 84, 88
2, 46563, Note_on_c, 0, 46, 0
2, 46651, Note_on_c, 0, 41, 73
2, 46675, Note_on_c, 0, 72, 77
2, 46683, Note_on_c, 0, 84, 0
2, 46691, Note_on_c, 0, 41, 0
2, 46705, Note_on_c, 0, 72, 0
2, 46791, Note_on_c, 0, 48, 83
2, 46800, Note_on_c, 0, 84, 95
2, 46808, Note_on_c, 0, 72, 82
2, 46847, Note_on_c, 0, 48, 0
2, 46848, Note_on_c, 0, 72, 0
2, 46850, Note_on_c, 0, 84, 0
2, 46934, Note_on_c, 0, 46, 78
2, 46936, Note_on_c, 0, 72, 71
2, 46977, Note_on_c, 0, 46, 0
2, 46981, Note_on_c, 0, 72, 0
2, 47070, Note_on_c, 0, 53, 85
2, 47071, Note_on_c, 0, 84, 93
2, 47144, Note_on_c, 0, 53, 0
2, 47195, Note_on_c, 0, 48, 81
2, 47208, Note_on_c, 0, 72, 82
2, 47228, Note_on_c, 0, 48, 0
2, 47257, Note_on_c, 0, 72, 0
2, 47260, Note_on_c, 0, 84, 0
2, 47334, Note_on_c, 0, 36, 85
2, 47342, Note_on_c, 0, 82, 96
2, 47366, Note_on_c, 0, 72, 70
2, 47371, Note_on_c, 0, 36, 0
2, 47397, Note_on_c, 0, 72, 0
2, 47475, Note_on_c, 0, 41, 73
2, 47479, Note_on_c, 0, 72, 76
2, 47520, Note_on_c, 0, 41, 0
2, 47529, Note_on_c, 0, 72, 0
2, 47611, Note_on_c, 0, 46, 79
2, 47612, Note_on_c, 0, 84, 90
2, 47645, Note_on_c, 0, 46, 0
2, 47654, Note_on_c, 0, 82, 0
2, 47730, Note_on_c, 0, 41, 75
2, 47750, Note_on_c, 0, 72, 87
2, 47770, Note_on_c, 0, 41, 0
2, 47796, Note_on_c, 0, 72, 0
2, 47797, Note_on_c, 0, 84, 0
2, 47873, Note_on_c, 0, 48, 82
2, 47874, Note_on_c, 0, 79, 95
2, 47888, Note_on_c, 0, 72, 84
2, 47928, Note_on_c, 0, 48, 0
2, 48007, Note_on_c, 0, 72, 0
2, 48013, Note_on_c, 0, 46, 74
2, 48016, Note_on_c, 0, 72, 77
2, 48051, Note_on_c, 0, 72, 0
2, 48053, Note_on_c, 0, 46, 0
2, 48156, Note_on_c, 0, 53, 85
2, 48157, Note_on_c, 0, 72, 81
2, 48188, Note_on_c, 0, 79, 0
2, 48191, Note_on_c, 0, 72, 0
2, 48215, Note_on_c, 0, 53, 0
2, 48277, Note_on_c, 0, 48, 77
2, 48297, Note_on_c, 0, 72, 85
2, 48317, Note_on_c, 0, 48, 0
2, 48345, Note_on_c, 0, 72, 0
2, 48409, Note_on_c, 0, 32, 87
2, 48431, Note_on_c, 0, 82, 100
2, 48432, Note_on_c, 0, 72, 92
2, 48458, Note_on_c, 0, 72, 0
2, 48544, Note_on_c, 0, 32, 0
2, 48556, Note_on_c, 0, 39, 72
2, 48558, Note_on_c, 0, 72, 73
2, 48610, Note_on_c, 0, 72, 0
2, 48635, Note_on_c, 0, 39, 0
2, 48664, Note_on_c, 0, 82, 0
2, 48695, Note_on_c, 0, 44, 79
2, 48698, Note_on_c, 0, 84, 95
2, 48736, Note_on_c, 0, 44, 0
2, 48827, Note_on_c, 0, 39, 73
2, 48834, Note_on_c, 0, 72, 81
2, 48868, Note_on_c, 0, 84, 0
2, 48876, Note_on_c, 0, 72, 0
2, 48952, Note_on_c, 0, 39, 0
2, 48971, Note_on_c, 0, 46, 91
2, 48972, Note_on_c, 0, 84, 97
2, 48981, Note_on_c, 0, 72, 87
2, 49020, Note_on_c, 0, 46, 0
2, 49024, Note_on_c, 0, 72, 0
2, 49031, Note_on_c, 0, 84, 0
2, 49103, Note_on_c, 0, 44, 83
2, 49109, Note_on_c, 0, 72, 80
2, 49143, Note_on_c, 0, 44, 0
2, 49182, Note_on_c, 0, 72, 0
2, 49247, Note_on_c, 0, 51, 79
2, 49248, Note_on_c, 0, 84, 86
2, 49345, Note_on_c, 0, 51, 0
2, 49379, Note_on_c, 0, 46, 71
2, 49386, Note_on_c, 0, 72, 80
2, 49399, Note_on_c, 0, 84, 0
2, 49415, Note_on_c, 0, 46, 0
2, 49419, Note_on_c, 0, 72, 0
2, 49502, Note_on_c, 0, 32, 85
2, 49516, Note_on_c, 0, 82, 97
2, 49537, Note_on_c, 0, 72, 79
2, 49558, Note_on_c, 0, 32, 0
2, 49589, Note_on_c, 0, 72, 0
2, 49654, Note_on_c, 0, 39, 70
2, 49655, Note_on_c, 0, 72, 69
2, 49699, Note_on_c, 0, 72, 0
2, 49774, Note_on_c, 0, 39, 0
2, 49781, Note_on_c, 0, 82, 0
2, 49785, Note_on_c, 0, 84, 90
2, 49785, Note_on_c, 0, 44, 77
2, 49822, Note_on_c, 0, 44, 0
2, 49912, Note_on_c, 0, 39, 75
2, 49924, Note_on_c, 0, 72, 85
2, 49949, Note_on_c, 0, 84, 0
2, 49958, Note_on_c, 0, 72, 0
2, 50052, Note_on_c, 0, 46, 87
2, 50054, Note_on_c, 0, 84, 102
2, 50065, Note_on_c, 0, 39, 0
2, 50073, Note_on_c, 0, 72, 93
2, 50126, Note_on_c, 0, 46, 0
2, 50190, Note_on_c, 0, 44, 75
2, 50204, Note_on_c, 0, 72, 0
2, 50210, Note_on_c, 0, 72, 65
2, 50257, Control_c, 0, 64, 127
2, 50311, Note_on_c, 0, 84, 0
2, 50322, Note_on_c, 0, 51, 80
2, 50322, Note_on_c, 0, 84, 99
2, 50457, Note_on_c, 0, 72, 0
2, 50465, Note_on_c, 0, 46, 60
2, 50466, Note_on_c, 0, 72, 61
2, 50575, Note_on_c, 0, 46, 0
2, 50576, Note_on_c, 0, 51, 0
2, 50576, Control_c, 0, 64, 0
2, 50576, Note_on_c, 0, 44, 0
2, 50577, Note_on_c, 0, 72, 0
2, 50588, Note_on_c, 0, 84, 0
2, 50622, Note_on_c, 0, 70, 75
2, 50622, Note_on_c, 0, 31, 58
2, 50628, Note_on_c, 0, 58, 62
2, 50749, Control_c, 0, 64, 127
2, 50897, Note_on_c, 0, 72, 72
2, 50904, Note_on_c, 0, 60, 63
2, 50910, Note_on_c, 0, 31, 0
2, 50915, Note_on_c, 0, 31, 39
2, 51147, Control_c, 0, 64, 0
2, 51151, Note_on_c, 0, 70, 0
2, 51164, Note_on_c, 0, 72, 0
2, 51169, Note_on_c, 0, 72, 59
2, 51169, Note_on_c, 0, 43, 32
2, 51179, Note_on_c, 0, 60, 0
2, 51185, Note_on_c, 0, 60, 48
2, 51194, Note_on_c, 0, 31, 0
2, 51210, Note_on_c, 0, 58, 0
2, 51210, Control_c, 0, 64, 127
2, 51452, Note_on_c, 0, 67, 54
2, 51463, Note_on_c, 0, 60, 0
2, 51463, Note_on_c, 0, 72, 0
2, 51467, Note_on_c, 0, 72, 59
2, 51471, Note_on_c, 0, 60, 50
2, 51476, Note_on_c, 0, 70, 52
2, 51519, Note_on_c, 0, 31, 26
2, 51840, Note_on_c, 0, 43, 0
2, 52316, Note_on_c, 0, 31, 0
2, 52320, Note_on_c, 0, 31, 39
2, 52388, Control_c, 0, 64, 0
2, 52398, Note_on_c, 0, 60, 0
2, 52400, Note_on_c, 0, 67, 0
2, 52403, Note_on_c, 0, 70, 0
2, 52439, Note_on_c, 0, 72, 0
2, 52462, Note_on_c, 0, 31, 0
2, 52911, Note_on_c, 0, 75, 106
2, 52913, Note_on_c, 0, 67, 91
2, 52913, Note_on_c, 0, 36, 90
2, 52914, Note_on_c, 0, 63, 94
2, 52915, Note_on_c, 0, 70, 97
2, 52930, Control_c, 0, 64, 127
2, 53034, Note_on_c, 0, 48, 74
2, 53168, Note_on_c, 0, 36, 0
2, 53172, Note_on_c, 0, 36, 85
2, 53177, Note_on_c, 0, 77, 102
2, 53182, Note_on_c, 0, 65, 86
2, 53193, Note_on_c, 0, 69, 75
2, 53199, Note_on_c, 0, 69, 0
2, 53299, Note_on_c, 0, 48, 0
2, 53303, Note_on_c, 0, 48, 70
2, 53417, Control_c, 0, 64, 0
2, 53419, Note_on_c, 0, 63, 0
2, 53419, Note_on_c, 0, 67, 0
2, 53420, Note_on_c, 0, 77, 0
2, 53420, Note_on_c, 0, 65, 0
2, 53445, Note_on_c, 0, 70, 0
2, 53445, Note_on_c, 0, 75, 0
2, 53448, Note_on_c, 0, 82, 107
2, 53448, Note_on_c, 0, 55, 84
2, 53450, Note_on_c, 0, 75, 101
2, 53454, Note_on_c, 0, 70, 96
2, 53454, Note_on_c, 0, 60, 92
2, 53491, Control_c, 0, 64, 127
2, 53568, Note_on_c, 0, 48, 0
2, 53578, Note_on_c, 0, 48, 75
2, 53614, Note_on_c, 0, 55, 0
2, 53706, Note_on_c, 0, 48, 0
2, 53710, Note_on_c, 0, 48, 71
2, 53829, Note_on_c, 0, 36, 0
2, 53838, Note_on_c, 0, 36, 94
2, 53963, Note_on_c, 0, 60, 0
2, 53965, Control_c, 0, 64, 0
2, 53979, Note_on_c, 0, 79, 103
2, 53982, Note_on_c, 0, 48, 0
2, 53982, Note_on_c, 0, 70, 0
2, 53982, Note_on_c, 0, 75, 0
2, 53986, Note_on_c, 0, 67, 89
2, 53987, Note_on_c, 0, 75, 93
2, 53987, Note_on_c, 0, 70, 92
2, 53993, Note_on_c, 0, 48, 81
2, 53998, Note_on_c, 0, 82, 0
2, 54028, Note_on_c, 0, 36, 0
2, 54037, Note_on_c, 0, 48, 0
2, 54109, Note_on_c, 0, 36, 86
2, 54120, Control_c, 0, 64, 127
2, 54236, Note_on_c, 0, 36, 0
2, 54247, Note_on_c, 0, 36, 87
2, 54363, Note_on_c, 0, 48, 82
2, 54477, Note_on_c, 0, 75, 0
2, 54478, Note_on_c, 0, 67, 0
2, 54479, Note_on_c, 0, 79, 0
2, 54479, Control_c, 0, 64, 0
2, 54504, Note_on_c, 0, 55, 90
2, 54504, Note_on_c, 0, 48, 0
2, 54504, Note_on_c, 0, 70, 0
2, 54509, Note_on_c, 0, 48, 79
2, 54512, Note_on_c, 0, 36, 0
2, 54515, Note_on_c, 0, 77, 97
2, 54516, Note_on_c, 0, 70, 96
2, 54516, Note_on_c, 0, 65, 83
2, 54519, Note_on_c, 0, 60, 90
2, 54551, Control_c, 0, 64, 127
2, 54627, Note_on_c, 0, 48, 0
2, 54633, Note_on_c, 0, 48, 75
2, 54773, Note_on_c, 0, 48, 0
2, 54781, Note_on_c, 0, 48, 72
2, 54781, Note_on_c, 0, 63, 89
2, 54784, Note_on_c, 0, 75, 102
2, 54900, Note_on_c, 0, 36, 82
2, 55017, Control_c, 0, 64, 0
2, 55017, Note_on_c, 0, 48, 0
2, 55017, Note_on_c, 0, 55, 0
2, 55018, Note_on_c, 0, 75, 0
2, 55018, Note_on_c, 0, 70, 0
2, 55018, Note_on_c, 0, 63, 0
2, 55018, Note_on_c, 0, 77, 0
2, 55019, Note_on_c, 0, 60, 0
2, 55020, Note_on_c, 0, 65, 0
2, 55034, Note_on_c, 0, 36, 0
2, 55046, Note_on_c, 0, 32, 89
2, 55119, Control_c, 0, 64, 127
2, 55180, Note_on_c, 0, 44, 76
2, 55311, Note_on_c, 0, 32, 0
2, 55315, Note_on_c, 0, 72, 103
2, 55316, Note_on_c, 0, 32, 87
2, 55321, Note_on_c, 0, 60, 84
2, 55434, Note_on_c, 0, 44, 0
2, 55442, Note_on_c, 0, 44, 82
2, 55549, Control_c, 0, 64, 0
2, 55552, Note_on_c, 0, 72, 0
2, 55552, Note_on_c, 0, 60, 0
2, 55580, Note_on_c, 0, 44, 0
2, 55580, Note_on_c, 0, 82, 107
2, 55583, Note_on_c, 0, 75, 103
2, 55587, Note_on_c, 0, 70, 98
2, 55588, Note_on_c, 0, 56, 89
2, 55591, Note_on_c, 0, 44, 76
2, 55592, Note_on_c, 0, 68, 87
2, 55601, Note_on_c, 0, 51, 85
2, 55618, Control_c, 0, 64, 127
2, 55703, Note_on_c, 0, 44, 0
2, 55707, Note_on_c, 0, 44, 81
2, 55841, Note_on_c, 0, 44, 0
2, 55851, Note_on_c, 0, 44, 77
2, 55964, Note_on_c, 0, 32, 0
2, 55973, Note_on_c, 0, 32, 83
2, 56088, Control_c, 0, 64, 0
2, 56117, Note_on_c, 0, 44, 0
2, 56117, Note_on_c, 0, 70, 0
2, 56117, Note_on_c, 0, 75, 0
2, 56121, Note_on_c, 0, 79, 101
2, 56122, Note_on_c, 0, 44, 81
2, 56126, Note_on_c, 0, 75, 89
2, 56127, Note_on_c, 0, 70, 90
2, 56128, Note_on_c, 0, 67, 88
2, 56156, Note_on_c, 0, 56, 0
2, 56163, Note_on_c, 0, 68, 0
2, 56177, Note_on_c, 0, 44, 0
2, 56177, Note_on_c, 0, 32, 0
2, 56179, Note_on_c, 0, 51, 0
2, 56179, Note_on_c, 0, 82, 0
2, 56240, Control_c, 0, 64, 127
2, 56244, Note_on_c, 0, 32, 91
2, 56371, Note_on_c, 0, 32, 0
2, 56381, Note_on_c, 0, 32, 72
2, 56507, Note_on_c, 0, 44, 80
2, 56596, Note_on_c, 0, 32, 0
2, 56597, Note_on_c, 0, 75, 0
2, 56597, Note_on_c, 0, 67, 0
2, 56597, Note_on_c, 0, 79, 0
2, 56599, Control_c, 0, 64, 0
2, 56624, Note_on_c, 0, 70, 0
2, 56647, Note_on_c, 0, 44, 0
2, 56649, Note_on_c, 0, 77, 101
2, 56650, Note_on_c, 0, 70, 98
2, 56650, Note_on_c, 0, 65, 90
2, 56652, Note_on_c, 0, 44, 86
2, 56653, Note_on_c, 0, 56, 93
2, 56670, Control_c, 0, 64, 127
2, 56755, Note_on_c, 0, 44, 0
2, 56766, Note_on_c, 0, 44, 86
2, 56908, Note_on_c, 0, 44, 0
2, 56915, Note_on_c, 0, 44, 88
2, 56916, Note_on_c, 0, 75, 103
2, 56920, Note_on_c, 0, 63, 86
2, 56929, Note_on_c, 0, 68, 64
2, 57043, Note_on_c, 0, 32, 85
2, 57114, Control_c, 0, 64, 0
2, 57115, Note_on_c, 0, 75, 0
2, 57115, Note_on_c, 0, 56, 0
2, 57115, Note_on_c, 0, 77, 0
2, 57115, Note_on_c, 0, 70, 0
2, 57116, Note_on_c, 0, 68, 0
2, 57116, Note_on_c, 0, 63, 0
2, 57117, Note_on_c, 0, 65, 0
2, 57118, Note_on_c, 0, 32, 0
2, 57131, Note_on_c, 0, 44, 0
2, 57188, Note_on_c, 0, 75, 109
2, 57189, Note_on_c, 0, 68, 102
2, 57190, Note_on_c, 0, 29, 92
2, 57191, Note_on_c, 0, 63, 91
2, 57192, Control_c, 0, 64, 127
2, 57315, Note_on_c, 0, 29, 0
2, 57322, Note_on_c, 0, 74, 106
2, 57323, Note_on_c, 0, 29, 89
2, 57325, Note_on_c, 0, 41, 84
2, 57331, Note_on_c, 0, 62, 84
2, 57461, Note_on_c, 0, 29, 0
2, 57465, Note_on_c, 0, 29, 89
2, 57576, Note_on_c, 0, 29, 0
2, 57584, Note_on_c, 0, 41, 0
2, 57588, Note_on_c, 0, 29, 78
2, 57589, Note_on_c, 0, 41, 75
2, 57657, Control_c, 0, 64, 0
2, 57658, Note_on_c, 0, 41, 0
2, 57658, Note_on_c, 0, 68, 0
2, 57658, Note_on_c, 0, 74, 0
2, 57659, Note_on_c, 0, 62, 0
2, 57659, Note_on_c, 0, 75, 0
2, 57659, Note_on_c, 0, 63, 0
2, 57706, Note_on_c, 0, 74, 102
2, 57711, Note_on_c, 0, 68, 97
2, 57713, Note_on_c, 0, 48, 84
2, 57714, Note_on_c, 0, 62, 93
2, 57719, Note_on_c, 0, 53, 82
2, 57724, Note_on_c, 0, 41, 82
2, 57738, Control_c, 0, 64, 127
2, 57845, Note_on_c, 0, 41, 0
2, 57850, Note_on_c, 0, 41, 84
2, 57851, Note_on_c, 0, 72, 98
2, 57859, Note_on_c, 0, 60, 80
2, 57984, Note_on_c, 0, 29, 0
2, 57984, Note_on_c, 0, 41, 0
2, 57988, Note_on_c, 0, 29, 74
2, 57989, Note_on_c, 0, 41, 84
2, 58106, Note_on_c, 0, 29, 0
2, 58112, Note_on_c, 0, 29, 79
2, 58237, Note_on_c, 0, 29, 0
2, 58237, Note_on_c, 0, 72, 0
2, 58243, Note_on_c, 0, 72, 106
2, 58245, Note_on_c, 0, 60, 0
2, 58248, Note_on_c, 0, 29, 79
2, 58252, Note_on_c, 0, 62, 0
2, 58252, Note_on_c, 0, 41, 0
2, 58252, Note_on_c, 0, 48, 0
2, 58252, Note_on_c, 0, 68, 0
2, 58254, Note_on_c, 0, 74, 0
2, 58255, Note_on_c, 0, 60, 90
2, 58257, Note_on_c, 0, 68, 85
2, 58257, Note_on_c, 0, 41, 68
2, 58260, Note_on_c, 0, 53, 0
2, 58264, Control_c, 0, 64, 0
2, 58321, Note_on_c, 0, 60, 0
2, 58344, Control_c, 0, 64, 127
2, 58383, Note_on_c, 0, 29, 0
2, 58383, Note_on_c, 0, 41, 0
2, 58388, Note_on_c, 0, 29, 85
2, 58392, Note_on_c, 0, 70, 101
2, 58392, Note_on_c, 0, 41, 76
2, 58393, Note_on_c, 0, 58, 88
2, 58513, Note_on_c, 0, 29, 0
2, 58513, Note_on_c, 0, 41, 0
2, 58522, Note_on_c, 0, 29, 85
2, 58523, Note_on_c, 0, 41, 76
2, 58629, Note_on_c, 0, 41, 0
2, 58633, Note_on_c, 0, 41, 71
2, 58722, Note_on_c, 0, 29, 0
2, 58723, Note_on_c, 0, 41, 0
2, 58724, Note_on_c, 0, 58, 0
2, 58725, Note_on_c, 0, 68, 0
2, 58725, Control_c, 0, 64, 0
2, 58725, Note_on_c, 0, 70, 0
2, 58736, Note_on_c, 0, 72, 0
2, 58785, Note_on_c, 0, 72, 102
2, 58786, Note_on_c, 0, 60, 89
2, 58788, Note_on_c, 0, 53, 90
2, 58788, Note_on_c, 0, 48, 84
2, 58789, Note_on_c, 0, 68, 95
2, 58791, Note_on_c, 0, 65, 71
2, 58793, Note_on_c, 0, 41, 82
2, 58813, Control_c, 0, 64, 127
2, 58905, Note_on_c, 0, 41, 0
2, 58917, Note_on_c, 0, 41, 79
2, 59043, Note_on_c, 0, 41, 0
2, 59046, Note_on_c, 0, 79, 102
2, 59047, Note_on_c, 0, 41, 79
2, 59052, Note_on_c, 0, 67, 87
2, 59174, Note_on_c, 0, 41, 0
2, 59179, Note_on_c, 0, 46, 82
2, 59181, Note_on_c, 0, 41, 83
2, 59182, Note_on_c, 0, 65, 0
2, 59182, Note_on_c, 0, 77, 103
2, 59186, Note_on_c, 0, 65, 84
2, 59189, Note_on_c, 0, 46, 0
2, 59191, Note_on_c, 0, 70, 96
2, 59243, Note_on_c, 0, 53, 0
2, 59247, Control_c, 0, 64, 0
2, 59248, Note_on_c, 0, 41, 0
2, 59249, Note_on_c, 0, 67, 0
2, 59249, Note_on_c, 0, 48, 0
2, 59249, Note_on_c, 0, 60, 0
2, 59249, Note_on_c, 0, 79, 0
2, 59251, Note_on_c, 0, 72, 0
2, 59251, Note_on_c, 0, 68, 0
2, 59322, Note_on_c, 0, 34, 89
2, 59366, Control_c, 0, 64, 127
2, 59454, Note_on_c, 0, 46, 77
2, 59581, Note_on_c, 0, 34, 0
2, 59591, Note_on_c, 0, 34, 77
2, 59712, Note_on_c, 0, 46, 0
2, 59717, Note_on_c, 0, 46, 69
2, 59849, Note_on_c, 0, 58, 94
2, 59857, Note_on_c, 0, 65, 0
2, 59864, Note_on_c, 0, 65, 56
2, 59865, Note_on_c, 0, 70, 0
2, 59868, Note_on_c, 0, 53, 68
2, 59870, Note_on_c, 0, 70, 75
2, 59973, Note_on_c, 0, 34, 0
2, 59973, Note_on_c, 0, 46, 0
2, 59980, Note_on_c, 0, 46, 80
2, 59984, Note_on_c, 0, 34, 70
2, 60114, Note_on_c, 0, 60, 92
2, 60119, Note_on_c, 0, 46, 0
2, 60124, Note_on_c, 0, 46, 78
2, 60126, Note_on_c, 0, 34, 0
2, 60137, Note_on_c, 0, 34, 75
2, 60234, Note_on_c, 0, 34, 0
2, 60236, Note_on_c, 0, 58, 0
2, 60237, Control_c, 0, 64, 0
2, 60238, Note_on_c, 0, 53, 0
2, 60245, Note_on_c, 0, 34, 80
2, 60264, Note_on_c, 0, 77, 0
2, 60380, Note_on_c, 0, 46, 0
2, 60381, Note_on_c, 0, 34, 0
2, 60384, Note_on_c, 0, 58, 96
2, 60384, Note_on_c, 0, 46, 84
2, 60403, Note_on_c, 0, 60, 0
2, 60508, Note_on_c, 0, 34, 79
2, 60518, Control_c, 0, 64, 127
2, 60618, Control_c, 0, 64, 0
2, 60648, Note_on_c, 0, 34, 0
2, 60655, Note_on_c, 0, 34, 86
2, 60656, Note_on_c, 0, 65, 0
2, 60659, Note_on_c, 0, 60, 93
2, 60660, Note_on_c, 0, 65, 59
2, 60702, Control_c, 0, 64, 127
2, 60764, Note_on_c, 0, 46, 0
2, 60772, Note_on_c, 0, 46, 77
2, 60896, Control_c, 0, 64, 0
2, 60897, Note_on_c, 0, 34, 0
2, 60901, Note_on_c, 0, 60, 0
2, 60917, Note_on_c, 0, 58, 0
2, 60925, Note_on_c, 0, 70, 0
2, 60926, Note_on_c, 0, 58, 91
2, 60928, Note_on_c, 0, 67, 99
2, 60929, Note_on_c, 0, 41, 75
2, 60931, Note_on_c, 0, 53, 80
2, 60940, Note_on_c, 0, 65, 0
2, 60979, Control_c, 0, 64, 127
2, 61048, Note_on_c, 0, 46, 0
2, 61053, Note_on_c, 0, 46, 80
2, 61186, Note_on_c, 0, 46, 0
2, 61189, Note_on_c, 0, 60, 94
2, 61194, Note_on_c, 0, 46, 74
2, 61320, Note_on_c, 0, 34, 75
2, 61405, Control_c, 0, 64, 0
2, 61405, Note_on_c, 0, 67, 0
2, 61405, Note_on_c, 0, 46, 0
2, 61405, Note_on_c, 0, 58, 0
2, 61406, Note_on_c, 0, 60, 0
2, 61409, Note_on_c, 0, 41, 0
2, 61409, Note_on_c, 0, 53, 0
2, 61424, Note_on_c, 0, 34, 0
2, 61452, Note_on_c, 0, 75, 110
2, 61457, Note_on_c, 0, 36, 97
2, 61458, Note_on_c, 0, 67, 93
2, 61459, Note_on_c, 0, 63, 99
2, 61459, Note_on_c, 0, 70, 101
2, 61493, Control_c, 0, 64, 127
2, 61502, Note_on_c, 0, 36, 0
2, 61597, Note_on_c, 0, 48, 74
2, 61720, Note_on_c, 0, 77, 102
2, 61725, Note_on_c, 0, 36, 90
2, 61727, Note_on_c, 0, 72, 84
2, 61728, Note_on_c, 0, 65, 85
2, 61731, Note_on_c, 0, 72, 0
2, 61839, Note_on_c, 0, 48, 0
2, 61843, Note_on_c, 0, 48, 75
2, 61943, Control_c, 0, 64, 0
2, 61943, Note_on_c, 0, 36, 0
2, 61944, Note_on_c, 0, 48, 0
2, 61944, Note_on_c, 0, 63, 0
2, 61944, Note_on_c, 0, 67, 0
2, 61944, Note_on_c, 0, 70, 0
2, 61945, Note_on_c, 0, 65, 0
2, 61946, Note_on_c, 0, 75, 0
2, 61946, Note_on_c, 0, 77, 0
2, 61989, Note_on_c, 0, 82, 110
2, 61992, Note_on_c, 0, 55, 87
2, 61993, Note_on_c, 0, 75, 105
2, 61994, Note_on_c, 0, 70, 103
2, 61997, Note_on_c, 0, 60, 92
2, 62023, Control_c, 0, 64, 127
2, 62110, Note_on_c, 0, 48, 81
2, 62238, Note_on_c, 0, 48, 0
2, 62244, Note_on_c, 0, 48, 74
2, 62366, Note_on_c, 0, 36, 94
2, 62376, Note_on_c, 0, 55, 0
2, 62507, Note_on_c, 0, 48, 0
2, 62508, Control_c, 0, 64, 0
2, 62515, Note_on_c, 0, 75, 0
2, 62516, Note_on_c, 0, 79, 104
2, 62518, Note_on_c, 0, 48, 92
2, 62522, Note_on_c, 0, 70, 0
2, 62524, Note_on_c, 0, 67, 92
2, 62526, Note_on_c, 0, 75, 94
2, 62527, Note_on_c, 0, 70, 91
2, 62533, Note_on_c, 0, 60, 0
2, 62535, Note_on_c, 0, 36, 0
2, 62553, Note_on_c, 0, 82, 0
2, 62584, Note_on_c, 0, 48, 0
2, 62645, Note_on_c, 0, 36, 86
2, 62668, Control_c, 0, 64, 127
2, 62776, Note_on_c, 0, 36, 0
2, 62782, Note_on_c, 0, 36, 84
2, 62902, Note_on_c, 0, 48, 80
2, 63001, Control_c, 0, 64, 0
2, 63004, Note_on_c, 0, 70, 0
2, 63004, Note_on_c, 0, 67, 0
2, 63004, Note_on_c, 0, 79, 0
2, 63004, Note_on_c, 0, 48, 0
2, 63022, Note_on_c, 0, 36, 0
2, 63022, Note_on_c, 0, 75, 0
2, 63043, Note_on_c, 0, 77, 96
2, 63045, Note_on_c, 0, 82, 91
2, 63048, Note_on_c, 0, 60, 90
2, 63048, Note_on_c, 0, 70, 94
2, 63048, Note_on_c, 0, 65, 81
2, 63049, Note_on_c, 0, 55, 87
2, 63091, Control_c, 0, 64, 127
2, 63173, Note_on_c, 0, 48, 79
2, 63306, Note_on_c, 0, 48, 0
2, 63314, Note_on_c, 0, 48, 81
2, 63316, Note_on_c, 0, 75, 100
2, 63316, Note_on_c, 0, 63, 90
2, 63428, Note_on_c, 0, 36, 81
2, 63545, Note_on_c, 0, 36, 0
2, 63545, Control_c, 0, 64, 0
2, 63546, Note_on_c, 0, 70, 0
2, 63546, Note_on_c, 0, 55, 0
2, 63546, Note_on_c, 0, 82, 0
2, 63547, Note_on_c, 0, 77, 0
2, 63547, Note_on_c, 0, 63, 0
2, 63547, Note_on_c, 0, 75, 0
2, 63547, Note_on_c, 0, 65, 0
2, 63547, Note_on_c, 0, 48, 0
2, 63547, Note_on_c, 0, 60, 0
2, 63579, Note_on_c, 0, 34, 96
2, 63636, Control_c, 0, 64, 127
2, 63719, Note_on_c, 0, 46, 74
2, 63843, Note_on_c, 0, 34, 0
2, 63843, Note_on_c, 0, 46, 0
2, 63845, Control_c, 0, 64, 0
2, 63848, Note_on_c, 0, 72, 106
2, 63851, Note_on_c, 0, 46, 82
2, 63855, Note_on_c, 0, 34, 77
2, 63855, Note_on_c, 0, 60, 85
2, 63866, Note_on_c, 0, 70, 70
2, 63897, Control_c, 0, 64, 127
2, 63959, Note_on_c, 0, 46, 0
2, 63970, Note_on_c, 0, 46, 78
2, 64077, Control_c, 0, 64, 0
2, 64078, Note_on_c, 0, 46, 0
2, 64079, Note_on_c, 0, 72, 0
2, 64079, Note_on_c, 0, 60, 0
2, 64097, Note_on_c, 0, 70, 0
2, 64104, Note_on_c, 0, 34, 0
2, 64113, Note_on_c, 0, 82, 108
2, 64115, Note_on_c, 0, 75, 103
2, 64118, Note_on_c, 0, 53, 86
2, 64118, Note_on_c, 0, 58, 100
2, 64121, Note_on_c, 0, 70, 101
2, 64151, Control_c, 0, 64, 127
2, 64246, Note_on_c, 0, 46, 86
2, 64373, Note_on_c, 0, 46, 0
2, 64385, Note_on_c, 0, 46, 83
2, 64450, Note_on_c, 0, 58, 0
2, 64511, Note_on_c, 0, 34, 94
2, 64563, Note_on_c, 0, 34, 0
2, 64563, Control_c, 0, 64, 0
2, 64564, Note_on_c, 0, 46, 0
2, 64564, Note_on_c, 0, 53, 0
2, 64564, Note_on_c, 0, 75, 0
2, 64566, Note_on_c, 0, 82, 0
2, 64567, Note_on_c, 0, 70, 0
2, 64656, Note_on_c, 0, 79, 105
2, 64661, Note_on_c, 0, 75, 97
2, 64661, Note_on_c, 0, 46, 90
2, 64662, Note_on_c, 0, 70, 98
2, 64664, Note_on_c, 0, 67, 93
2, 64715, Note_on_c, 0, 46, 0
2, 64794, Note_on_c, 0, 34, 94
2, 64796, Control_c, 0, 64, 127
2, 64919, Note_on_c, 0, 34, 0
2, 64929, Note_on_c, 0, 34, 89
2, 65057, Note_on_c, 0, 46, 78
2, 65130, Note_on_c, 0, 34, 0
2, 65132, Control_c, 0, 64, 0
2, 65133, Note_on_c, 0, 46, 0
2, 65134, Note_on_c, 0, 75, 0
2, 65135, Note_on_c, 0, 70, 0
2, 65135, Note_on_c, 0, 79, 0
2, 65141, Note_on_c, 0, 67, 0
2, 65186, Note_on_c, 0, 58, 90
2, 65187, Note_on_c, 0, 77, 104
2, 65189, Note_on_c, 0, 70, 98
2, 65191, Note_on_c, 0, 65, 93
2, 65191, Note_on_c, 0, 53, 84
2, 65249, Control_c, 0, 64, 127
2, 65300, Note_on_c, 0, 46, 76
2, 65441, Note_on_c, 0, 46, 0
2, 65449, Note_on_c, 0, 75, 102
2, 65451, Note_on_c, 0, 46, 82
2, 65454, Note_on_c, 0, 63, 81
2, 65454, Note_on_c, 0, 57, 67
2, 65464, Note_on_c, 0, 57, 0
2, 65584, Note_on_c, 0, 34, 67
2, 65684, Control_c, 0, 64, 0
2, 65687, Note_on_c, 0, 53, 0
2, 65687, Note_on_c, 0, 34, 0
2, 65688, Note_on_c, 0, 70, 0
2, 65688, Note_on_c, 0, 63, 0
2, 65688, Note_on_c, 0, 46, 0
2, 65689, Note_on_c, 0, 58, 0
2, 65689, Note_on_c, 0, 75, 0
2, 65694, Note_on_c, 0, 65, 0
2, 65694, Note_on_c, 0, 77, 0
2, 65728, Note_on_c, 0, 72, 104
2, 65729, Note_on_c, 0, 60, 92
2, 65730, Note_on_c, 0, 65, 86
2, 65731, Note_on_c, 0, 33, 83
2, 65771, Control_c, 0, 64, 127
2, 65802, Note_on_c, 0, 33, 0
2, 65867, Note_on_c, 0, 45, 73
2, 65994, Note_on_c, 0, 70, 96
2, 65999, Note_on_c, 0, 33, 75
2, 66008, Note_on_c, 0, 58, 67
2, 66109, Note_on_c, 0, 45, 0
2, 66116, Note_on_c, 0, 45, 72
2, 66218, Note_on_c, 0, 33, 0
2, 66218, Control_c, 0, 64, 0
2, 66219, Note_on_c, 0, 58, 0
2, 66219, Note_on_c, 0, 65, 0
2, 66220, Note_on_c, 0, 60, 0
2, 66220, Note_on_c, 0, 70, 0
2, 66220, Note_on_c, 0, 45, 0
2, 66247, Note_on_c, 0, 72, 0
2, 66257, Note_on_c, 0, 72, 101
2, 66257, Note_on_c, 0, 69, 90
2, 66261, Note_on_c, 0, 57, 89
2, 66264, Note_on_c, 0, 53, 86
2, 66266, Note_on_c, 0, 65, 81
2, 66269, Note_on_c, 0, 60, 84
2, 66274, Note_on_c, 0, 41, 70
2, 66286, Control_c, 0, 64, 127
2, 66389, Note_on_c, 0, 45, 70
2, 66531, Note_on_c, 0, 45, 0
2, 66532, Note_on_c, 0, 70, 94
2, 66537, Note_on_c, 0, 45, 70
2, 66538, Note_on_c, 0, 58, 78
2, 66547, Note_on_c, 0, 41, 0
2, 66658, Note_on_c, 0, 33, 79
2, 66712, Note_on_c, 0, 53, 0
2, 66712, Note_on_c, 0, 65, 0
2, 66713, Note_on_c, 0, 57, 0
2, 66713, Note_on_c, 0, 72, 0
2, 66713, Note_on_c, 0, 33, 0
2, 66713, Note_on_c, 0, 60, 0
2, 66713, Note_on_c, 0, 45, 0
2, 66713, Note_on_c, 0, 58, 0
2, 66714, Control_c, 0, 64, 0
2, 66714, Note_on_c, 0, 70, 0
2, 66723, Note_on_c, 0, 69, 0
2, 66795, Note_on_c, 0, 72, 103
2, 66796, Note_on_c, 0, 65, 87
2, 66797, Note_on_c, 0, 60, 89
2, 66801, Note_on_c, 0, 45, 80
2, 66808, Control_c, 0, 64, 127
2, 66925, Note_on_c, 0, 33, 76
2, 67054, Note_on_c, 0, 33, 0
2, 67054, Note_on_c, 0, 45, 0
2, 67055, Note_on_c, 0, 79, 101
2, 67058, Note_on_c, 0, 67, 87
2, 67062, Note_on_c, 0, 45, 81
2, 67063, Note_on_c, 0, 33, 77
2, 67169, Note_on_c, 0, 45, 0
2, 67176, Note_on_c, 0, 45, 76
2, 67281, Note_on_c, 0, 33, 0
2, 67282, Note_on_c, 0, 67, 0
2, 67282, Note_on_c, 0, 72, 0
2, 67282, Note_on_c, 0, 65, 0
2, 67283, Note_on_c, 0, 60, 0
2, 67283, Note_on_c, 0, 79, 0
2, 67283, Control_c, 0, 64, 0
2, 67284, Note_on_c, 0, 45, 0
2, 67319, Note_on_c, 0, 72, 105
2, 67322, Note_on_c, 0, 69, 89
2, 67324, Note_on_c, 0, 53, 85
2, 67328, Note_on_c, 0, 65, 83
2, 67332, Note_on_c, 0, 60, 81
2, 67334, Note_on_c, 0, 57, 84
2, 67345, Control_c, 0, 64, 127
2, 67449, Note_on_c, 0, 45, 76
2, 67584, Note_on_c, 0, 45, 0
2, 67587, Note_on_c, 0, 45, 69
2, 67706, Note_on_c, 0, 33, 77
2, 67789, Note_on_c, 0, 65, 0
2, 67789, Note_on_c, 0, 60, 0
2, 67789, Note_on_c, 0, 53, 0
2, 67789, Note_on_c, 0, 72, 0
2, 67789, Note_on_c, 0, 33, 0
2, 67791, Note_on_c, 0, 45, 0
2, 67791, Note_on_c, 0, 57, 0
2, 67792, Control_c, 0, 64, 0
2, 67806, Note_on_c, 0, 69, 0
2, 67850, Note_on_c, 0, 75, 108
2, 67854, Note_on_c, 0, 68, 103
2, 67855, Note_on_c, 0, 63, 92
2, 67857, Note_on_c, 0, 44, 88
2, 67861, Note_on_c, 0, 32, 84
2, 67875, Control_c, 0, 64, 127
2, 67975, Note_on_c, 0, 44, 0
2, 67982, Note_on_c, 0, 74, 102
2, 67985, Note_on_c, 0, 62, 84
2, 67985, Note_on_c, 0, 44, 78
2, 68121, Note_on_c, 0, 32, 0
2, 68128, Note_on_c, 0, 32, 72
2, 68229, Note_on_c, 0, 44, 0
2, 68237, Note_on_c, 0, 44, 76
2, 68329, Note_on_c, 0, 75, 0
2, 68330, Note_on_c, 0, 62, 0
2, 68330, Note_on_c, 0, 68, 0
2, 68330, Control_c, 0, 64, 0
2, 68331, Note_on_c, 0, 74, 0
2, 68331, Note_on_c, 0, 44, 0
2, 68331, Note_on_c, 0, 63, 0
2, 68359, Note_on_c, 0, 32, 0
2, 68376, Note_on_c, 0, 74, 95
2, 68379, Note_on_c, 0, 68, 98
2, 68382, Note_on_c, 0, 56, 89
2, 68382, Control_c, 0, 64, 127
2, 68386, Note_on_c, 0, 62, 86
2, 68394, Note_on_c, 0, 32, 78
2, 68490, Note_on_c, 0, 56, 0
2, 68510, Note_on_c, 0, 44, 81
2, 68516, Note_on_c, 0, 72, 95
2, 68536, Note_on_c, 0, 60, 74
2, 68636, Note_on_c, 0, 44, 0
2, 68642, Note_on_c, 0, 44, 75
2, 68766, Note_on_c, 0, 32, 0
2, 68772, Note_on_c, 0, 32, 73
2, 68904, Note_on_c, 0, 72, 0
2, 68914, Note_on_c, 0, 72, 99
2, 68920, Note_on_c, 0, 44, 0
2, 68924, Note_on_c, 0, 44, 70
2, 68925, Note_on_c, 0, 63, 65
2, 68928, Note_on_c, 0, 60, 0
2, 68928, Note_on_c, 0, 68, 0
2, 68931, Note_on_c, 0, 60, 75
2, 68933, Note_on_c, 0, 68, 79
2, 69043, Note_on_c, 0, 74, 0
2, 69045, Control_c, 0, 64, 0
2, 69045, Note_on_c, 0, 72, 0
2, 69045, Note_on_c, 0, 60, 0
2, 69046, Note_on_c, 0, 44, 0
2, 69046, Note_on_c, 0, 68, 0
2, 69050, Note_on_c, 0, 32, 0
2, 69058, Note_on_c, 0, 63, 0
2, 69059, Note_on_c, 0, 70, 100
2, 69061, Note_on_c, 0, 32, 83
2, 69063, Note_on_c, 0, 58, 92
2, 69104, Control_c, 0, 64, 127
2, 69181, Note_on_c, 0, 32, 0
2, 69192, Note_on_c, 0, 32, 67
2, 69316, Note_on_c, 0, 44, 77
2, 69335, Note_on_c, 0, 62, 0
2, 69413, Note_on_c, 0, 58, 0
2, 69414, Note_on_c, 0, 70, 0
2, 69414, Note_on_c, 0, 44, 0
2, 69415, Control_c, 0, 64, 0
2, 69434, Note_on_c, 0, 32, 0
2, 69461, Note_on_c, 0, 70, 100
2, 69461, Note_on_c, 0, 65, 82
2, 69462, Note_on_c, 0, 58, 89
2, 69465, Control_c, 0, 64, 127
2, 69467, Note_on_c, 0, 53, 82
2, 69589, Note_on_c, 0, 46, 78
2, 69711, Note_on_c, 0, 46, 0
2, 69722, Note_on_c, 0, 46, 74
2, 69727, Note_on_c, 0, 72, 101
2, 69736, Note_on_c, 0, 60, 84
2, 69847, Note_on_c, 0, 34, 79
2, 69936, Control_c, 0, 64, 0
2, 69946, Note_on_c, 0, 34, 0
2, 69946, Note_on_c, 0, 53, 0
2, 69948, Note_on_c, 0, 46, 0
2, 69948, Note_on_c, 0, 65, 0
2, 69952, Note_on_c, 0, 70, 0
2, 69957, Note_on_c, 0, 58, 0
2, 70001, Note_on_c, 0, 36, 77
2, 70179, Note_on_c, 0, 36, 0
2, 70279, Note_on_c, 0, 60, 0
2, 70281, Note_on_c, 0, 36, 69
2, 70285, Note_on_c, 0, 60, 56
2, 70295, Control_c, 0, 64, 127
2, 70402, Note_on_c, 0, 72, 0
2, 70540, Note_on_c, 0, 36, 0
2, 70548, Note_on_c, 0, 60, 0
2, 70549, Note_on_c, 0, 36, 59
2, 70554, Note_on_c, 0, 60, 75
2, 70556, Note_on_c, 0, 55, 67
2, 70676, Note_on_c, 0, 48, 68
2, 70783, Control_c, 0, 64, 0
2, 70824, Note_on_c, 0, 48, 0
2, 70828, Note_on_c, 0, 60, 0
2, 70829, Note_on_c, 0, 48, 65
2, 70829, Note_on_c, 0, 55, 0
2, 70848, Note_on_c, 0, 36, 0
2, 70886, Note_on_c, 0, 48, 0
2, 70966, Note_on_c, 0, 36, 68
2, 71122, Note_on_c, 0, 36, 0
2, 71244, Note_on_c, 0, 36, 67
2, 71282, Note_on_c, 0, 36, 0
2, 71380, Note_on_c, 0, 36, 67
2, 71424, Control_c, 0, 64, 127
2, 71658, Note_on_c, 0, 60, 78
2, 71659, Note_on_c, 0, 55, 71
2, 71781, Note_on_c, 0, 48, 68
2, 71835, Control_c, 0, 64, 0
2, 71851, Note_on_c, 0, 60, 0
2, 71852, Note_on_c, 0, 48, 0
2, 71855, Note_on_c, 0, 55, 0
2, 71877, Note_on_c, 0, 36, 0
2, 71919, Note_on_c, 0, 48, 70
2, 71966, Note_on_c, 0, 48, 0
2, 72067, Note_on_c, 0, 48, 65
2, 72104, Note_on_c, 0, 48, 0
2, 72203, Note_on_c, 0, 36, 69
2, 72327, Note_on_c, 0, 36, 0
2, 72479, Note_on_c, 0, 36, 66
2, 72522, Control_c, 0, 64, 127
2, 72760, Note_on_c, 0, 36, 0
2, 72764, Note_on_c, 0, 60, 75
2, 72770, Note_on_c, 0, 36, 57
2, 72770, Note_on_c, 0, 55, 65
2, 72896, Note_on_c, 0, 48, 66
2, 72952, Control_c, 0, 64, 0
2, 72956, Note_on_c, 0, 55, 0
2, 72956, Note_on_c, 0, 48, 0
2, 72956, Note_on_c, 0, 36, 0
2, 72959, Note_on_c, 0, 60, 0
2, 73040, Note_on_c, 0, 48, 62
2, 73085, Note_on_c, 0, 48, 0
2, 73181, Note_on_c, 0, 36, 70
2, 73326, Note_on_c, 0, 36, 0
2, 73441, Note_on_c, 0, 36, 64
2, 73482, Note_on_c, 0, 36, 0
2, 73587, Note_on_c, 0, 36, 68
2, 73612, Control_c, 0, 64, 127
2, 73880, Note_on_c, 0, 60, 73
2, 73881, Note_on_c, 0, 36, 0
2, 73885, Note_on_c, 0, 36, 54
2, 73886, Note_on_c, 0, 55, 68
2, 74008, Note_on_c, 0, 48, 70
2, 74062, Control_c, 0, 64, 0
2, 74069, Note_on_c, 0, 55, 0
2, 74074, Note_on_c, 0, 60, 0
2, 74076, Note_on_c, 0, 48, 0
2, 74104, Note_on_c, 0, 36, 0
2, 74148, Note_on_c, 0, 48, 65
2, 74193, Note_on_c, 0, 48, 0
2, 74289, Note_on_c, 0, 48, 68
2, 74338, Note_on_c, 0, 48, 0
2, 74415, Note_on_c, 0, 36, 78
2, 74521, Note_on_c, 0, 36, 0
2, 74550, Note_on_c, 0, 44, 67
2, 74584, Note_on_c, 0, 44, 0
2, 74685, Note_on_c, 0, 36, 73
2, 74757, Control_c, 0, 64, 127
2, 74819, Note_on_c, 0, 44, 68
2, 74975, Note_on_c, 0, 60, 74
2, 74976, Note_on_c, 0, 56, 76
2, 74976, Note_on_c, 0, 48, 60
2, 75087, Note_on_c, 0, 48, 0
2, 75093, Note_on_c, 0, 48, 66
2, 75217, Note_on_c, 0, 44, 0
2, 75217, Note_on_c, 0, 48, 0
2, 75224, Note_on_c, 0, 44, 57
2, 75228, Note_on_c, 0, 48, 67
2, 75300, Note_on_c, 0, 56, 0
2, 75300, Note_on_c, 0, 60, 0
2, 75301, Note_on_c, 0, 44, 0
2, 75302, Note_on_c, 0, 48, 0
2, 75304, Control_c, 0, 64, 0
2, 75310, Note_on_c, 0, 36, 0
2, 75374, Note_on_c, 0, 36, 76
2, 75513, Note_on_c, 0, 44, 66
2, 75529, Note_on_c, 0, 36, 0
2, 75541, Note_on_c, 0, 44, 0
2, 75629, Note_on_c, 0, 36, 72
2, 75680, Note_on_c, 0, 36, 0
2, 75767, Note_on_c, 0, 36, 74
2, 75847, Control_c, 0, 64, 127
2, 75903, Note_on_c, 0, 44, 69
2, 76026, Control_c, 0, 64, 0
2, 76039, Note_on_c, 0, 44, 0
2, 76047, Control_c, 0, 64, 127
2, 76049, Note_on_c, 0, 60, 76
2, 76050, Note_on_c, 0, 48, 62
2, 76050, Note_on_c, 0, 44, 64
2, 76050, Note_on_c, 0, 56, 72
2, 76170, Note_on_c, 0, 48, 0
2, 76177, Note_on_c, 0, 48, 64
2, 76300, Note_on_c, 0, 48, 0
2, 76304, Note_on_c, 0, 48, 65
2, 76412, Control_c, 0, 64, 0
2, 76419, Note_on_c, 0, 44, 0
2, 76419, Note_on_c, 0, 56, 0
2, 76419, Note_on_c, 0, 36, 0
2, 76420, Note_on_c, 0, 60, 0
2, 76446, Note_on_c, 0, 48, 0
2, 76451, Note_on_c, 0, 48, 72
2, 76511, Note_on_c, 0, 48, 0
2, 76587, Note_on_c, 0, 36, 80
2, 76688, Note_on_c, 0, 36, 0
2, 76729, Note_on_c, 0, 44, 66
2, 76764, Note_on_c, 0, 44, 0
2, 76858, Note_on_c, 0, 36, 73
2, 76938, Control_c, 0, 64, 127
2, 76989, Note_on_c, 0, 44, 72
2, 77137, Note_on_c, 0, 44, 0
2, 77141, Note_on_c, 0, 60, 79
2, 77142, Note_on_c, 0, 44, 65
2, 77143, Note_on_c, 0, 48, 63
2, 77148, Note_on_c, 0, 56, 71
2, 77268, Note_on_c, 0, 48, 0
2, 77275, Note_on_c, 0, 48, 66
2, 77391, Note_on_c, 0, 48, 0
2, 77398, Note_on_c, 0, 48, 70
2, 77503, Note_on_c, 0, 44, 0
2, 77504, Note_on_c, 0, 36, 0
2, 77504, Note_on_c, 0, 48, 0
2, 77504, Control_c, 0, 64, 0
2, 77504, Note_on_c, 0, 56, 0
2, 77505, Note_on_c, 0, 60, 0
2, 77545, Note_on_c, 0, 36, 76
2, 77668, Note_on_c, 0, 44, 74
2, 77675, Note_on_c, 0, 36, 0
2, 77702, Note_on_c, 0, 44, 0
2, 77792, Note_on_c, 0, 36, 73
2, 77832, Note_on_c, 0, 36, 0
2, 77919, Note_on_c, 0, 36, 69
2, 78028, Control_c, 0, 64, 127
2, 78060, Note_on_c, 0, 44, 78
2, 78067, Note_on_c, 0, 36, 0
2, 78077, Note_on_c, 0, 36, 59
2, 78217, Note_on_c, 0, 60, 74
2, 78217, Note_on_c, 0, 72, 69
2, 78223, Note_on_c, 0, 56, 73
2, 78379, Control_c, 0, 64, 0
2, 78381, Note_on_c, 0, 36, 0
2, 78382, Note_on_c, 0, 56, 0
2, 78382, Note_on_c, 0, 44, 0
2, 78383, Note_on_c, 0, 60, 0
2, 78389, Note_on_c, 0, 72, 0
2, 78766, Note_on_c, 0, 75, 107
2, 78769, Note_on_c, 0, 63, 96
2, 78772, Note_on_c, 0, 67, 89
2, 78773, Note_on_c, 0, 72, 103
2, 78775, Note_on_c, 0, 36, 82
2, 78776, Note_on_c, 0, 31, 80
2, 78789, Control_c, 0, 64, 127
2, 78896, Note_on_c, 0, 36, 0
2, 78901, Note_on_c, 0, 36, 70
2, 79004, Note_on_c, 0, 36, 0
2, 79008, Note_on_c, 0, 36, 73
2, 79146, Note_on_c, 0, 48, 76
2, 79280, Note_on_c, 0, 67, 0
2, 79280, Note_on_c, 0, 72, 0
2, 79280, Note_on_c, 0, 75, 0
2, 79288, Note_on_c, 0, 63, 0
2, 79291, Note_on_c, 0, 75, 102
2, 79292, Note_on_c, 0, 72, 96
2, 79292, Note_on_c, 0, 67, 94
2, 79293, Note_on_c, 0, 63, 93
2, 79302, Note_on_c, 0, 60, 85
2, 79315, Note_on_c, 0, 59, 70
2, 79395, Note_on_c, 0, 36, 0
2, 79407, Note_on_c, 0, 36, 74
2, 79541, Note_on_c, 0, 48, 0
2, 79546, Note_on_c, 0, 48, 65
2, 79656, Note_on_c, 0, 36, 0
2, 79667, Note_on_c, 0, 36, 95
2, 79778, Control_c, 0, 64, 0
2, 79783, Note_on_c, 0, 60, 0
2, 79802, Note_on_c, 0, 59, 0
2, 79810, Note_on_c, 0, 48, 0
2, 79810, Note_on_c, 0, 63, 0
2, 79810, Note_on_c, 0, 67, 0
2, 79810, Note_on_c, 0, 72, 0
2, 79810, Note_on_c, 0, 75, 0
2, 79816, Note_on_c, 0, 75, 99
2, 79817, Note_on_c, 0, 60, 89
2, 79817, Note_on_c, 0, 48, 89
2, 79819, Note_on_c, 0, 63, 97
2, 79820, Note_on_c, 0, 67, 92
2, 79820, Note_on_c, 0, 72, 97
2, 79833, Control_c, 0, 64, 127
2, 79848, Note_on_c, 0, 31, 0
2, 79925, Note_on_c, 0, 36, 0
2, 79936, Note_on_c, 0, 36, 88
2, 79971, Note_on_c, 0, 60, 0
2, 80079, Note_on_c, 0, 36, 0
2, 80079, Note_on_c, 0, 72, 0
2, 80082, Note_on_c, 0, 77, 98
2, 80083, Note_on_c, 0, 36, 79
2, 80084, Note_on_c, 0, 65, 85
2, 80086, Note_on_c, 0, 72, 77
2, 80194, Note_on_c, 0, 48, 0
2, 80198, Note_on_c, 0, 48, 83
2, 80340, Note_on_c, 0, 63, 0
2, 80340, Note_on_c, 0, 72, 0
2, 80348, Note_on_c, 0, 48, 0
2, 80348, Note_on_c, 0, 67, 0
2, 80350, Note_on_c, 0, 60, 94
2, 80351, Note_on_c, 0, 72, 102
2, 80351, Note_on_c, 0, 63, 97
2, 80352, Note_on_c, 0, 67, 83
2, 80352, Note_on_c, 0, 48, 88
2, 80466, Note_on_c, 0, 47, 81
2, 80593, Note_on_c, 0, 48, 0
2, 80603, Note_on_c, 0, 48, 92
2, 80724, Note_on_c, 0, 36, 0
2, 80728, Note_on_c, 0, 36, 81
2, 80850, Control_c, 0, 64, 0
2, 80850, Note_on_c, 0, 47, 0
2, 80851, Note_on_c, 0, 65, 0
2, 80852, Note_on_c, 0, 77, 0
2, 80870, Note_on_c, 0, 36, 0
2, 80870, Note_on_c, 0, 60, 0
2, 80870, Note_on_c, 0, 63, 0
2, 80870, Note_on_c, 0, 67, 0
2, 80870, Note_on_c, 0, 72, 0
2, 80870, Note_on_c, 0, 75, 0
2, 80874, Note_on_c, 0, 84, 99
2, 80875, Note_on_c, 0, 75, 104
2, 80875, Note_on_c, 0, 79, 97
2, 80878, Note_on_c, 0, 48, 0
2, 80878, Note_on_c, 0, 72, 106
2, 80879, Note_on_c, 0, 67, 94
2, 80880, Note_on_c, 0, 36, 85
2, 80880, Note_on_c, 0, 60, 90
2, 80880, Note_on_c, 0, 39, 86
2, 80881, Note_on_c, 0, 63, 95
2, 80908, Control_c, 0, 64, 127
2, 80993, Note_on_c, 0, 36, 0
2, 80998, Note_on_c, 0, 36, 80
2, 81123, Note_on_c, 0, 60, 0
2, 81136, Note_on_c, 0, 43, 76
2, 81140, Note_on_c, 0, 31, 78
2, 81142, Note_on_c, 0, 74, 98
2, 81148, Note_on_c, 0, 62, 84
2, 81261, Note_on_c, 0, 48, 83
2, 81277, Note_on_c, 0, 84, 0
2, 81408, Note_on_c, 0, 48, 0
2, 81408, Note_on_c, 0, 63, 0
2, 81408, Note_on_c, 0, 67, 0
2, 81408, Note_on_c, 0, 72, 0
2, 81408, Note_on_c, 0, 75, 0
2, 81412, Note_on_c, 0, 75, 98
2, 81412, Note_on_c, 0, 67, 82
2, 81412, Note_on_c, 0, 72, 93
2, 81413, Note_on_c, 0, 63, 95
2, 81414, Note_on_c, 0, 60, 97
2, 81417, Note_on_c, 0, 48, 79
2, 81523, Note_on_c, 0, 48, 0
2, 81529, Note_on_c, 0, 48, 82
2, 81669, Note_on_c, 0, 48, 0
2, 81675, Note_on_c, 0, 77, 97
2, 81675, Note_on_c, 0, 48, 92
2, 81676, Note_on_c, 0, 72, 0
2, 81676, Note_on_c, 0, 75, 0
2, 81682, Note_on_c, 0, 65, 87
2, 81684, Note_on_c, 0, 75, 80
2, 81686, Note_on_c, 0, 72, 77
2, 81792, Note_on_c, 0, 36, 0
2, 81801, Note_on_c, 0, 36, 87
2, 81868, Note_on_c, 0, 31, 0
2, 81902, Control_c, 0, 64, 0
2, 81904, Note_on_c, 0, 62, 0
2, 81904, Note_on_c, 0, 60, 0
2, 81905, Note_on_c, 0, 74, 0
2, 81905, Note_on_c, 0, 63, 0
2, 81905, Note_on_c, 0, 65, 0
2, 81908, Note_on_c, 0, 77, 0
2, 81914, Note_on_c, 0, 39, 0
2, 81914, Note_on_c, 0, 43, 0
2, 81922, Note_on_c, 0, 48, 0
2, 81922, Note_on_c, 0, 79, 0
2, 81928, Note_on_c, 0, 79, 105
2, 81930, Note_on_c, 0, 36, 0
2, 81930, Note_on_c, 0, 67, 0
2, 81930, Note_on_c, 0, 72, 0
2, 81930, Note_on_c, 0, 75, 0
2, 81932, Note_on_c, 0, 48, 85
2, 81934, Note_on_c, 0, 72, 92
2, 81934, Note_on_c, 0, 36, 85
2, 81934, Note_on_c, 0, 67, 87
2, 81935, Note_on_c, 0, 75, 87
2, 81968, Control_c, 0, 64, 127
2, 82045, Note_on_c, 0, 36, 0
2, 82052, Note_on_c, 0, 36, 80
2, 82191, Note_on_c, 0, 36, 0
2, 82196, Note_on_c, 0, 36, 83
2, 82199, Note_on_c, 0, 67, 0
2, 82200, Note_on_c, 0, 77, 98
2, 82203, Note_on_c, 0, 65, 84
2, 82205, Note_on_c, 0, 67, 75
2, 82206, Note_on_c, 0, 72, 0
2, 82215, Note_on_c, 0, 72, 71
2, 82306, Note_on_c, 0, 48, 0
2, 82314, Note_on_c, 0, 48, 85
2, 82460, Note_on_c, 0, 48, 0
2, 82460, Note_on_c, 0, 67, 0
2, 82460, Note_on_c, 0, 72, 0
2, 82465, Note_on_c, 0, 48, 93
2, 82466, Note_on_c, 0, 72, 102
2, 82470, Note_on_c, 0, 60, 93
2, 82470, Note_on_c, 0, 63, 96
2, 82471, Note_on_c, 0, 67, 90
2, 82567, Note_on_c, 0, 48, 0
2, 82577, Note_on_c, 0, 48, 88
2, 82721, Note_on_c, 0, 48, 0
2, 82729, Note_on_c, 0, 48, 84
2, 82836, Note_on_c, 0, 36, 0
2, 82844, Note_on_c, 0, 36, 82
2, 82949, Control_c, 0, 64, 0
2, 82949, Note_on_c, 0, 48, 0
2, 82951, Note_on_c, 0, 67, 0
2, 82951, Note_on_c, 0, 60, 0
2, 82951, Note_on_c, 0, 63, 0
2, 82951, Note_on_c, 0, 75, 0
2, 82952, Note_on_c, 0, 65, 0
2, 82952, Note_on_c, 0, 72, 0
2, 82952, Note_on_c, 0, 77, 0
2, 82953, Note_on_c, 0, 79, 0
2, 82990, Note_on_c, 0, 44, 79
2, 82992, Note_on_c, 0, 75, 104
2, 82994, Note_on_c, 0, 63, 92
2, 82994, Note_on_c, 0, 72, 99
2, 82995, Note_on_c, 0, 68, 101
2, 83013, Control_c, 0, 64, 127
2, 83112, Note_on_c, 0, 36, 0
2, 83122, Note_on_c, 0, 36, 82
2, 83235, Note_on_c, 0, 36, 0
2, 83240, Note_on_c, 0, 36, 76
2, 83370, Note_on_c, 0, 48, 81
2, 83504, Note_on_c, 0, 72, 0
2, 83504, Note_on_c, 0, 75, 0
2, 83512, Note_on_c, 0, 48, 0
2, 83512, Note_on_c, 0, 63, 0
2, 83512, Note_on_c, 0, 68, 0
2, 83515, Note_on_c, 0, 75, 106
2, 83515, Note_on_c, 0, 72, 98
2, 83517, Note_on_c, 0, 48, 79
2, 83517, Note_on_c, 0, 60, 95
2, 83517, Note_on_c, 0, 68, 96
2, 83518, Note_on_c, 0, 63, 93
2, 83781, Note_on_c, 0, 48, 0
2, 83786, Note_on_c, 0, 48, 53
2, 83904, Note_on_c, 0, 36, 0
2, 83909, Note_on_c, 0, 36, 83
2, 83980, Control_c, 0, 64, 0
2, 83984, Note_on_c, 0, 68, 0
2, 83984, Note_on_c, 0, 72, 0
2, 83984, Note_on_c, 0, 63, 0
2, 83984, Note_on_c, 0, 60, 0
2, 84011, Note_on_c, 0, 44, 0
2, 84019, Note_on_c, 0, 75, 0
2, 84019, Control_c, 0, 64, 127
2, 84029, Note_on_c, 0, 75, 108
2, 84032, Note_on_c, 0, 63, 92
2, 84034, Note_on_c, 0, 48, 0
2, 84036, Note_on_c, 0, 68, 97
2, 84038, Note_on_c, 0, 72, 89
2, 84045, Note_on_c, 0, 48, 81
2, 84157, Note_on_c, 0, 36, 0
2, 84168, Note_on_c, 0, 36, 84
2, 84303, Note_on_c, 0, 36, 0
2, 84307, Note_on_c, 0, 77, 98
2, 84311, Note_on_c, 0, 72, 0
2, 84313, Note_on_c, 0, 36, 79
2, 84314, Note_on_c, 0, 65, 83
2, 84317, Note_on_c, 0, 72, 60
2, 84433, Note_on_c, 0, 48, 0
2, 84440, Note_on_c, 0, 48, 79
2, 84572, Note_on_c, 0, 72, 0
2, 84579, Note_on_c, 0, 63, 0
2, 84583, Note_on_c, 0, 72, 104
2, 84587, Note_on_c, 0, 68, 0
2, 84588, Note_on_c, 0, 63, 90
2, 84591, Note_on_c, 0, 68, 86
2, 84591, Note_on_c, 0, 60, 90
2, 84702, Note_on_c, 0, 36, 0
2, 84702, Note_on_c, 0, 48, 0
2, 84706, Note_on_c, 0, 48, 93
2, 84709, Note_on_c, 0, 36, 72
2, 84840, Note_on_c, 0, 48, 0
2, 84851, Note_on_c, 0, 48, 83
2, 84956, Note_on_c, 0, 36, 0
2, 84966, Note_on_c, 0, 36, 80
2, 85075, Control_c, 0, 64, 0
2, 85076, Note_on_c, 0, 36, 0
2, 85076, Note_on_c, 0, 48, 0
2, 85077, Note_on_c, 0, 63, 0
2, 85077, Note_on_c, 0, 60, 0
2, 85077, Note_on_c, 0, 75, 0
2, 85077, Note_on_c, 0, 68, 0
2, 85077, Note_on_c, 0, 77, 0
2, 85078, Note_on_c, 0, 65, 0
2, 85078, Note_on_c, 0, 72, 0
2, 85117, Note_on_c, 0, 44, 88
2, 85119, Note_on_c, 0, 75, 108
2, 85122, Note_on_c, 0, 72, 99
2, 85122, Note_on_c, 0, 68, 101
2, 85122, Note_on_c, 0, 63, 96
2, 85124, Note_on_c, 0, 36, 77
2, 85140, Control_c, 0, 64, 127
2, 85224, Note_on_c, 0, 36, 0
2, 85230, Note_on_c, 0, 36, 50
2, 85347, Note_on_c, 0, 36, 0
2, 85354, Note_on_c, 0, 36, 78
2, 85370, Note_on_c, 0, 72, 0
2, 85375, Note_on_c, 0, 74, 93
2, 85378, Note_on_c, 0, 68, 0
2, 85382, Note_on_c, 0, 62, 90
2, 85382, Note_on_c, 0, 72, 77
2, 85383, Note_on_c, 0, 68, 73
2, 85497, Note_on_c, 0, 48, 72
2, 85639, Note_on_c, 0, 75, 0
2, 85647, Note_on_c, 0, 44, 0
2, 85647, Note_on_c, 0, 48, 0
2, 85647, Note_on_c, 0, 63, 0
2, 85647, Note_on_c, 0, 68, 0
2, 85647, Note_on_c, 0, 72, 0
2, 85650, Note_on_c, 0, 60, 98
2, 85650, Note_on_c, 0, 75, 108
2, 85651, Note_on_c, 0, 72, 96
2, 85653, Note_on_c, 0, 63, 91
2, 85655, Note_on_c, 0, 48, 77
2, 85656, Note_on_c, 0, 44, 73
2, 85656, Note_on_c, 0, 68, 102
2, 85762, Note_on_c, 0, 48, 0
2, 85773, Note_on_c, 0, 48, 72
2, 85908, Note_on_c, 0, 48, 0
2, 85908, Note_on_c, 0, 72, 0
2, 85912, Note_on_c, 0, 77, 100
2, 85912, Note_on_c, 0, 48, 77
2, 85915, Note_on_c, 0, 65, 79
2, 85917, Note_on_c, 0, 72, 77
2, 85919, Note_on_c, 0, 67, 73
2, 86023, Note_on_c, 0, 36, 0
2, 86033, Note_on_c, 0, 36, 77
2, 86131, Note_on_c, 0, 44, 0
2, 86142, Note_on_c, 0, 44, 67
2, 86146, Control_c, 0, 64, 0
2, 86147, Note_on_c, 0, 62, 0
2, 86148, Note_on_c, 0, 63, 0
2, 86148, Note_on_c, 0, 74, 0
2, 86148, Note_on_c, 0, 60, 0
2, 86148, Note_on_c, 0, 65, 0
2, 86149, Note_on_c, 0, 77, 0
2, 86161, Note_on_c, 0, 67, 0
2, 86161, Note_on_c, 0, 72, 0
2, 86169, Note_on_c, 0, 48, 0
2, 86169, Note_on_c, 0, 68, 0
2, 86169, Note_on_c, 0, 75, 0
2, 86171, Note_on_c, 0, 79, 103
2, 86173, Note_on_c, 0, 72, 93
2, 86174, Note_on_c, 0, 75, 91
2, 86174, Note_on_c, 0, 48, 84
2, 86178, Note_on_c, 0, 68, 96
2, 86200, Control_c, 0, 64, 127
2, 86208, Note_on_c, 0, 36, 0
2, 86296, Note_on_c, 0, 36, 85
2, 86430, Note_on_c, 0, 36, 0
2, 86439, Note_on_c, 0, 36, 85
2, 86440, Note_on_c, 0, 77, 99
2, 86442, Note_on_c, 0, 65, 84
2, 86545, Note_on_c, 0, 48, 0
2, 86556, Note_on_c, 0, 48, 86
2, 86699, Note_on_c, 0, 72, 0
2, 86707, Note_on_c, 0, 68, 0
2, 86710, Note_on_c, 0, 72, 104
2, 86711, Note_on_c, 0, 60, 94
2, 86713, Note_on_c, 0, 63, 91
2, 86716, Note_on_c, 0, 56, 81
2, 86718, Note_on_c, 0, 68, 96
2, 86814, Note_on_c, 0, 48, 0
2, 86822, Note_on_c, 0, 36, 0
2, 86825, Note_on_c, 0, 48, 77
2, 86827, Note_on_c, 0, 36, 71
2, 86952, Note_on_c, 0, 48, 0
2, 86962, Note_on_c, 0, 48, 69
2, 87068, Note_on_c, 0, 36, 0
2, 87075, Note_on_c, 0, 36, 73
2, 87178, Control_c, 0, 64, 0
2, 87179, Note_on_c, 0, 48, 0
2, 87180, Note_on_c, 0, 60, 0
2, 87180, Note_on_c, 0, 77, 0
2, 87180, Note_on_c, 0, 75, 0
2, 87180, Note_on_c, 0, 79, 0
2, 87191, Note_on_c, 0, 44, 0
2, 87198, Note_on_c, 0, 56, 0
2, 87198, Note_on_c, 0, 65, 0
2, 87198, Note_on_c, 0, 68, 0
2, 87198, Note_on_c, 0, 72, 0
2, 87214, Note_on_c, 0, 36, 0
2, 87214, Note_on_c, 0, 63, 0
2, 87224, Note_on_c, 0, 63, 105
2, 87225, Note_on_c, 0, 36, 81
2, 87227, Note_on_c, 0, 58, 100
2, 87231, Note_on_c, 0, 70, 87
2, 87244, Control_c, 0, 64, 127
2, 87378, Note_on_c, 0, 48, 66
2, 87505, Note_on_c, 0, 48, 0
2, 87514, Note_on_c, 0, 48, 72
2, 87613, Note_on_c, 0, 48, 0
2, 87622, Note_on_c, 0, 48, 74
2, 87767, Note_on_c, 0, 63, 0
2, 87773, Note_on_c, 0, 63, 96
2, 87774, Note_on_c, 0, 58, 0
2, 87781, Note_on_c, 0, 58, 91
2, 87790, Note_on_c, 0, 48, 0
2, 87800, Note_on_c, 0, 48, 60
2, 87905, Note_on_c, 0, 48, 0
2, 87911, Note_on_c, 0, 48, 78
2, 88035, Note_on_c, 0, 48, 0
2, 88047, Note_on_c, 0, 48, 57
2, 88166, Note_on_c, 0, 48, 0
2, 88176, Note_on_c, 0, 60, 61
2, 88176, Note_on_c, 0, 48, 59
2, 88277, Control_c, 0, 64, 0
2, 88278, Note_on_c, 0, 48, 0
2, 88281, Note_on_c, 0, 36, 0
2, 88296, Note_on_c, 0, 60, 0
2, 88304, Note_on_c, 0, 58, 0
2, 88304, Note_on_c, 0, 63, 0
2, 88308, Note_on_c, 0, 75, 95
2, 88311, Note_on_c, 0, 63, 97
2, 88312, Note_on_c, 0, 84, 102
2, 88316, Note_on_c, 0, 58, 85
2, 88316, Note_on_c, 0, 72, 97
2, 88343, Control_c, 0, 64, 127
2, 88373, Note_on_c, 0, 70, 0
2, 88438, Note_on_c, 0, 48, 76
2, 88578, Note_on_c, 0, 65, 89
2, 88585, Note_on_c, 0, 86, 101
2, 88591, Note_on_c, 0, 74, 93
2, 88600, Note_on_c, 0, 60, 55
2, 88704, Note_on_c, 0, 48, 0
2, 88709, Note_on_c, 0, 48, 78
2, 88849, Note_on_c, 0, 60, 0
2, 88849, Note_on_c, 0, 75, 0
2, 88853, Note_on_c, 0, 87, 101
2, 88855, Note_on_c, 0, 60, 90
2, 88857, Note_on_c, 0, 58, 0
2, 88859, Note_on_c, 0, 75, 95
2, 88866, Note_on_c, 0, 58, 86
2, 88880, Note_on_c, 0, 48, 0
2, 88886, Note_on_c, 0, 48, 64
2, 88972, Note_on_c, 0, 48, 0
2, 88979, Note_on_c, 0, 48, 80
2, 89103, Note_on_c, 0, 60, 0
2, 89103, Note_on_c, 0, 84, 0
2, 89111, Note_on_c, 0, 72, 0
2, 89111, Note_on_c, 0, 84, 105
2, 89113, Note_on_c, 0, 60, 81
2, 89115, Note_on_c, 0, 72, 96
2, 89116, Note_on_c, 0, 51, 58
2, 89118, Note_on_c, 0, 58, 0
2, 89125, Note_on_c, 0, 58, 66
2, 89126, Note_on_c, 0, 51, 0
2, 89241, Note_on_c, 0, 48, 0
2, 89252, Note_on_c, 0, 48, 74
2, 89346, Control_c, 0, 64, 0
2, 89352, Note_on_c, 0, 87, 0
2, 89352, Note_on_c, 0, 60, 0
2, 89352, Note_on_c, 0, 75, 0
2, 89352, Note_on_c, 0, 65, 0
2, 89352, Note_on_c, 0, 74, 0
2, 89352, Note_on_c, 0, 86, 0
2, 89353, Note_on_c, 0, 72, 0
2, 89353, Note_on_c, 0, 84, 0
2, 89356, Note_on_c, 0, 58, 0
2, 89365, Note_on_c, 0, 58, 93
2, 89372, Note_on_c, 0, 63, 0
2, 89377, Note_on_c, 0, 63, 90
2, 89384, Note_on_c, 0, 82, 107
2, 89385, Note_on_c, 0, 94, 111
2, 89387, Note_on_c, 0, 48, 0
2, 89402, Control_c, 0, 64, 127
2, 89536, Note_on_c, 0, 48, 69
2, 89646, Note_on_c, 0, 74, 80
2, 89648, Note_on_c, 0, 58, 0
2, 89651, Note_on_c, 0, 62, 83
2, 89658, Note_on_c, 0, 58, 70
2, 89771, Note_on_c, 0, 48, 0
2, 89776, Note_on_c, 0, 48, 90
2, 89909, Note_on_c, 0, 58, 0
2, 89909, Note_on_c, 0, 63, 0
2, 89915, Note_on_c, 0, 75, 92
2, 89916, Note_on_c, 0, 58, 93
2, 89916, Note_on_c, 0, 63, 98
2, 90032, Note_on_c, 0, 48, 0
2, 90040, Note_on_c, 0, 48, 88
2, 90171, Note_on_c, 0, 65, 97
2, 90173, Note_on_c, 0, 89, 103
2, 90175, Note_on_c, 0, 77, 98
2, 90293, Note_on_c, 0, 48, 0
2, 90299, Note_on_c, 0, 48, 75
2, 90424, Note_on_c, 0, 58, 0
2, 90430, Note_on_c, 0, 58, 98
2, 90433, Note_on_c, 0, 67, 102
2, 90455, Note_on_c, 0, 48, 0
2, 90460, Note_on_c, 0, 48, 63
2, 90570, Note_on_c, 0, 48, 0
2, 90580, Note_on_c, 0, 48, 83
2, 90693, Note_on_c, 0, 65, 0
2, 90702, Note_on_c, 0, 65, 96
2, 90731, Note_on_c, 0, 58, 0
2, 90735, Note_on_c, 0, 58, 49
2, 90831, Note_on_c, 0, 48, 0
2, 90840, Note_on_c, 0, 48, 81
2, 90969, Note_on_c, 0, 48, 0
2, 90969, Note_on_c, 0, 75, 0
2, 90972, Note_on_c, 0, 87, 106
2, 90975, Note_on_c, 0, 75, 99
2, 90976, Note_on_c, 0, 48, 82
2, 90977, Note_on_c, 0, 58, 0
2, 90980, Note_on_c, 0, 60, 93
2, 90986, Note_on_c, 0, 58, 87
2, 90988, Note_on_c, 0, 51, 61
2, 91084, Note_on_c, 0, 48, 0
2, 91094, Note_on_c, 0, 48, 79
2, 91223, Note_on_c, 0, 48, 0
2, 91223, Note_on_c, 0, 74, 0
2, 91223, Note_on_c, 0, 77, 0
2, 91225, Note_on_c, 0, 86, 107
2, 91227, Note_on_c, 0, 77, 77
2, 91231, Note_on_c, 0, 74, 100
2, 91233, Note_on_c, 0, 48, 83
2, 91338, Note_on_c, 0, 48, 0
2, 91349, Note_on_c, 0, 48, 83
2, 91473, Control_c, 0, 64, 0
2, 91476, Note_on_c, 0, 63, 0
2, 91486, Note_on_c, 0, 68, 98
2, 91486, Note_on_c, 0, 63, 101
2, 91487, Note_on_c, 0, 56, 97
2, 91490, Note_on_c, 0, 36, 86
2, 91497, Note_on_c, 0, 89, 0
2, 91497, Note_on_c, 0, 65, 0
2, 91499, Note_on_c, 0, 77, 0
2, 91500, Note_on_c, 0, 82, 0
2, 91500, Note_on_c, 0, 67, 0
2, 91500, Note_on_c, 0, 58, 0
2, 91501, Note_on_c, 0, 87, 0
2, 91502, Note_on_c, 0, 94, 0
2, 91502, Note_on_c, 0, 86, 0
2, 91503, Note_on_c, 0, 75, 0
2, 91504, Note_on_c, 0, 74, 0
2, 91522, Control_c, 0, 64, 127
2, 91637, Note_on_c, 0, 48, 0
2, 91641, Note_on_c, 0, 48, 81
2, 91714, Note_on_c, 0, 62, 0
2, 91756, Note_on_c, 0, 87, 101
2, 91759, Note_on_c, 0, 75, 101
2, 91760, Note_on_c, 0, 48, 0
2, 91760, Note_on_c, 0, 56, 0
2, 91764, Note_on_c, 0, 48, 64
2, 91765, Note_on_c, 0, 56, 72
2, 91806, Note_on_c, 0, 36, 0
2, 92029, Note_on_c, 0, 48, 0
2, 92029, Note_on_c, 0, 56, 0
2, 92029, Note_on_c, 0, 63, 0
2, 92029, Note_on_c, 0, 75, 0
2, 92033, Note_on_c, 0, 84, 110
2, 92034, Note_on_c, 0, 63, 91
2, 92036, Note_on_c, 0, 72, 105
2, 92037, Note_on_c, 0, 51, 0
2, 92037, Note_on_c, 0, 75, 102
2, 92038, Note_on_c, 0, 56, 89
2, 92040, Note_on_c, 0, 48, 87
2, 92152, Note_on_c, 0, 48, 0
2, 92163, Note_on_c, 0, 48, 75
2, 92305, Note_on_c, 0, 48, 0
2, 92312, Note_on_c, 0, 48, 71
2, 92313, Note_on_c, 0, 44, 48
2, 92421, Note_on_c, 0, 48, 0
2, 92425, Note_on_c, 0, 48, 72
2, 92534, Control_c, 0, 64, 0
2, 92535, Note_on_c, 0, 87, 0
2, 92536, Note_on_c, 0, 60, 0
2, 92537, Note_on_c, 0, 75, 0
2, 92538, Note_on_c, 0, 84, 0
2, 92538, Note_on_c, 0, 72, 0
2, 92544, Note_on_c, 0, 68, 0
2, 92551, Note_on_c, 0, 44, 0
2, 92551, Note_on_c, 0, 48, 0
2, 92551, Note_on_c, 0, 56, 0
2, 92551, Note_on_c, 0, 63, 0
2, 92559, Note_on_c, 0, 48, 73
2, 92559, Note_on_c, 0, 63, 97
2, 92560, Note_on_c, 0, 56, 91
2, 92562, Note_on_c, 0, 68, 90
2, 92605, Control_c, 0, 64, 127
2, 92682, Note_on_c, 0, 48, 0
2, 92693, Note_on_c, 0, 48, 89
2, 92812, Note_on_c, 0, 56, 0
2, 92820, Note_on_c, 0, 65, 88
2, 92822, Note_on_c, 0, 56, 73
2, 92951, Note_on_c, 0, 48, 0
2, 92956, Note_on_c, 0, 48, 76
2, 93081, Note_on_c, 0, 48, 0
2, 93081, Note_on_c, 0, 56, 0
2, 93081, Note_on_c, 0, 68, 0
2, 93086, Note_on_c, 0, 60, 100
2, 93086, Note_on_c, 0, 48, 79
2, 93089, Note_on_c, 0, 56, 93
2, 93093, Note_on_c, 0, 68, 87
2, 93219, Note_on_c, 0, 48, 0
2, 93225, Note_on_c, 0, 48, 81
2, 93350, Note_on_c, 0, 48, 0
2, 93357, Note_on_c, 0, 48, 74
2, 93480, Note_on_c, 0, 48, 0
2, 93487, Note_on_c, 0, 48, 69
2, 93597, Control_c, 0, 64, 0
2, 93611, Note_on_c, 0, 48, 0
2, 93611, Note_on_c, 0, 56, 0
2, 93611, Note_on_c, 0, 63, 0
2, 93611, Note_on_c, 0, 68, 0
2, 93616, Note_on_c, 0, 63, 93
2, 93618, Note_on_c, 0, 56, 93
2, 93618, Note_on_c, 0, 68, 92
2, 93620, Note_on_c, 0, 48, 90
2, 93654, Note_on_c, 0, 65, 0
2, 93662, Note_on_c, 0, 60, 0
2, 93672, Control_c, 0, 64, 127
2, 93772, Note_on_c, 0, 48, 0
2, 93782, Note_on_c, 0, 48, 72
2, 93880, Note_on_c, 0, 48, 0
2, 93890, Note_on_c, 0, 48, 67
2, 93891, Note_on_c, 0, 62, 81
2, 94026, Note_on_c, 0, 48, 0
2, 94036, Note_on_c, 0, 48, 78
2, 94141, Note_on_c, 0, 63, 0
2, 94149, Note_on_c, 0, 56, 0
2, 94152, Note_on_c, 0, 63, 98
2, 94154, Note_on_c, 0, 56, 91
2, 94159, Control_c, 0, 64, 0
2, 94187, Control_c, 0, 64, 127
2, 94287, Note_on_c, 0, 48, 0
2, 94292, Note_on_c, 0, 48, 70
2, 94412, Note_on_c, 0, 65, 92
2, 94533, Note_on_c, 0, 48, 0
2, 94537, Note_on_c, 0, 48, 71
2, 94671, Note_on_c, 0, 56, 0
2, 94678, Note_on_c, 0, 67, 101
2, 94681, Note_on_c, 0, 56, 89
2, 94809, Note_on_c, 0, 48, 0
2, 94817, Note_on_c, 0, 48, 72
2, 94940, Note_on_c, 0, 65, 0
2, 94946, Note_on_c, 0, 65, 93
2, 95086, Note_on_c, 0, 48, 0
2, 95095, Note_on_c, 0, 48, 62
2, 95216, Note_on_c, 0, 48, 0
2, 95223, Note_on_c, 0, 60, 89
2, 95224, Note_on_c, 0, 56, 0
2, 95228, Note_on_c, 0, 48, 69
2, 95228, Note_on_c, 0, 56, 82
2, 95339, Note_on_c, 0, 48, 0
2, 95350, Note_on_c, 0, 48, 66
2, 95477, Note_on_c, 0, 48, 0
2, 95481, Note_on_c, 0, 48, 63
2, 95616, Note_on_c, 0, 48, 0
2, 95616, Note_on_c, 0, 60, 0
2, 95621, Note_on_c, 0, 48, 58
2, 95621, Note_on_c, 0, 60, 62
2, 95754, Note_on_c, 0, 62, 0
2, 95761, Note_on_c, 0, 63, 0
2, 95762, Note_on_c, 0, 56, 0
2, 95763, Note_on_c, 0, 65, 0
2, 95763, Note_on_c, 0, 67, 0
2, 95764, Note_on_c, 0, 60, 0
2, 95764, Control_c, 0, 64, 0
2, 95769, Note_on_c, 0, 48, 0
2, 95769, Note_on_c, 0, 68, 0
2, 95772, Note_on_c, 0, 63, 70
2, 95773, Note_on_c, 0, 55, 59
2, 95773, Note_on_c, 0, 48, 55
2, 95854, Control_c, 0, 64, 127
2, 96033, Note_on_c, 0, 62, 57
2, 96299, Note_on_c, 0, 63, 0
2, 96304, Note_on_c, 0, 63, 67
2, 96585, Note_on_c, 0, 72, 70
2, 96590, Note_on_c, 0, 60, 54
2, 96844, Note_on_c, 0, 63, 0
2, 96849, Note_on_c, 0, 63, 66
2, 96850, Note_on_c, 0, 74, 76
2, 96857, Control_c, 0, 64, 0
2, 96863, Note_on_c, 0, 60, 0
2, 96863, Note_on_c, 0, 62, 0
2, 96864, Note_on_c, 0, 72, 0
2, 96865, Note_on_c, 0, 48, 0
2, 96913, Control_c, 0, 64, 127
2, 97131, Note_on_c, 0, 75, 86
2, 97131, Note_on_c, 0, 62, 55
2, 97381, Control_c, 0, 64, 0
2, 97382, Note_on_c, 0, 63, 0
2, 97389, Note_on_c, 0, 63, 72
2, 97391, Note_on_c, 0, 74, 0
2, 97391, Note_on_c, 0, 62, 0
2, 97436, Control_c, 0, 64, 127
2, 97687, Note_on_c, 0, 80, 84
2, 97691, Note_on_c, 0, 60, 62
2, 97958, Note_on_c, 0, 63, 0
2, 97963, Control_c, 0, 64, 0
2, 97966, Note_on_c, 0, 55, 0
2, 97969, Note_on_c, 0, 63, 58
2, 97977, Note_on_c, 0, 55, 41
2, 97984, Note_on_c, 0, 48, 46
2, 98019, Control_c, 0, 64, 127
2, 98219, Note_on_c, 0, 75, 0
2, 98224, Note_on_c, 0, 75, 80
2, 98253, Note_on_c, 0, 62, 52
2, 98503, Note_on_c, 0, 63, 0
2, 98507, Control_c, 0, 64, 0
2, 98507, Note_on_c, 0, 74, 80
2, 98511, Note_on_c, 0, 63, 63
2, 98523, Note_on_c, 0, 62, 0
2, 98565, Note_on_c, 0, 80, 0
2, 98565, Control_c, 0, 64, 127
2, 98603, Note_on_c, 0, 48, 0
2, 98780, Note_on_c, 0, 60, 0
2, 98783, Note_on_c, 0, 72, 80
2, 98789, Note_on_c, 0, 60, 56
2, 99038, Control_c, 0, 64, 0
2, 99041, Note_on_c, 0, 63, 0
2, 99045, Note_on_c, 0, 63, 63
2, 99079, Control_c, 0, 64, 127
2, 99102, Note_on_c, 0, 55, 0
2, 99164, Note_on_c, 0, 75, 0
2, 99318, Note_on_c, 0, 62, 64
2, 99592, Control_c, 0, 64, 0
2, 99601, Note_on_c, 0, 63, 0
2, 99602, Note_on_c, 0, 62, 0
2, 99605, Note_on_c, 0, 72, 0
2, 99609, Note_on_c, 0, 63, 66
2, 99609, Note_on_c, 0, 60, 0
2, 99632, Control_c, 0, 64, 127
2, 99694, Note_on_c, 0, 74, 0
2, 99886, Note_on_c, 0, 70, 76
2, 99889, Note_on_c, 0, 60, 55
2, 100139, Note_on_c, 0, 70, 0
2, 100141, Control_c, 0, 64, 0
2, 100147, Note_on_c, 0, 63, 0
2, 100147, Note_on_c, 0, 70, 80
2, 100152, Note_on_c, 0, 63, 62
2, 100152, Note_on_c, 0, 60, 0
2, 100164, Note_on_c, 0, 56, 59
2, 100165, Note_on_c, 0, 48, 49
2, 100208, Control_c, 0, 64, 127
2, 100424, Note_on_c, 0, 72, 89
2, 100444, Note_on_c, 0, 62, 68
2, 100690, Control_c, 0, 64, 0
2, 100695, Note_on_c, 0, 70, 0
2, 100695, Note_on_c, 0, 62, 0
2, 100696, Note_on_c, 0, 75, 86
2, 100700, Note_on_c, 0, 56, 0
2, 100700, Note_on_c, 0, 63, 0
2, 100708, Note_on_c, 0, 63, 67
2, 100711, Note_on_c, 0, 56, 43
2, 100753, Control_c, 0, 64, 127
2, 100961, Note_on_c, 0, 74, 86
2, 100989, Note_on_c, 0, 60, 49
2, 101225, Control_c, 0, 64, 0
2, 101226, Note_on_c, 0, 74, 0
2, 101226, Note_on_c, 0, 75, 0
2, 101226, Note_on_c, 0, 60, 0
2, 101227, Note_on_c, 0, 56, 0
2, 101230, Note_on_c, 0, 48, 0
2, 101237, Note_on_c, 0, 72, 0
2, 101241, Note_on_c, 0, 72, 86
2, 101245, Note_on_c, 0, 63, 0
2, 101255, Note_on_c, 0, 63, 68
2, 101276, Control_c, 0, 64, 127
2, 101289, Note_on_c, 0, 60, 22
2, 101517, Note_on_c, 0, 62, 69
2, 101519, Note_on_c, 0, 70, 81
2, 101768, Control_c, 0, 64, 0
2, 101771, Note_on_c, 0, 62, 0
2, 101774, Note_on_c, 0, 72, 0
2, 101783, Note_on_c, 0, 63, 0
2, 101790, Note_on_c, 0, 63, 68
2, 101821, Control_c, 0, 64, 127
2, 102054, Note_on_c, 0, 72, 85
2, 102067, Note_on_c, 0, 60, 0
2, 102071, Note_on_c, 0, 60, 59
2, 102319, Control_c, 0, 64, 0
2, 102320, Note_on_c, 0, 63, 0
2, 102326, Note_on_c, 0, 70, 0
2, 102326, Note_on_c, 0, 72, 0
2, 102326, Note_on_c, 0, 60, 0
2, 102329, Note_on_c, 0, 63, 62
2, 102339, Note_on_c, 0, 56, 49
2, 102340, Note_on_c, 0, 48, 49
2, 102389, Control_c, 0, 64, 127
2, 102610, Note_on_c, 0, 62, 58
2, 102878, Control_c, 0, 64, 0
2, 102885, Note_on_c, 0, 56, 0
2, 102885, Note_on_c, 0, 62, 0
2, 102888, Note_on_c, 0, 48, 0
2, 102888, Note_on_c, 0, 63, 0
2, 102893, Note_on_c, 0, 63, 62
2, 102895, Note_on_c, 0, 48, 31
2, 102935, Control_c, 0, 64, 127
2, 103162, Note_on_c, 0, 60, 62
2, 103409, Control_c, 0, 64, 0
2, 103426, Note_on_c, 0, 63, 0
2, 103434, Note_on_c, 0, 63, 64
2, 103441, Control_c, 0, 64, 127
2, 103713, Note_on_c, 0, 62, 64
2, 103720, Note_on_c, 0, 67, 68
2, 103951, Control_c, 0, 64, 0
2, 103971, Note_on_c, 0, 63, 0
2, 103971, Note_on_c, 0, 67, 0
2, 103976, Note_on_c, 0, 67, 87
2, 103979, Note_on_c, 0, 63, 62
2, 103988, Note_on_c, 0, 62, 0
2, 104010, Control_c, 0, 64, 127
2, 104217, Note_on_c, 0, 60, 0
2, 104228, Note_on_c, 0, 60, 67
2, 104252, Note_on_c, 0, 70, 92
2, 104466, Control_c, 0, 64, 0
2, 104467, Note_on_c, 0, 67, 0
2, 104468, Note_on_c, 0, 70, 0
2, 104469, Note_on_c, 0, 60, 0
2, 104471, Note_on_c, 0, 48, 0
2, 104478, Note_on_c, 0, 63, 0
2, 104511, Note_on_c, 0, 77, 96
2, 104520, Note_on_c, 0, 70, 90
2, 104528, Note_on_c, 0, 48, 66
2, 104532, Control_c, 0, 64, 127
2, 104609, Note_on_c, 0, 70, 0
2, 104658, Note_on_c, 0, 55, 35
2, 104769, Note_on_c, 0, 36, 49
2, 104797, Note_on_c, 0, 84, 69
2, 104931, Note_on_c, 0, 82, 74
2, 104947, Note_on_c, 0, 48, 0
2, 104957, Note_on_c, 0, 60, 33
2, 104958, Note_on_c, 0, 48, 39
2, 105054, Note_on_c, 0, 55, 0
2, 105063, Note_on_c, 0, 79, 70
2, 105065, Note_on_c, 0, 55, 59
2, 105093, Note_on_c, 0, 48, 0
2, 105103, Note_on_c, 0, 48, 38
2, 105162, Note_on_c, 0, 48, 0
2, 105173, Note_on_c, 0, 48, 55
2, 105185, Note_on_c, 0, 82, 0
2, 105195, Note_on_c, 0, 82, 80
2, 105338, Note_on_c, 0, 77, 0
2, 105346, Note_on_c, 0, 60, 0
2, 105347, Note_on_c, 0, 77, 66
2, 105350, Note_on_c, 0, 60, 63
2, 105454, Note_on_c, 0, 48, 0
2, 105464, Note_on_c, 0, 48, 57
2, 105477, Note_on_c, 0, 79, 0
2, 105487, Note_on_c, 0, 79, 64
2, 105607, Note_on_c, 0, 48, 0
2, 105613, Note_on_c, 0, 48, 62
2, 105622, Note_on_c, 0, 72, 76
2, 105745, Note_on_c, 0, 55, 0
2, 105745, Note_on_c, 0, 77, 0
2, 105752, Note_on_c, 0, 77, 71
2, 105757, Note_on_c, 0, 55, 49
2, 105876, Note_on_c, 0, 36, 0
2, 105882, Note_on_c, 0, 36, 55
2, 105884, Note_on_c, 0, 84, 0
2, 105891, Note_on_c, 0, 84, 72
2, 106014, Note_on_c, 0, 82, 0
2, 106022, Note_on_c, 0, 60, 0
2, 106023, Note_on_c, 0, 82, 74
2, 106031, Note_on_c, 0, 60, 42
2, 106037, Note_on_c, 0, 70, 46
2, 106152, Note_on_c, 0, 55, 0
2, 106152, Note_on_c, 0, 79, 0
2, 106157, Note_on_c, 0, 79, 71
2, 106159, Note_on_c, 0, 55, 62
2, 106275, Note_on_c, 0, 82, 0
2, 106279, Note_on_c, 0, 82, 80
2, 106291, Note_on_c, 0, 48, 0
2, 106291, Note_on_c, 0, 60, 0
2, 106298, Note_on_c, 0, 48, 51
2, 106300, Note_on_c, 0, 60, 52
2, 106414, Note_on_c, 0, 72, 0
2, 106421, Note_on_c, 0, 77, 0
2, 106424, Note_on_c, 0, 72, 60
2, 106425, Note_on_c, 0, 77, 68
2, 106429, Note_on_c, 0, 48, 0
2, 106429, Note_on_c, 0, 60, 0
2, 106435, Note_on_c, 0, 48, 49
2, 106435, Note_on_c, 0, 60, 56
2, 106536, Note_on_c, 0, 48, 0
2, 106541, Note_on_c, 0, 48, 60
2, 106552, Note_on_c, 0, 79, 0
2, 106558, Note_on_c, 0, 79, 59
2, 106667, Note_on_c, 0, 48, 0
2, 106675, Note_on_c, 0, 72, 0
2, 106677, Note_on_c, 0, 48, 67
2, 106686, Note_on_c, 0, 72, 73
2, 106813, Note_on_c, 0, 77, 0
2, 106821, Note_on_c, 0, 55, 0
2, 106824, Note_on_c, 0, 77, 74
2, 106825, Note_on_c, 0, 55, 57
2, 106944, Note_on_c, 0, 79, 0
2, 106944, Note_on_c, 0, 84, 0
2, 106951, Note_on_c, 0, 48, 0
2, 106954, Note_on_c, 0, 79, 58
2, 106955, Note_on_c, 0, 84, 79
2, 106958, Note_on_c, 0, 48, 55
2, 107082, Note_on_c, 0, 82, 0
2, 107089, Note_on_c, 0, 82, 73
2, 107089, Note_on_c, 0, 48, 0
2, 107100, Note_on_c, 0, 48, 46
2, 107189, Note_on_c, 0, 55, 0
2, 107194, Note_on_c, 0, 55, 56
2, 107235, Note_on_c, 0, 79, 0
2, 107243, Note_on_c, 0, 48, 0
2, 107246, Note_on_c, 0, 79, 61
2, 107248, Note_on_c, 0, 48, 50
2, 107328, Note_on_c, 0, 48, 0
2, 107338, Note_on_c, 0, 48, 54
2, 107374, Note_on_c, 0, 82, 0
2, 107378, Note_on_c, 0, 82, 66
2, 107458, Note_on_c, 0, 70, 0
2, 107469, Note_on_c, 0, 70, 87
2, 107473, Note_on_c, 0, 77, 0
2, 107480, Note_on_c, 0, 77, 75
2, 107481, Note_on_c, 0, 60, 0
2, 107486, Note_on_c, 0, 60, 76
2, 107604, Note_on_c, 0, 48, 0
2, 107604, Note_on_c, 0, 79, 0
2, 107608, Note_on_c, 0, 48, 61
2, 107609, Note_on_c, 0, 79, 78
2, 107678, Note_on_c, 0, 48, 0
2, 107678, Control_c, 0, 64, 0
2, 107678, Note_on_c, 0, 82, 0
2, 107678, Note_on_c, 0, 72, 0
2, 107679, Note_on_c, 0, 60, 0
2, 107679, Note_on_c, 0, 55, 0
2, 107679, Note_on_c, 0, 77, 0
2, 107679, Note_on_c, 0, 70, 0
2, 107688, Note_on_c, 0, 36, 0
2, 107696, Note_on_c, 0, 84, 0
2, 107730, Note_on_c, 0, 70, 93
2, 107735, Control_c, 0, 64, 127
2, 107738, Note_on_c, 0, 48, 74
2, 107863, Note_on_c, 0, 77, 74
2, 107868, Note_on_c, 0, 55, 73
2, 107994, Note_on_c, 0, 84, 98
2, 107999, Note_on_c, 0, 36, 70
2, 108006, Note_on_c, 0, 72, 88
2, 108124, Note_on_c, 0, 82, 89
2, 108126, Note_on_c, 0, 55, 0
2, 108133, Note_on_c, 0, 55, 57
2, 108136, Note_on_c, 0, 43, 54
2, 108142, Note_on_c, 0, 43, 0
2, 108249, Note_on_c, 0, 79, 0
2, 108253, Note_on_c, 0, 75, 95
2, 108253, Note_on_c, 0, 79, 85
2, 108257, Note_on_c, 0, 55, 0
2, 108264, Note_on_c, 0, 55, 70
2, 108272, Note_on_c, 0, 48, 0
2, 108277, Note_on_c, 0, 48, 59
2, 108357, Note_on_c, 0, 82, 0
2, 108368, Note_on_c, 0, 82, 84
2, 108387, Note_on_c, 0, 36, 0
2, 108387, Note_on_c, 0, 48, 0
2, 108397, Note_on_c, 0, 36, 62
2, 108398, Note_on_c, 0, 48, 66
2, 108510, Note_on_c, 0, 77, 0
2, 108511, Note_on_c, 0, 74, 95
2, 108516, Note_on_c, 0, 77, 88
2, 108533, Note_on_c, 0, 55, 0
2, 108541, Note_on_c, 0, 48, 0
2, 108541, Note_on_c, 0, 60, 69
2, 108544, Note_on_c, 0, 55, 57
2, 108550, Note_on_c, 0, 48, 64
2, 108648, Note_on_c, 0, 55, 0
2, 108648, Note_on_c, 0, 79, 0
2, 108655, Note_on_c, 0, 79, 84
2, 108660, Note_on_c, 0, 55, 42
2, 108763, Note_on_c, 0, 74, 0
2, 108763, Note_on_c, 0, 82, 0
2, 108764, Note_on_c, 0, 70, 0
2, 108764, Note_on_c, 0, 72, 0
2, 108764, Note_on_c, 0, 60, 0
2, 108765, Note_on_c, 0, 84, 0
2, 108765, Note_on_c, 0, 55, 0
2, 108765, Note_on_c, 0, 77, 0
2, 108766, Control_c, 0, 64, 0
2, 108766, Note_on_c, 0, 79, 0
2, 108771, Note_on_c, 0, 36, 0
2, 108779, Note_on_c, 0, 75, 0
2, 108783, Note_on_c, 0, 75, 96
2, 108794, Note_on_c, 0, 48, 0
2, 108805, Note_on_c, 0, 48, 71
2, 108833, Control_c, 0, 64, 127
2, 108910, Note_on_c, 0, 80, 82
2, 108935, Note_on_c, 0, 56, 62
2, 109050, Note_on_c, 0, 87, 83
2, 109057, Note_on_c, 0, 36, 57
2, 109191, Note_on_c, 0, 86, 75
2, 109201, Note_on_c, 0, 48, 0
2, 109211, Note_on_c, 0, 48, 42
2, 109316, Note_on_c, 0, 82, 74
2, 109332, Note_on_c, 0, 56, 0
2, 109337, Note_on_c, 0, 56, 60
2, 109346, Note_on_c, 0, 68, 57
2, 109355, Note_on_c, 0, 68, 0
2, 109432, Note_on_c, 0, 84, 79
2, 109434, Note_on_c, 0, 60, 53
2, 109478, Note_on_c, 0, 48, 0
2, 109482, Note_on_c, 0, 48, 53
2, 109573, Note_on_c, 0, 72, 93
2, 109585, Note_on_c, 0, 80, 0
2, 109591, Note_on_c, 0, 80, 71
2, 109593, Note_on_c, 0, 60, 0
2, 109603, Note_on_c, 0, 60, 72
2, 109616, Note_on_c, 0, 48, 0
2, 109623, Note_on_c, 0, 48, 51
2, 109724, Note_on_c, 0, 82, 0
2, 109731, Note_on_c, 0, 48, 0
2, 109733, Note_on_c, 0, 82, 77
2, 109736, Note_on_c, 0, 48, 61
2, 109854, Note_on_c, 0, 48, 0
2, 109854, Note_on_c, 0, 75, 0
2, 109859, Note_on_c, 0, 75, 79
2, 109859, Note_on_c, 0, 48, 73
2, 109985, Note_on_c, 0, 56, 0
2, 109985, Note_on_c, 0, 80, 0
2, 109990, Note_on_c, 0, 80, 81
2, 109996, Note_on_c, 0, 56, 67
2, 110000, Note_on_c, 0, 48, 0
2, 110010, Note_on_c, 0, 48, 55
2, 110115, Note_on_c, 0, 36, 0
2, 110115, Note_on_c, 0, 87, 0
2, 110121, Note_on_c, 0, 36, 59
2, 110126, Note_on_c, 0, 87, 70
2, 110261, Note_on_c, 0, 86, 0
2, 110272, Note_on_c, 0, 86, 63
2, 110277, Note_on_c, 0, 48, 0
2, 110288, Note_on_c, 0, 48, 43
2, 110384, Note_on_c, 0, 82, 0
2, 110392, Note_on_c, 0, 82, 80
2, 110400, Note_on_c, 0, 56, 0
2, 110406, Note_on_c, 0, 56, 69
2, 110522, Note_on_c, 0, 60, 0
2, 110522, Note_on_c, 0, 84, 0
2, 110528, Note_on_c, 0, 84, 71
2, 110532, Note_on_c, 0, 60, 60
2, 110538, Note_on_c, 0, 48, 0
2, 110547, Note_on_c, 0, 48, 54
2, 110661, Note_on_c, 0, 80, 0
2, 110668, Note_on_c, 0, 60, 0
2, 110672, Note_on_c, 0, 80, 80
2, 110676, Note_on_c, 0, 60, 70
2, 110791, Note_on_c, 0, 48, 0
2, 110799, Note_on_c, 0, 82, 0
2, 110799, Note_on_c, 0, 48, 65
2, 110807, Note_on_c, 0, 82, 74
2, 110922, Note_on_c, 0, 48, 0
2, 110922, Note_on_c, 0, 75, 0
2, 110929, Note_on_c, 0, 75, 72
2, 110933, Note_on_c, 0, 48, 61
2, 111052, Note_on_c, 0, 56, 0
2, 111052, Note_on_c, 0, 80, 0
2, 111057, Note_on_c, 0, 56, 66
2, 111057, Note_on_c, 0, 80, 75
2, 111175, Note_on_c, 0, 36, 0
2, 111175, Note_on_c, 0, 87, 0
2, 111180, Note_on_c, 0, 36, 57
2, 111183, Note_on_c, 0, 87, 76
2, 111306, Note_on_c, 0, 86, 0
2, 111310, Note_on_c, 0, 86, 77
2, 111429, Note_on_c, 0, 82, 0
2, 111433, Note_on_c, 0, 82, 77
2, 111444, Note_on_c, 0, 56, 0
2, 111448, Note_on_c, 0, 56, 72
2, 111559, Note_on_c, 0, 84, 0
2, 111567, Note_on_c, 0, 48, 0
2, 111568, Note_on_c, 0, 84, 74
2, 111577, Note_on_c, 0, 48, 65
2, 111690, Note_on_c, 0, 80, 0
2, 111701, Note_on_c, 0, 80, 72
2, 111713, Note_on_c, 0, 56, 0
2, 111713, Note_on_c, 0, 60, 0
2, 111718, Note_on_c, 0, 56, 59
2, 111719, Note_on_c, 0, 60, 61
2, 111828, Note_on_c, 0, 82, 0
2, 111835, Note_on_c, 0, 82, 72
2, 111836, Note_on_c, 0, 48, 0
2, 111836, Note_on_c, 0, 56, 0
2, 111836, Note_on_c, 0, 60, 0
2, 111845, Note_on_c, 0, 48, 66
2, 111846, Note_on_c, 0, 60, 61
2, 111846, Note_on_c, 0, 56, 58
2, 111974, Note_on_c, 0, 75, 0
2, 111983, Note_on_c, 0, 75, 65
2, 112112, Note_on_c, 0, 80, 0
2, 112121, Note_on_c, 0, 80, 67
2, 112258, Note_on_c, 0, 87, 0
2, 112263, Note_on_c, 0, 87, 72
2, 112382, Note_on_c, 0, 92, 70
2, 112534, Note_on_c, 0, 99, 94
2, 113111, Note_on_c, 0, 87, 0
2, 113118, Note_on_c, 0, 82, 0
2, 113122, Note_on_c, 0, 87, 93
2, 113122, Control_c, 0, 64, 0
2, 113122, Note_on_c, 0, 82, 85
2, 113126, Note_on_c, 0, 75, 0
2, 113129, Note_on_c, 0, 99, 0
2, 113129, Note_on_c, 0, 86, 0
2, 113129, Note_on_c, 0, 92, 0
2, 113130, Note_on_c, 0, 56, 0
2, 113130, Note_on_c, 0, 80, 0
2, 113130, Note_on_c, 0, 84, 0
2, 113131, Note_on_c, 0, 48, 0
2, 113132, Note_on_c, 0, 36, 0
2, 113134, Note_on_c, 0, 60, 0
2, 113137, Note_on_c, 0, 75, 78
2, 113138, Note_on_c, 0, 67, 60
2, 113144, Note_on_c, 0, 60, 63
2, 113149, Note_on_c, 0, 72, 0
2, 113241, Control_c, 0, 64, 127
2, 113406, Note_on_c, 0, 89, 88
2, 113410, Note_on_c, 0, 77, 67
2, 113678, Note_on_c, 0, 94, 94
2, 113679, Note_on_c, 0, 82, 0
2, 113679, Note_on_c, 0, 87, 0
2, 113690, Note_on_c, 0, 82, 74
2, 113690, Note_on_c, 0, 87, 81
2, 114242, Note_on_c, 0, 91, 90
2, 114247, Note_on_c, 0, 87, 0
2, 114251, Note_on_c, 0, 79, 67
2, 114255, Note_on_c, 0, 87, 80
2, 114808, Note_on_c, 0, 89, 0
2, 114816, Note_on_c, 0, 77, 0
2, 114816, Note_on_c, 0, 82, 0
2, 114818, Note_on_c, 0, 89, 81
2, 114820, Note_on_c, 0, 82, 76
2, 114823, Note_on_c, 0, 77, 69
2, 115084, Note_on_c, 0, 87, 0
2, 115089, Note_on_c, 0, 87, 81
2, 115092, Note_on_c, 0, 75, 0
2, 115094, Note_on_c, 0, 59, 41
2, 115096, Note_on_c, 0, 75, 67
2, 115100, Note_on_c, 0, 59, 0
2, 115338, Note_on_c, 0, 94, 0
2, 115340, Control_c, 0, 64, 0
2, 115340, Note_on_c, 0, 82, 0
2, 115340, Note_on_c, 0, 67, 0
2, 115341, Note_on_c, 0, 87, 0
2, 115341, Note_on_c, 0, 60, 0
2, 115341, Note_on_c, 0, 79, 0
2, 115342, Note_on_c, 0, 75, 0
2, 115342, Note_on_c, 0, 77, 0
2, 115353, Note_on_c, 0, 91, 0
2, 115361, Note_on_c, 0, 89, 0
2, 115376, Note_on_c, 0, 63, 64
2, 115377, Note_on_c, 0, 56, 64
2, 115379, Note_on_c, 0, 68, 65
2, 115415, Control_c, 0, 64, 127
2, 115664, Note_on_c, 0, 84, 81
2, 115667, Note_on_c, 0, 75, 74
2, 115671, Note_on_c, 0, 72, 64
2, 115943, Note_on_c, 0, 94, 96
2, 115948, Note_on_c, 0, 82, 79
2, 115948, Note_on_c, 0, 87, 83
2, 116497, Note_on_c, 0, 87, 0
2, 116501, Note_on_c, 0, 91, 87
2, 116507, Note_on_c, 0, 79, 79
2, 116508, Note_on_c, 0, 87, 83
2, 117081, Note_on_c, 0, 82, 0
2, 117085, Note_on_c, 0, 89, 86
2, 117086, Note_on_c, 0, 77, 82
2, 117091, Note_on_c, 0, 82, 76
2, 117135, Note_on_c, 0, 68, 0
2, 117350, Note_on_c, 0, 75, 0
2, 117350, Note_on_c, 0, 87, 0
2, 117354, Note_on_c, 0, 87, 83
2, 117361, Note_on_c, 0, 75, 71
2, 117612, Control_c, 0, 64, 0
2, 117613, Note_on_c, 0, 94, 0
2, 117614, Note_on_c, 0, 75, 0
2, 117614, Note_on_c, 0, 82, 0
2, 117614, Note_on_c, 0, 91, 0
2, 117615, Note_on_c, 0, 72, 0
2, 117615, Note_on_c, 0, 79, 0
2, 117615, Note_on_c, 0, 89, 0
2, 117615, Note_on_c, 0, 63, 0
2, 117615, Note_on_c, 0, 84, 0
2, 117615, Note_on_c, 0, 77, 0
2, 117619, Note_on_c, 0, 56, 0
2, 117634, Note_on_c, 0, 87, 0
2, 117643, Note_on_c, 0, 87, 86
2, 117648, Note_on_c, 0, 75, 79
2, 117651, Note_on_c, 0, 80, 75
2, 117654, Note_on_c, 0, 53, 65
2, 117680, Control_c, 0, 64, 127
2, 117777, Note_on_c, 0, 86, 87
2, 117779, Note_on_c, 0, 74, 80
2, 118195, Note_on_c, 0, 86, 0
2, 118202, Note_on_c, 0, 86, 90
2, 118202, Note_on_c, 0, 74, 0
2, 118202, Note_on_c, 0, 80, 0
2, 118214, Note_on_c, 0, 80, 76
2, 118214, Note_on_c, 0, 74, 74
2, 118221, Note_on_c, 0, 72, 67
2, 118223, Note_on_c, 0, 60, 63
2, 118225, Note_on_c, 0, 72, 0
2, 118346, Note_on_c, 0, 84, 78
2, 118353, Note_on_c, 0, 72, 67
2, 118748, Note_on_c, 0, 72, 0
2, 118748, Note_on_c, 0, 84, 0
2, 118752, Note_on_c, 0, 84, 84
2, 118753, Note_on_c, 0, 63, 64
2, 118755, Note_on_c, 0, 80, 0
2, 118757, Note_on_c, 0, 75, 0
2, 118759, Note_on_c, 0, 72, 78
2, 118761, Note_on_c, 0, 80, 70
2, 118889, Note_on_c, 0, 82, 83
2, 118909, Note_on_c, 0, 70, 60
2, 119293, Note_on_c, 0, 80, 0
2, 119293, Note_on_c, 0, 84, 0
2, 119297, Note_on_c, 0, 84, 87
2, 119301, Note_on_c, 0, 72, 0
2, 119303, Note_on_c, 0, 80, 78
2, 119306, Note_on_c, 0, 72, 74
2, 119306, Note_on_c, 0, 68, 75
2, 119575, Note_on_c, 0, 91, 85
2, 119582, Note_on_c, 0, 79, 75
2, 119715, Note_on_c, 0, 82, 0
2, 119721, Note_on_c, 0, 89, 94
2, 119727, Note_on_c, 0, 82, 86
2, 119727, Note_on_c, 0, 77, 80
2, 119832, Note_on_c, 0, 68, 0
2, 119833, Note_on_c, 0, 80, 0
2, 119833, Note_on_c, 0, 79, 0
2, 119833, Note_on_c, 0, 72, 0
2, 119833, Note_on_c, 0, 84, 0
2, 119833, Note_on_c, 0, 86, 0
2, 119833, Note_on_c, 0, 60, 0
2, 119833, Note_on_c, 0, 53, 0
2, 119834, Note_on_c, 0, 87, 0
2, 119834, Note_on_c, 0, 63, 0
2, 119834, Note_on_c, 0, 70, 0
2, 119835, Control_c, 0, 64, 0
2, 119837, Note_on_c, 0, 91, 0
2, 119846, Note_on_c, 0, 74, 0
2, 119860, Note_on_c, 0, 46, 71
2, 119946, Control_c, 0, 64, 127
2, 120423, Note_on_c, 0, 53, 63
2, 120683, Note_on_c, 0, 72, 75
2, 120955, Note_on_c, 0, 70, 79
2, 120955, Note_on_c, 0, 58, 71
2, 121221, Note_on_c, 0, 72, 0
2, 121225, Note_on_c, 0, 72, 88
2, 121492, Note_on_c, 0, 79, 93
2, 121496, Note_on_c, 0, 74, 72
2, 121499, Note_on_c, 0, 62, 74
2, 121758, Note_on_c, 0, 72, 0
2, 121770, Note_on_c, 0, 72, 81
2, 122002, Control_c, 0, 64, 0
2, 122004, Note_on_c, 0, 53, 0
2, 122005, Note_on_c, 0, 70, 0
2, 122005, Note_on_c, 0, 46, 0
2, 122005, Note_on_c, 0, 58, 0
2, 122006, Note_on_c, 0, 62, 0
2, 122006, Note_on_c, 0, 79, 0
2, 122007, Note_on_c, 0, 77, 0
2, 122012, Note_on_c, 0, 74, 0
2, 122012, Note_on_c, 0, 89, 0
2, 122019, Note_on_c, 0, 72, 0
2, 122035, Note_on_c, 0, 82, 0
2, 122038, Note_on_c, 0, 87, 90
2, 122040, Note_on_c, 0, 82, 87
2, 122042, Note_on_c, 0, 75, 89
2, 122043, Note_on_c, 0, 48, 70
2, 122073, Control_c, 0, 64, 127
2, 122178, Note_on_c, 0, 55, 67
2, 122299, Note_on_c, 0, 89, 99
2, 122308, Note_on_c, 0, 77, 80
2, 122320, Note_on_c, 0, 58, 77
2, 122436, Note_on_c, 0, 60, 74
2, 122565, Note_on_c, 0, 87, 0
2, 122572, Note_on_c, 0, 82, 0
2, 122575, Note_on_c, 0, 94, 99
2, 122576, Note_on_c, 0, 87, 86
2, 122576, Note_on_c, 0, 82, 81
2, 122577, Note_on_c, 0, 63, 67
2, 122703, Note_on_c, 0, 60, 0
2, 122712, Note_on_c, 0, 60, 67
2, 122846, Note_on_c, 0, 62, 68
2, 122979, Note_on_c, 0, 63, 0
2, 122983, Note_on_c, 0, 63, 71
2, 123102, Note_on_c, 0, 87, 0
2, 123106, Note_on_c, 0, 91, 99
2, 123107, Note_on_c, 0, 79, 92
2, 123111, Note_on_c, 0, 87, 92
2, 123114, Note_on_c, 0, 67, 77
2, 123248, Note_on_c, 0, 60, 0
2, 123258, Note_on_c, 0, 60, 70
2, 123371, Note_on_c, 0, 62, 0
2, 123379, Note_on_c, 0, 62, 65
2, 123494, Note_on_c, 0, 63, 0
2, 123498, Note_on_c, 0, 63, 73
2, 123624, Note_on_c, 0, 82, 0
2, 123624, Note_on_c, 0, 89, 0
2, 123632, Note_on_c, 0, 77, 0
2, 123635, Note_on_c, 0, 89, 92
2, 123636, Note_on_c, 0, 82, 85
2, 123637, Note_on_c, 0, 70, 84
2, 123638, Note_on_c, 0, 77, 84
2, 123763, Note_on_c, 0, 67, 0
2, 123768, Note_on_c, 0, 67, 63
2, 123901, Note_on_c, 0, 63, 0
2, 123901, Note_on_c, 0, 75, 0
2, 123901, Note_on_c, 0, 82, 0
2, 123901, Note_on_c, 0, 87, 0
2, 123905, Note_on_c, 0, 87, 84
2, 123906, Note_on_c, 0, 63, 60
2, 123910, Note_on_c, 0, 75, 78
2, 123911, Note_on_c, 0, 82, 63
2, 124024, Note_on_c, 0, 60, 0
2, 124034, Note_on_c, 0, 60, 65
2, 124167, Note_on_c, 0, 46, 77
2, 124174, Note_on_c, 0, 62, 0
2, 124174, Note_on_c, 0, 94, 0
2, 124174, Note_on_c, 0, 67, 0
2, 124174, Note_on_c, 0, 82, 0
2, 124174, Note_on_c, 0, 55, 0
2, 124174, Note_on_c, 0, 87, 0
2, 124174, Note_on_c, 0, 63, 0
2, 124174, Note_on_c, 0, 70, 0
2, 124174, Note_on_c, 0, 75, 0
2, 124175, Note_on_c, 0, 60, 0
2, 124175, Note_on_c, 0, 58, 0
2, 124175, Note_on_c, 0, 79, 0
2, 124175, Note_on_c, 0, 77, 0
2, 124175, Control_c, 0, 64, 0
2, 124177, Note_on_c, 0, 48, 0
2, 124200, Note_on_c, 0, 91, 0
2, 124231, Control_c, 0, 64, 127
2, 124303, Note_on_c, 0, 53, 72
2, 124433, Note_on_c, 0, 84, 88
2, 124438, Note_on_c, 0, 72, 74
2, 124459, Note_on_c, 0, 58, 68
2, 124572, Note_on_c, 0, 60, 66
2, 124695, Note_on_c, 0, 94, 98
2, 124696, Note_on_c, 0, 87, 88
2, 124696, Note_on_c, 0, 82, 85
2, 124700, Note_on_c, 0, 60, 0
2, 124704, Note_on_c, 0, 63, 68
2, 124706, Note_on_c, 0, 60, 57
2, 124823, Note_on_c, 0, 58, 0
2, 124834, Note_on_c, 0, 58, 77
2, 124961, Note_on_c, 0, 63, 0
2, 124966, Note_on_c, 0, 63, 68
2, 125088, Note_on_c, 0, 65, 68
2, 125232, Note_on_c, 0, 67, 69
2, 125237, Note_on_c, 0, 87, 0
2, 125239, Note_on_c, 0, 91, 94
2, 125246, Note_on_c, 0, 79, 79
2, 125246, Note_on_c, 0, 87, 89
2, 125360, Note_on_c, 0, 58, 0
2, 125367, Note_on_c, 0, 58, 70
2, 125483, Note_on_c, 0, 63, 0
2, 125490, Note_on_c, 0, 63, 65
2, 125606, Note_on_c, 0, 65, 0
2, 125610, Note_on_c, 0, 65, 71
2, 125729, Note_on_c, 0, 89, 0
2, 125760, Note_on_c, 0, 58, 0
2, 125760, Note_on_c, 0, 82, 0
2, 125763, Note_on_c, 0, 70, 86
2, 125763, Note_on_c, 0, 89, 94
2, 125764, Note_on_c, 0, 82, 89
2, 125767, Note_on_c, 0, 77, 86
2, 125769, Note_on_c, 0, 58, 68
2, 125882, Note_on_c, 0, 67, 0
2, 125887, Note_on_c, 0, 67, 67
2, 126013, Note_on_c, 0, 63, 0
2, 126019, Note_on_c, 0, 63, 60
2, 126028, Note_on_c, 0, 87, 0
2, 126037, Note_on_c, 0, 75, 79
2, 126037, Note_on_c, 0, 87, 85
2, 126151, Note_on_c, 0, 58, 0
2, 126156, Note_on_c, 0, 58, 70
2, 126296, Control_c, 0, 64, 0
2, 126296, Note_on_c, 0, 94, 0
2, 126297, Note_on_c, 0, 63, 0
2, 126298, Note_on_c, 0, 65, 0
2, 126298, Note_on_c, 0, 75, 0
2, 126298, Note_on_c, 0, 82, 0
2, 126298, Note_on_c, 0, 53, 0
2, 126298, Note_on_c, 0, 60, 0
2, 126298, Note_on_c, 0, 58, 0
2, 126298, Note_on_c, 0, 79, 0
2, 126299, Note_on_c, 0, 67, 0
2, 126299, Note_on_c, 0, 91, 0
2, 126299, Note_on_c, 0, 70, 0
2, 126299, Note_on_c, 0, 89, 0
2, 126305, Note_on_c, 0, 46, 0
2, 126305, Note_on_c, 0, 84, 0
2, 126306, Note_on_c, 0, 45, 69
2, 126309, Note_on_c, 0, 84, 94
2, 126312, Note_on_c, 0, 72, 0
2, 126320, Note_on_c, 0, 77, 0
2, 126320, Note_on_c, 0, 87, 0
2, 126323, Note_on_c, 0, 72, 85
2, 126324, Note_on_c, 0, 77, 78
2, 126374, Control_c, 0, 64, 127
2, 126447, Note_on_c, 0, 53, 66
2, 126558, Note_on_c, 0, 45, 0
2, 126569, Note_on_c, 0, 45, 57
2, 126584, Note_on_c, 0, 82, 91
2, 126601, Note_on_c, 0, 70, 67
2, 126696, Note_on_c, 0, 53, 0
2, 126706, Note_on_c, 0, 53, 67
2, 126846, Note_on_c, 0, 57, 72
2, 126850, Note_on_c, 0, 84, 0
2, 126860, Note_on_c, 0, 84, 91
2, 126865, Note_on_c, 0, 72, 0
2, 126865, Note_on_c, 0, 77, 0
2, 126870, Note_on_c, 0, 77, 77
2, 126871, Note_on_c, 0, 72, 82
2, 126958, Note_on_c, 0, 53, 0
2, 126967, Note_on_c, 0, 53, 64
2, 127111, Note_on_c, 0, 57, 0
2, 127111, Note_on_c, 0, 82, 0
2, 127118, Note_on_c, 0, 57, 72
2, 127122, Note_on_c, 0, 82, 93
2, 127134, Note_on_c, 0, 70, 0
2, 127140, Note_on_c, 0, 70, 66
2, 127252, Note_on_c, 0, 60, 65
2, 127380, Note_on_c, 0, 84, 0
2, 127391, Note_on_c, 0, 84, 96
2, 127392, Note_on_c, 0, 65, 68
2, 127395, Note_on_c, 0, 72, 0
2, 127395, Note_on_c, 0, 77, 0
2, 127399, Note_on_c, 0, 72, 78
2, 127400, Note_on_c, 0, 77, 74
2, 127526, Note_on_c, 0, 60, 0
2, 127534, Note_on_c, 0, 60, 73
2, 127656, Note_on_c, 0, 65, 0
2, 127657, Note_on_c, 0, 91, 90
2, 127663, Note_on_c, 0, 79, 76
2, 127664, Control_c, 0, 64, 0
2, 127665, Note_on_c, 0, 65, 67
2, 127680, Control_c, 0, 64, 127
2, 127788, Note_on_c, 0, 67, 68
2, 127918, Note_on_c, 0, 84, 0
2, 127925, Note_on_c, 0, 72, 0
2, 127925, Note_on_c, 0, 77, 0
2, 127928, Note_on_c, 0, 84, 93
2, 127930, Note_on_c, 0, 77, 79
2, 127930, Note_on_c, 0, 69, 73
2, 127932, Note_on_c, 0, 72, 78
2, 128064, Note_on_c, 0, 65, 0
2, 128073, Note_on_c, 0, 65, 56
2, 128179, Note_on_c, 0, 60, 0
2, 128187, Note_on_c, 0, 60, 73
2, 128309, Note_on_c, 0, 53, 0
2, 128313, Note_on_c, 0, 53, 73
2, 128414, Note_on_c, 0, 53, 0
2, 128414, Note_on_c, 0, 82, 0
2, 128414, Note_on_c, 0, 57, 0
2, 128414, Note_on_c, 0, 65, 0
2, 128414, Note_on_c, 0, 70, 0
2, 128414, Control_c, 0, 64, 0
2, 128415, Note_on_c, 0, 67, 0
2, 128415, Note_on_c, 0, 60, 0
2, 128415, Note_on_c, 0, 77, 0
2, 128415, Note_on_c, 0, 72, 0
2, 128415, Note_on_c, 0, 69, 0
2, 128415, Note_on_c, 0, 79, 0
2, 128415, Note_on_c, 0, 84, 0
2, 128416, Note_on_c, 0, 91, 0
2, 128432, Note_on_c, 0, 45, 0
2, 128452, Note_on_c, 0, 87, 95
2, 128460, Note_on_c, 0, 44, 76
2, 128460, Note_on_c, 0, 75, 88
2, 128460, Note_on_c, 0, 80, 88
2, 128471, Control_c, 0, 64, 127
2, 128590, Note_on_c, 0, 86, 91
2, 128596, Note_on_c, 0, 74, 78
2, 128608, Note_on_c, 0, 51, 58
2, 128693, Note_on_c, 0, 44, 0
2, 128703, Note_on_c, 0, 44, 82
2, 128839, Note_on_c, 0, 51, 0
2, 128845, Note_on_c, 0, 51, 62
2, 128970, Note_on_c, 0, 86, 0
2, 128977, Note_on_c, 0, 74, 0
2, 128977, Note_on_c, 0, 80, 0
2, 128979, Note_on_c, 0, 86, 96
2, 128986, Note_on_c, 0, 56, 74
2, 128988, Note_on_c, 0, 80, 81
2, 128988, Note_on_c, 0, 74, 77
2, 129116, Note_on_c, 0, 51, 0
2, 129124, Note_on_c, 0, 51, 71
2, 129125, Note_on_c, 0, 84, 80
2, 129127, Note_on_c, 0, 72, 79
2, 129246, Note_on_c, 0, 56, 0
2, 129250, Note_on_c, 0, 56, 56
2, 129373, Note_on_c, 0, 58, 69
2, 129507, Note_on_c, 0, 84, 0
2, 129515, Note_on_c, 0, 72, 0
2, 129515, Note_on_c, 0, 80, 0
2, 129517, Note_on_c, 0, 84, 87
2, 129523, Note_on_c, 0, 60, 75
2, 129526, Note_on_c, 0, 72, 82
2, 129526, Note_on_c, 0, 80, 74
2, 129661, Note_on_c, 0, 82, 87
2, 129665, Note_on_c, 0, 70, 73
2, 130041, Control_c, 0, 64, 0
2, 130042, Note_on_c, 0, 86, 0
2, 130042, Note_on_c, 0, 74, 0
2, 130042, Note_on_c, 0, 56, 0
2, 130043, Note_on_c, 0, 87, 0
2, 130043, Note_on_c, 0, 51, 0
2, 130043, Note_on_c, 0, 75, 0
2, 130044, Note_on_c, 0, 72, 0
2, 130045, Note_on_c, 0, 60, 0
2, 130045, Note_on_c, 0, 70, 0
2, 130046, Note_on_c, 0, 84, 0
2, 130060, Note_on_c, 0, 80, 0
2, 130068, Note_on_c, 0, 44, 0
2, 130068, Note_on_c, 0, 58, 0
2, 130068, Note_on_c, 0, 82, 0
2, 130072, Note_on_c, 0, 82, 82
2, 130075, Note_on_c, 0, 77, 67
2, 130079, Note_on_c, 0, 58, 73
2, 130080, Note_on_c, 0, 46, 64
2, 130080, Note_on_c, 0, 70, 66
2, 130129, Control_c, 0, 64, 127
2, 130346, Note_on_c, 0, 84, 78
2, 130355, Note_on_c, 0, 72, 70
2, 130613, Control_c, 0, 64, 0
2, 130615, Note_on_c, 0, 84, 0
2, 130615, Note_on_c, 0, 72, 0
2, 130616, Note_on_c, 0, 82, 0
2, 130616, Note_on_c, 0, 58, 0
2, 130617, Note_on_c, 0, 77, 0
2, 130621, Note_on_c, 0, 46, 0
2, 130635, Note_on_c, 0, 75, 107
2, 130636, Note_on_c, 0, 70, 0
2, 130637, Note_on_c, 0, 36, 94
2, 130641, Note_on_c, 0, 67, 89
2, 130641, Note_on_c, 0, 63, 95
2, 130643, Note_on_c, 0, 70, 96
2, 130686, Note_on_c, 0, 36, 0
2, 130690, Control_c, 0, 64, 127
2, 130763, Note_on_c, 0, 48, 79
2, 130894, Note_on_c, 0, 36, 88
2, 130899, Note_on_c, 0, 43, 82
2, 130901, Note_on_c, 0, 74, 105
2, 130905, Note_on_c, 0, 62, 97
2, 131005, Note_on_c, 0, 48, 0
2, 131012, Note_on_c, 0, 48, 88
2, 131129, Note_on_c, 0, 62, 0
2, 131129, Control_c, 0, 64, 0
2, 131130, Note_on_c, 0, 70, 0
2, 131130, Note_on_c, 0, 74, 0
2, 131131, Note_on_c, 0, 63, 0
2, 131143, Note_on_c, 0, 43, 0
2, 131143, Note_on_c, 0, 67, 0
2, 131151, Note_on_c, 0, 36, 0
2, 131159, Note_on_c, 0, 75, 0
2, 131166, Note_on_c, 0, 48, 0
2, 131169, Note_on_c, 0, 75, 100
2, 131170, Note_on_c, 0, 72, 93
2, 131170, Note_on_c, 0, 60, 94
2, 131170, Note_on_c, 0, 70, 91
2, 131170, Note_on_c, 0, 63, 89
2, 131170, Note_on_c, 0, 55, 91
2, 131171, Note_on_c, 0, 48, 76
2, 131171, Note_on_c, 0, 67, 84
2, 131205, Control_c, 0, 64, 127
2, 131311, Note_on_c, 0, 47, 62
2, 131412, Note_on_c, 0, 48, 0
2, 131422, Note_on_c, 0, 48, 82
2, 131427, Note_on_c, 0, 82, 105
2, 131427, Note_on_c, 0, 70, 0
2, 131434, Note_on_c, 0, 70, 90
2, 131435, Note_on_c, 0, 47, 0
2, 131440, Note_on_c, 0, 47, 69
2, 131563, Note_on_c, 0, 36, 75
2, 131696, Note_on_c, 0, 48, 0
2, 131696, Note_on_c, 0, 55, 0
2, 131696, Note_on_c, 0, 70, 0
2, 131700, Note_on_c, 0, 77, 98
2, 131700, Note_on_c, 0, 48, 89
2, 131705, Note_on_c, 0, 65, 84
2, 131706, Note_on_c, 0, 70, 94
2, 131715, Control_c, 0, 64, 0
2, 131724, Note_on_c, 0, 82, 0
2, 131725, Note_on_c, 0, 63, 0
2, 131729, Note_on_c, 0, 67, 0
2, 131729, Note_on_c, 0, 75, 0
2, 131731, Note_on_c, 0, 60, 0
2, 131735, Note_on_c, 0, 47, 0
2, 131742, Note_on_c, 0, 72, 0
2, 131754, Note_on_c, 0, 36, 0
2, 131811, Note_on_c, 0, 48, 0
2, 131827, Control_c, 0, 64, 127
2, 131836, Note_on_c, 0, 36, 83
2, 131957, Note_on_c, 0, 36, 0
2, 131963, Note_on_c, 0, 36, 84
2, 132088, Note_on_c, 0, 36, 0
2, 132091, Note_on_c, 0, 48, 87
2, 132093, Note_on_c, 0, 36, 74
2, 132209, Note_on_c, 0, 36, 0
2, 132209, Note_on_c, 0, 65, 0
2, 132209, Note_on_c, 0, 77, 0
2, 132212, Control_c, 0, 64, 0
2, 132234, Note_on_c, 0, 48, 0
2, 132234, Note_on_c, 0, 70, 0
2, 132237, Note_on_c, 0, 72, 103
2, 132238, Note_on_c, 0, 55, 96
2, 132238, Note_on_c, 0, 60, 95
2, 132242, Note_on_c, 0, 63, 90
2, 132243, Note_on_c, 0, 67, 84
2, 132280, Control_c, 0, 64, 127
2, 132362, Note_on_c, 0, 48, 85
2, 132495, Note_on_c, 0, 48, 0
2, 132495, Note_on_c, 0, 63, 0
2, 132500, Note_on_c, 0, 75, 103
2, 132501, Note_on_c, 0, 48, 87
2, 132503, Note_on_c, 0, 72, 0
2, 132505, Note_on_c, 0, 63, 82
2, 132507, Note_on_c, 0, 68, 59
2, 132508, Note_on_c, 0, 72, 70
2, 132518, Note_on_c, 0, 68, 0
2, 132626, Note_on_c, 0, 36, 86
2, 132727, Note_on_c, 0, 55, 0
2, 132728, Note_on_c, 0, 48, 0
2, 132728, Note_on_c, 0, 36, 0
2, 132728, Note_on_c, 0, 67, 0
2, 132729, Note_on_c, 0, 60, 0
2, 132729, Control_c, 0, 64, 0
2, 132729, Note_on_c, 0, 72, 0
2, 132741, Note_on_c, 0, 63, 0
2, 132764, Note_on_c, 0, 75, 0
2, 132767, Note_on_c, 0, 79, 103
2, 132768, Note_on_c, 0, 44, 91
2, 132768, Note_on_c, 0, 32, 91
2, 132769, Note_on_c, 0, 75, 95
2, 132773, Note_on_c, 0, 72, 92
2, 132773, Note_on_c, 0, 67, 93
2, 132817, Control_c, 0, 64, 127
2, 132894, Note_on_c, 0, 44, 0
2, 132902, Note_on_c, 0, 75, 0
2, 132904, Note_on_c, 0, 44, 82
2, 132907, Note_on_c, 0, 75, 90
2, 132908, Note_on_c, 0, 63, 86
2, 133032, Note_on_c, 0, 32, 0
2, 133038, Note_on_c, 0, 32, 74
2, 133163, Note_on_c, 0, 32, 0
2, 133163, Note_on_c, 0, 44, 0
2, 133167, Note_on_c, 0, 77, 101
2, 133171, Note_on_c, 0, 72, 0
2, 133171, Note_on_c, 0, 75, 0
2, 133172, Note_on_c, 0, 44, 81
2, 133173, Note_on_c, 0, 32, 80
2, 133175, Note_on_c, 0, 65, 86
2, 133175, Note_on_c, 0, 72, 94
2, 133177, Note_on_c, 0, 75, 92
2, 133179, Control_c, 0, 64, 0
2, 133189, Note_on_c, 0, 63, 0
2, 133190, Note_on_c, 0, 67, 0
2, 133192, Note_on_c, 0, 79, 0
2, 133271, Control_c, 0, 64, 127
2, 133308, Note_on_c, 0, 56, 95
2, 133309, Note_on_c, 0, 44, 0
2, 133315, Note_on_c, 0, 51, 82
2, 133316, Note_on_c, 0, 44, 84
2, 133432, Note_on_c, 0, 44, 0
2, 133436, Note_on_c, 0, 44, 62
2, 133562, Note_on_c, 0, 44, 0
2, 133570, Note_on_c, 0, 44, 85
2, 133708, Note_on_c, 0, 32, 0
2, 133708, Note_on_c, 0, 44, 0
2, 133708, Note_on_c, 0, 75, 0
2, 133713, Note_on_c, 0, 44, 78
2, 133713, Note_on_c, 0, 32, 76
2, 133716, Note_on_c, 0, 72, 0
2, 133719, Note_on_c, 0, 75, 101
2, 133720, Note_on_c, 0, 63, 84
2, 133726, Note_on_c, 0, 72, 74
2, 133839, Note_on_c, 0, 44, 0
2, 133841, Note_on_c, 0, 65, 0
2, 133842, Note_on_c, 0, 56, 0
2, 133842, Control_c, 0, 64, 0
2, 133843, Note_on_c, 0, 63, 0
2, 133843, Note_on_c, 0, 75, 0
2, 133843, Note_on_c, 0, 77, 0
2, 133843, Note_on_c, 0, 51, 0
2, 133844, Note_on_c, 0, 44, 79
2, 133844, Note_on_c, 0, 32, 0
2, 133854, Note_on_c, 0, 72, 0
2, 133858, Note_on_c, 0, 72, 101
2, 133865, Note_on_c, 0, 60, 87
2, 133918, Note_on_c, 0, 44, 0
2, 133974, Note_on_c, 0, 32, 86
2, 133985, Control_c, 0, 64, 127
2, 134100, Note_on_c, 0, 32, 0
2, 134104, Note_on_c, 0, 32, 71
2, 134108, Control_c, 0, 64, 0
2, 134108, Note_on_c, 0, 44, 72
2, 134146, Note_on_c, 0, 60, 0
2, 134192, Control_c, 0, 64, 127
2, 134223, Note_on_c, 0, 44, 0
2, 134233, Note_on_c, 0, 44, 85
2, 134340, Note_on_c, 0, 32, 0
2, 134341, Note_on_c, 0, 44, 0
2, 134342, Control_c, 0, 64, 0
2, 134361, Note_on_c, 0, 72, 0
2, 134381, Note_on_c, 0, 79, 101
2, 134382, Note_on_c, 0, 75, 95
2, 134383, Note_on_c, 0, 72, 96
2, 134386, Note_on_c, 0, 44, 89
2, 134387, Note_on_c, 0, 67, 95
2, 134387, Note_on_c, 0, 32, 85
2, 134387, Note_on_c, 0, 39, 78
2, 134453, Control_c, 0, 64, 127
2, 134499, Note_on_c, 0, 44, 0
2, 134510, Note_on_c, 0, 44, 84
2, 134630, Note_on_c, 0, 75, 0
2, 134638, Note_on_c, 0, 39, 0
2, 134638, Note_on_c, 0, 44, 0
2, 134639, Note_on_c, 0, 75, 97
2, 134644, Note_on_c, 0, 44, 79
2, 134648, Note_on_c, 0, 63, 84
2, 134760, Note_on_c, 0, 32, 0
2, 134768, Note_on_c, 0, 32, 75
2, 134776, Note_on_c, 0, 44, 0
2, 134857, Note_on_c, 0, 79, 0
2, 134858, Note_on_c, 0, 75, 0
2, 134858, Note_on_c, 0, 67, 0
2, 134858, Note_on_c, 0, 63, 0
2, 134858, Control_c, 0, 64, 0
2, 134858, Note_on_c, 0, 72, 0
2, 134890, Note_on_c, 0, 77, 103
2, 134891, Note_on_c, 0, 32, 0
2, 134897, Note_on_c, 0, 65, 86
2, 134900, Note_on_c, 0, 68, 92
2, 134902, Note_on_c, 0, 72, 88
2, 134904, Note_on_c, 0, 41, 88
2, 134907, Note_on_c, 0, 29, 96
2, 134929, Control_c, 0, 64, 127
2, 135036, Note_on_c, 0, 75, 99
2, 135037, Note_on_c, 0, 29, 0
2, 135037, Note_on_c, 0, 41, 0
2, 135042, Note_on_c, 0, 63, 85
2, 135044, Note_on_c, 0, 41, 82
2, 135047, Note_on_c, 0, 29, 82
2, 135048, Note_on_c, 0, 69, 69
2, 135160, Note_on_c, 0, 29, 0
2, 135160, Note_on_c, 0, 65, 0
2, 135164, Note_on_c, 0, 29, 82
2, 135290, Note_on_c, 0, 41, 0
2, 135290, Note_on_c, 0, 68, 0
2, 135290, Note_on_c, 0, 72, 0
2, 135290, Note_on_c, 0, 77, 0
2, 135294, Note_on_c, 0, 77, 98
2, 135297, Note_on_c, 0, 72, 90
2, 135298, Note_on_c, 0, 65, 83
2, 135298, Note_on_c, 0, 29, 0
2, 135299, Note_on_c, 0, 41, 82
2, 135299, Note_on_c, 0, 68, 94
2, 135303, Note_on_c, 0, 29, 83
2, 135332, Control_c, 0, 64, 0
2, 135335, Note_on_c, 0, 75, 0
2, 135339, Note_on_c, 0, 63, 0
2, 135360, Note_on_c, 0, 69, 0
2, 135390, Control_c, 0, 64, 127
2, 135426, Note_on_c, 0, 48, 91
2, 135430, Note_on_c, 0, 53, 89
2, 135544, Note_on_c, 0, 41, 0
2, 135552, Note_on_c, 0, 29, 0
2, 135555, Note_on_c, 0, 41, 81
2, 135557, Note_on_c, 0, 29, 77
2, 135659, Note_on_c, 0, 29, 0
2, 135659, Note_on_c, 0, 41, 0
2, 135665, Note_on_c, 0, 41, 79
2, 135669, Note_on_c, 0, 29, 77
2, 135744, Note_on_c, 0, 41, 0
2, 135744, Note_on_c, 0, 53, 0
2, 135753, Note_on_c, 0, 41, 79
2, 135753, Note_on_c, 0, 53, 76
2, 135820, Note_on_c, 0, 29, 0
2, 135826, Note_on_c, 0, 29, 81
2, 135828, Note_on_c, 0, 75, 99
2, 135831, Note_on_c, 0, 63, 86
2, 135957, Control_c, 0, 64, 0
2, 135959, Note_on_c, 0, 29, 0
2, 135959, Note_on_c, 0, 41, 0
2, 135959, Note_on_c, 0, 72, 0
2, 135963, Note_on_c, 0, 41, 80
2, 135963, Note_on_c, 0, 29, 78
2, 135965, Note_on_c, 0, 72, 101
2, 135965, Note_on_c, 0, 48, 0
2, 135968, Note_on_c, 0, 63, 0
2, 135968, Note_on_c, 0, 75, 0
2, 135968, Note_on_c, 0, 77, 0
2, 135969, Note_on_c, 0, 53, 0
2, 135971, Note_on_c, 0, 60, 86
2, 135989, Note_on_c, 0, 65, 0
2, 135989, Note_on_c, 0, 68, 0
2, 136051, Note_on_c, 0, 41, 0
2, 136081, Note_on_c, 0, 29, 0
2, 136091, Note_on_c, 0, 29, 80
2, 136097, Control_c, 0, 64, 127
2, 136212, Note_on_c, 0, 29, 0
2, 136218, Note_on_c, 0, 29, 82
2, 136339, Note_on_c, 0, 41, 75
2, 136437, Note_on_c, 0, 72, 0
2, 136437, Note_on_c, 0, 60, 0
2, 136438, Control_c, 0, 64, 0
2, 136485, Note_on_c, 0, 75, 105
2, 136492, Note_on_c, 0, 63, 96
2, 136492, Note_on_c, 0, 53, 92
2, 136494, Note_on_c, 0, 68, 95
2, 136497, Note_on_c, 0, 72, 88
2, 136498, Note_on_c, 0, 48, 88
2, 136504, Control_c, 0, 64, 127
2, 136611, Note_on_c, 0, 41, 0
2, 136620, Note_on_c, 0, 41, 81
2, 136734, Note_on_c, 0, 75, 0
2, 136745, Note_on_c, 0, 75, 101
2, 136757, Note_on_c, 0, 29, 0
2, 136757, Note_on_c, 0, 63, 0
2, 136759, Note_on_c, 0, 69, 75
2, 136762, Note_on_c, 0, 63, 82
2, 136765, Note_on_c, 0, 41, 0
2, 136766, Note_on_c, 0, 29, 81
2, 136771, Note_on_c, 0, 41, 74
2, 136872, Note_on_c, 0, 29, 0
2, 136880, Note_on_c, 0, 29, 84
2, 136994, Note_on_c, 0, 29, 0
2, 136997, Note_on_c, 0, 48, 0
2, 136997, Note_on_c, 0, 68, 0
2, 136998, Note_on_c, 0, 63, 0
2, 136998, Control_c, 0, 64, 0
2, 137003, Note_on_c, 0, 53, 0
2, 137011, Note_on_c, 0, 69, 0
2, 137011, Note_on_c, 0, 72, 0
2, 137018, Note_on_c, 0, 75, 0
2, 137021, Note_on_c, 0, 72, 104
2, 137030, Note_on_c, 0, 70, 95
2, 137030, Note_on_c, 0, 65, 81
2, 137030, Note_on_c, 0, 34, 84
2, 137031, Note_on_c, 0, 60, 89
2, 137080, Control_c, 0, 64, 127
2, 137088, Note_on_c, 0, 41, 0
2, 137159, Note_on_c, 0, 46, 85
2, 137287, Note_on_c, 0, 34, 0
2, 137292, Note_on_c, 0, 34, 78
2, 137402, Note_on_c, 0, 46, 0
2, 137410, Note_on_c, 0, 46, 80
2, 137415, Note_on_c, 0, 34, 0
2, 137505, Note_on_c, 0, 70, 0
2, 137505, Note_on_c, 0, 72, 0
2, 137505, Note_on_c, 0, 65, 0
2, 137505, Control_c, 0, 64, 0
2, 137525, Note_on_c, 0, 46, 0
2, 137533, Note_on_c, 0, 60, 0
2, 137554, Note_on_c, 0, 75, 104
2, 137559, Note_on_c, 0, 63, 92
2, 137560, Note_on_c, 0, 70, 85
2, 137560, Note_on_c, 0, 58, 93
2, 137562, Note_on_c, 0, 53, 77
2, 137587, Control_c, 0, 64, 127
2, 137680, Note_on_c, 0, 46, 82
2, 137809, Note_on_c, 0, 46, 0
2, 137820, Note_on_c, 0, 46, 91
2, 137820, Note_on_c, 0, 74, 97
2, 137832, Note_on_c, 0, 70, 0
2, 137837, Note_on_c, 0, 62, 73
2, 137837, Note_on_c, 0, 70, 63
2, 137938, Note_on_c, 0, 34, 80
2, 138078, Note_on_c, 0, 53, 0
2, 138080, Control_c, 0, 64, 0
2, 138081, Note_on_c, 0, 63, 0
2, 138082, Note_on_c, 0, 75, 0
2, 138082, Note_on_c, 0, 58, 0
2, 138082, Note_on_c, 0, 34, 0
2, 138082, Note_on_c, 0, 74, 0
2, 138086, Note_on_c, 0, 46, 0
2, 138088, Note_on_c, 0, 72, 104
2, 138090, Note_on_c, 0, 46, 78
2, 138094, Note_on_c, 0, 60, 89
2, 138100, Note_on_c, 0, 65, 60
2, 138109, Note_on_c, 0, 62, 0
2, 138210, Note_on_c, 0, 34, 89
2, 138224, Control_c, 0, 64, 127
2, 138347, Note_on_c, 0, 34, 0
2, 138347, Note_on_c, 0, 46, 0
2, 138347, Note_on_c, 0, 70, 0
2, 138352, Note_on_c, 0, 46, 88
2, 138354, Note_on_c, 0, 34, 87
2, 138356, Note_on_c, 0, 70, 88
2, 138357, Note_on_c, 0, 58, 88
2, 138462, Note_on_c, 0, 46, 0
2, 138473, Note_on_c, 0, 46, 80
2, 138556, Note_on_c, 0, 34, 0
2, 138558, Control_c, 0, 64, 0
2, 138559, Note_on_c, 0, 72, 0
2, 138560, Note_on_c, 0, 58, 0
2, 138561, Note_on_c, 0, 70, 0
2, 138562, Note_on_c, 0, 65, 0
2, 138570, Note_on_c, 0, 60, 0
2, 138577, Note_on_c, 0, 46, 0
2, 138618, Note_on_c, 0, 72, 102
2, 138622, Note_on_c, 0, 60, 84
2, 138623, Note_on_c, 0, 65, 86
2, 138623, Note_on_c, 0, 70, 99
2, 138627, Note_on_c, 0, 58, 91
2, 138627, Note_on_c, 0, 53, 85
2, 138647, Control_c, 0, 64, 127
2, 138736, Note_on_c, 0, 46, 87
2, 138877, Note_on_c, 0, 46, 0
2, 138881, Note_on_c, 0, 46, 78
2, 139004, Note_on_c, 0, 34, 74
2, 139099, Control_c, 0, 64, 0
2, 139103, Note_on_c, 0, 53, 0
2, 139103, Note_on_c, 0, 46, 0
2, 139104, Note_on_c, 0, 65, 0
2, 139104, Note_on_c, 0, 58, 0
2, 139104, Note_on_c, 0, 72, 0
2, 139104, Note_on_c, 0, 70, 0
2, 139123, Note_on_c, 0, 34, 0
2, 139123, Note_on_c, 0, 60, 0
2, 139151, Note_on_c, 0, 75, 107
2, 139154, Note_on_c, 0, 36, 94
2, 139157, Note_on_c, 0, 67, 95
2, 139158, Note_on_c, 0, 63, 92
2, 139158, Note_on_c, 0, 70, 99
2, 139207, Control_c, 0, 64, 127
2, 139299, Note_on_c, 0, 36, 0
2, 139304, Note_on_c, 0, 48, 69
2, 139306, Note_on_c, 0, 36, 62
2, 139407, Note_on_c, 0, 36, 0
2, 139416, Note_on_c, 0, 74, 99
2, 139418, Note_on_c, 0, 36, 86
2, 139419, Note_on_c, 0, 62, 83
2, 139522, Note_on_c, 0, 48, 0
2, 139526, Note_on_c, 0, 48, 69
2, 139634, Note_on_c, 0, 36, 0
2, 139637, Control_c, 0, 64, 0
2, 139638, Note_on_c, 0, 48, 0
2, 139639, Note_on_c, 0, 74, 0
2, 139639, Note_on_c, 0, 67, 0
2, 139639, Note_on_c, 0, 70, 0
2, 139640, Note_on_c, 0, 75, 0
2, 139640, Note_on_c, 0, 63, 0
2, 139653, Note_on_c, 0, 62, 0
2, 139683, Note_on_c, 0, 75, 99
2, 139685, Note_on_c, 0, 63, 92
2, 139685, Note_on_c, 0, 60, 97
2, 139686, Note_on_c, 0, 72, 96
2, 139686, Note_on_c, 0, 48, 84
2, 139687, Note_on_c, 0, 55, 93
2, 139687, Note_on_c, 0, 67, 86
2, 139688, Note_on_c, 0, 70, 94
2, 139714, Control_c, 0, 64, 127
2, 139799, Note_on_c, 0, 48, 0
2, 139808, Note_on_c, 0, 48, 80
2, 139944, Note_on_c, 0, 48, 0
2, 139944, Note_on_c, 0, 60, 0
2, 139944, Note_on_c, 0, 70, 0
2, 139949, Note_on_c, 0, 82, 104
2, 139952, Note_on_c, 0, 48, 80
2, 139953, Note_on_c, 0, 60, 81
2, 139956, Note_on_c, 0, 70, 94
2, 140076, Note_on_c, 0, 36, 89
2, 140175, Note_on_c, 0, 55, 0
2, 140202, Control_c, 0, 64, 0
2, 140203, Note_on_c, 0, 67, 0
2, 140203, Note_on_c, 0, 82, 0
2, 140204, Note_on_c, 0, 63, 0
2, 140204, Note_on_c, 0, 72, 0
2, 140206, Note_on_c, 0, 48, 0
2, 140206, Note_on_c, 0, 60, 0
2, 140206, Note_on_c, 0, 70, 0
2, 140206, Note_on_c, 0, 75, 0
2, 140210, Note_on_c, 0, 60, 83
2, 140210, Note_on_c, 0, 77, 102
2, 140213, Note_on_c, 0, 48, 80
2, 140214, Note_on_c, 0, 70, 97
2, 140216, Note_on_c, 0, 65, 87
2, 140217, Note_on_c, 0, 58, 78
2, 140252, Note_on_c, 0, 36, 0
2, 140321, Control_c, 0, 64, 127
2, 140343, Note_on_c, 0, 36, 84
2, 140382, Note_on_c, 0, 60, 0
2, 140398, Note_on_c, 0, 58, 0
2, 140474, Note_on_c, 0, 36, 0
2, 140484, Note_on_c, 0, 36, 92
2, 140597, Note_on_c, 0, 48, 0
2, 140607, Note_on_c, 0, 48, 83
2, 140701, Control_c, 0, 64, 0
2, 140702, Note_on_c, 0, 65, 0
2, 140702, Note_on_c, 0, 36, 0
2, 140702, Note_on_c, 0, 70, 0
2, 140703, Note_on_c, 0, 77, 0
2, 140703, Note_on_c, 0, 48, 0
2, 140747, Note_on_c, 0, 72, 103
2, 140750, Note_on_c, 0, 63, 90
2, 140752, Note_on_c, 0, 60, 92
2, 140753, Note_on_c, 0, 55, 92
2, 140754, Note_on_c, 0, 67, 85
2, 140797, Control_c, 0, 64, 127
2, 140875, Note_on_c, 0, 48, 75
2, 140997, Note_on_c, 0, 48, 0
2, 141007, Note_on_c, 0, 48, 80
2, 141008, Note_on_c, 0, 36, 78
2, 141009, Note_on_c, 0, 75, 106
2, 141012, Note_on_c, 0, 63, 0
2, 141016, Note_on_c, 0, 63, 76
2, 141112, Note_on_c, 0, 36, 0
2, 141123, Note_on_c, 0, 36, 83
2, 141223, Note_on_c, 0, 55, 0
2, 141225, Note_on_c, 0, 48, 0
2, 141226, Control_c, 0, 64, 0
2, 141226, Note_on_c, 0, 67, 0
2, 141226, Note_on_c, 0, 63, 0
2, 141227, Note_on_c, 0, 72, 0
2, 141227, Note_on_c, 0, 60, 0
2, 141228, Note_on_c, 0, 75, 0
2, 141242, Note_on_c, 0, 36, 0
2, 141273, Note_on_c, 0, 79, 99
2, 141276, Note_on_c, 0, 72, 100
2, 141277, Note_on_c, 0, 67, 96
2, 141278, Note_on_c, 0, 46, 92
2, 141279, Note_on_c, 0, 75, 98
2, 141281, Note_on_c, 0, 34, 83
2, 141304, Control_c, 0, 64, 127
2, 141396, Note_on_c, 0, 46, 0
2, 141404, Note_on_c, 0, 75, 0
2, 141407, Note_on_c, 0, 46, 84
2, 141413, Note_on_c, 0, 75, 96
2, 141429, Note_on_c, 0, 63, 77
2, 141534, Note_on_c, 0, 34, 0
2, 141540, Note_on_c, 0, 34, 68
2, 141657, Note_on_c, 0, 46, 0
2, 141665, Note_on_c, 0, 34, 0
2, 141667, Note_on_c, 0, 46, 89
2, 141672, Note_on_c, 0, 75, 0
2, 141674, Note_on_c, 0, 34, 82
2, 141675, Note_on_c, 0, 77, 101
2, 141678, Note_on_c, 0, 75, 95
2, 141680, Note_on_c, 0, 72, 0
2, 141682, Note_on_c, 0, 65, 91
2, 141685, Note_on_c, 0, 72, 93
2, 141738, Note_on_c, 0, 67, 0
2, 141740, Note_on_c, 0, 79, 0
2, 141740, Note_on_c, 0, 34, 0
2, 141741, Note_on_c, 0, 46, 0
2, 141745, Note_on_c, 0, 63, 0
2, 141745, Control_c, 0, 64, 0
2, 141811, Note_on_c, 0, 58, 93
2, 141814, Note_on_c, 0, 53, 84
2, 141814, Note_on_c, 0, 46, 81
2, 141826, Control_c, 0, 64, 127
2, 141926, Note_on_c, 0, 46, 0
2, 141933, Note_on_c, 0, 34, 75
2, 141934, Note_on_c, 0, 46, 81
2, 142056, Note_on_c, 0, 46, 0
2, 142061, Note_on_c, 0, 46, 75
2, 142195, Note_on_c, 0, 75, 0
2, 142202, Note_on_c, 0, 34, 0
2, 142204, Note_on_c, 0, 75, 97
2, 142205, Note_on_c, 0, 63, 87
2, 142206, Note_on_c, 0, 34, 72
2, 142333, Note_on_c, 0, 46, 0
2, 142333, Note_on_c, 0, 72, 0
2, 142342, Note_on_c, 0, 72, 101
2, 142343, Note_on_c, 0, 46, 84
2, 142352, Control_c, 0, 64, 0
2, 142352, Note_on_c, 0, 53, 0
2, 142352, Note_on_c, 0, 60, 84
2, 142353, Note_on_c, 0, 63, 0
2, 142353, Note_on_c, 0, 65, 0
2, 142353, Note_on_c, 0, 77, 0
2, 142354, Note_on_c, 0, 58, 0
2, 142355, Note_on_c, 0, 75, 0
2, 142355, Note_on_c, 0, 34, 0
2, 142417, Note_on_c, 0, 46, 0
2, 142448, Control_c, 0, 64, 127
2, 142465, Note_on_c, 0, 34, 87
2, 142594, Note_on_c, 0, 34, 0
2, 142599, Note_on_c, 0, 34, 81
2, 142605, Note_on_c, 0, 46, 76
2, 142717, Note_on_c, 0, 46, 0
2, 142721, Note_on_c, 0, 58, 75
2, 142723, Note_on_c, 0, 46, 77
2, 142820, Note_on_c, 0, 34, 0
2, 142820, Control_c, 0, 64, 0
2, 142821, Note_on_c, 0, 46, 0
2, 142822, Note_on_c, 0, 60, 0
2, 142840, Note_on_c, 0, 58, 0
2, 142848, Note_on_c, 0, 72, 0
2, 142869, Note_on_c, 0, 58, 96
2, 142870, Note_on_c, 0, 79, 104
2, 142874, Note_on_c, 0, 67, 97
2, 142874, Note_on_c, 0, 72, 98
2, 142875, Note_on_c, 0, 53, 83
2, 142875, Note_on_c, 0, 75, 96
2, 142901, Control_c, 0, 64, 127
2, 143002, Note_on_c, 0, 46, 85
2, 143124, Note_on_c, 0, 75, 0
2, 143132, Note_on_c, 0, 46, 0
2, 143132, Note_on_c, 0, 67, 0
2, 143134, Note_on_c, 0, 75, 102
2, 143136, Note_on_c, 0, 63, 90
2, 143140, Note_on_c, 0, 46, 81
2, 143141, Note_on_c, 0, 67, 75
2, 143256, Note_on_c, 0, 34, 78
2, 143347, Note_on_c, 0, 53, 0
2, 143348, Note_on_c, 0, 34, 0
2, 143349, Control_c, 0, 64, 0
2, 143349, Note_on_c, 0, 46, 0
2, 143350, Note_on_c, 0, 67, 0
2, 143350, Note_on_c, 0, 58, 0
2, 143350, Note_on_c, 0, 79, 0
2, 143350, Note_on_c, 0, 75, 0
2, 143350, Note_on_c, 0, 72, 0
2, 143351, Note_on_c, 0, 63, 0
2, 143398, Note_on_c, 0, 77, 104
2, 143401, Note_on_c, 0, 65, 95
2, 143404, Note_on_c, 0, 69, 99
2, 143404, Note_on_c, 0, 33, 88
2, 143404, Note_on_c, 0, 45, 86
2, 143404, Note_on_c, 0, 72, 96
2, 143441, Note_on_c, 0, 45, 0
2, 143447, Control_c, 0, 64, 127
2, 143543, Note_on_c, 0, 45, 80
2, 143546, Note_on_c, 0, 72, 0
2, 143550, Note_on_c, 0, 75, 103
2, 143553, Note_on_c, 0, 72, 67
2, 143559, Note_on_c, 0, 63, 85
2, 143669, Note_on_c, 0, 33, 0
2, 143673, Note_on_c, 0, 33, 76
2, 143676, Note_on_c, 0, 34, 79
2, 143685, Note_on_c, 0, 34, 0
2, 143800, Note_on_c, 0, 65, 0
2, 143800, Note_on_c, 0, 69, 0
2, 143800, Note_on_c, 0, 72, 0
2, 143800, Note_on_c, 0, 77, 0
2, 143804, Note_on_c, 0, 77, 100
2, 143805, Note_on_c, 0, 65, 91
2, 143808, Note_on_c, 0, 72, 90
2, 143808, Note_on_c, 0, 69, 92
2, 143816, Note_on_c, 0, 53, 79
2, 143817, Control_c, 0, 64, 0
2, 143819, Note_on_c, 0, 63, 0
2, 143823, Note_on_c, 0, 53, 0
2, 143854, Note_on_c, 0, 33, 0
2, 143938, Note_on_c, 0, 69, 0
2, 143946, Control_c, 0, 64, 127
2, 143949, Note_on_c, 0, 69, 90
2, 143950, Note_on_c, 0, 53, 96
2, 143955, Note_on_c, 0, 57, 95
2, 143961, Note_on_c, 0, 65, 0
2, 143966, Note_on_c, 0, 65, 69
2, 144069, Note_on_c, 0, 45, 0
2, 144073, Note_on_c, 0, 45, 80
2, 144199, Note_on_c, 0, 45, 0
2, 144203, Note_on_c, 0, 45, 79
2, 144330, Note_on_c, 0, 75, 0
2, 144337, Note_on_c, 0, 45, 0
2, 144341, Note_on_c, 0, 75, 99
2, 144343, Note_on_c, 0, 33, 79
2, 144344, Note_on_c, 0, 45, 78
2, 144347, Note_on_c, 0, 63, 89
2, 144476, Note_on_c, 0, 72, 0
2, 144480, Note_on_c, 0, 72, 105
2, 144483, Note_on_c, 0, 45, 0
2, 144488, Note_on_c, 0, 60, 91
2, 144493, Control_c, 0, 64, 0
2, 144494, Note_on_c, 0, 45, 80
2, 144499, Note_on_c, 0, 57, 0
2, 144500, Note_on_c, 0, 53, 0
2, 144501, Note_on_c, 0, 69, 0
2, 144502, Note_on_c, 0, 63, 0
2, 144502, Note_on_c, 0, 65, 0
2, 144503, Note_on_c, 0, 75, 0
2, 144510, Note_on_c, 0, 33, 0
2, 144514, Note_on_c, 0, 77, 0
2, 144576, Note_on_c, 0, 45, 0
2, 144583, Control_c, 0, 64, 127
2, 144608, Note_on_c, 0, 33, 77
2, 144737, Note_on_c, 0, 33, 0
2, 144745, Note_on_c, 0, 33, 75
2, 144854, Note_on_c, 0, 45, 77
2, 144913, Note_on_c, 0, 53, 54
2, 144921, Note_on_c, 0, 53, 0
2, 144972, Control_c, 0, 64, 0
2, 144998, Note_on_c, 0, 45, 0
2, 144998, Note_on_c, 0, 60, 0
2, 144998, Note_on_c, 0, 72, 0
2, 145006, Note_on_c, 0, 33, 0
2, 145009, Note_on_c, 0, 53, 92
2, 145010, Note_on_c, 0, 69, 94
2, 145014, Note_on_c, 0, 75, 102
2, 145019, Note_on_c, 0, 57, 85
2, 145023, Note_on_c, 0, 63, 91
2, 145029, Note_on_c, 0, 72, 88
2, 145044, Control_c, 0, 64, 127
2, 145128, Note_on_c, 0, 45, 79
2, 145267, Note_on_c, 0, 57, 0
2, 145267, Note_on_c, 0, 75, 0
2, 145274, Note_on_c, 0, 45, 0
2, 145274, Note_on_c, 0, 63, 0
2, 145275, Note_on_c, 0, 57, 73
2, 145276, Note_on_c, 0, 75, 102
2, 145280, Note_on_c, 0, 69, 0
2, 145281, Note_on_c, 0, 63, 84
2, 145283, Note_on_c, 0, 45, 75
2, 145400, Note_on_c, 0, 33, 80
2, 145502, Control_c, 0, 64, 0
2, 145506, Note_on_c, 0, 53, 0
2, 145507, Note_on_c, 0, 72, 0
2, 145507, Note_on_c, 0, 33, 0
2, 145507, Note_on_c, 0, 63, 0
2, 145507, Note_on_c, 0, 45, 0
2, 145508, Note_on_c, 0, 75, 0
2, 145512, Note_on_c, 0, 57, 0
2, 145547, Note_on_c, 0, 72, 107
2, 145553, Note_on_c, 0, 60, 97
2, 145554, Note_on_c, 0, 68, 100
2, 145555, Note_on_c, 0, 63, 92
2, 145555, Note_on_c, 0, 32, 86
2, 145582, Control_c, 0, 64, 127
2, 145686, Note_on_c, 0, 44, 84
2, 145820, Note_on_c, 0, 32, 0
2, 145824, Note_on_c, 0, 32, 86
2, 145943, Note_on_c, 0, 44, 0
2, 145950, Note_on_c, 0, 44, 82
2, 146013, Control_c, 0, 64, 0
2, 146016, Note_on_c, 0, 32, 0
2, 146017, Note_on_c, 0, 44, 0
2, 146018, Note_on_c, 0, 68, 0
2, 146019, Note_on_c, 0, 60, 0
2, 146019, Note_on_c, 0, 63, 0
2, 146020, Note_on_c, 0, 72, 0
2, 146090, Note_on_c, 0, 75, 105
2, 146092, Note_on_c, 0, 63, 98
2, 146092, Note_on_c, 0, 68, 104
2, 146092, Note_on_c, 0, 56, 98
2, 146096, Control_c, 0, 64, 127
2, 146101, Note_on_c, 0, 51, 90
2, 146218, Note_on_c, 0, 44, 81
2, 146342, Note_on_c, 0, 44, 0
2, 146348, Note_on_c, 0, 44, 73
2, 146352, Note_on_c, 0, 74, 95
2, 146365, Note_on_c, 0, 68, 0
2, 146367, Note_on_c, 0, 62, 81
2, 146372, Note_on_c, 0, 68, 67
2, 146488, Note_on_c, 0, 32, 81
2, 146557, Note_on_c, 0, 68, 0
2, 146561, Note_on_c, 0, 68, 74
2, 146564, Control_c, 0, 64, 0
2, 146568, Note_on_c, 0, 74, 0
2, 146568, Note_on_c, 0, 44, 0
2, 146568, Note_on_c, 0, 62, 0
2, 146568, Note_on_c, 0, 75, 0
2, 146568, Note_on_c, 0, 51, 0
2, 146569, Note_on_c, 0, 63, 0
2, 146569, Note_on_c, 0, 32, 0
2, 146580, Note_on_c, 0, 56, 0
2, 146595, Note_on_c, 0, 68, 0
2, 146615, Note_on_c, 0, 72, 105
2, 146622, Note_on_c, 0, 44, 87
2, 146624, Note_on_c, 0, 60, 90
2, 146649, Control_c, 0, 64, 127
2, 146759, Note_on_c, 0, 32, 82
2, 146886, Note_on_c, 0, 58, 81
2, 146886, Note_on_c, 0, 70, 82
2, 147002, Note_on_c, 0, 44, 0
2, 147007, Note_on_c, 0, 44, 77
2, 147093, Note_on_c, 0, 32, 0
2, 147095, Control_c, 0, 64, 0
2, 147096, Note_on_c, 0, 58, 0
2, 147096, Note_on_c, 0, 72, 0
2, 147097, Note_on_c, 0, 70, 0
2, 147097, Note_on_c, 0, 44, 0
2, 147102, Note_on_c, 0, 60, 0
2, 147151, Note_on_c, 0, 72, 101
2, 147153, Note_on_c, 0, 58, 92
2, 147156, Note_on_c, 0, 70, 99
2, 147157, Note_on_c, 0, 60, 84
2, 147158, Note_on_c, 0, 65, 82
2, 147158, Note_on_c, 0, 53, 87
2, 147171, Control_c, 0, 64, 127
2, 147277, Note_on_c, 0, 44, 64
2, 147280, Note_on_c, 0, 46, 86
2, 147394, Note_on_c, 0, 44, 0
2, 147400, Note_on_c, 0, 44, 53
2, 147518, Note_on_c, 0, 34, 75
2, 147664, Note_on_c, 0, 34, 0
2, 147664, Note_on_c, 0, 58, 0
2, 147665, Note_on_c, 0, 72, 0
2, 147665, Note_on_c, 0, 46, 0
2, 147665, Note_on_c, 0, 53, 0
2, 147666, Note_on_c, 0, 70, 0
2, 147667, Control_c, 0, 64, 0
2, 147678, Note_on_c, 0, 36, 83
2, 147682, Note_on_c, 0, 43, 81
2, 147688, Note_on_c, 0, 51, 93
2, 147701, Note_on_c, 0, 44, 0
2, 147740, Control_c, 0, 64, 127
2, 147951, Note_on_c, 0, 53, 98
2, 148081, Note_on_c, 0, 48, 86
2, 148210, Note_on_c, 0, 58, 104
2, 148224, Note_on_c, 0, 70, 100
2, 148239, Note_on_c, 0, 43, 0
2, 148250, Note_on_c, 0, 43, 56
2, 148251, Note_on_c, 0, 82, 99
2, 148346, Note_on_c, 0, 48, 0
2, 148353, Note_on_c, 0, 48, 79
2, 148469, Note_on_c, 0, 48, 0
2, 148469, Note_on_c, 0, 60, 0
2, 148477, Note_on_c, 0, 84, 91
2, 148480, Note_on_c, 0, 48, 77
2, 148480, Note_on_c, 0, 60, 76
2, 148487, Note_on_c, 0, 72, 77
2, 148608, Note_on_c, 0, 48, 0
2, 148619, Note_on_c, 0, 48, 88
2, 148746, Note_on_c, 0, 84, 0
2, 148749, Note_on_c, 0, 55, 98
2, 148756, Note_on_c, 0, 84, 96
2, 148761, Note_on_c, 0, 72, 0
2, 148765, Note_on_c, 0, 79, 89
2, 148766, Note_on_c, 0, 75, 88
2, 148767, Note_on_c, 0, 72, 85
2, 148876, Note_on_c, 0, 48, 0
2, 148888, Note_on_c, 0, 48, 75
2, 149007, Note_on_c, 0, 48, 0
2, 149012, Note_on_c, 0, 48, 82
2, 149153, Note_on_c, 0, 48, 0
2, 149162, Note_on_c, 0, 48, 82
2, 149276, Note_on_c, 0, 53, 0
2, 149280, Note_on_c, 0, 53, 103
2, 149406, Note_on_c, 0, 48, 0
2, 149412, Note_on_c, 0, 48, 80
2, 149529, Note_on_c, 0, 51, 0
2, 149537, Note_on_c, 0, 51, 90
2, 149614, Note_on_c, 0, 48, 0
2, 149622, Note_on_c, 0, 48, 64
2, 149750, Note_on_c, 0, 82, 0
2, 149750, Note_on_c, 0, 53, 0
2, 149751, Note_on_c, 0, 43, 0
2, 149752, Note_on_c, 0, 84, 0
2, 149752, Note_on_c, 0, 58, 0
2, 149752, Note_on_c, 0, 48, 0
2, 149752, Note_on_c, 0, 75, 0
2, 149753, Note_on_c, 0, 79, 0
2, 149753, Note_on_c, 0, 51, 0
2, 149753, Note_on_c, 0, 72, 0
2, 149753, Note_on_c, 0, 70, 0
2, 149754, Note_on_c, 0, 60, 0
2, 149755, Control_c, 0, 64, 0
2, 149760, Note_on_c, 0, 65, 0
2, 149767, Note_on_c, 0, 36, 0
2, 149767, Note_on_c, 0, 55, 0
2, 149803, Note_on_c, 0, 32, 88
2, 149804, Note_on_c, 0, 39, 90
2, 149829, Control_c, 0, 64, 127
2, 150079, Note_on_c, 0, 48, 88
2, 150350, Note_on_c, 0, 82, 107
2, 150351, Note_on_c, 0, 58, 93
2, 150355, Note_on_c, 0, 70, 97
2, 150593, Note_on_c, 0, 84, 99
2, 150602, Note_on_c, 0, 44, 78
2, 150615, Note_on_c, 0, 72, 72
2, 150865, Note_on_c, 0, 84, 0
2, 150870, Note_on_c, 0, 87, 104
2, 150872, Note_on_c, 0, 75, 101
2, 150875, Note_on_c, 0, 84, 88
2, 150876, Note_on_c, 0, 80, 91
2, 150891, Note_on_c, 0, 55, 74
2, 150996, Note_on_c, 0, 44, 0
2, 151002, Note_on_c, 0, 44, 85
2, 151127, Note_on_c, 0, 44, 0
2, 151131, Note_on_c, 0, 44, 85
2, 151257, Note_on_c, 0, 44, 0
2, 151268, Note_on_c, 0, 44, 73
2, 151400, Note_on_c, 0, 53, 97
2, 151441, Note_on_c, 0, 44, 0
2, 151452, Note_on_c, 0, 44, 40
2, 151534, Note_on_c, 0, 44, 0
2, 151542, Note_on_c, 0, 44, 75
2, 151665, Note_on_c, 0, 51, 98
2, 151772, Note_on_c, 0, 44, 0
2, 151782, Note_on_c, 0, 44, 81
2, 151872, Note_on_c, 0, 53, 0
2, 151872, Note_on_c, 0, 58, 0
2, 151873, Note_on_c, 0, 80, 0
2, 151874, Note_on_c, 0, 39, 0
2, 151874, Note_on_c, 0, 82, 0
2, 151874, Note_on_c, 0, 70, 0
2, 151874, Control_c, 0, 64, 0
2, 151875, Note_on_c, 0, 84, 0
2, 151875, Note_on_c, 0, 87, 0
2, 151875, Note_on_c, 0, 75, 0
2, 151875, Note_on_c, 0, 44, 0
2, 151879, Note_on_c, 0, 32, 0
2, 151879, Note_on_c, 0, 55, 0
2, 151887, Note_on_c, 0, 48, 0
2, 151887, Note_on_c, 0, 51, 0
2, 151887, Note_on_c, 0, 72, 0
2, 151929, Note_on_c, 0, 91, 109
2, 151930, Note_on_c, 0, 84, 93
2, 151931, Note_on_c, 0, 41, 81
2, 151933, Note_on_c, 0, 79, 98
2, 151934, Note_on_c, 0, 87, 99
2, 151941, Control_c, 0, 64, 127
2, 152063, Note_on_c, 0, 89, 109
2, 152068, Note_on_c, 0, 77, 97
2, 152069, Note_on_c, 0, 48, 74
2, 152199, Note_on_c, 0, 51, 82
2, 152320, Note_on_c, 0, 56, 82
2, 152448, Note_on_c, 0, 89, 0
2, 152455, Note_on_c, 0, 77, 0
2, 152455, Note_on_c, 0, 84, 0
2, 152457, Note_on_c, 0, 89, 106
2, 152459, Note_on_c, 0, 80, 101
2, 152463, Note_on_c, 0, 77, 99
2, 152463, Note_on_c, 0, 84, 87
2, 152467, Note_on_c, 0, 60, 83
2, 152593, Note_on_c, 0, 87, 0
2, 152597, Note_on_c, 0, 87, 99
2, 152601, Note_on_c, 0, 53, 75
2, 152602, Note_on_c, 0, 75, 96
2, 152716, Note_on_c, 0, 56, 0
2, 152723, Note_on_c, 0, 56, 75
2, 152839, Note_on_c, 0, 60, 0
2, 152843, Note_on_c, 0, 72, 71
2, 152845, Note_on_c, 0, 60, 74
2, 152977, Note_on_c, 0, 87, 0
2, 152985, Note_on_c, 0, 75, 0
2, 152985, Note_on_c, 0, 80, 0
2, 152988, Note_on_c, 0, 63, 83
2, 152989, Note_on_c, 0, 87, 104
2, 152989, Note_on_c, 0, 75, 101
2, 152993, Note_on_c, 0, 84, 0
2, 152994, Control_c, 0, 64, 0
2, 152995, Note_on_c, 0, 80, 88
2, 153004, Note_on_c, 0, 84, 78
2, 153024, Control_c, 0, 64, 127
2, 153123, Note_on_c, 0, 86, 102
2, 153123, Note_on_c, 0, 60, 0
2, 153127, Note_on_c, 0, 74, 93
2, 153128, Note_on_c, 0, 60, 78
2, 153246, Note_on_c, 0, 63, 0
2, 153254, Note_on_c, 0, 75, 0
2, 153257, Note_on_c, 0, 63, 85
2, 153259, Note_on_c, 0, 75, 84
2, 153384, Note_on_c, 0, 68, 92
2, 153507, Note_on_c, 0, 72, 0
2, 153507, Note_on_c, 0, 75, 0
2, 153507, Note_on_c, 0, 84, 0
2, 153515, Note_on_c, 0, 80, 0
2, 153518, Note_on_c, 0, 84, 103
2, 153518, Note_on_c, 0, 72, 95
2, 153519, Note_on_c, 0, 75, 99
2, 153520, Note_on_c, 0, 80, 94
2, 153646, Note_on_c, 0, 68, 0
2, 153655, Note_on_c, 0, 68, 70
2, 153753, Note_on_c, 0, 60, 0
2, 153753, Note_on_c, 0, 63, 0
2, 153753, Note_on_c, 0, 91, 0
2, 153761, Note_on_c, 0, 79, 0
2, 153761, Note_on_c, 0, 60, 69
2, 153762, Note_on_c, 0, 91, 101
2, 153764, Note_on_c, 0, 63, 77
2, 153766, Note_on_c, 0, 79, 90
2, 153868, Note_on_c, 0, 60, 0
2, 153873, Note_on_c, 0, 60, 83
2, 153899, Note_on_c, 0, 77, 0
2, 153899, Note_on_c, 0, 89, 0
2, 153908, Note_on_c, 0, 89, 107
2, 153910, Note_on_c, 0, 82, 100
2, 153910, Note_on_c, 0, 77, 101
2, 153995, Note_on_c, 0, 41, 0
2, 153995, Note_on_c, 0, 79, 0
2, 153995, Note_on_c, 0, 84, 0
2, 153995, Note_on_c, 0, 53, 0
2, 153995, Note_on_c, 0, 87, 0
2, 153995, Note_on_c, 0, 63, 0
2, 153995, Note_on_c, 0, 74, 0
2, 153996, Note_on_c, 0, 60, 0
2, 153996, Note_on_c, 0, 48, 0
2, 153996, Note_on_c, 0, 51, 0
2, 153996, Note_on_c, 0, 80, 0
2, 154003, Control_c, 0, 64, 0
2, 154007, Note_on_c, 0, 56, 0
2, 154007, Note_on_c, 0, 68, 0
2, 154007, Note_on_c, 0, 72, 0
2, 154007, Note_on_c, 0, 75, 0
2, 154007, Note_on_c, 0, 91, 0
2, 154041, Note_on_c, 0, 34, 77
2, 154053, Control_c, 0, 64, 127
2, 154169, Note_on_c, 0, 41, 75
2, 154304, Note_on_c, 0, 46, 78
2, 154427, Note_on_c, 0, 48, 77
2, 154570, Note_on_c, 0, 53, 85
2, 154690, Note_on_c, 0, 46, 0
2, 154699, Note_on_c, 0, 46, 75
2, 154805, Note_on_c, 0, 53, 0
2, 154810, Note_on_c, 0, 53, 77
2, 154834, Note_on_c, 0, 72, 96
2, 154955, Note_on_c, 0, 58, 81
2, 155085, Note_on_c, 0, 60, 77
2, 155102, Note_on_c, 0, 70, 97
2, 155228, Note_on_c, 0, 53, 0
2, 155233, Note_on_c, 0, 53, 78
2, 155343, Note_on_c, 0, 46, 0
2, 155354, Note_on_c, 0, 46, 76
2, 155358, Note_on_c, 0, 58, 0
2, 155358, Note_on_c, 0, 72, 0
2, 155363, Note_on_c, 0, 58, 84
2, 155364, Note_on_c, 0, 72, 99
2, 155473, Note_on_c, 0, 60, 0
2, 155482, Note_on_c, 0, 60, 74
2, 155520, Note_on_c, 0, 86, 0
2, 155612, Note_on_c, 0, 77, 0
2, 155615, Note_on_c, 0, 79, 99
2, 155616, Note_on_c, 0, 65, 83
2, 155621, Note_on_c, 0, 77, 81
2, 155735, Note_on_c, 0, 60, 0
2, 155740, Note_on_c, 0, 60, 84
2, 155857, Note_on_c, 0, 72, 0
2, 155863, Note_on_c, 0, 72, 94
2, 155865, Note_on_c, 0, 58, 0
2, 155875, Note_on_c, 0, 58, 86
2, 155957, Note_on_c, 0, 53, 0
2, 155966, Note_on_c, 0, 53, 76
2, 156125, Note_on_c, 0, 48, 0
2, 156127, Note_on_c, 0, 82, 0
2, 156128, Note_on_c, 0, 41, 0
2, 156128, Note_on_c, 0, 34, 0
2, 156128, Note_on_c, 0, 79, 0
2, 156129, Note_on_c, 0, 65, 0
2, 156129, Note_on_c, 0, 77, 0
2, 156129, Note_on_c, 0, 53, 0
2, 156129, Note_on_c, 0, 58, 0
2, 156130, Note_on_c, 0, 70, 0
2, 156130, Note_on_c, 0, 72, 0
2, 156130, Note_on_c, 0, 60, 0
2, 156130, Control_c, 0, 64, 0
2, 156149, Note_on_c, 0, 89, 0
2, 156149, Note_on_c, 0, 87, 103
2, 156153, Note_on_c, 0, 96, 109
2, 156153, Note_on_c, 0, 43, 82
2, 156153, Note_on_c, 0, 84, 104
2, 156157, Note_on_c, 0, 46, 0
2, 156159, Note_on_c, 0, 91, 96
2, 156160, Note_on_c, 0, 36, 87
2, 156161, Note_on_c, 0, 39, 83
2, 156162, Note_on_c, 0, 51, 96
2, 156188, Note_on_c, 0, 36, 0
2, 156188, Control_c, 0, 64, 127
2, 156203, Note_on_c, 0, 39, 0
2, 156410, Note_on_c, 0, 53, 95
2, 156531, Note_on_c, 0, 48, 79
2, 156662, Note_on_c, 0, 58, 106
2, 156802, Note_on_c, 0, 48, 0
2, 156806, Note_on_c, 0, 48, 80
2, 156910, Note_on_c, 0, 87, 0
2, 156917, Note_on_c, 0, 87, 99
2, 156917, Note_on_c, 0, 48, 0
2, 156918, Note_on_c, 0, 99, 105
2, 156928, Note_on_c, 0, 48, 79
2, 157048, Note_on_c, 0, 48, 0
2, 157058, Note_on_c, 0, 48, 79
2, 157196, Note_on_c, 0, 86, 99
2, 157197, Note_on_c, 0, 55, 97
2, 157197, Note_on_c, 0, 98, 107
2, 157324, Note_on_c, 0, 48, 0
2, 157333, Note_on_c, 0, 48, 83
2, 157455, Note_on_c, 0, 48, 0
2, 157462, Note_on_c, 0, 48, 81
2, 157593, Note_on_c, 0, 48, 0
2, 157602, Note_on_c, 0, 48, 83
2, 157724, Note_on_c, 0, 53, 0
2, 157732, Note_on_c, 0, 53, 103
2, 157734, Note_on_c, 0, 94, 104
2, 157735, Note_on_c, 0, 82, 97
2, 157862, Note_on_c, 0, 48, 0
2, 157868, Note_on_c, 0, 48, 83
2, 157985, Note_on_c, 0, 51, 0
2, 157992, Note_on_c, 0, 82, 0
2, 157992, Note_on_c, 0, 87, 0
2, 157992, Note_on_c, 0, 91, 0
2, 157992, Note_on_c, 0, 94, 0
2, 157993, Note_on_c, 0, 51, 90
2, 157997, Note_on_c, 0, 82, 99
2, 157997, Note_on_c, 0, 94, 107
2, 158001, Note_on_c, 0, 91, 92
2, 158002, Note_on_c, 0, 87, 94
2, 158092, Note_on_c, 0, 48, 0
2, 158099, Note_on_c, 0, 48, 68
2, 158103, Note_on_c, 0, 47, 65
2, 158200, Note_on_c, 0, 47, 0
2, 158205, Note_on_c, 0, 98, 0
2, 158206, Note_on_c, 0, 53, 0
2, 158207, Note_on_c, 0, 96, 0
2, 158207, Note_on_c, 0, 43, 0
2, 158208, Note_on_c, 0, 86, 0
2, 158208, Note_on_c, 0, 99, 0
2, 158209, Note_on_c, 0, 84, 0
2, 158209, Note_on_c, 0, 48, 0
2, 158209, Note_on_c, 0, 55, 0
2, 158209, Note_on_c, 0, 58, 0
2, 158210, Note_on_c, 0, 87, 0
2, 158211, Control_c, 0, 64, 0
2, 158231, Note_on_c, 0, 51, 0
2, 158246, Note_on_c, 0, 91, 0
2, 158263, Note_on_c, 0, 34, 91
2, 158264, Note_on_c, 0, 41, 86
2, 158269, Control_c, 0, 64, 127
2, 158520, Note_on_c, 0, 48, 86
2, 158664, Note_on_c, 0, 46, 71
2, 158789, Note_on_c, 0, 58, 98
2, 158914, Note_on_c, 0, 34, 0
2, 158919, Note_on_c, 0, 34, 73
2, 159060, Note_on_c, 0, 46, 0
2, 159065, Note_on_c, 0, 46, 69
2, 159183, Note_on_c, 0, 46, 0
2, 159194, Note_on_c, 0, 46, 70
2, 159314, Note_on_c, 0, 55, 101
2, 159429, Note_on_c, 0, 46, 0
2, 159439, Note_on_c, 0, 46, 59
2, 159575, Note_on_c, 0, 46, 0
2, 159579, Note_on_c, 0, 46, 77
2, 159705, Note_on_c, 0, 46, 0
2, 159709, Note_on_c, 0, 58, 0
2, 159710, Note_on_c, 0, 46, 68
2, 159831, Note_on_c, 0, 53, 104
2, 159966, Note_on_c, 0, 46, 0
2, 159971, Note_on_c, 0, 46, 77
2, 160094, Note_on_c, 0, 89, 111
2, 160101, Note_on_c, 0, 77, 100
2, 160101, Note_on_c, 0, 51, 97
2, 160128, Note_on_c, 0, 94, 0
2, 160204, Note_on_c, 0, 46, 0
2, 160215, Note_on_c, 0, 46, 76
2, 160317, Note_on_c, 0, 48, 0
2, 160318, Control_c, 0, 64, 0
2, 160320, Note_on_c, 0, 41, 0
2, 160321, Note_on_c, 0, 34, 0
2, 160321, Note_on_c, 0, 46, 0
2, 160321, Note_on_c, 0, 51, 0
2, 160321, Note_on_c, 0, 53, 0
2, 160321, Note_on_c, 0, 55, 0
2, 160322, Note_on_c, 0, 89, 0
2, 160322, Note_on_c, 0, 77, 0
2, 160327, Note_on_c, 0, 82, 0
2, 160355, Note_on_c, 0, 91, 113
2, 160360, Note_on_c, 0, 79, 104
2, 160360, Note_on_c, 0, 84, 97
2, 160361, Note_on_c, 0, 87, 102
2, 160365, Note_on_c, 0, 33, 89
2, 160366, Control_c, 0, 64, 127
2, 160435, Note_on_c, 0, 33, 0
2, 160499, Note_on_c, 0, 45, 76
2, 160604, Note_on_c, 0, 91, 0
2, 160614, Note_on_c, 0, 48, 78
2, 160614, Note_on_c, 0, 91, 98
2, 160619, Note_on_c, 0, 79, 0
2, 160627, Note_on_c, 0, 87, 0
2, 160630, Note_on_c, 0, 79, 84
2, 160634, Note_on_c, 0, 87, 72
2, 160761, Note_on_c, 0, 53, 81
2, 160885, Note_on_c, 0, 69, 90
2, 160888, Note_on_c, 0, 84, 0
2, 160888, Note_on_c, 0, 87, 0
2, 160893, Note_on_c, 0, 57, 86
2, 160895, Note_on_c, 0, 84, 86
2, 160896, Note_on_c, 0, 87, 86
2, 160896, Note_on_c, 0, 89, 106
2, 160898, Note_on_c, 0, 77, 97
2, 160995, Note_on_c, 0, 53, 0
2, 161005, Note_on_c, 0, 53, 55
2, 161149, Note_on_c, 0, 57, 0
2, 161149, Note_on_c, 0, 89, 0
2, 161155, Note_on_c, 0, 57, 72
2, 161157, Note_on_c, 0, 77, 0
2, 161160, Note_on_c, 0, 89, 108
2, 161165, Note_on_c, 0, 77, 94
2, 161288, Note_on_c, 0, 60, 69
2, 161410, Note_on_c, 0, 84, 0
2, 161410, Note_on_c, 0, 87, 0
2, 161421, Note_on_c, 0, 87, 103
2, 161421, Note_on_c, 0, 84, 87
2, 161422, Note_on_c, 0, 65, 81
2, 161422, Note_on_c, 0, 81, 92
2, 161422, Note_on_c, 0, 75, 104
2, 161544, Note_on_c, 0, 86, 100
2, 161548, Note_on_c, 0, 81, 0
2, 161552, Note_on_c, 0, 74, 83
2, 161555, Note_on_c, 0, 81, 72
2, 161564, Note_on_c, 0, 60, 0
2, 161572, Note_on_c, 0, 72, 78
2, 161572, Note_on_c, 0, 60, 81
2, 161679, Note_on_c, 0, 65, 0
2, 161684, Note_on_c, 0, 65, 75
2, 161809, Note_on_c, 0, 72, 0
2, 161809, Note_on_c, 0, 77, 0
2, 161809, Note_on_c, 0, 81, 0
2, 161809, Note_on_c, 0, 84, 0
2, 161811, Note_on_c, 0, 67, 93
2, 161813, Note_on_c, 0, 84, 103
2, 161814, Note_on_c, 0, 81, 99
2, 161816, Note_on_c, 0, 72, 96
2, 161819, Note_on_c, 0, 77, 94
2, 161932, Note_on_c, 0, 69, 0
2, 161938, Note_on_c, 0, 69, 93
2, 162078, Note_on_c, 0, 65, 0
2, 162089, Note_on_c, 0, 65, 70
2, 162089, Note_on_c, 0, 64, 80
2, 162193, Note_on_c, 0, 60, 0
2, 162198, Note_on_c, 0, 48, 0
2, 162202, Note_on_c, 0, 60, 86
2, 162309, Note_on_c, 0, 53, 0
2, 162318, Note_on_c, 0, 53, 95
2, 162430, Control_c, 0, 64, 0
2, 162431, Note_on_c, 0, 65, 0
2, 162431, Note_on_c, 0, 79, 0
2, 162431, Note_on_c, 0, 86, 0
2, 162431, Note_on_c, 0, 81, 0
2, 162431, Note_on_c, 0, 64, 0
2, 162432, Note_on_c, 0, 91, 0
2, 162432, Note_on_c, 0, 57, 0
2, 162432, Note_on_c, 0, 69, 0
2, 162432, Note_on_c, 0, 75, 0
2, 162432, Note_on_c, 0, 60, 0
2, 162432, Note_on_c, 0, 74, 0
2, 162432, Note_on_c, 0, 72, 0
2, 162433, Note_on_c, 0, 89, 0
2, 162434, Note_on_c, 0, 67, 0
2, 162447, Note_on_c, 0, 53, 0
2, 162447, Note_on_c, 0, 77, 0
2, 162455, Note_on_c, 0, 45, 0
2, 162462, Note_on_c, 0, 84, 0
2, 162462, Note_on_c, 0, 87, 0
2, 162466, Note_on_c, 0, 91, 113
2, 162469, Note_on_c, 0, 79, 105
2, 162470, Note_on_c, 0, 84, 95
2, 162474, Note_on_c, 0, 87, 100
2, 162474, Note_on_c, 0, 32, 93
2, 162485, Control_c, 0, 64, 127
2, 162599, Note_on_c, 0, 44, 82
2, 162722, Note_on_c, 0, 48, 81
2, 162726, Note_on_c, 0, 89, 108
2, 162728, Note_on_c, 0, 77, 96
2, 162857, Note_on_c, 0, 51, 80
2, 162977, Note_on_c, 0, 84, 0
2, 162977, Note_on_c, 0, 91, 0
2, 162984, Note_on_c, 0, 79, 0
2, 162984, Note_on_c, 0, 87, 0
2, 162987, Note_on_c, 0, 91, 110
2, 162988, Note_on_c, 0, 84, 87
2, 162988, Note_on_c, 0, 56, 83
2, 162990, Note_on_c, 0, 79, 98
2, 162991, Note_on_c, 0, 87, 94
2, 163092, Note_on_c, 0, 48, 0
2, 163103, Note_on_c, 0, 48, 81
2, 163238, Note_on_c, 0, 89, 0
2, 163246, Note_on_c, 0, 51, 0
2, 163246, Note_on_c, 0, 77, 0
2, 163247, Note_on_c, 0, 89, 106
2, 163251, Note_on_c, 0, 77, 98
2, 163252, Note_on_c, 0, 51, 76
2, 163361, Note_on_c, 0, 56, 0
2, 163371, Note_on_c, 0, 56, 81
2, 163491, Note_on_c, 0, 79, 0
2, 163491, Note_on_c, 0, 87, 0
2, 163491, Note_on_c, 0, 91, 0
2, 163497, Note_on_c, 0, 91, 108
2, 163499, Note_on_c, 0, 84, 0
2, 163501, Note_on_c, 0, 87, 93
2, 163501, Note_on_c, 0, 79, 101
2, 163503, Note_on_c, 0, 84, 84
2, 163506, Note_on_c, 0, 60, 88
2, 163630, Note_on_c, 0, 51, 0
2, 163639, Note_on_c, 0, 51, 80
2, 163752, Note_on_c, 0, 84, 0
2, 163760, Note_on_c, 0, 56, 0
2, 163762, Note_on_c, 0, 92, 96
2, 163762, Note_on_c, 0, 84, 76
2, 163763, Note_on_c, 0, 80, 100
2, 163764, Note_on_c, 0, 56, 86
2, 163891, Note_on_c, 0, 60, 0
2, 163891, Note_on_c, 0, 87, 0
2, 163895, Note_on_c, 0, 60, 80
2, 163898, Note_on_c, 0, 84, 0
2, 163900, Note_on_c, 0, 87, 103
2, 163903, Note_on_c, 0, 84, 88
2, 163906, Note_on_c, 0, 80, 0
2, 163910, Note_on_c, 0, 75, 91
2, 163910, Note_on_c, 0, 80, 85
2, 163960, Note_on_c, 0, 92, 0
2, 163960, Note_on_c, 0, 91, 0
2, 163960, Note_on_c, 0, 89, 0
2, 163961, Note_on_c, 0, 77, 0
2, 163961, Note_on_c, 0, 79, 0
2, 163961, Control_c, 0, 64, 0
2, 163961, Note_on_c, 0, 56, 0
2, 163961, Note_on_c, 0, 60, 0
2, 163968, Note_on_c, 0, 32, 0
2, 163975, Note_on_c, 0, 44, 0
2, 163975, Note_on_c, 0, 51, 0
2, 163983, Note_on_c, 0, 48, 0
2, 164014, Control_c, 0, 64, 127
2, 164021, Note_on_c, 0, 34, 91
2, 164142, Note_on_c, 0, 46, 80
2, 164275, Note_on_c, 0, 91, 111
2, 164276, Note_on_c, 0, 53, 85
2, 164279, Note_on_c, 0, 79, 94
2, 164401, Note_on_c, 0, 58, 89
2, 164547, Note_on_c, 0, 34, 0
2, 164548, Note_on_c, 0, 53, 0
2, 164549, Note_on_c, 0, 46, 0
2, 164549, Note_on_c, 0, 91, 0
2, 164550, Control_c, 0, 64, 0
2, 164550, Note_on_c, 0, 58, 0
2, 164550, Note_on_c, 0, 75, 0
2, 164563, Note_on_c, 0, 36, 84
2, 164563, Note_on_c, 0, 48, 87
2, 164574, Note_on_c, 0, 87, 0
2, 164666, Control_c, 0, 64, 127
2, 164689, Note_on_c, 0, 84, 0
2, 164847, Note_on_c, 0, 74, 67
2, 164881, Note_on_c, 0, 36, 0
2, 165096, Note_on_c, 0, 75, 78
2, 165096, Note_on_c, 0, 48, 0
2, 165101, Note_on_c, 0, 48, 62
2, 165101, Note_on_c, 0, 67, 64
2, 165104, Note_on_c, 0, 72, 60
2, 165365, Note_on_c, 0, 72, 0
2, 165372, Note_on_c, 0, 72, 60
2, 165381, Note_on_c, 0, 67, 0
2, 165390, Note_on_c, 0, 67, 33
2, 165634, Note_on_c, 0, 75, 0
2, 165638, Note_on_c, 0, 75, 70
2, 165642, Note_on_c, 0, 72, 0
2, 165646, Note_on_c, 0, 72, 62
2, 165649, Note_on_c, 0, 67, 0
2, 165660, Note_on_c, 0, 67, 58
2, 165903, Note_on_c, 0, 74, 0
2, 165912, Note_on_c, 0, 74, 58
2, 165934, Note_on_c, 0, 67, 0
2, 165934, Note_on_c, 0, 72, 0
2, 165940, Note_on_c, 0, 67, 23
2, 165943, Note_on_c, 0, 72, 28
2, 166179, Note_on_c, 0, 75, 0
2, 166187, Note_on_c, 0, 67, 0
2, 166187, Note_on_c, 0, 72, 0
2, 166191, Note_on_c, 0, 75, 70
2, 166192, Note_on_c, 0, 67, 52
2, 166198, Note_on_c, 0, 72, 55
2, 166199, Control_c, 0, 64, 0
2, 166264, Control_c, 0, 64, 127
2, 166471, Note_on_c, 0, 72, 0
2, 166480, Note_on_c, 0, 72, 54
2, 166732, Note_on_c, 0, 80, 0
2, 166740, Note_on_c, 0, 75, 0
2, 166751, Note_on_c, 0, 75, 70
2, 166755, Note_on_c, 0, 72, 0
2, 166762, Note_on_c, 0, 72, 57
2, 166771, Note_on_c, 0, 68, 56
2, 166773, Control_c, 0, 64, 0
2, 166791, Note_on_c, 0, 74, 0
2, 166792, Note_on_c, 0, 48, 0
2, 166809, Note_on_c, 0, 67, 0
2, 166832, Control_c, 0, 64, 127
2, 166886, Note_on_c, 0, 79, 0
2, 167033, Note_on_c, 0, 74, 61
2, 167301, Note_on_c, 0, 68, 0
2, 167301, Note_on_c, 0, 75, 0
2, 167308, Note_on_c, 0, 72, 0
2, 167309, Note_on_c, 0, 75, 61
2, 167312, Note_on_c, 0, 68, 53
2, 167314, Control_c, 0, 64, 0
2, 167318, Note_on_c, 0, 72, 46
2, 167329, Note_on_c, 0, 74, 0
2, 167377, Control_c, 0, 64, 127
2, 167577, Note_on_c, 0, 72, 0
2, 167588, Note_on_c, 0, 72, 56
2, 167854, Note_on_c, 0, 68, 0
2, 167854, Note_on_c, 0, 75, 0
2, 167861, Note_on_c, 0, 72, 0
2, 167863, Note_on_c, 0, 68, 51
2, 167865, Note_on_c, 0, 75, 56
2, 167865, Control_c, 0, 64, 0
2, 167865, Note_on_c, 0, 72, 55
2, 167923, Control_c, 0, 64, 127
2, 168150, Note_on_c, 0, 74, 60
2, 168407, Note_on_c, 0, 75, 0
2, 168411, Note_on_c, 0, 75, 58
2, 168414, Note_on_c, 0, 68, 0
2, 168414, Note_on_c, 0, 72, 0
2, 168425, Note_on_c, 0, 68, 43
2, 168425, Note_on_c, 0, 72, 48
2, 168427, Control_c, 0, 64, 0
2, 168445, Control_c, 0, 64, 127
2, 168683, Note_on_c, 0, 72, 0
2, 168689, Note_on_c, 0, 72, 56
2, 168965, Note_on_c, 0, 77, 69
2, 168971, Control_c, 0, 64, 0
2, 168971, Note_on_c, 0, 67, 52
2, 168975, Note_on_c, 0, 70, 58
2, 168979, Note_on_c, 0, 74, 0
2, 168981, Note_on_c, 0, 68, 0
2, 168982, Note_on_c, 0, 75, 0
2, 169006, Note_on_c, 0, 72, 0
2, 169044, Control_c, 0, 64, 127
2, 169251, Note_on_c, 0, 74, 51
2, 169512, Note_on_c, 0, 77, 0
2, 169517, Note_on_c, 0, 77, 67
2, 169528, Note_on_c, 0, 67, 0
2, 169528, Note_on_c, 0, 70, 0
2, 169534, Note_on_c, 0, 67, 47
2, 169535, Note_on_c, 0, 70, 58
2, 169541, Control_c, 0, 64, 0
2, 169545, Note_on_c, 0, 74, 0
2, 169612, Control_c, 0, 64, 127
2, 169803, Note_on_c, 0, 72, 54
2, 170073, Note_on_c, 0, 67, 0
2, 170073, Note_on_c, 0, 77, 0
2, 170077, Note_on_c, 0, 77, 63
2, 170081, Note_on_c, 0, 70, 0
2, 170083, Note_on_c, 0, 67, 43
2, 170091, Note_on_c, 0, 70, 55
2, 170095, Control_c, 0, 64, 0
2, 170100, Note_on_c, 0, 72, 0
2, 170150, Control_c, 0, 64, 127
2, 170372, Note_on_c, 0, 74, 50
2, 170626, Note_on_c, 0, 77, 0
2, 170634, Note_on_c, 0, 67, 0
2, 170634, Note_on_c, 0, 70, 0
2, 170635, Note_on_c, 0, 77, 62
2, 170644, Note_on_c, 0, 67, 45
2, 170645, Note_on_c, 0, 70, 52
2, 170646, Control_c, 0, 64, 0
2, 170703, Control_c, 0, 64, 127
2, 170914, Note_on_c, 0, 72, 50
2, 171194, Note_on_c, 0, 72, 0
2, 171196, Note_on_c, 0, 75, 61
2, 171201, Note_on_c, 0, 72, 49
2, 171213, Note_on_c, 0, 68, 50
2, 171214, Control_c, 0, 64, 0
2, 171224, Note_on_c, 0, 74, 0
2, 171224, Note_on_c, 0, 70, 0
2, 171226, Note_on_c, 0, 77, 0
2, 171256, Note_on_c, 0, 67, 0
2, 171271, Control_c, 0, 64, 127
2, 171489, Note_on_c, 0, 74, 52
2, 171740, Note_on_c, 0, 75, 0
2, 171750, Note_on_c, 0, 75, 62
2, 171755, Note_on_c, 0, 72, 0
2, 171759, Note_on_c, 0, 72, 55
2, 171763, Note_on_c, 0, 68, 0
2, 171768, Note_on_c, 0, 68, 43
2, 171772, Control_c, 0, 64, 0
2, 171840, Control_c, 0, 64, 127
2, 172039, Note_on_c, 0, 72, 0
2, 172045, Note_on_c, 0, 72, 48
2, 172300, Note_on_c, 0, 75, 0
2, 172308, Note_on_c, 0, 72, 0
2, 172309, Note_on_c, 0, 75, 58
2, 172316, Note_on_c, 0, 68, 0
2, 172317, Note_on_c, 0, 72, 49
2, 172320, Control_c, 0, 64, 0
2, 172323, Note_on_c, 0, 68, 49
2, 172385, Note_on_c, 0, 74, 0
2, 172392, Control_c, 0, 64, 127
2, 172615, Note_on_c, 0, 74, 50
2, 172915, Note_on_c, 0, 75, 0
2, 172921, Note_on_c, 0, 75, 56
2, 172922, Note_on_c, 0, 68, 0
2, 172922, Note_on_c, 0, 72, 0
2, 172928, Note_on_c, 0, 72, 43
2, 172933, Note_on_c, 0, 68, 41
2, 172934, Control_c, 0, 64, 0
2, 172949, Note_on_c, 0, 74, 0
2, 173345, Note_on_c, 0, 72, 0
2, 173349, Note_on_c, 0, 72, 44
2, 177530, Note_on_c, 0, 75, 0
2, 177538, Note_on_c, 0, 68, 0
2, 177960, Note_on_c, 0, 72, 0
2, 177961, End_track
0, 0, End_of_file
