0, 0, Header, 1, 2, 384
1, 0, Start_track
1, 0, Tempo, 500000
1, 0, Time_signature, 4, 2, 24, 8
1, 1, End_track
2, 0, Start_track
2, 1152, Control_c, 0, 64, 127
2, 1213, Control_c, 0, 64, 0
2, 1291, Note_on_c, 0, 49, 87
2, 1297, Control_c, 0, 64, 127
2, 1459, Note_on_c, 0, 49, 0
2, 1461, Note_on_c, 0, 73, 108
2, 1469, Note_on_c, 0, 56, 89
2, 1469, Note_on_c, 0, 49, 84
2, 1469, Note_on_c, 0, 61, 93
2, 1470, Note_on_c, 0, 63, 90
2, 1470, Note_on_c, 0, 68, 81
2, 2140, Note_on_c, 0, 72, 101
2, 2154, Note_on_c, 0, 64, 92
2, 2818, Note_on_c, 0, 73, 0
2, 2823, Note_on_c, 0, 73, 104
2, 2826, Note_on_c, 0, 63, 0
2, 2837, Note_on_c, 0, 63, 70
2, 3486, Note_on_c, 0, 68, 0
2, 3490, Note_on_c, 0, 68, 99
2, 3500, Note_on_c, 0, 52, 79
2, 3793, Note_on_c, 0, 56, 0
2, 3803, Note_on_c, 0, 56, 87
2, 3947, Note_on_c, 0, 49, 0
2, 3957, Note_on_c, 0, 49, 93
2, 4131, Note_on_c, 0, 73, 0
2, 4136, Note_on_c, 0, 73, 108
2, 4139, Note_on_c, 0, 56, 0
2, 4139, Note_on_c, 0, 61, 0
2, 4139, Note_on_c, 0, 63, 0
2, 4145, Control_c, 0, 64, 0
2, 4145, Note_on_c, 0, 61, 93
2, 4145, Note_on_c, 0, 63, 87
2, 4150, Note_on_c, 0, 56, 86
2, 4160, Note_on_c, 0, 72, 0
2, 4161, Note_on_c, 0, 64, 0
2, 4166, Note_on_c, 0, 52, 0
2, 4216, Control_c, 0, 64, 127
2, 4804, Note_on_c, 0, 72, 95
2, 4808, Note_on_c, 0, 64, 86
2, 5445, Note_on_c, 0, 63, 0
2, 5445, Note_on_c, 0, 73, 0
2, 5449, Note_on_c, 0, 73, 100
2, 5452, Note_on_c, 0, 63, 69
2, 6088, Control_c, 0, 64, 0
2, 6097, Note_on_c, 0, 64, 0
2, 6100, Note_on_c, 0, 97, 117
2, 6102, Note_on_c, 0, 85, 115
2, 6104, Note_on_c, 0, 64, 105
2, 6104, Note_on_c, 0, 72, 0
2, 6108, Note_on_c, 0, 52, 102
2, 6108, Note_on_c, 0, 73, 0
2, 6113, Note_on_c, 0, 68, 0
2, 6120, Control_c, 0, 64, 127
2, 6136, Note_on_c, 0, 49, 0
2, 6136, Note_on_c, 0, 63, 0
2, 6151, Note_on_c, 0, 61, 0
2, 6205, Note_on_c, 0, 56, 0
2, 6251, Note_on_c, 0, 95, 116
2, 6254, Note_on_c, 0, 83, 113
2, 6389, Note_on_c, 0, 68, 102
2, 6392, Note_on_c, 0, 56, 102
2, 6397, Note_on_c, 0, 68, 0
2, 6408, Note_on_c, 0, 93, 116
2, 6416, Note_on_c, 0, 81, 107
2, 6440, Note_on_c, 0, 92, 49
2, 6551, Note_on_c, 0, 92, 0
2, 6554, Note_on_c, 0, 92, 105
2, 6558, Note_on_c, 0, 80, 112
2, 6579, Note_on_c, 0, 90, 63
2, 6604, Control_c, 0, 64, 0
2, 6631, Note_on_c, 0, 49, 98
2, 6643, Control_c, 0, 64, 127
2, 6727, Note_on_c, 0, 80, 0
2, 6730, Note_on_c, 0, 73, 110
2, 6732, Note_on_c, 0, 80, 104
2, 6743, Note_on_c, 0, 64, 0
2, 6743, Note_on_c, 0, 76, 94
2, 6749, Note_on_c, 0, 64, 80
2, 6891, Note_on_c, 0, 63, 81
2, 6985, Note_on_c, 0, 61, 71
2, 7042, Note_on_c, 0, 64, 0
2, 7042, Note_on_c, 0, 81, 0
2, 7051, Note_on_c, 0, 64, 92
2, 7052, Note_on_c, 0, 81, 102
2, 7196, Note_on_c, 0, 63, 0
2, 7203, Note_on_c, 0, 63, 75
2, 7296, Note_on_c, 0, 61, 0
2, 7306, Note_on_c, 0, 61, 74
2, 7369, Note_on_c, 0, 78, 107
2, 7375, Note_on_c, 0, 72, 103
2, 7376, Note_on_c, 0, 75, 98
2, 7384, Note_on_c, 0, 66, 93
2, 7464, Note_on_c, 0, 61, 0
2, 7470, Note_on_c, 0, 61, 75
2, 7534, Note_on_c, 0, 63, 0
2, 7545, Note_on_c, 0, 63, 53
2, 7610, Note_on_c, 0, 61, 0
2, 7617, Note_on_c, 0, 61, 70
2, 7687, Note_on_c, 0, 66, 0
2, 7694, Note_on_c, 0, 66, 96
2, 7764, Note_on_c, 0, 61, 0
2, 7768, Note_on_c, 0, 61, 91
2, 7841, Note_on_c, 0, 63, 0
2, 7846, Note_on_c, 0, 63, 77
2, 7848, Note_on_c, 0, 80, 0
2, 7853, Note_on_c, 0, 80, 102
2, 7933, Note_on_c, 0, 61, 0
2, 7943, Note_on_c, 0, 61, 76
2, 8002, Note_on_c, 0, 73, 0
2, 8010, Note_on_c, 0, 76, 0
2, 8012, Note_on_c, 0, 73, 100
2, 8014, Note_on_c, 0, 76, 86
2, 8014, Note_on_c, 0, 68, 105
2, 8094, Note_on_c, 0, 61, 0
2, 8100, Note_on_c, 0, 61, 76
2, 8156, Note_on_c, 0, 63, 0
2, 8166, Note_on_c, 0, 63, 69
2, 8232, Note_on_c, 0, 61, 0
2, 8236, Note_on_c, 0, 61, 83
2, 8302, Note_on_c, 0, 68, 0
2, 8311, Note_on_c, 0, 68, 97
2, 8340, Note_on_c, 0, 73, 0
2, 8340, Note_on_c, 0, 76, 0
2, 8345, Note_on_c, 0, 76, 89
2, 8350, Note_on_c, 0, 73, 67
2, 8394, Note_on_c, 0, 61, 0
2, 8400, Note_on_c, 0, 61, 73
2, 8486, Note_on_c, 0, 56, 0
2, 8495, Note_on_c, 0, 56, 91
2, 8578, Note_on_c, 0, 61, 0
2, 8587, Note_on_c, 0, 61, 72
2, 8647, Note_on_c, 0, 64, 0
2, 8653, Note_on_c, 0, 64, 109
2, 8724, Note_on_c, 0, 63, 0
2, 8732, Note_on_c, 0, 63, 94
2, 8801, Note_on_c, 0, 61, 0
2, 8807, Note_on_c, 0, 61, 90
2, 8862, Note_on_c, 0, 56, 0
2, 8874, Note_on_c, 0, 56, 103
2, 8947, Note_on_c, 0, 68, 0
2, 8958, Note_on_c, 0, 68, 113
2, 9047, Note_on_c, 0, 61, 0
2, 9057, Note_on_c, 0, 61, 91
2, 9123, Note_on_c, 0, 56, 0
2, 9127, Note_on_c, 0, 56, 86
2, 9177, Note_on_c, 0, 93, 0
2, 9185, Note_on_c, 0, 49, 0
2, 9185, Control_c, 0, 64, 0
2, 9190, Note_on_c, 0, 49, 109
2, 9200, Note_on_c, 0, 97, 0
2, 9208, Note_on_c, 0, 90, 0
2, 9216, Control_c, 0, 64, 127
2, 9231, Note_on_c, 0, 85, 0
2, 9262, Note_on_c, 0, 92, 0
2, 9269, Note_on_c, 0, 73, 0
2, 9269, Note_on_c, 0, 80, 0
2, 9273, Note_on_c, 0, 73, 106
2, 9273, Note_on_c, 0, 80, 109
2, 9277, Note_on_c, 0, 76, 0
2, 9277, Note_on_c, 0, 95, 0
2, 9281, Note_on_c, 0, 76, 99
2, 9292, Note_on_c, 0, 64, 0
2, 9297, Note_on_c, 0, 64, 97
2, 9377, Note_on_c, 0, 61, 0
2, 9388, Note_on_c, 0, 61, 78
2, 9446, Note_on_c, 0, 63, 0
2, 9456, Note_on_c, 0, 63, 75
2, 9523, Note_on_c, 0, 61, 0
2, 9530, Note_on_c, 0, 61, 89
2, 9600, Note_on_c, 0, 52, 0
2, 9600, Note_on_c, 0, 72, 0
2, 9600, Note_on_c, 0, 75, 0
2, 9600, Note_on_c, 0, 78, 0
2, 9600, Note_on_c, 0, 83, 0
2, 9607, Note_on_c, 0, 64, 0
2, 9607, Note_on_c, 0, 81, 0
2, 9615, Note_on_c, 0, 81, 103
2, 9618, Note_on_c, 0, 64, 97
2, 9684, Note_on_c, 0, 61, 0
2, 9695, Note_on_c, 0, 61, 76
2, 9753, Note_on_c, 0, 63, 0
2, 9761, Note_on_c, 0, 63, 83
2, 9830, Note_on_c, 0, 61, 0
2, 9841, Note_on_c, 0, 61, 91
2, 9930, Note_on_c, 0, 66, 0
2, 9934, Note_on_c, 0, 78, 110
2, 9935, Note_on_c, 0, 66, 103
2, 9936, Note_on_c, 0, 72, 105
2, 9942, Note_on_c, 0, 75, 92
2, 10022, Note_on_c, 0, 61, 0
2, 10026, Note_on_c, 0, 61, 72
2, 10106, Note_on_c, 0, 63, 0
2, 10111, Note_on_c, 0, 63, 67
2, 10176, Note_on_c, 0, 61, 0
2, 10186, Note_on_c, 0, 61, 74
2, 10245, Note_on_c, 0, 66, 0
2, 10252, Note_on_c, 0, 66, 107
2, 10329, Note_on_c, 0, 61, 0
2, 10340, Note_on_c, 0, 61, 81
2, 10406, Note_on_c, 0, 63, 0
2, 10417, Note_on_c, 0, 63, 90
2, 10425, Note_on_c, 0, 83, 106
2, 10506, Note_on_c, 0, 61, 0
2, 10514, Note_on_c, 0, 61, 94
2, 10575, Note_on_c, 0, 73, 0
2, 10583, Note_on_c, 0, 68, 0
2, 10583, Note_on_c, 0, 80, 0
2, 10586, Note_on_c, 0, 73, 104
2, 10587, Note_on_c, 0, 80, 92
2, 10591, Note_on_c, 0, 68, 109
2, 10598, Note_on_c, 0, 76, 0
2, 10602, Note_on_c, 0, 76, 84
2, 10682, Note_on_c, 0, 61, 0
2, 10687, Note_on_c, 0, 61, 86
2, 10736, Note_on_c, 0, 63, 0
2, 10747, Note_on_c, 0, 63, 77
2, 10813, Note_on_c, 0, 61, 0
2, 10824, Note_on_c, 0, 61, 82
2, 10882, Note_on_c, 0, 68, 0
2, 10892, Note_on_c, 0, 68, 109
2, 10897, Note_on_c, 0, 73, 0
2, 10902, Note_on_c, 0, 73, 104
2, 10982, Note_on_c, 0, 64, 0
2, 10987, Note_on_c, 0, 64, 77
2, 10990, Note_on_c, 0, 63, 0
2, 10997, Note_on_c, 0, 80, 0
2, 11000, Note_on_c, 0, 63, 85
2, 11009, Note_on_c, 0, 80, 100
2, 11066, Note_on_c, 0, 61, 0
2, 11071, Note_on_c, 0, 61, 84
2, 11079, Note_on_c, 0, 85, 91
2, 11117, Note_on_c, 0, 88, 107
2, 11148, Control_c, 0, 64, 0
2, 11156, Note_on_c, 0, 83, 0
2, 11158, Note_on_c, 0, 64, 0
2, 11159, Note_on_c, 0, 76, 0
2, 11159, Note_on_c, 0, 75, 0
2, 11160, Note_on_c, 0, 81, 0
2, 11160, Note_on_c, 0, 49, 0
2, 11161, Note_on_c, 0, 68, 0
2, 11161, Note_on_c, 0, 63, 0
2, 11161, Note_on_c, 0, 80, 0
2, 11161, Note_on_c, 0, 78, 0
2, 11162, Note_on_c, 0, 61, 0
2, 11162, Note_on_c, 0, 72, 0
2, 11174, Note_on_c, 0, 56, 0
2, 11174, Note_on_c, 0, 73, 0
2, 11182, Note_on_c, 0, 66, 0
2, 11197, Note_on_c, 0, 85, 0
2, 11199, Note_on_c, 0, 97, 117
2, 11207, Note_on_c, 0, 85, 112
2, 11228, Note_on_c, 0, 88, 0
2, 11353, Note_on_c, 0, 95, 117
2, 11361, Note_on_c, 0, 83, 110
2, 11389, Note_on_c, 0, 97, 0
2, 11489, Control_c, 0, 64, 127
2, 11493, Note_on_c, 0, 93, 115
2, 11496, Note_on_c, 0, 69, 106
2, 11501, Note_on_c, 0, 81, 108
2, 11522, Note_on_c, 0, 67, 98
2, 11535, Note_on_c, 0, 65, 99
2, 11554, Note_on_c, 0, 62, 94
2, 11559, Note_on_c, 0, 60, 92
2, 11574, Note_on_c, 0, 59, 85
2, 11577, Note_on_c, 0, 57, 67
2, 11597, Note_on_c, 0, 53, 71
2, 11639, Note_on_c, 0, 48, 91
2, 11656, Note_on_c, 0, 80, 107
2, 11657, Note_on_c, 0, 92, 109
2, 11767, Control_c, 0, 64, 0
2, 11771, Note_on_c, 0, 48, 0
2, 11771, Note_on_c, 0, 60, 0
2, 11771, Note_on_c, 0, 67, 0
2, 11771, Note_on_c, 0, 57, 0
2, 11772, Note_on_c, 0, 69, 0
2, 11772, Note_on_c, 0, 65, 0
2, 11772, Note_on_c, 0, 53, 0
2, 11772, Note_on_c, 0, 62, 0
2, 11772, Note_on_c, 0, 95, 0
2, 11773, Note_on_c, 0, 85, 0
2, 11773, Note_on_c, 0, 83, 0
2, 11773, Note_on_c, 0, 93, 0
2, 11774, Note_on_c, 0, 59, 0
2, 11774, Note_on_c, 0, 81, 0
2, 11775, Note_on_c, 0, 92, 0
2, 11775, Note_on_c, 0, 80, 0
2, 11821, Note_on_c, 0, 61, 112
2, 11821, Note_on_c, 0, 73, 115
2, 11826, Note_on_c, 0, 37, 102
2, 11829, Note_on_c, 0, 25, 98
2, 11830, Note_on_c, 0, 71, 93
2, 11835, Note_on_c, 0, 70, 83
2, 11857, Control_c, 0, 64, 127
2, 12142, Note_on_c, 0, 37, 0
2, 12145, Note_on_c, 0, 49, 99
2, 12151, Note_on_c, 0, 37, 83
2, 12295, Note_on_c, 0, 25, 0
2, 12295, Note_on_c, 0, 37, 0
2, 12300, Note_on_c, 0, 25, 95
2, 12305, Note_on_c, 0, 37, 94
2, 12318, Note_on_c, 0, 61, 0
2, 12327, Note_on_c, 0, 61, 93
2, 12461, Note_on_c, 0, 32, 95
2, 12461, Note_on_c, 0, 61, 0
2, 12462, Control_c, 0, 64, 0
2, 12468, Note_on_c, 0, 44, 90
2, 12472, Note_on_c, 0, 64, 106
2, 12480, Note_on_c, 0, 49, 0
2, 12487, Note_on_c, 0, 73, 0
2, 12510, Note_on_c, 0, 25, 0
2, 12518, Note_on_c, 0, 37, 0
2, 12549, Control_c, 0, 64, 127
2, 12637, Note_on_c, 0, 61, 104
2, 12654, Note_on_c, 0, 49, 73
2, 12779, Note_on_c, 0, 49, 0
2, 12785, Note_on_c, 0, 49, 94
2, 12787, Note_on_c, 0, 44, 0
2, 12788, Note_on_c, 0, 37, 82
2, 12791, Note_on_c, 0, 44, 77
2, 12933, Note_on_c, 0, 32, 0
2, 12943, Note_on_c, 0, 32, 81
2, 12946, Note_on_c, 0, 59, 99
2, 12971, Note_on_c, 0, 70, 0
2, 13057, Note_on_c, 0, 49, 0
2, 13057, Control_c, 0, 64, 0
2, 13058, Note_on_c, 0, 37, 0
2, 13058, Note_on_c, 0, 32, 0
2, 13058, Note_on_c, 0, 44, 0
2, 13059, Note_on_c, 0, 61, 0
2, 13059, Note_on_c, 0, 59, 0
2, 13060, Note_on_c, 0, 64, 0
2, 13063, Note_on_c, 0, 71, 0
2, 13105, Note_on_c, 0, 61, 104
2, 13105, Note_on_c, 0, 37, 104
2, 13109, Note_on_c, 0, 49, 99
2, 13186, Control_c, 0, 64, 127
2, 13267, Note_on_c, 0, 68, 106
2, 13401, Note_on_c, 0, 49, 0
2, 13401, Note_on_c, 0, 68, 0
2, 13409, Note_on_c, 0, 37, 0
2, 13411, Note_on_c, 0, 49, 100
2, 13412, Note_on_c, 0, 68, 99
2, 13412, Note_on_c, 0, 44, 78
2, 13413, Note_on_c, 0, 37, 82
2, 13414, Note_on_c, 0, 32, 72
2, 13570, Note_on_c, 0, 37, 0
2, 13570, Note_on_c, 0, 49, 0
2, 13570, Note_on_c, 0, 68, 0
2, 13577, Note_on_c, 0, 68, 106
2, 13581, Note_on_c, 0, 37, 96
2, 13581, Note_on_c, 0, 49, 92
2, 13662, Note_on_c, 0, 32, 0
2, 13670, Control_c, 0, 64, 0
2, 13676, Note_on_c, 0, 49, 0
2, 13677, Note_on_c, 0, 61, 0
2, 13677, Note_on_c, 0, 37, 0
2, 13678, Note_on_c, 0, 68, 0
2, 13685, Note_on_c, 0, 44, 0
2, 13735, Note_on_c, 0, 68, 109
2, 13740, Note_on_c, 0, 32, 101
2, 13741, Note_on_c, 0, 44, 96
2, 13816, Control_c, 0, 64, 127
2, 14046, Note_on_c, 0, 49, 97
2, 14054, Note_on_c, 0, 44, 0
2, 14064, Note_on_c, 0, 44, 82
2, 14064, Note_on_c, 0, 37, 71
2, 14068, Note_on_c, 0, 64, 111
2, 14204, Note_on_c, 0, 34, 85
2, 14223, Note_on_c, 0, 63, 101
2, 14311, Control_c, 0, 64, 0
2, 14318, Note_on_c, 0, 34, 0
2, 14318, Note_on_c, 0, 68, 0
2, 14319, Note_on_c, 0, 32, 0
2, 14319, Note_on_c, 0, 44, 0
2, 14319, Note_on_c, 0, 37, 0
2, 14319, Note_on_c, 0, 49, 0
2, 14320, Note_on_c, 0, 63, 0
2, 14320, Note_on_c, 0, 64, 0
2, 14380, Note_on_c, 0, 61, 110
2, 14380, Note_on_c, 0, 25, 105
2, 14380, Note_on_c, 0, 37, 102
2, 14381, Note_on_c, 0, 56, 102
2, 14423, Control_c, 0, 64, 127
2, 14699, Note_on_c, 0, 37, 0
2, 14710, Note_on_c, 0, 37, 86
2, 14710, Note_on_c, 0, 49, 94
2, 14714, Note_on_c, 0, 44, 88
2, 14853, Note_on_c, 0, 37, 0
2, 14861, Note_on_c, 0, 37, 89
2, 14868, Note_on_c, 0, 61, 0
2, 14876, Note_on_c, 0, 61, 103
2, 15001, Control_c, 0, 64, 0
2, 15001, Note_on_c, 0, 56, 0
2, 15003, Note_on_c, 0, 61, 0
2, 15022, Note_on_c, 0, 25, 0
2, 15029, Note_on_c, 0, 49, 0
2, 15030, Note_on_c, 0, 32, 94
2, 15033, Note_on_c, 0, 64, 110
2, 15068, Control_c, 0, 64, 127
2, 15195, Note_on_c, 0, 61, 105
2, 15336, Note_on_c, 0, 49, 95
2, 15344, Note_on_c, 0, 32, 0
2, 15352, Note_on_c, 0, 44, 0
2, 15354, Note_on_c, 0, 32, 80
2, 15361, Note_on_c, 0, 44, 79
2, 15482, Note_on_c, 0, 32, 0
2, 15487, Note_on_c, 0, 32, 84
2, 15503, Note_on_c, 0, 59, 94
2, 15623, Note_on_c, 0, 49, 0
2, 15623, Note_on_c, 0, 44, 0
2, 15624, Note_on_c, 0, 32, 0
2, 15625, Note_on_c, 0, 64, 0
2, 15625, Note_on_c, 0, 59, 0
2, 15630, Control_c, 0, 64, 0
2, 15636, Note_on_c, 0, 37, 0
2, 15651, Note_on_c, 0, 61, 0
2, 15653, Note_on_c, 0, 33, 97
2, 15662, Note_on_c, 0, 61, 101
2, 15728, Control_c, 0, 64, 127
2, 15814, Note_on_c, 0, 68, 107
2, 15959, Note_on_c, 0, 68, 0
2, 15964, Note_on_c, 0, 68, 106
2, 15965, Note_on_c, 0, 52, 98
2, 15969, Note_on_c, 0, 49, 102
2, 16097, Note_on_c, 0, 68, 0
2, 16098, Note_on_c, 0, 45, 98
2, 16107, Note_on_c, 0, 68, 104
2, 16190, Control_c, 0, 64, 0
2, 16192, Note_on_c, 0, 61, 0
2, 16192, Note_on_c, 0, 52, 0
2, 16193, Note_on_c, 0, 49, 0
2, 16197, Note_on_c, 0, 33, 0
2, 16204, Note_on_c, 0, 45, 0
2, 16212, Note_on_c, 0, 68, 0
2, 16275, Note_on_c, 0, 85, 112
2, 16276, Note_on_c, 0, 47, 96
2, 16276, Note_on_c, 0, 73, 115
2, 16278, Note_on_c, 0, 35, 86
2, 16281, Control_c, 0, 64, 127
2, 16434, Note_on_c, 0, 71, 111
2, 16435, Note_on_c, 0, 83, 114
2, 16594, Note_on_c, 0, 59, 106
2, 16595, Note_on_c, 0, 81, 114
2, 16598, Note_on_c, 0, 69, 110
2, 16599, Note_on_c, 0, 54, 95
2, 16600, Note_on_c, 0, 51, 91
2, 16746, Note_on_c, 0, 80, 111
2, 16752, Note_on_c, 0, 68, 111
2, 16864, Note_on_c, 0, 73, 0
2, 16864, Note_on_c, 0, 81, 0
2, 16865, Note_on_c, 0, 83, 0
2, 16865, Control_c, 0, 64, 0
2, 16865, Note_on_c, 0, 85, 0
2, 16865, Note_on_c, 0, 80, 0
2, 16865, Note_on_c, 0, 71, 0
2, 16866, Note_on_c, 0, 51, 0
2, 16867, Note_on_c, 0, 68, 0
2, 16867, Note_on_c, 0, 59, 0
2, 16867, Note_on_c, 0, 54, 0
2, 16867, Note_on_c, 0, 69, 0
2, 16872, Note_on_c, 0, 47, 0
2, 16880, Note_on_c, 0, 35, 0
2, 16906, Note_on_c, 0, 73, 117
2, 16908, Note_on_c, 0, 49, 109
2, 16910, Note_on_c, 0, 61, 112
2, 16912, Note_on_c, 0, 37, 105
2, 16915, Note_on_c, 0, 64, 82
2, 16942, Control_c, 0, 64, 127
2, 16942, Note_on_c, 0, 36, 67
2, 17230, Note_on_c, 0, 56, 103
2, 17238, Note_on_c, 0, 52, 88
2, 17379, Note_on_c, 0, 49, 0
2, 17379, Note_on_c, 0, 73, 0
2, 17384, Note_on_c, 0, 73, 104
2, 17388, Note_on_c, 0, 49, 89
2, 17479, Note_on_c, 0, 36, 0
2, 17486, Control_c, 0, 64, 0
2, 17490, Note_on_c, 0, 37, 0
2, 17490, Note_on_c, 0, 52, 0
2, 17490, Note_on_c, 0, 64, 0
2, 17490, Note_on_c, 0, 49, 0
2, 17490, Note_on_c, 0, 56, 0
2, 17490, Note_on_c, 0, 73, 0
2, 17491, Note_on_c, 0, 61, 0
2, 17536, Note_on_c, 0, 44, 103
2, 17537, Note_on_c, 0, 32, 101
2, 17546, Note_on_c, 0, 76, 108
2, 17564, Control_c, 0, 64, 127
2, 17702, Note_on_c, 0, 44, 0
2, 17706, Note_on_c, 0, 73, 114
2, 17709, Note_on_c, 0, 44, 73
2, 17856, Note_on_c, 0, 44, 0
2, 17859, Note_on_c, 0, 56, 102
2, 17867, Note_on_c, 0, 51, 91
2, 17867, Note_on_c, 0, 44, 90
2, 17994, Note_on_c, 0, 44, 0
2, 17999, Note_on_c, 0, 44, 98
2, 18022, Note_on_c, 0, 71, 108
2, 18112, Note_on_c, 0, 44, 0
2, 18113, Note_on_c, 0, 51, 0
2, 18113, Note_on_c, 0, 76, 0
2, 18113, Control_c, 0, 64, 0
2, 18113, Note_on_c, 0, 73, 0
2, 18113, Note_on_c, 0, 56, 0
2, 18115, Note_on_c, 0, 71, 0
2, 18124, Note_on_c, 0, 32, 0
2, 18172, Note_on_c, 0, 73, 111
2, 18172, Note_on_c, 0, 37, 104
2, 18174, Note_on_c, 0, 49, 103
2, 18201, Control_c, 0, 64, 127
2, 18333, Note_on_c, 0, 68, 112
2, 18334, Note_on_c, 0, 80, 112
2, 18478, Note_on_c, 0, 68, 0
2, 18478, Note_on_c, 0, 80, 0
2, 18481, Note_on_c, 0, 56, 104
2, 18482, Note_on_c, 0, 44, 93
2, 18486, Note_on_c, 0, 68, 111
2, 18486, Note_on_c, 0, 80, 112
2, 18497, Note_on_c, 0, 52, 84
2, 18631, Note_on_c, 0, 37, 0
2, 18631, Note_on_c, 0, 49, 0
2, 18631, Note_on_c, 0, 68, 0
2, 18631, Note_on_c, 0, 80, 0
2, 18635, Note_on_c, 0, 49, 101
2, 18639, Note_on_c, 0, 68, 105
2, 18639, Note_on_c, 0, 37, 83
2, 18641, Note_on_c, 0, 80, 112
2, 18742, Note_on_c, 0, 37, 0
2, 18743, Note_on_c, 0, 52, 0
2, 18743, Note_on_c, 0, 49, 0
2, 18743, Note_on_c, 0, 80, 0
2, 18743, Note_on_c, 0, 73, 0
2, 18744, Note_on_c, 0, 56, 0
2, 18745, Control_c, 0, 64, 0
2, 18754, Note_on_c, 0, 44, 0
2, 18762, Note_on_c, 0, 68, 0
2, 18801, Note_on_c, 0, 44, 110
2, 18803, Note_on_c, 0, 32, 98
2, 18804, Note_on_c, 0, 68, 113
2, 18805, Note_on_c, 0, 80, 114
2, 18831, Control_c, 0, 64, 127
2, 19111, Note_on_c, 0, 56, 101
2, 19115, Note_on_c, 0, 44, 0
2, 19119, Note_on_c, 0, 51, 88
2, 19126, Note_on_c, 0, 44, 97
2, 19133, Note_on_c, 0, 76, 109
2, 19253, Note_on_c, 0, 44, 0
2, 19264, Note_on_c, 0, 44, 100
2, 19289, Note_on_c, 0, 75, 107
2, 19441, Note_on_c, 0, 73, 116
2, 19442, Note_on_c, 0, 33, 104
2, 19443, Note_on_c, 0, 45, 110
2, 19495, Note_on_c, 0, 68, 0
2, 19496, Note_on_c, 0, 56, 0
2, 19496, Note_on_c, 0, 51, 0
2, 19497, Note_on_c, 0, 75, 0
2, 19499, Note_on_c, 0, 76, 0
2, 19501, Control_c, 0, 64, 0
2, 19502, Note_on_c, 0, 73, 0
2, 19503, Note_on_c, 0, 45, 0
2, 19505, Note_on_c, 0, 33, 0
2, 19514, Note_on_c, 0, 32, 0
2, 19514, Note_on_c, 0, 80, 0
2, 19522, Note_on_c, 0, 44, 0
2, 19749, Note_on_c, 0, 49, 102
2, 19750, Note_on_c, 0, 37, 90
2, 19753, Note_on_c, 0, 73, 115
2, 19755, Note_on_c, 0, 52, 99
2, 19757, Note_on_c, 0, 85, 112
2, 19760, Control_c, 0, 64, 127
2, 19771, Note_on_c, 0, 76, 105
2, 19791, Note_on_c, 0, 37, 0
2, 19909, Note_on_c, 0, 45, 98
2, 19910, Note_on_c, 0, 33, 96
2, 20011, Note_on_c, 0, 33, 0
2, 20012, Note_on_c, 0, 45, 0
2, 20012, Note_on_c, 0, 85, 0
2, 20012, Control_c, 0, 64, 0
2, 20012, Note_on_c, 0, 52, 0
2, 20013, Note_on_c, 0, 73, 0
2, 20014, Note_on_c, 0, 76, 0
2, 20021, Note_on_c, 0, 49, 0
2, 20076, Note_on_c, 0, 73, 111
2, 20077, Note_on_c, 0, 47, 111
2, 20079, Note_on_c, 0, 35, 103
2, 20144, Note_on_c, 0, 47, 0
2, 20160, Note_on_c, 0, 35, 0
2, 20198, Note_on_c, 0, 73, 0
2, 20388, Note_on_c, 0, 54, 101
2, 20388, Note_on_c, 0, 73, 117
2, 20393, Note_on_c, 0, 85, 111
2, 20400, Note_on_c, 0, 51, 88
2, 20406, Note_on_c, 0, 39, 71
2, 20410, Note_on_c, 0, 75, 91
2, 20413, Note_on_c, 0, 39, 0
2, 20414, Note_on_c, 0, 78, 90
2, 20416, Note_on_c, 0, 82, 82
2, 20428, Control_c, 0, 64, 127
2, 20555, Note_on_c, 0, 47, 90
2, 20556, Note_on_c, 0, 35, 93
2, 20666, Note_on_c, 0, 35, 0
2, 20666, Note_on_c, 0, 75, 0
2, 20667, Note_on_c, 0, 51, 0
2, 20669, Note_on_c, 0, 85, 0
2, 20669, Note_on_c, 0, 78, 0
2, 20670, Note_on_c, 0, 47, 0
2, 20675, Control_c, 0, 64, 0
2, 20682, Note_on_c, 0, 54, 0
2, 20682, Note_on_c, 0, 82, 0
2, 20697, Note_on_c, 0, 73, 0
2, 20708, Note_on_c, 0, 73, 114
2, 20713, Note_on_c, 0, 49, 99
2, 20716, Note_on_c, 0, 37, 100
2, 20766, Control_c, 0, 64, 127
2, 20803, Control_c, 0, 64, 0
2, 20835, Note_on_c, 0, 49, 0
2, 20843, Note_on_c, 0, 37, 0
2, 20851, Note_on_c, 0, 73, 0
2, 20877, Note_on_c, 0, 73, 114
2, 20877, Note_on_c, 0, 85, 116
2, 20879, Note_on_c, 0, 25, 95
2, 20885, Note_on_c, 0, 76, 109
2, 20889, Note_on_c, 0, 25, 0
2, 20894, Note_on_c, 0, 80, 84
2, 20914, Note_on_c, 0, 73, 0
2, 20958, Note_on_c, 0, 76, 0
2, 20958, Note_on_c, 0, 85, 0
2, 20989, Control_c, 0, 64, 127
2, 21020, Control_c, 0, 64, 0
2, 21029, Note_on_c, 0, 73, 112
2, 21030, Note_on_c, 0, 85, 112
2, 21035, Note_on_c, 0, 80, 0
2, 21038, Note_on_c, 0, 76, 102
2, 21044, Note_on_c, 0, 80, 92
2, 21120, Control_c, 0, 64, 127
2, 21135, Control_c, 0, 64, 0
2, 21158, Note_on_c, 0, 73, 0
2, 21181, Note_on_c, 0, 76, 0
2, 21181, Note_on_c, 0, 85, 0
2, 21183, Note_on_c, 0, 73, 111
2, 21184, Note_on_c, 0, 37, 103
2, 21186, Note_on_c, 0, 25, 93
2, 21188, Note_on_c, 0, 85, 105
2, 21192, Note_on_c, 0, 76, 99
2, 21196, Note_on_c, 0, 80, 0
2, 21205, Note_on_c, 0, 80, 78
2, 21219, Control_c, 0, 64, 127
2, 21335, Note_on_c, 0, 73, 0
2, 21335, Note_on_c, 0, 85, 0
2, 21343, Note_on_c, 0, 85, 111
2, 21344, Note_on_c, 0, 73, 111
2, 21350, Note_on_c, 0, 76, 0
2, 21350, Note_on_c, 0, 80, 0
2, 21354, Note_on_c, 0, 80, 98
2, 21355, Note_on_c, 0, 76, 93
2, 21488, Note_on_c, 0, 25, 0
2, 21488, Note_on_c, 0, 37, 0
2, 21493, Note_on_c, 0, 37, 95
2, 21498, Note_on_c, 0, 25, 95
2, 21670, Note_on_c, 0, 32, 94
2, 21671, Note_on_c, 0, 44, 98
2, 21811, Note_on_c, 0, 76, 0
2, 21815, Note_on_c, 0, 76, 96
2, 21849, Note_on_c, 0, 80, 0
2, 21859, Note_on_c, 0, 80, 102
2, 21872, Note_on_c, 0, 85, 0
2, 21883, Note_on_c, 0, 85, 105
2, 21911, Note_on_c, 0, 25, 0
2, 21913, Note_on_c, 0, 32, 0
2, 21914, Note_on_c, 0, 37, 0
2, 21914, Note_on_c, 0, 76, 0
2, 21914, Note_on_c, 0, 73, 0
2, 21914, Note_on_c, 0, 44, 0
2, 21915, Note_on_c, 0, 80, 0
2, 21917, Control_c, 0, 64, 0
2, 21972, Note_on_c, 0, 85, 0
2, 21985, Note_on_c, 0, 49, 105
2, 21987, Note_on_c, 0, 88, 112
2, 21989, Note_on_c, 0, 37, 99
2, 21994, Note_on_c, 0, 76, 107
2, 22018, Control_c, 0, 64, 127
2, 22145, Note_on_c, 0, 87, 110
2, 22147, Note_on_c, 0, 75, 107
2, 22295, Note_on_c, 0, 49, 0
2, 22302, Note_on_c, 0, 61, 95
2, 22304, Note_on_c, 0, 49, 94
2, 22310, Note_on_c, 0, 90, 110
2, 22321, Note_on_c, 0, 78, 90
2, 22440, Note_on_c, 0, 37, 0
2, 22440, Note_on_c, 0, 49, 0
2, 22448, Note_on_c, 0, 88, 0
2, 22451, Note_on_c, 0, 49, 96
2, 22451, Note_on_c, 0, 37, 83
2, 22459, Note_on_c, 0, 88, 110
2, 22464, Note_on_c, 0, 76, 0
2, 22470, Note_on_c, 0, 76, 103
2, 22560, Note_on_c, 0, 37, 0
2, 22560, Control_c, 0, 64, 0
2, 22560, Note_on_c, 0, 75, 0
2, 22560, Note_on_c, 0, 87, 0
2, 22561, Note_on_c, 0, 90, 0
2, 22561, Note_on_c, 0, 78, 0
2, 22561, Note_on_c, 0, 88, 0
2, 22561, Note_on_c, 0, 61, 0
2, 22561, Note_on_c, 0, 76, 0
2, 22579, Note_on_c, 0, 49, 0
2, 22613, Note_on_c, 0, 92, 113
2, 22613, Note_on_c, 0, 44, 102
2, 22613, Note_on_c, 0, 32, 95
2, 22613, Note_on_c, 0, 80, 111
2, 22632, Control_c, 0, 64, 127
2, 22649, Note_on_c, 0, 90, 58
2, 22771, Note_on_c, 0, 90, 0
2, 22776, Note_on_c, 0, 78, 100
2, 22780, Note_on_c, 0, 90, 105
2, 22920, Note_on_c, 0, 60, 103
2, 22927, Note_on_c, 0, 93, 109
2, 22949, Note_on_c, 0, 51, 79
2, 22950, Note_on_c, 0, 81, 90
2, 23055, Note_on_c, 0, 44, 0
2, 23066, Note_on_c, 0, 44, 95
2, 23078, Note_on_c, 0, 92, 0
2, 23084, Note_on_c, 0, 92, 107
2, 23101, Note_on_c, 0, 82, 74
2, 23188, Note_on_c, 0, 80, 0
2, 23188, Note_on_c, 0, 92, 0
2, 23189, Note_on_c, 0, 60, 0
2, 23189, Note_on_c, 0, 78, 0
2, 23189, Note_on_c, 0, 51, 0
2, 23189, Note_on_c, 0, 93, 0
2, 23189, Note_on_c, 0, 81, 0
2, 23189, Note_on_c, 0, 90, 0
2, 23190, Control_c, 0, 64, 0
2, 23193, Note_on_c, 0, 82, 0
2, 23201, Note_on_c, 0, 32, 0
2, 23208, Note_on_c, 0, 44, 0
2, 23237, Note_on_c, 0, 90, 110
2, 23238, Note_on_c, 0, 78, 111
2, 23243, Note_on_c, 0, 49, 103
2, 23244, Note_on_c, 0, 37, 98
2, 23262, Control_c, 0, 64, 127
2, 23396, Note_on_c, 0, 92, 108
2, 23403, Note_on_c, 0, 80, 107
2, 23545, Note_on_c, 0, 61, 95
2, 23546, Note_on_c, 0, 49, 0
2, 23550, Note_on_c, 0, 88, 110
2, 23551, Note_on_c, 0, 49, 89
2, 23557, Note_on_c, 0, 76, 104
2, 23575, Note_on_c, 0, 52, 55
2, 23669, Note_on_c, 0, 37, 0
2, 23669, Note_on_c, 0, 49, 0
2, 23673, Note_on_c, 0, 49, 82
2, 23675, Note_on_c, 0, 37, 69
2, 23711, Note_on_c, 0, 87, 106
2, 23712, Note_on_c, 0, 75, 104
2, 23731, Note_on_c, 0, 88, 0
2, 23742, Note_on_c, 0, 88, 65
2, 23805, Note_on_c, 0, 37, 0
2, 23806, Note_on_c, 0, 88, 0
2, 23806, Note_on_c, 0, 49, 0
2, 23806, Note_on_c, 0, 78, 0
2, 23806, Note_on_c, 0, 92, 0
2, 23806, Note_on_c, 0, 52, 0
2, 23806, Note_on_c, 0, 80, 0
2, 23807, Note_on_c, 0, 90, 0
2, 23807, Note_on_c, 0, 87, 0
2, 23807, Note_on_c, 0, 76, 0
2, 23808, Note_on_c, 0, 61, 0
2, 23808, Note_on_c, 0, 75, 0
2, 23810, Control_c, 0, 64, 0
2, 23865, Note_on_c, 0, 88, 111
2, 23870, Note_on_c, 0, 44, 92
2, 23870, Note_on_c, 0, 32, 90
2, 23872, Note_on_c, 0, 76, 107
2, 23892, Control_c, 0, 64, 127
2, 24012, Note_on_c, 0, 92, 113
2, 24025, Note_on_c, 0, 80, 108
2, 24172, Note_on_c, 0, 60, 97
2, 24178, Note_on_c, 0, 87, 110
2, 24180, Note_on_c, 0, 75, 105
2, 24182, Note_on_c, 0, 51, 79
2, 24187, Note_on_c, 0, 54, 76
2, 24322, Note_on_c, 0, 44, 0
2, 24322, Note_on_c, 0, 92, 0
2, 24331, Note_on_c, 0, 44, 86
2, 24332, Note_on_c, 0, 92, 112
2, 24337, Note_on_c, 0, 80, 0
2, 24342, Note_on_c, 0, 80, 105
2, 24411, Control_c, 0, 64, 0
2, 24412, Note_on_c, 0, 76, 0
2, 24413, Note_on_c, 0, 44, 0
2, 24413, Note_on_c, 0, 60, 0
2, 24414, Note_on_c, 0, 51, 0
2, 24415, Note_on_c, 0, 80, 0
2, 24415, Note_on_c, 0, 88, 0
2, 24416, Note_on_c, 0, 75, 0
2, 24416, Note_on_c, 0, 92, 0
2, 24416, Note_on_c, 0, 87, 0
2, 24422, Note_on_c, 0, 32, 0
2, 24430, Note_on_c, 0, 54, 0
2, 24487, Note_on_c, 0, 85, 108
2, 24488, Note_on_c, 0, 73, 112
2, 24492, Note_on_c, 0, 49, 102
2, 24495, Note_on_c, 0, 37, 92
2, 24514, Control_c, 0, 64, 127
2, 24642, Note_on_c, 0, 68, 103
2, 24648, Note_on_c, 0, 80, 97
2, 24791, Note_on_c, 0, 73, 0
2, 24791, Note_on_c, 0, 85, 0
2, 24798, Note_on_c, 0, 49, 0
2, 24798, Note_on_c, 0, 85, 112
2, 24801, Note_on_c, 0, 73, 111
2, 24802, Note_on_c, 0, 61, 91
2, 24809, Note_on_c, 0, 49, 88
2, 24819, Note_on_c, 0, 52, 63
2, 24936, Note_on_c, 0, 49, 0
2, 24942, Note_on_c, 0, 49, 88
2, 24964, Note_on_c, 0, 87, 104
2, 24964, Note_on_c, 0, 75, 104
2, 25048, Note_on_c, 0, 52, 0
2, 25048, Note_on_c, 0, 49, 0
2, 25048, Note_on_c, 0, 80, 0
2, 25048, Note_on_c, 0, 68, 0
2, 25048, Note_on_c, 0, 73, 0
2, 25048, Note_on_c, 0, 61, 0
2, 25048, Note_on_c, 0, 87, 0
2, 25049, Control_c, 0, 64, 0
2, 25049, Note_on_c, 0, 85, 0
2, 25049, Note_on_c, 0, 75, 0
2, 25052, Note_on_c, 0, 37, 0
2, 25117, Note_on_c, 0, 32, 91
2, 25117, Note_on_c, 0, 44, 94
2, 25117, Note_on_c, 0, 88, 110
2, 25129, Note_on_c, 0, 76, 98
2, 25144, Control_c, 0, 64, 127
2, 25274, Note_on_c, 0, 80, 106
2, 25275, Note_on_c, 0, 68, 100
2, 25420, Note_on_c, 0, 60, 96
2, 25424, Note_on_c, 0, 87, 107
2, 25430, Note_on_c, 0, 75, 98
2, 25430, Note_on_c, 0, 51, 76
2, 25433, Note_on_c, 0, 54, 75
2, 25551, Note_on_c, 0, 44, 0
2, 25562, Note_on_c, 0, 44, 92
2, 25582, Note_on_c, 0, 68, 0
2, 25582, Note_on_c, 0, 80, 0
2, 25586, Note_on_c, 0, 80, 101
2, 25587, Note_on_c, 0, 68, 80
2, 25672, Control_c, 0, 64, 0
2, 25676, Note_on_c, 0, 68, 0
2, 25676, Note_on_c, 0, 87, 0
2, 25676, Note_on_c, 0, 88, 0
2, 25677, Note_on_c, 0, 80, 0
2, 25677, Note_on_c, 0, 76, 0
2, 25677, Note_on_c, 0, 75, 0
2, 25677, Note_on_c, 0, 60, 0
2, 25677, Note_on_c, 0, 51, 0
2, 25678, Note_on_c, 0, 54, 0
2, 25697, Note_on_c, 0, 32, 0
2, 25697, Note_on_c, 0, 44, 0
2, 25724, Note_on_c, 0, 85, 111
2, 25730, Note_on_c, 0, 73, 102
2, 25731, Note_on_c, 0, 37, 95
2, 25733, Note_on_c, 0, 49, 94
2, 25758, Control_c, 0, 64, 127
2, 25797, Note_on_c, 0, 49, 0
2, 25889, Note_on_c, 0, 68, 94
2, 25891, Note_on_c, 0, 80, 91
2, 26014, Note_on_c, 0, 61, 99
2, 26035, Note_on_c, 0, 85, 0
2, 26042, Note_on_c, 0, 73, 0
2, 26046, Note_on_c, 0, 85, 107
2, 26048, Note_on_c, 0, 73, 104
2, 26053, Note_on_c, 0, 52, 77
2, 26061, Note_on_c, 0, 56, 67
2, 26158, Note_on_c, 0, 37, 0
2, 26171, Control_c, 0, 64, 0
2, 26172, Note_on_c, 0, 80, 0
2, 26172, Note_on_c, 0, 68, 0
2, 26172, Note_on_c, 0, 52, 0
2, 26172, Note_on_c, 0, 73, 0
2, 26173, Note_on_c, 0, 56, 0
2, 26174, Note_on_c, 0, 61, 0
2, 26174, Note_on_c, 0, 85, 0
2, 26200, Note_on_c, 0, 32, 89
2, 26201, Note_on_c, 0, 44, 91
2, 26201, Note_on_c, 0, 83, 97
2, 26203, Note_on_c, 0, 71, 101
2, 26233, Note_on_c, 0, 44, 0
2, 26250, Control_c, 0, 64, 127
2, 26359, Note_on_c, 0, 81, 100
2, 26363, Note_on_c, 0, 69, 96
2, 26368, Note_on_c, 0, 57, 76
2, 26512, Note_on_c, 0, 68, 106
2, 26513, Note_on_c, 0, 80, 108
2, 26514, Note_on_c, 0, 44, 85
2, 26664, Note_on_c, 0, 80, 0
2, 26668, Note_on_c, 0, 92, 114
2, 26669, Note_on_c, 0, 80, 105
2, 26670, Note_on_c, 0, 56, 94
2, 26680, Note_on_c, 0, 44, 0
2, 26686, Note_on_c, 0, 44, 83
2, 26691, Note_on_c, 0, 51, 83
2, 26795, Note_on_c, 0, 44, 0
2, 26803, Note_on_c, 0, 44, 56
2, 26945, Control_c, 0, 64, 0
2, 26949, Note_on_c, 0, 71, 0
2, 26950, Note_on_c, 0, 81, 0
2, 26951, Note_on_c, 0, 92, 0
2, 26951, Note_on_c, 0, 80, 0
2, 26951, Note_on_c, 0, 56, 0
2, 26951, Note_on_c, 0, 44, 0
2, 26951, Note_on_c, 0, 51, 0
2, 26952, Note_on_c, 0, 69, 0
2, 26952, Note_on_c, 0, 68, 0
2, 26956, Note_on_c, 0, 83, 0
2, 26972, Note_on_c, 0, 32, 0
2, 26979, Note_on_c, 0, 57, 0
2, 26980, Note_on_c, 0, 64, 97
2, 26995, Note_on_c, 0, 37, 92
2, 26999, Note_on_c, 0, 49, 81
2, 27048, Control_c, 0, 64, 127
2, 27297, Note_on_c, 0, 66, 95
2, 27300, Note_on_c, 0, 56, 91
2, 27313, Note_on_c, 0, 64, 0
2, 27315, Control_c, 0, 64, 0
2, 27317, Note_on_c, 0, 37, 0
2, 27321, Note_on_c, 0, 52, 65
2, 27333, Note_on_c, 0, 49, 0
2, 27337, Note_on_c, 0, 66, 0
2, 27345, Note_on_c, 0, 52, 0
2, 27363, Note_on_c, 0, 56, 0
2, 27459, Note_on_c, 0, 63, 90
2, 27468, Note_on_c, 0, 49, 63
2, 27500, Note_on_c, 0, 49, 0
2, 27621, Note_on_c, 0, 44, 78
2, 27663, Control_c, 0, 64, 127
2, 27778, Note_on_c, 0, 44, 0
2, 27783, Note_on_c, 0, 44, 69
2, 27784, Note_on_c, 0, 64, 94
2, 27823, Note_on_c, 0, 63, 0
2, 27833, Note_on_c, 0, 44, 0
2, 27843, Control_c, 0, 64, 0
2, 27940, Note_on_c, 0, 54, 85
2, 27952, Note_on_c, 0, 51, 74
2, 27973, Note_on_c, 0, 54, 0
2, 28001, Note_on_c, 0, 51, 0
2, 28078, Note_on_c, 0, 64, 0
2, 28088, Note_on_c, 0, 44, 75
2, 28090, Note_on_c, 0, 61, 92
2, 28127, Note_on_c, 0, 44, 0
2, 28250, Note_on_c, 0, 37, 72
2, 28285, Control_c, 0, 64, 127
2, 28409, Note_on_c, 0, 44, 52
2, 28410, Note_on_c, 0, 63, 82
2, 28555, Note_on_c, 0, 37, 0
2, 28559, Note_on_c, 0, 61, 0
2, 28562, Control_c, 0, 64, 0
2, 28563, Note_on_c, 0, 56, 87
2, 28582, Note_on_c, 0, 52, 68
2, 28608, Note_on_c, 0, 44, 0
2, 28608, Note_on_c, 0, 56, 0
2, 28612, Note_on_c, 0, 52, 0
2, 28723, Note_on_c, 0, 57, 87
2, 28745, Note_on_c, 0, 49, 64
2, 28746, Note_on_c, 0, 63, 0
2, 28786, Note_on_c, 0, 49, 0
2, 28871, Note_on_c, 0, 44, 74
2, 29044, Note_on_c, 0, 56, 81
2, 29077, Note_on_c, 0, 57, 0
2, 29193, Note_on_c, 0, 54, 65
2, 29195, Note_on_c, 0, 51, 70
2, 29227, Note_on_c, 0, 51, 0
2, 29232, Note_on_c, 0, 56, 0
2, 29233, Note_on_c, 0, 54, 0
2, 29237, Note_on_c, 0, 44, 0
2, 29351, Note_on_c, 0, 44, 85
2, 29356, Note_on_c, 0, 56, 77
2, 29388, Note_on_c, 0, 44, 0
2, 29504, Note_on_c, 0, 37, 87
2, 29514, Note_on_c, 0, 64, 90
2, 29520, Note_on_c, 0, 61, 78
2, 29544, Note_on_c, 0, 56, 0
2, 29575, Control_c, 0, 64, 127
2, 29808, Note_on_c, 0, 56, 99
2, 29813, Note_on_c, 0, 66, 97
2, 29832, Note_on_c, 0, 52, 76
2, 29841, Note_on_c, 0, 61, 0
2, 29843, Note_on_c, 0, 64, 0
2, 29846, Control_c, 0, 64, 0
2, 29847, Note_on_c, 0, 56, 0
2, 29852, Note_on_c, 0, 37, 0
2, 29862, Note_on_c, 0, 52, 0
2, 29869, Note_on_c, 0, 66, 0
2, 29985, Note_on_c, 0, 63, 90
2, 29985, Note_on_c, 0, 49, 65
2, 30017, Note_on_c, 0, 49, 0
2, 30132, Note_on_c, 0, 44, 77
2, 30297, Note_on_c, 0, 44, 0
2, 30305, Control_c, 0, 64, 127
2, 30305, Note_on_c, 0, 64, 98
2, 30309, Note_on_c, 0, 44, 64
2, 30340, Note_on_c, 0, 63, 0
2, 30345, Control_c, 0, 64, 0
2, 30364, Note_on_c, 0, 44, 0
2, 30449, Note_on_c, 0, 54, 91
2, 30473, Note_on_c, 0, 51, 73
2, 30566, Control_c, 0, 64, 127
2, 30610, Note_on_c, 0, 61, 95
2, 30616, Note_on_c, 0, 44, 73
2, 30654, Control_c, 0, 64, 0
2, 30660, Note_on_c, 0, 54, 0
2, 30662, Note_on_c, 0, 44, 0
2, 30662, Note_on_c, 0, 51, 0
2, 30662, Note_on_c, 0, 64, 0
2, 30767, Note_on_c, 0, 45, 92
2, 30926, Note_on_c, 0, 71, 107
2, 30961, Note_on_c, 0, 61, 0
2, 31061, Note_on_c, 0, 45, 0
2, 31085, Note_on_c, 0, 52, 88
2, 31089, Note_on_c, 0, 49, 87
2, 31187, Note_on_c, 0, 49, 0
2, 31192, Note_on_c, 0, 52, 0
2, 31239, Note_on_c, 0, 73, 104
2, 31245, Note_on_c, 0, 45, 90
2, 31260, Note_on_c, 0, 71, 0
2, 31349, Note_on_c, 0, 45, 0
2, 31396, Note_on_c, 0, 47, 96
2, 31413, Note_on_c, 0, 61, 91
2, 31518, Control_c, 0, 64, 127
2, 31574, Note_on_c, 0, 59, 77
2, 31706, Note_on_c, 0, 35, 87
2, 31729, Note_on_c, 0, 57, 91
2, 31875, Note_on_c, 0, 56, 91
2, 31977, Control_c, 0, 64, 0
2, 31983, Note_on_c, 0, 73, 0
2, 31984, Note_on_c, 0, 59, 0
2, 31984, Note_on_c, 0, 35, 0
2, 31984, Note_on_c, 0, 57, 0
2, 31985, Note_on_c, 0, 61, 0
2, 31985, Note_on_c, 0, 56, 0
2, 31994, Note_on_c, 0, 47, 0
2, 32027, Note_on_c, 0, 64, 103
2, 32029, Note_on_c, 0, 37, 93
2, 32036, Note_on_c, 0, 49, 86
2, 32202, Control_c, 0, 64, 127
2, 32344, Note_on_c, 0, 66, 100
2, 32346, Note_on_c, 0, 56, 90
2, 32358, Note_on_c, 0, 37, 0
2, 32362, Note_on_c, 0, 64, 0
2, 32364, Control_c, 0, 64, 0
2, 32365, Note_on_c, 0, 52, 67
2, 32386, Note_on_c, 0, 49, 0
2, 32394, Note_on_c, 0, 56, 0
2, 32396, Note_on_c, 0, 52, 0
2, 32486, Note_on_c, 0, 66, 0
2, 32513, Note_on_c, 0, 63, 94
2, 32520, Note_on_c, 0, 49, 67
2, 32559, Note_on_c, 0, 49, 0
2, 32661, Note_on_c, 0, 44, 81
2, 32709, Control_c, 0, 64, 127
2, 32824, Note_on_c, 0, 44, 0
2, 32828, Note_on_c, 0, 64, 100
2, 32829, Note_on_c, 0, 44, 73
2, 32851, Note_on_c, 0, 63, 0
2, 32856, Control_c, 0, 64, 0
2, 32931, Note_on_c, 0, 44, 0
2, 32988, Note_on_c, 0, 54, 97
2, 33003, Note_on_c, 0, 51, 81
2, 33033, Note_on_c, 0, 51, 0
2, 33108, Note_on_c, 0, 54, 0
2, 33138, Note_on_c, 0, 44, 87
2, 33142, Note_on_c, 0, 61, 93
2, 33146, Note_on_c, 0, 56, 80
2, 33188, Note_on_c, 0, 44, 0
2, 33297, Note_on_c, 0, 37, 89
2, 33438, Control_c, 0, 64, 127
2, 33460, Note_on_c, 0, 44, 59
2, 33465, Note_on_c, 0, 63, 92
2, 33600, Note_on_c, 0, 56, 0
2, 33604, Note_on_c, 0, 56, 94
2, 33619, Note_on_c, 0, 52, 78
2, 33657, Control_c, 0, 64, 0
2, 33657, Note_on_c, 0, 63, 0
2, 33658, Note_on_c, 0, 61, 0
2, 33661, Note_on_c, 0, 37, 0
2, 33661, Note_on_c, 0, 44, 0
2, 33662, Note_on_c, 0, 56, 0
2, 33664, Note_on_c, 0, 52, 0
2, 33676, Note_on_c, 0, 64, 0
2, 33767, Note_on_c, 0, 49, 72
2, 33767, Note_on_c, 0, 57, 93
2, 33830, Note_on_c, 0, 49, 0
2, 33922, Note_on_c, 0, 44, 80
2, 34007, Control_c, 0, 64, 127
2, 34090, Note_on_c, 0, 56, 98
2, 34124, Control_c, 0, 64, 0
2, 34129, Note_on_c, 0, 57, 0
2, 34242, Note_on_c, 0, 54, 83
2, 34247, Note_on_c, 0, 51, 78
2, 34268, Control_c, 0, 64, 127
2, 34391, Note_on_c, 0, 44, 0
2, 34391, Note_on_c, 0, 56, 0
2, 34395, Control_c, 0, 64, 0
2, 34395, Note_on_c, 0, 56, 92
2, 34399, Note_on_c, 0, 51, 0
2, 34401, Note_on_c, 0, 54, 0
2, 34402, Note_on_c, 0, 44, 90
2, 34445, Note_on_c, 0, 44, 0
2, 34556, Note_on_c, 0, 64, 101
2, 34563, Note_on_c, 0, 37, 92
2, 34564, Note_on_c, 0, 61, 89
2, 34629, Control_c, 0, 64, 127
2, 34874, Note_on_c, 0, 56, 0
2, 34881, Note_on_c, 0, 66, 101
2, 34885, Note_on_c, 0, 56, 92
2, 34893, Note_on_c, 0, 52, 80
2, 34923, Note_on_c, 0, 37, 0
2, 34924, Control_c, 0, 64, 0
2, 34926, Note_on_c, 0, 64, 0
2, 34929, Note_on_c, 0, 61, 0
2, 34930, Note_on_c, 0, 56, 0
2, 34932, Note_on_c, 0, 52, 0
2, 34997, Note_on_c, 0, 66, 0
2, 35047, Note_on_c, 0, 63, 94
2, 35047, Note_on_c, 0, 49, 75
2, 35079, Note_on_c, 0, 49, 0
2, 35200, Note_on_c, 0, 44, 86
2, 35353, Note_on_c, 0, 63, 0
2, 35358, Note_on_c, 0, 44, 0
2, 35367, Note_on_c, 0, 44, 69
2, 35367, Note_on_c, 0, 64, 96
2, 35441, Note_on_c, 0, 44, 0
2, 35516, Note_on_c, 0, 54, 86
2, 35517, Note_on_c, 0, 51, 85
2, 35581, Note_on_c, 0, 51, 0
2, 35596, Note_on_c, 0, 54, 0
2, 35669, Note_on_c, 0, 61, 95
2, 35669, Note_on_c, 0, 64, 0
2, 35669, Note_on_c, 0, 44, 86
2, 35675, Note_on_c, 0, 56, 79
2, 35717, Note_on_c, 0, 44, 0
2, 35834, Note_on_c, 0, 45, 92
2, 35934, Control_c, 0, 64, 127
2, 36007, Note_on_c, 0, 63, 100
2, 36148, Note_on_c, 0, 49, 86
2, 36152, Note_on_c, 0, 52, 82
2, 36156, Note_on_c, 0, 64, 76
2, 36295, Note_on_c, 0, 64, 0
2, 36303, Note_on_c, 0, 45, 0
2, 36305, Note_on_c, 0, 64, 101
2, 36307, Note_on_c, 0, 45, 86
2, 36352, Control_c, 0, 64, 0
2, 36373, Note_on_c, 0, 52, 0
2, 36373, Note_on_c, 0, 49, 0
2, 36374, Note_on_c, 0, 61, 0
2, 36374, Note_on_c, 0, 63, 0
2, 36376, Note_on_c, 0, 45, 0
2, 36403, Note_on_c, 0, 56, 0
2, 36453, Note_on_c, 0, 54, 101
2, 36460, Note_on_c, 0, 63, 99
2, 36461, Note_on_c, 0, 47, 87
2, 36464, Note_on_c, 0, 64, 0
2, 36467, Note_on_c, 0, 51, 89
2, 36595, Note_on_c, 0, 47, 0
2, 36605, Note_on_c, 0, 47, 76
2, 36618, Control_c, 0, 64, 127
2, 36673, Note_on_c, 0, 42, 84
2, 36760, Note_on_c, 0, 35, 87
2, 36923, Note_on_c, 0, 68, 97
2, 37024, Note_on_c, 0, 35, 0
2, 37024, Control_c, 0, 64, 0
2, 37025, Note_on_c, 0, 51, 0
2, 37027, Note_on_c, 0, 63, 0
2, 37027, Note_on_c, 0, 42, 0
2, 37032, Note_on_c, 0, 54, 0
2, 37036, Note_on_c, 0, 68, 0
2, 37040, Note_on_c, 0, 47, 0
2, 37081, Note_on_c, 0, 37, 105
2, 37085, Note_on_c, 0, 76, 104
2, 37155, Control_c, 0, 64, 127
2, 37395, Note_on_c, 0, 78, 113
2, 37397, Note_on_c, 0, 56, 105
2, 37398, Note_on_c, 0, 68, 106
2, 37399, Note_on_c, 0, 73, 95
2, 37401, Note_on_c, 0, 44, 82
2, 37402, Note_on_c, 0, 49, 91
2, 37412, Note_on_c, 0, 52, 86
2, 37555, Note_on_c, 0, 49, 0
2, 37559, Note_on_c, 0, 49, 88
2, 37562, Note_on_c, 0, 68, 0
2, 37567, Note_on_c, 0, 68, 98
2, 37567, Note_on_c, 0, 75, 102
2, 37622, Control_c, 0, 64, 0
2, 37624, Note_on_c, 0, 44, 0
2, 37629, Note_on_c, 0, 56, 0
2, 37632, Note_on_c, 0, 37, 0
2, 37633, Note_on_c, 0, 52, 0
2, 37633, Note_on_c, 0, 49, 0
2, 37634, Note_on_c, 0, 75, 0
2, 37634, Note_on_c, 0, 68, 0
2, 37634, Note_on_c, 0, 73, 0
2, 37635, Note_on_c, 0, 78, 0
2, 37639, Note_on_c, 0, 76, 0
2, 37706, Note_on_c, 0, 32, 79
2, 37748, Note_on_c, 0, 32, 0
2, 37879, Note_on_c, 0, 76, 107
2, 37939, Control_c, 0, 64, 127
2, 38028, Note_on_c, 0, 54, 103
2, 38030, Note_on_c, 0, 66, 103
2, 38032, Note_on_c, 0, 72, 97
2, 38175, Note_on_c, 0, 44, 94
2, 38203, Note_on_c, 0, 73, 108
2, 38254, Control_c, 0, 64, 0
2, 38257, Note_on_c, 0, 44, 0
2, 38258, Note_on_c, 0, 72, 0
2, 38258, Note_on_c, 0, 66, 0
2, 38259, Note_on_c, 0, 54, 0
2, 38262, Note_on_c, 0, 76, 0
2, 38346, Note_on_c, 0, 37, 85
2, 38380, Note_on_c, 0, 37, 0
2, 38495, Note_on_c, 0, 75, 106
2, 38526, Note_on_c, 0, 73, 0
2, 38662, Note_on_c, 0, 56, 101
2, 38664, Note_on_c, 0, 64, 98
2, 38666, Note_on_c, 0, 61, 97
2, 38674, Note_on_c, 0, 52, 90
2, 38699, Control_c, 0, 64, 127
2, 38816, Note_on_c, 0, 49, 87
2, 38823, Note_on_c, 0, 69, 103
2, 38950, Control_c, 0, 64, 0
2, 38956, Note_on_c, 0, 49, 0
2, 38956, Note_on_c, 0, 64, 0
2, 38957, Note_on_c, 0, 61, 0
2, 38958, Note_on_c, 0, 69, 0
2, 38976, Note_on_c, 0, 52, 0
2, 38979, Note_on_c, 0, 32, 73
2, 38983, Note_on_c, 0, 75, 0
2, 38991, Note_on_c, 0, 56, 0
2, 39015, Note_on_c, 0, 32, 0
2, 39134, Note_on_c, 0, 68, 107
2, 39295, Note_on_c, 0, 63, 102
2, 39296, Note_on_c, 0, 51, 91
2, 39296, Note_on_c, 0, 60, 95
2, 39299, Note_on_c, 0, 54, 92
2, 39306, Control_c, 0, 64, 127
2, 39444, Note_on_c, 0, 68, 0
2, 39447, Note_on_c, 0, 44, 90
2, 39452, Note_on_c, 0, 56, 81
2, 39453, Note_on_c, 0, 68, 101
2, 39563, Control_c, 0, 64, 0
2, 39568, Note_on_c, 0, 51, 0
2, 39569, Note_on_c, 0, 63, 0
2, 39569, Note_on_c, 0, 44, 0
2, 39569, Note_on_c, 0, 56, 0
2, 39569, Note_on_c, 0, 60, 0
2, 39570, Note_on_c, 0, 54, 0
2, 39590, Note_on_c, 0, 68, 0
2, 39609, Note_on_c, 0, 76, 109
2, 39610, Note_on_c, 0, 37, 96
2, 39736, Control_c, 0, 64, 127
2, 39941, Note_on_c, 0, 56, 100
2, 39941, Note_on_c, 0, 78, 112
2, 39944, Control_c, 0, 64, 0
2, 39946, Note_on_c, 0, 44, 82
2, 39947, Note_on_c, 0, 68, 103
2, 39948, Note_on_c, 0, 73, 93
2, 39954, Note_on_c, 0, 52, 82
2, 39977, Note_on_c, 0, 76, 0
2, 40012, Control_c, 0, 64, 127
2, 40089, Note_on_c, 0, 37, 0
2, 40098, Note_on_c, 0, 37, 67
2, 40099, Note_on_c, 0, 49, 82
2, 40103, Note_on_c, 0, 75, 103
2, 40104, Note_on_c, 0, 68, 0
2, 40109, Note_on_c, 0, 68, 80
2, 40181, Note_on_c, 0, 44, 0
2, 40187, Note_on_c, 0, 56, 0
2, 40188, Note_on_c, 0, 37, 0
2, 40189, Note_on_c, 0, 78, 0
2, 40191, Note_on_c, 0, 49, 0
2, 40191, Note_on_c, 0, 73, 0
2, 40193, Control_c, 0, 64, 0
2, 40197, Note_on_c, 0, 52, 0
2, 40266, Note_on_c, 0, 32, 55
2, 40312, Note_on_c, 0, 32, 0
2, 40420, Note_on_c, 0, 76, 106
2, 40465, Control_c, 0, 64, 127
2, 40577, Note_on_c, 0, 54, 99
2, 40584, Note_on_c, 0, 51, 97
2, 40585, Note_on_c, 0, 66, 99
2, 40585, Note_on_c, 0, 72, 94
2, 40596, Note_on_c, 0, 68, 0
2, 40737, Note_on_c, 0, 44, 86
2, 40745, Note_on_c, 0, 73, 109
2, 40825, Note_on_c, 0, 44, 0
2, 40825, Note_on_c, 0, 66, 0
2, 40826, Note_on_c, 0, 54, 0
2, 40826, Note_on_c, 0, 72, 0
2, 40827, Note_on_c, 0, 76, 0
2, 40827, Note_on_c, 0, 51, 0
2, 40828, Control_c, 0, 64, 0
2, 40834, Note_on_c, 0, 75, 0
2, 40901, Note_on_c, 0, 33, 86
2, 40934, Control_c, 0, 64, 127
2, 41055, Note_on_c, 0, 83, 110
2, 41195, Note_on_c, 0, 73, 0
2, 41202, Note_on_c, 0, 49, 105
2, 41206, Note_on_c, 0, 73, 110
2, 41217, Note_on_c, 0, 76, 99
2, 41223, Note_on_c, 0, 52, 78
2, 41356, Note_on_c, 0, 33, 0
2, 41360, Note_on_c, 0, 33, 83
2, 41361, Note_on_c, 0, 45, 84
2, 41364, Note_on_c, 0, 73, 0
2, 41372, Note_on_c, 0, 76, 0
2, 41374, Note_on_c, 0, 73, 107
2, 41374, Note_on_c, 0, 85, 110
2, 41374, Note_on_c, 0, 49, 0
2, 41376, Note_on_c, 0, 76, 87
2, 41484, Control_c, 0, 64, 0
2, 41485, Note_on_c, 0, 33, 0
2, 41489, Note_on_c, 0, 52, 0
2, 41489, Note_on_c, 0, 45, 0
2, 41490, Note_on_c, 0, 83, 0
2, 41523, Note_on_c, 0, 35, 92
2, 41625, Control_c, 0, 64, 127
2, 41672, Note_on_c, 0, 47, 102
2, 41842, Note_on_c, 0, 54, 96
2, 41844, Note_on_c, 0, 59, 96
2, 41852, Note_on_c, 0, 51, 90
2, 41997, Note_on_c, 0, 68, 104
2, 42075, Control_c, 0, 64, 0
2, 42081, Note_on_c, 0, 51, 0
2, 42083, Note_on_c, 0, 47, 0
2, 42083, Note_on_c, 0, 59, 0
2, 42084, Note_on_c, 0, 54, 0
2, 42088, Note_on_c, 0, 73, 0
2, 42094, Note_on_c, 0, 76, 0
2, 42094, Note_on_c, 0, 85, 0
2, 42101, Note_on_c, 0, 35, 0
2, 42105, Note_on_c, 0, 68, 0
2, 42159, Note_on_c, 0, 37, 99
2, 42160, Note_on_c, 0, 76, 108
2, 42355, Control_c, 0, 64, 127
2, 42481, Note_on_c, 0, 56, 100
2, 42481, Note_on_c, 0, 78, 111
2, 42487, Note_on_c, 0, 68, 104
2, 42489, Note_on_c, 0, 73, 96
2, 42490, Note_on_c, 0, 52, 79
2, 42639, Note_on_c, 0, 37, 0
2, 42639, Note_on_c, 0, 68, 0
2, 42644, Note_on_c, 0, 49, 83
2, 42645, Note_on_c, 0, 68, 91
2, 42650, Note_on_c, 0, 37, 71
2, 42651, Note_on_c, 0, 75, 107
2, 42713, Note_on_c, 0, 56, 0
2, 42714, Note_on_c, 0, 76, 0
2, 42714, Note_on_c, 0, 78, 0
2, 42714, Note_on_c, 0, 73, 0
2, 42715, Note_on_c, 0, 52, 0
2, 42715, Control_c, 0, 64, 0
2, 42717, Note_on_c, 0, 37, 0
2, 42720, Note_on_c, 0, 49, 0
2, 42795, Note_on_c, 0, 32, 76
2, 42844, Note_on_c, 0, 32, 0
2, 42862, Note_on_c, 0, 68, 0
2, 42974, Note_on_c, 0, 76, 108
2, 43031, Control_c, 0, 64, 127
2, 43069, Note_on_c, 0, 75, 0
2, 43125, Note_on_c, 0, 54, 98
2, 43132, Note_on_c, 0, 66, 101
2, 43133, Note_on_c, 0, 72, 97
2, 43135, Note_on_c, 0, 51, 94
2, 43272, Note_on_c, 0, 44, 90
2, 43302, Note_on_c, 0, 73, 104
2, 43372, Control_c, 0, 64, 0
2, 43377, Note_on_c, 0, 54, 0
2, 43379, Note_on_c, 0, 44, 0
2, 43379, Note_on_c, 0, 66, 0
2, 43379, Note_on_c, 0, 76, 0
2, 43380, Note_on_c, 0, 51, 0
2, 43380, Note_on_c, 0, 72, 0
2, 43456, Note_on_c, 0, 37, 93
2, 43553, Control_c, 0, 64, 127
2, 43609, Note_on_c, 0, 75, 107
2, 43770, Note_on_c, 0, 56, 101
2, 43781, Note_on_c, 0, 64, 98
2, 43787, Note_on_c, 0, 61, 97
2, 43792, Note_on_c, 0, 52, 84
2, 43937, Note_on_c, 0, 52, 0
2, 43941, Note_on_c, 0, 49, 82
2, 43941, Note_on_c, 0, 69, 106
2, 43944, Note_on_c, 0, 52, 82
2, 44040, Control_c, 0, 64, 0
2, 44042, Note_on_c, 0, 49, 0
2, 44044, Note_on_c, 0, 37, 0
2, 44047, Note_on_c, 0, 75, 0
2, 44047, Note_on_c, 0, 73, 0
2, 44047, Note_on_c, 0, 52, 0
2, 44048, Note_on_c, 0, 56, 0
2, 44053, Note_on_c, 0, 61, 0
2, 44057, Note_on_c, 0, 64, 0
2, 44100, Note_on_c, 0, 32, 88
2, 44134, Note_on_c, 0, 32, 0
2, 44251, Note_on_c, 0, 68, 102
2, 44298, Control_c, 0, 64, 127
2, 44407, Note_on_c, 0, 54, 87
2, 44410, Note_on_c, 0, 51, 89
2, 44411, Note_on_c, 0, 63, 99
2, 44411, Note_on_c, 0, 60, 91
2, 44547, Note_on_c, 0, 44, 83
2, 44551, Note_on_c, 0, 68, 0
2, 44557, Note_on_c, 0, 68, 98
2, 44732, Note_on_c, 0, 25, 89
2, 44732, Note_on_c, 0, 37, 90
2, 44738, Note_on_c, 0, 49, 89
2, 44762, Note_on_c, 0, 51, 0
2, 44762, Note_on_c, 0, 63, 0
2, 44763, Note_on_c, 0, 68, 0
2, 44763, Note_on_c, 0, 60, 0
2, 44764, Note_on_c, 0, 44, 0
2, 44764, Note_on_c, 0, 54, 0
2, 44764, Note_on_c, 0, 69, 0
2, 44766, Control_c, 0, 64, 0
2, 44779, Note_on_c, 0, 49, 0
2, 44785, Note_on_c, 0, 37, 0
2, 44786, Note_on_c, 0, 25, 0
2, 44910, Note_on_c, 0, 49, 73
2, 45004, Note_on_c, 0, 49, 0
2, 45066, Note_on_c, 0, 49, 67
2, 45103, Note_on_c, 0, 49, 0
2, 45238, Note_on_c, 0, 49, 84
2, 45246, Note_on_c, 0, 37, 86
2, 45248, Note_on_c, 0, 25, 78
2, 45269, Note_on_c, 0, 49, 0
2, 45276, Note_on_c, 0, 37, 0
2, 45296, Note_on_c, 0, 25, 0
2, 45552, Note_on_c, 0, 49, 89
2, 45558, Note_on_c, 0, 37, 80
2, 45561, Note_on_c, 0, 25, 79
2, 45580, Control_c, 0, 64, 127
2, 45880, Note_on_c, 0, 25, 0
2, 45884, Note_on_c, 0, 24, 75
2, 45888, Note_on_c, 0, 24, 0
2, 45889, Note_on_c, 0, 25, 76
2, 45895, Note_on_c, 0, 37, 0
2, 45901, Note_on_c, 0, 37, 71
2, 45949, Note_on_c, 0, 37, 0
2, 45960, Note_on_c, 0, 37, 83
2, 46030, Note_on_c, 0, 24, 70
2, 46341, Note_on_c, 0, 24, 0
2, 46397, Note_on_c, 0, 25, 0
2, 46404, Control_c, 0, 64, 0
2, 46417, Note_on_c, 0, 49, 0
2, 46425, Note_on_c, 0, 37, 0
2, 46681, Note_on_c, 0, 86, 111
2, 46682, Note_on_c, 0, 74, 114
2, 46689, Note_on_c, 0, 26, 98
2, 46690, Note_on_c, 0, 33, 89
2, 46690, Note_on_c, 0, 38, 95
2, 46696, Note_on_c, 0, 36, 82
2, 46709, Control_c, 0, 64, 127
2, 46832, Note_on_c, 0, 36, 0
2, 46838, Note_on_c, 0, 72, 100
2, 46839, Note_on_c, 0, 84, 105
2, 46842, Note_on_c, 0, 36, 81
2, 46986, Note_on_c, 0, 26, 0
2, 46986, Note_on_c, 0, 38, 0
2, 46995, Note_on_c, 0, 38, 84
2, 46997, Note_on_c, 0, 26, 89
2, 46998, Note_on_c, 0, 70, 110
2, 47000, Note_on_c, 0, 82, 101
2, 47160, Note_on_c, 0, 81, 105
2, 47160, Note_on_c, 0, 69, 108
2, 47230, Control_c, 0, 64, 0
2, 47238, Note_on_c, 0, 84, 0
2, 47238, Note_on_c, 0, 33, 0
2, 47240, Note_on_c, 0, 36, 0
2, 47241, Note_on_c, 0, 72, 0
2, 47241, Note_on_c, 0, 82, 0
2, 47241, Note_on_c, 0, 38, 0
2, 47242, Note_on_c, 0, 70, 0
2, 47242, Note_on_c, 0, 74, 0
2, 47242, Note_on_c, 0, 86, 0
2, 47243, Note_on_c, 0, 81, 0
2, 47243, Note_on_c, 0, 69, 0
2, 47255, Note_on_c, 0, 26, 0
2, 47317, Note_on_c, 0, 50, 113
2, 47318, Note_on_c, 0, 38, 106
2, 47320, Note_on_c, 0, 62, 108
2, 47321, Note_on_c, 0, 26, 96
2, 47339, Control_c, 0, 64, 127
2, 47641, Note_on_c, 0, 74, 108
2, 47644, Note_on_c, 0, 65, 97
2, 47649, Note_on_c, 0, 69, 87
2, 47652, Note_on_c, 0, 53, 92
2, 47656, Note_on_c, 0, 57, 94
2, 47784, Note_on_c, 0, 50, 0
2, 47790, Note_on_c, 0, 50, 99
2, 47792, Note_on_c, 0, 62, 0
2, 47797, Note_on_c, 0, 38, 0
2, 47798, Note_on_c, 0, 62, 101
2, 47905, Control_c, 0, 64, 0
2, 47911, Note_on_c, 0, 53, 0
2, 47911, Note_on_c, 0, 65, 0
2, 47911, Note_on_c, 0, 57, 0
2, 47911, Note_on_c, 0, 62, 0
2, 47911, Note_on_c, 0, 74, 0
2, 47911, Note_on_c, 0, 50, 0
2, 47911, Note_on_c, 0, 69, 0
2, 47915, Note_on_c, 0, 26, 0
2, 47963, Note_on_c, 0, 64, 110
2, 47965, Note_on_c, 0, 48, 107
2, 47966, Note_on_c, 0, 36, 97
2, 47969, Note_on_c, 0, 55, 83
2, 47976, Note_on_c, 0, 55, 0
2, 47976, Control_c, 0, 64, 127
2, 48265, Control_c, 0, 64, 0
2, 48272, Note_on_c, 0, 74, 109
2, 48273, Note_on_c, 0, 62, 105
2, 48274, Note_on_c, 0, 53, 96
2, 48276, Note_on_c, 0, 69, 89
2, 48278, Note_on_c, 0, 65, 97
2, 48279, Note_on_c, 0, 57, 98
2, 48284, Note_on_c, 0, 48, 0
2, 48291, Note_on_c, 0, 48, 72
2, 48291, Control_c, 0, 64, 127
2, 48434, Note_on_c, 0, 60, 103
2, 48550, Note_on_c, 0, 57, 0
2, 48551, Note_on_c, 0, 62, 0
2, 48551, Note_on_c, 0, 69, 0
2, 48552, Note_on_c, 0, 65, 0
2, 48552, Note_on_c, 0, 48, 0
2, 48552, Note_on_c, 0, 53, 0
2, 48552, Note_on_c, 0, 60, 0
2, 48553, Note_on_c, 0, 64, 0
2, 48553, Note_on_c, 0, 74, 0
2, 48555, Control_c, 0, 64, 0
2, 48576, Note_on_c, 0, 36, 0
2, 48594, Note_on_c, 0, 46, 108
2, 48596, Note_on_c, 0, 62, 110
2, 48597, Note_on_c, 0, 34, 100
2, 48629, Control_c, 0, 64, 127
2, 48748, Note_on_c, 0, 69, 102
2, 48906, Note_on_c, 0, 34, 0
2, 48906, Note_on_c, 0, 69, 0
2, 48909, Note_on_c, 0, 74, 114
2, 48910, Note_on_c, 0, 69, 105
2, 48911, Note_on_c, 0, 57, 107
2, 48916, Note_on_c, 0, 34, 86
2, 49036, Note_on_c, 0, 34, 0
2, 49044, Note_on_c, 0, 46, 0
2, 49045, Note_on_c, 0, 34, 74
2, 49052, Note_on_c, 0, 69, 0
2, 49054, Note_on_c, 0, 46, 92
2, 49063, Note_on_c, 0, 69, 88
2, 49177, Note_on_c, 0, 34, 0
2, 49178, Note_on_c, 0, 57, 0
2, 49178, Control_c, 0, 64, 0
2, 49178, Note_on_c, 0, 74, 0
2, 49178, Note_on_c, 0, 46, 0
2, 49178, Note_on_c, 0, 62, 0
2, 49213, Note_on_c, 0, 69, 0
2, 49224, Note_on_c, 0, 69, 106
2, 49225, Note_on_c, 0, 74, 106
2, 49225, Note_on_c, 0, 45, 106
2, 49226, Note_on_c, 0, 79, 111
2, 49226, Note_on_c, 0, 33, 100
2, 49259, Control_c, 0, 64, 127
2, 49548, Note_on_c, 0, 77, 112
2, 49555, Note_on_c, 0, 65, 109
2, 49555, Note_on_c, 0, 53, 99
2, 49556, Note_on_c, 0, 57, 103
2, 49707, Note_on_c, 0, 76, 110
2, 49707, Note_on_c, 0, 64, 109
2, 49760, Note_on_c, 0, 77, 0
2, 49760, Note_on_c, 0, 74, 0
2, 49760, Note_on_c, 0, 69, 0
2, 49762, Note_on_c, 0, 57, 0
2, 49762, Note_on_c, 0, 45, 0
2, 49763, Note_on_c, 0, 53, 0
2, 49763, Note_on_c, 0, 65, 0
2, 49764, Note_on_c, 0, 76, 0
2, 49766, Note_on_c, 0, 64, 0
2, 49766, Note_on_c, 0, 79, 0
2, 49767, Control_c, 0, 64, 0
2, 49774, Note_on_c, 0, 33, 0
2, 49872, Note_on_c, 0, 62, 109
2, 49872, Note_on_c, 0, 31, 100
2, 49877, Note_on_c, 0, 74, 103
2, 49877, Note_on_c, 0, 43, 98
2, 49878, Note_on_c, 0, 70, 83
2, 49896, Control_c, 0, 64, 127
2, 50188, Note_on_c, 0, 74, 0
2, 50196, Note_on_c, 0, 70, 0
2, 50198, Note_on_c, 0, 74, 111
2, 50200, Note_on_c, 0, 58, 101
2, 50204, Note_on_c, 0, 50, 90
2, 50206, Note_on_c, 0, 70, 93
2, 50207, Note_on_c, 0, 65, 92
2, 50327, Note_on_c, 0, 43, 0
2, 50334, Note_on_c, 0, 43, 101
2, 50350, Note_on_c, 0, 62, 0
2, 50350, Note_on_c, 0, 74, 0
2, 50357, Note_on_c, 0, 62, 106
2, 50359, Note_on_c, 0, 70, 0
2, 50359, Note_on_c, 0, 74, 101
2, 50451, Control_c, 0, 64, 0
2, 50456, Note_on_c, 0, 50, 0
2, 50456, Note_on_c, 0, 58, 0
2, 50456, Note_on_c, 0, 74, 0
2, 50457, Note_on_c, 0, 62, 0
2, 50458, Note_on_c, 0, 65, 0
2, 50472, Note_on_c, 0, 31, 0
2, 50480, Note_on_c, 0, 43, 0
2, 50510, Note_on_c, 0, 29, 105
2, 50513, Note_on_c, 0, 64, 107
2, 50514, Note_on_c, 0, 41, 108
2, 50515, Note_on_c, 0, 69, 96
2, 50565, Control_c, 0, 64, 127
2, 50833, Note_on_c, 0, 69, 0
2, 50838, Note_on_c, 0, 74, 107
2, 50839, Note_on_c, 0, 69, 90
2, 50839, Note_on_c, 0, 65, 96
2, 50839, Note_on_c, 0, 62, 103
2, 50842, Note_on_c, 0, 53, 97
2, 50845, Note_on_c, 0, 57, 100
2, 50999, Note_on_c, 0, 60, 102
2, 51075, Control_c, 0, 64, 0
2, 51079, Note_on_c, 0, 41, 0
2, 51080, Note_on_c, 0, 62, 0
2, 51080, Note_on_c, 0, 69, 0
2, 51080, Note_on_c, 0, 57, 0
2, 51080, Note_on_c, 0, 74, 0
2, 51080, Note_on_c, 0, 60, 0
2, 51081, Note_on_c, 0, 65, 0
2, 51082, Note_on_c, 0, 64, 0
2, 51082, Note_on_c, 0, 53, 0
2, 51102, Note_on_c, 0, 29, 0
2, 51155, Note_on_c, 0, 40, 93
2, 51156, Note_on_c, 0, 28, 96
2, 51162, Note_on_c, 0, 62, 108
2, 51165, Note_on_c, 0, 74, 101
2, 51179, Control_c, 0, 64, 127
2, 51315, Note_on_c, 0, 69, 109
2, 51463, Note_on_c, 0, 69, 0
2, 51463, Note_on_c, 0, 74, 0
2, 51469, Note_on_c, 0, 69, 100
2, 51471, Note_on_c, 0, 62, 0
2, 51472, Note_on_c, 0, 74, 115
2, 51476, Note_on_c, 0, 62, 98
2, 51478, Note_on_c, 0, 58, 100
2, 51609, Note_on_c, 0, 69, 0
2, 51617, Note_on_c, 0, 40, 0
2, 51619, Note_on_c, 0, 52, 93
2, 51619, Note_on_c, 0, 69, 98
2, 51623, Note_on_c, 0, 40, 84
2, 51741, Control_c, 0, 64, 0
2, 51744, Note_on_c, 0, 58, 0
2, 51744, Note_on_c, 0, 40, 0
2, 51745, Note_on_c, 0, 52, 0
2, 51747, Note_on_c, 0, 62, 0
2, 51763, Note_on_c, 0, 28, 0
2, 51786, Note_on_c, 0, 69, 0
2, 51786, Note_on_c, 0, 74, 0
2, 51787, Note_on_c, 0, 45, 110
2, 51789, Note_on_c, 0, 33, 98
2, 51790, Note_on_c, 0, 81, 113
2, 51794, Note_on_c, 0, 69, 105
2, 51794, Note_on_c, 0, 74, 105
2, 51824, Control_c, 0, 64, 127
2, 51948, Note_on_c, 0, 47, 94
2, 51950, Note_on_c, 0, 35, 90
2, 52050, Control_c, 0, 64, 0
2, 52052, Note_on_c, 0, 74, 0
2, 52053, Note_on_c, 0, 45, 0
2, 52053, Note_on_c, 0, 35, 0
2, 52053, Note_on_c, 0, 81, 0
2, 52053, Note_on_c, 0, 69, 0
2, 52054, Note_on_c, 0, 47, 0
2, 52070, Note_on_c, 0, 33, 0
2, 52110, Note_on_c, 0, 73, 112
2, 52111, Note_on_c, 0, 49, 103
2, 52111, Note_on_c, 0, 69, 105
2, 52112, Note_on_c, 0, 81, 108
2, 52112, Note_on_c, 0, 37, 102
2, 52139, Control_c, 0, 64, 127
2, 52260, Note_on_c, 0, 33, 98
2, 52264, Note_on_c, 0, 45, 92
2, 52382, Note_on_c, 0, 81, 0
2, 52383, Note_on_c, 0, 37, 0
2, 52383, Note_on_c, 0, 69, 0
2, 52383, Note_on_c, 0, 33, 0
2, 52383, Note_on_c, 0, 73, 0
2, 52384, Note_on_c, 0, 45, 0
2, 52384, Control_c, 0, 64, 0
2, 52392, Note_on_c, 0, 49, 0
2, 52434, Note_on_c, 0, 62, 109
2, 52442, Note_on_c, 0, 50, 107
2, 52444, Note_on_c, 0, 38, 102
2, 52492, Control_c, 0, 64, 127
2, 52757, Note_on_c, 0, 74, 108
2, 52766, Note_on_c, 0, 65, 91
2, 52766, Note_on_c, 0, 69, 85
2, 52767, Note_on_c, 0, 53, 92
2, 52772, Note_on_c, 0, 57, 94
2, 52899, Note_on_c, 0, 62, 0
2, 52907, Note_on_c, 0, 50, 0
2, 52910, Note_on_c, 0, 62, 99
2, 52912, Note_on_c, 0, 50, 94
2, 53012, Control_c, 0, 64, 0
2, 53017, Note_on_c, 0, 38, 0
2, 53018, Note_on_c, 0, 74, 0
2, 53018, Note_on_c, 0, 65, 0
2, 53018, Note_on_c, 0, 57, 0
2, 53018, Note_on_c, 0, 53, 0
2, 53018, Note_on_c, 0, 50, 0
2, 53018, Note_on_c, 0, 69, 0
2, 53019, Note_on_c, 0, 62, 0
2, 53073, Note_on_c, 0, 36, 102
2, 53074, Note_on_c, 0, 64, 107
2, 53074, Note_on_c, 0, 76, 99
2, 53075, Note_on_c, 0, 48, 108
2, 53114, Control_c, 0, 64, 127
2, 53395, Note_on_c, 0, 62, 106
2, 53398, Note_on_c, 0, 57, 101
2, 53400, Note_on_c, 0, 65, 96
2, 53400, Note_on_c, 0, 74, 104
2, 53401, Note_on_c, 0, 53, 99
2, 53402, Note_on_c, 0, 69, 91
2, 53550, Note_on_c, 0, 60, 100
2, 53624, Note_on_c, 0, 74, 0
2, 53625, Note_on_c, 0, 64, 0
2, 53625, Note_on_c, 0, 69, 0
2, 53625, Note_on_c, 0, 60, 0
2, 53625, Note_on_c, 0, 62, 0
2, 53625, Note_on_c, 0, 65, 0
2, 53626, Note_on_c, 0, 48, 0
2, 53626, Note_on_c, 0, 57, 0
2, 53626, Control_c, 0, 64, 0
2, 53626, Note_on_c, 0, 53, 0
2, 53637, Note_on_c, 0, 36, 0
2, 53652, Note_on_c, 0, 76, 0
2, 53716, Note_on_c, 0, 62, 105
2, 53716, Note_on_c, 0, 34, 102
2, 53716, Note_on_c, 0, 46, 105
2, 53744, Control_c, 0, 64, 127
2, 53871, Note_on_c, 0, 69, 103
2, 54036, Note_on_c, 0, 69, 0
2, 54039, Note_on_c, 0, 74, 112
2, 54040, Note_on_c, 0, 69, 102
2, 54044, Note_on_c, 0, 34, 0
2, 54044, Note_on_c, 0, 46, 0
2, 54047, Note_on_c, 0, 57, 105
2, 54048, Note_on_c, 0, 46, 86
2, 54051, Note_on_c, 0, 34, 80
2, 54174, Note_on_c, 0, 34, 0
2, 54174, Note_on_c, 0, 46, 0
2, 54179, Note_on_c, 0, 34, 76
2, 54180, Note_on_c, 0, 46, 92
2, 54182, Note_on_c, 0, 69, 0
2, 54190, Note_on_c, 0, 69, 93
2, 54304, Control_c, 0, 64, 0
2, 54307, Note_on_c, 0, 34, 0
2, 54308, Note_on_c, 0, 46, 0
2, 54308, Note_on_c, 0, 57, 0
2, 54309, Note_on_c, 0, 74, 0
2, 54309, Note_on_c, 0, 69, 0
2, 54310, Note_on_c, 0, 62, 0
2, 54362, Note_on_c, 0, 74, 107
2, 54363, Note_on_c, 0, 45, 103
2, 54363, Note_on_c, 0, 69, 98
2, 54363, Note_on_c, 0, 79, 109
2, 54364, Note_on_c, 0, 33, 95
2, 54397, Control_c, 0, 64, 127
2, 54681, Note_on_c, 0, 69, 0
2, 54686, Note_on_c, 0, 77, 108
2, 54689, Note_on_c, 0, 45, 0
2, 54690, Note_on_c, 0, 69, 96
2, 54693, Note_on_c, 0, 57, 102
2, 54693, Note_on_c, 0, 65, 105
2, 54694, Note_on_c, 0, 72, 85
2, 54694, Note_on_c, 0, 53, 99
2, 54696, Note_on_c, 0, 45, 95
2, 54845, Note_on_c, 0, 76, 110
2, 54847, Note_on_c, 0, 64, 107
2, 54891, Control_c, 0, 64, 0
2, 54899, Note_on_c, 0, 69, 0
2, 54899, Note_on_c, 0, 74, 0
2, 54900, Note_on_c, 0, 79, 0
2, 54900, Note_on_c, 0, 45, 0
2, 54900, Note_on_c, 0, 57, 0
2, 54900, Note_on_c, 0, 77, 0
2, 54901, Note_on_c, 0, 65, 0
2, 54901, Note_on_c, 0, 53, 0
2, 54902, Note_on_c, 0, 64, 0
2, 54902, Note_on_c, 0, 76, 0
2, 54912, Note_on_c, 0, 33, 0
2, 54912, Note_on_c, 0, 72, 0
2, 55000, Note_on_c, 0, 62, 106
2, 55002, Note_on_c, 0, 43, 108
2, 55002, Note_on_c, 0, 74, 100
2, 55003, Note_on_c, 0, 31, 103
2, 55008, Note_on_c, 0, 70, 91
2, 55011, Control_c, 0, 64, 127
2, 55131, Note_on_c, 0, 43, 0
2, 55132, Control_c, 0, 64, 0
2, 55150, Note_on_c, 0, 62, 0
2, 55165, Note_on_c, 0, 31, 0
2, 55196, Note_on_c, 0, 70, 0
2, 55196, Note_on_c, 0, 74, 0
2, 55333, Note_on_c, 0, 86, 108
2, 55338, Note_on_c, 0, 74, 112
2, 55340, Note_on_c, 0, 77, 98
2, 55342, Note_on_c, 0, 50, 93
2, 55342, Note_on_c, 0, 82, 102
2, 55343, Note_on_c, 0, 58, 104
2, 55352, Note_on_c, 0, 46, 93
2, 55357, Note_on_c, 0, 46, 0
2, 55388, Control_c, 0, 64, 127
2, 55482, Note_on_c, 0, 43, 96
2, 55610, Note_on_c, 0, 77, 0
2, 55611, Note_on_c, 0, 86, 0
2, 55612, Note_on_c, 0, 43, 0
2, 55612, Note_on_c, 0, 82, 0
2, 55612, Note_on_c, 0, 74, 0
2, 55613, Note_on_c, 0, 58, 0
2, 55616, Control_c, 0, 64, 0
2, 55618, Note_on_c, 0, 50, 0
2, 55660, Note_on_c, 0, 62, 106
2, 55660, Note_on_c, 0, 45, 109
2, 55660, Note_on_c, 0, 33, 100
2, 55662, Note_on_c, 0, 57, 94
2, 55687, Control_c, 0, 64, 127
2, 55772, Note_on_c, 0, 57, 0
2, 55779, Note_on_c, 0, 33, 0
2, 55783, Control_c, 0, 64, 0
2, 55802, Note_on_c, 0, 45, 0
2, 55810, Note_on_c, 0, 62, 0
2, 55983, Note_on_c, 0, 60, 107
2, 55985, Note_on_c, 0, 86, 109
2, 55987, Note_on_c, 0, 77, 103
2, 55990, Note_on_c, 0, 74, 109
2, 55991, Note_on_c, 0, 52, 93
2, 56010, Control_c, 0, 64, 127
2, 56134, Note_on_c, 0, 45, 102
2, 56137, Note_on_c, 0, 57, 79
2, 56211, Note_on_c, 0, 86, 0
2, 56212, Control_c, 0, 64, 0
2, 56213, Note_on_c, 0, 77, 0
2, 56213, Note_on_c, 0, 74, 0
2, 56215, Note_on_c, 0, 45, 0
2, 56218, Note_on_c, 0, 52, 0
2, 56225, Note_on_c, 0, 60, 0
2, 56256, Note_on_c, 0, 57, 0
2, 56297, Note_on_c, 0, 62, 103
2, 56298, Note_on_c, 0, 50, 106
2, 56299, Note_on_c, 0, 38, 103
2, 56325, Control_c, 0, 64, 127
2, 56469, Note_on_c, 0, 86, 105
2, 56473, Note_on_c, 0, 74, 106
2, 56474, Note_on_c, 0, 77, 94
2, 56478, Note_on_c, 0, 38, 0
2, 56483, Note_on_c, 0, 38, 98
2, 56488, Note_on_c, 0, 26, 96
2, 56624, Note_on_c, 0, 86, 0
2, 56632, Note_on_c, 0, 74, 0
2, 56632, Note_on_c, 0, 77, 0
2, 56635, Note_on_c, 0, 86, 103
2, 56638, Note_on_c, 0, 74, 98
2, 56643, Note_on_c, 0, 77, 93
2, 56778, Note_on_c, 0, 26, 0
2, 56778, Note_on_c, 0, 38, 0
2, 56778, Note_on_c, 0, 74, 0
2, 56778, Note_on_c, 0, 86, 0
2, 56785, Note_on_c, 0, 86, 106
2, 56788, Note_on_c, 0, 38, 100
2, 56789, Note_on_c, 0, 26, 95
2, 56789, Note_on_c, 0, 74, 109
2, 56793, Note_on_c, 0, 77, 0
2, 56805, Note_on_c, 0, 77, 83
2, 56939, Note_on_c, 0, 38, 0
2, 56947, Note_on_c, 0, 74, 0
2, 56947, Note_on_c, 0, 77, 0
2, 56947, Note_on_c, 0, 86, 0
2, 56949, Note_on_c, 0, 38, 91
2, 56952, Note_on_c, 0, 86, 103
2, 56952, Note_on_c, 0, 74, 106
2, 56958, Note_on_c, 0, 77, 97
2, 57085, Note_on_c, 0, 26, 0
2, 57085, Note_on_c, 0, 38, 0
2, 57092, Note_on_c, 0, 38, 99
2, 57096, Note_on_c, 0, 26, 100
2, 57274, Note_on_c, 0, 76, 106
2, 57286, Note_on_c, 0, 33, 93
2, 57287, Note_on_c, 0, 45, 105
2, 57346, Note_on_c, 0, 77, 0
2, 57353, Note_on_c, 0, 77, 75
2, 57412, Note_on_c, 0, 79, 72
2, 57418, Note_on_c, 0, 81, 97
2, 57547, Note_on_c, 0, 33, 0
2, 57548, Control_c, 0, 64, 0
2, 57549, Note_on_c, 0, 50, 0
2, 57550, Note_on_c, 0, 86, 0
2, 57550, Note_on_c, 0, 74, 0
2, 57569, Note_on_c, 0, 26, 0
2, 57569, Note_on_c, 0, 62, 0
2, 57569, Note_on_c, 0, 77, 0
2, 57576, Note_on_c, 0, 76, 0
2, 57576, Note_on_c, 0, 79, 0
2, 57584, Note_on_c, 0, 38, 0
2, 57584, Note_on_c, 0, 81, 0
2, 57587, Note_on_c, 0, 89, 114
2, 57588, Note_on_c, 0, 50, 108
2, 57589, Note_on_c, 0, 38, 98
2, 57590, Note_on_c, 0, 81, 105
2, 57638, Control_c, 0, 64, 127
2, 57742, Note_on_c, 0, 77, 94
2, 57891, Note_on_c, 0, 81, 0
2, 57900, Note_on_c, 0, 81, 100
2, 57904, Note_on_c, 0, 69, 89
2, 57907, Note_on_c, 0, 50, 0
2, 57909, Note_on_c, 0, 62, 98
2, 57910, Note_on_c, 0, 74, 94
2, 57911, Note_on_c, 0, 57, 99
2, 57913, Note_on_c, 0, 53, 94
2, 57914, Note_on_c, 0, 69, 0
2, 57915, Note_on_c, 0, 50, 86
2, 58058, Note_on_c, 0, 88, 107
2, 58060, Note_on_c, 0, 50, 0
2, 58060, Note_on_c, 0, 77, 0
2, 58064, Note_on_c, 0, 89, 0
2, 58065, Note_on_c, 0, 50, 84
2, 58070, Note_on_c, 0, 77, 95
2, 58110, Note_on_c, 0, 86, 81
2, 58194, Control_c, 0, 64, 0
2, 58205, Note_on_c, 0, 45, 0
2, 58206, Note_on_c, 0, 38, 0
2, 58208, Note_on_c, 0, 77, 0
2, 58209, Note_on_c, 0, 81, 0
2, 58210, Note_on_c, 0, 62, 0
2, 58210, Note_on_c, 0, 50, 0
2, 58210, Note_on_c, 0, 86, 0
2, 58210, Note_on_c, 0, 57, 0
2, 58222, Note_on_c, 0, 74, 0
2, 58222, Note_on_c, 0, 88, 0
2, 58227, Note_on_c, 0, 48, 111
2, 58229, Note_on_c, 0, 53, 0
2, 58229, Note_on_c, 0, 88, 107
2, 58230, Note_on_c, 0, 36, 100
2, 58232, Note_on_c, 0, 79, 103
2, 58275, Control_c, 0, 64, 127
2, 58392, Note_on_c, 0, 76, 92
2, 58544, Note_on_c, 0, 79, 0
2, 58549, Note_on_c, 0, 60, 104
2, 58555, Note_on_c, 0, 79, 108
2, 58556, Note_on_c, 0, 52, 104
2, 58556, Note_on_c, 0, 55, 97
2, 58558, Note_on_c, 0, 84, 100
2, 58570, Control_c, 0, 64, 0
2, 58598, Control_c, 0, 64, 127
2, 58713, Note_on_c, 0, 76, 0
2, 58721, Note_on_c, 0, 76, 98
2, 58809, Control_c, 0, 64, 0
2, 58809, Note_on_c, 0, 60, 0
2, 58809, Note_on_c, 0, 52, 0
2, 58809, Note_on_c, 0, 88, 0
2, 58809, Note_on_c, 0, 84, 0
2, 58810, Note_on_c, 0, 55, 0
2, 58821, Note_on_c, 0, 36, 0
2, 58821, Note_on_c, 0, 48, 0
2, 58836, Note_on_c, 0, 76, 0
2, 58836, Note_on_c, 0, 79, 0
2, 58859, Note_on_c, 0, 46, 112
2, 58863, Note_on_c, 0, 34, 101
2, 58863, Note_on_c, 0, 86, 107
2, 58878, Note_on_c, 0, 77, 92
2, 58880, Note_on_c, 0, 82, 86
2, 58882, Control_c, 0, 64, 127
2, 59024, Note_on_c, 0, 74, 104
2, 59040, Note_on_c, 0, 69, 104
2, 59182, Note_on_c, 0, 46, 0
2, 59182, Note_on_c, 0, 69, 0
2, 59182, Note_on_c, 0, 77, 0
2, 59186, Note_on_c, 0, 69, 103
2, 59186, Note_on_c, 0, 77, 97
2, 59189, Note_on_c, 0, 65, 99
2, 59191, Note_on_c, 0, 46, 97
2, 59192, Note_on_c, 0, 58, 98
2, 59196, Note_on_c, 0, 62, 88
2, 59358, Note_on_c, 0, 69, 0
2, 59358, Note_on_c, 0, 74, 0
2, 59362, Note_on_c, 0, 84, 103
2, 59362, Note_on_c, 0, 69, 92
2, 59363, Note_on_c, 0, 74, 99
2, 59420, Note_on_c, 0, 82, 0
2, 59425, Note_on_c, 0, 82, 102
2, 59496, Note_on_c, 0, 69, 0
2, 59508, Note_on_c, 0, 69, 104
2, 59516, Note_on_c, 0, 64, 103
2, 59516, Note_on_c, 0, 72, 106
2, 59517, Note_on_c, 0, 60, 105
2, 59520, Note_on_c, 0, 84, 0
2, 59523, Note_on_c, 0, 46, 0
2, 59523, Note_on_c, 0, 58, 0
2, 59523, Note_on_c, 0, 65, 0
2, 59523, Note_on_c, 0, 62, 0
2, 59524, Note_on_c, 0, 57, 102
2, 59524, Note_on_c, 0, 82, 0
2, 59525, Note_on_c, 0, 77, 0
2, 59525, Control_c, 0, 64, 0
2, 59527, Note_on_c, 0, 74, 0
2, 59530, Note_on_c, 0, 86, 0
2, 59530, Note_on_c, 0, 84, 103
2, 59531, Note_on_c, 0, 76, 99
2, 59531, Note_on_c, 0, 83, 92
2, 59535, Note_on_c, 0, 34, 0
2, 59566, Note_on_c, 0, 72, 0
2, 59581, Note_on_c, 0, 69, 0
2, 59604, Control_c, 0, 64, 127
2, 59686, Note_on_c, 0, 72, 96
2, 59815, Note_on_c, 0, 64, 0
2, 59815, Note_on_c, 0, 60, 0
2, 59816, Note_on_c, 0, 72, 0
2, 59817, Control_c, 0, 64, 0
2, 59827, Note_on_c, 0, 57, 0
2, 59834, Note_on_c, 0, 76, 0
2, 59834, Note_on_c, 0, 83, 0
2, 59841, Note_on_c, 0, 33, 105
2, 59845, Note_on_c, 0, 45, 111
2, 59845, Note_on_c, 0, 76, 107
2, 59846, Note_on_c, 0, 81, 105
2, 59865, Control_c, 0, 64, 127
2, 60007, Note_on_c, 0, 72, 99
2, 60114, Note_on_c, 0, 45, 0
2, 60115, Note_on_c, 0, 76, 0
2, 60115, Note_on_c, 0, 81, 0
2, 60115, Control_c, 0, 64, 0
2, 60115, Note_on_c, 0, 72, 0
2, 60119, Note_on_c, 0, 84, 0
2, 60134, Note_on_c, 0, 33, 0
2, 60159, Note_on_c, 0, 82, 112
2, 60162, Note_on_c, 0, 43, 111
2, 60162, Note_on_c, 0, 31, 104
2, 60169, Note_on_c, 0, 74, 96
2, 60195, Control_c, 0, 64, 127
2, 60323, Note_on_c, 0, 70, 100
2, 60472, Note_on_c, 0, 74, 0
2, 60483, Note_on_c, 0, 74, 104
2, 60485, Note_on_c, 0, 62, 100
2, 60486, Note_on_c, 0, 58, 97
2, 60633, Note_on_c, 0, 43, 0
2, 60634, Note_on_c, 0, 55, 95
2, 60640, Note_on_c, 0, 43, 87
2, 60641, Note_on_c, 0, 70, 0
2, 60646, Note_on_c, 0, 70, 103
2, 60649, Note_on_c, 0, 81, 106
2, 60728, Note_on_c, 0, 79, 84
2, 60750, Note_on_c, 0, 62, 0
2, 60750, Note_on_c, 0, 58, 0
2, 60750, Note_on_c, 0, 74, 0
2, 60751, Note_on_c, 0, 81, 0
2, 60751, Note_on_c, 0, 55, 0
2, 60751, Note_on_c, 0, 82, 0
2, 60752, Control_c, 0, 64, 0
2, 60752, Note_on_c, 0, 70, 0
2, 60752, Note_on_c, 0, 43, 0
2, 60764, Note_on_c, 0, 31, 0
2, 60787, Note_on_c, 0, 79, 0
2, 60799, Note_on_c, 0, 77, 100
2, 60800, Note_on_c, 0, 53, 108
2, 60801, Note_on_c, 0, 81, 110
2, 60802, Note_on_c, 0, 74, 103
2, 60803, Note_on_c, 0, 41, 108
2, 60840, Control_c, 0, 64, 127
2, 60981, Note_on_c, 0, 69, 94
2, 61117, Note_on_c, 0, 69, 0
2, 61117, Note_on_c, 0, 74, 0
2, 61117, Note_on_c, 0, 77, 0
2, 61122, Note_on_c, 0, 69, 92
2, 61125, Note_on_c, 0, 53, 0
2, 61125, Note_on_c, 0, 77, 102
2, 61125, Note_on_c, 0, 62, 97
2, 61125, Note_on_c, 0, 65, 90
2, 61128, Note_on_c, 0, 74, 99
2, 61129, Note_on_c, 0, 53, 87
2, 61141, Note_on_c, 0, 57, 92
2, 61278, Note_on_c, 0, 69, 0
2, 61289, Note_on_c, 0, 69, 99
2, 61382, Note_on_c, 0, 41, 0
2, 61382, Control_c, 0, 64, 0
2, 61382, Note_on_c, 0, 57, 0
2, 61382, Note_on_c, 0, 53, 0
2, 61383, Note_on_c, 0, 65, 0
2, 61383, Note_on_c, 0, 62, 0
2, 61383, Note_on_c, 0, 74, 0
2, 61383, Note_on_c, 0, 77, 0
2, 61383, Note_on_c, 0, 69, 0
2, 61383, Note_on_c, 0, 81, 0
2, 61443, Note_on_c, 0, 76, 107
2, 61443, Note_on_c, 0, 52, 109
2, 61444, Note_on_c, 0, 40, 105
2, 61444, Note_on_c, 0, 64, 101
2, 61445, Note_on_c, 0, 74, 102
2, 61455, Note_on_c, 0, 64, 0
2, 61478, Control_c, 0, 64, 127
2, 61612, Note_on_c, 0, 69, 101
2, 61762, Note_on_c, 0, 74, 0
2, 61769, Note_on_c, 0, 81, 111
2, 61772, Note_on_c, 0, 74, 102
2, 61774, Note_on_c, 0, 62, 98
2, 61775, Note_on_c, 0, 58, 100
2, 61916, Note_on_c, 0, 69, 0
2, 61921, Note_on_c, 0, 69, 98
2, 62054, Note_on_c, 0, 58, 0
2, 62054, Note_on_c, 0, 52, 0
2, 62054, Note_on_c, 0, 62, 0
2, 62055, Note_on_c, 0, 74, 0
2, 62056, Note_on_c, 0, 69, 0
2, 62057, Note_on_c, 0, 81, 0
2, 62059, Control_c, 0, 64, 0
2, 62062, Note_on_c, 0, 76, 0
2, 62069, Note_on_c, 0, 40, 0
2, 62078, Note_on_c, 0, 57, 105
2, 62080, Note_on_c, 0, 79, 108
2, 62080, Note_on_c, 0, 61, 103
2, 62081, Note_on_c, 0, 73, 105
2, 62119, Note_on_c, 0, 61, 0
2, 62121, Note_on_c, 0, 57, 0
2, 62123, Control_c, 0, 64, 127
2, 62250, Note_on_c, 0, 77, 96
2, 62251, Note_on_c, 0, 45, 97
2, 62255, Note_on_c, 0, 33, 85
2, 62404, Note_on_c, 0, 47, 95
2, 62408, Note_on_c, 0, 35, 90
2, 62410, Note_on_c, 0, 76, 93
2, 62563, Note_on_c, 0, 37, 92
2, 62565, Note_on_c, 0, 49, 90
2, 62565, Note_on_c, 0, 81, 108
2, 62676, Control_c, 0, 64, 0
2, 62681, Note_on_c, 0, 77, 0
2, 62682, Note_on_c, 0, 37, 0
2, 62682, Note_on_c, 0, 33, 0
2, 62682, Note_on_c, 0, 35, 0
2, 62682, Note_on_c, 0, 73, 0
2, 62682, Note_on_c, 0, 79, 0
2, 62682, Note_on_c, 0, 76, 0
2, 62683, Note_on_c, 0, 47, 0
2, 62683, Note_on_c, 0, 49, 0
2, 62684, Note_on_c, 0, 45, 0
2, 62685, Note_on_c, 0, 81, 0
2, 62719, Note_on_c, 0, 74, 107
2, 62719, Note_on_c, 0, 50, 102
2, 62723, Note_on_c, 0, 38, 105
2, 62768, Control_c, 0, 64, 127
2, 63041, Note_on_c, 0, 57, 77
2, 63042, Note_on_c, 0, 53, 79
2, 63222, Note_on_c, 0, 64, 100
2, 63303, Note_on_c, 0, 65, 90
2, 63348, Control_c, 0, 64, 0
2, 63353, Note_on_c, 0, 74, 0
2, 63353, Note_on_c, 0, 38, 0
2, 63353, Note_on_c, 0, 64, 0
2, 63354, Note_on_c, 0, 50, 0
2, 63354, Note_on_c, 0, 53, 0
2, 63354, Note_on_c, 0, 57, 0
2, 63371, Note_on_c, 0, 36, 96
2, 63372, Note_on_c, 0, 48, 100
2, 63406, Control_c, 0, 64, 127
2, 63526, Note_on_c, 0, 60, 96
2, 63693, Note_on_c, 0, 69, 111
2, 63693, Note_on_c, 0, 57, 103
2, 63695, Note_on_c, 0, 53, 93
2, 63867, Note_on_c, 0, 67, 92
2, 63928, Note_on_c, 0, 69, 0
2, 63932, Note_on_c, 0, 69, 103
2, 63963, Control_c, 0, 64, 0
2, 63967, Note_on_c, 0, 57, 0
2, 63968, Note_on_c, 0, 53, 0
2, 63968, Note_on_c, 0, 60, 0
2, 63982, Note_on_c, 0, 36, 0
2, 63982, Note_on_c, 0, 48, 0
2, 63982, Note_on_c, 0, 65, 0
2, 63989, Note_on_c, 0, 67, 0
2, 63996, Note_on_c, 0, 67, 99
2, 64007, Note_on_c, 0, 46, 104
2, 64012, Note_on_c, 0, 69, 0
2, 64014, Note_on_c, 0, 34, 107
2, 64028, Control_c, 0, 64, 127
2, 64173, Note_on_c, 0, 65, 106
2, 64325, Note_on_c, 0, 62, 104
2, 64330, Note_on_c, 0, 89, 111
2, 64330, Note_on_c, 0, 77, 108
2, 64330, Note_on_c, 0, 53, 92
2, 64332, Note_on_c, 0, 58, 91
2, 64483, Note_on_c, 0, 88, 106
2, 64485, Note_on_c, 0, 76, 97
2, 64488, Note_on_c, 0, 46, 0
2, 64494, Note_on_c, 0, 46, 88
2, 64558, Note_on_c, 0, 77, 0
2, 64558, Note_on_c, 0, 89, 0
2, 64563, Note_on_c, 0, 89, 114
2, 64565, Note_on_c, 0, 77, 106
2, 64599, Control_c, 0, 64, 0
2, 64606, Note_on_c, 0, 89, 0
2, 64606, Note_on_c, 0, 58, 0
2, 64606, Note_on_c, 0, 77, 0
2, 64606, Note_on_c, 0, 62, 0
2, 64607, Note_on_c, 0, 53, 0
2, 64607, Note_on_c, 0, 76, 0
2, 64607, Note_on_c, 0, 67, 0
2, 64608, Note_on_c, 0, 65, 0
2, 64608, Note_on_c, 0, 46, 0
2, 64619, Note_on_c, 0, 34, 0
2, 64631, Note_on_c, 0, 33, 98
2, 64635, Note_on_c, 0, 45, 107
2, 64642, Note_on_c, 0, 88, 0
2, 64651, Note_on_c, 0, 88, 106
2, 64653, Note_on_c, 0, 76, 109
2, 64673, Control_c, 0, 64, 127
2, 64796, Note_on_c, 0, 86, 110
2, 64799, Note_on_c, 0, 74, 105
2, 64945, Note_on_c, 0, 60, 102
2, 64951, Note_on_c, 0, 52, 90
2, 64955, Note_on_c, 0, 84, 108
2, 64956, Note_on_c, 0, 72, 110
2, 64956, Note_on_c, 0, 55, 82
2, 65115, Note_on_c, 0, 69, 108
2, 65116, Note_on_c, 0, 81, 109
2, 65254, Control_c, 0, 64, 0
2, 65272, Note_on_c, 0, 74, 0
2, 65272, Note_on_c, 0, 86, 0
2, 65272, Note_on_c, 0, 88, 0
2, 65273, Note_on_c, 0, 60, 0
2, 65273, Note_on_c, 0, 84, 0
2, 65273, Note_on_c, 0, 52, 0
2, 65274, Note_on_c, 0, 81, 0
2, 65274, Note_on_c, 0, 69, 0
2, 65274, Note_on_c, 0, 45, 0
2, 65274, Note_on_c, 0, 72, 0
2, 65280, Note_on_c, 0, 76, 0
2, 65280, Note_on_c, 0, 86, 110
2, 65283, Note_on_c, 0, 74, 110
2, 65284, Note_on_c, 0, 77, 100
2, 65284, Note_on_c, 0, 31, 101
2, 65284, Note_on_c, 0, 43, 103
2, 65288, Note_on_c, 0, 82, 100
2, 65295, Note_on_c, 0, 33, 0
2, 65333, Control_c, 0, 64, 127
2, 65341, Note_on_c, 0, 55, 0
2, 65379, Note_on_c, 0, 31, 0
2, 65406, Control_c, 0, 64, 0
2, 65410, Note_on_c, 0, 43, 0
2, 65587, Note_on_c, 0, 86, 0
2, 65610, Note_on_c, 0, 76, 107
2, 65611, Note_on_c, 0, 58, 101
2, 65612, Note_on_c, 0, 84, 109
2, 65613, Note_on_c, 0, 72, 108
2, 65613, Note_on_c, 0, 50, 97
2, 65648, Control_c, 0, 64, 127
2, 65679, Note_on_c, 0, 74, 0
2, 65750, Note_on_c, 0, 43, 102
2, 65838, Note_on_c, 0, 43, 0
2, 65840, Control_c, 0, 64, 0
2, 65840, Note_on_c, 0, 77, 0
2, 65840, Note_on_c, 0, 76, 0
2, 65841, Note_on_c, 0, 58, 0
2, 65842, Note_on_c, 0, 84, 0
2, 65842, Note_on_c, 0, 72, 0
2, 65848, Note_on_c, 0, 50, 0
2, 65848, Note_on_c, 0, 82, 0
2, 65928, Note_on_c, 0, 33, 97
2, 65929, Note_on_c, 0, 45, 107
2, 65938, Note_on_c, 0, 81, 106
2, 65940, Control_c, 0, 64, 127
2, 65942, Note_on_c, 0, 72, 105
2, 65943, Note_on_c, 0, 69, 101
2, 65970, Note_on_c, 0, 33, 0
2, 65970, Note_on_c, 0, 45, 0
2, 66001, Note_on_c, 0, 69, 0
2, 66001, Note_on_c, 0, 72, 0
2, 66057, Control_c, 0, 64, 0
2, 66078, Note_on_c, 0, 81, 0
2, 66248, Note_on_c, 0, 60, 108
2, 66252, Note_on_c, 0, 52, 99
2, 66257, Note_on_c, 0, 84, 104
2, 66258, Note_on_c, 0, 72, 107
2, 66260, Note_on_c, 0, 76, 100
2, 66263, Control_c, 0, 64, 127
2, 66389, Note_on_c, 0, 45, 102
2, 66389, Control_c, 0, 64, 0
2, 66393, Note_on_c, 0, 60, 0
2, 66394, Note_on_c, 0, 52, 0
2, 66397, Note_on_c, 0, 72, 0
2, 66397, Note_on_c, 0, 76, 0
2, 66398, Note_on_c, 0, 84, 0
2, 66405, Note_on_c, 0, 57, 69
2, 66478, Note_on_c, 0, 45, 0
2, 66485, Note_on_c, 0, 57, 0
2, 66560, Note_on_c, 0, 74, 109
2, 66561, Note_on_c, 0, 50, 107
2, 66565, Note_on_c, 0, 38, 107
2, 66568, Note_on_c, 0, 69, 90
2, 66585, Control_c, 0, 64, 127
2, 66716, Note_on_c, 0, 74, 0
2, 66721, Note_on_c, 0, 86, 97
2, 66722, Note_on_c, 0, 74, 99
2, 66723, Note_on_c, 0, 38, 0
2, 66724, Note_on_c, 0, 84, 83
2, 66728, Note_on_c, 0, 33, 88
2, 66730, Note_on_c, 0, 77, 89
2, 66733, Note_on_c, 0, 38, 101
2, 66733, Note_on_c, 0, 26, 99
2, 66735, Note_on_c, 0, 81, 80
2, 66885, Note_on_c, 0, 74, 0
2, 66885, Note_on_c, 0, 86, 0
2, 66889, Note_on_c, 0, 86, 102
2, 66894, Note_on_c, 0, 74, 99
2, 66900, Note_on_c, 0, 77, 0
2, 66905, Note_on_c, 0, 77, 90
2, 67038, Note_on_c, 0, 74, 0
2, 67038, Note_on_c, 0, 77, 0
2, 67038, Note_on_c, 0, 86, 0
2, 67042, Note_on_c, 0, 86, 100
2, 67043, Note_on_c, 0, 74, 102
2, 67044, Note_on_c, 0, 77, 96
2, 67046, Note_on_c, 0, 26, 0
2, 67046, Note_on_c, 0, 33, 0
2, 67046, Note_on_c, 0, 38, 0
2, 67050, Note_on_c, 0, 38, 99
2, 67051, Note_on_c, 0, 33, 83
2, 67052, Note_on_c, 0, 26, 94
2, 67192, Note_on_c, 0, 74, 0
2, 67192, Note_on_c, 0, 77, 0
2, 67192, Note_on_c, 0, 86, 0
2, 67198, Note_on_c, 0, 74, 102
2, 67202, Note_on_c, 0, 86, 102
2, 67203, Note_on_c, 0, 77, 97
2, 67361, Note_on_c, 0, 26, 0
2, 67361, Note_on_c, 0, 38, 0
2, 67366, Note_on_c, 0, 38, 93
2, 67367, Note_on_c, 0, 26, 98
2, 67369, Note_on_c, 0, 32, 84
2, 67376, Note_on_c, 0, 32, 0
2, 67552, Note_on_c, 0, 96, 91
2, 67555, Note_on_c, 0, 95, 98
2, 67557, Note_on_c, 0, 93, 100
2, 67565, Note_on_c, 0, 91, 94
2, 67577, Note_on_c, 0, 88, 93
2, 67580, Note_on_c, 0, 89, 85
2, 67591, Note_on_c, 0, 86, 0
2, 67599, Note_on_c, 0, 84, 0
2, 67599, Note_on_c, 0, 86, 81
2, 67610, Note_on_c, 0, 84, 67
2, 67611, Note_on_c, 0, 83, 62
2, 67622, Note_on_c, 0, 81, 0
2, 67628, Note_on_c, 0, 81, 59
2, 67641, Note_on_c, 0, 79, 60
2, 67688, Note_on_c, 0, 65, 87
2, 67696, Note_on_c, 0, 62, 95
2, 67701, Note_on_c, 0, 59, 97
2, 67702, Note_on_c, 0, 60, 88
2, 67727, Note_on_c, 0, 57, 88
2, 67736, Note_on_c, 0, 55, 78
2, 67860, Control_c, 0, 64, 0
2, 67871, Note_on_c, 0, 93, 0
2, 67871, Note_on_c, 0, 96, 0
2, 67871, Note_on_c, 0, 95, 0
2, 67871, Note_on_c, 0, 84, 0
2, 67871, Note_on_c, 0, 86, 0
2, 67871, Note_on_c, 0, 33, 0
2, 67871, Note_on_c, 0, 81, 0
2, 67872, Note_on_c, 0, 83, 0
2, 67872, Note_on_c, 0, 38, 0
2, 67872, Note_on_c, 0, 89, 0
2, 67872, Note_on_c, 0, 74, 0
2, 67872, Note_on_c, 0, 69, 0
2, 67872, Note_on_c, 0, 60, 0
2, 67872, Note_on_c, 0, 79, 0
2, 67872, Note_on_c, 0, 59, 0
2, 67872, Note_on_c, 0, 50, 0
2, 67872, Note_on_c, 0, 88, 0
2, 67872, Note_on_c, 0, 57, 0
2, 67872, Note_on_c, 0, 55, 0
2, 67880, Note_on_c, 0, 46, 108
2, 67883, Note_on_c, 0, 26, 0
2, 67888, Note_on_c, 0, 34, 97
2, 67891, Note_on_c, 0, 65, 0
2, 67891, Note_on_c, 0, 77, 0
2, 67891, Note_on_c, 0, 91, 0
2, 67906, Note_on_c, 0, 62, 0
2, 68205, Note_on_c, 0, 62, 97
2, 68206, Control_c, 0, 64, 127
2, 68209, Note_on_c, 0, 58, 98
2, 68212, Note_on_c, 0, 53, 86
2, 68359, Note_on_c, 0, 34, 0
2, 68363, Note_on_c, 0, 34, 83
2, 68428, Control_c, 0, 64, 0
2, 68432, Note_on_c, 0, 46, 0
2, 68432, Note_on_c, 0, 34, 0
2, 68433, Note_on_c, 0, 53, 0
2, 68434, Note_on_c, 0, 62, 0
2, 68434, Note_on_c, 0, 58, 0
2, 68520, Note_on_c, 0, 60, 109
2, 68524, Note_on_c, 0, 36, 98
2, 68529, Note_on_c, 0, 48, 103
2, 68533, Note_on_c, 0, 57, 87
2, 68549, Note_on_c, 0, 55, 62
2, 68571, Note_on_c, 0, 36, 0
2, 68689, Note_on_c, 0, 55, 0
2, 68700, Note_on_c, 0, 55, 73
2, 68712, Control_c, 0, 64, 127
2, 68849, Note_on_c, 0, 72, 103
2, 68853, Note_on_c, 0, 64, 102
2, 68857, Note_on_c, 0, 67, 96
2, 68862, Note_on_c, 0, 36, 80
2, 69007, Note_on_c, 0, 52, 97
2, 69178, Note_on_c, 0, 67, 0
2, 69179, Note_on_c, 0, 50, 109
2, 69179, Note_on_c, 0, 52, 0
2, 69180, Note_on_c, 0, 57, 0
2, 69180, Note_on_c, 0, 55, 0
2, 69181, Note_on_c, 0, 72, 0
2, 69181, Note_on_c, 0, 64, 0
2, 69181, Note_on_c, 0, 60, 0
2, 69182, Note_on_c, 0, 36, 0
2, 69183, Control_c, 0, 64, 0
2, 69184, Note_on_c, 0, 38, 107
2, 69189, Note_on_c, 0, 48, 0
2, 69515, Note_on_c, 0, 77, 97
2, 69516, Note_on_c, 0, 65, 108
2, 69517, Note_on_c, 0, 57, 101
2, 69550, Control_c, 0, 64, 127
2, 69642, Note_on_c, 0, 38, 0
2, 69648, Note_on_c, 0, 38, 84
2, 69649, Note_on_c, 0, 50, 0
2, 69660, Note_on_c, 0, 50, 65
2, 69774, Note_on_c, 0, 50, 0
2, 69774, Note_on_c, 0, 38, 0
2, 69775, Note_on_c, 0, 57, 0
2, 69776, Note_on_c, 0, 65, 0
2, 69776, Note_on_c, 0, 77, 0
2, 69776, Control_c, 0, 64, 0
2, 69823, Note_on_c, 0, 64, 106
2, 69837, Note_on_c, 0, 55, 84
2, 69837, Note_on_c, 0, 33, 101
2, 69838, Note_on_c, 0, 45, 98
2, 69895, Control_c, 0, 64, 127
2, 69972, Note_on_c, 0, 55, 0
2, 69976, Note_on_c, 0, 55, 68
2, 69981, Note_on_c, 0, 53, 91
2, 70141, Note_on_c, 0, 64, 0
2, 70152, Note_on_c, 0, 64, 101
2, 70156, Note_on_c, 0, 52, 91
2, 70156, Note_on_c, 0, 33, 0
2, 70156, Note_on_c, 0, 45, 0
2, 70157, Note_on_c, 0, 72, 106
2, 70159, Note_on_c, 0, 67, 97
2, 70160, Note_on_c, 0, 33, 93
2, 70166, Note_on_c, 0, 45, 89
2, 70299, Note_on_c, 0, 58, 62
2, 70348, Note_on_c, 0, 62, 86
2, 70440, Note_on_c, 0, 65, 92
2, 70442, Note_on_c, 0, 70, 101
2, 70463, Note_on_c, 0, 74, 110
2, 70478, Note_on_c, 0, 45, 0
2, 70479, Note_on_c, 0, 52, 0
2, 70481, Note_on_c, 0, 33, 0
2, 70481, Note_on_c, 0, 46, 109
2, 70482, Note_on_c, 0, 34, 107
2, 70482, Note_on_c, 0, 67, 0
2, 70483, Note_on_c, 0, 72, 0
2, 70485, Note_on_c, 0, 53, 0
2, 70485, Note_on_c, 0, 62, 0
2, 70487, Note_on_c, 0, 58, 0
2, 70489, Note_on_c, 0, 65, 0
2, 70492, Note_on_c, 0, 70, 0
2, 70494, Note_on_c, 0, 55, 0
2, 70500, Control_c, 0, 64, 0
2, 70502, Note_on_c, 0, 64, 0
2, 70505, Note_on_c, 0, 74, 0
2, 70514, Note_on_c, 0, 46, 0
2, 70515, Note_on_c, 0, 34, 0
2, 70790, Note_on_c, 0, 98, 112
2, 70794, Note_on_c, 0, 86, 108
2, 70798, Note_on_c, 0, 46, 107
2, 70799, Note_on_c, 0, 34, 93
2, 70799, Note_on_c, 0, 89, 97
2, 70817, Control_c, 0, 64, 127
2, 70848, Note_on_c, 0, 34, 0
2, 70956, Note_on_c, 0, 34, 96
2, 71090, Note_on_c, 0, 98, 0
2, 71092, Note_on_c, 0, 34, 0
2, 71092, Note_on_c, 0, 46, 0
2, 71092, Note_on_c, 0, 89, 0
2, 71093, Note_on_c, 0, 86, 0
2, 71096, Control_c, 0, 64, 0
2, 71125, Note_on_c, 0, 62, 106
2, 71126, Note_on_c, 0, 65, 100
2, 71127, Note_on_c, 0, 74, 107
2, 71128, Note_on_c, 0, 48, 110
2, 71129, Note_on_c, 0, 36, 99
2, 71173, Note_on_c, 0, 48, 0
2, 71174, Note_on_c, 0, 65, 0
2, 71177, Note_on_c, 0, 62, 0
2, 71178, Note_on_c, 0, 36, 0
2, 71216, Note_on_c, 0, 74, 0
2, 71448, Note_on_c, 0, 89, 108
2, 71449, Note_on_c, 0, 98, 115
2, 71450, Note_on_c, 0, 86, 109
2, 71458, Note_on_c, 0, 48, 104
2, 71459, Note_on_c, 0, 36, 84
2, 71470, Note_on_c, 0, 36, 0
2, 71470, Control_c, 0, 64, 127
2, 71480, Note_on_c, 0, 88, 72
2, 71600, Note_on_c, 0, 48, 0
2, 71609, Note_on_c, 0, 48, 98
2, 71610, Note_on_c, 0, 36, 101
2, 71671, Control_c, 0, 64, 0
2, 71678, Note_on_c, 0, 98, 0
2, 71680, Note_on_c, 0, 48, 0
2, 71681, Note_on_c, 0, 89, 0
2, 71681, Note_on_c, 0, 36, 0
2, 71681, Note_on_c, 0, 86, 0
2, 71692, Note_on_c, 0, 88, 0
2, 71752, Note_on_c, 0, 74, 111
2, 71753, Note_on_c, 0, 62, 102
2, 71756, Note_on_c, 0, 65, 102
2, 71762, Note_on_c, 0, 69, 88
2, 71766, Note_on_c, 0, 50, 98
2, 71769, Note_on_c, 0, 69, 0
2, 71772, Note_on_c, 0, 38, 104
2, 71777, Control_c, 0, 64, 127
2, 71928, Note_on_c, 0, 98, 114
2, 71930, Note_on_c, 0, 38, 0
2, 71933, Note_on_c, 0, 86, 112
2, 71937, Note_on_c, 0, 89, 103
2, 71942, Note_on_c, 0, 38, 101
2, 71946, Note_on_c, 0, 62, 0
2, 72076, Note_on_c, 0, 38, 0
2, 72076, Note_on_c, 0, 86, 0
2, 72076, Note_on_c, 0, 98, 0
2, 72081, Note_on_c, 0, 98, 111
2, 72084, Note_on_c, 0, 89, 0
2, 72087, Note_on_c, 0, 38, 74
2, 72087, Note_on_c, 0, 86, 107
2, 72095, Note_on_c, 0, 89, 98
2, 72102, Note_on_c, 0, 88, 75
2, 72107, Note_on_c, 0, 88, 0
2, 72230, Note_on_c, 0, 89, 0
2, 72230, Note_on_c, 0, 98, 0
2, 72238, Note_on_c, 0, 38, 0
2, 72238, Note_on_c, 0, 86, 0
2, 72239, Note_on_c, 0, 98, 111
2, 72241, Note_on_c, 0, 89, 101
2, 72242, Note_on_c, 0, 86, 107
2, 72245, Note_on_c, 0, 26, 99
2, 72246, Note_on_c, 0, 38, 106
2, 72249, Note_on_c, 0, 50, 0
2, 72253, Note_on_c, 0, 74, 0
2, 72257, Note_on_c, 0, 91, 81
2, 72276, Control_c, 0, 64, 0
2, 72299, Note_on_c, 0, 65, 0
2, 72360, Control_c, 0, 64, 127
2, 72391, Note_on_c, 0, 26, 0
2, 72407, Note_on_c, 0, 86, 0
2, 72407, Note_on_c, 0, 98, 0
2, 72414, Note_on_c, 0, 89, 0
2, 72416, Note_on_c, 0, 98, 114
2, 72418, Note_on_c, 0, 86, 110
2, 72419, Note_on_c, 0, 89, 109
2, 72552, Note_on_c, 0, 38, 0
2, 72557, Note_on_c, 0, 38, 93
2, 72558, Note_on_c, 0, 26, 97
2, 72562, Note_on_c, 0, 25, 96
2, 72568, Note_on_c, 0, 25, 0
2, 72568, Note_on_c, 0, 26, 0
2, 72733, Note_on_c, 0, 31, 82
2, 72801, Note_on_c, 0, 28, 89
2, 72806, Note_on_c, 0, 40, 88
2, 72837, Note_on_c, 0, 38, 0
2, 72843, Note_on_c, 0, 38, 85
2, 72855, Note_on_c, 0, 50, 87
2, 73038, Note_on_c, 0, 98, 0
2, 73039, Note_on_c, 0, 86, 0
2, 73039, Control_c, 0, 64, 0
2, 73039, Note_on_c, 0, 38, 0
2, 73040, Note_on_c, 0, 89, 0
2, 73040, Note_on_c, 0, 40, 0
2, 73040, Note_on_c, 0, 50, 0
2, 73044, Note_on_c, 0, 28, 0
2, 73052, Note_on_c, 0, 91, 0
2, 73059, Note_on_c, 0, 31, 0
2, 73101, Note_on_c, 0, 56, 79
2, 73255, Note_on_c, 0, 61, 86
2, 73423, Note_on_c, 0, 64, 93
2, 73466, Control_c, 0, 64, 127
2, 73574, Note_on_c, 0, 61, 0
2, 73578, Note_on_c, 0, 61, 87
2, 73743, Note_on_c, 0, 64, 0
2, 73749, Note_on_c, 0, 64, 71
2, 73911, Note_on_c, 0, 68, 80
2, 74068, Note_on_c, 0, 69, 92
2, 74219, Note_on_c, 0, 68, 0
2, 74229, Note_on_c, 0, 44, 74
2, 74230, Note_on_c, 0, 68, 96
2, 74247, Note_on_c, 0, 54, 68
2, 74247, Note_on_c, 0, 60, 75
2, 74251, Note_on_c, 0, 51, 64
2, 74257, Note_on_c, 0, 64, 0
2, 74261, Note_on_c, 0, 61, 0
2, 74261, Note_on_c, 0, 69, 0
2, 74270, Control_c, 0, 64, 0
2, 74472, Control_c, 0, 64, 127
2, 74563, Note_on_c, 0, 57, 74
2, 74726, Note_on_c, 0, 56, 0
2, 74732, Note_on_c, 0, 56, 69
2, 74880, Note_on_c, 0, 54, 0
2, 74886, Note_on_c, 0, 54, 70
2, 75048, Note_on_c, 0, 56, 0
2, 75056, Note_on_c, 0, 56, 82
2, 75228, Note_on_c, 0, 32, 73
2, 75363, Note_on_c, 0, 32, 0
2, 75363, Note_on_c, 0, 44, 0
2, 75363, Note_on_c, 0, 56, 0
2, 75373, Note_on_c, 0, 56, 94
2, 75374, Note_on_c, 0, 32, 72
2, 75375, Note_on_c, 0, 44, 84
2, 75668, Control_c, 0, 64, 0
2, 75669, Note_on_c, 0, 57, 0
2, 75669, Note_on_c, 0, 51, 0
2, 75670, Note_on_c, 0, 54, 0
2, 75671, Note_on_c, 0, 56, 0
2, 75671, Note_on_c, 0, 32, 0
2, 75671, Note_on_c, 0, 44, 0
2, 75671, Note_on_c, 0, 60, 0
2, 75694, Note_on_c, 0, 68, 0
2, 75704, Note_on_c, 0, 73, 103
2, 75705, Note_on_c, 0, 37, 91
2, 75710, Note_on_c, 0, 64, 93
2, 75816, Note_on_c, 0, 37, 0
2, 76045, Note_on_c, 0, 56, 81
2, 76047, Note_on_c, 0, 66, 93
2, 76072, Note_on_c, 0, 52, 61
2, 76089, Note_on_c, 0, 64, 0
2, 76092, Note_on_c, 0, 56, 0
2, 76103, Note_on_c, 0, 52, 0
2, 76185, Control_c, 0, 64, 127
2, 76209, Note_on_c, 0, 63, 90
2, 76212, Note_on_c, 0, 49, 66
2, 76344, Control_c, 0, 64, 0
2, 76352, Note_on_c, 0, 49, 0
2, 76359, Note_on_c, 0, 44, 83
2, 76360, Note_on_c, 0, 72, 100
2, 76362, Note_on_c, 0, 56, 80
2, 76369, Note_on_c, 0, 73, 0
2, 76392, Control_c, 0, 64, 127
2, 76523, Note_on_c, 0, 44, 0
2, 76533, Note_on_c, 0, 64, 89
2, 76533, Note_on_c, 0, 44, 64
2, 76674, Note_on_c, 0, 54, 75
2, 76693, Note_on_c, 0, 51, 73
2, 76830, Note_on_c, 0, 44, 0
2, 76837, Note_on_c, 0, 61, 86
2, 76837, Note_on_c, 0, 44, 70
2, 76968, Control_c, 0, 64, 0
2, 76968, Note_on_c, 0, 66, 0
2, 76972, Note_on_c, 0, 64, 0
2, 76972, Note_on_c, 0, 51, 0
2, 76972, Note_on_c, 0, 72, 0
2, 76972, Note_on_c, 0, 54, 0
2, 76972, Note_on_c, 0, 56, 0
2, 76973, Note_on_c, 0, 61, 0
2, 76992, Note_on_c, 0, 63, 0
2, 76994, Note_on_c, 0, 73, 99
2, 76999, Note_on_c, 0, 44, 0
2, 77000, Note_on_c, 0, 37, 89
2, 77076, Control_c, 0, 64, 127
2, 77158, Note_on_c, 0, 44, 55
2, 77159, Note_on_c, 0, 63, 79
2, 77291, Note_on_c, 0, 37, 0
2, 77302, Note_on_c, 0, 56, 77
2, 77314, Note_on_c, 0, 44, 0
2, 77318, Note_on_c, 0, 44, 63
2, 77337, Note_on_c, 0, 52, 63
2, 77343, Control_c, 0, 64, 0
2, 77372, Note_on_c, 0, 52, 0
2, 77375, Note_on_c, 0, 56, 0
2, 77406, Note_on_c, 0, 44, 0
2, 77473, Note_on_c, 0, 57, 86
2, 77486, Note_on_c, 0, 49, 60
2, 77526, Note_on_c, 0, 49, 0
2, 77598, Note_on_c, 0, 73, 0
2, 77631, Note_on_c, 0, 68, 93
2, 77632, Note_on_c, 0, 44, 88
2, 77729, Control_c, 0, 64, 127
2, 77793, Note_on_c, 0, 56, 86
2, 77945, Note_on_c, 0, 54, 85
2, 77973, Note_on_c, 0, 51, 63
2, 78105, Note_on_c, 0, 44, 0
2, 78105, Note_on_c, 0, 56, 0
2, 78110, Note_on_c, 0, 56, 92
2, 78115, Note_on_c, 0, 44, 89
2, 78245, Control_c, 0, 64, 0
2, 78248, Note_on_c, 0, 57, 0
2, 78248, Note_on_c, 0, 51, 0
2, 78248, Note_on_c, 0, 68, 0
2, 78248, Note_on_c, 0, 54, 0
2, 78248, Note_on_c, 0, 44, 0
2, 78248, Note_on_c, 0, 63, 0
2, 78249, Note_on_c, 0, 56, 0
2, 78276, Note_on_c, 0, 73, 102
2, 78278, Note_on_c, 0, 37, 95
2, 78281, Note_on_c, 0, 64, 88
2, 78343, Control_c, 0, 64, 127
2, 78601, Note_on_c, 0, 56, 84
2, 78603, Note_on_c, 0, 66, 98
2, 78613, Note_on_c, 0, 52, 82
2, 78624, Note_on_c, 0, 37, 0
2, 78630, Note_on_c, 0, 73, 0
2, 78631, Control_c, 0, 64, 0
2, 78637, Note_on_c, 0, 64, 0
2, 78654, Note_on_c, 0, 56, 0
2, 78656, Note_on_c, 0, 52, 0
2, 78764, Note_on_c, 0, 63, 95
2, 78771, Note_on_c, 0, 49, 66
2, 78781, Note_on_c, 0, 66, 0
2, 78813, Note_on_c, 0, 49, 0
2, 78912, Note_on_c, 0, 44, 88
2, 78914, Note_on_c, 0, 72, 95
2, 78924, Note_on_c, 0, 63, 0
2, 79057, Control_c, 0, 64, 127
2, 79080, Note_on_c, 0, 44, 0
2, 79087, Note_on_c, 0, 44, 71
2, 79087, Note_on_c, 0, 64, 95
2, 79231, Note_on_c, 0, 51, 82
2, 79237, Note_on_c, 0, 54, 65
2, 79388, Note_on_c, 0, 44, 0
2, 79397, Note_on_c, 0, 61, 105
2, 79399, Note_on_c, 0, 44, 76
2, 79532, Control_c, 0, 64, 0
2, 79545, Note_on_c, 0, 73, 92
2, 79545, Note_on_c, 0, 64, 0
2, 79548, Note_on_c, 0, 72, 0
2, 79549, Note_on_c, 0, 44, 0
2, 79550, Note_on_c, 0, 51, 0
2, 79550, Note_on_c, 0, 54, 0
2, 79563, Note_on_c, 0, 45, 85
2, 79721, Note_on_c, 0, 71, 104
2, 79726, Control_c, 0, 64, 127
2, 79876, Note_on_c, 0, 52, 78
2, 79880, Note_on_c, 0, 49, 81
2, 80025, Note_on_c, 0, 45, 0
2, 80025, Note_on_c, 0, 73, 0
2, 80033, Note_on_c, 0, 45, 80
2, 80036, Note_on_c, 0, 73, 108
2, 80083, Control_c, 0, 64, 0
2, 80090, Note_on_c, 0, 71, 0
2, 80091, Note_on_c, 0, 45, 0
2, 80093, Note_on_c, 0, 49, 0
2, 80094, Note_on_c, 0, 52, 0
2, 80102, Note_on_c, 0, 61, 0
2, 80190, Note_on_c, 0, 47, 95
2, 80191, Note_on_c, 0, 61, 87
2, 80271, Control_c, 0, 64, 127
2, 80349, Note_on_c, 0, 59, 92
2, 80504, Note_on_c, 0, 35, 87
2, 80506, Note_on_c, 0, 57, 96
2, 80664, Note_on_c, 0, 56, 89
2, 80796, Control_c, 0, 64, 0
2, 80797, Note_on_c, 0, 57, 0
2, 80797, Note_on_c, 0, 35, 0
2, 80798, Note_on_c, 0, 59, 0
2, 80798, Note_on_c, 0, 56, 0
2, 80816, Note_on_c, 0, 47, 0
2, 80816, Note_on_c, 0, 61, 0
2, 80816, Note_on_c, 0, 73, 0
2, 80827, Note_on_c, 0, 37, 96
2, 80828, Note_on_c, 0, 73, 104
2, 80850, Note_on_c, 0, 64, 95
2, 81085, Note_on_c, 0, 37, 0
2, 81145, Note_on_c, 0, 56, 88
2, 81154, Note_on_c, 0, 64, 0
2, 81156, Note_on_c, 0, 66, 100
2, 81158, Note_on_c, 0, 73, 0
2, 81172, Note_on_c, 0, 52, 67
2, 81197, Note_on_c, 0, 56, 0
2, 81210, Note_on_c, 0, 66, 0
2, 81211, Note_on_c, 0, 52, 0
2, 81311, Note_on_c, 0, 63, 94
2, 81327, Note_on_c, 0, 49, 68
2, 81464, Note_on_c, 0, 44, 86
2, 81475, Note_on_c, 0, 49, 0
2, 81481, Note_on_c, 0, 72, 96
2, 81485, Note_on_c, 0, 63, 0
2, 81607, Control_c, 0, 64, 127
2, 81645, Note_on_c, 0, 64, 94
2, 81646, Note_on_c, 0, 44, 0
2, 81649, Note_on_c, 0, 44, 69
2, 81787, Note_on_c, 0, 54, 68
2, 81806, Note_on_c, 0, 51, 63
2, 81945, Note_on_c, 0, 44, 0
2, 81949, Note_on_c, 0, 44, 71
2, 81950, Note_on_c, 0, 61, 94
2, 82063, Note_on_c, 0, 44, 0
2, 82065, Note_on_c, 0, 64, 0
2, 82066, Note_on_c, 0, 54, 0
2, 82066, Note_on_c, 0, 51, 0
2, 82070, Note_on_c, 0, 72, 0
2, 82072, Control_c, 0, 64, 0
2, 82075, Note_on_c, 0, 61, 0
2, 82106, Note_on_c, 0, 73, 94
2, 82107, Note_on_c, 0, 37, 96
2, 82206, Control_c, 0, 64, 127
2, 82281, Note_on_c, 0, 63, 94
2, 82417, Note_on_c, 0, 56, 84
2, 82418, Control_c, 0, 64, 0
2, 82431, Note_on_c, 0, 37, 0
2, 82439, Note_on_c, 0, 52, 65
2, 82468, Note_on_c, 0, 56, 0
2, 82475, Note_on_c, 0, 52, 0
2, 82585, Note_on_c, 0, 57, 90
2, 82609, Note_on_c, 0, 49, 72
2, 82640, Note_on_c, 0, 49, 0
2, 82652, Note_on_c, 0, 73, 0
2, 82749, Note_on_c, 0, 44, 88
2, 82751, Note_on_c, 0, 68, 93
2, 82764, Note_on_c, 0, 57, 0
2, 82805, Control_c, 0, 64, 127
2, 82901, Note_on_c, 0, 56, 91
2, 83055, Note_on_c, 0, 54, 76
2, 83061, Note_on_c, 0, 51, 72
2, 83212, Note_on_c, 0, 44, 0
2, 83217, Note_on_c, 0, 44, 79
2, 83243, Note_on_c, 0, 56, 0
2, 83247, Note_on_c, 0, 56, 63
2, 83270, Control_c, 0, 64, 0
2, 83327, Note_on_c, 0, 54, 0
2, 83327, Note_on_c, 0, 68, 0
2, 83328, Note_on_c, 0, 44, 0
2, 83328, Note_on_c, 0, 51, 0
2, 83329, Note_on_c, 0, 56, 0
2, 83343, Note_on_c, 0, 63, 0
2, 83391, Note_on_c, 0, 73, 99
2, 83393, Note_on_c, 0, 37, 93
2, 83393, Note_on_c, 0, 64, 98
2, 83458, Control_c, 0, 64, 127
2, 83673, Note_on_c, 0, 37, 0
2, 83706, Note_on_c, 0, 66, 98
2, 83707, Note_on_c, 0, 56, 75
2, 83713, Note_on_c, 0, 52, 70
2, 83728, Control_c, 0, 64, 0
2, 83734, Note_on_c, 0, 73, 0
2, 83748, Note_on_c, 0, 64, 0
2, 83760, Note_on_c, 0, 56, 0
2, 83768, Note_on_c, 0, 52, 0
2, 83874, Note_on_c, 0, 63, 94
2, 83876, Note_on_c, 0, 49, 61
2, 83878, Note_on_c, 0, 66, 0
2, 83880, Note_on_c, 0, 49, 0
2, 84014, Note_on_c, 0, 63, 0
2, 84025, Note_on_c, 0, 44, 90
2, 84025, Note_on_c, 0, 72, 100
2, 84195, Note_on_c, 0, 44, 0
2, 84205, Note_on_c, 0, 64, 93
2, 84206, Note_on_c, 0, 44, 71
2, 84241, Control_c, 0, 64, 127
2, 84344, Note_on_c, 0, 51, 73
2, 84344, Note_on_c, 0, 54, 74
2, 84357, Note_on_c, 0, 44, 0
2, 84366, Note_on_c, 0, 44, 54
2, 84503, Note_on_c, 0, 44, 0
2, 84509, Note_on_c, 0, 61, 94
2, 84512, Note_on_c, 0, 44, 65
2, 84628, Control_c, 0, 64, 0
2, 84630, Note_on_c, 0, 44, 0
2, 84631, Note_on_c, 0, 64, 0
2, 84631, Note_on_c, 0, 54, 0
2, 84631, Note_on_c, 0, 51, 0
2, 84634, Note_on_c, 0, 72, 0
2, 84639, Note_on_c, 0, 61, 0
2, 84678, Note_on_c, 0, 73, 101
2, 84691, Note_on_c, 0, 45, 88
2, 84748, Control_c, 0, 64, 127
2, 84847, Note_on_c, 0, 63, 94
2, 85005, Note_on_c, 0, 49, 76
2, 85005, Note_on_c, 0, 52, 76
2, 85161, Note_on_c, 0, 64, 96
2, 85171, Note_on_c, 0, 45, 0
2, 85178, Note_on_c, 0, 45, 86
2, 85205, Control_c, 0, 64, 0
2, 85229, Note_on_c, 0, 49, 0
2, 85230, Note_on_c, 0, 73, 0
2, 85234, Note_on_c, 0, 45, 0
2, 85235, Note_on_c, 0, 63, 0
2, 85236, Note_on_c, 0, 52, 0
2, 85318, Note_on_c, 0, 54, 104
2, 85320, Note_on_c, 0, 63, 107
2, 85320, Note_on_c, 0, 47, 98
2, 85327, Note_on_c, 0, 51, 94
2, 85363, Note_on_c, 0, 64, 0
2, 85386, Control_c, 0, 64, 127
2, 85455, Note_on_c, 0, 47, 0
2, 85463, Note_on_c, 0, 47, 84
2, 85550, Note_on_c, 0, 42, 86
2, 85638, Note_on_c, 0, 35, 81
2, 85803, Note_on_c, 0, 68, 99
2, 85922, Control_c, 0, 64, 0
2, 85928, Note_on_c, 0, 68, 0
2, 85928, Note_on_c, 0, 51, 0
2, 85928, Note_on_c, 0, 63, 0
2, 85929, Note_on_c, 0, 42, 0
2, 85929, Note_on_c, 0, 47, 0
2, 85931, Note_on_c, 0, 35, 0
2, 85939, Note_on_c, 0, 54, 0
2, 85964, Note_on_c, 0, 76, 106
2, 85965, Note_on_c, 0, 37, 105
2, 85966, Note_on_c, 0, 49, 95
2, 85973, Note_on_c, 0, 61, 96
2, 86062, Note_on_c, 0, 49, 0
2, 86069, Note_on_c, 0, 61, 0
2, 86278, Note_on_c, 0, 78, 108
2, 86282, Note_on_c, 0, 56, 100
2, 86291, Note_on_c, 0, 44, 84
2, 86300, Control_c, 0, 64, 127
2, 86312, Note_on_c, 0, 52, 59
2, 86446, Note_on_c, 0, 37, 0
2, 86450, Note_on_c, 0, 75, 98
2, 86455, Note_on_c, 0, 49, 78
2, 86457, Note_on_c, 0, 37, 75
2, 86499, Note_on_c, 0, 44, 0
2, 86564, Note_on_c, 0, 37, 0
2, 86565, Control_c, 0, 64, 0
2, 86566, Note_on_c, 0, 49, 0
2, 86567, Note_on_c, 0, 52, 0
2, 86570, Note_on_c, 0, 75, 0
2, 86570, Note_on_c, 0, 56, 0
2, 86571, Note_on_c, 0, 78, 0
2, 86584, Note_on_c, 0, 76, 0
2, 86606, Note_on_c, 0, 60, 98
2, 86611, Note_on_c, 0, 32, 86
2, 86676, Control_c, 0, 64, 127
2, 86770, Note_on_c, 0, 76, 105
2, 86921, Note_on_c, 0, 54, 89
2, 86946, Note_on_c, 0, 51, 65
2, 87088, Note_on_c, 0, 44, 85
2, 87094, Note_on_c, 0, 73, 103
2, 87172, Control_c, 0, 64, 0
2, 87179, Note_on_c, 0, 44, 0
2, 87179, Note_on_c, 0, 51, 0
2, 87179, Note_on_c, 0, 76, 0
2, 87179, Note_on_c, 0, 54, 0
2, 87180, Note_on_c, 0, 60, 0
2, 87191, Note_on_c, 0, 32, 0
2, 87251, Note_on_c, 0, 37, 99
2, 87254, Note_on_c, 0, 61, 99
2, 87313, Control_c, 0, 64, 127
2, 87421, Note_on_c, 0, 75, 98
2, 87568, Note_on_c, 0, 56, 97
2, 87577, Note_on_c, 0, 52, 77
2, 87731, Note_on_c, 0, 49, 73
2, 87736, Note_on_c, 0, 69, 100
2, 87861, Control_c, 0, 64, 0
2, 87862, Note_on_c, 0, 37, 0
2, 87862, Note_on_c, 0, 49, 0
2, 87862, Note_on_c, 0, 75, 0
2, 87862, Note_on_c, 0, 52, 0
2, 87863, Note_on_c, 0, 56, 0
2, 87864, Note_on_c, 0, 61, 0
2, 87882, Note_on_c, 0, 73, 0
2, 87885, Note_on_c, 0, 60, 96
2, 87887, Note_on_c, 0, 32, 90
2, 87959, Control_c, 0, 64, 127
2, 88050, Note_on_c, 0, 68, 105
2, 88195, Note_on_c, 0, 54, 91
2, 88207, Note_on_c, 0, 51, 78
2, 88358, Note_on_c, 0, 68, 0
2, 88362, Note_on_c, 0, 44, 77
2, 88363, Note_on_c, 0, 68, 98
2, 88462, Control_c, 0, 64, 0
2, 88467, Note_on_c, 0, 51, 0
2, 88467, Note_on_c, 0, 44, 0
2, 88468, Note_on_c, 0, 60, 0
2, 88468, Note_on_c, 0, 54, 0
2, 88468, Note_on_c, 0, 68, 0
2, 88473, Note_on_c, 0, 32, 0
2, 88473, Note_on_c, 0, 69, 0
2, 88519, Note_on_c, 0, 76, 110
2, 88524, Note_on_c, 0, 61, 106
2, 88526, Note_on_c, 0, 37, 98
2, 88573, Control_c, 0, 64, 127
2, 88846, Note_on_c, 0, 78, 110
2, 88859, Note_on_c, 0, 56, 99
2, 88874, Note_on_c, 0, 52, 72
2, 89019, Note_on_c, 0, 49, 82
2, 89021, Note_on_c, 0, 75, 106
2, 89138, Control_c, 0, 64, 0
2, 89141, Note_on_c, 0, 61, 0
2, 89143, Note_on_c, 0, 76, 0
2, 89143, Note_on_c, 0, 56, 0
2, 89143, Note_on_c, 0, 37, 0
2, 89144, Note_on_c, 0, 52, 0
2, 89144, Note_on_c, 0, 75, 0
2, 89144, Note_on_c, 0, 78, 0
2, 89144, Note_on_c, 0, 49, 0
2, 89169, Note_on_c, 0, 60, 107
2, 89171, Note_on_c, 0, 32, 91
2, 89226, Control_c, 0, 64, 127
2, 89330, Note_on_c, 0, 76, 111
2, 89490, Note_on_c, 0, 54, 96
2, 89515, Note_on_c, 0, 51, 68
2, 89648, Note_on_c, 0, 32, 0
2, 89653, Note_on_c, 0, 44, 82
2, 89655, Note_on_c, 0, 32, 82
2, 89656, Note_on_c, 0, 73, 106
2, 89710, Note_on_c, 0, 60, 0
2, 89723, Control_c, 0, 64, 0
2, 89729, Note_on_c, 0, 44, 0
2, 89729, Note_on_c, 0, 32, 0
2, 89730, Note_on_c, 0, 76, 0
2, 89731, Note_on_c, 0, 51, 0
2, 89732, Note_on_c, 0, 54, 0
2, 89806, Note_on_c, 0, 61, 105
2, 89807, Note_on_c, 0, 33, 97
2, 89902, Control_c, 0, 64, 127
2, 89966, Note_on_c, 0, 83, 109
2, 90122, Note_on_c, 0, 49, 99
2, 90136, Note_on_c, 0, 52, 89
2, 90263, Note_on_c, 0, 33, 0
2, 90273, Note_on_c, 0, 33, 86
2, 90284, Note_on_c, 0, 85, 114
2, 90287, Note_on_c, 0, 49, 0
2, 90290, Note_on_c, 0, 97, 101
2, 90301, Note_on_c, 0, 97, 0
2, 90394, Note_on_c, 0, 33, 0
2, 90396, Note_on_c, 0, 61, 0
2, 90397, Note_on_c, 0, 73, 0
2, 90397, Note_on_c, 0, 83, 0
2, 90397, Note_on_c, 0, 52, 0
2, 90403, Note_on_c, 0, 85, 0
2, 90405, Control_c, 0, 64, 0
2, 90436, Note_on_c, 0, 35, 99
2, 90508, Control_c, 0, 64, 127
2, 90612, Note_on_c, 0, 47, 100
2, 90759, Note_on_c, 0, 54, 94
2, 90762, Note_on_c, 0, 47, 0
2, 90765, Note_on_c, 0, 59, 94
2, 90772, Note_on_c, 0, 47, 84
2, 90774, Note_on_c, 0, 51, 77
2, 90924, Note_on_c, 0, 68, 95
2, 91005, Control_c, 0, 64, 0
2, 91011, Note_on_c, 0, 51, 0
2, 91012, Note_on_c, 0, 47, 0
2, 91012, Note_on_c, 0, 59, 0
2, 91012, Note_on_c, 0, 54, 0
2, 91023, Note_on_c, 0, 35, 0
2, 91084, Note_on_c, 0, 76, 110
2, 91087, Note_on_c, 0, 37, 100
2, 91096, Note_on_c, 0, 61, 102
2, 91107, Note_on_c, 0, 68, 0
2, 91176, Control_c, 0, 64, 127
2, 91409, Note_on_c, 0, 78, 108
2, 91410, Note_on_c, 0, 56, 96
2, 91439, Note_on_c, 0, 52, 63
2, 91578, Note_on_c, 0, 75, 99
2, 91580, Note_on_c, 0, 49, 78
2, 91599, Note_on_c, 0, 76, 0
2, 91609, Note_on_c, 0, 76, 66
2, 91682, Control_c, 0, 64, 0
2, 91687, Note_on_c, 0, 37, 0
2, 91689, Note_on_c, 0, 76, 0
2, 91689, Note_on_c, 0, 52, 0
2, 91689, Note_on_c, 0, 49, 0
2, 91690, Note_on_c, 0, 56, 0
2, 91690, Note_on_c, 0, 75, 0
2, 91693, Note_on_c, 0, 78, 0
2, 91693, Note_on_c, 0, 61, 0
2, 91732, Note_on_c, 0, 60, 97
2, 91736, Note_on_c, 0, 32, 85
2, 91799, Control_c, 0, 64, 127
2, 91889, Note_on_c, 0, 76, 106
2, 92062, Note_on_c, 0, 54, 73
2, 92065, Note_on_c, 0, 51, 74
2, 92217, Note_on_c, 0, 73, 100
2, 92219, Note_on_c, 0, 44, 87
2, 92298, Note_on_c, 0, 60, 0
2, 92300, Control_c, 0, 64, 0
2, 92301, Note_on_c, 0, 44, 0
2, 92301, Note_on_c, 0, 54, 0
2, 92302, Note_on_c, 0, 76, 0
2, 92302, Note_on_c, 0, 51, 0
2, 92321, Note_on_c, 0, 32, 0
2, 92381, Note_on_c, 0, 61, 101
2, 92383, Note_on_c, 0, 37, 90
2, 92444, Control_c, 0, 64, 127
2, 92539, Note_on_c, 0, 75, 103
2, 92692, Note_on_c, 0, 56, 93
2, 92717, Note_on_c, 0, 52, 70
2, 92851, Note_on_c, 0, 37, 0
2, 92861, Note_on_c, 0, 37, 69
2, 92862, Note_on_c, 0, 69, 99
2, 92962, Control_c, 0, 64, 0
2, 92963, Note_on_c, 0, 75, 0
2, 92963, Note_on_c, 0, 37, 0
2, 92965, Note_on_c, 0, 52, 0
2, 92966, Note_on_c, 0, 73, 0
2, 92968, Note_on_c, 0, 56, 0
2, 92968, Note_on_c, 0, 61, 0
2, 93012, Note_on_c, 0, 60, 97
2, 93024, Note_on_c, 0, 32, 86
2, 93073, Control_c, 0, 64, 127
2, 93178, Note_on_c, 0, 68, 103
2, 93332, Note_on_c, 0, 54, 83
2, 93337, Note_on_c, 0, 51, 77
2, 93488, Note_on_c, 0, 68, 0
2, 93492, Note_on_c, 0, 68, 99
2, 93493, Note_on_c, 0, 44, 85
2, 93494, Note_on_c, 0, 56, 78
2, 93644, Note_on_c, 0, 49, 96
2, 93646, Note_on_c, 0, 37, 99
2, 93649, Note_on_c, 0, 25, 97
2, 93700, Note_on_c, 0, 69, 0
2, 93703, Note_on_c, 0, 54, 0
2, 93703, Note_on_c, 0, 44, 0
2, 93704, Note_on_c, 0, 60, 0
2, 93704, Note_on_c, 0, 51, 0
2, 93704, Note_on_c, 0, 68, 0
2, 93707, Note_on_c, 0, 37, 0
2, 93713, Control_c, 0, 64, 0
2, 93719, Note_on_c, 0, 32, 0
2, 93987, Note_on_c, 0, 49, 0
2, 93997, Note_on_c, 0, 49, 68
2, 94149, Note_on_c, 0, 25, 0
2, 94153, Note_on_c, 0, 25, 89
2, 94156, Note_on_c, 0, 37, 93
2, 94156, Note_on_c, 0, 49, 0
2, 94161, Note_on_c, 0, 49, 83
2, 94179, Note_on_c, 0, 56, 0
2, 94195, Note_on_c, 0, 49, 0
2, 94199, Note_on_c, 0, 37, 0
2, 94490, Note_on_c, 0, 49, 80
2, 94494, Note_on_c, 0, 25, 0
2, 94497, Note_on_c, 0, 37, 84
2, 94500, Note_on_c, 0, 25, 78
2, 94548, Control_c, 0, 64, 127
2, 94840, Note_on_c, 0, 25, 0
2, 94840, Note_on_c, 0, 37, 0
2, 94846, Note_on_c, 0, 25, 84
2, 94847, Note_on_c, 0, 37, 83
2, 94854, Control_c, 0, 64, 0
2, 94886, Control_c, 0, 64, 127
2, 94909, Note_on_c, 0, 37, 0
2, 94917, Note_on_c, 0, 25, 0
2, 94920, Note_on_c, 0, 37, 88
2, 94923, Note_on_c, 0, 25, 81
2, 94975, Note_on_c, 0, 24, 67
2, 94986, Note_on_c, 0, 24, 0
2, 95360, Note_on_c, 0, 25, 0
2, 95364, Note_on_c, 0, 37, 0
2, 95365, Control_c, 0, 64, 0
2, 95377, Note_on_c, 0, 49, 0
2, 95635, Note_on_c, 0, 86, 113
2, 95640, Note_on_c, 0, 74, 116
2, 95662, Note_on_c, 0, 33, 81
2, 95665, Note_on_c, 0, 26, 102
2, 95667, Note_on_c, 0, 38, 89
2, 95669, Control_c, 0, 64, 127
2, 95675, Note_on_c, 0, 24, 73
2, 95676, Note_on_c, 0, 36, 71
2, 95784, Note_on_c, 0, 36, 0
2, 95794, Note_on_c, 0, 84, 104
2, 95796, Note_on_c, 0, 36, 83
2, 95799, Note_on_c, 0, 72, 93
2, 95808, Note_on_c, 0, 38, 0
2, 95815, Note_on_c, 0, 38, 76
2, 95827, Note_on_c, 0, 80, 58
2, 95956, Note_on_c, 0, 70, 107
2, 95956, Note_on_c, 0, 82, 102
2, 96105, Note_on_c, 0, 69, 108
2, 96105, Note_on_c, 0, 81, 113
2, 96209, Note_on_c, 0, 84, 0
2, 96209, Control_c, 0, 64, 0
2, 96211, Note_on_c, 0, 70, 0
2, 96211, Note_on_c, 0, 82, 0
2, 96211, Note_on_c, 0, 72, 0
2, 96211, Note_on_c, 0, 36, 0
2, 96212, Note_on_c, 0, 86, 0
2, 96212, Note_on_c, 0, 38, 0
2, 96212, Note_on_c, 0, 74, 0
2, 96214, Note_on_c, 0, 81, 0
2, 96215, Note_on_c, 0, 24, 0
2, 96215, Note_on_c, 0, 33, 0
2, 96217, Note_on_c, 0, 69, 0
2, 96222, Note_on_c, 0, 26, 0
2, 96230, Note_on_c, 0, 80, 0
2, 96280, Note_on_c, 0, 38, 105
2, 96280, Note_on_c, 0, 50, 113
2, 96281, Note_on_c, 0, 62, 110
2, 96307, Control_c, 0, 64, 127
2, 96589, Note_on_c, 0, 57, 108
2, 96593, Note_on_c, 0, 74, 112
2, 96593, Note_on_c, 0, 53, 103
2, 96595, Note_on_c, 0, 69, 102
2, 96595, Note_on_c, 0, 65, 100
2, 96729, Note_on_c, 0, 50, 0
2, 96740, Note_on_c, 0, 50, 100
2, 96752, Note_on_c, 0, 62, 0
2, 96761, Note_on_c, 0, 62, 99
2, 96876, Control_c, 0, 64, 0
2, 96879, Note_on_c, 0, 74, 0
2, 96879, Note_on_c, 0, 38, 0
2, 96879, Note_on_c, 0, 65, 0
2, 96879, Note_on_c, 0, 53, 0
2, 96879, Note_on_c, 0, 69, 0
2, 96879, Note_on_c, 0, 62, 0
2, 96879, Note_on_c, 0, 57, 0
2, 96890, Note_on_c, 0, 50, 0
2, 96918, Note_on_c, 0, 48, 110
2, 96918, Note_on_c, 0, 36, 101
2, 96919, Note_on_c, 0, 64, 110
2, 96920, Note_on_c, 0, 76, 102
2, 96952, Control_c, 0, 64, 127
2, 97237, Note_on_c, 0, 74, 110
2, 97239, Note_on_c, 0, 62, 109
2, 97240, Note_on_c, 0, 69, 86
2, 97241, Note_on_c, 0, 53, 97
2, 97242, Note_on_c, 0, 65, 96
2, 97242, Note_on_c, 0, 57, 99
2, 97392, Note_on_c, 0, 60, 105
2, 97405, Note_on_c, 0, 48, 0
2, 97409, Note_on_c, 0, 48, 77
2, 97510, Control_c, 0, 64, 0
2, 97510, Note_on_c, 0, 48, 0
2, 97510, Note_on_c, 0, 60, 0
2, 97510, Note_on_c, 0, 57, 0
2, 97510, Note_on_c, 0, 65, 0
2, 97510, Note_on_c, 0, 53, 0
2, 97510, Note_on_c, 0, 69, 0
2, 97510, Note_on_c, 0, 62, 0
2, 97510, Note_on_c, 0, 64, 0
2, 97511, Note_on_c, 0, 74, 0
2, 97528, Note_on_c, 0, 36, 0
2, 97536, Note_on_c, 0, 76, 0
2, 97555, Note_on_c, 0, 62, 110
2, 97556, Note_on_c, 0, 34, 102
2, 97560, Note_on_c, 0, 58, 94
2, 97589, Control_c, 0, 64, 127
2, 97710, Note_on_c, 0, 69, 109
2, 97720, Note_on_c, 0, 58, 0
2, 97727, Note_on_c, 0, 58, 67
2, 97866, Note_on_c, 0, 69, 0
2, 97873, Note_on_c, 0, 69, 106
2, 97875, Note_on_c, 0, 74, 112
2, 97877, Note_on_c, 0, 57, 109
2, 97879, Note_on_c, 0, 53, 86
2, 98012, Note_on_c, 0, 69, 0
2, 98016, Note_on_c, 0, 46, 91
2, 98021, Note_on_c, 0, 57, 0
2, 98022, Note_on_c, 0, 69, 98
2, 98137, Control_c, 0, 64, 0
2, 98139, Note_on_c, 0, 74, 0
2, 98139, Note_on_c, 0, 69, 0
2, 98139, Note_on_c, 0, 62, 0
2, 98140, Note_on_c, 0, 53, 0
2, 98158, Note_on_c, 0, 34, 0
2, 98158, Note_on_c, 0, 46, 0
2, 98158, Note_on_c, 0, 58, 0
2, 98191, Note_on_c, 0, 69, 109
2, 98192, Note_on_c, 0, 79, 114
2, 98193, Note_on_c, 0, 74, 110
2, 98194, Note_on_c, 0, 45, 105
2, 98197, Note_on_c, 0, 33, 98
2, 98211, Control_c, 0, 64, 127
2, 98511, Note_on_c, 0, 45, 0
2, 98511, Note_on_c, 0, 69, 0
2, 98513, Note_on_c, 0, 77, 111
2, 98517, Note_on_c, 0, 65, 109
2, 98519, Note_on_c, 0, 53, 104
2, 98519, Note_on_c, 0, 69, 100
2, 98519, Note_on_c, 0, 57, 105
2, 98522, Note_on_c, 0, 45, 98
2, 98672, Note_on_c, 0, 76, 113
2, 98675, Note_on_c, 0, 64, 111
2, 98728, Note_on_c, 0, 74, 0
2, 98729, Note_on_c, 0, 45, 0
2, 98729, Note_on_c, 0, 77, 0
2, 98730, Note_on_c, 0, 53, 0
2, 98730, Note_on_c, 0, 57, 0
2, 98731, Note_on_c, 0, 69, 0
2, 98732, Control_c, 0, 64, 0
2, 98735, Note_on_c, 0, 65, 0
2, 98736, Note_on_c, 0, 76, 0
2, 98737, Note_on_c, 0, 64, 0
2, 98741, Note_on_c, 0, 33, 0
2, 98741, Note_on_c, 0, 79, 0
2, 98836, Note_on_c, 0, 43, 110
2, 98836, Note_on_c, 0, 31, 107
2, 98837, Note_on_c, 0, 62, 106
2, 98837, Note_on_c, 0, 65, 88
2, 98839, Note_on_c, 0, 74, 99
2, 98845, Note_on_c, 0, 70, 94
2, 98864, Control_c, 0, 64, 127
2, 99148, Note_on_c, 0, 65, 0
2, 99148, Note_on_c, 0, 70, 0
2, 99148, Note_on_c, 0, 74, 0
2, 99151, Control_c, 0, 64, 0
2, 99152, Note_on_c, 0, 58, 103
2, 99153, Note_on_c, 0, 74, 108
2, 99158, Note_on_c, 0, 50, 87
2, 99158, Note_on_c, 0, 70, 102
2, 99159, Note_on_c, 0, 65, 99
2, 99161, Note_on_c, 0, 46, 96
2, 99187, Control_c, 0, 64, 127
2, 99287, Note_on_c, 0, 43, 0
2, 99293, Note_on_c, 0, 43, 99
2, 99317, Note_on_c, 0, 62, 0
2, 99327, Note_on_c, 0, 62, 102
2, 99405, Note_on_c, 0, 50, 0
2, 99406, Control_c, 0, 64, 0
2, 99406, Note_on_c, 0, 46, 0
2, 99406, Note_on_c, 0, 62, 0
2, 99406, Note_on_c, 0, 58, 0
2, 99407, Note_on_c, 0, 65, 0
2, 99417, Note_on_c, 0, 31, 0
2, 99425, Note_on_c, 0, 43, 0
2, 99432, Note_on_c, 0, 70, 0
2, 99432, Note_on_c, 0, 74, 0
2, 99474, Note_on_c, 0, 29, 106
2, 99476, Note_on_c, 0, 41, 105
2, 99477, Note_on_c, 0, 64, 106
2, 99517, Control_c, 0, 64, 127
2, 99789, Note_on_c, 0, 74, 108
2, 99790, Note_on_c, 0, 69, 91
2, 99791, Note_on_c, 0, 65, 99
2, 99791, Note_on_c, 0, 62, 103
2, 99792, Note_on_c, 0, 53, 98
2, 99796, Note_on_c, 0, 57, 101
2, 99805, Control_c, 0, 64, 0
2, 99809, Control_c, 0, 64, 127
2, 99950, Note_on_c, 0, 60, 103
2, 100030, Control_c, 0, 64, 0
2, 100035, Note_on_c, 0, 41, 0
2, 100035, Note_on_c, 0, 74, 0
2, 100036, Note_on_c, 0, 57, 0
2, 100036, Note_on_c, 0, 62, 0
2, 100036, Note_on_c, 0, 65, 0
2, 100036, Note_on_c, 0, 69, 0
2, 100036, Note_on_c, 0, 60, 0
2, 100036, Note_on_c, 0, 53, 0
2, 100037, Note_on_c, 0, 64, 0
2, 100055, Note_on_c, 0, 29, 0
2, 100112, Note_on_c, 0, 40, 96
2, 100112, Note_on_c, 0, 62, 106
2, 100114, Note_on_c, 0, 28, 95
2, 100131, Control_c, 0, 64, 127
2, 100265, Note_on_c, 0, 69, 107
2, 100423, Note_on_c, 0, 62, 0
2, 100423, Note_on_c, 0, 69, 0
2, 100427, Note_on_c, 0, 74, 114
2, 100427, Note_on_c, 0, 69, 106
2, 100429, Note_on_c, 0, 62, 105
2, 100433, Note_on_c, 0, 58, 105
2, 100441, Note_on_c, 0, 52, 89
2, 100561, Note_on_c, 0, 52, 0
2, 100561, Note_on_c, 0, 69, 0
2, 100566, Note_on_c, 0, 52, 87
2, 100569, Note_on_c, 0, 64, 75
2, 100572, Note_on_c, 0, 69, 83
2, 100577, Note_on_c, 0, 64, 0
2, 100703, Control_c, 0, 64, 0
2, 100712, Note_on_c, 0, 58, 0
2, 100713, Note_on_c, 0, 52, 0
2, 100713, Note_on_c, 0, 62, 0
2, 100713, Note_on_c, 0, 74, 0
2, 100714, Note_on_c, 0, 40, 0
2, 100723, Note_on_c, 0, 28, 0
2, 100738, Note_on_c, 0, 69, 0
2, 100745, Note_on_c, 0, 33, 101
2, 100747, Note_on_c, 0, 45, 111
2, 100749, Note_on_c, 0, 81, 114
2, 100749, Note_on_c, 0, 69, 109
2, 100754, Note_on_c, 0, 74, 103
2, 100776, Control_c, 0, 64, 127
2, 100907, Note_on_c, 0, 45, 0
2, 100911, Note_on_c, 0, 47, 97
2, 100912, Note_on_c, 0, 35, 93
2, 100918, Note_on_c, 0, 45, 81
2, 100995, Control_c, 0, 64, 0
2, 100996, Note_on_c, 0, 74, 0
2, 100996, Note_on_c, 0, 81, 0
2, 100996, Note_on_c, 0, 45, 0
2, 100996, Note_on_c, 0, 33, 0
2, 100997, Note_on_c, 0, 69, 0
2, 100998, Note_on_c, 0, 35, 0
2, 101000, Note_on_c, 0, 47, 0
2, 101061, Note_on_c, 0, 69, 112
2, 101064, Note_on_c, 0, 81, 112
2, 101065, Note_on_c, 0, 73, 112
2, 101068, Note_on_c, 0, 76, 93
2, 101070, Note_on_c, 0, 49, 99
2, 101072, Note_on_c, 0, 37, 96
2, 101076, Control_c, 0, 64, 127
2, 101219, Note_on_c, 0, 33, 95
2, 101220, Note_on_c, 0, 45, 96
2, 101342, Control_c, 0, 64, 0
2, 101349, Note_on_c, 0, 81, 0
2, 101349, Note_on_c, 0, 49, 0
2, 101349, Note_on_c, 0, 37, 0
2, 101349, Note_on_c, 0, 73, 0
2, 101350, Note_on_c, 0, 69, 0
2, 101350, Note_on_c, 0, 45, 0
2, 101360, Note_on_c, 0, 76, 0
2, 101368, Note_on_c, 0, 33, 0
2, 101394, Note_on_c, 0, 62, 110
2, 101394, Note_on_c, 0, 50, 111
2, 101395, Note_on_c, 0, 38, 104
2, 101437, Control_c, 0, 64, 127
2, 101718, Note_on_c, 0, 74, 111
2, 101723, Note_on_c, 0, 65, 97
2, 101725, Note_on_c, 0, 69, 93
2, 101726, Note_on_c, 0, 53, 97
2, 101726, Note_on_c, 0, 57, 103
2, 101727, Control_c, 0, 64, 0
2, 101752, Control_c, 0, 64, 127
2, 101867, Note_on_c, 0, 50, 0
2, 101867, Note_on_c, 0, 62, 0
2, 101867, Note_on_c, 0, 74, 0
2, 101871, Note_on_c, 0, 62, 105
2, 101871, Note_on_c, 0, 50, 94
2, 101873, Note_on_c, 0, 74, 90
2, 101977, Control_c, 0, 64, 0
2, 101982, Note_on_c, 0, 57, 0
2, 101983, Note_on_c, 0, 74, 0
2, 101983, Note_on_c, 0, 38, 0
2, 101983, Note_on_c, 0, 53, 0
2, 101983, Note_on_c, 0, 65, 0
2, 101983, Note_on_c, 0, 69, 0
2, 101984, Note_on_c, 0, 62, 0
2, 101984, Note_on_c, 0, 50, 0
2, 102041, Note_on_c, 0, 48, 109
2, 102042, Note_on_c, 0, 64, 106
2, 102044, Note_on_c, 0, 36, 101
2, 102045, Note_on_c, 0, 76, 101
2, 102074, Control_c, 0, 64, 127
2, 102344, Control_c, 0, 64, 0
2, 102356, Note_on_c, 0, 74, 107
2, 102359, Note_on_c, 0, 65, 95
2, 102360, Note_on_c, 0, 62, 103
2, 102361, Note_on_c, 0, 69, 89
2, 102361, Note_on_c, 0, 53, 99
2, 102362, Note_on_c, 0, 57, 100
2, 102382, Control_c, 0, 64, 127
2, 102515, Note_on_c, 0, 60, 100
2, 102608, Note_on_c, 0, 74, 0
2, 102608, Note_on_c, 0, 64, 0
2, 102608, Note_on_c, 0, 48, 0
2, 102608, Control_c, 0, 64, 0
2, 102608, Note_on_c, 0, 65, 0
2, 102609, Note_on_c, 0, 60, 0
2, 102609, Note_on_c, 0, 69, 0
2, 102609, Note_on_c, 0, 57, 0
2, 102609, Note_on_c, 0, 62, 0
2, 102609, Note_on_c, 0, 53, 0
2, 102627, Note_on_c, 0, 36, 0
2, 102635, Note_on_c, 0, 76, 0
2, 102672, Note_on_c, 0, 46, 105
2, 102676, Note_on_c, 0, 34, 97
2, 102679, Note_on_c, 0, 62, 106
2, 102696, Control_c, 0, 64, 127
2, 102824, Note_on_c, 0, 69, 106
2, 102852, Note_on_c, 0, 58, 60
2, 102988, Note_on_c, 0, 69, 0
2, 102992, Note_on_c, 0, 74, 110
2, 102993, Note_on_c, 0, 69, 105
2, 102995, Note_on_c, 0, 57, 107
2, 102996, Note_on_c, 0, 34, 0
2, 103003, Note_on_c, 0, 45, 96
2, 103003, Note_on_c, 0, 34, 79
2, 103127, Note_on_c, 0, 34, 0
2, 103127, Note_on_c, 0, 46, 0
2, 103134, Note_on_c, 0, 69, 0
2, 103137, Note_on_c, 0, 34, 81
2, 103138, Note_on_c, 0, 46, 95
2, 103143, Note_on_c, 0, 69, 94
2, 103275, Note_on_c, 0, 46, 0
2, 103277, Note_on_c, 0, 57, 0
2, 103277, Note_on_c, 0, 62, 0
2, 103280, Note_on_c, 0, 58, 0
2, 103280, Control_c, 0, 64, 0
2, 103288, Note_on_c, 0, 34, 0
2, 103303, Note_on_c, 0, 45, 0
2, 103303, Note_on_c, 0, 69, 0
2, 103303, Note_on_c, 0, 74, 0
2, 103310, Note_on_c, 0, 45, 106
2, 103310, Note_on_c, 0, 69, 102
2, 103310, Note_on_c, 0, 79, 109
2, 103313, Note_on_c, 0, 74, 106
2, 103314, Note_on_c, 0, 33, 97
2, 103342, Control_c, 0, 64, 127
2, 103638, Note_on_c, 0, 77, 108
2, 103645, Note_on_c, 0, 65, 105
2, 103645, Note_on_c, 0, 57, 98
2, 103647, Note_on_c, 0, 53, 97
2, 103792, Note_on_c, 0, 76, 110
2, 103793, Note_on_c, 0, 64, 106
2, 103867, Control_c, 0, 64, 0
2, 103868, Note_on_c, 0, 74, 0
2, 103868, Note_on_c, 0, 57, 0
2, 103868, Note_on_c, 0, 53, 0
2, 103868, Note_on_c, 0, 77, 0
2, 103869, Note_on_c, 0, 65, 0
2, 103869, Note_on_c, 0, 76, 0
2, 103870, Note_on_c, 0, 64, 0
2, 103879, Note_on_c, 0, 33, 0
2, 103879, Note_on_c, 0, 45, 0
2, 103879, Note_on_c, 0, 69, 0
2, 103879, Note_on_c, 0, 79, 0
2, 103951, Note_on_c, 0, 43, 108
2, 103952, Note_on_c, 0, 62, 104
2, 103952, Note_on_c, 0, 31, 103
2, 103956, Note_on_c, 0, 74, 99
2, 103964, Control_c, 0, 64, 127
2, 104087, Note_on_c, 0, 43, 0
2, 104096, Note_on_c, 0, 43, 60
2, 104139, Control_c, 0, 64, 0
2, 104140, Note_on_c, 0, 62, 0
2, 104142, Note_on_c, 0, 43, 0
2, 104143, Note_on_c, 0, 74, 0
2, 104163, Note_on_c, 0, 31, 0
2, 104282, Note_on_c, 0, 86, 109
2, 104283, Note_on_c, 0, 74, 110
2, 104285, Note_on_c, 0, 58, 103
2, 104286, Note_on_c, 0, 50, 90
2, 104291, Note_on_c, 0, 82, 98
2, 104293, Note_on_c, 0, 77, 92
2, 104317, Control_c, 0, 64, 127
2, 104430, Note_on_c, 0, 43, 91
2, 104555, Note_on_c, 0, 43, 0
2, 104557, Note_on_c, 0, 86, 0
2, 104557, Note_on_c, 0, 77, 0
2, 104558, Note_on_c, 0, 82, 0
2, 104558, Note_on_c, 0, 74, 0
2, 104558, Note_on_c, 0, 58, 0
2, 104559, Note_on_c, 0, 50, 0
2, 104559, Control_c, 0, 64, 0
2, 104610, Note_on_c, 0, 45, 108
2, 104610, Note_on_c, 0, 62, 104
2, 104611, Note_on_c, 0, 33, 99
2, 104640, Control_c, 0, 64, 127
2, 104770, Note_on_c, 0, 33, 0
2, 104778, Note_on_c, 0, 45, 0
2, 104778, Note_on_c, 0, 62, 0
2, 104778, Control_c, 0, 64, 0
2, 104933, Note_on_c, 0, 60, 105
2, 104935, Note_on_c, 0, 86, 108
2, 104936, Note_on_c, 0, 74, 108
2, 104936, Note_on_c, 0, 77, 99
2, 104939, Note_on_c, 0, 52, 97
2, 104939, Control_c, 0, 64, 127
2, 105075, Note_on_c, 0, 45, 99
2, 105079, Note_on_c, 0, 57, 82
2, 105167, Control_c, 0, 64, 0
2, 105171, Note_on_c, 0, 52, 0
2, 105172, Note_on_c, 0, 45, 0
2, 105172, Note_on_c, 0, 86, 0
2, 105172, Note_on_c, 0, 77, 0
2, 105173, Note_on_c, 0, 74, 0
2, 105174, Note_on_c, 0, 60, 0
2, 105216, Note_on_c, 0, 57, 0
2, 105242, Note_on_c, 0, 62, 104
2, 105242, Note_on_c, 0, 50, 103
2, 105243, Note_on_c, 0, 38, 101
2, 105249, Note_on_c, 0, 26, 92
2, 105262, Control_c, 0, 64, 127
2, 105403, Control_c, 0, 64, 0
2, 105404, Note_on_c, 0, 86, 106
2, 105408, Note_on_c, 0, 26, 0
2, 105408, Note_on_c, 0, 38, 0
2, 105409, Note_on_c, 0, 74, 107
2, 105412, Note_on_c, 0, 38, 98
2, 105413, Note_on_c, 0, 33, 85
2, 105414, Note_on_c, 0, 77, 91
2, 105414, Note_on_c, 0, 26, 94
2, 105438, Note_on_c, 0, 62, 0
2, 105461, Control_c, 0, 64, 127
2, 105561, Note_on_c, 0, 77, 0
2, 105561, Note_on_c, 0, 86, 0
2, 105571, Note_on_c, 0, 86, 105
2, 105572, Note_on_c, 0, 77, 92
2, 105576, Note_on_c, 0, 74, 0
2, 105581, Note_on_c, 0, 74, 97
2, 105715, Note_on_c, 0, 26, 0
2, 105715, Note_on_c, 0, 38, 0
2, 105715, Note_on_c, 0, 74, 0
2, 105715, Note_on_c, 0, 86, 0
2, 105722, Note_on_c, 0, 77, 0
2, 105724, Note_on_c, 0, 86, 107
2, 105725, Note_on_c, 0, 38, 101
2, 105726, Note_on_c, 0, 74, 107
2, 105726, Note_on_c, 0, 26, 92
2, 105727, Note_on_c, 0, 77, 99
2, 105876, Note_on_c, 0, 74, 0
2, 105876, Note_on_c, 0, 77, 0
2, 105876, Note_on_c, 0, 86, 0
2, 105881, Note_on_c, 0, 74, 107
2, 105882, Note_on_c, 0, 86, 103
2, 105887, Note_on_c, 0, 77, 102
2, 106022, Note_on_c, 0, 26, 0
2, 106022, Note_on_c, 0, 38, 0
2, 106032, Note_on_c, 0, 38, 97
2, 106033, Note_on_c, 0, 26, 101
2, 106183, Note_on_c, 0, 50, 0
2, 106206, Note_on_c, 0, 33, 0
2, 106210, Note_on_c, 0, 76, 106
2, 106214, Note_on_c, 0, 38, 0
2, 106217, Note_on_c, 0, 33, 98
2, 106218, Note_on_c, 0, 38, 91
2, 106220, Note_on_c, 0, 45, 108
2, 106291, Note_on_c, 0, 77, 0
2, 106300, Note_on_c, 0, 77, 81
2, 106333, Note_on_c, 0, 81, 70
2, 106394, Note_on_c, 0, 84, 92
2, 106473, Control_c, 0, 64, 0
2, 106473, Note_on_c, 0, 33, 0
2, 106476, Note_on_c, 0, 38, 0
2, 106477, Note_on_c, 0, 74, 0
2, 106478, Note_on_c, 0, 86, 0
2, 106478, Note_on_c, 0, 76, 0
2, 106478, Note_on_c, 0, 81, 0
2, 106479, Note_on_c, 0, 84, 0
2, 106479, Note_on_c, 0, 77, 0
2, 106483, Note_on_c, 0, 26, 0
2, 106521, Note_on_c, 0, 45, 0
2, 106538, Note_on_c, 0, 50, 110
2, 106540, Note_on_c, 0, 38, 103
2, 106542, Note_on_c, 0, 89, 114
2, 106567, Control_c, 0, 64, 127
2, 106626, Note_on_c, 0, 88, 108
2, 106696, Note_on_c, 0, 86, 96
2, 106770, Note_on_c, 0, 81, 94
2, 106852, Note_on_c, 0, 77, 96
2, 106870, Note_on_c, 0, 57, 105
2, 106870, Note_on_c, 0, 62, 98
2, 106882, Note_on_c, 0, 53, 91
2, 106944, Note_on_c, 0, 81, 0
2, 106953, Note_on_c, 0, 81, 97
2, 107020, Note_on_c, 0, 50, 0
2, 107020, Note_on_c, 0, 89, 0
2, 107025, Note_on_c, 0, 50, 85
2, 107025, Note_on_c, 0, 89, 106
2, 107089, Note_on_c, 0, 86, 0
2, 107099, Note_on_c, 0, 86, 88
2, 107132, Control_c, 0, 64, 0
2, 107139, Note_on_c, 0, 38, 0
2, 107140, Note_on_c, 0, 53, 0
2, 107140, Note_on_c, 0, 89, 0
2, 107141, Note_on_c, 0, 77, 0
2, 107142, Note_on_c, 0, 50, 0
2, 107142, Note_on_c, 0, 62, 0
2, 107142, Note_on_c, 0, 57, 0
2, 107143, Note_on_c, 0, 86, 0
2, 107166, Note_on_c, 0, 81, 0
2, 107166, Note_on_c, 0, 88, 0
2, 107171, Note_on_c, 0, 48, 112
2, 107174, Note_on_c, 0, 88, 114
2, 107175, Note_on_c, 0, 36, 104
2, 107205, Control_c, 0, 64, 127
2, 107253, Note_on_c, 0, 84, 97
2, 107351, Note_on_c, 0, 79, 97
2, 107501, Note_on_c, 0, 60, 112
2, 107504, Note_on_c, 0, 84, 0
2, 107509, Note_on_c, 0, 55, 99
2, 107509, Note_on_c, 0, 52, 104
2, 107511, Note_on_c, 0, 84, 102
2, 107596, Note_on_c, 0, 79, 0
2, 107605, Note_on_c, 0, 79, 97
2, 107694, Note_on_c, 0, 76, 95
2, 107769, Note_on_c, 0, 60, 0
2, 107770, Control_c, 0, 64, 0
2, 107770, Note_on_c, 0, 84, 0
2, 107771, Note_on_c, 0, 52, 0
2, 107772, Note_on_c, 0, 88, 0
2, 107772, Note_on_c, 0, 79, 0
2, 107773, Note_on_c, 0, 76, 0
2, 107773, Note_on_c, 0, 55, 0
2, 107781, Note_on_c, 0, 36, 0
2, 107781, Note_on_c, 0, 48, 0
2, 107815, Note_on_c, 0, 46, 116
2, 107816, Note_on_c, 0, 34, 105
2, 107820, Note_on_c, 0, 86, 108
2, 107834, Control_c, 0, 64, 127
2, 107901, Note_on_c, 0, 82, 101
2, 107989, Note_on_c, 0, 69, 111
2, 107989, Note_on_c, 0, 81, 100
2, 108063, Note_on_c, 0, 77, 94
2, 108126, Note_on_c, 0, 69, 0
2, 108133, Note_on_c, 0, 69, 104
2, 108139, Note_on_c, 0, 65, 101
2, 108147, Note_on_c, 0, 58, 98
2, 108152, Note_on_c, 0, 62, 91
2, 108156, Note_on_c, 0, 74, 90
2, 108226, Note_on_c, 0, 77, 0
2, 108234, Note_on_c, 0, 77, 97
2, 108303, Note_on_c, 0, 86, 0
2, 108311, Note_on_c, 0, 69, 0
2, 108312, Note_on_c, 0, 86, 105
2, 108316, Note_on_c, 0, 69, 103
2, 108372, Note_on_c, 0, 82, 0
2, 108383, Note_on_c, 0, 82, 96
2, 108449, Note_on_c, 0, 69, 0
2, 108458, Note_on_c, 0, 69, 103
2, 108464, Note_on_c, 0, 34, 0
2, 108465, Note_on_c, 0, 62, 0
2, 108465, Note_on_c, 0, 82, 0
2, 108466, Note_on_c, 0, 64, 106
2, 108467, Note_on_c, 0, 65, 0
2, 108467, Note_on_c, 0, 58, 0
2, 108467, Note_on_c, 0, 81, 0
2, 108468, Note_on_c, 0, 60, 111
2, 108468, Note_on_c, 0, 74, 0
2, 108469, Note_on_c, 0, 86, 0
2, 108469, Note_on_c, 0, 57, 106
2, 108472, Note_on_c, 0, 46, 0
2, 108474, Note_on_c, 0, 84, 104
2, 108481, Control_c, 0, 64, 0
2, 108484, Note_on_c, 0, 83, 79
2, 108487, Note_on_c, 0, 77, 0
2, 108526, Control_c, 0, 64, 127
2, 108546, Note_on_c, 0, 81, 89
2, 108621, Note_on_c, 0, 76, 91
2, 108690, Note_on_c, 0, 72, 93
2, 108787, Note_on_c, 0, 81, 0
2, 108789, Note_on_c, 0, 33, 101
2, 108790, Note_on_c, 0, 45, 107
2, 108797, Note_on_c, 0, 81, 107
2, 108887, Note_on_c, 0, 76, 0
2, 108896, Note_on_c, 0, 76, 90
2, 108948, Note_on_c, 0, 72, 0
2, 108956, Note_on_c, 0, 72, 81
2, 109017, Note_on_c, 0, 69, 0
2, 109022, Note_on_c, 0, 69, 78
2, 109032, Note_on_c, 0, 45, 0
2, 109036, Control_c, 0, 64, 0
2, 109039, Note_on_c, 0, 45, 82
2, 109055, Note_on_c, 0, 33, 0
2, 109056, Note_on_c, 0, 60, 0
2, 109057, Note_on_c, 0, 84, 0
2, 109057, Note_on_c, 0, 64, 0
2, 109058, Note_on_c, 0, 57, 0
2, 109058, Note_on_c, 0, 81, 0
2, 109060, Note_on_c, 0, 69, 0
2, 109071, Note_on_c, 0, 83, 0
2, 109079, Note_on_c, 0, 72, 0
2, 109079, Note_on_c, 0, 76, 0
2, 109086, Note_on_c, 0, 45, 0
2, 109108, Note_on_c, 0, 82, 110
2, 109112, Note_on_c, 0, 43, 113
2, 109113, Note_on_c, 0, 31, 105
2, 109140, Control_c, 0, 64, 127
2, 109197, Note_on_c, 0, 79, 97
2, 109254, Note_on_c, 0, 77, 87
2, 109337, Note_on_c, 0, 74, 95
2, 109415, Note_on_c, 0, 70, 99
2, 109441, Note_on_c, 0, 62, 105
2, 109449, Note_on_c, 0, 58, 96
2, 109478, Note_on_c, 0, 74, 0
2, 109487, Note_on_c, 0, 74, 83
2, 109566, Note_on_c, 0, 55, 89
2, 109593, Note_on_c, 0, 82, 0
2, 109600, Note_on_c, 0, 82, 109
2, 109662, Note_on_c, 0, 79, 0
2, 109667, Note_on_c, 0, 79, 104
2, 109696, Note_on_c, 0, 62, 0
2, 109697, Note_on_c, 0, 58, 0
2, 109697, Note_on_c, 0, 77, 0
2, 109697, Note_on_c, 0, 79, 0
2, 109697, Note_on_c, 0, 74, 0
2, 109697, Note_on_c, 0, 82, 0
2, 109697, Note_on_c, 0, 55, 0
2, 109697, Note_on_c, 0, 70, 0
2, 109698, Control_c, 0, 64, 0
2, 109708, Note_on_c, 0, 31, 0
2, 109716, Note_on_c, 0, 43, 0
2, 109749, Note_on_c, 0, 81, 110
2, 109751, Note_on_c, 0, 41, 106
2, 109753, Note_on_c, 0, 53, 108
2, 109793, Control_c, 0, 64, 127
2, 109839, Note_on_c, 0, 77, 86
2, 109911, Note_on_c, 0, 74, 87
2, 109995, Note_on_c, 0, 69, 85
2, 110069, Note_on_c, 0, 53, 0
2, 110069, Note_on_c, 0, 77, 0
2, 110073, Note_on_c, 0, 77, 101
2, 110074, Note_on_c, 0, 62, 100
2, 110076, Note_on_c, 0, 53, 94
2, 110081, Note_on_c, 0, 57, 98
2, 110138, Note_on_c, 0, 74, 0
2, 110149, Note_on_c, 0, 74, 104
2, 110215, Note_on_c, 0, 69, 0
2, 110226, Note_on_c, 0, 69, 97
2, 110319, Note_on_c, 0, 65, 81
2, 110330, Control_c, 0, 64, 0
2, 110335, Note_on_c, 0, 74, 0
2, 110335, Note_on_c, 0, 62, 0
2, 110335, Note_on_c, 0, 77, 0
2, 110335, Note_on_c, 0, 57, 0
2, 110335, Note_on_c, 0, 81, 0
2, 110335, Note_on_c, 0, 53, 0
2, 110336, Note_on_c, 0, 69, 0
2, 110346, Note_on_c, 0, 41, 0
2, 110369, Note_on_c, 0, 65, 0
2, 110391, Note_on_c, 0, 76, 111
2, 110394, Note_on_c, 0, 52, 110
2, 110395, Note_on_c, 0, 40, 108
2, 110430, Control_c, 0, 64, 127
2, 110483, Note_on_c, 0, 70, 99
2, 110574, Note_on_c, 0, 67, 91
2, 110718, Note_on_c, 0, 81, 109
2, 110730, Note_on_c, 0, 52, 0
2, 110733, Note_on_c, 0, 62, 96
2, 110734, Note_on_c, 0, 58, 99
2, 110735, Note_on_c, 0, 52, 88
2, 110807, Note_on_c, 0, 70, 0
2, 110812, Note_on_c, 0, 70, 97
2, 110876, Note_on_c, 0, 67, 0
2, 110881, Note_on_c, 0, 67, 89
2, 110974, Control_c, 0, 64, 0
2, 110979, Note_on_c, 0, 52, 0
2, 110979, Note_on_c, 0, 58, 0
2, 110979, Note_on_c, 0, 70, 0
2, 110979, Note_on_c, 0, 62, 0
2, 110979, Note_on_c, 0, 76, 0
2, 110980, Note_on_c, 0, 67, 0
2, 110980, Note_on_c, 0, 81, 0
2, 110999, Note_on_c, 0, 40, 0
2, 111025, Note_on_c, 0, 61, 107
2, 111034, Note_on_c, 0, 52, 90
2, 111036, Note_on_c, 0, 57, 99
2, 111039, Note_on_c, 0, 79, 103
2, 111039, Note_on_c, 0, 45, 91
2, 111060, Control_c, 0, 64, 127
2, 111125, Note_on_c, 0, 69, 100
2, 111191, Note_on_c, 0, 45, 0
2, 111202, Note_on_c, 0, 45, 104
2, 111202, Note_on_c, 0, 77, 103
2, 111202, Note_on_c, 0, 33, 96
2, 111267, Note_on_c, 0, 69, 0
2, 111272, Note_on_c, 0, 69, 83
2, 111353, Note_on_c, 0, 76, 106
2, 111361, Note_on_c, 0, 47, 102
2, 111363, Note_on_c, 0, 35, 94
2, 111498, Note_on_c, 0, 69, 0
2, 111502, Note_on_c, 0, 69, 98
2, 111505, Note_on_c, 0, 81, 101
2, 111512, Note_on_c, 0, 49, 98
2, 111516, Note_on_c, 0, 37, 94
2, 111644, Control_c, 0, 64, 0
2, 111647, Note_on_c, 0, 33, 0
2, 111647, Note_on_c, 0, 61, 0
2, 111648, Note_on_c, 0, 52, 0
2, 111648, Note_on_c, 0, 37, 0
2, 111648, Note_on_c, 0, 47, 0
2, 111648, Note_on_c, 0, 35, 0
2, 111648, Note_on_c, 0, 76, 0
2, 111648, Note_on_c, 0, 79, 0
2, 111648, Note_on_c, 0, 49, 0
2, 111648, Note_on_c, 0, 57, 0
2, 111648, Note_on_c, 0, 77, 0
2, 111648, Note_on_c, 0, 69, 0
2, 111649, Note_on_c, 0, 81, 0
2, 111649, Note_on_c, 0, 45, 0
2, 111681, Note_on_c, 0, 74, 110
2, 111684, Note_on_c, 0, 50, 107
2, 111686, Note_on_c, 0, 38, 108
2, 111751, Control_c, 0, 64, 127
2, 112013, Note_on_c, 0, 69, 78
2, 112014, Note_on_c, 0, 65, 78
2, 112015, Note_on_c, 0, 57, 94
2, 112015, Note_on_c, 0, 53, 86
2, 112151, Note_on_c, 0, 50, 0
2, 112160, Note_on_c, 0, 50, 77
2, 112201, Note_on_c, 0, 64, 95
2, 112250, Note_on_c, 0, 65, 0
2, 112260, Note_on_c, 0, 65, 100
2, 112287, Control_c, 0, 64, 0
2, 112306, Note_on_c, 0, 74, 0
2, 112307, Note_on_c, 0, 38, 0
2, 112308, Note_on_c, 0, 64, 0
2, 112308, Note_on_c, 0, 53, 0
2, 112308, Note_on_c, 0, 57, 0
2, 112308, Note_on_c, 0, 50, 0
2, 112339, Note_on_c, 0, 36, 96
2, 112340, Note_on_c, 0, 48, 102
2, 112344, Note_on_c, 0, 64, 90
2, 112381, Note_on_c, 0, 69, 0
2, 112404, Note_on_c, 0, 65, 0
2, 112404, Control_c, 0, 64, 127
2, 112491, Note_on_c, 0, 60, 99
2, 112668, Note_on_c, 0, 69, 111
2, 112669, Note_on_c, 0, 57, 108
2, 112676, Note_on_c, 0, 53, 96
2, 112845, Note_on_c, 0, 67, 96
2, 112903, Note_on_c, 0, 69, 0
2, 112908, Note_on_c, 0, 69, 104
2, 112915, Control_c, 0, 64, 0
2, 112930, Note_on_c, 0, 60, 0
2, 112930, Note_on_c, 0, 48, 0
2, 112930, Note_on_c, 0, 36, 0
2, 112931, Note_on_c, 0, 57, 0
2, 112931, Note_on_c, 0, 64, 0
2, 112932, Note_on_c, 0, 53, 0
2, 112980, Note_on_c, 0, 67, 0
2, 112985, Note_on_c, 0, 67, 95
2, 112991, Note_on_c, 0, 58, 89
2, 112991, Note_on_c, 0, 46, 109
2, 112993, Note_on_c, 0, 34, 104
2, 113011, Control_c, 0, 64, 127
2, 113049, Note_on_c, 0, 69, 0
2, 113145, Note_on_c, 0, 65, 111
2, 113305, Note_on_c, 0, 89, 114
2, 113306, Note_on_c, 0, 62, 100
2, 113310, Note_on_c, 0, 46, 0
2, 113310, Note_on_c, 0, 58, 0
2, 113313, Note_on_c, 0, 77, 105
2, 113315, Note_on_c, 0, 46, 91
2, 113316, Note_on_c, 0, 58, 94
2, 113316, Note_on_c, 0, 53, 82
2, 113456, Note_on_c, 0, 46, 0
2, 113464, Note_on_c, 0, 46, 85
2, 113469, Note_on_c, 0, 88, 102
2, 113477, Note_on_c, 0, 76, 89
2, 113541, Note_on_c, 0, 77, 0
2, 113541, Note_on_c, 0, 89, 0
2, 113551, Note_on_c, 0, 89, 113
2, 113551, Note_on_c, 0, 77, 108
2, 113566, Control_c, 0, 64, 0
2, 113593, Note_on_c, 0, 46, 0
2, 113593, Note_on_c, 0, 58, 0
2, 113593, Note_on_c, 0, 34, 0
2, 113594, Note_on_c, 0, 53, 0
2, 113597, Note_on_c, 0, 62, 0
2, 113602, Note_on_c, 0, 67, 0
2, 113602, Note_on_c, 0, 33, 103
2, 113602, Note_on_c, 0, 65, 0
2, 113605, Note_on_c, 0, 45, 110
2, 113617, Note_on_c, 0, 77, 0
2, 113625, Note_on_c, 0, 76, 0
2, 113625, Note_on_c, 0, 88, 0
2, 113630, Note_on_c, 0, 88, 104
2, 113633, Note_on_c, 0, 89, 0
2, 113635, Note_on_c, 0, 76, 103
2, 113648, Control_c, 0, 64, 127
2, 113783, Note_on_c, 0, 86, 109
2, 113787, Note_on_c, 0, 74, 105
2, 113933, Note_on_c, 0, 60, 107
2, 113936, Note_on_c, 0, 55, 93
2, 113938, Note_on_c, 0, 52, 92
2, 113938, Note_on_c, 0, 84, 105
2, 113943, Note_on_c, 0, 72, 109
2, 114104, Note_on_c, 0, 69, 109
2, 114105, Note_on_c, 0, 81, 107
2, 114169, Control_c, 0, 64, 0
2, 114182, Note_on_c, 0, 74, 0
2, 114182, Note_on_c, 0, 45, 0
2, 114183, Note_on_c, 0, 88, 0
2, 114183, Note_on_c, 0, 52, 0
2, 114183, Note_on_c, 0, 72, 0
2, 114183, Note_on_c, 0, 81, 0
2, 114183, Note_on_c, 0, 86, 0
2, 114184, Note_on_c, 0, 84, 0
2, 114184, Note_on_c, 0, 55, 0
2, 114185, Note_on_c, 0, 60, 0
2, 114185, Note_on_c, 0, 76, 0
2, 114186, Note_on_c, 0, 69, 0
2, 114193, Note_on_c, 0, 33, 0
2, 114258, Note_on_c, 0, 86, 111
2, 114259, Note_on_c, 0, 74, 110
2, 114259, Note_on_c, 0, 77, 100
2, 114259, Note_on_c, 0, 31, 103
2, 114259, Note_on_c, 0, 43, 106
2, 114262, Note_on_c, 0, 82, 99
2, 114364, Note_on_c, 0, 31, 0
2, 114367, Note_on_c, 0, 82, 0
2, 114385, Note_on_c, 0, 77, 0
2, 114393, Note_on_c, 0, 74, 0
2, 114393, Note_on_c, 0, 86, 0
2, 114416, Note_on_c, 0, 43, 0
2, 114565, Note_on_c, 0, 58, 102
2, 114574, Note_on_c, 0, 84, 109
2, 114576, Note_on_c, 0, 72, 111
2, 114577, Note_on_c, 0, 50, 94
2, 114581, Note_on_c, 0, 76, 100
2, 114600, Control_c, 0, 64, 127
2, 114613, Note_on_c, 0, 82, 55
2, 114724, Note_on_c, 0, 43, 100
2, 114795, Control_c, 0, 64, 0
2, 114798, Note_on_c, 0, 50, 0
2, 114800, Note_on_c, 0, 43, 0
2, 114802, Note_on_c, 0, 84, 0
2, 114802, Note_on_c, 0, 76, 0
2, 114803, Note_on_c, 0, 72, 0
2, 114808, Note_on_c, 0, 58, 0
2, 114823, Note_on_c, 0, 82, 0
2, 114897, Note_on_c, 0, 72, 105
2, 114901, Note_on_c, 0, 69, 106
2, 114901, Note_on_c, 0, 81, 107
2, 114901, Note_on_c, 0, 33, 99
2, 114903, Note_on_c, 0, 45, 110
2, 114915, Control_c, 0, 64, 127
2, 114961, Note_on_c, 0, 72, 0
2, 115000, Note_on_c, 0, 69, 0
2, 115038, Note_on_c, 0, 33, 0
2, 115043, Note_on_c, 0, 81, 0
2, 115050, Control_c, 0, 64, 0
2, 115054, Note_on_c, 0, 45, 0
2, 115221, Note_on_c, 0, 60, 108
2, 115226, Note_on_c, 0, 72, 111
2, 115231, Note_on_c, 0, 84, 104
2, 115231, Note_on_c, 0, 52, 99
2, 115233, Note_on_c, 0, 76, 103
2, 115238, Control_c, 0, 64, 127
2, 115367, Note_on_c, 0, 45, 102
2, 115471, Note_on_c, 0, 52, 0
2, 115471, Note_on_c, 0, 45, 0
2, 115471, Note_on_c, 0, 76, 0
2, 115472, Note_on_c, 0, 84, 0
2, 115472, Note_on_c, 0, 60, 0
2, 115472, Note_on_c, 0, 72, 0
2, 115474, Control_c, 0, 64, 0
2, 115542, Note_on_c, 0, 50, 104
2, 115544, Note_on_c, 0, 38, 108
2, 115545, Note_on_c, 0, 74, 106
2, 115549, Note_on_c, 0, 69, 88
2, 115576, Control_c, 0, 64, 127
2, 115706, Note_on_c, 0, 38, 0
2, 115711, Note_on_c, 0, 86, 105
2, 115712, Note_on_c, 0, 32, 89
2, 115717, Note_on_c, 0, 38, 99
2, 115718, Note_on_c, 0, 77, 92
2, 115718, Note_on_c, 0, 84, 79
2, 115733, Note_on_c, 0, 81, 85
2, 115860, Note_on_c, 0, 74, 0
2, 115860, Note_on_c, 0, 81, 0
2, 115860, Note_on_c, 0, 86, 0
2, 115867, Note_on_c, 0, 74, 101
2, 115868, Note_on_c, 0, 38, 0
2, 115868, Note_on_c, 0, 77, 0
2, 115868, Note_on_c, 0, 86, 95
2, 115871, Note_on_c, 0, 81, 89
2, 115872, Note_on_c, 0, 77, 82
2, 115876, Note_on_c, 0, 38, 72
2, 116021, Note_on_c, 0, 38, 0
2, 116021, Note_on_c, 0, 86, 0
2, 116029, Note_on_c, 0, 74, 0
2, 116029, Note_on_c, 0, 77, 0
2, 116029, Note_on_c, 0, 81, 0
2, 116032, Note_on_c, 0, 38, 104
2, 116032, Note_on_c, 0, 26, 98
2, 116033, Note_on_c, 0, 86, 100
2, 116033, Note_on_c, 0, 77, 93
2, 116034, Note_on_c, 0, 74, 101
2, 116039, Note_on_c, 0, 81, 95
2, 116183, Note_on_c, 0, 38, 0
2, 116183, Note_on_c, 0, 74, 0
2, 116188, Note_on_c, 0, 74, 107
2, 116190, Note_on_c, 0, 77, 0
2, 116190, Note_on_c, 0, 81, 0
2, 116190, Note_on_c, 0, 86, 0
2, 116193, Note_on_c, 0, 38, 97
2, 116195, Note_on_c, 0, 77, 101
2, 116195, Note_on_c, 0, 86, 103
2, 116196, Note_on_c, 0, 81, 99
2, 116352, Note_on_c, 0, 26, 0
2, 116355, Note_on_c, 0, 27, 96
2, 116355, Note_on_c, 0, 26, 106
2, 116505, Note_on_c, 0, 27, 0
2, 116521, Note_on_c, 0, 96, 100
2, 116525, Note_on_c, 0, 95, 101
2, 116531, Note_on_c, 0, 93, 106
2, 116544, Note_on_c, 0, 91, 100
2, 116550, Note_on_c, 0, 89, 95
2, 116554, Note_on_c, 0, 88, 98
2, 116567, Note_on_c, 0, 86, 0
2, 116577, Note_on_c, 0, 86, 77
2, 116590, Note_on_c, 0, 84, 0
2, 116591, Note_on_c, 0, 83, 67
2, 116594, Note_on_c, 0, 84, 70
2, 116605, Note_on_c, 0, 81, 0
2, 116609, Note_on_c, 0, 81, 64
2, 116661, Note_on_c, 0, 62, 76
2, 116678, Note_on_c, 0, 53, 83
2, 116678, Note_on_c, 0, 60, 72
2, 116685, Note_on_c, 0, 59, 90
2, 116703, Note_on_c, 0, 55, 85
2, 116705, Note_on_c, 0, 57, 90
2, 116828, Note_on_c, 0, 32, 0
2, 116846, Control_c, 0, 64, 0
2, 116850, Note_on_c, 0, 96, 0
2, 116850, Note_on_c, 0, 26, 0
2, 116851, Note_on_c, 0, 93, 0
2, 116851, Note_on_c, 0, 95, 0
2, 116852, Note_on_c, 0, 77, 0
2, 116852, Note_on_c, 0, 84, 0
2, 116852, Note_on_c, 0, 60, 0
2, 116852, Note_on_c, 0, 86, 0
2, 116853, Note_on_c, 0, 74, 0
2, 116853, Note_on_c, 0, 53, 0
2, 116853, Note_on_c, 0, 81, 0
2, 116853, Note_on_c, 0, 89, 0
2, 116853, Note_on_c, 0, 88, 0
2, 116853, Note_on_c, 0, 69, 0
2, 116853, Note_on_c, 0, 83, 0
2, 116853, Note_on_c, 0, 59, 0
2, 116854, Note_on_c, 0, 55, 0
2, 116854, Note_on_c, 0, 57, 0
2, 116854, Note_on_c, 0, 91, 0
2, 116854, Note_on_c, 0, 50, 0
2, 116860, Note_on_c, 0, 46, 112
2, 116863, Note_on_c, 0, 34, 103
2, 116874, Note_on_c, 0, 38, 0
2, 116874, Note_on_c, 0, 62, 0
2, 116910, Note_on_c, 0, 46, 0
2, 116951, Control_c, 0, 64, 127
2, 117073, Note_on_c, 0, 34, 0
2, 117186, Note_on_c, 0, 62, 105
2, 117192, Note_on_c, 0, 46, 98
2, 117192, Note_on_c, 0, 58, 98
2, 117193, Note_on_c, 0, 53, 93
2, 117201, Note_on_c, 0, 49, 69
2, 117212, Note_on_c, 0, 49, 0
2, 117336, Note_on_c, 0, 34, 82
2, 117431, Control_c, 0, 64, 0
2, 117436, Note_on_c, 0, 46, 0
2, 117437, Note_on_c, 0, 34, 0
2, 117437, Note_on_c, 0, 58, 0
2, 117437, Note_on_c, 0, 53, 0
2, 117438, Note_on_c, 0, 62, 0
2, 117502, Note_on_c, 0, 60, 106
2, 117515, Note_on_c, 0, 48, 100
2, 117516, Note_on_c, 0, 36, 96
2, 117521, Note_on_c, 0, 57, 93
2, 117525, Note_on_c, 0, 55, 82
2, 117550, Control_c, 0, 64, 127
2, 117657, Note_on_c, 0, 55, 0
2, 117667, Note_on_c, 0, 55, 85
2, 117823, Note_on_c, 0, 53, 91
2, 117838, Note_on_c, 0, 64, 105
2, 117838, Note_on_c, 0, 72, 98
2, 117845, Note_on_c, 0, 67, 91
2, 117849, Note_on_c, 0, 48, 0
2, 117859, Note_on_c, 0, 48, 81
2, 117998, Note_on_c, 0, 52, 82
2, 118138, Note_on_c, 0, 60, 0
2, 118138, Note_on_c, 0, 67, 0
2, 118139, Note_on_c, 0, 55, 0
2, 118139, Note_on_c, 0, 72, 0
2, 118139, Control_c, 0, 64, 0
2, 118139, Note_on_c, 0, 52, 0
2, 118139, Note_on_c, 0, 48, 0
2, 118140, Note_on_c, 0, 53, 0
2, 118140, Note_on_c, 0, 64, 0
2, 118156, Note_on_c, 0, 36, 0
2, 118156, Note_on_c, 0, 57, 0
2, 118174, Note_on_c, 0, 50, 103
2, 118175, Note_on_c, 0, 38, 101
2, 118505, Note_on_c, 0, 77, 97
2, 118508, Note_on_c, 0, 65, 108
2, 118511, Note_on_c, 0, 57, 106
2, 118540, Control_c, 0, 64, 127
2, 118632, Note_on_c, 0, 38, 0
2, 118637, Note_on_c, 0, 38, 91
2, 118762, Control_c, 0, 64, 0
2, 118766, Note_on_c, 0, 57, 0
2, 118766, Note_on_c, 0, 65, 0
2, 118767, Note_on_c, 0, 38, 0
2, 118771, Note_on_c, 0, 50, 0
2, 118771, Note_on_c, 0, 77, 0
2, 118820, Note_on_c, 0, 64, 106
2, 118829, Note_on_c, 0, 55, 88
2, 118833, Note_on_c, 0, 33, 100
2, 118834, Note_on_c, 0, 45, 103
2, 118855, Control_c, 0, 64, 127
2, 118978, Note_on_c, 0, 53, 90
2, 119124, Note_on_c, 0, 64, 0
2, 119132, Note_on_c, 0, 33, 0
2, 119132, Note_on_c, 0, 45, 0
2, 119135, Note_on_c, 0, 64, 106
2, 119135, Note_on_c, 0, 72, 107
2, 119138, Note_on_c, 0, 52, 94
2, 119140, Note_on_c, 0, 67, 99
2, 119143, Note_on_c, 0, 33, 96
2, 119143, Note_on_c, 0, 45, 96
2, 119331, Note_on_c, 0, 52, 0
2, 119336, Note_on_c, 0, 62, 76
2, 119343, Note_on_c, 0, 52, 66
2, 119390, Note_on_c, 0, 65, 89
2, 119472, Note_on_c, 0, 74, 104
2, 119473, Note_on_c, 0, 46, 113
2, 119473, Note_on_c, 0, 34, 106
2, 119489, Note_on_c, 0, 68, 70
2, 119500, Note_on_c, 0, 68, 0
2, 119517, Note_on_c, 0, 67, 0
2, 119520, Note_on_c, 0, 72, 0
2, 119520, Note_on_c, 0, 65, 0
2, 119521, Note_on_c, 0, 52, 0
2, 119524, Note_on_c, 0, 62, 0
2, 119531, Note_on_c, 0, 55, 0
2, 119532, Note_on_c, 0, 46, 0
2, 119534, Note_on_c, 0, 34, 0
2, 119539, Note_on_c, 0, 53, 0
2, 119546, Note_on_c, 0, 45, 0
2, 119546, Note_on_c, 0, 64, 0
2, 119554, Note_on_c, 0, 33, 0
2, 119563, Control_c, 0, 64, 0
2, 119577, Note_on_c, 0, 74, 0
2, 119789, Note_on_c, 0, 98, 115
2, 119794, Note_on_c, 0, 86, 111
2, 119802, Note_on_c, 0, 34, 93
2, 119802, Note_on_c, 0, 46, 105
2, 119804, Note_on_c, 0, 89, 100
2, 119823, Control_c, 0, 64, 127
2, 119831, Note_on_c, 0, 34, 0
2, 119835, Note_on_c, 0, 88, 56
2, 119958, Note_on_c, 0, 34, 94
2, 120050, Note_on_c, 0, 98, 0
2, 120051, Note_on_c, 0, 34, 0
2, 120051, Note_on_c, 0, 89, 0
2, 120052, Note_on_c, 0, 86, 0
2, 120057, Control_c, 0, 64, 0
2, 120061, Note_on_c, 0, 46, 0
2, 120061, Note_on_c, 0, 88, 0
2, 120119, Note_on_c, 0, 48, 111
2, 120119, Note_on_c, 0, 65, 100
2, 120120, Note_on_c, 0, 62, 103
2, 120120, Note_on_c, 0, 36, 104
2, 120124, Note_on_c, 0, 74, 105
2, 120145, Control_c, 0, 64, 127
2, 120233, Note_on_c, 0, 62, 0
2, 120235, Control_c, 0, 64, 0
2, 120238, Note_on_c, 0, 36, 0
2, 120238, Note_on_c, 0, 48, 0
2, 120245, Note_on_c, 0, 65, 0
2, 120261, Note_on_c, 0, 74, 0
2, 120445, Note_on_c, 0, 86, 108
2, 120446, Note_on_c, 0, 98, 114
2, 120448, Note_on_c, 0, 89, 106
2, 120449, Note_on_c, 0, 48, 109
2, 120476, Control_c, 0, 64, 127
2, 120485, Note_on_c, 0, 88, 63
2, 120591, Note_on_c, 0, 48, 0
2, 120601, Note_on_c, 0, 36, 101
2, 120602, Note_on_c, 0, 48, 99
2, 120649, Note_on_c, 0, 98, 0
2, 120656, Note_on_c, 0, 89, 0
2, 120657, Note_on_c, 0, 48, 0
2, 120657, Note_on_c, 0, 36, 0
2, 120658, Note_on_c, 0, 86, 0
2, 120666, Control_c, 0, 64, 0
2, 120675, Note_on_c, 0, 88, 0
2, 120754, Note_on_c, 0, 62, 103
2, 120754, Note_on_c, 0, 74, 107
2, 120755, Note_on_c, 0, 65, 98
2, 120764, Note_on_c, 0, 69, 82
2, 120766, Note_on_c, 0, 50, 98
2, 120771, Note_on_c, 0, 38, 103
2, 120791, Control_c, 0, 64, 127
2, 120921, Note_on_c, 0, 38, 0
2, 120925, Note_on_c, 0, 86, 106
2, 120925, Note_on_c, 0, 26, 97
2, 120928, Note_on_c, 0, 89, 99
2, 120929, Note_on_c, 0, 98, 100
2, 120930, Note_on_c, 0, 38, 97
2, 121075, Note_on_c, 0, 98, 0
2, 121079, Note_on_c, 0, 98, 109
2, 121082, Note_on_c, 0, 86, 0
2, 121090, Note_on_c, 0, 62, 0
2, 121090, Note_on_c, 0, 89, 0
2, 121091, Note_on_c, 0, 86, 103
2, 121096, Note_on_c, 0, 89, 83
2, 121236, Note_on_c, 0, 26, 0
2, 121244, Note_on_c, 0, 38, 0
2, 121244, Note_on_c, 0, 86, 0
2, 121244, Note_on_c, 0, 98, 0
2, 121247, Note_on_c, 0, 26, 97
2, 121247, Note_on_c, 0, 50, 0
2, 121249, Note_on_c, 0, 38, 95
2, 121250, Note_on_c, 0, 98, 110
2, 121251, Note_on_c, 0, 89, 0
2, 121254, Note_on_c, 0, 86, 106
2, 121258, Note_on_c, 0, 89, 99
2, 121259, Control_c, 0, 64, 0
2, 121267, Note_on_c, 0, 74, 0
2, 121344, Control_c, 0, 64, 127
2, 121413, Note_on_c, 0, 86, 0
2, 121413, Note_on_c, 0, 98, 0
2, 121417, Note_on_c, 0, 98, 111
2, 121420, Note_on_c, 0, 86, 109
2, 121420, Note_on_c, 0, 89, 0
2, 121424, Note_on_c, 0, 89, 102
2, 121559, Note_on_c, 0, 26, 0
2, 121559, Note_on_c, 0, 38, 0
2, 121569, Note_on_c, 0, 38, 97
2, 121570, Note_on_c, 0, 26, 97
2, 121748, Note_on_c, 0, 29, 73
2, 121757, Note_on_c, 0, 33, 68
2, 121804, Note_on_c, 0, 38, 0
2, 121806, Note_on_c, 0, 36, 85
2, 121809, Note_on_c, 0, 38, 92
2, 121853, Note_on_c, 0, 47, 89
2, 121859, Note_on_c, 0, 45, 90
2, 121886, Note_on_c, 0, 50, 89
2, 121892, Note_on_c, 0, 48, 82
2, 122042, Note_on_c, 0, 69, 0
2, 122050, Note_on_c, 0, 65, 0
2, 122058, Note_on_c, 0, 26, 0
2, 122058, Note_on_c, 0, 38, 0
2, 122058, Note_on_c, 0, 45, 0
2, 122058, Note_on_c, 0, 50, 0
2, 122061, Note_on_c, 0, 98, 0
2, 122061, Note_on_c, 0, 89, 0
2, 122061, Note_on_c, 0, 86, 0
2, 122061, Note_on_c, 0, 36, 0
2, 122061, Note_on_c, 0, 48, 0
2, 122062, Note_on_c, 0, 45, 95
2, 122062, Control_c, 0, 64, 0
2, 122062, Note_on_c, 0, 50, 107
2, 122063, Note_on_c, 0, 38, 102
2, 122065, Note_on_c, 0, 29, 0
2, 122073, Note_on_c, 0, 47, 0
2, 122142, Control_c, 0, 64, 127
2, 122181, Note_on_c, 0, 33, 0
2, 122225, Note_on_c, 0, 71, 93
2, 122230, Note_on_c, 0, 80, 106
2, 122233, Note_on_c, 0, 76, 68
2, 122385, Note_on_c, 0, 81, 95
2, 122393, Note_on_c, 0, 73, 86
2, 122549, Note_on_c, 0, 71, 0
2, 122549, Note_on_c, 0, 73, 0
2, 122556, Note_on_c, 0, 78, 100
2, 122560, Note_on_c, 0, 71, 67
2, 122560, Note_on_c, 0, 73, 65
2, 122703, Note_on_c, 0, 80, 0
2, 122707, Note_on_c, 0, 80, 96
2, 122711, Note_on_c, 0, 73, 0
2, 122722, Note_on_c, 0, 73, 78
2, 122726, Note_on_c, 0, 76, 0
2, 122734, Note_on_c, 0, 78, 0
2, 122735, Note_on_c, 0, 76, 56
2, 122744, Note_on_c, 0, 78, 57
2, 122856, Note_on_c, 0, 71, 0
2, 122856, Note_on_c, 0, 76, 0
2, 122865, Note_on_c, 0, 76, 94
2, 122867, Note_on_c, 0, 71, 79
2, 123025, Note_on_c, 0, 73, 0
2, 123025, Note_on_c, 0, 78, 0
2, 123033, Note_on_c, 0, 73, 98
2, 123036, Note_on_c, 0, 78, 92
2, 123187, Note_on_c, 0, 71, 0
2, 123191, Note_on_c, 0, 75, 100
2, 123191, Note_on_c, 0, 71, 85
2, 123333, Note_on_c, 0, 50, 0
2, 123333, Note_on_c, 0, 73, 0
2, 123337, Note_on_c, 0, 64, 104
2, 123339, Note_on_c, 0, 73, 106
2, 123340, Note_on_c, 0, 76, 0
2, 123341, Note_on_c, 0, 50, 86
2, 123346, Note_on_c, 0, 76, 104
2, 123348, Note_on_c, 0, 54, 79
2, 123352, Note_on_c, 0, 38, 0
2, 123357, Note_on_c, 0, 57, 84
2, 123371, Control_c, 0, 64, 0
2, 123456, Control_c, 0, 64, 127
2, 123502, Note_on_c, 0, 73, 0
2, 123513, Note_on_c, 0, 73, 94
2, 123517, Note_on_c, 0, 64, 0
2, 123524, Note_on_c, 0, 64, 74
2, 123655, Note_on_c, 0, 75, 0
2, 123666, Note_on_c, 0, 75, 87
2, 123682, Note_on_c, 0, 66, 69
2, 123690, Note_on_c, 0, 69, 42
2, 123824, Note_on_c, 0, 71, 0
2, 123831, Note_on_c, 0, 71, 91
2, 123832, Note_on_c, 0, 64, 0
2, 123832, Note_on_c, 0, 66, 0
2, 123841, Note_on_c, 0, 64, 74
2, 123841, Note_on_c, 0, 66, 69
2, 123970, Note_on_c, 0, 73, 0
2, 123980, Note_on_c, 0, 73, 99
2, 123993, Note_on_c, 0, 64, 0
2, 123993, Note_on_c, 0, 66, 0
2, 123999, Note_on_c, 0, 66, 65
2, 124004, Note_on_c, 0, 64, 63
2, 124139, Note_on_c, 0, 69, 0
2, 124145, Note_on_c, 0, 69, 99
2, 124147, Note_on_c, 0, 64, 0
2, 124151, Note_on_c, 0, 64, 67
2, 124300, Note_on_c, 0, 66, 0
2, 124300, Note_on_c, 0, 71, 0
2, 124308, Note_on_c, 0, 66, 92
2, 124310, Note_on_c, 0, 71, 96
2, 124461, Note_on_c, 0, 68, 104
2, 124462, Note_on_c, 0, 64, 0
2, 124471, Note_on_c, 0, 64, 87
2, 124593, Control_c, 0, 64, 0
2, 124596, Note_on_c, 0, 68, 0
2, 124596, Note_on_c, 0, 45, 0
2, 124596, Note_on_c, 0, 54, 0
2, 124596, Note_on_c, 0, 66, 0
2, 124596, Note_on_c, 0, 57, 0
2, 124596, Note_on_c, 0, 76, 0
2, 124596, Note_on_c, 0, 71, 0
2, 124597, Note_on_c, 0, 64, 0
2, 124599, Note_on_c, 0, 78, 0
2, 124608, Note_on_c, 0, 50, 0
2, 124615, Note_on_c, 0, 69, 0
2, 124615, Note_on_c, 0, 73, 0
2, 124615, Note_on_c, 0, 75, 0
2, 124615, Note_on_c, 0, 80, 0
2, 124615, Note_on_c, 0, 81, 0
2, 124623, Note_on_c, 0, 37, 98
2, 124625, Note_on_c, 0, 69, 99
2, 124628, Note_on_c, 0, 49, 89
2, 124640, Note_on_c, 0, 66, 92
2, 124684, Control_c, 0, 64, 127
2, 124784, Note_on_c, 0, 66, 0
2, 124794, Note_on_c, 0, 66, 92
2, 124801, Note_on_c, 0, 59, 81
2, 124940, Note_on_c, 0, 68, 94
2, 124970, Note_on_c, 0, 61, 75
2, 125091, Note_on_c, 0, 59, 0
2, 125096, Note_on_c, 0, 64, 98
2, 125097, Note_on_c, 0, 59, 89
2, 125232, Note_on_c, 0, 61, 0
2, 125233, Note_on_c, 0, 68, 0
2, 125233, Note_on_c, 0, 59, 0
2, 125233, Note_on_c, 0, 64, 0
2, 125234, Note_on_c, 0, 69, 0
2, 125236, Control_c, 0, 64, 0
2, 125237, Note_on_c, 0, 37, 0
2, 125237, Note_on_c, 0, 49, 0
2, 125253, Note_on_c, 0, 66, 0
2, 125262, Note_on_c, 0, 66, 90
2, 125268, Note_on_c, 0, 32, 93
2, 125269, Note_on_c, 0, 44, 99
2, 125271, Note_on_c, 0, 61, 88
2, 125306, Control_c, 0, 64, 127
2, 125438, Note_on_c, 0, 63, 91
2, 125446, Note_on_c, 0, 59, 84
2, 125592, Note_on_c, 0, 64, 103
2, 125744, Note_on_c, 0, 61, 0
2, 125754, Note_on_c, 0, 61, 97
2, 125913, Note_on_c, 0, 59, 0
2, 125913, Note_on_c, 0, 63, 0
2, 125918, Note_on_c, 0, 63, 101
2, 125922, Note_on_c, 0, 59, 87
2, 125923, Note_on_c, 0, 45, 96
2, 125924, Note_on_c, 0, 44, 0
2, 125924, Note_on_c, 0, 32, 0
2, 125925, Control_c, 0, 64, 0
2, 125925, Note_on_c, 0, 33, 93
2, 125928, Note_on_c, 0, 66, 0
2, 125929, Note_on_c, 0, 61, 0
2, 125929, Note_on_c, 0, 64, 0
2, 125967, Control_c, 0, 64, 127
2, 126072, Note_on_c, 0, 64, 95
2, 126074, Note_on_c, 0, 61, 97
2, 126228, Note_on_c, 0, 63, 0
2, 126237, Note_on_c, 0, 63, 92
2, 126239, Note_on_c, 0, 66, 92
2, 126382, Note_on_c, 0, 64, 0
2, 126387, Note_on_c, 0, 68, 104
2, 126392, Note_on_c, 0, 64, 93
2, 126393, Note_on_c, 0, 61, 0
2, 126543, Note_on_c, 0, 66, 0
2, 126547, Note_on_c, 0, 66, 94
2, 126547, Note_on_c, 0, 69, 101
2, 126555, Note_on_c, 0, 47, 105
2, 126558, Note_on_c, 0, 35, 101
2, 126576, Note_on_c, 0, 45, 0
2, 126576, Note_on_c, 0, 63, 0
2, 126577, Note_on_c, 0, 33, 0
2, 126577, Control_c, 0, 64, 0
2, 126577, Note_on_c, 0, 68, 0
2, 126581, Note_on_c, 0, 59, 0
2, 126597, Note_on_c, 0, 64, 0
2, 126627, Control_c, 0, 64, 127
2, 126700, Note_on_c, 0, 71, 95
2, 126704, Note_on_c, 0, 68, 91
2, 126710, Note_on_c, 0, 63, 72
2, 126865, Note_on_c, 0, 71, 0
2, 126875, Note_on_c, 0, 71, 90
2, 126876, Note_on_c, 0, 73, 108
2, 127020, Note_on_c, 0, 76, 111
2, 127179, Note_on_c, 0, 50, 106
2, 127183, Note_on_c, 0, 38, 109
2, 127183, Note_on_c, 0, 45, 97
2, 127203, Note_on_c, 0, 66, 0
2, 127208, Control_c, 0, 64, 0
2, 127212, Note_on_c, 0, 47, 0
2, 127213, Note_on_c, 0, 69, 0
2, 127213, Note_on_c, 0, 63, 0
2, 127213, Note_on_c, 0, 73, 0
2, 127213, Note_on_c, 0, 68, 0
2, 127213, Note_on_c, 0, 71, 0
2, 127214, Note_on_c, 0, 35, 0
2, 127257, Control_c, 0, 64, 127
2, 127347, Note_on_c, 0, 71, 93
2, 127356, Note_on_c, 0, 80, 105
2, 127507, Note_on_c, 0, 73, 93
2, 127511, Note_on_c, 0, 81, 99
2, 127672, Note_on_c, 0, 71, 0
2, 127676, Note_on_c, 0, 71, 81
2, 127677, Note_on_c, 0, 78, 108
2, 127825, Note_on_c, 0, 73, 0
2, 127825, Note_on_c, 0, 80, 0
2, 127833, Note_on_c, 0, 76, 0
2, 127835, Note_on_c, 0, 73, 101
2, 127836, Note_on_c, 0, 80, 95
2, 127843, Note_on_c, 0, 76, 82
2, 127979, Note_on_c, 0, 76, 0
2, 127987, Note_on_c, 0, 71, 0
2, 127989, Note_on_c, 0, 76, 108
2, 127994, Note_on_c, 0, 71, 84
2, 128148, Note_on_c, 0, 73, 0
2, 128148, Note_on_c, 0, 78, 0
2, 128153, Note_on_c, 0, 73, 108
2, 128159, Note_on_c, 0, 78, 104
2, 128310, Note_on_c, 0, 83, 102
2, 128455, Note_on_c, 0, 50, 0
2, 128458, Note_on_c, 0, 64, 104
2, 128460, Note_on_c, 0, 57, 99
2, 128462, Note_on_c, 0, 85, 105
2, 128466, Note_on_c, 0, 50, 94
2, 128467, Note_on_c, 0, 54, 93
2, 128470, Note_on_c, 0, 38, 0
2, 128474, Control_c, 0, 64, 0
2, 128478, Note_on_c, 0, 78, 0
2, 128483, Note_on_c, 0, 78, 80
2, 128494, Control_c, 0, 64, 127
2, 128614, Note_on_c, 0, 90, 114
2, 128762, Note_on_c, 0, 90, 0
2, 128765, Note_on_c, 0, 95, 116
2, 128768, Note_on_c, 0, 90, 99
2, 128769, Note_on_c, 0, 88, 91
2, 128914, Note_on_c, 0, 97, 112
2, 128927, Note_on_c, 0, 92, 98
2, 129077, Note_on_c, 0, 90, 0
2, 129077, Note_on_c, 0, 95, 0
2, 129081, Note_on_c, 0, 90, 106
2, 129087, Note_on_c, 0, 95, 103
2, 129231, Note_on_c, 0, 92, 0
2, 129237, Note_on_c, 0, 92, 106
2, 129251, Note_on_c, 0, 87, 96
2, 129394, Note_on_c, 0, 91, 111
2, 129403, Note_on_c, 0, 86, 101
2, 129538, Note_on_c, 0, 85, 0
2, 129538, Note_on_c, 0, 90, 0
2, 129548, Note_on_c, 0, 85, 100
2, 129549, Note_on_c, 0, 90, 111
2, 129696, Note_on_c, 0, 92, 0
2, 129696, Note_on_c, 0, 87, 0
2, 129696, Control_c, 0, 64, 0
2, 129696, Note_on_c, 0, 91, 0
2, 129697, Note_on_c, 0, 50, 0
2, 129698, Note_on_c, 0, 90, 0
2, 129698, Note_on_c, 0, 85, 0
2, 129698, Note_on_c, 0, 71, 0
2, 129698, Note_on_c, 0, 73, 0
2, 129699, Note_on_c, 0, 83, 0
2, 129699, Note_on_c, 0, 88, 0
2, 129700, Note_on_c, 0, 78, 0
2, 129701, Note_on_c, 0, 64, 0
2, 129701, Note_on_c, 0, 54, 0
2, 129701, Note_on_c, 0, 81, 0
2, 129706, Note_on_c, 0, 88, 110
2, 129707, Note_on_c, 0, 76, 0
2, 129707, Note_on_c, 0, 80, 0
2, 129707, Note_on_c, 0, 86, 0
2, 129707, Note_on_c, 0, 97, 0
2, 129708, Note_on_c, 0, 83, 101
2, 129715, Note_on_c, 0, 45, 0
2, 129715, Note_on_c, 0, 95, 0
2, 129719, Note_on_c, 0, 45, 87
2, 129719, Note_on_c, 0, 59, 92
2, 129720, Note_on_c, 0, 49, 89
2, 129726, Note_on_c, 0, 52, 90
2, 129738, Control_c, 0, 64, 127
2, 129862, Note_on_c, 0, 85, 104
2, 129870, Note_on_c, 0, 80, 100
2, 130022, Note_on_c, 0, 83, 0
2, 130032, Note_on_c, 0, 83, 99
2, 130033, Note_on_c, 0, 78, 97
2, 130176, Note_on_c, 0, 85, 0
2, 130181, Note_on_c, 0, 85, 104
2, 130206, Note_on_c, 0, 80, 0
2, 130215, Note_on_c, 0, 80, 72
2, 130238, Note_on_c, 0, 77, 25
2, 130245, Note_on_c, 0, 77, 0
2, 130329, Note_on_c, 0, 83, 0
2, 130337, Note_on_c, 0, 78, 0
2, 130340, Note_on_c, 0, 83, 105
2, 130347, Note_on_c, 0, 78, 102
2, 130506, Note_on_c, 0, 80, 0
2, 130510, Note_on_c, 0, 80, 107
2, 130525, Note_on_c, 0, 75, 83
2, 130659, Note_on_c, 0, 78, 0
2, 130661, Note_on_c, 0, 73, 102
2, 130663, Note_on_c, 0, 78, 101
2, 130820, Note_on_c, 0, 71, 97
2, 130822, Note_on_c, 0, 76, 108
2, 130904, Note_on_c, 0, 75, 0
2, 130904, Note_on_c, 0, 80, 0
2, 130905, Note_on_c, 0, 78, 0
2, 130905, Note_on_c, 0, 57, 0
2, 130906, Note_on_c, 0, 52, 0
2, 130906, Control_c, 0, 64, 0
2, 130907, Note_on_c, 0, 73, 0
2, 130908, Note_on_c, 0, 85, 0
2, 130908, Note_on_c, 0, 49, 0
2, 130908, Note_on_c, 0, 45, 0
2, 130908, Note_on_c, 0, 88, 0
2, 130908, Note_on_c, 0, 71, 0
2, 130909, Note_on_c, 0, 76, 0
2, 130913, Note_on_c, 0, 83, 0
2, 130920, Note_on_c, 0, 59, 0
2, 130969, Note_on_c, 0, 68, 107
2, 130970, Note_on_c, 0, 73, 102
2, 130972, Note_on_c, 0, 54, 90
2, 130973, Note_on_c, 0, 63, 79
2, 130974, Note_on_c, 0, 59, 97
2, 130978, Note_on_c, 0, 44, 90
2, 130982, Control_c, 0, 64, 127
2, 130985, Note_on_c, 0, 51, 84
2, 131133, Note_on_c, 0, 71, 98
2, 131137, Note_on_c, 0, 76, 104
2, 131274, Note_on_c, 0, 73, 0
2, 131285, Note_on_c, 0, 78, 111
2, 131285, Note_on_c, 0, 73, 106
2, 131442, Note_on_c, 0, 74, 110
2, 131446, Note_on_c, 0, 79, 109
2, 131596, Note_on_c, 0, 63, 0
2, 131602, Note_on_c, 0, 66, 100
2, 131603, Note_on_c, 0, 80, 115
2, 131603, Note_on_c, 0, 63, 98
2, 131608, Note_on_c, 0, 56, 93
2, 131630, Control_c, 0, 64, 0
2, 131665, Control_c, 0, 64, 127
2, 131919, Note_on_c, 0, 54, 0
2, 131919, Note_on_c, 0, 71, 0
2, 131923, Note_on_c, 0, 83, 110
2, 131927, Note_on_c, 0, 51, 0
2, 131927, Note_on_c, 0, 71, 102
2, 131928, Note_on_c, 0, 54, 100
2, 131932, Note_on_c, 0, 75, 95
2, 131934, Note_on_c, 0, 63, 0
2, 131938, Note_on_c, 0, 51, 92
2, 132080, Note_on_c, 0, 44, 0
2, 132086, Note_on_c, 0, 44, 93
2, 132126, Note_on_c, 0, 73, 0
2, 132131, Note_on_c, 0, 73, 84
2, 132198, Control_c, 0, 64, 0
2, 132201, Note_on_c, 0, 56, 0
2, 132201, Note_on_c, 0, 44, 0
2, 132201, Note_on_c, 0, 75, 0
2, 132202, Note_on_c, 0, 80, 0
2, 132204, Note_on_c, 0, 74, 0
2, 132204, Note_on_c, 0, 79, 0
2, 132204, Note_on_c, 0, 59, 0
2, 132205, Note_on_c, 0, 71, 0
2, 132206, Note_on_c, 0, 83, 0
2, 132206, Note_on_c, 0, 78, 0
2, 132206, Note_on_c, 0, 73, 0
2, 132218, Note_on_c, 0, 51, 0
2, 132218, Note_on_c, 0, 54, 0
2, 132218, Note_on_c, 0, 66, 0
2, 132218, Note_on_c, 0, 68, 0
2, 132218, Note_on_c, 0, 76, 0
2, 132227, Note_on_c, 0, 76, 87
2, 132236, Note_on_c, 0, 85, 111
2, 132238, Note_on_c, 0, 81, 95
2, 132245, Note_on_c, 0, 57, 105
2, 132246, Note_on_c, 0, 45, 98
2, 132246, Note_on_c, 0, 52, 92
2, 132257, Control_c, 0, 64, 127
2, 132380, Note_on_c, 0, 76, 0
2, 132417, Control_c, 0, 64, 0
2, 132419, Note_on_c, 0, 85, 0
2, 132419, Note_on_c, 0, 81, 0
2, 132422, Note_on_c, 0, 52, 0
2, 132425, Note_on_c, 0, 57, 0
2, 132433, Note_on_c, 0, 45, 0
2, 132589, Note_on_c, 0, 59, 93
2, 132614, Note_on_c, 0, 52, 77
2, 132625, Control_c, 0, 64, 127
2, 132739, Note_on_c, 0, 45, 87
2, 132810, Note_on_c, 0, 52, 0
2, 132814, Note_on_c, 0, 52, 64
2, 132905, Note_on_c, 0, 47, 95
2, 132907, Note_on_c, 0, 61, 93
2, 132911, Note_on_c, 0, 52, 0
2, 132911, Note_on_c, 0, 45, 0
2, 132914, Control_c, 0, 64, 0
2, 132915, Note_on_c, 0, 59, 0
2, 132938, Note_on_c, 0, 47, 0
2, 132971, Note_on_c, 0, 61, 0
2, 133079, Note_on_c, 0, 59, 91
2, 133235, Note_on_c, 0, 54, 88
2, 133240, Control_c, 0, 64, 127
2, 133382, Note_on_c, 0, 47, 91
2, 133395, Note_on_c, 0, 61, 92
2, 133463, Note_on_c, 0, 54, 0
2, 133470, Note_on_c, 0, 54, 89
2, 133548, Note_on_c, 0, 49, 88
2, 133567, Note_on_c, 0, 61, 0
2, 133568, Note_on_c, 0, 47, 0
2, 133569, Note_on_c, 0, 59, 0
2, 133573, Control_c, 0, 64, 0
2, 133585, Note_on_c, 0, 54, 0
2, 133608, Note_on_c, 0, 49, 0
2, 133697, Note_on_c, 0, 56, 89
2, 133742, Note_on_c, 0, 56, 0
2, 133868, Note_on_c, 0, 52, 84
2, 133873, Note_on_c, 0, 56, 88
2, 133914, Note_on_c, 0, 56, 0
2, 133977, Note_on_c, 0, 52, 0
2, 133999, Note_on_c, 0, 49, 83
2, 134029, Note_on_c, 0, 54, 91
2, 134048, Note_on_c, 0, 49, 0
2, 134154, Note_on_c, 0, 54, 0
2, 134179, Note_on_c, 0, 56, 95
2, 134326, Note_on_c, 0, 44, 80
2, 134361, Control_c, 0, 64, 127
2, 134395, Note_on_c, 0, 51, 90
2, 134503, Note_on_c, 0, 52, 92
2, 134645, Note_on_c, 0, 44, 0
2, 134645, Note_on_c, 0, 51, 0
2, 134654, Note_on_c, 0, 51, 85
2, 134654, Note_on_c, 0, 44, 80
2, 134781, Control_c, 0, 64, 0
2, 134790, Note_on_c, 0, 56, 0
2, 134791, Note_on_c, 0, 52, 0
2, 134814, Note_on_c, 0, 44, 0
2, 134814, Note_on_c, 0, 51, 0
2, 134817, Note_on_c, 0, 61, 103
2, 134817, Note_on_c, 0, 45, 91
2, 134864, Note_on_c, 0, 45, 0
2, 134872, Note_on_c, 0, 61, 0
2, 135138, Note_on_c, 0, 59, 103
2, 135148, Note_on_c, 0, 52, 91
2, 135168, Control_c, 0, 64, 127
2, 135286, Note_on_c, 0, 45, 92
2, 135352, Note_on_c, 0, 52, 0
2, 135362, Note_on_c, 0, 52, 86
2, 135447, Note_on_c, 0, 61, 103
2, 135447, Note_on_c, 0, 47, 100
2, 135472, Control_c, 0, 64, 0
2, 135483, Note_on_c, 0, 45, 0
2, 135492, Note_on_c, 0, 47, 0
2, 135494, Note_on_c, 0, 61, 0
2, 135498, Note_on_c, 0, 52, 0
2, 135498, Note_on_c, 0, 59, 0
2, 135613, Note_on_c, 0, 59, 99
2, 135690, Control_c, 0, 64, 127
2, 135770, Note_on_c, 0, 54, 96
2, 135919, Note_on_c, 0, 47, 81
2, 135931, Note_on_c, 0, 61, 100
2, 136005, Note_on_c, 0, 54, 0
2, 136011, Note_on_c, 0, 54, 89
2, 136085, Note_on_c, 0, 49, 91
2, 136109, Control_c, 0, 64, 0
2, 136115, Note_on_c, 0, 47, 0
2, 136115, Note_on_c, 0, 59, 0
2, 136124, Note_on_c, 0, 49, 0
2, 136135, Note_on_c, 0, 54, 0
2, 136232, Note_on_c, 0, 56, 93
2, 136304, Note_on_c, 0, 61, 0
2, 136313, Note_on_c, 0, 56, 0
2, 136408, Note_on_c, 0, 56, 95
2, 136413, Note_on_c, 0, 52, 78
2, 136450, Note_on_c, 0, 52, 0
2, 136519, Note_on_c, 0, 56, 0
2, 136541, Note_on_c, 0, 49, 90
2, 136568, Note_on_c, 0, 54, 96
2, 136665, Note_on_c, 0, 54, 0
2, 136723, Note_on_c, 0, 56, 99
2, 136732, Note_on_c, 0, 49, 0
2, 136868, Note_on_c, 0, 44, 80
2, 136939, Note_on_c, 0, 51, 76
2, 137011, Control_c, 0, 64, 127
2, 137018, Note_on_c, 0, 44, 0
2, 137022, Note_on_c, 0, 52, 92
2, 137023, Note_on_c, 0, 44, 73
2, 137187, Note_on_c, 0, 51, 0
2, 137195, Note_on_c, 0, 44, 0
2, 137197, Note_on_c, 0, 51, 90
2, 137199, Note_on_c, 0, 44, 86
2, 137343, Note_on_c, 0, 52, 0
2, 137344, Note_on_c, 0, 56, 0
2, 137350, Control_c, 0, 64, 0
2, 137358, Note_on_c, 0, 76, 103
2, 137360, Note_on_c, 0, 64, 113
2, 137361, Note_on_c, 0, 61, 103
2, 137364, Note_on_c, 0, 44, 0
2, 137364, Note_on_c, 0, 51, 0
2, 137366, Note_on_c, 0, 45, 92
2, 137409, Note_on_c, 0, 45, 0
2, 137418, Note_on_c, 0, 61, 0
2, 137684, Note_on_c, 0, 52, 97
2, 137689, Note_on_c, 0, 59, 96
2, 137717, Control_c, 0, 64, 127
2, 137847, Note_on_c, 0, 45, 93
2, 137909, Note_on_c, 0, 52, 0
2, 137915, Note_on_c, 0, 52, 79
2, 137971, Note_on_c, 0, 76, 0
2, 138002, Note_on_c, 0, 47, 98
2, 138005, Note_on_c, 0, 63, 108
2, 138007, Note_on_c, 0, 52, 0
2, 138008, Note_on_c, 0, 45, 0
2, 138011, Control_c, 0, 64, 0
2, 138012, Note_on_c, 0, 59, 0
2, 138024, Note_on_c, 0, 61, 92
2, 138044, Note_on_c, 0, 47, 0
2, 138048, Note_on_c, 0, 64, 0
2, 138173, Note_on_c, 0, 59, 89
2, 138336, Note_on_c, 0, 54, 97
2, 138355, Control_c, 0, 64, 127
2, 138488, Note_on_c, 0, 47, 88
2, 138493, Note_on_c, 0, 61, 0
2, 138504, Note_on_c, 0, 61, 110
2, 138554, Note_on_c, 0, 54, 0
2, 138566, Note_on_c, 0, 54, 71
2, 138645, Control_c, 0, 64, 0
2, 138651, Note_on_c, 0, 47, 0
2, 138651, Note_on_c, 0, 59, 0
2, 138656, Note_on_c, 0, 49, 90
2, 138677, Note_on_c, 0, 54, 0
2, 138758, Note_on_c, 0, 49, 0
2, 138810, Note_on_c, 0, 56, 90
2, 138974, Note_on_c, 0, 52, 89
2, 138984, Note_on_c, 0, 56, 0
2, 138989, Note_on_c, 0, 56, 71
2, 139086, Note_on_c, 0, 52, 0
2, 139126, Note_on_c, 0, 54, 95
2, 139126, Note_on_c, 0, 49, 87
2, 139146, Note_on_c, 0, 56, 0
2, 139159, Note_on_c, 0, 49, 0
2, 139290, Note_on_c, 0, 56, 93
2, 139315, Note_on_c, 0, 54, 0
2, 139461, Note_on_c, 0, 44, 75
2, 139533, Note_on_c, 0, 51, 87
2, 139584, Control_c, 0, 64, 127
2, 139610, Note_on_c, 0, 52, 88
2, 139760, Note_on_c, 0, 51, 0
2, 139768, Note_on_c, 0, 44, 0
2, 139771, Note_on_c, 0, 51, 87
2, 139773, Note_on_c, 0, 44, 87
2, 139908, Note_on_c, 0, 52, 0
2, 139909, Note_on_c, 0, 44, 0
2, 139909, Note_on_c, 0, 56, 0
2, 139912, Control_c, 0, 64, 0
2, 139921, Note_on_c, 0, 61, 0
2, 139922, Note_on_c, 0, 64, 113
2, 139926, Note_on_c, 0, 45, 95
2, 139927, Note_on_c, 0, 61, 96
2, 139929, Note_on_c, 0, 51, 0
2, 139937, Note_on_c, 0, 63, 0
2, 139980, Note_on_c, 0, 45, 0
2, 140255, Note_on_c, 0, 59, 95
2, 140263, Note_on_c, 0, 52, 93
2, 140282, Control_c, 0, 64, 127
2, 140408, Note_on_c, 0, 45, 93
2, 140467, Note_on_c, 0, 52, 0
2, 140477, Note_on_c, 0, 52, 85
2, 140561, Note_on_c, 0, 47, 97
2, 140565, Note_on_c, 0, 63, 110
2, 140567, Note_on_c, 0, 61, 0
2, 140569, Control_c, 0, 64, 0
2, 140570, Note_on_c, 0, 64, 0
2, 140570, Note_on_c, 0, 45, 0
2, 140572, Note_on_c, 0, 59, 0
2, 140574, Note_on_c, 0, 61, 103
2, 140597, Note_on_c, 0, 52, 0
2, 140617, Note_on_c, 0, 47, 0
2, 140738, Note_on_c, 0, 59, 98
2, 140866, Control_c, 0, 64, 127
2, 140899, Note_on_c, 0, 54, 100
2, 141038, Note_on_c, 0, 47, 95
2, 141057, Note_on_c, 0, 68, 112
2, 141066, Note_on_c, 0, 61, 0
2, 141073, Note_on_c, 0, 54, 0
2, 141077, Note_on_c, 0, 61, 93
2, 141081, Note_on_c, 0, 54, 74
2, 141191, Note_on_c, 0, 54, 0
2, 141192, Note_on_c, 0, 59, 0
2, 141193, Note_on_c, 0, 47, 0
2, 141194, Control_c, 0, 64, 0
2, 141214, Note_on_c, 0, 49, 93
2, 141288, Note_on_c, 0, 49, 0
2, 141359, Note_on_c, 0, 56, 97
2, 141519, Note_on_c, 0, 56, 0
2, 141523, Note_on_c, 0, 56, 89
2, 141530, Note_on_c, 0, 52, 87
2, 141576, Note_on_c, 0, 52, 0
2, 141676, Note_on_c, 0, 49, 94
2, 141688, Note_on_c, 0, 54, 90
2, 141696, Note_on_c, 0, 56, 0
2, 141847, Note_on_c, 0, 56, 108
2, 141864, Control_c, 0, 64, 127
2, 142003, Note_on_c, 0, 56, 0
2, 142006, Note_on_c, 0, 44, 91
2, 142007, Note_on_c, 0, 56, 76
2, 142171, Note_on_c, 0, 59, 104
2, 142173, Note_on_c, 0, 51, 89
2, 142225, Note_on_c, 0, 63, 0
2, 142234, Note_on_c, 0, 63, 90
2, 142295, Note_on_c, 0, 68, 0
2, 142305, Note_on_c, 0, 68, 86
2, 142306, Note_on_c, 0, 44, 0
2, 142368, Note_on_c, 0, 71, 91
2, 142417, Note_on_c, 0, 61, 0
2, 142418, Note_on_c, 0, 51, 0
2, 142420, Note_on_c, 0, 63, 0
2, 142421, Note_on_c, 0, 59, 0
2, 142421, Note_on_c, 0, 56, 0
2, 142422, Control_c, 0, 64, 0
2, 142422, Note_on_c, 0, 71, 0
2, 142422, Note_on_c, 0, 54, 0
2, 142433, Note_on_c, 0, 49, 0
2, 142448, Note_on_c, 0, 68, 0
2, 142472, Note_on_c, 0, 73, 116
2, 142473, Note_on_c, 0, 33, 94
2, 142474, Note_on_c, 0, 45, 102
2, 142506, Note_on_c, 0, 33, 0
2, 142510, Note_on_c, 0, 45, 0
2, 142548, Note_on_c, 0, 61, 102
2, 142629, Note_on_c, 0, 64, 88
2, 142656, Note_on_c, 0, 61, 0
2, 142671, Note_on_c, 0, 73, 0
2, 142724, Note_on_c, 0, 61, 95
2, 142794, Note_on_c, 0, 64, 0
2, 142797, Note_on_c, 0, 49, 98
2, 142798, Note_on_c, 0, 71, 102
2, 142804, Note_on_c, 0, 52, 96
2, 142805, Note_on_c, 0, 64, 89
2, 142817, Control_c, 0, 64, 127
2, 142871, Note_on_c, 0, 61, 0
2, 142879, Note_on_c, 0, 61, 82
2, 142940, Note_on_c, 0, 64, 0
2, 142944, Note_on_c, 0, 64, 86
2, 142947, Note_on_c, 0, 45, 83
2, 143024, Note_on_c, 0, 61, 0
2, 143029, Note_on_c, 0, 61, 71
2, 143081, Control_c, 0, 64, 0
2, 143082, Note_on_c, 0, 52, 0
2, 143082, Note_on_c, 0, 45, 0
2, 143083, Note_on_c, 0, 64, 0
2, 143083, Note_on_c, 0, 49, 0
2, 143083, Note_on_c, 0, 61, 0
2, 143084, Note_on_c, 0, 71, 0
2, 143115, Note_on_c, 0, 47, 99
2, 143116, Note_on_c, 0, 73, 110
2, 143118, Note_on_c, 0, 35, 101
2, 143151, Note_on_c, 0, 35, 0
2, 143153, Note_on_c, 0, 47, 0
2, 143162, Note_on_c, 0, 73, 0
2, 143197, Note_on_c, 0, 63, 88
2, 143262, Note_on_c, 0, 63, 0
2, 143270, Note_on_c, 0, 71, 104
2, 143353, Note_on_c, 0, 63, 89
2, 143424, Control_c, 0, 64, 127
2, 143428, Note_on_c, 0, 66, 98
2, 143435, Note_on_c, 0, 54, 97
2, 143456, Note_on_c, 0, 51, 80
2, 143457, Note_on_c, 0, 47, 59
2, 143508, Note_on_c, 0, 63, 0
2, 143518, Note_on_c, 0, 63, 94
2, 143577, Note_on_c, 0, 47, 0
2, 143583, Note_on_c, 0, 47, 95
2, 143588, Note_on_c, 0, 73, 111
2, 143679, Note_on_c, 0, 61, 98
2, 143697, Control_c, 0, 64, 0
2, 143716, Note_on_c, 0, 54, 0
2, 143717, Note_on_c, 0, 51, 0
2, 143718, Note_on_c, 0, 47, 0
2, 143719, Note_on_c, 0, 71, 0
2, 143720, Note_on_c, 0, 66, 0
2, 143746, Note_on_c, 0, 63, 0
2, 143757, Note_on_c, 0, 49, 94
2, 143757, Note_on_c, 0, 37, 100
2, 143788, Note_on_c, 0, 64, 76
2, 143792, Control_c, 0, 64, 127
2, 143915, Note_on_c, 0, 68, 105
2, 143992, Note_on_c, 0, 61, 0
2, 143996, Note_on_c, 0, 61, 93
2, 144041, Note_on_c, 0, 64, 0
2, 144042, Note_on_c, 0, 73, 0
2, 144051, Control_c, 0, 64, 0
2, 144053, Note_on_c, 0, 37, 0
2, 144061, Note_on_c, 0, 68, 0
2, 144067, Note_on_c, 0, 68, 100
2, 144069, Note_on_c, 0, 49, 0
2, 144070, Note_on_c, 0, 56, 104
2, 144094, Note_on_c, 0, 52, 76
2, 144127, Note_on_c, 0, 56, 0
2, 144130, Note_on_c, 0, 61, 0
2, 144140, Note_on_c, 0, 61, 71
2, 144168, Note_on_c, 0, 52, 0
2, 144215, Note_on_c, 0, 66, 99
2, 144227, Note_on_c, 0, 49, 86
2, 144253, Note_on_c, 0, 68, 0
2, 144288, Note_on_c, 0, 66, 0
2, 144291, Note_on_c, 0, 49, 0
2, 144291, Note_on_c, 0, 61, 0
2, 144297, Note_on_c, 0, 61, 89
2, 144383, Note_on_c, 0, 68, 111
2, 144384, Note_on_c, 0, 61, 0
2, 144460, Note_on_c, 0, 56, 97
2, 144527, Note_on_c, 0, 32, 86
2, 144582, Note_on_c, 0, 59, 77
2, 144629, Note_on_c, 0, 56, 0
2, 144634, Note_on_c, 0, 56, 85
2, 144698, Note_on_c, 0, 64, 107
2, 144718, Note_on_c, 0, 54, 82
2, 144721, Note_on_c, 0, 68, 0
2, 144731, Note_on_c, 0, 51, 77
2, 144732, Note_on_c, 0, 68, 71
2, 144737, Note_on_c, 0, 32, 0
2, 144737, Control_c, 0, 64, 127
2, 144821, Note_on_c, 0, 56, 0
2, 144830, Note_on_c, 0, 56, 80
2, 144856, Note_on_c, 0, 44, 85
2, 144891, Note_on_c, 0, 63, 83
2, 145017, Note_on_c, 0, 73, 114
2, 145017, Note_on_c, 0, 33, 100
2, 145018, Note_on_c, 0, 45, 99
2, 145031, Note_on_c, 0, 51, 0
2, 145032, Control_c, 0, 64, 0
2, 145033, Note_on_c, 0, 56, 0
2, 145033, Note_on_c, 0, 63, 0
2, 145033, Note_on_c, 0, 54, 0
2, 145034, Note_on_c, 0, 44, 0
2, 145034, Note_on_c, 0, 68, 0
2, 145036, Note_on_c, 0, 64, 0
2, 145044, Note_on_c, 0, 59, 0
2, 145061, Note_on_c, 0, 45, 0
2, 145064, Note_on_c, 0, 33, 0
2, 145107, Note_on_c, 0, 61, 95
2, 145136, Note_on_c, 0, 73, 0
2, 145186, Note_on_c, 0, 64, 90
2, 145190, Note_on_c, 0, 61, 0
2, 145285, Note_on_c, 0, 61, 46
2, 145290, Note_on_c, 0, 61, 0
2, 145320, Note_on_c, 0, 64, 0
2, 145342, Note_on_c, 0, 71, 107
2, 145350, Note_on_c, 0, 52, 98
2, 145351, Note_on_c, 0, 49, 100
2, 145374, Control_c, 0, 64, 127
2, 145417, Note_on_c, 0, 61, 94
2, 145497, Note_on_c, 0, 64, 89
2, 145499, Note_on_c, 0, 45, 88
2, 145574, Note_on_c, 0, 61, 0
2, 145580, Note_on_c, 0, 61, 86
2, 145608, Note_on_c, 0, 52, 0
2, 145609, Note_on_c, 0, 45, 0
2, 145609, Control_c, 0, 64, 0
2, 145613, Note_on_c, 0, 71, 0
2, 145615, Note_on_c, 0, 49, 0
2, 145665, Note_on_c, 0, 47, 102
2, 145666, Note_on_c, 0, 64, 0
2, 145667, Note_on_c, 0, 73, 113
2, 145669, Note_on_c, 0, 35, 100
2, 145697, Note_on_c, 0, 61, 0
2, 145702, Note_on_c, 0, 35, 0
2, 145728, Note_on_c, 0, 47, 0
2, 145755, Note_on_c, 0, 63, 84
2, 145766, Note_on_c, 0, 73, 0
2, 145819, Note_on_c, 0, 71, 108
2, 145827, Note_on_c, 0, 63, 0
2, 145899, Note_on_c, 0, 63, 92
2, 145967, Note_on_c, 0, 66, 95
2, 145981, Control_c, 0, 64, 127
2, 145985, Note_on_c, 0, 54, 97
2, 146001, Note_on_c, 0, 51, 83
2, 146050, Note_on_c, 0, 63, 0
2, 146055, Note_on_c, 0, 63, 89
2, 146132, Note_on_c, 0, 47, 91
2, 146136, Note_on_c, 0, 73, 113
2, 146216, Note_on_c, 0, 61, 101
2, 146231, Control_c, 0, 64, 0
2, 146241, Note_on_c, 0, 51, 0
2, 146241, Note_on_c, 0, 54, 0
2, 146242, Note_on_c, 0, 63, 0
2, 146242, Note_on_c, 0, 71, 0
2, 146244, Note_on_c, 0, 66, 0
2, 146244, Note_on_c, 0, 47, 0
2, 146301, Note_on_c, 0, 49, 102
2, 146301, Note_on_c, 0, 37, 104
2, 146315, Note_on_c, 0, 64, 85
2, 146334, Control_c, 0, 64, 127
2, 146396, Note_on_c, 0, 61, 0
2, 146405, Note_on_c, 0, 61, 86
2, 146469, Note_on_c, 0, 68, 104
2, 146549, Note_on_c, 0, 49, 0
2, 146549, Note_on_c, 0, 61, 0
2, 146554, Note_on_c, 0, 61, 89
2, 146555, Note_on_c, 0, 49, 76
2, 146590, Control_c, 0, 64, 0
2, 146591, Note_on_c, 0, 64, 0
2, 146591, Note_on_c, 0, 73, 0
2, 146603, Note_on_c, 0, 68, 0
2, 146611, Note_on_c, 0, 37, 0
2, 146614, Note_on_c, 0, 68, 103
2, 146626, Note_on_c, 0, 56, 107
2, 146632, Note_on_c, 0, 44, 86
2, 146634, Note_on_c, 0, 49, 0
2, 146638, Note_on_c, 0, 52, 84
2, 146641, Note_on_c, 0, 61, 0
2, 146688, Note_on_c, 0, 44, 0
2, 146695, Control_c, 0, 64, 127
2, 146706, Note_on_c, 0, 61, 90
2, 146762, Note_on_c, 0, 49, 87
2, 146767, Note_on_c, 0, 66, 98
2, 146767, Control_c, 0, 64, 0
2, 146790, Note_on_c, 0, 68, 0
2, 146803, Note_on_c, 0, 52, 0
2, 146803, Note_on_c, 0, 56, 0
2, 146838, Note_on_c, 0, 66, 0
2, 146841, Note_on_c, 0, 61, 0
2, 146849, Note_on_c, 0, 49, 0
2, 146851, Note_on_c, 0, 61, 90
2, 146918, Note_on_c, 0, 61, 0
2, 146936, Note_on_c, 0, 68, 115
2, 147006, Note_on_c, 0, 56, 98
2, 147079, Control_c, 0, 64, 127
2, 147083, Note_on_c, 0, 32, 85
2, 147111, Control_c, 0, 64, 0
2, 147118, Control_c, 0, 64, 127
2, 147127, Note_on_c, 0, 59, 79
2, 147187, Note_on_c, 0, 56, 0
2, 147195, Note_on_c, 0, 56, 69
2, 147252, Note_on_c, 0, 64, 107
2, 147259, Note_on_c, 0, 51, 91
2, 147260, Note_on_c, 0, 44, 78
2, 147261, Note_on_c, 0, 54, 87
2, 147386, Note_on_c, 0, 56, 0
2, 147394, Note_on_c, 0, 56, 105
2, 147394, Note_on_c, 0, 44, 0
2, 147401, Note_on_c, 0, 44, 98
2, 147422, Note_on_c, 0, 63, 75
2, 147561, Note_on_c, 0, 76, 113
2, 147567, Note_on_c, 0, 33, 97
2, 147572, Note_on_c, 0, 45, 106
2, 147579, Control_c, 0, 64, 0
2, 147581, Note_on_c, 0, 56, 0
2, 147582, Note_on_c, 0, 51, 0
2, 147582, Note_on_c, 0, 44, 0
2, 147583, Note_on_c, 0, 54, 0
2, 147583, Note_on_c, 0, 63, 0
2, 147584, Note_on_c, 0, 59, 0
2, 147585, Note_on_c, 0, 64, 0
2, 147594, Note_on_c, 0, 32, 0
2, 147609, Note_on_c, 0, 68, 0
2, 147616, Note_on_c, 0, 33, 0
2, 147653, Note_on_c, 0, 64, 90
2, 147694, Control_c, 0, 64, 127
2, 147719, Note_on_c, 0, 69, 72
2, 147786, Note_on_c, 0, 64, 0
2, 147795, Note_on_c, 0, 64, 73
2, 147875, Control_c, 0, 64, 0
2, 147878, Note_on_c, 0, 45, 0
2, 147880, Note_on_c, 0, 69, 0
2, 147882, Note_on_c, 0, 76, 0
2, 147883, Note_on_c, 0, 73, 106
2, 147904, Note_on_c, 0, 49, 105
2, 147914, Note_on_c, 0, 52, 90
2, 147916, Note_on_c, 0, 64, 0
2, 147922, Note_on_c, 0, 64, 72
2, 147947, Control_c, 0, 64, 127
2, 147978, Note_on_c, 0, 64, 0
2, 147984, Note_on_c, 0, 64, 40
2, 148032, Note_on_c, 0, 52, 0
2, 148044, Control_c, 0, 64, 0
2, 148049, Note_on_c, 0, 69, 100
2, 148049, Note_on_c, 0, 45, 97
2, 148058, Note_on_c, 0, 49, 0
2, 148131, Note_on_c, 0, 64, 0
2, 148138, Note_on_c, 0, 64, 95
2, 148141, Note_on_c, 0, 69, 0
2, 148147, Note_on_c, 0, 45, 0
2, 148147, Note_on_c, 0, 73, 0
2, 148208, Note_on_c, 0, 64, 0
2, 148212, Note_on_c, 0, 75, 111
2, 148213, Note_on_c, 0, 47, 109
2, 148218, Note_on_c, 0, 35, 104
2, 148285, Note_on_c, 0, 63, 74
2, 148308, Control_c, 0, 64, 127
2, 148316, Note_on_c, 0, 35, 0
2, 148367, Note_on_c, 0, 71, 88
2, 148439, Note_on_c, 0, 63, 0
2, 148450, Note_on_c, 0, 63, 87
2, 148550, Note_on_c, 0, 54, 107
2, 148565, Note_on_c, 0, 51, 80
2, 148692, Note_on_c, 0, 47, 0
2, 148696, Note_on_c, 0, 47, 94
2, 148711, Note_on_c, 0, 73, 114
2, 148754, Control_c, 0, 64, 0
2, 148764, Note_on_c, 0, 71, 0
2, 148764, Note_on_c, 0, 54, 0
2, 148764, Note_on_c, 0, 75, 0
2, 148764, Note_on_c, 0, 51, 0
2, 148765, Note_on_c, 0, 63, 0
2, 148766, Note_on_c, 0, 47, 0
2, 148782, Note_on_c, 0, 61, 96
2, 148869, Note_on_c, 0, 37, 103
2, 148875, Note_on_c, 0, 49, 99
2, 148889, Note_on_c, 0, 64, 81
2, 148899, Control_c, 0, 64, 127
2, 149024, Note_on_c, 0, 68, 98
2, 149091, Note_on_c, 0, 61, 0
2, 149091, Note_on_c, 0, 64, 0
2, 149096, Note_on_c, 0, 64, 36
2, 149101, Note_on_c, 0, 61, 56
2, 149124, Note_on_c, 0, 37, 0
2, 149124, Control_c, 0, 64, 0
2, 149124, Note_on_c, 0, 49, 0
2, 149124, Note_on_c, 0, 73, 0
2, 149125, Note_on_c, 0, 68, 0
2, 149176, Note_on_c, 0, 61, 0
2, 149188, Note_on_c, 0, 68, 105
2, 149195, Note_on_c, 0, 56, 104
2, 149209, Note_on_c, 0, 52, 81
2, 149237, Control_c, 0, 64, 127
2, 149275, Note_on_c, 0, 61, 84
2, 149333, Note_on_c, 0, 66, 104
2, 149337, Control_c, 0, 64, 0
2, 149371, Note_on_c, 0, 49, 87
2, 149414, Note_on_c, 0, 61, 0
2, 149422, Control_c, 0, 64, 127
2, 149424, Note_on_c, 0, 61, 93
2, 149491, Note_on_c, 0, 68, 0
2, 149500, Note_on_c, 0, 68, 112
2, 149568, Note_on_c, 0, 56, 0
2, 149571, Control_c, 0, 64, 0
2, 149572, Note_on_c, 0, 49, 0
2, 149573, Note_on_c, 0, 66, 0
2, 149573, Note_on_c, 0, 61, 0
2, 149575, Note_on_c, 0, 52, 0
2, 149575, Note_on_c, 0, 64, 0
2, 149577, Note_on_c, 0, 56, 98
2, 149656, Note_on_c, 0, 32, 95
2, 149679, Note_on_c, 0, 59, 65
2, 149767, Note_on_c, 0, 56, 0
2, 149806, Control_c, 0, 64, 127
2, 149817, Note_on_c, 0, 44, 82
2, 149835, Note_on_c, 0, 54, 99
2, 149843, Note_on_c, 0, 64, 107
2, 149847, Note_on_c, 0, 51, 84
2, 149975, Note_on_c, 0, 44, 0
2, 149980, Note_on_c, 0, 44, 98
2, 149981, Note_on_c, 0, 63, 98
2, 150142, Control_c, 0, 64, 0
2, 150143, Note_on_c, 0, 51, 0
2, 150143, Note_on_c, 0, 64, 0
2, 150144, Note_on_c, 0, 54, 0
2, 150144, Note_on_c, 0, 63, 0
2, 150147, Note_on_c, 0, 33, 92
2, 150148, Note_on_c, 0, 59, 0
2, 150151, Note_on_c, 0, 68, 0
2, 150153, Note_on_c, 0, 61, 102
2, 150156, Note_on_c, 0, 45, 92
2, 150167, Note_on_c, 0, 32, 0
2, 150167, Note_on_c, 0, 44, 0
2, 150228, Note_on_c, 0, 33, 0
2, 150232, Note_on_c, 0, 57, 101
2, 150274, Note_on_c, 0, 45, 0
2, 150297, Note_on_c, 0, 61, 0
2, 150305, Note_on_c, 0, 63, 100
2, 150320, Note_on_c, 0, 57, 0
2, 150379, Note_on_c, 0, 69, 74
2, 150383, Note_on_c, 0, 57, 82
2, 150389, Note_on_c, 0, 69, 0
2, 150396, Note_on_c, 0, 63, 0
2, 150459, Note_on_c, 0, 64, 105
2, 150459, Note_on_c, 0, 49, 98
2, 150462, Note_on_c, 0, 52, 93
2, 150464, Note_on_c, 0, 61, 90
2, 150474, Control_c, 0, 64, 127
2, 150595, Note_on_c, 0, 45, 94
2, 150623, Note_on_c, 0, 68, 117
2, 150639, Control_c, 0, 64, 0
2, 150643, Note_on_c, 0, 57, 0
2, 150645, Note_on_c, 0, 52, 0
2, 150646, Note_on_c, 0, 64, 0
2, 150646, Note_on_c, 0, 49, 0
2, 150654, Note_on_c, 0, 57, 55
2, 150689, Note_on_c, 0, 61, 0
2, 150727, Note_on_c, 0, 45, 0
2, 150784, Note_on_c, 0, 47, 102
2, 150785, Note_on_c, 0, 35, 96
2, 150791, Note_on_c, 0, 59, 86
2, 150796, Note_on_c, 0, 59, 0
2, 150804, Control_c, 0, 64, 127
2, 150930, Note_on_c, 0, 66, 108
2, 151022, Note_on_c, 0, 59, 94
2, 151027, Note_on_c, 0, 47, 0
2, 151033, Note_on_c, 0, 47, 68
2, 151088, Note_on_c, 0, 68, 0
2, 151098, Note_on_c, 0, 68, 108
2, 151100, Control_c, 0, 64, 0
2, 151101, Note_on_c, 0, 54, 95
2, 151113, Note_on_c, 0, 47, 0
2, 151115, Note_on_c, 0, 35, 0
2, 151115, Note_on_c, 0, 66, 0
2, 151115, Note_on_c, 0, 57, 0
2, 151115, Note_on_c, 0, 59, 0
2, 151119, Note_on_c, 0, 51, 87
2, 151165, Control_c, 0, 64, 127
2, 151260, Note_on_c, 0, 71, 108
2, 151260, Note_on_c, 0, 47, 89
2, 151267, Note_on_c, 0, 59, 88
2, 151399, Control_c, 0, 64, 0
2, 151410, Note_on_c, 0, 73, 116
2, 151411, Note_on_c, 0, 51, 0
2, 151415, Note_on_c, 0, 54, 0
2, 151421, Note_on_c, 0, 59, 0
2, 151423, Note_on_c, 0, 37, 101
2, 151423, Note_on_c, 0, 47, 0
2, 151423, Note_on_c, 0, 49, 96
2, 151423, Note_on_c, 0, 71, 0
2, 151434, Note_on_c, 0, 68, 0
2, 151480, Control_c, 0, 64, 127
2, 151492, Note_on_c, 0, 61, 80
2, 151589, Note_on_c, 0, 64, 86
2, 151695, Note_on_c, 0, 61, 0
2, 151699, Note_on_c, 0, 61, 62
2, 151745, Note_on_c, 0, 68, 97
2, 151825, Note_on_c, 0, 61, 0
2, 151831, Note_on_c, 0, 61, 81
2, 151910, Note_on_c, 0, 64, 0
2, 151914, Note_on_c, 0, 64, 82
2, 151994, Note_on_c, 0, 61, 0
2, 152001, Note_on_c, 0, 61, 67
2, 152040, Note_on_c, 0, 73, 0
2, 152048, Note_on_c, 0, 68, 0
2, 152052, Note_on_c, 0, 73, 108
2, 152057, Note_on_c, 0, 68, 102
2, 152133, Note_on_c, 0, 61, 0
2, 152137, Note_on_c, 0, 61, 78
2, 152137, Note_on_c, 0, 75, 97
2, 152209, Note_on_c, 0, 64, 0
2, 152216, Note_on_c, 0, 64, 90
2, 152221, Note_on_c, 0, 76, 98
2, 152271, Note_on_c, 0, 61, 0
2, 152282, Note_on_c, 0, 61, 83
2, 152322, Note_on_c, 0, 78, 93
2, 152355, Note_on_c, 0, 68, 0
2, 152367, Note_on_c, 0, 68, 97
2, 152410, Note_on_c, 0, 80, 93
2, 152448, Note_on_c, 0, 61, 0
2, 152453, Note_on_c, 0, 61, 81
2, 152496, Note_on_c, 0, 81, 94
2, 152532, Note_on_c, 0, 64, 0
2, 152538, Note_on_c, 0, 64, 78
2, 152573, Note_on_c, 0, 83, 94
2, 152609, Note_on_c, 0, 61, 0
2, 152620, Note_on_c, 0, 61, 90
2, 152640, Note_on_c, 0, 37, 0
2, 152701, Note_on_c, 0, 73, 0
2, 152709, Note_on_c, 0, 81, 0
2, 152710, Note_on_c, 0, 73, 103
2, 152711, Note_on_c, 0, 85, 97
2, 152712, Note_on_c, 0, 69, 80
2, 152720, Note_on_c, 0, 81, 82
2, 152735, Note_on_c, 0, 49, 0
2, 152736, Note_on_c, 0, 75, 0
2, 152737, Note_on_c, 0, 76, 0
2, 152738, Note_on_c, 0, 78, 0
2, 152738, Note_on_c, 0, 83, 0
2, 152738, Note_on_c, 0, 80, 0
2, 152739, Note_on_c, 0, 64, 0
2, 152742, Control_c, 0, 64, 0
2, 152755, Note_on_c, 0, 68, 0
2, 152762, Note_on_c, 0, 61, 0
2, 152916, Control_c, 0, 64, 127
2, 153162, Note_on_c, 0, 81, 0
2, 153231, Note_on_c, 0, 85, 0
2, 153242, Note_on_c, 0, 85, 82
2, 153396, Note_on_c, 0, 88, 79
2, 153569, Note_on_c, 0, 87, 91
2, 153719, Note_on_c, 0, 75, 76
2, 153726, Note_on_c, 0, 71, 70
2, 153868, Note_on_c, 0, 85, 0
2, 153877, Note_on_c, 0, 85, 93
2, 154037, Note_on_c, 0, 73, 0
2, 154047, Note_on_c, 0, 73, 87
2, 154048, Note_on_c, 0, 76, 75
2, 154065, Control_c, 0, 64, 0
2, 154073, Note_on_c, 0, 69, 0
2, 154073, Note_on_c, 0, 87, 0
2, 154191, Control_c, 0, 64, 127
2, 154204, Note_on_c, 0, 92, 84
2, 154352, Note_on_c, 0, 92, 0
2, 154363, Note_on_c, 0, 92, 81
2, 154467, Note_on_c, 0, 88, 0
2, 154513, Note_on_c, 0, 92, 0
2, 154518, Note_on_c, 0, 92, 88
2, 154675, Note_on_c, 0, 92, 0
2, 154682, Note_on_c, 0, 85, 0
2, 154684, Note_on_c, 0, 92, 103
2, 154689, Control_c, 0, 64, 0
2, 154716, Note_on_c, 0, 76, 0
2, 154759, Note_on_c, 0, 73, 0
2, 154775, Control_c, 0, 64, 127
2, 155008, Control_c, 0, 64, 0
2, 155009, Note_on_c, 0, 88, 98
2, 155012, Note_on_c, 0, 68, 72
2, 155020, Note_on_c, 0, 71, 0
2, 155024, Note_on_c, 0, 71, 57
2, 155066, Control_c, 0, 64, 127
2, 155170, Note_on_c, 0, 87, 92
2, 155347, Note_on_c, 0, 73, 74
2, 155352, Note_on_c, 0, 85, 81
2, 155353, Note_on_c, 0, 69, 78
2, 155354, Control_c, 0, 64, 0
2, 155360, Note_on_c, 0, 68, 0
2, 155360, Note_on_c, 0, 71, 0
2, 155362, Note_on_c, 0, 87, 0
2, 155374, Note_on_c, 0, 75, 0
2, 155389, Note_on_c, 0, 92, 0
2, 155512, Control_c, 0, 64, 127
2, 155520, Control_c, 0, 64, 0
2, 155604, Control_c, 0, 64, 127
2, 155788, Note_on_c, 0, 88, 0
2, 155834, Note_on_c, 0, 85, 0
2, 155846, Note_on_c, 0, 85, 87
2, 156017, Note_on_c, 0, 88, 95
2, 156177, Note_on_c, 0, 87, 87
2, 156345, Note_on_c, 0, 71, 70
2, 156345, Note_on_c, 0, 75, 67
2, 156387, Note_on_c, 0, 85, 0
2, 156483, Note_on_c, 0, 85, 90
2, 156656, Note_on_c, 0, 73, 0
2, 156667, Note_on_c, 0, 69, 0
2, 156667, Note_on_c, 0, 73, 78
2, 156667, Note_on_c, 0, 76, 69
2, 156668, Note_on_c, 0, 71, 0
2, 156670, Note_on_c, 0, 87, 0
2, 156671, Control_c, 0, 64, 0
2, 156671, Note_on_c, 0, 75, 0
2, 156695, Note_on_c, 0, 88, 0
2, 156830, Note_on_c, 0, 92, 74
2, 156833, Control_c, 0, 64, 127
2, 156956, Note_on_c, 0, 85, 0
2, 156971, Note_on_c, 0, 92, 0
2, 156978, Note_on_c, 0, 92, 94
2, 157140, Note_on_c, 0, 92, 0
2, 157148, Note_on_c, 0, 92, 89
2, 157309, Note_on_c, 0, 92, 0
2, 157313, Control_c, 0, 64, 0
2, 157316, Note_on_c, 0, 92, 98
2, 157432, Control_c, 0, 64, 127
2, 157636, Note_on_c, 0, 68, 68
2, 157642, Note_on_c, 0, 71, 66
2, 157903, Control_c, 0, 64, 0
2, 157923, Note_on_c, 0, 68, 0
2, 157926, Note_on_c, 0, 92, 0
2, 157930, Note_on_c, 0, 71, 0
2, 157962, Note_on_c, 0, 73, 0
2, 157963, Note_on_c, 0, 85, 98
2, 157967, Note_on_c, 0, 69, 76
2, 157972, Note_on_c, 0, 73, 84
2, 158046, Note_on_c, 0, 76, 0
2, 158123, Control_c, 0, 64, 127
2, 158294, Note_on_c, 0, 57, 77
2, 158453, Note_on_c, 0, 85, 0
2, 158459, Note_on_c, 0, 85, 83
2, 158619, Note_on_c, 0, 75, 95
2, 158619, Control_c, 0, 64, 0
2, 158620, Note_on_c, 0, 71, 91
2, 158623, Note_on_c, 0, 87, 91
2, 158631, Note_on_c, 0, 57, 0
2, 158635, Note_on_c, 0, 69, 0
2, 158639, Note_on_c, 0, 73, 0
2, 158641, Note_on_c, 0, 88, 101
2, 158722, Control_c, 0, 64, 127
2, 158745, Note_on_c, 0, 85, 0
2, 158776, Note_on_c, 0, 87, 0
2, 158786, Note_on_c, 0, 87, 96
2, 158955, Note_on_c, 0, 59, 75
2, 159111, Note_on_c, 0, 85, 102
2, 159256, Note_on_c, 0, 87, 0
2, 159256, Note_on_c, 0, 88, 0
2, 159256, Control_c, 0, 64, 0
2, 159256, Note_on_c, 0, 59, 0
2, 159256, Note_on_c, 0, 71, 0
2, 159257, Note_on_c, 0, 75, 0
2, 159272, Note_on_c, 0, 73, 93
2, 159274, Note_on_c, 0, 76, 96
2, 159344, Control_c, 0, 64, 127
2, 159413, Note_on_c, 0, 85, 0
2, 159446, Note_on_c, 0, 92, 84
2, 159605, Note_on_c, 0, 92, 0
2, 159615, Note_on_c, 0, 92, 85
2, 159623, Note_on_c, 0, 61, 75
2, 159767, Note_on_c, 0, 92, 0
2, 159772, Note_on_c, 0, 92, 93
2, 159905, Note_on_c, 0, 73, 0
2, 159912, Note_on_c, 0, 73, 89
2, 159920, Note_on_c, 0, 76, 0
2, 159931, Note_on_c, 0, 76, 75
2, 159936, Note_on_c, 0, 92, 0
2, 159940, Note_on_c, 0, 92, 94
2, 159982, Control_c, 0, 64, 0
2, 160066, Control_c, 0, 64, 127
2, 160074, Note_on_c, 0, 61, 0
2, 160081, Note_on_c, 0, 61, 74
2, 160240, Note_on_c, 0, 88, 88
2, 160245, Note_on_c, 0, 68, 64
2, 160389, Note_on_c, 0, 73, 0
2, 160394, Note_on_c, 0, 87, 92
2, 160398, Note_on_c, 0, 73, 72
2, 160500, Control_c, 0, 64, 0
2, 160510, Note_on_c, 0, 92, 0
2, 160510, Note_on_c, 0, 76, 0
2, 160511, Note_on_c, 0, 61, 0
2, 160512, Note_on_c, 0, 88, 0
2, 160512, Note_on_c, 0, 68, 0
2, 160558, Note_on_c, 0, 73, 0
2, 160561, Note_on_c, 0, 85, 102
2, 160563, Note_on_c, 0, 73, 88
2, 160567, Note_on_c, 0, 69, 79
2, 160604, Control_c, 0, 64, 127
2, 160878, Note_on_c, 0, 57, 80
2, 161060, Note_on_c, 0, 95, 110
2, 161207, Note_on_c, 0, 75, 94
2, 161208, Note_on_c, 0, 71, 82
2, 161367, Note_on_c, 0, 92, 98
2, 161533, Note_on_c, 0, 95, 0
2, 161542, Note_on_c, 0, 59, 87
2, 161542, Note_on_c, 0, 95, 104
2, 161558, Note_on_c, 0, 71, 0
2, 161570, Note_on_c, 0, 57, 0
2, 161733, Note_on_c, 0, 85, 0
2, 161743, Note_on_c, 0, 85, 81
2, 161806, Note_on_c, 0, 88, 83
2, 161825, Note_on_c, 0, 92, 0
2, 161829, Note_on_c, 0, 92, 63
2, 161850, Control_c, 0, 64, 0
2, 161856, Note_on_c, 0, 73, 0
2, 161859, Note_on_c, 0, 59, 0
2, 161860, Note_on_c, 0, 87, 0
2, 161864, Note_on_c, 0, 73, 97
2, 161865, Note_on_c, 0, 97, 113
2, 161871, Note_on_c, 0, 69, 0
2, 161871, Note_on_c, 0, 75, 0
2, 161882, Note_on_c, 0, 76, 84
2, 161909, Control_c, 0, 64, 127
2, 162186, Note_on_c, 0, 95, 0
2, 162193, Note_on_c, 0, 92, 0
2, 162197, Note_on_c, 0, 92, 99
2, 162214, Note_on_c, 0, 61, 75
2, 162351, Note_on_c, 0, 90, 103
2, 162493, Note_on_c, 0, 73, 0
2, 162493, Note_on_c, 0, 76, 0
2, 162499, Note_on_c, 0, 76, 97
2, 162503, Note_on_c, 0, 73, 84
2, 162508, Note_on_c, 0, 92, 0
2, 162519, Note_on_c, 0, 92, 106
2, 162524, Note_on_c, 0, 97, 0
2, 162528, Control_c, 0, 64, 0
2, 162577, Control_c, 0, 64, 127
2, 162662, Note_on_c, 0, 61, 0
2, 162669, Note_on_c, 0, 61, 70
2, 162839, Note_on_c, 0, 68, 59
2, 162984, Note_on_c, 0, 73, 0
2, 162988, Note_on_c, 0, 73, 63
2, 163138, Note_on_c, 0, 85, 0
2, 163142, Note_on_c, 0, 85, 96
2, 163153, Note_on_c, 0, 90, 0
2, 163155, Note_on_c, 0, 68, 0
2, 163156, Note_on_c, 0, 61, 0
2, 163157, Note_on_c, 0, 73, 0
2, 163161, Note_on_c, 0, 76, 0
2, 163161, Note_on_c, 0, 88, 0
2, 163161, Note_on_c, 0, 92, 0
2, 163163, Control_c, 0, 64, 0
2, 163165, Note_on_c, 0, 76, 69
2, 163168, Note_on_c, 0, 69, 73
2, 163269, Control_c, 0, 64, 127
2, 163319, Note_on_c, 0, 64, 64
2, 163477, Note_on_c, 0, 57, 62
2, 163630, Note_on_c, 0, 85, 0
2, 163632, Note_on_c, 0, 73, 79
2, 163636, Note_on_c, 0, 85, 84
2, 163645, Note_on_c, 0, 69, 0
2, 163649, Note_on_c, 0, 69, 66
2, 163799, Note_on_c, 0, 76, 0
2, 163801, Note_on_c, 0, 71, 85
2, 163801, Note_on_c, 0, 88, 102
2, 163809, Note_on_c, 0, 76, 88
2, 163956, Note_on_c, 0, 87, 98
2, 163962, Note_on_c, 0, 66, 67
2, 163976, Note_on_c, 0, 75, 71
2, 164116, Note_on_c, 0, 59, 67
2, 164275, Note_on_c, 0, 71, 0
2, 164275, Note_on_c, 0, 73, 0
2, 164279, Note_on_c, 0, 71, 73
2, 164282, Note_on_c, 0, 85, 0
2, 164286, Note_on_c, 0, 73, 94
2, 164290, Note_on_c, 0, 85, 91
2, 164322, Note_on_c, 0, 69, 0
2, 164323, Note_on_c, 0, 64, 0
2, 164323, Note_on_c, 0, 57, 0
2, 164323, Control_c, 0, 64, 0
2, 164323, Note_on_c, 0, 76, 0
2, 164324, Note_on_c, 0, 88, 0
2, 164324, Note_on_c, 0, 59, 0
2, 164325, Note_on_c, 0, 87, 0
2, 164325, Note_on_c, 0, 66, 0
2, 164325, Note_on_c, 0, 75, 0
2, 164382, Control_c, 0, 64, 127
2, 164446, Note_on_c, 0, 61, 84
2, 164585, Note_on_c, 0, 92, 97
2, 164600, Note_on_c, 0, 68, 72
2, 164601, Note_on_c, 0, 80, 76
2, 164743, Note_on_c, 0, 73, 0
2, 164750, Note_on_c, 0, 73, 87
2, 164751, Note_on_c, 0, 92, 0
2, 164759, Note_on_c, 0, 80, 0
2, 164759, Note_on_c, 0, 92, 95
2, 164766, Note_on_c, 0, 71, 0
2, 164769, Note_on_c, 0, 80, 76
2, 164897, Note_on_c, 0, 92, 0
2, 164904, Note_on_c, 0, 75, 90
2, 164908, Note_on_c, 0, 92, 99
2, 164912, Note_on_c, 0, 80, 0
2, 164922, Note_on_c, 0, 80, 89
2, 165066, Note_on_c, 0, 92, 0
2, 165072, Note_on_c, 0, 92, 107
2, 165077, Note_on_c, 0, 76, 92
2, 165081, Note_on_c, 0, 80, 0
2, 165086, Note_on_c, 0, 80, 97
2, 165212, Note_on_c, 0, 61, 0
2, 165222, Note_on_c, 0, 61, 88
2, 165381, Note_on_c, 0, 73, 0
2, 165387, Note_on_c, 0, 88, 103
2, 165388, Note_on_c, 0, 76, 0
2, 165391, Note_on_c, 0, 73, 96
2, 165399, Note_on_c, 0, 76, 95
2, 165534, Note_on_c, 0, 68, 0
2, 165544, Note_on_c, 0, 68, 80
2, 165545, Note_on_c, 0, 87, 103
2, 165550, Note_on_c, 0, 75, 0
2, 165554, Note_on_c, 0, 75, 86
2, 165565, Note_on_c, 0, 85, 0
2, 165575, Note_on_c, 0, 85, 52
2, 165696, Note_on_c, 0, 73, 0
2, 165696, Note_on_c, 0, 76, 0
2, 165696, Note_on_c, 0, 85, 0
2, 165699, Note_on_c, 0, 73, 107
2, 165700, Note_on_c, 0, 85, 107
2, 165703, Note_on_c, 0, 81, 85
2, 165703, Note_on_c, 0, 69, 99
2, 165707, Note_on_c, 0, 76, 92
2, 165716, Note_on_c, 0, 92, 0
2, 165716, Note_on_c, 0, 68, 0
2, 165718, Note_on_c, 0, 61, 0
2, 165718, Note_on_c, 0, 80, 0
2, 165719, Note_on_c, 0, 88, 0
2, 165721, Note_on_c, 0, 75, 0
2, 165726, Control_c, 0, 64, 0
2, 165742, Note_on_c, 0, 87, 0
2, 165795, Control_c, 0, 64, 127
2, 165876, Note_on_c, 0, 64, 55
2, 166007, Note_on_c, 0, 57, 79
2, 166172, Note_on_c, 0, 69, 0
2, 166172, Note_on_c, 0, 73, 0
2, 166177, Note_on_c, 0, 73, 100
2, 166179, Note_on_c, 0, 85, 0
2, 166183, Note_on_c, 0, 69, 82
2, 166183, Note_on_c, 0, 85, 92
2, 166341, Note_on_c, 0, 76, 0
2, 166345, Note_on_c, 0, 88, 106
2, 166350, Note_on_c, 0, 71, 86
2, 166351, Note_on_c, 0, 76, 99
2, 166507, Note_on_c, 0, 87, 108
2, 166509, Note_on_c, 0, 66, 72
2, 166535, Note_on_c, 0, 75, 67
2, 166673, Note_on_c, 0, 59, 77
2, 166809, Note_on_c, 0, 73, 0
2, 166820, Note_on_c, 0, 73, 105
2, 166824, Note_on_c, 0, 85, 0
2, 166829, Note_on_c, 0, 85, 103
2, 166840, Note_on_c, 0, 71, 0
2, 166844, Note_on_c, 0, 71, 58
2, 166940, Control_c, 0, 64, 0
2, 166949, Note_on_c, 0, 75, 0
2, 166950, Note_on_c, 0, 64, 0
2, 166950, Note_on_c, 0, 69, 0
2, 166950, Note_on_c, 0, 87, 0
2, 166950, Note_on_c, 0, 71, 0
2, 166951, Note_on_c, 0, 73, 0
2, 166951, Note_on_c, 0, 66, 0
2, 166951, Note_on_c, 0, 76, 0
2, 166951, Note_on_c, 0, 57, 0
2, 166951, Note_on_c, 0, 59, 0
2, 166951, Note_on_c, 0, 85, 0
2, 166952, Note_on_c, 0, 88, 0
2, 166963, Note_on_c, 0, 81, 0
2, 166991, Note_on_c, 0, 97, 111
2, 166996, Note_on_c, 0, 61, 89
2, 167001, Control_c, 0, 64, 127
2, 167006, Note_on_c, 0, 85, 90
2, 167153, Note_on_c, 0, 92, 99
2, 167158, Note_on_c, 0, 68, 78
2, 167158, Note_on_c, 0, 80, 96
2, 167301, Note_on_c, 0, 80, 0
2, 167301, Note_on_c, 0, 92, 0
2, 167306, Note_on_c, 0, 73, 94
2, 167307, Note_on_c, 0, 92, 107
2, 167308, Note_on_c, 0, 80, 104
2, 167454, Note_on_c, 0, 97, 0
2, 167458, Note_on_c, 0, 97, 112
2, 167462, Note_on_c, 0, 85, 0
2, 167466, Note_on_c, 0, 85, 94
2, 167468, Note_on_c, 0, 75, 73
2, 167616, Note_on_c, 0, 92, 0
2, 167621, Note_on_c, 0, 76, 98
2, 167623, Note_on_c, 0, 80, 0
2, 167626, Note_on_c, 0, 92, 105
2, 167630, Note_on_c, 0, 80, 98
2, 167769, Note_on_c, 0, 61, 0
2, 167779, Note_on_c, 0, 61, 93
2, 167923, Note_on_c, 0, 73, 0
2, 167934, Note_on_c, 0, 73, 111
2, 168084, Note_on_c, 0, 68, 0
2, 168089, Note_on_c, 0, 68, 84
2, 168213, Note_on_c, 0, 75, 0
2, 168213, Note_on_c, 0, 97, 0
2, 168215, Control_c, 0, 64, 0
2, 168216, Note_on_c, 0, 80, 0
2, 168217, Note_on_c, 0, 61, 0
2, 168217, Note_on_c, 0, 92, 0
2, 168218, Note_on_c, 0, 68, 0
2, 168253, Note_on_c, 0, 73, 0
2, 168253, Note_on_c, 0, 85, 0
2, 168257, Note_on_c, 0, 69, 106
2, 168257, Note_on_c, 0, 85, 109
2, 168257, Note_on_c, 0, 73, 108
2, 168261, Note_on_c, 0, 76, 0
2, 168263, Note_on_c, 0, 81, 91
2, 168265, Note_on_c, 0, 76, 95
2, 168299, Control_c, 0, 64, 127
2, 168312, Note_on_c, 0, 64, 73
2, 168380, Note_on_c, 0, 61, 88
2, 168482, Note_on_c, 0, 57, 82
2, 168580, Note_on_c, 0, 45, 98
2, 168737, Note_on_c, 0, 73, 0
2, 168737, Note_on_c, 0, 85, 0
2, 168744, Note_on_c, 0, 57, 0
2, 168747, Note_on_c, 0, 73, 104
2, 168748, Note_on_c, 0, 85, 102
2, 168750, Note_on_c, 0, 57, 89
2, 168833, Note_on_c, 0, 69, 0
2, 168834, Note_on_c, 0, 45, 0
2, 168834, Note_on_c, 0, 73, 0
2, 168835, Note_on_c, 0, 64, 0
2, 168836, Note_on_c, 0, 57, 0
2, 168837, Note_on_c, 0, 61, 0
2, 168837, Note_on_c, 0, 76, 0
2, 168843, Control_c, 0, 64, 0
2, 168844, Note_on_c, 0, 81, 0
2, 168860, Note_on_c, 0, 85, 0
2, 168892, Note_on_c, 0, 71, 108
2, 168900, Note_on_c, 0, 88, 109
2, 168906, Control_c, 0, 64, 127
2, 168926, Note_on_c, 0, 76, 92
2, 168933, Note_on_c, 0, 66, 81
2, 169012, Note_on_c, 0, 63, 87
2, 169055, Note_on_c, 0, 87, 112
2, 169077, Note_on_c, 0, 75, 101
2, 169108, Note_on_c, 0, 59, 99
2, 169203, Note_on_c, 0, 47, 99
2, 169374, Note_on_c, 0, 59, 0
2, 169380, Note_on_c, 0, 59, 87
2, 169380, Note_on_c, 0, 85, 112
2, 169384, Note_on_c, 0, 73, 112
2, 169405, Note_on_c, 0, 76, 0
2, 169416, Note_on_c, 0, 76, 73
2, 169420, Note_on_c, 0, 80, 69
2, 169431, Control_c, 0, 64, 0
2, 169434, Note_on_c, 0, 88, 0
2, 169439, Note_on_c, 0, 66, 0
2, 169439, Note_on_c, 0, 87, 0
2, 169440, Note_on_c, 0, 63, 0
2, 169440, Note_on_c, 0, 71, 0
2, 169440, Note_on_c, 0, 47, 0
2, 169440, Note_on_c, 0, 75, 0
2, 169474, Control_c, 0, 64, 127
2, 169512, Note_on_c, 0, 59, 0
2, 169530, Note_on_c, 0, 49, 103
2, 169610, Note_on_c, 0, 56, 89
2, 169685, Note_on_c, 0, 92, 102
2, 169689, Note_on_c, 0, 80, 0
2, 169692, Note_on_c, 0, 61, 95
2, 169701, Note_on_c, 0, 80, 81
2, 169785, Note_on_c, 0, 63, 98
2, 169850, Note_on_c, 0, 80, 0
2, 169850, Note_on_c, 0, 92, 0
2, 169856, Note_on_c, 0, 92, 108
2, 169860, Note_on_c, 0, 80, 110
2, 169862, Note_on_c, 0, 83, 94
2, 169862, Note_on_c, 0, 64, 106
2, 169866, Note_on_c, 0, 83, 0
2, 169996, Note_on_c, 0, 61, 0
2, 170004, Note_on_c, 0, 49, 0
2, 170008, Note_on_c, 0, 61, 102
2, 170008, Note_on_c, 0, 49, 83
2, 170012, Note_on_c, 0, 92, 0
2, 170019, Note_on_c, 0, 92, 101
2, 170019, Note_on_c, 0, 80, 0
2, 170024, Note_on_c, 0, 80, 102
2, 170165, Note_on_c, 0, 73, 0
2, 170165, Note_on_c, 0, 85, 0
2, 170170, Note_on_c, 0, 73, 114
2, 170173, Note_on_c, 0, 76, 0
2, 170173, Note_on_c, 0, 80, 0
2, 170177, Note_on_c, 0, 85, 110
2, 170180, Note_on_c, 0, 80, 109
2, 170181, Note_on_c, 0, 49, 0
2, 170184, Note_on_c, 0, 76, 89
2, 170189, Note_on_c, 0, 49, 79
2, 170200, Note_on_c, 0, 68, 73
2, 170211, Note_on_c, 0, 68, 0
2, 170265, Note_on_c, 0, 64, 0
2, 170270, Note_on_c, 0, 64, 96
2, 170373, Note_on_c, 0, 61, 0
2, 170382, Note_on_c, 0, 61, 92
2, 170480, Note_on_c, 0, 49, 0
2, 170485, Note_on_c, 0, 49, 94
2, 170488, Note_on_c, 0, 88, 111
2, 170488, Note_on_c, 0, 76, 0
2, 170492, Note_on_c, 0, 76, 110
2, 170653, Note_on_c, 0, 87, 109
2, 170660, Note_on_c, 0, 75, 105
2, 170672, Note_on_c, 0, 85, 0
2, 170677, Note_on_c, 0, 85, 56
2, 170715, Control_c, 0, 64, 0
2, 170715, Note_on_c, 0, 49, 0
2, 170721, Note_on_c, 0, 61, 0
2, 170721, Note_on_c, 0, 73, 0
2, 170722, Note_on_c, 0, 85, 0
2, 170724, Note_on_c, 0, 56, 0
2, 170727, Note_on_c, 0, 64, 0
2, 170727, Note_on_c, 0, 88, 0
2, 170728, Note_on_c, 0, 63, 0
2, 170729, Note_on_c, 0, 76, 0
2, 170731, Note_on_c, 0, 92, 0
2, 170749, Note_on_c, 0, 80, 0
2, 170787, Note_on_c, 0, 75, 0
2, 170795, Control_c, 0, 64, 127
2, 170806, Note_on_c, 0, 49, 91
2, 170806, Note_on_c, 0, 73, 107
2, 170807, Note_on_c, 0, 52, 85
2, 170807, Note_on_c, 0, 45, 88
2, 170814, Note_on_c, 0, 76, 95
2, 170833, Note_on_c, 0, 87, 0
2, 170897, Note_on_c, 0, 57, 70
2, 170905, Note_on_c, 0, 85, 105
2, 170972, Note_on_c, 0, 49, 0
2, 170976, Note_on_c, 0, 75, 103
2, 170980, Note_on_c, 0, 49, 80
2, 170997, Note_on_c, 0, 78, 64
2, 171051, Note_on_c, 0, 87, 101
2, 171067, Note_on_c, 0, 88, 74
2, 171133, Note_on_c, 0, 49, 0
2, 171133, Note_on_c, 0, 76, 0
2, 171137, Note_on_c, 0, 79, 108
2, 171138, Note_on_c, 0, 76, 102
2, 171141, Note_on_c, 0, 45, 0
2, 171144, Note_on_c, 0, 49, 83
2, 171145, Note_on_c, 0, 45, 79
2, 171202, Note_on_c, 0, 88, 0
2, 171211, Note_on_c, 0, 88, 111
2, 171294, Note_on_c, 0, 49, 0
2, 171294, Note_on_c, 0, 52, 0
2, 171298, Note_on_c, 0, 77, 109
2, 171299, Note_on_c, 0, 49, 93
2, 171300, Note_on_c, 0, 80, 106
2, 171305, Note_on_c, 0, 52, 85
2, 171359, Note_on_c, 0, 89, 105
2, 171432, Note_on_c, 0, 78, 0
2, 171441, Note_on_c, 0, 78, 114
2, 171443, Note_on_c, 0, 47, 99
2, 171452, Note_on_c, 0, 54, 94
2, 171454, Note_on_c, 0, 81, 101
2, 171459, Note_on_c, 0, 51, 96
2, 171511, Note_on_c, 0, 90, 102
2, 171558, Note_on_c, 0, 59, 38
2, 171594, Note_on_c, 0, 79, 0
2, 171605, Note_on_c, 0, 79, 112
2, 171610, Note_on_c, 0, 82, 107
2, 171624, Note_on_c, 0, 51, 0
2, 171628, Note_on_c, 0, 51, 88
2, 171653, Note_on_c, 0, 91, 73
2, 171740, Note_on_c, 0, 80, 0
2, 171750, Note_on_c, 0, 80, 117
2, 171763, Note_on_c, 0, 47, 0
2, 171763, Note_on_c, 0, 59, 0
2, 171768, Note_on_c, 0, 59, 83
2, 171769, Note_on_c, 0, 47, 69
2, 171770, Note_on_c, 0, 51, 0
2, 171778, Note_on_c, 0, 83, 72
2, 171781, Note_on_c, 0, 51, 84
2, 171916, Note_on_c, 0, 47, 0
2, 171922, Note_on_c, 0, 47, 90
2, 171924, Note_on_c, 0, 51, 0
2, 171924, Note_on_c, 0, 59, 0
2, 171928, Note_on_c, 0, 59, 91
2, 171929, Note_on_c, 0, 51, 77
2, 171930, Note_on_c, 0, 95, 116
2, 171932, Note_on_c, 0, 83, 0
2, 171937, Note_on_c, 0, 83, 111
2, 171947, Note_on_c, 0, 87, 0
2, 171953, Note_on_c, 0, 87, 92
2, 171985, Note_on_c, 0, 59, 0
2, 171990, Note_on_c, 0, 59, 60
2, 172062, Note_on_c, 0, 49, 0
2, 172071, Note_on_c, 0, 49, 109
2, 172078, Note_on_c, 0, 52, 0
2, 172081, Note_on_c, 0, 56, 89
2, 172089, Note_on_c, 0, 52, 77
2, 172105, Control_c, 0, 64, 0
2, 172112, Note_on_c, 0, 81, 0
2, 172113, Note_on_c, 0, 77, 0
2, 172113, Note_on_c, 0, 57, 0
2, 172113, Note_on_c, 0, 76, 0
2, 172113, Note_on_c, 0, 95, 0
2, 172114, Note_on_c, 0, 85, 0
2, 172114, Note_on_c, 0, 87, 0
2, 172115, Note_on_c, 0, 78, 0
2, 172115, Note_on_c, 0, 73, 0
2, 172118, Note_on_c, 0, 75, 0
2, 172131, Control_c, 0, 64, 127
2, 172166, Note_on_c, 0, 61, 109
2, 172170, Note_on_c, 0, 45, 0
2, 172239, Note_on_c, 0, 96, 110
2, 172239, Note_on_c, 0, 49, 0
2, 172239, Note_on_c, 0, 52, 0
2, 172244, Note_on_c, 0, 49, 88
2, 172245, Note_on_c, 0, 84, 108
2, 172246, Note_on_c, 0, 52, 80
2, 172247, Note_on_c, 0, 79, 0
2, 172316, Note_on_c, 0, 61, 0
2, 172326, Note_on_c, 0, 61, 58
2, 172377, Note_on_c, 0, 56, 0
2, 172385, Note_on_c, 0, 88, 0
2, 172387, Note_on_c, 0, 97, 114
2, 172388, Note_on_c, 0, 56, 86
2, 172392, Note_on_c, 0, 52, 0
2, 172394, Note_on_c, 0, 85, 114
2, 172395, Note_on_c, 0, 88, 103
2, 172398, Note_on_c, 0, 92, 91
2, 172401, Note_on_c, 0, 52, 83
2, 172462, Note_on_c, 0, 61, 0
2, 172470, Note_on_c, 0, 61, 64
2, 172531, Note_on_c, 0, 49, 0
2, 172531, Note_on_c, 0, 52, 0
2, 172538, Note_on_c, 0, 56, 0
2, 172541, Note_on_c, 0, 49, 101
2, 172541, Note_on_c, 0, 52, 80
2, 172549, Note_on_c, 0, 56, 75
2, 172623, Note_on_c, 0, 61, 0
2, 172632, Note_on_c, 0, 61, 87
2, 172692, Note_on_c, 0, 97, 0
2, 172700, Note_on_c, 0, 49, 0
2, 172700, Note_on_c, 0, 52, 0
2, 172700, Note_on_c, 0, 85, 0
2, 172700, Note_on_c, 0, 92, 0
2, 172702, Note_on_c, 0, 97, 112
2, 172705, Note_on_c, 0, 85, 111
2, 172705, Note_on_c, 0, 49, 98
2, 172707, Note_on_c, 0, 88, 0
2, 172711, Note_on_c, 0, 52, 90
2, 172711, Note_on_c, 0, 92, 101
2, 172711, Note_on_c, 0, 88, 105
2, 172718, Control_c, 0, 64, 0
2, 172730, Control_c, 0, 64, 127
2, 172861, Note_on_c, 0, 84, 0
2, 172865, Note_on_c, 0, 84, 84
2, 172869, Note_on_c, 0, 83, 0
2, 172874, Note_on_c, 0, 83, 98
2, 172923, Note_on_c, 0, 93, 73
2, 172934, Note_on_c, 0, 81, 96
2, 172964, Note_on_c, 0, 79, 98
2, 172974, Note_on_c, 0, 77, 78
2, 173009, Note_on_c, 0, 76, 94
2, 173010, Note_on_c, 0, 74, 96
2, 173018, Note_on_c, 0, 72, 99
2, 173046, Note_on_c, 0, 71, 95
2, 173050, Note_on_c, 0, 69, 96
2, 173070, Note_on_c, 0, 67, 102
2, 173095, Note_on_c, 0, 64, 90
2, 173097, Note_on_c, 0, 65, 100
2, 173126, Note_on_c, 0, 62, 92
2, 173130, Note_on_c, 0, 60, 100
2, 173137, Note_on_c, 0, 59, 0
2, 173147, Note_on_c, 0, 59, 104
2, 173163, Note_on_c, 0, 57, 103
2, 173192, Note_on_c, 0, 55, 80
2, 173199, Note_on_c, 0, 57, 0
2, 173209, Note_on_c, 0, 57, 83
2, 173214, Note_on_c, 0, 52, 0
2, 173219, Note_on_c, 0, 53, 94
2, 173222, Note_on_c, 0, 90, 0
2, 173225, Note_on_c, 0, 52, 97
2, 173360, Note_on_c, 0, 53, 0
2, 173360, Note_on_c, 0, 62, 0
2, 173364, Note_on_c, 0, 38, 105
2, 173365, Note_on_c, 0, 53, 102
2, 173365, Note_on_c, 0, 26, 97
2, 173366, Note_on_c, 0, 50, 106
2, 173368, Note_on_c, 0, 62, 102
2, 173387, Note_on_c, 0, 83, 0
2, 173387, Note_on_c, 0, 67, 0
2, 173388, Note_on_c, 0, 64, 0
2, 173388, Note_on_c, 0, 71, 0
2, 173388, Note_on_c, 0, 84, 0
2, 173388, Note_on_c, 0, 52, 0
2, 173388, Note_on_c, 0, 93, 0
2, 173388, Note_on_c, 0, 74, 0
2, 173388, Note_on_c, 0, 49, 0
2, 173389, Note_on_c, 0, 76, 0
2, 173389, Note_on_c, 0, 59, 0
2, 173389, Note_on_c, 0, 55, 0
2, 173389, Note_on_c, 0, 65, 0
2, 173389, Note_on_c, 0, 69, 0
2, 173389, Note_on_c, 0, 79, 0
2, 173390, Note_on_c, 0, 51, 0
2, 173390, Note_on_c, 0, 81, 0
2, 173390, Note_on_c, 0, 57, 0
2, 173390, Note_on_c, 0, 88, 0
2, 173391, Note_on_c, 0, 60, 0
2, 173391, Note_on_c, 0, 72, 0
2, 173391, Note_on_c, 0, 82, 0
2, 173391, Note_on_c, 0, 92, 0
2, 173391, Note_on_c, 0, 97, 0
2, 173391, Note_on_c, 0, 91, 0
2, 173391, Note_on_c, 0, 50, 0
2, 173394, Note_on_c, 0, 89, 0
2, 173394, Control_c, 0, 64, 0
2, 173399, Note_on_c, 0, 47, 0
2, 173399, Note_on_c, 0, 61, 0
2, 173399, Note_on_c, 0, 85, 0
2, 173399, Note_on_c, 0, 96, 0
2, 173406, Note_on_c, 0, 54, 0
2, 173406, Note_on_c, 0, 56, 0
2, 173406, Note_on_c, 0, 77, 0
2, 173406, Note_on_c, 0, 80, 0
2, 173409, Note_on_c, 0, 28, 33
2, 173498, Control_c, 0, 64, 127
2, 173614, Note_on_c, 0, 28, 0
2, 173641, Control_c, 0, 64, 0
2, 173644, Note_on_c, 0, 26, 0
2, 173650, Note_on_c, 0, 38, 0
2, 173736, Note_on_c, 0, 62, 0
2, 173742, Note_on_c, 0, 62, 75
2, 173781, Note_on_c, 0, 62, 0
2, 173790, Note_on_c, 0, 53, 0
2, 173864, Note_on_c, 0, 50, 97
2, 173864, Note_on_c, 0, 62, 104
2, 173947, Note_on_c, 0, 62, 0
2, 173948, Note_on_c, 0, 50, 0
2, 174033, Note_on_c, 0, 64, 113
2, 174040, Note_on_c, 0, 52, 105
2, 174359, Control_c, 0, 64, 127
2, 174361, Note_on_c, 0, 62, 106
2, 174363, Note_on_c, 0, 50, 100
2, 174515, Note_on_c, 0, 36, 96
2, 174515, Note_on_c, 0, 24, 98
2, 174518, Note_on_c, 0, 48, 97
2, 174523, Note_on_c, 0, 60, 100
2, 174592, Control_c, 0, 64, 0
2, 174596, Note_on_c, 0, 60, 0
2, 174596, Note_on_c, 0, 62, 0
2, 174596, Note_on_c, 0, 50, 0
2, 174597, Note_on_c, 0, 48, 0
2, 174599, Note_on_c, 0, 36, 0
2, 174600, Note_on_c, 0, 24, 0
2, 174612, Note_on_c, 0, 52, 0
2, 174612, Note_on_c, 0, 64, 0
2, 174676, Note_on_c, 0, 62, 111
2, 174681, Note_on_c, 0, 50, 96
2, 174683, Note_on_c, 0, 26, 80
2, 174683, Note_on_c, 0, 34, 100
2, 174684, Note_on_c, 0, 22, 99
2, 174684, Note_on_c, 0, 56, 91
2, 174685, Note_on_c, 0, 38, 68
2, 174689, Note_on_c, 0, 26, 0
2, 174689, Control_c, 0, 64, 127
2, 174689, Note_on_c, 0, 57, 84
2, 174835, Note_on_c, 0, 57, 0
2, 174838, Note_on_c, 0, 69, 110
2, 174845, Note_on_c, 0, 57, 108
2, 174896, Note_on_c, 0, 22, 0
2, 174899, Control_c, 0, 64, 0
2, 174901, Note_on_c, 0, 34, 0
2, 174902, Note_on_c, 0, 50, 0
2, 174902, Note_on_c, 0, 69, 0
2, 174905, Note_on_c, 0, 62, 0
2, 174906, Note_on_c, 0, 57, 0
2, 174912, Note_on_c, 0, 38, 0
2, 174912, Note_on_c, 0, 56, 0
2, 174994, Note_on_c, 0, 69, 107
2, 174998, Note_on_c, 0, 57, 100
2, 175038, Note_on_c, 0, 69, 0
2, 175052, Note_on_c, 0, 57, 0
2, 175152, Note_on_c, 0, 69, 102
2, 175163, Note_on_c, 0, 57, 92
2, 175241, Note_on_c, 0, 69, 0
2, 175257, Note_on_c, 0, 57, 0
2, 175323, Note_on_c, 0, 57, 102
2, 175324, Note_on_c, 0, 33, 106
2, 175325, Note_on_c, 0, 69, 110
2, 175330, Note_on_c, 0, 28, 90
2, 175353, Note_on_c, 0, 27, 67
2, 175388, Control_c, 0, 64, 127
2, 175657, Note_on_c, 0, 65, 112
2, 175660, Note_on_c, 0, 53, 106
2, 175693, Note_on_c, 0, 57, 0
2, 175696, Note_on_c, 0, 65, 0
2, 175700, Note_on_c, 0, 53, 0
2, 175705, Control_c, 0, 64, 0
2, 175710, Note_on_c, 0, 28, 0
2, 175718, Note_on_c, 0, 27, 0
2, 175718, Note_on_c, 0, 33, 0
2, 175726, Note_on_c, 0, 69, 0
2, 175822, Note_on_c, 0, 64, 110
2, 175836, Note_on_c, 0, 52, 100
2, 175858, Note_on_c, 0, 64, 0
2, 175895, Note_on_c, 0, 52, 0
2, 175991, Note_on_c, 0, 62, 103
2, 175991, Note_on_c, 0, 43, 109
2, 175992, Note_on_c, 0, 31, 106
2, 175999, Note_on_c, 0, 58, 92
2, 175999, Note_on_c, 0, 50, 97
2, 176008, Note_on_c, 0, 53, 83
2, 176025, Control_c, 0, 64, 127
2, 176252, Control_c, 0, 64, 0
2, 176257, Note_on_c, 0, 31, 0
2, 176259, Note_on_c, 0, 43, 0
2, 176259, Note_on_c, 0, 58, 0
2, 176260, Note_on_c, 0, 53, 0
2, 176260, Note_on_c, 0, 62, 0
2, 176271, Note_on_c, 0, 50, 0
2, 176505, Note_on_c, 0, 62, 110
2, 176521, Note_on_c, 0, 50, 96
2, 176553, Note_on_c, 0, 50, 0
2, 176561, Note_on_c, 0, 62, 0
2, 176679, Note_on_c, 0, 64, 116
2, 176682, Note_on_c, 0, 52, 108
2, 176985, Control_c, 0, 64, 127
2, 176994, Note_on_c, 0, 62, 104
2, 176998, Note_on_c, 0, 50, 98
2, 177149, Note_on_c, 0, 41, 94
2, 177150, Note_on_c, 0, 60, 105
2, 177150, Note_on_c, 0, 48, 103
2, 177150, Note_on_c, 0, 29, 90
2, 177197, Control_c, 0, 64, 0
2, 177211, Note_on_c, 0, 50, 0
2, 177211, Note_on_c, 0, 62, 0
2, 177212, Note_on_c, 0, 60, 0
2, 177213, Note_on_c, 0, 41, 0
2, 177213, Note_on_c, 0, 48, 0
2, 177216, Note_on_c, 0, 29, 0
2, 177223, Note_on_c, 0, 52, 0
2, 177223, Note_on_c, 0, 64, 0
2, 177313, Note_on_c, 0, 50, 105
2, 177314, Note_on_c, 0, 62, 106
2, 177314, Note_on_c, 0, 38, 93
2, 177314, Note_on_c, 0, 40, 93
2, 177317, Note_on_c, 0, 28, 91
2, 177319, Note_on_c, 0, 57, 102
2, 177323, Control_c, 0, 64, 127
2, 177469, Note_on_c, 0, 57, 0
2, 177472, Note_on_c, 0, 69, 109
2, 177473, Note_on_c, 0, 57, 108
2, 177625, Note_on_c, 0, 46, 104
2, 177630, Note_on_c, 0, 69, 0
2, 177635, Note_on_c, 0, 34, 89
2, 177636, Note_on_c, 0, 69, 111
2, 177638, Note_on_c, 0, 38, 0
2, 177638, Note_on_c, 0, 57, 0
2, 177642, Note_on_c, 0, 50, 0
2, 177643, Note_on_c, 0, 38, 76
2, 177645, Note_on_c, 0, 57, 102
2, 177651, Note_on_c, 0, 62, 0
2, 177792, Note_on_c, 0, 57, 0
2, 177792, Note_on_c, 0, 69, 0
2, 177798, Note_on_c, 0, 69, 103
2, 177798, Note_on_c, 0, 57, 93
2, 177887, Control_c, 0, 64, 0
2, 177895, Note_on_c, 0, 57, 0
2, 177895, Note_on_c, 0, 40, 0
2, 177895, Note_on_c, 0, 69, 0
2, 177895, Note_on_c, 0, 38, 0
2, 177895, Note_on_c, 0, 34, 0
2, 177895, Note_on_c, 0, 46, 0
2, 177899, Note_on_c, 0, 28, 0
2, 177960, Control_c, 0, 64, 127
2, 177961, Note_on_c, 0, 45, 112
2, 177963, Note_on_c, 0, 33, 104
2, 177965, Note_on_c, 0, 69, 108
2, 177965, Note_on_c, 0, 57, 105
2, 178283, Note_on_c, 0, 57, 0
2, 178288, Note_on_c, 0, 57, 106
2, 178291, Note_on_c, 0, 45, 0
2, 178294, Control_c, 0, 64, 0
2, 178295, Note_on_c, 0, 45, 102
2, 178297, Note_on_c, 0, 77, 106
2, 178297, Note_on_c, 0, 49, 101
2, 178301, Note_on_c, 0, 52, 92
2, 178302, Note_on_c, 0, 65, 97
2, 178306, Control_c, 0, 64, 127
2, 178444, Note_on_c, 0, 52, 0
2, 178450, Note_on_c, 0, 76, 111
2, 178451, Note_on_c, 0, 64, 111
2, 178456, Note_on_c, 0, 52, 87
2, 178545, Control_c, 0, 64, 0
2, 178557, Note_on_c, 0, 49, 0
2, 178557, Note_on_c, 0, 45, 0
2, 178557, Note_on_c, 0, 57, 0
2, 178557, Note_on_c, 0, 77, 0
2, 178558, Note_on_c, 0, 65, 0
2, 178558, Note_on_c, 0, 69, 0
2, 178558, Note_on_c, 0, 52, 0
2, 178559, Note_on_c, 0, 64, 0
2, 178560, Note_on_c, 0, 76, 0
2, 178567, Note_on_c, 0, 33, 0
2, 178621, Note_on_c, 0, 50, 111
2, 178623, Note_on_c, 0, 74, 113
2, 178624, Note_on_c, 0, 38, 107
2, 178625, Note_on_c, 0, 62, 106
2, 178667, Control_c, 0, 64, 127
2, 178921, Control_c, 0, 64, 0
2, 178944, Note_on_c, 0, 38, 0
2, 178944, Note_on_c, 0, 50, 0
2, 178944, Note_on_c, 0, 74, 0
2, 178946, Note_on_c, 0, 86, 109
2, 178948, Note_on_c, 0, 38, 99
2, 178948, Note_on_c, 0, 77, 101
2, 178948, Note_on_c, 0, 74, 109
2, 178952, Note_on_c, 0, 53, 97
2, 178954, Note_on_c, 0, 57, 104
2, 178955, Note_on_c, 0, 45, 92
2, 178955, Note_on_c, 0, 50, 92
2, 178955, Note_on_c, 0, 41, 86
2, 178982, Control_c, 0, 64, 127
2, 179105, Note_on_c, 0, 62, 0
2, 179105, Note_on_c, 0, 74, 0
2, 179114, Note_on_c, 0, 74, 107
2, 179116, Note_on_c, 0, 62, 104
2, 179128, Note_on_c, 0, 50, 0
2, 179133, Note_on_c, 0, 50, 66
2, 179231, Control_c, 0, 64, 0
2, 179232, Note_on_c, 0, 45, 0
2, 179233, Note_on_c, 0, 86, 0
2, 179235, Note_on_c, 0, 77, 0
2, 179235, Note_on_c, 0, 53, 0
2, 179236, Note_on_c, 0, 74, 0
2, 179236, Note_on_c, 0, 57, 0
2, 179237, Note_on_c, 0, 38, 0
2, 179237, Note_on_c, 0, 50, 0
2, 179251, Note_on_c, 0, 62, 0
2, 179258, Note_on_c, 0, 41, 0
2, 179271, Note_on_c, 0, 76, 113
2, 179271, Note_on_c, 0, 48, 108
2, 179272, Note_on_c, 0, 36, 100
2, 179273, Note_on_c, 0, 64, 111
2, 179302, Note_on_c, 0, 38, 45
2, 179312, Control_c, 0, 64, 127
2, 179585, Note_on_c, 0, 86, 111
2, 179588, Note_on_c, 0, 57, 93
2, 179588, Note_on_c, 0, 74, 113
2, 179589, Note_on_c, 0, 48, 0
2, 179591, Note_on_c, 0, 45, 92
2, 179591, Note_on_c, 0, 77, 103
2, 179593, Note_on_c, 0, 48, 86
2, 179599, Note_on_c, 0, 53, 83
2, 179758, Note_on_c, 0, 60, 94
2, 179761, Note_on_c, 0, 72, 102
2, 179765, Note_on_c, 0, 36, 0
2, 179771, Note_on_c, 0, 36, 74
2, 179773, Note_on_c, 0, 48, 0
2, 179778, Note_on_c, 0, 48, 70
2, 179843, Control_c, 0, 64, 0
2, 179846, Note_on_c, 0, 36, 0
2, 179848, Note_on_c, 0, 45, 0
2, 179849, Note_on_c, 0, 48, 0
2, 179850, Note_on_c, 0, 38, 0
2, 179850, Note_on_c, 0, 57, 0
2, 179853, Note_on_c, 0, 64, 0
2, 179853, Note_on_c, 0, 53, 0
2, 179853, Note_on_c, 0, 60, 0
2, 179854, Note_on_c, 0, 74, 0
2, 179854, Note_on_c, 0, 86, 0
2, 179854, Note_on_c, 0, 77, 0
2, 179856, Note_on_c, 0, 72, 0
2, 179857, Note_on_c, 0, 76, 0
2, 179901, Note_on_c, 0, 46, 111
2, 179903, Note_on_c, 0, 34, 103
2, 179906, Note_on_c, 0, 74, 112
2, 179908, Note_on_c, 0, 62, 108
2, 179919, Control_c, 0, 64, 127
2, 180066, Note_on_c, 0, 69, 111
2, 180067, Note_on_c, 0, 81, 111
2, 180218, Note_on_c, 0, 34, 0
2, 180218, Note_on_c, 0, 46, 0
2, 180224, Note_on_c, 0, 46, 105
2, 180226, Note_on_c, 0, 81, 0
2, 180227, Note_on_c, 0, 93, 113
2, 180228, Note_on_c, 0, 34, 87
2, 180231, Note_on_c, 0, 81, 110
2, 180387, Note_on_c, 0, 69, 0
2, 180387, Note_on_c, 0, 81, 0
2, 180391, Note_on_c, 0, 69, 108
2, 180399, Note_on_c, 0, 81, 105
2, 180503, Note_on_c, 0, 93, 0
2, 180505, Control_c, 0, 64, 0
2, 180505, Note_on_c, 0, 74, 0
2, 180506, Note_on_c, 0, 69, 0
2, 180506, Note_on_c, 0, 81, 0
2, 180506, Note_on_c, 0, 62, 0
2, 180526, Note_on_c, 0, 46, 0
2, 180533, Note_on_c, 0, 34, 0
2, 180552, Note_on_c, 0, 33, 100
2, 180552, Note_on_c, 0, 69, 114
2, 180552, Note_on_c, 0, 81, 113
2, 180553, Note_on_c, 0, 45, 109
2, 180579, Control_c, 0, 64, 127
2, 180863, Control_c, 0, 64, 0
2, 180871, Note_on_c, 0, 45, 0
2, 180871, Note_on_c, 0, 69, 0
2, 180875, Note_on_c, 0, 77, 109
2, 180880, Note_on_c, 0, 57, 105
2, 180881, Note_on_c, 0, 53, 103
2, 180882, Note_on_c, 0, 65, 108
2, 180882, Note_on_c, 0, 69, 101
2, 180882, Note_on_c, 0, 45, 103
2, 180883, Note_on_c, 0, 72, 94
2, 180902, Control_c, 0, 64, 127
2, 181040, Note_on_c, 0, 76, 109
2, 181052, Note_on_c, 0, 64, 94
2, 181194, Note_on_c, 0, 65, 0
2, 181203, Note_on_c, 0, 65, 91
2, 181204, Note_on_c, 0, 31, 106
2, 181204, Note_on_c, 0, 43, 110
2, 181205, Note_on_c, 0, 74, 111
2, 181205, Note_on_c, 0, 70, 93
2, 181206, Note_on_c, 0, 62, 103
2, 181339, Note_on_c, 0, 31, 0
2, 181339, Note_on_c, 0, 69, 0
2, 181339, Note_on_c, 0, 45, 0
2, 181339, Note_on_c, 0, 81, 0
2, 181340, Note_on_c, 0, 74, 0
2, 181340, Note_on_c, 0, 57, 0
2, 181341, Note_on_c, 0, 62, 0
2, 181341, Note_on_c, 0, 76, 0
2, 181341, Note_on_c, 0, 43, 0
2, 181342, Note_on_c, 0, 64, 0
2, 181342, Note_on_c, 0, 77, 0
2, 181342, Note_on_c, 0, 65, 0
2, 181342, Note_on_c, 0, 53, 0
2, 181343, Control_c, 0, 64, 0
2, 181347, Note_on_c, 0, 72, 0
2, 181355, Note_on_c, 0, 33, 0
2, 181363, Note_on_c, 0, 70, 0
2, 181533, Note_on_c, 0, 86, 110
2, 181534, Note_on_c, 0, 98, 114
2, 181542, Note_on_c, 0, 89, 108
2, 181552, Note_on_c, 0, 50, 87
2, 181552, Note_on_c, 0, 58, 93
2, 181562, Control_c, 0, 64, 127
2, 181682, Note_on_c, 0, 43, 104
2, 181787, Control_c, 0, 64, 0
2, 181788, Note_on_c, 0, 43, 0
2, 181788, Note_on_c, 0, 58, 0
2, 181788, Note_on_c, 0, 89, 0
2, 181800, Note_on_c, 0, 50, 0
2, 181800, Note_on_c, 0, 98, 0
2, 181808, Note_on_c, 0, 86, 0
2, 181851, Note_on_c, 0, 62, 107
2, 181851, Note_on_c, 0, 74, 110
2, 181856, Note_on_c, 0, 45, 109
2, 181857, Note_on_c, 0, 33, 99
2, 181870, Control_c, 0, 64, 127
2, 181939, Note_on_c, 0, 74, 0
2, 181946, Note_on_c, 0, 62, 0
2, 181967, Note_on_c, 0, 45, 0
2, 181969, Note_on_c, 0, 33, 0
2, 181972, Control_c, 0, 64, 0
2, 182160, Note_on_c, 0, 86, 108
2, 182162, Note_on_c, 0, 98, 115
2, 182165, Note_on_c, 0, 60, 111
2, 182172, Note_on_c, 0, 88, 100
2, 182173, Note_on_c, 0, 52, 106
2, 182175, Note_on_c, 0, 89, 90
2, 182177, Note_on_c, 0, 88, 0
2, 182177, Control_c, 0, 64, 127
2, 182181, Note_on_c, 0, 96, 75
2, 182328, Note_on_c, 0, 45, 103
2, 182419, Note_on_c, 0, 52, 0
2, 182419, Note_on_c, 0, 89, 0
2, 182420, Note_on_c, 0, 86, 0
2, 182421, Note_on_c, 0, 45, 0
2, 182421, Note_on_c, 0, 60, 0
2, 182426, Control_c, 0, 64, 0
2, 182430, Note_on_c, 0, 96, 0
2, 182438, Note_on_c, 0, 98, 0
2, 182480, Note_on_c, 0, 74, 112
2, 182481, Note_on_c, 0, 62, 101
2, 182482, Note_on_c, 0, 50, 110
2, 182484, Note_on_c, 0, 86, 100
2, 182485, Note_on_c, 0, 69, 100
2, 182487, Note_on_c, 0, 45, 108
2, 182487, Note_on_c, 0, 38, 111
2, 182492, Note_on_c, 0, 62, 0
2, 182492, Note_on_c, 0, 86, 0
2, 182499, Control_c, 0, 64, 127
2, 182545, Note_on_c, 0, 69, 0
2, 182648, Note_on_c, 0, 98, 117
2, 182648, Note_on_c, 0, 86, 114
2, 182654, Note_on_c, 0, 89, 108
2, 182664, Note_on_c, 0, 50, 0
2, 182664, Control_c, 0, 64, 0
2, 182664, Note_on_c, 0, 45, 0
2, 182665, Note_on_c, 0, 38, 0
2, 182668, Note_on_c, 0, 74, 0
2, 182679, Note_on_c, 0, 86, 0
2, 182692, Note_on_c, 0, 89, 0
2, 182745, Note_on_c, 0, 98, 0
2, 182804, Note_on_c, 0, 98, 118
2, 182807, Note_on_c, 0, 86, 115
2, 182813, Note_on_c, 0, 89, 104
2, 182833, Note_on_c, 0, 88, 74
2, 182845, Control_c, 0, 64, 127
2, 182848, Note_on_c, 0, 86, 0
2, 182883, Note_on_c, 0, 89, 0
2, 182960, Note_on_c, 0, 88, 0
2, 182960, Note_on_c, 0, 98, 0
2, 182965, Note_on_c, 0, 98, 116
2, 182967, Note_on_c, 0, 86, 113
2, 182971, Note_on_c, 0, 89, 107
2, 183005, Note_on_c, 0, 86, 0
2, 183052, Note_on_c, 0, 89, 0
2, 183114, Note_on_c, 0, 98, 0
2, 183123, Note_on_c, 0, 98, 118
2, 183125, Note_on_c, 0, 86, 114
2, 183130, Note_on_c, 0, 89, 109
2, 183268, Note_on_c, 0, 38, 106
2, 183270, Note_on_c, 0, 26, 105
2, 183423, Note_on_c, 0, 35, 88
2, 183465, Note_on_c, 0, 33, 82
2, 183471, Note_on_c, 0, 40, 82
2, 183478, Note_on_c, 0, 47, 89
2, 183498, Note_on_c, 0, 38, 0
2, 183505, Note_on_c, 0, 38, 65
2, 183518, Note_on_c, 0, 50, 82
2, 183524, Note_on_c, 0, 45, 81
2, 183598, Note_on_c, 0, 50, 0
2, 183609, Note_on_c, 0, 50, 83
2, 183694, Control_c, 0, 64, 0
2, 183709, Note_on_c, 0, 33, 0
2, 183709, Note_on_c, 0, 35, 0
2, 183710, Note_on_c, 0, 89, 0
2, 183710, Note_on_c, 0, 38, 0
2, 183710, Note_on_c, 0, 86, 0
2, 183713, Note_on_c, 0, 26, 0
2, 183713, Note_on_c, 0, 40, 0
2, 183713, Note_on_c, 0, 98, 0
2, 183720, Note_on_c, 0, 47, 0
2, 183728, Note_on_c, 0, 45, 0
2, 183764, Note_on_c, 0, 89, 112
2, 183769, Note_on_c, 0, 81, 108
2, 183771, Note_on_c, 0, 38, 92
2, 183805, Control_c, 0, 64, 127
2, 183929, Note_on_c, 0, 77, 85
2, 184089, Note_on_c, 0, 81, 0
2, 184093, Note_on_c, 0, 53, 95
2, 184093, Note_on_c, 0, 62, 95
2, 184094, Note_on_c, 0, 57, 100
2, 184099, Note_on_c, 0, 81, 100
2, 184100, Note_on_c, 0, 74, 95
2, 184235, Note_on_c, 0, 77, 0
2, 184240, Note_on_c, 0, 88, 106
2, 184244, Note_on_c, 0, 77, 92
2, 184245, Note_on_c, 0, 89, 0
2, 184249, Note_on_c, 0, 41, 81
2, 184308, Note_on_c, 0, 86, 102
2, 184389, Control_c, 0, 64, 0
2, 184406, Note_on_c, 0, 41, 0
2, 184407, Note_on_c, 0, 77, 0
2, 184407, Note_on_c, 0, 38, 0
2, 184407, Note_on_c, 0, 81, 0
2, 184408, Note_on_c, 0, 62, 0
2, 184408, Note_on_c, 0, 57, 0
2, 184409, Note_on_c, 0, 50, 0
2, 184409, Note_on_c, 0, 86, 0
2, 184412, Note_on_c, 0, 88, 0
2, 184415, Note_on_c, 0, 48, 113
2, 184416, Note_on_c, 0, 88, 109
2, 184416, Note_on_c, 0, 36, 101
2, 184419, Note_on_c, 0, 79, 112
2, 184419, Note_on_c, 0, 74, 0
2, 184427, Note_on_c, 0, 53, 0
2, 184473, Control_c, 0, 64, 127
2, 184504, Note_on_c, 0, 48, 0
2, 184576, Note_on_c, 0, 76, 103
2, 184734, Note_on_c, 0, 79, 0
2, 184738, Note_on_c, 0, 60, 106
2, 184739, Note_on_c, 0, 84, 104
2, 184740, Note_on_c, 0, 79, 110
2, 184741, Note_on_c, 0, 52, 106
2, 184741, Note_on_c, 0, 55, 99
2, 184743, Control_c, 0, 64, 0
2, 184744, Note_on_c, 0, 48, 99
2, 184773, Control_c, 0, 64, 127
2, 184903, Note_on_c, 0, 76, 0
2, 184907, Note_on_c, 0, 76, 101
2, 185016, Control_c, 0, 64, 0
2, 185019, Note_on_c, 0, 48, 0
2, 185020, Note_on_c, 0, 60, 0
2, 185021, Note_on_c, 0, 76, 0
2, 185021, Note_on_c, 0, 84, 0
2, 185021, Note_on_c, 0, 52, 0
2, 185021, Note_on_c, 0, 79, 0
2, 185021, Note_on_c, 0, 88, 0
2, 185022, Note_on_c, 0, 55, 0
2, 185026, Note_on_c, 0, 36, 0
2, 185056, Note_on_c, 0, 46, 112
2, 185060, Note_on_c, 0, 86, 112
2, 185062, Note_on_c, 0, 34, 104
2, 185067, Note_on_c, 0, 77, 106
2, 185075, Note_on_c, 0, 82, 96
2, 185111, Control_c, 0, 64, 127
2, 185222, Note_on_c, 0, 74, 105
2, 185228, Note_on_c, 0, 69, 107
2, 185372, Note_on_c, 0, 77, 0
2, 185379, Note_on_c, 0, 69, 0
2, 185383, Note_on_c, 0, 77, 101
2, 185384, Note_on_c, 0, 69, 100
2, 185387, Note_on_c, 0, 46, 0
2, 185391, Note_on_c, 0, 65, 97
2, 185393, Note_on_c, 0, 58, 97
2, 185397, Note_on_c, 0, 46, 96
2, 185398, Note_on_c, 0, 62, 86
2, 185548, Note_on_c, 0, 74, 0
2, 185556, Note_on_c, 0, 69, 0
2, 185557, Note_on_c, 0, 84, 105
2, 185558, Note_on_c, 0, 74, 105
2, 185564, Note_on_c, 0, 69, 99
2, 185571, Note_on_c, 0, 58, 0
2, 185580, Note_on_c, 0, 58, 74
2, 185610, Note_on_c, 0, 82, 0
2, 185617, Note_on_c, 0, 82, 104
2, 185701, Note_on_c, 0, 62, 0
2, 185701, Note_on_c, 0, 46, 0
2, 185701, Note_on_c, 0, 86, 0
2, 185702, Note_on_c, 0, 69, 0
2, 185704, Note_on_c, 0, 82, 0
2, 185705, Note_on_c, 0, 58, 0
2, 185705, Note_on_c, 0, 65, 0
2, 185705, Note_on_c, 0, 77, 0
2, 185708, Note_on_c, 0, 69, 106
2, 185708, Control_c, 0, 64, 0
2, 185710, Note_on_c, 0, 84, 0
2, 185714, Note_on_c, 0, 72, 104
2, 185714, Note_on_c, 0, 64, 103
2, 185715, Note_on_c, 0, 60, 103
2, 185717, Note_on_c, 0, 57, 105
2, 185719, Note_on_c, 0, 76, 106
2, 185720, Note_on_c, 0, 84, 105
2, 185725, Note_on_c, 0, 34, 0
2, 185733, Note_on_c, 0, 74, 0
2, 185763, Note_on_c, 0, 72, 0
2, 185786, Control_c, 0, 64, 127
2, 185882, Note_on_c, 0, 72, 95
2, 185902, Note_on_c, 0, 76, 0
2, 185910, Note_on_c, 0, 76, 63
2, 186032, Note_on_c, 0, 76, 0
2, 186038, Note_on_c, 0, 81, 105
2, 186038, Note_on_c, 0, 76, 103
2, 186039, Note_on_c, 0, 33, 99
2, 186043, Note_on_c, 0, 45, 104
2, 186193, Note_on_c, 0, 72, 0
2, 186201, Note_on_c, 0, 72, 90
2, 186300, Control_c, 0, 64, 0
2, 186300, Note_on_c, 0, 33, 0
2, 186302, Note_on_c, 0, 81, 0
2, 186303, Note_on_c, 0, 45, 0
2, 186303, Note_on_c, 0, 69, 0
2, 186303, Note_on_c, 0, 84, 0
2, 186303, Note_on_c, 0, 72, 0
2, 186304, Note_on_c, 0, 76, 0
2, 186304, Note_on_c, 0, 57, 0
2, 186304, Note_on_c, 0, 64, 0
2, 186309, Note_on_c, 0, 60, 0
2, 186352, Note_on_c, 0, 82, 111
2, 186359, Note_on_c, 0, 31, 103
2, 186359, Note_on_c, 0, 43, 107
2, 186365, Note_on_c, 0, 74, 96
2, 186447, Control_c, 0, 64, 127
2, 186523, Note_on_c, 0, 70, 98
2, 186677, Note_on_c, 0, 74, 0
2, 186682, Note_on_c, 0, 62, 99
2, 186682, Note_on_c, 0, 58, 101
2, 186685, Note_on_c, 0, 74, 101
2, 186836, Note_on_c, 0, 55, 98
2, 186839, Note_on_c, 0, 43, 0
2, 186839, Note_on_c, 0, 70, 0
2, 186843, Note_on_c, 0, 70, 101
2, 186843, Note_on_c, 0, 43, 89
2, 186847, Note_on_c, 0, 81, 106
2, 186907, Note_on_c, 0, 79, 99
2, 186982, Note_on_c, 0, 58, 0
2, 186983, Note_on_c, 0, 62, 0
2, 186984, Note_on_c, 0, 79, 0
2, 186984, Note_on_c, 0, 31, 0
2, 186984, Note_on_c, 0, 74, 0
2, 186985, Note_on_c, 0, 70, 0
2, 186985, Note_on_c, 0, 82, 0
2, 186985, Note_on_c, 0, 43, 0
2, 186986, Note_on_c, 0, 55, 0
2, 186988, Control_c, 0, 64, 0
2, 186989, Note_on_c, 0, 74, 102
2, 186992, Note_on_c, 0, 81, 0
2, 187000, Note_on_c, 0, 81, 101
2, 187002, Note_on_c, 0, 41, 110
2, 187003, Note_on_c, 0, 53, 106
2, 187061, Control_c, 0, 64, 127
2, 187176, Note_on_c, 0, 69, 99
2, 187322, Note_on_c, 0, 53, 0
2, 187322, Note_on_c, 0, 74, 0
2, 187326, Note_on_c, 0, 62, 103
2, 187326, Note_on_c, 0, 77, 103
2, 187329, Note_on_c, 0, 74, 104
2, 187333, Note_on_c, 0, 57, 96
2, 187333, Note_on_c, 0, 53, 87
2, 187468, Note_on_c, 0, 69, 0
2, 187479, Note_on_c, 0, 69, 96
2, 187617, Control_c, 0, 64, 0
2, 187618, Note_on_c, 0, 77, 0
2, 187619, Note_on_c, 0, 57, 0
2, 187619, Note_on_c, 0, 62, 0
2, 187619, Note_on_c, 0, 53, 0
2, 187637, Note_on_c, 0, 41, 0
2, 187637, Note_on_c, 0, 74, 0
2, 187637, Note_on_c, 0, 81, 0
2, 187641, Note_on_c, 0, 76, 109
2, 187645, Note_on_c, 0, 69, 0
2, 187646, Note_on_c, 0, 52, 108
2, 187648, Note_on_c, 0, 40, 102
2, 187648, Note_on_c, 0, 74, 104
2, 187714, Control_c, 0, 64, 127
2, 187817, Note_on_c, 0, 69, 93
2, 187968, Note_on_c, 0, 74, 0
2, 187970, Note_on_c, 0, 81, 109
2, 187972, Note_on_c, 0, 74, 103
2, 187982, Note_on_c, 0, 62, 98
2, 187987, Note_on_c, 0, 58, 101
2, 188121, Note_on_c, 0, 69, 0
2, 188131, Note_on_c, 0, 69, 94
2, 188288, Control_c, 0, 64, 0
2, 188292, Note_on_c, 0, 61, 108
2, 188294, Note_on_c, 0, 58, 0
2, 188297, Note_on_c, 0, 52, 0
2, 188297, Note_on_c, 0, 62, 0
2, 188298, Note_on_c, 0, 76, 0
2, 188298, Note_on_c, 0, 69, 0
2, 188299, Note_on_c, 0, 81, 0
2, 188300, Note_on_c, 0, 74, 0
2, 188300, Note_on_c, 0, 57, 101
2, 188301, Note_on_c, 0, 73, 108
2, 188302, Note_on_c, 0, 79, 104
2, 188313, Note_on_c, 0, 40, 0
2, 188367, Note_on_c, 0, 61, 0
2, 188367, Control_c, 0, 64, 127
2, 188382, Note_on_c, 0, 57, 0
2, 188467, Note_on_c, 0, 45, 93
2, 188467, Note_on_c, 0, 33, 88
2, 188469, Note_on_c, 0, 77, 101
2, 188620, Note_on_c, 0, 47, 101
2, 188624, Note_on_c, 0, 35, 93
2, 188632, Note_on_c, 0, 76, 100
2, 188779, Note_on_c, 0, 49, 90
2, 188781, Note_on_c, 0, 37, 87
2, 188790, Note_on_c, 0, 81, 105
2, 188951, Note_on_c, 0, 33, 0
2, 188952, Note_on_c, 0, 37, 0
2, 188952, Note_on_c, 0, 73, 0
2, 188952, Note_on_c, 0, 35, 0
2, 188953, Note_on_c, 0, 47, 0
2, 188953, Note_on_c, 0, 81, 0
2, 188954, Note_on_c, 0, 77, 0
2, 188954, Note_on_c, 0, 49, 0
2, 188954, Note_on_c, 0, 45, 0
2, 188954, Note_on_c, 0, 79, 0
2, 188954, Note_on_c, 0, 74, 107
2, 188954, Note_on_c, 0, 76, 0
2, 188955, Note_on_c, 0, 50, 104
2, 188955, Control_c, 0, 64, 0
2, 188957, Note_on_c, 0, 38, 100
2, 189219, Control_c, 0, 64, 127
2, 189289, Note_on_c, 0, 53, 82
2, 189295, Note_on_c, 0, 57, 83
2, 189427, Note_on_c, 0, 38, 0
2, 189427, Note_on_c, 0, 50, 0
2, 189434, Note_on_c, 0, 38, 76
2, 189435, Note_on_c, 0, 50, 81
2, 189438, Note_on_c, 0, 64, 94
2, 189512, Note_on_c, 0, 65, 100
2, 189561, Note_on_c, 0, 38, 0
2, 189561, Control_c, 0, 64, 0
2, 189562, Note_on_c, 0, 74, 0
2, 189562, Note_on_c, 0, 50, 0
2, 189563, Note_on_c, 0, 53, 0
2, 189563, Note_on_c, 0, 64, 0
2, 189563, Note_on_c, 0, 57, 0
2, 189606, Note_on_c, 0, 64, 92
2, 189611, Note_on_c, 0, 36, 94
2, 189612, Note_on_c, 0, 48, 99
2, 189626, Control_c, 0, 64, 127
2, 189759, Note_on_c, 0, 60, 94
2, 189930, Note_on_c, 0, 57, 100
2, 189930, Note_on_c, 0, 53, 94
2, 189933, Note_on_c, 0, 69, 105
2, 190092, Note_on_c, 0, 67, 96
2, 190156, Note_on_c, 0, 69, 0
2, 190161, Note_on_c, 0, 69, 108
2, 190198, Control_c, 0, 64, 0
2, 190199, Note_on_c, 0, 48, 0
2, 190199, Note_on_c, 0, 36, 0
2, 190200, Note_on_c, 0, 57, 0
2, 190200, Note_on_c, 0, 64, 0
2, 190200, Note_on_c, 0, 60, 0
2, 190201, Note_on_c, 0, 65, 0
2, 190201, Note_on_c, 0, 53, 0
2, 190225, Note_on_c, 0, 67, 0
2, 190235, Note_on_c, 0, 67, 96
2, 190237, Note_on_c, 0, 46, 107
2, 190237, Note_on_c, 0, 58, 89
2, 190237, Note_on_c, 0, 34, 102
2, 190241, Note_on_c, 0, 69, 0
2, 190279, Control_c, 0, 64, 127
2, 190391, Note_on_c, 0, 65, 105
2, 190560, Note_on_c, 0, 62, 108
2, 190563, Note_on_c, 0, 58, 0
2, 190564, Note_on_c, 0, 53, 97
2, 190567, Note_on_c, 0, 77, 110
2, 190568, Note_on_c, 0, 89, 113
2, 190573, Note_on_c, 0, 58, 98
2, 190609, Control_c, 0, 64, 0
2, 190694, Control_c, 0, 64, 127
2, 190717, Note_on_c, 0, 46, 0
2, 190727, Note_on_c, 0, 88, 106
2, 190728, Note_on_c, 0, 46, 90
2, 190729, Note_on_c, 0, 76, 99
2, 190732, Note_on_c, 0, 34, 0
2, 190737, Note_on_c, 0, 34, 81
2, 190786, Note_on_c, 0, 89, 0
2, 190794, Note_on_c, 0, 77, 0
2, 190798, Note_on_c, 0, 89, 114
2, 190799, Note_on_c, 0, 77, 114
2, 190822, Control_c, 0, 64, 0
2, 190835, Note_on_c, 0, 62, 0
2, 190835, Note_on_c, 0, 53, 0
2, 190836, Note_on_c, 0, 58, 0
2, 190836, Note_on_c, 0, 65, 0
2, 190837, Note_on_c, 0, 76, 0
2, 190837, Note_on_c, 0, 34, 0
2, 190848, Note_on_c, 0, 67, 0
2, 190855, Note_on_c, 0, 46, 0
2, 190863, Note_on_c, 0, 77, 0
2, 190865, Note_on_c, 0, 33, 97
2, 190866, Note_on_c, 0, 45, 109
2, 190871, Note_on_c, 0, 88, 0
2, 190876, Note_on_c, 0, 88, 110
2, 190880, Note_on_c, 0, 76, 111
2, 190905, Note_on_c, 0, 85, 72
2, 190908, Note_on_c, 0, 86, 57
2, 190909, Control_c, 0, 64, 127
2, 191024, Note_on_c, 0, 89, 0
2, 191034, Note_on_c, 0, 77, 114
2, 191035, Note_on_c, 0, 89, 114
2, 191195, Note_on_c, 0, 93, 116
2, 191198, Note_on_c, 0, 60, 103
2, 191202, Note_on_c, 0, 81, 111
2, 191202, Note_on_c, 0, 55, 95
2, 191202, Note_on_c, 0, 52, 101
2, 191344, Note_on_c, 0, 96, 112
2, 191348, Note_on_c, 0, 84, 113
2, 191433, Control_c, 0, 64, 0
2, 191434, Note_on_c, 0, 77, 0
2, 191435, Note_on_c, 0, 45, 0
2, 191435, Note_on_c, 0, 81, 0
2, 191435, Note_on_c, 0, 33, 0
2, 191435, Note_on_c, 0, 52, 0
2, 191435, Note_on_c, 0, 60, 0
2, 191436, Note_on_c, 0, 89, 0
2, 191436, Note_on_c, 0, 55, 0
2, 191436, Note_on_c, 0, 88, 0
2, 191436, Note_on_c, 0, 93, 0
2, 191436, Note_on_c, 0, 85, 0
2, 191437, Note_on_c, 0, 84, 0
2, 191438, Note_on_c, 0, 96, 0
2, 191439, Note_on_c, 0, 86, 0
2, 191447, Note_on_c, 0, 76, 0
2, 191513, Note_on_c, 0, 98, 114
2, 191514, Note_on_c, 0, 31, 106
2, 191515, Note_on_c, 0, 43, 107
2, 191518, Note_on_c, 0, 86, 111
2, 191520, Note_on_c, 0, 89, 100
2, 191523, Control_c, 0, 64, 127
2, 191527, Note_on_c, 0, 94, 89
2, 191605, Note_on_c, 0, 31, 0
2, 191625, Control_c, 0, 64, 0
2, 191692, Note_on_c, 0, 89, 0
2, 191808, Note_on_c, 0, 86, 0
2, 191840, Note_on_c, 0, 58, 106
2, 191841, Note_on_c, 0, 100, 115
2, 191842, Note_on_c, 0, 91, 109
2, 191844, Note_on_c, 0, 88, 113
2, 191858, Note_on_c, 0, 50, 74
2, 191861, Control_c, 0, 64, 127
2, 191976, Note_on_c, 0, 43, 0
2, 191987, Note_on_c, 0, 43, 102
2, 192050, Control_c, 0, 64, 0
2, 192057, Note_on_c, 0, 43, 0
2, 192057, Note_on_c, 0, 50, 0
2, 192058, Note_on_c, 0, 91, 0
2, 192058, Note_on_c, 0, 100, 0
2, 192058, Note_on_c, 0, 58, 0
2, 192058, Note_on_c, 0, 88, 0
2, 192076, Note_on_c, 0, 94, 0
2, 192092, Note_on_c, 0, 98, 0
2, 192149, Note_on_c, 0, 93, 112
2, 192151, Note_on_c, 0, 45, 104
2, 192151, Note_on_c, 0, 101, 115
2, 192153, Note_on_c, 0, 33, 99
2, 192156, Note_on_c, 0, 89, 108
2, 192168, Control_c, 0, 64, 127
2, 192317, Control_c, 0, 64, 0
2, 192319, Note_on_c, 0, 101, 0
2, 192319, Note_on_c, 0, 45, 0
2, 192319, Note_on_c, 0, 89, 0
2, 192322, Note_on_c, 0, 93, 0
2, 192337, Note_on_c, 0, 33, 0
2, 192467, Note_on_c, 0, 100, 115
2, 192471, Note_on_c, 0, 60, 105
2, 192472, Note_on_c, 0, 91, 109
2, 192472, Note_on_c, 0, 88, 113
2, 192477, Note_on_c, 0, 52, 101
2, 192478, Note_on_c, 0, 48, 98
2, 192478, Note_on_c, 0, 94, 96
2, 192491, Control_c, 0, 64, 127
2, 192529, Note_on_c, 0, 48, 0
2, 192622, Note_on_c, 0, 94, 0
2, 192623, Note_on_c, 0, 45, 104
2, 192624, Note_on_c, 0, 57, 85
2, 192674, Control_c, 0, 64, 0
2, 192675, Note_on_c, 0, 60, 0
2, 192677, Note_on_c, 0, 52, 0
2, 192678, Note_on_c, 0, 45, 0
2, 192679, Note_on_c, 0, 100, 0
2, 192679, Note_on_c, 0, 91, 0
2, 192679, Note_on_c, 0, 88, 0
2, 192698, Note_on_c, 0, 57, 0
2, 192782, Note_on_c, 0, 78, 95
2, 192784, Note_on_c, 0, 86, 110
2, 192786, Note_on_c, 0, 50, 109
2, 192788, Note_on_c, 0, 38, 106
2, 192791, Note_on_c, 0, 78, 0
2, 192798, Control_c, 0, 64, 127
2, 192944, Note_on_c, 0, 86, 0
2, 192948, Note_on_c, 0, 86, 105
2, 192952, Note_on_c, 0, 38, 0
2, 192954, Note_on_c, 0, 98, 108
2, 192956, Note_on_c, 0, 26, 102
2, 192956, Note_on_c, 0, 93, 99
2, 192956, Note_on_c, 0, 89, 98
2, 192957, Note_on_c, 0, 38, 100
2, 192957, Note_on_c, 0, 33, 86
2, 193090, Note_on_c, 0, 98, 0
2, 193098, Note_on_c, 0, 86, 0
2, 193100, Note_on_c, 0, 98, 106
2, 193104, Note_on_c, 0, 86, 103
2, 193105, Note_on_c, 0, 89, 0
2, 193109, Note_on_c, 0, 89, 94
2, 193251, Note_on_c, 0, 89, 0
2, 193259, Note_on_c, 0, 86, 0
2, 193259, Note_on_c, 0, 93, 0
2, 193259, Note_on_c, 0, 98, 0
2, 193263, Note_on_c, 0, 89, 100
2, 193263, Note_on_c, 0, 93, 100
2, 193267, Note_on_c, 0, 26, 0
2, 193267, Note_on_c, 0, 38, 0
2, 193268, Note_on_c, 0, 86, 106
2, 193268, Note_on_c, 0, 98, 106
2, 193272, Note_on_c, 0, 26, 94
2, 193272, Note_on_c, 0, 38, 99
2, 193413, Note_on_c, 0, 86, 0
2, 193413, Note_on_c, 0, 93, 0
2, 193420, Note_on_c, 0, 98, 0
2, 193423, Note_on_c, 0, 86, 107
2, 193424, Note_on_c, 0, 93, 106
2, 193427, Note_on_c, 0, 98, 108
2, 193436, Note_on_c, 0, 89, 0
2, 193437, Note_on_c, 0, 96, 83
2, 193442, Note_on_c, 0, 89, 83
2, 193574, Note_on_c, 0, 26, 0
2, 193579, Note_on_c, 0, 26, 102
2, 193739, Note_on_c, 0, 100, 101
2, 193743, Note_on_c, 0, 98, 0
2, 193753, Note_on_c, 0, 98, 87
2, 193758, Note_on_c, 0, 96, 0
2, 193762, Note_on_c, 0, 96, 103
2, 193778, Note_on_c, 0, 95, 84
2, 193789, Note_on_c, 0, 26, 0
2, 193789, Note_on_c, 0, 93, 0
2, 193799, Note_on_c, 0, 93, 88
2, 193809, Note_on_c, 0, 91, 90
2, 193812, Note_on_c, 0, 33, 0
2, 193827, Note_on_c, 0, 89, 0
2, 193835, Note_on_c, 0, 86, 0
2, 193836, Note_on_c, 0, 88, 66
2, 193837, Note_on_c, 0, 89, 82
2, 193846, Note_on_c, 0, 86, 82
2, 193854, Note_on_c, 0, 79, 88
2, 193858, Note_on_c, 0, 83, 80
2, 193862, Note_on_c, 0, 81, 84
2, 193862, Note_on_c, 0, 77, 89
2, 193872, Note_on_c, 0, 76, 90
2, 193880, Note_on_c, 0, 74, 92
2, 193885, Note_on_c, 0, 72, 90
2, 193902, Note_on_c, 0, 69, 63
2, 193909, Note_on_c, 0, 71, 57
2, 193939, Note_on_c, 0, 67, 50
2, 193939, Note_on_c, 0, 65, 36
2, 194067, Note_on_c, 0, 100, 0
2, 194067, Note_on_c, 0, 95, 0
2, 194068, Note_on_c, 0, 98, 0
2, 194068, Note_on_c, 0, 96, 0
2, 194068, Note_on_c, 0, 81, 0
2, 194069, Note_on_c, 0, 91, 0
2, 194069, Note_on_c, 0, 88, 0
2, 194069, Note_on_c, 0, 74, 0
2, 194069, Note_on_c, 0, 89, 0
2, 194069, Note_on_c, 0, 83, 0
2, 194069, Note_on_c, 0, 69, 0
2, 194069, Note_on_c, 0, 77, 0
2, 194070, Control_c, 0, 64, 0
2, 194070, Note_on_c, 0, 76, 0
2, 194070, Note_on_c, 0, 79, 0
2, 194070, Note_on_c, 0, 50, 0
2, 194070, Note_on_c, 0, 67, 0
2, 194073, Note_on_c, 0, 72, 0
2, 194073, Note_on_c, 0, 46, 112
2, 194076, Note_on_c, 0, 34, 101
2, 194077, Note_on_c, 0, 64, 98
2, 194081, Note_on_c, 0, 72, 102
2, 194081, Note_on_c, 0, 38, 0
2, 194081, Note_on_c, 0, 86, 0
2, 194081, Note_on_c, 0, 93, 0
2, 194092, Note_on_c, 0, 70, 85
2, 194096, Note_on_c, 0, 65, 0
2, 194096, Note_on_c, 0, 71, 0
2, 194107, Note_on_c, 0, 71, 67
2, 194135, Control_c, 0, 64, 127
2, 194235, Note_on_c, 0, 74, 110
2, 194255, Note_on_c, 0, 65, 85
2, 194414, Note_on_c, 0, 69, 101
2, 194415, Note_on_c, 0, 57, 94
2, 194415, Note_on_c, 0, 45, 92
2, 194416, Note_on_c, 0, 53, 87
2, 194418, Note_on_c, 0, 33, 87
2, 194549, Note_on_c, 0, 53, 0
2, 194549, Note_on_c, 0, 65, 0
2, 194553, Note_on_c, 0, 50, 83
2, 194554, Note_on_c, 0, 53, 76
2, 194556, Note_on_c, 0, 67, 94
2, 194557, Note_on_c, 0, 38, 80
2, 194557, Note_on_c, 0, 65, 73
2, 194694, Note_on_c, 0, 45, 0
2, 194695, Note_on_c, 0, 33, 0
2, 194696, Note_on_c, 0, 67, 0
2, 194696, Note_on_c, 0, 74, 0
2, 194696, Note_on_c, 0, 46, 0
2, 194697, Control_c, 0, 64, 0
2, 194697, Note_on_c, 0, 50, 0
2, 194703, Note_on_c, 0, 34, 0
2, 194703, Note_on_c, 0, 64, 0
2, 194703, Note_on_c, 0, 65, 0
2, 194703, Note_on_c, 0, 72, 0
2, 194709, Note_on_c, 0, 65, 91
2, 194711, Note_on_c, 0, 53, 0
2, 194711, Note_on_c, 0, 57, 0
2, 194711, Note_on_c, 0, 69, 0
2, 194711, Note_on_c, 0, 70, 0
2, 194711, Note_on_c, 0, 71, 0
2, 194715, Note_on_c, 0, 36, 104
2, 194715, Note_on_c, 0, 57, 77
2, 194716, Note_on_c, 0, 53, 80
2, 194716, Note_on_c, 0, 48, 107
2, 194718, Note_on_c, 0, 38, 0
2, 194721, Note_on_c, 0, 69, 82
2, 194723, Note_on_c, 0, 55, 76
2, 194734, Note_on_c, 0, 55, 0
2, 194757, Control_c, 0, 64, 127
2, 194872, Note_on_c, 0, 67, 87
2, 194901, Note_on_c, 0, 55, 60
2, 195031, Note_on_c, 0, 64, 100
2, 195041, Note_on_c, 0, 55, 0
2, 195052, Note_on_c, 0, 55, 92
2, 195052, Note_on_c, 0, 52, 96
2, 195179, Note_on_c, 0, 48, 0
2, 195189, Note_on_c, 0, 48, 94
2, 195194, Note_on_c, 0, 55, 0
2, 195194, Note_on_c, 0, 65, 0
2, 195198, Note_on_c, 0, 55, 77
2, 195199, Note_on_c, 0, 65, 88
2, 195202, Note_on_c, 0, 52, 0
2, 195202, Note_on_c, 0, 64, 0
2, 195208, Note_on_c, 0, 64, 71
2, 195208, Note_on_c, 0, 52, 74
2, 195330, Control_c, 0, 64, 0
2, 195331, Note_on_c, 0, 65, 0
2, 195331, Note_on_c, 0, 48, 0
2, 195331, Note_on_c, 0, 52, 0
2, 195332, Note_on_c, 0, 64, 0
2, 195333, Note_on_c, 0, 69, 0
2, 195333, Note_on_c, 0, 55, 0
2, 195348, Note_on_c, 0, 53, 0
2, 195348, Note_on_c, 0, 57, 0
2, 195348, Note_on_c, 0, 67, 0
2, 195356, Note_on_c, 0, 36, 0
2, 195358, Note_on_c, 0, 67, 101
2, 195358, Note_on_c, 0, 76, 111
2, 195361, Note_on_c, 0, 38, 101
2, 195367, Note_on_c, 0, 50, 107
2, 195394, Control_c, 0, 64, 127
2, 195514, Note_on_c, 0, 77, 110
2, 195528, Note_on_c, 0, 69, 101
2, 195671, Note_on_c, 0, 67, 0
2, 195680, Note_on_c, 0, 67, 98
2, 195691, Note_on_c, 0, 53, 90
2, 195696, Note_on_c, 0, 57, 96
2, 195832, Note_on_c, 0, 50, 0
2, 195841, Note_on_c, 0, 50, 79
2, 195848, Note_on_c, 0, 65, 91
2, 195958, Control_c, 0, 64, 0
2, 195966, Note_on_c, 0, 50, 0
2, 195967, Note_on_c, 0, 77, 0
2, 195968, Note_on_c, 0, 76, 0
2, 195968, Note_on_c, 0, 67, 0
2, 195968, Note_on_c, 0, 69, 0
2, 195969, Note_on_c, 0, 53, 0
2, 195971, Note_on_c, 0, 65, 0
2, 195993, Note_on_c, 0, 38, 0
2, 195997, Note_on_c, 0, 33, 100
2, 195997, Note_on_c, 0, 45, 102
2, 196001, Note_on_c, 0, 57, 0
2, 196002, Note_on_c, 0, 64, 100
2, 196009, Note_on_c, 0, 57, 82
2, 196024, Control_c, 0, 64, 127
2, 196165, Note_on_c, 0, 65, 97
2, 196331, Note_on_c, 0, 64, 0
2, 196333, Note_on_c, 0, 52, 97
2, 196334, Note_on_c, 0, 60, 110
2, 196335, Note_on_c, 0, 55, 93
2, 196335, Note_on_c, 0, 72, 107
2, 196341, Note_on_c, 0, 64, 96
2, 196348, Note_on_c, 0, 67, 89
2, 196454, Note_on_c, 0, 33, 0
2, 196454, Note_on_c, 0, 45, 0
2, 196463, Note_on_c, 0, 45, 98
2, 196465, Note_on_c, 0, 33, 81
2, 196506, Note_on_c, 0, 62, 99
2, 196577, Note_on_c, 0, 65, 0
2, 196583, Note_on_c, 0, 65, 96
2, 196619, Note_on_c, 0, 70, 106
2, 196635, Note_on_c, 0, 74, 110
2, 196649, Note_on_c, 0, 46, 112
2, 196650, Note_on_c, 0, 34, 109
2, 196665, Note_on_c, 0, 64, 0
2, 196665, Note_on_c, 0, 55, 0
2, 196665, Note_on_c, 0, 67, 0
2, 196665, Note_on_c, 0, 60, 0
2, 196666, Note_on_c, 0, 52, 0
2, 196666, Note_on_c, 0, 72, 0
2, 196666, Note_on_c, 0, 62, 0
2, 196667, Note_on_c, 0, 33, 0
2, 196667, Note_on_c, 0, 70, 0
2, 196667, Note_on_c, 0, 57, 0
2, 196674, Control_c, 0, 64, 0
2, 196684, Note_on_c, 0, 45, 0
2, 196692, Note_on_c, 0, 65, 0
2, 196695, Note_on_c, 0, 46, 0
2, 196696, Note_on_c, 0, 34, 0
2, 196700, Note_on_c, 0, 74, 0
2, 196972, Note_on_c, 0, 98, 112
2, 196973, Note_on_c, 0, 89, 108
2, 196974, Note_on_c, 0, 86, 110
2, 196979, Note_on_c, 0, 46, 108
2, 196980, Note_on_c, 0, 34, 94
2, 196992, Note_on_c, 0, 34, 0
2, 197007, Control_c, 0, 64, 127
2, 197132, Note_on_c, 0, 34, 102
2, 197207, Note_on_c, 0, 46, 0
2, 197209, Control_c, 0, 64, 0
2, 197209, Note_on_c, 0, 34, 0
2, 197210, Note_on_c, 0, 89, 0
2, 197214, Note_on_c, 0, 98, 0
2, 197214, Note_on_c, 0, 86, 0
2, 197300, Note_on_c, 0, 62, 108
2, 197302, Note_on_c, 0, 65, 104
2, 197302, Note_on_c, 0, 74, 112
2, 197305, Note_on_c, 0, 48, 107
2, 197309, Note_on_c, 0, 36, 97
2, 197314, Control_c, 0, 64, 127
2, 197406, Note_on_c, 0, 62, 0
2, 197414, Note_on_c, 0, 65, 0
2, 197417, Note_on_c, 0, 48, 0
2, 197418, Note_on_c, 0, 74, 0
2, 197420, Control_c, 0, 64, 0
2, 197429, Note_on_c, 0, 36, 0
2, 197617, Note_on_c, 0, 89, 110
2, 197618, Note_on_c, 0, 86, 111
2, 197620, Note_on_c, 0, 98, 114
2, 197625, Note_on_c, 0, 48, 106
2, 197634, Note_on_c, 0, 91, 83
2, 197634, Note_on_c, 0, 95, 80
2, 197644, Control_c, 0, 64, 127
2, 197654, Note_on_c, 0, 88, 71
2, 197767, Note_on_c, 0, 48, 0
2, 197775, Note_on_c, 0, 36, 101
2, 197777, Note_on_c, 0, 48, 89
2, 197783, Note_on_c, 0, 95, 0
2, 197838, Note_on_c, 0, 48, 0
2, 197838, Note_on_c, 0, 98, 0
2, 197841, Control_c, 0, 64, 0
2, 197841, Note_on_c, 0, 36, 0
2, 197845, Note_on_c, 0, 86, 0
2, 197846, Note_on_c, 0, 89, 0
2, 197852, Note_on_c, 0, 88, 0
2, 197852, Note_on_c, 0, 91, 0
2, 197926, Note_on_c, 0, 74, 112
2, 197926, Note_on_c, 0, 50, 108
2, 197927, Note_on_c, 0, 65, 103
2, 197928, Note_on_c, 0, 62, 105
2, 197931, Note_on_c, 0, 38, 105
2, 197932, Note_on_c, 0, 69, 96
2, 197933, Note_on_c, 0, 45, 106
2, 197936, Note_on_c, 0, 69, 0
2, 197952, Control_c, 0, 64, 127
2, 198104, Note_on_c, 0, 98, 114
2, 198107, Note_on_c, 0, 86, 111
2, 198109, Note_on_c, 0, 89, 107
2, 198128, Note_on_c, 0, 62, 0
2, 198131, Control_c, 0, 64, 0
2, 198136, Note_on_c, 0, 86, 0
2, 198136, Note_on_c, 0, 65, 0
2, 198136, Note_on_c, 0, 74, 0
2, 198140, Note_on_c, 0, 89, 0
2, 198144, Note_on_c, 0, 38, 0
2, 198144, Note_on_c, 0, 45, 0
2, 198144, Note_on_c, 0, 50, 0
2, 198228, Note_on_c, 0, 98, 0
2, 198263, Note_on_c, 0, 98, 116
2, 198264, Note_on_c, 0, 86, 114
2, 198273, Note_on_c, 0, 89, 103
2, 198301, Note_on_c, 0, 86, 0
2, 198305, Control_c, 0, 64, 127
2, 198412, Note_on_c, 0, 98, 0
2, 198419, Note_on_c, 0, 98, 110
2, 198420, Note_on_c, 0, 86, 109
2, 198420, Note_on_c, 0, 89, 0
2, 198431, Note_on_c, 0, 89, 100
2, 198474, Note_on_c, 0, 86, 0
2, 198504, Note_on_c, 0, 98, 0
2, 198528, Note_on_c, 0, 89, 0
2, 198576, Note_on_c, 0, 98, 116
2, 198576, Note_on_c, 0, 86, 113
2, 198584, Note_on_c, 0, 89, 104
2, 198730, Note_on_c, 0, 38, 102
2, 198731, Note_on_c, 0, 26, 101
2, 198883, Note_on_c, 0, 28, 97
2, 198883, Note_on_c, 0, 40, 94
2, 198886, Note_on_c, 0, 41, 99
2, 198888, Note_on_c, 0, 28, 0
2, 198888, Note_on_c, 0, 40, 0
2, 198889, Note_on_c, 0, 31, 96
2, 198918, Note_on_c, 0, 35, 80
2, 198975, Note_on_c, 0, 36, 82
2, 198981, Note_on_c, 0, 38, 0
2, 198989, Note_on_c, 0, 38, 86
2, 199153, Control_c, 0, 64, 0
2, 199156, Note_on_c, 0, 98, 0
2, 199158, Note_on_c, 0, 41, 0
2, 199158, Note_on_c, 0, 86, 0
2, 199159, Note_on_c, 0, 31, 0
2, 199160, Note_on_c, 0, 36, 0
2, 199160, Note_on_c, 0, 89, 0
2, 199160, Note_on_c, 0, 35, 0
2, 199160, Note_on_c, 0, 38, 0
2, 199180, Note_on_c, 0, 26, 0
2, 199217, Note_on_c, 0, 73, 113
2, 199227, Note_on_c, 0, 68, 107
2, 199228, Note_on_c, 0, 71, 91
2, 199229, Note_on_c, 0, 61, 106
2, 199229, Note_on_c, 0, 65, 93
2, 199229, Note_on_c, 0, 64, 92
2, 199230, Note_on_c, 0, 37, 102
2, 199230, Note_on_c, 0, 25, 94
2, 199234, Note_on_c, 0, 65, 0
2, 199272, Control_c, 0, 64, 127
2, 199541, Note_on_c, 0, 64, 0
2, 199545, Note_on_c, 0, 64, 77
2, 199546, Note_on_c, 0, 72, 87
2, 199864, Note_on_c, 0, 73, 0
2, 199873, Note_on_c, 0, 73, 99
2, 199875, Note_on_c, 0, 65, 70
2, 199876, Note_on_c, 0, 63, 86
2, 200017, Note_on_c, 0, 73, 0
2, 200027, Note_on_c, 0, 73, 81
2, 200186, Note_on_c, 0, 72, 0
2, 200198, Note_on_c, 0, 72, 74
2, 200202, Note_on_c, 0, 64, 0
2, 200202, Note_on_c, 0, 65, 0
2, 200206, Note_on_c, 0, 64, 64
2, 200211, Note_on_c, 0, 65, 53
2, 200363, Note_on_c, 0, 72, 0
2, 200371, Note_on_c, 0, 64, 0
2, 200374, Note_on_c, 0, 72, 56
2, 200379, Note_on_c, 0, 64, 53
2, 200524, Note_on_c, 0, 73, 0
2, 200532, Note_on_c, 0, 63, 0
2, 200532, Note_on_c, 0, 65, 0
2, 200535, Note_on_c, 0, 73, 98
2, 200543, Note_on_c, 0, 63, 68
2, 200543, Note_on_c, 0, 65, 55
2, 200693, Note_on_c, 0, 73, 0
2, 200701, Note_on_c, 0, 73, 77
2, 200701, Note_on_c, 0, 65, 0
2, 200706, Note_on_c, 0, 65, 51
2, 200855, Note_on_c, 0, 64, 0
2, 200855, Note_on_c, 0, 72, 0
2, 200860, Note_on_c, 0, 64, 72
2, 200860, Note_on_c, 0, 72, 80
2, 201016, Note_on_c, 0, 72, 0
2, 201027, Note_on_c, 0, 72, 66
2, 201031, Note_on_c, 0, 64, 0
2, 201035, Note_on_c, 0, 64, 62
2, 201177, Note_on_c, 0, 63, 0
2, 201177, Note_on_c, 0, 73, 0
2, 201181, Note_on_c, 0, 56, 103
2, 201182, Note_on_c, 0, 44, 100
2, 201182, Note_on_c, 0, 73, 106
2, 201185, Note_on_c, 0, 68, 0
2, 201189, Note_on_c, 0, 63, 95
2, 201189, Note_on_c, 0, 68, 86
2, 201331, Note_on_c, 0, 73, 0
2, 201335, Note_on_c, 0, 73, 82
2, 201346, Note_on_c, 0, 63, 0
2, 201350, Note_on_c, 0, 63, 53
2, 201507, Note_on_c, 0, 72, 0
2, 201511, Note_on_c, 0, 72, 77
2, 201523, Note_on_c, 0, 64, 0
2, 201527, Note_on_c, 0, 64, 60
2, 201600, Note_on_c, 0, 25, 0
2, 201600, Note_on_c, 0, 37, 0
2, 201600, Note_on_c, 0, 61, 0
2, 201600, Note_on_c, 0, 71, 0
2, 201676, Note_on_c, 0, 65, 0
2, 201680, Note_on_c, 0, 25, 89
2, 201683, Note_on_c, 0, 37, 86
2, 201687, Note_on_c, 0, 65, 63
2, 201833, Control_c, 0, 64, 0
2, 201833, Note_on_c, 0, 56, 0
2, 201833, Note_on_c, 0, 37, 0
2, 201833, Note_on_c, 0, 44, 0
2, 201834, Note_on_c, 0, 72, 0
2, 201834, Note_on_c, 0, 64, 0
2, 201834, Note_on_c, 0, 25, 0
2, 201838, Note_on_c, 0, 73, 0
2, 201842, Note_on_c, 0, 73, 110
2, 201845, Note_on_c, 0, 63, 0
2, 201845, Note_on_c, 0, 68, 0
2, 201850, Note_on_c, 0, 63, 94
2, 201853, Note_on_c, 0, 65, 0
2, 201854, Note_on_c, 0, 68, 78
2, 201899, Control_c, 0, 64, 127
2, 201991, Note_on_c, 0, 73, 0
2, 202002, Note_on_c, 0, 73, 88
2, 202175, Note_on_c, 0, 64, 77
2, 202177, Note_on_c, 0, 72, 77
2, 202321, Note_on_c, 0, 72, 0
2, 202333, Note_on_c, 0, 72, 68
2, 202344, Note_on_c, 0, 64, 0
2, 202354, Note_on_c, 0, 64, 62
2, 202359, Note_on_c, 0, 65, 44
2, 202490, Note_on_c, 0, 73, 0
2, 202498, Note_on_c, 0, 63, 0
2, 202498, Note_on_c, 0, 65, 0
2, 202502, Note_on_c, 0, 73, 98
2, 202502, Note_on_c, 0, 65, 66
2, 202503, Note_on_c, 0, 63, 82
2, 202652, Note_on_c, 0, 73, 0
2, 202656, Note_on_c, 0, 73, 87
2, 202659, Note_on_c, 0, 63, 0
2, 202670, Note_on_c, 0, 63, 73
2, 202821, Note_on_c, 0, 64, 0
2, 202821, Note_on_c, 0, 72, 0
2, 202828, Note_on_c, 0, 68, 0
2, 202829, Note_on_c, 0, 72, 84
2, 202831, Note_on_c, 0, 64, 70
2, 202838, Note_on_c, 0, 68, 44
2, 202982, Note_on_c, 0, 72, 0
2, 202989, Note_on_c, 0, 72, 71
2, 202997, Note_on_c, 0, 64, 0
2, 203003, Note_on_c, 0, 64, 57
2, 203136, Note_on_c, 0, 63, 0
2, 203136, Note_on_c, 0, 73, 0
2, 203140, Note_on_c, 0, 73, 105
2, 203143, Note_on_c, 0, 68, 0
2, 203145, Note_on_c, 0, 63, 99
2, 203145, Note_on_c, 0, 44, 108
2, 203147, Note_on_c, 0, 56, 107
2, 203148, Note_on_c, 0, 68, 90
2, 203156, Control_c, 0, 64, 0
2, 203182, Control_c, 0, 64, 127
2, 203289, Note_on_c, 0, 73, 0
2, 203296, Note_on_c, 0, 73, 69
2, 203304, Note_on_c, 0, 63, 0
2, 203310, Note_on_c, 0, 63, 68
2, 203466, Note_on_c, 0, 72, 0
2, 203473, Note_on_c, 0, 64, 0
2, 203476, Note_on_c, 0, 72, 86
2, 203478, Note_on_c, 0, 64, 77
2, 203619, Note_on_c, 0, 72, 0
2, 203629, Note_on_c, 0, 72, 84
2, 203635, Note_on_c, 0, 64, 0
2, 203644, Note_on_c, 0, 64, 68
2, 203788, Note_on_c, 0, 65, 0
2, 203795, Note_on_c, 0, 92, 113
2, 203796, Note_on_c, 0, 73, 0
2, 203801, Note_on_c, 0, 73, 110
2, 203804, Note_on_c, 0, 63, 0
2, 203808, Note_on_c, 0, 80, 105
2, 203809, Note_on_c, 0, 63, 84
2, 203811, Note_on_c, 0, 66, 71
2, 203814, Control_c, 0, 64, 0
2, 203822, Note_on_c, 0, 64, 0
2, 203822, Note_on_c, 0, 56, 0
2, 203822, Note_on_c, 0, 72, 0
2, 203823, Note_on_c, 0, 44, 0
2, 203857, Control_c, 0, 64, 127
2, 203880, Note_on_c, 0, 68, 0
2, 203950, Note_on_c, 0, 73, 0
2, 203959, Note_on_c, 0, 73, 89
2, 203965, Note_on_c, 0, 63, 0
2, 203969, Note_on_c, 0, 63, 82
2, 204123, Note_on_c, 0, 72, 92
2, 204123, Note_on_c, 0, 64, 94
2, 204263, Note_on_c, 0, 25, 96
2, 204266, Note_on_c, 0, 37, 96
2, 204272, Note_on_c, 0, 37, 0
2, 204336, Note_on_c, 0, 37, 35
2, 204441, Note_on_c, 0, 25, 0
2, 204441, Note_on_c, 0, 73, 0
2, 204448, Note_on_c, 0, 73, 112
2, 204449, Note_on_c, 0, 63, 0
2, 204451, Note_on_c, 0, 25, 88
2, 204453, Note_on_c, 0, 63, 91
2, 204461, Control_c, 0, 64, 0
2, 204495, Control_c, 0, 64, 127
2, 204503, Note_on_c, 0, 92, 0
2, 204595, Note_on_c, 0, 73, 0
2, 204602, Note_on_c, 0, 63, 0
2, 204604, Note_on_c, 0, 73, 100
2, 204612, Note_on_c, 0, 63, 75
2, 204771, Note_on_c, 0, 64, 0
2, 204771, Note_on_c, 0, 72, 0
2, 204776, Note_on_c, 0, 72, 94
2, 204777, Note_on_c, 0, 64, 89
2, 204779, Note_on_c, 0, 80, 0
2, 204917, Note_on_c, 0, 72, 0
2, 204927, Note_on_c, 0, 72, 87
2, 204948, Note_on_c, 0, 64, 0
2, 204953, Note_on_c, 0, 64, 69
2, 205086, Note_on_c, 0, 63, 0
2, 205086, Note_on_c, 0, 73, 0
2, 205091, Note_on_c, 0, 73, 113
2, 205097, Note_on_c, 0, 63, 87
2, 205248, Note_on_c, 0, 63, 0
2, 205248, Note_on_c, 0, 73, 0
2, 205255, Note_on_c, 0, 73, 87
2, 205259, Note_on_c, 0, 63, 66
2, 205416, Note_on_c, 0, 64, 0
2, 205416, Note_on_c, 0, 72, 0
2, 205422, Note_on_c, 0, 64, 98
2, 205427, Note_on_c, 0, 72, 100
2, 205570, Note_on_c, 0, 72, 0
2, 205575, Note_on_c, 0, 72, 98
2, 205578, Note_on_c, 0, 64, 0
2, 205583, Note_on_c, 0, 64, 82
2, 205716, Note_on_c, 0, 25, 0
2, 205731, Note_on_c, 0, 73, 0
2, 205739, Note_on_c, 0, 63, 0
2, 205742, Note_on_c, 0, 73, 111
2, 205742, Note_on_c, 0, 44, 111
2, 205743, Note_on_c, 0, 56, 115
2, 205745, Note_on_c, 0, 68, 103
2, 205746, Note_on_c, 0, 63, 100
2, 205749, Note_on_c, 0, 80, 101
2, 205759, Control_c, 0, 64, 0
2, 205766, Note_on_c, 0, 64, 0
2, 205780, Note_on_c, 0, 46, 43
2, 205793, Note_on_c, 0, 66, 0
2, 205800, Note_on_c, 0, 37, 0
2, 205808, Control_c, 0, 64, 127
2, 205816, Note_on_c, 0, 63, 0
2, 205893, Note_on_c, 0, 73, 0
2, 205898, Note_on_c, 0, 73, 93
2, 205900, Note_on_c, 0, 44, 0
2, 205909, Note_on_c, 0, 44, 64
2, 205911, Note_on_c, 0, 63, 82
2, 206062, Note_on_c, 0, 72, 0
2, 206073, Note_on_c, 0, 72, 104
2, 206074, Note_on_c, 0, 64, 95
2, 206208, Note_on_c, 0, 64, 0
2, 206208, Note_on_c, 0, 72, 0
2, 206212, Note_on_c, 0, 72, 98
2, 206219, Note_on_c, 0, 64, 76
2, 206384, Note_on_c, 0, 68, 0
2, 206384, Note_on_c, 0, 73, 0
2, 206384, Note_on_c, 0, 80, 0
2, 206384, Note_on_c, 0, 92, 114
2, 206390, Note_on_c, 0, 80, 112
2, 206390, Note_on_c, 0, 73, 113
2, 206392, Note_on_c, 0, 63, 0
2, 206394, Note_on_c, 0, 68, 87
2, 206396, Note_on_c, 0, 63, 94
2, 206412, Control_c, 0, 64, 0
2, 206415, Note_on_c, 0, 46, 0
2, 206420, Note_on_c, 0, 72, 0
2, 206420, Note_on_c, 0, 64, 0
2, 206420, Note_on_c, 0, 44, 0
2, 206430, Note_on_c, 0, 56, 0
2, 206453, Control_c, 0, 64, 127
2, 206530, Note_on_c, 0, 73, 0
2, 206538, Note_on_c, 0, 63, 0
2, 206539, Note_on_c, 0, 73, 98
2, 206547, Note_on_c, 0, 63, 85
2, 206707, Note_on_c, 0, 64, 103
2, 206708, Note_on_c, 0, 72, 104
2, 206860, Note_on_c, 0, 72, 0
2, 206866, Note_on_c, 0, 72, 108
2, 206868, Note_on_c, 0, 64, 0
2, 206870, Note_on_c, 0, 33, 103
2, 206873, Note_on_c, 0, 45, 105
2, 206875, Note_on_c, 0, 64, 92
2, 206883, Note_on_c, 0, 92, 0
2, 206906, Note_on_c, 0, 63, 0
2, 207022, Note_on_c, 0, 45, 0
2, 207022, Note_on_c, 0, 68, 0
2, 207022, Note_on_c, 0, 73, 0
2, 207027, Note_on_c, 0, 73, 116
2, 207027, Note_on_c, 0, 57, 107
2, 207028, Note_on_c, 0, 85, 116
2, 207031, Note_on_c, 0, 45, 98
2, 207033, Note_on_c, 0, 76, 107
2, 207034, Control_c, 0, 64, 0
2, 207037, Note_on_c, 0, 49, 84
2, 207043, Note_on_c, 0, 52, 75
2, 207045, Note_on_c, 0, 72, 0
2, 207062, Note_on_c, 0, 51, 62
2, 207075, Control_c, 0, 64, 127
2, 207188, Note_on_c, 0, 56, 94
2, 207336, Note_on_c, 0, 85, 0
2, 207341, Note_on_c, 0, 97, 112
2, 207342, Note_on_c, 0, 54, 95
2, 207344, Note_on_c, 0, 88, 108
2, 207347, Note_on_c, 0, 85, 112
2, 207349, Note_on_c, 0, 94, 77
2, 207351, Note_on_c, 0, 82, 93
2, 207498, Note_on_c, 0, 56, 0
2, 207508, Note_on_c, 0, 56, 102
2, 207511, Note_on_c, 0, 44, 92
2, 207598, Note_on_c, 0, 33, 0
2, 207644, Note_on_c, 0, 94, 0
2, 207647, Control_c, 0, 64, 0
2, 207648, Note_on_c, 0, 82, 0
2, 207649, Note_on_c, 0, 88, 0
2, 207650, Note_on_c, 0, 44, 0
2, 207651, Note_on_c, 0, 56, 0
2, 207651, Note_on_c, 0, 80, 0
2, 207651, Note_on_c, 0, 97, 0
2, 207653, Note_on_c, 0, 57, 0
2, 207655, Note_on_c, 0, 64, 0
2, 207659, Note_on_c, 0, 52, 0
2, 207659, Note_on_c, 0, 73, 0
2, 207659, Note_on_c, 0, 76, 0
2, 207667, Note_on_c, 0, 45, 0
2, 207667, Note_on_c, 0, 49, 0
2, 207667, Note_on_c, 0, 51, 0
2, 207667, Note_on_c, 0, 54, 0
2, 207667, Note_on_c, 0, 85, 0
2, 207670, Note_on_c, 0, 73, 115
2, 207671, Note_on_c, 0, 76, 112
2, 207671, Note_on_c, 0, 85, 112
2, 207672, Note_on_c, 0, 54, 96
2, 207676, Note_on_c, 0, 42, 93
2, 207677, Note_on_c, 0, 49, 89
2, 207698, Note_on_c, 0, 82, 72
2, 207705, Control_c, 0, 64, 127
2, 207831, Note_on_c, 0, 52, 95
2, 207982, Note_on_c, 0, 85, 0
2, 207991, Note_on_c, 0, 85, 115
2, 207991, Note_on_c, 0, 97, 116
2, 208000, Note_on_c, 0, 88, 103
2, 208006, Note_on_c, 0, 51, 99
2, 208143, Note_on_c, 0, 52, 0
2, 208153, Note_on_c, 0, 52, 99
2, 208283, Control_c, 0, 64, 0
2, 208285, Note_on_c, 0, 97, 0
2, 208286, Note_on_c, 0, 88, 0
2, 208286, Note_on_c, 0, 42, 0
2, 208289, Note_on_c, 0, 82, 0
2, 208289, Note_on_c, 0, 54, 0
2, 208290, Note_on_c, 0, 49, 0
2, 208290, Note_on_c, 0, 76, 0
2, 208304, Note_on_c, 0, 73, 0
2, 208304, Note_on_c, 0, 85, 0
2, 208311, Note_on_c, 0, 73, 116
2, 208312, Note_on_c, 0, 85, 115
2, 208312, Note_on_c, 0, 51, 0
2, 208312, Note_on_c, 0, 52, 0
2, 208316, Note_on_c, 0, 76, 112
2, 208316, Note_on_c, 0, 44, 101
2, 208317, Note_on_c, 0, 51, 92
2, 208324, Note_on_c, 0, 82, 85
2, 208350, Control_c, 0, 64, 127
2, 208461, Note_on_c, 0, 49, 97
2, 208515, Control_c, 0, 64, 0
2, 208517, Note_on_c, 0, 73, 0
2, 208517, Note_on_c, 0, 44, 0
2, 208518, Note_on_c, 0, 85, 0
2, 208520, Note_on_c, 0, 76, 0
2, 208520, Note_on_c, 0, 49, 0
2, 208522, Note_on_c, 0, 51, 0
2, 208535, Note_on_c, 0, 82, 0
2, 208629, Note_on_c, 0, 97, 117
2, 208630, Note_on_c, 0, 85, 114
2, 208633, Note_on_c, 0, 51, 101
2, 208637, Note_on_c, 0, 44, 96
2, 208638, Note_on_c, 0, 88, 108
2, 208650, Control_c, 0, 64, 127
2, 208790, Note_on_c, 0, 52, 97
2, 208815, Control_c, 0, 64, 0
2, 208821, Note_on_c, 0, 51, 0
2, 208821, Note_on_c, 0, 88, 0
2, 208823, Note_on_c, 0, 97, 0
2, 208824, Note_on_c, 0, 85, 0
2, 208831, Note_on_c, 0, 52, 0
2, 208842, Note_on_c, 0, 44, 0
2, 208944, Note_on_c, 0, 97, 113
2, 208947, Note_on_c, 0, 85, 110
2, 208953, Note_on_c, 0, 88, 95
2, 208953, Note_on_c, 0, 44, 94
2, 208954, Note_on_c, 0, 51, 93
2, 208972, Control_c, 0, 64, 127
2, 209090, Note_on_c, 0, 48, 94
2, 209139, Note_on_c, 0, 48, 0
2, 209139, Note_on_c, 0, 88, 0
2, 209142, Control_c, 0, 64, 0
2, 209143, Note_on_c, 0, 44, 0
2, 209144, Note_on_c, 0, 51, 0
2, 209144, Note_on_c, 0, 97, 0
2, 209145, Note_on_c, 0, 85, 0
2, 209261, Note_on_c, 0, 97, 112
2, 209267, Note_on_c, 0, 85, 110
2, 209274, Note_on_c, 0, 88, 104
2, 209275, Note_on_c, 0, 92, 100
2, 209275, Note_on_c, 0, 25, 99
2, 209275, Note_on_c, 0, 37, 100
2, 209280, Control_c, 0, 64, 127
2, 209472, Note_on_c, 0, 37, 0
2, 209473, Control_c, 0, 64, 0
2, 209541, Note_on_c, 0, 25, 0
2, 210155, Note_on_c, 0, 97, 0
2, 210355, Note_on_c, 0, 92, 0
2, 210370, Note_on_c, 0, 85, 0
2, 210385, Note_on_c, 0, 88, 0
2, 210386, End_track
0, 0, End_of_file
