0, 0, Header, 1, 2, 384
1, 0, Start_track
1, 0, Tempo, 500000
1, 0, Time_signature, 4, 2, 24, 8
1, 1, End_track
2, 0, Start_track
2, 1471, Note_on_c, 0, 42, 58
2, 1472, Note_on_c, 0, 54, 39
2, 1489, Control_c, 0, 64, 127
2, 1544, Note_on_c, 0, 49, 62
2, 1567, Note_on_c, 0, 56, 67
2, 1605, Note_on_c, 0, 58, 70
2, 1665, Note_on_c, 0, 63, 83
2, 2119, Note_on_c, 0, 54, 0
2, 2122, Note_on_c, 0, 65, 74
2, 2123, Note_on_c, 0, 61, 73
2, 2129, Note_on_c, 0, 63, 0
2, 2129, Note_on_c, 0, 56, 0
2, 2130, Control_c, 0, 64, 0
2, 2131, Note_on_c, 0, 58, 0
2, 2150, Note_on_c, 0, 42, 0
2, 2173, Control_c, 0, 64, 127
2, 2296, Note_on_c, 0, 70, 87
2, 2300, Note_on_c, 0, 63, 71
2, 2769, Note_on_c, 0, 72, 91
2, 2790, Note_on_c, 0, 58, 64
2, 2792, Note_on_c, 0, 68, 70
2, 2796, Note_on_c, 0, 63, 0
2, 2797, Note_on_c, 0, 49, 0
2, 2798, Note_on_c, 0, 51, 58
2, 2798, Note_on_c, 0, 61, 0
2, 2798, Note_on_c, 0, 65, 0
2, 2798, Control_c, 0, 64, 0
2, 2798, Note_on_c, 0, 44, 61
2, 2799, Note_on_c, 0, 70, 0
2, 2964, Control_c, 0, 64, 127
2, 3109, Note_on_c, 0, 70, 83
2, 3114, Note_on_c, 0, 65, 67
2, 3409, Note_on_c, 0, 68, 0
2, 3421, Note_on_c, 0, 68, 82
2, 3423, Note_on_c, 0, 63, 68
2, 3717, Note_on_c, 0, 65, 0
2, 3724, Note_on_c, 0, 65, 78
2, 3745, Note_on_c, 0, 60, 66
2, 4032, Note_on_c, 0, 70, 0
2, 4039, Note_on_c, 0, 65, 0
2, 4042, Note_on_c, 0, 70, 86
2, 4044, Note_on_c, 0, 65, 59
2, 4047, Note_on_c, 0, 51, 0
2, 4049, Note_on_c, 0, 44, 0
2, 4049, Note_on_c, 0, 60, 0
2, 4049, Note_on_c, 0, 68, 0
2, 4050, Note_on_c, 0, 72, 0
2, 4051, Control_c, 0, 64, 0
2, 4051, Note_on_c, 0, 46, 61
2, 4055, Note_on_c, 0, 58, 0
2, 4059, Note_on_c, 0, 58, 58
2, 4070, Note_on_c, 0, 63, 0
2, 4078, Note_on_c, 0, 63, 51
2, 4131, Control_c, 0, 64, 127
2, 4366, Note_on_c, 0, 53, 46
2, 4515, Note_on_c, 0, 58, 0
2, 4526, Note_on_c, 0, 58, 64
2, 4661, Note_on_c, 0, 60, 61
2, 4792, Note_on_c, 0, 63, 0
2, 4801, Note_on_c, 0, 63, 67
2, 4953, Note_on_c, 0, 65, 0
2, 4963, Note_on_c, 0, 65, 64
2, 5091, Note_on_c, 0, 70, 0
2, 5101, Note_on_c, 0, 70, 77
2, 5250, Note_on_c, 0, 72, 70
2, 5433, Note_on_c, 0, 94, 85
2, 5439, Note_on_c, 0, 75, 77
2, 5449, Note_on_c, 0, 82, 66
2, 5463, Note_on_c, 0, 77, 60
2, 6039, Note_on_c, 0, 58, 0
2, 6236, Note_on_c, 0, 46, 0
2, 6241, Note_on_c, 0, 46, 30
2, 6701, Note_on_c, 0, 30, 72
2, 6706, Note_on_c, 0, 42, 69
2, 6766, Note_on_c, 0, 42, 0
2, 6772, Note_on_c, 0, 42, 84
2, 6773, Note_on_c, 0, 63, 0
2, 6777, Note_on_c, 0, 63, 84
2, 6778, Control_c, 0, 64, 0
2, 6790, Note_on_c, 0, 82, 0
2, 6790, Note_on_c, 0, 72, 0
2, 6791, Note_on_c, 0, 77, 0
2, 6791, Note_on_c, 0, 60, 0
2, 6792, Note_on_c, 0, 46, 0
2, 6792, Note_on_c, 0, 53, 0
2, 6792, Note_on_c, 0, 94, 0
2, 6792, Note_on_c, 0, 65, 0
2, 6810, Note_on_c, 0, 66, 62
2, 6819, Note_on_c, 0, 70, 0
2, 6827, Note_on_c, 0, 75, 0
2, 6831, Note_on_c, 0, 70, 96
2, 6842, Note_on_c, 0, 30, 0
2, 6850, Note_on_c, 0, 42, 0
2, 6865, Note_on_c, 0, 75, 96
2, 6881, Control_c, 0, 64, 127
2, 7272, Note_on_c, 0, 63, 0
2, 7303, Note_on_c, 0, 70, 0
2, 7307, Note_on_c, 0, 77, 96
2, 7308, Note_on_c, 0, 65, 74
2, 7309, Note_on_c, 0, 70, 92
2, 7464, Note_on_c, 0, 70, 0
2, 7464, Note_on_c, 0, 75, 0
2, 7468, Note_on_c, 0, 82, 105
2, 7471, Note_on_c, 0, 75, 94
2, 7475, Note_on_c, 0, 63, 85
2, 7476, Note_on_c, 0, 70, 89
2, 7481, Note_on_c, 0, 58, 82
2, 7483, Note_on_c, 0, 54, 69
2, 7944, Control_c, 0, 64, 0
2, 7945, Note_on_c, 0, 63, 0
2, 7946, Note_on_c, 0, 54, 0
2, 7946, Note_on_c, 0, 65, 0
2, 7946, Note_on_c, 0, 77, 0
2, 7946, Note_on_c, 0, 58, 0
2, 7947, Note_on_c, 0, 82, 0
2, 7947, Note_on_c, 0, 70, 0
2, 7947, Note_on_c, 0, 66, 0
2, 7948, Note_on_c, 0, 75, 0
2, 7952, Note_on_c, 0, 84, 103
2, 7957, Note_on_c, 0, 80, 94
2, 7957, Note_on_c, 0, 44, 80
2, 7958, Note_on_c, 0, 72, 96
2, 7958, Note_on_c, 0, 32, 74
2, 7959, Note_on_c, 0, 75, 96
2, 8025, Control_c, 0, 64, 127
2, 8071, Note_on_c, 0, 32, 0
2, 8263, Note_on_c, 0, 75, 0
2, 8268, Note_on_c, 0, 82, 99
2, 8270, Note_on_c, 0, 56, 63
2, 8275, Note_on_c, 0, 75, 91
2, 8276, Note_on_c, 0, 70, 85
2, 8563, Note_on_c, 0, 56, 0
2, 8563, Note_on_c, 0, 72, 0
2, 8563, Note_on_c, 0, 75, 0
2, 8563, Note_on_c, 0, 80, 0
2, 8568, Note_on_c, 0, 75, 88
2, 8568, Note_on_c, 0, 80, 96
2, 8573, Note_on_c, 0, 68, 87
2, 8573, Note_on_c, 0, 72, 84
2, 8573, Note_on_c, 0, 65, 73
2, 8573, Note_on_c, 0, 56, 72
2, 8575, Note_on_c, 0, 60, 67
2, 8870, Note_on_c, 0, 65, 0
2, 8870, Note_on_c, 0, 70, 0
2, 8874, Note_on_c, 0, 77, 94
2, 8874, Note_on_c, 0, 70, 89
2, 8881, Note_on_c, 0, 65, 71
2, 9144, Control_c, 0, 64, 0
2, 9149, Note_on_c, 0, 75, 0
2, 9149, Note_on_c, 0, 77, 0
2, 9149, Note_on_c, 0, 56, 0
2, 9149, Note_on_c, 0, 82, 0
2, 9149, Note_on_c, 0, 80, 0
2, 9149, Note_on_c, 0, 68, 0
2, 9149, Note_on_c, 0, 70, 0
2, 9149, Note_on_c, 0, 84, 0
2, 9149, Note_on_c, 0, 60, 0
2, 9149, Note_on_c, 0, 65, 0
2, 9149, Note_on_c, 0, 72, 0
2, 9162, Note_on_c, 0, 44, 0
2, 9179, Note_on_c, 0, 81, 108
2, 9181, Note_on_c, 0, 69, 92
2, 9182, Note_on_c, 0, 76, 96
2, 9182, Note_on_c, 0, 73, 98
2, 9182, Note_on_c, 0, 45, 84
2, 9182, Note_on_c, 0, 33, 77
2, 9213, Note_on_c, 0, 33, 0
2, 9216, Control_c, 0, 64, 127
2, 9239, Note_on_c, 0, 45, 0
2, 9478, Note_on_c, 0, 45, 60
2, 9478, Note_on_c, 0, 57, 68
2, 9542, Note_on_c, 0, 59, 73
2, 9582, Note_on_c, 0, 61, 71
2, 9627, Note_on_c, 0, 63, 71
2, 9635, Note_on_c, 0, 52, 70
2, 9679, Note_on_c, 0, 64, 82
2, 9732, Note_on_c, 0, 66, 79
2, 9745, Note_on_c, 0, 45, 0
2, 9756, Note_on_c, 0, 45, 69
2, 9788, Note_on_c, 0, 68, 89
2, 9799, Note_on_c, 0, 81, 0
2, 9853, Note_on_c, 0, 69, 0
2, 9858, Note_on_c, 0, 69, 80
2, 9891, Note_on_c, 0, 52, 0
2, 9891, Note_on_c, 0, 61, 0
2, 9902, Note_on_c, 0, 61, 89
2, 9902, Note_on_c, 0, 52, 85
2, 9904, Note_on_c, 0, 71, 85
2, 9945, Note_on_c, 0, 73, 0
2, 9954, Note_on_c, 0, 73, 88
2, 9987, Note_on_c, 0, 75, 59
2, 10037, Note_on_c, 0, 76, 0
2, 10045, Note_on_c, 0, 76, 85
2, 10097, Note_on_c, 0, 78, 84
2, 10136, Note_on_c, 0, 80, 71
2, 10189, Note_on_c, 0, 81, 89
2, 10315, Control_c, 0, 64, 0
2, 10316, Note_on_c, 0, 52, 0
2, 10317, Note_on_c, 0, 45, 0
2, 10317, Note_on_c, 0, 81, 0
2, 10317, Note_on_c, 0, 57, 0
2, 10317, Note_on_c, 0, 69, 0
2, 10317, Note_on_c, 0, 61, 0
2, 10317, Note_on_c, 0, 63, 0
2, 10317, Note_on_c, 0, 59, 0
2, 10317, Note_on_c, 0, 64, 0
2, 10318, Note_on_c, 0, 80, 0
2, 10318, Note_on_c, 0, 68, 0
2, 10318, Note_on_c, 0, 75, 0
2, 10318, Note_on_c, 0, 66, 0
2, 10318, Note_on_c, 0, 76, 0
2, 10318, Note_on_c, 0, 78, 0
2, 10318, Note_on_c, 0, 71, 0
2, 10329, Note_on_c, 0, 73, 0
2, 10356, Note_on_c, 0, 83, 106
2, 10357, Note_on_c, 0, 47, 92
2, 10360, Note_on_c, 0, 35, 85
2, 10363, Note_on_c, 0, 78, 103
2, 10363, Note_on_c, 0, 71, 102
2, 10363, Note_on_c, 0, 75, 101
2, 10391, Control_c, 0, 64, 127
2, 10421, Note_on_c, 0, 47, 0
2, 10647, Note_on_c, 0, 47, 76
2, 10648, Note_on_c, 0, 59, 72
2, 10654, Note_on_c, 0, 54, 66
2, 10685, Note_on_c, 0, 61, 66
2, 10739, Note_on_c, 0, 63, 78
2, 10790, Note_on_c, 0, 54, 0
2, 10796, Note_on_c, 0, 65, 79
2, 10800, Note_on_c, 0, 54, 72
2, 10862, Note_on_c, 0, 66, 76
2, 10910, Note_on_c, 0, 68, 82
2, 10928, Note_on_c, 0, 47, 0
2, 10938, Note_on_c, 0, 47, 64
2, 10958, Note_on_c, 0, 70, 80
2, 11019, Note_on_c, 0, 72, 72
2, 11074, Note_on_c, 0, 54, 0
2, 11074, Note_on_c, 0, 59, 0
2, 11074, Note_on_c, 0, 63, 0
2, 11081, Note_on_c, 0, 63, 95
2, 11082, Note_on_c, 0, 47, 0
2, 11083, Note_on_c, 0, 54, 90
2, 11084, Note_on_c, 0, 59, 72
2, 11086, Note_on_c, 0, 47, 66
2, 11088, Note_on_c, 0, 74, 64
2, 11097, Note_on_c, 0, 74, 0
2, 11176, Note_on_c, 0, 77, 71
2, 11235, Note_on_c, 0, 78, 0
2, 11242, Note_on_c, 0, 78, 88
2, 11278, Note_on_c, 0, 80, 82
2, 11308, Note_on_c, 0, 82, 75
2, 11351, Note_on_c, 0, 83, 0
2, 11355, Note_on_c, 0, 83, 99
2, 11497, Note_on_c, 0, 47, 0
2, 11498, Note_on_c, 0, 59, 0
2, 11499, Note_on_c, 0, 54, 0
2, 11499, Note_on_c, 0, 68, 0
2, 11499, Note_on_c, 0, 61, 0
2, 11499, Note_on_c, 0, 65, 0
2, 11499, Note_on_c, 0, 63, 0
2, 11499, Note_on_c, 0, 80, 0
2, 11500, Control_c, 0, 64, 0
2, 11500, Note_on_c, 0, 70, 0
2, 11500, Note_on_c, 0, 72, 0
2, 11500, Note_on_c, 0, 71, 0
2, 11500, Note_on_c, 0, 75, 0
2, 11500, Note_on_c, 0, 66, 0
2, 11500, Note_on_c, 0, 78, 0
2, 11500, Note_on_c, 0, 82, 0
2, 11500, Note_on_c, 0, 83, 0
2, 11500, Note_on_c, 0, 77, 0
2, 11504, Note_on_c, 0, 35, 0
2, 11540, Note_on_c, 0, 85, 111
2, 11546, Note_on_c, 0, 80, 91
2, 11546, Note_on_c, 0, 37, 70
2, 11547, Note_on_c, 0, 49, 80
2, 11548, Note_on_c, 0, 77, 90
2, 11548, Note_on_c, 0, 73, 94
2, 11566, Control_c, 0, 64, 127
2, 11822, Note_on_c, 0, 44, 56
2, 11850, Note_on_c, 0, 49, 0
2, 11861, Note_on_c, 0, 49, 44
2, 11895, Note_on_c, 0, 53, 59
2, 11904, Note_on_c, 0, 73, 0
2, 11939, Note_on_c, 0, 56, 65
2, 11996, Note_on_c, 0, 63, 69
2, 12060, Note_on_c, 0, 61, 65
2, 12096, Note_on_c, 0, 56, 0
2, 12107, Note_on_c, 0, 56, 69
2, 12111, Note_on_c, 0, 80, 0
2, 12111, Note_on_c, 0, 85, 0
2, 12142, Note_on_c, 0, 53, 0
2, 12146, Note_on_c, 0, 53, 70
2, 12192, Note_on_c, 0, 51, 60
2, 12249, Note_on_c, 0, 49, 0
2, 12256, Note_on_c, 0, 49, 74
2, 12309, Note_on_c, 0, 59, 55
2, 12318, Note_on_c, 0, 59, 0
2, 12368, Note_on_c, 0, 65, 53
2, 12401, Note_on_c, 0, 68, 85
2, 12449, Note_on_c, 0, 65, 0
2, 12459, Note_on_c, 0, 65, 75
2, 12510, Note_on_c, 0, 63, 0
2, 12514, Note_on_c, 0, 63, 80
2, 12549, Note_on_c, 0, 61, 0
2, 12558, Note_on_c, 0, 61, 72
2, 12579, Note_on_c, 0, 56, 0
2, 12590, Note_on_c, 0, 56, 69
2, 12672, Note_on_c, 0, 53, 0
2, 12683, Note_on_c, 0, 53, 80
2, 12836, Note_on_c, 0, 75, 88
2, 12890, Note_on_c, 0, 73, 84
2, 12933, Note_on_c, 0, 68, 0
2, 12937, Note_on_c, 0, 68, 87
2, 13002, Note_on_c, 0, 63, 0
2, 13002, Note_on_c, 0, 65, 0
2, 13006, Note_on_c, 0, 65, 67
2, 13013, Note_on_c, 0, 63, 64
2, 13102, Note_on_c, 0, 61, 0
2, 13106, Note_on_c, 0, 61, 89
2, 13243, Note_on_c, 0, 80, 92
2, 13278, Note_on_c, 0, 77, 0
2, 13283, Note_on_c, 0, 77, 80
2, 13332, Note_on_c, 0, 75, 0
2, 13342, Note_on_c, 0, 75, 94
2, 13370, Note_on_c, 0, 68, 0
2, 13370, Note_on_c, 0, 73, 0
2, 13376, Note_on_c, 0, 73, 69
2, 13380, Note_on_c, 0, 68, 75
2, 13447, Note_on_c, 0, 65, 0
2, 13456, Note_on_c, 0, 65, 69
2, 13555, Note_on_c, 0, 77, 0
2, 13566, Note_on_c, 0, 77, 76
2, 13608, Note_on_c, 0, 80, 0
2, 13617, Note_on_c, 0, 80, 83
2, 13672, Note_on_c, 0, 85, 95
2, 13707, Note_on_c, 0, 87, 53
2, 13716, Note_on_c, 0, 87, 0
2, 13779, Note_on_c, 0, 89, 74
2, 13823, Note_on_c, 0, 92, 97
2, 13880, Note_on_c, 0, 97, 100
2, 13932, Note_on_c, 0, 99, 85
2, 13978, Note_on_c, 0, 101, 107
2, 14023, Note_on_c, 0, 99, 0
2, 14031, Note_on_c, 0, 99, 73
2, 14054, Note_on_c, 0, 97, 0
2, 14063, Note_on_c, 0, 97, 86
2, 14092, Note_on_c, 0, 92, 0
2, 14100, Note_on_c, 0, 92, 81
2, 14138, Note_on_c, 0, 89, 0
2, 14145, Note_on_c, 0, 89, 86
2, 14215, Note_on_c, 0, 87, 87
2, 14261, Note_on_c, 0, 85, 0
2, 14271, Note_on_c, 0, 85, 81
2, 14315, Note_on_c, 0, 80, 0
2, 14321, Note_on_c, 0, 80, 72
2, 14369, Note_on_c, 0, 77, 0
2, 14374, Note_on_c, 0, 77, 71
2, 14415, Note_on_c, 0, 75, 0
2, 14425, Note_on_c, 0, 75, 73
2, 14469, Note_on_c, 0, 73, 0
2, 14479, Note_on_c, 0, 73, 81
2, 14538, Note_on_c, 0, 89, 0
2, 14542, Note_on_c, 0, 89, 92
2, 14576, Note_on_c, 0, 87, 0
2, 14581, Note_on_c, 0, 87, 87
2, 14645, Note_on_c, 0, 85, 0
2, 14650, Note_on_c, 0, 85, 71
2, 14676, Note_on_c, 0, 80, 0
2, 14681, Note_on_c, 0, 80, 68
2, 14714, Note_on_c, 0, 77, 0
2, 14720, Note_on_c, 0, 77, 79
2, 14776, Note_on_c, 0, 75, 0
2, 14786, Note_on_c, 0, 75, 76
2, 14845, Note_on_c, 0, 68, 0
2, 14845, Note_on_c, 0, 73, 0
2, 14850, Note_on_c, 0, 68, 60
2, 14855, Note_on_c, 0, 73, 64
2, 14922, Note_on_c, 0, 65, 0
2, 14926, Note_on_c, 0, 65, 54
2, 14976, Note_on_c, 0, 63, 0
2, 14985, Note_on_c, 0, 63, 59
2, 15068, Note_on_c, 0, 61, 0
2, 15072, Note_on_c, 0, 61, 58
2, 15160, Note_on_c, 0, 80, 0
2, 15170, Note_on_c, 0, 80, 63
2, 15306, Note_on_c, 0, 73, 0
2, 15317, Note_on_c, 0, 73, 71
2, 15467, Note_on_c, 0, 85, 0
2, 15475, Note_on_c, 0, 49, 0
2, 15478, Note_on_c, 0, 85, 76
2, 15481, Note_on_c, 0, 49, 45
2, 15628, Note_on_c, 0, 73, 0
2, 15633, Note_on_c, 0, 73, 63
2, 15774, Note_on_c, 0, 80, 0
2, 15780, Note_on_c, 0, 80, 67
2, 15936, Note_on_c, 0, 49, 0
2, 15936, Note_on_c, 0, 73, 0
2, 15946, Note_on_c, 0, 49, 40
2, 15947, Note_on_c, 0, 73, 61
2, 16074, Note_on_c, 0, 44, 0
2, 16078, Note_on_c, 0, 44, 37
2, 16104, Note_on_c, 0, 85, 0
2, 16110, Note_on_c, 0, 85, 78
2, 16158, Note_on_c, 0, 37, 0
2, 16258, Note_on_c, 0, 73, 0
2, 16263, Note_on_c, 0, 73, 56
2, 16320, Note_on_c, 0, 49, 0
2, 16330, Note_on_c, 0, 49, 34
2, 16404, Note_on_c, 0, 80, 0
2, 16415, Note_on_c, 0, 80, 64
2, 16565, Note_on_c, 0, 73, 0
2, 16570, Note_on_c, 0, 73, 54
2, 16734, Note_on_c, 0, 85, 0
2, 16738, Note_on_c, 0, 85, 80
2, 16803, Note_on_c, 0, 51, 0
2, 16865, Note_on_c, 0, 73, 0
2, 16872, Note_on_c, 0, 73, 50
2, 17026, Note_on_c, 0, 80, 0
2, 17037, Note_on_c, 0, 80, 62
2, 17106, Note_on_c, 0, 44, 0
2, 17180, Note_on_c, 0, 73, 0
2, 17190, Note_on_c, 0, 73, 57
2, 17195, Note_on_c, 0, 56, 0
2, 17280, Note_on_c, 0, 53, 0
2, 17280, Note_on_c, 0, 61, 0
2, 17280, Note_on_c, 0, 63, 0
2, 17280, Note_on_c, 0, 65, 0
2, 17280, Note_on_c, 0, 75, 0
2, 17280, Note_on_c, 0, 77, 0
2, 17280, Note_on_c, 0, 87, 0
2, 17280, Note_on_c, 0, 89, 0
2, 17280, Note_on_c, 0, 92, 0
2, 17280, Note_on_c, 0, 97, 0
2, 17280, Note_on_c, 0, 99, 0
2, 17280, Note_on_c, 0, 101, 0
2, 17349, Note_on_c, 0, 85, 0
2, 17354, Note_on_c, 0, 85, 80
2, 17357, Note_on_c, 0, 51, 35
2, 17364, Note_on_c, 0, 51, 0
2, 17479, Note_on_c, 0, 73, 0
2, 17488, Note_on_c, 0, 73, 50
2, 17640, Note_on_c, 0, 80, 0
2, 17644, Note_on_c, 0, 42, 62
2, 17650, Note_on_c, 0, 80, 58
2, 17659, Note_on_c, 0, 68, 0
2, 17659, Note_on_c, 0, 73, 0
2, 17662, Control_c, 0, 64, 0
2, 17671, Note_on_c, 0, 49, 0
2, 17740, Control_c, 0, 64, 127
2, 17802, Note_on_c, 0, 73, 60
2, 17804, Note_on_c, 0, 49, 65
2, 17955, Note_on_c, 0, 85, 0
2, 17963, Note_on_c, 0, 85, 80
2, 18094, Note_on_c, 0, 73, 0
2, 18100, Note_on_c, 0, 73, 61
2, 18270, Note_on_c, 0, 80, 0
2, 18274, Note_on_c, 0, 56, 73
2, 18275, Note_on_c, 0, 80, 73
2, 18279, Note_on_c, 0, 68, 69
2, 18408, Note_on_c, 0, 73, 0
2, 18419, Note_on_c, 0, 73, 62
2, 18559, Note_on_c, 0, 60, 75
2, 18561, Note_on_c, 0, 42, 0
2, 18562, Note_on_c, 0, 85, 0
2, 18567, Note_on_c, 0, 85, 79
2, 18574, Control_c, 0, 64, 0
2, 18608, Control_c, 0, 64, 127
2, 18716, Note_on_c, 0, 73, 0
2, 18720, Note_on_c, 0, 61, 80
2, 18721, Note_on_c, 0, 73, 73
2, 18862, Note_on_c, 0, 80, 0
2, 18869, Note_on_c, 0, 80, 70
2, 19023, Note_on_c, 0, 61, 0
2, 19023, Note_on_c, 0, 73, 0
2, 19028, Note_on_c, 0, 73, 64
2, 19034, Note_on_c, 0, 61, 43
2, 19176, Note_on_c, 0, 61, 0
2, 19176, Note_on_c, 0, 85, 0
2, 19182, Note_on_c, 0, 85, 80
2, 19188, Note_on_c, 0, 61, 41
2, 19322, Note_on_c, 0, 61, 0
2, 19322, Note_on_c, 0, 73, 0
2, 19331, Note_on_c, 0, 73, 69
2, 19334, Note_on_c, 0, 61, 46
2, 19468, Note_on_c, 0, 80, 0
2, 19476, Note_on_c, 0, 80, 76
2, 19622, Note_on_c, 0, 61, 0
2, 19628, Note_on_c, 0, 61, 83
2, 19760, Note_on_c, 0, 68, 0
2, 19768, Note_on_c, 0, 68, 81
2, 19776, Note_on_c, 0, 85, 0
2, 19780, Note_on_c, 0, 85, 77
2, 19921, Note_on_c, 0, 73, 0
2, 19931, Note_on_c, 0, 73, 77
2, 20067, Note_on_c, 0, 60, 0
2, 20076, Control_c, 0, 64, 0
2, 20077, Note_on_c, 0, 68, 0
2, 20077, Note_on_c, 0, 85, 0
2, 20078, Note_on_c, 0, 73, 0
2, 20079, Note_on_c, 0, 61, 0
2, 20079, Note_on_c, 0, 63, 77
2, 20079, Note_on_c, 0, 41, 60
2, 20083, Note_on_c, 0, 49, 0
2, 20090, Note_on_c, 0, 56, 0
2, 20090, Note_on_c, 0, 80, 0
2, 20183, Control_c, 0, 64, 127
2, 20218, Note_on_c, 0, 61, 86
2, 20234, Note_on_c, 0, 49, 73
2, 20395, Note_on_c, 0, 85, 75
2, 20528, Note_on_c, 0, 61, 0
2, 20533, Note_on_c, 0, 61, 86
2, 20535, Note_on_c, 0, 73, 80
2, 20685, Note_on_c, 0, 80, 79
2, 20828, Note_on_c, 0, 73, 0
2, 20833, Note_on_c, 0, 73, 73
2, 20974, Note_on_c, 0, 85, 0
2, 20985, Note_on_c, 0, 85, 79
2, 21127, Note_on_c, 0, 73, 0
2, 21132, Note_on_c, 0, 73, 68
2, 21143, Note_on_c, 0, 61, 0
2, 21147, Note_on_c, 0, 61, 43
2, 21281, Note_on_c, 0, 80, 0
2, 21286, Note_on_c, 0, 80, 70
2, 21419, Note_on_c, 0, 73, 0
2, 21430, Note_on_c, 0, 73, 76
2, 21430, Note_on_c, 0, 53, 59
2, 21573, Note_on_c, 0, 85, 0
2, 21578, Note_on_c, 0, 56, 61
2, 21579, Note_on_c, 0, 85, 78
2, 21719, Note_on_c, 0, 61, 0
2, 21719, Note_on_c, 0, 73, 0
2, 21730, Note_on_c, 0, 61, 74
2, 21730, Note_on_c, 0, 73, 68
2, 21870, Note_on_c, 0, 84, 70
2, 21926, Note_on_c, 0, 85, 0
2, 21930, Note_on_c, 0, 85, 86
2, 21995, Note_on_c, 0, 84, 0
2, 22004, Note_on_c, 0, 84, 65
2, 22056, Note_on_c, 0, 80, 0
2, 22067, Note_on_c, 0, 80, 74
2, 22173, Note_on_c, 0, 75, 72
2, 22310, Note_on_c, 0, 73, 0
2, 22320, Note_on_c, 0, 73, 69
2, 22479, Note_on_c, 0, 80, 0
2, 22483, Note_on_c, 0, 42, 69
2, 22485, Note_on_c, 0, 80, 67
2, 22504, Control_c, 0, 64, 0
2, 22504, Note_on_c, 0, 73, 0
2, 22504, Note_on_c, 0, 75, 0
2, 22505, Note_on_c, 0, 85, 0
2, 22505, Note_on_c, 0, 63, 0
2, 22505, Note_on_c, 0, 41, 0
2, 22505, Note_on_c, 0, 49, 0
2, 22506, Note_on_c, 0, 61, 0
2, 22506, Note_on_c, 0, 53, 0
2, 22506, Note_on_c, 0, 56, 0
2, 22506, Note_on_c, 0, 84, 0
2, 22602, Control_c, 0, 64, 127
2, 22634, Note_on_c, 0, 49, 68
2, 22653, Note_on_c, 0, 73, 63
2, 22802, Note_on_c, 0, 85, 74
2, 22940, Note_on_c, 0, 73, 0
2, 22951, Note_on_c, 0, 73, 58
2, 23086, Note_on_c, 0, 80, 0
2, 23095, Note_on_c, 0, 56, 74
2, 23096, Note_on_c, 0, 80, 74
2, 23239, Note_on_c, 0, 73, 0
2, 23249, Note_on_c, 0, 73, 62
2, 23385, Note_on_c, 0, 85, 0
2, 23388, Note_on_c, 0, 61, 81
2, 23390, Note_on_c, 0, 85, 75
2, 23539, Note_on_c, 0, 73, 0
2, 23544, Note_on_c, 0, 63, 90
2, 23545, Note_on_c, 0, 73, 62
2, 23692, Note_on_c, 0, 80, 0
2, 23696, Note_on_c, 0, 80, 72
2, 23838, Note_on_c, 0, 73, 0
2, 23842, Note_on_c, 0, 73, 64
2, 23992, Note_on_c, 0, 85, 0
2, 23996, Note_on_c, 0, 85, 77
2, 24138, Note_on_c, 0, 73, 0
2, 24148, Note_on_c, 0, 73, 63
2, 24284, Note_on_c, 0, 80, 0
2, 24294, Note_on_c, 0, 80, 69
2, 24422, Note_on_c, 0, 63, 0
2, 24429, Note_on_c, 0, 63, 90
2, 24437, Note_on_c, 0, 73, 0
2, 24443, Note_on_c, 0, 73, 65
2, 24591, Note_on_c, 0, 85, 0
2, 24595, Note_on_c, 0, 85, 76
2, 24713, Note_on_c, 0, 65, 77
2, 24721, Note_on_c, 0, 73, 0
2, 24731, Note_on_c, 0, 73, 70
2, 24875, Note_on_c, 0, 63, 0
2, 24880, Control_c, 0, 64, 0
2, 24884, Note_on_c, 0, 49, 0
2, 24886, Note_on_c, 0, 63, 84
2, 24886, Note_on_c, 0, 41, 67
2, 24887, Note_on_c, 0, 65, 0
2, 24887, Note_on_c, 0, 85, 0
2, 24890, Note_on_c, 0, 42, 0
2, 24906, Note_on_c, 0, 61, 0
2, 24906, Note_on_c, 0, 73, 0
2, 24960, Note_on_c, 0, 56, 0
2, 24960, Note_on_c, 0, 80, 0
2, 24983, Control_c, 0, 64, 127
2, 25024, Note_on_c, 0, 61, 91
2, 25038, Note_on_c, 0, 49, 77
2, 25202, Note_on_c, 0, 85, 73
2, 25336, Note_on_c, 0, 63, 0
2, 25345, Note_on_c, 0, 63, 86
2, 25347, Note_on_c, 0, 73, 66
2, 25487, Note_on_c, 0, 80, 70
2, 25635, Note_on_c, 0, 73, 0
2, 25640, Note_on_c, 0, 65, 82
2, 25640, Note_on_c, 0, 73, 69
2, 25642, Control_c, 0, 64, 0
2, 25689, Control_c, 0, 64, 127
2, 25781, Note_on_c, 0, 61, 0
2, 25789, Note_on_c, 0, 85, 0
2, 25792, Note_on_c, 0, 61, 47
2, 25794, Note_on_c, 0, 85, 75
2, 25927, Note_on_c, 0, 61, 0
2, 25938, Note_on_c, 0, 61, 85
2, 26081, Note_on_c, 0, 80, 0
2, 26091, Note_on_c, 0, 80, 71
2, 26234, Note_on_c, 0, 73, 0
2, 26239, Note_on_c, 0, 73, 72
2, 26241, Note_on_c, 0, 53, 63
2, 26388, Note_on_c, 0, 85, 0
2, 26399, Note_on_c, 0, 85, 76
2, 26400, Note_on_c, 0, 56, 63
2, 26534, Note_on_c, 0, 73, 0
2, 26538, Note_on_c, 0, 73, 66
2, 26549, Note_on_c, 0, 61, 0
2, 26555, Note_on_c, 0, 61, 65
2, 26680, Note_on_c, 0, 63, 0
2, 26688, Note_on_c, 0, 63, 49
2, 26689, Note_on_c, 0, 84, 75
2, 26749, Note_on_c, 0, 56, 0
2, 26749, Note_on_c, 0, 85, 0
2, 26758, Note_on_c, 0, 56, 48
2, 26759, Note_on_c, 0, 85, 86
2, 26759, Note_on_c, 0, 73, 0
2, 26760, Note_on_c, 0, 49, 0
2, 26760, Note_on_c, 0, 80, 0
2, 26760, Note_on_c, 0, 65, 0
2, 26761, Note_on_c, 0, 61, 0
2, 26761, Note_on_c, 0, 63, 0
2, 26761, Control_c, 0, 64, 0
2, 26762, Note_on_c, 0, 84, 0
2, 26780, Note_on_c, 0, 41, 0
2, 26810, Control_c, 0, 64, 127
2, 26835, Note_on_c, 0, 84, 72
2, 26839, Note_on_c, 0, 61, 36
2, 26895, Note_on_c, 0, 56, 0
2, 26904, Note_on_c, 0, 56, 53
2, 26906, Note_on_c, 0, 80, 77
2, 27022, Note_on_c, 0, 75, 73
2, 27171, Note_on_c, 0, 61, 0
2, 27180, Note_on_c, 0, 73, 65
2, 27182, Note_on_c, 0, 61, 39
2, 27289, Note_on_c, 0, 75, 0
2, 27289, Note_on_c, 0, 85, 0
2, 27289, Note_on_c, 0, 61, 0
2, 27290, Note_on_c, 0, 80, 0
2, 27290, Note_on_c, 0, 73, 0
2, 27290, Control_c, 0, 64, 0
2, 27291, Note_on_c, 0, 84, 0
2, 27302, Note_on_c, 0, 53, 0
2, 27302, Note_on_c, 0, 56, 0
2, 27311, Note_on_c, 0, 42, 67
2, 27313, Note_on_c, 0, 56, 76
2, 27313, Note_on_c, 0, 54, 59
2, 27386, Control_c, 0, 64, 127
2, 27463, Note_on_c, 0, 49, 66
2, 27622, Note_on_c, 0, 63, 68
2, 27766, Note_on_c, 0, 61, 70
2, 27901, Note_on_c, 0, 54, 0
2, 27904, Control_c, 0, 64, 0
2, 27905, Note_on_c, 0, 68, 85
2, 27906, Note_on_c, 0, 54, 55
2, 27947, Control_c, 0, 64, 127
2, 28062, Note_on_c, 0, 56, 0
2, 28067, Note_on_c, 0, 56, 66
2, 28211, Note_on_c, 0, 72, 93
2, 28216, Note_on_c, 0, 63, 0
2, 28220, Note_on_c, 0, 63, 64
2, 28362, Note_on_c, 0, 61, 0
2, 28366, Note_on_c, 0, 73, 95
2, 28373, Note_on_c, 0, 61, 69
2, 28523, Note_on_c, 0, 54, 0
2, 28527, Note_on_c, 0, 54, 51
2, 28669, Note_on_c, 0, 56, 0
2, 28673, Note_on_c, 0, 56, 56
2, 28815, Note_on_c, 0, 63, 0
2, 28821, Note_on_c, 0, 63, 66
2, 28953, Note_on_c, 0, 61, 0
2, 28964, Note_on_c, 0, 61, 71
2, 29099, Note_on_c, 0, 54, 0
2, 29110, Note_on_c, 0, 54, 62
2, 29111, Note_on_c, 0, 42, 0
2, 29237, Note_on_c, 0, 73, 0
2, 29248, Note_on_c, 0, 73, 96
2, 29260, Note_on_c, 0, 56, 0
2, 29265, Control_c, 0, 64, 0
2, 29265, Note_on_c, 0, 56, 68
2, 29276, Note_on_c, 0, 49, 0
2, 29291, Control_c, 0, 64, 127
2, 29299, Note_on_c, 0, 68, 0
2, 29306, Note_on_c, 0, 72, 0
2, 29352, Note_on_c, 0, 63, 0
2, 29360, Note_on_c, 0, 61, 0
2, 29402, Note_on_c, 0, 80, 99
2, 29412, Note_on_c, 0, 63, 68
2, 29544, Note_on_c, 0, 61, 59
2, 29694, Note_on_c, 0, 75, 86
2, 29702, Note_on_c, 0, 41, 58
2, 29703, Control_c, 0, 64, 0
2, 29706, Note_on_c, 0, 63, 0
2, 29707, Note_on_c, 0, 56, 0
2, 29707, Note_on_c, 0, 61, 0
2, 29709, Note_on_c, 0, 80, 0
2, 29713, Note_on_c, 0, 54, 0
2, 29714, Note_on_c, 0, 68, 67
2, 29721, Note_on_c, 0, 73, 0
2, 29813, Control_c, 0, 64, 127
2, 29854, Note_on_c, 0, 49, 64
2, 29855, Note_on_c, 0, 73, 87
2, 30015, Note_on_c, 0, 63, 52
2, 30144, Note_on_c, 0, 73, 0
2, 30149, Note_on_c, 0, 73, 92
2, 30163, Note_on_c, 0, 61, 61
2, 30316, Note_on_c, 0, 53, 54
2, 30445, Note_on_c, 0, 56, 57
2, 30597, Note_on_c, 0, 63, 0
2, 30602, Note_on_c, 0, 63, 71
2, 30727, Note_on_c, 0, 61, 0
2, 30738, Note_on_c, 0, 61, 67
2, 30896, Note_on_c, 0, 53, 0
2, 30901, Note_on_c, 0, 53, 66
2, 31042, Note_on_c, 0, 56, 0
2, 31042, Note_on_c, 0, 73, 0
2, 31053, Note_on_c, 0, 56, 65
2, 31053, Note_on_c, 0, 73, 78
2, 31180, Note_on_c, 0, 63, 0
2, 31186, Note_on_c, 0, 63, 69
2, 31191, Note_on_c, 0, 80, 80
2, 31342, Note_on_c, 0, 61, 0
2, 31345, Note_on_c, 0, 85, 81
2, 31352, Note_on_c, 0, 61, 54
2, 31486, Note_on_c, 0, 97, 86
2, 31492, Note_on_c, 0, 60, 67
2, 31572, Note_on_c, 0, 61, 0
2, 31577, Note_on_c, 0, 61, 64
2, 31656, Note_on_c, 0, 60, 0
2, 31666, Note_on_c, 0, 60, 73
2, 31733, Note_on_c, 0, 56, 0
2, 31743, Note_on_c, 0, 56, 70
2, 31894, Note_on_c, 0, 51, 60
2, 32002, Note_on_c, 0, 49, 0
2, 32013, Note_on_c, 0, 49, 64
2, 32140, Note_on_c, 0, 97, 0
2, 32142, Note_on_c, 0, 75, 0
2, 32142, Control_c, 0, 64, 0
2, 32143, Note_on_c, 0, 73, 0
2, 32143, Note_on_c, 0, 51, 0
2, 32143, Note_on_c, 0, 41, 0
2, 32143, Note_on_c, 0, 85, 0
2, 32143, Note_on_c, 0, 68, 0
2, 32143, Note_on_c, 0, 53, 0
2, 32143, Note_on_c, 0, 60, 0
2, 32143, Note_on_c, 0, 80, 0
2, 32143, Note_on_c, 0, 61, 0
2, 32143, Note_on_c, 0, 49, 0
2, 32143, Note_on_c, 0, 63, 0
2, 32148, Note_on_c, 0, 56, 0
2, 32159, Note_on_c, 0, 56, 75
2, 32159, Note_on_c, 0, 42, 65
2, 32256, Control_c, 0, 64, 127
2, 32307, Note_on_c, 0, 49, 73
2, 32463, Note_on_c, 0, 63, 63
2, 32593, Note_on_c, 0, 61, 67
2, 32752, Note_on_c, 0, 68, 88
2, 32752, Note_on_c, 0, 54, 68
2, 32766, Control_c, 0, 64, 0
2, 32785, Control_c, 0, 64, 127
2, 32901, Note_on_c, 0, 56, 0
2, 32908, Note_on_c, 0, 56, 69
2, 33039, Note_on_c, 0, 63, 0
2, 33049, Note_on_c, 0, 73, 87
2, 33049, Note_on_c, 0, 63, 68
2, 33192, Note_on_c, 0, 61, 0
2, 33203, Note_on_c, 0, 61, 64
2, 33204, Note_on_c, 0, 75, 91
2, 33354, Note_on_c, 0, 54, 0
2, 33365, Note_on_c, 0, 54, 52
2, 33492, Note_on_c, 0, 56, 0
2, 33492, Note_on_c, 0, 68, 0
2, 33496, Note_on_c, 0, 56, 62
2, 33499, Note_on_c, 0, 68, 59
2, 33638, Note_on_c, 0, 42, 0
2, 33638, Note_on_c, 0, 63, 0
2, 33649, Note_on_c, 0, 42, 53
2, 33649, Note_on_c, 0, 63, 66
2, 33792, Note_on_c, 0, 61, 0
2, 33797, Note_on_c, 0, 61, 64
2, 33937, Note_on_c, 0, 54, 0
2, 33948, Note_on_c, 0, 54, 57
2, 34091, Note_on_c, 0, 56, 0
2, 34091, Note_on_c, 0, 75, 0
2, 34100, Note_on_c, 0, 75, 93
2, 34100, Note_on_c, 0, 56, 67
2, 34101, Note_on_c, 0, 49, 0
2, 34102, Note_on_c, 0, 68, 0
2, 34102, Note_on_c, 0, 73, 0
2, 34103, Control_c, 0, 64, 0
2, 34129, Control_c, 0, 64, 127
2, 34237, Note_on_c, 0, 63, 0
2, 34248, Note_on_c, 0, 63, 77
2, 34391, Note_on_c, 0, 61, 0
2, 34394, Note_on_c, 0, 77, 85
2, 34396, Note_on_c, 0, 61, 72
2, 34531, Note_on_c, 0, 54, 0
2, 34531, Note_on_c, 0, 56, 0
2, 34531, Note_on_c, 0, 42, 0
2, 34531, Note_on_c, 0, 61, 0
2, 34532, Control_c, 0, 64, 0
2, 34535, Note_on_c, 0, 77, 0
2, 34536, Note_on_c, 0, 75, 0
2, 34544, Note_on_c, 0, 63, 0
2, 34547, Note_on_c, 0, 44, 68
2, 34547, Note_on_c, 0, 75, 85
2, 34555, Note_on_c, 0, 63, 66
2, 34558, Note_on_c, 0, 72, 67
2, 34562, Note_on_c, 0, 68, 66
2, 34636, Control_c, 0, 64, 127
2, 34711, Note_on_c, 0, 73, 95
2, 34714, Note_on_c, 0, 51, 75
2, 34853, Note_on_c, 0, 56, 67
2, 34998, Note_on_c, 0, 51, 0
2, 34999, Note_on_c, 0, 75, 0
2, 34999, Note_on_c, 0, 63, 0
2, 34999, Control_c, 0, 64, 0
2, 34999, Note_on_c, 0, 72, 0
2, 34999, Note_on_c, 0, 56, 0
2, 35000, Note_on_c, 0, 44, 0
2, 35013, Note_on_c, 0, 68, 0
2, 35018, Note_on_c, 0, 80, 90
2, 35020, Note_on_c, 0, 73, 0
2, 35024, Note_on_c, 0, 68, 69
2, 35025, Note_on_c, 0, 73, 69
2, 35032, Note_on_c, 0, 77, 73
2, 35036, Note_on_c, 0, 46, 60
2, 35128, Control_c, 0, 64, 127
2, 35325, Note_on_c, 0, 53, 62
2, 35478, Note_on_c, 0, 58, 76
2, 35608, Note_on_c, 0, 80, 0
2, 35608, Note_on_c, 0, 68, 0
2, 35608, Note_on_c, 0, 46, 0
2, 35608, Note_on_c, 0, 53, 0
2, 35608, Note_on_c, 0, 58, 0
2, 35609, Note_on_c, 0, 73, 0
2, 35612, Control_c, 0, 64, 0
2, 35619, Note_on_c, 0, 77, 0
2, 35624, Note_on_c, 0, 77, 92
2, 35646, Note_on_c, 0, 68, 62
2, 35647, Note_on_c, 0, 61, 60
2, 35647, Note_on_c, 0, 49, 64
2, 35649, Note_on_c, 0, 65, 58
2, 35773, Note_on_c, 0, 75, 80
2, 35816, Note_on_c, 0, 77, 0
2, 35937, Note_on_c, 0, 73, 84
2, 35973, Control_c, 0, 64, 127
2, 35975, Note_on_c, 0, 56, 56
2, 36080, Note_on_c, 0, 61, 0
2, 36091, Note_on_c, 0, 61, 74
2, 36243, Control_c, 0, 64, 0
2, 36246, Note_on_c, 0, 49, 0
2, 36247, Note_on_c, 0, 75, 0
2, 36247, Note_on_c, 0, 56, 0
2, 36247, Note_on_c, 0, 68, 0
2, 36248, Note_on_c, 0, 61, 0
2, 36249, Note_on_c, 0, 73, 0
2, 36250, Note_on_c, 0, 85, 98
2, 36254, Note_on_c, 0, 73, 86
2, 36257, Note_on_c, 0, 65, 0
2, 36326, Control_c, 0, 64, 127
2, 36568, Note_on_c, 0, 87, 104
2, 36572, Note_on_c, 0, 75, 94
2, 36852, Control_c, 0, 64, 0
2, 36862, Note_on_c, 0, 89, 109
2, 36864, Note_on_c, 0, 87, 0
2, 36865, Note_on_c, 0, 85, 0
2, 36868, Note_on_c, 0, 77, 104
2, 36870, Note_on_c, 0, 87, 98
2, 36870, Note_on_c, 0, 82, 87
2, 36871, Note_on_c, 0, 73, 0
2, 36894, Control_c, 0, 64, 127
2, 37015, Note_on_c, 0, 51, 88
2, 37016, Note_on_c, 0, 39, 83
2, 37163, Note_on_c, 0, 51, 0
2, 37174, Note_on_c, 0, 51, 67
2, 37336, Note_on_c, 0, 63, 71
2, 37337, Note_on_c, 0, 55, 70
2, 37341, Note_on_c, 0, 58, 69
2, 37468, Note_on_c, 0, 91, 97
2, 37476, Note_on_c, 0, 79, 84
2, 37580, Note_on_c, 0, 87, 0
2, 37580, Note_on_c, 0, 77, 0
2, 37580, Note_on_c, 0, 63, 0
2, 37580, Note_on_c, 0, 82, 0
2, 37580, Note_on_c, 0, 89, 0
2, 37580, Note_on_c, 0, 55, 0
2, 37580, Control_c, 0, 64, 0
2, 37580, Note_on_c, 0, 39, 0
2, 37581, Note_on_c, 0, 79, 0
2, 37581, Note_on_c, 0, 58, 0
2, 37581, Note_on_c, 0, 91, 0
2, 37585, Note_on_c, 0, 75, 0
2, 37601, Note_on_c, 0, 51, 0
2, 37618, Note_on_c, 0, 89, 108
2, 37620, Note_on_c, 0, 43, 85
2, 37622, Note_on_c, 0, 77, 98
2, 37625, Note_on_c, 0, 87, 90
2, 37628, Note_on_c, 0, 82, 73
2, 37647, Control_c, 0, 64, 127
2, 37789, Note_on_c, 0, 55, 64
2, 37926, Note_on_c, 0, 67, 66
2, 37928, Note_on_c, 0, 63, 67
2, 37932, Note_on_c, 0, 58, 79
2, 37933, Note_on_c, 0, 70, 75
2, 38054, Control_c, 0, 64, 0
2, 38057, Note_on_c, 0, 55, 0
2, 38057, Note_on_c, 0, 58, 0
2, 38057, Note_on_c, 0, 77, 0
2, 38057, Note_on_c, 0, 63, 0
2, 38069, Note_on_c, 0, 43, 0
2, 38069, Note_on_c, 0, 67, 0
2, 38069, Note_on_c, 0, 82, 0
2, 38073, Note_on_c, 0, 94, 109
2, 38077, Note_on_c, 0, 87, 0
2, 38077, Note_on_c, 0, 89, 0
2, 38079, Note_on_c, 0, 82, 93
2, 38082, Note_on_c, 0, 89, 93
2, 38082, Note_on_c, 0, 87, 91
2, 38123, Control_c, 0, 64, 127
2, 38169, Note_on_c, 0, 70, 0
2, 38384, Note_on_c, 0, 93, 103
2, 38389, Note_on_c, 0, 81, 87
2, 38389, Note_on_c, 0, 63, 68
2, 38534, Note_on_c, 0, 65, 64
2, 38535, Note_on_c, 0, 70, 66
2, 38699, Note_on_c, 0, 91, 101
2, 38703, Note_on_c, 0, 79, 92
2, 38837, Note_on_c, 0, 70, 0
2, 38839, Note_on_c, 0, 75, 82
2, 38843, Note_on_c, 0, 70, 70
2, 38991, Note_on_c, 0, 89, 0
2, 39001, Note_on_c, 0, 89, 98
2, 39002, Note_on_c, 0, 77, 88
2, 39137, Note_on_c, 0, 70, 0
2, 39142, Note_on_c, 0, 70, 74
2, 39144, Note_on_c, 0, 63, 0
2, 39152, Note_on_c, 0, 63, 75
2, 39290, Note_on_c, 0, 89, 0
2, 39302, Note_on_c, 0, 89, 104
2, 39306, Note_on_c, 0, 87, 0
2, 39313, Note_on_c, 0, 77, 0
2, 39317, Note_on_c, 0, 87, 85
2, 39318, Note_on_c, 0, 77, 80
2, 39321, Note_on_c, 0, 82, 0
2, 39327, Note_on_c, 0, 82, 69
2, 39392, Note_on_c, 0, 93, 0
2, 39392, Note_on_c, 0, 94, 0
2, 39393, Note_on_c, 0, 81, 0
2, 39394, Note_on_c, 0, 70, 0
2, 39394, Note_on_c, 0, 91, 0
2, 39394, Note_on_c, 0, 79, 0
2, 39394, Control_c, 0, 64, 0
2, 39394, Note_on_c, 0, 65, 0
2, 39394, Note_on_c, 0, 75, 0
2, 39395, Note_on_c, 0, 63, 0
2, 39457, Note_on_c, 0, 46, 68
2, 39467, Control_c, 0, 64, 127
2, 39603, Note_on_c, 0, 53, 60
2, 39752, Note_on_c, 0, 60, 61
2, 39776, Note_on_c, 0, 58, 52
2, 39885, Note_on_c, 0, 79, 84
2, 39900, Note_on_c, 0, 65, 46
2, 39901, Note_on_c, 0, 67, 58
2, 40017, Note_on_c, 0, 53, 0
2, 40018, Note_on_c, 0, 58, 0
2, 40018, Note_on_c, 0, 67, 0
2, 40018, Note_on_c, 0, 60, 0
2, 40018, Note_on_c, 0, 46, 0
2, 40019, Note_on_c, 0, 79, 0
2, 40019, Control_c, 0, 64, 0
2, 40020, Note_on_c, 0, 89, 0
2, 40035, Note_on_c, 0, 77, 0
2, 40035, Note_on_c, 0, 82, 0
2, 40035, Note_on_c, 0, 87, 0
2, 40043, Note_on_c, 0, 77, 90
2, 40043, Note_on_c, 0, 65, 0
2, 40045, Note_on_c, 0, 48, 60
2, 40048, Note_on_c, 0, 65, 69
2, 40079, Note_on_c, 0, 48, 0
2, 40089, Control_c, 0, 64, 127
2, 40203, Note_on_c, 0, 58, 65
2, 40320, Note_on_c, 0, 65, 0
2, 40349, Note_on_c, 0, 63, 64
2, 40355, Note_on_c, 0, 60, 50
2, 40501, Note_on_c, 0, 82, 82
2, 40503, Note_on_c, 0, 60, 0
2, 40503, Note_on_c, 0, 63, 0
2, 40507, Control_c, 0, 64, 0
2, 40519, Note_on_c, 0, 58, 0
2, 40519, Note_on_c, 0, 77, 0
2, 40521, Note_on_c, 0, 46, 63
2, 40522, Note_on_c, 0, 70, 72
2, 40523, Note_on_c, 0, 58, 62
2, 40523, Note_on_c, 0, 75, 70
2, 40526, Note_on_c, 0, 77, 63
2, 40573, Control_c, 0, 64, 127
2, 40803, Note_on_c, 0, 81, 88
2, 40803, Note_on_c, 0, 53, 56
2, 40809, Note_on_c, 0, 69, 64
2, 40957, Note_on_c, 0, 58, 0
2, 40967, Note_on_c, 0, 60, 67
2, 40968, Note_on_c, 0, 58, 65
2, 41103, Note_on_c, 0, 82, 0
2, 41111, Note_on_c, 0, 70, 0
2, 41113, Note_on_c, 0, 82, 92
2, 41120, Note_on_c, 0, 70, 75
2, 41259, Note_on_c, 0, 63, 59
2, 41259, Note_on_c, 0, 65, 54
2, 41426, Note_on_c, 0, 84, 91
2, 41432, Note_on_c, 0, 72, 78
2, 41433, Note_on_c, 0, 58, 0
2, 41437, Note_on_c, 0, 58, 49
2, 41564, Note_on_c, 0, 53, 0
2, 41571, Note_on_c, 0, 58, 0
2, 41571, Note_on_c, 0, 60, 0
2, 41575, Note_on_c, 0, 53, 70
2, 41575, Note_on_c, 0, 58, 72
2, 41581, Note_on_c, 0, 60, 65
2, 41716, Control_c, 0, 64, 0
2, 41717, Note_on_c, 0, 77, 0
2, 41720, Note_on_c, 0, 84, 0
2, 41720, Note_on_c, 0, 58, 0
2, 41721, Note_on_c, 0, 89, 109
2, 41721, Note_on_c, 0, 70, 0
2, 41721, Note_on_c, 0, 81, 0
2, 41722, Note_on_c, 0, 60, 0
2, 41722, Note_on_c, 0, 63, 0
2, 41722, Note_on_c, 0, 69, 0
2, 41722, Note_on_c, 0, 53, 0
2, 41722, Note_on_c, 0, 75, 0
2, 41722, Note_on_c, 0, 72, 0
2, 41722, Note_on_c, 0, 65, 0
2, 41725, Note_on_c, 0, 82, 0
2, 41728, Note_on_c, 0, 77, 95
2, 41729, Note_on_c, 0, 87, 93
2, 41732, Note_on_c, 0, 82, 85
2, 41733, Note_on_c, 0, 46, 0
2, 41771, Control_c, 0, 64, 127
2, 41826, Control_c, 0, 64, 0
2, 41859, Note_on_c, 0, 39, 88
2, 41859, Note_on_c, 0, 51, 85
2, 41863, Control_c, 0, 64, 127
2, 42017, Note_on_c, 0, 51, 0
2, 42021, Note_on_c, 0, 51, 70
2, 42164, Note_on_c, 0, 63, 77
2, 42166, Note_on_c, 0, 58, 75
2, 42166, Note_on_c, 0, 55, 72
2, 42308, Note_on_c, 0, 91, 97
2, 42313, Note_on_c, 0, 79, 85
2, 42414, Control_c, 0, 64, 0
2, 42414, Note_on_c, 0, 77, 0
2, 42414, Note_on_c, 0, 82, 0
2, 42415, Note_on_c, 0, 89, 0
2, 42415, Note_on_c, 0, 55, 0
2, 42416, Note_on_c, 0, 58, 0
2, 42416, Note_on_c, 0, 51, 0
2, 42416, Note_on_c, 0, 63, 0
2, 42417, Note_on_c, 0, 39, 0
2, 42417, Note_on_c, 0, 79, 0
2, 42417, Note_on_c, 0, 91, 0
2, 42432, Note_on_c, 0, 87, 0
2, 42455, Note_on_c, 0, 89, 105
2, 42459, Note_on_c, 0, 77, 102
2, 42459, Note_on_c, 0, 43, 85
2, 42465, Note_on_c, 0, 87, 88
2, 42466, Note_on_c, 0, 82, 74
2, 42493, Control_c, 0, 64, 127
2, 42616, Note_on_c, 0, 43, 0
2, 42625, Note_on_c, 0, 55, 68
2, 42626, Note_on_c, 0, 43, 59
2, 42764, Note_on_c, 0, 63, 73
2, 42764, Note_on_c, 0, 67, 72
2, 42765, Note_on_c, 0, 58, 78
2, 42767, Note_on_c, 0, 70, 77
2, 42879, Control_c, 0, 64, 0
2, 42880, Note_on_c, 0, 55, 0
2, 42880, Note_on_c, 0, 70, 0
2, 42880, Note_on_c, 0, 82, 0
2, 42880, Note_on_c, 0, 77, 0
2, 42880, Note_on_c, 0, 67, 0
2, 42880, Note_on_c, 0, 87, 0
2, 42881, Note_on_c, 0, 58, 0
2, 42881, Note_on_c, 0, 63, 0
2, 42881, Note_on_c, 0, 43, 0
2, 42908, Note_on_c, 0, 89, 0
2, 42912, Note_on_c, 0, 94, 111
2, 42917, Note_on_c, 0, 89, 98
2, 42917, Note_on_c, 0, 44, 85
2, 42920, Note_on_c, 0, 82, 94
2, 42923, Note_on_c, 0, 56, 87
2, 42926, Note_on_c, 0, 87, 89
2, 42961, Control_c, 0, 64, 127
2, 43212, Note_on_c, 0, 93, 106
2, 43214, Note_on_c, 0, 63, 81
2, 43214, Note_on_c, 0, 81, 93
2, 43365, Note_on_c, 0, 65, 70
2, 43368, Note_on_c, 0, 70, 73
2, 43522, Note_on_c, 0, 82, 0
2, 43522, Note_on_c, 0, 94, 0
2, 43526, Note_on_c, 0, 94, 110
2, 43531, Note_on_c, 0, 82, 95
2, 43660, Note_on_c, 0, 70, 0
2, 43669, Note_on_c, 0, 75, 80
2, 43671, Note_on_c, 0, 70, 64
2, 43768, Note_on_c, 0, 56, 0
2, 43824, Note_on_c, 0, 96, 109
2, 43826, Note_on_c, 0, 84, 90
2, 43960, Note_on_c, 0, 70, 0
2, 43966, Note_on_c, 0, 70, 85
2, 43968, Note_on_c, 0, 63, 0
2, 43973, Note_on_c, 0, 63, 73
2, 44121, Note_on_c, 0, 96, 0
2, 44129, Note_on_c, 0, 84, 0
2, 44129, Note_on_c, 0, 89, 0
2, 44129, Note_on_c, 0, 94, 0
2, 44130, Note_on_c, 0, 96, 111
2, 44134, Note_on_c, 0, 84, 97
2, 44134, Note_on_c, 0, 94, 103
2, 44138, Note_on_c, 0, 89, 94
2, 44212, Control_c, 0, 64, 0
2, 44214, Note_on_c, 0, 81, 0
2, 44215, Note_on_c, 0, 93, 0
2, 44215, Note_on_c, 0, 82, 0
2, 44216, Note_on_c, 0, 75, 0
2, 44216, Note_on_c, 0, 44, 0
2, 44217, Note_on_c, 0, 70, 0
2, 44217, Note_on_c, 0, 65, 0
2, 44217, Note_on_c, 0, 87, 0
2, 44217, Note_on_c, 0, 63, 0
2, 44265, Note_on_c, 0, 46, 75
2, 44267, Note_on_c, 0, 58, 75
2, 44290, Control_c, 0, 64, 127
2, 44413, Note_on_c, 0, 53, 63
2, 44414, Note_on_c, 0, 65, 54
2, 44567, Note_on_c, 0, 46, 0
2, 44567, Note_on_c, 0, 58, 0
2, 44572, Note_on_c, 0, 46, 56
2, 44573, Note_on_c, 0, 60, 58
2, 44574, Note_on_c, 0, 58, 55
2, 44689, Note_on_c, 0, 58, 0
2, 44699, Note_on_c, 0, 58, 59
2, 44701, Note_on_c, 0, 79, 85
2, 44715, Note_on_c, 0, 67, 62
2, 44820, Note_on_c, 0, 94, 0
2, 44826, Control_c, 0, 64, 0
2, 44826, Note_on_c, 0, 53, 0
2, 44826, Note_on_c, 0, 46, 0
2, 44827, Note_on_c, 0, 58, 0
2, 44828, Note_on_c, 0, 60, 0
2, 44829, Note_on_c, 0, 67, 0
2, 44831, Note_on_c, 0, 79, 0
2, 44835, Note_on_c, 0, 96, 0
2, 44843, Note_on_c, 0, 89, 0
2, 44851, Note_on_c, 0, 65, 0
2, 44855, Note_on_c, 0, 48, 70
2, 44857, Note_on_c, 0, 77, 83
2, 44858, Note_on_c, 0, 84, 0
2, 44862, Note_on_c, 0, 65, 72
2, 44889, Control_c, 0, 64, 127
2, 45003, Note_on_c, 0, 46, 57
2, 45004, Note_on_c, 0, 58, 64
2, 45027, Note_on_c, 0, 65, 0
2, 45147, Note_on_c, 0, 63, 75
2, 45171, Note_on_c, 0, 60, 51
2, 45300, Note_on_c, 0, 63, 0
2, 45300, Note_on_c, 0, 60, 0
2, 45301, Control_c, 0, 64, 0
2, 45304, Note_on_c, 0, 48, 0
2, 45310, Note_on_c, 0, 82, 91
2, 45312, Note_on_c, 0, 77, 0
2, 45319, Note_on_c, 0, 46, 0
2, 45325, Note_on_c, 0, 46, 67
2, 45325, Note_on_c, 0, 70, 73
2, 45327, Note_on_c, 0, 58, 0
2, 45329, Note_on_c, 0, 75, 74
2, 45332, Note_on_c, 0, 58, 67
2, 45365, Control_c, 0, 64, 127
2, 45602, Note_on_c, 0, 81, 88
2, 45610, Note_on_c, 0, 69, 72
2, 45614, Note_on_c, 0, 53, 58
2, 45757, Note_on_c, 0, 58, 0
2, 45762, Note_on_c, 0, 58, 68
2, 45766, Note_on_c, 0, 60, 64
2, 45895, Note_on_c, 0, 81, 0
2, 45895, Note_on_c, 0, 82, 0
2, 45901, Note_on_c, 0, 81, 77
2, 45903, Note_on_c, 0, 70, 0
2, 45906, Note_on_c, 0, 82, 87
2, 45907, Note_on_c, 0, 70, 81
2, 46058, Note_on_c, 0, 65, 67
2, 46059, Note_on_c, 0, 63, 67
2, 46347, Note_on_c, 0, 85, 110
2, 46349, Note_on_c, 0, 46, 0
2, 46350, Control_c, 0, 64, 0
2, 46351, Note_on_c, 0, 73, 99
2, 46352, Note_on_c, 0, 58, 0
2, 46352, Note_on_c, 0, 60, 0
2, 46352, Note_on_c, 0, 82, 0
2, 46352, Note_on_c, 0, 81, 0
2, 46352, Note_on_c, 0, 53, 0
2, 46352, Note_on_c, 0, 75, 0
2, 46352, Note_on_c, 0, 63, 0
2, 46352, Note_on_c, 0, 69, 0
2, 46352, Note_on_c, 0, 70, 0
2, 46379, Note_on_c, 0, 65, 0
2, 46417, Control_c, 0, 64, 127
2, 46645, Control_c, 0, 64, 0
2, 46654, Note_on_c, 0, 87, 108
2, 46658, Note_on_c, 0, 42, 92
2, 46659, Note_on_c, 0, 30, 92
2, 46659, Note_on_c, 0, 75, 102
2, 46659, Note_on_c, 0, 78, 104
2, 46662, Note_on_c, 0, 82, 92
2, 46679, Control_c, 0, 64, 127
2, 46771, Note_on_c, 0, 73, 0
2, 46955, Note_on_c, 0, 42, 0
2, 46963, Note_on_c, 0, 42, 52
2, 47046, Note_on_c, 0, 49, 65
2, 47105, Note_on_c, 0, 54, 56
2, 47165, Note_on_c, 0, 56, 73
2, 47247, Note_on_c, 0, 42, 0
2, 47247, Note_on_c, 0, 82, 0
2, 47255, Note_on_c, 0, 78, 0
2, 47255, Note_on_c, 0, 42, 82
2, 47257, Note_on_c, 0, 82, 108
2, 47258, Note_on_c, 0, 73, 98
2, 47259, Note_on_c, 0, 70, 98
2, 47259, Note_on_c, 0, 78, 98
2, 47274, Note_on_c, 0, 49, 0
2, 47281, Note_on_c, 0, 87, 0
2, 47301, Note_on_c, 0, 30, 0
2, 47301, Note_on_c, 0, 54, 0
2, 47347, Note_on_c, 0, 85, 0
2, 47353, Note_on_c, 0, 49, 59
2, 47411, Note_on_c, 0, 54, 67
2, 47470, Note_on_c, 0, 56, 0
2, 47478, Note_on_c, 0, 56, 63
2, 47554, Note_on_c, 0, 42, 0
2, 47559, Note_on_c, 0, 42, 71
2, 47639, Note_on_c, 0, 49, 0
2, 47650, Note_on_c, 0, 49, 68
2, 47708, Note_on_c, 0, 75, 0
2, 47708, Note_on_c, 0, 78, 0
2, 47711, Note_on_c, 0, 84, 106
2, 47717, Note_on_c, 0, 72, 91
2, 47718, Note_on_c, 0, 78, 98
2, 47718, Note_on_c, 0, 75, 94
2, 47761, Note_on_c, 0, 49, 0
2, 47767, Note_on_c, 0, 49, 51
2, 47846, Note_on_c, 0, 42, 0
2, 47850, Note_on_c, 0, 42, 63
2, 47930, Note_on_c, 0, 49, 0
2, 47938, Note_on_c, 0, 49, 58
2, 48007, Note_on_c, 0, 56, 0
2, 48007, Note_on_c, 0, 73, 0
2, 48011, Note_on_c, 0, 80, 106
2, 48015, Note_on_c, 0, 56, 82
2, 48015, Note_on_c, 0, 70, 0
2, 48016, Note_on_c, 0, 73, 94
2, 48025, Note_on_c, 0, 70, 87
2, 48138, Note_on_c, 0, 42, 0
2, 48149, Note_on_c, 0, 42, 78
2, 48238, Note_on_c, 0, 49, 0
2, 48248, Note_on_c, 0, 49, 62
2, 48284, Note_on_c, 0, 42, 0
2, 48284, Note_on_c, 0, 54, 0
2, 48288, Note_on_c, 0, 42, 65
2, 48291, Note_on_c, 0, 54, 59
2, 48360, Note_on_c, 0, 56, 0
2, 48365, Note_on_c, 0, 56, 60
2, 48437, Note_on_c, 0, 42, 0
2, 48443, Note_on_c, 0, 42, 73
2, 48448, Note_on_c, 0, 66, 59
2, 48537, Note_on_c, 0, 49, 0
2, 48542, Note_on_c, 0, 49, 75
2, 48583, Note_on_c, 0, 75, 0
2, 48591, Note_on_c, 0, 54, 0
2, 48591, Note_on_c, 0, 66, 0
2, 48591, Note_on_c, 0, 70, 0
2, 48594, Note_on_c, 0, 75, 105
2, 48600, Note_on_c, 0, 70, 90
2, 48600, Note_on_c, 0, 54, 84
2, 48601, Note_on_c, 0, 66, 88
2, 48602, Note_on_c, 0, 63, 84
2, 48622, Note_on_c, 0, 84, 0
2, 48729, Note_on_c, 0, 42, 0
2, 48740, Note_on_c, 0, 42, 72
2, 48829, Note_on_c, 0, 49, 0
2, 48838, Note_on_c, 0, 49, 69
2, 48890, Note_on_c, 0, 73, 0
2, 48894, Note_on_c, 0, 77, 109
2, 48898, Note_on_c, 0, 70, 0
2, 48900, Note_on_c, 0, 73, 97
2, 48904, Note_on_c, 0, 65, 92
2, 48908, Note_on_c, 0, 70, 95
2, 48967, Note_on_c, 0, 80, 0
2, 48975, Note_on_c, 0, 82, 0
2, 48981, Note_on_c, 0, 42, 0
2, 48981, Note_on_c, 0, 56, 0
2, 48981, Note_on_c, 0, 49, 0
2, 48982, Note_on_c, 0, 63, 0
2, 48983, Note_on_c, 0, 78, 0
2, 48983, Control_c, 0, 64, 0
2, 48983, Note_on_c, 0, 66, 0
2, 48985, Note_on_c, 0, 75, 0
2, 48990, Note_on_c, 0, 54, 0
2, 48998, Note_on_c, 0, 72, 0
2, 49044, Control_c, 0, 64, 127
2, 49046, Note_on_c, 0, 34, 85
2, 49049, Note_on_c, 0, 46, 83
2, 49198, Note_on_c, 0, 65, 0
2, 49205, Note_on_c, 0, 65, 73
2, 49281, Note_on_c, 0, 68, 70
2, 49344, Note_on_c, 0, 46, 0
2, 49349, Note_on_c, 0, 46, 74
2, 49351, Note_on_c, 0, 72, 78
2, 49420, Note_on_c, 0, 70, 0
2, 49428, Note_on_c, 0, 70, 77
2, 49432, Note_on_c, 0, 53, 62
2, 49489, Note_on_c, 0, 68, 0
2, 49493, Note_on_c, 0, 56, 69
2, 49497, Note_on_c, 0, 68, 82
2, 49497, Note_on_c, 0, 34, 0
2, 49536, Note_on_c, 0, 65, 0
2, 49546, Note_on_c, 0, 61, 66
2, 49547, Note_on_c, 0, 65, 72
2, 49628, Note_on_c, 0, 77, 0
2, 49634, Note_on_c, 0, 77, 83
2, 49635, Note_on_c, 0, 46, 0
2, 49641, Note_on_c, 0, 46, 74
2, 49708, Note_on_c, 0, 75, 84
2, 49728, Note_on_c, 0, 53, 0
2, 49732, Note_on_c, 0, 53, 60
2, 49781, Note_on_c, 0, 56, 0
2, 49781, Note_on_c, 0, 73, 0
2, 49785, Note_on_c, 0, 56, 70
2, 49788, Note_on_c, 0, 73, 79
2, 49835, Note_on_c, 0, 61, 0
2, 49843, Note_on_c, 0, 72, 0
2, 49846, Note_on_c, 0, 61, 70
2, 49847, Note_on_c, 0, 72, 84
2, 49927, Note_on_c, 0, 46, 0
2, 49931, Note_on_c, 0, 84, 87
2, 49936, Note_on_c, 0, 46, 78
2, 50006, Note_on_c, 0, 82, 81
2, 50065, Note_on_c, 0, 56, 0
2, 50071, Note_on_c, 0, 56, 75
2, 50076, Note_on_c, 0, 80, 76
2, 50119, Note_on_c, 0, 77, 0
2, 50127, Note_on_c, 0, 61, 0
2, 50130, Note_on_c, 0, 77, 84
2, 50131, Note_on_c, 0, 61, 74
2, 50211, Note_on_c, 0, 46, 0
2, 50217, Note_on_c, 0, 46, 82
2, 50222, Note_on_c, 0, 89, 98
2, 50288, Note_on_c, 0, 53, 0
2, 50299, Note_on_c, 0, 87, 80
2, 50300, Note_on_c, 0, 53, 65
2, 50350, Note_on_c, 0, 56, 0
2, 50354, Note_on_c, 0, 56, 71
2, 50360, Note_on_c, 0, 85, 82
2, 50403, Note_on_c, 0, 61, 0
2, 50411, Note_on_c, 0, 84, 0
2, 50414, Note_on_c, 0, 61, 78
2, 50416, Note_on_c, 0, 84, 81
2, 50426, Note_on_c, 0, 82, 0
2, 50436, Note_on_c, 0, 82, 64
2, 50488, Note_on_c, 0, 46, 0
2, 50498, Note_on_c, 0, 46, 75
2, 50503, Note_on_c, 0, 87, 0
2, 50507, Note_on_c, 0, 96, 94
2, 50513, Note_on_c, 0, 87, 70
2, 50565, Note_on_c, 0, 53, 0
2, 50573, Note_on_c, 0, 94, 92
2, 50576, Note_on_c, 0, 53, 65
2, 50618, Note_on_c, 0, 56, 0
2, 50622, Note_on_c, 0, 56, 79
2, 50629, Note_on_c, 0, 92, 74
2, 50672, Note_on_c, 0, 61, 0
2, 50672, Note_on_c, 0, 89, 0
2, 50681, Note_on_c, 0, 61, 80
2, 50684, Note_on_c, 0, 89, 81
2, 50783, Note_on_c, 0, 56, 0
2, 50783, Note_on_c, 0, 94, 0
2, 50783, Note_on_c, 0, 73, 0
2, 50783, Note_on_c, 0, 87, 0
2, 50783, Note_on_c, 0, 72, 0
2, 50783, Note_on_c, 0, 85, 0
2, 50783, Note_on_c, 0, 65, 0
2, 50783, Note_on_c, 0, 92, 0
2, 50783, Note_on_c, 0, 53, 0
2, 50783, Note_on_c, 0, 75, 0
2, 50784, Note_on_c, 0, 70, 0
2, 50784, Note_on_c, 0, 61, 0
2, 50784, Control_c, 0, 64, 0
2, 50784, Note_on_c, 0, 80, 0
2, 50784, Note_on_c, 0, 68, 0
2, 50784, Note_on_c, 0, 84, 0
2, 50784, Note_on_c, 0, 82, 0
2, 50784, Note_on_c, 0, 101, 102
2, 50785, Note_on_c, 0, 96, 0
2, 50787, Note_on_c, 0, 46, 0
2, 50791, Note_on_c, 0, 46, 92
2, 50803, Note_on_c, 0, 77, 0
2, 50841, Control_c, 0, 64, 127
2, 50942, Note_on_c, 0, 61, 101
2, 50943, Note_on_c, 0, 99, 101
2, 51039, Note_on_c, 0, 92, 82
2, 51085, Note_on_c, 0, 58, 94
2, 51085, Note_on_c, 0, 70, 88
2, 51095, Note_on_c, 0, 89, 0
2, 51099, Note_on_c, 0, 89, 79
2, 51237, Note_on_c, 0, 63, 103
2, 51241, Note_on_c, 0, 97, 93
2, 51310, Note_on_c, 0, 97, 0
2, 51317, Note_on_c, 0, 92, 0
2, 51319, Note_on_c, 0, 97, 59
2, 51323, Note_on_c, 0, 92, 71
2, 51371, Note_on_c, 0, 46, 0
2, 51379, Note_on_c, 0, 89, 0
2, 51379, Note_on_c, 0, 46, 93
2, 51384, Note_on_c, 0, 89, 89
2, 51471, Note_on_c, 0, 92, 0
2, 51476, Note_on_c, 0, 92, 67
2, 51536, Note_on_c, 0, 68, 106
2, 51594, Note_on_c, 0, 89, 0
2, 51599, Note_on_c, 0, 89, 84
2, 51686, Note_on_c, 0, 58, 0
2, 51690, Note_on_c, 0, 85, 83
2, 51690, Note_on_c, 0, 58, 86
2, 51793, Note_on_c, 0, 92, 0
2, 51804, Note_on_c, 0, 92, 61
2, 51816, Note_on_c, 0, 70, 0
2, 51826, Note_on_c, 0, 82, 85
2, 51828, Note_on_c, 0, 70, 105
2, 51832, Note_on_c, 0, 82, 0
2, 51924, Note_on_c, 0, 85, 0
2, 51933, Note_on_c, 0, 85, 80
2, 51985, Note_on_c, 0, 58, 0
2, 51993, Note_on_c, 0, 58, 83
2, 52016, Note_on_c, 0, 89, 0
2, 52027, Note_on_c, 0, 89, 88
2, 52121, Note_on_c, 0, 87, 90
2, 52122, Note_on_c, 0, 60, 97
2, 52202, Note_on_c, 0, 80, 77
2, 52270, Note_on_c, 0, 58, 0
2, 52274, Note_on_c, 0, 77, 75
2, 52275, Note_on_c, 0, 58, 89
2, 52331, Note_on_c, 0, 80, 0
2, 52341, Note_on_c, 0, 80, 74
2, 52408, Note_on_c, 0, 61, 0
2, 52408, Note_on_c, 0, 85, 0
2, 52414, Note_on_c, 0, 61, 99
2, 52415, Note_on_c, 0, 85, 104
2, 52420, Control_c, 0, 64, 0
2, 52427, Note_on_c, 0, 99, 0
2, 52427, Note_on_c, 0, 97, 0
2, 52427, Note_on_c, 0, 80, 0
2, 52427, Note_on_c, 0, 46, 0
2, 52427, Note_on_c, 0, 101, 0
2, 52427, Note_on_c, 0, 68, 0
2, 52427, Note_on_c, 0, 87, 0
2, 52427, Note_on_c, 0, 63, 0
2, 52427, Note_on_c, 0, 70, 0
2, 52427, Note_on_c, 0, 58, 0
2, 52428, Note_on_c, 0, 89, 0
2, 52428, Note_on_c, 0, 92, 0
2, 52428, Note_on_c, 0, 60, 0
2, 52454, Note_on_c, 0, 77, 0
2, 52477, Control_c, 0, 64, 127
2, 52492, Note_on_c, 0, 61, 0
2, 52494, Note_on_c, 0, 80, 76
2, 52565, Note_on_c, 0, 77, 83
2, 52567, Note_on_c, 0, 46, 85
2, 52646, Note_on_c, 0, 80, 0
2, 52651, Note_on_c, 0, 80, 75
2, 52718, Note_on_c, 0, 84, 85
2, 52720, Note_on_c, 0, 63, 100
2, 52792, Note_on_c, 0, 77, 0
2, 52803, Note_on_c, 0, 77, 84
2, 52888, Note_on_c, 0, 58, 84
2, 52893, Note_on_c, 0, 70, 76
2, 52976, Note_on_c, 0, 77, 0
2, 52984, Note_on_c, 0, 77, 59
2, 53023, Note_on_c, 0, 68, 108
2, 53068, Note_on_c, 0, 77, 0
2, 53080, Note_on_c, 0, 77, 79
2, 53121, Note_on_c, 0, 73, 86
2, 53168, Note_on_c, 0, 58, 0
2, 53168, Note_on_c, 0, 70, 0
2, 53176, Note_on_c, 0, 58, 96
2, 53179, Note_on_c, 0, 70, 85
2, 53199, Note_on_c, 0, 77, 0
2, 53210, Note_on_c, 0, 77, 74
2, 53299, Note_on_c, 0, 70, 0
2, 53302, Note_on_c, 0, 75, 93
2, 53307, Note_on_c, 0, 70, 106
2, 53360, Note_on_c, 0, 73, 0
2, 53364, Note_on_c, 0, 73, 86
2, 53437, Note_on_c, 0, 75, 0
2, 53444, Note_on_c, 0, 75, 87
2, 53460, Note_on_c, 0, 63, 0
2, 53460, Note_on_c, 0, 70, 0
2, 53466, Note_on_c, 0, 63, 92
2, 53468, Note_on_c, 0, 58, 0
2, 53471, Note_on_c, 0, 70, 91
2, 53472, Note_on_c, 0, 58, 92
2, 53472, Note_on_c, 0, 61, 90
2, 53506, Note_on_c, 0, 77, 0
2, 53515, Note_on_c, 0, 77, 87
2, 53568, Note_on_c, 0, 80, 0
2, 53572, Note_on_c, 0, 80, 80
2, 53630, Note_on_c, 0, 82, 78
2, 53675, Note_on_c, 0, 85, 0
2, 53680, Note_on_c, 0, 85, 100
2, 53704, Control_c, 0, 64, 0
2, 53715, Note_on_c, 0, 58, 0
2, 53716, Note_on_c, 0, 68, 0
2, 53716, Note_on_c, 0, 63, 0
2, 53716, Note_on_c, 0, 80, 0
2, 53716, Note_on_c, 0, 70, 0
2, 53716, Note_on_c, 0, 82, 0
2, 53717, Note_on_c, 0, 61, 0
2, 53717, Note_on_c, 0, 73, 0
2, 53717, Note_on_c, 0, 77, 0
2, 53729, Note_on_c, 0, 46, 0
2, 53736, Note_on_c, 0, 75, 0
2, 53736, Note_on_c, 0, 84, 0
2, 53764, Note_on_c, 0, 87, 111
2, 53767, Note_on_c, 0, 42, 97
2, 53768, Note_on_c, 0, 75, 108
2, 53768, Note_on_c, 0, 30, 95
2, 53772, Note_on_c, 0, 78, 101
2, 53775, Note_on_c, 0, 82, 80
2, 53790, Control_c, 0, 64, 127
2, 54059, Note_on_c, 0, 42, 0
2, 54066, Note_on_c, 0, 42, 69
2, 54139, Note_on_c, 0, 49, 72
2, 54179, Note_on_c, 0, 54, 70
2, 54264, Note_on_c, 0, 56, 79
2, 54351, Note_on_c, 0, 42, 0
2, 54359, Note_on_c, 0, 82, 0
2, 54361, Note_on_c, 0, 42, 88
2, 54366, Note_on_c, 0, 78, 0
2, 54367, Note_on_c, 0, 70, 107
2, 54367, Note_on_c, 0, 82, 110
2, 54368, Control_c, 0, 64, 0
2, 54368, Note_on_c, 0, 49, 0
2, 54369, Note_on_c, 0, 73, 101
2, 54370, Note_on_c, 0, 87, 0
2, 54371, Note_on_c, 0, 54, 0
2, 54371, Note_on_c, 0, 78, 98
2, 54373, Note_on_c, 0, 56, 0
2, 54373, Note_on_c, 0, 75, 0
2, 54389, Note_on_c, 0, 85, 0
2, 54397, Control_c, 0, 64, 127
2, 54412, Note_on_c, 0, 30, 0
2, 54454, Note_on_c, 0, 49, 65
2, 54514, Note_on_c, 0, 54, 77
2, 54592, Note_on_c, 0, 56, 79
2, 54658, Note_on_c, 0, 42, 0
2, 54662, Note_on_c, 0, 42, 81
2, 54766, Note_on_c, 0, 49, 0
2, 54773, Note_on_c, 0, 49, 76
2, 54817, Note_on_c, 0, 84, 107
2, 54819, Note_on_c, 0, 78, 0
2, 54821, Control_c, 0, 64, 0
2, 54823, Note_on_c, 0, 72, 98
2, 54823, Note_on_c, 0, 75, 100
2, 54824, Note_on_c, 0, 78, 100
2, 54873, Control_c, 0, 64, 127
2, 54904, Note_on_c, 0, 56, 0
2, 54958, Note_on_c, 0, 42, 0
2, 54969, Note_on_c, 0, 42, 74
2, 55057, Note_on_c, 0, 49, 0
2, 55066, Note_on_c, 0, 49, 72
2, 55127, Note_on_c, 0, 73, 0
2, 55131, Note_on_c, 0, 80, 104
2, 55134, Note_on_c, 0, 56, 83
2, 55134, Note_on_c, 0, 70, 0
2, 55138, Note_on_c, 0, 73, 90
2, 55145, Note_on_c, 0, 70, 82
2, 55165, Note_on_c, 0, 84, 0
2, 55265, Note_on_c, 0, 42, 0
2, 55269, Note_on_c, 0, 42, 81
2, 55357, Note_on_c, 0, 49, 0
2, 55367, Note_on_c, 0, 49, 64
2, 55411, Note_on_c, 0, 54, 0
2, 55418, Note_on_c, 0, 54, 66
2, 55472, Note_on_c, 0, 56, 0
2, 55479, Note_on_c, 0, 56, 73
2, 55564, Note_on_c, 0, 42, 0
2, 55570, Note_on_c, 0, 42, 70
2, 55656, Note_on_c, 0, 49, 0
2, 55666, Note_on_c, 0, 49, 73
2, 55718, Note_on_c, 0, 70, 0
2, 55718, Note_on_c, 0, 75, 0
2, 55726, Note_on_c, 0, 54, 0
2, 55727, Note_on_c, 0, 75, 105
2, 55728, Note_on_c, 0, 70, 96
2, 55729, Note_on_c, 0, 66, 85
2, 55730, Note_on_c, 0, 63, 90
2, 55730, Note_on_c, 0, 54, 85
2, 55730, Note_on_c, 0, 87, 95
2, 55736, Note_on_c, 0, 78, 0
2, 55737, Control_c, 0, 64, 0
2, 55756, Control_c, 0, 64, 127
2, 55772, Note_on_c, 0, 82, 0
2, 55779, Note_on_c, 0, 87, 0
2, 55787, Note_on_c, 0, 72, 0
2, 55833, Note_on_c, 0, 80, 0
2, 55856, Note_on_c, 0, 42, 0
2, 55864, Note_on_c, 0, 49, 0
2, 55865, Note_on_c, 0, 42, 79
2, 55868, Note_on_c, 0, 49, 60
2, 55948, Note_on_c, 0, 49, 0
2, 55953, Note_on_c, 0, 49, 69
2, 55956, Note_on_c, 0, 54, 0
2, 55956, Note_on_c, 0, 70, 0
2, 55959, Note_on_c, 0, 63, 0
2, 55962, Note_on_c, 0, 54, 68
2, 55963, Note_on_c, 0, 66, 0
2, 55963, Note_on_c, 0, 70, 72
2, 55971, Note_on_c, 0, 56, 0
2, 55979, Note_on_c, 0, 56, 71
2, 56025, Note_on_c, 0, 73, 0
2, 56028, Note_on_c, 0, 77, 110
2, 56030, Note_on_c, 0, 73, 98
2, 56033, Note_on_c, 0, 70, 0
2, 56037, Note_on_c, 0, 65, 90
2, 56038, Note_on_c, 0, 70, 91
2, 56050, Note_on_c, 0, 49, 0
2, 56119, Note_on_c, 0, 42, 0
2, 56122, Note_on_c, 0, 56, 0
2, 56122, Control_c, 0, 64, 0
2, 56125, Note_on_c, 0, 54, 0
2, 56133, Note_on_c, 0, 75, 0
2, 56171, Control_c, 0, 64, 127
2, 56180, Note_on_c, 0, 34, 93
2, 56180, Note_on_c, 0, 46, 98
2, 56332, Note_on_c, 0, 65, 0
2, 56337, Note_on_c, 0, 65, 70
2, 56408, Note_on_c, 0, 58, 60
2, 56412, Note_on_c, 0, 68, 75
2, 56478, Note_on_c, 0, 46, 0
2, 56482, Note_on_c, 0, 46, 67
2, 56483, Note_on_c, 0, 72, 77
2, 56547, Note_on_c, 0, 70, 0
2, 56555, Note_on_c, 0, 58, 0
2, 56559, Note_on_c, 0, 70, 75
2, 56563, Note_on_c, 0, 58, 69
2, 56567, Note_on_c, 0, 53, 57
2, 56619, Note_on_c, 0, 56, 69
2, 56624, Note_on_c, 0, 68, 0
2, 56631, Note_on_c, 0, 68, 82
2, 56670, Note_on_c, 0, 65, 0
2, 56680, Note_on_c, 0, 61, 63
2, 56681, Note_on_c, 0, 65, 70
2, 56762, Note_on_c, 0, 46, 0
2, 56762, Note_on_c, 0, 77, 0
2, 56767, Note_on_c, 0, 77, 84
2, 56767, Note_on_c, 0, 46, 76
2, 56833, Note_on_c, 0, 75, 81
2, 56862, Note_on_c, 0, 53, 0
2, 56872, Note_on_c, 0, 53, 66
2, 56901, Note_on_c, 0, 56, 0
2, 56901, Note_on_c, 0, 73, 0
2, 56909, Note_on_c, 0, 73, 82
2, 56912, Note_on_c, 0, 56, 68
2, 56954, Note_on_c, 0, 72, 0
2, 56962, Note_on_c, 0, 61, 0
2, 56965, Note_on_c, 0, 72, 77
2, 56971, Note_on_c, 0, 61, 69
2, 57047, Note_on_c, 0, 46, 0
2, 57054, Note_on_c, 0, 84, 86
2, 57056, Note_on_c, 0, 46, 85
2, 57125, Note_on_c, 0, 82, 84
2, 57192, Note_on_c, 0, 56, 0
2, 57196, Note_on_c, 0, 80, 78
2, 57197, Note_on_c, 0, 56, 75
2, 57246, Note_on_c, 0, 61, 0
2, 57246, Note_on_c, 0, 77, 0
2, 57255, Note_on_c, 0, 61, 66
2, 57257, Note_on_c, 0, 77, 89
2, 57338, Note_on_c, 0, 46, 0
2, 57342, Note_on_c, 0, 89, 97
2, 57344, Note_on_c, 0, 46, 86
2, 57422, Note_on_c, 0, 87, 81
2, 57477, Note_on_c, 0, 56, 0
2, 57480, Note_on_c, 0, 85, 86
2, 57482, Note_on_c, 0, 56, 64
2, 57538, Note_on_c, 0, 61, 0
2, 57538, Note_on_c, 0, 84, 0
2, 57542, Note_on_c, 0, 84, 81
2, 57545, Note_on_c, 0, 61, 77
2, 57623, Note_on_c, 0, 46, 0
2, 57626, Note_on_c, 0, 92, 100
2, 57629, Note_on_c, 0, 46, 85
2, 57699, Note_on_c, 0, 89, 0
2, 57710, Note_on_c, 0, 89, 92
2, 57715, Note_on_c, 0, 53, 0
2, 57721, Note_on_c, 0, 53, 68
2, 57768, Note_on_c, 0, 56, 0
2, 57768, Note_on_c, 0, 87, 0
2, 57774, Note_on_c, 0, 56, 73
2, 57777, Note_on_c, 0, 87, 82
2, 57830, Note_on_c, 0, 61, 0
2, 57830, Note_on_c, 0, 85, 0
2, 57834, Note_on_c, 0, 61, 72
2, 57836, Note_on_c, 0, 85, 84
2, 57914, Note_on_c, 0, 46, 0
2, 57923, Note_on_c, 0, 46, 86
2, 57924, Note_on_c, 0, 94, 102
2, 57976, Note_on_c, 0, 92, 0
2, 57980, Note_on_c, 0, 92, 81
2, 58030, Note_on_c, 0, 53, 0
2, 58034, Note_on_c, 0, 53, 55
2, 58045, Note_on_c, 0, 56, 0
2, 58045, Note_on_c, 0, 89, 0
2, 58049, Note_on_c, 0, 89, 87
2, 58056, Note_on_c, 0, 56, 75
2, 58106, Note_on_c, 0, 61, 0
2, 58106, Note_on_c, 0, 87, 0
2, 58111, Note_on_c, 0, 61, 82
2, 58117, Note_on_c, 0, 87, 82
2, 58191, Note_on_c, 0, 46, 0
2, 58197, Note_on_c, 0, 46, 79
2, 58201, Note_on_c, 0, 97, 105
2, 58209, Note_on_c, 0, 85, 0
2, 58260, Note_on_c, 0, 53, 0
2, 58260, Note_on_c, 0, 94, 0
2, 58265, Note_on_c, 0, 94, 85
2, 58265, Note_on_c, 0, 53, 61
2, 58298, Note_on_c, 0, 56, 0
2, 58298, Note_on_c, 0, 68, 0
2, 58302, Note_on_c, 0, 68, 70
2, 58302, Note_on_c, 0, 56, 70
2, 58314, Note_on_c, 0, 92, 0
2, 58318, Note_on_c, 0, 92, 74
2, 58329, Note_on_c, 0, 61, 0
2, 58334, Note_on_c, 0, 61, 78
2, 58360, Note_on_c, 0, 89, 0
2, 58364, Note_on_c, 0, 89, 83
2, 58406, Note_on_c, 0, 46, 0
2, 58413, Note_on_c, 0, 46, 78
2, 58426, Note_on_c, 0, 80, 0
2, 58426, Note_on_c, 0, 73, 0
2, 58426, Note_on_c, 0, 61, 0
2, 58426, Note_on_c, 0, 92, 0
2, 58426, Note_on_c, 0, 94, 0
2, 58426, Note_on_c, 0, 68, 0
2, 58426, Note_on_c, 0, 89, 0
2, 58427, Note_on_c, 0, 77, 0
2, 58427, Note_on_c, 0, 82, 0
2, 58427, Note_on_c, 0, 70, 0
2, 58427, Note_on_c, 0, 84, 0
2, 58429, Control_c, 0, 64, 0
2, 58429, Note_on_c, 0, 34, 0
2, 58437, Note_on_c, 0, 97, 0
2, 58444, Note_on_c, 0, 58, 0
2, 58444, Note_on_c, 0, 65, 0
2, 58444, Note_on_c, 0, 72, 0
2, 58444, Note_on_c, 0, 75, 0
2, 58444, Note_on_c, 0, 87, 0
2, 58452, Note_on_c, 0, 53, 0
2, 58457, Note_on_c, 0, 53, 69
2, 58460, Note_on_c, 0, 56, 0
2, 58464, Note_on_c, 0, 56, 91
2, 58478, Note_on_c, 0, 61, 84
2, 58480, Note_on_c, 0, 101, 107
2, 58483, Control_c, 0, 64, 127
2, 58518, Note_on_c, 0, 99, 73
2, 58570, Note_on_c, 0, 97, 94
2, 58630, Note_on_c, 0, 96, 82
2, 58702, Note_on_c, 0, 94, 93
2, 58768, Note_on_c, 0, 92, 87
2, 58810, Note_on_c, 0, 90, 86
2, 58877, Note_on_c, 0, 89, 84
2, 58920, Note_on_c, 0, 96, 0
2, 58924, Note_on_c, 0, 73, 90
2, 58927, Note_on_c, 0, 96, 102
2, 58927, Note_on_c, 0, 68, 91
2, 58927, Note_on_c, 0, 65, 80
2, 58928, Note_on_c, 0, 61, 0
2, 58929, Note_on_c, 0, 58, 77
2, 58932, Note_on_c, 0, 61, 74
2, 58967, Note_on_c, 0, 94, 0
2, 58971, Note_on_c, 0, 94, 92
2, 58982, Control_c, 0, 64, 0
2, 59020, Note_on_c, 0, 92, 0
2, 59032, Note_on_c, 0, 92, 65
2, 59043, Note_on_c, 0, 90, 0
2, 59051, Note_on_c, 0, 90, 79
2, 59059, Note_on_c, 0, 53, 0
2, 59066, Control_c, 0, 64, 127
2, 59097, Note_on_c, 0, 89, 0
2, 59106, Note_on_c, 0, 89, 76
2, 59166, Note_on_c, 0, 87, 85
2, 59226, Note_on_c, 0, 85, 87
2, 59290, Note_on_c, 0, 84, 75
2, 59335, Note_on_c, 0, 68, 0
2, 59335, Note_on_c, 0, 89, 0
2, 59343, Note_on_c, 0, 61, 0
2, 59346, Note_on_c, 0, 68, 91
2, 59346, Note_on_c, 0, 89, 98
2, 59349, Note_on_c, 0, 61, 79
2, 59351, Note_on_c, 0, 65, 0
2, 59355, Note_on_c, 0, 65, 71
2, 59358, Note_on_c, 0, 73, 0
2, 59389, Note_on_c, 0, 87, 0
2, 59389, Control_c, 0, 64, 0
2, 59400, Note_on_c, 0, 87, 86
2, 59420, Note_on_c, 0, 101, 0
2, 59435, Note_on_c, 0, 85, 0
2, 59445, Note_on_c, 0, 85, 91
2, 59473, Control_c, 0, 64, 127
2, 59481, Note_on_c, 0, 84, 0
2, 59492, Note_on_c, 0, 84, 69
2, 59504, Note_on_c, 0, 46, 0
2, 59563, Note_on_c, 0, 82, 82
2, 59589, Note_on_c, 0, 90, 0
2, 59589, Note_on_c, 0, 92, 0
2, 59620, Note_on_c, 0, 80, 65
2, 59658, Note_on_c, 0, 99, 0
2, 59660, Note_on_c, 0, 78, 77
2, 59717, Note_on_c, 0, 77, 72
2, 59765, Note_on_c, 0, 84, 0
2, 59773, Note_on_c, 0, 61, 0
2, 59773, Note_on_c, 0, 97, 0
2, 59776, Note_on_c, 0, 84, 82
2, 59781, Note_on_c, 0, 56, 0
2, 59781, Note_on_c, 0, 65, 0
2, 59783, Note_on_c, 0, 61, 78
2, 59786, Note_on_c, 0, 65, 74
2, 59791, Note_on_c, 0, 56, 74
2, 59804, Note_on_c, 0, 82, 0
2, 59813, Note_on_c, 0, 82, 87
2, 59834, Note_on_c, 0, 96, 0
2, 59865, Note_on_c, 0, 80, 0
2, 59876, Note_on_c, 0, 80, 69
2, 59904, Note_on_c, 0, 78, 0
2, 59908, Note_on_c, 0, 78, 75
2, 59957, Note_on_c, 0, 58, 0
2, 59957, Note_on_c, 0, 77, 0
2, 59964, Note_on_c, 0, 77, 61
2, 59965, Note_on_c, 0, 58, 57
2, 60013, Note_on_c, 0, 75, 77
2, 60076, Note_on_c, 0, 73, 78
2, 60135, Note_on_c, 0, 72, 78
2, 60142, Note_on_c, 0, 53, 50
2, 60151, Note_on_c, 0, 84, 0
2, 60151, Note_on_c, 0, 65, 0
2, 60151, Note_on_c, 0, 58, 0
2, 60151, Note_on_c, 0, 87, 0
2, 60151, Control_c, 0, 64, 0
2, 60152, Note_on_c, 0, 78, 0
2, 60152, Note_on_c, 0, 75, 0
2, 60152, Note_on_c, 0, 94, 0
2, 60152, Note_on_c, 0, 80, 0
2, 60152, Note_on_c, 0, 77, 0
2, 60152, Note_on_c, 0, 73, 0
2, 60153, Note_on_c, 0, 82, 0
2, 60165, Note_on_c, 0, 61, 0
2, 60165, Note_on_c, 0, 85, 0
2, 60165, Note_on_c, 0, 89, 0
2, 60172, Note_on_c, 0, 68, 0
2, 60195, Note_on_c, 0, 53, 0
2, 60195, Note_on_c, 0, 56, 0
2, 60201, Note_on_c, 0, 53, 57
2, 60205, Note_on_c, 0, 56, 66
2, 60207, Note_on_c, 0, 77, 91
2, 60210, Note_on_c, 0, 61, 71
2, 60211, Control_c, 0, 64, 127
2, 60376, Note_on_c, 0, 73, 104
2, 60387, Note_on_c, 0, 61, 0
2, 60393, Note_on_c, 0, 61, 79
2, 60675, Note_on_c, 0, 75, 104
2, 60698, Note_on_c, 0, 70, 85
2, 60699, Note_on_c, 0, 63, 64
2, 60704, Note_on_c, 0, 66, 62
2, 60706, Note_on_c, 0, 61, 0
2, 60706, Note_on_c, 0, 53, 0
2, 60707, Note_on_c, 0, 56, 0
2, 60707, Note_on_c, 0, 77, 0
2, 60708, Note_on_c, 0, 73, 0
2, 60725, Note_on_c, 0, 72, 0
2, 60801, Control_c, 0, 64, 0
2, 60844, Note_on_c, 0, 42, 62
2, 60910, Control_c, 0, 64, 127
2, 60979, Note_on_c, 0, 49, 66
2, 61128, Note_on_c, 0, 54, 65
2, 61263, Note_on_c, 0, 70, 0
2, 61272, Note_on_c, 0, 70, 95
2, 61274, Note_on_c, 0, 56, 74
2, 61428, Note_on_c, 0, 58, 82
2, 61568, Note_on_c, 0, 61, 78
2, 61569, Note_on_c, 0, 68, 97
2, 61708, Note_on_c, 0, 63, 0
2, 61719, Note_on_c, 0, 63, 85
2, 61871, Note_on_c, 0, 42, 0
2, 61871, Note_on_c, 0, 61, 0
2, 61871, Note_on_c, 0, 49, 0
2, 61871, Note_on_c, 0, 75, 0
2, 61871, Note_on_c, 0, 58, 0
2, 61871, Note_on_c, 0, 66, 0
2, 61872, Note_on_c, 0, 54, 0
2, 61872, Note_on_c, 0, 70, 0
2, 61874, Control_c, 0, 64, 0
2, 61885, Note_on_c, 0, 56, 0
2, 61885, Note_on_c, 0, 63, 0
2, 61885, Note_on_c, 0, 68, 0
2, 61888, Note_on_c, 0, 72, 99
2, 61892, Note_on_c, 0, 60, 92
2, 61894, Note_on_c, 0, 44, 79
2, 61894, Note_on_c, 0, 68, 88
2, 61894, Note_on_c, 0, 56, 85
2, 61896, Note_on_c, 0, 63, 83
2, 61897, Note_on_c, 0, 51, 87
2, 61929, Note_on_c, 0, 60, 0
2, 61954, Note_on_c, 0, 56, 0
2, 61962, Control_c, 0, 64, 127
2, 62077, Note_on_c, 0, 63, 0
2, 62101, Control_c, 0, 64, 0
2, 62102, Note_on_c, 0, 51, 0
2, 62103, Note_on_c, 0, 72, 0
2, 62104, Note_on_c, 0, 68, 0
2, 62108, Note_on_c, 0, 44, 0
2, 62198, Note_on_c, 0, 70, 104
2, 62205, Note_on_c, 0, 51, 83
2, 62206, Note_on_c, 0, 63, 88
2, 62206, Note_on_c, 0, 58, 86
2, 62209, Note_on_c, 0, 46, 79
2, 62209, Note_on_c, 0, 39, 74
2, 62231, Control_c, 0, 64, 127
2, 62419, Control_c, 0, 64, 0
2, 62422, Note_on_c, 0, 51, 0
2, 62423, Note_on_c, 0, 46, 0
2, 62424, Note_on_c, 0, 70, 0
2, 62424, Note_on_c, 0, 63, 0
2, 62425, Note_on_c, 0, 39, 0
2, 62425, Note_on_c, 0, 58, 0
2, 62503, Note_on_c, 0, 68, 105
2, 62504, Note_on_c, 0, 56, 91
2, 62505, Note_on_c, 0, 63, 85
2, 62510, Note_on_c, 0, 47, 78
2, 62516, Note_on_c, 0, 40, 80
2, 62517, Note_on_c, 0, 52, 84
2, 62535, Note_on_c, 0, 63, 0
2, 62537, Note_on_c, 0, 47, 0
2, 62553, Note_on_c, 0, 56, 0
2, 62553, Control_c, 0, 64, 127
2, 62561, Note_on_c, 0, 68, 0
2, 62568, Note_on_c, 0, 52, 0
2, 62734, Control_c, 0, 64, 0
2, 62735, Note_on_c, 0, 40, 0
2, 62806, Note_on_c, 0, 80, 106
2, 62811, Note_on_c, 0, 68, 101
2, 62811, Note_on_c, 0, 72, 96
2, 62811, Note_on_c, 0, 75, 98
2, 62812, Note_on_c, 0, 44, 90
2, 62816, Note_on_c, 0, 32, 85
2, 62853, Control_c, 0, 64, 127
2, 62990, Control_c, 0, 64, 0
2, 62993, Note_on_c, 0, 80, 0
2, 62994, Note_on_c, 0, 75, 0
2, 62994, Note_on_c, 0, 72, 0
2, 62995, Note_on_c, 0, 32, 0
2, 62999, Note_on_c, 0, 68, 0
2, 63006, Note_on_c, 0, 44, 0
2, 63119, Note_on_c, 0, 70, 100
2, 63120, Note_on_c, 0, 41, 85
2, 63120, Note_on_c, 0, 82, 108
2, 63123, Note_on_c, 0, 29, 86
2, 63124, Note_on_c, 0, 46, 98
2, 63124, Note_on_c, 0, 74, 97
2, 63124, Note_on_c, 0, 77, 100
2, 63126, Note_on_c, 0, 34, 90
2, 63129, Note_on_c, 0, 29, 0
2, 63144, Control_c, 0, 64, 127
2, 63446, Note_on_c, 0, 89, 74
2, 63515, Note_on_c, 0, 94, 85
2, 63544, Note_on_c, 0, 82, 0
2, 63547, Note_on_c, 0, 99, 92
2, 63551, Note_on_c, 0, 82, 92
2, 63552, Note_on_c, 0, 77, 0
2, 63552, Note_on_c, 0, 99, 0
2, 63561, Note_on_c, 0, 77, 91
2, 63603, Note_on_c, 0, 98, 91
2, 63667, Note_on_c, 0, 94, 0
2, 63675, Note_on_c, 0, 94, 73
2, 63697, Note_on_c, 0, 89, 0
2, 63705, Note_on_c, 0, 70, 0
2, 63706, Note_on_c, 0, 89, 72
2, 63709, Note_on_c, 0, 70, 85
2, 63785, Note_on_c, 0, 87, 71
2, 63811, Note_on_c, 0, 86, 74
2, 63874, Note_on_c, 0, 82, 0
2, 63882, Note_on_c, 0, 82, 78
2, 63928, Note_on_c, 0, 77, 0
2, 63937, Note_on_c, 0, 77, 72
2, 63982, Note_on_c, 0, 87, 0
2, 63987, Note_on_c, 0, 87, 90
2, 63989, Note_on_c, 0, 70, 0
2, 63998, Note_on_c, 0, 70, 86
2, 64002, Note_on_c, 0, 65, 67
2, 64020, Note_on_c, 0, 86, 0
2, 64025, Note_on_c, 0, 86, 73
2, 64089, Note_on_c, 0, 82, 0
2, 64096, Note_on_c, 0, 82, 77
2, 64143, Note_on_c, 0, 77, 0
2, 64148, Note_on_c, 0, 77, 70
2, 64158, Note_on_c, 0, 58, 64
2, 64231, Note_on_c, 0, 75, 66
2, 64258, Note_on_c, 0, 74, 0
2, 64270, Note_on_c, 0, 74, 78
2, 64327, Note_on_c, 0, 70, 0
2, 64331, Note_on_c, 0, 70, 72
2, 64373, Note_on_c, 0, 65, 0
2, 64384, Note_on_c, 0, 65, 68
2, 64419, Note_on_c, 0, 58, 0
2, 64419, Note_on_c, 0, 75, 0
2, 64423, Note_on_c, 0, 75, 89
2, 64424, Note_on_c, 0, 58, 75
2, 64427, Note_on_c, 0, 70, 0
2, 64431, Note_on_c, 0, 53, 67
2, 64438, Note_on_c, 0, 70, 79
2, 64458, Note_on_c, 0, 74, 0
2, 64462, Note_on_c, 0, 74, 68
2, 64519, Note_on_c, 0, 70, 0
2, 64523, Note_on_c, 0, 70, 68
2, 64558, Note_on_c, 0, 65, 0
2, 64564, Note_on_c, 0, 65, 65
2, 64581, Note_on_c, 0, 46, 0
2, 64591, Note_on_c, 0, 46, 65
2, 64596, Note_on_c, 0, 58, 0
2, 64607, Note_on_c, 0, 58, 57
2, 64685, Note_on_c, 0, 62, 63
2, 64742, Note_on_c, 0, 58, 0
2, 64748, Note_on_c, 0, 58, 69
2, 64765, Note_on_c, 0, 53, 0
2, 64776, Note_on_c, 0, 53, 57
2, 64835, Note_on_c, 0, 63, 63
2, 64857, Note_on_c, 0, 34, 0
2, 64865, Note_on_c, 0, 41, 0
2, 64865, Note_on_c, 0, 62, 0
2, 64865, Note_on_c, 0, 34, 53
2, 64873, Note_on_c, 0, 41, 50
2, 64876, Note_on_c, 0, 62, 57
2, 64949, Note_on_c, 0, 58, 0
2, 64960, Note_on_c, 0, 58, 61
2, 64965, Note_on_c, 0, 53, 0
2, 64975, Note_on_c, 0, 53, 55
2, 65003, Note_on_c, 0, 34, 0
2, 65009, Note_on_c, 0, 34, 52
2, 65062, Note_on_c, 0, 51, 66
2, 65124, Note_on_c, 0, 50, 61
2, 65172, Note_on_c, 0, 46, 0
2, 65180, Note_on_c, 0, 46, 71
2, 65218, Note_on_c, 0, 41, 0
2, 65222, Note_on_c, 0, 41, 61
2, 65335, Note_on_c, 0, 39, 56
2, 65426, Note_on_c, 0, 38, 57
2, 65544, Control_c, 0, 64, 0
2, 65555, Note_on_c, 0, 41, 0
2, 65579, Note_on_c, 0, 51, 0
2, 65587, Note_on_c, 0, 77, 0
2, 65587, Note_on_c, 0, 87, 0
2, 65587, Note_on_c, 0, 89, 0
2, 65587, Note_on_c, 0, 94, 0
2, 65594, Note_on_c, 0, 39, 0
2, 65594, Note_on_c, 0, 74, 0
2, 65594, Note_on_c, 0, 82, 0
2, 65594, Note_on_c, 0, 98, 0
2, 65602, Note_on_c, 0, 86, 0
2, 65610, Note_on_c, 0, 63, 0
2, 65625, Note_on_c, 0, 75, 0
2, 65633, Note_on_c, 0, 70, 0
2, 65648, Note_on_c, 0, 34, 0
2, 65648, Note_on_c, 0, 58, 0
2, 65658, Note_on_c, 0, 34, 57
2, 65658, Note_on_c, 0, 22, 57
2, 65664, Note_on_c, 0, 50, 0
2, 65664, Note_on_c, 0, 62, 0
2, 65671, Note_on_c, 0, 38, 0
2, 65671, Note_on_c, 0, 53, 0
2, 65832, Control_c, 0, 64, 127
2, 65863, Control_c, 0, 64, 0
2, 65948, Control_c, 0, 64, 127
2, 66616, Note_on_c, 0, 46, 0
2, 67200, Note_on_c, 0, 22, 0
2, 67200, Note_on_c, 0, 65, 0
2, 68333, Control_c, 0, 64, 0
2, 68371, Note_on_c, 0, 34, 0
2, 68621, Note_on_c, 0, 56, 59
2, 68684, Note_on_c, 0, 61, 65
2, 68715, Note_on_c, 0, 63, 73
2, 68739, Note_on_c, 0, 42, 56
2, 68756, Note_on_c, 0, 61, 0
2, 68761, Note_on_c, 0, 68, 84
2, 68797, Control_c, 0, 64, 127
2, 68812, Note_on_c, 0, 56, 0
2, 68939, Note_on_c, 0, 49, 55
2, 69085, Note_on_c, 0, 73, 86
2, 69104, Note_on_c, 0, 68, 0
2, 69109, Note_on_c, 0, 61, 44
2, 69109, Note_on_c, 0, 56, 52
2, 69114, Note_on_c, 0, 68, 53
2, 69256, Note_on_c, 0, 75, 87
2, 69258, Note_on_c, 0, 42, 0
2, 69264, Note_on_c, 0, 72, 73
2, 69265, Note_on_c, 0, 63, 0
2, 69268, Note_on_c, 0, 42, 53
2, 69276, Note_on_c, 0, 63, 47
2, 69300, Control_c, 0, 64, 0
2, 69302, Note_on_c, 0, 49, 0
2, 69302, Note_on_c, 0, 56, 0
2, 69303, Note_on_c, 0, 68, 0
2, 69306, Note_on_c, 0, 73, 0
2, 69319, Note_on_c, 0, 61, 0
2, 69427, Control_c, 0, 64, 127
2, 69441, Note_on_c, 0, 44, 58
2, 69480, Note_on_c, 0, 42, 0
2, 69603, Note_on_c, 0, 63, 0
2, 69603, Note_on_c, 0, 75, 0
2, 69614, Note_on_c, 0, 63, 67
2, 69614, Note_on_c, 0, 75, 92
2, 69620, Note_on_c, 0, 49, 52
2, 69791, Note_on_c, 0, 56, 56
2, 69949, Note_on_c, 0, 44, 0
2, 69953, Note_on_c, 0, 44, 59
2, 69960, Note_on_c, 0, 73, 91
2, 69976, Note_on_c, 0, 68, 73
2, 69983, Note_on_c, 0, 49, 0
2, 69983, Note_on_c, 0, 56, 0
2, 69984, Note_on_c, 0, 75, 0
2, 69984, Note_on_c, 0, 72, 0
2, 69985, Note_on_c, 0, 63, 0
2, 69985, Control_c, 0, 64, 0
2, 69991, Note_on_c, 0, 61, 52
2, 69995, Note_on_c, 0, 65, 54
2, 70112, Note_on_c, 0, 44, 0
2, 70120, Note_on_c, 0, 46, 58
2, 70179, Control_c, 0, 64, 127
2, 70322, Note_on_c, 0, 80, 86
2, 70325, Note_on_c, 0, 68, 0
2, 70329, Note_on_c, 0, 56, 58
2, 70334, Note_on_c, 0, 68, 54
2, 70494, Note_on_c, 0, 61, 0
2, 70505, Note_on_c, 0, 61, 47
2, 70648, Note_on_c, 0, 56, 0
2, 70658, Note_on_c, 0, 56, 45
2, 70659, Note_on_c, 0, 44, 48
2, 70660, Note_on_c, 0, 72, 82
2, 70671, Note_on_c, 0, 65, 0
2, 70817, Note_on_c, 0, 73, 0
2, 70826, Note_on_c, 0, 73, 77
2, 70844, Note_on_c, 0, 53, 51
2, 70909, Note_on_c, 0, 72, 0
2, 70914, Note_on_c, 0, 72, 72
2, 71016, Note_on_c, 0, 68, 0
2, 71026, Note_on_c, 0, 68, 82
2, 71178, Note_on_c, 0, 61, 0
2, 71183, Note_on_c, 0, 61, 55
2, 71324, Note_on_c, 0, 56, 0
2, 71333, Note_on_c, 0, 56, 52
2, 71500, Note_on_c, 0, 53, 0
2, 71511, Note_on_c, 0, 53, 52
2, 71662, Note_on_c, 0, 56, 0
2, 71672, Note_on_c, 0, 56, 56
2, 71838, Note_on_c, 0, 61, 0
2, 71844, Note_on_c, 0, 61, 65
2, 72000, Note_on_c, 0, 56, 0
2, 72010, Note_on_c, 0, 56, 51
2, 72176, Note_on_c, 0, 53, 0
2, 72183, Note_on_c, 0, 53, 62
2, 72322, Note_on_c, 0, 56, 0
2, 72331, Note_on_c, 0, 56, 61
2, 72499, Note_on_c, 0, 61, 0
2, 72510, Note_on_c, 0, 61, 63
2, 72645, Note_on_c, 0, 56, 0
2, 72655, Note_on_c, 0, 56, 59
2, 72829, Note_on_c, 0, 53, 0
2, 72837, Note_on_c, 0, 53, 57
2, 72975, Note_on_c, 0, 56, 0
2, 72979, Note_on_c, 0, 56, 61
2, 73159, Note_on_c, 0, 61, 0
2, 73165, Note_on_c, 0, 61, 64
2, 73305, Note_on_c, 0, 56, 0
2, 73312, Note_on_c, 0, 56, 58
2, 73497, Note_on_c, 0, 53, 0
2, 73504, Note_on_c, 0, 53, 58
2, 73651, Note_on_c, 0, 56, 0
2, 73662, Note_on_c, 0, 56, 66
2, 73835, Note_on_c, 0, 61, 0
2, 73841, Note_on_c, 0, 61, 70
2, 73996, Note_on_c, 0, 56, 0
2, 74006, Note_on_c, 0, 56, 70
2, 74145, Note_on_c, 0, 58, 65
2, 74183, Control_c, 0, 64, 0
2, 74186, Note_on_c, 0, 68, 0
2, 74186, Note_on_c, 0, 56, 0
2, 74186, Note_on_c, 0, 72, 0
2, 74188, Note_on_c, 0, 73, 0
2, 74189, Note_on_c, 0, 53, 0
2, 74190, Note_on_c, 0, 44, 0
2, 74191, Note_on_c, 0, 46, 0
2, 74196, Note_on_c, 0, 61, 0
2, 74202, Note_on_c, 0, 63, 66
2, 74204, Note_on_c, 0, 80, 0
2, 74207, Note_on_c, 0, 61, 67
2, 74222, Note_on_c, 0, 70, 89
2, 74227, Note_on_c, 0, 58, 0
2, 74280, Control_c, 0, 64, 127
2, 74405, Note_on_c, 0, 49, 55
2, 74549, Note_on_c, 0, 73, 85
2, 74572, Note_on_c, 0, 61, 0
2, 74575, Note_on_c, 0, 56, 48
2, 74577, Note_on_c, 0, 61, 55
2, 74711, Note_on_c, 0, 63, 0
2, 74718, Note_on_c, 0, 73, 0
2, 74719, Note_on_c, 0, 49, 0
2, 74719, Note_on_c, 0, 70, 0
2, 74720, Note_on_c, 0, 61, 0
2, 74720, Control_c, 0, 64, 0
2, 74741, Note_on_c, 0, 56, 0
2, 74746, Note_on_c, 0, 72, 83
2, 74766, Note_on_c, 0, 44, 50
2, 74767, Note_on_c, 0, 60, 55
2, 74767, Note_on_c, 0, 68, 59
2, 74775, Note_on_c, 0, 63, 51
2, 74910, Control_c, 0, 64, 127
2, 75118, Note_on_c, 0, 72, 0
2, 75128, Note_on_c, 0, 72, 86
2, 75133, Note_on_c, 0, 60, 0
2, 75133, Note_on_c, 0, 51, 58
2, 75141, Note_on_c, 0, 60, 57
2, 75428, Note_on_c, 0, 42, 49
2, 75475, Note_on_c, 0, 49, 53
2, 75521, Note_on_c, 0, 56, 51
2, 75521, Note_on_c, 0, 61, 61
2, 75578, Note_on_c, 0, 66, 56
2, 75609, Note_on_c, 0, 68, 0
2, 75615, Note_on_c, 0, 68, 69
2, 75619, Control_c, 0, 64, 0
2, 75620, Note_on_c, 0, 63, 0
2, 75620, Note_on_c, 0, 44, 0
2, 75621, Note_on_c, 0, 51, 0
2, 75640, Note_on_c, 0, 72, 0
2, 75648, Note_on_c, 0, 60, 0
2, 75659, Note_on_c, 0, 73, 75
2, 76085, Control_c, 0, 64, 127
2, 77730, Control_c, 0, 64, 0
2, 77806, Note_on_c, 0, 68, 0
2, 77890, Note_on_c, 0, 61, 0
2, 77921, Note_on_c, 0, 66, 0
2, 77967, Note_on_c, 0, 56, 0
2, 78128, Note_on_c, 0, 73, 0
2, 78194, Note_on_c, 0, 65, 45
2, 78374, Control_c, 0, 64, 127
2, 78477, Note_on_c, 0, 66, 54
2, 78634, Note_on_c, 0, 68, 63
2, 78720, Note_on_c, 0, 42, 0
2, 78720, Note_on_c, 0, 49, 0
2, 78777, Note_on_c, 0, 70, 77
2, 78894, Note_on_c, 0, 72, 79
2, 79007, Note_on_c, 0, 73, 69
2, 79123, Note_on_c, 0, 75, 66
2, 79256, Note_on_c, 0, 77, 70
2, 79379, Note_on_c, 0, 78, 71
2, 79516, Note_on_c, 0, 80, 62
2, 79672, Note_on_c, 0, 82, 67
2, 79884, Note_on_c, 0, 84, 69
2, 79886, Note_on_c, 0, 63, 37
2, 79895, Note_on_c, 0, 63, 0
2, 80098, Note_on_c, 0, 85, 66
2, 80412, Note_on_c, 0, 87, 75
2, 80867, Note_on_c, 0, 89, 84
2, 80868, Note_on_c, 0, 54, 55
2, 80896, Note_on_c, 0, 82, 0
2, 80896, Note_on_c, 0, 78, 0
2, 80896, Note_on_c, 0, 68, 0
2, 80896, Note_on_c, 0, 73, 0
2, 80897, Note_on_c, 0, 70, 0
2, 80897, Note_on_c, 0, 77, 0
2, 80897, Note_on_c, 0, 75, 0
2, 80897, Note_on_c, 0, 66, 0
2, 80897, Note_on_c, 0, 84, 0
2, 80897, Note_on_c, 0, 65, 0
2, 80898, Note_on_c, 0, 87, 0
2, 80898, Note_on_c, 0, 72, 0
2, 80898, Note_on_c, 0, 85, 0
2, 80898, Note_on_c, 0, 80, 0
2, 80908, Control_c, 0, 64, 0
2, 80977, Control_c, 0, 64, 127
2, 81076, Note_on_c, 0, 61, 67
2, 81089, Note_on_c, 0, 80, 64
2, 81265, Note_on_c, 0, 87, 88
2, 81281, Note_on_c, 0, 68, 64
2, 81438, Note_on_c, 0, 54, 0
2, 81438, Note_on_c, 0, 80, 0
2, 81444, Note_on_c, 0, 54, 53
2, 81447, Note_on_c, 0, 80, 63
2, 81580, Control_c, 0, 64, 0
2, 81616, Note_on_c, 0, 56, 64
2, 81649, Note_on_c, 0, 77, 66
2, 81653, Control_c, 0, 64, 127
2, 81776, Note_on_c, 0, 80, 0
2, 81784, Note_on_c, 0, 61, 0
2, 81788, Note_on_c, 0, 80, 78
2, 81788, Note_on_c, 0, 61, 64
2, 81945, Note_on_c, 0, 68, 0
2, 81945, Note_on_c, 0, 87, 0
2, 81954, Note_on_c, 0, 87, 90
2, 81956, Note_on_c, 0, 68, 75
2, 82099, Note_on_c, 0, 56, 0
2, 82110, Note_on_c, 0, 56, 52
2, 82129, Note_on_c, 0, 80, 0
2, 82140, Note_on_c, 0, 80, 64
2, 82295, Note_on_c, 0, 61, 0
2, 82296, Note_on_c, 0, 80, 0
2, 82298, Note_on_c, 0, 68, 0
2, 82298, Note_on_c, 0, 77, 0
2, 82301, Control_c, 0, 64, 0
2, 82304, Note_on_c, 0, 68, 55
2, 82306, Note_on_c, 0, 89, 0
2, 82308, Note_on_c, 0, 58, 65
2, 82309, Note_on_c, 0, 77, 67
2, 82314, Note_on_c, 0, 54, 0
2, 82344, Note_on_c, 0, 56, 0
2, 82406, Note_on_c, 0, 68, 0
2, 82414, Control_c, 0, 64, 127
2, 82481, Note_on_c, 0, 80, 66
2, 82481, Note_on_c, 0, 61, 63
2, 82652, Note_on_c, 0, 87, 0
2, 82657, Note_on_c, 0, 87, 84
2, 82805, Note_on_c, 0, 61, 0
2, 82816, Note_on_c, 0, 61, 56
2, 82821, Note_on_c, 0, 80, 0
2, 82831, Note_on_c, 0, 80, 63
2, 82990, Note_on_c, 0, 58, 0
2, 82990, Note_on_c, 0, 77, 0
2, 82994, Note_on_c, 0, 58, 63
2, 82995, Note_on_c, 0, 77, 64
2, 83143, Note_on_c, 0, 61, 0
2, 83143, Note_on_c, 0, 80, 0
2, 83151, Note_on_c, 0, 61, 60
2, 83154, Note_on_c, 0, 80, 69
2, 83320, Note_on_c, 0, 87, 0
2, 83329, Note_on_c, 0, 87, 81
2, 83466, Note_on_c, 0, 61, 0
2, 83477, Note_on_c, 0, 61, 51
2, 83504, Note_on_c, 0, 80, 0
2, 83513, Note_on_c, 0, 80, 70
2, 83665, Note_on_c, 0, 58, 0
2, 83670, Note_on_c, 0, 58, 68
2, 83673, Note_on_c, 0, 77, 0
2, 83677, Note_on_c, 0, 77, 65
2, 83834, Note_on_c, 0, 61, 0
2, 83840, Note_on_c, 0, 61, 59
2, 83842, Note_on_c, 0, 80, 0
2, 83852, Note_on_c, 0, 80, 70
2, 84011, Note_on_c, 0, 87, 0
2, 84022, Note_on_c, 0, 87, 80
2, 84188, Note_on_c, 0, 61, 0
2, 84188, Note_on_c, 0, 80, 0
2, 84192, Note_on_c, 0, 80, 69
2, 84193, Note_on_c, 0, 61, 57
2, 84349, Note_on_c, 0, 58, 0
2, 84349, Note_on_c, 0, 77, 0
2, 84359, Note_on_c, 0, 58, 67
2, 84359, Note_on_c, 0, 77, 65
2, 84503, Note_on_c, 0, 61, 0
2, 84513, Note_on_c, 0, 61, 58
2, 84533, Note_on_c, 0, 80, 0
2, 84537, Note_on_c, 0, 80, 68
2, 84710, Note_on_c, 0, 87, 0
2, 84715, Note_on_c, 0, 87, 75
2, 84864, Note_on_c, 0, 80, 0
2, 84870, Note_on_c, 0, 80, 63
2, 84902, Note_on_c, 0, 61, 0
2, 84907, Note_on_c, 0, 61, 59
2, 85079, Note_on_c, 0, 58, 0
2, 85079, Note_on_c, 0, 77, 0
2, 85086, Note_on_c, 0, 58, 57
2, 85088, Note_on_c, 0, 77, 60
2, 85278, Note_on_c, 0, 61, 0
2, 85284, Note_on_c, 0, 61, 58
2, 85286, Note_on_c, 0, 80, 0
2, 85290, Note_on_c, 0, 80, 66
2, 85486, Note_on_c, 0, 58, 0
2, 85486, Note_on_c, 0, 87, 0
2, 85495, Note_on_c, 0, 58, 37
2, 85495, Note_on_c, 0, 87, 72
2, 85693, Note_on_c, 0, 61, 0
2, 85701, Note_on_c, 0, 80, 0
2, 85704, Note_on_c, 0, 61, 53
2, 85705, Note_on_c, 0, 80, 60
2, 85939, Note_on_c, 0, 58, 0
2, 85939, Note_on_c, 0, 77, 0
2, 85943, Note_on_c, 0, 77, 60
2, 85944, Note_on_c, 0, 58, 60
2, 86208, Note_on_c, 0, 61, 0
2, 86208, Note_on_c, 0, 80, 0
2, 86219, Note_on_c, 0, 61, 54
2, 86219, Note_on_c, 0, 80, 65
2, 86530, Note_on_c, 0, 87, 0
2, 86535, Note_on_c, 0, 63, 35
2, 86535, Note_on_c, 0, 87, 77
2, 86545, Note_on_c, 0, 63, 0
2, 86920, Note_on_c, 0, 85, 70
2, 87375, Note_on_c, 0, 89, 93
2, 87378, Note_on_c, 0, 54, 58
2, 87382, Note_on_c, 0, 87, 0
2, 87384, Note_on_c, 0, 77, 0
2, 87384, Note_on_c, 0, 85, 0
2, 87385, Control_c, 0, 64, 0
2, 87385, Note_on_c, 0, 80, 0
2, 87390, Note_on_c, 0, 61, 0
2, 87398, Note_on_c, 0, 58, 0
2, 87459, Control_c, 0, 64, 127
2, 87582, Note_on_c, 0, 80, 66
2, 87582, Note_on_c, 0, 61, 60
2, 87760, Note_on_c, 0, 87, 88
2, 87766, Note_on_c, 0, 68, 70
2, 87928, Note_on_c, 0, 54, 0
2, 87928, Note_on_c, 0, 80, 0
2, 87932, Note_on_c, 0, 80, 68
2, 87933, Note_on_c, 0, 54, 55
2, 88063, Control_c, 0, 64, 0
2, 88070, Note_on_c, 0, 68, 0
2, 88070, Note_on_c, 0, 61, 0
2, 88073, Note_on_c, 0, 54, 0
2, 88079, Note_on_c, 0, 87, 0
2, 88095, Note_on_c, 0, 56, 59
2, 88109, Note_on_c, 0, 77, 63
2, 88135, Control_c, 0, 64, 127
2, 88174, Note_on_c, 0, 89, 0
2, 88266, Note_on_c, 0, 80, 0
2, 88270, Note_on_c, 0, 80, 72
2, 88298, Note_on_c, 0, 61, 55
2, 88446, Note_on_c, 0, 87, 90
2, 88448, Note_on_c, 0, 68, 74
2, 88611, Note_on_c, 0, 56, 0
2, 88622, Note_on_c, 0, 56, 62
2, 88634, Note_on_c, 0, 80, 0
2, 88640, Note_on_c, 0, 80, 63
2, 88781, Note_on_c, 0, 87, 0
2, 88782, Note_on_c, 0, 61, 0
2, 88783, Note_on_c, 0, 53, 50
2, 88783, Control_c, 0, 64, 0
2, 88784, Note_on_c, 0, 56, 0
2, 88784, Note_on_c, 0, 80, 0
2, 88788, Note_on_c, 0, 68, 0
2, 88796, Note_on_c, 0, 77, 0
2, 88798, Note_on_c, 0, 68, 50
2, 88806, Note_on_c, 0, 77, 66
2, 88857, Note_on_c, 0, 68, 0
2, 88872, Control_c, 0, 64, 127
2, 88966, Note_on_c, 0, 80, 68
2, 88967, Note_on_c, 0, 61, 60
2, 89153, Note_on_c, 0, 87, 83
2, 89287, Note_on_c, 0, 61, 0
2, 89291, Note_on_c, 0, 61, 60
2, 89310, Note_on_c, 0, 80, 0
2, 89320, Note_on_c, 0, 80, 63
2, 89464, Note_on_c, 0, 53, 0
2, 89475, Note_on_c, 0, 53, 52
2, 89479, Note_on_c, 0, 77, 0
2, 89490, Note_on_c, 0, 77, 66
2, 89633, Note_on_c, 0, 61, 0
2, 89640, Note_on_c, 0, 61, 59
2, 89640, Note_on_c, 0, 80, 0
2, 89648, Note_on_c, 0, 80, 68
2, 89817, Note_on_c, 0, 53, 0
2, 89817, Note_on_c, 0, 87, 0
2, 89826, Note_on_c, 0, 87, 82
2, 89827, Note_on_c, 0, 53, 44
2, 89978, Note_on_c, 0, 61, 0
2, 89990, Note_on_c, 0, 61, 64
2, 90001, Note_on_c, 0, 80, 0
2, 90006, Note_on_c, 0, 80, 66
2, 90163, Note_on_c, 0, 53, 0
2, 90163, Note_on_c, 0, 77, 0
2, 90167, Note_on_c, 0, 77, 65
2, 90168, Note_on_c, 0, 53, 54
2, 90332, Note_on_c, 0, 61, 0
2, 90332, Note_on_c, 0, 80, 0
2, 90336, Note_on_c, 0, 80, 65
2, 90336, Note_on_c, 0, 61, 57
2, 90508, Note_on_c, 0, 53, 0
2, 90508, Note_on_c, 0, 87, 0
2, 90515, Note_on_c, 0, 53, 43
2, 90515, Note_on_c, 0, 87, 83
2, 90677, Note_on_c, 0, 61, 0
2, 90677, Note_on_c, 0, 80, 0
2, 90682, Note_on_c, 0, 61, 62
2, 90684, Note_on_c, 0, 80, 58
2, 90854, Note_on_c, 0, 53, 0
2, 90854, Note_on_c, 0, 77, 0
2, 90860, Note_on_c, 0, 77, 64
2, 90864, Note_on_c, 0, 53, 45
2, 91015, Note_on_c, 0, 61, 0
2, 91015, Note_on_c, 0, 80, 0
2, 91020, Note_on_c, 0, 61, 59
2, 91023, Note_on_c, 0, 80, 65
2, 91207, Note_on_c, 0, 53, 0
2, 91207, Note_on_c, 0, 87, 0
2, 91217, Note_on_c, 0, 87, 77
2, 91217, Note_on_c, 0, 53, 39
2, 91384, Note_on_c, 0, 61, 0
2, 91384, Note_on_c, 0, 80, 0
2, 91388, Note_on_c, 0, 61, 62
2, 91390, Note_on_c, 0, 80, 68
2, 91584, Note_on_c, 0, 53, 0
2, 91584, Note_on_c, 0, 77, 0
2, 91589, Note_on_c, 0, 53, 49
2, 91590, Note_on_c, 0, 77, 64
2, 91776, Note_on_c, 0, 61, 0
2, 91776, Note_on_c, 0, 80, 0
2, 91780, Note_on_c, 0, 61, 59
2, 91786, Note_on_c, 0, 80, 68
2, 91975, Note_on_c, 0, 53, 0
2, 91975, Note_on_c, 0, 87, 0
2, 91982, Note_on_c, 0, 87, 75
2, 91985, Note_on_c, 0, 53, 38
2, 92190, Note_on_c, 0, 61, 0
2, 92190, Note_on_c, 0, 80, 0
2, 92199, Note_on_c, 0, 61, 46
2, 92201, Note_on_c, 0, 80, 66
2, 92434, Note_on_c, 0, 56, 51
2, 92444, Note_on_c, 0, 77, 0
2, 92455, Note_on_c, 0, 77, 57
2, 92476, Note_on_c, 0, 53, 0
2, 92477, Note_on_c, 0, 61, 0
2, 92480, Control_c, 0, 64, 0
2, 92536, Control_c, 0, 64, 127
2, 92710, Note_on_c, 0, 61, 56
2, 92712, Note_on_c, 0, 80, 0
2, 92719, Note_on_c, 0, 80, 63
2, 93012, Note_on_c, 0, 56, 0
2, 93012, Note_on_c, 0, 87, 0
2, 93017, Note_on_c, 0, 63, 29
2, 93018, Note_on_c, 0, 56, 36
2, 93018, Note_on_c, 0, 87, 77
2, 93027, Note_on_c, 0, 63, 0
2, 93393, Note_on_c, 0, 85, 64
2, 93411, Note_on_c, 0, 56, 0
2, 93421, Note_on_c, 0, 56, 20
2, 93783, Note_on_c, 0, 89, 88
2, 93801, Note_on_c, 0, 54, 46
2, 93816, Note_on_c, 0, 87, 0
2, 93816, Note_on_c, 0, 61, 0
2, 93817, Note_on_c, 0, 85, 0
2, 93818, Note_on_c, 0, 56, 0
2, 93820, Control_c, 0, 64, 0
2, 93820, Note_on_c, 0, 80, 0
2, 93841, Note_on_c, 0, 77, 0
2, 93872, Control_c, 0, 64, 127
2, 93976, Note_on_c, 0, 80, 69
2, 93995, Note_on_c, 0, 61, 59
2, 94150, Note_on_c, 0, 85, 84
2, 94155, Note_on_c, 0, 54, 0
2, 94158, Control_c, 0, 64, 0
2, 94159, Note_on_c, 0, 68, 54
2, 94179, Control_c, 0, 64, 127
2, 94322, Note_on_c, 0, 87, 87
2, 94340, Note_on_c, 0, 54, 47
2, 94341, Note_on_c, 0, 80, 0
2, 94351, Note_on_c, 0, 80, 60
2, 94468, Control_c, 0, 64, 0
2, 94494, Control_c, 0, 64, 127
2, 94506, Note_on_c, 0, 56, 57
2, 94636, Note_on_c, 0, 63, 15
2, 94640, Note_on_c, 0, 63, 0
2, 94648, Note_on_c, 0, 87, 0
2, 94657, Note_on_c, 0, 87, 76
2, 94679, Note_on_c, 0, 61, 0
2, 94686, Note_on_c, 0, 80, 0
2, 94690, Note_on_c, 0, 61, 55
2, 94690, Note_on_c, 0, 80, 71
2, 94832, Note_on_c, 0, 68, 0
2, 94836, Note_on_c, 0, 68, 64
2, 94986, Note_on_c, 0, 56, 0
2, 94993, Note_on_c, 0, 85, 0
2, 94996, Note_on_c, 0, 56, 55
2, 94997, Note_on_c, 0, 85, 88
2, 95009, Note_on_c, 0, 80, 0
2, 95009, Note_on_c, 0, 89, 0
2, 95016, Note_on_c, 0, 54, 0
2, 95019, Note_on_c, 0, 80, 64
2, 95116, Control_c, 0, 64, 0
2, 95118, Note_on_c, 0, 61, 0
2, 95119, Note_on_c, 0, 56, 0
2, 95132, Note_on_c, 0, 87, 0
2, 95162, Note_on_c, 0, 68, 0
2, 95173, Note_on_c, 0, 58, 58
2, 95201, Control_c, 0, 64, 127
2, 95337, Note_on_c, 0, 92, 95
2, 95354, Note_on_c, 0, 80, 0
2, 95361, Note_on_c, 0, 80, 69
2, 95363, Note_on_c, 0, 61, 54
2, 95511, Note_on_c, 0, 73, 67
2, 95676, Note_on_c, 0, 84, 81
2, 95692, Note_on_c, 0, 61, 0
2, 95696, Note_on_c, 0, 61, 53
2, 95846, Note_on_c, 0, 85, 0
2, 95853, Note_on_c, 0, 85, 84
2, 95854, Note_on_c, 0, 58, 0
2, 95860, Note_on_c, 0, 58, 57
2, 95953, Note_on_c, 0, 84, 0
2, 95961, Note_on_c, 0, 84, 71
2, 96053, Note_on_c, 0, 58, 0
2, 96053, Note_on_c, 0, 61, 0
2, 96057, Note_on_c, 0, 61, 48
2, 96061, Note_on_c, 0, 80, 0
2, 96063, Note_on_c, 0, 58, 46
2, 96070, Note_on_c, 0, 80, 75
2, 96207, Note_on_c, 0, 73, 0
2, 96218, Note_on_c, 0, 73, 59
2, 96391, Note_on_c, 0, 61, 0
2, 96391, Note_on_c, 0, 80, 0
2, 96401, Note_on_c, 0, 61, 53
2, 96402, Note_on_c, 0, 80, 64
2, 96568, Note_on_c, 0, 58, 0
2, 96578, Note_on_c, 0, 58, 57
2, 96737, Note_on_c, 0, 61, 0
2, 96737, Note_on_c, 0, 80, 0
2, 96747, Note_on_c, 0, 80, 66
2, 96748, Note_on_c, 0, 61, 52
2, 96906, Note_on_c, 0, 73, 0
2, 96914, Note_on_c, 0, 73, 67
2, 97082, Note_on_c, 0, 61, 0
2, 97082, Note_on_c, 0, 80, 0
2, 97093, Note_on_c, 0, 80, 61
2, 97093, Note_on_c, 0, 61, 55
2, 97267, Note_on_c, 0, 58, 0
2, 97277, Note_on_c, 0, 58, 53
2, 97443, Note_on_c, 0, 80, 0
2, 97451, Note_on_c, 0, 61, 0
2, 97454, Note_on_c, 0, 80, 66
2, 97457, Note_on_c, 0, 61, 55
2, 97620, Note_on_c, 0, 73, 0
2, 97624, Note_on_c, 0, 73, 68
2, 97804, Note_on_c, 0, 61, 0
2, 97804, Note_on_c, 0, 80, 0
2, 97812, Note_on_c, 0, 61, 59
2, 97815, Note_on_c, 0, 80, 57
2, 97920, Note_on_c, 0, 84, 0
2, 97920, Note_on_c, 0, 85, 0
2, 97920, Note_on_c, 0, 92, 0
2, 97981, Note_on_c, 0, 58, 0
2, 97991, Note_on_c, 0, 58, 56
2, 98173, Note_on_c, 0, 61, 0
2, 98173, Note_on_c, 0, 80, 0
2, 98184, Note_on_c, 0, 80, 65
2, 98184, Note_on_c, 0, 61, 57
2, 98373, Note_on_c, 0, 73, 0
2, 98377, Note_on_c, 0, 73, 70
2, 98588, Note_on_c, 0, 61, 0
2, 98588, Note_on_c, 0, 80, 0
2, 98594, Note_on_c, 0, 80, 63
2, 98594, Note_on_c, 0, 61, 63
2, 98780, Note_on_c, 0, 58, 0
2, 98790, Note_on_c, 0, 58, 56
2, 99002, Note_on_c, 0, 61, 0
2, 99010, Note_on_c, 0, 80, 0
2, 99014, Note_on_c, 0, 61, 56
2, 99015, Note_on_c, 0, 80, 68
2, 99248, Note_on_c, 0, 73, 0
2, 99258, Note_on_c, 0, 73, 68
2, 99502, Note_on_c, 0, 61, 0
2, 99509, Note_on_c, 0, 80, 0
2, 99510, Note_on_c, 0, 61, 63
2, 99521, Note_on_c, 0, 80, 64
2, 99883, Note_on_c, 0, 54, 53
2, 99885, Note_on_c, 0, 82, 79
2, 99916, Control_c, 0, 64, 0
2, 99917, Note_on_c, 0, 73, 0
2, 99918, Note_on_c, 0, 80, 0
2, 99918, Note_on_c, 0, 61, 0
2, 99932, Note_on_c, 0, 58, 0
2, 100001, Control_c, 0, 64, 127
2, 100094, Note_on_c, 0, 61, 69
2, 100289, Note_on_c, 0, 85, 79
2, 100300, Control_c, 0, 64, 0
2, 100385, Control_c, 0, 64, 127
2, 100477, Note_on_c, 0, 54, 0
2, 100485, Note_on_c, 0, 54, 42
2, 100490, Note_on_c, 0, 84, 72
2, 100556, Control_c, 0, 64, 0
2, 100577, Note_on_c, 0, 61, 0
2, 100600, Note_on_c, 0, 82, 0
2, 100661, Control_c, 0, 64, 127
2, 100676, Note_on_c, 0, 56, 62
2, 100899, Note_on_c, 0, 84, 0
2, 100910, Note_on_c, 0, 84, 72
2, 100925, Note_on_c, 0, 61, 56
2, 101162, Note_on_c, 0, 68, 67
2, 101352, Note_on_c, 0, 54, 0
2, 101358, Note_on_c, 0, 54, 51
2, 101406, Note_on_c, 0, 61, 0
2, 101415, Note_on_c, 0, 61, 55
2, 101475, Note_on_c, 0, 68, 0
2, 101483, Note_on_c, 0, 68, 52
2, 101483, Note_on_c, 0, 73, 64
2, 101530, Note_on_c, 0, 78, 80
2, 101575, Note_on_c, 0, 80, 75
2, 101620, Control_c, 0, 64, 0
2, 101625, Note_on_c, 0, 84, 0
2, 101625, Note_on_c, 0, 56, 0
2, 101626, Note_on_c, 0, 68, 0
2, 101637, Note_on_c, 0, 85, 0
2, 101640, Note_on_c, 0, 85, 80
2, 103134, Control_c, 0, 64, 127
2, 104580, Note_on_c, 0, 63, 68
2, 105549, Note_on_c, 0, 37, 44
2, 105600, Note_on_c, 0, 54, 0
2, 105600, Note_on_c, 0, 61, 0
2, 105600, Note_on_c, 0, 73, 0
2, 105600, Note_on_c, 0, 78, 0
2, 105600, Note_on_c, 0, 80, 0
2, 105600, Note_on_c, 0, 85, 0
2, 105644, Note_on_c, 0, 44, 62
2, 105720, Note_on_c, 0, 49, 59
2, 105785, Note_on_c, 0, 53, 59
2, 105868, Note_on_c, 0, 56, 65
2, 105909, Note_on_c, 0, 61, 75
2, 105914, Control_c, 0, 64, 0
2, 105918, Note_on_c, 0, 63, 0
2, 105990, Note_on_c, 0, 63, 74
2, 105999, Control_c, 0, 64, 127
2, 106054, Note_on_c, 0, 65, 75
2, 107704, Note_on_c, 0, 37, 0
2, 107707, Note_on_c, 0, 25, 46
2, 107708, Note_on_c, 0, 37, 41
2, 109440, Note_on_c, 0, 44, 0
2, 109440, Note_on_c, 0, 49, 0
2, 109440, Note_on_c, 0, 53, 0
2, 109440, Note_on_c, 0, 56, 0
2, 109440, Note_on_c, 0, 61, 0
2, 109440, Note_on_c, 0, 63, 0
2, 109440, Note_on_c, 0, 65, 0
2, 111667, Control_c, 0, 64, 0
2, 112225, Note_on_c, 0, 32, 20
2, 112250, Note_on_c, 0, 25, 0
2, 112258, Note_on_c, 0, 25, 21
2, 112287, Note_on_c, 0, 37, 0
2, 112504, Note_on_c, 0, 32, 0
2, 112911, Note_on_c, 0, 25, 0
2, 115668, Control_c, 0, 64, 127
2, 115845, Control_c, 0, 64, 0
2, 115846, End_track
0, 0, End_of_file
