0, 0, Header, 1, 2, 384
1, 0, Start_track
1, 0, Tempo, 500000
1, 0, Time_signature, 4, 2, 24, 8
1, 1, End_track
2, 0, Start_track
2, 30, Control_c, 0, 64, 127
2, 1128, Note_on_c, 0, 55, 80
2, 1156, Note_on_c, 0, 67, 89
2, 1156, Note_on_c, 0, 60, 90
2, 1170, Note_on_c, 0, 62, 91
2, 1177, Note_on_c, 0, 72, 92
2, 1192, Note_on_c, 0, 74, 96
2, 1209, Note_on_c, 0, 79, 103
2, 1382, Note_on_c, 0, 67, 0
2, 1388, Note_on_c, 0, 67, 90
2, 1390, Note_on_c, 0, 72, 0
2, 1397, Note_on_c, 0, 60, 0
2, 1398, Note_on_c, 0, 72, 94
2, 1405, Note_on_c, 0, 62, 0
2, 1405, Note_on_c, 0, 74, 0
2, 1406, Note_on_c, 0, 60, 93
2, 1411, Note_on_c, 0, 62, 96
2, 1413, Note_on_c, 0, 79, 0
2, 1413, Note_on_c, 0, 74, 93
2, 1424, Note_on_c, 0, 79, 106
2, 1574, Note_on_c, 0, 67, 0
2, 1581, Note_on_c, 0, 67, 94
2, 1589, Note_on_c, 0, 55, 0
2, 1589, Note_on_c, 0, 72, 0
2, 1600, Note_on_c, 0, 55, 80
2, 1600, Note_on_c, 0, 72, 88
2, 1605, Note_on_c, 0, 60, 0
2, 1605, Note_on_c, 0, 62, 0
2, 1609, Note_on_c, 0, 60, 83
2, 1612, Note_on_c, 0, 74, 0
2, 1612, Note_on_c, 0, 79, 0
2, 1613, Note_on_c, 0, 62, 88
2, 1620, Note_on_c, 0, 74, 87
2, 1622, Note_on_c, 0, 79, 101
2, 1758, Note_on_c, 0, 67, 0
2, 1766, Note_on_c, 0, 67, 85
2, 1789, Note_on_c, 0, 60, 0
2, 1789, Note_on_c, 0, 72, 0
2, 1797, Note_on_c, 0, 62, 0
2, 1797, Note_on_c, 0, 74, 0
2, 1798, Note_on_c, 0, 72, 93
2, 1800, Note_on_c, 0, 60, 96
2, 1802, Note_on_c, 0, 74, 93
2, 1804, Note_on_c, 0, 79, 0
2, 1807, Note_on_c, 0, 62, 95
2, 1814, Note_on_c, 0, 79, 108
2, 2128, Note_on_c, 0, 91, 103
2, 2194, Note_on_c, 0, 86, 91
2, 2247, Note_on_c, 0, 84, 78
2, 2288, Note_on_c, 0, 79, 0
2, 2299, Note_on_c, 0, 79, 88
2, 2365, Note_on_c, 0, 74, 0
2, 2375, Note_on_c, 0, 74, 84
2, 2426, Note_on_c, 0, 72, 0
2, 2432, Note_on_c, 0, 72, 91
2, 2488, Note_on_c, 0, 67, 0
2, 2492, Note_on_c, 0, 67, 85
2, 2565, Note_on_c, 0, 62, 0
2, 2569, Note_on_c, 0, 62, 77
2, 2603, Note_on_c, 0, 60, 0
2, 2610, Note_on_c, 0, 60, 89
2, 2657, Note_on_c, 0, 55, 0
2, 2668, Note_on_c, 0, 55, 77
2, 2760, Note_on_c, 0, 50, 62
2, 2802, Note_on_c, 0, 48, 65
2, 2860, Note_on_c, 0, 43, 69
2, 2976, Note_on_c, 0, 38, 73
2, 2989, Note_on_c, 0, 36, 66
2, 3062, Note_on_c, 0, 31, 83
2, 3171, Note_on_c, 0, 36, 0
2, 3179, Note_on_c, 0, 48, 0
2, 3181, Note_on_c, 0, 36, 68
2, 3183, Note_on_c, 0, 48, 70
2, 3240, Note_on_c, 0, 38, 0
2, 3245, Note_on_c, 0, 38, 72
2, 3317, Note_on_c, 0, 43, 0
2, 3322, Note_on_c, 0, 43, 68
2, 3386, Note_on_c, 0, 48, 0
2, 3394, Note_on_c, 0, 48, 72
2, 3432, Note_on_c, 0, 50, 0
2, 3437, Note_on_c, 0, 50, 72
2, 3509, Note_on_c, 0, 55, 0
2, 3514, Note_on_c, 0, 55, 71
2, 3571, Note_on_c, 0, 60, 0
2, 3577, Note_on_c, 0, 60, 87
2, 3617, Note_on_c, 0, 62, 0
2, 3622, Note_on_c, 0, 62, 81
2, 3701, Note_on_c, 0, 67, 0
2, 3706, Note_on_c, 0, 67, 92
2, 3770, Note_on_c, 0, 72, 0
2, 3781, Note_on_c, 0, 72, 86
2, 3809, Note_on_c, 0, 74, 0
2, 3814, Note_on_c, 0, 74, 90
2, 3901, Note_on_c, 0, 79, 0
2, 3912, Note_on_c, 0, 79, 74
2, 3962, Note_on_c, 0, 84, 0
2, 3970, Note_on_c, 0, 84, 85
2, 4016, Note_on_c, 0, 86, 0
2, 4026, Note_on_c, 0, 86, 86
2, 4101, Note_on_c, 0, 91, 0
2, 4110, Note_on_c, 0, 91, 87
2, 4185, Note_on_c, 0, 96, 92
2, 4295, Note_on_c, 0, 98, 78
2, 4389, Note_on_c, 0, 103, 96
2, 4400, Note_on_c, 0, 103, 0
2, 5572, Note_on_c, 0, 62, 0
2, 5572, Note_on_c, 0, 84, 0
2, 5572, Note_on_c, 0, 31, 0
2, 5573, Note_on_c, 0, 79, 0
2, 5573, Note_on_c, 0, 50, 0
2, 5573, Note_on_c, 0, 60, 0
2, 5573, Note_on_c, 0, 67, 0
2, 5573, Note_on_c, 0, 96, 0
2, 5573, Note_on_c, 0, 55, 0
2, 5573, Note_on_c, 0, 36, 0
2, 5574, Note_on_c, 0, 43, 0
2, 5575, Note_on_c, 0, 98, 0
2, 5575, Note_on_c, 0, 38, 0
2, 5575, Note_on_c, 0, 74, 0
2, 5591, Note_on_c, 0, 72, 0
2, 5591, Note_on_c, 0, 86, 0
2, 5591, Note_on_c, 0, 91, 0
2, 5598, Note_on_c, 0, 48, 0
2, 5609, Control_c, 0, 64, 0
2, 5908, Note_on_c, 0, 69, 90
2, 5910, Note_on_c, 0, 53, 76
2, 5911, Note_on_c, 0, 60, 83
2, 5938, Note_on_c, 0, 81, 65
2, 6005, Control_c, 0, 64, 127
2, 6010, Note_on_c, 0, 79, 79
2, 6080, Note_on_c, 0, 72, 75
2, 6150, Note_on_c, 0, 77, 74
2, 6220, Note_on_c, 0, 81, 0
2, 6232, Note_on_c, 0, 81, 76
2, 6289, Note_on_c, 0, 79, 0
2, 6300, Note_on_c, 0, 79, 79
2, 6382, Note_on_c, 0, 72, 0
2, 6392, Note_on_c, 0, 72, 74
2, 6451, Note_on_c, 0, 77, 0
2, 6457, Note_on_c, 0, 77, 76
2, 6551, Note_on_c, 0, 81, 0
2, 6556, Note_on_c, 0, 81, 80
2, 6558, Note_on_c, 0, 69, 0
2, 6565, Note_on_c, 0, 69, 92
2, 6620, Note_on_c, 0, 79, 0
2, 6631, Note_on_c, 0, 79, 71
2, 6696, Note_on_c, 0, 72, 0
2, 6706, Note_on_c, 0, 72, 76
2, 6781, Note_on_c, 0, 77, 0
2, 6788, Note_on_c, 0, 77, 76
2, 6865, Note_on_c, 0, 81, 0
2, 6872, Note_on_c, 0, 81, 72
2, 6942, Note_on_c, 0, 79, 0
2, 6946, Note_on_c, 0, 79, 76
2, 7019, Note_on_c, 0, 72, 0
2, 7029, Note_on_c, 0, 72, 71
2, 7119, Note_on_c, 0, 77, 0
2, 7123, Note_on_c, 0, 77, 66
2, 7188, Note_on_c, 0, 60, 0
2, 7188, Note_on_c, 0, 79, 0
2, 7189, Note_on_c, 0, 67, 89
2, 7195, Note_on_c, 0, 60, 83
2, 7197, Note_on_c, 0, 55, 74
2, 7198, Note_on_c, 0, 79, 86
2, 7199, Note_on_c, 0, 62, 80
2, 7216, Note_on_c, 0, 81, 0
2, 7217, Note_on_c, 0, 53, 0
2, 7218, Note_on_c, 0, 72, 0
2, 7220, Note_on_c, 0, 77, 0
2, 7221, Note_on_c, 0, 69, 0
2, 7228, Control_c, 0, 64, 0
2, 7296, Note_on_c, 0, 77, 76
2, 7334, Control_c, 0, 64, 127
2, 7369, Note_on_c, 0, 72, 75
2, 7434, Note_on_c, 0, 74, 82
2, 7503, Note_on_c, 0, 79, 0
2, 7514, Note_on_c, 0, 79, 81
2, 7580, Note_on_c, 0, 77, 0
2, 7588, Note_on_c, 0, 77, 75
2, 7664, Note_on_c, 0, 72, 0
2, 7673, Note_on_c, 0, 72, 75
2, 7733, Note_on_c, 0, 74, 0
2, 7742, Note_on_c, 0, 74, 78
2, 7833, Note_on_c, 0, 67, 0
2, 7833, Note_on_c, 0, 79, 0
2, 7841, Note_on_c, 0, 79, 87
2, 7842, Note_on_c, 0, 67, 97
2, 7895, Note_on_c, 0, 77, 0
2, 7904, Note_on_c, 0, 77, 73
2, 7979, Note_on_c, 0, 72, 0
2, 7985, Note_on_c, 0, 72, 81
2, 8048, Note_on_c, 0, 74, 0
2, 8054, Note_on_c, 0, 74, 80
2, 8133, Note_on_c, 0, 79, 0
2, 8144, Note_on_c, 0, 79, 68
2, 8209, Note_on_c, 0, 77, 0
2, 8218, Note_on_c, 0, 77, 73
2, 8294, Note_on_c, 0, 72, 0
2, 8303, Note_on_c, 0, 72, 75
2, 8371, Note_on_c, 0, 74, 0
2, 8376, Note_on_c, 0, 74, 74
2, 8471, Note_on_c, 0, 79, 0
2, 8477, Note_on_c, 0, 79, 94
2, 8478, Note_on_c, 0, 62, 0
2, 8478, Note_on_c, 0, 67, 0
2, 8483, Note_on_c, 0, 67, 85
2, 8487, Note_on_c, 0, 52, 76
2, 8488, Note_on_c, 0, 71, 81
2, 8489, Note_on_c, 0, 59, 81
2, 8490, Note_on_c, 0, 62, 84
2, 8522, Note_on_c, 0, 72, 0
2, 8523, Note_on_c, 0, 74, 0
2, 8526, Note_on_c, 0, 77, 0
2, 8527, Control_c, 0, 64, 0
2, 8547, Note_on_c, 0, 55, 0
2, 8547, Note_on_c, 0, 60, 0
2, 8572, Note_on_c, 0, 76, 78
2, 8616, Control_c, 0, 64, 127
2, 8647, Note_on_c, 0, 71, 0
2, 8652, Note_on_c, 0, 71, 77
2, 8719, Note_on_c, 0, 74, 77
2, 8801, Note_on_c, 0, 79, 0
2, 8808, Note_on_c, 0, 79, 79
2, 8885, Note_on_c, 0, 76, 0
2, 8892, Note_on_c, 0, 76, 75
2, 8970, Note_on_c, 0, 71, 0
2, 8976, Note_on_c, 0, 71, 76
2, 9031, Note_on_c, 0, 74, 0
2, 9040, Note_on_c, 0, 74, 77
2, 9123, Note_on_c, 0, 79, 0
2, 9131, Note_on_c, 0, 79, 87
2, 9208, Note_on_c, 0, 76, 0
2, 9218, Note_on_c, 0, 76, 74
2, 9269, Note_on_c, 0, 71, 0
2, 9278, Note_on_c, 0, 71, 78
2, 9346, Note_on_c, 0, 74, 0
2, 9353, Note_on_c, 0, 74, 81
2, 9431, Note_on_c, 0, 79, 0
2, 9439, Note_on_c, 0, 79, 87
2, 9515, Note_on_c, 0, 76, 0
2, 9523, Note_on_c, 0, 76, 64
2, 9584, Note_on_c, 0, 71, 0
2, 9589, Note_on_c, 0, 71, 74
2, 9653, Note_on_c, 0, 74, 0
2, 9661, Note_on_c, 0, 74, 77
2, 9738, Note_on_c, 0, 67, 0
2, 9744, Note_on_c, 0, 67, 91
2, 9745, Note_on_c, 0, 79, 0
2, 9750, Note_on_c, 0, 53, 69
2, 9755, Note_on_c, 0, 60, 83
2, 9757, Note_on_c, 0, 79, 92
2, 9758, Note_on_c, 0, 57, 76
2, 9785, Control_c, 0, 64, 0
2, 9785, Note_on_c, 0, 59, 0
2, 9785, Note_on_c, 0, 76, 0
2, 9786, Note_on_c, 0, 71, 0
2, 9786, Note_on_c, 0, 52, 0
2, 9786, Note_on_c, 0, 74, 0
2, 9807, Note_on_c, 0, 62, 0
2, 9845, Note_on_c, 0, 76, 72
2, 9876, Control_c, 0, 64, 127
2, 9922, Note_on_c, 0, 69, 70
2, 10003, Note_on_c, 0, 72, 79
2, 10076, Note_on_c, 0, 79, 0
2, 10080, Note_on_c, 0, 79, 84
2, 10160, Note_on_c, 0, 76, 0
2, 10164, Note_on_c, 0, 76, 72
2, 10229, Note_on_c, 0, 69, 0
2, 10239, Note_on_c, 0, 69, 68
2, 10306, Note_on_c, 0, 72, 0
2, 10313, Note_on_c, 0, 72, 79
2, 10383, Note_on_c, 0, 79, 0
2, 10391, Note_on_c, 0, 79, 84
2, 10467, Note_on_c, 0, 76, 0
2, 10477, Note_on_c, 0, 76, 76
2, 10536, Note_on_c, 0, 69, 0
2, 10543, Note_on_c, 0, 69, 71
2, 10613, Note_on_c, 0, 72, 0
2, 10624, Note_on_c, 0, 72, 78
2, 10698, Note_on_c, 0, 79, 0
2, 10703, Note_on_c, 0, 79, 82
2, 10775, Note_on_c, 0, 76, 0
2, 10782, Note_on_c, 0, 76, 75
2, 10844, Note_on_c, 0, 69, 0
2, 10855, Note_on_c, 0, 69, 69
2, 10920, Note_on_c, 0, 72, 0
2, 10930, Note_on_c, 0, 72, 78
2, 10997, Note_on_c, 0, 79, 0
2, 11007, Note_on_c, 0, 79, 98
2, 11082, Note_on_c, 0, 76, 0
2, 11089, Note_on_c, 0, 76, 85
2, 11159, Note_on_c, 0, 72, 0
2, 11168, Note_on_c, 0, 72, 84
2, 11228, Note_on_c, 0, 69, 0
2, 11238, Note_on_c, 0, 69, 68
2, 11324, Note_on_c, 0, 64, 70
2, 11404, Note_on_c, 0, 60, 0
2, 11409, Note_on_c, 0, 60, 82
2, 11473, Note_on_c, 0, 57, 0
2, 11479, Note_on_c, 0, 57, 75
2, 11558, Note_on_c, 0, 60, 0
2, 11567, Note_on_c, 0, 60, 85
2, 11627, Note_on_c, 0, 67, 0
2, 11632, Note_on_c, 0, 67, 91
2, 11696, Note_on_c, 0, 64, 0
2, 11707, Note_on_c, 0, 64, 85
2, 11781, Note_on_c, 0, 60, 0
2, 11789, Note_on_c, 0, 60, 83
2, 11865, Note_on_c, 0, 57, 0
2, 11870, Note_on_c, 0, 57, 78
2, 11936, Note_on_c, 0, 52, 81
2, 12006, Note_on_c, 0, 48, 76
2, 12089, Note_on_c, 0, 45, 82
2, 12142, Note_on_c, 0, 48, 0
2, 12147, Note_on_c, 0, 48, 67
2, 12235, Note_on_c, 0, 48, 0
2, 12238, Note_on_c, 0, 57, 0
2, 12238, Control_c, 0, 64, 0
2, 12239, Note_on_c, 0, 45, 0
2, 12241, Note_on_c, 0, 69, 0
2, 12242, Note_on_c, 0, 67, 0
2, 12245, Note_on_c, 0, 79, 0
2, 12249, Note_on_c, 0, 52, 0
2, 12249, Note_on_c, 0, 60, 0
2, 12250, Note_on_c, 0, 72, 0
2, 12252, Note_on_c, 0, 69, 108
2, 12253, Note_on_c, 0, 29, 91
2, 12253, Note_on_c, 0, 41, 93
2, 12255, Note_on_c, 0, 60, 100
2, 12257, Note_on_c, 0, 76, 0
2, 12258, Note_on_c, 0, 65, 92
2, 12264, Note_on_c, 0, 53, 0
2, 12264, Note_on_c, 0, 64, 0
2, 12326, Control_c, 0, 64, 127
2, 12349, Note_on_c, 0, 45, 21
2, 12441, Note_on_c, 0, 48, 65
2, 12537, Note_on_c, 0, 53, 76
2, 12620, Note_on_c, 0, 57, 74
2, 12702, Note_on_c, 0, 60, 0
2, 12706, Note_on_c, 0, 60, 73
2, 12748, Note_on_c, 0, 65, 0
2, 12753, Note_on_c, 0, 65, 83
2, 12810, Note_on_c, 0, 69, 0
2, 12819, Note_on_c, 0, 69, 84
2, 12883, Note_on_c, 0, 76, 105
2, 12886, Note_on_c, 0, 72, 102
2, 12887, Note_on_c, 0, 48, 0
2, 12893, Note_on_c, 0, 48, 69
2, 12986, Note_on_c, 0, 69, 0
2, 12992, Note_on_c, 0, 69, 85
2, 13048, Note_on_c, 0, 65, 0
2, 13055, Note_on_c, 0, 65, 90
2, 13109, Note_on_c, 0, 60, 0
2, 13113, Note_on_c, 0, 60, 89
2, 13209, Note_on_c, 0, 57, 0
2, 13213, Note_on_c, 0, 57, 87
2, 13224, Note_on_c, 0, 45, 0
2, 13271, Note_on_c, 0, 53, 0
2, 13275, Note_on_c, 0, 53, 83
2, 13340, Note_on_c, 0, 48, 0
2, 13347, Note_on_c, 0, 48, 76
2, 13351, Note_on_c, 0, 60, 0
2, 13470, Note_on_c, 0, 29, 0
2, 13495, Control_c, 0, 64, 0
2, 13497, Note_on_c, 0, 48, 0
2, 13497, Note_on_c, 0, 41, 0
2, 13497, Note_on_c, 0, 65, 0
2, 13497, Note_on_c, 0, 57, 0
2, 13498, Note_on_c, 0, 53, 0
2, 13498, Note_on_c, 0, 69, 0
2, 13498, Note_on_c, 0, 72, 0
2, 13501, Note_on_c, 0, 76, 0
2, 13511, Note_on_c, 0, 74, 109
2, 13513, Note_on_c, 0, 31, 88
2, 13513, Note_on_c, 0, 43, 87
2, 13516, Note_on_c, 0, 71, 98
2, 13517, Note_on_c, 0, 67, 99
2, 13585, Control_c, 0, 64, 127
2, 13701, Note_on_c, 0, 31, 0
2, 13710, Note_on_c, 0, 50, 65
2, 13812, Note_on_c, 0, 55, 67
2, 13867, Note_on_c, 0, 59, 89
2, 13960, Note_on_c, 0, 62, 78
2, 14023, Note_on_c, 0, 67, 0
2, 14027, Note_on_c, 0, 67, 88
2, 14085, Note_on_c, 0, 71, 0
2, 14092, Note_on_c, 0, 71, 84
2, 14140, Control_c, 0, 64, 0
2, 14146, Note_on_c, 0, 74, 0
2, 14152, Note_on_c, 0, 79, 108
2, 14156, Note_on_c, 0, 74, 97
2, 14161, Control_c, 0, 64, 127
2, 14238, Note_on_c, 0, 71, 0
2, 14249, Note_on_c, 0, 71, 85
2, 14315, Note_on_c, 0, 67, 0
2, 14321, Note_on_c, 0, 67, 81
2, 14369, Note_on_c, 0, 62, 0
2, 14375, Note_on_c, 0, 62, 81
2, 14461, Note_on_c, 0, 59, 0
2, 14470, Note_on_c, 0, 59, 83
2, 14522, Note_on_c, 0, 55, 0
2, 14533, Note_on_c, 0, 55, 77
2, 14592, Note_on_c, 0, 50, 0
2, 14603, Note_on_c, 0, 50, 80
2, 14767, Control_c, 0, 64, 0
2, 14768, Note_on_c, 0, 71, 0
2, 14771, Note_on_c, 0, 62, 0
2, 14771, Note_on_c, 0, 74, 0
2, 14771, Note_on_c, 0, 50, 0
2, 14771, Note_on_c, 0, 59, 0
2, 14771, Note_on_c, 0, 43, 0
2, 14771, Note_on_c, 0, 55, 0
2, 14772, Note_on_c, 0, 79, 0
2, 14776, Note_on_c, 0, 67, 0
2, 14779, Note_on_c, 0, 28, 91
2, 14779, Note_on_c, 0, 71, 106
2, 14779, Note_on_c, 0, 40, 90
2, 14785, Note_on_c, 0, 67, 98
2, 14787, Note_on_c, 0, 64, 93
2, 14845, Control_c, 0, 64, 127
2, 15068, Note_on_c, 0, 28, 0
2, 15098, Note_on_c, 0, 52, 72
2, 15163, Note_on_c, 0, 55, 67
2, 15231, Note_on_c, 0, 59, 76
2, 15315, Note_on_c, 0, 62, 81
2, 15375, Note_on_c, 0, 67, 0
2, 15384, Note_on_c, 0, 67, 89
2, 15467, Note_on_c, 0, 62, 0
2, 15478, Note_on_c, 0, 62, 83
2, 15544, Note_on_c, 0, 59, 0
2, 15552, Note_on_c, 0, 59, 79
2, 15563, Note_on_c, 0, 72, 101
2, 15598, Note_on_c, 0, 55, 0
2, 15607, Note_on_c, 0, 55, 77
2, 15705, Note_on_c, 0, 52, 0
2, 15710, Note_on_c, 0, 52, 79
2, 15714, Note_on_c, 0, 74, 103
2, 15866, Note_on_c, 0, 72, 0
2, 15874, Note_on_c, 0, 64, 0
2, 15875, Note_on_c, 0, 72, 109
2, 15884, Note_on_c, 0, 64, 93
2, 15884, Note_on_c, 0, 69, 92
2, 15987, Note_on_c, 0, 52, 0
2, 15987, Note_on_c, 0, 62, 0
2, 15988, Note_on_c, 0, 59, 0
2, 15988, Note_on_c, 0, 55, 0
2, 15988, Note_on_c, 0, 67, 0
2, 15990, Note_on_c, 0, 71, 0
2, 15990, Control_c, 0, 64, 0
2, 15992, Note_on_c, 0, 74, 0
2, 15997, Note_on_c, 0, 40, 0
2, 16031, Note_on_c, 0, 33, 90
2, 16031, Note_on_c, 0, 45, 89
2, 16081, Control_c, 0, 64, 127
2, 16212, Note_on_c, 0, 33, 0
2, 16348, Note_on_c, 0, 52, 69
2, 16401, Note_on_c, 0, 57, 73
2, 16471, Note_on_c, 0, 60, 77
2, 16504, Note_on_c, 0, 64, 0
2, 16508, Note_on_c, 0, 64, 72
2, 16550, Note_on_c, 0, 69, 0
2, 16559, Note_on_c, 0, 69, 74
2, 16581, Note_on_c, 0, 72, 0
2, 16592, Note_on_c, 0, 72, 83
2, 16652, Note_on_c, 0, 76, 86
2, 16704, Note_on_c, 0, 72, 0
2, 16714, Note_on_c, 0, 72, 77
2, 16773, Note_on_c, 0, 69, 0
2, 16777, Note_on_c, 0, 69, 81
2, 16811, Note_on_c, 0, 60, 0
2, 16811, Note_on_c, 0, 64, 0
2, 16817, Note_on_c, 0, 60, 80
2, 16821, Note_on_c, 0, 64, 73
2, 16880, Note_on_c, 0, 57, 0
2, 16886, Note_on_c, 0, 57, 76
2, 16957, Note_on_c, 0, 52, 0
2, 16966, Note_on_c, 0, 52, 83
2, 17247, Control_c, 0, 64, 0
2, 17252, Note_on_c, 0, 45, 0
2, 17252, Note_on_c, 0, 64, 0
2, 17252, Note_on_c, 0, 52, 0
2, 17252, Note_on_c, 0, 57, 0
2, 17252, Note_on_c, 0, 60, 0
2, 17253, Note_on_c, 0, 76, 0
2, 17264, Note_on_c, 0, 69, 0
2, 17264, Note_on_c, 0, 72, 0
2, 17272, Note_on_c, 0, 81, 100
2, 17274, Note_on_c, 0, 69, 102
2, 17275, Note_on_c, 0, 72, 103
2, 17275, Note_on_c, 0, 77, 99
2, 17275, Note_on_c, 0, 41, 90
2, 17333, Control_c, 0, 64, 127
2, 17421, Note_on_c, 0, 48, 69
2, 17502, Note_on_c, 0, 50, 73
2, 17505, Note_on_c, 0, 53, 72
2, 17510, Note_on_c, 0, 50, 0
2, 17520, Note_on_c, 0, 83, 88
2, 17586, Note_on_c, 0, 57, 76
2, 17639, Note_on_c, 0, 60, 86
2, 17723, Note_on_c, 0, 79, 95
2, 17746, Note_on_c, 0, 65, 81
2, 17825, Note_on_c, 0, 69, 0
2, 17830, Note_on_c, 0, 69, 68
2, 17894, Note_on_c, 0, 72, 0
2, 17902, Note_on_c, 0, 81, 0
2, 17905, Note_on_c, 0, 72, 100
2, 17906, Note_on_c, 0, 84, 96
2, 17906, Note_on_c, 0, 88, 102
2, 17906, Note_on_c, 0, 81, 96
2, 17908, Note_on_c, 0, 76, 100
2, 17909, Note_on_c, 0, 69, 0
2, 17914, Note_on_c, 0, 69, 84
2, 18009, Note_on_c, 0, 65, 0
2, 18015, Note_on_c, 0, 65, 83
2, 18109, Note_on_c, 0, 60, 0
2, 18115, Note_on_c, 0, 60, 76
2, 18124, Note_on_c, 0, 83, 0
2, 18135, Note_on_c, 0, 83, 88
2, 18186, Note_on_c, 0, 57, 0
2, 18191, Note_on_c, 0, 57, 79
2, 18255, Note_on_c, 0, 53, 0
2, 18259, Note_on_c, 0, 53, 73
2, 18332, Note_on_c, 0, 48, 0
2, 18342, Note_on_c, 0, 48, 70
2, 18370, Note_on_c, 0, 79, 0
2, 18375, Note_on_c, 0, 79, 96
2, 18495, Control_c, 0, 64, 0
2, 18495, Note_on_c, 0, 69, 0
2, 18495, Note_on_c, 0, 88, 0
2, 18495, Note_on_c, 0, 83, 0
2, 18495, Note_on_c, 0, 76, 0
2, 18495, Note_on_c, 0, 53, 0
2, 18495, Note_on_c, 0, 81, 0
2, 18496, Note_on_c, 0, 57, 0
2, 18496, Note_on_c, 0, 77, 0
2, 18496, Note_on_c, 0, 84, 0
2, 18508, Note_on_c, 0, 41, 0
2, 18508, Note_on_c, 0, 48, 0
2, 18508, Note_on_c, 0, 60, 0
2, 18508, Note_on_c, 0, 65, 0
2, 18508, Note_on_c, 0, 72, 0
2, 18524, Note_on_c, 0, 79, 0
2, 18526, Note_on_c, 0, 86, 104
2, 18528, Note_on_c, 0, 79, 98
2, 18528, Note_on_c, 0, 74, 100
2, 18532, Note_on_c, 0, 43, 84
2, 18533, Note_on_c, 0, 84, 93
2, 18534, Note_on_c, 0, 55, 91
2, 18585, Control_c, 0, 64, 127
2, 18667, Note_on_c, 0, 50, 73
2, 18746, Note_on_c, 0, 55, 0
2, 18757, Note_on_c, 0, 55, 74
2, 18774, Note_on_c, 0, 83, 89
2, 18839, Note_on_c, 0, 59, 78
2, 18893, Note_on_c, 0, 62, 87
2, 18977, Note_on_c, 0, 79, 0
2, 18981, Note_on_c, 0, 79, 102
2, 19003, Note_on_c, 0, 67, 85
2, 19093, Note_on_c, 0, 71, 76
2, 19146, Note_on_c, 0, 74, 0
2, 19146, Note_on_c, 0, 84, 0
2, 19149, Note_on_c, 0, 93, 110
2, 19152, Note_on_c, 0, 81, 101
2, 19154, Note_on_c, 0, 84, 95
2, 19154, Note_on_c, 0, 74, 101
2, 19154, Note_on_c, 0, 77, 90
2, 19157, Note_on_c, 0, 89, 96
2, 19161, Note_on_c, 0, 77, 0
2, 19200, Note_on_c, 0, 71, 0
2, 19209, Note_on_c, 0, 71, 72
2, 19269, Note_on_c, 0, 67, 0
2, 19273, Note_on_c, 0, 67, 83
2, 19361, Note_on_c, 0, 62, 0
2, 19371, Note_on_c, 0, 62, 76
2, 19384, Note_on_c, 0, 83, 0
2, 19389, Note_on_c, 0, 83, 91
2, 19438, Note_on_c, 0, 59, 0
2, 19448, Note_on_c, 0, 59, 76
2, 19499, Note_on_c, 0, 55, 0
2, 19504, Note_on_c, 0, 55, 72
2, 19607, Note_on_c, 0, 50, 0
2, 19614, Note_on_c, 0, 79, 0
2, 19615, Note_on_c, 0, 50, 65
2, 19620, Note_on_c, 0, 79, 101
2, 19651, Note_on_c, 0, 77, 42
2, 19770, Note_on_c, 0, 71, 0
2, 19770, Note_on_c, 0, 74, 0
2, 19770, Note_on_c, 0, 81, 0
2, 19770, Note_on_c, 0, 50, 0
2, 19770, Note_on_c, 0, 55, 0
2, 19770, Note_on_c, 0, 62, 0
2, 19770, Control_c, 0, 64, 0
2, 19770, Note_on_c, 0, 83, 0
2, 19771, Note_on_c, 0, 67, 0
2, 19772, Note_on_c, 0, 84, 0
2, 19776, Note_on_c, 0, 43, 0
2, 19776, Note_on_c, 0, 93, 0
2, 19783, Note_on_c, 0, 59, 0
2, 19783, Note_on_c, 0, 77, 0
2, 19783, Note_on_c, 0, 86, 0
2, 19783, Note_on_c, 0, 89, 0
2, 19799, Note_on_c, 0, 79, 0
2, 19802, Note_on_c, 0, 91, 109
2, 19806, Note_on_c, 0, 79, 104
2, 19807, Note_on_c, 0, 83, 96
2, 19810, Note_on_c, 0, 86, 98
2, 19810, Note_on_c, 0, 52, 85
2, 19810, Note_on_c, 0, 40, 83
2, 19860, Control_c, 0, 64, 127
2, 19944, Note_on_c, 0, 52, 0
2, 19952, Note_on_c, 0, 52, 62
2, 20037, Note_on_c, 0, 83, 0
2, 20040, Note_on_c, 0, 55, 69
2, 20042, Note_on_c, 0, 83, 90
2, 20111, Note_on_c, 0, 59, 81
2, 20176, Note_on_c, 0, 62, 87
2, 20244, Note_on_c, 0, 79, 0
2, 20251, Note_on_c, 0, 79, 99
2, 20278, Note_on_c, 0, 67, 81
2, 20353, Note_on_c, 0, 71, 81
2, 20424, Note_on_c, 0, 74, 99
2, 20482, Note_on_c, 0, 71, 0
2, 20488, Note_on_c, 0, 71, 77
2, 20536, Note_on_c, 0, 67, 0
2, 20545, Note_on_c, 0, 67, 96
2, 20577, Note_on_c, 0, 88, 101
2, 20579, Note_on_c, 0, 76, 99
2, 20620, Note_on_c, 0, 62, 0
2, 20629, Note_on_c, 0, 62, 84
2, 20697, Note_on_c, 0, 59, 0
2, 20702, Note_on_c, 0, 59, 89
2, 20720, Note_on_c, 0, 83, 0
2, 20728, Note_on_c, 0, 71, 0
2, 20731, Note_on_c, 0, 83, 101
2, 20731, Note_on_c, 0, 79, 0
2, 20732, Note_on_c, 0, 71, 95
2, 20751, Note_on_c, 0, 55, 0
2, 20755, Note_on_c, 0, 55, 70
2, 20805, Note_on_c, 0, 52, 0
2, 20814, Note_on_c, 0, 52, 78
2, 20881, Note_on_c, 0, 76, 0
2, 20884, Note_on_c, 0, 84, 104
2, 20884, Note_on_c, 0, 81, 98
2, 20885, Note_on_c, 0, 72, 105
2, 20886, Note_on_c, 0, 76, 95
2, 20978, Note_on_c, 0, 45, 70
2, 20984, Note_on_c, 0, 88, 0
2, 20985, Note_on_c, 0, 59, 0
2, 20985, Note_on_c, 0, 52, 0
2, 20985, Note_on_c, 0, 55, 0
2, 20985, Note_on_c, 0, 74, 0
2, 20985, Note_on_c, 0, 86, 0
2, 20985, Note_on_c, 0, 67, 0
2, 20985, Note_on_c, 0, 71, 0
2, 20985, Note_on_c, 0, 83, 0
2, 20985, Note_on_c, 0, 91, 0
2, 20986, Control_c, 0, 64, 0
2, 20989, Note_on_c, 0, 45, 0
2, 20997, Note_on_c, 0, 62, 0
2, 21004, Note_on_c, 0, 40, 0
2, 21040, Note_on_c, 0, 45, 87
2, 21041, Note_on_c, 0, 57, 86
2, 21081, Control_c, 0, 64, 127
2, 21186, Note_on_c, 0, 52, 73
2, 21240, Note_on_c, 0, 83, 89
2, 21246, Note_on_c, 0, 71, 72
2, 21250, Note_on_c, 0, 71, 0
2, 21265, Note_on_c, 0, 57, 0
2, 21274, Note_on_c, 0, 57, 74
2, 21355, Note_on_c, 0, 60, 82
2, 21405, Note_on_c, 0, 64, 79
2, 21488, Note_on_c, 0, 57, 0
2, 21494, Note_on_c, 0, 79, 94
2, 21499, Note_on_c, 0, 57, 61
2, 21580, Note_on_c, 0, 72, 0
2, 21591, Note_on_c, 0, 72, 83
2, 21657, Note_on_c, 0, 52, 0
2, 21657, Note_on_c, 0, 76, 0
2, 21666, Note_on_c, 0, 52, 53
2, 21667, Note_on_c, 0, 76, 88
2, 21719, Note_on_c, 0, 72, 0
2, 21725, Note_on_c, 0, 72, 67
2, 21770, Note_on_c, 0, 69, 82
2, 21857, Note_on_c, 0, 45, 0
2, 21857, Note_on_c, 0, 52, 0
2, 21864, Note_on_c, 0, 64, 0
2, 21865, Note_on_c, 0, 52, 67
2, 21867, Note_on_c, 0, 45, 62
2, 21869, Note_on_c, 0, 64, 86
2, 21964, Note_on_c, 0, 60, 0
2, 21972, Note_on_c, 0, 72, 0
2, 21976, Note_on_c, 0, 60, 92
2, 21977, Note_on_c, 0, 72, 106
2, 22129, Note_on_c, 0, 74, 105
2, 22295, Note_on_c, 0, 76, 0
2, 22302, Note_on_c, 0, 76, 111
2, 22302, Note_on_c, 0, 64, 0
2, 22306, Control_c, 0, 64, 0
2, 22307, Note_on_c, 0, 64, 97
2, 22307, Note_on_c, 0, 46, 90
2, 22310, Note_on_c, 0, 34, 82
2, 22312, Note_on_c, 0, 84, 0
2, 22312, Note_on_c, 0, 57, 0
2, 22313, Note_on_c, 0, 60, 0
2, 22313, Note_on_c, 0, 83, 0
2, 22313, Note_on_c, 0, 72, 0
2, 22313, Note_on_c, 0, 79, 0
2, 22313, Note_on_c, 0, 52, 0
2, 22313, Note_on_c, 0, 81, 0
2, 22313, Note_on_c, 0, 69, 0
2, 22315, Note_on_c, 0, 45, 0
2, 22316, Note_on_c, 0, 74, 0
2, 22394, Control_c, 0, 64, 127
2, 22425, Note_on_c, 0, 64, 0
2, 22473, Note_on_c, 0, 41, 65
2, 22586, Note_on_c, 0, 46, 0
2, 22592, Note_on_c, 0, 46, 73
2, 22609, Note_on_c, 0, 76, 0
2, 22613, Note_on_c, 0, 76, 95
2, 22617, Note_on_c, 0, 64, 82
2, 22768, Note_on_c, 0, 50, 86
2, 22771, Note_on_c, 0, 46, 0
2, 22773, Note_on_c, 0, 74, 103
2, 22774, Note_on_c, 0, 62, 97
2, 22779, Note_on_c, 0, 46, 76
2, 22909, Note_on_c, 0, 41, 0
2, 22909, Note_on_c, 0, 46, 0
2, 22917, Note_on_c, 0, 41, 70
2, 22920, Note_on_c, 0, 46, 65
2, 23078, Note_on_c, 0, 50, 0
2, 23083, Note_on_c, 0, 53, 83
2, 23087, Note_on_c, 0, 50, 72
2, 23089, Note_on_c, 0, 94, 105
2, 23092, Note_on_c, 0, 82, 88
2, 23232, Note_on_c, 0, 46, 0
2, 23242, Note_on_c, 0, 46, 74
2, 23242, Note_on_c, 0, 58, 69
2, 23385, Note_on_c, 0, 94, 0
2, 23393, Note_on_c, 0, 53, 0
2, 23393, Note_on_c, 0, 82, 0
2, 23395, Note_on_c, 0, 94, 102
2, 23397, Note_on_c, 0, 65, 63
2, 23401, Note_on_c, 0, 53, 69
2, 23403, Note_on_c, 0, 82, 85
2, 23546, Note_on_c, 0, 58, 0
2, 23554, Note_on_c, 0, 46, 0
2, 23557, Note_on_c, 0, 58, 91
2, 23558, Note_on_c, 0, 46, 87
2, 23558, Note_on_c, 0, 96, 108
2, 23565, Note_on_c, 0, 84, 97
2, 23583, Control_c, 0, 64, 0
2, 23585, Note_on_c, 0, 65, 0
2, 23587, Note_on_c, 0, 64, 0
2, 23588, Note_on_c, 0, 76, 0
2, 23589, Note_on_c, 0, 50, 0
2, 23589, Note_on_c, 0, 53, 0
2, 23589, Note_on_c, 0, 34, 0
2, 23589, Note_on_c, 0, 62, 0
2, 23590, Note_on_c, 0, 74, 0
2, 23591, Note_on_c, 0, 82, 0
2, 23600, Note_on_c, 0, 41, 0
2, 23654, Control_c, 0, 64, 127
2, 23711, Note_on_c, 0, 53, 79
2, 23831, Note_on_c, 0, 58, 0
2, 23836, Note_on_c, 0, 58, 76
2, 23838, Note_on_c, 0, 94, 0
2, 23861, Note_on_c, 0, 84, 0
2, 23861, Note_on_c, 0, 96, 0
2, 23867, Note_on_c, 0, 96, 99
2, 23869, Note_on_c, 0, 84, 83
2, 24013, Note_on_c, 0, 62, 84
2, 24020, Note_on_c, 0, 94, 99
2, 24042, Note_on_c, 0, 82, 82
2, 24168, Note_on_c, 0, 53, 0
2, 24173, Note_on_c, 0, 53, 78
2, 24333, Note_on_c, 0, 65, 100
2, 24476, Note_on_c, 0, 62, 0
2, 24481, Note_on_c, 0, 62, 91
2, 24481, Note_on_c, 0, 70, 106
2, 24614, Note_on_c, 0, 58, 0
2, 24620, Note_on_c, 0, 58, 97
2, 24642, Note_on_c, 0, 77, 99
2, 24788, Control_c, 0, 64, 0
2, 24790, Note_on_c, 0, 84, 0
2, 24791, Note_on_c, 0, 46, 0
2, 24792, Note_on_c, 0, 96, 0
2, 24792, Note_on_c, 0, 82, 0
2, 24793, Note_on_c, 0, 58, 0
2, 24793, Note_on_c, 0, 62, 0
2, 24793, Note_on_c, 0, 70, 0
2, 24793, Note_on_c, 0, 77, 0
2, 24794, Note_on_c, 0, 53, 0
2, 24794, Note_on_c, 0, 65, 0
2, 24794, Note_on_c, 0, 76, 105
2, 24796, Note_on_c, 0, 46, 87
2, 24800, Note_on_c, 0, 64, 97
2, 24803, Note_on_c, 0, 34, 72
2, 24806, Note_on_c, 0, 94, 0
2, 24867, Control_c, 0, 64, 127
2, 24949, Note_on_c, 0, 41, 66
2, 25082, Note_on_c, 0, 46, 0
2, 25087, Note_on_c, 0, 46, 84
2, 25105, Note_on_c, 0, 64, 0
2, 25105, Note_on_c, 0, 76, 0
2, 25110, Note_on_c, 0, 76, 91
2, 25116, Note_on_c, 0, 64, 88
2, 25251, Note_on_c, 0, 46, 0
2, 25255, Note_on_c, 0, 50, 85
2, 25256, Note_on_c, 0, 46, 85
2, 25257, Note_on_c, 0, 74, 108
2, 25261, Note_on_c, 0, 62, 94
2, 25305, Note_on_c, 0, 34, 0
2, 25390, Note_on_c, 0, 41, 0
2, 25390, Note_on_c, 0, 46, 0
2, 25396, Note_on_c, 0, 41, 73
2, 25399, Note_on_c, 0, 46, 68
2, 25560, Note_on_c, 0, 53, 86
2, 25569, Note_on_c, 0, 94, 109
2, 25571, Note_on_c, 0, 82, 97
2, 25697, Note_on_c, 0, 46, 0
2, 25706, Note_on_c, 0, 46, 82
2, 25858, Note_on_c, 0, 94, 0
2, 25864, Note_on_c, 0, 94, 105
2, 25866, Note_on_c, 0, 46, 0
2, 25866, Note_on_c, 0, 53, 0
2, 25866, Note_on_c, 0, 82, 0
2, 25867, Note_on_c, 0, 41, 0
2, 25872, Note_on_c, 0, 46, 83
2, 25875, Note_on_c, 0, 53, 78
2, 25876, Note_on_c, 0, 82, 91
2, 26027, Note_on_c, 0, 46, 0
2, 26032, Note_on_c, 0, 46, 87
2, 26033, Note_on_c, 0, 96, 110
2, 26037, Control_c, 0, 64, 0
2, 26038, Note_on_c, 0, 84, 99
2, 26044, Note_on_c, 0, 64, 0
2, 26046, Note_on_c, 0, 62, 0
2, 26046, Note_on_c, 0, 76, 0
2, 26046, Note_on_c, 0, 50, 0
2, 26047, Note_on_c, 0, 74, 0
2, 26047, Note_on_c, 0, 82, 0
2, 26047, Note_on_c, 0, 53, 0
2, 26135, Control_c, 0, 64, 127
2, 26179, Note_on_c, 0, 53, 74
2, 26234, Note_on_c, 0, 94, 0
2, 26330, Note_on_c, 0, 58, 82
2, 26342, Note_on_c, 0, 84, 0
2, 26342, Note_on_c, 0, 96, 0
2, 26351, Note_on_c, 0, 96, 103
2, 26353, Note_on_c, 0, 84, 95
2, 26499, Note_on_c, 0, 62, 82
2, 26502, Note_on_c, 0, 94, 104
2, 26508, Note_on_c, 0, 82, 89
2, 26526, Note_on_c, 0, 58, 0
2, 26530, Note_on_c, 0, 58, 70
2, 26641, Note_on_c, 0, 53, 0
2, 26646, Note_on_c, 0, 53, 80
2, 26803, Note_on_c, 0, 58, 0
2, 26807, Note_on_c, 0, 65, 86
2, 26807, Note_on_c, 0, 58, 66
2, 26964, Note_on_c, 0, 62, 0
2, 26975, Note_on_c, 0, 62, 70
2, 27102, Note_on_c, 0, 46, 0
2, 27102, Note_on_c, 0, 58, 0
2, 27107, Note_on_c, 0, 58, 78
2, 27108, Note_on_c, 0, 46, 66
2, 27267, Note_on_c, 0, 48, 58
2, 27267, Note_on_c, 0, 29, 69
2, 27300, Note_on_c, 0, 53, 0
2, 27301, Note_on_c, 0, 96, 0
2, 27301, Note_on_c, 0, 94, 0
2, 27302, Note_on_c, 0, 62, 0
2, 27302, Control_c, 0, 64, 0
2, 27303, Note_on_c, 0, 65, 0
2, 27303, Note_on_c, 0, 58, 0
2, 27303, Note_on_c, 0, 46, 0
2, 27304, Note_on_c, 0, 82, 0
2, 27317, Note_on_c, 0, 84, 0
2, 27430, Note_on_c, 0, 41, 52
2, 27475, Note_on_c, 0, 29, 0
2, 27489, Note_on_c, 0, 48, 0
2, 27586, Note_on_c, 0, 41, 0
2, 27597, Note_on_c, 0, 57, 83
2, 27751, Note_on_c, 0, 57, 0
2, 27759, Note_on_c, 0, 55, 74
2, 27771, Note_on_c, 0, 41, 55
2, 27841, Note_on_c, 0, 41, 0
2, 27878, Note_on_c, 0, 55, 0
2, 27897, Note_on_c, 0, 29, 66
2, 27917, Note_on_c, 0, 57, 83
2, 27967, Note_on_c, 0, 41, 64
2, 28065, Note_on_c, 0, 31, 79
2, 28067, Note_on_c, 0, 59, 87
2, 28091, Note_on_c, 0, 41, 0
2, 28097, Note_on_c, 0, 29, 0
2, 28110, Note_on_c, 0, 57, 0
2, 28154, Note_on_c, 0, 43, 61
2, 28181, Note_on_c, 0, 31, 0
2, 28211, Note_on_c, 0, 59, 0
2, 28231, Note_on_c, 0, 43, 0
2, 28401, Note_on_c, 0, 60, 92
2, 28404, Note_on_c, 0, 33, 68
2, 28404, Note_on_c, 0, 45, 76
2, 28410, Note_on_c, 0, 57, 78
2, 28412, Note_on_c, 0, 59, 71
2, 28423, Note_on_c, 0, 59, 0
2, 28423, Control_c, 0, 64, 127
2, 28707, Note_on_c, 0, 45, 0
2, 28718, Note_on_c, 0, 45, 66
2, 28723, Note_on_c, 0, 60, 0
2, 28727, Note_on_c, 0, 60, 76
2, 28738, Note_on_c, 0, 33, 0
2, 28745, Note_on_c, 0, 33, 58
2, 28761, Note_on_c, 0, 52, 60
2, 28838, Note_on_c, 0, 57, 0
2, 28843, Note_on_c, 0, 57, 72
2, 28869, Note_on_c, 0, 60, 0
2, 28875, Note_on_c, 0, 60, 75
2, 29007, Note_on_c, 0, 45, 0
2, 29015, Note_on_c, 0, 33, 0
2, 29016, Note_on_c, 0, 45, 77
2, 29019, Note_on_c, 0, 33, 65
2, 29021, Note_on_c, 0, 62, 85
2, 29067, Note_on_c, 0, 60, 0
2, 29071, Note_on_c, 0, 52, 0
2, 29073, Note_on_c, 0, 33, 0
2, 29075, Control_c, 0, 64, 0
2, 29079, Note_on_c, 0, 45, 0
2, 29099, Note_on_c, 0, 57, 0
2, 29183, Note_on_c, 0, 31, 70
2, 29184, Note_on_c, 0, 59, 89
2, 29185, Note_on_c, 0, 43, 64
2, 29201, Note_on_c, 0, 62, 0
2, 29230, Note_on_c, 0, 43, 0
2, 29322, Note_on_c, 0, 31, 0
2, 29329, Note_on_c, 0, 31, 65
2, 29330, Note_on_c, 0, 43, 65
2, 29331, Note_on_c, 0, 57, 82
2, 29389, Note_on_c, 0, 59, 0
2, 29472, Note_on_c, 0, 57, 0
2, 29475, Note_on_c, 0, 31, 0
2, 29485, Note_on_c, 0, 55, 75
2, 29486, Note_on_c, 0, 31, 64
2, 29621, Note_on_c, 0, 43, 0
2, 29622, Note_on_c, 0, 31, 0
2, 29650, Note_on_c, 0, 57, 84
2, 29657, Note_on_c, 0, 55, 0
2, 29793, Note_on_c, 0, 29, 70
2, 29962, Note_on_c, 0, 41, 60
2, 30063, Note_on_c, 0, 57, 0
2, 30065, Note_on_c, 0, 41, 0
2, 30066, Note_on_c, 0, 29, 0
2, 30268, Note_on_c, 0, 41, 62
2, 30354, Note_on_c, 0, 41, 0
2, 30402, Note_on_c, 0, 29, 71
2, 30432, Note_on_c, 0, 57, 80
2, 30472, Note_on_c, 0, 41, 72
2, 30555, Note_on_c, 0, 31, 86
2, 30570, Note_on_c, 0, 29, 0
2, 30574, Note_on_c, 0, 41, 0
2, 30608, Note_on_c, 0, 55, 79
2, 30638, Note_on_c, 0, 31, 0
2, 30656, Note_on_c, 0, 57, 0
2, 30716, Note_on_c, 0, 55, 0
2, 30740, Note_on_c, 0, 52, 73
2, 30817, Note_on_c, 0, 52, 0
2, 30903, Note_on_c, 0, 36, 75
2, 30906, Note_on_c, 0, 52, 77
2, 30907, Note_on_c, 0, 48, 70
2, 30942, Control_c, 0, 64, 127
2, 31203, Note_on_c, 0, 48, 0
2, 31210, Note_on_c, 0, 48, 58
2, 31215, Note_on_c, 0, 40, 52
2, 31219, Note_on_c, 0, 40, 0
2, 31300, Note_on_c, 0, 55, 71
2, 31389, Note_on_c, 0, 60, 80
2, 31547, Note_on_c, 0, 67, 80
2, 31674, Control_c, 0, 64, 0
2, 31674, Note_on_c, 0, 48, 0
2, 31675, Note_on_c, 0, 60, 0
2, 31675, Note_on_c, 0, 67, 0
2, 31676, Note_on_c, 0, 52, 0
2, 31676, Note_on_c, 0, 55, 0
2, 31687, Note_on_c, 0, 36, 0
2, 31691, Note_on_c, 0, 84, 94
2, 31698, Note_on_c, 0, 72, 92
2, 31698, Note_on_c, 0, 76, 89
2, 31718, Control_c, 0, 64, 127
2, 31846, Note_on_c, 0, 67, 82
2, 31847, Note_on_c, 0, 83, 88
2, 31852, Note_on_c, 0, 74, 86
2, 31864, Note_on_c, 0, 72, 0
2, 31990, Note_on_c, 0, 60, 90
2, 31992, Note_on_c, 0, 81, 90
2, 31997, Note_on_c, 0, 72, 83
2, 32152, Note_on_c, 0, 79, 90
2, 32153, Note_on_c, 0, 71, 86
2, 32250, Note_on_c, 0, 67, 0
2, 32252, Note_on_c, 0, 84, 0
2, 32252, Note_on_c, 0, 60, 0
2, 32252, Note_on_c, 0, 74, 0
2, 32252, Note_on_c, 0, 72, 0
2, 32252, Note_on_c, 0, 83, 0
2, 32253, Note_on_c, 0, 71, 0
2, 32253, Note_on_c, 0, 76, 0
2, 32256, Note_on_c, 0, 79, 0
2, 32256, Control_c, 0, 64, 0
2, 32286, Note_on_c, 0, 81, 0
2, 32295, Note_on_c, 0, 81, 94
2, 32313, Note_on_c, 0, 72, 87
2, 32314, Note_on_c, 0, 29, 59
2, 32332, Control_c, 0, 64, 127
2, 32468, Note_on_c, 0, 41, 60
2, 32575, Note_on_c, 0, 29, 0
2, 32577, Note_on_c, 0, 41, 0
2, 32578, Control_c, 0, 64, 0
2, 32579, Note_on_c, 0, 72, 0
2, 32580, Note_on_c, 0, 81, 0
2, 32622, Note_on_c, 0, 69, 88
2, 32628, Note_on_c, 0, 60, 76
2, 32768, Note_on_c, 0, 41, 68
2, 32822, Note_on_c, 0, 41, 0
2, 32847, Note_on_c, 0, 60, 0
2, 32862, Note_on_c, 0, 69, 0
2, 32917, Note_on_c, 0, 41, 71
2, 32919, Note_on_c, 0, 29, 73
2, 32924, Note_on_c, 0, 69, 86
2, 32928, Note_on_c, 0, 60, 80
2, 32967, Note_on_c, 0, 60, 0
2, 32993, Note_on_c, 0, 41, 0
2, 32998, Note_on_c, 0, 41, 70
2, 33040, Note_on_c, 0, 41, 0
2, 33062, Note_on_c, 0, 29, 0
2, 33088, Note_on_c, 0, 31, 86
2, 33091, Note_on_c, 0, 65, 65
2, 33091, Note_on_c, 0, 71, 96
2, 33096, Note_on_c, 0, 62, 79
2, 33116, Note_on_c, 0, 69, 0
2, 33138, Note_on_c, 0, 31, 0
2, 33167, Note_on_c, 0, 43, 67
2, 33216, Note_on_c, 0, 43, 0
2, 33285, Note_on_c, 0, 62, 0
2, 33409, Note_on_c, 0, 72, 100
2, 33411, Note_on_c, 0, 33, 83
2, 33412, Note_on_c, 0, 45, 83
2, 33413, Note_on_c, 0, 64, 82
2, 33415, Note_on_c, 0, 65, 0
2, 33477, Control_c, 0, 64, 127
2, 33715, Note_on_c, 0, 45, 0
2, 33722, Note_on_c, 0, 64, 0
2, 33722, Note_on_c, 0, 72, 0
2, 33725, Note_on_c, 0, 45, 72
2, 33730, Note_on_c, 0, 72, 92
2, 33733, Note_on_c, 0, 64, 74
2, 33814, Note_on_c, 0, 52, 62
2, 33861, Note_on_c, 0, 45, 0
2, 33868, Note_on_c, 0, 45, 68
2, 33870, Note_on_c, 0, 57, 72
2, 33884, Note_on_c, 0, 72, 0
2, 33892, Note_on_c, 0, 72, 97
2, 33964, Note_on_c, 0, 33, 0
2, 33964, Note_on_c, 0, 57, 0
2, 33964, Note_on_c, 0, 52, 0
2, 33965, Note_on_c, 0, 45, 0
2, 33965, Note_on_c, 0, 64, 0
2, 33965, Control_c, 0, 64, 0
2, 33976, Note_on_c, 0, 71, 0
2, 34029, Note_on_c, 0, 74, 93
2, 34044, Note_on_c, 0, 45, 73
2, 34045, Control_c, 0, 64, 127
2, 34049, Note_on_c, 0, 65, 80
2, 34049, Note_on_c, 0, 33, 69
2, 34142, Note_on_c, 0, 45, 0
2, 34144, Control_c, 0, 64, 0
2, 34144, Note_on_c, 0, 33, 0
2, 34146, Note_on_c, 0, 74, 0
2, 34147, Note_on_c, 0, 65, 0
2, 34160, Note_on_c, 0, 72, 0
2, 34189, Note_on_c, 0, 31, 82
2, 34190, Note_on_c, 0, 43, 74
2, 34194, Note_on_c, 0, 71, 95
2, 34196, Note_on_c, 0, 62, 79
2, 34245, Control_c, 0, 64, 127
2, 34340, Note_on_c, 0, 69, 90
2, 34350, Note_on_c, 0, 60, 78
2, 34469, Note_on_c, 0, 43, 0
2, 34471, Note_on_c, 0, 71, 0
2, 34471, Note_on_c, 0, 60, 0
2, 34471, Control_c, 0, 64, 0
2, 34471, Note_on_c, 0, 69, 0
2, 34490, Note_on_c, 0, 31, 0
2, 34495, Note_on_c, 0, 31, 73
2, 34498, Note_on_c, 0, 62, 0
2, 34502, Note_on_c, 0, 67, 85
2, 34507, Note_on_c, 0, 59, 75
2, 34509, Note_on_c, 0, 62, 69
2, 34551, Note_on_c, 0, 59, 0
2, 34560, Note_on_c, 0, 62, 0
2, 34665, Note_on_c, 0, 69, 87
2, 34667, Note_on_c, 0, 60, 83
2, 34672, Note_on_c, 0, 67, 0
2, 34682, Note_on_c, 0, 31, 0
2, 34809, Note_on_c, 0, 29, 71
2, 34967, Note_on_c, 0, 29, 0
2, 34977, Note_on_c, 0, 41, 68
2, 34977, Note_on_c, 0, 29, 65
2, 35083, Note_on_c, 0, 29, 0
2, 35086, Note_on_c, 0, 41, 0
2, 35086, Note_on_c, 0, 69, 0
2, 35091, Note_on_c, 0, 60, 0
2, 35297, Note_on_c, 0, 41, 74
2, 35299, Note_on_c, 0, 29, 70
2, 35301, Note_on_c, 0, 69, 86
2, 35303, Note_on_c, 0, 60, 75
2, 35343, Note_on_c, 0, 29, 0
2, 35343, Note_on_c, 0, 41, 0
2, 35347, Note_on_c, 0, 60, 0
2, 35355, Note_on_c, 0, 69, 0
2, 35439, Note_on_c, 0, 29, 72
2, 35442, Note_on_c, 0, 41, 71
2, 35450, Note_on_c, 0, 69, 83
2, 35464, Note_on_c, 0, 60, 81
2, 35496, Note_on_c, 0, 41, 0
2, 35504, Note_on_c, 0, 41, 75
2, 35514, Note_on_c, 0, 29, 0
2, 35527, Note_on_c, 0, 60, 0
2, 35558, Note_on_c, 0, 41, 0
2, 35604, Note_on_c, 0, 31, 85
2, 35614, Note_on_c, 0, 65, 66
2, 35615, Note_on_c, 0, 43, 80
2, 35615, Note_on_c, 0, 71, 93
2, 35623, Note_on_c, 0, 62, 86
2, 35642, Note_on_c, 0, 69, 0
2, 35668, Note_on_c, 0, 31, 0
2, 35696, Note_on_c, 0, 65, 0
2, 35735, Note_on_c, 0, 43, 0
2, 35834, Note_on_c, 0, 62, 0
2, 35946, Note_on_c, 0, 72, 99
2, 35946, Note_on_c, 0, 45, 88
2, 35947, Note_on_c, 0, 33, 84
2, 35952, Note_on_c, 0, 64, 84
2, 35996, Control_c, 0, 64, 127
2, 36241, Note_on_c, 0, 45, 0
2, 36245, Note_on_c, 0, 45, 73
2, 36257, Note_on_c, 0, 64, 0
2, 36264, Note_on_c, 0, 72, 0
2, 36265, Note_on_c, 0, 64, 78
2, 36268, Note_on_c, 0, 72, 91
2, 36320, Note_on_c, 0, 52, 68
2, 36398, Note_on_c, 0, 57, 70
2, 36426, Note_on_c, 0, 64, 0
2, 36426, Note_on_c, 0, 72, 0
2, 36431, Note_on_c, 0, 72, 90
2, 36432, Note_on_c, 0, 64, 78
2, 36542, Control_c, 0, 64, 0
2, 36544, Note_on_c, 0, 52, 0
2, 36544, Note_on_c, 0, 57, 0
2, 36549, Note_on_c, 0, 71, 0
2, 36564, Note_on_c, 0, 33, 0
2, 36564, Note_on_c, 0, 45, 0
2, 36564, Note_on_c, 0, 64, 0
2, 36564, Note_on_c, 0, 72, 0
2, 36573, Note_on_c, 0, 74, 99
2, 36586, Note_on_c, 0, 71, 86
2, 36591, Note_on_c, 0, 67, 86
2, 36591, Note_on_c, 0, 47, 71
2, 36648, Control_c, 0, 64, 127
2, 36856, Note_on_c, 0, 47, 0
2, 36863, Note_on_c, 0, 47, 68
2, 37032, Note_on_c, 0, 67, 0
2, 37037, Note_on_c, 0, 79, 103
2, 37040, Note_on_c, 0, 67, 85
2, 37044, Note_on_c, 0, 55, 65
2, 37189, Note_on_c, 0, 62, 77
2, 37347, Note_on_c, 0, 71, 0
2, 37349, Note_on_c, 0, 47, 0
2, 37349, Note_on_c, 0, 67, 0
2, 37350, Note_on_c, 0, 74, 0
2, 37350, Note_on_c, 0, 79, 0
2, 37350, Note_on_c, 0, 62, 0
2, 37350, Note_on_c, 0, 55, 0
2, 37351, Control_c, 0, 64, 0
2, 37352, Note_on_c, 0, 48, 66
2, 37359, Note_on_c, 0, 89, 96
2, 37364, Note_on_c, 0, 77, 92
2, 37447, Control_c, 0, 64, 127
2, 37520, Note_on_c, 0, 60, 75
2, 37663, Note_on_c, 0, 64, 60
2, 37815, Note_on_c, 0, 88, 86
2, 37823, Note_on_c, 0, 76, 73
2, 37827, Note_on_c, 0, 67, 71
2, 37969, Note_on_c, 0, 60, 0
2, 37969, Note_on_c, 0, 76, 0
2, 37969, Note_on_c, 0, 88, 0
2, 37974, Note_on_c, 0, 60, 69
2, 37975, Note_on_c, 0, 88, 91
2, 37980, Note_on_c, 0, 76, 77
2, 38135, Note_on_c, 0, 72, 73
2, 38277, Note_on_c, 0, 67, 0
2, 38287, Note_on_c, 0, 67, 65
2, 38415, Note_on_c, 0, 48, 0
2, 38415, Note_on_c, 0, 64, 0
2, 38425, Note_on_c, 0, 64, 67
2, 38425, Note_on_c, 0, 48, 58
2, 38435, Note_on_c, 0, 60, 0
2, 38436, Note_on_c, 0, 86, 90
2, 38442, Note_on_c, 0, 74, 75
2, 38592, Note_on_c, 0, 86, 0
2, 38595, Note_on_c, 0, 64, 0
2, 38596, Note_on_c, 0, 67, 0
2, 38596, Note_on_c, 0, 89, 0
2, 38596, Note_on_c, 0, 88, 0
2, 38596, Note_on_c, 0, 77, 0
2, 38597, Note_on_c, 0, 76, 0
2, 38597, Control_c, 0, 64, 0
2, 38597, Note_on_c, 0, 72, 0
2, 38599, Note_on_c, 0, 74, 0
2, 38599, Note_on_c, 0, 47, 57
2, 38600, Note_on_c, 0, 48, 0
2, 38601, Note_on_c, 0, 86, 91
2, 38603, Note_on_c, 0, 74, 81
2, 38604, Note_on_c, 0, 59, 52
2, 38638, Control_c, 0, 64, 127
2, 38753, Note_on_c, 0, 59, 0
2, 38753, Note_on_c, 0, 74, 0
2, 38753, Note_on_c, 0, 86, 0
2, 38757, Note_on_c, 0, 86, 86
2, 38757, Note_on_c, 0, 59, 74
2, 38763, Note_on_c, 0, 74, 78
2, 38899, Note_on_c, 0, 74, 0
2, 38899, Note_on_c, 0, 86, 0
2, 38903, Note_on_c, 0, 62, 65
2, 38905, Note_on_c, 0, 74, 77
2, 38908, Note_on_c, 0, 86, 85
2, 39048, Note_on_c, 0, 91, 81
2, 39068, Note_on_c, 0, 79, 79
2, 39069, Note_on_c, 0, 67, 66
2, 39214, Note_on_c, 0, 59, 0
2, 39218, Note_on_c, 0, 59, 75
2, 39352, Note_on_c, 0, 86, 0
2, 39358, Note_on_c, 0, 86, 91
2, 39360, Note_on_c, 0, 59, 0
2, 39360, Note_on_c, 0, 74, 0
2, 39363, Note_on_c, 0, 59, 64
2, 39364, Note_on_c, 0, 71, 74
2, 39364, Note_on_c, 0, 74, 74
2, 39505, Note_on_c, 0, 67, 0
2, 39513, Note_on_c, 0, 74, 0
2, 39513, Note_on_c, 0, 86, 0
2, 39517, Note_on_c, 0, 67, 79
2, 39517, Note_on_c, 0, 86, 96
2, 39519, Note_on_c, 0, 74, 77
2, 39659, Note_on_c, 0, 62, 0
2, 39663, Note_on_c, 0, 62, 69
2, 39665, Note_on_c, 0, 88, 87
2, 39684, Note_on_c, 0, 76, 71
2, 39774, Note_on_c, 0, 47, 0
2, 39813, Note_on_c, 0, 86, 0
2, 39820, Note_on_c, 0, 74, 0
2, 39824, Note_on_c, 0, 86, 95
2, 39824, Control_c, 0, 64, 0
2, 39826, Note_on_c, 0, 45, 68
2, 39826, Note_on_c, 0, 91, 0
2, 39826, Note_on_c, 0, 62, 0
2, 39827, Note_on_c, 0, 88, 0
2, 39827, Note_on_c, 0, 71, 0
2, 39827, Note_on_c, 0, 59, 0
2, 39827, Note_on_c, 0, 76, 0
2, 39828, Note_on_c, 0, 79, 0
2, 39830, Note_on_c, 0, 74, 82
2, 39836, Note_on_c, 0, 67, 0
2, 39897, Control_c, 0, 64, 127
2, 39982, Note_on_c, 0, 45, 0
2, 39985, Note_on_c, 0, 57, 71
2, 40125, Note_on_c, 0, 60, 72
2, 40278, Note_on_c, 0, 64, 61
2, 40282, Note_on_c, 0, 84, 73
2, 40283, Note_on_c, 0, 72, 77
2, 40427, Note_on_c, 0, 57, 0
2, 40427, Note_on_c, 0, 84, 0
2, 40435, Note_on_c, 0, 72, 0
2, 40436, Note_on_c, 0, 57, 73
2, 40438, Note_on_c, 0, 84, 87
2, 40441, Note_on_c, 0, 72, 85
2, 40591, Note_on_c, 0, 69, 65
2, 40719, Note_on_c, 0, 64, 0
2, 40730, Note_on_c, 0, 64, 61
2, 40880, Note_on_c, 0, 60, 0
2, 40880, Note_on_c, 0, 69, 0
2, 40891, Note_on_c, 0, 81, 83
2, 40891, Note_on_c, 0, 60, 66
2, 40891, Note_on_c, 0, 69, 74
2, 41044, Note_on_c, 0, 81, 0
2, 41044, Note_on_c, 0, 64, 0
2, 41044, Note_on_c, 0, 69, 0
2, 41044, Note_on_c, 0, 74, 0
2, 41044, Note_on_c, 0, 84, 0
2, 41044, Note_on_c, 0, 57, 0
2, 41045, Note_on_c, 0, 72, 0
2, 41045, Note_on_c, 0, 60, 0
2, 41045, Note_on_c, 0, 43, 65
2, 41046, Note_on_c, 0, 83, 90
2, 41047, Control_c, 0, 64, 0
2, 41052, Note_on_c, 0, 71, 76
2, 41057, Note_on_c, 0, 86, 0
2, 41118, Control_c, 0, 64, 127
2, 41180, Note_on_c, 0, 71, 0
2, 41213, Note_on_c, 0, 55, 56
2, 41333, Note_on_c, 0, 83, 0
2, 41344, Note_on_c, 0, 83, 86
2, 41352, Note_on_c, 0, 71, 69
2, 41354, Note_on_c, 0, 59, 65
2, 41511, Note_on_c, 0, 88, 79
2, 41512, Note_on_c, 0, 64, 61
2, 41656, Note_on_c, 0, 55, 0
2, 41665, Note_on_c, 0, 55, 48
2, 41802, Note_on_c, 0, 59, 0
2, 41809, Note_on_c, 0, 59, 48
2, 41813, Note_on_c, 0, 67, 73
2, 41955, Note_on_c, 0, 64, 0
2, 41963, Note_on_c, 0, 71, 0
2, 41963, Note_on_c, 0, 83, 0
2, 41966, Note_on_c, 0, 64, 62
2, 41968, Note_on_c, 0, 83, 85
2, 41974, Note_on_c, 0, 71, 76
2, 42109, Note_on_c, 0, 59, 0
2, 42115, Note_on_c, 0, 59, 70
2, 42125, Note_on_c, 0, 81, 89
2, 42135, Note_on_c, 0, 69, 68
2, 42278, Note_on_c, 0, 69, 0
2, 42278, Note_on_c, 0, 81, 0
2, 42284, Note_on_c, 0, 81, 81
2, 42285, Note_on_c, 0, 64, 0
2, 42286, Note_on_c, 0, 67, 0
2, 42286, Note_on_c, 0, 59, 0
2, 42287, Note_on_c, 0, 41, 59
2, 42288, Note_on_c, 0, 88, 0
2, 42288, Control_c, 0, 64, 0
2, 42288, Note_on_c, 0, 83, 0
2, 42289, Note_on_c, 0, 69, 65
2, 42293, Note_on_c, 0, 43, 0
2, 42301, Note_on_c, 0, 55, 0
2, 42309, Note_on_c, 0, 71, 0
2, 42378, Control_c, 0, 64, 127
2, 42445, Note_on_c, 0, 48, 53
2, 42606, Note_on_c, 0, 57, 72
2, 42751, Note_on_c, 0, 53, 66
2, 42900, Note_on_c, 0, 69, 0
2, 42900, Note_on_c, 0, 81, 0
2, 42904, Note_on_c, 0, 81, 91
2, 42905, Note_on_c, 0, 60, 78
2, 42910, Note_on_c, 0, 69, 75
2, 43031, Note_on_c, 0, 57, 0
2, 43040, Note_on_c, 0, 57, 78
2, 43138, Note_on_c, 0, 83, 96
2, 43141, Note_on_c, 0, 71, 87
2, 43206, Note_on_c, 0, 65, 81
2, 43330, Note_on_c, 0, 60, 0
2, 43340, Note_on_c, 0, 60, 77
2, 43362, Note_on_c, 0, 84, 91
2, 43364, Note_on_c, 0, 72, 91
2, 43504, Note_on_c, 0, 42, 69
2, 43517, Note_on_c, 0, 86, 99
2, 43531, Note_on_c, 0, 41, 0
2, 43532, Note_on_c, 0, 53, 0
2, 43532, Note_on_c, 0, 48, 0
2, 43532, Note_on_c, 0, 57, 0
2, 43532, Note_on_c, 0, 81, 0
2, 43532, Note_on_c, 0, 65, 0
2, 43533, Note_on_c, 0, 60, 0
2, 43533, Note_on_c, 0, 71, 0
2, 43533, Note_on_c, 0, 84, 0
2, 43533, Note_on_c, 0, 83, 0
2, 43533, Note_on_c, 0, 72, 0
2, 43534, Control_c, 0, 64, 0
2, 43537, Note_on_c, 0, 69, 0
2, 43544, Note_on_c, 0, 74, 80
2, 43599, Control_c, 0, 64, 127
2, 43667, Note_on_c, 0, 50, 64
2, 43825, Note_on_c, 0, 57, 74
2, 43827, Note_on_c, 0, 81, 89
2, 43831, Note_on_c, 0, 69, 80
2, 43980, Note_on_c, 0, 54, 64
2, 44142, Note_on_c, 0, 83, 92
2, 44147, Note_on_c, 0, 62, 73
2, 44148, Note_on_c, 0, 71, 85
2, 44290, Note_on_c, 0, 57, 0
2, 44295, Note_on_c, 0, 57, 65
2, 44439, Note_on_c, 0, 66, 79
2, 44440, Note_on_c, 0, 84, 85
2, 44443, Note_on_c, 0, 72, 87
2, 44743, Note_on_c, 0, 71, 0
2, 44743, Note_on_c, 0, 83, 0
2, 44747, Note_on_c, 0, 43, 73
2, 44747, Note_on_c, 0, 83, 94
2, 44753, Note_on_c, 0, 71, 82
2, 44770, Control_c, 0, 64, 0
2, 44771, Note_on_c, 0, 54, 0
2, 44771, Note_on_c, 0, 69, 0
2, 44771, Note_on_c, 0, 57, 0
2, 44771, Note_on_c, 0, 66, 0
2, 44772, Note_on_c, 0, 84, 0
2, 44772, Note_on_c, 0, 81, 0
2, 44772, Note_on_c, 0, 62, 0
2, 44772, Note_on_c, 0, 86, 0
2, 44772, Note_on_c, 0, 50, 0
2, 44772, Note_on_c, 0, 72, 0
2, 44773, Note_on_c, 0, 74, 0
2, 44789, Note_on_c, 0, 42, 0
2, 44874, Control_c, 0, 64, 127
2, 44895, Note_on_c, 0, 50, 69
2, 45061, Note_on_c, 0, 59, 77
2, 45210, Note_on_c, 0, 55, 65
2, 45367, Note_on_c, 0, 84, 92
2, 45369, Note_on_c, 0, 62, 82
2, 45370, Note_on_c, 0, 72, 91
2, 45504, Note_on_c, 0, 59, 0
2, 45508, Note_on_c, 0, 59, 75
2, 45669, Note_on_c, 0, 67, 91
2, 45811, Note_on_c, 0, 62, 0
2, 45815, Note_on_c, 0, 62, 83
2, 45830, Note_on_c, 0, 86, 97
2, 45835, Note_on_c, 0, 74, 91
2, 45980, Note_on_c, 0, 86, 0
2, 45984, Note_on_c, 0, 44, 76
2, 45985, Note_on_c, 0, 86, 103
2, 45987, Note_on_c, 0, 74, 0
2, 45987, Note_on_c, 0, 83, 0
2, 45992, Note_on_c, 0, 74, 97
2, 45992, Note_on_c, 0, 80, 89
2, 45997, Note_on_c, 0, 83, 89
2, 46000, Control_c, 0, 64, 0
2, 46008, Note_on_c, 0, 59, 0
2, 46009, Note_on_c, 0, 84, 0
2, 46010, Note_on_c, 0, 72, 0
2, 46010, Note_on_c, 0, 55, 0
2, 46011, Note_on_c, 0, 67, 0
2, 46011, Note_on_c, 0, 62, 0
2, 46012, Note_on_c, 0, 50, 0
2, 46026, Note_on_c, 0, 43, 0
2, 46026, Note_on_c, 0, 71, 0
2, 46095, Control_c, 0, 64, 127
2, 46143, Note_on_c, 0, 52, 71
2, 46304, Note_on_c, 0, 56, 80
2, 46452, Note_on_c, 0, 59, 92
2, 46602, Note_on_c, 0, 80, 0
2, 46602, Note_on_c, 0, 83, 0
2, 46603, Note_on_c, 0, 88, 105
2, 46606, Note_on_c, 0, 83, 88
2, 46606, Note_on_c, 0, 76, 99
2, 46608, Note_on_c, 0, 80, 92
2, 46612, Note_on_c, 0, 64, 77
2, 46763, Note_on_c, 0, 68, 86
2, 46907, Note_on_c, 0, 71, 96
2, 47055, Note_on_c, 0, 76, 0
2, 47061, Note_on_c, 0, 76, 99
2, 47163, Control_c, 0, 64, 0
2, 47164, Note_on_c, 0, 59, 0
2, 47164, Note_on_c, 0, 56, 0
2, 47164, Note_on_c, 0, 68, 0
2, 47164, Note_on_c, 0, 80, 0
2, 47165, Note_on_c, 0, 64, 0
2, 47165, Note_on_c, 0, 83, 0
2, 47165, Note_on_c, 0, 71, 0
2, 47165, Note_on_c, 0, 52, 0
2, 47170, Note_on_c, 0, 44, 0
2, 47185, Note_on_c, 0, 74, 0
2, 47185, Note_on_c, 0, 86, 0
2, 47211, Note_on_c, 0, 91, 104
2, 47239, Control_c, 0, 64, 127
2, 47290, Note_on_c, 0, 86, 91
2, 47348, Note_on_c, 0, 84, 82
2, 47395, Note_on_c, 0, 79, 92
2, 47469, Note_on_c, 0, 74, 89
2, 47523, Note_on_c, 0, 72, 94
2, 47583, Note_on_c, 0, 67, 81
2, 47657, Note_on_c, 0, 62, 80
2, 47698, Note_on_c, 0, 60, 91
2, 47765, Note_on_c, 0, 55, 82
2, 47865, Note_on_c, 0, 43, 93
2, 47865, Note_on_c, 0, 31, 97
2, 47877, Note_on_c, 0, 88, 0
2, 47884, Note_on_c, 0, 86, 0
2, 47884, Note_on_c, 0, 74, 0
2, 47885, Control_c, 0, 64, 0
2, 47885, Note_on_c, 0, 91, 0
2, 47886, Note_on_c, 0, 62, 0
2, 47886, Note_on_c, 0, 76, 0
2, 47887, Note_on_c, 0, 67, 0
2, 47887, Note_on_c, 0, 79, 0
2, 47887, Note_on_c, 0, 60, 0
2, 47887, Note_on_c, 0, 55, 0
2, 47887, Note_on_c, 0, 72, 0
2, 47887, Note_on_c, 0, 84, 0
2, 48030, Control_c, 0, 64, 127
2, 48196, Note_on_c, 0, 72, 106
2, 48197, Note_on_c, 0, 60, 102
2, 48342, Note_on_c, 0, 74, 105
2, 48348, Note_on_c, 0, 62, 91
2, 48466, Control_c, 0, 64, 0
2, 48467, Note_on_c, 0, 60, 0
2, 48467, Note_on_c, 0, 62, 0
2, 48468, Note_on_c, 0, 74, 0
2, 48468, Note_on_c, 0, 43, 0
2, 48476, Note_on_c, 0, 31, 0
2, 48491, Note_on_c, 0, 72, 0
2, 48501, Note_on_c, 0, 76, 110
2, 48501, Note_on_c, 0, 67, 101
2, 48502, Note_on_c, 0, 64, 101
2, 48502, Note_on_c, 0, 72, 104
2, 48545, Control_c, 0, 64, 127
2, 48664, Note_on_c, 0, 48, 62
2, 48668, Note_on_c, 0, 60, 64
2, 48805, Note_on_c, 0, 52, 70
2, 48809, Note_on_c, 0, 55, 71
2, 48967, Note_on_c, 0, 48, 0
2, 48967, Note_on_c, 0, 60, 0
2, 48974, Note_on_c, 0, 48, 70
2, 48975, Note_on_c, 0, 64, 0
2, 48975, Note_on_c, 0, 76, 0
2, 48975, Note_on_c, 0, 60, 76
2, 48979, Note_on_c, 0, 64, 84
2, 48980, Note_on_c, 0, 76, 98
2, 49121, Note_on_c, 0, 60, 0
2, 49128, Note_on_c, 0, 48, 0
2, 49128, Note_on_c, 0, 52, 0
2, 49128, Note_on_c, 0, 67, 0
2, 49130, Note_on_c, 0, 79, 108
2, 49130, Note_on_c, 0, 60, 90
2, 49133, Note_on_c, 0, 67, 100
2, 49133, Note_on_c, 0, 52, 83
2, 49134, Note_on_c, 0, 48, 78
2, 49138, Note_on_c, 0, 71, 84
2, 49282, Note_on_c, 0, 48, 0
2, 49293, Note_on_c, 0, 48, 73
2, 49371, Note_on_c, 0, 77, 103
2, 49376, Note_on_c, 0, 65, 97
2, 49382, Note_on_c, 0, 60, 0
2, 49392, Note_on_c, 0, 60, 77
2, 49474, Note_on_c, 0, 52, 0
2, 49474, Note_on_c, 0, 55, 0
2, 49484, Note_on_c, 0, 52, 75
2, 49485, Note_on_c, 0, 55, 75
2, 49597, Note_on_c, 0, 48, 0
2, 49597, Note_on_c, 0, 64, 0
2, 49597, Note_on_c, 0, 76, 0
2, 49603, Note_on_c, 0, 48, 75
2, 49606, Note_on_c, 0, 76, 101
2, 49608, Note_on_c, 0, 64, 90
2, 49734, Note_on_c, 0, 60, 0
2, 49735, Note_on_c, 0, 52, 0
2, 49735, Note_on_c, 0, 65, 0
2, 49735, Note_on_c, 0, 48, 0
2, 49736, Note_on_c, 0, 64, 0
2, 49736, Note_on_c, 0, 67, 0
2, 49737, Note_on_c, 0, 71, 0
2, 49737, Note_on_c, 0, 76, 0
2, 49737, Note_on_c, 0, 77, 0
2, 49737, Note_on_c, 0, 55, 0
2, 49737, Control_c, 0, 64, 0
2, 49737, Note_on_c, 0, 72, 0
2, 49737, Note_on_c, 0, 79, 0
2, 49758, Note_on_c, 0, 74, 105
2, 49762, Note_on_c, 0, 47, 88
2, 49762, Note_on_c, 0, 43, 76
2, 49762, Note_on_c, 0, 35, 80
2, 49762, Note_on_c, 0, 62, 96
2, 49812, Control_c, 0, 64, 127
2, 49881, Note_on_c, 0, 35, 0
2, 49920, Note_on_c, 0, 47, 0
2, 49924, Note_on_c, 0, 47, 50
2, 50077, Note_on_c, 0, 55, 69
2, 50082, Note_on_c, 0, 50, 64
2, 50127, Note_on_c, 0, 47, 0
2, 50132, Note_on_c, 0, 47, 48
2, 50150, Note_on_c, 0, 43, 0
2, 50160, Note_on_c, 0, 43, 43
2, 50219, Note_on_c, 0, 47, 0
2, 50228, Note_on_c, 0, 47, 71
2, 50228, Note_on_c, 0, 67, 96
2, 50319, Note_on_c, 0, 43, 0
2, 50326, Note_on_c, 0, 43, 47
2, 50388, Note_on_c, 0, 43, 0
2, 50388, Note_on_c, 0, 50, 0
2, 50388, Note_on_c, 0, 67, 0
2, 50392, Note_on_c, 0, 59, 89
2, 50393, Note_on_c, 0, 67, 98
2, 50396, Note_on_c, 0, 43, 64
2, 50399, Note_on_c, 0, 50, 71
2, 50534, Note_on_c, 0, 47, 0
2, 50542, Note_on_c, 0, 47, 58
2, 50688, Note_on_c, 0, 55, 0
2, 50695, Note_on_c, 0, 47, 0
2, 50695, Note_on_c, 0, 50, 0
2, 50698, Note_on_c, 0, 71, 98
2, 50699, Note_on_c, 0, 55, 75
2, 50700, Note_on_c, 0, 47, 68
2, 50700, Note_on_c, 0, 50, 77
2, 50841, Note_on_c, 0, 47, 0
2, 50846, Note_on_c, 0, 47, 71
2, 50850, Note_on_c, 0, 72, 103
2, 51002, Note_on_c, 0, 62, 0
2, 51002, Note_on_c, 0, 71, 0
2, 51002, Note_on_c, 0, 74, 0
2, 51006, Note_on_c, 0, 71, 96
2, 51007, Note_on_c, 0, 74, 106
2, 51009, Note_on_c, 0, 44, 83
2, 51010, Note_on_c, 0, 62, 93
2, 51011, Note_on_c, 0, 68, 98
2, 51031, Note_on_c, 0, 59, 0
2, 51031, Note_on_c, 0, 67, 0
2, 51032, Control_c, 0, 64, 0
2, 51032, Note_on_c, 0, 50, 0
2, 51034, Note_on_c, 0, 43, 0
2, 51035, Note_on_c, 0, 47, 0
2, 51036, Note_on_c, 0, 72, 0
2, 51056, Note_on_c, 0, 55, 0
2, 51118, Control_c, 0, 64, 127
2, 51165, Note_on_c, 0, 52, 63
2, 51326, Note_on_c, 0, 56, 71
2, 51328, Note_on_c, 0, 59, 83
2, 51463, Note_on_c, 0, 52, 0
2, 51463, Note_on_c, 0, 74, 0
2, 51469, Note_on_c, 0, 52, 74
2, 51471, Note_on_c, 0, 62, 0
2, 51471, Note_on_c, 0, 74, 94
2, 51476, Note_on_c, 0, 62, 83
2, 51585, Control_c, 0, 64, 0
2, 51587, Note_on_c, 0, 56, 0
2, 51588, Note_on_c, 0, 62, 0
2, 51588, Note_on_c, 0, 52, 0
2, 51588, Note_on_c, 0, 59, 0
2, 51589, Note_on_c, 0, 44, 0
2, 51601, Note_on_c, 0, 68, 0
2, 51609, Note_on_c, 0, 71, 0
2, 51627, Note_on_c, 0, 77, 100
2, 51628, Note_on_c, 0, 40, 83
2, 51631, Note_on_c, 0, 65, 89
2, 51671, Control_c, 0, 64, 127
2, 51780, Note_on_c, 0, 52, 78
2, 51863, Note_on_c, 0, 52, 0
2, 51867, Note_on_c, 0, 76, 103
2, 51870, Note_on_c, 0, 52, 76
2, 51871, Note_on_c, 0, 64, 91
2, 51982, Note_on_c, 0, 56, 74
2, 51982, Note_on_c, 0, 59, 88
2, 52085, Note_on_c, 0, 74, 0
2, 52093, Note_on_c, 0, 52, 0
2, 52096, Note_on_c, 0, 74, 92
2, 52098, Note_on_c, 0, 52, 77
2, 52098, Note_on_c, 0, 62, 86
2, 52247, Note_on_c, 0, 62, 0
2, 52247, Note_on_c, 0, 74, 0
2, 52255, Note_on_c, 0, 86, 99
2, 52256, Note_on_c, 0, 74, 104
2, 52257, Note_on_c, 0, 45, 86
2, 52258, Note_on_c, 0, 77, 0
2, 52258, Note_on_c, 0, 64, 0
2, 52258, Note_on_c, 0, 52, 0
2, 52258, Note_on_c, 0, 56, 0
2, 52258, Note_on_c, 0, 59, 0
2, 52258, Note_on_c, 0, 57, 95
2, 52258, Note_on_c, 0, 76, 0
2, 52258, Note_on_c, 0, 62, 97
2, 52258, Note_on_c, 0, 40, 0
2, 52258, Control_c, 0, 64, 0
2, 52285, Note_on_c, 0, 65, 0
2, 52346, Control_c, 0, 64, 127
2, 52369, Note_on_c, 0, 86, 0
2, 52397, Note_on_c, 0, 52, 72
2, 52462, Note_on_c, 0, 45, 0
2, 52554, Note_on_c, 0, 57, 0
2, 52562, Note_on_c, 0, 57, 87
2, 52566, Note_on_c, 0, 60, 89
2, 52692, Note_on_c, 0, 52, 0
2, 52700, Note_on_c, 0, 52, 76
2, 52712, Note_on_c, 0, 72, 100
2, 52861, Note_on_c, 0, 72, 0
2, 52865, Note_on_c, 0, 72, 102
2, 52866, Note_on_c, 0, 43, 80
2, 52867, Note_on_c, 0, 55, 84
2, 52870, Control_c, 0, 64, 0
2, 52871, Note_on_c, 0, 67, 78
2, 52873, Note_on_c, 0, 60, 0
2, 52873, Note_on_c, 0, 57, 0
2, 52874, Note_on_c, 0, 62, 0
2, 52876, Note_on_c, 0, 74, 0
2, 52892, Note_on_c, 0, 52, 0
2, 52976, Control_c, 0, 64, 127
2, 53011, Note_on_c, 0, 52, 65
2, 53061, Note_on_c, 0, 55, 0
2, 53176, Note_on_c, 0, 60, 85
2, 53177, Note_on_c, 0, 55, 75
2, 53314, Note_on_c, 0, 52, 0
2, 53320, Note_on_c, 0, 52, 70
2, 53476, Note_on_c, 0, 52, 0
2, 53478, Note_on_c, 0, 60, 0
2, 53478, Note_on_c, 0, 55, 0
2, 53479, Control_c, 0, 64, 0
2, 53480, Note_on_c, 0, 43, 0
2, 53495, Note_on_c, 0, 41, 73
2, 53497, Note_on_c, 0, 53, 71
2, 53568, Note_on_c, 0, 67, 0
2, 53575, Control_c, 0, 64, 127
2, 53643, Note_on_c, 0, 48, 66
2, 53798, Note_on_c, 0, 53, 0
2, 53802, Note_on_c, 0, 57, 80
2, 53802, Note_on_c, 0, 53, 70
2, 53817, Note_on_c, 0, 81, 92
2, 53822, Note_on_c, 0, 69, 89
2, 53936, Note_on_c, 0, 48, 0
2, 53947, Note_on_c, 0, 48, 67
2, 54112, Note_on_c, 0, 83, 102
2, 54113, Note_on_c, 0, 57, 0
2, 54113, Note_on_c, 0, 60, 84
2, 54116, Note_on_c, 0, 71, 96
2, 54117, Note_on_c, 0, 57, 73
2, 54266, Note_on_c, 0, 53, 0
2, 54275, Note_on_c, 0, 53, 71
2, 54405, Note_on_c, 0, 72, 0
2, 54410, Note_on_c, 0, 84, 102
2, 54412, Note_on_c, 0, 60, 0
2, 54416, Note_on_c, 0, 72, 102
2, 54421, Note_on_c, 0, 60, 88
2, 54422, Note_on_c, 0, 65, 74
2, 54558, Note_on_c, 0, 53, 0
2, 54564, Note_on_c, 0, 53, 77
2, 54720, Note_on_c, 0, 84, 0
2, 54727, Note_on_c, 0, 81, 0
2, 54731, Note_on_c, 0, 84, 89
2, 54731, Note_on_c, 0, 89, 106
2, 54733, Control_c, 0, 64, 0
2, 54734, Note_on_c, 0, 69, 0
2, 54735, Note_on_c, 0, 53, 0
2, 54735, Note_on_c, 0, 65, 0
2, 54737, Note_on_c, 0, 77, 101
2, 54737, Note_on_c, 0, 83, 0
2, 54737, Note_on_c, 0, 43, 84
2, 54737, Note_on_c, 0, 71, 0
2, 54737, Note_on_c, 0, 55, 88
2, 54738, Note_on_c, 0, 81, 93
2, 54750, Note_on_c, 0, 41, 0
2, 54750, Note_on_c, 0, 48, 0
2, 54750, Note_on_c, 0, 57, 0
2, 54750, Note_on_c, 0, 60, 0
2, 54750, Note_on_c, 0, 72, 0
2, 54827, Control_c, 0, 64, 127
2, 54876, Note_on_c, 0, 50, 73
2, 55034, Note_on_c, 0, 55, 0
2, 55036, Note_on_c, 0, 88, 101
2, 55039, Note_on_c, 0, 55, 71
2, 55040, Note_on_c, 0, 76, 94
2, 55040, Note_on_c, 0, 59, 79
2, 55173, Note_on_c, 0, 50, 0
2, 55182, Note_on_c, 0, 50, 75
2, 55186, Note_on_c, 0, 86, 101
2, 55191, Note_on_c, 0, 74, 96
2, 55349, Note_on_c, 0, 59, 0
2, 55360, Note_on_c, 0, 62, 95
2, 55361, Note_on_c, 0, 59, 86
2, 55495, Note_on_c, 0, 84, 0
2, 55500, Note_on_c, 0, 84, 100
2, 55503, Note_on_c, 0, 55, 0
2, 55506, Note_on_c, 0, 72, 99
2, 55512, Note_on_c, 0, 55, 78
2, 55664, Note_on_c, 0, 62, 0
2, 55673, Note_on_c, 0, 62, 80
2, 55675, Note_on_c, 0, 67, 77
2, 55802, Note_on_c, 0, 88, 0
2, 55810, Note_on_c, 0, 76, 0
2, 55810, Note_on_c, 0, 84, 0
2, 55813, Note_on_c, 0, 88, 107
2, 55817, Note_on_c, 0, 84, 95
2, 55819, Note_on_c, 0, 79, 104
2, 55819, Note_on_c, 0, 76, 104
2, 55950, Note_on_c, 0, 81, 0
2, 55951, Note_on_c, 0, 86, 0
2, 55951, Note_on_c, 0, 74, 0
2, 55951, Note_on_c, 0, 55, 0
2, 55951, Note_on_c, 0, 50, 0
2, 55952, Note_on_c, 0, 62, 0
2, 55952, Note_on_c, 0, 43, 0
2, 55952, Note_on_c, 0, 77, 0
2, 55953, Control_c, 0, 64, 0
2, 55954, Note_on_c, 0, 67, 0
2, 55956, Note_on_c, 0, 89, 0
2, 55960, Note_on_c, 0, 48, 82
2, 55964, Note_on_c, 0, 59, 0
2, 55964, Note_on_c, 0, 72, 0
2, 56056, Control_c, 0, 64, 127
2, 56126, Note_on_c, 0, 55, 78
2, 56267, Note_on_c, 0, 72, 82
2, 56277, Note_on_c, 0, 60, 79
2, 56338, Note_on_c, 0, 74, 85
2, 56386, Note_on_c, 0, 76, 0
2, 56397, Note_on_c, 0, 76, 87
2, 56437, Note_on_c, 0, 64, 68
2, 56476, Note_on_c, 0, 77, 89
2, 56540, Note_on_c, 0, 79, 0
2, 56547, Note_on_c, 0, 79, 87
2, 56588, Note_on_c, 0, 81, 85
2, 56596, Note_on_c, 0, 67, 72
2, 56643, Note_on_c, 0, 83, 90
2, 56716, Note_on_c, 0, 72, 0
2, 56716, Note_on_c, 0, 84, 0
2, 56723, Note_on_c, 0, 84, 82
2, 56727, Note_on_c, 0, 72, 88
2, 56789, Note_on_c, 0, 86, 89
2, 56832, Note_on_c, 0, 88, 0
2, 56839, Note_on_c, 0, 48, 0
2, 56843, Note_on_c, 0, 88, 92
2, 56870, Note_on_c, 0, 67, 0
2, 56878, Note_on_c, 0, 67, 78
2, 56911, Note_on_c, 0, 89, 96
2, 56973, Note_on_c, 0, 91, 102
2, 56985, Note_on_c, 0, 64, 0
2, 56990, Note_on_c, 0, 64, 76
2, 57043, Note_on_c, 0, 93, 95
2, 57096, Note_on_c, 0, 95, 93
2, 57150, Note_on_c, 0, 96, 105
2, 57160, Note_on_c, 0, 43, 80
2, 57170, Note_on_c, 0, 74, 0
2, 57172, Note_on_c, 0, 93, 0
2, 57172, Note_on_c, 0, 83, 0
2, 57172, Note_on_c, 0, 60, 0
2, 57172, Note_on_c, 0, 64, 0
2, 57172, Note_on_c, 0, 88, 0
2, 57173, Note_on_c, 0, 81, 0
2, 57173, Note_on_c, 0, 67, 0
2, 57173, Note_on_c, 0, 91, 0
2, 57173, Note_on_c, 0, 77, 0
2, 57173, Note_on_c, 0, 79, 0
2, 57173, Note_on_c, 0, 84, 0
2, 57173, Note_on_c, 0, 89, 0
2, 57173, Note_on_c, 0, 55, 0
2, 57175, Control_c, 0, 64, 0
2, 57185, Note_on_c, 0, 72, 0
2, 57185, Note_on_c, 0, 76, 0
2, 57185, Note_on_c, 0, 86, 0
2, 57208, Note_on_c, 0, 95, 0
2, 57213, Note_on_c, 0, 95, 95
2, 57262, Control_c, 0, 64, 127
2, 57264, Note_on_c, 0, 93, 90
2, 57317, Note_on_c, 0, 91, 92
2, 57322, Note_on_c, 0, 55, 77
2, 57369, Note_on_c, 0, 89, 79
2, 57425, Note_on_c, 0, 88, 94
2, 57459, Note_on_c, 0, 59, 80
2, 57495, Note_on_c, 0, 86, 87
2, 57557, Note_on_c, 0, 84, 69
2, 57612, Note_on_c, 0, 62, 77
2, 57614, Note_on_c, 0, 83, 79
2, 57680, Note_on_c, 0, 81, 89
2, 57757, Note_on_c, 0, 79, 94
2, 57780, Note_on_c, 0, 67, 78
2, 57914, Note_on_c, 0, 62, 0
2, 57926, Note_on_c, 0, 62, 76
2, 58068, Note_on_c, 0, 84, 0
2, 58076, Note_on_c, 0, 55, 0
2, 58079, Note_on_c, 0, 84, 86
2, 58080, Note_on_c, 0, 55, 76
2, 58222, Note_on_c, 0, 62, 0
2, 58222, Note_on_c, 0, 86, 0
2, 58228, Note_on_c, 0, 62, 52
2, 58231, Note_on_c, 0, 86, 91
2, 58373, Note_on_c, 0, 59, 0
2, 58374, Note_on_c, 0, 62, 0
2, 58374, Note_on_c, 0, 81, 0
2, 58374, Note_on_c, 0, 93, 0
2, 58375, Note_on_c, 0, 86, 0
2, 58375, Note_on_c, 0, 95, 0
2, 58375, Note_on_c, 0, 96, 0
2, 58375, Note_on_c, 0, 67, 0
2, 58376, Note_on_c, 0, 89, 0
2, 58376, Note_on_c, 0, 79, 0
2, 58376, Note_on_c, 0, 83, 0
2, 58376, Control_c, 0, 64, 0
2, 58376, Note_on_c, 0, 55, 0
2, 58377, Note_on_c, 0, 91, 0
2, 58377, Note_on_c, 0, 84, 0
2, 58377, Note_on_c, 0, 43, 0
2, 58391, Note_on_c, 0, 88, 0
2, 58395, Note_on_c, 0, 88, 94
2, 58395, Note_on_c, 0, 48, 67
2, 58460, Control_c, 0, 64, 127
2, 58499, Note_on_c, 0, 84, 77
2, 58502, Note_on_c, 0, 55, 64
2, 58593, Note_on_c, 0, 60, 69
2, 58628, Note_on_c, 0, 79, 72
2, 58636, Note_on_c, 0, 48, 0
2, 58702, Note_on_c, 0, 64, 54
2, 58708, Note_on_c, 0, 76, 67
2, 58805, Note_on_c, 0, 79, 0
2, 58816, Note_on_c, 0, 79, 66
2, 58821, Note_on_c, 0, 67, 61
2, 58882, Note_on_c, 0, 88, 0
2, 58893, Note_on_c, 0, 88, 87
2, 58897, Note_on_c, 0, 64, 0
2, 58904, Note_on_c, 0, 64, 57
2, 58905, Note_on_c, 0, 84, 0
2, 58915, Note_on_c, 0, 84, 55
2, 59013, Note_on_c, 0, 60, 0
2, 59020, Note_on_c, 0, 55, 0
2, 59020, Note_on_c, 0, 67, 0
2, 59021, Note_on_c, 0, 64, 0
2, 59021, Note_on_c, 0, 84, 0
2, 59022, Note_on_c, 0, 91, 100
2, 59022, Note_on_c, 0, 76, 0
2, 59022, Note_on_c, 0, 60, 87
2, 59023, Control_c, 0, 64, 0
2, 59043, Note_on_c, 0, 88, 0
2, 59112, Control_c, 0, 64, 127
2, 59136, Note_on_c, 0, 79, 0
2, 59139, Note_on_c, 0, 64, 66
2, 59140, Note_on_c, 0, 79, 74
2, 59234, Note_on_c, 0, 89, 94
2, 59262, Note_on_c, 0, 67, 67
2, 59328, Note_on_c, 0, 79, 0
2, 59337, Note_on_c, 0, 79, 86
2, 59363, Note_on_c, 0, 72, 79
2, 59443, Note_on_c, 0, 67, 0
2, 59444, Note_on_c, 0, 88, 92
2, 59450, Note_on_c, 0, 67, 69
2, 59504, Note_on_c, 0, 64, 0
2, 59513, Note_on_c, 0, 64, 65
2, 59543, Note_on_c, 0, 79, 0
2, 59549, Note_on_c, 0, 79, 82
2, 59632, Note_on_c, 0, 60, 0
2, 59633, Control_c, 0, 64, 0
2, 59633, Note_on_c, 0, 72, 0
2, 59634, Note_on_c, 0, 79, 0
2, 59634, Note_on_c, 0, 64, 0
2, 59634, Note_on_c, 0, 91, 0
2, 59635, Note_on_c, 0, 89, 0
2, 59635, Note_on_c, 0, 88, 0
2, 59645, Note_on_c, 0, 47, 68
2, 59646, Note_on_c, 0, 86, 96
2, 59650, Note_on_c, 0, 67, 0
2, 59699, Note_on_c, 0, 47, 0
2, 59704, Control_c, 0, 64, 127
2, 59769, Note_on_c, 0, 83, 83
2, 59772, Note_on_c, 0, 55, 74
2, 59850, Note_on_c, 0, 59, 76
2, 59876, Note_on_c, 0, 79, 81
2, 59960, Note_on_c, 0, 62, 71
2, 59974, Note_on_c, 0, 71, 81
2, 60074, Note_on_c, 0, 74, 80
2, 60078, Note_on_c, 0, 67, 68
2, 60165, Note_on_c, 0, 79, 0
2, 60170, Note_on_c, 0, 79, 93
2, 60172, Note_on_c, 0, 62, 0
2, 60181, Note_on_c, 0, 62, 69
2, 60264, Note_on_c, 0, 79, 0
2, 60272, Note_on_c, 0, 59, 0
2, 60275, Note_on_c, 0, 79, 102
2, 60283, Note_on_c, 0, 59, 90
2, 60284, Control_c, 0, 64, 0
2, 60285, Note_on_c, 0, 71, 0
2, 60286, Note_on_c, 0, 83, 0
2, 60287, Note_on_c, 0, 55, 0
2, 60287, Note_on_c, 0, 74, 0
2, 60287, Note_on_c, 0, 86, 0
2, 60288, Note_on_c, 0, 62, 0
2, 60303, Note_on_c, 0, 67, 0
2, 60372, Control_c, 0, 64, 127
2, 60400, Note_on_c, 0, 62, 76
2, 60515, Note_on_c, 0, 67, 71
2, 60604, Note_on_c, 0, 71, 75
2, 60679, Note_on_c, 0, 67, 0
2, 60689, Note_on_c, 0, 67, 71
2, 60720, Note_on_c, 0, 83, 90
2, 60741, Note_on_c, 0, 62, 0
2, 60751, Note_on_c, 0, 62, 81
2, 60815, Note_on_c, 0, 84, 88
2, 60909, Note_on_c, 0, 67, 0
2, 60910, Note_on_c, 0, 71, 0
2, 60910, Note_on_c, 0, 44, 77
2, 60910, Note_on_c, 0, 62, 0
2, 60911, Note_on_c, 0, 83, 0
2, 60912, Note_on_c, 0, 84, 0
2, 60913, Note_on_c, 0, 86, 97
2, 60915, Control_c, 0, 64, 0
2, 60917, Note_on_c, 0, 59, 0
2, 60917, Note_on_c, 0, 79, 0
2, 61002, Control_c, 0, 64, 127
2, 61019, Note_on_c, 0, 52, 62
2, 61027, Note_on_c, 0, 83, 79
2, 61111, Note_on_c, 0, 56, 70
2, 61137, Note_on_c, 0, 80, 83
2, 61227, Note_on_c, 0, 59, 70
2, 61243, Note_on_c, 0, 76, 74
2, 61321, Note_on_c, 0, 62, 49
2, 61340, Note_on_c, 0, 80, 0
2, 61345, Note_on_c, 0, 80, 83
2, 61409, Note_on_c, 0, 59, 0
2, 61419, Note_on_c, 0, 59, 66
2, 61447, Note_on_c, 0, 86, 0
2, 61455, Note_on_c, 0, 44, 0
2, 61457, Note_on_c, 0, 86, 88
2, 61545, Control_c, 0, 64, 0
2, 61547, Note_on_c, 0, 52, 0
2, 61548, Note_on_c, 0, 56, 0
2, 61549, Note_on_c, 0, 62, 0
2, 61549, Note_on_c, 0, 80, 0
2, 61550, Note_on_c, 0, 83, 0
2, 61550, Note_on_c, 0, 76, 0
2, 61550, Note_on_c, 0, 86, 0
2, 61556, Note_on_c, 0, 52, 73
2, 61559, Note_on_c, 0, 89, 99
2, 61562, Note_on_c, 0, 59, 0
2, 61616, Control_c, 0, 64, 127
2, 61668, Note_on_c, 0, 59, 78
2, 61669, Note_on_c, 0, 80, 80
2, 61756, Note_on_c, 0, 64, 60
2, 61777, Note_on_c, 0, 88, 96
2, 61853, Note_on_c, 0, 68, 62
2, 61900, Note_on_c, 0, 80, 0
2, 61904, Note_on_c, 0, 80, 75
2, 61931, Note_on_c, 0, 64, 0
2, 61936, Note_on_c, 0, 64, 68
2, 61991, Note_on_c, 0, 86, 92
2, 62039, Note_on_c, 0, 59, 0
2, 62048, Note_on_c, 0, 59, 76
2, 62085, Note_on_c, 0, 80, 0
2, 62091, Note_on_c, 0, 80, 84
2, 62168, Note_on_c, 0, 57, 78
2, 62172, Note_on_c, 0, 68, 0
2, 62172, Note_on_c, 0, 88, 0
2, 62173, Note_on_c, 0, 80, 0
2, 62173, Control_c, 0, 64, 0
2, 62173, Note_on_c, 0, 64, 0
2, 62173, Note_on_c, 0, 89, 0
2, 62173, Note_on_c, 0, 59, 0
2, 62184, Note_on_c, 0, 52, 0
2, 62184, Note_on_c, 0, 86, 0
2, 62188, Note_on_c, 0, 86, 99
2, 62254, Control_c, 0, 64, 127
2, 62285, Note_on_c, 0, 64, 65
2, 62289, Note_on_c, 0, 81, 77
2, 62404, Note_on_c, 0, 76, 70
2, 62405, Note_on_c, 0, 69, 57
2, 62486, Note_on_c, 0, 72, 76
2, 62561, Note_on_c, 0, 57, 0
2, 62568, Note_on_c, 0, 76, 0
2, 62570, Note_on_c, 0, 57, 58
2, 62573, Note_on_c, 0, 76, 74
2, 62592, Note_on_c, 0, 69, 0
2, 62597, Note_on_c, 0, 81, 0
2, 62599, Note_on_c, 0, 69, 65
2, 62691, Note_on_c, 0, 64, 0
2, 62693, Note_on_c, 0, 84, 83
2, 62702, Note_on_c, 0, 64, 64
2, 62791, Note_on_c, 0, 84, 0
2, 62793, Note_on_c, 0, 55, 81
2, 62796, Note_on_c, 0, 84, 88
2, 62800, Note_on_c, 0, 86, 0
2, 62800, Note_on_c, 0, 64, 0
2, 62800, Note_on_c, 0, 69, 0
2, 62801, Note_on_c, 0, 72, 0
2, 62802, Note_on_c, 0, 57, 0
2, 62808, Control_c, 0, 64, 0
2, 62822, Note_on_c, 0, 76, 0
2, 62891, Control_c, 0, 64, 127
2, 62921, Note_on_c, 0, 64, 69
2, 63014, Note_on_c, 0, 67, 75
2, 63096, Note_on_c, 0, 72, 84
2, 63214, Note_on_c, 0, 67, 0
2, 63222, Note_on_c, 0, 58, 48
2, 63225, Note_on_c, 0, 67, 65
2, 63229, Note_on_c, 0, 58, 0
2, 63255, Note_on_c, 0, 79, 90
2, 63290, Note_on_c, 0, 64, 0
2, 63300, Note_on_c, 0, 64, 69
2, 63402, Note_on_c, 0, 89, 97
2, 63410, Note_on_c, 0, 72, 0
2, 63410, Note_on_c, 0, 84, 0
2, 63410, Note_on_c, 0, 79, 0
2, 63410, Note_on_c, 0, 64, 0
2, 63413, Control_c, 0, 64, 0
2, 63415, Note_on_c, 0, 81, 87
2, 63416, Note_on_c, 0, 77, 88
2, 63418, Note_on_c, 0, 53, 68
2, 63421, Note_on_c, 0, 55, 0
2, 63421, Note_on_c, 0, 67, 0
2, 63475, Control_c, 0, 64, 127
2, 63528, Note_on_c, 0, 60, 74
2, 63608, Note_on_c, 0, 65, 59
2, 63633, Note_on_c, 0, 88, 98
2, 63643, Note_on_c, 0, 79, 91
2, 63645, Note_on_c, 0, 76, 83
2, 63711, Note_on_c, 0, 69, 77
2, 63828, Note_on_c, 0, 53, 0
2, 63857, Note_on_c, 0, 86, 90
2, 63859, Note_on_c, 0, 60, 0
2, 63859, Note_on_c, 0, 77, 0
2, 63862, Note_on_c, 0, 74, 83
2, 63864, Note_on_c, 0, 60, 76
2, 63865, Note_on_c, 0, 77, 70
2, 64009, Note_on_c, 0, 55, 75
2, 64015, Note_on_c, 0, 88, 0
2, 64016, Note_on_c, 0, 89, 0
2, 64016, Note_on_c, 0, 81, 0
2, 64016, Note_on_c, 0, 79, 0
2, 64016, Note_on_c, 0, 84, 86
2, 64016, Note_on_c, 0, 60, 0
2, 64016, Note_on_c, 0, 69, 0
2, 64017, Note_on_c, 0, 74, 0
2, 64017, Note_on_c, 0, 77, 0
2, 64019, Note_on_c, 0, 86, 0
2, 64023, Control_c, 0, 64, 0
2, 64028, Note_on_c, 0, 76, 0
2, 64035, Note_on_c, 0, 65, 0
2, 64038, Note_on_c, 0, 76, 77
2, 64039, Note_on_c, 0, 72, 78
2, 64097, Control_c, 0, 64, 127
2, 64134, Note_on_c, 0, 59, 65
2, 64232, Note_on_c, 0, 62, 72
2, 64332, Note_on_c, 0, 74, 91
2, 64333, Note_on_c, 0, 83, 91
2, 64333, Note_on_c, 0, 67, 79
2, 64336, Note_on_c, 0, 71, 85
2, 64427, Note_on_c, 0, 62, 0
2, 64434, Note_on_c, 0, 62, 68
2, 64519, Note_on_c, 0, 59, 0
2, 64529, Note_on_c, 0, 59, 79
2, 64634, Note_on_c, 0, 76, 0
2, 64640, Note_on_c, 0, 59, 0
2, 64640, Note_on_c, 0, 84, 0
2, 64640, Note_on_c, 0, 72, 0
2, 64641, Note_on_c, 0, 67, 0
2, 64641, Note_on_c, 0, 71, 0
2, 64641, Note_on_c, 0, 62, 0
2, 64641, Note_on_c, 0, 74, 0
2, 64642, Note_on_c, 0, 55, 0
2, 64644, Control_c, 0, 64, 0
2, 64654, Note_on_c, 0, 52, 82
2, 64660, Note_on_c, 0, 91, 106
2, 64665, Note_on_c, 0, 83, 0
2, 64669, Note_on_c, 0, 83, 86
2, 64670, Note_on_c, 0, 79, 92
2, 64719, Control_c, 0, 64, 127
2, 64769, Note_on_c, 0, 59, 76
2, 64773, Note_on_c, 0, 52, 0
2, 64849, Note_on_c, 0, 64, 75
2, 64898, Note_on_c, 0, 89, 96
2, 64900, Note_on_c, 0, 81, 87
2, 64900, Note_on_c, 0, 77, 90
2, 64965, Note_on_c, 0, 67, 80
2, 65041, Note_on_c, 0, 64, 0
2, 65047, Note_on_c, 0, 64, 58
2, 65095, Note_on_c, 0, 79, 0
2, 65102, Note_on_c, 0, 88, 101
2, 65103, Note_on_c, 0, 59, 0
2, 65106, Note_on_c, 0, 79, 97
2, 65106, Note_on_c, 0, 76, 96
2, 65107, Note_on_c, 0, 59, 85
2, 65253, Note_on_c, 0, 57, 82
2, 65261, Note_on_c, 0, 86, 96
2, 65273, Note_on_c, 0, 89, 0
2, 65273, Note_on_c, 0, 91, 0
2, 65273, Note_on_c, 0, 81, 0
2, 65273, Note_on_c, 0, 59, 0
2, 65273, Note_on_c, 0, 83, 0
2, 65274, Note_on_c, 0, 64, 0
2, 65274, Note_on_c, 0, 67, 0
2, 65274, Note_on_c, 0, 88, 0
2, 65274, Note_on_c, 0, 79, 0
2, 65274, Note_on_c, 0, 76, 0
2, 65276, Control_c, 0, 64, 0
2, 65280, Note_on_c, 0, 77, 0
2, 65283, Note_on_c, 0, 74, 85
2, 65284, Note_on_c, 0, 77, 78
2, 65356, Control_c, 0, 64, 127
2, 65360, Note_on_c, 0, 60, 69
2, 65453, Note_on_c, 0, 64, 76
2, 65570, Note_on_c, 0, 69, 77
2, 65571, Note_on_c, 0, 57, 0
2, 65576, Note_on_c, 0, 84, 90
2, 65576, Note_on_c, 0, 72, 93
2, 65578, Note_on_c, 0, 57, 70
2, 65580, Note_on_c, 0, 76, 91
2, 65625, Note_on_c, 0, 64, 0
2, 65630, Note_on_c, 0, 64, 68
2, 65733, Note_on_c, 0, 60, 0
2, 65744, Note_on_c, 0, 60, 85
2, 65888, Note_on_c, 0, 74, 0
2, 65888, Note_on_c, 0, 86, 0
2, 65889, Note_on_c, 0, 64, 0
2, 65889, Note_on_c, 0, 69, 0
2, 65889, Note_on_c, 0, 57, 0
2, 65889, Note_on_c, 0, 76, 0
2, 65889, Note_on_c, 0, 84, 0
2, 65889, Note_on_c, 0, 72, 0
2, 65893, Control_c, 0, 64, 0
2, 65894, Note_on_c, 0, 77, 0
2, 65898, Note_on_c, 0, 41, 76
2, 65900, Note_on_c, 0, 89, 102
2, 65900, Note_on_c, 0, 81, 96
2, 65902, Note_on_c, 0, 60, 0
2, 65904, Note_on_c, 0, 77, 99
2, 65955, Control_c, 0, 64, 127
2, 65975, Note_on_c, 0, 48, 67
2, 66043, Note_on_c, 0, 53, 77
2, 66116, Note_on_c, 0, 88, 100
2, 66121, Note_on_c, 0, 79, 96
2, 66124, Note_on_c, 0, 76, 89
2, 66136, Note_on_c, 0, 57, 84
2, 66236, Note_on_c, 0, 65, 84
2, 66304, Note_on_c, 0, 60, 85
2, 66324, Note_on_c, 0, 57, 0
2, 66324, Note_on_c, 0, 77, 0
2, 66328, Note_on_c, 0, 86, 96
2, 66333, Note_on_c, 0, 77, 85
2, 66334, Note_on_c, 0, 57, 85
2, 66335, Note_on_c, 0, 74, 92
2, 66489, Note_on_c, 0, 88, 0
2, 66490, Note_on_c, 0, 74, 0
2, 66490, Note_on_c, 0, 81, 0
2, 66490, Note_on_c, 0, 89, 0
2, 66490, Note_on_c, 0, 79, 0
2, 66490, Note_on_c, 0, 86, 0
2, 66490, Note_on_c, 0, 53, 0
2, 66490, Note_on_c, 0, 65, 0
2, 66491, Control_c, 0, 64, 0
2, 66493, Note_on_c, 0, 41, 0
2, 66497, Note_on_c, 0, 43, 73
2, 66501, Note_on_c, 0, 48, 0
2, 66501, Note_on_c, 0, 76, 0
2, 66503, Note_on_c, 0, 84, 100
2, 66505, Note_on_c, 0, 76, 97
2, 66507, Note_on_c, 0, 72, 97
2, 66508, Note_on_c, 0, 57, 0
2, 66508, Note_on_c, 0, 60, 0
2, 66508, Note_on_c, 0, 77, 0
2, 66562, Control_c, 0, 64, 127
2, 66583, Note_on_c, 0, 50, 67
2, 66647, Note_on_c, 0, 55, 80
2, 66755, Note_on_c, 0, 59, 82
2, 66812, Note_on_c, 0, 71, 94
2, 66813, Note_on_c, 0, 83, 100
2, 66813, Note_on_c, 0, 74, 98
2, 66815, Note_on_c, 0, 86, 94
2, 66853, Note_on_c, 0, 67, 74
2, 66888, Note_on_c, 0, 62, 55
2, 66938, Note_on_c, 0, 59, 0
2, 66950, Note_on_c, 0, 59, 91
2, 67090, Note_on_c, 0, 74, 0
2, 67090, Note_on_c, 0, 71, 0
2, 67090, Note_on_c, 0, 72, 0
2, 67090, Note_on_c, 0, 50, 0
2, 67091, Note_on_c, 0, 76, 0
2, 67091, Note_on_c, 0, 84, 0
2, 67091, Note_on_c, 0, 67, 0
2, 67091, Note_on_c, 0, 83, 0
2, 67091, Control_c, 0, 64, 0
2, 67100, Note_on_c, 0, 43, 0
2, 67100, Note_on_c, 0, 86, 0
2, 67107, Note_on_c, 0, 55, 0
2, 67107, Note_on_c, 0, 59, 0
2, 67107, Note_on_c, 0, 62, 0
2, 67126, Note_on_c, 0, 75, 103
2, 67126, Note_on_c, 0, 44, 107
2, 67127, Note_on_c, 0, 84, 105
2, 67127, Note_on_c, 0, 72, 105
2, 67128, Note_on_c, 0, 32, 99
2, 67129, Note_on_c, 0, 80, 103
2, 67158, Note_on_c, 0, 44, 0
2, 67160, Note_on_c, 0, 32, 0
2, 67169, Control_c, 0, 64, 127
2, 67297, Note_on_c, 0, 44, 75
2, 67301, Note_on_c, 0, 60, 84
2, 67345, Note_on_c, 0, 51, 56
2, 67355, Note_on_c, 0, 63, 79
2, 67410, Note_on_c, 0, 68, 94
2, 67453, Note_on_c, 0, 51, 0
2, 67464, Note_on_c, 0, 51, 64
2, 67465, Note_on_c, 0, 56, 80
2, 67468, Note_on_c, 0, 72, 0
2, 67474, Note_on_c, 0, 72, 82
2, 67507, Note_on_c, 0, 75, 0
2, 67512, Note_on_c, 0, 75, 93
2, 67537, Note_on_c, 0, 80, 0
2, 67544, Note_on_c, 0, 80, 86
2, 67614, Note_on_c, 0, 56, 0
2, 67614, Note_on_c, 0, 84, 0
2, 67619, Note_on_c, 0, 84, 79
2, 67623, Note_on_c, 0, 56, 80
2, 67667, Note_on_c, 0, 87, 94
2, 67705, Note_on_c, 0, 92, 85
2, 67756, Note_on_c, 0, 96, 105
2, 67768, Note_on_c, 0, 68, 0
2, 67776, Note_on_c, 0, 63, 0
2, 67778, Note_on_c, 0, 68, 99
2, 67783, Note_on_c, 0, 63, 61
2, 67791, Note_on_c, 0, 60, 0
2, 67795, Note_on_c, 0, 60, 78
2, 67822, Note_on_c, 0, 92, 0
2, 67826, Note_on_c, 0, 92, 92
2, 67875, Note_on_c, 0, 87, 0
2, 67886, Note_on_c, 0, 87, 97
2, 67921, Note_on_c, 0, 56, 0
2, 67921, Note_on_c, 0, 84, 0
2, 67929, Note_on_c, 0, 56, 73
2, 67932, Note_on_c, 0, 84, 73
2, 67991, Note_on_c, 0, 80, 0
2, 67997, Note_on_c, 0, 80, 92
2, 68044, Note_on_c, 0, 75, 0
2, 68050, Note_on_c, 0, 75, 90
2, 68052, Note_on_c, 0, 60, 0
2, 68060, Note_on_c, 0, 56, 0
2, 68062, Note_on_c, 0, 60, 68
2, 68065, Note_on_c, 0, 56, 83
2, 68098, Note_on_c, 0, 72, 0
2, 68103, Note_on_c, 0, 72, 81
2, 68183, Note_on_c, 0, 68, 0
2, 68193, Note_on_c, 0, 68, 91
2, 68213, Note_on_c, 0, 44, 0
2, 68213, Note_on_c, 0, 63, 0
2, 68217, Note_on_c, 0, 63, 79
2, 68218, Note_on_c, 0, 60, 0
2, 68219, Note_on_c, 0, 44, 87
2, 68346, Note_on_c, 0, 51, 0
2, 68346, Note_on_c, 0, 80, 0
2, 68346, Note_on_c, 0, 92, 0
2, 68346, Note_on_c, 0, 96, 0
2, 68346, Note_on_c, 0, 56, 0
2, 68346, Note_on_c, 0, 87, 0
2, 68347, Note_on_c, 0, 84, 0
2, 68347, Note_on_c, 0, 72, 0
2, 68347, Note_on_c, 0, 75, 0
2, 68347, Note_on_c, 0, 63, 0
2, 68347, Note_on_c, 0, 44, 0
2, 68348, Control_c, 0, 64, 0
2, 68359, Note_on_c, 0, 68, 0
2, 68372, Note_on_c, 0, 74, 109
2, 68373, Note_on_c, 0, 86, 108
2, 68378, Note_on_c, 0, 77, 102
2, 68381, Note_on_c, 0, 32, 90
2, 68383, Note_on_c, 0, 46, 93
2, 68387, Note_on_c, 0, 34, 82
2, 68390, Note_on_c, 0, 32, 0
2, 68436, Control_c, 0, 64, 127
2, 68544, Note_on_c, 0, 62, 82
2, 68547, Note_on_c, 0, 58, 69
2, 68547, Note_on_c, 0, 50, 65
2, 68593, Note_on_c, 0, 65, 94
2, 68653, Note_on_c, 0, 70, 91
2, 68712, Note_on_c, 0, 58, 0
2, 68717, Note_on_c, 0, 53, 63
2, 68717, Note_on_c, 0, 58, 84
2, 68720, Note_on_c, 0, 50, 0
2, 68720, Note_on_c, 0, 74, 0
2, 68725, Note_on_c, 0, 50, 63
2, 68726, Note_on_c, 0, 74, 86
2, 68728, Note_on_c, 0, 56, 69
2, 68759, Note_on_c, 0, 77, 0
2, 68763, Note_on_c, 0, 77, 100
2, 68816, Note_on_c, 0, 82, 85
2, 68866, Note_on_c, 0, 58, 0
2, 68872, Note_on_c, 0, 58, 78
2, 68874, Note_on_c, 0, 86, 0
2, 68878, Note_on_c, 0, 86, 88
2, 68923, Note_on_c, 0, 89, 95
2, 68974, Note_on_c, 0, 34, 0
2, 68981, Note_on_c, 0, 95, 84
2, 69016, Note_on_c, 0, 98, 105
2, 69020, Note_on_c, 0, 62, 0
2, 69020, Note_on_c, 0, 70, 0
2, 69024, Note_on_c, 0, 70, 104
2, 69027, Note_on_c, 0, 58, 0
2, 69027, Note_on_c, 0, 65, 0
2, 69030, Note_on_c, 0, 96, 80
2, 69031, Note_on_c, 0, 62, 83
2, 69031, Note_on_c, 0, 65, 89
2, 69039, Note_on_c, 0, 58, 81
2, 69100, Note_on_c, 0, 94, 77
2, 69127, Note_on_c, 0, 89, 0
2, 69132, Note_on_c, 0, 89, 86
2, 69135, Note_on_c, 0, 58, 0
2, 69145, Note_on_c, 0, 58, 78
2, 69158, Note_on_c, 0, 86, 0
2, 69163, Note_on_c, 0, 86, 84
2, 69235, Note_on_c, 0, 82, 0
2, 69246, Note_on_c, 0, 82, 79
2, 69281, Note_on_c, 0, 77, 0
2, 69290, Note_on_c, 0, 77, 92
2, 69335, Note_on_c, 0, 58, 0
2, 69342, Note_on_c, 0, 58, 75
2, 69342, Note_on_c, 0, 50, 0
2, 69342, Note_on_c, 0, 70, 0
2, 69342, Note_on_c, 0, 74, 0
2, 69346, Note_on_c, 0, 74, 85
2, 69350, Note_on_c, 0, 53, 0
2, 69353, Note_on_c, 0, 70, 77
2, 69353, Note_on_c, 0, 50, 60
2, 69355, Note_on_c, 0, 53, 61
2, 69450, Note_on_c, 0, 46, 0
2, 69450, Note_on_c, 0, 50, 0
2, 69454, Note_on_c, 0, 50, 64
2, 69454, Note_on_c, 0, 46, 72
2, 69461, Note_on_c, 0, 64, 73
2, 69511, Note_on_c, 0, 62, 0
2, 69518, Note_on_c, 0, 62, 58
2, 69652, Note_on_c, 0, 88, 106
2, 69655, Note_on_c, 0, 84, 91
2, 69656, Note_on_c, 0, 57, 92
2, 69656, Note_on_c, 0, 76, 105
2, 69657, Note_on_c, 0, 48, 81
2, 69658, Note_on_c, 0, 81, 95
2, 69661, Note_on_c, 0, 50, 0
2, 69661, Note_on_c, 0, 94, 0
2, 69661, Control_c, 0, 64, 0
2, 69661, Note_on_c, 0, 89, 0
2, 69661, Note_on_c, 0, 65, 0
2, 69661, Note_on_c, 0, 62, 0
2, 69662, Note_on_c, 0, 70, 0
2, 69662, Note_on_c, 0, 46, 0
2, 69662, Note_on_c, 0, 86, 0
2, 69663, Note_on_c, 0, 74, 0
2, 69663, Note_on_c, 0, 56, 0
2, 69664, Note_on_c, 0, 53, 0
2, 69664, Note_on_c, 0, 98, 0
2, 69672, Note_on_c, 0, 95, 0
2, 69680, Note_on_c, 0, 58, 0
2, 69680, Note_on_c, 0, 64, 0
2, 69680, Note_on_c, 0, 96, 0
2, 69688, Note_on_c, 0, 77, 0
2, 69696, Note_on_c, 0, 82, 0
2, 69834, Control_c, 0, 64, 127
2, 69888, Note_on_c, 0, 76, 0
2, 69893, Note_on_c, 0, 76, 79
2, 69941, Note_on_c, 0, 81, 0
2, 69952, Note_on_c, 0, 81, 78
2, 69995, Note_on_c, 0, 84, 0
2, 70000, Note_on_c, 0, 84, 84
2, 70080, Note_on_c, 0, 88, 0
2, 70087, Note_on_c, 0, 88, 79
2, 70141, Note_on_c, 0, 93, 83
2, 70212, Note_on_c, 0, 96, 87
2, 70283, Note_on_c, 0, 100, 93
2, 70287, Note_on_c, 0, 76, 0
2, 70291, Note_on_c, 0, 76, 90
2, 70296, Note_on_c, 0, 72, 92
2, 70300, Note_on_c, 0, 69, 69
2, 70364, Note_on_c, 0, 96, 0
2, 70372, Note_on_c, 0, 96, 90
2, 70440, Note_on_c, 0, 93, 0
2, 70447, Note_on_c, 0, 93, 85
2, 70510, Note_on_c, 0, 88, 0
2, 70515, Note_on_c, 0, 88, 84
2, 70594, Note_on_c, 0, 84, 0
2, 70602, Note_on_c, 0, 84, 71
2, 70663, Note_on_c, 0, 81, 0
2, 70669, Note_on_c, 0, 81, 85
2, 70740, Note_on_c, 0, 76, 0
2, 70747, Note_on_c, 0, 76, 70
2, 70801, Note_on_c, 0, 72, 0
2, 70811, Note_on_c, 0, 72, 86
2, 70927, Note_on_c, 0, 74, 103
2, 70928, Note_on_c, 0, 59, 91
2, 70929, Note_on_c, 0, 43, 77
2, 70929, Note_on_c, 0, 50, 76
2, 70931, Note_on_c, 0, 71, 90
2, 70935, Control_c, 0, 64, 0
2, 70935, Note_on_c, 0, 67, 91
2, 70936, Note_on_c, 0, 48, 0
2, 70937, Note_on_c, 0, 81, 0
2, 70937, Note_on_c, 0, 84, 0
2, 70937, Note_on_c, 0, 93, 0
2, 70938, Note_on_c, 0, 96, 0
2, 70938, Note_on_c, 0, 76, 0
2, 70939, Note_on_c, 0, 88, 0
2, 70941, Note_on_c, 0, 72, 0
2, 70941, Note_on_c, 0, 69, 0
2, 70942, Note_on_c, 0, 57, 0
2, 70943, Note_on_c, 0, 100, 0
2, 71009, Control_c, 0, 64, 127
2, 71116, Note_on_c, 0, 74, 0
2, 71124, Note_on_c, 0, 74, 78
2, 71193, Note_on_c, 0, 79, 81
2, 71266, Note_on_c, 0, 83, 84
2, 71355, Note_on_c, 0, 86, 79
2, 71421, Note_on_c, 0, 91, 90
2, 71493, Note_on_c, 0, 95, 84
2, 71554, Note_on_c, 0, 79, 0
2, 71562, Note_on_c, 0, 74, 0
2, 71564, Note_on_c, 0, 79, 101
2, 71566, Note_on_c, 0, 98, 103
2, 71569, Note_on_c, 0, 71, 0
2, 71573, Note_on_c, 0, 74, 89
2, 71577, Note_on_c, 0, 71, 84
2, 71646, Note_on_c, 0, 95, 0
2, 71656, Note_on_c, 0, 95, 96
2, 71723, Note_on_c, 0, 91, 0
2, 71732, Note_on_c, 0, 91, 86
2, 71800, Note_on_c, 0, 86, 0
2, 71805, Note_on_c, 0, 86, 74
2, 71882, Note_on_c, 0, 84, 59
2, 71900, Note_on_c, 0, 83, 0
2, 71904, Note_on_c, 0, 83, 56
2, 71946, Note_on_c, 0, 79, 0
2, 71954, Note_on_c, 0, 79, 92
2, 72092, Note_on_c, 0, 71, 0
2, 72096, Note_on_c, 0, 71, 82
2, 72199, Note_on_c, 0, 71, 0
2, 72206, Note_on_c, 0, 71, 93
2, 72207, Note_on_c, 0, 67, 0
2, 72209, Note_on_c, 0, 40, 71
2, 72210, Note_on_c, 0, 47, 77
2, 72210, Note_on_c, 0, 91, 0
2, 72211, Note_on_c, 0, 86, 0
2, 72211, Note_on_c, 0, 98, 0
2, 72212, Note_on_c, 0, 74, 0
2, 72212, Note_on_c, 0, 55, 79
2, 72213, Note_on_c, 0, 83, 0
2, 72213, Note_on_c, 0, 79, 0
2, 72214, Note_on_c, 0, 50, 0
2, 72215, Note_on_c, 0, 84, 0
2, 72216, Control_c, 0, 64, 0
2, 72218, Note_on_c, 0, 43, 0
2, 72218, Note_on_c, 0, 67, 91
2, 72218, Note_on_c, 0, 59, 0
2, 72219, Note_on_c, 0, 64, 81
2, 72230, Note_on_c, 0, 95, 0
2, 72299, Control_c, 0, 64, 127
2, 72399, Note_on_c, 0, 64, 0
2, 72425, Note_on_c, 0, 74, 68
2, 72484, Note_on_c, 0, 79, 82
2, 72555, Note_on_c, 0, 83, 79
2, 72642, Note_on_c, 0, 86, 81
2, 72699, Note_on_c, 0, 91, 86
2, 72761, Note_on_c, 0, 95, 82
2, 72829, Note_on_c, 0, 98, 101
2, 72906, Note_on_c, 0, 95, 0
2, 72912, Note_on_c, 0, 95, 82
2, 72960, Note_on_c, 0, 91, 0
2, 72970, Note_on_c, 0, 91, 87
2, 72986, Note_on_c, 0, 72, 91
2, 72994, Note_on_c, 0, 60, 89
2, 73044, Note_on_c, 0, 86, 0
2, 73051, Note_on_c, 0, 86, 87
2, 73136, Note_on_c, 0, 74, 0
2, 73147, Note_on_c, 0, 74, 90
2, 73152, Note_on_c, 0, 62, 92
2, 73297, Note_on_c, 0, 72, 0
2, 73305, Note_on_c, 0, 60, 0
2, 73308, Note_on_c, 0, 72, 102
2, 73310, Note_on_c, 0, 60, 96
2, 73314, Note_on_c, 0, 64, 80
2, 73316, Note_on_c, 0, 69, 79
2, 73413, Note_on_c, 0, 40, 0
2, 73413, Note_on_c, 0, 79, 0
2, 73413, Note_on_c, 0, 67, 0
2, 73414, Note_on_c, 0, 98, 0
2, 73414, Note_on_c, 0, 55, 0
2, 73414, Note_on_c, 0, 95, 0
2, 73414, Note_on_c, 0, 91, 0
2, 73415, Note_on_c, 0, 83, 0
2, 73415, Note_on_c, 0, 62, 0
2, 73416, Note_on_c, 0, 74, 0
2, 73418, Control_c, 0, 64, 0
2, 73428, Note_on_c, 0, 47, 0
2, 73436, Note_on_c, 0, 71, 0
2, 73436, Note_on_c, 0, 86, 0
2, 73472, Note_on_c, 0, 45, 86
2, 73472, Note_on_c, 0, 57, 86
2, 73512, Control_c, 0, 64, 127
2, 73634, Note_on_c, 0, 76, 73
2, 73708, Note_on_c, 0, 81, 82
2, 73787, Note_on_c, 0, 84, 75
2, 73879, Note_on_c, 0, 88, 89
2, 73945, Note_on_c, 0, 93, 83
2, 74020, Note_on_c, 0, 96, 85
2, 74099, Note_on_c, 0, 100, 93
2, 74173, Note_on_c, 0, 96, 0
2, 74180, Note_on_c, 0, 96, 89
2, 74250, Note_on_c, 0, 93, 0
2, 74254, Note_on_c, 0, 93, 84
2, 74311, Note_on_c, 0, 88, 0
2, 74316, Note_on_c, 0, 88, 80
2, 74396, Note_on_c, 0, 84, 0
2, 74404, Note_on_c, 0, 84, 63
2, 74442, Note_on_c, 0, 81, 0
2, 74451, Note_on_c, 0, 81, 83
2, 74511, Note_on_c, 0, 76, 0
2, 74517, Note_on_c, 0, 76, 67
2, 74588, Note_on_c, 0, 72, 0
2, 74595, Note_on_c, 0, 72, 91
2, 74684, Note_on_c, 0, 96, 0
2, 74684, Note_on_c, 0, 45, 0
2, 74684, Control_c, 0, 64, 0
2, 74685, Note_on_c, 0, 93, 0
2, 74685, Note_on_c, 0, 84, 0
2, 74685, Note_on_c, 0, 76, 0
2, 74685, Note_on_c, 0, 100, 0
2, 74685, Note_on_c, 0, 81, 0
2, 74685, Note_on_c, 0, 88, 0
2, 74686, Note_on_c, 0, 72, 0
2, 74688, Note_on_c, 0, 57, 0
2, 74695, Note_on_c, 0, 64, 0
2, 74695, Note_on_c, 0, 69, 0
2, 74703, Note_on_c, 0, 60, 0
2, 74706, Note_on_c, 0, 69, 99
2, 74707, Note_on_c, 0, 41, 88
2, 74707, Note_on_c, 0, 53, 83
2, 74708, Note_on_c, 0, 60, 94
2, 74742, Note_on_c, 0, 60, 0
2, 74764, Control_c, 0, 64, 127
2, 74903, Note_on_c, 0, 76, 70
2, 74937, Note_on_c, 0, 59, 80
2, 74977, Note_on_c, 0, 81, 82
2, 75064, Note_on_c, 0, 84, 77
2, 75174, Note_on_c, 0, 55, 68
2, 75176, Note_on_c, 0, 88, 78
2, 75235, Note_on_c, 0, 93, 89
2, 75313, Note_on_c, 0, 96, 77
2, 75348, Note_on_c, 0, 76, 0
2, 75356, Note_on_c, 0, 69, 0
2, 75358, Note_on_c, 0, 76, 93
2, 75361, Note_on_c, 0, 72, 81
2, 75361, Note_on_c, 0, 69, 82
2, 75362, Note_on_c, 0, 100, 94
2, 75440, Note_on_c, 0, 96, 0
2, 75448, Note_on_c, 0, 96, 94
2, 75509, Note_on_c, 0, 93, 0
2, 75515, Note_on_c, 0, 93, 87
2, 75563, Note_on_c, 0, 88, 0
2, 75573, Note_on_c, 0, 88, 84
2, 75597, Note_on_c, 0, 71, 84
2, 75671, Note_on_c, 0, 84, 0
2, 75679, Note_on_c, 0, 84, 50
2, 75685, Note_on_c, 0, 86, 46
2, 75717, Note_on_c, 0, 81, 0
2, 75722, Note_on_c, 0, 81, 78
2, 75801, Note_on_c, 0, 76, 0
2, 75803, Note_on_c, 0, 67, 80
2, 75806, Note_on_c, 0, 76, 69
2, 75878, Note_on_c, 0, 72, 0
2, 75887, Note_on_c, 0, 72, 85
2, 75999, Note_on_c, 0, 59, 0
2, 75999, Note_on_c, 0, 93, 0
2, 75999, Note_on_c, 0, 81, 0
2, 75999, Note_on_c, 0, 84, 0
2, 75999, Note_on_c, 0, 88, 0
2, 75999, Note_on_c, 0, 96, 0
2, 76000, Note_on_c, 0, 69, 0
2, 76000, Note_on_c, 0, 100, 0
2, 76000, Note_on_c, 0, 76, 0
2, 76001, Note_on_c, 0, 41, 0
2, 76001, Control_c, 0, 64, 0
2, 76002, Note_on_c, 0, 53, 0
2, 76002, Note_on_c, 0, 55, 0
2, 76003, Note_on_c, 0, 72, 0
2, 76008, Note_on_c, 0, 67, 0
2, 76008, Note_on_c, 0, 71, 0
2, 76013, Note_on_c, 0, 74, 101
2, 76016, Note_on_c, 0, 86, 0
2, 76018, Note_on_c, 0, 43, 86
2, 76020, Note_on_c, 0, 67, 92
2, 76020, Note_on_c, 0, 71, 89
2, 76093, Control_c, 0, 64, 127
2, 76183, Note_on_c, 0, 86, 75
2, 76187, Note_on_c, 0, 83, 60
2, 76193, Note_on_c, 0, 83, 0
2, 76255, Note_on_c, 0, 59, 78
2, 76258, Note_on_c, 0, 79, 78
2, 76312, Note_on_c, 0, 83, 80
2, 76392, Note_on_c, 0, 86, 0
2, 76401, Note_on_c, 0, 86, 74
2, 76469, Note_on_c, 0, 67, 0
2, 76474, Note_on_c, 0, 67, 64
2, 76474, Note_on_c, 0, 91, 83
2, 76474, Note_on_c, 0, 55, 65
2, 76535, Note_on_c, 0, 95, 84
2, 76646, Note_on_c, 0, 71, 0
2, 76646, Note_on_c, 0, 74, 0
2, 76647, Note_on_c, 0, 98, 105
2, 76652, Note_on_c, 0, 74, 96
2, 76654, Note_on_c, 0, 81, 95
2, 76656, Note_on_c, 0, 71, 91
2, 76738, Note_on_c, 0, 95, 0
2, 76742, Note_on_c, 0, 95, 82
2, 76800, Note_on_c, 0, 91, 0
2, 76806, Note_on_c, 0, 91, 74
2, 76876, Note_on_c, 0, 71, 0
2, 76884, Note_on_c, 0, 71, 66
2, 76915, Note_on_c, 0, 83, 0
2, 76925, Note_on_c, 0, 83, 77
2, 76984, Note_on_c, 0, 79, 0
2, 76992, Note_on_c, 0, 79, 83
2, 77068, Note_on_c, 0, 74, 0
2, 77076, Note_on_c, 0, 67, 0
2, 77079, Note_on_c, 0, 74, 71
2, 77086, Note_on_c, 0, 67, 70
2, 77160, Note_on_c, 0, 71, 0
2, 77166, Note_on_c, 0, 71, 81
2, 77272, Control_c, 0, 64, 0
2, 77276, Note_on_c, 0, 74, 0
2, 77276, Note_on_c, 0, 79, 0
2, 77279, Note_on_c, 0, 91, 0
2, 77279, Note_on_c, 0, 67, 0
2, 77280, Note_on_c, 0, 59, 0
2, 77280, Note_on_c, 0, 83, 0
2, 77280, Note_on_c, 0, 86, 0
2, 77280, Note_on_c, 0, 55, 0
2, 77280, Note_on_c, 0, 95, 0
2, 77283, Note_on_c, 0, 81, 0
2, 77283, Note_on_c, 0, 71, 0
2, 77284, Note_on_c, 0, 98, 0
2, 77285, Note_on_c, 0, 79, 106
2, 77287, Note_on_c, 0, 74, 92
2, 77288, Note_on_c, 0, 71, 93
2, 77289, Note_on_c, 0, 40, 82
2, 77291, Note_on_c, 0, 43, 0
2, 77360, Control_c, 0, 64, 127
2, 77483, Note_on_c, 0, 74, 0
2, 77488, Note_on_c, 0, 74, 67
2, 77543, Note_on_c, 0, 59, 73
2, 77544, Note_on_c, 0, 79, 0
2, 77552, Note_on_c, 0, 79, 80
2, 77639, Note_on_c, 0, 83, 80
2, 77732, Note_on_c, 0, 86, 77
2, 77754, Note_on_c, 0, 55, 59
2, 77799, Note_on_c, 0, 91, 81
2, 77862, Note_on_c, 0, 95, 79
2, 77925, Note_on_c, 0, 98, 99
2, 78005, Note_on_c, 0, 95, 0
2, 78010, Note_on_c, 0, 95, 83
2, 78051, Note_on_c, 0, 91, 0
2, 78060, Note_on_c, 0, 91, 87
2, 78068, Note_on_c, 0, 76, 85
2, 78071, Note_on_c, 0, 64, 75
2, 78128, Note_on_c, 0, 86, 0
2, 78138, Note_on_c, 0, 86, 88
2, 78220, Note_on_c, 0, 59, 0
2, 78220, Note_on_c, 0, 71, 0
2, 78230, Note_on_c, 0, 59, 98
2, 78232, Note_on_c, 0, 71, 92
2, 78312, Note_on_c, 0, 71, 0
2, 78321, Note_on_c, 0, 71, 71
2, 78387, Note_on_c, 0, 72, 97
2, 78389, Note_on_c, 0, 64, 0
2, 78393, Note_on_c, 0, 64, 81
2, 78393, Note_on_c, 0, 60, 100
2, 78399, Note_on_c, 0, 69, 83
2, 78471, Control_c, 0, 64, 0
2, 78472, Note_on_c, 0, 55, 0
2, 78473, Note_on_c, 0, 76, 0
2, 78473, Note_on_c, 0, 74, 0
2, 78473, Note_on_c, 0, 40, 0
2, 78473, Note_on_c, 0, 71, 0
2, 78473, Note_on_c, 0, 95, 0
2, 78474, Note_on_c, 0, 91, 0
2, 78474, Note_on_c, 0, 83, 0
2, 78475, Note_on_c, 0, 79, 0
2, 78475, Note_on_c, 0, 98, 0
2, 78489, Note_on_c, 0, 59, 0
2, 78489, Note_on_c, 0, 86, 0
2, 78543, Note_on_c, 0, 72, 0
2, 78552, Note_on_c, 0, 72, 76
2, 78554, Note_on_c, 0, 45, 80
2, 78555, Note_on_c, 0, 57, 79
2, 78574, Control_c, 0, 64, 127
2, 78620, Note_on_c, 0, 60, 0
2, 78687, Note_on_c, 0, 76, 60
2, 78752, Note_on_c, 0, 81, 81
2, 78809, Note_on_c, 0, 71, 78
2, 78832, Note_on_c, 0, 84, 76
2, 78930, Note_on_c, 0, 88, 82
2, 79001, Note_on_c, 0, 67, 74
2, 79001, Note_on_c, 0, 93, 89
2, 79080, Note_on_c, 0, 96, 90
2, 79153, Note_on_c, 0, 100, 97
2, 79234, Note_on_c, 0, 96, 0
2, 79240, Note_on_c, 0, 96, 88
2, 79303, Note_on_c, 0, 93, 0
2, 79307, Note_on_c, 0, 93, 89
2, 79365, Note_on_c, 0, 88, 0
2, 79369, Note_on_c, 0, 88, 91
2, 79472, Note_on_c, 0, 72, 0
2, 79472, Note_on_c, 0, 84, 0
2, 79481, Note_on_c, 0, 84, 93
2, 79482, Note_on_c, 0, 72, 98
2, 79503, Note_on_c, 0, 69, 0
2, 79509, Note_on_c, 0, 69, 46
2, 79622, Note_on_c, 0, 86, 101
2, 79624, Note_on_c, 0, 74, 94
2, 79778, Note_on_c, 0, 46, 86
2, 79779, Note_on_c, 0, 71, 0
2, 79779, Note_on_c, 0, 76, 0
2, 79779, Note_on_c, 0, 88, 0
2, 79779, Note_on_c, 0, 81, 0
2, 79781, Note_on_c, 0, 86, 0
2, 79781, Note_on_c, 0, 74, 0
2, 79781, Note_on_c, 0, 72, 0
2, 79781, Note_on_c, 0, 84, 0
2, 79781, Note_on_c, 0, 93, 0
2, 79781, Note_on_c, 0, 69, 0
2, 79781, Note_on_c, 0, 57, 0
2, 79782, Control_c, 0, 64, 0
2, 79782, Note_on_c, 0, 67, 0
2, 79782, Note_on_c, 0, 45, 0
2, 79782, Note_on_c, 0, 96, 0
2, 79783, Note_on_c, 0, 100, 0
2, 79787, Note_on_c, 0, 88, 101
2, 79790, Note_on_c, 0, 76, 100
2, 79795, Note_on_c, 0, 64, 0
2, 79835, Note_on_c, 0, 53, 67
2, 79844, Note_on_c, 0, 46, 0
2, 79848, Control_c, 0, 64, 127
2, 79943, Note_on_c, 0, 58, 79
2, 79996, Note_on_c, 0, 60, 83
2, 80087, Note_on_c, 0, 53, 0
2, 80091, Note_on_c, 0, 53, 61
2, 80110, Note_on_c, 0, 76, 0
2, 80110, Note_on_c, 0, 88, 0
2, 80115, Note_on_c, 0, 88, 96
2, 80121, Note_on_c, 0, 76, 91
2, 80148, Note_on_c, 0, 58, 0
2, 80152, Note_on_c, 0, 58, 64
2, 80232, Note_on_c, 0, 60, 0
2, 80241, Note_on_c, 0, 60, 74
2, 80268, Note_on_c, 0, 86, 98
2, 80273, Note_on_c, 0, 74, 92
2, 80308, Note_on_c, 0, 62, 67
2, 80378, Note_on_c, 0, 58, 0
2, 80385, Note_on_c, 0, 58, 79
2, 80463, Note_on_c, 0, 62, 0
2, 80467, Note_on_c, 0, 62, 72
2, 80575, Note_on_c, 0, 64, 71
2, 80575, Note_on_c, 0, 82, 81
2, 80629, Note_on_c, 0, 65, 73
2, 80701, Note_on_c, 0, 62, 0
2, 80708, Note_on_c, 0, 62, 83
2, 80793, Note_on_c, 0, 65, 0
2, 80799, Note_on_c, 0, 65, 61
2, 80862, Note_on_c, 0, 82, 0
2, 80869, Note_on_c, 0, 70, 85
2, 80869, Note_on_c, 0, 82, 80
2, 80928, Note_on_c, 0, 72, 78
2, 81000, Note_on_c, 0, 65, 0
2, 81007, Note_on_c, 0, 65, 88
2, 81018, Note_on_c, 0, 84, 94
2, 81044, Control_c, 0, 64, 0
2, 81052, Note_on_c, 0, 86, 0
2, 81052, Note_on_c, 0, 74, 0
2, 81053, Note_on_c, 0, 60, 0
2, 81053, Note_on_c, 0, 64, 0
2, 81053, Note_on_c, 0, 72, 0
2, 81053, Note_on_c, 0, 88, 0
2, 81053, Note_on_c, 0, 53, 0
2, 81054, Note_on_c, 0, 62, 0
2, 81077, Note_on_c, 0, 76, 0
2, 81093, Control_c, 0, 64, 127
2, 81100, Note_on_c, 0, 70, 0
2, 81105, Note_on_c, 0, 70, 76
2, 81194, Note_on_c, 0, 72, 80
2, 81245, Note_on_c, 0, 74, 76
2, 81323, Note_on_c, 0, 65, 0
2, 81323, Note_on_c, 0, 70, 0
2, 81323, Note_on_c, 0, 84, 0
2, 81333, Note_on_c, 0, 65, 58
2, 81334, Note_on_c, 0, 84, 86
2, 81334, Note_on_c, 0, 70, 85
2, 81408, Note_on_c, 0, 72, 0
2, 81417, Note_on_c, 0, 72, 83
2, 81477, Note_on_c, 0, 74, 0
2, 81477, Note_on_c, 0, 82, 0
2, 81487, Note_on_c, 0, 82, 76
2, 81488, Note_on_c, 0, 74, 79
2, 81563, Note_on_c, 0, 76, 75
2, 81641, Note_on_c, 0, 77, 90
2, 81722, Note_on_c, 0, 74, 0
2, 81731, Note_on_c, 0, 74, 82
2, 81761, Note_on_c, 0, 70, 0
2, 81765, Note_on_c, 0, 70, 79
2, 81792, Note_on_c, 0, 77, 0
2, 81801, Note_on_c, 0, 77, 94
2, 81822, Note_on_c, 0, 65, 0
2, 81833, Note_on_c, 0, 65, 79
2, 81926, Note_on_c, 0, 64, 80
2, 81953, Note_on_c, 0, 82, 0
2, 81963, Note_on_c, 0, 82, 98
2, 81989, Note_on_c, 0, 62, 66
2, 82014, Note_on_c, 0, 58, 0
2, 82025, Note_on_c, 0, 58, 81
2, 82104, Note_on_c, 0, 53, 87
2, 82117, Note_on_c, 0, 89, 101
2, 82240, Note_on_c, 0, 46, 93
2, 82240, Control_c, 0, 64, 0
2, 82242, Note_on_c, 0, 74, 0
2, 82242, Note_on_c, 0, 84, 0
2, 82242, Note_on_c, 0, 82, 0
2, 82242, Note_on_c, 0, 62, 0
2, 82243, Note_on_c, 0, 70, 0
2, 82246, Note_on_c, 0, 89, 0
2, 82247, Note_on_c, 0, 53, 0
2, 82252, Note_on_c, 0, 64, 0
2, 82252, Note_on_c, 0, 72, 0
2, 82252, Note_on_c, 0, 76, 0
2, 82252, Note_on_c, 0, 77, 0
2, 82257, Note_on_c, 0, 88, 105
2, 82260, Note_on_c, 0, 58, 0
2, 82260, Note_on_c, 0, 65, 0
2, 82262, Note_on_c, 0, 76, 105
2, 82309, Note_on_c, 0, 46, 0
2, 82314, Control_c, 0, 64, 127
2, 82333, Note_on_c, 0, 53, 74
2, 82401, Note_on_c, 0, 58, 79
2, 82460, Note_on_c, 0, 60, 83
2, 82552, Note_on_c, 0, 53, 0
2, 82560, Note_on_c, 0, 88, 0
2, 82563, Note_on_c, 0, 53, 69
2, 82567, Note_on_c, 0, 76, 0
2, 82570, Note_on_c, 0, 88, 101
2, 82576, Note_on_c, 0, 76, 95
2, 82613, Note_on_c, 0, 58, 0
2, 82620, Note_on_c, 0, 58, 73
2, 82698, Note_on_c, 0, 60, 0
2, 82702, Note_on_c, 0, 60, 76
2, 82735, Note_on_c, 0, 86, 102
2, 82738, Note_on_c, 0, 74, 99
2, 82761, Note_on_c, 0, 62, 78
2, 82851, Note_on_c, 0, 58, 0
2, 82855, Note_on_c, 0, 58, 74
2, 82920, Note_on_c, 0, 62, 0
2, 82925, Note_on_c, 0, 62, 68
2, 83034, Note_on_c, 0, 64, 76
2, 83036, Note_on_c, 0, 82, 93
2, 83039, Note_on_c, 0, 70, 79
2, 83076, Note_on_c, 0, 65, 78
2, 83166, Note_on_c, 0, 62, 0
2, 83170, Note_on_c, 0, 62, 77
2, 83243, Note_on_c, 0, 65, 0
2, 83251, Note_on_c, 0, 65, 78
2, 83335, Note_on_c, 0, 58, 0
2, 83335, Note_on_c, 0, 70, 0
2, 83342, Note_on_c, 0, 70, 82
2, 83343, Note_on_c, 0, 82, 0
2, 83346, Note_on_c, 0, 58, 68
2, 83347, Note_on_c, 0, 82, 86
2, 83351, Note_on_c, 0, 74, 0
2, 83362, Note_on_c, 0, 74, 57
2, 83405, Note_on_c, 0, 72, 74
2, 83473, Note_on_c, 0, 65, 0
2, 83479, Note_on_c, 0, 65, 88
2, 83489, Note_on_c, 0, 58, 0
2, 83493, Note_on_c, 0, 58, 69
2, 83500, Note_on_c, 0, 84, 93
2, 83558, Note_on_c, 0, 70, 0
2, 83562, Note_on_c, 0, 70, 80
2, 83650, Note_on_c, 0, 72, 0
2, 83660, Note_on_c, 0, 72, 73
2, 83688, Note_on_c, 0, 74, 0
2, 83698, Note_on_c, 0, 74, 83
2, 83788, Note_on_c, 0, 70, 0
2, 83796, Note_on_c, 0, 70, 75
2, 83811, Note_on_c, 0, 84, 0
2, 83818, Note_on_c, 0, 84, 88
2, 83857, Note_on_c, 0, 72, 0
2, 83862, Note_on_c, 0, 72, 83
2, 83965, Note_on_c, 0, 82, 0
2, 83969, Note_on_c, 0, 82, 82
2, 84034, Note_on_c, 0, 76, 0
2, 84044, Note_on_c, 0, 76, 77
2, 84116, Note_on_c, 0, 77, 95
2, 84203, Note_on_c, 0, 74, 0
2, 84214, Note_on_c, 0, 74, 80
2, 84257, Note_on_c, 0, 70, 0
2, 84262, Note_on_c, 0, 70, 77
2, 84334, Note_on_c, 0, 65, 0
2, 84344, Note_on_c, 0, 65, 86
2, 84426, Note_on_c, 0, 64, 0
2, 84436, Note_on_c, 0, 64, 86
2, 84533, Note_on_c, 0, 58, 0
2, 84539, Note_on_c, 0, 58, 81
2, 84625, Note_on_c, 0, 53, 0
2, 84631, Note_on_c, 0, 53, 80
2, 84696, Control_c, 0, 64, 0
2, 84698, Note_on_c, 0, 82, 0
2, 84698, Note_on_c, 0, 86, 0
2, 84698, Note_on_c, 0, 62, 0
2, 84698, Note_on_c, 0, 76, 0
2, 84698, Note_on_c, 0, 84, 0
2, 84698, Note_on_c, 0, 60, 0
2, 84698, Note_on_c, 0, 64, 0
2, 84698, Note_on_c, 0, 58, 0
2, 84698, Note_on_c, 0, 53, 0
2, 84698, Note_on_c, 0, 72, 0
2, 84698, Note_on_c, 0, 77, 0
2, 84698, Note_on_c, 0, 70, 0
2, 84710, Note_on_c, 0, 65, 0
2, 84710, Note_on_c, 0, 88, 0
2, 84725, Note_on_c, 0, 74, 0
2, 84730, Note_on_c, 0, 86, 105
2, 84732, Note_on_c, 0, 74, 107
2, 84732, Note_on_c, 0, 81, 97
2, 84735, Note_on_c, 0, 69, 95
2, 84771, Control_c, 0, 64, 127
2, 84775, Note_on_c, 0, 69, 0
2, 84812, Note_on_c, 0, 64, 86
2, 84914, Note_on_c, 0, 57, 80
2, 84981, Note_on_c, 0, 52, 71
2, 85040, Note_on_c, 0, 81, 0
2, 85043, Note_on_c, 0, 88, 104
2, 85043, Note_on_c, 0, 76, 99
2, 85044, Note_on_c, 0, 45, 86
2, 85050, Note_on_c, 0, 81, 84
2, 85194, Note_on_c, 0, 45, 0
2, 85199, Note_on_c, 0, 85, 108
2, 85201, Note_on_c, 0, 45, 78
2, 85201, Note_on_c, 0, 81, 0
2, 85202, Note_on_c, 0, 33, 73
2, 85204, Control_c, 0, 64, 0
2, 85205, Note_on_c, 0, 81, 86
2, 85206, Note_on_c, 0, 73, 101
2, 85228, Note_on_c, 0, 76, 0
2, 85229, Note_on_c, 0, 86, 0
2, 85229, Note_on_c, 0, 52, 0
2, 85229, Note_on_c, 0, 57, 0
2, 85231, Note_on_c, 0, 88, 0
2, 85235, Note_on_c, 0, 74, 0
2, 85248, Note_on_c, 0, 64, 0
2, 85324, Control_c, 0, 64, 127
2, 85509, Note_on_c, 0, 81, 0
2, 85516, Note_on_c, 0, 81, 82
2, 85585, Note_on_c, 0, 81, 0
2, 85592, Note_on_c, 0, 81, 88
2, 85655, Note_on_c, 0, 81, 0
2, 85662, Note_on_c, 0, 81, 96
2, 85824, Note_on_c, 0, 81, 0
2, 85830, Note_on_c, 0, 81, 80
2, 85893, Note_on_c, 0, 81, 0
2, 85897, Note_on_c, 0, 81, 87
2, 85969, Note_on_c, 0, 81, 0
2, 85975, Note_on_c, 0, 81, 66
2, 86146, Note_on_c, 0, 81, 0
2, 86151, Note_on_c, 0, 81, 80
2, 86215, Note_on_c, 0, 81, 0
2, 86223, Note_on_c, 0, 81, 78
2, 86292, Note_on_c, 0, 81, 0
2, 86298, Note_on_c, 0, 81, 89
2, 86461, Note_on_c, 0, 81, 0
2, 86472, Note_on_c, 0, 81, 85
2, 86538, Note_on_c, 0, 81, 0
2, 86542, Note_on_c, 0, 81, 90
2, 86607, Note_on_c, 0, 81, 0
2, 86611, Note_on_c, 0, 81, 90
2, 86784, Note_on_c, 0, 81, 0
2, 86789, Note_on_c, 0, 81, 78
2, 86845, Note_on_c, 0, 81, 0
2, 86852, Note_on_c, 0, 81, 87
2, 86922, Note_on_c, 0, 81, 0
2, 86932, Note_on_c, 0, 81, 93
2, 87098, Note_on_c, 0, 81, 0
2, 87104, Note_on_c, 0, 81, 98
2, 87168, Note_on_c, 0, 81, 0
2, 87173, Note_on_c, 0, 81, 91
2, 87237, Note_on_c, 0, 81, 0
2, 87241, Note_on_c, 0, 81, 82
2, 87406, Note_on_c, 0, 81, 0
2, 87415, Note_on_c, 0, 81, 83
2, 87482, Note_on_c, 0, 81, 0
2, 87493, Note_on_c, 0, 81, 83
2, 87567, Note_on_c, 0, 81, 0
2, 87578, Note_on_c, 0, 81, 84
2, 87728, Note_on_c, 0, 81, 0
2, 87736, Note_on_c, 0, 81, 78
2, 87805, Note_on_c, 0, 81, 0
2, 87812, Note_on_c, 0, 81, 89
2, 87874, Note_on_c, 0, 81, 0
2, 87885, Note_on_c, 0, 81, 97
2, 88051, Note_on_c, 0, 81, 0
2, 88060, Note_on_c, 0, 81, 85
2, 88135, Note_on_c, 0, 81, 0
2, 88140, Note_on_c, 0, 81, 84
2, 88220, Note_on_c, 0, 81, 0
2, 88224, Note_on_c, 0, 81, 55
2, 88389, Note_on_c, 0, 81, 0
2, 88397, Note_on_c, 0, 81, 85
2, 89809, Note_on_c, 0, 33, 0
2, 89809, Note_on_c, 0, 45, 0
2, 89809, Note_on_c, 0, 85, 0
2, 89817, Note_on_c, 0, 73, 0
2, 93004, Note_on_c, 0, 81, 0
2, 93146, Control_c, 0, 64, 0
2, 93147, End_track
0, 0, End_of_file
