0, 0, Header, 1, 2, 384
1, 0, Start_track
1, 0, Tempo, 500000
1, 0, Time_signature, 4, 2, 24, 8
1, 1, End_track
2, 0, Start_track
2, 3130, Note_on_c, 0, 69, 68
2, 3432, Control_c, 0, 64, 127
2, 3593, Note_on_c, 0, 74, 90
2, 3648, Control_c, 0, 64, 0
2, 4024, Note_on_c, 0, 76, 91
2, 4055, Control_c, 0, 64, 127
2, 4358, Note_on_c, 0, 62, 56
2, 4394, Note_on_c, 0, 66, 64
2, 4404, Control_c, 0, 64, 0
2, 4423, Note_on_c, 0, 69, 0
2, 4429, Note_on_c, 0, 69, 66
2, 4439, Control_c, 0, 64, 127
2, 4469, Note_on_c, 0, 74, 0
2, 4480, Note_on_c, 0, 74, 78
2, 4530, Note_on_c, 0, 79, 99
2, 4541, Control_c, 0, 64, 0
2, 4560, Note_on_c, 0, 76, 0
2, 4746, Control_c, 0, 64, 127
2, 5120, Note_on_c, 0, 78, 93
2, 5337, Note_on_c, 0, 78, 0
2, 5348, Note_on_c, 0, 78, 93
2, 6182, Note_on_c, 0, 79, 0
2, 6192, Note_on_c, 0, 79, 94
2, 6193, Note_on_c, 0, 73, 76
2, 6237, Control_c, 0, 64, 0
2, 6246, Note_on_c, 0, 62, 0
2, 6246, Note_on_c, 0, 66, 0
2, 6259, Note_on_c, 0, 74, 0
2, 6274, Note_on_c, 0, 78, 0
2, 6412, Control_c, 0, 64, 127
2, 6806, Note_on_c, 0, 78, 96
2, 6807, Note_on_c, 0, 74, 86
2, 6831, Control_c, 0, 64, 0
2, 6845, Note_on_c, 0, 73, 0
2, 6846, Note_on_c, 0, 79, 0
2, 6904, Control_c, 0, 64, 127
2, 7011, Note_on_c, 0, 78, 0
2, 7017, Note_on_c, 0, 78, 97
2, 7423, Note_on_c, 0, 76, 100
2, 7476, Control_c, 0, 64, 0
2, 7495, Control_c, 0, 64, 127
2, 7626, Note_on_c, 0, 74, 0
2, 7630, Note_on_c, 0, 74, 98
2, 7665, Control_c, 0, 64, 0
2, 7703, Control_c, 0, 64, 127
2, 7761, Note_on_c, 0, 61, 75
2, 7796, Note_on_c, 0, 64, 68
2, 7848, Note_on_c, 0, 69, 0
2, 7848, Note_on_c, 0, 78, 0
2, 7853, Note_on_c, 0, 69, 85
2, 7860, Note_on_c, 0, 78, 98
2, 7913, Note_on_c, 0, 76, 0
2, 7913, Note_on_c, 0, 74, 0
2, 7918, Control_c, 0, 64, 0
2, 8194, Control_c, 0, 64, 127
2, 8466, Note_on_c, 0, 76, 92
2, 8686, Note_on_c, 0, 76, 0
2, 8696, Note_on_c, 0, 76, 83
2, 8962, Note_on_c, 0, 78, 0
2, 9325, Note_on_c, 0, 78, 104
2, 9530, Note_on_c, 0, 64, 0
2, 9537, Note_on_c, 0, 64, 77
2, 9538, Note_on_c, 0, 61, 0
2, 9542, Note_on_c, 0, 59, 72
2, 9542, Note_on_c, 0, 61, 65
2, 9543, Note_on_c, 0, 54, 62
2, 9580, Control_c, 0, 64, 0
2, 9638, Control_c, 0, 64, 127
2, 9730, Control_c, 0, 64, 0
2, 9745, Note_on_c, 0, 79, 93
2, 9788, Note_on_c, 0, 78, 0
2, 9789, Note_on_c, 0, 69, 0
2, 9815, Note_on_c, 0, 76, 0
2, 9937, Control_c, 0, 64, 127
2, 9941, Note_on_c, 0, 78, 96
2, 10091, Note_on_c, 0, 79, 0
2, 10123, Note_on_c, 0, 76, 98
2, 10341, Note_on_c, 0, 58, 76
2, 10344, Note_on_c, 0, 76, 0
2, 10349, Note_on_c, 0, 76, 90
2, 10358, Control_c, 0, 64, 0
2, 10370, Note_on_c, 0, 78, 0
2, 10391, Note_on_c, 0, 59, 0
2, 10544, Control_c, 0, 64, 127
2, 10561, Note_on_c, 0, 78, 93
2, 10967, Note_on_c, 0, 76, 0
2, 10971, Note_on_c, 0, 76, 77
2, 11148, Note_on_c, 0, 55, 57
2, 11197, Note_on_c, 0, 59, 58
2, 11228, Note_on_c, 0, 66, 49
2, 11231, Note_on_c, 0, 62, 54
2, 11265, Control_c, 0, 64, 0
2, 11266, Note_on_c, 0, 61, 0
2, 11276, Note_on_c, 0, 74, 82
2, 11276, Note_on_c, 0, 58, 0
2, 11277, Note_on_c, 0, 54, 0
2, 11277, Note_on_c, 0, 78, 0
2, 11278, Note_on_c, 0, 76, 0
2, 11297, Note_on_c, 0, 64, 0
2, 11742, Control_c, 0, 64, 127
2, 12368, Note_on_c, 0, 71, 76
2, 12564, Note_on_c, 0, 71, 0
2, 12574, Note_on_c, 0, 71, 90
2, 12633, Note_on_c, 0, 74, 0
2, 12633, Control_c, 0, 64, 0
2, 12718, Control_c, 0, 64, 127
2, 12771, Note_on_c, 0, 59, 0
2, 12772, Note_on_c, 0, 73, 97
2, 12777, Note_on_c, 0, 59, 54
2, 12882, Note_on_c, 0, 54, 50
2, 12916, Note_on_c, 0, 57, 60
2, 12963, Note_on_c, 0, 62, 0
2, 12972, Note_on_c, 0, 62, 59
2, 13009, Note_on_c, 0, 66, 0
2, 13012, Note_on_c, 0, 74, 92
2, 13014, Note_on_c, 0, 66, 70
2, 13019, Control_c, 0, 64, 0
2, 13026, Note_on_c, 0, 71, 0
2, 13026, Note_on_c, 0, 73, 0
2, 13031, Note_on_c, 0, 55, 0
2, 13040, Note_on_c, 0, 59, 0
2, 13224, Control_c, 0, 64, 127
2, 13626, Note_on_c, 0, 69, 78
2, 13847, Note_on_c, 0, 57, 0
2, 13847, Note_on_c, 0, 69, 0
2, 13851, Note_on_c, 0, 69, 77
2, 13857, Note_on_c, 0, 57, 37
2, 14423, Note_on_c, 0, 69, 0
2, 14434, Note_on_c, 0, 69, 83
2, 14656, Note_on_c, 0, 52, 64
2, 14663, Control_c, 0, 64, 0
2, 14676, Note_on_c, 0, 79, 96
2, 14676, Note_on_c, 0, 62, 0
2, 14677, Note_on_c, 0, 59, 67
2, 14685, Note_on_c, 0, 62, 70
2, 14689, Note_on_c, 0, 71, 83
2, 14691, Note_on_c, 0, 67, 75
2, 14693, Note_on_c, 0, 54, 0
2, 14695, Note_on_c, 0, 74, 0
2, 14696, Note_on_c, 0, 57, 0
2, 14722, Note_on_c, 0, 66, 0
2, 14730, Note_on_c, 0, 69, 0
2, 15058, Note_on_c, 0, 78, 93
2, 15106, Control_c, 0, 64, 127
2, 15275, Note_on_c, 0, 67, 0
2, 15275, Note_on_c, 0, 71, 0
2, 15278, Note_on_c, 0, 76, 98
2, 15280, Note_on_c, 0, 71, 85
2, 15286, Note_on_c, 0, 67, 77
2, 15467, Note_on_c, 0, 79, 0
2, 15690, Note_on_c, 0, 67, 0
2, 15690, Note_on_c, 0, 71, 0
2, 15695, Note_on_c, 0, 74, 98
2, 15697, Note_on_c, 0, 71, 87
2, 15700, Note_on_c, 0, 67, 85
2, 15897, Note_on_c, 0, 52, 0
2, 15901, Note_on_c, 0, 52, 76
2, 16005, Note_on_c, 0, 78, 0
2, 16097, Note_on_c, 0, 71, 0
2, 16097, Note_on_c, 0, 74, 0
2, 16103, Note_on_c, 0, 74, 102
2, 16104, Note_on_c, 0, 67, 0
2, 16107, Note_on_c, 0, 71, 91
2, 16109, Note_on_c, 0, 67, 91
2, 16143, Control_c, 0, 64, 0
2, 16227, Control_c, 0, 64, 127
2, 16304, Note_on_c, 0, 52, 0
2, 16314, Note_on_c, 0, 52, 93
2, 16315, Note_on_c, 0, 55, 100
2, 16315, Note_on_c, 0, 45, 95
2, 16335, Note_on_c, 0, 59, 0
2, 16366, Note_on_c, 0, 62, 0
2, 16699, Note_on_c, 0, 73, 101
2, 16712, Note_on_c, 0, 61, 79
2, 16903, Note_on_c, 0, 45, 0
2, 16913, Note_on_c, 0, 45, 101
2, 16913, Note_on_c, 0, 33, 90
2, 16919, Note_on_c, 0, 74, 0
2, 16923, Note_on_c, 0, 74, 104
2, 16924, Note_on_c, 0, 62, 102
2, 16938, Note_on_c, 0, 73, 0
2, 16943, Note_on_c, 0, 61, 0
2, 16957, Note_on_c, 0, 52, 0
2, 16957, Note_on_c, 0, 76, 0
2, 17280, Note_on_c, 0, 67, 0
2, 17331, Note_on_c, 0, 76, 105
2, 17335, Note_on_c, 0, 73, 106
2, 17335, Note_on_c, 0, 57, 103
2, 17337, Note_on_c, 0, 64, 103
2, 17529, Note_on_c, 0, 52, 103
2, 17725, Note_on_c, 0, 45, 0
2, 17729, Note_on_c, 0, 45, 97
2, 17938, Control_c, 0, 64, 0
2, 17952, Note_on_c, 0, 33, 0
2, 17953, Note_on_c, 0, 76, 0
2, 17953, Note_on_c, 0, 62, 0
2, 17953, Note_on_c, 0, 52, 0
2, 17954, Note_on_c, 0, 45, 0
2, 17954, Note_on_c, 0, 73, 0
2, 17954, Note_on_c, 0, 74, 0
2, 17955, Note_on_c, 0, 71, 0
2, 17957, Note_on_c, 0, 64, 0
2, 17963, Note_on_c, 0, 55, 0
2, 17963, Note_on_c, 0, 57, 0
2, 17964, Note_on_c, 0, 67, 104
2, 17968, Note_on_c, 0, 61, 97
2, 17969, Note_on_c, 0, 38, 94
2, 17970, Note_on_c, 0, 26, 97
2, 17971, Note_on_c, 0, 57, 106
2, 18048, Note_on_c, 0, 38, 0
2, 18055, Control_c, 0, 64, 127
2, 18290, Note_on_c, 0, 38, 87
2, 18577, Note_on_c, 0, 38, 0
2, 18577, Note_on_c, 0, 57, 0
2, 18587, Note_on_c, 0, 66, 102
2, 18587, Note_on_c, 0, 57, 100
2, 18588, Note_on_c, 0, 38, 89
2, 18588, Note_on_c, 0, 50, 93
2, 18588, Note_on_c, 0, 62, 96
2, 18589, Note_on_c, 0, 45, 89
2, 18785, Note_on_c, 0, 66, 0
2, 18789, Note_on_c, 0, 66, 102
2, 18792, Note_on_c, 0, 57, 0
2, 18792, Note_on_c, 0, 62, 0
2, 18801, Note_on_c, 0, 57, 95
2, 18803, Note_on_c, 0, 62, 90
2, 18984, Note_on_c, 0, 38, 0
2, 18991, Note_on_c, 0, 38, 86
2, 19176, Note_on_c, 0, 45, 0
2, 19186, Note_on_c, 0, 45, 87
2, 19361, Note_on_c, 0, 50, 0
2, 19372, Note_on_c, 0, 50, 86
2, 19576, Note_on_c, 0, 57, 0
2, 19577, Note_on_c, 0, 79, 106
2, 19584, Note_on_c, 0, 45, 0
2, 19584, Note_on_c, 0, 61, 0
2, 19586, Note_on_c, 0, 69, 101
2, 19587, Note_on_c, 0, 73, 104
2, 19587, Note_on_c, 0, 57, 101
2, 19592, Note_on_c, 0, 61, 100
2, 19592, Note_on_c, 0, 45, 87
2, 19599, Note_on_c, 0, 54, 87
2, 19921, Note_on_c, 0, 50, 0
2, 19928, Note_on_c, 0, 50, 79
2, 20190, Note_on_c, 0, 78, 107
2, 20190, Note_on_c, 0, 54, 0
2, 20190, Note_on_c, 0, 57, 0
2, 20190, Note_on_c, 0, 62, 0
2, 20190, Note_on_c, 0, 69, 0
2, 20194, Note_on_c, 0, 62, 92
2, 20196, Note_on_c, 0, 69, 97
2, 20196, Note_on_c, 0, 57, 95
2, 20197, Note_on_c, 0, 54, 84
2, 20199, Note_on_c, 0, 66, 0
2, 20201, Note_on_c, 0, 74, 91
2, 20344, Note_on_c, 0, 62, 0
2, 20349, Note_on_c, 0, 62, 73
2, 20398, Note_on_c, 0, 78, 0
2, 20405, Note_on_c, 0, 69, 0
2, 20408, Note_on_c, 0, 78, 107
2, 20411, Note_on_c, 0, 69, 99
2, 20413, Note_on_c, 0, 74, 0
2, 20422, Note_on_c, 0, 74, 78
2, 20574, Note_on_c, 0, 38, 0
2, 20582, Note_on_c, 0, 38, 93
2, 20774, Note_on_c, 0, 45, 0
2, 20774, Note_on_c, 0, 50, 0
2, 20774, Note_on_c, 0, 62, 0
2, 20782, Note_on_c, 0, 57, 0
2, 20784, Note_on_c, 0, 45, 102
2, 20784, Note_on_c, 0, 50, 97
2, 20785, Note_on_c, 0, 62, 97
2, 20786, Note_on_c, 0, 64, 101
2, 20787, Note_on_c, 0, 57, 91
2, 20789, Note_on_c, 0, 26, 0
2, 20981, Note_on_c, 0, 62, 0
2, 20985, Note_on_c, 0, 62, 101
2, 21061, Note_on_c, 0, 79, 0
2, 21063, Note_on_c, 0, 57, 0
2, 21064, Note_on_c, 0, 62, 0
2, 21065, Note_on_c, 0, 78, 0
2, 21066, Note_on_c, 0, 45, 0
2, 21066, Note_on_c, 0, 69, 0
2, 21066, Note_on_c, 0, 74, 0
2, 21068, Note_on_c, 0, 73, 0
2, 21068, Note_on_c, 0, 50, 0
2, 21069, Note_on_c, 0, 64, 0
2, 21069, Note_on_c, 0, 38, 0
2, 21077, Control_c, 0, 64, 0
2, 21089, Note_on_c, 0, 54, 0
2, 21089, Note_on_c, 0, 61, 0
2, 21089, Note_on_c, 0, 67, 0
2, 21202, Note_on_c, 0, 37, 101
2, 21202, Note_on_c, 0, 66, 103
2, 21208, Note_on_c, 0, 57, 98
2, 21209, Note_on_c, 0, 61, 96
2, 21411, Control_c, 0, 64, 127
2, 21523, Note_on_c, 0, 45, 90
2, 21818, Note_on_c, 0, 57, 0
2, 21828, Note_on_c, 0, 52, 96
2, 21828, Note_on_c, 0, 57, 100
2, 21834, Note_on_c, 0, 61, 0
2, 21837, Note_on_c, 0, 64, 100
2, 21843, Note_on_c, 0, 61, 92
2, 22033, Note_on_c, 0, 61, 0
2, 22033, Note_on_c, 0, 64, 0
2, 22041, Note_on_c, 0, 64, 103
2, 22042, Note_on_c, 0, 61, 90
2, 22239, Note_on_c, 0, 49, 84
2, 22425, Note_on_c, 0, 52, 0
2, 22425, Note_on_c, 0, 57, 0
2, 22436, Note_on_c, 0, 52, 86
2, 22436, Note_on_c, 0, 57, 98
2, 22636, Note_on_c, 0, 78, 108
2, 22640, Note_on_c, 0, 73, 105
2, 22641, Note_on_c, 0, 71, 94
2, 22800, Control_c, 0, 64, 0
2, 22807, Note_on_c, 0, 52, 0
2, 22807, Note_on_c, 0, 37, 0
2, 22808, Note_on_c, 0, 64, 0
2, 22809, Note_on_c, 0, 61, 0
2, 22810, Note_on_c, 0, 45, 0
2, 22811, Note_on_c, 0, 57, 0
2, 22832, Note_on_c, 0, 49, 0
2, 22834, Note_on_c, 0, 54, 98
2, 22836, Note_on_c, 0, 42, 99
2, 22836, Note_on_c, 0, 49, 95
2, 22863, Note_on_c, 0, 66, 0
2, 22955, Control_c, 0, 64, 127
2, 23017, Note_on_c, 0, 79, 105
2, 23216, Note_on_c, 0, 78, 0
2, 23223, Note_on_c, 0, 78, 103
2, 23420, Note_on_c, 0, 64, 106
2, 23420, Note_on_c, 0, 61, 98
2, 23421, Note_on_c, 0, 58, 97
2, 23436, Note_on_c, 0, 76, 104
2, 23623, Note_on_c, 0, 76, 0
2, 23632, Note_on_c, 0, 76, 106
2, 23815, Note_on_c, 0, 54, 0
2, 23815, Note_on_c, 0, 78, 0
2, 23820, Note_on_c, 0, 78, 106
2, 23824, Note_on_c, 0, 54, 95
2, 23838, Note_on_c, 0, 71, 0
2, 24007, Note_on_c, 0, 58, 0
2, 24007, Note_on_c, 0, 61, 0
2, 24007, Note_on_c, 0, 64, 0
2, 24013, Note_on_c, 0, 61, 94
2, 24013, Note_on_c, 0, 64, 101
2, 24017, Note_on_c, 0, 58, 95
2, 24199, Note_on_c, 0, 76, 0
2, 24206, Note_on_c, 0, 76, 102
2, 24415, Note_on_c, 0, 43, 100
2, 24418, Note_on_c, 0, 74, 106
2, 24420, Note_on_c, 0, 62, 99
2, 24421, Note_on_c, 0, 66, 99
2, 24425, Note_on_c, 0, 49, 0
2, 24425, Note_on_c, 0, 78, 0
2, 24425, Note_on_c, 0, 61, 0
2, 24426, Note_on_c, 0, 58, 0
2, 24426, Note_on_c, 0, 54, 0
2, 24426, Note_on_c, 0, 64, 0
2, 24426, Control_c, 0, 64, 0
2, 24427, Note_on_c, 0, 79, 0
2, 24429, Note_on_c, 0, 76, 0
2, 24430, Note_on_c, 0, 42, 0
2, 24437, Note_on_c, 0, 73, 0
2, 24728, Note_on_c, 0, 50, 83
2, 24883, Control_c, 0, 64, 127
2, 25028, Note_on_c, 0, 57, 80
2, 25029, Note_on_c, 0, 55, 73
2, 25420, Note_on_c, 0, 50, 0
2, 25423, Note_on_c, 0, 59, 94
2, 25427, Note_on_c, 0, 50, 73
2, 25612, Note_on_c, 0, 55, 0
2, 25612, Note_on_c, 0, 57, 0
2, 25612, Note_on_c, 0, 59, 0
2, 25617, Note_on_c, 0, 59, 95
2, 25617, Note_on_c, 0, 55, 85
2, 25618, Note_on_c, 0, 57, 93
2, 25812, Note_on_c, 0, 61, 100
2, 25995, Control_c, 0, 64, 0
2, 25996, Note_on_c, 0, 62, 0
2, 26000, Note_on_c, 0, 55, 0
2, 26000, Note_on_c, 0, 50, 0
2, 26000, Note_on_c, 0, 66, 0
2, 26000, Note_on_c, 0, 61, 0
2, 26000, Note_on_c, 0, 59, 0
2, 26001, Note_on_c, 0, 43, 0
2, 26004, Note_on_c, 0, 57, 0
2, 26004, Note_on_c, 0, 74, 0
2, 26007, Note_on_c, 0, 42, 92
2, 26007, Note_on_c, 0, 62, 99
2, 26009, Note_on_c, 0, 57, 98
2, 26173, Control_c, 0, 64, 127
2, 26294, Note_on_c, 0, 50, 77
2, 26416, Note_on_c, 0, 64, 94
2, 26618, Note_on_c, 0, 57, 0
2, 26618, Note_on_c, 0, 62, 0
2, 26624, Note_on_c, 0, 54, 87
2, 26625, Note_on_c, 0, 57, 89
2, 26626, Note_on_c, 0, 62, 94
2, 27033, Note_on_c, 0, 50, 0
2, 27037, Note_on_c, 0, 50, 81
2, 27040, Note_on_c, 0, 69, 101
2, 27225, Note_on_c, 0, 69, 0
2, 27230, Note_on_c, 0, 74, 103
2, 27233, Note_on_c, 0, 54, 0
2, 27233, Note_on_c, 0, 57, 0
2, 27235, Note_on_c, 0, 69, 82
2, 27238, Note_on_c, 0, 54, 86
2, 27238, Note_on_c, 0, 57, 94
2, 27428, Note_on_c, 0, 78, 104
2, 27639, Note_on_c, 0, 55, 102
2, 27640, Note_on_c, 0, 74, 0
2, 27641, Note_on_c, 0, 79, 105
2, 27642, Note_on_c, 0, 62, 0
2, 27643, Note_on_c, 0, 42, 0
2, 27643, Note_on_c, 0, 57, 0
2, 27643, Note_on_c, 0, 69, 0
2, 27643, Note_on_c, 0, 47, 96
2, 27643, Note_on_c, 0, 50, 0
2, 27643, Note_on_c, 0, 64, 0
2, 27644, Note_on_c, 0, 78, 0
2, 27644, Note_on_c, 0, 52, 91
2, 27644, Note_on_c, 0, 54, 0
2, 27644, Note_on_c, 0, 71, 99
2, 27644, Control_c, 0, 64, 0
2, 27646, Note_on_c, 0, 74, 99
2, 27763, Control_c, 0, 64, 127
2, 28035, Note_on_c, 0, 78, 98
2, 28224, Note_on_c, 0, 71, 0
2, 28230, Note_on_c, 0, 76, 107
2, 28230, Note_on_c, 0, 59, 100
2, 28231, Note_on_c, 0, 55, 0
2, 28232, Note_on_c, 0, 62, 98
2, 28234, Note_on_c, 0, 71, 98
2, 28234, Control_c, 0, 64, 0
2, 28236, Note_on_c, 0, 67, 92
2, 28242, Note_on_c, 0, 55, 92
2, 28270, Control_c, 0, 64, 127
2, 28631, Note_on_c, 0, 67, 0
2, 28631, Note_on_c, 0, 71, 0
2, 28631, Note_on_c, 0, 74, 0
2, 28635, Note_on_c, 0, 74, 103
2, 28636, Note_on_c, 0, 71, 98
2, 28640, Note_on_c, 0, 67, 95
2, 28830, Note_on_c, 0, 52, 0
2, 28840, Note_on_c, 0, 52, 90
2, 28842, Note_on_c, 0, 40, 85
2, 29030, Note_on_c, 0, 67, 0
2, 29030, Note_on_c, 0, 71, 0
2, 29030, Note_on_c, 0, 74, 0
2, 29034, Note_on_c, 0, 74, 109
2, 29039, Note_on_c, 0, 71, 97
2, 29040, Note_on_c, 0, 67, 98
2, 29236, Control_c, 0, 64, 0
2, 29245, Note_on_c, 0, 52, 0
2, 29245, Note_on_c, 0, 55, 0
2, 29250, Note_on_c, 0, 55, 106
2, 29251, Note_on_c, 0, 52, 93
2, 29252, Note_on_c, 0, 45, 100
2, 29276, Control_c, 0, 64, 127
2, 29535, Note_on_c, 0, 62, 0
2, 29536, Note_on_c, 0, 59, 0
2, 29536, Note_on_c, 0, 47, 0
2, 29536, Note_on_c, 0, 52, 0
2, 29537, Note_on_c, 0, 67, 0
2, 29537, Note_on_c, 0, 79, 0
2, 29537, Note_on_c, 0, 74, 0
2, 29537, Note_on_c, 0, 71, 0
2, 29538, Control_c, 0, 64, 0
2, 29538, Note_on_c, 0, 76, 0
2, 29539, Note_on_c, 0, 55, 0
2, 29539, Note_on_c, 0, 45, 0
2, 29552, Note_on_c, 0, 40, 0
2, 29552, Note_on_c, 0, 78, 0
2, 29648, Note_on_c, 0, 74, 101
2, 29884, Note_on_c, 0, 73, 102
2, 29917, Note_on_c, 0, 74, 0
2, 30136, Control_c, 0, 64, 127
2, 30279, Note_on_c, 0, 45, 67
2, 30487, Note_on_c, 0, 55, 87
2, 30492, Note_on_c, 0, 52, 74
2, 30517, Note_on_c, 0, 74, 99
2, 30704, Note_on_c, 0, 74, 0
2, 30711, Note_on_c, 0, 74, 101
2, 30924, Note_on_c, 0, 66, 88
2, 30924, Note_on_c, 0, 38, 84
2, 30930, Note_on_c, 0, 62, 72
2, 30968, Control_c, 0, 64, 0
2, 30969, Note_on_c, 0, 45, 0
2, 30969, Note_on_c, 0, 55, 0
2, 30970, Note_on_c, 0, 52, 0
2, 30971, Note_on_c, 0, 73, 0
2, 31065, Control_c, 0, 64, 127
2, 31254, Note_on_c, 0, 45, 64
2, 31566, Note_on_c, 0, 54, 70
2, 31568, Note_on_c, 0, 57, 71
2, 31977, Note_on_c, 0, 50, 49
2, 32163, Note_on_c, 0, 54, 0
2, 32174, Note_on_c, 0, 54, 64
2, 32363, Note_on_c, 0, 50, 0
2, 32374, Note_on_c, 0, 50, 61
2, 32555, Note_on_c, 0, 54, 0
2, 32566, Note_on_c, 0, 54, 67
2, 32566, Note_on_c, 0, 61, 88
2, 32586, Note_on_c, 0, 57, 0
2, 32592, Note_on_c, 0, 57, 70
2, 32640, Note_on_c, 0, 74, 0
2, 32885, Note_on_c, 0, 50, 0
2, 32894, Note_on_c, 0, 50, 54
2, 33162, Note_on_c, 0, 62, 0
2, 33169, Note_on_c, 0, 54, 0
2, 33170, Note_on_c, 0, 62, 92
2, 33178, Note_on_c, 0, 54, 70
2, 33185, Note_on_c, 0, 57, 0
2, 33194, Note_on_c, 0, 57, 75
2, 33538, Note_on_c, 0, 38, 0
2, 33543, Note_on_c, 0, 38, 76
2, 33743, Note_on_c, 0, 64, 96
2, 33745, Note_on_c, 0, 57, 0
2, 33753, Note_on_c, 0, 61, 0
2, 33756, Note_on_c, 0, 57, 81
2, 33763, Note_on_c, 0, 61, 67
2, 33946, Note_on_c, 0, 40, 75
2, 34145, Note_on_c, 0, 61, 0
2, 34149, Control_c, 0, 64, 0
2, 34149, Note_on_c, 0, 42, 78
2, 34152, Note_on_c, 0, 61, 93
2, 34152, Note_on_c, 0, 57, 0
2, 34154, Note_on_c, 0, 45, 0
2, 34158, Note_on_c, 0, 57, 79
2, 34160, Note_on_c, 0, 64, 0
2, 34160, Note_on_c, 0, 40, 0
2, 34162, Note_on_c, 0, 54, 0
2, 34162, Note_on_c, 0, 50, 0
2, 34163, Note_on_c, 0, 62, 0
2, 34163, Note_on_c, 0, 38, 0
2, 34164, Note_on_c, 0, 66, 0
2, 34444, Control_c, 0, 64, 127
2, 34447, Note_on_c, 0, 49, 66
2, 34775, Note_on_c, 0, 57, 0
2, 34778, Note_on_c, 0, 57, 69
2, 34786, Note_on_c, 0, 52, 63
2, 35151, Note_on_c, 0, 42, 0
2, 35162, Note_on_c, 0, 42, 70
2, 35374, Note_on_c, 0, 49, 0
2, 35378, Note_on_c, 0, 49, 67
2, 35550, Note_on_c, 0, 42, 0
2, 35561, Note_on_c, 0, 42, 58
2, 35774, Note_on_c, 0, 54, 88
2, 35774, Note_on_c, 0, 58, 98
2, 35792, Control_c, 0, 64, 0
2, 35865, Control_c, 0, 64, 127
2, 36072, Note_on_c, 0, 42, 0
2, 36080, Note_on_c, 0, 42, 72
2, 36383, Note_on_c, 0, 59, 101
2, 36385, Note_on_c, 0, 55, 91
2, 36741, Note_on_c, 0, 42, 0
2, 36748, Note_on_c, 0, 42, 78
2, 36948, Note_on_c, 0, 54, 0
2, 36948, Note_on_c, 0, 58, 0
2, 36948, Note_on_c, 0, 61, 0
2, 36956, Note_on_c, 0, 61, 95
2, 36957, Note_on_c, 0, 58, 90
2, 36959, Note_on_c, 0, 54, 84
2, 37132, Note_on_c, 0, 42, 0
2, 37140, Note_on_c, 0, 42, 83
2, 37304, Control_c, 0, 64, 0
2, 37340, Note_on_c, 0, 52, 0
2, 37354, Note_on_c, 0, 49, 0
2, 37356, Note_on_c, 0, 42, 0
2, 37356, Note_on_c, 0, 54, 0
2, 37357, Note_on_c, 0, 55, 0
2, 37358, Note_on_c, 0, 58, 0
2, 37359, Note_on_c, 0, 43, 83
2, 37359, Note_on_c, 0, 62, 97
2, 37370, Note_on_c, 0, 59, 0
2, 37376, Note_on_c, 0, 59, 87
2, 37378, Note_on_c, 0, 57, 0
2, 37378, Note_on_c, 0, 61, 0
2, 37382, Note_on_c, 0, 57, 78
2, 37668, Note_on_c, 0, 50, 64
2, 37731, Control_c, 0, 64, 127
2, 37946, Note_on_c, 0, 57, 0
2, 37954, Control_c, 0, 64, 0
2, 37957, Note_on_c, 0, 57, 65
2, 37981, Note_on_c, 0, 55, 61
2, 38215, Control_c, 0, 64, 127
2, 38338, Note_on_c, 0, 50, 0
2, 38342, Note_on_c, 0, 50, 61
2, 38538, Note_on_c, 0, 59, 0
2, 38548, Note_on_c, 0, 59, 96
2, 38561, Note_on_c, 0, 55, 0
2, 38572, Note_on_c, 0, 55, 72
2, 38730, Note_on_c, 0, 50, 0
2, 38738, Note_on_c, 0, 50, 54
2, 38914, Note_on_c, 0, 57, 0
2, 38917, Control_c, 0, 64, 0
2, 38923, Note_on_c, 0, 42, 73
2, 38925, Note_on_c, 0, 57, 88
2, 38936, Note_on_c, 0, 62, 0
2, 38937, Note_on_c, 0, 50, 0
2, 38937, Note_on_c, 0, 43, 0
2, 38940, Note_on_c, 0, 59, 0
2, 38960, Note_on_c, 0, 55, 0
2, 39168, Control_c, 0, 64, 127
2, 39247, Note_on_c, 0, 50, 60
2, 39523, Note_on_c, 0, 54, 72
2, 39882, Note_on_c, 0, 50, 0
2, 39892, Note_on_c, 0, 50, 57
2, 40104, Note_on_c, 0, 54, 0
2, 40109, Note_on_c, 0, 54, 74
2, 40114, Note_on_c, 0, 62, 95
2, 40289, Note_on_c, 0, 50, 0
2, 40297, Note_on_c, 0, 50, 69
2, 40395, Note_on_c, 0, 60, 59
2, 40465, Note_on_c, 0, 62, 0
2, 40475, Note_on_c, 0, 62, 67
2, 40486, Note_on_c, 0, 65, 75
2, 40497, Note_on_c, 0, 46, 76
2, 40509, Note_on_c, 0, 69, 99
2, 40527, Note_on_c, 0, 42, 0
2, 40532, Note_on_c, 0, 54, 0
2, 40534, Note_on_c, 0, 50, 0
2, 40537, Control_c, 0, 64, 0
2, 40550, Note_on_c, 0, 57, 0
2, 40688, Control_c, 0, 64, 127
2, 40814, Note_on_c, 0, 53, 65
2, 41106, Note_on_c, 0, 67, 92
2, 41118, Note_on_c, 0, 60, 0
2, 41122, Note_on_c, 0, 60, 67
2, 41126, Note_on_c, 0, 62, 0
2, 41130, Note_on_c, 0, 58, 69
2, 41132, Note_on_c, 0, 62, 59
2, 41487, Note_on_c, 0, 53, 0
2, 41497, Note_on_c, 0, 53, 55
2, 41717, Note_on_c, 0, 65, 0
2, 41723, Note_on_c, 0, 65, 82
2, 41725, Note_on_c, 0, 46, 0
2, 41725, Note_on_c, 0, 58, 0
2, 41733, Note_on_c, 0, 60, 0
2, 41733, Note_on_c, 0, 62, 0
2, 41736, Note_on_c, 0, 46, 57
2, 41736, Note_on_c, 0, 58, 62
2, 41737, Note_on_c, 0, 60, 61
2, 41737, Note_on_c, 0, 62, 66
2, 41940, Note_on_c, 0, 53, 0
2, 41947, Note_on_c, 0, 53, 59
2, 42117, Note_on_c, 0, 65, 0
2, 42122, Note_on_c, 0, 65, 63
2, 42132, Note_on_c, 0, 62, 0
2, 42135, Note_on_c, 0, 48, 67
2, 42137, Note_on_c, 0, 62, 49
2, 42160, Control_c, 0, 64, 0
2, 42172, Note_on_c, 0, 46, 0
2, 42172, Note_on_c, 0, 69, 0
2, 42173, Note_on_c, 0, 53, 0
2, 42173, Note_on_c, 0, 58, 0
2, 42263, Control_c, 0, 64, 127
2, 42467, Note_on_c, 0, 55, 60
2, 42762, Note_on_c, 0, 60, 0
2, 42767, Note_on_c, 0, 60, 44
2, 42977, Note_on_c, 0, 67, 0
2, 42988, Note_on_c, 0, 67, 56
2, 43014, Note_on_c, 0, 64, 52
2, 43101, Control_c, 0, 64, 0
2, 43104, Note_on_c, 0, 62, 0
2, 43138, Note_on_c, 0, 65, 0
2, 43200, Control_c, 0, 64, 127
2, 43881, Note_on_c, 0, 41, 62
2, 43919, Note_on_c, 0, 48, 0
2, 43925, Note_on_c, 0, 55, 0
2, 43925, Note_on_c, 0, 64, 0
2, 43926, Control_c, 0, 64, 0
2, 44021, Note_on_c, 0, 60, 0
2, 44044, Control_c, 0, 64, 127
2, 44087, Note_on_c, 0, 72, 68
2, 44094, Note_on_c, 0, 48, 48
2, 44275, Note_on_c, 0, 72, 0
2, 44284, Note_on_c, 0, 72, 77
2, 44286, Note_on_c, 0, 53, 49
2, 44490, Note_on_c, 0, 72, 0
2, 44495, Note_on_c, 0, 57, 66
2, 44497, Note_on_c, 0, 60, 62
2, 44499, Note_on_c, 0, 72, 86
2, 44682, Note_on_c, 0, 72, 0
2, 44692, Note_on_c, 0, 72, 77
2, 44897, Note_on_c, 0, 72, 0
2, 44901, Note_on_c, 0, 72, 76
2, 45089, Note_on_c, 0, 53, 0
2, 45089, Note_on_c, 0, 72, 0
2, 45093, Note_on_c, 0, 53, 57
2, 45097, Note_on_c, 0, 72, 82
2, 45288, Note_on_c, 0, 72, 0
2, 45293, Note_on_c, 0, 72, 81
2, 45488, Note_on_c, 0, 48, 0
2, 45488, Note_on_c, 0, 72, 0
2, 45497, Note_on_c, 0, 72, 80
2, 45497, Note_on_c, 0, 48, 65
2, 45511, Note_on_c, 0, 67, 0
2, 45515, Note_on_c, 0, 67, 61
2, 45517, Note_on_c, 0, 63, 62
2, 45522, Control_c, 0, 64, 0
2, 45528, Note_on_c, 0, 53, 0
2, 45529, Note_on_c, 0, 57, 0
2, 45529, Note_on_c, 0, 41, 0
2, 45529, Note_on_c, 0, 60, 0
2, 45596, Control_c, 0, 64, 127
2, 45705, Note_on_c, 0, 70, 76
2, 45706, Note_on_c, 0, 55, 62
2, 45900, Note_on_c, 0, 58, 63
2, 45900, Note_on_c, 0, 69, 75
2, 46095, Note_on_c, 0, 70, 0
2, 46105, Note_on_c, 0, 70, 88
2, 46110, Note_on_c, 0, 63, 0
2, 46110, Note_on_c, 0, 67, 0
2, 46116, Note_on_c, 0, 67, 62
2, 46117, Note_on_c, 0, 63, 61
2, 46709, Note_on_c, 0, 63, 0
2, 46709, Note_on_c, 0, 67, 0
2, 46717, Note_on_c, 0, 63, 63
2, 46719, Note_on_c, 0, 67, 79
2, 46725, Note_on_c, 0, 55, 0
2, 46725, Note_on_c, 0, 58, 0
2, 46730, Note_on_c, 0, 58, 60
2, 46731, Note_on_c, 0, 55, 54
2, 46901, Note_on_c, 0, 69, 0
2, 46912, Note_on_c, 0, 69, 81
2, 47062, Note_on_c, 0, 63, 0
2, 47109, Note_on_c, 0, 70, 0
2, 47113, Note_on_c, 0, 46, 70
2, 47117, Note_on_c, 0, 70, 89
2, 47127, Note_on_c, 0, 65, 70
2, 47127, Control_c, 0, 64, 0
2, 47129, Note_on_c, 0, 62, 76
2, 47132, Note_on_c, 0, 72, 0
2, 47135, Note_on_c, 0, 67, 0
2, 47137, Note_on_c, 0, 69, 0
2, 47143, Note_on_c, 0, 58, 0
2, 47144, Note_on_c, 0, 55, 0
2, 47155, Note_on_c, 0, 48, 0
2, 47239, Control_c, 0, 64, 127
2, 47306, Note_on_c, 0, 53, 66
2, 47500, Note_on_c, 0, 70, 0
2, 47507, Note_on_c, 0, 58, 71
2, 47512, Note_on_c, 0, 70, 83
2, 47708, Note_on_c, 0, 58, 0
2, 47708, Note_on_c, 0, 70, 0
2, 47716, Note_on_c, 0, 70, 87
2, 47718, Note_on_c, 0, 58, 75
2, 47727, Note_on_c, 0, 60, 72
2, 47731, Note_on_c, 0, 62, 0
2, 47731, Note_on_c, 0, 65, 0
2, 47735, Note_on_c, 0, 62, 70
2, 47735, Note_on_c, 0, 65, 66
2, 48116, Note_on_c, 0, 69, 90
2, 48323, Note_on_c, 0, 48, 68
2, 48329, Note_on_c, 0, 67, 86
2, 48522, Note_on_c, 0, 69, 0
2, 48526, Note_on_c, 0, 69, 91
2, 48545, Note_on_c, 0, 62, 0
2, 48545, Note_on_c, 0, 65, 0
2, 48551, Note_on_c, 0, 65, 66
2, 48553, Note_on_c, 0, 62, 69
2, 48707, Control_c, 0, 64, 0
2, 48715, Note_on_c, 0, 70, 0
2, 48715, Note_on_c, 0, 46, 0
2, 48716, Note_on_c, 0, 48, 0
2, 48716, Note_on_c, 0, 53, 0
2, 48716, Note_on_c, 0, 67, 0
2, 48717, Note_on_c, 0, 60, 0
2, 48729, Note_on_c, 0, 58, 0
2, 48733, Note_on_c, 0, 50, 73
2, 48883, Control_c, 0, 64, 127
2, 48914, Note_on_c, 0, 57, 72
2, 49124, Note_on_c, 0, 60, 60
2, 49336, Note_on_c, 0, 62, 0
2, 49336, Note_on_c, 0, 65, 0
2, 49341, Note_on_c, 0, 65, 56
2, 49342, Note_on_c, 0, 62, 59
2, 49732, Note_on_c, 0, 67, 70
2, 49774, Note_on_c, 0, 69, 0
2, 49780, Note_on_c, 0, 69, 93
2, 49923, Note_on_c, 0, 48, 72
2, 49935, Note_on_c, 0, 67, 0
2, 49941, Note_on_c, 0, 67, 87
2, 50150, Note_on_c, 0, 65, 0
2, 50161, Note_on_c, 0, 65, 88
2, 50173, Note_on_c, 0, 62, 0
2, 50183, Note_on_c, 0, 62, 70
2, 50319, Control_c, 0, 64, 0
2, 50323, Note_on_c, 0, 57, 0
2, 50323, Note_on_c, 0, 67, 0
2, 50323, Note_on_c, 0, 48, 0
2, 50323, Note_on_c, 0, 50, 0
2, 50323, Note_on_c, 0, 60, 0
2, 50324, Note_on_c, 0, 69, 0
2, 50342, Note_on_c, 0, 46, 75
2, 50465, Control_c, 0, 64, 127
2, 50547, Note_on_c, 0, 53, 68
2, 50730, Note_on_c, 0, 58, 72
2, 50952, Note_on_c, 0, 74, 99
2, 50964, Note_on_c, 0, 65, 0
2, 50965, Note_on_c, 0, 60, 71
2, 50968, Note_on_c, 0, 65, 74
2, 50970, Note_on_c, 0, 70, 81
2, 51348, Note_on_c, 0, 53, 0
2, 51359, Note_on_c, 0, 53, 66
2, 51548, Note_on_c, 0, 62, 0
2, 51555, Note_on_c, 0, 58, 0
2, 51559, Note_on_c, 0, 62, 83
2, 51563, Note_on_c, 0, 58, 71
2, 51945, Note_on_c, 0, 45, 83
2, 51945, Control_c, 0, 64, 0
2, 51954, Note_on_c, 0, 72, 101
2, 51955, Note_on_c, 0, 65, 0
2, 51964, Note_on_c, 0, 67, 86
2, 51966, Note_on_c, 0, 65, 81
2, 51971, Note_on_c, 0, 60, 0
2, 51971, Note_on_c, 0, 53, 0
2, 51972, Note_on_c, 0, 58, 0
2, 51973, Note_on_c, 0, 74, 0
2, 51973, Note_on_c, 0, 46, 0
2, 51973, Note_on_c, 0, 70, 0
2, 51993, Note_on_c, 0, 62, 0
2, 52032, Control_c, 0, 64, 127
2, 52149, Note_on_c, 0, 53, 68
2, 52339, Note_on_c, 0, 67, 0
2, 52339, Note_on_c, 0, 72, 0
2, 52343, Note_on_c, 0, 72, 90
2, 52343, Note_on_c, 0, 55, 75
2, 52349, Note_on_c, 0, 67, 69
2, 52546, Note_on_c, 0, 72, 0
2, 52549, Note_on_c, 0, 60, 83
2, 52551, Note_on_c, 0, 72, 91
2, 52551, Note_on_c, 0, 76, 103
2, 52554, Note_on_c, 0, 67, 0
2, 52558, Note_on_c, 0, 67, 84
2, 52945, Note_on_c, 0, 53, 0
2, 52949, Note_on_c, 0, 77, 99
2, 52951, Note_on_c, 0, 53, 77
2, 53137, Note_on_c, 0, 60, 0
2, 53137, Note_on_c, 0, 65, 0
2, 53144, Note_on_c, 0, 65, 82
2, 53145, Note_on_c, 0, 60, 83
2, 53351, Note_on_c, 0, 74, 102
2, 53362, Note_on_c, 0, 70, 91
2, 53368, Note_on_c, 0, 65, 0
2, 53372, Note_on_c, 0, 65, 75
2, 53523, Control_c, 0, 64, 0
2, 53546, Note_on_c, 0, 60, 0
2, 53547, Note_on_c, 0, 55, 0
2, 53547, Note_on_c, 0, 76, 0
2, 53548, Note_on_c, 0, 53, 0
2, 53548, Note_on_c, 0, 72, 0
2, 53548, Note_on_c, 0, 67, 0
2, 53549, Note_on_c, 0, 43, 92
2, 53551, Note_on_c, 0, 45, 0
2, 53552, Control_c, 0, 64, 127
2, 53583, Note_on_c, 0, 77, 0
2, 53742, Note_on_c, 0, 50, 67
2, 53945, Note_on_c, 0, 53, 74
2, 54163, Note_on_c, 0, 58, 90
2, 54543, Note_on_c, 0, 74, 0
2, 54551, Note_on_c, 0, 50, 0
2, 54551, Note_on_c, 0, 70, 0
2, 54552, Note_on_c, 0, 74, 98
2, 54554, Note_on_c, 0, 50, 73
2, 54555, Note_on_c, 0, 70, 91
2, 54743, Note_on_c, 0, 74, 0
2, 54750, Note_on_c, 0, 58, 0
2, 54750, Note_on_c, 0, 70, 0
2, 54754, Note_on_c, 0, 74, 103
2, 54755, Note_on_c, 0, 62, 89
2, 54756, Note_on_c, 0, 58, 88
2, 54760, Note_on_c, 0, 70, 86
2, 54937, Note_on_c, 0, 76, 103
2, 54938, Note_on_c, 0, 72, 101
2, 55134, Note_on_c, 0, 74, 0
2, 55136, Control_c, 0, 64, 0
2, 55139, Note_on_c, 0, 74, 102
2, 55141, Note_on_c, 0, 48, 87
2, 55141, Note_on_c, 0, 77, 99
2, 55147, Note_on_c, 0, 50, 0
2, 55147, Note_on_c, 0, 53, 0
2, 55148, Note_on_c, 0, 43, 0
2, 55148, Note_on_c, 0, 58, 0
2, 55148, Note_on_c, 0, 62, 0
2, 55148, Note_on_c, 0, 76, 0
2, 55149, Note_on_c, 0, 72, 0
2, 55157, Note_on_c, 0, 65, 0
2, 55165, Note_on_c, 0, 70, 0
2, 55336, Note_on_c, 0, 76, 99
2, 55337, Note_on_c, 0, 72, 96
2, 55338, Note_on_c, 0, 55, 79
2, 55388, Control_c, 0, 64, 127
2, 55511, Note_on_c, 0, 74, 0
2, 55521, Note_on_c, 0, 74, 100
2, 55539, Note_on_c, 0, 62, 81
2, 55539, Note_on_c, 0, 70, 89
2, 55733, Note_on_c, 0, 72, 0
2, 55742, Note_on_c, 0, 72, 106
2, 55743, Note_on_c, 0, 64, 94
2, 55938, Note_on_c, 0, 60, 93
2, 56013, Note_on_c, 0, 65, 77
2, 56077, Note_on_c, 0, 67, 73
2, 56140, Note_on_c, 0, 72, 0
2, 56145, Note_on_c, 0, 72, 77
2, 56209, Note_on_c, 0, 65, 0
2, 56209, Note_on_c, 0, 77, 0
2, 56214, Note_on_c, 0, 77, 80
2, 56217, Note_on_c, 0, 65, 59
2, 56293, Note_on_c, 0, 79, 89
2, 56325, Note_on_c, 0, 48, 0
2, 56332, Note_on_c, 0, 60, 0
2, 56336, Note_on_c, 0, 48, 80
2, 56337, Note_on_c, 0, 60, 84
2, 56367, Note_on_c, 0, 84, 83
2, 56445, Note_on_c, 0, 89, 84
2, 56506, Note_on_c, 0, 91, 92
2, 56572, Note_on_c, 0, 96, 106
2, 56664, Note_on_c, 0, 62, 0
2, 56665, Note_on_c, 0, 72, 0
2, 56665, Note_on_c, 0, 70, 0
2, 56665, Note_on_c, 0, 74, 0
2, 56665, Note_on_c, 0, 89, 0
2, 56665, Note_on_c, 0, 76, 0
2, 56665, Note_on_c, 0, 77, 0
2, 56665, Note_on_c, 0, 67, 0
2, 56665, Note_on_c, 0, 79, 0
2, 56665, Note_on_c, 0, 60, 0
2, 56666, Note_on_c, 0, 64, 0
2, 56666, Note_on_c, 0, 55, 0
2, 56666, Note_on_c, 0, 91, 0
2, 56668, Control_c, 0, 64, 0
2, 56678, Note_on_c, 0, 65, 0
2, 56686, Note_on_c, 0, 48, 0
2, 56735, Note_on_c, 0, 41, 90
2, 56737, Note_on_c, 0, 53, 86
2, 56839, Control_c, 0, 64, 127
2, 56950, Note_on_c, 0, 60, 77
2, 56953, Note_on_c, 0, 72, 77
2, 57139, Note_on_c, 0, 60, 0
2, 57143, Note_on_c, 0, 60, 91
2, 57144, Note_on_c, 0, 77, 76
2, 57331, Note_on_c, 0, 60, 0
2, 57338, Note_on_c, 0, 53, 0
2, 57338, Note_on_c, 0, 84, 0
2, 57342, Note_on_c, 0, 60, 90
2, 57344, Note_on_c, 0, 53, 72
2, 57349, Note_on_c, 0, 84, 91
2, 57356, Note_on_c, 0, 57, 85
2, 57538, Note_on_c, 0, 60, 0
2, 57538, Note_on_c, 0, 72, 0
2, 57543, Note_on_c, 0, 60, 83
2, 57544, Note_on_c, 0, 72, 74
2, 57738, Note_on_c, 0, 60, 0
2, 57745, Note_on_c, 0, 77, 0
2, 57749, Note_on_c, 0, 60, 82
2, 57752, Note_on_c, 0, 77, 71
2, 57930, Note_on_c, 0, 60, 0
2, 57936, Note_on_c, 0, 60, 91
2, 57953, Note_on_c, 0, 53, 0
2, 57953, Note_on_c, 0, 57, 0
2, 57953, Note_on_c, 0, 84, 0
2, 57957, Note_on_c, 0, 53, 71
2, 57958, Note_on_c, 0, 84, 90
2, 57958, Note_on_c, 0, 57, 82
2, 58137, Note_on_c, 0, 60, 0
2, 58137, Note_on_c, 0, 72, 0
2, 58148, Note_on_c, 0, 60, 86
2, 58148, Note_on_c, 0, 72, 82
2, 58286, Note_on_c, 0, 41, 0
2, 58286, Control_c, 0, 64, 0
2, 58287, Note_on_c, 0, 84, 0
2, 58287, Note_on_c, 0, 60, 0
2, 58287, Note_on_c, 0, 57, 0
2, 58288, Note_on_c, 0, 53, 0
2, 58288, Note_on_c, 0, 77, 0
2, 58288, Note_on_c, 0, 72, 0
2, 58298, Note_on_c, 0, 96, 0
2, 58341, Note_on_c, 0, 60, 93
2, 58349, Note_on_c, 0, 48, 74
2, 58356, Note_on_c, 0, 55, 80
2, 58361, Note_on_c, 0, 51, 67
2, 58437, Control_c, 0, 64, 127
2, 58544, Note_on_c, 0, 58, 91
2, 58568, Note_on_c, 0, 72, 73
2, 58739, Note_on_c, 0, 57, 89
2, 58760, Note_on_c, 0, 79, 88
2, 58936, Note_on_c, 0, 58, 0
2, 58946, Note_on_c, 0, 58, 99
2, 58951, Note_on_c, 0, 55, 0
2, 58956, Note_on_c, 0, 84, 95
2, 58959, Note_on_c, 0, 48, 0
2, 58959, Note_on_c, 0, 51, 0
2, 58962, Note_on_c, 0, 55, 80
2, 58964, Note_on_c, 0, 51, 65
2, 58966, Note_on_c, 0, 48, 79
2, 59013, Control_c, 0, 64, 0
2, 59097, Control_c, 0, 64, 127
2, 59143, Note_on_c, 0, 72, 0
2, 59151, Note_on_c, 0, 60, 0
2, 59151, Note_on_c, 0, 72, 71
2, 59343, Note_on_c, 0, 48, 0
2, 59352, Note_on_c, 0, 48, 72
2, 59358, Note_on_c, 0, 79, 0
2, 59369, Note_on_c, 0, 79, 72
2, 59543, Note_on_c, 0, 55, 0
2, 59543, Note_on_c, 0, 84, 0
2, 59547, Note_on_c, 0, 55, 92
2, 59553, Note_on_c, 0, 84, 89
2, 59727, Note_on_c, 0, 57, 0
2, 59732, Note_on_c, 0, 57, 87
2, 59750, Note_on_c, 0, 72, 0
2, 59754, Note_on_c, 0, 72, 72
2, 59892, Note_on_c, 0, 84, 0
2, 59892, Note_on_c, 0, 72, 0
2, 59893, Note_on_c, 0, 79, 0
2, 59894, Note_on_c, 0, 48, 0
2, 59894, Control_c, 0, 64, 0
2, 59896, Note_on_c, 0, 55, 0
2, 59911, Note_on_c, 0, 51, 0
2, 59911, Note_on_c, 0, 58, 0
2, 59919, Note_on_c, 0, 57, 0
2, 59943, Note_on_c, 0, 58, 101
2, 59951, Note_on_c, 0, 53, 85
2, 59952, Note_on_c, 0, 46, 83
2, 59969, Note_on_c, 0, 50, 65
2, 60034, Control_c, 0, 64, 127
2, 60167, Note_on_c, 0, 72, 73
2, 60334, Note_on_c, 0, 58, 0
2, 60344, Note_on_c, 0, 58, 87
2, 60353, Note_on_c, 0, 77, 70
2, 60526, Note_on_c, 0, 58, 0
2, 60530, Note_on_c, 0, 58, 94
2, 60533, Note_on_c, 0, 46, 0
2, 60541, Note_on_c, 0, 53, 0
2, 60543, Note_on_c, 0, 46, 79
2, 60544, Note_on_c, 0, 84, 92
2, 60546, Note_on_c, 0, 53, 75
2, 60549, Note_on_c, 0, 50, 0
2, 60560, Note_on_c, 0, 50, 73
2, 60733, Note_on_c, 0, 58, 0
2, 60741, Note_on_c, 0, 72, 0
2, 60743, Note_on_c, 0, 58, 85
2, 60745, Note_on_c, 0, 72, 79
2, 60935, Note_on_c, 0, 57, 92
2, 60940, Note_on_c, 0, 77, 0
2, 60950, Note_on_c, 0, 77, 68
2, 61122, Note_on_c, 0, 55, 99
2, 61125, Note_on_c, 0, 84, 0
2, 61125, Note_on_c, 0, 48, 88
2, 61135, Note_on_c, 0, 84, 83
2, 61135, Control_c, 0, 64, 0
2, 61146, Note_on_c, 0, 50, 0
2, 61147, Note_on_c, 0, 72, 0
2, 61147, Note_on_c, 0, 53, 0
2, 61149, Note_on_c, 0, 57, 0
2, 61149, Note_on_c, 0, 46, 0
2, 61149, Note_on_c, 0, 77, 0
2, 61149, Note_on_c, 0, 58, 0
2, 61224, Control_c, 0, 64, 127
2, 61342, Note_on_c, 0, 57, 95
2, 61453, Control_c, 0, 64, 0
2, 61457, Note_on_c, 0, 48, 0
2, 61458, Note_on_c, 0, 55, 0
2, 61486, Note_on_c, 0, 84, 0
2, 61527, Note_on_c, 0, 50, 86
2, 61528, Note_on_c, 0, 38, 83
2, 61601, Control_c, 0, 64, 127
2, 61725, Note_on_c, 0, 72, 78
2, 61919, Note_on_c, 0, 77, 69
2, 62108, Note_on_c, 0, 50, 0
2, 62115, Note_on_c, 0, 50, 73
2, 62117, Note_on_c, 0, 53, 77
2, 62121, Note_on_c, 0, 84, 80
2, 62315, Note_on_c, 0, 72, 0
2, 62320, Note_on_c, 0, 72, 64
2, 62522, Note_on_c, 0, 57, 0
2, 62528, Note_on_c, 0, 57, 96
2, 62530, Note_on_c, 0, 77, 0
2, 62539, Note_on_c, 0, 77, 71
2, 62722, Note_on_c, 0, 84, 0
2, 62725, Note_on_c, 0, 55, 91
2, 62726, Note_on_c, 0, 48, 85
2, 62733, Note_on_c, 0, 84, 86
2, 62922, Note_on_c, 0, 53, 0
2, 62929, Note_on_c, 0, 53, 97
2, 62932, Note_on_c, 0, 65, 78
2, 63111, Control_c, 0, 64, 0
2, 63120, Note_on_c, 0, 38, 0
2, 63121, Note_on_c, 0, 77, 0
2, 63121, Note_on_c, 0, 84, 0
2, 63121, Note_on_c, 0, 48, 0
2, 63122, Note_on_c, 0, 72, 0
2, 63123, Note_on_c, 0, 50, 0
2, 63124, Note_on_c, 0, 55, 0
2, 63124, Note_on_c, 0, 57, 0
2, 63125, Note_on_c, 0, 46, 91
2, 63144, Note_on_c, 0, 65, 0
2, 63260, Control_c, 0, 64, 127
2, 63306, Control_c, 0, 64, 0
2, 63315, Note_on_c, 0, 72, 77
2, 63390, Control_c, 0, 64, 127
2, 63528, Note_on_c, 0, 46, 0
2, 63533, Note_on_c, 0, 46, 82
2, 63731, Note_on_c, 0, 62, 99
2, 63734, Note_on_c, 0, 58, 94
2, 63736, Note_on_c, 0, 46, 0
2, 63736, Note_on_c, 0, 53, 0
2, 63740, Note_on_c, 0, 53, 79
2, 63741, Note_on_c, 0, 86, 89
2, 63743, Note_on_c, 0, 46, 80
2, 63919, Note_on_c, 0, 74, 70
2, 64120, Note_on_c, 0, 46, 0
2, 64124, Note_on_c, 0, 46, 83
2, 64132, Note_on_c, 0, 77, 71
2, 64312, Note_on_c, 0, 53, 0
2, 64312, Note_on_c, 0, 58, 0
2, 64312, Note_on_c, 0, 86, 0
2, 64316, Note_on_c, 0, 58, 94
2, 64318, Note_on_c, 0, 86, 101
2, 64320, Note_on_c, 0, 65, 82
2, 64320, Note_on_c, 0, 53, 88
2, 64519, Note_on_c, 0, 74, 0
2, 64529, Note_on_c, 0, 74, 78
2, 64667, Control_c, 0, 64, 0
2, 64668, Note_on_c, 0, 62, 0
2, 64668, Note_on_c, 0, 77, 0
2, 64669, Note_on_c, 0, 86, 0
2, 64669, Note_on_c, 0, 74, 0
2, 64669, Note_on_c, 0, 65, 0
2, 64669, Note_on_c, 0, 46, 0
2, 64669, Note_on_c, 0, 53, 0
2, 64670, Note_on_c, 0, 58, 0
2, 64680, Note_on_c, 0, 72, 0
2, 64719, Note_on_c, 0, 60, 99
2, 64726, Note_on_c, 0, 55, 93
2, 64729, Note_on_c, 0, 53, 85
2, 64729, Note_on_c, 0, 45, 87
2, 64803, Control_c, 0, 64, 127
2, 64933, Note_on_c, 0, 72, 76
2, 65095, Note_on_c, 0, 60, 0
2, 65101, Note_on_c, 0, 60, 94
2, 65124, Note_on_c, 0, 77, 86
2, 65320, Note_on_c, 0, 64, 101
2, 65326, Note_on_c, 0, 60, 0
2, 65327, Note_on_c, 0, 57, 95
2, 65329, Note_on_c, 0, 84, 95
2, 65332, Note_on_c, 0, 60, 93
2, 65518, Note_on_c, 0, 72, 0
2, 65523, Note_on_c, 0, 72, 75
2, 65710, Note_on_c, 0, 77, 0
2, 65720, Note_on_c, 0, 77, 97
2, 65721, Note_on_c, 0, 65, 103
2, 65909, Note_on_c, 0, 57, 0
2, 65909, Note_on_c, 0, 84, 0
2, 65913, Note_on_c, 0, 57, 88
2, 65914, Note_on_c, 0, 84, 91
2, 66109, Note_on_c, 0, 72, 0
2, 66114, Note_on_c, 0, 72, 87
2, 66241, Control_c, 0, 64, 0
2, 66242, Note_on_c, 0, 77, 0
2, 66242, Note_on_c, 0, 64, 0
2, 66242, Note_on_c, 0, 84, 0
2, 66243, Note_on_c, 0, 65, 0
2, 66243, Note_on_c, 0, 45, 0
2, 66243, Note_on_c, 0, 72, 0
2, 66243, Note_on_c, 0, 53, 0
2, 66243, Note_on_c, 0, 55, 0
2, 66243, Note_on_c, 0, 57, 0
2, 66263, Note_on_c, 0, 60, 0
2, 66304, Note_on_c, 0, 62, 100
2, 66304, Note_on_c, 0, 58, 99
2, 66305, Note_on_c, 0, 50, 91
2, 66305, Note_on_c, 0, 43, 91
2, 66478, Control_c, 0, 64, 127
2, 66502, Note_on_c, 0, 77, 73
2, 66677, Note_on_c, 0, 65, 101
2, 66688, Note_on_c, 0, 82, 99
2, 66884, Note_on_c, 0, 89, 96
2, 66887, Note_on_c, 0, 48, 89
2, 66992, Control_c, 0, 64, 0
2, 67011, Note_on_c, 0, 43, 0
2, 67011, Note_on_c, 0, 50, 0
2, 67013, Note_on_c, 0, 62, 0
2, 67013, Note_on_c, 0, 58, 0
2, 67069, Note_on_c, 0, 65, 0
2, 67073, Note_on_c, 0, 55, 92
2, 67073, Note_on_c, 0, 65, 96
2, 67092, Control_c, 0, 64, 127
2, 67200, Note_on_c, 0, 89, 0
2, 67270, Note_on_c, 0, 64, 101
2, 67273, Note_on_c, 0, 76, 90
2, 67480, Note_on_c, 0, 88, 90
2, 67653, Note_on_c, 0, 82, 0
2, 67676, Note_on_c, 0, 48, 0
2, 67676, Note_on_c, 0, 77, 0
2, 67678, Control_c, 0, 64, 0
2, 67681, Note_on_c, 0, 76, 0
2, 67682, Note_on_c, 0, 88, 0
2, 67683, Note_on_c, 0, 55, 0
2, 67683, Note_on_c, 0, 65, 0
2, 67683, Note_on_c, 0, 64, 0
2, 67685, Note_on_c, 0, 48, 78
2, 67687, Note_on_c, 0, 65, 96
2, 67687, Note_on_c, 0, 41, 69
2, 67689, Note_on_c, 0, 57, 80
2, 67829, Control_c, 0, 64, 127
2, 68081, Note_on_c, 0, 77, 64
2, 68277, Note_on_c, 0, 84, 72
2, 68288, Note_on_c, 0, 53, 60
2, 68468, Note_on_c, 0, 89, 84
2, 68490, Note_on_c, 0, 57, 0
2, 68495, Note_on_c, 0, 57, 61
2, 68499, Note_on_c, 0, 60, 61
2, 68889, Note_on_c, 0, 65, 0
2, 68894, Note_on_c, 0, 65, 76
2, 69073, Note_on_c, 0, 53, 0
2, 69081, Note_on_c, 0, 69, 86
2, 69083, Note_on_c, 0, 53, 71
2, 69266, Note_on_c, 0, 72, 96
2, 69398, Note_on_c, 0, 89, 0
2, 69398, Note_on_c, 0, 48, 0
2, 69398, Note_on_c, 0, 77, 0
2, 69399, Note_on_c, 0, 41, 0
2, 69399, Note_on_c, 0, 84, 0
2, 69399, Note_on_c, 0, 69, 0
2, 69399, Note_on_c, 0, 57, 0
2, 69400, Note_on_c, 0, 72, 0
2, 69400, Note_on_c, 0, 60, 0
2, 69400, Note_on_c, 0, 65, 0
2, 69400, Note_on_c, 0, 53, 0
2, 69400, Control_c, 0, 64, 0
2, 69467, Note_on_c, 0, 74, 103
2, 69473, Note_on_c, 0, 58, 87
2, 69476, Note_on_c, 0, 46, 83
2, 69476, Note_on_c, 0, 53, 82
2, 69481, Note_on_c, 0, 70, 78
2, 69482, Note_on_c, 0, 65, 83
2, 69511, Control_c, 0, 64, 127
2, 69653, Control_c, 0, 64, 0
2, 69657, Note_on_c, 0, 46, 0
2, 69657, Note_on_c, 0, 58, 0
2, 69665, Note_on_c, 0, 53, 0
2, 69665, Note_on_c, 0, 70, 0
2, 69665, Note_on_c, 0, 46, 71
2, 69668, Note_on_c, 0, 58, 75
2, 69670, Note_on_c, 0, 53, 71
2, 69672, Note_on_c, 0, 70, 85
2, 69672, Note_on_c, 0, 65, 0
2, 69677, Note_on_c, 0, 65, 71
2, 69699, Note_on_c, 0, 46, 0
2, 69700, Note_on_c, 0, 58, 0
2, 69719, Note_on_c, 0, 53, 0
2, 69742, Note_on_c, 0, 74, 0
2, 70033, Note_on_c, 0, 70, 0
2, 70066, Note_on_c, 0, 70, 88
2, 70067, Note_on_c, 0, 62, 90
2, 70068, Note_on_c, 0, 58, 85
2, 70069, Note_on_c, 0, 53, 76
2, 70110, Control_c, 0, 64, 127
2, 70467, Note_on_c, 0, 46, 91
2, 70468, Note_on_c, 0, 76, 101
2, 70469, Note_on_c, 0, 72, 96
2, 70640, Note_on_c, 0, 62, 0
2, 70648, Note_on_c, 0, 58, 0
2, 70652, Note_on_c, 0, 62, 97
2, 70656, Note_on_c, 0, 53, 0
2, 70657, Note_on_c, 0, 58, 88
2, 70659, Note_on_c, 0, 77, 92
2, 70660, Note_on_c, 0, 53, 82
2, 70661, Note_on_c, 0, 74, 91
2, 70677, Control_c, 0, 64, 0
2, 70681, Note_on_c, 0, 70, 0
2, 70682, Note_on_c, 0, 72, 0
2, 70682, Note_on_c, 0, 76, 0
2, 70682, Note_on_c, 0, 46, 0
2, 70694, Note_on_c, 0, 65, 0
2, 70709, Note_on_c, 0, 62, 0
2, 70725, Note_on_c, 0, 53, 0
2, 70725, Note_on_c, 0, 58, 0
2, 70740, Note_on_c, 0, 74, 0
2, 70755, Note_on_c, 0, 77, 0
2, 70845, Note_on_c, 0, 76, 104
2, 70845, Note_on_c, 0, 72, 102
2, 70901, Control_c, 0, 64, 127
2, 71043, Note_on_c, 0, 67, 84
2, 71046, Note_on_c, 0, 60, 85
2, 71046, Note_on_c, 0, 64, 90
2, 71048, Note_on_c, 0, 46, 83
2, 71051, Note_on_c, 0, 55, 80
2, 71232, Note_on_c, 0, 46, 0
2, 71232, Note_on_c, 0, 67, 0
2, 71239, Note_on_c, 0, 46, 72
2, 71239, Note_on_c, 0, 60, 0
2, 71239, Note_on_c, 0, 64, 0
2, 71242, Control_c, 0, 64, 0
2, 71242, Note_on_c, 0, 67, 83
2, 71244, Note_on_c, 0, 60, 74
2, 71245, Note_on_c, 0, 64, 76
2, 71257, Note_on_c, 0, 76, 0
2, 71258, Note_on_c, 0, 72, 0
2, 71260, Note_on_c, 0, 55, 0
2, 71293, Note_on_c, 0, 46, 0
2, 71293, Note_on_c, 0, 67, 0
2, 71308, Note_on_c, 0, 60, 0
2, 71316, Note_on_c, 0, 64, 0
2, 71436, Note_on_c, 0, 76, 103
2, 71436, Note_on_c, 0, 72, 99
2, 71485, Control_c, 0, 64, 127
2, 71620, Note_on_c, 0, 64, 97
2, 71624, Note_on_c, 0, 60, 86
2, 71635, Note_on_c, 0, 55, 82
2, 71812, Note_on_c, 0, 74, 96
2, 71817, Note_on_c, 0, 70, 90
2, 72000, Note_on_c, 0, 76, 0
2, 72005, Note_on_c, 0, 46, 89
2, 72007, Note_on_c, 0, 55, 0
2, 72007, Note_on_c, 0, 72, 0
2, 72010, Note_on_c, 0, 76, 96
2, 72011, Note_on_c, 0, 72, 96
2, 72011, Note_on_c, 0, 55, 83
2, 72199, Note_on_c, 0, 60, 0
2, 72199, Note_on_c, 0, 64, 0
2, 72205, Note_on_c, 0, 60, 90
2, 72206, Note_on_c, 0, 64, 95
2, 72384, Note_on_c, 0, 72, 0
2, 72394, Note_on_c, 0, 72, 104
2, 72542, Control_c, 0, 64, 0
2, 72549, Note_on_c, 0, 60, 0
2, 72549, Note_on_c, 0, 74, 0
2, 72549, Note_on_c, 0, 55, 0
2, 72549, Note_on_c, 0, 64, 0
2, 72550, Note_on_c, 0, 46, 0
2, 72550, Note_on_c, 0, 70, 0
2, 72550, Note_on_c, 0, 76, 0
2, 72600, Note_on_c, 0, 55, 90
2, 72601, Note_on_c, 0, 52, 86
2, 72602, Note_on_c, 0, 45, 82
2, 72604, Note_on_c, 0, 60, 82
2, 72629, Control_c, 0, 64, 127
2, 72783, Note_on_c, 0, 45, 0
2, 72783, Note_on_c, 0, 52, 0
2, 72790, Note_on_c, 0, 45, 79
2, 72791, Note_on_c, 0, 55, 0
2, 72791, Note_on_c, 0, 60, 0
2, 72794, Note_on_c, 0, 52, 76
2, 72794, Note_on_c, 0, 55, 83
2, 72794, Note_on_c, 0, 60, 79
2, 72797, Note_on_c, 0, 67, 88
2, 72811, Control_c, 0, 64, 0
2, 72840, Note_on_c, 0, 67, 0
2, 72841, Note_on_c, 0, 60, 0
2, 72841, Note_on_c, 0, 55, 0
2, 72843, Note_on_c, 0, 45, 0
2, 72844, Note_on_c, 0, 72, 0
2, 72845, Note_on_c, 0, 52, 0
2, 73193, Note_on_c, 0, 72, 102
2, 73195, Note_on_c, 0, 64, 96
2, 73197, Note_on_c, 0, 60, 90
2, 73197, Note_on_c, 0, 67, 94
2, 73198, Note_on_c, 0, 55, 87
2, 73221, Control_c, 0, 64, 127
2, 73385, Note_on_c, 0, 79, 101
2, 73385, Note_on_c, 0, 76, 102
2, 73559, Note_on_c, 0, 55, 0
2, 73569, Note_on_c, 0, 77, 94
2, 73569, Note_on_c, 0, 55, 88
2, 73570, Note_on_c, 0, 74, 99
2, 73571, Note_on_c, 0, 52, 77
2, 73574, Note_on_c, 0, 45, 84
2, 73751, Note_on_c, 0, 55, 0
2, 73751, Note_on_c, 0, 60, 0
2, 73751, Note_on_c, 0, 64, 0
2, 73751, Note_on_c, 0, 72, 0
2, 73751, Note_on_c, 0, 76, 0
2, 73755, Note_on_c, 0, 76, 98
2, 73755, Note_on_c, 0, 64, 99
2, 73755, Note_on_c, 0, 72, 97
2, 73759, Note_on_c, 0, 60, 89
2, 73761, Note_on_c, 0, 55, 79
2, 73807, Control_c, 0, 64, 0
2, 73810, Note_on_c, 0, 60, 0
2, 73811, Note_on_c, 0, 52, 0
2, 73812, Note_on_c, 0, 74, 0
2, 73812, Note_on_c, 0, 67, 0
2, 73812, Note_on_c, 0, 45, 0
2, 73813, Note_on_c, 0, 55, 0
2, 73814, Note_on_c, 0, 72, 0
2, 73814, Note_on_c, 0, 77, 0
2, 73814, Note_on_c, 0, 79, 0
2, 73814, Note_on_c, 0, 76, 0
2, 73815, Note_on_c, 0, 64, 0
2, 73954, Note_on_c, 0, 76, 105
2, 73957, Note_on_c, 0, 72, 102
2, 74027, Control_c, 0, 64, 127
2, 74147, Note_on_c, 0, 60, 91
2, 74152, Note_on_c, 0, 57, 94
2, 74157, Note_on_c, 0, 50, 79
2, 74334, Note_on_c, 0, 60, 0
2, 74342, Note_on_c, 0, 50, 0
2, 74342, Note_on_c, 0, 57, 0
2, 74344, Note_on_c, 0, 77, 99
2, 74345, Note_on_c, 0, 72, 0
2, 74346, Note_on_c, 0, 60, 83
2, 74347, Note_on_c, 0, 74, 96
2, 74347, Note_on_c, 0, 57, 89
2, 74348, Note_on_c, 0, 50, 85
2, 74404, Control_c, 0, 64, 0
2, 74408, Note_on_c, 0, 76, 0
2, 74408, Note_on_c, 0, 50, 0
2, 74408, Note_on_c, 0, 57, 0
2, 74408, Note_on_c, 0, 74, 0
2, 74408, Note_on_c, 0, 60, 0
2, 74410, Note_on_c, 0, 77, 0
2, 74539, Note_on_c, 0, 77, 102
2, 74543, Note_on_c, 0, 74, 102
2, 74657, Control_c, 0, 64, 127
2, 74739, Note_on_c, 0, 65, 90
2, 74746, Note_on_c, 0, 62, 83
2, 74752, Note_on_c, 0, 57, 83
2, 74794, Control_c, 0, 64, 0
2, 74910, Control_c, 0, 64, 127
2, 75129, Note_on_c, 0, 50, 73
2, 75325, Note_on_c, 0, 62, 0
2, 75333, Note_on_c, 0, 57, 0
2, 75333, Note_on_c, 0, 62, 95
2, 75336, Note_on_c, 0, 60, 76
2, 75337, Note_on_c, 0, 57, 82
2, 75516, Note_on_c, 0, 64, 99
2, 75532, Note_on_c, 0, 77, 0
2, 75642, Control_c, 0, 64, 0
2, 75650, Note_on_c, 0, 62, 0
2, 75650, Note_on_c, 0, 60, 0
2, 75650, Note_on_c, 0, 65, 0
2, 75651, Note_on_c, 0, 50, 0
2, 75651, Note_on_c, 0, 74, 0
2, 75651, Note_on_c, 0, 57, 0
2, 75716, Note_on_c, 0, 65, 98
2, 75720, Note_on_c, 0, 46, 87
2, 75721, Note_on_c, 0, 58, 88
2, 75721, Note_on_c, 0, 53, 79
2, 75722, Note_on_c, 0, 62, 79
2, 75755, Note_on_c, 0, 64, 0
2, 75863, Control_c, 0, 64, 127
2, 76093, Note_on_c, 0, 65, 0
2, 76100, Note_on_c, 0, 65, 86
2, 76105, Note_on_c, 0, 82, 86
2, 76308, Note_on_c, 0, 62, 0
2, 76308, Note_on_c, 0, 65, 0
2, 76311, Note_on_c, 0, 89, 95
2, 76312, Note_on_c, 0, 65, 95
2, 76316, Note_on_c, 0, 58, 0
2, 76319, Note_on_c, 0, 62, 87
2, 76324, Note_on_c, 0, 58, 83
2, 76707, Note_on_c, 0, 46, 0
2, 76716, Note_on_c, 0, 64, 90
2, 76717, Note_on_c, 0, 46, 77
2, 76899, Note_on_c, 0, 62, 0
2, 76911, Note_on_c, 0, 62, 95
2, 76915, Note_on_c, 0, 53, 0
2, 76915, Note_on_c, 0, 58, 0
2, 76919, Note_on_c, 0, 53, 70
2, 76925, Note_on_c, 0, 58, 82
2, 77111, Note_on_c, 0, 60, 99
2, 77194, Note_on_c, 0, 82, 0
2, 77195, Note_on_c, 0, 64, 0
2, 77195, Note_on_c, 0, 65, 0
2, 77196, Note_on_c, 0, 53, 0
2, 77196, Note_on_c, 0, 89, 0
2, 77196, Note_on_c, 0, 46, 0
2, 77196, Control_c, 0, 64, 0
2, 77197, Note_on_c, 0, 58, 0
2, 77214, Note_on_c, 0, 62, 0
2, 77292, Note_on_c, 0, 55, 86
2, 77296, Note_on_c, 0, 45, 81
2, 77298, Note_on_c, 0, 53, 82
2, 77399, Control_c, 0, 64, 127
2, 77504, Note_on_c, 0, 72, 69
2, 77667, Note_on_c, 0, 60, 0
2, 77678, Note_on_c, 0, 60, 95
2, 77681, Note_on_c, 0, 77, 90
2, 77859, Note_on_c, 0, 60, 0
2, 77868, Note_on_c, 0, 84, 96
2, 77870, Note_on_c, 0, 60, 92
2, 77882, Note_on_c, 0, 53, 0
2, 77886, Note_on_c, 0, 57, 86
2, 77888, Note_on_c, 0, 53, 76
2, 78067, Note_on_c, 0, 60, 0
2, 78071, Note_on_c, 0, 60, 97
2, 78090, Note_on_c, 0, 53, 0
2, 78098, Note_on_c, 0, 53, 57
2, 78243, Note_on_c, 0, 45, 0
2, 78253, Note_on_c, 0, 45, 86
2, 78256, Note_on_c, 0, 58, 91
2, 78435, Note_on_c, 0, 53, 0
2, 78443, Note_on_c, 0, 57, 0
2, 78444, Note_on_c, 0, 53, 74
2, 78453, Note_on_c, 0, 57, 93
2, 78650, Note_on_c, 0, 55, 0
2, 78661, Note_on_c, 0, 55, 100
2, 78746, Note_on_c, 0, 84, 0
2, 78747, Note_on_c, 0, 72, 0
2, 78747, Note_on_c, 0, 77, 0
2, 78747, Note_on_c, 0, 53, 0
2, 78748, Note_on_c, 0, 60, 0
2, 78748, Note_on_c, 0, 45, 0
2, 78748, Note_on_c, 0, 58, 0
2, 78750, Note_on_c, 0, 57, 0
2, 78750, Control_c, 0, 64, 0
2, 78825, Note_on_c, 0, 43, 94
2, 79011, Control_c, 0, 64, 127
2, 79041, Note_on_c, 0, 74, 90
2, 79080, Control_c, 0, 64, 0
2, 79165, Control_c, 0, 64, 127
2, 79233, Note_on_c, 0, 50, 75
2, 79233, Note_on_c, 0, 77, 82
2, 79433, Note_on_c, 0, 86, 97
2, 79435, Note_on_c, 0, 58, 83
2, 79438, Note_on_c, 0, 53, 73
2, 79799, Note_on_c, 0, 62, 105
2, 79818, Note_on_c, 0, 50, 0
2, 79818, Note_on_c, 0, 53, 0
2, 79824, Note_on_c, 0, 50, 72
2, 79825, Note_on_c, 0, 53, 63
2, 79987, Note_on_c, 0, 62, 0
2, 79993, Note_on_c, 0, 62, 102
2, 79994, Note_on_c, 0, 53, 0
2, 79994, Note_on_c, 0, 58, 0
2, 79999, Note_on_c, 0, 53, 76
2, 79999, Note_on_c, 0, 58, 83
2, 80171, Note_on_c, 0, 62, 0
2, 80182, Note_on_c, 0, 62, 105
2, 80329, Control_c, 0, 64, 0
2, 80333, Note_on_c, 0, 50, 0
2, 80333, Note_on_c, 0, 43, 0
2, 80335, Note_on_c, 0, 86, 0
2, 80335, Note_on_c, 0, 74, 0
2, 80335, Note_on_c, 0, 58, 0
2, 80335, Note_on_c, 0, 77, 0
2, 80335, Note_on_c, 0, 62, 0
2, 80336, Note_on_c, 0, 53, 0
2, 80340, Note_on_c, 0, 55, 0
2, 80389, Note_on_c, 0, 62, 101
2, 80395, Note_on_c, 0, 55, 98
2, 80396, Note_on_c, 0, 52, 95
2, 80398, Note_on_c, 0, 45, 89
2, 80401, Note_on_c, 0, 57, 86
2, 80440, Control_c, 0, 64, 127
2, 80580, Note_on_c, 0, 76, 82
2, 80747, Note_on_c, 0, 57, 0
2, 80775, Note_on_c, 0, 79, 94
2, 80776, Note_on_c, 0, 61, 100
2, 80970, Note_on_c, 0, 62, 0
2, 80979, Note_on_c, 0, 62, 102
2, 80981, Note_on_c, 0, 59, 98
2, 80981, Note_on_c, 0, 88, 100
2, 81364, Note_on_c, 0, 64, 107
2, 81375, Note_on_c, 0, 57, 99
2, 81377, Note_on_c, 0, 61, 0
2, 81382, Note_on_c, 0, 61, 86
2, 81553, Note_on_c, 0, 45, 0
2, 81559, Note_on_c, 0, 45, 98
2, 81753, Note_on_c, 0, 45, 0
2, 81764, Note_on_c, 0, 45, 109
2, 81764, Note_on_c, 0, 33, 102
2, 81765, Note_on_c, 0, 59, 0
2, 82152, Note_on_c, 0, 33, 0
2, 82152, Note_on_c, 0, 45, 0
2, 82152, Note_on_c, 0, 52, 0
2, 82158, Note_on_c, 0, 45, 102
2, 82159, Note_on_c, 0, 33, 89
2, 82351, Control_c, 0, 64, 0
2, 82353, Note_on_c, 0, 33, 0
2, 82354, Note_on_c, 0, 45, 0
2, 82356, Note_on_c, 0, 76, 0
2, 82360, Note_on_c, 0, 55, 0
2, 82368, Note_on_c, 0, 57, 0
2, 82368, Note_on_c, 0, 62, 0
2, 82368, Note_on_c, 0, 79, 0
2, 82368, Note_on_c, 0, 88, 0
2, 82373, Note_on_c, 0, 69, 106
2, 82377, Note_on_c, 0, 57, 105
2, 82383, Note_on_c, 0, 61, 0
2, 82383, Note_on_c, 0, 64, 0
2, 82779, Note_on_c, 0, 74, 111
2, 82781, Note_on_c, 0, 62, 107
2, 82821, Control_c, 0, 64, 127
2, 83177, Note_on_c, 0, 76, 105
2, 83178, Note_on_c, 0, 45, 106
2, 83180, Note_on_c, 0, 64, 106
2, 83189, Control_c, 0, 64, 0
2, 83255, Note_on_c, 0, 40, 88
2, 83274, Control_c, 0, 64, 127
2, 83334, Note_on_c, 0, 33, 91
2, 83435, Note_on_c, 0, 57, 0
2, 83438, Control_c, 0, 64, 0
2, 83439, Note_on_c, 0, 62, 0
2, 83439, Note_on_c, 0, 74, 0
2, 83439, Note_on_c, 0, 64, 0
2, 83440, Note_on_c, 0, 33, 0
2, 83440, Note_on_c, 0, 69, 0
2, 83441, Note_on_c, 0, 40, 0
2, 83441, Note_on_c, 0, 76, 0
2, 83441, Note_on_c, 0, 45, 0
2, 83598, Note_on_c, 0, 79, 110
2, 83600, Note_on_c, 0, 38, 106
2, 83603, Note_on_c, 0, 26, 102
2, 83603, Note_on_c, 0, 74, 103
2, 83604, Note_on_c, 0, 69, 106
2, 83608, Note_on_c, 0, 67, 103
2, 83642, Control_c, 0, 64, 127
2, 83919, Note_on_c, 0, 38, 0
2, 83924, Note_on_c, 0, 38, 85
2, 83925, Note_on_c, 0, 50, 89
2, 84222, Note_on_c, 0, 62, 99
2, 84222, Note_on_c, 0, 78, 106
2, 84225, Note_on_c, 0, 54, 92
2, 84226, Note_on_c, 0, 69, 0
2, 84226, Note_on_c, 0, 74, 0
2, 84230, Note_on_c, 0, 57, 98
2, 84230, Note_on_c, 0, 66, 102
2, 84231, Note_on_c, 0, 69, 86
2, 84236, Note_on_c, 0, 74, 91
2, 84418, Note_on_c, 0, 66, 0
2, 84418, Note_on_c, 0, 74, 0
2, 84418, Note_on_c, 0, 78, 0
2, 84426, Note_on_c, 0, 78, 106
2, 84426, Note_on_c, 0, 57, 0
2, 84426, Note_on_c, 0, 62, 0
2, 84426, Note_on_c, 0, 69, 0
2, 84428, Note_on_c, 0, 74, 94
2, 84429, Note_on_c, 0, 66, 102
2, 84430, Note_on_c, 0, 69, 93
2, 84430, Note_on_c, 0, 62, 83
2, 84432, Note_on_c, 0, 57, 82
2, 84834, Note_on_c, 0, 45, 106
2, 84836, Note_on_c, 0, 33, 93
2, 85017, Note_on_c, 0, 26, 0
2, 85017, Note_on_c, 0, 38, 0
2, 85021, Note_on_c, 0, 26, 84
2, 85022, Note_on_c, 0, 38, 90
2, 85203, Note_on_c, 0, 33, 0
2, 85203, Note_on_c, 0, 57, 0
2, 85203, Note_on_c, 0, 62, 0
2, 85204, Note_on_c, 0, 50, 0
2, 85204, Note_on_c, 0, 69, 0
2, 85204, Note_on_c, 0, 26, 0
2, 85204, Note_on_c, 0, 45, 0
2, 85204, Note_on_c, 0, 78, 0
2, 85205, Note_on_c, 0, 66, 0
2, 85205, Control_c, 0, 64, 0
2, 85205, Note_on_c, 0, 54, 0
2, 85217, Note_on_c, 0, 67, 0
2, 85217, Note_on_c, 0, 79, 0
2, 85232, Note_on_c, 0, 38, 0
2, 85232, Note_on_c, 0, 74, 0
2, 85234, Note_on_c, 0, 79, 109
2, 85241, Note_on_c, 0, 69, 102
2, 85241, Note_on_c, 0, 74, 99
2, 85242, Note_on_c, 0, 38, 100
2, 85242, Note_on_c, 0, 67, 102
2, 85242, Note_on_c, 0, 26, 97
2, 85309, Note_on_c, 0, 26, 0
2, 85378, Control_c, 0, 64, 127
2, 85532, Note_on_c, 0, 38, 0
2, 85543, Note_on_c, 0, 38, 90
2, 85543, Note_on_c, 0, 50, 91
2, 85831, Note_on_c, 0, 69, 0
2, 85831, Note_on_c, 0, 74, 0
2, 85834, Note_on_c, 0, 78, 106
2, 85834, Note_on_c, 0, 62, 95
2, 85836, Note_on_c, 0, 57, 101
2, 85836, Note_on_c, 0, 66, 104
2, 85836, Note_on_c, 0, 74, 97
2, 85836, Note_on_c, 0, 69, 95
2, 85842, Note_on_c, 0, 54, 89
2, 85852, Control_c, 0, 64, 0
2, 85885, Control_c, 0, 64, 127
2, 86031, Note_on_c, 0, 62, 0
2, 86031, Note_on_c, 0, 66, 0
2, 86031, Note_on_c, 0, 69, 0
2, 86031, Note_on_c, 0, 74, 0
2, 86031, Note_on_c, 0, 78, 0
2, 86036, Note_on_c, 0, 78, 108
2, 86041, Note_on_c, 0, 69, 97
2, 86042, Note_on_c, 0, 66, 105
2, 86042, Note_on_c, 0, 74, 91
2, 86042, Note_on_c, 0, 62, 81
2, 86215, Note_on_c, 0, 38, 0
2, 86224, Note_on_c, 0, 38, 96
2, 86226, Note_on_c, 0, 26, 83
2, 86231, Note_on_c, 0, 26, 0
2, 86400, Note_on_c, 0, 50, 0
2, 86407, Note_on_c, 0, 38, 0
2, 86411, Note_on_c, 0, 45, 98
2, 86411, Note_on_c, 0, 50, 97
2, 86412, Note_on_c, 0, 57, 0
2, 86412, Note_on_c, 0, 76, 105
2, 86414, Note_on_c, 0, 38, 88
2, 86415, Note_on_c, 0, 64, 104
2, 86599, Note_on_c, 0, 62, 0
2, 86599, Note_on_c, 0, 74, 0
2, 86606, Note_on_c, 0, 74, 110
2, 86607, Note_on_c, 0, 62, 100
2, 86623, Note_on_c, 0, 50, 0
2, 86741, Note_on_c, 0, 79, 0
2, 86741, Note_on_c, 0, 74, 0
2, 86741, Note_on_c, 0, 54, 0
2, 86741, Note_on_c, 0, 76, 0
2, 86742, Note_on_c, 0, 78, 0
2, 86742, Note_on_c, 0, 38, 0
2, 86742, Note_on_c, 0, 64, 0
2, 86742, Control_c, 0, 64, 0
2, 86753, Note_on_c, 0, 62, 0
2, 86753, Note_on_c, 0, 67, 0
2, 86753, Note_on_c, 0, 69, 0
2, 86760, Note_on_c, 0, 45, 0
2, 86760, Note_on_c, 0, 66, 0
2, 86810, Note_on_c, 0, 49, 104
2, 86812, Note_on_c, 0, 78, 109
2, 86814, Note_on_c, 0, 69, 95
2, 86815, Note_on_c, 0, 37, 98
2, 86815, Note_on_c, 0, 45, 91
2, 86819, Note_on_c, 0, 66, 101
2, 86826, Note_on_c, 0, 74, 73
2, 86929, Control_c, 0, 64, 127
2, 87121, Note_on_c, 0, 37, 0
2, 87126, Note_on_c, 0, 37, 90
2, 87436, Note_on_c, 0, 69, 0
2, 87437, Note_on_c, 0, 76, 106
2, 87440, Note_on_c, 0, 57, 103
2, 87441, Note_on_c, 0, 69, 95
2, 87441, Note_on_c, 0, 52, 91
2, 87441, Note_on_c, 0, 64, 101
2, 87442, Note_on_c, 0, 73, 98
2, 87636, Note_on_c, 0, 64, 0
2, 87636, Note_on_c, 0, 73, 0
2, 87636, Note_on_c, 0, 76, 0
2, 87642, Note_on_c, 0, 76, 108
2, 87644, Note_on_c, 0, 69, 0
2, 87645, Note_on_c, 0, 64, 99
2, 87647, Note_on_c, 0, 73, 98
2, 87648, Note_on_c, 0, 69, 90
2, 87820, Note_on_c, 0, 49, 0
2, 87831, Note_on_c, 0, 49, 87
2, 88012, Note_on_c, 0, 57, 0
2, 88020, Note_on_c, 0, 52, 0
2, 88021, Note_on_c, 0, 57, 100
2, 88024, Note_on_c, 0, 52, 87
2, 88204, Note_on_c, 0, 74, 0
2, 88204, Note_on_c, 0, 78, 0
2, 88212, Note_on_c, 0, 73, 0
2, 88216, Note_on_c, 0, 78, 106
2, 88219, Note_on_c, 0, 73, 103
2, 88223, Note_on_c, 0, 70, 99
2, 88372, Control_c, 0, 64, 0
2, 88375, Note_on_c, 0, 64, 0
2, 88375, Note_on_c, 0, 45, 0
2, 88375, Note_on_c, 0, 69, 0
2, 88375, Note_on_c, 0, 37, 0
2, 88376, Note_on_c, 0, 52, 0
2, 88376, Note_on_c, 0, 76, 0
2, 88376, Note_on_c, 0, 57, 0
2, 88396, Note_on_c, 0, 49, 0
2, 88418, Note_on_c, 0, 42, 104
2, 88420, Note_on_c, 0, 30, 99
2, 88465, Note_on_c, 0, 66, 0
2, 88542, Control_c, 0, 64, 127
2, 88617, Note_on_c, 0, 79, 98
2, 88788, Note_on_c, 0, 78, 0
2, 88793, Note_on_c, 0, 78, 103
2, 88803, Note_on_c, 0, 70, 0
2, 88803, Note_on_c, 0, 73, 0
2, 88808, Note_on_c, 0, 73, 93
2, 88809, Note_on_c, 0, 70, 88
2, 88996, Note_on_c, 0, 64, 103
2, 89002, Note_on_c, 0, 61, 91
2, 89006, Note_on_c, 0, 76, 100
2, 89007, Note_on_c, 0, 58, 94
2, 89195, Note_on_c, 0, 70, 0
2, 89195, Note_on_c, 0, 73, 0
2, 89195, Note_on_c, 0, 76, 0
2, 89199, Note_on_c, 0, 73, 99
2, 89201, Note_on_c, 0, 76, 101
2, 89203, Note_on_c, 0, 70, 95
2, 89395, Note_on_c, 0, 78, 0
2, 89401, Note_on_c, 0, 78, 105
2, 89407, Note_on_c, 0, 54, 100
2, 89587, Note_on_c, 0, 64, 0
2, 89594, Note_on_c, 0, 58, 0
2, 89594, Note_on_c, 0, 61, 0
2, 89597, Note_on_c, 0, 64, 104
2, 89598, Note_on_c, 0, 61, 96
2, 89603, Note_on_c, 0, 58, 96
2, 89779, Note_on_c, 0, 76, 0
2, 89785, Note_on_c, 0, 76, 107
2, 89956, Control_c, 0, 64, 0
2, 89960, Note_on_c, 0, 64, 0
2, 89960, Note_on_c, 0, 58, 0
2, 89961, Note_on_c, 0, 76, 0
2, 89961, Note_on_c, 0, 42, 0
2, 89962, Note_on_c, 0, 73, 0
2, 89962, Note_on_c, 0, 61, 0
2, 89962, Note_on_c, 0, 70, 0
2, 89962, Note_on_c, 0, 79, 0
2, 89964, Note_on_c, 0, 78, 0
2, 89965, Note_on_c, 0, 54, 0
2, 89971, Note_on_c, 0, 30, 0
2, 89998, Note_on_c, 0, 43, 106
2, 89999, Note_on_c, 0, 31, 101
2, 89999, Note_on_c, 0, 74, 108
2, 89999, Note_on_c, 0, 69, 99
2, 90001, Note_on_c, 0, 62, 102
2, 90178, Control_c, 0, 64, 127
2, 90293, Note_on_c, 0, 43, 0
2, 90298, Note_on_c, 0, 43, 96
2, 90608, Note_on_c, 0, 62, 0
2, 90612, Note_on_c, 0, 59, 93
2, 90612, Note_on_c, 0, 62, 93
2, 90612, Note_on_c, 0, 57, 90
2, 90662, Note_on_c, 0, 31, 0
2, 90984, Note_on_c, 0, 43, 0
2, 90989, Note_on_c, 0, 43, 80
2, 90990, Note_on_c, 0, 71, 97
2, 91184, Note_on_c, 0, 62, 0
2, 91190, Note_on_c, 0, 62, 96
2, 91192, Note_on_c, 0, 57, 0
2, 91192, Note_on_c, 0, 59, 0
2, 91192, Note_on_c, 0, 71, 0
2, 91196, Note_on_c, 0, 71, 98
2, 91201, Note_on_c, 0, 59, 81
2, 91202, Note_on_c, 0, 57, 81
2, 91386, Note_on_c, 0, 73, 103
2, 91537, Control_c, 0, 64, 0
2, 91549, Note_on_c, 0, 59, 0
2, 91549, Note_on_c, 0, 71, 0
2, 91550, Note_on_c, 0, 73, 0
2, 91551, Note_on_c, 0, 57, 0
2, 91551, Note_on_c, 0, 43, 0
2, 91568, Note_on_c, 0, 69, 0
2, 91576, Note_on_c, 0, 74, 0
2, 91577, Note_on_c, 0, 42, 98
2, 91584, Note_on_c, 0, 62, 0
2, 91587, Note_on_c, 0, 54, 100
2, 91587, Note_on_c, 0, 74, 106
2, 91590, Note_on_c, 0, 62, 100
2, 91590, Note_on_c, 0, 69, 98
2, 91592, Note_on_c, 0, 50, 100
2, 91593, Note_on_c, 0, 66, 98
2, 91729, Control_c, 0, 64, 127
2, 91883, Note_on_c, 0, 42, 0
2, 91893, Note_on_c, 0, 42, 95
2, 92152, Note_on_c, 0, 69, 0
2, 92163, Note_on_c, 0, 69, 103
2, 92175, Note_on_c, 0, 42, 0
2, 92175, Note_on_c, 0, 62, 0
2, 92179, Note_on_c, 0, 62, 95
2, 92183, Note_on_c, 0, 54, 0
2, 92186, Note_on_c, 0, 42, 85
2, 92186, Note_on_c, 0, 54, 94
2, 92187, Note_on_c, 0, 57, 99
2, 92193, Control_c, 0, 64, 0
2, 92305, Control_c, 0, 64, 127
2, 92367, Note_on_c, 0, 69, 0
2, 92371, Note_on_c, 0, 69, 102
2, 92544, Note_on_c, 0, 42, 0
2, 92555, Note_on_c, 0, 42, 96
2, 92759, Note_on_c, 0, 62, 0
2, 92766, Note_on_c, 0, 62, 99
2, 92766, Note_on_c, 0, 42, 0
2, 92766, Note_on_c, 0, 54, 0
2, 92766, Note_on_c, 0, 57, 0
2, 92771, Note_on_c, 0, 42, 82
2, 92771, Note_on_c, 0, 57, 100
2, 92771, Note_on_c, 0, 54, 96
2, 92928, Note_on_c, 0, 69, 0
2, 92939, Note_on_c, 0, 69, 99
2, 93096, Note_on_c, 0, 66, 0
2, 93097, Note_on_c, 0, 74, 0
2, 93098, Note_on_c, 0, 42, 0
2, 93098, Note_on_c, 0, 57, 0
2, 93099, Note_on_c, 0, 54, 0
2, 93099, Note_on_c, 0, 50, 0
2, 93100, Note_on_c, 0, 62, 0
2, 93102, Control_c, 0, 64, 0
2, 93127, Note_on_c, 0, 69, 0
2, 93139, Note_on_c, 0, 47, 98
2, 93140, Note_on_c, 0, 55, 105
2, 93142, Note_on_c, 0, 79, 109
2, 93146, Note_on_c, 0, 71, 99
2, 93148, Note_on_c, 0, 67, 101
2, 93150, Note_on_c, 0, 74, 102
2, 93204, Control_c, 0, 64, 127
2, 93541, Note_on_c, 0, 78, 104
2, 93550, Note_on_c, 0, 52, 90
2, 93742, Note_on_c, 0, 67, 0
2, 93742, Note_on_c, 0, 71, 0
2, 93745, Note_on_c, 0, 76, 110
2, 93749, Note_on_c, 0, 55, 0
2, 93750, Note_on_c, 0, 71, 98
2, 93752, Note_on_c, 0, 67, 99
2, 93753, Note_on_c, 0, 59, 98
2, 93754, Note_on_c, 0, 62, 98
2, 93758, Note_on_c, 0, 55, 93
2, 94133, Note_on_c, 0, 71, 0
2, 94133, Note_on_c, 0, 74, 0
2, 94139, Note_on_c, 0, 74, 107
2, 94141, Note_on_c, 0, 52, 0
2, 94141, Note_on_c, 0, 55, 0
2, 94141, Note_on_c, 0, 59, 0
2, 94141, Note_on_c, 0, 67, 0
2, 94144, Note_on_c, 0, 71, 97
2, 94145, Note_on_c, 0, 67, 98
2, 94145, Note_on_c, 0, 52, 90
2, 94146, Note_on_c, 0, 59, 84
2, 94148, Note_on_c, 0, 55, 88
2, 94318, Note_on_c, 0, 62, 0
2, 94328, Note_on_c, 0, 62, 93
2, 94333, Note_on_c, 0, 55, 0
2, 94333, Note_on_c, 0, 59, 0
2, 94337, Note_on_c, 0, 59, 85
2, 94343, Note_on_c, 0, 55, 87
2, 94537, Note_on_c, 0, 52, 0
2, 94537, Note_on_c, 0, 59, 0
2, 94538, Control_c, 0, 64, 0
2, 94538, Note_on_c, 0, 55, 0
2, 94538, Note_on_c, 0, 76, 0
2, 94540, Note_on_c, 0, 79, 0
2, 94548, Note_on_c, 0, 62, 0
2, 94548, Note_on_c, 0, 67, 0
2, 94548, Note_on_c, 0, 71, 0
2, 94548, Note_on_c, 0, 74, 0
2, 94548, Note_on_c, 0, 78, 0
2, 94553, Note_on_c, 0, 74, 105
2, 94553, Note_on_c, 0, 45, 107
2, 94556, Note_on_c, 0, 47, 0
2, 94556, Note_on_c, 0, 71, 102
2, 94556, Note_on_c, 0, 33, 98
2, 94556, Note_on_c, 0, 62, 105
2, 94558, Note_on_c, 0, 67, 95
2, 94609, Control_c, 0, 64, 127
2, 94921, Note_on_c, 0, 57, 102
2, 94924, Note_on_c, 0, 67, 0
2, 94929, Note_on_c, 0, 73, 108
2, 94933, Note_on_c, 0, 67, 88
2, 94936, Note_on_c, 0, 61, 96
2, 95118, Note_on_c, 0, 52, 92
2, 95308, Note_on_c, 0, 33, 0
2, 95308, Note_on_c, 0, 45, 0
2, 95308, Note_on_c, 0, 74, 0
2, 95314, Note_on_c, 0, 45, 102
2, 95316, Note_on_c, 0, 62, 0
2, 95316, Note_on_c, 0, 67, 0
2, 95316, Note_on_c, 0, 71, 0
2, 95319, Note_on_c, 0, 74, 106
2, 95320, Note_on_c, 0, 33, 96
2, 95320, Note_on_c, 0, 62, 102
2, 95321, Note_on_c, 0, 71, 94
2, 95323, Note_on_c, 0, 67, 96
2, 95516, Note_on_c, 0, 40, 97
2, 95708, Note_on_c, 0, 33, 0
2, 95712, Note_on_c, 0, 33, 93
2, 95717, Note_on_c, 0, 76, 106
2, 95719, Note_on_c, 0, 64, 106
2, 95723, Note_on_c, 0, 67, 0
2, 95732, Note_on_c, 0, 67, 70
2, 95907, Note_on_c, 0, 45, 0
2, 95917, Note_on_c, 0, 45, 101
2, 96084, Note_on_c, 0, 40, 0
2, 96093, Note_on_c, 0, 40, 91
2, 96230, Control_c, 0, 64, 0
2, 96231, Note_on_c, 0, 33, 0
2, 96232, Note_on_c, 0, 61, 0
2, 96232, Note_on_c, 0, 67, 0
2, 96232, Note_on_c, 0, 62, 0
2, 96232, Note_on_c, 0, 71, 0
2, 96232, Note_on_c, 0, 57, 0
2, 96233, Note_on_c, 0, 45, 0
2, 96233, Note_on_c, 0, 52, 0
2, 96233, Note_on_c, 0, 64, 0
2, 96233, Note_on_c, 0, 76, 0
2, 96233, Note_on_c, 0, 40, 0
2, 96233, Note_on_c, 0, 73, 0
2, 96245, Note_on_c, 0, 74, 0
2, 96294, Note_on_c, 0, 67, 105
2, 96301, Note_on_c, 0, 69, 92
2, 96302, Note_on_c, 0, 57, 99
2, 96303, Note_on_c, 0, 62, 91
2, 96304, Note_on_c, 0, 38, 102
2, 96308, Note_on_c, 0, 26, 102
2, 96337, Control_c, 0, 64, 127
2, 96488, Note_on_c, 0, 74, 90
2, 96679, Note_on_c, 0, 50, 88
2, 96705, Note_on_c, 0, 81, 96
2, 96883, Note_on_c, 0, 57, 0
2, 96883, Note_on_c, 0, 62, 0
2, 96889, Note_on_c, 0, 66, 104
2, 96891, Note_on_c, 0, 62, 95
2, 96893, Note_on_c, 0, 57, 99
2, 96896, Note_on_c, 0, 86, 105
2, 97082, Note_on_c, 0, 57, 0
2, 97082, Note_on_c, 0, 62, 0
2, 97082, Note_on_c, 0, 66, 0
2, 97082, Note_on_c, 0, 69, 0
2, 97088, Note_on_c, 0, 66, 100
2, 97089, Note_on_c, 0, 62, 93
2, 97090, Note_on_c, 0, 74, 0
2, 97093, Note_on_c, 0, 57, 89
2, 97093, Note_on_c, 0, 69, 77
2, 97094, Note_on_c, 0, 74, 92
2, 97274, Note_on_c, 0, 81, 0
2, 97283, Note_on_c, 0, 81, 99
2, 97459, Note_on_c, 0, 57, 0
2, 97466, Note_on_c, 0, 86, 0
2, 97470, Note_on_c, 0, 57, 94
2, 97470, Note_on_c, 0, 45, 99
2, 97474, Note_on_c, 0, 86, 98
2, 97658, Note_on_c, 0, 74, 0
2, 97669, Note_on_c, 0, 74, 92
2, 97804, Note_on_c, 0, 26, 0
2, 97806, Control_c, 0, 64, 0
2, 97808, Note_on_c, 0, 81, 0
2, 97808, Note_on_c, 0, 45, 0
2, 97808, Note_on_c, 0, 69, 0
2, 97808, Note_on_c, 0, 86, 0
2, 97808, Note_on_c, 0, 38, 0
2, 97809, Note_on_c, 0, 62, 0
2, 97809, Note_on_c, 0, 74, 0
2, 97809, Note_on_c, 0, 66, 0
2, 97827, Note_on_c, 0, 50, 0
2, 97835, Note_on_c, 0, 57, 0
2, 97835, Note_on_c, 0, 67, 0
2, 97855, Note_on_c, 0, 67, 100
2, 97859, Note_on_c, 0, 57, 106
2, 97862, Note_on_c, 0, 50, 99
2, 97862, Note_on_c, 0, 62, 96
2, 97865, Note_on_c, 0, 45, 99
2, 97867, Note_on_c, 0, 38, 101
2, 97881, Control_c, 0, 64, 127
2, 98070, Note_on_c, 0, 74, 88
2, 98165, Note_on_c, 0, 50, 0
2, 98170, Note_on_c, 0, 50, 89
2, 98284, Note_on_c, 0, 81, 98
2, 98457, Note_on_c, 0, 62, 0
2, 98465, Note_on_c, 0, 57, 0
2, 98467, Note_on_c, 0, 69, 92
2, 98468, Note_on_c, 0, 66, 102
2, 98468, Note_on_c, 0, 62, 98
2, 98473, Note_on_c, 0, 86, 104
2, 98474, Note_on_c, 0, 57, 98
2, 98649, Note_on_c, 0, 66, 0
2, 98649, Note_on_c, 0, 74, 0
2, 98657, Note_on_c, 0, 66, 98
2, 98657, Note_on_c, 0, 57, 0
2, 98657, Note_on_c, 0, 62, 0
2, 98659, Note_on_c, 0, 74, 93
2, 98661, Note_on_c, 0, 62, 87
2, 98664, Note_on_c, 0, 57, 84
2, 98841, Note_on_c, 0, 50, 0
2, 98849, Note_on_c, 0, 81, 0
2, 98851, Note_on_c, 0, 50, 89
2, 98854, Note_on_c, 0, 81, 95
2, 99048, Note_on_c, 0, 57, 0
2, 99048, Note_on_c, 0, 74, 0
2, 99048, Note_on_c, 0, 86, 0
2, 99053, Note_on_c, 0, 74, 106
2, 99053, Note_on_c, 0, 86, 102
2, 99055, Note_on_c, 0, 64, 101
2, 99056, Note_on_c, 0, 57, 100
2, 99062, Note_on_c, 0, 54, 92
2, 99240, Note_on_c, 0, 62, 0
2, 99246, Note_on_c, 0, 62, 102
2, 99382, Note_on_c, 0, 45, 0
2, 99383, Note_on_c, 0, 81, 0
2, 99383, Note_on_c, 0, 86, 0
2, 99383, Note_on_c, 0, 38, 0
2, 99384, Note_on_c, 0, 50, 0
2, 99384, Note_on_c, 0, 57, 0
2, 99384, Note_on_c, 0, 62, 0
2, 99384, Note_on_c, 0, 54, 0
2, 99385, Note_on_c, 0, 64, 0
2, 99385, Note_on_c, 0, 66, 0
2, 99385, Note_on_c, 0, 74, 0
2, 99387, Control_c, 0, 64, 0
2, 99394, Note_on_c, 0, 69, 0
2, 99402, Note_on_c, 0, 67, 0
2, 99451, Note_on_c, 0, 37, 105
2, 99451, Note_on_c, 0, 49, 107
2, 99454, Note_on_c, 0, 66, 103
2, 99454, Note_on_c, 0, 57, 101
2, 99502, Control_c, 0, 64, 127
2, 99654, Note_on_c, 0, 76, 93
2, 99763, Note_on_c, 0, 49, 0
2, 99770, Note_on_c, 0, 49, 94
2, 99858, Note_on_c, 0, 81, 97
2, 100055, Note_on_c, 0, 57, 0
2, 100057, Note_on_c, 0, 64, 103
2, 100058, Note_on_c, 0, 88, 108
2, 100058, Note_on_c, 0, 61, 99
2, 100060, Note_on_c, 0, 57, 95
2, 100254, Note_on_c, 0, 61, 0
2, 100254, Note_on_c, 0, 64, 0
2, 100254, Note_on_c, 0, 76, 0
2, 100259, Note_on_c, 0, 64, 97
2, 100262, Note_on_c, 0, 57, 0
2, 100263, Note_on_c, 0, 76, 98
2, 100265, Note_on_c, 0, 61, 92
2, 100266, Note_on_c, 0, 57, 85
2, 100439, Note_on_c, 0, 49, 0
2, 100439, Note_on_c, 0, 81, 0
2, 100443, Note_on_c, 0, 49, 89
2, 100449, Note_on_c, 0, 81, 100
2, 100608, Note_on_c, 0, 61, 0
2, 100619, Note_on_c, 0, 61, 90
2, 100623, Note_on_c, 0, 57, 0
2, 100631, Note_on_c, 0, 88, 0
2, 100634, Note_on_c, 0, 57, 88
2, 100638, Note_on_c, 0, 76, 0
2, 100641, Note_on_c, 0, 88, 102
2, 100643, Note_on_c, 0, 76, 100
2, 100787, Note_on_c, 0, 37, 0
2, 100788, Note_on_c, 0, 66, 0
2, 100789, Note_on_c, 0, 49, 0
2, 100789, Note_on_c, 0, 81, 0
2, 100789, Note_on_c, 0, 64, 0
2, 100790, Note_on_c, 0, 76, 0
2, 100792, Note_on_c, 0, 88, 0
2, 100795, Control_c, 0, 64, 0
2, 100815, Note_on_c, 0, 57, 0
2, 100815, Note_on_c, 0, 61, 0
2, 100843, Note_on_c, 0, 66, 100
2, 100843, Note_on_c, 0, 61, 100
2, 100844, Note_on_c, 0, 54, 100
2, 100846, Note_on_c, 0, 42, 98
2, 100847, Note_on_c, 0, 49, 96
2, 100848, Note_on_c, 0, 59, 101
2, 101099, Control_c, 0, 64, 127
2, 101242, Note_on_c, 0, 67, 105
2, 101246, Note_on_c, 0, 76, 96
2, 101429, Note_on_c, 0, 66, 0
2, 101433, Note_on_c, 0, 66, 108
2, 101435, Note_on_c, 0, 78, 100
2, 101629, Note_on_c, 0, 61, 0
2, 101632, Control_c, 0, 64, 0
2, 101633, Note_on_c, 0, 88, 105
2, 101633, Note_on_c, 0, 64, 105
2, 101637, Note_on_c, 0, 54, 0
2, 101637, Note_on_c, 0, 61, 92
2, 101638, Note_on_c, 0, 58, 96
2, 101641, Note_on_c, 0, 54, 83
2, 101667, Note_on_c, 0, 59, 0
2, 101721, Control_c, 0, 64, 127
2, 101813, Note_on_c, 0, 64, 0
2, 101821, Note_on_c, 0, 76, 0
2, 101822, Note_on_c, 0, 64, 97
2, 101826, Note_on_c, 0, 76, 97
2, 102005, Note_on_c, 0, 66, 0
2, 102005, Note_on_c, 0, 78, 0
2, 102014, Note_on_c, 0, 66, 107
2, 102016, Note_on_c, 0, 78, 99
2, 102197, Note_on_c, 0, 61, 0
2, 102197, Note_on_c, 0, 88, 0
2, 102205, Note_on_c, 0, 58, 0
2, 102206, Note_on_c, 0, 88, 103
2, 102206, Note_on_c, 0, 61, 94
2, 102210, Note_on_c, 0, 58, 94
2, 102213, Note_on_c, 0, 54, 0
2, 102217, Note_on_c, 0, 54, 81
2, 102389, Note_on_c, 0, 64, 0
2, 102394, Note_on_c, 0, 64, 96
2, 102548, Note_on_c, 0, 58, 0
2, 102549, Note_on_c, 0, 42, 0
2, 102549, Control_c, 0, 64, 0
2, 102549, Note_on_c, 0, 88, 0
2, 102550, Note_on_c, 0, 67, 0
2, 102550, Note_on_c, 0, 54, 0
2, 102551, Note_on_c, 0, 66, 0
2, 102551, Note_on_c, 0, 78, 0
2, 102551, Note_on_c, 0, 64, 0
2, 102552, Note_on_c, 0, 61, 0
2, 102552, Note_on_c, 0, 76, 0
2, 102558, Note_on_c, 0, 49, 0
2, 102597, Note_on_c, 0, 55, 105
2, 102600, Note_on_c, 0, 50, 99
2, 102600, Note_on_c, 0, 43, 103
2, 102600, Note_on_c, 0, 62, 102
2, 102643, Control_c, 0, 64, 127
2, 102801, Note_on_c, 0, 74, 89
2, 102904, Note_on_c, 0, 55, 0
2, 102910, Note_on_c, 0, 55, 87
2, 103014, Note_on_c, 0, 81, 96
2, 103196, Note_on_c, 0, 55, 0
2, 103205, Note_on_c, 0, 55, 93
2, 103206, Note_on_c, 0, 57, 93
2, 103207, Note_on_c, 0, 86, 97
2, 103395, Note_on_c, 0, 74, 0
2, 103403, Note_on_c, 0, 74, 88
2, 103580, Note_on_c, 0, 81, 0
2, 103583, Note_on_c, 0, 59, 102
2, 103584, Note_on_c, 0, 81, 95
2, 103772, Note_on_c, 0, 55, 0
2, 103772, Note_on_c, 0, 59, 0
2, 103772, Note_on_c, 0, 74, 0
2, 103772, Note_on_c, 0, 86, 0
2, 103779, Note_on_c, 0, 59, 100
2, 103781, Note_on_c, 0, 86, 102
2, 103782, Control_c, 0, 64, 0
2, 103783, Note_on_c, 0, 55, 98
2, 103783, Note_on_c, 0, 74, 99
2, 103818, Control_c, 0, 64, 127
2, 103969, Note_on_c, 0, 61, 103
2, 104097, Note_on_c, 0, 62, 0
2, 104098, Note_on_c, 0, 50, 0
2, 104098, Note_on_c, 0, 43, 0
2, 104098, Note_on_c, 0, 81, 0
2, 104098, Note_on_c, 0, 57, 0
2, 104098, Note_on_c, 0, 86, 0
2, 104099, Note_on_c, 0, 74, 0
2, 104099, Note_on_c, 0, 59, 0
2, 104099, Note_on_c, 0, 61, 0
2, 104108, Control_c, 0, 64, 0
2, 104117, Note_on_c, 0, 55, 0
2, 104167, Note_on_c, 0, 62, 104
2, 104167, Note_on_c, 0, 42, 103
2, 104167, Note_on_c, 0, 54, 100
2, 104168, Note_on_c, 0, 50, 97
2, 104240, Control_c, 0, 64, 127
2, 104382, Note_on_c, 0, 74, 75
2, 104432, Note_on_c, 0, 54, 0
2, 104443, Note_on_c, 0, 54, 81
2, 104560, Note_on_c, 0, 64, 105
2, 104564, Note_on_c, 0, 81, 96
2, 104762, Note_on_c, 0, 62, 0
2, 104770, Note_on_c, 0, 54, 0
2, 104770, Note_on_c, 0, 86, 101
2, 104772, Note_on_c, 0, 57, 103
2, 104773, Note_on_c, 0, 62, 101
2, 104774, Note_on_c, 0, 54, 98
2, 104947, Note_on_c, 0, 74, 0
2, 104951, Note_on_c, 0, 74, 87
2, 105146, Note_on_c, 0, 81, 0
2, 105154, Note_on_c, 0, 57, 0
2, 105156, Note_on_c, 0, 81, 91
2, 105159, Note_on_c, 0, 57, 99
2, 105338, Note_on_c, 0, 54, 0
2, 105338, Note_on_c, 0, 62, 0
2, 105338, Note_on_c, 0, 86, 0
2, 105344, Note_on_c, 0, 86, 105
2, 105347, Note_on_c, 0, 62, 101
2, 105348, Note_on_c, 0, 54, 100
2, 105532, Note_on_c, 0, 66, 106
2, 105712, Note_on_c, 0, 81, 0
2, 105714, Note_on_c, 0, 86, 0
2, 105715, Note_on_c, 0, 57, 0
2, 105717, Note_on_c, 0, 50, 0
2, 105717, Note_on_c, 0, 64, 0
2, 105717, Note_on_c, 0, 74, 0
2, 105717, Note_on_c, 0, 42, 0
2, 105718, Note_on_c, 0, 66, 0
2, 105719, Note_on_c, 0, 54, 0
2, 105727, Note_on_c, 0, 47, 99
2, 105729, Note_on_c, 0, 40, 94
2, 105730, Note_on_c, 0, 62, 0
2, 105732, Note_on_c, 0, 55, 104
2, 105733, Note_on_c, 0, 59, 102
2, 105734, Note_on_c, 0, 62, 97
2, 105735, Note_on_c, 0, 67, 98
2, 105742, Control_c, 0, 64, 0
2, 105799, Control_c, 0, 64, 127
2, 105914, Note_on_c, 0, 55, 0
2, 105923, Note_on_c, 0, 79, 94
2, 105923, Note_on_c, 0, 55, 85
2, 106119, Note_on_c, 0, 66, 103
2, 106126, Note_on_c, 0, 83, 99
2, 106176, Note_on_c, 0, 40, 0
2, 106321, Note_on_c, 0, 59, 0
2, 106321, Note_on_c, 0, 83, 0
2, 106325, Note_on_c, 0, 91, 111
2, 106327, Note_on_c, 0, 59, 99
2, 106329, Note_on_c, 0, 55, 0
2, 106330, Note_on_c, 0, 64, 103
2, 106333, Note_on_c, 0, 83, 103
2, 106334, Note_on_c, 0, 55, 98
2, 106334, Note_on_c, 0, 52, 95
2, 106334, Note_on_c, 0, 86, 100
2, 106338, Control_c, 0, 64, 0
2, 106360, Control_c, 0, 64, 127
2, 106506, Note_on_c, 0, 79, 0
2, 106516, Note_on_c, 0, 79, 87
2, 106698, Note_on_c, 0, 62, 0
2, 106698, Note_on_c, 0, 86, 0
2, 106703, Note_on_c, 0, 90, 108
2, 106704, Note_on_c, 0, 62, 105
2, 106707, Note_on_c, 0, 81, 99
2, 106708, Note_on_c, 0, 86, 104
2, 106881, Note_on_c, 0, 78, 91
2, 107097, Note_on_c, 0, 62, 0
2, 107103, Note_on_c, 0, 62, 102
2, 107105, Note_on_c, 0, 79, 0
2, 107105, Note_on_c, 0, 83, 0
2, 107105, Note_on_c, 0, 86, 0
2, 107109, Note_on_c, 0, 86, 108
2, 107116, Note_on_c, 0, 83, 99
2, 107116, Note_on_c, 0, 79, 98
2, 107116, Note_on_c, 0, 74, 108
2, 107272, Control_c, 0, 64, 0
2, 107304, Note_on_c, 0, 52, 0
2, 107304, Note_on_c, 0, 55, 0
2, 107309, Note_on_c, 0, 47, 0
2, 107310, Note_on_c, 0, 78, 0
2, 107311, Note_on_c, 0, 79, 0
2, 107312, Note_on_c, 0, 62, 0
2, 107312, Note_on_c, 0, 90, 0
2, 107312, Note_on_c, 0, 91, 0
2, 107314, Note_on_c, 0, 74, 0
2, 107314, Note_on_c, 0, 83, 0
2, 107315, Note_on_c, 0, 64, 0
2, 107315, Note_on_c, 0, 52, 100
2, 107315, Note_on_c, 0, 86, 0
2, 107316, Note_on_c, 0, 55, 104
2, 107317, Note_on_c, 0, 45, 101
2, 107328, Note_on_c, 0, 81, 0
2, 107335, Note_on_c, 0, 59, 0
2, 107335, Note_on_c, 0, 66, 0
2, 107335, Control_c, 0, 64, 127
2, 107570, Control_c, 0, 64, 0
2, 107576, Note_on_c, 0, 45, 0
2, 107578, Note_on_c, 0, 52, 0
2, 107589, Note_on_c, 0, 55, 0
2, 107596, Note_on_c, 0, 67, 0
2, 107715, Note_on_c, 0, 62, 105
2, 107758, Control_c, 0, 64, 127
2, 107938, Note_on_c, 0, 61, 103
2, 107978, Note_on_c, 0, 62, 0
2, 107981, Control_c, 0, 64, 0
2, 108334, Note_on_c, 0, 45, 90
2, 108433, Control_c, 0, 64, 127
2, 108530, Note_on_c, 0, 55, 88
2, 108531, Note_on_c, 0, 62, 100
2, 108531, Note_on_c, 0, 52, 84
2, 108725, Note_on_c, 0, 62, 0
2, 108734, Note_on_c, 0, 62, 100
2, 108935, Note_on_c, 0, 43, 98
2, 108943, Control_c, 0, 64, 0
2, 108952, Note_on_c, 0, 45, 0
2, 108952, Note_on_c, 0, 52, 0
2, 108953, Note_on_c, 0, 55, 0
2, 108954, Note_on_c, 0, 61, 0
2, 109186, Control_c, 0, 64, 127
2, 109246, Note_on_c, 0, 50, 72
2, 109554, Note_on_c, 0, 74, 89
2, 109573, Note_on_c, 0, 59, 72
2, 109591, Note_on_c, 0, 67, 63
2, 109594, Note_on_c, 0, 71, 59
2, 109923, Note_on_c, 0, 50, 0
2, 109934, Note_on_c, 0, 50, 63
2, 110127, Note_on_c, 0, 55, 72
2, 110300, Note_on_c, 0, 59, 0
2, 110311, Note_on_c, 0, 59, 73
2, 110525, Note_on_c, 0, 61, 90
2, 110830, Note_on_c, 0, 55, 0
2, 110836, Note_on_c, 0, 55, 66
2, 111114, Note_on_c, 0, 59, 0
2, 111114, Note_on_c, 0, 62, 0
2, 111120, Note_on_c, 0, 59, 79
2, 111121, Note_on_c, 0, 62, 78
2, 111498, Note_on_c, 0, 55, 0
2, 111508, Note_on_c, 0, 55, 67
2, 111682, Note_on_c, 0, 61, 0
2, 111689, Note_on_c, 0, 64, 87
2, 111691, Note_on_c, 0, 61, 82
2, 111882, Note_on_c, 0, 55, 0
2, 111886, Note_on_c, 0, 55, 65
2, 112066, Note_on_c, 0, 62, 0
2, 112073, Note_on_c, 0, 62, 94
2, 112074, Note_on_c, 0, 43, 0
2, 112078, Note_on_c, 0, 43, 80
2, 112088, Note_on_c, 0, 58, 79
2, 112106, Control_c, 0, 64, 0
2, 112124, Note_on_c, 0, 64, 0
2, 112125, Note_on_c, 0, 71, 0
2, 112125, Note_on_c, 0, 59, 0
2, 112125, Note_on_c, 0, 50, 0
2, 112125, Note_on_c, 0, 61, 0
2, 112129, Note_on_c, 0, 74, 0
2, 112281, Control_c, 0, 64, 127
2, 112409, Note_on_c, 0, 50, 62
2, 112680, Note_on_c, 0, 58, 0
2, 112687, Note_on_c, 0, 58, 68
2, 112693, Note_on_c, 0, 74, 93
2, 112711, Note_on_c, 0, 67, 0
2, 112716, Note_on_c, 0, 70, 68
2, 112720, Note_on_c, 0, 67, 64
2, 112880, Note_on_c, 0, 55, 0
2, 113089, Note_on_c, 0, 55, 61
2, 113241, Note_on_c, 0, 58, 0
2, 113252, Note_on_c, 0, 58, 76
2, 113456, Note_on_c, 0, 62, 0
2, 113460, Note_on_c, 0, 62, 68
2, 113669, Note_on_c, 0, 65, 75
2, 113678, Note_on_c, 0, 48, 76
2, 113718, Control_c, 0, 64, 0
2, 113720, Note_on_c, 0, 55, 0
2, 113720, Note_on_c, 0, 58, 0
2, 113721, Note_on_c, 0, 50, 0
2, 113722, Note_on_c, 0, 70, 0
2, 113724, Note_on_c, 0, 74, 0
2, 113740, Note_on_c, 0, 43, 0
2, 113871, Control_c, 0, 64, 127
2, 113996, Note_on_c, 0, 55, 56
2, 114063, Control_c, 0, 64, 0
2, 114147, Control_c, 0, 64, 127
2, 114265, Note_on_c, 0, 58, 51
2, 114462, Note_on_c, 0, 62, 0
2, 114498, Note_on_c, 0, 72, 70
2, 114516, Note_on_c, 0, 67, 0
2, 114521, Note_on_c, 0, 64, 54
2, 114521, Note_on_c, 0, 60, 41
2, 114522, Note_on_c, 0, 67, 44
2, 114550, Control_c, 0, 64, 0
2, 114572, Note_on_c, 0, 65, 0
2, 114572, Note_on_c, 0, 58, 0
2, 114739, Control_c, 0, 64, 127
2, 115200, Note_on_c, 0, 60, 0
2, 115339, Note_on_c, 0, 41, 57
2, 115361, Note_on_c, 0, 55, 0
2, 115373, Control_c, 0, 64, 0
2, 115382, Note_on_c, 0, 48, 0
2, 115445, Note_on_c, 0, 64, 0
2, 115527, Note_on_c, 0, 48, 48
2, 115676, Control_c, 0, 64, 127
2, 115735, Note_on_c, 0, 55, 68
2, 115950, Note_on_c, 0, 60, 53
2, 115955, Note_on_c, 0, 65, 52
2, 115958, Note_on_c, 0, 57, 53
2, 116129, Note_on_c, 0, 72, 0
2, 116140, Note_on_c, 0, 72, 71
2, 116140, Note_on_c, 0, 84, 70
2, 116344, Note_on_c, 0, 84, 0
2, 116352, Note_on_c, 0, 72, 0
2, 116355, Note_on_c, 0, 84, 78
2, 116356, Note_on_c, 0, 72, 75
2, 116536, Note_on_c, 0, 84, 0
2, 116544, Note_on_c, 0, 72, 0
2, 116547, Note_on_c, 0, 84, 82
2, 116548, Note_on_c, 0, 72, 80
2, 116736, Note_on_c, 0, 72, 0
2, 116736, Note_on_c, 0, 84, 0
2, 116740, Note_on_c, 0, 84, 92
2, 116745, Note_on_c, 0, 72, 79
2, 116748, Note_on_c, 0, 75, 77
2, 116912, Note_on_c, 0, 67, 0
2, 116928, Note_on_c, 0, 48, 0
2, 116932, Note_on_c, 0, 48, 69
2, 116953, Note_on_c, 0, 41, 0
2, 116953, Note_on_c, 0, 65, 0
2, 116954, Note_on_c, 0, 55, 0
2, 116954, Note_on_c, 0, 57, 0
2, 116954, Note_on_c, 0, 60, 0
2, 116955, Control_c, 0, 64, 0
2, 117096, Control_c, 0, 64, 127
2, 117110, Note_on_c, 0, 55, 68
2, 117127, Note_on_c, 0, 48, 0
2, 117323, Note_on_c, 0, 62, 56
2, 117522, Note_on_c, 0, 63, 69
2, 117525, Note_on_c, 0, 67, 62
2, 117726, Note_on_c, 0, 72, 0
2, 117726, Note_on_c, 0, 84, 0
2, 117732, Note_on_c, 0, 84, 83
2, 117734, Note_on_c, 0, 75, 0
2, 117736, Note_on_c, 0, 72, 76
2, 117739, Note_on_c, 0, 75, 68
2, 117921, Note_on_c, 0, 82, 76
2, 118122, Note_on_c, 0, 81, 88
2, 118310, Note_on_c, 0, 82, 0
2, 118319, Note_on_c, 0, 82, 97
2, 118325, Note_on_c, 0, 72, 0
2, 118331, Note_on_c, 0, 72, 74
2, 118335, Note_on_c, 0, 74, 75
2, 118335, Note_on_c, 0, 77, 64
2, 118496, Note_on_c, 0, 67, 0
2, 118497, Note_on_c, 0, 84, 0
2, 118497, Note_on_c, 0, 55, 0
2, 118497, Note_on_c, 0, 72, 0
2, 118498, Note_on_c, 0, 81, 0
2, 118498, Note_on_c, 0, 62, 0
2, 118498, Note_on_c, 0, 63, 0
2, 118502, Note_on_c, 0, 75, 0
2, 118513, Note_on_c, 0, 46, 73
2, 118516, Control_c, 0, 64, 0
2, 118579, Control_c, 0, 64, 127
2, 118711, Note_on_c, 0, 53, 68
2, 118902, Note_on_c, 0, 58, 68
2, 119086, Note_on_c, 0, 74, 0
2, 119090, Note_on_c, 0, 65, 70
2, 119090, Note_on_c, 0, 79, 79
2, 119095, Note_on_c, 0, 74, 65
2, 119095, Note_on_c, 0, 62, 68
2, 119168, Note_on_c, 0, 81, 85
2, 119278, Note_on_c, 0, 82, 0
2, 119285, Note_on_c, 0, 77, 0
2, 119289, Note_on_c, 0, 82, 96
2, 119296, Note_on_c, 0, 72, 85
2, 119297, Note_on_c, 0, 77, 73
2, 119600, Note_on_c, 0, 81, 0
2, 119608, Note_on_c, 0, 72, 0
2, 119608, Note_on_c, 0, 81, 92
2, 119612, Note_on_c, 0, 72, 78
2, 119616, Note_on_c, 0, 77, 0
2, 119621, Note_on_c, 0, 77, 65
2, 119633, Note_on_c, 0, 58, 0
2, 119713, Note_on_c, 0, 48, 64
2, 119907, Note_on_c, 0, 79, 0
2, 119915, Note_on_c, 0, 72, 0
2, 119915, Note_on_c, 0, 79, 90
2, 119922, Note_on_c, 0, 72, 78
2, 120099, Note_on_c, 0, 79, 0
2, 120105, Note_on_c, 0, 79, 90
2, 120106, Note_on_c, 0, 50, 69
2, 120107, Note_on_c, 0, 72, 0
2, 120110, Control_c, 0, 64, 0
2, 120111, Note_on_c, 0, 72, 80
2, 120117, Note_on_c, 0, 46, 0
2, 120118, Note_on_c, 0, 82, 0
2, 120118, Note_on_c, 0, 48, 0
2, 120118, Note_on_c, 0, 65, 0
2, 120118, Note_on_c, 0, 53, 0
2, 120118, Note_on_c, 0, 62, 0
2, 120119, Note_on_c, 0, 74, 0
2, 120119, Note_on_c, 0, 81, 0
2, 120119, Note_on_c, 0, 77, 0
2, 120238, Control_c, 0, 64, 127
2, 120329, Note_on_c, 0, 57, 58
2, 120392, Note_on_c, 0, 81, 95
2, 120403, Note_on_c, 0, 77, 65
2, 120411, Note_on_c, 0, 74, 61
2, 120511, Note_on_c, 0, 60, 58
2, 120705, Note_on_c, 0, 65, 71
2, 120706, Note_on_c, 0, 62, 69
2, 121067, Note_on_c, 0, 50, 0
2, 121078, Note_on_c, 0, 50, 64
2, 121288, Note_on_c, 0, 48, 80
2, 121374, Note_on_c, 0, 79, 0
2, 121383, Note_on_c, 0, 79, 83
2, 121466, Note_on_c, 0, 81, 0
2, 121471, Note_on_c, 0, 81, 87
2, 121551, Note_on_c, 0, 79, 0
2, 121556, Note_on_c, 0, 79, 89
2, 121658, Note_on_c, 0, 77, 0
2, 121664, Note_on_c, 0, 77, 90
2, 121665, Note_on_c, 0, 46, 79
2, 121674, Note_on_c, 0, 74, 0
2, 121680, Control_c, 0, 64, 0
2, 121681, Note_on_c, 0, 72, 0
2, 121685, Note_on_c, 0, 74, 79
2, 121685, Note_on_c, 0, 50, 0
2, 121685, Note_on_c, 0, 65, 0
2, 121685, Note_on_c, 0, 62, 0
2, 121685, Note_on_c, 0, 60, 0
2, 121685, Note_on_c, 0, 81, 0
2, 121685, Note_on_c, 0, 48, 0
2, 121686, Note_on_c, 0, 79, 0
2, 121686, Note_on_c, 0, 57, 0
2, 121689, Note_on_c, 0, 72, 72
2, 121843, Control_c, 0, 64, 127
2, 121846, Note_on_c, 0, 53, 72
2, 122040, Note_on_c, 0, 58, 74
2, 122252, Note_on_c, 0, 65, 75
2, 122254, Note_on_c, 0, 60, 69
2, 122257, Note_on_c, 0, 58, 0
2, 122266, Note_on_c, 0, 58, 59
2, 122442, Note_on_c, 0, 74, 0
2, 122447, Note_on_c, 0, 74, 97
2, 122618, Note_on_c, 0, 77, 0
2, 122627, Note_on_c, 0, 77, 91
2, 122818, Note_on_c, 0, 53, 0
2, 122824, Note_on_c, 0, 53, 79
2, 122826, Note_on_c, 0, 74, 0
2, 122827, Note_on_c, 0, 86, 104
2, 122834, Note_on_c, 0, 74, 96
2, 123025, Note_on_c, 0, 72, 0
2, 123030, Note_on_c, 0, 84, 107
2, 123033, Note_on_c, 0, 77, 0
2, 123035, Note_on_c, 0, 79, 97
2, 123036, Note_on_c, 0, 72, 99
2, 123044, Note_on_c, 0, 77, 90
2, 123160, Note_on_c, 0, 58, 0
2, 123160, Note_on_c, 0, 74, 0
2, 123160, Note_on_c, 0, 60, 0
2, 123160, Note_on_c, 0, 46, 0
2, 123160, Note_on_c, 0, 53, 0
2, 123160, Note_on_c, 0, 65, 0
2, 123160, Note_on_c, 0, 86, 0
2, 123162, Control_c, 0, 64, 0
2, 123213, Note_on_c, 0, 45, 92
2, 123302, Control_c, 0, 64, 127
2, 123405, Note_on_c, 0, 53, 86
2, 123589, Note_on_c, 0, 55, 90
2, 123786, Note_on_c, 0, 77, 0
2, 123788, Note_on_c, 0, 60, 94
2, 123796, Note_on_c, 0, 77, 96
2, 123804, Note_on_c, 0, 57, 81
2, 123886, Note_on_c, 0, 84, 0
2, 123892, Note_on_c, 0, 84, 93
2, 123993, Note_on_c, 0, 79, 0
2, 123998, Note_on_c, 0, 91, 110
2, 124000, Note_on_c, 0, 79, 101
2, 124185, Note_on_c, 0, 77, 0
2, 124190, Note_on_c, 0, 89, 107
2, 124194, Note_on_c, 0, 77, 100
2, 124369, Note_on_c, 0, 57, 0
2, 124369, Note_on_c, 0, 60, 0
2, 124378, Note_on_c, 0, 60, 68
2, 124380, Note_on_c, 0, 57, 83
2, 124380, Note_on_c, 0, 88, 105
2, 124381, Note_on_c, 0, 76, 100
2, 124577, Note_on_c, 0, 89, 0
2, 124584, Note_on_c, 0, 77, 0
2, 124588, Note_on_c, 0, 89, 109
2, 124589, Note_on_c, 0, 86, 102
2, 124589, Note_on_c, 0, 77, 104
2, 124592, Note_on_c, 0, 82, 97
2, 124658, Control_c, 0, 64, 0
2, 124684, Note_on_c, 0, 72, 0
2, 124690, Note_on_c, 0, 79, 0
2, 124700, Note_on_c, 0, 84, 0
2, 124704, Note_on_c, 0, 60, 0
2, 124715, Note_on_c, 0, 45, 0
2, 124715, Note_on_c, 0, 55, 0
2, 124723, Note_on_c, 0, 53, 0
2, 124723, Note_on_c, 0, 57, 0
2, 124769, Note_on_c, 0, 76, 0
2, 124775, Note_on_c, 0, 58, 93
2, 124776, Note_on_c, 0, 43, 88
2, 124778, Note_on_c, 0, 50, 79
2, 124784, Note_on_c, 0, 91, 0
2, 125045, Control_c, 0, 64, 127
2, 125168, Note_on_c, 0, 82, 0
2, 125168, Note_on_c, 0, 86, 0
2, 125171, Note_on_c, 0, 94, 107
2, 125172, Note_on_c, 0, 86, 100
2, 125172, Note_on_c, 0, 82, 104
2, 125284, Control_c, 0, 64, 0
2, 125329, Note_on_c, 0, 77, 0
2, 125338, Note_on_c, 0, 58, 0
2, 125339, Note_on_c, 0, 48, 83
2, 125341, Note_on_c, 0, 43, 0
2, 125341, Note_on_c, 0, 50, 0
2, 125360, Note_on_c, 0, 88, 0
2, 125555, Note_on_c, 0, 93, 106
2, 125562, Note_on_c, 0, 58, 91
2, 125563, Note_on_c, 0, 81, 95
2, 125564, Note_on_c, 0, 55, 86
2, 125571, Note_on_c, 0, 85, 82
2, 125683, Control_c, 0, 64, 127
2, 125862, Note_on_c, 0, 91, 101
2, 125865, Note_on_c, 0, 79, 91
2, 125928, Note_on_c, 0, 89, 0
2, 125998, Note_on_c, 0, 60, 91
2, 126178, Note_on_c, 0, 89, 97
2, 126180, Note_on_c, 0, 77, 91
2, 126374, Note_on_c, 0, 89, 0
2, 126381, Note_on_c, 0, 41, 82
2, 126382, Note_on_c, 0, 77, 0
2, 126382, Note_on_c, 0, 94, 0
2, 126385, Note_on_c, 0, 89, 101
2, 126387, Note_on_c, 0, 91, 0
2, 126387, Note_on_c, 0, 77, 91
2, 126388, Control_c, 0, 64, 0
2, 126388, Note_on_c, 0, 93, 0
2, 126389, Note_on_c, 0, 55, 0
2, 126390, Note_on_c, 0, 81, 0
2, 126390, Note_on_c, 0, 84, 92
2, 126390, Note_on_c, 0, 79, 0
2, 126390, Note_on_c, 0, 58, 0
2, 126390, Note_on_c, 0, 85, 0
2, 126392, Note_on_c, 0, 48, 0
2, 126393, Note_on_c, 0, 60, 0
2, 126397, Note_on_c, 0, 82, 0
2, 126403, Note_on_c, 0, 82, 73
2, 126412, Note_on_c, 0, 86, 0
2, 126535, Control_c, 0, 64, 127
2, 126579, Note_on_c, 0, 48, 57
2, 126689, Note_on_c, 0, 82, 0
2, 126770, Note_on_c, 0, 55, 62
2, 126984, Note_on_c, 0, 57, 67
2, 127372, Note_on_c, 0, 41, 0
2, 127380, Note_on_c, 0, 41, 61
2, 127590, Note_on_c, 0, 53, 80
2, 127687, Note_on_c, 0, 57, 0
2, 127693, Note_on_c, 0, 57, 84
2, 127761, Note_on_c, 0, 60, 88
2, 127766, Control_c, 0, 64, 0
2, 127773, Note_on_c, 0, 84, 0
2, 127774, Note_on_c, 0, 41, 0
2, 127774, Note_on_c, 0, 48, 0
2, 127775, Note_on_c, 0, 53, 0
2, 127776, Note_on_c, 0, 57, 0
2, 127787, Note_on_c, 0, 55, 0
2, 127787, Note_on_c, 0, 77, 0
2, 127795, Note_on_c, 0, 89, 0
2, 127838, Note_on_c, 0, 60, 0
2, 127966, Note_on_c, 0, 62, 92
2, 127967, Note_on_c, 0, 58, 88
2, 127975, Note_on_c, 0, 46, 75
2, 127975, Note_on_c, 0, 53, 77
2, 127987, Control_c, 0, 64, 127
2, 128148, Note_on_c, 0, 46, 0
2, 128159, Note_on_c, 0, 46, 79
2, 128226, Control_c, 0, 64, 0
2, 128233, Note_on_c, 0, 58, 0
2, 128233, Note_on_c, 0, 62, 0
2, 128234, Note_on_c, 0, 46, 0
2, 128234, Note_on_c, 0, 53, 0
2, 128350, Note_on_c, 0, 74, 89
2, 128401, Control_c, 0, 64, 127
2, 128427, Note_on_c, 0, 77, 81
2, 128479, Note_on_c, 0, 82, 82
2, 128517, Note_on_c, 0, 74, 0
2, 128539, Note_on_c, 0, 86, 106
2, 128545, Note_on_c, 0, 62, 90
2, 128548, Note_on_c, 0, 58, 87
2, 128550, Note_on_c, 0, 53, 74
2, 128930, Note_on_c, 0, 46, 91
2, 129123, Note_on_c, 0, 53, 0
2, 129123, Note_on_c, 0, 58, 0
2, 129123, Note_on_c, 0, 62, 0
2, 129131, Note_on_c, 0, 58, 91
2, 129135, Note_on_c, 0, 53, 88
2, 129135, Note_on_c, 0, 62, 96
2, 129211, Note_on_c, 0, 58, 0
2, 129211, Note_on_c, 0, 46, 0
2, 129212, Note_on_c, 0, 86, 0
2, 129212, Note_on_c, 0, 82, 0
2, 129212, Note_on_c, 0, 77, 0
2, 129214, Control_c, 0, 64, 0
2, 129214, Note_on_c, 0, 53, 0
2, 129217, Note_on_c, 0, 62, 0
2, 129228, Note_on_c, 0, 64, 97
2, 129313, Note_on_c, 0, 65, 96
2, 129324, Note_on_c, 0, 64, 0
2, 129484, Note_on_c, 0, 65, 0
2, 129533, Note_on_c, 0, 64, 103
2, 129535, Note_on_c, 0, 60, 92
2, 129540, Note_on_c, 0, 46, 88
2, 129541, Note_on_c, 0, 55, 94
2, 129561, Control_c, 0, 64, 127
2, 129707, Note_on_c, 0, 46, 0
2, 129707, Note_on_c, 0, 55, 0
2, 129712, Note_on_c, 0, 46, 83
2, 129718, Note_on_c, 0, 55, 84
2, 129773, Control_c, 0, 64, 0
2, 129807, Note_on_c, 0, 64, 0
2, 129818, Note_on_c, 0, 60, 0
2, 129819, Note_on_c, 0, 46, 0
2, 129838, Note_on_c, 0, 55, 0
2, 129902, Note_on_c, 0, 76, 87
2, 129950, Note_on_c, 0, 79, 91
2, 129964, Note_on_c, 0, 76, 0
2, 129991, Control_c, 0, 64, 127
2, 130025, Note_on_c, 0, 84, 91
2, 130060, Control_c, 0, 64, 0
2, 130104, Note_on_c, 0, 88, 108
2, 130108, Note_on_c, 0, 64, 100
2, 130112, Note_on_c, 0, 60, 90
2, 130117, Note_on_c, 0, 55, 92
2, 130145, Control_c, 0, 64, 127
2, 130490, Note_on_c, 0, 64, 0
2, 130498, Note_on_c, 0, 46, 92
2, 130501, Note_on_c, 0, 64, 99
2, 130682, Note_on_c, 0, 55, 0
2, 130682, Note_on_c, 0, 60, 0
2, 130686, Note_on_c, 0, 55, 94
2, 130687, Note_on_c, 0, 60, 94
2, 130687, Note_on_c, 0, 62, 99
2, 130773, Control_c, 0, 64, 0
2, 130775, Note_on_c, 0, 79, 0
2, 130776, Note_on_c, 0, 64, 0
2, 130778, Note_on_c, 0, 84, 0
2, 130782, Note_on_c, 0, 88, 0
2, 130802, Note_on_c, 0, 62, 0
2, 130807, Note_on_c, 0, 46, 0
2, 130828, Note_on_c, 0, 55, 0
2, 130828, Note_on_c, 0, 60, 0
2, 130867, Note_on_c, 0, 64, 100
2, 130947, Note_on_c, 0, 64, 0
2, 131063, Note_on_c, 0, 60, 102
2, 131070, Note_on_c, 0, 52, 83
2, 131070, Note_on_c, 0, 55, 92
2, 131073, Note_on_c, 0, 45, 87
2, 131089, Control_c, 0, 64, 127
2, 131251, Note_on_c, 0, 45, 0
2, 131251, Note_on_c, 0, 52, 0
2, 131251, Note_on_c, 0, 55, 0
2, 131255, Note_on_c, 0, 52, 77
2, 131255, Note_on_c, 0, 45, 85
2, 131255, Note_on_c, 0, 55, 90
2, 131274, Control_c, 0, 64, 0
2, 131311, Note_on_c, 0, 60, 0
2, 131311, Note_on_c, 0, 45, 0
2, 131312, Note_on_c, 0, 52, 0
2, 131314, Note_on_c, 0, 55, 0
2, 131437, Note_on_c, 0, 72, 95
2, 131495, Note_on_c, 0, 76, 91
2, 131560, Note_on_c, 0, 79, 93
2, 131562, Note_on_c, 0, 72, 0
2, 131638, Note_on_c, 0, 84, 103
2, 131649, Note_on_c, 0, 60, 93
2, 131656, Note_on_c, 0, 52, 86
2, 131656, Note_on_c, 0, 55, 89
2, 131834, Control_c, 0, 64, 127
2, 132028, Note_on_c, 0, 45, 88
2, 132203, Note_on_c, 0, 52, 0
2, 132203, Note_on_c, 0, 60, 0
2, 132208, Note_on_c, 0, 60, 98
2, 132210, Note_on_c, 0, 52, 87
2, 132211, Note_on_c, 0, 55, 0
2, 132215, Note_on_c, 0, 55, 88
2, 132301, Note_on_c, 0, 64, 94
2, 132366, Control_c, 0, 64, 0
2, 132391, Note_on_c, 0, 67, 101
2, 132421, Note_on_c, 0, 84, 0
2, 132422, Note_on_c, 0, 76, 0
2, 132422, Note_on_c, 0, 79, 0
2, 132422, Note_on_c, 0, 45, 0
2, 132423, Note_on_c, 0, 55, 0
2, 132423, Note_on_c, 0, 52, 0
2, 132423, Note_on_c, 0, 60, 0
2, 132424, Note_on_c, 0, 64, 0
2, 132427, Note_on_c, 0, 67, 0
2, 132599, Note_on_c, 0, 67, 100
2, 132607, Note_on_c, 0, 64, 97
2, 132607, Note_on_c, 0, 60, 93
2, 132609, Note_on_c, 0, 57, 99
2, 132611, Note_on_c, 0, 50, 90
2, 132787, Control_c, 0, 64, 127
2, 132797, Note_on_c, 0, 65, 99
2, 132803, Note_on_c, 0, 62, 89
2, 132948, Control_c, 0, 64, 0
2, 132964, Note_on_c, 0, 50, 0
2, 132966, Note_on_c, 0, 57, 0
2, 132967, Note_on_c, 0, 67, 0
2, 132967, Note_on_c, 0, 62, 0
2, 132967, Note_on_c, 0, 65, 0
2, 132979, Note_on_c, 0, 60, 0
2, 132979, Note_on_c, 0, 64, 0
2, 132986, Note_on_c, 0, 64, 94
2, 132990, Note_on_c, 0, 60, 85
2, 133008, Note_on_c, 0, 77, 84
2, 133048, Control_c, 0, 64, 127
2, 133071, Note_on_c, 0, 81, 97
2, 133139, Note_on_c, 0, 86, 98
2, 133188, Note_on_c, 0, 65, 100
2, 133190, Note_on_c, 0, 62, 99
2, 133197, Note_on_c, 0, 89, 109
2, 133273, Control_c, 0, 64, 0
2, 133370, Control_c, 0, 64, 127
2, 133566, Note_on_c, 0, 50, 85
2, 133754, Note_on_c, 0, 60, 0
2, 133759, Note_on_c, 0, 60, 89
2, 133763, Note_on_c, 0, 57, 93
2, 133946, Note_on_c, 0, 86, 0
2, 133957, Note_on_c, 0, 86, 98
2, 134028, Note_on_c, 0, 88, 103
2, 134138, Note_on_c, 0, 89, 0
2, 134146, Note_on_c, 0, 77, 0
2, 134146, Note_on_c, 0, 86, 0
2, 134149, Note_on_c, 0, 89, 108
2, 134151, Note_on_c, 0, 46, 92
2, 134153, Note_on_c, 0, 86, 98
2, 134156, Control_c, 0, 64, 0
2, 134157, Note_on_c, 0, 77, 94
2, 134159, Note_on_c, 0, 82, 94
2, 134161, Note_on_c, 0, 62, 0
2, 134161, Note_on_c, 0, 60, 0
2, 134162, Note_on_c, 0, 65, 0
2, 134162, Note_on_c, 0, 50, 0
2, 134164, Note_on_c, 0, 81, 0
2, 134164, Note_on_c, 0, 57, 0
2, 134165, Note_on_c, 0, 64, 0
2, 134165, Note_on_c, 0, 88, 0
2, 134277, Control_c, 0, 64, 127
2, 134342, Note_on_c, 0, 53, 85
2, 134537, Note_on_c, 0, 58, 85
2, 134730, Note_on_c, 0, 58, 0
2, 134732, Note_on_c, 0, 65, 98
2, 134734, Note_on_c, 0, 60, 89
2, 134739, Note_on_c, 0, 58, 89
2, 134914, Note_on_c, 0, 77, 0
2, 134914, Note_on_c, 0, 82, 0
2, 134914, Note_on_c, 0, 89, 0
2, 134919, Note_on_c, 0, 89, 109
2, 134922, Note_on_c, 0, 82, 102
2, 134923, Note_on_c, 0, 77, 102
2, 135091, Note_on_c, 0, 53, 0
2, 135101, Note_on_c, 0, 53, 83
2, 135233, Note_on_c, 0, 88, 107
2, 135236, Note_on_c, 0, 76, 100
2, 135313, Note_on_c, 0, 60, 0
2, 135313, Note_on_c, 0, 65, 0
2, 135321, Note_on_c, 0, 58, 0
2, 135323, Note_on_c, 0, 65, 90
2, 135325, Note_on_c, 0, 60, 81
2, 135326, Note_on_c, 0, 58, 71
2, 135490, Note_on_c, 0, 86, 0
2, 135500, Note_on_c, 0, 86, 105
2, 135500, Note_on_c, 0, 74, 103
2, 135694, Control_c, 0, 64, 0
2, 135697, Note_on_c, 0, 77, 0
2, 135700, Note_on_c, 0, 84, 104
2, 135700, Note_on_c, 0, 45, 88
2, 135707, Note_on_c, 0, 72, 94
2, 135709, Note_on_c, 0, 58, 0
2, 135709, Note_on_c, 0, 77, 83
2, 135710, Note_on_c, 0, 53, 0
2, 135710, Note_on_c, 0, 86, 0
2, 135710, Note_on_c, 0, 82, 0
2, 135710, Note_on_c, 0, 74, 0
2, 135711, Note_on_c, 0, 65, 0
2, 135712, Note_on_c, 0, 76, 0
2, 135714, Note_on_c, 0, 46, 0
2, 135717, Note_on_c, 0, 88, 0
2, 135736, Note_on_c, 0, 60, 0
2, 135736, Note_on_c, 0, 89, 0
2, 135880, Note_on_c, 0, 53, 83
2, 135951, Control_c, 0, 64, 127
2, 136084, Note_on_c, 0, 55, 79
2, 136278, Note_on_c, 0, 60, 85
2, 136280, Note_on_c, 0, 65, 90
2, 136280, Note_on_c, 0, 57, 77
2, 136473, Note_on_c, 0, 72, 0
2, 136481, Note_on_c, 0, 84, 0
2, 136484, Note_on_c, 0, 72, 102
2, 136485, Note_on_c, 0, 84, 104
2, 136665, Note_on_c, 0, 53, 0
2, 136670, Note_on_c, 0, 53, 81
2, 136778, Note_on_c, 0, 82, 99
2, 136784, Note_on_c, 0, 70, 89
2, 136880, Note_on_c, 0, 60, 0
2, 136880, Note_on_c, 0, 65, 0
2, 136885, Note_on_c, 0, 65, 88
2, 136888, Note_on_c, 0, 57, 0
2, 136891, Note_on_c, 0, 60, 69
2, 136897, Note_on_c, 0, 57, 78
2, 137075, Note_on_c, 0, 81, 101
2, 137079, Note_on_c, 0, 69, 93
2, 137254, Note_on_c, 0, 43, 84
2, 137275, Note_on_c, 0, 79, 100
2, 137277, Control_c, 0, 64, 0
2, 137280, Note_on_c, 0, 70, 0
2, 137282, Note_on_c, 0, 82, 0
2, 137283, Note_on_c, 0, 84, 0
2, 137284, Note_on_c, 0, 65, 0
2, 137284, Note_on_c, 0, 53, 0
2, 137284, Note_on_c, 0, 60, 0
2, 137284, Note_on_c, 0, 55, 0
2, 137285, Note_on_c, 0, 69, 0
2, 137286, Note_on_c, 0, 57, 0
2, 137286, Note_on_c, 0, 81, 0
2, 137289, Note_on_c, 0, 45, 0
2, 137290, Note_on_c, 0, 67, 86
2, 137291, Note_on_c, 0, 70, 89
2, 137292, Note_on_c, 0, 74, 84
2, 137303, Note_on_c, 0, 72, 0
2, 137310, Note_on_c, 0, 77, 0
2, 137459, Note_on_c, 0, 50, 75
2, 137464, Control_c, 0, 64, 127
2, 137659, Note_on_c, 0, 53, 85
2, 137852, Note_on_c, 0, 62, 90
2, 137856, Note_on_c, 0, 58, 82
2, 138224, Note_on_c, 0, 53, 0
2, 138231, Note_on_c, 0, 53, 87
2, 138424, Note_on_c, 0, 58, 0
2, 138424, Note_on_c, 0, 62, 0
2, 138424, Note_on_c, 0, 74, 0
2, 138428, Note_on_c, 0, 74, 105
2, 138434, Note_on_c, 0, 62, 93
2, 138434, Note_on_c, 0, 58, 94
2, 138513, Note_on_c, 0, 77, 99
2, 138608, Note_on_c, 0, 82, 99
2, 138705, Note_on_c, 0, 86, 101
2, 138813, Control_c, 0, 64, 0
2, 138816, Note_on_c, 0, 74, 0
2, 138816, Note_on_c, 0, 86, 0
2, 138818, Note_on_c, 0, 62, 0
2, 138819, Note_on_c, 0, 50, 0
2, 138819, Note_on_c, 0, 67, 0
2, 138819, Note_on_c, 0, 77, 0
2, 138819, Note_on_c, 0, 82, 0
2, 138819, Note_on_c, 0, 57, 102
2, 138819, Note_on_c, 0, 58, 0
2, 138819, Note_on_c, 0, 79, 0
2, 138819, Note_on_c, 0, 53, 0
2, 138820, Note_on_c, 0, 70, 0
2, 138820, Note_on_c, 0, 52, 92
2, 138821, Note_on_c, 0, 43, 0
2, 138821, Note_on_c, 0, 45, 94
2, 138822, Note_on_c, 0, 86, 108
2, 138825, Note_on_c, 0, 74, 105
2, 138826, Note_on_c, 0, 76, 103
2, 138946, Control_c, 0, 64, 127
2, 139207, Note_on_c, 0, 57, 0
2, 139210, Note_on_c, 0, 85, 104
2, 139211, Note_on_c, 0, 73, 101
2, 139212, Note_on_c, 0, 57, 89
2, 139399, Note_on_c, 0, 74, 0
2, 139407, Note_on_c, 0, 76, 0
2, 139407, Note_on_c, 0, 86, 0
2, 139407, Note_on_c, 0, 69, 104
2, 139409, Note_on_c, 0, 62, 96
2, 139409, Note_on_c, 0, 64, 101
2, 139411, Note_on_c, 0, 74, 108
2, 139411, Note_on_c, 0, 86, 109
2, 139412, Note_on_c, 0, 76, 100
2, 139760, Note_on_c, 0, 69, 0
2, 139767, Note_on_c, 0, 69, 100
2, 139776, Note_on_c, 0, 64, 0
2, 139781, Note_on_c, 0, 64, 96
2, 139783, Note_on_c, 0, 76, 0
2, 139788, Note_on_c, 0, 88, 107
2, 139789, Note_on_c, 0, 61, 89
2, 139791, Note_on_c, 0, 85, 0
2, 139794, Note_on_c, 0, 76, 104
2, 139795, Note_on_c, 0, 85, 98
2, 139797, Note_on_c, 0, 81, 96
2, 139983, Note_on_c, 0, 45, 0
2, 139991, Note_on_c, 0, 57, 0
2, 139991, Note_on_c, 0, 76, 0
2, 139991, Note_on_c, 0, 88, 0
2, 139994, Note_on_c, 0, 45, 104
2, 139994, Note_on_c, 0, 57, 101
2, 139997, Note_on_c, 0, 88, 110
2, 139998, Note_on_c, 0, 81, 0
2, 139998, Note_on_c, 0, 85, 0
2, 140002, Note_on_c, 0, 76, 107
2, 140002, Note_on_c, 0, 81, 99
2, 140003, Note_on_c, 0, 85, 103
2, 140190, Note_on_c, 0, 45, 0
2, 140194, Note_on_c, 0, 33, 101
2, 140194, Note_on_c, 0, 45, 105
2, 140582, Note_on_c, 0, 33, 0
2, 140582, Note_on_c, 0, 45, 0
2, 140588, Note_on_c, 0, 33, 93
2, 140588, Note_on_c, 0, 45, 107
2, 140771, Control_c, 0, 64, 0
2, 140776, Note_on_c, 0, 52, 0
2, 140777, Note_on_c, 0, 33, 0
2, 140777, Note_on_c, 0, 85, 0
2, 140777, Note_on_c, 0, 88, 0
2, 140778, Note_on_c, 0, 76, 0
2, 140778, Note_on_c, 0, 81, 0
2, 140778, Note_on_c, 0, 61, 0
2, 140789, Note_on_c, 0, 57, 0
2, 140789, Note_on_c, 0, 74, 0
2, 140789, Note_on_c, 0, 86, 0
2, 140796, Note_on_c, 0, 57, 107
2, 140797, Note_on_c, 0, 62, 0
2, 140797, Note_on_c, 0, 64, 0
2, 140797, Note_on_c, 0, 69, 0
2, 140805, Note_on_c, 0, 45, 0
2, 140805, Note_on_c, 0, 73, 0
2, 141173, Note_on_c, 0, 57, 0
2, 141184, Note_on_c, 0, 62, 109
2, 141184, Note_on_c, 0, 57, 77
2, 141265, Note_on_c, 0, 57, 0
2, 141570, Note_on_c, 0, 64, 105
2, 141576, Note_on_c, 0, 45, 101
2, 141603, Control_c, 0, 64, 127
2, 141637, Note_on_c, 0, 40, 81
2, 141718, Note_on_c, 0, 33, 91
2, 141875, Note_on_c, 0, 45, 0
2, 141875, Note_on_c, 0, 33, 0
2, 141876, Note_on_c, 0, 40, 0
2, 141877, Note_on_c, 0, 62, 0
2, 141878, Note_on_c, 0, 64, 0
2, 141882, Control_c, 0, 64, 0
2, 141947, Note_on_c, 0, 57, 105
2, 141949, Note_on_c, 0, 38, 105
2, 141951, Note_on_c, 0, 26, 99
2, 141951, Note_on_c, 0, 67, 97
2, 141952, Note_on_c, 0, 62, 96
2, 142010, Control_c, 0, 64, 127
2, 142145, Note_on_c, 0, 69, 86
2, 142226, Note_on_c, 0, 74, 87
2, 142257, Note_on_c, 0, 50, 91
2, 142306, Note_on_c, 0, 78, 96
2, 142385, Note_on_c, 0, 81, 91
2, 142475, Note_on_c, 0, 86, 85
2, 142525, Note_on_c, 0, 62, 0
2, 142530, Note_on_c, 0, 66, 102
2, 142533, Note_on_c, 0, 57, 0
2, 142536, Note_on_c, 0, 62, 98
2, 142536, Note_on_c, 0, 91, 110
2, 142542, Note_on_c, 0, 57, 97
2, 142629, Note_on_c, 0, 90, 107
2, 142725, Note_on_c, 0, 66, 0
2, 142725, Note_on_c, 0, 86, 0
2, 142730, Note_on_c, 0, 86, 99
2, 142732, Note_on_c, 0, 57, 0
2, 142732, Note_on_c, 0, 62, 0
2, 142735, Note_on_c, 0, 66, 96
2, 142737, Note_on_c, 0, 62, 91
2, 142743, Note_on_c, 0, 57, 93
2, 142809, Note_on_c, 0, 81, 0
2, 142814, Note_on_c, 0, 81, 95
2, 142901, Note_on_c, 0, 78, 0
2, 142907, Note_on_c, 0, 78, 77
2, 143009, Note_on_c, 0, 74, 0
2, 143013, Note_on_c, 0, 74, 78
2, 143070, Note_on_c, 0, 78, 0
2, 143075, Note_on_c, 0, 78, 66
2, 143101, Note_on_c, 0, 69, 0
2, 143109, Note_on_c, 0, 57, 0
2, 143112, Note_on_c, 0, 69, 78
2, 143113, Note_on_c, 0, 57, 88
2, 143114, Note_on_c, 0, 45, 92
2, 143239, Note_on_c, 0, 66, 0
2, 143245, Note_on_c, 0, 66, 73
2, 143339, Note_on_c, 0, 62, 0
2, 143351, Note_on_c, 0, 62, 90
2, 143459, Note_on_c, 0, 45, 0
2, 143460, Note_on_c, 0, 91, 0
2, 143460, Note_on_c, 0, 57, 0
2, 143461, Note_on_c, 0, 38, 0
2, 143461, Note_on_c, 0, 81, 0
2, 143461, Note_on_c, 0, 86, 0
2, 143461, Note_on_c, 0, 90, 0
2, 143462, Note_on_c, 0, 69, 0
2, 143462, Note_on_c, 0, 26, 0
2, 143462, Note_on_c, 0, 67, 0
2, 143462, Control_c, 0, 64, 0
2, 143463, Note_on_c, 0, 66, 0
2, 143463, Note_on_c, 0, 74, 0
2, 143463, Note_on_c, 0, 78, 0
2, 143477, Note_on_c, 0, 62, 0
2, 143493, Note_on_c, 0, 50, 0
2, 143498, Note_on_c, 0, 67, 97
2, 143498, Note_on_c, 0, 50, 105
2, 143503, Note_on_c, 0, 62, 100
2, 143503, Note_on_c, 0, 38, 101
2, 143504, Note_on_c, 0, 45, 95
2, 143546, Control_c, 0, 64, 127
2, 143669, Note_on_c, 0, 69, 89
2, 143753, Note_on_c, 0, 74, 91
2, 143792, Note_on_c, 0, 50, 0
2, 143802, Note_on_c, 0, 50, 93
2, 143839, Note_on_c, 0, 78, 101
2, 143939, Note_on_c, 0, 81, 86
2, 144025, Note_on_c, 0, 86, 95
2, 144107, Note_on_c, 0, 62, 0
2, 144110, Note_on_c, 0, 91, 109
2, 144111, Note_on_c, 0, 66, 104
2, 144112, Note_on_c, 0, 62, 94
2, 144115, Note_on_c, 0, 57, 103
2, 144202, Note_on_c, 0, 90, 108
2, 144299, Note_on_c, 0, 57, 0
2, 144299, Note_on_c, 0, 62, 0
2, 144299, Note_on_c, 0, 66, 0
2, 144299, Note_on_c, 0, 86, 0
2, 144305, Note_on_c, 0, 62, 92
2, 144306, Note_on_c, 0, 86, 93
2, 144306, Note_on_c, 0, 66, 94
2, 144310, Note_on_c, 0, 57, 81
2, 144391, Note_on_c, 0, 81, 0
2, 144396, Note_on_c, 0, 81, 89
2, 144491, Note_on_c, 0, 50, 0
2, 144491, Note_on_c, 0, 78, 0
2, 144502, Note_on_c, 0, 78, 86
2, 144502, Note_on_c, 0, 50, 91
2, 144576, Note_on_c, 0, 74, 0
2, 144585, Note_on_c, 0, 74, 91
2, 144675, Note_on_c, 0, 69, 0
2, 144683, Note_on_c, 0, 57, 0
2, 144686, Note_on_c, 0, 69, 90
2, 144693, Note_on_c, 0, 57, 102
2, 144693, Note_on_c, 0, 64, 103
2, 144696, Note_on_c, 0, 54, 97
2, 144867, Note_on_c, 0, 62, 0
2, 144877, Note_on_c, 0, 62, 99
2, 145004, Note_on_c, 0, 45, 0
2, 145007, Control_c, 0, 64, 0
2, 145007, Note_on_c, 0, 81, 0
2, 145008, Note_on_c, 0, 86, 0
2, 145008, Note_on_c, 0, 90, 0
2, 145008, Note_on_c, 0, 64, 0
2, 145009, Note_on_c, 0, 50, 0
2, 145009, Note_on_c, 0, 78, 0
2, 145009, Note_on_c, 0, 74, 0
2, 145009, Note_on_c, 0, 66, 0
2, 145009, Note_on_c, 0, 62, 0
2, 145009, Note_on_c, 0, 54, 0
2, 145009, Note_on_c, 0, 57, 0
2, 145013, Note_on_c, 0, 38, 0
2, 145013, Note_on_c, 0, 91, 0
2, 145021, Note_on_c, 0, 67, 0
2, 145021, Note_on_c, 0, 69, 0
2, 145071, Note_on_c, 0, 66, 101
2, 145072, Note_on_c, 0, 61, 105
2, 145072, Note_on_c, 0, 57, 103
2, 145072, Note_on_c, 0, 49, 108
2, 145073, Note_on_c, 0, 37, 102
2, 145105, Control_c, 0, 64, 127
2, 145252, Note_on_c, 0, 69, 90
2, 145340, Note_on_c, 0, 73, 96
2, 145382, Note_on_c, 0, 49, 0
2, 145389, Note_on_c, 0, 49, 95
2, 145427, Note_on_c, 0, 78, 94
2, 145517, Note_on_c, 0, 81, 92
2, 145594, Note_on_c, 0, 85, 99
2, 145680, Note_on_c, 0, 90, 111
2, 145681, Note_on_c, 0, 57, 0
2, 145681, Note_on_c, 0, 61, 0
2, 145687, Note_on_c, 0, 64, 101
2, 145688, Note_on_c, 0, 61, 99
2, 145691, Note_on_c, 0, 57, 99
2, 145780, Note_on_c, 0, 88, 102
2, 145873, Note_on_c, 0, 57, 0
2, 145873, Note_on_c, 0, 64, 0
2, 145873, Note_on_c, 0, 85, 0
2, 145878, Note_on_c, 0, 85, 89
2, 145881, Note_on_c, 0, 61, 0
2, 145884, Note_on_c, 0, 64, 101
2, 145884, Note_on_c, 0, 57, 94
2, 145886, Note_on_c, 0, 61, 93
2, 145950, Note_on_c, 0, 81, 0
2, 145955, Note_on_c, 0, 81, 86
2, 146042, Note_on_c, 0, 78, 0
2, 146052, Note_on_c, 0, 78, 77
2, 146073, Note_on_c, 0, 49, 0
2, 146079, Note_on_c, 0, 49, 86
2, 146154, Note_on_c, 0, 76, 84
2, 146250, Note_on_c, 0, 57, 0
2, 146250, Note_on_c, 0, 73, 0
2, 146258, Note_on_c, 0, 73, 90
2, 146260, Note_on_c, 0, 57, 93
2, 146357, Note_on_c, 0, 69, 0
2, 146362, Note_on_c, 0, 69, 82
2, 146408, Note_on_c, 0, 37, 0
2, 146409, Note_on_c, 0, 69, 0
2, 146409, Control_c, 0, 64, 0
2, 146409, Note_on_c, 0, 49, 0
2, 146410, Note_on_c, 0, 88, 0
2, 146410, Note_on_c, 0, 61, 0
2, 146410, Note_on_c, 0, 57, 0
2, 146410, Note_on_c, 0, 64, 0
2, 146411, Note_on_c, 0, 73, 0
2, 146411, Note_on_c, 0, 81, 0
2, 146411, Note_on_c, 0, 90, 0
2, 146412, Note_on_c, 0, 76, 0
2, 146412, Note_on_c, 0, 85, 0
2, 146413, Note_on_c, 0, 78, 0
2, 146419, Note_on_c, 0, 66, 0
2, 146475, Note_on_c, 0, 61, 101
2, 146475, Note_on_c, 0, 66, 103
2, 146476, Note_on_c, 0, 54, 104
2, 146476, Note_on_c, 0, 42, 102
2, 146476, Note_on_c, 0, 49, 102
2, 146478, Note_on_c, 0, 59, 102
2, 146511, Control_c, 0, 64, 127
2, 146844, Note_on_c, 0, 71, 103
2, 146845, Note_on_c, 0, 67, 103
2, 146948, Note_on_c, 0, 73, 103
2, 147041, Note_on_c, 0, 66, 0
2, 147045, Note_on_c, 0, 78, 97
2, 147046, Note_on_c, 0, 66, 105
2, 147135, Note_on_c, 0, 83, 100
2, 147233, Note_on_c, 0, 54, 0
2, 147233, Note_on_c, 0, 61, 0
2, 147234, Note_on_c, 0, 90, 109
2, 147237, Note_on_c, 0, 64, 105
2, 147239, Note_on_c, 0, 54, 98
2, 147239, Note_on_c, 0, 61, 96
2, 147245, Note_on_c, 0, 58, 93
2, 147340, Note_on_c, 0, 91, 106
2, 147417, Note_on_c, 0, 64, 0
2, 147428, Note_on_c, 0, 64, 100
2, 147432, Note_on_c, 0, 90, 0
2, 147440, Note_on_c, 0, 90, 92
2, 147531, Note_on_c, 0, 88, 104
2, 147609, Note_on_c, 0, 66, 0
2, 147618, Note_on_c, 0, 66, 107
2, 147623, Note_on_c, 0, 85, 101
2, 147714, Note_on_c, 0, 82, 88
2, 147786, Note_on_c, 0, 54, 0
2, 147786, Note_on_c, 0, 58, 0
2, 147786, Note_on_c, 0, 61, 0
2, 147792, Note_on_c, 0, 61, 96
2, 147796, Note_on_c, 0, 54, 91
2, 147797, Note_on_c, 0, 58, 95
2, 147902, Note_on_c, 0, 76, 93
2, 147985, Note_on_c, 0, 64, 0
2, 147985, Note_on_c, 0, 73, 0
2, 147991, Note_on_c, 0, 64, 99
2, 147995, Note_on_c, 0, 73, 90
2, 147998, Note_on_c, 0, 61, 0
2, 148128, Note_on_c, 0, 42, 0
2, 148128, Control_c, 0, 64, 0
2, 148128, Note_on_c, 0, 71, 0
2, 148129, Note_on_c, 0, 67, 0
2, 148129, Note_on_c, 0, 66, 0
2, 148129, Note_on_c, 0, 58, 0
2, 148129, Note_on_c, 0, 83, 0
2, 148130, Note_on_c, 0, 54, 0
2, 148130, Note_on_c, 0, 59, 0
2, 148130, Note_on_c, 0, 82, 0
2, 148131, Note_on_c, 0, 91, 0
2, 148132, Note_on_c, 0, 76, 0
2, 148132, Note_on_c, 0, 64, 0
2, 148133, Note_on_c, 0, 73, 0
2, 148134, Note_on_c, 0, 88, 0
2, 148134, Note_on_c, 0, 85, 0
2, 148139, Note_on_c, 0, 49, 0
2, 148139, Note_on_c, 0, 90, 0
2, 148154, Note_on_c, 0, 78, 0
2, 148173, Note_on_c, 0, 55, 109
2, 148173, Note_on_c, 0, 62, 104
2, 148173, Note_on_c, 0, 50, 101
2, 148174, Note_on_c, 0, 43, 107
2, 148262, Control_c, 0, 64, 127
2, 148351, Note_on_c, 0, 66, 80
2, 148449, Note_on_c, 0, 69, 94
2, 148469, Note_on_c, 0, 55, 0
2, 148475, Note_on_c, 0, 55, 99
2, 148545, Note_on_c, 0, 74, 93
2, 148634, Note_on_c, 0, 78, 92
2, 148750, Note_on_c, 0, 86, 102
2, 148761, Note_on_c, 0, 55, 0
2, 148764, Note_on_c, 0, 57, 103
2, 148766, Note_on_c, 0, 55, 94
2, 148853, Note_on_c, 0, 85, 98
2, 148944, Note_on_c, 0, 81, 89
2, 149030, Note_on_c, 0, 78, 0
2, 149034, Note_on_c, 0, 78, 82
2, 149107, Note_on_c, 0, 74, 0
2, 149111, Note_on_c, 0, 59, 103
2, 149115, Note_on_c, 0, 74, 87
2, 149216, Note_on_c, 0, 73, 82
2, 149291, Note_on_c, 0, 69, 0
2, 149300, Note_on_c, 0, 69, 80
2, 149314, Note_on_c, 0, 55, 0
2, 149314, Note_on_c, 0, 59, 0
2, 149321, Note_on_c, 0, 59, 99
2, 149321, Note_on_c, 0, 55, 101
2, 149376, Note_on_c, 0, 66, 0
2, 149380, Note_on_c, 0, 66, 84
2, 149505, Note_on_c, 0, 61, 106
2, 149654, Note_on_c, 0, 73, 0
2, 149655, Note_on_c, 0, 78, 0
2, 149655, Note_on_c, 0, 57, 0
2, 149655, Note_on_c, 0, 50, 0
2, 149655, Note_on_c, 0, 66, 0
2, 149655, Note_on_c, 0, 86, 0
2, 149656, Note_on_c, 0, 69, 0
2, 149656, Note_on_c, 0, 81, 0
2, 149656, Note_on_c, 0, 43, 0
2, 149656, Note_on_c, 0, 55, 0
2, 149656, Note_on_c, 0, 62, 0
2, 149656, Note_on_c, 0, 85, 0
2, 149657, Note_on_c, 0, 74, 0
2, 149657, Note_on_c, 0, 59, 0
2, 149658, Note_on_c, 0, 61, 0
2, 149677, Control_c, 0, 64, 0
2, 149705, Note_on_c, 0, 62, 102
2, 149705, Note_on_c, 0, 54, 104
2, 149710, Note_on_c, 0, 42, 101
2, 149710, Note_on_c, 0, 50, 97
2, 149798, Control_c, 0, 64, 127
2, 149885, Note_on_c, 0, 66, 97
2, 149983, Note_on_c, 0, 69, 93
2, 150021, Note_on_c, 0, 54, 0
2, 150026, Note_on_c, 0, 54, 93
2, 150083, Note_on_c, 0, 74, 85
2, 150186, Note_on_c, 0, 78, 94
2, 150299, Note_on_c, 0, 86, 105
2, 150305, Note_on_c, 0, 54, 0
2, 150308, Note_on_c, 0, 57, 104
2, 150310, Note_on_c, 0, 54, 101
2, 150316, Control_c, 0, 64, 0
2, 150374, Control_c, 0, 64, 127
2, 150395, Note_on_c, 0, 85, 97
2, 150497, Note_on_c, 0, 57, 0
2, 150500, Note_on_c, 0, 81, 88
2, 150502, Note_on_c, 0, 57, 98
2, 150589, Note_on_c, 0, 78, 0
2, 150593, Note_on_c, 0, 78, 89
2, 150681, Note_on_c, 0, 74, 0
2, 150692, Note_on_c, 0, 74, 84
2, 150810, Note_on_c, 0, 73, 85
2, 150881, Note_on_c, 0, 54, 0
2, 150891, Note_on_c, 0, 54, 92
2, 150927, Note_on_c, 0, 69, 0
2, 150931, Note_on_c, 0, 69, 81
2, 151057, Note_on_c, 0, 62, 0
2, 151057, Note_on_c, 0, 66, 0
2, 151062, Note_on_c, 0, 66, 90
2, 151069, Note_on_c, 0, 62, 104
2, 151184, Note_on_c, 0, 69, 0
2, 151186, Note_on_c, 0, 81, 0
2, 151187, Note_on_c, 0, 73, 0
2, 151188, Note_on_c, 0, 57, 0
2, 151190, Note_on_c, 0, 78, 0
2, 151190, Note_on_c, 0, 66, 0
2, 151190, Note_on_c, 0, 50, 0
2, 151190, Note_on_c, 0, 62, 0
2, 151190, Note_on_c, 0, 85, 0
2, 151192, Note_on_c, 0, 42, 0
2, 151192, Note_on_c, 0, 74, 0
2, 151192, Note_on_c, 0, 86, 0
2, 151192, Note_on_c, 0, 54, 0
2, 151207, Control_c, 0, 64, 0
2, 151257, Note_on_c, 0, 47, 103
2, 151259, Note_on_c, 0, 59, 103
2, 151260, Note_on_c, 0, 40, 97
2, 151260, Note_on_c, 0, 55, 106
2, 151262, Note_on_c, 0, 67, 96
2, 151263, Note_on_c, 0, 62, 97
2, 151265, Note_on_c, 0, 59, 0
2, 151326, Control_c, 0, 64, 127
2, 151458, Note_on_c, 0, 71, 89
2, 151556, Note_on_c, 0, 74, 96
2, 151638, Note_on_c, 0, 66, 105
2, 151646, Note_on_c, 0, 79, 79
2, 151735, Note_on_c, 0, 83, 98
2, 151822, Note_on_c, 0, 91, 110
2, 151833, Note_on_c, 0, 55, 0
2, 151835, Note_on_c, 0, 64, 106
2, 151837, Note_on_c, 0, 59, 94
2, 151838, Note_on_c, 0, 52, 94
2, 151842, Note_on_c, 0, 55, 98
2, 151912, Note_on_c, 0, 90, 102
2, 151999, Note_on_c, 0, 86, 96
2, 152079, Note_on_c, 0, 83, 0
2, 152083, Note_on_c, 0, 83, 84
2, 152194, Note_on_c, 0, 62, 0
2, 152194, Note_on_c, 0, 79, 0
2, 152199, Note_on_c, 0, 79, 78
2, 152204, Note_on_c, 0, 62, 108
2, 152294, Note_on_c, 0, 78, 86
2, 152378, Note_on_c, 0, 74, 0
2, 152386, Note_on_c, 0, 52, 0
2, 152386, Note_on_c, 0, 55, 0
2, 152387, Note_on_c, 0, 74, 86
2, 152390, Note_on_c, 0, 52, 79
2, 152395, Note_on_c, 0, 55, 86
2, 152455, Note_on_c, 0, 71, 0
2, 152467, Note_on_c, 0, 71, 88
2, 152593, Note_on_c, 0, 62, 0
2, 152604, Note_on_c, 0, 62, 110
2, 152733, Note_on_c, 0, 47, 0
2, 152734, Note_on_c, 0, 83, 0
2, 152734, Note_on_c, 0, 52, 0
2, 152734, Note_on_c, 0, 59, 0
2, 152734, Note_on_c, 0, 79, 0
2, 152734, Note_on_c, 0, 64, 0
2, 152734, Note_on_c, 0, 86, 0
2, 152735, Note_on_c, 0, 74, 0
2, 152735, Note_on_c, 0, 55, 0
2, 152735, Note_on_c, 0, 90, 0
2, 152735, Note_on_c, 0, 78, 0
2, 152735, Note_on_c, 0, 91, 0
2, 152735, Note_on_c, 0, 67, 0
2, 152735, Control_c, 0, 64, 0
2, 152736, Note_on_c, 0, 40, 0
2, 152736, Note_on_c, 0, 66, 0
2, 152755, Note_on_c, 0, 71, 0
2, 152785, Note_on_c, 0, 57, 105
2, 152786, Note_on_c, 0, 52, 94
2, 152787, Note_on_c, 0, 45, 102
2, 152801, Control_c, 0, 64, 127
2, 152989, Note_on_c, 0, 61, 103
2, 152990, Note_on_c, 0, 69, 86
2, 153083, Note_on_c, 0, 73, 98
2, 153177, Note_on_c, 0, 57, 0
2, 153183, Note_on_c, 0, 74, 96
2, 153186, Note_on_c, 0, 57, 96
2, 153282, Note_on_c, 0, 76, 92
2, 153361, Note_on_c, 0, 62, 0
2, 153371, Note_on_c, 0, 62, 105
2, 153371, Note_on_c, 0, 59, 105
2, 153379, Note_on_c, 0, 81, 96
2, 153474, Note_on_c, 0, 85, 96
2, 153553, Note_on_c, 0, 57, 0
2, 153561, Note_on_c, 0, 57, 97
2, 153571, Note_on_c, 0, 86, 97
2, 153678, Note_on_c, 0, 88, 102
2, 153745, Note_on_c, 0, 61, 0
2, 153748, Note_on_c, 0, 64, 112
2, 153750, Note_on_c, 0, 61, 99
2, 153753, Note_on_c, 0, 81, 0
2, 153760, Note_on_c, 0, 93, 111
2, 153763, Note_on_c, 0, 81, 110
2, 153930, Note_on_c, 0, 57, 0
2, 153935, Note_on_c, 0, 57, 107
2, 154014, Note_on_c, 0, 52, 0
2, 154018, Note_on_c, 0, 52, 90
2, 154099, Note_on_c, 0, 45, 0
2, 154107, Note_on_c, 0, 45, 103
2, 154199, Note_on_c, 0, 40, 92
2, 154329, Note_on_c, 0, 81, 0
2, 154329, Note_on_c, 0, 86, 0
2, 154331, Note_on_c, 0, 91, 112
2, 154334, Note_on_c, 0, 79, 108
2, 154334, Note_on_c, 0, 81, 103
2, 154337, Note_on_c, 0, 38, 101
2, 154340, Note_on_c, 0, 86, 104
2, 154341, Note_on_c, 0, 26, 102
2, 154350, Control_c, 0, 64, 0
2, 154360, Note_on_c, 0, 52, 0
2, 154360, Note_on_c, 0, 64, 0
2, 154368, Note_on_c, 0, 45, 0
2, 154368, Note_on_c, 0, 62, 0
2, 154368, Note_on_c, 0, 69, 0
2, 154368, Note_on_c, 0, 74, 0
2, 154375, Note_on_c, 0, 40, 0
2, 154375, Note_on_c, 0, 59, 0
2, 154375, Note_on_c, 0, 76, 0
2, 154383, Note_on_c, 0, 57, 0
2, 154383, Note_on_c, 0, 61, 0
2, 154383, Note_on_c, 0, 73, 0
2, 154421, Control_c, 0, 64, 127
2, 154636, Note_on_c, 0, 38, 0
2, 154640, Note_on_c, 0, 50, 92
2, 154641, Note_on_c, 0, 38, 88
2, 154905, Note_on_c, 0, 26, 0
2, 154913, Note_on_c, 0, 93, 0
2, 154920, Control_c, 0, 64, 0
2, 154920, Note_on_c, 0, 81, 0
2, 154920, Note_on_c, 0, 86, 0
2, 154924, Note_on_c, 0, 90, 109
2, 154924, Note_on_c, 0, 57, 100
2, 154924, Note_on_c, 0, 62, 99
2, 154926, Note_on_c, 0, 78, 110
2, 154927, Note_on_c, 0, 81, 102
2, 154928, Note_on_c, 0, 85, 0
2, 154929, Note_on_c, 0, 54, 96
2, 154932, Note_on_c, 0, 86, 98
2, 154944, Control_c, 0, 64, 127
2, 155120, Note_on_c, 0, 86, 0
2, 155120, Note_on_c, 0, 90, 0
2, 155128, Note_on_c, 0, 78, 0
2, 155128, Note_on_c, 0, 81, 0
2, 155131, Note_on_c, 0, 90, 113
2, 155132, Note_on_c, 0, 86, 106
2, 155132, Note_on_c, 0, 78, 110
2, 155134, Note_on_c, 0, 81, 102
2, 155506, Note_on_c, 0, 45, 105
2, 155507, Note_on_c, 0, 33, 93
2, 155681, Note_on_c, 0, 38, 0
2, 155685, Note_on_c, 0, 38, 90
2, 155884, Control_c, 0, 64, 0
2, 155888, Note_on_c, 0, 81, 0
2, 155888, Note_on_c, 0, 91, 0
2, 155896, Note_on_c, 0, 38, 0
2, 155896, Note_on_c, 0, 79, 0
2, 155898, Note_on_c, 0, 91, 109
2, 155899, Note_on_c, 0, 81, 103
2, 155900, Note_on_c, 0, 54, 0
2, 155900, Note_on_c, 0, 79, 103
2, 155900, Note_on_c, 0, 45, 0
2, 155901, Note_on_c, 0, 33, 0
2, 155901, Note_on_c, 0, 38, 95
2, 155903, Note_on_c, 0, 78, 0
2, 155904, Note_on_c, 0, 86, 0
2, 155905, Note_on_c, 0, 57, 0
2, 155908, Note_on_c, 0, 86, 97
2, 155908, Note_on_c, 0, 26, 91
2, 155911, Note_on_c, 0, 50, 0
2, 155911, Note_on_c, 0, 88, 0
2, 155919, Note_on_c, 0, 62, 0
2, 155950, Note_on_c, 0, 90, 0
2, 155980, Control_c, 0, 64, 127
2, 156057, Note_on_c, 0, 26, 0
2, 156195, Note_on_c, 0, 38, 0
2, 156199, Note_on_c, 0, 50, 97
2, 156201, Note_on_c, 0, 38, 87
2, 156499, Note_on_c, 0, 62, 103
2, 156500, Note_on_c, 0, 90, 109
2, 156500, Note_on_c, 0, 57, 98
2, 156503, Note_on_c, 0, 81, 0
2, 156503, Note_on_c, 0, 86, 0
2, 156503, Note_on_c, 0, 54, 96
2, 156507, Note_on_c, 0, 78, 107
2, 156507, Note_on_c, 0, 81, 100
2, 156507, Note_on_c, 0, 86, 100
2, 156695, Note_on_c, 0, 78, 0
2, 156695, Note_on_c, 0, 81, 0
2, 156695, Note_on_c, 0, 90, 0
2, 156702, Note_on_c, 0, 90, 108
2, 156702, Note_on_c, 0, 86, 0
2, 156706, Note_on_c, 0, 78, 110
2, 156706, Note_on_c, 0, 81, 98
2, 156706, Note_on_c, 0, 86, 105
2, 156871, Note_on_c, 0, 38, 0
2, 156879, Note_on_c, 0, 38, 86
2, 157079, Note_on_c, 0, 50, 0
2, 157083, Note_on_c, 0, 45, 100
2, 157086, Note_on_c, 0, 38, 0
2, 157086, Note_on_c, 0, 81, 0
2, 157089, Note_on_c, 0, 88, 108
2, 157089, Note_on_c, 0, 50, 97
2, 157090, Note_on_c, 0, 81, 101
2, 157091, Note_on_c, 0, 38, 91
2, 157091, Note_on_c, 0, 76, 105
2, 157263, Note_on_c, 0, 86, 0
2, 157269, Note_on_c, 0, 86, 105
2, 157271, Note_on_c, 0, 74, 102
2, 157463, Note_on_c, 0, 78, 0
2, 157463, Note_on_c, 0, 91, 0
2, 157470, Note_on_c, 0, 81, 0
2, 157470, Note_on_c, 0, 90, 0
2, 157472, Note_on_c, 0, 62, 0
2, 157472, Note_on_c, 0, 74, 0
2, 157473, Note_on_c, 0, 76, 0
2, 157473, Note_on_c, 0, 38, 0
2, 157474, Note_on_c, 0, 57, 0
2, 157474, Note_on_c, 0, 54, 0
2, 157474, Note_on_c, 0, 78, 109
2, 157474, Note_on_c, 0, 88, 0
2, 157474, Note_on_c, 0, 86, 0
2, 157474, Note_on_c, 0, 49, 105
2, 157475, Note_on_c, 0, 90, 111
2, 157476, Note_on_c, 0, 81, 101
2, 157478, Note_on_c, 0, 79, 0
2, 157478, Note_on_c, 0, 37, 97
2, 157501, Note_on_c, 0, 50, 0
2, 157505, Control_c, 0, 64, 0
2, 157670, Control_c, 0, 64, 127
2, 157777, Note_on_c, 0, 37, 0
2, 157784, Note_on_c, 0, 37, 88
2, 158077, Note_on_c, 0, 81, 0
2, 158080, Note_on_c, 0, 88, 107
2, 158082, Note_on_c, 0, 81, 102
2, 158082, Note_on_c, 0, 57, 103
2, 158084, Note_on_c, 0, 76, 107
2, 158087, Note_on_c, 0, 85, 100
2, 158088, Note_on_c, 0, 52, 90
2, 158269, Note_on_c, 0, 76, 0
2, 158269, Note_on_c, 0, 81, 0
2, 158269, Note_on_c, 0, 85, 0
2, 158269, Note_on_c, 0, 88, 0
2, 158276, Note_on_c, 0, 88, 109
2, 158279, Note_on_c, 0, 81, 101
2, 158280, Note_on_c, 0, 76, 109
2, 158280, Note_on_c, 0, 85, 106
2, 158453, Note_on_c, 0, 49, 0
2, 158463, Note_on_c, 0, 49, 101
2, 158653, Note_on_c, 0, 52, 0
2, 158653, Note_on_c, 0, 57, 0
2, 158662, Note_on_c, 0, 57, 107
2, 158664, Note_on_c, 0, 52, 89
2, 158860, Note_on_c, 0, 78, 0
2, 158860, Note_on_c, 0, 85, 0
2, 158860, Note_on_c, 0, 90, 0
2, 158864, Note_on_c, 0, 78, 109
2, 158864, Note_on_c, 0, 90, 111
2, 158865, Note_on_c, 0, 82, 104
2, 158866, Note_on_c, 0, 85, 104
2, 159018, Note_on_c, 0, 45, 0
2, 159019, Note_on_c, 0, 76, 0
2, 159019, Control_c, 0, 64, 0
2, 159019, Note_on_c, 0, 52, 0
2, 159020, Note_on_c, 0, 49, 0
2, 159020, Note_on_c, 0, 57, 0
2, 159020, Note_on_c, 0, 81, 0
2, 159020, Note_on_c, 0, 37, 0
2, 159049, Note_on_c, 0, 42, 108
2, 159050, Note_on_c, 0, 30, 100
2, 159114, Control_c, 0, 64, 127
2, 159280, Note_on_c, 0, 91, 106
2, 159284, Note_on_c, 0, 79, 102
2, 159452, Note_on_c, 0, 90, 0
2, 159459, Note_on_c, 0, 78, 0
2, 159459, Note_on_c, 0, 82, 0
2, 159462, Note_on_c, 0, 90, 106
2, 159465, Note_on_c, 0, 78, 101
2, 159467, Note_on_c, 0, 85, 0
2, 159468, Note_on_c, 0, 82, 94
2, 159469, Note_on_c, 0, 54, 88
2, 159471, Note_on_c, 0, 85, 90
2, 159644, Note_on_c, 0, 88, 0
2, 159648, Note_on_c, 0, 64, 105
2, 159650, Note_on_c, 0, 88, 109
2, 159654, Note_on_c, 0, 76, 107
2, 159654, Note_on_c, 0, 61, 97
2, 159656, Note_on_c, 0, 58, 95
2, 159836, Note_on_c, 0, 76, 0
2, 159836, Note_on_c, 0, 88, 0
2, 159847, Note_on_c, 0, 76, 106
2, 159847, Note_on_c, 0, 88, 109
2, 160028, Note_on_c, 0, 54, 0
2, 160028, Note_on_c, 0, 78, 0
2, 160028, Note_on_c, 0, 90, 0
2, 160032, Note_on_c, 0, 90, 111
2, 160032, Note_on_c, 0, 54, 95
2, 160036, Note_on_c, 0, 78, 106
2, 160204, Note_on_c, 0, 61, 0
2, 160204, Note_on_c, 0, 64, 0
2, 160212, Note_on_c, 0, 58, 0
2, 160215, Note_on_c, 0, 61, 97
2, 160215, Note_on_c, 0, 64, 103
2, 160216, Note_on_c, 0, 58, 95
2, 160220, Note_on_c, 0, 30, 0
2, 160389, Note_on_c, 0, 76, 0
2, 160389, Note_on_c, 0, 88, 0
2, 160394, Note_on_c, 0, 88, 110
2, 160399, Note_on_c, 0, 76, 106
2, 160537, Control_c, 0, 64, 0
2, 160539, Note_on_c, 0, 58, 0
2, 160539, Note_on_c, 0, 82, 0
2, 160539, Note_on_c, 0, 61, 0
2, 160539, Note_on_c, 0, 85, 0
2, 160539, Note_on_c, 0, 79, 0
2, 160540, Note_on_c, 0, 91, 0
2, 160540, Note_on_c, 0, 78, 0
2, 160540, Note_on_c, 0, 54, 0
2, 160540, Note_on_c, 0, 90, 0
2, 160540, Note_on_c, 0, 64, 0
2, 160541, Note_on_c, 0, 76, 0
2, 160541, Note_on_c, 0, 88, 0
2, 160550, Note_on_c, 0, 42, 0
2, 160597, Note_on_c, 0, 43, 103
2, 160600, Note_on_c, 0, 31, 97
2, 160600, Note_on_c, 0, 86, 109
2, 160606, Note_on_c, 0, 74, 108
2, 160608, Note_on_c, 0, 78, 101
2, 160609, Note_on_c, 0, 83, 97
2, 160780, Control_c, 0, 64, 127
2, 160888, Note_on_c, 0, 43, 0
2, 160893, Note_on_c, 0, 43, 93
2, 160893, Note_on_c, 0, 50, 85
2, 160894, Note_on_c, 0, 55, 90
2, 161203, Note_on_c, 0, 59, 97
2, 161204, Note_on_c, 0, 62, 98
2, 161206, Note_on_c, 0, 57, 98
2, 161571, Note_on_c, 0, 43, 0
2, 161582, Note_on_c, 0, 43, 91
2, 161594, Note_on_c, 0, 83, 0
2, 161603, Note_on_c, 0, 71, 98
2, 161603, Note_on_c, 0, 83, 102
2, 161786, Note_on_c, 0, 59, 0
2, 161786, Note_on_c, 0, 62, 0
2, 161786, Note_on_c, 0, 71, 0
2, 161786, Note_on_c, 0, 83, 0
2, 161791, Note_on_c, 0, 62, 90
2, 161794, Note_on_c, 0, 57, 0
2, 161797, Note_on_c, 0, 59, 86
2, 161797, Note_on_c, 0, 83, 102
2, 161798, Note_on_c, 0, 71, 98
2, 161805, Note_on_c, 0, 57, 90
2, 161976, Note_on_c, 0, 85, 107
2, 161981, Note_on_c, 0, 73, 95
2, 162119, Note_on_c, 0, 86, 0
2, 162119, Note_on_c, 0, 78, 0
2, 162120, Note_on_c, 0, 71, 0
2, 162120, Note_on_c, 0, 62, 0
2, 162120, Note_on_c, 0, 74, 0
2, 162120, Note_on_c, 0, 55, 0
2, 162121, Note_on_c, 0, 59, 0
2, 162121, Note_on_c, 0, 73, 0
2, 162121, Note_on_c, 0, 83, 0
2, 162121, Control_c, 0, 64, 0
2, 162122, Note_on_c, 0, 85, 0
2, 162132, Note_on_c, 0, 31, 0
2, 162140, Note_on_c, 0, 50, 0
2, 162147, Note_on_c, 0, 57, 0
2, 162155, Note_on_c, 0, 43, 0
2, 162174, Note_on_c, 0, 54, 101
2, 162176, Note_on_c, 0, 42, 100
2, 162187, Note_on_c, 0, 50, 97
2, 162191, Note_on_c, 0, 81, 97
2, 162191, Note_on_c, 0, 86, 106
2, 162194, Note_on_c, 0, 74, 105
2, 162196, Note_on_c, 0, 78, 102
2, 162247, Control_c, 0, 64, 127
2, 162485, Note_on_c, 0, 42, 0
2, 162497, Note_on_c, 0, 42, 93
2, 162587, Note_on_c, 0, 88, 104
2, 162588, Note_on_c, 0, 76, 98
2, 162785, Note_on_c, 0, 86, 0
2, 162790, Note_on_c, 0, 86, 105
2, 162791, Note_on_c, 0, 62, 97
2, 162792, Note_on_c, 0, 74, 0
2, 162792, Note_on_c, 0, 78, 0
2, 162792, Note_on_c, 0, 81, 0
2, 162795, Note_on_c, 0, 57, 98
2, 162797, Note_on_c, 0, 78, 99
2, 162798, Note_on_c, 0, 74, 101
2, 162800, Note_on_c, 0, 81, 96
2, 162804, Control_c, 0, 64, 0
2, 162831, Control_c, 0, 64, 127
2, 163169, Note_on_c, 0, 42, 0
2, 163169, Note_on_c, 0, 54, 0
2, 163169, Note_on_c, 0, 81, 0
2, 163173, Note_on_c, 0, 81, 103
2, 163174, Note_on_c, 0, 69, 99
2, 163177, Note_on_c, 0, 54, 94
2, 163179, Note_on_c, 0, 42, 83
2, 163353, Note_on_c, 0, 57, 0
2, 163353, Note_on_c, 0, 62, 0
2, 163353, Note_on_c, 0, 74, 0
2, 163353, Note_on_c, 0, 86, 0
2, 163359, Note_on_c, 0, 62, 91
2, 163360, Note_on_c, 0, 86, 108
2, 163360, Note_on_c, 0, 57, 89
2, 163363, Note_on_c, 0, 74, 100
2, 163537, Note_on_c, 0, 78, 0
2, 163541, Note_on_c, 0, 90, 110
2, 163543, Note_on_c, 0, 78, 106
2, 163719, Note_on_c, 0, 50, 0
2, 163719, Note_on_c, 0, 42, 0
2, 163719, Note_on_c, 0, 76, 0
2, 163720, Note_on_c, 0, 86, 0
2, 163720, Note_on_c, 0, 69, 0
2, 163720, Note_on_c, 0, 81, 0
2, 163721, Note_on_c, 0, 62, 0
2, 163721, Note_on_c, 0, 74, 0
2, 163721, Note_on_c, 0, 88, 0
2, 163722, Note_on_c, 0, 90, 0
2, 163722, Note_on_c, 0, 78, 0
2, 163724, Control_c, 0, 64, 0
2, 163729, Note_on_c, 0, 54, 0
2, 163729, Note_on_c, 0, 57, 0
2, 163740, Note_on_c, 0, 47, 103
2, 163741, Note_on_c, 0, 55, 103
2, 163748, Note_on_c, 0, 40, 96
2, 163752, Note_on_c, 0, 79, 107
2, 163752, Note_on_c, 0, 91, 111
2, 163754, Note_on_c, 0, 83, 100
2, 163756, Note_on_c, 0, 86, 101
2, 163814, Control_c, 0, 64, 127
2, 164115, Note_on_c, 0, 90, 107
2, 164117, Note_on_c, 0, 78, 105
2, 164134, Note_on_c, 0, 52, 88
2, 164321, Note_on_c, 0, 79, 0
2, 164328, Note_on_c, 0, 55, 0
2, 164328, Note_on_c, 0, 83, 0
2, 164332, Note_on_c, 0, 88, 109
2, 164332, Note_on_c, 0, 59, 100
2, 164332, Note_on_c, 0, 79, 104
2, 164333, Note_on_c, 0, 83, 96
2, 164333, Control_c, 0, 64, 0
2, 164334, Note_on_c, 0, 76, 107
2, 164334, Note_on_c, 0, 62, 98
2, 164337, Note_on_c, 0, 55, 99
2, 164375, Control_c, 0, 64, 127
2, 164705, Note_on_c, 0, 86, 0
2, 164716, Note_on_c, 0, 86, 109
2, 164720, Note_on_c, 0, 52, 0
2, 164720, Note_on_c, 0, 74, 107
2, 164727, Note_on_c, 0, 52, 92
2, 164897, Note_on_c, 0, 62, 0
2, 164904, Note_on_c, 0, 55, 0
2, 164904, Note_on_c, 0, 59, 0
2, 164907, Note_on_c, 0, 62, 98
2, 164913, Note_on_c, 0, 59, 95
2, 164916, Note_on_c, 0, 55, 94
2, 165112, Note_on_c, 0, 74, 0
2, 165112, Note_on_c, 0, 83, 0
2, 165112, Note_on_c, 0, 86, 0
2, 165116, Note_on_c, 0, 86, 109
2, 165120, Note_on_c, 0, 79, 0
2, 165122, Note_on_c, 0, 74, 107
2, 165123, Note_on_c, 0, 83, 100
2, 165123, Note_on_c, 0, 79, 99
2, 165237, Note_on_c, 0, 62, 0
2, 165238, Note_on_c, 0, 78, 0
2, 165239, Note_on_c, 0, 40, 0
2, 165239, Note_on_c, 0, 47, 0
2, 165239, Note_on_c, 0, 59, 0
2, 165239, Note_on_c, 0, 76, 0
2, 165239, Note_on_c, 0, 55, 0
2, 165239, Note_on_c, 0, 79, 0
2, 165240, Note_on_c, 0, 52, 0
2, 165240, Note_on_c, 0, 88, 0
2, 165240, Note_on_c, 0, 91, 0
2, 165241, Note_on_c, 0, 74, 0
2, 165246, Control_c, 0, 64, 0
2, 165250, Note_on_c, 0, 90, 0
2, 165314, Note_on_c, 0, 45, 108
2, 165314, Note_on_c, 0, 33, 99
2, 165404, Control_c, 0, 64, 127
2, 165688, Note_on_c, 0, 33, 0
2, 165688, Note_on_c, 0, 45, 0
2, 165688, Note_on_c, 0, 86, 0
2, 165696, Note_on_c, 0, 45, 101
2, 165697, Note_on_c, 0, 86, 107
2, 165698, Control_c, 0, 64, 0
2, 165699, Note_on_c, 0, 33, 92
2, 165699, Note_on_c, 0, 74, 105
2, 165726, Control_c, 0, 64, 127
2, 165880, Note_on_c, 0, 33, 0
2, 165880, Note_on_c, 0, 45, 0
2, 165888, Note_on_c, 0, 45, 103
2, 165889, Note_on_c, 0, 33, 92
2, 166080, Note_on_c, 0, 33, 0
2, 166080, Note_on_c, 0, 45, 0
2, 166084, Note_on_c, 0, 85, 106
2, 166084, Note_on_c, 0, 45, 99
2, 166084, Note_on_c, 0, 33, 95
2, 166086, Note_on_c, 0, 73, 110
2, 166086, Note_on_c, 0, 81, 98
2, 166088, Note_on_c, 0, 76, 96
2, 166090, Control_c, 0, 64, 0
2, 166118, Control_c, 0, 64, 127
2, 166133, Note_on_c, 0, 83, 0
2, 166256, Note_on_c, 0, 33, 0
2, 166256, Note_on_c, 0, 45, 0
2, 166261, Note_on_c, 0, 45, 104
2, 166262, Note_on_c, 0, 33, 92
2, 166371, Note_on_c, 0, 74, 0
2, 166371, Note_on_c, 0, 86, 0
2, 166376, Note_on_c, 0, 86, 109
2, 166377, Note_on_c, 0, 74, 110
2, 166464, Note_on_c, 0, 33, 0
2, 166464, Note_on_c, 0, 45, 0
2, 166473, Note_on_c, 0, 45, 104
2, 166474, Note_on_c, 0, 33, 91
2, 166556, Control_c, 0, 64, 0
2, 166559, Note_on_c, 0, 81, 0
2, 166559, Note_on_c, 0, 33, 0
2, 166559, Note_on_c, 0, 73, 0
2, 166559, Note_on_c, 0, 76, 0
2, 166559, Note_on_c, 0, 45, 0
2, 166560, Note_on_c, 0, 85, 0
2, 166560, Note_on_c, 0, 74, 0
2, 166560, Note_on_c, 0, 86, 0
2, 166659, Note_on_c, 0, 74, 107
2, 166659, Note_on_c, 0, 86, 108
2, 166732, Note_on_c, 0, 74, 0
2, 166824, Note_on_c, 0, 86, 0
2, 166877, Note_on_c, 0, 86, 109
2, 166881, Note_on_c, 0, 74, 110
2, 166882, Note_on_c, 0, 78, 105
2, 166883, Note_on_c, 0, 43, 108
2, 166884, Note_on_c, 0, 83, 100
2, 166885, Note_on_c, 0, 31, 100
2, 166909, Control_c, 0, 64, 127
2, 167285, Note_on_c, 0, 43, 0
2, 167295, Note_on_c, 0, 55, 76
2, 167295, Note_on_c, 0, 43, 82
2, 167301, Note_on_c, 0, 55, 0
2, 167470, Note_on_c, 0, 74, 0
2, 167476, Note_on_c, 0, 74, 100
2, 167482, Note_on_c, 0, 50, 86
2, 167484, Note_on_c, 0, 71, 83
2, 167485, Note_on_c, 0, 43, 0
2, 167489, Note_on_c, 0, 59, 99
2, 167490, Note_on_c, 0, 43, 85
2, 167492, Note_on_c, 0, 66, 83
2, 167689, Note_on_c, 0, 62, 80
2, 167869, Note_on_c, 0, 43, 0
2, 167877, Note_on_c, 0, 66, 0
2, 167880, Note_on_c, 0, 43, 97
2, 167883, Note_on_c, 0, 66, 90
2, 168069, Note_on_c, 0, 50, 0
2, 168069, Note_on_c, 0, 59, 0
2, 168069, Note_on_c, 0, 71, 0
2, 168069, Note_on_c, 0, 74, 0
2, 168073, Note_on_c, 0, 50, 85
2, 168073, Note_on_c, 0, 59, 101
2, 168074, Note_on_c, 0, 74, 103
2, 168077, Note_on_c, 0, 47, 83
2, 168079, Note_on_c, 0, 71, 93
2, 168084, Note_on_c, 0, 47, 0
2, 168261, Note_on_c, 0, 62, 0
2, 168267, Note_on_c, 0, 62, 96
2, 168468, Note_on_c, 0, 74, 0
2, 168469, Control_c, 0, 64, 0
2, 168473, Note_on_c, 0, 52, 96
2, 168474, Note_on_c, 0, 74, 108
2, 168474, Note_on_c, 0, 86, 0
2, 168476, Note_on_c, 0, 31, 0
2, 168476, Note_on_c, 0, 66, 0
2, 168478, Note_on_c, 0, 49, 92
2, 168478, Note_on_c, 0, 50, 0
2, 168479, Note_on_c, 0, 70, 96
2, 168479, Note_on_c, 0, 59, 0
2, 168480, Note_on_c, 0, 62, 0
2, 168480, Note_on_c, 0, 66, 95
2, 168481, Note_on_c, 0, 42, 98
2, 168491, Note_on_c, 0, 78, 0
2, 168491, Note_on_c, 0, 83, 0
2, 168499, Note_on_c, 0, 43, 0
2, 168506, Note_on_c, 0, 71, 0
2, 168599, Control_c, 0, 64, 127
2, 168685, Note_on_c, 0, 64, 97
2, 168752, Note_on_c, 0, 42, 0
2, 168762, Note_on_c, 0, 42, 99
2, 168875, Note_on_c, 0, 66, 0
2, 168879, Note_on_c, 0, 66, 102
2, 169059, Note_on_c, 0, 49, 0
2, 169059, Note_on_c, 0, 70, 0
2, 169062, Note_on_c, 0, 58, 107
2, 169064, Note_on_c, 0, 49, 96
2, 169064, Note_on_c, 0, 73, 105
2, 169067, Note_on_c, 0, 66, 0
2, 169069, Note_on_c, 0, 54, 98
2, 169071, Note_on_c, 0, 70, 96
2, 169073, Note_on_c, 0, 66, 96
2, 169079, Control_c, 0, 64, 0
2, 169136, Control_c, 0, 64, 127
2, 169259, Note_on_c, 0, 64, 0
2, 169270, Note_on_c, 0, 64, 93
2, 169428, Note_on_c, 0, 42, 0
2, 169439, Note_on_c, 0, 42, 91
2, 169443, Note_on_c, 0, 66, 0
2, 169451, Note_on_c, 0, 66, 100
2, 169651, Note_on_c, 0, 49, 0
2, 169651, Note_on_c, 0, 58, 0
2, 169651, Note_on_c, 0, 66, 0
2, 169651, Note_on_c, 0, 70, 0
2, 169651, Note_on_c, 0, 73, 0
2, 169655, Note_on_c, 0, 76, 106
2, 169658, Note_on_c, 0, 58, 98
2, 169658, Note_on_c, 0, 54, 0
2, 169660, Note_on_c, 0, 70, 91
2, 169660, Note_on_c, 0, 49, 92
2, 169661, Note_on_c, 0, 66, 95
2, 169662, Note_on_c, 0, 73, 94
2, 169665, Note_on_c, 0, 54, 88
2, 169850, Note_on_c, 0, 64, 0
2, 169860, Note_on_c, 0, 64, 93
2, 170010, Control_c, 0, 64, 0
2, 170011, Note_on_c, 0, 66, 0
2, 170011, Note_on_c, 0, 52, 0
2, 170011, Note_on_c, 0, 58, 0
2, 170011, Note_on_c, 0, 73, 0
2, 170012, Note_on_c, 0, 49, 0
2, 170013, Note_on_c, 0, 70, 0
2, 170013, Note_on_c, 0, 76, 0
2, 170027, Note_on_c, 0, 42, 0
2, 170035, Note_on_c, 0, 54, 0
2, 170035, Note_on_c, 0, 64, 0
2, 170035, Note_on_c, 0, 74, 0
2, 170038, Note_on_c, 0, 57, 112
2, 170038, Note_on_c, 0, 47, 102
2, 170039, Note_on_c, 0, 54, 95
2, 170041, Note_on_c, 0, 69, 98
2, 170044, Note_on_c, 0, 74, 103
2, 170096, Control_c, 0, 64, 127
2, 170247, Note_on_c, 0, 62, 96
2, 170334, Note_on_c, 0, 47, 0
2, 170343, Note_on_c, 0, 47, 99
2, 170435, Note_on_c, 0, 66, 99
2, 170603, Note_on_c, 0, 69, 0
2, 170603, Note_on_c, 0, 74, 0
2, 170611, Note_on_c, 0, 54, 0
2, 170611, Note_on_c, 0, 57, 0
2, 170611, Note_on_c, 0, 66, 0
2, 170611, Note_on_c, 0, 74, 105
2, 170613, Note_on_c, 0, 69, 95
2, 170615, Note_on_c, 0, 66, 94
2, 170615, Note_on_c, 0, 54, 98
2, 170617, Note_on_c, 0, 57, 106
2, 170787, Note_on_c, 0, 62, 0
2, 170794, Note_on_c, 0, 62, 99
2, 170972, Note_on_c, 0, 74, 0
2, 170982, Note_on_c, 0, 74, 107
2, 170987, Note_on_c, 0, 47, 0
2, 170987, Note_on_c, 0, 66, 0
2, 170995, Note_on_c, 0, 66, 97
2, 170998, Note_on_c, 0, 47, 95
2, 171174, Note_on_c, 0, 46, 98
2, 171175, Note_on_c, 0, 73, 106
2, 171177, Note_on_c, 0, 64, 102
2, 171197, Control_c, 0, 64, 0
2, 171206, Note_on_c, 0, 62, 0
2, 171206, Note_on_c, 0, 66, 0
2, 171207, Note_on_c, 0, 69, 0
2, 171207, Note_on_c, 0, 54, 0
2, 171207, Note_on_c, 0, 47, 0
2, 171207, Note_on_c, 0, 74, 0
2, 171208, Note_on_c, 0, 57, 0
2, 171266, Note_on_c, 0, 64, 0
2, 171287, Note_on_c, 0, 46, 0
2, 171310, Note_on_c, 0, 73, 0
2, 171383, Note_on_c, 0, 72, 108
2, 171388, Note_on_c, 0, 64, 102
2, 171388, Note_on_c, 0, 55, 104
2, 171389, Note_on_c, 0, 67, 97
2, 171390, Note_on_c, 0, 45, 98
2, 171409, Control_c, 0, 64, 127
2, 171770, Note_on_c, 0, 67, 0
2, 171770, Note_on_c, 0, 72, 0
2, 171772, Note_on_c, 0, 52, 100
2, 171774, Note_on_c, 0, 78, 109
2, 171776, Note_on_c, 0, 67, 98
2, 171777, Note_on_c, 0, 72, 99
2, 171947, Note_on_c, 0, 55, 0
2, 171951, Note_on_c, 0, 60, 93
2, 171956, Note_on_c, 0, 55, 93
2, 172055, Note_on_c, 0, 67, 0
2, 172055, Note_on_c, 0, 72, 0
2, 172055, Note_on_c, 0, 78, 0
2, 172060, Note_on_c, 0, 78, 109
2, 172062, Note_on_c, 0, 67, 98
2, 172062, Note_on_c, 0, 72, 103
2, 172095, Control_c, 0, 64, 0
2, 172105, Note_on_c, 0, 60, 0
2, 172105, Note_on_c, 0, 52, 0
2, 172105, Note_on_c, 0, 55, 0
2, 172105, Note_on_c, 0, 64, 0
2, 172106, Note_on_c, 0, 45, 0
2, 172153, Note_on_c, 0, 38, 103
2, 172170, Control_c, 0, 64, 127
2, 172339, Note_on_c, 0, 72, 0
2, 172339, Note_on_c, 0, 78, 0
2, 172343, Note_on_c, 0, 78, 106
2, 172345, Note_on_c, 0, 72, 101
2, 172346, Note_on_c, 0, 69, 99
2, 172347, Note_on_c, 0, 54, 105
2, 172348, Note_on_c, 0, 60, 103
2, 172349, Note_on_c, 0, 57, 109
2, 172631, Note_on_c, 0, 67, 0
2, 172631, Note_on_c, 0, 72, 0
2, 172631, Note_on_c, 0, 76, 107
2, 172635, Note_on_c, 0, 67, 95
2, 172635, Note_on_c, 0, 72, 97
2, 172723, Note_on_c, 0, 38, 0
2, 172728, Note_on_c, 0, 38, 98
2, 172927, Note_on_c, 0, 74, 108
2, 172942, Note_on_c, 0, 66, 98
2, 173111, Note_on_c, 0, 74, 0
2, 173111, Note_on_c, 0, 57, 0
2, 173111, Note_on_c, 0, 38, 0
2, 173111, Note_on_c, 0, 76, 0
2, 173111, Note_on_c, 0, 60, 0
2, 173111, Note_on_c, 0, 67, 0
2, 173112, Note_on_c, 0, 54, 0
2, 173112, Note_on_c, 0, 72, 0
2, 173112, Control_c, 0, 64, 0
2, 173112, Note_on_c, 0, 69, 0
2, 173113, Note_on_c, 0, 66, 0
2, 173114, Note_on_c, 0, 78, 0
2, 173149, Note_on_c, 0, 43, 102
2, 173149, Note_on_c, 0, 71, 101
2, 173150, Note_on_c, 0, 74, 107
2, 173150, Note_on_c, 0, 62, 104
2, 173156, Note_on_c, 0, 66, 95
2, 173230, Control_c, 0, 64, 127
2, 173368, Note_on_c, 0, 62, 0
2, 173375, Note_on_c, 0, 62, 84
2, 173468, Note_on_c, 0, 43, 0
2, 173474, Note_on_c, 0, 43, 90
2, 173560, Note_on_c, 0, 66, 0
2, 173570, Note_on_c, 0, 66, 90
2, 173729, Note_on_c, 0, 74, 0
2, 173736, Note_on_c, 0, 50, 72
2, 173736, Note_on_c, 0, 74, 101
2, 173736, Note_on_c, 0, 66, 0
2, 173736, Note_on_c, 0, 71, 0
2, 173737, Note_on_c, 0, 59, 95
2, 173737, Note_on_c, 0, 54, 85
2, 173745, Note_on_c, 0, 71, 87
2, 173746, Note_on_c, 0, 66, 89
2, 173928, Note_on_c, 0, 62, 0
2, 173935, Note_on_c, 0, 62, 89
2, 174105, Note_on_c, 0, 43, 0
2, 174114, Note_on_c, 0, 43, 92
2, 174128, Note_on_c, 0, 66, 0
2, 174139, Note_on_c, 0, 66, 85
2, 174305, Note_on_c, 0, 74, 0
2, 174312, Note_on_c, 0, 50, 0
2, 174312, Note_on_c, 0, 54, 0
2, 174312, Note_on_c, 0, 59, 0
2, 174312, Note_on_c, 0, 71, 0
2, 174314, Note_on_c, 0, 74, 103
2, 174317, Note_on_c, 0, 54, 82
2, 174317, Note_on_c, 0, 59, 95
2, 174317, Note_on_c, 0, 50, 65
2, 174322, Note_on_c, 0, 71, 89
2, 174497, Note_on_c, 0, 62, 0
2, 174506, Note_on_c, 0, 62, 91
2, 174685, Control_c, 0, 64, 0
2, 174687, Note_on_c, 0, 42, 99
2, 174689, Note_on_c, 0, 74, 0
2, 174693, Note_on_c, 0, 74, 107
2, 174696, Note_on_c, 0, 66, 0
2, 174697, Note_on_c, 0, 50, 0
2, 174698, Note_on_c, 0, 62, 0
2, 174699, Note_on_c, 0, 59, 0
2, 174699, Note_on_c, 0, 54, 0
2, 174700, Note_on_c, 0, 69, 97
2, 174703, Note_on_c, 0, 66, 93
2, 174712, Note_on_c, 0, 43, 0
2, 174720, Note_on_c, 0, 71, 0
2, 174781, Control_c, 0, 64, 127
2, 174892, Note_on_c, 0, 62, 93
2, 174988, Note_on_c, 0, 42, 0
2, 174993, Note_on_c, 0, 42, 86
2, 175088, Note_on_c, 0, 66, 0
2, 175093, Note_on_c, 0, 66, 96
2, 175265, Note_on_c, 0, 74, 0
2, 175272, Note_on_c, 0, 62, 0
2, 175272, Note_on_c, 0, 66, 0
2, 175272, Note_on_c, 0, 69, 0
2, 175276, Note_on_c, 0, 74, 109
2, 175278, Note_on_c, 0, 69, 86
2, 175279, Note_on_c, 0, 62, 100
2, 175280, Note_on_c, 0, 57, 102
2, 175283, Note_on_c, 0, 66, 97
2, 175285, Note_on_c, 0, 54, 85
2, 175285, Control_c, 0, 64, 0
2, 175286, Note_on_c, 0, 50, 79
2, 175388, Control_c, 0, 64, 127
2, 175464, Note_on_c, 0, 62, 0
2, 175470, Note_on_c, 0, 62, 89
2, 175538, Note_on_c, 0, 64, 88
2, 175587, Note_on_c, 0, 66, 0
2, 175593, Note_on_c, 0, 66, 94
2, 175649, Note_on_c, 0, 42, 0
2, 175655, Note_on_c, 0, 42, 90
2, 175655, Note_on_c, 0, 67, 91
2, 175703, Note_on_c, 0, 69, 0
2, 175708, Note_on_c, 0, 69, 95
2, 175760, Note_on_c, 0, 71, 85
2, 175805, Note_on_c, 0, 73, 86
2, 175856, Note_on_c, 0, 50, 0
2, 175856, Note_on_c, 0, 54, 0
2, 175856, Note_on_c, 0, 57, 0
2, 175856, Note_on_c, 0, 62, 0
2, 175856, Note_on_c, 0, 74, 0
2, 175860, Note_on_c, 0, 74, 101
2, 175861, Note_on_c, 0, 54, 90
2, 175861, Note_on_c, 0, 62, 92
2, 175862, Note_on_c, 0, 50, 88
2, 175862, Note_on_c, 0, 57, 100
2, 175919, Note_on_c, 0, 76, 96
2, 175953, Note_on_c, 0, 78, 97
2, 176002, Note_on_c, 0, 79, 96
2, 176047, Note_on_c, 0, 81, 106
2, 176222, Note_on_c, 0, 42, 0
2, 176223, Note_on_c, 0, 64, 0
2, 176223, Note_on_c, 0, 66, 0
2, 176223, Note_on_c, 0, 57, 0
2, 176223, Note_on_c, 0, 67, 0
2, 176223, Note_on_c, 0, 62, 0
2, 176224, Note_on_c, 0, 73, 0
2, 176224, Note_on_c, 0, 71, 0
2, 176225, Note_on_c, 0, 54, 0
2, 176225, Note_on_c, 0, 79, 0
2, 176225, Note_on_c, 0, 69, 0
2, 176226, Note_on_c, 0, 76, 0
2, 176227, Note_on_c, 0, 78, 0
2, 176227, Control_c, 0, 64, 0
2, 176248, Note_on_c, 0, 50, 0
2, 176248, Note_on_c, 0, 81, 0
2, 176249, Note_on_c, 0, 47, 102
2, 176254, Note_on_c, 0, 59, 101
2, 176256, Note_on_c, 0, 74, 0
2, 176256, Note_on_c, 0, 55, 101
2, 176259, Note_on_c, 0, 81, 108
2, 176259, Note_on_c, 0, 52, 95
2, 176261, Note_on_c, 0, 71, 100
2, 176262, Note_on_c, 0, 74, 101
2, 176332, Control_c, 0, 64, 127
2, 176458, Note_on_c, 0, 67, 91
2, 176616, Note_on_c, 0, 74, 0
2, 176624, Note_on_c, 0, 52, 0
2, 176627, Note_on_c, 0, 74, 93
2, 176628, Note_on_c, 0, 52, 86
2, 176824, Note_on_c, 0, 71, 0
2, 176827, Note_on_c, 0, 79, 107
2, 176832, Note_on_c, 0, 55, 0
2, 176832, Note_on_c, 0, 59, 0
2, 176832, Note_on_c, 0, 67, 0
2, 176832, Note_on_c, 0, 74, 0
2, 176832, Note_on_c, 0, 71, 100
2, 176836, Note_on_c, 0, 74, 92
2, 176836, Note_on_c, 0, 59, 95
2, 176837, Note_on_c, 0, 62, 94
2, 176838, Note_on_c, 0, 67, 89
2, 176841, Note_on_c, 0, 55, 89
2, 177016, Note_on_c, 0, 67, 0
2, 177026, Note_on_c, 0, 67, 86
2, 177216, Note_on_c, 0, 52, 0
2, 177216, Note_on_c, 0, 62, 0
2, 177216, Note_on_c, 0, 74, 0
2, 177223, Note_on_c, 0, 71, 0
2, 177224, Note_on_c, 0, 74, 92
2, 177224, Note_on_c, 0, 52, 77
2, 177226, Note_on_c, 0, 62, 68
2, 177229, Note_on_c, 0, 71, 72
2, 177408, Note_on_c, 0, 59, 0
2, 177408, Note_on_c, 0, 62, 0
2, 177414, Note_on_c, 0, 83, 105
2, 177415, Note_on_c, 0, 55, 0
2, 177415, Note_on_c, 0, 74, 0
2, 177418, Note_on_c, 0, 62, 92
2, 177419, Note_on_c, 0, 59, 88
2, 177419, Note_on_c, 0, 74, 98
2, 177424, Note_on_c, 0, 55, 89
2, 177600, Note_on_c, 0, 71, 0
2, 177605, Note_on_c, 0, 71, 89
2, 177792, Note_on_c, 0, 81, 0
2, 177793, Control_c, 0, 64, 0
2, 177798, Note_on_c, 0, 81, 105
2, 177799, Note_on_c, 0, 55, 0
2, 177799, Note_on_c, 0, 71, 0
2, 177799, Note_on_c, 0, 74, 0
2, 177803, Note_on_c, 0, 62, 0
2, 177804, Note_on_c, 0, 52, 0
2, 177804, Note_on_c, 0, 74, 94
2, 177804, Note_on_c, 0, 59, 0
2, 177804, Note_on_c, 0, 71, 95
2, 177804, Note_on_c, 0, 67, 0
2, 177804, Note_on_c, 0, 83, 0
2, 177805, Note_on_c, 0, 79, 0
2, 177806, Note_on_c, 0, 47, 0
2, 177807, Note_on_c, 0, 55, 99
2, 177810, Note_on_c, 0, 45, 96
2, 177997, Note_on_c, 0, 69, 81
2, 177999, Control_c, 0, 64, 127
2, 178183, Note_on_c, 0, 71, 0
2, 178193, Note_on_c, 0, 71, 81
2, 178195, Note_on_c, 0, 52, 72
2, 178391, Note_on_c, 0, 55, 0
2, 178391, Note_on_c, 0, 74, 0
2, 178395, Note_on_c, 0, 59, 81
2, 178395, Note_on_c, 0, 74, 89
2, 178400, Note_on_c, 0, 55, 71
2, 178567, Note_on_c, 0, 69, 0
2, 178572, Note_on_c, 0, 69, 77
2, 178759, Note_on_c, 0, 71, 0
2, 178766, Note_on_c, 0, 71, 70
2, 178782, Note_on_c, 0, 52, 0
2, 178792, Note_on_c, 0, 52, 50
2, 178967, Note_on_c, 0, 71, 0
2, 178967, Note_on_c, 0, 74, 0
2, 178974, Note_on_c, 0, 55, 0
2, 178974, Note_on_c, 0, 59, 0
2, 178976, Note_on_c, 0, 74, 81
2, 178978, Note_on_c, 0, 71, 75
2, 178979, Note_on_c, 0, 59, 72
2, 178985, Note_on_c, 0, 55, 68
2, 179182, Note_on_c, 0, 69, 0
2, 179189, Note_on_c, 0, 69, 62
2, 179366, Note_on_c, 0, 45, 0
2, 179366, Note_on_c, 0, 55, 0
2, 179376, Note_on_c, 0, 55, 72
2, 179377, Note_on_c, 0, 45, 71
2, 179377, Note_on_c, 0, 76, 80
2, 179378, Note_on_c, 0, 73, 78
2, 179380, Note_on_c, 0, 57, 69
2, 179391, Control_c, 0, 64, 0
2, 179393, Note_on_c, 0, 59, 0
2, 179393, Note_on_c, 0, 52, 0
2, 179394, Note_on_c, 0, 74, 0
2, 179394, Note_on_c, 0, 69, 0
2, 179394, Note_on_c, 0, 71, 0
2, 179404, Note_on_c, 0, 81, 0
2, 179573, Control_c, 0, 64, 127
2, 179577, Note_on_c, 0, 69, 45
2, 179580, Note_on_c, 0, 67, 55
2, 179604, Note_on_c, 0, 57, 0
2, 179758, Note_on_c, 0, 69, 0
2, 179763, Note_on_c, 0, 69, 53
2, 179769, Note_on_c, 0, 52, 51
2, 179965, Note_on_c, 0, 76, 0
2, 179971, Note_on_c, 0, 61, 58
2, 179973, Note_on_c, 0, 73, 0
2, 179973, Note_on_c, 0, 76, 66
2, 179980, Note_on_c, 0, 69, 0
2, 179983, Note_on_c, 0, 73, 66
2, 179985, Note_on_c, 0, 57, 53
2, 179985, Note_on_c, 0, 69, 50
2, 180180, Note_on_c, 0, 67, 0
2, 180191, Note_on_c, 0, 67, 42
2, 180380, Note_on_c, 0, 52, 0
2, 180380, Note_on_c, 0, 69, 0
2, 180391, Note_on_c, 0, 52, 45
2, 180391, Note_on_c, 0, 69, 59
2, 180602, Note_on_c, 0, 61, 0
2, 180602, Note_on_c, 0, 76, 0
2, 180609, Note_on_c, 0, 61, 47
2, 180610, Note_on_c, 0, 57, 0
2, 180610, Note_on_c, 0, 73, 0
2, 180611, Note_on_c, 0, 76, 53
2, 180615, Note_on_c, 0, 73, 57
2, 180616, Note_on_c, 0, 57, 48
2, 180864, Note_on_c, 0, 67, 0
2, 180868, Note_on_c, 0, 67, 44
2, 181148, Note_on_c, 0, 76, 0
2, 181154, Note_on_c, 0, 76, 51
2, 181163, Note_on_c, 0, 45, 0
2, 181171, Note_on_c, 0, 73, 0
2, 181172, Note_on_c, 0, 45, 42
2, 181176, Note_on_c, 0, 73, 41
2, 181178, Note_on_c, 0, 69, 0
2, 181185, Note_on_c, 0, 69, 40
2, 183175, Note_on_c, 0, 55, 0
2, 183333, Control_c, 0, 64, 0
2, 183479, Note_on_c, 0, 52, 0
2, 183498, Note_on_c, 0, 45, 0
2, 183644, Note_on_c, 0, 61, 0
2, 184289, Control_c, 0, 64, 127
2, 184296, Note_on_c, 0, 57, 0
2, 185479, Note_on_c, 0, 67, 0
2, 185763, Note_on_c, 0, 76, 0
2, 185786, Note_on_c, 0, 73, 0
2, 185794, Note_on_c, 0, 69, 0
2, 186330, Note_on_c, 0, 81, 48
2, 186432, Control_c, 0, 64, 0
2, 186516, Control_c, 0, 64, 127
2, 186851, Note_on_c, 0, 86, 56
2, 186895, Note_on_c, 0, 62, 8
2, 186900, Note_on_c, 0, 62, 0
2, 187455, Note_on_c, 0, 88, 62
2, 188219, Note_on_c, 0, 91, 76
2, 188223, Note_on_c, 0, 79, 49
2, 188228, Note_on_c, 0, 74, 45
2, 188230, Control_c, 0, 64, 0
2, 188239, Note_on_c, 0, 86, 0
2, 188252, Control_c, 0, 64, 127
2, 188474, Note_on_c, 0, 74, 0
2, 188485, Note_on_c, 0, 74, 44
2, 188505, Note_on_c, 0, 88, 0
2, 188697, Note_on_c, 0, 74, 0
2, 188702, Note_on_c, 0, 74, 50
2, 188712, Note_on_c, 0, 81, 0
2, 188897, Note_on_c, 0, 74, 0
2, 188902, Note_on_c, 0, 78, 66
2, 188902, Note_on_c, 0, 90, 87
2, 188907, Note_on_c, 0, 74, 66
2, 188907, Note_on_c, 0, 81, 70
2, 188989, Note_on_c, 0, 79, 0
2, 189120, Note_on_c, 0, 74, 0
2, 189120, Note_on_c, 0, 90, 0
2, 189127, Note_on_c, 0, 74, 59
2, 189127, Note_on_c, 0, 90, 83
2, 189319, Note_on_c, 0, 74, 0
2, 189319, Note_on_c, 0, 78, 0
2, 189325, Note_on_c, 0, 74, 52
2, 189328, Note_on_c, 0, 78, 33
2, 189504, Note_on_c, 0, 74, 0
2, 189511, Note_on_c, 0, 78, 0
2, 189511, Note_on_c, 0, 81, 0
2, 189514, Note_on_c, 0, 74, 69
2, 189515, Note_on_c, 0, 81, 62
2, 189517, Note_on_c, 0, 78, 58
2, 189719, Note_on_c, 0, 74, 0
2, 189729, Note_on_c, 0, 74, 47
2, 189926, Note_on_c, 0, 74, 0
2, 189926, Note_on_c, 0, 91, 0
2, 189930, Note_on_c, 0, 91, 93
2, 189934, Note_on_c, 0, 78, 0
2, 189934, Note_on_c, 0, 81, 0
2, 189937, Note_on_c, 0, 74, 72
2, 189938, Note_on_c, 0, 86, 79
2, 189939, Note_on_c, 0, 78, 67
2, 189939, Note_on_c, 0, 81, 79
2, 190126, Note_on_c, 0, 74, 0
2, 190137, Note_on_c, 0, 74, 73
2, 190325, Note_on_c, 0, 74, 0
2, 190336, Note_on_c, 0, 74, 69
2, 190533, Note_on_c, 0, 74, 0
2, 190533, Note_on_c, 0, 78, 0
2, 190533, Note_on_c, 0, 81, 0
2, 190533, Note_on_c, 0, 90, 0
2, 190537, Note_on_c, 0, 90, 98
2, 190538, Note_on_c, 0, 78, 77
2, 190540, Note_on_c, 0, 74, 70
2, 190544, Note_on_c, 0, 81, 79
2, 190571, Note_on_c, 0, 91, 0
2, 190671, Note_on_c, 0, 86, 0
2, 190732, Note_on_c, 0, 74, 0
2, 190732, Note_on_c, 0, 90, 0
2, 190737, Note_on_c, 0, 74, 69
2, 190741, Note_on_c, 0, 90, 99
2, 190924, Note_on_c, 0, 74, 0
2, 190933, Note_on_c, 0, 74, 71
2, 191124, Note_on_c, 0, 74, 0
2, 191124, Note_on_c, 0, 78, 0
2, 191124, Note_on_c, 0, 81, 0
2, 191129, Note_on_c, 0, 88, 100
2, 191129, Note_on_c, 0, 78, 92
2, 191135, Note_on_c, 0, 74, 77
2, 191135, Note_on_c, 0, 81, 87
2, 191156, Control_c, 0, 64, 0
2, 191193, Control_c, 0, 64, 127
2, 191339, Note_on_c, 0, 74, 0
2, 191340, Note_on_c, 0, 86, 98
2, 191344, Note_on_c, 0, 74, 84
2, 191550, Note_on_c, 0, 86, 0
2, 191550, Note_on_c, 0, 74, 0
2, 191551, Control_c, 0, 64, 0
2, 191554, Note_on_c, 0, 90, 0
2, 191564, Note_on_c, 0, 90, 101
2, 191565, Note_on_c, 0, 73, 79
2, 191569, Note_on_c, 0, 81, 0
2, 191572, Note_on_c, 0, 76, 74
2, 191574, Note_on_c, 0, 81, 80
2, 191639, Control_c, 0, 64, 127
2, 191754, Note_on_c, 0, 73, 0
2, 191764, Note_on_c, 0, 73, 70
2, 191969, Note_on_c, 0, 73, 0
2, 191973, Note_on_c, 0, 73, 67
2, 192161, Note_on_c, 0, 73, 0
2, 192161, Note_on_c, 0, 76, 0
2, 192161, Note_on_c, 0, 81, 0
2, 192161, Note_on_c, 0, 88, 0
2, 192166, Note_on_c, 0, 88, 96
2, 192166, Note_on_c, 0, 76, 82
2, 192168, Note_on_c, 0, 81, 79
2, 192171, Note_on_c, 0, 73, 78
2, 192368, Note_on_c, 0, 73, 0
2, 192368, Note_on_c, 0, 88, 0
2, 192373, Note_on_c, 0, 73, 74
2, 192375, Note_on_c, 0, 88, 96
2, 192391, Note_on_c, 0, 76, 0
2, 192395, Note_on_c, 0, 76, 52
2, 192552, Note_on_c, 0, 73, 0
2, 192557, Note_on_c, 0, 73, 68
2, 192737, Note_on_c, 0, 81, 0
2, 192744, Note_on_c, 0, 73, 0
2, 192744, Note_on_c, 0, 76, 0
2, 192748, Note_on_c, 0, 81, 76
2, 192749, Note_on_c, 0, 73, 73
2, 192749, Note_on_c, 0, 76, 70
2, 192760, Note_on_c, 0, 78, 0
2, 192936, Note_on_c, 0, 73, 0
2, 192944, Note_on_c, 0, 90, 0
2, 192946, Note_on_c, 0, 73, 76
2, 192954, Note_on_c, 0, 90, 104
2, 193152, Note_on_c, 0, 73, 0
2, 193152, Note_on_c, 0, 76, 0
2, 193161, Note_on_c, 0, 76, 86
2, 193162, Note_on_c, 0, 71, 80
2, 193163, Note_on_c, 0, 73, 77
2, 193169, Note_on_c, 0, 66, 74
2, 193179, Control_c, 0, 64, 0
2, 193213, Control_c, 0, 64, 127
2, 193351, Note_on_c, 0, 76, 0
2, 193354, Note_on_c, 0, 91, 88
2, 193362, Note_on_c, 0, 76, 83
2, 193551, Note_on_c, 0, 76, 0
2, 193551, Note_on_c, 0, 90, 0
2, 193555, Note_on_c, 0, 76, 75
2, 193561, Note_on_c, 0, 90, 91
2, 193743, Note_on_c, 0, 73, 0
2, 193743, Note_on_c, 0, 81, 0
2, 193751, Note_on_c, 0, 76, 0
2, 193751, Note_on_c, 0, 88, 0
2, 193754, Note_on_c, 0, 73, 86
2, 193758, Note_on_c, 0, 88, 95
2, 193758, Note_on_c, 0, 66, 0
2, 193758, Note_on_c, 0, 71, 0
2, 193759, Control_c, 0, 64, 0
2, 193759, Note_on_c, 0, 76, 86
2, 193761, Note_on_c, 0, 90, 0
2, 193764, Note_on_c, 0, 71, 70
2, 193769, Note_on_c, 0, 66, 70
2, 193804, Note_on_c, 0, 91, 0
2, 193827, Control_c, 0, 64, 127
2, 193943, Note_on_c, 0, 76, 0
2, 193943, Note_on_c, 0, 88, 0
2, 193952, Note_on_c, 0, 88, 98
2, 193953, Note_on_c, 0, 76, 80
2, 194150, Note_on_c, 0, 76, 0
2, 194157, Note_on_c, 0, 90, 104
2, 194159, Note_on_c, 0, 76, 75
2, 194357, Note_on_c, 0, 73, 0
2, 194357, Note_on_c, 0, 76, 0
2, 194365, Note_on_c, 0, 66, 0
2, 194366, Note_on_c, 0, 76, 77
2, 194367, Note_on_c, 0, 73, 74
2, 194375, Note_on_c, 0, 70, 62
2, 194376, Note_on_c, 0, 66, 66
2, 194565, Note_on_c, 0, 76, 0
2, 194565, Note_on_c, 0, 88, 0
2, 194569, Note_on_c, 0, 88, 97
2, 194574, Note_on_c, 0, 76, 78
2, 194792, Note_on_c, 0, 86, 96
2, 194794, Note_on_c, 0, 74, 82
2, 194795, Note_on_c, 0, 71, 0
2, 194800, Note_on_c, 0, 67, 65
2, 194802, Note_on_c, 0, 71, 66
2, 194805, Note_on_c, 0, 78, 77
2, 194808, Note_on_c, 0, 90, 0
2, 194810, Note_on_c, 0, 70, 0
2, 194812, Note_on_c, 0, 73, 0
2, 194813, Control_c, 0, 64, 0
2, 194813, Note_on_c, 0, 66, 0
2, 194815, Note_on_c, 0, 88, 0
2, 194816, Note_on_c, 0, 76, 0
2, 194926, Control_c, 0, 64, 127
2, 194995, Note_on_c, 0, 74, 0
2, 195002, Note_on_c, 0, 71, 0
2, 195005, Note_on_c, 0, 74, 76
2, 195012, Note_on_c, 0, 71, 49
2, 195187, Note_on_c, 0, 74, 0
2, 195194, Note_on_c, 0, 71, 0
2, 195197, Note_on_c, 0, 74, 68
2, 195204, Note_on_c, 0, 71, 44
2, 195205, Note_on_c, 0, 76, 54
2, 195210, Note_on_c, 0, 76, 0
2, 195379, Note_on_c, 0, 67, 0
2, 195379, Note_on_c, 0, 71, 0
2, 195379, Note_on_c, 0, 74, 0
2, 195379, Note_on_c, 0, 78, 0
2, 195383, Note_on_c, 0, 74, 69
2, 195383, Note_on_c, 0, 78, 68
2, 195384, Note_on_c, 0, 67, 58
2, 195385, Note_on_c, 0, 71, 58
2, 195586, Note_on_c, 0, 74, 0
2, 195596, Note_on_c, 0, 74, 76
2, 195778, Note_on_c, 0, 74, 0
2, 195782, Note_on_c, 0, 74, 71
2, 195782, Note_on_c, 0, 83, 93
2, 195978, Note_on_c, 0, 74, 0
2, 195978, Note_on_c, 0, 83, 0
2, 195983, Note_on_c, 0, 83, 95
2, 195984, Note_on_c, 0, 74, 84
2, 195985, Note_on_c, 0, 67, 0
2, 195985, Note_on_c, 0, 71, 0
2, 195985, Note_on_c, 0, 78, 0
2, 195989, Note_on_c, 0, 78, 84
2, 195993, Control_c, 0, 64, 0
2, 195993, Note_on_c, 0, 67, 72
2, 195995, Note_on_c, 0, 71, 67
2, 196055, Control_c, 0, 64, 127
2, 196169, Note_on_c, 0, 85, 99
2, 196170, Note_on_c, 0, 74, 0
2, 196179, Note_on_c, 0, 74, 71
2, 196361, Note_on_c, 0, 71, 0
2, 196364, Note_on_c, 0, 83, 0
2, 196366, Note_on_c, 0, 85, 0
2, 196366, Control_c, 0, 64, 0
2, 196369, Note_on_c, 0, 86, 0
2, 196377, Note_on_c, 0, 74, 0
2, 196377, Note_on_c, 0, 78, 0
2, 196377, Note_on_c, 0, 86, 99
2, 196381, Note_on_c, 0, 78, 88
2, 196382, Note_on_c, 0, 74, 82
2, 196384, Note_on_c, 0, 69, 73
2, 196387, Note_on_c, 0, 66, 74
2, 196400, Note_on_c, 0, 67, 0
2, 196462, Control_c, 0, 64, 127
2, 196577, Note_on_c, 0, 74, 0
2, 196582, Note_on_c, 0, 74, 75
2, 196769, Note_on_c, 0, 69, 0
2, 196769, Note_on_c, 0, 74, 0
2, 196773, Note_on_c, 0, 74, 71
2, 196777, Note_on_c, 0, 69, 40
2, 196961, Note_on_c, 0, 74, 0
2, 196961, Note_on_c, 0, 78, 0
2, 196965, Note_on_c, 0, 81, 95
2, 196965, Note_on_c, 0, 74, 79
2, 196965, Note_on_c, 0, 78, 87
2, 196968, Note_on_c, 0, 66, 0
2, 196971, Control_c, 0, 64, 0
2, 196976, Note_on_c, 0, 69, 0
2, 196979, Note_on_c, 0, 66, 71
2, 196980, Note_on_c, 0, 69, 57
2, 197038, Control_c, 0, 64, 127
2, 197160, Note_on_c, 0, 74, 0
2, 197160, Note_on_c, 0, 81, 0
2, 197165, Note_on_c, 0, 81, 94
2, 197168, Note_on_c, 0, 66, 0
2, 197168, Note_on_c, 0, 69, 0
2, 197169, Note_on_c, 0, 74, 82
2, 197173, Note_on_c, 0, 69, 56
2, 197177, Note_on_c, 0, 66, 52
2, 197360, Note_on_c, 0, 74, 0
2, 197365, Note_on_c, 0, 74, 66
2, 197552, Note_on_c, 0, 78, 0
2, 197558, Note_on_c, 0, 78, 64
2, 197560, Note_on_c, 0, 66, 0
2, 197560, Note_on_c, 0, 69, 0
2, 197560, Note_on_c, 0, 74, 0
2, 197564, Note_on_c, 0, 74, 57
2, 197564, Note_on_c, 0, 69, 59
2, 197570, Note_on_c, 0, 66, 58
2, 197767, Note_on_c, 0, 74, 0
2, 197767, Note_on_c, 0, 81, 0
2, 197771, Note_on_c, 0, 74, 75
2, 197775, Note_on_c, 0, 81, 97
2, 197970, Note_on_c, 0, 81, 0
2, 197971, Note_on_c, 0, 78, 0
2, 197971, Note_on_c, 0, 69, 0
2, 197973, Control_c, 0, 64, 0
2, 197975, Note_on_c, 0, 74, 0
2, 197979, Note_on_c, 0, 91, 96
2, 197985, Note_on_c, 0, 74, 85
2, 197987, Note_on_c, 0, 71, 80
2, 197990, Note_on_c, 0, 66, 0
2, 197990, Note_on_c, 0, 86, 0
2, 197996, Note_on_c, 0, 86, 87
2, 197998, Note_on_c, 0, 67, 69
2, 198001, Note_on_c, 0, 64, 60
2, 198059, Control_c, 0, 64, 127
2, 198174, Note_on_c, 0, 74, 0
2, 198180, Note_on_c, 0, 74, 75
2, 198359, Note_on_c, 0, 74, 0
2, 198363, Note_on_c, 0, 90, 100
2, 198369, Note_on_c, 0, 74, 75
2, 198558, Note_on_c, 0, 74, 0
2, 198566, Note_on_c, 0, 64, 0
2, 198566, Note_on_c, 0, 67, 0
2, 198566, Note_on_c, 0, 71, 0
2, 198566, Note_on_c, 0, 86, 0
2, 198568, Note_on_c, 0, 74, 89
2, 198570, Note_on_c, 0, 88, 99
2, 198570, Control_c, 0, 64, 0
2, 198575, Note_on_c, 0, 71, 81
2, 198575, Note_on_c, 0, 86, 85
2, 198576, Note_on_c, 0, 67, 67
2, 198577, Note_on_c, 0, 64, 68
2, 198620, Note_on_c, 0, 90, 0
2, 198620, Note_on_c, 0, 91, 0
2, 198658, Control_c, 0, 64, 127
2, 198766, Note_on_c, 0, 74, 0
2, 198772, Note_on_c, 0, 74, 67
2, 198773, Note_on_c, 0, 71, 0
2, 198778, Note_on_c, 0, 71, 52
2, 198958, Note_on_c, 0, 74, 0
2, 198958, Note_on_c, 0, 86, 0
2, 198962, Note_on_c, 0, 86, 101
2, 198963, Note_on_c, 0, 74, 87
2, 199157, Note_on_c, 0, 71, 0
2, 199157, Note_on_c, 0, 74, 0
2, 199164, Note_on_c, 0, 74, 79
2, 199168, Note_on_c, 0, 71, 80
2, 199173, Note_on_c, 0, 64, 0
2, 199173, Note_on_c, 0, 67, 0
2, 199181, Note_on_c, 0, 64, 57
2, 199184, Note_on_c, 0, 67, 65
2, 199349, Note_on_c, 0, 74, 0
2, 199349, Note_on_c, 0, 86, 0
2, 199355, Note_on_c, 0, 74, 81
2, 199355, Note_on_c, 0, 86, 105
2, 199564, Note_on_c, 0, 64, 0
2, 199564, Note_on_c, 0, 67, 0
2, 199570, Note_on_c, 0, 67, 87
2, 199572, Note_on_c, 0, 57, 92
2, 199574, Note_on_c, 0, 64, 88
2, 199587, Note_on_c, 0, 88, 0
2, 199606, Control_c, 0, 64, 0
2, 199703, Control_c, 0, 64, 127
2, 199807, Control_c, 0, 64, 0
2, 199828, Note_on_c, 0, 74, 0
2, 199828, Note_on_c, 0, 71, 0
2, 199828, Note_on_c, 0, 86, 0
2, 199828, Note_on_c, 0, 57, 0
2, 199829, Note_on_c, 0, 67, 0
2, 199830, Note_on_c, 0, 64, 0
2, 199968, Note_on_c, 0, 85, 103
2, 199970, Note_on_c, 0, 73, 102
2, 200033, Control_c, 0, 64, 127
2, 200190, Note_on_c, 0, 86, 109
2, 200192, Note_on_c, 0, 74, 106
2, 200222, Control_c, 0, 64, 0
2, 200317, Control_c, 0, 64, 127
2, 200599, Note_on_c, 0, 57, 108
2, 200600, Note_on_c, 0, 88, 108
2, 200601, Note_on_c, 0, 85, 0
2, 200605, Control_c, 0, 64, 0
2, 200606, Note_on_c, 0, 85, 103
2, 200607, Note_on_c, 0, 76, 104
2, 200611, Note_on_c, 0, 79, 96
2, 200620, Note_on_c, 0, 86, 0
2, 200620, Note_on_c, 0, 73, 0
2, 200620, Note_on_c, 0, 74, 0
2, 200686, Control_c, 0, 64, 127
2, 200786, Note_on_c, 0, 52, 93
2, 200896, Note_on_c, 0, 45, 103
2, 200994, Note_on_c, 0, 40, 94
2, 201088, Note_on_c, 0, 33, 93
2, 201181, Control_c, 0, 64, 0
2, 201183, Note_on_c, 0, 40, 0
2, 201183, Note_on_c, 0, 33, 0
2, 201183, Note_on_c, 0, 57, 0
2, 201186, Note_on_c, 0, 76, 0
2, 201186, Note_on_c, 0, 52, 0
2, 201186, Note_on_c, 0, 88, 0
2, 201188, Note_on_c, 0, 45, 0
2, 201192, Note_on_c, 0, 79, 0
2, 201199, Note_on_c, 0, 79, 111
2, 201200, Note_on_c, 0, 85, 0
2, 201202, Note_on_c, 0, 67, 106
2, 201580, Note_on_c, 0, 38, 99
2, 201580, Note_on_c, 0, 26, 98
2, 201607, Control_c, 0, 64, 127
2, 201774, Note_on_c, 0, 78, 109
2, 201775, Note_on_c, 0, 66, 108
2, 201960, Note_on_c, 0, 66, 0
2, 201960, Note_on_c, 0, 78, 0
2, 201969, Note_on_c, 0, 78, 108
2, 201970, Note_on_c, 0, 62, 104
2, 201971, Note_on_c, 0, 57, 109
2, 201971, Note_on_c, 0, 69, 96
2, 201971, Control_c, 0, 64, 0
2, 201971, Note_on_c, 0, 74, 101
2, 201971, Note_on_c, 0, 66, 109
2, 201972, Note_on_c, 0, 54, 105
2, 202022, Control_c, 0, 64, 127
2, 202076, Note_on_c, 0, 26, 0
2, 202222, Note_on_c, 0, 69, 0
2, 202226, Note_on_c, 0, 69, 94
2, 202237, Note_on_c, 0, 57, 0
2, 202241, Note_on_c, 0, 57, 94
2, 202248, Note_on_c, 0, 45, 103
2, 202268, Note_on_c, 0, 74, 0
2, 202279, Note_on_c, 0, 74, 82
2, 202325, Note_on_c, 0, 76, 90
2, 202387, Note_on_c, 0, 81, 94
2, 202440, Note_on_c, 0, 86, 96
2, 202494, Note_on_c, 0, 88, 103
2, 202548, Note_on_c, 0, 93, 105
2, 202552, Note_on_c, 0, 45, 0
2, 202562, Note_on_c, 0, 33, 91
2, 202563, Note_on_c, 0, 45, 101
2, 202728, Control_c, 0, 64, 0
2, 202731, Note_on_c, 0, 79, 0
2, 202732, Note_on_c, 0, 74, 0
2, 202732, Note_on_c, 0, 62, 0
2, 202732, Note_on_c, 0, 38, 0
2, 202732, Note_on_c, 0, 76, 0
2, 202732, Note_on_c, 0, 33, 0
2, 202732, Note_on_c, 0, 66, 0
2, 202732, Note_on_c, 0, 45, 0
2, 202732, Note_on_c, 0, 93, 0
2, 202732, Note_on_c, 0, 57, 0
2, 202732, Note_on_c, 0, 78, 0
2, 202733, Note_on_c, 0, 54, 0
2, 202733, Note_on_c, 0, 69, 0
2, 202734, Note_on_c, 0, 88, 0
2, 202736, Note_on_c, 0, 67, 0
2, 202759, Note_on_c, 0, 81, 0
2, 202759, Note_on_c, 0, 86, 0
2, 202760, Note_on_c, 0, 91, 110
2, 202764, Note_on_c, 0, 81, 102
2, 202766, Note_on_c, 0, 79, 104
2, 202769, Note_on_c, 0, 38, 102
2, 202770, Note_on_c, 0, 86, 101
2, 202836, Control_c, 0, 64, 127
2, 202944, Note_on_c, 0, 38, 0
2, 202952, Note_on_c, 0, 38, 90
2, 203047, Note_on_c, 0, 50, 76
2, 203051, Note_on_c, 0, 50, 0
2, 203128, Note_on_c, 0, 38, 0
2, 203139, Note_on_c, 0, 38, 89
2, 203335, Note_on_c, 0, 81, 0
2, 203339, Note_on_c, 0, 90, 110
2, 203339, Note_on_c, 0, 62, 103
2, 203341, Note_on_c, 0, 78, 114
2, 203343, Note_on_c, 0, 86, 0
2, 203345, Note_on_c, 0, 57, 103
2, 203346, Note_on_c, 0, 54, 101
2, 203346, Note_on_c, 0, 81, 105
2, 203348, Note_on_c, 0, 86, 97
2, 203527, Note_on_c, 0, 78, 0
2, 203527, Note_on_c, 0, 90, 0
2, 203535, Note_on_c, 0, 81, 0
2, 203538, Note_on_c, 0, 90, 111
2, 203538, Note_on_c, 0, 78, 110
2, 203539, Note_on_c, 0, 81, 102
2, 203712, Note_on_c, 0, 50, 94
2, 203896, Note_on_c, 0, 54, 0
2, 203896, Note_on_c, 0, 57, 0
2, 203896, Note_on_c, 0, 62, 0
2, 203901, Note_on_c, 0, 62, 103
2, 203901, Note_on_c, 0, 76, 103
2, 203901, Note_on_c, 0, 57, 103
2, 203902, Note_on_c, 0, 54, 93
2, 203903, Note_on_c, 0, 74, 98
2, 203905, Note_on_c, 0, 69, 88
2, 204096, Note_on_c, 0, 74, 0
2, 204102, Note_on_c, 0, 74, 106
2, 204249, Note_on_c, 0, 91, 0
2, 204257, Note_on_c, 0, 86, 0
2, 204257, Note_on_c, 0, 50, 0
2, 204258, Note_on_c, 0, 69, 0
2, 204258, Note_on_c, 0, 62, 0
2, 204259, Note_on_c, 0, 81, 0
2, 204259, Note_on_c, 0, 57, 0
2, 204259, Note_on_c, 0, 74, 0
2, 204259, Note_on_c, 0, 54, 0
2, 204261, Control_c, 0, 64, 0
2, 204264, Note_on_c, 0, 79, 0
2, 204264, Note_on_c, 0, 90, 0
2, 204272, Note_on_c, 0, 38, 0
2, 204272, Note_on_c, 0, 76, 0
2, 204272, Note_on_c, 0, 78, 0
2, 204322, Note_on_c, 0, 78, 107
2, 204323, Note_on_c, 0, 45, 95
2, 204323, Note_on_c, 0, 73, 100
2, 204323, Note_on_c, 0, 49, 102
2, 204325, Note_on_c, 0, 69, 100
2, 204327, Note_on_c, 0, 37, 96
2, 204364, Control_c, 0, 64, 127
2, 204495, Note_on_c, 0, 37, 0
2, 204500, Note_on_c, 0, 37, 88
2, 204579, Note_on_c, 0, 49, 0
2, 204590, Note_on_c, 0, 49, 82
2, 204687, Note_on_c, 0, 37, 0
2, 204696, Note_on_c, 0, 37, 91
2, 204910, Note_on_c, 0, 69, 0
2, 204910, Note_on_c, 0, 73, 0
2, 204915, Note_on_c, 0, 76, 107
2, 204919, Note_on_c, 0, 57, 106
2, 204919, Note_on_c, 0, 73, 106
2, 204919, Note_on_c, 0, 69, 98
2, 204920, Note_on_c, 0, 64, 106
2, 204921, Note_on_c, 0, 52, 95
2, 205109, Note_on_c, 0, 52, 0
2, 205109, Note_on_c, 0, 57, 0
2, 205109, Note_on_c, 0, 64, 0
2, 205109, Note_on_c, 0, 69, 0
2, 205109, Note_on_c, 0, 73, 0
2, 205109, Note_on_c, 0, 76, 0
2, 205114, Note_on_c, 0, 76, 103
2, 205115, Note_on_c, 0, 73, 101
2, 205116, Note_on_c, 0, 57, 83
2, 205118, Note_on_c, 0, 52, 80
2, 205119, Note_on_c, 0, 69, 80
2, 205120, Note_on_c, 0, 64, 99
2, 205309, Note_on_c, 0, 76, 0
2, 205317, Note_on_c, 0, 49, 0
2, 205317, Note_on_c, 0, 76, 99
2, 205322, Note_on_c, 0, 49, 87
2, 205387, Note_on_c, 0, 81, 93
2, 205452, Note_on_c, 0, 85, 76
2, 205486, Note_on_c, 0, 52, 0
2, 205486, Note_on_c, 0, 57, 0
2, 205490, Note_on_c, 0, 88, 106
2, 205491, Note_on_c, 0, 57, 96
2, 205492, Note_on_c, 0, 52, 86
2, 205640, Note_on_c, 0, 81, 0
2, 205640, Note_on_c, 0, 69, 0
2, 205641, Note_on_c, 0, 45, 0
2, 205641, Note_on_c, 0, 73, 0
2, 205641, Note_on_c, 0, 49, 0
2, 205641, Note_on_c, 0, 85, 0
2, 205641, Note_on_c, 0, 64, 0
2, 205641, Control_c, 0, 64, 0
2, 205641, Note_on_c, 0, 76, 0
2, 205641, Note_on_c, 0, 52, 0
2, 205642, Note_on_c, 0, 57, 0
2, 205643, Note_on_c, 0, 88, 0
2, 205655, Note_on_c, 0, 37, 0
2, 205655, Note_on_c, 0, 78, 0
2, 205718, Note_on_c, 0, 90, 112
2, 205719, Note_on_c, 0, 78, 109
2, 205720, Note_on_c, 0, 85, 103
2, 205720, Note_on_c, 0, 42, 107
2, 205720, Note_on_c, 0, 30, 103
2, 205720, Note_on_c, 0, 82, 100
2, 205854, Control_c, 0, 64, 127
2, 206089, Note_on_c, 0, 54, 99
2, 206089, Note_on_c, 0, 49, 93
2, 206093, Note_on_c, 0, 91, 111
2, 206093, Note_on_c, 0, 79, 106
2, 206269, Note_on_c, 0, 78, 0
2, 206269, Note_on_c, 0, 82, 0
2, 206269, Note_on_c, 0, 85, 0
2, 206269, Note_on_c, 0, 90, 0
2, 206274, Note_on_c, 0, 90, 112
2, 206275, Note_on_c, 0, 82, 110
2, 206276, Note_on_c, 0, 85, 104
2, 206277, Note_on_c, 0, 78, 110
2, 206453, Note_on_c, 0, 42, 0
2, 206458, Note_on_c, 0, 42, 85
2, 206481, Note_on_c, 0, 88, 111
2, 206482, Note_on_c, 0, 76, 109
2, 206668, Note_on_c, 0, 85, 0
2, 206672, Note_on_c, 0, 64, 105
2, 206673, Note_on_c, 0, 61, 103
2, 206673, Note_on_c, 0, 58, 104
2, 206676, Note_on_c, 0, 85, 109
2, 206678, Note_on_c, 0, 97, 111
2, 206983, Note_on_c, 0, 78, 0
2, 206983, Note_on_c, 0, 90, 0
2, 206990, Note_on_c, 0, 90, 114
2, 206994, Note_on_c, 0, 78, 110
2, 207075, Note_on_c, 0, 42, 0
2, 207075, Note_on_c, 0, 54, 0
2, 207082, Note_on_c, 0, 42, 106
2, 207082, Note_on_c, 0, 54, 105
2, 207260, Note_on_c, 0, 76, 0
2, 207260, Note_on_c, 0, 88, 0
2, 207268, Note_on_c, 0, 88, 110
2, 207269, Note_on_c, 0, 76, 109
2, 207418, Note_on_c, 0, 42, 0
2, 207419, Note_on_c, 0, 61, 0
2, 207420, Note_on_c, 0, 58, 0
2, 207422, Note_on_c, 0, 90, 0
2, 207422, Note_on_c, 0, 64, 0
2, 207422, Note_on_c, 0, 54, 0
2, 207423, Note_on_c, 0, 49, 0
2, 207423, Note_on_c, 0, 82, 0
2, 207424, Control_c, 0, 64, 0
2, 207425, Note_on_c, 0, 85, 0
2, 207425, Note_on_c, 0, 79, 0
2, 207425, Note_on_c, 0, 76, 0
2, 207429, Note_on_c, 0, 91, 0
2, 207429, Note_on_c, 0, 97, 0
2, 207430, Note_on_c, 0, 88, 0
2, 207436, Note_on_c, 0, 30, 0
2, 207459, Note_on_c, 0, 78, 0
2, 207463, Note_on_c, 0, 43, 105
2, 207464, Note_on_c, 0, 86, 110
2, 207464, Note_on_c, 0, 74, 110
2, 207465, Note_on_c, 0, 31, 100
2, 207469, Note_on_c, 0, 78, 107
2, 207470, Note_on_c, 0, 83, 100
2, 207521, Control_c, 0, 64, 127
2, 207636, Note_on_c, 0, 43, 0
2, 207647, Note_on_c, 0, 43, 94
2, 207747, Note_on_c, 0, 50, 86
2, 207820, Note_on_c, 0, 43, 0
2, 207825, Note_on_c, 0, 43, 98
2, 208033, Note_on_c, 0, 62, 102
2, 208038, Note_on_c, 0, 59, 96
2, 208038, Note_on_c, 0, 57, 100
2, 208404, Note_on_c, 0, 43, 0
2, 208414, Note_on_c, 0, 43, 95
2, 208416, Note_on_c, 0, 71, 102
2, 208604, Note_on_c, 0, 57, 0
2, 208604, Note_on_c, 0, 59, 0
2, 208604, Note_on_c, 0, 62, 0
2, 208604, Note_on_c, 0, 71, 0
2, 208608, Note_on_c, 0, 59, 94
2, 208609, Note_on_c, 0, 62, 101
2, 208611, Note_on_c, 0, 57, 96
2, 208615, Note_on_c, 0, 71, 104
2, 208810, Note_on_c, 0, 73, 104
2, 208885, Control_c, 0, 64, 0
2, 208899, Note_on_c, 0, 78, 0
2, 208899, Note_on_c, 0, 86, 0
2, 208900, Note_on_c, 0, 57, 0
2, 208900, Note_on_c, 0, 62, 0
2, 208900, Note_on_c, 0, 59, 0
2, 208900, Note_on_c, 0, 83, 0
2, 208900, Note_on_c, 0, 71, 0
2, 208902, Note_on_c, 0, 74, 0
2, 208911, Note_on_c, 0, 31, 0
2, 208919, Note_on_c, 0, 50, 0
2, 208957, Note_on_c, 0, 43, 0
2, 208980, Note_on_c, 0, 73, 0
2, 209006, Note_on_c, 0, 74, 111
2, 209009, Note_on_c, 0, 69, 97
2, 209015, Note_on_c, 0, 54, 104
2, 209016, Note_on_c, 0, 42, 105
2, 209016, Note_on_c, 0, 50, 98
2, 209064, Control_c, 0, 64, 127
2, 209187, Note_on_c, 0, 42, 0
2, 209198, Note_on_c, 0, 42, 94
2, 209303, Note_on_c, 0, 50, 0
2, 209306, Note_on_c, 0, 50, 86
2, 209372, Note_on_c, 0, 42, 0
2, 209382, Note_on_c, 0, 42, 95
2, 209393, Note_on_c, 0, 76, 105
2, 209579, Note_on_c, 0, 54, 0
2, 209579, Note_on_c, 0, 74, 0
2, 209585, Note_on_c, 0, 62, 105
2, 209587, Note_on_c, 0, 69, 0
2, 209588, Note_on_c, 0, 74, 109
2, 209589, Note_on_c, 0, 57, 105
2, 209590, Note_on_c, 0, 54, 98
2, 209591, Note_on_c, 0, 69, 82
2, 209963, Note_on_c, 0, 42, 0
2, 209963, Note_on_c, 0, 54, 0
2, 209968, Note_on_c, 0, 42, 97
2, 209971, Note_on_c, 0, 69, 0
2, 209971, Note_on_c, 0, 54, 96
2, 209974, Note_on_c, 0, 81, 108
2, 209977, Note_on_c, 0, 69, 107
2, 210163, Note_on_c, 0, 54, 0
2, 210163, Note_on_c, 0, 62, 0
2, 210163, Note_on_c, 0, 74, 0
2, 210167, Note_on_c, 0, 54, 96
2, 210167, Note_on_c, 0, 62, 101
2, 210168, Note_on_c, 0, 86, 110
2, 210169, Note_on_c, 0, 74, 105
2, 210350, Note_on_c, 0, 90, 114
2, 210352, Note_on_c, 0, 78, 102
2, 210540, Control_c, 0, 64, 0
2, 210541, Note_on_c, 0, 42, 0
2, 210541, Note_on_c, 0, 76, 0
2, 210541, Note_on_c, 0, 86, 0
2, 210542, Note_on_c, 0, 69, 0
2, 210542, Note_on_c, 0, 81, 0
2, 210542, Note_on_c, 0, 57, 0
2, 210542, Note_on_c, 0, 74, 0
2, 210543, Note_on_c, 0, 62, 0
2, 210543, Note_on_c, 0, 54, 0
2, 210543, Note_on_c, 0, 78, 0
2, 210543, Note_on_c, 0, 90, 0
2, 210554, Note_on_c, 0, 50, 0
2, 210560, Note_on_c, 0, 55, 102
2, 210561, Note_on_c, 0, 47, 103
2, 210570, Note_on_c, 0, 40, 99
2, 210573, Note_on_c, 0, 95, 111
2, 210573, Note_on_c, 0, 83, 109
2, 210576, Note_on_c, 0, 86, 105
2, 210608, Control_c, 0, 64, 127
2, 210775, Note_on_c, 0, 93, 102
2, 210779, Note_on_c, 0, 81, 100
2, 210950, Note_on_c, 0, 91, 109
2, 210951, Note_on_c, 0, 79, 104
2, 210952, Note_on_c, 0, 52, 97
2, 211130, Note_on_c, 0, 81, 0
2, 211130, Note_on_c, 0, 93, 0
2, 211138, Note_on_c, 0, 55, 0
2, 211138, Note_on_c, 0, 86, 0
2, 211141, Note_on_c, 0, 93, 110
2, 211142, Note_on_c, 0, 81, 106
2, 211142, Note_on_c, 0, 62, 102
2, 211144, Note_on_c, 0, 59, 102
2, 211146, Note_on_c, 0, 86, 101
2, 211147, Note_on_c, 0, 55, 97
2, 211156, Note_on_c, 0, 90, 96
2, 211330, Note_on_c, 0, 79, 0
2, 211330, Note_on_c, 0, 91, 0
2, 211334, Note_on_c, 0, 91, 110
2, 211335, Note_on_c, 0, 79, 105
2, 211530, Note_on_c, 0, 52, 0
2, 211530, Note_on_c, 0, 90, 0
2, 211534, Note_on_c, 0, 90, 110
2, 211534, Note_on_c, 0, 52, 92
2, 211535, Note_on_c, 0, 78, 106
2, 211706, Note_on_c, 0, 62, 0
2, 211710, Note_on_c, 0, 62, 99
2, 211714, Note_on_c, 0, 55, 0
2, 211714, Note_on_c, 0, 59, 0
2, 211719, Note_on_c, 0, 59, 91
2, 211722, Note_on_c, 0, 86, 0
2, 211723, Note_on_c, 0, 55, 94
2, 211726, Note_on_c, 0, 88, 105
2, 211727, Note_on_c, 0, 86, 86
2, 211728, Note_on_c, 0, 76, 105
2, 211921, Note_on_c, 0, 79, 0
2, 211921, Note_on_c, 0, 83, 0
2, 211921, Note_on_c, 0, 86, 0
2, 211926, Note_on_c, 0, 86, 109
2, 211931, Note_on_c, 0, 74, 107
2, 211932, Note_on_c, 0, 79, 104
2, 211932, Note_on_c, 0, 83, 99
2, 212115, Note_on_c, 0, 45, 109
2, 212115, Note_on_c, 0, 33, 100
2, 212331, Note_on_c, 0, 57, 79
2, 212346, Note_on_c, 0, 62, 0
2, 212347, Note_on_c, 0, 59, 0
2, 212347, Note_on_c, 0, 33, 0
2, 212347, Note_on_c, 0, 40, 0
2, 212347, Note_on_c, 0, 47, 0
2, 212347, Note_on_c, 0, 76, 0
2, 212348, Note_on_c, 0, 78, 0
2, 212348, Note_on_c, 0, 45, 0
2, 212348, Note_on_c, 0, 55, 0
2, 212348, Note_on_c, 0, 91, 0
2, 212348, Note_on_c, 0, 83, 0
2, 212348, Note_on_c, 0, 93, 0
2, 212348, Note_on_c, 0, 90, 0
2, 212348, Note_on_c, 0, 79, 0
2, 212348, Note_on_c, 0, 88, 0
2, 212348, Note_on_c, 0, 86, 0
2, 212348, Note_on_c, 0, 74, 0
2, 212350, Control_c, 0, 64, 0
2, 212352, Note_on_c, 0, 95, 0
2, 212359, Note_on_c, 0, 57, 0
2, 212359, Note_on_c, 0, 81, 0
2, 212367, Note_on_c, 0, 52, 0
2, 212503, Note_on_c, 0, 86, 108
2, 212507, Note_on_c, 0, 74, 105
2, 212546, Note_on_c, 0, 74, 0
2, 212548, Note_on_c, 0, 86, 0
2, 212714, Note_on_c, 0, 73, 110
2, 212714, Note_on_c, 0, 85, 108
2, 212716, Note_on_c, 0, 76, 102
2, 212716, Note_on_c, 0, 81, 97
2, 212728, Control_c, 0, 64, 127
2, 212913, Note_on_c, 0, 69, 104
2, 212915, Note_on_c, 0, 64, 102
2, 212920, Note_on_c, 0, 57, 103
2, 212921, Note_on_c, 0, 61, 98
2, 213204, Note_on_c, 0, 57, 0
2, 213208, Note_on_c, 0, 45, 106
2, 213209, Note_on_c, 0, 57, 96
2, 213323, Note_on_c, 0, 74, 106
2, 213323, Note_on_c, 0, 86, 109
2, 213504, Note_on_c, 0, 45, 0
2, 213507, Note_on_c, 0, 33, 96
2, 213508, Control_c, 0, 64, 0
2, 213514, Note_on_c, 0, 45, 99
2, 213514, Note_on_c, 0, 64, 0
2, 213514, Note_on_c, 0, 61, 0
2, 213515, Note_on_c, 0, 85, 0
2, 213516, Note_on_c, 0, 73, 0
2, 213517, Note_on_c, 0, 57, 0
2, 213517, Note_on_c, 0, 69, 0
2, 213519, Note_on_c, 0, 86, 0
2, 213527, Note_on_c, 0, 74, 0
2, 213527, Note_on_c, 0, 81, 0
2, 213530, Note_on_c, 0, 86, 109
2, 213532, Note_on_c, 0, 78, 109
2, 213533, Note_on_c, 0, 74, 108
2, 213534, Note_on_c, 0, 76, 0
2, 213537, Note_on_c, 0, 81, 102
2, 213557, Control_c, 0, 64, 127
2, 213672, Control_c, 0, 64, 0
2, 213688, Note_on_c, 0, 45, 0
2, 213729, Note_on_c, 0, 38, 99
2, 213731, Note_on_c, 0, 26, 97
2, 213880, Control_c, 0, 64, 127
2, 214103, Note_on_c, 0, 38, 0
2, 214107, Note_on_c, 0, 38, 93
2, 214118, Note_on_c, 0, 33, 0
2, 214321, Note_on_c, 0, 62, 100
2, 214323, Note_on_c, 0, 57, 103
2, 214324, Note_on_c, 0, 54, 97
2, 214540, Note_on_c, 0, 74, 0
2, 214549, Note_on_c, 0, 74, 92
2, 214709, Note_on_c, 0, 81, 0
2, 214714, Note_on_c, 0, 81, 75
2, 214719, Note_on_c, 0, 50, 74
2, 214909, Note_on_c, 0, 86, 0
2, 214917, Note_on_c, 0, 54, 0
2, 214917, Note_on_c, 0, 57, 0
2, 214919, Note_on_c, 0, 86, 95
2, 214921, Note_on_c, 0, 57, 84
2, 214921, Note_on_c, 0, 54, 77
2, 215109, Note_on_c, 0, 74, 0
2, 215119, Note_on_c, 0, 74, 82
2, 215293, Note_on_c, 0, 54, 0
2, 215293, Note_on_c, 0, 57, 0
2, 215298, Note_on_c, 0, 61, 101
2, 215303, Note_on_c, 0, 54, 88
2, 215303, Note_on_c, 0, 57, 99
2, 215500, Note_on_c, 0, 74, 0
2, 215511, Note_on_c, 0, 74, 81
2, 215662, Note_on_c, 0, 50, 0
2, 215668, Note_on_c, 0, 50, 78
2, 215692, Note_on_c, 0, 81, 0
2, 215703, Note_on_c, 0, 81, 79
2, 215729, Control_c, 0, 64, 0
2, 215738, Control_c, 0, 64, 127
2, 215877, Note_on_c, 0, 62, 0
2, 215877, Note_on_c, 0, 86, 0
2, 215884, Note_on_c, 0, 54, 0
2, 215884, Note_on_c, 0, 57, 0
2, 215887, Note_on_c, 0, 86, 99
2, 215888, Note_on_c, 0, 62, 99
2, 215888, Note_on_c, 0, 57, 99
2, 215891, Note_on_c, 0, 54, 91
2, 216069, Note_on_c, 0, 74, 0
2, 216080, Note_on_c, 0, 74, 73
2, 216276, Note_on_c, 0, 50, 0
2, 216280, Note_on_c, 0, 50, 85
2, 216284, Note_on_c, 0, 81, 0
2, 216290, Note_on_c, 0, 81, 78
2, 216476, Note_on_c, 0, 57, 0
2, 216476, Note_on_c, 0, 86, 0
2, 216483, Note_on_c, 0, 54, 0
2, 216484, Note_on_c, 0, 64, 98
2, 216485, Note_on_c, 0, 86, 98
2, 216486, Note_on_c, 0, 57, 92
2, 216487, Note_on_c, 0, 54, 84
2, 216668, Note_on_c, 0, 74, 0
2, 216673, Note_on_c, 0, 74, 86
2, 216673, Note_on_c, 0, 40, 90
2, 216822, Control_c, 0, 64, 0
2, 216824, Note_on_c, 0, 74, 0
2, 216824, Note_on_c, 0, 57, 0
2, 216824, Note_on_c, 0, 81, 0
2, 216824, Note_on_c, 0, 86, 0
2, 216824, Note_on_c, 0, 62, 0
2, 216825, Note_on_c, 0, 54, 0
2, 216825, Note_on_c, 0, 38, 0
2, 216825, Note_on_c, 0, 50, 0
2, 216825, Note_on_c, 0, 40, 0
2, 216826, Note_on_c, 0, 64, 0
2, 216829, Note_on_c, 0, 26, 0
2, 216844, Note_on_c, 0, 78, 0
2, 216867, Note_on_c, 0, 61, 0
2, 216872, Note_on_c, 0, 42, 91
2, 216872, Note_on_c, 0, 61, 101
2, 216873, Note_on_c, 0, 52, 92
2, 216876, Note_on_c, 0, 57, 96
2, 216960, Control_c, 0, 64, 127
2, 217270, Note_on_c, 0, 73, 74
2, 217466, Note_on_c, 0, 57, 0
2, 217471, Note_on_c, 0, 85, 100
2, 217474, Note_on_c, 0, 52, 0
2, 217474, Note_on_c, 0, 81, 93
2, 217476, Note_on_c, 0, 57, 98
2, 217486, Note_on_c, 0, 52, 86
2, 217486, Note_on_c, 0, 49, 83
2, 217499, Control_c, 0, 64, 0
2, 217589, Control_c, 0, 64, 127
2, 217612, Note_on_c, 0, 61, 0
2, 217658, Note_on_c, 0, 73, 0
2, 217666, Note_on_c, 0, 73, 80
2, 217720, Note_on_c, 0, 42, 0
2, 217864, Note_on_c, 0, 42, 75
2, 217888, Note_on_c, 0, 76, 69
2, 218042, Note_on_c, 0, 85, 0
2, 218049, Note_on_c, 0, 85, 95
2, 218058, Note_on_c, 0, 49, 0
2, 218064, Note_on_c, 0, 49, 76
2, 218065, Note_on_c, 0, 76, 0
2, 218065, Note_on_c, 0, 81, 0
2, 218071, Note_on_c, 0, 81, 73
2, 218071, Note_on_c, 0, 76, 68
2, 218234, Note_on_c, 0, 42, 0
2, 218242, Note_on_c, 0, 73, 0
2, 218245, Note_on_c, 0, 42, 83
2, 218248, Note_on_c, 0, 73, 84
2, 218434, Note_on_c, 0, 49, 0
2, 218436, Note_on_c, 0, 58, 106
2, 218438, Note_on_c, 0, 54, 98
2, 218440, Note_on_c, 0, 49, 91
2, 218634, Note_on_c, 0, 73, 0
2, 218645, Note_on_c, 0, 73, 82
2, 218803, Note_on_c, 0, 42, 0
2, 218812, Note_on_c, 0, 42, 88
2, 218831, Note_on_c, 0, 78, 84
2, 219025, Note_on_c, 0, 49, 0
2, 219025, Note_on_c, 0, 85, 0
2, 219030, Note_on_c, 0, 59, 105
2, 219033, Note_on_c, 0, 85, 96
2, 219034, Note_on_c, 0, 49, 93
2, 219043, Note_on_c, 0, 82, 79
2, 219210, Note_on_c, 0, 73, 0
2, 219217, Note_on_c, 0, 73, 83
2, 219394, Note_on_c, 0, 42, 0
2, 219405, Note_on_c, 0, 42, 100
2, 219417, Note_on_c, 0, 78, 0
2, 219428, Note_on_c, 0, 78, 84
2, 219601, Note_on_c, 0, 85, 0
2, 219606, Note_on_c, 0, 61, 103
2, 219609, Note_on_c, 0, 82, 0
2, 219612, Note_on_c, 0, 85, 104
2, 219619, Note_on_c, 0, 82, 91
2, 219786, Note_on_c, 0, 73, 0
2, 219792, Note_on_c, 0, 73, 85
2, 219955, Control_c, 0, 64, 0
2, 219955, Note_on_c, 0, 59, 0
2, 219955, Note_on_c, 0, 42, 0
2, 219956, Note_on_c, 0, 54, 0
2, 219956, Note_on_c, 0, 78, 0
2, 219956, Note_on_c, 0, 58, 0
2, 219956, Note_on_c, 0, 81, 0
2, 219957, Note_on_c, 0, 49, 0
2, 219957, Note_on_c, 0, 76, 0
2, 219957, Note_on_c, 0, 57, 0
2, 219957, Note_on_c, 0, 52, 0
2, 219958, Note_on_c, 0, 73, 0
2, 219958, Note_on_c, 0, 82, 0
2, 219958, Note_on_c, 0, 61, 0
2, 219958, Note_on_c, 0, 85, 0
2, 220005, Note_on_c, 0, 43, 94
2, 220005, Note_on_c, 0, 62, 102
2, 220008, Note_on_c, 0, 55, 98
2, 220011, Note_on_c, 0, 57, 100
2, 220011, Note_on_c, 0, 59, 99
2, 220078, Control_c, 0, 64, 127
2, 220383, Note_on_c, 0, 74, 80
2, 220421, Note_on_c, 0, 50, 71
2, 220577, Note_on_c, 0, 57, 0
2, 220584, Note_on_c, 0, 55, 0
2, 220584, Note_on_c, 0, 59, 0
2, 220593, Note_on_c, 0, 59, 89
2, 220595, Note_on_c, 0, 86, 98
2, 220596, Note_on_c, 0, 55, 75
2, 220597, Note_on_c, 0, 83, 85
2, 220784, Note_on_c, 0, 74, 0
2, 220794, Note_on_c, 0, 74, 78
2, 220961, Note_on_c, 0, 43, 0
2, 220970, Note_on_c, 0, 43, 87
2, 220974, Note_on_c, 0, 79, 77
2, 221168, Note_on_c, 0, 59, 0
2, 221168, Note_on_c, 0, 86, 0
2, 221172, Note_on_c, 0, 59, 102
2, 221174, Note_on_c, 0, 86, 97
2, 221176, Note_on_c, 0, 79, 0
2, 221180, Note_on_c, 0, 79, 76
2, 221368, Note_on_c, 0, 74, 0
2, 221373, Note_on_c, 0, 74, 84
2, 221524, Control_c, 0, 64, 0
2, 221535, Note_on_c, 0, 50, 0
2, 221537, Note_on_c, 0, 86, 0
2, 221538, Note_on_c, 0, 62, 0
2, 221539, Note_on_c, 0, 43, 0
2, 221539, Note_on_c, 0, 55, 0
2, 221540, Note_on_c, 0, 79, 0
2, 221540, Note_on_c, 0, 59, 0
2, 221540, Note_on_c, 0, 83, 0
2, 221549, Note_on_c, 0, 42, 95
2, 221553, Note_on_c, 0, 57, 101
2, 221637, Control_c, 0, 64, 127
2, 221744, Note_on_c, 0, 74, 0
2, 221756, Note_on_c, 0, 74, 83
2, 221940, Note_on_c, 0, 50, 69
2, 221946, Note_on_c, 0, 78, 74
2, 222144, Note_on_c, 0, 57, 0
2, 222149, Note_on_c, 0, 86, 95
2, 222151, Note_on_c, 0, 78, 0
2, 222151, Note_on_c, 0, 57, 87
2, 222155, Note_on_c, 0, 81, 77
2, 222156, Note_on_c, 0, 54, 76
2, 222156, Note_on_c, 0, 78, 76
2, 222343, Note_on_c, 0, 74, 0
2, 222351, Note_on_c, 0, 74, 80
2, 222543, Note_on_c, 0, 50, 0
2, 222543, Note_on_c, 0, 78, 0
2, 222547, Note_on_c, 0, 78, 70
2, 222549, Note_on_c, 0, 50, 89
2, 222727, Note_on_c, 0, 78, 0
2, 222727, Note_on_c, 0, 81, 0
2, 222727, Note_on_c, 0, 86, 0
2, 222731, Note_on_c, 0, 86, 103
2, 222732, Note_on_c, 0, 62, 101
2, 222732, Note_on_c, 0, 81, 94
2, 222734, Note_on_c, 0, 78, 94
2, 222912, Note_on_c, 0, 74, 0
2, 222922, Note_on_c, 0, 74, 91
2, 223057, Note_on_c, 0, 50, 0
2, 223059, Note_on_c, 0, 42, 0
2, 223059, Note_on_c, 0, 86, 0
2, 223060, Note_on_c, 0, 81, 0
2, 223060, Note_on_c, 0, 78, 0
2, 223061, Note_on_c, 0, 57, 0
2, 223062, Note_on_c, 0, 54, 0
2, 223062, Control_c, 0, 64, 0
2, 223123, Note_on_c, 0, 40, 86
2, 223123, Note_on_c, 0, 55, 95
2, 223125, Note_on_c, 0, 47, 94
2, 223129, Note_on_c, 0, 69, 105
2, 223188, Control_c, 0, 64, 127
2, 223319, Note_on_c, 0, 74, 0
2, 223329, Note_on_c, 0, 74, 89
2, 223537, Note_on_c, 0, 81, 81
2, 223723, Note_on_c, 0, 52, 85
2, 223725, Note_on_c, 0, 86, 99
2, 223918, Note_on_c, 0, 62, 0
2, 223926, Note_on_c, 0, 62, 98
2, 223929, Note_on_c, 0, 59, 96
2, 223929, Note_on_c, 0, 67, 98
2, 224125, Note_on_c, 0, 74, 0
2, 224133, Note_on_c, 0, 74, 83
2, 224309, Note_on_c, 0, 52, 0
2, 224317, Note_on_c, 0, 81, 0
2, 224319, Note_on_c, 0, 52, 68
2, 224324, Note_on_c, 0, 81, 85
2, 224540, Note_on_c, 0, 86, 0
2, 224545, Note_on_c, 0, 86, 85
2, 224698, Note_on_c, 0, 81, 0
2, 224698, Note_on_c, 0, 74, 0
2, 224698, Note_on_c, 0, 47, 0
2, 224699, Note_on_c, 0, 59, 0
2, 224699, Note_on_c, 0, 52, 0
2, 224699, Note_on_c, 0, 62, 0
2, 224699, Note_on_c, 0, 40, 0
2, 224699, Note_on_c, 0, 55, 0
2, 224700, Note_on_c, 0, 69, 0
2, 224700, Note_on_c, 0, 67, 0
2, 224702, Note_on_c, 0, 86, 0
2, 224704, Control_c, 0, 64, 0
2, 224755, Note_on_c, 0, 45, 90
2, 224758, Note_on_c, 0, 62, 98
2, 224758, Note_on_c, 0, 55, 96
2, 224761, Note_on_c, 0, 59, 95
2, 224847, Control_c, 0, 64, 127
2, 224916, Note_on_c, 0, 59, 0
2, 224979, Note_on_c, 0, 74, 85
2, 225202, Note_on_c, 0, 79, 65
2, 225419, Note_on_c, 0, 86, 96
2, 225421, Note_on_c, 0, 52, 72
2, 225652, Note_on_c, 0, 61, 88
2, 225654, Note_on_c, 0, 64, 100
2, 225663, Note_on_c, 0, 57, 87
2, 225715, Control_c, 0, 64, 0
2, 225799, Control_c, 0, 64, 127
2, 225899, Note_on_c, 0, 74, 0
2, 225906, Note_on_c, 0, 74, 83
2, 226176, Note_on_c, 0, 45, 0
2, 226176, Note_on_c, 0, 79, 0
2, 226180, Note_on_c, 0, 45, 75
2, 226185, Note_on_c, 0, 79, 76
2, 226291, Note_on_c, 0, 62, 0
2, 226500, Note_on_c, 0, 88, 86
2, 227024, Note_on_c, 0, 43, 96
2, 227151, Control_c, 0, 64, 0
2, 227184, Note_on_c, 0, 45, 0
2, 227186, Note_on_c, 0, 64, 0
2, 227187, Note_on_c, 0, 61, 0
2, 227187, Note_on_c, 0, 79, 0
2, 227212, Note_on_c, 0, 55, 0
2, 227220, Note_on_c, 0, 52, 0
2, 227220, Note_on_c, 0, 57, 0
2, 227220, Note_on_c, 0, 74, 0
2, 227235, Note_on_c, 0, 88, 0
2, 227258, Note_on_c, 0, 86, 0
2, 227369, Note_on_c, 0, 50, 70
2, 227374, Control_c, 0, 64, 127
2, 227471, Note_on_c, 0, 55, 75
2, 227558, Note_on_c, 0, 57, 68
2, 227615, Note_on_c, 0, 59, 77
2, 227701, Note_on_c, 0, 62, 79
2, 227775, Note_on_c, 0, 66, 101
2, 228480, Note_on_c, 0, 59, 0
2, 228768, Note_on_c, 0, 86, 68
2, 228992, Note_on_c, 0, 74, 51
2, 229183, Note_on_c, 0, 81, 66
2, 229378, Note_on_c, 0, 86, 0
2, 229384, Note_on_c, 0, 86, 81
2, 229585, Note_on_c, 0, 74, 0
2, 229589, Note_on_c, 0, 74, 62
2, 229800, Note_on_c, 0, 81, 0
2, 229805, Note_on_c, 0, 81, 68
2, 229992, Note_on_c, 0, 86, 0
2, 229997, Note_on_c, 0, 86, 81
2, 230184, Note_on_c, 0, 74, 0
2, 230195, Note_on_c, 0, 74, 56
2, 230400, Note_on_c, 0, 81, 0
2, 230405, Note_on_c, 0, 81, 71
2, 230615, Note_on_c, 0, 86, 0
2, 230625, Note_on_c, 0, 86, 83
2, 230830, Note_on_c, 0, 74, 0
2, 230836, Note_on_c, 0, 74, 56
2, 231075, Note_on_c, 0, 86, 0
2, 231086, Note_on_c, 0, 86, 83
2, 231290, Note_on_c, 0, 74, 0
2, 231299, Note_on_c, 0, 74, 59
2, 231528, Note_on_c, 0, 81, 0
2, 231539, Note_on_c, 0, 81, 77
2, 231636, Note_on_c, 0, 43, 0
2, 231782, Note_on_c, 0, 86, 0
2, 231790, Note_on_c, 0, 86, 83
2, 231797, Note_on_c, 0, 74, 0
2, 231806, Note_on_c, 0, 74, 43
2, 231974, Note_on_c, 0, 50, 0
2, 232043, Note_on_c, 0, 74, 0
2, 232052, Note_on_c, 0, 74, 71
2, 232081, Note_on_c, 0, 55, 0
2, 232166, Note_on_c, 0, 57, 0
2, 232312, Note_on_c, 0, 62, 0
2, 232320, Note_on_c, 0, 66, 0
2, 232373, Note_on_c, 0, 81, 0
2, 232383, Note_on_c, 0, 81, 68
2, 232757, Note_on_c, 0, 86, 0
2, 232763, Note_on_c, 0, 86, 64
2, 233271, Note_on_c, 0, 93, 62
2, 234108, Note_on_c, 0, 50, 55
2, 234128, Note_on_c, 0, 38, 56
2, 234166, Note_on_c, 0, 86, 0
2, 234170, Note_on_c, 0, 74, 0
2, 234174, Control_c, 0, 64, 0
2, 234186, Control_c, 0, 64, 127
2, 234347, Note_on_c, 0, 93, 0
2, 234915, Note_on_c, 0, 38, 0
2, 235394, Note_on_c, 0, 62, 56
2, 235464, Note_on_c, 0, 69, 75
2, 235572, Note_on_c, 0, 74, 81
2, 235678, Note_on_c, 0, 79, 91
2, 235718, Note_on_c, 0, 98, 100
2, 235720, Note_on_c, 0, 86, 79
2, 236160, Note_on_c, 0, 50, 0
2, 236160, Note_on_c, 0, 81, 0
2, 237799, Note_on_c, 0, 78, 66
2, 239024, Note_on_c, 0, 78, 0
2, 239032, Note_on_c, 0, 74, 0
2, 239035, Note_on_c, 0, 78, 62
2, 239037, Note_on_c, 0, 74, 46
2, 239047, Note_on_c, 0, 69, 0
2, 239055, Note_on_c, 0, 62, 0
2, 239057, Note_on_c, 0, 69, 48
2, 239060, Note_on_c, 0, 62, 43
2, 240000, Note_on_c, 0, 79, 0
2, 240000, Note_on_c, 0, 86, 0
2, 240000, Note_on_c, 0, 98, 0
2, 240000, Control_c, 0, 64, 0
2, 243264, Control_c, 0, 64, 127
2, 243279, Control_c, 0, 64, 0
2, 243417, Control_c, 0, 64, 127
2, 243640, Note_on_c, 0, 78, 0
2, 243648, Note_on_c, 0, 74, 0
2, 243663, Note_on_c, 0, 69, 0
2, 243671, Note_on_c, 0, 62, 0
2, 243840, Control_c, 0, 64, 0
2, 245852, Control_c, 0, 64, 127
2, 245898, Control_c, 0, 64, 0
2, 249254, Control_c, 0, 64, 127
2, 249285, Control_c, 0, 64, 0
2, 249446, Control_c, 0, 64, 127
2, 249753, Control_c, 0, 64, 0
2, 249853, Control_c, 0, 64, 127
2, 249968, Control_c, 0, 64, 0
2, 250129, Control_c, 0, 64, 127
2, 250759, Control_c, 0, 64, 0
2, 250859, Control_c, 0, 64, 127
2, 250867, Control_c, 0, 64, 0
2, 250868, End_track
0, 0, End_of_file
