0, 0, Header, 1, 2, 384
1, 0, Start_track
1, 0, Tempo, 500000
1, 0, Time_signature, 4, 2, 24, 8
1, 1, End_track
2, 0, Start_track
2, 1428, Control_c, 0, 64, 127
2, 2029, Control_c, 0, 64, 0
2, 2035, Control_c, 0, 64, 127
2, 2039, Note_on_c, 0, 51, 73
2, 2119, Control_c, 0, 64, 0
2, 2204, Control_c, 0, 64, 127
2, 2209, Note_on_c, 0, 58, 59
2, 2398, Note_on_c, 0, 63, 54
2, 2583, Note_on_c, 0, 70, 71
2, 2768, Note_on_c, 0, 89, 93
2, 2768, Note_on_c, 0, 77, 82
2, 2810, Control_c, 0, 64, 0
2, 2964, Control_c, 0, 64, 127
2, 3316, Note_on_c, 0, 87, 90
2, 3324, Note_on_c, 0, 75, 76
2, 3489, Note_on_c, 0, 48, 71
2, 3490, Note_on_c, 0, 86, 89
2, 3506, Note_on_c, 0, 74, 77
2, 3510, Note_on_c, 0, 89, 0
2, 3510, Note_on_c, 0, 51, 0
2, 3511, Note_on_c, 0, 77, 0
2, 3511, Note_on_c, 0, 58, 0
2, 3512, Note_on_c, 0, 70, 0
2, 3512, Note_on_c, 0, 63, 0
2, 3512, Control_c, 0, 64, 0
2, 3514, Note_on_c, 0, 75, 0
2, 3548, Control_c, 0, 64, 127
2, 3601, Note_on_c, 0, 87, 0
2, 3671, Note_on_c, 0, 82, 79
2, 3682, Note_on_c, 0, 58, 66
2, 3684, Note_on_c, 0, 70, 70
2, 3851, Note_on_c, 0, 62, 64
2, 4024, Control_c, 0, 64, 0
2, 4036, Note_on_c, 0, 63, 67
2, 4124, Control_c, 0, 64, 127
2, 4377, Note_on_c, 0, 62, 0
2, 4385, Note_on_c, 0, 62, 62
2, 4554, Note_on_c, 0, 58, 0
2, 4561, Note_on_c, 0, 58, 71
2, 4762, Note_on_c, 0, 80, 79
2, 4859, Note_on_c, 0, 79, 79
2, 4932, Note_on_c, 0, 44, 70
2, 4953, Note_on_c, 0, 75, 86
2, 4955, Note_on_c, 0, 72, 82
2, 4958, Control_c, 0, 64, 0
2, 4960, Note_on_c, 0, 63, 0
2, 4963, Note_on_c, 0, 86, 0
2, 4963, Note_on_c, 0, 62, 0
2, 4963, Note_on_c, 0, 58, 0
2, 4964, Note_on_c, 0, 82, 0
2, 4964, Note_on_c, 0, 74, 0
2, 4965, Note_on_c, 0, 68, 63
2, 4965, Note_on_c, 0, 70, 0
2, 4965, Note_on_c, 0, 80, 0
2, 4976, Note_on_c, 0, 48, 0
2, 5093, Note_on_c, 0, 51, 63
2, 5137, Note_on_c, 0, 79, 0
2, 5199, Control_c, 0, 64, 127
2, 5290, Note_on_c, 0, 58, 62
2, 5476, Note_on_c, 0, 60, 71
2, 5506, Note_on_c, 0, 44, 0
2, 5827, Note_on_c, 0, 56, 63
2, 6013, Note_on_c, 0, 51, 0
2, 6018, Note_on_c, 0, 51, 58
2, 6346, Note_on_c, 0, 68, 0
2, 6346, Note_on_c, 0, 58, 0
2, 6347, Note_on_c, 0, 51, 0
2, 6347, Note_on_c, 0, 56, 0
2, 6348, Note_on_c, 0, 72, 0
2, 6349, Note_on_c, 0, 60, 0
2, 6349, Control_c, 0, 64, 0
2, 6369, Note_on_c, 0, 47, 72
2, 6374, Note_on_c, 0, 75, 0
2, 6376, Note_on_c, 0, 78, 83
2, 6381, Note_on_c, 0, 75, 74
2, 6386, Note_on_c, 0, 71, 73
2, 6390, Note_on_c, 0, 66, 65
2, 6504, Control_c, 0, 64, 127
2, 6560, Note_on_c, 0, 54, 56
2, 6743, Note_on_c, 0, 63, 59
2, 7107, Note_on_c, 0, 49, 66
2, 7107, Note_on_c, 0, 47, 0
2, 7107, Note_on_c, 0, 75, 0
2, 7108, Control_c, 0, 64, 0
2, 7108, Note_on_c, 0, 71, 0
2, 7109, Note_on_c, 0, 78, 0
2, 7109, Note_on_c, 0, 54, 0
2, 7109, Note_on_c, 0, 63, 0
2, 7110, Note_on_c, 0, 77, 74
2, 7113, Note_on_c, 0, 65, 66
2, 7119, Note_on_c, 0, 66, 0
2, 7128, Note_on_c, 0, 73, 67
2, 7132, Note_on_c, 0, 68, 62
2, 7249, Control_c, 0, 64, 127
2, 7270, Note_on_c, 0, 56, 60
2, 7464, Note_on_c, 0, 65, 0
2, 7469, Note_on_c, 0, 65, 44
2, 7843, Note_on_c, 0, 51, 71
2, 7843, Note_on_c, 0, 49, 0
2, 7843, Note_on_c, 0, 68, 0
2, 7844, Control_c, 0, 64, 0
2, 7844, Note_on_c, 0, 56, 0
2, 7845, Note_on_c, 0, 65, 0
2, 8022, Note_on_c, 0, 58, 57
2, 8040, Control_c, 0, 64, 127
2, 8198, Note_on_c, 0, 63, 56
2, 8375, Note_on_c, 0, 70, 72
2, 8555, Note_on_c, 0, 77, 0
2, 8566, Note_on_c, 0, 89, 89
2, 8566, Note_on_c, 0, 77, 81
2, 9102, Note_on_c, 0, 87, 90
2, 9126, Note_on_c, 0, 75, 62
2, 9246, Note_on_c, 0, 77, 0
2, 9248, Note_on_c, 0, 70, 0
2, 9249, Note_on_c, 0, 75, 0
2, 9249, Note_on_c, 0, 89, 0
2, 9250, Control_c, 0, 64, 0
2, 9250, Note_on_c, 0, 51, 0
2, 9250, Note_on_c, 0, 63, 0
2, 9251, Note_on_c, 0, 58, 0
2, 9254, Note_on_c, 0, 73, 0
2, 9287, Note_on_c, 0, 86, 86
2, 9288, Note_on_c, 0, 48, 64
2, 9295, Note_on_c, 0, 74, 79
2, 9361, Note_on_c, 0, 87, 0
2, 9446, Control_c, 0, 64, 127
2, 9456, Note_on_c, 0, 82, 78
2, 9472, Note_on_c, 0, 58, 66
2, 9478, Note_on_c, 0, 70, 68
2, 9641, Note_on_c, 0, 62, 69
2, 9830, Note_on_c, 0, 70, 0
2, 9835, Note_on_c, 0, 70, 51
2, 9836, Note_on_c, 0, 63, 62
2, 10176, Note_on_c, 0, 62, 0
2, 10184, Note_on_c, 0, 62, 67
2, 10368, Note_on_c, 0, 58, 0
2, 10379, Note_on_c, 0, 58, 62
2, 10553, Note_on_c, 0, 80, 78
2, 10650, Note_on_c, 0, 79, 82
2, 10740, Note_on_c, 0, 44, 71
2, 10749, Note_on_c, 0, 72, 77
2, 10754, Note_on_c, 0, 75, 81
2, 10760, Note_on_c, 0, 63, 0
2, 10761, Note_on_c, 0, 86, 0
2, 10762, Note_on_c, 0, 80, 0
2, 10762, Note_on_c, 0, 82, 0
2, 10762, Note_on_c, 0, 58, 0
2, 10762, Note_on_c, 0, 62, 0
2, 10762, Note_on_c, 0, 74, 0
2, 10763, Note_on_c, 0, 70, 0
2, 10769, Control_c, 0, 64, 0
2, 10782, Note_on_c, 0, 48, 0
2, 10916, Note_on_c, 0, 51, 61
2, 10974, Control_c, 0, 64, 127
2, 11098, Note_on_c, 0, 58, 64
2, 11285, Note_on_c, 0, 60, 66
2, 11659, Note_on_c, 0, 56, 58
2, 11834, Note_on_c, 0, 51, 0
2, 11844, Note_on_c, 0, 51, 50
2, 12187, Note_on_c, 0, 56, 0
2, 12189, Note_on_c, 0, 51, 0
2, 12189, Note_on_c, 0, 58, 0
2, 12189, Note_on_c, 0, 44, 0
2, 12189, Note_on_c, 0, 47, 67
2, 12191, Note_on_c, 0, 60, 0
2, 12191, Note_on_c, 0, 72, 0
2, 12198, Note_on_c, 0, 78, 79
2, 12199, Control_c, 0, 64, 0
2, 12203, Note_on_c, 0, 75, 0
2, 12203, Note_on_c, 0, 79, 0
2, 12213, Note_on_c, 0, 75, 62
2, 12214, Note_on_c, 0, 71, 64
2, 12288, Control_c, 0, 64, 127
2, 12373, Note_on_c, 0, 54, 59
2, 12559, Note_on_c, 0, 59, 63
2, 12726, Note_on_c, 0, 63, 52
2, 12889, Note_on_c, 0, 77, 75
2, 12892, Note_on_c, 0, 47, 0
2, 12893, Note_on_c, 0, 54, 0
2, 12894, Note_on_c, 0, 59, 0
2, 12894, Note_on_c, 0, 75, 0
2, 12895, Note_on_c, 0, 63, 0
2, 12895, Note_on_c, 0, 78, 0
2, 12895, Note_on_c, 0, 71, 0
2, 12899, Note_on_c, 0, 68, 67
2, 12899, Control_c, 0, 64, 0
2, 12905, Note_on_c, 0, 49, 70
2, 12905, Note_on_c, 0, 73, 67
2, 12963, Control_c, 0, 64, 127
2, 13065, Note_on_c, 0, 56, 59
2, 13242, Note_on_c, 0, 61, 60
2, 13423, Note_on_c, 0, 65, 55
2, 13616, Note_on_c, 0, 75, 78
2, 13619, Note_on_c, 0, 51, 67
2, 13638, Control_c, 0, 64, 0
2, 13639, Note_on_c, 0, 56, 0
2, 13640, Note_on_c, 0, 68, 0
2, 13641, Note_on_c, 0, 73, 0
2, 13641, Note_on_c, 0, 61, 0
2, 13642, Note_on_c, 0, 77, 0
2, 13642, Note_on_c, 0, 65, 0
2, 13647, Note_on_c, 0, 49, 0
2, 13777, Control_c, 0, 64, 127
2, 13791, Note_on_c, 0, 58, 62
2, 13972, Note_on_c, 0, 70, 41
2, 13977, Note_on_c, 0, 70, 0
2, 14150, Note_on_c, 0, 70, 56
2, 14745, Note_on_c, 0, 63, 55
2, 14753, Note_on_c, 0, 63, 0
2, 15039, Note_on_c, 0, 50, 68
2, 15073, Control_c, 0, 64, 0
2, 15229, Note_on_c, 0, 58, 0
2, 15234, Note_on_c, 0, 58, 61
2, 15252, Control_c, 0, 64, 127
2, 15395, Note_on_c, 0, 63, 61
2, 15582, Note_on_c, 0, 70, 0
2, 15593, Note_on_c, 0, 70, 65
2, 16516, Note_on_c, 0, 48, 74
2, 16550, Note_on_c, 0, 50, 0
2, 16576, Control_c, 0, 64, 0
2, 16596, Note_on_c, 0, 58, 0
2, 16696, Note_on_c, 0, 58, 67
2, 16711, Control_c, 0, 64, 127
2, 16788, Note_on_c, 0, 51, 0
2, 16834, Note_on_c, 0, 63, 0
2, 16875, Note_on_c, 0, 63, 57
2, 17049, Note_on_c, 0, 70, 0
2, 17057, Note_on_c, 0, 70, 60
2, 17231, Note_on_c, 0, 67, 54
2, 17280, Note_on_c, 0, 67, 0
2, 17280, Note_on_c, 0, 75, 0
2, 17959, Note_on_c, 0, 44, 73
2, 17974, Control_c, 0, 64, 0
2, 18078, Control_c, 0, 64, 127
2, 18124, Note_on_c, 0, 58, 0
2, 18136, Note_on_c, 0, 58, 66
2, 18309, Note_on_c, 0, 63, 0
2, 18313, Note_on_c, 0, 63, 50
2, 18493, Note_on_c, 0, 70, 0
2, 18498, Note_on_c, 0, 70, 58
2, 18539, Control_c, 0, 64, 0
2, 18624, Control_c, 0, 64, 127
2, 19196, Note_on_c, 0, 65, 30
2, 19207, Note_on_c, 0, 65, 0
2, 19405, Note_on_c, 0, 43, 67
2, 19409, Note_on_c, 0, 67, 69
2, 19410, Note_on_c, 0, 63, 0
2, 19420, Note_on_c, 0, 44, 0
2, 19438, Note_on_c, 0, 48, 0
2, 19445, Note_on_c, 0, 58, 0
2, 19459, Control_c, 0, 64, 0
2, 19589, Note_on_c, 0, 58, 63
2, 19752, Note_on_c, 0, 70, 0
2, 19760, Note_on_c, 0, 67, 0
2, 19760, Control_c, 0, 64, 127
2, 19771, Note_on_c, 0, 67, 65
2, 19771, Note_on_c, 0, 63, 50
2, 19799, Control_c, 0, 64, 0
2, 19883, Control_c, 0, 64, 127
2, 19921, Control_c, 0, 64, 0
2, 19979, Note_on_c, 0, 70, 52
2, 20175, Control_c, 0, 64, 127
2, 20659, Note_on_c, 0, 67, 0
2, 20663, Note_on_c, 0, 67, 55
2, 20909, Note_on_c, 0, 46, 77
2, 20917, Control_c, 0, 64, 0
2, 21089, Note_on_c, 0, 58, 0
2, 21095, Note_on_c, 0, 58, 63
2, 21104, Control_c, 0, 64, 127
2, 21242, Note_on_c, 0, 63, 0
2, 21251, Note_on_c, 0, 63, 55
2, 21450, Note_on_c, 0, 70, 0
2, 21460, Note_on_c, 0, 70, 60
2, 21849, Note_on_c, 0, 63, 0
2, 21853, Note_on_c, 0, 63, 56
2, 22402, Note_on_c, 0, 70, 0
2, 22409, Note_on_c, 0, 70, 75
2, 22410, Note_on_c, 0, 58, 0
2, 22411, Note_on_c, 0, 48, 66
2, 22416, Note_on_c, 0, 58, 71
2, 22417, Note_on_c, 0, 63, 0
2, 22422, Note_on_c, 0, 63, 59
2, 22447, Control_c, 0, 64, 0
2, 22464, Note_on_c, 0, 43, 0
2, 22471, Note_on_c, 0, 67, 0
2, 22740, Control_c, 0, 64, 127
2, 23874, Note_on_c, 0, 51, 71
2, 23880, Control_c, 0, 64, 0
2, 23976, Note_on_c, 0, 48, 0
2, 24023, Control_c, 0, 64, 127
2, 24053, Note_on_c, 0, 58, 0
2, 24059, Note_on_c, 0, 58, 64
2, 24066, Note_on_c, 0, 67, 67
2, 24199, Note_on_c, 0, 46, 0
2, 24238, Note_on_c, 0, 63, 0
2, 24242, Note_on_c, 0, 63, 50
2, 24407, Note_on_c, 0, 70, 0
2, 24416, Note_on_c, 0, 70, 68
2, 24622, Note_on_c, 0, 67, 0
2, 24787, Note_on_c, 0, 87, 87
2, 24829, Control_c, 0, 64, 0
2, 24913, Control_c, 0, 64, 127
2, 24949, Note_on_c, 0, 82, 68
2, 25148, Note_on_c, 0, 75, 59
2, 25305, Note_on_c, 0, 51, 0
2, 25312, Note_on_c, 0, 51, 71
2, 25482, Note_on_c, 0, 58, 0
2, 25482, Note_on_c, 0, 70, 0
2, 25488, Note_on_c, 0, 58, 64
2, 25488, Note_on_c, 0, 70, 57
2, 25651, Note_on_c, 0, 63, 0
2, 25662, Note_on_c, 0, 63, 54
2, 25843, Note_on_c, 0, 70, 0
2, 25853, Note_on_c, 0, 70, 66
2, 26211, Note_on_c, 0, 75, 0
2, 26215, Note_on_c, 0, 75, 74
2, 26218, Note_on_c, 0, 65, 56
2, 26403, Note_on_c, 0, 70, 0
2, 26409, Note_on_c, 0, 70, 70
2, 26580, Note_on_c, 0, 63, 0
2, 26584, Note_on_c, 0, 63, 55
2, 26760, Note_on_c, 0, 50, 75
2, 26774, Control_c, 0, 64, 0
2, 26833, Control_c, 0, 64, 127
2, 26926, Note_on_c, 0, 65, 0
2, 26933, Note_on_c, 0, 58, 0
2, 26936, Note_on_c, 0, 65, 56
2, 26937, Note_on_c, 0, 58, 64
2, 27102, Note_on_c, 0, 63, 0
2, 27112, Note_on_c, 0, 63, 61
2, 27302, Note_on_c, 0, 70, 0
2, 27308, Note_on_c, 0, 70, 64
2, 27325, Note_on_c, 0, 87, 0
2, 27479, Note_on_c, 0, 65, 0
2, 27648, Note_on_c, 0, 75, 0
2, 27652, Note_on_c, 0, 75, 69
2, 27694, Note_on_c, 0, 82, 0
2, 27840, Note_on_c, 0, 70, 0
2, 27843, Note_on_c, 0, 70, 70
2, 27857, Note_on_c, 0, 63, 0
2, 28020, Note_on_c, 0, 63, 52
2, 28162, Note_on_c, 0, 50, 0
2, 28190, Note_on_c, 0, 48, 75
2, 28300, Note_on_c, 0, 58, 0
2, 28369, Note_on_c, 0, 58, 65
2, 28485, Note_on_c, 0, 75, 0
2, 28538, Note_on_c, 0, 63, 0
2, 28549, Note_on_c, 0, 63, 59
2, 28723, Note_on_c, 0, 70, 0
2, 28731, Note_on_c, 0, 70, 68
2, 28800, Note_on_c, 0, 51, 0
2, 28917, Note_on_c, 0, 67, 50
2, 29088, Note_on_c, 0, 75, 73
2, 29268, Note_on_c, 0, 70, 0
2, 29277, Note_on_c, 0, 70, 68
2, 29284, Note_on_c, 0, 68, 81
2, 29291, Note_on_c, 0, 68, 0
2, 29460, Note_on_c, 0, 63, 0
2, 29471, Note_on_c, 0, 63, 46
2, 29632, Note_on_c, 0, 44, 72
2, 29641, Control_c, 0, 64, 0
2, 29736, Control_c, 0, 64, 127
2, 29798, Note_on_c, 0, 58, 0
2, 29809, Note_on_c, 0, 58, 67
2, 29866, Control_c, 0, 64, 0
2, 29867, Note_on_c, 0, 67, 0
2, 29875, Control_c, 0, 64, 127
2, 29975, Note_on_c, 0, 63, 0
2, 29983, Note_on_c, 0, 63, 59
2, 30028, Note_on_c, 0, 75, 0
2, 30167, Note_on_c, 0, 70, 0
2, 30173, Note_on_c, 0, 70, 64
2, 30514, Note_on_c, 0, 75, 68
2, 30704, Note_on_c, 0, 70, 0
2, 30710, Note_on_c, 0, 70, 64
2, 30712, Note_on_c, 0, 48, 0
2, 30881, Note_on_c, 0, 63, 0
2, 30891, Note_on_c, 0, 63, 53
2, 31060, Note_on_c, 0, 43, 79
2, 31068, Note_on_c, 0, 65, 60
2, 31068, Note_on_c, 0, 67, 70
2, 31076, Control_c, 0, 64, 0
2, 31080, Note_on_c, 0, 58, 0
2, 31080, Note_on_c, 0, 75, 0
2, 31096, Note_on_c, 0, 65, 0
2, 31196, Note_on_c, 0, 44, 0
2, 31223, Note_on_c, 0, 58, 72
2, 31280, Control_c, 0, 64, 127
2, 31411, Note_on_c, 0, 63, 0
2, 31412, Note_on_c, 0, 67, 0
2, 31415, Note_on_c, 0, 63, 50
2, 31610, Note_on_c, 0, 70, 0
2, 31614, Note_on_c, 0, 67, 60
2, 31621, Note_on_c, 0, 70, 59
2, 31764, Note_on_c, 0, 67, 0
2, 31774, Note_on_c, 0, 67, 53
2, 31975, Note_on_c, 0, 75, 70
2, 32156, Note_on_c, 0, 70, 0
2, 32162, Note_on_c, 0, 70, 61
2, 32332, Note_on_c, 0, 67, 0
2, 32337, Note_on_c, 0, 67, 61
2, 32480, Control_c, 0, 64, 0
2, 32499, Note_on_c, 0, 41, 72
2, 32686, Note_on_c, 0, 58, 0
2, 32686, Note_on_c, 0, 67, 0
2, 32690, Note_on_c, 0, 67, 63
2, 32690, Note_on_c, 0, 58, 68
2, 32839, Control_c, 0, 64, 127
2, 32855, Note_on_c, 0, 63, 0
2, 32866, Note_on_c, 0, 63, 54
2, 33047, Note_on_c, 0, 70, 0
2, 33051, Note_on_c, 0, 70, 66
2, 33054, Control_c, 0, 64, 0
2, 33058, Note_on_c, 0, 65, 57
2, 33139, Control_c, 0, 64, 127
2, 33400, Note_on_c, 0, 75, 0
2, 33409, Note_on_c, 0, 75, 75
2, 33576, Note_on_c, 0, 70, 0
2, 33583, Note_on_c, 0, 70, 64
2, 33584, Note_on_c, 0, 65, 0
2, 33589, Note_on_c, 0, 65, 61
2, 33745, Note_on_c, 0, 63, 0
2, 33757, Note_on_c, 0, 63, 55
2, 33845, Note_on_c, 0, 67, 0
2, 33899, Note_on_c, 0, 43, 0
2, 33909, Note_on_c, 0, 41, 0
2, 33910, Note_on_c, 0, 58, 0
2, 33911, Note_on_c, 0, 65, 0
2, 33917, Control_c, 0, 64, 0
2, 33921, Note_on_c, 0, 39, 75
2, 34109, Note_on_c, 0, 58, 62
2, 34114, Control_c, 0, 64, 127
2, 34122, Note_on_c, 0, 75, 0
2, 34168, Note_on_c, 0, 63, 0
2, 34288, Note_on_c, 0, 63, 47
2, 34475, Note_on_c, 0, 70, 0
2, 34479, Note_on_c, 0, 70, 58
2, 35397, Note_on_c, 0, 58, 0
2, 35399, Note_on_c, 0, 48, 81
2, 35401, Note_on_c, 0, 58, 63
2, 35416, Note_on_c, 0, 63, 0
2, 35416, Note_on_c, 0, 39, 0
2, 35430, Control_c, 0, 64, 0
2, 35550, Control_c, 0, 64, 127
2, 35566, Note_on_c, 0, 58, 0
2, 35566, Note_on_c, 0, 70, 0
2, 35574, Note_on_c, 0, 58, 69
2, 35577, Note_on_c, 0, 70, 68
2, 35737, Note_on_c, 0, 62, 63
2, 35744, Note_on_c, 0, 82, 71
2, 35931, Note_on_c, 0, 75, 75
2, 35936, Note_on_c, 0, 63, 63
2, 35944, Note_on_c, 0, 67, 56
2, 35950, Note_on_c, 0, 67, 0
2, 36279, Note_on_c, 0, 55, 63
2, 36282, Note_on_c, 0, 74, 62
2, 36283, Note_on_c, 0, 67, 57
2, 36426, Note_on_c, 0, 48, 0
2, 36456, Note_on_c, 0, 55, 0
2, 36462, Note_on_c, 0, 51, 67
2, 36464, Note_on_c, 0, 63, 0
2, 36467, Note_on_c, 0, 55, 70
2, 36467, Note_on_c, 0, 58, 0
2, 36472, Note_on_c, 0, 67, 0
2, 36476, Note_on_c, 0, 62, 0
2, 36477, Note_on_c, 0, 67, 61
2, 36487, Control_c, 0, 64, 0
2, 36510, Note_on_c, 0, 82, 0
2, 36572, Control_c, 0, 64, 127
2, 36648, Note_on_c, 0, 70, 0
2, 36655, Note_on_c, 0, 70, 72
2, 36748, Note_on_c, 0, 67, 0
2, 36826, Note_on_c, 0, 44, 75
2, 36840, Note_on_c, 0, 74, 0
2, 37002, Note_on_c, 0, 51, 0
2, 37005, Note_on_c, 0, 75, 0
2, 37010, Note_on_c, 0, 51, 64
2, 37013, Note_on_c, 0, 68, 63
2, 37014, Note_on_c, 0, 56, 64
2, 37017, Note_on_c, 0, 55, 0
2, 37017, Control_c, 0, 64, 0
2, 37102, Control_c, 0, 64, 127
2, 37186, Note_on_c, 0, 70, 0
2, 37195, Note_on_c, 0, 75, 72
2, 37195, Note_on_c, 0, 58, 66
2, 37196, Note_on_c, 0, 70, 64
2, 37197, Note_on_c, 0, 63, 62
2, 37386, Note_on_c, 0, 63, 0
2, 37386, Note_on_c, 0, 70, 0
2, 37386, Note_on_c, 0, 82, 74
2, 37390, Note_on_c, 0, 63, 67
2, 37391, Note_on_c, 0, 70, 53
2, 37555, Note_on_c, 0, 58, 0
2, 37562, Note_on_c, 0, 58, 57
2, 37724, Note_on_c, 0, 75, 0
2, 37732, Note_on_c, 0, 75, 61
2, 37900, Note_on_c, 0, 51, 0
2, 37900, Note_on_c, 0, 58, 0
2, 37900, Note_on_c, 0, 70, 0
2, 37904, Note_on_c, 0, 68, 0
2, 37906, Note_on_c, 0, 58, 73
2, 37907, Note_on_c, 0, 44, 0
2, 37907, Note_on_c, 0, 63, 0
2, 37907, Note_on_c, 0, 60, 70
2, 37910, Note_on_c, 0, 70, 70
2, 37911, Note_on_c, 0, 51, 65
2, 37931, Note_on_c, 0, 56, 0
2, 38092, Note_on_c, 0, 75, 0
2, 38102, Note_on_c, 0, 75, 69
2, 38103, Note_on_c, 0, 72, 63
2, 38254, Note_on_c, 0, 58, 0
2, 38254, Note_on_c, 0, 70, 0
2, 38259, Note_on_c, 0, 46, 76
2, 38263, Note_on_c, 0, 58, 71
2, 38264, Note_on_c, 0, 70, 60
2, 38280, Control_c, 0, 64, 0
2, 38300, Note_on_c, 0, 60, 0
2, 38400, Control_c, 0, 64, 127
2, 38430, Note_on_c, 0, 58, 0
2, 38432, Note_on_c, 0, 53, 71
2, 38434, Note_on_c, 0, 65, 66
2, 38436, Note_on_c, 0, 58, 65
2, 38438, Note_on_c, 0, 82, 0
2, 38615, Note_on_c, 0, 58, 0
2, 38615, Note_on_c, 0, 70, 0
2, 38619, Note_on_c, 0, 58, 76
2, 38620, Note_on_c, 0, 70, 77
2, 38776, Note_on_c, 0, 58, 0
2, 38776, Note_on_c, 0, 70, 0
2, 38786, Note_on_c, 0, 58, 78
2, 38787, Note_on_c, 0, 74, 76
2, 38787, Note_on_c, 0, 70, 70
2, 38914, Note_on_c, 0, 75, 0
2, 38966, Note_on_c, 0, 82, 86
2, 38968, Note_on_c, 0, 70, 0
2, 38972, Note_on_c, 0, 70, 64
2, 39006, Note_on_c, 0, 51, 0
2, 39022, Note_on_c, 0, 72, 0
2, 39129, Note_on_c, 0, 70, 0
2, 39129, Note_on_c, 0, 74, 0
2, 39138, Note_on_c, 0, 74, 68
2, 39139, Note_on_c, 0, 70, 60
2, 39298, Note_on_c, 0, 58, 0
2, 39306, Note_on_c, 0, 70, 0
2, 39309, Note_on_c, 0, 62, 68
2, 39309, Note_on_c, 0, 58, 72
2, 39313, Note_on_c, 0, 70, 70
2, 39498, Note_on_c, 0, 74, 0
2, 39502, Note_on_c, 0, 74, 67
2, 39655, Control_c, 0, 64, 0
2, 39671, Note_on_c, 0, 51, 75
2, 39672, Note_on_c, 0, 75, 76
2, 39672, Note_on_c, 0, 53, 0
2, 39673, Note_on_c, 0, 62, 0
2, 39675, Note_on_c, 0, 74, 0
2, 39675, Note_on_c, 0, 46, 0
2, 39682, Note_on_c, 0, 65, 0
2, 39705, Note_on_c, 0, 70, 0
2, 39751, Control_c, 0, 64, 127
2, 39805, Note_on_c, 0, 58, 0
2, 39837, Note_on_c, 0, 70, 68
2, 39848, Note_on_c, 0, 58, 63
2, 39866, Note_on_c, 0, 82, 0
2, 40028, Note_on_c, 0, 70, 0
2, 40031, Note_on_c, 0, 82, 71
2, 40034, Note_on_c, 0, 70, 60
2, 40039, Note_on_c, 0, 63, 55
2, 40204, Note_on_c, 0, 75, 0
2, 40208, Note_on_c, 0, 65, 60
2, 40209, Note_on_c, 0, 75, 68
2, 40565, Note_on_c, 0, 58, 0
2, 40570, Note_on_c, 0, 58, 53
2, 40570, Note_on_c, 0, 74, 62
2, 40742, Note_on_c, 0, 58, 0
2, 40742, Note_on_c, 0, 75, 0
2, 40746, Note_on_c, 0, 58, 62
2, 40751, Note_on_c, 0, 75, 63
2, 40926, Note_on_c, 0, 70, 0
2, 40938, Note_on_c, 0, 70, 67
2, 41047, Control_c, 0, 64, 0
2, 41050, Note_on_c, 0, 65, 0
2, 41052, Note_on_c, 0, 63, 0
2, 41094, Note_on_c, 0, 48, 72
2, 41134, Note_on_c, 0, 74, 0
2, 41149, Control_c, 0, 64, 127
2, 41272, Note_on_c, 0, 58, 0
2, 41272, Note_on_c, 0, 70, 0
2, 41283, Note_on_c, 0, 58, 68
2, 41283, Note_on_c, 0, 70, 67
2, 41364, Note_on_c, 0, 75, 0
2, 41439, Note_on_c, 0, 62, 64
2, 41448, Note_on_c, 0, 70, 0
2, 41448, Note_on_c, 0, 82, 0
2, 41456, Note_on_c, 0, 70, 58
2, 41459, Note_on_c, 0, 82, 73
2, 41637, Note_on_c, 0, 75, 77
2, 41648, Note_on_c, 0, 70, 0
2, 41650, Note_on_c, 0, 63, 62
2, 41652, Note_on_c, 0, 67, 54
2, 41654, Note_on_c, 0, 55, 64
2, 41657, Note_on_c, 0, 70, 53
2, 41971, Note_on_c, 0, 51, 0
2, 41971, Note_on_c, 0, 55, 0
2, 41978, Note_on_c, 0, 67, 0
2, 41980, Note_on_c, 0, 55, 62
2, 41981, Note_on_c, 0, 74, 66
2, 41983, Note_on_c, 0, 67, 58
2, 42155, Note_on_c, 0, 55, 0
2, 42155, Note_on_c, 0, 63, 0
2, 42155, Note_on_c, 0, 67, 0
2, 42160, Note_on_c, 0, 51, 60
2, 42160, Note_on_c, 0, 55, 65
2, 42163, Note_on_c, 0, 63, 55
2, 42166, Note_on_c, 0, 67, 62
2, 42173, Note_on_c, 0, 82, 0
2, 42174, Note_on_c, 0, 62, 0
2, 42332, Note_on_c, 0, 70, 0
2, 42336, Note_on_c, 0, 70, 64
2, 42510, Note_on_c, 0, 44, 83
2, 42516, Control_c, 0, 64, 0
2, 42647, Control_c, 0, 64, 127
2, 42662, Note_on_c, 0, 58, 0
2, 42685, Note_on_c, 0, 70, 0
2, 42690, Note_on_c, 0, 70, 79
2, 42693, Note_on_c, 0, 51, 0
2, 42699, Note_on_c, 0, 51, 70
2, 42704, Control_c, 0, 64, 0
2, 42708, Control_c, 0, 64, 127
2, 42854, Note_on_c, 0, 70, 0
2, 42860, Note_on_c, 0, 58, 67
2, 42863, Note_on_c, 0, 82, 75
2, 42863, Note_on_c, 0, 70, 61
2, 43046, Note_on_c, 0, 75, 0
2, 43054, Note_on_c, 0, 63, 0
2, 43057, Note_on_c, 0, 75, 72
2, 43059, Note_on_c, 0, 63, 65
2, 43407, Note_on_c, 0, 58, 0
2, 43407, Note_on_c, 0, 74, 0
2, 43412, Note_on_c, 0, 74, 67
2, 43415, Note_on_c, 0, 58, 60
2, 43584, Note_on_c, 0, 51, 0
2, 43584, Note_on_c, 0, 75, 0
2, 43587, Note_on_c, 0, 63, 0
2, 43587, Note_on_c, 0, 51, 60
2, 43587, Note_on_c, 0, 75, 75
2, 43588, Note_on_c, 0, 58, 0
2, 43594, Note_on_c, 0, 60, 65
2, 43599, Note_on_c, 0, 67, 0
2, 43668, Note_on_c, 0, 48, 0
2, 43691, Note_on_c, 0, 55, 0
2, 43729, Note_on_c, 0, 44, 0
2, 43760, Note_on_c, 0, 60, 0
2, 43760, Note_on_c, 0, 70, 0
2, 43770, Note_on_c, 0, 70, 75
2, 43771, Note_on_c, 0, 60, 62
2, 43773, Note_on_c, 0, 58, 64
2, 43854, Control_c, 0, 64, 0
2, 43929, Note_on_c, 0, 58, 0
2, 43929, Note_on_c, 0, 60, 0
2, 43932, Note_on_c, 0, 46, 77
2, 43934, Note_on_c, 0, 60, 61
2, 43935, Note_on_c, 0, 58, 71
2, 43947, Note_on_c, 0, 75, 0
2, 43968, Note_on_c, 0, 82, 0
2, 44021, Note_on_c, 0, 74, 0
2, 44052, Control_c, 0, 64, 127
2, 44102, Note_on_c, 0, 65, 61
2, 44111, Note_on_c, 0, 53, 71
2, 44160, Note_on_c, 0, 58, 0
2, 44160, Note_on_c, 0, 60, 0
2, 44282, Note_on_c, 0, 70, 0
2, 44286, Note_on_c, 0, 58, 73
2, 44287, Note_on_c, 0, 70, 80
2, 44467, Note_on_c, 0, 58, 0
2, 44467, Note_on_c, 0, 70, 0
2, 44470, Note_on_c, 0, 82, 82
2, 44474, Note_on_c, 0, 58, 71
2, 44475, Note_on_c, 0, 70, 70
2, 44797, Note_on_c, 0, 65, 0
2, 44808, Note_on_c, 0, 65, 63
2, 44989, Note_on_c, 0, 70, 0
2, 44997, Note_on_c, 0, 58, 0
2, 45000, Note_on_c, 0, 70, 72
2, 45007, Note_on_c, 0, 58, 69
2, 45157, Note_on_c, 0, 74, 76
2, 45173, Note_on_c, 0, 53, 0
2, 45182, Note_on_c, 0, 53, 65
2, 45327, Note_on_c, 0, 51, 0
2, 45332, Control_c, 0, 64, 0
2, 45336, Note_on_c, 0, 51, 78
2, 45337, Note_on_c, 0, 75, 82
2, 45337, Note_on_c, 0, 58, 0
2, 45338, Note_on_c, 0, 82, 0
2, 45338, Note_on_c, 0, 70, 0
2, 45338, Note_on_c, 0, 65, 0
2, 45338, Note_on_c, 0, 46, 0
2, 45339, Note_on_c, 0, 74, 0
2, 45511, Control_c, 0, 64, 127
2, 45522, Note_on_c, 0, 58, 68
2, 45523, Note_on_c, 0, 70, 65
2, 45694, Note_on_c, 0, 82, 74
2, 45697, Note_on_c, 0, 63, 61
2, 45861, Note_on_c, 0, 65, 59
2, 45880, Note_on_c, 0, 75, 0
2, 45889, Note_on_c, 0, 75, 74
2, 46241, Note_on_c, 0, 74, 61
2, 46425, Note_on_c, 0, 75, 0
2, 46431, Note_on_c, 0, 75, 69
2, 46609, Note_on_c, 0, 70, 0
2, 46616, Note_on_c, 0, 70, 66
2, 46771, Note_on_c, 0, 53, 0
2, 46782, Note_on_c, 0, 53, 70
2, 46824, Control_c, 0, 64, 0
2, 46947, Note_on_c, 0, 58, 0
2, 46947, Note_on_c, 0, 70, 0
2, 46955, Note_on_c, 0, 70, 71
2, 46955, Note_on_c, 0, 58, 62
2, 46963, Note_on_c, 0, 74, 0
2, 47124, Note_on_c, 0, 65, 0
2, 47124, Note_on_c, 0, 82, 0
2, 47129, Note_on_c, 0, 82, 72
2, 47135, Note_on_c, 0, 65, 66
2, 47301, Note_on_c, 0, 75, 0
2, 47305, Note_on_c, 0, 75, 62
2, 47308, Note_on_c, 0, 70, 0
2, 47319, Note_on_c, 0, 70, 59
2, 47654, Note_on_c, 0, 63, 0
2, 47660, Note_on_c, 0, 74, 56
2, 47708, Note_on_c, 0, 82, 0
2, 47846, Note_on_c, 0, 75, 0
2, 47851, Note_on_c, 0, 75, 58
2, 48000, Note_on_c, 0, 51, 0
2, 48046, Note_on_c, 0, 70, 0
2, 48053, Note_on_c, 0, 70, 51
2, 48061, Note_on_c, 0, 74, 0
2, 48314, Control_c, 0, 64, 127
2, 49787, Note_on_c, 0, 63, 72
2, 49793, Note_on_c, 0, 48, 68
2, 49796, Control_c, 0, 64, 0
2, 49804, Note_on_c, 0, 58, 0
2, 49809, Note_on_c, 0, 62, 71
2, 49809, Note_on_c, 0, 58, 72
2, 49814, Note_on_c, 0, 70, 0
2, 49819, Note_on_c, 0, 53, 0
2, 49820, Note_on_c, 0, 75, 0
2, 49824, Note_on_c, 0, 65, 0
2, 49958, Control_c, 0, 64, 127
2, 49973, Note_on_c, 0, 55, 72
2, 50150, Note_on_c, 0, 58, 0
2, 50150, Note_on_c, 0, 63, 0
2, 50155, Note_on_c, 0, 63, 63
2, 50155, Note_on_c, 0, 58, 65
2, 50337, Note_on_c, 0, 60, 75
2, 50557, Note_on_c, 0, 65, 71
2, 50688, Note_on_c, 0, 62, 0
2, 50688, Note_on_c, 0, 65, 0
2, 50698, Note_on_c, 0, 62, 65
2, 50699, Note_on_c, 0, 65, 61
2, 51041, Note_on_c, 0, 63, 0
2, 51052, Note_on_c, 0, 63, 71
2, 51210, Note_on_c, 0, 48, 0
2, 51210, Note_on_c, 0, 60, 0
2, 51216, Note_on_c, 0, 48, 74
2, 51220, Note_on_c, 0, 60, 70
2, 51234, Control_c, 0, 64, 0
2, 51255, Note_on_c, 0, 55, 0
2, 51256, Note_on_c, 0, 62, 0
2, 51258, Note_on_c, 0, 65, 0
2, 51259, Note_on_c, 0, 58, 0
2, 51356, Control_c, 0, 64, 127
2, 51391, Note_on_c, 0, 62, 69
2, 51395, Note_on_c, 0, 55, 68
2, 51569, Note_on_c, 0, 65, 66
2, 51570, Note_on_c, 0, 58, 71
2, 51570, Note_on_c, 0, 67, 77
2, 51747, Note_on_c, 0, 60, 0
2, 51747, Note_on_c, 0, 63, 0
2, 51754, Note_on_c, 0, 63, 66
2, 51758, Note_on_c, 0, 60, 75
2, 52108, Note_on_c, 0, 74, 85
2, 52115, Control_c, 0, 64, 0
2, 52116, Note_on_c, 0, 63, 0
2, 52116, Note_on_c, 0, 67, 0
2, 52119, Note_on_c, 0, 65, 0
2, 52122, Note_on_c, 0, 67, 68
2, 52125, Note_on_c, 0, 63, 72
2, 52216, Note_on_c, 0, 48, 0
2, 52254, Control_c, 0, 64, 127
2, 52285, Note_on_c, 0, 48, 67
2, 52469, Note_on_c, 0, 63, 0
2, 52470, Note_on_c, 0, 70, 83
2, 52479, Note_on_c, 0, 63, 61
2, 52628, Note_on_c, 0, 44, 74
2, 52630, Note_on_c, 0, 68, 80
2, 52631, Note_on_c, 0, 62, 0
2, 52637, Note_on_c, 0, 48, 0
2, 52658, Control_c, 0, 64, 0
2, 52661, Note_on_c, 0, 58, 0
2, 52661, Note_on_c, 0, 74, 0
2, 52684, Note_on_c, 0, 60, 0
2, 52700, Control_c, 0, 64, 127
2, 52802, Note_on_c, 0, 51, 61
2, 52803, Note_on_c, 0, 60, 69
2, 52995, Note_on_c, 0, 56, 68
2, 53130, Note_on_c, 0, 70, 0
2, 53140, Note_on_c, 0, 70, 82
2, 53168, Note_on_c, 0, 63, 0
2, 53168, Note_on_c, 0, 68, 0
2, 53172, Note_on_c, 0, 63, 67
2, 53172, Note_on_c, 0, 68, 80
2, 53173, Note_on_c, 0, 58, 68
2, 53175, Note_on_c, 0, 65, 65
2, 53184, Note_on_c, 0, 55, 0
2, 53230, Control_c, 0, 64, 0
2, 53268, Note_on_c, 0, 67, 0
2, 53314, Control_c, 0, 64, 127
2, 53422, Note_on_c, 0, 44, 0
2, 53529, Note_on_c, 0, 63, 0
2, 53534, Note_on_c, 0, 63, 61
2, 53540, Note_on_c, 0, 67, 72
2, 53690, Note_on_c, 0, 56, 0
2, 53698, Note_on_c, 0, 67, 0
2, 53700, Note_on_c, 0, 56, 71
2, 53704, Note_on_c, 0, 67, 71
2, 53882, Note_on_c, 0, 70, 0
2, 53889, Note_on_c, 0, 70, 83
2, 53890, Note_on_c, 0, 65, 0
2, 53898, Note_on_c, 0, 63, 0
2, 53899, Note_on_c, 0, 65, 62
2, 53902, Note_on_c, 0, 63, 68
2, 53908, Control_c, 0, 64, 0
2, 53909, Note_on_c, 0, 58, 0
2, 53910, Note_on_c, 0, 67, 0
2, 53912, Note_on_c, 0, 68, 0
2, 53914, Note_on_c, 0, 56, 0
2, 53915, Note_on_c, 0, 51, 0
2, 53915, Note_on_c, 0, 60, 0
2, 54049, Note_on_c, 0, 44, 70
2, 54120, Control_c, 0, 64, 127
2, 54213, Note_on_c, 0, 63, 0
2, 54217, Note_on_c, 0, 51, 65
2, 54217, Note_on_c, 0, 63, 66
2, 54389, Note_on_c, 0, 65, 0
2, 54395, Note_on_c, 0, 65, 65
2, 54397, Note_on_c, 0, 56, 63
2, 54574, Note_on_c, 0, 70, 0
2, 54579, Note_on_c, 0, 70, 85
2, 54589, Note_on_c, 0, 63, 0
2, 54594, Note_on_c, 0, 63, 71
2, 54597, Note_on_c, 0, 58, 75
2, 54755, Note_on_c, 0, 46, 75
2, 54766, Note_on_c, 0, 51, 0
2, 54766, Note_on_c, 0, 65, 0
2, 54767, Note_on_c, 0, 44, 0
2, 54768, Control_c, 0, 64, 0
2, 54919, Control_c, 0, 64, 127
2, 54922, Note_on_c, 0, 62, 77
2, 54962, Note_on_c, 0, 65, 76
2, 55096, Note_on_c, 0, 63, 0
2, 55100, Note_on_c, 0, 53, 70
2, 55101, Note_on_c, 0, 63, 68
2, 55265, Note_on_c, 0, 65, 0
2, 55273, Note_on_c, 0, 65, 81
2, 55439, Control_c, 0, 64, 0
2, 55441, Note_on_c, 0, 62, 0
2, 55443, Note_on_c, 0, 67, 85
2, 55445, Note_on_c, 0, 48, 77
2, 55448, Note_on_c, 0, 62, 71
2, 55460, Note_on_c, 0, 65, 0
2, 55460, Note_on_c, 0, 46, 0
2, 55460, Note_on_c, 0, 53, 0
2, 55464, Note_on_c, 0, 56, 0
2, 55472, Note_on_c, 0, 58, 0
2, 55488, Note_on_c, 0, 70, 0
2, 55616, Note_on_c, 0, 55, 72
2, 55618, Control_c, 0, 64, 127
2, 55787, Note_on_c, 0, 62, 0
2, 55791, Note_on_c, 0, 62, 75
2, 55794, Note_on_c, 0, 58, 70
2, 55964, Note_on_c, 0, 63, 0
2, 55975, Note_on_c, 0, 60, 75
2, 55975, Note_on_c, 0, 63, 75
2, 56168, Note_on_c, 0, 65, 63
2, 56332, Note_on_c, 0, 67, 0
2, 56337, Note_on_c, 0, 67, 79
2, 56340, Note_on_c, 0, 65, 0
2, 56350, Note_on_c, 0, 65, 49
2, 56701, Note_on_c, 0, 62, 0
2, 56704, Note_on_c, 0, 70, 82
2, 56707, Note_on_c, 0, 62, 74
2, 56714, Note_on_c, 0, 65, 0
2, 56721, Note_on_c, 0, 63, 0
2, 56721, Note_on_c, 0, 55, 0
2, 56726, Note_on_c, 0, 60, 0
2, 56755, Note_on_c, 0, 48, 0
2, 56798, Control_c, 0, 64, 0
2, 56858, Note_on_c, 0, 48, 66
2, 56962, Control_c, 0, 64, 127
2, 57039, Note_on_c, 0, 58, 0
2, 57040, Note_on_c, 0, 74, 79
2, 57043, Note_on_c, 0, 55, 70
2, 57048, Note_on_c, 0, 58, 68
2, 57216, Note_on_c, 0, 58, 0
2, 57220, Note_on_c, 0, 58, 73
2, 57377, Note_on_c, 0, 58, 0
2, 57384, Note_on_c, 0, 70, 0
2, 57386, Note_on_c, 0, 58, 79
2, 57387, Note_on_c, 0, 77, 84
2, 57389, Note_on_c, 0, 60, 70
2, 57391, Note_on_c, 0, 70, 76
2, 57423, Control_c, 0, 64, 0
2, 57546, Note_on_c, 0, 62, 0
2, 57553, Note_on_c, 0, 70, 0
2, 57560, Note_on_c, 0, 75, 70
2, 57561, Note_on_c, 0, 67, 0
2, 57563, Note_on_c, 0, 70, 63
2, 57566, Note_on_c, 0, 67, 65
2, 57722, Note_on_c, 0, 74, 0
2, 57728, Note_on_c, 0, 74, 74
2, 57738, Note_on_c, 0, 70, 0
2, 57746, Note_on_c, 0, 70, 59
2, 57748, Note_on_c, 0, 65, 61
2, 57776, Control_c, 0, 64, 127
2, 57899, Note_on_c, 0, 48, 0
2, 57899, Note_on_c, 0, 70, 0
2, 57903, Note_on_c, 0, 77, 0
2, 57904, Note_on_c, 0, 75, 0
2, 57904, Note_on_c, 0, 67, 0
2, 57904, Note_on_c, 0, 74, 0
2, 57904, Note_on_c, 0, 55, 0
2, 57905, Note_on_c, 0, 60, 0
2, 57906, Note_on_c, 0, 65, 0
2, 57909, Note_on_c, 0, 70, 79
2, 57909, Control_c, 0, 64, 0
2, 57910, Note_on_c, 0, 48, 64
2, 57913, Note_on_c, 0, 68, 78
2, 57918, Note_on_c, 0, 63, 60
2, 57919, Note_on_c, 0, 56, 77
2, 57930, Note_on_c, 0, 58, 0
2, 58030, Control_c, 0, 64, 127
2, 58076, Note_on_c, 0, 56, 0
2, 58086, Note_on_c, 0, 65, 77
2, 58087, Note_on_c, 0, 56, 69
2, 58093, Note_on_c, 0, 62, 67
2, 58095, Note_on_c, 0, 58, 76
2, 58168, Note_on_c, 0, 63, 0
2, 58252, Control_c, 0, 64, 0
2, 58256, Note_on_c, 0, 44, 77
2, 58306, Note_on_c, 0, 48, 0
2, 58414, Note_on_c, 0, 58, 0
2, 58424, Note_on_c, 0, 63, 67
2, 58425, Note_on_c, 0, 58, 78
2, 58426, Note_on_c, 0, 51, 66
2, 58583, Note_on_c, 0, 56, 0
2, 58592, Note_on_c, 0, 56, 71
2, 58598, Control_c, 0, 64, 127
2, 58767, Note_on_c, 0, 65, 0
2, 58767, Note_on_c, 0, 70, 0
2, 58776, Note_on_c, 0, 65, 78
2, 58777, Note_on_c, 0, 70, 86
2, 58782, Note_on_c, 0, 58, 0
2, 58786, Note_on_c, 0, 58, 79
2, 58813, Control_c, 0, 64, 0
2, 58897, Control_c, 0, 64, 127
2, 59120, Note_on_c, 0, 65, 0
2, 59128, Note_on_c, 0, 58, 0
2, 59131, Note_on_c, 0, 65, 76
2, 59136, Note_on_c, 0, 58, 62
2, 59281, Note_on_c, 0, 44, 0
2, 59293, Note_on_c, 0, 44, 72
2, 59481, Note_on_c, 0, 62, 0
2, 59481, Note_on_c, 0, 65, 0
2, 59481, Note_on_c, 0, 70, 0
2, 59486, Note_on_c, 0, 62, 71
2, 59491, Note_on_c, 0, 70, 84
2, 59491, Note_on_c, 0, 65, 77
2, 59504, Note_on_c, 0, 63, 0
2, 59508, Note_on_c, 0, 68, 0
2, 59509, Note_on_c, 0, 51, 0
2, 59509, Note_on_c, 0, 63, 72
2, 59513, Note_on_c, 0, 56, 0
2, 59516, Note_on_c, 0, 44, 0
2, 59527, Control_c, 0, 64, 0
2, 59660, Note_on_c, 0, 46, 79
2, 59811, Note_on_c, 0, 63, 0
2, 59819, Control_c, 0, 64, 127
2, 59821, Note_on_c, 0, 63, 71
2, 59822, Note_on_c, 0, 53, 69
2, 59904, Note_on_c, 0, 62, 0
2, 59988, Note_on_c, 0, 58, 0
2, 59988, Note_on_c, 0, 65, 0
2, 59999, Note_on_c, 0, 58, 73
2, 59999, Note_on_c, 0, 65, 70
2, 59999, Note_on_c, 0, 62, 72
2, 60172, Note_on_c, 0, 70, 0
2, 60183, Note_on_c, 0, 70, 82
2, 60331, Control_c, 0, 64, 0
2, 60345, Note_on_c, 0, 44, 82
2, 60510, Control_c, 0, 64, 127
2, 60518, Note_on_c, 0, 53, 0
2, 60518, Note_on_c, 0, 65, 0
2, 60525, Note_on_c, 0, 65, 81
2, 60528, Note_on_c, 0, 53, 75
2, 60687, Note_on_c, 0, 46, 0
2, 60687, Note_on_c, 0, 70, 0
2, 60695, Note_on_c, 0, 58, 0
2, 60695, Note_on_c, 0, 65, 0
2, 60695, Note_on_c, 0, 46, 77
2, 60698, Note_on_c, 0, 70, 80
2, 60699, Note_on_c, 0, 58, 77
2, 60701, Note_on_c, 0, 65, 71
2, 60840, Note_on_c, 0, 58, 0
2, 60840, Note_on_c, 0, 65, 0
2, 60845, Note_on_c, 0, 65, 73
2, 60849, Note_on_c, 0, 58, 77
2, 60851, Note_on_c, 0, 74, 78
2, 60957, Control_c, 0, 64, 0
2, 60963, Note_on_c, 0, 44, 0
2, 60973, Note_on_c, 0, 58, 0
2, 60974, Note_on_c, 0, 53, 0
2, 60974, Note_on_c, 0, 70, 0
2, 60975, Note_on_c, 0, 46, 0
2, 60979, Note_on_c, 0, 63, 0
2, 61002, Note_on_c, 0, 62, 0
2, 61025, Note_on_c, 0, 65, 0
2, 61031, Note_on_c, 0, 67, 84
2, 61034, Note_on_c, 0, 72, 89
2, 61035, Note_on_c, 0, 60, 82
2, 61038, Note_on_c, 0, 48, 82
2, 61043, Note_on_c, 0, 36, 81
2, 61044, Note_on_c, 0, 63, 75
2, 61048, Note_on_c, 0, 74, 0
2, 61178, Control_c, 0, 64, 127
2, 61194, Note_on_c, 0, 48, 0
2, 61203, Note_on_c, 0, 48, 61
2, 61209, Note_on_c, 0, 60, 0
2, 61214, Note_on_c, 0, 60, 64
2, 61380, Note_on_c, 0, 62, 78
2, 61382, Note_on_c, 0, 55, 73
2, 61560, Note_on_c, 0, 58, 85
2, 61562, Note_on_c, 0, 63, 0
2, 61566, Note_on_c, 0, 63, 68
2, 61742, Note_on_c, 0, 70, 88
2, 61900, Note_on_c, 0, 48, 0
2, 61900, Note_on_c, 0, 60, 0
2, 61909, Note_on_c, 0, 48, 66
2, 61911, Note_on_c, 0, 60, 76
2, 62077, Note_on_c, 0, 55, 0
2, 62077, Note_on_c, 0, 58, 0
2, 62077, Note_on_c, 0, 62, 0
2, 62081, Note_on_c, 0, 62, 73
2, 62082, Note_on_c, 0, 55, 70
2, 62085, Note_on_c, 0, 58, 68
2, 62238, Note_on_c, 0, 58, 0
2, 62238, Note_on_c, 0, 63, 0
2, 62248, Note_on_c, 0, 58, 73
2, 62248, Note_on_c, 0, 63, 69
2, 62323, Note_on_c, 0, 36, 0
2, 62349, Control_c, 0, 64, 0
2, 62367, Note_on_c, 0, 55, 0
2, 62367, Note_on_c, 0, 67, 0
2, 62367, Note_on_c, 0, 63, 0
2, 62371, Note_on_c, 0, 60, 0
2, 62371, Note_on_c, 0, 62, 0
2, 62372, Note_on_c, 0, 70, 0
2, 62384, Note_on_c, 0, 72, 0
2, 62392, Note_on_c, 0, 48, 0
2, 62415, Note_on_c, 0, 74, 88
2, 62419, Note_on_c, 0, 62, 80
2, 62427, Note_on_c, 0, 70, 77
2, 62428, Note_on_c, 0, 36, 81
2, 62588, Note_on_c, 0, 48, 74
2, 62592, Note_on_c, 0, 70, 0
2, 62594, Note_on_c, 0, 60, 73
2, 62598, Note_on_c, 0, 70, 68
2, 62615, Control_c, 0, 64, 127
2, 62630, Note_on_c, 0, 58, 0
2, 62649, Note_on_c, 0, 68, 78
2, 62760, Note_on_c, 0, 62, 0
2, 62768, Note_on_c, 0, 62, 75
2, 62773, Note_on_c, 0, 55, 64
2, 62929, Note_on_c, 0, 68, 0
2, 62929, Note_on_c, 0, 70, 0
2, 62938, Note_on_c, 0, 70, 78
2, 62939, Note_on_c, 0, 58, 73
2, 62939, Note_on_c, 0, 68, 85
2, 62940, Note_on_c, 0, 63, 75
2, 62960, Control_c, 0, 64, 0
2, 63045, Control_c, 0, 64, 127
2, 63106, Note_on_c, 0, 63, 0
2, 63106, Note_on_c, 0, 68, 0
2, 63111, Note_on_c, 0, 75, 93
2, 63115, Note_on_c, 0, 68, 80
2, 63115, Note_on_c, 0, 63, 70
2, 63275, Note_on_c, 0, 48, 0
2, 63275, Note_on_c, 0, 60, 0
2, 63282, Note_on_c, 0, 48, 74
2, 63285, Note_on_c, 0, 60, 77
2, 63459, Note_on_c, 0, 55, 0
2, 63459, Note_on_c, 0, 62, 0
2, 63463, Note_on_c, 0, 55, 77
2, 63464, Note_on_c, 0, 62, 75
2, 63469, Note_on_c, 0, 67, 73
2, 63510, Note_on_c, 0, 65, 71
2, 63613, Note_on_c, 0, 58, 0
2, 63619, Note_on_c, 0, 58, 71
2, 63621, Note_on_c, 0, 63, 0
2, 63631, Note_on_c, 0, 63, 68
2, 63636, Note_on_c, 0, 36, 0
2, 63651, Note_on_c, 0, 74, 0
2, 63744, Note_on_c, 0, 65, 0
2, 63759, Note_on_c, 0, 62, 0
2, 63761, Note_on_c, 0, 60, 0
2, 63761, Note_on_c, 0, 75, 0
2, 63762, Control_c, 0, 64, 0
2, 63774, Note_on_c, 0, 48, 0
2, 63774, Note_on_c, 0, 68, 0
2, 63774, Note_on_c, 0, 70, 0
2, 63782, Note_on_c, 0, 67, 0
2, 63790, Note_on_c, 0, 55, 0
2, 63805, Note_on_c, 0, 58, 0
2, 63813, Note_on_c, 0, 63, 0
2, 63819, Note_on_c, 0, 80, 91
2, 63823, Note_on_c, 0, 72, 79
2, 63824, Note_on_c, 0, 44, 78
2, 63824, Note_on_c, 0, 68, 84
2, 63825, Note_on_c, 0, 32, 79
2, 63825, Note_on_c, 0, 75, 83
2, 63905, Control_c, 0, 64, 127
2, 63992, Note_on_c, 0, 60, 64
2, 64147, Note_on_c, 0, 63, 70
2, 64155, Note_on_c, 0, 62, 70
2, 64184, Note_on_c, 0, 51, 56
2, 64327, Note_on_c, 0, 63, 0
2, 64332, Note_on_c, 0, 63, 78
2, 64350, Control_c, 0, 64, 0
2, 64363, Note_on_c, 0, 56, 63
2, 64481, Control_c, 0, 64, 127
2, 64504, Note_on_c, 0, 68, 0
2, 64512, Note_on_c, 0, 56, 0
2, 64515, Note_on_c, 0, 68, 84
2, 64522, Note_on_c, 0, 56, 61
2, 64657, Note_on_c, 0, 63, 0
2, 64664, Note_on_c, 0, 63, 71
2, 64665, Note_on_c, 0, 44, 0
2, 64673, Note_on_c, 0, 60, 0
2, 64676, Note_on_c, 0, 44, 66
2, 64681, Note_on_c, 0, 60, 76
2, 64845, Note_on_c, 0, 58, 84
2, 64849, Note_on_c, 0, 62, 0
2, 64857, Note_on_c, 0, 51, 0
2, 64861, Note_on_c, 0, 62, 69
2, 64868, Note_on_c, 0, 51, 68
2, 65011, Note_on_c, 0, 63, 0
2, 65018, Note_on_c, 0, 56, 0
2, 65020, Note_on_c, 0, 63, 65
2, 65023, Note_on_c, 0, 56, 68
2, 65187, Note_on_c, 0, 60, 0
2, 65187, Note_on_c, 0, 68, 0
2, 65187, Note_on_c, 0, 32, 0
2, 65193, Note_on_c, 0, 82, 89
2, 65195, Note_on_c, 0, 72, 0
2, 65196, Control_c, 0, 64, 0
2, 65199, Note_on_c, 0, 70, 84
2, 65206, Note_on_c, 0, 77, 76
2, 65206, Note_on_c, 0, 74, 78
2, 65207, Note_on_c, 0, 46, 80
2, 65207, Note_on_c, 0, 34, 76
2, 65210, Note_on_c, 0, 44, 0
2, 65218, Note_on_c, 0, 56, 0
2, 65218, Note_on_c, 0, 58, 0
2, 65218, Note_on_c, 0, 75, 0
2, 65226, Note_on_c, 0, 51, 0
2, 65226, Note_on_c, 0, 63, 0
2, 65233, Note_on_c, 0, 62, 0
2, 65310, Note_on_c, 0, 80, 0
2, 65377, Note_on_c, 0, 62, 76
2, 65541, Note_on_c, 0, 63, 66
2, 65552, Note_on_c, 0, 53, 61
2, 65554, Note_on_c, 0, 58, 65
2, 65587, Control_c, 0, 64, 127
2, 65710, Note_on_c, 0, 58, 0
2, 65716, Note_on_c, 0, 65, 74
2, 65721, Note_on_c, 0, 58, 71
2, 65886, Note_on_c, 0, 58, 0
2, 65886, Note_on_c, 0, 70, 0
2, 65892, Note_on_c, 0, 70, 79
2, 65896, Note_on_c, 0, 58, 64
2, 66055, Note_on_c, 0, 58, 0
2, 66055, Note_on_c, 0, 62, 0
2, 66060, Note_on_c, 0, 62, 71
2, 66061, Note_on_c, 0, 46, 0
2, 66061, Note_on_c, 0, 58, 68
2, 66062, Note_on_c, 0, 34, 0
2, 66216, Note_on_c, 0, 63, 0
2, 66224, Note_on_c, 0, 53, 0
2, 66224, Note_on_c, 0, 65, 0
2, 66228, Note_on_c, 0, 63, 61
2, 66229, Note_on_c, 0, 65, 66
2, 66234, Note_on_c, 0, 53, 58
2, 66401, Note_on_c, 0, 58, 0
2, 66401, Note_on_c, 0, 65, 0
2, 66405, Note_on_c, 0, 65, 62
2, 66407, Note_on_c, 0, 58, 67
2, 66527, Control_c, 0, 64, 0
2, 66541, Note_on_c, 0, 58, 0
2, 66541, Note_on_c, 0, 70, 0
2, 66542, Note_on_c, 0, 63, 0
2, 66543, Note_on_c, 0, 62, 0
2, 66544, Note_on_c, 0, 65, 0
2, 66547, Note_on_c, 0, 77, 0
2, 66554, Note_on_c, 0, 53, 0
2, 66554, Note_on_c, 0, 74, 0
2, 66554, Note_on_c, 0, 82, 0
2, 66568, Note_on_c, 0, 78, 91
2, 66582, Note_on_c, 0, 66, 86
2, 66586, Note_on_c, 0, 75, 85
2, 66588, Note_on_c, 0, 71, 71
2, 66594, Note_on_c, 0, 47, 83
2, 66595, Note_on_c, 0, 35, 79
2, 66685, Control_c, 0, 64, 127
2, 66693, Note_on_c, 0, 35, 0
2, 66739, Note_on_c, 0, 47, 0
2, 66746, Note_on_c, 0, 59, 68
2, 66748, Note_on_c, 0, 47, 65
2, 66929, Note_on_c, 0, 61, 67
2, 66935, Note_on_c, 0, 54, 62
2, 67084, Note_on_c, 0, 59, 0
2, 67093, Note_on_c, 0, 59, 68
2, 67096, Note_on_c, 0, 63, 55
2, 67253, Note_on_c, 0, 78, 0
2, 67263, Note_on_c, 0, 78, 67
2, 67264, Note_on_c, 0, 73, 87
2, 67264, Note_on_c, 0, 85, 79
2, 67430, Note_on_c, 0, 47, 0
2, 67430, Note_on_c, 0, 59, 0
2, 67437, Note_on_c, 0, 59, 66
2, 67438, Note_on_c, 0, 47, 71
2, 67607, Note_on_c, 0, 61, 0
2, 67612, Note_on_c, 0, 70, 82
2, 67614, Note_on_c, 0, 54, 0
2, 67615, Note_on_c, 0, 61, 69
2, 67619, Note_on_c, 0, 54, 60
2, 67776, Note_on_c, 0, 59, 0
2, 67776, Note_on_c, 0, 70, 0
2, 67780, Note_on_c, 0, 59, 66
2, 67781, Note_on_c, 0, 70, 71
2, 67783, Note_on_c, 0, 63, 0
2, 67785, Note_on_c, 0, 47, 0
2, 67789, Note_on_c, 0, 63, 53
2, 67939, Control_c, 0, 64, 0
2, 67947, Note_on_c, 0, 80, 85
2, 67955, Note_on_c, 0, 54, 0
2, 67955, Note_on_c, 0, 61, 0
2, 67956, Note_on_c, 0, 75, 0
2, 67956, Note_on_c, 0, 71, 0
2, 67957, Note_on_c, 0, 78, 0
2, 67962, Note_on_c, 0, 85, 0
2, 67968, Note_on_c, 0, 63, 0
2, 67968, Note_on_c, 0, 66, 0
2, 67975, Note_on_c, 0, 70, 0
2, 67979, Note_on_c, 0, 68, 83
2, 67979, Note_on_c, 0, 77, 81
2, 67979, Note_on_c, 0, 49, 79
2, 67981, Note_on_c, 0, 37, 77
2, 67986, Note_on_c, 0, 65, 85
2, 68090, Control_c, 0, 64, 127
2, 68121, Note_on_c, 0, 59, 0
2, 68152, Note_on_c, 0, 49, 0
2, 68154, Note_on_c, 0, 61, 71
2, 68157, Note_on_c, 0, 49, 68
2, 68322, Note_on_c, 0, 66, 82
2, 68323, Note_on_c, 0, 56, 64
2, 68467, Note_on_c, 0, 65, 0
2, 68474, Note_on_c, 0, 61, 0
2, 68478, Note_on_c, 0, 65, 72
2, 68483, Note_on_c, 0, 61, 67
2, 68643, Note_on_c, 0, 77, 0
2, 68651, Note_on_c, 0, 65, 0
2, 68654, Note_on_c, 0, 77, 89
2, 68655, Note_on_c, 0, 65, 84
2, 68812, Note_on_c, 0, 61, 0
2, 68820, Note_on_c, 0, 49, 0
2, 68823, Note_on_c, 0, 61, 64
2, 68828, Note_on_c, 0, 73, 0
2, 68829, Note_on_c, 0, 49, 65
2, 68832, Note_on_c, 0, 73, 56
2, 68858, Note_on_c, 0, 70, 52
2, 68997, Note_on_c, 0, 56, 0
2, 69004, Note_on_c, 0, 56, 67
2, 69010, Note_on_c, 0, 63, 58
2, 69143, Note_on_c, 0, 61, 0
2, 69148, Note_on_c, 0, 61, 60
2, 69150, Note_on_c, 0, 65, 0
2, 69158, Note_on_c, 0, 58, 66
2, 69161, Note_on_c, 0, 65, 54
2, 69219, Note_on_c, 0, 56, 0
2, 69231, Note_on_c, 0, 56, 71
2, 69335, Note_on_c, 0, 80, 0
2, 69343, Note_on_c, 0, 49, 0
2, 69343, Note_on_c, 0, 66, 0
2, 69344, Note_on_c, 0, 58, 0
2, 69344, Note_on_c, 0, 61, 0
2, 69344, Note_on_c, 0, 77, 0
2, 69344, Note_on_c, 0, 56, 0
2, 69344, Note_on_c, 0, 70, 0
2, 69345, Note_on_c, 0, 37, 0
2, 69345, Note_on_c, 0, 73, 0
2, 69349, Note_on_c, 0, 75, 95
2, 69350, Note_on_c, 0, 68, 0
2, 69353, Control_c, 0, 64, 0
2, 69354, Note_on_c, 0, 44, 81
2, 69355, Note_on_c, 0, 32, 78
2, 69355, Note_on_c, 0, 72, 84
2, 69358, Note_on_c, 0, 65, 0
2, 69359, Note_on_c, 0, 68, 85
2, 69442, Note_on_c, 0, 32, 0
2, 69535, Note_on_c, 0, 51, 65
2, 69696, Note_on_c, 0, 44, 0
2, 69698, Note_on_c, 0, 56, 69
2, 69707, Note_on_c, 0, 44, 65
2, 69719, Control_c, 0, 64, 127
2, 69876, Note_on_c, 0, 91, 90
2, 69884, Note_on_c, 0, 79, 80
2, 69897, Note_on_c, 0, 70, 76
2, 70049, Note_on_c, 0, 56, 0
2, 70049, Note_on_c, 0, 68, 0
2, 70053, Note_on_c, 0, 68, 70
2, 70053, Note_on_c, 0, 56, 64
2, 70225, Note_on_c, 0, 68, 0
2, 70225, Note_on_c, 0, 75, 0
2, 70230, Note_on_c, 0, 87, 84
2, 70232, Note_on_c, 0, 68, 74
2, 70234, Note_on_c, 0, 75, 71
2, 70394, Note_on_c, 0, 56, 0
2, 70406, Note_on_c, 0, 56, 61
2, 70571, Note_on_c, 0, 63, 0
2, 70575, Note_on_c, 0, 89, 85
2, 70578, Note_on_c, 0, 63, 60
2, 70580, Note_on_c, 0, 77, 70
2, 70740, Note_on_c, 0, 44, 0
2, 70750, Note_on_c, 0, 44, 67
2, 70922, Note_on_c, 0, 80, 77
2, 70924, Note_on_c, 0, 51, 0
2, 70924, Note_on_c, 0, 68, 0
2, 70929, Note_on_c, 0, 68, 68
2, 70929, Note_on_c, 0, 51, 59
2, 71101, Note_on_c, 0, 51, 0
2, 71101, Note_on_c, 0, 56, 0
2, 71105, Note_on_c, 0, 56, 56
2, 71106, Note_on_c, 0, 51, 51
2, 71285, Note_on_c, 0, 63, 0
2, 71285, Note_on_c, 0, 70, 0
2, 71289, Note_on_c, 0, 82, 78
2, 71289, Note_on_c, 0, 63, 59
2, 71291, Note_on_c, 0, 70, 68
2, 71462, Note_on_c, 0, 51, 0
2, 71468, Note_on_c, 0, 51, 58
2, 71631, Note_on_c, 0, 70, 0
2, 71631, Note_on_c, 0, 72, 0
2, 71631, Note_on_c, 0, 75, 0
2, 71636, Note_on_c, 0, 68, 0
2, 71636, Note_on_c, 0, 51, 0
2, 71637, Note_on_c, 0, 79, 0
2, 71639, Note_on_c, 0, 63, 0
2, 71639, Note_on_c, 0, 75, 71
2, 71641, Note_on_c, 0, 58, 66
2, 71641, Note_on_c, 0, 56, 0
2, 71641, Note_on_c, 0, 70, 61
2, 71645, Note_on_c, 0, 63, 59
2, 71646, Control_c, 0, 64, 0
2, 71731, Control_c, 0, 64, 127
2, 71746, Note_on_c, 0, 91, 0
2, 71814, Note_on_c, 0, 51, 68
2, 71877, Note_on_c, 0, 87, 0
2, 71961, Note_on_c, 0, 63, 0
2, 71969, Note_on_c, 0, 51, 0
2, 71971, Note_on_c, 0, 63, 56
2, 71973, Note_on_c, 0, 56, 69
2, 71973, Note_on_c, 0, 51, 54
2, 72015, Note_on_c, 0, 89, 0
2, 72096, Control_c, 0, 64, 0
2, 72107, Note_on_c, 0, 77, 0
2, 72161, Note_on_c, 0, 44, 0
2, 72166, Note_on_c, 0, 78, 93
2, 72168, Note_on_c, 0, 47, 87
2, 72168, Note_on_c, 0, 75, 0
2, 72170, Note_on_c, 0, 66, 91
2, 72172, Note_on_c, 0, 35, 79
2, 72173, Note_on_c, 0, 75, 83
2, 72173, Note_on_c, 0, 71, 80
2, 72184, Note_on_c, 0, 58, 0
2, 72184, Note_on_c, 0, 80, 0
2, 72192, Note_on_c, 0, 51, 0
2, 72192, Note_on_c, 0, 56, 0
2, 72215, Note_on_c, 0, 82, 0
2, 72322, Note_on_c, 0, 47, 0
2, 72326, Note_on_c, 0, 59, 69
2, 72332, Note_on_c, 0, 47, 70
2, 72384, Control_c, 0, 64, 127
2, 72517, Note_on_c, 0, 61, 74
2, 72521, Note_on_c, 0, 54, 59
2, 72683, Note_on_c, 0, 59, 0
2, 72683, Note_on_c, 0, 63, 0
2, 72693, Note_on_c, 0, 59, 71
2, 72694, Note_on_c, 0, 63, 57
2, 72696, Note_on_c, 0, 68, 84
2, 72849, Note_on_c, 0, 85, 85
2, 72851, Note_on_c, 0, 73, 92
2, 73021, Note_on_c, 0, 47, 0
2, 73021, Note_on_c, 0, 59, 0
2, 73032, Note_on_c, 0, 47, 73
2, 73032, Note_on_c, 0, 59, 69
2, 73198, Note_on_c, 0, 54, 0
2, 73198, Note_on_c, 0, 61, 0
2, 73198, Note_on_c, 0, 70, 0
2, 73202, Note_on_c, 0, 70, 82
2, 73202, Note_on_c, 0, 54, 73
2, 73202, Note_on_c, 0, 61, 68
2, 73359, Note_on_c, 0, 59, 0
2, 73363, Note_on_c, 0, 59, 77
2, 73367, Note_on_c, 0, 61, 0
2, 73373, Note_on_c, 0, 61, 51
2, 73532, Control_c, 0, 64, 0
2, 73534, Note_on_c, 0, 61, 0
2, 73534, Note_on_c, 0, 71, 0
2, 73534, Note_on_c, 0, 54, 0
2, 73534, Note_on_c, 0, 47, 0
2, 73534, Note_on_c, 0, 75, 0
2, 73534, Note_on_c, 0, 63, 0
2, 73535, Note_on_c, 0, 59, 0
2, 73535, Note_on_c, 0, 78, 0
2, 73535, Note_on_c, 0, 66, 0
2, 73536, Note_on_c, 0, 70, 0
2, 73537, Note_on_c, 0, 85, 0
2, 73539, Note_on_c, 0, 80, 92
2, 73543, Note_on_c, 0, 35, 0
2, 73559, Note_on_c, 0, 68, 0
2, 73559, Note_on_c, 0, 73, 0
2, 73565, Note_on_c, 0, 68, 86
2, 73565, Note_on_c, 0, 73, 88
2, 73569, Note_on_c, 0, 37, 81
2, 73570, Note_on_c, 0, 77, 72
2, 73643, Control_c, 0, 64, 127
2, 73732, Note_on_c, 0, 61, 61
2, 73742, Note_on_c, 0, 49, 55
2, 73889, Note_on_c, 0, 61, 0
2, 73898, Note_on_c, 0, 65, 56
2, 73899, Note_on_c, 0, 61, 47
2, 73900, Note_on_c, 0, 56, 66
2, 74058, Note_on_c, 0, 65, 0
2, 74065, Note_on_c, 0, 61, 0
2, 74067, Note_on_c, 0, 65, 69
2, 74074, Note_on_c, 0, 61, 63
2, 74080, Note_on_c, 0, 58, 60
2, 74234, Note_on_c, 0, 61, 0
2, 74234, Note_on_c, 0, 65, 0
2, 74234, Note_on_c, 0, 77, 0
2, 74244, Note_on_c, 0, 65, 81
2, 74244, Note_on_c, 0, 77, 85
2, 74245, Note_on_c, 0, 61, 69
2, 74396, Note_on_c, 0, 61, 0
2, 74406, Note_on_c, 0, 61, 70
2, 74409, Note_on_c, 0, 60, 70
2, 74411, Note_on_c, 0, 49, 0
2, 74415, Note_on_c, 0, 49, 65
2, 74419, Note_on_c, 0, 60, 0
2, 74588, Note_on_c, 0, 56, 0
2, 74588, Note_on_c, 0, 58, 0
2, 74588, Note_on_c, 0, 61, 0
2, 74591, Note_on_c, 0, 60, 69
2, 74594, Note_on_c, 0, 56, 69
2, 74597, Note_on_c, 0, 61, 67
2, 74598, Note_on_c, 0, 58, 78
2, 74598, Note_on_c, 0, 70, 70
2, 74749, Note_on_c, 0, 65, 0
2, 74757, Note_on_c, 0, 58, 0
2, 74757, Note_on_c, 0, 61, 0
2, 74759, Note_on_c, 0, 65, 59
2, 74763, Note_on_c, 0, 58, 62
2, 74764, Note_on_c, 0, 61, 55
2, 74780, Note_on_c, 0, 56, 0
2, 74790, Note_on_c, 0, 56, 62
2, 74949, Note_on_c, 0, 70, 0
2, 74949, Note_on_c, 0, 77, 0
2, 74952, Note_on_c, 0, 82, 90
2, 74954, Note_on_c, 0, 70, 79
2, 74956, Note_on_c, 0, 39, 75
2, 74958, Note_on_c, 0, 77, 83
2, 74974, Note_on_c, 0, 75, 75
2, 74984, Control_c, 0, 64, 0
2, 75010, Note_on_c, 0, 37, 0
2, 75102, Note_on_c, 0, 56, 0
2, 75110, Note_on_c, 0, 56, 76
2, 75112, Note_on_c, 0, 46, 61
2, 75171, Control_c, 0, 64, 127
2, 75284, Note_on_c, 0, 45, 57
2, 75293, Note_on_c, 0, 51, 57
2, 75294, Note_on_c, 0, 45, 0
2, 75302, Note_on_c, 0, 51, 0
2, 75456, Note_on_c, 0, 77, 0
2, 75463, Note_on_c, 0, 58, 0
2, 75463, Note_on_c, 0, 70, 0
2, 75463, Note_on_c, 0, 75, 0
2, 75465, Note_on_c, 0, 77, 85
2, 75467, Note_on_c, 0, 63, 63
2, 75467, Note_on_c, 0, 75, 75
2, 75472, Note_on_c, 0, 58, 73
2, 75473, Note_on_c, 0, 70, 75
2, 75648, Note_on_c, 0, 51, 68
2, 75819, Note_on_c, 0, 79, 83
2, 75832, Note_on_c, 0, 63, 0
2, 75832, Note_on_c, 0, 70, 0
2, 75837, Note_on_c, 0, 70, 58
2, 75837, Note_on_c, 0, 63, 65
2, 75993, Note_on_c, 0, 58, 0
2, 75993, Note_on_c, 0, 70, 0
2, 75993, Note_on_c, 0, 75, 0
2, 76003, Note_on_c, 0, 75, 83
2, 76003, Note_on_c, 0, 70, 68
2, 76004, Note_on_c, 0, 58, 75
2, 76170, Note_on_c, 0, 51, 0
2, 76170, Note_on_c, 0, 70, 0
2, 76178, Note_on_c, 0, 70, 86
2, 76179, Note_on_c, 0, 51, 75
2, 76203, Control_c, 0, 64, 0
2, 76211, Note_on_c, 0, 79, 0
2, 76231, Note_on_c, 0, 60, 0
2, 76231, Note_on_c, 0, 73, 0
2, 76239, Note_on_c, 0, 49, 0
2, 76247, Note_on_c, 0, 68, 0
2, 76254, Note_on_c, 0, 46, 0
2, 76254, Note_on_c, 0, 56, 0
2, 76262, Note_on_c, 0, 80, 0
2, 76262, Note_on_c, 0, 82, 0
2, 76262, Control_c, 0, 64, 127
2, 76277, Note_on_c, 0, 61, 0
2, 76316, Note_on_c, 0, 65, 0
2, 76316, Control_c, 0, 64, 0
2, 76331, Note_on_c, 0, 39, 0
2, 76340, Note_on_c, 0, 39, 72
2, 76400, Control_c, 0, 64, 127
2, 76423, Note_on_c, 0, 58, 0
2, 76519, Note_on_c, 0, 46, 71
2, 76519, Note_on_c, 0, 65, 79
2, 76692, Note_on_c, 0, 51, 0
2, 76697, Note_on_c, 0, 51, 72
2, 76869, Note_on_c, 0, 70, 0
2, 76875, Note_on_c, 0, 58, 79
2, 76878, Note_on_c, 0, 70, 85
2, 77038, Note_on_c, 0, 58, 0
2, 77045, Note_on_c, 0, 58, 52
2, 77052, Note_on_c, 0, 87, 89
2, 77068, Note_on_c, 0, 77, 0
2, 77076, Note_on_c, 0, 75, 0
2, 77080, Note_on_c, 0, 75, 55
2, 77207, Note_on_c, 0, 58, 0
2, 77215, Note_on_c, 0, 58, 77
2, 77394, Note_on_c, 0, 89, 94
2, 77395, Note_on_c, 0, 82, 90
2, 77397, Note_on_c, 0, 77, 81
2, 77399, Note_on_c, 0, 65, 0
2, 77407, Note_on_c, 0, 65, 68
2, 77575, Note_on_c, 0, 70, 0
2, 77581, Note_on_c, 0, 70, 79
2, 77754, Note_on_c, 0, 99, 104
2, 77760, Note_on_c, 0, 51, 0
2, 77760, Note_on_c, 0, 87, 0
2, 77766, Note_on_c, 0, 51, 77
2, 77767, Note_on_c, 0, 87, 93
2, 77783, Note_on_c, 0, 63, 0
2, 77787, Control_c, 0, 64, 0
2, 77790, Note_on_c, 0, 39, 0
2, 77792, Note_on_c, 0, 58, 0
2, 77792, Note_on_c, 0, 77, 0
2, 77792, Note_on_c, 0, 75, 0
2, 77793, Note_on_c, 0, 65, 0
2, 77793, Note_on_c, 0, 82, 0
2, 77793, Note_on_c, 0, 70, 0
2, 77794, Note_on_c, 0, 46, 0
2, 77794, Note_on_c, 0, 89, 0
2, 77913, Control_c, 0, 64, 127
2, 77934, Note_on_c, 0, 58, 68
2, 78113, Note_on_c, 0, 63, 55
2, 78298, Note_on_c, 0, 70, 67
2, 78650, Note_on_c, 0, 63, 0
2, 78656, Note_on_c, 0, 63, 46
2, 79004, Note_on_c, 0, 58, 0
2, 79012, Note_on_c, 0, 58, 56
2, 79180, Note_on_c, 0, 51, 0
2, 79185, Note_on_c, 0, 92, 93
2, 79191, Note_on_c, 0, 51, 74
2, 79194, Note_on_c, 0, 80, 79
2, 79200, Note_on_c, 0, 58, 0
2, 79202, Note_on_c, 0, 63, 0
2, 79204, Note_on_c, 0, 70, 0
2, 79206, Control_c, 0, 64, 0
2, 79211, Note_on_c, 0, 99, 0
2, 79334, Control_c, 0, 64, 127
2, 79362, Note_on_c, 0, 58, 60
2, 79365, Note_on_c, 0, 87, 0
2, 79540, Note_on_c, 0, 63, 50
2, 79722, Note_on_c, 0, 97, 84
2, 79722, Note_on_c, 0, 85, 74
2, 79729, Note_on_c, 0, 68, 64
2, 79749, Note_on_c, 0, 80, 0
2, 80090, Note_on_c, 0, 61, 55
2, 80432, Note_on_c, 0, 92, 0
2, 80440, Note_on_c, 0, 58, 0
2, 80443, Note_on_c, 0, 92, 80
2, 80451, Note_on_c, 0, 58, 55
2, 80460, Note_on_c, 0, 80, 57
2, 80609, Note_on_c, 0, 92, 0
2, 80615, Control_c, 0, 64, 0
2, 80616, Note_on_c, 0, 92, 90
2, 80616, Note_on_c, 0, 51, 0
2, 80626, Note_on_c, 0, 63, 0
2, 80627, Note_on_c, 0, 51, 68
2, 80640, Note_on_c, 0, 80, 0
2, 80644, Note_on_c, 0, 80, 57
2, 80709, Control_c, 0, 64, 127
2, 80793, Note_on_c, 0, 58, 0
2, 80800, Note_on_c, 0, 58, 51
2, 80970, Note_on_c, 0, 91, 76
2, 80974, Note_on_c, 0, 63, 47
2, 80978, Note_on_c, 0, 79, 66
2, 81157, Control_c, 0, 64, 0
2, 81158, Note_on_c, 0, 70, 69
2, 81159, Note_on_c, 0, 87, 85
2, 81188, Note_on_c, 0, 75, 58
2, 81208, Note_on_c, 0, 97, 0
2, 81269, Control_c, 0, 64, 127
2, 81507, Note_on_c, 0, 70, 0
2, 81513, Note_on_c, 0, 82, 73
2, 81513, Note_on_c, 0, 70, 69
2, 81561, Note_on_c, 0, 85, 0
2, 81845, Note_on_c, 0, 82, 0
2, 81855, Note_on_c, 0, 94, 78
2, 81857, Note_on_c, 0, 82, 68
2, 81868, Note_on_c, 0, 68, 0
2, 82002, Note_on_c, 0, 94, 0
2, 82002, Note_on_c, 0, 87, 0
2, 82002, Note_on_c, 0, 75, 0
2, 82003, Note_on_c, 0, 79, 0
2, 82003, Note_on_c, 0, 70, 0
2, 82003, Note_on_c, 0, 63, 0
2, 82004, Note_on_c, 0, 82, 0
2, 82004, Note_on_c, 0, 91, 0
2, 82005, Note_on_c, 0, 61, 0
2, 82007, Control_c, 0, 64, 0
2, 82014, Note_on_c, 0, 51, 0
2, 82014, Note_on_c, 0, 58, 0
2, 82014, Note_on_c, 0, 80, 0
2, 82030, Note_on_c, 0, 92, 0
2, 82041, Note_on_c, 0, 92, 85
2, 82041, Note_on_c, 0, 51, 65
2, 82053, Note_on_c, 0, 80, 68
2, 82222, Control_c, 0, 64, 127
2, 82222, Note_on_c, 0, 58, 56
2, 82223, Note_on_c, 0, 91, 78
2, 82226, Note_on_c, 0, 79, 70
2, 82375, Control_c, 0, 64, 0
2, 82395, Note_on_c, 0, 87, 75
2, 82414, Note_on_c, 0, 58, 0
2, 82420, Note_on_c, 0, 75, 50
2, 82424, Note_on_c, 0, 63, 48
2, 82425, Note_on_c, 0, 58, 42
2, 82483, Control_c, 0, 64, 127
2, 82536, Control_c, 0, 64, 0
2, 82591, Note_on_c, 0, 70, 64
2, 82721, Control_c, 0, 64, 127
2, 83527, Note_on_c, 0, 75, 0
2, 83533, Note_on_c, 0, 75, 73
2, 83535, Note_on_c, 0, 51, 0
2, 83539, Note_on_c, 0, 51, 53
2, 83548, Control_c, 0, 64, 0
2, 83549, Note_on_c, 0, 63, 0
2, 83550, Note_on_c, 0, 58, 0
2, 83550, Note_on_c, 0, 70, 0
2, 83555, Note_on_c, 0, 91, 0
2, 83555, Note_on_c, 0, 79, 0
2, 83558, Note_on_c, 0, 80, 0
2, 83573, Note_on_c, 0, 92, 0
2, 83581, Note_on_c, 0, 87, 0
2, 83712, Control_c, 0, 64, 127
2, 83716, Note_on_c, 0, 58, 50
2, 83718, Note_on_c, 0, 70, 45
2, 83907, Note_on_c, 0, 63, 38
2, 84065, Note_on_c, 0, 70, 0
2, 84073, Note_on_c, 0, 70, 64
2, 84254, Note_on_c, 0, 77, 77
2, 84433, Note_on_c, 0, 63, 0
2, 84438, Note_on_c, 0, 63, 49
2, 84602, Note_on_c, 0, 75, 0
2, 84607, Note_on_c, 0, 75, 73
2, 84625, Note_on_c, 0, 58, 0
2, 84632, Note_on_c, 0, 58, 57
2, 84771, Note_on_c, 0, 58, 0
2, 84771, Note_on_c, 0, 77, 0
2, 84776, Note_on_c, 0, 58, 70
2, 84777, Note_on_c, 0, 77, 82
2, 84782, Note_on_c, 0, 70, 0
2, 84830, Control_c, 0, 64, 0
2, 84917, Control_c, 0, 64, 127
2, 84944, Note_on_c, 0, 50, 68
2, 85002, Note_on_c, 0, 63, 0
2, 85009, Note_on_c, 0, 51, 0
2, 85032, Note_on_c, 0, 75, 0
2, 85125, Note_on_c, 0, 58, 0
2, 85133, Note_on_c, 0, 58, 63
2, 85135, Note_on_c, 0, 75, 83
2, 85158, Control_c, 0, 64, 0
2, 85194, Control_c, 0, 64, 127
2, 85306, Note_on_c, 0, 63, 50
2, 85378, Note_on_c, 0, 50, 0
2, 85471, Note_on_c, 0, 70, 65
2, 85647, Note_on_c, 0, 75, 0
2, 85656, Note_on_c, 0, 65, 52
2, 85658, Note_on_c, 0, 75, 87
2, 85831, Note_on_c, 0, 63, 0
2, 85843, Note_on_c, 0, 63, 45
2, 85992, Note_on_c, 0, 58, 0
2, 85992, Note_on_c, 0, 77, 0
2, 85999, Note_on_c, 0, 58, 63
2, 85999, Note_on_c, 0, 77, 84
2, 86006, Note_on_c, 0, 70, 0
2, 86161, Note_on_c, 0, 58, 0
2, 86172, Note_on_c, 0, 58, 63
2, 86348, Note_on_c, 0, 48, 69
2, 86348, Note_on_c, 0, 63, 0
2, 86349, Note_on_c, 0, 79, 87
2, 86351, Note_on_c, 0, 58, 0
2, 86351, Note_on_c, 0, 77, 0
2, 86351, Note_on_c, 0, 75, 0
2, 86363, Control_c, 0, 64, 0
2, 86376, Note_on_c, 0, 65, 0
2, 86524, Note_on_c, 0, 58, 59
2, 86538, Control_c, 0, 64, 127
2, 86704, Note_on_c, 0, 63, 49
2, 86871, Note_on_c, 0, 70, 73
2, 86891, Note_on_c, 0, 48, 0
2, 87037, Note_on_c, 0, 58, 0
2, 87037, Note_on_c, 0, 79, 0
2, 87043, Note_on_c, 0, 79, 87
2, 87043, Note_on_c, 0, 58, 54
2, 87221, Control_c, 0, 64, 0
2, 87225, Note_on_c, 0, 80, 84
2, 87229, Note_on_c, 0, 63, 0
2, 87236, Note_on_c, 0, 63, 55
2, 87336, Control_c, 0, 64, 127
2, 87413, Note_on_c, 0, 58, 0
2, 87421, Note_on_c, 0, 58, 57
2, 87575, Note_on_c, 0, 58, 0
2, 87575, Note_on_c, 0, 79, 0
2, 87581, Note_on_c, 0, 58, 73
2, 87582, Note_on_c, 0, 79, 85
2, 87608, Note_on_c, 0, 70, 0
2, 87614, Control_c, 0, 64, 0
2, 87757, Note_on_c, 0, 44, 65
2, 87859, Control_c, 0, 64, 127
2, 87919, Note_on_c, 0, 75, 77
2, 87928, Note_on_c, 0, 58, 0
2, 87937, Note_on_c, 0, 58, 67
2, 87948, Control_c, 0, 64, 0
2, 88104, Note_on_c, 0, 63, 0
2, 88108, Note_on_c, 0, 63, 53
2, 88293, Note_on_c, 0, 70, 64
2, 88435, Control_c, 0, 64, 127
2, 88642, Note_on_c, 0, 63, 0
2, 88648, Note_on_c, 0, 63, 54
2, 88823, Note_on_c, 0, 77, 87
2, 88825, Note_on_c, 0, 79, 0
2, 88826, Note_on_c, 0, 75, 0
2, 88849, Control_c, 0, 64, 0
2, 88903, Note_on_c, 0, 58, 0
2, 88934, Control_c, 0, 64, 127
2, 88980, Note_on_c, 0, 80, 0
2, 88991, Note_on_c, 0, 58, 67
2, 89161, Note_on_c, 0, 43, 70
2, 89162, Note_on_c, 0, 79, 85
2, 89187, Note_on_c, 0, 44, 0
2, 89191, Note_on_c, 0, 77, 0
2, 89193, Note_on_c, 0, 58, 0
2, 89202, Control_c, 0, 64, 0
2, 89210, Note_on_c, 0, 63, 0
2, 89334, Note_on_c, 0, 58, 64
2, 89387, Control_c, 0, 64, 127
2, 89518, Note_on_c, 0, 63, 60
2, 89679, Note_on_c, 0, 70, 0
2, 89683, Note_on_c, 0, 70, 71
2, 89856, Note_on_c, 0, 79, 0
2, 89860, Note_on_c, 0, 79, 88
2, 90040, Note_on_c, 0, 63, 0
2, 90051, Note_on_c, 0, 80, 83
2, 90051, Note_on_c, 0, 63, 58
2, 90208, Note_on_c, 0, 67, 58
2, 90385, Note_on_c, 0, 79, 0
2, 90393, Note_on_c, 0, 58, 0
2, 90396, Note_on_c, 0, 79, 87
2, 90401, Note_on_c, 0, 58, 67
2, 90405, Note_on_c, 0, 70, 0
2, 90571, Note_on_c, 0, 46, 76
2, 90582, Control_c, 0, 64, 0
2, 90589, Note_on_c, 0, 43, 0
2, 90605, Note_on_c, 0, 58, 0
2, 90616, Note_on_c, 0, 63, 0
2, 90662, Note_on_c, 0, 67, 0
2, 90735, Note_on_c, 0, 75, 78
2, 90751, Note_on_c, 0, 58, 66
2, 90921, Note_on_c, 0, 63, 54
2, 91087, Note_on_c, 0, 70, 73
2, 91176, Control_c, 0, 64, 127
2, 91298, Note_on_c, 0, 65, 45
2, 91438, Note_on_c, 0, 63, 0
2, 91438, Note_on_c, 0, 65, 0
2, 91443, Note_on_c, 0, 65, 56
2, 91445, Note_on_c, 0, 63, 58
2, 91799, Note_on_c, 0, 58, 0
2, 91809, Note_on_c, 0, 58, 67
2, 91898, Note_on_c, 0, 79, 0
2, 91981, Note_on_c, 0, 65, 0
2, 91981, Note_on_c, 0, 58, 0
2, 91982, Note_on_c, 0, 48, 72
2, 91983, Note_on_c, 0, 80, 0
2, 91984, Note_on_c, 0, 63, 0
2, 91984, Note_on_c, 0, 79, 88
2, 91985, Note_on_c, 0, 46, 0
2, 91985, Note_on_c, 0, 70, 0
2, 91986, Note_on_c, 0, 75, 0
2, 91991, Control_c, 0, 64, 0
2, 92159, Note_on_c, 0, 58, 64
2, 92167, Control_c, 0, 64, 127
2, 92330, Note_on_c, 0, 63, 61
2, 92528, Note_on_c, 0, 70, 65
2, 92674, Note_on_c, 0, 79, 0
2, 92685, Note_on_c, 0, 79, 89
2, 92858, Note_on_c, 0, 63, 0
2, 92869, Note_on_c, 0, 63, 61
2, 92870, Note_on_c, 0, 80, 84
2, 93212, Note_on_c, 0, 79, 0
2, 93220, Note_on_c, 0, 79, 87
2, 93242, Note_on_c, 0, 58, 0
2, 93247, Note_on_c, 0, 58, 70
2, 93250, Control_c, 0, 64, 0
2, 93258, Note_on_c, 0, 70, 0
2, 93273, Note_on_c, 0, 48, 0
2, 93319, Note_on_c, 0, 63, 0
2, 93400, Note_on_c, 0, 51, 66
2, 93431, Note_on_c, 0, 58, 0
2, 93550, Control_c, 0, 64, 127
2, 93578, Note_on_c, 0, 75, 75
2, 93585, Note_on_c, 0, 58, 63
2, 93657, Note_on_c, 0, 80, 0
2, 93742, Note_on_c, 0, 75, 0
2, 93751, Note_on_c, 0, 75, 86
2, 93777, Note_on_c, 0, 63, 61
2, 93803, Note_on_c, 0, 79, 0
2, 93864, Control_c, 0, 64, 0
2, 93926, Note_on_c, 0, 48, 72
2, 94072, Control_c, 0, 64, 127
2, 94473, Note_on_c, 0, 46, 76
2, 94834, Note_on_c, 0, 39, 78
2, 94855, Note_on_c, 0, 58, 0
2, 94860, Note_on_c, 0, 48, 0
2, 94869, Control_c, 0, 64, 0
2, 94924, Note_on_c, 0, 63, 0
2, 94947, Note_on_c, 0, 46, 0
2, 94998, Note_on_c, 0, 46, 68
2, 95124, Control_c, 0, 64, 127
2, 95155, Note_on_c, 0, 39, 0
2, 95170, Note_on_c, 0, 51, 0
2, 95176, Note_on_c, 0, 51, 55
2, 95328, Note_on_c, 0, 58, 67
2, 95333, Note_on_c, 0, 63, 56
2, 95523, Note_on_c, 0, 70, 79
2, 95677, Note_on_c, 0, 51, 0
2, 95687, Note_on_c, 0, 51, 67
2, 95877, Note_on_c, 0, 63, 0
2, 95882, Note_on_c, 0, 63, 46
2, 96046, Note_on_c, 0, 70, 0
2, 96053, Note_on_c, 0, 46, 0
2, 96056, Note_on_c, 0, 70, 77
2, 96058, Note_on_c, 0, 46, 64
2, 96082, Control_c, 0, 64, 0
2, 96115, Control_c, 0, 64, 127
2, 96232, Note_on_c, 0, 38, 76
2, 96238, Note_on_c, 0, 75, 0
2, 96238, Control_c, 0, 64, 0
2, 96240, Note_on_c, 0, 58, 0
2, 96240, Note_on_c, 0, 51, 0
2, 96240, Note_on_c, 0, 63, 0
2, 96242, Note_on_c, 0, 70, 0
2, 96399, Note_on_c, 0, 46, 0
2, 96408, Note_on_c, 0, 46, 59
2, 96499, Control_c, 0, 64, 127
2, 96566, Note_on_c, 0, 51, 62
2, 96754, Note_on_c, 0, 63, 59
2, 96756, Note_on_c, 0, 58, 66
2, 96941, Note_on_c, 0, 70, 78
2, 97090, Note_on_c, 0, 51, 0
2, 97096, Note_on_c, 0, 51, 69
2, 97282, Note_on_c, 0, 63, 0
2, 97287, Note_on_c, 0, 63, 56
2, 97459, Note_on_c, 0, 70, 0
2, 97466, Note_on_c, 0, 38, 0
2, 97467, Note_on_c, 0, 70, 83
2, 97474, Note_on_c, 0, 46, 0
2, 97484, Note_on_c, 0, 46, 50
2, 97625, Control_c, 0, 64, 0
2, 97633, Note_on_c, 0, 63, 0
2, 97634, Note_on_c, 0, 58, 0
2, 97635, Note_on_c, 0, 46, 0
2, 97635, Note_on_c, 0, 51, 0
2, 97639, Note_on_c, 0, 36, 75
2, 97810, Note_on_c, 0, 46, 61
2, 97812, Control_c, 0, 64, 127
2, 97866, Note_on_c, 0, 36, 0
2, 97987, Note_on_c, 0, 51, 70
2, 98168, Note_on_c, 0, 63, 58
2, 98169, Note_on_c, 0, 58, 64
2, 98342, Note_on_c, 0, 70, 0
2, 98350, Note_on_c, 0, 70, 80
2, 98511, Note_on_c, 0, 51, 0
2, 98515, Note_on_c, 0, 51, 63
2, 98703, Note_on_c, 0, 63, 0
2, 98711, Note_on_c, 0, 63, 54
2, 98856, Note_on_c, 0, 46, 0
2, 98864, Note_on_c, 0, 70, 0
2, 98866, Note_on_c, 0, 46, 60
2, 98869, Note_on_c, 0, 70, 72
2, 99044, Control_c, 0, 64, 0
2, 99048, Note_on_c, 0, 44, 79
2, 99079, Note_on_c, 0, 51, 0
2, 99179, Control_c, 0, 64, 127
2, 99202, Note_on_c, 0, 46, 0
2, 99206, Note_on_c, 0, 46, 57
2, 99381, Note_on_c, 0, 51, 63
2, 99571, Note_on_c, 0, 58, 0
2, 99571, Note_on_c, 0, 63, 0
2, 99576, Note_on_c, 0, 58, 62
2, 99578, Note_on_c, 0, 63, 50
2, 99747, Note_on_c, 0, 70, 0
2, 99758, Note_on_c, 0, 70, 82
2, 99909, Note_on_c, 0, 51, 0
2, 99920, Note_on_c, 0, 51, 62
2, 100093, Note_on_c, 0, 63, 0
2, 100100, Note_on_c, 0, 63, 44
2, 100270, Note_on_c, 0, 70, 0
2, 100277, Note_on_c, 0, 46, 0
2, 100277, Note_on_c, 0, 58, 0
2, 100281, Note_on_c, 0, 70, 76
2, 100282, Note_on_c, 0, 58, 63
2, 100285, Note_on_c, 0, 44, 0
2, 100289, Note_on_c, 0, 46, 56
2, 100433, Control_c, 0, 64, 0
2, 100439, Note_on_c, 0, 58, 0
2, 100442, Note_on_c, 0, 46, 0
2, 100442, Note_on_c, 0, 63, 0
2, 100444, Note_on_c, 0, 51, 0
2, 100455, Note_on_c, 0, 43, 80
2, 100619, Note_on_c, 0, 46, 60
2, 100669, Control_c, 0, 64, 127
2, 100793, Note_on_c, 0, 51, 67
2, 100976, Note_on_c, 0, 51, 0
2, 100980, Note_on_c, 0, 63, 54
2, 100981, Note_on_c, 0, 58, 61
2, 100981, Note_on_c, 0, 51, 55
2, 101160, Note_on_c, 0, 70, 0
2, 101168, Note_on_c, 0, 70, 81
2, 101314, Note_on_c, 0, 51, 0
2, 101318, Note_on_c, 0, 51, 68
2, 101506, Note_on_c, 0, 63, 0
2, 101518, Note_on_c, 0, 63, 54
2, 101683, Note_on_c, 0, 46, 0
2, 101683, Note_on_c, 0, 70, 0
2, 101690, Note_on_c, 0, 70, 77
2, 101693, Note_on_c, 0, 46, 63
2, 101849, Control_c, 0, 64, 0
2, 101863, Note_on_c, 0, 41, 77
2, 101865, Note_on_c, 0, 51, 0
2, 101865, Note_on_c, 0, 43, 0
2, 101865, Note_on_c, 0, 63, 0
2, 101866, Note_on_c, 0, 58, 0
2, 101867, Note_on_c, 0, 46, 0
2, 102040, Note_on_c, 0, 46, 57
2, 102159, Control_c, 0, 64, 127
2, 102194, Note_on_c, 0, 51, 57
2, 102393, Note_on_c, 0, 58, 73
2, 102393, Note_on_c, 0, 63, 55
2, 102581, Note_on_c, 0, 70, 0
2, 102587, Note_on_c, 0, 70, 81
2, 102727, Note_on_c, 0, 51, 0
2, 102734, Note_on_c, 0, 51, 59
2, 102919, Note_on_c, 0, 63, 0
2, 102928, Note_on_c, 0, 63, 57
2, 103111, Note_on_c, 0, 46, 0
2, 103111, Note_on_c, 0, 70, 0
2, 103122, Note_on_c, 0, 70, 78
2, 103123, Note_on_c, 0, 46, 57
2, 103265, Note_on_c, 0, 41, 0
2, 103271, Note_on_c, 0, 39, 77
2, 103276, Note_on_c, 0, 46, 0
2, 103276, Note_on_c, 0, 51, 0
2, 103289, Control_c, 0, 64, 0
2, 103342, Note_on_c, 0, 58, 0
2, 103453, Note_on_c, 0, 46, 53
2, 103572, Control_c, 0, 64, 127
2, 103621, Note_on_c, 0, 51, 58
2, 103802, Note_on_c, 0, 63, 0
2, 103810, Note_on_c, 0, 63, 60
2, 103812, Note_on_c, 0, 58, 65
2, 103848, Control_c, 0, 64, 0
2, 103964, Control_c, 0, 64, 127
2, 103979, Note_on_c, 0, 70, 0
2, 103987, Control_c, 0, 64, 0
2, 103987, Note_on_c, 0, 70, 79
2, 104071, Control_c, 0, 64, 127
2, 104328, Note_on_c, 0, 74, 77
2, 104693, Note_on_c, 0, 58, 0
2, 104693, Note_on_c, 0, 70, 0
2, 104695, Control_c, 0, 64, 0
2, 104700, Note_on_c, 0, 36, 77
2, 104700, Note_on_c, 0, 70, 89
2, 104700, Note_on_c, 0, 74, 0
2, 104701, Note_on_c, 0, 63, 0
2, 104703, Note_on_c, 0, 46, 0
2, 104704, Note_on_c, 0, 58, 83
2, 104704, Note_on_c, 0, 51, 0
2, 104705, Note_on_c, 0, 39, 0
2, 104707, Note_on_c, 0, 63, 76
2, 104851, Note_on_c, 0, 48, 72
2, 104855, Control_c, 0, 64, 127
2, 105029, Note_on_c, 0, 55, 74
2, 105216, Note_on_c, 0, 58, 0
2, 105216, Note_on_c, 0, 63, 0
2, 105218, Note_on_c, 0, 67, 83
2, 105220, Note_on_c, 0, 63, 76
2, 105226, Control_c, 0, 64, 0
2, 105226, Note_on_c, 0, 58, 79
2, 105354, Control_c, 0, 64, 127
2, 105377, Note_on_c, 0, 36, 0
2, 105561, Note_on_c, 0, 55, 0
2, 105561, Note_on_c, 0, 67, 0
2, 105571, Note_on_c, 0, 67, 72
2, 105572, Note_on_c, 0, 55, 72
2, 105738, Note_on_c, 0, 48, 0
2, 105749, Note_on_c, 0, 48, 65
2, 105750, Note_on_c, 0, 74, 80
2, 105916, Control_c, 0, 64, 0
2, 105941, Note_on_c, 0, 75, 91
2, 105945, Note_on_c, 0, 63, 0
2, 105945, Note_on_c, 0, 70, 0
2, 105949, Note_on_c, 0, 70, 83
2, 105950, Note_on_c, 0, 63, 71
2, 105951, Note_on_c, 0, 68, 77
2, 105996, Note_on_c, 0, 55, 0
2, 106004, Note_on_c, 0, 67, 0
2, 106006, Note_on_c, 0, 48, 0
2, 106010, Note_on_c, 0, 74, 0
2, 106014, Note_on_c, 0, 58, 0
2, 106106, Control_c, 0, 64, 127
2, 106109, Note_on_c, 0, 44, 82
2, 106260, Control_c, 0, 64, 0
2, 106295, Note_on_c, 0, 51, 62
2, 106298, Note_on_c, 0, 63, 0
2, 106304, Note_on_c, 0, 63, 59
2, 106464, Note_on_c, 0, 62, 62
2, 106470, Note_on_c, 0, 56, 61
2, 106575, Control_c, 0, 64, 127
2, 106590, Control_c, 0, 64, 0
2, 106644, Note_on_c, 0, 63, 0
2, 106650, Note_on_c, 0, 58, 75
2, 106651, Note_on_c, 0, 63, 65
2, 106705, Control_c, 0, 64, 127
2, 106828, Note_on_c, 0, 70, 0
2, 106833, Note_on_c, 0, 70, 73
2, 106997, Note_on_c, 0, 56, 0
2, 106997, Note_on_c, 0, 63, 0
2, 107003, Note_on_c, 0, 63, 63
2, 107009, Note_on_c, 0, 56, 65
2, 107166, Note_on_c, 0, 62, 0
2, 107176, Note_on_c, 0, 62, 71
2, 107189, Note_on_c, 0, 51, 0
2, 107198, Note_on_c, 0, 51, 67
2, 107343, Note_on_c, 0, 63, 0
2, 107350, Note_on_c, 0, 63, 68
2, 107509, Control_c, 0, 64, 0
2, 107520, Note_on_c, 0, 58, 0
2, 107520, Note_on_c, 0, 70, 0
2, 107524, Note_on_c, 0, 46, 74
2, 107524, Note_on_c, 0, 58, 73
2, 107525, Note_on_c, 0, 70, 81
2, 107531, Note_on_c, 0, 56, 0
2, 107531, Note_on_c, 0, 68, 0
2, 107531, Note_on_c, 0, 62, 0
2, 107531, Note_on_c, 0, 51, 0
2, 107532, Note_on_c, 0, 75, 0
2, 107532, Note_on_c, 0, 63, 0
2, 107533, Note_on_c, 0, 44, 0
2, 107700, Note_on_c, 0, 65, 68
2, 107703, Note_on_c, 0, 53, 71
2, 107704, Control_c, 0, 64, 127
2, 107873, Note_on_c, 0, 58, 0
2, 107873, Note_on_c, 0, 70, 0
2, 107878, Note_on_c, 0, 70, 79
2, 107882, Note_on_c, 0, 58, 70
2, 108057, Note_on_c, 0, 65, 0
2, 108063, Note_on_c, 0, 65, 68
2, 108065, Note_on_c, 0, 74, 73
2, 108241, Note_on_c, 0, 82, 79
2, 108257, Note_on_c, 0, 70, 0
2, 108264, Note_on_c, 0, 70, 59
2, 108403, Note_on_c, 0, 58, 0
2, 108403, Note_on_c, 0, 74, 0
2, 108410, Note_on_c, 0, 70, 0
2, 108411, Note_on_c, 0, 74, 72
2, 108413, Note_on_c, 0, 58, 70
2, 108420, Note_on_c, 0, 70, 66
2, 108579, Note_on_c, 0, 70, 0
2, 108591, Note_on_c, 0, 70, 73
2, 108595, Note_on_c, 0, 53, 0
2, 108600, Note_on_c, 0, 53, 66
2, 108764, Note_on_c, 0, 74, 0
2, 108771, Note_on_c, 0, 74, 81
2, 108924, Control_c, 0, 64, 0
2, 108937, Note_on_c, 0, 51, 75
2, 108938, Note_on_c, 0, 75, 80
2, 108941, Note_on_c, 0, 46, 0
2, 108943, Note_on_c, 0, 65, 0
2, 108943, Note_on_c, 0, 53, 0
2, 108971, Note_on_c, 0, 58, 0
2, 109094, Note_on_c, 0, 70, 0
2, 109105, Note_on_c, 0, 70, 76
2, 109111, Note_on_c, 0, 58, 75
2, 109117, Control_c, 0, 64, 127
2, 109294, Note_on_c, 0, 70, 0
2, 109294, Note_on_c, 0, 82, 0
2, 109298, Note_on_c, 0, 70, 57
2, 109299, Note_on_c, 0, 82, 73
2, 109300, Note_on_c, 0, 63, 59
2, 109463, Note_on_c, 0, 75, 0
2, 109474, Note_on_c, 0, 75, 75
2, 109474, Note_on_c, 0, 65, 69
2, 109824, Note_on_c, 0, 63, 0
2, 109829, Note_on_c, 0, 63, 52
2, 109831, Note_on_c, 0, 74, 0
2, 109835, Note_on_c, 0, 74, 69
2, 110008, Note_on_c, 0, 58, 0
2, 110008, Note_on_c, 0, 75, 0
2, 110017, Note_on_c, 0, 58, 67
2, 110018, Note_on_c, 0, 75, 65
2, 110177, Note_on_c, 0, 70, 0
2, 110182, Note_on_c, 0, 70, 78
2, 110361, Note_on_c, 0, 70, 0
2, 110364, Control_c, 0, 64, 0
2, 110366, Note_on_c, 0, 36, 80
2, 110369, Note_on_c, 0, 58, 0
2, 110369, Note_on_c, 0, 63, 0
2, 110370, Note_on_c, 0, 70, 93
2, 110373, Note_on_c, 0, 65, 0
2, 110375, Note_on_c, 0, 58, 83
2, 110375, Note_on_c, 0, 51, 0
2, 110379, Note_on_c, 0, 63, 78
2, 110379, Note_on_c, 0, 75, 0
2, 110392, Note_on_c, 0, 82, 0
2, 110415, Note_on_c, 0, 74, 0
2, 110499, Control_c, 0, 64, 127
2, 110525, Note_on_c, 0, 48, 72
2, 110714, Note_on_c, 0, 55, 74
2, 110883, Note_on_c, 0, 58, 0
2, 110883, Note_on_c, 0, 63, 0
2, 110886, Note_on_c, 0, 67, 86
2, 110890, Note_on_c, 0, 58, 79
2, 110892, Note_on_c, 0, 63, 79
2, 110929, Control_c, 0, 64, 0
2, 111037, Control_c, 0, 64, 127
2, 111237, Note_on_c, 0, 67, 0
2, 111244, Note_on_c, 0, 55, 0
2, 111247, Note_on_c, 0, 67, 74
2, 111249, Note_on_c, 0, 55, 72
2, 111398, Note_on_c, 0, 48, 0
2, 111409, Note_on_c, 0, 48, 69
2, 111413, Note_on_c, 0, 74, 84
2, 111593, Note_on_c, 0, 75, 91
2, 111598, Note_on_c, 0, 63, 0
2, 111598, Note_on_c, 0, 70, 0
2, 111609, Note_on_c, 0, 63, 72
2, 111609, Note_on_c, 0, 70, 82
2, 111609, Note_on_c, 0, 68, 78
2, 111682, Note_on_c, 0, 36, 0
2, 111686, Control_c, 0, 64, 0
2, 111686, Note_on_c, 0, 48, 0
2, 111687, Note_on_c, 0, 58, 0
2, 111687, Note_on_c, 0, 55, 0
2, 111687, Note_on_c, 0, 67, 0
2, 111688, Note_on_c, 0, 74, 0
2, 111760, Note_on_c, 0, 44, 84
2, 111874, Control_c, 0, 64, 127
2, 111936, Note_on_c, 0, 51, 60
2, 111943, Note_on_c, 0, 63, 0
2, 111955, Note_on_c, 0, 63, 60
2, 112112, Note_on_c, 0, 62, 62
2, 112114, Note_on_c, 0, 56, 57
2, 112281, Note_on_c, 0, 63, 0
2, 112283, Note_on_c, 0, 58, 76
2, 112286, Note_on_c, 0, 63, 61
2, 112450, Note_on_c, 0, 70, 0
2, 112461, Note_on_c, 0, 70, 78
2, 112627, Note_on_c, 0, 56, 0
2, 112627, Note_on_c, 0, 63, 0
2, 112635, Note_on_c, 0, 56, 68
2, 112635, Note_on_c, 0, 63, 64
2, 112796, Note_on_c, 0, 62, 0
2, 112802, Note_on_c, 0, 62, 70
2, 112811, Note_on_c, 0, 51, 0
2, 112811, Note_on_c, 0, 70, 0
2, 112814, Note_on_c, 0, 72, 73
2, 112818, Note_on_c, 0, 51, 68
2, 112820, Note_on_c, 0, 70, 70
2, 112972, Note_on_c, 0, 72, 0
2, 112980, Note_on_c, 0, 63, 0
2, 112983, Note_on_c, 0, 72, 74
2, 112985, Note_on_c, 0, 63, 67
2, 113136, Control_c, 0, 64, 0
2, 113144, Note_on_c, 0, 51, 0
2, 113144, Note_on_c, 0, 56, 0
2, 113144, Note_on_c, 0, 63, 0
2, 113145, Note_on_c, 0, 44, 0
2, 113145, Note_on_c, 0, 62, 0
2, 113149, Note_on_c, 0, 58, 0
2, 113149, Note_on_c, 0, 70, 0
2, 113153, Note_on_c, 0, 58, 84
2, 113154, Note_on_c, 0, 70, 89
2, 113154, Note_on_c, 0, 46, 86
2, 113303, Control_c, 0, 64, 127
2, 113328, Note_on_c, 0, 65, 70
2, 113331, Note_on_c, 0, 53, 72
2, 113487, Note_on_c, 0, 70, 0
2, 113495, Note_on_c, 0, 58, 0
2, 113498, Note_on_c, 0, 70, 84
2, 113501, Note_on_c, 0, 58, 69
2, 113664, Note_on_c, 0, 65, 0
2, 113664, Note_on_c, 0, 70, 0
2, 113672, Note_on_c, 0, 74, 76
2, 113673, Note_on_c, 0, 70, 69
2, 113674, Note_on_c, 0, 65, 71
2, 113846, Note_on_c, 0, 82, 78
2, 113856, Note_on_c, 0, 82, 0
2, 113889, Note_on_c, 0, 77, 65
2, 114009, Note_on_c, 0, 74, 0
2, 114021, Note_on_c, 0, 74, 77
2, 114024, Note_on_c, 0, 58, 0
2, 114024, Note_on_c, 0, 70, 0
2, 114032, Note_on_c, 0, 58, 68
2, 114035, Note_on_c, 0, 70, 61
2, 114163, Note_on_c, 0, 68, 0
2, 114193, Note_on_c, 0, 53, 0
2, 114193, Note_on_c, 0, 70, 0
2, 114200, Note_on_c, 0, 70, 80
2, 114202, Note_on_c, 0, 53, 67
2, 114362, Note_on_c, 0, 74, 0
2, 114370, Note_on_c, 0, 74, 75
2, 114539, Note_on_c, 0, 75, 0
2, 114549, Note_on_c, 0, 75, 80
2, 114550, Note_on_c, 0, 51, 73
2, 114554, Note_on_c, 0, 72, 0
2, 114556, Control_c, 0, 64, 0
2, 114556, Note_on_c, 0, 53, 0
2, 114557, Note_on_c, 0, 77, 0
2, 114558, Note_on_c, 0, 58, 0
2, 114558, Note_on_c, 0, 70, 0
2, 114558, Note_on_c, 0, 46, 0
2, 114558, Note_on_c, 0, 74, 0
2, 114585, Note_on_c, 0, 65, 0
2, 114717, Note_on_c, 0, 58, 69
2, 114726, Note_on_c, 0, 70, 68
2, 114769, Control_c, 0, 64, 127
2, 114899, Note_on_c, 0, 63, 58
2, 114899, Note_on_c, 0, 82, 75
2, 115080, Note_on_c, 0, 65, 59
2, 115092, Note_on_c, 0, 75, 0
2, 115096, Note_on_c, 0, 75, 69
2, 115100, Control_c, 0, 64, 0
2, 115207, Control_c, 0, 64, 127
2, 115428, Note_on_c, 0, 74, 69
2, 115476, Note_on_c, 0, 82, 0
2, 115614, Note_on_c, 0, 75, 0
2, 115625, Note_on_c, 0, 75, 67
2, 115783, Note_on_c, 0, 70, 0
2, 115795, Note_on_c, 0, 70, 68
2, 115967, Note_on_c, 0, 53, 65
2, 115977, Note_on_c, 0, 65, 0
2, 115979, Note_on_c, 0, 74, 0
2, 115980, Note_on_c, 0, 51, 0
2, 115980, Note_on_c, 0, 58, 0
2, 115983, Control_c, 0, 64, 0
2, 115998, Note_on_c, 0, 63, 0
2, 116136, Note_on_c, 0, 70, 0
2, 116136, Control_c, 0, 64, 127
2, 116142, Note_on_c, 0, 70, 68
2, 116148, Note_on_c, 0, 58, 60
2, 116186, Control_c, 0, 64, 0
2, 116190, Control_c, 0, 64, 127
2, 116307, Note_on_c, 0, 65, 54
2, 116308, Note_on_c, 0, 82, 73
2, 116490, Note_on_c, 0, 70, 0
2, 116490, Note_on_c, 0, 75, 0
2, 116499, Note_on_c, 0, 75, 65
2, 116501, Note_on_c, 0, 70, 56
2, 116689, Control_c, 0, 64, 0
2, 116851, Note_on_c, 0, 74, 58
2, 117035, Note_on_c, 0, 75, 0
2, 117040, Note_on_c, 0, 75, 54
2, 117057, Note_on_c, 0, 74, 0
2, 117066, Note_on_c, 0, 82, 0
2, 117120, Note_on_c, 0, 70, 0
2, 117235, Note_on_c, 0, 70, 55
2, 117788, Control_c, 0, 64, 127
2, 118287, Note_on_c, 0, 65, 0
2, 118291, Note_on_c, 0, 65, 59
2, 118423, Note_on_c, 0, 67, 70
2, 118513, Note_on_c, 0, 68, 74
2, 118571, Note_on_c, 0, 70, 0
2, 118577, Note_on_c, 0, 70, 79
2, 118647, Note_on_c, 0, 72, 83
2, 118692, Note_on_c, 0, 74, 77
2, 118732, Note_on_c, 0, 75, 0
2, 118741, Note_on_c, 0, 75, 75
2, 118791, Note_on_c, 0, 77, 85
2, 118854, Note_on_c, 0, 79, 83
2, 118900, Note_on_c, 0, 80, 83
2, 118993, Note_on_c, 0, 70, 0
2, 118993, Note_on_c, 0, 75, 0
2, 118995, Note_on_c, 0, 82, 100
2, 118995, Note_on_c, 0, 48, 80
2, 118999, Note_on_c, 0, 70, 96
2, 119004, Note_on_c, 0, 75, 85
2, 119013, Note_on_c, 0, 65, 0
2, 119014, Note_on_c, 0, 68, 0
2, 119014, Note_on_c, 0, 67, 0
2, 119014, Note_on_c, 0, 74, 0
2, 119014, Note_on_c, 0, 58, 0
2, 119014, Note_on_c, 0, 53, 0
2, 119015, Note_on_c, 0, 77, 0
2, 119016, Note_on_c, 0, 80, 0
2, 119016, Note_on_c, 0, 72, 0
2, 119016, Note_on_c, 0, 79, 0
2, 119020, Control_c, 0, 64, 0
2, 119156, Note_on_c, 0, 58, 74
2, 119162, Control_c, 0, 64, 127
2, 119330, Note_on_c, 0, 62, 69
2, 119485, Note_on_c, 0, 58, 0
2, 119493, Note_on_c, 0, 58, 63
2, 119528, Note_on_c, 0, 63, 62
2, 119695, Note_on_c, 0, 77, 92
2, 119708, Note_on_c, 0, 70, 0
2, 119713, Note_on_c, 0, 65, 67
2, 119716, Note_on_c, 0, 70, 77
2, 119877, Note_on_c, 0, 62, 0
2, 119882, Note_on_c, 0, 62, 75
2, 120222, Note_on_c, 0, 63, 0
2, 120228, Note_on_c, 0, 63, 66
2, 120407, Note_on_c, 0, 48, 0
2, 120411, Note_on_c, 0, 79, 96
2, 120414, Note_on_c, 0, 70, 0
2, 120416, Note_on_c, 0, 48, 75
2, 120418, Note_on_c, 0, 67, 79
2, 120422, Note_on_c, 0, 75, 0
2, 120425, Note_on_c, 0, 70, 83
2, 120427, Note_on_c, 0, 75, 72
2, 120445, Note_on_c, 0, 82, 0
2, 120446, Note_on_c, 0, 58, 0
2, 120447, Note_on_c, 0, 63, 0
2, 120448, Note_on_c, 0, 65, 0
2, 120448, Note_on_c, 0, 62, 0
2, 120449, Note_on_c, 0, 77, 0
2, 120450, Control_c, 0, 64, 0
2, 120583, Control_c, 0, 64, 127
2, 120588, Note_on_c, 0, 58, 70
2, 120763, Note_on_c, 0, 62, 71
2, 120768, Note_on_c, 0, 48, 0
2, 120949, Note_on_c, 0, 63, 60
2, 121163, Note_on_c, 0, 77, 54
2, 121290, Note_on_c, 0, 62, 0
2, 121298, Note_on_c, 0, 62, 64
2, 121459, Note_on_c, 0, 77, 0
2, 121463, Note_on_c, 0, 77, 82
2, 121482, Note_on_c, 0, 58, 0
2, 121492, Note_on_c, 0, 58, 60
2, 121628, Note_on_c, 0, 79, 0
2, 121639, Note_on_c, 0, 79, 79
2, 121827, Note_on_c, 0, 80, 87
2, 121827, Note_on_c, 0, 75, 0
2, 121831, Note_on_c, 0, 72, 79
2, 121832, Note_on_c, 0, 68, 83
2, 121835, Note_on_c, 0, 67, 0
2, 121835, Note_on_c, 0, 79, 0
2, 121836, Note_on_c, 0, 44, 80
2, 121836, Note_on_c, 0, 75, 83
2, 121837, Note_on_c, 0, 58, 0
2, 121838, Note_on_c, 0, 62, 0
2, 121840, Note_on_c, 0, 63, 0
2, 121858, Note_on_c, 0, 70, 0
2, 121860, Control_c, 0, 64, 0
2, 121873, Note_on_c, 0, 77, 0
2, 121973, Control_c, 0, 64, 127
2, 121997, Note_on_c, 0, 51, 59
2, 122161, Note_on_c, 0, 82, 78
2, 122165, Note_on_c, 0, 58, 73
2, 122166, Note_on_c, 0, 70, 77
2, 122342, Note_on_c, 0, 80, 0
2, 122350, Note_on_c, 0, 68, 0
2, 122352, Note_on_c, 0, 80, 86
2, 122356, Note_on_c, 0, 68, 79
2, 122362, Note_on_c, 0, 63, 60
2, 122709, Note_on_c, 0, 79, 87
2, 122712, Note_on_c, 0, 67, 70
2, 122879, Note_on_c, 0, 56, 66
2, 123048, Note_on_c, 0, 58, 0
2, 123048, Note_on_c, 0, 75, 0
2, 123056, Note_on_c, 0, 63, 0
2, 123058, Note_on_c, 0, 58, 73
2, 123059, Note_on_c, 0, 75, 85
2, 123067, Note_on_c, 0, 63, 68
2, 123133, Note_on_c, 0, 82, 0
2, 123164, Note_on_c, 0, 72, 0
2, 123173, Control_c, 0, 64, 0
2, 123178, Note_on_c, 0, 56, 0
2, 123179, Note_on_c, 0, 80, 0
2, 123179, Note_on_c, 0, 67, 0
2, 123179, Note_on_c, 0, 79, 0
2, 123179, Note_on_c, 0, 51, 0
2, 123180, Note_on_c, 0, 68, 0
2, 123183, Note_on_c, 0, 70, 0
2, 123187, Note_on_c, 0, 44, 0
2, 123243, Note_on_c, 0, 44, 79
2, 123264, Control_c, 0, 64, 127
2, 123402, Note_on_c, 0, 51, 76
2, 123509, Note_on_c, 0, 58, 0
2, 123574, Note_on_c, 0, 74, 81
2, 123581, Note_on_c, 0, 62, 68
2, 123582, Note_on_c, 0, 70, 67
2, 123583, Note_on_c, 0, 58, 67
2, 123755, Note_on_c, 0, 75, 0
2, 123759, Note_on_c, 0, 75, 94
2, 123763, Note_on_c, 0, 63, 0
2, 123763, Note_on_c, 0, 70, 0
2, 123767, Note_on_c, 0, 63, 79
2, 123769, Note_on_c, 0, 70, 85
2, 123844, Note_on_c, 0, 51, 0
2, 123845, Note_on_c, 0, 62, 0
2, 123846, Control_c, 0, 64, 0
2, 123855, Note_on_c, 0, 44, 0
2, 123935, Note_on_c, 0, 46, 83
2, 124062, Control_c, 0, 64, 127
2, 124108, Note_on_c, 0, 70, 0
2, 124112, Note_on_c, 0, 77, 96
2, 124112, Note_on_c, 0, 53, 80
2, 124116, Note_on_c, 0, 65, 79
2, 124119, Note_on_c, 0, 70, 83
2, 124277, Note_on_c, 0, 58, 0
2, 124289, Note_on_c, 0, 58, 71
2, 124448, Note_on_c, 0, 62, 78
2, 124623, Note_on_c, 0, 70, 0
2, 124623, Note_on_c, 0, 75, 0
2, 124626, Note_on_c, 0, 79, 96
2, 124629, Note_on_c, 0, 48, 82
2, 124633, Note_on_c, 0, 70, 87
2, 124634, Note_on_c, 0, 75, 86
2, 124642, Note_on_c, 0, 46, 0
2, 124642, Note_on_c, 0, 58, 0
2, 124642, Note_on_c, 0, 65, 0
2, 124643, Note_on_c, 0, 77, 0
2, 124643, Note_on_c, 0, 53, 0
2, 124648, Control_c, 0, 64, 0
2, 124654, Note_on_c, 0, 63, 0
2, 124654, Note_on_c, 0, 74, 0
2, 124661, Note_on_c, 0, 62, 0
2, 124788, Note_on_c, 0, 55, 81
2, 124792, Control_c, 0, 64, 127
2, 124869, Note_on_c, 0, 48, 0
2, 124961, Note_on_c, 0, 62, 77
2, 125140, Note_on_c, 0, 63, 74
2, 125321, Note_on_c, 0, 77, 84
2, 125322, Note_on_c, 0, 70, 0
2, 125325, Note_on_c, 0, 65, 83
2, 125326, Note_on_c, 0, 70, 82
2, 125483, Note_on_c, 0, 62, 0
2, 125488, Note_on_c, 0, 62, 69
2, 125667, Note_on_c, 0, 79, 0
2, 125674, Note_on_c, 0, 79, 87
2, 125677, Note_on_c, 0, 67, 80
2, 125852, Note_on_c, 0, 70, 0
2, 125854, Note_on_c, 0, 74, 92
2, 125855, Note_on_c, 0, 58, 81
2, 125857, Note_on_c, 0, 70, 86
2, 126014, Control_c, 0, 64, 0
2, 126016, Note_on_c, 0, 63, 0
2, 126017, Note_on_c, 0, 55, 0
2, 126017, Note_on_c, 0, 65, 0
2, 126018, Note_on_c, 0, 77, 0
2, 126018, Note_on_c, 0, 62, 0
2, 126018, Note_on_c, 0, 48, 75
2, 126018, Note_on_c, 0, 79, 0
2, 126028, Note_on_c, 0, 75, 0
2, 126151, Control_c, 0, 64, 127
2, 126197, Note_on_c, 0, 70, 0
2, 126202, Note_on_c, 0, 55, 82
2, 126203, Note_on_c, 0, 70, 84
2, 126243, Control_c, 0, 64, 0
2, 126369, Note_on_c, 0, 62, 70
2, 126536, Note_on_c, 0, 63, 67
2, 126589, Control_c, 0, 64, 127
2, 126708, Note_on_c, 0, 65, 76
2, 126881, Note_on_c, 0, 63, 0
2, 126881, Note_on_c, 0, 70, 0
2, 126891, Note_on_c, 0, 70, 89
2, 126892, Note_on_c, 0, 63, 68
2, 126912, Control_c, 0, 64, 0
2, 126996, Control_c, 0, 64, 127
2, 127042, Note_on_c, 0, 62, 0
2, 127053, Note_on_c, 0, 62, 69
2, 127061, Note_on_c, 0, 68, 82
2, 127226, Note_on_c, 0, 58, 0
2, 127226, Note_on_c, 0, 63, 0
2, 127226, Note_on_c, 0, 70, 0
2, 127231, Note_on_c, 0, 58, 79
2, 127232, Note_on_c, 0, 70, 94
2, 127237, Note_on_c, 0, 63, 73
2, 127244, Note_on_c, 0, 65, 0
2, 127245, Note_on_c, 0, 55, 0
2, 127246, Note_on_c, 0, 62, 0
2, 127249, Note_on_c, 0, 48, 0
2, 127249, Control_c, 0, 64, 0
2, 127265, Note_on_c, 0, 67, 0
2, 127357, Note_on_c, 0, 74, 0
2, 127400, Note_on_c, 0, 44, 83
2, 127579, Note_on_c, 0, 51, 74
2, 127595, Note_on_c, 0, 68, 0
2, 127752, Note_on_c, 0, 56, 73
2, 127864, Control_c, 0, 64, 127
2, 127902, Note_on_c, 0, 58, 0
2, 127913, Note_on_c, 0, 58, 81
2, 128094, Note_on_c, 0, 70, 0
2, 128098, Note_on_c, 0, 70, 83
2, 128263, Note_on_c, 0, 56, 0
2, 128273, Note_on_c, 0, 74, 84
2, 128274, Note_on_c, 0, 56, 65
2, 128275, Note_on_c, 0, 68, 79
2, 128440, Note_on_c, 0, 51, 0
2, 128449, Note_on_c, 0, 51, 67
2, 128609, Note_on_c, 0, 68, 0
2, 128613, Note_on_c, 0, 75, 95
2, 128615, Note_on_c, 0, 68, 83
2, 128616, Note_on_c, 0, 70, 0
2, 128618, Note_on_c, 0, 65, 78
2, 128621, Note_on_c, 0, 70, 85
2, 128640, Note_on_c, 0, 44, 0
2, 128769, Control_c, 0, 64, 0
2, 128783, Note_on_c, 0, 46, 81
2, 128787, Note_on_c, 0, 58, 0
2, 128789, Note_on_c, 0, 51, 0
2, 128791, Note_on_c, 0, 56, 0
2, 128954, Note_on_c, 0, 74, 0
2, 128958, Note_on_c, 0, 53, 79
2, 128963, Note_on_c, 0, 74, 83
2, 128970, Note_on_c, 0, 63, 0
2, 128973, Note_on_c, 0, 67, 70
2, 129100, Control_c, 0, 64, 127
2, 129123, Note_on_c, 0, 67, 0
2, 129128, Note_on_c, 0, 58, 78
2, 129132, Note_on_c, 0, 67, 76
2, 129288, Note_on_c, 0, 62, 82
2, 129300, Note_on_c, 0, 75, 0
2, 129308, Note_on_c, 0, 65, 0
2, 129308, Note_on_c, 0, 70, 0
2, 129311, Note_on_c, 0, 75, 89
2, 129312, Note_on_c, 0, 65, 80
2, 129313, Note_on_c, 0, 70, 82
2, 129454, Control_c, 0, 64, 0
2, 129463, Note_on_c, 0, 67, 0
2, 129465, Note_on_c, 0, 53, 0
2, 129467, Note_on_c, 0, 46, 0
2, 129471, Note_on_c, 0, 44, 82
2, 129477, Note_on_c, 0, 68, 0
2, 129642, Note_on_c, 0, 53, 81
2, 129646, Note_on_c, 0, 65, 0
2, 129646, Note_on_c, 0, 70, 0
2, 129650, Note_on_c, 0, 77, 92
2, 129656, Note_on_c, 0, 65, 87
2, 129657, Note_on_c, 0, 70, 82
2, 129807, Control_c, 0, 64, 127
2, 129813, Note_on_c, 0, 46, 89
2, 129838, Note_on_c, 0, 62, 0
2, 129968, Note_on_c, 0, 58, 0
2, 129974, Note_on_c, 0, 58, 78
2, 129977, Note_on_c, 0, 65, 0
2, 130091, Note_on_c, 0, 74, 0
2, 130095, Control_c, 0, 64, 0
2, 130102, Note_on_c, 0, 58, 0
2, 130103, Note_on_c, 0, 70, 0
2, 130103, Note_on_c, 0, 46, 0
2, 130103, Note_on_c, 0, 77, 0
2, 130103, Note_on_c, 0, 53, 0
2, 130106, Note_on_c, 0, 44, 0
2, 130106, Note_on_c, 0, 75, 0
2, 130159, Note_on_c, 0, 84, 101
2, 130162, Note_on_c, 0, 79, 93
2, 130163, Note_on_c, 0, 72, 104
2, 130164, Note_on_c, 0, 48, 92
2, 130164, Note_on_c, 0, 36, 87
2, 130165, Note_on_c, 0, 75, 94
2, 130306, Note_on_c, 0, 48, 0
2, 130311, Note_on_c, 0, 48, 77
2, 130344, Control_c, 0, 64, 127
2, 130505, Note_on_c, 0, 58, 84
2, 130687, Note_on_c, 0, 63, 69
2, 130848, Note_on_c, 0, 86, 95
2, 130851, Control_c, 0, 64, 0
2, 130854, Note_on_c, 0, 74, 94
2, 130855, Note_on_c, 0, 82, 101
2, 130855, Note_on_c, 0, 70, 91
2, 131005, Control_c, 0, 64, 127
2, 131020, Note_on_c, 0, 63, 0
2, 131031, Note_on_c, 0, 63, 65
2, 131189, Note_on_c, 0, 58, 0
2, 131189, Note_on_c, 0, 75, 0
2, 131193, Note_on_c, 0, 87, 90
2, 131194, Note_on_c, 0, 58, 85
2, 131195, Note_on_c, 0, 75, 88
2, 131358, Note_on_c, 0, 48, 0
2, 131363, Note_on_c, 0, 48, 74
2, 131366, Note_on_c, 0, 70, 0
2, 131366, Note_on_c, 0, 75, 0
2, 131366, Note_on_c, 0, 82, 0
2, 131371, Note_on_c, 0, 82, 99
2, 131376, Note_on_c, 0, 70, 92
2, 131377, Note_on_c, 0, 75, 86
2, 131462, Control_c, 0, 64, 0
2, 131462, Note_on_c, 0, 48, 0
2, 131462, Note_on_c, 0, 84, 0
2, 131463, Note_on_c, 0, 36, 0
2, 131464, Note_on_c, 0, 74, 0
2, 131464, Note_on_c, 0, 72, 0
2, 131464, Note_on_c, 0, 58, 0
2, 131464, Note_on_c, 0, 63, 0
2, 131466, Note_on_c, 0, 86, 0
2, 131489, Note_on_c, 0, 87, 0
2, 131539, Note_on_c, 0, 48, 90
2, 131539, Note_on_c, 0, 36, 88
2, 131712, Note_on_c, 0, 75, 0
2, 131716, Note_on_c, 0, 80, 90
2, 131722, Note_on_c, 0, 75, 84
2, 131723, Note_on_c, 0, 68, 88
2, 131873, Control_c, 0, 64, 127
2, 131896, Note_on_c, 0, 58, 78
2, 132072, Note_on_c, 0, 63, 67
2, 132234, Note_on_c, 0, 70, 0
2, 132234, Note_on_c, 0, 75, 0
2, 132239, Note_on_c, 0, 70, 90
2, 132243, Note_on_c, 0, 75, 82
2, 132403, Note_on_c, 0, 63, 0
2, 132403, Note_on_c, 0, 79, 0
2, 132413, Note_on_c, 0, 63, 73
2, 132414, Note_on_c, 0, 79, 84
2, 132572, Note_on_c, 0, 58, 0
2, 132572, Note_on_c, 0, 75, 0
2, 132576, Note_on_c, 0, 58, 81
2, 132578, Note_on_c, 0, 77, 84
2, 132581, Note_on_c, 0, 75, 79
2, 132725, Note_on_c, 0, 48, 0
2, 132737, Note_on_c, 0, 48, 78
2, 132748, Note_on_c, 0, 75, 0
2, 132756, Note_on_c, 0, 68, 0
2, 132756, Note_on_c, 0, 75, 92
2, 132760, Note_on_c, 0, 72, 83
2, 132761, Note_on_c, 0, 68, 83
2, 132801, Note_on_c, 0, 79, 0
2, 132802, Note_on_c, 0, 36, 0
2, 132804, Note_on_c, 0, 48, 0
2, 132804, Note_on_c, 0, 70, 0
2, 132806, Note_on_c, 0, 63, 0
2, 132807, Note_on_c, 0, 80, 0
2, 132810, Note_on_c, 0, 82, 0
2, 132811, Control_c, 0, 64, 0
2, 132825, Note_on_c, 0, 58, 0
2, 132833, Note_on_c, 0, 77, 0
2, 132924, Note_on_c, 0, 44, 91
2, 132925, Note_on_c, 0, 32, 84
2, 133002, Control_c, 0, 64, 127
2, 133086, Note_on_c, 0, 44, 0
2, 133098, Note_on_c, 0, 44, 57
2, 133279, Note_on_c, 0, 51, 57
2, 133447, Note_on_c, 0, 75, 0
2, 133449, Note_on_c, 0, 58, 73
2, 133451, Note_on_c, 0, 75, 80
2, 133616, Note_on_c, 0, 68, 0
2, 133616, Note_on_c, 0, 72, 0
2, 133616, Note_on_c, 0, 75, 0
2, 133621, Note_on_c, 0, 75, 89
2, 133622, Note_on_c, 0, 72, 82
2, 133623, Note_on_c, 0, 63, 71
2, 133625, Note_on_c, 0, 68, 87
2, 133793, Note_on_c, 0, 58, 0
2, 133800, Note_on_c, 0, 74, 82
2, 133801, Note_on_c, 0, 58, 72
2, 133803, Note_on_c, 0, 70, 75
2, 133908, Note_on_c, 0, 68, 0
2, 133918, Note_on_c, 0, 68, 55
2, 133962, Note_on_c, 0, 51, 0
2, 133962, Note_on_c, 0, 70, 0
2, 133967, Note_on_c, 0, 70, 79
2, 133969, Note_on_c, 0, 51, 68
2, 134131, Note_on_c, 0, 44, 0
2, 134136, Note_on_c, 0, 44, 74
2, 134138, Note_on_c, 0, 75, 0
2, 134146, Note_on_c, 0, 70, 0
2, 134147, Note_on_c, 0, 75, 92
2, 134152, Note_on_c, 0, 70, 85
2, 134152, Note_on_c, 0, 65, 76
2, 134182, Control_c, 0, 64, 0
2, 134206, Note_on_c, 0, 58, 0
2, 134208, Note_on_c, 0, 63, 0
2, 134208, Note_on_c, 0, 74, 0
2, 134209, Note_on_c, 0, 32, 0
2, 134210, Note_on_c, 0, 44, 0
2, 134210, Note_on_c, 0, 51, 0
2, 134210, Note_on_c, 0, 72, 0
2, 134238, Note_on_c, 0, 68, 0
2, 134305, Note_on_c, 0, 46, 85
2, 134307, Note_on_c, 0, 34, 80
2, 134346, Control_c, 0, 64, 127
2, 134476, Note_on_c, 0, 46, 0
2, 134481, Note_on_c, 0, 46, 69
2, 134488, Note_on_c, 0, 74, 80
2, 134650, Note_on_c, 0, 53, 73
2, 134653, Note_on_c, 0, 70, 0
2, 134660, Note_on_c, 0, 70, 82
2, 134830, Note_on_c, 0, 65, 0
2, 134830, Note_on_c, 0, 70, 0
2, 134830, Note_on_c, 0, 75, 0
2, 134835, Note_on_c, 0, 70, 87
2, 134835, Note_on_c, 0, 75, 89
2, 134838, Note_on_c, 0, 62, 77
2, 134838, Note_on_c, 0, 65, 80
2, 134841, Note_on_c, 0, 58, 75
2, 134999, Note_on_c, 0, 53, 0
2, 135009, Note_on_c, 0, 53, 71
2, 135168, Note_on_c, 0, 65, 0
2, 135177, Note_on_c, 0, 65, 82
2, 135336, Note_on_c, 0, 62, 0
2, 135344, Note_on_c, 0, 70, 0
2, 135344, Note_on_c, 0, 74, 0
2, 135347, Note_on_c, 0, 62, 77
2, 135347, Note_on_c, 0, 77, 89
2, 135348, Note_on_c, 0, 70, 85
2, 135349, Note_on_c, 0, 74, 76
2, 135498, Note_on_c, 0, 58, 0
2, 135509, Note_on_c, 0, 58, 71
2, 135672, Control_c, 0, 64, 0
2, 135678, Note_on_c, 0, 46, 0
2, 135678, Note_on_c, 0, 58, 0
2, 135678, Note_on_c, 0, 53, 0
2, 135678, Note_on_c, 0, 34, 0
2, 135678, Note_on_c, 0, 62, 0
2, 135678, Note_on_c, 0, 65, 0
2, 135679, Note_on_c, 0, 77, 0
2, 135679, Note_on_c, 0, 74, 0
2, 135687, Note_on_c, 0, 78, 98
2, 135690, Note_on_c, 0, 75, 0
2, 135694, Note_on_c, 0, 75, 86
2, 135695, Note_on_c, 0, 71, 80
2, 135697, Note_on_c, 0, 35, 80
2, 135705, Note_on_c, 0, 70, 0
2, 135805, Control_c, 0, 64, 127
2, 135843, Note_on_c, 0, 35, 0
2, 136043, Note_on_c, 0, 59, 66
2, 136211, Note_on_c, 0, 54, 64
2, 136212, Note_on_c, 0, 71, 0
2, 136212, Note_on_c, 0, 75, 0
2, 136212, Note_on_c, 0, 80, 93
2, 136215, Note_on_c, 0, 63, 70
2, 136217, Note_on_c, 0, 75, 82
2, 136219, Note_on_c, 0, 71, 84
2, 136221, Note_on_c, 0, 66, 78
2, 136381, Note_on_c, 0, 47, 83
2, 136542, Note_on_c, 0, 63, 0
2, 136552, Note_on_c, 0, 63, 74
2, 136719, Note_on_c, 0, 59, 0
2, 136724, Note_on_c, 0, 59, 82
2, 136724, Note_on_c, 0, 82, 94
2, 136734, Note_on_c, 0, 71, 0
2, 136738, Note_on_c, 0, 71, 69
2, 136888, Note_on_c, 0, 54, 0
2, 136899, Note_on_c, 0, 54, 69
2, 137066, Note_on_c, 0, 80, 0
2, 137066, Note_on_c, 0, 78, 0
2, 137067, Note_on_c, 0, 59, 0
2, 137067, Control_c, 0, 64, 0
2, 137067, Note_on_c, 0, 71, 0
2, 137067, Note_on_c, 0, 75, 0
2, 137067, Note_on_c, 0, 66, 0
2, 137067, Note_on_c, 0, 54, 0
2, 137068, Note_on_c, 0, 77, 91
2, 137068, Note_on_c, 0, 63, 0
2, 137068, Note_on_c, 0, 82, 0
2, 137072, Note_on_c, 0, 47, 0
2, 137074, Note_on_c, 0, 68, 86
2, 137074, Note_on_c, 0, 37, 82
2, 137074, Note_on_c, 0, 49, 88
2, 137076, Note_on_c, 0, 73, 81
2, 137187, Control_c, 0, 64, 127
2, 137235, Note_on_c, 0, 53, 75
2, 137418, Note_on_c, 0, 68, 0
2, 137418, Note_on_c, 0, 56, 67
2, 137421, Note_on_c, 0, 78, 85
2, 137428, Note_on_c, 0, 68, 76
2, 137587, Note_on_c, 0, 68, 0
2, 137587, Note_on_c, 0, 73, 0
2, 137591, Note_on_c, 0, 73, 90
2, 137593, Note_on_c, 0, 68, 84
2, 137598, Note_on_c, 0, 61, 76
2, 137756, Note_on_c, 0, 49, 0
2, 137766, Note_on_c, 0, 49, 76
2, 137940, Note_on_c, 0, 49, 0
2, 137940, Note_on_c, 0, 61, 0
2, 137944, Note_on_c, 0, 70, 83
2, 137948, Note_on_c, 0, 61, 73
2, 137949, Note_on_c, 0, 49, 68
2, 138094, Note_on_c, 0, 56, 0
2, 138101, Note_on_c, 0, 56, 72
2, 138263, Note_on_c, 0, 53, 0
2, 138269, Note_on_c, 0, 53, 75
2, 138270, Note_on_c, 0, 68, 0
2, 138274, Note_on_c, 0, 68, 86
2, 138355, Note_on_c, 0, 37, 0
2, 138364, Note_on_c, 0, 49, 0
2, 138365, Control_c, 0, 64, 0
2, 138366, Note_on_c, 0, 73, 0
2, 138366, Note_on_c, 0, 56, 0
2, 138366, Note_on_c, 0, 61, 0
2, 138366, Note_on_c, 0, 78, 0
2, 138366, Note_on_c, 0, 70, 0
2, 138367, Note_on_c, 0, 53, 0
2, 138367, Note_on_c, 0, 77, 0
2, 138439, Control_c, 0, 64, 127
2, 138450, Note_on_c, 0, 32, 87
2, 138450, Note_on_c, 0, 44, 84
2, 138616, Note_on_c, 0, 44, 0
2, 138616, Note_on_c, 0, 68, 0
2, 138625, Note_on_c, 0, 56, 65
2, 138625, Note_on_c, 0, 44, 64
2, 138625, Note_on_c, 0, 68, 81
2, 138808, Note_on_c, 0, 68, 0
2, 138809, Note_on_c, 0, 75, 89
2, 138812, Note_on_c, 0, 68, 79
2, 138813, Note_on_c, 0, 51, 63
2, 138819, Note_on_c, 0, 72, 74
2, 138837, Control_c, 0, 64, 0
2, 138923, Control_c, 0, 64, 127
2, 138961, Note_on_c, 0, 56, 0
2, 138972, Note_on_c, 0, 56, 53
2, 139146, Note_on_c, 0, 60, 65
2, 139336, Note_on_c, 0, 63, 41
2, 139484, Note_on_c, 0, 68, 0
2, 139495, Note_on_c, 0, 68, 62
2, 139653, Note_on_c, 0, 75, 0
2, 139664, Note_on_c, 0, 75, 60
2, 139847, Note_on_c, 0, 94, 86
2, 139847, Control_c, 0, 64, 0
2, 139862, Note_on_c, 0, 82, 72
2, 140021, Control_c, 0, 64, 127
2, 140211, Note_on_c, 0, 92, 72
2, 140216, Note_on_c, 0, 80, 67
2, 140561, Note_on_c, 0, 91, 79
2, 140564, Note_on_c, 0, 79, 74
2, 140917, Note_on_c, 0, 87, 72
2, 140935, Note_on_c, 0, 75, 0
2, 140939, Note_on_c, 0, 75, 57
2, 141096, Note_on_c, 0, 75, 0
2, 141101, Note_on_c, 0, 75, 70
2, 141272, Note_on_c, 0, 47, 75
2, 141274, Note_on_c, 0, 59, 71
2, 141277, Note_on_c, 0, 78, 85
2, 141278, Note_on_c, 0, 91, 0
2, 141280, Note_on_c, 0, 79, 0
2, 141281, Note_on_c, 0, 32, 0
2, 141284, Note_on_c, 0, 87, 0
2, 141284, Note_on_c, 0, 94, 0
2, 141285, Note_on_c, 0, 82, 0
2, 141285, Note_on_c, 0, 63, 0
2, 141285, Note_on_c, 0, 92, 0
2, 141286, Note_on_c, 0, 68, 0
2, 141287, Note_on_c, 0, 51, 0
2, 141290, Note_on_c, 0, 60, 0
2, 141291, Note_on_c, 0, 80, 0
2, 141292, Note_on_c, 0, 72, 0
2, 141292, Note_on_c, 0, 56, 0
2, 141294, Note_on_c, 0, 44, 0
2, 141296, Note_on_c, 0, 75, 0
2, 141300, Note_on_c, 0, 75, 55
2, 141304, Note_on_c, 0, 71, 56
2, 141307, Control_c, 0, 64, 0
2, 141404, Control_c, 0, 64, 127
2, 141447, Note_on_c, 0, 54, 65
2, 141626, Note_on_c, 0, 59, 0
2, 141637, Note_on_c, 0, 59, 64
2, 141800, Note_on_c, 0, 80, 86
2, 141818, Note_on_c, 0, 71, 0
2, 141822, Note_on_c, 0, 63, 55
2, 141827, Note_on_c, 0, 71, 50
2, 142156, Note_on_c, 0, 59, 0
2, 142162, Note_on_c, 0, 59, 65
2, 142336, Note_on_c, 0, 82, 86
2, 142341, Note_on_c, 0, 71, 0
2, 142352, Note_on_c, 0, 71, 65
2, 142502, Note_on_c, 0, 54, 0
2, 142513, Note_on_c, 0, 54, 66
2, 142690, Note_on_c, 0, 85, 84
2, 142693, Control_c, 0, 64, 0
2, 142696, Note_on_c, 0, 71, 0
2, 142697, Note_on_c, 0, 59, 0
2, 142697, Note_on_c, 0, 75, 0
2, 142697, Note_on_c, 0, 78, 0
2, 142697, Note_on_c, 0, 49, 71
2, 142698, Note_on_c, 0, 63, 0
2, 142701, Note_on_c, 0, 82, 0
2, 142702, Note_on_c, 0, 80, 0
2, 142702, Note_on_c, 0, 47, 0
2, 142703, Note_on_c, 0, 73, 73
2, 142706, Note_on_c, 0, 80, 61
2, 142706, Note_on_c, 0, 77, 66
2, 142709, Note_on_c, 0, 54, 0
2, 142848, Control_c, 0, 64, 127
2, 142857, Note_on_c, 0, 56, 61
2, 143032, Note_on_c, 0, 77, 0
2, 143039, Note_on_c, 0, 77, 72
2, 143044, Note_on_c, 0, 68, 72
2, 143048, Note_on_c, 0, 61, 59
2, 143216, Note_on_c, 0, 68, 0
2, 143216, Note_on_c, 0, 73, 0
2, 143223, Note_on_c, 0, 73, 74
2, 143225, Note_on_c, 0, 65, 60
2, 143226, Note_on_c, 0, 68, 70
2, 143569, Note_on_c, 0, 61, 0
2, 143569, Note_on_c, 0, 65, 0
2, 143569, Note_on_c, 0, 73, 0
2, 143573, Note_on_c, 0, 73, 74
2, 143574, Note_on_c, 0, 61, 56
2, 143574, Note_on_c, 0, 65, 59
2, 143597, Control_c, 0, 64, 0
2, 143646, Control_c, 0, 64, 127
2, 143746, Note_on_c, 0, 49, 0
2, 143752, Note_on_c, 0, 70, 73
2, 143923, Note_on_c, 0, 56, 0
2, 143923, Note_on_c, 0, 65, 0
2, 143923, Note_on_c, 0, 68, 0
2, 143927, Note_on_c, 0, 68, 76
2, 143928, Note_on_c, 0, 56, 69
2, 143934, Note_on_c, 0, 65, 57
2, 144088, Control_c, 0, 64, 0
2, 144103, Note_on_c, 0, 51, 66
2, 144153, Control_c, 0, 64, 127
2, 144253, Note_on_c, 0, 68, 0
2, 144258, Note_on_c, 0, 68, 71
2, 144282, Note_on_c, 0, 58, 61
2, 144442, Note_on_c, 0, 75, 81
2, 144450, Note_on_c, 0, 63, 60
2, 144622, Note_on_c, 0, 65, 0
2, 144629, Note_on_c, 0, 65, 64
2, 144660, Note_on_c, 0, 85, 0
2, 144996, Note_on_c, 0, 67, 60
2, 145182, Note_on_c, 0, 75, 0
2, 145190, Note_on_c, 0, 63, 0
2, 145193, Note_on_c, 0, 75, 46
2, 145195, Note_on_c, 0, 63, 41
2, 145328, Note_on_c, 0, 61, 0
2, 145367, Note_on_c, 0, 58, 0
2, 145372, Note_on_c, 0, 58, 57
2, 145520, Note_on_c, 0, 51, 0
2, 145526, Control_c, 0, 64, 0
2, 145528, Note_on_c, 0, 73, 0
2, 145528, Note_on_c, 0, 80, 0
2, 145529, Note_on_c, 0, 51, 64
2, 145532, Note_on_c, 0, 70, 0
2, 145532, Note_on_c, 0, 56, 0
2, 145532, Note_on_c, 0, 65, 0
2, 145532, Note_on_c, 0, 58, 0
2, 145533, Note_on_c, 0, 77, 0
2, 145551, Note_on_c, 0, 68, 0
2, 145628, Control_c, 0, 64, 127
2, 145694, Note_on_c, 0, 58, 64
2, 145872, Note_on_c, 0, 65, 55
2, 146059, Note_on_c, 0, 70, 62
2, 146073, Note_on_c, 0, 63, 0
2, 146219, Note_on_c, 0, 75, 0
2, 146227, Note_on_c, 0, 75, 64
2, 146949, Note_on_c, 0, 70, 0
2, 146959, Control_c, 0, 64, 0
2, 146960, Note_on_c, 0, 65, 0
2, 146960, Note_on_c, 0, 70, 69
2, 146960, Note_on_c, 0, 56, 61
2, 146960, Note_on_c, 0, 51, 0
2, 146960, Note_on_c, 0, 58, 0
2, 146962, Note_on_c, 0, 68, 61
2, 146966, Note_on_c, 0, 63, 51
2, 147133, Note_on_c, 0, 70, 0
2, 147133, Control_c, 0, 64, 127
2, 147141, Note_on_c, 0, 63, 0
2, 147143, Note_on_c, 0, 70, 71
2, 147145, Note_on_c, 0, 63, 44
2, 147486, Note_on_c, 0, 70, 0
2, 147494, Note_on_c, 0, 70, 78
2, 147655, Note_on_c, 0, 63, 0
2, 147660, Note_on_c, 0, 63, 44
2, 147840, Note_on_c, 0, 63, 0
2, 147840, Note_on_c, 0, 67, 0
2, 147840, Note_on_c, 0, 68, 0
2, 147840, Note_on_c, 0, 70, 0
2, 147844, Note_on_c, 0, 70, 69
2, 147846, Note_on_c, 0, 63, 43
2, 147847, Note_on_c, 0, 68, 53
2, 148008, Note_on_c, 0, 63, 0
2, 148016, Note_on_c, 0, 70, 0
2, 148019, Note_on_c, 0, 63, 47
2, 148021, Note_on_c, 0, 70, 66
2, 148029, Note_on_c, 0, 67, 55
2, 148170, Note_on_c, 0, 70, 0
2, 148180, Note_on_c, 0, 70, 71
2, 148185, Note_on_c, 0, 67, 0
2, 148192, Note_on_c, 0, 67, 62
2, 148346, Note_on_c, 0, 56, 0
2, 148346, Note_on_c, 0, 70, 0
2, 148354, Note_on_c, 0, 63, 0
2, 148354, Note_on_c, 0, 68, 0
2, 148357, Note_on_c, 0, 56, 69
2, 148357, Note_on_c, 0, 70, 74
2, 148359, Note_on_c, 0, 68, 70
2, 148361, Note_on_c, 0, 63, 56
2, 148531, Note_on_c, 0, 67, 0
2, 148531, Note_on_c, 0, 70, 0
2, 148535, Note_on_c, 0, 70, 69
2, 148538, Note_on_c, 0, 63, 0
2, 148540, Note_on_c, 0, 67, 74
2, 148544, Note_on_c, 0, 63, 47
2, 148684, Note_on_c, 0, 63, 0
2, 148692, Note_on_c, 0, 67, 0
2, 148696, Note_on_c, 0, 63, 65
2, 148697, Note_on_c, 0, 67, 68
2, 148705, Note_on_c, 0, 99, 84
2, 148715, Note_on_c, 0, 65, 69
2, 148869, Note_on_c, 0, 70, 0
2, 148875, Note_on_c, 0, 94, 89
2, 148875, Note_on_c, 0, 70, 74
2, 148876, Note_on_c, 0, 63, 0
2, 148877, Note_on_c, 0, 65, 0
2, 148880, Note_on_c, 0, 63, 64
2, 148889, Note_on_c, 0, 82, 75
2, 148915, Note_on_c, 0, 56, 0
2, 148915, Note_on_c, 0, 68, 0
2, 148930, Note_on_c, 0, 75, 0
2, 149061, Note_on_c, 0, 67, 0
2, 149072, Note_on_c, 0, 67, 43
2, 149222, Note_on_c, 0, 70, 0
2, 149222, Note_on_c, 0, 94, 0
2, 149229, Note_on_c, 0, 70, 69
2, 149230, Note_on_c, 0, 82, 0
2, 149231, Note_on_c, 0, 94, 88
2, 149237, Note_on_c, 0, 99, 0
2, 149239, Note_on_c, 0, 82, 79
2, 149399, Note_on_c, 0, 63, 0
2, 149403, Note_on_c, 0, 63, 59
2, 149410, Note_on_c, 0, 92, 77
2, 149426, Note_on_c, 0, 80, 70
2, 149575, Note_on_c, 0, 63, 0
2, 149575, Note_on_c, 0, 70, 0
2, 149576, Note_on_c, 0, 91, 89
2, 149582, Note_on_c, 0, 63, 67
2, 149583, Note_on_c, 0, 70, 70
2, 149583, Note_on_c, 0, 79, 80
2, 149736, Note_on_c, 0, 67, 0
2, 149736, Note_on_c, 0, 70, 0
2, 149745, Note_on_c, 0, 55, 66
2, 149747, Note_on_c, 0, 70, 67
2, 149748, Note_on_c, 0, 67, 59
2, 149913, Note_on_c, 0, 70, 0
2, 149913, Note_on_c, 0, 91, 0
2, 149921, Note_on_c, 0, 79, 0
2, 149923, Note_on_c, 0, 70, 68
2, 149924, Note_on_c, 0, 91, 83
2, 149927, Note_on_c, 0, 79, 70
2, 149928, Note_on_c, 0, 63, 0
2, 149937, Note_on_c, 0, 63, 52
2, 149948, Note_on_c, 0, 65, 58
2, 150082, Note_on_c, 0, 63, 0
2, 150092, Note_on_c, 0, 63, 48
2, 150103, Note_on_c, 0, 77, 73
2, 150104, Note_on_c, 0, 89, 76
2, 150259, Note_on_c, 0, 70, 0
2, 150269, Note_on_c, 0, 87, 75
2, 150270, Note_on_c, 0, 70, 68
2, 150274, Note_on_c, 0, 67, 0
2, 150275, Note_on_c, 0, 75, 64
2, 150285, Note_on_c, 0, 67, 56
2, 150289, Note_on_c, 0, 63, 0
2, 150294, Note_on_c, 0, 63, 60
2, 150428, Note_on_c, 0, 63, 0
2, 150436, Note_on_c, 0, 63, 50
2, 150612, Note_on_c, 0, 70, 0
2, 150622, Note_on_c, 0, 70, 69
2, 150625, Note_on_c, 0, 58, 70
2, 150781, Note_on_c, 0, 58, 0
2, 150781, Note_on_c, 0, 63, 0
2, 150781, Note_on_c, 0, 75, 0
2, 150787, Note_on_c, 0, 63, 44
2, 150788, Note_on_c, 0, 58, 53
2, 150789, Note_on_c, 0, 75, 52
2, 150950, Note_on_c, 0, 58, 0
2, 150958, Note_on_c, 0, 70, 0
2, 150961, Note_on_c, 0, 58, 64
2, 150962, Note_on_c, 0, 70, 73
2, 151111, Note_on_c, 0, 55, 0
2, 151117, Note_on_c, 0, 55, 70
2, 151127, Note_on_c, 0, 70, 0
2, 151134, Note_on_c, 0, 63, 0
2, 151134, Note_on_c, 0, 75, 0
2, 151134, Note_on_c, 0, 87, 0
2, 151137, Note_on_c, 0, 70, 70
2, 151142, Note_on_c, 0, 63, 53
2, 151145, Note_on_c, 0, 75, 75
2, 151145, Note_on_c, 0, 87, 76
2, 151296, Note_on_c, 0, 70, 0
2, 151296, Note_on_c, 0, 89, 0
2, 151301, Note_on_c, 0, 89, 80
2, 151303, Note_on_c, 0, 63, 0
2, 151303, Note_on_c, 0, 77, 0
2, 151304, Note_on_c, 0, 70, 76
2, 151308, Note_on_c, 0, 77, 70
2, 151309, Note_on_c, 0, 63, 54
2, 151336, Control_c, 0, 64, 0
2, 151357, Control_c, 0, 64, 127
2, 151464, Note_on_c, 0, 63, 0
2, 151464, Note_on_c, 0, 91, 0
2, 151469, Note_on_c, 0, 63, 59
2, 151469, Note_on_c, 0, 91, 83
2, 151472, Note_on_c, 0, 79, 0
2, 151476, Note_on_c, 0, 79, 76
2, 151649, Note_on_c, 0, 70, 0
2, 151649, Note_on_c, 0, 87, 0
2, 151656, Note_on_c, 0, 75, 0
2, 151656, Note_on_c, 0, 87, 84
2, 151657, Note_on_c, 0, 70, 75
2, 151667, Note_on_c, 0, 75, 72
2, 151680, Note_on_c, 0, 65, 0
2, 151680, Note_on_c, 0, 80, 0
2, 151680, Note_on_c, 0, 92, 0
2, 151680, Note_on_c, 0, 94, 0
2, 151810, Note_on_c, 0, 63, 0
2, 151820, Note_on_c, 0, 63, 49
2, 151987, Note_on_c, 0, 82, 0
2, 151994, Note_on_c, 0, 63, 0
2, 151994, Note_on_c, 0, 70, 0
2, 151994, Note_on_c, 0, 75, 0
2, 151997, Note_on_c, 0, 82, 80
2, 151999, Note_on_c, 0, 70, 70
2, 152000, Note_on_c, 0, 75, 67
2, 152002, Note_on_c, 0, 63, 59
2, 152156, Note_on_c, 0, 63, 0
2, 152166, Note_on_c, 0, 63, 50
2, 152340, Note_on_c, 0, 87, 0
2, 152348, Note_on_c, 0, 70, 0
2, 152348, Note_on_c, 0, 75, 0
2, 152349, Note_on_c, 0, 87, 84
2, 152356, Note_on_c, 0, 75, 72
2, 152359, Note_on_c, 0, 70, 67
2, 152478, Note_on_c, 0, 77, 0
2, 152495, Control_c, 0, 64, 0
2, 152517, Note_on_c, 0, 70, 0
2, 152521, Note_on_c, 0, 70, 69
2, 152522, Note_on_c, 0, 56, 64
2, 152525, Note_on_c, 0, 68, 66
2, 152532, Note_on_c, 0, 68, 0
2, 152540, Control_c, 0, 64, 127
2, 152686, Note_on_c, 0, 63, 0
2, 152696, Note_on_c, 0, 63, 40
2, 152701, Note_on_c, 0, 70, 0
2, 152701, Note_on_c, 0, 75, 0
2, 152710, Note_on_c, 0, 75, 59
2, 152711, Note_on_c, 0, 70, 75
2, 152862, Note_on_c, 0, 63, 0
2, 152872, Note_on_c, 0, 63, 38
2, 153047, Note_on_c, 0, 70, 0
2, 153054, Note_on_c, 0, 63, 0
2, 153058, Note_on_c, 0, 70, 74
2, 153060, Note_on_c, 0, 63, 42
2, 153216, Note_on_c, 0, 63, 0
2, 153222, Note_on_c, 0, 63, 47
2, 153392, Note_on_c, 0, 70, 0
2, 153400, Note_on_c, 0, 63, 0
2, 153404, Note_on_c, 0, 70, 75
2, 153406, Note_on_c, 0, 63, 40
2, 153561, Note_on_c, 0, 63, 0
2, 153568, Note_on_c, 0, 63, 48
2, 153569, Note_on_c, 0, 67, 0
2, 153580, Note_on_c, 0, 67, 45
2, 153738, Note_on_c, 0, 63, 0
2, 153738, Note_on_c, 0, 70, 0
2, 153742, Note_on_c, 0, 63, 52
2, 153745, Note_on_c, 0, 67, 0
2, 153748, Note_on_c, 0, 70, 73
2, 153750, Note_on_c, 0, 67, 66
2, 153884, Note_on_c, 0, 89, 0
2, 153914, Note_on_c, 0, 70, 0
2, 153914, Note_on_c, 0, 82, 0
2, 153919, Note_on_c, 0, 94, 89
2, 153920, Note_on_c, 0, 70, 74
2, 153922, Note_on_c, 0, 56, 0
2, 153923, Note_on_c, 0, 82, 82
2, 153928, Note_on_c, 0, 56, 72
2, 153928, Note_on_c, 0, 75, 0
2, 153945, Note_on_c, 0, 55, 0
2, 154068, Note_on_c, 0, 87, 0
2, 154080, Note_on_c, 0, 98, 91
2, 154083, Note_on_c, 0, 67, 0
2, 154087, Note_on_c, 0, 86, 81
2, 154088, Note_on_c, 0, 67, 74
2, 154091, Note_on_c, 0, 70, 0
2, 154097, Note_on_c, 0, 70, 75
2, 154265, Note_on_c, 0, 99, 87
2, 154270, Note_on_c, 0, 65, 71
2, 154271, Note_on_c, 0, 87, 75
2, 154429, Note_on_c, 0, 70, 0
2, 154429, Note_on_c, 0, 94, 0
2, 154437, Note_on_c, 0, 63, 0
2, 154437, Note_on_c, 0, 82, 0
2, 154437, Note_on_c, 0, 94, 91
2, 154439, Note_on_c, 0, 70, 71
2, 154441, Note_on_c, 0, 63, 57
2, 154448, Note_on_c, 0, 82, 78
2, 154449, Note_on_c, 0, 65, 0
2, 154452, Note_on_c, 0, 56, 0
2, 154460, Note_on_c, 0, 58, 0
2, 154460, Note_on_c, 0, 79, 0
2, 154467, Note_on_c, 0, 86, 0
2, 154467, Note_on_c, 0, 91, 0
2, 154474, Control_c, 0, 64, 0
2, 154483, Note_on_c, 0, 87, 0
2, 154483, Note_on_c, 0, 98, 0
2, 154544, Control_c, 0, 64, 127
2, 154590, Note_on_c, 0, 63, 0
2, 154590, Note_on_c, 0, 67, 0
2, 154601, Note_on_c, 0, 63, 59
2, 154601, Note_on_c, 0, 67, 44
2, 154782, Note_on_c, 0, 63, 0
2, 154782, Note_on_c, 0, 70, 0
2, 154782, Note_on_c, 0, 82, 0
2, 154782, Note_on_c, 0, 94, 0
2, 154787, Note_on_c, 0, 70, 76
2, 154787, Note_on_c, 0, 63, 68
2, 154788, Note_on_c, 0, 94, 83
2, 154793, Note_on_c, 0, 82, 83
2, 154959, Note_on_c, 0, 63, 0
2, 154960, Note_on_c, 0, 92, 88
2, 154966, Note_on_c, 0, 63, 55
2, 154972, Note_on_c, 0, 80, 72
2, 155125, Note_on_c, 0, 91, 87
2, 155128, Note_on_c, 0, 63, 0
2, 155128, Note_on_c, 0, 70, 0
2, 155132, Note_on_c, 0, 70, 69
2, 155132, Note_on_c, 0, 79, 77
2, 155135, Note_on_c, 0, 63, 54
2, 155136, Note_on_c, 0, 99, 0
2, 155138, Note_on_c, 0, 82, 0
2, 155150, Control_c, 0, 64, 0
2, 155243, Control_c, 0, 64, 127
2, 155289, Note_on_c, 0, 67, 0
2, 155289, Note_on_c, 0, 70, 0
2, 155294, Note_on_c, 0, 60, 63
2, 155296, Note_on_c, 0, 67, 66
2, 155300, Note_on_c, 0, 70, 70
2, 155466, Note_on_c, 0, 70, 0
2, 155466, Note_on_c, 0, 91, 0
2, 155471, Note_on_c, 0, 70, 72
2, 155472, Note_on_c, 0, 91, 84
2, 155473, Note_on_c, 0, 63, 0
2, 155483, Note_on_c, 0, 63, 57
2, 155493, Note_on_c, 0, 65, 65
2, 155649, Note_on_c, 0, 84, 67
2, 155650, Note_on_c, 0, 77, 67
2, 155651, Note_on_c, 0, 89, 72
2, 155656, Note_on_c, 0, 66, 58
2, 155665, Note_on_c, 0, 66, 0
2, 155811, Note_on_c, 0, 70, 0
2, 155821, Note_on_c, 0, 70, 75
2, 155824, Note_on_c, 0, 87, 83
2, 155829, Note_on_c, 0, 75, 70
2, 155834, Note_on_c, 0, 67, 0
2, 155844, Note_on_c, 0, 67, 51
2, 155850, Note_on_c, 0, 65, 0
2, 155856, Note_on_c, 0, 65, 31
2, 155856, Control_c, 0, 64, 0
2, 155857, Note_on_c, 0, 80, 0
2, 155858, Note_on_c, 0, 60, 0
2, 155860, Note_on_c, 0, 79, 0
2, 155865, Note_on_c, 0, 84, 0
2, 155880, Note_on_c, 0, 63, 0
2, 155880, Note_on_c, 0, 65, 0
2, 155889, Note_on_c, 0, 63, 37
2, 155927, Control_c, 0, 64, 127
2, 155988, Note_on_c, 0, 63, 0
2, 155988, Note_on_c, 0, 70, 0
2, 155999, Note_on_c, 0, 70, 46
2, 155999, Note_on_c, 0, 63, 51
2, 156172, Note_on_c, 0, 70, 0
2, 156180, Note_on_c, 0, 58, 75
2, 156180, Note_on_c, 0, 70, 74
2, 156341, Note_on_c, 0, 63, 0
2, 156341, Note_on_c, 0, 70, 0
2, 156345, Note_on_c, 0, 70, 54
2, 156347, Note_on_c, 0, 63, 47
2, 156518, Note_on_c, 0, 70, 0
2, 156526, Note_on_c, 0, 63, 0
2, 156527, Note_on_c, 0, 70, 73
2, 156531, Note_on_c, 0, 63, 59
2, 156618, Note_on_c, 0, 92, 0
2, 156672, Note_on_c, 0, 91, 0
2, 156679, Note_on_c, 0, 94, 0
2, 156687, Note_on_c, 0, 70, 0
2, 156695, Note_on_c, 0, 70, 76
2, 156698, Note_on_c, 0, 60, 65
2, 156702, Note_on_c, 0, 67, 0
2, 156707, Note_on_c, 0, 67, 63
2, 156710, Note_on_c, 0, 75, 0
2, 156710, Note_on_c, 0, 87, 0
2, 156714, Note_on_c, 0, 75, 75
2, 156716, Note_on_c, 0, 87, 82
2, 156725, Note_on_c, 0, 77, 0
2, 156734, Control_c, 0, 64, 0
2, 156771, Note_on_c, 0, 89, 0
2, 156871, Note_on_c, 0, 63, 0
2, 156871, Note_on_c, 0, 70, 0
2, 156872, Note_on_c, 0, 89, 83
2, 156875, Note_on_c, 0, 70, 66
2, 156878, Note_on_c, 0, 77, 72
2, 156881, Note_on_c, 0, 63, 52
2, 156887, Control_c, 0, 64, 127
2, 157040, Note_on_c, 0, 63, 0
2, 157043, Note_on_c, 0, 91, 81
2, 157050, Note_on_c, 0, 63, 54
2, 157050, Note_on_c, 0, 79, 77
2, 157201, Note_on_c, 0, 87, 0
2, 157209, Note_on_c, 0, 70, 0
2, 157212, Note_on_c, 0, 87, 81
2, 157213, Note_on_c, 0, 82, 77
2, 157217, Note_on_c, 0, 82, 0
2, 157220, Note_on_c, 0, 70, 71
2, 157224, Note_on_c, 0, 75, 0
2, 157236, Note_on_c, 0, 75, 65
2, 157378, Note_on_c, 0, 63, 0
2, 157382, Note_on_c, 0, 63, 56
2, 157562, Note_on_c, 0, 70, 0
2, 157562, Note_on_c, 0, 75, 0
2, 157569, Note_on_c, 0, 70, 73
2, 157570, Note_on_c, 0, 63, 0
2, 157571, Note_on_c, 0, 82, 75
2, 157574, Note_on_c, 0, 75, 66
2, 157574, Note_on_c, 0, 63, 60
2, 157731, Note_on_c, 0, 63, 0
2, 157737, Note_on_c, 0, 63, 47
2, 157908, Note_on_c, 0, 75, 0
2, 157908, Note_on_c, 0, 87, 0
2, 157913, Note_on_c, 0, 87, 83
2, 157916, Note_on_c, 0, 70, 0
2, 157918, Note_on_c, 0, 75, 78
2, 157921, Note_on_c, 0, 70, 73
2, 157931, Note_on_c, 0, 63, 0
2, 157938, Note_on_c, 0, 63, 49
2, 157969, Note_on_c, 0, 60, 0
2, 157992, Note_on_c, 0, 58, 0
2, 158077, Note_on_c, 0, 70, 0
2, 158081, Control_c, 0, 64, 0
2, 158088, Note_on_c, 0, 70, 75
2, 158089, Note_on_c, 0, 56, 68
2, 158111, Note_on_c, 0, 89, 0
2, 158123, Note_on_c, 0, 77, 0
2, 158123, Note_on_c, 0, 82, 0
2, 158269, Note_on_c, 0, 63, 0
2, 158269, Note_on_c, 0, 70, 0
2, 158273, Note_on_c, 0, 70, 82
2, 158280, Note_on_c, 0, 63, 49
2, 158315, Control_c, 0, 64, 127
2, 158438, Note_on_c, 0, 63, 0
2, 158445, Note_on_c, 0, 63, 42
2, 158615, Note_on_c, 0, 63, 0
2, 158615, Note_on_c, 0, 70, 0
2, 158619, Note_on_c, 0, 70, 80
2, 158623, Note_on_c, 0, 63, 51
2, 158791, Note_on_c, 0, 63, 0
2, 158791, Note_on_c, 0, 70, 0
2, 158796, Note_on_c, 0, 70, 56
2, 158798, Note_on_c, 0, 63, 35
2, 158968, Note_on_c, 0, 70, 0
2, 158978, Note_on_c, 0, 70, 83
2, 158983, Note_on_c, 0, 63, 0
2, 158988, Note_on_c, 0, 63, 38
2, 159137, Note_on_c, 0, 63, 0
2, 159137, Note_on_c, 0, 70, 0
2, 159142, Note_on_c, 0, 70, 62
2, 159144, Note_on_c, 0, 63, 52
2, 159313, Note_on_c, 0, 63, 0
2, 159313, Note_on_c, 0, 70, 0
2, 159321, Note_on_c, 0, 67, 0
2, 159321, Note_on_c, 0, 63, 55
2, 159325, Note_on_c, 0, 70, 72
2, 159327, Note_on_c, 0, 67, 70
2, 159360, Note_on_c, 0, 79, 0
2, 159360, Note_on_c, 0, 91, 0
2, 159490, Note_on_c, 0, 67, 0
2, 159490, Note_on_c, 0, 70, 0
2, 159498, Note_on_c, 0, 56, 0
2, 159498, Note_on_c, 0, 63, 0
2, 159498, Note_on_c, 0, 70, 75
2, 159501, Note_on_c, 0, 67, 76
2, 159501, Note_on_c, 0, 94, 91
2, 159502, Note_on_c, 0, 63, 59
2, 159507, Note_on_c, 0, 56, 70
2, 159536, Control_c, 0, 64, 0
2, 159621, Control_c, 0, 64, 127
2, 159667, Note_on_c, 0, 67, 0
2, 159667, Note_on_c, 0, 70, 0
2, 159671, Note_on_c, 0, 67, 73
2, 159674, Note_on_c, 0, 98, 90
2, 159677, Note_on_c, 0, 70, 76
2, 159677, Note_on_c, 0, 86, 81
2, 159836, Note_on_c, 0, 87, 0
2, 159840, Note_on_c, 0, 63, 0
2, 159843, Note_on_c, 0, 99, 87
2, 159846, Note_on_c, 0, 65, 71
2, 159847, Note_on_c, 0, 87, 81
2, 160020, Note_on_c, 0, 70, 0
2, 160020, Note_on_c, 0, 94, 0
2, 160025, Note_on_c, 0, 70, 71
2, 160026, Note_on_c, 0, 94, 91
2, 160028, Note_on_c, 0, 75, 0
2, 160029, Note_on_c, 0, 56, 0
2, 160029, Note_on_c, 0, 98, 0
2, 160030, Note_on_c, 0, 86, 0
2, 160030, Note_on_c, 0, 65, 0
2, 160031, Note_on_c, 0, 67, 0
2, 160038, Note_on_c, 0, 82, 80
2, 160043, Control_c, 0, 64, 0
2, 160128, Control_c, 0, 64, 127
2, 160185, Note_on_c, 0, 65, 39
2, 160358, Note_on_c, 0, 99, 0
2, 160366, Note_on_c, 0, 70, 0
2, 160366, Note_on_c, 0, 94, 0
2, 160371, Note_on_c, 0, 94, 90
2, 160373, Note_on_c, 0, 82, 0
2, 160375, Note_on_c, 0, 70, 71
2, 160377, Note_on_c, 0, 82, 79
2, 160404, Control_c, 0, 64, 0
2, 160488, Control_c, 0, 64, 127
2, 160541, Note_on_c, 0, 63, 59
2, 160544, Note_on_c, 0, 92, 89
2, 160565, Note_on_c, 0, 80, 64
2, 160711, Note_on_c, 0, 70, 0
2, 160716, Note_on_c, 0, 70, 74
2, 160716, Note_on_c, 0, 91, 90
2, 160722, Note_on_c, 0, 79, 78
2, 160750, Control_c, 0, 64, 0
2, 160824, Note_on_c, 0, 82, 0
2, 160827, Note_on_c, 0, 63, 0
2, 160834, Note_on_c, 0, 65, 0
2, 160834, Note_on_c, 0, 87, 0
2, 160865, Note_on_c, 0, 80, 0
2, 160880, Note_on_c, 0, 70, 0
2, 160888, Note_on_c, 0, 70, 80
2, 160889, Note_on_c, 0, 58, 78
2, 160891, Note_on_c, 0, 65, 71
2, 160942, Control_c, 0, 64, 127
2, 161057, Note_on_c, 0, 91, 0
2, 161061, Note_on_c, 0, 91, 84
2, 161064, Note_on_c, 0, 65, 0
2, 161064, Note_on_c, 0, 79, 0
2, 161066, Note_on_c, 0, 67, 74
2, 161068, Note_on_c, 0, 65, 71
2, 161072, Note_on_c, 0, 79, 74
2, 161072, Note_on_c, 0, 70, 0
2, 161077, Note_on_c, 0, 70, 66
2, 161090, Note_on_c, 0, 77, 60
2, 161095, Note_on_c, 0, 77, 0
2, 161233, Note_on_c, 0, 65, 0
2, 161241, Note_on_c, 0, 65, 63
2, 161242, Note_on_c, 0, 69, 70
2, 161244, Note_on_c, 0, 77, 68
2, 161244, Note_on_c, 0, 89, 71
2, 161402, Note_on_c, 0, 70, 0
2, 161410, Note_on_c, 0, 65, 0
2, 161410, Note_on_c, 0, 77, 0
2, 161410, Note_on_c, 0, 89, 0
2, 161412, Note_on_c, 0, 70, 79
2, 161417, Note_on_c, 0, 77, 68
2, 161417, Note_on_c, 0, 89, 84
2, 161420, Note_on_c, 0, 65, 71
2, 161425, Note_on_c, 0, 94, 0
2, 161445, Control_c, 0, 64, 0
2, 161571, Note_on_c, 0, 65, 0
2, 161582, Note_on_c, 0, 65, 63
2, 161587, Control_c, 0, 64, 127
2, 161748, Note_on_c, 0, 70, 0
2, 161756, Note_on_c, 0, 70, 74
2, 161763, Note_on_c, 0, 58, 0
2, 161768, Control_c, 0, 64, 0
2, 161769, Note_on_c, 0, 58, 65
2, 161925, Note_on_c, 0, 65, 0
2, 161930, Note_on_c, 0, 65, 63
2, 162094, Note_on_c, 0, 65, 0
2, 162094, Note_on_c, 0, 70, 0
2, 162104, Note_on_c, 0, 70, 74
2, 162104, Note_on_c, 0, 65, 64
2, 162224, Control_c, 0, 64, 127
2, 162263, Note_on_c, 0, 92, 0
2, 162270, Note_on_c, 0, 65, 0
2, 162270, Note_on_c, 0, 70, 0
2, 162270, Note_on_c, 0, 89, 0
2, 162276, Note_on_c, 0, 65, 71
2, 162277, Note_on_c, 0, 70, 77
2, 162278, Note_on_c, 0, 58, 0
2, 162278, Note_on_c, 0, 77, 0
2, 162281, Note_on_c, 0, 89, 86
2, 162282, Note_on_c, 0, 77, 76
2, 162282, Note_on_c, 0, 58, 74
2, 162439, Note_on_c, 0, 91, 0
2, 162447, Note_on_c, 0, 79, 0
2, 162450, Note_on_c, 0, 91, 86
2, 162458, Note_on_c, 0, 79, 78
2, 162462, Note_on_c, 0, 65, 0
2, 162462, Note_on_c, 0, 70, 0
2, 162466, Note_on_c, 0, 65, 67
2, 162466, Note_on_c, 0, 70, 67
2, 162524, Control_c, 0, 64, 0
2, 162608, Control_c, 0, 64, 127
2, 162622, Note_on_c, 0, 93, 92
2, 162627, Note_on_c, 0, 81, 69
2, 162792, Note_on_c, 0, 70, 0
2, 162792, Note_on_c, 0, 77, 0
2, 162792, Note_on_c, 0, 89, 0
2, 162799, Note_on_c, 0, 70, 76
2, 162800, Note_on_c, 0, 65, 0
2, 162800, Note_on_c, 0, 89, 84
2, 162803, Note_on_c, 0, 77, 72
2, 162808, Note_on_c, 0, 65, 64
2, 162813, Note_on_c, 0, 81, 0
2, 162815, Note_on_c, 0, 79, 0
2, 162820, Control_c, 0, 64, 0
2, 162831, Note_on_c, 0, 67, 0
2, 162839, Note_on_c, 0, 69, 0
2, 162869, Note_on_c, 0, 65, 0
2, 162931, Control_c, 0, 64, 127
2, 162974, Note_on_c, 0, 65, 66
2, 163138, Note_on_c, 0, 65, 0
2, 163138, Note_on_c, 0, 70, 0
2, 163143, Note_on_c, 0, 65, 66
2, 163144, Note_on_c, 0, 70, 78
2, 163184, Control_c, 0, 64, 0
2, 163200, Note_on_c, 0, 91, 0
2, 163269, Control_c, 0, 64, 127
2, 163315, Note_on_c, 0, 65, 0
2, 163326, Note_on_c, 0, 65, 64
2, 163416, Note_on_c, 0, 63, 58
2, 163422, Note_on_c, 0, 63, 0
2, 163491, Note_on_c, 0, 65, 0
2, 163491, Note_on_c, 0, 70, 0
2, 163502, Note_on_c, 0, 58, 0
2, 163502, Note_on_c, 0, 70, 76
2, 163503, Note_on_c, 0, 65, 76
2, 163507, Note_on_c, 0, 93, 0
2, 163514, Note_on_c, 0, 77, 0
2, 163607, Note_on_c, 0, 89, 0
2, 163676, Note_on_c, 0, 65, 0
2, 163681, Note_on_c, 0, 51, 73
2, 163682, Note_on_c, 0, 87, 88
2, 163686, Note_on_c, 0, 75, 85
2, 163702, Control_c, 0, 64, 0
2, 163776, Note_on_c, 0, 70, 0
2, 163851, Note_on_c, 0, 58, 64
2, 163952, Control_c, 0, 64, 127
2, 164027, Note_on_c, 0, 63, 56
2, 164206, Note_on_c, 0, 70, 72
2, 164551, Note_on_c, 0, 63, 0
2, 164559, Note_on_c, 0, 63, 51
2, 164912, Note_on_c, 0, 58, 0
2, 164918, Note_on_c, 0, 58, 58
2, 165073, Note_on_c, 0, 51, 0
2, 165084, Note_on_c, 0, 80, 80
2, 165084, Note_on_c, 0, 51, 71
2, 165086, Note_on_c, 0, 68, 77
2, 165092, Control_c, 0, 64, 0
2, 165092, Note_on_c, 0, 70, 0
2, 165093, Note_on_c, 0, 63, 0
2, 165094, Note_on_c, 0, 75, 0
2, 165219, Control_c, 0, 64, 127
2, 165265, Note_on_c, 0, 58, 0
2, 165272, Note_on_c, 0, 58, 62
2, 165459, Note_on_c, 0, 63, 52
2, 165616, Note_on_c, 0, 85, 79
2, 165626, Note_on_c, 0, 68, 0
2, 165632, Note_on_c, 0, 73, 59
2, 165633, Note_on_c, 0, 68, 66
2, 165649, Control_c, 0, 64, 0
2, 165661, Note_on_c, 0, 80, 0
2, 165680, Note_on_c, 0, 87, 0
2, 165734, Control_c, 0, 64, 127
2, 165988, Note_on_c, 0, 61, 53
2, 166333, Note_on_c, 0, 58, 0
2, 166336, Note_on_c, 0, 80, 72
2, 166344, Note_on_c, 0, 58, 53
2, 166510, Note_on_c, 0, 51, 0
2, 166510, Note_on_c, 0, 80, 0
2, 166517, Note_on_c, 0, 80, 78
2, 166520, Note_on_c, 0, 51, 67
2, 166523, Note_on_c, 0, 68, 0
2, 166524, Note_on_c, 0, 85, 0
2, 166524, Note_on_c, 0, 63, 0
2, 166526, Control_c, 0, 64, 0
2, 166526, Note_on_c, 0, 61, 0
2, 166527, Note_on_c, 0, 58, 0
2, 166527, Note_on_c, 0, 73, 0
2, 166671, Control_c, 0, 64, 127
2, 166705, Note_on_c, 0, 58, 55
2, 166868, Note_on_c, 0, 79, 76
2, 166876, Note_on_c, 0, 63, 47
2, 167045, Note_on_c, 0, 70, 65
2, 167046, Note_on_c, 0, 75, 72
2, 167385, Note_on_c, 0, 70, 0
2, 167396, Note_on_c, 0, 70, 69
2, 167756, Note_on_c, 0, 82, 71
2, 167915, Note_on_c, 0, 80, 0
2, 167924, Note_on_c, 0, 80, 76
2, 167938, Note_on_c, 0, 51, 0
2, 167942, Note_on_c, 0, 51, 64
2, 167942, Control_c, 0, 64, 0
2, 167958, Note_on_c, 0, 63, 0
2, 167960, Note_on_c, 0, 58, 0
2, 167961, Note_on_c, 0, 70, 0
2, 167961, Note_on_c, 0, 79, 0
2, 167962, Note_on_c, 0, 75, 0
2, 168101, Note_on_c, 0, 58, 58
2, 168102, Note_on_c, 0, 79, 64
2, 168138, Control_c, 0, 64, 127
2, 168289, Note_on_c, 0, 75, 58
2, 168297, Note_on_c, 0, 63, 40
2, 168462, Note_on_c, 0, 70, 65
2, 168821, Note_on_c, 0, 82, 0
2, 169374, Note_on_c, 0, 51, 0
2, 169380, Note_on_c, 0, 51, 60
2, 169451, Note_on_c, 0, 80, 0
2, 169551, Note_on_c, 0, 58, 0
2, 169551, Note_on_c, 0, 70, 0
2, 169560, Note_on_c, 0, 58, 67
2, 169562, Note_on_c, 0, 70, 54
2, 169628, Note_on_c, 0, 63, 0
2, 169643, Note_on_c, 0, 75, 0
2, 169737, Note_on_c, 0, 63, 54
2, 169899, Note_on_c, 0, 89, 73
2, 169904, Note_on_c, 0, 70, 0
2, 169909, Note_on_c, 0, 70, 61
2, 170035, Note_on_c, 0, 79, 0
2, 170065, Note_on_c, 0, 87, 76
2, 170240, Note_on_c, 0, 86, 83
2, 170403, Note_on_c, 0, 63, 0
2, 170408, Note_on_c, 0, 63, 66
2, 170410, Note_on_c, 0, 82, 88
2, 170568, Note_on_c, 0, 77, 84
2, 170757, Note_on_c, 0, 50, 77
2, 170758, Note_on_c, 0, 65, 74
2, 170760, Note_on_c, 0, 75, 82
2, 170778, Control_c, 0, 64, 0
2, 170785, Note_on_c, 0, 51, 0
2, 170864, Note_on_c, 0, 63, 0
2, 170880, Note_on_c, 0, 58, 0
2, 170903, Control_c, 0, 64, 127
2, 170926, Note_on_c, 0, 65, 0
2, 170926, Note_on_c, 0, 89, 0
2, 170929, Note_on_c, 0, 74, 77
2, 170952, Note_on_c, 0, 58, 69
2, 170972, Note_on_c, 0, 87, 0
2, 171110, Note_on_c, 0, 70, 0
2, 171119, Note_on_c, 0, 70, 73
2, 171124, Note_on_c, 0, 63, 66
2, 171133, Note_on_c, 0, 63, 0
2, 171303, Note_on_c, 0, 65, 68
2, 171502, Note_on_c, 0, 75, 0
2, 171673, Note_on_c, 0, 63, 54
2, 172032, Note_on_c, 0, 58, 0
2, 172038, Note_on_c, 0, 58, 72
2, 172182, Note_on_c, 0, 65, 0
2, 172208, Note_on_c, 0, 63, 0
2, 172209, Note_on_c, 0, 48, 73
2, 172216, Note_on_c, 0, 50, 0
2, 172224, Note_on_c, 0, 77, 0
2, 172241, Control_c, 0, 64, 0
2, 172262, Note_on_c, 0, 74, 0
2, 172277, Note_on_c, 0, 82, 0
2, 172362, Control_c, 0, 64, 127
2, 172385, Note_on_c, 0, 58, 0
2, 172395, Note_on_c, 0, 58, 63
2, 172560, Note_on_c, 0, 63, 49
2, 172730, Note_on_c, 0, 70, 0
2, 172740, Note_on_c, 0, 70, 64
2, 172740, Note_on_c, 0, 87, 70
2, 172907, Note_on_c, 0, 86, 0
2, 172913, Note_on_c, 0, 86, 68
2, 173081, Note_on_c, 0, 82, 75
2, 173243, Note_on_c, 0, 77, 75
2, 173428, Note_on_c, 0, 75, 76
2, 173452, Note_on_c, 0, 48, 0
2, 173607, Note_on_c, 0, 44, 71
2, 173608, Note_on_c, 0, 74, 85
2, 173632, Control_c, 0, 64, 0
2, 173775, Note_on_c, 0, 70, 0
2, 173779, Note_on_c, 0, 51, 67
2, 173780, Note_on_c, 0, 70, 74
2, 173813, Note_on_c, 0, 86, 0
2, 173821, Note_on_c, 0, 87, 0
2, 173844, Note_on_c, 0, 63, 0
2, 173844, Note_on_c, 0, 82, 0
2, 173859, Note_on_c, 0, 75, 0
2, 173875, Control_c, 0, 64, 127
2, 173947, Note_on_c, 0, 65, 67
2, 173952, Note_on_c, 0, 77, 0
2, 174136, Note_on_c, 0, 74, 0
2, 174147, Note_on_c, 0, 63, 66
2, 174167, Note_on_c, 0, 44, 0
2, 174481, Note_on_c, 0, 58, 0
2, 174492, Note_on_c, 0, 58, 68
2, 174835, Note_on_c, 0, 51, 0
2, 174845, Note_on_c, 0, 51, 57
2, 175009, Note_on_c, 0, 43, 70
2, 175014, Control_c, 0, 64, 0
2, 175031, Note_on_c, 0, 51, 0
2, 175035, Note_on_c, 0, 63, 0
2, 175053, Note_on_c, 0, 65, 0
2, 175057, Note_on_c, 0, 70, 0
2, 175204, Note_on_c, 0, 51, 66
2, 175226, Note_on_c, 0, 58, 0
2, 175265, Control_c, 0, 64, 127
2, 175368, Note_on_c, 0, 58, 65
2, 175550, Note_on_c, 0, 63, 41
2, 175712, Note_on_c, 0, 80, 78
2, 175894, Note_on_c, 0, 79, 83
2, 176068, Note_on_c, 0, 77, 85
2, 176221, Note_on_c, 0, 75, 80
2, 176343, Note_on_c, 0, 79, 0
2, 176344, Control_c, 0, 64, 0
2, 176363, Note_on_c, 0, 43, 0
2, 176386, Note_on_c, 0, 51, 0
2, 176386, Note_on_c, 0, 63, 0
2, 176391, Note_on_c, 0, 41, 68
2, 176397, Note_on_c, 0, 74, 78
2, 176417, Note_on_c, 0, 80, 0
2, 176448, Note_on_c, 0, 58, 0
2, 176471, Note_on_c, 0, 77, 0
2, 176583, Note_on_c, 0, 70, 72
2, 176604, Note_on_c, 0, 51, 60
2, 176616, Note_on_c, 0, 75, 0
2, 176686, Control_c, 0, 64, 127
2, 176736, Note_on_c, 0, 65, 72
2, 176931, Note_on_c, 0, 70, 0
2, 176938, Note_on_c, 0, 63, 63
2, 176939, Note_on_c, 0, 70, 65
2, 176942, Note_on_c, 0, 58, 67
2, 177000, Control_c, 0, 64, 0
2, 177085, Control_c, 0, 64, 127
2, 177269, Note_on_c, 0, 51, 0
2, 177273, Note_on_c, 0, 51, 60
2, 177461, Note_on_c, 0, 63, 0
2, 177461, Note_on_c, 0, 65, 0
2, 177472, Note_on_c, 0, 65, 80
2, 177473, Note_on_c, 0, 63, 68
2, 177642, Note_on_c, 0, 46, 65
2, 177822, Note_on_c, 0, 51, 0
2, 177833, Note_on_c, 0, 39, 65
2, 177833, Note_on_c, 0, 51, 66
2, 177853, Note_on_c, 0, 74, 0
2, 177855, Control_c, 0, 64, 0
2, 177856, Note_on_c, 0, 65, 0
2, 177856, Note_on_c, 0, 58, 0
2, 177858, Note_on_c, 0, 63, 0
2, 177858, Note_on_c, 0, 41, 0
2, 177858, Note_on_c, 0, 70, 0
2, 177884, Note_on_c, 0, 46, 0
2, 178024, Note_on_c, 0, 46, 56
2, 178191, Note_on_c, 0, 51, 0
2, 178196, Note_on_c, 0, 51, 59
2, 178383, Control_c, 0, 64, 127
2, 178543, Note_on_c, 0, 48, 66
2, 178565, Control_c, 0, 64, 0
2, 178752, Control_c, 0, 64, 127
2, 178905, Note_on_c, 0, 46, 0
2, 178914, Note_on_c, 0, 46, 57
2, 178997, Note_on_c, 0, 48, 0
2, 179285, Control_c, 0, 64, 0
2, 179297, Note_on_c, 0, 39, 0
2, 179307, Note_on_c, 0, 39, 42
2, 179857, Control_c, 0, 64, 127
2, 179911, Control_c, 0, 64, 0
2, 180357, Control_c, 0, 64, 127
2, 181163, Note_on_c, 0, 51, 0
2, 181166, Note_on_c, 0, 55, 56
2, 181168, Note_on_c, 0, 51, 52
2, 181170, Control_c, 0, 64, 0
2, 181426, Note_on_c, 0, 56, 65
2, 181431, Note_on_c, 0, 53, 57
2, 181524, Control_c, 0, 64, 127
2, 181578, Note_on_c, 0, 55, 0
2, 181579, Note_on_c, 0, 58, 73
2, 181582, Note_on_c, 0, 55, 63
2, 181708, Note_on_c, 0, 60, 77
2, 181708, Note_on_c, 0, 56, 0
2, 181719, Note_on_c, 0, 56, 63
2, 181810, Note_on_c, 0, 62, 79
2, 181824, Note_on_c, 0, 58, 0
2, 181833, Note_on_c, 0, 58, 68
2, 181896, Note_on_c, 0, 63, 74
2, 181923, Note_on_c, 0, 60, 0
2, 181928, Note_on_c, 0, 60, 76
2, 181989, Note_on_c, 0, 65, 81
2, 182008, Note_on_c, 0, 62, 0
2, 182013, Note_on_c, 0, 62, 70
2, 182060, Note_on_c, 0, 67, 82
2, 182100, Note_on_c, 0, 63, 0
2, 182110, Note_on_c, 0, 63, 61
2, 182136, Note_on_c, 0, 68, 86
2, 182161, Note_on_c, 0, 65, 0
2, 182171, Note_on_c, 0, 65, 74
2, 182201, Note_on_c, 0, 70, 81
2, 182263, Note_on_c, 0, 72, 92
2, 182292, Note_on_c, 0, 68, 0
2, 182297, Note_on_c, 0, 68, 66
2, 182330, Note_on_c, 0, 70, 0
2, 182333, Note_on_c, 0, 74, 87
2, 182339, Note_on_c, 0, 70, 79
2, 182376, Note_on_c, 0, 72, 0
2, 182381, Note_on_c, 0, 75, 77
2, 182381, Note_on_c, 0, 72, 77
2, 182400, Note_on_c, 0, 39, 0
2, 182429, Note_on_c, 0, 77, 91
2, 182492, Note_on_c, 0, 46, 0
2, 182500, Note_on_c, 0, 79, 89
2, 182585, Note_on_c, 0, 80, 86
2, 182649, Control_c, 0, 64, 0
2, 182654, Note_on_c, 0, 60, 0
2, 182654, Note_on_c, 0, 74, 0
2, 182654, Note_on_c, 0, 56, 0
2, 182655, Note_on_c, 0, 55, 0
2, 182655, Note_on_c, 0, 63, 0
2, 182656, Note_on_c, 0, 58, 0
2, 182656, Note_on_c, 0, 72, 0
2, 182656, Note_on_c, 0, 51, 0
2, 182656, Note_on_c, 0, 79, 0
2, 182656, Note_on_c, 0, 67, 0
2, 182656, Note_on_c, 0, 62, 0
2, 182657, Note_on_c, 0, 53, 0
2, 182657, Note_on_c, 0, 77, 0
2, 182657, Note_on_c, 0, 65, 0
2, 182665, Note_on_c, 0, 80, 0
2, 182668, Note_on_c, 0, 68, 0
2, 182680, Note_on_c, 0, 82, 104
2, 182684, Note_on_c, 0, 75, 0
2, 182688, Note_on_c, 0, 36, 99
2, 182689, Note_on_c, 0, 24, 99
2, 182694, Note_on_c, 0, 75, 96
2, 182784, Control_c, 0, 64, 127
2, 182883, Note_on_c, 0, 70, 0
2, 182894, Note_on_c, 0, 70, 74
2, 183037, Note_on_c, 0, 75, 0
2, 183042, Note_on_c, 0, 75, 85
2, 183045, Note_on_c, 0, 70, 0
2, 183049, Note_on_c, 0, 70, 82
2, 183056, Note_on_c, 0, 63, 77
2, 183056, Note_on_c, 0, 58, 74
2, 183059, Note_on_c, 0, 55, 77
2, 183214, Note_on_c, 0, 70, 0
2, 183214, Note_on_c, 0, 75, 0
2, 183224, Note_on_c, 0, 70, 78
2, 183224, Note_on_c, 0, 75, 88
2, 183352, Note_on_c, 0, 24, 0
2, 183386, Note_on_c, 0, 77, 99
2, 183390, Note_on_c, 0, 63, 0
2, 183390, Note_on_c, 0, 70, 0
2, 183390, Note_on_c, 0, 75, 0
2, 183392, Note_on_c, 0, 65, 86
2, 183395, Note_on_c, 0, 70, 86
2, 183400, Note_on_c, 0, 63, 72
2, 183401, Note_on_c, 0, 75, 79
2, 183406, Note_on_c, 0, 60, 64
2, 183575, Note_on_c, 0, 70, 0
2, 183575, Note_on_c, 0, 75, 0
2, 183579, Note_on_c, 0, 75, 81
2, 183579, Note_on_c, 0, 70, 85
2, 183725, Control_c, 0, 64, 0
2, 183736, Note_on_c, 0, 36, 0
2, 183741, Note_on_c, 0, 48, 86
2, 183744, Note_on_c, 0, 75, 0
2, 183744, Note_on_c, 0, 36, 90
2, 183749, Note_on_c, 0, 75, 87
2, 183764, Note_on_c, 0, 67, 63
2, 183767, Control_c, 0, 64, 127
2, 183920, Note_on_c, 0, 70, 0
2, 183920, Note_on_c, 0, 75, 0
2, 183927, Note_on_c, 0, 70, 81
2, 183929, Note_on_c, 0, 75, 83
2, 183931, Note_on_c, 0, 36, 0
2, 184065, Note_on_c, 0, 55, 0
2, 184066, Note_on_c, 0, 65, 0
2, 184066, Note_on_c, 0, 82, 0
2, 184067, Note_on_c, 0, 77, 0
2, 184067, Note_on_c, 0, 70, 0
2, 184067, Control_c, 0, 64, 0
2, 184068, Note_on_c, 0, 75, 0
2, 184074, Note_on_c, 0, 58, 0
2, 184074, Note_on_c, 0, 60, 0
2, 184074, Note_on_c, 0, 67, 0
2, 184081, Note_on_c, 0, 48, 0
2, 184081, Note_on_c, 0, 63, 0
2, 184105, Note_on_c, 0, 79, 105
2, 184108, Note_on_c, 0, 36, 98
2, 184111, Note_on_c, 0, 67, 92
2, 184116, Note_on_c, 0, 75, 95
2, 184135, Control_c, 0, 64, 127
2, 184289, Note_on_c, 0, 75, 0
2, 184300, Note_on_c, 0, 75, 76
2, 184300, Note_on_c, 0, 70, 82
2, 184306, Note_on_c, 0, 60, 70
2, 184465, Note_on_c, 0, 70, 0
2, 184473, Note_on_c, 0, 60, 0
2, 184473, Note_on_c, 0, 67, 0
2, 184473, Note_on_c, 0, 75, 0
2, 184477, Note_on_c, 0, 70, 86
2, 184480, Note_on_c, 0, 58, 81
2, 184480, Note_on_c, 0, 75, 83
2, 184483, Note_on_c, 0, 55, 77
2, 184483, Note_on_c, 0, 63, 79
2, 184483, Note_on_c, 0, 67, 70
2, 184483, Note_on_c, 0, 60, 74
2, 184650, Note_on_c, 0, 58, 0
2, 184650, Note_on_c, 0, 60, 0
2, 184650, Note_on_c, 0, 63, 0
2, 184650, Note_on_c, 0, 70, 0
2, 184650, Note_on_c, 0, 75, 0
2, 184655, Note_on_c, 0, 58, 71
2, 184657, Note_on_c, 0, 75, 79
2, 184658, Note_on_c, 0, 60, 64
2, 184659, Note_on_c, 0, 70, 89
2, 184660, Note_on_c, 0, 63, 72
2, 184819, Note_on_c, 0, 70, 0
2, 184819, Note_on_c, 0, 75, 0
2, 184826, Note_on_c, 0, 75, 91
2, 184826, Note_on_c, 0, 60, 0
2, 184829, Note_on_c, 0, 70, 80
2, 184837, Note_on_c, 0, 60, 67
2, 184995, Note_on_c, 0, 60, 0
2, 184995, Note_on_c, 0, 70, 0
2, 184995, Note_on_c, 0, 75, 0
2, 185005, Note_on_c, 0, 70, 87
2, 185005, Note_on_c, 0, 75, 90
2, 185007, Note_on_c, 0, 60, 74
2, 185172, Note_on_c, 0, 36, 0
2, 185176, Note_on_c, 0, 77, 97
2, 185177, Note_on_c, 0, 65, 92
2, 185178, Note_on_c, 0, 48, 88
2, 185180, Note_on_c, 0, 70, 0
2, 185182, Note_on_c, 0, 36, 85
2, 185185, Note_on_c, 0, 70, 80
2, 185187, Note_on_c, 0, 75, 0
2, 185193, Note_on_c, 0, 75, 80
2, 185341, Note_on_c, 0, 67, 0
2, 185341, Note_on_c, 0, 79, 0
2, 185345, Note_on_c, 0, 60, 0
2, 185349, Note_on_c, 0, 70, 0
2, 185349, Note_on_c, 0, 75, 0
2, 185351, Note_on_c, 0, 79, 99
2, 185352, Note_on_c, 0, 67, 89
2, 185353, Note_on_c, 0, 70, 89
2, 185354, Note_on_c, 0, 75, 91
2, 185507, Control_c, 0, 64, 0
2, 185512, Note_on_c, 0, 65, 0
2, 185512, Note_on_c, 0, 67, 0
2, 185512, Note_on_c, 0, 77, 0
2, 185512, Note_on_c, 0, 55, 0
2, 185513, Note_on_c, 0, 70, 0
2, 185518, Note_on_c, 0, 58, 0
2, 185525, Note_on_c, 0, 72, 90
2, 185525, Note_on_c, 0, 36, 0
2, 185525, Note_on_c, 0, 48, 0
2, 185525, Note_on_c, 0, 63, 0
2, 185525, Note_on_c, 0, 75, 0
2, 185525, Note_on_c, 0, 79, 0
2, 185529, Note_on_c, 0, 80, 99
2, 185529, Note_on_c, 0, 68, 94
2, 185534, Note_on_c, 0, 44, 94
2, 185535, Note_on_c, 0, 75, 91
2, 185536, Note_on_c, 0, 32, 94
2, 185617, Control_c, 0, 64, 127
2, 185710, Note_on_c, 0, 68, 0
2, 185710, Note_on_c, 0, 72, 0
2, 185715, Note_on_c, 0, 72, 76
2, 185717, Note_on_c, 0, 75, 0
2, 185717, Note_on_c, 0, 80, 0
2, 185721, Note_on_c, 0, 60, 76
2, 185721, Note_on_c, 0, 68, 74
2, 185722, Note_on_c, 0, 75, 71
2, 185723, Note_on_c, 0, 80, 69
2, 185871, Note_on_c, 0, 75, 0
2, 185877, Note_on_c, 0, 70, 92
2, 185878, Note_on_c, 0, 82, 91
2, 185879, Note_on_c, 0, 60, 0
2, 185879, Note_on_c, 0, 80, 0
2, 185879, Note_on_c, 0, 63, 79
2, 185880, Note_on_c, 0, 75, 83
2, 185883, Note_on_c, 0, 80, 76
2, 185883, Note_on_c, 0, 60, 77
2, 185884, Note_on_c, 0, 56, 74
2, 186048, Note_on_c, 0, 80, 0
2, 186055, Note_on_c, 0, 60, 0
2, 186055, Note_on_c, 0, 68, 0
2, 186055, Note_on_c, 0, 72, 0
2, 186055, Note_on_c, 0, 75, 0
2, 186059, Note_on_c, 0, 80, 97
2, 186062, Note_on_c, 0, 60, 81
2, 186063, Note_on_c, 0, 75, 88
2, 186063, Note_on_c, 0, 68, 91
2, 186064, Note_on_c, 0, 72, 86
2, 186240, Note_on_c, 0, 63, 0
2, 186240, Note_on_c, 0, 68, 0
2, 186240, Note_on_c, 0, 72, 0
2, 186240, Note_on_c, 0, 75, 0
2, 186244, Note_on_c, 0, 72, 79
2, 186247, Note_on_c, 0, 75, 71
2, 186250, Note_on_c, 0, 68, 62
2, 186251, Note_on_c, 0, 63, 65
2, 186393, Note_on_c, 0, 72, 0
2, 186401, Note_on_c, 0, 60, 0
2, 186401, Note_on_c, 0, 68, 0
2, 186401, Note_on_c, 0, 75, 0
2, 186403, Note_on_c, 0, 72, 93
2, 186405, Note_on_c, 0, 79, 91
2, 186406, Note_on_c, 0, 68, 90
2, 186407, Note_on_c, 0, 60, 76
2, 186411, Note_on_c, 0, 75, 88
2, 186585, Note_on_c, 0, 32, 0
2, 186585, Note_on_c, 0, 44, 0
2, 186585, Note_on_c, 0, 72, 0
2, 186590, Note_on_c, 0, 44, 79
2, 186592, Note_on_c, 0, 32, 79
2, 186593, Note_on_c, 0, 68, 0
2, 186593, Note_on_c, 0, 75, 0
2, 186596, Note_on_c, 0, 72, 72
2, 186597, Note_on_c, 0, 75, 79
2, 186597, Note_on_c, 0, 68, 75
2, 186754, Note_on_c, 0, 75, 0
2, 186762, Note_on_c, 0, 60, 0
2, 186762, Note_on_c, 0, 70, 0
2, 186764, Note_on_c, 0, 75, 100
2, 186770, Note_on_c, 0, 70, 87
2, 186772, Note_on_c, 0, 65, 80
2, 186772, Note_on_c, 0, 60, 79
2, 186898, Note_on_c, 0, 79, 0
2, 186900, Note_on_c, 0, 82, 0
2, 186900, Note_on_c, 0, 32, 0
2, 186901, Note_on_c, 0, 56, 0
2, 186901, Note_on_c, 0, 44, 0
2, 186901, Note_on_c, 0, 68, 0
2, 186902, Note_on_c, 0, 72, 0
2, 186902, Note_on_c, 0, 60, 0
2, 186904, Control_c, 0, 64, 0
2, 186908, Note_on_c, 0, 80, 0
2, 186915, Note_on_c, 0, 63, 0
2, 186931, Note_on_c, 0, 70, 0
2, 186934, Note_on_c, 0, 46, 89
2, 186934, Note_on_c, 0, 34, 86
2, 186942, Note_on_c, 0, 70, 81
2, 186943, Note_on_c, 0, 62, 73
2, 187008, Control_c, 0, 64, 127
2, 187123, Note_on_c, 0, 62, 0
2, 187123, Note_on_c, 0, 65, 0
2, 187123, Note_on_c, 0, 70, 0
2, 187126, Note_on_c, 0, 77, 74
2, 187127, Note_on_c, 0, 65, 75
2, 187127, Note_on_c, 0, 70, 82
2, 187129, Note_on_c, 0, 62, 67
2, 187130, Note_on_c, 0, 77, 0
2, 187284, Note_on_c, 0, 62, 0
2, 187284, Note_on_c, 0, 65, 0
2, 187292, Note_on_c, 0, 70, 0
2, 187293, Note_on_c, 0, 74, 88
2, 187293, Note_on_c, 0, 62, 78
2, 187295, Note_on_c, 0, 58, 79
2, 187295, Note_on_c, 0, 53, 75
2, 187295, Note_on_c, 0, 65, 81
2, 187296, Note_on_c, 0, 70, 81
2, 187468, Note_on_c, 0, 65, 0
2, 187468, Note_on_c, 0, 70, 0
2, 187468, Note_on_c, 0, 75, 0
2, 187473, Note_on_c, 0, 75, 100
2, 187477, Note_on_c, 0, 65, 83
2, 187477, Note_on_c, 0, 70, 84
2, 187645, Note_on_c, 0, 65, 0
2, 187645, Note_on_c, 0, 70, 0
2, 187649, Note_on_c, 0, 77, 68
2, 187650, Note_on_c, 0, 65, 79
2, 187655, Note_on_c, 0, 70, 69
2, 187822, Note_on_c, 0, 62, 0
2, 187822, Note_on_c, 0, 65, 0
2, 187822, Note_on_c, 0, 70, 0
2, 187822, Note_on_c, 0, 77, 0
2, 187825, Note_on_c, 0, 62, 66
2, 187826, Note_on_c, 0, 77, 102
2, 187826, Note_on_c, 0, 70, 81
2, 187827, Note_on_c, 0, 65, 80
2, 187998, Note_on_c, 0, 34, 0
2, 187998, Note_on_c, 0, 46, 0
2, 187998, Note_on_c, 0, 65, 0
2, 187998, Note_on_c, 0, 70, 0
2, 188002, Note_on_c, 0, 46, 91
2, 188004, Note_on_c, 0, 34, 86
2, 188005, Note_on_c, 0, 70, 84
2, 188006, Note_on_c, 0, 65, 78
2, 188008, Control_c, 0, 64, 0
2, 188098, Control_c, 0, 64, 127
2, 188175, Note_on_c, 0, 65, 0
2, 188175, Note_on_c, 0, 70, 0
2, 188175, Note_on_c, 0, 77, 0
2, 188179, Note_on_c, 0, 77, 78
2, 188179, Note_on_c, 0, 65, 83
2, 188181, Note_on_c, 0, 70, 82
2, 188317, Control_c, 0, 64, 0
2, 188319, Note_on_c, 0, 34, 0
2, 188319, Note_on_c, 0, 46, 0
2, 188319, Note_on_c, 0, 75, 0
2, 188320, Note_on_c, 0, 65, 0
2, 188321, Note_on_c, 0, 70, 0
2, 188321, Note_on_c, 0, 77, 0
2, 188328, Note_on_c, 0, 58, 0
2, 188328, Note_on_c, 0, 62, 0
2, 188328, Note_on_c, 0, 74, 0
2, 188336, Note_on_c, 0, 53, 0
2, 188354, Note_on_c, 0, 79, 105
2, 188358, Note_on_c, 0, 67, 93
2, 188362, Note_on_c, 0, 36, 97
2, 188363, Note_on_c, 0, 75, 91
2, 188405, Control_c, 0, 64, 127
2, 188536, Note_on_c, 0, 75, 0
2, 188542, Note_on_c, 0, 70, 77
2, 188543, Note_on_c, 0, 75, 72
2, 188544, Note_on_c, 0, 67, 0
2, 188554, Note_on_c, 0, 67, 60
2, 188711, Note_on_c, 0, 55, 86
2, 188712, Note_on_c, 0, 67, 0
2, 188712, Note_on_c, 0, 70, 0
2, 188712, Note_on_c, 0, 75, 0
2, 188716, Note_on_c, 0, 58, 84
2, 188716, Note_on_c, 0, 63, 85
2, 188717, Note_on_c, 0, 75, 88
2, 188717, Note_on_c, 0, 70, 84
2, 188718, Note_on_c, 0, 67, 78
2, 188912, Note_on_c, 0, 67, 0
2, 188912, Note_on_c, 0, 70, 0
2, 188912, Note_on_c, 0, 75, 0
2, 188917, Note_on_c, 0, 67, 64
2, 188917, Note_on_c, 0, 75, 62
2, 188918, Note_on_c, 0, 70, 75
2, 189072, Note_on_c, 0, 77, 106
2, 189073, Note_on_c, 0, 67, 0
2, 189073, Note_on_c, 0, 70, 0
2, 189073, Note_on_c, 0, 75, 0
2, 189076, Note_on_c, 0, 65, 99
2, 189078, Control_c, 0, 64, 0
2, 189079, Note_on_c, 0, 70, 85
2, 189082, Note_on_c, 0, 67, 90
2, 189083, Note_on_c, 0, 75, 88
2, 189096, Control_c, 0, 64, 127
2, 189227, Note_on_c, 0, 67, 0
2, 189232, Note_on_c, 0, 67, 71
2, 189235, Note_on_c, 0, 65, 0
2, 189235, Note_on_c, 0, 75, 0
2, 189240, Note_on_c, 0, 65, 73
2, 189242, Note_on_c, 0, 70, 0
2, 189245, Note_on_c, 0, 75, 71
2, 189247, Note_on_c, 0, 70, 69
2, 189411, Note_on_c, 0, 36, 0
2, 189411, Note_on_c, 0, 67, 0
2, 189411, Note_on_c, 0, 70, 0
2, 189411, Note_on_c, 0, 79, 0
2, 189416, Note_on_c, 0, 48, 89
2, 189418, Note_on_c, 0, 79, 92
2, 189418, Note_on_c, 0, 36, 87
2, 189419, Note_on_c, 0, 75, 0
2, 189420, Note_on_c, 0, 67, 88
2, 189422, Note_on_c, 0, 70, 81
2, 189427, Note_on_c, 0, 75, 85
2, 189588, Note_on_c, 0, 36, 0
2, 189588, Note_on_c, 0, 63, 0
2, 189588, Note_on_c, 0, 67, 0
2, 189588, Note_on_c, 0, 70, 0
2, 189594, Note_on_c, 0, 74, 90
2, 189597, Note_on_c, 0, 36, 73
2, 189598, Note_on_c, 0, 67, 85
2, 189599, Note_on_c, 0, 63, 82
2, 189599, Note_on_c, 0, 70, 84
2, 189692, Control_c, 0, 64, 0
2, 189698, Note_on_c, 0, 36, 0
2, 189699, Note_on_c, 0, 75, 0
2, 189699, Note_on_c, 0, 74, 0
2, 189699, Note_on_c, 0, 65, 0
2, 189699, Note_on_c, 0, 77, 0
2, 189699, Note_on_c, 0, 55, 0
2, 189699, Note_on_c, 0, 58, 0
2, 189699, Note_on_c, 0, 63, 0
2, 189699, Note_on_c, 0, 79, 0
2, 189711, Note_on_c, 0, 48, 0
2, 189755, Note_on_c, 0, 24, 91
2, 189760, Note_on_c, 0, 36, 84
2, 189934, Note_on_c, 0, 70, 0
2, 189934, Control_c, 0, 64, 127
2, 189941, Note_on_c, 0, 67, 0
2, 189944, Note_on_c, 0, 70, 100
2, 189949, Note_on_c, 0, 67, 73
2, 189951, Note_on_c, 0, 75, 85
2, 189952, Note_on_c, 0, 63, 76
2, 190126, Note_on_c, 0, 63, 0
2, 190126, Note_on_c, 0, 75, 0
2, 190126, Note_on_c, 0, 58, 78
2, 190128, Note_on_c, 0, 55, 72
2, 190131, Note_on_c, 0, 75, 77
2, 190136, Note_on_c, 0, 63, 72
2, 190156, Note_on_c, 0, 24, 0
2, 190302, Note_on_c, 0, 70, 0
2, 190310, Note_on_c, 0, 63, 0
2, 190310, Note_on_c, 0, 67, 0
2, 190310, Note_on_c, 0, 75, 0
2, 190313, Note_on_c, 0, 70, 52
2, 190314, Note_on_c, 0, 75, 66
2, 190314, Note_on_c, 0, 63, 64
2, 190316, Note_on_c, 0, 67, 62
2, 190479, Note_on_c, 0, 63, 0
2, 190488, Note_on_c, 0, 63, 74
2, 190648, Note_on_c, 0, 70, 0
2, 190656, Note_on_c, 0, 63, 0
2, 190656, Note_on_c, 0, 67, 0
2, 190656, Note_on_c, 0, 75, 0
2, 190658, Note_on_c, 0, 70, 91
2, 190660, Note_on_c, 0, 63, 74
2, 190660, Note_on_c, 0, 67, 67
2, 190662, Note_on_c, 0, 75, 84
2, 190809, Note_on_c, 0, 36, 0
2, 190820, Note_on_c, 0, 36, 85
2, 190821, Note_on_c, 0, 48, 82
2, 190824, Note_on_c, 0, 75, 0
2, 190830, Note_on_c, 0, 68, 80
2, 190835, Note_on_c, 0, 75, 79
2, 191001, Note_on_c, 0, 67, 0
2, 191001, Note_on_c, 0, 70, 0
2, 191005, Note_on_c, 0, 70, 83
2, 191009, Note_on_c, 0, 63, 0
2, 191009, Note_on_c, 0, 75, 0
2, 191012, Note_on_c, 0, 67, 69
2, 191013, Note_on_c, 0, 75, 78
2, 191014, Note_on_c, 0, 63, 70
2, 191162, Note_on_c, 0, 36, 0
2, 191173, Note_on_c, 0, 32, 96
2, 191175, Note_on_c, 0, 44, 93
2, 191178, Note_on_c, 0, 63, 0
2, 191187, Note_on_c, 0, 63, 76
2, 191188, Control_c, 0, 64, 0
2, 191193, Note_on_c, 0, 68, 0
2, 191199, Note_on_c, 0, 68, 59
2, 191224, Control_c, 0, 64, 127
2, 191232, Note_on_c, 0, 55, 0
2, 191354, Note_on_c, 0, 63, 0
2, 191354, Note_on_c, 0, 68, 0
2, 191364, Note_on_c, 0, 63, 74
2, 191365, Note_on_c, 0, 68, 69
2, 191531, Note_on_c, 0, 44, 0
2, 191531, Note_on_c, 0, 63, 0
2, 191531, Note_on_c, 0, 68, 0
2, 191535, Note_on_c, 0, 60, 77
2, 191538, Note_on_c, 0, 51, 73
2, 191538, Note_on_c, 0, 44, 75
2, 191538, Note_on_c, 0, 63, 81
2, 191539, Control_c, 0, 64, 0
2, 191540, Note_on_c, 0, 56, 78
2, 191542, Note_on_c, 0, 68, 79
2, 191554, Note_on_c, 0, 48, 0
2, 191623, Control_c, 0, 64, 127
2, 191685, Note_on_c, 0, 63, 0
2, 191685, Note_on_c, 0, 68, 0
2, 191689, Note_on_c, 0, 63, 74
2, 191689, Note_on_c, 0, 68, 68
2, 191884, Note_on_c, 0, 63, 0
2, 191884, Note_on_c, 0, 70, 0
2, 191892, Note_on_c, 0, 60, 0
2, 191892, Note_on_c, 0, 70, 85
2, 191895, Note_on_c, 0, 63, 67
2, 191899, Note_on_c, 0, 60, 60
2, 192053, Note_on_c, 0, 68, 0
2, 192061, Note_on_c, 0, 63, 0
2, 192061, Note_on_c, 0, 70, 0
2, 192061, Note_on_c, 0, 74, 90
2, 192064, Note_on_c, 0, 68, 79
2, 192065, Note_on_c, 0, 63, 76
2, 192066, Note_on_c, 0, 51, 0
2, 192067, Note_on_c, 0, 70, 79
2, 192222, Note_on_c, 0, 32, 0
2, 192222, Note_on_c, 0, 44, 0
2, 192222, Note_on_c, 0, 63, 0
2, 192230, Note_on_c, 0, 44, 84
2, 192231, Note_on_c, 0, 32, 80
2, 192231, Note_on_c, 0, 63, 69
2, 192399, Note_on_c, 0, 70, 0
2, 192399, Note_on_c, 0, 75, 0
2, 192407, Note_on_c, 0, 75, 101
2, 192407, Note_on_c, 0, 70, 85
2, 192410, Note_on_c, 0, 65, 81
2, 192514, Note_on_c, 0, 58, 0
2, 192523, Control_c, 0, 64, 0
2, 192524, Note_on_c, 0, 74, 0
2, 192524, Note_on_c, 0, 75, 0
2, 192525, Note_on_c, 0, 68, 0
2, 192525, Note_on_c, 0, 60, 0
2, 192525, Note_on_c, 0, 56, 0
2, 192525, Note_on_c, 0, 63, 0
2, 192529, Note_on_c, 0, 67, 0
2, 192545, Note_on_c, 0, 32, 0
2, 192545, Note_on_c, 0, 44, 0
2, 192571, Note_on_c, 0, 46, 88
2, 192572, Note_on_c, 0, 34, 80
2, 192576, Note_on_c, 0, 65, 0
2, 192576, Note_on_c, 0, 70, 0
2, 192581, Note_on_c, 0, 70, 83
2, 192585, Note_on_c, 0, 65, 82
2, 192629, Control_c, 0, 64, 127
2, 192752, Note_on_c, 0, 65, 0
2, 192752, Note_on_c, 0, 70, 0
2, 192757, Note_on_c, 0, 74, 93
2, 192762, Note_on_c, 0, 65, 88
2, 192763, Note_on_c, 0, 70, 85
2, 192928, Note_on_c, 0, 62, 75
2, 192929, Note_on_c, 0, 65, 0
2, 192929, Note_on_c, 0, 70, 0
2, 192932, Note_on_c, 0, 53, 76
2, 192932, Note_on_c, 0, 58, 75
2, 192935, Note_on_c, 0, 70, 84
2, 192938, Note_on_c, 0, 65, 78
2, 193105, Note_on_c, 0, 70, 0
2, 193113, Note_on_c, 0, 65, 0
2, 193115, Note_on_c, 0, 75, 104
2, 193115, Note_on_c, 0, 70, 94
2, 193118, Note_on_c, 0, 65, 86
2, 193257, Control_c, 0, 64, 0
2, 193259, Note_on_c, 0, 53, 0
2, 193260, Note_on_c, 0, 46, 0
2, 193261, Note_on_c, 0, 62, 0
2, 193261, Note_on_c, 0, 74, 0
2, 193262, Note_on_c, 0, 34, 0
2, 193267, Note_on_c, 0, 58, 0
2, 193274, Note_on_c, 0, 65, 0
2, 193274, Note_on_c, 0, 70, 0
2, 193283, Note_on_c, 0, 65, 85
2, 193285, Note_on_c, 0, 44, 92
2, 193285, Note_on_c, 0, 70, 81
2, 193285, Note_on_c, 0, 32, 88
2, 193344, Control_c, 0, 64, 127
2, 193451, Note_on_c, 0, 70, 0
2, 193459, Note_on_c, 0, 65, 0
2, 193460, Note_on_c, 0, 77, 102
2, 193462, Note_on_c, 0, 70, 86
2, 193463, Note_on_c, 0, 65, 90
2, 193611, Control_c, 0, 64, 0
2, 193616, Note_on_c, 0, 44, 0
2, 193620, Note_on_c, 0, 75, 0
2, 193628, Note_on_c, 0, 32, 0
2, 193633, Note_on_c, 0, 46, 102
2, 193636, Note_on_c, 0, 34, 93
2, 193689, Control_c, 0, 64, 127
2, 193797, Note_on_c, 0, 65, 0
2, 193797, Note_on_c, 0, 70, 0
2, 193797, Note_on_c, 0, 77, 0
2, 193804, Note_on_c, 0, 77, 65
2, 193805, Note_on_c, 0, 65, 79
2, 193807, Note_on_c, 0, 70, 85
2, 193991, Note_on_c, 0, 84, 103
2, 193992, Note_on_c, 0, 72, 107
2, 193993, Note_on_c, 0, 79, 94
2, 193993, Control_c, 0, 64, 0
2, 193995, Note_on_c, 0, 36, 94
2, 193997, Note_on_c, 0, 75, 98
2, 193997, Note_on_c, 0, 65, 0
2, 193999, Note_on_c, 0, 77, 0
2, 194000, Note_on_c, 0, 46, 0
2, 194001, Note_on_c, 0, 34, 0
2, 194012, Note_on_c, 0, 70, 0
2, 194058, Control_c, 0, 64, 127
2, 194092, Note_on_c, 0, 43, 72
2, 194170, Note_on_c, 0, 48, 82
2, 194260, Note_on_c, 0, 50, 75
2, 194354, Note_on_c, 0, 51, 78
2, 194409, Note_on_c, 0, 55, 79
2, 194485, Note_on_c, 0, 60, 75
2, 194583, Note_on_c, 0, 63, 83
2, 194589, Note_on_c, 0, 67, 78
2, 194595, Note_on_c, 0, 67, 0
2, 194671, Note_on_c, 0, 67, 98
2, 194674, Note_on_c, 0, 86, 96
2, 194675, Note_on_c, 0, 74, 94
2, 194675, Note_on_c, 0, 82, 101
2, 194749, Note_on_c, 0, 63, 0
2, 194756, Note_on_c, 0, 63, 79
2, 194762, Note_on_c, 0, 72, 0
2, 194841, Note_on_c, 0, 60, 0
2, 194848, Note_on_c, 0, 60, 74
2, 194926, Note_on_c, 0, 55, 0
2, 194932, Note_on_c, 0, 55, 76
2, 194995, Note_on_c, 0, 51, 0
2, 195002, Note_on_c, 0, 51, 78
2, 195025, Note_on_c, 0, 75, 0
2, 195032, Note_on_c, 0, 87, 85
2, 195036, Note_on_c, 0, 75, 87
2, 195064, Note_on_c, 0, 50, 0
2, 195069, Note_on_c, 0, 50, 75
2, 195164, Note_on_c, 0, 48, 0
2, 195175, Note_on_c, 0, 48, 83
2, 195194, Note_on_c, 0, 75, 0
2, 195194, Note_on_c, 0, 82, 0
2, 195199, Note_on_c, 0, 82, 98
2, 195200, Note_on_c, 0, 75, 87
2, 195202, Note_on_c, 0, 36, 0
2, 195205, Note_on_c, 0, 70, 93
2, 195236, Control_c, 0, 64, 0
2, 195240, Control_c, 0, 64, 127
2, 195256, Note_on_c, 0, 43, 0
2, 195260, Note_on_c, 0, 43, 86
2, 195356, Note_on_c, 0, 60, 0
2, 195357, Control_c, 0, 64, 0
2, 195359, Note_on_c, 0, 74, 0
2, 195361, Note_on_c, 0, 84, 0
2, 195361, Note_on_c, 0, 79, 0
2, 195361, Note_on_c, 0, 55, 0
2, 195363, Note_on_c, 0, 50, 0
2, 195366, Note_on_c, 0, 36, 86
2, 195371, Note_on_c, 0, 63, 0
2, 195371, Note_on_c, 0, 67, 0
2, 195371, Note_on_c, 0, 86, 0
2, 195379, Note_on_c, 0, 48, 0
2, 195379, Note_on_c, 0, 51, 0
2, 195379, Control_c, 0, 64, 127
2, 195386, Note_on_c, 0, 87, 0
2, 195456, Note_on_c, 0, 43, 0
2, 195464, Note_on_c, 0, 43, 79
2, 195542, Note_on_c, 0, 48, 76
2, 195546, Note_on_c, 0, 80, 96
2, 195548, Note_on_c, 0, 75, 0
2, 195551, Note_on_c, 0, 68, 91
2, 195554, Note_on_c, 0, 75, 91
2, 195629, Note_on_c, 0, 50, 88
2, 195725, Note_on_c, 0, 51, 74
2, 195775, Note_on_c, 0, 55, 83
2, 195858, Note_on_c, 0, 60, 76
2, 195960, Note_on_c, 0, 63, 80
2, 196032, Note_on_c, 0, 55, 0
2, 196036, Note_on_c, 0, 67, 87
2, 196036, Note_on_c, 0, 55, 79
2, 196108, Note_on_c, 0, 63, 0
2, 196117, Note_on_c, 0, 63, 70
2, 196193, Note_on_c, 0, 60, 0
2, 196199, Note_on_c, 0, 60, 87
2, 196200, Note_on_c, 0, 67, 0
2, 196212, Note_on_c, 0, 79, 88
2, 196212, Note_on_c, 0, 67, 87
2, 196213, Note_on_c, 0, 72, 88
2, 196277, Note_on_c, 0, 55, 0
2, 196282, Note_on_c, 0, 55, 80
2, 196346, Note_on_c, 0, 51, 0
2, 196350, Note_on_c, 0, 51, 70
2, 196377, Note_on_c, 0, 72, 0
2, 196381, Note_on_c, 0, 77, 87
2, 196384, Note_on_c, 0, 65, 83
2, 196387, Note_on_c, 0, 72, 89
2, 196387, Note_on_c, 0, 69, 74
2, 196500, Note_on_c, 0, 48, 0
2, 196511, Note_on_c, 0, 48, 69
2, 196546, Note_on_c, 0, 75, 0
2, 196554, Note_on_c, 0, 72, 0
2, 196557, Note_on_c, 0, 75, 94
2, 196561, Note_on_c, 0, 63, 0
2, 196561, Note_on_c, 0, 68, 0
2, 196564, Note_on_c, 0, 72, 97
2, 196567, Note_on_c, 0, 63, 73
2, 196567, Note_on_c, 0, 68, 86
2, 196584, Note_on_c, 0, 43, 0
2, 196591, Note_on_c, 0, 43, 81
2, 196684, Note_on_c, 0, 36, 0
2, 196700, Note_on_c, 0, 82, 0
2, 196704, Note_on_c, 0, 80, 0
2, 196704, Note_on_c, 0, 43, 0
2, 196704, Control_c, 0, 64, 0
2, 196704, Note_on_c, 0, 48, 0
2, 196705, Note_on_c, 0, 51, 0
2, 196705, Note_on_c, 0, 60, 0
2, 196705, Note_on_c, 0, 65, 0
2, 196705, Note_on_c, 0, 55, 0
2, 196705, Note_on_c, 0, 72, 0
2, 196705, Note_on_c, 0, 70, 0
2, 196705, Note_on_c, 0, 77, 0
2, 196705, Note_on_c, 0, 50, 0
2, 196706, Note_on_c, 0, 79, 0
2, 196706, Note_on_c, 0, 63, 0
2, 196707, Note_on_c, 0, 69, 0
2, 196715, Note_on_c, 0, 67, 0
2, 196719, Note_on_c, 0, 32, 83
2, 196769, Control_c, 0, 64, 127
2, 196820, Note_on_c, 0, 39, 77
2, 196999, Note_on_c, 0, 46, 66
2, 197071, Note_on_c, 0, 48, 67
2, 197155, Note_on_c, 0, 51, 69
2, 197226, Note_on_c, 0, 56, 78
2, 197230, Note_on_c, 0, 68, 0
2, 197241, Note_on_c, 0, 68, 85
2, 197260, Note_on_c, 0, 75, 0
2, 197265, Note_on_c, 0, 63, 77
2, 197266, Note_on_c, 0, 75, 90
2, 197319, Note_on_c, 0, 58, 77
2, 197404, Note_on_c, 0, 60, 76
2, 197414, Note_on_c, 0, 63, 0
2, 197414, Note_on_c, 0, 75, 0
2, 197422, Note_on_c, 0, 68, 0
2, 197423, Note_on_c, 0, 75, 93
2, 197424, Note_on_c, 0, 63, 84
2, 197427, Note_on_c, 0, 68, 90
2, 197429, Note_on_c, 0, 72, 88
2, 197487, Note_on_c, 0, 57, 79
2, 197575, Note_on_c, 0, 56, 0
2, 197587, Note_on_c, 0, 56, 76
2, 197598, Note_on_c, 0, 68, 0
2, 197608, Note_on_c, 0, 68, 85
2, 197610, Note_on_c, 0, 74, 81
2, 197660, Note_on_c, 0, 51, 0
2, 197669, Note_on_c, 0, 51, 75
2, 197748, Note_on_c, 0, 36, 75
2, 197760, Note_on_c, 0, 63, 0
2, 197760, Note_on_c, 0, 68, 0
2, 197763, Note_on_c, 0, 70, 87
2, 197767, Note_on_c, 0, 75, 0
2, 197770, Note_on_c, 0, 68, 77
2, 197770, Note_on_c, 0, 63, 67
2, 197777, Note_on_c, 0, 75, 72
2, 197806, Note_on_c, 0, 46, 0
2, 197810, Note_on_c, 0, 46, 71
2, 197921, Note_on_c, 0, 46, 0
2, 197921, Note_on_c, 0, 75, 0
2, 197927, Note_on_c, 0, 46, 76
2, 197927, Note_on_c, 0, 75, 95
2, 197928, Note_on_c, 0, 70, 0
2, 197932, Note_on_c, 0, 65, 78
2, 197934, Note_on_c, 0, 70, 86
2, 197982, Note_on_c, 0, 32, 0
2, 197982, Note_on_c, 0, 39, 0
2, 197993, Note_on_c, 0, 39, 81
2, 198079, Note_on_c, 0, 39, 0
2, 198080, Note_on_c, 0, 46, 0
2, 198080, Note_on_c, 0, 65, 0
2, 198080, Note_on_c, 0, 68, 0
2, 198080, Note_on_c, 0, 51, 0
2, 198080, Note_on_c, 0, 58, 0
2, 198080, Note_on_c, 0, 75, 0
2, 198081, Note_on_c, 0, 48, 0
2, 198081, Note_on_c, 0, 74, 0
2, 198081, Note_on_c, 0, 63, 0
2, 198081, Note_on_c, 0, 72, 0
2, 198082, Note_on_c, 0, 36, 0
2, 198082, Note_on_c, 0, 57, 0
2, 198082, Note_on_c, 0, 60, 0
2, 198084, Control_c, 0, 64, 0
2, 198090, Note_on_c, 0, 56, 0
2, 198093, Note_on_c, 0, 34, 98
2, 198144, Control_c, 0, 64, 127
2, 198195, Note_on_c, 0, 41, 77
2, 198266, Note_on_c, 0, 70, 0
2, 198269, Note_on_c, 0, 46, 70
2, 198270, Note_on_c, 0, 74, 88
2, 198273, Note_on_c, 0, 70, 79
2, 198389, Note_on_c, 0, 46, 0
2, 198393, Note_on_c, 0, 46, 72
2, 198428, Note_on_c, 0, 70, 0
2, 198438, Note_on_c, 0, 70, 90
2, 198463, Note_on_c, 0, 65, 73
2, 198528, Note_on_c, 0, 70, 0
2, 198534, Note_on_c, 0, 53, 71
2, 198537, Note_on_c, 0, 70, 87
2, 198612, Note_on_c, 0, 46, 0
2, 198612, Note_on_c, 0, 53, 0
2, 198612, Note_on_c, 0, 65, 0
2, 198612, Note_on_c, 0, 70, 0
2, 198615, Note_on_c, 0, 58, 84
2, 198615, Note_on_c, 0, 75, 97
2, 198618, Note_on_c, 0, 46, 80
2, 198619, Note_on_c, 0, 70, 94
2, 198622, Note_on_c, 0, 53, 76
2, 198622, Note_on_c, 0, 65, 82
2, 198716, Note_on_c, 0, 60, 72
2, 198781, Note_on_c, 0, 70, 0
2, 198787, Note_on_c, 0, 62, 79
2, 198789, Note_on_c, 0, 70, 78
2, 198796, Note_on_c, 0, 65, 0
2, 198806, Note_on_c, 0, 65, 60
2, 198858, Note_on_c, 0, 60, 0
2, 198869, Note_on_c, 0, 60, 73
2, 198950, Note_on_c, 0, 58, 0
2, 198950, Note_on_c, 0, 70, 0
2, 198959, Note_on_c, 0, 58, 77
2, 198959, Note_on_c, 0, 70, 80
2, 199042, Note_on_c, 0, 53, 0
2, 199049, Note_on_c, 0, 53, 73
2, 199119, Note_on_c, 0, 58, 0
2, 199119, Note_on_c, 0, 65, 0
2, 199119, Note_on_c, 0, 70, 0
2, 199122, Note_on_c, 0, 77, 94
2, 199123, Note_on_c, 0, 50, 77
2, 199123, Note_on_c, 0, 70, 91
2, 199124, Note_on_c, 0, 58, 79
2, 199124, Note_on_c, 0, 65, 87
2, 199206, Note_on_c, 0, 48, 64
2, 199280, Note_on_c, 0, 46, 0
2, 199289, Note_on_c, 0, 46, 74
2, 199357, Note_on_c, 0, 41, 0
2, 199362, Note_on_c, 0, 41, 80
2, 199470, Control_c, 0, 64, 0
2, 199472, Note_on_c, 0, 75, 0
2, 199472, Note_on_c, 0, 48, 0
2, 199472, Note_on_c, 0, 41, 0
2, 199473, Note_on_c, 0, 74, 0
2, 199473, Note_on_c, 0, 50, 0
2, 199473, Note_on_c, 0, 70, 0
2, 199473, Note_on_c, 0, 77, 0
2, 199474, Note_on_c, 0, 65, 0
2, 199474, Note_on_c, 0, 34, 0
2, 199475, Note_on_c, 0, 62, 0
2, 199475, Note_on_c, 0, 58, 0
2, 199475, Note_on_c, 0, 53, 0
2, 199475, Note_on_c, 0, 47, 91
2, 199475, Note_on_c, 0, 78, 100
2, 199477, Note_on_c, 0, 59, 90
2, 199477, Note_on_c, 0, 71, 91
2, 199478, Note_on_c, 0, 66, 95
2, 199479, Note_on_c, 0, 75, 96
2, 199488, Note_on_c, 0, 59, 0
2, 199488, Note_on_c, 0, 60, 0
2, 199495, Note_on_c, 0, 46, 0
2, 199534, Control_c, 0, 64, 127
2, 199562, Note_on_c, 0, 42, 85
2, 199633, Note_on_c, 0, 47, 0
2, 199637, Note_on_c, 0, 47, 78
2, 199744, Note_on_c, 0, 49, 63
2, 199799, Note_on_c, 0, 63, 57
2, 199802, Note_on_c, 0, 66, 0
2, 199805, Note_on_c, 0, 59, 79
2, 199805, Note_on_c, 0, 51, 65
2, 199806, Note_on_c, 0, 66, 79
2, 199810, Note_on_c, 0, 63, 0
2, 199890, Note_on_c, 0, 54, 71
2, 199971, Note_on_c, 0, 47, 0
2, 199971, Note_on_c, 0, 59, 0
2, 199971, Note_on_c, 0, 71, 0
2, 199975, Note_on_c, 0, 59, 87
2, 199976, Note_on_c, 0, 80, 90
2, 199977, Note_on_c, 0, 47, 79
2, 199979, Note_on_c, 0, 75, 0
2, 199982, Note_on_c, 0, 71, 84
2, 199983, Note_on_c, 0, 75, 87
2, 200064, Note_on_c, 0, 51, 0
2, 200070, Note_on_c, 0, 51, 56
2, 200074, Note_on_c, 0, 63, 63
2, 200148, Note_on_c, 0, 66, 0
2, 200152, Note_on_c, 0, 66, 88
2, 200156, Note_on_c, 0, 59, 0
2, 200166, Note_on_c, 0, 59, 65
2, 200232, Note_on_c, 0, 63, 0
2, 200239, Note_on_c, 0, 63, 59
2, 200325, Note_on_c, 0, 47, 0
2, 200325, Note_on_c, 0, 59, 0
2, 200331, Note_on_c, 0, 59, 73
2, 200334, Note_on_c, 0, 47, 70
2, 200409, Note_on_c, 0, 54, 0
2, 200415, Note_on_c, 0, 54, 75
2, 200486, Note_on_c, 0, 51, 0
2, 200486, Note_on_c, 0, 63, 0
2, 200486, Note_on_c, 0, 66, 0
2, 200486, Note_on_c, 0, 71, 0
2, 200486, Note_on_c, 0, 75, 0
2, 200490, Note_on_c, 0, 82, 93
2, 200494, Note_on_c, 0, 71, 81
2, 200495, Note_on_c, 0, 51, 69
2, 200495, Note_on_c, 0, 75, 87
2, 200497, Note_on_c, 0, 63, 74
2, 200497, Note_on_c, 0, 66, 83
2, 200497, Note_on_c, 0, 78, 0
2, 200555, Note_on_c, 0, 49, 0
2, 200566, Note_on_c, 0, 49, 72
2, 200647, Note_on_c, 0, 47, 0
2, 200657, Note_on_c, 0, 47, 72
2, 200732, Note_on_c, 0, 42, 0
2, 200739, Note_on_c, 0, 42, 87
2, 200839, Note_on_c, 0, 82, 0
2, 200843, Note_on_c, 0, 42, 0
2, 200843, Note_on_c, 0, 54, 0
2, 200843, Control_c, 0, 64, 0
2, 200844, Note_on_c, 0, 75, 0
2, 200844, Note_on_c, 0, 59, 0
2, 200844, Note_on_c, 0, 71, 0
2, 200844, Note_on_c, 0, 80, 0
2, 200844, Note_on_c, 0, 49, 0
2, 200845, Note_on_c, 0, 63, 0
2, 200847, Note_on_c, 0, 51, 0
2, 200851, Note_on_c, 0, 77, 97
2, 200851, Note_on_c, 0, 65, 90
2, 200851, Note_on_c, 0, 68, 90
2, 200852, Note_on_c, 0, 73, 87
2, 200852, Note_on_c, 0, 37, 86
2, 200862, Note_on_c, 0, 47, 0
2, 200862, Note_on_c, 0, 66, 0
2, 200908, Control_c, 0, 64, 127
2, 200943, Note_on_c, 0, 44, 80
2, 201005, Note_on_c, 0, 49, 79
2, 201100, Note_on_c, 0, 65, 0
2, 201107, Note_on_c, 0, 65, 76
2, 201108, Note_on_c, 0, 68, 0
2, 201113, Note_on_c, 0, 68, 77
2, 201174, Note_on_c, 0, 53, 66
2, 201196, Note_on_c, 0, 78, 86
2, 201231, Note_on_c, 0, 65, 0
2, 201236, Note_on_c, 0, 65, 68
2, 201280, Note_on_c, 0, 56, 76
2, 201354, Note_on_c, 0, 53, 0
2, 201354, Note_on_c, 0, 65, 0
2, 201354, Note_on_c, 0, 68, 0
2, 201354, Note_on_c, 0, 73, 0
2, 201357, Note_on_c, 0, 61, 77
2, 201358, Note_on_c, 0, 65, 76
2, 201362, Note_on_c, 0, 73, 88
2, 201364, Note_on_c, 0, 53, 65
2, 201365, Note_on_c, 0, 68, 86
2, 201454, Note_on_c, 0, 65, 0
2, 201458, Note_on_c, 0, 65, 73
2, 201538, Note_on_c, 0, 68, 0
2, 201544, Note_on_c, 0, 68, 85
2, 201709, Note_on_c, 0, 70, 85
2, 201713, Note_on_c, 0, 51, 65
2, 201715, Note_on_c, 0, 61, 0
2, 201722, Note_on_c, 0, 61, 72
2, 201784, Note_on_c, 0, 65, 0
2, 201790, Note_on_c, 0, 65, 70
2, 201823, Note_on_c, 0, 57, 68
2, 201850, Note_on_c, 0, 54, 68
2, 201868, Note_on_c, 0, 61, 0
2, 201874, Note_on_c, 0, 61, 62
2, 201876, Note_on_c, 0, 70, 0
2, 201880, Note_on_c, 0, 70, 83
2, 201930, Note_on_c, 0, 51, 0
2, 201935, Note_on_c, 0, 51, 64
2, 202030, Note_on_c, 0, 49, 0
2, 202038, Note_on_c, 0, 49, 79
2, 202045, Note_on_c, 0, 68, 0
2, 202050, Note_on_c, 0, 68, 86
2, 202091, Note_on_c, 0, 44, 0
2, 202102, Note_on_c, 0, 44, 80
2, 202205, Control_c, 0, 64, 0
2, 202208, Note_on_c, 0, 37, 0
2, 202209, Note_on_c, 0, 56, 0
2, 202209, Note_on_c, 0, 77, 0
2, 202209, Note_on_c, 0, 65, 0
2, 202209, Note_on_c, 0, 68, 0
2, 202210, Note_on_c, 0, 70, 0
2, 202210, Note_on_c, 0, 51, 0
2, 202210, Note_on_c, 0, 78, 0
2, 202210, Note_on_c, 0, 61, 0
2, 202210, Note_on_c, 0, 53, 0
2, 202210, Note_on_c, 0, 54, 0
2, 202214, Note_on_c, 0, 57, 0
2, 202216, Note_on_c, 0, 32, 86
2, 202229, Note_on_c, 0, 49, 0
2, 202229, Note_on_c, 0, 73, 0
2, 202283, Control_c, 0, 64, 127
2, 202306, Note_on_c, 0, 39, 79
2, 202368, Note_on_c, 0, 44, 0
2, 202375, Note_on_c, 0, 44, 77
2, 202477, Note_on_c, 0, 46, 74
2, 202556, Note_on_c, 0, 75, 88
2, 202557, Note_on_c, 0, 72, 81
2, 202559, Note_on_c, 0, 68, 85
2, 202562, Note_on_c, 0, 48, 76
2, 202563, Note_on_c, 0, 63, 79
2, 202646, Note_on_c, 0, 51, 68
2, 202708, Note_on_c, 0, 56, 71
2, 202805, Note_on_c, 0, 60, 68
2, 202890, Note_on_c, 0, 48, 0
2, 202890, Note_on_c, 0, 63, 0
2, 202899, Note_on_c, 0, 48, 67
2, 202901, Note_on_c, 0, 63, 70
2, 202905, Note_on_c, 0, 32, 0
2, 202967, Note_on_c, 0, 60, 0
2, 202972, Note_on_c, 0, 60, 70
2, 203074, Note_on_c, 0, 56, 0
2, 203082, Note_on_c, 0, 56, 72
2, 203159, Note_on_c, 0, 51, 0
2, 203163, Note_on_c, 0, 51, 72
2, 203243, Note_on_c, 0, 48, 0
2, 203253, Note_on_c, 0, 48, 59
2, 203297, Note_on_c, 0, 46, 0
2, 203308, Note_on_c, 0, 46, 69
2, 203389, Note_on_c, 0, 44, 0
2, 203398, Note_on_c, 0, 44, 67
2, 203458, Note_on_c, 0, 39, 0
2, 203467, Note_on_c, 0, 39, 73
2, 203578, Note_on_c, 0, 32, 82
2, 203581, Note_on_c, 0, 63, 0
2, 203581, Control_c, 0, 64, 0
2, 203582, Note_on_c, 0, 75, 0
2, 203582, Note_on_c, 0, 56, 0
2, 203583, Note_on_c, 0, 51, 0
2, 203583, Note_on_c, 0, 72, 0
2, 203584, Note_on_c, 0, 68, 0
2, 203584, Note_on_c, 0, 60, 0
2, 203585, Note_on_c, 0, 63, 74
2, 203596, Note_on_c, 0, 46, 0
2, 203596, Note_on_c, 0, 48, 0
2, 203658, Control_c, 0, 64, 127
2, 203678, Note_on_c, 0, 56, 74
2, 203727, Note_on_c, 0, 44, 0
2, 203737, Note_on_c, 0, 44, 77
2, 203770, Note_on_c, 0, 58, 77
2, 203847, Note_on_c, 0, 60, 71
2, 203923, Note_on_c, 0, 48, 64
2, 203924, Note_on_c, 0, 62, 68
2, 203988, Note_on_c, 0, 63, 0
2, 203998, Note_on_c, 0, 63, 63
2, 204079, Note_on_c, 0, 65, 74
2, 204080, Note_on_c, 0, 51, 71
2, 204150, Note_on_c, 0, 67, 75
2, 204165, Note_on_c, 0, 39, 0
2, 204254, Note_on_c, 0, 56, 0
2, 204254, Control_c, 0, 64, 0
2, 204254, Note_on_c, 0, 51, 0
2, 204254, Note_on_c, 0, 62, 0
2, 204254, Note_on_c, 0, 65, 0
2, 204254, Note_on_c, 0, 48, 0
2, 204255, Note_on_c, 0, 67, 0
2, 204255, Note_on_c, 0, 60, 0
2, 204255, Note_on_c, 0, 58, 0
2, 204258, Note_on_c, 0, 34, 94
2, 204258, Note_on_c, 0, 44, 0
2, 204260, Note_on_c, 0, 70, 83
2, 204264, Note_on_c, 0, 32, 0
2, 204272, Note_on_c, 0, 63, 0
2, 204349, Control_c, 0, 64, 127
2, 204360, Note_on_c, 0, 63, 61
2, 204432, Note_on_c, 0, 65, 80
2, 204435, Note_on_c, 0, 46, 84
2, 204521, Note_on_c, 0, 67, 76
2, 204596, Note_on_c, 0, 50, 78
2, 204602, Note_on_c, 0, 68, 80
2, 204679, Note_on_c, 0, 70, 0
2, 204683, Note_on_c, 0, 70, 74
2, 204752, Note_on_c, 0, 53, 80
2, 204753, Note_on_c, 0, 72, 85
2, 204845, Note_on_c, 0, 74, 76
2, 204912, Note_on_c, 0, 34, 0
2, 204913, Note_on_c, 0, 53, 0
2, 204913, Note_on_c, 0, 46, 0
2, 204913, Note_on_c, 0, 67, 0
2, 204913, Note_on_c, 0, 50, 0
2, 204913, Note_on_c, 0, 70, 0
2, 204913, Note_on_c, 0, 63, 0
2, 204913, Note_on_c, 0, 65, 0
2, 204913, Note_on_c, 0, 72, 0
2, 204914, Note_on_c, 0, 68, 0
2, 204914, Control_c, 0, 64, 0
2, 204943, Note_on_c, 0, 36, 93
2, 204943, Note_on_c, 0, 48, 93
2, 204943, Note_on_c, 0, 75, 93
2, 204986, Control_c, 0, 64, 127
2, 205025, Note_on_c, 0, 74, 0
2, 205029, Note_on_c, 0, 70, 80
2, 205033, Note_on_c, 0, 74, 78
2, 205117, Note_on_c, 0, 48, 0
2, 205117, Note_on_c, 0, 70, 0
2, 205126, Note_on_c, 0, 72, 88
2, 205127, Note_on_c, 0, 70, 90
2, 205128, Note_on_c, 0, 48, 71
2, 205294, Note_on_c, 0, 48, 0
2, 205294, Note_on_c, 0, 70, 0
2, 205294, Note_on_c, 0, 72, 0
2, 205299, Note_on_c, 0, 48, 65
2, 205301, Note_on_c, 0, 70, 86
2, 205302, Note_on_c, 0, 72, 82
2, 205378, Note_on_c, 0, 74, 0
2, 205389, Note_on_c, 0, 74, 74
2, 205470, Note_on_c, 0, 75, 0
2, 205480, Note_on_c, 0, 75, 77
2, 205556, Note_on_c, 0, 77, 72
2, 205621, Control_c, 0, 64, 0
2, 205627, Note_on_c, 0, 70, 0
2, 205635, Note_on_c, 0, 60, 81
2, 205635, Note_on_c, 0, 79, 87
2, 205639, Note_on_c, 0, 51, 80
2, 205639, Note_on_c, 0, 48, 0
2, 205643, Note_on_c, 0, 55, 77
2, 205643, Note_on_c, 0, 48, 77
2, 205716, Note_on_c, 0, 77, 0
2, 205716, Control_c, 0, 64, 127
2, 205720, Note_on_c, 0, 77, 72
2, 205800, Note_on_c, 0, 48, 0
2, 205800, Note_on_c, 0, 75, 0
2, 205806, Note_on_c, 0, 75, 80
2, 205811, Note_on_c, 0, 48, 63
2, 205885, Note_on_c, 0, 74, 0
2, 205889, Note_on_c, 0, 74, 72
2, 205977, Note_on_c, 0, 75, 0
2, 205982, Note_on_c, 0, 75, 70
2, 206000, Note_on_c, 0, 48, 0
2, 206000, Note_on_c, 0, 77, 0
2, 206005, Note_on_c, 0, 77, 76
2, 206008, Note_on_c, 0, 79, 0
2, 206011, Note_on_c, 0, 48, 66
2, 206069, Note_on_c, 0, 77, 0
2, 206081, Note_on_c, 0, 77, 67
2, 206087, Note_on_c, 0, 76, 52
2, 206092, Note_on_c, 0, 76, 0
2, 206161, Note_on_c, 0, 48, 0
2, 206166, Note_on_c, 0, 79, 78
2, 206169, Note_on_c, 0, 48, 65
2, 206243, Note_on_c, 0, 80, 76
2, 206305, Note_on_c, 0, 60, 0
2, 206306, Note_on_c, 0, 74, 0
2, 206306, Note_on_c, 0, 75, 0
2, 206307, Note_on_c, 0, 72, 0
2, 206307, Note_on_c, 0, 51, 0
2, 206309, Note_on_c, 0, 77, 0
2, 206309, Note_on_c, 0, 55, 0
2, 206311, Note_on_c, 0, 79, 0
2, 206312, Control_c, 0, 64, 0
2, 206323, Note_on_c, 0, 36, 0
2, 206323, Note_on_c, 0, 48, 0
2, 206328, Note_on_c, 0, 82, 89
2, 206329, Note_on_c, 0, 36, 88
2, 206330, Note_on_c, 0, 80, 0
2, 206331, Note_on_c, 0, 48, 84
2, 206426, Note_on_c, 0, 80, 77
2, 206438, Control_c, 0, 64, 127
2, 206507, Note_on_c, 0, 36, 0
2, 206507, Note_on_c, 0, 48, 0
2, 206518, Note_on_c, 0, 48, 78
2, 206518, Note_on_c, 0, 36, 73
2, 206519, Note_on_c, 0, 79, 78
2, 206596, Note_on_c, 0, 77, 82
2, 206684, Note_on_c, 0, 48, 0
2, 206684, Note_on_c, 0, 79, 0
2, 206692, Note_on_c, 0, 79, 81
2, 206693, Note_on_c, 0, 48, 74
2, 206768, Note_on_c, 0, 80, 0
2, 206772, Note_on_c, 0, 80, 81
2, 206853, Note_on_c, 0, 48, 0
2, 206853, Note_on_c, 0, 79, 0
2, 206853, Note_on_c, 0, 82, 0
2, 206859, Note_on_c, 0, 48, 79
2, 206860, Note_on_c, 0, 79, 72
2, 206863, Note_on_c, 0, 82, 83
2, 206947, Note_on_c, 0, 84, 84
2, 207022, Note_on_c, 0, 48, 0
2, 207024, Note_on_c, 0, 60, 86
2, 207025, Note_on_c, 0, 86, 87
2, 207026, Note_on_c, 0, 48, 83
2, 207026, Note_on_c, 0, 51, 78
2, 207027, Note_on_c, 0, 55, 77
2, 207027, Note_on_c, 0, 84, 0
2, 207052, Note_on_c, 0, 80, 0
2, 207052, Note_on_c, 0, 82, 0
2, 207060, Note_on_c, 0, 77, 0
2, 207083, Note_on_c, 0, 79, 0
2, 207115, Note_on_c, 0, 84, 83
2, 207191, Note_on_c, 0, 48, 0
2, 207201, Note_on_c, 0, 48, 76
2, 207208, Note_on_c, 0, 82, 73
2, 207275, Note_on_c, 0, 84, 0
2, 207286, Note_on_c, 0, 84, 80
2, 207367, Note_on_c, 0, 48, 0
2, 207374, Note_on_c, 0, 48, 70
2, 207460, Note_on_c, 0, 87, 82
2, 207528, Note_on_c, 0, 48, 0
2, 207536, Note_on_c, 0, 48, 77
2, 207542, Note_on_c, 0, 89, 77
2, 207625, Note_on_c, 0, 91, 80
2, 207664, Control_c, 0, 64, 0
2, 207670, Note_on_c, 0, 55, 0
2, 207670, Note_on_c, 0, 51, 0
2, 207671, Note_on_c, 0, 48, 0
2, 207671, Note_on_c, 0, 60, 0
2, 207674, Note_on_c, 0, 86, 0
2, 207674, Note_on_c, 0, 36, 0
2, 207676, Note_on_c, 0, 87, 0
2, 207690, Note_on_c, 0, 84, 0
2, 207697, Note_on_c, 0, 82, 0
2, 207711, Note_on_c, 0, 44, 92
2, 207713, Note_on_c, 0, 92, 93
2, 207713, Note_on_c, 0, 89, 0
2, 207713, Note_on_c, 0, 32, 92
2, 207805, Note_on_c, 0, 91, 0
2, 207813, Note_on_c, 0, 91, 85
2, 207820, Control_c, 0, 64, 127
2, 207882, Note_on_c, 0, 44, 0
2, 207888, Note_on_c, 0, 44, 63
2, 207891, Note_on_c, 0, 89, 79
2, 207986, Note_on_c, 0, 87, 81
2, 208066, Note_on_c, 0, 44, 0
2, 208072, Note_on_c, 0, 86, 81
2, 208077, Note_on_c, 0, 44, 69
2, 208081, Note_on_c, 0, 86, 0
2, 208150, Note_on_c, 0, 84, 89
2, 208210, Note_on_c, 0, 70, 86
2, 208214, Note_on_c, 0, 82, 90
2, 208339, Note_on_c, 0, 80, 76
2, 208404, Note_on_c, 0, 44, 0
2, 208408, Note_on_c, 0, 56, 73
2, 208413, Note_on_c, 0, 48, 70
2, 208414, Note_on_c, 0, 44, 82
2, 208415, Note_on_c, 0, 79, 83
2, 208415, Note_on_c, 0, 51, 73
2, 208442, Control_c, 0, 64, 0
2, 208499, Note_on_c, 0, 77, 74
2, 208527, Control_c, 0, 64, 127
2, 208581, Note_on_c, 0, 44, 0
2, 208581, Note_on_c, 0, 51, 0
2, 208585, Note_on_c, 0, 75, 76
2, 208590, Note_on_c, 0, 51, 60
2, 208592, Note_on_c, 0, 44, 73
2, 208676, Note_on_c, 0, 74, 63
2, 208753, Note_on_c, 0, 72, 62
2, 208757, Note_on_c, 0, 72, 0
2, 208765, Note_on_c, 0, 44, 0
2, 208776, Note_on_c, 0, 44, 68
2, 208819, Note_on_c, 0, 70, 0
2, 208827, Note_on_c, 0, 70, 78
2, 208926, Note_on_c, 0, 44, 0
2, 208935, Note_on_c, 0, 68, 80
2, 208936, Note_on_c, 0, 44, 68
2, 209045, Control_c, 0, 64, 0
2, 209054, Note_on_c, 0, 32, 0
2, 209056, Note_on_c, 0, 91, 0
2, 209056, Note_on_c, 0, 80, 0
2, 209056, Note_on_c, 0, 92, 0
2, 209057, Note_on_c, 0, 84, 0
2, 209057, Note_on_c, 0, 87, 0
2, 209057, Note_on_c, 0, 70, 0
2, 209057, Note_on_c, 0, 44, 0
2, 209057, Note_on_c, 0, 79, 0
2, 209058, Note_on_c, 0, 82, 0
2, 209058, Note_on_c, 0, 77, 0
2, 209059, Note_on_c, 0, 89, 0
2, 209059, Note_on_c, 0, 68, 0
2, 209064, Note_on_c, 0, 56, 0
2, 209072, Note_on_c, 0, 74, 0
2, 209080, Note_on_c, 0, 48, 0
2, 209080, Note_on_c, 0, 75, 0
2, 209105, Note_on_c, 0, 34, 85
2, 209107, Note_on_c, 0, 46, 89
2, 209113, Note_on_c, 0, 89, 87
2, 209118, Note_on_c, 0, 51, 0
2, 209197, Note_on_c, 0, 87, 84
2, 209218, Control_c, 0, 64, 127
2, 209272, Note_on_c, 0, 46, 0
2, 209277, Note_on_c, 0, 46, 70
2, 209279, Note_on_c, 0, 63, 70
2, 209281, Note_on_c, 0, 58, 74
2, 209289, Note_on_c, 0, 51, 67
2, 209365, Note_on_c, 0, 75, 80
2, 209365, Note_on_c, 0, 84, 86
2, 209372, Note_on_c, 0, 75, 0
2, 209441, Note_on_c, 0, 46, 0
2, 209450, Note_on_c, 0, 46, 81
2, 209456, Note_on_c, 0, 63, 0
2, 209464, Control_c, 0, 64, 0
2, 209475, Note_on_c, 0, 82, 82
2, 209537, Note_on_c, 0, 80, 69
2, 209548, Control_c, 0, 64, 127
2, 209617, Note_on_c, 0, 46, 0
2, 209617, Note_on_c, 0, 51, 0
2, 209628, Note_on_c, 0, 79, 73
2, 209628, Note_on_c, 0, 51, 60
2, 209629, Note_on_c, 0, 46, 71
2, 209633, Note_on_c, 0, 79, 0
2, 209705, Note_on_c, 0, 77, 78
2, 209791, Note_on_c, 0, 86, 91
2, 209802, Note_on_c, 0, 46, 0
2, 209802, Note_on_c, 0, 58, 0
2, 209805, Note_on_c, 0, 53, 75
2, 209806, Note_on_c, 0, 58, 81
2, 209806, Note_on_c, 0, 46, 80
2, 209806, Note_on_c, 0, 50, 74
2, 209815, Control_c, 0, 64, 0
2, 209856, Control_c, 0, 64, 127
2, 209879, Note_on_c, 0, 84, 0
2, 209884, Note_on_c, 0, 84, 86
2, 209971, Note_on_c, 0, 53, 0
2, 209971, Note_on_c, 0, 82, 0
2, 209976, Note_on_c, 0, 82, 87
2, 209978, Note_on_c, 0, 46, 0
2, 209982, Note_on_c, 0, 53, 68
2, 209983, Note_on_c, 0, 46, 81
2, 210063, Note_on_c, 0, 80, 0
2, 210067, Note_on_c, 0, 80, 72
2, 210145, Note_on_c, 0, 79, 64
2, 210147, Note_on_c, 0, 46, 0
2, 210157, Note_on_c, 0, 46, 75
2, 210201, Note_on_c, 0, 51, 0
2, 210209, Note_on_c, 0, 77, 0
2, 210220, Note_on_c, 0, 77, 78
2, 210309, Note_on_c, 0, 46, 0
2, 210313, Note_on_c, 0, 75, 71
2, 210319, Note_on_c, 0, 46, 72
2, 210385, Note_on_c, 0, 74, 79
2, 210428, Control_c, 0, 64, 0
2, 210435, Note_on_c, 0, 58, 0
2, 210436, Note_on_c, 0, 34, 0
2, 210436, Note_on_c, 0, 50, 0
2, 210436, Note_on_c, 0, 46, 0
2, 210436, Note_on_c, 0, 84, 0
2, 210436, Note_on_c, 0, 80, 0
2, 210436, Note_on_c, 0, 53, 0
2, 210437, Note_on_c, 0, 79, 0
2, 210437, Note_on_c, 0, 74, 0
2, 210437, Note_on_c, 0, 86, 0
2, 210437, Note_on_c, 0, 75, 0
2, 210437, Note_on_c, 0, 77, 0
2, 210437, Note_on_c, 0, 87, 0
2, 210438, Note_on_c, 0, 89, 0
2, 210447, Note_on_c, 0, 82, 0
2, 210494, Note_on_c, 0, 36, 85
2, 210495, Note_on_c, 0, 48, 92
2, 210496, Note_on_c, 0, 75, 82
2, 210562, Control_c, 0, 64, 127
2, 210586, Note_on_c, 0, 70, 85
2, 210661, Note_on_c, 0, 65, 68
2, 210746, Note_on_c, 0, 70, 0
2, 210757, Note_on_c, 0, 70, 81
2, 210839, Note_on_c, 0, 48, 0
2, 210849, Note_on_c, 0, 48, 76
2, 210849, Note_on_c, 0, 74, 75
2, 210851, Note_on_c, 0, 67, 87
2, 210854, Note_on_c, 0, 74, 0
2, 210938, Note_on_c, 0, 70, 0
2, 210944, Note_on_c, 0, 70, 79
2, 211023, Note_on_c, 0, 65, 0
2, 211028, Note_on_c, 0, 65, 62
2, 211107, Note_on_c, 0, 70, 0
2, 211114, Note_on_c, 0, 70, 73
2, 211200, Note_on_c, 0, 48, 0
2, 211200, Note_on_c, 0, 75, 0
2, 211206, Note_on_c, 0, 60, 77
2, 211208, Note_on_c, 0, 48, 72
2, 211209, Note_on_c, 0, 75, 89
2, 211210, Note_on_c, 0, 51, 72
2, 211238, Control_c, 0, 64, 0
2, 211284, Note_on_c, 0, 70, 0
2, 211292, Note_on_c, 0, 70, 73
2, 211322, Control_c, 0, 64, 127
2, 211368, Note_on_c, 0, 65, 0
2, 211375, Note_on_c, 0, 65, 75
2, 211376, Note_on_c, 0, 48, 0
2, 211376, Note_on_c, 0, 67, 0
2, 211380, Note_on_c, 0, 48, 67
2, 211383, Note_on_c, 0, 67, 72
2, 211453, Note_on_c, 0, 70, 0
2, 211464, Note_on_c, 0, 70, 72
2, 211545, Note_on_c, 0, 65, 0
2, 211551, Note_on_c, 0, 65, 81
2, 211553, Note_on_c, 0, 67, 0
2, 211560, Note_on_c, 0, 48, 0
2, 211561, Note_on_c, 0, 67, 88
2, 211564, Note_on_c, 0, 77, 81
2, 211565, Note_on_c, 0, 48, 72
2, 211645, Note_on_c, 0, 70, 0
2, 211649, Note_on_c, 0, 70, 70
2, 211729, Note_on_c, 0, 48, 0
2, 211737, Note_on_c, 0, 51, 0
2, 211737, Note_on_c, 0, 48, 72
2, 211744, Note_on_c, 0, 51, 69
2, 211745, Note_on_c, 0, 63, 75
2, 211747, Note_on_c, 0, 65, 0
2, 211768, Note_on_c, 0, 36, 0
2, 211776, Control_c, 0, 64, 0
2, 211799, Note_on_c, 0, 77, 0
2, 211806, Note_on_c, 0, 60, 0
2, 211806, Note_on_c, 0, 67, 0
2, 211814, Note_on_c, 0, 70, 0
2, 211824, Note_on_c, 0, 70, 64
2, 211860, Note_on_c, 0, 51, 0
2, 211898, Note_on_c, 0, 48, 0
2, 211909, Note_on_c, 0, 79, 83
2, 211910, Note_on_c, 0, 48, 87
2, 211911, Note_on_c, 0, 36, 88
2, 211913, Note_on_c, 0, 67, 79
2, 211998, Note_on_c, 0, 75, 0
2, 212004, Note_on_c, 0, 75, 78
2, 212067, Note_on_c, 0, 70, 0
2, 212078, Note_on_c, 0, 70, 82
2, 212079, Note_on_c, 0, 58, 81
2, 212098, Control_c, 0, 64, 127
2, 212183, Note_on_c, 0, 58, 0
2, 212183, Note_on_c, 0, 70, 0
2, 212190, Note_on_c, 0, 58, 69
2, 212193, Note_on_c, 0, 70, 69
2, 212259, Note_on_c, 0, 48, 0
2, 212266, Note_on_c, 0, 48, 74
2, 212275, Note_on_c, 0, 70, 0
2, 212279, Note_on_c, 0, 77, 80
2, 212281, Note_on_c, 0, 70, 74
2, 212367, Note_on_c, 0, 75, 0
2, 212372, Note_on_c, 0, 75, 71
2, 212436, Note_on_c, 0, 48, 0
2, 212436, Note_on_c, 0, 58, 0
2, 212436, Note_on_c, 0, 70, 0
2, 212443, Note_on_c, 0, 58, 82
2, 212444, Note_on_c, 0, 48, 69
2, 212447, Note_on_c, 0, 70, 82
2, 212544, Note_on_c, 0, 75, 0
2, 212550, Note_on_c, 0, 75, 68
2, 212613, Note_on_c, 0, 79, 0
2, 212619, Note_on_c, 0, 60, 89
2, 212622, Note_on_c, 0, 55, 77
2, 212624, Note_on_c, 0, 51, 79
2, 212624, Note_on_c, 0, 79, 83
2, 212630, Control_c, 0, 64, 0
2, 212682, Note_on_c, 0, 77, 0
2, 212697, Note_on_c, 0, 75, 0
2, 212707, Note_on_c, 0, 75, 88
2, 212789, Note_on_c, 0, 48, 0
2, 212789, Note_on_c, 0, 70, 0
2, 212795, Note_on_c, 0, 48, 67
2, 212797, Note_on_c, 0, 58, 0
2, 212800, Note_on_c, 0, 70, 68
2, 212801, Note_on_c, 0, 58, 73
2, 212828, Control_c, 0, 64, 127
2, 212874, Note_on_c, 0, 75, 0
2, 212878, Note_on_c, 0, 75, 63
2, 212943, Note_on_c, 0, 58, 0
2, 212949, Note_on_c, 0, 58, 61
2, 212966, Note_on_c, 0, 48, 0
2, 212970, Note_on_c, 0, 56, 77
2, 212971, Note_on_c, 0, 80, 86
2, 212971, Note_on_c, 0, 48, 73
2, 213043, Note_on_c, 0, 75, 0
2, 213048, Note_on_c, 0, 75, 69
2, 213127, Note_on_c, 0, 48, 0
2, 213127, Note_on_c, 0, 58, 0
2, 213135, Note_on_c, 0, 70, 0
2, 213138, Note_on_c, 0, 48, 69
2, 213138, Note_on_c, 0, 58, 75
2, 213139, Note_on_c, 0, 70, 73
2, 213219, Note_on_c, 0, 75, 0
2, 213224, Note_on_c, 0, 75, 73
2, 213292, Note_on_c, 0, 48, 0
2, 213298, Note_on_c, 0, 58, 0
2, 213300, Note_on_c, 0, 75, 0
2, 213303, Control_c, 0, 64, 0
2, 213304, Note_on_c, 0, 36, 0
2, 213304, Note_on_c, 0, 63, 0
2, 213307, Note_on_c, 0, 32, 91
2, 213308, Note_on_c, 0, 82, 93
2, 213308, Note_on_c, 0, 44, 88
2, 213312, Note_on_c, 0, 60, 0
2, 213312, Note_on_c, 0, 67, 0
2, 213319, Note_on_c, 0, 55, 0
2, 213319, Note_on_c, 0, 56, 0
2, 213342, Note_on_c, 0, 51, 0
2, 213350, Note_on_c, 0, 79, 0
2, 213358, Note_on_c, 0, 80, 0
2, 213394, Note_on_c, 0, 75, 71
2, 213434, Control_c, 0, 64, 127
2, 213473, Note_on_c, 0, 70, 0
2, 213476, Note_on_c, 0, 74, 77
2, 213480, Note_on_c, 0, 70, 71
2, 213573, Note_on_c, 0, 75, 0
2, 213576, Note_on_c, 0, 75, 57
2, 213657, Note_on_c, 0, 44, 0
2, 213662, Note_on_c, 0, 44, 80
2, 213667, Note_on_c, 0, 80, 80
2, 213688, Control_c, 0, 64, 0
2, 213757, Note_on_c, 0, 75, 0
2, 213763, Note_on_c, 0, 75, 68
2, 213772, Control_c, 0, 64, 127
2, 213826, Note_on_c, 0, 44, 0
2, 213826, Note_on_c, 0, 74, 0
2, 213834, Note_on_c, 0, 74, 77
2, 213836, Note_on_c, 0, 44, 66
2, 213903, Note_on_c, 0, 75, 0
2, 213914, Note_on_c, 0, 75, 83
2, 213995, Note_on_c, 0, 82, 0
2, 213999, Note_on_c, 0, 82, 93
2, 214003, Note_on_c, 0, 44, 0
2, 214004, Note_on_c, 0, 48, 79
2, 214007, Note_on_c, 0, 56, 80
2, 214010, Note_on_c, 0, 48, 0
2, 214013, Note_on_c, 0, 44, 78
2, 214014, Note_on_c, 0, 51, 72
2, 214080, Note_on_c, 0, 75, 0
2, 214085, Note_on_c, 0, 75, 72
2, 214089, Note_on_c, 0, 77, 63
2, 214156, Note_on_c, 0, 74, 0
2, 214166, Note_on_c, 0, 74, 79
2, 214172, Note_on_c, 0, 44, 0
2, 214182, Note_on_c, 0, 44, 65
2, 214264, Note_on_c, 0, 75, 0
2, 214268, Note_on_c, 0, 75, 57
2, 214356, Note_on_c, 0, 44, 0
2, 214360, Note_on_c, 0, 86, 92
2, 214361, Note_on_c, 0, 44, 79
2, 214448, Note_on_c, 0, 75, 0
2, 214452, Note_on_c, 0, 75, 69
2, 214533, Note_on_c, 0, 32, 0
2, 214533, Note_on_c, 0, 44, 0
2, 214540, Note_on_c, 0, 74, 0
2, 214540, Note_on_c, 0, 80, 0
2, 214543, Note_on_c, 0, 44, 65
2, 214543, Note_on_c, 0, 32, 72
2, 214546, Note_on_c, 0, 74, 75
2, 214551, Note_on_c, 0, 80, 63
2, 214634, Control_c, 0, 64, 0
2, 214638, Note_on_c, 0, 80, 0
2, 214640, Note_on_c, 0, 75, 0
2, 214656, Note_on_c, 0, 32, 0
2, 214663, Note_on_c, 0, 77, 0
2, 214679, Note_on_c, 0, 51, 0
2, 214679, Note_on_c, 0, 70, 0
2, 214686, Note_on_c, 0, 56, 0
2, 214694, Note_on_c, 0, 86, 0
2, 214702, Note_on_c, 0, 44, 0
2, 214706, Note_on_c, 0, 34, 86
2, 214706, Note_on_c, 0, 87, 94
2, 214709, Note_on_c, 0, 46, 89
2, 214732, Note_on_c, 0, 74, 0
2, 214786, Note_on_c, 0, 82, 0
2, 214793, Note_on_c, 0, 82, 81
2, 214840, Control_c, 0, 64, 127
2, 214878, Note_on_c, 0, 34, 0
2, 214878, Note_on_c, 0, 46, 0
2, 214885, Note_on_c, 0, 46, 78
2, 214889, Note_on_c, 0, 77, 76
2, 214889, Note_on_c, 0, 34, 73
2, 214963, Note_on_c, 0, 82, 0
2, 214970, Note_on_c, 0, 82, 74
2, 215047, Note_on_c, 0, 34, 0
2, 215051, Note_on_c, 0, 86, 91
2, 215053, Note_on_c, 0, 34, 63
2, 215055, Note_on_c, 0, 46, 0
2, 215060, Note_on_c, 0, 46, 77
2, 215139, Note_on_c, 0, 82, 0
2, 215150, Note_on_c, 0, 82, 81
2, 215216, Note_on_c, 0, 46, 0
2, 215216, Note_on_c, 0, 77, 0
2, 215223, Note_on_c, 0, 46, 72
2, 215224, Note_on_c, 0, 77, 78
2, 215226, Note_on_c, 0, 75, 81
2, 215308, Note_on_c, 0, 82, 0
2, 215314, Note_on_c, 0, 82, 78
2, 215385, Note_on_c, 0, 87, 0
2, 215393, Note_on_c, 0, 46, 0
2, 215396, Note_on_c, 0, 87, 95
2, 215398, Note_on_c, 0, 58, 87
2, 215401, Note_on_c, 0, 46, 83
2, 215404, Note_on_c, 0, 53, 72
2, 215405, Note_on_c, 0, 50, 75
2, 215413, Control_c, 0, 64, 0
2, 215470, Note_on_c, 0, 82, 0
2, 215470, Control_c, 0, 64, 127
2, 215480, Note_on_c, 0, 82, 87
2, 215539, Note_on_c, 0, 77, 0
2, 215547, Note_on_c, 0, 77, 83
2, 215569, Note_on_c, 0, 46, 0
2, 215569, Note_on_c, 0, 53, 0
2, 215577, Note_on_c, 0, 58, 0
2, 215580, Note_on_c, 0, 53, 62
2, 215581, Note_on_c, 0, 46, 70
2, 215583, Note_on_c, 0, 58, 62
2, 215631, Note_on_c, 0, 82, 0
2, 215641, Note_on_c, 0, 82, 87
2, 215731, Note_on_c, 0, 58, 0
2, 215738, Note_on_c, 0, 65, 71
2, 215738, Note_on_c, 0, 58, 58
2, 215738, Note_on_c, 0, 46, 0
2, 215739, Note_on_c, 0, 89, 77
2, 215741, Note_on_c, 0, 91, 87
2, 215748, Note_on_c, 0, 46, 60
2, 215792, Note_on_c, 0, 82, 0
2, 215803, Note_on_c, 0, 82, 85
2, 215900, Note_on_c, 0, 46, 0
2, 215900, Note_on_c, 0, 77, 0
2, 215904, Note_on_c, 0, 77, 80
2, 215904, Note_on_c, 0, 46, 80
2, 215907, Note_on_c, 0, 50, 0
2, 216020, Note_on_c, 0, 34, 0
2, 216022, Note_on_c, 0, 46, 0
2, 216022, Note_on_c, 0, 77, 0
2, 216023, Note_on_c, 0, 75, 0
2, 216023, Note_on_c, 0, 86, 0
2, 216023, Note_on_c, 0, 58, 0
2, 216024, Note_on_c, 0, 82, 0
2, 216030, Note_on_c, 0, 65, 0
2, 216030, Note_on_c, 0, 91, 0
2, 216030, Control_c, 0, 64, 0
2, 216038, Note_on_c, 0, 87, 0
2, 216046, Note_on_c, 0, 89, 0
2, 216053, Note_on_c, 0, 53, 0
2, 216074, Note_on_c, 0, 84, 96
2, 216077, Note_on_c, 0, 72, 101
2, 216081, Note_on_c, 0, 79, 92
2, 216081, Note_on_c, 0, 48, 91
2, 216082, Note_on_c, 0, 36, 94
2, 216086, Note_on_c, 0, 75, 84
2, 216245, Note_on_c, 0, 72, 0
2, 216250, Note_on_c, 0, 72, 90
2, 216261, Note_on_c, 0, 48, 0
2, 216272, Note_on_c, 0, 48, 49
2, 216284, Control_c, 0, 64, 127
2, 216430, Note_on_c, 0, 72, 0
2, 216430, Note_on_c, 0, 75, 0
2, 216430, Note_on_c, 0, 79, 0
2, 216434, Note_on_c, 0, 79, 80
2, 216434, Note_on_c, 0, 72, 86
2, 216436, Note_on_c, 0, 55, 62
2, 216440, Note_on_c, 0, 75, 59
2, 216606, Note_on_c, 0, 72, 0
2, 216606, Note_on_c, 0, 75, 0
2, 216606, Note_on_c, 0, 79, 0
2, 216609, Note_on_c, 0, 60, 67
2, 216615, Note_on_c, 0, 75, 80
2, 216615, Note_on_c, 0, 63, 64
2, 216616, Note_on_c, 0, 72, 92
2, 216616, Note_on_c, 0, 79, 82
2, 216619, Note_on_c, 0, 51, 52
2, 216622, Note_on_c, 0, 63, 0
2, 216629, Note_on_c, 0, 51, 0
2, 216721, Note_on_c, 0, 72, 0
2, 216726, Note_on_c, 0, 72, 82
2, 216783, Note_on_c, 0, 72, 0
2, 216783, Note_on_c, 0, 75, 0
2, 216783, Note_on_c, 0, 79, 0
2, 216785, Note_on_c, 0, 67, 92
2, 216791, Note_on_c, 0, 79, 77
2, 216791, Note_on_c, 0, 72, 80
2, 216792, Note_on_c, 0, 75, 71
2, 216952, Note_on_c, 0, 60, 0
2, 216960, Note_on_c, 0, 72, 0
2, 216960, Note_on_c, 0, 75, 0
2, 216960, Note_on_c, 0, 79, 0
2, 216960, Note_on_c, 0, 60, 82
2, 216966, Note_on_c, 0, 75, 77
2, 216969, Note_on_c, 0, 79, 79
2, 216969, Note_on_c, 0, 72, 82
2, 216970, Note_on_c, 0, 51, 58
2, 216975, Note_on_c, 0, 51, 0
2, 217113, Note_on_c, 0, 55, 0
2, 217119, Note_on_c, 0, 55, 75
2, 217136, Note_on_c, 0, 72, 0
2, 217136, Note_on_c, 0, 75, 0
2, 217140, Note_on_c, 0, 72, 81
2, 217141, Note_on_c, 0, 75, 88
2, 217144, Note_on_c, 0, 79, 0
2, 217149, Note_on_c, 0, 79, 66
2, 217152, Note_on_c, 0, 84, 0
2, 217297, Note_on_c, 0, 70, 85
2, 217297, Note_on_c, 0, 48, 0
2, 217297, Note_on_c, 0, 60, 0
2, 217297, Note_on_c, 0, 72, 0
2, 217297, Note_on_c, 0, 79, 0
2, 217303, Note_on_c, 0, 60, 63
2, 217305, Note_on_c, 0, 72, 81
2, 217307, Note_on_c, 0, 51, 65
2, 217308, Note_on_c, 0, 48, 66
2, 217308, Note_on_c, 0, 79, 69
2, 217311, Note_on_c, 0, 82, 66
2, 217414, Note_on_c, 0, 72, 0
2, 217415, Note_on_c, 0, 75, 0
2, 217415, Note_on_c, 0, 67, 0
2, 217417, Note_on_c, 0, 55, 0
2, 217417, Note_on_c, 0, 48, 0
2, 217417, Control_c, 0, 64, 0
2, 217418, Note_on_c, 0, 60, 0
2, 217428, Note_on_c, 0, 36, 0
2, 217443, Note_on_c, 0, 51, 0
2, 217443, Note_on_c, 0, 82, 0
2, 217479, Note_on_c, 0, 86, 92
2, 217482, Note_on_c, 0, 79, 0
2, 217485, Note_on_c, 0, 36, 83
2, 217486, Note_on_c, 0, 79, 74
2, 217487, Note_on_c, 0, 48, 82
2, 217487, Note_on_c, 0, 82, 83
2, 217487, Note_on_c, 0, 74, 85
2, 217643, Note_on_c, 0, 48, 0
2, 217651, Note_on_c, 0, 48, 71
2, 217658, Note_on_c, 0, 79, 0
2, 217659, Note_on_c, 0, 51, 65
2, 217669, Note_on_c, 0, 79, 63
2, 217674, Note_on_c, 0, 36, 0
2, 217681, Control_c, 0, 64, 127
2, 217692, Note_on_c, 0, 68, 69
2, 217827, Note_on_c, 0, 68, 0
2, 217831, Note_on_c, 0, 55, 71
2, 217831, Note_on_c, 0, 68, 87
2, 217835, Note_on_c, 0, 70, 0
2, 217835, Note_on_c, 0, 79, 0
2, 217841, Note_on_c, 0, 79, 72
2, 217841, Note_on_c, 0, 70, 70
2, 218004, Note_on_c, 0, 70, 0
2, 218004, Note_on_c, 0, 82, 0
2, 218006, Note_on_c, 0, 60, 75
2, 218012, Note_on_c, 0, 79, 0
2, 218012, Control_c, 0, 64, 0
2, 218015, Note_on_c, 0, 70, 76
2, 218015, Note_on_c, 0, 82, 76
2, 218016, Note_on_c, 0, 63, 62
2, 218017, Note_on_c, 0, 75, 72
2, 218022, Note_on_c, 0, 79, 72
2, 218096, Control_c, 0, 64, 127
2, 218173, Note_on_c, 0, 70, 0
2, 218173, Note_on_c, 0, 82, 0
2, 218181, Note_on_c, 0, 75, 0
2, 218181, Note_on_c, 0, 79, 0
2, 218182, Note_on_c, 0, 82, 90
2, 218184, Note_on_c, 0, 87, 94
2, 218184, Note_on_c, 0, 70, 75
2, 218186, Note_on_c, 0, 75, 85
2, 218186, Note_on_c, 0, 67, 81
2, 218187, Note_on_c, 0, 79, 87
2, 218227, Control_c, 0, 64, 0
2, 218311, Control_c, 0, 64, 127
2, 218350, Note_on_c, 0, 60, 0
2, 218356, Note_on_c, 0, 60, 65
2, 218357, Note_on_c, 0, 63, 0
2, 218357, Note_on_c, 0, 67, 0
2, 218357, Note_on_c, 0, 75, 0
2, 218357, Note_on_c, 0, 79, 0
2, 218357, Note_on_c, 0, 82, 0
2, 218357, Note_on_c, 0, 87, 0
2, 218362, Note_on_c, 0, 67, 77
2, 218362, Note_on_c, 0, 87, 72
2, 218363, Note_on_c, 0, 75, 71
2, 218363, Note_on_c, 0, 63, 56
2, 218365, Note_on_c, 0, 70, 0
2, 218367, Note_on_c, 0, 79, 77
2, 218368, Note_on_c, 0, 82, 76
2, 218371, Note_on_c, 0, 70, 62
2, 218380, Control_c, 0, 64, 0
2, 218465, Control_c, 0, 64, 127
2, 218519, Note_on_c, 0, 55, 0
2, 218523, Note_on_c, 0, 55, 79
2, 218534, Note_on_c, 0, 67, 0
2, 218534, Note_on_c, 0, 75, 0
2, 218542, Note_on_c, 0, 79, 0
2, 218542, Note_on_c, 0, 82, 0
2, 218542, Note_on_c, 0, 87, 0
2, 218542, Note_on_c, 0, 70, 0
2, 218545, Note_on_c, 0, 75, 79
2, 218545, Note_on_c, 0, 67, 77
2, 218546, Note_on_c, 0, 87, 63
2, 218548, Note_on_c, 0, 82, 86
2, 218552, Note_on_c, 0, 91, 74
2, 218553, Note_on_c, 0, 79, 74
2, 218557, Note_on_c, 0, 91, 0
2, 218603, Note_on_c, 0, 74, 0
2, 218688, Note_on_c, 0, 48, 0
2, 218691, Note_on_c, 0, 36, 66
2, 218692, Note_on_c, 0, 48, 66
2, 218703, Note_on_c, 0, 82, 0
2, 218709, Note_on_c, 0, 82, 83
2, 218780, Note_on_c, 0, 60, 0
2, 218780, Note_on_c, 0, 63, 0
2, 218780, Note_on_c, 0, 67, 0
2, 218780, Note_on_c, 0, 68, 0
2, 218787, Note_on_c, 0, 86, 0
2, 218795, Note_on_c, 0, 55, 0
2, 218803, Note_on_c, 0, 36, 0
2, 218803, Note_on_c, 0, 51, 0
2, 218818, Note_on_c, 0, 75, 0
2, 218826, Note_on_c, 0, 48, 0
2, 218826, Note_on_c, 0, 87, 0
2, 218829, Control_c, 0, 64, 0
2, 218833, Note_on_c, 0, 79, 0
2, 218891, Note_on_c, 0, 92, 97
2, 218892, Note_on_c, 0, 84, 90
2, 218894, Note_on_c, 0, 32, 86
2, 218895, Note_on_c, 0, 82, 0
2, 218896, Note_on_c, 0, 44, 82
2, 218898, Note_on_c, 0, 87, 79
2, 218901, Note_on_c, 0, 80, 79
2, 219064, Note_on_c, 0, 80, 0
2, 219064, Note_on_c, 0, 84, 0
2, 219072, Note_on_c, 0, 87, 0
2, 219072, Note_on_c, 0, 84, 81
2, 219072, Note_on_c, 0, 48, 57
2, 219075, Note_on_c, 0, 80, 84
2, 219076, Note_on_c, 0, 51, 53
2, 219078, Note_on_c, 0, 87, 79
2, 219141, Control_c, 0, 64, 127
2, 219240, Note_on_c, 0, 80, 0
2, 219240, Note_on_c, 0, 84, 0
2, 219240, Note_on_c, 0, 87, 0
2, 219240, Control_c, 0, 64, 0
2, 219244, Note_on_c, 0, 56, 73
2, 219244, Note_on_c, 0, 84, 82
2, 219246, Note_on_c, 0, 87, 76
2, 219247, Note_on_c, 0, 75, 77
2, 219251, Note_on_c, 0, 80, 77
2, 219256, Note_on_c, 0, 44, 0
2, 219325, Control_c, 0, 64, 127
2, 219417, Note_on_c, 0, 75, 0
2, 219417, Note_on_c, 0, 84, 0
2, 219417, Note_on_c, 0, 87, 0
2, 219423, Note_on_c, 0, 84, 72
2, 219424, Note_on_c, 0, 60, 53
2, 219425, Note_on_c, 0, 56, 0
2, 219425, Note_on_c, 0, 80, 0
2, 219428, Note_on_c, 0, 87, 73
2, 219428, Note_on_c, 0, 63, 66
2, 219428, Note_on_c, 0, 75, 78
2, 219431, Note_on_c, 0, 80, 68
2, 219432, Note_on_c, 0, 56, 48
2, 219479, Control_c, 0, 64, 0
2, 219563, Control_c, 0, 64, 127
2, 219594, Note_on_c, 0, 75, 0
2, 219594, Note_on_c, 0, 80, 0
2, 219594, Note_on_c, 0, 84, 0
2, 219601, Note_on_c, 0, 87, 0
2, 219603, Note_on_c, 0, 68, 77
2, 219604, Note_on_c, 0, 80, 80
2, 219605, Note_on_c, 0, 84, 78
2, 219605, Note_on_c, 0, 75, 74
2, 219611, Note_on_c, 0, 87, 78
2, 219763, Note_on_c, 0, 60, 0
2, 219763, Note_on_c, 0, 84, 0
2, 219770, Note_on_c, 0, 68, 0
2, 219770, Note_on_c, 0, 80, 0
2, 219770, Note_on_c, 0, 87, 0
2, 219771, Note_on_c, 0, 60, 67
2, 219774, Note_on_c, 0, 84, 74
2, 219775, Note_on_c, 0, 68, 73
2, 219775, Note_on_c, 0, 80, 72
2, 219781, Note_on_c, 0, 87, 72
2, 219788, Note_on_c, 0, 63, 0
2, 219939, Note_on_c, 0, 56, 0
2, 219943, Note_on_c, 0, 56, 74
2, 219947, Note_on_c, 0, 84, 0
2, 219955, Note_on_c, 0, 80, 0
2, 219956, Note_on_c, 0, 84, 66
2, 219966, Note_on_c, 0, 77, 56
2, 219966, Note_on_c, 0, 80, 64
2, 220124, Note_on_c, 0, 48, 0
2, 220124, Note_on_c, 0, 51, 0
2, 220124, Note_on_c, 0, 77, 0
2, 220124, Note_on_c, 0, 80, 0
2, 220124, Note_on_c, 0, 87, 0
2, 220125, Note_on_c, 0, 56, 0
2, 220125, Note_on_c, 0, 75, 0
2, 220126, Note_on_c, 0, 32, 0
2, 220126, Note_on_c, 0, 84, 0
2, 220126, Note_on_c, 0, 92, 0
2, 220128, Note_on_c, 0, 48, 65
2, 220129, Note_on_c, 0, 51, 64
2, 220134, Note_on_c, 0, 87, 80
2, 220135, Note_on_c, 0, 80, 71
2, 220139, Note_on_c, 0, 68, 0
2, 220147, Note_on_c, 0, 60, 0
2, 220193, Note_on_c, 0, 48, 0
2, 220224, Control_c, 0, 64, 0
2, 220254, Note_on_c, 0, 51, 0
2, 220295, Note_on_c, 0, 94, 100
2, 220298, Note_on_c, 0, 86, 87
2, 220303, Note_on_c, 0, 34, 73
2, 220304, Note_on_c, 0, 89, 79
2, 220304, Note_on_c, 0, 82, 89
2, 220304, Note_on_c, 0, 46, 81
2, 220477, Note_on_c, 0, 46, 0
2, 220477, Note_on_c, 0, 82, 0
2, 220486, Note_on_c, 0, 50, 72
2, 220487, Note_on_c, 0, 46, 71
2, 220487, Note_on_c, 0, 53, 72
2, 220488, Note_on_c, 0, 94, 0
2, 220488, Note_on_c, 0, 82, 81
2, 220488, Note_on_c, 0, 87, 0
2, 220489, Note_on_c, 0, 34, 0
2, 220492, Note_on_c, 0, 77, 62
2, 220492, Note_on_c, 0, 80, 0
2, 220631, Control_c, 0, 64, 127
2, 220646, Note_on_c, 0, 53, 0
2, 220649, Note_on_c, 0, 58, 80
2, 220653, Note_on_c, 0, 53, 58
2, 220654, Note_on_c, 0, 82, 0
2, 220654, Note_on_c, 0, 86, 0
2, 220662, Note_on_c, 0, 86, 75
2, 220663, Note_on_c, 0, 82, 69
2, 220669, Note_on_c, 0, 89, 0
2, 220673, Note_on_c, 0, 89, 60
2, 220815, Note_on_c, 0, 58, 0
2, 220820, Note_on_c, 0, 58, 72
2, 220823, Note_on_c, 0, 53, 0
2, 220830, Note_on_c, 0, 82, 0
2, 220830, Note_on_c, 0, 86, 0
2, 220830, Note_on_c, 0, 89, 0
2, 220831, Note_on_c, 0, 62, 67
2, 220832, Note_on_c, 0, 65, 70
2, 220834, Note_on_c, 0, 53, 64
2, 220838, Note_on_c, 0, 77, 0
2, 220840, Note_on_c, 0, 86, 71
2, 220841, Note_on_c, 0, 82, 78
2, 220841, Note_on_c, 0, 89, 74
2, 220841, Note_on_c, 0, 63, 67
2, 220845, Note_on_c, 0, 77, 67
2, 220846, Note_on_c, 0, 63, 0
2, 221007, Note_on_c, 0, 82, 0
2, 221011, Note_on_c, 0, 70, 83
2, 221014, Note_on_c, 0, 82, 85
2, 221015, Note_on_c, 0, 86, 0
2, 221015, Note_on_c, 0, 89, 0
2, 221019, Note_on_c, 0, 86, 77
2, 221019, Note_on_c, 0, 89, 84
2, 221153, Note_on_c, 0, 65, 0
2, 221164, Note_on_c, 0, 65, 69
2, 221176, Note_on_c, 0, 62, 0
2, 221180, Note_on_c, 0, 62, 68
2, 221184, Note_on_c, 0, 82, 0
2, 221184, Note_on_c, 0, 86, 0
2, 221184, Note_on_c, 0, 89, 0
2, 221188, Note_on_c, 0, 82, 82
2, 221189, Note_on_c, 0, 89, 70
2, 221190, Note_on_c, 0, 86, 73
2, 221337, Note_on_c, 0, 58, 0
2, 221343, Note_on_c, 0, 58, 79
2, 221345, Note_on_c, 0, 65, 0
2, 221350, Note_on_c, 0, 63, 68
2, 221351, Note_on_c, 0, 65, 72
2, 221391, Note_on_c, 0, 77, 0
2, 221429, Note_on_c, 0, 63, 0
2, 221521, Note_on_c, 0, 50, 0
2, 221526, Note_on_c, 0, 50, 72
2, 221537, Note_on_c, 0, 89, 0
2, 221543, Note_on_c, 0, 89, 55
2, 221625, Note_on_c, 0, 70, 0
2, 221625, Note_on_c, 0, 50, 0
2, 221626, Control_c, 0, 64, 0
2, 221626, Note_on_c, 0, 89, 0
2, 221627, Note_on_c, 0, 65, 0
2, 221637, Note_on_c, 0, 46, 0
2, 221637, Note_on_c, 0, 53, 0
2, 221637, Note_on_c, 0, 62, 0
2, 221637, Note_on_c, 0, 86, 0
2, 221644, Note_on_c, 0, 58, 0
2, 221644, Note_on_c, 0, 82, 0
2, 221704, Note_on_c, 0, 78, 92
2, 221705, Note_on_c, 0, 47, 84
2, 221708, Note_on_c, 0, 35, 83
2, 221709, Note_on_c, 0, 75, 80
2, 221710, Note_on_c, 0, 71, 74
2, 221752, Control_c, 0, 64, 127
2, 221880, Note_on_c, 0, 51, 69
2, 221887, Note_on_c, 0, 66, 76
2, 221889, Note_on_c, 0, 63, 62
2, 221901, Note_on_c, 0, 59, 56
2, 222044, Note_on_c, 0, 59, 0
2, 222044, Note_on_c, 0, 66, 0
2, 222049, Note_on_c, 0, 66, 78
2, 222053, Note_on_c, 0, 54, 70
2, 222054, Note_on_c, 0, 59, 62
2, 222228, Note_on_c, 0, 35, 0
2, 222228, Note_on_c, 0, 47, 0
2, 222228, Note_on_c, 0, 59, 0
2, 222228, Note_on_c, 0, 63, 0
2, 222232, Note_on_c, 0, 47, 69
2, 222233, Note_on_c, 0, 63, 66
2, 222234, Note_on_c, 0, 35, 60
2, 222235, Note_on_c, 0, 59, 68
2, 222404, Note_on_c, 0, 85, 88
2, 222405, Note_on_c, 0, 66, 0
2, 222405, Note_on_c, 0, 75, 0
2, 222405, Note_on_c, 0, 78, 0
2, 222409, Note_on_c, 0, 66, 79
2, 222412, Note_on_c, 0, 68, 77
2, 222415, Note_on_c, 0, 78, 78
2, 222416, Note_on_c, 0, 75, 75
2, 222574, Note_on_c, 0, 47, 0
2, 222574, Note_on_c, 0, 59, 0
2, 222574, Note_on_c, 0, 63, 0
2, 222574, Note_on_c, 0, 78, 0
2, 222578, Note_on_c, 0, 59, 65
2, 222579, Note_on_c, 0, 47, 63
2, 222581, Note_on_c, 0, 75, 0
2, 222585, Note_on_c, 0, 63, 55
2, 222585, Note_on_c, 0, 78, 77
2, 222586, Note_on_c, 0, 75, 61
2, 222758, Note_on_c, 0, 54, 0
2, 222764, Note_on_c, 0, 54, 72
2, 222766, Note_on_c, 0, 78, 0
2, 222776, Note_on_c, 0, 70, 78
2, 222776, Note_on_c, 0, 78, 67
2, 222850, Note_on_c, 0, 70, 0
2, 222854, Note_on_c, 0, 70, 76
2, 222919, Note_on_c, 0, 51, 0
2, 222926, Note_on_c, 0, 51, 78
2, 222927, Note_on_c, 0, 59, 0
2, 222927, Note_on_c, 0, 78, 0
2, 222937, Note_on_c, 0, 78, 71
2, 222937, Note_on_c, 0, 59, 68
2, 222942, Note_on_c, 0, 70, 0
2, 222951, Note_on_c, 0, 70, 65
2, 223075, Control_c, 0, 64, 0
2, 223083, Note_on_c, 0, 59, 0
2, 223083, Note_on_c, 0, 47, 0
2, 223083, Note_on_c, 0, 75, 0
2, 223084, Note_on_c, 0, 66, 0
2, 223084, Note_on_c, 0, 68, 0
2, 223084, Note_on_c, 0, 63, 0
2, 223084, Note_on_c, 0, 70, 0
2, 223084, Note_on_c, 0, 78, 0
2, 223086, Note_on_c, 0, 85, 0
2, 223096, Note_on_c, 0, 35, 0
2, 223096, Note_on_c, 0, 54, 0
2, 223096, Note_on_c, 0, 71, 0
2, 223104, Note_on_c, 0, 51, 0
2, 223114, Note_on_c, 0, 49, 81
2, 223115, Note_on_c, 0, 80, 83
2, 223116, Note_on_c, 0, 37, 79
2, 223119, Note_on_c, 0, 73, 75
2, 223120, Note_on_c, 0, 77, 82
2, 223123, Note_on_c, 0, 65, 85
2, 223180, Control_c, 0, 64, 127
2, 223280, Note_on_c, 0, 49, 0
2, 223280, Note_on_c, 0, 65, 0
2, 223283, Note_on_c, 0, 53, 73
2, 223285, Note_on_c, 0, 49, 60
2, 223289, Note_on_c, 0, 65, 71
2, 223464, Note_on_c, 0, 73, 0
2, 223464, Note_on_c, 0, 77, 0
2, 223468, Note_on_c, 0, 56, 72
2, 223470, Note_on_c, 0, 77, 78
2, 223471, Note_on_c, 0, 73, 74
2, 223474, Note_on_c, 0, 66, 89
2, 223656, Note_on_c, 0, 65, 0
2, 223661, Note_on_c, 0, 65, 64
2, 223665, Note_on_c, 0, 61, 80
2, 223668, Note_on_c, 0, 58, 64
2, 223810, Note_on_c, 0, 73, 0
2, 223810, Note_on_c, 0, 77, 0
2, 223814, Note_on_c, 0, 77, 81
2, 223816, Note_on_c, 0, 73, 80
2, 223818, Note_on_c, 0, 61, 0
2, 223818, Note_on_c, 0, 68, 83
2, 223827, Note_on_c, 0, 61, 75
2, 223987, Note_on_c, 0, 58, 0
2, 223987, Note_on_c, 0, 61, 0
2, 223987, Note_on_c, 0, 73, 0
2, 223994, Note_on_c, 0, 58, 79
2, 223994, Note_on_c, 0, 65, 0
2, 223995, Note_on_c, 0, 61, 67
2, 223997, Note_on_c, 0, 73, 64
2, 224002, Note_on_c, 0, 65, 57
2, 224003, Note_on_c, 0, 66, 0
2, 224005, Note_on_c, 0, 70, 66
2, 224148, Note_on_c, 0, 56, 0
2, 224153, Note_on_c, 0, 53, 0
2, 224154, Note_on_c, 0, 56, 66
2, 224163, Note_on_c, 0, 68, 0
2, 224170, Note_on_c, 0, 68, 63
2, 224171, Note_on_c, 0, 58, 0
2, 224171, Note_on_c, 0, 73, 0
2, 224176, Note_on_c, 0, 58, 56
2, 224176, Note_on_c, 0, 73, 59
2, 224309, Note_on_c, 0, 58, 0
2, 224313, Note_on_c, 0, 58, 71
2, 224317, Note_on_c, 0, 49, 0
2, 224328, Note_on_c, 0, 49, 61
2, 224348, Note_on_c, 0, 68, 0
2, 224348, Note_on_c, 0, 73, 0
2, 224358, Note_on_c, 0, 68, 73
2, 224359, Note_on_c, 0, 73, 66
2, 224371, Note_on_c, 0, 37, 0
2, 224375, Note_on_c, 0, 56, 0
2, 224375, Note_on_c, 0, 77, 0
2, 224376, Note_on_c, 0, 70, 0
2, 224378, Note_on_c, 0, 80, 0
2, 224394, Note_on_c, 0, 65, 0
2, 224401, Note_on_c, 0, 61, 0
2, 224417, Note_on_c, 0, 49, 0
2, 224463, Note_on_c, 0, 58, 0
2, 224517, Note_on_c, 0, 73, 0
2, 224522, Note_on_c, 0, 44, 83
2, 224524, Note_on_c, 0, 72, 86
2, 224524, Note_on_c, 0, 68, 0
2, 224526, Note_on_c, 0, 75, 87
2, 224526, Note_on_c, 0, 32, 80
2, 224529, Note_on_c, 0, 68, 82
2, 224539, Control_c, 0, 64, 0
2, 224701, Note_on_c, 0, 44, 0
2, 224701, Note_on_c, 0, 68, 0
2, 224701, Note_on_c, 0, 72, 0
2, 224706, Note_on_c, 0, 44, 61
2, 224706, Note_on_c, 0, 72, 75
2, 224708, Note_on_c, 0, 56, 66
2, 224712, Note_on_c, 0, 68, 69
2, 224885, Note_on_c, 0, 72, 0
2, 224891, Note_on_c, 0, 72, 82
2, 224901, Note_on_c, 0, 68, 0
2, 224905, Note_on_c, 0, 68, 69
2, 224912, Note_on_c, 0, 63, 76
2, 225047, Note_on_c, 0, 44, 0
2, 225052, Note_on_c, 0, 44, 65
2, 225054, Note_on_c, 0, 68, 0
2, 225054, Note_on_c, 0, 72, 0
2, 225060, Note_on_c, 0, 68, 60
2, 225061, Note_on_c, 0, 72, 79
2, 225236, Note_on_c, 0, 60, 68
2, 225239, Note_on_c, 0, 68, 0
2, 225239, Note_on_c, 0, 72, 0
2, 225244, Note_on_c, 0, 72, 74
2, 225245, Note_on_c, 0, 68, 65
2, 225408, Note_on_c, 0, 63, 0
2, 225415, Note_on_c, 0, 63, 55
2, 225461, Control_c, 0, 64, 127
2, 225592, Note_on_c, 0, 68, 0
2, 225598, Note_on_c, 0, 68, 55
2, 225784, Note_on_c, 0, 75, 0
2, 225793, Note_on_c, 0, 75, 65
2, 225953, Note_on_c, 0, 63, 0
2, 225964, Note_on_c, 0, 63, 57
2, 225964, Note_on_c, 0, 94, 89
2, 225968, Note_on_c, 0, 82, 79
2, 225999, Control_c, 0, 64, 0
2, 226122, Control_c, 0, 64, 127
2, 226325, Note_on_c, 0, 92, 81
2, 226326, Note_on_c, 0, 80, 69
2, 226683, Note_on_c, 0, 91, 81
2, 226687, Note_on_c, 0, 79, 69
2, 227039, Note_on_c, 0, 87, 76
2, 227043, Note_on_c, 0, 75, 0
2, 227054, Note_on_c, 0, 75, 60
2, 227205, Note_on_c, 0, 75, 0
2, 227214, Note_on_c, 0, 75, 79
2, 227217, Note_on_c, 0, 63, 0
2, 227389, Note_on_c, 0, 47, 68
2, 227392, Note_on_c, 0, 78, 85
2, 227404, Note_on_c, 0, 75, 0
2, 227409, Note_on_c, 0, 71, 56
2, 227409, Note_on_c, 0, 75, 57
2, 227412, Note_on_c, 0, 32, 0
2, 227412, Note_on_c, 0, 94, 0
2, 227414, Note_on_c, 0, 79, 0
2, 227415, Note_on_c, 0, 87, 0
2, 227415, Note_on_c, 0, 91, 0
2, 227415, Note_on_c, 0, 82, 0
2, 227416, Note_on_c, 0, 68, 0
2, 227416, Note_on_c, 0, 56, 0
2, 227417, Note_on_c, 0, 60, 0
2, 227417, Note_on_c, 0, 80, 0
2, 227418, Note_on_c, 0, 44, 0
2, 227422, Control_c, 0, 64, 0
2, 227427, Note_on_c, 0, 72, 0
2, 227427, Note_on_c, 0, 92, 0
2, 227520, Control_c, 0, 64, 127
2, 227562, Note_on_c, 0, 54, 62
2, 227748, Note_on_c, 0, 59, 62
2, 227919, Note_on_c, 0, 80, 80
2, 227934, Note_on_c, 0, 71, 0
2, 227941, Note_on_c, 0, 63, 50
2, 227941, Note_on_c, 0, 71, 62
2, 228272, Note_on_c, 0, 59, 0
2, 228278, Note_on_c, 0, 59, 60
2, 228449, Note_on_c, 0, 71, 0
2, 228452, Note_on_c, 0, 82, 84
2, 228457, Note_on_c, 0, 71, 79
2, 228480, Note_on_c, 0, 75, 0
2, 228484, Note_on_c, 0, 75, 45
2, 228618, Note_on_c, 0, 54, 0
2, 228625, Note_on_c, 0, 54, 63
2, 228801, Note_on_c, 0, 85, 85
2, 228810, Note_on_c, 0, 80, 0
2, 228811, Note_on_c, 0, 49, 69
2, 228817, Note_on_c, 0, 80, 73
2, 228819, Note_on_c, 0, 73, 75
2, 228821, Note_on_c, 0, 71, 0
2, 228821, Note_on_c, 0, 59, 0
2, 228821, Note_on_c, 0, 78, 0
2, 228822, Note_on_c, 0, 54, 0
2, 228822, Note_on_c, 0, 77, 66
2, 228822, Note_on_c, 0, 75, 0
2, 228822, Note_on_c, 0, 63, 0
2, 228823, Note_on_c, 0, 47, 0
2, 228823, Note_on_c, 0, 82, 0
2, 228826, Control_c, 0, 64, 0
2, 228917, Control_c, 0, 64, 127
2, 228969, Note_on_c, 0, 56, 61
2, 229148, Note_on_c, 0, 77, 0
2, 229152, Note_on_c, 0, 77, 82
2, 229152, Control_c, 0, 64, 0
2, 229155, Note_on_c, 0, 61, 63
2, 229217, Control_c, 0, 64, 127
2, 229332, Note_on_c, 0, 73, 0
2, 229343, Note_on_c, 0, 73, 82
2, 229344, Note_on_c, 0, 65, 62
2, 229685, Note_on_c, 0, 73, 0
2, 229693, Note_on_c, 0, 61, 0
2, 229697, Note_on_c, 0, 73, 77
2, 229697, Note_on_c, 0, 61, 64
2, 229873, Note_on_c, 0, 70, 78
2, 230008, Note_on_c, 0, 80, 0
2, 230039, Note_on_c, 0, 56, 0
2, 230048, Note_on_c, 0, 56, 66
2, 230050, Note_on_c, 0, 68, 78
2, 230194, Control_c, 0, 64, 0
2, 230208, Note_on_c, 0, 49, 0
2, 230213, Note_on_c, 0, 77, 0
2, 230214, Note_on_c, 0, 85, 0
2, 230217, Note_on_c, 0, 73, 0
2, 230219, Note_on_c, 0, 65, 0
2, 230219, Note_on_c, 0, 70, 0
2, 230220, Note_on_c, 0, 61, 0
2, 230228, Note_on_c, 0, 51, 71
2, 230284, Control_c, 0, 64, 127
2, 230384, Note_on_c, 0, 68, 0
2, 230389, Note_on_c, 0, 68, 70
2, 230406, Note_on_c, 0, 58, 60
2, 230579, Note_on_c, 0, 75, 74
2, 230589, Note_on_c, 0, 63, 51
2, 230607, Note_on_c, 0, 56, 0
2, 230781, Note_on_c, 0, 65, 71
2, 231132, Note_on_c, 0, 67, 62
2, 231321, Note_on_c, 0, 63, 0
2, 231331, Note_on_c, 0, 63, 50
2, 231482, Note_on_c, 0, 58, 0
2, 231490, Note_on_c, 0, 58, 55
2, 231644, Note_on_c, 0, 51, 0
2, 231650, Note_on_c, 0, 51, 62
2, 231663, Control_c, 0, 64, 0
2, 231680, Note_on_c, 0, 63, 0
2, 231682, Note_on_c, 0, 68, 0
2, 231685, Note_on_c, 0, 67, 0
2, 231685, Note_on_c, 0, 58, 0
2, 231686, Note_on_c, 0, 65, 0
2, 231744, Control_c, 0, 64, 127
2, 231839, Note_on_c, 0, 58, 57
2, 232017, Note_on_c, 0, 65, 52
2, 232193, Note_on_c, 0, 70, 58
2, 232358, Note_on_c, 0, 75, 0
2, 232367, Note_on_c, 0, 75, 60
2, 233120, Note_on_c, 0, 47, 56
2, 233126, Note_on_c, 0, 75, 0
2, 233130, Note_on_c, 0, 75, 67
2, 233172, Control_c, 0, 64, 0
2, 233203, Note_on_c, 0, 58, 0
2, 233272, Note_on_c, 0, 65, 0
2, 233296, Note_on_c, 0, 54, 60
2, 233379, Control_c, 0, 64, 127
2, 233482, Note_on_c, 0, 66, 69
2, 233482, Note_on_c, 0, 59, 63
2, 233525, Note_on_c, 0, 70, 0
2, 233661, Note_on_c, 0, 71, 78
2, 233661, Note_on_c, 0, 63, 56
2, 234009, Note_on_c, 0, 75, 0
2, 234017, Note_on_c, 0, 75, 79
2, 234362, Note_on_c, 0, 51, 0
2, 234374, Note_on_c, 0, 82, 80
2, 234559, Note_on_c, 0, 49, 69
2, 234564, Note_on_c, 0, 80, 78
2, 234574, Note_on_c, 0, 71, 0
2, 234574, Note_on_c, 0, 54, 0
2, 234574, Note_on_c, 0, 47, 0
2, 234574, Note_on_c, 0, 66, 0
2, 234574, Note_on_c, 0, 63, 0
2, 234574, Note_on_c, 0, 59, 0
2, 234577, Note_on_c, 0, 75, 0
2, 234580, Control_c, 0, 64, 0
2, 234716, Control_c, 0, 64, 127
2, 234721, Note_on_c, 0, 56, 68
2, 234769, Note_on_c, 0, 82, 0
2, 234913, Note_on_c, 0, 73, 75
2, 234915, Note_on_c, 0, 61, 45
2, 235084, Note_on_c, 0, 80, 0
2, 235095, Note_on_c, 0, 80, 79
2, 235096, Note_on_c, 0, 65, 62
2, 235461, Note_on_c, 0, 73, 0
2, 235465, Note_on_c, 0, 73, 73
2, 235814, Note_on_c, 0, 80, 0
2, 235824, Note_on_c, 0, 80, 82
2, 236006, Note_on_c, 0, 80, 0
2, 236013, Note_on_c, 0, 80, 82
2, 236017, Note_on_c, 0, 51, 73
2, 236028, Note_on_c, 0, 73, 0
2, 236029, Control_c, 0, 64, 0
2, 236030, Note_on_c, 0, 61, 0
2, 236030, Note_on_c, 0, 56, 0
2, 236031, Note_on_c, 0, 65, 0
2, 236031, Note_on_c, 0, 49, 0
2, 236160, Control_c, 0, 64, 127
2, 236177, Note_on_c, 0, 79, 78
2, 236187, Note_on_c, 0, 58, 63
2, 236360, Note_on_c, 0, 75, 76
2, 236379, Note_on_c, 0, 63, 46
2, 236546, Note_on_c, 0, 65, 53
2, 236547, Note_on_c, 0, 70, 73
2, 236907, Note_on_c, 0, 77, 71
2, 237120, Note_on_c, 0, 51, 0
2, 237273, Note_on_c, 0, 70, 0
2, 237278, Note_on_c, 0, 70, 61
2, 237446, Note_on_c, 0, 51, 68
2, 237450, Note_on_c, 0, 75, 0
2, 237454, Control_c, 0, 64, 0
2, 237459, Note_on_c, 0, 75, 71
2, 237467, Note_on_c, 0, 63, 0
2, 237469, Note_on_c, 0, 79, 0
2, 237469, Note_on_c, 0, 70, 0
2, 237469, Note_on_c, 0, 58, 0
2, 237469, Note_on_c, 0, 77, 0
2, 237469, Note_on_c, 0, 65, 0
2, 237480, Note_on_c, 0, 80, 0
2, 237588, Control_c, 0, 64, 127
2, 237630, Note_on_c, 0, 70, 64
2, 237631, Note_on_c, 0, 58, 62
2, 237788, Note_on_c, 0, 75, 0
2, 237799, Note_on_c, 0, 75, 73
2, 237806, Note_on_c, 0, 63, 48
2, 237983, Note_on_c, 0, 65, 55
2, 237983, Note_on_c, 0, 82, 79
2, 238353, Note_on_c, 0, 77, 66
2, 238702, Note_on_c, 0, 70, 0
2, 238706, Note_on_c, 0, 70, 63
2, 238878, Note_on_c, 0, 82, 0
2, 238887, Note_on_c, 0, 82, 86
2, 238894, Note_on_c, 0, 47, 72
2, 238905, Note_on_c, 0, 58, 0
2, 238905, Control_c, 0, 64, 0
2, 238906, Note_on_c, 0, 65, 0
2, 238909, Note_on_c, 0, 77, 0
2, 238955, Note_on_c, 0, 75, 0
2, 239055, Control_c, 0, 64, 127
2, 239075, Note_on_c, 0, 54, 59
2, 239076, Note_on_c, 0, 66, 58
2, 239132, Note_on_c, 0, 63, 0
2, 239263, Note_on_c, 0, 59, 56
2, 239263, Note_on_c, 0, 71, 69
2, 239458, Note_on_c, 0, 87, 87
2, 239458, Note_on_c, 0, 63, 56
2, 239808, Note_on_c, 0, 82, 0
2, 239817, Note_on_c, 0, 82, 73
2, 240000, Note_on_c, 0, 51, 0
2, 240000, Note_on_c, 0, 66, 0
2, 240188, Note_on_c, 0, 75, 65
2, 240395, Note_on_c, 0, 49, 65
2, 240396, Note_on_c, 0, 80, 76
2, 240402, Control_c, 0, 64, 0
2, 240403, Note_on_c, 0, 87, 0
2, 240403, Note_on_c, 0, 82, 0
2, 240404, Note_on_c, 0, 47, 0
2, 240404, Note_on_c, 0, 71, 0
2, 240404, Note_on_c, 0, 59, 0
2, 240404, Note_on_c, 0, 70, 0
2, 240405, Note_on_c, 0, 63, 0
2, 240405, Note_on_c, 0, 75, 0
2, 240422, Note_on_c, 0, 54, 0
2, 240568, Control_c, 0, 64, 127
2, 240574, Note_on_c, 0, 56, 60
2, 240609, Note_on_c, 0, 68, 57
2, 240787, Note_on_c, 0, 61, 60
2, 240817, Note_on_c, 0, 73, 43
2, 241010, Note_on_c, 0, 85, 78
2, 241032, Note_on_c, 0, 65, 55
2, 241046, Control_c, 0, 64, 0
2, 241282, Control_c, 0, 64, 127
2, 241489, Note_on_c, 0, 80, 0
2, 241500, Note_on_c, 0, 80, 62
2, 242004, Note_on_c, 0, 73, 0
2, 242010, Note_on_c, 0, 73, 56
2, 242367, Note_on_c, 0, 51, 55
2, 242393, Control_c, 0, 64, 0
2, 242407, Note_on_c, 0, 49, 0
2, 242407, Note_on_c, 0, 85, 0
2, 242407, Note_on_c, 0, 80, 0
2, 242408, Note_on_c, 0, 56, 0
2, 242409, Note_on_c, 0, 68, 0
2, 242409, Note_on_c, 0, 65, 0
2, 242409, Note_on_c, 0, 61, 0
2, 242580, Control_c, 0, 64, 127
2, 242611, Note_on_c, 0, 51, 0
2, 242653, Note_on_c, 0, 58, 49
2, 242860, Note_on_c, 0, 63, 56
2, 243096, Note_on_c, 0, 70, 68
2, 243332, Note_on_c, 0, 75, 64
2, 243616, Note_on_c, 0, 77, 66
2, 243671, Note_on_c, 0, 73, 0
2, 243898, Note_on_c, 0, 82, 70
2, 244268, Note_on_c, 0, 87, 72
2, 244531, Note_on_c, 0, 70, 0
2, 244540, Note_on_c, 0, 70, 55
2, 244542, Note_on_c, 0, 79, 43
2, 244638, Note_on_c, 0, 82, 0
2, 244649, Note_on_c, 0, 82, 62
2, 244738, Note_on_c, 0, 87, 0
2, 244746, Note_on_c, 0, 87, 65
2, 244921, Note_on_c, 0, 94, 95
2, 244935, Note_on_c, 0, 79, 0
2, 244945, Note_on_c, 0, 77, 0
2, 244961, Control_c, 0, 64, 0
2, 244976, Note_on_c, 0, 75, 0
2, 245399, Control_c, 0, 64, 127
2, 247265, Note_on_c, 0, 58, 0
2, 247464, Note_on_c, 0, 63, 0
2, 247680, Note_on_c, 0, 70, 0
2, 247680, Note_on_c, 0, 82, 0
2, 247680, Note_on_c, 0, 87, 0
2, 247680, Note_on_c, 0, 94, 0
2, 247680, Control_c, 0, 64, 0
2, 253117, Control_c, 0, 64, 127
2, 253409, Control_c, 0, 64, 0
2, 253509, Control_c, 0, 64, 127
2, 254549, Control_c, 0, 64, 0
2, 254922, Control_c, 0, 64, 127
2, 255360, Control_c, 0, 64, 0
2, 255361, End_track
0, 0, End_of_file
