0, 0, Header, 1, 2, 384
1, 0, Start_track
1, 0, Tempo, 500000
1, 0, Time_signature, 4, 2, 24, 8
1, 1, End_track
2, 0, Start_track
2, 1582, Control_c, 0, 64, 127
2, 1640, Note_on_c, 0, 58, 50
2, 1758, Note_on_c, 0, 65, 63
2, 1840, Note_on_c, 0, 67, 63
2, 1931, Note_on_c, 0, 72, 73
2, 1952, Note_on_c, 0, 96, 86
2, 1953, Note_on_c, 0, 84, 71
2, 2161, Note_on_c, 0, 91, 66
2, 2337, Note_on_c, 0, 89, 66
2, 2519, Note_on_c, 0, 84, 0
2, 2524, Note_on_c, 0, 84, 58
2, 2703, Note_on_c, 0, 96, 0
2, 2712, Note_on_c, 0, 96, 77
2, 2910, Note_on_c, 0, 91, 0
2, 2916, Note_on_c, 0, 91, 64
2, 3087, Note_on_c, 0, 89, 0
2, 3098, Note_on_c, 0, 89, 66
2, 3210, Note_on_c, 0, 65, 0
2, 3216, Note_on_c, 0, 65, 63
2, 3294, Note_on_c, 0, 67, 0
2, 3294, Note_on_c, 0, 84, 0
2, 3298, Note_on_c, 0, 67, 59
2, 3299, Note_on_c, 0, 84, 61
2, 3377, Note_on_c, 0, 70, 73
2, 3456, Note_on_c, 0, 72, 0
2, 3462, Note_on_c, 0, 72, 66
2, 3486, Note_on_c, 0, 84, 0
2, 3486, Note_on_c, 0, 96, 0
2, 3491, Note_on_c, 0, 96, 82
2, 3492, Note_on_c, 0, 84, 67
2, 3555, Note_on_c, 0, 70, 0
2, 3561, Note_on_c, 0, 70, 71
2, 3655, Note_on_c, 0, 72, 0
2, 3655, Note_on_c, 0, 91, 0
2, 3659, Note_on_c, 0, 91, 73
2, 3665, Note_on_c, 0, 72, 59
2, 3741, Note_on_c, 0, 77, 77
2, 3824, Note_on_c, 0, 89, 0
2, 3834, Note_on_c, 0, 89, 77
2, 3858, Note_on_c, 0, 79, 70
2, 3939, Note_on_c, 0, 72, 0
2, 3950, Note_on_c, 0, 72, 67
2, 3993, Note_on_c, 0, 84, 0
2, 4004, Note_on_c, 0, 84, 65
2, 4024, Note_on_c, 0, 77, 0
2, 4029, Note_on_c, 0, 77, 72
2, 4116, Note_on_c, 0, 82, 73
2, 4193, Note_on_c, 0, 96, 0
2, 4200, Note_on_c, 0, 84, 0
2, 4203, Note_on_c, 0, 96, 84
2, 4205, Note_on_c, 0, 84, 80
2, 4293, Note_on_c, 0, 82, 0
2, 4300, Note_on_c, 0, 82, 60
2, 4369, Note_on_c, 0, 79, 0
2, 4369, Note_on_c, 0, 91, 0
2, 4380, Note_on_c, 0, 79, 83
2, 4381, Note_on_c, 0, 91, 76
2, 4492, Note_on_c, 0, 77, 0
2, 4497, Note_on_c, 0, 77, 76
2, 4554, Note_on_c, 0, 89, 0
2, 4562, Note_on_c, 0, 89, 72
2, 4569, Note_on_c, 0, 72, 0
2, 4578, Note_on_c, 0, 72, 51
2, 4738, Note_on_c, 0, 84, 0
2, 4749, Note_on_c, 0, 84, 66
2, 4872, Note_on_c, 0, 55, 52
2, 4892, Note_on_c, 0, 58, 0
2, 4899, Note_on_c, 0, 58, 55
2, 4911, Note_on_c, 0, 67, 0
2, 4911, Note_on_c, 0, 70, 0
2, 4911, Note_on_c, 0, 91, 0
2, 4911, Note_on_c, 0, 65, 0
2, 4911, Note_on_c, 0, 82, 0
2, 4911, Note_on_c, 0, 77, 0
2, 4911, Control_c, 0, 64, 0
2, 4911, Note_on_c, 0, 72, 0
2, 4911, Note_on_c, 0, 84, 0
2, 4912, Note_on_c, 0, 79, 0
2, 4912, Note_on_c, 0, 89, 0
2, 4918, Note_on_c, 0, 60, 65
2, 4960, Note_on_c, 0, 67, 63
2, 4961, Note_on_c, 0, 96, 0
2, 4965, Note_on_c, 0, 96, 89
2, 4966, Note_on_c, 0, 84, 74
2, 4984, Control_c, 0, 64, 127
2, 5144, Note_on_c, 0, 91, 74
2, 5327, Note_on_c, 0, 89, 74
2, 5521, Note_on_c, 0, 84, 0
2, 5531, Note_on_c, 0, 84, 62
2, 5713, Note_on_c, 0, 84, 0
2, 5713, Note_on_c, 0, 96, 0
2, 5720, Note_on_c, 0, 96, 84
2, 5724, Note_on_c, 0, 84, 65
2, 5905, Note_on_c, 0, 91, 0
2, 5912, Note_on_c, 0, 91, 63
2, 6090, Note_on_c, 0, 89, 0
2, 6097, Note_on_c, 0, 89, 69
2, 6197, Note_on_c, 0, 67, 0
2, 6204, Note_on_c, 0, 67, 59
2, 6282, Note_on_c, 0, 84, 0
2, 6293, Note_on_c, 0, 84, 62
2, 6293, Note_on_c, 0, 70, 72
2, 6404, Note_on_c, 0, 72, 65
2, 6481, Note_on_c, 0, 84, 0
2, 6481, Note_on_c, 0, 96, 0
2, 6484, Note_on_c, 0, 74, 73
2, 6491, Note_on_c, 0, 84, 70
2, 6491, Note_on_c, 0, 96, 82
2, 6574, Note_on_c, 0, 70, 0
2, 6584, Note_on_c, 0, 70, 72
2, 6643, Note_on_c, 0, 74, 0
2, 6649, Note_on_c, 0, 74, 72
2, 6650, Note_on_c, 0, 91, 0
2, 6657, Note_on_c, 0, 91, 76
2, 6767, Note_on_c, 0, 77, 72
2, 6827, Note_on_c, 0, 89, 0
2, 6838, Note_on_c, 0, 89, 77
2, 6843, Note_on_c, 0, 79, 83
2, 6950, Note_on_c, 0, 74, 0
2, 6955, Note_on_c, 0, 74, 67
2, 6996, Note_on_c, 0, 84, 0
2, 7004, Note_on_c, 0, 77, 0
2, 7006, Note_on_c, 0, 84, 66
2, 7014, Note_on_c, 0, 77, 77
2, 7121, Note_on_c, 0, 82, 77
2, 7203, Note_on_c, 0, 84, 0
2, 7203, Note_on_c, 0, 96, 0
2, 7207, Note_on_c, 0, 96, 80
2, 7213, Note_on_c, 0, 84, 81
2, 7303, Note_on_c, 0, 82, 0
2, 7313, Note_on_c, 0, 82, 66
2, 7372, Note_on_c, 0, 79, 0
2, 7372, Note_on_c, 0, 91, 0
2, 7379, Note_on_c, 0, 91, 77
2, 7382, Note_on_c, 0, 79, 76
2, 7495, Note_on_c, 0, 77, 0
2, 7505, Note_on_c, 0, 77, 69
2, 7549, Note_on_c, 0, 74, 0
2, 7557, Note_on_c, 0, 74, 74
2, 7587, Note_on_c, 0, 89, 0
2, 7595, Note_on_c, 0, 84, 0
2, 7598, Note_on_c, 0, 89, 72
2, 7604, Note_on_c, 0, 84, 54
2, 7756, Note_on_c, 0, 84, 0
2, 7767, Note_on_c, 0, 84, 68
2, 7850, Note_on_c, 0, 53, 62
2, 7885, Note_on_c, 0, 60, 0
2, 7885, Note_on_c, 0, 74, 0
2, 7885, Note_on_c, 0, 79, 0
2, 7886, Note_on_c, 0, 70, 0
2, 7886, Note_on_c, 0, 84, 0
2, 7886, Note_on_c, 0, 89, 0
2, 7886, Note_on_c, 0, 67, 0
2, 7887, Note_on_c, 0, 96, 0
2, 7887, Note_on_c, 0, 72, 0
2, 7887, Note_on_c, 0, 77, 0
2, 7887, Note_on_c, 0, 91, 0
2, 7888, Note_on_c, 0, 55, 0
2, 7891, Note_on_c, 0, 57, 63
2, 7892, Control_c, 0, 64, 0
2, 7895, Note_on_c, 0, 82, 0
2, 7902, Note_on_c, 0, 58, 0
2, 7936, Note_on_c, 0, 60, 69
2, 7968, Note_on_c, 0, 64, 72
2, 7977, Note_on_c, 0, 96, 85
2, 7987, Control_c, 0, 64, 127
2, 8152, Note_on_c, 0, 91, 70
2, 8339, Note_on_c, 0, 89, 73
2, 8541, Note_on_c, 0, 84, 61
2, 8709, Note_on_c, 0, 84, 0
2, 8709, Note_on_c, 0, 96, 0
2, 8715, Note_on_c, 0, 96, 83
2, 8719, Note_on_c, 0, 84, 64
2, 8893, Note_on_c, 0, 91, 0
2, 8901, Note_on_c, 0, 91, 67
2, 9070, Note_on_c, 0, 89, 0
2, 9076, Note_on_c, 0, 89, 73
2, 9189, Note_on_c, 0, 65, 65
2, 9269, Note_on_c, 0, 84, 0
2, 9278, Note_on_c, 0, 84, 62
2, 9281, Note_on_c, 0, 67, 66
2, 9359, Note_on_c, 0, 69, 63
2, 9458, Note_on_c, 0, 72, 73
2, 9461, Note_on_c, 0, 84, 0
2, 9461, Note_on_c, 0, 96, 0
2, 9467, Note_on_c, 0, 96, 84
2, 9471, Note_on_c, 0, 84, 69
2, 9553, Note_on_c, 0, 69, 0
2, 9563, Note_on_c, 0, 69, 63
2, 9630, Note_on_c, 0, 72, 0
2, 9630, Note_on_c, 0, 91, 0
2, 9641, Note_on_c, 0, 91, 76
2, 9641, Note_on_c, 0, 72, 67
2, 9749, Note_on_c, 0, 76, 75
2, 9822, Note_on_c, 0, 89, 0
2, 9826, Note_on_c, 0, 77, 80
2, 9826, Note_on_c, 0, 89, 77
2, 9899, Note_on_c, 0, 72, 0
2, 9904, Note_on_c, 0, 72, 66
2, 9976, Note_on_c, 0, 84, 0
2, 9984, Note_on_c, 0, 84, 67
2, 9999, Note_on_c, 0, 77, 0
2, 10008, Note_on_c, 0, 77, 68
2, 10080, Note_on_c, 0, 79, 81
2, 10168, Note_on_c, 0, 84, 0
2, 10172, Note_on_c, 0, 84, 86
2, 10176, Note_on_c, 0, 96, 0
2, 10187, Note_on_c, 0, 96, 89
2, 10268, Note_on_c, 0, 79, 0
2, 10278, Note_on_c, 0, 79, 80
2, 10352, Note_on_c, 0, 77, 0
2, 10359, Note_on_c, 0, 77, 78
2, 10360, Note_on_c, 0, 91, 0
2, 10369, Note_on_c, 0, 91, 72
2, 10460, Note_on_c, 0, 76, 0
2, 10470, Note_on_c, 0, 76, 69
2, 10552, Note_on_c, 0, 72, 0
2, 10556, Note_on_c, 0, 72, 69
2, 10567, Note_on_c, 0, 89, 0
2, 10578, Note_on_c, 0, 89, 73
2, 10752, Note_on_c, 0, 84, 0
2, 10756, Note_on_c, 0, 84, 63
2, 10867, Note_on_c, 0, 53, 0
2, 10870, Note_on_c, 0, 58, 68
2, 10875, Note_on_c, 0, 53, 54
2, 10901, Note_on_c, 0, 69, 0
2, 10901, Note_on_c, 0, 64, 0
2, 10902, Note_on_c, 0, 84, 0
2, 10902, Note_on_c, 0, 65, 0
2, 10902, Note_on_c, 0, 77, 0
2, 10902, Note_on_c, 0, 76, 0
2, 10902, Note_on_c, 0, 72, 0
2, 10902, Note_on_c, 0, 67, 0
2, 10902, Note_on_c, 0, 57, 0
2, 10902, Note_on_c, 0, 96, 0
2, 10902, Note_on_c, 0, 89, 0
2, 10902, Note_on_c, 0, 79, 0
2, 10905, Control_c, 0, 64, 0
2, 10913, Note_on_c, 0, 60, 0
2, 10917, Note_on_c, 0, 60, 65
2, 10928, Note_on_c, 0, 91, 0
2, 10971, Note_on_c, 0, 96, 83
2, 10975, Note_on_c, 0, 62, 65
2, 11013, Control_c, 0, 64, 127
2, 11152, Note_on_c, 0, 91, 73
2, 11331, Note_on_c, 0, 89, 72
2, 11332, Note_on_c, 0, 101, 66
2, 11528, Note_on_c, 0, 84, 62
2, 11712, Note_on_c, 0, 84, 0
2, 11712, Note_on_c, 0, 96, 0
2, 11712, Note_on_c, 0, 101, 0
2, 11716, Note_on_c, 0, 96, 80
2, 11719, Note_on_c, 0, 84, 63
2, 11896, Note_on_c, 0, 91, 0
2, 11907, Note_on_c, 0, 91, 67
2, 12096, Note_on_c, 0, 89, 0
2, 12100, Note_on_c, 0, 89, 67
2, 12201, Note_on_c, 0, 65, 63
2, 12280, Note_on_c, 0, 84, 0
2, 12287, Note_on_c, 0, 84, 57
2, 12291, Note_on_c, 0, 70, 71
2, 12395, Note_on_c, 0, 72, 63
2, 12456, Note_on_c, 0, 96, 0
2, 12464, Note_on_c, 0, 84, 0
2, 12467, Note_on_c, 0, 74, 75
2, 12467, Note_on_c, 0, 96, 86
2, 12468, Note_on_c, 0, 84, 71
2, 12556, Note_on_c, 0, 53, 0
2, 12572, Note_on_c, 0, 70, 0
2, 12576, Note_on_c, 0, 70, 72
2, 12633, Note_on_c, 0, 74, 0
2, 12633, Note_on_c, 0, 91, 0
2, 12643, Note_on_c, 0, 74, 78
2, 12643, Note_on_c, 0, 91, 74
2, 12750, Note_on_c, 0, 76, 77
2, 12833, Note_on_c, 0, 89, 0
2, 12838, Note_on_c, 0, 89, 76
2, 12840, Note_on_c, 0, 77, 80
2, 12933, Note_on_c, 0, 74, 0
2, 12937, Note_on_c, 0, 74, 77
2, 13002, Note_on_c, 0, 84, 0
2, 13009, Note_on_c, 0, 77, 0
2, 13012, Note_on_c, 0, 84, 70
2, 13016, Note_on_c, 0, 77, 76
2, 13125, Note_on_c, 0, 82, 76
2, 13201, Note_on_c, 0, 84, 0
2, 13201, Note_on_c, 0, 96, 0
2, 13211, Note_on_c, 0, 96, 83
2, 13212, Note_on_c, 0, 84, 79
2, 13294, Note_on_c, 0, 82, 0
2, 13299, Note_on_c, 0, 82, 68
2, 13393, Note_on_c, 0, 91, 0
2, 13398, Note_on_c, 0, 79, 80
2, 13399, Note_on_c, 0, 91, 77
2, 13440, Note_on_c, 0, 58, 0
2, 13440, Note_on_c, 0, 60, 0
2, 13470, Note_on_c, 0, 77, 0
2, 13481, Note_on_c, 0, 77, 73
2, 13562, Note_on_c, 0, 74, 0
2, 13572, Note_on_c, 0, 74, 78
2, 13608, Note_on_c, 0, 89, 0
2, 13614, Note_on_c, 0, 89, 73
2, 13616, Note_on_c, 0, 84, 0
2, 13620, Note_on_c, 0, 84, 54
2, 13770, Note_on_c, 0, 84, 0
2, 13780, Note_on_c, 0, 84, 64
2, 13880, Note_on_c, 0, 53, 48
2, 13907, Note_on_c, 0, 57, 64
2, 13920, Note_on_c, 0, 74, 0
2, 13920, Note_on_c, 0, 82, 0
2, 13920, Note_on_c, 0, 84, 0
2, 13920, Note_on_c, 0, 65, 0
2, 13920, Note_on_c, 0, 77, 0
2, 13920, Note_on_c, 0, 70, 0
2, 13920, Note_on_c, 0, 79, 0
2, 13920, Note_on_c, 0, 89, 0
2, 13920, Note_on_c, 0, 91, 0
2, 13921, Note_on_c, 0, 62, 0
2, 13921, Note_on_c, 0, 72, 0
2, 13921, Note_on_c, 0, 76, 0
2, 13921, Note_on_c, 0, 96, 0
2, 13924, Control_c, 0, 64, 0
2, 13979, Note_on_c, 0, 60, 68
2, 13981, Note_on_c, 0, 96, 84
2, 13982, Note_on_c, 0, 84, 67
2, 14054, Control_c, 0, 64, 127
2, 14165, Note_on_c, 0, 91, 73
2, 14363, Note_on_c, 0, 101, 64
2, 14364, Note_on_c, 0, 89, 69
2, 14369, Note_on_c, 0, 101, 0
2, 14545, Note_on_c, 0, 84, 0
2, 14555, Note_on_c, 0, 84, 59
2, 14722, Note_on_c, 0, 84, 0
2, 14722, Note_on_c, 0, 96, 0
2, 14728, Note_on_c, 0, 96, 81
2, 14732, Note_on_c, 0, 84, 63
2, 14914, Note_on_c, 0, 91, 0
2, 14925, Note_on_c, 0, 91, 57
2, 15083, Note_on_c, 0, 89, 0
2, 15092, Note_on_c, 0, 89, 72
2, 15221, Note_on_c, 0, 60, 0
2, 15225, Note_on_c, 0, 60, 64
2, 15283, Note_on_c, 0, 84, 0
2, 15289, Note_on_c, 0, 84, 60
2, 15332, Note_on_c, 0, 65, 66
2, 15403, Note_on_c, 0, 67, 68
2, 15486, Note_on_c, 0, 72, 72
2, 15498, Note_on_c, 0, 84, 0
2, 15498, Note_on_c, 0, 96, 0
2, 15506, Note_on_c, 0, 96, 85
2, 15509, Note_on_c, 0, 84, 73
2, 15575, Note_on_c, 0, 65, 0
2, 15579, Note_on_c, 0, 65, 68
2, 15636, Note_on_c, 0, 67, 0
2, 15647, Note_on_c, 0, 67, 74
2, 15682, Note_on_c, 0, 91, 0
2, 15688, Note_on_c, 0, 91, 77
2, 15690, Note_on_c, 0, 84, 0
2, 15697, Note_on_c, 0, 84, 62
2, 15728, Note_on_c, 0, 72, 0
2, 15740, Note_on_c, 0, 72, 73
2, 15830, Note_on_c, 0, 77, 80
2, 15874, Note_on_c, 0, 89, 0
2, 15882, Note_on_c, 0, 89, 76
2, 15928, Note_on_c, 0, 72, 0
2, 15934, Note_on_c, 0, 72, 66
2, 16020, Note_on_c, 0, 77, 0
2, 16020, Note_on_c, 0, 84, 0
2, 16025, Note_on_c, 0, 77, 68
2, 16030, Note_on_c, 0, 84, 66
2, 16122, Note_on_c, 0, 79, 74
2, 16212, Note_on_c, 0, 84, 0
2, 16212, Note_on_c, 0, 96, 0
2, 16216, Note_on_c, 0, 84, 84
2, 16218, Note_on_c, 0, 96, 97
2, 16320, Note_on_c, 0, 79, 0
2, 16323, Note_on_c, 0, 79, 68
2, 16381, Note_on_c, 0, 77, 0
2, 16386, Note_on_c, 0, 77, 73
2, 16404, Note_on_c, 0, 91, 0
2, 16414, Note_on_c, 0, 91, 70
2, 16496, Note_on_c, 0, 72, 0
2, 16501, Note_on_c, 0, 72, 76
2, 16504, Note_on_c, 0, 53, 0
2, 16596, Note_on_c, 0, 89, 0
2, 16601, Note_on_c, 0, 89, 72
2, 16619, Note_on_c, 0, 67, 0
2, 16624, Note_on_c, 0, 67, 58
2, 16696, Note_on_c, 0, 65, 0
2, 16704, Note_on_c, 0, 65, 70
2, 16826, Note_on_c, 0, 60, 0
2, 16835, Note_on_c, 0, 60, 69
2, 17126, Note_on_c, 0, 96, 0
2, 17131, Note_on_c, 0, 96, 77
2, 17134, Note_on_c, 0, 84, 0
2, 17139, Note_on_c, 0, 84, 58
2, 17175, Note_on_c, 0, 41, 40
2, 17280, Note_on_c, 0, 57, 0
2, 20731, Note_on_c, 0, 67, 0
2, 20734, Note_on_c, 0, 60, 0
2, 20763, Control_c, 0, 64, 0
2, 20766, Note_on_c, 0, 91, 0
2, 20774, Note_on_c, 0, 65, 0
2, 20774, Note_on_c, 0, 77, 0
2, 20782, Note_on_c, 0, 79, 0
2, 20789, Note_on_c, 0, 41, 0
2, 20789, Note_on_c, 0, 72, 0
2, 20805, Note_on_c, 0, 89, 0
2, 20820, Note_on_c, 0, 84, 0
2, 20881, Note_on_c, 0, 96, 0
2, 21285, Note_on_c, 0, 81, 76
2, 21411, Control_c, 0, 64, 127
2, 21452, Note_on_c, 0, 84, 74
2, 21456, Note_on_c, 0, 72, 61
2, 21458, Note_on_c, 0, 53, 44
2, 21461, Note_on_c, 0, 60, 50
2, 21461, Note_on_c, 0, 45, 49
2, 21875, Note_on_c, 0, 77, 72
2, 22247, Note_on_c, 0, 76, 73
2, 22617, Note_on_c, 0, 77, 0
2, 22629, Note_on_c, 0, 77, 77
2, 23002, Note_on_c, 0, 79, 82
2, 23384, Note_on_c, 0, 57, 56
2, 23759, Note_on_c, 0, 67, 60
2, 23769, Note_on_c, 0, 60, 0
2, 23773, Note_on_c, 0, 65, 56
2, 23774, Note_on_c, 0, 60, 51
2, 24138, Note_on_c, 0, 77, 0
2, 24143, Note_on_c, 0, 77, 84
2, 24537, Note_on_c, 0, 60, 0
2, 24537, Note_on_c, 0, 84, 0
2, 24545, Note_on_c, 0, 53, 0
2, 24546, Note_on_c, 0, 84, 79
2, 24547, Note_on_c, 0, 46, 51
2, 24548, Note_on_c, 0, 60, 52
2, 24556, Note_on_c, 0, 53, 48
2, 24565, Note_on_c, 0, 72, 0
2, 24566, Note_on_c, 0, 65, 0
2, 24567, Note_on_c, 0, 67, 0
2, 24567, Note_on_c, 0, 45, 0
2, 24568, Note_on_c, 0, 81, 0
2, 24568, Note_on_c, 0, 77, 0
2, 24569, Note_on_c, 0, 76, 0
2, 24571, Control_c, 0, 64, 0
2, 24706, Control_c, 0, 64, 127
2, 24960, Note_on_c, 0, 79, 0
2, 25323, Note_on_c, 0, 62, 61
2, 25699, Note_on_c, 0, 77, 80
2, 26094, Note_on_c, 0, 86, 96
2, 26492, Note_on_c, 0, 65, 64
2, 26844, Note_on_c, 0, 64, 74
2, 26846, Note_on_c, 0, 58, 69
2, 26849, Note_on_c, 0, 57, 0
2, 27210, Note_on_c, 0, 62, 0
2, 27218, Note_on_c, 0, 62, 69
2, 27609, Note_on_c, 0, 53, 0
2, 27609, Note_on_c, 0, 60, 0
2, 27613, Note_on_c, 0, 53, 55
2, 27614, Note_on_c, 0, 45, 58
2, 27614, Note_on_c, 0, 60, 63
2, 27650, Control_c, 0, 64, 0
2, 27652, Note_on_c, 0, 58, 0
2, 27652, Note_on_c, 0, 62, 0
2, 27653, Note_on_c, 0, 65, 0
2, 27653, Note_on_c, 0, 77, 0
2, 27653, Note_on_c, 0, 46, 0
2, 27653, Note_on_c, 0, 64, 0
2, 27654, Note_on_c, 0, 86, 0
2, 27678, Note_on_c, 0, 84, 0
2, 28018, Note_on_c, 0, 77, 74
2, 28047, Control_c, 0, 64, 127
2, 28393, Note_on_c, 0, 76, 76
2, 28761, Note_on_c, 0, 77, 0
2, 28771, Note_on_c, 0, 77, 83
2, 29149, Note_on_c, 0, 79, 88
2, 29535, Note_on_c, 0, 57, 52
2, 29913, Note_on_c, 0, 67, 59
2, 29917, Note_on_c, 0, 65, 58
2, 29921, Note_on_c, 0, 60, 0
2, 29929, Note_on_c, 0, 60, 52
2, 30297, Note_on_c, 0, 77, 0
2, 30303, Note_on_c, 0, 77, 80
2, 30687, Note_on_c, 0, 81, 82
2, 30704, Note_on_c, 0, 53, 0
2, 30709, Note_on_c, 0, 53, 44
2, 30710, Note_on_c, 0, 46, 46
2, 30714, Note_on_c, 0, 70, 62
2, 30715, Note_on_c, 0, 74, 62
2, 30720, Control_c, 0, 64, 0
2, 30723, Note_on_c, 0, 45, 0
2, 30724, Note_on_c, 0, 57, 0
2, 30724, Note_on_c, 0, 76, 0
2, 30724, Note_on_c, 0, 67, 0
2, 30724, Note_on_c, 0, 65, 0
2, 30724, Note_on_c, 0, 77, 0
2, 30724, Note_on_c, 0, 60, 0
2, 30724, Note_on_c, 0, 79, 0
2, 30888, Control_c, 0, 64, 127
2, 31471, Note_on_c, 0, 61, 61
2, 31847, Note_on_c, 0, 82, 69
2, 32025, Note_on_c, 0, 81, 0
2, 32031, Note_on_c, 0, 81, 69
2, 32236, Note_on_c, 0, 79, 80
2, 32240, Note_on_c, 0, 70, 0
2, 32243, Note_on_c, 0, 55, 50
2, 32244, Note_on_c, 0, 48, 48
2, 32247, Note_on_c, 0, 70, 61
2, 32274, Control_c, 0, 64, 0
2, 32278, Note_on_c, 0, 61, 0
2, 32279, Note_on_c, 0, 82, 0
2, 32281, Note_on_c, 0, 81, 0
2, 32283, Note_on_c, 0, 74, 0
2, 32286, Note_on_c, 0, 46, 0
2, 32294, Note_on_c, 0, 53, 0
2, 32440, Control_c, 0, 64, 127
2, 33019, Note_on_c, 0, 60, 63
2, 33413, Note_on_c, 0, 77, 84
2, 33799, Note_on_c, 0, 60, 0
2, 33803, Note_on_c, 0, 46, 56
2, 33808, Note_on_c, 0, 60, 56
2, 33811, Note_on_c, 0, 58, 55
2, 33829, Control_c, 0, 64, 0
2, 33834, Note_on_c, 0, 48, 0
2, 33835, Note_on_c, 0, 79, 0
2, 33836, Note_on_c, 0, 55, 0
2, 33868, Note_on_c, 0, 70, 0
2, 33937, Control_c, 0, 64, 127
2, 34192, Note_on_c, 0, 53, 70
2, 34555, Note_on_c, 0, 86, 91
2, 34567, Note_on_c, 0, 77, 0
2, 34578, Note_on_c, 0, 77, 67
2, 34579, Note_on_c, 0, 82, 69
2, 34585, Note_on_c, 0, 74, 62
2, 34961, Note_on_c, 0, 57, 75
2, 35320, Note_on_c, 0, 58, 0
2, 35325, Note_on_c, 0, 58, 77
2, 35335, Control_c, 0, 64, 0
2, 35336, Note_on_c, 0, 46, 0
2, 35339, Note_on_c, 0, 53, 0
2, 35339, Note_on_c, 0, 60, 0
2, 35340, Note_on_c, 0, 57, 0
2, 35412, Control_c, 0, 64, 127
2, 35707, Note_on_c, 0, 62, 83
2, 36084, Note_on_c, 0, 84, 93
2, 36093, Note_on_c, 0, 76, 72
2, 36095, Note_on_c, 0, 64, 77
2, 36096, Note_on_c, 0, 72, 81
2, 36134, Note_on_c, 0, 74, 0
2, 36470, Note_on_c, 0, 65, 86
2, 36641, Note_on_c, 0, 82, 0
2, 36646, Note_on_c, 0, 82, 96
2, 36651, Note_on_c, 0, 70, 90
2, 36856, Note_on_c, 0, 84, 0
2, 36860, Note_on_c, 0, 84, 88
2, 36870, Note_on_c, 0, 79, 79
2, 36871, Note_on_c, 0, 72, 0
2, 36875, Note_on_c, 0, 45, 63
2, 36876, Note_on_c, 0, 72, 74
2, 36893, Note_on_c, 0, 64, 0
2, 36894, Note_on_c, 0, 62, 0
2, 36896, Note_on_c, 0, 65, 0
2, 36898, Control_c, 0, 64, 0
2, 36898, Note_on_c, 0, 70, 0
2, 36899, Note_on_c, 0, 82, 0
2, 36902, Note_on_c, 0, 58, 0
2, 36902, Note_on_c, 0, 86, 0
2, 36910, Note_on_c, 0, 77, 0
2, 36917, Note_on_c, 0, 76, 0
2, 37017, Control_c, 0, 64, 127
2, 37264, Note_on_c, 0, 52, 63
2, 37624, Note_on_c, 0, 79, 0
2, 37631, Note_on_c, 0, 79, 84
2, 37647, Note_on_c, 0, 72, 0
2, 37651, Note_on_c, 0, 76, 63
2, 37652, Note_on_c, 0, 67, 58
2, 37652, Note_on_c, 0, 72, 55
2, 38033, Note_on_c, 0, 60, 68
2, 38400, Note_on_c, 0, 84, 0
2, 38405, Note_on_c, 0, 77, 74
2, 38415, Note_on_c, 0, 72, 0
2, 38419, Note_on_c, 0, 72, 54
2, 38420, Note_on_c, 0, 68, 57
2, 38424, Note_on_c, 0, 44, 55
2, 38426, Note_on_c, 0, 65, 52
2, 38452, Control_c, 0, 64, 0
2, 38459, Note_on_c, 0, 52, 0
2, 38460, Note_on_c, 0, 76, 0
2, 38461, Note_on_c, 0, 45, 0
2, 38461, Note_on_c, 0, 60, 0
2, 38462, Note_on_c, 0, 79, 0
2, 38463, Note_on_c, 0, 67, 0
2, 38607, Control_c, 0, 64, 127
2, 39202, Note_on_c, 0, 53, 50
2, 39576, Note_on_c, 0, 79, 69
2, 39583, Note_on_c, 0, 67, 59
2, 39982, Note_on_c, 0, 82, 71
2, 39984, Note_on_c, 0, 74, 65
2, 39989, Note_on_c, 0, 77, 0
2, 39993, Note_on_c, 0, 77, 60
2, 39996, Note_on_c, 0, 43, 45
2, 40002, Note_on_c, 0, 68, 0
2, 40002, Note_on_c, 0, 79, 0
2, 40002, Note_on_c, 0, 70, 56
2, 40002, Note_on_c, 0, 53, 0
2, 40003, Note_on_c, 0, 67, 0
2, 40004, Note_on_c, 0, 65, 0
2, 40005, Note_on_c, 0, 44, 0
2, 40006, Control_c, 0, 64, 0
2, 40012, Note_on_c, 0, 72, 0
2, 40128, Control_c, 0, 64, 127
2, 40370, Note_on_c, 0, 81, 70
2, 40376, Note_on_c, 0, 69, 57
2, 40734, Note_on_c, 0, 77, 0
2, 40740, Note_on_c, 0, 77, 67
2, 40750, Note_on_c, 0, 74, 0
2, 40754, Note_on_c, 0, 74, 50
2, 40754, Note_on_c, 0, 65, 50
2, 40757, Note_on_c, 0, 70, 0
2, 40766, Note_on_c, 0, 70, 59
2, 41107, Control_c, 0, 64, 0
2, 41114, Note_on_c, 0, 81, 0
2, 41122, Note_on_c, 0, 55, 49
2, 41134, Note_on_c, 0, 82, 0
2, 41187, Control_c, 0, 64, 127
2, 41233, Note_on_c, 0, 69, 0
2, 41501, Note_on_c, 0, 58, 62
2, 41848, Note_on_c, 0, 55, 0
2, 41878, Note_on_c, 0, 57, 62
2, 42274, Note_on_c, 0, 53, 59
2, 42643, Note_on_c, 0, 79, 76
2, 42657, Note_on_c, 0, 67, 60
2, 43027, Note_on_c, 0, 48, 48
2, 43029, Note_on_c, 0, 82, 70
2, 43038, Note_on_c, 0, 77, 0
2, 43045, Note_on_c, 0, 79, 0
2, 43045, Note_on_c, 0, 57, 0
2, 43045, Note_on_c, 0, 58, 0
2, 43046, Note_on_c, 0, 43, 0
2, 43046, Note_on_c, 0, 70, 0
2, 43046, Note_on_c, 0, 65, 0
2, 43047, Note_on_c, 0, 67, 0
2, 43047, Note_on_c, 0, 74, 0
2, 43047, Note_on_c, 0, 53, 0
2, 43047, Note_on_c, 0, 77, 65
2, 43049, Control_c, 0, 64, 0
2, 43051, Note_on_c, 0, 70, 61
2, 43056, Note_on_c, 0, 73, 60
2, 43176, Control_c, 0, 64, 127
2, 43432, Note_on_c, 0, 53, 51
2, 43814, Note_on_c, 0, 55, 58
2, 44199, Note_on_c, 0, 58, 53
2, 44201, Note_on_c, 0, 81, 74
2, 44375, Note_on_c, 0, 82, 0
2, 44380, Note_on_c, 0, 82, 73
2, 44602, Note_on_c, 0, 84, 70
2, 44609, Note_on_c, 0, 72, 62
2, 44609, Note_on_c, 0, 60, 57
2, 44620, Note_on_c, 0, 77, 0
2, 44624, Note_on_c, 0, 77, 52
2, 44639, Note_on_c, 0, 73, 0
2, 44639, Control_c, 0, 64, 0
2, 44640, Note_on_c, 0, 53, 0
2, 44641, Note_on_c, 0, 70, 0
2, 44641, Note_on_c, 0, 81, 0
2, 44641, Note_on_c, 0, 82, 0
2, 44751, Control_c, 0, 64, 127
2, 45058, Note_on_c, 0, 48, 0
2, 45430, Note_on_c, 0, 34, 47
2, 45431, Note_on_c, 0, 46, 42
2, 46088, Note_on_c, 0, 70, 74
2, 46279, Note_on_c, 0, 72, 0
2, 46288, Note_on_c, 0, 72, 82
2, 46290, Note_on_c, 0, 33, 52
2, 46295, Note_on_c, 0, 60, 0
2, 46299, Note_on_c, 0, 45, 53
2, 46304, Control_c, 0, 64, 0
2, 46305, Note_on_c, 0, 65, 62
2, 46306, Note_on_c, 0, 60, 63
2, 46307, Note_on_c, 0, 84, 0
2, 46312, Note_on_c, 0, 46, 0
2, 46315, Note_on_c, 0, 70, 0
2, 46316, Note_on_c, 0, 34, 0
2, 46318, Note_on_c, 0, 55, 0
2, 46325, Note_on_c, 0, 58, 0
2, 46333, Note_on_c, 0, 77, 0
2, 46364, Control_c, 0, 64, 127
2, 46694, Note_on_c, 0, 65, 0
2, 46700, Note_on_c, 0, 65, 83
2, 46717, Note_on_c, 0, 60, 0
2, 46722, Note_on_c, 0, 53, 59
2, 46728, Note_on_c, 0, 60, 57
2, 46731, Note_on_c, 0, 57, 48
2, 47089, Note_on_c, 0, 64, 84
2, 47095, Note_on_c, 0, 52, 72
2, 47447, Note_on_c, 0, 33, 0
2, 47454, Note_on_c, 0, 65, 0
2, 47459, Note_on_c, 0, 65, 89
2, 47470, Note_on_c, 0, 60, 0
2, 47477, Note_on_c, 0, 53, 0
2, 47477, Note_on_c, 0, 57, 0
2, 47480, Note_on_c, 0, 60, 63
2, 47481, Note_on_c, 0, 53, 56
2, 47489, Note_on_c, 0, 57, 59
2, 47489, Control_c, 0, 64, 0
2, 47490, Note_on_c, 0, 52, 0
2, 47491, Note_on_c, 0, 64, 0
2, 47492, Note_on_c, 0, 45, 0
2, 47508, Note_on_c, 0, 72, 0
2, 47562, Control_c, 0, 64, 127
2, 47851, Note_on_c, 0, 67, 80
2, 47857, Note_on_c, 0, 55, 71
2, 48241, Note_on_c, 0, 89, 78
2, 48241, Note_on_c, 0, 77, 74
2, 48614, Note_on_c, 0, 89, 0
2, 48621, Note_on_c, 0, 89, 79
2, 48621, Note_on_c, 0, 101, 93
2, 48622, Note_on_c, 0, 60, 0
2, 48626, Note_on_c, 0, 96, 79
2, 48629, Note_on_c, 0, 65, 0
2, 48630, Note_on_c, 0, 69, 61
2, 48633, Note_on_c, 0, 60, 60
2, 48633, Note_on_c, 0, 65, 63
2, 48637, Note_on_c, 0, 96, 0
2, 48998, Note_on_c, 0, 65, 0
2, 49006, Note_on_c, 0, 53, 0
2, 49008, Note_on_c, 0, 65, 89
2, 49010, Note_on_c, 0, 53, 68
2, 49395, Note_on_c, 0, 72, 90
2, 49405, Note_on_c, 0, 60, 0
2, 49405, Note_on_c, 0, 65, 0
2, 49414, Note_on_c, 0, 46, 63
2, 49415, Note_on_c, 0, 60, 69
2, 49416, Note_on_c, 0, 34, 57
2, 49416, Note_on_c, 0, 65, 69
2, 49417, Note_on_c, 0, 70, 74
2, 49419, Control_c, 0, 64, 0
2, 49431, Note_on_c, 0, 55, 0
2, 49432, Note_on_c, 0, 77, 0
2, 49432, Note_on_c, 0, 67, 0
2, 49432, Note_on_c, 0, 89, 0
2, 49433, Note_on_c, 0, 69, 0
2, 49433, Note_on_c, 0, 53, 0
2, 49451, Note_on_c, 0, 57, 0
2, 49451, Note_on_c, 0, 101, 0
2, 49551, Control_c, 0, 64, 127
2, 50158, Note_on_c, 0, 46, 0
2, 50167, Note_on_c, 0, 46, 62
2, 50534, Note_on_c, 0, 65, 0
2, 50538, Note_on_c, 0, 65, 80
2, 50539, Note_on_c, 0, 53, 64
2, 50925, Note_on_c, 0, 74, 88
2, 50926, Note_on_c, 0, 53, 0
2, 50926, Note_on_c, 0, 70, 0
2, 50929, Note_on_c, 0, 58, 57
2, 50929, Note_on_c, 0, 62, 72
2, 50933, Note_on_c, 0, 65, 0
2, 50935, Note_on_c, 0, 70, 81
2, 50937, Note_on_c, 0, 53, 52
2, 50941, Note_on_c, 0, 65, 61
2, 51306, Note_on_c, 0, 89, 75
2, 51313, Note_on_c, 0, 77, 70
2, 51671, Note_on_c, 0, 70, 0
2, 51678, Note_on_c, 0, 65, 0
2, 51680, Note_on_c, 0, 70, 82
2, 51681, Note_on_c, 0, 88, 68
2, 51686, Note_on_c, 0, 62, 0
2, 51689, Note_on_c, 0, 65, 62
2, 51690, Note_on_c, 0, 82, 71
2, 51692, Note_on_c, 0, 76, 65
2, 51696, Note_on_c, 0, 62, 56
2, 51840, Note_on_c, 0, 60, 0
2, 51840, Note_on_c, 0, 72, 0
2, 52064, Note_on_c, 0, 86, 84
2, 52078, Note_on_c, 0, 74, 0
2, 52088, Note_on_c, 0, 74, 66
2, 52440, Note_on_c, 0, 84, 74
2, 52446, Note_on_c, 0, 34, 0
2, 52446, Note_on_c, 0, 77, 0
2, 52447, Note_on_c, 0, 33, 61
2, 52450, Note_on_c, 0, 72, 60
2, 52450, Note_on_c, 0, 45, 60
2, 52450, Control_c, 0, 64, 0
2, 52451, Note_on_c, 0, 46, 0
2, 52451, Note_on_c, 0, 53, 0
2, 52451, Note_on_c, 0, 89, 0
2, 52451, Note_on_c, 0, 86, 0
2, 52451, Note_on_c, 0, 65, 0
2, 52451, Note_on_c, 0, 76, 0
2, 52451, Note_on_c, 0, 77, 67
2, 52451, Note_on_c, 0, 82, 0
2, 52451, Note_on_c, 0, 62, 0
2, 52452, Note_on_c, 0, 58, 0
2, 52452, Note_on_c, 0, 88, 0
2, 52452, Note_on_c, 0, 74, 0
2, 52452, Note_on_c, 0, 70, 0
2, 52523, Control_c, 0, 64, 127
2, 52833, Note_on_c, 0, 65, 94
2, 52842, Note_on_c, 0, 53, 72
2, 52849, Note_on_c, 0, 57, 70
2, 52849, Note_on_c, 0, 60, 72
2, 53224, Note_on_c, 0, 64, 86
2, 53245, Note_on_c, 0, 52, 66
2, 53591, Note_on_c, 0, 65, 0
2, 53595, Note_on_c, 0, 65, 94
2, 53614, Note_on_c, 0, 53, 0
2, 53614, Note_on_c, 0, 57, 0
2, 53614, Note_on_c, 0, 60, 0
2, 53618, Note_on_c, 0, 53, 65
2, 53620, Note_on_c, 0, 60, 70
2, 53624, Note_on_c, 0, 57, 68
2, 53971, Note_on_c, 0, 67, 90
2, 53972, Note_on_c, 0, 55, 81
2, 54336, Note_on_c, 0, 77, 0
2, 54346, Note_on_c, 0, 89, 77
2, 54347, Note_on_c, 0, 77, 74
2, 54497, Note_on_c, 0, 33, 0
2, 54712, Note_on_c, 0, 89, 0
2, 54716, Note_on_c, 0, 101, 98
2, 54722, Note_on_c, 0, 89, 81
2, 54727, Note_on_c, 0, 57, 0
2, 54727, Note_on_c, 0, 60, 0
2, 54727, Note_on_c, 0, 65, 0
2, 54731, Note_on_c, 0, 96, 77
2, 54732, Note_on_c, 0, 60, 59
2, 54733, Note_on_c, 0, 69, 68
2, 54733, Note_on_c, 0, 65, 69
2, 54739, Note_on_c, 0, 57, 59
2, 55088, Note_on_c, 0, 53, 0
2, 55088, Note_on_c, 0, 65, 0
2, 55094, Note_on_c, 0, 65, 86
2, 55100, Note_on_c, 0, 53, 64
2, 55488, Note_on_c, 0, 69, 0
2, 55492, Note_on_c, 0, 69, 86
2, 55507, Note_on_c, 0, 58, 63
2, 55508, Note_on_c, 0, 46, 52
2, 55513, Note_on_c, 0, 34, 50
2, 55514, Note_on_c, 0, 62, 53
2, 55518, Note_on_c, 0, 96, 0
2, 55526, Note_on_c, 0, 45, 0
2, 55526, Note_on_c, 0, 52, 0
2, 55527, Note_on_c, 0, 64, 0
2, 55527, Note_on_c, 0, 60, 0
2, 55528, Note_on_c, 0, 65, 0
2, 55528, Note_on_c, 0, 55, 0
2, 55528, Note_on_c, 0, 57, 0
2, 55528, Control_c, 0, 64, 0
2, 55528, Note_on_c, 0, 67, 0
2, 55529, Note_on_c, 0, 89, 0
2, 55529, Note_on_c, 0, 53, 0
2, 55534, Note_on_c, 0, 72, 0
2, 55534, Note_on_c, 0, 84, 0
2, 55534, Note_on_c, 0, 101, 0
2, 55549, Note_on_c, 0, 77, 0
2, 55656, Control_c, 0, 64, 127
2, 56252, Note_on_c, 0, 61, 69
2, 56263, Note_on_c, 0, 46, 0
2, 56275, Note_on_c, 0, 46, 46
2, 56627, Note_on_c, 0, 70, 83
2, 56793, Note_on_c, 0, 69, 0
2, 56802, Note_on_c, 0, 69, 80
2, 56996, Control_c, 0, 64, 0
2, 56998, Note_on_c, 0, 69, 0
2, 56999, Note_on_c, 0, 61, 0
2, 56999, Note_on_c, 0, 46, 0
2, 57000, Note_on_c, 0, 70, 0
2, 57001, Note_on_c, 0, 62, 0
2, 57002, Note_on_c, 0, 34, 0
2, 57012, Note_on_c, 0, 67, 80
2, 57016, Note_on_c, 0, 58, 0
2, 57017, Note_on_c, 0, 48, 55
2, 57022, Note_on_c, 0, 58, 69
2, 57026, Note_on_c, 0, 60, 65
2, 57085, Control_c, 0, 64, 127
2, 57384, Note_on_c, 0, 58, 0
2, 57389, Note_on_c, 0, 76, 72
2, 57408, Note_on_c, 0, 60, 0
2, 57414, Note_on_c, 0, 60, 38
2, 57415, Note_on_c, 0, 70, 47
2, 57417, Note_on_c, 0, 64, 58
2, 57423, Note_on_c, 0, 70, 0
2, 57751, Note_on_c, 0, 77, 76
2, 57768, Note_on_c, 0, 48, 0
2, 57772, Note_on_c, 0, 65, 57
2, 57774, Note_on_c, 0, 48, 58
2, 57786, Note_on_c, 0, 70, 61
2, 58125, Note_on_c, 0, 79, 81
2, 58152, Note_on_c, 0, 67, 0
2, 58161, Note_on_c, 0, 67, 56
2, 58494, Note_on_c, 0, 48, 0
2, 58494, Note_on_c, 0, 60, 0
2, 58494, Control_c, 0, 64, 0
2, 58494, Note_on_c, 0, 64, 0
2, 58495, Note_on_c, 0, 67, 0
2, 58495, Note_on_c, 0, 76, 0
2, 58495, Note_on_c, 0, 79, 0
2, 58498, Note_on_c, 0, 77, 0
2, 58502, Note_on_c, 0, 77, 79
2, 58513, Note_on_c, 0, 70, 0
2, 58516, Note_on_c, 0, 34, 60
2, 58517, Note_on_c, 0, 46, 60
2, 58519, Note_on_c, 0, 74, 64
2, 58521, Note_on_c, 0, 65, 0
2, 58522, Note_on_c, 0, 70, 64
2, 58525, Note_on_c, 0, 65, 47
2, 58575, Control_c, 0, 64, 127
2, 58775, Note_on_c, 0, 34, 0
2, 58893, Note_on_c, 0, 53, 86
2, 58894, Note_on_c, 0, 41, 65
2, 59268, Note_on_c, 0, 62, 96
2, 59281, Note_on_c, 0, 46, 0
2, 59289, Note_on_c, 0, 53, 0
2, 59291, Note_on_c, 0, 46, 68
2, 59295, Control_c, 0, 64, 0
2, 59296, Note_on_c, 0, 53, 58
2, 59298, Note_on_c, 0, 58, 72
2, 59304, Note_on_c, 0, 70, 0
2, 59304, Note_on_c, 0, 74, 0
2, 59306, Note_on_c, 0, 77, 0
2, 59381, Control_c, 0, 64, 127
2, 59658, Note_on_c, 0, 48, 72
2, 60038, Note_on_c, 0, 50, 78
2, 60061, Control_c, 0, 64, 0
2, 60064, Note_on_c, 0, 48, 0
2, 60066, Note_on_c, 0, 53, 0
2, 60149, Control_c, 0, 64, 127
2, 60407, Note_on_c, 0, 52, 86
2, 60789, Note_on_c, 0, 60, 91
2, 60799, Note_on_c, 0, 53, 74
2, 60804, Control_c, 0, 64, 0
2, 60805, Note_on_c, 0, 62, 0
2, 60806, Note_on_c, 0, 50, 0
2, 60806, Note_on_c, 0, 52, 0
2, 60825, Note_on_c, 0, 46, 0
2, 60825, Note_on_c, 0, 58, 0
2, 60925, Control_c, 0, 64, 127
2, 61361, Note_on_c, 0, 58, 87
2, 61562, Note_on_c, 0, 60, 0
2, 61570, Note_on_c, 0, 65, 0
2, 61572, Note_on_c, 0, 60, 97
2, 61579, Note_on_c, 0, 55, 79
2, 61582, Note_on_c, 0, 52, 68
2, 61597, Note_on_c, 0, 58, 0
2, 61597, Control_c, 0, 64, 0
2, 61598, Note_on_c, 0, 53, 0
2, 61601, Note_on_c, 0, 41, 0
2, 61724, Control_c, 0, 64, 127
2, 62364, Note_on_c, 0, 67, 98
2, 62369, Note_on_c, 0, 55, 0
2, 62380, Note_on_c, 0, 55, 75
2, 62386, Note_on_c, 0, 64, 73
2, 62389, Note_on_c, 0, 61, 62
2, 62396, Note_on_c, 0, 52, 0
2, 62397, Note_on_c, 0, 37, 62
2, 62400, Note_on_c, 0, 60, 0
2, 62402, Control_c, 0, 64, 0
2, 62668, Control_c, 0, 64, 127
2, 62774, Note_on_c, 0, 45, 66
2, 63159, Note_on_c, 0, 65, 82
2, 63171, Note_on_c, 0, 62, 64
2, 63175, Note_on_c, 0, 37, 0
2, 63178, Note_on_c, 0, 45, 0
2, 63178, Note_on_c, 0, 61, 0
2, 63178, Note_on_c, 0, 67, 0
2, 63178, Note_on_c, 0, 64, 0
2, 63180, Note_on_c, 0, 57, 57
2, 63180, Control_c, 0, 64, 0
2, 63182, Note_on_c, 0, 38, 60
2, 63183, Note_on_c, 0, 50, 62
2, 63198, Note_on_c, 0, 55, 0
2, 63336, Control_c, 0, 64, 127
2, 63568, Note_on_c, 0, 48, 57
2, 64054, Note_on_c, 0, 59, 57
2, 64055, Note_on_c, 0, 43, 42
2, 64055, Note_on_c, 0, 47, 47
2, 64084, Control_c, 0, 64, 0
2, 64090, Note_on_c, 0, 38, 0
2, 64091, Note_on_c, 0, 48, 0
2, 64091, Note_on_c, 0, 50, 0
2, 64091, Note_on_c, 0, 57, 0
2, 64373, Control_c, 0, 64, 127
2, 64570, Note_on_c, 0, 67, 62
2, 65164, Note_on_c, 0, 70, 71
2, 65180, Note_on_c, 0, 43, 0
2, 65180, Note_on_c, 0, 62, 0
2, 65183, Note_on_c, 0, 36, 40
2, 65184, Note_on_c, 0, 43, 33
2, 65187, Note_on_c, 0, 65, 0
2, 65191, Note_on_c, 0, 62, 38
2, 65191, Note_on_c, 0, 58, 41
2, 65192, Note_on_c, 0, 65, 46
2, 65207, Control_c, 0, 64, 0
2, 65216, Note_on_c, 0, 59, 0
2, 65216, Note_on_c, 0, 67, 0
2, 65218, Note_on_c, 0, 47, 0
2, 65318, Control_c, 0, 64, 127
2, 65588, Note_on_c, 0, 69, 66
2, 65978, Note_on_c, 0, 65, 0
2, 65989, Note_on_c, 0, 65, 67
2, 66372, Note_on_c, 0, 55, 58
2, 66762, Note_on_c, 0, 58, 0
2, 66767, Note_on_c, 0, 58, 66
2, 67144, Note_on_c, 0, 57, 52
2, 67200, Note_on_c, 0, 36, 0
2, 67200, Note_on_c, 0, 43, 0
2, 67200, Note_on_c, 0, 62, 0
2, 67200, Note_on_c, 0, 70, 0
2, 67525, Note_on_c, 0, 53, 53
2, 67909, Note_on_c, 0, 67, 69
2, 68295, Note_on_c, 0, 70, 77
2, 68305, Note_on_c, 0, 58, 0
2, 68312, Note_on_c, 0, 58, 52
2, 68318, Control_c, 0, 64, 0
2, 68318, Note_on_c, 0, 69, 0
2, 68320, Note_on_c, 0, 57, 0
2, 68320, Note_on_c, 0, 67, 0
2, 68321, Note_on_c, 0, 65, 0
2, 68321, Note_on_c, 0, 53, 0
2, 68322, Note_on_c, 0, 55, 0
2, 68326, Note_on_c, 0, 65, 52
2, 68333, Note_on_c, 0, 61, 46
2, 68428, Control_c, 0, 64, 127
2, 68682, Note_on_c, 0, 48, 56
2, 69033, Note_on_c, 0, 53, 54
2, 69425, Note_on_c, 0, 55, 60
2, 69788, Note_on_c, 0, 58, 0
2, 69795, Note_on_c, 0, 58, 64
2, 70179, Note_on_c, 0, 61, 0
2, 70185, Note_on_c, 0, 61, 56
2, 70556, Note_on_c, 0, 65, 0
2, 70566, Note_on_c, 0, 65, 66
2, 70942, Note_on_c, 0, 69, 74
2, 71040, Note_on_c, 0, 48, 0
2, 71040, Note_on_c, 0, 70, 0
2, 71126, Note_on_c, 0, 70, 82
2, 71326, Note_on_c, 0, 72, 80
2, 71343, Note_on_c, 0, 48, 51
2, 71345, Note_on_c, 0, 67, 61
2, 71347, Note_on_c, 0, 65, 0
2, 71348, Note_on_c, 0, 60, 56
2, 71354, Note_on_c, 0, 65, 56
2, 71355, Control_c, 0, 64, 0
2, 71358, Note_on_c, 0, 55, 0
2, 71358, Note_on_c, 0, 69, 0
2, 71359, Note_on_c, 0, 61, 0
2, 71359, Note_on_c, 0, 58, 0
2, 71360, Note_on_c, 0, 70, 0
2, 71360, Note_on_c, 0, 53, 0
2, 71454, Control_c, 0, 64, 127
2, 72115, Note_on_c, 0, 48, 0
2, 72119, Note_on_c, 0, 48, 54
2, 72507, Note_on_c, 0, 55, 54
2, 72883, Note_on_c, 0, 60, 0
2, 72892, Note_on_c, 0, 60, 54
2, 73263, Note_on_c, 0, 84, 58
2, 73651, Note_on_c, 0, 67, 0
2, 73657, Note_on_c, 0, 67, 58
2, 73666, Note_on_c, 0, 84, 0
2, 73668, Note_on_c, 0, 89, 51
2, 73674, Note_on_c, 0, 84, 42
2, 74031, Note_on_c, 0, 91, 60
2, 74449, Note_on_c, 0, 84, 0
2, 74455, Note_on_c, 0, 96, 69
2, 74461, Note_on_c, 0, 84, 58
2, 74472, Note_on_c, 0, 79, 51
2, 74472, Note_on_c, 0, 72, 0
2, 74481, Note_on_c, 0, 72, 43
2, 74880, Note_on_c, 0, 48, 0
2, 74880, Note_on_c, 0, 55, 0
2, 74880, Note_on_c, 0, 65, 0
2, 76163, Note_on_c, 0, 48, 65
2, 76959, Note_on_c, 0, 24, 76
2, 76962, Note_on_c, 0, 36, 65
2, 76968, Control_c, 0, 64, 0
2, 76971, Note_on_c, 0, 67, 0
2, 76972, Note_on_c, 0, 60, 0
2, 76972, Note_on_c, 0, 48, 0
2, 76972, Note_on_c, 0, 79, 0
2, 76972, Note_on_c, 0, 89, 0
2, 76972, Note_on_c, 0, 91, 0
2, 76973, Note_on_c, 0, 72, 0
2, 76984, Note_on_c, 0, 96, 0
2, 76984, Control_c, 0, 64, 127
2, 76999, Note_on_c, 0, 84, 0
2, 77729, Note_on_c, 0, 24, 0
2, 77738, Control_c, 0, 64, 0
2, 77748, Note_on_c, 0, 77, 105
2, 77756, Note_on_c, 0, 41, 79
2, 77756, Note_on_c, 0, 65, 94
2, 77756, Note_on_c, 0, 29, 76
2, 77757, Note_on_c, 0, 72, 84
2, 77757, Note_on_c, 0, 69, 87
2, 77767, Note_on_c, 0, 36, 0
2, 77806, Control_c, 0, 64, 127
2, 78116, Note_on_c, 0, 60, 79
2, 78119, Note_on_c, 0, 48, 60
2, 78236, Note_on_c, 0, 65, 0
2, 78247, Note_on_c, 0, 65, 78
2, 78247, Note_on_c, 0, 53, 64
2, 78367, Note_on_c, 0, 67, 79
2, 78393, Note_on_c, 0, 57, 62
2, 78512, Note_on_c, 0, 60, 0
2, 78512, Note_on_c, 0, 72, 0
2, 78517, Note_on_c, 0, 72, 81
2, 78517, Note_on_c, 0, 60, 76
2, 78627, Note_on_c, 0, 53, 0
2, 78627, Note_on_c, 0, 77, 0
2, 78631, Note_on_c, 0, 53, 72
2, 78631, Note_on_c, 0, 77, 85
2, 78741, Note_on_c, 0, 79, 87
2, 78758, Note_on_c, 0, 57, 0
2, 78769, Note_on_c, 0, 57, 75
2, 78850, Note_on_c, 0, 60, 0
2, 78860, Note_on_c, 0, 84, 85
2, 78860, Note_on_c, 0, 60, 74
2, 78972, Note_on_c, 0, 89, 91
2, 78981, Note_on_c, 0, 53, 0
2, 78981, Note_on_c, 0, 65, 0
2, 78989, Note_on_c, 0, 53, 61
2, 78992, Note_on_c, 0, 65, 74
2, 79096, Note_on_c, 0, 57, 0
2, 79099, Note_on_c, 0, 91, 97
2, 79103, Note_on_c, 0, 57, 77
2, 79109, Note_on_c, 0, 81, 77
2, 79203, Note_on_c, 0, 84, 0
2, 79209, Note_on_c, 0, 96, 110
2, 79214, Note_on_c, 0, 84, 97
2, 79219, Note_on_c, 0, 72, 0
2, 79226, Note_on_c, 0, 72, 87
2, 79319, Note_on_c, 0, 69, 0
2, 79319, Note_on_c, 0, 91, 0
2, 79323, Note_on_c, 0, 91, 85
2, 79330, Note_on_c, 0, 69, 73
2, 79441, Note_on_c, 0, 65, 0
2, 79441, Note_on_c, 0, 89, 0
2, 79447, Note_on_c, 0, 65, 86
2, 79453, Note_on_c, 0, 89, 88
2, 79564, Note_on_c, 0, 84, 0
2, 79572, Note_on_c, 0, 60, 0
2, 79576, Note_on_c, 0, 84, 82
2, 79582, Note_on_c, 0, 60, 79
2, 79672, Note_on_c, 0, 57, 0
2, 79679, Note_on_c, 0, 57, 66
2, 79695, Note_on_c, 0, 79, 0
2, 79704, Note_on_c, 0, 79, 69
2, 79787, Note_on_c, 0, 53, 0
2, 79795, Note_on_c, 0, 77, 0
2, 79798, Note_on_c, 0, 53, 70
2, 79805, Note_on_c, 0, 77, 84
2, 79933, Note_on_c, 0, 72, 0
2, 79941, Note_on_c, 0, 60, 0
2, 79941, Note_on_c, 0, 69, 0
2, 79944, Note_on_c, 0, 76, 105
2, 79944, Note_on_c, 0, 72, 97
2, 79947, Note_on_c, 0, 69, 88
2, 79948, Note_on_c, 0, 60, 83
2, 79949, Note_on_c, 0, 64, 88
2, 80048, Note_on_c, 0, 57, 0
2, 80060, Note_on_c, 0, 57, 69
2, 80171, Note_on_c, 0, 53, 0
2, 80175, Note_on_c, 0, 53, 76
2, 80302, Note_on_c, 0, 48, 0
2, 80302, Note_on_c, 0, 65, 0
2, 80302, Note_on_c, 0, 77, 0
2, 80307, Note_on_c, 0, 77, 109
2, 80310, Note_on_c, 0, 65, 92
2, 80313, Note_on_c, 0, 48, 80
2, 80420, Note_on_c, 0, 45, 76
2, 80509, Note_on_c, 0, 41, 0
2, 80518, Note_on_c, 0, 41, 74
2, 80639, Note_on_c, 0, 41, 0
2, 80639, Note_on_c, 0, 48, 0
2, 80639, Note_on_c, 0, 45, 0
2, 80640, Note_on_c, 0, 29, 0
2, 80640, Note_on_c, 0, 96, 0
2, 80641, Note_on_c, 0, 91, 0
2, 80641, Note_on_c, 0, 53, 0
2, 80641, Note_on_c, 0, 64, 0
2, 80641, Note_on_c, 0, 81, 0
2, 80642, Note_on_c, 0, 57, 0
2, 80642, Note_on_c, 0, 69, 0
2, 80642, Note_on_c, 0, 76, 0
2, 80642, Note_on_c, 0, 65, 0
2, 80642, Note_on_c, 0, 60, 0
2, 80642, Note_on_c, 0, 79, 0
2, 80642, Note_on_c, 0, 89, 0
2, 80642, Note_on_c, 0, 77, 0
2, 80642, Note_on_c, 0, 67, 0
2, 80643, Control_c, 0, 64, 0
2, 80655, Note_on_c, 0, 72, 0
2, 80655, Note_on_c, 0, 84, 0
2, 80682, Note_on_c, 0, 79, 107
2, 80687, Note_on_c, 0, 67, 96
2, 80688, Note_on_c, 0, 27, 84
2, 80688, Note_on_c, 0, 39, 83
2, 80689, Note_on_c, 0, 75, 98
2, 80690, Note_on_c, 0, 70, 97
2, 80716, Control_c, 0, 64, 127
2, 81057, Note_on_c, 0, 46, 66
2, 81065, Note_on_c, 0, 63, 66
2, 81186, Note_on_c, 0, 65, 81
2, 81189, Note_on_c, 0, 51, 59
2, 81300, Note_on_c, 0, 70, 0
2, 81305, Note_on_c, 0, 70, 80
2, 81309, Note_on_c, 0, 55, 64
2, 81408, Note_on_c, 0, 75, 0
2, 81415, Note_on_c, 0, 51, 0
2, 81415, Note_on_c, 0, 75, 93
2, 81421, Note_on_c, 0, 51, 59
2, 81425, Note_on_c, 0, 58, 74
2, 81530, Note_on_c, 0, 51, 0
2, 81533, Note_on_c, 0, 77, 97
2, 81535, Note_on_c, 0, 51, 71
2, 81576, Note_on_c, 0, 27, 0
2, 81638, Note_on_c, 0, 55, 0
2, 81648, Note_on_c, 0, 82, 84
2, 81649, Note_on_c, 0, 55, 66
2, 81755, Note_on_c, 0, 87, 97
2, 81761, Note_on_c, 0, 58, 0
2, 81766, Note_on_c, 0, 58, 76
2, 81868, Note_on_c, 0, 63, 0
2, 81873, Note_on_c, 0, 63, 74
2, 81878, Note_on_c, 0, 89, 94
2, 81984, Note_on_c, 0, 67, 0
2, 81994, Note_on_c, 0, 67, 76
2, 81996, Note_on_c, 0, 94, 84
2, 82114, Note_on_c, 0, 70, 0
2, 82119, Note_on_c, 0, 70, 97
2, 82119, Note_on_c, 0, 99, 105
2, 82206, Note_on_c, 0, 67, 0
2, 82217, Note_on_c, 0, 67, 69
2, 82229, Note_on_c, 0, 58, 0
2, 82233, Note_on_c, 0, 58, 45
2, 82245, Note_on_c, 0, 70, 0
2, 82245, Note_on_c, 0, 94, 0
2, 82249, Note_on_c, 0, 70, 52
2, 82249, Note_on_c, 0, 94, 75
2, 82344, Note_on_c, 0, 63, 0
2, 82349, Note_on_c, 0, 63, 73
2, 82352, Note_on_c, 0, 89, 0
2, 82356, Note_on_c, 0, 89, 86
2, 82360, Note_on_c, 0, 101, 87
2, 82467, Note_on_c, 0, 58, 0
2, 82467, Note_on_c, 0, 87, 0
2, 82474, Note_on_c, 0, 87, 95
2, 82475, Note_on_c, 0, 70, 0
2, 82478, Note_on_c, 0, 58, 74
2, 82480, Note_on_c, 0, 70, 75
2, 82590, Note_on_c, 0, 55, 0
2, 82590, Note_on_c, 0, 82, 0
2, 82597, Note_on_c, 0, 55, 66
2, 82601, Note_on_c, 0, 82, 83
2, 82690, Note_on_c, 0, 77, 0
2, 82698, Note_on_c, 0, 51, 0
2, 82701, Note_on_c, 0, 77, 87
2, 82707, Note_on_c, 0, 51, 68
2, 82821, Note_on_c, 0, 77, 0
2, 82824, Note_on_c, 0, 77, 100
2, 82836, Note_on_c, 0, 46, 0
2, 82836, Note_on_c, 0, 58, 0
2, 82836, Note_on_c, 0, 65, 0
2, 82840, Note_on_c, 0, 58, 87
2, 82842, Note_on_c, 0, 46, 81
2, 82844, Note_on_c, 0, 70, 0
2, 82844, Note_on_c, 0, 75, 0
2, 82847, Note_on_c, 0, 65, 90
2, 82848, Note_on_c, 0, 75, 86
2, 82851, Note_on_c, 0, 70, 81
2, 82951, Note_on_c, 0, 55, 0
2, 82962, Note_on_c, 0, 55, 74
2, 83066, Note_on_c, 0, 51, 0
2, 83073, Note_on_c, 0, 51, 81
2, 83197, Note_on_c, 0, 46, 0
2, 83206, Note_on_c, 0, 46, 83
2, 83307, Note_on_c, 0, 43, 78
2, 83543, Note_on_c, 0, 99, 0
2, 83544, Note_on_c, 0, 94, 0
2, 83544, Note_on_c, 0, 39, 0
2, 83545, Note_on_c, 0, 82, 0
2, 83545, Control_c, 0, 64, 0
2, 83545, Note_on_c, 0, 46, 0
2, 83545, Note_on_c, 0, 87, 0
2, 83545, Note_on_c, 0, 63, 0
2, 83545, Note_on_c, 0, 70, 0
2, 83545, Note_on_c, 0, 79, 0
2, 83545, Note_on_c, 0, 65, 0
2, 83545, Note_on_c, 0, 89, 0
2, 83545, Note_on_c, 0, 75, 0
2, 83545, Note_on_c, 0, 67, 0
2, 83545, Note_on_c, 0, 51, 0
2, 83546, Note_on_c, 0, 77, 0
2, 83546, Note_on_c, 0, 43, 0
2, 83550, Note_on_c, 0, 101, 0
2, 83558, Note_on_c, 0, 55, 0
2, 83558, Note_on_c, 0, 58, 0
2, 83577, Note_on_c, 0, 84, 108
2, 83583, Note_on_c, 0, 72, 103
2, 83586, Note_on_c, 0, 77, 99
2, 83592, Note_on_c, 0, 82, 99
2, 83593, Note_on_c, 0, 38, 78
2, 83596, Note_on_c, 0, 26, 91
2, 83627, Control_c, 0, 64, 127
2, 83975, Note_on_c, 0, 60, 74
2, 83976, Note_on_c, 0, 46, 69
2, 84093, Note_on_c, 0, 65, 83
2, 84093, Note_on_c, 0, 50, 65
2, 84199, Note_on_c, 0, 70, 90
2, 84221, Note_on_c, 0, 53, 57
2, 84326, Note_on_c, 0, 46, 0
2, 84332, Note_on_c, 0, 58, 75
2, 84334, Note_on_c, 0, 72, 0
2, 84336, Note_on_c, 0, 46, 59
2, 84339, Note_on_c, 0, 72, 65
2, 84449, Note_on_c, 0, 77, 0
2, 84454, Note_on_c, 0, 77, 79
2, 84463, Note_on_c, 0, 62, 69
2, 84564, Note_on_c, 0, 82, 0
2, 84569, Note_on_c, 0, 82, 76
2, 84572, Note_on_c, 0, 65, 0
2, 84576, Note_on_c, 0, 65, 79
2, 84679, Note_on_c, 0, 70, 0
2, 84681, Note_on_c, 0, 86, 107
2, 84687, Note_on_c, 0, 77, 0
2, 84690, Note_on_c, 0, 70, 95
2, 84690, Note_on_c, 0, 74, 97
2, 84691, Note_on_c, 0, 77, 83
2, 84779, Note_on_c, 0, 65, 0
2, 84788, Note_on_c, 0, 65, 80
2, 84871, Note_on_c, 0, 62, 0
2, 84881, Note_on_c, 0, 62, 69
2, 85009, Note_on_c, 0, 65, 0
2, 85017, Note_on_c, 0, 70, 0
2, 85017, Note_on_c, 0, 74, 0
2, 85017, Note_on_c, 0, 77, 0
2, 85018, Note_on_c, 0, 65, 82
2, 85023, Note_on_c, 0, 77, 106
2, 85028, Note_on_c, 0, 74, 96
2, 85028, Note_on_c, 0, 70, 95
2, 85140, Note_on_c, 0, 62, 0
2, 85144, Note_on_c, 0, 62, 75
2, 85255, Note_on_c, 0, 58, 0
2, 85266, Note_on_c, 0, 58, 76
2, 85386, Note_on_c, 0, 62, 0
2, 85393, Note_on_c, 0, 74, 0
2, 85393, Note_on_c, 0, 77, 0
2, 85395, Note_on_c, 0, 62, 79
2, 85398, Note_on_c, 0, 74, 76
2, 85399, Note_on_c, 0, 77, 83
2, 85432, Note_on_c, 0, 26, 0
2, 85501, Note_on_c, 0, 58, 0
2, 85501, Note_on_c, 0, 82, 0
2, 85507, Note_on_c, 0, 58, 77
2, 85508, Note_on_c, 0, 82, 83
2, 85608, Note_on_c, 0, 53, 0
2, 85614, Note_on_c, 0, 53, 76
2, 85616, Note_on_c, 0, 89, 95
2, 85731, Note_on_c, 0, 58, 0
2, 85739, Note_on_c, 0, 70, 0
2, 85740, Note_on_c, 0, 58, 90
2, 85742, Note_on_c, 0, 101, 111
2, 85747, Note_on_c, 0, 70, 78
2, 85860, Note_on_c, 0, 96, 98
2, 85870, Note_on_c, 0, 53, 0
2, 85880, Note_on_c, 0, 53, 77
2, 85969, Note_on_c, 0, 50, 0
2, 85981, Note_on_c, 0, 50, 77
2, 85992, Note_on_c, 0, 82, 0
2, 85992, Note_on_c, 0, 89, 0
2, 85994, Note_on_c, 0, 84, 0
2, 85997, Note_on_c, 0, 94, 84
2, 85997, Note_on_c, 0, 82, 74
2, 86003, Note_on_c, 0, 89, 64
2, 86092, Note_on_c, 0, 46, 0
2, 86092, Note_on_c, 0, 89, 0
2, 86096, Note_on_c, 0, 46, 80
2, 86102, Note_on_c, 0, 89, 94
2, 86215, Note_on_c, 0, 82, 0
2, 86219, Note_on_c, 0, 41, 67
2, 86220, Note_on_c, 0, 82, 79
2, 86315, Note_on_c, 0, 38, 0
2, 86323, Note_on_c, 0, 77, 0
2, 86323, Note_on_c, 0, 38, 71
2, 86327, Note_on_c, 0, 58, 0
2, 86329, Note_on_c, 0, 77, 77
2, 86400, Note_on_c, 0, 60, 0
2, 86400, Note_on_c, 0, 72, 0
2, 86438, Note_on_c, 0, 96, 0
2, 86439, Note_on_c, 0, 101, 0
2, 86440, Note_on_c, 0, 94, 0
2, 86441, Note_on_c, 0, 38, 0
2, 86441, Note_on_c, 0, 41, 0
2, 86441, Note_on_c, 0, 89, 0
2, 86441, Note_on_c, 0, 82, 0
2, 86441, Note_on_c, 0, 46, 0
2, 86442, Note_on_c, 0, 53, 0
2, 86442, Note_on_c, 0, 86, 0
2, 86442, Note_on_c, 0, 65, 0
2, 86442, Note_on_c, 0, 70, 0
2, 86442, Note_on_c, 0, 77, 0
2, 86442, Note_on_c, 0, 74, 0
2, 86442, Control_c, 0, 64, 0
2, 86446, Note_on_c, 0, 62, 0
2, 86453, Note_on_c, 0, 50, 0
2, 86466, Note_on_c, 0, 37, 77
2, 86468, Note_on_c, 0, 25, 83
2, 86538, Control_c, 0, 64, 127
2, 86603, Note_on_c, 0, 53, 77
2, 86723, Note_on_c, 0, 58, 80
2, 86834, Note_on_c, 0, 61, 85
2, 86837, Note_on_c, 0, 49, 71
2, 86952, Note_on_c, 0, 53, 0
2, 86958, Note_on_c, 0, 65, 87
2, 86962, Note_on_c, 0, 53, 72
2, 87065, Note_on_c, 0, 70, 89
2, 87075, Note_on_c, 0, 58, 0
2, 87086, Note_on_c, 0, 58, 77
2, 87184, Note_on_c, 0, 77, 107
2, 87191, Note_on_c, 0, 61, 0
2, 87191, Note_on_c, 0, 65, 0
2, 87191, Note_on_c, 0, 70, 0
2, 87195, Note_on_c, 0, 65, 93
2, 87195, Note_on_c, 0, 73, 86
2, 87195, Note_on_c, 0, 70, 94
2, 87197, Note_on_c, 0, 61, 85
2, 87429, Note_on_c, 0, 53, 0
2, 87435, Note_on_c, 0, 53, 75
2, 87528, Note_on_c, 0, 25, 0
2, 87555, Note_on_c, 0, 79, 107
2, 87559, Note_on_c, 0, 49, 0
2, 87559, Note_on_c, 0, 70, 0
2, 87559, Note_on_c, 0, 73, 0
2, 87561, Note_on_c, 0, 67, 92
2, 87564, Note_on_c, 0, 73, 87
2, 87564, Note_on_c, 0, 70, 97
2, 87570, Note_on_c, 0, 49, 73
2, 87682, Note_on_c, 0, 53, 0
2, 87688, Note_on_c, 0, 53, 76
2, 87805, Note_on_c, 0, 58, 0
2, 87809, Note_on_c, 0, 58, 81
2, 87920, Note_on_c, 0, 61, 0
2, 87920, Note_on_c, 0, 70, 0
2, 87920, Note_on_c, 0, 73, 0
2, 87920, Note_on_c, 0, 77, 0
2, 87921, Note_on_c, 0, 82, 110
2, 87925, Note_on_c, 0, 73, 100
2, 87928, Note_on_c, 0, 70, 96
2, 87929, Note_on_c, 0, 61, 89
2, 87932, Note_on_c, 0, 77, 100
2, 88043, Note_on_c, 0, 58, 0
2, 88047, Note_on_c, 0, 58, 81
2, 88143, Note_on_c, 0, 53, 0
2, 88150, Note_on_c, 0, 53, 77
2, 88281, Note_on_c, 0, 49, 0
2, 88292, Note_on_c, 0, 49, 79
2, 88396, Note_on_c, 0, 53, 0
2, 88407, Note_on_c, 0, 53, 79
2, 88527, Note_on_c, 0, 58, 0
2, 88532, Note_on_c, 0, 58, 79
2, 88648, Note_on_c, 0, 81, 107
2, 88650, Note_on_c, 0, 61, 0
2, 88650, Note_on_c, 0, 73, 0
2, 88650, Note_on_c, 0, 77, 0
2, 88654, Note_on_c, 0, 73, 96
2, 88654, Note_on_c, 0, 69, 82
2, 88657, Note_on_c, 0, 61, 85
2, 88660, Note_on_c, 0, 77, 89
2, 88750, Note_on_c, 0, 58, 0
2, 88755, Note_on_c, 0, 58, 64
2, 88857, Note_on_c, 0, 53, 0
2, 88865, Note_on_c, 0, 53, 65
2, 89003, Note_on_c, 0, 77, 0
2, 89011, Note_on_c, 0, 65, 0
2, 89011, Note_on_c, 0, 73, 0
2, 89014, Note_on_c, 0, 77, 105
2, 89018, Note_on_c, 0, 49, 0
2, 89018, Note_on_c, 0, 70, 0
2, 89021, Note_on_c, 0, 65, 89
2, 89021, Note_on_c, 0, 73, 85
2, 89023, Note_on_c, 0, 70, 80
2, 89027, Note_on_c, 0, 49, 83
2, 89136, Note_on_c, 0, 46, 72
2, 89243, Note_on_c, 0, 49, 0
2, 89246, Note_on_c, 0, 41, 73
2, 89368, Note_on_c, 0, 67, 0
2, 89369, Note_on_c, 0, 41, 0
2, 89369, Note_on_c, 0, 53, 0
2, 89369, Note_on_c, 0, 46, 0
2, 89369, Note_on_c, 0, 79, 0
2, 89369, Note_on_c, 0, 82, 0
2, 89369, Note_on_c, 0, 65, 0
2, 89369, Note_on_c, 0, 77, 0
2, 89369, Note_on_c, 0, 58, 0
2, 89369, Note_on_c, 0, 61, 0
2, 89369, Note_on_c, 0, 70, 0
2, 89370, Note_on_c, 0, 81, 0
2, 89370, Note_on_c, 0, 73, 0
2, 89370, Note_on_c, 0, 69, 0
2, 89372, Control_c, 0, 64, 0
2, 89379, Note_on_c, 0, 36, 76
2, 89382, Note_on_c, 0, 43, 70
2, 89395, Note_on_c, 0, 37, 0
2, 89472, Note_on_c, 0, 43, 0
2, 89502, Control_c, 0, 64, 127
2, 89518, Note_on_c, 0, 45, 75
2, 89533, Note_on_c, 0, 36, 0
2, 89635, Note_on_c, 0, 48, 71
2, 89746, Note_on_c, 0, 53, 72
2, 89751, Note_on_c, 0, 60, 79
2, 89866, Note_on_c, 0, 57, 83
2, 89872, Note_on_c, 0, 69, 69
2, 89978, Note_on_c, 0, 53, 0
2, 89978, Note_on_c, 0, 60, 0
2, 89982, Note_on_c, 0, 53, 62
2, 89982, Note_on_c, 0, 60, 85
2, 90105, Note_on_c, 0, 65, 90
2, 90117, Note_on_c, 0, 57, 0
2, 90126, Note_on_c, 0, 57, 76
2, 90216, Note_on_c, 0, 53, 0
2, 90216, Note_on_c, 0, 60, 0
2, 90227, Note_on_c, 0, 60, 87
2, 90228, Note_on_c, 0, 53, 74
2, 90339, Note_on_c, 0, 57, 0
2, 90339, Note_on_c, 0, 65, 0
2, 90344, Note_on_c, 0, 57, 86
2, 90345, Note_on_c, 0, 65, 90
2, 90455, Note_on_c, 0, 60, 0
2, 90455, Note_on_c, 0, 69, 0
2, 90463, Note_on_c, 0, 69, 87
2, 90463, Note_on_c, 0, 60, 82
2, 90577, Note_on_c, 0, 57, 0
2, 90577, Note_on_c, 0, 65, 0
2, 90586, Note_on_c, 0, 65, 88
2, 90586, Note_on_c, 0, 57, 90
2, 90693, Note_on_c, 0, 60, 0
2, 90693, Note_on_c, 0, 69, 0
2, 90698, Note_on_c, 0, 60, 85
2, 90699, Note_on_c, 0, 69, 83
2, 90699, Note_on_c, 0, 72, 79
2, 90808, Note_on_c, 0, 72, 0
2, 90816, Note_on_c, 0, 65, 0
2, 90818, Note_on_c, 0, 72, 97
2, 90826, Note_on_c, 0, 65, 92
2, 90931, Note_on_c, 0, 60, 0
2, 90931, Note_on_c, 0, 69, 0
2, 90936, Note_on_c, 0, 60, 83
2, 90941, Note_on_c, 0, 69, 83
2, 91046, Note_on_c, 0, 65, 0
2, 91046, Note_on_c, 0, 72, 0
2, 91053, Note_on_c, 0, 65, 89
2, 91054, Note_on_c, 0, 72, 98
2, 91176, Note_on_c, 0, 69, 0
2, 91185, Note_on_c, 0, 77, 106
2, 91188, Note_on_c, 0, 69, 88
2, 91223, Note_on_c, 0, 60, 0
2, 91226, Note_on_c, 0, 60, 29
2, 91292, Note_on_c, 0, 65, 0
2, 91292, Note_on_c, 0, 72, 0
2, 91298, Note_on_c, 0, 72, 101
2, 91302, Note_on_c, 0, 65, 91
2, 91415, Note_on_c, 0, 69, 0
2, 91415, Note_on_c, 0, 77, 0
2, 91421, Note_on_c, 0, 77, 99
2, 91421, Note_on_c, 0, 69, 86
2, 91530, Note_on_c, 0, 72, 0
2, 91533, Note_on_c, 0, 81, 107
2, 91536, Note_on_c, 0, 72, 96
2, 91645, Note_on_c, 0, 69, 0
2, 91645, Note_on_c, 0, 77, 0
2, 91654, Note_on_c, 0, 77, 105
2, 91655, Note_on_c, 0, 69, 87
2, 91760, Note_on_c, 0, 72, 0
2, 91760, Note_on_c, 0, 81, 0
2, 91769, Note_on_c, 0, 72, 97
2, 91769, Note_on_c, 0, 81, 95
2, 91875, Note_on_c, 0, 77, 0
2, 91887, Note_on_c, 0, 77, 110
2, 91895, Note_on_c, 0, 89, 108
2, 91897, Note_on_c, 0, 84, 95
2, 91898, Note_on_c, 0, 81, 0
2, 91903, Note_on_c, 0, 81, 96
2, 92021, Note_on_c, 0, 77, 0
2, 92029, Note_on_c, 0, 77, 103
2, 92113, Note_on_c, 0, 81, 0
2, 92113, Note_on_c, 0, 89, 0
2, 92121, Note_on_c, 0, 84, 0
2, 92123, Note_on_c, 0, 81, 94
2, 92124, Note_on_c, 0, 89, 98
2, 92129, Note_on_c, 0, 84, 83
2, 92219, Note_on_c, 0, 45, 0
2, 92220, Note_on_c, 0, 48, 0
2, 92221, Note_on_c, 0, 89, 0
2, 92222, Note_on_c, 0, 81, 0
2, 92222, Note_on_c, 0, 69, 0
2, 92222, Note_on_c, 0, 53, 0
2, 92222, Note_on_c, 0, 60, 0
2, 92222, Note_on_c, 0, 72, 0
2, 92222, Note_on_c, 0, 57, 0
2, 92222, Note_on_c, 0, 84, 0
2, 92222, Note_on_c, 0, 77, 0
2, 92224, Control_c, 0, 64, 0
2, 92236, Note_on_c, 0, 65, 0
2, 92249, Note_on_c, 0, 91, 113
2, 92255, Note_on_c, 0, 83, 95
2, 92256, Note_on_c, 0, 86, 100
2, 92258, Note_on_c, 0, 79, 101
2, 92259, Note_on_c, 0, 35, 74
2, 92313, Control_c, 0, 64, 127
2, 92379, Note_on_c, 0, 47, 78
2, 92495, Note_on_c, 0, 50, 71
2, 92623, Note_on_c, 0, 55, 81
2, 92624, Note_on_c, 0, 62, 83
2, 92624, Note_on_c, 0, 74, 78
2, 92738, Note_on_c, 0, 59, 89
2, 92851, Note_on_c, 0, 55, 0
2, 92851, Note_on_c, 0, 62, 0
2, 92851, Note_on_c, 0, 74, 0
2, 92860, Note_on_c, 0, 55, 73
2, 92860, Note_on_c, 0, 62, 88
2, 92861, Note_on_c, 0, 67, 71
2, 92861, Note_on_c, 0, 74, 82
2, 92974, Note_on_c, 0, 59, 0
2, 92974, Note_on_c, 0, 67, 0
2, 92981, Note_on_c, 0, 67, 89
2, 92984, Note_on_c, 0, 59, 95
2, 93089, Note_on_c, 0, 62, 0
2, 93095, Note_on_c, 0, 62, 83
2, 93104, Note_on_c, 0, 55, 0
2, 93112, Note_on_c, 0, 55, 75
2, 93212, Note_on_c, 0, 67, 0
2, 93216, Note_on_c, 0, 67, 84
2, 93219, Note_on_c, 0, 59, 0
2, 93224, Note_on_c, 0, 59, 97
2, 93331, Note_on_c, 0, 71, 98
2, 93335, Note_on_c, 0, 62, 0
2, 93339, Note_on_c, 0, 62, 87
2, 93450, Note_on_c, 0, 59, 0
2, 93450, Note_on_c, 0, 67, 0
2, 93454, Note_on_c, 0, 67, 94
2, 93456, Note_on_c, 0, 59, 84
2, 93557, Note_on_c, 0, 62, 0
2, 93557, Note_on_c, 0, 71, 0
2, 93566, Note_on_c, 0, 62, 89
2, 93567, Note_on_c, 0, 71, 103
2, 93672, Note_on_c, 0, 74, 0
2, 93680, Note_on_c, 0, 67, 0
2, 93681, Note_on_c, 0, 74, 102
2, 93691, Note_on_c, 0, 67, 89
2, 93788, Note_on_c, 0, 62, 0
2, 93788, Note_on_c, 0, 71, 0
2, 93792, Note_on_c, 0, 71, 85
2, 93796, Note_on_c, 0, 62, 81
2, 93880, Note_on_c, 0, 91, 0
2, 93903, Note_on_c, 0, 67, 0
2, 93903, Note_on_c, 0, 74, 0
2, 93908, Note_on_c, 0, 74, 101
2, 93912, Note_on_c, 0, 67, 85
2, 94026, Note_on_c, 0, 71, 0
2, 94026, Note_on_c, 0, 79, 0
2, 94033, Note_on_c, 0, 79, 105
2, 94033, Note_on_c, 0, 71, 98
2, 94141, Note_on_c, 0, 67, 0
2, 94141, Note_on_c, 0, 74, 0
2, 94146, Note_on_c, 0, 74, 103
2, 94151, Note_on_c, 0, 67, 78
2, 94248, Note_on_c, 0, 71, 0
2, 94248, Note_on_c, 0, 79, 0
2, 94254, Note_on_c, 0, 79, 98
2, 94259, Note_on_c, 0, 71, 91
2, 94379, Note_on_c, 0, 67, 0
2, 94379, Note_on_c, 0, 74, 0
2, 94379, Note_on_c, 0, 83, 0
2, 94379, Note_on_c, 0, 86, 0
2, 94383, Note_on_c, 0, 86, 111
2, 94385, Note_on_c, 0, 74, 109
2, 94387, Note_on_c, 0, 79, 0
2, 94388, Note_on_c, 0, 83, 101
2, 94389, Note_on_c, 0, 67, 94
2, 94391, Note_on_c, 0, 79, 99
2, 94502, Note_on_c, 0, 62, 0
2, 94513, Note_on_c, 0, 62, 81
2, 94617, Note_on_c, 0, 59, 0
2, 94622, Note_on_c, 0, 59, 94
2, 94725, Note_on_c, 0, 55, 0
2, 94736, Note_on_c, 0, 55, 99
2, 94736, Note_on_c, 0, 88, 114
2, 94740, Note_on_c, 0, 76, 111
2, 94755, Note_on_c, 0, 83, 0
2, 94765, Note_on_c, 0, 83, 59
2, 94848, Note_on_c, 0, 50, 0
2, 94852, Note_on_c, 0, 50, 88
2, 94955, Note_on_c, 0, 47, 0
2, 94962, Note_on_c, 0, 45, 71
2, 94962, Note_on_c, 0, 47, 71
2, 95063, Control_c, 0, 64, 0
2, 95064, Note_on_c, 0, 71, 0
2, 95065, Note_on_c, 0, 88, 0
2, 95065, Note_on_c, 0, 67, 0
2, 95066, Note_on_c, 0, 59, 0
2, 95066, Note_on_c, 0, 83, 0
2, 95066, Note_on_c, 0, 50, 0
2, 95066, Note_on_c, 0, 76, 0
2, 95066, Note_on_c, 0, 74, 0
2, 95066, Note_on_c, 0, 55, 0
2, 95066, Note_on_c, 0, 86, 0
2, 95066, Note_on_c, 0, 79, 0
2, 95070, Note_on_c, 0, 35, 0
2, 95070, Note_on_c, 0, 45, 0
2, 95078, Note_on_c, 0, 62, 0
2, 95086, Note_on_c, 0, 47, 0
2, 95086, Note_on_c, 0, 36, 84
2, 95087, Note_on_c, 0, 89, 113
2, 95089, Note_on_c, 0, 77, 114
2, 95093, Note_on_c, 0, 82, 106
2, 95139, Control_c, 0, 64, 127
2, 95214, Note_on_c, 0, 48, 72
2, 95342, Note_on_c, 0, 55, 78
2, 95449, Note_on_c, 0, 84, 86
2, 95452, Note_on_c, 0, 79, 59
2, 95457, Note_on_c, 0, 58, 80
2, 95562, Note_on_c, 0, 82, 0
2, 95566, Note_on_c, 0, 60, 87
2, 95567, Note_on_c, 0, 82, 82
2, 95685, Note_on_c, 0, 77, 0
2, 95689, Note_on_c, 0, 77, 91
2, 95695, Note_on_c, 0, 67, 82
2, 95704, Note_on_c, 0, 70, 69
2, 95800, Note_on_c, 0, 89, 0
2, 95807, Note_on_c, 0, 72, 98
2, 95810, Note_on_c, 0, 89, 105
2, 95811, Note_on_c, 0, 101, 103
2, 95815, Note_on_c, 0, 101, 0
2, 95923, Note_on_c, 0, 70, 0
2, 95932, Note_on_c, 0, 70, 86
2, 95938, Note_on_c, 0, 84, 0
2, 95943, Note_on_c, 0, 84, 83
2, 96030, Note_on_c, 0, 67, 0
2, 96041, Note_on_c, 0, 67, 87
2, 96053, Note_on_c, 0, 79, 0
2, 96061, Note_on_c, 0, 82, 0
2, 96064, Note_on_c, 0, 79, 61
2, 96068, Note_on_c, 0, 82, 71
2, 96168, Note_on_c, 0, 60, 0
2, 96168, Note_on_c, 0, 72, 0
2, 96168, Note_on_c, 0, 84, 0
2, 96173, Note_on_c, 0, 84, 88
2, 96178, Note_on_c, 0, 60, 86
2, 96179, Note_on_c, 0, 72, 83
2, 96284, Note_on_c, 0, 58, 0
2, 96288, Note_on_c, 0, 58, 90
2, 96299, Note_on_c, 0, 82, 0
2, 96307, Note_on_c, 0, 82, 88
2, 96368, Note_on_c, 0, 55, 0
2, 96377, Note_on_c, 0, 55, 83
2, 96414, Note_on_c, 0, 77, 0
2, 96419, Note_on_c, 0, 77, 83
2, 96488, Note_on_c, 0, 67, 0
2, 96488, Note_on_c, 0, 72, 0
2, 96489, Note_on_c, 0, 82, 0
2, 96489, Note_on_c, 0, 60, 0
2, 96489, Note_on_c, 0, 77, 0
2, 96489, Note_on_c, 0, 70, 0
2, 96489, Note_on_c, 0, 48, 0
2, 96489, Note_on_c, 0, 55, 0
2, 96489, Note_on_c, 0, 58, 0
2, 96489, Note_on_c, 0, 89, 0
2, 96489, Note_on_c, 0, 84, 0
2, 96490, Control_c, 0, 64, 0
2, 96499, Note_on_c, 0, 36, 0
2, 96499, Note_on_c, 0, 79, 0
2, 96526, Note_on_c, 0, 88, 109
2, 96532, Note_on_c, 0, 36, 88
2, 96533, Note_on_c, 0, 76, 106
2, 96535, Note_on_c, 0, 82, 98
2, 96537, Note_on_c, 0, 79, 89
2, 96568, Control_c, 0, 64, 127
2, 96647, Note_on_c, 0, 48, 82
2, 96768, Note_on_c, 0, 82, 0
2, 96772, Note_on_c, 0, 82, 86
2, 96776, Note_on_c, 0, 55, 84
2, 96885, Note_on_c, 0, 84, 84
2, 96896, Note_on_c, 0, 58, 86
2, 96998, Note_on_c, 0, 82, 0
2, 97006, Note_on_c, 0, 82, 93
2, 97007, Note_on_c, 0, 60, 85
2, 97007, Note_on_c, 0, 72, 87
2, 97121, Note_on_c, 0, 76, 0
2, 97125, Note_on_c, 0, 76, 87
2, 97126, Note_on_c, 0, 67, 89
2, 97236, Note_on_c, 0, 72, 0
2, 97236, Note_on_c, 0, 88, 0
2, 97245, Note_on_c, 0, 88, 109
2, 97247, Note_on_c, 0, 72, 97
2, 97255, Note_on_c, 0, 70, 75
2, 97259, Note_on_c, 0, 82, 0
2, 97265, Note_on_c, 0, 82, 62
2, 97359, Note_on_c, 0, 70, 0
2, 97359, Note_on_c, 0, 84, 0
2, 97367, Note_on_c, 0, 84, 83
2, 97369, Note_on_c, 0, 70, 81
2, 97459, Note_on_c, 0, 67, 0
2, 97466, Note_on_c, 0, 82, 0
2, 97468, Note_on_c, 0, 67, 90
2, 97478, Note_on_c, 0, 82, 79
2, 97589, Note_on_c, 0, 84, 0
2, 97595, Note_on_c, 0, 84, 95
2, 97597, Note_on_c, 0, 60, 0
2, 97597, Note_on_c, 0, 72, 0
2, 97602, Note_on_c, 0, 72, 87
2, 97607, Note_on_c, 0, 60, 93
2, 97704, Note_on_c, 0, 82, 0
2, 97712, Note_on_c, 0, 58, 0
2, 97716, Note_on_c, 0, 82, 88
2, 97718, Note_on_c, 0, 58, 87
2, 97781, Note_on_c, 0, 55, 0
2, 97790, Note_on_c, 0, 55, 86
2, 97797, Note_on_c, 0, 76, 0
2, 97801, Note_on_c, 0, 76, 81
2, 97904, Note_on_c, 0, 36, 0
2, 97908, Note_on_c, 0, 48, 0
2, 97908, Note_on_c, 0, 82, 0
2, 97908, Note_on_c, 0, 70, 0
2, 97908, Note_on_c, 0, 76, 0
2, 97908, Note_on_c, 0, 88, 0
2, 97908, Note_on_c, 0, 60, 0
2, 97908, Note_on_c, 0, 67, 0
2, 97908, Note_on_c, 0, 72, 0
2, 97908, Note_on_c, 0, 55, 0
2, 97909, Note_on_c, 0, 58, 0
2, 97909, Note_on_c, 0, 84, 0
2, 97911, Control_c, 0, 64, 0
2, 97920, Note_on_c, 0, 79, 0
2, 97941, Note_on_c, 0, 87, 106
2, 97947, Note_on_c, 0, 27, 74
2, 97947, Note_on_c, 0, 39, 72
2, 97947, Note_on_c, 0, 75, 102
2, 97948, Note_on_c, 0, 82, 98
2, 97953, Note_on_c, 0, 80, 98
2, 97973, Control_c, 0, 64, 127
2, 98004, Note_on_c, 0, 27, 0
2, 98081, Note_on_c, 0, 39, 0
2, 98085, Note_on_c, 0, 39, 64
2, 98198, Note_on_c, 0, 68, 103
2, 98205, Note_on_c, 0, 56, 87
2, 98212, Note_on_c, 0, 46, 78
2, 98308, Note_on_c, 0, 49, 81
2, 98434, Note_on_c, 0, 49, 0
2, 98434, Note_on_c, 0, 82, 0
2, 98438, Note_on_c, 0, 51, 82
2, 98443, Note_on_c, 0, 49, 85
2, 98444, Note_on_c, 0, 58, 92
2, 98444, Note_on_c, 0, 70, 105
2, 98445, Note_on_c, 0, 82, 96
2, 98534, Note_on_c, 0, 49, 0
2, 98543, Note_on_c, 0, 49, 86
2, 98657, Note_on_c, 0, 39, 0
2, 98664, Note_on_c, 0, 51, 0
2, 98664, Note_on_c, 0, 75, 0
2, 98668, Note_on_c, 0, 39, 83
2, 98669, Note_on_c, 0, 75, 112
2, 98671, Note_on_c, 0, 51, 90
2, 98672, Note_on_c, 0, 49, 0
2, 98675, Note_on_c, 0, 63, 104
2, 98679, Note_on_c, 0, 49, 68
2, 98787, Note_on_c, 0, 51, 0
2, 98795, Note_on_c, 0, 51, 84
2, 98903, Note_on_c, 0, 51, 0
2, 98903, Note_on_c, 0, 58, 0
2, 98903, Note_on_c, 0, 68, 0
2, 98903, Note_on_c, 0, 80, 0
2, 98910, Note_on_c, 0, 80, 106
2, 98914, Note_on_c, 0, 68, 103
2, 98914, Note_on_c, 0, 51, 77
2, 98914, Note_on_c, 0, 58, 91
2, 99018, Note_on_c, 0, 49, 0
2, 99022, Note_on_c, 0, 61, 92
2, 99028, Note_on_c, 0, 49, 72
2, 99148, Note_on_c, 0, 58, 0
2, 99148, Note_on_c, 0, 63, 0
2, 99156, Note_on_c, 0, 70, 0
2, 99156, Note_on_c, 0, 82, 0
2, 99158, Note_on_c, 0, 63, 97
2, 99159, Note_on_c, 0, 58, 93
2, 99160, Note_on_c, 0, 82, 108
2, 99160, Note_on_c, 0, 70, 109
2, 99233, Note_on_c, 0, 61, 0
2, 99237, Note_on_c, 0, 61, 107
2, 99353, Note_on_c, 0, 56, 0
2, 99354, Note_on_c, 0, 87, 0
2, 99354, Note_on_c, 0, 68, 0
2, 99355, Note_on_c, 0, 49, 0
2, 99355, Note_on_c, 0, 63, 0
2, 99355, Note_on_c, 0, 58, 0
2, 99356, Note_on_c, 0, 70, 0
2, 99356, Control_c, 0, 64, 0
2, 99356, Note_on_c, 0, 61, 0
2, 99371, Note_on_c, 0, 39, 0
2, 99371, Note_on_c, 0, 46, 0
2, 99379, Note_on_c, 0, 75, 0
2, 99379, Note_on_c, 0, 80, 0
2, 99379, Note_on_c, 0, 82, 0
2, 99381, Note_on_c, 0, 87, 112
2, 99382, Note_on_c, 0, 39, 92
2, 99383, Note_on_c, 0, 75, 106
2, 99384, Note_on_c, 0, 82, 105
2, 99384, Note_on_c, 0, 80, 103
2, 99409, Control_c, 0, 64, 127
2, 99513, Note_on_c, 0, 46, 83
2, 99594, Note_on_c, 0, 51, 0
2, 99604, Note_on_c, 0, 51, 89
2, 99624, Note_on_c, 0, 80, 0
2, 99632, Note_on_c, 0, 82, 0
2, 99632, Note_on_c, 0, 92, 113
2, 99635, Note_on_c, 0, 80, 111
2, 99641, Note_on_c, 0, 82, 86
2, 99752, Note_on_c, 0, 37, 93
2, 99753, Note_on_c, 0, 49, 105
2, 99868, Note_on_c, 0, 44, 95
2, 99870, Note_on_c, 0, 82, 0
2, 99874, Note_on_c, 0, 82, 107
2, 99875, Note_on_c, 0, 94, 110
2, 99893, Note_on_c, 0, 92, 0
2, 99904, Note_on_c, 0, 92, 50
2, 100068, Note_on_c, 0, 94, 0
2, 100068, Note_on_c, 0, 92, 0
2, 100069, Note_on_c, 0, 80, 0
2, 100069, Note_on_c, 0, 82, 0
2, 100071, Note_on_c, 0, 37, 0
2, 100071, Note_on_c, 0, 75, 0
2, 100072, Note_on_c, 0, 44, 0
2, 100072, Note_on_c, 0, 49, 0
2, 100072, Note_on_c, 0, 46, 0
2, 100072, Control_c, 0, 64, 0
2, 100085, Note_on_c, 0, 51, 0
2, 100090, Note_on_c, 0, 48, 106
2, 100092, Note_on_c, 0, 36, 97
2, 100093, Note_on_c, 0, 87, 0
2, 100098, Note_on_c, 0, 87, 112
2, 100112, Note_on_c, 0, 83, 79
2, 100139, Control_c, 0, 64, 127
2, 100220, Note_on_c, 0, 44, 69
2, 100331, Note_on_c, 0, 83, 0
2, 100343, Note_on_c, 0, 104, 116
2, 100347, Note_on_c, 0, 96, 85
2, 100348, Note_on_c, 0, 92, 114
2, 100354, Note_on_c, 0, 104, 0
2, 100453, Note_on_c, 0, 46, 103
2, 100456, Note_on_c, 0, 34, 98
2, 100569, Note_on_c, 0, 44, 0
2, 100578, Note_on_c, 0, 44, 95
2, 100579, Note_on_c, 0, 103, 103
2, 100582, Note_on_c, 0, 94, 107
2, 100746, Note_on_c, 0, 103, 0
2, 100772, Note_on_c, 0, 96, 0
2, 100773, Note_on_c, 0, 34, 0
2, 100773, Note_on_c, 0, 92, 0
2, 100773, Note_on_c, 0, 94, 0
2, 100774, Note_on_c, 0, 46, 0
2, 100774, Note_on_c, 0, 87, 0
2, 100775, Note_on_c, 0, 44, 0
2, 100776, Control_c, 0, 64, 0
2, 100776, Note_on_c, 0, 39, 0
2, 100784, Note_on_c, 0, 48, 0
2, 100792, Note_on_c, 0, 36, 0
2, 100828, Note_on_c, 0, 92, 112
2, 100832, Note_on_c, 0, 80, 109
2, 100833, Note_on_c, 0, 32, 95
2, 100833, Note_on_c, 0, 87, 106
2, 100834, Note_on_c, 0, 84, 102
2, 100834, Note_on_c, 0, 44, 104
2, 100840, Note_on_c, 0, 39, 89
2, 100869, Control_c, 0, 64, 127
2, 101191, Note_on_c, 0, 44, 0
2, 101193, Note_on_c, 0, 63, 89
2, 101194, Note_on_c, 0, 56, 88
2, 101195, Note_on_c, 0, 51, 88
2, 101198, Note_on_c, 0, 44, 87
2, 101199, Note_on_c, 0, 63, 0
2, 101207, Note_on_c, 0, 60, 84
2, 101211, Note_on_c, 0, 48, 76
2, 101253, Note_on_c, 0, 60, 0
2, 101261, Note_on_c, 0, 60, 83
2, 101264, Note_on_c, 0, 63, 84
2, 101299, Note_on_c, 0, 51, 0
2, 101305, Note_on_c, 0, 51, 90
2, 101306, Note_on_c, 0, 44, 0
2, 101306, Note_on_c, 0, 56, 0
2, 101311, Note_on_c, 0, 44, 92
2, 101318, Note_on_c, 0, 56, 92
2, 101342, Note_on_c, 0, 68, 76
2, 101419, Note_on_c, 0, 72, 83
2, 101478, Note_on_c, 0, 75, 92
2, 101514, Note_on_c, 0, 80, 0
2, 101520, Note_on_c, 0, 80, 109
2, 101544, Note_on_c, 0, 56, 0
2, 101544, Note_on_c, 0, 60, 0
2, 101544, Note_on_c, 0, 63, 0
2, 101549, Note_on_c, 0, 63, 79
2, 101550, Note_on_c, 0, 60, 86
2, 101552, Note_on_c, 0, 44, 0
2, 101552, Note_on_c, 0, 51, 0
2, 101555, Note_on_c, 0, 56, 83
2, 101559, Note_on_c, 0, 44, 76
2, 101564, Note_on_c, 0, 51, 64
2, 101583, Note_on_c, 0, 75, 0
2, 101589, Note_on_c, 0, 75, 82
2, 101637, Note_on_c, 0, 72, 0
2, 101641, Note_on_c, 0, 72, 93
2, 101721, Note_on_c, 0, 56, 0
2, 101721, Note_on_c, 0, 68, 0
2, 101729, Note_on_c, 0, 48, 0
2, 101730, Note_on_c, 0, 56, 77
2, 101731, Note_on_c, 0, 68, 88
2, 101733, Note_on_c, 0, 48, 66
2, 101798, Note_on_c, 0, 72, 0
2, 101802, Note_on_c, 0, 72, 80
2, 101852, Note_on_c, 0, 75, 0
2, 101857, Note_on_c, 0, 75, 88
2, 101905, Note_on_c, 0, 56, 0
2, 101905, Note_on_c, 0, 60, 0
2, 101905, Note_on_c, 0, 63, 0
2, 101910, Note_on_c, 0, 60, 90
2, 101910, Note_on_c, 0, 63, 87
2, 101910, Note_on_c, 0, 56, 87
2, 101917, Note_on_c, 0, 66, 86
2, 101990, Note_on_c, 0, 84, 0
2, 102000, Note_on_c, 0, 84, 95
2, 102005, Note_on_c, 0, 60, 0
2, 102011, Note_on_c, 0, 60, 84
2, 102013, Note_on_c, 0, 56, 0
2, 102013, Note_on_c, 0, 63, 0
2, 102017, Note_on_c, 0, 56, 61
2, 102024, Note_on_c, 0, 63, 87
2, 102036, Note_on_c, 0, 87, 0
2, 102042, Note_on_c, 0, 87, 93
2, 102113, Note_on_c, 0, 56, 0
2, 102113, Note_on_c, 0, 60, 0
2, 102117, Note_on_c, 0, 56, 81
2, 102118, Note_on_c, 0, 60, 79
2, 102120, Note_on_c, 0, 63, 0
2, 102120, Note_on_c, 0, 68, 0
2, 102126, Note_on_c, 0, 63, 73
2, 102128, Note_on_c, 0, 92, 0
2, 102131, Note_on_c, 0, 68, 82
2, 102138, Note_on_c, 0, 92, 89
2, 102192, Note_on_c, 0, 96, 106
2, 102214, Note_on_c, 0, 99, 71
2, 102243, Note_on_c, 0, 68, 0
2, 102243, Note_on_c, 0, 75, 0
2, 102243, Note_on_c, 0, 96, 0
2, 102249, Note_on_c, 0, 96, 99
2, 102254, Note_on_c, 0, 103, 113
2, 102254, Note_on_c, 0, 75, 112
2, 102255, Note_on_c, 0, 68, 102
2, 102256, Note_on_c, 0, 104, 114
2, 102259, Note_on_c, 0, 103, 0
2, 102366, Note_on_c, 0, 96, 0
2, 102375, Note_on_c, 0, 96, 97
2, 102412, Note_on_c, 0, 92, 0
2, 102416, Note_on_c, 0, 92, 69
2, 102489, Note_on_c, 0, 87, 0
2, 102494, Note_on_c, 0, 87, 80
2, 102535, Note_on_c, 0, 84, 0
2, 102542, Note_on_c, 0, 84, 84
2, 102604, Note_on_c, 0, 80, 0
2, 102612, Note_on_c, 0, 56, 0
2, 102612, Note_on_c, 0, 63, 0
2, 102612, Note_on_c, 0, 72, 0
2, 102612, Note_on_c, 0, 75, 0
2, 102615, Note_on_c, 0, 80, 86
2, 102616, Note_on_c, 0, 63, 78
2, 102618, Note_on_c, 0, 72, 80
2, 102618, Note_on_c, 0, 75, 84
2, 102620, Note_on_c, 0, 60, 0
2, 102623, Note_on_c, 0, 56, 69
2, 102624, Note_on_c, 0, 60, 74
2, 102696, Note_on_c, 0, 75, 0
2, 102707, Note_on_c, 0, 75, 94
2, 102727, Note_on_c, 0, 60, 0
2, 102735, Note_on_c, 0, 56, 0
2, 102735, Note_on_c, 0, 72, 0
2, 102736, Note_on_c, 0, 60, 76
2, 102744, Note_on_c, 0, 72, 67
2, 102744, Note_on_c, 0, 56, 78
2, 102804, Note_on_c, 0, 68, 0
2, 102814, Note_on_c, 0, 68, 95
2, 102835, Note_on_c, 0, 56, 0
2, 102835, Note_on_c, 0, 75, 0
2, 102839, Note_on_c, 0, 56, 74
2, 102839, Note_on_c, 0, 75, 63
2, 102942, Note_on_c, 0, 63, 0
2, 102942, Note_on_c, 0, 72, 0
2, 102942, Note_on_c, 0, 75, 0
2, 102947, Note_on_c, 0, 79, 113
2, 102949, Note_on_c, 0, 63, 97
2, 102951, Note_on_c, 0, 75, 108
2, 102951, Note_on_c, 0, 67, 106
2, 102952, Note_on_c, 0, 72, 108
2, 102988, Note_on_c, 0, 60, 0
2, 102994, Note_on_c, 0, 60, 62
2, 103050, Note_on_c, 0, 56, 0
2, 103057, Note_on_c, 0, 56, 78
2, 103150, Note_on_c, 0, 51, 0
2, 103160, Note_on_c, 0, 51, 94
2, 103219, Note_on_c, 0, 48, 0
2, 103223, Note_on_c, 0, 48, 50
2, 103288, Note_on_c, 0, 44, 0
2, 103288, Note_on_c, 0, 68, 0
2, 103288, Note_on_c, 0, 80, 0
2, 103295, Note_on_c, 0, 44, 96
2, 103297, Note_on_c, 0, 80, 113
2, 103299, Note_on_c, 0, 68, 109
2, 103331, Note_on_c, 0, 78, 62
2, 103411, Note_on_c, 0, 39, 0
2, 103422, Note_on_c, 0, 39, 82
2, 103525, Note_on_c, 0, 34, 83
2, 103603, Note_on_c, 0, 104, 0
2, 103614, Note_on_c, 0, 96, 0
2, 103614, Note_on_c, 0, 99, 0
2, 103614, Note_on_c, 0, 92, 0
2, 103615, Note_on_c, 0, 75, 0
2, 103615, Note_on_c, 0, 79, 0
2, 103615, Note_on_c, 0, 87, 0
2, 103615, Note_on_c, 0, 48, 0
2, 103615, Note_on_c, 0, 56, 0
2, 103615, Note_on_c, 0, 84, 0
2, 103615, Note_on_c, 0, 63, 0
2, 103615, Note_on_c, 0, 80, 0
2, 103615, Note_on_c, 0, 78, 0
2, 103615, Note_on_c, 0, 39, 0
2, 103616, Note_on_c, 0, 68, 0
2, 103616, Note_on_c, 0, 60, 0
2, 103616, Note_on_c, 0, 67, 0
2, 103616, Note_on_c, 0, 44, 0
2, 103622, Control_c, 0, 64, 0
2, 103626, Note_on_c, 0, 66, 0
2, 103633, Note_on_c, 0, 34, 0
2, 103633, Note_on_c, 0, 51, 0
2, 103633, Note_on_c, 0, 72, 0
2, 103641, Note_on_c, 0, 32, 0
2, 103661, Note_on_c, 0, 82, 112
2, 103666, Note_on_c, 0, 73, 111
2, 103666, Note_on_c, 0, 70, 114
2, 103667, Note_on_c, 0, 78, 106
2, 103671, Note_on_c, 0, 30, 102
2, 103673, Note_on_c, 0, 42, 102
2, 103726, Control_c, 0, 64, 127
2, 104057, Note_on_c, 0, 58, 86
2, 104057, Note_on_c, 0, 54, 84
2, 104058, Note_on_c, 0, 46, 84
2, 104059, Note_on_c, 0, 49, 67
2, 104110, Note_on_c, 0, 42, 0
2, 104112, Note_on_c, 0, 61, 82
2, 104116, Note_on_c, 0, 42, 72
2, 104156, Note_on_c, 0, 49, 0
2, 104156, Note_on_c, 0, 54, 0
2, 104163, Note_on_c, 0, 54, 73
2, 104166, Note_on_c, 0, 49, 73
2, 104225, Note_on_c, 0, 58, 0
2, 104225, Note_on_c, 0, 70, 0
2, 104229, Note_on_c, 0, 70, 93
2, 104234, Note_on_c, 0, 58, 75
2, 104271, Note_on_c, 0, 61, 0
2, 104279, Note_on_c, 0, 73, 0
2, 104281, Note_on_c, 0, 61, 81
2, 104283, Note_on_c, 0, 73, 96
2, 104348, Note_on_c, 0, 78, 0
2, 104352, Note_on_c, 0, 78, 91
2, 104378, Note_on_c, 0, 82, 0
2, 104384, Note_on_c, 0, 82, 109
2, 104401, Note_on_c, 0, 58, 0
2, 104401, Note_on_c, 0, 61, 0
2, 104410, Note_on_c, 0, 61, 88
2, 104411, Note_on_c, 0, 66, 95
2, 104412, Note_on_c, 0, 58, 89
2, 104455, Note_on_c, 0, 78, 0
2, 104461, Note_on_c, 0, 78, 107
2, 104540, Note_on_c, 0, 73, 0
2, 104548, Note_on_c, 0, 73, 89
2, 104609, Note_on_c, 0, 70, 0
2, 104615, Note_on_c, 0, 70, 100
2, 104678, Note_on_c, 0, 73, 0
2, 104682, Note_on_c, 0, 73, 76
2, 104732, Note_on_c, 0, 58, 0
2, 104732, Note_on_c, 0, 66, 0
2, 104732, Note_on_c, 0, 78, 0
2, 104737, Note_on_c, 0, 78, 95
2, 104739, Note_on_c, 0, 61, 0
2, 104741, Note_on_c, 0, 66, 100
2, 104742, Note_on_c, 0, 58, 82
2, 104744, Note_on_c, 0, 61, 79
2, 104801, Note_on_c, 0, 82, 0
2, 104810, Note_on_c, 0, 82, 95
2, 104839, Note_on_c, 0, 58, 0
2, 104839, Note_on_c, 0, 61, 0
2, 104839, Note_on_c, 0, 66, 0
2, 104849, Note_on_c, 0, 85, 94
2, 104850, Note_on_c, 0, 66, 90
2, 104850, Note_on_c, 0, 61, 89
2, 104850, Note_on_c, 0, 58, 81
2, 104900, Note_on_c, 0, 90, 66
2, 104908, Note_on_c, 0, 90, 0
2, 104939, Note_on_c, 0, 58, 0
2, 104939, Note_on_c, 0, 61, 0
2, 104945, Note_on_c, 0, 61, 88
2, 104947, Note_on_c, 0, 66, 0
2, 104949, Note_on_c, 0, 58, 77
2, 104951, Note_on_c, 0, 66, 88
2, 104952, Note_on_c, 0, 90, 83
2, 104957, Note_on_c, 0, 94, 94
2, 105012, Note_on_c, 0, 97, 107
2, 105073, Note_on_c, 0, 102, 99
2, 105100, Note_on_c, 0, 70, 0
2, 105100, Note_on_c, 0, 73, 0
2, 105100, Note_on_c, 0, 78, 0
2, 105109, Note_on_c, 0, 78, 107
2, 105111, Note_on_c, 0, 70, 100
2, 105112, Note_on_c, 0, 73, 105
2, 105162, Note_on_c, 0, 102, 0
2, 105171, Note_on_c, 0, 102, 98
2, 105231, Note_on_c, 0, 97, 0
2, 105235, Note_on_c, 0, 97, 105
2, 105338, Note_on_c, 0, 90, 0
2, 105338, Note_on_c, 0, 102, 0
2, 105343, Note_on_c, 0, 102, 93
2, 105346, Note_on_c, 0, 90, 93
2, 105400, Note_on_c, 0, 85, 0
2, 105409, Note_on_c, 0, 85, 89
2, 105461, Note_on_c, 0, 66, 0
2, 105466, Note_on_c, 0, 66, 86
2, 105469, Note_on_c, 0, 58, 0
2, 105469, Note_on_c, 0, 61, 0
2, 105473, Note_on_c, 0, 61, 70
2, 105477, Note_on_c, 0, 58, 72
2, 105569, Note_on_c, 0, 66, 0
2, 105569, Note_on_c, 0, 73, 0
2, 105569, Note_on_c, 0, 78, 0
2, 105574, Note_on_c, 0, 78, 92
2, 105576, Note_on_c, 0, 61, 0
2, 105578, Note_on_c, 0, 73, 87
2, 105579, Note_on_c, 0, 66, 75
2, 105581, Note_on_c, 0, 61, 84
2, 105623, Note_on_c, 0, 73, 0
2, 105630, Note_on_c, 0, 73, 87
2, 105669, Note_on_c, 0, 70, 0
2, 105674, Note_on_c, 0, 70, 98
2, 105692, Note_on_c, 0, 58, 0
2, 105702, Note_on_c, 0, 58, 75
2, 105792, Note_on_c, 0, 58, 0
2, 105792, Note_on_c, 0, 66, 0
2, 105792, Note_on_c, 0, 73, 0
2, 105795, Note_on_c, 0, 80, 112
2, 105796, Note_on_c, 0, 73, 112
2, 105798, Note_on_c, 0, 75, 106
2, 105800, Note_on_c, 0, 58, 94
2, 105801, Note_on_c, 0, 66, 104
2, 105801, Note_on_c, 0, 68, 109
2, 105861, Note_on_c, 0, 61, 0
2, 105872, Note_on_c, 0, 61, 73
2, 105937, Note_on_c, 0, 30, 0
2, 105953, Note_on_c, 0, 58, 0
2, 105958, Note_on_c, 0, 58, 88
2, 106045, Note_on_c, 0, 54, 0
2, 106050, Note_on_c, 0, 54, 93
2, 106129, Note_on_c, 0, 49, 0
2, 106134, Note_on_c, 0, 49, 88
2, 106183, Note_on_c, 0, 46, 0
2, 106188, Note_on_c, 0, 46, 86
2, 106291, Note_on_c, 0, 42, 0
2, 106296, Note_on_c, 0, 42, 78
2, 106299, Note_on_c, 0, 30, 76
2, 106418, Note_on_c, 0, 37, 70
2, 106459, Note_on_c, 0, 97, 0
2, 106461, Note_on_c, 0, 68, 0
2, 106461, Note_on_c, 0, 54, 0
2, 106461, Note_on_c, 0, 46, 0
2, 106461, Note_on_c, 0, 80, 0
2, 106461, Note_on_c, 0, 61, 0
2, 106461, Note_on_c, 0, 66, 0
2, 106461, Note_on_c, 0, 58, 0
2, 106461, Note_on_c, 0, 78, 0
2, 106461, Note_on_c, 0, 85, 0
2, 106462, Note_on_c, 0, 75, 0
2, 106462, Note_on_c, 0, 70, 0
2, 106462, Note_on_c, 0, 49, 0
2, 106462, Note_on_c, 0, 94, 0
2, 106462, Note_on_c, 0, 42, 0
2, 106464, Control_c, 0, 64, 0
2, 106475, Note_on_c, 0, 30, 0
2, 106475, Note_on_c, 0, 37, 0
2, 106475, Note_on_c, 0, 73, 0
2, 106475, Note_on_c, 0, 82, 0
2, 106475, Note_on_c, 0, 90, 0
2, 106475, Note_on_c, 0, 102, 0
2, 106517, Note_on_c, 0, 75, 114
2, 106518, Note_on_c, 0, 87, 114
2, 106524, Note_on_c, 0, 80, 103
2, 106532, Note_on_c, 0, 41, 93
2, 106533, Note_on_c, 0, 29, 89
2, 106533, Note_on_c, 0, 82, 92
2, 106544, Control_c, 0, 64, 127
2, 106883, Note_on_c, 0, 44, 86
2, 106884, Note_on_c, 0, 56, 84
2, 106885, Note_on_c, 0, 53, 80
2, 106892, Note_on_c, 0, 49, 80
2, 106940, Note_on_c, 0, 61, 86
2, 106982, Note_on_c, 0, 49, 0
2, 106982, Note_on_c, 0, 53, 0
2, 106982, Note_on_c, 0, 56, 0
2, 106988, Note_on_c, 0, 49, 88
2, 106990, Note_on_c, 0, 53, 81
2, 106992, Note_on_c, 0, 56, 78
2, 107079, Note_on_c, 0, 70, 87
2, 107082, Note_on_c, 0, 49, 0
2, 107082, Note_on_c, 0, 53, 0
2, 107082, Note_on_c, 0, 56, 0
2, 107085, Note_on_c, 0, 58, 77
2, 107086, Note_on_c, 0, 53, 78
2, 107087, Note_on_c, 0, 46, 71
2, 107089, Note_on_c, 0, 70, 0
2, 107091, Note_on_c, 0, 49, 80
2, 107091, Note_on_c, 0, 56, 77
2, 107130, Note_on_c, 0, 73, 87
2, 107182, Note_on_c, 0, 75, 0
2, 107192, Note_on_c, 0, 75, 88
2, 107228, Note_on_c, 0, 56, 0
2, 107228, Note_on_c, 0, 61, 0
2, 107228, Note_on_c, 0, 80, 0
2, 107235, Note_on_c, 0, 61, 91
2, 107237, Note_on_c, 0, 80, 97
2, 107238, Note_on_c, 0, 65, 92
2, 107238, Note_on_c, 0, 56, 85
2, 107312, Note_on_c, 0, 75, 0
2, 107322, Note_on_c, 0, 75, 94
2, 107374, Note_on_c, 0, 73, 0
2, 107381, Note_on_c, 0, 61, 0
2, 107384, Note_on_c, 0, 73, 87
2, 107388, Note_on_c, 0, 61, 77
2, 107420, Note_on_c, 0, 56, 0
2, 107428, Note_on_c, 0, 56, 73
2, 107430, Note_on_c, 0, 68, 84
2, 107558, Note_on_c, 0, 65, 0
2, 107562, Note_on_c, 0, 89, 112
2, 107565, Note_on_c, 0, 77, 111
2, 107566, Note_on_c, 0, 61, 0
2, 107569, Note_on_c, 0, 65, 99
2, 107572, Note_on_c, 0, 61, 88
2, 107573, Note_on_c, 0, 56, 0
2, 107578, Note_on_c, 0, 56, 82
2, 107673, Note_on_c, 0, 56, 0
2, 107673, Note_on_c, 0, 61, 0
2, 107673, Note_on_c, 0, 65, 0
2, 107683, Note_on_c, 0, 65, 96
2, 107683, Note_on_c, 0, 61, 94
2, 107684, Note_on_c, 0, 56, 93
2, 107788, Note_on_c, 0, 56, 0
2, 107788, Note_on_c, 0, 61, 0
2, 107788, Note_on_c, 0, 65, 0
2, 107793, Note_on_c, 0, 65, 86
2, 107795, Note_on_c, 0, 56, 88
2, 107796, Note_on_c, 0, 61, 77
2, 107896, Note_on_c, 0, 65, 0
2, 107896, Note_on_c, 0, 68, 0
2, 107896, Note_on_c, 0, 77, 0
2, 107896, Note_on_c, 0, 80, 0
2, 107903, Note_on_c, 0, 80, 110
2, 107904, Note_on_c, 0, 56, 0
2, 107904, Note_on_c, 0, 61, 0
2, 107904, Note_on_c, 0, 73, 0
2, 107904, Note_on_c, 0, 68, 116
2, 107905, Note_on_c, 0, 77, 110
2, 107907, Note_on_c, 0, 65, 97
2, 107908, Note_on_c, 0, 73, 109
2, 107910, Note_on_c, 0, 61, 101
2, 107913, Note_on_c, 0, 56, 91
2, 108049, Note_on_c, 0, 68, 0
2, 108057, Note_on_c, 0, 56, 0
2, 108057, Note_on_c, 0, 61, 0
2, 108060, Note_on_c, 0, 68, 80
2, 108065, Note_on_c, 0, 61, 65
2, 108067, Note_on_c, 0, 56, 44
2, 108126, Note_on_c, 0, 73, 0
2, 108134, Note_on_c, 0, 73, 82
2, 108172, Note_on_c, 0, 75, 0
2, 108183, Note_on_c, 0, 75, 90
2, 108249, Note_on_c, 0, 61, 0
2, 108249, Note_on_c, 0, 65, 0
2, 108256, Note_on_c, 0, 61, 100
2, 108257, Note_on_c, 0, 56, 0
2, 108259, Note_on_c, 0, 65, 90
2, 108262, Note_on_c, 0, 56, 72
2, 108324, Note_on_c, 0, 85, 87
2, 108341, Note_on_c, 0, 87, 0
2, 108349, Note_on_c, 0, 68, 0
2, 108351, Note_on_c, 0, 87, 94
2, 108357, Note_on_c, 0, 61, 0
2, 108357, Note_on_c, 0, 65, 0
2, 108360, Note_on_c, 0, 68, 84
2, 108366, Note_on_c, 0, 65, 68
2, 108367, Note_on_c, 0, 61, 83
2, 108433, Note_on_c, 0, 61, 0
2, 108433, Note_on_c, 0, 73, 0
2, 108437, Note_on_c, 0, 92, 106
2, 108441, Note_on_c, 0, 56, 0
2, 108441, Note_on_c, 0, 65, 0
2, 108444, Note_on_c, 0, 73, 101
2, 108445, Note_on_c, 0, 61, 94
2, 108448, Note_on_c, 0, 56, 80
2, 108449, Note_on_c, 0, 65, 90
2, 108501, Note_on_c, 0, 97, 103
2, 108560, Note_on_c, 0, 99, 81
2, 108602, Note_on_c, 0, 68, 0
2, 108602, Note_on_c, 0, 73, 0
2, 108602, Note_on_c, 0, 77, 0
2, 108604, Note_on_c, 0, 104, 117
2, 108610, Note_on_c, 0, 104, 0
2, 108613, Note_on_c, 0, 77, 109
2, 108613, Note_on_c, 0, 68, 106
2, 108614, Note_on_c, 0, 73, 104
2, 108710, Note_on_c, 0, 97, 0
2, 108715, Note_on_c, 0, 97, 102
2, 108741, Note_on_c, 0, 92, 0
2, 108746, Note_on_c, 0, 92, 72
2, 108817, Note_on_c, 0, 87, 0
2, 108828, Note_on_c, 0, 87, 101
2, 108848, Note_on_c, 0, 65, 0
2, 108855, Note_on_c, 0, 65, 91
2, 108856, Note_on_c, 0, 56, 0
2, 108856, Note_on_c, 0, 61, 0
2, 108862, Note_on_c, 0, 61, 90
2, 108864, Note_on_c, 0, 85, 0
2, 108867, Note_on_c, 0, 56, 88
2, 108874, Note_on_c, 0, 85, 77
2, 108948, Note_on_c, 0, 80, 0
2, 108955, Note_on_c, 0, 80, 85
2, 109048, Note_on_c, 0, 75, 0
2, 109059, Note_on_c, 0, 75, 83
2, 109063, Note_on_c, 0, 53, 0
2, 109071, Note_on_c, 0, 44, 0
2, 109074, Note_on_c, 0, 53, 69
2, 109079, Note_on_c, 0, 49, 0
2, 109082, Note_on_c, 0, 44, 80
2, 109087, Note_on_c, 0, 49, 79
2, 109102, Note_on_c, 0, 73, 0
2, 109106, Note_on_c, 0, 73, 85
2, 109163, Note_on_c, 0, 68, 0
2, 109173, Note_on_c, 0, 68, 92
2, 109268, Control_c, 0, 64, 0
2, 109268, Note_on_c, 0, 92, 0
2, 109269, Note_on_c, 0, 97, 0
2, 109269, Note_on_c, 0, 41, 0
2, 109269, Note_on_c, 0, 85, 0
2, 109269, Note_on_c, 0, 99, 0
2, 109270, Note_on_c, 0, 89, 0
2, 109271, Note_on_c, 0, 29, 0
2, 109271, Note_on_c, 0, 58, 0
2, 109271, Note_on_c, 0, 49, 0
2, 109271, Note_on_c, 0, 80, 0
2, 109271, Note_on_c, 0, 73, 0
2, 109271, Note_on_c, 0, 56, 0
2, 109271, Note_on_c, 0, 65, 0
2, 109272, Note_on_c, 0, 68, 0
2, 109272, Note_on_c, 0, 61, 0
2, 109272, Note_on_c, 0, 44, 0
2, 109278, Note_on_c, 0, 46, 0
2, 109286, Note_on_c, 0, 53, 0
2, 109286, Note_on_c, 0, 75, 0
2, 109286, Note_on_c, 0, 77, 0
2, 109286, Note_on_c, 0, 82, 0
2, 109286, Note_on_c, 0, 87, 0
2, 109305, Note_on_c, 0, 28, 88
2, 109306, Note_on_c, 0, 40, 83
2, 109340, Control_c, 0, 64, 127
2, 109397, Note_on_c, 0, 56, 91
2, 109458, Note_on_c, 0, 61, 84
2, 109492, Note_on_c, 0, 63, 77
2, 109571, Note_on_c, 0, 68, 89
2, 109608, Note_on_c, 0, 61, 0
2, 109614, Note_on_c, 0, 61, 89
2, 109616, Note_on_c, 0, 73, 96
2, 109639, Note_on_c, 0, 40, 0
2, 109644, Note_on_c, 0, 40, 79
2, 109646, Note_on_c, 0, 75, 96
2, 109735, Note_on_c, 0, 80, 87
2, 109783, Note_on_c, 0, 85, 88
2, 109821, Note_on_c, 0, 87, 92
2, 109834, Note_on_c, 0, 92, 108
2, 109977, Note_on_c, 0, 68, 0
2, 109977, Note_on_c, 0, 80, 0
2, 109984, Note_on_c, 0, 80, 111
2, 109985, Note_on_c, 0, 73, 0
2, 109988, Note_on_c, 0, 64, 99
2, 109988, Note_on_c, 0, 68, 110
2, 109989, Note_on_c, 0, 73, 101
2, 109992, Note_on_c, 0, 76, 101
2, 110008, Note_on_c, 0, 61, 0
2, 110013, Note_on_c, 0, 61, 76
2, 110020, Note_on_c, 0, 78, 58
2, 110069, Note_on_c, 0, 56, 0
2, 110080, Note_on_c, 0, 56, 86
2, 110172, Note_on_c, 0, 52, 77
2, 110219, Note_on_c, 0, 49, 87
2, 110338, Note_on_c, 0, 40, 0
2, 110343, Note_on_c, 0, 82, 114
2, 110345, Note_on_c, 0, 40, 83
2, 110349, Note_on_c, 0, 70, 111
2, 110400, Note_on_c, 0, 49, 0
2, 110409, Note_on_c, 0, 49, 96
2, 110469, Note_on_c, 0, 52, 0
2, 110480, Note_on_c, 0, 52, 84
2, 110568, Note_on_c, 0, 56, 0
2, 110574, Note_on_c, 0, 56, 85
2, 110622, Note_on_c, 0, 61, 0
2, 110631, Note_on_c, 0, 61, 84
2, 110691, Note_on_c, 0, 64, 0
2, 110691, Note_on_c, 0, 73, 0
2, 110691, Note_on_c, 0, 76, 0
2, 110691, Note_on_c, 0, 80, 0
2, 110691, Note_on_c, 0, 85, 0
2, 110696, Note_on_c, 0, 85, 116
2, 110696, Note_on_c, 0, 64, 98
2, 110696, Note_on_c, 0, 73, 116
2, 110697, Note_on_c, 0, 76, 111
2, 110700, Note_on_c, 0, 80, 102
2, 110768, Note_on_c, 0, 56, 0
2, 110772, Note_on_c, 0, 56, 90
2, 110883, Note_on_c, 0, 52, 0
2, 110892, Note_on_c, 0, 52, 78
2, 110945, Note_on_c, 0, 49, 0
2, 110956, Note_on_c, 0, 49, 85
2, 111052, Note_on_c, 0, 40, 0
2, 111059, Note_on_c, 0, 40, 82
2, 111114, Note_on_c, 0, 49, 0
2, 111125, Note_on_c, 0, 49, 62
2, 111183, Note_on_c, 0, 52, 0
2, 111187, Note_on_c, 0, 52, 92
2, 111290, Note_on_c, 0, 56, 0
2, 111297, Note_on_c, 0, 56, 79
2, 111329, Note_on_c, 0, 61, 0
2, 111334, Note_on_c, 0, 61, 81
2, 111398, Note_on_c, 0, 64, 0
2, 111402, Note_on_c, 0, 64, 102
2, 111406, Note_on_c, 0, 76, 0
2, 111406, Note_on_c, 0, 80, 0
2, 111408, Note_on_c, 0, 84, 110
2, 111408, Note_on_c, 0, 72, 108
2, 111410, Note_on_c, 0, 76, 110
2, 111412, Note_on_c, 0, 80, 102
2, 111467, Note_on_c, 0, 56, 0
2, 111473, Note_on_c, 0, 56, 97
2, 111567, Note_on_c, 0, 52, 0
2, 111573, Note_on_c, 0, 52, 83
2, 111621, Note_on_c, 0, 49, 0
2, 111626, Note_on_c, 0, 49, 72
2, 111736, Note_on_c, 0, 40, 0
2, 111736, Note_on_c, 0, 80, 0
2, 111744, Note_on_c, 0, 68, 0
2, 111746, Note_on_c, 0, 80, 99
2, 111747, Note_on_c, 0, 40, 70
2, 111752, Note_on_c, 0, 68, 106
2, 111820, Note_on_c, 0, 49, 0
2, 111827, Note_on_c, 0, 49, 82
2, 111974, Note_on_c, 0, 56, 0
2, 111978, Note_on_c, 0, 56, 79
2, 111986, Note_on_c, 0, 60, 65
2, 112043, Note_on_c, 0, 61, 0
2, 112052, Note_on_c, 0, 61, 99
2, 112056, Note_on_c, 0, 40, 0
2, 112057, Note_on_c, 0, 82, 0
2, 112058, Note_on_c, 0, 64, 0
2, 112058, Note_on_c, 0, 52, 0
2, 112058, Note_on_c, 0, 70, 0
2, 112058, Note_on_c, 0, 78, 0
2, 112058, Note_on_c, 0, 73, 0
2, 112059, Note_on_c, 0, 76, 0
2, 112059, Note_on_c, 0, 85, 0
2, 112059, Note_on_c, 0, 84, 0
2, 112059, Note_on_c, 0, 75, 0
2, 112059, Note_on_c, 0, 87, 0
2, 112059, Control_c, 0, 64, 0
2, 112059, Note_on_c, 0, 80, 0
2, 112060, Note_on_c, 0, 63, 0
2, 112060, Note_on_c, 0, 72, 0
2, 112060, Note_on_c, 0, 49, 0
2, 112060, Note_on_c, 0, 56, 0
2, 112061, Note_on_c, 0, 68, 0
2, 112066, Note_on_c, 0, 92, 0
2, 112074, Note_on_c, 0, 60, 0
2, 112081, Note_on_c, 0, 28, 0
2, 112104, Note_on_c, 0, 61, 0
2, 112130, Note_on_c, 0, 39, 90
2, 112130, Note_on_c, 0, 27, 93
2, 112151, Control_c, 0, 64, 127
2, 112388, Note_on_c, 0, 48, 73
2, 112392, Note_on_c, 0, 51, 70
2, 112443, Note_on_c, 0, 68, 81
2, 112446, Note_on_c, 0, 75, 73
2, 112611, Note_on_c, 0, 51, 0
2, 112622, Note_on_c, 0, 51, 50
2, 112628, Note_on_c, 0, 56, 71
2, 112680, Note_on_c, 0, 68, 0
2, 112692, Note_on_c, 0, 68, 86
2, 112692, Note_on_c, 0, 72, 82
2, 112834, Note_on_c, 0, 56, 0
2, 112840, Note_on_c, 0, 60, 90
2, 112843, Note_on_c, 0, 56, 85
2, 112880, Note_on_c, 0, 75, 0
2, 112888, Note_on_c, 0, 68, 0
2, 112891, Note_on_c, 0, 75, 110
2, 112891, Note_on_c, 0, 63, 91
2, 112893, Note_on_c, 0, 68, 106
2, 113080, Note_on_c, 0, 51, 0
2, 113080, Note_on_c, 0, 56, 0
2, 113080, Note_on_c, 0, 60, 0
2, 113087, Note_on_c, 0, 51, 75
2, 113089, Note_on_c, 0, 56, 86
2, 113091, Note_on_c, 0, 60, 75
2, 113149, Note_on_c, 0, 72, 0
2, 113156, Note_on_c, 0, 72, 93
2, 113157, Note_on_c, 0, 68, 0
2, 113157, Note_on_c, 0, 75, 0
2, 113162, Note_on_c, 0, 68, 71
2, 113162, Note_on_c, 0, 75, 79
2, 113310, Note_on_c, 0, 56, 0
2, 113310, Note_on_c, 0, 60, 0
2, 113318, Note_on_c, 0, 51, 0
2, 113321, Note_on_c, 0, 60, 85
2, 113322, Note_on_c, 0, 56, 73
2, 113323, Note_on_c, 0, 51, 43
2, 113387, Note_on_c, 0, 68, 0
2, 113387, Note_on_c, 0, 72, 0
2, 113387, Note_on_c, 0, 75, 0
2, 113391, Note_on_c, 0, 75, 97
2, 113394, Note_on_c, 0, 68, 92
2, 113397, Note_on_c, 0, 72, 91
2, 113548, Note_on_c, 0, 63, 0
2, 113554, Note_on_c, 0, 63, 93
2, 113556, Note_on_c, 0, 60, 0
2, 113562, Note_on_c, 0, 60, 83
2, 113587, Note_on_c, 0, 68, 0
2, 113587, Note_on_c, 0, 72, 0
2, 113587, Note_on_c, 0, 75, 0
2, 113595, Note_on_c, 0, 68, 111
2, 113595, Note_on_c, 0, 75, 104
2, 113597, Note_on_c, 0, 72, 103
2, 113597, Note_on_c, 0, 80, 109
2, 113779, Note_on_c, 0, 60, 0
2, 113784, Note_on_c, 0, 48, 0
2, 113786, Note_on_c, 0, 51, 0
2, 113786, Note_on_c, 0, 56, 0
2, 113788, Note_on_c, 0, 60, 77
2, 113791, Note_on_c, 0, 56, 78
2, 113792, Note_on_c, 0, 51, 57
2, 113832, Note_on_c, 0, 75, 0
2, 113840, Note_on_c, 0, 72, 0
2, 113843, Note_on_c, 0, 75, 97
2, 113845, Note_on_c, 0, 72, 95
2, 114017, Note_on_c, 0, 56, 0
2, 114017, Note_on_c, 0, 60, 0
2, 114017, Note_on_c, 0, 63, 0
2, 114017, Note_on_c, 0, 72, 0
2, 114024, Note_on_c, 0, 72, 83
2, 114024, Note_on_c, 0, 60, 86
2, 114027, Note_on_c, 0, 63, 83
2, 114028, Note_on_c, 0, 56, 61
2, 114078, Note_on_c, 0, 72, 0
2, 114078, Note_on_c, 0, 75, 0
2, 114078, Note_on_c, 0, 80, 0
2, 114083, Note_on_c, 0, 80, 98
2, 114088, Note_on_c, 0, 75, 99
2, 114089, Note_on_c, 0, 72, 85
2, 114247, Note_on_c, 0, 60, 0
2, 114247, Note_on_c, 0, 63, 0
2, 114247, Note_on_c, 0, 68, 0
2, 114252, Note_on_c, 0, 63, 85
2, 114252, Note_on_c, 0, 68, 94
2, 114253, Note_on_c, 0, 60, 63
2, 114301, Note_on_c, 0, 72, 0
2, 114301, Note_on_c, 0, 75, 0
2, 114301, Note_on_c, 0, 80, 0
2, 114305, Note_on_c, 0, 84, 108
2, 114305, Note_on_c, 0, 75, 111
2, 114306, Note_on_c, 0, 72, 110
2, 114311, Note_on_c, 0, 80, 98
2, 114485, Note_on_c, 0, 56, 0
2, 114485, Note_on_c, 0, 60, 0
2, 114485, Note_on_c, 0, 63, 0
2, 114489, Note_on_c, 0, 63, 89
2, 114489, Note_on_c, 0, 60, 90
2, 114494, Note_on_c, 0, 56, 56
2, 114547, Note_on_c, 0, 75, 0
2, 114547, Note_on_c, 0, 80, 0
2, 114553, Note_on_c, 0, 80, 101
2, 114553, Note_on_c, 0, 75, 111
2, 114554, Note_on_c, 0, 87, 95
2, 114562, Note_on_c, 0, 87, 0
2, 114693, Note_on_c, 0, 60, 0
2, 114693, Note_on_c, 0, 63, 0
2, 114693, Note_on_c, 0, 68, 0
2, 114701, Note_on_c, 0, 68, 98
2, 114702, Note_on_c, 0, 63, 83
2, 114703, Note_on_c, 0, 60, 80
2, 114754, Note_on_c, 0, 75, 0
2, 114754, Note_on_c, 0, 84, 0
2, 114758, Note_on_c, 0, 84, 97
2, 114760, Note_on_c, 0, 75, 108
2, 114900, Note_on_c, 0, 27, 0
2, 114936, Note_on_c, 0, 51, 0
2, 114936, Note_on_c, 0, 63, 0
2, 114936, Note_on_c, 0, 68, 0
2, 114936, Note_on_c, 0, 60, 0
2, 114936, Note_on_c, 0, 56, 0
2, 114936, Note_on_c, 0, 75, 0
2, 114936, Note_on_c, 0, 80, 0
2, 114936, Note_on_c, 0, 72, 0
2, 114937, Note_on_c, 0, 84, 0
2, 114938, Control_c, 0, 64, 0
2, 114946, Note_on_c, 0, 39, 0
2, 114974, Note_on_c, 0, 77, 101
2, 114977, Note_on_c, 0, 38, 82
2, 114977, Note_on_c, 0, 82, 110
2, 114979, Note_on_c, 0, 74, 101
2, 114979, Note_on_c, 0, 70, 110
2, 114982, Note_on_c, 0, 26, 90
2, 114990, Note_on_c, 0, 34, 81
2, 115023, Note_on_c, 0, 34, 0
2, 115023, Control_c, 0, 64, 127
2, 115254, Note_on_c, 0, 41, 67
2, 115264, Note_on_c, 0, 46, 78
2, 115299, Note_on_c, 0, 70, 0
2, 115305, Note_on_c, 0, 70, 75
2, 115307, Note_on_c, 0, 62, 80
2, 115308, Note_on_c, 0, 58, 81
2, 115453, Note_on_c, 0, 41, 0
2, 115453, Note_on_c, 0, 46, 0
2, 115458, Note_on_c, 0, 41, 65
2, 115459, Note_on_c, 0, 46, 69
2, 115462, Note_on_c, 0, 50, 68
2, 115511, Note_on_c, 0, 65, 91
2, 115514, Note_on_c, 0, 62, 0
2, 115519, Note_on_c, 0, 62, 86
2, 115660, Note_on_c, 0, 50, 0
2, 115670, Note_on_c, 0, 50, 82
2, 115671, Note_on_c, 0, 53, 78
2, 115714, Note_on_c, 0, 58, 0
2, 115714, Note_on_c, 0, 65, 0
2, 115714, Note_on_c, 0, 70, 0
2, 115719, Note_on_c, 0, 70, 106
2, 115719, Note_on_c, 0, 65, 103
2, 115719, Note_on_c, 0, 58, 88
2, 115737, Note_on_c, 0, 62, 0
2, 115742, Note_on_c, 0, 62, 67
2, 115898, Note_on_c, 0, 46, 0
2, 115898, Note_on_c, 0, 50, 0
2, 115902, Note_on_c, 0, 50, 65
2, 115908, Note_on_c, 0, 46, 75
2, 115952, Note_on_c, 0, 65, 0
2, 115952, Note_on_c, 0, 74, 0
2, 115957, Note_on_c, 0, 65, 93
2, 115960, Note_on_c, 0, 62, 0
2, 115963, Note_on_c, 0, 74, 87
2, 115965, Note_on_c, 0, 62, 94
2, 116136, Note_on_c, 0, 50, 0
2, 116136, Note_on_c, 0, 53, 0
2, 116142, Note_on_c, 0, 50, 74
2, 116147, Note_on_c, 0, 53, 84
2, 116175, Note_on_c, 0, 58, 0
2, 116183, Note_on_c, 0, 65, 0
2, 116183, Note_on_c, 0, 70, 0
2, 116186, Note_on_c, 0, 58, 92
2, 116186, Note_on_c, 0, 70, 106
2, 116188, Note_on_c, 0, 65, 99
2, 116193, Note_on_c, 0, 68, 85
2, 116359, Note_on_c, 0, 53, 0
2, 116359, Note_on_c, 0, 58, 0
2, 116364, Note_on_c, 0, 58, 90
2, 116364, Note_on_c, 0, 53, 65
2, 116405, Note_on_c, 0, 70, 0
2, 116405, Note_on_c, 0, 74, 0
2, 116410, Note_on_c, 0, 74, 113
2, 116413, Note_on_c, 0, 62, 0
2, 116417, Note_on_c, 0, 70, 103
2, 116418, Note_on_c, 0, 62, 73
2, 116582, Note_on_c, 0, 50, 0
2, 116582, Note_on_c, 0, 53, 0
2, 116592, Note_on_c, 0, 53, 81
2, 116592, Note_on_c, 0, 50, 84
2, 116643, Note_on_c, 0, 65, 0
2, 116643, Note_on_c, 0, 70, 0
2, 116649, Note_on_c, 0, 70, 108
2, 116653, Note_on_c, 0, 65, 103
2, 116805, Note_on_c, 0, 53, 0
2, 116805, Note_on_c, 0, 58, 0
2, 116814, Note_on_c, 0, 58, 88
2, 116814, Note_on_c, 0, 53, 77
2, 116874, Note_on_c, 0, 70, 0
2, 116874, Note_on_c, 0, 74, 0
2, 116881, Note_on_c, 0, 70, 107
2, 116882, Note_on_c, 0, 74, 109
2, 117081, Note_on_c, 0, 77, 0
2, 117089, Note_on_c, 0, 62, 0
2, 117089, Note_on_c, 0, 82, 0
2, 117089, Note_on_c, 0, 89, 111
2, 117091, Note_on_c, 0, 86, 111
2, 117093, Note_on_c, 0, 77, 112
2, 117093, Note_on_c, 0, 62, 103
2, 117094, Note_on_c, 0, 82, 111
2, 117112, Note_on_c, 0, 58, 0
2, 117116, Note_on_c, 0, 58, 78
2, 117120, Note_on_c, 0, 26, 0
2, 117196, Note_on_c, 0, 58, 0
2, 117206, Note_on_c, 0, 58, 97
2, 117273, Note_on_c, 0, 53, 0
2, 117284, Note_on_c, 0, 53, 88
2, 117419, Note_on_c, 0, 50, 0
2, 117419, Note_on_c, 0, 82, 0
2, 117419, Note_on_c, 0, 86, 0
2, 117421, Note_on_c, 0, 91, 115
2, 117424, Note_on_c, 0, 86, 106
2, 117424, Note_on_c, 0, 79, 109
2, 117424, Note_on_c, 0, 82, 107
2, 117426, Note_on_c, 0, 50, 92
2, 117519, Note_on_c, 0, 46, 0
2, 117527, Note_on_c, 0, 46, 93
2, 117603, Note_on_c, 0, 41, 0
2, 117614, Note_on_c, 0, 41, 80
2, 117714, Note_on_c, 0, 62, 0
2, 117714, Note_on_c, 0, 41, 0
2, 117715, Note_on_c, 0, 82, 0
2, 117715, Note_on_c, 0, 77, 0
2, 117715, Note_on_c, 0, 38, 0
2, 117715, Note_on_c, 0, 79, 0
2, 117715, Note_on_c, 0, 65, 0
2, 117715, Note_on_c, 0, 74, 0
2, 117715, Note_on_c, 0, 50, 0
2, 117715, Note_on_c, 0, 70, 0
2, 117715, Note_on_c, 0, 89, 0
2, 117715, Note_on_c, 0, 86, 0
2, 117715, Control_c, 0, 64, 0
2, 117716, Note_on_c, 0, 91, 0
2, 117719, Note_on_c, 0, 68, 0
2, 117734, Note_on_c, 0, 46, 0
2, 117734, Note_on_c, 0, 53, 0
2, 117734, Note_on_c, 0, 58, 0
2, 117763, Note_on_c, 0, 39, 94
2, 117765, Note_on_c, 0, 85, 107
2, 117765, Note_on_c, 0, 27, 96
2, 117767, Note_on_c, 0, 92, 113
2, 117768, Note_on_c, 0, 80, 109
2, 117788, Control_c, 0, 64, 127
2, 117898, Note_on_c, 0, 87, 91
2, 117908, Note_on_c, 0, 46, 65
2, 118010, Note_on_c, 0, 85, 0
2, 118021, Note_on_c, 0, 85, 93
2, 118023, Note_on_c, 0, 49, 80
2, 118024, Note_on_c, 0, 75, 76
2, 118118, Note_on_c, 0, 80, 0
2, 118129, Note_on_c, 0, 80, 91
2, 118129, Note_on_c, 0, 51, 78
2, 118256, Note_on_c, 0, 75, 0
2, 118261, Note_on_c, 0, 75, 90
2, 118266, Note_on_c, 0, 58, 82
2, 118364, Note_on_c, 0, 49, 0
2, 118374, Note_on_c, 0, 61, 86
2, 118375, Note_on_c, 0, 49, 70
2, 118376, Note_on_c, 0, 73, 93
2, 118487, Note_on_c, 0, 75, 0
2, 118487, Note_on_c, 0, 80, 0
2, 118492, Note_on_c, 0, 80, 108
2, 118493, Note_on_c, 0, 63, 89
2, 118494, Note_on_c, 0, 68, 107
2, 118496, Note_on_c, 0, 75, 93
2, 118528, Note_on_c, 0, 78, 48
2, 118533, Note_on_c, 0, 78, 0
2, 118579, Note_on_c, 0, 49, 0
2, 118579, Note_on_c, 0, 61, 0
2, 118585, Note_on_c, 0, 61, 89
2, 118585, Note_on_c, 0, 49, 82
2, 118609, Note_on_c, 0, 75, 0
2, 118614, Note_on_c, 0, 75, 102
2, 118686, Note_on_c, 0, 58, 0
2, 118694, Note_on_c, 0, 49, 0
2, 118696, Note_on_c, 0, 58, 88
2, 118704, Note_on_c, 0, 49, 72
2, 118725, Note_on_c, 0, 73, 0
2, 118734, Note_on_c, 0, 73, 100
2, 118832, Note_on_c, 0, 68, 0
2, 118840, Note_on_c, 0, 51, 0
2, 118843, Note_on_c, 0, 68, 101
2, 118849, Note_on_c, 0, 51, 91
2, 118955, Note_on_c, 0, 49, 0
2, 118955, Note_on_c, 0, 63, 0
2, 118961, Note_on_c, 0, 63, 88
2, 118962, Note_on_c, 0, 49, 78
2, 119032, Note_on_c, 0, 46, 0
2, 119032, Note_on_c, 0, 61, 0
2, 119037, Note_on_c, 0, 46, 82
2, 119041, Note_on_c, 0, 61, 89
2, 119126, Note_on_c, 0, 63, 0
2, 119126, Note_on_c, 0, 92, 0
2, 119127, Note_on_c, 0, 85, 0
2, 119127, Note_on_c, 0, 46, 0
2, 119127, Note_on_c, 0, 73, 0
2, 119127, Note_on_c, 0, 39, 0
2, 119127, Note_on_c, 0, 51, 0
2, 119127, Note_on_c, 0, 58, 0
2, 119127, Note_on_c, 0, 68, 0
2, 119127, Note_on_c, 0, 80, 0
2, 119128, Note_on_c, 0, 87, 0
2, 119128, Control_c, 0, 64, 0
2, 119128, Note_on_c, 0, 49, 0
2, 119128, Note_on_c, 0, 75, 0
2, 119128, Note_on_c, 0, 61, 0
2, 119132, Note_on_c, 0, 27, 0
2, 119188, Note_on_c, 0, 27, 96
2, 119189, Note_on_c, 0, 39, 93
2, 119189, Note_on_c, 0, 91, 114
2, 119190, Note_on_c, 0, 79, 110
2, 119190, Note_on_c, 0, 85, 106
2, 119201, Control_c, 0, 64, 127
2, 119305, Note_on_c, 0, 87, 102
2, 119336, Note_on_c, 0, 46, 68
2, 119416, Note_on_c, 0, 85, 0
2, 119425, Note_on_c, 0, 85, 95
2, 119450, Note_on_c, 0, 49, 81
2, 119539, Note_on_c, 0, 79, 0
2, 119545, Note_on_c, 0, 79, 91
2, 119550, Note_on_c, 0, 51, 86
2, 119670, Note_on_c, 0, 75, 97
2, 119690, Note_on_c, 0, 58, 79
2, 119788, Note_on_c, 0, 73, 103
2, 119789, Note_on_c, 0, 61, 93
2, 119900, Note_on_c, 0, 79, 0
2, 119904, Note_on_c, 0, 79, 106
2, 119904, Note_on_c, 0, 67, 100
2, 119905, Note_on_c, 0, 63, 92
2, 119984, Note_on_c, 0, 61, 0
2, 119995, Note_on_c, 0, 61, 81
2, 120007, Note_on_c, 0, 75, 0
2, 120017, Note_on_c, 0, 75, 98
2, 120099, Note_on_c, 0, 58, 0
2, 120106, Note_on_c, 0, 58, 85
2, 120130, Note_on_c, 0, 73, 0
2, 120139, Note_on_c, 0, 73, 100
2, 120153, Note_on_c, 0, 49, 0
2, 120162, Note_on_c, 0, 49, 43
2, 120238, Note_on_c, 0, 67, 0
2, 120245, Note_on_c, 0, 51, 0
2, 120247, Note_on_c, 0, 67, 84
2, 120250, Note_on_c, 0, 51, 90
2, 120345, Note_on_c, 0, 63, 0
2, 120350, Note_on_c, 0, 63, 84
2, 120360, Note_on_c, 0, 49, 0
2, 120369, Note_on_c, 0, 49, 65
2, 120445, Note_on_c, 0, 61, 0
2, 120453, Note_on_c, 0, 61, 93
2, 120460, Note_on_c, 0, 46, 0
2, 120471, Note_on_c, 0, 46, 76
2, 120552, Note_on_c, 0, 27, 0
2, 120553, Control_c, 0, 64, 0
2, 120555, Note_on_c, 0, 87, 0
2, 120555, Note_on_c, 0, 39, 0
2, 120555, Note_on_c, 0, 67, 0
2, 120555, Note_on_c, 0, 63, 0
2, 120555, Note_on_c, 0, 46, 0
2, 120555, Note_on_c, 0, 73, 0
2, 120555, Note_on_c, 0, 75, 0
2, 120555, Note_on_c, 0, 49, 0
2, 120555, Note_on_c, 0, 58, 0
2, 120555, Note_on_c, 0, 79, 0
2, 120555, Note_on_c, 0, 61, 0
2, 120568, Note_on_c, 0, 51, 0
2, 120568, Note_on_c, 0, 91, 0
2, 120576, Note_on_c, 0, 85, 0
2, 120609, Note_on_c, 0, 92, 114
2, 120610, Note_on_c, 0, 85, 109
2, 120610, Note_on_c, 0, 80, 109
2, 120610, Note_on_c, 0, 37, 97
2, 120611, Note_on_c, 0, 49, 102
2, 120637, Control_c, 0, 64, 127
2, 120647, Note_on_c, 0, 49, 0
2, 120717, Note_on_c, 0, 87, 99
2, 120748, Note_on_c, 0, 49, 64
2, 120844, Note_on_c, 0, 85, 0
2, 120854, Note_on_c, 0, 85, 96
2, 120892, Note_on_c, 0, 53, 82
2, 120944, Note_on_c, 0, 80, 0
2, 120955, Note_on_c, 0, 80, 88
2, 120985, Note_on_c, 0, 61, 103
2, 120991, Note_on_c, 0, 56, 92
2, 121082, Note_on_c, 0, 53, 0
2, 121090, Note_on_c, 0, 53, 68
2, 121116, Note_on_c, 0, 73, 72
2, 121120, Note_on_c, 0, 74, 71
2, 121144, Note_on_c, 0, 49, 0
2, 121151, Note_on_c, 0, 49, 92
2, 121191, Note_on_c, 0, 68, 80
2, 121264, Control_c, 0, 64, 0
2, 121264, Note_on_c, 0, 49, 0
2, 121264, Note_on_c, 0, 61, 0
2, 121264, Note_on_c, 0, 56, 0
2, 121264, Note_on_c, 0, 85, 0
2, 121264, Note_on_c, 0, 92, 0
2, 121264, Note_on_c, 0, 53, 0
2, 121264, Note_on_c, 0, 74, 0
2, 121264, Note_on_c, 0, 87, 0
2, 121265, Note_on_c, 0, 68, 0
2, 121274, Note_on_c, 0, 37, 0
2, 121282, Note_on_c, 0, 73, 0
2, 121282, Note_on_c, 0, 80, 0
2, 121319, Note_on_c, 0, 48, 95
2, 121325, Note_on_c, 0, 36, 87
2, 121327, Note_on_c, 0, 92, 114
2, 121329, Note_on_c, 0, 80, 106
2, 121335, Note_on_c, 0, 85, 96
2, 121374, Control_c, 0, 64, 127
2, 121397, Note_on_c, 0, 48, 0
2, 121442, Note_on_c, 0, 87, 100
2, 121551, Note_on_c, 0, 85, 0
2, 121555, Note_on_c, 0, 85, 97
2, 121584, Note_on_c, 0, 51, 78
2, 121585, Note_on_c, 0, 48, 67
2, 121666, Note_on_c, 0, 80, 0
2, 121670, Note_on_c, 0, 80, 95
2, 121681, Note_on_c, 0, 51, 0
2, 121688, Note_on_c, 0, 72, 92
2, 121692, Note_on_c, 0, 51, 77
2, 121693, Note_on_c, 0, 60, 98
2, 121695, Note_on_c, 0, 56, 90
2, 121792, Note_on_c, 0, 75, 98
2, 121873, Note_on_c, 0, 48, 0
2, 121877, Note_on_c, 0, 48, 81
2, 121888, Note_on_c, 0, 68, 90
2, 121986, Note_on_c, 0, 85, 0
2, 121986, Control_c, 0, 64, 0
2, 121986, Note_on_c, 0, 48, 0
2, 121986, Note_on_c, 0, 51, 0
2, 121986, Note_on_c, 0, 80, 0
2, 121986, Note_on_c, 0, 60, 0
2, 121987, Note_on_c, 0, 68, 0
2, 121987, Note_on_c, 0, 87, 0
2, 121987, Note_on_c, 0, 75, 0
2, 121987, Note_on_c, 0, 56, 0
2, 121987, Note_on_c, 0, 92, 0
2, 121996, Note_on_c, 0, 36, 0
2, 122004, Note_on_c, 0, 72, 0
2, 122045, Note_on_c, 0, 85, 110
2, 122045, Note_on_c, 0, 46, 96
2, 122045, Note_on_c, 0, 34, 86
2, 122046, Note_on_c, 0, 94, 112
2, 122046, Note_on_c, 0, 82, 110
2, 122081, Control_c, 0, 64, 127
2, 122162, Note_on_c, 0, 87, 96
2, 122165, Note_on_c, 0, 46, 0
2, 122177, Note_on_c, 0, 46, 82
2, 122280, Note_on_c, 0, 85, 0
2, 122292, Note_on_c, 0, 85, 104
2, 122294, Note_on_c, 0, 51, 81
2, 122411, Note_on_c, 0, 82, 0
2, 122417, Note_on_c, 0, 82, 103
2, 122432, Note_on_c, 0, 58, 94
2, 122439, Note_on_c, 0, 55, 87
2, 122542, Note_on_c, 0, 51, 0
2, 122545, Note_on_c, 0, 75, 99
2, 122545, Note_on_c, 0, 51, 74
2, 122657, Note_on_c, 0, 46, 0
2, 122662, Note_on_c, 0, 46, 85
2, 122665, Note_on_c, 0, 70, 92
2, 122766, Control_c, 0, 64, 0
2, 122767, Note_on_c, 0, 94, 0
2, 122767, Note_on_c, 0, 46, 0
2, 122767, Note_on_c, 0, 51, 0
2, 122767, Note_on_c, 0, 82, 0
2, 122767, Note_on_c, 0, 87, 0
2, 122768, Note_on_c, 0, 75, 0
2, 122768, Note_on_c, 0, 55, 0
2, 122768, Note_on_c, 0, 58, 0
2, 122768, Note_on_c, 0, 70, 0
2, 122780, Note_on_c, 0, 34, 0
2, 122780, Note_on_c, 0, 85, 0
2, 122817, Note_on_c, 0, 39, 89
2, 122817, Note_on_c, 0, 27, 91
2, 122822, Note_on_c, 0, 85, 103
2, 122824, Note_on_c, 0, 82, 109
2, 122864, Control_c, 0, 64, 127
2, 122962, Note_on_c, 0, 87, 104
2, 122992, Note_on_c, 0, 46, 83
2, 123102, Note_on_c, 0, 85, 0
2, 123110, Note_on_c, 0, 51, 79
2, 123111, Note_on_c, 0, 85, 109
2, 123256, Note_on_c, 0, 82, 0
2, 123266, Note_on_c, 0, 82, 109
2, 123271, Note_on_c, 0, 51, 0
2, 123275, Note_on_c, 0, 58, 96
2, 123277, Note_on_c, 0, 55, 85
2, 123280, Note_on_c, 0, 51, 63
2, 123290, Note_on_c, 0, 76, 77
2, 123441, Note_on_c, 0, 75, 100
2, 123448, Note_on_c, 0, 51, 0
2, 123456, Note_on_c, 0, 51, 66
2, 123632, Note_on_c, 0, 46, 0
2, 123635, Note_on_c, 0, 70, 95
2, 123643, Note_on_c, 0, 46, 78
2, 123978, Note_on_c, 0, 87, 0
2, 123985, Note_on_c, 0, 27, 0
2, 123988, Note_on_c, 0, 96, 113
2, 123988, Note_on_c, 0, 44, 103
2, 123989, Note_on_c, 0, 32, 97
2, 123989, Note_on_c, 0, 87, 110
2, 123989, Note_on_c, 0, 84, 107
2, 123989, Note_on_c, 0, 92, 110
2, 123998, Note_on_c, 0, 51, 0
2, 123998, Note_on_c, 0, 39, 0
2, 123998, Note_on_c, 0, 58, 0
2, 123998, Note_on_c, 0, 55, 0
2, 123998, Note_on_c, 0, 85, 0
2, 123998, Note_on_c, 0, 46, 0
2, 123999, Note_on_c, 0, 82, 0
2, 124001, Control_c, 0, 64, 0
2, 124001, Note_on_c, 0, 76, 0
2, 124002, Note_on_c, 0, 70, 0
2, 124024, Note_on_c, 0, 75, 0
2, 124277, Control_c, 0, 64, 127
2, 124457, Note_on_c, 0, 72, 70
2, 124460, Note_on_c, 0, 60, 56
2, 124469, Note_on_c, 0, 60, 0
2, 124519, Note_on_c, 0, 75, 86
2, 124567, Note_on_c, 0, 80, 74
2, 124638, Note_on_c, 0, 84, 0
2, 124649, Note_on_c, 0, 84, 77
2, 124684, Note_on_c, 0, 87, 0
2, 124693, Note_on_c, 0, 87, 99
2, 124738, Note_on_c, 0, 92, 0
2, 124747, Note_on_c, 0, 92, 88
2, 124784, Note_on_c, 0, 96, 0
2, 124793, Note_on_c, 0, 96, 108
2, 124853, Note_on_c, 0, 92, 0
2, 124864, Note_on_c, 0, 92, 85
2, 124907, Note_on_c, 0, 87, 0
2, 124911, Note_on_c, 0, 87, 96
2, 124961, Note_on_c, 0, 84, 0
2, 124967, Note_on_c, 0, 84, 64
2, 125030, Note_on_c, 0, 80, 0
2, 125037, Note_on_c, 0, 80, 79
2, 125091, Note_on_c, 0, 75, 0
2, 125097, Note_on_c, 0, 75, 77
2, 125145, Note_on_c, 0, 72, 0
2, 125150, Note_on_c, 0, 72, 77
2, 125199, Note_on_c, 0, 75, 0
2, 125209, Note_on_c, 0, 75, 84
2, 125222, Note_on_c, 0, 80, 0
2, 125231, Note_on_c, 0, 80, 86
2, 125314, Note_on_c, 0, 84, 0
2, 125321, Note_on_c, 0, 84, 83
2, 125368, Note_on_c, 0, 87, 0
2, 125378, Note_on_c, 0, 87, 94
2, 125422, Note_on_c, 0, 92, 0
2, 125432, Note_on_c, 0, 92, 86
2, 125465, Control_c, 0, 64, 0
2, 125475, Note_on_c, 0, 32, 0
2, 125477, Note_on_c, 0, 68, 105
2, 125477, Note_on_c, 0, 56, 93
2, 125479, Note_on_c, 0, 63, 93
2, 125480, Note_on_c, 0, 60, 90
2, 125483, Note_on_c, 0, 44, 0
2, 125544, Note_on_c, 0, 92, 0
2, 125552, Control_c, 0, 64, 127
2, 125554, Note_on_c, 0, 92, 88
2, 125598, Note_on_c, 0, 87, 0
2, 125606, Note_on_c, 0, 87, 94
2, 125629, Note_on_c, 0, 84, 0
2, 125640, Note_on_c, 0, 84, 73
2, 125713, Note_on_c, 0, 80, 0
2, 125724, Note_on_c, 0, 80, 80
2, 125760, Note_on_c, 0, 75, 0
2, 125767, Note_on_c, 0, 75, 80
2, 125844, Note_on_c, 0, 72, 0
2, 125849, Note_on_c, 0, 72, 74
2, 125890, Note_on_c, 0, 75, 0
2, 125901, Note_on_c, 0, 75, 79
2, 125936, Note_on_c, 0, 80, 0
2, 125942, Note_on_c, 0, 80, 83
2, 126021, Note_on_c, 0, 84, 0
2, 126027, Note_on_c, 0, 84, 81
2, 126074, Note_on_c, 0, 87, 0
2, 126084, Note_on_c, 0, 87, 94
2, 126128, Note_on_c, 0, 92, 0
2, 126135, Note_on_c, 0, 92, 84
2, 126174, Note_on_c, 0, 96, 0
2, 126186, Note_on_c, 0, 96, 104
2, 126236, Note_on_c, 0, 92, 0
2, 126246, Note_on_c, 0, 92, 88
2, 126297, Note_on_c, 0, 87, 0
2, 126302, Note_on_c, 0, 87, 92
2, 126351, Note_on_c, 0, 84, 0
2, 126359, Note_on_c, 0, 84, 63
2, 126428, Note_on_c, 0, 80, 0
2, 126435, Note_on_c, 0, 80, 70
2, 126466, Note_on_c, 0, 75, 0
2, 126472, Note_on_c, 0, 75, 72
2, 126543, Note_on_c, 0, 72, 0
2, 126554, Note_on_c, 0, 72, 69
2, 126597, Note_on_c, 0, 75, 0
2, 126605, Note_on_c, 0, 75, 67
2, 126635, Note_on_c, 0, 80, 0
2, 126640, Note_on_c, 0, 80, 79
2, 126735, Note_on_c, 0, 84, 0
2, 126746, Note_on_c, 0, 84, 59
2, 126781, Note_on_c, 0, 87, 0
2, 126785, Note_on_c, 0, 87, 90
2, 126827, Note_on_c, 0, 92, 0
2, 126838, Note_on_c, 0, 92, 79
2, 126873, Note_on_c, 0, 96, 0
2, 126879, Note_on_c, 0, 67, 92
2, 126881, Note_on_c, 0, 60, 0
2, 126881, Note_on_c, 0, 63, 0
2, 126884, Note_on_c, 0, 96, 102
2, 126885, Note_on_c, 0, 60, 78
2, 126885, Control_c, 0, 64, 0
2, 126887, Note_on_c, 0, 63, 79
2, 126935, Control_c, 0, 64, 127
2, 126942, Note_on_c, 0, 92, 0
2, 126947, Note_on_c, 0, 92, 86
2, 127004, Note_on_c, 0, 87, 0
2, 127009, Note_on_c, 0, 87, 90
2, 127042, Note_on_c, 0, 84, 0
2, 127051, Note_on_c, 0, 84, 64
2, 127134, Note_on_c, 0, 80, 0
2, 127141, Note_on_c, 0, 80, 67
2, 127180, Note_on_c, 0, 75, 0
2, 127186, Note_on_c, 0, 75, 76
2, 127257, Note_on_c, 0, 72, 0
2, 127263, Note_on_c, 0, 72, 69
2, 127319, Note_on_c, 0, 75, 0
2, 127324, Note_on_c, 0, 75, 69
2, 127342, Note_on_c, 0, 80, 0
2, 127352, Note_on_c, 0, 80, 75
2, 127441, Note_on_c, 0, 84, 0
2, 127446, Note_on_c, 0, 84, 69
2, 127495, Note_on_c, 0, 87, 0
2, 127504, Note_on_c, 0, 87, 89
2, 127541, Note_on_c, 0, 92, 0
2, 127549, Note_on_c, 0, 92, 80
2, 127610, Note_on_c, 0, 96, 0
2, 127618, Note_on_c, 0, 96, 93
2, 127672, Note_on_c, 0, 92, 0
2, 127678, Note_on_c, 0, 92, 75
2, 127726, Note_on_c, 0, 87, 0
2, 127737, Note_on_c, 0, 87, 87
2, 127779, Note_on_c, 0, 84, 0
2, 127786, Note_on_c, 0, 84, 59
2, 127864, Note_on_c, 0, 80, 0
2, 127868, Note_on_c, 0, 80, 64
2, 127918, Note_on_c, 0, 75, 0
2, 127926, Note_on_c, 0, 75, 81
2, 127987, Note_on_c, 0, 72, 0
2, 127992, Note_on_c, 0, 72, 61
2, 128040, Note_on_c, 0, 75, 0
2, 128046, Note_on_c, 0, 75, 72
2, 128064, Note_on_c, 0, 80, 0
2, 128075, Note_on_c, 0, 80, 81
2, 128171, Note_on_c, 0, 84, 0
2, 128178, Note_on_c, 0, 84, 70
2, 128225, Note_on_c, 0, 87, 0
2, 128233, Note_on_c, 0, 87, 84
2, 128271, Note_on_c, 0, 92, 0
2, 128281, Note_on_c, 0, 92, 75
2, 128308, Note_on_c, 0, 65, 97
2, 128309, Note_on_c, 0, 56, 0
2, 128309, Note_on_c, 0, 60, 0
2, 128309, Note_on_c, 0, 63, 0
2, 128318, Note_on_c, 0, 60, 81
2, 128319, Note_on_c, 0, 56, 76
2, 128321, Note_on_c, 0, 63, 85
2, 128321, Note_on_c, 0, 67, 0
2, 128328, Control_c, 0, 64, 0
2, 128340, Control_c, 0, 64, 127
2, 128363, Note_on_c, 0, 68, 0
2, 128378, Note_on_c, 0, 92, 0
2, 128384, Note_on_c, 0, 92, 82
2, 128424, Note_on_c, 0, 87, 0
2, 128435, Note_on_c, 0, 87, 82
2, 128478, Note_on_c, 0, 84, 0
2, 128488, Note_on_c, 0, 84, 59
2, 128547, Note_on_c, 0, 80, 0
2, 128557, Note_on_c, 0, 80, 75
2, 128601, Note_on_c, 0, 75, 0
2, 128605, Note_on_c, 0, 75, 79
2, 128670, Note_on_c, 0, 72, 0
2, 128679, Note_on_c, 0, 72, 67
2, 128716, Note_on_c, 0, 75, 0
2, 128727, Note_on_c, 0, 75, 78
2, 128770, Note_on_c, 0, 80, 0
2, 128775, Note_on_c, 0, 80, 73
2, 128839, Note_on_c, 0, 84, 0
2, 128844, Note_on_c, 0, 84, 81
2, 128893, Note_on_c, 0, 87, 0
2, 128898, Note_on_c, 0, 87, 86
2, 128939, Note_on_c, 0, 92, 0
2, 128945, Note_on_c, 0, 92, 78
2, 128985, Note_on_c, 0, 96, 0
2, 128996, Note_on_c, 0, 96, 92
2, 129039, Note_on_c, 0, 92, 0
2, 129050, Note_on_c, 0, 92, 89
2, 129085, Note_on_c, 0, 87, 0
2, 129093, Note_on_c, 0, 87, 94
2, 129131, Note_on_c, 0, 84, 0
2, 129141, Note_on_c, 0, 84, 61
2, 129208, Note_on_c, 0, 80, 0
2, 129212, Note_on_c, 0, 80, 71
2, 129246, Note_on_c, 0, 75, 0
2, 129255, Note_on_c, 0, 75, 74
2, 129300, Note_on_c, 0, 72, 0
2, 129311, Note_on_c, 0, 72, 79
2, 129346, Note_on_c, 0, 75, 0
2, 129357, Note_on_c, 0, 75, 73
2, 129377, Note_on_c, 0, 80, 0
2, 129383, Note_on_c, 0, 80, 79
2, 129454, Note_on_c, 0, 84, 0
2, 129459, Note_on_c, 0, 84, 76
2, 129484, Note_on_c, 0, 87, 0
2, 129496, Note_on_c, 0, 87, 93
2, 129530, Note_on_c, 0, 92, 0
2, 129535, Note_on_c, 0, 92, 89
2, 129632, Note_on_c, 0, 98, 87
2, 129681, Note_on_c, 0, 99, 80
2, 129770, Note_on_c, 0, 104, 101
2, 129784, Note_on_c, 0, 56, 0
2, 129784, Note_on_c, 0, 60, 0
2, 129784, Note_on_c, 0, 63, 0
2, 129788, Note_on_c, 0, 60, 79
2, 129789, Note_on_c, 0, 65, 0
2, 129789, Control_c, 0, 64, 0
2, 129792, Note_on_c, 0, 63, 67
2, 129793, Note_on_c, 0, 56, 65
2, 130137, Control_c, 0, 64, 127
2, 130206, Note_on_c, 0, 98, 0
2, 131397, Note_on_c, 0, 60, 0
2, 131404, Note_on_c, 0, 60, 56
2, 131404, Note_on_c, 0, 63, 0
2, 131412, Note_on_c, 0, 63, 50
2, 131420, Note_on_c, 0, 56, 0
2, 131425, Note_on_c, 0, 56, 40
2, 132480, Note_on_c, 0, 75, 0
2, 132480, Note_on_c, 0, 80, 0
2, 132480, Note_on_c, 0, 84, 0
2, 132480, Note_on_c, 0, 87, 0
2, 132480, Note_on_c, 0, 92, 0
2, 132480, Note_on_c, 0, 96, 0
2, 132480, Note_on_c, 0, 99, 0
2, 132480, Note_on_c, 0, 104, 0
2, 132480, Control_c, 0, 64, 0
2, 133025, Note_on_c, 0, 56, 0
2, 133025, Note_on_c, 0, 60, 0
2, 133025, Note_on_c, 0, 63, 0
2, 133030, Note_on_c, 0, 60, 44
2, 133031, Note_on_c, 0, 63, 36
2, 133034, Note_on_c, 0, 56, 36
2, 133916, Note_on_c, 0, 72, 0
2, 134799, Control_c, 0, 64, 127
2, 134807, Note_on_c, 0, 56, 0
2, 134812, Note_on_c, 0, 44, 30
2, 134814, Note_on_c, 0, 60, 0
2, 134814, Note_on_c, 0, 63, 0
2, 134816, Note_on_c, 0, 56, 32
2, 134819, Note_on_c, 0, 60, 40
2, 134821, Note_on_c, 0, 63, 33
2, 139422, Note_on_c, 0, 44, 0
2, 139422, Note_on_c, 0, 56, 0
2, 139430, Note_on_c, 0, 60, 0
2, 139430, Note_on_c, 0, 63, 0
2, 141027, Control_c, 0, 64, 0
2, 141028, End_track
0, 0, End_of_file
