0, 0, Header, 1, 2, 384
1, 0, Start_track
1, 0, Tempo, 500000
1, 0, Time_signature, 4, 2, 24, 8
1, 1, End_track
2, 0, Start_track
2, 1374, Control_c, 0, 64, 127
2, 1503, Note_on_c, 0, 29, 46
2, 1681, Note_on_c, 0, 29, 0
2, 1691, Note_on_c, 0, 41, 45
2, 1691, Note_on_c, 0, 29, 39
2, 1850, Note_on_c, 0, 29, 0
2, 1861, Note_on_c, 0, 29, 34
2, 1873, Note_on_c, 0, 41, 0
2, 1878, Note_on_c, 0, 41, 30
2, 1935, Note_on_c, 0, 29, 0
2, 1944, Note_on_c, 0, 29, 40
2, 1996, Note_on_c, 0, 29, 0
2, 1996, Note_on_c, 0, 41, 0
2, 2000, Note_on_c, 0, 29, 52
2, 2001, Note_on_c, 0, 41, 59
2, 2058, Note_on_c, 0, 29, 0
2, 2069, Note_on_c, 0, 29, 63
2, 2127, Note_on_c, 0, 41, 0
2, 2137, Note_on_c, 0, 41, 55
2, 2188, Note_on_c, 0, 29, 0
2, 2199, Note_on_c, 0, 29, 63
2, 2250, Note_on_c, 0, 29, 0
2, 2250, Note_on_c, 0, 41, 0
2, 2256, Note_on_c, 0, 41, 65
2, 2257, Note_on_c, 0, 29, 61
2, 2311, Note_on_c, 0, 29, 0
2, 2322, Note_on_c, 0, 29, 66
2, 2373, Note_on_c, 0, 41, 0
2, 2378, Note_on_c, 0, 41, 69
2, 2434, Note_on_c, 0, 29, 0
2, 2438, Note_on_c, 0, 29, 75
2, 2488, Note_on_c, 0, 29, 0
2, 2488, Note_on_c, 0, 41, 0
2, 2495, Note_on_c, 0, 41, 65
2, 2497, Note_on_c, 0, 29, 73
2, 2549, Note_on_c, 0, 29, 0
2, 2559, Note_on_c, 0, 29, 91
2, 2611, Note_on_c, 0, 41, 0
2, 2617, Note_on_c, 0, 41, 68
2, 2680, Note_on_c, 0, 29, 0
2, 2689, Note_on_c, 0, 29, 81
2, 2757, Note_on_c, 0, 41, 0
2, 2762, Note_on_c, 0, 41, 81
2, 2872, Note_on_c, 0, 29, 0
2, 2877, Note_on_c, 0, 29, 92
2, 2982, Control_c, 0, 64, 0
2, 2995, Control_c, 0, 64, 127
2, 3141, Note_on_c, 0, 29, 0
2, 3145, Note_on_c, 0, 65, 107
2, 3148, Note_on_c, 0, 53, 100
2, 3150, Note_on_c, 0, 61, 97
2, 3152, Note_on_c, 0, 29, 96
2, 3152, Note_on_c, 0, 58, 102
2, 3154, Note_on_c, 0, 30, 92
2, 3194, Note_on_c, 0, 41, 0
2, 3194, Control_c, 0, 64, 0
2, 3279, Control_c, 0, 64, 127
2, 3310, Note_on_c, 0, 30, 0
2, 3314, Note_on_c, 0, 68, 101
2, 3318, Note_on_c, 0, 30, 68
2, 3471, Note_on_c, 0, 68, 0
2, 3475, Note_on_c, 0, 80, 98
2, 3476, Note_on_c, 0, 42, 80
2, 3477, Note_on_c, 0, 68, 88
2, 3479, Note_on_c, 0, 56, 80
2, 3480, Note_on_c, 0, 54, 97
2, 3561, Note_on_c, 0, 78, 100
2, 3563, Note_on_c, 0, 54, 0
2, 3563, Note_on_c, 0, 66, 109
2, 3571, Note_on_c, 0, 61, 0
2, 3574, Note_on_c, 0, 54, 83
2, 3581, Note_on_c, 0, 61, 81
2, 3586, Note_on_c, 0, 56, 0
2, 3593, Note_on_c, 0, 56, 68
2, 3732, Note_on_c, 0, 56, 0
2, 3732, Note_on_c, 0, 65, 0
2, 3736, Note_on_c, 0, 63, 79
2, 3736, Note_on_c, 0, 77, 103
2, 3737, Note_on_c, 0, 65, 104
2, 3740, Note_on_c, 0, 56, 83
2, 3901, Note_on_c, 0, 56, 0
2, 3901, Note_on_c, 0, 65, 0
2, 3901, Note_on_c, 0, 68, 0
2, 3901, Note_on_c, 0, 77, 0
2, 3905, Note_on_c, 0, 68, 94
2, 3906, Note_on_c, 0, 77, 99
2, 3906, Note_on_c, 0, 65, 99
2, 3909, Note_on_c, 0, 56, 91
2, 4055, Note_on_c, 0, 56, 0
2, 4055, Note_on_c, 0, 63, 0
2, 4055, Note_on_c, 0, 65, 0
2, 4055, Note_on_c, 0, 77, 0
2, 4059, Note_on_c, 0, 65, 80
2, 4060, Note_on_c, 0, 63, 79
2, 4061, Note_on_c, 0, 77, 86
2, 4065, Note_on_c, 0, 56, 73
2, 4168, Note_on_c, 0, 72, 104
2, 4170, Note_on_c, 0, 58, 0
2, 4174, Note_on_c, 0, 60, 94
2, 4174, Note_on_c, 0, 58, 88
2, 4293, Note_on_c, 0, 42, 0
2, 4293, Note_on_c, 0, 54, 0
2, 4297, Note_on_c, 0, 54, 84
2, 4301, Note_on_c, 0, 42, 80
2, 4316, Note_on_c, 0, 61, 0
2, 4317, Note_on_c, 0, 66, 0
2, 4326, Note_on_c, 0, 73, 100
2, 4326, Note_on_c, 0, 61, 100
2, 4449, Note_on_c, 0, 30, 0
2, 4450, Note_on_c, 0, 42, 0
2, 4450, Note_on_c, 0, 53, 0
2, 4450, Note_on_c, 0, 54, 0
2, 4450, Note_on_c, 0, 68, 0
2, 4450, Note_on_c, 0, 63, 0
2, 4450, Note_on_c, 0, 80, 0
2, 4451, Note_on_c, 0, 77, 0
2, 4451, Note_on_c, 0, 56, 0
2, 4451, Note_on_c, 0, 60, 0
2, 4451, Note_on_c, 0, 78, 0
2, 4451, Note_on_c, 0, 58, 0
2, 4451, Note_on_c, 0, 72, 0
2, 4451, Control_c, 0, 64, 0
2, 4451, Note_on_c, 0, 73, 0
2, 4454, Note_on_c, 0, 29, 0
2, 4469, Note_on_c, 0, 61, 0
2, 4485, Note_on_c, 0, 65, 0
2, 4490, Note_on_c, 0, 65, 101
2, 4491, Note_on_c, 0, 68, 104
2, 4493, Note_on_c, 0, 44, 102
2, 4494, Note_on_c, 0, 60, 99
2, 4495, Note_on_c, 0, 32, 98
2, 4531, Control_c, 0, 64, 127
2, 4646, Note_on_c, 0, 68, 0
2, 4654, Note_on_c, 0, 68, 106
2, 4656, Note_on_c, 0, 56, 86
2, 4807, Note_on_c, 0, 56, 0
2, 4807, Note_on_c, 0, 68, 0
2, 4809, Note_on_c, 0, 80, 107
2, 4812, Note_on_c, 0, 68, 99
2, 4817, Note_on_c, 0, 56, 74
2, 4888, Note_on_c, 0, 78, 106
2, 4895, Note_on_c, 0, 66, 109
2, 4912, Note_on_c, 0, 61, 63
2, 4921, Note_on_c, 0, 58, 66
2, 4922, Note_on_c, 0, 60, 0
2, 4933, Note_on_c, 0, 60, 54
2, 5053, Note_on_c, 0, 65, 0
2, 5056, Note_on_c, 0, 63, 72
2, 5062, Note_on_c, 0, 77, 103
2, 5062, Note_on_c, 0, 65, 101
2, 5214, Note_on_c, 0, 56, 0
2, 5214, Note_on_c, 0, 65, 0
2, 5214, Note_on_c, 0, 66, 0
2, 5214, Note_on_c, 0, 68, 0
2, 5214, Note_on_c, 0, 77, 0
2, 5221, Note_on_c, 0, 77, 104
2, 5223, Note_on_c, 0, 68, 98
2, 5224, Note_on_c, 0, 65, 98
2, 5225, Note_on_c, 0, 56, 93
2, 5226, Note_on_c, 0, 66, 96
2, 5368, Note_on_c, 0, 65, 0
2, 5368, Note_on_c, 0, 77, 0
2, 5376, Note_on_c, 0, 56, 0
2, 5376, Note_on_c, 0, 63, 0
2, 5379, Note_on_c, 0, 65, 97
2, 5379, Note_on_c, 0, 77, 98
2, 5383, Note_on_c, 0, 56, 70
2, 5385, Note_on_c, 0, 63, 80
2, 5400, Note_on_c, 0, 75, 68
2, 5475, Note_on_c, 0, 60, 0
2, 5481, Note_on_c, 0, 72, 106
2, 5483, Note_on_c, 0, 58, 0
2, 5486, Note_on_c, 0, 60, 101
2, 5491, Note_on_c, 0, 70, 85
2, 5491, Note_on_c, 0, 68, 0
2, 5492, Note_on_c, 0, 58, 88
2, 5499, Note_on_c, 0, 68, 73
2, 5614, Note_on_c, 0, 56, 0
2, 5623, Note_on_c, 0, 56, 71
2, 5629, Note_on_c, 0, 68, 0
2, 5633, Note_on_c, 0, 68, 70
2, 5637, Note_on_c, 0, 61, 0
2, 5641, Note_on_c, 0, 73, 100
2, 5641, Note_on_c, 0, 61, 82
2, 5752, Control_c, 0, 64, 0
2, 5755, Note_on_c, 0, 80, 0
2, 5755, Note_on_c, 0, 65, 0
2, 5755, Note_on_c, 0, 61, 0
2, 5755, Note_on_c, 0, 56, 0
2, 5755, Note_on_c, 0, 58, 0
2, 5755, Note_on_c, 0, 60, 0
2, 5755, Note_on_c, 0, 78, 0
2, 5755, Note_on_c, 0, 77, 0
2, 5755, Note_on_c, 0, 68, 0
2, 5756, Note_on_c, 0, 66, 0
2, 5756, Note_on_c, 0, 63, 0
2, 5757, Note_on_c, 0, 73, 0
2, 5757, Note_on_c, 0, 70, 0
2, 5758, Note_on_c, 0, 72, 0
2, 5758, Note_on_c, 0, 75, 0
2, 5775, Note_on_c, 0, 32, 0
2, 5775, Note_on_c, 0, 44, 0
2, 5800, Note_on_c, 0, 53, 101
2, 5801, Note_on_c, 0, 68, 100
2, 5801, Note_on_c, 0, 46, 106
2, 5801, Note_on_c, 0, 61, 91
2, 5801, Note_on_c, 0, 65, 101
2, 5802, Note_on_c, 0, 34, 99
2, 5821, Control_c, 0, 64, 127
2, 5959, Note_on_c, 0, 68, 0
2, 5967, Note_on_c, 0, 56, 90
2, 5968, Note_on_c, 0, 68, 107
2, 6120, Note_on_c, 0, 53, 0
2, 6120, Note_on_c, 0, 68, 0
2, 6125, Note_on_c, 0, 80, 102
2, 6130, Note_on_c, 0, 68, 96
2, 6131, Note_on_c, 0, 53, 81
2, 6207, Note_on_c, 0, 78, 105
2, 6208, Note_on_c, 0, 66, 108
2, 6213, Note_on_c, 0, 61, 0
2, 6220, Note_on_c, 0, 68, 0
2, 6224, Note_on_c, 0, 61, 82
2, 6226, Note_on_c, 0, 68, 81
2, 6236, Note_on_c, 0, 56, 0
2, 6240, Note_on_c, 0, 56, 49
2, 6366, Note_on_c, 0, 65, 0
2, 6370, Note_on_c, 0, 63, 92
2, 6371, Note_on_c, 0, 65, 104
2, 6372, Note_on_c, 0, 77, 104
2, 6535, Note_on_c, 0, 65, 0
2, 6535, Note_on_c, 0, 68, 0
2, 6535, Note_on_c, 0, 77, 0
2, 6540, Note_on_c, 0, 68, 96
2, 6541, Note_on_c, 0, 77, 104
2, 6542, Note_on_c, 0, 65, 95
2, 6543, Note_on_c, 0, 56, 0
2, 6550, Note_on_c, 0, 56, 83
2, 6689, Note_on_c, 0, 56, 0
2, 6689, Note_on_c, 0, 63, 0
2, 6689, Note_on_c, 0, 65, 0
2, 6689, Note_on_c, 0, 77, 0
2, 6695, Note_on_c, 0, 65, 103
2, 6696, Note_on_c, 0, 77, 94
2, 6699, Note_on_c, 0, 56, 79
2, 6699, Note_on_c, 0, 63, 89
2, 6798, Note_on_c, 0, 58, 92
2, 6801, Note_on_c, 0, 70, 87
2, 6802, Note_on_c, 0, 72, 107
2, 6802, Note_on_c, 0, 60, 104
2, 6965, Note_on_c, 0, 61, 0
2, 6973, Note_on_c, 0, 73, 103
2, 6974, Note_on_c, 0, 61, 97
2, 7051, Control_c, 0, 64, 0
2, 7052, Note_on_c, 0, 66, 0
2, 7052, Note_on_c, 0, 53, 0
2, 7052, Note_on_c, 0, 78, 0
2, 7053, Note_on_c, 0, 58, 0
2, 7053, Note_on_c, 0, 80, 0
2, 7053, Note_on_c, 0, 77, 0
2, 7053, Note_on_c, 0, 56, 0
2, 7053, Note_on_c, 0, 63, 0
2, 7053, Note_on_c, 0, 65, 0
2, 7053, Note_on_c, 0, 61, 0
2, 7053, Note_on_c, 0, 60, 0
2, 7053, Note_on_c, 0, 73, 0
2, 7054, Note_on_c, 0, 72, 0
2, 7057, Note_on_c, 0, 34, 0
2, 7065, Note_on_c, 0, 46, 0
2, 7065, Note_on_c, 0, 68, 0
2, 7065, Note_on_c, 0, 70, 0
2, 7120, Note_on_c, 0, 75, 110
2, 7122, Note_on_c, 0, 48, 103
2, 7122, Note_on_c, 0, 68, 105
2, 7123, Note_on_c, 0, 63, 103
2, 7123, Note_on_c, 0, 36, 98
2, 7142, Control_c, 0, 64, 127
2, 7272, Note_on_c, 0, 48, 0
2, 7280, Note_on_c, 0, 36, 0
2, 7284, Note_on_c, 0, 48, 99
2, 7288, Note_on_c, 0, 68, 0
2, 7290, Note_on_c, 0, 36, 86
2, 7292, Note_on_c, 0, 77, 101
2, 7294, Note_on_c, 0, 68, 90
2, 7307, Note_on_c, 0, 65, 79
2, 7365, Note_on_c, 0, 48, 0
2, 7370, Note_on_c, 0, 48, 88
2, 7372, Note_on_c, 0, 60, 90
2, 7449, Note_on_c, 0, 48, 0
2, 7449, Note_on_c, 0, 75, 0
2, 7457, Note_on_c, 0, 63, 0
2, 7457, Note_on_c, 0, 68, 0
2, 7460, Note_on_c, 0, 48, 89
2, 7460, Note_on_c, 0, 75, 103
2, 7461, Note_on_c, 0, 63, 93
2, 7462, Note_on_c, 0, 68, 83
2, 7559, Note_on_c, 0, 36, 0
2, 7560, Note_on_c, 0, 48, 0
2, 7560, Note_on_c, 0, 77, 0
2, 7560, Note_on_c, 0, 65, 0
2, 7560, Note_on_c, 0, 63, 0
2, 7560, Note_on_c, 0, 60, 0
2, 7560, Note_on_c, 0, 68, 0
2, 7561, Control_c, 0, 64, 0
2, 7561, Note_on_c, 0, 75, 0
2, 7635, Note_on_c, 0, 77, 109
2, 7637, Note_on_c, 0, 68, 104
2, 7637, Note_on_c, 0, 65, 109
2, 7637, Note_on_c, 0, 49, 101
2, 7638, Note_on_c, 0, 37, 102
2, 7641, Control_c, 0, 64, 127
2, 7838, Control_c, 0, 64, 0
2, 7840, Note_on_c, 0, 77, 0
2, 7840, Note_on_c, 0, 65, 0
2, 7841, Note_on_c, 0, 37, 0
2, 7841, Note_on_c, 0, 49, 0
2, 7843, Note_on_c, 0, 68, 0
2, 8024, Note_on_c, 0, 68, 105
2, 8025, Note_on_c, 0, 80, 106
2, 8048, Control_c, 0, 64, 127
2, 8193, Note_on_c, 0, 92, 112
2, 8194, Note_on_c, 0, 68, 0
2, 8194, Note_on_c, 0, 80, 0
2, 8197, Note_on_c, 0, 65, 62
2, 8198, Note_on_c, 0, 68, 76
2, 8199, Note_on_c, 0, 80, 96
2, 8352, Note_on_c, 0, 90, 108
2, 8352, Note_on_c, 0, 78, 107
2, 8471, Control_c, 0, 64, 0
2, 8473, Note_on_c, 0, 68, 0
2, 8474, Note_on_c, 0, 80, 0
2, 8474, Note_on_c, 0, 90, 0
2, 8474, Note_on_c, 0, 92, 0
2, 8474, Note_on_c, 0, 78, 0
2, 8475, Note_on_c, 0, 65, 0
2, 8521, Note_on_c, 0, 89, 111
2, 8521, Note_on_c, 0, 85, 106
2, 8524, Note_on_c, 0, 77, 109
2, 8525, Note_on_c, 0, 42, 105
2, 8527, Note_on_c, 0, 82, 103
2, 8528, Note_on_c, 0, 30, 101
2, 8555, Control_c, 0, 64, 127
2, 8697, Note_on_c, 0, 49, 83
2, 8760, Note_on_c, 0, 54, 87
2, 8844, Note_on_c, 0, 56, 85
2, 8855, Note_on_c, 0, 60, 97
2, 9028, Note_on_c, 0, 61, 91
2, 9177, Note_on_c, 0, 54, 0
2, 9177, Note_on_c, 0, 77, 0
2, 9177, Note_on_c, 0, 89, 0
2, 9181, Note_on_c, 0, 89, 106
2, 9181, Note_on_c, 0, 54, 94
2, 9183, Note_on_c, 0, 77, 100
2, 9346, Note_on_c, 0, 61, 0
2, 9350, Note_on_c, 0, 61, 93
2, 9354, Note_on_c, 0, 56, 0
2, 9354, Note_on_c, 0, 82, 0
2, 9354, Note_on_c, 0, 85, 0
2, 9357, Note_on_c, 0, 90, 110
2, 9360, Note_on_c, 0, 78, 107
2, 9361, Note_on_c, 0, 85, 100
2, 9362, Note_on_c, 0, 82, 99
2, 9363, Note_on_c, 0, 56, 76
2, 9515, Note_on_c, 0, 42, 0
2, 9515, Note_on_c, 0, 56, 0
2, 9521, Note_on_c, 0, 42, 65
2, 9522, Note_on_c, 0, 56, 96
2, 9584, Note_on_c, 0, 49, 0
2, 9589, Note_on_c, 0, 49, 68
2, 9594, Note_on_c, 0, 48, 62
2, 9692, Note_on_c, 0, 89, 0
2, 9697, Note_on_c, 0, 89, 104
2, 9699, Note_on_c, 0, 77, 0
2, 9699, Note_on_c, 0, 82, 0
2, 9699, Note_on_c, 0, 85, 0
2, 9703, Note_on_c, 0, 85, 104
2, 9704, Note_on_c, 0, 77, 101
2, 9710, Note_on_c, 0, 82, 97
2, 9802, Control_c, 0, 64, 0
2, 9802, Note_on_c, 0, 78, 0
2, 9803, Note_on_c, 0, 90, 0
2, 9803, Note_on_c, 0, 49, 0
2, 9803, Note_on_c, 0, 60, 0
2, 9803, Note_on_c, 0, 42, 0
2, 9803, Note_on_c, 0, 56, 0
2, 9804, Note_on_c, 0, 61, 0
2, 9807, Note_on_c, 0, 30, 0
2, 9807, Note_on_c, 0, 48, 0
2, 9822, Note_on_c, 0, 54, 0
2, 9861, Control_c, 0, 64, 127
2, 9862, Note_on_c, 0, 44, 100
2, 9863, Note_on_c, 0, 32, 93
2, 10027, Note_on_c, 0, 51, 86
2, 10030, Note_on_c, 0, 84, 89
2, 10032, Note_on_c, 0, 87, 106
2, 10033, Note_on_c, 0, 75, 100
2, 10037, Note_on_c, 0, 80, 86
2, 10087, Note_on_c, 0, 56, 57
2, 10179, Note_on_c, 0, 58, 87
2, 10214, Note_on_c, 0, 61, 92
2, 10360, Note_on_c, 0, 61, 0
2, 10360, Note_on_c, 0, 85, 0
2, 10370, Note_on_c, 0, 85, 106
2, 10371, Note_on_c, 0, 73, 103
2, 10371, Note_on_c, 0, 61, 85
2, 10373, Note_on_c, 0, 63, 92
2, 10529, Note_on_c, 0, 56, 0
2, 10538, Note_on_c, 0, 56, 98
2, 10705, Note_on_c, 0, 63, 0
2, 10705, Note_on_c, 0, 75, 0
2, 10705, Note_on_c, 0, 80, 0
2, 10705, Note_on_c, 0, 84, 0
2, 10709, Note_on_c, 0, 84, 102
2, 10710, Note_on_c, 0, 72, 99
2, 10710, Note_on_c, 0, 75, 109
2, 10710, Note_on_c, 0, 63, 96
2, 10711, Note_on_c, 0, 60, 91
2, 10712, Note_on_c, 0, 80, 91
2, 10867, Note_on_c, 0, 56, 0
2, 10871, Note_on_c, 0, 56, 82
2, 10951, Note_on_c, 0, 51, 0
2, 10958, Note_on_c, 0, 51, 85
2, 11020, Note_on_c, 0, 44, 0
2, 11028, Note_on_c, 0, 80, 0
2, 11031, Note_on_c, 0, 44, 91
2, 11039, Note_on_c, 0, 80, 103
2, 11044, Note_on_c, 0, 68, 92
2, 11166, Note_on_c, 0, 68, 0
2, 11166, Note_on_c, 0, 63, 0
2, 11167, Note_on_c, 0, 73, 0
2, 11167, Note_on_c, 0, 51, 0
2, 11167, Note_on_c, 0, 72, 0
2, 11167, Note_on_c, 0, 58, 0
2, 11168, Note_on_c, 0, 61, 0
2, 11168, Note_on_c, 0, 56, 0
2, 11168, Note_on_c, 0, 85, 0
2, 11168, Note_on_c, 0, 60, 0
2, 11168, Note_on_c, 0, 84, 0
2, 11168, Control_c, 0, 64, 0
2, 11182, Note_on_c, 0, 32, 0
2, 11182, Note_on_c, 0, 77, 0
2, 11182, Note_on_c, 0, 82, 0
2, 11182, Note_on_c, 0, 89, 0
2, 11189, Note_on_c, 0, 44, 0
2, 11197, Note_on_c, 0, 75, 0
2, 11197, Note_on_c, 0, 80, 0
2, 11197, Note_on_c, 0, 87, 0
2, 11206, Note_on_c, 0, 75, 107
2, 11208, Note_on_c, 0, 87, 106
2, 11208, Note_on_c, 0, 37, 96
2, 11208, Note_on_c, 0, 80, 97
2, 11210, Note_on_c, 0, 77, 102
2, 11228, Control_c, 0, 64, 127
2, 11377, Note_on_c, 0, 49, 79
2, 11440, Note_on_c, 0, 53, 70
2, 11520, Note_on_c, 0, 37, 0
2, 11528, Note_on_c, 0, 56, 83
2, 11554, Note_on_c, 0, 61, 94
2, 11703, Note_on_c, 0, 63, 93
2, 11857, Note_on_c, 0, 49, 0
2, 11857, Note_on_c, 0, 87, 0
2, 11865, Note_on_c, 0, 75, 0
2, 11865, Note_on_c, 0, 77, 0
2, 11865, Note_on_c, 0, 80, 0
2, 11867, Note_on_c, 0, 87, 110
2, 11868, Note_on_c, 0, 49, 91
2, 11869, Note_on_c, 0, 75, 105
2, 11870, Note_on_c, 0, 80, 100
2, 11870, Note_on_c, 0, 77, 101
2, 12019, Note_on_c, 0, 56, 0
2, 12019, Note_on_c, 0, 63, 0
2, 12024, Note_on_c, 0, 63, 90
2, 12026, Note_on_c, 0, 56, 98
2, 12195, Note_on_c, 0, 49, 0
2, 12206, Note_on_c, 0, 37, 99
2, 12206, Note_on_c, 0, 49, 90
2, 12206, Note_on_c, 0, 85, 107
2, 12211, Note_on_c, 0, 73, 100
2, 12372, Note_on_c, 0, 75, 0
2, 12372, Note_on_c, 0, 77, 0
2, 12372, Note_on_c, 0, 80, 0
2, 12372, Note_on_c, 0, 87, 0
2, 12375, Note_on_c, 0, 48, 83
2, 12377, Note_on_c, 0, 87, 104
2, 12378, Note_on_c, 0, 77, 98
2, 12379, Note_on_c, 0, 75, 99
2, 12381, Note_on_c, 0, 58, 81
2, 12383, Note_on_c, 0, 80, 98
2, 12468, Note_on_c, 0, 49, 0
2, 12469, Note_on_c, 0, 37, 0
2, 12469, Note_on_c, 0, 56, 0
2, 12469, Note_on_c, 0, 53, 0
2, 12469, Note_on_c, 0, 61, 0
2, 12469, Note_on_c, 0, 48, 0
2, 12470, Note_on_c, 0, 63, 0
2, 12470, Note_on_c, 0, 73, 0
2, 12470, Note_on_c, 0, 85, 0
2, 12472, Control_c, 0, 64, 0
2, 12472, Note_on_c, 0, 58, 0
2, 12518, Control_c, 0, 64, 127
2, 12537, Note_on_c, 0, 46, 102
2, 12539, Note_on_c, 0, 34, 97
2, 12702, Note_on_c, 0, 46, 0
2, 12706, Note_on_c, 0, 46, 99
2, 12711, Note_on_c, 0, 85, 100
2, 12714, Note_on_c, 0, 73, 95
2, 12792, Note_on_c, 0, 53, 63
2, 12871, Note_on_c, 0, 75, 0
2, 12871, Note_on_c, 0, 87, 0
2, 12877, Note_on_c, 0, 87, 106
2, 12882, Note_on_c, 0, 75, 90
2, 12899, Note_on_c, 0, 58, 83
2, 12925, Note_on_c, 0, 62, 87
2, 13048, Note_on_c, 0, 77, 0
2, 13051, Note_on_c, 0, 89, 108
2, 13052, Note_on_c, 0, 86, 103
2, 13053, Note_on_c, 0, 77, 103
2, 13056, Note_on_c, 0, 80, 0
2, 13057, Note_on_c, 0, 82, 103
2, 13059, Note_on_c, 0, 70, 100
2, 13059, Note_on_c, 0, 65, 89
2, 13064, Note_on_c, 0, 80, 92
2, 13067, Note_on_c, 0, 68, 91
2, 13163, Note_on_c, 0, 62, 0
2, 13174, Note_on_c, 0, 62, 75
2, 13271, Note_on_c, 0, 58, 0
2, 13275, Note_on_c, 0, 58, 78
2, 13355, Note_on_c, 0, 53, 0
2, 13366, Note_on_c, 0, 53, 82
2, 13458, Note_on_c, 0, 50, 86
2, 13524, Note_on_c, 0, 46, 0
2, 13535, Note_on_c, 0, 46, 94
2, 13693, Note_on_c, 0, 89, 0
2, 13701, Note_on_c, 0, 77, 0
2, 13702, Note_on_c, 0, 89, 109
2, 13705, Note_on_c, 0, 77, 106
2, 13811, Note_on_c, 0, 87, 0
2, 13811, Note_on_c, 0, 68, 0
2, 13811, Note_on_c, 0, 62, 0
2, 13811, Note_on_c, 0, 80, 0
2, 13811, Note_on_c, 0, 89, 0
2, 13811, Note_on_c, 0, 50, 0
2, 13811, Note_on_c, 0, 65, 0
2, 13811, Note_on_c, 0, 82, 0
2, 13811, Note_on_c, 0, 86, 0
2, 13811, Note_on_c, 0, 73, 0
2, 13811, Note_on_c, 0, 58, 0
2, 13812, Note_on_c, 0, 70, 0
2, 13812, Note_on_c, 0, 77, 0
2, 13812, Note_on_c, 0, 75, 0
2, 13812, Note_on_c, 0, 85, 0
2, 13812, Note_on_c, 0, 34, 0
2, 13813, Control_c, 0, 64, 0
2, 13831, Note_on_c, 0, 46, 0
2, 13831, Note_on_c, 0, 53, 0
2, 13867, Note_on_c, 0, 39, 90
2, 13868, Note_on_c, 0, 77, 108
2, 13869, Note_on_c, 0, 89, 108
2, 13870, Note_on_c, 0, 85, 99
2, 13871, Note_on_c, 0, 82, 102
2, 13900, Control_c, 0, 64, 127
2, 14031, Note_on_c, 0, 51, 77
2, 14112, Note_on_c, 0, 54, 67
2, 14200, Note_on_c, 0, 51, 0
2, 14200, Note_on_c, 0, 82, 0
2, 14204, Note_on_c, 0, 82, 94
2, 14206, Note_on_c, 0, 70, 90
2, 14207, Note_on_c, 0, 51, 83
2, 14369, Note_on_c, 0, 85, 0
2, 14379, Note_on_c, 0, 85, 105
2, 14379, Note_on_c, 0, 61, 94
2, 14380, Note_on_c, 0, 78, 96
2, 14380, Note_on_c, 0, 75, 102
2, 14381, Note_on_c, 0, 73, 99
2, 14383, Note_on_c, 0, 58, 88
2, 14530, Note_on_c, 0, 51, 0
2, 14538, Note_on_c, 0, 51, 92
2, 14699, Note_on_c, 0, 54, 0
2, 14699, Note_on_c, 0, 58, 0
2, 14707, Note_on_c, 0, 75, 0
2, 14710, Note_on_c, 0, 87, 107
2, 14710, Note_on_c, 0, 58, 82
2, 14710, Note_on_c, 0, 54, 87
2, 14711, Note_on_c, 0, 75, 102
2, 14711, Note_on_c, 0, 66, 88
2, 14722, Note_on_c, 0, 66, 0
2, 14868, Note_on_c, 0, 51, 0
2, 14873, Note_on_c, 0, 51, 90
2, 14925, Note_on_c, 0, 46, 87
2, 15014, Note_on_c, 0, 39, 0
2, 15025, Note_on_c, 0, 39, 84
2, 15038, Note_on_c, 0, 92, 111
2, 15044, Note_on_c, 0, 84, 99
2, 15045, Note_on_c, 0, 87, 0
2, 15048, Note_on_c, 0, 80, 106
2, 15050, Note_on_c, 0, 87, 91
2, 15141, Control_c, 0, 64, 0
2, 15142, Note_on_c, 0, 82, 0
2, 15142, Note_on_c, 0, 89, 0
2, 15142, Note_on_c, 0, 77, 0
2, 15142, Note_on_c, 0, 51, 0
2, 15142, Note_on_c, 0, 85, 0
2, 15142, Note_on_c, 0, 78, 0
2, 15142, Note_on_c, 0, 39, 0
2, 15142, Note_on_c, 0, 75, 0
2, 15143, Note_on_c, 0, 58, 0
2, 15143, Note_on_c, 0, 54, 0
2, 15143, Note_on_c, 0, 70, 0
2, 15144, Note_on_c, 0, 73, 0
2, 15145, Note_on_c, 0, 61, 0
2, 15160, Note_on_c, 0, 46, 0
2, 15200, Note_on_c, 0, 44, 99
2, 15201, Note_on_c, 0, 32, 94
2, 15214, Control_c, 0, 64, 127
2, 15367, Note_on_c, 0, 92, 0
2, 15375, Note_on_c, 0, 80, 0
2, 15378, Note_on_c, 0, 58, 79
2, 15379, Note_on_c, 0, 92, 103
2, 15382, Note_on_c, 0, 80, 93
2, 15482, Note_on_c, 0, 58, 0
2, 15486, Note_on_c, 0, 51, 58
2, 15487, Note_on_c, 0, 58, 63
2, 15533, Note_on_c, 0, 60, 76
2, 15544, Note_on_c, 0, 87, 0
2, 15547, Note_on_c, 0, 78, 94
2, 15547, Note_on_c, 0, 90, 95
2, 15548, Note_on_c, 0, 87, 76
2, 15613, Note_on_c, 0, 51, 0
2, 15621, Note_on_c, 0, 51, 78
2, 15705, Note_on_c, 0, 78, 0
2, 15709, Note_on_c, 0, 61, 86
2, 15713, Note_on_c, 0, 84, 0
2, 15713, Note_on_c, 0, 87, 0
2, 15713, Note_on_c, 0, 90, 0
2, 15715, Note_on_c, 0, 78, 102
2, 15717, Note_on_c, 0, 90, 105
2, 15717, Note_on_c, 0, 84, 86
2, 15722, Note_on_c, 0, 87, 94
2, 15790, Note_on_c, 0, 51, 0
2, 15795, Note_on_c, 0, 51, 94
2, 15836, Note_on_c, 0, 61, 0
2, 15846, Note_on_c, 0, 61, 69
2, 15855, Note_on_c, 0, 63, 86
2, 15872, Note_on_c, 0, 89, 105
2, 15884, Note_on_c, 0, 77, 91
2, 15951, Note_on_c, 0, 51, 0
2, 15958, Note_on_c, 0, 51, 70
2, 16035, Note_on_c, 0, 87, 0
2, 16036, Note_on_c, 0, 65, 91
2, 16040, Note_on_c, 0, 87, 103
2, 16043, Note_on_c, 0, 75, 97
2, 16112, Note_on_c, 0, 51, 0
2, 16123, Note_on_c, 0, 51, 82
2, 16189, Note_on_c, 0, 78, 0
2, 16189, Note_on_c, 0, 90, 0
2, 16197, Note_on_c, 0, 84, 0
2, 16197, Note_on_c, 0, 87, 0
2, 16198, Note_on_c, 0, 90, 105
2, 16200, Note_on_c, 0, 66, 97
2, 16200, Note_on_c, 0, 78, 101
2, 16205, Note_on_c, 0, 84, 85
2, 16208, Note_on_c, 0, 87, 82
2, 16281, Note_on_c, 0, 51, 0
2, 16291, Note_on_c, 0, 51, 84
2, 16371, Note_on_c, 0, 68, 103
2, 16373, Note_on_c, 0, 58, 0
2, 16373, Note_on_c, 0, 65, 0
2, 16373, Note_on_c, 0, 77, 0
2, 16373, Note_on_c, 0, 89, 0
2, 16377, Note_on_c, 0, 65, 58
2, 16378, Note_on_c, 0, 89, 110
2, 16381, Note_on_c, 0, 80, 0
2, 16385, Note_on_c, 0, 58, 61
2, 16385, Note_on_c, 0, 77, 106
2, 16386, Note_on_c, 0, 80, 101
2, 16386, Note_on_c, 0, 85, 105
2, 16451, Note_on_c, 0, 44, 0
2, 16452, Note_on_c, 0, 75, 0
2, 16452, Note_on_c, 0, 63, 0
2, 16452, Note_on_c, 0, 51, 0
2, 16452, Note_on_c, 0, 66, 0
2, 16452, Note_on_c, 0, 92, 0
2, 16452, Note_on_c, 0, 60, 0
2, 16452, Note_on_c, 0, 84, 0
2, 16453, Control_c, 0, 64, 0
2, 16453, Note_on_c, 0, 87, 0
2, 16453, Note_on_c, 0, 61, 0
2, 16458, Note_on_c, 0, 32, 0
2, 16465, Note_on_c, 0, 78, 0
2, 16465, Note_on_c, 0, 90, 0
2, 16473, Note_on_c, 0, 65, 0
2, 16535, Control_c, 0, 64, 127
2, 16542, Note_on_c, 0, 58, 0
2, 16544, Note_on_c, 0, 30, 98
2, 16546, Note_on_c, 0, 42, 101
2, 16704, Note_on_c, 0, 68, 0
2, 16713, Note_on_c, 0, 68, 98
2, 16811, Note_on_c, 0, 42, 0
2, 16815, Note_on_c, 0, 42, 71
2, 16819, Note_on_c, 0, 46, 66
2, 16826, Note_on_c, 0, 46, 0
2, 16865, Note_on_c, 0, 80, 0
2, 16874, Note_on_c, 0, 80, 91
2, 16875, Note_on_c, 0, 54, 81
2, 16957, Note_on_c, 0, 42, 0
2, 16957, Note_on_c, 0, 54, 0
2, 16961, Note_on_c, 0, 78, 92
2, 16967, Note_on_c, 0, 54, 91
2, 16967, Note_on_c, 0, 42, 78
2, 17061, Note_on_c, 0, 65, 85
2, 17064, Note_on_c, 0, 58, 73
2, 17067, Note_on_c, 0, 61, 76
2, 17126, Note_on_c, 0, 77, 0
2, 17135, Note_on_c, 0, 77, 96
2, 17149, Note_on_c, 0, 42, 0
2, 17156, Note_on_c, 0, 42, 58
2, 17264, Note_on_c, 0, 42, 0
2, 17269, Note_on_c, 0, 42, 70
2, 17303, Note_on_c, 0, 77, 0
2, 17309, Note_on_c, 0, 77, 84
2, 17341, Note_on_c, 0, 54, 0
2, 17347, Note_on_c, 0, 54, 78
2, 17349, Note_on_c, 0, 42, 0
2, 17357, Note_on_c, 0, 42, 74
2, 17464, Note_on_c, 0, 77, 0
2, 17472, Note_on_c, 0, 77, 81
2, 17485, Note_on_c, 0, 76, 55
2, 17495, Note_on_c, 0, 76, 0
2, 17556, Note_on_c, 0, 54, 0
2, 17556, Note_on_c, 0, 58, 0
2, 17557, Note_on_c, 0, 63, 81
2, 17561, Note_on_c, 0, 58, 75
2, 17565, Note_on_c, 0, 54, 72
2, 17565, Note_on_c, 0, 72, 83
2, 17725, Note_on_c, 0, 42, 0
2, 17729, Note_on_c, 0, 73, 87
2, 17736, Note_on_c, 0, 42, 57
2, 17890, Control_c, 0, 64, 0
2, 17890, Note_on_c, 0, 54, 0
2, 17890, Note_on_c, 0, 58, 0
2, 17890, Note_on_c, 0, 63, 0
2, 17890, Note_on_c, 0, 61, 0
2, 17890, Note_on_c, 0, 80, 0
2, 17890, Note_on_c, 0, 68, 0
2, 17890, Note_on_c, 0, 78, 0
2, 17891, Note_on_c, 0, 65, 0
2, 17891, Note_on_c, 0, 72, 0
2, 17891, Note_on_c, 0, 77, 0
2, 17894, Note_on_c, 0, 30, 0
2, 17894, Note_on_c, 0, 42, 0
2, 17902, Note_on_c, 0, 89, 0
2, 17904, Note_on_c, 0, 30, 65
2, 17905, Note_on_c, 0, 42, 72
2, 17909, Note_on_c, 0, 85, 0
2, 18009, Control_c, 0, 64, 127
2, 18070, Note_on_c, 0, 68, 84
2, 18228, Note_on_c, 0, 54, 77
2, 18229, Note_on_c, 0, 80, 87
2, 18319, Note_on_c, 0, 78, 87
2, 18383, Note_on_c, 0, 65, 74
2, 18384, Note_on_c, 0, 61, 70
2, 18393, Note_on_c, 0, 54, 0
2, 18397, Note_on_c, 0, 58, 57
2, 18398, Note_on_c, 0, 54, 51
2, 18483, Note_on_c, 0, 77, 88
2, 18554, Note_on_c, 0, 30, 0
2, 18624, Note_on_c, 0, 42, 0
2, 18633, Note_on_c, 0, 42, 48
2, 18654, Note_on_c, 0, 77, 0
2, 18658, Note_on_c, 0, 77, 81
2, 18723, Note_on_c, 0, 54, 0
2, 18728, Note_on_c, 0, 66, 59
2, 18728, Note_on_c, 0, 54, 56
2, 18792, Note_on_c, 0, 77, 0
2, 18797, Note_on_c, 0, 77, 78
2, 18900, Note_on_c, 0, 58, 0
2, 18900, Note_on_c, 0, 66, 0
2, 18904, Note_on_c, 0, 63, 65
2, 18906, Note_on_c, 0, 58, 68
2, 18907, Note_on_c, 0, 66, 59
2, 18910, Note_on_c, 0, 72, 79
2, 19077, Note_on_c, 0, 73, 0
2, 19085, Note_on_c, 0, 73, 79
2, 19220, Control_c, 0, 64, 0
2, 19223, Note_on_c, 0, 58, 0
2, 19224, Note_on_c, 0, 54, 0
2, 19224, Note_on_c, 0, 65, 0
2, 19224, Note_on_c, 0, 68, 0
2, 19224, Note_on_c, 0, 78, 0
2, 19225, Note_on_c, 0, 61, 0
2, 19225, Note_on_c, 0, 63, 0
2, 19225, Note_on_c, 0, 77, 0
2, 19225, Note_on_c, 0, 72, 0
2, 19225, Note_on_c, 0, 80, 0
2, 19246, Note_on_c, 0, 66, 0
2, 19261, Note_on_c, 0, 42, 0
2, 19268, Note_on_c, 0, 42, 53
2, 19273, Note_on_c, 0, 68, 59
2, 19276, Note_on_c, 0, 58, 59
2, 19278, Note_on_c, 0, 61, 63
2, 19361, Control_c, 0, 64, 127
2, 19442, Note_on_c, 0, 49, 55
2, 19612, Note_on_c, 0, 77, 84
2, 19622, Note_on_c, 0, 54, 60
2, 19770, Note_on_c, 0, 56, 69
2, 19944, Note_on_c, 0, 58, 0
2, 19944, Note_on_c, 0, 77, 0
2, 19950, Note_on_c, 0, 58, 62
2, 19951, Note_on_c, 0, 77, 86
2, 19952, Note_on_c, 0, 70, 59
2, 19960, Note_on_c, 0, 70, 0
2, 20106, Note_on_c, 0, 54, 0
2, 20117, Note_on_c, 0, 54, 69
2, 20282, Note_on_c, 0, 61, 0
2, 20286, Note_on_c, 0, 75, 87
2, 20287, Note_on_c, 0, 61, 68
2, 20444, Note_on_c, 0, 73, 0
2, 20451, Note_on_c, 0, 54, 0
2, 20454, Note_on_c, 0, 73, 83
2, 20458, Note_on_c, 0, 54, 61
2, 20460, Note_on_c, 0, 66, 65
2, 20594, Control_c, 0, 64, 0
2, 20595, Note_on_c, 0, 49, 0
2, 20595, Note_on_c, 0, 56, 0
2, 20595, Note_on_c, 0, 58, 0
2, 20595, Note_on_c, 0, 42, 0
2, 20596, Note_on_c, 0, 54, 0
2, 20596, Note_on_c, 0, 61, 0
2, 20596, Note_on_c, 0, 73, 0
2, 20596, Note_on_c, 0, 66, 0
2, 20598, Note_on_c, 0, 77, 0
2, 20605, Note_on_c, 0, 68, 0
2, 20613, Note_on_c, 0, 75, 0
2, 20622, Note_on_c, 0, 75, 89
2, 20632, Note_on_c, 0, 44, 65
2, 20640, Note_on_c, 0, 72, 63
2, 20642, Note_on_c, 0, 63, 60
2, 20646, Note_on_c, 0, 68, 60
2, 20697, Control_c, 0, 64, 127
2, 20786, Note_on_c, 0, 51, 66
2, 20951, Note_on_c, 0, 68, 0
2, 20962, Note_on_c, 0, 68, 71
2, 20962, Note_on_c, 0, 56, 68
2, 20964, Note_on_c, 0, 77, 86
2, 21120, Note_on_c, 0, 58, 68
2, 21304, Note_on_c, 0, 75, 0
2, 21308, Note_on_c, 0, 75, 85
2, 21311, Note_on_c, 0, 60, 60
2, 21450, Note_on_c, 0, 56, 0
2, 21456, Note_on_c, 0, 56, 71
2, 21626, Note_on_c, 0, 63, 0
2, 21632, Note_on_c, 0, 63, 72
2, 21634, Note_on_c, 0, 73, 88
2, 21788, Note_on_c, 0, 56, 0
2, 21794, Note_on_c, 0, 56, 65
2, 21949, Note_on_c, 0, 73, 0
2, 21952, Control_c, 0, 64, 0
2, 21957, Note_on_c, 0, 68, 0
2, 21959, Note_on_c, 0, 73, 90
2, 21967, Note_on_c, 0, 68, 75
2, 21968, Note_on_c, 0, 58, 0
2, 21969, Note_on_c, 0, 63, 0
2, 21969, Note_on_c, 0, 51, 0
2, 21969, Note_on_c, 0, 60, 0
2, 21971, Note_on_c, 0, 46, 68
2, 21971, Note_on_c, 0, 56, 0
2, 21972, Note_on_c, 0, 44, 0
2, 21975, Note_on_c, 0, 75, 0
2, 21975, Note_on_c, 0, 77, 0
2, 21980, Note_on_c, 0, 72, 0
2, 22056, Control_c, 0, 64, 127
2, 22134, Note_on_c, 0, 53, 61
2, 22323, Note_on_c, 0, 60, 66
2, 22348, Note_on_c, 0, 46, 0
2, 22484, Note_on_c, 0, 61, 72
2, 22648, Note_on_c, 0, 53, 0
2, 22656, Note_on_c, 0, 53, 60
2, 22817, Note_on_c, 0, 68, 0
2, 22826, Note_on_c, 0, 68, 86
2, 22837, Note_on_c, 0, 56, 70
2, 23006, Note_on_c, 0, 70, 85
2, 23011, Note_on_c, 0, 58, 72
2, 23162, Note_on_c, 0, 68, 0
2, 23167, Note_on_c, 0, 68, 93
2, 23273, Control_c, 0, 64, 0
2, 23275, Note_on_c, 0, 53, 0
2, 23276, Note_on_c, 0, 58, 0
2, 23276, Note_on_c, 0, 61, 0
2, 23276, Note_on_c, 0, 60, 0
2, 23276, Note_on_c, 0, 56, 0
2, 23277, Note_on_c, 0, 70, 0
2, 23285, Note_on_c, 0, 73, 0
2, 23331, Note_on_c, 0, 68, 0
2, 23336, Note_on_c, 0, 48, 76
2, 23337, Note_on_c, 0, 63, 77
2, 23339, Note_on_c, 0, 68, 72
2, 23370, Control_c, 0, 64, 127
2, 23523, Note_on_c, 0, 68, 0
2, 23529, Note_on_c, 0, 72, 73
2, 23534, Note_on_c, 0, 68, 63
2, 23542, Note_on_c, 0, 56, 63
2, 23609, Note_on_c, 0, 75, 77
2, 23656, Note_on_c, 0, 49, 71
2, 23672, Control_c, 0, 64, 0
2, 23673, Note_on_c, 0, 56, 0
2, 23674, Note_on_c, 0, 68, 0
2, 23675, Note_on_c, 0, 63, 0
2, 23675, Note_on_c, 0, 48, 0
2, 23675, Note_on_c, 0, 72, 0
2, 23675, Note_on_c, 0, 75, 0
2, 23687, Note_on_c, 0, 80, 72
2, 23746, Control_c, 0, 64, 127
2, 23749, Note_on_c, 0, 85, 79
2, 23757, Note_on_c, 0, 56, 79
2, 23825, Note_on_c, 0, 84, 82
2, 23855, Note_on_c, 0, 65, 91
2, 23860, Control_c, 0, 64, 0
2, 23869, Control_c, 0, 64, 127
2, 23900, Note_on_c, 0, 80, 0
2, 23900, Note_on_c, 0, 85, 0
2, 23904, Note_on_c, 0, 85, 82
2, 23969, Note_on_c, 0, 84, 0
2, 23976, Note_on_c, 0, 84, 70
2, 24058, Note_on_c, 0, 80, 74
2, 24141, Note_on_c, 0, 77, 74
2, 24171, Note_on_c, 0, 63, 82
2, 24236, Note_on_c, 0, 75, 73
2, 24320, Note_on_c, 0, 73, 71
2, 24349, Note_on_c, 0, 61, 76
2, 24387, Note_on_c, 0, 72, 79
2, 24495, Note_on_c, 0, 60, 80
2, 24496, Note_on_c, 0, 70, 66
2, 24559, Note_on_c, 0, 68, 78
2, 24605, Note_on_c, 0, 63, 0
2, 24605, Note_on_c, 0, 73, 0
2, 24605, Note_on_c, 0, 80, 0
2, 24605, Control_c, 0, 64, 0
2, 24606, Note_on_c, 0, 72, 0
2, 24606, Note_on_c, 0, 61, 0
2, 24606, Note_on_c, 0, 56, 0
2, 24606, Note_on_c, 0, 65, 0
2, 24607, Note_on_c, 0, 75, 0
2, 24607, Note_on_c, 0, 85, 0
2, 24607, Note_on_c, 0, 60, 0
2, 24608, Note_on_c, 0, 84, 0
2, 24614, Note_on_c, 0, 49, 0
2, 24622, Note_on_c, 0, 77, 0
2, 24660, Note_on_c, 0, 70, 0
2, 24664, Note_on_c, 0, 70, 79
2, 24669, Note_on_c, 0, 42, 71
2, 24672, Note_on_c, 0, 58, 76
2, 24706, Control_c, 0, 64, 127
2, 24863, Note_on_c, 0, 49, 61
2, 25016, Note_on_c, 0, 77, 83
2, 25032, Note_on_c, 0, 65, 70
2, 25036, Note_on_c, 0, 70, 0
2, 25038, Note_on_c, 0, 73, 68
2, 25040, Note_on_c, 0, 66, 65
2, 25040, Note_on_c, 0, 54, 61
2, 25047, Note_on_c, 0, 70, 60
2, 25189, Note_on_c, 0, 56, 72
2, 25351, Note_on_c, 0, 58, 0
2, 25351, Note_on_c, 0, 77, 0
2, 25360, Note_on_c, 0, 58, 73
2, 25362, Note_on_c, 0, 77, 89
2, 25367, Note_on_c, 0, 73, 0
2, 25374, Note_on_c, 0, 65, 0
2, 25374, Note_on_c, 0, 70, 0
2, 25378, Note_on_c, 0, 73, 72
2, 25378, Note_on_c, 0, 65, 70
2, 25379, Note_on_c, 0, 70, 68
2, 25520, Note_on_c, 0, 54, 0
2, 25526, Note_on_c, 0, 54, 71
2, 25677, Note_on_c, 0, 61, 66
2, 25697, Note_on_c, 0, 70, 0
2, 25704, Note_on_c, 0, 75, 82
2, 25706, Note_on_c, 0, 70, 47
2, 25858, Note_on_c, 0, 54, 0
2, 25858, Note_on_c, 0, 66, 0
2, 25858, Note_on_c, 0, 73, 0
2, 25863, Note_on_c, 0, 54, 63
2, 25864, Note_on_c, 0, 73, 81
2, 25865, Note_on_c, 0, 66, 66
2, 25993, Control_c, 0, 64, 0
2, 25995, Note_on_c, 0, 56, 0
2, 25995, Note_on_c, 0, 54, 0
2, 25995, Note_on_c, 0, 49, 0
2, 25995, Note_on_c, 0, 70, 0
2, 25995, Note_on_c, 0, 42, 0
2, 25995, Note_on_c, 0, 65, 0
2, 25997, Note_on_c, 0, 61, 0
2, 25997, Note_on_c, 0, 73, 0
2, 25998, Note_on_c, 0, 66, 0
2, 26004, Note_on_c, 0, 68, 0
2, 26012, Note_on_c, 0, 58, 0
2, 26012, Note_on_c, 0, 77, 0
2, 26019, Note_on_c, 0, 75, 0
2, 26030, Note_on_c, 0, 75, 87
2, 26046, Note_on_c, 0, 44, 70
2, 26047, Note_on_c, 0, 72, 63
2, 26054, Note_on_c, 0, 68, 66
2, 26104, Control_c, 0, 64, 127
2, 26204, Note_on_c, 0, 51, 66
2, 26369, Note_on_c, 0, 77, 89
2, 26373, Note_on_c, 0, 68, 0
2, 26382, Note_on_c, 0, 56, 73
2, 26384, Note_on_c, 0, 68, 70
2, 26529, Note_on_c, 0, 58, 70
2, 26695, Note_on_c, 0, 75, 0
2, 26702, Note_on_c, 0, 75, 93
2, 26706, Note_on_c, 0, 60, 73
2, 26864, Note_on_c, 0, 56, 0
2, 26870, Note_on_c, 0, 56, 70
2, 27031, Note_on_c, 0, 73, 85
2, 27038, Note_on_c, 0, 63, 68
2, 27194, Note_on_c, 0, 56, 0
2, 27202, Note_on_c, 0, 56, 69
2, 27345, Control_c, 0, 64, 0
2, 27348, Note_on_c, 0, 58, 0
2, 27348, Note_on_c, 0, 63, 0
2, 27348, Note_on_c, 0, 51, 0
2, 27349, Note_on_c, 0, 75, 0
2, 27349, Note_on_c, 0, 60, 0
2, 27350, Note_on_c, 0, 72, 0
2, 27350, Note_on_c, 0, 56, 0
2, 27350, Note_on_c, 0, 77, 0
2, 27350, Note_on_c, 0, 44, 0
2, 27363, Note_on_c, 0, 68, 0
2, 27363, Note_on_c, 0, 73, 0
2, 27367, Note_on_c, 0, 73, 85
2, 27368, Note_on_c, 0, 68, 88
2, 27374, Note_on_c, 0, 66, 85
2, 27375, Note_on_c, 0, 49, 64
2, 27456, Control_c, 0, 64, 127
2, 27541, Note_on_c, 0, 56, 67
2, 27690, Note_on_c, 0, 61, 72
2, 27870, Note_on_c, 0, 65, 83
2, 27870, Note_on_c, 0, 63, 78
2, 27904, Control_c, 0, 64, 0
2, 27911, Note_on_c, 0, 68, 0
2, 27911, Note_on_c, 0, 56, 0
2, 27912, Note_on_c, 0, 61, 0
2, 27913, Note_on_c, 0, 66, 0
2, 27913, Note_on_c, 0, 73, 0
2, 27939, Note_on_c, 0, 49, 0
2, 27962, Control_c, 0, 64, 127
2, 28037, Note_on_c, 0, 56, 75
2, 28189, Control_c, 0, 64, 0
2, 28193, Note_on_c, 0, 65, 0
2, 28199, Note_on_c, 0, 65, 94
2, 28201, Note_on_c, 0, 61, 84
2, 28216, Control_c, 0, 64, 127
2, 28362, Note_on_c, 0, 63, 0
2, 28366, Note_on_c, 0, 63, 89
2, 28371, Note_on_c, 0, 60, 87
2, 28373, Note_on_c, 0, 48, 82
2, 28489, Control_c, 0, 64, 0
2, 28489, Note_on_c, 0, 48, 0
2, 28489, Note_on_c, 0, 61, 0
2, 28489, Note_on_c, 0, 56, 0
2, 28490, Note_on_c, 0, 65, 0
2, 28490, Note_on_c, 0, 63, 0
2, 28490, Note_on_c, 0, 60, 0
2, 28547, Note_on_c, 0, 65, 97
2, 28548, Note_on_c, 0, 58, 90
2, 28548, Note_on_c, 0, 63, 91
2, 28550, Note_on_c, 0, 46, 94
2, 28554, Note_on_c, 0, 58, 0
2, 28600, Control_c, 0, 64, 127
2, 28878, Control_c, 0, 64, 0
2, 28879, Note_on_c, 0, 63, 0
2, 28892, Note_on_c, 0, 46, 0
2, 28896, Note_on_c, 0, 46, 93
2, 28896, Note_on_c, 0, 34, 86
2, 28898, Note_on_c, 0, 62, 88
2, 28953, Control_c, 0, 64, 127
2, 29065, Note_on_c, 0, 78, 104
2, 29070, Note_on_c, 0, 66, 103
2, 29391, Note_on_c, 0, 65, 0
2, 29398, Note_on_c, 0, 65, 102
2, 29398, Note_on_c, 0, 77, 104
2, 29562, Note_on_c, 0, 58, 98
2, 29721, Note_on_c, 0, 66, 0
2, 29724, Note_on_c, 0, 53, 80
2, 29724, Note_on_c, 0, 87, 90
2, 29724, Note_on_c, 0, 63, 99
2, 29725, Note_on_c, 0, 75, 105
2, 29726, Note_on_c, 0, 66, 78
2, 29729, Note_on_c, 0, 53, 0
2, 29729, Note_on_c, 0, 87, 0
2, 29852, Note_on_c, 0, 46, 0
2, 29861, Note_on_c, 0, 46, 88
2, 29896, Note_on_c, 0, 73, 99
2, 29901, Note_on_c, 0, 61, 94
2, 30012, Note_on_c, 0, 62, 0
2, 30013, Note_on_c, 0, 46, 0
2, 30013, Note_on_c, 0, 34, 0
2, 30014, Note_on_c, 0, 63, 0
2, 30014, Note_on_c, 0, 58, 0
2, 30014, Note_on_c, 0, 61, 0
2, 30014, Note_on_c, 0, 78, 0
2, 30014, Note_on_c, 0, 75, 0
2, 30014, Note_on_c, 0, 77, 0
2, 30015, Note_on_c, 0, 65, 0
2, 30015, Note_on_c, 0, 66, 0
2, 30015, Note_on_c, 0, 73, 0
2, 30016, Control_c, 0, 64, 0
2, 30049, Note_on_c, 0, 30, 96
2, 30050, Note_on_c, 0, 72, 104
2, 30053, Note_on_c, 0, 60, 99
2, 30055, Note_on_c, 0, 66, 94
2, 30060, Note_on_c, 0, 70, 91
2, 30092, Note_on_c, 0, 60, 0
2, 30120, Control_c, 0, 64, 127
2, 30174, Note_on_c, 0, 30, 0
2, 30220, Note_on_c, 0, 42, 91
2, 30223, Note_on_c, 0, 61, 94
2, 30224, Note_on_c, 0, 73, 92
2, 30321, Note_on_c, 0, 49, 76
2, 30374, Note_on_c, 0, 66, 0
2, 30374, Note_on_c, 0, 73, 0
2, 30380, Note_on_c, 0, 73, 87
2, 30384, Note_on_c, 0, 66, 83
2, 30384, Note_on_c, 0, 54, 88
2, 30535, Note_on_c, 0, 49, 0
2, 30535, Note_on_c, 0, 61, 0
2, 30535, Note_on_c, 0, 73, 0
2, 30539, Note_on_c, 0, 85, 99
2, 30540, Note_on_c, 0, 82, 86
2, 30541, Note_on_c, 0, 73, 90
2, 30543, Note_on_c, 0, 61, 94
2, 30545, Note_on_c, 0, 49, 94
2, 30709, Note_on_c, 0, 97, 100
2, 30713, Note_on_c, 0, 48, 100
2, 30721, Note_on_c, 0, 94, 88
2, 30723, Note_on_c, 0, 60, 94
2, 30789, Note_on_c, 0, 85, 0
2, 30800, Note_on_c, 0, 85, 97
2, 30865, Note_on_c, 0, 49, 0
2, 30865, Note_on_c, 0, 61, 0
2, 30873, Note_on_c, 0, 85, 0
2, 30875, Note_on_c, 0, 61, 101
2, 30877, Note_on_c, 0, 49, 89
2, 30881, Note_on_c, 0, 85, 88
2, 30950, Note_on_c, 0, 73, 0
2, 30955, Note_on_c, 0, 73, 94
2, 31050, Note_on_c, 0, 54, 0
2, 31057, Note_on_c, 0, 42, 0
2, 31061, Note_on_c, 0, 54, 92
2, 31063, Note_on_c, 0, 42, 66
2, 31157, Note_on_c, 0, 49, 0
2, 31163, Note_on_c, 0, 49, 83
2, 31219, Note_on_c, 0, 42, 0
2, 31219, Note_on_c, 0, 61, 0
2, 31219, Note_on_c, 0, 73, 0
2, 31225, Note_on_c, 0, 42, 83
2, 31225, Note_on_c, 0, 73, 102
2, 31226, Note_on_c, 0, 61, 95
2, 31328, Note_on_c, 0, 60, 0
2, 31329, Note_on_c, 0, 48, 0
2, 31329, Note_on_c, 0, 42, 0
2, 31329, Note_on_c, 0, 97, 0
2, 31329, Note_on_c, 0, 72, 0
2, 31329, Control_c, 0, 64, 0
2, 31329, Note_on_c, 0, 73, 0
2, 31329, Note_on_c, 0, 61, 0
2, 31330, Note_on_c, 0, 94, 0
2, 31330, Note_on_c, 0, 85, 0
2, 31330, Note_on_c, 0, 66, 0
2, 31330, Note_on_c, 0, 70, 0
2, 31342, Note_on_c, 0, 49, 0
2, 31342, Note_on_c, 0, 82, 0
2, 31349, Note_on_c, 0, 54, 0
2, 31382, Note_on_c, 0, 60, 101
2, 31382, Note_on_c, 0, 44, 101
2, 31383, Note_on_c, 0, 72, 101
2, 31383, Note_on_c, 0, 32, 91
2, 31385, Note_on_c, 0, 68, 102
2, 31385, Note_on_c, 0, 66, 92
2, 31386, Note_on_c, 0, 63, 98
2, 31421, Note_on_c, 0, 34, 54
2, 31426, Control_c, 0, 64, 127
2, 31549, Note_on_c, 0, 72, 0
2, 31557, Note_on_c, 0, 44, 0
2, 31564, Note_on_c, 0, 32, 0
2, 31566, Note_on_c, 0, 61, 92
2, 31567, Note_on_c, 0, 73, 91
2, 31567, Note_on_c, 0, 44, 86
2, 31569, Note_on_c, 0, 32, 76
2, 31648, Note_on_c, 0, 51, 88
2, 31703, Note_on_c, 0, 44, 0
2, 31710, Note_on_c, 0, 44, 82
2, 31710, Note_on_c, 0, 68, 0
2, 31717, Note_on_c, 0, 68, 81
2, 31730, Note_on_c, 0, 56, 88
2, 31802, Note_on_c, 0, 73, 0
2, 31809, Note_on_c, 0, 73, 78
2, 31867, Note_on_c, 0, 82, 93
2, 31872, Note_on_c, 0, 73, 0
2, 31873, Note_on_c, 0, 85, 97
2, 31877, Note_on_c, 0, 73, 89
2, 31895, Note_on_c, 0, 61, 0
2, 31901, Note_on_c, 0, 49, 96
2, 31902, Note_on_c, 0, 34, 0
2, 31905, Note_on_c, 0, 61, 97
2, 31948, Note_on_c, 0, 85, 0
2, 31959, Note_on_c, 0, 85, 86
2, 32046, Note_on_c, 0, 97, 105
2, 32057, Note_on_c, 0, 94, 95
2, 32061, Note_on_c, 0, 48, 103
2, 32117, Note_on_c, 0, 85, 0
2, 32123, Note_on_c, 0, 85, 83
2, 32217, Note_on_c, 0, 49, 0
2, 32217, Note_on_c, 0, 61, 0
2, 32222, Note_on_c, 0, 49, 92
2, 32224, Note_on_c, 0, 61, 98
2, 32232, Note_on_c, 0, 73, 0
2, 32232, Note_on_c, 0, 85, 0
2, 32237, Note_on_c, 0, 85, 99
2, 32244, Note_on_c, 0, 73, 89
2, 32271, Note_on_c, 0, 60, 0
2, 32282, Note_on_c, 0, 60, 49
2, 32286, Note_on_c, 0, 73, 0
2, 32291, Note_on_c, 0, 73, 84
2, 32386, Note_on_c, 0, 56, 0
2, 32396, Note_on_c, 0, 56, 88
2, 32478, Note_on_c, 0, 51, 0
2, 32485, Note_on_c, 0, 51, 87
2, 32532, Note_on_c, 0, 44, 0
2, 32540, Note_on_c, 0, 44, 90
2, 32540, Note_on_c, 0, 85, 0
2, 32550, Note_on_c, 0, 85, 87
2, 32555, Note_on_c, 0, 73, 0
2, 32563, Note_on_c, 0, 61, 0
2, 32565, Note_on_c, 0, 73, 93
2, 32573, Note_on_c, 0, 61, 86
2, 32665, Note_on_c, 0, 97, 0
2, 32665, Note_on_c, 0, 48, 0
2, 32665, Note_on_c, 0, 63, 0
2, 32665, Note_on_c, 0, 66, 0
2, 32666, Note_on_c, 0, 94, 0
2, 32666, Note_on_c, 0, 82, 0
2, 32666, Note_on_c, 0, 51, 0
2, 32666, Note_on_c, 0, 60, 0
2, 32666, Note_on_c, 0, 61, 0
2, 32666, Note_on_c, 0, 49, 0
2, 32667, Control_c, 0, 64, 0
2, 32678, Note_on_c, 0, 32, 0
2, 32678, Note_on_c, 0, 85, 0
2, 32686, Note_on_c, 0, 44, 0
2, 32686, Note_on_c, 0, 56, 0
2, 32686, Note_on_c, 0, 68, 0
2, 32686, Note_on_c, 0, 73, 0
2, 32715, Note_on_c, 0, 72, 104
2, 32718, Note_on_c, 0, 60, 96
2, 32720, Note_on_c, 0, 68, 101
2, 32720, Note_on_c, 0, 46, 106
2, 32720, Note_on_c, 0, 65, 96
2, 32722, Note_on_c, 0, 34, 91
2, 32748, Note_on_c, 0, 60, 0
2, 32762, Control_c, 0, 64, 127
2, 32816, Note_on_c, 0, 34, 0
2, 32878, Note_on_c, 0, 46, 0
2, 32889, Note_on_c, 0, 46, 96
2, 32892, Note_on_c, 0, 61, 95
2, 32894, Note_on_c, 0, 73, 91
2, 32933, Note_on_c, 0, 53, 53
2, 33039, Note_on_c, 0, 73, 0
2, 33042, Note_on_c, 0, 58, 84
2, 33044, Note_on_c, 0, 73, 77
2, 33123, Note_on_c, 0, 61, 0
2, 33123, Note_on_c, 0, 73, 0
2, 33129, Note_on_c, 0, 61, 60
2, 33132, Note_on_c, 0, 73, 83
2, 33133, Note_on_c, 0, 85, 79
2, 33208, Note_on_c, 0, 73, 0
2, 33208, Note_on_c, 0, 85, 0
2, 33209, Note_on_c, 0, 82, 87
2, 33213, Note_on_c, 0, 85, 92
2, 33216, Note_on_c, 0, 61, 0
2, 33216, Note_on_c, 0, 73, 95
2, 33219, Note_on_c, 0, 49, 95
2, 33223, Note_on_c, 0, 61, 97
2, 33375, Note_on_c, 0, 97, 102
2, 33381, Note_on_c, 0, 94, 91
2, 33381, Note_on_c, 0, 48, 103
2, 33384, Note_on_c, 0, 60, 101
2, 33446, Note_on_c, 0, 85, 0
2, 33452, Note_on_c, 0, 85, 89
2, 33546, Note_on_c, 0, 49, 0
2, 33546, Note_on_c, 0, 61, 0
2, 33546, Note_on_c, 0, 85, 0
2, 33550, Note_on_c, 0, 61, 96
2, 33552, Note_on_c, 0, 49, 90
2, 33553, Note_on_c, 0, 73, 0
2, 33557, Note_on_c, 0, 85, 96
2, 33561, Note_on_c, 0, 73, 95
2, 33600, Note_on_c, 0, 73, 0
2, 33604, Note_on_c, 0, 73, 60
2, 33707, Note_on_c, 0, 58, 0
2, 33715, Note_on_c, 0, 46, 0
2, 33715, Note_on_c, 0, 49, 0
2, 33716, Note_on_c, 0, 58, 92
2, 33719, Note_on_c, 0, 46, 75
2, 33726, Note_on_c, 0, 49, 64
2, 33792, Note_on_c, 0, 53, 0
2, 33797, Note_on_c, 0, 53, 80
2, 33853, Note_on_c, 0, 46, 0
2, 33862, Note_on_c, 0, 46, 85
2, 33876, Note_on_c, 0, 61, 0
2, 33880, Note_on_c, 0, 61, 89
2, 33884, Note_on_c, 0, 73, 0
2, 33886, Note_on_c, 0, 85, 0
2, 33889, Note_on_c, 0, 73, 98
2, 33981, Control_c, 0, 64, 0
2, 33981, Note_on_c, 0, 48, 0
2, 33982, Note_on_c, 0, 46, 0
2, 33982, Note_on_c, 0, 97, 0
2, 33982, Note_on_c, 0, 53, 0
2, 33982, Note_on_c, 0, 73, 0
2, 33982, Note_on_c, 0, 68, 0
2, 33983, Note_on_c, 0, 58, 0
2, 33983, Note_on_c, 0, 49, 0
2, 33984, Note_on_c, 0, 94, 0
2, 33984, Note_on_c, 0, 60, 0
2, 33999, Note_on_c, 0, 61, 0
2, 33999, Note_on_c, 0, 65, 0
2, 33999, Note_on_c, 0, 72, 0
2, 33999, Note_on_c, 0, 82, 0
2, 34042, Note_on_c, 0, 56, 88
2, 34044, Note_on_c, 0, 75, 110
2, 34045, Note_on_c, 0, 48, 89
2, 34046, Note_on_c, 0, 68, 106
2, 34048, Note_on_c, 0, 50, 90
2, 34049, Note_on_c, 0, 36, 89
2, 34050, Note_on_c, 0, 63, 97
2, 34053, Note_on_c, 0, 56, 0
2, 34060, Control_c, 0, 64, 127
2, 34191, Note_on_c, 0, 48, 0
2, 34196, Note_on_c, 0, 48, 86
2, 34216, Note_on_c, 0, 61, 85
2, 34217, Note_on_c, 0, 73, 93
2, 34283, Note_on_c, 0, 48, 0
2, 34283, Note_on_c, 0, 68, 0
2, 34286, Note_on_c, 0, 56, 74
2, 34287, Note_on_c, 0, 48, 76
2, 34287, Note_on_c, 0, 60, 83
2, 34290, Note_on_c, 0, 68, 68
2, 34383, Note_on_c, 0, 56, 0
2, 34383, Note_on_c, 0, 63, 0
2, 34383, Note_on_c, 0, 68, 0
2, 34383, Note_on_c, 0, 75, 0
2, 34387, Note_on_c, 0, 75, 106
2, 34388, Note_on_c, 0, 56, 87
2, 34389, Note_on_c, 0, 68, 87
2, 34391, Note_on_c, 0, 63, 91
2, 34521, Note_on_c, 0, 50, 0
2, 34522, Note_on_c, 0, 48, 0
2, 34522, Note_on_c, 0, 56, 0
2, 34522, Note_on_c, 0, 73, 0
2, 34522, Note_on_c, 0, 68, 0
2, 34523, Note_on_c, 0, 61, 0
2, 34523, Note_on_c, 0, 75, 0
2, 34523, Note_on_c, 0, 60, 0
2, 34524, Control_c, 0, 64, 0
2, 34529, Note_on_c, 0, 36, 0
2, 34536, Note_on_c, 0, 63, 0
2, 34562, Note_on_c, 0, 77, 103
2, 34563, Note_on_c, 0, 49, 97
2, 34563, Note_on_c, 0, 37, 100
2, 34564, Note_on_c, 0, 65, 100
2, 34565, Note_on_c, 0, 68, 100
2, 34567, Note_on_c, 0, 61, 93
2, 34570, Note_on_c, 0, 73, 90
2, 34575, Note_on_c, 0, 61, 0
2, 34613, Control_c, 0, 64, 127
2, 34652, Note_on_c, 0, 37, 0
2, 34822, Note_on_c, 0, 61, 39
2, 34913, Note_on_c, 0, 61, 0
2, 34913, Note_on_c, 0, 65, 0
2, 34913, Note_on_c, 0, 77, 0
2, 34921, Note_on_c, 0, 89, 110
2, 34923, Note_on_c, 0, 61, 91
2, 34924, Note_on_c, 0, 65, 76
2, 34924, Note_on_c, 0, 77, 103
2, 35066, Note_on_c, 0, 68, 0
2, 35076, Note_on_c, 0, 68, 82
2, 35082, Note_on_c, 0, 56, 79
2, 35082, Note_on_c, 0, 87, 105
2, 35086, Note_on_c, 0, 75, 100
2, 35089, Note_on_c, 0, 65, 0
2, 35094, Note_on_c, 0, 65, 68
2, 35197, Note_on_c, 0, 61, 0
2, 35206, Note_on_c, 0, 61, 82
2, 35243, Note_on_c, 0, 73, 0
2, 35245, Note_on_c, 0, 85, 109
2, 35248, Note_on_c, 0, 73, 96
2, 35378, Note_on_c, 0, 87, 0
2, 35379, Control_c, 0, 64, 0
2, 35379, Note_on_c, 0, 65, 0
2, 35379, Note_on_c, 0, 61, 0
2, 35379, Note_on_c, 0, 68, 0
2, 35379, Note_on_c, 0, 56, 0
2, 35380, Note_on_c, 0, 75, 0
2, 35381, Note_on_c, 0, 89, 0
2, 35381, Note_on_c, 0, 73, 0
2, 35382, Note_on_c, 0, 85, 0
2, 35389, Note_on_c, 0, 49, 0
2, 35397, Note_on_c, 0, 77, 0
2, 35402, Note_on_c, 0, 84, 106
2, 35403, Note_on_c, 0, 30, 91
2, 35403, Note_on_c, 0, 32, 90
2, 35406, Note_on_c, 0, 42, 96
2, 35407, Note_on_c, 0, 72, 104
2, 35408, Note_on_c, 0, 78, 97
2, 35426, Note_on_c, 0, 82, 62
2, 35445, Note_on_c, 0, 42, 0
2, 35466, Control_c, 0, 64, 127
2, 35573, Note_on_c, 0, 32, 0
2, 35577, Note_on_c, 0, 85, 102
2, 35581, Note_on_c, 0, 49, 82
2, 35587, Note_on_c, 0, 73, 81
2, 35653, Note_on_c, 0, 54, 94
2, 35750, Note_on_c, 0, 54, 0
2, 35757, Note_on_c, 0, 54, 76
2, 35845, Note_on_c, 0, 58, 80
2, 35916, Note_on_c, 0, 66, 101
2, 35919, Note_on_c, 0, 85, 0
2, 35923, Note_on_c, 0, 97, 102
2, 35923, Note_on_c, 0, 85, 107
2, 35925, Note_on_c, 0, 61, 82
2, 36072, Note_on_c, 0, 58, 0
2, 36080, Note_on_c, 0, 58, 97
2, 36088, Note_on_c, 0, 84, 0
2, 36092, Note_on_c, 0, 96, 95
2, 36092, Note_on_c, 0, 84, 95
2, 36157, Note_on_c, 0, 54, 0
2, 36168, Note_on_c, 0, 54, 69
2, 36218, Note_on_c, 0, 58, 0
2, 36223, Note_on_c, 0, 58, 63
2, 36249, Note_on_c, 0, 97, 0
2, 36255, Note_on_c, 0, 97, 95
2, 36257, Note_on_c, 0, 54, 0
2, 36257, Note_on_c, 0, 85, 0
2, 36261, Note_on_c, 0, 85, 92
2, 36267, Note_on_c, 0, 54, 72
2, 36303, Note_on_c, 0, 58, 0
2, 36314, Note_on_c, 0, 58, 69
2, 36326, Note_on_c, 0, 49, 0
2, 36330, Note_on_c, 0, 49, 73
2, 36418, Note_on_c, 0, 54, 0
2, 36428, Note_on_c, 0, 54, 75
2, 36429, Note_on_c, 0, 42, 78
2, 36510, Note_on_c, 0, 49, 0
2, 36520, Note_on_c, 0, 49, 73
2, 36564, Note_on_c, 0, 54, 0
2, 36572, Note_on_c, 0, 54, 87
2, 36582, Note_on_c, 0, 66, 0
2, 36595, Note_on_c, 0, 73, 0
2, 36595, Note_on_c, 0, 85, 0
2, 36602, Note_on_c, 0, 58, 0
2, 36603, Note_on_c, 0, 85, 105
2, 36605, Note_on_c, 0, 73, 97
2, 36610, Note_on_c, 0, 58, 69
2, 36710, Note_on_c, 0, 97, 0
2, 36712, Note_on_c, 0, 96, 0
2, 36712, Note_on_c, 0, 49, 0
2, 36712, Note_on_c, 0, 42, 0
2, 36712, Note_on_c, 0, 84, 0
2, 36712, Note_on_c, 0, 73, 0
2, 36712, Note_on_c, 0, 54, 0
2, 36713, Note_on_c, 0, 58, 0
2, 36713, Note_on_c, 0, 85, 0
2, 36713, Note_on_c, 0, 61, 0
2, 36713, Note_on_c, 0, 72, 0
2, 36713, Note_on_c, 0, 82, 0
2, 36713, Note_on_c, 0, 78, 0
2, 36717, Control_c, 0, 64, 0
2, 36718, Note_on_c, 0, 30, 0
2, 36759, Note_on_c, 0, 44, 103
2, 36760, Note_on_c, 0, 84, 105
2, 36760, Note_on_c, 0, 32, 95
2, 36761, Note_on_c, 0, 72, 97
2, 36762, Note_on_c, 0, 75, 96
2, 36764, Note_on_c, 0, 80, 96
2, 36817, Control_c, 0, 64, 127
2, 36910, Note_on_c, 0, 32, 0
2, 36910, Note_on_c, 0, 44, 0
2, 36919, Note_on_c, 0, 32, 85
2, 36920, Note_on_c, 0, 44, 91
2, 36928, Note_on_c, 0, 85, 95
2, 36933, Note_on_c, 0, 73, 78
2, 36984, Note_on_c, 0, 56, 74
2, 37071, Note_on_c, 0, 56, 0
2, 37079, Note_on_c, 0, 72, 0
2, 37082, Note_on_c, 0, 56, 81
2, 37086, Note_on_c, 0, 72, 65
2, 37166, Note_on_c, 0, 60, 75
2, 37251, Note_on_c, 0, 63, 79
2, 37252, Note_on_c, 0, 68, 95
2, 37263, Note_on_c, 0, 60, 0
2, 37263, Note_on_c, 0, 85, 0
2, 37268, Note_on_c, 0, 97, 98
2, 37270, Note_on_c, 0, 60, 67
2, 37274, Note_on_c, 0, 85, 102
2, 37324, Note_on_c, 0, 60, 0
2, 37335, Note_on_c, 0, 60, 79
2, 37424, Note_on_c, 0, 60, 0
2, 37424, Note_on_c, 0, 84, 0
2, 37430, Note_on_c, 0, 96, 95
2, 37431, Note_on_c, 0, 60, 74
2, 37433, Note_on_c, 0, 84, 95
2, 37493, Note_on_c, 0, 56, 0
2, 37504, Note_on_c, 0, 56, 93
2, 37585, Note_on_c, 0, 85, 0
2, 37585, Note_on_c, 0, 97, 0
2, 37593, Note_on_c, 0, 97, 93
2, 37596, Note_on_c, 0, 85, 96
2, 37655, Note_on_c, 0, 60, 0
2, 37662, Note_on_c, 0, 60, 59
2, 37678, Note_on_c, 0, 56, 0
2, 37686, Note_on_c, 0, 56, 74
2, 37690, Note_on_c, 0, 51, 77
2, 37754, Note_on_c, 0, 44, 0
2, 37759, Note_on_c, 0, 44, 90
2, 37854, Note_on_c, 0, 51, 0
2, 37862, Note_on_c, 0, 60, 0
2, 37865, Note_on_c, 0, 51, 85
2, 37867, Note_on_c, 0, 60, 56
2, 37900, Note_on_c, 0, 56, 0
2, 37911, Note_on_c, 0, 56, 93
2, 37912, Note_on_c, 0, 68, 0
2, 37923, Note_on_c, 0, 44, 0
2, 37939, Note_on_c, 0, 85, 0
2, 37944, Note_on_c, 0, 85, 101
2, 37946, Note_on_c, 0, 73, 0
2, 37950, Note_on_c, 0, 73, 79
2, 38038, Note_on_c, 0, 96, 0
2, 38039, Note_on_c, 0, 72, 0
2, 38039, Note_on_c, 0, 80, 0
2, 38040, Note_on_c, 0, 63, 0
2, 38040, Note_on_c, 0, 97, 0
2, 38040, Note_on_c, 0, 51, 0
2, 38041, Note_on_c, 0, 84, 0
2, 38041, Note_on_c, 0, 75, 0
2, 38041, Note_on_c, 0, 60, 0
2, 38042, Note_on_c, 0, 85, 0
2, 38042, Note_on_c, 0, 32, 0
2, 38042, Note_on_c, 0, 73, 0
2, 38043, Control_c, 0, 64, 0
2, 38054, Note_on_c, 0, 56, 0
2, 38092, Note_on_c, 0, 92, 111
2, 38095, Note_on_c, 0, 87, 91
2, 38095, Note_on_c, 0, 80, 98
2, 38095, Note_on_c, 0, 29, 91
2, 38096, Note_on_c, 0, 41, 81
2, 38097, Note_on_c, 0, 84, 84
2, 38146, Control_c, 0, 64, 127
2, 38238, Note_on_c, 0, 29, 0
2, 38243, Note_on_c, 0, 29, 81
2, 38246, Note_on_c, 0, 41, 0
2, 38250, Note_on_c, 0, 41, 73
2, 38254, Note_on_c, 0, 80, 0
2, 38259, Note_on_c, 0, 80, 68
2, 38260, Note_on_c, 0, 73, 92
2, 38263, Note_on_c, 0, 85, 92
2, 38269, Note_on_c, 0, 76, 71
2, 38277, Note_on_c, 0, 76, 0
2, 38321, Note_on_c, 0, 53, 77
2, 38400, Note_on_c, 0, 53, 0
2, 38408, Note_on_c, 0, 53, 75
2, 38430, Note_on_c, 0, 73, 0
2, 38430, Note_on_c, 0, 85, 0
2, 38434, Note_on_c, 0, 85, 102
2, 38439, Note_on_c, 0, 73, 80
2, 38485, Note_on_c, 0, 68, 79
2, 38490, Note_on_c, 0, 56, 77
2, 38571, Note_on_c, 0, 65, 88
2, 38592, Note_on_c, 0, 84, 0
2, 38595, Note_on_c, 0, 60, 81
2, 38599, Note_on_c, 0, 80, 0
2, 38600, Note_on_c, 0, 84, 103
2, 38601, Note_on_c, 0, 77, 95
2, 38603, Note_on_c, 0, 72, 92
2, 38604, Note_on_c, 0, 80, 89
2, 38653, Note_on_c, 0, 56, 0
2, 38659, Note_on_c, 0, 56, 87
2, 38737, Note_on_c, 0, 56, 0
2, 38749, Note_on_c, 0, 56, 82
2, 38814, Note_on_c, 0, 53, 0
2, 38824, Note_on_c, 0, 53, 73
2, 38906, Note_on_c, 0, 53, 0
2, 38917, Note_on_c, 0, 53, 83
2, 38937, Note_on_c, 0, 84, 0
2, 38945, Note_on_c, 0, 72, 0
2, 38948, Note_on_c, 0, 84, 107
2, 38956, Note_on_c, 0, 72, 97
2, 39002, Note_on_c, 0, 48, 81
2, 39083, Note_on_c, 0, 29, 0
2, 39083, Note_on_c, 0, 41, 0
2, 39088, Note_on_c, 0, 41, 74
2, 39092, Note_on_c, 0, 29, 77
2, 39234, Note_on_c, 0, 41, 0
2, 39234, Note_on_c, 0, 48, 0
2, 39234, Note_on_c, 0, 53, 0
2, 39235, Note_on_c, 0, 73, 0
2, 39235, Note_on_c, 0, 77, 0
2, 39235, Note_on_c, 0, 60, 0
2, 39235, Note_on_c, 0, 80, 0
2, 39236, Note_on_c, 0, 92, 0
2, 39236, Control_c, 0, 64, 0
2, 39236, Note_on_c, 0, 84, 0
2, 39236, Note_on_c, 0, 72, 0
2, 39236, Note_on_c, 0, 68, 0
2, 39237, Note_on_c, 0, 29, 0
2, 39244, Note_on_c, 0, 65, 0
2, 39244, Note_on_c, 0, 87, 0
2, 39252, Note_on_c, 0, 56, 0
2, 39267, Note_on_c, 0, 85, 0
2, 39278, Note_on_c, 0, 85, 108
2, 39281, Note_on_c, 0, 80, 94
2, 39283, Note_on_c, 0, 46, 99
2, 39284, Note_on_c, 0, 73, 100
2, 39285, Note_on_c, 0, 77, 95
2, 39287, Note_on_c, 0, 34, 92
2, 39352, Control_c, 0, 64, 127
2, 39590, Note_on_c, 0, 46, 0
2, 39599, Note_on_c, 0, 46, 81
2, 39621, Note_on_c, 0, 73, 0
2, 39621, Note_on_c, 0, 85, 0
2, 39625, Note_on_c, 0, 85, 96
2, 39630, Note_on_c, 0, 73, 90
2, 39710, Note_on_c, 0, 53, 69
2, 39777, Note_on_c, 0, 60, 85
2, 39794, Note_on_c, 0, 87, 98
2, 39801, Note_on_c, 0, 75, 84
2, 39885, Note_on_c, 0, 61, 75
2, 39951, Note_on_c, 0, 77, 0
2, 39951, Note_on_c, 0, 85, 0
2, 39955, Note_on_c, 0, 89, 103
2, 39959, Note_on_c, 0, 80, 0
2, 39961, Note_on_c, 0, 77, 99
2, 39961, Note_on_c, 0, 85, 88
2, 39963, Note_on_c, 0, 80, 88
2, 40043, Note_on_c, 0, 61, 0
2, 40049, Note_on_c, 0, 61, 74
2, 40109, Note_on_c, 0, 63, 72
2, 40195, Note_on_c, 0, 65, 76
2, 40258, Note_on_c, 0, 61, 0
2, 40263, Note_on_c, 0, 61, 56
2, 40302, Note_on_c, 0, 66, 77
2, 40393, Note_on_c, 0, 68, 79
2, 40462, Note_on_c, 0, 70, 76
2, 40535, Note_on_c, 0, 53, 0
2, 40535, Note_on_c, 0, 60, 0
2, 40540, Note_on_c, 0, 72, 69
2, 40542, Note_on_c, 0, 60, 54
2, 40544, Note_on_c, 0, 53, 51
2, 40619, Note_on_c, 0, 60, 0
2, 40619, Note_on_c, 0, 73, 0
2, 40623, Note_on_c, 0, 73, 70
2, 40624, Note_on_c, 0, 60, 54
2, 40688, Note_on_c, 0, 75, 0
2, 40694, Note_on_c, 0, 75, 78
2, 40780, Note_on_c, 0, 77, 0
2, 40789, Control_c, 0, 64, 0
2, 40791, Note_on_c, 0, 77, 94
2, 40795, Note_on_c, 0, 68, 0
2, 40796, Note_on_c, 0, 34, 0
2, 40796, Note_on_c, 0, 66, 0
2, 40797, Note_on_c, 0, 73, 0
2, 40797, Note_on_c, 0, 60, 0
2, 40797, Note_on_c, 0, 80, 0
2, 40797, Note_on_c, 0, 61, 0
2, 40798, Note_on_c, 0, 53, 0
2, 40798, Note_on_c, 0, 75, 0
2, 40798, Note_on_c, 0, 72, 0
2, 40798, Note_on_c, 0, 63, 0
2, 40799, Note_on_c, 0, 87, 0
2, 40799, Note_on_c, 0, 89, 0
2, 40801, Note_on_c, 0, 54, 58
2, 40801, Note_on_c, 0, 42, 58
2, 40803, Note_on_c, 0, 65, 0
2, 40808, Note_on_c, 0, 65, 71
2, 40811, Note_on_c, 0, 46, 0
2, 40811, Note_on_c, 0, 70, 0
2, 40811, Note_on_c, 0, 85, 0
2, 40822, Note_on_c, 0, 70, 78
2, 40934, Control_c, 0, 64, 127
2, 40969, Note_on_c, 0, 73, 78
2, 40969, Note_on_c, 0, 49, 55
2, 41126, Note_on_c, 0, 77, 0
2, 41133, Note_on_c, 0, 77, 81
2, 41133, Note_on_c, 0, 58, 62
2, 41300, Control_c, 0, 64, 0
2, 41300, Note_on_c, 0, 75, 92
2, 41301, Note_on_c, 0, 42, 0
2, 41302, Note_on_c, 0, 73, 0
2, 41302, Note_on_c, 0, 65, 0
2, 41303, Note_on_c, 0, 58, 0
2, 41304, Note_on_c, 0, 77, 0
2, 41304, Note_on_c, 0, 70, 0
2, 41305, Note_on_c, 0, 49, 0
2, 41310, Note_on_c, 0, 54, 0
2, 41315, Note_on_c, 0, 63, 65
2, 41316, Note_on_c, 0, 56, 68
2, 41316, Note_on_c, 0, 68, 81
2, 41330, Note_on_c, 0, 48, 41
2, 41410, Control_c, 0, 64, 127
2, 41629, Note_on_c, 0, 73, 75
2, 41633, Note_on_c, 0, 48, 0
2, 41640, Note_on_c, 0, 48, 53
2, 41802, Note_on_c, 0, 56, 0
2, 41806, Note_on_c, 0, 72, 76
2, 41808, Note_on_c, 0, 56, 70
2, 41974, Control_c, 0, 64, 0
2, 41974, Note_on_c, 0, 56, 0
2, 41974, Note_on_c, 0, 48, 0
2, 41975, Note_on_c, 0, 68, 0
2, 41975, Note_on_c, 0, 75, 0
2, 41975, Note_on_c, 0, 63, 0
2, 41977, Note_on_c, 0, 72, 0
2, 41978, Note_on_c, 0, 73, 0
2, 41984, Note_on_c, 0, 73, 83
2, 41992, Note_on_c, 0, 61, 69
2, 41997, Note_on_c, 0, 51, 50
2, 41998, Note_on_c, 0, 39, 48
2, 42001, Note_on_c, 0, 66, 70
2, 42006, Note_on_c, 0, 54, 60
2, 42109, Control_c, 0, 64, 127
2, 42329, Note_on_c, 0, 72, 76
2, 42331, Note_on_c, 0, 46, 64
2, 42501, Note_on_c, 0, 54, 0
2, 42502, Note_on_c, 0, 70, 76
2, 42507, Note_on_c, 0, 54, 56
2, 42640, Control_c, 0, 64, 0
2, 42641, Note_on_c, 0, 46, 0
2, 42641, Note_on_c, 0, 39, 0
2, 42642, Note_on_c, 0, 73, 0
2, 42642, Note_on_c, 0, 54, 0
2, 42642, Note_on_c, 0, 70, 0
2, 42642, Note_on_c, 0, 66, 0
2, 42642, Note_on_c, 0, 61, 0
2, 42647, Note_on_c, 0, 51, 0
2, 42662, Note_on_c, 0, 72, 0
2, 42666, Note_on_c, 0, 72, 82
2, 42679, Note_on_c, 0, 68, 78
2, 42680, Note_on_c, 0, 41, 57
2, 42682, Note_on_c, 0, 56, 62
2, 42687, Note_on_c, 0, 63, 54
2, 42792, Control_c, 0, 64, 127
2, 43002, Note_on_c, 0, 70, 77
2, 43017, Note_on_c, 0, 48, 56
2, 43161, Note_on_c, 0, 56, 0
2, 43161, Note_on_c, 0, 68, 0
2, 43166, Note_on_c, 0, 68, 80
2, 43172, Note_on_c, 0, 56, 68
2, 43338, Note_on_c, 0, 68, 0
2, 43343, Note_on_c, 0, 68, 72
2, 43430, Note_on_c, 0, 68, 0
2, 43436, Note_on_c, 0, 68, 78
2, 43465, Note_on_c, 0, 56, 0
2, 43465, Note_on_c, 0, 63, 0
2, 43465, Note_on_c, 0, 72, 0
2, 43465, Control_c, 0, 64, 0
2, 43466, Note_on_c, 0, 48, 0
2, 43468, Note_on_c, 0, 41, 0
2, 43491, Note_on_c, 0, 70, 0
2, 43493, Note_on_c, 0, 42, 66
2, 43503, Note_on_c, 0, 70, 85
2, 43507, Note_on_c, 0, 68, 0
2, 43516, Note_on_c, 0, 61, 65
2, 43518, Note_on_c, 0, 66, 69
2, 43630, Control_c, 0, 64, 127
2, 43674, Note_on_c, 0, 49, 54
2, 43679, Note_on_c, 0, 68, 75
2, 43837, Note_on_c, 0, 70, 0
2, 43843, Note_on_c, 0, 70, 71
2, 43848, Note_on_c, 0, 58, 65
2, 43994, Note_on_c, 0, 49, 0
2, 43994, Note_on_c, 0, 58, 0
2, 43994, Note_on_c, 0, 70, 0
2, 43994, Note_on_c, 0, 66, 0
2, 43994, Note_on_c, 0, 61, 0
2, 43996, Control_c, 0, 64, 0
2, 44003, Note_on_c, 0, 72, 81
2, 44006, Note_on_c, 0, 42, 0
2, 44014, Note_on_c, 0, 68, 0
2, 44018, Note_on_c, 0, 44, 64
2, 44020, Note_on_c, 0, 68, 72
2, 44025, Note_on_c, 0, 63, 54
2, 44129, Control_c, 0, 64, 127
2, 44332, Note_on_c, 0, 51, 69
2, 44335, Note_on_c, 0, 70, 75
2, 44490, Note_on_c, 0, 72, 0
2, 44494, Note_on_c, 0, 72, 73
2, 44509, Note_on_c, 0, 60, 69
2, 44664, Control_c, 0, 64, 0
2, 44670, Note_on_c, 0, 51, 0
2, 44670, Note_on_c, 0, 68, 0
2, 44670, Note_on_c, 0, 63, 0
2, 44670, Note_on_c, 0, 60, 0
2, 44670, Note_on_c, 0, 44, 0
2, 44671, Note_on_c, 0, 72, 0
2, 44673, Note_on_c, 0, 74, 86
2, 44689, Note_on_c, 0, 70, 0
2, 44694, Note_on_c, 0, 46, 66
2, 44697, Note_on_c, 0, 65, 67
2, 44698, Note_on_c, 0, 70, 65
2, 44920, Control_c, 0, 64, 127
2, 45018, Note_on_c, 0, 53, 63
2, 45195, Note_on_c, 0, 58, 67
2, 45365, Note_on_c, 0, 65, 0
2, 45365, Note_on_c, 0, 70, 0
2, 45370, Note_on_c, 0, 70, 73
2, 45375, Note_on_c, 0, 65, 61
2, 45375, Note_on_c, 0, 62, 66
2, 45700, Note_on_c, 0, 68, 102
2, 45701, Note_on_c, 0, 80, 102
2, 45877, Note_on_c, 0, 92, 112
2, 45880, Note_on_c, 0, 68, 0
2, 45880, Note_on_c, 0, 70, 0
2, 45880, Note_on_c, 0, 80, 0
2, 45884, Note_on_c, 0, 70, 98
2, 45886, Note_on_c, 0, 68, 97
2, 45891, Note_on_c, 0, 80, 95
2, 45893, Note_on_c, 0, 66, 93
2, 45904, Note_on_c, 0, 63, 76
2, 45937, Note_on_c, 0, 61, 54
2, 45949, Note_on_c, 0, 58, 0
2, 45953, Note_on_c, 0, 58, 84
2, 45974, Note_on_c, 0, 54, 92
2, 45983, Note_on_c, 0, 51, 93
2, 46054, Note_on_c, 0, 90, 105
2, 46055, Note_on_c, 0, 78, 110
2, 46184, Note_on_c, 0, 46, 0
2, 46184, Note_on_c, 0, 80, 0
2, 46184, Note_on_c, 0, 62, 0
2, 46184, Note_on_c, 0, 68, 0
2, 46184, Note_on_c, 0, 92, 0
2, 46184, Note_on_c, 0, 65, 0
2, 46184, Note_on_c, 0, 58, 0
2, 46184, Note_on_c, 0, 66, 0
2, 46185, Note_on_c, 0, 63, 0
2, 46185, Note_on_c, 0, 51, 0
2, 46185, Note_on_c, 0, 70, 0
2, 46185, Note_on_c, 0, 90, 0
2, 46185, Note_on_c, 0, 78, 0
2, 46187, Control_c, 0, 64, 0
2, 46188, Note_on_c, 0, 74, 0
2, 46189, Note_on_c, 0, 61, 0
2, 46195, Note_on_c, 0, 53, 0
2, 46202, Note_on_c, 0, 54, 0
2, 46224, Note_on_c, 0, 42, 110
2, 46228, Note_on_c, 0, 89, 114
2, 46228, Note_on_c, 0, 85, 107
2, 46229, Note_on_c, 0, 77, 109
2, 46230, Note_on_c, 0, 30, 100
2, 46232, Note_on_c, 0, 82, 105
2, 46256, Note_on_c, 0, 42, 0
2, 46258, Note_on_c, 0, 32, 45
2, 46287, Control_c, 0, 64, 127
2, 46407, Note_on_c, 0, 49, 82
2, 46467, Note_on_c, 0, 54, 88
2, 46554, Note_on_c, 0, 56, 81
2, 46559, Note_on_c, 0, 68, 86
2, 46563, Note_on_c, 0, 68, 0
2, 46572, Note_on_c, 0, 60, 92
2, 46727, Note_on_c, 0, 61, 94
2, 46878, Note_on_c, 0, 54, 0
2, 46878, Note_on_c, 0, 77, 0
2, 46878, Note_on_c, 0, 89, 0
2, 46883, Note_on_c, 0, 54, 98
2, 46885, Note_on_c, 0, 89, 107
2, 46888, Note_on_c, 0, 77, 100
2, 47016, Note_on_c, 0, 32, 0
2, 47055, Note_on_c, 0, 56, 0
2, 47063, Note_on_c, 0, 82, 0
2, 47063, Note_on_c, 0, 85, 0
2, 47063, Note_on_c, 0, 90, 112
2, 47064, Note_on_c, 0, 56, 86
2, 47065, Note_on_c, 0, 68, 95
2, 47066, Note_on_c, 0, 78, 106
2, 47067, Note_on_c, 0, 85, 97
2, 47070, Note_on_c, 0, 82, 91
2, 47216, Note_on_c, 0, 56, 0
2, 47223, Note_on_c, 0, 56, 82
2, 47293, Note_on_c, 0, 49, 0
2, 47299, Note_on_c, 0, 49, 85
2, 47373, Note_on_c, 0, 42, 86
2, 47400, Note_on_c, 0, 89, 0
2, 47408, Note_on_c, 0, 77, 0
2, 47408, Note_on_c, 0, 85, 0
2, 47412, Note_on_c, 0, 89, 108
2, 47415, Note_on_c, 0, 77, 105
2, 47416, Note_on_c, 0, 82, 0
2, 47416, Note_on_c, 0, 85, 105
2, 47421, Note_on_c, 0, 82, 94
2, 47491, Note_on_c, 0, 78, 0
2, 47492, Note_on_c, 0, 54, 0
2, 47492, Note_on_c, 0, 49, 0
2, 47492, Note_on_c, 0, 60, 0
2, 47492, Note_on_c, 0, 56, 0
2, 47492, Note_on_c, 0, 90, 0
2, 47494, Note_on_c, 0, 42, 0
2, 47496, Control_c, 0, 64, 0
2, 47500, Note_on_c, 0, 30, 0
2, 47500, Note_on_c, 0, 61, 0
2, 47500, Note_on_c, 0, 68, 0
2, 47567, Note_on_c, 0, 32, 94
2, 47568, Note_on_c, 0, 44, 100
2, 47569, Control_c, 0, 64, 127
2, 47732, Note_on_c, 0, 51, 88
2, 47759, Note_on_c, 0, 87, 103
2, 47765, Note_on_c, 0, 75, 93
2, 47765, Note_on_c, 0, 84, 89
2, 47772, Note_on_c, 0, 80, 81
2, 47783, Note_on_c, 0, 68, 83
2, 47787, Note_on_c, 0, 56, 77
2, 47891, Note_on_c, 0, 58, 87
2, 47920, Note_on_c, 0, 61, 89
2, 47992, Note_on_c, 0, 58, 0
2, 47998, Note_on_c, 0, 58, 72
2, 48076, Note_on_c, 0, 85, 0
2, 48082, Note_on_c, 0, 63, 95
2, 48082, Note_on_c, 0, 85, 107
2, 48084, Note_on_c, 0, 73, 103
2, 48238, Note_on_c, 0, 56, 0
2, 48244, Note_on_c, 0, 56, 97
2, 48284, Note_on_c, 0, 58, 0
2, 48288, Note_on_c, 0, 58, 27
2, 48407, Note_on_c, 0, 75, 0
2, 48407, Note_on_c, 0, 80, 0
2, 48407, Note_on_c, 0, 84, 0
2, 48411, Note_on_c, 0, 84, 104
2, 48413, Note_on_c, 0, 60, 92
2, 48417, Note_on_c, 0, 75, 101
2, 48417, Note_on_c, 0, 80, 93
2, 48418, Note_on_c, 0, 72, 93
2, 48419, Note_on_c, 0, 78, 82
2, 48552, Note_on_c, 0, 56, 0
2, 48563, Note_on_c, 0, 56, 97
2, 48645, Note_on_c, 0, 51, 0
2, 48655, Note_on_c, 0, 51, 84
2, 48714, Note_on_c, 0, 44, 0
2, 48721, Note_on_c, 0, 44, 83
2, 48737, Note_on_c, 0, 80, 0
2, 48744, Note_on_c, 0, 68, 0
2, 48747, Note_on_c, 0, 80, 103
2, 48749, Note_on_c, 0, 68, 88
2, 48828, Note_on_c, 0, 48, 56
2, 48837, Note_on_c, 0, 48, 0
2, 48857, Note_on_c, 0, 80, 0
2, 48857, Note_on_c, 0, 73, 0
2, 48857, Note_on_c, 0, 68, 0
2, 48857, Control_c, 0, 64, 0
2, 48857, Note_on_c, 0, 87, 0
2, 48857, Note_on_c, 0, 51, 0
2, 48858, Note_on_c, 0, 61, 0
2, 48858, Note_on_c, 0, 85, 0
2, 48858, Note_on_c, 0, 58, 0
2, 48858, Note_on_c, 0, 72, 0
2, 48858, Note_on_c, 0, 60, 0
2, 48858, Note_on_c, 0, 63, 0
2, 48858, Note_on_c, 0, 75, 0
2, 48858, Note_on_c, 0, 84, 0
2, 48867, Note_on_c, 0, 32, 0
2, 48867, Note_on_c, 0, 78, 0
2, 48867, Note_on_c, 0, 82, 0
2, 48867, Note_on_c, 0, 89, 0
2, 48875, Note_on_c, 0, 56, 0
2, 48875, Note_on_c, 0, 77, 0
2, 48883, Note_on_c, 0, 44, 0
2, 48902, Note_on_c, 0, 37, 98
2, 48902, Note_on_c, 0, 87, 109
2, 48907, Note_on_c, 0, 80, 96
2, 48907, Note_on_c, 0, 75, 108
2, 48909, Note_on_c, 0, 77, 105
2, 48913, Control_c, 0, 64, 127
2, 49077, Note_on_c, 0, 49, 87
2, 49128, Note_on_c, 0, 53, 52
2, 49225, Note_on_c, 0, 68, 80
2, 49231, Note_on_c, 0, 56, 73
2, 49244, Note_on_c, 0, 61, 87
2, 49390, Note_on_c, 0, 56, 0
2, 49394, Note_on_c, 0, 56, 66
2, 49395, Note_on_c, 0, 63, 90
2, 49559, Note_on_c, 0, 37, 0
2, 49559, Note_on_c, 0, 49, 0
2, 49559, Note_on_c, 0, 87, 0
2, 49564, Note_on_c, 0, 49, 90
2, 49564, Note_on_c, 0, 37, 75
2, 49566, Note_on_c, 0, 75, 0
2, 49566, Note_on_c, 0, 77, 0
2, 49566, Note_on_c, 0, 80, 0
2, 49567, Note_on_c, 0, 87, 109
2, 49571, Note_on_c, 0, 77, 100
2, 49571, Note_on_c, 0, 75, 105
2, 49572, Note_on_c, 0, 80, 99
2, 49712, Note_on_c, 0, 56, 0
2, 49712, Note_on_c, 0, 63, 0
2, 49712, Note_on_c, 0, 68, 0
2, 49716, Note_on_c, 0, 56, 84
2, 49716, Note_on_c, 0, 63, 84
2, 49717, Note_on_c, 0, 68, 91
2, 49889, Note_on_c, 0, 37, 0
2, 49889, Note_on_c, 0, 49, 0
2, 49895, Note_on_c, 0, 49, 88
2, 49897, Note_on_c, 0, 37, 92
2, 49903, Note_on_c, 0, 85, 104
2, 49908, Note_on_c, 0, 39, 77
2, 49909, Note_on_c, 0, 73, 93
2, 50064, Note_on_c, 0, 48, 93
2, 50065, Note_on_c, 0, 75, 0
2, 50065, Note_on_c, 0, 77, 0
2, 50065, Note_on_c, 0, 80, 0
2, 50065, Note_on_c, 0, 87, 0
2, 50068, Note_on_c, 0, 36, 95
2, 50070, Note_on_c, 0, 87, 105
2, 50071, Note_on_c, 0, 75, 99
2, 50073, Note_on_c, 0, 80, 96
2, 50074, Note_on_c, 0, 77, 97
2, 50166, Note_on_c, 0, 61, 0
2, 50166, Note_on_c, 0, 49, 0
2, 50166, Note_on_c, 0, 37, 0
2, 50167, Note_on_c, 0, 56, 0
2, 50167, Note_on_c, 0, 73, 0
2, 50167, Note_on_c, 0, 63, 0
2, 50167, Note_on_c, 0, 53, 0
2, 50167, Note_on_c, 0, 48, 0
2, 50168, Note_on_c, 0, 68, 0
2, 50168, Note_on_c, 0, 85, 0
2, 50168, Note_on_c, 0, 36, 0
2, 50170, Control_c, 0, 64, 0
2, 50181, Note_on_c, 0, 39, 0
2, 50211, Control_c, 0, 64, 127
2, 50237, Note_on_c, 0, 46, 103
2, 50237, Note_on_c, 0, 34, 101
2, 50396, Note_on_c, 0, 34, 0
2, 50396, Note_on_c, 0, 46, 0
2, 50401, Note_on_c, 0, 46, 101
2, 50405, Note_on_c, 0, 34, 89
2, 50410, Note_on_c, 0, 85, 101
2, 50414, Note_on_c, 0, 73, 95
2, 50565, Note_on_c, 0, 75, 0
2, 50565, Note_on_c, 0, 87, 0
2, 50571, Note_on_c, 0, 87, 100
2, 50572, Note_on_c, 0, 75, 89
2, 50599, Note_on_c, 0, 58, 82
2, 50605, Note_on_c, 0, 62, 84
2, 50741, Note_on_c, 0, 77, 0
2, 50750, Note_on_c, 0, 89, 108
2, 50752, Note_on_c, 0, 86, 100
2, 50753, Note_on_c, 0, 77, 104
2, 50753, Note_on_c, 0, 70, 100
2, 50756, Note_on_c, 0, 82, 100
2, 50864, Note_on_c, 0, 62, 0
2, 50870, Note_on_c, 0, 62, 85
2, 50979, Note_on_c, 0, 58, 0
2, 50983, Note_on_c, 0, 58, 84
2, 51084, Note_on_c, 0, 53, 81
2, 51148, Note_on_c, 0, 50, 89
2, 51240, Note_on_c, 0, 46, 0
2, 51246, Note_on_c, 0, 46, 104
2, 51409, Note_on_c, 0, 89, 0
2, 51417, Note_on_c, 0, 77, 0
2, 51420, Note_on_c, 0, 89, 113
2, 51422, Note_on_c, 0, 77, 108
2, 51528, Note_on_c, 0, 62, 0
2, 51528, Note_on_c, 0, 58, 0
2, 51528, Note_on_c, 0, 87, 0
2, 51529, Note_on_c, 0, 53, 0
2, 51529, Note_on_c, 0, 50, 0
2, 51529, Note_on_c, 0, 73, 0
2, 51529, Note_on_c, 0, 75, 0
2, 51529, Note_on_c, 0, 89, 0
2, 51529, Note_on_c, 0, 46, 0
2, 51529, Note_on_c, 0, 82, 0
2, 51529, Note_on_c, 0, 70, 0
2, 51529, Note_on_c, 0, 77, 0
2, 51530, Note_on_c, 0, 85, 0
2, 51530, Control_c, 0, 64, 0
2, 51548, Note_on_c, 0, 34, 0
2, 51548, Note_on_c, 0, 80, 0
2, 51548, Note_on_c, 0, 86, 0
2, 51578, Note_on_c, 0, 39, 99
2, 51581, Note_on_c, 0, 27, 95
2, 51581, Note_on_c, 0, 89, 110
2, 51582, Note_on_c, 0, 77, 110
2, 51584, Note_on_c, 0, 85, 97
2, 51589, Note_on_c, 0, 87, 103
2, 51590, Note_on_c, 0, 82, 102
2, 51609, Control_c, 0, 64, 127
2, 51740, Note_on_c, 0, 39, 0
2, 51744, Note_on_c, 0, 39, 75
2, 51799, Note_on_c, 0, 51, 82
2, 51901, Note_on_c, 0, 51, 0
2, 51906, Note_on_c, 0, 51, 75
2, 51931, Note_on_c, 0, 90, 103
2, 51932, Note_on_c, 0, 82, 0
2, 51932, Note_on_c, 0, 87, 0
2, 51933, Note_on_c, 0, 78, 97
2, 51936, Note_on_c, 0, 82, 88
2, 51942, Note_on_c, 0, 87, 89
2, 52000, Note_on_c, 0, 54, 68
2, 52088, Note_on_c, 0, 61, 90
2, 52096, Note_on_c, 0, 58, 77
2, 52101, Note_on_c, 0, 82, 0
2, 52106, Note_on_c, 0, 82, 99
2, 52114, Note_on_c, 0, 71, 59
2, 52127, Note_on_c, 0, 83, 71
2, 52129, Note_on_c, 0, 84, 64
2, 52154, Note_on_c, 0, 54, 0
2, 52164, Note_on_c, 0, 54, 82
2, 52254, Note_on_c, 0, 54, 0
2, 52258, Note_on_c, 0, 54, 74
2, 52323, Note_on_c, 0, 51, 0
2, 52328, Note_on_c, 0, 51, 78
2, 52408, Note_on_c, 0, 51, 0
2, 52419, Note_on_c, 0, 51, 92
2, 52439, Note_on_c, 0, 78, 0
2, 52439, Note_on_c, 0, 82, 0
2, 52439, Note_on_c, 0, 90, 0
2, 52443, Note_on_c, 0, 90, 103
2, 52445, Note_on_c, 0, 78, 102
2, 52446, Note_on_c, 0, 87, 0
2, 52449, Note_on_c, 0, 82, 100
2, 52451, Note_on_c, 0, 87, 93
2, 52491, Note_on_c, 0, 46, 88
2, 52600, Note_on_c, 0, 39, 0
2, 52610, Note_on_c, 0, 39, 89
2, 52700, Note_on_c, 0, 46, 0
2, 52710, Note_on_c, 0, 46, 83
2, 52746, Note_on_c, 0, 51, 0
2, 52753, Note_on_c, 0, 51, 72
2, 52776, Note_on_c, 0, 78, 0
2, 52776, Note_on_c, 0, 90, 0
2, 52783, Note_on_c, 0, 90, 96
2, 52787, Note_on_c, 0, 78, 95
2, 52880, Control_c, 0, 64, 0
2, 52888, Note_on_c, 0, 87, 0
2, 52888, Note_on_c, 0, 58, 0
2, 52888, Note_on_c, 0, 83, 0
2, 52888, Note_on_c, 0, 90, 0
2, 52888, Note_on_c, 0, 85, 0
2, 52888, Note_on_c, 0, 89, 0
2, 52888, Note_on_c, 0, 51, 0
2, 52889, Note_on_c, 0, 78, 0
2, 52889, Note_on_c, 0, 82, 0
2, 52889, Note_on_c, 0, 61, 0
2, 52890, Note_on_c, 0, 84, 0
2, 52890, Note_on_c, 0, 77, 0
2, 52892, Note_on_c, 0, 71, 0
2, 52899, Note_on_c, 0, 27, 0
2, 52899, Note_on_c, 0, 54, 0
2, 52907, Note_on_c, 0, 39, 0
2, 52915, Note_on_c, 0, 46, 0
2, 52932, Note_on_c, 0, 92, 113
2, 52942, Note_on_c, 0, 93, 91
2, 52942, Note_on_c, 0, 41, 89
2, 52943, Note_on_c, 0, 29, 94
2, 52943, Note_on_c, 0, 87, 95
2, 52944, Note_on_c, 0, 84, 87
2, 52946, Note_on_c, 0, 81, 83
2, 52976, Control_c, 0, 64, 127
2, 53106, Note_on_c, 0, 48, 67
2, 53172, Note_on_c, 0, 53, 85
2, 53260, Note_on_c, 0, 53, 0
2, 53264, Note_on_c, 0, 53, 80
2, 53268, Note_on_c, 0, 84, 0
2, 53276, Note_on_c, 0, 81, 0
2, 53279, Note_on_c, 0, 84, 102
2, 53284, Note_on_c, 0, 72, 85
2, 53284, Note_on_c, 0, 81, 88
2, 53286, Note_on_c, 0, 77, 83
2, 53291, Note_on_c, 0, 72, 0
2, 53348, Note_on_c, 0, 57, 80
2, 53441, Note_on_c, 0, 63, 90
2, 53445, Note_on_c, 0, 84, 0
2, 53452, Note_on_c, 0, 75, 98
2, 53455, Note_on_c, 0, 60, 77
2, 53456, Note_on_c, 0, 84, 108
2, 53460, Control_c, 0, 64, 0
2, 53461, Note_on_c, 0, 72, 105
2, 53491, Control_c, 0, 64, 127
2, 53529, Note_on_c, 0, 57, 0
2, 53536, Note_on_c, 0, 57, 85
2, 53614, Note_on_c, 0, 57, 0
2, 53624, Note_on_c, 0, 57, 76
2, 53706, Note_on_c, 0, 53, 0
2, 53715, Note_on_c, 0, 53, 84
2, 53790, Note_on_c, 0, 53, 0
2, 53798, Note_on_c, 0, 87, 0
2, 53801, Note_on_c, 0, 53, 89
2, 53805, Note_on_c, 0, 87, 108
2, 53806, Note_on_c, 0, 75, 0
2, 53806, Note_on_c, 0, 77, 0
2, 53806, Note_on_c, 0, 81, 0
2, 53811, Note_on_c, 0, 75, 105
2, 53811, Note_on_c, 0, 77, 94
2, 53813, Note_on_c, 0, 93, 0
2, 53814, Note_on_c, 0, 81, 86
2, 53882, Note_on_c, 0, 48, 0
2, 53892, Note_on_c, 0, 48, 82
2, 53975, Note_on_c, 0, 41, 0
2, 53983, Note_on_c, 0, 41, 75
2, 54067, Note_on_c, 0, 48, 0
2, 54076, Note_on_c, 0, 48, 87
2, 54128, Note_on_c, 0, 53, 0
2, 54136, Note_on_c, 0, 75, 0
2, 54136, Note_on_c, 0, 87, 0
2, 54140, Note_on_c, 0, 53, 75
2, 54145, Note_on_c, 0, 87, 104
2, 54146, Note_on_c, 0, 75, 103
2, 54262, Note_on_c, 0, 41, 0
2, 54262, Note_on_c, 0, 48, 0
2, 54263, Note_on_c, 0, 57, 0
2, 54263, Note_on_c, 0, 60, 0
2, 54263, Note_on_c, 0, 63, 0
2, 54263, Note_on_c, 0, 72, 0
2, 54263, Note_on_c, 0, 84, 0
2, 54263, Note_on_c, 0, 77, 0
2, 54263, Note_on_c, 0, 75, 0
2, 54263, Note_on_c, 0, 87, 0
2, 54263, Note_on_c, 0, 81, 0
2, 54266, Note_on_c, 0, 92, 0
2, 54268, Control_c, 0, 64, 0
2, 54274, Note_on_c, 0, 29, 0
2, 54282, Note_on_c, 0, 53, 0
2, 54310, Note_on_c, 0, 46, 106
2, 54310, Note_on_c, 0, 87, 106
2, 54315, Note_on_c, 0, 34, 100
2, 54316, Note_on_c, 0, 75, 105
2, 54317, Note_on_c, 0, 77, 100
2, 54322, Note_on_c, 0, 82, 92
2, 54351, Control_c, 0, 64, 127
2, 54497, Note_on_c, 0, 75, 0
2, 54500, Note_on_c, 0, 58, 79
2, 54502, Note_on_c, 0, 75, 82
2, 54597, Note_on_c, 0, 77, 0
2, 54605, Note_on_c, 0, 77, 84
2, 54658, Note_on_c, 0, 82, 0
2, 54669, Note_on_c, 0, 82, 93
2, 54673, Note_on_c, 0, 53, 66
2, 54750, Note_on_c, 0, 87, 0
2, 54761, Note_on_c, 0, 87, 89
2, 54789, Note_on_c, 0, 46, 0
2, 54797, Note_on_c, 0, 46, 86
2, 54825, Note_on_c, 0, 88, 79
2, 54905, Note_on_c, 0, 94, 92
2, 54945, Note_on_c, 0, 88, 0
2, 54946, Control_c, 0, 64, 0
2, 54946, Note_on_c, 0, 58, 0
2, 54947, Note_on_c, 0, 53, 0
2, 54947, Note_on_c, 0, 94, 0
2, 54947, Note_on_c, 0, 77, 0
2, 54947, Note_on_c, 0, 75, 0
2, 54958, Note_on_c, 0, 34, 0
2, 54958, Note_on_c, 0, 46, 0
2, 54963, Note_on_c, 0, 36, 95
2, 54964, Note_on_c, 0, 99, 103
2, 54965, Note_on_c, 0, 82, 0
2, 54968, Note_on_c, 0, 48, 101
2, 54983, Note_on_c, 0, 97, 76
2, 55002, Note_on_c, 0, 36, 0
2, 55011, Control_c, 0, 64, 127
2, 55127, Note_on_c, 0, 48, 0
2, 55132, Note_on_c, 0, 60, 86
2, 55136, Note_on_c, 0, 85, 101
2, 55137, Note_on_c, 0, 48, 87
2, 55138, Note_on_c, 0, 68, 86
2, 55138, Note_on_c, 0, 56, 87
2, 55139, Note_on_c, 0, 73, 97
2, 55288, Note_on_c, 0, 48, 0
2, 55296, Note_on_c, 0, 56, 0
2, 55296, Note_on_c, 0, 87, 0
2, 55298, Note_on_c, 0, 48, 82
2, 55300, Note_on_c, 0, 87, 104
2, 55304, Note_on_c, 0, 56, 83
2, 55305, Note_on_c, 0, 75, 94
2, 55447, Control_c, 0, 64, 0
2, 55448, Note_on_c, 0, 87, 0
2, 55448, Note_on_c, 0, 99, 0
2, 55449, Note_on_c, 0, 97, 0
2, 55450, Note_on_c, 0, 75, 0
2, 55450, Note_on_c, 0, 73, 0
2, 55450, Note_on_c, 0, 56, 0
2, 55451, Note_on_c, 0, 60, 0
2, 55451, Note_on_c, 0, 48, 0
2, 55451, Note_on_c, 0, 68, 0
2, 55472, Note_on_c, 0, 85, 0
2, 55473, Note_on_c, 0, 49, 101
2, 55475, Note_on_c, 0, 89, 110
2, 55476, Note_on_c, 0, 37, 105
2, 55477, Note_on_c, 0, 77, 107
2, 55478, Note_on_c, 0, 80, 96
2, 55478, Note_on_c, 0, 85, 100
2, 55480, Note_on_c, 0, 49, 0
2, 55518, Control_c, 0, 64, 127
2, 55805, Note_on_c, 0, 49, 79
2, 55806, Note_on_c, 0, 65, 99
2, 55806, Note_on_c, 0, 61, 86
2, 55859, Note_on_c, 0, 56, 69
2, 55860, Note_on_c, 0, 68, 91
2, 55898, Note_on_c, 0, 73, 88
2, 55971, Note_on_c, 0, 49, 0
2, 55971, Note_on_c, 0, 77, 0
2, 55976, Note_on_c, 0, 49, 82
2, 55982, Note_on_c, 0, 77, 87
2, 56033, Note_on_c, 0, 85, 0
2, 56041, Note_on_c, 0, 85, 93
2, 56046, Note_on_c, 0, 44, 73
2, 56110, Note_on_c, 0, 37, 0
2, 56117, Note_on_c, 0, 89, 0
2, 56121, Note_on_c, 0, 37, 87
2, 56121, Note_on_c, 0, 89, 95
2, 56191, Note_on_c, 0, 92, 86
2, 56256, Note_on_c, 0, 37, 0
2, 56264, Note_on_c, 0, 101, 106
2, 56266, Note_on_c, 0, 37, 100
2, 56268, Note_on_c, 0, 25, 96
2, 56424, Note_on_c, 0, 68, 0
2, 56432, Note_on_c, 0, 80, 0
2, 56435, Note_on_c, 0, 68, 98
2, 56436, Note_on_c, 0, 80, 100
2, 56593, Note_on_c, 0, 65, 0
2, 56593, Note_on_c, 0, 68, 0
2, 56593, Note_on_c, 0, 80, 0
2, 56593, Note_on_c, 0, 85, 0
2, 56593, Note_on_c, 0, 92, 0
2, 56599, Note_on_c, 0, 92, 104
2, 56601, Note_on_c, 0, 56, 0
2, 56601, Note_on_c, 0, 61, 0
2, 56603, Note_on_c, 0, 80, 93
2, 56603, Note_on_c, 0, 65, 93
2, 56604, Note_on_c, 0, 68, 94
2, 56605, Note_on_c, 0, 85, 90
2, 56606, Note_on_c, 0, 61, 93
2, 56612, Note_on_c, 0, 56, 90
2, 56761, Note_on_c, 0, 90, 109
2, 56765, Note_on_c, 0, 78, 105
2, 56777, Note_on_c, 0, 87, 59
2, 56890, Note_on_c, 0, 101, 0
2, 56891, Note_on_c, 0, 92, 0
2, 56892, Note_on_c, 0, 25, 0
2, 56892, Note_on_c, 0, 90, 0
2, 56893, Note_on_c, 0, 80, 0
2, 56893, Note_on_c, 0, 65, 0
2, 56893, Note_on_c, 0, 49, 0
2, 56894, Note_on_c, 0, 73, 0
2, 56894, Note_on_c, 0, 77, 0
2, 56894, Note_on_c, 0, 85, 0
2, 56894, Note_on_c, 0, 56, 0
2, 56894, Note_on_c, 0, 37, 0
2, 56894, Note_on_c, 0, 61, 0
2, 56894, Note_on_c, 0, 78, 0
2, 56895, Note_on_c, 0, 44, 0
2, 56897, Control_c, 0, 64, 0
2, 56901, Note_on_c, 0, 87, 0
2, 56908, Note_on_c, 0, 68, 0
2, 56939, Note_on_c, 0, 89, 0
2, 56943, Note_on_c, 0, 89, 109
2, 56944, Note_on_c, 0, 77, 107
2, 56944, Note_on_c, 0, 85, 102
2, 56948, Note_on_c, 0, 82, 102
2, 56949, Note_on_c, 0, 30, 95
2, 56977, Control_c, 0, 64, 127
2, 57039, Note_on_c, 0, 30, 0
2, 57120, Note_on_c, 0, 49, 81
2, 57122, Note_on_c, 0, 42, 78
2, 57177, Note_on_c, 0, 42, 0
2, 57183, Note_on_c, 0, 42, 64
2, 57186, Note_on_c, 0, 54, 89
2, 57274, Note_on_c, 0, 68, 90
2, 57275, Note_on_c, 0, 60, 96
2, 57280, Note_on_c, 0, 56, 91
2, 57286, Note_on_c, 0, 66, 67
2, 57438, Note_on_c, 0, 66, 0
2, 57442, Note_on_c, 0, 61, 90
2, 57443, Note_on_c, 0, 66, 68
2, 57530, Note_on_c, 0, 60, 0
2, 57539, Note_on_c, 0, 60, 71
2, 57592, Note_on_c, 0, 54, 0
2, 57600, Note_on_c, 0, 77, 0
2, 57600, Note_on_c, 0, 89, 0
2, 57603, Note_on_c, 0, 54, 93
2, 57606, Note_on_c, 0, 89, 106
2, 57609, Note_on_c, 0, 77, 99
2, 57784, Note_on_c, 0, 61, 0
2, 57784, Note_on_c, 0, 68, 0
2, 57784, Note_on_c, 0, 85, 0
2, 57788, Note_on_c, 0, 90, 108
2, 57788, Note_on_c, 0, 61, 83
2, 57792, Note_on_c, 0, 66, 0
2, 57792, Note_on_c, 0, 82, 0
2, 57792, Note_on_c, 0, 78, 103
2, 57794, Note_on_c, 0, 68, 89
2, 57794, Note_on_c, 0, 85, 100
2, 57795, Note_on_c, 0, 66, 84
2, 57797, Note_on_c, 0, 82, 92
2, 57945, Note_on_c, 0, 56, 0
2, 57945, Note_on_c, 0, 68, 0
2, 57953, Note_on_c, 0, 56, 86
2, 57956, Note_on_c, 0, 68, 88
2, 57968, Note_on_c, 0, 66, 0
2, 57976, Note_on_c, 0, 66, 51
2, 58007, Note_on_c, 0, 49, 0
2, 58007, Note_on_c, 0, 61, 0
2, 58016, Note_on_c, 0, 61, 82
2, 58018, Note_on_c, 0, 49, 85
2, 58091, Note_on_c, 0, 42, 0
2, 58098, Note_on_c, 0, 42, 91
2, 58122, Note_on_c, 0, 77, 0
2, 58122, Note_on_c, 0, 82, 0
2, 58122, Note_on_c, 0, 85, 0
2, 58122, Note_on_c, 0, 89, 0
2, 58127, Note_on_c, 0, 89, 99
2, 58131, Note_on_c, 0, 77, 99
2, 58132, Note_on_c, 0, 85, 106
2, 58133, Note_on_c, 0, 82, 101
2, 58221, Note_on_c, 0, 49, 0
2, 58221, Control_c, 0, 64, 0
2, 58222, Note_on_c, 0, 60, 0
2, 58222, Note_on_c, 0, 42, 0
2, 58222, Note_on_c, 0, 56, 0
2, 58223, Note_on_c, 0, 68, 0
2, 58223, Note_on_c, 0, 90, 0
2, 58223, Note_on_c, 0, 78, 0
2, 58224, Note_on_c, 0, 61, 0
2, 58237, Note_on_c, 0, 54, 0
2, 58245, Note_on_c, 0, 66, 0
2, 58268, Control_c, 0, 64, 127
2, 58278, Note_on_c, 0, 44, 102
2, 58278, Note_on_c, 0, 32, 98
2, 58435, Note_on_c, 0, 51, 66
2, 58444, Note_on_c, 0, 51, 0
2, 58460, Note_on_c, 0, 87, 106
2, 58463, Note_on_c, 0, 84, 85
2, 58464, Note_on_c, 0, 75, 94
2, 58469, Note_on_c, 0, 80, 84
2, 58501, Note_on_c, 0, 56, 72
2, 58609, Note_on_c, 0, 58, 87
2, 58638, Note_on_c, 0, 61, 86
2, 58782, Note_on_c, 0, 75, 0
2, 58782, Note_on_c, 0, 80, 0
2, 58782, Note_on_c, 0, 85, 0
2, 58787, Note_on_c, 0, 85, 106
2, 58787, Note_on_c, 0, 73, 100
2, 58789, Note_on_c, 0, 63, 93
2, 58789, Note_on_c, 0, 75, 89
2, 58792, Note_on_c, 0, 80, 74
2, 58944, Note_on_c, 0, 56, 0
2, 58953, Note_on_c, 0, 56, 91
2, 59112, Note_on_c, 0, 84, 0
2, 59118, Note_on_c, 0, 84, 105
2, 59120, Note_on_c, 0, 56, 0
2, 59120, Note_on_c, 0, 63, 0
2, 59120, Note_on_c, 0, 75, 0
2, 59120, Note_on_c, 0, 80, 0
2, 59122, Note_on_c, 0, 72, 94
2, 59124, Note_on_c, 0, 87, 0
2, 59124, Note_on_c, 0, 63, 86
2, 59124, Note_on_c, 0, 75, 103
2, 59125, Note_on_c, 0, 60, 90
2, 59125, Note_on_c, 0, 80, 89
2, 59128, Note_on_c, 0, 72, 0
2, 59130, Note_on_c, 0, 56, 82
2, 59281, Note_on_c, 0, 56, 0
2, 59292, Note_on_c, 0, 56, 83
2, 59388, Note_on_c, 0, 51, 79
2, 59458, Note_on_c, 0, 56, 0
2, 59458, Note_on_c, 0, 44, 0
2, 59458, Note_on_c, 0, 80, 0
2, 59463, Note_on_c, 0, 44, 83
2, 59463, Note_on_c, 0, 80, 100
2, 59463, Note_on_c, 0, 68, 94
2, 59581, Control_c, 0, 64, 0
2, 59582, Note_on_c, 0, 73, 0
2, 59583, Note_on_c, 0, 51, 0
2, 59583, Note_on_c, 0, 60, 0
2, 59583, Note_on_c, 0, 63, 0
2, 59583, Note_on_c, 0, 75, 0
2, 59583, Note_on_c, 0, 68, 0
2, 59583, Note_on_c, 0, 84, 0
2, 59584, Note_on_c, 0, 61, 0
2, 59584, Note_on_c, 0, 85, 0
2, 59584, Note_on_c, 0, 44, 0
2, 59589, Note_on_c, 0, 32, 0
2, 59596, Note_on_c, 0, 58, 0
2, 59596, Note_on_c, 0, 77, 0
2, 59596, Note_on_c, 0, 82, 0
2, 59596, Note_on_c, 0, 89, 0
2, 59619, Note_on_c, 0, 80, 0
2, 59623, Note_on_c, 0, 87, 104
2, 59623, Note_on_c, 0, 75, 102
2, 59624, Note_on_c, 0, 80, 96
2, 59624, Note_on_c, 0, 37, 101
2, 59629, Note_on_c, 0, 77, 100
2, 59635, Control_c, 0, 64, 127
2, 59794, Note_on_c, 0, 49, 64
2, 59803, Note_on_c, 0, 56, 68
2, 59845, Note_on_c, 0, 53, 61
2, 59942, Note_on_c, 0, 49, 0
2, 59942, Note_on_c, 0, 56, 0
2, 59949, Note_on_c, 0, 68, 78
2, 59952, Note_on_c, 0, 56, 68
2, 59952, Note_on_c, 0, 49, 81
2, 59957, Note_on_c, 0, 53, 0
2, 59963, Note_on_c, 0, 53, 63
2, 59970, Note_on_c, 0, 61, 84
2, 60134, Note_on_c, 0, 75, 0
2, 60134, Note_on_c, 0, 87, 0
2, 60139, Note_on_c, 0, 87, 107
2, 60141, Note_on_c, 0, 63, 90
2, 60143, Note_on_c, 0, 75, 102
2, 60295, Note_on_c, 0, 49, 0
2, 60303, Note_on_c, 0, 49, 87
2, 60303, Note_on_c, 0, 87, 0
2, 60311, Note_on_c, 0, 75, 0
2, 60311, Note_on_c, 0, 77, 0
2, 60311, Note_on_c, 0, 80, 0
2, 60311, Note_on_c, 0, 87, 108
2, 60313, Note_on_c, 0, 85, 85
2, 60314, Note_on_c, 0, 75, 107
2, 60317, Note_on_c, 0, 80, 98
2, 60317, Note_on_c, 0, 77, 103
2, 60464, Note_on_c, 0, 56, 0
2, 60464, Note_on_c, 0, 63, 0
2, 60464, Note_on_c, 0, 68, 0
2, 60468, Note_on_c, 0, 56, 81
2, 60468, Note_on_c, 0, 63, 81
2, 60469, Note_on_c, 0, 68, 87
2, 60641, Note_on_c, 0, 37, 0
2, 60641, Note_on_c, 0, 49, 0
2, 60641, Note_on_c, 0, 85, 0
2, 60646, Note_on_c, 0, 85, 106
2, 60647, Note_on_c, 0, 49, 91
2, 60648, Note_on_c, 0, 37, 93
2, 60649, Note_on_c, 0, 73, 100
2, 60810, Note_on_c, 0, 75, 0
2, 60810, Note_on_c, 0, 87, 0
2, 60817, Note_on_c, 0, 77, 0
2, 60817, Note_on_c, 0, 80, 0
2, 60818, Note_on_c, 0, 48, 88
2, 60819, Note_on_c, 0, 87, 110
2, 60820, Note_on_c, 0, 75, 107
2, 60821, Note_on_c, 0, 36, 93
2, 60823, Note_on_c, 0, 80, 98
2, 60824, Note_on_c, 0, 77, 98
2, 60899, Note_on_c, 0, 49, 0
2, 60899, Note_on_c, 0, 56, 0
2, 60900, Note_on_c, 0, 37, 0
2, 60900, Note_on_c, 0, 48, 0
2, 60902, Note_on_c, 0, 85, 0
2, 60902, Note_on_c, 0, 73, 0
2, 60902, Note_on_c, 0, 36, 0
2, 60902, Note_on_c, 0, 63, 0
2, 60903, Note_on_c, 0, 68, 0
2, 60908, Control_c, 0, 64, 0
2, 60910, Note_on_c, 0, 53, 0
2, 60910, Note_on_c, 0, 61, 0
2, 60956, Control_c, 0, 64, 127
2, 60984, Note_on_c, 0, 46, 99
2, 60985, Note_on_c, 0, 34, 93
2, 61155, Note_on_c, 0, 80, 0
2, 61159, Note_on_c, 0, 92, 110
2, 61163, Note_on_c, 0, 46, 0
2, 61166, Note_on_c, 0, 80, 97
2, 61168, Note_on_c, 0, 46, 85
2, 61236, Note_on_c, 0, 53, 79
2, 61324, Note_on_c, 0, 87, 0
2, 61326, Note_on_c, 0, 90, 106
2, 61328, Note_on_c, 0, 78, 102
2, 61328, Note_on_c, 0, 87, 80
2, 61329, Note_on_c, 0, 58, 86
2, 61367, Note_on_c, 0, 62, 75
2, 61493, Note_on_c, 0, 77, 0
2, 61498, Note_on_c, 0, 89, 108
2, 61498, Note_on_c, 0, 70, 104
2, 61500, Note_on_c, 0, 86, 103
2, 61500, Note_on_c, 0, 77, 106
2, 61501, Note_on_c, 0, 82, 101
2, 61561, Note_on_c, 0, 65, 60
2, 61616, Note_on_c, 0, 62, 0
2, 61621, Note_on_c, 0, 62, 78
2, 61724, Note_on_c, 0, 58, 0
2, 61728, Note_on_c, 0, 58, 83
2, 61808, Note_on_c, 0, 53, 0
2, 61817, Note_on_c, 0, 53, 82
2, 61898, Note_on_c, 0, 50, 86
2, 61977, Note_on_c, 0, 46, 0
2, 61984, Note_on_c, 0, 46, 99
2, 62154, Note_on_c, 0, 89, 0
2, 62161, Note_on_c, 0, 77, 0
2, 62163, Note_on_c, 0, 89, 108
2, 62166, Note_on_c, 0, 77, 101
2, 62246, Note_on_c, 0, 65, 0
2, 62247, Note_on_c, 0, 62, 0
2, 62247, Note_on_c, 0, 80, 0
2, 62247, Note_on_c, 0, 77, 0
2, 62247, Note_on_c, 0, 82, 0
2, 62248, Note_on_c, 0, 53, 0
2, 62248, Note_on_c, 0, 58, 0
2, 62248, Note_on_c, 0, 89, 0
2, 62248, Note_on_c, 0, 92, 0
2, 62248, Note_on_c, 0, 87, 0
2, 62248, Note_on_c, 0, 78, 0
2, 62248, Note_on_c, 0, 50, 0
2, 62248, Note_on_c, 0, 86, 0
2, 62249, Note_on_c, 0, 46, 0
2, 62249, Control_c, 0, 64, 0
2, 62249, Note_on_c, 0, 90, 0
2, 62249, Note_on_c, 0, 70, 0
2, 62254, Note_on_c, 0, 75, 0
2, 62269, Note_on_c, 0, 34, 0
2, 62311, Note_on_c, 0, 39, 89
2, 62315, Control_c, 0, 64, 127
2, 62317, Note_on_c, 0, 89, 108
2, 62318, Note_on_c, 0, 77, 104
2, 62318, Note_on_c, 0, 85, 101
2, 62320, Note_on_c, 0, 82, 100
2, 62471, Note_on_c, 0, 46, 61
2, 62472, Note_on_c, 0, 51, 82
2, 62565, Note_on_c, 0, 54, 78
2, 62645, Note_on_c, 0, 82, 0
2, 62650, Note_on_c, 0, 82, 88
2, 62657, Note_on_c, 0, 70, 83
2, 62661, Note_on_c, 0, 51, 0
2, 62671, Note_on_c, 0, 51, 76
2, 62822, Note_on_c, 0, 85, 0
2, 62826, Note_on_c, 0, 85, 104
2, 62830, Note_on_c, 0, 61, 91
2, 62832, Note_on_c, 0, 75, 99
2, 62833, Note_on_c, 0, 78, 90
2, 62834, Note_on_c, 0, 58, 91
2, 62983, Note_on_c, 0, 51, 0
2, 62990, Note_on_c, 0, 51, 91
2, 63160, Note_on_c, 0, 54, 0
2, 63160, Note_on_c, 0, 75, 0
2, 63164, Note_on_c, 0, 87, 105
2, 63169, Note_on_c, 0, 54, 88
2, 63169, Note_on_c, 0, 75, 99
2, 63321, Note_on_c, 0, 51, 0
2, 63323, Note_on_c, 0, 70, 0
2, 63326, Note_on_c, 0, 51, 77
2, 63375, Note_on_c, 0, 46, 0
2, 63386, Note_on_c, 0, 46, 78
2, 63459, Note_on_c, 0, 39, 0
2, 63468, Note_on_c, 0, 39, 85
2, 63505, Note_on_c, 0, 87, 0
2, 63507, Note_on_c, 0, 92, 107
2, 63511, Note_on_c, 0, 84, 95
2, 63512, Note_on_c, 0, 80, 102
2, 63513, Note_on_c, 0, 87, 97
2, 63594, Control_c, 0, 64, 0
2, 63595, Note_on_c, 0, 82, 0
2, 63595, Note_on_c, 0, 51, 0
2, 63596, Note_on_c, 0, 58, 0
2, 63596, Note_on_c, 0, 39, 0
2, 63596, Note_on_c, 0, 85, 0
2, 63596, Note_on_c, 0, 75, 0
2, 63596, Note_on_c, 0, 54, 0
2, 63596, Note_on_c, 0, 89, 0
2, 63596, Note_on_c, 0, 77, 0
2, 63597, Note_on_c, 0, 78, 0
2, 63599, Note_on_c, 0, 61, 0
2, 63621, Note_on_c, 0, 46, 0
2, 63651, Control_c, 0, 64, 127
2, 63652, Note_on_c, 0, 44, 98
2, 63654, Note_on_c, 0, 32, 91
2, 63828, Note_on_c, 0, 92, 0
2, 63829, Note_on_c, 0, 58, 73
2, 63833, Note_on_c, 0, 92, 92
2, 63836, Note_on_c, 0, 80, 0
2, 63847, Note_on_c, 0, 80, 87
2, 63862, Note_on_c, 0, 89, 52
2, 63923, Note_on_c, 0, 51, 61
2, 63975, Note_on_c, 0, 60, 82
2, 64001, Note_on_c, 0, 90, 97
2, 64003, Note_on_c, 0, 78, 96
2, 64058, Note_on_c, 0, 51, 0
2, 64064, Note_on_c, 0, 51, 78
2, 64154, Note_on_c, 0, 61, 94
2, 64166, Note_on_c, 0, 78, 0
2, 64166, Note_on_c, 0, 84, 0
2, 64166, Note_on_c, 0, 90, 0
2, 64174, Note_on_c, 0, 87, 0
2, 64176, Note_on_c, 0, 90, 108
2, 64177, Note_on_c, 0, 84, 98
2, 64177, Note_on_c, 0, 78, 107
2, 64180, Note_on_c, 0, 87, 99
2, 64235, Note_on_c, 0, 51, 0
2, 64240, Note_on_c, 0, 51, 86
2, 64301, Note_on_c, 0, 63, 90
2, 64304, Note_on_c, 0, 61, 0
2, 64314, Note_on_c, 0, 61, 80
2, 64343, Note_on_c, 0, 89, 0
2, 64347, Note_on_c, 0, 89, 105
2, 64353, Note_on_c, 0, 77, 93
2, 64389, Note_on_c, 0, 51, 0
2, 64393, Note_on_c, 0, 79, 69
2, 64398, Note_on_c, 0, 51, 83
2, 64404, Note_on_c, 0, 79, 0
2, 64482, Note_on_c, 0, 65, 87
2, 64512, Note_on_c, 0, 87, 0
2, 64516, Note_on_c, 0, 87, 102
2, 64521, Note_on_c, 0, 75, 93
2, 64550, Note_on_c, 0, 51, 0
2, 64551, Note_on_c, 0, 85, 67
2, 64554, Note_on_c, 0, 51, 98
2, 64632, Note_on_c, 0, 66, 96
2, 64665, Note_on_c, 0, 78, 0
2, 64665, Note_on_c, 0, 90, 0
2, 64674, Note_on_c, 0, 90, 108
2, 64676, Note_on_c, 0, 78, 100
2, 64711, Note_on_c, 0, 51, 0
2, 64721, Note_on_c, 0, 51, 91
2, 64811, Note_on_c, 0, 68, 100
2, 64842, Note_on_c, 0, 89, 0
2, 64848, Note_on_c, 0, 89, 109
2, 64849, Note_on_c, 0, 77, 0
2, 64849, Note_on_c, 0, 80, 0
2, 64849, Note_on_c, 0, 85, 0
2, 64854, Note_on_c, 0, 77, 106
2, 64854, Note_on_c, 0, 85, 109
2, 64857, Note_on_c, 0, 80, 95
2, 64934, Note_on_c, 0, 58, 0
2, 64934, Note_on_c, 0, 63, 0
2, 64935, Note_on_c, 0, 51, 0
2, 64935, Note_on_c, 0, 66, 0
2, 64935, Note_on_c, 0, 60, 0
2, 64935, Note_on_c, 0, 92, 0
2, 64935, Note_on_c, 0, 90, 0
2, 64935, Note_on_c, 0, 39, 58
2, 64935, Note_on_c, 0, 61, 0
2, 64936, Note_on_c, 0, 75, 0
2, 64936, Note_on_c, 0, 44, 0
2, 64936, Note_on_c, 0, 68, 0
2, 64938, Control_c, 0, 64, 0
2, 64949, Note_on_c, 0, 32, 0
2, 64949, Note_on_c, 0, 65, 0
2, 64949, Note_on_c, 0, 78, 0
2, 64949, Note_on_c, 0, 87, 0
2, 64957, Note_on_c, 0, 39, 0
2, 64957, Note_on_c, 0, 84, 0
2, 65015, Note_on_c, 0, 30, 95
2, 65017, Note_on_c, 0, 42, 98
2, 65018, Control_c, 0, 64, 127
2, 65174, Note_on_c, 0, 68, 95
2, 65271, Note_on_c, 0, 61, 69
2, 65280, Note_on_c, 0, 61, 0
2, 65326, Note_on_c, 0, 80, 0
2, 65334, Note_on_c, 0, 54, 74
2, 65337, Note_on_c, 0, 80, 90
2, 65422, Note_on_c, 0, 78, 92
2, 65422, Note_on_c, 0, 66, 78
2, 65516, Note_on_c, 0, 65, 92
2, 65520, Note_on_c, 0, 61, 82
2, 65522, Note_on_c, 0, 58, 76
2, 65587, Note_on_c, 0, 77, 0
2, 65593, Note_on_c, 0, 77, 98
2, 65763, Note_on_c, 0, 77, 0
2, 65769, Note_on_c, 0, 77, 88
2, 65817, Note_on_c, 0, 54, 0
2, 65824, Note_on_c, 0, 54, 86
2, 65925, Note_on_c, 0, 54, 0
2, 65925, Note_on_c, 0, 77, 0
2, 65934, Note_on_c, 0, 77, 82
2, 65936, Note_on_c, 0, 54, 78
2, 66024, Note_on_c, 0, 72, 89
2, 66024, Note_on_c, 0, 58, 0
2, 66027, Note_on_c, 0, 63, 88
2, 66030, Note_on_c, 0, 58, 78
2, 66199, Note_on_c, 0, 73, 84
2, 66343, Control_c, 0, 64, 0
2, 66343, Note_on_c, 0, 58, 0
2, 66343, Note_on_c, 0, 54, 0
2, 66343, Note_on_c, 0, 63, 0
2, 66343, Note_on_c, 0, 80, 0
2, 66343, Note_on_c, 0, 68, 0
2, 66344, Note_on_c, 0, 61, 0
2, 66344, Note_on_c, 0, 78, 0
2, 66344, Note_on_c, 0, 65, 0
2, 66344, Note_on_c, 0, 66, 0
2, 66344, Note_on_c, 0, 72, 0
2, 66344, Note_on_c, 0, 77, 0
2, 66355, Note_on_c, 0, 42, 0
2, 66355, Note_on_c, 0, 85, 0
2, 66355, Note_on_c, 0, 89, 0
2, 66365, Note_on_c, 0, 42, 74
2, 66447, Control_c, 0, 64, 127
2, 66478, Note_on_c, 0, 30, 0
2, 66529, Note_on_c, 0, 68, 86
2, 66699, Note_on_c, 0, 80, 87
2, 66700, Note_on_c, 0, 54, 77
2, 66704, Note_on_c, 0, 70, 68
2, 66781, Note_on_c, 0, 78, 87
2, 66863, Note_on_c, 0, 65, 75
2, 66867, Note_on_c, 0, 58, 61
2, 66867, Note_on_c, 0, 61, 55
2, 66950, Note_on_c, 0, 77, 85
2, 67138, Note_on_c, 0, 77, 0
2, 67146, Note_on_c, 0, 54, 0
2, 67146, Note_on_c, 0, 73, 0
2, 67147, Note_on_c, 0, 77, 81
2, 67150, Note_on_c, 0, 73, 62
2, 67153, Note_on_c, 0, 54, 63
2, 67155, Note_on_c, 0, 66, 67
2, 67299, Note_on_c, 0, 77, 0
2, 67309, Note_on_c, 0, 77, 72
2, 67368, Note_on_c, 0, 58, 0
2, 67372, Note_on_c, 0, 63, 65
2, 67373, Note_on_c, 0, 58, 64
2, 67395, Note_on_c, 0, 72, 79
2, 67560, Note_on_c, 0, 73, 0
2, 67570, Note_on_c, 0, 73, 75
2, 67665, Note_on_c, 0, 54, 0
2, 67665, Control_c, 0, 64, 0
2, 67665, Note_on_c, 0, 65, 0
2, 67665, Note_on_c, 0, 42, 0
2, 67666, Note_on_c, 0, 78, 0
2, 67666, Note_on_c, 0, 80, 0
2, 67666, Note_on_c, 0, 68, 0
2, 67666, Note_on_c, 0, 61, 0
2, 67666, Note_on_c, 0, 63, 0
2, 67667, Note_on_c, 0, 72, 0
2, 67667, Note_on_c, 0, 77, 0
2, 67676, Note_on_c, 0, 70, 0
2, 67683, Note_on_c, 0, 58, 0
2, 67691, Note_on_c, 0, 66, 0
2, 67726, Note_on_c, 0, 61, 69
2, 67726, Note_on_c, 0, 58, 64
2, 67731, Note_on_c, 0, 70, 61
2, 67745, Control_c, 0, 64, 127
2, 67903, Note_on_c, 0, 42, 66
2, 67910, Note_on_c, 0, 77, 67
2, 68013, Note_on_c, 0, 80, 68
2, 68079, Note_on_c, 0, 65, 84
2, 68083, Note_on_c, 0, 58, 0
2, 68083, Note_on_c, 0, 61, 0
2, 68083, Note_on_c, 0, 70, 0
2, 68085, Note_on_c, 0, 89, 79
2, 68087, Note_on_c, 0, 61, 79
2, 68088, Note_on_c, 0, 58, 65
2, 68090, Note_on_c, 0, 70, 73
2, 68176, Note_on_c, 0, 85, 69
2, 68255, Note_on_c, 0, 54, 71
2, 68256, Note_on_c, 0, 82, 62
2, 68328, Note_on_c, 0, 80, 0
2, 68336, Note_on_c, 0, 82, 0
2, 68338, Note_on_c, 0, 80, 67
2, 68341, Note_on_c, 0, 82, 59
2, 68413, Note_on_c, 0, 65, 0
2, 68421, Note_on_c, 0, 58, 0
2, 68421, Note_on_c, 0, 61, 0
2, 68421, Note_on_c, 0, 89, 0
2, 68421, Note_on_c, 0, 65, 92
2, 68425, Note_on_c, 0, 61, 81
2, 68429, Note_on_c, 0, 89, 83
2, 68431, Note_on_c, 0, 58, 70
2, 68520, Note_on_c, 0, 85, 0
2, 68526, Note_on_c, 0, 85, 73
2, 68582, Note_on_c, 0, 54, 0
2, 68588, Note_on_c, 0, 54, 73
2, 68605, Note_on_c, 0, 82, 0
2, 68610, Note_on_c, 0, 82, 53
2, 68682, Note_on_c, 0, 80, 0
2, 68687, Note_on_c, 0, 80, 63
2, 68751, Note_on_c, 0, 58, 0
2, 68751, Note_on_c, 0, 70, 0
2, 68751, Note_on_c, 0, 89, 0
2, 68755, Note_on_c, 0, 63, 76
2, 68755, Note_on_c, 0, 70, 78
2, 68756, Note_on_c, 0, 89, 81
2, 68762, Note_on_c, 0, 58, 73
2, 68858, Note_on_c, 0, 85, 0
2, 68863, Note_on_c, 0, 85, 73
2, 68912, Note_on_c, 0, 61, 0
2, 68922, Note_on_c, 0, 61, 74
2, 68951, Note_on_c, 0, 82, 0
2, 68957, Note_on_c, 0, 82, 65
2, 69004, Note_on_c, 0, 80, 0
2, 69010, Note_on_c, 0, 80, 70
2, 69039, Note_on_c, 0, 54, 0
2, 69039, Control_c, 0, 64, 0
2, 69039, Note_on_c, 0, 77, 0
2, 69039, Note_on_c, 0, 73, 0
2, 69039, Note_on_c, 0, 61, 0
2, 69039, Note_on_c, 0, 65, 0
2, 69039, Note_on_c, 0, 85, 0
2, 69039, Note_on_c, 0, 58, 0
2, 69039, Note_on_c, 0, 70, 0
2, 69039, Note_on_c, 0, 89, 0
2, 69040, Note_on_c, 0, 82, 0
2, 69040, Note_on_c, 0, 63, 0
2, 69058, Note_on_c, 0, 42, 0
2, 69081, Note_on_c, 0, 80, 0
2, 69088, Note_on_c, 0, 63, 89
2, 69092, Note_on_c, 0, 60, 78
2, 69102, Note_on_c, 0, 56, 77
2, 69107, Note_on_c, 0, 87, 80
2, 69124, Note_on_c, 0, 60, 0
2, 69127, Control_c, 0, 64, 127
2, 69206, Note_on_c, 0, 85, 76
2, 69270, Note_on_c, 0, 44, 74
2, 69276, Note_on_c, 0, 84, 73
2, 69362, Note_on_c, 0, 80, 68
2, 69421, Note_on_c, 0, 65, 89
2, 69423, Note_on_c, 0, 60, 82
2, 69442, Note_on_c, 0, 87, 0
2, 69452, Note_on_c, 0, 87, 84
2, 69465, Note_on_c, 0, 63, 0
2, 69527, Note_on_c, 0, 85, 0
2, 69531, Note_on_c, 0, 85, 72
2, 69603, Note_on_c, 0, 84, 0
2, 69608, Note_on_c, 0, 68, 65
2, 69608, Note_on_c, 0, 84, 69
2, 69696, Note_on_c, 0, 80, 0
2, 69699, Note_on_c, 0, 80, 59
2, 69753, Note_on_c, 0, 63, 83
2, 69757, Note_on_c, 0, 60, 0
2, 69761, Note_on_c, 0, 60, 72
2, 69765, Note_on_c, 0, 87, 0
2, 69769, Note_on_c, 0, 87, 84
2, 69841, Note_on_c, 0, 85, 0
2, 69847, Note_on_c, 0, 85, 74
2, 69918, Note_on_c, 0, 84, 0
2, 69926, Note_on_c, 0, 56, 0
2, 69926, Note_on_c, 0, 68, 0
2, 69929, Note_on_c, 0, 84, 70
2, 69930, Note_on_c, 0, 56, 71
2, 69932, Note_on_c, 0, 68, 71
2, 69987, Note_on_c, 0, 80, 0
2, 69995, Note_on_c, 0, 80, 67
2, 70082, Note_on_c, 0, 61, 89
2, 70087, Note_on_c, 0, 87, 0
2, 70095, Note_on_c, 0, 87, 80
2, 70172, Note_on_c, 0, 84, 0
2, 70172, Note_on_c, 0, 85, 0
2, 70178, Note_on_c, 0, 85, 70
2, 70178, Note_on_c, 0, 84, 68
2, 70241, Note_on_c, 0, 84, 0
2, 70245, Note_on_c, 0, 84, 65
2, 70302, Note_on_c, 0, 80, 0
2, 70310, Note_on_c, 0, 80, 72
2, 70398, Note_on_c, 0, 68, 0
2, 70399, Note_on_c, 0, 80, 0
2, 70399, Note_on_c, 0, 65, 0
2, 70399, Note_on_c, 0, 60, 0
2, 70399, Note_on_c, 0, 87, 0
2, 70399, Note_on_c, 0, 63, 0
2, 70400, Note_on_c, 0, 84, 0
2, 70400, Note_on_c, 0, 56, 0
2, 70401, Control_c, 0, 64, 0
2, 70410, Note_on_c, 0, 61, 0
2, 70410, Note_on_c, 0, 85, 0
2, 70416, Note_on_c, 0, 61, 91
2, 70416, Note_on_c, 0, 58, 88
2, 70417, Note_on_c, 0, 44, 0
2, 70420, Note_on_c, 0, 85, 86
2, 70479, Control_c, 0, 64, 127
2, 70528, Note_on_c, 0, 84, 78
2, 70578, Note_on_c, 0, 46, 79
2, 70613, Note_on_c, 0, 80, 72
2, 70690, Note_on_c, 0, 77, 67
2, 70740, Note_on_c, 0, 85, 0
2, 70751, Note_on_c, 0, 85, 72
2, 70768, Note_on_c, 0, 53, 71
2, 70832, Note_on_c, 0, 84, 0
2, 70839, Note_on_c, 0, 84, 70
2, 70901, Note_on_c, 0, 80, 0
2, 70911, Note_on_c, 0, 80, 63
2, 70932, Note_on_c, 0, 58, 0
2, 70938, Note_on_c, 0, 58, 80
2, 71009, Note_on_c, 0, 77, 0
2, 71015, Note_on_c, 0, 77, 65
2, 71086, Note_on_c, 0, 85, 0
2, 71089, Note_on_c, 0, 85, 75
2, 71155, Note_on_c, 0, 84, 0
2, 71161, Note_on_c, 0, 84, 71
2, 71216, Note_on_c, 0, 80, 0
2, 71227, Note_on_c, 0, 80, 68
2, 71266, Note_on_c, 0, 56, 89
2, 71293, Note_on_c, 0, 77, 0
2, 71297, Note_on_c, 0, 77, 72
2, 71408, Note_on_c, 0, 85, 0
2, 71414, Note_on_c, 0, 85, 85
2, 71416, Note_on_c, 0, 58, 0
2, 71420, Note_on_c, 0, 58, 86
2, 71500, Note_on_c, 0, 84, 0
2, 71505, Note_on_c, 0, 84, 70
2, 71569, Note_on_c, 0, 80, 0
2, 71577, Note_on_c, 0, 56, 0
2, 71580, Note_on_c, 0, 80, 78
2, 71588, Note_on_c, 0, 56, 96
2, 71631, Note_on_c, 0, 77, 0
2, 71641, Note_on_c, 0, 77, 82
2, 71766, Note_on_c, 0, 75, 88
2, 71766, Note_on_c, 0, 48, 75
2, 71768, Note_on_c, 0, 46, 0
2, 71768, Note_on_c, 0, 53, 0
2, 71769, Note_on_c, 0, 84, 0
2, 71769, Note_on_c, 0, 80, 0
2, 71770, Note_on_c, 0, 85, 0
2, 71771, Note_on_c, 0, 56, 0
2, 71771, Note_on_c, 0, 61, 0
2, 71773, Control_c, 0, 64, 0
2, 71784, Note_on_c, 0, 58, 0
2, 71784, Note_on_c, 0, 77, 0
2, 71854, Control_c, 0, 64, 127
2, 71869, Note_on_c, 0, 77, 73
2, 71938, Note_on_c, 0, 51, 78
2, 71938, Note_on_c, 0, 75, 0
2, 71943, Note_on_c, 0, 75, 73
2, 72006, Note_on_c, 0, 73, 73
2, 72076, Note_on_c, 0, 75, 0
2, 72080, Note_on_c, 0, 78, 55
2, 72084, Note_on_c, 0, 78, 0
2, 72084, Note_on_c, 0, 75, 66
2, 72104, Note_on_c, 0, 54, 77
2, 72173, Note_on_c, 0, 78, 79
2, 72251, Note_on_c, 0, 73, 0
2, 72251, Note_on_c, 0, 75, 0
2, 72251, Note_on_c, 0, 51, 0
2, 72251, Note_on_c, 0, 48, 0
2, 72251, Note_on_c, 0, 54, 0
2, 72252, Control_c, 0, 64, 0
2, 72253, Note_on_c, 0, 77, 0
2, 72254, Note_on_c, 0, 78, 0
2, 72264, Note_on_c, 0, 77, 79
2, 72272, Note_on_c, 0, 49, 77
2, 72273, Note_on_c, 0, 53, 86
2, 72352, Note_on_c, 0, 78, 80
2, 72376, Control_c, 0, 64, 127
2, 72430, Note_on_c, 0, 77, 0
2, 72435, Note_on_c, 0, 77, 73
2, 72503, Note_on_c, 0, 75, 83
2, 72599, Note_on_c, 0, 77, 0
2, 72605, Note_on_c, 0, 63, 85
2, 72609, Note_on_c, 0, 77, 80
2, 72717, Note_on_c, 0, 80, 68
2, 72778, Note_on_c, 0, 85, 79
2, 72779, Note_on_c, 0, 61, 83
2, 72865, Note_on_c, 0, 84, 78
2, 72940, Note_on_c, 0, 60, 83
2, 72940, Note_on_c, 0, 82, 80
2, 73021, Note_on_c, 0, 80, 0
2, 73028, Note_on_c, 0, 80, 74
2, 73064, Note_on_c, 0, 78, 0
2, 73064, Note_on_c, 0, 80, 0
2, 73064, Note_on_c, 0, 63, 0
2, 73064, Note_on_c, 0, 60, 0
2, 73064, Note_on_c, 0, 84, 0
2, 73064, Note_on_c, 0, 75, 0
2, 73064, Note_on_c, 0, 77, 0
2, 73065, Note_on_c, 0, 85, 0
2, 73065, Note_on_c, 0, 61, 0
2, 73066, Control_c, 0, 64, 0
2, 73075, Note_on_c, 0, 49, 0
2, 73090, Note_on_c, 0, 53, 0
2, 73098, Note_on_c, 0, 82, 0
2, 73109, Note_on_c, 0, 82, 83
2, 73112, Note_on_c, 0, 58, 86
2, 73119, Note_on_c, 0, 54, 80
2, 73167, Control_c, 0, 64, 127
2, 73278, Note_on_c, 0, 42, 70
2, 73311, Note_on_c, 0, 77, 71
2, 73389, Note_on_c, 0, 80, 74
2, 73454, Note_on_c, 0, 89, 83
2, 73454, Note_on_c, 0, 65, 90
2, 73459, Note_on_c, 0, 58, 0
2, 73463, Note_on_c, 0, 61, 82
2, 73469, Note_on_c, 0, 58, 79
2, 73548, Note_on_c, 0, 85, 74
2, 73612, Note_on_c, 0, 54, 0
2, 73612, Note_on_c, 0, 82, 0
2, 73618, Note_on_c, 0, 82, 74
2, 73623, Note_on_c, 0, 54, 65
2, 73689, Note_on_c, 0, 80, 0
2, 73700, Note_on_c, 0, 80, 66
2, 73781, Note_on_c, 0, 61, 0
2, 73781, Note_on_c, 0, 65, 0
2, 73781, Note_on_c, 0, 89, 0
2, 73787, Note_on_c, 0, 65, 92
2, 73789, Note_on_c, 0, 58, 0
2, 73791, Note_on_c, 0, 61, 88
2, 73791, Note_on_c, 0, 89, 85
2, 73795, Note_on_c, 0, 58, 79
2, 73873, Note_on_c, 0, 85, 0
2, 73879, Note_on_c, 0, 85, 74
2, 73943, Note_on_c, 0, 54, 0
2, 73953, Note_on_c, 0, 54, 81
2, 74012, Note_on_c, 0, 80, 0
2, 74016, Note_on_c, 0, 80, 66
2, 74112, Note_on_c, 0, 58, 0
2, 74112, Note_on_c, 0, 89, 0
2, 74116, Note_on_c, 0, 63, 86
2, 74116, Note_on_c, 0, 89, 81
2, 74122, Note_on_c, 0, 58, 76
2, 74219, Note_on_c, 0, 85, 0
2, 74224, Note_on_c, 0, 85, 72
2, 74280, Note_on_c, 0, 61, 0
2, 74285, Note_on_c, 0, 61, 84
2, 74288, Note_on_c, 0, 82, 0
2, 74294, Note_on_c, 0, 82, 74
2, 74350, Note_on_c, 0, 80, 0
2, 74356, Note_on_c, 0, 80, 60
2, 74398, Note_on_c, 0, 80, 0
2, 74399, Control_c, 0, 64, 0
2, 74399, Note_on_c, 0, 65, 0
2, 74399, Note_on_c, 0, 61, 0
2, 74400, Note_on_c, 0, 85, 0
2, 74400, Note_on_c, 0, 82, 0
2, 74400, Note_on_c, 0, 89, 0
2, 74400, Note_on_c, 0, 63, 0
2, 74411, Note_on_c, 0, 54, 0
2, 74411, Note_on_c, 0, 58, 0
2, 74411, Note_on_c, 0, 77, 0
2, 74419, Note_on_c, 0, 42, 0
2, 74446, Note_on_c, 0, 63, 91
2, 74454, Note_on_c, 0, 60, 82
2, 74457, Note_on_c, 0, 56, 77
2, 74458, Note_on_c, 0, 68, 86
2, 74462, Note_on_c, 0, 87, 82
2, 74511, Control_c, 0, 64, 127
2, 74519, Note_on_c, 0, 60, 0
2, 74556, Note_on_c, 0, 85, 77
2, 74620, Note_on_c, 0, 44, 82
2, 74624, Note_on_c, 0, 84, 71
2, 74690, Note_on_c, 0, 80, 64
2, 74784, Note_on_c, 0, 65, 88
2, 74787, Note_on_c, 0, 60, 85
2, 74787, Note_on_c, 0, 87, 0
2, 74792, Note_on_c, 0, 87, 84
2, 74833, Note_on_c, 0, 63, 0
2, 74872, Note_on_c, 0, 85, 0
2, 74876, Note_on_c, 0, 85, 77
2, 74941, Note_on_c, 0, 84, 0
2, 74949, Note_on_c, 0, 56, 0
2, 74949, Note_on_c, 0, 84, 76
2, 74959, Note_on_c, 0, 56, 68
2, 75018, Note_on_c, 0, 80, 0
2, 75024, Note_on_c, 0, 80, 65
2, 75118, Note_on_c, 0, 60, 0
2, 75118, Note_on_c, 0, 87, 0
2, 75120, Note_on_c, 0, 63, 90
2, 75121, Note_on_c, 0, 60, 79
2, 75122, Note_on_c, 0, 87, 85
2, 75202, Note_on_c, 0, 85, 0
2, 75207, Note_on_c, 0, 85, 70
2, 75279, Note_on_c, 0, 84, 0
2, 75287, Note_on_c, 0, 56, 0
2, 75288, Note_on_c, 0, 84, 74
2, 75291, Note_on_c, 0, 56, 83
2, 75440, Note_on_c, 0, 87, 0
2, 75446, Note_on_c, 0, 61, 94
2, 75451, Note_on_c, 0, 87, 83
2, 75517, Note_on_c, 0, 85, 0
2, 75523, Note_on_c, 0, 85, 69
2, 75571, Note_on_c, 0, 84, 0
2, 75581, Note_on_c, 0, 84, 74
2, 75655, Note_on_c, 0, 80, 0
2, 75665, Note_on_c, 0, 80, 73
2, 75776, Note_on_c, 0, 65, 0
2, 75777, Note_on_c, 0, 68, 0
2, 75777, Note_on_c, 0, 85, 0
2, 75778, Note_on_c, 0, 80, 0
2, 75778, Note_on_c, 0, 60, 0
2, 75779, Note_on_c, 0, 63, 0
2, 75781, Control_c, 0, 64, 0
2, 75786, Note_on_c, 0, 56, 0
2, 75786, Note_on_c, 0, 61, 0
2, 75786, Note_on_c, 0, 84, 0
2, 75790, Note_on_c, 0, 61, 91
2, 75791, Note_on_c, 0, 56, 77
2, 75793, Note_on_c, 0, 44, 0
2, 75793, Note_on_c, 0, 87, 0
2, 75797, Note_on_c, 0, 84, 86
2, 75798, Note_on_c, 0, 54, 85
2, 75855, Control_c, 0, 64, 127
2, 75883, Note_on_c, 0, 85, 87
2, 75947, Note_on_c, 0, 84, 0
2, 75949, Note_on_c, 0, 49, 72
2, 75958, Note_on_c, 0, 84, 87
2, 76062, Note_on_c, 0, 80, 84
2, 76108, Note_on_c, 0, 54, 0
2, 76113, Note_on_c, 0, 54, 71
2, 76146, Note_on_c, 0, 78, 83
2, 76229, Note_on_c, 0, 77, 78
2, 76291, Control_c, 0, 64, 0
2, 76292, Note_on_c, 0, 78, 0
2, 76293, Note_on_c, 0, 54, 0
2, 76293, Note_on_c, 0, 85, 0
2, 76293, Note_on_c, 0, 77, 0
2, 76293, Note_on_c, 0, 56, 0
2, 76294, Note_on_c, 0, 80, 0
2, 76294, Note_on_c, 0, 61, 0
2, 76300, Note_on_c, 0, 49, 0
2, 76304, Note_on_c, 0, 53, 82
2, 76311, Note_on_c, 0, 49, 70
2, 76312, Note_on_c, 0, 75, 88
2, 76316, Note_on_c, 0, 84, 0
2, 76369, Control_c, 0, 64, 127
2, 76397, Note_on_c, 0, 73, 73
2, 76470, Note_on_c, 0, 72, 82
2, 76558, Note_on_c, 0, 70, 81
2, 76631, Note_on_c, 0, 49, 0
2, 76636, Note_on_c, 0, 68, 82
2, 76641, Note_on_c, 0, 49, 82
2, 76642, Note_on_c, 0, 37, 89
2, 76711, Note_on_c, 0, 66, 80
2, 76781, Note_on_c, 0, 65, 85
2, 76807, Note_on_c, 0, 48, 81
2, 76810, Note_on_c, 0, 36, 75
2, 76865, Note_on_c, 0, 63, 89
2, 76929, Note_on_c, 0, 49, 0
2, 76931, Note_on_c, 0, 37, 0
2, 76931, Note_on_c, 0, 70, 0
2, 76931, Note_on_c, 0, 72, 0
2, 76931, Note_on_c, 0, 66, 0
2, 76931, Control_c, 0, 64, 0
2, 76932, Note_on_c, 0, 48, 0
2, 76932, Note_on_c, 0, 65, 0
2, 76932, Note_on_c, 0, 68, 0
2, 76933, Note_on_c, 0, 63, 0
2, 76933, Note_on_c, 0, 36, 0
2, 76938, Note_on_c, 0, 53, 0
2, 76938, Note_on_c, 0, 75, 0
2, 76945, Note_on_c, 0, 73, 0
2, 76974, Note_on_c, 0, 62, 95
2, 76978, Note_on_c, 0, 65, 78
2, 76978, Note_on_c, 0, 34, 92
2, 76979, Note_on_c, 0, 46, 98
2, 76980, Note_on_c, 0, 58, 92
2, 77022, Control_c, 0, 64, 127
2, 77309, Note_on_c, 0, 53, 97
2, 77310, Note_on_c, 0, 41, 91
2, 77314, Note_on_c, 0, 29, 87
2, 77475, Note_on_c, 0, 34, 0
2, 77475, Note_on_c, 0, 46, 0
2, 77479, Note_on_c, 0, 46, 108
2, 77487, Note_on_c, 0, 34, 94
2, 77491, Note_on_c, 0, 29, 0
2, 77493, Note_on_c, 0, 87, 87
2, 77496, Note_on_c, 0, 78, 79
2, 77497, Note_on_c, 0, 77, 79
2, 77502, Note_on_c, 0, 89, 77
2, 77506, Note_on_c, 0, 89, 0
2, 77511, Note_on_c, 0, 88, 69
2, 77512, Note_on_c, 0, 76, 60
2, 77644, Note_on_c, 0, 58, 0
2, 77644, Note_on_c, 0, 62, 0
2, 77652, Note_on_c, 0, 65, 0
2, 77655, Note_on_c, 0, 62, 95
2, 77656, Note_on_c, 0, 58, 98
2, 77656, Note_on_c, 0, 65, 99
2, 77821, Note_on_c, 0, 77, 0
2, 77831, Note_on_c, 0, 89, 111
2, 77832, Note_on_c, 0, 77, 109
2, 77833, Note_on_c, 0, 82, 105
2, 77864, Note_on_c, 0, 85, 41
2, 77998, Note_on_c, 0, 56, 97
2, 78151, Note_on_c, 0, 87, 0
2, 78162, Note_on_c, 0, 75, 106
2, 78162, Note_on_c, 0, 87, 107
2, 78167, Note_on_c, 0, 58, 0
2, 78176, Note_on_c, 0, 58, 95
2, 78182, Note_on_c, 0, 85, 0
2, 78193, Note_on_c, 0, 85, 43
2, 78312, Note_on_c, 0, 85, 0
2, 78319, Note_on_c, 0, 68, 89
2, 78322, Note_on_c, 0, 56, 0
2, 78323, Note_on_c, 0, 85, 109
2, 78329, Note_on_c, 0, 73, 105
2, 78448, Note_on_c, 0, 41, 0
2, 78448, Control_c, 0, 64, 0
2, 78448, Note_on_c, 0, 53, 0
2, 78448, Note_on_c, 0, 89, 0
2, 78449, Note_on_c, 0, 34, 0
2, 78449, Note_on_c, 0, 65, 0
2, 78449, Note_on_c, 0, 68, 0
2, 78449, Note_on_c, 0, 77, 0
2, 78449, Note_on_c, 0, 88, 0
2, 78449, Note_on_c, 0, 58, 0
2, 78450, Note_on_c, 0, 75, 0
2, 78450, Note_on_c, 0, 82, 0
2, 78450, Note_on_c, 0, 73, 0
2, 78451, Note_on_c, 0, 76, 0
2, 78466, Note_on_c, 0, 46, 0
2, 78466, Note_on_c, 0, 62, 0
2, 78466, Note_on_c, 0, 78, 0
2, 78466, Note_on_c, 0, 85, 0
2, 78466, Note_on_c, 0, 87, 0
2, 78493, Note_on_c, 0, 89, 112
2, 78495, Note_on_c, 0, 77, 112
2, 78497, Note_on_c, 0, 42, 111
2, 78497, Note_on_c, 0, 85, 103
2, 78497, Note_on_c, 0, 30, 96
2, 78500, Note_on_c, 0, 82, 108
2, 78502, Note_on_c, 0, 37, 85
2, 78512, Note_on_c, 0, 37, 0
2, 78535, Control_c, 0, 64, 127
2, 78673, Note_on_c, 0, 42, 0
2, 78676, Note_on_c, 0, 54, 89
2, 78677, Note_on_c, 0, 42, 85
2, 78743, Note_on_c, 0, 68, 80
2, 78774, Note_on_c, 0, 73, 88
2, 78834, Note_on_c, 0, 58, 81
2, 78835, Note_on_c, 0, 73, 0
2, 78835, Note_on_c, 0, 85, 0
2, 78840, Note_on_c, 0, 75, 89
2, 78841, Note_on_c, 0, 85, 83
2, 78842, Note_on_c, 0, 73, 80
2, 78904, Note_on_c, 0, 77, 0
2, 78907, Note_on_c, 0, 60, 89
2, 78913, Note_on_c, 0, 77, 86
2, 78994, Note_on_c, 0, 66, 84
2, 78997, Note_on_c, 0, 78, 94
2, 78999, Note_on_c, 0, 70, 71
2, 79062, Note_on_c, 0, 80, 94
2, 79073, Note_on_c, 0, 66, 0
2, 79077, Note_on_c, 0, 63, 83
2, 79078, Note_on_c, 0, 66, 72
2, 79162, Note_on_c, 0, 65, 98
2, 79173, Note_on_c, 0, 77, 0
2, 79173, Note_on_c, 0, 89, 0
2, 79180, Note_on_c, 0, 82, 0
2, 79180, Note_on_c, 0, 85, 0
2, 79181, Note_on_c, 0, 89, 108
2, 79183, Note_on_c, 0, 77, 102
2, 79185, Note_on_c, 0, 85, 99
2, 79185, Note_on_c, 0, 82, 101
2, 79265, Note_on_c, 0, 63, 0
2, 79265, Note_on_c, 0, 66, 0
2, 79270, Note_on_c, 0, 63, 85
2, 79275, Note_on_c, 0, 66, 70
2, 79342, Note_on_c, 0, 80, 0
2, 79348, Note_on_c, 0, 92, 112
2, 79349, Note_on_c, 0, 65, 0
2, 79353, Note_on_c, 0, 80, 99
2, 79357, Note_on_c, 0, 82, 0
2, 79359, Note_on_c, 0, 65, 89
2, 79367, Note_on_c, 0, 82, 81
2, 79441, Note_on_c, 0, 66, 0
2, 79450, Note_on_c, 0, 66, 91
2, 79511, Note_on_c, 0, 68, 0
2, 79515, Note_on_c, 0, 68, 97
2, 79580, Note_on_c, 0, 66, 0
2, 79591, Note_on_c, 0, 66, 95
2, 79641, Note_on_c, 0, 65, 0
2, 79647, Note_on_c, 0, 65, 85
2, 79680, Note_on_c, 0, 89, 0
2, 79684, Note_on_c, 0, 89, 108
2, 79687, Note_on_c, 0, 77, 0
2, 79687, Note_on_c, 0, 80, 0
2, 79687, Note_on_c, 0, 85, 0
2, 79692, Note_on_c, 0, 80, 99
2, 79693, Note_on_c, 0, 77, 103
2, 79698, Note_on_c, 0, 85, 105
2, 79703, Note_on_c, 0, 63, 0
2, 79714, Note_on_c, 0, 63, 91
2, 79733, Note_on_c, 0, 30, 0
2, 79789, Note_on_c, 0, 42, 0
2, 79790, Note_on_c, 0, 54, 0
2, 79790, Note_on_c, 0, 75, 0
2, 79790, Note_on_c, 0, 68, 0
2, 79790, Note_on_c, 0, 73, 0
2, 79790, Note_on_c, 0, 78, 0
2, 79791, Note_on_c, 0, 82, 0
2, 79791, Note_on_c, 0, 65, 0
2, 79791, Note_on_c, 0, 60, 0
2, 79791, Note_on_c, 0, 58, 0
2, 79791, Note_on_c, 0, 63, 0
2, 79791, Control_c, 0, 64, 0
2, 79795, Note_on_c, 0, 70, 0
2, 79802, Note_on_c, 0, 92, 0
2, 79810, Note_on_c, 0, 66, 0
2, 79846, Note_on_c, 0, 44, 98
2, 79864, Control_c, 0, 64, 127
2, 79943, Note_on_c, 0, 51, 86
2, 80019, Note_on_c, 0, 54, 91
2, 80027, Note_on_c, 0, 92, 97
2, 80040, Note_on_c, 0, 77, 0
2, 80106, Note_on_c, 0, 90, 95
2, 80133, Note_on_c, 0, 56, 83
2, 80171, Note_on_c, 0, 89, 0
2, 80180, Note_on_c, 0, 89, 91
2, 80202, Note_on_c, 0, 80, 0
2, 80206, Note_on_c, 0, 58, 81
2, 80206, Note_on_c, 0, 80, 79
2, 80271, Note_on_c, 0, 90, 0
2, 80277, Note_on_c, 0, 60, 84
2, 80279, Note_on_c, 0, 90, 100
2, 80348, Note_on_c, 0, 89, 0
2, 80352, Note_on_c, 0, 89, 94
2, 80360, Note_on_c, 0, 61, 88
2, 80424, Note_on_c, 0, 87, 94
2, 80435, Note_on_c, 0, 63, 79
2, 80501, Note_on_c, 0, 80, 0
2, 80501, Note_on_c, 0, 85, 0
2, 80505, Note_on_c, 0, 85, 101
2, 80506, Note_on_c, 0, 80, 94
2, 80510, Note_on_c, 0, 65, 95
2, 80586, Note_on_c, 0, 87, 0
2, 80590, Note_on_c, 0, 66, 96
2, 80592, Note_on_c, 0, 87, 101
2, 80670, Note_on_c, 0, 65, 0
2, 80670, Note_on_c, 0, 85, 0
2, 80679, Note_on_c, 0, 65, 93
2, 80679, Note_on_c, 0, 85, 97
2, 80755, Note_on_c, 0, 63, 0
2, 80761, Note_on_c, 0, 63, 87
2, 80764, Note_on_c, 0, 84, 100
2, 80808, Note_on_c, 0, 61, 0
2, 80814, Note_on_c, 0, 61, 90
2, 80844, Note_on_c, 0, 82, 105
2, 80901, Note_on_c, 0, 60, 0
2, 80909, Note_on_c, 0, 60, 86
2, 80916, Note_on_c, 0, 80, 0
2, 80923, Note_on_c, 0, 80, 94
2, 80985, Note_on_c, 0, 58, 0
2, 80994, Note_on_c, 0, 58, 82
2, 81000, Note_on_c, 0, 66, 0
2, 81005, Note_on_c, 0, 61, 0
2, 81005, Note_on_c, 0, 66, 75
2, 81015, Note_on_c, 0, 78, 90
2, 81087, Note_on_c, 0, 77, 90
2, 81126, Note_on_c, 0, 56, 0
2, 81126, Note_on_c, 0, 65, 0
2, 81126, Note_on_c, 0, 77, 0
2, 81127, Note_on_c, 0, 54, 0
2, 81127, Note_on_c, 0, 80, 0
2, 81127, Note_on_c, 0, 51, 0
2, 81127, Note_on_c, 0, 78, 0
2, 81127, Note_on_c, 0, 66, 0
2, 81127, Note_on_c, 0, 90, 0
2, 81127, Note_on_c, 0, 85, 0
2, 81127, Note_on_c, 0, 92, 0
2, 81128, Note_on_c, 0, 63, 0
2, 81128, Note_on_c, 0, 87, 0
2, 81128, Note_on_c, 0, 82, 0
2, 81128, Note_on_c, 0, 84, 0
2, 81128, Control_c, 0, 64, 0
2, 81128, Note_on_c, 0, 44, 0
2, 81146, Note_on_c, 0, 58, 0
2, 81146, Note_on_c, 0, 60, 0
2, 81146, Note_on_c, 0, 89, 0
2, 81154, Note_on_c, 0, 46, 103
2, 81158, Note_on_c, 0, 75, 103
2, 81208, Control_c, 0, 64, 127
2, 81246, Note_on_c, 0, 53, 76
2, 81250, Note_on_c, 0, 73, 84
2, 81320, Note_on_c, 0, 58, 84
2, 81325, Note_on_c, 0, 72, 88
2, 81412, Note_on_c, 0, 60, 85
2, 81412, Note_on_c, 0, 68, 98
2, 81472, Note_on_c, 0, 61, 73
2, 81497, Note_on_c, 0, 65, 89
2, 81580, Note_on_c, 0, 63, 93
2, 81634, Control_c, 0, 64, 0
2, 81637, Note_on_c, 0, 68, 0
2, 81638, Note_on_c, 0, 60, 0
2, 81638, Note_on_c, 0, 73, 0
2, 81639, Note_on_c, 0, 65, 0
2, 81639, Note_on_c, 0, 63, 0
2, 81639, Note_on_c, 0, 72, 0
2, 81639, Note_on_c, 0, 58, 0
2, 81641, Note_on_c, 0, 53, 0
2, 81646, Note_on_c, 0, 46, 0
2, 81646, Note_on_c, 0, 75, 0
2, 81661, Note_on_c, 0, 61, 0
2, 81668, Note_on_c, 0, 61, 95
2, 81673, Note_on_c, 0, 46, 94
2, 81674, Note_on_c, 0, 70, 84
2, 81675, Note_on_c, 0, 34, 89
2, 81730, Control_c, 0, 64, 127
2, 81745, Note_on_c, 0, 46, 0
2, 81759, Note_on_c, 0, 60, 81
2, 81761, Note_on_c, 0, 34, 0
2, 81830, Note_on_c, 0, 61, 0
2, 81835, Note_on_c, 0, 61, 91
2, 81927, Note_on_c, 0, 46, 71
2, 81929, Note_on_c, 0, 65, 91
2, 81995, Note_on_c, 0, 68, 99
2, 82014, Note_on_c, 0, 61, 0
2, 82021, Note_on_c, 0, 61, 67
2, 82022, Note_on_c, 0, 53, 78
2, 82097, Note_on_c, 0, 72, 87
2, 82099, Note_on_c, 0, 60, 0
2, 82104, Note_on_c, 0, 58, 74
2, 82108, Note_on_c, 0, 60, 77
2, 82160, Note_on_c, 0, 60, 0
2, 82160, Note_on_c, 0, 61, 0
2, 82160, Note_on_c, 0, 68, 0
2, 82165, Note_on_c, 0, 60, 85
2, 82166, Note_on_c, 0, 61, 80
2, 82170, Note_on_c, 0, 68, 82
2, 82170, Note_on_c, 0, 73, 80
2, 82226, Note_on_c, 0, 77, 96
2, 82260, Note_on_c, 0, 61, 0
2, 82264, Note_on_c, 0, 61, 85
2, 82296, Note_on_c, 0, 80, 98
2, 82329, Note_on_c, 0, 65, 0
2, 82340, Note_on_c, 0, 65, 78
2, 82347, Note_on_c, 0, 64, 73
2, 82381, Note_on_c, 0, 85, 103
2, 82444, Note_on_c, 0, 46, 0
2, 82446, Note_on_c, 0, 72, 0
2, 82446, Note_on_c, 0, 58, 0
2, 82446, Note_on_c, 0, 77, 0
2, 82446, Note_on_c, 0, 70, 0
2, 82447, Note_on_c, 0, 68, 0
2, 82447, Note_on_c, 0, 60, 0
2, 82447, Note_on_c, 0, 53, 0
2, 82447, Note_on_c, 0, 64, 0
2, 82447, Control_c, 0, 64, 0
2, 82447, Note_on_c, 0, 61, 0
2, 82449, Note_on_c, 0, 85, 0
2, 82452, Note_on_c, 0, 73, 0
2, 82467, Note_on_c, 0, 65, 0
2, 82467, Note_on_c, 0, 80, 0
2, 82473, Note_on_c, 0, 87, 111
2, 82474, Note_on_c, 0, 80, 94
2, 82474, Note_on_c, 0, 36, 89
2, 82474, Note_on_c, 0, 48, 90
2, 82476, Note_on_c, 0, 75, 106
2, 82521, Control_c, 0, 64, 127
2, 82621, Note_on_c, 0, 48, 0
2, 82626, Note_on_c, 0, 48, 88
2, 82638, Note_on_c, 0, 54, 80
2, 82644, Note_on_c, 0, 54, 0
2, 82645, Note_on_c, 0, 85, 98
2, 82654, Note_on_c, 0, 73, 90
2, 82720, Note_on_c, 0, 60, 90
2, 82722, Note_on_c, 0, 68, 83
2, 82725, Note_on_c, 0, 56, 79
2, 82798, Note_on_c, 0, 48, 0
2, 82798, Note_on_c, 0, 56, 0
2, 82803, Note_on_c, 0, 48, 90
2, 82805, Note_on_c, 0, 75, 0
2, 82805, Note_on_c, 0, 80, 0
2, 82805, Note_on_c, 0, 87, 0
2, 82807, Note_on_c, 0, 56, 79
2, 82810, Note_on_c, 0, 87, 101
2, 82815, Note_on_c, 0, 80, 78
2, 82816, Note_on_c, 0, 75, 95
2, 82949, Note_on_c, 0, 68, 0
2, 82950, Note_on_c, 0, 56, 0
2, 82950, Note_on_c, 0, 73, 0
2, 82950, Control_c, 0, 64, 0
2, 82950, Note_on_c, 0, 87, 0
2, 82950, Note_on_c, 0, 48, 0
2, 82951, Note_on_c, 0, 85, 0
2, 82951, Note_on_c, 0, 80, 0
2, 82951, Note_on_c, 0, 75, 0
2, 82952, Note_on_c, 0, 60, 0
2, 82953, Note_on_c, 0, 36, 0
2, 82994, Note_on_c, 0, 89, 109
2, 82997, Note_on_c, 0, 49, 99
2, 82999, Note_on_c, 0, 37, 98
2, 83000, Note_on_c, 0, 77, 106
2, 83000, Note_on_c, 0, 85, 102
2, 83002, Note_on_c, 0, 80, 99
2, 83036, Control_c, 0, 64, 127
2, 83320, Note_on_c, 0, 89, 0
2, 83328, Note_on_c, 0, 49, 0
2, 83328, Note_on_c, 0, 77, 0
2, 83331, Note_on_c, 0, 89, 108
2, 83334, Note_on_c, 0, 77, 104
2, 83337, Note_on_c, 0, 61, 95
2, 83339, Note_on_c, 0, 49, 86
2, 83505, Note_on_c, 0, 90, 108
2, 83506, Note_on_c, 0, 78, 107
2, 83508, Note_on_c, 0, 56, 78
2, 83635, Note_on_c, 0, 49, 0
2, 83645, Note_on_c, 0, 49, 80
2, 83667, Note_on_c, 0, 92, 110
2, 83673, Note_on_c, 0, 80, 0
2, 83680, Note_on_c, 0, 80, 88
2, 83798, Control_c, 0, 64, 0
2, 83798, Note_on_c, 0, 90, 0
2, 83798, Note_on_c, 0, 49, 0
2, 83799, Note_on_c, 0, 89, 0
2, 83799, Note_on_c, 0, 78, 0
2, 83799, Note_on_c, 0, 92, 0
2, 83799, Note_on_c, 0, 61, 0
2, 83799, Note_on_c, 0, 80, 0
2, 83800, Note_on_c, 0, 56, 0
2, 83800, Note_on_c, 0, 77, 0
2, 83800, Note_on_c, 0, 37, 0
2, 83811, Note_on_c, 0, 85, 0
2, 83829, Note_on_c, 0, 42, 94
2, 83830, Note_on_c, 0, 94, 117
2, 83831, Note_on_c, 0, 30, 89
2, 83831, Note_on_c, 0, 82, 107
2, 83854, Note_on_c, 0, 32, 52
2, 83862, Note_on_c, 0, 30, 0
2, 83865, Note_on_c, 0, 42, 0
2, 83880, Control_c, 0, 64, 127
2, 84004, Note_on_c, 0, 30, 78
2, 84009, Note_on_c, 0, 42, 82
2, 84014, Note_on_c, 0, 77, 93
2, 84057, Note_on_c, 0, 32, 0
2, 84091, Note_on_c, 0, 78, 96
2, 84175, Note_on_c, 0, 49, 90
2, 84176, Note_on_c, 0, 80, 92
2, 84234, Note_on_c, 0, 82, 0
2, 84239, Note_on_c, 0, 82, 99
2, 84321, Note_on_c, 0, 84, 107
2, 84344, Note_on_c, 0, 54, 88
2, 84413, Note_on_c, 0, 85, 101
2, 84471, Note_on_c, 0, 90, 100
2, 84517, Note_on_c, 0, 56, 86
2, 84549, Note_on_c, 0, 94, 0
2, 84557, Note_on_c, 0, 94, 110
2, 84648, Note_on_c, 0, 84, 0
2, 84651, Note_on_c, 0, 92, 95
2, 84658, Note_on_c, 0, 84, 95
2, 84676, Note_on_c, 0, 58, 88
2, 84725, Note_on_c, 0, 82, 0
2, 84734, Note_on_c, 0, 82, 99
2, 84794, Note_on_c, 0, 92, 0
2, 84806, Note_on_c, 0, 92, 107
2, 84845, Note_on_c, 0, 61, 90
2, 84887, Note_on_c, 0, 90, 0
2, 84894, Note_on_c, 0, 82, 0
2, 84897, Note_on_c, 0, 90, 95
2, 84901, Note_on_c, 0, 82, 91
2, 84969, Note_on_c, 0, 66, 96
2, 84979, Note_on_c, 0, 80, 0
2, 84985, Note_on_c, 0, 80, 99
2, 85025, Note_on_c, 0, 90, 0
2, 85031, Note_on_c, 0, 90, 90
2, 85121, Note_on_c, 0, 89, 108
2, 85130, Note_on_c, 0, 32, 91
2, 85133, Control_c, 0, 64, 0
2, 85135, Note_on_c, 0, 49, 0
2, 85135, Note_on_c, 0, 78, 0
2, 85136, Note_on_c, 0, 66, 0
2, 85136, Note_on_c, 0, 85, 0
2, 85136, Note_on_c, 0, 80, 0
2, 85136, Note_on_c, 0, 54, 0
2, 85136, Note_on_c, 0, 58, 0
2, 85136, Note_on_c, 0, 42, 0
2, 85136, Note_on_c, 0, 90, 0
2, 85136, Note_on_c, 0, 94, 0
2, 85136, Note_on_c, 0, 61, 0
2, 85136, Note_on_c, 0, 82, 0
2, 85137, Note_on_c, 0, 56, 0
2, 85140, Note_on_c, 0, 30, 0
2, 85148, Note_on_c, 0, 84, 0
2, 85155, Note_on_c, 0, 77, 0
2, 85171, Note_on_c, 0, 92, 0
2, 85201, Control_c, 0, 64, 127
2, 85220, Note_on_c, 0, 78, 97
2, 85278, Note_on_c, 0, 89, 0
2, 85284, Note_on_c, 0, 44, 84
2, 85289, Note_on_c, 0, 89, 100
2, 85353, Note_on_c, 0, 87, 98
2, 85401, Note_on_c, 0, 78, 0
2, 85405, Note_on_c, 0, 78, 93
2, 85436, Note_on_c, 0, 51, 91
2, 85441, Note_on_c, 0, 77, 89
2, 85509, Note_on_c, 0, 87, 0
2, 85519, Note_on_c, 0, 87, 105
2, 85608, Note_on_c, 0, 85, 96
2, 85616, Note_on_c, 0, 77, 0
2, 85621, Note_on_c, 0, 77, 88
2, 85629, Note_on_c, 0, 68, 80
2, 85634, Note_on_c, 0, 56, 82
2, 85690, Note_on_c, 0, 75, 94
2, 85770, Note_on_c, 0, 85, 0
2, 85774, Note_on_c, 0, 85, 102
2, 85779, Note_on_c, 0, 58, 91
2, 85871, Note_on_c, 0, 84, 100
2, 85944, Note_on_c, 0, 60, 85
2, 85949, Note_on_c, 0, 82, 98
2, 86043, Note_on_c, 0, 80, 95
2, 86113, Note_on_c, 0, 63, 92
2, 86131, Note_on_c, 0, 78, 0
2, 86136, Note_on_c, 0, 78, 91
2, 86200, Note_on_c, 0, 77, 0
2, 86205, Note_on_c, 0, 77, 90
2, 86269, Note_on_c, 0, 68, 0
2, 86277, Note_on_c, 0, 75, 0
2, 86280, Note_on_c, 0, 68, 92
2, 86286, Note_on_c, 0, 75, 101
2, 86369, Note_on_c, 0, 73, 91
2, 86419, Note_on_c, 0, 51, 0
2, 86420, Note_on_c, 0, 60, 0
2, 86420, Note_on_c, 0, 87, 0
2, 86420, Note_on_c, 0, 77, 0
2, 86420, Note_on_c, 0, 63, 0
2, 86420, Note_on_c, 0, 80, 0
2, 86421, Note_on_c, 0, 58, 0
2, 86421, Note_on_c, 0, 75, 0
2, 86421, Note_on_c, 0, 56, 0
2, 86421, Note_on_c, 0, 44, 0
2, 86421, Note_on_c, 0, 84, 0
2, 86421, Note_on_c, 0, 89, 0
2, 86421, Note_on_c, 0, 85, 0
2, 86422, Note_on_c, 0, 82, 0
2, 86422, Control_c, 0, 64, 0
2, 86430, Note_on_c, 0, 78, 0
2, 86438, Note_on_c, 0, 32, 0
2, 86438, Note_on_c, 0, 68, 0
2, 86439, Note_on_c, 0, 78, 105
2, 86448, Note_on_c, 0, 34, 94
2, 86449, Note_on_c, 0, 70, 97
2, 86485, Note_on_c, 0, 34, 0
2, 86492, Note_on_c, 0, 73, 0
2, 86515, Control_c, 0, 64, 127
2, 86603, Note_on_c, 0, 77, 92
2, 86603, Note_on_c, 0, 68, 96
2, 86605, Note_on_c, 0, 46, 90
2, 86653, Note_on_c, 0, 78, 0
2, 86657, Note_on_c, 0, 78, 95
2, 86730, Note_on_c, 0, 77, 0
2, 86741, Note_on_c, 0, 77, 87
2, 86785, Note_on_c, 0, 53, 74
2, 86787, Note_on_c, 0, 73, 89
2, 86952, Note_on_c, 0, 68, 0
2, 86957, Note_on_c, 0, 68, 97
2, 86960, Note_on_c, 0, 61, 91
2, 86961, Note_on_c, 0, 58, 87
2, 86990, Note_on_c, 0, 66, 50
2, 87061, Note_on_c, 0, 46, 0
2, 87061, Note_on_c, 0, 53, 0
2, 87062, Note_on_c, 0, 78, 0
2, 87062, Control_c, 0, 64, 0
2, 87063, Note_on_c, 0, 73, 0
2, 87063, Note_on_c, 0, 66, 0
2, 87063, Note_on_c, 0, 77, 0
2, 87091, Note_on_c, 0, 70, 0
2, 87121, Note_on_c, 0, 46, 93
2, 87160, Control_c, 0, 64, 127
2, 87202, Note_on_c, 0, 53, 72
2, 87298, Note_on_c, 0, 46, 0
2, 87298, Note_on_c, 0, 58, 0
2, 87298, Note_on_c, 0, 68, 0
2, 87302, Note_on_c, 0, 58, 89
2, 87302, Note_on_c, 0, 73, 98
2, 87304, Note_on_c, 0, 68, 74
2, 87304, Note_on_c, 0, 65, 91
2, 87307, Note_on_c, 0, 46, 84
2, 87310, Note_on_c, 0, 70, 81
2, 87388, Note_on_c, 0, 60, 85
2, 87467, Note_on_c, 0, 61, 0
2, 87473, Note_on_c, 0, 61, 80
2, 87505, Note_on_c, 0, 60, 0
2, 87512, Note_on_c, 0, 60, 69
2, 87513, Note_on_c, 0, 58, 0
2, 87524, Note_on_c, 0, 58, 58
2, 87621, Note_on_c, 0, 61, 0
2, 87621, Note_on_c, 0, 73, 0
2, 87631, Note_on_c, 0, 73, 100
2, 87631, Note_on_c, 0, 61, 93
2, 87736, Note_on_c, 0, 68, 0
2, 87741, Note_on_c, 0, 68, 80
2, 87765, Note_on_c, 0, 60, 0
2, 87765, Control_c, 0, 64, 0
2, 87766, Note_on_c, 0, 65, 0
2, 87766, Note_on_c, 0, 53, 0
2, 87767, Note_on_c, 0, 46, 0
2, 87768, Note_on_c, 0, 58, 0
2, 87782, Note_on_c, 0, 61, 0
2, 87782, Note_on_c, 0, 73, 0
2, 87790, Note_on_c, 0, 70, 0
2, 87801, Note_on_c, 0, 75, 104
2, 87803, Note_on_c, 0, 36, 90
2, 87809, Note_on_c, 0, 63, 92
2, 87851, Control_c, 0, 64, 127
2, 87886, Note_on_c, 0, 48, 81
2, 87979, Note_on_c, 0, 73, 96
2, 87981, Note_on_c, 0, 51, 89
2, 87982, Note_on_c, 0, 61, 90
2, 88074, Note_on_c, 0, 68, 0
2, 88085, Note_on_c, 0, 56, 74
2, 88085, Note_on_c, 0, 68, 75
2, 88135, Note_on_c, 0, 75, 0
2, 88140, Note_on_c, 0, 60, 88
2, 88143, Note_on_c, 0, 63, 0
2, 88146, Note_on_c, 0, 75, 107
2, 88146, Note_on_c, 0, 48, 0
2, 88147, Note_on_c, 0, 63, 89
2, 88283, Note_on_c, 0, 36, 0
2, 88284, Note_on_c, 0, 63, 0
2, 88284, Note_on_c, 0, 56, 0
2, 88284, Note_on_c, 0, 51, 0
2, 88284, Note_on_c, 0, 61, 0
2, 88285, Note_on_c, 0, 60, 0
2, 88287, Control_c, 0, 64, 0
2, 88304, Note_on_c, 0, 68, 0
2, 88304, Note_on_c, 0, 73, 0
2, 88304, Note_on_c, 0, 75, 0
2, 88328, Note_on_c, 0, 77, 106
2, 88330, Note_on_c, 0, 37, 95
2, 88331, Note_on_c, 0, 65, 99
2, 88335, Note_on_c, 0, 73, 86
2, 88336, Note_on_c, 0, 68, 97
2, 88381, Control_c, 0, 64, 127
2, 88420, Note_on_c, 0, 44, 78
2, 88471, Note_on_c, 0, 49, 74
2, 88574, Note_on_c, 0, 53, 70
2, 88661, Note_on_c, 0, 61, 85
2, 88729, Note_on_c, 0, 56, 82
2, 88773, Note_on_c, 0, 53, 0
2, 88778, Note_on_c, 0, 53, 84
2, 88888, Note_on_c, 0, 49, 0
2, 88896, Note_on_c, 0, 49, 71
2, 88988, Note_on_c, 0, 37, 0
2, 88995, Note_on_c, 0, 37, 75
2, 89133, Note_on_c, 0, 56, 0
2, 89134, Note_on_c, 0, 49, 0
2, 89134, Control_c, 0, 64, 0
2, 89134, Note_on_c, 0, 68, 0
2, 89134, Note_on_c, 0, 37, 0
2, 89135, Note_on_c, 0, 77, 0
2, 89135, Note_on_c, 0, 44, 0
2, 89135, Note_on_c, 0, 65, 0
2, 89135, Note_on_c, 0, 53, 0
2, 89141, Note_on_c, 0, 73, 0
2, 89157, Note_on_c, 0, 61, 0
2, 89171, Note_on_c, 0, 43, 70
2, 89174, Note_on_c, 0, 58, 85
2, 89269, Note_on_c, 0, 55, 75
2, 89331, Note_on_c, 0, 65, 81
2, 89349, Note_on_c, 0, 43, 0
2, 89353, Note_on_c, 0, 51, 75
2, 89359, Note_on_c, 0, 55, 0
2, 89379, Note_on_c, 0, 58, 0
2, 89451, Note_on_c, 0, 43, 64
2, 89506, Note_on_c, 0, 58, 79
2, 89536, Note_on_c, 0, 55, 77
2, 89594, Note_on_c, 0, 51, 0
2, 89597, Note_on_c, 0, 63, 85
2, 89600, Note_on_c, 0, 51, 77
2, 89601, Note_on_c, 0, 65, 0
2, 89614, Note_on_c, 0, 58, 0
2, 89621, Note_on_c, 0, 55, 0
2, 89640, Note_on_c, 0, 43, 0
2, 89684, Note_on_c, 0, 43, 65
2, 89702, Control_c, 0, 64, 127
2, 89773, Note_on_c, 0, 58, 80
2, 89774, Note_on_c, 0, 55, 79
2, 89821, Control_c, 0, 64, 0
2, 89824, Note_on_c, 0, 55, 0
2, 89829, Note_on_c, 0, 63, 0
2, 89832, Note_on_c, 0, 51, 0
2, 89840, Note_on_c, 0, 43, 0
2, 89848, Note_on_c, 0, 65, 89
2, 89849, Note_on_c, 0, 43, 74
2, 89886, Control_c, 0, 64, 127
2, 89909, Note_on_c, 0, 58, 0
2, 89944, Note_on_c, 0, 55, 83
2, 90020, Note_on_c, 0, 58, 85
2, 90021, Note_on_c, 0, 51, 74
2, 90045, Control_c, 0, 64, 0
2, 90051, Note_on_c, 0, 55, 0
2, 90057, Note_on_c, 0, 65, 0
2, 90077, Note_on_c, 0, 51, 0
2, 90094, Note_on_c, 0, 43, 0
2, 90101, Note_on_c, 0, 43, 74
2, 90111, Note_on_c, 0, 63, 93
2, 90155, Note_on_c, 0, 58, 0
2, 90155, Control_c, 0, 64, 127
2, 90204, Note_on_c, 0, 55, 83
2, 90264, Note_on_c, 0, 51, 73
2, 90264, Note_on_c, 0, 58, 90
2, 90339, Note_on_c, 0, 43, 0
2, 90343, Note_on_c, 0, 43, 76
2, 90347, Note_on_c, 0, 65, 98
2, 90389, Note_on_c, 0, 51, 0
2, 90393, Note_on_c, 0, 55, 0
2, 90396, Control_c, 0, 64, 0
2, 90397, Note_on_c, 0, 58, 0
2, 90397, Note_on_c, 0, 43, 0
2, 90405, Note_on_c, 0, 65, 0
2, 90408, Note_on_c, 0, 63, 0
2, 90478, Control_c, 0, 64, 127
2, 90514, Note_on_c, 0, 30, 93
2, 90519, Note_on_c, 0, 70, 106
2, 90526, Note_on_c, 0, 58, 97
2, 90689, Note_on_c, 0, 76, 102
2, 90694, Note_on_c, 0, 64, 100
2, 90787, Note_on_c, 0, 54, 80
2, 90794, Note_on_c, 0, 51, 57
2, 90846, Note_on_c, 0, 58, 0
2, 90846, Note_on_c, 0, 64, 0
2, 90846, Note_on_c, 0, 70, 0
2, 90850, Note_on_c, 0, 42, 95
2, 90851, Note_on_c, 0, 70, 99
2, 90852, Note_on_c, 0, 64, 83
2, 90855, Note_on_c, 0, 58, 94
2, 90931, Note_on_c, 0, 42, 0
2, 90940, Note_on_c, 0, 42, 93
2, 90942, Note_on_c, 0, 75, 103
2, 90943, Note_on_c, 0, 63, 98
2, 91100, Note_on_c, 0, 42, 0
2, 91100, Note_on_c, 0, 70, 0
2, 91104, Note_on_c, 0, 42, 81
2, 91108, Note_on_c, 0, 70, 93
2, 91199, Note_on_c, 0, 77, 102
2, 91200, Note_on_c, 0, 65, 100
2, 91261, Note_on_c, 0, 51, 0
2, 91269, Note_on_c, 0, 54, 0
2, 91271, Note_on_c, 0, 51, 86
2, 91273, Note_on_c, 0, 54, 78
2, 91330, Note_on_c, 0, 42, 0
2, 91334, Note_on_c, 0, 42, 80
2, 91353, Note_on_c, 0, 58, 0
2, 91358, Note_on_c, 0, 58, 67
2, 91365, Note_on_c, 0, 68, 96
2, 91445, Note_on_c, 0, 30, 0
2, 91445, Note_on_c, 0, 42, 0
2, 91445, Note_on_c, 0, 63, 0
2, 91445, Note_on_c, 0, 75, 0
2, 91451, Note_on_c, 0, 42, 92
2, 91451, Note_on_c, 0, 75, 112
2, 91453, Note_on_c, 0, 63, 99
2, 91454, Note_on_c, 0, 30, 86
2, 91537, Note_on_c, 0, 30, 0
2, 91547, Note_on_c, 0, 30, 66
2, 91591, Note_on_c, 0, 70, 0
2, 91597, Note_on_c, 0, 70, 104
2, 91607, Note_on_c, 0, 58, 0
2, 91615, Note_on_c, 0, 58, 83
2, 91706, Note_on_c, 0, 42, 0
2, 91706, Note_on_c, 0, 65, 0
2, 91706, Note_on_c, 0, 77, 0
2, 91712, Note_on_c, 0, 42, 83
2, 91714, Note_on_c, 0, 41, 78
2, 91714, Note_on_c, 0, 77, 103
2, 91715, Note_on_c, 0, 65, 107
2, 91806, Note_on_c, 0, 41, 0
2, 91818, Control_c, 0, 64, 0
2, 91818, Note_on_c, 0, 63, 0
2, 91818, Note_on_c, 0, 30, 0
2, 91818, Note_on_c, 0, 64, 0
2, 91818, Note_on_c, 0, 51, 0
2, 91818, Note_on_c, 0, 65, 0
2, 91818, Note_on_c, 0, 75, 0
2, 91819, Note_on_c, 0, 76, 0
2, 91819, Note_on_c, 0, 54, 0
2, 91819, Note_on_c, 0, 42, 0
2, 91819, Note_on_c, 0, 68, 0
2, 91819, Note_on_c, 0, 70, 0
2, 91819, Note_on_c, 0, 58, 0
2, 91819, Note_on_c, 0, 77, 0
2, 91874, Note_on_c, 0, 29, 92
2, 91878, Note_on_c, 0, 77, 105
2, 91879, Note_on_c, 0, 65, 105
2, 91882, Note_on_c, 0, 69, 101
2, 91883, Note_on_c, 0, 75, 100
2, 91898, Control_c, 0, 64, 127
2, 92040, Note_on_c, 0, 41, 82
2, 92047, Note_on_c, 0, 78, 104
2, 92067, Note_on_c, 0, 69, 0
2, 92072, Note_on_c, 0, 69, 73
2, 92113, Note_on_c, 0, 41, 0
2, 92121, Note_on_c, 0, 41, 52
2, 92213, Note_on_c, 0, 69, 0
2, 92213, Note_on_c, 0, 77, 0
2, 92220, Note_on_c, 0, 77, 98
2, 92224, Note_on_c, 0, 53, 81
2, 92224, Note_on_c, 0, 69, 85
2, 92225, Note_on_c, 0, 52, 83
2, 92313, Note_on_c, 0, 69, 0
2, 92323, Note_on_c, 0, 69, 64
2, 92367, Note_on_c, 0, 41, 0
2, 92377, Note_on_c, 0, 63, 100
2, 92378, Note_on_c, 0, 41, 81
2, 92390, Note_on_c, 0, 65, 0
2, 92394, Note_on_c, 0, 65, 93
2, 92398, Note_on_c, 0, 69, 0
2, 92399, Note_on_c, 0, 73, 101
2, 92406, Note_on_c, 0, 69, 87
2, 92446, Note_on_c, 0, 49, 41
2, 92451, Note_on_c, 0, 49, 0
2, 92460, Note_on_c, 0, 57, 85
2, 92544, Note_on_c, 0, 41, 0
2, 92544, Note_on_c, 0, 69, 0
2, 92548, Note_on_c, 0, 41, 65
2, 92551, Note_on_c, 0, 57, 0
2, 92554, Note_on_c, 0, 69, 75
2, 92557, Note_on_c, 0, 57, 59
2, 92620, Note_on_c, 0, 53, 0
2, 92625, Note_on_c, 0, 53, 82
2, 92628, Note_on_c, 0, 69, 0
2, 92632, Note_on_c, 0, 69, 70
2, 92705, Note_on_c, 0, 53, 0
2, 92705, Note_on_c, 0, 57, 0
2, 92705, Note_on_c, 0, 75, 0
2, 92709, Note_on_c, 0, 53, 83
2, 92712, Note_on_c, 0, 63, 0
2, 92715, Note_on_c, 0, 75, 105
2, 92716, Note_on_c, 0, 57, 71
2, 92720, Note_on_c, 0, 69, 0
2, 92722, Note_on_c, 0, 63, 89
2, 92731, Note_on_c, 0, 69, 66
2, 92814, Note_on_c, 0, 47, 71
2, 92881, Note_on_c, 0, 73, 0
2, 92882, Note_on_c, 0, 48, 83
2, 92888, Note_on_c, 0, 73, 100
2, 92889, Note_on_c, 0, 69, 0
2, 92890, Note_on_c, 0, 61, 97
2, 92894, Note_on_c, 0, 69, 73
2, 92997, Note_on_c, 0, 41, 0
2, 93003, Note_on_c, 0, 41, 78
2, 93058, Note_on_c, 0, 65, 0
2, 93058, Note_on_c, 0, 72, 103
2, 93068, Note_on_c, 0, 60, 97
2, 93068, Note_on_c, 0, 65, 87
2, 93070, Note_on_c, 0, 70, 94
2, 93200, Note_on_c, 0, 69, 0
2, 93201, Note_on_c, 0, 48, 0
2, 93201, Note_on_c, 0, 63, 0
2, 93201, Note_on_c, 0, 75, 0
2, 93201, Note_on_c, 0, 65, 0
2, 93201, Note_on_c, 0, 61, 0
2, 93201, Note_on_c, 0, 57, 0
2, 93201, Note_on_c, 0, 60, 0
2, 93201, Note_on_c, 0, 53, 0
2, 93201, Note_on_c, 0, 52, 0
2, 93202, Note_on_c, 0, 73, 0
2, 93202, Note_on_c, 0, 72, 0
2, 93202, Note_on_c, 0, 47, 0
2, 93202, Control_c, 0, 64, 0
2, 93202, Note_on_c, 0, 78, 0
2, 93202, Note_on_c, 0, 77, 0
2, 93203, Note_on_c, 0, 70, 0
2, 93212, Note_on_c, 0, 29, 0
2, 93212, Note_on_c, 0, 41, 0
2, 93221, Note_on_c, 0, 34, 96
2, 93222, Note_on_c, 0, 41, 80
2, 93223, Note_on_c, 0, 29, 83
2, 93250, Note_on_c, 0, 41, 0
2, 93281, Control_c, 0, 64, 127
2, 93322, Note_on_c, 0, 41, 54
2, 93323, Note_on_c, 0, 48, 70
2, 93327, Note_on_c, 0, 48, 0
2, 93364, Note_on_c, 0, 46, 91
2, 93408, Note_on_c, 0, 73, 88
2, 93472, Note_on_c, 0, 48, 75
2, 93559, Note_on_c, 0, 49, 76
2, 93576, Note_on_c, 0, 72, 100
2, 93624, Note_on_c, 0, 53, 77
2, 93734, Note_on_c, 0, 73, 0
2, 93737, Note_on_c, 0, 58, 95
2, 93739, Note_on_c, 0, 65, 61
2, 93742, Note_on_c, 0, 73, 108
2, 93748, Note_on_c, 0, 70, 87
2, 94064, Note_on_c, 0, 65, 0
2, 94064, Note_on_c, 0, 70, 0
2, 94064, Note_on_c, 0, 73, 0
2, 94067, Note_on_c, 0, 82, 107
2, 94069, Note_on_c, 0, 77, 102
2, 94071, Note_on_c, 0, 70, 103
2, 94071, Note_on_c, 0, 73, 104
2, 94074, Note_on_c, 0, 65, 97
2, 94076, Note_on_c, 0, 61, 91
2, 94080, Note_on_c, 0, 29, 0
2, 94241, Note_on_c, 0, 58, 0
2, 94241, Note_on_c, 0, 70, 0
2, 94245, Note_on_c, 0, 70, 84
2, 94247, Note_on_c, 0, 58, 84
2, 94318, Note_on_c, 0, 82, 0
2, 94325, Note_on_c, 0, 70, 0
2, 94325, Note_on_c, 0, 73, 0
2, 94325, Note_on_c, 0, 77, 0
2, 94329, Note_on_c, 0, 82, 106
2, 94333, Note_on_c, 0, 70, 103
2, 94333, Note_on_c, 0, 61, 0
2, 94333, Note_on_c, 0, 65, 0
2, 94335, Note_on_c, 0, 77, 94
2, 94335, Note_on_c, 0, 73, 96
2, 94337, Note_on_c, 0, 65, 89
2, 94338, Note_on_c, 0, 61, 86
2, 94417, Note_on_c, 0, 58, 0
2, 94424, Note_on_c, 0, 58, 93
2, 94540, Note_on_c, 0, 34, 0
2, 94546, Note_on_c, 0, 41, 0
2, 94547, Note_on_c, 0, 48, 0
2, 94547, Control_c, 0, 64, 0
2, 94547, Note_on_c, 0, 49, 0
2, 94547, Note_on_c, 0, 58, 0
2, 94548, Note_on_c, 0, 65, 0
2, 94549, Note_on_c, 0, 72, 0
2, 94549, Note_on_c, 0, 61, 0
2, 94550, Note_on_c, 0, 77, 0
2, 94563, Note_on_c, 0, 46, 0
2, 94563, Note_on_c, 0, 53, 0
2, 94571, Note_on_c, 0, 73, 0
2, 94571, Note_on_c, 0, 82, 0
2, 94579, Note_on_c, 0, 70, 0
2, 94581, Note_on_c, 0, 82, 107
2, 94581, Note_on_c, 0, 73, 99
2, 94583, Note_on_c, 0, 70, 102
2, 94583, Note_on_c, 0, 39, 94
2, 94585, Note_on_c, 0, 51, 97
2, 94585, Note_on_c, 0, 78, 96
2, 94589, Note_on_c, 0, 46, 89
2, 94617, Control_c, 0, 64, 127
2, 94755, Note_on_c, 0, 51, 0
2, 94763, Note_on_c, 0, 63, 83
2, 94763, Note_on_c, 0, 51, 71
2, 94767, Note_on_c, 0, 58, 81
2, 94812, Note_on_c, 0, 54, 81
2, 94854, Note_on_c, 0, 66, 88
2, 94894, Note_on_c, 0, 51, 0
2, 94905, Note_on_c, 0, 51, 77
2, 94932, Note_on_c, 0, 70, 0
2, 94938, Note_on_c, 0, 70, 86
2, 94955, Note_on_c, 0, 46, 0
2, 94964, Note_on_c, 0, 46, 81
2, 94995, Note_on_c, 0, 75, 89
2, 95073, Note_on_c, 0, 46, 0
2, 95073, Note_on_c, 0, 54, 0
2, 95073, Note_on_c, 0, 51, 0
2, 95074, Note_on_c, 0, 70, 0
2, 95074, Note_on_c, 0, 58, 0
2, 95074, Note_on_c, 0, 63, 0
2, 95074, Note_on_c, 0, 73, 0
2, 95074, Note_on_c, 0, 75, 0
2, 95074, Note_on_c, 0, 82, 0
2, 95074, Note_on_c, 0, 66, 0
2, 95074, Control_c, 0, 64, 0
2, 95074, Note_on_c, 0, 78, 0
2, 95086, Note_on_c, 0, 39, 0
2, 95104, Note_on_c, 0, 80, 107
2, 95108, Note_on_c, 0, 49, 92
2, 95110, Note_on_c, 0, 53, 93
2, 95112, Note_on_c, 0, 68, 104
2, 95114, Note_on_c, 0, 77, 89
2, 95116, Note_on_c, 0, 41, 84
2, 95119, Note_on_c, 0, 73, 85
2, 95147, Control_c, 0, 64, 127
2, 95262, Note_on_c, 0, 53, 0
2, 95270, Note_on_c, 0, 41, 0
2, 95272, Note_on_c, 0, 53, 82
2, 95278, Note_on_c, 0, 41, 69
2, 95347, Note_on_c, 0, 68, 0
2, 95356, Note_on_c, 0, 68, 85
2, 95357, Note_on_c, 0, 56, 87
2, 95447, Note_on_c, 0, 53, 0
2, 95447, Note_on_c, 0, 68, 0
2, 95447, Note_on_c, 0, 80, 0
2, 95452, Note_on_c, 0, 65, 84
2, 95454, Note_on_c, 0, 68, 97
2, 95455, Note_on_c, 0, 80, 90
2, 95457, Note_on_c, 0, 53, 73
2, 95485, Note_on_c, 0, 49, 0
2, 95489, Note_on_c, 0, 49, 71
2, 95492, Note_on_c, 0, 61, 74
2, 95539, Note_on_c, 0, 56, 0
2, 95546, Note_on_c, 0, 56, 88
2, 95628, Note_on_c, 0, 82, 102
2, 95631, Note_on_c, 0, 53, 0
2, 95634, Note_on_c, 0, 70, 96
2, 95642, Note_on_c, 0, 53, 80
2, 95715, Note_on_c, 0, 49, 0
2, 95725, Note_on_c, 0, 49, 67
2, 95761, Note_on_c, 0, 41, 0
2, 95767, Note_on_c, 0, 41, 60
2, 95769, Note_on_c, 0, 49, 0
2, 95780, Note_on_c, 0, 49, 83
2, 95800, Note_on_c, 0, 73, 0
2, 95804, Note_on_c, 0, 85, 111
2, 95811, Note_on_c, 0, 78, 104
2, 95811, Note_on_c, 0, 73, 102
2, 95815, Note_on_c, 0, 82, 0
2, 95823, Note_on_c, 0, 82, 93
2, 95826, Note_on_c, 0, 75, 85
2, 95880, Control_c, 0, 64, 0
2, 95881, Note_on_c, 0, 65, 0
2, 95882, Note_on_c, 0, 53, 0
2, 95882, Note_on_c, 0, 56, 0
2, 95882, Note_on_c, 0, 49, 0
2, 95882, Note_on_c, 0, 80, 0
2, 95882, Note_on_c, 0, 68, 0
2, 95882, Note_on_c, 0, 61, 0
2, 95883, Note_on_c, 0, 77, 0
2, 95883, Note_on_c, 0, 70, 0
2, 95885, Note_on_c, 0, 41, 0
2, 95938, Control_c, 0, 64, 127
2, 95953, Note_on_c, 0, 54, 95
2, 95962, Note_on_c, 0, 49, 83
2, 95963, Note_on_c, 0, 42, 94
2, 95964, Note_on_c, 0, 30, 88
2, 96130, Note_on_c, 0, 54, 0
2, 96133, Note_on_c, 0, 61, 89
2, 96134, Note_on_c, 0, 66, 97
2, 96134, Note_on_c, 0, 54, 80
2, 96185, Note_on_c, 0, 58, 64
2, 96218, Note_on_c, 0, 70, 91
2, 96299, Note_on_c, 0, 73, 0
2, 96304, Note_on_c, 0, 73, 83
2, 96314, Note_on_c, 0, 49, 0
2, 96325, Note_on_c, 0, 54, 0
2, 96326, Note_on_c, 0, 49, 75
2, 96345, Note_on_c, 0, 78, 0
2, 96351, Note_on_c, 0, 78, 95
2, 96360, Note_on_c, 0, 30, 0
2, 96434, Note_on_c, 0, 73, 0
2, 96434, Note_on_c, 0, 61, 0
2, 96434, Note_on_c, 0, 70, 0
2, 96434, Note_on_c, 0, 66, 0
2, 96434, Note_on_c, 0, 58, 0
2, 96434, Note_on_c, 0, 49, 0
2, 96434, Note_on_c, 0, 78, 0
2, 96435, Control_c, 0, 64, 0
2, 96445, Note_on_c, 0, 75, 0
2, 96453, Note_on_c, 0, 42, 0
2, 96453, Note_on_c, 0, 82, 0
2, 96453, Note_on_c, 0, 85, 0
2, 96466, Note_on_c, 0, 87, 109
2, 96470, Note_on_c, 0, 51, 103
2, 96470, Note_on_c, 0, 75, 106
2, 96471, Note_on_c, 0, 79, 106
2, 96471, Note_on_c, 0, 63, 100
2, 96473, Note_on_c, 0, 55, 99
2, 96473, Note_on_c, 0, 82, 97
2, 96499, Control_c, 0, 64, 127
2, 96629, Note_on_c, 0, 55, 0
2, 96639, Note_on_c, 0, 55, 91
2, 96732, Note_on_c, 0, 58, 83
2, 96809, Note_on_c, 0, 67, 91
2, 96809, Note_on_c, 0, 85, 103
2, 96813, Note_on_c, 0, 73, 96
2, 96844, Note_on_c, 0, 63, 0
2, 96854, Note_on_c, 0, 63, 77
2, 96906, Note_on_c, 0, 58, 0
2, 96914, Note_on_c, 0, 58, 81
2, 96975, Note_on_c, 0, 87, 0
2, 96983, Note_on_c, 0, 75, 0
2, 96984, Note_on_c, 0, 87, 108
2, 96990, Note_on_c, 0, 75, 97
2, 96990, Note_on_c, 0, 55, 0
2, 97000, Note_on_c, 0, 55, 90
2, 97059, Note_on_c, 0, 51, 0
2, 97069, Note_on_c, 0, 51, 96
2, 97144, Note_on_c, 0, 82, 0
2, 97144, Note_on_c, 0, 85, 0
2, 97144, Note_on_c, 0, 87, 0
2, 97145, Note_on_c, 0, 43, 88
2, 97148, Note_on_c, 0, 94, 112
2, 97154, Note_on_c, 0, 85, 102
2, 97155, Note_on_c, 0, 82, 104
2, 97155, Note_on_c, 0, 87, 95
2, 97218, Note_on_c, 0, 58, 0
2, 97218, Note_on_c, 0, 79, 0
2, 97218, Note_on_c, 0, 73, 0
2, 97218, Note_on_c, 0, 55, 0
2, 97218, Note_on_c, 0, 51, 0
2, 97218, Note_on_c, 0, 63, 0
2, 97218, Note_on_c, 0, 43, 0
2, 97218, Note_on_c, 0, 75, 0
2, 97218, Note_on_c, 0, 67, 0
2, 97220, Control_c, 0, 64, 0
2, 97303, Note_on_c, 0, 44, 100
2, 97306, Note_on_c, 0, 32, 92
2, 97313, Control_c, 0, 64, 127
2, 97471, Note_on_c, 0, 84, 101
2, 97474, Note_on_c, 0, 32, 0
2, 97474, Note_on_c, 0, 44, 0
2, 97474, Note_on_c, 0, 87, 0
2, 97475, Note_on_c, 0, 92, 104
2, 97478, Note_on_c, 0, 87, 93
2, 97480, Note_on_c, 0, 44, 101
2, 97485, Note_on_c, 0, 32, 86
2, 97551, Note_on_c, 0, 94, 0
2, 97557, Note_on_c, 0, 94, 106
2, 97640, Note_on_c, 0, 90, 105
2, 97640, Note_on_c, 0, 51, 95
2, 97643, Note_on_c, 0, 82, 0
2, 97647, Note_on_c, 0, 82, 100
2, 97712, Note_on_c, 0, 92, 0
2, 97724, Note_on_c, 0, 92, 98
2, 97800, Note_on_c, 0, 89, 94
2, 97806, Note_on_c, 0, 68, 93
2, 97814, Note_on_c, 0, 80, 92
2, 97873, Note_on_c, 0, 90, 0
2, 97878, Note_on_c, 0, 90, 101
2, 97966, Note_on_c, 0, 87, 0
2, 97971, Note_on_c, 0, 87, 100
2, 97973, Note_on_c, 0, 78, 104
2, 97976, Note_on_c, 0, 58, 84
2, 98042, Note_on_c, 0, 89, 0
2, 98054, Note_on_c, 0, 89, 103
2, 98135, Note_on_c, 0, 85, 0
2, 98139, Note_on_c, 0, 85, 101
2, 98143, Note_on_c, 0, 77, 95
2, 98146, Note_on_c, 0, 60, 83
2, 98219, Note_on_c, 0, 87, 0
2, 98224, Note_on_c, 0, 87, 93
2, 98288, Note_on_c, 0, 84, 0
2, 98297, Note_on_c, 0, 84, 103
2, 98299, Note_on_c, 0, 75, 107
2, 98306, Note_on_c, 0, 66, 81
2, 98307, Note_on_c, 0, 58, 0
2, 98308, Note_on_c, 0, 51, 0
2, 98312, Note_on_c, 0, 63, 88
2, 98380, Note_on_c, 0, 85, 0
2, 98388, Note_on_c, 0, 85, 98
2, 98449, Note_on_c, 0, 68, 0
2, 98457, Note_on_c, 0, 84, 0
2, 98460, Note_on_c, 0, 68, 89
2, 98464, Note_on_c, 0, 84, 102
2, 98526, Note_on_c, 0, 85, 0
2, 98532, Note_on_c, 0, 85, 97
2, 98578, Control_c, 0, 64, 0
2, 98579, Note_on_c, 0, 78, 0
2, 98579, Note_on_c, 0, 77, 0
2, 98579, Note_on_c, 0, 80, 0
2, 98579, Note_on_c, 0, 60, 0
2, 98580, Note_on_c, 0, 82, 0
2, 98580, Note_on_c, 0, 68, 0
2, 98581, Note_on_c, 0, 84, 0
2, 98581, Note_on_c, 0, 63, 0
2, 98581, Note_on_c, 0, 32, 0
2, 98581, Note_on_c, 0, 90, 0
2, 98581, Note_on_c, 0, 44, 0
2, 98582, Note_on_c, 0, 89, 0
2, 98582, Note_on_c, 0, 94, 0
2, 98582, Note_on_c, 0, 85, 0
2, 98595, Note_on_c, 0, 92, 0
2, 98603, Note_on_c, 0, 66, 0
2, 98603, Note_on_c, 0, 87, 0
2, 98611, Note_on_c, 0, 75, 0
2, 98614, Note_on_c, 0, 53, 99
2, 98615, Note_on_c, 0, 41, 90
2, 98615, Note_on_c, 0, 87, 109
2, 98616, Note_on_c, 0, 75, 107
2, 98657, Control_c, 0, 64, 127
2, 98787, Note_on_c, 0, 87, 0
2, 98792, Note_on_c, 0, 87, 106
2, 98794, Note_on_c, 0, 84, 101
2, 98795, Note_on_c, 0, 78, 103
2, 98807, Note_on_c, 0, 66, 100
2, 98808, Note_on_c, 0, 60, 84
2, 98811, Note_on_c, 0, 57, 78
2, 98956, Note_on_c, 0, 53, 0
2, 98961, Note_on_c, 0, 53, 78
2, 99133, Note_on_c, 0, 53, 0
2, 99137, Note_on_c, 0, 89, 108
2, 99139, Note_on_c, 0, 65, 93
2, 99139, Note_on_c, 0, 69, 92
2, 99141, Note_on_c, 0, 57, 0
2, 99141, Note_on_c, 0, 60, 0
2, 99141, Note_on_c, 0, 84, 0
2, 99143, Note_on_c, 0, 53, 82
2, 99144, Note_on_c, 0, 77, 97
2, 99145, Note_on_c, 0, 84, 93
2, 99145, Note_on_c, 0, 81, 92
2, 99146, Note_on_c, 0, 60, 77
2, 99146, Note_on_c, 0, 57, 77
2, 99152, Control_c, 0, 64, 0
2, 99153, Note_on_c, 0, 87, 0
2, 99153, Note_on_c, 0, 78, 0
2, 99155, Note_on_c, 0, 75, 0
2, 99155, Note_on_c, 0, 66, 0
2, 99156, Note_on_c, 0, 41, 0
2, 99164, Note_on_c, 0, 69, 0
2, 99248, Control_c, 0, 64, 127
2, 99478, Note_on_c, 0, 63, 75
2, 99649, Note_on_c, 0, 61, 69
2, 99793, Note_on_c, 0, 60, 0
2, 99798, Note_on_c, 0, 60, 77
2, 99970, Note_on_c, 0, 77, 0
2, 99981, Note_on_c, 0, 77, 89
2, 99993, Note_on_c, 0, 65, 0
2, 100001, Note_on_c, 0, 61, 0
2, 100003, Note_on_c, 0, 63, 0
2, 100004, Control_c, 0, 64, 0
2, 100004, Note_on_c, 0, 60, 0
2, 100004, Note_on_c, 0, 89, 0
2, 100005, Note_on_c, 0, 65, 70
2, 100006, Note_on_c, 0, 46, 70
2, 100007, Note_on_c, 0, 61, 67
2, 100008, Note_on_c, 0, 81, 0
2, 100009, Note_on_c, 0, 70, 64
2, 100016, Note_on_c, 0, 57, 0
2, 100016, Note_on_c, 0, 84, 0
2, 100024, Note_on_c, 0, 53, 0
2, 100085, Control_c, 0, 64, 127
2, 100167, Note_on_c, 0, 53, 51
2, 100167, Note_on_c, 0, 73, 78
2, 100300, Note_on_c, 0, 61, 0
2, 100304, Note_on_c, 0, 61, 64
2, 100310, Note_on_c, 0, 58, 54
2, 100316, Note_on_c, 0, 77, 0
2, 100321, Note_on_c, 0, 77, 79
2, 100458, Note_on_c, 0, 44, 73
2, 100469, Note_on_c, 0, 53, 0
2, 100469, Control_c, 0, 64, 0
2, 100471, Note_on_c, 0, 70, 0
2, 100471, Note_on_c, 0, 58, 0
2, 100471, Note_on_c, 0, 61, 0
2, 100472, Note_on_c, 0, 73, 0
2, 100472, Note_on_c, 0, 77, 0
2, 100492, Note_on_c, 0, 46, 0
2, 100492, Note_on_c, 0, 65, 0
2, 100506, Note_on_c, 0, 75, 94
2, 100520, Note_on_c, 0, 63, 67
2, 100527, Note_on_c, 0, 68, 78
2, 100542, Note_on_c, 0, 60, 73
2, 100569, Control_c, 0, 64, 127
2, 100820, Note_on_c, 0, 73, 77
2, 100823, Note_on_c, 0, 60, 0
2, 100826, Note_on_c, 0, 51, 59
2, 100834, Note_on_c, 0, 60, 54
2, 100984, Note_on_c, 0, 60, 0
2, 100988, Note_on_c, 0, 60, 65
2, 100989, Note_on_c, 0, 72, 81
2, 101156, Note_on_c, 0, 63, 0
2, 101156, Note_on_c, 0, 51, 0
2, 101156, Note_on_c, 0, 68, 0
2, 101156, Note_on_c, 0, 60, 0
2, 101157, Note_on_c, 0, 44, 0
2, 101157, Note_on_c, 0, 75, 0
2, 101157, Note_on_c, 0, 72, 0
2, 101158, Control_c, 0, 64, 0
2, 101168, Note_on_c, 0, 73, 0
2, 101173, Note_on_c, 0, 73, 87
2, 101181, Note_on_c, 0, 42, 58
2, 101182, Note_on_c, 0, 70, 57
2, 101183, Note_on_c, 0, 61, 71
2, 101186, Note_on_c, 0, 66, 71
2, 101187, Note_on_c, 0, 58, 62
2, 101291, Control_c, 0, 64, 127
2, 101502, Note_on_c, 0, 49, 57
2, 101503, Note_on_c, 0, 72, 80
2, 101644, Note_on_c, 0, 58, 0
2, 101652, Note_on_c, 0, 58, 63
2, 101667, Note_on_c, 0, 70, 0
2, 101678, Note_on_c, 0, 70, 77
2, 101810, Control_c, 0, 64, 0
2, 101811, Note_on_c, 0, 42, 0
2, 101812, Note_on_c, 0, 61, 0
2, 101813, Note_on_c, 0, 72, 0
2, 101814, Note_on_c, 0, 49, 0
2, 101814, Note_on_c, 0, 73, 0
2, 101814, Note_on_c, 0, 66, 0
2, 101814, Note_on_c, 0, 70, 0
2, 101816, Note_on_c, 0, 41, 58
2, 101821, Note_on_c, 0, 58, 0
2, 101831, Note_on_c, 0, 48, 49
2, 101836, Note_on_c, 0, 48, 0
2, 101858, Note_on_c, 0, 72, 86
2, 101867, Note_on_c, 0, 56, 72
2, 101871, Note_on_c, 0, 68, 80
2, 101878, Note_on_c, 0, 63, 61
2, 101936, Control_c, 0, 64, 127
2, 102183, Note_on_c, 0, 70, 74
2, 102192, Note_on_c, 0, 48, 59
2, 102336, Note_on_c, 0, 56, 0
2, 102336, Note_on_c, 0, 68, 0
2, 102345, Note_on_c, 0, 68, 75
2, 102346, Note_on_c, 0, 56, 58
2, 102497, Note_on_c, 0, 68, 0
2, 102501, Note_on_c, 0, 68, 76
2, 102589, Note_on_c, 0, 68, 0
2, 102599, Note_on_c, 0, 68, 76
2, 102658, Note_on_c, 0, 56, 0
2, 102658, Note_on_c, 0, 70, 0
2, 102659, Note_on_c, 0, 63, 0
2, 102659, Note_on_c, 0, 48, 0
2, 102660, Note_on_c, 0, 68, 0
2, 102661, Note_on_c, 0, 72, 0
2, 102662, Control_c, 0, 64, 0
2, 102666, Note_on_c, 0, 41, 0
2, 102669, Note_on_c, 0, 70, 77
2, 102677, Note_on_c, 0, 61, 70
2, 102684, Note_on_c, 0, 39, 54
2, 102685, Note_on_c, 0, 66, 64
2, 102691, Note_on_c, 0, 54, 59
2, 102758, Control_c, 0, 64, 127
2, 102840, Note_on_c, 0, 68, 78
2, 102855, Note_on_c, 0, 46, 50
2, 103011, Note_on_c, 0, 54, 0
2, 103011, Note_on_c, 0, 70, 0
2, 103018, Note_on_c, 0, 70, 79
2, 103022, Note_on_c, 0, 54, 62
2, 103184, Note_on_c, 0, 66, 0
2, 103185, Note_on_c, 0, 46, 0
2, 103185, Note_on_c, 0, 39, 0
2, 103185, Control_c, 0, 64, 0
2, 103186, Note_on_c, 0, 70, 0
2, 103186, Note_on_c, 0, 54, 0
2, 103187, Note_on_c, 0, 61, 0
2, 103188, Note_on_c, 0, 72, 81
2, 103203, Note_on_c, 0, 68, 0
2, 103208, Note_on_c, 0, 63, 60
2, 103209, Note_on_c, 0, 68, 67
2, 103210, Note_on_c, 0, 41, 59
2, 103334, Control_c, 0, 64, 127
2, 103529, Note_on_c, 0, 70, 75
2, 103529, Note_on_c, 0, 48, 58
2, 103695, Note_on_c, 0, 72, 0
2, 103703, Note_on_c, 0, 68, 0
2, 103705, Note_on_c, 0, 72, 75
2, 103705, Note_on_c, 0, 56, 62
2, 103711, Note_on_c, 0, 68, 63
2, 103875, Note_on_c, 0, 41, 0
2, 103876, Note_on_c, 0, 74, 80
2, 103876, Note_on_c, 0, 56, 0
2, 103876, Note_on_c, 0, 48, 0
2, 103877, Note_on_c, 0, 63, 0
2, 103877, Control_c, 0, 64, 0
2, 103877, Note_on_c, 0, 68, 0
2, 103878, Note_on_c, 0, 72, 0
2, 103895, Note_on_c, 0, 70, 0
2, 103903, Note_on_c, 0, 70, 69
2, 103905, Note_on_c, 0, 46, 67
2, 104002, Control_c, 0, 64, 127
2, 104174, Note_on_c, 0, 53, 63
2, 104294, Note_on_c, 0, 58, 67
2, 104317, Note_on_c, 0, 46, 0
2, 104322, Note_on_c, 0, 60, 64
2, 104324, Note_on_c, 0, 46, 52
2, 104421, Note_on_c, 0, 62, 74
2, 104501, Note_on_c, 0, 60, 0
2, 104507, Note_on_c, 0, 60, 77
2, 104570, Note_on_c, 0, 62, 0
2, 104582, Note_on_c, 0, 62, 68
2, 104673, Note_on_c, 0, 65, 76
2, 104747, Note_on_c, 0, 70, 0
2, 104752, Note_on_c, 0, 70, 71
2, 104839, Note_on_c, 0, 65, 0
2, 104845, Note_on_c, 0, 65, 70
2, 104916, Note_on_c, 0, 70, 0
2, 104921, Note_on_c, 0, 70, 69
2, 105016, Note_on_c, 0, 72, 63
2, 105093, Note_on_c, 0, 74, 0
2, 105098, Note_on_c, 0, 74, 63
2, 105208, Note_on_c, 0, 72, 0
2, 105213, Note_on_c, 0, 72, 76
2, 105315, Note_on_c, 0, 74, 0
2, 105325, Note_on_c, 0, 74, 75
2, 105453, Note_on_c, 0, 77, 64
2, 105643, Note_on_c, 0, 82, 64
2, 108469, Note_on_c, 0, 68, 59
2, 108670, Note_on_c, 0, 80, 68
2, 108779, Note_on_c, 0, 53, 0
2, 108853, Note_on_c, 0, 78, 71
2, 108902, Note_on_c, 0, 58, 0
2, 108933, Note_on_c, 0, 46, 0
2, 109026, Note_on_c, 0, 66, 57
2, 109106, Control_c, 0, 64, 0
2, 109106, Note_on_c, 0, 73, 53
2, 109106, Note_on_c, 0, 42, 50
2, 109110, Note_on_c, 0, 82, 0
2, 109110, Note_on_c, 0, 74, 0
2, 109111, Note_on_c, 0, 80, 0
2, 109112, Note_on_c, 0, 68, 0
2, 109112, Note_on_c, 0, 65, 0
2, 109112, Note_on_c, 0, 72, 0
2, 109112, Note_on_c, 0, 62, 0
2, 109113, Note_on_c, 0, 60, 0
2, 109114, Note_on_c, 0, 78, 0
2, 109117, Note_on_c, 0, 70, 0
2, 109117, Note_on_c, 0, 77, 0
2, 109126, Note_on_c, 0, 70, 52
2, 109128, Note_on_c, 0, 77, 76
2, 109209, Control_c, 0, 64, 127
2, 109304, Note_on_c, 0, 49, 49
2, 109479, Note_on_c, 0, 56, 62
2, 109486, Note_on_c, 0, 70, 0
2, 109663, Note_on_c, 0, 58, 60
2, 109824, Note_on_c, 0, 77, 0
2, 109830, Note_on_c, 0, 77, 77
2, 110012, Note_on_c, 0, 78, 83
2, 110353, Note_on_c, 0, 77, 0
2, 110359, Note_on_c, 0, 77, 80
2, 110385, Note_on_c, 0, 68, 65
2, 110492, Note_on_c, 0, 73, 0
2, 110495, Note_on_c, 0, 49, 0
2, 110495, Control_c, 0, 64, 0
2, 110495, Note_on_c, 0, 56, 0
2, 110495, Note_on_c, 0, 58, 0
2, 110496, Note_on_c, 0, 78, 0
2, 110496, Note_on_c, 0, 66, 0
2, 110522, Note_on_c, 0, 42, 0
2, 110538, Note_on_c, 0, 44, 54
2, 110661, Control_c, 0, 64, 127
2, 110718, Note_on_c, 0, 51, 57
2, 110720, Note_on_c, 0, 75, 79
2, 110725, Note_on_c, 0, 66, 64
2, 110892, Note_on_c, 0, 58, 63
2, 111063, Note_on_c, 0, 73, 80
2, 111077, Note_on_c, 0, 60, 61
2, 111078, Note_on_c, 0, 65, 63
2, 111414, Note_on_c, 0, 72, 78
2, 111418, Note_on_c, 0, 63, 56
2, 111575, Note_on_c, 0, 51, 0
2, 111578, Note_on_c, 0, 51, 74
2, 111751, Note_on_c, 0, 68, 0
2, 111761, Note_on_c, 0, 68, 83
2, 111923, Note_on_c, 0, 65, 0
2, 111923, Note_on_c, 0, 63, 0
2, 111923, Note_on_c, 0, 51, 0
2, 111924, Note_on_c, 0, 72, 0
2, 111924, Note_on_c, 0, 58, 0
2, 111924, Note_on_c, 0, 73, 0
2, 111924, Note_on_c, 0, 60, 0
2, 111924, Note_on_c, 0, 44, 0
2, 111925, Control_c, 0, 64, 0
2, 111928, Note_on_c, 0, 75, 0
2, 111928, Note_on_c, 0, 77, 0
2, 111931, Note_on_c, 0, 49, 62
2, 111934, Note_on_c, 0, 75, 87
2, 111943, Note_on_c, 0, 68, 0
2, 111949, Note_on_c, 0, 68, 68
2, 111951, Note_on_c, 0, 66, 0
2, 111956, Note_on_c, 0, 66, 63
2, 112066, Control_c, 0, 64, 127
2, 112111, Note_on_c, 0, 56, 65
2, 112273, Note_on_c, 0, 68, 0
2, 112277, Note_on_c, 0, 63, 59
2, 112279, Note_on_c, 0, 68, 51
2, 112427, Note_on_c, 0, 75, 0
2, 112437, Note_on_c, 0, 75, 81
2, 112450, Note_on_c, 0, 56, 0
2, 112458, Note_on_c, 0, 56, 67
2, 112619, Note_on_c, 0, 75, 0
2, 112623, Note_on_c, 0, 75, 86
2, 112630, Note_on_c, 0, 61, 60
2, 112637, Control_c, 0, 64, 0
2, 112642, Note_on_c, 0, 68, 0
2, 112644, Note_on_c, 0, 63, 0
2, 112644, Note_on_c, 0, 66, 0
2, 112645, Note_on_c, 0, 56, 0
2, 112652, Note_on_c, 0, 68, 63
2, 112656, Note_on_c, 0, 65, 57
2, 112719, Control_c, 0, 64, 127
2, 112809, Note_on_c, 0, 56, 64
2, 112974, Note_on_c, 0, 48, 61
2, 112976, Note_on_c, 0, 73, 75
2, 112977, Control_c, 0, 64, 0
2, 112982, Note_on_c, 0, 61, 0
2, 112988, Note_on_c, 0, 49, 0
2, 113011, Control_c, 0, 64, 127
2, 113134, Note_on_c, 0, 56, 0
2, 113134, Note_on_c, 0, 75, 0
2, 113141, Note_on_c, 0, 56, 67
2, 113142, Note_on_c, 0, 75, 89
2, 113308, Note_on_c, 0, 48, 0
2, 113309, Note_on_c, 0, 56, 0
2, 113310, Note_on_c, 0, 73, 0
2, 113311, Control_c, 0, 64, 0
2, 113314, Note_on_c, 0, 46, 68
2, 113326, Note_on_c, 0, 65, 0
2, 113333, Note_on_c, 0, 68, 0
2, 113441, Control_c, 0, 64, 127
2, 113480, Note_on_c, 0, 53, 61
2, 113484, Note_on_c, 0, 73, 80
2, 113656, Note_on_c, 0, 75, 0
2, 113667, Note_on_c, 0, 75, 86
2, 113667, Note_on_c, 0, 60, 61
2, 113826, Note_on_c, 0, 46, 0
2, 113827, Note_on_c, 0, 53, 0
2, 113827, Note_on_c, 0, 75, 0
2, 113828, Note_on_c, 0, 73, 0
2, 113828, Control_c, 0, 64, 0
2, 113828, Note_on_c, 0, 60, 0
2, 113848, Note_on_c, 0, 77, 80
2, 113859, Note_on_c, 0, 65, 64
2, 113859, Note_on_c, 0, 61, 63
2, 113891, Note_on_c, 0, 70, 44
2, 113963, Control_c, 0, 64, 127
2, 114220, Note_on_c, 0, 53, 54
2, 114375, Note_on_c, 0, 46, 61
2, 114547, Note_on_c, 0, 77, 0
2, 114556, Note_on_c, 0, 77, 82
2, 114762, Note_on_c, 0, 77, 0
2, 114771, Note_on_c, 0, 51, 66
2, 114773, Note_on_c, 0, 77, 74
2, 114777, Note_on_c, 0, 70, 0
2, 114782, Note_on_c, 0, 70, 70
2, 114788, Note_on_c, 0, 53, 0
2, 114788, Note_on_c, 0, 65, 0
2, 114789, Note_on_c, 0, 61, 0
2, 114789, Note_on_c, 0, 46, 0
2, 114789, Note_on_c, 0, 73, 51
2, 114794, Control_c, 0, 64, 0
2, 114946, Control_c, 0, 64, 127
2, 114967, Note_on_c, 0, 58, 64
2, 115125, Note_on_c, 0, 78, 83
2, 115126, Note_on_c, 0, 65, 64
2, 115307, Note_on_c, 0, 70, 0
2, 115312, Note_on_c, 0, 70, 83
2, 115315, Note_on_c, 0, 65, 0
2, 115316, Control_c, 0, 64, 0
2, 115317, Note_on_c, 0, 66, 70
2, 115392, Control_c, 0, 64, 127
2, 115438, Note_on_c, 0, 77, 0
2, 115645, Note_on_c, 0, 78, 0
2, 115649, Note_on_c, 0, 63, 64
2, 115649, Note_on_c, 0, 78, 88
2, 115806, Note_on_c, 0, 58, 0
2, 115815, Note_on_c, 0, 58, 66
2, 115975, Note_on_c, 0, 73, 0
2, 115983, Note_on_c, 0, 51, 0
2, 115983, Note_on_c, 0, 78, 0
2, 115992, Note_on_c, 0, 51, 71
2, 115994, Note_on_c, 0, 78, 91
2, 116172, Note_on_c, 0, 70, 0
2, 116172, Note_on_c, 0, 66, 0
2, 116173, Note_on_c, 0, 58, 0
2, 116173, Note_on_c, 0, 51, 0
2, 116173, Note_on_c, 0, 78, 0
2, 116175, Control_c, 0, 64, 0
2, 116191, Note_on_c, 0, 80, 84
2, 116199, Note_on_c, 0, 75, 74
2, 116200, Note_on_c, 0, 53, 63
2, 116206, Note_on_c, 0, 63, 0
2, 116209, Note_on_c, 0, 69, 67
2, 116218, Note_on_c, 0, 73, 56
2, 116321, Control_c, 0, 64, 127
2, 116369, Note_on_c, 0, 60, 64
2, 116531, Note_on_c, 0, 66, 69
2, 116541, Note_on_c, 0, 72, 75
2, 116720, Note_on_c, 0, 72, 0
2, 116726, Note_on_c, 0, 72, 69
2, 116728, Note_on_c, 0, 69, 0
2, 116732, Note_on_c, 0, 60, 0
2, 116733, Note_on_c, 0, 66, 0
2, 116734, Note_on_c, 0, 73, 0
2, 116734, Note_on_c, 0, 65, 61
2, 116737, Note_on_c, 0, 69, 42
2, 116738, Control_c, 0, 64, 0
2, 116743, Note_on_c, 0, 75, 0
2, 116812, Note_on_c, 0, 80, 0
2, 116843, Control_c, 0, 64, 127
2, 117077, Note_on_c, 0, 75, 81
2, 117093, Note_on_c, 0, 63, 65
2, 117257, Note_on_c, 0, 61, 68
2, 117411, Note_on_c, 0, 75, 0
2, 117419, Note_on_c, 0, 75, 76
2, 117423, Note_on_c, 0, 60, 59
2, 117603, Note_on_c, 0, 75, 0
2, 117607, Note_on_c, 0, 46, 61
2, 117608, Note_on_c, 0, 75, 77
2, 117608, Control_c, 0, 64, 0
2, 117610, Note_on_c, 0, 61, 0
2, 117611, Note_on_c, 0, 60, 0
2, 117611, Note_on_c, 0, 63, 0
2, 117613, Note_on_c, 0, 65, 0
2, 117613, Note_on_c, 0, 69, 0
2, 117619, Note_on_c, 0, 53, 0
2, 117626, Note_on_c, 0, 72, 0
2, 117765, Control_c, 0, 64, 127
2, 117777, Note_on_c, 0, 53, 62
2, 117880, Note_on_c, 0, 46, 0
2, 117960, Note_on_c, 0, 58, 63
2, 118053, Control_c, 0, 64, 0
2, 118087, Control_c, 0, 64, 127
2, 118126, Note_on_c, 0, 60, 62
2, 118298, Note_on_c, 0, 61, 62
2, 118464, Note_on_c, 0, 58, 0
2, 118468, Note_on_c, 0, 73, 70
2, 118470, Note_on_c, 0, 58, 54
2, 118477, Note_on_c, 0, 70, 56
2, 118487, Note_on_c, 0, 70, 0
2, 118632, Note_on_c, 0, 75, 0
2, 118641, Note_on_c, 0, 75, 74
2, 118673, Note_on_c, 0, 65, 54
2, 118820, Control_c, 0, 64, 0
2, 118821, Note_on_c, 0, 53, 0
2, 118821, Note_on_c, 0, 75, 0
2, 118822, Note_on_c, 0, 60, 0
2, 118827, Note_on_c, 0, 77, 76
2, 118827, Note_on_c, 0, 73, 0
2, 118835, Note_on_c, 0, 70, 60
2, 119192, Note_on_c, 0, 72, 56
2, 119400, Note_on_c, 0, 61, 0
2, 119572, Note_on_c, 0, 73, 47
2, 119646, Control_c, 0, 64, 127
2, 119976, Note_on_c, 0, 80, 76
2, 120201, Note_on_c, 0, 92, 80
2, 120210, Note_on_c, 0, 68, 58
2, 120223, Note_on_c, 0, 56, 53
2, 120411, Note_on_c, 0, 90, 80
2, 120669, Note_on_c, 0, 89, 84
2, 120669, Note_on_c, 0, 54, 64
2, 120687, Control_c, 0, 64, 0
2, 120689, Note_on_c, 0, 77, 0
2, 120689, Note_on_c, 0, 80, 0
2, 120689, Note_on_c, 0, 68, 0
2, 120690, Note_on_c, 0, 73, 0
2, 120690, Note_on_c, 0, 72, 0
2, 120690, Note_on_c, 0, 92, 0
2, 120691, Note_on_c, 0, 70, 0
2, 120691, Note_on_c, 0, 56, 0
2, 120698, Note_on_c, 0, 58, 0
2, 120706, Note_on_c, 0, 65, 0
2, 120768, Control_c, 0, 64, 127
2, 120806, Note_on_c, 0, 90, 0
2, 120824, Note_on_c, 0, 82, 57
2, 120918, Note_on_c, 0, 80, 56
2, 120921, Note_on_c, 0, 61, 58
2, 121013, Note_on_c, 0, 82, 0
2, 121020, Note_on_c, 0, 82, 60
2, 121082, Note_on_c, 0, 89, 0
2, 121094, Note_on_c, 0, 89, 74
2, 121123, Note_on_c, 0, 68, 67
2, 121205, Note_on_c, 0, 82, 0
2, 121210, Note_on_c, 0, 82, 60
2, 121282, Note_on_c, 0, 80, 0
2, 121286, Note_on_c, 0, 80, 67
2, 121290, Note_on_c, 0, 61, 0
2, 121298, Note_on_c, 0, 61, 60
2, 121351, Note_on_c, 0, 82, 0
2, 121357, Note_on_c, 0, 82, 61
2, 121436, Note_on_c, 0, 54, 0
2, 121443, Note_on_c, 0, 89, 0
2, 121449, Note_on_c, 0, 89, 84
2, 121470, Note_on_c, 0, 70, 71
2, 121551, Note_on_c, 0, 82, 0
2, 121562, Note_on_c, 0, 82, 69
2, 121635, Note_on_c, 0, 90, 89
2, 121635, Note_on_c, 0, 61, 0
2, 121641, Note_on_c, 0, 61, 67
2, 121720, Note_on_c, 0, 82, 0
2, 121730, Note_on_c, 0, 82, 71
2, 121797, Note_on_c, 0, 80, 0
2, 121803, Note_on_c, 0, 80, 72
2, 121827, Note_on_c, 0, 68, 0
2, 121833, Note_on_c, 0, 68, 66
2, 121904, Note_on_c, 0, 82, 0
2, 121913, Note_on_c, 0, 82, 60
2, 121958, Note_on_c, 0, 89, 0
2, 121967, Note_on_c, 0, 89, 97
2, 121989, Note_on_c, 0, 61, 0
2, 122000, Note_on_c, 0, 61, 74
2, 122050, Note_on_c, 0, 82, 0
2, 122055, Note_on_c, 0, 82, 73
2, 122144, Note_on_c, 0, 68, 0
2, 122145, Note_on_c, 0, 90, 0
2, 122145, Note_on_c, 0, 80, 0
2, 122146, Note_on_c, 0, 82, 0
2, 122146, Note_on_c, 0, 70, 0
2, 122146, Note_on_c, 0, 61, 0
2, 122147, Control_c, 0, 64, 0
2, 122147, Note_on_c, 0, 56, 76
2, 122157, Note_on_c, 0, 75, 70
2, 122181, Note_on_c, 0, 89, 0
2, 122219, Control_c, 0, 64, 127
2, 122251, Note_on_c, 0, 80, 72
2, 122322, Note_on_c, 0, 87, 93
2, 122327, Note_on_c, 0, 63, 68
2, 122411, Note_on_c, 0, 80, 0
2, 122420, Note_on_c, 0, 80, 72
2, 122472, Note_on_c, 0, 75, 0
2, 122484, Note_on_c, 0, 75, 67
2, 122521, Note_on_c, 0, 70, 61
2, 122572, Note_on_c, 0, 80, 0
2, 122579, Note_on_c, 0, 80, 72
2, 122658, Note_on_c, 0, 85, 91
2, 122664, Note_on_c, 0, 63, 0
2, 122672, Note_on_c, 0, 63, 68
2, 122741, Note_on_c, 0, 80, 0
2, 122751, Note_on_c, 0, 80, 71
2, 122803, Note_on_c, 0, 75, 0
2, 122812, Note_on_c, 0, 75, 66
2, 122850, Note_on_c, 0, 72, 62
2, 122903, Note_on_c, 0, 80, 0
2, 122907, Note_on_c, 0, 80, 71
2, 122999, Note_on_c, 0, 84, 92
2, 123002, Note_on_c, 0, 63, 0
2, 123004, Note_on_c, 0, 68, 61
2, 123007, Note_on_c, 0, 63, 68
2, 123072, Note_on_c, 0, 80, 0
2, 123079, Note_on_c, 0, 80, 76
2, 123148, Note_on_c, 0, 75, 0
2, 123154, Note_on_c, 0, 75, 77
2, 123179, Note_on_c, 0, 68, 0
2, 123188, Note_on_c, 0, 68, 62
2, 123333, Note_on_c, 0, 63, 0
2, 123333, Note_on_c, 0, 80, 0
2, 123338, Note_on_c, 0, 80, 91
2, 123344, Note_on_c, 0, 63, 65
2, 123513, Note_on_c, 0, 75, 0
2, 123514, Note_on_c, 0, 68, 0
2, 123514, Note_on_c, 0, 72, 0
2, 123514, Note_on_c, 0, 80, 0
2, 123514, Note_on_c, 0, 56, 0
2, 123514, Note_on_c, 0, 85, 0
2, 123514, Note_on_c, 0, 84, 0
2, 123514, Note_on_c, 0, 70, 0
2, 123516, Control_c, 0, 64, 0
2, 123517, Note_on_c, 0, 87, 0
2, 123525, Note_on_c, 0, 63, 0
2, 123528, Note_on_c, 0, 87, 91
2, 123528, Note_on_c, 0, 49, 69
2, 123577, Note_on_c, 0, 49, 0
2, 123601, Control_c, 0, 64, 127
2, 123623, Note_on_c, 0, 80, 77
2, 123706, Note_on_c, 0, 56, 60
2, 123710, Note_on_c, 0, 78, 77
2, 123801, Note_on_c, 0, 80, 0
2, 123811, Note_on_c, 0, 80, 70
2, 123855, Note_on_c, 0, 87, 0
2, 123866, Note_on_c, 0, 87, 92
2, 123867, Note_on_c, 0, 63, 63
2, 123947, Note_on_c, 0, 80, 0
2, 123952, Note_on_c, 0, 80, 73
2, 124024, Note_on_c, 0, 78, 0
2, 124032, Note_on_c, 0, 78, 78
2, 124047, Note_on_c, 0, 56, 0
2, 124052, Note_on_c, 0, 56, 53
2, 124055, Note_on_c, 0, 68, 57
2, 124116, Note_on_c, 0, 80, 0
2, 124123, Note_on_c, 0, 80, 73
2, 124193, Note_on_c, 0, 87, 0
2, 124203, Note_on_c, 0, 87, 97
2, 124216, Note_on_c, 0, 65, 78
2, 124285, Note_on_c, 0, 80, 0
2, 124295, Note_on_c, 0, 80, 69
2, 124362, Note_on_c, 0, 56, 0
2, 124362, Note_on_c, 0, 78, 0
2, 124366, Note_on_c, 0, 78, 81
2, 124366, Note_on_c, 0, 56, 66
2, 124431, Note_on_c, 0, 80, 0
2, 124440, Note_on_c, 0, 80, 78
2, 124523, Note_on_c, 0, 87, 0
2, 124525, Note_on_c, 0, 78, 0
2, 124525, Note_on_c, 0, 56, 0
2, 124526, Note_on_c, 0, 65, 0
2, 124526, Note_on_c, 0, 63, 0
2, 124526, Note_on_c, 0, 80, 0
2, 124527, Control_c, 0, 64, 0
2, 124533, Note_on_c, 0, 85, 88
2, 124534, Note_on_c, 0, 48, 76
2, 124538, Note_on_c, 0, 68, 0
2, 124591, Note_on_c, 0, 48, 0
2, 124608, Control_c, 0, 64, 127
2, 124634, Note_on_c, 0, 80, 76
2, 124711, Note_on_c, 0, 87, 98
2, 124713, Note_on_c, 0, 56, 64
2, 124800, Note_on_c, 0, 80, 0
2, 124804, Note_on_c, 0, 80, 80
2, 124821, Control_c, 0, 64, 0
2, 124825, Note_on_c, 0, 87, 0
2, 124825, Note_on_c, 0, 85, 0
2, 124826, Note_on_c, 0, 56, 0
2, 124871, Note_on_c, 0, 46, 77
2, 124898, Note_on_c, 0, 77, 74
2, 124915, Note_on_c, 0, 80, 0
2, 124915, Control_c, 0, 64, 127
2, 125005, Note_on_c, 0, 82, 69
2, 125022, Note_on_c, 0, 65, 62
2, 125030, Note_on_c, 0, 65, 0
2, 125032, Note_on_c, 0, 53, 66
2, 125049, Note_on_c, 0, 92, 95
2, 125137, Note_on_c, 0, 82, 0
2, 125149, Note_on_c, 0, 82, 73
2, 125220, Note_on_c, 0, 60, 67
2, 125227, Note_on_c, 0, 90, 91
2, 125306, Note_on_c, 0, 82, 0
2, 125316, Note_on_c, 0, 82, 84
2, 125377, Control_c, 0, 64, 0
2, 125378, Note_on_c, 0, 77, 0
2, 125379, Note_on_c, 0, 82, 0
2, 125379, Note_on_c, 0, 92, 0
2, 125379, Note_on_c, 0, 90, 0
2, 125379, Note_on_c, 0, 53, 0
2, 125380, Note_on_c, 0, 46, 0
2, 125380, Note_on_c, 0, 60, 0
2, 125384, Note_on_c, 0, 89, 98
2, 125407, Note_on_c, 0, 62, 76
2, 125437, Control_c, 0, 64, 127
2, 125490, Note_on_c, 0, 86, 86
2, 125574, Note_on_c, 0, 82, 79
2, 125644, Note_on_c, 0, 77, 76
2, 125739, Note_on_c, 0, 74, 74
2, 125824, Note_on_c, 0, 70, 73
2, 125915, Note_on_c, 0, 65, 72
2, 125975, Note_on_c, 0, 62, 0
2, 125985, Note_on_c, 0, 62, 72
2, 126082, Note_on_c, 0, 89, 0
2, 126085, Note_on_c, 0, 58, 68
2, 126087, Note_on_c, 0, 89, 92
2, 126229, Control_c, 0, 64, 0
2, 126230, Note_on_c, 0, 82, 0
2, 126230, Note_on_c, 0, 70, 0
2, 126231, Note_on_c, 0, 65, 0
2, 126232, Note_on_c, 0, 77, 0
2, 126232, Note_on_c, 0, 62, 0
2, 126232, Note_on_c, 0, 86, 0
2, 126232, Note_on_c, 0, 58, 0
2, 126232, Note_on_c, 0, 74, 0
2, 126251, Note_on_c, 0, 89, 0
2, 126255, Note_on_c, 0, 89, 94
2, 126264, Note_on_c, 0, 51, 80
2, 126312, Control_c, 0, 64, 127
2, 126348, Note_on_c, 0, 82, 83
2, 126431, Note_on_c, 0, 78, 76
2, 126434, Note_on_c, 0, 58, 64
2, 126497, Note_on_c, 0, 82, 0
2, 126501, Note_on_c, 0, 82, 81
2, 126581, Note_on_c, 0, 82, 0
2, 126587, Note_on_c, 0, 82, 89
2, 126591, Note_on_c, 0, 65, 75
2, 126689, Note_on_c, 0, 78, 0
2, 126694, Note_on_c, 0, 78, 81
2, 126774, Note_on_c, 0, 85, 95
2, 126776, Note_on_c, 0, 66, 79
2, 126842, Note_on_c, 0, 82, 0
2, 126854, Note_on_c, 0, 82, 83
2, 126919, Note_on_c, 0, 78, 0
2, 126931, Note_on_c, 0, 78, 75
2, 127019, Note_on_c, 0, 82, 0
2, 127027, Note_on_c, 0, 82, 79
2, 127104, Note_on_c, 0, 51, 0
2, 127111, Note_on_c, 0, 66, 0
2, 127120, Note_on_c, 0, 66, 67
2, 127121, Note_on_c, 0, 87, 97
2, 127122, Note_on_c, 0, 63, 74
2, 127196, Note_on_c, 0, 82, 0
2, 127204, Note_on_c, 0, 82, 70
2, 127272, Note_on_c, 0, 78, 0
2, 127282, Note_on_c, 0, 78, 69
2, 127349, Note_on_c, 0, 82, 0
2, 127354, Note_on_c, 0, 82, 77
2, 127453, Note_on_c, 0, 92, 97
2, 127455, Note_on_c, 0, 51, 81
2, 127460, Note_on_c, 0, 80, 84
2, 127575, Note_on_c, 0, 84, 83
2, 127586, Note_on_c, 0, 58, 0
2, 127586, Note_on_c, 0, 82, 0
2, 127586, Note_on_c, 0, 78, 0
2, 127587, Note_on_c, 0, 85, 0
2, 127587, Note_on_c, 0, 80, 0
2, 127587, Note_on_c, 0, 66, 0
2, 127588, Note_on_c, 0, 89, 0
2, 127588, Note_on_c, 0, 65, 0
2, 127589, Note_on_c, 0, 87, 0
2, 127589, Note_on_c, 0, 63, 0
2, 127589, Note_on_c, 0, 51, 0
2, 127589, Control_c, 0, 64, 0
2, 127590, Note_on_c, 0, 92, 0
2, 127626, Note_on_c, 0, 44, 77
2, 127664, Control_c, 0, 64, 127
2, 127672, Note_on_c, 0, 80, 74
2, 127733, Note_on_c, 0, 84, 0
2, 127741, Note_on_c, 0, 84, 68
2, 127794, Note_on_c, 0, 92, 95
2, 127799, Note_on_c, 0, 51, 76
2, 127818, Note_on_c, 0, 80, 0
2, 127829, Note_on_c, 0, 80, 71
2, 127879, Note_on_c, 0, 84, 0
2, 127888, Note_on_c, 0, 84, 70
2, 127968, Note_on_c, 0, 56, 67
2, 127974, Note_on_c, 0, 90, 90
2, 127985, Note_on_c, 0, 78, 77
2, 128048, Note_on_c, 0, 84, 0
2, 128058, Note_on_c, 0, 84, 78
2, 128133, Note_on_c, 0, 90, 0
2, 128137, Note_on_c, 0, 90, 92
2, 128140, Note_on_c, 0, 78, 0
2, 128145, Note_on_c, 0, 78, 85
2, 128145, Note_on_c, 0, 58, 74
2, 128225, Note_on_c, 0, 84, 0
2, 128229, Note_on_c, 0, 84, 79
2, 128297, Note_on_c, 0, 89, 94
2, 128318, Note_on_c, 0, 77, 84
2, 128321, Note_on_c, 0, 60, 76
2, 128394, Note_on_c, 0, 84, 0
2, 128399, Note_on_c, 0, 84, 83
2, 128484, Note_on_c, 0, 87, 89
2, 128485, Note_on_c, 0, 75, 90
2, 128492, Note_on_c, 0, 61, 74
2, 128570, Note_on_c, 0, 84, 0
2, 128581, Note_on_c, 0, 84, 77
2, 128640, Note_on_c, 0, 90, 0
2, 128651, Note_on_c, 0, 90, 101
2, 128655, Note_on_c, 0, 60, 0
2, 128655, Note_on_c, 0, 78, 0
2, 128659, Note_on_c, 0, 63, 63
2, 128659, Note_on_c, 0, 78, 87
2, 128665, Note_on_c, 0, 60, 58
2, 128755, Note_on_c, 0, 84, 0
2, 128760, Note_on_c, 0, 84, 78
2, 128813, Note_on_c, 0, 65, 78
2, 128839, Note_on_c, 0, 77, 0
2, 128839, Note_on_c, 0, 89, 0
2, 128843, Note_on_c, 0, 89, 102
2, 128850, Note_on_c, 0, 77, 90
2, 128929, Note_on_c, 0, 78, 0
2, 128929, Note_on_c, 0, 60, 0
2, 128930, Note_on_c, 0, 61, 0
2, 128930, Note_on_c, 0, 56, 0
2, 128930, Note_on_c, 0, 58, 0
2, 128930, Note_on_c, 0, 63, 0
2, 128930, Note_on_c, 0, 80, 0
2, 128930, Note_on_c, 0, 87, 0
2, 128930, Note_on_c, 0, 75, 0
2, 128931, Note_on_c, 0, 51, 0
2, 128931, Note_on_c, 0, 92, 0
2, 128931, Note_on_c, 0, 44, 0
2, 128932, Control_c, 0, 64, 0
2, 128954, Note_on_c, 0, 90, 0
2, 129006, Note_on_c, 0, 42, 87
2, 129024, Control_c, 0, 64, 127
2, 129171, Note_on_c, 0, 68, 93
2, 129338, Note_on_c, 0, 68, 0
2, 129342, Note_on_c, 0, 80, 91
2, 129342, Note_on_c, 0, 54, 77
2, 129348, Note_on_c, 0, 68, 78
2, 129435, Note_on_c, 0, 78, 90
2, 129500, Note_on_c, 0, 65, 0
2, 129510, Note_on_c, 0, 61, 73
2, 129511, Note_on_c, 0, 65, 75
2, 129511, Note_on_c, 0, 58, 64
2, 129592, Note_on_c, 0, 77, 0
2, 129601, Note_on_c, 0, 77, 94
2, 129761, Note_on_c, 0, 77, 0
2, 129766, Note_on_c, 0, 77, 85
2, 129868, Note_on_c, 0, 54, 0
2, 129874, Note_on_c, 0, 54, 78
2, 129937, Note_on_c, 0, 77, 0
2, 129941, Note_on_c, 0, 77, 87
2, 130022, Note_on_c, 0, 58, 0
2, 130025, Note_on_c, 0, 63, 88
2, 130027, Note_on_c, 0, 72, 90
2, 130028, Note_on_c, 0, 58, 82
2, 130030, Note_on_c, 0, 70, 79
2, 130178, Note_on_c, 0, 73, 90
2, 130293, Note_on_c, 0, 58, 0
2, 130293, Note_on_c, 0, 68, 0
2, 130293, Note_on_c, 0, 70, 0
2, 130294, Note_on_c, 0, 63, 0
2, 130294, Note_on_c, 0, 72, 0
2, 130294, Note_on_c, 0, 65, 0
2, 130294, Note_on_c, 0, 61, 0
2, 130294, Note_on_c, 0, 54, 0
2, 130294, Note_on_c, 0, 80, 0
2, 130294, Note_on_c, 0, 77, 0
2, 130294, Note_on_c, 0, 78, 0
2, 130295, Control_c, 0, 64, 0
2, 130295, Note_on_c, 0, 73, 0
2, 130298, Note_on_c, 0, 84, 0
2, 130298, Note_on_c, 0, 89, 0
2, 130306, Note_on_c, 0, 42, 0
2, 130351, Note_on_c, 0, 75, 100
2, 130353, Note_on_c, 0, 72, 91
2, 130356, Note_on_c, 0, 68, 97
2, 130357, Note_on_c, 0, 53, 95
2, 130357, Note_on_c, 0, 41, 88
2, 130391, Control_c, 0, 64, 127
2, 130421, Note_on_c, 0, 53, 0
2, 130519, Note_on_c, 0, 53, 86
2, 130613, Note_on_c, 0, 75, 0
2, 130623, Note_on_c, 0, 75, 106
2, 130624, Note_on_c, 0, 63, 86
2, 130625, Note_on_c, 0, 66, 98
2, 130625, Note_on_c, 0, 60, 78
2, 130626, Note_on_c, 0, 57, 80
2, 130767, Note_on_c, 0, 41, 0
2, 130777, Note_on_c, 0, 41, 90
2, 130778, Note_on_c, 0, 29, 83
2, 130822, Control_c, 0, 64, 0
2, 130823, Note_on_c, 0, 60, 0
2, 130824, Note_on_c, 0, 63, 0
2, 130824, Note_on_c, 0, 66, 0
2, 130824, Note_on_c, 0, 75, 0
2, 130824, Note_on_c, 0, 57, 0
2, 130824, Note_on_c, 0, 53, 0
2, 130828, Note_on_c, 0, 72, 0
2, 130836, Note_on_c, 0, 68, 0
2, 130874, Note_on_c, 0, 29, 0
2, 130874, Note_on_c, 0, 41, 0
2, 130875, Note_on_c, 0, 77, 107
2, 130879, Note_on_c, 0, 65, 104
2, 130883, Note_on_c, 0, 75, 101
2, 130884, Note_on_c, 0, 41, 91
2, 130884, Note_on_c, 0, 69, 97
2, 130885, Note_on_c, 0, 29, 98
2, 130885, Note_on_c, 0, 72, 90
2, 130905, Control_c, 0, 64, 127
2, 131056, Note_on_c, 0, 77, 0
2, 131056, Note_on_c, 0, 75, 0
2, 131057, Note_on_c, 0, 69, 0
2, 131059, Note_on_c, 0, 41, 0
2, 131059, Control_c, 0, 64, 0
2, 131060, Note_on_c, 0, 72, 0
2, 131074, Note_on_c, 0, 65, 0
2, 131089, Note_on_c, 0, 29, 0
2, 131250, Note_on_c, 0, 56, 103
2, 131281, Control_c, 0, 64, 127
2, 131414, Note_on_c, 0, 68, 111
2, 131577, Note_on_c, 0, 66, 97
2, 131727, Note_on_c, 0, 68, 0
2, 131727, Control_c, 0, 64, 0
2, 131727, Note_on_c, 0, 66, 0
2, 131728, Note_on_c, 0, 56, 0
2, 131761, Note_on_c, 0, 65, 105
2, 131761, Note_on_c, 0, 58, 95
2, 131762, Note_on_c, 0, 42, 97
2, 131763, Note_on_c, 0, 61, 98
2, 131764, Note_on_c, 0, 30, 96
2, 131796, Control_c, 0, 64, 127
2, 131842, Note_on_c, 0, 58, 0
2, 131934, Note_on_c, 0, 65, 0
2, 131946, Note_on_c, 0, 65, 94
2, 132040, Note_on_c, 0, 70, 88
2, 132114, Note_on_c, 0, 73, 88
2, 132195, Note_on_c, 0, 77, 89
2, 132279, Note_on_c, 0, 82, 99
2, 132362, Note_on_c, 0, 85, 91
2, 132418, Note_on_c, 0, 65, 0
2, 132426, Note_on_c, 0, 61, 0
2, 132428, Note_on_c, 0, 65, 103
2, 132429, Note_on_c, 0, 89, 103
2, 132430, Note_on_c, 0, 61, 102
2, 132432, Note_on_c, 0, 58, 93
2, 132526, Note_on_c, 0, 85, 0
2, 132530, Note_on_c, 0, 85, 91
2, 132587, Note_on_c, 0, 82, 0
2, 132591, Note_on_c, 0, 66, 107
2, 132595, Note_on_c, 0, 82, 83
2, 132648, Note_on_c, 0, 77, 0
2, 132653, Note_on_c, 0, 77, 79
2, 132741, Note_on_c, 0, 73, 0
2, 132751, Note_on_c, 0, 73, 85
2, 132802, Note_on_c, 0, 70, 0
2, 132808, Note_on_c, 0, 70, 85
2, 132925, Note_on_c, 0, 65, 0
2, 132931, Note_on_c, 0, 65, 106
2, 132933, Note_on_c, 0, 30, 0
2, 132933, Note_on_c, 0, 58, 0
2, 132933, Note_on_c, 0, 61, 0
2, 132939, Note_on_c, 0, 58, 86
2, 132941, Note_on_c, 0, 61, 96
2, 132986, Note_on_c, 0, 42, 0
2, 132989, Note_on_c, 0, 85, 0
2, 132990, Note_on_c, 0, 66, 0
2, 132990, Note_on_c, 0, 77, 0
2, 132990, Note_on_c, 0, 70, 0
2, 132991, Note_on_c, 0, 89, 0
2, 132991, Control_c, 0, 64, 0
2, 133002, Note_on_c, 0, 73, 0
2, 133002, Note_on_c, 0, 82, 0
2, 133063, Control_c, 0, 64, 127
2, 133106, Note_on_c, 0, 32, 96
2, 133106, Note_on_c, 0, 44, 98
2, 133269, Note_on_c, 0, 68, 101
2, 133270, Note_on_c, 0, 63, 100
2, 133272, Note_on_c, 0, 56, 89
2, 133274, Note_on_c, 0, 60, 72
2, 133353, Note_on_c, 0, 72, 88
2, 133438, Note_on_c, 0, 75, 92
2, 133545, Note_on_c, 0, 80, 89
2, 133601, Note_on_c, 0, 56, 0
2, 133601, Note_on_c, 0, 58, 0
2, 133601, Note_on_c, 0, 61, 0
2, 133601, Note_on_c, 0, 68, 0
2, 133606, Note_on_c, 0, 61, 102
2, 133606, Note_on_c, 0, 56, 92
2, 133606, Note_on_c, 0, 68, 93
2, 133611, Note_on_c, 0, 58, 90
2, 133612, Note_on_c, 0, 84, 98
2, 133706, Note_on_c, 0, 87, 98
2, 133777, Note_on_c, 0, 92, 105
2, 133862, Note_on_c, 0, 87, 0
2, 133872, Note_on_c, 0, 87, 89
2, 133916, Note_on_c, 0, 84, 0
2, 133921, Note_on_c, 0, 84, 85
2, 133931, Note_on_c, 0, 60, 0
2, 133935, Note_on_c, 0, 60, 104
2, 133969, Note_on_c, 0, 80, 0
2, 133974, Note_on_c, 0, 80, 74
2, 134077, Note_on_c, 0, 75, 0
2, 134083, Note_on_c, 0, 75, 87
2, 134146, Note_on_c, 0, 72, 0
2, 134155, Note_on_c, 0, 72, 84
2, 134269, Note_on_c, 0, 56, 0
2, 134269, Note_on_c, 0, 68, 0
2, 134276, Note_on_c, 0, 68, 94
2, 134277, Note_on_c, 0, 56, 105
2, 134409, Note_on_c, 0, 61, 0
2, 134409, Note_on_c, 0, 72, 0
2, 134409, Note_on_c, 0, 92, 0
2, 134409, Note_on_c, 0, 68, 0
2, 134409, Note_on_c, 0, 58, 0
2, 134410, Note_on_c, 0, 80, 0
2, 134410, Control_c, 0, 64, 0
2, 134410, Note_on_c, 0, 63, 0
2, 134410, Note_on_c, 0, 87, 0
2, 134410, Note_on_c, 0, 84, 0
2, 134410, Note_on_c, 0, 75, 0
2, 134411, Note_on_c, 0, 44, 0
2, 134411, Note_on_c, 0, 56, 0
2, 134415, Note_on_c, 0, 32, 0
2, 134423, Note_on_c, 0, 60, 0
2, 134423, Note_on_c, 0, 65, 0
2, 134453, Note_on_c, 0, 56, 98
2, 134453, Note_on_c, 0, 37, 107
2, 134454, Note_on_c, 0, 65, 101
2, 134454, Note_on_c, 0, 68, 103
2, 134454, Note_on_c, 0, 53, 101
2, 134455, Note_on_c, 0, 63, 98
2, 134456, Note_on_c, 0, 49, 103
2, 134476, Control_c, 0, 64, 127
2, 134488, Note_on_c, 0, 49, 0
2, 134622, Note_on_c, 0, 65, 0
2, 134629, Note_on_c, 0, 65, 88
2, 134707, Note_on_c, 0, 68, 0
2, 134711, Note_on_c, 0, 68, 95
2, 134782, Note_on_c, 0, 75, 95
2, 134872, Note_on_c, 0, 77, 93
2, 134943, Note_on_c, 0, 80, 92
2, 135019, Note_on_c, 0, 85, 93
2, 135098, Note_on_c, 0, 53, 0
2, 135098, Note_on_c, 0, 63, 0
2, 135106, Note_on_c, 0, 56, 0
2, 135106, Note_on_c, 0, 68, 0
2, 135108, Note_on_c, 0, 63, 98
2, 135108, Note_on_c, 0, 53, 98
2, 135110, Note_on_c, 0, 87, 89
2, 135110, Note_on_c, 0, 68, 93
2, 135111, Note_on_c, 0, 56, 91
2, 135191, Note_on_c, 0, 85, 0
2, 135201, Note_on_c, 0, 85, 87
2, 135252, Note_on_c, 0, 80, 0
2, 135258, Note_on_c, 0, 80, 74
2, 135290, Note_on_c, 0, 77, 0
2, 135298, Note_on_c, 0, 77, 78
2, 135390, Note_on_c, 0, 75, 0
2, 135395, Note_on_c, 0, 75, 73
2, 135444, Note_on_c, 0, 53, 0
2, 135451, Note_on_c, 0, 53, 63
2, 135451, Note_on_c, 0, 61, 96
2, 135475, Note_on_c, 0, 68, 0
2, 135480, Note_on_c, 0, 68, 88
2, 135613, Note_on_c, 0, 63, 0
2, 135617, Note_on_c, 0, 63, 107
2, 135651, Note_on_c, 0, 37, 0
2, 135670, Note_on_c, 0, 75, 0
2, 135670, Note_on_c, 0, 61, 0
2, 135670, Note_on_c, 0, 65, 0
2, 135670, Note_on_c, 0, 68, 0
2, 135670, Note_on_c, 0, 53, 0
2, 135671, Note_on_c, 0, 56, 0
2, 135671, Note_on_c, 0, 80, 0
2, 135672, Control_c, 0, 64, 0
2, 135674, Note_on_c, 0, 87, 0
2, 135682, Note_on_c, 0, 85, 0
2, 135690, Note_on_c, 0, 77, 0
2, 135773, Note_on_c, 0, 46, 102
2, 135777, Note_on_c, 0, 34, 94
2, 135790, Control_c, 0, 64, 127
2, 135939, Note_on_c, 0, 70, 91
2, 135968, Note_on_c, 0, 58, 69
2, 135969, Note_on_c, 0, 62, 69
2, 135969, Note_on_c, 0, 64, 80
2, 136017, Note_on_c, 0, 74, 88
2, 136086, Note_on_c, 0, 77, 82
2, 136097, Note_on_c, 0, 63, 0
2, 136108, Note_on_c, 0, 63, 94
2, 136177, Note_on_c, 0, 82, 92
2, 136273, Note_on_c, 0, 58, 0
2, 136273, Note_on_c, 0, 62, 0
2, 136278, Note_on_c, 0, 65, 105
2, 136279, Note_on_c, 0, 62, 104
2, 136279, Note_on_c, 0, 94, 105
2, 136281, Control_c, 0, 64, 0
2, 136282, Note_on_c, 0, 58, 105
2, 136289, Note_on_c, 0, 94, 0
2, 136304, Control_c, 0, 64, 127
2, 136376, Note_on_c, 0, 89, 82
2, 136471, Note_on_c, 0, 94, 69
2, 136560, Note_on_c, 0, 78, 79
2, 136600, Note_on_c, 0, 79, 83
2, 136657, Note_on_c, 0, 76, 82
2, 136773, Note_on_c, 0, 46, 0
2, 136778, Note_on_c, 0, 46, 103
2, 136949, Note_on_c, 0, 77, 0
2, 136953, Note_on_c, 0, 77, 98
2, 137079, Note_on_c, 0, 62, 0
2, 137079, Note_on_c, 0, 58, 0
2, 137079, Note_on_c, 0, 82, 0
2, 137079, Note_on_c, 0, 65, 0
2, 137080, Note_on_c, 0, 64, 0
2, 137080, Note_on_c, 0, 70, 0
2, 137080, Note_on_c, 0, 89, 0
2, 137080, Note_on_c, 0, 79, 0
2, 137081, Note_on_c, 0, 94, 0
2, 137081, Note_on_c, 0, 74, 0
2, 137081, Note_on_c, 0, 76, 0
2, 137081, Note_on_c, 0, 46, 0
2, 137082, Note_on_c, 0, 78, 0
2, 137083, Control_c, 0, 64, 0
2, 137088, Note_on_c, 0, 34, 0
2, 137095, Note_on_c, 0, 63, 0
2, 137111, Note_on_c, 0, 77, 0
2, 137122, Note_on_c, 0, 77, 104
2, 137123, Note_on_c, 0, 65, 102
2, 137123, Note_on_c, 0, 39, 87
2, 137131, Note_on_c, 0, 75, 92
2, 137132, Note_on_c, 0, 70, 95
2, 137157, Control_c, 0, 64, 127
2, 137206, Note_on_c, 0, 46, 30
2, 137268, Note_on_c, 0, 51, 84
2, 137373, Note_on_c, 0, 54, 73
2, 137441, Note_on_c, 0, 46, 0
2, 137447, Note_on_c, 0, 58, 81
2, 137452, Note_on_c, 0, 46, 74
2, 137468, Note_on_c, 0, 78, 97
2, 137525, Note_on_c, 0, 51, 0
2, 137537, Note_on_c, 0, 51, 77
2, 137633, Note_on_c, 0, 70, 0
2, 137635, Note_on_c, 0, 61, 86
2, 137644, Note_on_c, 0, 70, 106
2, 137644, Note_on_c, 0, 66, 97
2, 137671, Note_on_c, 0, 58, 0
2, 137678, Note_on_c, 0, 58, 68
2, 137763, Note_on_c, 0, 54, 0
2, 137770, Note_on_c, 0, 54, 84
2, 137848, Note_on_c, 0, 51, 0
2, 137858, Note_on_c, 0, 51, 75
2, 137940, Note_on_c, 0, 58, 0
2, 137948, Note_on_c, 0, 58, 85
2, 137971, Note_on_c, 0, 78, 0
2, 137978, Note_on_c, 0, 78, 101
2, 137978, Note_on_c, 0, 66, 0
2, 137983, Note_on_c, 0, 66, 101
2, 137986, Note_on_c, 0, 70, 0
2, 137995, Note_on_c, 0, 70, 71
2, 138124, Note_on_c, 0, 39, 0
2, 138129, Note_on_c, 0, 39, 92
2, 138209, Note_on_c, 0, 46, 0
2, 138213, Note_on_c, 0, 46, 59
2, 138301, Note_on_c, 0, 46, 0
2, 138309, Note_on_c, 0, 51, 0
2, 138309, Note_on_c, 0, 66, 0
2, 138309, Note_on_c, 0, 78, 0
2, 138312, Note_on_c, 0, 46, 82
2, 138313, Note_on_c, 0, 51, 76
2, 138314, Note_on_c, 0, 78, 101
2, 138315, Note_on_c, 0, 66, 98
2, 138458, Control_c, 0, 64, 0
2, 138459, Note_on_c, 0, 51, 0
2, 138459, Note_on_c, 0, 39, 0
2, 138459, Note_on_c, 0, 70, 0
2, 138459, Note_on_c, 0, 66, 0
2, 138459, Note_on_c, 0, 58, 0
2, 138460, Note_on_c, 0, 78, 0
2, 138460, Note_on_c, 0, 61, 0
2, 138460, Note_on_c, 0, 77, 0
2, 138466, Note_on_c, 0, 65, 0
2, 138478, Note_on_c, 0, 46, 0
2, 138478, Note_on_c, 0, 54, 0
2, 138478, Note_on_c, 0, 75, 0
2, 138481, Note_on_c, 0, 80, 104
2, 138483, Note_on_c, 0, 48, 91
2, 138483, Note_on_c, 0, 41, 92
2, 138489, Note_on_c, 0, 75, 96
2, 138489, Note_on_c, 0, 72, 91
2, 138490, Note_on_c, 0, 69, 88
2, 138539, Control_c, 0, 64, 127
2, 138562, Note_on_c, 0, 48, 0
2, 138566, Note_on_c, 0, 48, 38
2, 138642, Note_on_c, 0, 53, 88
2, 138730, Note_on_c, 0, 57, 80
2, 138816, Note_on_c, 0, 69, 0
2, 138816, Note_on_c, 0, 72, 0
2, 138819, Note_on_c, 0, 60, 90
2, 138820, Note_on_c, 0, 72, 91
2, 138823, Note_on_c, 0, 69, 72
2, 138908, Note_on_c, 0, 53, 0
2, 138918, Note_on_c, 0, 53, 85
2, 139000, Note_on_c, 0, 69, 0
2, 139000, Note_on_c, 0, 72, 0
2, 139004, Note_on_c, 0, 72, 102
2, 139009, Note_on_c, 0, 63, 90
2, 139009, Note_on_c, 0, 69, 97
2, 139130, Note_on_c, 0, 57, 0
2, 139136, Note_on_c, 0, 57, 74
2, 139230, Note_on_c, 0, 53, 0
2, 139241, Note_on_c, 0, 53, 85
2, 139322, Note_on_c, 0, 48, 0
2, 139322, Note_on_c, 0, 60, 0
2, 139329, Note_on_c, 0, 48, 78
2, 139330, Note_on_c, 0, 60, 83
2, 139330, Note_on_c, 0, 75, 0
2, 139338, Note_on_c, 0, 63, 0
2, 139341, Note_on_c, 0, 75, 105
2, 139349, Note_on_c, 0, 63, 94
2, 139392, Note_on_c, 0, 53, 0
2, 139396, Note_on_c, 0, 53, 84
2, 139396, Note_on_c, 0, 55, 77
2, 139507, Note_on_c, 0, 41, 0
2, 139511, Note_on_c, 0, 41, 84
2, 139584, Note_on_c, 0, 48, 0
2, 139592, Note_on_c, 0, 48, 76
2, 139653, Note_on_c, 0, 53, 0
2, 139653, Note_on_c, 0, 57, 0
2, 139660, Note_on_c, 0, 53, 85
2, 139663, Note_on_c, 0, 57, 70
2, 139668, Note_on_c, 0, 75, 0
2, 139674, Note_on_c, 0, 75, 108
2, 139676, Note_on_c, 0, 63, 0
2, 139676, Note_on_c, 0, 69, 0
2, 139680, Note_on_c, 0, 63, 96
2, 139685, Note_on_c, 0, 69, 72
2, 139795, Control_c, 0, 64, 0
2, 139796, Note_on_c, 0, 48, 0
2, 139796, Note_on_c, 0, 41, 0
2, 139797, Note_on_c, 0, 69, 0
2, 139797, Note_on_c, 0, 53, 0
2, 139797, Note_on_c, 0, 63, 0
2, 139797, Note_on_c, 0, 80, 0
2, 139798, Note_on_c, 0, 72, 0
2, 139798, Note_on_c, 0, 75, 0
2, 139798, Note_on_c, 0, 60, 0
2, 139806, Note_on_c, 0, 55, 0
2, 139814, Note_on_c, 0, 57, 0
2, 139849, Note_on_c, 0, 75, 108
2, 139850, Note_on_c, 0, 63, 100
2, 139854, Note_on_c, 0, 46, 101
2, 139855, Note_on_c, 0, 70, 94
2, 139856, Note_on_c, 0, 34, 94
2, 139883, Control_c, 0, 64, 127
2, 140014, Note_on_c, 0, 46, 0
2, 140018, Note_on_c, 0, 46, 83
2, 140021, Note_on_c, 0, 63, 0
2, 140033, Note_on_c, 0, 63, 86
2, 140132, Note_on_c, 0, 65, 87
2, 140133, Note_on_c, 0, 53, 73
2, 140175, Note_on_c, 0, 70, 0
2, 140185, Note_on_c, 0, 70, 85
2, 140206, Note_on_c, 0, 53, 0
2, 140217, Note_on_c, 0, 53, 69
2, 140282, Note_on_c, 0, 75, 0
2, 140286, Note_on_c, 0, 75, 89
2, 140326, Note_on_c, 0, 58, 86
2, 140355, Note_on_c, 0, 78, 70
2, 140359, Note_on_c, 0, 78, 0
2, 140374, Note_on_c, 0, 77, 88
2, 140433, Note_on_c, 0, 82, 91
2, 140483, Note_on_c, 0, 46, 0
2, 140484, Note_on_c, 0, 53, 0
2, 140484, Note_on_c, 0, 63, 0
2, 140484, Note_on_c, 0, 65, 0
2, 140485, Note_on_c, 0, 75, 0
2, 140485, Note_on_c, 0, 77, 0
2, 140487, Note_on_c, 0, 82, 0
2, 140487, Control_c, 0, 64, 0
2, 140490, Note_on_c, 0, 34, 0
2, 140497, Note_on_c, 0, 58, 0
2, 140505, Note_on_c, 0, 70, 0
2, 140510, Note_on_c, 0, 36, 97
2, 140510, Note_on_c, 0, 87, 102
2, 140510, Note_on_c, 0, 48, 102
2, 140536, Control_c, 0, 64, 127
2, 140666, Note_on_c, 0, 48, 0
2, 140677, Note_on_c, 0, 48, 96
2, 140678, Note_on_c, 0, 73, 104
2, 140680, Note_on_c, 0, 68, 93
2, 140828, Note_on_c, 0, 48, 0
2, 140831, Note_on_c, 0, 60, 81
2, 140833, Note_on_c, 0, 48, 86
2, 140834, Note_on_c, 0, 56, 90
2, 140835, Note_on_c, 0, 68, 0
2, 140840, Note_on_c, 0, 68, 95
2, 140841, Note_on_c, 0, 75, 106
2, 140979, Note_on_c, 0, 36, 0
2, 140980, Note_on_c, 0, 68, 0
2, 140980, Note_on_c, 0, 48, 0
2, 140980, Control_c, 0, 64, 0
2, 140980, Note_on_c, 0, 73, 0
2, 140981, Note_on_c, 0, 56, 0
2, 140981, Note_on_c, 0, 75, 0
2, 140981, Note_on_c, 0, 60, 0
2, 140982, Note_on_c, 0, 87, 0
2, 141016, Note_on_c, 0, 77, 108
2, 141016, Note_on_c, 0, 49, 103
2, 141018, Note_on_c, 0, 37, 102
2, 141019, Note_on_c, 0, 65, 105
2, 141021, Note_on_c, 0, 68, 104
2, 141050, Control_c, 0, 64, 127
2, 141342, Note_on_c, 0, 65, 0
2, 141347, Note_on_c, 0, 65, 96
2, 141352, Note_on_c, 0, 61, 93
2, 141396, Note_on_c, 0, 68, 0
2, 141400, Note_on_c, 0, 56, 80
2, 141400, Note_on_c, 0, 68, 79
2, 141434, Note_on_c, 0, 61, 0
2, 141438, Note_on_c, 0, 73, 99
2, 141443, Note_on_c, 0, 61, 69
2, 141504, Note_on_c, 0, 49, 0
2, 141511, Note_on_c, 0, 77, 0
2, 141514, Note_on_c, 0, 49, 86
2, 141521, Note_on_c, 0, 77, 85
2, 141538, Note_on_c, 0, 79, 79
2, 141549, Note_on_c, 0, 80, 84
2, 141577, Note_on_c, 0, 85, 93
2, 141583, Note_on_c, 0, 44, 89
2, 141642, Note_on_c, 0, 37, 0
2, 141647, Note_on_c, 0, 89, 96
2, 141652, Note_on_c, 0, 37, 86
2, 141721, Note_on_c, 0, 92, 91
2, 141742, Note_on_c, 0, 85, 0
2, 141752, Note_on_c, 0, 85, 76
2, 141754, Note_on_c, 0, 97, 79
2, 141765, Note_on_c, 0, 97, 0
2, 141803, Note_on_c, 0, 37, 0
2, 141806, Note_on_c, 0, 101, 107
2, 141808, Note_on_c, 0, 37, 99
2, 141813, Note_on_c, 0, 25, 98
2, 141964, Note_on_c, 0, 68, 0
2, 141964, Note_on_c, 0, 80, 0
2, 141971, Note_on_c, 0, 68, 107
2, 141971, Note_on_c, 0, 80, 108
2, 142133, Note_on_c, 0, 65, 0
2, 142133, Note_on_c, 0, 68, 0
2, 142133, Note_on_c, 0, 80, 0
2, 142133, Note_on_c, 0, 92, 0
2, 142137, Note_on_c, 0, 92, 112
2, 142138, Note_on_c, 0, 80, 112
2, 142139, Note_on_c, 0, 65, 96
2, 142141, Note_on_c, 0, 61, 0
2, 142141, Note_on_c, 0, 68, 105
2, 142145, Note_on_c, 0, 56, 0
2, 142145, Note_on_c, 0, 61, 96
2, 142308, Note_on_c, 0, 90, 111
2, 142309, Note_on_c, 0, 78, 113
2, 142419, Note_on_c, 0, 65, 0
2, 142419, Note_on_c, 0, 68, 0
2, 142419, Note_on_c, 0, 61, 0
2, 142419, Note_on_c, 0, 92, 0
2, 142419, Note_on_c, 0, 80, 0
2, 142420, Note_on_c, 0, 37, 0
2, 142420, Note_on_c, 0, 90, 0
2, 142420, Note_on_c, 0, 85, 0
2, 142420, Note_on_c, 0, 78, 0
2, 142423, Control_c, 0, 64, 0
2, 142425, Note_on_c, 0, 44, 0
2, 142433, Note_on_c, 0, 25, 0
2, 142433, Note_on_c, 0, 73, 0
2, 142433, Note_on_c, 0, 79, 0
2, 142440, Note_on_c, 0, 49, 0
2, 142440, Note_on_c, 0, 77, 0
2, 142440, Note_on_c, 0, 101, 0
2, 142464, Note_on_c, 0, 89, 0
2, 142468, Note_on_c, 0, 89, 113
2, 142469, Note_on_c, 0, 77, 111
2, 142469, Note_on_c, 0, 85, 110
2, 142472, Note_on_c, 0, 30, 99
2, 142473, Note_on_c, 0, 82, 106
2, 142502, Control_c, 0, 64, 127
2, 142702, Note_on_c, 0, 54, 96
2, 142702, Note_on_c, 0, 42, 82
2, 142791, Note_on_c, 0, 56, 77
2, 142803, Note_on_c, 0, 68, 88
2, 142809, Note_on_c, 0, 68, 0
2, 142813, Note_on_c, 0, 60, 99
2, 142819, Note_on_c, 0, 66, 59
2, 142974, Note_on_c, 0, 61, 94
2, 143001, Note_on_c, 0, 54, 0
2, 143005, Note_on_c, 0, 54, 58
2, 143124, Note_on_c, 0, 54, 0
2, 143124, Note_on_c, 0, 56, 0
2, 143124, Note_on_c, 0, 89, 0
2, 143132, Note_on_c, 0, 60, 0
2, 143132, Note_on_c, 0, 77, 0
2, 143133, Note_on_c, 0, 54, 95
2, 143133, Note_on_c, 0, 56, 76
2, 143135, Note_on_c, 0, 89, 109
2, 143136, Note_on_c, 0, 60, 88
2, 143136, Note_on_c, 0, 77, 102
2, 143301, Note_on_c, 0, 61, 0
2, 143301, Note_on_c, 0, 66, 0
2, 143307, Note_on_c, 0, 61, 95
2, 143308, Note_on_c, 0, 82, 0
2, 143308, Note_on_c, 0, 85, 0
2, 143309, Note_on_c, 0, 66, 95
2, 143309, Note_on_c, 0, 90, 111
2, 143312, Note_on_c, 0, 68, 97
2, 143313, Note_on_c, 0, 78, 110
2, 143317, Note_on_c, 0, 85, 102
2, 143319, Note_on_c, 0, 82, 96
2, 143470, Note_on_c, 0, 56, 0
2, 143477, Note_on_c, 0, 56, 97
2, 143616, Note_on_c, 0, 54, 0
2, 143627, Note_on_c, 0, 54, 69
2, 143646, Note_on_c, 0, 77, 0
2, 143646, Note_on_c, 0, 85, 0
2, 143646, Note_on_c, 0, 89, 0
2, 143653, Note_on_c, 0, 89, 109
2, 143656, Note_on_c, 0, 85, 107
2, 143657, Note_on_c, 0, 77, 105
2, 143658, Note_on_c, 0, 94, 94
2, 143736, Control_c, 0, 64, 0
2, 143743, Note_on_c, 0, 54, 0
2, 143743, Note_on_c, 0, 42, 0
2, 143744, Note_on_c, 0, 61, 0
2, 143744, Note_on_c, 0, 60, 0
2, 143744, Note_on_c, 0, 56, 0
2, 143744, Note_on_c, 0, 90, 0
2, 143745, Note_on_c, 0, 78, 0
2, 143748, Note_on_c, 0, 94, 0
2, 143761, Note_on_c, 0, 68, 0
2, 143769, Note_on_c, 0, 66, 0
2, 143784, Note_on_c, 0, 30, 0
2, 143797, Note_on_c, 0, 32, 101
2, 143799, Note_on_c, 0, 44, 105
2, 143800, Control_c, 0, 64, 127
2, 143986, Note_on_c, 0, 87, 104
2, 143986, Note_on_c, 0, 66, 82
2, 143987, Note_on_c, 0, 84, 95
2, 143988, Note_on_c, 0, 56, 84
2, 143989, Note_on_c, 0, 75, 96
2, 143989, Note_on_c, 0, 80, 88
2, 143995, Note_on_c, 0, 68, 90
2, 144118, Note_on_c, 0, 58, 86
2, 144152, Note_on_c, 0, 61, 91
2, 144314, Note_on_c, 0, 85, 0
2, 144323, Note_on_c, 0, 85, 110
2, 144325, Note_on_c, 0, 63, 84
2, 144325, Note_on_c, 0, 73, 104
2, 144468, Note_on_c, 0, 56, 0
2, 144478, Note_on_c, 0, 56, 90
2, 144645, Note_on_c, 0, 63, 0
2, 144645, Note_on_c, 0, 75, 0
2, 144645, Note_on_c, 0, 80, 0
2, 144645, Note_on_c, 0, 84, 0
2, 144649, Note_on_c, 0, 87, 0
2, 144649, Note_on_c, 0, 63, 85
2, 144650, Note_on_c, 0, 84, 106
2, 144650, Note_on_c, 0, 60, 92
2, 144653, Note_on_c, 0, 75, 103
2, 144653, Note_on_c, 0, 72, 102
2, 144656, Note_on_c, 0, 80, 97
2, 144806, Note_on_c, 0, 56, 0
2, 144813, Note_on_c, 0, 56, 88
2, 144900, Note_on_c, 0, 51, 89
2, 144975, Note_on_c, 0, 44, 0
2, 144975, Note_on_c, 0, 68, 0
2, 144975, Note_on_c, 0, 80, 0
2, 144981, Note_on_c, 0, 44, 97
2, 144984, Note_on_c, 0, 80, 106
2, 144984, Note_on_c, 0, 68, 102
2, 145095, Note_on_c, 0, 73, 0
2, 145095, Note_on_c, 0, 80, 0
2, 145095, Note_on_c, 0, 61, 0
2, 145095, Note_on_c, 0, 68, 0
2, 145096, Note_on_c, 0, 85, 0
2, 145096, Note_on_c, 0, 63, 0
2, 145096, Note_on_c, 0, 66, 0
2, 145096, Note_on_c, 0, 72, 0
2, 145096, Note_on_c, 0, 56, 0
2, 145096, Note_on_c, 0, 75, 0
2, 145096, Note_on_c, 0, 58, 0
2, 145097, Note_on_c, 0, 84, 0
2, 145098, Note_on_c, 0, 44, 0
2, 145098, Note_on_c, 0, 32, 0
2, 145100, Control_c, 0, 64, 0
2, 145105, Note_on_c, 0, 77, 0
2, 145105, Note_on_c, 0, 82, 0
2, 145105, Note_on_c, 0, 89, 0
2, 145113, Note_on_c, 0, 51, 0
2, 145113, Note_on_c, 0, 60, 0
2, 145146, Note_on_c, 0, 75, 107
2, 145146, Note_on_c, 0, 44, 95
2, 145147, Note_on_c, 0, 80, 98
2, 145147, Note_on_c, 0, 87, 101
2, 145148, Note_on_c, 0, 37, 98
2, 145152, Note_on_c, 0, 85, 95
2, 145155, Note_on_c, 0, 76, 100
2, 145159, Control_c, 0, 64, 127
2, 145317, Note_on_c, 0, 49, 85
2, 145383, Note_on_c, 0, 53, 69
2, 145485, Note_on_c, 0, 56, 75
2, 145503, Note_on_c, 0, 61, 93
2, 145651, Note_on_c, 0, 75, 0
2, 145651, Note_on_c, 0, 87, 0
2, 145661, Note_on_c, 0, 63, 91
2, 145662, Note_on_c, 0, 87, 108
2, 145662, Note_on_c, 0, 75, 107
2, 145804, Note_on_c, 0, 49, 0
2, 145812, Note_on_c, 0, 49, 88
2, 145820, Note_on_c, 0, 75, 0
2, 145820, Note_on_c, 0, 87, 0
2, 145827, Note_on_c, 0, 80, 0
2, 145830, Note_on_c, 0, 87, 109
2, 145831, Note_on_c, 0, 75, 108
2, 145832, Note_on_c, 0, 80, 101
2, 145837, Note_on_c, 0, 77, 103
2, 145973, Note_on_c, 0, 56, 0
2, 145973, Note_on_c, 0, 63, 0
2, 145979, Note_on_c, 0, 63, 83
2, 145979, Note_on_c, 0, 68, 86
2, 145981, Note_on_c, 0, 56, 80
2, 146158, Note_on_c, 0, 37, 0
2, 146158, Note_on_c, 0, 49, 0
2, 146158, Note_on_c, 0, 85, 0
2, 146167, Note_on_c, 0, 37, 96
2, 146168, Note_on_c, 0, 49, 84
2, 146169, Note_on_c, 0, 85, 106
2, 146173, Note_on_c, 0, 73, 100
2, 146265, Note_on_c, 0, 49, 0
2, 146275, Note_on_c, 0, 49, 23
2, 146319, Note_on_c, 0, 37, 0
2, 146328, Note_on_c, 0, 37, 80
2, 146334, Note_on_c, 0, 75, 0
2, 146334, Note_on_c, 0, 77, 0
2, 146334, Note_on_c, 0, 80, 0
2, 146334, Note_on_c, 0, 87, 0
2, 146336, Note_on_c, 0, 36, 100
2, 146336, Note_on_c, 0, 48, 94
2, 146339, Note_on_c, 0, 75, 109
2, 146339, Note_on_c, 0, 87, 111
2, 146341, Note_on_c, 0, 80, 103
2, 146341, Note_on_c, 0, 77, 104
2, 146392, Note_on_c, 0, 56, 0
2, 146396, Note_on_c, 0, 53, 0
2, 146397, Note_on_c, 0, 49, 0
2, 146398, Note_on_c, 0, 61, 0
2, 146399, Note_on_c, 0, 85, 0
2, 146399, Note_on_c, 0, 73, 0
2, 146399, Note_on_c, 0, 37, 0
2, 146400, Note_on_c, 0, 63, 0
2, 146400, Note_on_c, 0, 68, 0
2, 146401, Note_on_c, 0, 48, 0
2, 146403, Note_on_c, 0, 36, 0
2, 146403, Note_on_c, 0, 44, 0
2, 146403, Note_on_c, 0, 76, 0
2, 146408, Control_c, 0, 64, 0
2, 146442, Control_c, 0, 64, 127
2, 146499, Note_on_c, 0, 46, 104
2, 146500, Note_on_c, 0, 34, 98
2, 146657, Note_on_c, 0, 75, 0
2, 146664, Note_on_c, 0, 46, 0
2, 146664, Note_on_c, 0, 80, 0
2, 146669, Note_on_c, 0, 92, 109
2, 146669, Note_on_c, 0, 46, 89
2, 146672, Note_on_c, 0, 80, 109
2, 146753, Note_on_c, 0, 53, 69
2, 146833, Note_on_c, 0, 87, 0
2, 146837, Note_on_c, 0, 90, 106
2, 146839, Note_on_c, 0, 78, 107
2, 146844, Note_on_c, 0, 87, 83
2, 146850, Note_on_c, 0, 70, 88
2, 146856, Note_on_c, 0, 70, 0
2, 146869, Note_on_c, 0, 58, 83
2, 146877, Note_on_c, 0, 62, 81
2, 147010, Note_on_c, 0, 77, 0
2, 147013, Note_on_c, 0, 89, 111
2, 147014, Note_on_c, 0, 70, 106
2, 147014, Note_on_c, 0, 77, 108
2, 147015, Note_on_c, 0, 82, 107
2, 147016, Note_on_c, 0, 86, 102
2, 147066, Note_on_c, 0, 65, 55
2, 147118, Note_on_c, 0, 62, 0
2, 147129, Note_on_c, 0, 62, 77
2, 147240, Note_on_c, 0, 58, 0
2, 147246, Note_on_c, 0, 58, 85
2, 147333, Note_on_c, 0, 53, 0
2, 147338, Note_on_c, 0, 53, 79
2, 147434, Note_on_c, 0, 50, 80
2, 147494, Note_on_c, 0, 46, 0
2, 147504, Note_on_c, 0, 34, 0
2, 147504, Note_on_c, 0, 46, 100
2, 147655, Note_on_c, 0, 89, 0
2, 147663, Note_on_c, 0, 77, 0
2, 147667, Note_on_c, 0, 89, 107
2, 147671, Note_on_c, 0, 77, 99
2, 147757, Note_on_c, 0, 65, 0
2, 147758, Note_on_c, 0, 62, 0
2, 147758, Note_on_c, 0, 77, 0
2, 147758, Note_on_c, 0, 53, 0
2, 147758, Note_on_c, 0, 82, 0
2, 147758, Note_on_c, 0, 78, 0
2, 147758, Note_on_c, 0, 89, 0
2, 147758, Note_on_c, 0, 92, 0
2, 147759, Note_on_c, 0, 90, 0
2, 147759, Note_on_c, 0, 58, 0
2, 147759, Note_on_c, 0, 50, 0
2, 147759, Note_on_c, 0, 70, 0
2, 147759, Note_on_c, 0, 46, 0
2, 147760, Control_c, 0, 64, 0
2, 147770, Note_on_c, 0, 80, 0
2, 147770, Note_on_c, 0, 86, 0
2, 147770, Note_on_c, 0, 87, 0
2, 147817, Note_on_c, 0, 51, 105
2, 147820, Note_on_c, 0, 39, 98
2, 147827, Note_on_c, 0, 85, 101
2, 147828, Note_on_c, 0, 77, 105
2, 147828, Note_on_c, 0, 89, 108
2, 147828, Note_on_c, 0, 46, 88
2, 147829, Note_on_c, 0, 82, 100
2, 147832, Control_c, 0, 64, 127
2, 147875, Note_on_c, 0, 86, 45
2, 147970, Note_on_c, 0, 46, 0
2, 147978, Note_on_c, 0, 51, 0
2, 147980, Note_on_c, 0, 46, 73
2, 147983, Note_on_c, 0, 51, 75
2, 148082, Note_on_c, 0, 54, 73
2, 148162, Note_on_c, 0, 51, 0
2, 148162, Note_on_c, 0, 82, 0
2, 148168, Note_on_c, 0, 51, 83
2, 148170, Note_on_c, 0, 82, 94
2, 148172, Note_on_c, 0, 70, 87
2, 148331, Note_on_c, 0, 85, 0
2, 148342, Note_on_c, 0, 85, 104
2, 148343, Note_on_c, 0, 61, 89
2, 148344, Note_on_c, 0, 73, 99
2, 148344, Note_on_c, 0, 75, 97
2, 148345, Note_on_c, 0, 58, 89
2, 148346, Note_on_c, 0, 78, 97
2, 148492, Note_on_c, 0, 51, 0
2, 148498, Note_on_c, 0, 51, 91
2, 148669, Note_on_c, 0, 58, 0
2, 148669, Note_on_c, 0, 75, 0
2, 148676, Note_on_c, 0, 87, 108
2, 148677, Note_on_c, 0, 54, 0
2, 148679, Note_on_c, 0, 75, 102
2, 148679, Note_on_c, 0, 58, 74
2, 148681, Note_on_c, 0, 54, 85
2, 148830, Note_on_c, 0, 51, 0
2, 148834, Note_on_c, 0, 51, 90
2, 148899, Note_on_c, 0, 46, 0
2, 148905, Note_on_c, 0, 46, 85
2, 149015, Note_on_c, 0, 86, 0
2, 149015, Note_on_c, 0, 87, 0
2, 149017, Note_on_c, 0, 92, 111
2, 149019, Note_on_c, 0, 84, 97
2, 149020, Note_on_c, 0, 87, 100
2, 149021, Note_on_c, 0, 80, 104
2, 149097, Control_c, 0, 64, 0
2, 149098, Note_on_c, 0, 46, 0
2, 149098, Note_on_c, 0, 77, 0
2, 149099, Note_on_c, 0, 51, 0
2, 149099, Note_on_c, 0, 58, 0
2, 149099, Note_on_c, 0, 78, 0
2, 149100, Note_on_c, 0, 85, 0
2, 149100, Note_on_c, 0, 39, 0
2, 149100, Note_on_c, 0, 75, 0
2, 149100, Note_on_c, 0, 89, 0
2, 149100, Note_on_c, 0, 61, 0
2, 149101, Note_on_c, 0, 70, 0
2, 149107, Note_on_c, 0, 73, 0
2, 149114, Note_on_c, 0, 54, 0
2, 149122, Note_on_c, 0, 82, 0
2, 149160, Control_c, 0, 64, 127
2, 149164, Note_on_c, 0, 44, 99
2, 149164, Note_on_c, 0, 32, 93
2, 149322, Note_on_c, 0, 92, 0
2, 149329, Note_on_c, 0, 80, 0
2, 149332, Note_on_c, 0, 92, 102
2, 149334, Note_on_c, 0, 80, 95
2, 149360, Note_on_c, 0, 44, 0
2, 149364, Note_on_c, 0, 44, 73
2, 149382, Note_on_c, 0, 51, 83
2, 149498, Note_on_c, 0, 87, 0
2, 149503, Note_on_c, 0, 90, 103
2, 149506, Note_on_c, 0, 78, 99
2, 149507, Note_on_c, 0, 87, 85
2, 149675, Note_on_c, 0, 78, 0
2, 149675, Note_on_c, 0, 90, 0
2, 149679, Note_on_c, 0, 66, 90
2, 149683, Note_on_c, 0, 51, 0
2, 149683, Note_on_c, 0, 84, 0
2, 149683, Note_on_c, 0, 87, 0
2, 149685, Note_on_c, 0, 90, 109
2, 149686, Note_on_c, 0, 78, 107
2, 149687, Note_on_c, 0, 51, 89
2, 149687, Note_on_c, 0, 84, 90
2, 149687, Note_on_c, 0, 60, 93
2, 149688, Note_on_c, 0, 56, 81
2, 149689, Note_on_c, 0, 87, 95
2, 149690, Note_on_c, 0, 66, 0
2, 149864, Note_on_c, 0, 89, 106
2, 149868, Note_on_c, 0, 77, 97
2, 150013, Note_on_c, 0, 87, 0
2, 150019, Note_on_c, 0, 75, 95
2, 150020, Note_on_c, 0, 87, 102
2, 150174, Note_on_c, 0, 60, 0
2, 150174, Note_on_c, 0, 90, 0
2, 150182, Note_on_c, 0, 51, 0
2, 150182, Note_on_c, 0, 56, 0
2, 150182, Note_on_c, 0, 78, 0
2, 150185, Note_on_c, 0, 90, 110
2, 150185, Note_on_c, 0, 60, 95
2, 150186, Note_on_c, 0, 78, 107
2, 150186, Note_on_c, 0, 56, 88
2, 150187, Note_on_c, 0, 63, 87
2, 150189, Note_on_c, 0, 51, 93
2, 150343, Note_on_c, 0, 89, 0
2, 150351, Note_on_c, 0, 77, 0
2, 150351, Note_on_c, 0, 80, 0
2, 150354, Note_on_c, 0, 89, 113
2, 150355, Note_on_c, 0, 80, 102
2, 150355, Note_on_c, 0, 85, 106
2, 150358, Note_on_c, 0, 77, 107
2, 150435, Note_on_c, 0, 63, 0
2, 150439, Note_on_c, 0, 78, 0
2, 150439, Note_on_c, 0, 56, 0
2, 150440, Note_on_c, 0, 90, 0
2, 150440, Note_on_c, 0, 51, 0
2, 150440, Control_c, 0, 64, 0
2, 150440, Note_on_c, 0, 44, 0
2, 150440, Note_on_c, 0, 75, 0
2, 150440, Note_on_c, 0, 84, 0
2, 150440, Note_on_c, 0, 60, 0
2, 150451, Note_on_c, 0, 32, 0
2, 150458, Note_on_c, 0, 92, 0
2, 150466, Note_on_c, 0, 87, 0
2, 150504, Control_c, 0, 64, 127
2, 150510, Note_on_c, 0, 46, 105
2, 150513, Note_on_c, 0, 34, 100
2, 150593, Note_on_c, 0, 87, 78
2, 150635, Note_on_c, 0, 85, 0
2, 150640, Note_on_c, 0, 85, 74
2, 150689, Note_on_c, 0, 80, 0
2, 150700, Note_on_c, 0, 80, 85
2, 150727, Note_on_c, 0, 77, 0
2, 150737, Note_on_c, 0, 77, 83
2, 150757, Note_on_c, 0, 61, 90
2, 150760, Note_on_c, 0, 53, 82
2, 150815, Note_on_c, 0, 75, 76
2, 150878, Note_on_c, 0, 73, 54
2, 150917, Note_on_c, 0, 68, 80
2, 150976, Note_on_c, 0, 65, 74
2, 150978, Note_on_c, 0, 53, 0
2, 150996, Note_on_c, 0, 46, 0
2, 151004, Note_on_c, 0, 34, 0
2, 151007, Note_on_c, 0, 46, 90
2, 151008, Note_on_c, 0, 34, 75
2, 151153, Control_c, 0, 64, 0
2, 151155, Note_on_c, 0, 46, 0
2, 151155, Note_on_c, 0, 85, 0
2, 151156, Note_on_c, 0, 68, 0
2, 151156, Note_on_c, 0, 87, 0
2, 151156, Note_on_c, 0, 61, 0
2, 151157, Note_on_c, 0, 77, 0
2, 151159, Note_on_c, 0, 75, 0
2, 151165, Note_on_c, 0, 34, 0
2, 151165, Note_on_c, 0, 73, 0
2, 151165, Note_on_c, 0, 80, 0
2, 151165, Note_on_c, 0, 89, 0
2, 151180, Note_on_c, 0, 65, 0
2, 151185, Note_on_c, 0, 36, 97
2, 151186, Note_on_c, 0, 65, 76
2, 151186, Note_on_c, 0, 48, 104
2, 151219, Control_c, 0, 64, 127
2, 151260, Note_on_c, 0, 60, 73
2, 151326, Note_on_c, 0, 63, 83
2, 151385, Note_on_c, 0, 68, 86
2, 151426, Note_on_c, 0, 60, 0
2, 151426, Note_on_c, 0, 65, 0
2, 151433, Note_on_c, 0, 60, 95
2, 151437, Note_on_c, 0, 56, 85
2, 151492, Note_on_c, 0, 72, 88
2, 151548, Note_on_c, 0, 75, 73
2, 151574, Note_on_c, 0, 78, 94
2, 151664, Note_on_c, 0, 48, 0
2, 151674, Note_on_c, 0, 84, 96
2, 151675, Note_on_c, 0, 48, 95
2, 151738, Note_on_c, 0, 87, 85
2, 151846, Control_c, 0, 64, 0
2, 151849, Note_on_c, 0, 87, 0
2, 151849, Note_on_c, 0, 56, 0
2, 151849, Note_on_c, 0, 84, 0
2, 151850, Note_on_c, 0, 68, 0
2, 151850, Note_on_c, 0, 75, 0
2, 151850, Note_on_c, 0, 89, 102
2, 151851, Note_on_c, 0, 72, 0
2, 151851, Note_on_c, 0, 63, 0
2, 151851, Note_on_c, 0, 78, 0
2, 151851, Note_on_c, 0, 48, 0
2, 151859, Note_on_c, 0, 49, 96
2, 151862, Note_on_c, 0, 37, 97
2, 151864, Note_on_c, 0, 60, 0
2, 151872, Note_on_c, 0, 36, 0
2, 151902, Control_c, 0, 64, 127
2, 151929, Note_on_c, 0, 87, 93
2, 151990, Note_on_c, 0, 85, 81
2, 152058, Note_on_c, 0, 80, 79
2, 152115, Note_on_c, 0, 61, 91
2, 152118, Note_on_c, 0, 53, 79
2, 152121, Note_on_c, 0, 77, 87
2, 152194, Note_on_c, 0, 80, 0
2, 152199, Note_on_c, 0, 79, 68
2, 152205, Note_on_c, 0, 80, 81
2, 152209, Note_on_c, 0, 79, 0
2, 152265, Note_on_c, 0, 82, 78
2, 152332, Note_on_c, 0, 49, 0
2, 152336, Note_on_c, 0, 84, 90
2, 152342, Note_on_c, 0, 49, 90
2, 152378, Note_on_c, 0, 85, 0
2, 152383, Note_on_c, 0, 85, 89
2, 152417, Note_on_c, 0, 87, 0
2, 152425, Note_on_c, 0, 87, 82
2, 152428, Note_on_c, 0, 56, 58
2, 152436, Note_on_c, 0, 68, 83
2, 152471, Note_on_c, 0, 61, 0
2, 152478, Note_on_c, 0, 89, 0
2, 152479, Note_on_c, 0, 61, 89
2, 152489, Note_on_c, 0, 89, 79
2, 152540, Note_on_c, 0, 90, 92
2, 152577, Note_on_c, 0, 92, 88
2, 152586, Note_on_c, 0, 63, 79
2, 152611, Note_on_c, 0, 94, 64
2, 152659, Note_on_c, 0, 96, 91
2, 152672, Note_on_c, 0, 65, 76
2, 152713, Note_on_c, 0, 97, 90
2, 152732, Note_on_c, 0, 68, 0
2, 152741, Note_on_c, 0, 68, 83
2, 152765, Note_on_c, 0, 99, 87
2, 152808, Note_on_c, 0, 65, 0
2, 152813, Note_on_c, 0, 65, 76
2, 152815, Note_on_c, 0, 101, 108
2, 152821, Note_on_c, 0, 61, 0
2, 152825, Note_on_c, 0, 73, 91
2, 152939, Note_on_c, 0, 49, 0
2, 152970, Note_on_c, 0, 77, 0
2, 152976, Note_on_c, 0, 77, 106
2, 153097, Note_on_c, 0, 101, 0
2, 153098, Note_on_c, 0, 99, 0
2, 153098, Note_on_c, 0, 97, 0
2, 153099, Note_on_c, 0, 63, 0
2, 153099, Note_on_c, 0, 89, 0
2, 153099, Note_on_c, 0, 92, 0
2, 153099, Note_on_c, 0, 87, 0
2, 153100, Note_on_c, 0, 80, 0
2, 153100, Note_on_c, 0, 82, 0
2, 153100, Note_on_c, 0, 68, 0
2, 153101, Note_on_c, 0, 56, 0
2, 153101, Note_on_c, 0, 85, 0
2, 153102, Note_on_c, 0, 73, 0
2, 153103, Control_c, 0, 64, 0
2, 153108, Note_on_c, 0, 37, 0
2, 153108, Note_on_c, 0, 94, 0
2, 153116, Note_on_c, 0, 53, 0
2, 153116, Note_on_c, 0, 90, 0
2, 153116, Note_on_c, 0, 96, 0
2, 153123, Note_on_c, 0, 65, 0
2, 153123, Note_on_c, 0, 84, 0
2, 153139, Note_on_c, 0, 77, 0
2, 153144, Note_on_c, 0, 77, 106
2, 153144, Note_on_c, 0, 30, 86
2, 153149, Note_on_c, 0, 42, 96
2, 153150, Note_on_c, 0, 70, 102
2, 153185, Control_c, 0, 64, 127
2, 153300, Note_on_c, 0, 30, 0
2, 153305, Note_on_c, 0, 30, 74
2, 153308, Note_on_c, 0, 42, 0
2, 153319, Note_on_c, 0, 42, 79
2, 153479, Note_on_c, 0, 54, 87
2, 153484, Note_on_c, 0, 70, 0
2, 153489, Note_on_c, 0, 70, 98
2, 153650, Note_on_c, 0, 61, 88
2, 153652, Note_on_c, 0, 73, 108
2, 153653, Note_on_c, 0, 70, 0
2, 153657, Note_on_c, 0, 58, 78
2, 153658, Note_on_c, 0, 70, 89
2, 153661, Note_on_c, 0, 66, 93
2, 153692, Note_on_c, 0, 30, 0
2, 153815, Note_on_c, 0, 54, 0
2, 153819, Note_on_c, 0, 54, 87
2, 153984, Note_on_c, 0, 58, 0
2, 153984, Note_on_c, 0, 61, 0
2, 153987, Note_on_c, 0, 75, 109
2, 153989, Note_on_c, 0, 58, 92
2, 153993, Note_on_c, 0, 61, 75
2, 154137, Note_on_c, 0, 54, 0
2, 154147, Note_on_c, 0, 54, 94
2, 154327, Note_on_c, 0, 80, 107
2, 154329, Note_on_c, 0, 75, 0
2, 154334, Note_on_c, 0, 68, 101
2, 154334, Note_on_c, 0, 72, 95
2, 154334, Note_on_c, 0, 75, 94
2, 154401, Control_c, 0, 64, 0
2, 154406, Note_on_c, 0, 77, 0
2, 154408, Note_on_c, 0, 42, 0
2, 154409, Note_on_c, 0, 66, 0
2, 154409, Note_on_c, 0, 61, 0
2, 154409, Note_on_c, 0, 58, 0
2, 154409, Note_on_c, 0, 73, 0
2, 154409, Note_on_c, 0, 70, 0
2, 154429, Note_on_c, 0, 54, 0
2, 154490, Control_c, 0, 64, 127
2, 154492, Note_on_c, 0, 32, 91
2, 154492, Note_on_c, 0, 44, 92
2, 154652, Note_on_c, 0, 80, 0
2, 154662, Note_on_c, 0, 80, 102
2, 154663, Note_on_c, 0, 51, 82
2, 154831, Note_on_c, 0, 78, 98
2, 154832, Note_on_c, 0, 56, 79
2, 154982, Note_on_c, 0, 78, 0
2, 154990, Note_on_c, 0, 68, 0
2, 154990, Note_on_c, 0, 72, 0
2, 154993, Note_on_c, 0, 78, 110
2, 155000, Note_on_c, 0, 68, 96
2, 155001, Note_on_c, 0, 72, 86
2, 155008, Note_on_c, 0, 58, 85
2, 155153, Note_on_c, 0, 60, 86
2, 155169, Note_on_c, 0, 77, 96
2, 155312, Note_on_c, 0, 75, 0
2, 155319, Note_on_c, 0, 61, 88
2, 155319, Note_on_c, 0, 75, 104
2, 155323, Note_on_c, 0, 73, 88
2, 155462, Note_on_c, 0, 63, 87
2, 155473, Note_on_c, 0, 78, 0
2, 155481, Note_on_c, 0, 60, 0
2, 155481, Note_on_c, 0, 68, 0
2, 155481, Note_on_c, 0, 72, 0
2, 155484, Note_on_c, 0, 78, 102
2, 155485, Note_on_c, 0, 72, 91
2, 155486, Note_on_c, 0, 68, 86
2, 155491, Note_on_c, 0, 60, 75
2, 155650, Note_on_c, 0, 68, 0
2, 155650, Note_on_c, 0, 73, 0
2, 155650, Note_on_c, 0, 77, 0
2, 155657, Note_on_c, 0, 77, 106
2, 155659, Note_on_c, 0, 68, 96
2, 155660, Note_on_c, 0, 65, 102
2, 155661, Note_on_c, 0, 73, 96
2, 155737, Control_c, 0, 64, 0
2, 155738, Note_on_c, 0, 63, 0
2, 155738, Note_on_c, 0, 58, 0
2, 155738, Note_on_c, 0, 72, 0
2, 155738, Note_on_c, 0, 61, 0
2, 155738, Note_on_c, 0, 75, 0
2, 155738, Note_on_c, 0, 51, 0
2, 155738, Note_on_c, 0, 78, 0
2, 155738, Note_on_c, 0, 80, 0
2, 155738, Note_on_c, 0, 56, 0
2, 155739, Note_on_c, 0, 44, 0
2, 155750, Note_on_c, 0, 60, 0
2, 155758, Note_on_c, 0, 32, 0
2, 155830, Note_on_c, 0, 30, 85
2, 155830, Note_on_c, 0, 42, 85
2, 155857, Control_c, 0, 64, 127
2, 155996, Note_on_c, 0, 68, 0
2, 156001, Note_on_c, 0, 80, 95
2, 156005, Note_on_c, 0, 68, 85
2, 156157, Note_on_c, 0, 80, 0
2, 156164, Note_on_c, 0, 92, 93
2, 156167, Note_on_c, 0, 80, 86
2, 156175, Note_on_c, 0, 54, 82
2, 156247, Note_on_c, 0, 90, 90
2, 156252, Note_on_c, 0, 78, 90
2, 156341, Note_on_c, 0, 65, 0
2, 156346, Note_on_c, 0, 65, 80
2, 156351, Note_on_c, 0, 58, 71
2, 156351, Note_on_c, 0, 61, 71
2, 156426, Note_on_c, 0, 77, 0
2, 156432, Note_on_c, 0, 89, 98
2, 156436, Note_on_c, 0, 77, 83
2, 156595, Note_on_c, 0, 89, 0
2, 156602, Note_on_c, 0, 77, 0
2, 156606, Note_on_c, 0, 89, 96
2, 156613, Note_on_c, 0, 77, 80
2, 156656, Note_on_c, 0, 54, 0
2, 156668, Note_on_c, 0, 54, 64
2, 156668, Note_on_c, 0, 66, 66
2, 156764, Note_on_c, 0, 77, 0
2, 156764, Note_on_c, 0, 89, 0
2, 156769, Note_on_c, 0, 89, 78
2, 156771, Note_on_c, 0, 77, 78
2, 156864, Note_on_c, 0, 58, 0
2, 156864, Note_on_c, 0, 66, 0
2, 156868, Note_on_c, 0, 63, 65
2, 156868, Note_on_c, 0, 66, 60
2, 156868, Note_on_c, 0, 84, 101
2, 156869, Note_on_c, 0, 58, 67
2, 156876, Note_on_c, 0, 72, 77
2, 157056, Note_on_c, 0, 73, 0
2, 157058, Note_on_c, 0, 85, 93
2, 157062, Note_on_c, 0, 73, 68
2, 157163, Note_on_c, 0, 30, 0
2, 157166, Control_c, 0, 64, 0
2, 157169, Note_on_c, 0, 58, 0
2, 157169, Note_on_c, 0, 90, 0
2, 157169, Note_on_c, 0, 68, 0
2, 157169, Note_on_c, 0, 89, 0
2, 157170, Note_on_c, 0, 92, 0
2, 157170, Note_on_c, 0, 77, 0
2, 157170, Note_on_c, 0, 66, 0
2, 157170, Note_on_c, 0, 78, 0
2, 157170, Note_on_c, 0, 80, 0
2, 157170, Note_on_c, 0, 72, 0
2, 157171, Note_on_c, 0, 65, 0
2, 157171, Note_on_c, 0, 84, 0
2, 157172, Note_on_c, 0, 42, 0
2, 157186, Note_on_c, 0, 54, 0
2, 157186, Note_on_c, 0, 61, 0
2, 157186, Note_on_c, 0, 63, 0
2, 157208, Note_on_c, 0, 42, 79
2, 157210, Note_on_c, 0, 30, 68
2, 157248, Note_on_c, 0, 30, 0
2, 157263, Control_c, 0, 64, 127
2, 157379, Note_on_c, 0, 80, 89
2, 157379, Note_on_c, 0, 68, 82
2, 157470, Note_on_c, 0, 73, 0
2, 157551, Note_on_c, 0, 54, 73
2, 157553, Note_on_c, 0, 94, 83
2, 157558, Note_on_c, 0, 82, 69
2, 157643, Note_on_c, 0, 90, 93
2, 157648, Note_on_c, 0, 78, 87
2, 157734, Note_on_c, 0, 65, 75
2, 157743, Note_on_c, 0, 61, 70
2, 157743, Note_on_c, 0, 58, 65
2, 157847, Note_on_c, 0, 89, 85
2, 157849, Note_on_c, 0, 77, 80
2, 158115, Note_on_c, 0, 68, 0
2, 158120, Note_on_c, 0, 68, 82
2, 158292, Note_on_c, 0, 80, 0
2, 158300, Note_on_c, 0, 80, 91
2, 158302, Note_on_c, 0, 92, 80
2, 158309, Note_on_c, 0, 58, 0
2, 158461, Note_on_c, 0, 78, 0
2, 158466, Note_on_c, 0, 78, 89
2, 158638, Note_on_c, 0, 77, 0
2, 158649, Note_on_c, 0, 77, 92
2, 158651, Note_on_c, 0, 61, 0
2, 158651, Note_on_c, 0, 89, 0
2, 158651, Note_on_c, 0, 68, 0
2, 158651, Note_on_c, 0, 90, 0
2, 158651, Note_on_c, 0, 94, 0
2, 158652, Control_c, 0, 64, 0
2, 158652, Note_on_c, 0, 92, 0
2, 158652, Note_on_c, 0, 78, 0
2, 158652, Note_on_c, 0, 54, 0
2, 158652, Note_on_c, 0, 82, 0
2, 158652, Note_on_c, 0, 80, 0
2, 158655, Note_on_c, 0, 43, 60
2, 158658, Note_on_c, 0, 42, 0
2, 158661, Note_on_c, 0, 65, 0
2, 158665, Note_on_c, 0, 73, 69
2, 158668, Note_on_c, 0, 85, 0
2, 158671, Note_on_c, 0, 65, 62
2, 158674, Note_on_c, 0, 70, 55
2, 158753, Control_c, 0, 64, 127
2, 158799, Note_on_c, 0, 43, 0
2, 158830, Note_on_c, 0, 55, 75
2, 158992, Note_on_c, 0, 58, 69
2, 159160, Note_on_c, 0, 65, 0
2, 159166, Note_on_c, 0, 65, 69
2, 159166, Note_on_c, 0, 61, 66
2, 159336, Note_on_c, 0, 77, 0
2, 159346, Note_on_c, 0, 77, 85
2, 159505, Note_on_c, 0, 58, 0
2, 159513, Note_on_c, 0, 78, 86
2, 159516, Note_on_c, 0, 58, 67
2, 159667, Note_on_c, 0, 65, 0
2, 159674, Note_on_c, 0, 61, 0
2, 159677, Note_on_c, 0, 65, 66
2, 159679, Note_on_c, 0, 61, 66
2, 159851, Note_on_c, 0, 77, 0
2, 159856, Note_on_c, 0, 77, 87
2, 159874, Note_on_c, 0, 73, 0
2, 159880, Note_on_c, 0, 73, 72
2, 159882, Note_on_c, 0, 70, 0
2, 159885, Note_on_c, 0, 66, 69
2, 159886, Note_on_c, 0, 70, 66
2, 159995, Control_c, 0, 64, 0
2, 159998, Note_on_c, 0, 58, 0
2, 159998, Note_on_c, 0, 65, 0
2, 159999, Note_on_c, 0, 61, 0
2, 160000, Note_on_c, 0, 55, 0
2, 160000, Note_on_c, 0, 78, 0
2, 160034, Note_on_c, 0, 42, 65
2, 160104, Control_c, 0, 64, 127
2, 160196, Note_on_c, 0, 75, 86
2, 160199, Note_on_c, 0, 49, 63
2, 160356, Note_on_c, 0, 54, 72
2, 160527, Note_on_c, 0, 73, 0
2, 160532, Note_on_c, 0, 73, 82
2, 160542, Note_on_c, 0, 66, 0
2, 160542, Note_on_c, 0, 70, 0
2, 160544, Note_on_c, 0, 63, 70
2, 160545, Note_on_c, 0, 61, 70
2, 160547, Note_on_c, 0, 66, 71
2, 160553, Note_on_c, 0, 70, 70
2, 160570, Note_on_c, 0, 58, 51
2, 160868, Note_on_c, 0, 72, 80
2, 160872, Note_on_c, 0, 54, 0
2, 160881, Note_on_c, 0, 54, 61
2, 161026, Note_on_c, 0, 63, 0
2, 161037, Note_on_c, 0, 63, 72
2, 161049, Note_on_c, 0, 58, 0
2, 161054, Note_on_c, 0, 58, 64
2, 161057, Note_on_c, 0, 61, 0
2, 161061, Note_on_c, 0, 61, 69
2, 161213, Note_on_c, 0, 68, 79
2, 161359, Note_on_c, 0, 42, 0
2, 161359, Note_on_c, 0, 54, 0
2, 161360, Note_on_c, 0, 63, 0
2, 161360, Control_c, 0, 64, 0
2, 161360, Note_on_c, 0, 73, 0
2, 161360, Note_on_c, 0, 72, 0
2, 161360, Note_on_c, 0, 70, 0
2, 161360, Note_on_c, 0, 68, 0
2, 161360, Note_on_c, 0, 58, 0
2, 161360, Note_on_c, 0, 61, 0
2, 161360, Note_on_c, 0, 66, 0
2, 161372, Note_on_c, 0, 49, 0
2, 161372, Note_on_c, 0, 77, 0
2, 161379, Note_on_c, 0, 75, 0
2, 161384, Note_on_c, 0, 75, 89
2, 161391, Note_on_c, 0, 41, 65
2, 161400, Note_on_c, 0, 68, 79
2, 161400, Note_on_c, 0, 72, 75
2, 161406, Note_on_c, 0, 63, 65
2, 161448, Control_c, 0, 64, 127
2, 161518, Note_on_c, 0, 41, 0
2, 161552, Note_on_c, 0, 53, 71
2, 161721, Note_on_c, 0, 56, 70
2, 161886, Note_on_c, 0, 63, 0
2, 161886, Note_on_c, 0, 75, 0
2, 161892, Note_on_c, 0, 63, 73
2, 161894, Note_on_c, 0, 68, 0
2, 161896, Note_on_c, 0, 75, 86
2, 161900, Note_on_c, 0, 68, 61
2, 161902, Note_on_c, 0, 60, 67
2, 162063, Note_on_c, 0, 75, 0
2, 162067, Note_on_c, 0, 75, 90
2, 162224, Note_on_c, 0, 56, 0
2, 162230, Note_on_c, 0, 56, 69
2, 162393, Note_on_c, 0, 63, 0
2, 162401, Note_on_c, 0, 60, 0
2, 162404, Note_on_c, 0, 63, 71
2, 162410, Note_on_c, 0, 60, 64
2, 162412, Note_on_c, 0, 73, 81
2, 162585, Note_on_c, 0, 75, 0
2, 162591, Note_on_c, 0, 75, 90
2, 162600, Note_on_c, 0, 63, 0
2, 162600, Note_on_c, 0, 72, 0
2, 162608, Note_on_c, 0, 68, 0
2, 162609, Note_on_c, 0, 72, 71
2, 162610, Note_on_c, 0, 63, 68
2, 162612, Note_on_c, 0, 68, 67
2, 162713, Note_on_c, 0, 53, 0
2, 162713, Note_on_c, 0, 60, 0
2, 162714, Note_on_c, 0, 56, 0
2, 162715, Note_on_c, 0, 73, 0
2, 162717, Control_c, 0, 64, 0
2, 162759, Note_on_c, 0, 46, 77
2, 162792, Control_c, 0, 64, 127
2, 162914, Note_on_c, 0, 73, 80
2, 162925, Note_on_c, 0, 53, 63
2, 163077, Note_on_c, 0, 75, 0
2, 163083, Note_on_c, 0, 75, 87
2, 163083, Note_on_c, 0, 60, 74
2, 163259, Note_on_c, 0, 46, 0
2, 163259, Control_c, 0, 64, 0
2, 163262, Note_on_c, 0, 75, 0
2, 163262, Note_on_c, 0, 73, 0
2, 163262, Note_on_c, 0, 53, 0
2, 163262, Note_on_c, 0, 60, 0
2, 163266, Note_on_c, 0, 77, 87
2, 163269, Note_on_c, 0, 63, 0
2, 163276, Note_on_c, 0, 68, 0
2, 163276, Note_on_c, 0, 72, 0
2, 163277, Note_on_c, 0, 61, 69
2, 163288, Note_on_c, 0, 65, 66
2, 163306, Note_on_c, 0, 70, 67
2, 163392, Control_c, 0, 64, 127
2, 163607, Note_on_c, 0, 53, 62
2, 163764, Note_on_c, 0, 46, 61
2, 164098, Note_on_c, 0, 61, 0
2, 164109, Note_on_c, 0, 61, 76
2, 164124, Note_on_c, 0, 58, 58
2, 164128, Note_on_c, 0, 39, 49
2, 164133, Note_on_c, 0, 54, 48
2, 164138, Control_c, 0, 64, 0
2, 164139, Note_on_c, 0, 65, 0
2, 164139, Note_on_c, 0, 53, 0
2, 164140, Note_on_c, 0, 70, 0
2, 164140, Note_on_c, 0, 46, 0
2, 164147, Note_on_c, 0, 77, 0
2, 164229, Control_c, 0, 64, 127
2, 164291, Note_on_c, 0, 51, 62
2, 164436, Note_on_c, 0, 54, 0
2, 164446, Note_on_c, 0, 54, 48
2, 164628, Note_on_c, 0, 58, 0
2, 164628, Note_on_c, 0, 61, 0
2, 164633, Note_on_c, 0, 61, 71
2, 164635, Note_on_c, 0, 58, 58
2, 164644, Control_c, 0, 64, 0
2, 164659, Note_on_c, 0, 39, 0
2, 164663, Note_on_c, 0, 39, 38
2, 164720, Control_c, 0, 64, 127
2, 164981, Note_on_c, 0, 51, 0
2, 164987, Note_on_c, 0, 51, 49
2, 165143, Note_on_c, 0, 39, 0
2, 165152, Note_on_c, 0, 39, 44
2, 165153, Control_c, 0, 64, 0
2, 165166, Note_on_c, 0, 54, 0
2, 165175, Note_on_c, 0, 54, 44
2, 165204, Control_c, 0, 64, 127
2, 165319, Note_on_c, 0, 58, 0
2, 165319, Note_on_c, 0, 61, 0
2, 165324, Note_on_c, 0, 61, 71
2, 165325, Note_on_c, 0, 58, 53
2, 165484, Control_c, 0, 64, 0
2, 165488, Note_on_c, 0, 39, 0
2, 165489, Note_on_c, 0, 58, 0
2, 165489, Note_on_c, 0, 54, 0
2, 165490, Note_on_c, 0, 61, 0
2, 165496, Note_on_c, 0, 51, 0
2, 165499, Note_on_c, 0, 63, 72
2, 165508, Note_on_c, 0, 41, 55
2, 165508, Note_on_c, 0, 56, 61
2, 165513, Note_on_c, 0, 60, 60
2, 165619, Control_c, 0, 64, 127
2, 165680, Note_on_c, 0, 53, 56
2, 165834, Note_on_c, 0, 56, 0
2, 165845, Note_on_c, 0, 56, 62
2, 166010, Note_on_c, 0, 41, 0
2, 166010, Note_on_c, 0, 60, 0
2, 166010, Note_on_c, 0, 63, 0
2, 166014, Control_c, 0, 64, 0
2, 166019, Note_on_c, 0, 41, 51
2, 166020, Note_on_c, 0, 63, 66
2, 166021, Note_on_c, 0, 60, 63
2, 166126, Control_c, 0, 64, 127
2, 166379, Note_on_c, 0, 53, 0
2, 166386, Note_on_c, 0, 53, 62
2, 166540, Note_on_c, 0, 41, 0
2, 166546, Note_on_c, 0, 41, 51
2, 166548, Note_on_c, 0, 56, 0
2, 166551, Note_on_c, 0, 68, 57
2, 166552, Note_on_c, 0, 56, 49
2, 166553, Control_c, 0, 64, 0
2, 166556, Note_on_c, 0, 60, 0
2, 166557, Note_on_c, 0, 63, 0
2, 166566, Note_on_c, 0, 60, 37
2, 166625, Control_c, 0, 64, 127
2, 166686, Note_on_c, 0, 60, 0
2, 166717, Note_on_c, 0, 63, 72
2, 166722, Note_on_c, 0, 60, 52
2, 166874, Control_c, 0, 64, 0
2, 166875, Note_on_c, 0, 63, 0
2, 166875, Note_on_c, 0, 56, 0
2, 166876, Note_on_c, 0, 68, 0
2, 166876, Note_on_c, 0, 60, 0
2, 166876, Note_on_c, 0, 53, 0
2, 166891, Note_on_c, 0, 65, 79
2, 166901, Note_on_c, 0, 41, 0
2, 166905, Note_on_c, 0, 42, 56
2, 166912, Note_on_c, 0, 61, 66
2, 166919, Note_on_c, 0, 58, 59
2, 166986, Control_c, 0, 64, 127
2, 167073, Note_on_c, 0, 54, 66
2, 167239, Note_on_c, 0, 58, 0
2, 167250, Note_on_c, 0, 58, 58
2, 167393, Note_on_c, 0, 42, 0
2, 167393, Note_on_c, 0, 61, 0
2, 167393, Note_on_c, 0, 65, 0
2, 167400, Note_on_c, 0, 58, 0
2, 167403, Note_on_c, 0, 42, 60
2, 167403, Note_on_c, 0, 65, 73
2, 167404, Note_on_c, 0, 61, 65
2, 167404, Control_c, 0, 64, 0
2, 167407, Note_on_c, 0, 58, 54
2, 167413, Note_on_c, 0, 54, 0
2, 167477, Control_c, 0, 64, 127
2, 167760, Note_on_c, 0, 54, 66
2, 167915, Note_on_c, 0, 58, 0
2, 167926, Note_on_c, 0, 58, 72
2, 168099, Note_on_c, 0, 65, 0
2, 168106, Control_c, 0, 64, 0
2, 168106, Note_on_c, 0, 65, 82
2, 168107, Note_on_c, 0, 42, 0
2, 168107, Note_on_c, 0, 58, 0
2, 168107, Note_on_c, 0, 61, 0
2, 168114, Note_on_c, 0, 58, 69
2, 168114, Note_on_c, 0, 61, 74
2, 168115, Note_on_c, 0, 42, 66
2, 168176, Control_c, 0, 64, 127
2, 168452, Note_on_c, 0, 66, 91
2, 168631, Note_on_c, 0, 70, 95
2, 168814, Note_on_c, 0, 42, 0
2, 168816, Note_on_c, 0, 77, 99
2, 168818, Control_c, 0, 64, 0
2, 168819, Note_on_c, 0, 61, 0
2, 168820, Note_on_c, 0, 65, 0
2, 168820, Note_on_c, 0, 54, 0
2, 168820, Note_on_c, 0, 66, 0
2, 168820, Note_on_c, 0, 58, 0
2, 168821, Note_on_c, 0, 70, 0
2, 168824, Note_on_c, 0, 30, 76
2, 168825, Note_on_c, 0, 42, 85
2, 168827, Note_on_c, 0, 73, 84
2, 168830, Note_on_c, 0, 70, 87
2, 168883, Control_c, 0, 64, 127
2, 169198, Note_on_c, 0, 42, 0
2, 169198, Note_on_c, 0, 77, 0
2, 169204, Note_on_c, 0, 89, 104
2, 169205, Note_on_c, 0, 85, 99
2, 169205, Note_on_c, 0, 30, 0
2, 169207, Note_on_c, 0, 42, 99
2, 169208, Note_on_c, 0, 77, 101
2, 169209, Note_on_c, 0, 30, 93
2, 169210, Note_on_c, 0, 82, 86
2, 169390, Note_on_c, 0, 42, 0
2, 169397, Note_on_c, 0, 30, 0
2, 169397, Note_on_c, 0, 77, 0
2, 169397, Note_on_c, 0, 82, 0
2, 169397, Note_on_c, 0, 85, 0
2, 169397, Note_on_c, 0, 89, 0
2, 169400, Note_on_c, 0, 42, 91
2, 169402, Note_on_c, 0, 89, 104
2, 169403, Note_on_c, 0, 85, 99
2, 169405, Note_on_c, 0, 77, 99
2, 169407, Note_on_c, 0, 82, 98
2, 169408, Note_on_c, 0, 30, 88
2, 169597, Note_on_c, 0, 73, 0
2, 169628, Note_on_c, 0, 30, 0
2, 169628, Note_on_c, 0, 42, 0
2, 169628, Note_on_c, 0, 77, 0
2, 169628, Note_on_c, 0, 85, 0
2, 169628, Note_on_c, 0, 89, 0
2, 169633, Note_on_c, 0, 89, 107
2, 169635, Note_on_c, 0, 42, 104
2, 169635, Note_on_c, 0, 82, 0
2, 169638, Note_on_c, 0, 85, 105
2, 169638, Note_on_c, 0, 77, 105
2, 169639, Note_on_c, 0, 30, 101
2, 169640, Note_on_c, 0, 82, 100
2, 169697, Control_c, 0, 64, 0
2, 169758, Note_on_c, 0, 70, 0
2, 169981, Note_on_c, 0, 42, 0
2, 170004, Note_on_c, 0, 30, 0
2, 174243, Note_on_c, 0, 77, 0
2, 174243, Note_on_c, 0, 85, 0
2, 174243, Note_on_c, 0, 89, 0
2, 174251, Note_on_c, 0, 82, 0
2, 174252, End_track
0, 0, End_of_file
