0, 0, Header, 1, 2, 384
1, 0, Start_track
1, 0, Tempo, 500000
1, 0, Time_signature, 4, 2, 24, 8
1, 1, End_track
2, 0, Start_track
2, 7, Control_c, 0, 64, 127
2, 926, Note_on_c, 0, 83, 69
2, 1011, Note_on_c, 0, 78, 73
2, 1083, Note_on_c, 0, 76, 78
2, 1177, Note_on_c, 0, 71, 68
2, 1228, Note_on_c, 0, 76, 0
2, 1235, Note_on_c, 0, 76, 70
2, 1320, Note_on_c, 0, 78, 0
2, 1326, Note_on_c, 0, 78, 85
2, 1390, Note_on_c, 0, 83, 0
2, 1398, Note_on_c, 0, 83, 82
2, 1459, Note_on_c, 0, 78, 0
2, 1463, Note_on_c, 0, 78, 75
2, 1536, Note_on_c, 0, 76, 0
2, 1546, Note_on_c, 0, 76, 68
2, 1605, Note_on_c, 0, 71, 0
2, 1615, Note_on_c, 0, 71, 70
2, 1658, Note_on_c, 0, 76, 0
2, 1667, Note_on_c, 0, 76, 73
2, 1758, Note_on_c, 0, 78, 0
2, 1764, Note_on_c, 0, 78, 80
2, 1835, Note_on_c, 0, 83, 0
2, 1842, Note_on_c, 0, 83, 83
2, 1904, Note_on_c, 0, 78, 0
2, 1912, Note_on_c, 0, 78, 73
2, 1981, Note_on_c, 0, 76, 0
2, 1992, Note_on_c, 0, 76, 73
2, 2065, Note_on_c, 0, 71, 0
2, 2077, Note_on_c, 0, 71, 68
2, 2119, Note_on_c, 0, 76, 0
2, 2126, Note_on_c, 0, 76, 79
2, 2204, Note_on_c, 0, 78, 0
2, 2212, Note_on_c, 0, 78, 83
2, 2265, Note_on_c, 0, 83, 0
2, 2274, Note_on_c, 0, 83, 85
2, 2334, Note_on_c, 0, 78, 0
2, 2343, Note_on_c, 0, 78, 68
2, 2411, Note_on_c, 0, 76, 0
2, 2420, Note_on_c, 0, 76, 70
2, 2496, Note_on_c, 0, 71, 0
2, 2505, Note_on_c, 0, 71, 66
2, 2565, Note_on_c, 0, 76, 0
2, 2576, Note_on_c, 0, 76, 76
2, 2634, Note_on_c, 0, 78, 0
2, 2639, Note_on_c, 0, 78, 74
2, 2695, Note_on_c, 0, 83, 0
2, 2707, Note_on_c, 0, 83, 84
2, 2764, Note_on_c, 0, 78, 0
2, 2770, Note_on_c, 0, 78, 79
2, 2826, Note_on_c, 0, 76, 0
2, 2834, Note_on_c, 0, 76, 78
2, 2918, Note_on_c, 0, 71, 0
2, 2924, Note_on_c, 0, 71, 71
2, 2979, Note_on_c, 0, 76, 0
2, 2984, Note_on_c, 0, 59, 103
2, 2985, Note_on_c, 0, 76, 79
2, 2989, Note_on_c, 0, 47, 91
2, 3018, Note_on_c, 0, 78, 0
2, 3023, Note_on_c, 0, 78, 68
2, 3033, Note_on_c, 0, 79, 57
2, 3095, Note_on_c, 0, 83, 0
2, 3105, Note_on_c, 0, 83, 85
2, 3179, Note_on_c, 0, 78, 0
2, 3184, Note_on_c, 0, 78, 77
2, 3248, Note_on_c, 0, 76, 0
2, 3253, Note_on_c, 0, 76, 88
2, 3268, Note_on_c, 0, 40, 92
2, 3273, Control_c, 0, 64, 0
2, 3275, Note_on_c, 0, 47, 0
2, 3275, Note_on_c, 0, 78, 0
2, 3275, Note_on_c, 0, 59, 0
2, 3302, Note_on_c, 0, 79, 0
2, 3302, Note_on_c, 0, 83, 0
2, 3310, Note_on_c, 0, 71, 0
2, 3321, Note_on_c, 0, 71, 84
2, 3348, Control_c, 0, 64, 127
2, 3394, Note_on_c, 0, 76, 0
2, 3405, Note_on_c, 0, 76, 76
2, 3406, Note_on_c, 0, 47, 83
2, 3482, Note_on_c, 0, 78, 64
2, 3558, Note_on_c, 0, 52, 86
2, 3560, Note_on_c, 0, 64, 102
2, 3560, Note_on_c, 0, 69, 93
2, 3691, Note_on_c, 0, 59, 85
2, 3701, Note_on_c, 0, 76, 0
2, 3705, Note_on_c, 0, 76, 66
2, 3709, Note_on_c, 0, 69, 0
2, 3713, Note_on_c, 0, 69, 47
2, 3816, Note_on_c, 0, 59, 0
2, 3821, Note_on_c, 0, 59, 83
2, 3832, Note_on_c, 0, 64, 0
2, 3840, Note_on_c, 0, 76, 0
2, 3840, Note_on_c, 0, 64, 89
2, 3840, Note_on_c, 0, 68, 99
2, 3847, Note_on_c, 0, 76, 78
2, 3909, Note_on_c, 0, 78, 0
2, 3920, Note_on_c, 0, 78, 72
2, 3978, Note_on_c, 0, 64, 0
2, 3984, Note_on_c, 0, 64, 101
2, 3988, Note_on_c, 0, 83, 80
2, 3993, Note_on_c, 0, 83, 0
2, 4116, Note_on_c, 0, 52, 0
2, 4120, Note_on_c, 0, 52, 78
2, 4131, Note_on_c, 0, 76, 0
2, 4140, Note_on_c, 0, 76, 49
2, 4193, Note_on_c, 0, 71, 0
2, 4202, Note_on_c, 0, 71, 75
2, 4239, Note_on_c, 0, 76, 0
2, 4248, Note_on_c, 0, 76, 82
2, 4262, Note_on_c, 0, 59, 0
2, 4262, Note_on_c, 0, 64, 0
2, 4268, Note_on_c, 0, 64, 91
2, 4270, Note_on_c, 0, 69, 0
2, 4271, Note_on_c, 0, 59, 79
2, 4274, Note_on_c, 0, 69, 78
2, 4289, Note_on_c, 0, 67, 86
2, 4304, Note_on_c, 0, 79, 76
2, 4380, Note_on_c, 0, 83, 75
2, 4416, Note_on_c, 0, 59, 0
2, 4420, Note_on_c, 0, 59, 86
2, 4454, Note_on_c, 0, 79, 0
2, 4462, Note_on_c, 0, 79, 57
2, 4538, Note_on_c, 0, 52, 0
2, 4538, Note_on_c, 0, 59, 0
2, 4546, Note_on_c, 0, 52, 71
2, 4546, Note_on_c, 0, 64, 0
2, 4546, Note_on_c, 0, 68, 0
2, 4550, Note_on_c, 0, 59, 79
2, 4552, Note_on_c, 0, 68, 99
2, 4552, Note_on_c, 0, 64, 87
2, 4584, Note_on_c, 0, 71, 0
2, 4590, Note_on_c, 0, 71, 73
2, 4654, Note_on_c, 0, 76, 0
2, 4658, Note_on_c, 0, 76, 78
2, 4684, Note_on_c, 0, 68, 0
2, 4692, Note_on_c, 0, 64, 0
2, 4695, Note_on_c, 0, 68, 99
2, 4697, Note_on_c, 0, 64, 88
2, 4753, Note_on_c, 0, 83, 0
2, 4761, Note_on_c, 0, 83, 79
2, 4838, Note_on_c, 0, 59, 0
2, 4846, Note_on_c, 0, 68, 0
2, 4848, Note_on_c, 0, 59, 88
2, 4850, Note_on_c, 0, 68, 79
2, 4884, Note_on_c, 0, 76, 0
2, 4888, Note_on_c, 0, 76, 69
2, 4953, Note_on_c, 0, 71, 0
2, 4958, Note_on_c, 0, 71, 73
2, 4984, Note_on_c, 0, 64, 0
2, 4984, Note_on_c, 0, 68, 0
2, 4989, Note_on_c, 0, 64, 78
2, 4990, Note_on_c, 0, 68, 70
2, 4992, Note_on_c, 0, 76, 0
2, 4997, Note_on_c, 0, 76, 74
2, 5061, Note_on_c, 0, 78, 0
2, 5061, Note_on_c, 0, 79, 0
2, 5070, Note_on_c, 0, 79, 61
2, 5071, Note_on_c, 0, 78, 61
2, 5122, Note_on_c, 0, 68, 0
2, 5127, Note_on_c, 0, 68, 106
2, 5137, Note_on_c, 0, 83, 0
2, 5142, Note_on_c, 0, 83, 78
2, 5268, Note_on_c, 0, 52, 0
2, 5275, Note_on_c, 0, 52, 83
2, 5399, Note_on_c, 0, 59, 0
2, 5405, Note_on_c, 0, 59, 97
2, 5406, Note_on_c, 0, 68, 0
2, 5414, Note_on_c, 0, 64, 0
2, 5417, Note_on_c, 0, 68, 100
2, 5424, Note_on_c, 0, 64, 87
2, 5445, Control_c, 0, 64, 0
2, 5448, Note_on_c, 0, 47, 0
2, 5448, Note_on_c, 0, 59, 0
2, 5448, Note_on_c, 0, 52, 0
2, 5449, Note_on_c, 0, 69, 0
2, 5449, Note_on_c, 0, 83, 0
2, 5449, Note_on_c, 0, 71, 0
2, 5449, Note_on_c, 0, 76, 0
2, 5449, Note_on_c, 0, 67, 0
2, 5450, Note_on_c, 0, 78, 0
2, 5460, Note_on_c, 0, 40, 0
2, 5460, Note_on_c, 0, 79, 0
2, 5521, Control_c, 0, 64, 127
2, 5548, Note_on_c, 0, 38, 90
2, 5661, Note_on_c, 0, 50, 72
2, 5702, Note_on_c, 0, 62, 98
2, 5706, Note_on_c, 0, 66, 91
2, 5712, Note_on_c, 0, 83, 84
2, 5816, Note_on_c, 0, 78, 83
2, 5821, Note_on_c, 0, 78, 0
2, 5829, Note_on_c, 0, 62, 0
2, 5829, Note_on_c, 0, 66, 0
2, 5838, Note_on_c, 0, 62, 103
2, 5839, Note_on_c, 0, 66, 88
2, 5871, Note_on_c, 0, 76, 78
2, 5961, Note_on_c, 0, 71, 61
2, 5986, Note_on_c, 0, 57, 80
2, 6044, Note_on_c, 0, 76, 0
2, 6049, Note_on_c, 0, 78, 64
2, 6050, Note_on_c, 0, 76, 70
2, 6120, Note_on_c, 0, 62, 0
2, 6120, Note_on_c, 0, 78, 0
2, 6128, Note_on_c, 0, 78, 76
2, 6130, Note_on_c, 0, 62, 93
2, 6220, Note_on_c, 0, 83, 0
2, 6225, Note_on_c, 0, 83, 78
2, 6259, Note_on_c, 0, 66, 0
2, 6269, Note_on_c, 0, 66, 95
2, 6312, Note_on_c, 0, 78, 0
2, 6324, Note_on_c, 0, 78, 69
2, 6366, Note_on_c, 0, 76, 0
2, 6376, Note_on_c, 0, 76, 61
2, 6412, Note_on_c, 0, 57, 0
2, 6416, Note_on_c, 0, 57, 80
2, 6435, Note_on_c, 0, 71, 0
2, 6440, Note_on_c, 0, 71, 74
2, 6504, Note_on_c, 0, 76, 0
2, 6512, Note_on_c, 0, 76, 68
2, 6528, Note_on_c, 0, 78, 0
2, 6533, Note_on_c, 0, 78, 63
2, 6551, Note_on_c, 0, 62, 0
2, 6557, Note_on_c, 0, 62, 85
2, 6589, Note_on_c, 0, 83, 0
2, 6593, Note_on_c, 0, 83, 82
2, 6673, Note_on_c, 0, 78, 0
2, 6678, Note_on_c, 0, 78, 82
2, 6696, Note_on_c, 0, 50, 0
2, 6701, Note_on_c, 0, 83, 0
2, 6701, Note_on_c, 0, 57, 0
2, 6701, Note_on_c, 0, 71, 0
2, 6702, Note_on_c, 0, 62, 0
2, 6702, Control_c, 0, 64, 0
2, 6702, Note_on_c, 0, 66, 0
2, 6707, Note_on_c, 0, 50, 83
2, 6712, Note_on_c, 0, 64, 0
2, 6712, Note_on_c, 0, 68, 0
2, 6727, Note_on_c, 0, 38, 0
2, 6735, Note_on_c, 0, 76, 0
2, 6739, Note_on_c, 0, 76, 81
2, 6773, Control_c, 0, 64, 127
2, 6824, Note_on_c, 0, 71, 72
2, 6862, Note_on_c, 0, 57, 82
2, 6881, Note_on_c, 0, 76, 0
2, 6890, Note_on_c, 0, 76, 74
2, 6904, Note_on_c, 0, 78, 0
2, 6945, Note_on_c, 0, 78, 72
2, 7008, Note_on_c, 0, 62, 90
2, 7014, Note_on_c, 0, 83, 77
2, 7127, Note_on_c, 0, 57, 0
2, 7134, Note_on_c, 0, 76, 0
2, 7138, Note_on_c, 0, 57, 81
2, 7139, Note_on_c, 0, 76, 65
2, 7219, Note_on_c, 0, 71, 0
2, 7225, Note_on_c, 0, 71, 66
2, 7272, Note_on_c, 0, 76, 0
2, 7280, Note_on_c, 0, 62, 0
2, 7281, Note_on_c, 0, 76, 66
2, 7286, Note_on_c, 0, 62, 90
2, 7311, Note_on_c, 0, 78, 0
2, 7321, Note_on_c, 0, 78, 70
2, 7380, Note_on_c, 0, 83, 0
2, 7391, Note_on_c, 0, 83, 85
2, 7422, Note_on_c, 0, 66, 104
2, 7511, Note_on_c, 0, 76, 0
2, 7516, Note_on_c, 0, 76, 79
2, 7557, Note_on_c, 0, 50, 0
2, 7567, Note_on_c, 0, 50, 79
2, 7695, Note_on_c, 0, 57, 0
2, 7695, Note_on_c, 0, 62, 0
2, 7695, Note_on_c, 0, 66, 0
2, 7700, Note_on_c, 0, 66, 102
2, 7704, Note_on_c, 0, 57, 93
2, 7706, Note_on_c, 0, 62, 94
2, 7741, Note_on_c, 0, 71, 0
2, 7741, Note_on_c, 0, 83, 0
2, 7742, Note_on_c, 0, 50, 0
2, 7742, Control_c, 0, 64, 0
2, 7742, Note_on_c, 0, 57, 0
2, 7742, Note_on_c, 0, 78, 0
2, 7744, Note_on_c, 0, 76, 0
2, 7818, Control_c, 0, 64, 127
2, 7844, Note_on_c, 0, 48, 88
2, 7845, Note_on_c, 0, 36, 88
2, 7850, Note_on_c, 0, 38, 84
2, 7991, Note_on_c, 0, 64, 99
2, 7992, Note_on_c, 0, 67, 101
2, 7995, Note_on_c, 0, 76, 93
2, 8103, Note_on_c, 0, 72, 86
2, 8117, Note_on_c, 0, 67, 0
2, 8123, Note_on_c, 0, 67, 92
2, 8156, Note_on_c, 0, 76, 0
2, 8167, Note_on_c, 0, 76, 82
2, 8236, Note_on_c, 0, 78, 69
2, 8278, Note_on_c, 0, 55, 77
2, 8306, Note_on_c, 0, 83, 65
2, 8371, Note_on_c, 0, 78, 0
2, 8379, Note_on_c, 0, 78, 69
2, 8430, Note_on_c, 0, 60, 84
2, 8432, Note_on_c, 0, 76, 0
2, 8440, Note_on_c, 0, 67, 0
2, 8443, Note_on_c, 0, 76, 68
2, 8446, Note_on_c, 0, 67, 61
2, 8509, Note_on_c, 0, 72, 0
2, 8515, Note_on_c, 0, 72, 76
2, 8555, Note_on_c, 0, 64, 0
2, 8555, Note_on_c, 0, 76, 0
2, 8562, Note_on_c, 0, 64, 78
2, 8566, Note_on_c, 0, 76, 81
2, 8634, Note_on_c, 0, 79, 71
2, 8701, Note_on_c, 0, 83, 0
2, 8706, Note_on_c, 0, 83, 90
2, 8709, Note_on_c, 0, 55, 0
2, 8714, Note_on_c, 0, 55, 77
2, 8778, Note_on_c, 0, 78, 0
2, 8778, Note_on_c, 0, 79, 0
2, 8783, Note_on_c, 0, 78, 63
2, 8787, Note_on_c, 0, 79, 65
2, 8855, Note_on_c, 0, 60, 0
2, 8855, Note_on_c, 0, 76, 0
2, 8859, Note_on_c, 0, 60, 86
2, 8860, Note_on_c, 0, 76, 67
2, 8939, Note_on_c, 0, 72, 0
2, 8947, Note_on_c, 0, 72, 74
2, 8985, Note_on_c, 0, 48, 0
2, 8991, Note_on_c, 0, 48, 79
2, 8993, Note_on_c, 0, 38, 0
2, 8993, Note_on_c, 0, 76, 0
2, 9003, Note_on_c, 0, 83, 0
2, 9003, Note_on_c, 0, 76, 82
2, 9004, Note_on_c, 0, 79, 0
2, 9004, Note_on_c, 0, 60, 0
2, 9005, Note_on_c, 0, 67, 0
2, 9005, Note_on_c, 0, 72, 0
2, 9005, Control_c, 0, 64, 0
2, 9005, Note_on_c, 0, 55, 0
2, 9005, Note_on_c, 0, 78, 0
2, 9005, Note_on_c, 0, 64, 0
2, 9008, Note_on_c, 0, 62, 0
2, 9011, Note_on_c, 0, 36, 0
2, 9016, Note_on_c, 0, 66, 0
2, 9070, Control_c, 0, 64, 127
2, 9079, Note_on_c, 0, 78, 81
2, 9140, Note_on_c, 0, 55, 83
2, 9142, Note_on_c, 0, 83, 90
2, 9216, Note_on_c, 0, 78, 0
2, 9226, Note_on_c, 0, 78, 67
2, 9269, Note_on_c, 0, 76, 0
2, 9276, Note_on_c, 0, 76, 71
2, 9276, Note_on_c, 0, 60, 89
2, 9355, Note_on_c, 0, 72, 75
2, 9408, Note_on_c, 0, 76, 0
2, 9415, Note_on_c, 0, 55, 0
2, 9418, Note_on_c, 0, 76, 77
2, 9419, Note_on_c, 0, 55, 74
2, 9461, Note_on_c, 0, 78, 0
2, 9473, Note_on_c, 0, 78, 79
2, 9530, Note_on_c, 0, 83, 0
2, 9541, Note_on_c, 0, 83, 82
2, 9561, Note_on_c, 0, 60, 0
2, 9566, Note_on_c, 0, 60, 87
2, 9600, Note_on_c, 0, 78, 0
2, 9610, Note_on_c, 0, 78, 77
2, 9676, Note_on_c, 0, 76, 0
2, 9686, Note_on_c, 0, 76, 83
2, 9687, Note_on_c, 0, 64, 83
2, 9722, Note_on_c, 0, 72, 0
2, 9730, Note_on_c, 0, 72, 84
2, 9834, Note_on_c, 0, 79, 107
2, 9834, Note_on_c, 0, 38, 89
2, 9836, Note_on_c, 0, 60, 0
2, 9838, Note_on_c, 0, 67, 102
2, 9839, Control_c, 0, 64, 0
2, 9839, Note_on_c, 0, 64, 0
2, 9839, Note_on_c, 0, 55, 0
2, 9839, Note_on_c, 0, 76, 0
2, 9839, Note_on_c, 0, 83, 0
2, 9840, Note_on_c, 0, 72, 0
2, 9841, Note_on_c, 0, 78, 0
2, 9845, Note_on_c, 0, 48, 0
2, 9914, Control_c, 0, 64, 127
2, 9953, Note_on_c, 0, 38, 0
2, 9968, Note_on_c, 0, 67, 0
2, 9984, Note_on_c, 0, 81, 107
2, 9986, Note_on_c, 0, 50, 81
2, 9987, Note_on_c, 0, 69, 101
2, 10124, Note_on_c, 0, 40, 68
2, 10170, Control_c, 0, 64, 0
2, 10172, Note_on_c, 0, 50, 0
2, 10174, Note_on_c, 0, 79, 0
2, 10174, Note_on_c, 0, 69, 0
2, 10177, Note_on_c, 0, 81, 0
2, 10263, Note_on_c, 0, 47, 64
2, 10393, Note_on_c, 0, 47, 0
2, 10414, Note_on_c, 0, 40, 0
2, 10417, Note_on_c, 0, 57, 83
2, 10422, Note_on_c, 0, 40, 59
2, 10545, Note_on_c, 0, 47, 58
2, 10567, Note_on_c, 0, 57, 0
2, 10655, Note_on_c, 0, 47, 0
2, 10690, Note_on_c, 0, 40, 0
2, 10693, Note_on_c, 0, 56, 78
2, 10697, Note_on_c, 0, 40, 57
2, 10701, Note_on_c, 0, 52, 61
2, 10754, Note_on_c, 0, 52, 0
2, 10841, Note_on_c, 0, 47, 66
2, 10841, Note_on_c, 0, 56, 0
2, 10843, Note_on_c, 0, 52, 73
2, 10905, Note_on_c, 0, 40, 0
2, 10918, Note_on_c, 0, 47, 0
2, 10979, Note_on_c, 0, 40, 55
2, 10981, Note_on_c, 0, 52, 0
2, 11129, Note_on_c, 0, 59, 92
2, 11131, Note_on_c, 0, 47, 64
2, 11173, Note_on_c, 0, 40, 0
2, 11244, Note_on_c, 0, 47, 0
2, 11269, Note_on_c, 0, 40, 54
2, 11390, Note_on_c, 0, 47, 58
2, 11393, Note_on_c, 0, 59, 0
2, 11409, Note_on_c, 0, 57, 78
2, 11525, Note_on_c, 0, 47, 0
2, 11546, Note_on_c, 0, 52, 58
2, 11671, Note_on_c, 0, 52, 0
2, 11676, Note_on_c, 0, 57, 0
2, 11692, Note_on_c, 0, 56, 75
2, 11692, Note_on_c, 0, 47, 58
2, 11739, Note_on_c, 0, 56, 0
2, 11827, Note_on_c, 0, 40, 0
2, 11834, Note_on_c, 0, 56, 79
2, 11836, Note_on_c, 0, 40, 57
2, 11837, Note_on_c, 0, 47, 0
2, 11961, Note_on_c, 0, 56, 0
2, 11961, Note_on_c, 0, 40, 0
2, 11974, Note_on_c, 0, 47, 69
2, 11976, Note_on_c, 0, 57, 79
2, 12095, Note_on_c, 0, 47, 0
2, 12120, Note_on_c, 0, 40, 59
2, 12254, Note_on_c, 0, 47, 68
2, 12256, Note_on_c, 0, 59, 87
2, 12268, Note_on_c, 0, 40, 0
2, 12269, Note_on_c, 0, 57, 0
2, 12314, Note_on_c, 0, 47, 0
2, 12320, Note_on_c, 0, 59, 0
2, 12392, Note_on_c, 0, 38, 72
2, 12392, Note_on_c, 0, 59, 85
2, 12533, Control_c, 0, 64, 127
2, 12538, Note_on_c, 0, 45, 70
2, 12540, Note_on_c, 0, 57, 78
2, 12673, Note_on_c, 0, 50, 64
2, 12802, Note_on_c, 0, 45, 0
2, 12812, Note_on_c, 0, 45, 59
2, 12814, Note_on_c, 0, 64, 91
2, 12821, Note_on_c, 0, 54, 70
2, 12956, Note_on_c, 0, 50, 0
2, 12960, Note_on_c, 0, 50, 56
2, 13079, Note_on_c, 0, 45, 0
2, 13089, Note_on_c, 0, 45, 64
2, 13217, Note_on_c, 0, 38, 0
2, 13228, Note_on_c, 0, 38, 62
2, 13378, Note_on_c, 0, 45, 0
2, 13388, Note_on_c, 0, 45, 68
2, 13507, Control_c, 0, 64, 0
2, 13516, Note_on_c, 0, 38, 0
2, 13522, Note_on_c, 0, 71, 91
2, 13524, Note_on_c, 0, 50, 0
2, 13524, Note_on_c, 0, 54, 0
2, 13525, Note_on_c, 0, 62, 81
2, 13526, Note_on_c, 0, 38, 74
2, 13526, Note_on_c, 0, 66, 80
2, 13527, Note_on_c, 0, 59, 0
2, 13527, Note_on_c, 0, 45, 0
2, 13527, Note_on_c, 0, 57, 0
2, 13528, Note_on_c, 0, 64, 0
2, 13667, Note_on_c, 0, 69, 83
2, 13674, Note_on_c, 0, 45, 72
2, 13685, Control_c, 0, 64, 127
2, 13747, Note_on_c, 0, 38, 0
2, 13795, Note_on_c, 0, 50, 63
2, 13939, Note_on_c, 0, 71, 0
2, 13944, Note_on_c, 0, 76, 95
2, 13948, Note_on_c, 0, 54, 73
2, 14077, Note_on_c, 0, 50, 0
2, 14081, Note_on_c, 0, 50, 62
2, 14215, Note_on_c, 0, 45, 0
2, 14225, Note_on_c, 0, 52, 65
2, 14226, Note_on_c, 0, 45, 67
2, 14335, Control_c, 0, 64, 0
2, 14343, Note_on_c, 0, 38, 61
2, 14353, Note_on_c, 0, 50, 0
2, 14355, Note_on_c, 0, 45, 0
2, 14355, Note_on_c, 0, 69, 0
2, 14355, Note_on_c, 0, 62, 0
2, 14356, Note_on_c, 0, 66, 0
2, 14357, Note_on_c, 0, 52, 0
2, 14358, Note_on_c, 0, 76, 0
2, 14369, Note_on_c, 0, 54, 0
2, 14374, Note_on_c, 0, 54, 78
2, 14483, Note_on_c, 0, 45, 69
2, 14523, Note_on_c, 0, 55, 84
2, 14527, Note_on_c, 0, 52, 68
2, 14552, Note_on_c, 0, 54, 0
2, 14556, Note_on_c, 0, 45, 0
2, 14561, Note_on_c, 0, 38, 0
2, 14645, Note_on_c, 0, 36, 60
2, 14790, Note_on_c, 0, 43, 60
2, 14929, Note_on_c, 0, 36, 0
2, 14939, Note_on_c, 0, 36, 52
2, 14940, Note_on_c, 0, 48, 56
2, 14956, Note_on_c, 0, 43, 0
2, 14987, Note_on_c, 0, 52, 0
2, 15063, Note_on_c, 0, 43, 57
2, 15103, Note_on_c, 0, 36, 0
2, 15109, Note_on_c, 0, 48, 0
2, 15171, Note_on_c, 0, 43, 0
2, 15211, Note_on_c, 0, 57, 82
2, 15220, Note_on_c, 0, 52, 65
2, 15363, Note_on_c, 0, 43, 63
2, 15479, Note_on_c, 0, 43, 0
2, 15502, Note_on_c, 0, 48, 59
2, 15633, Note_on_c, 0, 48, 0
2, 15635, Note_on_c, 0, 43, 59
2, 15643, Note_on_c, 0, 52, 0
2, 15791, Note_on_c, 0, 59, 90
2, 15794, Note_on_c, 0, 57, 0
2, 15795, Note_on_c, 0, 43, 0
2, 15797, Note_on_c, 0, 55, 0
2, 15801, Note_on_c, 0, 52, 59
2, 15803, Note_on_c, 0, 55, 60
2, 15938, Note_on_c, 0, 43, 60
2, 16079, Note_on_c, 0, 43, 0
2, 16081, Note_on_c, 0, 48, 62
2, 16091, Note_on_c, 0, 52, 0
2, 16197, Note_on_c, 0, 55, 0
2, 16225, Note_on_c, 0, 60, 91
2, 16225, Note_on_c, 0, 59, 0
2, 16234, Note_on_c, 0, 43, 62
2, 16237, Note_on_c, 0, 55, 67
2, 16238, Note_on_c, 0, 52, 57
2, 16366, Control_c, 0, 64, 127
2, 16389, Control_c, 0, 64, 0
2, 16418, Note_on_c, 0, 43, 0
2, 16442, Note_on_c, 0, 48, 0
2, 16519, Note_on_c, 0, 43, 71
2, 16558, Note_on_c, 0, 52, 0
2, 16634, Control_c, 0, 64, 127
2, 16646, Note_on_c, 0, 48, 70
2, 16780, Note_on_c, 0, 43, 0
2, 16786, Note_on_c, 0, 43, 72
2, 16791, Note_on_c, 0, 62, 97
2, 16885, Note_on_c, 0, 60, 0
2, 16886, Control_c, 0, 64, 0
2, 16886, Note_on_c, 0, 48, 0
2, 16888, Note_on_c, 0, 55, 0
2, 16934, Note_on_c, 0, 31, 81
2, 16988, Note_on_c, 0, 43, 0
2, 16988, Control_c, 0, 64, 127
2, 17057, Note_on_c, 0, 62, 0
2, 17067, Note_on_c, 0, 62, 92
2, 17071, Note_on_c, 0, 43, 68
2, 17198, Note_on_c, 0, 60, 83
2, 17222, Note_on_c, 0, 50, 62
2, 17349, Note_on_c, 0, 60, 0
2, 17358, Note_on_c, 0, 60, 90
2, 17363, Note_on_c, 0, 55, 67
2, 17497, Note_on_c, 0, 59, 90
2, 17577, Note_on_c, 0, 62, 0
2, 17577, Control_c, 0, 64, 0
2, 17581, Note_on_c, 0, 50, 0
2, 17582, Note_on_c, 0, 60, 0
2, 17582, Note_on_c, 0, 31, 0
2, 17583, Note_on_c, 0, 55, 0
2, 17583, Note_on_c, 0, 43, 0
2, 17635, Note_on_c, 0, 59, 0
2, 17638, Note_on_c, 0, 57, 84
2, 17638, Note_on_c, 0, 50, 71
2, 17783, Note_on_c, 0, 43, 79
2, 17784, Note_on_c, 0, 55, 83
2, 17789, Note_on_c, 0, 57, 0
2, 17790, Note_on_c, 0, 50, 0
2, 17828, Note_on_c, 0, 43, 0
2, 17895, Note_on_c, 0, 55, 0
2, 17929, Note_on_c, 0, 59, 99
2, 17935, Note_on_c, 0, 47, 80
2, 17940, Note_on_c, 0, 35, 73
2, 17994, Control_c, 0, 64, 127
2, 18234, Note_on_c, 0, 76, 73
2, 18297, Note_on_c, 0, 78, 74
2, 18347, Note_on_c, 0, 47, 0
2, 18347, Note_on_c, 0, 59, 0
2, 18351, Note_on_c, 0, 59, 85
2, 18351, Note_on_c, 0, 83, 88
2, 18356, Note_on_c, 0, 47, 77
2, 18358, Note_on_c, 0, 54, 71
2, 18416, Note_on_c, 0, 78, 0
2, 18426, Note_on_c, 0, 78, 78
2, 18478, Note_on_c, 0, 76, 0
2, 18484, Note_on_c, 0, 76, 66
2, 18542, Note_on_c, 0, 71, 75
2, 18600, Note_on_c, 0, 76, 0
2, 18608, Note_on_c, 0, 76, 78
2, 18685, Note_on_c, 0, 78, 0
2, 18694, Note_on_c, 0, 78, 74
2, 18754, Note_on_c, 0, 83, 0
2, 18763, Note_on_c, 0, 83, 91
2, 18769, Note_on_c, 0, 71, 0
2, 18780, Note_on_c, 0, 71, 96
2, 18792, Note_on_c, 0, 59, 0
2, 18796, Note_on_c, 0, 66, 82
2, 18797, Note_on_c, 0, 59, 78
2, 18811, Note_on_c, 0, 47, 0
2, 18892, Note_on_c, 0, 76, 0
2, 18897, Note_on_c, 0, 76, 65
2, 19023, Note_on_c, 0, 76, 0
2, 19032, Note_on_c, 0, 76, 64
2, 19130, Note_on_c, 0, 78, 0
2, 19135, Note_on_c, 0, 78, 67
2, 19189, Control_c, 0, 64, 0
2, 19191, Note_on_c, 0, 54, 0
2, 19191, Note_on_c, 0, 59, 0
2, 19192, Note_on_c, 0, 66, 0
2, 19193, Note_on_c, 0, 76, 0
2, 19200, Note_on_c, 0, 35, 0
2, 19200, Note_on_c, 0, 83, 0
2, 19207, Note_on_c, 0, 71, 0
2, 19207, Note_on_c, 0, 78, 0
2, 19210, Note_on_c, 0, 40, 69
2, 19211, Note_on_c, 0, 83, 89
2, 19211, Note_on_c, 0, 78, 68
2, 19273, Note_on_c, 0, 83, 0
2, 19276, Note_on_c, 0, 78, 0
2, 19292, Control_c, 0, 64, 127
2, 19380, Note_on_c, 0, 47, 59
2, 19499, Note_on_c, 0, 52, 65
2, 19501, Note_on_c, 0, 69, 88
2, 19514, Note_on_c, 0, 40, 0
2, 19519, Note_on_c, 0, 40, 57
2, 19521, Note_on_c, 0, 64, 65
2, 19525, Note_on_c, 0, 59, 68
2, 19654, Control_c, 0, 64, 0
2, 19661, Note_on_c, 0, 56, 66
2, 19666, Note_on_c, 0, 52, 0
2, 19666, Note_on_c, 0, 40, 0
2, 19667, Note_on_c, 0, 59, 0
2, 19668, Note_on_c, 0, 69, 0
2, 19668, Note_on_c, 0, 47, 0
2, 19699, Note_on_c, 0, 64, 0
2, 19728, Note_on_c, 0, 56, 0
2, 19784, Note_on_c, 0, 68, 84
2, 19789, Note_on_c, 0, 59, 76
2, 19792, Note_on_c, 0, 40, 59
2, 19793, Note_on_c, 0, 52, 64
2, 19879, Note_on_c, 0, 59, 0
2, 19910, Note_on_c, 0, 52, 0
2, 19928, Note_on_c, 0, 47, 65
2, 19952, Note_on_c, 0, 64, 88
2, 20021, Note_on_c, 0, 40, 0
2, 20056, Note_on_c, 0, 47, 0
2, 20064, Note_on_c, 0, 64, 0
2, 20064, Note_on_c, 0, 40, 52
2, 20211, Note_on_c, 0, 47, 61
2, 20219, Note_on_c, 0, 64, 76
2, 20221, Note_on_c, 0, 68, 0
2, 20241, Note_on_c, 0, 40, 0
2, 20329, Note_on_c, 0, 47, 0
2, 20334, Note_on_c, 0, 40, 56
2, 20354, Note_on_c, 0, 71, 89
2, 20390, Control_c, 0, 64, 127
2, 20490, Note_on_c, 0, 71, 0
2, 20496, Note_on_c, 0, 71, 91
2, 20499, Note_on_c, 0, 47, 63
2, 20628, Note_on_c, 0, 40, 0
2, 20634, Note_on_c, 0, 52, 66
2, 20637, Note_on_c, 0, 69, 82
2, 20639, Note_on_c, 0, 40, 61
2, 20751, Note_on_c, 0, 69, 0
2, 20762, Note_on_c, 0, 69, 86
2, 20765, Note_on_c, 0, 56, 76
2, 20870, Control_c, 0, 64, 0
2, 20885, Note_on_c, 0, 71, 0
2, 20886, Note_on_c, 0, 40, 0
2, 20886, Note_on_c, 0, 47, 0
2, 20886, Note_on_c, 0, 56, 0
2, 20886, Note_on_c, 0, 69, 0
2, 20903, Note_on_c, 0, 68, 94
2, 20912, Note_on_c, 0, 52, 0
2, 20918, Note_on_c, 0, 52, 70
2, 20920, Note_on_c, 0, 64, 0
2, 20924, Note_on_c, 0, 64, 66
2, 21034, Note_on_c, 0, 52, 0
2, 21041, Note_on_c, 0, 47, 67
2, 21185, Note_on_c, 0, 47, 0
2, 21187, Note_on_c, 0, 40, 69
2, 21197, Note_on_c, 0, 69, 84
2, 21238, Note_on_c, 0, 68, 0
2, 21265, Note_on_c, 0, 64, 0
2, 21322, Note_on_c, 0, 47, 71
2, 21322, Note_on_c, 0, 71, 91
2, 21329, Note_on_c, 0, 40, 0
2, 21344, Note_on_c, 0, 69, 0
2, 21391, Note_on_c, 0, 47, 0
2, 21396, Note_on_c, 0, 71, 0
2, 21467, Note_on_c, 0, 71, 95
2, 21468, Note_on_c, 0, 38, 76
2, 21481, Note_on_c, 0, 62, 78
2, 21485, Note_on_c, 0, 66, 71
2, 21542, Control_c, 0, 64, 127
2, 21617, Note_on_c, 0, 45, 74
2, 21622, Note_on_c, 0, 69, 82
2, 21740, Note_on_c, 0, 50, 68
2, 21888, Note_on_c, 0, 45, 0
2, 21888, Note_on_c, 0, 69, 0
2, 21891, Note_on_c, 0, 54, 80
2, 21892, Note_on_c, 0, 76, 98
2, 21895, Note_on_c, 0, 69, 75
2, 21895, Note_on_c, 0, 45, 65
2, 21895, Note_on_c, 0, 66, 0
2, 21900, Note_on_c, 0, 66, 78
2, 22033, Note_on_c, 0, 50, 0
2, 22039, Note_on_c, 0, 50, 65
2, 22164, Note_on_c, 0, 45, 0
2, 22172, Note_on_c, 0, 45, 73
2, 22310, Note_on_c, 0, 38, 0
2, 22315, Note_on_c, 0, 38, 65
2, 22448, Note_on_c, 0, 45, 0
2, 22459, Note_on_c, 0, 45, 71
2, 22459, Note_on_c, 0, 83, 84
2, 22520, Control_c, 0, 64, 0
2, 22529, Note_on_c, 0, 50, 0
2, 22529, Note_on_c, 0, 54, 0
2, 22529, Note_on_c, 0, 66, 0
2, 22529, Note_on_c, 0, 69, 0
2, 22529, Note_on_c, 0, 62, 0
2, 22529, Note_on_c, 0, 71, 0
2, 22530, Note_on_c, 0, 76, 0
2, 22530, Note_on_c, 0, 45, 0
2, 22530, Note_on_c, 0, 38, 0
2, 22530, Note_on_c, 0, 83, 0
2, 22585, Note_on_c, 0, 38, 73
2, 22594, Note_on_c, 0, 83, 94
2, 22607, Note_on_c, 0, 74, 85
2, 22611, Note_on_c, 0, 78, 75
2, 22671, Control_c, 0, 64, 127
2, 22736, Note_on_c, 0, 81, 88
2, 22745, Note_on_c, 0, 45, 70
2, 22881, Note_on_c, 0, 50, 66
2, 23009, Note_on_c, 0, 78, 0
2, 23009, Note_on_c, 0, 81, 0
2, 23013, Note_on_c, 0, 88, 101
2, 23016, Note_on_c, 0, 81, 80
2, 23018, Note_on_c, 0, 78, 89
2, 23022, Note_on_c, 0, 54, 73
2, 23139, Note_on_c, 0, 50, 0
2, 23150, Note_on_c, 0, 50, 63
2, 23285, Note_on_c, 0, 45, 0
2, 23289, Note_on_c, 0, 45, 75
2, 23290, Note_on_c, 0, 64, 76
2, 23408, Note_on_c, 0, 38, 0
2, 23420, Note_on_c, 0, 38, 72
2, 23434, Note_on_c, 0, 66, 84
2, 23531, Note_on_c, 0, 45, 0
2, 23540, Control_c, 0, 64, 0
2, 23541, Note_on_c, 0, 45, 71
2, 23551, Note_on_c, 0, 83, 0
2, 23552, Note_on_c, 0, 81, 0
2, 23553, Note_on_c, 0, 78, 0
2, 23553, Note_on_c, 0, 38, 0
2, 23553, Note_on_c, 0, 88, 0
2, 23556, Note_on_c, 0, 66, 0
2, 23557, Note_on_c, 0, 74, 0
2, 23569, Note_on_c, 0, 50, 0
2, 23569, Note_on_c, 0, 54, 0
2, 23576, Note_on_c, 0, 67, 93
2, 23577, Note_on_c, 0, 64, 0
2, 23587, Note_on_c, 0, 64, 77
2, 23590, Note_on_c, 0, 60, 80
2, 23627, Note_on_c, 0, 45, 0
2, 23705, Note_on_c, 0, 60, 0
2, 23708, Note_on_c, 0, 36, 72
2, 23731, Note_on_c, 0, 64, 0
2, 23754, Control_c, 0, 64, 127
2, 23829, Note_on_c, 0, 48, 65
2, 23965, Note_on_c, 0, 79, 100
2, 23972, Note_on_c, 0, 76, 82
2, 23972, Note_on_c, 0, 72, 88
2, 24008, Note_on_c, 0, 52, 57
2, 24011, Note_on_c, 0, 55, 55
2, 24099, Note_on_c, 0, 48, 0
2, 24105, Note_on_c, 0, 48, 71
2, 24237, Control_c, 0, 64, 0
2, 24241, Note_on_c, 0, 52, 0
2, 24242, Note_on_c, 0, 48, 0
2, 24242, Note_on_c, 0, 72, 0
2, 24242, Note_on_c, 0, 55, 0
2, 24243, Note_on_c, 0, 76, 0
2, 24244, Note_on_c, 0, 79, 0
2, 24245, Note_on_c, 0, 36, 0
2, 24253, Note_on_c, 0, 67, 0
2, 24257, Note_on_c, 0, 69, 93
2, 24264, Note_on_c, 0, 60, 86
2, 24264, Note_on_c, 0, 64, 75
2, 24301, Note_on_c, 0, 60, 0
2, 24305, Note_on_c, 0, 64, 0
2, 24322, Control_c, 0, 64, 127
2, 24382, Note_on_c, 0, 36, 74
2, 24535, Note_on_c, 0, 81, 97
2, 24540, Note_on_c, 0, 76, 90
2, 24540, Note_on_c, 0, 72, 96
2, 24549, Note_on_c, 0, 55, 65
2, 24572, Note_on_c, 0, 52, 58
2, 24665, Note_on_c, 0, 48, 67
2, 24791, Control_c, 0, 64, 0
2, 24792, Note_on_c, 0, 52, 0
2, 24793, Note_on_c, 0, 48, 0
2, 24793, Note_on_c, 0, 81, 0
2, 24793, Note_on_c, 0, 69, 0
2, 24793, Note_on_c, 0, 72, 0
2, 24794, Note_on_c, 0, 76, 0
2, 24794, Note_on_c, 0, 55, 0
2, 24806, Note_on_c, 0, 36, 0
2, 24815, Note_on_c, 0, 71, 98
2, 24817, Note_on_c, 0, 67, 96
2, 24817, Note_on_c, 0, 64, 84
2, 24866, Note_on_c, 0, 64, 0
2, 24867, Control_c, 0, 64, 127
2, 24940, Note_on_c, 0, 36, 83
2, 25100, Note_on_c, 0, 83, 99
2, 25101, Note_on_c, 0, 79, 94
2, 25102, Note_on_c, 0, 76, 90
2, 25116, Note_on_c, 0, 55, 79
2, 25117, Note_on_c, 0, 52, 78
2, 25239, Note_on_c, 0, 48, 73
2, 25301, Control_c, 0, 64, 0
2, 25301, Note_on_c, 0, 83, 0
2, 25301, Note_on_c, 0, 67, 0
2, 25301, Note_on_c, 0, 52, 0
2, 25301, Note_on_c, 0, 71, 0
2, 25301, Note_on_c, 0, 48, 0
2, 25302, Note_on_c, 0, 79, 0
2, 25302, Note_on_c, 0, 76, 0
2, 25302, Note_on_c, 0, 55, 0
2, 25302, Note_on_c, 0, 36, 0
2, 25359, Control_c, 0, 64, 127
2, 25385, Note_on_c, 0, 72, 105
2, 25386, Note_on_c, 0, 67, 99
2, 25386, Note_on_c, 0, 64, 92
2, 25519, Note_on_c, 0, 36, 82
2, 25661, Note_on_c, 0, 86, 99
2, 25663, Note_on_c, 0, 74, 95
2, 25669, Note_on_c, 0, 52, 75
2, 25717, Note_on_c, 0, 41, 51
2, 25790, Note_on_c, 0, 48, 76
2, 25804, Note_on_c, 0, 72, 0
2, 25813, Note_on_c, 0, 84, 94
2, 25816, Note_on_c, 0, 72, 100
2, 25905, Note_on_c, 0, 36, 0
2, 25905, Note_on_c, 0, 52, 0
2, 25906, Note_on_c, 0, 67, 0
2, 25906, Control_c, 0, 64, 0
2, 25906, Note_on_c, 0, 74, 0
2, 25907, Note_on_c, 0, 41, 0
2, 25907, Note_on_c, 0, 86, 0
2, 25907, Note_on_c, 0, 64, 0
2, 25908, Note_on_c, 0, 48, 0
2, 25945, Note_on_c, 0, 47, 81
2, 25989, Control_c, 0, 64, 127
2, 26073, Note_on_c, 0, 47, 0
2, 26080, Note_on_c, 0, 59, 88
2, 26082, Note_on_c, 0, 47, 80
2, 26083, Note_on_c, 0, 83, 96
2, 26085, Note_on_c, 0, 71, 89
2, 26219, Note_on_c, 0, 71, 0
2, 26219, Note_on_c, 0, 72, 0
2, 26219, Note_on_c, 0, 83, 0
2, 26225, Note_on_c, 0, 83, 102
2, 26228, Note_on_c, 0, 64, 81
2, 26229, Note_on_c, 0, 71, 92
2, 26230, Note_on_c, 0, 72, 78
2, 26362, Note_on_c, 0, 66, 87
2, 26496, Note_on_c, 0, 64, 0
2, 26496, Note_on_c, 0, 83, 0
2, 26503, Note_on_c, 0, 71, 0
2, 26504, Note_on_c, 0, 64, 67
2, 26506, Note_on_c, 0, 83, 102
2, 26509, Note_on_c, 0, 71, 95
2, 26626, Note_on_c, 0, 59, 0
2, 26636, Note_on_c, 0, 59, 80
2, 26639, Note_on_c, 0, 78, 71
2, 26718, Note_on_c, 0, 76, 71
2, 26772, Note_on_c, 0, 71, 0
2, 26777, Note_on_c, 0, 71, 73
2, 26781, Note_on_c, 0, 54, 73
2, 26826, Note_on_c, 0, 76, 0
2, 26833, Note_on_c, 0, 76, 73
2, 26895, Note_on_c, 0, 78, 0
2, 26899, Note_on_c, 0, 78, 73
2, 26926, Note_on_c, 0, 59, 0
2, 26932, Note_on_c, 0, 59, 85
2, 26972, Note_on_c, 0, 83, 0
2, 26977, Note_on_c, 0, 83, 78
2, 27064, Note_on_c, 0, 47, 0
2, 27064, Note_on_c, 0, 78, 0
2, 27068, Note_on_c, 0, 78, 80
2, 27074, Note_on_c, 0, 47, 77
2, 27075, Note_on_c, 0, 72, 0
2, 27075, Note_on_c, 0, 54, 0
2, 27076, Note_on_c, 0, 66, 0
2, 27076, Note_on_c, 0, 84, 0
2, 27076, Note_on_c, 0, 59, 0
2, 27076, Note_on_c, 0, 71, 0
2, 27076, Note_on_c, 0, 76, 0
2, 27076, Note_on_c, 0, 64, 0
2, 27077, Note_on_c, 0, 83, 0
2, 27079, Control_c, 0, 64, 0
2, 27130, Note_on_c, 0, 76, 70
2, 27156, Control_c, 0, 64, 127
2, 27216, Note_on_c, 0, 71, 70
2, 27219, Note_on_c, 0, 59, 83
2, 27271, Note_on_c, 0, 76, 0
2, 27282, Note_on_c, 0, 76, 73
2, 27348, Note_on_c, 0, 78, 0
2, 27355, Note_on_c, 0, 78, 73
2, 27355, Note_on_c, 0, 63, 84
2, 27363, Note_on_c, 0, 47, 0
2, 27434, Note_on_c, 0, 83, 81
2, 27492, Note_on_c, 0, 66, 89
2, 27532, Note_on_c, 0, 78, 0
2, 27537, Note_on_c, 0, 78, 72
2, 27563, Note_on_c, 0, 76, 0
2, 27574, Note_on_c, 0, 76, 69
2, 27601, Note_on_c, 0, 63, 0
2, 27608, Note_on_c, 0, 63, 86
2, 27663, Note_on_c, 0, 71, 0
2, 27673, Note_on_c, 0, 71, 78
2, 27740, Note_on_c, 0, 59, 0
2, 27740, Note_on_c, 0, 76, 0
2, 27744, Note_on_c, 0, 59, 78
2, 27745, Note_on_c, 0, 76, 78
2, 27793, Note_on_c, 0, 78, 0
2, 27799, Note_on_c, 0, 78, 79
2, 27886, Note_on_c, 0, 83, 0
2, 27894, Note_on_c, 0, 83, 78
2, 27896, Note_on_c, 0, 54, 69
2, 27959, Note_on_c, 0, 88, 89
2, 28001, Note_on_c, 0, 59, 0
2, 28006, Note_on_c, 0, 59, 78
2, 28020, Note_on_c, 0, 90, 76
2, 28075, Note_on_c, 0, 95, 93
2, 28155, Note_on_c, 0, 54, 0
2, 28156, Note_on_c, 0, 59, 0
2, 28156, Note_on_c, 0, 66, 0
2, 28157, Note_on_c, 0, 71, 0
2, 28157, Note_on_c, 0, 88, 0
2, 28157, Note_on_c, 0, 90, 0
2, 28157, Note_on_c, 0, 78, 0
2, 28157, Note_on_c, 0, 76, 0
2, 28158, Control_c, 0, 64, 0
2, 28170, Note_on_c, 0, 63, 0
2, 28185, Note_on_c, 0, 83, 0
2, 28193, Note_on_c, 0, 49, 72
2, 28270, Control_c, 0, 64, 127
2, 28272, Note_on_c, 0, 49, 0
2, 28495, Note_on_c, 0, 73, 71
2, 28496, Note_on_c, 0, 68, 69
2, 28503, Note_on_c, 0, 64, 53
2, 28508, Note_on_c, 0, 85, 87
2, 28515, Note_on_c, 0, 95, 0
2, 28646, Note_on_c, 0, 64, 0
2, 28646, Note_on_c, 0, 68, 0
2, 28646, Note_on_c, 0, 73, 0
2, 28651, Note_on_c, 0, 73, 58
2, 28656, Note_on_c, 0, 64, 49
2, 28656, Note_on_c, 0, 68, 54
2, 28769, Note_on_c, 0, 64, 0
2, 28769, Note_on_c, 0, 68, 0
2, 28769, Note_on_c, 0, 73, 0
2, 28773, Note_on_c, 0, 64, 52
2, 28774, Note_on_c, 0, 68, 69
2, 28774, Note_on_c, 0, 73, 62
2, 28915, Note_on_c, 0, 68, 0
2, 28915, Note_on_c, 0, 73, 0
2, 28919, Note_on_c, 0, 80, 84
2, 28922, Note_on_c, 0, 64, 0
2, 28924, Note_on_c, 0, 73, 61
2, 28926, Note_on_c, 0, 68, 70
2, 28927, Note_on_c, 0, 64, 45
2, 29045, Note_on_c, 0, 64, 0
2, 29045, Note_on_c, 0, 68, 0
2, 29053, Note_on_c, 0, 64, 57
2, 29054, Note_on_c, 0, 61, 45
2, 29055, Note_on_c, 0, 68, 71
2, 29061, Note_on_c, 0, 61, 0
2, 29061, Note_on_c, 0, 73, 0
2, 29061, Note_on_c, 0, 80, 0
2, 29065, Note_on_c, 0, 80, 86
2, 29066, Note_on_c, 0, 73, 59
2, 29168, Note_on_c, 0, 68, 0
2, 29168, Note_on_c, 0, 73, 0
2, 29173, Note_on_c, 0, 73, 74
2, 29178, Note_on_c, 0, 68, 66
2, 29184, Note_on_c, 0, 64, 0
2, 29191, Note_on_c, 0, 85, 0
2, 29195, Note_on_c, 0, 64, 52
2, 29202, Note_on_c, 0, 85, 96
2, 29307, Note_on_c, 0, 80, 0
2, 29308, Note_on_c, 0, 68, 0
2, 29309, Note_on_c, 0, 73, 0
2, 29309, Note_on_c, 0, 64, 0
2, 29310, Control_c, 0, 64, 0
2, 29310, Note_on_c, 0, 85, 0
2, 29335, Note_on_c, 0, 51, 77
2, 29339, Note_on_c, 0, 83, 102
2, 29368, Control_c, 0, 64, 127
2, 29477, Note_on_c, 0, 71, 77
2, 29488, Note_on_c, 0, 63, 44
2, 29490, Note_on_c, 0, 66, 60
2, 29606, Note_on_c, 0, 63, 0
2, 29606, Note_on_c, 0, 66, 0
2, 29606, Note_on_c, 0, 71, 0
2, 29614, Note_on_c, 0, 63, 51
2, 29615, Note_on_c, 0, 71, 71
2, 29616, Note_on_c, 0, 66, 52
2, 29617, Note_on_c, 0, 69, 64
2, 29618, Note_on_c, 0, 81, 94
2, 29621, Note_on_c, 0, 69, 0
2, 29744, Note_on_c, 0, 71, 0
2, 29750, Note_on_c, 0, 59, 60
2, 29752, Note_on_c, 0, 63, 0
2, 29752, Note_on_c, 0, 66, 0
2, 29755, Note_on_c, 0, 71, 71
2, 29756, Note_on_c, 0, 66, 58
2, 29757, Note_on_c, 0, 63, 46
2, 29758, Note_on_c, 0, 59, 0
2, 29762, Note_on_c, 0, 69, 54
2, 29896, Note_on_c, 0, 80, 96
2, 29905, Note_on_c, 0, 63, 0
2, 29905, Note_on_c, 0, 71, 0
2, 29913, Note_on_c, 0, 66, 0
2, 29915, Note_on_c, 0, 71, 66
2, 29916, Note_on_c, 0, 63, 49
2, 29921, Note_on_c, 0, 66, 56
2, 30044, Note_on_c, 0, 63, 0
2, 30044, Note_on_c, 0, 66, 0
2, 30044, Note_on_c, 0, 71, 0
2, 30049, Note_on_c, 0, 63, 68
2, 30049, Note_on_c, 0, 71, 64
2, 30052, Note_on_c, 0, 66, 63
2, 30174, Note_on_c, 0, 63, 0
2, 30174, Note_on_c, 0, 66, 0
2, 30174, Note_on_c, 0, 71, 0
2, 30180, Note_on_c, 0, 63, 80
2, 30180, Note_on_c, 0, 71, 88
2, 30184, Note_on_c, 0, 66, 81
2, 30305, Note_on_c, 0, 71, 0
2, 30312, Note_on_c, 0, 63, 0
2, 30312, Note_on_c, 0, 66, 0
2, 30316, Note_on_c, 0, 71, 68
2, 30317, Note_on_c, 0, 63, 71
2, 30319, Note_on_c, 0, 66, 67
2, 30424, Note_on_c, 0, 80, 0
2, 30424, Note_on_c, 0, 71, 0
2, 30424, Note_on_c, 0, 51, 0
2, 30425, Control_c, 0, 64, 0
2, 30425, Note_on_c, 0, 63, 0
2, 30426, Note_on_c, 0, 66, 0
2, 30443, Note_on_c, 0, 69, 0
2, 30443, Note_on_c, 0, 83, 0
2, 30458, Note_on_c, 0, 81, 0
2, 30463, Note_on_c, 0, 81, 99
2, 30463, Note_on_c, 0, 52, 78
2, 30497, Control_c, 0, 64, 127
2, 30623, Note_on_c, 0, 68, 75
2, 30626, Note_on_c, 0, 71, 68
2, 30631, Note_on_c, 0, 64, 57
2, 30735, Note_on_c, 0, 71, 0
2, 30745, Note_on_c, 0, 71, 75
2, 30750, Note_on_c, 0, 64, 0
2, 30750, Note_on_c, 0, 68, 0
2, 30757, Note_on_c, 0, 68, 68
2, 30759, Note_on_c, 0, 64, 48
2, 30881, Note_on_c, 0, 64, 0
2, 30881, Note_on_c, 0, 68, 0
2, 30881, Note_on_c, 0, 71, 0
2, 30885, Note_on_c, 0, 64, 59
2, 30886, Note_on_c, 0, 80, 87
2, 30889, Note_on_c, 0, 68, 65
2, 30891, Note_on_c, 0, 71, 70
2, 31019, Note_on_c, 0, 52, 0
2, 31019, Note_on_c, 0, 64, 0
2, 31019, Note_on_c, 0, 71, 0
2, 31019, Note_on_c, 0, 80, 0
2, 31024, Note_on_c, 0, 52, 59
2, 31024, Note_on_c, 0, 80, 87
2, 31025, Note_on_c, 0, 64, 61
2, 31027, Note_on_c, 0, 68, 0
2, 31030, Note_on_c, 0, 71, 63
2, 31031, Note_on_c, 0, 68, 62
2, 31157, Note_on_c, 0, 68, 0
2, 31166, Note_on_c, 0, 68, 68
2, 31173, Note_on_c, 0, 64, 0
2, 31173, Note_on_c, 0, 71, 0
2, 31177, Note_on_c, 0, 64, 51
2, 31178, Note_on_c, 0, 71, 55
2, 31296, Note_on_c, 0, 68, 0
2, 31296, Note_on_c, 0, 71, 0
2, 31304, Note_on_c, 0, 68, 59
2, 31306, Note_on_c, 0, 71, 59
2, 31311, Note_on_c, 0, 64, 0
2, 31317, Note_on_c, 0, 64, 41
2, 31434, Note_on_c, 0, 52, 0
2, 31434, Note_on_c, 0, 64, 0
2, 31441, Note_on_c, 0, 68, 0
2, 31444, Note_on_c, 0, 64, 65
2, 31445, Note_on_c, 0, 52, 61
2, 31447, Note_on_c, 0, 57, 78
2, 31450, Note_on_c, 0, 68, 69
2, 31580, Note_on_c, 0, 68, 0
2, 31585, Note_on_c, 0, 68, 63
2, 31587, Note_on_c, 0, 64, 0
2, 31591, Note_on_c, 0, 64, 61
2, 31710, Note_on_c, 0, 64, 0
2, 31718, Note_on_c, 0, 52, 0
2, 31718, Note_on_c, 0, 68, 0
2, 31721, Note_on_c, 0, 64, 65
2, 31723, Note_on_c, 0, 52, 55
2, 31725, Note_on_c, 0, 56, 71
2, 31725, Note_on_c, 0, 68, 63
2, 31833, Note_on_c, 0, 68, 0
2, 31841, Note_on_c, 0, 64, 0
2, 31844, Note_on_c, 0, 68, 64
2, 31852, Note_on_c, 0, 64, 58
2, 31856, Note_on_c, 0, 52, 0
2, 31856, Note_on_c, 0, 71, 0
2, 31861, Note_on_c, 0, 71, 60
2, 31867, Note_on_c, 0, 52, 63
2, 31987, Note_on_c, 0, 64, 0
2, 31987, Note_on_c, 0, 68, 0
2, 31987, Note_on_c, 0, 71, 0
2, 31995, Note_on_c, 0, 64, 65
2, 31995, Note_on_c, 0, 71, 68
2, 31997, Note_on_c, 0, 68, 69
2, 31997, Note_on_c, 0, 47, 66
2, 32125, Note_on_c, 0, 64, 0
2, 32125, Note_on_c, 0, 68, 0
2, 32132, Note_on_c, 0, 69, 64
2, 32133, Note_on_c, 0, 68, 67
2, 32135, Note_on_c, 0, 64, 70
2, 32136, Note_on_c, 0, 45, 72
2, 32148, Note_on_c, 0, 81, 0
2, 32256, Note_on_c, 0, 68, 0
2, 32256, Note_on_c, 0, 71, 0
2, 32263, Note_on_c, 0, 52, 0
2, 32263, Note_on_c, 0, 64, 0
2, 32263, Note_on_c, 0, 80, 0
2, 32267, Note_on_c, 0, 68, 75
2, 32267, Note_on_c, 0, 71, 71
2, 32273, Note_on_c, 0, 52, 56
2, 32274, Note_on_c, 0, 64, 62
2, 32285, Note_on_c, 0, 44, 61
2, 32371, Note_on_c, 0, 47, 0
2, 32378, Note_on_c, 0, 69, 0
2, 32383, Note_on_c, 0, 45, 0
2, 32383, Note_on_c, 0, 44, 0
2, 32386, Control_c, 0, 64, 0
2, 32394, Note_on_c, 0, 56, 0
2, 32401, Note_on_c, 0, 57, 0
2, 32401, Note_on_c, 0, 64, 0
2, 32401, Note_on_c, 0, 68, 0
2, 32401, Note_on_c, 0, 71, 0
2, 32406, Note_on_c, 0, 64, 63
2, 32407, Note_on_c, 0, 68, 70
2, 32409, Note_on_c, 0, 52, 0
2, 32411, Note_on_c, 0, 71, 66
2, 32420, Note_on_c, 0, 52, 54
2, 32424, Note_on_c, 0, 40, 53
2, 32444, Note_on_c, 0, 68, 0
2, 32445, Note_on_c, 0, 64, 0
2, 32509, Note_on_c, 0, 71, 0
2, 32549, Note_on_c, 0, 71, 65
2, 32550, Note_on_c, 0, 64, 58
2, 32551, Note_on_c, 0, 68, 67
2, 32590, Note_on_c, 0, 64, 0
2, 32590, Note_on_c, 0, 68, 0
2, 32624, Note_on_c, 0, 40, 0
2, 32632, Note_on_c, 0, 52, 0
2, 32632, Note_on_c, 0, 71, 0
2, 32692, Note_on_c, 0, 62, 74
2, 32697, Note_on_c, 0, 38, 70
2, 32697, Note_on_c, 0, 69, 64
2, 32701, Note_on_c, 0, 66, 63
2, 32755, Control_c, 0, 64, 127
2, 32839, Note_on_c, 0, 69, 0
2, 32845, Note_on_c, 0, 69, 61
2, 32847, Note_on_c, 0, 66, 0
2, 32852, Note_on_c, 0, 66, 63
2, 32954, Note_on_c, 0, 62, 0
2, 32954, Note_on_c, 0, 69, 0
2, 32959, Note_on_c, 0, 69, 71
2, 32962, Note_on_c, 0, 66, 0
2, 32966, Note_on_c, 0, 62, 60
2, 32969, Note_on_c, 0, 66, 72
2, 32979, Note_on_c, 0, 76, 83
2, 33108, Note_on_c, 0, 66, 0
2, 33108, Note_on_c, 0, 69, 0
2, 33112, Note_on_c, 0, 66, 69
2, 33119, Note_on_c, 0, 69, 71
2, 33254, Note_on_c, 0, 62, 0
2, 33254, Note_on_c, 0, 66, 0
2, 33254, Note_on_c, 0, 69, 0
2, 33257, Note_on_c, 0, 81, 94
2, 33259, Note_on_c, 0, 69, 70
2, 33264, Note_on_c, 0, 62, 63
2, 33265, Note_on_c, 0, 66, 66
2, 33392, Note_on_c, 0, 66, 0
2, 33400, Note_on_c, 0, 62, 0
2, 33400, Note_on_c, 0, 69, 0
2, 33404, Note_on_c, 0, 66, 72
2, 33410, Note_on_c, 0, 62, 63
2, 33411, Note_on_c, 0, 69, 59
2, 33515, Note_on_c, 0, 69, 0
2, 33523, Note_on_c, 0, 62, 0
2, 33523, Note_on_c, 0, 69, 67
2, 33530, Note_on_c, 0, 66, 0
2, 33530, Note_on_c, 0, 76, 0
2, 33532, Note_on_c, 0, 62, 63
2, 33534, Note_on_c, 0, 76, 81
2, 33536, Note_on_c, 0, 66, 69
2, 33674, Note_on_c, 0, 83, 97
2, 33676, Note_on_c, 0, 66, 0
2, 33676, Note_on_c, 0, 69, 0
2, 33684, Note_on_c, 0, 62, 0
2, 33686, Note_on_c, 0, 69, 66
2, 33687, Note_on_c, 0, 66, 68
2, 33688, Note_on_c, 0, 62, 67
2, 33807, Note_on_c, 0, 62, 0
2, 33807, Note_on_c, 0, 66, 0
2, 33807, Note_on_c, 0, 69, 0
2, 33815, Note_on_c, 0, 62, 71
2, 33816, Note_on_c, 0, 66, 70
2, 33816, Note_on_c, 0, 69, 57
2, 33945, Note_on_c, 0, 62, 0
2, 33953, Note_on_c, 0, 66, 0
2, 33953, Note_on_c, 0, 81, 0
2, 33956, Note_on_c, 0, 62, 80
2, 33957, Note_on_c, 0, 66, 69
2, 33959, Note_on_c, 0, 81, 88
2, 34083, Note_on_c, 0, 76, 0
2, 34091, Note_on_c, 0, 62, 0
2, 34091, Note_on_c, 0, 69, 0
2, 34093, Note_on_c, 0, 76, 86
2, 34099, Note_on_c, 0, 66, 0
2, 34101, Note_on_c, 0, 62, 81
2, 34102, Note_on_c, 0, 69, 69
2, 34103, Note_on_c, 0, 66, 70
2, 34245, Note_on_c, 0, 66, 0
2, 34245, Note_on_c, 0, 69, 0
2, 34250, Note_on_c, 0, 69, 65
2, 34252, Note_on_c, 0, 62, 0
2, 34254, Note_on_c, 0, 66, 70
2, 34254, Note_on_c, 0, 59, 78
2, 34256, Note_on_c, 0, 62, 63
2, 34383, Note_on_c, 0, 62, 0
2, 34383, Note_on_c, 0, 66, 0
2, 34391, Note_on_c, 0, 69, 0
2, 34393, Note_on_c, 0, 66, 65
2, 34394, Note_on_c, 0, 62, 55
2, 34395, Note_on_c, 0, 69, 59
2, 34513, Note_on_c, 0, 62, 0
2, 34513, Note_on_c, 0, 69, 0
2, 34521, Note_on_c, 0, 66, 0
2, 34523, Note_on_c, 0, 57, 76
2, 34524, Note_on_c, 0, 62, 61
2, 34525, Note_on_c, 0, 69, 64
2, 34525, Note_on_c, 0, 66, 61
2, 34659, Note_on_c, 0, 66, 0
2, 34664, Note_on_c, 0, 52, 67
2, 34670, Note_on_c, 0, 66, 67
2, 34690, Note_on_c, 0, 62, 0
2, 34690, Note_on_c, 0, 69, 0
2, 34697, Note_on_c, 0, 69, 40
2, 34700, Note_on_c, 0, 62, 48
2, 34805, Note_on_c, 0, 62, 0
2, 34805, Note_on_c, 0, 66, 0
2, 34805, Note_on_c, 0, 69, 0
2, 34810, Note_on_c, 0, 62, 64
2, 34811, Note_on_c, 0, 66, 65
2, 34816, Note_on_c, 0, 69, 58
2, 34821, Note_on_c, 0, 57, 0
2, 34925, Note_on_c, 0, 83, 0
2, 34926, Note_on_c, 0, 52, 0
2, 34926, Note_on_c, 0, 76, 0
2, 34926, Note_on_c, 0, 62, 0
2, 34926, Note_on_c, 0, 81, 0
2, 34927, Control_c, 0, 64, 0
2, 34927, Note_on_c, 0, 59, 0
2, 34927, Note_on_c, 0, 66, 0
2, 34936, Note_on_c, 0, 38, 0
2, 34941, Note_on_c, 0, 37, 75
2, 34944, Note_on_c, 0, 69, 0
2, 34954, Note_on_c, 0, 69, 75
2, 34960, Note_on_c, 0, 64, 68
2, 34962, Note_on_c, 0, 61, 68
2, 35000, Note_on_c, 0, 37, 0
2, 35000, Note_on_c, 0, 61, 0
2, 35003, Note_on_c, 0, 64, 0
2, 35028, Control_c, 0, 64, 127
2, 35108, Note_on_c, 0, 64, 62
2, 35112, Note_on_c, 0, 69, 0
2, 35114, Note_on_c, 0, 61, 56
2, 35123, Note_on_c, 0, 69, 50
2, 35212, Note_on_c, 0, 61, 0
2, 35220, Note_on_c, 0, 64, 0
2, 35224, Note_on_c, 0, 61, 72
2, 35226, Note_on_c, 0, 64, 72
2, 35235, Note_on_c, 0, 69, 0
2, 35239, Note_on_c, 0, 76, 87
2, 35245, Note_on_c, 0, 69, 62
2, 35366, Note_on_c, 0, 69, 0
2, 35374, Note_on_c, 0, 61, 0
2, 35374, Note_on_c, 0, 64, 0
2, 35377, Note_on_c, 0, 69, 53
2, 35378, Note_on_c, 0, 64, 64
2, 35381, Note_on_c, 0, 61, 60
2, 35385, Note_on_c, 0, 57, 43
2, 35389, Note_on_c, 0, 57, 0
2, 35512, Note_on_c, 0, 61, 0
2, 35512, Note_on_c, 0, 64, 0
2, 35512, Note_on_c, 0, 69, 0
2, 35516, Note_on_c, 0, 61, 67
2, 35517, Note_on_c, 0, 69, 75
2, 35517, Note_on_c, 0, 57, 55
2, 35517, Note_on_c, 0, 64, 69
2, 35524, Note_on_c, 0, 81, 94
2, 35659, Note_on_c, 0, 80, 95
2, 35665, Note_on_c, 0, 57, 0
2, 35665, Note_on_c, 0, 61, 0
2, 35665, Note_on_c, 0, 64, 0
2, 35665, Note_on_c, 0, 69, 0
2, 35670, Note_on_c, 0, 69, 67
2, 35674, Note_on_c, 0, 57, 49
2, 35675, Note_on_c, 0, 64, 66
2, 35675, Note_on_c, 0, 61, 62
2, 35781, Note_on_c, 0, 57, 0
2, 35788, Note_on_c, 0, 61, 0
2, 35788, Note_on_c, 0, 64, 0
2, 35788, Note_on_c, 0, 69, 0
2, 35792, Note_on_c, 0, 57, 62
2, 35792, Note_on_c, 0, 61, 73
2, 35793, Note_on_c, 0, 64, 81
2, 35796, Note_on_c, 0, 76, 0
2, 35798, Note_on_c, 0, 69, 65
2, 35807, Note_on_c, 0, 76, 81
2, 35934, Note_on_c, 0, 81, 0
2, 35942, Note_on_c, 0, 57, 0
2, 35942, Note_on_c, 0, 61, 0
2, 35942, Note_on_c, 0, 64, 0
2, 35942, Note_on_c, 0, 69, 0
2, 35944, Note_on_c, 0, 81, 102
2, 35946, Note_on_c, 0, 61, 73
2, 35947, Note_on_c, 0, 64, 69
2, 35947, Note_on_c, 0, 69, 72
2, 35951, Note_on_c, 0, 57, 57
2, 36045, Note_on_c, 0, 80, 0
2, 36045, Control_c, 0, 64, 0
2, 36046, Note_on_c, 0, 76, 0
2, 36065, Note_on_c, 0, 57, 0
2, 36065, Note_on_c, 0, 61, 0
2, 36065, Note_on_c, 0, 64, 0
2, 36065, Note_on_c, 0, 69, 0
2, 36069, Note_on_c, 0, 64, 67
2, 36070, Note_on_c, 0, 69, 69
2, 36075, Note_on_c, 0, 57, 73
2, 36076, Note_on_c, 0, 61, 70
2, 36080, Control_c, 0, 64, 127
2, 36203, Note_on_c, 0, 57, 0
2, 36203, Note_on_c, 0, 69, 0
2, 36210, Note_on_c, 0, 69, 78
2, 36211, Note_on_c, 0, 61, 0
2, 36211, Note_on_c, 0, 64, 0
2, 36214, Note_on_c, 0, 57, 75
2, 36215, Note_on_c, 0, 61, 70
2, 36221, Note_on_c, 0, 80, 90
2, 36222, Note_on_c, 0, 64, 68
2, 36341, Note_on_c, 0, 61, 0
2, 36341, Note_on_c, 0, 64, 0
2, 36341, Note_on_c, 0, 69, 0
2, 36349, Note_on_c, 0, 57, 0
2, 36350, Note_on_c, 0, 61, 81
2, 36352, Note_on_c, 0, 69, 70
2, 36352, Note_on_c, 0, 64, 57
2, 36355, Note_on_c, 0, 57, 65
2, 36472, Note_on_c, 0, 57, 0
2, 36480, Note_on_c, 0, 61, 0
2, 36480, Note_on_c, 0, 64, 0
2, 36480, Note_on_c, 0, 69, 0
2, 36483, Note_on_c, 0, 57, 73
2, 36484, Note_on_c, 0, 61, 69
2, 36488, Note_on_c, 0, 69, 72
2, 36489, Note_on_c, 0, 64, 75
2, 36492, Note_on_c, 0, 76, 88
2, 36625, Note_on_c, 0, 57, 0
2, 36625, Note_on_c, 0, 61, 0
2, 36625, Note_on_c, 0, 64, 0
2, 36625, Note_on_c, 0, 69, 0
2, 36625, Note_on_c, 0, 81, 0
2, 36631, Note_on_c, 0, 64, 76
2, 36632, Note_on_c, 0, 81, 98
2, 36632, Note_on_c, 0, 69, 91
2, 36632, Note_on_c, 0, 57, 78
2, 36634, Note_on_c, 0, 61, 67
2, 36771, Note_on_c, 0, 69, 0
2, 36779, Note_on_c, 0, 57, 0
2, 36779, Note_on_c, 0, 61, 0
2, 36779, Note_on_c, 0, 64, 0
2, 36782, Note_on_c, 0, 69, 84
2, 36784, Note_on_c, 0, 57, 77
2, 36785, Note_on_c, 0, 61, 79
2, 36789, Note_on_c, 0, 64, 65
2, 36894, Note_on_c, 0, 64, 0
2, 36902, Note_on_c, 0, 57, 0
2, 36902, Note_on_c, 0, 61, 0
2, 36902, Note_on_c, 0, 69, 0
2, 36906, Note_on_c, 0, 64, 82
2, 36906, Note_on_c, 0, 83, 99
2, 36906, Note_on_c, 0, 61, 82
2, 36907, Note_on_c, 0, 57, 83
2, 36911, Note_on_c, 0, 69, 88
2, 37025, Note_on_c, 0, 57, 0
2, 37025, Note_on_c, 0, 61, 0
2, 37029, Note_on_c, 0, 57, 84
2, 37031, Note_on_c, 0, 61, 92
2, 37032, Note_on_c, 0, 83, 0
2, 37044, Note_on_c, 0, 83, 95
2, 37168, Note_on_c, 0, 69, 0
2, 37168, Note_on_c, 0, 57, 0
2, 37168, Note_on_c, 0, 80, 0
2, 37168, Note_on_c, 0, 61, 0
2, 37168, Note_on_c, 0, 81, 0
2, 37169, Note_on_c, 0, 76, 0
2, 37172, Control_c, 0, 64, 0
2, 37178, Note_on_c, 0, 64, 0
2, 37178, Note_on_c, 0, 83, 0
2, 37190, Note_on_c, 0, 83, 110
2, 37190, Note_on_c, 0, 35, 88
2, 37191, Note_on_c, 0, 47, 95
2, 37193, Note_on_c, 0, 78, 91
2, 37229, Note_on_c, 0, 47, 0
2, 37248, Control_c, 0, 64, 127
2, 37255, Note_on_c, 0, 35, 0
2, 37340, Note_on_c, 0, 78, 0
2, 37344, Note_on_c, 0, 78, 82
2, 37350, Note_on_c, 0, 76, 76
2, 37350, Note_on_c, 0, 71, 81
2, 37470, Note_on_c, 0, 78, 0
2, 37478, Note_on_c, 0, 76, 0
2, 37481, Note_on_c, 0, 59, 83
2, 37481, Note_on_c, 0, 78, 87
2, 37482, Note_on_c, 0, 66, 88
2, 37483, Note_on_c, 0, 64, 75
2, 37483, Note_on_c, 0, 76, 71
2, 37608, Note_on_c, 0, 59, 0
2, 37608, Note_on_c, 0, 66, 0
2, 37608, Note_on_c, 0, 71, 0
2, 37616, Note_on_c, 0, 64, 0
2, 37616, Note_on_c, 0, 76, 0
2, 37618, Note_on_c, 0, 66, 91
2, 37619, Note_on_c, 0, 71, 79
2, 37619, Note_on_c, 0, 59, 83
2, 37620, Note_on_c, 0, 76, 75
2, 37620, Note_on_c, 0, 64, 82
2, 37747, Note_on_c, 0, 59, 0
2, 37747, Note_on_c, 0, 64, 0
2, 37747, Note_on_c, 0, 66, 0
2, 37747, Note_on_c, 0, 71, 0
2, 37747, Note_on_c, 0, 76, 0
2, 37747, Note_on_c, 0, 78, 0
2, 37752, Note_on_c, 0, 59, 90
2, 37752, Note_on_c, 0, 78, 90
2, 37753, Note_on_c, 0, 66, 88
2, 37754, Note_on_c, 0, 64, 83
2, 37756, Note_on_c, 0, 76, 81
2, 37758, Note_on_c, 0, 71, 84
2, 37885, Note_on_c, 0, 66, 0
2, 37893, Note_on_c, 0, 59, 0
2, 37893, Note_on_c, 0, 76, 0
2, 37895, Note_on_c, 0, 66, 92
2, 37899, Note_on_c, 0, 59, 86
2, 37900, Note_on_c, 0, 71, 0
2, 37901, Note_on_c, 0, 76, 92
2, 37905, Note_on_c, 0, 71, 85
2, 38008, Note_on_c, 0, 59, 0
2, 38008, Note_on_c, 0, 66, 0
2, 38015, Note_on_c, 0, 66, 83
2, 38015, Note_on_c, 0, 59, 94
2, 38031, Note_on_c, 0, 71, 0
2, 38031, Note_on_c, 0, 76, 0
2, 38038, Note_on_c, 0, 71, 95
2, 38039, Note_on_c, 0, 76, 86
2, 38151, Control_c, 0, 64, 0
2, 38152, Note_on_c, 0, 83, 0
2, 38152, Note_on_c, 0, 64, 0
2, 38152, Note_on_c, 0, 66, 0
2, 38169, Note_on_c, 0, 59, 0
2, 38169, Note_on_c, 0, 71, 0
2, 38169, Note_on_c, 0, 76, 0
2, 38169, Note_on_c, 0, 78, 0
2, 38177, Note_on_c, 0, 59, 107
2, 38179, Note_on_c, 0, 47, 99
2, 38180, Note_on_c, 0, 76, 101
2, 38180, Note_on_c, 0, 78, 100
2, 38181, Note_on_c, 0, 71, 102
2, 38212, Note_on_c, 0, 47, 0
2, 38212, Note_on_c, 0, 59, 0
2, 38223, Control_c, 0, 64, 127
2, 38453, Note_on_c, 0, 42, 93
2, 38455, Note_on_c, 0, 54, 94
2, 38457, Note_on_c, 0, 66, 104
2, 38592, Note_on_c, 0, 45, 97
2, 38593, Note_on_c, 0, 57, 101
2, 38595, Note_on_c, 0, 69, 96
2, 38623, Note_on_c, 0, 42, 0
2, 38627, Note_on_c, 0, 54, 0
2, 38627, Note_on_c, 0, 71, 0
2, 38627, Note_on_c, 0, 66, 0
2, 38628, Control_c, 0, 64, 0
2, 38628, Note_on_c, 0, 78, 0
2, 38633, Note_on_c, 0, 76, 0
2, 38634, Note_on_c, 0, 45, 0
2, 38635, Note_on_c, 0, 57, 0
2, 38650, Note_on_c, 0, 69, 0
2, 38725, Note_on_c, 0, 64, 107
2, 38726, Note_on_c, 0, 52, 98
2, 38726, Note_on_c, 0, 76, 107
2, 38755, Note_on_c, 0, 64, 0
2, 38757, Note_on_c, 0, 52, 0
2, 38777, Note_on_c, 0, 76, 0
2, 38870, Note_on_c, 0, 59, 108
2, 38871, Note_on_c, 0, 47, 97
2, 38871, Note_on_c, 0, 71, 105
2, 38914, Control_c, 0, 64, 127
2, 39001, Note_on_c, 0, 50, 94
2, 39002, Note_on_c, 0, 62, 102
2, 39003, Note_on_c, 0, 74, 100
2, 39051, Control_c, 0, 64, 0
2, 39057, Note_on_c, 0, 71, 0
2, 39058, Note_on_c, 0, 62, 0
2, 39060, Note_on_c, 0, 50, 0
2, 39063, Note_on_c, 0, 74, 0
2, 39068, Note_on_c, 0, 47, 0
2, 39068, Note_on_c, 0, 59, 0
2, 39140, Note_on_c, 0, 42, 94
2, 39141, Note_on_c, 0, 54, 92
2, 39143, Note_on_c, 0, 66, 103
2, 39183, Control_c, 0, 64, 127
2, 39279, Note_on_c, 0, 69, 98
2, 39279, Note_on_c, 0, 45, 93
2, 39281, Note_on_c, 0, 57, 92
2, 39386, Control_c, 0, 64, 0
2, 39390, Note_on_c, 0, 66, 0
2, 39390, Note_on_c, 0, 57, 0
2, 39391, Note_on_c, 0, 42, 0
2, 39391, Note_on_c, 0, 45, 0
2, 39392, Note_on_c, 0, 69, 0
2, 39393, Note_on_c, 0, 54, 0
2, 39424, Note_on_c, 0, 86, 109
2, 39427, Note_on_c, 0, 79, 108
2, 39431, Note_on_c, 0, 74, 101
2, 39432, Note_on_c, 0, 83, 99
2, 39433, Note_on_c, 0, 31, 94
2, 39521, Control_c, 0, 64, 127
2, 39579, Note_on_c, 0, 38, 76
2, 39708, Note_on_c, 0, 43, 56
2, 39831, Note_on_c, 0, 38, 0
2, 39832, Note_on_c, 0, 31, 0
2, 39832, Note_on_c, 0, 86, 0
2, 39832, Note_on_c, 0, 74, 0
2, 39832, Control_c, 0, 64, 0
2, 39832, Note_on_c, 0, 83, 0
2, 39832, Note_on_c, 0, 79, 0
2, 39851, Note_on_c, 0, 43, 0
2, 39858, Note_on_c, 0, 88, 107
2, 39861, Note_on_c, 0, 76, 108
2, 39862, Note_on_c, 0, 81, 98
2, 39862, Note_on_c, 0, 85, 105
2, 39862, Note_on_c, 0, 33, 86
2, 39863, Note_on_c, 0, 45, 93
2, 39928, Control_c, 0, 64, 127
2, 40145, Note_on_c, 0, 64, 93
2, 40149, Note_on_c, 0, 57, 87
2, 40271, Note_on_c, 0, 69, 86
2, 40273, Note_on_c, 0, 73, 93
2, 40275, Note_on_c, 0, 52, 78
2, 40396, Note_on_c, 0, 45, 0
2, 40396, Note_on_c, 0, 76, 0
2, 40401, Note_on_c, 0, 45, 77
2, 40406, Note_on_c, 0, 76, 89
2, 40548, Note_on_c, 0, 78, 113
2, 40552, Note_on_c, 0, 90, 106
2, 40552, Note_on_c, 0, 83, 90
2, 40553, Note_on_c, 0, 31, 83
2, 40554, Note_on_c, 0, 43, 92
2, 40554, Note_on_c, 0, 86, 98
2, 40568, Control_c, 0, 64, 0
2, 40569, Note_on_c, 0, 45, 0
2, 40570, Note_on_c, 0, 69, 0
2, 40570, Note_on_c, 0, 64, 0
2, 40570, Note_on_c, 0, 73, 0
2, 40572, Note_on_c, 0, 57, 0
2, 40572, Note_on_c, 0, 85, 0
2, 40573, Note_on_c, 0, 81, 0
2, 40576, Note_on_c, 0, 84, 62
2, 40578, Note_on_c, 0, 88, 0
2, 40581, Note_on_c, 0, 33, 0
2, 40581, Note_on_c, 0, 76, 0
2, 40588, Note_on_c, 0, 52, 0
2, 40650, Control_c, 0, 64, 127
2, 40702, Note_on_c, 0, 38, 76
2, 40811, Note_on_c, 0, 43, 0
2, 40819, Note_on_c, 0, 31, 0
2, 40819, Note_on_c, 0, 86, 0
2, 40822, Note_on_c, 0, 43, 77
2, 40823, Note_on_c, 0, 31, 75
2, 40829, Note_on_c, 0, 86, 106
2, 40830, Note_on_c, 0, 74, 100
2, 40936, Control_c, 0, 64, 0
2, 40937, Note_on_c, 0, 86, 0
2, 40938, Note_on_c, 0, 74, 0
2, 40938, Note_on_c, 0, 38, 0
2, 40938, Note_on_c, 0, 78, 0
2, 40938, Note_on_c, 0, 43, 0
2, 40938, Note_on_c, 0, 83, 0
2, 40939, Note_on_c, 0, 31, 0
2, 40942, Note_on_c, 0, 84, 0
2, 40942, Note_on_c, 0, 90, 0
2, 40975, Note_on_c, 0, 45, 95
2, 40975, Note_on_c, 0, 33, 89
2, 40976, Note_on_c, 0, 88, 108
2, 40976, Note_on_c, 0, 85, 105
2, 40977, Note_on_c, 0, 76, 108
2, 40977, Note_on_c, 0, 81, 97
2, 41026, Note_on_c, 0, 33, 0
2, 41034, Control_c, 0, 64, 127
2, 41261, Note_on_c, 0, 57, 83
2, 41262, Note_on_c, 0, 64, 79
2, 41403, Note_on_c, 0, 73, 89
2, 41403, Note_on_c, 0, 52, 75
2, 41403, Note_on_c, 0, 69, 72
2, 41510, Note_on_c, 0, 45, 0
2, 41521, Note_on_c, 0, 45, 81
2, 41533, Note_on_c, 0, 73, 0
2, 41533, Note_on_c, 0, 76, 0
2, 41537, Note_on_c, 0, 76, 87
2, 41543, Note_on_c, 0, 73, 67
2, 41661, Note_on_c, 0, 85, 0
2, 41661, Note_on_c, 0, 52, 0
2, 41661, Note_on_c, 0, 64, 0
2, 41661, Note_on_c, 0, 81, 0
2, 41662, Note_on_c, 0, 88, 0
2, 41662, Note_on_c, 0, 69, 0
2, 41662, Note_on_c, 0, 73, 0
2, 41662, Note_on_c, 0, 76, 0
2, 41663, Note_on_c, 0, 57, 0
2, 41665, Control_c, 0, 64, 0
2, 41679, Note_on_c, 0, 45, 0
2, 41680, Note_on_c, 0, 42, 86
2, 41682, Note_on_c, 0, 54, 83
2, 41820, Note_on_c, 0, 50, 68
2, 41825, Control_c, 0, 64, 127
2, 41925, Note_on_c, 0, 54, 0
2, 41936, Note_on_c, 0, 54, 71
2, 41954, Note_on_c, 0, 42, 0
2, 41967, Note_on_c, 0, 90, 102
2, 41970, Note_on_c, 0, 81, 94
2, 41972, Note_on_c, 0, 86, 94
2, 41972, Note_on_c, 0, 78, 99
2, 42087, Control_c, 0, 64, 0
2, 42105, Note_on_c, 0, 55, 87
2, 42105, Note_on_c, 0, 43, 90
2, 42117, Control_c, 0, 64, 127
2, 42247, Note_on_c, 0, 54, 0
2, 42251, Note_on_c, 0, 91, 109
2, 42255, Note_on_c, 0, 86, 0
2, 42258, Note_on_c, 0, 79, 102
2, 42259, Note_on_c, 0, 86, 96
2, 42265, Note_on_c, 0, 83, 89
2, 42385, Note_on_c, 0, 43, 0
2, 42385, Note_on_c, 0, 55, 0
2, 42389, Note_on_c, 0, 55, 88
2, 42391, Note_on_c, 0, 43, 76
2, 42524, Note_on_c, 0, 78, 0
2, 42524, Note_on_c, 0, 90, 0
2, 42530, Note_on_c, 0, 62, 90
2, 42531, Note_on_c, 0, 90, 97
2, 42533, Note_on_c, 0, 78, 98
2, 42534, Note_on_c, 0, 59, 89
2, 42540, Note_on_c, 0, 87, 76
2, 42547, Note_on_c, 0, 87, 0
2, 42654, Note_on_c, 0, 55, 0
2, 42661, Note_on_c, 0, 55, 74
2, 42671, Note_on_c, 0, 88, 107
2, 42677, Note_on_c, 0, 81, 0
2, 42681, Note_on_c, 0, 85, 100
2, 42681, Note_on_c, 0, 76, 100
2, 42682, Note_on_c, 0, 81, 87
2, 42763, Note_on_c, 0, 86, 0
2, 42763, Note_on_c, 0, 78, 0
2, 42764, Note_on_c, 0, 43, 0
2, 42764, Note_on_c, 0, 91, 0
2, 42764, Note_on_c, 0, 90, 0
2, 42764, Note_on_c, 0, 59, 0
2, 42764, Note_on_c, 0, 55, 0
2, 42764, Note_on_c, 0, 62, 0
2, 42764, Note_on_c, 0, 83, 0
2, 42765, Note_on_c, 0, 79, 0
2, 42766, Control_c, 0, 64, 0
2, 42769, Note_on_c, 0, 50, 0
2, 42812, Note_on_c, 0, 57, 87
2, 42813, Note_on_c, 0, 45, 84
2, 42862, Control_c, 0, 64, 127
2, 42940, Note_on_c, 0, 52, 84
2, 42950, Note_on_c, 0, 78, 100
2, 42954, Note_on_c, 0, 90, 103
2, 43069, Note_on_c, 0, 57, 0
2, 43080, Note_on_c, 0, 57, 88
2, 43089, Note_on_c, 0, 91, 103
2, 43093, Note_on_c, 0, 79, 104
2, 43200, Note_on_c, 0, 76, 0
2, 43203, Note_on_c, 0, 45, 0
2, 43204, Note_on_c, 0, 85, 0
2, 43204, Note_on_c, 0, 78, 0
2, 43204, Note_on_c, 0, 57, 0
2, 43205, Note_on_c, 0, 79, 0
2, 43205, Control_c, 0, 64, 0
2, 43215, Note_on_c, 0, 52, 0
2, 43215, Note_on_c, 0, 81, 0
2, 43228, Note_on_c, 0, 47, 92
2, 43228, Note_on_c, 0, 59, 100
2, 43246, Note_on_c, 0, 88, 0
2, 43284, Control_c, 0, 64, 127
2, 43353, Note_on_c, 0, 90, 0
2, 43364, Note_on_c, 0, 90, 103
2, 43365, Note_on_c, 0, 78, 105
2, 43365, Note_on_c, 0, 86, 98
2, 43369, Note_on_c, 0, 83, 84
2, 43499, Note_on_c, 0, 59, 0
2, 43507, Note_on_c, 0, 59, 90
2, 43642, Note_on_c, 0, 66, 93
2, 43645, Note_on_c, 0, 88, 102
2, 43649, Note_on_c, 0, 62, 77
2, 43650, Note_on_c, 0, 76, 95
2, 43760, Note_on_c, 0, 59, 0
2, 43768, Note_on_c, 0, 86, 0
2, 43771, Note_on_c, 0, 59, 92
2, 43779, Note_on_c, 0, 86, 100
2, 43782, Note_on_c, 0, 74, 96
2, 43877, Note_on_c, 0, 47, 0
2, 43878, Note_on_c, 0, 88, 0
2, 43879, Note_on_c, 0, 90, 0
2, 43879, Note_on_c, 0, 66, 0
2, 43879, Note_on_c, 0, 62, 0
2, 43879, Note_on_c, 0, 76, 0
2, 43879, Note_on_c, 0, 78, 0
2, 43879, Note_on_c, 0, 86, 0
2, 43879, Note_on_c, 0, 74, 0
2, 43880, Note_on_c, 0, 83, 0
2, 43881, Control_c, 0, 64, 0
2, 43883, Note_on_c, 0, 91, 0
2, 43891, Note_on_c, 0, 59, 0
2, 43924, Note_on_c, 0, 88, 105
2, 43925, Note_on_c, 0, 43, 86
2, 43926, Note_on_c, 0, 76, 107
2, 43927, Note_on_c, 0, 79, 98
2, 43931, Note_on_c, 0, 83, 85
2, 43960, Control_c, 0, 64, 127
2, 44070, Note_on_c, 0, 86, 102
2, 44071, Note_on_c, 0, 59, 85
2, 44071, Note_on_c, 0, 74, 98
2, 44219, Note_on_c, 0, 55, 78
2, 44344, Note_on_c, 0, 59, 0
2, 44351, Note_on_c, 0, 59, 80
2, 44457, Control_c, 0, 64, 0
2, 44457, Note_on_c, 0, 59, 0
2, 44457, Note_on_c, 0, 76, 0
2, 44457, Note_on_c, 0, 55, 0
2, 44457, Note_on_c, 0, 79, 0
2, 44457, Note_on_c, 0, 83, 0
2, 44474, Note_on_c, 0, 43, 0
2, 44487, Note_on_c, 0, 42, 82
2, 44528, Control_c, 0, 64, 127
2, 44629, Note_on_c, 0, 57, 78
2, 44760, Note_on_c, 0, 54, 77
2, 44897, Note_on_c, 0, 57, 0
2, 44897, Note_on_c, 0, 74, 0
2, 44900, Note_on_c, 0, 91, 107
2, 44902, Note_on_c, 0, 57, 90
2, 44904, Note_on_c, 0, 86, 0
2, 44907, Note_on_c, 0, 79, 104
2, 44910, Note_on_c, 0, 86, 95
2, 44912, Note_on_c, 0, 83, 86
2, 45024, Note_on_c, 0, 54, 0
2, 45025, Note_on_c, 0, 57, 0
2, 45027, Note_on_c, 0, 42, 0
2, 45031, Control_c, 0, 64, 0
2, 45034, Note_on_c, 0, 40, 81
2, 45058, Note_on_c, 0, 88, 0
2, 45096, Control_c, 0, 64, 127
2, 45179, Note_on_c, 0, 90, 97
2, 45182, Note_on_c, 0, 78, 98
2, 45182, Note_on_c, 0, 55, 83
2, 45315, Note_on_c, 0, 88, 99
2, 45315, Note_on_c, 0, 52, 79
2, 45316, Note_on_c, 0, 76, 97
2, 45442, Note_on_c, 0, 55, 0
2, 45442, Note_on_c, 0, 86, 0
2, 45447, Note_on_c, 0, 55, 76
2, 45447, Note_on_c, 0, 86, 100
2, 45451, Note_on_c, 0, 74, 96
2, 45534, Note_on_c, 0, 90, 0
2, 45534, Note_on_c, 0, 52, 0
2, 45534, Note_on_c, 0, 55, 0
2, 45535, Note_on_c, 0, 78, 0
2, 45536, Note_on_c, 0, 88, 0
2, 45536, Note_on_c, 0, 74, 0
2, 45536, Note_on_c, 0, 79, 0
2, 45536, Note_on_c, 0, 76, 0
2, 45536, Note_on_c, 0, 86, 0
2, 45538, Control_c, 0, 64, 0
2, 45542, Note_on_c, 0, 40, 0
2, 45542, Note_on_c, 0, 91, 0
2, 45550, Note_on_c, 0, 83, 0
2, 45579, Note_on_c, 0, 36, 87
2, 45584, Note_on_c, 0, 86, 103
2, 45587, Note_on_c, 0, 74, 102
2, 45603, Control_c, 0, 64, 127
2, 45725, Note_on_c, 0, 55, 83
2, 45728, Note_on_c, 0, 88, 107
2, 45729, Note_on_c, 0, 76, 105
2, 45874, Note_on_c, 0, 52, 71
2, 45972, Note_on_c, 0, 36, 0
2, 45987, Note_on_c, 0, 55, 0
2, 45992, Note_on_c, 0, 55, 84
2, 45995, Note_on_c, 0, 88, 0
2, 46003, Note_on_c, 0, 76, 0
2, 46005, Note_on_c, 0, 88, 108
2, 46010, Note_on_c, 0, 76, 107
2, 46010, Note_on_c, 0, 85, 104
2, 46012, Note_on_c, 0, 81, 94
2, 46124, Note_on_c, 0, 52, 0
2, 46124, Note_on_c, 0, 74, 0
2, 46125, Note_on_c, 0, 86, 0
2, 46126, Control_c, 0, 64, 0
2, 46127, Note_on_c, 0, 55, 0
2, 46144, Note_on_c, 0, 33, 84
2, 46248, Control_c, 0, 64, 127
2, 46285, Note_on_c, 0, 45, 73
2, 46417, Note_on_c, 0, 45, 0
2, 46428, Note_on_c, 0, 45, 69
2, 46490, Note_on_c, 0, 49, 75
2, 46539, Note_on_c, 0, 57, 77
2, 46549, Note_on_c, 0, 52, 74
2, 46599, Note_on_c, 0, 61, 76
2, 46638, Note_on_c, 0, 64, 76
2, 46694, Note_on_c, 0, 57, 0
2, 46702, Note_on_c, 0, 57, 83
2, 46732, Note_on_c, 0, 61, 0
2, 46737, Note_on_c, 0, 61, 88
2, 46786, Note_on_c, 0, 64, 0
2, 46792, Note_on_c, 0, 64, 81
2, 46828, Note_on_c, 0, 69, 82
2, 46884, Note_on_c, 0, 73, 86
2, 46917, Note_on_c, 0, 76, 0
2, 46925, Note_on_c, 0, 76, 92
2, 46963, Note_on_c, 0, 69, 0
2, 46974, Note_on_c, 0, 69, 88
2, 47032, Note_on_c, 0, 73, 0
2, 47040, Note_on_c, 0, 73, 98
2, 47070, Note_on_c, 0, 81, 0
2, 47079, Note_on_c, 0, 81, 94
2, 47101, Note_on_c, 0, 76, 0
2, 47105, Note_on_c, 0, 76, 82
2, 47139, Note_on_c, 0, 85, 0
2, 47145, Note_on_c, 0, 85, 91
2, 47178, Note_on_c, 0, 88, 0
2, 47182, Note_on_c, 0, 88, 95
2, 47255, Note_on_c, 0, 85, 0
2, 47255, Note_on_c, 0, 88, 0
2, 47257, Note_on_c, 0, 95, 107
2, 47262, Note_on_c, 0, 69, 0
2, 47262, Note_on_c, 0, 81, 0
2, 47262, Note_on_c, 0, 95, 0
2, 47264, Note_on_c, 0, 88, 95
2, 47264, Note_on_c, 0, 85, 100
2, 47271, Note_on_c, 0, 69, 73
2, 47272, Note_on_c, 0, 81, 88
2, 47339, Note_on_c, 0, 76, 0
2, 47347, Note_on_c, 0, 76, 78
2, 47393, Note_on_c, 0, 73, 0
2, 47403, Note_on_c, 0, 73, 96
2, 47461, Note_on_c, 0, 95, 105
2, 47462, Note_on_c, 0, 85, 0
2, 47462, Note_on_c, 0, 88, 0
2, 47466, Note_on_c, 0, 88, 104
2, 47467, Note_on_c, 0, 85, 102
2, 47493, Note_on_c, 0, 69, 0
2, 47502, Note_on_c, 0, 69, 72
2, 47585, Note_on_c, 0, 64, 0
2, 47593, Note_on_c, 0, 64, 64
2, 47646, Note_on_c, 0, 61, 0
2, 47646, Note_on_c, 0, 95, 0
2, 47654, Note_on_c, 0, 85, 0
2, 47654, Note_on_c, 0, 88, 0
2, 47654, Note_on_c, 0, 61, 86
2, 47657, Note_on_c, 0, 95, 100
2, 47661, Note_on_c, 0, 85, 96
2, 47662, Note_on_c, 0, 88, 93
2, 47731, Note_on_c, 0, 57, 0
2, 47737, Note_on_c, 0, 57, 84
2, 47800, Note_on_c, 0, 85, 0
2, 47800, Note_on_c, 0, 88, 0
2, 47800, Note_on_c, 0, 95, 0
2, 47804, Note_on_c, 0, 88, 100
2, 47808, Note_on_c, 0, 95, 103
2, 47811, Note_on_c, 0, 85, 99
2, 47811, Note_on_c, 0, 83, 93
2, 47831, Note_on_c, 0, 69, 0
2, 47835, Note_on_c, 0, 69, 77
2, 47838, Note_on_c, 0, 64, 0
2, 47849, Note_on_c, 0, 64, 68
2, 47907, Note_on_c, 0, 61, 0
2, 47915, Note_on_c, 0, 61, 86
2, 47953, Note_on_c, 0, 81, 0
2, 47958, Note_on_c, 0, 93, 105
2, 47958, Note_on_c, 0, 81, 102
2, 48015, Note_on_c, 0, 57, 0
2, 48021, Note_on_c, 0, 57, 80
2, 48092, Note_on_c, 0, 52, 0
2, 48098, Note_on_c, 0, 52, 62
2, 48138, Note_on_c, 0, 49, 0
2, 48142, Note_on_c, 0, 49, 66
2, 48215, Note_on_c, 0, 45, 0
2, 48224, Note_on_c, 0, 45, 78
2, 48359, Control_c, 0, 64, 0
2, 48360, Note_on_c, 0, 83, 0
2, 48363, Note_on_c, 0, 64, 0
2, 48363, Note_on_c, 0, 52, 0
2, 48363, Note_on_c, 0, 61, 0
2, 48363, Note_on_c, 0, 45, 0
2, 48363, Note_on_c, 0, 69, 0
2, 48363, Note_on_c, 0, 81, 0
2, 48363, Note_on_c, 0, 73, 0
2, 48363, Note_on_c, 0, 88, 0
2, 48364, Note_on_c, 0, 49, 0
2, 48364, Note_on_c, 0, 57, 0
2, 48364, Note_on_c, 0, 93, 0
2, 48364, Note_on_c, 0, 76, 0
2, 48366, Note_on_c, 0, 33, 0
2, 48376, Note_on_c, 0, 85, 0
2, 48376, Note_on_c, 0, 95, 0
2, 48378, Note_on_c, 0, 74, 105
2, 48379, Note_on_c, 0, 31, 79
2, 48379, Note_on_c, 0, 43, 87
2, 48380, Note_on_c, 0, 71, 94
2, 48382, Note_on_c, 0, 62, 95
2, 48383, Note_on_c, 0, 67, 96
2, 48460, Control_c, 0, 64, 127
2, 48516, Note_on_c, 0, 38, 70
2, 48637, Note_on_c, 0, 43, 0
2, 48647, Note_on_c, 0, 43, 66
2, 48780, Note_on_c, 0, 38, 0
2, 48781, Note_on_c, 0, 43, 0
2, 48781, Note_on_c, 0, 67, 0
2, 48782, Control_c, 0, 64, 0
2, 48782, Note_on_c, 0, 74, 0
2, 48782, Note_on_c, 0, 71, 0
2, 48783, Note_on_c, 0, 31, 0
2, 48791, Note_on_c, 0, 62, 0
2, 48810, Note_on_c, 0, 76, 101
2, 48811, Note_on_c, 0, 73, 98
2, 48813, Note_on_c, 0, 69, 86
2, 48814, Note_on_c, 0, 64, 92
2, 48815, Note_on_c, 0, 33, 81
2, 48816, Note_on_c, 0, 45, 90
2, 48856, Note_on_c, 0, 64, 0
2, 48856, Note_on_c, 0, 33, 0
2, 48883, Control_c, 0, 64, 127
2, 49090, Note_on_c, 0, 76, 0
2, 49098, Note_on_c, 0, 45, 0
2, 49100, Note_on_c, 0, 76, 89
2, 49102, Note_on_c, 0, 57, 83
2, 49106, Note_on_c, 0, 45, 68
2, 49232, Note_on_c, 0, 52, 71
2, 49232, Note_on_c, 0, 81, 90
2, 49234, Note_on_c, 0, 85, 92
2, 49344, Note_on_c, 0, 45, 0
2, 49352, Note_on_c, 0, 45, 79
2, 49362, Note_on_c, 0, 88, 94
2, 49505, Control_c, 0, 64, 0
2, 49507, Note_on_c, 0, 52, 0
2, 49508, Note_on_c, 0, 45, 0
2, 49508, Note_on_c, 0, 81, 0
2, 49508, Note_on_c, 0, 76, 0
2, 49509, Note_on_c, 0, 57, 0
2, 49509, Note_on_c, 0, 85, 0
2, 49509, Note_on_c, 0, 78, 104
2, 49509, Note_on_c, 0, 88, 0
2, 49509, Note_on_c, 0, 69, 0
2, 49516, Note_on_c, 0, 74, 85
2, 49518, Note_on_c, 0, 66, 93
2, 49518, Note_on_c, 0, 31, 81
2, 49520, Note_on_c, 0, 73, 0
2, 49521, Note_on_c, 0, 43, 86
2, 49523, Note_on_c, 0, 71, 84
2, 49651, Control_c, 0, 64, 127
2, 49666, Note_on_c, 0, 38, 66
2, 49781, Note_on_c, 0, 43, 0
2, 49789, Note_on_c, 0, 31, 0
2, 49789, Note_on_c, 0, 74, 0
2, 49792, Note_on_c, 0, 43, 73
2, 49793, Note_on_c, 0, 31, 69
2, 49794, Note_on_c, 0, 74, 99
2, 49795, Note_on_c, 0, 86, 93
2, 49799, Note_on_c, 0, 62, 85
2, 49899, Note_on_c, 0, 66, 0
2, 49900, Note_on_c, 0, 38, 0
2, 49900, Note_on_c, 0, 62, 0
2, 49901, Note_on_c, 0, 43, 0
2, 49901, Note_on_c, 0, 74, 0
2, 49901, Control_c, 0, 64, 0
2, 49901, Note_on_c, 0, 78, 0
2, 49901, Note_on_c, 0, 86, 0
2, 49901, Note_on_c, 0, 71, 0
2, 49920, Note_on_c, 0, 31, 0
2, 49945, Note_on_c, 0, 76, 104
2, 49947, Note_on_c, 0, 64, 93
2, 49948, Note_on_c, 0, 69, 83
2, 49948, Note_on_c, 0, 45, 90
2, 49948, Note_on_c, 0, 73, 94
2, 49949, Note_on_c, 0, 33, 79
2, 49982, Note_on_c, 0, 64, 0
2, 49983, Note_on_c, 0, 45, 0
2, 50004, Control_c, 0, 64, 127
2, 50019, Note_on_c, 0, 33, 0
2, 50234, Note_on_c, 0, 76, 0
2, 50241, Note_on_c, 0, 76, 91
2, 50242, Note_on_c, 0, 57, 80
2, 50245, Note_on_c, 0, 45, 71
2, 50374, Note_on_c, 0, 52, 73
2, 50377, Note_on_c, 0, 81, 90
2, 50382, Note_on_c, 0, 85, 91
2, 50503, Note_on_c, 0, 45, 0
2, 50508, Note_on_c, 0, 45, 79
2, 50512, Note_on_c, 0, 88, 96
2, 50659, Note_on_c, 0, 38, 87
2, 50667, Control_c, 0, 64, 0
2, 50669, Note_on_c, 0, 69, 0
2, 50669, Note_on_c, 0, 57, 0
2, 50669, Note_on_c, 0, 52, 0
2, 50669, Note_on_c, 0, 76, 0
2, 50670, Note_on_c, 0, 85, 0
2, 50670, Note_on_c, 0, 81, 0
2, 50671, Note_on_c, 0, 88, 0
2, 50672, Note_on_c, 0, 45, 0
2, 50672, Note_on_c, 0, 73, 0
2, 50790, Note_on_c, 0, 45, 76
2, 50849, Control_c, 0, 64, 127
2, 50929, Note_on_c, 0, 50, 62
2, 50948, Note_on_c, 0, 78, 101
2, 51074, Note_on_c, 0, 45, 0
2, 51075, Note_on_c, 0, 50, 0
2, 51076, Control_c, 0, 64, 0
2, 51079, Note_on_c, 0, 38, 0
2, 51090, Note_on_c, 0, 43, 85
2, 51090, Note_on_c, 0, 55, 84
2, 51171, Control_c, 0, 64, 127
2, 51235, Note_on_c, 0, 79, 105
2, 51245, Note_on_c, 0, 74, 85
2, 51245, Note_on_c, 0, 71, 89
2, 51356, Note_on_c, 0, 55, 0
2, 51366, Note_on_c, 0, 55, 71
2, 51502, Note_on_c, 0, 78, 0
2, 51506, Note_on_c, 0, 78, 98
2, 51512, Note_on_c, 0, 59, 81
2, 51513, Note_on_c, 0, 62, 75
2, 51632, Note_on_c, 0, 55, 0
2, 51638, Note_on_c, 0, 55, 76
2, 51645, Note_on_c, 0, 76, 102
2, 51651, Note_on_c, 0, 73, 91
2, 51657, Note_on_c, 0, 69, 78
2, 51763, Note_on_c, 0, 43, 0
2, 51767, Note_on_c, 0, 78, 0
2, 51768, Control_c, 0, 64, 0
2, 51768, Note_on_c, 0, 55, 0
2, 51768, Note_on_c, 0, 74, 0
2, 51768, Note_on_c, 0, 62, 0
2, 51768, Note_on_c, 0, 59, 0
2, 51768, Note_on_c, 0, 79, 0
2, 51768, Note_on_c, 0, 71, 0
2, 51787, Note_on_c, 0, 45, 77
2, 51788, Note_on_c, 0, 57, 78
2, 51886, Control_c, 0, 64, 127
2, 51928, Note_on_c, 0, 52, 74
2, 51933, Note_on_c, 0, 78, 95
2, 52062, Note_on_c, 0, 57, 0
2, 52069, Note_on_c, 0, 57, 82
2, 52073, Note_on_c, 0, 79, 102
2, 52187, Control_c, 0, 64, 0
2, 52190, Note_on_c, 0, 52, 0
2, 52190, Note_on_c, 0, 57, 0
2, 52190, Note_on_c, 0, 73, 0
2, 52190, Note_on_c, 0, 78, 0
2, 52190, Note_on_c, 0, 45, 0
2, 52190, Note_on_c, 0, 76, 0
2, 52213, Note_on_c, 0, 47, 85
2, 52214, Note_on_c, 0, 59, 90
2, 52247, Note_on_c, 0, 69, 0
2, 52270, Control_c, 0, 64, 127
2, 52355, Note_on_c, 0, 78, 103
2, 52364, Note_on_c, 0, 74, 84
2, 52366, Note_on_c, 0, 71, 82
2, 52485, Note_on_c, 0, 59, 0
2, 52491, Note_on_c, 0, 59, 84
2, 52635, Note_on_c, 0, 66, 84
2, 52636, Note_on_c, 0, 76, 94
2, 52642, Note_on_c, 0, 62, 77
2, 52769, Note_on_c, 0, 59, 0
2, 52769, Note_on_c, 0, 74, 0
2, 52777, Note_on_c, 0, 74, 92
2, 52779, Note_on_c, 0, 59, 75
2, 52872, Control_c, 0, 64, 0
2, 52874, Note_on_c, 0, 79, 0
2, 52874, Note_on_c, 0, 71, 0
2, 52874, Note_on_c, 0, 47, 0
2, 52874, Note_on_c, 0, 59, 0
2, 52874, Note_on_c, 0, 62, 0
2, 52874, Note_on_c, 0, 74, 0
2, 52874, Note_on_c, 0, 78, 0
2, 52875, Note_on_c, 0, 66, 0
2, 52907, Note_on_c, 0, 76, 0
2, 52916, Note_on_c, 0, 43, 77
2, 52917, Note_on_c, 0, 76, 100
2, 52923, Note_on_c, 0, 71, 83
2, 52926, Note_on_c, 0, 67, 83
2, 52961, Control_c, 0, 64, 127
2, 53065, Note_on_c, 0, 74, 101
2, 53066, Note_on_c, 0, 59, 79
2, 53203, Note_on_c, 0, 55, 72
2, 53329, Note_on_c, 0, 59, 0
2, 53339, Note_on_c, 0, 59, 75
2, 53475, Note_on_c, 0, 43, 0
2, 53482, Note_on_c, 0, 43, 76
2, 53606, Note_on_c, 0, 59, 0
2, 53606, Note_on_c, 0, 74, 0
2, 53612, Note_on_c, 0, 74, 95
2, 53615, Note_on_c, 0, 59, 76
2, 53736, Note_on_c, 0, 55, 0
2, 53744, Note_on_c, 0, 74, 0
2, 53748, Note_on_c, 0, 55, 75
2, 53750, Note_on_c, 0, 74, 93
2, 53756, Note_on_c, 0, 67, 0
2, 53852, Note_on_c, 0, 59, 0
2, 53856, Note_on_c, 0, 59, 81
2, 53890, Note_on_c, 0, 76, 0
2, 53894, Note_on_c, 0, 76, 88
2, 53995, Control_c, 0, 64, 0
2, 53998, Note_on_c, 0, 71, 0
2, 53998, Note_on_c, 0, 43, 0
2, 53999, Note_on_c, 0, 76, 0
2, 53999, Note_on_c, 0, 59, 0
2, 54013, Note_on_c, 0, 55, 0
2, 54021, Note_on_c, 0, 74, 0
2, 54025, Note_on_c, 0, 77, 103
2, 54030, Note_on_c, 0, 34, 73
2, 54030, Note_on_c, 0, 74, 92
2, 54032, Note_on_c, 0, 65, 89
2, 54036, Note_on_c, 0, 70, 88
2, 54082, Control_c, 0, 64, 127
2, 54179, Note_on_c, 0, 46, 69
2, 54302, Note_on_c, 0, 50, 70
2, 54305, Note_on_c, 0, 74, 0
2, 54305, Note_on_c, 0, 77, 0
2, 54309, Note_on_c, 0, 53, 78
2, 54312, Note_on_c, 0, 65, 0
2, 54312, Note_on_c, 0, 70, 0
2, 54316, Note_on_c, 0, 74, 92
2, 54316, Note_on_c, 0, 77, 100
2, 54322, Note_on_c, 0, 65, 86
2, 54322, Note_on_c, 0, 70, 89
2, 54435, Note_on_c, 0, 46, 0
2, 54445, Note_on_c, 0, 46, 75
2, 54589, Note_on_c, 0, 77, 0
2, 54597, Note_on_c, 0, 46, 0
2, 54597, Note_on_c, 0, 65, 0
2, 54597, Note_on_c, 0, 70, 0
2, 54597, Note_on_c, 0, 74, 0
2, 54600, Note_on_c, 0, 77, 103
2, 54600, Note_on_c, 0, 58, 93
2, 54601, Note_on_c, 0, 46, 86
2, 54604, Note_on_c, 0, 65, 92
2, 54604, Note_on_c, 0, 74, 91
2, 54608, Note_on_c, 0, 70, 92
2, 54727, Note_on_c, 0, 50, 0
2, 54733, Note_on_c, 0, 50, 68
2, 54865, Note_on_c, 0, 65, 0
2, 54865, Note_on_c, 0, 70, 0
2, 54865, Note_on_c, 0, 74, 0
2, 54865, Note_on_c, 0, 77, 0
2, 54871, Note_on_c, 0, 77, 101
2, 54873, Note_on_c, 0, 65, 95
2, 54876, Note_on_c, 0, 74, 94
2, 54877, Note_on_c, 0, 70, 97
2, 54881, Note_on_c, 0, 46, 0
2, 54881, Note_on_c, 0, 58, 0
2, 54884, Note_on_c, 0, 62, 92
2, 54887, Note_on_c, 0, 58, 87
2, 54890, Note_on_c, 0, 46, 84
2, 55004, Note_on_c, 0, 53, 0
2, 55015, Note_on_c, 0, 53, 78
2, 55141, Control_c, 0, 64, 0
2, 55145, Note_on_c, 0, 46, 0
2, 55145, Note_on_c, 0, 62, 0
2, 55145, Note_on_c, 0, 65, 0
2, 55145, Note_on_c, 0, 77, 0
2, 55157, Note_on_c, 0, 34, 0
2, 55157, Note_on_c, 0, 50, 0
2, 55157, Note_on_c, 0, 58, 0
2, 55157, Note_on_c, 0, 70, 0
2, 55157, Note_on_c, 0, 74, 0
2, 55160, Note_on_c, 0, 86, 102
2, 55165, Note_on_c, 0, 53, 0
2, 55167, Note_on_c, 0, 74, 101
2, 55167, Note_on_c, 0, 79, 98
2, 55167, Note_on_c, 0, 83, 97
2, 55168, Note_on_c, 0, 31, 84
2, 55219, Control_c, 0, 64, 127
2, 55238, Note_on_c, 0, 38, 77
2, 55299, Note_on_c, 0, 43, 70
2, 55404, Note_on_c, 0, 47, 65
2, 55449, Note_on_c, 0, 38, 0
2, 55458, Note_on_c, 0, 38, 67
2, 55461, Note_on_c, 0, 50, 74
2, 55576, Note_on_c, 0, 38, 0
2, 55577, Note_on_c, 0, 83, 0
2, 55577, Note_on_c, 0, 86, 0
2, 55577, Note_on_c, 0, 74, 0
2, 55578, Note_on_c, 0, 79, 0
2, 55578, Note_on_c, 0, 47, 0
2, 55578, Note_on_c, 0, 43, 0
2, 55578, Note_on_c, 0, 50, 0
2, 55580, Control_c, 0, 64, 0
2, 55587, Note_on_c, 0, 31, 0
2, 55599, Note_on_c, 0, 88, 104
2, 55601, Note_on_c, 0, 76, 104
2, 55604, Note_on_c, 0, 81, 95
2, 55605, Note_on_c, 0, 33, 78
2, 55606, Note_on_c, 0, 85, 101
2, 55606, Note_on_c, 0, 45, 85
2, 55656, Control_c, 0, 64, 127
2, 55890, Note_on_c, 0, 64, 82
2, 55902, Note_on_c, 0, 45, 0
2, 55907, Note_on_c, 0, 45, 69
2, 55909, Note_on_c, 0, 57, 74
2, 55959, Note_on_c, 0, 69, 73
2, 56023, Note_on_c, 0, 73, 86
2, 56026, Note_on_c, 0, 40, 73
2, 56033, Note_on_c, 0, 40, 0
2, 56037, Note_on_c, 0, 52, 70
2, 56040, Note_on_c, 0, 76, 0
2, 56048, Note_on_c, 0, 76, 96
2, 56148, Note_on_c, 0, 45, 0
2, 56159, Note_on_c, 0, 45, 80
2, 56285, Control_c, 0, 64, 0
2, 56289, Note_on_c, 0, 81, 0
2, 56289, Note_on_c, 0, 52, 0
2, 56289, Note_on_c, 0, 45, 0
2, 56289, Note_on_c, 0, 69, 0
2, 56289, Note_on_c, 0, 64, 0
2, 56289, Note_on_c, 0, 76, 0
2, 56289, Note_on_c, 0, 85, 0
2, 56289, Note_on_c, 0, 57, 0
2, 56290, Note_on_c, 0, 73, 0
2, 56290, Note_on_c, 0, 88, 0
2, 56294, Note_on_c, 0, 33, 0
2, 56300, Note_on_c, 0, 31, 83
2, 56307, Note_on_c, 0, 90, 104
2, 56309, Note_on_c, 0, 31, 0
2, 56313, Note_on_c, 0, 86, 98
2, 56313, Note_on_c, 0, 78, 104
2, 56313, Note_on_c, 0, 83, 95
2, 56363, Control_c, 0, 64, 127
2, 56365, Note_on_c, 0, 38, 60
2, 56435, Note_on_c, 0, 43, 72
2, 56536, Note_on_c, 0, 47, 60
2, 56586, Note_on_c, 0, 86, 0
2, 56590, Note_on_c, 0, 86, 93
2, 56593, Note_on_c, 0, 38, 0
2, 56594, Note_on_c, 0, 74, 93
2, 56598, Note_on_c, 0, 38, 64
2, 56709, Note_on_c, 0, 90, 0
2, 56709, Control_c, 0, 64, 0
2, 56709, Note_on_c, 0, 86, 0
2, 56710, Note_on_c, 0, 38, 0
2, 56710, Note_on_c, 0, 74, 0
2, 56710, Note_on_c, 0, 43, 0
2, 56710, Note_on_c, 0, 83, 0
2, 56711, Note_on_c, 0, 78, 0
2, 56724, Note_on_c, 0, 47, 0
2, 56741, Note_on_c, 0, 88, 103
2, 56742, Note_on_c, 0, 33, 74
2, 56743, Note_on_c, 0, 85, 101
2, 56744, Note_on_c, 0, 76, 101
2, 56744, Note_on_c, 0, 81, 88
2, 56749, Note_on_c, 0, 45, 81
2, 56785, Control_c, 0, 64, 127
2, 56794, Note_on_c, 0, 33, 0
2, 57024, Note_on_c, 0, 45, 0
2, 57030, Note_on_c, 0, 64, 81
2, 57033, Note_on_c, 0, 45, 76
2, 57033, Note_on_c, 0, 57, 83
2, 57104, Note_on_c, 0, 69, 67
2, 57143, Note_on_c, 0, 73, 82
2, 57169, Note_on_c, 0, 76, 0
2, 57173, Note_on_c, 0, 52, 67
2, 57179, Note_on_c, 0, 76, 94
2, 57285, Note_on_c, 0, 45, 0
2, 57295, Note_on_c, 0, 45, 73
2, 57453, Note_on_c, 0, 42, 81
2, 57454, Note_on_c, 0, 45, 0
2, 57455, Control_c, 0, 64, 0
2, 57455, Note_on_c, 0, 64, 0
2, 57456, Note_on_c, 0, 69, 0
2, 57456, Note_on_c, 0, 81, 0
2, 57456, Note_on_c, 0, 57, 0
2, 57456, Note_on_c, 0, 50, 77
2, 57457, Note_on_c, 0, 73, 0
2, 57457, Note_on_c, 0, 85, 0
2, 57457, Note_on_c, 0, 88, 0
2, 57469, Note_on_c, 0, 52, 0
2, 57469, Note_on_c, 0, 76, 0
2, 57500, Note_on_c, 0, 50, 0
2, 57511, Note_on_c, 0, 50, 44
2, 57523, Control_c, 0, 64, 127
2, 57551, Note_on_c, 0, 54, 78
2, 57615, Note_on_c, 0, 57, 81
2, 57695, Note_on_c, 0, 60, 90
2, 57744, Note_on_c, 0, 86, 98
2, 57748, Note_on_c, 0, 90, 101
2, 57748, Note_on_c, 0, 81, 98
2, 57749, Note_on_c, 0, 78, 101
2, 57867, Note_on_c, 0, 42, 0
2, 57869, Note_on_c, 0, 78, 0
2, 57870, Note_on_c, 0, 86, 0
2, 57870, Note_on_c, 0, 50, 0
2, 57870, Note_on_c, 0, 54, 0
2, 57871, Note_on_c, 0, 81, 0
2, 57871, Note_on_c, 0, 57, 0
2, 57871, Note_on_c, 0, 60, 0
2, 57871, Control_c, 0, 64, 0
2, 57874, Note_on_c, 0, 43, 85
2, 57874, Note_on_c, 0, 55, 83
2, 57937, Control_c, 0, 64, 127
2, 58006, Note_on_c, 0, 91, 107
2, 58014, Note_on_c, 0, 79, 101
2, 58016, Note_on_c, 0, 83, 85
2, 58017, Note_on_c, 0, 86, 93
2, 58162, Note_on_c, 0, 67, 82
2, 58194, Note_on_c, 0, 62, 74
2, 58268, Note_on_c, 0, 59, 87
2, 58291, Note_on_c, 0, 90, 0
2, 58297, Note_on_c, 0, 90, 95
2, 58301, Note_on_c, 0, 78, 95
2, 58352, Note_on_c, 0, 55, 0
2, 58361, Note_on_c, 0, 55, 69
2, 58433, Note_on_c, 0, 88, 104
2, 58439, Note_on_c, 0, 50, 71
2, 58440, Note_on_c, 0, 85, 99
2, 58441, Note_on_c, 0, 81, 86
2, 58442, Note_on_c, 0, 76, 98
2, 58542, Note_on_c, 0, 86, 0
2, 58542, Note_on_c, 0, 43, 0
2, 58542, Note_on_c, 0, 67, 0
2, 58542, Note_on_c, 0, 90, 0
2, 58542, Note_on_c, 0, 59, 0
2, 58543, Note_on_c, 0, 83, 0
2, 58543, Note_on_c, 0, 91, 0
2, 58543, Note_on_c, 0, 62, 0
2, 58543, Control_c, 0, 64, 0
2, 58543, Note_on_c, 0, 78, 0
2, 58543, Note_on_c, 0, 79, 0
2, 58560, Note_on_c, 0, 50, 0
2, 58560, Note_on_c, 0, 55, 0
2, 58579, Note_on_c, 0, 45, 79
2, 58613, Control_c, 0, 64, 127
2, 58624, Note_on_c, 0, 52, 74
2, 58697, Note_on_c, 0, 57, 75
2, 58734, Note_on_c, 0, 90, 99
2, 58735, Note_on_c, 0, 78, 90
2, 58782, Note_on_c, 0, 61, 77
2, 58839, Note_on_c, 0, 64, 76
2, 58879, Note_on_c, 0, 91, 103
2, 58883, Note_on_c, 0, 79, 100
2, 58990, Note_on_c, 0, 85, 0
2, 58990, Control_c, 0, 64, 0
2, 58990, Note_on_c, 0, 61, 0
2, 58991, Note_on_c, 0, 78, 0
2, 58991, Note_on_c, 0, 57, 0
2, 58992, Note_on_c, 0, 64, 0
2, 58997, Note_on_c, 0, 45, 0
2, 59005, Note_on_c, 0, 52, 0
2, 59005, Note_on_c, 0, 76, 0
2, 59013, Note_on_c, 0, 81, 0
2, 59017, Note_on_c, 0, 47, 85
2, 59018, Note_on_c, 0, 59, 92
2, 59059, Control_c, 0, 64, 127
2, 59151, Note_on_c, 0, 90, 0
2, 59158, Note_on_c, 0, 90, 101
2, 59160, Note_on_c, 0, 86, 97
2, 59162, Note_on_c, 0, 78, 98
2, 59162, Note_on_c, 0, 83, 87
2, 59300, Note_on_c, 0, 71, 87
2, 59323, Note_on_c, 0, 66, 85
2, 59386, Note_on_c, 0, 62, 80
2, 59427, Note_on_c, 0, 88, 0
2, 59433, Note_on_c, 0, 88, 101
2, 59436, Note_on_c, 0, 76, 98
2, 59481, Note_on_c, 0, 59, 0
2, 59489, Note_on_c, 0, 59, 78
2, 59566, Note_on_c, 0, 86, 0
2, 59569, Note_on_c, 0, 54, 76
2, 59570, Note_on_c, 0, 86, 101
2, 59577, Note_on_c, 0, 74, 96
2, 59668, Note_on_c, 0, 54, 0
2, 59668, Note_on_c, 0, 76, 0
2, 59668, Note_on_c, 0, 88, 0
2, 59668, Note_on_c, 0, 66, 0
2, 59668, Note_on_c, 0, 90, 0
2, 59668, Note_on_c, 0, 62, 0
2, 59668, Note_on_c, 0, 71, 0
2, 59669, Note_on_c, 0, 86, 0
2, 59669, Note_on_c, 0, 74, 0
2, 59669, Note_on_c, 0, 78, 0
2, 59669, Control_c, 0, 64, 0
2, 59669, Note_on_c, 0, 83, 0
2, 59673, Note_on_c, 0, 47, 0
2, 59673, Note_on_c, 0, 79, 0
2, 59681, Note_on_c, 0, 59, 0
2, 59681, Note_on_c, 0, 91, 0
2, 59710, Note_on_c, 0, 88, 103
2, 59715, Note_on_c, 0, 43, 79
2, 59716, Note_on_c, 0, 76, 100
2, 59722, Note_on_c, 0, 79, 95
2, 59726, Note_on_c, 0, 85, 79
2, 59742, Control_c, 0, 64, 127
2, 59853, Note_on_c, 0, 59, 84
2, 59861, Note_on_c, 0, 86, 100
2, 59867, Note_on_c, 0, 74, 95
2, 59997, Note_on_c, 0, 55, 73
2, 60126, Note_on_c, 0, 59, 0
2, 60135, Note_on_c, 0, 59, 75
2, 60253, Control_c, 0, 64, 0
2, 60253, Note_on_c, 0, 88, 0
2, 60253, Note_on_c, 0, 55, 0
2, 60253, Note_on_c, 0, 59, 0
2, 60253, Note_on_c, 0, 76, 0
2, 60254, Note_on_c, 0, 74, 0
2, 60254, Note_on_c, 0, 79, 0
2, 60272, Note_on_c, 0, 43, 0
2, 60275, Note_on_c, 0, 42, 81
2, 60326, Control_c, 0, 64, 127
2, 60416, Note_on_c, 0, 57, 71
2, 60552, Note_on_c, 0, 54, 68
2, 60679, Note_on_c, 0, 57, 0
2, 60687, Note_on_c, 0, 57, 81
2, 60698, Note_on_c, 0, 91, 108
2, 60702, Note_on_c, 0, 86, 0
2, 60706, Note_on_c, 0, 79, 104
2, 60711, Note_on_c, 0, 83, 88
2, 60712, Note_on_c, 0, 86, 95
2, 60801, Note_on_c, 0, 54, 0
2, 60802, Note_on_c, 0, 57, 0
2, 60802, Note_on_c, 0, 42, 0
2, 60805, Control_c, 0, 64, 0
2, 60810, Note_on_c, 0, 85, 0
2, 60828, Note_on_c, 0, 40, 80
2, 60871, Control_c, 0, 64, 127
2, 60975, Note_on_c, 0, 90, 97
2, 60975, Note_on_c, 0, 55, 78
2, 60979, Note_on_c, 0, 78, 99
2, 61110, Note_on_c, 0, 52, 82
2, 61111, Note_on_c, 0, 88, 102
2, 61113, Note_on_c, 0, 76, 98
2, 61240, Note_on_c, 0, 55, 0
2, 61240, Note_on_c, 0, 86, 0
2, 61246, Note_on_c, 0, 55, 75
2, 61251, Note_on_c, 0, 86, 101
2, 61254, Note_on_c, 0, 74, 96
2, 61346, Note_on_c, 0, 52, 0
2, 61346, Note_on_c, 0, 90, 0
2, 61347, Note_on_c, 0, 88, 0
2, 61347, Note_on_c, 0, 91, 0
2, 61347, Note_on_c, 0, 78, 0
2, 61348, Note_on_c, 0, 55, 0
2, 61348, Note_on_c, 0, 74, 0
2, 61348, Control_c, 0, 64, 0
2, 61348, Note_on_c, 0, 83, 0
2, 61349, Note_on_c, 0, 79, 0
2, 61349, Note_on_c, 0, 76, 0
2, 61355, Note_on_c, 0, 40, 0
2, 61378, Note_on_c, 0, 86, 0
2, 61384, Note_on_c, 0, 36, 86
2, 61387, Note_on_c, 0, 86, 105
2, 61390, Note_on_c, 0, 74, 101
2, 61424, Control_c, 0, 64, 127
2, 61501, Note_on_c, 0, 36, 0
2, 61525, Note_on_c, 0, 55, 82
2, 61528, Note_on_c, 0, 88, 104
2, 61529, Note_on_c, 0, 76, 105
2, 61663, Note_on_c, 0, 52, 72
2, 61770, Note_on_c, 0, 55, 0
2, 61781, Note_on_c, 0, 55, 64
2, 61800, Note_on_c, 0, 88, 0
2, 61808, Note_on_c, 0, 76, 0
2, 61812, Note_on_c, 0, 88, 108
2, 61814, Note_on_c, 0, 81, 96
2, 61815, Note_on_c, 0, 76, 106
2, 61817, Note_on_c, 0, 85, 103
2, 61918, Note_on_c, 0, 74, 0
2, 61918, Note_on_c, 0, 86, 0
2, 61918, Note_on_c, 0, 52, 0
2, 61919, Note_on_c, 0, 55, 0
2, 61919, Control_c, 0, 64, 0
2, 61943, Note_on_c, 0, 33, 74
2, 61992, Control_c, 0, 64, 127
2, 62082, Note_on_c, 0, 45, 66
2, 62230, Note_on_c, 0, 61, 82
2, 62232, Note_on_c, 0, 73, 89
2, 62310, Note_on_c, 0, 69, 82
2, 62350, Note_on_c, 0, 57, 79
2, 62369, Note_on_c, 0, 76, 0
2, 62379, Note_on_c, 0, 76, 80
2, 62453, Note_on_c, 0, 73, 0
2, 62464, Note_on_c, 0, 73, 96
2, 62492, Note_on_c, 0, 81, 0
2, 62497, Note_on_c, 0, 81, 90
2, 62497, Note_on_c, 0, 64, 84
2, 62576, Note_on_c, 0, 76, 0
2, 62585, Note_on_c, 0, 76, 93
2, 62630, Note_on_c, 0, 85, 0
2, 62636, Note_on_c, 0, 85, 97
2, 62638, Note_on_c, 0, 61, 0
2, 62643, Note_on_c, 0, 61, 87
2, 62714, Note_on_c, 0, 81, 0
2, 62719, Note_on_c, 0, 81, 93
2, 62768, Note_on_c, 0, 69, 0
2, 62768, Note_on_c, 0, 88, 0
2, 62773, Note_on_c, 0, 69, 72
2, 62780, Note_on_c, 0, 88, 90
2, 62837, Note_on_c, 0, 85, 0
2, 62846, Note_on_c, 0, 85, 92
2, 62868, Note_on_c, 0, 64, 0
2, 62879, Note_on_c, 0, 64, 76
2, 62881, Note_on_c, 0, 93, 97
2, 62976, Note_on_c, 0, 88, 0
2, 62980, Note_on_c, 0, 88, 100
2, 63006, Note_on_c, 0, 73, 0
2, 63017, Note_on_c, 0, 73, 96
2, 63022, Note_on_c, 0, 97, 87
2, 63075, Note_on_c, 0, 93, 0
2, 63082, Note_on_c, 0, 93, 93
2, 63117, Note_on_c, 0, 100, 98
2, 63144, Note_on_c, 0, 69, 0
2, 63153, Note_on_c, 0, 69, 75
2, 63168, Note_on_c, 0, 97, 0
2, 63172, Note_on_c, 0, 97, 95
2, 63221, Note_on_c, 0, 93, 0
2, 63233, Note_on_c, 0, 93, 98
2, 63260, Note_on_c, 0, 88, 0
2, 63271, Note_on_c, 0, 88, 88
2, 63275, Note_on_c, 0, 64, 0
2, 63286, Note_on_c, 0, 64, 72
2, 63336, Note_on_c, 0, 85, 0
2, 63347, Note_on_c, 0, 85, 86
2, 63398, Note_on_c, 0, 61, 0
2, 63398, Note_on_c, 0, 81, 0
2, 63404, Note_on_c, 0, 81, 87
2, 63408, Note_on_c, 0, 61, 87
2, 63482, Note_on_c, 0, 76, 0
2, 63492, Note_on_c, 0, 76, 80
2, 63536, Note_on_c, 0, 85, 0
2, 63544, Note_on_c, 0, 57, 0
2, 63545, Note_on_c, 0, 85, 95
2, 63554, Note_on_c, 0, 57, 87
2, 63598, Note_on_c, 0, 81, 0
2, 63606, Note_on_c, 0, 81, 90
2, 63659, Note_on_c, 0, 88, 0
2, 63665, Note_on_c, 0, 88, 93
2, 63701, Note_on_c, 0, 52, 79
2, 63713, Note_on_c, 0, 85, 0
2, 63717, Note_on_c, 0, 85, 81
2, 63751, Note_on_c, 0, 81, 0
2, 63761, Note_on_c, 0, 81, 80
2, 63790, Note_on_c, 0, 76, 0
2, 63799, Note_on_c, 0, 76, 73
2, 63824, Note_on_c, 0, 49, 74
2, 63874, Note_on_c, 0, 73, 0
2, 63882, Note_on_c, 0, 73, 93
2, 63920, Note_on_c, 0, 45, 0
2, 63925, Note_on_c, 0, 45, 78
2, 63928, Note_on_c, 0, 69, 0
2, 63938, Note_on_c, 0, 69, 82
2, 63989, Note_on_c, 0, 45, 0
2, 63989, Note_on_c, 0, 64, 0
2, 63997, Note_on_c, 0, 45, 67
2, 63997, Note_on_c, 0, 64, 75
2, 63998, Note_on_c, 0, 67, 57
2, 64065, Control_c, 0, 64, 0
2, 64070, Note_on_c, 0, 64, 0
2, 64070, Note_on_c, 0, 97, 0
2, 64070, Note_on_c, 0, 52, 0
2, 64070, Note_on_c, 0, 85, 0
2, 64070, Note_on_c, 0, 69, 0
2, 64070, Note_on_c, 0, 73, 0
2, 64070, Note_on_c, 0, 45, 0
2, 64070, Note_on_c, 0, 61, 0
2, 64071, Note_on_c, 0, 49, 0
2, 64071, Note_on_c, 0, 88, 0
2, 64071, Note_on_c, 0, 100, 0
2, 64071, Note_on_c, 0, 57, 0
2, 64081, Note_on_c, 0, 33, 0
2, 64081, Note_on_c, 0, 76, 0
2, 64081, Note_on_c, 0, 93, 0
2, 64089, Note_on_c, 0, 43, 89
2, 64089, Note_on_c, 0, 74, 109
2, 64089, Note_on_c, 0, 67, 0
2, 64089, Note_on_c, 0, 81, 0
2, 64093, Note_on_c, 0, 31, 84
2, 64093, Note_on_c, 0, 71, 100
2, 64094, Note_on_c, 0, 62, 101
2, 64094, Note_on_c, 0, 67, 100
2, 64132, Note_on_c, 0, 62, 0
2, 64135, Control_c, 0, 64, 127
2, 64160, Note_on_c, 0, 38, 61
2, 64220, Note_on_c, 0, 43, 0
2, 64231, Note_on_c, 0, 43, 67
2, 64312, Note_on_c, 0, 43, 0
2, 64322, Note_on_c, 0, 47, 72
2, 64323, Note_on_c, 0, 43, 69
2, 64493, Note_on_c, 0, 43, 0
2, 64494, Control_c, 0, 64, 0
2, 64494, Note_on_c, 0, 74, 0
2, 64495, Note_on_c, 0, 47, 0
2, 64496, Note_on_c, 0, 38, 0
2, 64504, Note_on_c, 0, 31, 0
2, 64504, Note_on_c, 0, 67, 0
2, 64504, Note_on_c, 0, 71, 0
2, 64524, Note_on_c, 0, 76, 106
2, 64530, Note_on_c, 0, 64, 97
2, 64530, Note_on_c, 0, 73, 99
2, 64530, Note_on_c, 0, 69, 87
2, 64531, Note_on_c, 0, 45, 93
2, 64532, Note_on_c, 0, 33, 79
2, 64565, Note_on_c, 0, 64, 0
2, 64573, Control_c, 0, 64, 127
2, 64803, Note_on_c, 0, 76, 0
2, 64809, Note_on_c, 0, 76, 88
2, 64823, Note_on_c, 0, 57, 79
2, 64875, Note_on_c, 0, 81, 85
2, 64937, Note_on_c, 0, 85, 92
2, 64946, Note_on_c, 0, 52, 74
2, 64968, Note_on_c, 0, 88, 104
2, 65072, Note_on_c, 0, 45, 0
2, 65083, Note_on_c, 0, 45, 79
2, 65207, Control_c, 0, 64, 0
2, 65209, Note_on_c, 0, 81, 0
2, 65210, Note_on_c, 0, 85, 0
2, 65211, Note_on_c, 0, 45, 0
2, 65211, Note_on_c, 0, 76, 0
2, 65212, Note_on_c, 0, 88, 0
2, 65213, Note_on_c, 0, 57, 0
2, 65213, Note_on_c, 0, 69, 0
2, 65218, Note_on_c, 0, 73, 0
2, 65224, Note_on_c, 0, 78, 109
2, 65226, Note_on_c, 0, 33, 0
2, 65226, Note_on_c, 0, 52, 0
2, 65229, Note_on_c, 0, 74, 95
2, 65230, Note_on_c, 0, 66, 104
2, 65231, Note_on_c, 0, 71, 95
2, 65237, Note_on_c, 0, 31, 82
2, 65287, Note_on_c, 0, 31, 0
2, 65287, Control_c, 0, 64, 127
2, 65340, Note_on_c, 0, 43, 72
2, 65429, Note_on_c, 0, 47, 69
2, 65498, Note_on_c, 0, 50, 61
2, 65510, Note_on_c, 0, 74, 0
2, 65514, Note_on_c, 0, 74, 90
2, 65522, Note_on_c, 0, 62, 85
2, 65610, Note_on_c, 0, 62, 0
2, 65610, Note_on_c, 0, 43, 0
2, 65611, Note_on_c, 0, 71, 0
2, 65611, Note_on_c, 0, 66, 0
2, 65612, Note_on_c, 0, 50, 0
2, 65612, Note_on_c, 0, 78, 0
2, 65612, Note_on_c, 0, 47, 0
2, 65612, Note_on_c, 0, 74, 0
2, 65613, Control_c, 0, 64, 0
2, 65663, Note_on_c, 0, 45, 94
2, 65665, Note_on_c, 0, 76, 106
2, 65667, Note_on_c, 0, 33, 80
2, 65667, Note_on_c, 0, 64, 99
2, 65668, Note_on_c, 0, 69, 92
2, 65668, Note_on_c, 0, 73, 99
2, 65697, Note_on_c, 0, 64, 0
2, 65710, Control_c, 0, 64, 127
2, 65940, Note_on_c, 0, 45, 0
2, 65940, Note_on_c, 0, 76, 0
2, 65946, Note_on_c, 0, 76, 93
2, 65950, Note_on_c, 0, 45, 73
2, 65950, Note_on_c, 0, 57, 87
2, 65996, Note_on_c, 0, 81, 86
2, 66064, Note_on_c, 0, 85, 92
2, 66071, Note_on_c, 0, 33, 0
2, 66078, Note_on_c, 0, 33, 65
2, 66103, Note_on_c, 0, 88, 105
2, 66201, Note_on_c, 0, 45, 0
2, 66212, Note_on_c, 0, 45, 81
2, 66340, Note_on_c, 0, 81, 0
2, 66340, Note_on_c, 0, 33, 0
2, 66341, Note_on_c, 0, 76, 0
2, 66341, Note_on_c, 0, 57, 0
2, 66341, Note_on_c, 0, 85, 0
2, 66342, Note_on_c, 0, 88, 0
2, 66342, Note_on_c, 0, 69, 0
2, 66342, Note_on_c, 0, 73, 0
2, 66344, Control_c, 0, 64, 0
2, 66360, Note_on_c, 0, 38, 79
2, 66362, Note_on_c, 0, 45, 0
2, 66416, Control_c, 0, 64, 127
2, 66420, Note_on_c, 0, 45, 75
2, 66484, Note_on_c, 0, 50, 72
2, 66577, Note_on_c, 0, 54, 69
2, 66642, Note_on_c, 0, 57, 81
2, 66643, Note_on_c, 0, 78, 105
2, 66773, Note_on_c, 0, 45, 0
2, 66774, Control_c, 0, 64, 0
2, 66774, Note_on_c, 0, 50, 0
2, 66774, Note_on_c, 0, 54, 0
2, 66776, Note_on_c, 0, 57, 0
2, 66783, Note_on_c, 0, 43, 87
2, 66785, Note_on_c, 0, 55, 84
2, 66785, Note_on_c, 0, 38, 0
2, 66854, Control_c, 0, 64, 127
2, 66931, Note_on_c, 0, 79, 108
2, 66935, Note_on_c, 0, 71, 95
2, 66935, Note_on_c, 0, 74, 92
2, 67058, Note_on_c, 0, 67, 80
2, 67105, Note_on_c, 0, 62, 72
2, 67164, Note_on_c, 0, 59, 77
2, 67215, Note_on_c, 0, 78, 0
2, 67220, Note_on_c, 0, 78, 99
2, 67246, Note_on_c, 0, 55, 0
2, 67256, Note_on_c, 0, 55, 70
2, 67265, Note_on_c, 0, 43, 0
2, 67339, Note_on_c, 0, 50, 65
2, 67362, Note_on_c, 0, 76, 98
2, 67368, Note_on_c, 0, 73, 94
2, 67369, Note_on_c, 0, 69, 82
2, 67463, Note_on_c, 0, 74, 0
2, 67463, Note_on_c, 0, 62, 0
2, 67463, Note_on_c, 0, 59, 0
2, 67463, Control_c, 0, 64, 0
2, 67463, Note_on_c, 0, 71, 0
2, 67463, Note_on_c, 0, 79, 0
2, 67464, Note_on_c, 0, 78, 0
2, 67476, Note_on_c, 0, 55, 0
2, 67476, Note_on_c, 0, 67, 0
2, 67484, Note_on_c, 0, 50, 0
2, 67493, Note_on_c, 0, 45, 80
2, 67545, Control_c, 0, 64, 127
2, 67553, Note_on_c, 0, 52, 75
2, 67613, Note_on_c, 0, 57, 83
2, 67655, Note_on_c, 0, 78, 102
2, 67695, Note_on_c, 0, 61, 84
2, 67755, Note_on_c, 0, 64, 76
2, 67802, Note_on_c, 0, 79, 107
2, 67914, Note_on_c, 0, 61, 0
2, 67915, Note_on_c, 0, 73, 0
2, 67916, Note_on_c, 0, 57, 0
2, 67916, Note_on_c, 0, 78, 0
2, 67916, Note_on_c, 0, 64, 0
2, 67917, Control_c, 0, 64, 0
2, 67929, Note_on_c, 0, 45, 0
2, 67929, Note_on_c, 0, 52, 0
2, 67930, Note_on_c, 0, 47, 84
2, 67932, Note_on_c, 0, 59, 85
2, 67937, Note_on_c, 0, 69, 0
2, 67960, Note_on_c, 0, 76, 0
2, 67979, Note_on_c, 0, 47, 0
2, 67991, Control_c, 0, 64, 127
2, 68066, Note_on_c, 0, 78, 105
2, 68072, Note_on_c, 0, 74, 89
2, 68079, Note_on_c, 0, 71, 84
2, 68183, Note_on_c, 0, 71, 0
2, 68190, Note_on_c, 0, 71, 71
2, 68253, Note_on_c, 0, 66, 77
2, 68294, Note_on_c, 0, 62, 89
2, 68354, Note_on_c, 0, 76, 89
2, 68390, Note_on_c, 0, 59, 0
2, 68397, Note_on_c, 0, 59, 78
2, 68467, Note_on_c, 0, 74, 0
2, 68478, Note_on_c, 0, 74, 98
2, 68486, Note_on_c, 0, 54, 77
2, 68583, Note_on_c, 0, 54, 0
2, 68583, Note_on_c, 0, 71, 0
2, 68584, Note_on_c, 0, 62, 0
2, 68584, Note_on_c, 0, 66, 0
2, 68585, Note_on_c, 0, 74, 0
2, 68586, Note_on_c, 0, 78, 0
2, 68586, Control_c, 0, 64, 0
2, 68597, Note_on_c, 0, 59, 0
2, 68597, Note_on_c, 0, 79, 0
2, 68613, Note_on_c, 0, 76, 0
2, 68623, Note_on_c, 0, 76, 100
2, 68628, Note_on_c, 0, 43, 75
2, 68631, Note_on_c, 0, 67, 86
2, 68631, Note_on_c, 0, 71, 81
2, 68674, Control_c, 0, 64, 127
2, 68767, Note_on_c, 0, 59, 85
2, 68770, Note_on_c, 0, 74, 99
2, 68914, Note_on_c, 0, 55, 69
2, 69027, Note_on_c, 0, 59, 0
2, 69038, Note_on_c, 0, 59, 77
2, 69181, Note_on_c, 0, 43, 0
2, 69191, Note_on_c, 0, 43, 69
2, 69319, Note_on_c, 0, 59, 0
2, 69319, Note_on_c, 0, 74, 0
2, 69324, Note_on_c, 0, 74, 100
2, 69325, Note_on_c, 0, 59, 87
2, 69450, Note_on_c, 0, 55, 0
2, 69450, Note_on_c, 0, 74, 0
2, 69460, Note_on_c, 0, 55, 68
2, 69460, Note_on_c, 0, 74, 97
2, 69573, Note_on_c, 0, 59, 0
2, 69579, Note_on_c, 0, 59, 80
2, 69603, Note_on_c, 0, 76, 0
2, 69608, Note_on_c, 0, 76, 96
2, 69701, Note_on_c, 0, 71, 0
2, 69703, Note_on_c, 0, 59, 0
2, 69703, Control_c, 0, 64, 0
2, 69703, Note_on_c, 0, 76, 0
2, 69711, Note_on_c, 0, 67, 0
2, 69719, Note_on_c, 0, 43, 0
2, 69719, Note_on_c, 0, 55, 0
2, 69719, Note_on_c, 0, 74, 0
2, 69739, Note_on_c, 0, 77, 103
2, 69745, Note_on_c, 0, 34, 74
2, 69745, Note_on_c, 0, 74, 94
2, 69753, Note_on_c, 0, 70, 87
2, 69753, Note_on_c, 0, 65, 81
2, 69795, Control_c, 0, 64, 127
2, 69873, Note_on_c, 0, 46, 75
2, 70018, Note_on_c, 0, 74, 0
2, 70018, Note_on_c, 0, 77, 0
2, 70021, Note_on_c, 0, 53, 77
2, 70026, Note_on_c, 0, 77, 100
2, 70026, Note_on_c, 0, 65, 0
2, 70026, Note_on_c, 0, 70, 0
2, 70028, Note_on_c, 0, 74, 90
2, 70030, Note_on_c, 0, 65, 88
2, 70031, Note_on_c, 0, 70, 87
2, 70149, Note_on_c, 0, 46, 0
2, 70157, Note_on_c, 0, 46, 87
2, 70295, Note_on_c, 0, 53, 0
2, 70295, Note_on_c, 0, 77, 0
2, 70302, Note_on_c, 0, 65, 0
2, 70302, Note_on_c, 0, 70, 0
2, 70302, Note_on_c, 0, 74, 0
2, 70303, Note_on_c, 0, 77, 105
2, 70305, Note_on_c, 0, 58, 93
2, 70305, Note_on_c, 0, 53, 76
2, 70306, Note_on_c, 0, 65, 94
2, 70306, Note_on_c, 0, 74, 97
2, 70309, Note_on_c, 0, 70, 99
2, 70438, Note_on_c, 0, 50, 71
2, 70586, Note_on_c, 0, 65, 0
2, 70586, Note_on_c, 0, 77, 0
2, 70594, Note_on_c, 0, 58, 0
2, 70594, Note_on_c, 0, 70, 0
2, 70594, Note_on_c, 0, 74, 0
2, 70594, Note_on_c, 0, 62, 89
2, 70595, Note_on_c, 0, 65, 100
2, 70597, Note_on_c, 0, 77, 102
2, 70598, Note_on_c, 0, 58, 88
2, 70599, Note_on_c, 0, 70, 96
2, 70599, Note_on_c, 0, 74, 94
2, 70732, Note_on_c, 0, 53, 0
2, 70737, Note_on_c, 0, 53, 73
2, 70863, Note_on_c, 0, 77, 0
2, 70871, Note_on_c, 0, 58, 0
2, 70871, Note_on_c, 0, 62, 0
2, 70871, Note_on_c, 0, 70, 0
2, 70871, Note_on_c, 0, 74, 0
2, 70874, Note_on_c, 0, 77, 101
2, 70876, Note_on_c, 0, 58, 86
2, 70877, Note_on_c, 0, 74, 91
2, 70878, Note_on_c, 0, 65, 0
2, 70880, Note_on_c, 0, 62, 88
2, 70881, Note_on_c, 0, 70, 99
2, 70886, Note_on_c, 0, 65, 84
2, 71016, Note_on_c, 0, 58, 0
2, 71021, Note_on_c, 0, 58, 87
2, 71155, Note_on_c, 0, 58, 0
2, 71155, Note_on_c, 0, 65, 0
2, 71155, Note_on_c, 0, 70, 0
2, 71162, Note_on_c, 0, 58, 78
2, 71164, Note_on_c, 0, 70, 93
2, 71164, Note_on_c, 0, 65, 67
2, 71293, Note_on_c, 0, 62, 0
2, 71304, Note_on_c, 0, 62, 88
2, 71431, Note_on_c, 0, 74, 0
2, 71441, Note_on_c, 0, 74, 96
2, 71447, Note_on_c, 0, 70, 0
2, 71452, Note_on_c, 0, 70, 89
2, 71569, Note_on_c, 0, 65, 0
2, 71579, Note_on_c, 0, 65, 91
2, 71708, Note_on_c, 0, 74, 0
2, 71708, Note_on_c, 0, 77, 0
2, 71717, Note_on_c, 0, 74, 96
2, 71718, Note_on_c, 0, 77, 98
2, 71831, Note_on_c, 0, 70, 0
2, 71842, Note_on_c, 0, 70, 92
2, 72017, Note_on_c, 0, 48, 93
2, 72018, Note_on_c, 0, 36, 94
2, 72030, Control_c, 0, 64, 0
2, 72033, Note_on_c, 0, 50, 0
2, 72034, Note_on_c, 0, 58, 0
2, 72034, Note_on_c, 0, 65, 0
2, 72034, Note_on_c, 0, 74, 0
2, 72034, Note_on_c, 0, 62, 0
2, 72034, Note_on_c, 0, 53, 0
2, 72034, Note_on_c, 0, 77, 0
2, 72053, Note_on_c, 0, 34, 0
2, 72053, Note_on_c, 0, 46, 0
2, 72053, Note_on_c, 0, 70, 0
2, 72192, Control_c, 0, 64, 127
2, 72300, Note_on_c, 0, 96, 105
2, 72375, Note_on_c, 0, 91, 85
2, 72435, Note_on_c, 0, 88, 93
2, 72504, Note_on_c, 0, 84, 82
2, 72571, Note_on_c, 0, 79, 92
2, 72624, Note_on_c, 0, 76, 87
2, 72715, Note_on_c, 0, 72, 74
2, 72779, Note_on_c, 0, 67, 84
2, 72833, Note_on_c, 0, 64, 72
2, 72905, Note_on_c, 0, 60, 86
2, 73017, Note_on_c, 0, 45, 93
2, 73018, Note_on_c, 0, 33, 90
2, 73027, Note_on_c, 0, 36, 0
2, 73028, Note_on_c, 0, 91, 0
2, 73028, Note_on_c, 0, 48, 0
2, 73029, Note_on_c, 0, 64, 0
2, 73029, Note_on_c, 0, 88, 0
2, 73030, Note_on_c, 0, 84, 0
2, 73030, Note_on_c, 0, 96, 0
2, 73031, Note_on_c, 0, 67, 0
2, 73031, Note_on_c, 0, 60, 0
2, 73031, Note_on_c, 0, 76, 0
2, 73031, Note_on_c, 0, 72, 0
2, 73032, Note_on_c, 0, 79, 0
2, 73033, Control_c, 0, 64, 0
2, 73405, Control_c, 0, 64, 127
2, 73454, Note_on_c, 0, 93, 103
2, 73524, Note_on_c, 0, 88, 93
2, 73593, Note_on_c, 0, 84, 79
2, 73665, Note_on_c, 0, 81, 80
2, 73735, Note_on_c, 0, 76, 85
2, 73794, Note_on_c, 0, 72, 89
2, 73875, Note_on_c, 0, 69, 64
2, 73947, Note_on_c, 0, 64, 71
2, 73998, Note_on_c, 0, 60, 82
2, 74071, Note_on_c, 0, 57, 78
2, 74176, Note_on_c, 0, 46, 86
2, 74176, Note_on_c, 0, 34, 82
2, 74179, Control_c, 0, 64, 0
2, 74183, Note_on_c, 0, 81, 0
2, 74183, Note_on_c, 0, 76, 0
2, 74183, Note_on_c, 0, 93, 0
2, 74183, Note_on_c, 0, 88, 0
2, 74183, Note_on_c, 0, 84, 0
2, 74183, Note_on_c, 0, 33, 0
2, 74183, Note_on_c, 0, 64, 0
2, 74184, Note_on_c, 0, 69, 0
2, 74184, Note_on_c, 0, 45, 0
2, 74184, Note_on_c, 0, 60, 0
2, 74184, Note_on_c, 0, 72, 0
2, 74184, Note_on_c, 0, 57, 0
2, 74388, Control_c, 0, 64, 127
2, 74599, Note_on_c, 0, 94, 103
2, 74681, Note_on_c, 0, 89, 90
2, 74737, Note_on_c, 0, 86, 84
2, 74817, Note_on_c, 0, 82, 76
2, 74861, Note_on_c, 0, 77, 85
2, 74932, Note_on_c, 0, 74, 90
2, 75002, Note_on_c, 0, 70, 93
2, 75110, Note_on_c, 0, 77, 0
2, 75110, Note_on_c, 0, 86, 0
2, 75110, Note_on_c, 0, 89, 0
2, 75120, Note_on_c, 0, 89, 104
2, 75120, Note_on_c, 0, 77, 108
2, 75121, Note_on_c, 0, 86, 103
2, 75128, Note_on_c, 0, 82, 0
2, 75235, Control_c, 0, 64, 0
2, 75238, Note_on_c, 0, 94, 0
2, 75239, Note_on_c, 0, 89, 0
2, 75240, Note_on_c, 0, 74, 0
2, 75240, Note_on_c, 0, 46, 0
2, 75241, Note_on_c, 0, 70, 0
2, 75244, Note_on_c, 0, 34, 0
2, 75256, Note_on_c, 0, 77, 0
2, 75264, Note_on_c, 0, 86, 0
2, 75266, Note_on_c, 0, 91, 111
2, 75267, Note_on_c, 0, 79, 110
2, 75268, Note_on_c, 0, 84, 99
2, 75268, Note_on_c, 0, 88, 104
2, 75271, Note_on_c, 0, 48, 89
2, 75274, Note_on_c, 0, 36, 87
2, 75317, Control_c, 0, 64, 127
2, 75552, Note_on_c, 0, 60, 78
2, 75678, Note_on_c, 0, 48, 0
2, 75681, Note_on_c, 0, 96, 103
2, 75684, Note_on_c, 0, 48, 71
2, 75740, Note_on_c, 0, 91, 0
2, 75749, Note_on_c, 0, 91, 79
2, 75816, Note_on_c, 0, 60, 0
2, 75816, Note_on_c, 0, 88, 0
2, 75821, Note_on_c, 0, 88, 84
2, 75825, Note_on_c, 0, 60, 78
2, 75878, Note_on_c, 0, 84, 0
2, 75886, Note_on_c, 0, 84, 76
2, 75947, Note_on_c, 0, 79, 0
2, 75957, Note_on_c, 0, 79, 80
2, 75970, Note_on_c, 0, 48, 0
2, 75980, Note_on_c, 0, 48, 63
2, 76020, Note_on_c, 0, 76, 81
2, 76105, Note_on_c, 0, 72, 76
2, 76131, Note_on_c, 0, 60, 0
2, 76141, Note_on_c, 0, 60, 79
2, 76193, Note_on_c, 0, 67, 68
2, 76224, Note_on_c, 0, 48, 0
2, 76233, Note_on_c, 0, 48, 67
2, 76233, Note_on_c, 0, 64, 74
2, 76308, Note_on_c, 0, 60, 0
2, 76313, Note_on_c, 0, 60, 82
2, 76359, Control_c, 0, 64, 0
2, 76360, Note_on_c, 0, 48, 0
2, 76360, Note_on_c, 0, 60, 0
2, 76360, Note_on_c, 0, 88, 0
2, 76360, Note_on_c, 0, 96, 0
2, 76361, Note_on_c, 0, 84, 0
2, 76361, Note_on_c, 0, 76, 0
2, 76362, Note_on_c, 0, 64, 0
2, 76362, Note_on_c, 0, 67, 0
2, 76362, Note_on_c, 0, 36, 0
2, 76363, Note_on_c, 0, 72, 0
2, 76377, Note_on_c, 0, 79, 0
2, 76377, Note_on_c, 0, 91, 0
2, 76400, Note_on_c, 0, 33, 91
2, 76400, Note_on_c, 0, 45, 91
2, 76454, Control_c, 0, 64, 127
2, 76687, Note_on_c, 0, 57, 71
2, 76819, Note_on_c, 0, 93, 101
2, 76823, Note_on_c, 0, 45, 0
2, 76827, Note_on_c, 0, 45, 79
2, 76883, Note_on_c, 0, 88, 86
2, 76944, Note_on_c, 0, 84, 81
2, 76968, Note_on_c, 0, 57, 0
2, 76977, Note_on_c, 0, 57, 74
2, 77015, Note_on_c, 0, 81, 75
2, 77079, Note_on_c, 0, 76, 84
2, 77107, Note_on_c, 0, 45, 0
2, 77115, Note_on_c, 0, 45, 74
2, 77135, Note_on_c, 0, 72, 87
2, 77232, Note_on_c, 0, 69, 55
2, 77268, Note_on_c, 0, 45, 0
2, 77268, Note_on_c, 0, 57, 0
2, 77277, Note_on_c, 0, 57, 72
2, 77279, Note_on_c, 0, 45, 60
2, 77310, Note_on_c, 0, 64, 60
2, 77381, Note_on_c, 0, 60, 81
2, 77445, Note_on_c, 0, 57, 0
2, 77452, Note_on_c, 0, 57, 76
2, 77502, Note_on_c, 0, 93, 0
2, 77502, Control_c, 0, 64, 0
2, 77503, Note_on_c, 0, 76, 0
2, 77503, Note_on_c, 0, 69, 0
2, 77503, Note_on_c, 0, 64, 0
2, 77503, Note_on_c, 0, 84, 0
2, 77503, Note_on_c, 0, 81, 0
2, 77503, Note_on_c, 0, 88, 0
2, 77503, Note_on_c, 0, 57, 0
2, 77504, Note_on_c, 0, 72, 0
2, 77506, Note_on_c, 0, 33, 0
2, 77514, Note_on_c, 0, 60, 0
2, 77521, Note_on_c, 0, 45, 0
2, 77549, Note_on_c, 0, 34, 87
2, 77550, Note_on_c, 0, 46, 89
2, 77598, Control_c, 0, 64, 127
2, 77842, Note_on_c, 0, 58, 76
2, 77972, Note_on_c, 0, 94, 102
2, 77982, Note_on_c, 0, 46, 0
2, 77989, Note_on_c, 0, 46, 85
2, 78054, Note_on_c, 0, 89, 86
2, 78108, Note_on_c, 0, 86, 80
2, 78128, Note_on_c, 0, 58, 0
2, 78138, Note_on_c, 0, 58, 72
2, 78193, Note_on_c, 0, 82, 77
2, 78239, Note_on_c, 0, 77, 80
2, 78266, Note_on_c, 0, 46, 0
2, 78272, Note_on_c, 0, 46, 77
2, 78299, Note_on_c, 0, 74, 92
2, 78389, Note_on_c, 0, 58, 0
2, 78394, Note_on_c, 0, 58, 82
2, 78400, Note_on_c, 0, 70, 86
2, 78523, Control_c, 0, 64, 0
2, 78524, Note_on_c, 0, 94, 0
2, 78524, Note_on_c, 0, 89, 0
2, 78524, Note_on_c, 0, 74, 0
2, 78524, Note_on_c, 0, 86, 0
2, 78525, Note_on_c, 0, 70, 0
2, 78525, Note_on_c, 0, 58, 0
2, 78526, Note_on_c, 0, 34, 0
2, 78535, Note_on_c, 0, 77, 0
2, 78538, Note_on_c, 0, 84, 100
2, 78539, Note_on_c, 0, 77, 95
2, 78540, Note_on_c, 0, 72, 100
2, 78543, Note_on_c, 0, 46, 0
2, 78543, Note_on_c, 0, 82, 0
2, 78546, Note_on_c, 0, 80, 89
2, 78547, Note_on_c, 0, 36, 81
2, 78547, Note_on_c, 0, 79, 90
2, 78589, Control_c, 0, 64, 127
2, 78680, Note_on_c, 0, 48, 68
2, 78789, Note_on_c, 0, 36, 0
2, 78793, Note_on_c, 0, 80, 0
2, 78794, Note_on_c, 0, 48, 0
2, 78794, Note_on_c, 0, 79, 0
2, 78795, Note_on_c, 0, 84, 0
2, 78795, Note_on_c, 0, 77, 0
2, 78797, Note_on_c, 0, 72, 0
2, 78798, Control_c, 0, 64, 0
2, 78820, Note_on_c, 0, 86, 103
2, 78823, Note_on_c, 0, 38, 86
2, 78830, Note_on_c, 0, 74, 98
2, 78873, Control_c, 0, 64, 127
2, 78897, Note_on_c, 0, 81, 81
2, 78959, Note_on_c, 0, 79, 78
2, 78973, Note_on_c, 0, 38, 0
2, 78981, Note_on_c, 0, 57, 73
2, 78984, Note_on_c, 0, 50, 55
2, 79019, Note_on_c, 0, 74, 0
2, 79030, Note_on_c, 0, 74, 75
2, 79063, Note_on_c, 0, 62, 77
2, 79065, Note_on_c, 0, 50, 0
2, 79074, Note_on_c, 0, 50, 57
2, 79096, Note_on_c, 0, 79, 0
2, 79102, Note_on_c, 0, 79, 80
2, 79180, Note_on_c, 0, 81, 0
2, 79192, Note_on_c, 0, 81, 70
2, 79249, Note_on_c, 0, 86, 0
2, 79254, Note_on_c, 0, 86, 102
2, 79257, Note_on_c, 0, 74, 0
2, 79259, Note_on_c, 0, 38, 87
2, 79265, Note_on_c, 0, 74, 94
2, 79280, Note_on_c, 0, 50, 0
2, 79285, Note_on_c, 0, 50, 66
2, 79303, Note_on_c, 0, 81, 0
2, 79307, Note_on_c, 0, 81, 41
2, 79372, Note_on_c, 0, 79, 0
2, 79383, Note_on_c, 0, 79, 79
2, 79403, Note_on_c, 0, 57, 0
2, 79414, Note_on_c, 0, 57, 76
2, 79457, Note_on_c, 0, 74, 0
2, 79466, Note_on_c, 0, 74, 77
2, 79488, Note_on_c, 0, 50, 0
2, 79488, Note_on_c, 0, 62, 0
2, 79493, Note_on_c, 0, 50, 60
2, 79494, Note_on_c, 0, 62, 68
2, 79549, Note_on_c, 0, 79, 0
2, 79557, Note_on_c, 0, 79, 73
2, 79626, Note_on_c, 0, 81, 0
2, 79630, Note_on_c, 0, 81, 73
2, 79695, Note_on_c, 0, 38, 0
2, 79695, Note_on_c, 0, 86, 0
2, 79700, Note_on_c, 0, 86, 100
2, 79702, Note_on_c, 0, 38, 85
2, 79703, Note_on_c, 0, 74, 0
2, 79713, Note_on_c, 0, 74, 93
2, 79741, Note_on_c, 0, 50, 0
2, 79746, Note_on_c, 0, 50, 48
2, 79787, Note_on_c, 0, 81, 0
2, 79792, Note_on_c, 0, 81, 78
2, 79825, Note_on_c, 0, 79, 0
2, 79831, Note_on_c, 0, 79, 85
2, 79856, Note_on_c, 0, 57, 0
2, 79863, Note_on_c, 0, 57, 71
2, 79902, Note_on_c, 0, 74, 0
2, 79913, Note_on_c, 0, 74, 82
2, 79925, Note_on_c, 0, 62, 0
2, 79935, Note_on_c, 0, 62, 74
2, 79979, Note_on_c, 0, 79, 0
2, 79983, Note_on_c, 0, 79, 72
2, 80040, Note_on_c, 0, 81, 0
2, 80047, Note_on_c, 0, 81, 77
2, 80117, Note_on_c, 0, 86, 0
2, 80124, Note_on_c, 0, 86, 101
2, 80125, Note_on_c, 0, 38, 0
2, 80125, Note_on_c, 0, 74, 0
2, 80134, Note_on_c, 0, 38, 82
2, 80136, Note_on_c, 0, 74, 95
2, 80157, Control_c, 0, 64, 0
2, 80171, Note_on_c, 0, 57, 0
2, 80186, Note_on_c, 0, 50, 0
2, 80202, Note_on_c, 0, 81, 0
2, 80212, Note_on_c, 0, 81, 82
2, 80232, Control_c, 0, 64, 127
2, 80248, Note_on_c, 0, 79, 0
2, 80252, Note_on_c, 0, 79, 82
2, 80282, Note_on_c, 0, 57, 75
2, 80317, Note_on_c, 0, 74, 0
2, 80323, Note_on_c, 0, 74, 77
2, 80340, Note_on_c, 0, 62, 0
2, 80345, Note_on_c, 0, 62, 80
2, 80386, Note_on_c, 0, 79, 0
2, 80393, Note_on_c, 0, 79, 77
2, 80448, Note_on_c, 0, 81, 0
2, 80452, Note_on_c, 0, 81, 87
2, 80517, Note_on_c, 0, 86, 0
2, 80524, Note_on_c, 0, 38, 0
2, 80526, Note_on_c, 0, 86, 103
2, 80529, Note_on_c, 0, 38, 87
2, 80539, Note_on_c, 0, 74, 0
2, 80540, Note_on_c, 0, 62, 0
2, 80540, Note_on_c, 0, 79, 0
2, 80541, Control_c, 0, 64, 0
2, 80541, Note_on_c, 0, 81, 0
2, 80555, Note_on_c, 0, 57, 0
2, 80601, Control_c, 0, 64, 127
2, 80603, Note_on_c, 0, 81, 90
2, 80663, Note_on_c, 0, 79, 88
2, 80664, Note_on_c, 0, 50, 74
2, 80734, Note_on_c, 0, 74, 83
2, 80785, Note_on_c, 0, 38, 0
2, 80785, Note_on_c, 0, 86, 0
2, 80794, Note_on_c, 0, 86, 103
2, 80794, Note_on_c, 0, 38, 81
2, 80862, Note_on_c, 0, 81, 0
2, 80870, Note_on_c, 0, 38, 0
2, 80870, Note_on_c, 0, 50, 0
2, 80874, Note_on_c, 0, 81, 86
2, 80875, Note_on_c, 0, 50, 76
2, 80875, Note_on_c, 0, 38, 73
2, 80924, Note_on_c, 0, 79, 0
2, 80928, Note_on_c, 0, 79, 86
2, 80970, Note_on_c, 0, 74, 0
2, 80975, Note_on_c, 0, 74, 90
2, 81085, Note_on_c, 0, 74, 0
2, 81085, Note_on_c, 0, 81, 0
2, 81085, Note_on_c, 0, 86, 0
2, 81090, Note_on_c, 0, 86, 103
2, 81092, Note_on_c, 0, 74, 101
2, 81093, Note_on_c, 0, 38, 0
2, 81095, Note_on_c, 0, 81, 99
2, 81096, Note_on_c, 0, 78, 102
2, 81104, Note_on_c, 0, 38, 93
2, 81136, Note_on_c, 0, 50, 0
2, 81138, Note_on_c, 0, 79, 0
2, 81148, Control_c, 0, 64, 0
2, 81761, Control_c, 0, 64, 127
2, 82560, Control_c, 0, 64, 0
2, 82821, Control_c, 0, 64, 127
2, 82851, Control_c, 0, 64, 0
2, 83788, Control_c, 0, 64, 127
2, 84195, Note_on_c, 0, 38, 0
2, 84202, Note_on_c, 0, 38, 31
2, 84215, Note_on_c, 0, 74, 0
2, 84216, Note_on_c, 0, 78, 0
2, 84216, Control_c, 0, 64, 0
2, 84234, Note_on_c, 0, 81, 0
2, 84241, Note_on_c, 0, 38, 0
2, 84241, Note_on_c, 0, 86, 0
2, 84242, End_track
0, 0, End_of_file
