0, 0, Header, 1, 2, 384
1, 0, Start_track
1, 0, Tempo, 500000
1, 0, Time_signature, 4, 2, 24, 8
1, 1, End_track
2, 0, Start_track
2, 7, Control_c, 0, 64, 127
2, 820, Control_c, 0, 64, 0
2, 2064, Note_on_c, 0, 74, 64
2, 2123, Note_on_c, 0, 76, 67
2, 2181, Note_on_c, 0, 77, 88
2, 2188, Note_on_c, 0, 74, 0
2, 2188, Control_c, 0, 64, 127
2, 2199, Note_on_c, 0, 76, 0
2, 2362, Note_on_c, 0, 76, 70
2, 2488, Note_on_c, 0, 77, 0
2, 2498, Note_on_c, 0, 77, 77
2, 2573, Note_on_c, 0, 76, 0
2, 2636, Note_on_c, 0, 79, 86
2, 2652, Note_on_c, 0, 77, 0
2, 2662, Control_c, 0, 64, 0
2, 2797, Note_on_c, 0, 81, 89
2, 2804, Note_on_c, 0, 70, 50
2, 2818, Control_c, 0, 64, 127
2, 2823, Note_on_c, 0, 79, 0
2, 2837, Control_c, 0, 64, 0
2, 2841, Control_c, 0, 64, 127
2, 2949, Note_on_c, 0, 74, 61
2, 3095, Note_on_c, 0, 77, 51
2, 3202, Note_on_c, 0, 70, 0
2, 3207, Note_on_c, 0, 70, 66
2, 3240, Note_on_c, 0, 77, 0
2, 3244, Note_on_c, 0, 77, 78
2, 3354, Note_on_c, 0, 79, 87
2, 3463, Note_on_c, 0, 81, 0
2, 3469, Note_on_c, 0, 81, 98
2, 3586, Note_on_c, 0, 70, 0
2, 3591, Note_on_c, 0, 70, 79
2, 3701, Note_on_c, 0, 77, 0
2, 3712, Note_on_c, 0, 77, 86
2, 3781, Note_on_c, 0, 79, 0
2, 3782, Note_on_c, 0, 81, 0
2, 3782, Note_on_c, 0, 74, 0
2, 3783, Note_on_c, 0, 70, 0
2, 3838, Note_on_c, 0, 77, 0
2, 3842, Note_on_c, 0, 79, 91
2, 3843, Note_on_c, 0, 72, 77
2, 3848, Control_c, 0, 64, 0
2, 3909, Control_c, 0, 64, 127
2, 3974, Note_on_c, 0, 81, 98
2, 3976, Note_on_c, 0, 76, 82
2, 4093, Note_on_c, 0, 79, 0
2, 4104, Note_on_c, 0, 79, 81
2, 4241, Note_on_c, 0, 84, 98
2, 4254, Note_on_c, 0, 72, 0
2, 4259, Note_on_c, 0, 72, 73
2, 4508, Note_on_c, 0, 79, 0
2, 4518, Note_on_c, 0, 79, 87
2, 4631, Note_on_c, 0, 72, 0
2, 4641, Note_on_c, 0, 72, 59
2, 4769, Note_on_c, 0, 79, 0
2, 4777, Note_on_c, 0, 79, 85
2, 4891, Note_on_c, 0, 72, 0
2, 4892, Note_on_c, 0, 84, 0
2, 4897, Note_on_c, 0, 81, 0
2, 4900, Note_on_c, 0, 76, 0
2, 4907, Note_on_c, 0, 79, 0
2, 4912, Note_on_c, 0, 79, 82
2, 4913, Note_on_c, 0, 69, 58
2, 4913, Control_c, 0, 64, 0
2, 5007, Control_c, 0, 64, 127
2, 5043, Note_on_c, 0, 72, 72
2, 5177, Note_on_c, 0, 76, 85
2, 5299, Note_on_c, 0, 69, 0
2, 5306, Note_on_c, 0, 76, 0
2, 5310, Note_on_c, 0, 69, 72
2, 5312, Note_on_c, 0, 76, 84
2, 5428, Note_on_c, 0, 77, 92
2, 5552, Note_on_c, 0, 79, 0
2, 5557, Note_on_c, 0, 79, 99
2, 5683, Note_on_c, 0, 69, 0
2, 5687, Note_on_c, 0, 69, 76
2, 5813, Note_on_c, 0, 76, 0
2, 5817, Note_on_c, 0, 76, 87
2, 5890, Note_on_c, 0, 69, 0
2, 5892, Control_c, 0, 64, 0
2, 5894, Note_on_c, 0, 72, 0
2, 5894, Note_on_c, 0, 77, 0
2, 5936, Note_on_c, 0, 79, 0
2, 5948, Note_on_c, 0, 79, 93
2, 5949, Note_on_c, 0, 74, 85
2, 5982, Note_on_c, 0, 76, 0
2, 6021, Control_c, 0, 64, 127
2, 6069, Note_on_c, 0, 77, 87
2, 6078, Note_on_c, 0, 69, 74
2, 6187, Note_on_c, 0, 76, 83
2, 6212, Note_on_c, 0, 65, 60
2, 6320, Note_on_c, 0, 69, 0
2, 6320, Note_on_c, 0, 77, 0
2, 6326, Note_on_c, 0, 77, 86
2, 6330, Note_on_c, 0, 69, 62
2, 6446, Note_on_c, 0, 62, 86
2, 6566, Note_on_c, 0, 65, 0
2, 6566, Note_on_c, 0, 76, 0
2, 6573, Note_on_c, 0, 65, 80
2, 6576, Note_on_c, 0, 76, 96
2, 6689, Note_on_c, 0, 69, 0
2, 6689, Note_on_c, 0, 77, 0
2, 6695, Note_on_c, 0, 69, 86
2, 6695, Note_on_c, 0, 77, 94
2, 6812, Note_on_c, 0, 74, 0
2, 6812, Note_on_c, 0, 79, 0
2, 6816, Note_on_c, 0, 79, 96
2, 6818, Note_on_c, 0, 74, 78
2, 6914, Note_on_c, 0, 69, 0
2, 6921, Note_on_c, 0, 74, 0
2, 6933, Note_on_c, 0, 76, 0
2, 6941, Control_c, 0, 64, 0
2, 6943, Note_on_c, 0, 65, 0
2, 6947, Note_on_c, 0, 77, 0
2, 6954, Note_on_c, 0, 81, 101
2, 6954, Note_on_c, 0, 70, 73
2, 6965, Note_on_c, 0, 62, 0
2, 7084, Note_on_c, 0, 74, 71
2, 7088, Control_c, 0, 64, 127
2, 7216, Note_on_c, 0, 77, 60
2, 7319, Note_on_c, 0, 70, 0
2, 7329, Note_on_c, 0, 70, 84
2, 7349, Note_on_c, 0, 77, 0
2, 7354, Note_on_c, 0, 77, 82
2, 7457, Note_on_c, 0, 79, 0
2, 7467, Note_on_c, 0, 79, 90
2, 7580, Note_on_c, 0, 81, 0
2, 7587, Note_on_c, 0, 81, 100
2, 7718, Note_on_c, 0, 70, 0
2, 7722, Note_on_c, 0, 70, 83
2, 7833, Note_on_c, 0, 77, 0
2, 7838, Note_on_c, 0, 77, 90
2, 7908, Note_on_c, 0, 74, 0
2, 7909, Note_on_c, 0, 81, 0
2, 7910, Note_on_c, 0, 70, 0
2, 7912, Control_c, 0, 64, 0
2, 7956, Note_on_c, 0, 79, 0
2, 7966, Note_on_c, 0, 79, 94
2, 7967, Note_on_c, 0, 72, 88
2, 7987, Note_on_c, 0, 77, 0
2, 8087, Control_c, 0, 64, 127
2, 8090, Note_on_c, 0, 81, 96
2, 8090, Note_on_c, 0, 76, 83
2, 8217, Note_on_c, 0, 79, 0
2, 8222, Note_on_c, 0, 79, 77
2, 8340, Note_on_c, 0, 72, 0
2, 8351, Note_on_c, 0, 72, 75
2, 8352, Note_on_c, 0, 84, 99
2, 8616, Note_on_c, 0, 79, 0
2, 8621, Note_on_c, 0, 79, 92
2, 8739, Note_on_c, 0, 72, 0
2, 8748, Note_on_c, 0, 72, 70
2, 8870, Note_on_c, 0, 79, 0
2, 8874, Note_on_c, 0, 79, 94
2, 8993, Note_on_c, 0, 79, 0
2, 8999, Note_on_c, 0, 79, 96
2, 9003, Note_on_c, 0, 84, 0
2, 9003, Note_on_c, 0, 72, 0
2, 9004, Note_on_c, 0, 76, 0
2, 9004, Note_on_c, 0, 81, 0
2, 9004, Control_c, 0, 64, 0
2, 9022, Note_on_c, 0, 62, 76
2, 9024, Note_on_c, 0, 74, 69
2, 9139, Note_on_c, 0, 74, 0
2, 9144, Note_on_c, 0, 74, 67
2, 9154, Control_c, 0, 64, 127
2, 9280, Note_on_c, 0, 69, 66
2, 9413, Note_on_c, 0, 67, 63
2, 9530, Note_on_c, 0, 74, 0
2, 9538, Note_on_c, 0, 74, 92
2, 9661, Note_on_c, 0, 69, 0
2, 9672, Note_on_c, 0, 69, 75
2, 9674, Note_on_c, 0, 78, 92
2, 9799, Note_on_c, 0, 67, 0
2, 9799, Note_on_c, 0, 79, 0
2, 9809, Note_on_c, 0, 79, 89
2, 9809, Note_on_c, 0, 67, 63
2, 9937, Note_on_c, 0, 62, 0
2, 9942, Note_on_c, 0, 62, 57
2, 9961, Note_on_c, 0, 81, 100
2, 9968, Note_on_c, 0, 74, 0
2, 9973, Note_on_c, 0, 74, 76
2, 9976, Note_on_c, 0, 78, 0
2, 9980, Note_on_c, 0, 78, 79
2, 10245, Note_on_c, 0, 62, 0
2, 10250, Note_on_c, 0, 62, 45
2, 10252, Note_on_c, 0, 55, 54
2, 10255, Note_on_c, 0, 50, 48
2, 10258, Note_on_c, 0, 57, 48
2, 10421, Note_on_c, 0, 50, 0
2, 10421, Note_on_c, 0, 55, 0
2, 10421, Note_on_c, 0, 57, 0
2, 10421, Note_on_c, 0, 62, 0
2, 10426, Note_on_c, 0, 62, 66
2, 10426, Note_on_c, 0, 55, 64
2, 10426, Note_on_c, 0, 50, 57
2, 10430, Note_on_c, 0, 57, 58
2, 10567, Note_on_c, 0, 55, 0
2, 10567, Note_on_c, 0, 57, 0
2, 10575, Note_on_c, 0, 50, 0
2, 10578, Note_on_c, 0, 55, 66
2, 10579, Note_on_c, 0, 57, 62
2, 10579, Note_on_c, 0, 50, 54
2, 10759, Note_on_c, 0, 50, 0
2, 10759, Note_on_c, 0, 55, 0
2, 10759, Note_on_c, 0, 57, 0
2, 10759, Note_on_c, 0, 79, 0
2, 10763, Note_on_c, 0, 50, 56
2, 10764, Note_on_c, 0, 67, 0
2, 10767, Note_on_c, 0, 55, 63
2, 10767, Note_on_c, 0, 62, 0
2, 10768, Note_on_c, 0, 57, 69
2, 10771, Note_on_c, 0, 62, 65
2, 11334, Note_on_c, 0, 57, 0
2, 11341, Note_on_c, 0, 78, 0
2, 11381, Note_on_c, 0, 69, 0
2, 11393, Control_c, 0, 64, 0
2, 11404, Note_on_c, 0, 55, 0
2, 11412, Note_on_c, 0, 81, 0
2, 11420, Note_on_c, 0, 74, 0
2, 11435, Note_on_c, 0, 50, 0
2, 11435, Note_on_c, 0, 62, 0
2, 11808, Note_on_c, 0, 63, 93
2, 11827, Control_c, 0, 64, 127
2, 11860, Note_on_c, 0, 65, 80
2, 11907, Note_on_c, 0, 66, 85
2, 11945, Note_on_c, 0, 68, 95
2, 11959, Note_on_c, 0, 66, 0
2, 11959, Note_on_c, 0, 63, 0
2, 11961, Note_on_c, 0, 65, 0
2, 11962, Control_c, 0, 64, 0
2, 12019, Note_on_c, 0, 68, 0
2, 12030, Note_on_c, 0, 70, 102
2, 12036, Note_on_c, 0, 47, 101
2, 12037, Note_on_c, 0, 66, 96
2, 12038, Note_on_c, 0, 63, 94
2, 12038, Note_on_c, 0, 35, 95
2, 12072, Control_c, 0, 64, 127
2, 12142, Note_on_c, 0, 35, 0
2, 12165, Note_on_c, 0, 47, 0
2, 12311, Control_c, 0, 64, 0
2, 12315, Note_on_c, 0, 54, 98
2, 12316, Note_on_c, 0, 51, 87
2, 12395, Control_c, 0, 64, 127
2, 12587, Note_on_c, 0, 63, 0
2, 12587, Note_on_c, 0, 66, 0
2, 12592, Note_on_c, 0, 66, 98
2, 12597, Note_on_c, 0, 63, 86
2, 12608, Note_on_c, 0, 51, 0
2, 12615, Control_c, 0, 64, 0
2, 12633, Note_on_c, 0, 70, 0
2, 12656, Control_c, 0, 64, 127
2, 12707, Note_on_c, 0, 47, 89
2, 12825, Note_on_c, 0, 54, 0
2, 12832, Note_on_c, 0, 54, 88
2, 12833, Note_on_c, 0, 47, 0
2, 12844, Note_on_c, 0, 47, 69
2, 12847, Control_c, 0, 64, 0
2, 12897, Note_on_c, 0, 47, 0
2, 12902, Note_on_c, 0, 63, 0
2, 12910, Note_on_c, 0, 54, 0
2, 12910, Note_on_c, 0, 66, 0
2, 12975, Note_on_c, 0, 68, 104
2, 12979, Note_on_c, 0, 49, 96
2, 12979, Note_on_c, 0, 65, 87
2, 12979, Note_on_c, 0, 61, 98
2, 12982, Note_on_c, 0, 37, 90
2, 13017, Control_c, 0, 64, 127
2, 13217, Note_on_c, 0, 49, 0
2, 13227, Note_on_c, 0, 49, 76
2, 13359, Note_on_c, 0, 53, 85
2, 13470, Note_on_c, 0, 61, 0
2, 13480, Note_on_c, 0, 56, 91
2, 13482, Note_on_c, 0, 61, 91
2, 13593, Note_on_c, 0, 65, 0
2, 13593, Note_on_c, 0, 68, 0
2, 13597, Note_on_c, 0, 75, 105
2, 13597, Note_on_c, 0, 68, 103
2, 13599, Note_on_c, 0, 65, 90
2, 13847, Note_on_c, 0, 37, 0
2, 13847, Note_on_c, 0, 49, 0
2, 13853, Note_on_c, 0, 49, 78
2, 13857, Note_on_c, 0, 37, 87
2, 13975, Note_on_c, 0, 47, 94
2, 13977, Note_on_c, 0, 35, 87
2, 14012, Note_on_c, 0, 61, 0
2, 14012, Note_on_c, 0, 68, 0
2, 14012, Note_on_c, 0, 56, 0
2, 14012, Note_on_c, 0, 53, 0
2, 14012, Note_on_c, 0, 37, 0
2, 14013, Note_on_c, 0, 65, 0
2, 14013, Note_on_c, 0, 49, 0
2, 14015, Note_on_c, 0, 75, 0
2, 14020, Control_c, 0, 64, 0
2, 14043, Note_on_c, 0, 35, 0
2, 14046, Note_on_c, 0, 47, 0
2, 14115, Note_on_c, 0, 73, 106
2, 14119, Note_on_c, 0, 46, 98
2, 14119, Note_on_c, 0, 68, 98
2, 14120, Note_on_c, 0, 34, 94
2, 14121, Note_on_c, 0, 65, 92
2, 14215, Note_on_c, 0, 34, 0
2, 14254, Control_c, 0, 64, 127
2, 14382, Note_on_c, 0, 53, 90
2, 14382, Note_on_c, 0, 56, 99
2, 14630, Note_on_c, 0, 65, 0
2, 14641, Note_on_c, 0, 65, 102
2, 14646, Note_on_c, 0, 61, 94
2, 14768, Note_on_c, 0, 46, 0
2, 14777, Note_on_c, 0, 46, 90
2, 14891, Note_on_c, 0, 56, 0
2, 14895, Note_on_c, 0, 56, 91
2, 14989, Control_c, 0, 64, 0
2, 14995, Note_on_c, 0, 73, 0
2, 14995, Note_on_c, 0, 46, 0
2, 14996, Note_on_c, 0, 53, 0
2, 14996, Note_on_c, 0, 65, 0
2, 14997, Note_on_c, 0, 68, 0
2, 14997, Note_on_c, 0, 56, 0
2, 14997, Note_on_c, 0, 61, 0
2, 15041, Note_on_c, 0, 66, 104
2, 15042, Note_on_c, 0, 39, 89
2, 15044, Note_on_c, 0, 63, 95
2, 15047, Note_on_c, 0, 58, 94
2, 15292, Note_on_c, 0, 46, 87
2, 15375, Control_c, 0, 64, 127
2, 15429, Note_on_c, 0, 53, 92
2, 15564, Note_on_c, 0, 54, 99
2, 15590, Note_on_c, 0, 58, 0
2, 15594, Note_on_c, 0, 58, 56
2, 15667, Note_on_c, 0, 39, 0
2, 15678, Note_on_c, 0, 39, 81
2, 15782, Note_on_c, 0, 46, 0
2, 15791, Note_on_c, 0, 46, 89
2, 15920, Note_on_c, 0, 63, 0
2, 15931, Note_on_c, 0, 63, 96
2, 15940, Note_on_c, 0, 49, 89
2, 15948, Note_on_c, 0, 37, 90
2, 15997, Note_on_c, 0, 66, 0
2, 16003, Note_on_c, 0, 66, 78
2, 16036, Note_on_c, 0, 68, 96
2, 16048, Control_c, 0, 64, 0
2, 16054, Note_on_c, 0, 63, 0
2, 16054, Note_on_c, 0, 39, 0
2, 16055, Note_on_c, 0, 46, 0
2, 16055, Note_on_c, 0, 66, 0
2, 16055, Note_on_c, 0, 58, 0
2, 16056, Note_on_c, 0, 54, 0
2, 16057, Note_on_c, 0, 37, 0
2, 16057, Note_on_c, 0, 53, 0
2, 16058, Note_on_c, 0, 49, 0
2, 16135, Note_on_c, 0, 68, 0
2, 16206, Note_on_c, 0, 70, 102
2, 16209, Note_on_c, 0, 48, 94
2, 16213, Note_on_c, 0, 36, 90
2, 16214, Note_on_c, 0, 63, 88
2, 16214, Note_on_c, 0, 66, 89
2, 16266, Control_c, 0, 64, 127
2, 16483, Note_on_c, 0, 58, 96
2, 16484, Note_on_c, 0, 54, 92
2, 16486, Note_on_c, 0, 51, 82
2, 16727, Note_on_c, 0, 63, 0
2, 16727, Note_on_c, 0, 66, 0
2, 16733, Note_on_c, 0, 66, 95
2, 16737, Note_on_c, 0, 63, 91
2, 16849, Note_on_c, 0, 48, 0
2, 16854, Note_on_c, 0, 48, 85
2, 16972, Note_on_c, 0, 51, 0
2, 16972, Note_on_c, 0, 54, 0
2, 16977, Note_on_c, 0, 54, 76
2, 16981, Note_on_c, 0, 51, 77
2, 17061, Control_c, 0, 64, 0
2, 17068, Note_on_c, 0, 48, 0
2, 17068, Note_on_c, 0, 63, 0
2, 17068, Note_on_c, 0, 51, 0
2, 17068, Note_on_c, 0, 58, 0
2, 17068, Note_on_c, 0, 66, 0
2, 17068, Note_on_c, 0, 54, 0
2, 17069, Note_on_c, 0, 70, 0
2, 17072, Note_on_c, 0, 36, 0
2, 17115, Note_on_c, 0, 68, 104
2, 17121, Note_on_c, 0, 63, 98
2, 17123, Note_on_c, 0, 66, 90
2, 17127, Note_on_c, 0, 35, 90
2, 17129, Note_on_c, 0, 47, 96
2, 17203, Control_c, 0, 64, 127
2, 17249, Note_on_c, 0, 35, 0
2, 17372, Note_on_c, 0, 47, 0
2, 17377, Note_on_c, 0, 47, 71
2, 17488, Note_on_c, 0, 51, 78
2, 17624, Note_on_c, 0, 56, 88
2, 17626, Note_on_c, 0, 54, 83
2, 17748, Note_on_c, 0, 54, 0
2, 17748, Note_on_c, 0, 66, 0
2, 17748, Note_on_c, 0, 68, 0
2, 17749, Note_on_c, 0, 75, 106
2, 17753, Note_on_c, 0, 66, 99
2, 17753, Note_on_c, 0, 68, 96
2, 17757, Note_on_c, 0, 54, 82
2, 17971, Note_on_c, 0, 47, 0
2, 17979, Note_on_c, 0, 47, 80
2, 18124, Note_on_c, 0, 47, 0
2, 18128, Note_on_c, 0, 73, 102
2, 18135, Note_on_c, 0, 47, 63
2, 18197, Note_on_c, 0, 68, 0
2, 18197, Note_on_c, 0, 63, 0
2, 18197, Note_on_c, 0, 51, 0
2, 18198, Note_on_c, 0, 66, 0
2, 18198, Note_on_c, 0, 75, 0
2, 18198, Control_c, 0, 64, 0
2, 18198, Note_on_c, 0, 54, 0
2, 18198, Note_on_c, 0, 47, 0
2, 18216, Note_on_c, 0, 56, 0
2, 18255, Note_on_c, 0, 73, 0
2, 18260, Note_on_c, 0, 73, 101
2, 18264, Note_on_c, 0, 49, 91
2, 18267, Note_on_c, 0, 68, 95
2, 18268, Note_on_c, 0, 37, 92
2, 18271, Note_on_c, 0, 66, 95
2, 18293, Note_on_c, 0, 49, 0
2, 18370, Control_c, 0, 64, 127
2, 18667, Note_on_c, 0, 65, 101
2, 18667, Note_on_c, 0, 61, 92
2, 18668, Note_on_c, 0, 56, 93
2, 18676, Note_on_c, 0, 53, 71
2, 18942, Note_on_c, 0, 49, 64
2, 19046, Note_on_c, 0, 37, 0
2, 19057, Note_on_c, 0, 37, 82
2, 19207, Note_on_c, 0, 68, 0
2, 19212, Note_on_c, 0, 68, 82
2, 19249, Note_on_c, 0, 70, 87
2, 19250, Control_c, 0, 64, 0
2, 19257, Note_on_c, 0, 56, 0
2, 19257, Note_on_c, 0, 61, 0
2, 19257, Note_on_c, 0, 49, 0
2, 19257, Note_on_c, 0, 68, 0
2, 19258, Note_on_c, 0, 65, 0
2, 19258, Note_on_c, 0, 66, 0
2, 19258, Note_on_c, 0, 37, 0
2, 19258, Note_on_c, 0, 53, 0
2, 19259, Note_on_c, 0, 73, 0
2, 19278, Note_on_c, 0, 75, 79
2, 19323, Note_on_c, 0, 80, 103
2, 19324, Note_on_c, 0, 51, 79
2, 19326, Note_on_c, 0, 39, 80
2, 19340, Note_on_c, 0, 70, 0
2, 19453, Note_on_c, 0, 68, 76
2, 19461, Control_c, 0, 64, 127
2, 19589, Note_on_c, 0, 70, 63
2, 19722, Note_on_c, 0, 80, 0
2, 19730, Note_on_c, 0, 80, 95
2, 19866, Note_on_c, 0, 79, 94
2, 19870, Note_on_c, 0, 63, 75
2, 19875, Note_on_c, 0, 58, 68
2, 19877, Note_on_c, 0, 55, 64
2, 19981, Note_on_c, 0, 67, 79
2, 20106, Note_on_c, 0, 75, 0
2, 20115, Note_on_c, 0, 75, 63
2, 20236, Note_on_c, 0, 79, 0
2, 20244, Note_on_c, 0, 79, 77
2, 20366, Note_on_c, 0, 80, 0
2, 20367, Control_c, 0, 64, 0
2, 20370, Note_on_c, 0, 58, 0
2, 20370, Note_on_c, 0, 75, 0
2, 20371, Note_on_c, 0, 70, 0
2, 20371, Note_on_c, 0, 68, 0
2, 20372, Note_on_c, 0, 63, 0
2, 20373, Note_on_c, 0, 39, 0
2, 20373, Note_on_c, 0, 51, 0
2, 20374, Note_on_c, 0, 67, 0
2, 20374, Note_on_c, 0, 55, 0
2, 20390, Note_on_c, 0, 44, 65
2, 20670, Note_on_c, 0, 67, 73
2, 20904, Control_c, 0, 64, 127
2, 20905, Note_on_c, 0, 60, 75
2, 21032, Note_on_c, 0, 62, 76
2, 21308, Note_on_c, 0, 63, 85
2, 21435, Note_on_c, 0, 55, 61
2, 21437, Note_on_c, 0, 51, 48
2, 21680, Note_on_c, 0, 62, 0
2, 21689, Note_on_c, 0, 62, 71
2, 21818, Note_on_c, 0, 63, 0
2, 21826, Note_on_c, 0, 55, 0
2, 21828, Note_on_c, 0, 63, 83
2, 21831, Note_on_c, 0, 55, 67
2, 21834, Note_on_c, 0, 51, 0
2, 21844, Note_on_c, 0, 51, 54
2, 22018, Note_on_c, 0, 79, 0
2, 22095, Note_on_c, 0, 65, 89
2, 22195, Note_on_c, 0, 44, 0
2, 22203, Note_on_c, 0, 44, 65
2, 22341, Note_on_c, 0, 65, 0
2, 22350, Note_on_c, 0, 65, 67
2, 22468, Note_on_c, 0, 55, 0
2, 22471, Note_on_c, 0, 51, 0
2, 22475, Note_on_c, 0, 63, 0
2, 22479, Note_on_c, 0, 62, 0
2, 22482, Note_on_c, 0, 46, 68
2, 22483, Note_on_c, 0, 53, 71
2, 22484, Note_on_c, 0, 62, 84
2, 22487, Note_on_c, 0, 67, 0
2, 22493, Control_c, 0, 64, 0
2, 22494, Note_on_c, 0, 65, 0
2, 22510, Note_on_c, 0, 44, 0
2, 22525, Note_on_c, 0, 60, 0
2, 22566, Note_on_c, 0, 62, 0
2, 22755, Note_on_c, 0, 53, 0
2, 22758, Note_on_c, 0, 62, 88
2, 22766, Note_on_c, 0, 58, 68
2, 22766, Note_on_c, 0, 53, 75
2, 22798, Note_on_c, 0, 58, 0
2, 22868, Note_on_c, 0, 62, 0
2, 22917, Note_on_c, 0, 53, 0
2, 23010, Note_on_c, 0, 62, 85
2, 23028, Note_on_c, 0, 53, 66
2, 23147, Note_on_c, 0, 60, 70
2, 23255, Control_c, 0, 64, 127
2, 23262, Note_on_c, 0, 46, 0
2, 23273, Note_on_c, 0, 46, 72
2, 23413, Note_on_c, 0, 58, 85
2, 23543, Note_on_c, 0, 51, 64
2, 23945, Note_on_c, 0, 50, 73
2, 23992, Control_c, 0, 64, 0
2, 24076, Control_c, 0, 64, 127
2, 24215, Note_on_c, 0, 58, 0
2, 24221, Note_on_c, 0, 58, 87
2, 24340, Note_on_c, 0, 44, 67
2, 24460, Note_on_c, 0, 60, 0
2, 24470, Note_on_c, 0, 60, 87
2, 24567, Note_on_c, 0, 58, 0
2, 24570, Control_c, 0, 64, 0
2, 24571, Note_on_c, 0, 46, 0
2, 24601, Note_on_c, 0, 43, 63
2, 24606, Note_on_c, 0, 53, 0
2, 24606, Note_on_c, 0, 62, 0
2, 24610, Note_on_c, 0, 62, 91
2, 24611, Note_on_c, 0, 53, 65
2, 24614, Note_on_c, 0, 50, 0
2, 24618, Note_on_c, 0, 50, 52
2, 24629, Note_on_c, 0, 51, 0
2, 24647, Note_on_c, 0, 60, 0
2, 24744, Note_on_c, 0, 44, 0
2, 24829, Control_c, 0, 64, 127
2, 24890, Note_on_c, 0, 58, 84
2, 25128, Note_on_c, 0, 58, 0
2, 25139, Note_on_c, 0, 58, 81
2, 25167, Note_on_c, 0, 43, 0
2, 25178, Note_on_c, 0, 43, 38
2, 25267, Note_on_c, 0, 62, 0
2, 25274, Note_on_c, 0, 62, 87
2, 25318, Control_c, 0, 64, 0
2, 25339, Note_on_c, 0, 53, 0
2, 25374, Note_on_c, 0, 43, 0
2, 25381, Note_on_c, 0, 43, 63
2, 25413, Control_c, 0, 64, 127
2, 25535, Note_on_c, 0, 68, 96
2, 25561, Control_c, 0, 64, 0
2, 25574, Note_on_c, 0, 50, 0
2, 25597, Control_c, 0, 64, 127
2, 25662, Note_on_c, 0, 50, 53
2, 25663, Note_on_c, 0, 53, 70
2, 25789, Note_on_c, 0, 68, 0
2, 25797, Note_on_c, 0, 68, 89
2, 25815, Control_c, 0, 64, 0
2, 25827, Control_c, 0, 64, 127
2, 25923, Note_on_c, 0, 67, 88
2, 26055, Note_on_c, 0, 65, 92
2, 26188, Note_on_c, 0, 53, 0
2, 26188, Note_on_c, 0, 58, 0
2, 26193, Note_on_c, 0, 58, 80
2, 26196, Note_on_c, 0, 53, 69
2, 26319, Note_on_c, 0, 62, 0
2, 26323, Note_on_c, 0, 62, 89
2, 26446, Note_on_c, 0, 63, 91
2, 26557, Note_on_c, 0, 65, 0
2, 26562, Note_on_c, 0, 65, 80
2, 26691, Control_c, 0, 64, 0
2, 26693, Note_on_c, 0, 68, 0
2, 26694, Note_on_c, 0, 67, 0
2, 26695, Note_on_c, 0, 53, 0
2, 26695, Note_on_c, 0, 62, 0
2, 26696, Note_on_c, 0, 43, 0
2, 26696, Note_on_c, 0, 50, 0
2, 26697, Note_on_c, 0, 65, 0
2, 26711, Note_on_c, 0, 63, 0
2, 26718, Note_on_c, 0, 58, 0
2, 26720, Note_on_c, 0, 63, 91
2, 26720, Note_on_c, 0, 48, 69
2, 26722, Note_on_c, 0, 60, 70
2, 26723, Note_on_c, 0, 55, 63
2, 26724, Note_on_c, 0, 58, 65
2, 26979, Control_c, 0, 64, 127
2, 27133, Note_on_c, 0, 48, 0
2, 27139, Note_on_c, 0, 48, 62
2, 27254, Note_on_c, 0, 65, 90
2, 27525, Note_on_c, 0, 55, 0
2, 27531, Note_on_c, 0, 55, 65
2, 27786, Note_on_c, 0, 60, 0
2, 27786, Note_on_c, 0, 63, 0
2, 27793, Note_on_c, 0, 63, 91
2, 27797, Note_on_c, 0, 60, 63
2, 28034, Control_c, 0, 64, 0
2, 28047, Note_on_c, 0, 48, 0
2, 28050, Note_on_c, 0, 55, 0
2, 28051, Note_on_c, 0, 65, 0
2, 28055, Note_on_c, 0, 46, 62
2, 28055, Note_on_c, 0, 58, 0
2, 28177, Control_c, 0, 64, 127
2, 28322, Note_on_c, 0, 58, 75
2, 28333, Note_on_c, 0, 62, 85
2, 28350, Note_on_c, 0, 55, 60
2, 28470, Note_on_c, 0, 67, 76
2, 28561, Note_on_c, 0, 60, 0
2, 28578, Note_on_c, 0, 70, 79
2, 28712, Note_on_c, 0, 74, 88
2, 28746, Note_on_c, 0, 63, 0
2, 28758, Control_c, 0, 64, 0
2, 28758, Note_on_c, 0, 67, 0
2, 28769, Note_on_c, 0, 46, 0
2, 28807, Note_on_c, 0, 55, 0
2, 28807, Note_on_c, 0, 58, 0
2, 28825, Note_on_c, 0, 44, 79
2, 28961, Note_on_c, 0, 70, 0
2, 29095, Note_on_c, 0, 79, 100
2, 29145, Control_c, 0, 64, 127
2, 29230, Note_on_c, 0, 74, 0
2, 29363, Note_on_c, 0, 72, 86
2, 29496, Note_on_c, 0, 74, 89
2, 29613, Note_on_c, 0, 56, 67
2, 29745, Note_on_c, 0, 75, 86
2, 29875, Note_on_c, 0, 60, 88
2, 29875, Note_on_c, 0, 63, 96
2, 30144, Note_on_c, 0, 74, 0
2, 30154, Note_on_c, 0, 74, 80
2, 30274, Note_on_c, 0, 63, 0
2, 30282, Note_on_c, 0, 75, 0
2, 30284, Note_on_c, 0, 67, 93
2, 30284, Note_on_c, 0, 63, 94
2, 30289, Note_on_c, 0, 75, 94
2, 30302, Control_c, 0, 64, 0
2, 30359, Control_c, 0, 64, 127
2, 30557, Note_on_c, 0, 77, 96
2, 30673, Note_on_c, 0, 44, 0
2, 30678, Note_on_c, 0, 44, 80
2, 30689, Note_on_c, 0, 62, 0
2, 30789, Note_on_c, 0, 77, 0
2, 30795, Note_on_c, 0, 77, 89
2, 30927, Note_on_c, 0, 72, 0
2, 30927, Note_on_c, 0, 74, 0
2, 30933, Note_on_c, 0, 65, 94
2, 30934, Note_on_c, 0, 74, 98
2, 30935, Note_on_c, 0, 79, 0
2, 30935, Note_on_c, 0, 72, 85
2, 30937, Note_on_c, 0, 70, 91
2, 30939, Note_on_c, 0, 67, 0
2, 30940, Control_c, 0, 64, 0
2, 30940, Note_on_c, 0, 75, 0
2, 30940, Note_on_c, 0, 44, 0
2, 30940, Note_on_c, 0, 56, 0
2, 30940, Note_on_c, 0, 63, 0
2, 30941, Note_on_c, 0, 46, 86
2, 30943, Note_on_c, 0, 77, 0
2, 30944, Note_on_c, 0, 60, 0
2, 30981, Note_on_c, 0, 72, 0
2, 31004, Note_on_c, 0, 74, 0
2, 31011, Note_on_c, 0, 70, 0
2, 31203, Note_on_c, 0, 65, 0
2, 31206, Note_on_c, 0, 74, 96
2, 31208, Note_on_c, 0, 65, 86
2, 31209, Note_on_c, 0, 70, 86
2, 31223, Note_on_c, 0, 58, 66
2, 31234, Note_on_c, 0, 58, 0
2, 31246, Note_on_c, 0, 70, 0
2, 31250, Note_on_c, 0, 74, 0
2, 31303, Note_on_c, 0, 65, 0
2, 31467, Note_on_c, 0, 74, 96
2, 31472, Note_on_c, 0, 65, 81
2, 31473, Note_on_c, 0, 70, 82
2, 31600, Note_on_c, 0, 72, 87
2, 31733, Control_c, 0, 64, 127
2, 31750, Note_on_c, 0, 53, 70
2, 31848, Note_on_c, 0, 70, 0
2, 31858, Note_on_c, 0, 70, 87
2, 31993, Note_on_c, 0, 58, 85
2, 31995, Note_on_c, 0, 60, 88
2, 31997, Note_on_c, 0, 63, 93
2, 32248, Note_on_c, 0, 46, 0
2, 32252, Note_on_c, 0, 46, 72
2, 32371, Note_on_c, 0, 58, 0
2, 32371, Note_on_c, 0, 62, 94
2, 32382, Note_on_c, 0, 58, 90
2, 32386, Note_on_c, 0, 53, 0
2, 32394, Note_on_c, 0, 46, 0
2, 32397, Note_on_c, 0, 53, 78
2, 32398, Note_on_c, 0, 46, 71
2, 32593, Note_on_c, 0, 74, 0
2, 32605, Note_on_c, 0, 74, 84
2, 32632, Note_on_c, 0, 82, 107
2, 32765, Note_on_c, 0, 44, 81
2, 32879, Note_on_c, 0, 79, 100
2, 32958, Control_c, 0, 64, 0
2, 32959, Note_on_c, 0, 72, 0
2, 32960, Note_on_c, 0, 63, 0
2, 32961, Note_on_c, 0, 65, 0
2, 32961, Note_on_c, 0, 53, 0
2, 32961, Note_on_c, 0, 44, 0
2, 32961, Note_on_c, 0, 46, 0
2, 32961, Note_on_c, 0, 60, 0
2, 32962, Note_on_c, 0, 58, 0
2, 32962, Note_on_c, 0, 62, 0
2, 32962, Note_on_c, 0, 70, 0
2, 32962, Note_on_c, 0, 82, 0
2, 32965, Note_on_c, 0, 79, 0
2, 32977, Note_on_c, 0, 74, 0
2, 33008, Note_on_c, 0, 43, 79
2, 33009, Note_on_c, 0, 53, 84
2, 33010, Note_on_c, 0, 77, 100
2, 33020, Note_on_c, 0, 70, 84
2, 33021, Note_on_c, 0, 65, 85
2, 33139, Control_c, 0, 64, 127
2, 33278, Note_on_c, 0, 75, 88
2, 33392, Note_on_c, 0, 53, 0
2, 33402, Note_on_c, 0, 53, 83
2, 33411, Note_on_c, 0, 58, 88
2, 33413, Note_on_c, 0, 50, 68
2, 33523, Note_on_c, 0, 77, 0
2, 33534, Note_on_c, 0, 77, 97
2, 33538, Note_on_c, 0, 65, 0
2, 33546, Note_on_c, 0, 70, 0
2, 33549, Note_on_c, 0, 65, 87
2, 33550, Note_on_c, 0, 70, 70
2, 33669, Note_on_c, 0, 75, 0
2, 33675, Note_on_c, 0, 75, 97
2, 33922, Note_on_c, 0, 77, 0
2, 33928, Note_on_c, 0, 77, 99
2, 34009, Control_c, 0, 64, 0
2, 34023, Note_on_c, 0, 75, 0
2, 34025, Note_on_c, 0, 50, 0
2, 34025, Note_on_c, 0, 65, 0
2, 34025, Note_on_c, 0, 43, 0
2, 34026, Note_on_c, 0, 70, 0
2, 34026, Note_on_c, 0, 58, 0
2, 34045, Note_on_c, 0, 53, 0
2, 34055, Note_on_c, 0, 47, 87
2, 34056, Note_on_c, 0, 55, 86
2, 34056, Note_on_c, 0, 53, 86
2, 34202, Note_on_c, 0, 75, 87
2, 34283, Control_c, 0, 64, 127
2, 34306, Note_on_c, 0, 77, 0
2, 34311, Note_on_c, 0, 77, 85
2, 34429, Note_on_c, 0, 77, 0
2, 34440, Note_on_c, 0, 77, 93
2, 34556, Control_c, 0, 64, 0
2, 34563, Note_on_c, 0, 75, 0
2, 34564, Note_on_c, 0, 47, 0
2, 34565, Note_on_c, 0, 55, 0
2, 34567, Note_on_c, 0, 53, 0
2, 34571, Note_on_c, 0, 70, 96
2, 34576, Note_on_c, 0, 50, 85
2, 34577, Note_on_c, 0, 43, 82
2, 34578, Note_on_c, 0, 53, 90
2, 34759, Control_c, 0, 64, 127
2, 34775, Note_on_c, 0, 80, 79
2, 34828, Note_on_c, 0, 82, 104
2, 35054, Control_c, 0, 64, 0
2, 35058, Note_on_c, 0, 70, 0
2, 35060, Note_on_c, 0, 82, 0
2, 35060, Note_on_c, 0, 80, 0
2, 35062, Note_on_c, 0, 50, 0
2, 35062, Note_on_c, 0, 43, 0
2, 35064, Note_on_c, 0, 53, 0
2, 35074, Note_on_c, 0, 77, 0
2, 35095, Note_on_c, 0, 79, 103
2, 35099, Note_on_c, 0, 48, 83
2, 35101, Note_on_c, 0, 75, 91
2, 35109, Note_on_c, 0, 67, 81
2, 35364, Note_on_c, 0, 55, 62
2, 35504, Note_on_c, 0, 77, 100
2, 35517, Note_on_c, 0, 74, 86
2, 35523, Note_on_c, 0, 62, 77
2, 35581, Control_c, 0, 64, 127
2, 35717, Control_c, 0, 64, 0
2, 35765, Note_on_c, 0, 55, 0
2, 35773, Note_on_c, 0, 55, 61
2, 35873, Note_on_c, 0, 75, 0
2, 35882, Note_on_c, 0, 75, 95
2, 35900, Note_on_c, 0, 63, 77
2, 35901, Note_on_c, 0, 72, 79
2, 36157, Note_on_c, 0, 55, 0
2, 36161, Note_on_c, 0, 55, 58
2, 36272, Note_on_c, 0, 63, 0
2, 36278, Note_on_c, 0, 63, 77
2, 36395, Control_c, 0, 64, 127
2, 36403, Note_on_c, 0, 48, 0
2, 36412, Note_on_c, 0, 48, 64
2, 36556, Note_on_c, 0, 62, 0
2, 36567, Note_on_c, 0, 62, 66
2, 36607, Note_on_c, 0, 63, 0
2, 36608, Note_on_c, 0, 72, 0
2, 36611, Note_on_c, 0, 75, 0
2, 36613, Note_on_c, 0, 48, 0
2, 36614, Note_on_c, 0, 74, 0
2, 36621, Control_c, 0, 64, 0
2, 36681, Note_on_c, 0, 46, 74
2, 36685, Note_on_c, 0, 58, 72
2, 36718, Control_c, 0, 64, 127
2, 36969, Note_on_c, 0, 63, 96
2, 37079, Note_on_c, 0, 79, 0
2, 37097, Note_on_c, 0, 65, 94
2, 37137, Control_c, 0, 64, 0
2, 37147, Note_on_c, 0, 62, 0
2, 37147, Note_on_c, 0, 63, 0
2, 37147, Note_on_c, 0, 77, 0
2, 37149, Note_on_c, 0, 55, 0
2, 37150, Note_on_c, 0, 58, 0
2, 37151, Note_on_c, 0, 46, 0
2, 37155, Note_on_c, 0, 67, 0
2, 37228, Note_on_c, 0, 67, 101
2, 37230, Note_on_c, 0, 44, 84
2, 37235, Note_on_c, 0, 60, 86
2, 37235, Note_on_c, 0, 63, 92
2, 37255, Note_on_c, 0, 65, 0
2, 37332, Control_c, 0, 64, 127
2, 37380, Note_on_c, 0, 72, 74
2, 37513, Note_on_c, 0, 79, 75
2, 37645, Note_on_c, 0, 84, 87
2, 37762, Note_on_c, 0, 72, 0
2, 37773, Note_on_c, 0, 72, 72
2, 37885, Note_on_c, 0, 79, 0
2, 37896, Note_on_c, 0, 79, 83
2, 37905, Note_on_c, 0, 56, 67
2, 38023, Note_on_c, 0, 84, 0
2, 38031, Note_on_c, 0, 60, 0
2, 38034, Note_on_c, 0, 65, 98
2, 38035, Note_on_c, 0, 84, 95
2, 38035, Note_on_c, 0, 60, 88
2, 38154, Note_on_c, 0, 63, 0
2, 38154, Note_on_c, 0, 72, 0
2, 38165, Note_on_c, 0, 72, 93
2, 38165, Note_on_c, 0, 63, 97
2, 38284, Note_on_c, 0, 79, 0
2, 38292, Note_on_c, 0, 79, 84
2, 38415, Note_on_c, 0, 84, 0
2, 38420, Note_on_c, 0, 84, 88
2, 38538, Note_on_c, 0, 44, 0
2, 38538, Note_on_c, 0, 72, 0
2, 38547, Note_on_c, 0, 44, 77
2, 38548, Note_on_c, 0, 72, 81
2, 38668, Note_on_c, 0, 79, 0
2, 38677, Note_on_c, 0, 79, 78
2, 38799, Note_on_c, 0, 63, 0
2, 38807, Note_on_c, 0, 56, 0
2, 38807, Note_on_c, 0, 60, 0
2, 38807, Note_on_c, 0, 84, 0
2, 38810, Note_on_c, 0, 63, 97
2, 38811, Note_on_c, 0, 84, 95
2, 38811, Note_on_c, 0, 56, 89
2, 38813, Note_on_c, 0, 60, 91
2, 38937, Note_on_c, 0, 72, 0
2, 38944, Note_on_c, 0, 72, 86
2, 39052, Note_on_c, 0, 65, 0
2, 39052, Note_on_c, 0, 79, 0
2, 39057, Note_on_c, 0, 65, 93
2, 39058, Note_on_c, 0, 79, 91
2, 39198, Note_on_c, 0, 84, 0
2, 39204, Note_on_c, 0, 84, 89
2, 39277, Note_on_c, 0, 79, 0
2, 39277, Note_on_c, 0, 56, 0
2, 39277, Control_c, 0, 64, 0
2, 39277, Note_on_c, 0, 67, 0
2, 39277, Note_on_c, 0, 44, 0
2, 39278, Note_on_c, 0, 72, 0
2, 39278, Note_on_c, 0, 65, 0
2, 39278, Note_on_c, 0, 60, 0
2, 39298, Note_on_c, 0, 63, 0
2, 39331, Note_on_c, 0, 60, 93
2, 39332, Note_on_c, 0, 44, 95
2, 39383, Control_c, 0, 64, 127
2, 39478, Note_on_c, 0, 72, 85
2, 39608, Note_on_c, 0, 79, 86
2, 39727, Note_on_c, 0, 67, 100
2, 39744, Note_on_c, 0, 84, 0
2, 39748, Note_on_c, 0, 84, 85
2, 39859, Note_on_c, 0, 72, 0
2, 39869, Note_on_c, 0, 72, 76
2, 39997, Note_on_c, 0, 79, 0
2, 40004, Note_on_c, 0, 79, 86
2, 40104, Note_on_c, 0, 60, 0
2, 40104, Note_on_c, 0, 67, 0
2, 40108, Note_on_c, 0, 67, 100
2, 40116, Note_on_c, 0, 60, 88
2, 40116, Note_on_c, 0, 56, 88
2, 40121, Control_c, 0, 64, 0
2, 40128, Note_on_c, 0, 84, 0
2, 40131, Note_on_c, 0, 84, 94
2, 40132, Note_on_c, 0, 44, 0
2, 40204, Control_c, 0, 64, 127
2, 40250, Note_on_c, 0, 72, 0
2, 40259, Note_on_c, 0, 72, 83
2, 40366, Note_on_c, 0, 79, 0
2, 40373, Note_on_c, 0, 79, 86
2, 40518, Note_on_c, 0, 87, 88
2, 40615, Note_on_c, 0, 44, 78
2, 40635, Note_on_c, 0, 86, 95
2, 40773, Note_on_c, 0, 87, 0
2, 40777, Note_on_c, 0, 87, 86
2, 40885, Control_c, 0, 64, 0
2, 40896, Note_on_c, 0, 56, 0
2, 40896, Note_on_c, 0, 60, 0
2, 40899, Note_on_c, 0, 94, 105
2, 40900, Note_on_c, 0, 56, 88
2, 40900, Note_on_c, 0, 60, 85
2, 40919, Control_c, 0, 64, 127
2, 41136, Note_on_c, 0, 63, 91
2, 41141, Note_on_c, 0, 67, 0
2, 41148, Note_on_c, 0, 67, 100
2, 41276, Note_on_c, 0, 68, 96
2, 41318, Note_on_c, 0, 94, 0
2, 41338, Note_on_c, 0, 56, 0
2, 41339, Note_on_c, 0, 60, 0
2, 41341, Note_on_c, 0, 67, 0
2, 41341, Note_on_c, 0, 84, 0
2, 41342, Control_c, 0, 64, 0
2, 41343, Note_on_c, 0, 63, 0
2, 41356, Note_on_c, 0, 72, 0
2, 41356, Note_on_c, 0, 79, 0
2, 41364, Note_on_c, 0, 44, 0
2, 41379, Note_on_c, 0, 87, 0
2, 41395, Note_on_c, 0, 86, 0
2, 41412, Note_on_c, 0, 70, 101
2, 41430, Note_on_c, 0, 53, 82
2, 41431, Note_on_c, 0, 43, 78
2, 41438, Note_on_c, 0, 50, 71
2, 41464, Control_c, 0, 64, 127
2, 41559, Note_on_c, 0, 74, 85
2, 41686, Note_on_c, 0, 77, 81
2, 41802, Note_on_c, 0, 68, 0
2, 41813, Note_on_c, 0, 68, 98
2, 41830, Note_on_c, 0, 86, 97
2, 41948, Note_on_c, 0, 74, 0
2, 41954, Note_on_c, 0, 74, 66
2, 42078, Note_on_c, 0, 77, 0
2, 42085, Note_on_c, 0, 77, 68
2, 42209, Note_on_c, 0, 86, 0
2, 42214, Note_on_c, 0, 67, 98
2, 42218, Note_on_c, 0, 62, 89
2, 42219, Note_on_c, 0, 86, 101
2, 42222, Note_on_c, 0, 55, 83
2, 42231, Note_on_c, 0, 58, 82
2, 42255, Note_on_c, 0, 53, 0
2, 42270, Note_on_c, 0, 43, 0
2, 42339, Note_on_c, 0, 74, 0
2, 42349, Note_on_c, 0, 74, 79
2, 42470, Note_on_c, 0, 77, 0
2, 42479, Note_on_c, 0, 77, 74
2, 42616, Note_on_c, 0, 86, 0
2, 42619, Note_on_c, 0, 65, 99
2, 42620, Note_on_c, 0, 86, 93
2, 42739, Note_on_c, 0, 74, 0
2, 42746, Note_on_c, 0, 74, 78
2, 42862, Note_on_c, 0, 77, 0
2, 42868, Note_on_c, 0, 77, 76
2, 42992, Note_on_c, 0, 55, 0
2, 42992, Note_on_c, 0, 58, 0
2, 42992, Note_on_c, 0, 86, 0
2, 42996, Note_on_c, 0, 63, 97
2, 43000, Note_on_c, 0, 55, 85
2, 43002, Note_on_c, 0, 86, 96
2, 43002, Note_on_c, 0, 58, 88
2, 43115, Note_on_c, 0, 74, 0
2, 43122, Note_on_c, 0, 74, 78
2, 43246, Note_on_c, 0, 65, 0
2, 43246, Note_on_c, 0, 77, 0
2, 43250, Note_on_c, 0, 77, 80
2, 43253, Note_on_c, 0, 65, 94
2, 43376, Note_on_c, 0, 86, 0
2, 43387, Note_on_c, 0, 86, 98
2, 43505, Note_on_c, 0, 50, 0
2, 43506, Note_on_c, 0, 62, 0
2, 43507, Note_on_c, 0, 55, 0
2, 43507, Note_on_c, 0, 58, 0
2, 43507, Note_on_c, 0, 70, 0
2, 43507, Note_on_c, 0, 65, 0
2, 43507, Note_on_c, 0, 77, 0
2, 43508, Note_on_c, 0, 63, 0
2, 43509, Note_on_c, 0, 74, 0
2, 43512, Control_c, 0, 64, 0
2, 43513, Note_on_c, 0, 58, 102
2, 43514, Note_on_c, 0, 68, 0
2, 43517, Note_on_c, 0, 55, 80
2, 43526, Note_on_c, 0, 48, 74
2, 43545, Note_on_c, 0, 67, 0
2, 43599, Control_c, 0, 64, 127
2, 43637, Note_on_c, 0, 86, 0
2, 43646, Note_on_c, 0, 75, 81
2, 43770, Note_on_c, 0, 79, 75
2, 43904, Note_on_c, 0, 87, 92
2, 44021, Note_on_c, 0, 75, 0
2, 44026, Note_on_c, 0, 75, 72
2, 44152, Note_on_c, 0, 79, 0
2, 44157, Note_on_c, 0, 79, 74
2, 44275, Note_on_c, 0, 87, 0
2, 44278, Note_on_c, 0, 56, 83
2, 44285, Note_on_c, 0, 87, 87
2, 44398, Note_on_c, 0, 58, 0
2, 44398, Note_on_c, 0, 75, 0
2, 44404, Note_on_c, 0, 75, 87
2, 44407, Note_on_c, 0, 58, 85
2, 44517, Control_c, 0, 64, 0
2, 44520, Note_on_c, 0, 48, 0
2, 44528, Note_on_c, 0, 79, 0
2, 44531, Note_on_c, 0, 48, 82
2, 44537, Note_on_c, 0, 56, 0
2, 44537, Note_on_c, 0, 79, 77
2, 44539, Note_on_c, 0, 55, 0
2, 44613, Control_c, 0, 64, 127
2, 44666, Note_on_c, 0, 87, 0
2, 44673, Note_on_c, 0, 87, 93
2, 44791, Note_on_c, 0, 86, 92
2, 44897, Note_on_c, 0, 87, 0
2, 44907, Note_on_c, 0, 87, 95
2, 45050, Note_on_c, 0, 79, 0
2, 45054, Note_on_c, 0, 48, 0
2, 45054, Note_on_c, 0, 46, 76
2, 45060, Control_c, 0, 64, 0
2, 45061, Note_on_c, 0, 82, 92
2, 45061, Note_on_c, 0, 79, 82
2, 45104, Note_on_c, 0, 75, 0
2, 45104, Control_c, 0, 64, 127
2, 45195, Note_on_c, 0, 55, 72
2, 45312, Note_on_c, 0, 58, 0
2, 45323, Note_on_c, 0, 75, 97
2, 45323, Note_on_c, 0, 58, 86
2, 45446, Note_on_c, 0, 77, 100
2, 45490, Control_c, 0, 64, 0
2, 45491, Note_on_c, 0, 46, 0
2, 45491, Note_on_c, 0, 55, 0
2, 45492, Note_on_c, 0, 75, 0
2, 45492, Note_on_c, 0, 82, 0
2, 45493, Note_on_c, 0, 79, 0
2, 45496, Note_on_c, 0, 86, 0
2, 45504, Note_on_c, 0, 87, 0
2, 45511, Note_on_c, 0, 58, 0
2, 45544, Note_on_c, 0, 77, 0
2, 45585, Note_on_c, 0, 79, 103
2, 45588, Note_on_c, 0, 75, 91
2, 45590, Note_on_c, 0, 72, 92
2, 45591, Note_on_c, 0, 45, 91
2, 45591, Note_on_c, 0, 67, 92
2, 45649, Control_c, 0, 64, 127
2, 45849, Note_on_c, 0, 72, 0
2, 45859, Note_on_c, 0, 72, 87
2, 45860, Note_on_c, 0, 57, 82
2, 45980, Note_on_c, 0, 67, 0
2, 45980, Note_on_c, 0, 79, 0
2, 45988, Note_on_c, 0, 67, 95
2, 45989, Note_on_c, 0, 79, 100
2, 45990, Note_on_c, 0, 63, 89
2, 45993, Note_on_c, 0, 60, 84
2, 46118, Note_on_c, 0, 67, 0
2, 46127, Note_on_c, 0, 67, 78
2, 46248, Note_on_c, 0, 72, 0
2, 46255, Note_on_c, 0, 72, 96
2, 46374, Note_on_c, 0, 77, 93
2, 46436, Control_c, 0, 64, 0
2, 46436, Note_on_c, 0, 63, 0
2, 46437, Note_on_c, 0, 67, 0
2, 46437, Note_on_c, 0, 60, 0
2, 46437, Note_on_c, 0, 72, 0
2, 46437, Note_on_c, 0, 75, 0
2, 46437, Note_on_c, 0, 57, 0
2, 46437, Note_on_c, 0, 45, 0
2, 46438, Note_on_c, 0, 79, 0
2, 46460, Note_on_c, 0, 77, 0
2, 46501, Note_on_c, 0, 45, 91
2, 46502, Note_on_c, 0, 75, 101
2, 46504, Note_on_c, 0, 72, 97
2, 46506, Note_on_c, 0, 67, 89
2, 46679, Control_c, 0, 64, 127
2, 46771, Note_on_c, 0, 67, 0
2, 46776, Note_on_c, 0, 67, 79
2, 46894, Note_on_c, 0, 72, 0
2, 46901, Note_on_c, 0, 72, 77
2, 47001, Note_on_c, 0, 75, 0
2, 47009, Note_on_c, 0, 63, 94
2, 47012, Note_on_c, 0, 75, 95
2, 47013, Note_on_c, 0, 57, 74
2, 47017, Note_on_c, 0, 60, 76
2, 47147, Note_on_c, 0, 72, 0
2, 47147, Note_on_c, 0, 75, 0
2, 47152, Note_on_c, 0, 75, 98
2, 47153, Note_on_c, 0, 72, 100
2, 47255, Note_on_c, 0, 45, 0
2, 47266, Note_on_c, 0, 45, 86
2, 47389, Note_on_c, 0, 77, 101
2, 47403, Note_on_c, 0, 51, 80
2, 47500, Note_on_c, 0, 57, 0
2, 47509, Note_on_c, 0, 57, 88
2, 47595, Control_c, 0, 64, 0
2, 47601, Note_on_c, 0, 67, 0
2, 47601, Note_on_c, 0, 63, 0
2, 47602, Note_on_c, 0, 72, 0
2, 47603, Note_on_c, 0, 75, 0
2, 47603, Note_on_c, 0, 60, 0
2, 47603, Note_on_c, 0, 45, 0
2, 47603, Note_on_c, 0, 51, 0
2, 47603, Note_on_c, 0, 77, 0
2, 47616, Note_on_c, 0, 57, 0
2, 47650, Note_on_c, 0, 82, 104
2, 47650, Note_on_c, 0, 70, 101
2, 47650, Note_on_c, 0, 75, 98
2, 47651, Note_on_c, 0, 44, 101
2, 47653, Note_on_c, 0, 72, 92
2, 47708, Control_c, 0, 64, 127
2, 47784, Note_on_c, 0, 70, 0
2, 47796, Note_on_c, 0, 70, 86
2, 47892, Note_on_c, 0, 72, 0
2, 47902, Note_on_c, 0, 72, 94
2, 47933, Note_on_c, 0, 56, 81
2, 48023, Note_on_c, 0, 82, 0
2, 48033, Note_on_c, 0, 82, 101
2, 48035, Note_on_c, 0, 67, 94
2, 48035, Note_on_c, 0, 63, 95
2, 48040, Note_on_c, 0, 60, 90
2, 48153, Note_on_c, 0, 70, 0
2, 48160, Note_on_c, 0, 70, 89
2, 48284, Note_on_c, 0, 72, 0
2, 48290, Note_on_c, 0, 72, 90
2, 48421, Note_on_c, 0, 74, 99
2, 48512, Control_c, 0, 64, 0
2, 48520, Note_on_c, 0, 75, 0
2, 48521, Note_on_c, 0, 82, 0
2, 48523, Note_on_c, 0, 70, 0
2, 48523, Note_on_c, 0, 63, 0
2, 48523, Note_on_c, 0, 56, 0
2, 48524, Note_on_c, 0, 72, 0
2, 48525, Note_on_c, 0, 74, 0
2, 48525, Note_on_c, 0, 60, 0
2, 48525, Note_on_c, 0, 67, 0
2, 48537, Note_on_c, 0, 44, 0
2, 48563, Note_on_c, 0, 75, 102
2, 48564, Note_on_c, 0, 72, 91
2, 48564, Note_on_c, 0, 68, 99
2, 48566, Note_on_c, 0, 44, 94
2, 48706, Control_c, 0, 64, 127
2, 48814, Note_on_c, 0, 68, 0
2, 48824, Note_on_c, 0, 68, 90
2, 48946, Note_on_c, 0, 67, 88
2, 49064, Note_on_c, 0, 63, 94
2, 49068, Note_on_c, 0, 60, 83
2, 49071, Note_on_c, 0, 65, 97
2, 49072, Note_on_c, 0, 56, 86
2, 49205, Note_on_c, 0, 72, 0
2, 49211, Note_on_c, 0, 72, 102
2, 49336, Note_on_c, 0, 44, 0
2, 49341, Note_on_c, 0, 44, 95
2, 49459, Note_on_c, 0, 75, 0
2, 49463, Note_on_c, 0, 75, 102
2, 49577, Note_on_c, 0, 43, 84
2, 49674, Note_on_c, 0, 68, 0
2, 49675, Note_on_c, 0, 56, 0
2, 49676, Note_on_c, 0, 43, 0
2, 49676, Note_on_c, 0, 65, 0
2, 49677, Note_on_c, 0, 67, 0
2, 49677, Note_on_c, 0, 44, 0
2, 49677, Note_on_c, 0, 75, 0
2, 49677, Note_on_c, 0, 60, 0
2, 49677, Note_on_c, 0, 63, 0
2, 49679, Note_on_c, 0, 68, 88
2, 49682, Control_c, 0, 64, 0
2, 49704, Note_on_c, 0, 72, 0
2, 49710, Note_on_c, 0, 72, 78
2, 49733, Note_on_c, 0, 77, 104
2, 49737, Note_on_c, 0, 41, 102
2, 49873, Control_c, 0, 64, 127
2, 49995, Note_on_c, 0, 75, 90
2, 50121, Control_c, 0, 64, 0
2, 50123, Note_on_c, 0, 41, 0
2, 50127, Note_on_c, 0, 72, 0
2, 50127, Note_on_c, 0, 77, 0
2, 50130, Note_on_c, 0, 75, 0
2, 50133, Note_on_c, 0, 72, 99
2, 50135, Note_on_c, 0, 68, 0
2, 50136, Note_on_c, 0, 77, 101
2, 50139, Note_on_c, 0, 68, 98
2, 50140, Note_on_c, 0, 63, 92
2, 50143, Note_on_c, 0, 60, 89
2, 50145, Note_on_c, 0, 56, 89
2, 50146, Note_on_c, 0, 53, 94
2, 50242, Note_on_c, 0, 60, 0
2, 50244, Note_on_c, 0, 72, 0
2, 50245, Note_on_c, 0, 53, 0
2, 50246, Note_on_c, 0, 77, 0
2, 50250, Note_on_c, 0, 63, 0
2, 50265, Note_on_c, 0, 56, 0
2, 50386, Note_on_c, 0, 75, 101
2, 50472, Note_on_c, 0, 68, 0
2, 50477, Note_on_c, 0, 75, 0
2, 50523, Note_on_c, 0, 41, 83
2, 50592, Note_on_c, 0, 41, 0
2, 50655, Note_on_c, 0, 75, 92
2, 50773, Note_on_c, 0, 43, 95
2, 50776, Note_on_c, 0, 77, 101
2, 50777, Note_on_c, 0, 70, 94
2, 50777, Note_on_c, 0, 74, 99
2, 51025, Note_on_c, 0, 75, 0
2, 51029, Note_on_c, 0, 75, 90
2, 51164, Note_on_c, 0, 70, 0
2, 51164, Note_on_c, 0, 74, 0
2, 51164, Note_on_c, 0, 77, 0
2, 51169, Note_on_c, 0, 77, 103
2, 51172, Note_on_c, 0, 62, 97
2, 51172, Note_on_c, 0, 65, 105
2, 51174, Note_on_c, 0, 70, 99
2, 51174, Note_on_c, 0, 55, 97
2, 51175, Note_on_c, 0, 74, 101
2, 51175, Note_on_c, 0, 58, 101
2, 51215, Note_on_c, 0, 75, 0
2, 51216, Note_on_c, 0, 43, 0
2, 51226, Note_on_c, 0, 62, 0
2, 51264, Note_on_c, 0, 70, 0
2, 51279, Note_on_c, 0, 74, 0
2, 51287, Note_on_c, 0, 55, 0
2, 51294, Note_on_c, 0, 58, 0
2, 51302, Note_on_c, 0, 65, 0
2, 51302, Note_on_c, 0, 77, 0
2, 51428, Note_on_c, 0, 79, 107
2, 51429, Note_on_c, 0, 67, 101
2, 51545, Note_on_c, 0, 43, 89
2, 51594, Note_on_c, 0, 67, 0
2, 51667, Note_on_c, 0, 43, 0
2, 51678, Note_on_c, 0, 79, 0
2, 51689, Note_on_c, 0, 79, 98
2, 51692, Note_on_c, 0, 67, 90
2, 51742, Note_on_c, 0, 67, 0
2, 51827, Note_on_c, 0, 80, 107
2, 51827, Note_on_c, 0, 44, 94
2, 51828, Note_on_c, 0, 68, 98
2, 51829, Note_on_c, 0, 72, 97
2, 51831, Note_on_c, 0, 75, 89
2, 52032, Note_on_c, 0, 79, 0
2, 52106, Note_on_c, 0, 51, 78
2, 52116, Control_c, 0, 64, 127
2, 52192, Note_on_c, 0, 55, 88
2, 52308, Note_on_c, 0, 56, 89
2, 52364, Note_on_c, 0, 58, 74
2, 52421, Note_on_c, 0, 60, 89
2, 52488, Note_on_c, 0, 62, 91
2, 52551, Note_on_c, 0, 63, 94
2, 52597, Note_on_c, 0, 65, 83
2, 52649, Note_on_c, 0, 67, 71
2, 52669, Note_on_c, 0, 68, 0
2, 52680, Note_on_c, 0, 68, 87
2, 52720, Note_on_c, 0, 70, 91
2, 52746, Note_on_c, 0, 72, 0
2, 52753, Note_on_c, 0, 72, 97
2, 52826, Note_on_c, 0, 80, 0
2, 52826, Control_c, 0, 64, 0
2, 52828, Note_on_c, 0, 56, 0
2, 52828, Note_on_c, 0, 75, 0
2, 52831, Note_on_c, 0, 68, 0
2, 52831, Note_on_c, 0, 60, 0
2, 52832, Note_on_c, 0, 51, 0
2, 52832, Note_on_c, 0, 63, 0
2, 52832, Note_on_c, 0, 55, 0
2, 52833, Note_on_c, 0, 67, 0
2, 52833, Note_on_c, 0, 58, 0
2, 52833, Note_on_c, 0, 44, 0
2, 52833, Note_on_c, 0, 72, 0
2, 52834, Note_on_c, 0, 70, 0
2, 52835, Note_on_c, 0, 62, 0
2, 52861, Note_on_c, 0, 65, 0
2, 52864, Note_on_c, 0, 74, 107
2, 52865, Note_on_c, 0, 53, 99
2, 52865, Note_on_c, 0, 65, 102
2, 52866, Note_on_c, 0, 43, 96
2, 52866, Note_on_c, 0, 50, 94
2, 52867, Note_on_c, 0, 71, 97
2, 52871, Note_on_c, 0, 67, 94
2, 53068, Control_c, 0, 64, 127
2, 53222, Note_on_c, 0, 43, 0
2, 53228, Note_on_c, 0, 43, 91
2, 53230, Note_on_c, 0, 65, 0
2, 53310, Note_on_c, 0, 38, 88
2, 53322, Note_on_c, 0, 53, 0
2, 53401, Note_on_c, 0, 78, 105
2, 53402, Note_on_c, 0, 31, 92
2, 53502, Note_on_c, 0, 67, 0
2, 53503, Note_on_c, 0, 50, 0
2, 53505, Note_on_c, 0, 38, 0
2, 53505, Note_on_c, 0, 74, 0
2, 53506, Note_on_c, 0, 31, 0
2, 53506, Note_on_c, 0, 43, 0
2, 53509, Control_c, 0, 64, 0
2, 53510, Note_on_c, 0, 78, 0
2, 53521, Note_on_c, 0, 71, 0
2, 53536, Note_on_c, 0, 77, 101
2, 53662, Note_on_c, 0, 78, 104
2, 53718, Note_on_c, 0, 78, 0
2, 53721, Note_on_c, 0, 77, 0
2, 53790, Note_on_c, 0, 80, 101
2, 53931, Note_on_c, 0, 82, 106
2, 53934, Note_on_c, 0, 78, 102
2, 53935, Note_on_c, 0, 75, 95
2, 53936, Note_on_c, 0, 47, 96
2, 53939, Note_on_c, 0, 35, 92
2, 53967, Control_c, 0, 64, 127
2, 54097, Note_on_c, 0, 80, 0
2, 54186, Note_on_c, 0, 58, 100
2, 54190, Note_on_c, 0, 54, 85
2, 54193, Note_on_c, 0, 51, 89
2, 54243, Note_on_c, 0, 35, 0
2, 54247, Note_on_c, 0, 47, 0
2, 54248, Note_on_c, 0, 82, 0
2, 54249, Note_on_c, 0, 75, 0
2, 54249, Note_on_c, 0, 51, 0
2, 54249, Note_on_c, 0, 58, 0
2, 54250, Note_on_c, 0, 54, 0
2, 54250, Note_on_c, 0, 78, 0
2, 54255, Control_c, 0, 64, 0
2, 54326, Note_on_c, 0, 78, 101
2, 54326, Note_on_c, 0, 75, 87
2, 54348, Note_on_c, 0, 47, 58
2, 54375, Note_on_c, 0, 75, 0
2, 54380, Note_on_c, 0, 78, 0
2, 54397, Note_on_c, 0, 47, 0
2, 54447, Note_on_c, 0, 80, 99
2, 54450, Note_on_c, 0, 77, 94
2, 54513, Note_on_c, 0, 80, 0
2, 54517, Note_on_c, 0, 77, 0
2, 54578, Note_on_c, 0, 82, 103
2, 54581, Note_on_c, 0, 78, 99
2, 54585, Note_on_c, 0, 47, 95
2, 54612, Control_c, 0, 64, 127
2, 54708, Note_on_c, 0, 54, 92
2, 54709, Note_on_c, 0, 58, 90
2, 54712, Note_on_c, 0, 51, 83
2, 54766, Control_c, 0, 64, 0
2, 54767, Note_on_c, 0, 47, 0
2, 54769, Note_on_c, 0, 54, 0
2, 54769, Note_on_c, 0, 58, 0
2, 54770, Note_on_c, 0, 51, 0
2, 54775, Note_on_c, 0, 78, 0
2, 54777, Note_on_c, 0, 82, 0
2, 54854, Note_on_c, 0, 78, 101
2, 54855, Note_on_c, 0, 75, 89
2, 54897, Note_on_c, 0, 75, 0
2, 54900, Note_on_c, 0, 78, 0
2, 54969, Note_on_c, 0, 49, 99
2, 54970, Note_on_c, 0, 80, 103
2, 54971, Note_on_c, 0, 37, 95
2, 54974, Note_on_c, 0, 77, 99
2, 54996, Control_c, 0, 64, 127
2, 55106, Note_on_c, 0, 82, 102
2, 55225, Note_on_c, 0, 61, 97
2, 55229, Note_on_c, 0, 53, 79
2, 55230, Note_on_c, 0, 56, 75
2, 55344, Note_on_c, 0, 73, 106
2, 55349, Note_on_c, 0, 77, 0
2, 55349, Note_on_c, 0, 80, 0
2, 55356, Note_on_c, 0, 85, 108
2, 55360, Note_on_c, 0, 77, 90
2, 55360, Note_on_c, 0, 80, 94
2, 55363, Control_c, 0, 64, 0
2, 55369, Note_on_c, 0, 53, 0
2, 55371, Note_on_c, 0, 56, 0
2, 55372, Note_on_c, 0, 49, 0
2, 55373, Note_on_c, 0, 82, 0
2, 55374, Note_on_c, 0, 37, 0
2, 55375, Note_on_c, 0, 61, 0
2, 55378, Note_on_c, 0, 49, 91
2, 55424, Note_on_c, 0, 85, 0
2, 55426, Note_on_c, 0, 77, 0
2, 55434, Note_on_c, 0, 73, 0
2, 55434, Note_on_c, 0, 80, 0
2, 55441, Note_on_c, 0, 49, 0
2, 55616, Note_on_c, 0, 80, 103
2, 55620, Note_on_c, 0, 68, 103
2, 55622, Note_on_c, 0, 49, 88
2, 55666, Note_on_c, 0, 68, 0
2, 55747, Note_on_c, 0, 61, 87
2, 55750, Note_on_c, 0, 56, 87
2, 55752, Note_on_c, 0, 53, 65
2, 55808, Note_on_c, 0, 61, 0
2, 55814, Note_on_c, 0, 56, 0
2, 55814, Note_on_c, 0, 49, 0
2, 55818, Note_on_c, 0, 80, 0
2, 55833, Note_on_c, 0, 53, 0
2, 55886, Note_on_c, 0, 80, 106
2, 55890, Note_on_c, 0, 77, 91
2, 55890, Note_on_c, 0, 68, 103
2, 55890, Note_on_c, 0, 73, 100
2, 55933, Control_c, 0, 64, 127
2, 56009, Note_on_c, 0, 46, 103
2, 56012, Note_on_c, 0, 34, 95
2, 56273, Note_on_c, 0, 56, 88
2, 56274, Note_on_c, 0, 53, 82
2, 56336, Control_c, 0, 64, 0
2, 56337, Note_on_c, 0, 34, 0
2, 56337, Note_on_c, 0, 80, 0
2, 56337, Note_on_c, 0, 68, 0
2, 56338, Note_on_c, 0, 73, 0
2, 56338, Note_on_c, 0, 77, 0
2, 56339, Note_on_c, 0, 46, 0
2, 56342, Note_on_c, 0, 56, 0
2, 56342, Note_on_c, 0, 53, 0
2, 56412, Note_on_c, 0, 77, 98
2, 56412, Note_on_c, 0, 73, 97
2, 56414, Note_on_c, 0, 46, 91
2, 56537, Note_on_c, 0, 78, 100
2, 56542, Note_on_c, 0, 75, 93
2, 56563, Note_on_c, 0, 46, 0
2, 56570, Note_on_c, 0, 73, 0
2, 56578, Note_on_c, 0, 77, 0
2, 56587, Note_on_c, 0, 78, 0
2, 56589, Note_on_c, 0, 75, 0
2, 56666, Note_on_c, 0, 80, 105
2, 56675, Note_on_c, 0, 77, 98
2, 56677, Note_on_c, 0, 46, 96
2, 56709, Control_c, 0, 64, 127
2, 56804, Note_on_c, 0, 53, 93
2, 56805, Note_on_c, 0, 56, 92
2, 56928, Note_on_c, 0, 73, 98
2, 56946, Note_on_c, 0, 46, 0
2, 56947, Note_on_c, 0, 53, 0
2, 56948, Note_on_c, 0, 56, 0
2, 56949, Note_on_c, 0, 80, 0
2, 56949, Note_on_c, 0, 77, 0
2, 56950, Control_c, 0, 64, 0
2, 57036, Note_on_c, 0, 73, 0
2, 57065, Note_on_c, 0, 80, 106
2, 57066, Note_on_c, 0, 39, 91
2, 57066, Note_on_c, 0, 51, 93
2, 57085, Control_c, 0, 64, 127
2, 57197, Note_on_c, 0, 78, 99
2, 57315, Note_on_c, 0, 51, 0
2, 57321, Note_on_c, 0, 51, 74
2, 57323, Note_on_c, 0, 77, 95
2, 57438, Note_on_c, 0, 78, 0
2, 57449, Note_on_c, 0, 78, 103
2, 57450, Note_on_c, 0, 61, 98
2, 57451, Note_on_c, 0, 58, 91
2, 57457, Note_on_c, 0, 54, 93
2, 57666, Note_on_c, 0, 80, 0
2, 57667, Note_on_c, 0, 78, 0
2, 57668, Note_on_c, 0, 54, 0
2, 57668, Note_on_c, 0, 61, 0
2, 57670, Note_on_c, 0, 58, 0
2, 57671, Note_on_c, 0, 77, 0
2, 57672, Control_c, 0, 64, 0
2, 57672, Note_on_c, 0, 39, 0
2, 57699, Note_on_c, 0, 51, 0
2, 57709, Note_on_c, 0, 51, 98
2, 57710, Note_on_c, 0, 75, 97
2, 57710, Note_on_c, 0, 39, 92
2, 57753, Control_c, 0, 64, 127
2, 57834, Note_on_c, 0, 78, 102
2, 57959, Note_on_c, 0, 49, 90
2, 57960, Note_on_c, 0, 37, 87
2, 57963, Note_on_c, 0, 80, 99
2, 57968, Note_on_c, 0, 51, 0
2, 57974, Note_on_c, 0, 39, 0
2, 57975, Note_on_c, 0, 75, 0
2, 57975, Note_on_c, 0, 78, 0
2, 57977, Control_c, 0, 64, 0
2, 57994, Note_on_c, 0, 49, 0
2, 57999, Note_on_c, 0, 37, 0
2, 58037, Note_on_c, 0, 80, 0
2, 58088, Note_on_c, 0, 78, 102
2, 58089, Note_on_c, 0, 82, 103
2, 58089, Note_on_c, 0, 75, 103
2, 58091, Note_on_c, 0, 47, 103
2, 58092, Note_on_c, 0, 35, 92
2, 58122, Control_c, 0, 64, 127
2, 58347, Note_on_c, 0, 58, 101
2, 58352, Note_on_c, 0, 54, 83
2, 58354, Note_on_c, 0, 51, 86
2, 58416, Control_c, 0, 64, 0
2, 58417, Note_on_c, 0, 82, 0
2, 58417, Note_on_c, 0, 75, 0
2, 58417, Note_on_c, 0, 51, 0
2, 58417, Note_on_c, 0, 35, 0
2, 58418, Note_on_c, 0, 78, 0
2, 58418, Note_on_c, 0, 58, 0
2, 58418, Note_on_c, 0, 47, 0
2, 58444, Note_on_c, 0, 54, 0
2, 58494, Note_on_c, 0, 47, 88
2, 58495, Note_on_c, 0, 75, 94
2, 58495, Note_on_c, 0, 78, 99
2, 58537, Note_on_c, 0, 47, 0
2, 58548, Note_on_c, 0, 75, 0
2, 58553, Note_on_c, 0, 78, 0
2, 58617, Note_on_c, 0, 80, 103
2, 58625, Note_on_c, 0, 77, 90
2, 58677, Note_on_c, 0, 77, 0
2, 58678, Note_on_c, 0, 80, 0
2, 58755, Note_on_c, 0, 82, 105
2, 58755, Note_on_c, 0, 47, 91
2, 58757, Note_on_c, 0, 78, 101
2, 58769, Note_on_c, 0, 75, 71
2, 58775, Note_on_c, 0, 75, 0
2, 58782, Control_c, 0, 64, 127
2, 58885, Note_on_c, 0, 54, 89
2, 58886, Note_on_c, 0, 58, 93
2, 58886, Note_on_c, 0, 51, 80
2, 58976, Control_c, 0, 64, 0
2, 58978, Note_on_c, 0, 82, 0
2, 58978, Note_on_c, 0, 47, 0
2, 58980, Note_on_c, 0, 58, 0
2, 58980, Note_on_c, 0, 51, 0
2, 58980, Note_on_c, 0, 54, 0
2, 59013, Note_on_c, 0, 78, 0
2, 59020, Note_on_c, 0, 78, 99
2, 59021, Note_on_c, 0, 75, 91
2, 59061, Note_on_c, 0, 75, 0
2, 59085, Note_on_c, 0, 78, 0
2, 59142, Note_on_c, 0, 49, 100
2, 59142, Note_on_c, 0, 80, 106
2, 59145, Note_on_c, 0, 37, 91
2, 59148, Note_on_c, 0, 77, 95
2, 59151, Control_c, 0, 64, 127
2, 59272, Note_on_c, 0, 78, 97
2, 59275, Note_on_c, 0, 82, 101
2, 59404, Note_on_c, 0, 49, 0
2, 59406, Note_on_c, 0, 53, 84
2, 59407, Note_on_c, 0, 61, 92
2, 59408, Note_on_c, 0, 56, 75
2, 59409, Note_on_c, 0, 49, 78
2, 59508, Control_c, 0, 64, 0
2, 59513, Note_on_c, 0, 53, 0
2, 59514, Note_on_c, 0, 37, 0
2, 59516, Note_on_c, 0, 77, 0
2, 59516, Note_on_c, 0, 61, 0
2, 59516, Note_on_c, 0, 82, 0
2, 59516, Note_on_c, 0, 78, 0
2, 59516, Note_on_c, 0, 56, 0
2, 59535, Note_on_c, 0, 49, 0
2, 59535, Note_on_c, 0, 80, 0
2, 59537, Note_on_c, 0, 73, 98
2, 59539, Note_on_c, 0, 85, 103
2, 59542, Note_on_c, 0, 80, 97
2, 59544, Note_on_c, 0, 49, 91
2, 59589, Control_c, 0, 64, 127
2, 59675, Control_c, 0, 64, 0
2, 59680, Note_on_c, 0, 49, 0
2, 59684, Note_on_c, 0, 80, 0
2, 59684, Note_on_c, 0, 85, 0
2, 59696, Note_on_c, 0, 73, 0
2, 59793, Note_on_c, 0, 80, 102
2, 59794, Note_on_c, 0, 68, 101
2, 59800, Note_on_c, 0, 49, 88
2, 59819, Control_c, 0, 64, 127
2, 59932, Note_on_c, 0, 56, 93
2, 59934, Note_on_c, 0, 61, 93
2, 59935, Note_on_c, 0, 53, 63
2, 59942, Note_on_c, 0, 53, 0
2, 60037, Note_on_c, 0, 49, 0
2, 60038, Note_on_c, 0, 61, 0
2, 60038, Note_on_c, 0, 68, 0
2, 60039, Note_on_c, 0, 56, 0
2, 60046, Control_c, 0, 64, 0
2, 60057, Note_on_c, 0, 80, 0
2, 60068, Note_on_c, 0, 80, 104
2, 60069, Note_on_c, 0, 68, 102
2, 60075, Note_on_c, 0, 75, 89
2, 60078, Note_on_c, 0, 70, 94
2, 60126, Control_c, 0, 64, 127
2, 60183, Note_on_c, 0, 51, 96
2, 60183, Note_on_c, 0, 39, 90
2, 60441, Note_on_c, 0, 51, 0
2, 60446, Note_on_c, 0, 51, 80
2, 60572, Note_on_c, 0, 68, 0
2, 60576, Note_on_c, 0, 68, 100
2, 60578, Note_on_c, 0, 58, 96
2, 60582, Note_on_c, 0, 63, 97
2, 60708, Note_on_c, 0, 56, 91
2, 60833, Note_on_c, 0, 51, 0
2, 60842, Note_on_c, 0, 51, 86
2, 60849, Note_on_c, 0, 79, 100
2, 60851, Note_on_c, 0, 67, 92
2, 60951, Note_on_c, 0, 46, 88
2, 60963, Note_on_c, 0, 80, 0
2, 60971, Note_on_c, 0, 68, 0
2, 60973, Note_on_c, 0, 80, 102
2, 60976, Note_on_c, 0, 68, 94
2, 61014, Note_on_c, 0, 56, 0
2, 61015, Note_on_c, 0, 58, 0
2, 61015, Note_on_c, 0, 63, 0
2, 61016, Note_on_c, 0, 80, 0
2, 61017, Note_on_c, 0, 51, 0
2, 61018, Note_on_c, 0, 46, 0
2, 61018, Note_on_c, 0, 39, 0
2, 61018, Note_on_c, 0, 75, 0
2, 61019, Note_on_c, 0, 68, 0
2, 61019, Note_on_c, 0, 79, 0
2, 61019, Note_on_c, 0, 67, 0
2, 61022, Control_c, 0, 64, 0
2, 61025, Note_on_c, 0, 70, 0
2, 61104, Note_on_c, 0, 82, 104
2, 61105, Note_on_c, 0, 70, 102
2, 61105, Note_on_c, 0, 75, 94
2, 61106, Note_on_c, 0, 39, 91
2, 61107, Note_on_c, 0, 79, 88
2, 61111, Note_on_c, 0, 27, 93
2, 61125, Control_c, 0, 64, 127
2, 61355, Note_on_c, 0, 27, 0
2, 61355, Note_on_c, 0, 39, 0
2, 61363, Note_on_c, 0, 27, 76
2, 61364, Note_on_c, 0, 39, 72
2, 61468, Note_on_c, 0, 58, 101
2, 61472, Note_on_c, 0, 55, 96
2, 61474, Note_on_c, 0, 46, 88
2, 61480, Note_on_c, 0, 51, 76
2, 61593, Note_on_c, 0, 27, 0
2, 61593, Note_on_c, 0, 39, 0
2, 61604, Note_on_c, 0, 27, 82
2, 61604, Note_on_c, 0, 39, 78
2, 61662, Note_on_c, 0, 51, 0
2, 61668, Note_on_c, 0, 51, 83
2, 61739, Note_on_c, 0, 78, 105
2, 61740, Note_on_c, 0, 66, 102
2, 61854, Note_on_c, 0, 39, 0
2, 61859, Note_on_c, 0, 39, 79
2, 61863, Note_on_c, 0, 77, 101
2, 61864, Note_on_c, 0, 65, 99
2, 61977, Note_on_c, 0, 66, 0
2, 61977, Note_on_c, 0, 78, 0
2, 61982, Note_on_c, 0, 78, 107
2, 61985, Note_on_c, 0, 55, 0
2, 61986, Note_on_c, 0, 49, 97
2, 61988, Note_on_c, 0, 37, 94
2, 61988, Note_on_c, 0, 58, 0
2, 61988, Note_on_c, 0, 66, 101
2, 61989, Note_on_c, 0, 51, 0
2, 61989, Note_on_c, 0, 82, 0
2, 61989, Control_c, 0, 64, 0
2, 61989, Note_on_c, 0, 75, 0
2, 61989, Note_on_c, 0, 77, 0
2, 61989, Note_on_c, 0, 65, 0
2, 61990, Note_on_c, 0, 79, 0
2, 61990, Note_on_c, 0, 39, 0
2, 61990, Note_on_c, 0, 46, 0
2, 61990, Note_on_c, 0, 70, 0
2, 62000, Note_on_c, 0, 27, 0
2, 62022, Note_on_c, 0, 49, 0
2, 62025, Note_on_c, 0, 37, 0
2, 62039, Note_on_c, 0, 66, 0
2, 62046, Note_on_c, 0, 78, 0
2, 62114, Note_on_c, 0, 80, 103
2, 62118, Note_on_c, 0, 68, 101
2, 62151, Note_on_c, 0, 78, 54
2, 62159, Note_on_c, 0, 68, 0
2, 62160, Note_on_c, 0, 80, 0
2, 62177, Note_on_c, 0, 78, 0
2, 62251, Note_on_c, 0, 47, 104
2, 62256, Note_on_c, 0, 70, 107
2, 62256, Note_on_c, 0, 75, 102
2, 62257, Note_on_c, 0, 35, 93
2, 62257, Note_on_c, 0, 82, 104
2, 62259, Note_on_c, 0, 78, 85
2, 62269, Control_c, 0, 64, 127
2, 62503, Note_on_c, 0, 58, 97
2, 62508, Note_on_c, 0, 51, 88
2, 62509, Note_on_c, 0, 54, 88
2, 62579, Control_c, 0, 64, 0
2, 62580, Note_on_c, 0, 75, 0
2, 62581, Note_on_c, 0, 51, 0
2, 62581, Note_on_c, 0, 70, 0
2, 62581, Note_on_c, 0, 82, 0
2, 62581, Note_on_c, 0, 35, 0
2, 62582, Note_on_c, 0, 54, 0
2, 62584, Note_on_c, 0, 47, 0
2, 62584, Note_on_c, 0, 58, 0
2, 62615, Note_on_c, 0, 78, 0
2, 62653, Note_on_c, 0, 78, 102
2, 62654, Note_on_c, 0, 75, 94
2, 62655, Note_on_c, 0, 47, 90
2, 62698, Note_on_c, 0, 75, 0
2, 62702, Note_on_c, 0, 78, 0
2, 62778, Note_on_c, 0, 80, 102
2, 62779, Note_on_c, 0, 59, 71
2, 62780, Note_on_c, 0, 77, 96
2, 62807, Note_on_c, 0, 47, 0
2, 62834, Note_on_c, 0, 77, 0
2, 62839, Note_on_c, 0, 80, 0
2, 62883, Note_on_c, 0, 59, 0
2, 62906, Note_on_c, 0, 82, 102
2, 62910, Note_on_c, 0, 78, 98
2, 62910, Note_on_c, 0, 47, 96
2, 62937, Control_c, 0, 64, 127
2, 63029, Note_on_c, 0, 47, 0
2, 63039, Note_on_c, 0, 47, 80
2, 63040, Note_on_c, 0, 58, 95
2, 63041, Note_on_c, 0, 54, 90
2, 63041, Note_on_c, 0, 51, 87
2, 63103, Control_c, 0, 64, 0
2, 63116, Note_on_c, 0, 47, 0
2, 63116, Note_on_c, 0, 82, 0
2, 63117, Note_on_c, 0, 58, 0
2, 63117, Note_on_c, 0, 54, 0
2, 63118, Note_on_c, 0, 51, 0
2, 63160, Note_on_c, 0, 78, 0
2, 63167, Note_on_c, 0, 78, 100
2, 63169, Note_on_c, 0, 75, 90
2, 63217, Note_on_c, 0, 78, 0
2, 63267, Note_on_c, 0, 75, 0
2, 63296, Note_on_c, 0, 80, 102
2, 63300, Note_on_c, 0, 77, 95
2, 63301, Note_on_c, 0, 49, 98
2, 63303, Note_on_c, 0, 37, 92
2, 63321, Control_c, 0, 64, 127
2, 63421, Note_on_c, 0, 82, 104
2, 63552, Note_on_c, 0, 49, 0
2, 63561, Note_on_c, 0, 49, 91
2, 63674, Note_on_c, 0, 80, 0
2, 63684, Note_on_c, 0, 73, 108
2, 63684, Note_on_c, 0, 85, 107
2, 63685, Note_on_c, 0, 80, 102
2, 63687, Note_on_c, 0, 61, 103
2, 63691, Note_on_c, 0, 53, 93
2, 63692, Note_on_c, 0, 56, 96
2, 63730, Control_c, 0, 64, 0
2, 63731, Note_on_c, 0, 77, 0
2, 63731, Note_on_c, 0, 80, 0
2, 63733, Note_on_c, 0, 49, 0
2, 63734, Note_on_c, 0, 82, 0
2, 63735, Note_on_c, 0, 85, 0
2, 63735, Note_on_c, 0, 73, 0
2, 63739, Note_on_c, 0, 37, 0
2, 63767, Note_on_c, 0, 56, 0
2, 63774, Note_on_c, 0, 61, 0
2, 63782, Note_on_c, 0, 53, 0
2, 63947, Note_on_c, 0, 47, 105
2, 63947, Note_on_c, 0, 80, 106
2, 63948, Note_on_c, 0, 68, 103
2, 63948, Note_on_c, 0, 35, 97
2, 63988, Note_on_c, 0, 47, 0
2, 63990, Note_on_c, 0, 35, 0
2, 64020, Note_on_c, 0, 68, 0
2, 64051, Note_on_c, 0, 80, 0
2, 64215, Note_on_c, 0, 80, 108
2, 64217, Note_on_c, 0, 68, 105
2, 64218, Note_on_c, 0, 46, 104
2, 64221, Note_on_c, 0, 73, 103
2, 64221, Note_on_c, 0, 77, 95
2, 64223, Note_on_c, 0, 34, 98
2, 64258, Control_c, 0, 64, 127
2, 64473, Note_on_c, 0, 46, 0
2, 64479, Note_on_c, 0, 46, 73
2, 64615, Note_on_c, 0, 53, 90
2, 64615, Note_on_c, 0, 56, 85
2, 64616, Note_on_c, 0, 61, 98
2, 64727, Note_on_c, 0, 73, 0
2, 64727, Note_on_c, 0, 77, 0
2, 64734, Note_on_c, 0, 46, 0
2, 64734, Note_on_c, 0, 56, 0
2, 64734, Note_on_c, 0, 77, 97
2, 64738, Note_on_c, 0, 58, 82
2, 64738, Note_on_c, 0, 73, 89
2, 64738, Note_on_c, 0, 65, 91
2, 64738, Note_on_c, 0, 56, 76
2, 64739, Note_on_c, 0, 46, 84
2, 64859, Note_on_c, 0, 78, 105
2, 64860, Note_on_c, 0, 66, 98
2, 64980, Note_on_c, 0, 68, 0
2, 64980, Note_on_c, 0, 80, 0
2, 64986, Note_on_c, 0, 80, 107
2, 64990, Note_on_c, 0, 68, 104
2, 64995, Note_on_c, 0, 46, 0
2, 65006, Note_on_c, 0, 46, 89
2, 65103, Note_on_c, 0, 56, 0
2, 65113, Note_on_c, 0, 56, 91
2, 65233, Note_on_c, 0, 61, 0
2, 65233, Note_on_c, 0, 73, 0
2, 65241, Note_on_c, 0, 61, 93
2, 65242, Note_on_c, 0, 73, 108
2, 65284, Note_on_c, 0, 34, 0
2, 65284, Note_on_c, 0, 61, 0
2, 65285, Note_on_c, 0, 66, 0
2, 65285, Note_on_c, 0, 80, 0
2, 65286, Note_on_c, 0, 77, 0
2, 65286, Note_on_c, 0, 53, 0
2, 65286, Note_on_c, 0, 65, 0
2, 65287, Note_on_c, 0, 78, 0
2, 65288, Note_on_c, 0, 46, 0
2, 65288, Note_on_c, 0, 68, 0
2, 65290, Note_on_c, 0, 73, 0
2, 65292, Control_c, 0, 64, 0
2, 65295, Note_on_c, 0, 58, 0
2, 65303, Note_on_c, 0, 56, 0
2, 65374, Note_on_c, 0, 85, 109
2, 65375, Note_on_c, 0, 73, 104
2, 65376, Note_on_c, 0, 39, 90
2, 65376, Note_on_c, 0, 51, 92
2, 65379, Control_c, 0, 64, 127
2, 65506, Note_on_c, 0, 83, 100
2, 65508, Note_on_c, 0, 71, 96
2, 65625, Note_on_c, 0, 51, 0
2, 65629, Note_on_c, 0, 82, 105
2, 65629, Note_on_c, 0, 70, 100
2, 65635, Note_on_c, 0, 51, 86
2, 65756, Note_on_c, 0, 73, 0
2, 65760, Note_on_c, 0, 78, 106
2, 65763, Note_on_c, 0, 61, 94
2, 65764, Note_on_c, 0, 66, 105
2, 65764, Note_on_c, 0, 73, 88
2, 65767, Note_on_c, 0, 54, 89
2, 65767, Note_on_c, 0, 58, 92
2, 66032, Note_on_c, 0, 77, 100
2, 66034, Note_on_c, 0, 65, 102
2, 66147, Note_on_c, 0, 51, 0
2, 66151, Note_on_c, 0, 51, 87
2, 66301, Note_on_c, 0, 78, 0
2, 66309, Note_on_c, 0, 66, 0
2, 66309, Note_on_c, 0, 71, 0
2, 66312, Note_on_c, 0, 78, 109
2, 66319, Note_on_c, 0, 66, 91
2, 66319, Note_on_c, 0, 71, 91
2, 66321, Note_on_c, 0, 75, 84
2, 66322, Control_c, 0, 64, 0
2, 66322, Note_on_c, 0, 83, 0
2, 66323, Note_on_c, 0, 54, 0
2, 66323, Note_on_c, 0, 82, 0
2, 66323, Note_on_c, 0, 73, 0
2, 66323, Note_on_c, 0, 65, 0
2, 66323, Note_on_c, 0, 61, 0
2, 66324, Note_on_c, 0, 85, 0
2, 66324, Note_on_c, 0, 58, 0
2, 66324, Note_on_c, 0, 51, 0
2, 66324, Note_on_c, 0, 39, 0
2, 66325, Note_on_c, 0, 70, 0
2, 66325, Note_on_c, 0, 77, 0
2, 66428, Note_on_c, 0, 32, 92
2, 66428, Note_on_c, 0, 44, 100
2, 66432, Control_c, 0, 64, 127
2, 66685, Note_on_c, 0, 44, 0
2, 66695, Note_on_c, 0, 44, 81
2, 66819, Note_on_c, 0, 54, 88
2, 66819, Note_on_c, 0, 51, 83
2, 66820, Note_on_c, 0, 59, 92
2, 66946, Note_on_c, 0, 75, 0
2, 66946, Note_on_c, 0, 78, 0
2, 66956, Note_on_c, 0, 75, 98
2, 66956, Note_on_c, 0, 70, 99
2, 66957, Note_on_c, 0, 82, 106
2, 66957, Note_on_c, 0, 78, 90
2, 67200, Note_on_c, 0, 32, 0
2, 67200, Note_on_c, 0, 44, 0
2, 67205, Note_on_c, 0, 44, 92
2, 67206, Note_on_c, 0, 32, 82
2, 67207, Note_on_c, 0, 82, 0
2, 67212, Note_on_c, 0, 82, 106
2, 67449, Control_c, 0, 64, 0
2, 67455, Note_on_c, 0, 73, 92
2, 67467, Note_on_c, 0, 77, 97
2, 67467, Note_on_c, 0, 59, 0
2, 67468, Note_on_c, 0, 44, 0
2, 67468, Note_on_c, 0, 32, 0
2, 67468, Note_on_c, 0, 51, 0
2, 67469, Note_on_c, 0, 54, 0
2, 67469, Note_on_c, 0, 75, 0
2, 67469, Note_on_c, 0, 70, 0
2, 67469, Note_on_c, 0, 82, 0
2, 67470, Note_on_c, 0, 80, 97
2, 67476, Note_on_c, 0, 66, 0
2, 67477, Note_on_c, 0, 83, 103
2, 67483, Note_on_c, 0, 46, 101
2, 67483, Note_on_c, 0, 34, 96
2, 67484, Note_on_c, 0, 71, 0
2, 67491, Note_on_c, 0, 78, 0
2, 67545, Control_c, 0, 64, 127
2, 67729, Note_on_c, 0, 46, 0
2, 67738, Note_on_c, 0, 46, 75
2, 67739, Note_on_c, 0, 82, 98
2, 67860, Note_on_c, 0, 80, 0
2, 67865, Note_on_c, 0, 80, 107
2, 67866, Note_on_c, 0, 61, 95
2, 67866, Note_on_c, 0, 53, 81
2, 67871, Note_on_c, 0, 56, 85
2, 68121, Note_on_c, 0, 83, 0
2, 68131, Note_on_c, 0, 83, 105
2, 68144, Note_on_c, 0, 73, 0
2, 68236, Note_on_c, 0, 46, 0
2, 68245, Note_on_c, 0, 46, 91
2, 68405, Note_on_c, 0, 82, 0
2, 68411, Note_on_c, 0, 82, 108
2, 68416, Note_on_c, 0, 73, 103
2, 68417, Note_on_c, 0, 78, 92
2, 68453, Note_on_c, 0, 77, 0
2, 68453, Note_on_c, 0, 61, 0
2, 68454, Control_c, 0, 64, 0
2, 68455, Note_on_c, 0, 53, 0
2, 68455, Note_on_c, 0, 46, 0
2, 68455, Note_on_c, 0, 56, 0
2, 68455, Note_on_c, 0, 83, 0
2, 68456, Note_on_c, 0, 80, 0
2, 68474, Note_on_c, 0, 34, 0
2, 68532, Note_on_c, 0, 47, 106
2, 68534, Note_on_c, 0, 35, 95
2, 68574, Control_c, 0, 64, 127
2, 68828, Note_on_c, 0, 61, 87
2, 68879, Note_on_c, 0, 66, 87
2, 68951, Note_on_c, 0, 68, 95
2, 69011, Note_on_c, 0, 70, 84
2, 69050, Note_on_c, 0, 73, 0
2, 69061, Note_on_c, 0, 73, 99
2, 69069, Note_on_c, 0, 54, 84
2, 69073, Note_on_c, 0, 58, 94
2, 69073, Note_on_c, 0, 78, 0
2, 69077, Note_on_c, 0, 51, 80
2, 69084, Note_on_c, 0, 78, 87
2, 69151, Note_on_c, 0, 80, 85
2, 69189, Note_on_c, 0, 82, 0
2, 69200, Note_on_c, 0, 82, 102
2, 69238, Note_on_c, 0, 85, 101
2, 69285, Note_on_c, 0, 90, 101
2, 69331, Note_on_c, 0, 92, 102
2, 69354, Note_on_c, 0, 94, 108
2, 69546, Control_c, 0, 64, 0
2, 69555, Note_on_c, 0, 51, 0
2, 69555, Note_on_c, 0, 47, 0
2, 69557, Note_on_c, 0, 35, 0
2, 69558, Note_on_c, 0, 66, 0
2, 69558, Note_on_c, 0, 68, 0
2, 69559, Note_on_c, 0, 80, 0
2, 69559, Note_on_c, 0, 78, 0
2, 69559, Note_on_c, 0, 54, 0
2, 69560, Note_on_c, 0, 70, 0
2, 69560, Note_on_c, 0, 61, 0
2, 69560, Note_on_c, 0, 73, 0
2, 69560, Note_on_c, 0, 82, 0
2, 69560, Note_on_c, 0, 58, 0
2, 69561, Note_on_c, 0, 92, 0
2, 69561, Note_on_c, 0, 94, 0
2, 69561, Note_on_c, 0, 90, 0
2, 69561, Note_on_c, 0, 85, 0
2, 69623, Note_on_c, 0, 80, 107
2, 69628, Note_on_c, 0, 73, 103
2, 69630, Note_on_c, 0, 49, 101
2, 69630, Note_on_c, 0, 77, 99
2, 69630, Note_on_c, 0, 37, 94
2, 69672, Control_c, 0, 64, 127
2, 70139, Note_on_c, 0, 61, 103
2, 70141, Note_on_c, 0, 73, 0
2, 70141, Note_on_c, 0, 80, 0
2, 70149, Note_on_c, 0, 77, 0
2, 70150, Note_on_c, 0, 56, 90
2, 70151, Note_on_c, 0, 85, 110
2, 70152, Note_on_c, 0, 80, 103
2, 70152, Note_on_c, 0, 53, 86
2, 70152, Note_on_c, 0, 73, 106
2, 70153, Note_on_c, 0, 77, 97
2, 70264, Note_on_c, 0, 49, 0
2, 70269, Note_on_c, 0, 49, 88
2, 70322, Note_on_c, 0, 44, 86
2, 70402, Note_on_c, 0, 37, 0
2, 70408, Note_on_c, 0, 37, 93
2, 70453, Control_c, 0, 64, 0
2, 70456, Note_on_c, 0, 85, 0
2, 70456, Note_on_c, 0, 49, 0
2, 70457, Note_on_c, 0, 53, 0
2, 70458, Note_on_c, 0, 61, 0
2, 70458, Note_on_c, 0, 77, 0
2, 70458, Note_on_c, 0, 37, 0
2, 70458, Note_on_c, 0, 73, 0
2, 70458, Note_on_c, 0, 80, 0
2, 70458, Note_on_c, 0, 44, 0
2, 70459, Note_on_c, 0, 56, 0
2, 70706, Note_on_c, 0, 82, 103
2, 70706, Note_on_c, 0, 70, 103
2, 70708, Note_on_c, 0, 78, 94
2, 70708, Note_on_c, 0, 75, 99
2, 70711, Note_on_c, 0, 47, 103
2, 70714, Note_on_c, 0, 35, 90
2, 70740, Control_c, 0, 64, 127
2, 70983, Note_on_c, 0, 58, 94
2, 70987, Note_on_c, 0, 54, 88
2, 70988, Note_on_c, 0, 51, 86
2, 71247, Note_on_c, 0, 70, 0
2, 71254, Note_on_c, 0, 70, 100
2, 71257, Note_on_c, 0, 66, 93
2, 71261, Note_on_c, 0, 63, 89
2, 71377, Note_on_c, 0, 47, 0
2, 71386, Note_on_c, 0, 47, 85
2, 71493, Note_on_c, 0, 51, 0
2, 71504, Note_on_c, 0, 51, 77
2, 71523, Note_on_c, 0, 54, 0
2, 71528, Note_on_c, 0, 54, 53
2, 71531, Note_on_c, 0, 66, 0
2, 71535, Note_on_c, 0, 66, 73
2, 71620, Control_c, 0, 64, 0
2, 71621, Note_on_c, 0, 78, 0
2, 71622, Note_on_c, 0, 75, 0
2, 71623, Note_on_c, 0, 35, 0
2, 71625, Note_on_c, 0, 63, 0
2, 71625, Note_on_c, 0, 58, 0
2, 71625, Note_on_c, 0, 54, 0
2, 71625, Note_on_c, 0, 47, 0
2, 71625, Note_on_c, 0, 66, 0
2, 71626, Note_on_c, 0, 70, 0
2, 71639, Note_on_c, 0, 82, 0
2, 71646, Note_on_c, 0, 51, 0
2, 71658, Note_on_c, 0, 68, 102
2, 71665, Note_on_c, 0, 49, 88
2, 71669, Note_on_c, 0, 65, 79
2, 71669, Note_on_c, 0, 37, 85
2, 71671, Note_on_c, 0, 61, 92
2, 71677, Note_on_c, 0, 49, 0
2, 71769, Control_c, 0, 64, 127
2, 71912, Note_on_c, 0, 49, 60
2, 72059, Note_on_c, 0, 53, 78
2, 72184, Note_on_c, 0, 61, 0
2, 72186, Note_on_c, 0, 56, 89
2, 72188, Note_on_c, 0, 61, 92
2, 72299, Note_on_c, 0, 68, 0
2, 72307, Note_on_c, 0, 65, 0
2, 72308, Note_on_c, 0, 75, 103
2, 72310, Note_on_c, 0, 68, 100
2, 72312, Note_on_c, 0, 65, 82
2, 72537, Note_on_c, 0, 49, 0
2, 72546, Note_on_c, 0, 49, 81
2, 72560, Note_on_c, 0, 37, 0
2, 72567, Note_on_c, 0, 37, 59
2, 72688, Note_on_c, 0, 47, 60
2, 72692, Note_on_c, 0, 35, 70
2, 72694, Note_on_c, 0, 36, 70
2, 72780, Note_on_c, 0, 68, 0
2, 72780, Note_on_c, 0, 75, 0
2, 72781, Control_c, 0, 64, 0
2, 72781, Note_on_c, 0, 47, 0
2, 72781, Note_on_c, 0, 37, 0
2, 72781, Note_on_c, 0, 49, 0
2, 72781, Note_on_c, 0, 56, 0
2, 72782, Note_on_c, 0, 53, 0
2, 72791, Note_on_c, 0, 35, 0
2, 72806, Note_on_c, 0, 36, 0
2, 72814, Note_on_c, 0, 61, 0
2, 72816, Note_on_c, 0, 46, 99
2, 72818, Note_on_c, 0, 34, 92
2, 72819, Note_on_c, 0, 73, 106
2, 72821, Note_on_c, 0, 65, 0
2, 72825, Note_on_c, 0, 61, 92
2, 72825, Note_on_c, 0, 68, 92
2, 72828, Note_on_c, 0, 65, 89
2, 72906, Control_c, 0, 64, 127
2, 73102, Note_on_c, 0, 56, 93
2, 73103, Note_on_c, 0, 53, 87
2, 73351, Note_on_c, 0, 61, 0
2, 73351, Note_on_c, 0, 65, 0
2, 73361, Note_on_c, 0, 65, 100
2, 73362, Note_on_c, 0, 61, 96
2, 73482, Note_on_c, 0, 46, 0
2, 73488, Note_on_c, 0, 46, 89
2, 73605, Note_on_c, 0, 53, 0
2, 73605, Note_on_c, 0, 56, 0
2, 73615, Note_on_c, 0, 56, 84
2, 73615, Note_on_c, 0, 53, 83
2, 73733, Control_c, 0, 64, 0
2, 73735, Note_on_c, 0, 34, 0
2, 73745, Note_on_c, 0, 46, 0
2, 73745, Note_on_c, 0, 56, 0
2, 73746, Note_on_c, 0, 73, 0
2, 73746, Note_on_c, 0, 61, 0
2, 73746, Note_on_c, 0, 65, 0
2, 73746, Note_on_c, 0, 68, 0
2, 73747, Note_on_c, 0, 53, 0
2, 73762, Note_on_c, 0, 66, 101
2, 73763, Note_on_c, 0, 39, 88
2, 73768, Note_on_c, 0, 63, 89
2, 73769, Note_on_c, 0, 58, 90
2, 73889, Control_c, 0, 64, 127
2, 74015, Note_on_c, 0, 46, 87
2, 74148, Note_on_c, 0, 53, 91
2, 74287, Note_on_c, 0, 54, 98
2, 74396, Note_on_c, 0, 39, 0
2, 74400, Note_on_c, 0, 39, 82
2, 74519, Note_on_c, 0, 46, 0
2, 74523, Note_on_c, 0, 46, 93
2, 74641, Note_on_c, 0, 63, 0
2, 74647, Note_on_c, 0, 63, 96
2, 74671, Note_on_c, 0, 49, 82
2, 74678, Note_on_c, 0, 37, 87
2, 74686, Note_on_c, 0, 65, 76
2, 74726, Note_on_c, 0, 66, 0
2, 74735, Note_on_c, 0, 66, 95
2, 74749, Note_on_c, 0, 68, 98
2, 74805, Note_on_c, 0, 66, 0
2, 74805, Note_on_c, 0, 54, 0
2, 74806, Note_on_c, 0, 63, 0
2, 74806, Note_on_c, 0, 58, 0
2, 74806, Control_c, 0, 64, 0
2, 74806, Note_on_c, 0, 49, 0
2, 74806, Note_on_c, 0, 39, 0
2, 74806, Note_on_c, 0, 53, 0
2, 74806, Note_on_c, 0, 46, 0
2, 74807, Note_on_c, 0, 37, 0
2, 74808, Note_on_c, 0, 68, 0
2, 74826, Note_on_c, 0, 65, 0
2, 74936, Note_on_c, 0, 70, 101
2, 74943, Note_on_c, 0, 48, 93
2, 74944, Note_on_c, 0, 36, 90
2, 74945, Note_on_c, 0, 66, 87
2, 74947, Note_on_c, 0, 63, 85
2, 74987, Control_c, 0, 64, 127
2, 75214, Note_on_c, 0, 58, 98
2, 75215, Note_on_c, 0, 54, 92
2, 75218, Note_on_c, 0, 51, 88
2, 75463, Note_on_c, 0, 63, 0
2, 75463, Note_on_c, 0, 66, 0
2, 75468, Note_on_c, 0, 66, 99
2, 75469, Note_on_c, 0, 63, 103
2, 75578, Note_on_c, 0, 48, 0
2, 75583, Note_on_c, 0, 48, 87
2, 75701, Note_on_c, 0, 51, 0
2, 75712, Note_on_c, 0, 51, 81
2, 75740, Note_on_c, 0, 63, 0
2, 75747, Note_on_c, 0, 63, 89
2, 75747, Note_on_c, 0, 66, 0
2, 75752, Note_on_c, 0, 66, 56
2, 75796, Control_c, 0, 64, 0
2, 75806, Note_on_c, 0, 66, 0
2, 75806, Note_on_c, 0, 70, 0
2, 75807, Note_on_c, 0, 63, 0
2, 75807, Note_on_c, 0, 58, 0
2, 75807, Note_on_c, 0, 48, 0
2, 75808, Note_on_c, 0, 54, 0
2, 75816, Note_on_c, 0, 36, 0
2, 75824, Note_on_c, 0, 51, 0
2, 75867, Note_on_c, 0, 68, 105
2, 75869, Note_on_c, 0, 66, 91
2, 75873, Note_on_c, 0, 63, 92
2, 75874, Note_on_c, 0, 47, 99
2, 75874, Note_on_c, 0, 35, 89
2, 75955, Control_c, 0, 64, 127
2, 76116, Note_on_c, 0, 47, 0
2, 76125, Note_on_c, 0, 47, 81
2, 76257, Note_on_c, 0, 51, 80
2, 76378, Note_on_c, 0, 56, 84
2, 76379, Note_on_c, 0, 54, 79
2, 76508, Note_on_c, 0, 66, 0
2, 76508, Note_on_c, 0, 68, 0
2, 76510, Note_on_c, 0, 75, 103
2, 76512, Note_on_c, 0, 68, 98
2, 76516, Note_on_c, 0, 66, 98
2, 76888, Note_on_c, 0, 73, 101
2, 76959, Control_c, 0, 64, 0
2, 76965, Note_on_c, 0, 68, 0
2, 76965, Note_on_c, 0, 63, 0
2, 76965, Note_on_c, 0, 66, 0
2, 76965, Note_on_c, 0, 51, 0
2, 76966, Note_on_c, 0, 54, 0
2, 76966, Note_on_c, 0, 75, 0
2, 76966, Note_on_c, 0, 56, 0
2, 76967, Note_on_c, 0, 47, 0
2, 76976, Note_on_c, 0, 35, 0
2, 77007, Note_on_c, 0, 73, 0
2, 77018, Note_on_c, 0, 73, 104
2, 77025, Note_on_c, 0, 61, 95
2, 77025, Note_on_c, 0, 68, 94
2, 77026, Note_on_c, 0, 49, 89
2, 77032, Note_on_c, 0, 37, 85
2, 77033, Note_on_c, 0, 66, 95
2, 77038, Note_on_c, 0, 49, 0
2, 77230, Control_c, 0, 64, 127
2, 77427, Note_on_c, 0, 49, 69
2, 77570, Note_on_c, 0, 65, 90
2, 77575, Note_on_c, 0, 61, 0
2, 77580, Note_on_c, 0, 53, 64
2, 77584, Note_on_c, 0, 56, 73
2, 77585, Note_on_c, 0, 61, 76
2, 77829, Note_on_c, 0, 49, 0
2, 77833, Note_on_c, 0, 49, 54
2, 77999, Note_on_c, 0, 63, 76
2, 78028, Note_on_c, 0, 68, 0
2, 78039, Note_on_c, 0, 68, 90
2, 78073, Note_on_c, 0, 70, 76
2, 78084, Control_c, 0, 64, 0
2, 78084, Note_on_c, 0, 73, 0
2, 78084, Note_on_c, 0, 65, 0
2, 78085, Note_on_c, 0, 53, 0
2, 78085, Note_on_c, 0, 56, 0
2, 78085, Note_on_c, 0, 49, 0
2, 78085, Note_on_c, 0, 66, 0
2, 78085, Note_on_c, 0, 37, 0
2, 78085, Note_on_c, 0, 61, 0
2, 78094, Note_on_c, 0, 39, 73
2, 78109, Note_on_c, 0, 75, 102
2, 78289, Note_on_c, 0, 39, 0
2, 78351, Control_c, 0, 64, 127
2, 78401, Note_on_c, 0, 56, 58
2, 78654, Note_on_c, 0, 55, 71
2, 78654, Note_on_c, 0, 51, 60
2, 78932, Note_on_c, 0, 58, 63
2, 79214, Note_on_c, 0, 60, 68
2, 79223, Note_on_c, 0, 44, 67
2, 79238, Control_c, 0, 64, 0
2, 79239, Note_on_c, 0, 58, 0
2, 79240, Note_on_c, 0, 56, 0
2, 79240, Note_on_c, 0, 55, 0
2, 79357, Note_on_c, 0, 68, 0
2, 79480, Control_c, 0, 64, 127
2, 79519, Note_on_c, 0, 67, 80
2, 79787, Note_on_c, 0, 60, 0
2, 79792, Note_on_c, 0, 60, 63
2, 79921, Note_on_c, 0, 62, 68
2, 80171, Note_on_c, 0, 63, 0
2, 80179, Note_on_c, 0, 60, 0
2, 80179, Note_on_c, 0, 63, 78
2, 80183, Note_on_c, 0, 60, 55
2, 80311, Note_on_c, 0, 56, 64
2, 80593, Note_on_c, 0, 79, 88
2, 80875, Note_on_c, 0, 72, 70
2, 81003, Note_on_c, 0, 74, 79
2, 81123, Note_on_c, 0, 44, 0
2, 81130, Note_on_c, 0, 44, 73
2, 81262, Note_on_c, 0, 75, 0
2, 81269, Note_on_c, 0, 75, 84
2, 81399, Note_on_c, 0, 53, 68
2, 81401, Note_on_c, 0, 46, 64
2, 81415, Note_on_c, 0, 62, 0
2, 81417, Note_on_c, 0, 79, 0
2, 81417, Note_on_c, 0, 67, 0
2, 81417, Note_on_c, 0, 56, 0
2, 81417, Note_on_c, 0, 72, 0
2, 81418, Note_on_c, 0, 60, 0
2, 81418, Note_on_c, 0, 63, 0
2, 81418, Note_on_c, 0, 44, 0
2, 81418, Note_on_c, 0, 74, 0
2, 81419, Control_c, 0, 64, 0
2, 81423, Note_on_c, 0, 51, 0
2, 81423, Note_on_c, 0, 70, 0
2, 81661, Control_c, 0, 64, 127
2, 81665, Note_on_c, 0, 65, 75
2, 81928, Note_on_c, 0, 62, 80
2, 82072, Note_on_c, 0, 60, 67
2, 82341, Note_on_c, 0, 58, 78
2, 82467, Note_on_c, 0, 53, 0
2, 82478, Note_on_c, 0, 53, 67
2, 82722, Note_on_c, 0, 70, 85
2, 82996, Note_on_c, 0, 74, 90
2, 83001, Note_on_c, 0, 44, 57
2, 83112, Note_on_c, 0, 75, 0
2, 83124, Note_on_c, 0, 75, 89
2, 83387, Note_on_c, 0, 77, 91
2, 83458, Note_on_c, 0, 62, 0
2, 83459, Note_on_c, 0, 65, 0
2, 83459, Note_on_c, 0, 53, 0
2, 83460, Note_on_c, 0, 74, 0
2, 83460, Note_on_c, 0, 58, 0
2, 83460, Note_on_c, 0, 60, 0
2, 83460, Note_on_c, 0, 44, 0
2, 83460, Note_on_c, 0, 46, 0
2, 83461, Note_on_c, 0, 70, 0
2, 83461, Note_on_c, 0, 75, 0
2, 83462, Control_c, 0, 64, 0
2, 83531, Note_on_c, 0, 43, 72
2, 83531, Note_on_c, 0, 53, 71
2, 83535, Note_on_c, 0, 50, 65
2, 83573, Control_c, 0, 64, 127
2, 83794, Note_on_c, 0, 58, 88
2, 84061, Note_on_c, 0, 62, 96
2, 84194, Note_on_c, 0, 65, 97
2, 84461, Note_on_c, 0, 82, 96
2, 84462, Note_on_c, 0, 68, 102
2, 84871, Note_on_c, 0, 77, 0
2, 84875, Note_on_c, 0, 67, 94
2, 84876, Note_on_c, 0, 77, 96
2, 85125, Note_on_c, 0, 65, 0
2, 85125, Note_on_c, 0, 82, 0
2, 85129, Note_on_c, 0, 65, 88
2, 85131, Note_on_c, 0, 82, 102
2, 85259, Note_on_c, 0, 86, 102
2, 85263, Note_on_c, 0, 62, 0
2, 85269, Note_on_c, 0, 62, 75
2, 85404, Note_on_c, 0, 55, 61
2, 85532, Note_on_c, 0, 82, 0
2, 85536, Note_on_c, 0, 82, 92
2, 85667, Note_on_c, 0, 63, 90
2, 85671, Note_on_c, 0, 48, 86
2, 85677, Note_on_c, 0, 87, 103
2, 85680, Control_c, 0, 64, 0
2, 85685, Note_on_c, 0, 82, 0
2, 85687, Note_on_c, 0, 68, 0
2, 85687, Note_on_c, 0, 79, 84
2, 85688, Note_on_c, 0, 77, 0
2, 85688, Note_on_c, 0, 53, 0
2, 85688, Note_on_c, 0, 65, 0
2, 85688, Note_on_c, 0, 58, 0
2, 85688, Note_on_c, 0, 43, 0
2, 85688, Note_on_c, 0, 55, 0
2, 85689, Note_on_c, 0, 67, 0
2, 85689, Note_on_c, 0, 50, 0
2, 85689, Note_on_c, 0, 62, 0
2, 85690, Note_on_c, 0, 86, 0
2, 85690, Note_on_c, 0, 82, 84
2, 85770, Control_c, 0, 64, 127
2, 85958, Note_on_c, 0, 55, 68
2, 86212, Note_on_c, 0, 89, 103
2, 86212, Note_on_c, 0, 62, 71
2, 86215, Note_on_c, 0, 82, 0
2, 86216, Note_on_c, 0, 86, 96
2, 86218, Note_on_c, 0, 77, 87
2, 86225, Note_on_c, 0, 82, 82
2, 86476, Note_on_c, 0, 55, 0
2, 86481, Note_on_c, 0, 55, 57
2, 86691, Note_on_c, 0, 82, 0
2, 86703, Note_on_c, 0, 82, 68
2, 86730, Note_on_c, 0, 86, 0
2, 86739, Note_on_c, 0, 86, 92
2, 86744, Note_on_c, 0, 94, 98
2, 87014, Note_on_c, 0, 55, 0
2, 87021, Note_on_c, 0, 55, 44
2, 87275, Note_on_c, 0, 86, 0
2, 87286, Note_on_c, 0, 86, 89
2, 87287, Note_on_c, 0, 46, 59
2, 87290, Note_on_c, 0, 82, 0
2, 87294, Note_on_c, 0, 74, 65
2, 87301, Note_on_c, 0, 82, 65
2, 87315, Control_c, 0, 64, 0
2, 87348, Note_on_c, 0, 63, 0
2, 87348, Note_on_c, 0, 77, 0
2, 87348, Note_on_c, 0, 87, 0
2, 87348, Note_on_c, 0, 79, 0
2, 87348, Note_on_c, 0, 89, 0
2, 87349, Note_on_c, 0, 48, 0
2, 87350, Note_on_c, 0, 55, 0
2, 87351, Note_on_c, 0, 62, 0
2, 87360, Note_on_c, 0, 94, 0
2, 87421, Control_c, 0, 64, 127
2, 87563, Note_on_c, 0, 55, 69
2, 87820, Note_on_c, 0, 46, 0
2, 87823, Control_c, 0, 64, 0
2, 87826, Note_on_c, 0, 55, 0
2, 87840, Note_on_c, 0, 44, 74
2, 87859, Control_c, 0, 64, 127
2, 87990, Note_on_c, 0, 72, 68
2, 88115, Note_on_c, 0, 67, 84
2, 88123, Note_on_c, 0, 79, 74
2, 88252, Note_on_c, 0, 84, 78
2, 88373, Note_on_c, 0, 72, 0
2, 88382, Note_on_c, 0, 60, 72
2, 88384, Note_on_c, 0, 72, 72
2, 88504, Note_on_c, 0, 79, 0
2, 88507, Note_on_c, 0, 62, 82
2, 88512, Note_on_c, 0, 44, 0
2, 88512, Note_on_c, 0, 79, 66
2, 88642, Note_on_c, 0, 84, 0
2, 88647, Note_on_c, 0, 84, 73
2, 88773, Note_on_c, 0, 72, 0
2, 88780, Note_on_c, 0, 72, 68
2, 88782, Note_on_c, 0, 63, 89
2, 88903, Note_on_c, 0, 79, 0
2, 88912, Note_on_c, 0, 79, 67
2, 89034, Note_on_c, 0, 84, 0
2, 89039, Note_on_c, 0, 84, 75
2, 89172, Note_on_c, 0, 62, 0
2, 89172, Note_on_c, 0, 72, 0
2, 89179, Note_on_c, 0, 72, 75
2, 89180, Note_on_c, 0, 62, 81
2, 89310, Note_on_c, 0, 79, 0
2, 89319, Note_on_c, 0, 79, 73
2, 89341, Note_on_c, 0, 82, 0
2, 89425, Note_on_c, 0, 63, 0
2, 89433, Note_on_c, 0, 63, 89
2, 89448, Note_on_c, 0, 84, 0
2, 89455, Note_on_c, 0, 84, 79
2, 89556, Note_on_c, 0, 72, 0
2, 89561, Note_on_c, 0, 65, 91
2, 89563, Note_on_c, 0, 72, 77
2, 89671, Note_on_c, 0, 79, 0
2, 89682, Note_on_c, 0, 79, 78
2, 89817, Note_on_c, 0, 62, 0
2, 89826, Note_on_c, 0, 62, 94
2, 89863, Note_on_c, 0, 86, 0
2, 89864, Control_c, 0, 64, 0
2, 89867, Note_on_c, 0, 72, 0
2, 89867, Note_on_c, 0, 67, 0
2, 89868, Note_on_c, 0, 60, 0
2, 89868, Note_on_c, 0, 63, 0
2, 89869, Note_on_c, 0, 84, 0
2, 89869, Note_on_c, 0, 65, 0
2, 89871, Note_on_c, 0, 74, 0
2, 89932, Control_c, 0, 64, 127
2, 89951, Note_on_c, 0, 46, 83
2, 90009, Note_on_c, 0, 62, 0
2, 90095, Note_on_c, 0, 74, 81
2, 90229, Note_on_c, 0, 77, 76
2, 90230, Note_on_c, 0, 62, 85
2, 90358, Note_on_c, 0, 86, 91
2, 90493, Note_on_c, 0, 62, 0
2, 90493, Note_on_c, 0, 74, 0
2, 90497, Note_on_c, 0, 62, 88
2, 90504, Note_on_c, 0, 74, 83
2, 90616, Note_on_c, 0, 77, 0
2, 90618, Note_on_c, 0, 60, 80
2, 90620, Note_on_c, 0, 77, 72
2, 90746, Note_on_c, 0, 86, 0
2, 90755, Note_on_c, 0, 86, 91
2, 90877, Note_on_c, 0, 74, 0
2, 90884, Note_on_c, 0, 74, 85
2, 90886, Note_on_c, 0, 58, 87
2, 91008, Note_on_c, 0, 77, 0
2, 91012, Note_on_c, 0, 77, 73
2, 91138, Note_on_c, 0, 86, 0
2, 91143, Note_on_c, 0, 86, 89
2, 91269, Note_on_c, 0, 46, 0
2, 91276, Note_on_c, 0, 74, 0
2, 91279, Note_on_c, 0, 46, 75
2, 91281, Note_on_c, 0, 74, 79
2, 91407, Note_on_c, 0, 77, 0
2, 91415, Note_on_c, 0, 77, 70
2, 91530, Note_on_c, 0, 86, 0
2, 91537, Note_on_c, 0, 58, 0
2, 91540, Note_on_c, 0, 86, 94
2, 91544, Note_on_c, 0, 58, 76
2, 91653, Note_on_c, 0, 74, 0
2, 91662, Note_on_c, 0, 74, 93
2, 91680, Note_on_c, 0, 70, 97
2, 91806, Note_on_c, 0, 86, 0
2, 91814, Note_on_c, 0, 86, 81
2, 91942, Note_on_c, 0, 67, 91
2, 92036, Note_on_c, 0, 86, 0
2, 92036, Note_on_c, 0, 58, 0
2, 92036, Note_on_c, 0, 70, 0
2, 92036, Note_on_c, 0, 77, 0
2, 92036, Note_on_c, 0, 74, 0
2, 92038, Note_on_c, 0, 62, 0
2, 92038, Note_on_c, 0, 46, 0
2, 92038, Note_on_c, 0, 60, 0
2, 92039, Control_c, 0, 64, 0
2, 92044, Note_on_c, 0, 79, 0
2, 92056, Note_on_c, 0, 65, 92
2, 92056, Note_on_c, 0, 43, 85
2, 92090, Control_c, 0, 64, 127
2, 92190, Note_on_c, 0, 43, 0
2, 92207, Note_on_c, 0, 77, 72
2, 92323, Note_on_c, 0, 63, 90
2, 92326, Note_on_c, 0, 82, 84
2, 92479, Note_on_c, 0, 89, 76
2, 92590, Note_on_c, 0, 65, 0
2, 92597, Note_on_c, 0, 77, 0
2, 92600, Note_on_c, 0, 65, 91
2, 92602, Note_on_c, 0, 77, 80
2, 92720, Note_on_c, 0, 63, 0
2, 92720, Note_on_c, 0, 82, 0
2, 92726, Note_on_c, 0, 63, 94
2, 92727, Note_on_c, 0, 82, 93
2, 92851, Note_on_c, 0, 89, 0
2, 92861, Note_on_c, 0, 89, 80
2, 92966, Note_on_c, 0, 65, 0
2, 92974, Note_on_c, 0, 77, 0
2, 92977, Note_on_c, 0, 65, 91
2, 92977, Note_on_c, 0, 77, 85
2, 93104, Note_on_c, 0, 82, 0
2, 93109, Note_on_c, 0, 82, 89
2, 93227, Note_on_c, 0, 63, 0
2, 93227, Note_on_c, 0, 89, 0
2, 93231, Note_on_c, 0, 63, 88
2, 93232, Note_on_c, 0, 89, 89
2, 93350, Note_on_c, 0, 67, 0
2, 93350, Note_on_c, 0, 77, 0
2, 93358, Note_on_c, 0, 65, 0
2, 93360, Note_on_c, 0, 77, 80
2, 93364, Note_on_c, 0, 65, 92
2, 93473, Note_on_c, 0, 65, 0
2, 93473, Note_on_c, 0, 82, 0
2, 93479, Note_on_c, 0, 82, 93
2, 93482, Note_on_c, 0, 65, 89
2, 93619, Note_on_c, 0, 89, 0
2, 93628, Note_on_c, 0, 89, 102
2, 93631, Note_on_c, 0, 55, 97
2, 93632, Note_on_c, 0, 58, 96
2, 93742, Note_on_c, 0, 77, 0
2, 93748, Note_on_c, 0, 77, 81
2, 93872, Note_on_c, 0, 82, 0
2, 93877, Note_on_c, 0, 70, 102
2, 93882, Note_on_c, 0, 82, 94
2, 93995, Note_on_c, 0, 89, 0
2, 94006, Note_on_c, 0, 89, 96
2, 94112, Note_on_c, 0, 82, 0
2, 94112, Note_on_c, 0, 70, 0
2, 94114, Note_on_c, 0, 55, 0
2, 94114, Note_on_c, 0, 58, 0
2, 94115, Note_on_c, 0, 77, 0
2, 94124, Control_c, 0, 64, 0
2, 94126, Note_on_c, 0, 65, 0
2, 94141, Note_on_c, 0, 63, 0
2, 94144, Note_on_c, 0, 67, 100
2, 94146, Note_on_c, 0, 63, 92
2, 94149, Note_on_c, 0, 89, 0
2, 94152, Note_on_c, 0, 55, 84
2, 94154, Note_on_c, 0, 48, 84
2, 94233, Control_c, 0, 64, 127
2, 94292, Note_on_c, 0, 79, 80
2, 94427, Note_on_c, 0, 87, 76
2, 94542, Note_on_c, 0, 91, 96
2, 94545, Note_on_c, 0, 65, 101
2, 94671, Note_on_c, 0, 79, 0
2, 94680, Note_on_c, 0, 79, 76
2, 94794, Note_on_c, 0, 87, 0
2, 94804, Note_on_c, 0, 87, 79
2, 94932, Note_on_c, 0, 63, 0
2, 94932, Note_on_c, 0, 91, 0
2, 94938, Note_on_c, 0, 91, 84
2, 94943, Note_on_c, 0, 63, 90
2, 94945, Note_on_c, 0, 60, 83
2, 95063, Note_on_c, 0, 79, 0
2, 95068, Note_on_c, 0, 79, 72
2, 95193, Note_on_c, 0, 87, 0
2, 95202, Note_on_c, 0, 87, 72
2, 95324, Note_on_c, 0, 91, 0
2, 95334, Note_on_c, 0, 91, 79
2, 95354, Note_on_c, 0, 67, 0
2, 95360, Note_on_c, 0, 67, 65
2, 95477, Note_on_c, 0, 79, 0
2, 95482, Note_on_c, 0, 79, 63
2, 95592, Note_on_c, 0, 87, 0
2, 95599, Note_on_c, 0, 87, 71
2, 95723, Note_on_c, 0, 91, 0
2, 95727, Note_on_c, 0, 72, 79
2, 95733, Note_on_c, 0, 91, 74
2, 95976, Note_on_c, 0, 87, 0
2, 95981, Note_on_c, 0, 87, 87
2, 96104, Note_on_c, 0, 89, 82
2, 96238, Note_on_c, 0, 79, 0
2, 96238, Note_on_c, 0, 91, 0
2, 96242, Note_on_c, 0, 91, 98
2, 96245, Note_on_c, 0, 56, 69
2, 96249, Note_on_c, 0, 79, 83
2, 96251, Note_on_c, 0, 84, 86
2, 96255, Note_on_c, 0, 60, 0
2, 96255, Note_on_c, 0, 63, 0
2, 96255, Note_on_c, 0, 72, 0
2, 96255, Note_on_c, 0, 65, 0
2, 96255, Note_on_c, 0, 87, 0
2, 96255, Control_c, 0, 64, 0
2, 96256, Note_on_c, 0, 67, 0
2, 96256, Note_on_c, 0, 89, 0
2, 96256, Note_on_c, 0, 48, 0
2, 96258, Note_on_c, 0, 55, 0
2, 96314, Control_c, 0, 64, 127
2, 96327, Note_on_c, 0, 63, 66
2, 96394, Note_on_c, 0, 67, 62
2, 96407, Note_on_c, 0, 56, 0
2, 96478, Note_on_c, 0, 68, 78
2, 96534, Note_on_c, 0, 70, 67
2, 96624, Note_on_c, 0, 72, 77
2, 96703, Note_on_c, 0, 74, 83
2, 96783, Note_on_c, 0, 75, 87
2, 96852, Note_on_c, 0, 74, 0
2, 96862, Note_on_c, 0, 74, 80
2, 96936, Note_on_c, 0, 72, 0
2, 96946, Note_on_c, 0, 72, 67
2, 97013, Note_on_c, 0, 68, 0
2, 97024, Note_on_c, 0, 68, 66
2, 97028, Note_on_c, 0, 89, 81
2, 97160, Note_on_c, 0, 87, 98
2, 97167, Note_on_c, 0, 84, 0
2, 97175, Note_on_c, 0, 56, 69
2, 97177, Control_c, 0, 64, 0
2, 97178, Note_on_c, 0, 84, 78
2, 97179, Note_on_c, 0, 72, 0
2, 97179, Note_on_c, 0, 63, 0
2, 97179, Note_on_c, 0, 75, 0
2, 97180, Note_on_c, 0, 68, 0
2, 97180, Note_on_c, 0, 67, 0
2, 97180, Note_on_c, 0, 70, 0
2, 97181, Note_on_c, 0, 74, 0
2, 97182, Note_on_c, 0, 89, 0
2, 97190, Note_on_c, 0, 91, 0
2, 97198, Note_on_c, 0, 79, 0
2, 97244, Control_c, 0, 64, 127
2, 97386, Note_on_c, 0, 63, 63
2, 97439, Note_on_c, 0, 67, 72
2, 97500, Note_on_c, 0, 68, 63
2, 97555, Note_on_c, 0, 70, 57
2, 97616, Note_on_c, 0, 72, 77
2, 97677, Note_on_c, 0, 74, 86
2, 97747, Note_on_c, 0, 75, 85
2, 97820, Note_on_c, 0, 74, 0
2, 97826, Note_on_c, 0, 74, 72
2, 97889, Note_on_c, 0, 72, 0
2, 97896, Note_on_c, 0, 72, 67
2, 97958, Note_on_c, 0, 68, 0
2, 97958, Note_on_c, 0, 87, 0
2, 97968, Note_on_c, 0, 68, 81
2, 97968, Note_on_c, 0, 87, 94
2, 98099, Note_on_c, 0, 89, 87
2, 98227, Note_on_c, 0, 56, 0
2, 98227, Note_on_c, 0, 84, 0
2, 98231, Note_on_c, 0, 84, 95
2, 98233, Note_on_c, 0, 56, 81
2, 98236, Note_on_c, 0, 79, 80
2, 98247, Note_on_c, 0, 72, 0
2, 98248, Note_on_c, 0, 68, 0
2, 98248, Control_c, 0, 64, 0
2, 98251, Note_on_c, 0, 87, 0
2, 98251, Note_on_c, 0, 74, 0
2, 98251, Note_on_c, 0, 63, 0
2, 98252, Note_on_c, 0, 75, 0
2, 98253, Note_on_c, 0, 70, 0
2, 98253, Note_on_c, 0, 67, 0
2, 98253, Note_on_c, 0, 89, 0
2, 98310, Note_on_c, 0, 63, 62
2, 98319, Note_on_c, 0, 56, 0
2, 98319, Control_c, 0, 64, 127
2, 98381, Note_on_c, 0, 67, 60
2, 98462, Note_on_c, 0, 68, 72
2, 98530, Note_on_c, 0, 70, 65
2, 98596, Note_on_c, 0, 72, 73
2, 98666, Note_on_c, 0, 74, 80
2, 98741, Note_on_c, 0, 79, 0
2, 98745, Note_on_c, 0, 91, 101
2, 98746, Note_on_c, 0, 79, 90
2, 98749, Note_on_c, 0, 84, 0
2, 98753, Note_on_c, 0, 87, 92
2, 98755, Note_on_c, 0, 84, 89
2, 98758, Note_on_c, 0, 75, 92
2, 98762, Control_c, 0, 64, 0
2, 98787, Control_c, 0, 64, 127
2, 98833, Note_on_c, 0, 74, 0
2, 98838, Note_on_c, 0, 74, 89
2, 98895, Note_on_c, 0, 72, 0
2, 98900, Note_on_c, 0, 72, 86
2, 98949, Note_on_c, 0, 68, 0
2, 98959, Note_on_c, 0, 68, 80
2, 99148, Note_on_c, 0, 91, 0
2, 99156, Control_c, 0, 64, 0
2, 99156, Note_on_c, 0, 79, 0
2, 99156, Note_on_c, 0, 84, 0
2, 99156, Note_on_c, 0, 87, 0
2, 99159, Note_on_c, 0, 91, 106
2, 99160, Note_on_c, 0, 79, 93
2, 99161, Note_on_c, 0, 72, 0
2, 99161, Note_on_c, 0, 68, 0
2, 99161, Note_on_c, 0, 63, 0
2, 99161, Note_on_c, 0, 75, 0
2, 99162, Note_on_c, 0, 67, 0
2, 99162, Note_on_c, 0, 84, 94
2, 99162, Note_on_c, 0, 70, 0
2, 99162, Note_on_c, 0, 74, 0
2, 99166, Note_on_c, 0, 87, 96
2, 99167, Note_on_c, 0, 56, 79
2, 99248, Control_c, 0, 64, 127
2, 99358, Note_on_c, 0, 63, 63
2, 99421, Note_on_c, 0, 67, 82
2, 99489, Note_on_c, 0, 68, 84
2, 99544, Note_on_c, 0, 70, 79
2, 99607, Note_on_c, 0, 72, 87
2, 99675, Note_on_c, 0, 74, 92
2, 99760, Note_on_c, 0, 75, 94
2, 99832, Note_on_c, 0, 74, 0
2, 99841, Note_on_c, 0, 74, 87
2, 99901, Note_on_c, 0, 72, 0
2, 99906, Note_on_c, 0, 72, 87
2, 99970, Note_on_c, 0, 68, 0
2, 99978, Note_on_c, 0, 79, 0
2, 99978, Note_on_c, 0, 91, 0
2, 99980, Note_on_c, 0, 68, 93
2, 99982, Note_on_c, 0, 91, 102
2, 99985, Note_on_c, 0, 79, 97
2, 100024, Note_on_c, 0, 56, 0
2, 100115, Note_on_c, 0, 80, 90
2, 100116, Note_on_c, 0, 92, 99
2, 100212, Control_c, 0, 64, 0
2, 100218, Note_on_c, 0, 84, 0
2, 100218, Note_on_c, 0, 80, 0
2, 100219, Note_on_c, 0, 79, 0
2, 100219, Note_on_c, 0, 70, 0
2, 100219, Note_on_c, 0, 68, 0
2, 100219, Note_on_c, 0, 87, 0
2, 100219, Note_on_c, 0, 72, 0
2, 100219, Note_on_c, 0, 91, 0
2, 100219, Note_on_c, 0, 67, 0
2, 100219, Note_on_c, 0, 75, 0
2, 100220, Note_on_c, 0, 92, 0
2, 100221, Note_on_c, 0, 63, 0
2, 100231, Note_on_c, 0, 74, 0
2, 100256, Note_on_c, 0, 55, 83
2, 100257, Note_on_c, 0, 94, 106
2, 100258, Note_on_c, 0, 86, 98
2, 100267, Note_on_c, 0, 82, 87
2, 100277, Control_c, 0, 64, 127
2, 100342, Note_on_c, 0, 62, 75
2, 100402, Note_on_c, 0, 65, 88
2, 100510, Note_on_c, 0, 67, 82
2, 100579, Note_on_c, 0, 68, 88
2, 100648, Note_on_c, 0, 70, 76
2, 100708, Note_on_c, 0, 74, 75
2, 100761, Note_on_c, 0, 86, 0
2, 100763, Note_on_c, 0, 92, 104
2, 100765, Note_on_c, 0, 80, 99
2, 100767, Note_on_c, 0, 86, 101
2, 100775, Note_on_c, 0, 77, 88
2, 100853, Note_on_c, 0, 74, 0
2, 100862, Note_on_c, 0, 74, 86
2, 100899, Note_on_c, 0, 70, 0
2, 100909, Note_on_c, 0, 70, 73
2, 101015, Note_on_c, 0, 67, 0
2, 101019, Note_on_c, 0, 67, 67
2, 101153, Note_on_c, 0, 55, 0
2, 101160, Note_on_c, 0, 82, 0
2, 101160, Note_on_c, 0, 86, 0
2, 101161, Note_on_c, 0, 91, 108
2, 101163, Note_on_c, 0, 55, 96
2, 101164, Note_on_c, 0, 79, 95
2, 101170, Note_on_c, 0, 86, 91
2, 101172, Note_on_c, 0, 82, 85
2, 101177, Control_c, 0, 64, 0
2, 101179, Note_on_c, 0, 70, 0
2, 101179, Note_on_c, 0, 94, 0
2, 101180, Note_on_c, 0, 65, 0
2, 101180, Note_on_c, 0, 62, 0
2, 101180, Note_on_c, 0, 67, 0
2, 101180, Note_on_c, 0, 68, 0
2, 101180, Note_on_c, 0, 77, 0
2, 101181, Note_on_c, 0, 92, 0
2, 101181, Note_on_c, 0, 80, 0
2, 101199, Note_on_c, 0, 74, 0
2, 101291, Control_c, 0, 64, 127
2, 101408, Note_on_c, 0, 62, 77
2, 101470, Note_on_c, 0, 65, 81
2, 101564, Note_on_c, 0, 89, 101
2, 101568, Note_on_c, 0, 82, 0
2, 101568, Note_on_c, 0, 67, 78
2, 101569, Note_on_c, 0, 77, 89
2, 101574, Note_on_c, 0, 82, 72
2, 101638, Note_on_c, 0, 68, 88
2, 101681, Note_on_c, 0, 70, 80
2, 101742, Note_on_c, 0, 74, 75
2, 101813, Note_on_c, 0, 77, 0
2, 101818, Note_on_c, 0, 87, 101
2, 101822, Note_on_c, 0, 77, 88
2, 101905, Note_on_c, 0, 74, 0
2, 101912, Note_on_c, 0, 74, 85
2, 101967, Note_on_c, 0, 70, 0
2, 101978, Note_on_c, 0, 70, 71
2, 102067, Note_on_c, 0, 67, 0
2, 102067, Note_on_c, 0, 89, 0
2, 102071, Note_on_c, 0, 89, 100
2, 102078, Note_on_c, 0, 67, 82
2, 102320, Note_on_c, 0, 82, 0
2, 102326, Note_on_c, 0, 48, 82
2, 102328, Note_on_c, 0, 79, 0
2, 102330, Note_on_c, 0, 82, 103
2, 102337, Note_on_c, 0, 68, 0
2, 102338, Note_on_c, 0, 70, 0
2, 102338, Note_on_c, 0, 62, 0
2, 102338, Note_on_c, 0, 65, 0
2, 102338, Note_on_c, 0, 91, 0
2, 102339, Note_on_c, 0, 79, 86
2, 102339, Note_on_c, 0, 89, 0
2, 102339, Note_on_c, 0, 87, 0
2, 102339, Note_on_c, 0, 74, 0
2, 102339, Note_on_c, 0, 77, 0
2, 102342, Control_c, 0, 64, 0
2, 102343, Note_on_c, 0, 55, 0
2, 102351, Note_on_c, 0, 67, 0
2, 102359, Note_on_c, 0, 86, 0
2, 102428, Control_c, 0, 64, 127
2, 102446, Note_on_c, 0, 55, 74
2, 102522, Note_on_c, 0, 60, 83
2, 102615, Note_on_c, 0, 62, 77
2, 102703, Note_on_c, 0, 63, 72
2, 102779, Note_on_c, 0, 67, 80
2, 102857, Note_on_c, 0, 70, 93
2, 102942, Note_on_c, 0, 67, 0
2, 102951, Note_on_c, 0, 67, 72
2, 103019, Note_on_c, 0, 63, 0
2, 103024, Note_on_c, 0, 63, 64
2, 103096, Note_on_c, 0, 60, 0
2, 103096, Note_on_c, 0, 98, 106
2, 103101, Note_on_c, 0, 60, 73
2, 103102, Note_on_c, 0, 86, 96
2, 103106, Note_on_c, 0, 94, 86
2, 103234, Note_on_c, 0, 48, 0
2, 103234, Note_on_c, 0, 94, 0
2, 103238, Note_on_c, 0, 48, 87
2, 103238, Control_c, 0, 64, 0
2, 103242, Note_on_c, 0, 82, 0
2, 103244, Note_on_c, 0, 63, 0
2, 103244, Note_on_c, 0, 55, 0
2, 103244, Note_on_c, 0, 94, 102
2, 103245, Note_on_c, 0, 67, 0
2, 103246, Note_on_c, 0, 62, 0
2, 103246, Note_on_c, 0, 70, 0
2, 103248, Note_on_c, 0, 82, 95
2, 103249, Note_on_c, 0, 98, 0
2, 103252, Note_on_c, 0, 87, 97
2, 103257, Note_on_c, 0, 79, 0
2, 103334, Control_c, 0, 64, 127
2, 103467, Note_on_c, 0, 55, 65
2, 103534, Note_on_c, 0, 60, 0
2, 103541, Note_on_c, 0, 60, 85
2, 103631, Note_on_c, 0, 62, 79
2, 103717, Note_on_c, 0, 63, 78
2, 103785, Note_on_c, 0, 67, 82
2, 103880, Note_on_c, 0, 70, 97
2, 103964, Note_on_c, 0, 67, 0
2, 103975, Note_on_c, 0, 67, 80
2, 104025, Note_on_c, 0, 63, 0
2, 104029, Note_on_c, 0, 63, 73
2, 104117, Note_on_c, 0, 60, 0
2, 104129, Note_on_c, 0, 60, 79
2, 104135, Note_on_c, 0, 75, 102
2, 104267, Note_on_c, 0, 77, 98
2, 104340, Note_on_c, 0, 86, 0
2, 104343, Note_on_c, 0, 94, 0
2, 104343, Note_on_c, 0, 87, 0
2, 104344, Note_on_c, 0, 62, 0
2, 104344, Note_on_c, 0, 55, 0
2, 104344, Note_on_c, 0, 60, 0
2, 104344, Note_on_c, 0, 63, 0
2, 104344, Note_on_c, 0, 67, 0
2, 104344, Note_on_c, 0, 70, 0
2, 104345, Control_c, 0, 64, 0
2, 104345, Note_on_c, 0, 75, 0
2, 104349, Note_on_c, 0, 77, 0
2, 104355, Note_on_c, 0, 82, 0
2, 104371, Note_on_c, 0, 48, 0
2, 104404, Note_on_c, 0, 79, 105
2, 104405, Note_on_c, 0, 45, 82
2, 104406, Note_on_c, 0, 72, 103
2, 104410, Note_on_c, 0, 75, 93
2, 104448, Control_c, 0, 64, 127
2, 104490, Note_on_c, 0, 51, 81
2, 104566, Note_on_c, 0, 55, 76
2, 104667, Note_on_c, 0, 57, 80
2, 104765, Note_on_c, 0, 60, 65
2, 104843, Note_on_c, 0, 63, 85
2, 104926, Note_on_c, 0, 67, 97
2, 104993, Note_on_c, 0, 63, 0
2, 105002, Note_on_c, 0, 63, 88
2, 105039, Note_on_c, 0, 60, 0
2, 105043, Note_on_c, 0, 60, 66
2, 105139, Note_on_c, 0, 57, 0
2, 105145, Note_on_c, 0, 57, 71
2, 105189, Note_on_c, 0, 77, 94
2, 105315, Note_on_c, 0, 45, 0
2, 105318, Note_on_c, 0, 63, 0
2, 105319, Note_on_c, 0, 51, 0
2, 105319, Note_on_c, 0, 60, 0
2, 105319, Note_on_c, 0, 55, 0
2, 105319, Note_on_c, 0, 57, 0
2, 105319, Note_on_c, 0, 79, 0
2, 105320, Note_on_c, 0, 77, 0
2, 105320, Control_c, 0, 64, 0
2, 105323, Note_on_c, 0, 67, 0
2, 105323, Note_on_c, 0, 72, 0
2, 105323, Note_on_c, 0, 75, 0
2, 105326, Note_on_c, 0, 45, 87
2, 105328, Note_on_c, 0, 75, 100
2, 105329, Note_on_c, 0, 72, 98
2, 105331, Note_on_c, 0, 67, 90
2, 105454, Control_c, 0, 64, 127
2, 105584, Note_on_c, 0, 51, 69
2, 105643, Note_on_c, 0, 55, 82
2, 105728, Note_on_c, 0, 57, 81
2, 105798, Note_on_c, 0, 60, 74
2, 105864, Note_on_c, 0, 63, 90
2, 105937, Note_on_c, 0, 67, 0
2, 105948, Note_on_c, 0, 67, 96
2, 106037, Note_on_c, 0, 63, 0
2, 106044, Note_on_c, 0, 63, 91
2, 106099, Note_on_c, 0, 60, 0
2, 106109, Note_on_c, 0, 60, 80
2, 106199, Note_on_c, 0, 57, 0
2, 106199, Note_on_c, 0, 72, 0
2, 106199, Note_on_c, 0, 75, 0
2, 106203, Note_on_c, 0, 75, 97
2, 106203, Note_on_c, 0, 57, 92
2, 106204, Note_on_c, 0, 72, 96
2, 106339, Note_on_c, 0, 77, 95
2, 106432, Control_c, 0, 64, 0
2, 106442, Note_on_c, 0, 57, 0
2, 106442, Note_on_c, 0, 67, 0
2, 106442, Note_on_c, 0, 63, 0
2, 106443, Note_on_c, 0, 72, 0
2, 106443, Note_on_c, 0, 75, 0
2, 106443, Note_on_c, 0, 55, 0
2, 106444, Note_on_c, 0, 51, 0
2, 106444, Note_on_c, 0, 45, 0
2, 106444, Note_on_c, 0, 60, 0
2, 106448, Note_on_c, 0, 77, 0
2, 106480, Note_on_c, 0, 44, 91
2, 106481, Note_on_c, 0, 82, 105
2, 106482, Note_on_c, 0, 72, 98
2, 106483, Note_on_c, 0, 75, 92
2, 106552, Control_c, 0, 64, 127
2, 106580, Note_on_c, 0, 51, 67
2, 106646, Note_on_c, 0, 55, 79
2, 106755, Note_on_c, 0, 56, 73
2, 106849, Note_on_c, 0, 60, 65
2, 106909, Note_on_c, 0, 63, 85
2, 106997, Note_on_c, 0, 72, 0
2, 106997, Note_on_c, 0, 82, 0
2, 107003, Note_on_c, 0, 67, 94
2, 107004, Note_on_c, 0, 82, 104
2, 107007, Note_on_c, 0, 72, 100
2, 107082, Note_on_c, 0, 63, 0
2, 107086, Note_on_c, 0, 63, 92
2, 107205, Note_on_c, 0, 56, 0
2, 107215, Note_on_c, 0, 56, 85
2, 107271, Note_on_c, 0, 74, 98
2, 107386, Control_c, 0, 64, 0
2, 107386, Note_on_c, 0, 82, 0
2, 107386, Note_on_c, 0, 63, 0
2, 107386, Note_on_c, 0, 60, 0
2, 107387, Note_on_c, 0, 55, 0
2, 107387, Note_on_c, 0, 51, 0
2, 107387, Note_on_c, 0, 67, 0
2, 107387, Note_on_c, 0, 56, 0
2, 107389, Note_on_c, 0, 74, 0
2, 107404, Note_on_c, 0, 44, 0
2, 107404, Note_on_c, 0, 72, 0
2, 107404, Note_on_c, 0, 75, 0
2, 107409, Note_on_c, 0, 72, 97
2, 107409, Note_on_c, 0, 75, 102
2, 107410, Note_on_c, 0, 44, 96
2, 107520, Control_c, 0, 64, 127
2, 107637, Note_on_c, 0, 51, 71
2, 107701, Note_on_c, 0, 55, 75
2, 107813, Note_on_c, 0, 56, 68
2, 107882, Note_on_c, 0, 60, 75
2, 107931, Note_on_c, 0, 63, 87
2, 108011, Note_on_c, 0, 72, 0
2, 108015, Note_on_c, 0, 72, 105
2, 108016, Note_on_c, 0, 67, 98
2, 108103, Note_on_c, 0, 63, 0
2, 108112, Note_on_c, 0, 63, 94
2, 108172, Note_on_c, 0, 60, 0
2, 108183, Note_on_c, 0, 60, 82
2, 108272, Note_on_c, 0, 56, 0
2, 108272, Note_on_c, 0, 75, 0
2, 108276, Note_on_c, 0, 56, 94
2, 108278, Note_on_c, 0, 75, 100
2, 108511, Control_c, 0, 64, 0
2, 108513, Note_on_c, 0, 51, 0
2, 108514, Note_on_c, 0, 60, 0
2, 108514, Note_on_c, 0, 55, 0
2, 108514, Note_on_c, 0, 67, 0
2, 108514, Note_on_c, 0, 75, 0
2, 108514, Note_on_c, 0, 63, 0
2, 108514, Note_on_c, 0, 56, 0
2, 108514, Note_on_c, 0, 72, 0
2, 108514, Note_on_c, 0, 44, 0
2, 108554, Note_on_c, 0, 77, 102
2, 108554, Note_on_c, 0, 72, 102
2, 108555, Note_on_c, 0, 41, 91
2, 108555, Note_on_c, 0, 56, 97
2, 108556, Note_on_c, 0, 68, 102
2, 108557, Note_on_c, 0, 48, 88
2, 108587, Control_c, 0, 64, 127
2, 108783, Note_on_c, 0, 56, 0
2, 108785, Note_on_c, 0, 41, 0
2, 108785, Note_on_c, 0, 48, 0
2, 108789, Control_c, 0, 64, 0
2, 108789, Note_on_c, 0, 72, 0
2, 108790, Note_on_c, 0, 68, 0
2, 108791, Note_on_c, 0, 77, 0
2, 108838, Note_on_c, 0, 75, 96
2, 108910, Note_on_c, 0, 75, 0
2, 108981, Note_on_c, 0, 77, 102
2, 109240, Note_on_c, 0, 75, 102
2, 109309, Note_on_c, 0, 77, 0
2, 109360, Note_on_c, 0, 41, 85
2, 109360, Note_on_c, 0, 56, 92
2, 109362, Note_on_c, 0, 48, 79
2, 109441, Note_on_c, 0, 56, 0
2, 109471, Note_on_c, 0, 48, 0
2, 109476, Note_on_c, 0, 41, 0
2, 109478, Note_on_c, 0, 75, 0
2, 109487, Note_on_c, 0, 75, 92
2, 109622, Note_on_c, 0, 77, 104
2, 109627, Note_on_c, 0, 74, 105
2, 109628, Note_on_c, 0, 50, 93
2, 109628, Note_on_c, 0, 70, 95
2, 109628, Note_on_c, 0, 53, 96
2, 109629, Note_on_c, 0, 43, 94
2, 109639, Note_on_c, 0, 75, 0
2, 109685, Control_c, 0, 64, 127
2, 109876, Note_on_c, 0, 75, 86
2, 109896, Note_on_c, 0, 74, 0
2, 109897, Note_on_c, 0, 43, 0
2, 109897, Note_on_c, 0, 70, 0
2, 109897, Control_c, 0, 64, 0
2, 109898, Note_on_c, 0, 77, 0
2, 109908, Note_on_c, 0, 50, 0
2, 109916, Note_on_c, 0, 53, 0
2, 109926, Note_on_c, 0, 75, 0
2, 110017, Note_on_c, 0, 77, 105
2, 110287, Note_on_c, 0, 79, 106
2, 110330, Note_on_c, 0, 77, 0
2, 110418, Note_on_c, 0, 50, 91
2, 110418, Note_on_c, 0, 53, 96
2, 110419, Note_on_c, 0, 43, 83
2, 110438, Control_c, 0, 64, 127
2, 110507, Note_on_c, 0, 50, 0
2, 110511, Note_on_c, 0, 53, 0
2, 110517, Note_on_c, 0, 43, 0
2, 110522, Note_on_c, 0, 79, 0
2, 110532, Note_on_c, 0, 79, 100
2, 110533, Control_c, 0, 64, 0
2, 110686, Note_on_c, 0, 80, 110
2, 110688, Note_on_c, 0, 75, 101
2, 110689, Note_on_c, 0, 72, 103
2, 110722, Note_on_c, 0, 79, 0
2, 110760, Control_c, 0, 64, 127
2, 110892, Note_on_c, 0, 44, 89
2, 110893, Note_on_c, 0, 32, 77
2, 110899, Note_on_c, 0, 56, 81
2, 111068, Note_on_c, 0, 44, 0
2, 111071, Note_on_c, 0, 60, 95
2, 111072, Note_on_c, 0, 44, 85
2, 111237, Note_on_c, 0, 32, 0
2, 111237, Note_on_c, 0, 44, 0
2, 111237, Note_on_c, 0, 60, 0
2, 111239, Note_on_c, 0, 62, 102
2, 111241, Note_on_c, 0, 60, 90
2, 111241, Note_on_c, 0, 44, 92
2, 111242, Note_on_c, 0, 32, 85
2, 111413, Note_on_c, 0, 32, 0
2, 111413, Note_on_c, 0, 44, 0
2, 111413, Note_on_c, 0, 60, 0
2, 111417, Note_on_c, 0, 63, 103
2, 111418, Note_on_c, 0, 44, 94
2, 111418, Note_on_c, 0, 60, 90
2, 111422, Note_on_c, 0, 32, 84
2, 111575, Note_on_c, 0, 44, 0
2, 111585, Note_on_c, 0, 44, 92
2, 111587, Note_on_c, 0, 65, 104
2, 111640, Control_c, 0, 64, 0
2, 111657, Note_on_c, 0, 80, 0
2, 111660, Note_on_c, 0, 75, 0
2, 111661, Note_on_c, 0, 62, 0
2, 111661, Note_on_c, 0, 72, 0
2, 111662, Note_on_c, 0, 60, 0
2, 111662, Note_on_c, 0, 32, 0
2, 111662, Note_on_c, 0, 63, 0
2, 111663, Note_on_c, 0, 44, 0
2, 111664, Note_on_c, 0, 65, 0
2, 111667, Note_on_c, 0, 56, 0
2, 111747, Note_on_c, 0, 43, 107
2, 111747, Note_on_c, 0, 31, 98
2, 111747, Note_on_c, 0, 62, 104
2, 111748, Note_on_c, 0, 67, 104
2, 111748, Note_on_c, 0, 59, 104
2, 111843, Control_c, 0, 64, 127
2, 112026, Note_on_c, 0, 53, 96
2, 112082, Note_on_c, 0, 50, 91
2, 112151, Note_on_c, 0, 43, 0
2, 112158, Note_on_c, 0, 43, 104
2, 112283, Note_on_c, 0, 78, 112
2, 112370, Note_on_c, 0, 67, 0
2, 112370, Note_on_c, 0, 50, 0
2, 112370, Note_on_c, 0, 62, 0
2, 112370, Note_on_c, 0, 59, 0
2, 112370, Control_c, 0, 64, 0
2, 112371, Note_on_c, 0, 43, 0
2, 112371, Note_on_c, 0, 53, 0
2, 112375, Note_on_c, 0, 78, 0
2, 112389, Note_on_c, 0, 31, 0
2, 112413, Note_on_c, 0, 77, 105
2, 112485, Note_on_c, 0, 77, 0
2, 112545, Note_on_c, 0, 78, 107
2, 112666, Note_on_c, 0, 80, 102
2, 112711, Note_on_c, 0, 78, 0
2, 112797, Note_on_c, 0, 47, 105
2, 112799, Note_on_c, 0, 35, 97
2, 112801, Note_on_c, 0, 78, 106
2, 112801, Note_on_c, 0, 75, 104
2, 112803, Note_on_c, 0, 82, 105
2, 112811, Control_c, 0, 64, 127
2, 113045, Note_on_c, 0, 58, 95
2, 113047, Note_on_c, 0, 54, 84
2, 113052, Note_on_c, 0, 51, 90
2, 113109, Note_on_c, 0, 35, 0
2, 113111, Note_on_c, 0, 80, 0
2, 113111, Note_on_c, 0, 82, 0
2, 113113, Note_on_c, 0, 58, 0
2, 113113, Control_c, 0, 64, 0
2, 113114, Note_on_c, 0, 75, 0
2, 113114, Note_on_c, 0, 47, 0
2, 113115, Note_on_c, 0, 51, 0
2, 113120, Note_on_c, 0, 54, 0
2, 113187, Note_on_c, 0, 78, 0
2, 113193, Note_on_c, 0, 78, 102
2, 113194, Note_on_c, 0, 75, 85
2, 113198, Note_on_c, 0, 47, 86
2, 113244, Note_on_c, 0, 78, 0
2, 113256, Note_on_c, 0, 75, 0
2, 113287, Note_on_c, 0, 47, 0
2, 113320, Note_on_c, 0, 80, 101
2, 113323, Note_on_c, 0, 77, 93
2, 113391, Note_on_c, 0, 77, 0
2, 113450, Note_on_c, 0, 82, 105
2, 113454, Note_on_c, 0, 78, 94
2, 113458, Note_on_c, 0, 47, 95
2, 113472, Control_c, 0, 64, 127
2, 113556, Note_on_c, 0, 80, 0
2, 113576, Note_on_c, 0, 54, 93
2, 113577, Note_on_c, 0, 58, 95
2, 113578, Note_on_c, 0, 51, 85
2, 113702, Note_on_c, 0, 78, 0
2, 113706, Control_c, 0, 64, 0
2, 113709, Note_on_c, 0, 47, 0
2, 113710, Note_on_c, 0, 78, 104
2, 113711, Note_on_c, 0, 75, 97
2, 113711, Note_on_c, 0, 58, 0
2, 113712, Note_on_c, 0, 51, 0
2, 113712, Note_on_c, 0, 54, 0
2, 113712, Note_on_c, 0, 82, 0
2, 113778, Note_on_c, 0, 75, 0
2, 113783, Note_on_c, 0, 78, 0
2, 113844, Note_on_c, 0, 80, 102
2, 113845, Note_on_c, 0, 49, 99
2, 113846, Note_on_c, 0, 77, 101
2, 113846, Note_on_c, 0, 37, 92
2, 113871, Control_c, 0, 64, 127
2, 113979, Note_on_c, 0, 82, 104
2, 114108, Note_on_c, 0, 61, 97
2, 114108, Note_on_c, 0, 56, 84
2, 114112, Note_on_c, 0, 53, 81
2, 114199, Note_on_c, 0, 73, 88
2, 114224, Note_on_c, 0, 77, 0
2, 114224, Note_on_c, 0, 80, 0
2, 114228, Note_on_c, 0, 77, 94
2, 114235, Note_on_c, 0, 80, 103
2, 114235, Note_on_c, 0, 85, 110
2, 114247, Note_on_c, 0, 49, 0
2, 114253, Note_on_c, 0, 49, 95
2, 114259, Control_c, 0, 64, 0
2, 114270, Note_on_c, 0, 82, 0
2, 114270, Note_on_c, 0, 53, 0
2, 114271, Note_on_c, 0, 77, 0
2, 114271, Note_on_c, 0, 61, 0
2, 114271, Note_on_c, 0, 56, 0
2, 114274, Note_on_c, 0, 73, 0
2, 114286, Note_on_c, 0, 37, 0
2, 114316, Note_on_c, 0, 49, 0
2, 114324, Note_on_c, 0, 80, 0
2, 114370, Note_on_c, 0, 85, 0
2, 114494, Note_on_c, 0, 80, 107
2, 114497, Note_on_c, 0, 68, 101
2, 114498, Note_on_c, 0, 49, 89
2, 114531, Control_c, 0, 64, 127
2, 114535, Note_on_c, 0, 68, 0
2, 114559, Control_c, 0, 64, 0
2, 114570, Control_c, 0, 64, 127
2, 114621, Note_on_c, 0, 56, 96
2, 114622, Note_on_c, 0, 61, 96
2, 114622, Note_on_c, 0, 53, 76
2, 114696, Note_on_c, 0, 61, 0
2, 114697, Note_on_c, 0, 49, 0
2, 114698, Note_on_c, 0, 56, 0
2, 114699, Note_on_c, 0, 53, 0
2, 114700, Note_on_c, 0, 80, 0
2, 114708, Control_c, 0, 64, 0
2, 114762, Note_on_c, 0, 80, 106
2, 114764, Note_on_c, 0, 68, 105
2, 114765, Note_on_c, 0, 77, 97
2, 114765, Note_on_c, 0, 73, 103
2, 114816, Control_c, 0, 64, 127
2, 114880, Note_on_c, 0, 46, 105
2, 114881, Note_on_c, 0, 34, 95
2, 115132, Note_on_c, 0, 56, 88
2, 115133, Note_on_c, 0, 53, 87
2, 115209, Note_on_c, 0, 34, 0
2, 115212, Note_on_c, 0, 80, 0
2, 115212, Note_on_c, 0, 73, 0
2, 115212, Note_on_c, 0, 68, 0
2, 115212, Note_on_c, 0, 46, 0
2, 115212, Note_on_c, 0, 77, 0
2, 115214, Control_c, 0, 64, 0
2, 115214, Note_on_c, 0, 53, 0
2, 115214, Note_on_c, 0, 56, 0
2, 115278, Note_on_c, 0, 77, 100
2, 115279, Note_on_c, 0, 73, 99
2, 115281, Note_on_c, 0, 46, 90
2, 115382, Note_on_c, 0, 73, 0
2, 115392, Note_on_c, 0, 46, 0
2, 115399, Note_on_c, 0, 77, 0
2, 115403, Note_on_c, 0, 78, 103
2, 115407, Note_on_c, 0, 75, 95
2, 115464, Note_on_c, 0, 78, 0
2, 115470, Note_on_c, 0, 75, 0
2, 115531, Note_on_c, 0, 80, 104
2, 115533, Note_on_c, 0, 77, 96
2, 115560, Note_on_c, 0, 46, 90
2, 115560, Control_c, 0, 64, 127
2, 115672, Note_on_c, 0, 53, 91
2, 115673, Note_on_c, 0, 56, 96
2, 115796, Note_on_c, 0, 73, 103
2, 115854, Note_on_c, 0, 77, 0
2, 115854, Note_on_c, 0, 80, 0
2, 115855, Note_on_c, 0, 53, 0
2, 115855, Note_on_c, 0, 46, 0
2, 115855, Control_c, 0, 64, 0
2, 115855, Note_on_c, 0, 56, 0
2, 115857, Note_on_c, 0, 73, 0
2, 115921, Note_on_c, 0, 39, 92
2, 115921, Note_on_c, 0, 51, 98
2, 115923, Note_on_c, 0, 80, 103
2, 115952, Control_c, 0, 64, 127
2, 116050, Note_on_c, 0, 78, 102
2, 116167, Note_on_c, 0, 51, 0
2, 116172, Note_on_c, 0, 51, 87
2, 116173, Note_on_c, 0, 77, 98
2, 116298, Note_on_c, 0, 78, 0
2, 116302, Note_on_c, 0, 61, 97
2, 116303, Note_on_c, 0, 78, 107
2, 116305, Note_on_c, 0, 58, 95
2, 116308, Note_on_c, 0, 54, 96
2, 116504, Control_c, 0, 64, 0
2, 116510, Note_on_c, 0, 80, 0
2, 116511, Note_on_c, 0, 58, 0
2, 116512, Note_on_c, 0, 51, 0
2, 116512, Note_on_c, 0, 61, 0
2, 116513, Note_on_c, 0, 77, 0
2, 116514, Note_on_c, 0, 78, 0
2, 116514, Note_on_c, 0, 54, 0
2, 116544, Note_on_c, 0, 39, 0
2, 116555, Note_on_c, 0, 39, 97
2, 116555, Note_on_c, 0, 51, 95
2, 116555, Note_on_c, 0, 75, 103
2, 116590, Control_c, 0, 64, 127
2, 116692, Note_on_c, 0, 78, 102
2, 116726, Control_c, 0, 64, 0
2, 116737, Note_on_c, 0, 75, 0
2, 116737, Note_on_c, 0, 39, 0
2, 116743, Note_on_c, 0, 51, 0
2, 116745, Note_on_c, 0, 78, 0
2, 116801, Note_on_c, 0, 49, 89
2, 116801, Note_on_c, 0, 37, 90
2, 116802, Note_on_c, 0, 80, 101
2, 116832, Note_on_c, 0, 49, 0
2, 116840, Note_on_c, 0, 37, 0
2, 116897, Note_on_c, 0, 80, 0
2, 116939, Note_on_c, 0, 82, 105
2, 116939, Note_on_c, 0, 75, 104
2, 116939, Note_on_c, 0, 78, 105
2, 116940, Note_on_c, 0, 47, 105
2, 116940, Note_on_c, 0, 35, 95
2, 116997, Control_c, 0, 64, 127
2, 117193, Note_on_c, 0, 58, 97
2, 117200, Note_on_c, 0, 54, 77
2, 117201, Note_on_c, 0, 51, 80
2, 117327, Note_on_c, 0, 47, 0
2, 117327, Note_on_c, 0, 75, 0
2, 117327, Note_on_c, 0, 78, 0
2, 117331, Note_on_c, 0, 75, 96
2, 117332, Note_on_c, 0, 35, 0
2, 117333, Note_on_c, 0, 78, 100
2, 117333, Note_on_c, 0, 47, 88
2, 117334, Note_on_c, 0, 58, 0
2, 117335, Note_on_c, 0, 51, 0
2, 117336, Note_on_c, 0, 82, 0
2, 117336, Note_on_c, 0, 54, 0
2, 117338, Control_c, 0, 64, 0
2, 117442, Note_on_c, 0, 75, 0
2, 117462, Note_on_c, 0, 80, 100
2, 117465, Note_on_c, 0, 47, 0
2, 117467, Note_on_c, 0, 77, 93
2, 117469, Note_on_c, 0, 47, 74
2, 117511, Note_on_c, 0, 78, 0
2, 117525, Note_on_c, 0, 80, 0
2, 117529, Note_on_c, 0, 77, 0
2, 117534, Note_on_c, 0, 47, 0
2, 117583, Note_on_c, 0, 82, 109
2, 117593, Note_on_c, 0, 78, 98
2, 117618, Note_on_c, 0, 47, 88
2, 117619, Control_c, 0, 64, 127
2, 117744, Note_on_c, 0, 54, 87
2, 117744, Note_on_c, 0, 51, 81
2, 117745, Note_on_c, 0, 58, 93
2, 117857, Note_on_c, 0, 54, 0
2, 117857, Note_on_c, 0, 78, 0
2, 117861, Note_on_c, 0, 78, 95
2, 117862, Note_on_c, 0, 54, 68
2, 117864, Note_on_c, 0, 75, 76
2, 117885, Control_c, 0, 64, 0
2, 117889, Note_on_c, 0, 47, 0
2, 117890, Note_on_c, 0, 51, 0
2, 117890, Note_on_c, 0, 58, 0
2, 117890, Note_on_c, 0, 82, 0
2, 117918, Note_on_c, 0, 54, 0
2, 117981, Note_on_c, 0, 80, 103
2, 117984, Note_on_c, 0, 77, 96
2, 117985, Note_on_c, 0, 49, 97
2, 117987, Note_on_c, 0, 37, 93
2, 118010, Control_c, 0, 64, 127
2, 118026, Note_on_c, 0, 75, 0
2, 118110, Note_on_c, 0, 78, 0
2, 118116, Note_on_c, 0, 78, 90
2, 118117, Note_on_c, 0, 82, 99
2, 118241, Note_on_c, 0, 49, 0
2, 118244, Note_on_c, 0, 56, 91
2, 118245, Note_on_c, 0, 53, 82
2, 118245, Note_on_c, 0, 61, 99
2, 118248, Note_on_c, 0, 49, 82
2, 118363, Control_c, 0, 64, 0
2, 118371, Note_on_c, 0, 49, 0
2, 118371, Note_on_c, 0, 61, 0
2, 118371, Note_on_c, 0, 77, 0
2, 118371, Note_on_c, 0, 80, 0
2, 118378, Note_on_c, 0, 85, 108
2, 118378, Note_on_c, 0, 77, 94
2, 118380, Note_on_c, 0, 61, 99
2, 118380, Note_on_c, 0, 73, 105
2, 118382, Note_on_c, 0, 80, 98
2, 118382, Note_on_c, 0, 49, 91
2, 118433, Control_c, 0, 64, 127
2, 118594, Note_on_c, 0, 37, 0
2, 118632, Note_on_c, 0, 80, 0
2, 118632, Note_on_c, 0, 82, 0
2, 118636, Note_on_c, 0, 80, 99
2, 118639, Note_on_c, 0, 68, 103
2, 118640, Note_on_c, 0, 49, 0
2, 118640, Note_on_c, 0, 78, 0
2, 118650, Note_on_c, 0, 78, 88
2, 118651, Note_on_c, 0, 37, 78
2, 118651, Note_on_c, 0, 49, 88
2, 118763, Note_on_c, 0, 56, 0
2, 118771, Note_on_c, 0, 61, 0
2, 118774, Note_on_c, 0, 56, 92
2, 118775, Note_on_c, 0, 61, 89
2, 118894, Note_on_c, 0, 68, 0
2, 118894, Note_on_c, 0, 80, 0
2, 118904, Note_on_c, 0, 80, 106
2, 118905, Note_on_c, 0, 68, 106
2, 118907, Note_on_c, 0, 75, 100
2, 118910, Note_on_c, 0, 70, 98
2, 118917, Control_c, 0, 64, 0
2, 118921, Note_on_c, 0, 85, 0
2, 118922, Note_on_c, 0, 78, 0
2, 118924, Note_on_c, 0, 37, 0
2, 118926, Note_on_c, 0, 73, 0
2, 118926, Note_on_c, 0, 77, 0
2, 118927, Note_on_c, 0, 53, 0
2, 118927, Note_on_c, 0, 61, 0
2, 118927, Note_on_c, 0, 49, 0
2, 118940, Note_on_c, 0, 56, 0
2, 119024, Control_c, 0, 64, 127
2, 119029, Note_on_c, 0, 39, 93
2, 119031, Note_on_c, 0, 51, 97
2, 119224, Note_on_c, 0, 75, 0
2, 119230, Note_on_c, 0, 75, 64
2, 119270, Note_on_c, 0, 51, 0
2, 119277, Note_on_c, 0, 51, 86
2, 119400, Note_on_c, 0, 68, 0
2, 119406, Note_on_c, 0, 68, 104
2, 119406, Note_on_c, 0, 58, 96
2, 119410, Note_on_c, 0, 63, 99
2, 119528, Note_on_c, 0, 56, 93
2, 119654, Note_on_c, 0, 51, 0
2, 119663, Note_on_c, 0, 51, 87
2, 119674, Note_on_c, 0, 79, 103
2, 119686, Note_on_c, 0, 67, 89
2, 119766, Note_on_c, 0, 46, 94
2, 119792, Note_on_c, 0, 80, 0
2, 119800, Note_on_c, 0, 68, 0
2, 119801, Note_on_c, 0, 80, 102
2, 119810, Note_on_c, 0, 68, 91
2, 119842, Note_on_c, 0, 58, 0
2, 119842, Note_on_c, 0, 63, 0
2, 119842, Note_on_c, 0, 56, 0
2, 119843, Note_on_c, 0, 80, 0
2, 119843, Control_c, 0, 64, 0
2, 119843, Note_on_c, 0, 46, 0
2, 119844, Note_on_c, 0, 79, 0
2, 119844, Note_on_c, 0, 70, 0
2, 119844, Note_on_c, 0, 75, 0
2, 119844, Note_on_c, 0, 39, 0
2, 119845, Note_on_c, 0, 67, 0
2, 119846, Note_on_c, 0, 68, 0
2, 119861, Note_on_c, 0, 51, 0
2, 119926, Note_on_c, 0, 82, 107
2, 119927, Note_on_c, 0, 70, 105
2, 119928, Note_on_c, 0, 79, 96
2, 119929, Note_on_c, 0, 39, 93
2, 119930, Control_c, 0, 64, 127
2, 119931, Note_on_c, 0, 75, 100
2, 119934, Note_on_c, 0, 27, 86
2, 120176, Note_on_c, 0, 27, 0
2, 120176, Note_on_c, 0, 39, 0
2, 120181, Note_on_c, 0, 39, 79
2, 120183, Note_on_c, 0, 27, 82
2, 120305, Note_on_c, 0, 55, 102
2, 120305, Note_on_c, 0, 58, 101
2, 120310, Note_on_c, 0, 51, 85
2, 120430, Note_on_c, 0, 27, 0
2, 120430, Note_on_c, 0, 39, 0
2, 120436, Note_on_c, 0, 39, 92
2, 120437, Note_on_c, 0, 27, 88
2, 120499, Note_on_c, 0, 51, 0
2, 120505, Note_on_c, 0, 51, 92
2, 120564, Note_on_c, 0, 78, 108
2, 120566, Note_on_c, 0, 66, 105
2, 120695, Note_on_c, 0, 77, 103
2, 120697, Note_on_c, 0, 65, 100
2, 120812, Note_on_c, 0, 27, 0
2, 120814, Note_on_c, 0, 78, 0
2, 120814, Note_on_c, 0, 55, 0
2, 120817, Note_on_c, 0, 82, 0
2, 120817, Note_on_c, 0, 58, 0
2, 120817, Note_on_c, 0, 75, 0
2, 120817, Note_on_c, 0, 51, 0
2, 120818, Note_on_c, 0, 77, 0
2, 120818, Note_on_c, 0, 39, 0
2, 120818, Note_on_c, 0, 79, 0
2, 120818, Note_on_c, 0, 65, 0
2, 120818, Note_on_c, 0, 70, 0
2, 120821, Note_on_c, 0, 66, 0
2, 120821, Control_c, 0, 64, 0
2, 120823, Note_on_c, 0, 78, 108
2, 120825, Note_on_c, 0, 49, 96
2, 120827, Note_on_c, 0, 66, 94
2, 120827, Note_on_c, 0, 37, 95
2, 120867, Note_on_c, 0, 66, 0
2, 120875, Note_on_c, 0, 37, 0
2, 120875, Note_on_c, 0, 49, 0
2, 120890, Note_on_c, 0, 78, 0
2, 120941, Note_on_c, 0, 80, 103
2, 120941, Note_on_c, 0, 68, 100
2, 120974, Note_on_c, 0, 68, 0
2, 121021, Note_on_c, 0, 80, 0
2, 121063, Note_on_c, 0, 82, 107
2, 121063, Note_on_c, 0, 47, 102
2, 121064, Note_on_c, 0, 70, 105
2, 121065, Note_on_c, 0, 75, 95
2, 121070, Note_on_c, 0, 78, 84
2, 121070, Note_on_c, 0, 35, 90
2, 121075, Control_c, 0, 64, 127
2, 121324, Note_on_c, 0, 58, 102
2, 121328, Note_on_c, 0, 51, 87
2, 121330, Note_on_c, 0, 54, 82
2, 121347, Control_c, 0, 64, 0
2, 121361, Note_on_c, 0, 47, 0
2, 121362, Note_on_c, 0, 82, 0
2, 121364, Note_on_c, 0, 70, 0
2, 121365, Note_on_c, 0, 78, 0
2, 121366, Note_on_c, 0, 75, 0
2, 121367, Note_on_c, 0, 35, 0
2, 121370, Note_on_c, 0, 58, 0
2, 121371, Note_on_c, 0, 51, 0
2, 121372, Note_on_c, 0, 54, 0
2, 121475, Note_on_c, 0, 78, 98
2, 121477, Note_on_c, 0, 75, 88
2, 121484, Note_on_c, 0, 47, 79
2, 121513, Note_on_c, 0, 75, 0
2, 121519, Note_on_c, 0, 78, 0
2, 121582, Note_on_c, 0, 47, 0
2, 121593, Note_on_c, 0, 80, 105
2, 121600, Note_on_c, 0, 77, 96
2, 121680, Note_on_c, 0, 77, 0
2, 121720, Note_on_c, 0, 82, 104
2, 121724, Note_on_c, 0, 78, 86
2, 121748, Note_on_c, 0, 47, 93
2, 121751, Control_c, 0, 64, 127
2, 121827, Note_on_c, 0, 80, 0
2, 121861, Note_on_c, 0, 54, 96
2, 121862, Note_on_c, 0, 58, 92
2, 121862, Note_on_c, 0, 51, 86
2, 121973, Note_on_c, 0, 78, 0
2, 121981, Note_on_c, 0, 78, 104
2, 121984, Note_on_c, 0, 75, 93
2, 122000, Note_on_c, 0, 82, 0
2, 122002, Note_on_c, 0, 47, 0
2, 122002, Control_c, 0, 64, 0
2, 122003, Note_on_c, 0, 51, 0
2, 122003, Note_on_c, 0, 58, 0
2, 122003, Note_on_c, 0, 54, 0
2, 122100, Note_on_c, 0, 80, 104
2, 122101, Note_on_c, 0, 49, 98
2, 122104, Note_on_c, 0, 37, 92
2, 122108, Note_on_c, 0, 77, 88
2, 122112, Control_c, 0, 64, 127
2, 122230, Note_on_c, 0, 82, 105
2, 122357, Note_on_c, 0, 49, 0
2, 122365, Note_on_c, 0, 49, 89
2, 122457, Note_on_c, 0, 75, 0
2, 122480, Note_on_c, 0, 80, 0
2, 122488, Note_on_c, 0, 49, 0
2, 122489, Note_on_c, 0, 85, 110
2, 122491, Note_on_c, 0, 80, 100
2, 122491, Note_on_c, 0, 61, 106
2, 122491, Note_on_c, 0, 73, 107
2, 122492, Note_on_c, 0, 56, 96
2, 122493, Note_on_c, 0, 53, 94
2, 122497, Note_on_c, 0, 49, 89
2, 122531, Control_c, 0, 64, 0
2, 122542, Note_on_c, 0, 78, 0
2, 122546, Note_on_c, 0, 49, 0
2, 122546, Note_on_c, 0, 82, 0
2, 122546, Note_on_c, 0, 77, 0
2, 122547, Note_on_c, 0, 80, 0
2, 122548, Note_on_c, 0, 73, 0
2, 122549, Note_on_c, 0, 37, 0
2, 122552, Note_on_c, 0, 53, 0
2, 122553, Note_on_c, 0, 56, 0
2, 122553, Note_on_c, 0, 85, 0
2, 122565, Note_on_c, 0, 61, 0
2, 122748, Note_on_c, 0, 47, 105
2, 122751, Note_on_c, 0, 80, 106
2, 122752, Note_on_c, 0, 68, 106
2, 122752, Note_on_c, 0, 35, 95
2, 122787, Note_on_c, 0, 68, 0
2, 122789, Note_on_c, 0, 47, 0
2, 122791, Note_on_c, 0, 35, 0
2, 122918, Note_on_c, 0, 80, 0
2, 123016, Note_on_c, 0, 46, 104
2, 123019, Note_on_c, 0, 80, 107
2, 123021, Note_on_c, 0, 34, 97
2, 123021, Note_on_c, 0, 68, 103
2, 123022, Note_on_c, 0, 73, 96
2, 123022, Note_on_c, 0, 77, 93
2, 123041, Control_c, 0, 64, 127
2, 123279, Note_on_c, 0, 46, 0
2, 123285, Note_on_c, 0, 46, 73
2, 123408, Note_on_c, 0, 56, 94
2, 123410, Note_on_c, 0, 53, 89
2, 123540, Note_on_c, 0, 77, 0
2, 123548, Note_on_c, 0, 46, 0
2, 123551, Note_on_c, 0, 77, 100
2, 123553, Note_on_c, 0, 65, 94
2, 123557, Note_on_c, 0, 46, 85
2, 123668, Note_on_c, 0, 78, 105
2, 123672, Note_on_c, 0, 66, 96
2, 123793, Note_on_c, 0, 68, 0
2, 123793, Note_on_c, 0, 80, 0
2, 123801, Note_on_c, 0, 80, 107
2, 123804, Note_on_c, 0, 68, 96
2, 123824, Note_on_c, 0, 46, 0
2, 123830, Note_on_c, 0, 46, 91
2, 123916, Note_on_c, 0, 53, 0
2, 123921, Note_on_c, 0, 53, 30
2, 124039, Note_on_c, 0, 73, 0
2, 124049, Note_on_c, 0, 73, 106
2, 124050, Note_on_c, 0, 61, 82
2, 124097, Note_on_c, 0, 66, 0
2, 124098, Note_on_c, 0, 78, 0
2, 124098, Note_on_c, 0, 80, 0
2, 124099, Note_on_c, 0, 65, 0
2, 124099, Note_on_c, 0, 77, 0
2, 124099, Note_on_c, 0, 56, 0
2, 124099, Note_on_c, 0, 53, 0
2, 124099, Note_on_c, 0, 61, 0
2, 124100, Note_on_c, 0, 73, 0
2, 124102, Note_on_c, 0, 46, 0
2, 124105, Control_c, 0, 64, 0
2, 124108, Note_on_c, 0, 34, 0
2, 124116, Note_on_c, 0, 68, 0
2, 124176, Note_on_c, 0, 39, 90
2, 124176, Note_on_c, 0, 85, 109
2, 124178, Note_on_c, 0, 51, 95
2, 124181, Note_on_c, 0, 73, 103
2, 124185, Control_c, 0, 64, 127
2, 124307, Note_on_c, 0, 83, 102
2, 124309, Note_on_c, 0, 71, 97
2, 124432, Note_on_c, 0, 82, 105
2, 124439, Note_on_c, 0, 51, 0
2, 124440, Note_on_c, 0, 70, 94
2, 124449, Note_on_c, 0, 51, 81
2, 124561, Note_on_c, 0, 73, 0
2, 124564, Note_on_c, 0, 78, 106
2, 124566, Note_on_c, 0, 61, 91
2, 124567, Note_on_c, 0, 66, 104
2, 124569, Note_on_c, 0, 51, 0
2, 124569, Note_on_c, 0, 73, 84
2, 124572, Note_on_c, 0, 58, 91
2, 124574, Note_on_c, 0, 54, 85
2, 124575, Note_on_c, 0, 51, 80
2, 124830, Note_on_c, 0, 54, 0
2, 124835, Note_on_c, 0, 77, 101
2, 124838, Note_on_c, 0, 65, 101
2, 124839, Note_on_c, 0, 54, 72
2, 124953, Note_on_c, 0, 51, 0
2, 124962, Note_on_c, 0, 51, 85
2, 125107, Note_on_c, 0, 78, 0
2, 125114, Note_on_c, 0, 66, 0
2, 125118, Note_on_c, 0, 78, 108
2, 125122, Note_on_c, 0, 71, 0
2, 125125, Note_on_c, 0, 66, 100
2, 125129, Note_on_c, 0, 71, 86
2, 125132, Note_on_c, 0, 75, 82
2, 125141, Note_on_c, 0, 54, 0
2, 125141, Note_on_c, 0, 83, 0
2, 125142, Note_on_c, 0, 85, 0
2, 125142, Note_on_c, 0, 61, 0
2, 125142, Note_on_c, 0, 82, 0
2, 125142, Note_on_c, 0, 73, 0
2, 125143, Note_on_c, 0, 65, 0
2, 125143, Note_on_c, 0, 77, 0
2, 125143, Note_on_c, 0, 51, 0
2, 125143, Note_on_c, 0, 39, 0
2, 125143, Note_on_c, 0, 58, 0
2, 125145, Note_on_c, 0, 70, 0
2, 125146, Control_c, 0, 64, 0
2, 125247, Note_on_c, 0, 32, 92
2, 125248, Note_on_c, 0, 44, 94
2, 125391, Control_c, 0, 64, 127
2, 125498, Note_on_c, 0, 44, 0
2, 125510, Note_on_c, 0, 44, 74
2, 125631, Note_on_c, 0, 59, 92
2, 125632, Note_on_c, 0, 54, 77
2, 125632, Note_on_c, 0, 51, 77
2, 125744, Note_on_c, 0, 75, 0
2, 125744, Note_on_c, 0, 78, 0
2, 125748, Note_on_c, 0, 82, 104
2, 125750, Note_on_c, 0, 70, 95
2, 125751, Note_on_c, 0, 78, 92
2, 125753, Note_on_c, 0, 75, 87
2, 125998, Note_on_c, 0, 32, 0
2, 125998, Note_on_c, 0, 44, 0
2, 126004, Note_on_c, 0, 32, 82
2, 126008, Note_on_c, 0, 44, 91
2, 126013, Note_on_c, 0, 82, 0
2, 126022, Note_on_c, 0, 82, 106
2, 126218, Note_on_c, 0, 73, 78
2, 126223, Note_on_c, 0, 44, 0
2, 126223, Control_c, 0, 64, 0
2, 126224, Note_on_c, 0, 59, 0
2, 126225, Note_on_c, 0, 70, 0
2, 126225, Note_on_c, 0, 82, 0
2, 126225, Note_on_c, 0, 75, 0
2, 126225, Note_on_c, 0, 78, 0
2, 126225, Note_on_c, 0, 54, 0
2, 126225, Note_on_c, 0, 51, 0
2, 126228, Note_on_c, 0, 32, 0
2, 126228, Note_on_c, 0, 66, 0
2, 126236, Note_on_c, 0, 71, 0
2, 126279, Note_on_c, 0, 80, 96
2, 126288, Note_on_c, 0, 83, 102
2, 126291, Note_on_c, 0, 46, 98
2, 126293, Note_on_c, 0, 34, 98
2, 126359, Control_c, 0, 64, 127
2, 126543, Note_on_c, 0, 46, 0
2, 126547, Note_on_c, 0, 82, 102
2, 126548, Note_on_c, 0, 46, 84
2, 126673, Note_on_c, 0, 80, 0
2, 126678, Note_on_c, 0, 61, 99
2, 126678, Note_on_c, 0, 56, 91
2, 126678, Note_on_c, 0, 53, 88
2, 126679, Note_on_c, 0, 80, 107
2, 126927, Note_on_c, 0, 83, 0
2, 126934, Note_on_c, 0, 83, 106
2, 127050, Note_on_c, 0, 46, 0
2, 127057, Note_on_c, 0, 46, 79
2, 127080, Note_on_c, 0, 73, 0
2, 127219, Note_on_c, 0, 82, 0
2, 127227, Note_on_c, 0, 82, 109
2, 127229, Note_on_c, 0, 73, 107
2, 127230, Note_on_c, 0, 78, 95
2, 127250, Note_on_c, 0, 53, 0
2, 127251, Note_on_c, 0, 61, 0
2, 127252, Note_on_c, 0, 80, 0
2, 127252, Note_on_c, 0, 46, 0
2, 127252, Note_on_c, 0, 83, 0
2, 127253, Control_c, 0, 64, 0
2, 127253, Note_on_c, 0, 56, 0
2, 127265, Note_on_c, 0, 34, 0
2, 127352, Note_on_c, 0, 47, 105
2, 127353, Note_on_c, 0, 35, 96
2, 127395, Control_c, 0, 64, 127
2, 127626, Note_on_c, 0, 61, 89
2, 127679, Note_on_c, 0, 66, 89
2, 127737, Note_on_c, 0, 68, 96
2, 127756, Note_on_c, 0, 47, 0
2, 127763, Note_on_c, 0, 47, 86
2, 127799, Note_on_c, 0, 70, 79
2, 127848, Note_on_c, 0, 73, 0
2, 127859, Note_on_c, 0, 73, 98
2, 127893, Note_on_c, 0, 54, 89
2, 127895, Note_on_c, 0, 58, 92
2, 127902, Note_on_c, 0, 78, 0
2, 127903, Note_on_c, 0, 51, 82
2, 127906, Note_on_c, 0, 78, 92
2, 127952, Note_on_c, 0, 80, 73
2, 127987, Note_on_c, 0, 82, 0
2, 127993, Note_on_c, 0, 82, 94
2, 128038, Note_on_c, 0, 85, 100
2, 128084, Note_on_c, 0, 90, 97
2, 128136, Note_on_c, 0, 92, 97
2, 128166, Note_on_c, 0, 94, 105
2, 128351, Control_c, 0, 64, 0
2, 128355, Note_on_c, 0, 51, 0
2, 128355, Note_on_c, 0, 35, 0
2, 128356, Note_on_c, 0, 47, 0
2, 128356, Note_on_c, 0, 66, 0
2, 128357, Note_on_c, 0, 78, 0
2, 128357, Note_on_c, 0, 80, 0
2, 128357, Note_on_c, 0, 58, 0
2, 128358, Note_on_c, 0, 68, 0
2, 128358, Note_on_c, 0, 73, 0
2, 128358, Note_on_c, 0, 70, 0
2, 128358, Note_on_c, 0, 54, 0
2, 128358, Note_on_c, 0, 61, 0
2, 128358, Note_on_c, 0, 92, 0
2, 128359, Note_on_c, 0, 82, 0
2, 128359, Note_on_c, 0, 94, 0
2, 128359, Note_on_c, 0, 90, 0
2, 128359, Note_on_c, 0, 85, 0
2, 128423, Note_on_c, 0, 80, 106
2, 128428, Note_on_c, 0, 73, 100
2, 128428, Note_on_c, 0, 77, 97
2, 128429, Note_on_c, 0, 49, 99
2, 128430, Note_on_c, 0, 37, 95
2, 128640, Control_c, 0, 64, 127
2, 128948, Control_c, 0, 64, 0
2, 128949, Note_on_c, 0, 61, 103
2, 128970, Note_on_c, 0, 73, 0
2, 128970, Note_on_c, 0, 80, 0
2, 128977, Note_on_c, 0, 85, 106
2, 128977, Note_on_c, 0, 77, 0
2, 128978, Note_on_c, 0, 80, 102
2, 128978, Note_on_c, 0, 56, 88
2, 128979, Note_on_c, 0, 53, 83
2, 128980, Note_on_c, 0, 73, 104
2, 128981, Note_on_c, 0, 77, 91
2, 129031, Control_c, 0, 64, 127
2, 129093, Note_on_c, 0, 49, 0
2, 129098, Note_on_c, 0, 49, 87
2, 129151, Note_on_c, 0, 44, 89
2, 129223, Note_on_c, 0, 37, 0
2, 129230, Note_on_c, 0, 37, 94
2, 129489, Control_c, 0, 64, 0
2, 129489, Note_on_c, 0, 80, 0
2, 129490, Note_on_c, 0, 77, 0
2, 129490, Note_on_c, 0, 37, 0
2, 129491, Note_on_c, 0, 85, 0
2, 129491, Note_on_c, 0, 49, 0
2, 129491, Note_on_c, 0, 61, 0
2, 129491, Note_on_c, 0, 44, 0
2, 129492, Note_on_c, 0, 53, 0
2, 129493, Note_on_c, 0, 56, 0
2, 129507, Note_on_c, 0, 73, 0
2, 129527, Note_on_c, 0, 46, 94
2, 129527, Note_on_c, 0, 51, 97
2, 129528, Note_on_c, 0, 82, 107
2, 129528, Note_on_c, 0, 70, 106
2, 129530, Note_on_c, 0, 39, 91
2, 129531, Note_on_c, 0, 78, 90
2, 129532, Note_on_c, 0, 75, 97
2, 129569, Control_c, 0, 64, 127
2, 129653, Note_on_c, 0, 70, 0
2, 129653, Note_on_c, 0, 75, 0
2, 129653, Note_on_c, 0, 82, 0
2, 129661, Note_on_c, 0, 78, 0
2, 129664, Note_on_c, 0, 70, 101
2, 129664, Note_on_c, 0, 82, 98
2, 129664, Note_on_c, 0, 75, 101
2, 129666, Note_on_c, 0, 78, 94
2, 129718, Control_c, 0, 64, 0
2, 129723, Note_on_c, 0, 70, 0
2, 129724, Note_on_c, 0, 82, 0
2, 129724, Note_on_c, 0, 39, 0
2, 129724, Note_on_c, 0, 75, 0
2, 129725, Note_on_c, 0, 51, 0
2, 129725, Note_on_c, 0, 78, 0
2, 129730, Note_on_c, 0, 46, 0
2, 130062, Note_on_c, 0, 58, 94
2, 130064, Note_on_c, 0, 54, 94
2, 130067, Note_on_c, 0, 51, 88
2, 130092, Note_on_c, 0, 54, 0
2, 130092, Note_on_c, 0, 58, 0
2, 130114, Note_on_c, 0, 51, 0
2, 130333, Note_on_c, 0, 51, 67
2, 130334, Note_on_c, 0, 39, 68
2, 130364, Note_on_c, 0, 51, 0
2, 130370, Note_on_c, 0, 39, 0
2, 130462, Note_on_c, 0, 70, 100
2, 130464, Note_on_c, 0, 49, 91
2, 130464, Note_on_c, 0, 66, 88
2, 130464, Note_on_c, 0, 63, 85
2, 130466, Note_on_c, 0, 37, 91
2, 130498, Control_c, 0, 64, 127
2, 130719, Note_on_c, 0, 68, 100
2, 130784, Note_on_c, 0, 63, 0
2, 130785, Note_on_c, 0, 70, 0
2, 130785, Note_on_c, 0, 66, 0
2, 130785, Note_on_c, 0, 37, 0
2, 130785, Note_on_c, 0, 49, 0
2, 130786, Control_c, 0, 64, 0
2, 130788, Note_on_c, 0, 68, 0
2, 130854, Note_on_c, 0, 66, 91
2, 130855, Note_on_c, 0, 49, 83
2, 130885, Note_on_c, 0, 49, 0
2, 130913, Note_on_c, 0, 66, 0
2, 130979, Note_on_c, 0, 65, 98
2, 130984, Note_on_c, 0, 53, 88
2, 130985, Note_on_c, 0, 61, 95
2, 130986, Note_on_c, 0, 58, 90
2, 131013, Control_c, 0, 64, 127
2, 131230, Note_on_c, 0, 63, 96
2, 131354, Note_on_c, 0, 49, 84
2, 131354, Note_on_c, 0, 37, 87
2, 131412, Note_on_c, 0, 65, 0
2, 131423, Note_on_c, 0, 65, 85
2, 131468, Note_on_c, 0, 66, 93
2, 131491, Note_on_c, 0, 68, 96
2, 131525, Control_c, 0, 64, 0
2, 131526, Note_on_c, 0, 58, 0
2, 131528, Note_on_c, 0, 61, 0
2, 131528, Note_on_c, 0, 63, 0
2, 131529, Note_on_c, 0, 49, 0
2, 131529, Note_on_c, 0, 37, 0
2, 131529, Note_on_c, 0, 53, 0
2, 131530, Note_on_c, 0, 66, 0
2, 131531, Note_on_c, 0, 68, 0
2, 131550, Note_on_c, 0, 65, 0
2, 131607, Note_on_c, 0, 82, 103
2, 131607, Note_on_c, 0, 75, 102
2, 131608, Note_on_c, 0, 47, 103
2, 131608, Note_on_c, 0, 70, 103
2, 131609, Note_on_c, 0, 78, 95
2, 131614, Note_on_c, 0, 35, 94
2, 131619, Control_c, 0, 64, 127
2, 131742, Note_on_c, 0, 70, 0
2, 131742, Note_on_c, 0, 75, 0
2, 131742, Note_on_c, 0, 78, 0
2, 131742, Note_on_c, 0, 82, 0
2, 131746, Note_on_c, 0, 35, 0
2, 131747, Note_on_c, 0, 47, 0
2, 131748, Note_on_c, 0, 82, 101
2, 131749, Note_on_c, 0, 70, 99
2, 131749, Note_on_c, 0, 75, 95
2, 131750, Note_on_c, 0, 78, 99
2, 131758, Control_c, 0, 64, 0
2, 131796, Note_on_c, 0, 70, 0
2, 131796, Note_on_c, 0, 75, 0
2, 131804, Note_on_c, 0, 78, 0
2, 131804, Note_on_c, 0, 82, 0
2, 132007, Note_on_c, 0, 47, 95
2, 132089, Note_on_c, 0, 47, 0
2, 132131, Note_on_c, 0, 54, 101
2, 132132, Note_on_c, 0, 58, 98
2, 132136, Note_on_c, 0, 51, 93
2, 132162, Note_on_c, 0, 58, 0
2, 132162, Note_on_c, 0, 51, 0
2, 132162, Note_on_c, 0, 54, 0
2, 132395, Note_on_c, 0, 47, 82
2, 132396, Note_on_c, 0, 35, 79
2, 132428, Note_on_c, 0, 47, 0
2, 132429, Note_on_c, 0, 35, 0
2, 132537, Note_on_c, 0, 66, 93
2, 132537, Note_on_c, 0, 70, 99
2, 132537, Note_on_c, 0, 63, 92
2, 132538, Note_on_c, 0, 49, 96
2, 132542, Note_on_c, 0, 37, 94
2, 132595, Control_c, 0, 64, 127
2, 132798, Note_on_c, 0, 68, 93
2, 132868, Note_on_c, 0, 37, 0
2, 132868, Note_on_c, 0, 66, 0
2, 132868, Control_c, 0, 64, 0
2, 132869, Note_on_c, 0, 68, 0
2, 132879, Note_on_c, 0, 49, 0
2, 132879, Note_on_c, 0, 63, 0
2, 132879, Note_on_c, 0, 70, 0
2, 132913, Note_on_c, 0, 73, 101
2, 132923, Note_on_c, 0, 49, 86
2, 132968, Note_on_c, 0, 73, 0
2, 133046, Note_on_c, 0, 71, 103
2, 133047, Note_on_c, 0, 53, 87
2, 133050, Note_on_c, 0, 61, 102
2, 133050, Note_on_c, 0, 56, 98
2, 133052, Note_on_c, 0, 65, 89
2, 133086, Note_on_c, 0, 49, 0
2, 133102, Control_c, 0, 64, 127
2, 133155, Note_on_c, 0, 65, 0
2, 133289, Note_on_c, 0, 70, 100
2, 133420, Note_on_c, 0, 49, 90
2, 133420, Note_on_c, 0, 37, 93
2, 133428, Note_on_c, 0, 75, 91
2, 133490, Note_on_c, 0, 77, 83
2, 133549, Note_on_c, 0, 78, 93
2, 133568, Control_c, 0, 64, 0
2, 133583, Note_on_c, 0, 37, 0
2, 133585, Note_on_c, 0, 70, 0
2, 133585, Note_on_c, 0, 71, 0
2, 133585, Note_on_c, 0, 53, 0
2, 133586, Note_on_c, 0, 56, 0
2, 133587, Note_on_c, 0, 49, 0
2, 133589, Note_on_c, 0, 75, 0
2, 133592, Note_on_c, 0, 77, 0
2, 133593, Note_on_c, 0, 61, 0
2, 133604, Note_on_c, 0, 78, 0
2, 133671, Note_on_c, 0, 82, 104
2, 133672, Note_on_c, 0, 51, 93
2, 133672, Note_on_c, 0, 75, 100
2, 133673, Note_on_c, 0, 78, 99
2, 133674, Note_on_c, 0, 46, 95
2, 133675, Note_on_c, 0, 39, 90
2, 133693, Control_c, 0, 64, 127
2, 133800, Note_on_c, 0, 75, 0
2, 133800, Note_on_c, 0, 78, 0
2, 133800, Note_on_c, 0, 82, 0
2, 133805, Note_on_c, 0, 82, 98
2, 133805, Note_on_c, 0, 78, 91
2, 133806, Note_on_c, 0, 75, 96
2, 133923, Note_on_c, 0, 39, 0
2, 133923, Note_on_c, 0, 46, 0
2, 133923, Note_on_c, 0, 51, 0
2, 133923, Note_on_c, 0, 75, 0
2, 133923, Note_on_c, 0, 82, 0
2, 133927, Note_on_c, 0, 51, 96
2, 133928, Note_on_c, 0, 39, 91
2, 133931, Note_on_c, 0, 78, 0
2, 133932, Note_on_c, 0, 46, 89
2, 133935, Note_on_c, 0, 75, 102
2, 133935, Note_on_c, 0, 82, 102
2, 133935, Note_on_c, 0, 78, 102
2, 134009, Control_c, 0, 64, 0
2, 134020, Note_on_c, 0, 82, 0
2, 134020, Note_on_c, 0, 75, 0
2, 134020, Note_on_c, 0, 78, 0
2, 134020, Note_on_c, 0, 46, 0
2, 134020, Note_on_c, 0, 51, 0
2, 134022, Note_on_c, 0, 39, 0
2, 134188, Note_on_c, 0, 58, 95
2, 134191, Note_on_c, 0, 54, 95
2, 134196, Note_on_c, 0, 51, 86
2, 134221, Note_on_c, 0, 58, 0
2, 134225, Note_on_c, 0, 54, 0
2, 134246, Note_on_c, 0, 51, 0
2, 134455, Note_on_c, 0, 46, 78
2, 134456, Note_on_c, 0, 39, 74
2, 134457, Note_on_c, 0, 51, 71
2, 134496, Note_on_c, 0, 46, 0
2, 134496, Note_on_c, 0, 39, 0
2, 134553, Note_on_c, 0, 51, 0
2, 134594, Note_on_c, 0, 70, 100
2, 134595, Note_on_c, 0, 53, 98
2, 134596, Note_on_c, 0, 49, 91
2, 134596, Note_on_c, 0, 41, 94
2, 134851, Note_on_c, 0, 68, 94
2, 134991, Note_on_c, 0, 53, 0
2, 134996, Note_on_c, 0, 66, 97
2, 134998, Note_on_c, 0, 53, 85
2, 135118, Note_on_c, 0, 61, 100
2, 135119, Note_on_c, 0, 65, 100
2, 135119, Note_on_c, 0, 56, 96
2, 135144, Control_c, 0, 64, 127
2, 135372, Note_on_c, 0, 63, 100
2, 135482, Note_on_c, 0, 49, 0
2, 135490, Note_on_c, 0, 41, 0
2, 135490, Note_on_c, 0, 53, 0
2, 135494, Note_on_c, 0, 49, 80
2, 135495, Note_on_c, 0, 53, 89
2, 135495, Note_on_c, 0, 41, 91
2, 135605, Note_on_c, 0, 66, 0
2, 135610, Note_on_c, 0, 66, 96
2, 135628, Note_on_c, 0, 68, 0
2, 135638, Note_on_c, 0, 68, 85
2, 135656, Control_c, 0, 64, 0
2, 135687, Note_on_c, 0, 68, 0
2, 135688, Note_on_c, 0, 56, 0
2, 135688, Note_on_c, 0, 61, 0
2, 135689, Note_on_c, 0, 49, 0
2, 135690, Note_on_c, 0, 41, 0
2, 135690, Note_on_c, 0, 65, 0
2, 135690, Note_on_c, 0, 66, 0
2, 135690, Note_on_c, 0, 63, 0
2, 135691, Note_on_c, 0, 53, 0
2, 135697, Note_on_c, 0, 70, 0
2, 135752, Note_on_c, 0, 47, 103
2, 135755, Note_on_c, 0, 75, 103
2, 135755, Note_on_c, 0, 70, 105
2, 135755, Note_on_c, 0, 78, 102
2, 135756, Note_on_c, 0, 42, 96
2, 135756, Note_on_c, 0, 82, 100
2, 135758, Note_on_c, 0, 35, 92
2, 135774, Control_c, 0, 64, 127
2, 135874, Note_on_c, 0, 42, 0
2, 135874, Note_on_c, 0, 70, 0
2, 135874, Note_on_c, 0, 75, 0
2, 135874, Note_on_c, 0, 78, 0
2, 135874, Note_on_c, 0, 82, 0
2, 135882, Note_on_c, 0, 75, 95
2, 135883, Note_on_c, 0, 42, 81
2, 135884, Note_on_c, 0, 82, 100
2, 135885, Note_on_c, 0, 70, 99
2, 135885, Note_on_c, 0, 78, 90
2, 136005, Note_on_c, 0, 70, 0
2, 136005, Note_on_c, 0, 75, 0
2, 136005, Note_on_c, 0, 78, 0
2, 136005, Note_on_c, 0, 82, 0
2, 136011, Note_on_c, 0, 75, 96
2, 136012, Note_on_c, 0, 70, 99
2, 136014, Note_on_c, 0, 78, 96
2, 136014, Note_on_c, 0, 82, 103
2, 136056, Control_c, 0, 64, 0
2, 136062, Note_on_c, 0, 78, 0
2, 136063, Note_on_c, 0, 82, 0
2, 136063, Note_on_c, 0, 47, 0
2, 136074, Note_on_c, 0, 35, 0
2, 136074, Note_on_c, 0, 70, 0
2, 136074, Note_on_c, 0, 75, 0
2, 136089, Note_on_c, 0, 42, 0
2, 136145, Note_on_c, 0, 47, 92
2, 136238, Note_on_c, 0, 47, 0
2, 136274, Note_on_c, 0, 54, 97
2, 136274, Note_on_c, 0, 58, 95
2, 136276, Note_on_c, 0, 51, 89
2, 136308, Note_on_c, 0, 54, 0
2, 136308, Note_on_c, 0, 58, 0
2, 136335, Note_on_c, 0, 51, 0
2, 136526, Note_on_c, 0, 47, 86
2, 136529, Note_on_c, 0, 35, 82
2, 136555, Note_on_c, 0, 47, 0
2, 136558, Note_on_c, 0, 35, 0
2, 136683, Note_on_c, 0, 82, 107
2, 136683, Note_on_c, 0, 70, 104
2, 136684, Note_on_c, 0, 75, 99
2, 136685, Note_on_c, 0, 78, 89
2, 136690, Note_on_c, 0, 49, 98
2, 136692, Note_on_c, 0, 37, 92
2, 136734, Control_c, 0, 64, 127
2, 136922, Note_on_c, 0, 80, 96
2, 136923, Note_on_c, 0, 68, 88
2, 137068, Note_on_c, 0, 85, 107
2, 137070, Note_on_c, 0, 73, 88
2, 137118, Note_on_c, 0, 70, 0
2, 137122, Control_c, 0, 64, 0
2, 137125, Note_on_c, 0, 75, 0
2, 137125, Note_on_c, 0, 78, 0
2, 137127, Note_on_c, 0, 37, 0
2, 137127, Note_on_c, 0, 49, 0
2, 137128, Note_on_c, 0, 82, 0
2, 137129, Note_on_c, 0, 80, 0
2, 137129, Note_on_c, 0, 68, 0
2, 137131, Note_on_c, 0, 73, 0
2, 137136, Note_on_c, 0, 85, 0
2, 137199, Note_on_c, 0, 46, 95
2, 137199, Note_on_c, 0, 34, 92
2, 137200, Note_on_c, 0, 83, 105
2, 137203, Note_on_c, 0, 71, 101
2, 137240, Note_on_c, 0, 71, 0
2, 137318, Control_c, 0, 64, 127
2, 137326, Note_on_c, 0, 83, 0
2, 137433, Control_c, 0, 64, 0
2, 137453, Note_on_c, 0, 82, 102
2, 137454, Note_on_c, 0, 70, 95
2, 137455, Note_on_c, 0, 77, 79
2, 137457, Note_on_c, 0, 74, 70
2, 137518, Control_c, 0, 64, 127
2, 137588, Note_on_c, 0, 53, 84
2, 137590, Note_on_c, 0, 50, 72
2, 137736, Note_on_c, 0, 63, 69
2, 137782, Control_c, 0, 64, 0
2, 137788, Note_on_c, 0, 46, 0
2, 137789, Note_on_c, 0, 74, 0
2, 137789, Note_on_c, 0, 53, 0
2, 137790, Note_on_c, 0, 77, 0
2, 137790, Note_on_c, 0, 82, 0
2, 137791, Note_on_c, 0, 50, 0
2, 137791, Note_on_c, 0, 70, 0
2, 137793, Note_on_c, 0, 66, 83
2, 137800, Note_on_c, 0, 63, 0
2, 137802, Note_on_c, 0, 34, 0
2, 137839, Note_on_c, 0, 68, 79
2, 137867, Note_on_c, 0, 47, 85
2, 137867, Note_on_c, 0, 35, 76
2, 137868, Note_on_c, 0, 70, 98
2, 137910, Note_on_c, 0, 66, 0
2, 137911, Note_on_c, 0, 68, 0
2, 138017, Control_c, 0, 64, 127
2, 138270, Note_on_c, 0, 47, 0
2, 138280, Note_on_c, 0, 47, 65
2, 138419, Note_on_c, 0, 54, 78
2, 138555, Note_on_c, 0, 56, 80
2, 138669, Note_on_c, 0, 58, 84
2, 138720, Control_c, 0, 64, 0
2, 138721, Note_on_c, 0, 47, 0
2, 138721, Note_on_c, 0, 35, 0
2, 138723, Note_on_c, 0, 54, 0
2, 138724, Note_on_c, 0, 56, 0
2, 138804, Note_on_c, 0, 37, 82
2, 138806, Note_on_c, 0, 56, 92
2, 138845, Note_on_c, 0, 58, 0
2, 138854, Note_on_c, 0, 70, 0
2, 138885, Control_c, 0, 64, 127
2, 139191, Note_on_c, 0, 61, 96
2, 139204, Note_on_c, 0, 49, 76
2, 139347, Note_on_c, 0, 53, 76
2, 139445, Note_on_c, 0, 56, 0
2, 139451, Note_on_c, 0, 56, 90
2, 139452, Note_on_c, 0, 66, 103
2, 139577, Note_on_c, 0, 75, 94
2, 139669, Note_on_c, 0, 49, 0
2, 139670, Note_on_c, 0, 37, 0
2, 139671, Note_on_c, 0, 61, 0
2, 139672, Note_on_c, 0, 56, 0
2, 139672, Control_c, 0, 64, 0
2, 139673, Note_on_c, 0, 53, 0
2, 139674, Note_on_c, 0, 66, 0
2, 139706, Note_on_c, 0, 47, 92
2, 139708, Note_on_c, 0, 35, 87
2, 139740, Note_on_c, 0, 47, 0
2, 139742, Note_on_c, 0, 35, 0
2, 139856, Note_on_c, 0, 73, 106
2, 139864, Note_on_c, 0, 68, 87
2, 139864, Note_on_c, 0, 65, 78
2, 139864, Note_on_c, 0, 61, 84
2, 139929, Note_on_c, 0, 75, 0
2, 139974, Note_on_c, 0, 46, 85
2, 139977, Note_on_c, 0, 34, 86
2, 140090, Control_c, 0, 64, 127
2, 140359, Note_on_c, 0, 46, 0
2, 140370, Note_on_c, 0, 46, 80
2, 140495, Note_on_c, 0, 53, 88
2, 140650, Note_on_c, 0, 54, 93
2, 140769, Note_on_c, 0, 56, 90
2, 140799, Control_c, 0, 64, 0
2, 140810, Note_on_c, 0, 34, 0
2, 140810, Note_on_c, 0, 73, 0
2, 140810, Note_on_c, 0, 54, 0
2, 140811, Note_on_c, 0, 61, 0
2, 140812, Note_on_c, 0, 46, 0
2, 140812, Note_on_c, 0, 53, 0
2, 140813, Note_on_c, 0, 68, 0
2, 140891, Note_on_c, 0, 39, 78
2, 140893, Note_on_c, 0, 56, 0
2, 140893, Note_on_c, 0, 54, 93
2, 140893, Note_on_c, 0, 51, 83
2, 140935, Control_c, 0, 64, 127
2, 141159, Note_on_c, 0, 70, 93
2, 141167, Note_on_c, 0, 46, 80
2, 141287, Note_on_c, 0, 68, 95
2, 141288, Note_on_c, 0, 51, 0
2, 141292, Note_on_c, 0, 51, 79
2, 141422, Note_on_c, 0, 66, 100
2, 141427, Note_on_c, 0, 54, 0
2, 141433, Note_on_c, 0, 54, 88
2, 141672, Note_on_c, 0, 65, 0
2, 141681, Note_on_c, 0, 65, 96
2, 141788, Note_on_c, 0, 39, 0
2, 141795, Note_on_c, 0, 39, 73
2, 141854, Note_on_c, 0, 63, 87
2, 141888, Note_on_c, 0, 65, 0
2, 141897, Note_on_c, 0, 65, 71
2, 141949, Note_on_c, 0, 66, 0
2, 141958, Note_on_c, 0, 66, 85
2, 141964, Note_on_c, 0, 68, 0
2, 141976, Note_on_c, 0, 68, 87
2, 141991, Control_c, 0, 64, 0
2, 142007, Note_on_c, 0, 65, 0
2, 142012, Note_on_c, 0, 54, 0
2, 142012, Note_on_c, 0, 66, 0
2, 142014, Note_on_c, 0, 46, 0
2, 142014, Note_on_c, 0, 63, 0
2, 142016, Note_on_c, 0, 39, 0
2, 142017, Note_on_c, 0, 51, 0
2, 142049, Note_on_c, 0, 70, 0
2, 142054, Note_on_c, 0, 70, 101
2, 142059, Note_on_c, 0, 48, 86
2, 142060, Note_on_c, 0, 36, 85
2, 142149, Control_c, 0, 64, 127
2, 142210, Note_on_c, 0, 68, 0
2, 142456, Note_on_c, 0, 48, 0
2, 142461, Note_on_c, 0, 48, 78
2, 142595, Note_on_c, 0, 54, 95
2, 142732, Note_on_c, 0, 56, 89
2, 142843, Note_on_c, 0, 58, 88
2, 142860, Control_c, 0, 64, 0
2, 142869, Note_on_c, 0, 70, 0
2, 142872, Note_on_c, 0, 54, 0
2, 142873, Note_on_c, 0, 36, 0
2, 142874, Note_on_c, 0, 48, 0
2, 142874, Note_on_c, 0, 56, 0
2, 142968, Note_on_c, 0, 35, 89
2, 142969, Note_on_c, 0, 47, 89
2, 142970, Note_on_c, 0, 56, 96
2, 142986, Note_on_c, 0, 58, 0
2, 143009, Control_c, 0, 64, 127
2, 143216, Note_on_c, 0, 47, 0
2, 143227, Note_on_c, 0, 47, 77
2, 143362, Note_on_c, 0, 61, 93
2, 143481, Note_on_c, 0, 51, 69
2, 143613, Note_on_c, 0, 66, 97
2, 143613, Note_on_c, 0, 54, 91
2, 143614, Note_on_c, 0, 59, 91
2, 143740, Note_on_c, 0, 75, 93
2, 143831, Note_on_c, 0, 47, 0
2, 143842, Note_on_c, 0, 47, 88
2, 144002, Note_on_c, 0, 73, 108
2, 144008, Note_on_c, 0, 68, 91
2, 144009, Note_on_c, 0, 65, 90
2, 144026, Control_c, 0, 64, 0
2, 144027, Note_on_c, 0, 61, 0
2, 144029, Note_on_c, 0, 66, 0
2, 144030, Note_on_c, 0, 75, 0
2, 144030, Note_on_c, 0, 54, 0
2, 144030, Note_on_c, 0, 56, 0
2, 144030, Note_on_c, 0, 59, 0
2, 144031, Note_on_c, 0, 51, 0
2, 144031, Note_on_c, 0, 47, 0
2, 144033, Note_on_c, 0, 35, 0
2, 144125, Note_on_c, 0, 46, 87
2, 144126, Note_on_c, 0, 34, 87
2, 144145, Control_c, 0, 64, 127
2, 144522, Note_on_c, 0, 68, 0
2, 144529, Note_on_c, 0, 46, 0
2, 144529, Note_on_c, 0, 65, 0
2, 144533, Note_on_c, 0, 68, 101
2, 144540, Note_on_c, 0, 46, 87
2, 144540, Note_on_c, 0, 65, 72
2, 144664, Note_on_c, 0, 53, 86
2, 144665, Note_on_c, 0, 56, 92
2, 144791, Note_on_c, 0, 65, 0
2, 144798, Note_on_c, 0, 56, 0
2, 144801, Note_on_c, 0, 65, 94
2, 144802, Note_on_c, 0, 61, 91
2, 144805, Note_on_c, 0, 56, 76
2, 144883, Note_on_c, 0, 46, 0
2, 144888, Note_on_c, 0, 46, 83
2, 145014, Control_c, 0, 64, 0
2, 145020, Note_on_c, 0, 61, 0
2, 145020, Note_on_c, 0, 73, 0
2, 145020, Note_on_c, 0, 56, 0
2, 145021, Note_on_c, 0, 46, 0
2, 145022, Note_on_c, 0, 68, 0
2, 145022, Note_on_c, 0, 53, 0
2, 145029, Note_on_c, 0, 34, 0
2, 145052, Note_on_c, 0, 65, 0
2, 145071, Note_on_c, 0, 68, 102
2, 145073, Note_on_c, 0, 65, 88
2, 145078, Note_on_c, 0, 51, 95
2, 145078, Note_on_c, 0, 39, 91
2, 145144, Note_on_c, 0, 65, 0
2, 145152, Control_c, 0, 64, 127
2, 145322, Note_on_c, 0, 70, 95
2, 145331, Note_on_c, 0, 46, 80
2, 145443, Note_on_c, 0, 70, 0
2, 145454, Note_on_c, 0, 70, 101
2, 145458, Note_on_c, 0, 63, 94
2, 145458, Note_on_c, 0, 67, 93
2, 145566, Note_on_c, 0, 39, 0
2, 145571, Note_on_c, 0, 39, 79
2, 145689, Note_on_c, 0, 46, 0
2, 145689, Note_on_c, 0, 51, 0
2, 145693, Note_on_c, 0, 55, 100
2, 145694, Note_on_c, 0, 46, 96
2, 145694, Note_on_c, 0, 51, 89
2, 145751, Note_on_c, 0, 63, 0
2, 145756, Note_on_c, 0, 63, 93
2, 145804, Note_on_c, 0, 67, 0
2, 145808, Note_on_c, 0, 67, 87
2, 145858, Note_on_c, 0, 68, 0
2, 145866, Note_on_c, 0, 68, 92
2, 145912, Note_on_c, 0, 70, 0
2, 145922, Note_on_c, 0, 70, 90
2, 145935, Note_on_c, 0, 51, 0
2, 145943, Note_on_c, 0, 39, 0
2, 145946, Note_on_c, 0, 51, 90
2, 145947, Note_on_c, 0, 39, 86
2, 145966, Note_on_c, 0, 75, 100
2, 146001, Note_on_c, 0, 79, 92
2, 146051, Note_on_c, 0, 80, 98
2, 146100, Note_on_c, 0, 82, 101
2, 146206, Note_on_c, 0, 68, 0
2, 146206, Note_on_c, 0, 63, 0
2, 146207, Note_on_c, 0, 80, 0
2, 146207, Note_on_c, 0, 82, 0
2, 146207, Note_on_c, 0, 51, 0
2, 146207, Note_on_c, 0, 75, 0
2, 146207, Note_on_c, 0, 39, 0
2, 146207, Note_on_c, 0, 79, 0
2, 146207, Note_on_c, 0, 55, 0
2, 146207, Note_on_c, 0, 70, 0
2, 146208, Note_on_c, 0, 46, 0
2, 146208, Note_on_c, 0, 67, 0
2, 146210, Control_c, 0, 64, 0
2, 146249, Note_on_c, 0, 87, 111
2, 146252, Note_on_c, 0, 75, 109
2, 146252, Note_on_c, 0, 78, 106
2, 146500, Note_on_c, 0, 47, 107
2, 146505, Note_on_c, 0, 35, 96
2, 146511, Control_c, 0, 64, 127
2, 146641, Note_on_c, 0, 47, 0
2, 146651, Note_on_c, 0, 47, 93
2, 146738, Note_on_c, 0, 54, 102
2, 146742, Note_on_c, 0, 51, 87
2, 146767, Note_on_c, 0, 63, 102
2, 146769, Note_on_c, 0, 58, 98
2, 146880, Note_on_c, 0, 35, 0
2, 146884, Note_on_c, 0, 35, 82
2, 146995, Note_on_c, 0, 58, 0
2, 147002, Note_on_c, 0, 63, 0
2, 147003, Note_on_c, 0, 58, 86
2, 147006, Note_on_c, 0, 42, 95
2, 147007, Note_on_c, 0, 63, 100
2, 147019, Control_c, 0, 64, 0
2, 147037, Note_on_c, 0, 35, 0
2, 147037, Note_on_c, 0, 51, 0
2, 147041, Note_on_c, 0, 54, 0
2, 147056, Note_on_c, 0, 47, 0
2, 147056, Note_on_c, 0, 87, 0
2, 147072, Note_on_c, 0, 75, 0
2, 147079, Note_on_c, 0, 58, 0
2, 147082, Note_on_c, 0, 42, 0
2, 147087, Note_on_c, 0, 78, 0
2, 147095, Note_on_c, 0, 63, 0
2, 147152, Note_on_c, 0, 85, 109
2, 147153, Note_on_c, 0, 73, 108
2, 147154, Note_on_c, 0, 37, 98
2, 147155, Note_on_c, 0, 49, 100
2, 147210, Control_c, 0, 64, 127
2, 147406, Note_on_c, 0, 80, 106
2, 147411, Note_on_c, 0, 68, 99
2, 147525, Note_on_c, 0, 49, 0
2, 147534, Note_on_c, 0, 49, 95
2, 147666, Note_on_c, 0, 61, 107
2, 147666, Note_on_c, 0, 90, 114
2, 147667, Note_on_c, 0, 78, 111
2, 147667, Note_on_c, 0, 53, 91
2, 147669, Note_on_c, 0, 56, 99
2, 147745, Control_c, 0, 64, 0
2, 147747, Note_on_c, 0, 68, 0
2, 147747, Note_on_c, 0, 49, 0
2, 147747, Note_on_c, 0, 85, 0
2, 147748, Note_on_c, 0, 73, 0
2, 147748, Note_on_c, 0, 61, 0
2, 147748, Note_on_c, 0, 56, 0
2, 147748, Note_on_c, 0, 80, 0
2, 147750, Note_on_c, 0, 53, 0
2, 147751, Note_on_c, 0, 78, 0
2, 147753, Note_on_c, 0, 90, 0
2, 147755, Note_on_c, 0, 37, 0
2, 147938, Note_on_c, 0, 89, 110
2, 147939, Note_on_c, 0, 77, 106
2, 147982, Note_on_c, 0, 77, 0
2, 148065, Note_on_c, 0, 49, 98
2, 148065, Note_on_c, 0, 37, 100
2, 148131, Note_on_c, 0, 89, 0
2, 148132, Note_on_c, 0, 49, 0
2, 148134, Note_on_c, 0, 37, 0
2, 148195, Note_on_c, 0, 85, 103
2, 148195, Note_on_c, 0, 73, 102
2, 148259, Note_on_c, 0, 73, 0
2, 148263, Note_on_c, 0, 85, 0
2, 148328, Note_on_c, 0, 85, 109
2, 148332, Note_on_c, 0, 73, 102
2, 148332, Note_on_c, 0, 80, 95
2, 148333, Note_on_c, 0, 77, 93
2, 148385, Control_c, 0, 64, 127
2, 148560, Note_on_c, 0, 46, 105
2, 148563, Note_on_c, 0, 34, 94
2, 148738, Note_on_c, 0, 46, 0
2, 148742, Note_on_c, 0, 46, 56
2, 148818, Note_on_c, 0, 53, 89
2, 148842, Note_on_c, 0, 56, 88
2, 148843, Note_on_c, 0, 65, 101
2, 148844, Note_on_c, 0, 61, 99
2, 148961, Note_on_c, 0, 34, 0
2, 148972, Note_on_c, 0, 34, 77
2, 149076, Note_on_c, 0, 46, 0
2, 149076, Note_on_c, 0, 61, 0
2, 149076, Note_on_c, 0, 65, 0
2, 149080, Note_on_c, 0, 65, 98
2, 149084, Note_on_c, 0, 46, 82
2, 149084, Note_on_c, 0, 58, 78
2, 149086, Note_on_c, 0, 61, 76
2, 149131, Control_c, 0, 64, 0
2, 149143, Note_on_c, 0, 34, 0
2, 149146, Note_on_c, 0, 46, 0
2, 149146, Note_on_c, 0, 80, 0
2, 149147, Note_on_c, 0, 77, 0
2, 149147, Note_on_c, 0, 85, 0
2, 149147, Note_on_c, 0, 61, 0
2, 149148, Note_on_c, 0, 73, 0
2, 149148, Note_on_c, 0, 53, 0
2, 149148, Note_on_c, 0, 65, 0
2, 149148, Note_on_c, 0, 56, 0
2, 149153, Note_on_c, 0, 58, 0
2, 149229, Note_on_c, 0, 39, 96
2, 149232, Note_on_c, 0, 51, 102
2, 149232, Note_on_c, 0, 94, 112
2, 149234, Note_on_c, 0, 82, 105
2, 149345, Control_c, 0, 64, 127
2, 149488, Note_on_c, 0, 92, 96
2, 149488, Note_on_c, 0, 80, 97
2, 149606, Note_on_c, 0, 51, 0
2, 149610, Note_on_c, 0, 90, 91
2, 149611, Note_on_c, 0, 78, 101
2, 149615, Note_on_c, 0, 51, 85
2, 149743, Note_on_c, 0, 61, 97
2, 149749, Note_on_c, 0, 54, 92
2, 149749, Control_c, 0, 64, 0
2, 149749, Note_on_c, 0, 58, 91
2, 149752, Note_on_c, 0, 78, 0
2, 149752, Note_on_c, 0, 90, 0
2, 149758, Note_on_c, 0, 90, 107
2, 149758, Note_on_c, 0, 78, 103
2, 149790, Control_c, 0, 64, 127
2, 149998, Note_on_c, 0, 80, 0
2, 149998, Note_on_c, 0, 92, 0
2, 150009, Note_on_c, 0, 92, 104
2, 150009, Note_on_c, 0, 80, 102
2, 150113, Note_on_c, 0, 39, 0
2, 150119, Note_on_c, 0, 39, 88
2, 150193, Control_c, 0, 64, 0
2, 150197, Note_on_c, 0, 39, 0
2, 150197, Note_on_c, 0, 78, 0
2, 150198, Note_on_c, 0, 61, 0
2, 150198, Note_on_c, 0, 51, 0
2, 150198, Note_on_c, 0, 94, 0
2, 150198, Note_on_c, 0, 58, 0
2, 150199, Note_on_c, 0, 90, 0
2, 150199, Note_on_c, 0, 54, 0
2, 150199, Note_on_c, 0, 82, 0
2, 150213, Note_on_c, 0, 80, 0
2, 150228, Note_on_c, 0, 92, 0
2, 150254, Note_on_c, 0, 87, 98
2, 150312, Note_on_c, 0, 89, 83
2, 150318, Note_on_c, 0, 87, 0
2, 150399, Note_on_c, 0, 90, 108
2, 150401, Note_on_c, 0, 78, 104
2, 150401, Note_on_c, 0, 87, 97
2, 150402, Note_on_c, 0, 83, 95
2, 150404, Note_on_c, 0, 32, 94
2, 150406, Note_on_c, 0, 44, 101
2, 150458, Control_c, 0, 64, 127
2, 150658, Note_on_c, 0, 44, 0
2, 150667, Note_on_c, 0, 44, 80
2, 150796, Note_on_c, 0, 89, 0
2, 150804, Note_on_c, 0, 89, 103
2, 150811, Note_on_c, 0, 59, 91
2, 150812, Note_on_c, 0, 51, 76
2, 150816, Note_on_c, 0, 54, 79
2, 150842, Note_on_c, 0, 87, 0
2, 150854, Note_on_c, 0, 87, 99
2, 150947, Note_on_c, 0, 85, 101
2, 151042, Note_on_c, 0, 87, 0
2, 151048, Note_on_c, 0, 87, 103
2, 151188, Note_on_c, 0, 44, 0
2, 151193, Note_on_c, 0, 44, 90
2, 151325, Note_on_c, 0, 82, 95
2, 151370, Note_on_c, 0, 32, 0
2, 151372, Control_c, 0, 64, 0
2, 151372, Note_on_c, 0, 83, 0
2, 151373, Note_on_c, 0, 59, 0
2, 151373, Note_on_c, 0, 78, 0
2, 151374, Note_on_c, 0, 44, 0
2, 151374, Note_on_c, 0, 90, 0
2, 151374, Note_on_c, 0, 89, 0
2, 151374, Note_on_c, 0, 51, 0
2, 151374, Note_on_c, 0, 85, 0
2, 151375, Note_on_c, 0, 54, 0
2, 151375, Note_on_c, 0, 87, 0
2, 151378, Note_on_c, 0, 82, 0
2, 151382, Note_on_c, 0, 83, 89
2, 151449, Note_on_c, 0, 85, 107
2, 151449, Note_on_c, 0, 80, 101
2, 151455, Note_on_c, 0, 46, 93
2, 151456, Note_on_c, 0, 34, 85
2, 151456, Note_on_c, 0, 77, 89
2, 151464, Note_on_c, 0, 83, 0
2, 151495, Control_c, 0, 64, 127
2, 151590, Note_on_c, 0, 83, 101
2, 151703, Note_on_c, 0, 46, 0
2, 151714, Note_on_c, 0, 46, 83
2, 151841, Note_on_c, 0, 53, 82
2, 151844, Note_on_c, 0, 61, 92
2, 151844, Note_on_c, 0, 56, 84
2, 151845, Note_on_c, 0, 82, 107
2, 152079, Note_on_c, 0, 80, 0
2, 152085, Note_on_c, 0, 80, 103
2, 152202, Note_on_c, 0, 46, 0
2, 152207, Note_on_c, 0, 46, 81
2, 152368, Note_on_c, 0, 78, 91
2, 152401, Note_on_c, 0, 80, 0
2, 152408, Note_on_c, 0, 80, 88
2, 152450, Control_c, 0, 64, 0
2, 152455, Note_on_c, 0, 82, 0
2, 152463, Note_on_c, 0, 82, 101
2, 152466, Note_on_c, 0, 46, 0
2, 152467, Note_on_c, 0, 56, 0
2, 152467, Note_on_c, 0, 83, 0
2, 152468, Note_on_c, 0, 77, 0
2, 152468, Note_on_c, 0, 53, 0
2, 152468, Note_on_c, 0, 78, 0
2, 152468, Note_on_c, 0, 85, 0
2, 152469, Note_on_c, 0, 61, 0
2, 152478, Note_on_c, 0, 34, 0
2, 152496, Note_on_c, 0, 47, 103
2, 152497, Note_on_c, 0, 35, 96
2, 152532, Note_on_c, 0, 80, 0
2, 152542, Note_on_c, 0, 80, 90
2, 152601, Control_c, 0, 64, 127
2, 152612, Note_on_c, 0, 78, 92
2, 152652, Note_on_c, 0, 77, 85
2, 152724, Note_on_c, 0, 80, 0
2, 152733, Note_on_c, 0, 80, 100
2, 152739, Note_on_c, 0, 47, 0
2, 152745, Note_on_c, 0, 47, 83
2, 152785, Note_on_c, 0, 78, 0
2, 152795, Note_on_c, 0, 78, 87
2, 152832, Note_on_c, 0, 77, 0
2, 152843, Note_on_c, 0, 77, 93
2, 152883, Note_on_c, 0, 58, 84
2, 152885, Note_on_c, 0, 51, 67
2, 152887, Note_on_c, 0, 54, 66
2, 152931, Note_on_c, 0, 75, 87
2, 152977, Note_on_c, 0, 77, 0
2, 152989, Note_on_c, 0, 77, 96
2, 153105, Note_on_c, 0, 73, 93
2, 153146, Note_on_c, 0, 75, 0
2, 153152, Note_on_c, 0, 75, 83
2, 153208, Note_on_c, 0, 47, 0
2, 153208, Note_on_c, 0, 77, 0
2, 153217, Note_on_c, 0, 77, 85
2, 153219, Note_on_c, 0, 47, 77
2, 153254, Note_on_c, 0, 78, 0
2, 153263, Note_on_c, 0, 78, 89
2, 153300, Note_on_c, 0, 80, 0
2, 153311, Note_on_c, 0, 80, 90
2, 153354, Note_on_c, 0, 82, 0
2, 153362, Note_on_c, 0, 82, 87
2, 153405, Note_on_c, 0, 83, 91
2, 153474, Control_c, 0, 64, 0
2, 153481, Note_on_c, 0, 47, 0
2, 153482, Note_on_c, 0, 78, 0
2, 153482, Note_on_c, 0, 73, 0
2, 153484, Note_on_c, 0, 75, 0
2, 153484, Note_on_c, 0, 35, 0
2, 153485, Note_on_c, 0, 51, 0
2, 153486, Note_on_c, 0, 83, 0
2, 153486, Note_on_c, 0, 54, 0
2, 153487, Note_on_c, 0, 82, 0
2, 153488, Note_on_c, 0, 58, 0
2, 153500, Note_on_c, 0, 77, 0
2, 153515, Note_on_c, 0, 80, 0
2, 153518, Note_on_c, 0, 85, 110
2, 153522, Note_on_c, 0, 37, 86
2, 153522, Note_on_c, 0, 77, 93
2, 153524, Note_on_c, 0, 80, 94
2, 153868, Control_c, 0, 64, 127
2, 153919, Note_on_c, 0, 49, 49
2, 154057, Note_on_c, 0, 54, 57
2, 154190, Note_on_c, 0, 56, 71
2, 154302, Note_on_c, 0, 61, 65
2, 154438, Note_on_c, 0, 68, 51
2, 154586, Note_on_c, 0, 73, 83
2, 155719, Note_on_c, 0, 54, 0
2, 155722, Note_on_c, 0, 51, 45
2, 155722, Note_on_c, 0, 44, 47
2, 155727, Note_on_c, 0, 59, 53
2, 155730, Note_on_c, 0, 54, 53
2, 155742, Note_on_c, 0, 37, 0
2, 155748, Note_on_c, 0, 49, 0
2, 155750, Note_on_c, 0, 85, 0
2, 155751, Note_on_c, 0, 68, 0
2, 155751, Note_on_c, 0, 80, 0
2, 155752, Note_on_c, 0, 73, 0
2, 155752, Note_on_c, 0, 77, 0
2, 155753, Note_on_c, 0, 56, 0
2, 155753, Note_on_c, 0, 61, 0
2, 155754, Control_c, 0, 64, 0
2, 156126, Control_c, 0, 64, 127
2, 156283, Note_on_c, 0, 85, 63
2, 156554, Note_on_c, 0, 73, 60
2, 156837, Note_on_c, 0, 46, 46
2, 156843, Note_on_c, 0, 56, 49
2, 156844, Note_on_c, 0, 59, 0
2, 156846, Note_on_c, 0, 49, 35
2, 156864, Note_on_c, 0, 51, 0
2, 156867, Control_c, 0, 64, 0
2, 156994, Note_on_c, 0, 44, 0
2, 157186, Control_c, 0, 64, 127
2, 157378, Note_on_c, 0, 85, 0
2, 157387, Note_on_c, 0, 85, 70
2, 157440, Note_on_c, 0, 54, 0
2, 157655, Note_on_c, 0, 73, 0
2, 157661, Note_on_c, 0, 73, 54
2, 157937, Note_on_c, 0, 58, 63
2, 157941, Note_on_c, 0, 47, 49
2, 157948, Note_on_c, 0, 54, 46
2, 157950, Note_on_c, 0, 51, 38
2, 157964, Note_on_c, 0, 46, 0
2, 157966, Note_on_c, 0, 49, 0
2, 157966, Note_on_c, 0, 56, 0
2, 157982, Control_c, 0, 64, 0
2, 158300, Control_c, 0, 64, 127
2, 158461, Note_on_c, 0, 85, 0
2, 158461, Control_c, 0, 64, 0
2, 158470, Note_on_c, 0, 85, 80
2, 158607, Control_c, 0, 64, 127
2, 158753, Note_on_c, 0, 73, 0
2, 158758, Note_on_c, 0, 73, 56
2, 159033, Note_on_c, 0, 46, 50
2, 159037, Note_on_c, 0, 56, 51
2, 159041, Note_on_c, 0, 53, 53
2, 159052, Note_on_c, 0, 58, 0
2, 159055, Note_on_c, 0, 51, 0
2, 159055, Note_on_c, 0, 47, 0
2, 159083, Note_on_c, 0, 54, 0
2, 159083, Control_c, 0, 64, 0
2, 159452, Control_c, 0, 64, 127
2, 159605, Note_on_c, 0, 85, 0
2, 159610, Note_on_c, 0, 85, 69
2, 159882, Note_on_c, 0, 73, 0
2, 159886, Note_on_c, 0, 73, 56
2, 160166, Note_on_c, 0, 59, 59
2, 160168, Note_on_c, 0, 54, 51
2, 160174, Note_on_c, 0, 51, 44
2, 160177, Note_on_c, 0, 44, 51
2, 160186, Note_on_c, 0, 56, 0
2, 160186, Note_on_c, 0, 85, 0
2, 160186, Note_on_c, 0, 46, 0
2, 160186, Note_on_c, 0, 53, 0
2, 160190, Note_on_c, 0, 73, 0
2, 160212, Control_c, 0, 64, 0
2, 160373, Control_c, 0, 64, 127
2, 160441, Note_on_c, 0, 73, 60
2, 160570, Note_on_c, 0, 78, 57
2, 160700, Note_on_c, 0, 85, 88
2, 160826, Note_on_c, 0, 78, 0
2, 160836, Note_on_c, 0, 78, 30
2, 160972, Note_on_c, 0, 73, 0
2, 160984, Note_on_c, 0, 73, 24
2, 161095, Note_on_c, 0, 78, 0
2, 161100, Note_on_c, 0, 78, 47
2, 161233, Note_on_c, 0, 54, 0
2, 161242, Note_on_c, 0, 46, 51
2, 161243, Note_on_c, 0, 54, 52
2, 161244, Note_on_c, 0, 56, 57
2, 161244, Note_on_c, 0, 49, 46
2, 161272, Note_on_c, 0, 59, 0
2, 161278, Note_on_c, 0, 44, 0
2, 161280, Note_on_c, 0, 51, 0
2, 161283, Control_c, 0, 64, 0
2, 161283, Note_on_c, 0, 78, 0
2, 161326, Note_on_c, 0, 73, 0
2, 161531, Note_on_c, 0, 73, 70
2, 161579, Control_c, 0, 64, 127
2, 161658, Note_on_c, 0, 78, 68
2, 161779, Note_on_c, 0, 85, 0
2, 161789, Note_on_c, 0, 85, 94
2, 161925, Note_on_c, 0, 78, 0
2, 161929, Note_on_c, 0, 78, 53
2, 162001, Note_on_c, 0, 78, 0
2, 162008, Note_on_c, 0, 78, 23
2, 162048, Note_on_c, 0, 73, 0
2, 162057, Note_on_c, 0, 73, 58
2, 162109, Note_on_c, 0, 78, 0
2, 162120, Note_on_c, 0, 78, 29
2, 162186, Note_on_c, 0, 78, 0
2, 162190, Note_on_c, 0, 78, 53
2, 162306, Note_on_c, 0, 47, 54
2, 162309, Note_on_c, 0, 54, 0
2, 162310, Note_on_c, 0, 49, 0
2, 162311, Note_on_c, 0, 56, 0
2, 162313, Note_on_c, 0, 46, 0
2, 162317, Note_on_c, 0, 51, 42
2, 162318, Note_on_c, 0, 54, 51
2, 162320, Note_on_c, 0, 58, 58
2, 162327, Control_c, 0, 64, 0
2, 162401, Note_on_c, 0, 78, 0
2, 162405, Note_on_c, 0, 78, 30
2, 162478, Control_c, 0, 64, 127
2, 162509, Note_on_c, 0, 66, 20
2, 162516, Note_on_c, 0, 66, 0
2, 162593, Note_on_c, 0, 73, 0
2, 162604, Note_on_c, 0, 73, 71
2, 162723, Note_on_c, 0, 78, 0
2, 162729, Note_on_c, 0, 78, 61
2, 162862, Note_on_c, 0, 85, 0
2, 162868, Note_on_c, 0, 85, 78
2, 162992, Note_on_c, 0, 78, 0
2, 163003, Note_on_c, 0, 78, 41
2, 163138, Note_on_c, 0, 73, 0
2, 163148, Note_on_c, 0, 73, 49
2, 163276, Note_on_c, 0, 78, 0
2, 163282, Note_on_c, 0, 78, 66
2, 163415, Note_on_c, 0, 53, 49
2, 163416, Note_on_c, 0, 46, 47
2, 163419, Note_on_c, 0, 56, 48
2, 163433, Control_c, 0, 64, 0
2, 163468, Control_c, 0, 64, 127
2, 163484, Note_on_c, 0, 54, 0
2, 163737, Note_on_c, 0, 73, 0
2, 163745, Note_on_c, 0, 73, 67
2, 163791, Note_on_c, 0, 47, 0
2, 163791, Note_on_c, 0, 58, 0
2, 163860, Note_on_c, 0, 78, 0
2, 163865, Note_on_c, 0, 78, 61
2, 163944, Note_on_c, 0, 51, 0
2, 164098, Note_on_c, 0, 85, 0
2, 164103, Note_on_c, 0, 85, 59
2, 164785, Control_c, 0, 64, 0
2, 164796, Note_on_c, 0, 44, 56
2, 164798, Note_on_c, 0, 54, 44
2, 164800, Note_on_c, 0, 51, 41
2, 164803, Note_on_c, 0, 46, 0
2, 164806, Note_on_c, 0, 56, 0
2, 164807, Note_on_c, 0, 53, 0
2, 164809, Note_on_c, 0, 85, 0
2, 164809, Note_on_c, 0, 73, 0
2, 165035, Control_c, 0, 64, 127
2, 165143, Note_on_c, 0, 78, 0
2, 165147, Note_on_c, 0, 78, 58
2, 165154, Note_on_c, 0, 59, 55
2, 165284, Note_on_c, 0, 63, 58
2, 165285, Note_on_c, 0, 75, 58
2, 165419, Note_on_c, 0, 78, 0
2, 165421, Note_on_c, 0, 66, 58
2, 165430, Note_on_c, 0, 78, 87
2, 165542, Note_on_c, 0, 63, 0
2, 165542, Note_on_c, 0, 75, 0
2, 165550, Note_on_c, 0, 63, 73
2, 165550, Note_on_c, 0, 75, 82
2, 165665, Note_on_c, 0, 59, 0
2, 165676, Note_on_c, 0, 59, 72
2, 165818, Note_on_c, 0, 78, 0
2, 165829, Note_on_c, 0, 78, 91
2, 165891, Note_on_c, 0, 75, 0
2, 165891, Note_on_c, 0, 66, 0
2, 165891, Note_on_c, 0, 59, 0
2, 165891, Note_on_c, 0, 51, 0
2, 165891, Note_on_c, 0, 63, 0
2, 165891, Note_on_c, 0, 54, 0
2, 165892, Note_on_c, 0, 44, 0
2, 165935, Control_c, 0, 64, 0
2, 165936, Note_on_c, 0, 46, 62
2, 165938, Note_on_c, 0, 56, 60
2, 165939, Note_on_c, 0, 53, 64
2, 165980, Control_c, 0, 64, 127
2, 166083, Note_on_c, 0, 80, 88
2, 166207, Note_on_c, 0, 58, 58
2, 166336, Note_on_c, 0, 65, 72
2, 166341, Note_on_c, 0, 78, 0
2, 166351, Note_on_c, 0, 78, 82
2, 166458, Note_on_c, 0, 68, 85
2, 166598, Note_on_c, 0, 77, 86
2, 166609, Note_on_c, 0, 65, 0
2, 166620, Note_on_c, 0, 65, 61
2, 166725, Note_on_c, 0, 58, 0
2, 166734, Note_on_c, 0, 58, 75
2, 166855, Note_on_c, 0, 77, 0
2, 166860, Note_on_c, 0, 77, 79
2, 166944, Control_c, 0, 64, 0
2, 166944, Note_on_c, 0, 58, 0
2, 166944, Note_on_c, 0, 78, 0
2, 166945, Note_on_c, 0, 80, 0
2, 166945, Note_on_c, 0, 56, 0
2, 166945, Note_on_c, 0, 68, 0
2, 166946, Note_on_c, 0, 46, 0
2, 166947, Note_on_c, 0, 65, 0
2, 166947, Note_on_c, 0, 53, 0
2, 166994, Note_on_c, 0, 54, 71
2, 166997, Note_on_c, 0, 47, 70
2, 167012, Note_on_c, 0, 78, 86
2, 167032, Control_c, 0, 64, 127
2, 167263, Note_on_c, 0, 75, 85
2, 167267, Note_on_c, 0, 59, 72
2, 167384, Note_on_c, 0, 66, 75
2, 167400, Note_on_c, 0, 77, 0
2, 167508, Note_on_c, 0, 78, 0
2, 167517, Note_on_c, 0, 78, 96
2, 167519, Note_on_c, 0, 70, 87
2, 167646, Note_on_c, 0, 66, 0
2, 167651, Note_on_c, 0, 80, 99
2, 167657, Note_on_c, 0, 66, 73
2, 167761, Note_on_c, 0, 59, 0
2, 167769, Note_on_c, 0, 59, 64
2, 167919, Note_on_c, 0, 77, 90
2, 167989, Control_c, 0, 64, 0
2, 167997, Note_on_c, 0, 75, 0
2, 167997, Note_on_c, 0, 47, 0
2, 167999, Note_on_c, 0, 59, 0
2, 167999, Note_on_c, 0, 70, 0
2, 168000, Note_on_c, 0, 78, 0
2, 168000, Note_on_c, 0, 54, 0
2, 168011, Note_on_c, 0, 46, 62
2, 168015, Note_on_c, 0, 66, 0
2, 168018, Note_on_c, 0, 53, 65
2, 168022, Note_on_c, 0, 56, 66
2, 168069, Control_c, 0, 64, 127
2, 168181, Note_on_c, 0, 75, 74
2, 168301, Note_on_c, 0, 73, 85
2, 168439, Note_on_c, 0, 65, 86
2, 168707, Note_on_c, 0, 63, 70
2, 168821, Note_on_c, 0, 61, 79
2, 169026, Control_c, 0, 64, 0
2, 169033, Note_on_c, 0, 80, 0
2, 169033, Note_on_c, 0, 73, 0
2, 169033, Note_on_c, 0, 46, 0
2, 169033, Note_on_c, 0, 75, 0
2, 169034, Note_on_c, 0, 61, 0
2, 169034, Note_on_c, 0, 56, 0
2, 169034, Note_on_c, 0, 53, 0
2, 169034, Note_on_c, 0, 63, 0
2, 169035, Note_on_c, 0, 65, 0
2, 169036, Note_on_c, 0, 77, 0
2, 169102, Note_on_c, 0, 44, 59
2, 169102, Note_on_c, 0, 54, 64
2, 169102, Note_on_c, 0, 51, 60
2, 169102, Note_on_c, 0, 63, 77
2, 169128, Control_c, 0, 64, 127
2, 169379, Note_on_c, 0, 78, 75
2, 169382, Note_on_c, 0, 59, 70
2, 169497, Note_on_c, 0, 63, 0
2, 169504, Note_on_c, 0, 63, 80
2, 169510, Note_on_c, 0, 75, 75
2, 169630, Note_on_c, 0, 66, 85
2, 169643, Note_on_c, 0, 78, 0
2, 169650, Note_on_c, 0, 78, 96
2, 169766, Note_on_c, 0, 75, 0
2, 169774, Note_on_c, 0, 63, 0
2, 169774, Note_on_c, 0, 75, 90
2, 169778, Note_on_c, 0, 63, 77
2, 169881, Note_on_c, 0, 59, 0
2, 169890, Note_on_c, 0, 59, 84
2, 170019, Note_on_c, 0, 78, 0
2, 170027, Note_on_c, 0, 78, 100
2, 170084, Control_c, 0, 64, 0
2, 170091, Note_on_c, 0, 63, 0
2, 170091, Note_on_c, 0, 75, 0
2, 170091, Note_on_c, 0, 51, 0
2, 170091, Note_on_c, 0, 66, 0
2, 170092, Note_on_c, 0, 54, 0
2, 170092, Note_on_c, 0, 44, 0
2, 170112, Note_on_c, 0, 59, 0
2, 170142, Control_c, 0, 64, 127
2, 170145, Note_on_c, 0, 46, 68
2, 170147, Note_on_c, 0, 56, 82
2, 170147, Note_on_c, 0, 53, 73
2, 170284, Note_on_c, 0, 80, 96
2, 170411, Note_on_c, 0, 58, 67
2, 170542, Note_on_c, 0, 78, 0
2, 170546, Note_on_c, 0, 78, 95
2, 170552, Note_on_c, 0, 65, 71
2, 170670, Note_on_c, 0, 68, 95
2, 170806, Note_on_c, 0, 77, 91
2, 170810, Note_on_c, 0, 65, 0
2, 170817, Note_on_c, 0, 65, 79
2, 170933, Note_on_c, 0, 58, 0
2, 170940, Note_on_c, 0, 58, 70
2, 171064, Note_on_c, 0, 77, 0
2, 171069, Note_on_c, 0, 77, 70
2, 171198, Note_on_c, 0, 47, 72
2, 171202, Note_on_c, 0, 78, 0
2, 171204, Control_c, 0, 64, 0
2, 171209, Note_on_c, 0, 78, 93
2, 171229, Note_on_c, 0, 75, 74
2, 171229, Note_on_c, 0, 70, 75
2, 171233, Note_on_c, 0, 46, 0
2, 171234, Note_on_c, 0, 68, 0
2, 171235, Note_on_c, 0, 80, 0
2, 171236, Note_on_c, 0, 58, 0
2, 171236, Note_on_c, 0, 65, 0
2, 171236, Note_on_c, 0, 77, 0
2, 171237, Note_on_c, 0, 53, 0
2, 171237, Note_on_c, 0, 56, 0
2, 171340, Control_c, 0, 64, 127
2, 171490, Note_on_c, 0, 54, 62
2, 171770, Note_on_c, 0, 75, 0
2, 171776, Note_on_c, 0, 75, 87
2, 172051, Note_on_c, 0, 59, 66
2, 172316, Note_on_c, 0, 78, 0
2, 172321, Note_on_c, 0, 78, 100
2, 172331, Note_on_c, 0, 75, 0
2, 172339, Note_on_c, 0, 70, 0
2, 172340, Note_on_c, 0, 75, 83
2, 172348, Note_on_c, 0, 70, 60
2, 172584, Note_on_c, 0, 63, 77
2, 172878, Note_on_c, 0, 82, 99
2, 173107, Note_on_c, 0, 59, 0
2, 173111, Note_on_c, 0, 59, 63
2, 173299, Note_on_c, 0, 70, 0
2, 173309, Note_on_c, 0, 70, 65
2, 173345, Note_on_c, 0, 75, 0
2, 173350, Note_on_c, 0, 75, 71
2, 173404, Note_on_c, 0, 77, 73
2, 173406, Control_c, 0, 64, 0
2, 173430, Note_on_c, 0, 46, 62
2, 173431, Note_on_c, 0, 80, 95
2, 173437, Note_on_c, 0, 47, 0
2, 173452, Note_on_c, 0, 59, 0
2, 173460, Note_on_c, 0, 54, 0
2, 173460, Note_on_c, 0, 63, 0
2, 173468, Control_c, 0, 64, 127
2, 173471, Note_on_c, 0, 75, 0
2, 173471, Note_on_c, 0, 78, 0
2, 173474, Note_on_c, 0, 70, 0
2, 173480, Note_on_c, 0, 82, 0
2, 173703, Note_on_c, 0, 53, 54
2, 173979, Note_on_c, 0, 58, 60
2, 174246, Note_on_c, 0, 60, 64
2, 174497, Note_on_c, 0, 62, 69
2, 174773, Note_on_c, 0, 58, 0
2, 174782, Note_on_c, 0, 58, 45
2, 175077, Note_on_c, 0, 65, 58
2, 175380, Note_on_c, 0, 58, 0
2, 175385, Note_on_c, 0, 58, 33
2, 175806, Note_on_c, 0, 74, 63
2, 175824, Note_on_c, 0, 70, 52
2, 177926, Note_on_c, 0, 77, 0
2, 177928, Note_on_c, 0, 53, 0
2, 177929, Note_on_c, 0, 62, 0
2, 177931, Note_on_c, 0, 60, 0
2, 177931, Note_on_c, 0, 80, 0
2, 177933, Note_on_c, 0, 65, 0
2, 177953, Note_on_c, 0, 46, 0
2, 177953, Note_on_c, 0, 58, 0
2, 177968, Note_on_c, 0, 70, 0
2, 177986, Control_c, 0, 64, 0
2, 178045, Note_on_c, 0, 74, 0
2, 178560, Control_c, 0, 64, 127
2, 179691, Note_on_c, 0, 90, 55
2, 179920, Note_on_c, 0, 89, 54
2, 180072, Note_on_c, 0, 90, 0
2, 180078, Note_on_c, 0, 90, 64
2, 180206, Note_on_c, 0, 92, 69
2, 180359, Note_on_c, 0, 94, 78
2, 180359, Note_on_c, 0, 71, 42
2, 180364, Note_on_c, 0, 71, 0
2, 180492, Note_on_c, 0, 78, 51
2, 180654, Note_on_c, 0, 82, 64
2, 180771, Note_on_c, 0, 90, 0
2, 180778, Note_on_c, 0, 90, 81
2, 180902, Note_on_c, 0, 92, 0
2, 180912, Note_on_c, 0, 92, 76
2, 181032, Note_on_c, 0, 94, 0
2, 181043, Note_on_c, 0, 94, 83
2, 181187, Note_on_c, 0, 71, 52
2, 181301, Note_on_c, 0, 90, 0
2, 181312, Note_on_c, 0, 90, 78
2, 181424, Note_on_c, 0, 92, 0
2, 181435, Note_on_c, 0, 92, 81
2, 181449, Note_on_c, 0, 73, 74
2, 181465, Control_c, 0, 64, 0
2, 181501, Control_c, 0, 64, 127
2, 181555, Note_on_c, 0, 94, 0
2, 181561, Note_on_c, 0, 94, 76
2, 181570, Note_on_c, 0, 78, 0
2, 181575, Note_on_c, 0, 78, 75
2, 181707, Note_on_c, 0, 80, 81
2, 181844, Note_on_c, 0, 97, 95
2, 182131, Note_on_c, 0, 92, 0
2, 182136, Note_on_c, 0, 92, 71
2, 182269, Note_on_c, 0, 73, 0
2, 182275, Note_on_c, 0, 73, 53
2, 182400, Note_on_c, 0, 89, 0
2, 182569, Note_on_c, 0, 70, 59
2, 182576, Note_on_c, 0, 92, 0
2, 182582, Note_on_c, 0, 92, 84
2, 182585, Control_c, 0, 64, 0
2, 182607, Control_c, 0, 64, 127
2, 182723, Note_on_c, 0, 77, 66
2, 182830, Note_on_c, 0, 80, 0
2, 182836, Note_on_c, 0, 80, 77
2, 182958, Note_on_c, 0, 89, 74
2, 183083, Note_on_c, 0, 90, 0
2, 183089, Note_on_c, 0, 90, 76
2, 183214, Note_on_c, 0, 92, 0
2, 183224, Note_on_c, 0, 92, 92
2, 183367, Note_on_c, 0, 70, 0
2, 183376, Note_on_c, 0, 70, 60
2, 183459, Note_on_c, 0, 82, 0
2, 183487, Note_on_c, 0, 85, 71
2, 183615, Note_on_c, 0, 75, 68
2, 183621, Note_on_c, 0, 92, 0
2, 183626, Control_c, 0, 64, 0
2, 183628, Note_on_c, 0, 92, 87
2, 183659, Control_c, 0, 64, 127
2, 183744, Note_on_c, 0, 77, 0
2, 183744, Note_on_c, 0, 90, 0
2, 183751, Note_on_c, 0, 90, 85
2, 183755, Note_on_c, 0, 77, 79
2, 183874, Note_on_c, 0, 78, 0
2, 183874, Note_on_c, 0, 89, 0
2, 183880, Note_on_c, 0, 78, 68
2, 183884, Note_on_c, 0, 89, 79
2, 183983, Note_on_c, 0, 82, 82
2, 183997, Note_on_c, 0, 90, 0
2, 184008, Note_on_c, 0, 90, 92
2, 184283, Note_on_c, 0, 87, 77
2, 184419, Note_on_c, 0, 90, 0
2, 184425, Note_on_c, 0, 90, 79
2, 184427, Note_on_c, 0, 75, 0
2, 184432, Note_on_c, 0, 75, 64
2, 184550, Note_on_c, 0, 92, 0
2, 184555, Note_on_c, 0, 92, 82
2, 184680, Note_on_c, 0, 71, 0
2, 184680, Note_on_c, 0, 94, 0
2, 184686, Note_on_c, 0, 94, 94
2, 184692, Note_on_c, 0, 71, 53
2, 184700, Control_c, 0, 64, 0
2, 184773, Control_c, 0, 64, 127
2, 184819, Note_on_c, 0, 78, 0
2, 184827, Note_on_c, 0, 78, 78
2, 184957, Note_on_c, 0, 82, 0
2, 184962, Note_on_c, 0, 82, 77
2, 185057, Note_on_c, 0, 90, 0
2, 185064, Note_on_c, 0, 90, 97
2, 185187, Note_on_c, 0, 92, 0
2, 185199, Note_on_c, 0, 92, 95
2, 185318, Note_on_c, 0, 94, 0
2, 185325, Note_on_c, 0, 94, 101
2, 185448, Note_on_c, 0, 71, 0
2, 185452, Note_on_c, 0, 71, 69
2, 185594, Note_on_c, 0, 90, 0
2, 185599, Note_on_c, 0, 90, 98
2, 185725, Note_on_c, 0, 73, 0
2, 185725, Note_on_c, 0, 92, 0
2, 185731, Note_on_c, 0, 92, 97
2, 185733, Note_on_c, 0, 73, 84
2, 185840, Note_on_c, 0, 94, 0
2, 185845, Note_on_c, 0, 94, 97
2, 185863, Note_on_c, 0, 78, 0
2, 185869, Note_on_c, 0, 78, 82
2, 185994, Note_on_c, 0, 80, 0
2, 185998, Note_on_c, 0, 80, 83
2, 186132, Note_on_c, 0, 97, 0
2, 186136, Note_on_c, 0, 97, 104
2, 186240, Note_on_c, 0, 70, 0
2, 186240, Note_on_c, 0, 77, 0
2, 186240, Note_on_c, 0, 89, 0
2, 186416, Note_on_c, 0, 92, 0
2, 186428, Note_on_c, 0, 92, 93
2, 186539, Note_on_c, 0, 73, 0
2, 186548, Note_on_c, 0, 73, 51
2, 186746, Note_on_c, 0, 82, 0
2, 186751, Note_on_c, 0, 82, 74
2, 186792, Note_on_c, 0, 87, 0
2, 186802, Note_on_c, 0, 87, 80
2, 186839, Note_on_c, 0, 92, 0
2, 186843, Note_on_c, 0, 92, 98
2, 186843, Note_on_c, 0, 63, 70
2, 186854, Note_on_c, 0, 97, 0
2, 186859, Note_on_c, 0, 71, 0
2, 186859, Note_on_c, 0, 80, 0
2, 186859, Note_on_c, 0, 90, 0
2, 186860, Note_on_c, 0, 78, 0
2, 186862, Note_on_c, 0, 85, 0
2, 186865, Control_c, 0, 64, 0
2, 186877, Note_on_c, 0, 73, 0
2, 186877, Note_on_c, 0, 75, 0
2, 186938, Control_c, 0, 64, 127
2, 187001, Note_on_c, 0, 70, 67
2, 187119, Note_on_c, 0, 75, 66
2, 187235, Note_on_c, 0, 80, 78
2, 187284, Note_on_c, 0, 82, 0
2, 187373, Note_on_c, 0, 82, 92
2, 187476, Note_on_c, 0, 80, 0
2, 187485, Note_on_c, 0, 80, 86
2, 187496, Note_on_c, 0, 91, 100
2, 187614, Note_on_c, 0, 92, 0
2, 187622, Note_on_c, 0, 75, 0
2, 187624, Note_on_c, 0, 92, 94
2, 187628, Note_on_c, 0, 75, 70
2, 187760, Note_on_c, 0, 63, 0
2, 187760, Note_on_c, 0, 94, 0
2, 187767, Note_on_c, 0, 94, 103
2, 187768, Note_on_c, 0, 82, 0
2, 187770, Note_on_c, 0, 63, 79
2, 187772, Note_on_c, 0, 82, 87
2, 187783, Note_on_c, 0, 87, 0
2, 187787, Note_on_c, 0, 87, 77
2, 187808, Control_c, 0, 64, 0
2, 187852, Control_c, 0, 64, 127
2, 188044, Note_on_c, 0, 75, 0
2, 188055, Note_on_c, 0, 75, 78
2, 188183, Note_on_c, 0, 70, 0
2, 188192, Note_on_c, 0, 70, 71
2, 188314, Note_on_c, 0, 68, 76
2, 188444, Note_on_c, 0, 63, 0
2, 188451, Note_on_c, 0, 63, 78
2, 188609, Note_on_c, 0, 58, 65
2, 188798, Note_on_c, 0, 56, 49
2, 188993, Note_on_c, 0, 51, 47
2, 189292, Note_on_c, 0, 43, 48
2, 189299, Note_on_c, 0, 46, 45
2, 189305, Note_on_c, 0, 34, 41
2, 189305, Note_on_c, 0, 39, 38
2, 189312, Note_on_c, 0, 34, 0
2, 190080, Note_on_c, 0, 75, 0
2, 190080, Note_on_c, 0, 82, 0
2, 190080, Note_on_c, 0, 87, 0
2, 190080, Note_on_c, 0, 91, 0
2, 190080, Note_on_c, 0, 92, 0
2, 190080, Note_on_c, 0, 94, 0
2, 190970, Note_on_c, 0, 39, 0
2, 190970, Note_on_c, 0, 46, 0
2, 190980, Note_on_c, 0, 39, 46
2, 190981, Note_on_c, 0, 46, 53
2, 191155, Note_on_c, 0, 46, 0
2, 191162, Note_on_c, 0, 39, 0
2, 191165, Note_on_c, 0, 46, 52
2, 191166, Note_on_c, 0, 39, 47
2, 191262, Note_on_c, 0, 51, 0
2, 191272, Note_on_c, 0, 51, 26
2, 191324, Note_on_c, 0, 46, 0
2, 191331, Note_on_c, 0, 39, 0
2, 191335, Note_on_c, 0, 46, 71
2, 191339, Note_on_c, 0, 39, 51
2, 191377, Note_on_c, 0, 51, 0
2, 191388, Note_on_c, 0, 51, 48
2, 191454, Note_on_c, 0, 39, 0
2, 191461, Note_on_c, 0, 39, 66
2, 191462, Note_on_c, 0, 46, 0
2, 191472, Note_on_c, 0, 46, 85
2, 191474, Note_on_c, 0, 43, 0
2, 191531, Note_on_c, 0, 51, 0
2, 191541, Note_on_c, 0, 51, 68
2, 191592, Note_on_c, 0, 39, 0
2, 191592, Note_on_c, 0, 46, 0
2, 191600, Note_on_c, 0, 39, 71
2, 191602, Note_on_c, 0, 46, 75
2, 191662, Note_on_c, 0, 51, 0
2, 191665, Note_on_c, 0, 51, 81
2, 191668, Note_on_c, 0, 78, 101
2, 191670, Note_on_c, 0, 66, 96
2, 191723, Note_on_c, 0, 46, 0
2, 191727, Note_on_c, 0, 46, 79
2, 191777, Note_on_c, 0, 51, 0
2, 191788, Note_on_c, 0, 51, 76
2, 191838, Note_on_c, 0, 39, 0
2, 191838, Note_on_c, 0, 46, 0
2, 191841, Note_on_c, 0, 77, 101
2, 191842, Note_on_c, 0, 65, 96
2, 191847, Note_on_c, 0, 39, 83
2, 191850, Note_on_c, 0, 46, 84
2, 191900, Note_on_c, 0, 51, 0
2, 191911, Note_on_c, 0, 51, 71
2, 191961, Note_on_c, 0, 39, 0
2, 191961, Note_on_c, 0, 46, 0
2, 191969, Note_on_c, 0, 51, 0
2, 191969, Note_on_c, 0, 66, 0
2, 191969, Note_on_c, 0, 78, 0
2, 191970, Note_on_c, 0, 46, 93
2, 191972, Note_on_c, 0, 39, 86
2, 191974, Note_on_c, 0, 78, 107
2, 191977, Note_on_c, 0, 66, 98
2, 191979, Note_on_c, 0, 51, 85
2, 192030, Note_on_c, 0, 51, 0
2, 192037, Note_on_c, 0, 51, 75
2, 192092, Note_on_c, 0, 46, 0
2, 192092, Note_on_c, 0, 80, 0
2, 192102, Note_on_c, 0, 46, 86
2, 192107, Note_on_c, 0, 39, 0
2, 192107, Note_on_c, 0, 51, 0
2, 192107, Note_on_c, 0, 68, 0
2, 192111, Note_on_c, 0, 80, 106
2, 192112, Note_on_c, 0, 39, 78
2, 192116, Note_on_c, 0, 68, 103
2, 192117, Note_on_c, 0, 51, 89
2, 192249, Note_on_c, 0, 80, 0
2, 192250, Note_on_c, 0, 56, 0
2, 192250, Note_on_c, 0, 51, 0
2, 192250, Note_on_c, 0, 66, 0
2, 192250, Note_on_c, 0, 77, 0
2, 192250, Note_on_c, 0, 68, 0
2, 192250, Note_on_c, 0, 63, 0
2, 192250, Note_on_c, 0, 39, 0
2, 192251, Note_on_c, 0, 58, 0
2, 192252, Control_c, 0, 64, 0
2, 192261, Note_on_c, 0, 65, 0
2, 192268, Note_on_c, 0, 46, 0
2, 192276, Note_on_c, 0, 70, 0
2, 192276, Note_on_c, 0, 78, 0
2, 192279, Note_on_c, 0, 82, 107
2, 192280, Note_on_c, 0, 75, 93
2, 192280, Note_on_c, 0, 70, 105
2, 192286, Note_on_c, 0, 78, 96
2, 192552, Note_on_c, 0, 70, 0
2, 192552, Note_on_c, 0, 75, 0
2, 192663, Note_on_c, 0, 66, 103
2, 192664, Note_on_c, 0, 54, 100
2, 192687, Note_on_c, 0, 54, 0
2, 192689, Note_on_c, 0, 66, 0
2, 192714, Note_on_c, 0, 78, 0
2, 192714, Note_on_c, 0, 82, 0
2, 192785, Note_on_c, 0, 68, 108
2, 192786, Note_on_c, 0, 56, 102
2, 192817, Note_on_c, 0, 56, 0
2, 192832, Note_on_c, 0, 68, 0
2, 192916, Note_on_c, 0, 58, 107
2, 192917, Note_on_c, 0, 70, 106
2, 192952, Control_c, 0, 64, 127
2, 192998, Note_on_c, 0, 58, 0
2, 193185, Note_on_c, 0, 78, 108
2, 193186, Note_on_c, 0, 66, 106
2, 193217, Control_c, 0, 64, 0
2, 193244, Note_on_c, 0, 70, 0
2, 193282, Note_on_c, 0, 66, 0
2, 193310, Note_on_c, 0, 80, 109
2, 193315, Note_on_c, 0, 68, 105
2, 193328, Note_on_c, 0, 78, 0
2, 193347, Note_on_c, 0, 68, 0
2, 193351, Note_on_c, 0, 80, 0
2, 193439, Note_on_c, 0, 82, 109
2, 193440, Note_on_c, 0, 70, 104
2, 193446, Note_on_c, 0, 66, 76
2, 193474, Note_on_c, 0, 82, 0
2, 193489, Note_on_c, 0, 70, 0
2, 193628, Note_on_c, 0, 66, 0
2, 193705, Note_on_c, 0, 85, 109
2, 193707, Note_on_c, 0, 80, 103
2, 193707, Note_on_c, 0, 61, 107
2, 193708, Note_on_c, 0, 73, 107
2, 193711, Note_on_c, 0, 49, 93
2, 193712, Note_on_c, 0, 53, 90
2, 193712, Note_on_c, 0, 56, 95
2, 193734, Note_on_c, 0, 61, 0
2, 193739, Note_on_c, 0, 53, 0
2, 193740, Note_on_c, 0, 49, 0
2, 193744, Note_on_c, 0, 80, 0
2, 193746, Note_on_c, 0, 56, 0
2, 193746, Note_on_c, 0, 85, 0
2, 193766, Note_on_c, 0, 73, 0
2, 193940, Note_on_c, 0, 59, 89
2, 193953, Note_on_c, 0, 54, 90
2, 193953, Note_on_c, 0, 80, 107
2, 193954, Note_on_c, 0, 47, 86
2, 193954, Note_on_c, 0, 68, 107
2, 193961, Note_on_c, 0, 77, 94
2, 193962, Note_on_c, 0, 73, 98
2, 193965, Note_on_c, 0, 51, 75
2, 193973, Control_c, 0, 64, 127
2, 194140, Note_on_c, 0, 48, 100
2, 194142, Note_on_c, 0, 47, 0
2, 194153, Note_on_c, 0, 47, 91
2, 194153, Note_on_c, 0, 41, 93
2, 194154, Note_on_c, 0, 45, 95
2, 194165, Note_on_c, 0, 38, 82
2, 194171, Note_on_c, 0, 35, 80
2, 194273, Control_c, 0, 64, 0
2, 194277, Note_on_c, 0, 59, 0
2, 194277, Note_on_c, 0, 48, 0
2, 194277, Note_on_c, 0, 47, 0
2, 194277, Note_on_c, 0, 35, 0
2, 194277, Note_on_c, 0, 51, 0
2, 194277, Note_on_c, 0, 41, 0
2, 194277, Note_on_c, 0, 77, 0
2, 194278, Note_on_c, 0, 54, 0
2, 194278, Note_on_c, 0, 68, 0
2, 194278, Note_on_c, 0, 80, 0
2, 194278, Note_on_c, 0, 73, 0
2, 194278, Note_on_c, 0, 38, 0
2, 194288, Note_on_c, 0, 45, 0
2, 194385, Note_on_c, 0, 80, 106
2, 194386, Note_on_c, 0, 68, 105
2, 194388, Note_on_c, 0, 73, 105
2, 194390, Note_on_c, 0, 77, 98
2, 194391, Note_on_c, 0, 34, 103
2, 194403, Control_c, 0, 64, 127
2, 194638, Note_on_c, 0, 61, 96
2, 194643, Note_on_c, 0, 56, 79
2, 194643, Note_on_c, 0, 53, 79
2, 194772, Note_on_c, 0, 73, 0
2, 194772, Note_on_c, 0, 77, 0
2, 194776, Note_on_c, 0, 46, 97
2, 194777, Note_on_c, 0, 77, 101
2, 194777, Note_on_c, 0, 65, 101
2, 194781, Note_on_c, 0, 73, 82
2, 194903, Note_on_c, 0, 78, 105
2, 194905, Note_on_c, 0, 66, 104
2, 195010, Note_on_c, 0, 80, 0
2, 195018, Note_on_c, 0, 68, 0
2, 195022, Note_on_c, 0, 80, 108
2, 195023, Note_on_c, 0, 68, 104
2, 195025, Note_on_c, 0, 46, 0
2, 195033, Note_on_c, 0, 46, 94
2, 195141, Note_on_c, 0, 61, 0
2, 195148, Note_on_c, 0, 53, 0
2, 195149, Note_on_c, 0, 61, 100
2, 195156, Note_on_c, 0, 56, 0
2, 195159, Note_on_c, 0, 53, 83
2, 195160, Note_on_c, 0, 56, 77
2, 195240, Note_on_c, 0, 73, 0
2, 195247, Note_on_c, 0, 73, 91
2, 195294, Note_on_c, 0, 78, 0
2, 195305, Note_on_c, 0, 78, 97
2, 195334, Note_on_c, 0, 82, 94
2, 195351, Control_c, 0, 64, 0
2, 195353, Note_on_c, 0, 80, 0
2, 195353, Note_on_c, 0, 53, 0
2, 195353, Note_on_c, 0, 77, 0
2, 195354, Note_on_c, 0, 66, 0
2, 195354, Note_on_c, 0, 73, 0
2, 195354, Note_on_c, 0, 56, 0
2, 195354, Note_on_c, 0, 46, 0
2, 195355, Note_on_c, 0, 78, 0
2, 195363, Note_on_c, 0, 34, 0
2, 195363, Note_on_c, 0, 68, 0
2, 195371, Note_on_c, 0, 61, 0
2, 195371, Note_on_c, 0, 65, 0
2, 195409, Note_on_c, 0, 82, 0
2, 195422, Note_on_c, 0, 78, 111
2, 195424, Note_on_c, 0, 39, 97
2, 195425, Note_on_c, 0, 90, 111
2, 195427, Note_on_c, 0, 27, 93
2, 195433, Note_on_c, 0, 85, 94
2, 195448, Control_c, 0, 64, 127
2, 195634, Note_on_c, 0, 77, 102
2, 195635, Note_on_c, 0, 89, 103
2, 195675, Note_on_c, 0, 61, 87
2, 195680, Note_on_c, 0, 58, 87
2, 195684, Note_on_c, 0, 54, 79
2, 195801, Note_on_c, 0, 85, 0
2, 195805, Note_on_c, 0, 51, 78
2, 195807, Note_on_c, 0, 85, 108
2, 195808, Note_on_c, 0, 73, 107
2, 195951, Note_on_c, 0, 82, 105
2, 195951, Note_on_c, 0, 70, 103
2, 196085, Note_on_c, 0, 51, 0
2, 196090, Note_on_c, 0, 51, 75
2, 196124, Note_on_c, 0, 78, 0
2, 196132, Note_on_c, 0, 78, 105
2, 196135, Note_on_c, 0, 66, 104
2, 196208, Note_on_c, 0, 54, 0
2, 196208, Note_on_c, 0, 58, 0
2, 196208, Note_on_c, 0, 61, 0
2, 196216, Note_on_c, 0, 58, 89
2, 196218, Note_on_c, 0, 61, 95
2, 196220, Note_on_c, 0, 54, 80
2, 196316, Note_on_c, 0, 77, 0
2, 196321, Note_on_c, 0, 77, 101
2, 196325, Note_on_c, 0, 65, 99
2, 196359, Note_on_c, 0, 89, 0
2, 196359, Control_c, 0, 64, 0
2, 196359, Note_on_c, 0, 61, 0
2, 196359, Note_on_c, 0, 85, 0
2, 196360, Note_on_c, 0, 73, 0
2, 196360, Note_on_c, 0, 51, 0
2, 196360, Note_on_c, 0, 54, 0
2, 196360, Note_on_c, 0, 77, 0
2, 196360, Note_on_c, 0, 90, 0
2, 196360, Note_on_c, 0, 39, 0
2, 196360, Note_on_c, 0, 66, 0
2, 196361, Note_on_c, 0, 82, 0
2, 196361, Note_on_c, 0, 70, 0
2, 196361, Note_on_c, 0, 78, 0
2, 196361, Note_on_c, 0, 58, 0
2, 196362, Note_on_c, 0, 27, 0
2, 196364, Note_on_c, 0, 65, 0
2, 196485, Note_on_c, 0, 78, 111
2, 196487, Note_on_c, 0, 66, 103
2, 196488, Note_on_c, 0, 71, 90
2, 196489, Note_on_c, 0, 75, 89
2, 196489, Note_on_c, 0, 44, 99
2, 196489, Note_on_c, 0, 32, 92
2, 196508, Control_c, 0, 64, 127
2, 196746, Note_on_c, 0, 44, 0
2, 196755, Note_on_c, 0, 44, 93
2, 196865, Note_on_c, 0, 54, 89
2, 196865, Note_on_c, 0, 59, 97
2, 196870, Note_on_c, 0, 51, 80
2, 197007, Note_on_c, 0, 75, 0
2, 197007, Note_on_c, 0, 78, 0
2, 197012, Note_on_c, 0, 82, 106
2, 197014, Note_on_c, 0, 70, 102
2, 197015, Note_on_c, 0, 78, 94
2, 197015, Note_on_c, 0, 75, 92
2, 197237, Note_on_c, 0, 32, 0
2, 197237, Note_on_c, 0, 44, 0
2, 197247, Note_on_c, 0, 44, 84
2, 197249, Note_on_c, 0, 32, 81
2, 197260, Note_on_c, 0, 82, 0
2, 197270, Note_on_c, 0, 82, 108
2, 197481, Note_on_c, 0, 71, 0
2, 197481, Note_on_c, 0, 44, 0
2, 197483, Note_on_c, 0, 51, 0
2, 197484, Note_on_c, 0, 59, 0
2, 197484, Note_on_c, 0, 75, 0
2, 197484, Note_on_c, 0, 82, 0
2, 197484, Note_on_c, 0, 54, 0
2, 197484, Note_on_c, 0, 70, 0
2, 197484, Note_on_c, 0, 78, 0
2, 197485, Note_on_c, 0, 73, 86
2, 197487, Control_c, 0, 64, 0
2, 197491, Note_on_c, 0, 32, 0
2, 197491, Note_on_c, 0, 66, 0
2, 197510, Note_on_c, 0, 77, 89
2, 197518, Note_on_c, 0, 80, 90
2, 197531, Note_on_c, 0, 83, 101
2, 197533, Note_on_c, 0, 34, 97
2, 197534, Note_on_c, 0, 46, 100
2, 197598, Control_c, 0, 64, 127
2, 197775, Note_on_c, 0, 46, 0
2, 197786, Note_on_c, 0, 46, 95
2, 197787, Note_on_c, 0, 82, 104
2, 197913, Note_on_c, 0, 80, 0
2, 197922, Note_on_c, 0, 80, 107
2, 197924, Note_on_c, 0, 61, 102
2, 197925, Note_on_c, 0, 53, 90
2, 197926, Note_on_c, 0, 56, 93
2, 198174, Note_on_c, 0, 83, 0
2, 198181, Note_on_c, 0, 83, 105
2, 198266, Note_on_c, 0, 46, 0
2, 198277, Note_on_c, 0, 46, 93
2, 198351, Note_on_c, 0, 73, 0
2, 198435, Note_on_c, 0, 82, 0
2, 198445, Note_on_c, 0, 82, 111
2, 198447, Note_on_c, 0, 73, 108
2, 198449, Note_on_c, 0, 78, 94
2, 198486, Control_c, 0, 64, 0
2, 198492, Note_on_c, 0, 61, 0
2, 198492, Note_on_c, 0, 77, 0
2, 198492, Note_on_c, 0, 53, 0
2, 198493, Note_on_c, 0, 46, 0
2, 198493, Note_on_c, 0, 80, 0
2, 198493, Note_on_c, 0, 56, 0
2, 198494, Note_on_c, 0, 83, 0
2, 198497, Note_on_c, 0, 34, 0
2, 198572, Note_on_c, 0, 47, 106
2, 198575, Note_on_c, 0, 35, 99
2, 198604, Control_c, 0, 64, 127
2, 198846, Note_on_c, 0, 58, 100
2, 198847, Note_on_c, 0, 51, 87
2, 198851, Note_on_c, 0, 61, 92
2, 198852, Note_on_c, 0, 54, 78
2, 198903, Note_on_c, 0, 66, 70
2, 198962, Note_on_c, 0, 68, 94
2, 198996, Note_on_c, 0, 47, 0
2, 199000, Note_on_c, 0, 47, 80
2, 199002, Note_on_c, 0, 70, 76
2, 199050, Note_on_c, 0, 73, 0
2, 199060, Note_on_c, 0, 73, 95
2, 199096, Note_on_c, 0, 78, 0
2, 199104, Note_on_c, 0, 58, 0
2, 199105, Note_on_c, 0, 78, 94
2, 199111, Note_on_c, 0, 58, 94
2, 199111, Note_on_c, 0, 51, 0
2, 199119, Note_on_c, 0, 54, 0
2, 199120, Note_on_c, 0, 51, 79
2, 199123, Note_on_c, 0, 54, 79
2, 199145, Note_on_c, 0, 80, 92
2, 199173, Note_on_c, 0, 82, 0
2, 199179, Note_on_c, 0, 82, 74
2, 199234, Note_on_c, 0, 47, 0
2, 199242, Note_on_c, 0, 54, 0
2, 199243, Note_on_c, 0, 47, 85
2, 199244, Note_on_c, 0, 85, 103
2, 199252, Note_on_c, 0, 54, 77
2, 199298, Note_on_c, 0, 90, 81
2, 199344, Note_on_c, 0, 92, 107
2, 199357, Note_on_c, 0, 58, 0
2, 199361, Note_on_c, 0, 58, 99
2, 199365, Note_on_c, 0, 54, 0
2, 199370, Note_on_c, 0, 54, 85
2, 199385, Note_on_c, 0, 94, 106
2, 199576, Control_c, 0, 64, 0
2, 199580, Note_on_c, 0, 51, 0
2, 199580, Note_on_c, 0, 35, 0
2, 199580, Note_on_c, 0, 68, 0
2, 199580, Note_on_c, 0, 80, 0
2, 199580, Note_on_c, 0, 73, 0
2, 199580, Note_on_c, 0, 58, 0
2, 199581, Note_on_c, 0, 54, 0
2, 199581, Note_on_c, 0, 85, 0
2, 199581, Note_on_c, 0, 82, 0
2, 199581, Note_on_c, 0, 90, 0
2, 199581, Note_on_c, 0, 92, 0
2, 199581, Note_on_c, 0, 61, 0
2, 199581, Note_on_c, 0, 94, 0
2, 199587, Note_on_c, 0, 66, 0
2, 199595, Note_on_c, 0, 47, 0
2, 199595, Note_on_c, 0, 70, 0
2, 199595, Note_on_c, 0, 78, 0
2, 199636, Note_on_c, 0, 80, 105
2, 199638, Note_on_c, 0, 73, 104
2, 199639, Note_on_c, 0, 77, 96
2, 199643, Note_on_c, 0, 49, 102
2, 199645, Note_on_c, 0, 37, 91
2, 199672, Control_c, 0, 64, 127
2, 199790, Note_on_c, 0, 61, 101
2, 199818, Note_on_c, 0, 49, 0
2, 199822, Note_on_c, 0, 56, 78
2, 199822, Note_on_c, 0, 49, 60
2, 199858, Note_on_c, 0, 53, 86
2, 199933, Note_on_c, 0, 49, 0
2, 199944, Note_on_c, 0, 49, 87
2, 199999, Note_on_c, 0, 44, 97
2, 200171, Note_on_c, 0, 73, 0
2, 200179, Note_on_c, 0, 85, 110
2, 200179, Note_on_c, 0, 37, 0
2, 200179, Note_on_c, 0, 77, 0
2, 200179, Note_on_c, 0, 80, 0
2, 200181, Note_on_c, 0, 73, 106
2, 200183, Note_on_c, 0, 77, 95
2, 200183, Note_on_c, 0, 80, 99
2, 200188, Note_on_c, 0, 37, 100
2, 200189, Note_on_c, 0, 25, 98
2, 200222, Note_on_c, 0, 53, 0
2, 200222, Note_on_c, 0, 61, 0
2, 200222, Note_on_c, 0, 44, 0
2, 200223, Note_on_c, 0, 56, 0
2, 200224, Note_on_c, 0, 37, 0
2, 200230, Control_c, 0, 64, 0
2, 200232, Note_on_c, 0, 49, 0
2, 200325, Note_on_c, 0, 25, 0
2, 200374, Note_on_c, 0, 37, 102
2, 200375, Note_on_c, 0, 25, 95
2, 200412, Note_on_c, 0, 37, 0
2, 200540, Note_on_c, 0, 25, 0
2, 200548, Note_on_c, 0, 37, 97
2, 200549, Note_on_c, 0, 25, 94
2, 200568, Note_on_c, 0, 85, 0
2, 200582, Note_on_c, 0, 37, 0
2, 200601, Note_on_c, 0, 73, 0
2, 200601, Note_on_c, 0, 77, 0
2, 200609, Note_on_c, 0, 80, 0
2, 200709, Note_on_c, 0, 25, 0
2, 200856, Note_on_c, 0, 82, 107
2, 200859, Note_on_c, 0, 70, 107
2, 200863, Note_on_c, 0, 75, 101
2, 200865, Note_on_c, 0, 78, 96
2, 200872, Note_on_c, 0, 35, 97
2, 201085, Control_c, 0, 64, 127
2, 201276, Note_on_c, 0, 47, 95
2, 201397, Note_on_c, 0, 58, 99
2, 201398, Note_on_c, 0, 54, 93
2, 201403, Note_on_c, 0, 51, 89
2, 201531, Note_on_c, 0, 63, 88
2, 201618, Note_on_c, 0, 66, 81
2, 201653, Note_on_c, 0, 70, 0
2, 201662, Note_on_c, 0, 70, 96
2, 201727, Note_on_c, 0, 82, 0
2, 201727, Control_c, 0, 64, 0
2, 201728, Note_on_c, 0, 58, 0
2, 201728, Note_on_c, 0, 47, 0
2, 201728, Note_on_c, 0, 78, 0
2, 201729, Note_on_c, 0, 35, 0
2, 201729, Note_on_c, 0, 70, 0
2, 201729, Note_on_c, 0, 75, 0
2, 201730, Note_on_c, 0, 63, 0
2, 201732, Note_on_c, 0, 66, 0
2, 201732, Note_on_c, 0, 51, 0
2, 201732, Note_on_c, 0, 54, 0
2, 201795, Note_on_c, 0, 68, 108
2, 201802, Note_on_c, 0, 61, 100
2, 201803, Note_on_c, 0, 65, 86
2, 201804, Note_on_c, 0, 49, 98
2, 201811, Note_on_c, 0, 37, 89
2, 201861, Note_on_c, 0, 49, 0
2, 201899, Control_c, 0, 64, 127
2, 202054, Note_on_c, 0, 49, 81
2, 202175, Note_on_c, 0, 53, 90
2, 202298, Note_on_c, 0, 61, 0
2, 202308, Note_on_c, 0, 56, 98
2, 202310, Note_on_c, 0, 61, 94
2, 202437, Note_on_c, 0, 68, 0
2, 202440, Note_on_c, 0, 80, 107
2, 202441, Note_on_c, 0, 68, 105
2, 202442, Note_on_c, 0, 73, 101
2, 202444, Note_on_c, 0, 77, 91
2, 202690, Note_on_c, 0, 37, 0
2, 202695, Note_on_c, 0, 37, 89
2, 202824, Note_on_c, 0, 35, 90
2, 202825, Note_on_c, 0, 47, 77
2, 202863, Control_c, 0, 64, 0
2, 202865, Note_on_c, 0, 65, 0
2, 202865, Note_on_c, 0, 61, 0
2, 202867, Note_on_c, 0, 37, 0
2, 202868, Note_on_c, 0, 80, 0
2, 202868, Note_on_c, 0, 68, 0
2, 202868, Note_on_c, 0, 53, 0
2, 202868, Note_on_c, 0, 56, 0
2, 202868, Note_on_c, 0, 73, 0
2, 202869, Note_on_c, 0, 49, 0
2, 202869, Note_on_c, 0, 77, 0
2, 202905, Note_on_c, 0, 35, 0
2, 202905, Note_on_c, 0, 47, 0
2, 202964, Note_on_c, 0, 80, 106
2, 202965, Note_on_c, 0, 46, 105
2, 202969, Note_on_c, 0, 34, 100
2, 202969, Note_on_c, 0, 68, 101
2, 202970, Note_on_c, 0, 73, 101
2, 202971, Note_on_c, 0, 77, 93
2, 203020, Control_c, 0, 64, 127
2, 203246, Note_on_c, 0, 56, 87
2, 203248, Note_on_c, 0, 53, 81
2, 203366, Note_on_c, 0, 46, 0
2, 203376, Note_on_c, 0, 46, 82
2, 203466, Note_on_c, 0, 56, 0
2, 203471, Note_on_c, 0, 56, 82
2, 203481, Note_on_c, 0, 53, 0
2, 203485, Note_on_c, 0, 53, 80
2, 203489, Note_on_c, 0, 73, 0
2, 203489, Note_on_c, 0, 77, 0
2, 203494, Note_on_c, 0, 77, 102
2, 203499, Note_on_c, 0, 73, 100
2, 203500, Note_on_c, 0, 65, 98
2, 203612, Note_on_c, 0, 34, 0
2, 203623, Note_on_c, 0, 34, 92
2, 203727, Note_on_c, 0, 46, 0
2, 203733, Note_on_c, 0, 46, 86
2, 203849, Control_c, 0, 64, 0
2, 203868, Note_on_c, 0, 68, 0
2, 203868, Note_on_c, 0, 56, 0
2, 203869, Note_on_c, 0, 73, 0
2, 203869, Note_on_c, 0, 77, 0
2, 203869, Note_on_c, 0, 80, 0
2, 203870, Note_on_c, 0, 65, 0
2, 203870, Note_on_c, 0, 53, 0
2, 203873, Note_on_c, 0, 46, 0
2, 203877, Note_on_c, 0, 39, 87
2, 203879, Note_on_c, 0, 51, 94
2, 203881, Note_on_c, 0, 46, 84
2, 203888, Note_on_c, 0, 34, 0
2, 203927, Control_c, 0, 64, 127
2, 204014, Note_on_c, 0, 77, 103
2, 204015, Note_on_c, 0, 73, 101
2, 204025, Note_on_c, 0, 65, 99
2, 204033, Note_on_c, 0, 70, 74
2, 204266, Note_on_c, 0, 53, 88
2, 204396, Note_on_c, 0, 54, 96
2, 204418, Note_on_c, 0, 39, 0
2, 204537, Note_on_c, 0, 78, 108
2, 204541, Note_on_c, 0, 70, 0
2, 204544, Note_on_c, 0, 66, 101
2, 204546, Note_on_c, 0, 70, 88
2, 204550, Note_on_c, 0, 75, 86
2, 204654, Note_on_c, 0, 39, 70
2, 204783, Note_on_c, 0, 37, 94
2, 204784, Note_on_c, 0, 49, 87
2, 204879, Note_on_c, 0, 66, 0
2, 204888, Note_on_c, 0, 66, 82
2, 204925, Note_on_c, 0, 70, 0
2, 204935, Note_on_c, 0, 70, 89
2, 204938, Control_c, 0, 64, 0
2, 204939, Note_on_c, 0, 73, 0
2, 204939, Note_on_c, 0, 54, 0
2, 204939, Note_on_c, 0, 51, 0
2, 204940, Note_on_c, 0, 65, 0
2, 204940, Note_on_c, 0, 53, 0
2, 204940, Note_on_c, 0, 66, 0
2, 204941, Note_on_c, 0, 39, 0
2, 204941, Note_on_c, 0, 77, 0
2, 204941, Note_on_c, 0, 75, 0
2, 204942, Note_on_c, 0, 49, 0
2, 204942, Note_on_c, 0, 78, 0
2, 204943, Note_on_c, 0, 46, 0
2, 204943, Note_on_c, 0, 37, 0
2, 204986, Note_on_c, 0, 70, 0
2, 205059, Note_on_c, 0, 78, 109
2, 205067, Note_on_c, 0, 75, 88
2, 205069, Note_on_c, 0, 66, 100
2, 205070, Note_on_c, 0, 70, 86
2, 205073, Note_on_c, 0, 48, 96
2, 205074, Note_on_c, 0, 36, 94
2, 205086, Control_c, 0, 64, 127
2, 205336, Note_on_c, 0, 58, 98
2, 205336, Note_on_c, 0, 54, 91
2, 205338, Note_on_c, 0, 51, 88
2, 205601, Note_on_c, 0, 66, 0
2, 205610, Note_on_c, 0, 66, 95
2, 205610, Note_on_c, 0, 63, 93
2, 205716, Note_on_c, 0, 48, 0
2, 205725, Note_on_c, 0, 48, 81
2, 205824, Note_on_c, 0, 51, 0
2, 205824, Note_on_c, 0, 54, 0
2, 205824, Note_on_c, 0, 63, 0
2, 205828, Note_on_c, 0, 54, 72
2, 205828, Note_on_c, 0, 51, 76
2, 205828, Note_on_c, 0, 63, 79
2, 205839, Note_on_c, 0, 66, 0
2, 205844, Note_on_c, 0, 66, 77
2, 205877, Note_on_c, 0, 70, 0
2, 205884, Note_on_c, 0, 70, 99
2, 205904, Control_c, 0, 64, 0
2, 205908, Note_on_c, 0, 36, 0
2, 205912, Note_on_c, 0, 78, 0
2, 205912, Note_on_c, 0, 58, 0
2, 205913, Note_on_c, 0, 75, 0
2, 205913, Note_on_c, 0, 63, 0
2, 205913, Note_on_c, 0, 48, 0
2, 205913, Note_on_c, 0, 51, 0
2, 205914, Note_on_c, 0, 54, 0
2, 205915, Note_on_c, 0, 66, 0
2, 205977, Note_on_c, 0, 70, 0
2, 206005, Note_on_c, 0, 68, 102
2, 206008, Note_on_c, 0, 66, 98
2, 206008, Note_on_c, 0, 47, 99
2, 206010, Note_on_c, 0, 35, 89
2, 206100, Control_c, 0, 64, 127
2, 206246, Note_on_c, 0, 47, 0
2, 206254, Note_on_c, 0, 47, 72
2, 206375, Note_on_c, 0, 51, 76
2, 206504, Note_on_c, 0, 54, 67
2, 206504, Note_on_c, 0, 58, 77
2, 206630, Note_on_c, 0, 66, 0
2, 206633, Note_on_c, 0, 75, 103
2, 206635, Note_on_c, 0, 66, 96
2, 206635, Note_on_c, 0, 70, 96
2, 206860, Note_on_c, 0, 47, 0
2, 206866, Note_on_c, 0, 47, 91
2, 207032, Note_on_c, 0, 73, 99
2, 207066, Note_on_c, 0, 58, 0
2, 207066, Note_on_c, 0, 51, 0
2, 207066, Note_on_c, 0, 68, 0
2, 207066, Note_on_c, 0, 75, 0
2, 207066, Note_on_c, 0, 70, 0
2, 207067, Note_on_c, 0, 66, 0
2, 207068, Note_on_c, 0, 54, 0
2, 207068, Control_c, 0, 64, 0
2, 207069, Note_on_c, 0, 47, 0
2, 207070, Note_on_c, 0, 35, 0
2, 207114, Note_on_c, 0, 73, 0
2, 207161, Note_on_c, 0, 73, 106
2, 207163, Note_on_c, 0, 68, 96
2, 207164, Note_on_c, 0, 46, 95
2, 207165, Note_on_c, 0, 61, 89
2, 207166, Note_on_c, 0, 34, 89
2, 207166, Note_on_c, 0, 65, 87
2, 207191, Control_c, 0, 64, 127
2, 207413, Note_on_c, 0, 46, 0
2, 207419, Note_on_c, 0, 46, 79
2, 207558, Note_on_c, 0, 56, 96
2, 207559, Note_on_c, 0, 53, 87
2, 207559, Note_on_c, 0, 46, 0
2, 207559, Note_on_c, 0, 68, 0
2, 207564, Note_on_c, 0, 46, 84
2, 207564, Note_on_c, 0, 68, 104
2, 207567, Note_on_c, 0, 65, 0
2, 207574, Note_on_c, 0, 65, 88
2, 207720, Note_on_c, 0, 65, 0
2, 207725, Note_on_c, 0, 65, 53
2, 207813, Note_on_c, 0, 65, 0
2, 207820, Note_on_c, 0, 61, 0
2, 207824, Note_on_c, 0, 65, 93
2, 207824, Note_on_c, 0, 61, 94
2, 207943, Note_on_c, 0, 46, 0
2, 207954, Note_on_c, 0, 46, 86
2, 208064, Control_c, 0, 64, 0
2, 208066, Note_on_c, 0, 34, 0
2, 208079, Note_on_c, 0, 56, 0
2, 208080, Note_on_c, 0, 46, 0
2, 208081, Note_on_c, 0, 61, 0
2, 208083, Note_on_c, 0, 73, 0
2, 208084, Note_on_c, 0, 53, 0
2, 208097, Note_on_c, 0, 68, 0
2, 208104, Note_on_c, 0, 65, 0
2, 208108, Note_on_c, 0, 68, 101
2, 208109, Note_on_c, 0, 65, 89
2, 208110, Note_on_c, 0, 39, 93
2, 208110, Note_on_c, 0, 51, 100
2, 208166, Control_c, 0, 64, 127
2, 208363, Note_on_c, 0, 70, 98
2, 208368, Note_on_c, 0, 66, 92
2, 208488, Note_on_c, 0, 66, 0
2, 208488, Note_on_c, 0, 70, 0
2, 208495, Note_on_c, 0, 70, 103
2, 208498, Note_on_c, 0, 66, 96
2, 208619, Note_on_c, 0, 46, 103
2, 208742, Note_on_c, 0, 46, 0
2, 208742, Note_on_c, 0, 51, 0
2, 208750, Note_on_c, 0, 39, 0
2, 208752, Note_on_c, 0, 46, 105
2, 208753, Note_on_c, 0, 51, 93
2, 208753, Note_on_c, 0, 75, 92
2, 208754, Note_on_c, 0, 39, 81
2, 208809, Note_on_c, 0, 77, 84
2, 208857, Note_on_c, 0, 51, 0
2, 208867, Note_on_c, 0, 51, 43
2, 208870, Note_on_c, 0, 78, 92
2, 208921, Note_on_c, 0, 80, 97
2, 208942, Note_on_c, 0, 39, 0
2, 208942, Note_on_c, 0, 46, 0
2, 208942, Note_on_c, 0, 51, 0
2, 208952, Note_on_c, 0, 46, 97
2, 208953, Note_on_c, 0, 39, 92
2, 208953, Note_on_c, 0, 51, 87
2, 208970, Note_on_c, 0, 83, 97
2, 209021, Note_on_c, 0, 85, 102
2, 209060, Note_on_c, 0, 87, 105
2, 209111, Note_on_c, 0, 46, 0
2, 209118, Note_on_c, 0, 39, 0
2, 209118, Note_on_c, 0, 51, 0
2, 209122, Note_on_c, 0, 46, 102
2, 209124, Note_on_c, 0, 51, 87
2, 209125, Note_on_c, 0, 39, 81
2, 209190, Note_on_c, 0, 68, 0
2, 209191, Note_on_c, 0, 87, 0
2, 209191, Note_on_c, 0, 66, 0
2, 209191, Note_on_c, 0, 75, 0
2, 209191, Note_on_c, 0, 77, 0
2, 209191, Note_on_c, 0, 80, 0
2, 209192, Note_on_c, 0, 46, 0
2, 209192, Note_on_c, 0, 51, 0
2, 209192, Note_on_c, 0, 83, 0
2, 209192, Note_on_c, 0, 70, 0
2, 209192, Note_on_c, 0, 85, 0
2, 209192, Note_on_c, 0, 78, 0
2, 209192, Control_c, 0, 64, 0
2, 209192, Note_on_c, 0, 39, 0
2, 209195, Note_on_c, 0, 65, 0
2, 209306, Note_on_c, 0, 90, 115
2, 209307, Note_on_c, 0, 78, 113
2, 209308, Note_on_c, 0, 82, 109
2, 209551, Note_on_c, 0, 47, 108
2, 209552, Note_on_c, 0, 35, 95
2, 209571, Control_c, 0, 64, 127
2, 209702, Note_on_c, 0, 47, 0
2, 209706, Note_on_c, 0, 47, 80
2, 209767, Note_on_c, 0, 54, 90
2, 209768, Note_on_c, 0, 51, 88
2, 209821, Note_on_c, 0, 58, 102
2, 209821, Note_on_c, 0, 63, 104
2, 209832, Note_on_c, 0, 54, 0
2, 209837, Note_on_c, 0, 54, 67
2, 209932, Note_on_c, 0, 35, 0
2, 209942, Note_on_c, 0, 35, 83
2, 209945, Note_on_c, 0, 47, 0
2, 210048, Note_on_c, 0, 58, 0
2, 210048, Note_on_c, 0, 63, 0
2, 210054, Note_on_c, 0, 63, 100
2, 210055, Note_on_c, 0, 58, 86
2, 210056, Note_on_c, 0, 42, 93
2, 210060, Note_on_c, 0, 51, 0
2, 210150, Note_on_c, 0, 35, 0
2, 210151, Note_on_c, 0, 42, 0
2, 210151, Note_on_c, 0, 58, 0
2, 210151, Note_on_c, 0, 63, 0
2, 210151, Note_on_c, 0, 54, 0
2, 210153, Control_c, 0, 64, 0
2, 210155, Note_on_c, 0, 82, 0
2, 210155, Note_on_c, 0, 90, 0
2, 210163, Note_on_c, 0, 78, 0
2, 210205, Note_on_c, 0, 89, 108
2, 210205, Note_on_c, 0, 77, 108
2, 210205, Note_on_c, 0, 49, 101
2, 210209, Note_on_c, 0, 37, 94
2, 210274, Note_on_c, 0, 87, 99
2, 210301, Control_c, 0, 64, 127
2, 210341, Note_on_c, 0, 85, 105
2, 210455, Note_on_c, 0, 87, 0
2, 210464, Note_on_c, 0, 87, 107
2, 210577, Note_on_c, 0, 49, 0
2, 210582, Note_on_c, 0, 49, 90
2, 210708, Note_on_c, 0, 77, 0
2, 210708, Note_on_c, 0, 85, 0
2, 210712, Note_on_c, 0, 61, 106
2, 210712, Note_on_c, 0, 53, 64
2, 210713, Note_on_c, 0, 85, 113
2, 210713, Note_on_c, 0, 56, 94
2, 210716, Note_on_c, 0, 49, 0
2, 210718, Note_on_c, 0, 77, 100
2, 210720, Note_on_c, 0, 49, 87
2, 210758, Note_on_c, 0, 37, 0
2, 210758, Control_c, 0, 64, 0
2, 210761, Note_on_c, 0, 61, 0
2, 210761, Note_on_c, 0, 49, 0
2, 210762, Note_on_c, 0, 53, 0
2, 210763, Note_on_c, 0, 87, 0
2, 210767, Note_on_c, 0, 56, 0
2, 210769, Note_on_c, 0, 89, 0
2, 210770, Note_on_c, 0, 77, 0
2, 210862, Note_on_c, 0, 85, 0
2, 210966, Note_on_c, 0, 83, 107
2, 210968, Note_on_c, 0, 77, 99
2, 211031, Control_c, 0, 64, 127
2, 211038, Note_on_c, 0, 83, 0
2, 211091, Note_on_c, 0, 47, 106
2, 211094, Note_on_c, 0, 35, 96
2, 211172, Control_c, 0, 64, 0
2, 211175, Note_on_c, 0, 47, 0
2, 211178, Note_on_c, 0, 35, 0
2, 211190, Note_on_c, 0, 82, 87
2, 211200, Note_on_c, 0, 77, 0
2, 211247, Note_on_c, 0, 83, 87
2, 211249, Note_on_c, 0, 82, 0
2, 211322, Note_on_c, 0, 83, 0
2, 211351, Note_on_c, 0, 80, 106
2, 211353, Note_on_c, 0, 85, 109
2, 211356, Note_on_c, 0, 46, 105
2, 211357, Note_on_c, 0, 34, 98
2, 211358, Note_on_c, 0, 77, 94
2, 211399, Control_c, 0, 64, 127
2, 211545, Note_on_c, 0, 77, 0
2, 211548, Note_on_c, 0, 83, 103
2, 211550, Note_on_c, 0, 77, 89
2, 211636, Note_on_c, 0, 56, 87
2, 211639, Note_on_c, 0, 53, 68
2, 211737, Note_on_c, 0, 46, 0
2, 211737, Note_on_c, 0, 77, 0
2, 211747, Note_on_c, 0, 46, 93
2, 211747, Note_on_c, 0, 82, 103
2, 211747, Note_on_c, 0, 77, 90
2, 211875, Note_on_c, 0, 77, 0
2, 211875, Note_on_c, 0, 83, 0
2, 211880, Note_on_c, 0, 83, 105
2, 211884, Note_on_c, 0, 77, 94
2, 212006, Note_on_c, 0, 46, 0
2, 212011, Note_on_c, 0, 46, 93
2, 212083, Note_on_c, 0, 77, 0
2, 212083, Note_on_c, 0, 82, 0
2, 212093, Note_on_c, 0, 82, 105
2, 212094, Note_on_c, 0, 77, 99
2, 212152, Note_on_c, 0, 53, 0
2, 212152, Note_on_c, 0, 56, 0
2, 212157, Note_on_c, 0, 53, 88
2, 212157, Note_on_c, 0, 56, 87
2, 212267, Note_on_c, 0, 80, 0
2, 212276, Note_on_c, 0, 80, 103
2, 212351, Note_on_c, 0, 85, 0
2, 212352, Note_on_c, 0, 46, 0
2, 212353, Note_on_c, 0, 82, 0
2, 212354, Note_on_c, 0, 80, 0
2, 212354, Note_on_c, 0, 83, 0
2, 212354, Note_on_c, 0, 53, 0
2, 212355, Note_on_c, 0, 56, 0
2, 212358, Control_c, 0, 64, 0
2, 212367, Note_on_c, 0, 34, 0
2, 212375, Note_on_c, 0, 77, 0
2, 212402, Note_on_c, 0, 39, 94
2, 212403, Note_on_c, 0, 82, 101
2, 212405, Note_on_c, 0, 51, 95
2, 212451, Control_c, 0, 64, 127
2, 212471, Note_on_c, 0, 83, 92
2, 212536, Note_on_c, 0, 82, 0
2, 212540, Note_on_c, 0, 82, 99
2, 212651, Note_on_c, 0, 51, 0
2, 212657, Note_on_c, 0, 80, 101
2, 212657, Note_on_c, 0, 51, 76
2, 212789, Note_on_c, 0, 51, 0
2, 212790, Note_on_c, 0, 78, 104
2, 212793, Note_on_c, 0, 61, 91
2, 212794, Note_on_c, 0, 58, 93
2, 212796, Note_on_c, 0, 54, 90
2, 212800, Note_on_c, 0, 51, 79
2, 213035, Note_on_c, 0, 80, 0
2, 213043, Note_on_c, 0, 80, 104
2, 213175, Note_on_c, 0, 49, 83
2, 213175, Note_on_c, 0, 37, 84
2, 213277, Note_on_c, 0, 75, 94
2, 213296, Note_on_c, 0, 78, 0
2, 213303, Note_on_c, 0, 78, 77
2, 213309, Note_on_c, 0, 61, 0
2, 213310, Note_on_c, 0, 58, 0
2, 213311, Note_on_c, 0, 83, 0
2, 213312, Note_on_c, 0, 80, 0
2, 213314, Note_on_c, 0, 51, 0
2, 213314, Note_on_c, 0, 54, 0
2, 213314, Note_on_c, 0, 39, 0
2, 213315, Control_c, 0, 64, 0
2, 213315, Note_on_c, 0, 37, 0
2, 213315, Note_on_c, 0, 82, 0
2, 213323, Note_on_c, 0, 80, 73
2, 213335, Note_on_c, 0, 49, 0
2, 213373, Note_on_c, 0, 75, 0
2, 213381, Note_on_c, 0, 78, 0
2, 213431, Note_on_c, 0, 82, 107
2, 213434, Note_on_c, 0, 75, 97
2, 213435, Note_on_c, 0, 78, 97
2, 213438, Note_on_c, 0, 48, 94
2, 213439, Note_on_c, 0, 36, 91
2, 213465, Control_c, 0, 64, 127
2, 213693, Note_on_c, 0, 58, 100
2, 213694, Note_on_c, 0, 51, 90
2, 213696, Note_on_c, 0, 54, 90
2, 213946, Note_on_c, 0, 63, 94
2, 213948, Note_on_c, 0, 66, 92
2, 214072, Note_on_c, 0, 48, 0
2, 214077, Note_on_c, 0, 48, 77
2, 214126, Note_on_c, 0, 75, 0
2, 214130, Note_on_c, 0, 75, 59
2, 214164, Note_on_c, 0, 78, 0
2, 214171, Note_on_c, 0, 78, 89
2, 214172, Note_on_c, 0, 54, 0
2, 214176, Note_on_c, 0, 54, 86
2, 214187, Note_on_c, 0, 80, 0
2, 214197, Note_on_c, 0, 80, 88
2, 214225, Note_on_c, 0, 82, 0
2, 214237, Note_on_c, 0, 82, 91
2, 214276, Note_on_c, 0, 80, 0
2, 214276, Note_on_c, 0, 63, 0
2, 214276, Note_on_c, 0, 48, 0
2, 214277, Note_on_c, 0, 66, 0
2, 214277, Note_on_c, 0, 58, 0
2, 214278, Note_on_c, 0, 54, 0
2, 214278, Note_on_c, 0, 75, 0
2, 214279, Note_on_c, 0, 51, 0
2, 214279, Note_on_c, 0, 36, 0
2, 214280, Note_on_c, 0, 78, 0
2, 214283, Control_c, 0, 64, 0
2, 214346, Note_on_c, 0, 80, 105
2, 214349, Note_on_c, 0, 47, 104
2, 214351, Note_on_c, 0, 78, 104
2, 214351, Note_on_c, 0, 35, 91
2, 214410, Control_c, 0, 64, 127
2, 214433, Note_on_c, 0, 82, 0
2, 214594, Note_on_c, 0, 47, 0
2, 214599, Note_on_c, 0, 47, 85
2, 214726, Note_on_c, 0, 51, 81
2, 214859, Note_on_c, 0, 59, 94
2, 214859, Note_on_c, 0, 54, 92
2, 214994, Note_on_c, 0, 87, 108
2, 214997, Note_on_c, 0, 75, 103
2, 215208, Note_on_c, 0, 47, 0
2, 215214, Note_on_c, 0, 47, 59
2, 215372, Note_on_c, 0, 73, 104
2, 215373, Note_on_c, 0, 85, 103
2, 215452, Note_on_c, 0, 80, 0
2, 215452, Note_on_c, 0, 78, 0
2, 215452, Note_on_c, 0, 75, 0
2, 215452, Note_on_c, 0, 51, 0
2, 215453, Note_on_c, 0, 87, 0
2, 215453, Note_on_c, 0, 47, 0
2, 215453, Note_on_c, 0, 54, 0
2, 215454, Note_on_c, 0, 59, 0
2, 215455, Note_on_c, 0, 73, 0
2, 215455, Note_on_c, 0, 35, 0
2, 215456, Note_on_c, 0, 85, 0
2, 215458, Control_c, 0, 64, 0
2, 215509, Note_on_c, 0, 54, 98
2, 215511, Note_on_c, 0, 73, 105
2, 215511, Note_on_c, 0, 44, 90
2, 215511, Note_on_c, 0, 85, 100
2, 215512, Note_on_c, 0, 51, 88
2, 215512, Note_on_c, 0, 78, 94
2, 215554, Control_c, 0, 64, 127
2, 215646, Note_on_c, 0, 73, 0
2, 215654, Note_on_c, 0, 44, 0
2, 215656, Note_on_c, 0, 73, 80
2, 215761, Note_on_c, 0, 73, 0
2, 215761, Note_on_c, 0, 78, 0
2, 215769, Note_on_c, 0, 78, 81
2, 215771, Note_on_c, 0, 73, 61
2, 215900, Note_on_c, 0, 85, 0
2, 215906, Note_on_c, 0, 46, 92
2, 215907, Note_on_c, 0, 56, 95
2, 215911, Note_on_c, 0, 85, 106
2, 215911, Note_on_c, 0, 44, 80
2, 216023, Note_on_c, 0, 73, 0
2, 216030, Note_on_c, 0, 73, 91
2, 216161, Note_on_c, 0, 78, 0
2, 216171, Note_on_c, 0, 78, 91
2, 216292, Control_c, 0, 64, 0
2, 216299, Note_on_c, 0, 56, 0
2, 216299, Note_on_c, 0, 73, 0
2, 216299, Note_on_c, 0, 85, 0
2, 216300, Note_on_c, 0, 46, 0
2, 216300, Note_on_c, 0, 44, 0
2, 216305, Note_on_c, 0, 58, 102
2, 216307, Note_on_c, 0, 51, 0
2, 216307, Note_on_c, 0, 54, 0
2, 216307, Note_on_c, 0, 85, 105
2, 216312, Note_on_c, 0, 54, 98
2, 216313, Note_on_c, 0, 47, 89
2, 216314, Note_on_c, 0, 51, 89
2, 216360, Control_c, 0, 64, 127
2, 216446, Note_on_c, 0, 73, 88
2, 216552, Note_on_c, 0, 78, 0
2, 216562, Note_on_c, 0, 78, 83
2, 216683, Note_on_c, 0, 85, 0
2, 216686, Note_on_c, 0, 35, 75
2, 216688, Note_on_c, 0, 85, 99
2, 216798, Note_on_c, 0, 73, 0
2, 216809, Note_on_c, 0, 73, 96
2, 216913, Note_on_c, 0, 78, 0
2, 216925, Note_on_c, 0, 78, 94
2, 216929, Note_on_c, 0, 47, 0
2, 216940, Note_on_c, 0, 47, 88
2, 217059, Note_on_c, 0, 51, 0
2, 217059, Note_on_c, 0, 54, 0
2, 217059, Note_on_c, 0, 85, 0
2, 217064, Note_on_c, 0, 54, 90
2, 217067, Note_on_c, 0, 73, 0
2, 217068, Note_on_c, 0, 85, 106
2, 217070, Note_on_c, 0, 51, 79
2, 217071, Note_on_c, 0, 73, 106
2, 217197, Note_on_c, 0, 83, 103
2, 217199, Note_on_c, 0, 71, 99
2, 217325, Note_on_c, 0, 70, 96
2, 217325, Note_on_c, 0, 82, 101
2, 217443, Note_on_c, 0, 71, 0
2, 217443, Note_on_c, 0, 83, 0
2, 217448, Note_on_c, 0, 83, 105
2, 217448, Note_on_c, 0, 71, 100
2, 217511, Note_on_c, 0, 73, 0
2, 217511, Note_on_c, 0, 54, 0
2, 217512, Note_on_c, 0, 35, 0
2, 217512, Note_on_c, 0, 71, 0
2, 217512, Control_c, 0, 64, 0
2, 217513, Note_on_c, 0, 85, 0
2, 217513, Note_on_c, 0, 83, 0
2, 217514, Note_on_c, 0, 82, 0
2, 217514, Note_on_c, 0, 70, 0
2, 217515, Note_on_c, 0, 58, 0
2, 217516, Note_on_c, 0, 51, 0
2, 217536, Note_on_c, 0, 47, 0
2, 217536, Note_on_c, 0, 78, 0
2, 217578, Note_on_c, 0, 78, 107
2, 217578, Note_on_c, 0, 85, 104
2, 217585, Note_on_c, 0, 59, 96
2, 217589, Note_on_c, 0, 54, 93
2, 217593, Note_on_c, 0, 51, 90
2, 217605, Control_c, 0, 64, 127
2, 217719, Note_on_c, 0, 73, 86
2, 217835, Note_on_c, 0, 78, 0
2, 217846, Note_on_c, 0, 78, 81
2, 217962, Note_on_c, 0, 46, 99
2, 217964, Note_on_c, 0, 56, 93
2, 217966, Note_on_c, 0, 85, 0
2, 217970, Note_on_c, 0, 85, 109
2, 218073, Note_on_c, 0, 73, 0
2, 218084, Note_on_c, 0, 73, 93
2, 218204, Note_on_c, 0, 78, 0
2, 218215, Note_on_c, 0, 78, 94
2, 218350, Control_c, 0, 64, 0
2, 218354, Note_on_c, 0, 73, 0
2, 218355, Note_on_c, 0, 56, 0
2, 218355, Note_on_c, 0, 59, 0
2, 218357, Note_on_c, 0, 85, 0
2, 218357, Note_on_c, 0, 46, 0
2, 218365, Note_on_c, 0, 51, 0
2, 218365, Note_on_c, 0, 54, 0
2, 218367, Note_on_c, 0, 85, 106
2, 218369, Note_on_c, 0, 58, 101
2, 218375, Note_on_c, 0, 54, 102
2, 218375, Note_on_c, 0, 47, 89
2, 218375, Note_on_c, 0, 51, 92
2, 218411, Control_c, 0, 64, 127
2, 218480, Note_on_c, 0, 73, 100
2, 218595, Note_on_c, 0, 78, 0
2, 218600, Note_on_c, 0, 78, 91
2, 218734, Note_on_c, 0, 85, 0
2, 218741, Note_on_c, 0, 85, 100
2, 218751, Note_on_c, 0, 35, 74
2, 218849, Note_on_c, 0, 73, 0
2, 218857, Note_on_c, 0, 73, 99
2, 218956, Note_on_c, 0, 78, 0
2, 218966, Note_on_c, 0, 78, 96
2, 218979, Note_on_c, 0, 47, 0
2, 218984, Note_on_c, 0, 47, 90
2, 219095, Note_on_c, 0, 54, 0
2, 219095, Note_on_c, 0, 73, 0
2, 219095, Note_on_c, 0, 85, 0
2, 219100, Note_on_c, 0, 73, 104
2, 219102, Note_on_c, 0, 54, 99
2, 219102, Note_on_c, 0, 51, 0
2, 219104, Note_on_c, 0, 85, 103
2, 219107, Note_on_c, 0, 51, 87
2, 219210, Note_on_c, 0, 78, 0
2, 219219, Note_on_c, 0, 90, 111
2, 219220, Note_on_c, 0, 78, 105
2, 219361, Note_on_c, 0, 77, 100
2, 219361, Note_on_c, 0, 89, 105
2, 219479, Note_on_c, 0, 85, 0
2, 219486, Note_on_c, 0, 73, 0
2, 219490, Note_on_c, 0, 85, 110
2, 219491, Note_on_c, 0, 73, 107
2, 219494, Note_on_c, 0, 78, 0
2, 219496, Note_on_c, 0, 80, 97
2, 219501, Note_on_c, 0, 78, 91
2, 219535, Control_c, 0, 64, 0
2, 219541, Note_on_c, 0, 58, 0
2, 219542, Note_on_c, 0, 90, 0
2, 219543, Note_on_c, 0, 89, 0
2, 219543, Note_on_c, 0, 47, 0
2, 219543, Note_on_c, 0, 35, 0
2, 219544, Note_on_c, 0, 54, 0
2, 219544, Note_on_c, 0, 77, 0
2, 219544, Note_on_c, 0, 51, 0
2, 219623, Note_on_c, 0, 49, 93
2, 219624, Control_c, 0, 64, 127
2, 219625, Note_on_c, 0, 37, 94
2, 219801, Note_on_c, 0, 49, 0
2, 219806, Note_on_c, 0, 49, 43
2, 219887, Note_on_c, 0, 54, 82
2, 219942, Note_on_c, 0, 56, 82
2, 219997, Note_on_c, 0, 61, 93
2, 220055, Note_on_c, 0, 66, 85
2, 220098, Note_on_c, 0, 68, 81
2, 220131, Note_on_c, 0, 73, 0
2, 220142, Note_on_c, 0, 73, 103
2, 220216, Note_on_c, 0, 68, 0
2, 220220, Note_on_c, 0, 68, 95
2, 220270, Note_on_c, 0, 66, 0
2, 220278, Note_on_c, 0, 66, 85
2, 220331, Note_on_c, 0, 61, 0
2, 220340, Note_on_c, 0, 61, 70
2, 220416, Note_on_c, 0, 68, 0
2, 220426, Note_on_c, 0, 68, 85
2, 220477, Note_on_c, 0, 66, 0
2, 220486, Note_on_c, 0, 66, 80
2, 220669, Note_on_c, 0, 37, 0
2, 220669, Note_on_c, 0, 61, 0
2, 220670, Control_c, 0, 64, 0
2, 220670, Note_on_c, 0, 80, 0
2, 220671, Note_on_c, 0, 68, 0
2, 220671, Note_on_c, 0, 66, 0
2, 220671, Note_on_c, 0, 54, 0
2, 220672, Note_on_c, 0, 56, 0
2, 220677, Note_on_c, 0, 49, 0
2, 220677, Note_on_c, 0, 37, 57
2, 220678, Note_on_c, 0, 61, 78
2, 220678, Note_on_c, 0, 65, 76
2, 220682, Note_on_c, 0, 49, 63
2, 220684, Note_on_c, 0, 85, 0
2, 220692, Note_on_c, 0, 78, 0
2, 220738, Control_c, 0, 64, 127
2, 221223, Note_on_c, 0, 80, 103
2, 221248, Note_on_c, 0, 92, 107
2, 221644, Note_on_c, 0, 90, 104
2, 221648, Note_on_c, 0, 78, 88
2, 221790, Note_on_c, 0, 78, 0
2, 221790, Note_on_c, 0, 90, 0
2, 221794, Note_on_c, 0, 35, 81
2, 221799, Note_on_c, 0, 90, 104
2, 221802, Note_on_c, 0, 78, 98
2, 221808, Note_on_c, 0, 85, 100
2, 221810, Control_c, 0, 64, 0
2, 221815, Note_on_c, 0, 82, 92
2, 221816, Note_on_c, 0, 92, 0
2, 221817, Note_on_c, 0, 65, 0
2, 221817, Note_on_c, 0, 61, 0
2, 221819, Note_on_c, 0, 80, 0
2, 221821, Note_on_c, 0, 49, 0
2, 221824, Note_on_c, 0, 37, 0
2, 221836, Note_on_c, 0, 73, 0
2, 221982, Note_on_c, 0, 35, 0
2, 221982, Control_c, 0, 64, 127
2, 222211, Note_on_c, 0, 42, 54
2, 222623, Note_on_c, 0, 65, 76
2, 222628, Note_on_c, 0, 59, 53
2, 222628, Note_on_c, 0, 51, 56
2, 222634, Note_on_c, 0, 61, 53
2, 223337, Note_on_c, 0, 47, 33
2, 223494, Note_on_c, 0, 54, 42
2, 223633, Note_on_c, 0, 59, 0
2, 223643, Note_on_c, 0, 59, 54
2, 223764, Note_on_c, 0, 54, 0
2, 223774, Note_on_c, 0, 54, 55
2, 223895, Note_on_c, 0, 59, 0
2, 223903, Note_on_c, 0, 59, 64
2, 224017, Note_on_c, 0, 61, 0
2, 224029, Note_on_c, 0, 61, 63
2, 224163, Note_on_c, 0, 65, 0
2, 224174, Note_on_c, 0, 65, 74
2, 224309, Note_on_c, 0, 61, 0
2, 224319, Note_on_c, 0, 61, 59
2, 224448, Note_on_c, 0, 65, 0
2, 224454, Note_on_c, 0, 65, 59
2, 224574, Note_on_c, 0, 66, 62
2, 224640, Note_on_c, 0, 42, 0
2, 224640, Note_on_c, 0, 51, 0
2, 224640, Note_on_c, 0, 78, 0
2, 224640, Note_on_c, 0, 82, 0
2, 224640, Note_on_c, 0, 85, 0
2, 224640, Note_on_c, 0, 90, 0
2, 224730, Note_on_c, 0, 70, 66
2, 224855, Note_on_c, 0, 66, 0
2, 224864, Note_on_c, 0, 66, 56
2, 225008, Note_on_c, 0, 70, 0
2, 225014, Note_on_c, 0, 70, 60
2, 225160, Note_on_c, 0, 71, 60
2, 225315, Note_on_c, 0, 73, 69
2, 225469, Note_on_c, 0, 71, 0
2, 225474, Note_on_c, 0, 71, 45
2, 225630, Note_on_c, 0, 73, 0
2, 225639, Note_on_c, 0, 73, 71
2, 225810, Note_on_c, 0, 77, 54
2, 226019, Note_on_c, 0, 78, 61
2, 226272, Note_on_c, 0, 82, 68
2, 226563, Note_on_c, 0, 83, 80
2, 226933, Note_on_c, 0, 85, 67
2, 227440, Note_on_c, 0, 42, 57
2, 227441, Note_on_c, 0, 30, 53
2, 227471, Note_on_c, 0, 65, 0
2, 227472, Note_on_c, 0, 78, 0
2, 227472, Note_on_c, 0, 59, 0
2, 227473, Note_on_c, 0, 77, 0
2, 227473, Note_on_c, 0, 54, 0
2, 227473, Note_on_c, 0, 82, 0
2, 227473, Note_on_c, 0, 71, 0
2, 227474, Note_on_c, 0, 83, 0
2, 227475, Note_on_c, 0, 61, 0
2, 227476, Note_on_c, 0, 66, 0
2, 227481, Note_on_c, 0, 47, 0
2, 228157, Note_on_c, 0, 30, 0
2, 228415, Note_on_c, 0, 66, 54
2, 228441, Note_on_c, 0, 70, 0
2, 228449, Note_on_c, 0, 70, 60
2, 228464, Note_on_c, 0, 73, 0
2, 228470, Note_on_c, 0, 73, 70
2, 228512, Note_on_c, 0, 77, 56
2, 228545, Note_on_c, 0, 94, 70
2, 228583, Note_on_c, 0, 101, 96
2, 230031, Note_on_c, 0, 99, 70
2, 230080, Note_on_c, 0, 98, 77
2, 230157, Note_on_c, 0, 97, 96
2, 231544, Note_on_c, 0, 85, 0
2, 231640, Note_on_c, 0, 68, 45
2, 231682, Note_on_c, 0, 70, 0
2, 231689, Note_on_c, 0, 70, 61
2, 231952, Note_on_c, 0, 65, 38
2, 232051, Note_on_c, 0, 42, 0
2, 232320, Note_on_c, 0, 66, 0
2, 232320, Note_on_c, 0, 73, 0
2, 232320, Note_on_c, 0, 77, 0
2, 232320, Note_on_c, 0, 94, 0
2, 232320, Note_on_c, 0, 98, 0
2, 232320, Note_on_c, 0, 99, 0
2, 232320, Note_on_c, 0, 101, 0
2, 234693, Note_on_c, 0, 97, 0
2, 235883, Note_on_c, 0, 68, 0
2, 235914, Note_on_c, 0, 65, 0
2, 236106, Note_on_c, 0, 70, 0
2, 236113, Control_c, 0, 64, 0
2, 237442, Control_c, 0, 64, 127
2, 240000, Control_c, 0, 64, 0
2, 240001, End_track
0, 0, End_of_file
