0, 0, Header, 1, 2, 384
1, 0, Start_track
1, 0, Tempo, 500000
1, 0, Time_signature, 4, 2, 24, 8
1, 1, End_track
2, 0, Start_track
2, 7, Control_c, 0, 64, 127
2, 1717, Control_c, 0, 64, 0
2, 3152, Note_on_c, 0, 69, 70
2, 3152, Note_on_c, 0, 59, 51
2, 3164, Control_c, 0, 64, 127
2, 3167, Note_on_c, 0, 52, 39
2, 3172, Note_on_c, 0, 64, 54
2, 3174, Note_on_c, 0, 42, 45
2, 3185, Note_on_c, 0, 57, 46
2, 4078, Note_on_c, 0, 52, 0
2, 4078, Note_on_c, 0, 71, 73
2, 4085, Note_on_c, 0, 59, 0
2, 4087, Note_on_c, 0, 44, 44
2, 4088, Note_on_c, 0, 52, 39
2, 4088, Note_on_c, 0, 54, 42
2, 4091, Control_c, 0, 64, 0
2, 4091, Note_on_c, 0, 59, 34
2, 4093, Note_on_c, 0, 64, 0
2, 4097, Note_on_c, 0, 64, 39
2, 4101, Note_on_c, 0, 57, 0
2, 4102, Note_on_c, 0, 69, 0
2, 4102, Note_on_c, 0, 42, 0
2, 4300, Control_c, 0, 64, 127
2, 5053, Note_on_c, 0, 54, 0
2, 5061, Note_on_c, 0, 54, 70
2, 5184, Note_on_c, 0, 52, 0
2, 5192, Note_on_c, 0, 52, 68
2, 5299, Note_on_c, 0, 64, 0
2, 5304, Note_on_c, 0, 64, 70
2, 5441, Note_on_c, 0, 61, 72
2, 5576, Note_on_c, 0, 44, 0
2, 5578, Note_on_c, 0, 71, 0
2, 5578, Note_on_c, 0, 54, 0
2, 5583, Control_c, 0, 64, 0
2, 5590, Note_on_c, 0, 73, 79
2, 5591, Note_on_c, 0, 59, 0
2, 5594, Note_on_c, 0, 45, 56
2, 5598, Note_on_c, 0, 52, 0
2, 5601, Note_on_c, 0, 69, 70
2, 5601, Note_on_c, 0, 59, 58
2, 5602, Note_on_c, 0, 57, 54
2, 5609, Note_on_c, 0, 52, 41
2, 5690, Control_c, 0, 64, 127
2, 6433, Control_c, 0, 64, 0
2, 6433, Note_on_c, 0, 50, 54
2, 6434, Note_on_c, 0, 78, 84
2, 6435, Note_on_c, 0, 57, 0
2, 6435, Note_on_c, 0, 59, 0
2, 6435, Note_on_c, 0, 64, 0
2, 6442, Note_on_c, 0, 61, 0
2, 6442, Note_on_c, 0, 57, 54
2, 6443, Note_on_c, 0, 73, 0
2, 6445, Note_on_c, 0, 52, 0
2, 6445, Note_on_c, 0, 54, 52
2, 6446, Note_on_c, 0, 64, 55
2, 6447, Note_on_c, 0, 45, 0
2, 6454, Note_on_c, 0, 73, 62
2, 6458, Note_on_c, 0, 69, 0
2, 6461, Note_on_c, 0, 66, 59
2, 6464, Note_on_c, 0, 69, 48
2, 7257, Note_on_c, 0, 73, 0
2, 7267, Note_on_c, 0, 73, 78
2, 7311, Control_c, 0, 64, 127
2, 7332, Note_on_c, 0, 74, 89
2, 7434, Note_on_c, 0, 73, 0
2, 7439, Note_on_c, 0, 73, 86
2, 7567, Note_on_c, 0, 71, 87
2, 7806, Note_on_c, 0, 64, 0
2, 7806, Note_on_c, 0, 78, 0
2, 7806, Note_on_c, 0, 71, 0
2, 7807, Control_c, 0, 64, 0
2, 7807, Note_on_c, 0, 74, 0
2, 7807, Note_on_c, 0, 66, 0
2, 7808, Note_on_c, 0, 54, 0
2, 7808, Note_on_c, 0, 73, 0
2, 7808, Note_on_c, 0, 50, 0
2, 7818, Note_on_c, 0, 69, 0
2, 7824, Note_on_c, 0, 69, 79
2, 7829, Note_on_c, 0, 42, 52
2, 7833, Note_on_c, 0, 57, 0
2, 7837, Note_on_c, 0, 52, 43
2, 7839, Note_on_c, 0, 57, 55
2, 7842, Note_on_c, 0, 61, 60
2, 7848, Note_on_c, 0, 64, 63
2, 8676, Note_on_c, 0, 71, 90
2, 8680, Note_on_c, 0, 44, 52
2, 8680, Note_on_c, 0, 54, 59
2, 8682, Note_on_c, 0, 59, 63
2, 8686, Note_on_c, 0, 64, 0
2, 8695, Note_on_c, 0, 64, 63
2, 8716, Note_on_c, 0, 69, 0
2, 8716, Note_on_c, 0, 57, 0
2, 8717, Note_on_c, 0, 61, 0
2, 8717, Note_on_c, 0, 42, 0
2, 8947, Control_c, 0, 64, 127
2, 9615, Note_on_c, 0, 54, 0
2, 9619, Note_on_c, 0, 54, 73
2, 9730, Note_on_c, 0, 52, 0
2, 9738, Note_on_c, 0, 52, 71
2, 9868, Note_on_c, 0, 64, 0
2, 9874, Note_on_c, 0, 64, 74
2, 9991, Note_on_c, 0, 61, 85
2, 10125, Note_on_c, 0, 44, 0
2, 10125, Control_c, 0, 64, 0
2, 10126, Note_on_c, 0, 54, 0
2, 10129, Note_on_c, 0, 59, 0
2, 10130, Note_on_c, 0, 71, 0
2, 10136, Note_on_c, 0, 73, 90
2, 10137, Note_on_c, 0, 52, 0
2, 10138, Note_on_c, 0, 59, 73
2, 10139, Note_on_c, 0, 45, 70
2, 10140, Note_on_c, 0, 57, 70
2, 10142, Note_on_c, 0, 69, 76
2, 10146, Note_on_c, 0, 52, 61
2, 10176, Note_on_c, 0, 59, 0
2, 10283, Control_c, 0, 64, 127
2, 10529, Note_on_c, 0, 57, 0
2, 10944, Note_on_c, 0, 61, 0
2, 10951, Note_on_c, 0, 64, 0
2, 10957, Note_on_c, 0, 81, 101
2, 10962, Note_on_c, 0, 50, 67
2, 10963, Note_on_c, 0, 64, 79
2, 10972, Note_on_c, 0, 54, 62
2, 10973, Note_on_c, 0, 52, 0
2, 10976, Note_on_c, 0, 57, 70
2, 10979, Note_on_c, 0, 76, 65
2, 10982, Note_on_c, 0, 69, 0
2, 10982, Note_on_c, 0, 73, 0
2, 10986, Note_on_c, 0, 69, 65
2, 10989, Note_on_c, 0, 73, 55
2, 10990, Note_on_c, 0, 45, 0
2, 10993, Control_c, 0, 64, 0
2, 11151, Control_c, 0, 64, 127
2, 11768, Note_on_c, 0, 80, 92
2, 11804, Note_on_c, 0, 81, 0
2, 11814, Note_on_c, 0, 81, 98
2, 11904, Note_on_c, 0, 80, 0
2, 11910, Note_on_c, 0, 80, 88
2, 12026, Note_on_c, 0, 76, 0
2, 12037, Note_on_c, 0, 76, 88
2, 12165, Note_on_c, 0, 71, 81
2, 12311, Note_on_c, 0, 69, 0
2, 12313, Note_on_c, 0, 50, 0
2, 12314, Note_on_c, 0, 80, 0
2, 12314, Note_on_c, 0, 76, 0
2, 12314, Note_on_c, 0, 81, 0
2, 12315, Note_on_c, 0, 54, 0
2, 12315, Note_on_c, 0, 71, 0
2, 12315, Note_on_c, 0, 64, 0
2, 12315, Control_c, 0, 64, 0
2, 12315, Note_on_c, 0, 69, 86
2, 12316, Note_on_c, 0, 42, 65
2, 12318, Note_on_c, 0, 57, 0
2, 12325, Note_on_c, 0, 57, 76
2, 12334, Note_on_c, 0, 73, 0
2, 12595, Control_c, 0, 64, 127
2, 12757, Note_on_c, 0, 52, 57
2, 12814, Note_on_c, 0, 71, 82
2, 12838, Note_on_c, 0, 73, 102
2, 12845, Note_on_c, 0, 59, 84
2, 13109, Note_on_c, 0, 71, 0
2, 13120, Note_on_c, 0, 44, 73
2, 13120, Note_on_c, 0, 71, 91
2, 13123, Control_c, 0, 64, 0
2, 13128, Note_on_c, 0, 64, 70
2, 13128, Note_on_c, 0, 66, 70
2, 13133, Note_on_c, 0, 57, 0
2, 13134, Note_on_c, 0, 69, 0
2, 13135, Note_on_c, 0, 52, 0
2, 13136, Note_on_c, 0, 73, 0
2, 13137, Note_on_c, 0, 42, 0
2, 13585, Control_c, 0, 64, 127
2, 13592, Note_on_c, 0, 52, 67
2, 13702, Note_on_c, 0, 54, 86
2, 13829, Note_on_c, 0, 56, 78
2, 13954, Note_on_c, 0, 54, 0
2, 13964, Note_on_c, 0, 54, 71
2, 14054, Note_on_c, 0, 52, 0
2, 14063, Note_on_c, 0, 52, 78
2, 14202, Note_on_c, 0, 69, 90
2, 14323, Note_on_c, 0, 71, 0
2, 14332, Note_on_c, 0, 71, 85
2, 14417, Note_on_c, 0, 66, 0
2, 14417, Control_c, 0, 64, 0
2, 14418, Note_on_c, 0, 59, 0
2, 14419, Note_on_c, 0, 54, 0
2, 14419, Note_on_c, 0, 44, 0
2, 14419, Note_on_c, 0, 56, 0
2, 14419, Note_on_c, 0, 71, 0
2, 14445, Note_on_c, 0, 45, 90
2, 14446, Note_on_c, 0, 52, 0
2, 14451, Note_on_c, 0, 73, 95
2, 14453, Note_on_c, 0, 64, 0
2, 14453, Note_on_c, 0, 69, 0
2, 14458, Note_on_c, 0, 69, 85
2, 14459, Note_on_c, 0, 64, 84
2, 14576, Control_c, 0, 64, 127
2, 14718, Note_on_c, 0, 74, 95
2, 14830, Note_on_c, 0, 73, 0
2, 14834, Note_on_c, 0, 73, 91
2, 14841, Note_on_c, 0, 52, 77
2, 14962, Note_on_c, 0, 59, 87
2, 15098, Note_on_c, 0, 64, 0
2, 15104, Note_on_c, 0, 64, 88
2, 15210, Control_c, 0, 64, 0
2, 15216, Note_on_c, 0, 52, 0
2, 15216, Note_on_c, 0, 74, 0
2, 15216, Note_on_c, 0, 45, 0
2, 15217, Note_on_c, 0, 73, 0
2, 15217, Note_on_c, 0, 59, 0
2, 15218, Note_on_c, 0, 69, 0
2, 15219, Note_on_c, 0, 64, 0
2, 15227, Note_on_c, 0, 66, 95
2, 15230, Note_on_c, 0, 38, 87
2, 15241, Note_on_c, 0, 61, 72
2, 15241, Note_on_c, 0, 54, 77
2, 15413, Control_c, 0, 64, 127
2, 15502, Note_on_c, 0, 64, 81
2, 15618, Note_on_c, 0, 62, 84
2, 15627, Note_on_c, 0, 45, 75
2, 15753, Note_on_c, 0, 52, 76
2, 15882, Note_on_c, 0, 54, 0
2, 15893, Note_on_c, 0, 54, 70
2, 16008, Note_on_c, 0, 50, 75
2, 16128, Note_on_c, 0, 45, 0
2, 16138, Note_on_c, 0, 45, 67
2, 16258, Note_on_c, 0, 38, 0
2, 16268, Note_on_c, 0, 38, 69
2, 16505, Control_c, 0, 64, 0
2, 16515, Note_on_c, 0, 38, 0
2, 16515, Note_on_c, 0, 45, 0
2, 16516, Note_on_c, 0, 52, 0
2, 16516, Note_on_c, 0, 66, 0
2, 16516, Note_on_c, 0, 54, 0
2, 16516, Note_on_c, 0, 62, 0
2, 16517, Note_on_c, 0, 50, 0
2, 16537, Note_on_c, 0, 42, 84
2, 16546, Note_on_c, 0, 69, 97
2, 16558, Note_on_c, 0, 61, 0
2, 16558, Note_on_c, 0, 64, 0
2, 16562, Note_on_c, 0, 57, 83
2, 16566, Note_on_c, 0, 64, 69
2, 16569, Note_on_c, 0, 61, 75
2, 16719, Control_c, 0, 64, 127
2, 17008, Note_on_c, 0, 52, 68
2, 17019, Note_on_c, 0, 71, 67
2, 17026, Note_on_c, 0, 71, 0
2, 17048, Note_on_c, 0, 73, 104
2, 17064, Note_on_c, 0, 57, 0
2, 17069, Note_on_c, 0, 57, 90
2, 17336, Control_c, 0, 64, 0
2, 17347, Note_on_c, 0, 71, 95
2, 17349, Note_on_c, 0, 64, 0
2, 17349, Note_on_c, 0, 69, 0
2, 17351, Note_on_c, 0, 44, 79
2, 17353, Note_on_c, 0, 69, 80
2, 17354, Note_on_c, 0, 59, 81
2, 17357, Note_on_c, 0, 52, 0
2, 17358, Note_on_c, 0, 64, 70
2, 17359, Note_on_c, 0, 42, 0
2, 17360, Note_on_c, 0, 57, 0
2, 17361, Note_on_c, 0, 73, 0
2, 17362, Note_on_c, 0, 61, 0
2, 17762, Note_on_c, 0, 52, 61
2, 17771, Control_c, 0, 64, 127
2, 17882, Note_on_c, 0, 54, 86
2, 18004, Note_on_c, 0, 56, 82
2, 18140, Note_on_c, 0, 54, 0
2, 18144, Note_on_c, 0, 54, 71
2, 18247, Note_on_c, 0, 52, 0
2, 18252, Note_on_c, 0, 52, 83
2, 18370, Note_on_c, 0, 69, 0
2, 18381, Note_on_c, 0, 69, 90
2, 18493, Note_on_c, 0, 71, 0
2, 18500, Note_on_c, 0, 71, 87
2, 18575, Note_on_c, 0, 44, 0
2, 18575, Note_on_c, 0, 54, 0
2, 18576, Control_c, 0, 64, 0
2, 18577, Note_on_c, 0, 52, 0
2, 18577, Note_on_c, 0, 59, 0
2, 18577, Note_on_c, 0, 56, 0
2, 18600, Note_on_c, 0, 64, 0
2, 18600, Note_on_c, 0, 69, 0
2, 18632, Note_on_c, 0, 73, 97
2, 18632, Note_on_c, 0, 45, 86
2, 18640, Note_on_c, 0, 69, 72
2, 18640, Note_on_c, 0, 64, 85
2, 18662, Note_on_c, 0, 71, 0
2, 18800, Control_c, 0, 64, 127
2, 18892, Note_on_c, 0, 74, 95
2, 19008, Note_on_c, 0, 73, 0
2, 19018, Note_on_c, 0, 73, 97
2, 19019, Note_on_c, 0, 52, 72
2, 19145, Note_on_c, 0, 59, 87
2, 19279, Note_on_c, 0, 71, 90
2, 19363, Control_c, 0, 64, 0
2, 19376, Note_on_c, 0, 64, 0
2, 19376, Note_on_c, 0, 74, 0
2, 19376, Note_on_c, 0, 73, 0
2, 19377, Note_on_c, 0, 52, 0
2, 19377, Note_on_c, 0, 59, 0
2, 19379, Note_on_c, 0, 45, 0
2, 19392, Note_on_c, 0, 69, 0
2, 19399, Note_on_c, 0, 71, 0
2, 19410, Note_on_c, 0, 71, 94
2, 19411, Note_on_c, 0, 38, 89
2, 19417, Note_on_c, 0, 64, 89
2, 19418, Note_on_c, 0, 66, 83
2, 19789, Note_on_c, 0, 69, 94
2, 19811, Note_on_c, 0, 45, 70
2, 19939, Note_on_c, 0, 52, 72
2, 20014, Control_c, 0, 64, 127
2, 20040, Note_on_c, 0, 54, 82
2, 20171, Note_on_c, 0, 50, 85
2, 20428, Note_on_c, 0, 38, 0
2, 20438, Note_on_c, 0, 38, 82
2, 20638, Control_c, 0, 64, 0
2, 20640, Note_on_c, 0, 66, 0
2, 20640, Note_on_c, 0, 45, 0
2, 20641, Note_on_c, 0, 50, 0
2, 20641, Note_on_c, 0, 52, 0
2, 20641, Note_on_c, 0, 54, 0
2, 20641, Note_on_c, 0, 69, 0
2, 20641, Note_on_c, 0, 71, 0
2, 20642, Note_on_c, 0, 64, 0
2, 20642, Note_on_c, 0, 38, 0
2, 20712, Note_on_c, 0, 81, 107
2, 20714, Note_on_c, 0, 42, 100
2, 20715, Note_on_c, 0, 69, 103
2, 20715, Note_on_c, 0, 76, 100
2, 20716, Note_on_c, 0, 30, 98
2, 20718, Note_on_c, 0, 73, 102
2, 20743, Control_c, 0, 64, 127
2, 20782, Note_on_c, 0, 69, 0
2, 20881, Note_on_c, 0, 42, 0
2, 20888, Note_on_c, 0, 42, 81
2, 20901, Note_on_c, 0, 81, 0
2, 20901, Note_on_c, 0, 76, 0
2, 20902, Note_on_c, 0, 73, 0
2, 20902, Control_c, 0, 64, 0
2, 20912, Note_on_c, 0, 30, 0
2, 20958, Note_on_c, 0, 42, 0
2, 20977, Note_on_c, 0, 85, 97
2, 20981, Note_on_c, 0, 73, 86
2, 21043, Note_on_c, 0, 73, 0
2, 21112, Note_on_c, 0, 85, 0
2, 21117, Note_on_c, 0, 42, 74
2, 21135, Control_c, 0, 64, 127
2, 21173, Control_c, 0, 64, 0
2, 21173, Note_on_c, 0, 42, 0
2, 21216, Note_on_c, 0, 85, 102
2, 21217, Note_on_c, 0, 57, 98
2, 21219, Note_on_c, 0, 73, 100
2, 21223, Note_on_c, 0, 52, 74
2, 21223, Note_on_c, 0, 49, 89
2, 21224, Note_on_c, 0, 76, 86
2, 21258, Control_c, 0, 64, 127
2, 21445, Control_c, 0, 64, 0
2, 21448, Note_on_c, 0, 52, 0
2, 21449, Note_on_c, 0, 73, 0
2, 21450, Note_on_c, 0, 49, 0
2, 21451, Note_on_c, 0, 85, 0
2, 21457, Note_on_c, 0, 57, 0
2, 21473, Note_on_c, 0, 76, 0
2, 21477, Note_on_c, 0, 83, 105
2, 21483, Note_on_c, 0, 71, 97
2, 21484, Note_on_c, 0, 76, 96
2, 21484, Note_on_c, 0, 44, 98
2, 21486, Note_on_c, 0, 32, 90
2, 21527, Control_c, 0, 64, 127
2, 21608, Note_on_c, 0, 81, 91
2, 21707, Control_c, 0, 64, 0
2, 21719, Note_on_c, 0, 44, 0
2, 21719, Note_on_c, 0, 83, 0
2, 21722, Note_on_c, 0, 83, 93
2, 21728, Note_on_c, 0, 71, 0
2, 21742, Note_on_c, 0, 32, 0
2, 21780, Note_on_c, 0, 76, 0
2, 21818, Note_on_c, 0, 81, 0
2, 21870, Note_on_c, 0, 44, 85
2, 21918, Control_c, 0, 64, 127
2, 21957, Note_on_c, 0, 83, 0
2, 21984, Note_on_c, 0, 57, 93
2, 21989, Note_on_c, 0, 83, 104
2, 21990, Note_on_c, 0, 71, 95
2, 21994, Note_on_c, 0, 76, 89
2, 22116, Note_on_c, 0, 56, 89
2, 22232, Note_on_c, 0, 52, 82
2, 22356, Note_on_c, 0, 44, 0
2, 22361, Note_on_c, 0, 44, 86
2, 22487, Note_on_c, 0, 52, 0
2, 22491, Note_on_c, 0, 52, 83
2, 22492, Note_on_c, 0, 81, 100
2, 22602, Note_on_c, 0, 83, 0
2, 22606, Note_on_c, 0, 83, 95
2, 22640, Control_c, 0, 64, 0
2, 22650, Note_on_c, 0, 71, 0
2, 22651, Note_on_c, 0, 76, 0
2, 22651, Note_on_c, 0, 57, 0
2, 22651, Note_on_c, 0, 56, 0
2, 22652, Note_on_c, 0, 81, 0
2, 22663, Note_on_c, 0, 44, 0
2, 22663, Note_on_c, 0, 52, 0
2, 22686, Note_on_c, 0, 83, 0
2, 22737, Note_on_c, 0, 45, 100
2, 22738, Note_on_c, 0, 33, 91
2, 22743, Note_on_c, 0, 81, 96
2, 22744, Note_on_c, 0, 85, 107
2, 22744, Note_on_c, 0, 76, 99
2, 22786, Control_c, 0, 64, 127
2, 22993, Note_on_c, 0, 76, 0
2, 22998, Note_on_c, 0, 86, 101
2, 23004, Note_on_c, 0, 76, 74
2, 23124, Note_on_c, 0, 85, 0
2, 23130, Note_on_c, 0, 85, 102
2, 23139, Note_on_c, 0, 45, 0
2, 23149, Note_on_c, 0, 45, 84
2, 23255, Note_on_c, 0, 57, 99
2, 23265, Note_on_c, 0, 49, 86
2, 23266, Note_on_c, 0, 52, 75
2, 23393, Note_on_c, 0, 76, 0
2, 23400, Note_on_c, 0, 76, 92
2, 23452, Note_on_c, 0, 85, 0
2, 23452, Note_on_c, 0, 86, 0
2, 23452, Note_on_c, 0, 57, 0
2, 23452, Note_on_c, 0, 76, 0
2, 23453, Note_on_c, 0, 81, 0
2, 23456, Note_on_c, 0, 52, 0
2, 23457, Note_on_c, 0, 49, 0
2, 23457, Note_on_c, 0, 45, 0
2, 23458, Control_c, 0, 64, 0
2, 23477, Note_on_c, 0, 33, 0
2, 23523, Note_on_c, 0, 78, 105
2, 23527, Note_on_c, 0, 73, 91
2, 23527, Note_on_c, 0, 38, 91
2, 23528, Note_on_c, 0, 66, 99
2, 23585, Control_c, 0, 64, 127
2, 23796, Note_on_c, 0, 76, 90
2, 23912, Note_on_c, 0, 74, 98
2, 23936, Note_on_c, 0, 45, 84
2, 24047, Note_on_c, 0, 52, 79
2, 24155, Note_on_c, 0, 54, 85
2, 24289, Note_on_c, 0, 50, 83
2, 24422, Note_on_c, 0, 45, 0
2, 24427, Note_on_c, 0, 45, 76
2, 24552, Note_on_c, 0, 38, 0
2, 24557, Note_on_c, 0, 38, 80
2, 24757, Control_c, 0, 64, 0
2, 24759, Note_on_c, 0, 74, 0
2, 24759, Note_on_c, 0, 66, 0
2, 24759, Note_on_c, 0, 38, 0
2, 24760, Note_on_c, 0, 45, 0
2, 24760, Note_on_c, 0, 50, 0
2, 24760, Note_on_c, 0, 76, 0
2, 24760, Note_on_c, 0, 54, 0
2, 24761, Note_on_c, 0, 78, 0
2, 24761, Note_on_c, 0, 52, 0
2, 24768, Note_on_c, 0, 73, 0
2, 24823, Note_on_c, 0, 81, 107
2, 24825, Note_on_c, 0, 69, 101
2, 24825, Note_on_c, 0, 76, 98
2, 24827, Note_on_c, 0, 73, 105
2, 24830, Note_on_c, 0, 42, 102
2, 24831, Note_on_c, 0, 30, 101
2, 24890, Control_c, 0, 64, 127
2, 24906, Note_on_c, 0, 69, 0
2, 25079, Note_on_c, 0, 85, 96
2, 25167, Note_on_c, 0, 30, 0
2, 25179, Note_on_c, 0, 81, 0
2, 25185, Control_c, 0, 64, 0
2, 25186, Note_on_c, 0, 73, 0
2, 25190, Note_on_c, 0, 76, 0
2, 25192, Note_on_c, 0, 85, 0
2, 25198, Note_on_c, 0, 42, 0
2, 25207, Note_on_c, 0, 42, 81
2, 25313, Note_on_c, 0, 42, 0
2, 25330, Note_on_c, 0, 85, 106
2, 25332, Note_on_c, 0, 57, 100
2, 25332, Note_on_c, 0, 73, 101
2, 25334, Note_on_c, 0, 76, 92
2, 25338, Note_on_c, 0, 52, 74
2, 25338, Note_on_c, 0, 49, 95
2, 25390, Control_c, 0, 64, 127
2, 25505, Note_on_c, 0, 57, 0
2, 25505, Control_c, 0, 64, 0
2, 25509, Note_on_c, 0, 49, 0
2, 25511, Note_on_c, 0, 73, 0
2, 25511, Note_on_c, 0, 76, 0
2, 25517, Note_on_c, 0, 85, 0
2, 25536, Note_on_c, 0, 52, 0
2, 25597, Note_on_c, 0, 83, 108
2, 25601, Note_on_c, 0, 44, 97
2, 25601, Note_on_c, 0, 71, 97
2, 25602, Note_on_c, 0, 76, 95
2, 25603, Note_on_c, 0, 32, 89
2, 25704, Control_c, 0, 64, 127
2, 25730, Note_on_c, 0, 81, 95
2, 25835, Note_on_c, 0, 83, 0
2, 25846, Note_on_c, 0, 83, 102
2, 25858, Note_on_c, 0, 76, 0
2, 25865, Note_on_c, 0, 76, 72
2, 25996, Note_on_c, 0, 44, 0
2, 26001, Note_on_c, 0, 44, 84
2, 26112, Note_on_c, 0, 71, 0
2, 26112, Note_on_c, 0, 76, 0
2, 26112, Note_on_c, 0, 83, 0
2, 26115, Note_on_c, 0, 57, 101
2, 26115, Note_on_c, 0, 83, 104
2, 26116, Note_on_c, 0, 76, 99
2, 26116, Note_on_c, 0, 71, 99
2, 26246, Note_on_c, 0, 56, 87
2, 26359, Note_on_c, 0, 52, 81
2, 26480, Note_on_c, 0, 44, 0
2, 26486, Note_on_c, 0, 44, 87
2, 26611, Note_on_c, 0, 52, 0
2, 26618, Note_on_c, 0, 81, 0
2, 26622, Note_on_c, 0, 52, 88
2, 26623, Note_on_c, 0, 81, 100
2, 26641, Note_on_c, 0, 76, 0
2, 26651, Note_on_c, 0, 76, 57
2, 26734, Note_on_c, 0, 83, 0
2, 26743, Note_on_c, 0, 83, 96
2, 26781, Note_on_c, 0, 57, 0
2, 26782, Note_on_c, 0, 71, 0
2, 26783, Note_on_c, 0, 44, 0
2, 26783, Note_on_c, 0, 56, 0
2, 26784, Control_c, 0, 64, 0
2, 26784, Note_on_c, 0, 83, 0
2, 26784, Note_on_c, 0, 76, 0
2, 26784, Note_on_c, 0, 81, 0
2, 26795, Note_on_c, 0, 32, 0
2, 26795, Note_on_c, 0, 52, 0
2, 26882, Note_on_c, 0, 45, 102
2, 26882, Note_on_c, 0, 33, 90
2, 26885, Note_on_c, 0, 85, 107
2, 26885, Note_on_c, 0, 81, 98
2, 26887, Note_on_c, 0, 76, 99
2, 26964, Control_c, 0, 64, 127
2, 27135, Note_on_c, 0, 86, 102
2, 27256, Note_on_c, 0, 85, 0
2, 27260, Note_on_c, 0, 85, 104
2, 27279, Note_on_c, 0, 45, 0
2, 27290, Note_on_c, 0, 45, 87
2, 27391, Note_on_c, 0, 57, 100
2, 27398, Note_on_c, 0, 52, 73
2, 27404, Note_on_c, 0, 49, 83
2, 27526, Note_on_c, 0, 83, 101
2, 27555, Note_on_c, 0, 52, 0
2, 27560, Note_on_c, 0, 52, 50
2, 27595, Note_on_c, 0, 85, 0
2, 27595, Note_on_c, 0, 86, 0
2, 27596, Note_on_c, 0, 76, 0
2, 27597, Note_on_c, 0, 57, 0
2, 27597, Note_on_c, 0, 81, 0
2, 27599, Note_on_c, 0, 49, 0
2, 27602, Note_on_c, 0, 83, 0
2, 27602, Note_on_c, 0, 52, 0
2, 27604, Note_on_c, 0, 45, 0
2, 27605, Control_c, 0, 64, 0
2, 27609, Note_on_c, 0, 33, 0
2, 27659, Note_on_c, 0, 83, 103
2, 27659, Note_on_c, 0, 38, 93
2, 27660, Note_on_c, 0, 71, 96
2, 27669, Note_on_c, 0, 76, 93
2, 27672, Note_on_c, 0, 78, 94
2, 27770, Control_c, 0, 64, 127
2, 28038, Note_on_c, 0, 81, 98
2, 28043, Note_on_c, 0, 45, 73
2, 28043, Note_on_c, 0, 69, 90
2, 28175, Note_on_c, 0, 52, 80
2, 28281, Note_on_c, 0, 54, 73
2, 28406, Note_on_c, 0, 50, 84
2, 28661, Note_on_c, 0, 38, 0
2, 28672, Note_on_c, 0, 38, 86
2, 28874, Note_on_c, 0, 81, 0
2, 28874, Note_on_c, 0, 38, 0
2, 28874, Note_on_c, 0, 71, 0
2, 28875, Note_on_c, 0, 45, 0
2, 28875, Note_on_c, 0, 50, 0
2, 28875, Note_on_c, 0, 78, 0
2, 28875, Note_on_c, 0, 76, 0
2, 28875, Note_on_c, 0, 54, 0
2, 28876, Control_c, 0, 64, 0
2, 28876, Note_on_c, 0, 69, 0
2, 28877, Note_on_c, 0, 52, 0
2, 28884, Note_on_c, 0, 83, 0
2, 28927, Note_on_c, 0, 57, 103
2, 28929, Note_on_c, 0, 42, 97
2, 28930, Note_on_c, 0, 69, 99
2, 28930, Note_on_c, 0, 64, 98
2, 28931, Note_on_c, 0, 52, 95
2, 29068, Control_c, 0, 64, 127
2, 29099, Control_c, 0, 64, 0
2, 29127, Note_on_c, 0, 42, 0
2, 29133, Note_on_c, 0, 52, 0
2, 29135, Note_on_c, 0, 64, 0
2, 29140, Note_on_c, 0, 57, 0
2, 29158, Note_on_c, 0, 69, 0
2, 29180, Note_on_c, 0, 73, 97
2, 29240, Note_on_c, 0, 73, 0
2, 29447, Note_on_c, 0, 73, 102
2, 29475, Control_c, 0, 64, 127
2, 29579, Note_on_c, 0, 42, 88
2, 29623, Control_c, 0, 64, 0
2, 29656, Note_on_c, 0, 42, 0
2, 29663, Note_on_c, 0, 73, 0
2, 29699, Note_on_c, 0, 71, 103
2, 29705, Note_on_c, 0, 59, 101
2, 29705, Note_on_c, 0, 64, 98
2, 29708, Note_on_c, 0, 52, 92
2, 29708, Note_on_c, 0, 44, 87
2, 29851, Note_on_c, 0, 69, 89
2, 29959, Note_on_c, 0, 71, 0
2, 29966, Note_on_c, 0, 71, 93
2, 29998, Control_c, 0, 64, 127
2, 30021, Control_c, 0, 64, 0
2, 30034, Note_on_c, 0, 69, 0
2, 30105, Note_on_c, 0, 44, 0
2, 30108, Note_on_c, 0, 59, 0
2, 30108, Note_on_c, 0, 71, 0
2, 30109, Note_on_c, 0, 52, 0
2, 30116, Note_on_c, 0, 44, 78
2, 30223, Note_on_c, 0, 71, 105
2, 30232, Note_on_c, 0, 57, 96
2, 30305, Control_c, 0, 64, 127
2, 30369, Note_on_c, 0, 56, 90
2, 30478, Note_on_c, 0, 52, 86
2, 30604, Note_on_c, 0, 44, 0
2, 30610, Note_on_c, 0, 44, 91
2, 30727, Note_on_c, 0, 52, 0
2, 30732, Note_on_c, 0, 52, 85
2, 30733, Note_on_c, 0, 69, 98
2, 30842, Note_on_c, 0, 71, 0
2, 30853, Note_on_c, 0, 71, 96
2, 30985, Note_on_c, 0, 45, 97
2, 30988, Note_on_c, 0, 64, 0
2, 30988, Note_on_c, 0, 69, 0
2, 30993, Note_on_c, 0, 73, 102
2, 30994, Note_on_c, 0, 69, 95
2, 30997, Note_on_c, 0, 64, 94
2, 30997, Control_c, 0, 64, 0
2, 31004, Note_on_c, 0, 57, 0
2, 31005, Note_on_c, 0, 71, 0
2, 31005, Note_on_c, 0, 44, 0
2, 31006, Note_on_c, 0, 56, 0
2, 31006, Note_on_c, 0, 52, 0
2, 31245, Note_on_c, 0, 74, 99
2, 31334, Control_c, 0, 64, 127
2, 31365, Note_on_c, 0, 73, 0
2, 31374, Note_on_c, 0, 73, 96
2, 31393, Note_on_c, 0, 52, 77
2, 31508, Note_on_c, 0, 57, 87
2, 31641, Note_on_c, 0, 64, 0
2, 31651, Note_on_c, 0, 64, 88
2, 31721, Control_c, 0, 64, 0
2, 31756, Note_on_c, 0, 52, 0
2, 31758, Note_on_c, 0, 57, 0
2, 31758, Note_on_c, 0, 74, 0
2, 31758, Note_on_c, 0, 73, 0
2, 31779, Note_on_c, 0, 45, 0
2, 31780, Note_on_c, 0, 38, 86
2, 31782, Note_on_c, 0, 66, 100
2, 31786, Note_on_c, 0, 64, 0
2, 31787, Note_on_c, 0, 69, 0
2, 31789, Note_on_c, 0, 54, 88
2, 31791, Note_on_c, 0, 61, 83
2, 32056, Control_c, 0, 64, 127
2, 32174, Note_on_c, 0, 45, 70
2, 32294, Note_on_c, 0, 45, 0
2, 32298, Note_on_c, 0, 52, 79
2, 32301, Note_on_c, 0, 45, 54
2, 32543, Note_on_c, 0, 59, 74
2, 32570, Note_on_c, 0, 54, 0
2, 32570, Note_on_c, 0, 66, 0
2, 32575, Note_on_c, 0, 66, 92
2, 32577, Note_on_c, 0, 54, 87
2, 32580, Control_c, 0, 64, 0
2, 32580, Note_on_c, 0, 71, 98
2, 32581, Note_on_c, 0, 64, 80
2, 32640, Control_c, 0, 64, 127
2, 32844, Note_on_c, 0, 69, 102
2, 32862, Note_on_c, 0, 64, 0
2, 32866, Note_on_c, 0, 64, 82
2, 32870, Note_on_c, 0, 61, 0
2, 32873, Note_on_c, 0, 57, 80
2, 32874, Note_on_c, 0, 61, 75
2, 33031, Note_on_c, 0, 38, 0
2, 33035, Control_c, 0, 64, 0
2, 33041, Note_on_c, 0, 59, 0
2, 33045, Note_on_c, 0, 71, 0
2, 33047, Note_on_c, 0, 66, 0
2, 33054, Note_on_c, 0, 45, 0
2, 33054, Note_on_c, 0, 54, 0
2, 33070, Note_on_c, 0, 52, 0
2, 33099, Note_on_c, 0, 42, 97
2, 33315, Control_c, 0, 64, 127
2, 33520, Note_on_c, 0, 49, 65
2, 33613, Note_on_c, 0, 73, 105
2, 33621, Note_on_c, 0, 52, 76
2, 33623, Note_on_c, 0, 57, 0
2, 33634, Note_on_c, 0, 57, 92
2, 33871, Control_c, 0, 64, 0
2, 33884, Note_on_c, 0, 64, 0
2, 33885, Note_on_c, 0, 71, 101
2, 33886, Note_on_c, 0, 57, 0
2, 33887, Note_on_c, 0, 44, 84
2, 33887, Note_on_c, 0, 52, 0
2, 33887, Note_on_c, 0, 69, 0
2, 33890, Note_on_c, 0, 59, 92
2, 33892, Note_on_c, 0, 61, 0
2, 33892, Note_on_c, 0, 66, 81
2, 33892, Note_on_c, 0, 73, 0
2, 33894, Note_on_c, 0, 49, 0
2, 33894, Note_on_c, 0, 64, 84
2, 33894, Note_on_c, 0, 42, 0
2, 34176, Control_c, 0, 64, 127
2, 34256, Note_on_c, 0, 52, 69
2, 34394, Note_on_c, 0, 54, 80
2, 34507, Note_on_c, 0, 56, 93
2, 34636, Note_on_c, 0, 54, 0
2, 34641, Note_on_c, 0, 54, 88
2, 34644, Note_on_c, 0, 69, 103
2, 34882, Note_on_c, 0, 52, 0
2, 34886, Note_on_c, 0, 45, 74
2, 34887, Note_on_c, 0, 52, 87
2, 34890, Note_on_c, 0, 45, 0
2, 34905, Note_on_c, 0, 71, 0
2, 34913, Note_on_c, 0, 71, 104
2, 35147, Control_c, 0, 64, 0
2, 35151, Note_on_c, 0, 66, 0
2, 35152, Note_on_c, 0, 56, 0
2, 35152, Note_on_c, 0, 52, 0
2, 35153, Note_on_c, 0, 54, 0
2, 35153, Note_on_c, 0, 59, 0
2, 35153, Note_on_c, 0, 44, 0
2, 35154, Note_on_c, 0, 71, 0
2, 35166, Note_on_c, 0, 64, 0
2, 35166, Note_on_c, 0, 69, 0
2, 35170, Note_on_c, 0, 73, 107
2, 35172, Note_on_c, 0, 64, 97
2, 35175, Note_on_c, 0, 45, 99
2, 35175, Note_on_c, 0, 69, 96
2, 35281, Control_c, 0, 64, 127
2, 35436, Note_on_c, 0, 74, 102
2, 35566, Note_on_c, 0, 73, 0
2, 35572, Note_on_c, 0, 73, 102
2, 35586, Note_on_c, 0, 52, 80
2, 35706, Note_on_c, 0, 57, 90
2, 35830, Note_on_c, 0, 71, 100
2, 35945, Control_c, 0, 64, 0
2, 35950, Note_on_c, 0, 71, 0
2, 35951, Note_on_c, 0, 52, 0
2, 35951, Note_on_c, 0, 74, 0
2, 35952, Note_on_c, 0, 57, 0
2, 35952, Note_on_c, 0, 69, 0
2, 35953, Note_on_c, 0, 45, 0
2, 35953, Note_on_c, 0, 73, 0
2, 35960, Note_on_c, 0, 71, 102
2, 35965, Note_on_c, 0, 64, 0
2, 35968, Note_on_c, 0, 38, 90
2, 35970, Note_on_c, 0, 50, 92
2, 35970, Note_on_c, 0, 64, 96
2, 35971, Note_on_c, 0, 66, 90
2, 36149, Control_c, 0, 64, 127
2, 36344, Note_on_c, 0, 69, 99
2, 36344, Note_on_c, 0, 45, 81
2, 36492, Note_on_c, 0, 52, 69
2, 36636, Note_on_c, 0, 54, 69
2, 36725, Note_on_c, 0, 50, 0
2, 36734, Note_on_c, 0, 50, 70
2, 36994, Note_on_c, 0, 38, 0
2, 36998, Note_on_c, 0, 38, 66
2, 37271, Note_on_c, 0, 52, 0
2, 37281, Note_on_c, 0, 40, 67
2, 37282, Note_on_c, 0, 52, 63
2, 37346, Control_c, 0, 64, 0
2, 37351, Note_on_c, 0, 45, 0
2, 37351, Note_on_c, 0, 71, 0
2, 37352, Note_on_c, 0, 54, 0
2, 37352, Note_on_c, 0, 50, 0
2, 37352, Note_on_c, 0, 66, 0
2, 37353, Note_on_c, 0, 69, 0
2, 37353, Note_on_c, 0, 38, 0
2, 37353, Note_on_c, 0, 64, 0
2, 37573, Note_on_c, 0, 83, 80
2, 37585, Control_c, 0, 64, 127
2, 37826, Note_on_c, 0, 71, 79
2, 37830, Note_on_c, 0, 69, 76
2, 37831, Note_on_c, 0, 83, 0
2, 37837, Note_on_c, 0, 64, 63
2, 37839, Note_on_c, 0, 83, 74
2, 38085, Note_on_c, 0, 83, 0
2, 38090, Note_on_c, 0, 83, 84
2, 38290, Note_on_c, 0, 81, 70
2, 38330, Note_on_c, 0, 71, 0
2, 38335, Note_on_c, 0, 71, 83
2, 38338, Note_on_c, 0, 64, 0
2, 38338, Note_on_c, 0, 69, 0
2, 38338, Note_on_c, 0, 83, 0
2, 38342, Note_on_c, 0, 69, 80
2, 38347, Note_on_c, 0, 64, 71
2, 38349, Note_on_c, 0, 83, 88
2, 38400, Control_c, 0, 64, 0
2, 38484, Control_c, 0, 64, 127
2, 38592, Note_on_c, 0, 83, 0
2, 38597, Note_on_c, 0, 83, 89
2, 38807, Note_on_c, 0, 83, 0
2, 38812, Note_on_c, 0, 83, 72
2, 38845, Note_on_c, 0, 71, 0
2, 38853, Note_on_c, 0, 81, 0
2, 38856, Note_on_c, 0, 71, 85
2, 38860, Note_on_c, 0, 69, 0
2, 38861, Note_on_c, 0, 81, 86
2, 38866, Note_on_c, 0, 69, 75
2, 38868, Note_on_c, 0, 64, 0
2, 38878, Note_on_c, 0, 64, 65
2, 38929, Control_c, 0, 64, 0
2, 39014, Control_c, 0, 64, 127
2, 39121, Note_on_c, 0, 40, 0
2, 39121, Note_on_c, 0, 83, 0
2, 39126, Note_on_c, 0, 83, 82
2, 39363, Control_c, 0, 64, 0
2, 39375, Note_on_c, 0, 52, 0
2, 39387, Note_on_c, 0, 42, 70
2, 39388, Note_on_c, 0, 57, 73
2, 39389, Note_on_c, 0, 85, 94
2, 39392, Note_on_c, 0, 54, 65
2, 39395, Note_on_c, 0, 76, 74
2, 39397, Note_on_c, 0, 73, 79
2, 39401, Note_on_c, 0, 69, 0
2, 39436, Note_on_c, 0, 64, 0
2, 39436, Note_on_c, 0, 71, 0
2, 39438, Note_on_c, 0, 83, 0
2, 39482, Note_on_c, 0, 81, 0
2, 39605, Control_c, 0, 64, 127
2, 39671, Note_on_c, 0, 81, 94
2, 39797, Note_on_c, 0, 54, 0
2, 39807, Note_on_c, 0, 54, 64
2, 39918, Note_on_c, 0, 69, 85
2, 39924, Note_on_c, 0, 64, 69
2, 39926, Note_on_c, 0, 61, 75
2, 40142, Control_c, 0, 64, 0
2, 40191, Note_on_c, 0, 78, 90
2, 40193, Note_on_c, 0, 38, 72
2, 40198, Note_on_c, 0, 74, 81
2, 40202, Note_on_c, 0, 66, 73
2, 40227, Note_on_c, 0, 85, 0
2, 40236, Note_on_c, 0, 42, 0
2, 40237, Note_on_c, 0, 64, 0
2, 40237, Note_on_c, 0, 61, 0
2, 40238, Note_on_c, 0, 57, 0
2, 40238, Note_on_c, 0, 54, 0
2, 40240, Note_on_c, 0, 73, 0
2, 40241, Note_on_c, 0, 81, 0
2, 40242, Note_on_c, 0, 69, 0
2, 40250, Note_on_c, 0, 76, 0
2, 40412, Control_c, 0, 64, 127
2, 40617, Note_on_c, 0, 45, 66
2, 40707, Note_on_c, 0, 61, 73
2, 40723, Note_on_c, 0, 52, 75
2, 40738, Note_on_c, 0, 62, 86
2, 40988, Note_on_c, 0, 61, 0
2, 40990, Note_on_c, 0, 54, 71
2, 40994, Note_on_c, 0, 61, 88
2, 41241, Note_on_c, 0, 38, 0
2, 41247, Note_on_c, 0, 38, 71
2, 41514, Control_c, 0, 64, 0
2, 41518, Note_on_c, 0, 52, 0
2, 41524, Note_on_c, 0, 40, 72
2, 41526, Note_on_c, 0, 52, 69
2, 41528, Note_on_c, 0, 45, 0
2, 41528, Note_on_c, 0, 66, 0
2, 41529, Note_on_c, 0, 78, 0
2, 41529, Note_on_c, 0, 62, 0
2, 41529, Note_on_c, 0, 54, 0
2, 41529, Note_on_c, 0, 38, 0
2, 41529, Note_on_c, 0, 61, 0
2, 41529, Note_on_c, 0, 74, 0
2, 41610, Control_c, 0, 64, 127
2, 41814, Note_on_c, 0, 83, 85
2, 42071, Note_on_c, 0, 83, 0
2, 42074, Note_on_c, 0, 69, 88
2, 42075, Note_on_c, 0, 71, 87
2, 42075, Note_on_c, 0, 83, 98
2, 42078, Note_on_c, 0, 64, 76
2, 42339, Note_on_c, 0, 83, 0
2, 42345, Note_on_c, 0, 83, 96
2, 42550, Note_on_c, 0, 81, 83
2, 42593, Note_on_c, 0, 71, 0
2, 42593, Note_on_c, 0, 83, 0
2, 42600, Note_on_c, 0, 64, 0
2, 42600, Note_on_c, 0, 69, 0
2, 42604, Note_on_c, 0, 71, 90
2, 42604, Note_on_c, 0, 83, 95
2, 42605, Note_on_c, 0, 69, 84
2, 42610, Note_on_c, 0, 64, 73
2, 42854, Note_on_c, 0, 83, 0
2, 42858, Note_on_c, 0, 83, 96
2, 43115, Note_on_c, 0, 40, 0
2, 43130, Note_on_c, 0, 71, 0
2, 43130, Note_on_c, 0, 81, 0
2, 43135, Note_on_c, 0, 81, 98
2, 43136, Note_on_c, 0, 71, 85
2, 43137, Control_c, 0, 64, 0
2, 43138, Note_on_c, 0, 69, 0
2, 43142, Note_on_c, 0, 69, 82
2, 43146, Note_on_c, 0, 64, 0
2, 43151, Note_on_c, 0, 64, 66
2, 43176, Control_c, 0, 64, 127
2, 43402, Note_on_c, 0, 80, 90
2, 43476, Note_on_c, 0, 52, 0
2, 43537, Note_on_c, 0, 81, 0
2, 43545, Note_on_c, 0, 69, 0
2, 43545, Note_on_c, 0, 81, 98
2, 43550, Note_on_c, 0, 76, 78
2, 43553, Note_on_c, 0, 83, 0
2, 43555, Note_on_c, 0, 69, 72
2, 43558, Note_on_c, 0, 73, 80
2, 43586, Control_c, 0, 64, 0
2, 43614, Control_c, 0, 64, 127
2, 43667, Note_on_c, 0, 47, 81
2, 43667, Note_on_c, 0, 71, 0
2, 43683, Note_on_c, 0, 64, 0
2, 43745, Note_on_c, 0, 80, 0
2, 43833, Note_on_c, 0, 80, 88
2, 43926, Note_on_c, 0, 78, 96
2, 44198, Note_on_c, 0, 54, 67
2, 44483, Note_on_c, 0, 62, 74
2, 44486, Note_on_c, 0, 57, 74
2, 45004, Note_on_c, 0, 47, 0
2, 45008, Note_on_c, 0, 47, 73
2, 45178, Note_on_c, 0, 71, 67
2, 45227, Note_on_c, 0, 78, 0
2, 45235, Note_on_c, 0, 78, 67
2, 45272, Note_on_c, 0, 49, 81
2, 45275, Note_on_c, 0, 83, 97
2, 45565, Note_on_c, 0, 81, 0
2, 45570, Note_on_c, 0, 81, 97
2, 45573, Note_on_c, 0, 69, 0
2, 45573, Note_on_c, 0, 73, 0
2, 45573, Note_on_c, 0, 76, 0
2, 45579, Note_on_c, 0, 69, 79
2, 45580, Note_on_c, 0, 76, 79
2, 45582, Note_on_c, 0, 73, 81
2, 45821, Note_on_c, 0, 50, 76
2, 45825, Control_c, 0, 64, 0
2, 45840, Note_on_c, 0, 80, 0
2, 45842, Note_on_c, 0, 83, 0
2, 45843, Note_on_c, 0, 54, 0
2, 45843, Note_on_c, 0, 71, 0
2, 45843, Note_on_c, 0, 47, 0
2, 45843, Note_on_c, 0, 78, 0
2, 45844, Note_on_c, 0, 49, 0
2, 45844, Note_on_c, 0, 57, 0
2, 45987, Control_c, 0, 64, 127
2, 45995, Note_on_c, 0, 62, 0
2, 46367, Note_on_c, 0, 57, 63
2, 46373, Note_on_c, 0, 64, 66
2, 46378, Note_on_c, 0, 54, 54
2, 46909, Note_on_c, 0, 76, 0
2, 46917, Note_on_c, 0, 69, 0
2, 46920, Note_on_c, 0, 76, 83
2, 46928, Note_on_c, 0, 69, 72
2, 46934, Note_on_c, 0, 66, 64
2, 47324, Note_on_c, 0, 76, 0
2, 47331, Note_on_c, 0, 76, 77
2, 47377, Note_on_c, 0, 81, 0
2, 47387, Note_on_c, 0, 81, 92
2, 47410, Note_on_c, 0, 83, 85
2, 47433, Note_on_c, 0, 85, 108
2, 47450, Note_on_c, 0, 88, 107
2, 47462, Note_on_c, 0, 50, 0
2, 47466, Note_on_c, 0, 50, 95
2, 47466, Note_on_c, 0, 38, 95
2, 47479, Control_c, 0, 64, 0
2, 47508, Control_c, 0, 64, 127
2, 47613, Note_on_c, 0, 57, 0
2, 47614, Note_on_c, 0, 81, 0
2, 47616, Note_on_c, 0, 64, 0
2, 47616, Note_on_c, 0, 83, 0
2, 47616, Note_on_c, 0, 76, 0
2, 47616, Note_on_c, 0, 50, 0
2, 47617, Note_on_c, 0, 88, 0
2, 47618, Note_on_c, 0, 66, 0
2, 47618, Note_on_c, 0, 85, 0
2, 47619, Note_on_c, 0, 38, 0
2, 47623, Note_on_c, 0, 54, 0
2, 47623, Note_on_c, 0, 69, 0
2, 47631, Note_on_c, 0, 73, 0
2, 47631, Control_c, 0, 64, 0
2, 48003, Note_on_c, 0, 68, 107
2, 48003, Note_on_c, 0, 76, 108
2, 48003, Note_on_c, 0, 42, 105
2, 48004, Note_on_c, 0, 71, 99
2, 48004, Note_on_c, 0, 30, 96
2, 48005, Note_on_c, 0, 64, 105
2, 48023, Control_c, 0, 64, 127
2, 48276, Note_on_c, 0, 64, 0
2, 48276, Note_on_c, 0, 68, 0
2, 48276, Note_on_c, 0, 76, 0
2, 48280, Note_on_c, 0, 76, 104
2, 48281, Note_on_c, 0, 68, 101
2, 48285, Note_on_c, 0, 64, 97
2, 48422, Note_on_c, 0, 42, 0
2, 48426, Note_on_c, 0, 42, 91
2, 48529, Note_on_c, 0, 68, 0
2, 48530, Note_on_c, 0, 49, 103
2, 48531, Note_on_c, 0, 80, 104
2, 48532, Note_on_c, 0, 57, 99
2, 48534, Note_on_c, 0, 68, 107
2, 48581, Note_on_c, 0, 71, 0
2, 48582, Control_c, 0, 64, 0
2, 48583, Note_on_c, 0, 42, 0
2, 48585, Note_on_c, 0, 76, 0
2, 48585, Note_on_c, 0, 68, 0
2, 48585, Note_on_c, 0, 64, 0
2, 48586, Note_on_c, 0, 49, 0
2, 48587, Note_on_c, 0, 57, 0
2, 48587, Note_on_c, 0, 80, 0
2, 48591, Note_on_c, 0, 30, 0
2, 48804, Note_on_c, 0, 81, 106
2, 48808, Note_on_c, 0, 69, 105
2, 48810, Note_on_c, 0, 73, 107
2, 48810, Note_on_c, 0, 38, 102
2, 48811, Note_on_c, 0, 76, 100
2, 48818, Note_on_c, 0, 26, 95
2, 48829, Control_c, 0, 64, 127
2, 49221, Note_on_c, 0, 38, 0
2, 49232, Note_on_c, 0, 38, 88
2, 49303, Note_on_c, 0, 45, 99
2, 49315, Note_on_c, 0, 68, 106
2, 49316, Note_on_c, 0, 80, 108
2, 49321, Note_on_c, 0, 50, 90
2, 49323, Note_on_c, 0, 74, 67
2, 49324, Note_on_c, 0, 78, 89
2, 49566, Note_on_c, 0, 69, 0
2, 49566, Note_on_c, 0, 74, 0
2, 49566, Note_on_c, 0, 78, 0
2, 49571, Note_on_c, 0, 78, 109
2, 49573, Note_on_c, 0, 66, 105
2, 49574, Note_on_c, 0, 74, 100
2, 49574, Note_on_c, 0, 69, 95
2, 49574, Note_on_c, 0, 57, 101
2, 49575, Note_on_c, 0, 62, 101
2, 49578, Note_on_c, 0, 54, 97
2, 49827, Note_on_c, 0, 38, 0
2, 49827, Note_on_c, 0, 50, 0
2, 49827, Note_on_c, 0, 76, 0
2, 49832, Note_on_c, 0, 50, 94
2, 49834, Note_on_c, 0, 38, 93
2, 49835, Note_on_c, 0, 76, 108
2, 49835, Note_on_c, 0, 64, 104
2, 50082, Note_on_c, 0, 45, 0
2, 50083, Note_on_c, 0, 76, 0
2, 50083, Note_on_c, 0, 73, 0
2, 50083, Note_on_c, 0, 80, 0
2, 50084, Note_on_c, 0, 68, 0
2, 50084, Note_on_c, 0, 38, 0
2, 50084, Note_on_c, 0, 62, 0
2, 50084, Note_on_c, 0, 74, 0
2, 50084, Note_on_c, 0, 64, 0
2, 50084, Note_on_c, 0, 57, 0
2, 50084, Note_on_c, 0, 50, 0
2, 50084, Note_on_c, 0, 54, 0
2, 50084, Control_c, 0, 64, 0
2, 50085, Note_on_c, 0, 81, 0
2, 50085, Note_on_c, 0, 78, 0
2, 50085, Note_on_c, 0, 66, 0
2, 50096, Note_on_c, 0, 26, 0
2, 50104, Note_on_c, 0, 69, 0
2, 50122, Note_on_c, 0, 40, 99
2, 50122, Note_on_c, 0, 28, 98
2, 50181, Control_c, 0, 64, 127
2, 50392, Note_on_c, 0, 71, 101
2, 50392, Note_on_c, 0, 68, 104
2, 50542, Note_on_c, 0, 40, 0
2, 50547, Note_on_c, 0, 40, 76
2, 50550, Note_on_c, 0, 52, 74
2, 50649, Note_on_c, 0, 52, 0
2, 50649, Note_on_c, 0, 68, 0
2, 50652, Note_on_c, 0, 47, 103
2, 50652, Note_on_c, 0, 74, 108
2, 50653, Note_on_c, 0, 62, 108
2, 50658, Note_on_c, 0, 52, 97
2, 50658, Note_on_c, 0, 68, 93
2, 50683, Note_on_c, 0, 71, 0
2, 50685, Control_c, 0, 64, 0
2, 50711, Note_on_c, 0, 28, 0
2, 50714, Note_on_c, 0, 40, 0
2, 50716, Note_on_c, 0, 74, 0
2, 50716, Note_on_c, 0, 52, 0
2, 50718, Note_on_c, 0, 62, 0
2, 50723, Note_on_c, 0, 47, 0
2, 50772, Note_on_c, 0, 68, 0
2, 50919, Note_on_c, 0, 73, 108
2, 50919, Note_on_c, 0, 64, 98
2, 50919, Note_on_c, 0, 45, 108
2, 50920, Note_on_c, 0, 61, 105
2, 50921, Note_on_c, 0, 69, 100
2, 50921, Note_on_c, 0, 33, 100
2, 51187, Control_c, 0, 64, 127
2, 51310, Note_on_c, 0, 45, 0
2, 51310, Note_on_c, 0, 64, 0
2, 51316, Note_on_c, 0, 64, 71
2, 51319, Note_on_c, 0, 45, 87
2, 51432, Note_on_c, 0, 61, 0
2, 51432, Note_on_c, 0, 69, 0
2, 51432, Note_on_c, 0, 73, 0
2, 51436, Note_on_c, 0, 57, 102
2, 51437, Note_on_c, 0, 52, 89
2, 51440, Note_on_c, 0, 45, 0
2, 51440, Note_on_c, 0, 64, 0
2, 51444, Note_on_c, 0, 61, 100
2, 51444, Note_on_c, 0, 73, 106
2, 51444, Note_on_c, 0, 69, 86
2, 51444, Note_on_c, 0, 64, 85
2, 51445, Note_on_c, 0, 45, 90
2, 51705, Note_on_c, 0, 71, 104
2, 51709, Note_on_c, 0, 64, 0
2, 51711, Note_on_c, 0, 56, 108
2, 51711, Note_on_c, 0, 59, 109
2, 51713, Note_on_c, 0, 44, 102
2, 51714, Note_on_c, 0, 64, 96
2, 51714, Note_on_c, 0, 68, 102
2, 51718, Control_c, 0, 64, 0
2, 51747, Control_c, 0, 64, 127
2, 51970, Note_on_c, 0, 44, 0
2, 51975, Note_on_c, 0, 32, 90
2, 51975, Note_on_c, 0, 44, 95
2, 52176, Control_c, 0, 64, 0
2, 52177, Note_on_c, 0, 33, 0
2, 52180, Note_on_c, 0, 32, 0
2, 52181, Note_on_c, 0, 71, 0
2, 52181, Note_on_c, 0, 68, 0
2, 52181, Note_on_c, 0, 56, 0
2, 52181, Note_on_c, 0, 59, 0
2, 52181, Note_on_c, 0, 44, 0
2, 52181, Note_on_c, 0, 64, 0
2, 52185, Note_on_c, 0, 45, 0
2, 52185, Note_on_c, 0, 61, 0
2, 52193, Note_on_c, 0, 52, 0
2, 52193, Note_on_c, 0, 57, 0
2, 52193, Note_on_c, 0, 69, 0
2, 52193, Note_on_c, 0, 73, 0
2, 52259, Note_on_c, 0, 73, 108
2, 52259, Note_on_c, 0, 30, 103
2, 52259, Note_on_c, 0, 42, 106
2, 52260, Note_on_c, 0, 61, 103
2, 52263, Note_on_c, 0, 64, 101
2, 52264, Note_on_c, 0, 69, 96
2, 52308, Control_c, 0, 64, 127
2, 52515, Note_on_c, 0, 61, 0
2, 52515, Note_on_c, 0, 73, 0
2, 52526, Note_on_c, 0, 73, 104
2, 52527, Note_on_c, 0, 61, 92
2, 52654, Note_on_c, 0, 42, 0
2, 52662, Note_on_c, 0, 42, 92
2, 52761, Note_on_c, 0, 69, 0
2, 52771, Note_on_c, 0, 57, 105
2, 52772, Note_on_c, 0, 69, 100
2, 52773, Note_on_c, 0, 52, 85
2, 52773, Note_on_c, 0, 49, 97
2, 52853, Note_on_c, 0, 57, 0
2, 52857, Note_on_c, 0, 57, 89
2, 52862, Note_on_c, 0, 61, 0
2, 52863, Note_on_c, 0, 73, 0
2, 52863, Note_on_c, 0, 42, 0
2, 52866, Note_on_c, 0, 64, 0
2, 52866, Note_on_c, 0, 49, 0
2, 52869, Control_c, 0, 64, 0
2, 52876, Note_on_c, 0, 30, 0
2, 52899, Note_on_c, 0, 52, 0
2, 52899, Note_on_c, 0, 57, 0
2, 52907, Note_on_c, 0, 69, 0
2, 52958, Note_on_c, 0, 71, 91
2, 53042, Note_on_c, 0, 73, 107
2, 53054, Note_on_c, 0, 69, 93
2, 53055, Note_on_c, 0, 38, 99
2, 53056, Note_on_c, 0, 33, 87
2, 53057, Note_on_c, 0, 66, 95
2, 53057, Note_on_c, 0, 26, 94
2, 53060, Note_on_c, 0, 62, 81
2, 53068, Note_on_c, 0, 71, 0
2, 53084, Control_c, 0, 64, 127
2, 53306, Note_on_c, 0, 66, 0
2, 53306, Note_on_c, 0, 73, 0
2, 53313, Note_on_c, 0, 66, 95
2, 53313, Note_on_c, 0, 73, 103
2, 53318, Note_on_c, 0, 64, 92
2, 53544, Note_on_c, 0, 26, 0
2, 53544, Note_on_c, 0, 38, 0
2, 53552, Note_on_c, 0, 69, 0
2, 53554, Note_on_c, 0, 38, 96
2, 53555, Note_on_c, 0, 26, 89
2, 53556, Note_on_c, 0, 69, 103
2, 53753, Note_on_c, 0, 71, 94
2, 53767, Note_on_c, 0, 33, 0
2, 53770, Note_on_c, 0, 50, 84
2, 53813, Note_on_c, 0, 66, 0
2, 53813, Note_on_c, 0, 69, 0
2, 53813, Note_on_c, 0, 73, 0
2, 53822, Note_on_c, 0, 73, 105
2, 53823, Note_on_c, 0, 69, 88
2, 53824, Note_on_c, 0, 66, 100
2, 53836, Note_on_c, 0, 62, 0
2, 53842, Note_on_c, 0, 57, 92
2, 53843, Note_on_c, 0, 54, 85
2, 53845, Note_on_c, 0, 62, 89
2, 54082, Note_on_c, 0, 38, 0
2, 54082, Note_on_c, 0, 50, 0
2, 54088, Note_on_c, 0, 62, 0
2, 54091, Note_on_c, 0, 74, 107
2, 54092, Note_on_c, 0, 50, 97
2, 54094, Note_on_c, 0, 38, 97
2, 54232, Control_c, 0, 64, 0
2, 54233, Note_on_c, 0, 71, 0
2, 54235, Note_on_c, 0, 74, 0
2, 54236, Note_on_c, 0, 54, 0
2, 54236, Note_on_c, 0, 57, 0
2, 54236, Note_on_c, 0, 73, 0
2, 54236, Note_on_c, 0, 64, 0
2, 54237, Note_on_c, 0, 69, 0
2, 54238, Note_on_c, 0, 66, 0
2, 54243, Note_on_c, 0, 26, 0
2, 54251, Note_on_c, 0, 38, 0
2, 54251, Note_on_c, 0, 50, 0
2, 54349, Note_on_c, 0, 73, 109
2, 54353, Note_on_c, 0, 40, 100
2, 54354, Note_on_c, 0, 69, 101
2, 54356, Note_on_c, 0, 64, 98
2, 54356, Note_on_c, 0, 28, 98
2, 54397, Control_c, 0, 64, 127
2, 54605, Note_on_c, 0, 71, 103
2, 54758, Note_on_c, 0, 40, 0
2, 54766, Note_on_c, 0, 69, 0
2, 54768, Note_on_c, 0, 40, 75
2, 54770, Note_on_c, 0, 69, 106
2, 54860, Note_on_c, 0, 47, 87
2, 54863, Note_on_c, 0, 56, 104
2, 55010, Note_on_c, 0, 68, 100
2, 55074, Note_on_c, 0, 69, 0
2, 55075, Note_on_c, 0, 40, 0
2, 55075, Note_on_c, 0, 73, 0
2, 55075, Note_on_c, 0, 56, 0
2, 55075, Note_on_c, 0, 64, 0
2, 55075, Note_on_c, 0, 71, 0
2, 55075, Note_on_c, 0, 47, 0
2, 55075, Control_c, 0, 64, 0
2, 55076, Note_on_c, 0, 68, 0
2, 55080, Note_on_c, 0, 28, 0
2, 55131, Note_on_c, 0, 69, 107
2, 55135, Note_on_c, 0, 45, 109
2, 55135, Note_on_c, 0, 57, 105
2, 55136, Note_on_c, 0, 64, 97
2, 55138, Note_on_c, 0, 33, 96
2, 55138, Note_on_c, 0, 61, 97
2, 55188, Control_c, 0, 64, 127
2, 55503, Note_on_c, 0, 45, 0
2, 55507, Note_on_c, 0, 45, 93
2, 55641, Note_on_c, 0, 57, 0
2, 55649, Note_on_c, 0, 52, 99
2, 55650, Note_on_c, 0, 57, 102
2, 55704, Note_on_c, 0, 59, 72
2, 55764, Note_on_c, 0, 61, 0
2, 55772, Note_on_c, 0, 61, 93
2, 55845, Note_on_c, 0, 62, 94
2, 55902, Note_on_c, 0, 64, 0
2, 55911, Note_on_c, 0, 44, 103
2, 55911, Note_on_c, 0, 64, 98
2, 55964, Note_on_c, 0, 66, 88
2, 56016, Note_on_c, 0, 68, 95
2, 56071, Note_on_c, 0, 69, 0
2, 56080, Note_on_c, 0, 69, 97
2, 56124, Note_on_c, 0, 71, 95
2, 56174, Note_on_c, 0, 73, 98
2, 56239, Note_on_c, 0, 74, 99
2, 56277, Note_on_c, 0, 76, 104
2, 56357, Control_c, 0, 64, 0
2, 56361, Note_on_c, 0, 68, 0
2, 56361, Note_on_c, 0, 66, 0
2, 56361, Note_on_c, 0, 57, 0
2, 56361, Note_on_c, 0, 69, 0
2, 56361, Note_on_c, 0, 71, 0
2, 56361, Note_on_c, 0, 62, 0
2, 56361, Note_on_c, 0, 59, 0
2, 56362, Note_on_c, 0, 74, 0
2, 56362, Note_on_c, 0, 61, 0
2, 56362, Note_on_c, 0, 64, 0
2, 56362, Note_on_c, 0, 44, 0
2, 56362, Note_on_c, 0, 73, 0
2, 56363, Note_on_c, 0, 52, 0
2, 56363, Note_on_c, 0, 76, 0
2, 56371, Note_on_c, 0, 33, 0
2, 56386, Note_on_c, 0, 45, 0
2, 56440, Note_on_c, 0, 57, 104
2, 56444, Note_on_c, 0, 52, 96
2, 56448, Note_on_c, 0, 88, 112
2, 56449, Note_on_c, 0, 76, 110
2, 56450, Note_on_c, 0, 49, 94
2, 56450, Note_on_c, 0, 80, 102
2, 56452, Note_on_c, 0, 83, 91
2, 56478, Control_c, 0, 64, 127
2, 56709, Note_on_c, 0, 76, 0
2, 56709, Note_on_c, 0, 80, 0
2, 56709, Note_on_c, 0, 88, 0
2, 56713, Note_on_c, 0, 88, 110
2, 56714, Note_on_c, 0, 76, 102
2, 56714, Note_on_c, 0, 80, 104
2, 56866, Note_on_c, 0, 54, 88
2, 56954, Note_on_c, 0, 80, 0
2, 56958, Note_on_c, 0, 69, 101
2, 56959, Note_on_c, 0, 61, 96
2, 56959, Note_on_c, 0, 64, 93
2, 56965, Note_on_c, 0, 80, 107
2, 56966, Note_on_c, 0, 92, 111
2, 57014, Note_on_c, 0, 57, 0
2, 57015, Note_on_c, 0, 54, 0
2, 57015, Note_on_c, 0, 83, 0
2, 57016, Control_c, 0, 64, 0
2, 57016, Note_on_c, 0, 52, 0
2, 57016, Note_on_c, 0, 49, 0
2, 57018, Note_on_c, 0, 76, 0
2, 57018, Note_on_c, 0, 88, 0
2, 57019, Note_on_c, 0, 64, 0
2, 57019, Note_on_c, 0, 61, 0
2, 57020, Note_on_c, 0, 69, 0
2, 57146, Note_on_c, 0, 80, 0
2, 57162, Note_on_c, 0, 92, 0
2, 57234, Note_on_c, 0, 93, 113
2, 57234, Note_on_c, 0, 81, 109
2, 57235, Note_on_c, 0, 85, 108
2, 57235, Note_on_c, 0, 88, 104
2, 57237, Note_on_c, 0, 50, 105
2, 57241, Note_on_c, 0, 38, 106
2, 57242, Note_on_c, 0, 45, 101
2, 57269, Control_c, 0, 64, 127
2, 57661, Note_on_c, 0, 50, 0
2, 57668, Note_on_c, 0, 50, 86
2, 57725, Note_on_c, 0, 80, 109
2, 57726, Note_on_c, 0, 92, 111
2, 57749, Note_on_c, 0, 54, 96
2, 57751, Note_on_c, 0, 66, 84
2, 57761, Note_on_c, 0, 66, 0
2, 57993, Note_on_c, 0, 64, 101
2, 57996, Note_on_c, 0, 57, 95
2, 57999, Note_on_c, 0, 81, 0
2, 58000, Note_on_c, 0, 90, 110
2, 58003, Note_on_c, 0, 78, 109
2, 58005, Note_on_c, 0, 81, 99
2, 58005, Note_on_c, 0, 86, 102
2, 58252, Note_on_c, 0, 80, 0
2, 58260, Note_on_c, 0, 38, 0
2, 58260, Note_on_c, 0, 88, 0
2, 58263, Note_on_c, 0, 92, 0
2, 58263, Note_on_c, 0, 80, 111
2, 58263, Note_on_c, 0, 64, 0
2, 58264, Note_on_c, 0, 88, 111
2, 58264, Control_c, 0, 64, 0
2, 58264, Note_on_c, 0, 76, 109
2, 58265, Note_on_c, 0, 90, 0
2, 58265, Note_on_c, 0, 81, 0
2, 58265, Note_on_c, 0, 45, 0
2, 58265, Note_on_c, 0, 50, 0
2, 58265, Note_on_c, 0, 78, 0
2, 58266, Note_on_c, 0, 85, 0
2, 58266, Note_on_c, 0, 54, 0
2, 58266, Note_on_c, 0, 38, 94
2, 58268, Note_on_c, 0, 57, 0
2, 58268, Note_on_c, 0, 83, 103
2, 58275, Note_on_c, 0, 93, 0
2, 58314, Control_c, 0, 64, 127
2, 58455, Note_on_c, 0, 38, 0
2, 58461, Control_c, 0, 64, 0
2, 58483, Note_on_c, 0, 86, 0
2, 58524, Note_on_c, 0, 52, 103
2, 58524, Note_on_c, 0, 47, 104
2, 58525, Note_on_c, 0, 40, 99
2, 58544, Control_c, 0, 64, 127
2, 58790, Note_on_c, 0, 76, 0
2, 58790, Note_on_c, 0, 80, 0
2, 58790, Note_on_c, 0, 83, 0
2, 58790, Note_on_c, 0, 88, 0
2, 58797, Note_on_c, 0, 80, 104
2, 58797, Note_on_c, 0, 88, 110
2, 58798, Note_on_c, 0, 76, 108
2, 58799, Note_on_c, 0, 83, 98
2, 58936, Note_on_c, 0, 52, 0
2, 58947, Note_on_c, 0, 52, 88
2, 59050, Note_on_c, 0, 64, 100
2, 59051, Note_on_c, 0, 83, 0
2, 59053, Note_on_c, 0, 59, 102
2, 59054, Note_on_c, 0, 95, 111
2, 59055, Note_on_c, 0, 56, 100
2, 59055, Note_on_c, 0, 83, 109
2, 59057, Note_on_c, 0, 80, 0
2, 59062, Note_on_c, 0, 92, 95
2, 59170, Control_c, 0, 64, 0
2, 59172, Note_on_c, 0, 40, 0
2, 59172, Note_on_c, 0, 47, 0
2, 59173, Note_on_c, 0, 92, 0
2, 59173, Note_on_c, 0, 83, 0
2, 59174, Note_on_c, 0, 59, 0
2, 59174, Note_on_c, 0, 64, 0
2, 59174, Note_on_c, 0, 76, 0
2, 59175, Note_on_c, 0, 56, 0
2, 59182, Note_on_c, 0, 88, 0
2, 59189, Note_on_c, 0, 52, 0
2, 59189, Note_on_c, 0, 95, 0
2, 59316, Note_on_c, 0, 93, 111
2, 59316, Note_on_c, 0, 81, 107
2, 59317, Note_on_c, 0, 45, 107
2, 59317, Note_on_c, 0, 85, 107
2, 59318, Note_on_c, 0, 88, 100
2, 59319, Note_on_c, 0, 33, 97
2, 59573, Control_c, 0, 64, 127
2, 59712, Note_on_c, 0, 45, 0
2, 59718, Note_on_c, 0, 45, 91
2, 59807, Control_c, 0, 64, 0
2, 59810, Note_on_c, 0, 57, 96
2, 59810, Note_on_c, 0, 52, 96
2, 59816, Note_on_c, 0, 80, 106
2, 59822, Note_on_c, 0, 92, 109
2, 59896, Control_c, 0, 64, 127
2, 60037, Note_on_c, 0, 93, 0
2, 60038, Note_on_c, 0, 92, 0
2, 60038, Note_on_c, 0, 33, 0
2, 60038, Note_on_c, 0, 52, 0
2, 60039, Control_c, 0, 64, 0
2, 60039, Note_on_c, 0, 85, 0
2, 60039, Note_on_c, 0, 81, 0
2, 60072, Note_on_c, 0, 45, 0
2, 60072, Note_on_c, 0, 57, 0
2, 60072, Note_on_c, 0, 80, 0
2, 60072, Note_on_c, 0, 88, 0
2, 60080, Note_on_c, 0, 80, 106
2, 60083, Note_on_c, 0, 88, 111
2, 60083, Note_on_c, 0, 76, 111
2, 60084, Note_on_c, 0, 83, 96
2, 60084, Note_on_c, 0, 44, 96
2, 60084, Note_on_c, 0, 32, 86
2, 60157, Control_c, 0, 64, 127
2, 60334, Note_on_c, 0, 59, 103
2, 60337, Note_on_c, 0, 52, 94
2, 60576, Note_on_c, 0, 44, 0
2, 60577, Control_c, 0, 64, 0
2, 60578, Note_on_c, 0, 80, 0
2, 60579, Note_on_c, 0, 88, 0
2, 60580, Note_on_c, 0, 52, 0
2, 60581, Note_on_c, 0, 83, 0
2, 60581, Note_on_c, 0, 59, 0
2, 60587, Note_on_c, 0, 32, 0
2, 60599, Note_on_c, 0, 42, 105
2, 60602, Note_on_c, 0, 76, 0
2, 60603, Note_on_c, 0, 30, 103
2, 60607, Note_on_c, 0, 73, 110
2, 60611, Note_on_c, 0, 85, 103
2, 60613, Note_on_c, 0, 81, 99
2, 60613, Note_on_c, 0, 76, 97
2, 60687, Control_c, 0, 64, 127
2, 60871, Note_on_c, 0, 73, 0
2, 60871, Note_on_c, 0, 76, 0
2, 60871, Note_on_c, 0, 85, 0
2, 60882, Note_on_c, 0, 85, 103
2, 60882, Note_on_c, 0, 73, 102
2, 60882, Note_on_c, 0, 76, 99
2, 61016, Note_on_c, 0, 54, 87
2, 61125, Note_on_c, 0, 76, 0
2, 61125, Note_on_c, 0, 81, 0
2, 61128, Note_on_c, 0, 64, 103
2, 61129, Note_on_c, 0, 61, 91
2, 61130, Note_on_c, 0, 57, 101
2, 61130, Note_on_c, 0, 69, 102
2, 61131, Note_on_c, 0, 81, 106
2, 61136, Note_on_c, 0, 76, 88
2, 61236, Control_c, 0, 64, 0
2, 61248, Note_on_c, 0, 30, 0
2, 61254, Note_on_c, 0, 42, 0
2, 61255, Note_on_c, 0, 73, 0
2, 61256, Note_on_c, 0, 54, 0
2, 61256, Note_on_c, 0, 61, 0
2, 61257, Note_on_c, 0, 57, 0
2, 61257, Note_on_c, 0, 64, 0
2, 61257, Note_on_c, 0, 85, 0
2, 61258, Note_on_c, 0, 76, 0
2, 61258, Note_on_c, 0, 81, 0
2, 61259, Note_on_c, 0, 69, 0
2, 61303, Note_on_c, 0, 83, 101
2, 61303, Note_on_c, 0, 71, 99
2, 61400, Note_on_c, 0, 38, 98
2, 61400, Note_on_c, 0, 50, 99
2, 61403, Note_on_c, 0, 73, 109
2, 61403, Note_on_c, 0, 85, 108
2, 61405, Note_on_c, 0, 45, 91
2, 61405, Note_on_c, 0, 76, 104
2, 61409, Note_on_c, 0, 71, 0
2, 61516, Control_c, 0, 64, 127
2, 61662, Note_on_c, 0, 73, 0
2, 61662, Note_on_c, 0, 76, 0
2, 61662, Note_on_c, 0, 85, 0
2, 61667, Note_on_c, 0, 85, 106
2, 61668, Note_on_c, 0, 73, 106
2, 61669, Note_on_c, 0, 76, 101
2, 61908, Note_on_c, 0, 50, 0
2, 61919, Note_on_c, 0, 50, 94
2, 61919, Note_on_c, 0, 81, 105
2, 61920, Note_on_c, 0, 69, 103
2, 62092, Note_on_c, 0, 83, 0
2, 62101, Note_on_c, 0, 71, 101
2, 62103, Note_on_c, 0, 83, 104
2, 62103, Note_on_c, 0, 62, 81
2, 62106, Note_on_c, 0, 54, 91
2, 62108, Note_on_c, 0, 62, 0
2, 62177, Note_on_c, 0, 85, 0
2, 62184, Note_on_c, 0, 73, 0
2, 62184, Note_on_c, 0, 76, 0
2, 62188, Note_on_c, 0, 85, 109
2, 62188, Note_on_c, 0, 73, 110
2, 62190, Note_on_c, 0, 64, 105
2, 62190, Note_on_c, 0, 76, 100
2, 62195, Note_on_c, 0, 57, 100
2, 62446, Note_on_c, 0, 38, 0
2, 62453, Note_on_c, 0, 38, 96
2, 62455, Note_on_c, 0, 86, 108
2, 62457, Note_on_c, 0, 74, 108
2, 62610, Control_c, 0, 64, 0
2, 62611, Note_on_c, 0, 45, 0
2, 62611, Note_on_c, 0, 57, 0
2, 62612, Note_on_c, 0, 86, 0
2, 62612, Note_on_c, 0, 71, 0
2, 62612, Note_on_c, 0, 69, 0
2, 62612, Note_on_c, 0, 81, 0
2, 62612, Note_on_c, 0, 83, 0
2, 62613, Note_on_c, 0, 73, 0
2, 62613, Note_on_c, 0, 74, 0
2, 62613, Note_on_c, 0, 76, 0
2, 62614, Note_on_c, 0, 64, 0
2, 62622, Note_on_c, 0, 50, 0
2, 62622, Note_on_c, 0, 54, 0
2, 62630, Note_on_c, 0, 38, 0
2, 62630, Note_on_c, 0, 85, 0
2, 62710, Note_on_c, 0, 85, 109
2, 62711, Note_on_c, 0, 73, 108
2, 62711, Note_on_c, 0, 76, 103
2, 62711, Note_on_c, 0, 52, 101
2, 62712, Note_on_c, 0, 40, 96
2, 62845, Control_c, 0, 64, 127
2, 62980, Note_on_c, 0, 83, 102
2, 62982, Note_on_c, 0, 71, 97
2, 63106, Note_on_c, 0, 81, 106
2, 63106, Note_on_c, 0, 52, 0
2, 63108, Note_on_c, 0, 69, 101
2, 63111, Note_on_c, 0, 52, 85
2, 63218, Note_on_c, 0, 64, 105
2, 63219, Note_on_c, 0, 59, 100
2, 63220, Note_on_c, 0, 57, 108
2, 63367, Note_on_c, 0, 76, 0
2, 63367, Note_on_c, 0, 80, 98
2, 63373, Note_on_c, 0, 76, 76
2, 63378, Note_on_c, 0, 68, 91
2, 63425, Control_c, 0, 64, 0
2, 63425, Note_on_c, 0, 40, 0
2, 63425, Note_on_c, 0, 52, 0
2, 63425, Note_on_c, 0, 57, 0
2, 63426, Note_on_c, 0, 69, 0
2, 63426, Note_on_c, 0, 85, 0
2, 63426, Note_on_c, 0, 59, 0
2, 63426, Note_on_c, 0, 73, 0
2, 63426, Note_on_c, 0, 64, 0
2, 63426, Note_on_c, 0, 76, 0
2, 63426, Note_on_c, 0, 81, 0
2, 63426, Note_on_c, 0, 71, 0
2, 63427, Note_on_c, 0, 83, 0
2, 63428, Note_on_c, 0, 68, 0
2, 63428, Note_on_c, 0, 80, 0
2, 63487, Note_on_c, 0, 81, 107
2, 63487, Note_on_c, 0, 45, 104
2, 63488, Note_on_c, 0, 33, 96
2, 63491, Note_on_c, 0, 69, 103
2, 63493, Note_on_c, 0, 76, 96
2, 63493, Note_on_c, 0, 73, 101
2, 63590, Control_c, 0, 64, 127
2, 63889, Note_on_c, 0, 45, 0
2, 63897, Note_on_c, 0, 45, 86
2, 64004, Note_on_c, 0, 57, 98
2, 64012, Note_on_c, 0, 52, 82
2, 64250, Note_on_c, 0, 44, 90
2, 64254, Note_on_c, 0, 59, 98
2, 64528, Note_on_c, 0, 62, 95
2, 64757, Note_on_c, 0, 33, 0
2, 64773, Control_c, 0, 64, 0
2, 64775, Note_on_c, 0, 73, 0
2, 64775, Note_on_c, 0, 45, 0
2, 64775, Note_on_c, 0, 76, 0
2, 64776, Note_on_c, 0, 81, 0
2, 64776, Note_on_c, 0, 69, 0
2, 64776, Note_on_c, 0, 62, 0
2, 64777, Note_on_c, 0, 59, 0
2, 64777, Note_on_c, 0, 44, 0
2, 64796, Note_on_c, 0, 52, 0
2, 64796, Note_on_c, 0, 57, 0
2, 64801, Note_on_c, 0, 61, 95
2, 64802, Note_on_c, 0, 42, 88
2, 64806, Note_on_c, 0, 52, 82
2, 64806, Note_on_c, 0, 57, 91
2, 65054, Note_on_c, 0, 73, 103
2, 65126, Control_c, 0, 64, 127
2, 65333, Note_on_c, 0, 73, 0
2, 65337, Note_on_c, 0, 73, 105
2, 65345, Note_on_c, 0, 69, 95
2, 65601, Note_on_c, 0, 74, 107
2, 65865, Control_c, 0, 64, 0
2, 65867, Note_on_c, 0, 57, 0
2, 65868, Note_on_c, 0, 61, 0
2, 65869, Note_on_c, 0, 74, 0
2, 65869, Note_on_c, 0, 69, 0
2, 65869, Note_on_c, 0, 42, 0
2, 65869, Note_on_c, 0, 73, 0
2, 65871, Note_on_c, 0, 52, 0
2, 65875, Note_on_c, 0, 76, 104
2, 65875, Note_on_c, 0, 71, 93
2, 65875, Note_on_c, 0, 52, 94
2, 65877, Note_on_c, 0, 64, 97
2, 65878, Note_on_c, 0, 68, 97
2, 65879, Note_on_c, 0, 40, 87
2, 66040, Note_on_c, 0, 64, 0
2, 66270, Control_c, 0, 64, 127
2, 66278, Note_on_c, 0, 71, 0
2, 66279, Note_on_c, 0, 83, 107
2, 66286, Note_on_c, 0, 76, 0
2, 66287, Note_on_c, 0, 71, 99
2, 66289, Note_on_c, 0, 80, 96
2, 66297, Note_on_c, 0, 76, 92
2, 66696, Note_on_c, 0, 81, 105
2, 66699, Note_on_c, 0, 47, 93
2, 66703, Note_on_c, 0, 35, 84
2, 66705, Note_on_c, 0, 69, 98
2, 66708, Note_on_c, 0, 76, 0
2, 66712, Note_on_c, 0, 73, 91
2, 66717, Note_on_c, 0, 76, 85
2, 66755, Control_c, 0, 64, 0
2, 66757, Note_on_c, 0, 52, 0
2, 66757, Note_on_c, 0, 83, 0
2, 66758, Note_on_c, 0, 80, 0
2, 66762, Note_on_c, 0, 40, 0
2, 66769, Note_on_c, 0, 68, 0
2, 66777, Note_on_c, 0, 71, 0
2, 67046, Control_c, 0, 64, 127
2, 67975, Note_on_c, 0, 69, 0
2, 67980, Note_on_c, 0, 69, 80
2, 68259, Note_on_c, 0, 69, 0
2, 68268, Note_on_c, 0, 69, 74
2, 68528, Note_on_c, 0, 69, 0
2, 68538, Note_on_c, 0, 69, 68
2, 68782, Note_on_c, 0, 73, 0
2, 68792, Note_on_c, 0, 73, 81
2, 69050, Note_on_c, 0, 69, 0
2, 69060, Note_on_c, 0, 69, 70
2, 69315, Control_c, 0, 64, 0
2, 69329, Note_on_c, 0, 52, 39
2, 69329, Note_on_c, 0, 57, 54
2, 69332, Note_on_c, 0, 35, 0
2, 69335, Note_on_c, 0, 73, 0
2, 69335, Note_on_c, 0, 47, 0
2, 69338, Note_on_c, 0, 42, 45
2, 69342, Note_on_c, 0, 81, 0
2, 69350, Note_on_c, 0, 76, 0
2, 69504, Note_on_c, 0, 69, 0
2, 69550, Control_c, 0, 64, 127
2, 69600, Note_on_c, 0, 61, 60
2, 69741, Note_on_c, 0, 62, 54
2, 69849, Note_on_c, 0, 61, 0
2, 69860, Note_on_c, 0, 61, 58
2, 69980, Note_on_c, 0, 62, 0
2, 69991, Note_on_c, 0, 62, 53
2, 70118, Note_on_c, 0, 52, 0
2, 70122, Note_on_c, 0, 56, 58
2, 70124, Note_on_c, 0, 44, 56
2, 70127, Note_on_c, 0, 52, 47
2, 70129, Note_on_c, 0, 64, 60
2, 70153, Note_on_c, 0, 42, 0
2, 70158, Note_on_c, 0, 57, 0
2, 70159, Note_on_c, 0, 62, 0
2, 70159, Note_on_c, 0, 61, 0
2, 70159, Control_c, 0, 64, 0
2, 70254, Note_on_c, 0, 62, 61
2, 70310, Control_c, 0, 64, 127
2, 70389, Note_on_c, 0, 61, 63
2, 70517, Note_on_c, 0, 62, 0
2, 70526, Note_on_c, 0, 62, 62
2, 70640, Note_on_c, 0, 61, 0
2, 70647, Note_on_c, 0, 61, 58
2, 70755, Note_on_c, 0, 62, 0
2, 70766, Note_on_c, 0, 62, 60
2, 70871, Note_on_c, 0, 56, 0
2, 70878, Note_on_c, 0, 64, 0
2, 70879, Note_on_c, 0, 56, 64
2, 70886, Note_on_c, 0, 52, 0
2, 70889, Note_on_c, 0, 64, 67
2, 70891, Note_on_c, 0, 52, 47
2, 71016, Note_on_c, 0, 62, 0
2, 71023, Note_on_c, 0, 62, 64
2, 71147, Note_on_c, 0, 61, 0
2, 71157, Note_on_c, 0, 61, 63
2, 71270, Note_on_c, 0, 62, 0
2, 71279, Note_on_c, 0, 62, 60
2, 71403, Note_on_c, 0, 57, 70
2, 71403, Note_on_c, 0, 45, 70
2, 71403, Control_c, 0, 64, 0
2, 71408, Note_on_c, 0, 52, 0
2, 71408, Note_on_c, 0, 61, 0
2, 71409, Note_on_c, 0, 44, 0
2, 71410, Note_on_c, 0, 62, 0
2, 71418, Note_on_c, 0, 52, 61
2, 71419, Note_on_c, 0, 61, 60
2, 71424, Note_on_c, 0, 56, 0
2, 71539, Control_c, 0, 64, 127
2, 71544, Note_on_c, 0, 62, 64
2, 71577, Note_on_c, 0, 61, 0
2, 71665, Note_on_c, 0, 61, 66
2, 71784, Note_on_c, 0, 62, 0
2, 71792, Note_on_c, 0, 62, 63
2, 71915, Note_on_c, 0, 64, 0
2, 71921, Note_on_c, 0, 64, 66
2, 72046, Note_on_c, 0, 62, 0
2, 72050, Note_on_c, 0, 62, 66
2, 72158, Note_on_c, 0, 54, 66
2, 72161, Note_on_c, 0, 45, 0
2, 72168, Note_on_c, 0, 61, 0
2, 72171, Note_on_c, 0, 45, 64
2, 72172, Note_on_c, 0, 38, 61
2, 72179, Note_on_c, 0, 61, 65
2, 72186, Note_on_c, 0, 57, 0
2, 72187, Note_on_c, 0, 52, 0
2, 72192, Note_on_c, 0, 64, 0
2, 72193, Note_on_c, 0, 62, 0
2, 72214, Control_c, 0, 64, 0
2, 72296, Note_on_c, 0, 62, 64
2, 72376, Control_c, 0, 64, 127
2, 72414, Note_on_c, 0, 61, 0
2, 72422, Note_on_c, 0, 61, 72
2, 72529, Note_on_c, 0, 62, 0
2, 72534, Note_on_c, 0, 62, 72
2, 72672, Note_on_c, 0, 64, 72
2, 72798, Note_on_c, 0, 62, 0
2, 72808, Note_on_c, 0, 62, 75
2, 72929, Note_on_c, 0, 54, 0
2, 72929, Note_on_c, 0, 61, 0
2, 72935, Note_on_c, 0, 54, 65
2, 72939, Note_on_c, 0, 61, 76
2, 73067, Note_on_c, 0, 62, 0
2, 73073, Note_on_c, 0, 62, 71
2, 73190, Note_on_c, 0, 61, 0
2, 73195, Note_on_c, 0, 61, 71
2, 73334, Note_on_c, 0, 59, 68
2, 73442, Note_on_c, 0, 57, 65
2, 73455, Note_on_c, 0, 52, 59
2, 73459, Note_on_c, 0, 64, 0
2, 73462, Note_on_c, 0, 38, 0
2, 73462, Note_on_c, 0, 54, 0
2, 73462, Control_c, 0, 64, 0
2, 73462, Note_on_c, 0, 73, 77
2, 73462, Note_on_c, 0, 61, 0
2, 73463, Note_on_c, 0, 62, 0
2, 73464, Note_on_c, 0, 59, 0
2, 73470, Note_on_c, 0, 64, 67
2, 73551, Control_c, 0, 64, 127
2, 73585, Note_on_c, 0, 74, 84
2, 73599, Note_on_c, 0, 66, 68
2, 73712, Note_on_c, 0, 64, 0
2, 73712, Note_on_c, 0, 73, 0
2, 73719, Note_on_c, 0, 73, 78
2, 73721, Note_on_c, 0, 64, 68
2, 73835, Note_on_c, 0, 66, 0
2, 73835, Note_on_c, 0, 74, 0
2, 73839, Note_on_c, 0, 74, 81
2, 73845, Note_on_c, 0, 66, 68
2, 73970, Note_on_c, 0, 76, 85
2, 73977, Note_on_c, 0, 68, 69
2, 74088, Note_on_c, 0, 74, 0
2, 74100, Note_on_c, 0, 74, 90
2, 74104, Note_on_c, 0, 66, 0
2, 74112, Note_on_c, 0, 66, 74
2, 74195, Note_on_c, 0, 66, 0
2, 74196, Note_on_c, 0, 59, 79
2, 74200, Note_on_c, 0, 68, 0
2, 74200, Note_on_c, 0, 76, 0
2, 74203, Note_on_c, 0, 74, 0
2, 74205, Control_c, 0, 64, 0
2, 74208, Note_on_c, 0, 44, 65
2, 74211, Note_on_c, 0, 73, 0
2, 74216, Note_on_c, 0, 73, 85
2, 74219, Note_on_c, 0, 57, 0
2, 74219, Note_on_c, 0, 64, 0
2, 74230, Note_on_c, 0, 64, 74
2, 74273, Control_c, 0, 64, 127
2, 74346, Note_on_c, 0, 74, 78
2, 74347, Note_on_c, 0, 66, 77
2, 74457, Note_on_c, 0, 64, 0
2, 74457, Note_on_c, 0, 73, 0
2, 74464, Note_on_c, 0, 73, 78
2, 74467, Note_on_c, 0, 64, 71
2, 74580, Note_on_c, 0, 66, 0
2, 74580, Note_on_c, 0, 74, 0
2, 74584, Note_on_c, 0, 74, 87
2, 74589, Note_on_c, 0, 66, 74
2, 74711, Note_on_c, 0, 76, 91
2, 74727, Note_on_c, 0, 68, 71
2, 74833, Note_on_c, 0, 74, 0
2, 74843, Note_on_c, 0, 74, 91
2, 74856, Note_on_c, 0, 66, 0
2, 74861, Note_on_c, 0, 66, 72
2, 74972, Note_on_c, 0, 52, 0
2, 74972, Note_on_c, 0, 59, 0
2, 74972, Note_on_c, 0, 64, 0
2, 74972, Note_on_c, 0, 73, 0
2, 74976, Note_on_c, 0, 73, 93
2, 74977, Note_on_c, 0, 52, 70
2, 74978, Note_on_c, 0, 59, 80
2, 74982, Note_on_c, 0, 64, 82
2, 75087, Note_on_c, 0, 74, 0
2, 75094, Note_on_c, 0, 74, 90
2, 75095, Note_on_c, 0, 66, 0
2, 75103, Note_on_c, 0, 66, 78
2, 75225, Note_on_c, 0, 64, 0
2, 75225, Note_on_c, 0, 73, 0
2, 75230, Note_on_c, 0, 73, 88
2, 75236, Note_on_c, 0, 64, 78
2, 75364, Note_on_c, 0, 71, 84
2, 75370, Note_on_c, 0, 62, 66
2, 75463, Note_on_c, 0, 59, 0
2, 75471, Note_on_c, 0, 45, 0
2, 75471, Note_on_c, 0, 64, 0
2, 75471, Note_on_c, 0, 73, 0
2, 75474, Note_on_c, 0, 59, 83
2, 75477, Note_on_c, 0, 73, 94
2, 75482, Note_on_c, 0, 64, 87
2, 75482, Note_on_c, 0, 45, 82
2, 75514, Control_c, 0, 64, 0
2, 75578, Control_c, 0, 64, 127
2, 75586, Note_on_c, 0, 74, 0
2, 75586, Control_c, 0, 64, 0
2, 75594, Note_on_c, 0, 66, 0
2, 75597, Note_on_c, 0, 74, 87
2, 75601, Note_on_c, 0, 66, 71
2, 75609, Note_on_c, 0, 73, 0
2, 75611, Note_on_c, 0, 71, 0
2, 75612, Note_on_c, 0, 62, 0
2, 75612, Note_on_c, 0, 68, 0
2, 75614, Note_on_c, 0, 76, 0
2, 75671, Note_on_c, 0, 74, 0
2, 75678, Note_on_c, 0, 66, 0
2, 75719, Note_on_c, 0, 76, 89
2, 75720, Note_on_c, 0, 68, 84
2, 75778, Control_c, 0, 64, 127
2, 75835, Note_on_c, 0, 69, 89
2, 75835, Note_on_c, 0, 78, 94
2, 75958, Note_on_c, 0, 80, 95
2, 75959, Note_on_c, 0, 71, 90
2, 76083, Note_on_c, 0, 81, 96
2, 76089, Note_on_c, 0, 73, 90
2, 76200, Note_on_c, 0, 80, 0
2, 76208, Note_on_c, 0, 71, 0
2, 76212, Note_on_c, 0, 80, 95
2, 76215, Note_on_c, 0, 71, 87
2, 76219, Note_on_c, 0, 50, 83
2, 76220, Note_on_c, 0, 38, 80
2, 76308, Note_on_c, 0, 64, 0
2, 76321, Note_on_c, 0, 45, 0
2, 76321, Note_on_c, 0, 68, 0
2, 76326, Note_on_c, 0, 80, 0
2, 76327, Note_on_c, 0, 76, 0
2, 76327, Note_on_c, 0, 59, 0
2, 76327, Note_on_c, 0, 78, 0
2, 76327, Note_on_c, 0, 69, 0
2, 76328, Note_on_c, 0, 71, 0
2, 76331, Note_on_c, 0, 52, 0
2, 76331, Note_on_c, 0, 73, 0
2, 76331, Note_on_c, 0, 81, 0
2, 76334, Control_c, 0, 64, 0
2, 76336, Note_on_c, 0, 81, 93
2, 76339, Note_on_c, 0, 73, 90
2, 76346, Note_on_c, 0, 44, 0
2, 76416, Control_c, 0, 64, 127
2, 76446, Note_on_c, 0, 80, 91
2, 76448, Note_on_c, 0, 71, 75
2, 76559, Note_on_c, 0, 69, 89
2, 76562, Note_on_c, 0, 78, 93
2, 76688, Note_on_c, 0, 76, 93
2, 76688, Note_on_c, 0, 68, 79
2, 76816, Note_on_c, 0, 74, 94
2, 76821, Note_on_c, 0, 66, 77
2, 76938, Note_on_c, 0, 76, 0
2, 76946, Note_on_c, 0, 76, 92
2, 76946, Note_on_c, 0, 64, 88
2, 76950, Note_on_c, 0, 57, 73
2, 76950, Note_on_c, 0, 54, 67
2, 77068, Note_on_c, 0, 74, 0
2, 77079, Note_on_c, 0, 74, 92
2, 77199, Note_on_c, 0, 73, 0
2, 77204, Note_on_c, 0, 73, 91
2, 77306, Note_on_c, 0, 71, 0
2, 77317, Note_on_c, 0, 71, 93
2, 77460, Note_on_c, 0, 57, 0
2, 77460, Note_on_c, 0, 69, 0
2, 77461, Note_on_c, 0, 42, 94
2, 77464, Note_on_c, 0, 57, 104
2, 77465, Note_on_c, 0, 52, 91
2, 77465, Note_on_c, 0, 69, 106
2, 77590, Control_c, 0, 64, 0
2, 77591, Note_on_c, 0, 76, 0
2, 77591, Note_on_c, 0, 81, 0
2, 77593, Note_on_c, 0, 57, 0
2, 77593, Note_on_c, 0, 78, 0
2, 77593, Note_on_c, 0, 74, 0
2, 77593, Note_on_c, 0, 64, 0
2, 77593, Note_on_c, 0, 80, 0
2, 77593, Note_on_c, 0, 69, 0
2, 77593, Note_on_c, 0, 66, 0
2, 77593, Note_on_c, 0, 54, 0
2, 77594, Note_on_c, 0, 68, 0
2, 77594, Note_on_c, 0, 38, 0
2, 77594, Note_on_c, 0, 71, 0
2, 77595, Note_on_c, 0, 50, 0
2, 77595, Note_on_c, 0, 73, 0
2, 77637, Note_on_c, 0, 42, 0
2, 77660, Note_on_c, 0, 52, 0
2, 77717, Note_on_c, 0, 69, 92
2, 77844, Note_on_c, 0, 69, 0
2, 77852, Note_on_c, 0, 69, 93
2, 77965, Note_on_c, 0, 61, 95
2, 77975, Note_on_c, 0, 69, 0
2, 77986, Note_on_c, 0, 69, 99
2, 78028, Control_c, 0, 64, 127
2, 78090, Control_c, 0, 64, 0
2, 78229, Note_on_c, 0, 59, 102
2, 78231, Note_on_c, 0, 52, 92
2, 78232, Note_on_c, 0, 44, 92
2, 78374, Note_on_c, 0, 69, 0
2, 78378, Note_on_c, 0, 69, 97
2, 78489, Note_on_c, 0, 69, 0
2, 78500, Note_on_c, 0, 69, 91
2, 78500, Note_on_c, 0, 59, 0
2, 78551, Note_on_c, 0, 61, 0
2, 78597, Note_on_c, 0, 69, 0
2, 78605, Note_on_c, 0, 69, 84
2, 78612, Note_on_c, 0, 52, 0
2, 78615, Note_on_c, 0, 44, 0
2, 78681, Note_on_c, 0, 69, 0
2, 78732, Note_on_c, 0, 69, 101
2, 78736, Note_on_c, 0, 54, 98
2, 78737, Note_on_c, 0, 42, 80
2, 78851, Note_on_c, 0, 56, 88
2, 78904, Note_on_c, 0, 42, 0
2, 78973, Note_on_c, 0, 54, 0
2, 78977, Note_on_c, 0, 54, 83
2, 78981, Note_on_c, 0, 69, 0
2, 78985, Note_on_c, 0, 56, 0
2, 78985, Note_on_c, 0, 69, 101
2, 79093, Note_on_c, 0, 54, 0
2, 79101, Note_on_c, 0, 52, 80
2, 79226, Note_on_c, 0, 69, 0
2, 79231, Note_on_c, 0, 69, 101
2, 79235, Note_on_c, 0, 57, 96
2, 79353, Note_on_c, 0, 59, 98
2, 79391, Note_on_c, 0, 52, 0
2, 79393, Note_on_c, 0, 57, 0
2, 79469, Note_on_c, 0, 69, 0
2, 79470, Note_on_c, 0, 59, 0
2, 79477, Note_on_c, 0, 61, 98
2, 79478, Note_on_c, 0, 57, 101
2, 79481, Note_on_c, 0, 52, 92
2, 79481, Note_on_c, 0, 45, 99
2, 79534, Control_c, 0, 64, 127
2, 79613, Note_on_c, 0, 69, 97
2, 79716, Control_c, 0, 64, 0
2, 79721, Note_on_c, 0, 45, 0
2, 79723, Note_on_c, 0, 57, 0
2, 79724, Note_on_c, 0, 61, 0
2, 79726, Note_on_c, 0, 52, 0
2, 79726, Note_on_c, 0, 69, 0
2, 79728, Note_on_c, 0, 62, 94
2, 79729, Note_on_c, 0, 69, 96
2, 79791, Note_on_c, 0, 62, 0
2, 79802, Note_on_c, 0, 69, 0
2, 79852, Note_on_c, 0, 69, 102
2, 79852, Note_on_c, 0, 61, 99
2, 79964, Note_on_c, 0, 69, 0
2, 79975, Note_on_c, 0, 69, 102
2, 80102, Note_on_c, 0, 59, 93
2, 80121, Note_on_c, 0, 61, 0
2, 80132, Note_on_c, 0, 59, 0
2, 80228, Note_on_c, 0, 57, 106
2, 80230, Note_on_c, 0, 50, 99
2, 80234, Note_on_c, 0, 45, 99
2, 80235, Note_on_c, 0, 38, 98
2, 80332, Control_c, 0, 64, 127
2, 80371, Note_on_c, 0, 69, 0
2, 80375, Note_on_c, 0, 69, 99
2, 80486, Note_on_c, 0, 69, 0
2, 80497, Note_on_c, 0, 69, 98
2, 80577, Control_c, 0, 64, 0
2, 80590, Note_on_c, 0, 38, 0
2, 80590, Note_on_c, 0, 57, 0
2, 80590, Note_on_c, 0, 50, 0
2, 80590, Note_on_c, 0, 45, 0
2, 80601, Note_on_c, 0, 69, 0
2, 80607, Note_on_c, 0, 69, 92
2, 80739, Note_on_c, 0, 69, 0
2, 80744, Note_on_c, 0, 52, 94
2, 80744, Note_on_c, 0, 69, 100
2, 80832, Control_c, 0, 64, 127
2, 80870, Control_c, 0, 64, 0
2, 80872, Note_on_c, 0, 54, 89
2, 80910, Note_on_c, 0, 52, 0
2, 80954, Control_c, 0, 64, 127
2, 80985, Note_on_c, 0, 69, 0
2, 80996, Note_on_c, 0, 69, 105
2, 81004, Note_on_c, 0, 50, 98
2, 81119, Control_c, 0, 64, 0
2, 81126, Note_on_c, 0, 69, 0
2, 81126, Note_on_c, 0, 38, 89
2, 81139, Note_on_c, 0, 54, 0
2, 81185, Note_on_c, 0, 50, 0
2, 81245, Note_on_c, 0, 71, 105
2, 81250, Note_on_c, 0, 59, 104
2, 81250, Note_on_c, 0, 64, 98
2, 81254, Control_c, 0, 64, 127
2, 81466, Note_on_c, 0, 71, 0
2, 81466, Note_on_c, 0, 59, 0
2, 81468, Note_on_c, 0, 64, 0
2, 81469, Note_on_c, 0, 38, 0
2, 81470, Control_c, 0, 64, 0
2, 81509, Note_on_c, 0, 42, 102
2, 81510, Note_on_c, 0, 52, 95
2, 81511, Note_on_c, 0, 57, 106
2, 81546, Control_c, 0, 64, 127
2, 81692, Note_on_c, 0, 42, 0
2, 81712, Control_c, 0, 64, 0
2, 81726, Note_on_c, 0, 57, 0
2, 81733, Note_on_c, 0, 52, 0
2, 81759, Note_on_c, 0, 69, 97
2, 81822, Note_on_c, 0, 69, 0
2, 81877, Note_on_c, 0, 69, 97
2, 82002, Note_on_c, 0, 61, 96
2, 82007, Note_on_c, 0, 69, 0
2, 82017, Note_on_c, 0, 69, 106
2, 82053, Control_c, 0, 64, 127
2, 82271, Note_on_c, 0, 59, 107
2, 82272, Note_on_c, 0, 44, 94
2, 82272, Note_on_c, 0, 52, 92
2, 82299, Note_on_c, 0, 61, 0
2, 82303, Note_on_c, 0, 69, 0
2, 82315, Control_c, 0, 64, 0
2, 82344, Control_c, 0, 64, 127
2, 82404, Note_on_c, 0, 69, 101
2, 82529, Note_on_c, 0, 69, 0
2, 82534, Note_on_c, 0, 69, 96
2, 82620, Control_c, 0, 64, 0
2, 82629, Note_on_c, 0, 69, 0
2, 82629, Note_on_c, 0, 44, 0
2, 82630, Note_on_c, 0, 52, 0
2, 82632, Note_on_c, 0, 59, 0
2, 82637, Note_on_c, 0, 69, 94
2, 82713, Note_on_c, 0, 69, 0
2, 82773, Note_on_c, 0, 69, 101
2, 82777, Note_on_c, 0, 54, 101
2, 82813, Control_c, 0, 64, 127
2, 82891, Note_on_c, 0, 56, 92
2, 83013, Note_on_c, 0, 54, 0
2, 83013, Note_on_c, 0, 69, 0
2, 83022, Note_on_c, 0, 69, 102
2, 83023, Note_on_c, 0, 54, 89
2, 83049, Control_c, 0, 64, 0
2, 83130, Note_on_c, 0, 56, 0
2, 83140, Note_on_c, 0, 52, 87
2, 83141, Note_on_c, 0, 69, 0
2, 83142, Note_on_c, 0, 54, 0
2, 83269, Note_on_c, 0, 69, 105
2, 83269, Note_on_c, 0, 57, 101
2, 83291, Note_on_c, 0, 52, 0
2, 83390, Note_on_c, 0, 59, 99
2, 83401, Note_on_c, 0, 57, 0
2, 83501, Note_on_c, 0, 59, 0
2, 83516, Note_on_c, 0, 61, 100
2, 83516, Note_on_c, 0, 52, 95
2, 83518, Note_on_c, 0, 57, 102
2, 83519, Note_on_c, 0, 45, 97
2, 83650, Note_on_c, 0, 69, 0
2, 83657, Note_on_c, 0, 69, 92
2, 83723, Note_on_c, 0, 61, 0
2, 83724, Note_on_c, 0, 57, 0
2, 83725, Note_on_c, 0, 45, 0
2, 83725, Note_on_c, 0, 52, 0
2, 83758, Note_on_c, 0, 69, 0
2, 83769, Note_on_c, 0, 69, 94
2, 83769, Note_on_c, 0, 62, 95
2, 83803, Note_on_c, 0, 62, 0
2, 83806, Note_on_c, 0, 69, 0
2, 83887, Note_on_c, 0, 69, 104
2, 83891, Note_on_c, 0, 61, 99
2, 83933, Note_on_c, 0, 69, 0
2, 84009, Note_on_c, 0, 69, 103
2, 84123, Note_on_c, 0, 61, 0
2, 84144, Note_on_c, 0, 59, 89
2, 84179, Note_on_c, 0, 59, 0
2, 84264, Note_on_c, 0, 57, 106
2, 84269, Note_on_c, 0, 45, 105
2, 84275, Note_on_c, 0, 38, 101
2, 84290, Note_on_c, 0, 69, 0
2, 84326, Control_c, 0, 64, 127
2, 84416, Note_on_c, 0, 69, 95
2, 84533, Note_on_c, 0, 69, 0
2, 84542, Note_on_c, 0, 69, 91
2, 84641, Note_on_c, 0, 69, 0
2, 84646, Note_on_c, 0, 69, 96
2, 84748, Note_on_c, 0, 69, 0
2, 84754, Note_on_c, 0, 52, 97
2, 84754, Note_on_c, 0, 69, 100
2, 84770, Control_c, 0, 64, 0
2, 84781, Note_on_c, 0, 45, 0
2, 84782, Note_on_c, 0, 38, 0
2, 84785, Note_on_c, 0, 57, 0
2, 84875, Note_on_c, 0, 52, 0
2, 84888, Note_on_c, 0, 54, 92
2, 85000, Note_on_c, 0, 54, 0
2, 85017, Note_on_c, 0, 69, 0
2, 85023, Note_on_c, 0, 69, 105
2, 85026, Note_on_c, 0, 50, 97
2, 85086, Control_c, 0, 64, 127
2, 85270, Note_on_c, 0, 71, 106
2, 85276, Note_on_c, 0, 59, 101
2, 85277, Note_on_c, 0, 64, 93
2, 85467, Control_c, 0, 64, 0
2, 85479, Note_on_c, 0, 64, 0
2, 85479, Note_on_c, 0, 59, 0
2, 85481, Note_on_c, 0, 69, 0
2, 85481, Note_on_c, 0, 71, 0
2, 85481, Note_on_c, 0, 50, 0
2, 85516, Note_on_c, 0, 42, 107
2, 85518, Note_on_c, 0, 30, 105
2, 85601, Control_c, 0, 64, 127
2, 85616, Note_on_c, 0, 30, 0
2, 85781, Note_on_c, 0, 73, 111
2, 85781, Note_on_c, 0, 85, 106
2, 85783, Note_on_c, 0, 76, 100
2, 85855, Control_c, 0, 64, 0
2, 85869, Note_on_c, 0, 42, 0
2, 85874, Note_on_c, 0, 73, 0
2, 85874, Note_on_c, 0, 85, 0
2, 85874, Note_on_c, 0, 76, 0
2, 86043, Note_on_c, 0, 73, 105
2, 86043, Note_on_c, 0, 85, 107
2, 86046, Note_on_c, 0, 76, 103
2, 86261, Control_c, 0, 64, 127
2, 86297, Note_on_c, 0, 44, 105
2, 86297, Note_on_c, 0, 32, 96
2, 86423, Note_on_c, 0, 73, 0
2, 86423, Note_on_c, 0, 76, 0
2, 86423, Note_on_c, 0, 85, 0
2, 86432, Note_on_c, 0, 85, 103
2, 86432, Note_on_c, 0, 73, 102
2, 86434, Note_on_c, 0, 76, 100
2, 86534, Note_on_c, 0, 44, 0
2, 86535, Note_on_c, 0, 32, 0
2, 86538, Note_on_c, 0, 73, 0
2, 86538, Note_on_c, 0, 85, 0
2, 86542, Control_c, 0, 64, 0
2, 86545, Note_on_c, 0, 76, 0
2, 86548, Note_on_c, 0, 73, 103
2, 86549, Note_on_c, 0, 85, 104
2, 86550, Note_on_c, 0, 76, 100
2, 86638, Control_c, 0, 64, 127
2, 86673, Note_on_c, 0, 44, 101
2, 86674, Note_on_c, 0, 32, 94
2, 86799, Note_on_c, 0, 85, 0
2, 86807, Note_on_c, 0, 32, 0
2, 86807, Note_on_c, 0, 44, 0
2, 86807, Note_on_c, 0, 73, 0
2, 86807, Note_on_c, 0, 76, 0
2, 86810, Note_on_c, 0, 85, 107
2, 86810, Note_on_c, 0, 73, 106
2, 86811, Note_on_c, 0, 44, 83
2, 86811, Note_on_c, 0, 76, 102
2, 86812, Note_on_c, 0, 32, 79
2, 86852, Note_on_c, 0, 44, 0
2, 86856, Note_on_c, 0, 32, 0
2, 86862, Control_c, 0, 64, 0
2, 86925, Note_on_c, 0, 32, 92
2, 86928, Note_on_c, 0, 44, 82
2, 86960, Control_c, 0, 64, 127
2, 86983, Note_on_c, 0, 73, 0
2, 86991, Note_on_c, 0, 76, 0
2, 87006, Note_on_c, 0, 85, 0
2, 87052, Note_on_c, 0, 32, 0
2, 87052, Note_on_c, 0, 44, 0
2, 87060, Note_on_c, 0, 71, 107
2, 87061, Note_on_c, 0, 83, 107
2, 87061, Note_on_c, 0, 44, 103
2, 87063, Note_on_c, 0, 76, 101
2, 87064, Note_on_c, 0, 32, 91
2, 87275, Note_on_c, 0, 32, 0
2, 87279, Note_on_c, 0, 32, 83
2, 87283, Note_on_c, 0, 44, 0
2, 87288, Note_on_c, 0, 44, 87
2, 87321, Note_on_c, 0, 81, 110
2, 87321, Note_on_c, 0, 76, 0
2, 87321, Note_on_c, 0, 69, 107
2, 87332, Note_on_c, 0, 76, 79
2, 87572, Note_on_c, 0, 33, 95
2, 87572, Note_on_c, 0, 45, 107
2, 87577, Note_on_c, 0, 44, 0
2, 87579, Control_c, 0, 64, 0
2, 87579, Note_on_c, 0, 81, 0
2, 87579, Note_on_c, 0, 76, 0
2, 87580, Note_on_c, 0, 69, 0
2, 87580, Note_on_c, 0, 83, 0
2, 87583, Note_on_c, 0, 71, 0
2, 87590, Note_on_c, 0, 32, 0
2, 87680, Note_on_c, 0, 61, 83
2, 87682, Control_c, 0, 64, 127
2, 87776, Note_on_c, 0, 62, 81
2, 87780, Note_on_c, 0, 57, 99
2, 87797, Note_on_c, 0, 33, 0
2, 87850, Note_on_c, 0, 64, 88
2, 87851, Note_on_c, 0, 57, 0
2, 87856, Note_on_c, 0, 57, 101
2, 87897, Note_on_c, 0, 62, 0
2, 87906, Note_on_c, 0, 62, 65
2, 87974, Note_on_c, 0, 68, 90
2, 88005, Note_on_c, 0, 57, 0
2, 88009, Note_on_c, 0, 57, 101
2, 88046, Note_on_c, 0, 69, 88
2, 88081, Note_on_c, 0, 57, 0
2, 88088, Note_on_c, 0, 57, 103
2, 88096, Note_on_c, 0, 71, 90
2, 88182, Note_on_c, 0, 73, 92
2, 88243, Note_on_c, 0, 74, 92
2, 88317, Note_on_c, 0, 76, 90
2, 88327, Note_on_c, 0, 57, 0
2, 88331, Note_on_c, 0, 57, 100
2, 88389, Note_on_c, 0, 78, 88
2, 88487, Note_on_c, 0, 80, 92
2, 88488, Note_on_c, 0, 38, 100
2, 88512, Control_c, 0, 64, 0
2, 88527, Control_c, 0, 64, 127
2, 88584, Note_on_c, 0, 81, 105
2, 88588, Note_on_c, 0, 57, 0
2, 88599, Note_on_c, 0, 57, 108
2, 88615, Note_on_c, 0, 45, 0
2, 88673, Note_on_c, 0, 80, 0
2, 88682, Note_on_c, 0, 80, 99
2, 88742, Note_on_c, 0, 78, 0
2, 88751, Note_on_c, 0, 78, 91
2, 88811, Note_on_c, 0, 76, 0
2, 88822, Note_on_c, 0, 76, 101
2, 88849, Note_on_c, 0, 57, 0
2, 88854, Note_on_c, 0, 57, 105
2, 88903, Note_on_c, 0, 78, 0
2, 88912, Note_on_c, 0, 78, 102
2, 89003, Note_on_c, 0, 76, 0
2, 89008, Note_on_c, 0, 76, 103
2, 89088, Note_on_c, 0, 74, 0
2, 89098, Note_on_c, 0, 74, 99
2, 89111, Note_on_c, 0, 57, 0
2, 89118, Note_on_c, 0, 57, 103
2, 89195, Note_on_c, 0, 73, 0
2, 89202, Note_on_c, 0, 73, 92
2, 89264, Note_on_c, 0, 71, 0
2, 89275, Note_on_c, 0, 71, 80
2, 89326, Note_on_c, 0, 69, 0
2, 89337, Note_on_c, 0, 69, 88
2, 89356, Note_on_c, 0, 59, 105
2, 89395, Note_on_c, 0, 71, 0
2, 89406, Note_on_c, 0, 71, 91
2, 89441, Note_on_c, 0, 73, 0
2, 89447, Note_on_c, 0, 73, 87
2, 89502, Note_on_c, 0, 76, 0
2, 89512, Note_on_c, 0, 76, 102
2, 89567, Control_c, 0, 64, 0
2, 89569, Note_on_c, 0, 62, 0
2, 89570, Note_on_c, 0, 68, 0
2, 89571, Note_on_c, 0, 57, 0
2, 89571, Note_on_c, 0, 59, 0
2, 89571, Note_on_c, 0, 76, 0
2, 89571, Note_on_c, 0, 81, 0
2, 89572, Note_on_c, 0, 71, 0
2, 89572, Note_on_c, 0, 38, 0
2, 89573, Note_on_c, 0, 73, 0
2, 89587, Note_on_c, 0, 61, 0
2, 89587, Note_on_c, 0, 64, 0
2, 89587, Note_on_c, 0, 69, 0
2, 89587, Note_on_c, 0, 74, 0
2, 89587, Note_on_c, 0, 78, 0
2, 89587, Note_on_c, 0, 80, 0
2, 89640, Note_on_c, 0, 42, 107
2, 89643, Note_on_c, 0, 30, 107
2, 89710, Control_c, 0, 64, 127
2, 89900, Note_on_c, 0, 85, 107
2, 89900, Note_on_c, 0, 73, 109
2, 89902, Note_on_c, 0, 76, 108
2, 89925, Note_on_c, 0, 30, 0
2, 89932, Note_on_c, 0, 42, 0
2, 89941, Control_c, 0, 64, 0
2, 89942, Note_on_c, 0, 73, 0
2, 89942, Note_on_c, 0, 76, 0
2, 89946, Note_on_c, 0, 85, 0
2, 90160, Note_on_c, 0, 73, 109
2, 90161, Note_on_c, 0, 85, 108
2, 90164, Note_on_c, 0, 76, 103
2, 90263, Control_c, 0, 64, 127
2, 90417, Note_on_c, 0, 32, 96
2, 90418, Note_on_c, 0, 44, 107
2, 90547, Note_on_c, 0, 73, 0
2, 90547, Note_on_c, 0, 76, 0
2, 90547, Note_on_c, 0, 85, 0
2, 90556, Note_on_c, 0, 85, 105
2, 90557, Note_on_c, 0, 73, 104
2, 90558, Note_on_c, 0, 76, 102
2, 90577, Note_on_c, 0, 44, 0
2, 90583, Note_on_c, 0, 44, 60
2, 90603, Note_on_c, 0, 76, 0
2, 90603, Note_on_c, 0, 73, 0
2, 90605, Note_on_c, 0, 32, 0
2, 90607, Control_c, 0, 64, 0
2, 90631, Note_on_c, 0, 44, 0
2, 90662, Note_on_c, 0, 85, 0
2, 90666, Note_on_c, 0, 73, 100
2, 90667, Note_on_c, 0, 85, 99
2, 90669, Note_on_c, 0, 76, 100
2, 90777, Control_c, 0, 64, 127
2, 90790, Note_on_c, 0, 44, 106
2, 90791, Note_on_c, 0, 32, 97
2, 90897, Note_on_c, 0, 73, 0
2, 90898, Note_on_c, 0, 32, 0
2, 90898, Note_on_c, 0, 44, 0
2, 90915, Note_on_c, 0, 85, 0
2, 90920, Control_c, 0, 64, 0
2, 90923, Note_on_c, 0, 76, 0
2, 90925, Note_on_c, 0, 85, 106
2, 90926, Note_on_c, 0, 73, 108
2, 90931, Note_on_c, 0, 76, 97
2, 91033, Note_on_c, 0, 32, 89
2, 91096, Note_on_c, 0, 73, 0
2, 91102, Note_on_c, 0, 85, 0
2, 91115, Control_c, 0, 64, 127
2, 91130, Note_on_c, 0, 76, 0
2, 91146, Note_on_c, 0, 32, 0
2, 91155, Note_on_c, 0, 44, 100
2, 91157, Note_on_c, 0, 71, 108
2, 91157, Note_on_c, 0, 83, 108
2, 91157, Note_on_c, 0, 32, 88
2, 91159, Note_on_c, 0, 80, 103
2, 91161, Note_on_c, 0, 76, 104
2, 91411, Note_on_c, 0, 81, 108
2, 91411, Note_on_c, 0, 69, 106
2, 91412, Note_on_c, 0, 33, 83
2, 91422, Note_on_c, 0, 33, 0
2, 91658, Note_on_c, 0, 32, 0
2, 91660, Note_on_c, 0, 44, 0
2, 91663, Note_on_c, 0, 76, 0
2, 91663, Note_on_c, 0, 81, 0
2, 91664, Note_on_c, 0, 69, 0
2, 91665, Note_on_c, 0, 80, 0
2, 91667, Note_on_c, 0, 71, 0
2, 91667, Note_on_c, 0, 45, 107
2, 91667, Note_on_c, 0, 33, 95
2, 91668, Note_on_c, 0, 83, 0
2, 91679, Control_c, 0, 64, 0
2, 91783, Control_c, 0, 64, 127
2, 91836, Note_on_c, 0, 57, 100
2, 91873, Note_on_c, 0, 62, 81
2, 91921, Note_on_c, 0, 57, 0
2, 91931, Note_on_c, 0, 57, 103
2, 91944, Note_on_c, 0, 64, 78
2, 92011, Note_on_c, 0, 66, 78
2, 92075, Note_on_c, 0, 68, 87
2, 92098, Note_on_c, 0, 57, 0
2, 92102, Note_on_c, 0, 57, 94
2, 92152, Note_on_c, 0, 57, 0
2, 92158, Note_on_c, 0, 69, 85
2, 92162, Note_on_c, 0, 57, 102
2, 92209, Note_on_c, 0, 71, 84
2, 92275, Note_on_c, 0, 73, 93
2, 92367, Note_on_c, 0, 74, 83
2, 92413, Note_on_c, 0, 57, 0
2, 92423, Note_on_c, 0, 57, 104
2, 92431, Note_on_c, 0, 76, 90
2, 92513, Note_on_c, 0, 78, 84
2, 92573, Note_on_c, 0, 38, 97
2, 92579, Note_on_c, 0, 80, 94
2, 92666, Note_on_c, 0, 57, 0
2, 92668, Note_on_c, 0, 81, 107
2, 92677, Note_on_c, 0, 57, 111
2, 92759, Note_on_c, 0, 80, 0
2, 92762, Note_on_c, 0, 80, 99
2, 92828, Note_on_c, 0, 78, 0
2, 92832, Note_on_c, 0, 78, 88
2, 92897, Note_on_c, 0, 76, 0
2, 92907, Note_on_c, 0, 76, 90
2, 92920, Note_on_c, 0, 57, 0
2, 92925, Note_on_c, 0, 57, 102
2, 92943, Note_on_c, 0, 69, 0
2, 92953, Note_on_c, 0, 69, 68
2, 92966, Note_on_c, 0, 78, 0
2, 92977, Note_on_c, 0, 78, 80
2, 93027, Note_on_c, 0, 78, 0
2, 93034, Note_on_c, 0, 78, 72
2, 93073, Note_on_c, 0, 76, 0
2, 93085, Note_on_c, 0, 76, 97
2, 93158, Note_on_c, 0, 74, 0
2, 93164, Note_on_c, 0, 74, 76
2, 93192, Note_on_c, 0, 61, 109
2, 93242, Note_on_c, 0, 73, 0
2, 93250, Note_on_c, 0, 73, 89
2, 93304, Note_on_c, 0, 71, 0
2, 93310, Note_on_c, 0, 71, 79
2, 93381, Note_on_c, 0, 69, 0
2, 93386, Note_on_c, 0, 69, 82
2, 93434, Note_on_c, 0, 71, 0
2, 93438, Note_on_c, 0, 59, 107
2, 93446, Note_on_c, 0, 71, 85
2, 93504, Note_on_c, 0, 73, 0
2, 93510, Note_on_c, 0, 73, 83
2, 93573, Note_on_c, 0, 74, 0
2, 93581, Note_on_c, 0, 74, 95
2, 93718, Note_on_c, 0, 52, 98
2, 93719, Note_on_c, 0, 57, 0
2, 93720, Note_on_c, 0, 40, 95
2, 93721, Note_on_c, 0, 38, 0
2, 93721, Note_on_c, 0, 71, 0
2, 93722, Note_on_c, 0, 69, 0
2, 93722, Note_on_c, 0, 59, 0
2, 93722, Note_on_c, 0, 73, 0
2, 93723, Note_on_c, 0, 74, 0
2, 93723, Note_on_c, 0, 61, 0
2, 93725, Control_c, 0, 64, 0
2, 93734, Note_on_c, 0, 33, 0
2, 93734, Note_on_c, 0, 80, 0
2, 93742, Note_on_c, 0, 45, 0
2, 93742, Note_on_c, 0, 62, 0
2, 93742, Note_on_c, 0, 66, 0
2, 93742, Note_on_c, 0, 81, 0
2, 93749, Note_on_c, 0, 64, 0
2, 93757, Note_on_c, 0, 78, 0
2, 93765, Note_on_c, 0, 68, 0
2, 93818, Note_on_c, 0, 76, 0
2, 93880, Control_c, 0, 64, 127
2, 93995, Note_on_c, 0, 71, 70
2, 94081, Note_on_c, 0, 76, 77
2, 94184, Note_on_c, 0, 81, 72
2, 94241, Note_on_c, 0, 83, 97
2, 94250, Note_on_c, 0, 69, 77
2, 94252, Note_on_c, 0, 64, 69
2, 94325, Note_on_c, 0, 81, 0
2, 94336, Note_on_c, 0, 81, 74
2, 94425, Note_on_c, 0, 76, 0
2, 94437, Note_on_c, 0, 76, 72
2, 94517, Note_on_c, 0, 71, 0
2, 94526, Note_on_c, 0, 71, 68
2, 94602, Note_on_c, 0, 76, 0
2, 94607, Note_on_c, 0, 76, 79
2, 94694, Note_on_c, 0, 81, 0
2, 94699, Note_on_c, 0, 81, 71
2, 94740, Note_on_c, 0, 69, 0
2, 94748, Note_on_c, 0, 83, 0
2, 94748, Note_on_c, 0, 69, 89
2, 94755, Note_on_c, 0, 64, 0
2, 94758, Note_on_c, 0, 83, 95
2, 94760, Note_on_c, 0, 64, 70
2, 94840, Note_on_c, 0, 81, 0
2, 94849, Note_on_c, 0, 81, 87
2, 94940, Note_on_c, 0, 76, 0
2, 94947, Note_on_c, 0, 76, 77
2, 95024, Note_on_c, 0, 71, 0
2, 95028, Note_on_c, 0, 71, 67
2, 95116, Note_on_c, 0, 76, 0
2, 95125, Note_on_c, 0, 76, 77
2, 95206, Note_on_c, 0, 80, 70
2, 95262, Note_on_c, 0, 81, 0
2, 95270, Note_on_c, 0, 69, 0
2, 95273, Note_on_c, 0, 81, 95
2, 95275, Note_on_c, 0, 69, 90
2, 95278, Note_on_c, 0, 64, 0
2, 95285, Note_on_c, 0, 64, 75
2, 95362, Note_on_c, 0, 76, 0
2, 95369, Note_on_c, 0, 76, 78
2, 95431, Note_on_c, 0, 71, 0
2, 95438, Note_on_c, 0, 71, 75
2, 95516, Note_on_c, 0, 83, 0
2, 95527, Note_on_c, 0, 83, 102
2, 95639, Note_on_c, 0, 71, 0
2, 95648, Note_on_c, 0, 71, 77
2, 95669, Note_on_c, 0, 76, 0
2, 95679, Note_on_c, 0, 76, 61
2, 95784, Note_on_c, 0, 42, 95
2, 95789, Note_on_c, 0, 81, 0
2, 95789, Note_on_c, 0, 69, 0
2, 95789, Note_on_c, 0, 52, 0
2, 95790, Note_on_c, 0, 80, 0
2, 95790, Note_on_c, 0, 64, 0
2, 95790, Note_on_c, 0, 83, 0
2, 95794, Control_c, 0, 64, 0
2, 95802, Note_on_c, 0, 85, 102
2, 95808, Note_on_c, 0, 71, 0
2, 95815, Note_on_c, 0, 40, 0
2, 95815, Note_on_c, 0, 76, 0
2, 95824, Note_on_c, 0, 73, 89
2, 95825, Note_on_c, 0, 76, 79
2, 95854, Control_c, 0, 64, 127
2, 96053, Note_on_c, 0, 73, 0
2, 96053, Note_on_c, 0, 76, 0
2, 96055, Note_on_c, 0, 81, 95
2, 96056, Note_on_c, 0, 69, 86
2, 96057, Note_on_c, 0, 73, 87
2, 96058, Note_on_c, 0, 76, 79
2, 96136, Control_c, 0, 64, 0
2, 96139, Note_on_c, 0, 64, 72
2, 96145, Control_c, 0, 64, 127
2, 96226, Note_on_c, 0, 61, 77
2, 96311, Note_on_c, 0, 57, 77
2, 96375, Note_on_c, 0, 52, 72
2, 96463, Note_on_c, 0, 49, 73
2, 96583, Note_on_c, 0, 69, 0
2, 96587, Note_on_c, 0, 78, 94
2, 96590, Note_on_c, 0, 38, 81
2, 96593, Note_on_c, 0, 69, 72
2, 96594, Note_on_c, 0, 66, 84
2, 96597, Control_c, 0, 64, 0
2, 96610, Note_on_c, 0, 64, 0
2, 96610, Note_on_c, 0, 57, 0
2, 96610, Note_on_c, 0, 76, 0
2, 96610, Note_on_c, 0, 61, 0
2, 96610, Note_on_c, 0, 81, 0
2, 96611, Note_on_c, 0, 73, 0
2, 96611, Note_on_c, 0, 85, 0
2, 96611, Note_on_c, 0, 49, 0
2, 96612, Note_on_c, 0, 52, 0
2, 96614, Note_on_c, 0, 42, 0
2, 96698, Control_c, 0, 64, 127
2, 96838, Note_on_c, 0, 45, 69
2, 96939, Note_on_c, 0, 50, 70
2, 97037, Note_on_c, 0, 52, 63
2, 97121, Note_on_c, 0, 54, 71
2, 97221, Note_on_c, 0, 50, 0
2, 97226, Note_on_c, 0, 50, 65
2, 97302, Note_on_c, 0, 57, 73
2, 97373, Note_on_c, 0, 62, 87
2, 97640, Note_on_c, 0, 61, 77
2, 97904, Note_on_c, 0, 52, 0
2, 97909, Control_c, 0, 64, 0
2, 97909, Note_on_c, 0, 40, 65
2, 97909, Note_on_c, 0, 52, 68
2, 97910, Note_on_c, 0, 45, 0
2, 97910, Note_on_c, 0, 59, 77
2, 97913, Note_on_c, 0, 38, 0
2, 97914, Note_on_c, 0, 66, 0
2, 97914, Note_on_c, 0, 50, 0
2, 97914, Note_on_c, 0, 57, 0
2, 97914, Note_on_c, 0, 62, 0
2, 97914, Note_on_c, 0, 61, 0
2, 97914, Note_on_c, 0, 54, 0
2, 97916, Note_on_c, 0, 78, 0
2, 97950, Note_on_c, 0, 69, 0
2, 98019, Control_c, 0, 64, 127
2, 98204, Note_on_c, 0, 71, 73
2, 98285, Note_on_c, 0, 76, 76
2, 98389, Note_on_c, 0, 81, 75
2, 98434, Note_on_c, 0, 59, 0
2, 98445, Note_on_c, 0, 69, 80
2, 98446, Note_on_c, 0, 59, 70
2, 98463, Note_on_c, 0, 83, 95
2, 98467, Note_on_c, 0, 64, 71
2, 98542, Note_on_c, 0, 81, 0
2, 98551, Note_on_c, 0, 81, 77
2, 98626, Note_on_c, 0, 76, 0
2, 98631, Note_on_c, 0, 76, 71
2, 98695, Note_on_c, 0, 71, 0
2, 98704, Note_on_c, 0, 71, 75
2, 98795, Note_on_c, 0, 76, 0
2, 98801, Note_on_c, 0, 76, 82
2, 98872, Note_on_c, 0, 81, 0
2, 98879, Note_on_c, 0, 81, 86
2, 98949, Note_on_c, 0, 83, 0
2, 98960, Note_on_c, 0, 83, 97
2, 98964, Note_on_c, 0, 69, 0
2, 98972, Note_on_c, 0, 59, 0
2, 98972, Note_on_c, 0, 64, 0
2, 98975, Note_on_c, 0, 69, 88
2, 98977, Note_on_c, 0, 59, 81
2, 98982, Note_on_c, 0, 64, 78
2, 99033, Note_on_c, 0, 81, 0
2, 99042, Note_on_c, 0, 81, 87
2, 99156, Note_on_c, 0, 76, 0
2, 99164, Note_on_c, 0, 76, 76
2, 99233, Note_on_c, 0, 71, 0
2, 99241, Note_on_c, 0, 71, 71
2, 99333, Note_on_c, 0, 76, 0
2, 99338, Note_on_c, 0, 76, 79
2, 99424, Note_on_c, 0, 80, 77
2, 99494, Note_on_c, 0, 69, 0
2, 99494, Note_on_c, 0, 81, 0
2, 99499, Note_on_c, 0, 81, 98
2, 99502, Note_on_c, 0, 69, 96
2, 99509, Note_on_c, 0, 59, 0
2, 99509, Note_on_c, 0, 64, 0
2, 99513, Note_on_c, 0, 59, 72
2, 99514, Note_on_c, 0, 64, 78
2, 99624, Note_on_c, 0, 76, 0
2, 99634, Note_on_c, 0, 76, 83
2, 99701, Note_on_c, 0, 71, 0
2, 99710, Note_on_c, 0, 71, 73
2, 99763, Note_on_c, 0, 80, 0
2, 99773, Note_on_c, 0, 80, 102
2, 99855, Note_on_c, 0, 76, 0
2, 99864, Note_on_c, 0, 76, 80
2, 100024, Note_on_c, 0, 81, 0
2, 100033, Note_on_c, 0, 47, 91
2, 100035, Note_on_c, 0, 81, 104
2, 100039, Note_on_c, 0, 69, 0
2, 100044, Note_on_c, 0, 69, 84
2, 100046, Note_on_c, 0, 74, 90
2, 100051, Note_on_c, 0, 78, 90
2, 100065, Note_on_c, 0, 52, 0
2, 100065, Note_on_c, 0, 64, 0
2, 100066, Note_on_c, 0, 59, 0
2, 100066, Note_on_c, 0, 80, 0
2, 100066, Note_on_c, 0, 71, 0
2, 100066, Note_on_c, 0, 76, 0
2, 100070, Note_on_c, 0, 40, 0
2, 100071, Control_c, 0, 64, 0
2, 100085, Note_on_c, 0, 83, 0
2, 100147, Control_c, 0, 64, 127
2, 100313, Note_on_c, 0, 54, 78
2, 100404, Note_on_c, 0, 57, 81
2, 100491, Note_on_c, 0, 59, 75
2, 100575, Note_on_c, 0, 80, 94
2, 100587, Note_on_c, 0, 61, 76
2, 100698, Note_on_c, 0, 62, 64
2, 100784, Note_on_c, 0, 61, 0
2, 100786, Note_on_c, 0, 66, 64
2, 100789, Note_on_c, 0, 61, 60
2, 100830, Note_on_c, 0, 78, 0
2, 100838, Note_on_c, 0, 74, 0
2, 100840, Note_on_c, 0, 78, 103
2, 100842, Note_on_c, 0, 74, 87
2, 100853, Note_on_c, 0, 69, 0
2, 100859, Note_on_c, 0, 69, 71
2, 101345, Note_on_c, 0, 47, 0
2, 101351, Note_on_c, 0, 47, 76
2, 101634, Note_on_c, 0, 57, 0
2, 101635, Control_c, 0, 64, 0
2, 101636, Note_on_c, 0, 69, 0
2, 101636, Note_on_c, 0, 54, 0
2, 101636, Note_on_c, 0, 62, 0
2, 101636, Note_on_c, 0, 78, 0
2, 101637, Note_on_c, 0, 80, 0
2, 101637, Note_on_c, 0, 66, 0
2, 101637, Note_on_c, 0, 59, 0
2, 101639, Note_on_c, 0, 49, 85
2, 101639, Note_on_c, 0, 47, 0
2, 101640, Note_on_c, 0, 61, 0
2, 101643, Note_on_c, 0, 83, 98
2, 101644, Note_on_c, 0, 80, 87
2, 101649, Note_on_c, 0, 71, 84
2, 101660, Note_on_c, 0, 81, 0
2, 101667, Note_on_c, 0, 74, 0
2, 101706, Control_c, 0, 64, 127
2, 101917, Note_on_c, 0, 81, 97
2, 101923, Note_on_c, 0, 69, 84
2, 101924, Note_on_c, 0, 76, 74
2, 101928, Note_on_c, 0, 73, 80
2, 102192, Note_on_c, 0, 50, 83
2, 102259, Note_on_c, 0, 83, 0
2, 102261, Note_on_c, 0, 49, 0
2, 102262, Note_on_c, 0, 80, 0
2, 102263, Note_on_c, 0, 71, 0
2, 102267, Control_c, 0, 64, 0
2, 102374, Control_c, 0, 64, 127
2, 102763, Note_on_c, 0, 57, 63
2, 103050, Note_on_c, 0, 69, 0
2, 103050, Note_on_c, 0, 73, 0
2, 103050, Note_on_c, 0, 76, 0
2, 103051, Note_on_c, 0, 64, 48
2, 103054, Note_on_c, 0, 76, 47
2, 103055, Note_on_c, 0, 69, 51
2, 103055, Note_on_c, 0, 73, 50
2, 104517, Note_on_c, 0, 50, 0
2, 104520, Note_on_c, 0, 76, 0
2, 104521, Note_on_c, 0, 73, 0
2, 104528, Note_on_c, 0, 69, 0
2, 104547, Control_c, 0, 64, 0
2, 104555, Note_on_c, 0, 64, 0
2, 104563, Note_on_c, 0, 57, 0
2, 104570, Note_on_c, 0, 81, 0
2, 104735, Note_on_c, 0, 76, 36
2, 104736, Note_on_c, 0, 73, 41
2, 104736, Note_on_c, 0, 69, 36
2, 104740, Note_on_c, 0, 66, 31
2, 104977, Control_c, 0, 64, 127
2, 105034, Note_on_c, 0, 88, 65
2, 105298, Note_on_c, 0, 92, 69
2, 105569, Note_on_c, 0, 69, 0
2, 105573, Note_on_c, 0, 93, 67
2, 105573, Note_on_c, 0, 69, 45
2, 105576, Note_on_c, 0, 76, 0
2, 105587, Note_on_c, 0, 76, 43
2, 105599, Note_on_c, 0, 62, 28
2, 105600, Note_on_c, 0, 66, 0
2, 105602, Control_c, 0, 64, 0
2, 105603, Note_on_c, 0, 73, 0
2, 105604, Note_on_c, 0, 66, 34
2, 105845, Control_c, 0, 64, 127
2, 106101, Note_on_c, 0, 80, 58
2, 106375, Note_on_c, 0, 66, 0
2, 106375, Note_on_c, 0, 69, 0
2, 106379, Note_on_c, 0, 78, 63
2, 106380, Note_on_c, 0, 69, 51
2, 106385, Note_on_c, 0, 66, 49
2, 106652, Note_on_c, 0, 76, 0
2, 106659, Note_on_c, 0, 76, 71
2, 106867, Note_on_c, 0, 88, 0
2, 106890, Note_on_c, 0, 93, 0
2, 106944, Note_on_c, 0, 62, 0
2, 106944, Note_on_c, 0, 69, 0
2, 106947, Note_on_c, 0, 71, 53
2, 106947, Note_on_c, 0, 64, 52
2, 106949, Note_on_c, 0, 69, 45
2, 106974, Note_on_c, 0, 66, 0
2, 106990, Note_on_c, 0, 78, 0
2, 106990, Control_c, 0, 64, 0
2, 107005, Note_on_c, 0, 92, 0
2, 107020, Note_on_c, 0, 80, 0
2, 107182, Control_c, 0, 64, 127
2, 107208, Note_on_c, 0, 83, 70
2, 107210, Note_on_c, 0, 80, 63
2, 107470, Note_on_c, 0, 86, 85
2, 107750, Note_on_c, 0, 69, 0
2, 107754, Note_on_c, 0, 85, 77
2, 107754, Note_on_c, 0, 81, 64
2, 107755, Note_on_c, 0, 80, 0
2, 107757, Control_c, 0, 64, 0
2, 107758, Note_on_c, 0, 83, 0
2, 107759, Note_on_c, 0, 73, 52
2, 107759, Note_on_c, 0, 69, 52
2, 107760, Note_on_c, 0, 76, 0
2, 107761, Note_on_c, 0, 71, 0
2, 107793, Note_on_c, 0, 76, 26
2, 107888, Control_c, 0, 64, 127
2, 107904, Note_on_c, 0, 86, 0
2, 108288, Note_on_c, 0, 73, 0
2, 108296, Note_on_c, 0, 73, 68
2, 108596, Note_on_c, 0, 71, 67
2, 108598, Note_on_c, 0, 68, 62
2, 108614, Note_on_c, 0, 85, 0
2, 108614, Note_on_c, 0, 81, 0
2, 108614, Note_on_c, 0, 76, 0
2, 108615, Note_on_c, 0, 73, 0
2, 108620, Control_c, 0, 64, 0
2, 108625, Note_on_c, 0, 64, 0
2, 108641, Note_on_c, 0, 69, 0
2, 108695, Control_c, 0, 64, 127
2, 108871, Note_on_c, 0, 74, 73
2, 109130, Note_on_c, 0, 73, 70
2, 109133, Control_c, 0, 64, 0
2, 109137, Note_on_c, 0, 69, 59
2, 109149, Note_on_c, 0, 66, 60
2, 109165, Note_on_c, 0, 68, 0
2, 109178, Note_on_c, 0, 71, 0
2, 109217, Note_on_c, 0, 74, 0
2, 109232, Control_c, 0, 64, 127
2, 109414, Note_on_c, 0, 85, 82
2, 109416, Note_on_c, 0, 81, 78
2, 109655, Note_on_c, 0, 81, 0
2, 109666, Note_on_c, 0, 81, 80
2, 109666, Note_on_c, 0, 78, 73
2, 109865, Note_on_c, 0, 83, 73
2, 109865, Note_on_c, 0, 80, 69
2, 109923, Note_on_c, 0, 81, 0
2, 109923, Note_on_c, 0, 85, 0
2, 109929, Note_on_c, 0, 81, 74
2, 109931, Note_on_c, 0, 69, 0
2, 109933, Note_on_c, 0, 85, 87
2, 109939, Note_on_c, 0, 66, 0
2, 109943, Note_on_c, 0, 69, 70
2, 109946, Control_c, 0, 64, 0
2, 109949, Note_on_c, 0, 66, 63
2, 109950, Note_on_c, 0, 62, 56
2, 110054, Note_on_c, 0, 73, 0
2, 110077, Control_c, 0, 64, 127
2, 110208, Note_on_c, 0, 81, 0
2, 110208, Note_on_c, 0, 85, 0
2, 110212, Note_on_c, 0, 85, 85
2, 110215, Note_on_c, 0, 78, 0
2, 110218, Note_on_c, 0, 81, 79
2, 110464, Note_on_c, 0, 73, 81
2, 110730, Note_on_c, 0, 69, 0
2, 110737, Note_on_c, 0, 66, 0
2, 110741, Note_on_c, 0, 69, 72
2, 110747, Note_on_c, 0, 66, 69
2, 110753, Note_on_c, 0, 62, 0
2, 110761, Note_on_c, 0, 62, 53
2, 110924, Note_on_c, 0, 71, 68
2, 110999, Note_on_c, 0, 73, 0
2, 111009, Note_on_c, 0, 73, 87
2, 111267, Note_on_c, 0, 73, 0
2, 111275, Note_on_c, 0, 69, 0
2, 111275, Note_on_c, 0, 71, 0
2, 111277, Note_on_c, 0, 73, 80
2, 111280, Note_on_c, 0, 71, 70
2, 111284, Note_on_c, 0, 64, 64
2, 111285, Note_on_c, 0, 69, 70
2, 111298, Note_on_c, 0, 80, 0
2, 111303, Control_c, 0, 64, 0
2, 111303, Note_on_c, 0, 83, 0
2, 111306, Note_on_c, 0, 62, 0
2, 111307, Note_on_c, 0, 66, 0
2, 111307, Note_on_c, 0, 85, 0
2, 111307, Note_on_c, 0, 81, 0
2, 111548, Note_on_c, 0, 86, 85
2, 111582, Control_c, 0, 64, 127
2, 111672, Note_on_c, 0, 85, 89
2, 111948, Note_on_c, 0, 83, 82
2, 112068, Control_c, 0, 64, 0
2, 112069, Note_on_c, 0, 81, 82
2, 112072, Note_on_c, 0, 57, 74
2, 112074, Note_on_c, 0, 69, 0
2, 112074, Note_on_c, 0, 73, 0
2, 112078, Note_on_c, 0, 69, 61
2, 112078, Note_on_c, 0, 73, 69
2, 112093, Note_on_c, 0, 85, 0
2, 112098, Note_on_c, 0, 83, 0
2, 112099, Note_on_c, 0, 64, 0
2, 112112, Note_on_c, 0, 71, 0
2, 112112, Note_on_c, 0, 86, 0
2, 112296, Control_c, 0, 64, 127
2, 112484, Note_on_c, 0, 64, 58
2, 112604, Note_on_c, 0, 69, 0
2, 112608, Note_on_c, 0, 74, 81
2, 112609, Note_on_c, 0, 69, 68
2, 112880, Note_on_c, 0, 73, 0
2, 112884, Note_on_c, 0, 56, 64
2, 112884, Note_on_c, 0, 73, 78
2, 113149, Note_on_c, 0, 71, 78
2, 113410, Note_on_c, 0, 64, 0
2, 113418, Note_on_c, 0, 73, 0
2, 113420, Note_on_c, 0, 54, 65
2, 113421, Note_on_c, 0, 64, 75
2, 113425, Note_on_c, 0, 69, 0
2, 113428, Control_c, 0, 64, 0
2, 113429, Note_on_c, 0, 61, 73
2, 113429, Note_on_c, 0, 73, 73
2, 113434, Note_on_c, 0, 69, 69
2, 113438, Note_on_c, 0, 74, 0
2, 113438, Note_on_c, 0, 57, 0
2, 113439, Note_on_c, 0, 71, 0
2, 113439, Note_on_c, 0, 56, 0
2, 113441, Note_on_c, 0, 81, 0
2, 113541, Control_c, 0, 64, 127
2, 113687, Note_on_c, 0, 64, 0
2, 113687, Note_on_c, 0, 73, 0
2, 113693, Note_on_c, 0, 64, 73
2, 113697, Note_on_c, 0, 73, 68
2, 113710, Note_on_c, 0, 69, 0
2, 113715, Note_on_c, 0, 69, 61
2, 113951, Note_on_c, 0, 68, 84
2, 113963, Note_on_c, 0, 73, 0
2, 113968, Note_on_c, 0, 73, 72
2, 114224, Note_on_c, 0, 64, 0
2, 114224, Note_on_c, 0, 73, 0
2, 114231, Control_c, 0, 64, 0
2, 114232, Note_on_c, 0, 69, 0
2, 114233, Note_on_c, 0, 73, 75
2, 114235, Note_on_c, 0, 64, 78
2, 114236, Note_on_c, 0, 69, 75
2, 114238, Note_on_c, 0, 68, 0
2, 114239, Note_on_c, 0, 61, 0
2, 114240, Note_on_c, 0, 54, 0
2, 114244, Note_on_c, 0, 57, 73
2, 114248, Note_on_c, 0, 50, 71
2, 114251, Note_on_c, 0, 54, 70
2, 114408, Control_c, 0, 64, 127
2, 114493, Note_on_c, 0, 73, 0
2, 114504, Note_on_c, 0, 73, 68
2, 114746, Note_on_c, 0, 73, 0
2, 114751, Note_on_c, 0, 73, 78
2, 114751, Note_on_c, 0, 68, 85
2, 115008, Note_on_c, 0, 69, 0
2, 115015, Note_on_c, 0, 73, 0
2, 115018, Note_on_c, 0, 69, 69
2, 115019, Note_on_c, 0, 73, 80
2, 115020, Note_on_c, 0, 66, 85
2, 115023, Note_on_c, 0, 50, 0
2, 115023, Note_on_c, 0, 54, 0
2, 115023, Note_on_c, 0, 57, 0
2, 115027, Note_on_c, 0, 57, 84
2, 115028, Control_c, 0, 64, 0
2, 115032, Note_on_c, 0, 54, 76
2, 115033, Note_on_c, 0, 50, 74
2, 115061, Control_c, 0, 64, 127
2, 115299, Note_on_c, 0, 64, 0
2, 115303, Note_on_c, 0, 74, 82
2, 115304, Note_on_c, 0, 64, 82
2, 115542, Note_on_c, 0, 73, 0
2, 115543, Note_on_c, 0, 54, 0
2, 115544, Note_on_c, 0, 66, 0
2, 115545, Note_on_c, 0, 57, 0
2, 115546, Note_on_c, 0, 74, 0
2, 115546, Note_on_c, 0, 50, 0
2, 115546, Note_on_c, 0, 69, 0
2, 115548, Note_on_c, 0, 64, 0
2, 115555, Note_on_c, 0, 76, 82
2, 115556, Control_c, 0, 64, 0
2, 115560, Note_on_c, 0, 68, 0
2, 115569, Note_on_c, 0, 59, 75
2, 115571, Note_on_c, 0, 52, 69
2, 115571, Note_on_c, 0, 68, 75
2, 115572, Note_on_c, 0, 56, 68
2, 115573, Note_on_c, 0, 71, 65
2, 115630, Control_c, 0, 64, 127
2, 115829, Note_on_c, 0, 76, 0
2, 115833, Note_on_c, 0, 64, 90
2, 115837, Note_on_c, 0, 76, 83
2, 116083, Note_on_c, 0, 71, 0
2, 116083, Note_on_c, 0, 76, 0
2, 116089, Note_on_c, 0, 76, 89
2, 116091, Note_on_c, 0, 71, 99
2, 116357, Note_on_c, 0, 68, 0
2, 116358, Note_on_c, 0, 71, 0
2, 116359, Note_on_c, 0, 52, 0
2, 116359, Note_on_c, 0, 76, 0
2, 116360, Note_on_c, 0, 56, 0
2, 116362, Note_on_c, 0, 59, 0
2, 116366, Control_c, 0, 64, 0
2, 116367, Note_on_c, 0, 64, 0
2, 116370, Note_on_c, 0, 69, 99
2, 116371, Note_on_c, 0, 76, 92
2, 116371, Note_on_c, 0, 73, 92
2, 116374, Note_on_c, 0, 57, 96
2, 116374, Note_on_c, 0, 64, 92
2, 116544, Control_c, 0, 64, 127
2, 116620, Note_on_c, 0, 76, 0
2, 116630, Note_on_c, 0, 76, 97
2, 116904, Note_on_c, 0, 76, 0
2, 116914, Note_on_c, 0, 68, 102
2, 116915, Note_on_c, 0, 76, 93
2, 117173, Note_on_c, 0, 64, 0
2, 117173, Note_on_c, 0, 76, 0
2, 117176, Control_c, 0, 64, 0
2, 117181, Note_on_c, 0, 80, 95
2, 117183, Note_on_c, 0, 64, 97
2, 117184, Note_on_c, 0, 76, 82
2, 117184, Note_on_c, 0, 71, 84
2, 117185, Note_on_c, 0, 56, 84
2, 117189, Note_on_c, 0, 57, 0
2, 117190, Note_on_c, 0, 73, 0
2, 117192, Note_on_c, 0, 69, 0
2, 117258, Control_c, 0, 64, 127
2, 117434, Note_on_c, 0, 76, 0
2, 117434, Note_on_c, 0, 80, 0
2, 117439, Note_on_c, 0, 80, 97
2, 117441, Note_on_c, 0, 76, 61
2, 117670, Control_c, 0, 64, 0
2, 117675, Note_on_c, 0, 71, 0
2, 117681, Note_on_c, 0, 80, 0
2, 117692, Note_on_c, 0, 56, 0
2, 117703, Note_on_c, 0, 68, 0
2, 117710, Note_on_c, 0, 81, 96
2, 117711, Note_on_c, 0, 64, 0
2, 117711, Note_on_c, 0, 76, 0
2, 117712, Note_on_c, 0, 54, 88
2, 117715, Note_on_c, 0, 61, 90
2, 117715, Note_on_c, 0, 73, 84
2, 117715, Note_on_c, 0, 76, 83
2, 117716, Note_on_c, 0, 57, 93
2, 117803, Control_c, 0, 64, 127
2, 117964, Note_on_c, 0, 61, 0
2, 117972, Note_on_c, 0, 81, 0
2, 117976, Note_on_c, 0, 61, 91
2, 117980, Note_on_c, 0, 73, 0
2, 117980, Note_on_c, 0, 76, 0
2, 117981, Note_on_c, 0, 81, 94
2, 117984, Note_on_c, 0, 73, 85
2, 117984, Note_on_c, 0, 69, 85
2, 117985, Note_on_c, 0, 76, 79
2, 118233, Note_on_c, 0, 57, 0
2, 118237, Note_on_c, 0, 57, 99
2, 118241, Note_on_c, 0, 69, 0
2, 118241, Note_on_c, 0, 73, 0
2, 118241, Note_on_c, 0, 76, 0
2, 118241, Note_on_c, 0, 81, 0
2, 118246, Note_on_c, 0, 81, 94
2, 118250, Note_on_c, 0, 76, 70
2, 118251, Note_on_c, 0, 69, 80
2, 118252, Note_on_c, 0, 73, 85
2, 118412, Note_on_c, 0, 59, 96
2, 118490, Note_on_c, 0, 59, 0
2, 118492, Control_c, 0, 64, 0
2, 118502, Note_on_c, 0, 54, 0
2, 118502, Note_on_c, 0, 57, 0
2, 118502, Note_on_c, 0, 81, 0
2, 118505, Note_on_c, 0, 50, 83
2, 118507, Note_on_c, 0, 54, 92
2, 118508, Note_on_c, 0, 57, 93
2, 118510, Note_on_c, 0, 61, 0
2, 118510, Note_on_c, 0, 69, 0
2, 118510, Note_on_c, 0, 76, 0
2, 118513, Note_on_c, 0, 81, 95
2, 118514, Note_on_c, 0, 61, 95
2, 118516, Note_on_c, 0, 69, 85
2, 118517, Note_on_c, 0, 76, 87
2, 118563, Control_c, 0, 64, 127
2, 118771, Note_on_c, 0, 81, 0
2, 118778, Note_on_c, 0, 61, 0
2, 118778, Note_on_c, 0, 69, 0
2, 118778, Note_on_c, 0, 73, 0
2, 118778, Note_on_c, 0, 76, 0
2, 118779, Note_on_c, 0, 81, 100
2, 118783, Note_on_c, 0, 69, 89
2, 118783, Note_on_c, 0, 73, 88
2, 118783, Note_on_c, 0, 61, 93
2, 118784, Note_on_c, 0, 76, 89
2, 119024, Note_on_c, 0, 57, 0
2, 119035, Note_on_c, 0, 57, 101
2, 119040, Note_on_c, 0, 69, 0
2, 119040, Note_on_c, 0, 81, 0
2, 119047, Note_on_c, 0, 73, 0
2, 119047, Note_on_c, 0, 76, 0
2, 119050, Note_on_c, 0, 81, 98
2, 119051, Note_on_c, 0, 69, 91
2, 119055, Note_on_c, 0, 76, 88
2, 119056, Note_on_c, 0, 73, 84
2, 119194, Note_on_c, 0, 59, 96
2, 119285, Note_on_c, 0, 50, 0
2, 119285, Note_on_c, 0, 61, 0
2, 119285, Note_on_c, 0, 73, 0
2, 119293, Note_on_c, 0, 54, 0
2, 119293, Note_on_c, 0, 57, 0
2, 119293, Note_on_c, 0, 76, 0
2, 119296, Note_on_c, 0, 50, 82
2, 119297, Note_on_c, 0, 73, 96
2, 119297, Note_on_c, 0, 61, 101
2, 119297, Note_on_c, 0, 85, 98
2, 119297, Note_on_c, 0, 54, 85
2, 119297, Note_on_c, 0, 57, 92
2, 119301, Note_on_c, 0, 76, 88
2, 119562, Note_on_c, 0, 73, 0
2, 119562, Note_on_c, 0, 85, 0
2, 119566, Note_on_c, 0, 85, 99
2, 119569, Note_on_c, 0, 76, 0
2, 119571, Note_on_c, 0, 73, 95
2, 119572, Note_on_c, 0, 62, 99
2, 119574, Note_on_c, 0, 76, 81
2, 119796, Note_on_c, 0, 59, 0
2, 119800, Note_on_c, 0, 73, 0
2, 119800, Note_on_c, 0, 57, 0
2, 119801, Note_on_c, 0, 54, 0
2, 119802, Note_on_c, 0, 81, 0
2, 119804, Control_c, 0, 64, 0
2, 119804, Note_on_c, 0, 62, 0
2, 119815, Note_on_c, 0, 61, 0
2, 119815, Note_on_c, 0, 76, 0
2, 119819, Note_on_c, 0, 88, 105
2, 119820, Note_on_c, 0, 80, 102
2, 119820, Note_on_c, 0, 52, 91
2, 119820, Note_on_c, 0, 56, 96
2, 119821, Note_on_c, 0, 61, 100
2, 119822, Note_on_c, 0, 83, 91
2, 119823, Note_on_c, 0, 50, 0
2, 119823, Note_on_c, 0, 69, 0
2, 119823, Note_on_c, 0, 76, 99
2, 119884, Control_c, 0, 64, 127
2, 120088, Note_on_c, 0, 59, 100
2, 120092, Note_on_c, 0, 76, 0
2, 120092, Note_on_c, 0, 83, 0
2, 120092, Note_on_c, 0, 85, 0
2, 120092, Note_on_c, 0, 88, 0
2, 120097, Note_on_c, 0, 88, 100
2, 120099, Note_on_c, 0, 80, 0
2, 120102, Note_on_c, 0, 76, 95
2, 120102, Note_on_c, 0, 83, 81
2, 120103, Note_on_c, 0, 80, 92
2, 120212, Note_on_c, 0, 57, 107
2, 120353, Note_on_c, 0, 88, 0
2, 120360, Note_on_c, 0, 76, 0
2, 120360, Note_on_c, 0, 80, 0
2, 120360, Note_on_c, 0, 83, 0
2, 120362, Note_on_c, 0, 88, 104
2, 120364, Note_on_c, 0, 76, 100
2, 120365, Note_on_c, 0, 80, 86
2, 120365, Note_on_c, 0, 83, 84
2, 120468, Note_on_c, 0, 56, 0
2, 120472, Note_on_c, 0, 56, 97
2, 120594, Note_on_c, 0, 61, 0
2, 120594, Note_on_c, 0, 80, 0
2, 120594, Note_on_c, 0, 52, 0
2, 120594, Control_c, 0, 64, 0
2, 120595, Note_on_c, 0, 56, 0
2, 120595, Note_on_c, 0, 83, 0
2, 120596, Note_on_c, 0, 59, 0
2, 120606, Note_on_c, 0, 57, 0
2, 120606, Note_on_c, 0, 76, 0
2, 120606, Note_on_c, 0, 88, 0
2, 120613, Note_on_c, 0, 57, 106
2, 120616, Note_on_c, 0, 88, 100
2, 120617, Note_on_c, 0, 45, 102
2, 120617, Note_on_c, 0, 76, 105
2, 120618, Note_on_c, 0, 85, 94
2, 120619, Note_on_c, 0, 81, 90
2, 120683, Control_c, 0, 64, 127
2, 120867, Note_on_c, 0, 76, 0
2, 120867, Note_on_c, 0, 81, 0
2, 120867, Note_on_c, 0, 85, 0
2, 120867, Note_on_c, 0, 88, 0
2, 120876, Note_on_c, 0, 88, 104
2, 120877, Note_on_c, 0, 85, 104
2, 120877, Note_on_c, 0, 76, 104
2, 120878, Note_on_c, 0, 81, 97
2, 121128, Note_on_c, 0, 88, 0
2, 121136, Note_on_c, 0, 76, 0
2, 121136, Note_on_c, 0, 85, 0
2, 121137, Note_on_c, 0, 88, 104
2, 121140, Note_on_c, 0, 52, 92
2, 121140, Note_on_c, 0, 76, 103
2, 121141, Note_on_c, 0, 85, 100
2, 121379, Note_on_c, 0, 59, 106
2, 121382, Note_on_c, 0, 52, 0
2, 121386, Note_on_c, 0, 44, 93
2, 121387, Note_on_c, 0, 92, 112
2, 121388, Note_on_c, 0, 52, 84
2, 121389, Note_on_c, 0, 56, 92
2, 121390, Note_on_c, 0, 80, 109
2, 121391, Note_on_c, 0, 83, 101
2, 121643, Note_on_c, 0, 80, 0
2, 121643, Note_on_c, 0, 92, 0
2, 121651, Note_on_c, 0, 83, 0
2, 121654, Note_on_c, 0, 80, 109
2, 121654, Note_on_c, 0, 92, 109
2, 121655, Note_on_c, 0, 83, 101
2, 121904, Note_on_c, 0, 45, 0
2, 121904, Note_on_c, 0, 52, 0
2, 121904, Note_on_c, 0, 57, 0
2, 121904, Note_on_c, 0, 81, 0
2, 121904, Note_on_c, 0, 85, 0
2, 121904, Note_on_c, 0, 88, 0
2, 121907, Note_on_c, 0, 93, 114
2, 121908, Note_on_c, 0, 57, 106
2, 121908, Note_on_c, 0, 81, 109
2, 121909, Note_on_c, 0, 88, 100
2, 121910, Note_on_c, 0, 45, 95
2, 121910, Note_on_c, 0, 52, 97
2, 121911, Note_on_c, 0, 85, 105
2, 121914, Note_on_c, 0, 42, 102
2, 122115, Note_on_c, 0, 56, 0
2, 122116, Note_on_c, 0, 57, 0
2, 122116, Note_on_c, 0, 81, 0
2, 122116, Note_on_c, 0, 93, 0
2, 122116, Note_on_c, 0, 44, 0
2, 122116, Note_on_c, 0, 52, 0
2, 122116, Note_on_c, 0, 83, 0
2, 122116, Note_on_c, 0, 59, 0
2, 122116, Note_on_c, 0, 42, 0
2, 122116, Note_on_c, 0, 45, 0
2, 122117, Note_on_c, 0, 85, 0
2, 122123, Control_c, 0, 64, 0
2, 122135, Note_on_c, 0, 76, 0
2, 122135, Note_on_c, 0, 80, 0
2, 122135, Note_on_c, 0, 88, 0
2, 122135, Note_on_c, 0, 92, 0
2, 122179, Note_on_c, 0, 73, 107
2, 122181, Note_on_c, 0, 61, 104
2, 122223, Note_on_c, 0, 61, 0
2, 122227, Note_on_c, 0, 73, 0
2, 122458, Note_on_c, 0, 73, 109
2, 122460, Note_on_c, 0, 61, 101
2, 122496, Control_c, 0, 64, 127
2, 122706, Note_on_c, 0, 74, 109
2, 122711, Note_on_c, 0, 62, 103
2, 122711, Note_on_c, 0, 54, 99
2, 122713, Note_on_c, 0, 42, 99
2, 122830, Note_on_c, 0, 54, 0
2, 122831, Note_on_c, 0, 73, 0
2, 122831, Note_on_c, 0, 42, 0
2, 122833, Note_on_c, 0, 74, 0
2, 122833, Control_c, 0, 64, 0
2, 122833, Note_on_c, 0, 62, 0
2, 122841, Note_on_c, 0, 61, 0
2, 122961, Note_on_c, 0, 76, 105
2, 122962, Note_on_c, 0, 64, 105
2, 122962, Note_on_c, 0, 68, 104
2, 122963, Note_on_c, 0, 71, 93
2, 122967, Note_on_c, 0, 52, 105
2, 122967, Note_on_c, 0, 40, 99
2, 122995, Control_c, 0, 64, 127
2, 123191, Note_on_c, 0, 68, 0
2, 123192, Note_on_c, 0, 71, 0
2, 123194, Note_on_c, 0, 64, 0
2, 123196, Note_on_c, 0, 76, 0
2, 123196, Note_on_c, 0, 40, 0
2, 123199, Control_c, 0, 64, 0
2, 123202, Note_on_c, 0, 52, 0
2, 123368, Note_on_c, 0, 83, 105
2, 123372, Note_on_c, 0, 71, 104
2, 123372, Note_on_c, 0, 80, 99
2, 123374, Note_on_c, 0, 76, 101
2, 123375, Note_on_c, 0, 52, 102
2, 123377, Note_on_c, 0, 40, 93
2, 123409, Control_c, 0, 64, 127
2, 123627, Note_on_c, 0, 40, 0
2, 123629, Note_on_c, 0, 76, 0
2, 123629, Note_on_c, 0, 80, 0
2, 123630, Note_on_c, 0, 83, 0
2, 123630, Note_on_c, 0, 71, 0
2, 123632, Note_on_c, 0, 52, 0
2, 123643, Control_c, 0, 64, 0
2, 123773, Note_on_c, 0, 47, 105
2, 123774, Note_on_c, 0, 35, 95
2, 123774, Note_on_c, 0, 81, 108
2, 123775, Note_on_c, 0, 73, 103
2, 123775, Note_on_c, 0, 69, 102
2, 123775, Note_on_c, 0, 76, 101
2, 123816, Control_c, 0, 64, 127
2, 124275, Note_on_c, 0, 93, 109
2, 124277, Note_on_c, 0, 47, 0
2, 124282, Note_on_c, 0, 57, 101
2, 124287, Note_on_c, 0, 47, 95
2, 124290, Note_on_c, 0, 54, 88
2, 124362, Note_on_c, 0, 73, 0
2, 124371, Note_on_c, 0, 92, 97
2, 124446, Note_on_c, 0, 93, 0
2, 124455, Note_on_c, 0, 93, 84
2, 124457, Note_on_c, 0, 88, 98
2, 124603, Note_on_c, 0, 80, 92
2, 124677, Note_on_c, 0, 76, 0
2, 124684, Note_on_c, 0, 76, 85
2, 124792, Note_on_c, 0, 69, 0
2, 124792, Note_on_c, 0, 81, 0
2, 124796, Note_on_c, 0, 81, 103
2, 124802, Note_on_c, 0, 69, 95
2, 124805, Note_on_c, 0, 59, 79
2, 124806, Note_on_c, 0, 66, 93
2, 124876, Note_on_c, 0, 80, 0
2, 124881, Note_on_c, 0, 80, 88
2, 124953, Note_on_c, 0, 76, 0
2, 124962, Note_on_c, 0, 76, 85
2, 125041, Note_on_c, 0, 71, 71
2, 125135, Note_on_c, 0, 68, 75
2, 125222, Note_on_c, 0, 64, 68
2, 125322, Note_on_c, 0, 69, 0
2, 125328, Note_on_c, 0, 69, 98
2, 125329, Note_on_c, 0, 57, 0
2, 125337, Note_on_c, 0, 47, 0
2, 125337, Note_on_c, 0, 54, 0
2, 125341, Note_on_c, 0, 57, 92
2, 125347, Note_on_c, 0, 47, 72
2, 125348, Note_on_c, 0, 54, 80
2, 125406, Note_on_c, 0, 68, 0
2, 125418, Note_on_c, 0, 68, 80
2, 125491, Note_on_c, 0, 64, 0
2, 125496, Note_on_c, 0, 64, 60
2, 125560, Note_on_c, 0, 59, 0
2, 125564, Note_on_c, 0, 59, 67
2, 125649, Note_on_c, 0, 56, 67
2, 125736, Note_on_c, 0, 52, 69
2, 125813, Note_on_c, 0, 57, 0
2, 125824, Note_on_c, 0, 57, 81
2, 125913, Note_on_c, 0, 47, 0
2, 125913, Note_on_c, 0, 52, 0
2, 125913, Note_on_c, 0, 56, 0
2, 125920, Note_on_c, 0, 47, 75
2, 125920, Note_on_c, 0, 56, 79
2, 125924, Note_on_c, 0, 52, 56
2, 126021, Note_on_c, 0, 52, 0
2, 126031, Note_on_c, 0, 52, 58
2, 126128, Note_on_c, 0, 35, 0
2, 126138, Note_on_c, 0, 35, 68
2, 126973, Note_on_c, 0, 35, 0
2, 126977, Note_on_c, 0, 35, 71
2, 127042, Note_on_c, 0, 47, 0
2, 127048, Note_on_c, 0, 47, 78
2, 127088, Note_on_c, 0, 35, 0
2, 127099, Note_on_c, 0, 35, 73
2, 127157, Note_on_c, 0, 47, 0
2, 127164, Note_on_c, 0, 47, 84
2, 127211, Note_on_c, 0, 35, 0
2, 127221, Note_on_c, 0, 35, 75
2, 127272, Note_on_c, 0, 47, 0
2, 127276, Note_on_c, 0, 47, 72
2, 127334, Note_on_c, 0, 35, 0
2, 127344, Note_on_c, 0, 35, 76
2, 127395, Note_on_c, 0, 47, 0
2, 127404, Note_on_c, 0, 47, 93
2, 127457, Note_on_c, 0, 35, 0
2, 127462, Note_on_c, 0, 35, 83
2, 127488, Note_on_c, 0, 47, 0
2, 127497, Note_on_c, 0, 47, 91
2, 127595, Note_on_c, 0, 35, 0
2, 127595, Note_on_c, 0, 47, 0
2, 127595, Note_on_c, 0, 69, 0
2, 127602, Note_on_c, 0, 35, 86
2, 127605, Note_on_c, 0, 69, 107
2, 127606, Note_on_c, 0, 47, 94
2, 127687, Note_on_c, 0, 69, 0
2, 127692, Note_on_c, 0, 69, 104
2, 127841, Note_on_c, 0, 69, 0
2, 127851, Note_on_c, 0, 69, 104
2, 127941, Note_on_c, 0, 69, 0
2, 127950, Note_on_c, 0, 49, 105
2, 127950, Note_on_c, 0, 69, 104
2, 127951, Note_on_c, 0, 37, 98
2, 128087, Note_on_c, 0, 49, 0
2, 128087, Note_on_c, 0, 69, 0
2, 128092, Note_on_c, 0, 69, 104
2, 128093, Note_on_c, 0, 49, 72
2, 128171, Control_c, 0, 64, 0
2, 128175, Note_on_c, 0, 80, 0
2, 128175, Note_on_c, 0, 71, 0
2, 128175, Note_on_c, 0, 81, 0
2, 128175, Note_on_c, 0, 35, 0
2, 128175, Note_on_c, 0, 52, 0
2, 128175, Note_on_c, 0, 59, 0
2, 128175, Note_on_c, 0, 57, 0
2, 128175, Note_on_c, 0, 88, 0
2, 128175, Note_on_c, 0, 54, 0
2, 128176, Note_on_c, 0, 64, 0
2, 128176, Note_on_c, 0, 92, 0
2, 128176, Note_on_c, 0, 69, 0
2, 128176, Note_on_c, 0, 37, 0
2, 128176, Note_on_c, 0, 93, 0
2, 128186, Note_on_c, 0, 49, 0
2, 128186, Note_on_c, 0, 66, 0
2, 128194, Note_on_c, 0, 47, 0
2, 128194, Note_on_c, 0, 56, 0
2, 128194, Note_on_c, 0, 68, 0
2, 128194, Note_on_c, 0, 76, 0
2, 128219, Note_on_c, 0, 50, 106
2, 128220, Note_on_c, 0, 38, 98
2, 128222, Note_on_c, 0, 45, 97
2, 128248, Control_c, 0, 64, 127
2, 128364, Note_on_c, 0, 69, 104
2, 128365, Note_on_c, 0, 64, 94
2, 128366, Note_on_c, 0, 57, 92
2, 128366, Note_on_c, 0, 38, 0
2, 128368, Note_on_c, 0, 45, 0
2, 128368, Control_c, 0, 64, 0
2, 128370, Note_on_c, 0, 50, 0
2, 128398, Note_on_c, 0, 69, 0
2, 128405, Note_on_c, 0, 64, 0
2, 128412, Note_on_c, 0, 57, 0
2, 128459, Note_on_c, 0, 69, 106
2, 128460, Note_on_c, 0, 64, 99
2, 128461, Note_on_c, 0, 66, 92
2, 128503, Note_on_c, 0, 64, 0
2, 128503, Note_on_c, 0, 66, 0
2, 128505, Note_on_c, 0, 69, 0
2, 128628, Note_on_c, 0, 69, 100
2, 128632, Note_on_c, 0, 64, 97
2, 128659, Note_on_c, 0, 69, 0
2, 128660, Note_on_c, 0, 64, 0
2, 128714, Note_on_c, 0, 69, 105
2, 128715, Note_on_c, 0, 64, 103
2, 128717, Note_on_c, 0, 66, 103
2, 128724, Control_c, 0, 64, 127
2, 128980, Note_on_c, 0, 50, 104
2, 128981, Note_on_c, 0, 71, 105
2, 128981, Note_on_c, 0, 45, 94
2, 128982, Note_on_c, 0, 38, 100
2, 128997, Note_on_c, 0, 66, 0
2, 129002, Note_on_c, 0, 64, 0
2, 129002, Note_on_c, 0, 69, 0
2, 129022, Control_c, 0, 64, 0
2, 129054, Note_on_c, 0, 50, 0
2, 129077, Note_on_c, 0, 38, 0
2, 129085, Note_on_c, 0, 45, 0
2, 129116, Note_on_c, 0, 71, 0
2, 129262, Note_on_c, 0, 69, 107
2, 129264, Note_on_c, 0, 59, 104
2, 129265, Note_on_c, 0, 49, 98
2, 129265, Note_on_c, 0, 37, 98
2, 129267, Note_on_c, 0, 64, 98
2, 129466, Note_on_c, 0, 49, 0
2, 129468, Note_on_c, 0, 37, 0
2, 129477, Note_on_c, 0, 59, 0
2, 129478, Note_on_c, 0, 64, 0
2, 129479, Note_on_c, 0, 69, 0
2, 129679, Note_on_c, 0, 69, 102
2, 129681, Note_on_c, 0, 64, 94
2, 129712, Note_on_c, 0, 64, 0
2, 129713, Note_on_c, 0, 69, 0
2, 129774, Note_on_c, 0, 64, 99
2, 129775, Note_on_c, 0, 69, 105
2, 129823, Note_on_c, 0, 64, 0
2, 129853, Note_on_c, 0, 69, 0
2, 129966, Note_on_c, 0, 69, 100
2, 129971, Note_on_c, 0, 64, 80
2, 130028, Note_on_c, 0, 49, 103
2, 130030, Note_on_c, 0, 64, 0
2, 130030, Note_on_c, 0, 69, 0
2, 130033, Note_on_c, 0, 37, 97
2, 130039, Note_on_c, 0, 64, 94
2, 130039, Note_on_c, 0, 69, 102
2, 130053, Control_c, 0, 64, 127
2, 130176, Note_on_c, 0, 69, 0
2, 130183, Note_on_c, 0, 69, 90
2, 130223, Control_c, 0, 64, 0
2, 130233, Note_on_c, 0, 49, 0
2, 130234, Note_on_c, 0, 37, 0
2, 130238, Note_on_c, 0, 64, 0
2, 130301, Note_on_c, 0, 71, 108
2, 130301, Note_on_c, 0, 42, 107
2, 130302, Note_on_c, 0, 30, 97
2, 130303, Note_on_c, 0, 64, 99
2, 130344, Control_c, 0, 64, 127
2, 130460, Note_on_c, 0, 69, 0
2, 130468, Note_on_c, 0, 69, 101
2, 130517, Control_c, 0, 64, 0
2, 130541, Note_on_c, 0, 42, 0
2, 130552, Note_on_c, 0, 30, 0
2, 130556, Note_on_c, 0, 69, 0
2, 130560, Note_on_c, 0, 64, 0
2, 130560, Note_on_c, 0, 71, 0
2, 130564, Note_on_c, 0, 71, 105
2, 130564, Note_on_c, 0, 64, 102
2, 130735, Note_on_c, 0, 69, 104
2, 130750, Note_on_c, 0, 71, 0
2, 130759, Note_on_c, 0, 64, 0
2, 130767, Control_c, 0, 64, 127
2, 130816, Note_on_c, 0, 71, 106
2, 130818, Note_on_c, 0, 64, 99
2, 130856, Note_on_c, 0, 69, 0
2, 130867, Control_c, 0, 64, 0
2, 130961, Note_on_c, 0, 69, 100
2, 130978, Note_on_c, 0, 64, 0
2, 130981, Note_on_c, 0, 71, 0
2, 131059, Control_c, 0, 64, 127
2, 131064, Note_on_c, 0, 73, 109
2, 131065, Note_on_c, 0, 42, 101
2, 131068, Note_on_c, 0, 64, 96
2, 131069, Note_on_c, 0, 30, 99
2, 131228, Note_on_c, 0, 30, 0
2, 131228, Note_on_c, 0, 64, 0
2, 131230, Note_on_c, 0, 73, 0
2, 131231, Note_on_c, 0, 42, 0
2, 131233, Control_c, 0, 64, 0
2, 131243, Note_on_c, 0, 69, 0
2, 131323, Note_on_c, 0, 71, 106
2, 131323, Note_on_c, 0, 59, 106
2, 131325, Note_on_c, 0, 32, 91
2, 131325, Note_on_c, 0, 64, 97
2, 131325, Note_on_c, 0, 44, 97
2, 131335, Control_c, 0, 64, 127
2, 131466, Note_on_c, 0, 32, 0
2, 131466, Note_on_c, 0, 44, 0
2, 131476, Note_on_c, 0, 44, 99
2, 131477, Note_on_c, 0, 32, 87
2, 131492, Control_c, 0, 64, 0
2, 131515, Note_on_c, 0, 59, 0
2, 131516, Note_on_c, 0, 44, 0
2, 131517, Note_on_c, 0, 64, 0
2, 131518, Note_on_c, 0, 71, 0
2, 131521, Note_on_c, 0, 32, 0
2, 131729, Note_on_c, 0, 81, 106
2, 131730, Note_on_c, 0, 69, 97
2, 131758, Note_on_c, 0, 69, 0
2, 131759, Note_on_c, 0, 81, 0
2, 131823, Note_on_c, 0, 45, 104
2, 131823, Note_on_c, 0, 86, 109
2, 131824, Note_on_c, 0, 33, 95
2, 131825, Note_on_c, 0, 74, 107
2, 131834, Control_c, 0, 64, 127
2, 132009, Note_on_c, 0, 85, 103
2, 132009, Note_on_c, 0, 73, 103
2, 132088, Note_on_c, 0, 45, 0
2, 132093, Note_on_c, 0, 52, 95
2, 132093, Note_on_c, 0, 45, 87
2, 132096, Note_on_c, 0, 49, 94
2, 132098, Note_on_c, 0, 57, 96
2, 132100, Note_on_c, 0, 83, 108
2, 132100, Note_on_c, 0, 71, 101
2, 132211, Note_on_c, 0, 57, 0
2, 132220, Note_on_c, 0, 81, 109
2, 132221, Note_on_c, 0, 57, 88
2, 132222, Note_on_c, 0, 69, 102
2, 132234, Note_on_c, 0, 49, 0
2, 132240, Note_on_c, 0, 49, 83
2, 132268, Note_on_c, 0, 33, 0
2, 132268, Note_on_c, 0, 52, 0
2, 132268, Note_on_c, 0, 45, 0
2, 132269, Note_on_c, 0, 73, 0
2, 132269, Note_on_c, 0, 85, 0
2, 132269, Control_c, 0, 64, 0
2, 132269, Note_on_c, 0, 74, 0
2, 132269, Note_on_c, 0, 86, 0
2, 132269, Note_on_c, 0, 83, 0
2, 132270, Note_on_c, 0, 71, 0
2, 132273, Note_on_c, 0, 57, 0
2, 132303, Note_on_c, 0, 49, 0
2, 132345, Note_on_c, 0, 50, 105
2, 132347, Note_on_c, 0, 38, 95
2, 132410, Control_c, 0, 64, 127
2, 132602, Note_on_c, 0, 69, 0
2, 132602, Note_on_c, 0, 81, 0
2, 132608, Note_on_c, 0, 81, 104
2, 132608, Note_on_c, 0, 69, 101
2, 132764, Note_on_c, 0, 50, 0
2, 132771, Note_on_c, 0, 81, 0
2, 132774, Note_on_c, 0, 50, 88
2, 132774, Note_on_c, 0, 54, 78
2, 132779, Note_on_c, 0, 54, 0
2, 132779, Note_on_c, 0, 69, 0
2, 132782, Note_on_c, 0, 81, 95
2, 132783, Note_on_c, 0, 69, 90
2, 132848, Note_on_c, 0, 81, 0
2, 132856, Note_on_c, 0, 69, 0
2, 132859, Note_on_c, 0, 81, 106
2, 132861, Note_on_c, 0, 69, 103
2, 132867, Note_on_c, 0, 62, 98
2, 132868, Note_on_c, 0, 74, 94
2, 132873, Note_on_c, 0, 57, 100
2, 132875, Note_on_c, 0, 54, 94
2, 133117, Note_on_c, 0, 50, 0
2, 133117, Note_on_c, 0, 81, 0
2, 133125, Note_on_c, 0, 38, 0
2, 133125, Note_on_c, 0, 69, 0
2, 133125, Note_on_c, 0, 74, 0
2, 133128, Note_on_c, 0, 81, 106
2, 133128, Note_on_c, 0, 50, 100
2, 133130, Note_on_c, 0, 38, 95
2, 133131, Note_on_c, 0, 69, 100
2, 133135, Note_on_c, 0, 74, 88
2, 133274, Note_on_c, 0, 38, 0
2, 133275, Control_c, 0, 64, 0
2, 133275, Note_on_c, 0, 57, 0
2, 133275, Note_on_c, 0, 54, 0
2, 133275, Note_on_c, 0, 62, 0
2, 133301, Note_on_c, 0, 50, 0
2, 133388, Note_on_c, 0, 49, 104
2, 133388, Note_on_c, 0, 37, 98
2, 133416, Control_c, 0, 64, 127
2, 133539, Note_on_c, 0, 69, 0
2, 133539, Note_on_c, 0, 81, 0
2, 133545, Note_on_c, 0, 69, 103
2, 133546, Note_on_c, 0, 81, 108
2, 133632, Note_on_c, 0, 69, 0
2, 133632, Note_on_c, 0, 81, 0
2, 133642, Note_on_c, 0, 69, 97
2, 133642, Note_on_c, 0, 81, 100
2, 133800, Note_on_c, 0, 49, 0
2, 133808, Note_on_c, 0, 69, 0
2, 133808, Note_on_c, 0, 81, 0
2, 133808, Note_on_c, 0, 49, 88
2, 133812, Note_on_c, 0, 81, 103
2, 133813, Note_on_c, 0, 69, 96
2, 133900, Note_on_c, 0, 74, 0
2, 133901, Note_on_c, 0, 59, 109
2, 133904, Note_on_c, 0, 56, 93
2, 133907, Note_on_c, 0, 52, 92
2, 133908, Note_on_c, 0, 86, 111
2, 133909, Note_on_c, 0, 74, 108
2, 134075, Note_on_c, 0, 73, 104
2, 134076, Note_on_c, 0, 85, 100
2, 134161, Note_on_c, 0, 37, 0
2, 134161, Note_on_c, 0, 49, 0
2, 134169, Note_on_c, 0, 49, 98
2, 134172, Note_on_c, 0, 37, 95
2, 134175, Note_on_c, 0, 83, 106
2, 134179, Note_on_c, 0, 71, 99
2, 134307, Note_on_c, 0, 69, 0
2, 134307, Note_on_c, 0, 81, 0
2, 134314, Note_on_c, 0, 81, 110
2, 134316, Note_on_c, 0, 69, 107
2, 134328, Note_on_c, 0, 86, 0
2, 134329, Note_on_c, 0, 56, 0
2, 134329, Note_on_c, 0, 74, 0
2, 134330, Note_on_c, 0, 59, 0
2, 134331, Note_on_c, 0, 37, 0
2, 134331, Note_on_c, 0, 85, 0
2, 134332, Note_on_c, 0, 49, 0
2, 134332, Note_on_c, 0, 83, 0
2, 134332, Note_on_c, 0, 73, 0
2, 134332, Note_on_c, 0, 71, 0
2, 134333, Control_c, 0, 64, 0
2, 134333, Note_on_c, 0, 52, 0
2, 134442, Note_on_c, 0, 42, 107
2, 134442, Note_on_c, 0, 30, 102
2, 134476, Control_c, 0, 64, 127
2, 134592, Note_on_c, 0, 69, 0
2, 134592, Note_on_c, 0, 81, 0
2, 134596, Note_on_c, 0, 69, 101
2, 134596, Note_on_c, 0, 81, 106
2, 134676, Note_on_c, 0, 69, 0
2, 134676, Note_on_c, 0, 81, 0
2, 134682, Note_on_c, 0, 69, 102
2, 134683, Note_on_c, 0, 81, 105
2, 134822, Note_on_c, 0, 42, 0
2, 134833, Note_on_c, 0, 42, 90
2, 134860, Note_on_c, 0, 69, 0
2, 134860, Note_on_c, 0, 81, 0
2, 134864, Note_on_c, 0, 81, 104
2, 134865, Note_on_c, 0, 69, 95
2, 134945, Note_on_c, 0, 69, 0
2, 134945, Note_on_c, 0, 81, 0
2, 134952, Note_on_c, 0, 57, 107
2, 134952, Note_on_c, 0, 81, 105
2, 134956, Note_on_c, 0, 69, 96
2, 134957, Note_on_c, 0, 49, 93
2, 134958, Note_on_c, 0, 52, 90
2, 135198, Note_on_c, 0, 42, 0
2, 135198, Note_on_c, 0, 69, 0
2, 135198, Note_on_c, 0, 81, 0
2, 135203, Note_on_c, 0, 81, 110
2, 135205, Note_on_c, 0, 42, 83
2, 135208, Note_on_c, 0, 69, 107
2, 135332, Note_on_c, 0, 71, 111
2, 135333, Note_on_c, 0, 83, 111
2, 135335, Note_on_c, 0, 76, 105
2, 135372, Note_on_c, 0, 42, 0
2, 135372, Note_on_c, 0, 30, 0
2, 135374, Note_on_c, 0, 52, 0
2, 135376, Note_on_c, 0, 49, 0
2, 135376, Note_on_c, 0, 81, 0
2, 135376, Note_on_c, 0, 69, 0
2, 135378, Note_on_c, 0, 57, 0
2, 135379, Control_c, 0, 64, 0
2, 135434, Note_on_c, 0, 32, 96
2, 135602, Note_on_c, 0, 81, 107
2, 135602, Note_on_c, 0, 69, 105
2, 135605, Control_c, 0, 64, 127
2, 135708, Note_on_c, 0, 85, 108
2, 135709, Note_on_c, 0, 73, 108
2, 135709, Note_on_c, 0, 44, 96
2, 135847, Note_on_c, 0, 44, 0
2, 135849, Note_on_c, 0, 32, 0
2, 135849, Control_c, 0, 64, 0
2, 135850, Note_on_c, 0, 76, 0
2, 135850, Note_on_c, 0, 73, 0
2, 135850, Note_on_c, 0, 33, 96
2, 135851, Note_on_c, 0, 85, 0
2, 135852, Note_on_c, 0, 81, 0
2, 135853, Note_on_c, 0, 69, 0
2, 135853, Note_on_c, 0, 83, 0
2, 135854, Note_on_c, 0, 71, 0
2, 135959, Note_on_c, 0, 33, 0
2, 135965, Note_on_c, 0, 45, 102
2, 135965, Note_on_c, 0, 83, 112
2, 135966, Control_c, 0, 64, 127
2, 135969, Note_on_c, 0, 71, 110
2, 135970, Note_on_c, 0, 33, 91
2, 135970, Note_on_c, 0, 76, 105
2, 135971, Note_on_c, 0, 80, 106
2, 136232, Note_on_c, 0, 57, 105
2, 136235, Note_on_c, 0, 52, 88
2, 136237, Note_on_c, 0, 49, 98
2, 136405, Control_c, 0, 64, 0
2, 136408, Note_on_c, 0, 80, 0
2, 136408, Note_on_c, 0, 83, 0
2, 136408, Note_on_c, 0, 71, 0
2, 136408, Note_on_c, 0, 57, 0
2, 136409, Note_on_c, 0, 76, 0
2, 136409, Note_on_c, 0, 52, 0
2, 136410, Note_on_c, 0, 45, 0
2, 136411, Note_on_c, 0, 49, 0
2, 136412, Note_on_c, 0, 33, 0
2, 136506, Note_on_c, 0, 50, 101
2, 136506, Note_on_c, 0, 73, 108
2, 136508, Note_on_c, 0, 38, 99
2, 136508, Note_on_c, 0, 64, 106
2, 136513, Note_on_c, 0, 66, 103
2, 136527, Control_c, 0, 64, 127
2, 136680, Note_on_c, 0, 73, 0
2, 136691, Note_on_c, 0, 66, 0
2, 136691, Control_c, 0, 64, 0
2, 136696, Note_on_c, 0, 50, 0
2, 136704, Note_on_c, 0, 64, 0
2, 136707, Note_on_c, 0, 76, 102
2, 136708, Note_on_c, 0, 64, 99
2, 136711, Note_on_c, 0, 38, 0
2, 136736, Note_on_c, 0, 76, 0
2, 136757, Note_on_c, 0, 64, 0
2, 136880, Note_on_c, 0, 76, 106
2, 136884, Note_on_c, 0, 64, 98
2, 136885, Note_on_c, 0, 50, 91
2, 136911, Control_c, 0, 64, 127
2, 136919, Note_on_c, 0, 64, 0
2, 136965, Note_on_c, 0, 76, 0
2, 137022, Note_on_c, 0, 61, 102
2, 137029, Note_on_c, 0, 57, 100
2, 137029, Note_on_c, 0, 76, 103
2, 137032, Note_on_c, 0, 54, 98
2, 137036, Note_on_c, 0, 64, 100
2, 137186, Note_on_c, 0, 54, 0
2, 137187, Note_on_c, 0, 61, 0
2, 137189, Note_on_c, 0, 57, 0
2, 137189, Note_on_c, 0, 76, 0
2, 137192, Control_c, 0, 64, 0
2, 137195, Note_on_c, 0, 50, 0
2, 137195, Note_on_c, 0, 64, 0
2, 137200, Note_on_c, 0, 73, 106
2, 137206, Note_on_c, 0, 64, 98
2, 137206, Note_on_c, 0, 50, 97
2, 137209, Note_on_c, 0, 38, 97
2, 137250, Note_on_c, 0, 50, 0
2, 137254, Note_on_c, 0, 38, 0
2, 137255, Note_on_c, 0, 64, 0
2, 137279, Note_on_c, 0, 73, 0
2, 137365, Note_on_c, 0, 73, 105
2, 137370, Note_on_c, 0, 64, 98
2, 137371, Note_on_c, 0, 50, 94
2, 137373, Note_on_c, 0, 38, 93
2, 137377, Note_on_c, 0, 66, 85
2, 137453, Note_on_c, 0, 38, 0
2, 137456, Note_on_c, 0, 50, 0
2, 137459, Note_on_c, 0, 64, 0
2, 137459, Note_on_c, 0, 73, 0
2, 137487, Note_on_c, 0, 66, 0
2, 137526, Note_on_c, 0, 71, 101
2, 137530, Note_on_c, 0, 49, 100
2, 137532, Note_on_c, 0, 59, 101
2, 137532, Note_on_c, 0, 64, 93
2, 137534, Note_on_c, 0, 37, 101
2, 137574, Note_on_c, 0, 49, 0
2, 137575, Note_on_c, 0, 64, 0
2, 137575, Note_on_c, 0, 71, 0
2, 137576, Note_on_c, 0, 37, 0
2, 137578, Note_on_c, 0, 59, 0
2, 137706, Note_on_c, 0, 69, 101
2, 137707, Note_on_c, 0, 37, 97
2, 137708, Note_on_c, 0, 57, 103
2, 137709, Note_on_c, 0, 49, 98
2, 137716, Note_on_c, 0, 64, 79
2, 137744, Note_on_c, 0, 57, 0
2, 137749, Note_on_c, 0, 49, 0
2, 137786, Note_on_c, 0, 69, 0
2, 137802, Note_on_c, 0, 37, 0
2, 137817, Note_on_c, 0, 64, 0
2, 137876, Note_on_c, 0, 69, 98
2, 137877, Note_on_c, 0, 57, 100
2, 137877, Note_on_c, 0, 37, 92
2, 137878, Note_on_c, 0, 49, 97
2, 137909, Control_c, 0, 64, 127
2, 138032, Note_on_c, 0, 49, 0
2, 138033, Note_on_c, 0, 59, 105
2, 138036, Note_on_c, 0, 73, 108
2, 138038, Note_on_c, 0, 61, 107
2, 138042, Note_on_c, 0, 64, 95
2, 138043, Note_on_c, 0, 49, 96
2, 138045, Note_on_c, 0, 52, 94
2, 138270, Note_on_c, 0, 37, 0
2, 138270, Note_on_c, 0, 49, 0
2, 138275, Note_on_c, 0, 37, 97
2, 138276, Note_on_c, 0, 49, 85
2, 138424, Note_on_c, 0, 49, 0
2, 138432, Note_on_c, 0, 37, 0
2, 138434, Note_on_c, 0, 49, 99
2, 138436, Note_on_c, 0, 37, 85
2, 138441, Control_c, 0, 64, 0
2, 138453, Note_on_c, 0, 61, 0
2, 138453, Note_on_c, 0, 64, 0
2, 138453, Note_on_c, 0, 59, 0
2, 138455, Note_on_c, 0, 57, 0
2, 138455, Note_on_c, 0, 73, 0
2, 138456, Note_on_c, 0, 69, 0
2, 138456, Note_on_c, 0, 52, 0
2, 138485, Note_on_c, 0, 49, 0
2, 138493, Note_on_c, 0, 37, 0
2, 138551, Note_on_c, 0, 42, 104
2, 138551, Note_on_c, 0, 30, 105
2, 138552, Note_on_c, 0, 85, 107
2, 138552, Note_on_c, 0, 73, 109
2, 138557, Note_on_c, 0, 76, 103
2, 138608, Control_c, 0, 64, 127
2, 138739, Note_on_c, 0, 76, 0
2, 138743, Note_on_c, 0, 88, 109
2, 138744, Note_on_c, 0, 76, 106
2, 138908, Note_on_c, 0, 76, 0
2, 138908, Note_on_c, 0, 88, 0
2, 138915, Note_on_c, 0, 42, 0
2, 138919, Note_on_c, 0, 76, 108
2, 138919, Note_on_c, 0, 88, 110
2, 138921, Note_on_c, 0, 42, 88
2, 139057, Note_on_c, 0, 57, 107
2, 139061, Note_on_c, 0, 76, 0
2, 139061, Note_on_c, 0, 88, 0
2, 139064, Note_on_c, 0, 49, 93
2, 139066, Note_on_c, 0, 52, 85
2, 139068, Note_on_c, 0, 88, 107
2, 139071, Note_on_c, 0, 76, 110
2, 139079, Note_on_c, 0, 85, 0
2, 139238, Note_on_c, 0, 76, 0
2, 139238, Note_on_c, 0, 88, 0
2, 139247, Note_on_c, 0, 76, 109
2, 139248, Note_on_c, 0, 88, 110
2, 139315, Note_on_c, 0, 30, 0
2, 139315, Note_on_c, 0, 42, 0
2, 139319, Note_on_c, 0, 42, 65
2, 139319, Note_on_c, 0, 30, 46
2, 139414, Note_on_c, 0, 93, 112
2, 139417, Note_on_c, 0, 81, 107
2, 139430, Note_on_c, 0, 88, 0
2, 139440, Note_on_c, 0, 88, 69
2, 139488, Control_c, 0, 64, 0
2, 139495, Note_on_c, 0, 52, 0
2, 139495, Note_on_c, 0, 49, 0
2, 139496, Note_on_c, 0, 30, 0
2, 139496, Note_on_c, 0, 42, 0
2, 139496, Note_on_c, 0, 57, 0
2, 139496, Note_on_c, 0, 76, 0
2, 139497, Note_on_c, 0, 93, 0
2, 139497, Note_on_c, 0, 81, 0
2, 139499, Note_on_c, 0, 73, 0
2, 139560, Note_on_c, 0, 88, 0
2, 139572, Note_on_c, 0, 80, 110
2, 139572, Note_on_c, 0, 92, 112
2, 139574, Note_on_c, 0, 44, 106
2, 139576, Note_on_c, 0, 32, 97
2, 139614, Control_c, 0, 64, 127
2, 139762, Note_on_c, 0, 88, 106
2, 139763, Note_on_c, 0, 76, 106
2, 139929, Note_on_c, 0, 76, 0
2, 139929, Note_on_c, 0, 88, 0
2, 139940, Note_on_c, 0, 88, 105
2, 139940, Note_on_c, 0, 76, 102
2, 139994, Note_on_c, 0, 44, 0
2, 139994, Note_on_c, 0, 32, 0
2, 139995, Note_on_c, 0, 80, 0
2, 139996, Note_on_c, 0, 88, 0
2, 139997, Note_on_c, 0, 92, 0
2, 139998, Control_c, 0, 64, 0
2, 140021, Note_on_c, 0, 76, 0
2, 140087, Note_on_c, 0, 85, 111
2, 140087, Note_on_c, 0, 33, 95
2, 140087, Note_on_c, 0, 45, 105
2, 140088, Note_on_c, 0, 73, 110
2, 140121, Control_c, 0, 64, 127
2, 140339, Note_on_c, 0, 86, 107
2, 140340, Note_on_c, 0, 74, 101
2, 140497, Note_on_c, 0, 73, 0
2, 140497, Note_on_c, 0, 85, 0
2, 140507, Note_on_c, 0, 85, 108
2, 140508, Note_on_c, 0, 73, 107
2, 140520, Control_c, 0, 64, 0
2, 140522, Note_on_c, 0, 74, 0
2, 140522, Note_on_c, 0, 86, 0
2, 140523, Note_on_c, 0, 45, 0
2, 140523, Note_on_c, 0, 33, 0
2, 140616, Note_on_c, 0, 50, 102
2, 140616, Note_on_c, 0, 38, 94
2, 140659, Control_c, 0, 64, 127
2, 140870, Note_on_c, 0, 69, 100
2, 141035, Note_on_c, 0, 50, 0
2, 141035, Note_on_c, 0, 69, 0
2, 141041, Note_on_c, 0, 69, 91
2, 141041, Note_on_c, 0, 50, 70
2, 141041, Note_on_c, 0, 57, 65
2, 141050, Note_on_c, 0, 57, 0
2, 141127, Note_on_c, 0, 69, 0
2, 141132, Note_on_c, 0, 69, 98
2, 141137, Note_on_c, 0, 61, 98
2, 141138, Note_on_c, 0, 57, 95
2, 141138, Note_on_c, 0, 54, 90
2, 141203, Control_c, 0, 64, 0
2, 141219, Note_on_c, 0, 85, 0
2, 141272, Note_on_c, 0, 54, 0
2, 141275, Note_on_c, 0, 57, 0
2, 141276, Note_on_c, 0, 50, 0
2, 141277, Note_on_c, 0, 38, 0
2, 141277, Note_on_c, 0, 61, 0
2, 141277, Note_on_c, 0, 69, 0
2, 141288, Note_on_c, 0, 73, 0
2, 141402, Note_on_c, 0, 69, 101
2, 141422, Note_on_c, 0, 50, 89
2, 141426, Note_on_c, 0, 38, 87
2, 141509, Note_on_c, 0, 38, 0
2, 141511, Note_on_c, 0, 50, 0
2, 141669, Note_on_c, 0, 49, 98
2, 141669, Note_on_c, 0, 37, 97
2, 141719, Control_c, 0, 64, 127
2, 141803, Note_on_c, 0, 69, 0
2, 141814, Note_on_c, 0, 69, 102
2, 141911, Note_on_c, 0, 69, 0
2, 141916, Note_on_c, 0, 69, 99
2, 142080, Note_on_c, 0, 49, 0
2, 142085, Note_on_c, 0, 49, 69
2, 142087, Note_on_c, 0, 69, 0
2, 142092, Note_on_c, 0, 69, 86
2, 142144, Note_on_c, 0, 71, 95
2, 142170, Note_on_c, 0, 59, 105
2, 142174, Note_on_c, 0, 73, 103
2, 142176, Note_on_c, 0, 52, 86
2, 142179, Note_on_c, 0, 64, 86
2, 142184, Note_on_c, 0, 56, 89
2, 142420, Control_c, 0, 64, 0
2, 142421, Note_on_c, 0, 52, 0
2, 142421, Note_on_c, 0, 56, 0
2, 142421, Note_on_c, 0, 73, 0
2, 142422, Note_on_c, 0, 69, 0
2, 142440, Note_on_c, 0, 37, 0
2, 142440, Note_on_c, 0, 49, 0
2, 142440, Note_on_c, 0, 59, 0
2, 142440, Note_on_c, 0, 71, 0
2, 142447, Note_on_c, 0, 71, 103
2, 142448, Note_on_c, 0, 64, 0
2, 142450, Note_on_c, 0, 49, 93
2, 142451, Note_on_c, 0, 37, 93
2, 142452, Note_on_c, 0, 59, 103
2, 142453, Note_on_c, 0, 64, 92
2, 142632, Note_on_c, 0, 37, 0
2, 142686, Note_on_c, 0, 49, 0
2, 142705, Note_on_c, 0, 42, 101
2, 142706, Note_on_c, 0, 30, 102
2, 142778, Control_c, 0, 64, 127
2, 142870, Note_on_c, 0, 81, 104
2, 142871, Note_on_c, 0, 69, 103
2, 142947, Note_on_c, 0, 69, 0
2, 142947, Note_on_c, 0, 81, 0
2, 142952, Note_on_c, 0, 69, 99
2, 142954, Note_on_c, 0, 81, 105
2, 143109, Note_on_c, 0, 30, 0
2, 143116, Note_on_c, 0, 42, 0
2, 143120, Note_on_c, 0, 30, 78
2, 143121, Note_on_c, 0, 42, 81
2, 143139, Note_on_c, 0, 69, 0
2, 143139, Note_on_c, 0, 81, 0
2, 143144, Note_on_c, 0, 81, 102
2, 143145, Note_on_c, 0, 69, 95
2, 143208, Note_on_c, 0, 69, 0
2, 143216, Note_on_c, 0, 81, 0
2, 143219, Note_on_c, 0, 69, 100
2, 143219, Note_on_c, 0, 57, 108
2, 143220, Note_on_c, 0, 81, 107
2, 143222, Note_on_c, 0, 76, 80
2, 143226, Note_on_c, 0, 49, 92
2, 143226, Note_on_c, 0, 52, 89
2, 143235, Control_c, 0, 64, 0
2, 143285, Control_c, 0, 64, 127
2, 143462, Note_on_c, 0, 42, 0
2, 143462, Note_on_c, 0, 81, 0
2, 143470, Note_on_c, 0, 69, 0
2, 143473, Note_on_c, 0, 81, 107
2, 143473, Note_on_c, 0, 42, 93
2, 143474, Note_on_c, 0, 69, 97
2, 143627, Note_on_c, 0, 32, 86
2, 143633, Note_on_c, 0, 44, 83
2, 143639, Note_on_c, 0, 44, 0
2, 143651, Control_c, 0, 64, 0
2, 143656, Note_on_c, 0, 49, 0
2, 143657, Note_on_c, 0, 30, 0
2, 143658, Note_on_c, 0, 64, 0
2, 143658, Note_on_c, 0, 52, 0
2, 143658, Note_on_c, 0, 57, 0
2, 143658, Note_on_c, 0, 69, 0
2, 143659, Note_on_c, 0, 81, 0
2, 143669, Note_on_c, 0, 42, 0
2, 143669, Note_on_c, 0, 59, 0
2, 143669, Note_on_c, 0, 71, 0
2, 143669, Note_on_c, 0, 76, 0
2, 143723, Note_on_c, 0, 32, 0
2, 143727, Note_on_c, 0, 44, 101
2, 143728, Note_on_c, 0, 32, 89
2, 143731, Note_on_c, 0, 88, 109
2, 143734, Note_on_c, 0, 80, 100
2, 143734, Note_on_c, 0, 76, 108
2, 143736, Note_on_c, 0, 83, 87
2, 143761, Control_c, 0, 64, 127
2, 143997, Note_on_c, 0, 86, 103
2, 144000, Note_on_c, 0, 74, 96
2, 144122, Note_on_c, 0, 76, 0
2, 144127, Note_on_c, 0, 85, 108
2, 144129, Note_on_c, 0, 73, 107
2, 144134, Note_on_c, 0, 76, 93
2, 144147, Note_on_c, 0, 33, 92
2, 144151, Note_on_c, 0, 44, 0
2, 144156, Note_on_c, 0, 32, 0
2, 144158, Note_on_c, 0, 80, 0
2, 144159, Note_on_c, 0, 88, 0
2, 144160, Note_on_c, 0, 83, 0
2, 144163, Note_on_c, 0, 74, 0
2, 144164, Note_on_c, 0, 86, 0
2, 144166, Control_c, 0, 64, 0
2, 144230, Note_on_c, 0, 33, 0
2, 144235, Note_on_c, 0, 45, 99
2, 144238, Control_c, 0, 64, 127
2, 144239, Note_on_c, 0, 33, 81
2, 144405, Note_on_c, 0, 86, 106
2, 144408, Note_on_c, 0, 74, 101
2, 144514, Note_on_c, 0, 73, 0
2, 144514, Note_on_c, 0, 76, 0
2, 144514, Note_on_c, 0, 85, 0
2, 144518, Note_on_c, 0, 85, 107
2, 144519, Note_on_c, 0, 73, 107
2, 144521, Note_on_c, 0, 76, 103
2, 144660, Note_on_c, 0, 33, 0
2, 144663, Note_on_c, 0, 45, 0
2, 144664, Note_on_c, 0, 86, 0
2, 144665, Note_on_c, 0, 74, 0
2, 144666, Note_on_c, 0, 73, 0
2, 144703, Control_c, 0, 64, 0
2, 144765, Note_on_c, 0, 50, 96
2, 144767, Note_on_c, 0, 38, 91
2, 144837, Note_on_c, 0, 85, 0
2, 144883, Control_c, 0, 64, 127
2, 145038, Note_on_c, 0, 69, 92
2, 145274, Note_on_c, 0, 76, 0
2, 145297, Note_on_c, 0, 69, 0
2, 145304, Note_on_c, 0, 69, 95
2, 145310, Note_on_c, 0, 57, 85
2, 145311, Note_on_c, 0, 54, 83
2, 145559, Note_on_c, 0, 69, 0
2, 145565, Note_on_c, 0, 69, 88
2, 145751, Note_on_c, 0, 69, 0
2, 145761, Note_on_c, 0, 69, 81
2, 145827, Note_on_c, 0, 69, 0
2, 145835, Note_on_c, 0, 57, 0
2, 145839, Note_on_c, 0, 69, 94
2, 145840, Note_on_c, 0, 64, 91
2, 145846, Note_on_c, 0, 57, 81
2, 146096, Note_on_c, 0, 69, 0
2, 146102, Note_on_c, 0, 69, 81
2, 146317, Note_on_c, 0, 71, 87
2, 146367, Note_on_c, 0, 73, 102
2, 146380, Note_on_c, 0, 54, 0
2, 146380, Note_on_c, 0, 57, 0
2, 146384, Note_on_c, 0, 57, 71
2, 146386, Note_on_c, 0, 54, 74
2, 146634, Note_on_c, 0, 71, 0
2, 146645, Note_on_c, 0, 71, 102
2, 146918, Note_on_c, 0, 64, 0
2, 146922, Note_on_c, 0, 64, 75
2, 146925, Note_on_c, 0, 40, 68
2, 146926, Note_on_c, 0, 57, 0
2, 146928, Note_on_c, 0, 59, 76
2, 146929, Note_on_c, 0, 47, 67
2, 146930, Note_on_c, 0, 57, 71
2, 146961, Control_c, 0, 64, 0
2, 146984, Note_on_c, 0, 38, 0
2, 146984, Note_on_c, 0, 69, 0
2, 146985, Note_on_c, 0, 73, 0
2, 146985, Note_on_c, 0, 54, 0
2, 146987, Note_on_c, 0, 50, 0
2, 147133, Control_c, 0, 64, 127
2, 147780, Note_on_c, 0, 68, 83
2, 148055, Note_on_c, 0, 68, 0
2, 148065, Note_on_c, 0, 68, 77
2, 148346, Note_on_c, 0, 68, 0
2, 148357, Note_on_c, 0, 68, 75
2, 148627, Note_on_c, 0, 69, 70
2, 148907, Note_on_c, 0, 69, 0
2, 148911, Note_on_c, 0, 69, 68
2, 150635, Note_on_c, 0, 59, 0
2, 150643, Note_on_c, 0, 71, 0
2, 150673, Note_on_c, 0, 64, 0
2, 150696, Note_on_c, 0, 57, 0
2, 150704, Note_on_c, 0, 47, 0
2, 150781, Note_on_c, 0, 68, 0
2, 150789, Control_c, 0, 64, 0
2, 150819, Note_on_c, 0, 40, 0
2, 151219, Note_on_c, 0, 69, 0
2, 151257, Note_on_c, 0, 81, 61
2, 151311, Control_c, 0, 64, 127
2, 151400, Note_on_c, 0, 83, 60
2, 151480, Control_c, 0, 64, 0
2, 151495, Note_on_c, 0, 81, 0
2, 151524, Note_on_c, 0, 85, 69
2, 151544, Note_on_c, 0, 54, 42
2, 151545, Note_on_c, 0, 64, 37
2, 151561, Note_on_c, 0, 61, 36
2, 151564, Control_c, 0, 64, 127
2, 151610, Note_on_c, 0, 83, 0
2, 151797, Note_on_c, 0, 73, 68
2, 151918, Note_on_c, 0, 73, 0
2, 151924, Note_on_c, 0, 73, 67
2, 152064, Note_on_c, 0, 73, 0
2, 152067, Note_on_c, 0, 73, 59
2, 152309, Note_on_c, 0, 64, 0
2, 152315, Note_on_c, 0, 64, 49
2, 152317, Note_on_c, 0, 54, 0
2, 152323, Note_on_c, 0, 54, 36
2, 152325, Note_on_c, 0, 50, 44
2, 152328, Note_on_c, 0, 57, 40
2, 152334, Note_on_c, 0, 61, 0
2, 152501, Note_on_c, 0, 85, 0
2, 152586, Note_on_c, 0, 73, 0
2, 152592, Note_on_c, 0, 73, 66
2, 152716, Note_on_c, 0, 73, 0
2, 152721, Note_on_c, 0, 73, 66
2, 152832, Note_on_c, 0, 73, 0
2, 152839, Note_on_c, 0, 73, 72
2, 152954, Note_on_c, 0, 73, 0
2, 152960, Note_on_c, 0, 73, 59
2, 153077, Note_on_c, 0, 57, 0
2, 153077, Note_on_c, 0, 64, 0
2, 153082, Note_on_c, 0, 57, 48
2, 153089, Note_on_c, 0, 64, 60
2, 153093, Note_on_c, 0, 73, 0
2, 153098, Note_on_c, 0, 73, 59
2, 153362, Note_on_c, 0, 81, 82
2, 153489, Note_on_c, 0, 83, 76
2, 153607, Note_on_c, 0, 64, 0
2, 153615, Note_on_c, 0, 81, 0
2, 153618, Note_on_c, 0, 85, 83
2, 153618, Note_on_c, 0, 64, 60
2, 153622, Note_on_c, 0, 81, 70
2, 153623, Note_on_c, 0, 57, 0
2, 153626, Control_c, 0, 64, 0
2, 153628, Note_on_c, 0, 59, 56
2, 153629, Note_on_c, 0, 52, 48
2, 153631, Note_on_c, 0, 57, 57
2, 153653, Note_on_c, 0, 50, 0
2, 153656, Note_on_c, 0, 83, 0
2, 153661, Note_on_c, 0, 54, 0
2, 153661, Note_on_c, 0, 73, 0
2, 153745, Control_c, 0, 64, 127
2, 153888, Note_on_c, 0, 73, 70
2, 153999, Note_on_c, 0, 73, 0
2, 154010, Note_on_c, 0, 73, 67
2, 154152, Note_on_c, 0, 73, 0
2, 154157, Note_on_c, 0, 73, 71
2, 154398, Note_on_c, 0, 57, 0
2, 154398, Note_on_c, 0, 64, 0
2, 154409, Note_on_c, 0, 64, 58
2, 154410, Note_on_c, 0, 57, 60
2, 154428, Note_on_c, 0, 62, 55
2, 154434, Control_c, 0, 64, 0
2, 154444, Note_on_c, 0, 52, 0
2, 154445, Note_on_c, 0, 59, 0
2, 154446, Note_on_c, 0, 81, 0
2, 154448, Note_on_c, 0, 73, 0
2, 154467, Note_on_c, 0, 85, 0
2, 154644, Control_c, 0, 64, 127
2, 154662, Note_on_c, 0, 73, 76
2, 154790, Note_on_c, 0, 73, 0
2, 154796, Note_on_c, 0, 73, 67
2, 154920, Note_on_c, 0, 73, 0
2, 154925, Note_on_c, 0, 73, 69
2, 155036, Note_on_c, 0, 73, 0
2, 155040, Note_on_c, 0, 73, 77
2, 155132, Control_c, 0, 64, 0
2, 155139, Note_on_c, 0, 62, 0
2, 155166, Note_on_c, 0, 64, 0
2, 155166, Note_on_c, 0, 73, 0
2, 155173, Note_on_c, 0, 73, 72
2, 155176, Note_on_c, 0, 56, 68
2, 155178, Note_on_c, 0, 64, 64
2, 155205, Note_on_c, 0, 57, 0
2, 155274, Control_c, 0, 64, 127
2, 155444, Note_on_c, 0, 85, 96
2, 155446, Note_on_c, 0, 81, 88
2, 155566, Note_on_c, 0, 73, 0
2, 155569, Note_on_c, 0, 86, 93
2, 155654, Note_on_c, 0, 81, 0
2, 155654, Note_on_c, 0, 64, 0
2, 155655, Note_on_c, 0, 56, 0
2, 155664, Control_c, 0, 64, 0
2, 155696, Note_on_c, 0, 85, 0
2, 155704, Note_on_c, 0, 88, 98
2, 155707, Note_on_c, 0, 85, 90
2, 155713, Note_on_c, 0, 69, 76
2, 155716, Note_on_c, 0, 61, 65
2, 155719, Note_on_c, 0, 64, 60
2, 155719, Note_on_c, 0, 54, 61
2, 155758, Control_c, 0, 64, 127
2, 155819, Note_on_c, 0, 86, 0
2, 155971, Note_on_c, 0, 73, 77
2, 155971, Note_on_c, 0, 76, 82
2, 156096, Note_on_c, 0, 73, 0
2, 156096, Note_on_c, 0, 76, 0
2, 156102, Note_on_c, 0, 73, 76
2, 156105, Note_on_c, 0, 76, 68
2, 156234, Note_on_c, 0, 73, 0
2, 156234, Note_on_c, 0, 76, 0
2, 156239, Note_on_c, 0, 76, 91
2, 156244, Note_on_c, 0, 73, 72
2, 156480, Note_on_c, 0, 64, 0
2, 156490, Note_on_c, 0, 64, 77
2, 156495, Note_on_c, 0, 54, 0
2, 156506, Note_on_c, 0, 54, 62
2, 156507, Note_on_c, 0, 50, 67
2, 156507, Note_on_c, 0, 57, 69
2, 156756, Note_on_c, 0, 76, 0
2, 156760, Note_on_c, 0, 76, 85
2, 156764, Note_on_c, 0, 73, 0
2, 156768, Note_on_c, 0, 73, 74
2, 156887, Note_on_c, 0, 73, 0
2, 156887, Note_on_c, 0, 76, 0
2, 156895, Note_on_c, 0, 73, 78
2, 156898, Note_on_c, 0, 76, 76
2, 157002, Note_on_c, 0, 73, 0
2, 157002, Note_on_c, 0, 76, 0
2, 157010, Note_on_c, 0, 73, 86
2, 157012, Note_on_c, 0, 76, 85
2, 157125, Note_on_c, 0, 73, 0
2, 157125, Note_on_c, 0, 76, 0
2, 157131, Note_on_c, 0, 73, 85
2, 157135, Note_on_c, 0, 76, 80
2, 157263, Note_on_c, 0, 54, 0
2, 157263, Note_on_c, 0, 57, 0
2, 157263, Note_on_c, 0, 64, 0
2, 157263, Note_on_c, 0, 73, 0
2, 157263, Note_on_c, 0, 76, 0
2, 157269, Note_on_c, 0, 64, 83
2, 157271, Note_on_c, 0, 73, 90
2, 157271, Note_on_c, 0, 54, 63
2, 157272, Control_c, 0, 64, 0
2, 157272, Note_on_c, 0, 76, 88
2, 157274, Note_on_c, 0, 57, 73
2, 157309, Control_c, 0, 64, 127
2, 157524, Note_on_c, 0, 85, 0
2, 157532, Note_on_c, 0, 85, 101
2, 157535, Note_on_c, 0, 81, 90
2, 157640, Note_on_c, 0, 86, 100
2, 157708, Note_on_c, 0, 69, 0
2, 157716, Note_on_c, 0, 61, 0
2, 157716, Note_on_c, 0, 88, 0
2, 157716, Note_on_c, 0, 73, 0
2, 157718, Note_on_c, 0, 50, 0
2, 157718, Note_on_c, 0, 76, 0
2, 157718, Note_on_c, 0, 64, 0
2, 157719, Note_on_c, 0, 85, 0
2, 157719, Note_on_c, 0, 54, 0
2, 157719, Note_on_c, 0, 81, 0
2, 157719, Note_on_c, 0, 57, 0
2, 157720, Note_on_c, 0, 86, 0
2, 157730, Control_c, 0, 64, 0
2, 157788, Note_on_c, 0, 88, 101
2, 157788, Note_on_c, 0, 64, 91
2, 157788, Note_on_c, 0, 85, 96
2, 157794, Note_on_c, 0, 52, 83
2, 157795, Note_on_c, 0, 59, 86
2, 157798, Note_on_c, 0, 57, 82
2, 157839, Control_c, 0, 64, 127
2, 158044, Note_on_c, 0, 73, 82
2, 158045, Note_on_c, 0, 76, 86
2, 158169, Note_on_c, 0, 73, 0
2, 158169, Note_on_c, 0, 76, 0
2, 158177, Note_on_c, 0, 73, 70
2, 158179, Note_on_c, 0, 76, 83
2, 158307, Note_on_c, 0, 73, 0
2, 158307, Note_on_c, 0, 76, 0
2, 158314, Note_on_c, 0, 76, 95
2, 158314, Note_on_c, 0, 73, 88
2, 158554, Control_c, 0, 64, 0
2, 158560, Note_on_c, 0, 85, 0
2, 158562, Note_on_c, 0, 52, 0
2, 158563, Note_on_c, 0, 76, 0
2, 158563, Note_on_c, 0, 59, 0
2, 158564, Note_on_c, 0, 73, 0
2, 158568, Note_on_c, 0, 88, 0
2, 158576, Note_on_c, 0, 57, 0
2, 158576, Note_on_c, 0, 64, 0
2, 158580, Note_on_c, 0, 69, 94
2, 158582, Note_on_c, 0, 57, 90
2, 158582, Note_on_c, 0, 64, 88
2, 158653, Control_c, 0, 64, 127
2, 158839, Note_on_c, 0, 73, 91
2, 158840, Note_on_c, 0, 76, 97
2, 158968, Note_on_c, 0, 73, 0
2, 158968, Note_on_c, 0, 76, 0
2, 158972, Note_on_c, 0, 73, 76
2, 158974, Note_on_c, 0, 76, 88
2, 159075, Note_on_c, 0, 73, 0
2, 159075, Note_on_c, 0, 76, 0
2, 159079, Note_on_c, 0, 73, 94
2, 159080, Note_on_c, 0, 76, 96
2, 159206, Note_on_c, 0, 76, 0
2, 159212, Note_on_c, 0, 76, 88
2, 159313, Note_on_c, 0, 73, 0
2, 159313, Note_on_c, 0, 76, 0
2, 159324, Note_on_c, 0, 76, 95
2, 159324, Note_on_c, 0, 73, 96
2, 159324, Control_c, 0, 64, 0
2, 159336, Note_on_c, 0, 64, 0
2, 159347, Note_on_c, 0, 64, 90
2, 159349, Note_on_c, 0, 56, 86
2, 159390, Control_c, 0, 64, 127
2, 159470, Note_on_c, 0, 71, 94
2, 159586, Note_on_c, 0, 80, 99
2, 159713, Note_on_c, 0, 83, 97
2, 159839, Note_on_c, 0, 83, 0
2, 159840, Note_on_c, 0, 69, 0
2, 159840, Note_on_c, 0, 76, 0
2, 159840, Note_on_c, 0, 71, 0
2, 159840, Note_on_c, 0, 80, 0
2, 159840, Note_on_c, 0, 57, 0
2, 159841, Note_on_c, 0, 56, 0
2, 159843, Control_c, 0, 64, 0
2, 159859, Note_on_c, 0, 64, 0
2, 159866, Note_on_c, 0, 73, 0
2, 159869, Note_on_c, 0, 54, 93
2, 159870, Note_on_c, 0, 64, 100
2, 159871, Note_on_c, 0, 81, 102
2, 159871, Note_on_c, 0, 73, 101
2, 159872, Note_on_c, 0, 61, 93
2, 159872, Note_on_c, 0, 69, 98
2, 159873, Note_on_c, 0, 76, 88
2, 159966, Control_c, 0, 64, 127
2, 160104, Note_on_c, 0, 73, 0
2, 160135, Note_on_c, 0, 76, 0
2, 160143, Note_on_c, 0, 88, 98
2, 160146, Note_on_c, 0, 76, 81
2, 160250, Note_on_c, 0, 88, 0
2, 160258, Note_on_c, 0, 76, 0
2, 160261, Note_on_c, 0, 88, 93
2, 160262, Note_on_c, 0, 76, 83
2, 160373, Note_on_c, 0, 76, 0
2, 160373, Note_on_c, 0, 88, 0
2, 160378, Note_on_c, 0, 71, 98
2, 160383, Note_on_c, 0, 88, 100
2, 160384, Note_on_c, 0, 76, 96
2, 160627, Note_on_c, 0, 64, 0
2, 160627, Note_on_c, 0, 69, 0
2, 160636, Note_on_c, 0, 64, 93
2, 160637, Note_on_c, 0, 69, 99
2, 160642, Note_on_c, 0, 54, 0
2, 160646, Note_on_c, 0, 57, 92
2, 160647, Note_on_c, 0, 50, 84
2, 160651, Note_on_c, 0, 54, 78
2, 160896, Note_on_c, 0, 76, 0
2, 160896, Note_on_c, 0, 88, 0
2, 160905, Note_on_c, 0, 88, 102
2, 160907, Note_on_c, 0, 76, 95
2, 161026, Note_on_c, 0, 76, 0
2, 161026, Note_on_c, 0, 88, 0
2, 161035, Note_on_c, 0, 76, 89
2, 161037, Note_on_c, 0, 88, 93
2, 161134, Note_on_c, 0, 76, 0
2, 161134, Note_on_c, 0, 88, 0
2, 161140, Note_on_c, 0, 88, 95
2, 161143, Note_on_c, 0, 76, 90
2, 161157, Note_on_c, 0, 50, 0
2, 161165, Note_on_c, 0, 50, 69
2, 161241, Note_on_c, 0, 88, 0
2, 161249, Note_on_c, 0, 76, 0
2, 161251, Note_on_c, 0, 88, 100
2, 161255, Note_on_c, 0, 76, 84
2, 161379, Note_on_c, 0, 88, 0
2, 161387, Note_on_c, 0, 64, 0
2, 161387, Note_on_c, 0, 76, 0
2, 161391, Note_on_c, 0, 88, 107
2, 161392, Note_on_c, 0, 76, 98
2, 161398, Note_on_c, 0, 64, 96
2, 161402, Note_on_c, 0, 54, 0
2, 161402, Note_on_c, 0, 57, 0
2, 161409, Note_on_c, 0, 54, 77
2, 161409, Note_on_c, 0, 57, 85
2, 161645, Note_on_c, 0, 68, 94
2, 161645, Note_on_c, 0, 80, 95
2, 161756, Note_on_c, 0, 69, 0
2, 161756, Note_on_c, 0, 81, 0
2, 161763, Note_on_c, 0, 81, 104
2, 161766, Note_on_c, 0, 69, 93
2, 161881, Control_c, 0, 64, 0
2, 161882, Note_on_c, 0, 68, 0
2, 161883, Note_on_c, 0, 54, 0
2, 161883, Note_on_c, 0, 76, 0
2, 161883, Note_on_c, 0, 81, 0
2, 161883, Note_on_c, 0, 80, 0
2, 161885, Note_on_c, 0, 50, 0
2, 161894, Note_on_c, 0, 61, 0
2, 161894, Note_on_c, 0, 69, 0
2, 161902, Note_on_c, 0, 64, 0
2, 161902, Note_on_c, 0, 88, 0
2, 161909, Note_on_c, 0, 57, 0
2, 161909, Note_on_c, 0, 71, 0
2, 161913, Note_on_c, 0, 64, 100
2, 161915, Note_on_c, 0, 83, 103
2, 161916, Note_on_c, 0, 59, 94
2, 161918, Note_on_c, 0, 71, 96
2, 161919, Note_on_c, 0, 76, 97
2, 161920, Note_on_c, 0, 52, 86
2, 161920, Note_on_c, 0, 57, 92
2, 162009, Control_c, 0, 64, 127
2, 162101, Note_on_c, 0, 71, 0
2, 162170, Note_on_c, 0, 76, 0
2, 162176, Note_on_c, 0, 88, 104
2, 162179, Note_on_c, 0, 76, 97
2, 162286, Note_on_c, 0, 76, 0
2, 162286, Note_on_c, 0, 88, 0
2, 162292, Note_on_c, 0, 88, 97
2, 162296, Note_on_c, 0, 76, 80
2, 162416, Note_on_c, 0, 88, 0
2, 162423, Note_on_c, 0, 74, 101
2, 162424, Note_on_c, 0, 76, 0
2, 162426, Note_on_c, 0, 88, 99
2, 162428, Note_on_c, 0, 76, 94
2, 162691, Control_c, 0, 64, 0
2, 162693, Note_on_c, 0, 52, 0
2, 162693, Note_on_c, 0, 57, 0
2, 162694, Note_on_c, 0, 69, 95
2, 162696, Note_on_c, 0, 73, 102
2, 162697, Note_on_c, 0, 57, 102
2, 162700, Note_on_c, 0, 45, 98
2, 162702, Note_on_c, 0, 52, 88
2, 162723, Control_c, 0, 64, 127
2, 162946, Note_on_c, 0, 76, 0
2, 162946, Note_on_c, 0, 88, 0
2, 162950, Note_on_c, 0, 88, 105
2, 162953, Note_on_c, 0, 76, 101
2, 163077, Note_on_c, 0, 76, 0
2, 163077, Note_on_c, 0, 88, 0
2, 163086, Note_on_c, 0, 88, 101
2, 163087, Note_on_c, 0, 76, 95
2, 163192, Note_on_c, 0, 88, 0
2, 163200, Note_on_c, 0, 45, 0
2, 163200, Note_on_c, 0, 57, 0
2, 163200, Note_on_c, 0, 76, 0
2, 163203, Note_on_c, 0, 88, 103
2, 163204, Note_on_c, 0, 57, 94
2, 163204, Note_on_c, 0, 76, 99
2, 163211, Note_on_c, 0, 45, 79
2, 163299, Note_on_c, 0, 76, 0
2, 163299, Note_on_c, 0, 88, 0
2, 163306, Note_on_c, 0, 88, 103
2, 163310, Note_on_c, 0, 76, 89
2, 163430, Control_c, 0, 64, 0
2, 163438, Note_on_c, 0, 64, 0
2, 163438, Note_on_c, 0, 76, 0
2, 163438, Note_on_c, 0, 88, 0
2, 163442, Note_on_c, 0, 64, 99
2, 163444, Note_on_c, 0, 88, 105
2, 163448, Note_on_c, 0, 76, 100
2, 163448, Note_on_c, 0, 61, 92
2, 163453, Control_c, 0, 64, 127
2, 163568, Note_on_c, 0, 69, 0
2, 163572, Note_on_c, 0, 81, 105
2, 163573, Note_on_c, 0, 69, 102
2, 163683, Note_on_c, 0, 73, 0
2, 163688, Note_on_c, 0, 85, 105
2, 163689, Note_on_c, 0, 73, 104
2, 163694, Note_on_c, 0, 56, 97
2, 163694, Note_on_c, 0, 44, 96
2, 163799, Note_on_c, 0, 74, 0
2, 163806, Note_on_c, 0, 86, 108
2, 163809, Note_on_c, 0, 74, 102
2, 163902, Note_on_c, 0, 88, 0
2, 163902, Note_on_c, 0, 56, 0
2, 163902, Note_on_c, 0, 83, 0
2, 163902, Note_on_c, 0, 69, 0
2, 163902, Note_on_c, 0, 81, 0
2, 163902, Note_on_c, 0, 64, 0
2, 163902, Note_on_c, 0, 76, 0
2, 163902, Note_on_c, 0, 74, 0
2, 163902, Note_on_c, 0, 73, 0
2, 163902, Note_on_c, 0, 61, 0
2, 163902, Note_on_c, 0, 52, 0
2, 163903, Note_on_c, 0, 86, 0
2, 163903, Note_on_c, 0, 85, 0
2, 163903, Note_on_c, 0, 44, 0
2, 163910, Control_c, 0, 64, 0
2, 163921, Note_on_c, 0, 45, 0
2, 163921, Note_on_c, 0, 57, 0
2, 163921, Note_on_c, 0, 59, 0
2, 163957, Note_on_c, 0, 42, 102
2, 163957, Note_on_c, 0, 54, 102
2, 163958, Note_on_c, 0, 80, 101
2, 163959, Note_on_c, 0, 76, 105
2, 163962, Note_on_c, 0, 88, 110
2, 163964, Note_on_c, 0, 83, 85
2, 163969, Note_on_c, 0, 44, 78
2, 164006, Control_c, 0, 64, 127
2, 164213, Note_on_c, 0, 88, 0
2, 164221, Note_on_c, 0, 76, 0
2, 164223, Note_on_c, 0, 88, 105
2, 164226, Note_on_c, 0, 76, 91
2, 164336, Note_on_c, 0, 76, 0
2, 164336, Note_on_c, 0, 88, 0
2, 164342, Note_on_c, 0, 88, 101
2, 164343, Note_on_c, 0, 76, 93
2, 164467, Note_on_c, 0, 76, 0
2, 164467, Note_on_c, 0, 88, 0
2, 164469, Note_on_c, 0, 71, 102
2, 164472, Note_on_c, 0, 64, 95
2, 164474, Note_on_c, 0, 76, 104
2, 164475, Note_on_c, 0, 88, 104
2, 164723, Note_on_c, 0, 69, 105
2, 164725, Note_on_c, 0, 62, 89
2, 164729, Note_on_c, 0, 50, 102
2, 164730, Note_on_c, 0, 66, 93
2, 164732, Note_on_c, 0, 38, 98
2, 164997, Note_on_c, 0, 76, 0
2, 164997, Note_on_c, 0, 88, 0
2, 165006, Note_on_c, 0, 88, 105
2, 165007, Note_on_c, 0, 76, 101
2, 165127, Note_on_c, 0, 76, 0
2, 165127, Note_on_c, 0, 88, 0
2, 165137, Note_on_c, 0, 88, 101
2, 165137, Note_on_c, 0, 76, 94
2, 165242, Note_on_c, 0, 76, 0
2, 165242, Note_on_c, 0, 88, 0
2, 165250, Note_on_c, 0, 50, 0
2, 165254, Note_on_c, 0, 76, 99
2, 165254, Note_on_c, 0, 88, 105
2, 165261, Note_on_c, 0, 50, 91
2, 165358, Note_on_c, 0, 88, 0
2, 165365, Note_on_c, 0, 76, 0
2, 165369, Note_on_c, 0, 88, 99
2, 165371, Note_on_c, 0, 76, 87
2, 165496, Note_on_c, 0, 64, 0
2, 165496, Note_on_c, 0, 76, 0
2, 165496, Note_on_c, 0, 88, 0
2, 165501, Note_on_c, 0, 88, 109
2, 165501, Note_on_c, 0, 76, 105
2, 165503, Note_on_c, 0, 64, 106
2, 165504, Note_on_c, 0, 54, 0
2, 165508, Note_on_c, 0, 57, 95
2, 165512, Note_on_c, 0, 54, 92
2, 165534, Note_on_c, 0, 44, 0
2, 165742, Note_on_c, 0, 80, 0
2, 165749, Note_on_c, 0, 80, 100
2, 165749, Note_on_c, 0, 68, 99
2, 165864, Note_on_c, 0, 69, 0
2, 165869, Note_on_c, 0, 81, 106
2, 165870, Note_on_c, 0, 69, 98
2, 165998, Note_on_c, 0, 68, 0
2, 165998, Note_on_c, 0, 62, 0
2, 165998, Note_on_c, 0, 88, 0
2, 165998, Note_on_c, 0, 54, 0
2, 165999, Note_on_c, 0, 69, 0
2, 165999, Note_on_c, 0, 38, 0
2, 165999, Note_on_c, 0, 57, 0
2, 165999, Note_on_c, 0, 80, 0
2, 165999, Note_on_c, 0, 66, 0
2, 165999, Note_on_c, 0, 81, 0
2, 166000, Control_c, 0, 64, 0
2, 166003, Note_on_c, 0, 42, 0
2, 166010, Note_on_c, 0, 50, 0
2, 166010, Note_on_c, 0, 64, 0
2, 166010, Note_on_c, 0, 83, 0
2, 166018, Note_on_c, 0, 71, 0
2, 166018, Note_on_c, 0, 76, 0
2, 166018, Note_on_c, 0, 47, 100
2, 166021, Note_on_c, 0, 40, 90
2, 166021, Note_on_c, 0, 83, 109
2, 166022, Note_on_c, 0, 52, 96
2, 166023, Note_on_c, 0, 71, 103
2, 166026, Note_on_c, 0, 76, 101
2, 166164, Control_c, 0, 64, 127
2, 166302, Note_on_c, 0, 76, 0
2, 166314, Note_on_c, 0, 76, 81
2, 166429, Note_on_c, 0, 81, 87
2, 166551, Note_on_c, 0, 88, 108
2, 166663, Note_on_c, 0, 83, 0
2, 166669, Note_on_c, 0, 83, 81
2, 166801, Note_on_c, 0, 81, 0
2, 166808, Note_on_c, 0, 81, 83
2, 166932, Note_on_c, 0, 76, 0
2, 166941, Note_on_c, 0, 76, 74
2, 167063, Note_on_c, 0, 88, 0
2, 167071, Note_on_c, 0, 88, 102
2, 167185, Note_on_c, 0, 83, 0
2, 167190, Note_on_c, 0, 83, 70
2, 167324, Note_on_c, 0, 81, 0
2, 167333, Note_on_c, 0, 81, 67
2, 167439, Note_on_c, 0, 76, 0
2, 167444, Note_on_c, 0, 76, 64
2, 167554, Note_on_c, 0, 88, 0
2, 167560, Note_on_c, 0, 88, 90
2, 167677, Note_on_c, 0, 83, 0
2, 167683, Note_on_c, 0, 83, 73
2, 167808, Note_on_c, 0, 81, 0
2, 167813, Note_on_c, 0, 81, 76
2, 167923, Note_on_c, 0, 76, 0
2, 167932, Note_on_c, 0, 76, 63
2, 168053, Note_on_c, 0, 40, 0
2, 168061, Note_on_c, 0, 88, 0
2, 168064, Note_on_c, 0, 40, 76
2, 168064, Note_on_c, 0, 28, 78
2, 168071, Note_on_c, 0, 88, 90
2, 168084, Control_c, 0, 64, 0
2, 168099, Note_on_c, 0, 47, 0
2, 168145, Note_on_c, 0, 83, 0
2, 168150, Note_on_c, 0, 83, 86
2, 168161, Note_on_c, 0, 71, 0
2, 168168, Control_c, 0, 64, 127
2, 168230, Note_on_c, 0, 81, 0
2, 168235, Note_on_c, 0, 81, 74
2, 168310, Note_on_c, 0, 80, 70
2, 168337, Note_on_c, 0, 28, 0
2, 168337, Note_on_c, 0, 40, 0
2, 168342, Note_on_c, 0, 40, 65
2, 168346, Note_on_c, 0, 28, 70
2, 168353, Note_on_c, 0, 76, 0
2, 168363, Note_on_c, 0, 76, 66
2, 168430, Note_on_c, 0, 80, 0
2, 168439, Note_on_c, 0, 80, 72
2, 168514, Note_on_c, 0, 81, 0
2, 168518, Note_on_c, 0, 81, 76
2, 168599, Note_on_c, 0, 28, 0
2, 168599, Note_on_c, 0, 40, 0
2, 168599, Note_on_c, 0, 88, 0
2, 168604, Note_on_c, 0, 88, 103
2, 168605, Note_on_c, 0, 40, 88
2, 168609, Note_on_c, 0, 28, 87
2, 168668, Note_on_c, 0, 83, 0
2, 168675, Note_on_c, 0, 83, 91
2, 168729, Note_on_c, 0, 81, 0
2, 168740, Note_on_c, 0, 81, 90
2, 168798, Note_on_c, 0, 80, 0
2, 168805, Note_on_c, 0, 80, 92
2, 168860, Note_on_c, 0, 28, 0
2, 168860, Note_on_c, 0, 40, 0
2, 168860, Note_on_c, 0, 76, 0
2, 168864, Note_on_c, 0, 40, 94
2, 168866, Note_on_c, 0, 28, 95
2, 168869, Note_on_c, 0, 76, 83
2, 168952, Note_on_c, 0, 80, 0
2, 168958, Note_on_c, 0, 80, 93
2, 169029, Note_on_c, 0, 81, 0
2, 169037, Note_on_c, 0, 81, 93
2, 169098, Note_on_c, 0, 40, 0
2, 169098, Note_on_c, 0, 88, 0
2, 169105, Note_on_c, 0, 28, 0
2, 169109, Note_on_c, 0, 88, 107
2, 169109, Note_on_c, 0, 40, 99
2, 169115, Note_on_c, 0, 28, 97
2, 169121, Note_on_c, 0, 86, 88
2, 169144, Note_on_c, 0, 83, 0
2, 169154, Note_on_c, 0, 83, 92
2, 169198, Note_on_c, 0, 81, 0
2, 169202, Note_on_c, 0, 81, 94
2, 169251, Note_on_c, 0, 80, 0
2, 169256, Note_on_c, 0, 80, 96
2, 169290, Note_on_c, 0, 76, 0
2, 169297, Note_on_c, 0, 76, 88
2, 169351, Note_on_c, 0, 40, 0
2, 169359, Note_on_c, 0, 28, 0
2, 169363, Note_on_c, 0, 40, 96
2, 169363, Note_on_c, 0, 28, 91
2, 169363, Note_on_c, 0, 71, 96
2, 169430, Note_on_c, 0, 69, 77
2, 169492, Note_on_c, 0, 68, 95
2, 169549, Note_on_c, 0, 64, 91
2, 169605, Note_on_c, 0, 40, 0
2, 169605, Note_on_c, 0, 76, 0
2, 169612, Note_on_c, 0, 28, 0
2, 169615, Note_on_c, 0, 76, 104
2, 169616, Note_on_c, 0, 40, 102
2, 169617, Note_on_c, 0, 28, 91
2, 169651, Note_on_c, 0, 71, 0
2, 169661, Note_on_c, 0, 71, 93
2, 169697, Note_on_c, 0, 69, 0
2, 169705, Note_on_c, 0, 69, 81
2, 169751, Note_on_c, 0, 68, 0
2, 169762, Note_on_c, 0, 68, 97
2, 169804, Note_on_c, 0, 64, 0
2, 169808, Note_on_c, 0, 64, 90
2, 169843, Note_on_c, 0, 59, 86
2, 169888, Note_on_c, 0, 57, 93
2, 169932, Note_on_c, 0, 56, 91
2, 169973, Note_on_c, 0, 52, 0
2, 169977, Note_on_c, 0, 52, 75
2, 170150, Note_on_c, 0, 68, 0
2, 170150, Note_on_c, 0, 71, 0
2, 170150, Note_on_c, 0, 76, 0
2, 170150, Note_on_c, 0, 86, 0
2, 170153, Note_on_c, 0, 28, 0
2, 170153, Note_on_c, 0, 83, 0
2, 170154, Note_on_c, 0, 59, 0
2, 170154, Note_on_c, 0, 56, 0
2, 170154, Note_on_c, 0, 76, 112
2, 170155, Note_on_c, 0, 57, 0
2, 170155, Note_on_c, 0, 81, 0
2, 170155, Note_on_c, 0, 68, 109
2, 170156, Note_on_c, 0, 42, 103
2, 170156, Note_on_c, 0, 64, 0
2, 170157, Note_on_c, 0, 69, 0
2, 170158, Note_on_c, 0, 71, 99
2, 170158, Note_on_c, 0, 30, 100
2, 170161, Control_c, 0, 64, 0
2, 170165, Note_on_c, 0, 40, 0
2, 170165, Note_on_c, 0, 88, 0
2, 170181, Note_on_c, 0, 52, 0
2, 170181, Note_on_c, 0, 80, 0
2, 170234, Control_c, 0, 64, 127
2, 170411, Note_on_c, 0, 68, 0
2, 170411, Note_on_c, 0, 71, 0
2, 170411, Note_on_c, 0, 76, 0
2, 170421, Note_on_c, 0, 68, 109
2, 170422, Note_on_c, 0, 76, 106
2, 170422, Note_on_c, 0, 71, 96
2, 170423, Note_on_c, 0, 64, 104
2, 170455, Control_c, 0, 64, 0
2, 170458, Note_on_c, 0, 76, 0
2, 170460, Note_on_c, 0, 42, 0
2, 170460, Note_on_c, 0, 71, 0
2, 170461, Note_on_c, 0, 68, 0
2, 170461, Note_on_c, 0, 64, 0
2, 170465, Note_on_c, 0, 30, 0
2, 170683, Note_on_c, 0, 80, 107
2, 170684, Note_on_c, 0, 68, 110
2, 170715, Note_on_c, 0, 68, 0
2, 170723, Note_on_c, 0, 80, 0
2, 170946, Note_on_c, 0, 81, 110
2, 170949, Note_on_c, 0, 69, 106
2, 170951, Note_on_c, 0, 73, 106
2, 170951, Note_on_c, 0, 76, 107
2, 171148, Control_c, 0, 64, 127
2, 171477, Note_on_c, 0, 80, 108
2, 171478, Note_on_c, 0, 68, 111
2, 171479, Note_on_c, 0, 73, 0
2, 171479, Note_on_c, 0, 76, 0
2, 171486, Note_on_c, 0, 73, 86
2, 171489, Note_on_c, 0, 76, 77
2, 171717, Note_on_c, 0, 69, 0
2, 171720, Note_on_c, 0, 78, 112
2, 171721, Note_on_c, 0, 74, 98
2, 171721, Note_on_c, 0, 38, 91
2, 171722, Note_on_c, 0, 69, 97
2, 171722, Note_on_c, 0, 26, 97
2, 171724, Note_on_c, 0, 66, 108
2, 171783, Note_on_c, 0, 40, 65
2, 171827, Note_on_c, 0, 29, 90
2, 171831, Note_on_c, 0, 41, 95
2, 171832, Note_on_c, 0, 29, 0
2, 171844, Note_on_c, 0, 31, 83
2, 171853, Note_on_c, 0, 43, 73
2, 171878, Note_on_c, 0, 45, 89
2, 171909, Note_on_c, 0, 26, 0
2, 171915, Note_on_c, 0, 47, 107
2, 171925, Note_on_c, 0, 35, 92
2, 171993, Note_on_c, 0, 76, 0
2, 171996, Note_on_c, 0, 50, 98
2, 171999, Note_on_c, 0, 76, 104
2, 172001, Note_on_c, 0, 69, 0
2, 172004, Note_on_c, 0, 64, 94
2, 172004, Note_on_c, 0, 38, 0
2, 172011, Note_on_c, 0, 69, 94
2, 172012, Note_on_c, 0, 67, 82
2, 172192, Control_c, 0, 64, 0
2, 172206, Note_on_c, 0, 40, 0
2, 172207, Note_on_c, 0, 45, 0
2, 172210, Note_on_c, 0, 78, 0
2, 172210, Note_on_c, 0, 35, 0
2, 172211, Note_on_c, 0, 41, 0
2, 172211, Note_on_c, 0, 68, 0
2, 172212, Note_on_c, 0, 81, 0
2, 172212, Note_on_c, 0, 47, 0
2, 172212, Note_on_c, 0, 80, 0
2, 172212, Note_on_c, 0, 66, 0
2, 172212, Note_on_c, 0, 73, 0
2, 172213, Note_on_c, 0, 74, 0
2, 172213, Note_on_c, 0, 69, 0
2, 172214, Note_on_c, 0, 50, 0
2, 172216, Note_on_c, 0, 31, 0
2, 172216, Note_on_c, 0, 43, 0
2, 172231, Note_on_c, 0, 64, 0
2, 172239, Note_on_c, 0, 67, 0
2, 172264, Note_on_c, 0, 40, 97
2, 172266, Note_on_c, 0, 28, 95
2, 172530, Note_on_c, 0, 68, 106
2, 172531, Note_on_c, 0, 40, 0
2, 172533, Note_on_c, 0, 71, 99
2, 172535, Note_on_c, 0, 64, 95
2, 172536, Note_on_c, 0, 40, 89
2, 172538, Control_c, 0, 64, 127
2, 172677, Note_on_c, 0, 40, 0
2, 172682, Note_on_c, 0, 40, 88
2, 172776, Note_on_c, 0, 64, 0
2, 172783, Note_on_c, 0, 59, 94
2, 172784, Note_on_c, 0, 74, 102
2, 172784, Note_on_c, 0, 68, 0
2, 172785, Note_on_c, 0, 47, 95
2, 172787, Note_on_c, 0, 56, 100
2, 172787, Note_on_c, 0, 64, 101
2, 172789, Note_on_c, 0, 68, 94
2, 172792, Note_on_c, 0, 59, 0
2, 173038, Note_on_c, 0, 64, 0
2, 173046, Note_on_c, 0, 73, 109
2, 173047, Note_on_c, 0, 64, 91
2, 173048, Note_on_c, 0, 45, 109
2, 173048, Note_on_c, 0, 61, 107
2, 173049, Note_on_c, 0, 69, 97
2, 173049, Note_on_c, 0, 33, 94
2, 173052, Note_on_c, 0, 71, 0
2, 173052, Note_on_c, 0, 76, 0
2, 173053, Control_c, 0, 64, 0
2, 173053, Note_on_c, 0, 68, 0
2, 173053, Note_on_c, 0, 74, 0
2, 173053, Note_on_c, 0, 56, 0
2, 173054, Note_on_c, 0, 47, 0
2, 173061, Note_on_c, 0, 28, 0
2, 173084, Note_on_c, 0, 40, 0
2, 173283, Control_c, 0, 64, 127
2, 173445, Note_on_c, 0, 45, 0
2, 173449, Note_on_c, 0, 45, 83
2, 173542, Note_on_c, 0, 57, 99
2, 173544, Note_on_c, 0, 69, 0
2, 173544, Note_on_c, 0, 73, 0
2, 173545, Note_on_c, 0, 52, 93
2, 173552, Note_on_c, 0, 61, 0
2, 173554, Note_on_c, 0, 73, 103
2, 173556, Note_on_c, 0, 69, 78
2, 173557, Note_on_c, 0, 61, 100
2, 173786, Control_c, 0, 64, 0
2, 173786, Note_on_c, 0, 33, 0
2, 173788, Note_on_c, 0, 52, 0
2, 173789, Note_on_c, 0, 73, 0
2, 173790, Note_on_c, 0, 57, 0
2, 173790, Note_on_c, 0, 61, 0
2, 173792, Note_on_c, 0, 69, 0
2, 173806, Note_on_c, 0, 45, 0
2, 173813, Note_on_c, 0, 64, 0
2, 173819, Note_on_c, 0, 59, 109
2, 173819, Note_on_c, 0, 71, 104
2, 173824, Note_on_c, 0, 64, 96
2, 173825, Note_on_c, 0, 32, 85
2, 173825, Note_on_c, 0, 44, 98
2, 173944, Control_c, 0, 64, 127
2, 174082, Note_on_c, 0, 59, 0
2, 174082, Note_on_c, 0, 71, 0
2, 174085, Note_on_c, 0, 52, 97
2, 174086, Note_on_c, 0, 71, 98
2, 174090, Note_on_c, 0, 56, 88
2, 174092, Note_on_c, 0, 59, 85
2, 174092, Note_on_c, 0, 68, 94
2, 174152, Note_on_c, 0, 76, 98
2, 174216, Note_on_c, 0, 81, 100
2, 174273, Note_on_c, 0, 52, 0
2, 174275, Note_on_c, 0, 64, 0
2, 174275, Note_on_c, 0, 59, 0
2, 174275, Note_on_c, 0, 68, 0
2, 174275, Note_on_c, 0, 71, 0
2, 174276, Note_on_c, 0, 56, 0
2, 174276, Note_on_c, 0, 76, 0
2, 174279, Note_on_c, 0, 81, 0
2, 174279, Control_c, 0, 64, 0
2, 174282, Note_on_c, 0, 32, 0
2, 174282, Note_on_c, 0, 44, 0
2, 174348, Note_on_c, 0, 42, 100
2, 174348, Note_on_c, 0, 30, 106
2, 174349, Note_on_c, 0, 85, 107
2, 174355, Note_on_c, 0, 76, 102
2, 174405, Control_c, 0, 64, 127
2, 174446, Note_on_c, 0, 86, 103
2, 174528, Note_on_c, 0, 85, 0
2, 174532, Note_on_c, 0, 85, 102
2, 174609, Note_on_c, 0, 83, 104
2, 174616, Note_on_c, 0, 57, 96
2, 174620, Note_on_c, 0, 54, 95
2, 174673, Note_on_c, 0, 85, 0
2, 174684, Note_on_c, 0, 85, 96
2, 174765, Note_on_c, 0, 81, 100
2, 174850, Note_on_c, 0, 76, 0
2, 174860, Note_on_c, 0, 76, 99
2, 174865, Note_on_c, 0, 57, 0
2, 174871, Note_on_c, 0, 64, 104
2, 174872, Note_on_c, 0, 61, 93
2, 174876, Note_on_c, 0, 57, 96
2, 174965, Note_on_c, 0, 81, 0
2, 174970, Note_on_c, 0, 81, 93
2, 175042, Note_on_c, 0, 83, 0
2, 175051, Note_on_c, 0, 83, 94
2, 175115, Note_on_c, 0, 42, 0
2, 175115, Note_on_c, 0, 86, 0
2, 175117, Note_on_c, 0, 54, 0
2, 175117, Note_on_c, 0, 83, 0
2, 175118, Note_on_c, 0, 61, 0
2, 175119, Note_on_c, 0, 57, 0
2, 175120, Note_on_c, 0, 64, 0
2, 175121, Note_on_c, 0, 81, 0
2, 175122, Control_c, 0, 64, 0
2, 175127, Note_on_c, 0, 30, 0
2, 175134, Note_on_c, 0, 85, 0
2, 175142, Note_on_c, 0, 76, 0
2, 175145, Note_on_c, 0, 85, 110
2, 175153, Note_on_c, 0, 76, 101
2, 175153, Note_on_c, 0, 50, 103
2, 175154, Note_on_c, 0, 38, 102
2, 175155, Note_on_c, 0, 45, 99
2, 175188, Control_c, 0, 64, 127
2, 175228, Note_on_c, 0, 86, 99
2, 175311, Note_on_c, 0, 85, 0
2, 175317, Note_on_c, 0, 85, 103
2, 175386, Note_on_c, 0, 83, 105
2, 175464, Note_on_c, 0, 85, 0
2, 175469, Note_on_c, 0, 85, 94
2, 175551, Note_on_c, 0, 81, 100
2, 175633, Note_on_c, 0, 76, 0
2, 175639, Note_on_c, 0, 76, 102
2, 175641, Note_on_c, 0, 50, 0
2, 175646, Note_on_c, 0, 50, 88
2, 175646, Note_on_c, 0, 57, 98
2, 175651, Note_on_c, 0, 54, 98
2, 175718, Note_on_c, 0, 81, 0
2, 175723, Note_on_c, 0, 81, 96
2, 175795, Note_on_c, 0, 83, 0
2, 175805, Note_on_c, 0, 83, 97
2, 175879, Note_on_c, 0, 85, 0
2, 175886, Note_on_c, 0, 85, 107
2, 175895, Note_on_c, 0, 54, 0
2, 175895, Note_on_c, 0, 57, 0
2, 175897, Note_on_c, 0, 64, 104
2, 175901, Note_on_c, 0, 57, 97
2, 175903, Note_on_c, 0, 54, 96
2, 175964, Note_on_c, 0, 83, 0
2, 175975, Note_on_c, 0, 83, 94
2, 176056, Note_on_c, 0, 85, 0
2, 176064, Note_on_c, 0, 85, 104
2, 176133, Note_on_c, 0, 38, 0
2, 176133, Note_on_c, 0, 50, 0
2, 176140, Note_on_c, 0, 50, 101
2, 176140, Note_on_c, 0, 83, 0
2, 176142, Note_on_c, 0, 38, 99
2, 176150, Note_on_c, 0, 83, 101
2, 176232, Note_on_c, 0, 85, 0
2, 176241, Note_on_c, 0, 85, 102
2, 176325, Note_on_c, 0, 86, 0
2, 176333, Note_on_c, 0, 86, 106
2, 176353, Note_on_c, 0, 45, 0
2, 176353, Note_on_c, 0, 76, 0
2, 176354, Note_on_c, 0, 54, 0
2, 176354, Note_on_c, 0, 83, 0
2, 176355, Note_on_c, 0, 50, 0
2, 176355, Note_on_c, 0, 64, 0
2, 176355, Note_on_c, 0, 38, 0
2, 176356, Note_on_c, 0, 57, 0
2, 176357, Note_on_c, 0, 81, 0
2, 176357, Control_c, 0, 64, 0
2, 176401, Note_on_c, 0, 85, 0
2, 176405, Note_on_c, 0, 52, 101
2, 176405, Note_on_c, 0, 40, 102
2, 176406, Note_on_c, 0, 47, 98
2, 176407, Note_on_c, 0, 85, 103
2, 176455, Control_c, 0, 64, 127
2, 176486, Note_on_c, 0, 86, 0
2, 176491, Note_on_c, 0, 86, 104
2, 176570, Note_on_c, 0, 85, 0
2, 176579, Note_on_c, 0, 85, 101
2, 176658, Note_on_c, 0, 83, 107
2, 176663, Note_on_c, 0, 52, 0
2, 176667, Note_on_c, 0, 57, 99
2, 176668, Note_on_c, 0, 52, 88
2, 176739, Note_on_c, 0, 85, 0
2, 176744, Note_on_c, 0, 85, 98
2, 176816, Note_on_c, 0, 83, 0
2, 176826, Note_on_c, 0, 83, 99
2, 176916, Note_on_c, 0, 57, 0
2, 176920, Note_on_c, 0, 81, 102
2, 176925, Note_on_c, 0, 57, 97
2, 176926, Note_on_c, 0, 64, 102
2, 176926, Note_on_c, 0, 59, 95
2, 177002, Note_on_c, 0, 76, 104
2, 177070, Note_on_c, 0, 83, 0
2, 177074, Note_on_c, 0, 83, 107
2, 177102, Control_c, 0, 64, 0
2, 177114, Note_on_c, 0, 86, 0
2, 177114, Note_on_c, 0, 40, 0
2, 177114, Note_on_c, 0, 47, 0
2, 177116, Note_on_c, 0, 52, 0
2, 177117, Note_on_c, 0, 59, 0
2, 177118, Note_on_c, 0, 57, 0
2, 177118, Note_on_c, 0, 83, 0
2, 177118, Note_on_c, 0, 85, 0
2, 177118, Note_on_c, 0, 81, 0
2, 177119, Note_on_c, 0, 64, 0
2, 177119, Note_on_c, 0, 76, 0
2, 177183, Note_on_c, 0, 33, 98
2, 177183, Note_on_c, 0, 45, 108
2, 177183, Note_on_c, 0, 81, 108
2, 177187, Note_on_c, 0, 76, 103
2, 177415, Control_c, 0, 64, 127
2, 177449, Note_on_c, 0, 52, 94
2, 177523, Note_on_c, 0, 45, 0
2, 177532, Note_on_c, 0, 64, 79
2, 177533, Note_on_c, 0, 45, 92
2, 177615, Note_on_c, 0, 52, 0
2, 177620, Note_on_c, 0, 52, 91
2, 177711, Note_on_c, 0, 57, 101
2, 177807, Note_on_c, 0, 52, 0
2, 177815, Note_on_c, 0, 52, 90
2, 177876, Note_on_c, 0, 57, 0
2, 177886, Note_on_c, 0, 57, 93
2, 177963, Note_on_c, 0, 59, 103
2, 177964, Note_on_c, 0, 44, 93
2, 178037, Note_on_c, 0, 52, 0
2, 178046, Note_on_c, 0, 52, 92
2, 178114, Note_on_c, 0, 59, 0
2, 178123, Note_on_c, 0, 59, 96
2, 178206, Note_on_c, 0, 62, 103
2, 178283, Note_on_c, 0, 52, 0
2, 178287, Note_on_c, 0, 52, 91
2, 178368, Note_on_c, 0, 44, 0
2, 178377, Note_on_c, 0, 44, 96
2, 178434, Control_c, 0, 64, 0
2, 178435, Note_on_c, 0, 45, 0
2, 178435, Note_on_c, 0, 57, 0
2, 178435, Note_on_c, 0, 44, 0
2, 178436, Note_on_c, 0, 52, 0
2, 178436, Note_on_c, 0, 62, 0
2, 178437, Note_on_c, 0, 59, 0
2, 178438, Note_on_c, 0, 81, 0
2, 178438, Note_on_c, 0, 76, 0
2, 178444, Note_on_c, 0, 33, 0
2, 178444, Note_on_c, 0, 64, 0
2, 178500, Note_on_c, 0, 76, 109
2, 178501, Note_on_c, 0, 68, 110
2, 178501, Note_on_c, 0, 64, 108
2, 178502, Note_on_c, 0, 71, 100
2, 178504, Note_on_c, 0, 30, 98
2, 178504, Note_on_c, 0, 42, 100
2, 178536, Control_c, 0, 64, 127
2, 178719, Note_on_c, 0, 42, 0
2, 178720, Note_on_c, 0, 64, 0
2, 178721, Note_on_c, 0, 76, 0
2, 178722, Note_on_c, 0, 71, 0
2, 178724, Control_c, 0, 64, 0
2, 178736, Note_on_c, 0, 30, 0
2, 178736, Note_on_c, 0, 68, 0
2, 178762, Note_on_c, 0, 68, 110
2, 178764, Note_on_c, 0, 76, 104
2, 178764, Note_on_c, 0, 64, 101
2, 178795, Note_on_c, 0, 68, 0
2, 178796, Note_on_c, 0, 64, 0
2, 178798, Note_on_c, 0, 76, 0
2, 179018, Note_on_c, 0, 80, 107
2, 179023, Note_on_c, 0, 68, 108
2, 179049, Note_on_c, 0, 68, 0
2, 179105, Note_on_c, 0, 80, 0
2, 179180, Note_on_c, 0, 42, 94
2, 179184, Note_on_c, 0, 30, 93
2, 179222, Note_on_c, 0, 42, 0
2, 179258, Note_on_c, 0, 30, 0
2, 179274, Control_c, 0, 64, 127
2, 179277, Note_on_c, 0, 81, 108
2, 179278, Note_on_c, 0, 69, 107
2, 179279, Note_on_c, 0, 73, 107
2, 179284, Note_on_c, 0, 76, 102
2, 179286, Note_on_c, 0, 38, 94
2, 179294, Note_on_c, 0, 26, 85
2, 179727, Note_on_c, 0, 38, 0
2, 179731, Note_on_c, 0, 38, 90
2, 179784, Note_on_c, 0, 45, 87
2, 179804, Note_on_c, 0, 76, 0
2, 179808, Note_on_c, 0, 68, 109
2, 179809, Note_on_c, 0, 80, 108
2, 179811, Note_on_c, 0, 76, 92
2, 179824, Note_on_c, 0, 50, 87
2, 180057, Note_on_c, 0, 69, 0
2, 180064, Note_on_c, 0, 74, 103
2, 180064, Note_on_c, 0, 78, 107
2, 180065, Note_on_c, 0, 69, 99
2, 180067, Note_on_c, 0, 66, 106
2, 180067, Note_on_c, 0, 62, 100
2, 180068, Note_on_c, 0, 57, 106
2, 180069, Note_on_c, 0, 54, 98
2, 180188, Note_on_c, 0, 50, 0
2, 180199, Note_on_c, 0, 50, 91
2, 180334, Note_on_c, 0, 76, 0
2, 180340, Note_on_c, 0, 64, 106
2, 180341, Note_on_c, 0, 38, 0
2, 180341, Note_on_c, 0, 68, 0
2, 180344, Note_on_c, 0, 76, 107
2, 180345, Note_on_c, 0, 68, 105
2, 180346, Note_on_c, 0, 38, 89
2, 180346, Note_on_c, 0, 71, 96
2, 180537, Note_on_c, 0, 45, 0
2, 180538, Note_on_c, 0, 57, 0
2, 180538, Note_on_c, 0, 62, 0
2, 180538, Note_on_c, 0, 54, 0
2, 180538, Note_on_c, 0, 68, 0
2, 180538, Note_on_c, 0, 80, 0
2, 180539, Note_on_c, 0, 74, 0
2, 180539, Note_on_c, 0, 81, 0
2, 180539, Note_on_c, 0, 64, 0
2, 180539, Note_on_c, 0, 38, 0
2, 180539, Note_on_c, 0, 78, 0
2, 180539, Note_on_c, 0, 69, 0
2, 180541, Note_on_c, 0, 66, 0
2, 180546, Control_c, 0, 64, 0
2, 180556, Note_on_c, 0, 26, 0
2, 180556, Note_on_c, 0, 50, 0
2, 180564, Note_on_c, 0, 73, 0
2, 180592, Note_on_c, 0, 40, 99
2, 180593, Note_on_c, 0, 28, 99
2, 180618, Control_c, 0, 64, 127
2, 180864, Note_on_c, 0, 76, 0
2, 180869, Note_on_c, 0, 76, 106
2, 180869, Note_on_c, 0, 68, 104
2, 180870, Note_on_c, 0, 64, 107
2, 180879, Note_on_c, 0, 71, 0
2, 180887, Note_on_c, 0, 28, 0
2, 180891, Control_c, 0, 64, 0
2, 180894, Note_on_c, 0, 40, 0
2, 180898, Note_on_c, 0, 68, 0
2, 180898, Note_on_c, 0, 64, 0
2, 180898, Note_on_c, 0, 76, 0
2, 181130, Note_on_c, 0, 83, 107
2, 181130, Note_on_c, 0, 71, 104
2, 181134, Note_on_c, 0, 80, 100
2, 181134, Note_on_c, 0, 76, 96
2, 181165, Note_on_c, 0, 71, 0
2, 181167, Note_on_c, 0, 76, 0
2, 181167, Note_on_c, 0, 83, 0
2, 181173, Note_on_c, 0, 80, 0
2, 181201, Control_c, 0, 64, 127
2, 181248, Control_c, 0, 64, 0
2, 181281, Note_on_c, 0, 28, 94
2, 181281, Note_on_c, 0, 40, 89
2, 181314, Note_on_c, 0, 28, 0
2, 181332, Control_c, 0, 64, 127
2, 181344, Control_c, 0, 64, 0
2, 181355, Note_on_c, 0, 40, 0
2, 181397, Note_on_c, 0, 81, 111
2, 181397, Note_on_c, 0, 69, 106
2, 181398, Note_on_c, 0, 73, 109
2, 181399, Note_on_c, 0, 76, 99
2, 181404, Note_on_c, 0, 33, 97
2, 181404, Note_on_c, 0, 45, 107
2, 181432, Control_c, 0, 64, 127
2, 181777, Note_on_c, 0, 45, 0
2, 181782, Note_on_c, 0, 45, 84
2, 181889, Note_on_c, 0, 57, 101
2, 181894, Note_on_c, 0, 80, 101
2, 181897, Note_on_c, 0, 52, 98
2, 181899, Note_on_c, 0, 49, 95
2, 181901, Note_on_c, 0, 68, 105
2, 182112, Note_on_c, 0, 80, 0
2, 182113, Note_on_c, 0, 73, 0
2, 182113, Note_on_c, 0, 49, 0
2, 182114, Note_on_c, 0, 57, 0
2, 182114, Note_on_c, 0, 81, 0
2, 182115, Note_on_c, 0, 52, 0
2, 182116, Note_on_c, 0, 69, 0
2, 182119, Control_c, 0, 64, 0
2, 182131, Note_on_c, 0, 33, 0
2, 182131, Note_on_c, 0, 45, 0
2, 182138, Note_on_c, 0, 68, 0
2, 182146, Note_on_c, 0, 76, 0
2, 182149, Note_on_c, 0, 68, 109
2, 182150, Note_on_c, 0, 71, 102
2, 182150, Note_on_c, 0, 76, 105
2, 182151, Note_on_c, 0, 64, 105
2, 182160, Note_on_c, 0, 44, 92
2, 182164, Note_on_c, 0, 32, 84
2, 182200, Control_c, 0, 64, 127
2, 182407, Note_on_c, 0, 71, 0
2, 182413, Note_on_c, 0, 59, 102
2, 182414, Note_on_c, 0, 56, 94
2, 182414, Note_on_c, 0, 71, 88
2, 182417, Note_on_c, 0, 52, 93
2, 182461, Note_on_c, 0, 68, 0
2, 182469, Note_on_c, 0, 76, 0
2, 182472, Note_on_c, 0, 68, 74
2, 182475, Note_on_c, 0, 76, 101
2, 182538, Note_on_c, 0, 81, 101
2, 182605, Note_on_c, 0, 68, 0
2, 182606, Note_on_c, 0, 59, 0
2, 182607, Note_on_c, 0, 32, 0
2, 182608, Note_on_c, 0, 56, 0
2, 182609, Note_on_c, 0, 71, 0
2, 182609, Note_on_c, 0, 64, 0
2, 182610, Note_on_c, 0, 76, 0
2, 182611, Note_on_c, 0, 52, 0
2, 182611, Control_c, 0, 64, 0
2, 182611, Note_on_c, 0, 81, 0
2, 182615, Note_on_c, 0, 44, 0
2, 182684, Note_on_c, 0, 42, 105
2, 182686, Note_on_c, 0, 30, 105
2, 182688, Note_on_c, 0, 85, 106
2, 182690, Note_on_c, 0, 76, 106
2, 182714, Control_c, 0, 64, 127
2, 182780, Note_on_c, 0, 86, 105
2, 182860, Note_on_c, 0, 85, 0
2, 182870, Note_on_c, 0, 85, 102
2, 182954, Note_on_c, 0, 57, 99
2, 182955, Note_on_c, 0, 54, 94
2, 182956, Note_on_c, 0, 83, 101
2, 183037, Note_on_c, 0, 85, 0
2, 183042, Note_on_c, 0, 85, 98
2, 183121, Note_on_c, 0, 81, 99
2, 183214, Note_on_c, 0, 57, 0
2, 183214, Note_on_c, 0, 76, 0
2, 183216, Note_on_c, 0, 64, 107
2, 183218, Note_on_c, 0, 76, 99
2, 183219, Note_on_c, 0, 57, 95
2, 183220, Note_on_c, 0, 61, 86
2, 183290, Note_on_c, 0, 81, 0
2, 183294, Note_on_c, 0, 81, 93
2, 183367, Note_on_c, 0, 83, 0
2, 183377, Note_on_c, 0, 83, 88
2, 183434, Note_on_c, 0, 42, 0
2, 183434, Note_on_c, 0, 86, 0
2, 183435, Note_on_c, 0, 54, 0
2, 183437, Note_on_c, 0, 83, 0
2, 183438, Note_on_c, 0, 61, 0
2, 183438, Note_on_c, 0, 57, 0
2, 183438, Note_on_c, 0, 64, 0
2, 183439, Note_on_c, 0, 81, 0
2, 183440, Control_c, 0, 64, 0
2, 183444, Note_on_c, 0, 30, 0
2, 183459, Note_on_c, 0, 85, 0
2, 183467, Note_on_c, 0, 76, 0
2, 183468, Note_on_c, 0, 85, 110
2, 183471, Note_on_c, 0, 76, 101
2, 183483, Note_on_c, 0, 50, 104
2, 183486, Note_on_c, 0, 38, 101
2, 183490, Note_on_c, 0, 45, 96
2, 183513, Control_c, 0, 64, 127
2, 183546, Note_on_c, 0, 86, 105
2, 183644, Note_on_c, 0, 85, 0
2, 183649, Note_on_c, 0, 85, 104
2, 183732, Note_on_c, 0, 83, 105
2, 183813, Note_on_c, 0, 85, 0
2, 183817, Note_on_c, 0, 85, 94
2, 183893, Note_on_c, 0, 81, 89
2, 183974, Note_on_c, 0, 76, 0
2, 183984, Note_on_c, 0, 76, 103
2, 183989, Note_on_c, 0, 50, 0
2, 183999, Note_on_c, 0, 50, 90
2, 184066, Note_on_c, 0, 81, 0
2, 184070, Note_on_c, 0, 81, 95
2, 184143, Note_on_c, 0, 83, 0
2, 184151, Note_on_c, 0, 83, 98
2, 184220, Note_on_c, 0, 85, 0
2, 184230, Note_on_c, 0, 85, 107
2, 184237, Note_on_c, 0, 64, 105
2, 184239, Note_on_c, 0, 54, 98
2, 184239, Note_on_c, 0, 57, 98
2, 184296, Note_on_c, 0, 83, 0
2, 184300, Note_on_c, 0, 83, 87
2, 184366, Note_on_c, 0, 85, 0
2, 184377, Note_on_c, 0, 85, 100
2, 184458, Note_on_c, 0, 81, 0
2, 184464, Note_on_c, 0, 81, 99
2, 184465, Note_on_c, 0, 38, 0
2, 184465, Note_on_c, 0, 50, 0
2, 184472, Note_on_c, 0, 50, 96
2, 184476, Note_on_c, 0, 38, 94
2, 184550, Note_on_c, 0, 83, 0
2, 184555, Note_on_c, 0, 83, 98
2, 184634, Note_on_c, 0, 85, 0
2, 184639, Note_on_c, 0, 85, 101
2, 184646, Control_c, 0, 64, 0
2, 184650, Note_on_c, 0, 45, 0
2, 184650, Note_on_c, 0, 86, 0
2, 184652, Note_on_c, 0, 54, 0
2, 184653, Note_on_c, 0, 38, 0
2, 184653, Note_on_c, 0, 57, 0
2, 184653, Note_on_c, 0, 50, 0
2, 184654, Note_on_c, 0, 64, 0
2, 184655, Note_on_c, 0, 83, 0
2, 184655, Note_on_c, 0, 81, 0
2, 184665, Note_on_c, 0, 76, 0
2, 184762, Note_on_c, 0, 88, 108
2, 184766, Note_on_c, 0, 40, 102
2, 184768, Note_on_c, 0, 47, 101
2, 184768, Note_on_c, 0, 52, 102
2, 184796, Control_c, 0, 64, 127
2, 184803, Note_on_c, 0, 85, 0
2, 184843, Note_on_c, 0, 86, 99
2, 184930, Note_on_c, 0, 85, 105
2, 185026, Note_on_c, 0, 52, 0
2, 185026, Note_on_c, 0, 86, 0
2, 185030, Note_on_c, 0, 86, 104
2, 185036, Note_on_c, 0, 57, 101
2, 185037, Note_on_c, 0, 52, 90
2, 185103, Note_on_c, 0, 85, 0
2, 185114, Note_on_c, 0, 85, 101
2, 185192, Note_on_c, 0, 83, 101
2, 185264, Note_on_c, 0, 57, 0
2, 185272, Note_on_c, 0, 52, 0
2, 185273, Note_on_c, 0, 81, 100
2, 185274, Note_on_c, 0, 64, 101
2, 185274, Note_on_c, 0, 57, 97
2, 185275, Note_on_c, 0, 59, 100
2, 185276, Note_on_c, 0, 52, 91
2, 185360, Note_on_c, 0, 80, 96
2, 185433, Note_on_c, 0, 83, 0
2, 185439, Note_on_c, 0, 83, 100
2, 185450, Control_c, 0, 64, 0
2, 185453, Note_on_c, 0, 86, 0
2, 185453, Note_on_c, 0, 40, 0
2, 185453, Note_on_c, 0, 85, 0
2, 185453, Note_on_c, 0, 64, 0
2, 185453, Note_on_c, 0, 47, 0
2, 185453, Note_on_c, 0, 52, 0
2, 185454, Note_on_c, 0, 80, 0
2, 185454, Note_on_c, 0, 57, 0
2, 185454, Note_on_c, 0, 59, 0
2, 185454, Note_on_c, 0, 88, 0
2, 185456, Note_on_c, 0, 81, 0
2, 185495, Note_on_c, 0, 83, 0
2, 185538, Note_on_c, 0, 81, 107
2, 185540, Note_on_c, 0, 45, 109
2, 185540, Note_on_c, 0, 33, 101
2, 185710, Control_c, 0, 64, 127
2, 185808, Note_on_c, 0, 52, 89
2, 185886, Note_on_c, 0, 45, 0
2, 185896, Note_on_c, 0, 45, 88
2, 185963, Note_on_c, 0, 52, 0
2, 185974, Note_on_c, 0, 52, 86
2, 186065, Note_on_c, 0, 57, 99
2, 186140, Note_on_c, 0, 52, 0
2, 186151, Note_on_c, 0, 52, 80
2, 186224, Note_on_c, 0, 57, 0
2, 186235, Note_on_c, 0, 57, 88
2, 186309, Note_on_c, 0, 52, 0
2, 186316, Note_on_c, 0, 59, 98
2, 186320, Note_on_c, 0, 52, 83
2, 186321, Note_on_c, 0, 44, 96
2, 186582, Note_on_c, 0, 62, 92
2, 186739, Note_on_c, 0, 62, 0
2, 186749, Note_on_c, 0, 62, 88
2, 186774, Control_c, 0, 64, 0
2, 186777, Note_on_c, 0, 81, 0
2, 186777, Note_on_c, 0, 44, 0
2, 186778, Note_on_c, 0, 45, 0
2, 186778, Note_on_c, 0, 59, 0
2, 186779, Note_on_c, 0, 57, 0
2, 186779, Note_on_c, 0, 33, 0
2, 186779, Note_on_c, 0, 52, 0
2, 186845, Note_on_c, 0, 61, 96
2, 186847, Note_on_c, 0, 57, 93
2, 186850, Note_on_c, 0, 52, 85
2, 186852, Note_on_c, 0, 42, 90
2, 186900, Control_c, 0, 64, 127
2, 187099, Note_on_c, 0, 73, 101
2, 187368, Note_on_c, 0, 73, 0
2, 187374, Note_on_c, 0, 73, 105
2, 187378, Note_on_c, 0, 69, 94
2, 187643, Note_on_c, 0, 74, 107
2, 187910, Note_on_c, 0, 57, 0
2, 187911, Note_on_c, 0, 61, 0
2, 187911, Control_c, 0, 64, 0
2, 187911, Note_on_c, 0, 69, 0
2, 187912, Note_on_c, 0, 42, 0
2, 187912, Note_on_c, 0, 73, 0
2, 187912, Note_on_c, 0, 74, 0
2, 187914, Note_on_c, 0, 52, 0
2, 187920, Note_on_c, 0, 76, 103
2, 187921, Note_on_c, 0, 62, 0
2, 187923, Note_on_c, 0, 71, 89
2, 187924, Note_on_c, 0, 52, 93
2, 187924, Note_on_c, 0, 64, 98
2, 187925, Note_on_c, 0, 68, 97
2, 187926, Note_on_c, 0, 40, 84
2, 188067, Control_c, 0, 64, 127
2, 188333, Note_on_c, 0, 83, 107
2, 188336, Note_on_c, 0, 64, 0
2, 188336, Note_on_c, 0, 71, 0
2, 188336, Note_on_c, 0, 76, 0
2, 188341, Note_on_c, 0, 80, 93
2, 188342, Note_on_c, 0, 71, 97
2, 188347, Note_on_c, 0, 76, 94
2, 188761, Note_on_c, 0, 81, 106
2, 188766, Note_on_c, 0, 76, 0
2, 188768, Note_on_c, 0, 69, 94
2, 188771, Note_on_c, 0, 73, 88
2, 188773, Note_on_c, 0, 76, 93
2, 188802, Note_on_c, 0, 71, 0
2, 188803, Note_on_c, 0, 80, 0
2, 188806, Note_on_c, 0, 68, 0
2, 188807, Note_on_c, 0, 83, 0
2, 188935, Note_on_c, 0, 52, 0
2, 188943, Note_on_c, 0, 40, 0
2, 189046, Control_c, 0, 64, 0
2, 189077, Note_on_c, 0, 47, 85
2, 189084, Note_on_c, 0, 35, 76
2, 189204, Control_c, 0, 64, 127
2, 189381, Note_on_c, 0, 35, 0
2, 189834, Note_on_c, 0, 47, 0
2, 189843, Note_on_c, 0, 47, 70
2, 189936, Note_on_c, 0, 54, 70
2, 190021, Note_on_c, 0, 57, 82
2, 190109, Note_on_c, 0, 64, 91
2, 190198, Note_on_c, 0, 61, 75
2, 190279, Note_on_c, 0, 57, 0
2, 190290, Note_on_c, 0, 57, 70
2, 190389, Note_on_c, 0, 59, 64
2, 190410, Note_on_c, 0, 57, 0
2, 190416, Note_on_c, 0, 57, 53
2, 190480, Note_on_c, 0, 66, 70
2, 190548, Note_on_c, 0, 69, 0
2, 190554, Note_on_c, 0, 69, 72
2, 190625, Note_on_c, 0, 76, 0
2, 190635, Note_on_c, 0, 76, 87
2, 190709, Note_on_c, 0, 73, 0
2, 190719, Note_on_c, 0, 73, 78
2, 190786, Note_on_c, 0, 69, 0
2, 190796, Note_on_c, 0, 69, 74
2, 190892, Note_on_c, 0, 71, 68
2, 190979, Note_on_c, 0, 78, 65
2, 191063, Note_on_c, 0, 81, 0
2, 191072, Note_on_c, 0, 81, 66
2, 191155, Note_on_c, 0, 93, 94
2, 191157, Note_on_c, 0, 85, 86
2, 191158, Note_on_c, 0, 88, 69
2, 192023, Note_on_c, 0, 69, 0
2, 192031, Note_on_c, 0, 69, 60
2, 192322, Note_on_c, 0, 69, 0
2, 192327, Note_on_c, 0, 69, 69
2, 192583, Note_on_c, 0, 69, 0
2, 192591, Note_on_c, 0, 69, 61
2, 192875, Note_on_c, 0, 73, 0
2, 192884, Note_on_c, 0, 73, 69
2, 193190, Note_on_c, 0, 69, 0
2, 193199, Note_on_c, 0, 69, 66
2, 193497, Note_on_c, 0, 57, 0
2, 193499, Note_on_c, 0, 42, 44
2, 193501, Note_on_c, 0, 52, 35
2, 193502, Note_on_c, 0, 57, 46
2, 193514, Control_c, 0, 64, 0
2, 193517, Note_on_c, 0, 54, 0
2, 193518, Note_on_c, 0, 47, 0
2, 193519, Note_on_c, 0, 93, 0
2, 193519, Note_on_c, 0, 88, 0
2, 193519, Note_on_c, 0, 64, 0
2, 193519, Note_on_c, 0, 69, 0
2, 193520, Note_on_c, 0, 81, 0
2, 193520, Note_on_c, 0, 66, 0
2, 193520, Note_on_c, 0, 61, 0
2, 193520, Note_on_c, 0, 85, 0
2, 193520, Note_on_c, 0, 76, 0
2, 193521, Note_on_c, 0, 78, 0
2, 193521, Note_on_c, 0, 73, 0
2, 193521, Note_on_c, 0, 59, 0
2, 193522, Note_on_c, 0, 71, 0
2, 193551, Control_c, 0, 64, 127
2, 194384, Note_on_c, 0, 59, 57
2, 194388, Note_on_c, 0, 52, 0
2, 194388, Note_on_c, 0, 57, 0
2, 194392, Note_on_c, 0, 44, 48
2, 194393, Note_on_c, 0, 54, 38
2, 194393, Note_on_c, 0, 57, 49
2, 194397, Note_on_c, 0, 52, 36
2, 194432, Control_c, 0, 64, 0
2, 194438, Note_on_c, 0, 42, 0
2, 194603, Control_c, 0, 64, 127
2, 195801, Note_on_c, 0, 52, 0
2, 195801, Note_on_c, 0, 59, 0
2, 195809, Note_on_c, 0, 57, 0
2, 195810, Note_on_c, 0, 61, 48
2, 195811, Note_on_c, 0, 45, 52
2, 195812, Note_on_c, 0, 59, 49
2, 195812, Note_on_c, 0, 52, 43
2, 195820, Note_on_c, 0, 57, 45
2, 195844, Note_on_c, 0, 54, 0
2, 195845, Note_on_c, 0, 44, 0
2, 195860, Control_c, 0, 64, 0
2, 195978, Control_c, 0, 64, 127
2, 196661, Note_on_c, 0, 57, 0
2, 196669, Note_on_c, 0, 59, 0
2, 196671, Note_on_c, 0, 57, 48
2, 196673, Note_on_c, 0, 66, 47
2, 196676, Note_on_c, 0, 50, 41
2, 196679, Note_on_c, 0, 59, 41
2, 196680, Note_on_c, 0, 54, 35
2, 196694, Note_on_c, 0, 61, 0
2, 196696, Note_on_c, 0, 45, 0
2, 196702, Control_c, 0, 64, 0
2, 196715, Note_on_c, 0, 52, 0
2, 196907, Control_c, 0, 64, 127
2, 198205, Note_on_c, 0, 69, 56
2, 198205, Note_on_c, 0, 59, 0
2, 198209, Note_on_c, 0, 59, 48
2, 198210, Note_on_c, 0, 42, 38
2, 198213, Note_on_c, 0, 57, 0
2, 198213, Note_on_c, 0, 52, 32
2, 198217, Note_on_c, 0, 57, 42
2, 198246, Control_c, 0, 64, 0
2, 198247, Note_on_c, 0, 50, 0
2, 198248, Note_on_c, 0, 66, 0
2, 198282, Note_on_c, 0, 54, 0
2, 198689, Control_c, 0, 64, 127
2, 199011, Note_on_c, 0, 59, 0
2, 199019, Note_on_c, 0, 52, 0
2, 199022, Note_on_c, 0, 71, 61
2, 199022, Note_on_c, 0, 59, 39
2, 199023, Note_on_c, 0, 44, 44
2, 199025, Note_on_c, 0, 54, 38
2, 199025, Note_on_c, 0, 52, 39
2, 199048, Note_on_c, 0, 69, 0
2, 199052, Note_on_c, 0, 42, 0
2, 199056, Control_c, 0, 64, 0
2, 199065, Note_on_c, 0, 57, 0
2, 199580, Control_c, 0, 64, 127
2, 200477, Note_on_c, 0, 73, 63
2, 200478, Note_on_c, 0, 52, 0
2, 200478, Note_on_c, 0, 59, 0
2, 200481, Note_on_c, 0, 45, 41
2, 200483, Note_on_c, 0, 59, 41
2, 200484, Note_on_c, 0, 52, 33
2, 200515, Control_c, 0, 64, 0
2, 200532, Note_on_c, 0, 54, 0
2, 200533, Note_on_c, 0, 44, 0
2, 200535, Note_on_c, 0, 71, 0
2, 200693, Control_c, 0, 64, 127
2, 201315, Note_on_c, 0, 45, 0
2, 201320, Note_on_c, 0, 45, 38
2, 201321, Note_on_c, 0, 81, 73
2, 201323, Note_on_c, 0, 50, 41
2, 201326, Note_on_c, 0, 57, 43
2, 201327, Note_on_c, 0, 69, 55
2, 201329, Note_on_c, 0, 54, 35
2, 201355, Control_c, 0, 64, 0
2, 201357, Note_on_c, 0, 73, 0
2, 201361, Note_on_c, 0, 59, 0
2, 201369, Note_on_c, 0, 52, 0
2, 202149, Note_on_c, 0, 80, 75
2, 202206, Note_on_c, 0, 81, 0
2, 202213, Note_on_c, 0, 81, 82
2, 202222, Note_on_c, 0, 45, 0
2, 202252, Control_c, 0, 64, 127
2, 202314, Note_on_c, 0, 80, 0
2, 202320, Note_on_c, 0, 80, 66
2, 202455, Note_on_c, 0, 76, 66
2, 202590, Note_on_c, 0, 71, 63
2, 202656, Note_on_c, 0, 76, 0
2, 202665, Note_on_c, 0, 57, 0
2, 202670, Note_on_c, 0, 80, 0
2, 202679, Control_c, 0, 64, 0
2, 202690, Note_on_c, 0, 50, 0
2, 202698, Note_on_c, 0, 54, 0
2, 202700, Note_on_c, 0, 71, 0
2, 202705, Note_on_c, 0, 69, 0
2, 202707, Note_on_c, 0, 54, 63
2, 202710, Note_on_c, 0, 69, 79
2, 202936, Control_c, 0, 64, 127
2, 202961, Note_on_c, 0, 61, 59
2, 203097, Note_on_c, 0, 73, 72
2, 203101, Note_on_c, 0, 64, 55
2, 203212, Note_on_c, 0, 69, 0
2, 203222, Note_on_c, 0, 69, 53
2, 203224, Note_on_c, 0, 76, 64
2, 203328, Note_on_c, 0, 81, 0
2, 203333, Note_on_c, 0, 81, 73
2, 203484, Note_on_c, 0, 71, 84
2, 203486, Note_on_c, 0, 56, 66
2, 203488, Note_on_c, 0, 66, 64
2, 203495, Control_c, 0, 64, 0
2, 203522, Note_on_c, 0, 69, 0
2, 203522, Note_on_c, 0, 54, 0
2, 203523, Note_on_c, 0, 64, 0
2, 203523, Note_on_c, 0, 76, 0
2, 203524, Note_on_c, 0, 81, 0
2, 203524, Note_on_c, 0, 61, 0
2, 203525, Note_on_c, 0, 73, 0
2, 203796, Control_c, 0, 64, 127
2, 203875, Note_on_c, 0, 64, 63
2, 204019, Note_on_c, 0, 66, 0
2, 204026, Note_on_c, 0, 66, 61
2, 204142, Note_on_c, 0, 71, 0
2, 204147, Note_on_c, 0, 71, 70
2, 204288, Note_on_c, 0, 83, 67
2, 204289, Note_on_c, 0, 76, 55
2, 204828, Note_on_c, 0, 66, 0
2, 204829, Note_on_c, 0, 56, 0
2, 204829, Note_on_c, 0, 83, 0
2, 204829, Note_on_c, 0, 76, 0
2, 204829, Note_on_c, 0, 64, 0
2, 204833, Note_on_c, 0, 71, 0
2, 204834, Control_c, 0, 64, 0
2, 204834, Note_on_c, 0, 73, 81
2, 204836, Note_on_c, 0, 57, 72
2, 204836, Note_on_c, 0, 69, 70
2, 204979, Control_c, 0, 64, 127
2, 205078, Note_on_c, 0, 64, 54
2, 205186, Note_on_c, 0, 69, 0
2, 205197, Note_on_c, 0, 69, 61
2, 205198, Note_on_c, 0, 76, 63
2, 205334, Note_on_c, 0, 71, 61
2, 205335, Note_on_c, 0, 81, 69
2, 205462, Note_on_c, 0, 85, 68
2, 205582, Note_on_c, 0, 71, 0
2, 205583, Note_on_c, 0, 64, 0
2, 205583, Note_on_c, 0, 73, 0
2, 205584, Note_on_c, 0, 76, 0
2, 205586, Note_on_c, 0, 57, 0
2, 205586, Note_on_c, 0, 81, 0
2, 205587, Note_on_c, 0, 85, 0
2, 205596, Control_c, 0, 64, 0
2, 205604, Note_on_c, 0, 78, 88
2, 205605, Note_on_c, 0, 62, 80
2, 205607, Note_on_c, 0, 74, 80
2, 205739, Control_c, 0, 64, 127
2, 205900, Note_on_c, 0, 69, 0
2, 206005, Note_on_c, 0, 69, 65
2, 206108, Note_on_c, 0, 74, 0
2, 206118, Note_on_c, 0, 74, 73
2, 206234, Note_on_c, 0, 76, 63
2, 206369, Note_on_c, 0, 78, 0
2, 206378, Note_on_c, 0, 90, 79
2, 206378, Note_on_c, 0, 78, 76
2, 206379, Note_on_c, 0, 81, 73
2, 206863, Note_on_c, 0, 90, 0
2, 206864, Note_on_c, 0, 76, 0
2, 206864, Note_on_c, 0, 74, 0
2, 206864, Note_on_c, 0, 62, 0
2, 206870, Control_c, 0, 64, 0
2, 206883, Note_on_c, 0, 69, 0
2, 206883, Note_on_c, 0, 81, 0
2, 206887, Note_on_c, 0, 54, 73
2, 206891, Note_on_c, 0, 78, 0
2, 206892, Note_on_c, 0, 69, 80
2, 206894, Note_on_c, 0, 81, 92
2, 206905, Note_on_c, 0, 73, 83
2, 206911, Note_on_c, 0, 76, 63
2, 207006, Control_c, 0, 64, 127
2, 207132, Note_on_c, 0, 61, 64
2, 207252, Note_on_c, 0, 81, 0
2, 207256, Note_on_c, 0, 64, 62
2, 207257, Note_on_c, 0, 81, 80
2, 207367, Note_on_c, 0, 69, 0
2, 207372, Note_on_c, 0, 69, 71
2, 207373, Note_on_c, 0, 88, 81
2, 207495, Note_on_c, 0, 93, 88
2, 207655, Note_on_c, 0, 56, 79
2, 207656, Control_c, 0, 64, 0
2, 207659, Note_on_c, 0, 76, 0
2, 207662, Note_on_c, 0, 83, 91
2, 207664, Note_on_c, 0, 71, 82
2, 207665, Note_on_c, 0, 69, 0
2, 207666, Note_on_c, 0, 88, 0
2, 207666, Note_on_c, 0, 93, 0
2, 207666, Note_on_c, 0, 64, 0
2, 207667, Note_on_c, 0, 54, 0
2, 207668, Note_on_c, 0, 61, 0
2, 207669, Note_on_c, 0, 81, 0
2, 207669, Note_on_c, 0, 73, 0
2, 207670, Note_on_c, 0, 76, 84
2, 207797, Control_c, 0, 64, 127
2, 208035, Note_on_c, 0, 83, 0
2, 208045, Note_on_c, 0, 64, 66
2, 208046, Note_on_c, 0, 83, 68
2, 208176, Note_on_c, 0, 88, 79
2, 208177, Note_on_c, 0, 66, 71
2, 208281, Note_on_c, 0, 71, 0
2, 208291, Note_on_c, 0, 71, 63
2, 208292, Note_on_c, 0, 90, 70
2, 208404, Note_on_c, 0, 76, 0
2, 208412, Note_on_c, 0, 76, 71
2, 208414, Note_on_c, 0, 95, 84
2, 208937, Note_on_c, 0, 95, 0
2, 208953, Control_c, 0, 64, 0
2, 208957, Note_on_c, 0, 76, 0
2, 208962, Note_on_c, 0, 57, 88
2, 208962, Note_on_c, 0, 85, 96
2, 208964, Note_on_c, 0, 73, 90
2, 208967, Note_on_c, 0, 76, 86
2, 208978, Note_on_c, 0, 64, 0
2, 208980, Note_on_c, 0, 90, 0
2, 208988, Note_on_c, 0, 66, 0
2, 208990, Note_on_c, 0, 56, 0
2, 208992, Note_on_c, 0, 88, 0
2, 208992, Note_on_c, 0, 71, 0
2, 209003, Note_on_c, 0, 83, 0
2, 209103, Control_c, 0, 64, 127
2, 209198, Note_on_c, 0, 64, 66
2, 209310, Note_on_c, 0, 85, 0
2, 209321, Note_on_c, 0, 85, 75
2, 209324, Note_on_c, 0, 71, 75
2, 209448, Note_on_c, 0, 73, 0
2, 209456, Note_on_c, 0, 88, 79
2, 209456, Note_on_c, 0, 73, 68
2, 209593, Note_on_c, 0, 97, 93
2, 209731, Note_on_c, 0, 62, 90
2, 209735, Note_on_c, 0, 97, 0
2, 209736, Note_on_c, 0, 64, 0
2, 209737, Note_on_c, 0, 73, 0
2, 209737, Note_on_c, 0, 71, 0
2, 209737, Note_on_c, 0, 57, 0
2, 209743, Control_c, 0, 64, 0
2, 209744, Note_on_c, 0, 93, 104
2, 209748, Note_on_c, 0, 76, 0
2, 209748, Note_on_c, 0, 88, 0
2, 209753, Note_on_c, 0, 81, 90
2, 209756, Note_on_c, 0, 85, 0
2, 209757, Note_on_c, 0, 88, 91
2, 209761, Note_on_c, 0, 85, 88
2, 210071, Control_c, 0, 64, 127
2, 210155, Note_on_c, 0, 93, 0
2, 210158, Note_on_c, 0, 69, 73
2, 210165, Note_on_c, 0, 93, 79
2, 210271, Note_on_c, 0, 74, 67
2, 210274, Note_on_c, 0, 97, 91
2, 210383, Note_on_c, 0, 100, 88
2, 210387, Note_on_c, 0, 76, 60
2, 210516, Note_on_c, 0, 76, 0
2, 210520, Note_on_c, 0, 102, 73
2, 210526, Note_on_c, 0, 76, 50
2, 211074, Note_on_c, 0, 98, 95
2, 211092, Note_on_c, 0, 81, 0
2, 211095, Note_on_c, 0, 86, 65
2, 211096, Note_on_c, 0, 81, 61
2, 211883, Note_on_c, 0, 97, 0
2, 211892, Note_on_c, 0, 97, 92
2, 211898, Note_on_c, 0, 88, 0
2, 211909, Note_on_c, 0, 88, 62
2, 212682, Note_on_c, 0, 93, 0
2, 212689, Note_on_c, 0, 93, 72
2, 212697, Note_on_c, 0, 86, 0
2, 212702, Note_on_c, 0, 86, 50
2, 212704, Note_on_c, 0, 90, 54
2, 213120, Note_on_c, 0, 62, 0
2, 213120, Note_on_c, 0, 69, 0
2, 213120, Note_on_c, 0, 74, 0
2, 213120, Note_on_c, 0, 76, 0
2, 213120, Note_on_c, 0, 100, 0
2, 213120, Note_on_c, 0, 102, 0
2, 213265, Note_on_c, 0, 81, 0
2, 213265, Note_on_c, 0, 86, 0
2, 213265, Note_on_c, 0, 98, 0
2, 213270, Note_on_c, 0, 74, 49
2, 213270, Note_on_c, 0, 81, 63
2, 213270, Note_on_c, 0, 86, 61
2, 213276, Note_on_c, 0, 78, 54
2, 214103, Note_on_c, 0, 85, 0
2, 214110, Note_on_c, 0, 85, 53
2, 214124, Note_on_c, 0, 76, 42
2, 214150, Note_on_c, 0, 69, 16
2, 214970, Note_on_c, 0, 81, 0
2, 214978, Note_on_c, 0, 74, 0
2, 214980, Note_on_c, 0, 81, 60
2, 214986, Note_on_c, 0, 74, 47
2, 214995, Note_on_c, 0, 59, 23
2, 215001, Note_on_c, 0, 59, 0
2, 215001, Note_on_c, 0, 78, 0
2, 215005, Note_on_c, 0, 78, 32
2, 215539, Note_on_c, 0, 69, 0
2, 215539, Note_on_c, 0, 76, 0
2, 215544, Note_on_c, 0, 76, 48
2, 215544, Note_on_c, 0, 73, 46
2, 215546, Note_on_c, 0, 62, 38
2, 215548, Note_on_c, 0, 69, 41
2, 215551, Note_on_c, 0, 66, 37
2, 215580, Control_c, 0, 64, 0
2, 215623, Control_c, 0, 64, 127
2, 216499, Note_on_c, 0, 97, 0
2, 216514, Note_on_c, 0, 88, 0
2, 216960, Note_on_c, 0, 78, 0
2, 216960, Note_on_c, 0, 81, 0
2, 216960, Note_on_c, 0, 85, 0
2, 216960, Note_on_c, 0, 86, 0
2, 216960, Note_on_c, 0, 90, 0
2, 216960, Note_on_c, 0, 93, 0
2, 217927, Note_on_c, 0, 76, 0
2, 217935, Note_on_c, 0, 69, 0
2, 217935, Note_on_c, 0, 73, 0
2, 217935, Note_on_c, 0, 76, 47
2, 217943, Note_on_c, 0, 66, 0
2, 217944, Note_on_c, 0, 73, 39
2, 217945, Note_on_c, 0, 57, 38
2, 217945, Note_on_c, 0, 54, 35
2, 217946, Note_on_c, 0, 69, 39
2, 217946, Note_on_c, 0, 64, 36
2, 217947, Note_on_c, 0, 50, 39
2, 217947, Note_on_c, 0, 66, 39
2, 217950, Note_on_c, 0, 62, 0
2, 217956, Note_on_c, 0, 62, 33
2, 218043, Control_c, 0, 64, 0
2, 218196, Control_c, 0, 64, 127
2, 219125, Note_on_c, 0, 74, 0
2, 220800, Note_on_c, 0, 54, 0
2, 220800, Note_on_c, 0, 57, 0
2, 220800, Note_on_c, 0, 62, 0
2, 220800, Note_on_c, 0, 64, 0
2, 220800, Note_on_c, 0, 66, 0
2, 220800, Note_on_c, 0, 69, 0
2, 220800, Note_on_c, 0, 73, 0
2, 220800, Note_on_c, 0, 76, 0
2, 222558, Note_on_c, 0, 50, 0
2, 223848, Control_c, 0, 64, 0
2, 225523, Control_c, 0, 64, 127
2, 226429, Control_c, 0, 64, 0
2, 226430, End_track
0, 0, End_of_file
