0, 0, Header, 1, 2, 384
1, 0, Start_track
1, 0, Tempo, 500000
1, 0, Time_signature, 4, 2, 24, 8
1, 1, End_track
2, 0, Start_track
2, 7, Control_c, 0, 64, 127
2, 867, Control_c, 0, 64, 0
2, 885, Note_on_c, 0, 99, 74
2, 886, Note_on_c, 0, 79, 64
2, 887, Note_on_c, 0, 70, 61
2, 900, Note_on_c, 0, 75, 56
2, 901, Note_on_c, 0, 87, 54
2, 952, Control_c, 0, 64, 127
2, 958, Note_on_c, 0, 94, 80
2, 1041, Note_on_c, 0, 91, 56
2, 1090, Note_on_c, 0, 94, 0
2, 1099, Note_on_c, 0, 94, 79
2, 1167, Note_on_c, 0, 91, 0
2, 1174, Note_on_c, 0, 91, 71
2, 1233, Note_on_c, 0, 89, 78
2, 1305, Note_on_c, 0, 87, 0
2, 1310, Note_on_c, 0, 87, 79
2, 1367, Note_on_c, 0, 89, 0
2, 1371, Note_on_c, 0, 89, 76
2, 1451, Note_on_c, 0, 87, 0
2, 1461, Note_on_c, 0, 87, 89
2, 1474, Note_on_c, 0, 70, 0
2, 1485, Note_on_c, 0, 70, 65
2, 1489, Note_on_c, 0, 63, 57
2, 1491, Note_on_c, 0, 67, 58
2, 1546, Note_on_c, 0, 82, 75
2, 1597, Note_on_c, 0, 79, 0
2, 1608, Note_on_c, 0, 79, 60
2, 1651, Note_on_c, 0, 82, 0
2, 1658, Note_on_c, 0, 82, 80
2, 1728, Note_on_c, 0, 79, 0
2, 1739, Note_on_c, 0, 79, 78
2, 1817, Note_on_c, 0, 77, 80
2, 1904, Note_on_c, 0, 75, 0
2, 1910, Note_on_c, 0, 75, 66
2, 1950, Note_on_c, 0, 77, 0
2, 1960, Note_on_c, 0, 77, 74
2, 2004, Note_on_c, 0, 75, 0
2, 2015, Note_on_c, 0, 75, 80
2, 2027, Note_on_c, 0, 63, 0
2, 2038, Note_on_c, 0, 63, 70
2, 2046, Note_on_c, 0, 58, 74
2, 2048, Note_on_c, 0, 55, 67
2, 2063, Note_on_c, 0, 87, 0
2, 2063, Note_on_c, 0, 82, 0
2, 2064, Note_on_c, 0, 99, 0
2, 2065, Note_on_c, 0, 91, 0
2, 2065, Note_on_c, 0, 67, 0
2, 2066, Note_on_c, 0, 79, 0
2, 2067, Control_c, 0, 64, 0
2, 2067, Note_on_c, 0, 89, 0
2, 2068, Note_on_c, 0, 77, 0
2, 2081, Note_on_c, 0, 94, 0
2, 2096, Note_on_c, 0, 70, 0
2, 2108, Note_on_c, 0, 70, 71
2, 2142, Note_on_c, 0, 75, 0
2, 2142, Control_c, 0, 64, 127
2, 2170, Note_on_c, 0, 67, 67
2, 2219, Note_on_c, 0, 70, 0
2, 2226, Note_on_c, 0, 70, 82
2, 2288, Note_on_c, 0, 67, 0
2, 2293, Note_on_c, 0, 67, 74
2, 2355, Note_on_c, 0, 65, 81
2, 2434, Note_on_c, 0, 63, 0
2, 2443, Note_on_c, 0, 63, 83
2, 2511, Note_on_c, 0, 65, 0
2, 2515, Note_on_c, 0, 65, 81
2, 2577, Note_on_c, 0, 67, 0
2, 2577, Note_on_c, 0, 70, 0
2, 2577, Note_on_c, 0, 65, 0
2, 2578, Note_on_c, 0, 58, 0
2, 2579, Control_c, 0, 64, 0
2, 2580, Note_on_c, 0, 55, 0
2, 2580, Note_on_c, 0, 63, 0
2, 2591, Note_on_c, 0, 63, 85
2, 2591, Note_on_c, 0, 51, 84
2, 2591, Note_on_c, 0, 55, 84
2, 2595, Control_c, 0, 64, 127
2, 2598, Note_on_c, 0, 46, 82
2, 2599, Note_on_c, 0, 43, 78
2, 2656, Note_on_c, 0, 58, 81
2, 2688, Control_c, 0, 64, 0
2, 2718, Note_on_c, 0, 63, 0
2, 2729, Note_on_c, 0, 63, 76
2, 2772, Control_c, 0, 64, 127
2, 2801, Note_on_c, 0, 65, 81
2, 2861, Note_on_c, 0, 67, 67
2, 2928, Note_on_c, 0, 70, 86
2, 2994, Note_on_c, 0, 75, 87
2, 3066, Note_on_c, 0, 79, 88
2, 3104, Note_on_c, 0, 39, 64
2, 3132, Note_on_c, 0, 67, 0
2, 3133, Note_on_c, 0, 63, 0
2, 3134, Note_on_c, 0, 65, 0
2, 3134, Note_on_c, 0, 58, 0
2, 3136, Note_on_c, 0, 75, 0
2, 3138, Note_on_c, 0, 55, 0
2, 3139, Note_on_c, 0, 79, 0
2, 3144, Control_c, 0, 64, 0
2, 3164, Note_on_c, 0, 46, 0
2, 3164, Note_on_c, 0, 70, 0
2, 3164, Note_on_c, 0, 82, 103
2, 3169, Note_on_c, 0, 70, 98
2, 3174, Note_on_c, 0, 46, 77
2, 3180, Note_on_c, 0, 75, 85
2, 3181, Note_on_c, 0, 55, 82
2, 3202, Note_on_c, 0, 51, 0
2, 3202, Control_c, 0, 64, 127
2, 3617, Note_on_c, 0, 70, 0
2, 3617, Note_on_c, 0, 75, 0
2, 3624, Note_on_c, 0, 63, 78
2, 3624, Note_on_c, 0, 75, 91
2, 3626, Note_on_c, 0, 70, 89
2, 3626, Note_on_c, 0, 67, 80
2, 4055, Note_on_c, 0, 70, 0
2, 4055, Note_on_c, 0, 75, 0
2, 4055, Note_on_c, 0, 82, 0
2, 4061, Note_on_c, 0, 82, 98
2, 4064, Note_on_c, 0, 70, 93
2, 4065, Note_on_c, 0, 79, 91
2, 4065, Note_on_c, 0, 75, 89
2, 4074, Control_c, 0, 64, 0
2, 4085, Control_c, 0, 64, 127
2, 4231, Note_on_c, 0, 43, 0
2, 4336, Note_on_c, 0, 43, 61
2, 4375, Note_on_c, 0, 51, 72
2, 4403, Note_on_c, 0, 58, 77
2, 4502, Note_on_c, 0, 58, 0
2, 4504, Note_on_c, 0, 55, 0
2, 4504, Note_on_c, 0, 46, 0
2, 4508, Note_on_c, 0, 75, 0
2, 4509, Control_c, 0, 64, 0
2, 4515, Note_on_c, 0, 39, 0
2, 4515, Note_on_c, 0, 63, 0
2, 4515, Note_on_c, 0, 67, 0
2, 4515, Note_on_c, 0, 70, 0
2, 4519, Note_on_c, 0, 75, 96
2, 4519, Note_on_c, 0, 63, 75
2, 4519, Note_on_c, 0, 67, 80
2, 4519, Note_on_c, 0, 70, 86
2, 4531, Note_on_c, 0, 82, 0
2, 4546, Note_on_c, 0, 79, 0
2, 4584, Control_c, 0, 64, 127
2, 4800, Note_on_c, 0, 67, 0
2, 4953, Note_on_c, 0, 63, 0
2, 4953, Note_on_c, 0, 75, 0
2, 4955, Control_c, 0, 64, 0
2, 4959, Note_on_c, 0, 84, 97
2, 4965, Note_on_c, 0, 75, 79
2, 4971, Note_on_c, 0, 72, 79
2, 4972, Note_on_c, 0, 79, 76
2, 5030, Control_c, 0, 64, 127
2, 5257, Note_on_c, 0, 82, 97
2, 5260, Note_on_c, 0, 70, 0
2, 5260, Note_on_c, 0, 75, 0
2, 5260, Note_on_c, 0, 79, 0
2, 5264, Note_on_c, 0, 79, 88
2, 5265, Note_on_c, 0, 75, 81
2, 5266, Note_on_c, 0, 70, 83
2, 5473, Note_on_c, 0, 44, 66
2, 5514, Note_on_c, 0, 51, 0
2, 5521, Note_on_c, 0, 51, 75
2, 5556, Note_on_c, 0, 56, 83
2, 5559, Note_on_c, 0, 60, 84
2, 5760, Note_on_c, 0, 43, 0
2, 5844, Note_on_c, 0, 56, 0
2, 5855, Note_on_c, 0, 56, 84
2, 6013, Note_on_c, 0, 60, 0
2, 6017, Note_on_c, 0, 68, 99
2, 6017, Note_on_c, 0, 63, 83
2, 6018, Note_on_c, 0, 60, 81
2, 6310, Note_on_c, 0, 80, 92
2, 6312, Note_on_c, 0, 68, 0
2, 6318, Note_on_c, 0, 68, 91
2, 6443, Note_on_c, 0, 79, 0
2, 6449, Note_on_c, 0, 79, 92
2, 6454, Note_on_c, 0, 67, 87
2, 6584, Note_on_c, 0, 80, 0
2, 6584, Note_on_c, 0, 51, 0
2, 6585, Control_c, 0, 64, 0
2, 6585, Note_on_c, 0, 68, 0
2, 6585, Note_on_c, 0, 63, 0
2, 6585, Note_on_c, 0, 60, 0
2, 6585, Note_on_c, 0, 44, 0
2, 6585, Note_on_c, 0, 79, 0
2, 6585, Note_on_c, 0, 67, 0
2, 6589, Note_on_c, 0, 72, 0
2, 6589, Note_on_c, 0, 82, 0
2, 6589, Note_on_c, 0, 84, 0
2, 6597, Note_on_c, 0, 77, 95
2, 6600, Note_on_c, 0, 58, 82
2, 6603, Note_on_c, 0, 46, 76
2, 6604, Note_on_c, 0, 56, 0
2, 6604, Note_on_c, 0, 70, 0
2, 6604, Note_on_c, 0, 75, 0
2, 6607, Note_on_c, 0, 53, 72
2, 6607, Note_on_c, 0, 74, 79
2, 6607, Note_on_c, 0, 65, 83
2, 6608, Note_on_c, 0, 70, 81
2, 6689, Control_c, 0, 64, 127
2, 6894, Note_on_c, 0, 75, 91
2, 6896, Note_on_c, 0, 63, 81
2, 7027, Note_on_c, 0, 63, 0
2, 7027, Note_on_c, 0, 75, 0
2, 7031, Note_on_c, 0, 75, 91
2, 7032, Note_on_c, 0, 63, 86
2, 7165, Note_on_c, 0, 63, 0
2, 7165, Note_on_c, 0, 75, 0
2, 7170, Note_on_c, 0, 75, 91
2, 7171, Note_on_c, 0, 63, 89
2, 7269, Note_on_c, 0, 53, 0
2, 7270, Note_on_c, 0, 65, 0
2, 7270, Note_on_c, 0, 63, 0
2, 7270, Note_on_c, 0, 74, 0
2, 7270, Note_on_c, 0, 70, 0
2, 7270, Note_on_c, 0, 58, 0
2, 7270, Note_on_c, 0, 77, 0
2, 7274, Control_c, 0, 64, 0
2, 7296, Note_on_c, 0, 46, 0
2, 7303, Note_on_c, 0, 75, 0
2, 7313, Note_on_c, 0, 75, 97
2, 7315, Note_on_c, 0, 71, 84
2, 7316, Note_on_c, 0, 59, 75
2, 7317, Note_on_c, 0, 47, 68
2, 7317, Note_on_c, 0, 55, 71
2, 7320, Note_on_c, 0, 67, 82
2, 7321, Note_on_c, 0, 63, 78
2, 7365, Note_on_c, 0, 59, 0
2, 7380, Control_c, 0, 64, 127
2, 7480, Note_on_c, 0, 55, 0
2, 7605, Note_on_c, 0, 77, 97
2, 7610, Note_on_c, 0, 67, 0
2, 7612, Note_on_c, 0, 65, 82
2, 7616, Note_on_c, 0, 67, 70
2, 7834, Control_c, 0, 64, 0
2, 7835, Note_on_c, 0, 63, 0
2, 7835, Note_on_c, 0, 67, 0
2, 7836, Note_on_c, 0, 75, 0
2, 7836, Note_on_c, 0, 71, 0
2, 7836, Note_on_c, 0, 65, 0
2, 7837, Note_on_c, 0, 77, 0
2, 7841, Note_on_c, 0, 47, 0
2, 7878, Note_on_c, 0, 79, 99
2, 7883, Note_on_c, 0, 75, 87
2, 7883, Note_on_c, 0, 67, 88
2, 7883, Note_on_c, 0, 48, 74
2, 7883, Note_on_c, 0, 60, 79
2, 7883, Note_on_c, 0, 72, 81
2, 7933, Note_on_c, 0, 48, 0
2, 7933, Control_c, 0, 64, 127
2, 8044, Note_on_c, 0, 63, 59
2, 8163, Note_on_c, 0, 60, 0
2, 8174, Note_on_c, 0, 60, 66
2, 8252, Note_on_c, 0, 60, 0
2, 8254, Note_on_c, 0, 72, 0
2, 8255, Note_on_c, 0, 79, 0
2, 8263, Note_on_c, 0, 67, 0
2, 8266, Control_c, 0, 64, 0
2, 8309, Note_on_c, 0, 63, 0
2, 8316, Note_on_c, 0, 86, 98
2, 8318, Note_on_c, 0, 63, 62
2, 8323, Note_on_c, 0, 79, 85
2, 8325, Note_on_c, 0, 75, 0
2, 8326, Note_on_c, 0, 67, 72
2, 8329, Note_on_c, 0, 75, 67
2, 8332, Note_on_c, 0, 74, 64
2, 8352, Note_on_c, 0, 63, 0
2, 8394, Control_c, 0, 64, 127
2, 8469, Note_on_c, 0, 60, 60
2, 8593, Note_on_c, 0, 67, 0
2, 8593, Note_on_c, 0, 75, 0
2, 8597, Note_on_c, 0, 67, 72
2, 8600, Note_on_c, 0, 75, 58
2, 8605, Note_on_c, 0, 63, 60
2, 8739, Note_on_c, 0, 60, 0
2, 8739, Note_on_c, 0, 79, 0
2, 8747, Note_on_c, 0, 75, 0
2, 8749, Note_on_c, 0, 79, 97
2, 8751, Note_on_c, 0, 60, 76
2, 8752, Note_on_c, 0, 75, 84
2, 8758, Note_on_c, 0, 72, 72
2, 8878, Note_on_c, 0, 63, 0
2, 8878, Note_on_c, 0, 67, 0
2, 8885, Note_on_c, 0, 67, 70
2, 8885, Note_on_c, 0, 63, 72
2, 9027, Note_on_c, 0, 45, 76
2, 9027, Note_on_c, 0, 57, 80
2, 9169, Note_on_c, 0, 60, 0
2, 9169, Note_on_c, 0, 72, 0
2, 9170, Note_on_c, 0, 69, 78
2, 9172, Note_on_c, 0, 77, 90
2, 9173, Note_on_c, 0, 60, 74
2, 9175, Note_on_c, 0, 72, 73
2, 9183, Note_on_c, 0, 65, 78
2, 9277, Note_on_c, 0, 86, 0
2, 9288, Control_c, 0, 64, 0
2, 9290, Note_on_c, 0, 57, 0
2, 9290, Note_on_c, 0, 63, 0
2, 9291, Note_on_c, 0, 67, 0
2, 9293, Note_on_c, 0, 45, 0
2, 9293, Note_on_c, 0, 74, 0
2, 9294, Note_on_c, 0, 60, 0
2, 9294, Note_on_c, 0, 69, 0
2, 9296, Note_on_c, 0, 65, 0
2, 9296, Note_on_c, 0, 77, 0
2, 9300, Note_on_c, 0, 75, 0
2, 9308, Note_on_c, 0, 72, 0
2, 9310, Note_on_c, 0, 75, 92
2, 9311, Note_on_c, 0, 53, 71
2, 9315, Note_on_c, 0, 79, 0
2, 9319, Note_on_c, 0, 72, 69
2, 9326, Note_on_c, 0, 63, 68
2, 9344, Note_on_c, 0, 53, 0
2, 9457, Note_on_c, 0, 57, 69
2, 9458, Note_on_c, 0, 60, 59
2, 9461, Note_on_c, 0, 63, 0
2, 9488, Note_on_c, 0, 57, 0
2, 9538, Note_on_c, 0, 60, 0
2, 9592, Note_on_c, 0, 75, 0
2, 9603, Note_on_c, 0, 75, 86
2, 9603, Note_on_c, 0, 53, 80
2, 9604, Note_on_c, 0, 41, 63
2, 9615, Note_on_c, 0, 41, 0
2, 9642, Note_on_c, 0, 53, 0
2, 9743, Note_on_c, 0, 57, 69
2, 9744, Note_on_c, 0, 60, 71
2, 9780, Note_on_c, 0, 57, 0
2, 9788, Note_on_c, 0, 60, 0
2, 9887, Note_on_c, 0, 77, 88
2, 9891, Note_on_c, 0, 53, 78
2, 9891, Note_on_c, 0, 75, 0
2, 9902, Note_on_c, 0, 75, 57
2, 9943, Note_on_c, 0, 53, 0
2, 9953, Note_on_c, 0, 72, 0
2, 10026, Note_on_c, 0, 57, 69
2, 10030, Note_on_c, 0, 75, 0
2, 10031, Note_on_c, 0, 79, 97
2, 10033, Note_on_c, 0, 60, 67
2, 10039, Note_on_c, 0, 75, 76
2, 10042, Note_on_c, 0, 72, 68
2, 10048, Note_on_c, 0, 67, 74
2, 10050, Note_on_c, 0, 77, 0
2, 10064, Note_on_c, 0, 57, 0
2, 10099, Note_on_c, 0, 60, 0
2, 10178, Note_on_c, 0, 44, 73
2, 10229, Control_c, 0, 64, 127
2, 10318, Note_on_c, 0, 48, 72
2, 10462, Note_on_c, 0, 51, 74
2, 10596, Note_on_c, 0, 56, 76
2, 10732, Note_on_c, 0, 60, 76
2, 10874, Note_on_c, 0, 80, 88
2, 10874, Note_on_c, 0, 75, 0
2, 10879, Note_on_c, 0, 63, 70
2, 10879, Note_on_c, 0, 75, 70
2, 10887, Note_on_c, 0, 68, 62
2, 11005, Note_on_c, 0, 68, 0
2, 11005, Note_on_c, 0, 79, 0
2, 11009, Note_on_c, 0, 68, 76
2, 11009, Note_on_c, 0, 79, 90
2, 11120, Note_on_c, 0, 51, 0
2, 11121, Control_c, 0, 64, 0
2, 11121, Note_on_c, 0, 48, 0
2, 11121, Note_on_c, 0, 80, 0
2, 11122, Note_on_c, 0, 75, 0
2, 11122, Note_on_c, 0, 63, 0
2, 11122, Note_on_c, 0, 67, 0
2, 11122, Note_on_c, 0, 79, 0
2, 11122, Note_on_c, 0, 56, 0
2, 11122, Note_on_c, 0, 68, 0
2, 11122, Note_on_c, 0, 44, 0
2, 11122, Note_on_c, 0, 60, 0
2, 11122, Note_on_c, 0, 72, 0
2, 11147, Note_on_c, 0, 77, 95
2, 11168, Note_on_c, 0, 46, 75
2, 11169, Note_on_c, 0, 58, 80
2, 11169, Note_on_c, 0, 74, 82
2, 11170, Note_on_c, 0, 70, 87
2, 11201, Note_on_c, 0, 58, 0
2, 11243, Control_c, 0, 64, 127
2, 11447, Note_on_c, 0, 75, 83
2, 11507, Note_on_c, 0, 77, 0
2, 11508, Note_on_c, 0, 74, 0
2, 11508, Control_c, 0, 64, 0
2, 11508, Note_on_c, 0, 70, 0
2, 11520, Note_on_c, 0, 46, 0
2, 11581, Note_on_c, 0, 75, 0
2, 11586, Note_on_c, 0, 75, 83
2, 11619, Note_on_c, 0, 75, 0
2, 11729, Note_on_c, 0, 75, 73
2, 11757, Note_on_c, 0, 75, 0
2, 11867, Note_on_c, 0, 75, 79
2, 12103, Note_on_c, 0, 75, 0
2, 12151, Note_on_c, 0, 77, 90
2, 12426, Note_on_c, 0, 77, 0
2, 12433, Note_on_c, 0, 77, 90
2, 12577, Note_on_c, 0, 75, 83
2, 12610, Control_c, 0, 64, 127
2, 12718, Note_on_c, 0, 63, 66
2, 12799, Note_on_c, 0, 64, 69
2, 12862, Note_on_c, 0, 65, 73
2, 12945, Note_on_c, 0, 66, 63
2, 13001, Note_on_c, 0, 67, 72
2, 13081, Note_on_c, 0, 68, 68
2, 13167, Note_on_c, 0, 69, 63
2, 13209, Note_on_c, 0, 44, 52
2, 13213, Note_on_c, 0, 70, 79
2, 13217, Note_on_c, 0, 44, 0
2, 13240, Note_on_c, 0, 77, 0
2, 13285, Note_on_c, 0, 71, 77
2, 13363, Note_on_c, 0, 72, 62
2, 13407, Note_on_c, 0, 73, 76
2, 13495, Note_on_c, 0, 74, 62
2, 13570, Note_on_c, 0, 63, 0
2, 13570, Note_on_c, 0, 67, 0
2, 13570, Note_on_c, 0, 75, 0
2, 13578, Note_on_c, 0, 67, 87
2, 13579, Note_on_c, 0, 63, 84
2, 13580, Note_on_c, 0, 75, 85
2, 13582, Note_on_c, 0, 70, 0
2, 13583, Note_on_c, 0, 64, 0
2, 13583, Note_on_c, 0, 69, 0
2, 13584, Note_on_c, 0, 65, 0
2, 13584, Note_on_c, 0, 68, 0
2, 13584, Note_on_c, 0, 73, 0
2, 13585, Note_on_c, 0, 74, 0
2, 13585, Note_on_c, 0, 72, 0
2, 13586, Note_on_c, 0, 66, 0
2, 13587, Note_on_c, 0, 71, 0
2, 13644, Note_on_c, 0, 76, 69
2, 13724, Note_on_c, 0, 77, 76
2, 13806, Note_on_c, 0, 78, 71
2, 13870, Note_on_c, 0, 65, 89
2, 13872, Note_on_c, 0, 79, 85
2, 13939, Note_on_c, 0, 63, 0
2, 13943, Note_on_c, 0, 63, 84
2, 13952, Note_on_c, 0, 80, 77
2, 14025, Note_on_c, 0, 81, 87
2, 14039, Note_on_c, 0, 65, 0
2, 14046, Note_on_c, 0, 65, 74
2, 14057, Note_on_c, 0, 70, 90
2, 14101, Note_on_c, 0, 82, 77
2, 14115, Control_c, 0, 64, 0
2, 14115, Note_on_c, 0, 80, 0
2, 14115, Note_on_c, 0, 70, 0
2, 14115, Note_on_c, 0, 63, 0
2, 14115, Note_on_c, 0, 75, 0
2, 14116, Note_on_c, 0, 77, 0
2, 14116, Note_on_c, 0, 78, 0
2, 14117, Note_on_c, 0, 79, 0
2, 14117, Note_on_c, 0, 76, 0
2, 14118, Note_on_c, 0, 81, 0
2, 14123, Note_on_c, 0, 67, 0
2, 14146, Note_on_c, 0, 65, 0
2, 14150, Note_on_c, 0, 83, 81
2, 14150, Note_on_c, 0, 61, 87
2, 14151, Note_on_c, 0, 65, 85
2, 14152, Note_on_c, 0, 68, 99
2, 14169, Note_on_c, 0, 82, 0
2, 14227, Note_on_c, 0, 84, 56
2, 14231, Control_c, 0, 64, 127
2, 14246, Note_on_c, 0, 65, 0
2, 14246, Note_on_c, 0, 68, 0
2, 14277, Note_on_c, 0, 83, 0
2, 14294, Note_on_c, 0, 85, 79
2, 14295, Note_on_c, 0, 68, 93
2, 14295, Note_on_c, 0, 65, 74
2, 14369, Note_on_c, 0, 61, 0
2, 14374, Note_on_c, 0, 86, 61
2, 14395, Note_on_c, 0, 88, 42
2, 14433, Note_on_c, 0, 73, 101
2, 14440, Note_on_c, 0, 87, 87
2, 14545, Note_on_c, 0, 86, 0
2, 14554, Note_on_c, 0, 86, 74
2, 14592, Note_on_c, 0, 85, 0
2, 14595, Note_on_c, 0, 85, 86
2, 14661, Note_on_c, 0, 86, 0
2, 14668, Note_on_c, 0, 86, 81
2, 14701, Note_on_c, 0, 88, 0
2, 14702, Note_on_c, 0, 73, 0
2, 14703, Note_on_c, 0, 85, 0
2, 14704, Control_c, 0, 64, 0
2, 14707, Note_on_c, 0, 84, 0
2, 14714, Note_on_c, 0, 65, 0
2, 14722, Note_on_c, 0, 68, 0
2, 14722, Note_on_c, 0, 87, 0
2, 14734, Note_on_c, 0, 87, 103
2, 14734, Note_on_c, 0, 82, 92
2, 14736, Note_on_c, 0, 79, 93
2, 14740, Note_on_c, 0, 51, 87
2, 14742, Note_on_c, 0, 39, 77
2, 14760, Note_on_c, 0, 86, 0
2, 14791, Control_c, 0, 64, 127
2, 14807, Note_on_c, 0, 79, 0
2, 15006, Note_on_c, 0, 82, 0
2, 15010, Note_on_c, 0, 82, 95
2, 15019, Note_on_c, 0, 63, 79
2, 15024, Note_on_c, 0, 58, 78
2, 15026, Note_on_c, 0, 73, 66
2, 15037, Note_on_c, 0, 73, 0
2, 15162, Note_on_c, 0, 55, 73
2, 15209, Control_c, 0, 64, 0
2, 15212, Note_on_c, 0, 55, 0
2, 15212, Note_on_c, 0, 63, 0
2, 15214, Note_on_c, 0, 87, 0
2, 15217, Note_on_c, 0, 58, 0
2, 15218, Note_on_c, 0, 51, 0
2, 15219, Note_on_c, 0, 39, 0
2, 15220, Note_on_c, 0, 82, 0
2, 15241, Note_on_c, 0, 84, 76
2, 15297, Note_on_c, 0, 67, 85
2, 15304, Note_on_c, 0, 87, 95
2, 15307, Note_on_c, 0, 58, 76
2, 15308, Note_on_c, 0, 63, 67
2, 15337, Note_on_c, 0, 63, 0
2, 15340, Note_on_c, 0, 58, 0
2, 15340, Note_on_c, 0, 67, 0
2, 15436, Note_on_c, 0, 84, 0
2, 15448, Note_on_c, 0, 55, 75
2, 15448, Note_on_c, 0, 84, 84
2, 15454, Note_on_c, 0, 87, 0
2, 15507, Note_on_c, 0, 55, 0
2, 15587, Note_on_c, 0, 82, 87
2, 15589, Note_on_c, 0, 58, 82
2, 15590, Note_on_c, 0, 63, 67
2, 15598, Note_on_c, 0, 84, 0
2, 15612, Note_on_c, 0, 58, 0
2, 15636, Note_on_c, 0, 63, 0
2, 15723, Note_on_c, 0, 75, 93
2, 15726, Note_on_c, 0, 69, 75
2, 15731, Note_on_c, 0, 53, 84
2, 15734, Note_on_c, 0, 41, 77
2, 15736, Note_on_c, 0, 69, 0
2, 15736, Control_c, 0, 64, 127
2, 16012, Note_on_c, 0, 53, 0
2, 16012, Note_on_c, 0, 75, 0
2, 16017, Note_on_c, 0, 75, 89
2, 16022, Note_on_c, 0, 53, 65
2, 16108, Note_on_c, 0, 41, 0
2, 16109, Note_on_c, 0, 75, 0
2, 16114, Note_on_c, 0, 53, 0
2, 16114, Control_c, 0, 64, 0
2, 16151, Note_on_c, 0, 82, 0
2, 16157, Note_on_c, 0, 82, 97
2, 16170, Note_on_c, 0, 63, 72
2, 16171, Note_on_c, 0, 60, 72
2, 16205, Note_on_c, 0, 63, 0
2, 16212, Note_on_c, 0, 60, 0
2, 16217, Note_on_c, 0, 82, 0
2, 16308, Note_on_c, 0, 53, 74
2, 16353, Note_on_c, 0, 53, 0
2, 16444, Note_on_c, 0, 68, 88
2, 16444, Note_on_c, 0, 79, 90
2, 16458, Note_on_c, 0, 63, 62
2, 16461, Note_on_c, 0, 60, 67
2, 16492, Note_on_c, 0, 63, 0
2, 16509, Note_on_c, 0, 60, 0
2, 16550, Control_c, 0, 64, 127
2, 16584, Note_on_c, 0, 53, 70
2, 16732, Note_on_c, 0, 63, 76
2, 16733, Note_on_c, 0, 60, 79
2, 16971, Control_c, 0, 64, 0
2, 16971, Note_on_c, 0, 53, 0
2, 16972, Note_on_c, 0, 63, 0
2, 16972, Note_on_c, 0, 60, 0
2, 16980, Note_on_c, 0, 68, 0
2, 16980, Note_on_c, 0, 79, 0
2, 17010, Note_on_c, 0, 94, 105
2, 17013, Note_on_c, 0, 82, 95
2, 17015, Note_on_c, 0, 87, 90
2, 17023, Note_on_c, 0, 43, 76
2, 17024, Note_on_c, 0, 91, 87
2, 17027, Note_on_c, 0, 55, 77
2, 17057, Control_c, 0, 64, 127
2, 17295, Note_on_c, 0, 94, 0
2, 17303, Note_on_c, 0, 82, 0
2, 17306, Note_on_c, 0, 94, 104
2, 17307, Note_on_c, 0, 63, 75
2, 17308, Note_on_c, 0, 82, 89
2, 17316, Note_on_c, 0, 58, 71
2, 17464, Note_on_c, 0, 55, 0
2, 17468, Note_on_c, 0, 55, 62
2, 17508, Note_on_c, 0, 96, 96
2, 17512, Note_on_c, 0, 84, 68
2, 17533, Note_on_c, 0, 43, 0
2, 17587, Note_on_c, 0, 63, 0
2, 17587, Note_on_c, 0, 87, 0
2, 17590, Note_on_c, 0, 67, 79
2, 17591, Note_on_c, 0, 99, 96
2, 17594, Note_on_c, 0, 58, 0
2, 17597, Note_on_c, 0, 63, 59
2, 17598, Note_on_c, 0, 87, 93
2, 17599, Note_on_c, 0, 58, 64
2, 17725, Note_on_c, 0, 96, 0
2, 17732, Note_on_c, 0, 96, 94
2, 17733, Note_on_c, 0, 55, 0
2, 17733, Note_on_c, 0, 84, 0
2, 17738, Note_on_c, 0, 84, 79
2, 17741, Note_on_c, 0, 55, 53
2, 17848, Note_on_c, 0, 58, 0
2, 17857, Note_on_c, 0, 58, 75
2, 17871, Note_on_c, 0, 94, 0
2, 17879, Note_on_c, 0, 82, 0
2, 17882, Note_on_c, 0, 94, 97
2, 17890, Note_on_c, 0, 82, 77
2, 17981, Note_on_c, 0, 94, 0
2, 17981, Note_on_c, 0, 63, 0
2, 17981, Note_on_c, 0, 55, 0
2, 17981, Note_on_c, 0, 58, 0
2, 17981, Control_c, 0, 64, 0
2, 17982, Note_on_c, 0, 82, 0
2, 17982, Note_on_c, 0, 67, 0
2, 17982, Note_on_c, 0, 84, 0
2, 17982, Note_on_c, 0, 91, 0
2, 17982, Note_on_c, 0, 96, 0
2, 17986, Note_on_c, 0, 99, 0
2, 18001, Note_on_c, 0, 87, 0
2, 18011, Note_on_c, 0, 89, 101
2, 18020, Note_on_c, 0, 77, 86
2, 18023, Note_on_c, 0, 56, 83
2, 18025, Note_on_c, 0, 44, 74
2, 18063, Control_c, 0, 64, 127
2, 18094, Note_on_c, 0, 77, 0
2, 18293, Note_on_c, 0, 89, 0
2, 18301, Note_on_c, 0, 56, 0
2, 18302, Note_on_c, 0, 89, 90
2, 18305, Note_on_c, 0, 56, 72
2, 18306, Note_on_c, 0, 77, 71
2, 18427, Note_on_c, 0, 96, 104
2, 18432, Note_on_c, 0, 84, 93
2, 18456, Note_on_c, 0, 68, 70
2, 18465, Note_on_c, 0, 63, 56
2, 18468, Note_on_c, 0, 60, 57
2, 18570, Note_on_c, 0, 56, 0
2, 18575, Note_on_c, 0, 56, 75
2, 18692, Control_c, 0, 64, 0
2, 18695, Note_on_c, 0, 68, 0
2, 18695, Note_on_c, 0, 63, 0
2, 18695, Note_on_c, 0, 60, 0
2, 18695, Note_on_c, 0, 56, 0
2, 18696, Note_on_c, 0, 84, 0
2, 18696, Note_on_c, 0, 96, 0
2, 18700, Note_on_c, 0, 44, 0
2, 18708, Note_on_c, 0, 77, 0
2, 18716, Note_on_c, 0, 89, 0
2, 18717, Note_on_c, 0, 94, 103
2, 18719, Note_on_c, 0, 82, 91
2, 18722, Note_on_c, 0, 89, 90
2, 18725, Note_on_c, 0, 46, 79
2, 18727, Note_on_c, 0, 86, 81
2, 18777, Control_c, 0, 64, 127
2, 18887, Note_on_c, 0, 58, 70
2, 19017, Note_on_c, 0, 70, 82
2, 19027, Note_on_c, 0, 65, 62
2, 19041, Note_on_c, 0, 62, 63
2, 19138, Note_on_c, 0, 58, 0
2, 19143, Note_on_c, 0, 58, 78
2, 19264, Control_c, 0, 64, 0
2, 19264, Note_on_c, 0, 86, 0
2, 19265, Note_on_c, 0, 70, 0
2, 19265, Note_on_c, 0, 82, 0
2, 19265, Note_on_c, 0, 62, 0
2, 19265, Note_on_c, 0, 89, 0
2, 19265, Note_on_c, 0, 65, 0
2, 19265, Note_on_c, 0, 94, 0
2, 19265, Note_on_c, 0, 58, 0
2, 19276, Note_on_c, 0, 46, 0
2, 19303, Note_on_c, 0, 82, 97
2, 19304, Note_on_c, 0, 79, 94
2, 19313, Note_on_c, 0, 51, 81
2, 19318, Note_on_c, 0, 87, 80
2, 19318, Note_on_c, 0, 39, 75
2, 19345, Control_c, 0, 64, 127
2, 19568, Note_on_c, 0, 82, 0
2, 19579, Note_on_c, 0, 82, 94
2, 19588, Note_on_c, 0, 63, 75
2, 19596, Note_on_c, 0, 58, 72
2, 19622, Note_on_c, 0, 79, 0
2, 19627, Note_on_c, 0, 79, 61
2, 19726, Note_on_c, 0, 55, 72
2, 19733, Control_c, 0, 64, 0
2, 19752, Note_on_c, 0, 39, 0
2, 19758, Note_on_c, 0, 63, 0
2, 19759, Note_on_c, 0, 87, 0
2, 19762, Note_on_c, 0, 82, 0
2, 19763, Note_on_c, 0, 51, 0
2, 19764, Note_on_c, 0, 58, 0
2, 19764, Note_on_c, 0, 79, 0
2, 19765, Note_on_c, 0, 55, 0
2, 19797, Note_on_c, 0, 84, 63
2, 19863, Note_on_c, 0, 87, 100
2, 19872, Note_on_c, 0, 67, 77
2, 19880, Note_on_c, 0, 63, 59
2, 19887, Note_on_c, 0, 58, 53
2, 19908, Note_on_c, 0, 67, 0
2, 19929, Note_on_c, 0, 63, 0
2, 19937, Note_on_c, 0, 58, 0
2, 19975, Note_on_c, 0, 84, 0
2, 19976, Note_on_c, 0, 87, 0
2, 20011, Note_on_c, 0, 55, 71
2, 20016, Note_on_c, 0, 84, 75
2, 20049, Note_on_c, 0, 55, 0
2, 20156, Note_on_c, 0, 82, 86
2, 20157, Note_on_c, 0, 63, 52
2, 20161, Note_on_c, 0, 58, 64
2, 20164, Note_on_c, 0, 70, 61
2, 20186, Note_on_c, 0, 63, 0
2, 20188, Note_on_c, 0, 58, 0
2, 20198, Note_on_c, 0, 84, 0
2, 20298, Note_on_c, 0, 75, 88
2, 20301, Note_on_c, 0, 82, 0
2, 20303, Note_on_c, 0, 69, 70
2, 20308, Note_on_c, 0, 53, 78
2, 20310, Note_on_c, 0, 72, 67
2, 20313, Note_on_c, 0, 41, 74
2, 20328, Note_on_c, 0, 70, 0
2, 20344, Control_c, 0, 64, 127
2, 20574, Note_on_c, 0, 53, 0
2, 20574, Note_on_c, 0, 75, 0
2, 20578, Note_on_c, 0, 75, 91
2, 20579, Note_on_c, 0, 53, 73
2, 20703, Note_on_c, 0, 41, 0
2, 20705, Control_c, 0, 64, 0
2, 20705, Note_on_c, 0, 53, 0
2, 20723, Note_on_c, 0, 82, 92
2, 20733, Note_on_c, 0, 63, 64
2, 20744, Note_on_c, 0, 60, 60
2, 20746, Note_on_c, 0, 75, 0
2, 20751, Note_on_c, 0, 69, 0
2, 20759, Note_on_c, 0, 72, 0
2, 20764, Note_on_c, 0, 63, 0
2, 20777, Note_on_c, 0, 60, 0
2, 20871, Note_on_c, 0, 53, 67
2, 20915, Note_on_c, 0, 56, 39
2, 20917, Note_on_c, 0, 53, 0
2, 20942, Note_on_c, 0, 56, 0
2, 21000, Note_on_c, 0, 79, 92
2, 21002, Note_on_c, 0, 68, 89
2, 21020, Note_on_c, 0, 60, 67
2, 21022, Note_on_c, 0, 63, 58
2, 21025, Note_on_c, 0, 48, 48
2, 21066, Note_on_c, 0, 82, 0
2, 21081, Note_on_c, 0, 63, 0
2, 21089, Note_on_c, 0, 48, 0
2, 21112, Control_c, 0, 64, 127
2, 21120, Note_on_c, 0, 60, 0
2, 21120, Control_c, 0, 64, 0
2, 21151, Note_on_c, 0, 53, 68
2, 21204, Control_c, 0, 64, 127
2, 21285, Note_on_c, 0, 63, 78
2, 21286, Note_on_c, 0, 60, 79
2, 21461, Note_on_c, 0, 91, 81
2, 21540, Note_on_c, 0, 92, 94
2, 21564, Note_on_c, 0, 79, 0
2, 21566, Note_on_c, 0, 82, 93
2, 21567, Note_on_c, 0, 68, 0
2, 21568, Note_on_c, 0, 91, 0
2, 21568, Note_on_c, 0, 63, 0
2, 21569, Note_on_c, 0, 60, 0
2, 21569, Note_on_c, 0, 53, 0
2, 21569, Control_c, 0, 64, 0
2, 21572, Note_on_c, 0, 94, 99
2, 21582, Note_on_c, 0, 87, 80
2, 21586, Note_on_c, 0, 43, 74
2, 21649, Note_on_c, 0, 92, 0
2, 21657, Control_c, 0, 64, 127
2, 21722, Note_on_c, 0, 51, 77
2, 21855, Note_on_c, 0, 55, 74
2, 21992, Note_on_c, 0, 58, 65
2, 21993, Note_on_c, 0, 92, 98
2, 22007, Note_on_c, 0, 80, 76
2, 22140, Note_on_c, 0, 63, 71
2, 22272, Note_on_c, 0, 55, 0
2, 22275, Note_on_c, 0, 67, 71
2, 22277, Note_on_c, 0, 91, 94
2, 22281, Note_on_c, 0, 79, 85
2, 22283, Note_on_c, 0, 55, 64
2, 22412, Note_on_c, 0, 70, 76
2, 22548, Note_on_c, 0, 87, 0
2, 22553, Note_on_c, 0, 92, 0
2, 22554, Control_c, 0, 64, 0
2, 22555, Note_on_c, 0, 94, 0
2, 22556, Note_on_c, 0, 51, 0
2, 22556, Note_on_c, 0, 87, 100
2, 22557, Note_on_c, 0, 55, 0
2, 22557, Note_on_c, 0, 67, 0
2, 22557, Note_on_c, 0, 58, 0
2, 22557, Note_on_c, 0, 63, 0
2, 22558, Note_on_c, 0, 91, 0
2, 22558, Note_on_c, 0, 82, 0
2, 22558, Note_on_c, 0, 43, 0
2, 22558, Note_on_c, 0, 79, 0
2, 22559, Note_on_c, 0, 70, 0
2, 22563, Note_on_c, 0, 80, 0
2, 22568, Note_on_c, 0, 75, 82
2, 22568, Note_on_c, 0, 84, 74
2, 22573, Note_on_c, 0, 80, 77
2, 22575, Note_on_c, 0, 44, 74
2, 22648, Control_c, 0, 64, 127
2, 22854, Note_on_c, 0, 56, 75
2, 22998, Note_on_c, 0, 68, 93
2, 23003, Note_on_c, 0, 60, 81
2, 23003, Note_on_c, 0, 63, 78
2, 23247, Note_on_c, 0, 80, 0
2, 23247, Note_on_c, 0, 68, 0
2, 23248, Control_c, 0, 64, 0
2, 23248, Note_on_c, 0, 87, 0
2, 23248, Note_on_c, 0, 84, 0
2, 23249, Note_on_c, 0, 56, 0
2, 23249, Note_on_c, 0, 75, 0
2, 23249, Note_on_c, 0, 63, 0
2, 23249, Note_on_c, 0, 60, 0
2, 23262, Note_on_c, 0, 44, 0
2, 23276, Note_on_c, 0, 92, 103
2, 23284, Note_on_c, 0, 80, 82
2, 23285, Note_on_c, 0, 89, 83
2, 23288, Note_on_c, 0, 86, 78
2, 23289, Note_on_c, 0, 46, 88
2, 23327, Note_on_c, 0, 86, 0
2, 23343, Note_on_c, 0, 46, 0
2, 23362, Note_on_c, 0, 80, 0
2, 23539, Note_on_c, 0, 89, 0
2, 23569, Note_on_c, 0, 92, 0
2, 23576, Note_on_c, 0, 92, 100
2, 23580, Note_on_c, 0, 34, 74
2, 23582, Note_on_c, 0, 46, 82
2, 23583, Note_on_c, 0, 80, 79
2, 23589, Note_on_c, 0, 89, 72
2, 23590, Note_on_c, 0, 86, 80
2, 23626, Note_on_c, 0, 34, 0
2, 23627, Note_on_c, 0, 46, 0
2, 23877, Note_on_c, 0, 79, 92
2, 23885, Note_on_c, 0, 39, 67
2, 23892, Note_on_c, 0, 86, 0
2, 23907, Note_on_c, 0, 89, 0
2, 23915, Control_c, 0, 64, 127
2, 23938, Note_on_c, 0, 92, 0
2, 24113, Control_c, 0, 64, 0
2, 24113, Note_on_c, 0, 79, 0
2, 24115, Note_on_c, 0, 80, 0
2, 24116, Note_on_c, 0, 39, 0
2, 24179, Note_on_c, 0, 79, 91
2, 24180, Note_on_c, 0, 63, 68
2, 24188, Note_on_c, 0, 55, 59
2, 24192, Note_on_c, 0, 58, 64
2, 24234, Note_on_c, 0, 63, 0
2, 24239, Note_on_c, 0, 55, 0
2, 24240, Note_on_c, 0, 58, 0
2, 24270, Note_on_c, 0, 79, 0
2, 24318, Note_on_c, 0, 51, 61
2, 24364, Note_on_c, 0, 51, 0
2, 24448, Note_on_c, 0, 77, 76
2, 24478, Note_on_c, 0, 77, 0
2, 24593, Note_on_c, 0, 75, 75
2, 24613, Note_on_c, 0, 51, 62
2, 24672, Note_on_c, 0, 51, 0
2, 24733, Note_on_c, 0, 63, 62
2, 24736, Note_on_c, 0, 55, 66
2, 24764, Note_on_c, 0, 63, 0
2, 24770, Note_on_c, 0, 55, 0
2, 24888, Note_on_c, 0, 72, 78
2, 24893, Note_on_c, 0, 44, 73
2, 24911, Note_on_c, 0, 75, 0
2, 24944, Control_c, 0, 64, 127
2, 25160, Note_on_c, 0, 75, 79
2, 25168, Note_on_c, 0, 51, 67
2, 25179, Control_c, 0, 64, 0
2, 25198, Note_on_c, 0, 44, 0
2, 25198, Note_on_c, 0, 72, 0
2, 25246, Note_on_c, 0, 51, 0
2, 25290, Note_on_c, 0, 77, 90
2, 25308, Note_on_c, 0, 75, 0
2, 25314, Note_on_c, 0, 63, 65
2, 25322, Note_on_c, 0, 56, 70
2, 25339, Note_on_c, 0, 60, 42
2, 25352, Note_on_c, 0, 63, 0
2, 25370, Note_on_c, 0, 56, 0
2, 25390, Note_on_c, 0, 60, 0
2, 25391, Note_on_c, 0, 77, 0
2, 25455, Note_on_c, 0, 51, 52
2, 25495, Note_on_c, 0, 51, 0
2, 25581, Note_on_c, 0, 79, 90
2, 25658, Control_c, 0, 64, 127
2, 25746, Note_on_c, 0, 51, 72
2, 25839, Note_on_c, 0, 51, 0
2, 25841, Control_c, 0, 64, 0
2, 25883, Note_on_c, 0, 63, 72
2, 25888, Note_on_c, 0, 56, 74
2, 25891, Note_on_c, 0, 60, 58
2, 25923, Note_on_c, 0, 63, 0
2, 25923, Note_on_c, 0, 60, 0
2, 25954, Note_on_c, 0, 56, 0
2, 26023, Note_on_c, 0, 51, 63
2, 26065, Note_on_c, 0, 51, 0
2, 26136, Note_on_c, 0, 79, 0
2, 26155, Note_on_c, 0, 77, 82
2, 26170, Note_on_c, 0, 58, 74
2, 26172, Note_on_c, 0, 46, 70
2, 26205, Note_on_c, 0, 58, 0
2, 26250, Control_c, 0, 64, 127
2, 26438, Note_on_c, 0, 74, 79
2, 26459, Note_on_c, 0, 62, 68
2, 26460, Note_on_c, 0, 58, 71
2, 26486, Note_on_c, 0, 77, 0
2, 26488, Note_on_c, 0, 46, 0
2, 26490, Control_c, 0, 64, 0
2, 26492, Note_on_c, 0, 62, 0
2, 26496, Note_on_c, 0, 58, 0
2, 26599, Note_on_c, 0, 72, 75
2, 26612, Note_on_c, 0, 74, 0
2, 26615, Note_on_c, 0, 53, 59
2, 26660, Note_on_c, 0, 53, 0
2, 26891, Note_on_c, 0, 53, 72
2, 26891, Note_on_c, 0, 70, 75
2, 26894, Note_on_c, 0, 72, 0
2, 26953, Note_on_c, 0, 53, 0
2, 27031, Note_on_c, 0, 62, 66
2, 27032, Note_on_c, 0, 58, 68
2, 27063, Note_on_c, 0, 62, 0
2, 27067, Note_on_c, 0, 58, 0
2, 27102, Note_on_c, 0, 70, 0
2, 27175, Note_on_c, 0, 39, 71
2, 27175, Note_on_c, 0, 70, 78
2, 27217, Control_c, 0, 64, 127
2, 27452, Note_on_c, 0, 72, 71
2, 27455, Note_on_c, 0, 51, 68
2, 27540, Control_c, 0, 64, 0
2, 27542, Note_on_c, 0, 39, 0
2, 27544, Note_on_c, 0, 51, 0
2, 27555, Note_on_c, 0, 70, 0
2, 27597, Note_on_c, 0, 63, 71
2, 27597, Note_on_c, 0, 75, 84
2, 27612, Note_on_c, 0, 55, 56
2, 27613, Note_on_c, 0, 58, 60
2, 27646, Note_on_c, 0, 63, 0
2, 27657, Note_on_c, 0, 55, 0
2, 27659, Note_on_c, 0, 72, 0
2, 27662, Note_on_c, 0, 58, 0
2, 27731, Note_on_c, 0, 51, 74
2, 27735, Note_on_c, 0, 77, 81
2, 27744, Note_on_c, 0, 75, 0
2, 27767, Note_on_c, 0, 51, 0
2, 27875, Note_on_c, 0, 77, 0
2, 27875, Note_on_c, 0, 75, 83
2, 28022, Note_on_c, 0, 34, 75
2, 28023, Note_on_c, 0, 46, 73
2, 28071, Note_on_c, 0, 34, 0
2, 28072, Note_on_c, 0, 46, 0
2, 28150, Note_on_c, 0, 48, 77
2, 28150, Note_on_c, 0, 36, 72
2, 28180, Note_on_c, 0, 36, 0
2, 28181, Note_on_c, 0, 48, 0
2, 28292, Note_on_c, 0, 50, 85
2, 28296, Note_on_c, 0, 38, 73
2, 28322, Note_on_c, 0, 50, 0
2, 28325, Note_on_c, 0, 38, 0
2, 28442, Note_on_c, 0, 79, 94
2, 28443, Note_on_c, 0, 39, 70
2, 28443, Note_on_c, 0, 51, 78
2, 28472, Note_on_c, 0, 75, 0
2, 28492, Control_c, 0, 64, 127
2, 28707, Note_on_c, 0, 79, 0
2, 28716, Note_on_c, 0, 79, 95
2, 28732, Note_on_c, 0, 63, 68
2, 28733, Note_on_c, 0, 55, 61
2, 28734, Note_on_c, 0, 58, 61
2, 28742, Control_c, 0, 64, 0
2, 28772, Note_on_c, 0, 63, 0
2, 28776, Note_on_c, 0, 51, 0
2, 28778, Note_on_c, 0, 55, 0
2, 28782, Note_on_c, 0, 58, 0
2, 28784, Note_on_c, 0, 39, 0
2, 28873, Note_on_c, 0, 51, 70
2, 28911, Note_on_c, 0, 51, 0
2, 28938, Note_on_c, 0, 79, 0
2, 29005, Note_on_c, 0, 77, 87
2, 29008, Note_on_c, 0, 44, 53
2, 29041, Note_on_c, 0, 44, 0
2, 29150, Note_on_c, 0, 75, 89
2, 29164, Note_on_c, 0, 77, 0
2, 29166, Note_on_c, 0, 51, 76
2, 29219, Note_on_c, 0, 51, 0
2, 29287, Note_on_c, 0, 63, 74
2, 29290, Note_on_c, 0, 58, 72
2, 29291, Note_on_c, 0, 55, 69
2, 29318, Note_on_c, 0, 63, 0
2, 29320, Note_on_c, 0, 55, 0
2, 29324, Note_on_c, 0, 58, 0
2, 29441, Note_on_c, 0, 72, 82
2, 29442, Note_on_c, 0, 44, 76
2, 29443, Note_on_c, 0, 56, 78
2, 29459, Note_on_c, 0, 75, 0
2, 29473, Note_on_c, 0, 56, 0
2, 29498, Control_c, 0, 64, 127
2, 29733, Note_on_c, 0, 75, 89
2, 29742, Note_on_c, 0, 51, 70
2, 29765, Control_c, 0, 64, 0
2, 29778, Note_on_c, 0, 72, 0
2, 29790, Note_on_c, 0, 44, 0
2, 29828, Note_on_c, 0, 51, 0
2, 29870, Note_on_c, 0, 82, 90
2, 29894, Note_on_c, 0, 63, 68
2, 29900, Note_on_c, 0, 56, 70
2, 29902, Note_on_c, 0, 60, 59
2, 29913, Note_on_c, 0, 75, 0
2, 29932, Note_on_c, 0, 63, 0
2, 29945, Note_on_c, 0, 56, 0
2, 29946, Note_on_c, 0, 60, 0
2, 30039, Note_on_c, 0, 51, 62
2, 30074, Note_on_c, 0, 51, 0
2, 30113, Note_on_c, 0, 82, 0
2, 30165, Note_on_c, 0, 79, 91
2, 30320, Note_on_c, 0, 51, 80
2, 30400, Note_on_c, 0, 51, 0
2, 30456, Note_on_c, 0, 63, 75
2, 30460, Note_on_c, 0, 56, 78
2, 30493, Note_on_c, 0, 63, 0
2, 30529, Note_on_c, 0, 56, 0
2, 30593, Note_on_c, 0, 51, 72
2, 30627, Note_on_c, 0, 51, 0
2, 30731, Note_on_c, 0, 77, 92
2, 30737, Note_on_c, 0, 58, 83
2, 30740, Note_on_c, 0, 46, 76
2, 30756, Note_on_c, 0, 79, 0
2, 30764, Note_on_c, 0, 58, 0
2, 30796, Note_on_c, 0, 46, 0
2, 30827, Control_c, 0, 64, 127
2, 31008, Note_on_c, 0, 74, 88
2, 31023, Note_on_c, 0, 58, 79
2, 31024, Note_on_c, 0, 62, 69
2, 31043, Note_on_c, 0, 77, 0
2, 31046, Control_c, 0, 64, 0
2, 31058, Note_on_c, 0, 58, 0
2, 31060, Note_on_c, 0, 62, 0
2, 31166, Note_on_c, 0, 72, 76
2, 31173, Note_on_c, 0, 53, 70
2, 31176, Note_on_c, 0, 74, 0
2, 31210, Note_on_c, 0, 53, 0
2, 31441, Note_on_c, 0, 72, 0
2, 31457, Note_on_c, 0, 70, 82
2, 31460, Note_on_c, 0, 53, 71
2, 31496, Note_on_c, 0, 53, 0
2, 31591, Note_on_c, 0, 62, 69
2, 31597, Note_on_c, 0, 58, 67
2, 31623, Note_on_c, 0, 62, 0
2, 31628, Note_on_c, 0, 58, 0
2, 31737, Note_on_c, 0, 77, 92
2, 31738, Note_on_c, 0, 51, 82
2, 31743, Note_on_c, 0, 39, 75
2, 31787, Control_c, 0, 64, 127
2, 32002, Note_on_c, 0, 51, 0
2, 32011, Note_on_c, 0, 51, 64
2, 32015, Note_on_c, 0, 78, 90
2, 32039, Note_on_c, 0, 77, 0
2, 32044, Note_on_c, 0, 39, 0
2, 32044, Control_c, 0, 64, 0
2, 32056, Note_on_c, 0, 70, 0
2, 32133, Note_on_c, 0, 51, 0
2, 32154, Note_on_c, 0, 77, 85
2, 32164, Note_on_c, 0, 63, 67
2, 32166, Note_on_c, 0, 58, 71
2, 32167, Note_on_c, 0, 55, 68
2, 32197, Note_on_c, 0, 63, 0
2, 32199, Note_on_c, 0, 55, 0
2, 32199, Note_on_c, 0, 58, 0
2, 32286, Note_on_c, 0, 78, 0
2, 32290, Note_on_c, 0, 77, 0
2, 32290, Note_on_c, 0, 75, 89
2, 32303, Note_on_c, 0, 51, 75
2, 32332, Note_on_c, 0, 51, 0
2, 32435, Note_on_c, 0, 63, 74
2, 32438, Note_on_c, 0, 51, 76
2, 32472, Note_on_c, 0, 51, 0
2, 32517, Note_on_c, 0, 63, 0
2, 32581, Note_on_c, 0, 58, 74
2, 32581, Note_on_c, 0, 46, 77
2, 32613, Note_on_c, 0, 46, 0
2, 32701, Note_on_c, 0, 58, 0
2, 32709, Control_c, 0, 64, 127
2, 32728, Note_on_c, 0, 39, 67
2, 32732, Note_on_c, 0, 51, 70
2, 33006, Control_c, 0, 64, 0
2, 33011, Note_on_c, 0, 39, 0
2, 33013, Note_on_c, 0, 51, 0
2, 33019, Note_on_c, 0, 75, 0
2, 33019, Note_on_c, 0, 63, 72
2, 33028, Note_on_c, 0, 41, 58
2, 33139, Control_c, 0, 64, 127
2, 33166, Note_on_c, 0, 48, 56
2, 33300, Note_on_c, 0, 60, 78
2, 33323, Note_on_c, 0, 48, 0
2, 33325, Note_on_c, 0, 51, 55
2, 33329, Note_on_c, 0, 48, 47
2, 33454, Note_on_c, 0, 63, 0
2, 33459, Note_on_c, 0, 63, 79
2, 33460, Note_on_c, 0, 56, 60
2, 33629, Note_on_c, 0, 68, 70
2, 33758, Note_on_c, 0, 72, 63
2, 33891, Note_on_c, 0, 60, 0
2, 33898, Note_on_c, 0, 75, 62
2, 33901, Note_on_c, 0, 60, 73
2, 33945, Note_on_c, 0, 48, 0
2, 33949, Note_on_c, 0, 48, 48
2, 34030, Note_on_c, 0, 63, 0
2, 34038, Note_on_c, 0, 63, 73
2, 34038, Note_on_c, 0, 80, 70
2, 34170, Note_on_c, 0, 84, 74
2, 34298, Note_on_c, 0, 80, 0
2, 34308, Note_on_c, 0, 80, 73
2, 34444, Note_on_c, 0, 60, 0
2, 34444, Note_on_c, 0, 72, 0
2, 34451, Note_on_c, 0, 60, 66
2, 34452, Note_on_c, 0, 75, 0
2, 34455, Note_on_c, 0, 72, 68
2, 34457, Note_on_c, 0, 75, 61
2, 34583, Note_on_c, 0, 63, 0
2, 34588, Note_on_c, 0, 63, 80
2, 34721, Note_on_c, 0, 68, 0
2, 34728, Note_on_c, 0, 68, 72
2, 34874, Note_on_c, 0, 56, 0
2, 34878, Note_on_c, 0, 65, 83
2, 34880, Note_on_c, 0, 56, 72
2, 35028, Note_on_c, 0, 51, 0
2, 35033, Note_on_c, 0, 51, 63
2, 35151, Note_on_c, 0, 48, 0
2, 35160, Note_on_c, 0, 48, 60
2, 35269, Control_c, 0, 64, 0
2, 35269, Note_on_c, 0, 41, 0
2, 35269, Note_on_c, 0, 56, 0
2, 35270, Note_on_c, 0, 72, 0
2, 35270, Note_on_c, 0, 84, 0
2, 35270, Note_on_c, 0, 80, 0
2, 35270, Note_on_c, 0, 63, 0
2, 35270, Note_on_c, 0, 51, 0
2, 35270, Note_on_c, 0, 68, 0
2, 35270, Note_on_c, 0, 48, 0
2, 35270, Note_on_c, 0, 75, 0
2, 35270, Note_on_c, 0, 60, 0
2, 35289, Note_on_c, 0, 65, 0
2, 35300, Note_on_c, 0, 65, 82
2, 35307, Note_on_c, 0, 43, 60
2, 35381, Control_c, 0, 64, 127
2, 35439, Note_on_c, 0, 50, 68
2, 35589, Note_on_c, 0, 65, 0
2, 35597, Note_on_c, 0, 65, 76
2, 35600, Note_on_c, 0, 53, 68
2, 35715, Note_on_c, 0, 58, 65
2, 35866, Note_on_c, 0, 62, 79
2, 35894, Note_on_c, 0, 70, 52
2, 36009, Note_on_c, 0, 60, 83
2, 36032, Note_on_c, 0, 74, 54
2, 36155, Note_on_c, 0, 77, 72
2, 36288, Note_on_c, 0, 60, 0
2, 36292, Note_on_c, 0, 60, 80
2, 36299, Note_on_c, 0, 82, 66
2, 36435, Note_on_c, 0, 86, 74
2, 36556, Note_on_c, 0, 58, 0
2, 36561, Note_on_c, 0, 58, 82
2, 36564, Note_on_c, 0, 82, 0
2, 36574, Note_on_c, 0, 82, 70
2, 36710, Note_on_c, 0, 77, 0
2, 36721, Note_on_c, 0, 77, 71
2, 36840, Note_on_c, 0, 74, 0
2, 36851, Note_on_c, 0, 74, 64
2, 36971, Note_on_c, 0, 70, 0
2, 36982, Note_on_c, 0, 70, 73
2, 37125, Note_on_c, 0, 58, 0
2, 37133, Note_on_c, 0, 58, 73
2, 37263, Note_on_c, 0, 53, 0
2, 37263, Note_on_c, 0, 77, 0
2, 37268, Note_on_c, 0, 77, 89
2, 37272, Note_on_c, 0, 53, 68
2, 37401, Note_on_c, 0, 50, 0
2, 37411, Note_on_c, 0, 50, 64
2, 37522, Control_c, 0, 64, 0
2, 37527, Note_on_c, 0, 62, 0
2, 37527, Note_on_c, 0, 43, 0
2, 37527, Note_on_c, 0, 50, 0
2, 37527, Note_on_c, 0, 82, 0
2, 37527, Note_on_c, 0, 86, 0
2, 37528, Note_on_c, 0, 53, 0
2, 37528, Note_on_c, 0, 58, 0
2, 37528, Note_on_c, 0, 60, 0
2, 37528, Note_on_c, 0, 65, 0
2, 37528, Note_on_c, 0, 70, 0
2, 37528, Note_on_c, 0, 77, 0
2, 37535, Note_on_c, 0, 78, 94
2, 37539, Note_on_c, 0, 74, 0
2, 37549, Note_on_c, 0, 44, 67
2, 37550, Note_on_c, 0, 66, 70
2, 37552, Note_on_c, 0, 75, 65
2, 37552, Note_on_c, 0, 71, 67
2, 37632, Control_c, 0, 64, 127
2, 37682, Note_on_c, 0, 77, 89
2, 37686, Note_on_c, 0, 65, 77
2, 37705, Note_on_c, 0, 51, 63
2, 37839, Note_on_c, 0, 56, 61
2, 37889, Control_c, 0, 64, 0
2, 37931, Control_c, 0, 64, 127
2, 37954, Note_on_c, 0, 75, 0
2, 37961, Note_on_c, 0, 75, 85
2, 37962, Note_on_c, 0, 71, 0
2, 37965, Note_on_c, 0, 63, 67
2, 37966, Note_on_c, 0, 71, 68
2, 37969, Note_on_c, 0, 68, 73
2, 37969, Note_on_c, 0, 44, 0
2, 37969, Note_on_c, 0, 56, 0
2, 37975, Note_on_c, 0, 44, 55
2, 37979, Note_on_c, 0, 56, 60
2, 37996, Note_on_c, 0, 59, 62
2, 38131, Note_on_c, 0, 78, 0
2, 38231, Note_on_c, 0, 59, 0
2, 38240, Note_on_c, 0, 59, 61
2, 38376, Note_on_c, 0, 71, 0
2, 38384, Note_on_c, 0, 71, 88
2, 38392, Note_on_c, 0, 63, 0
2, 38395, Note_on_c, 0, 56, 0
2, 38398, Note_on_c, 0, 63, 59
2, 38400, Note_on_c, 0, 44, 0
2, 38403, Note_on_c, 0, 44, 51
2, 38507, Note_on_c, 0, 68, 0
2, 38518, Note_on_c, 0, 68, 72
2, 38653, Note_on_c, 0, 77, 0
2, 38657, Note_on_c, 0, 65, 0
2, 38657, Control_c, 0, 64, 0
2, 38657, Note_on_c, 0, 51, 0
2, 38657, Note_on_c, 0, 63, 0
2, 38658, Note_on_c, 0, 66, 0
2, 38668, Note_on_c, 0, 59, 0
2, 38671, Note_on_c, 0, 78, 93
2, 38676, Note_on_c, 0, 68, 0
2, 38676, Note_on_c, 0, 71, 0
2, 38676, Note_on_c, 0, 75, 0
2, 38680, Note_on_c, 0, 66, 72
2, 38684, Note_on_c, 0, 44, 0
2, 38684, Note_on_c, 0, 71, 68
2, 38685, Note_on_c, 0, 75, 79
2, 38689, Note_on_c, 0, 44, 66
2, 38745, Control_c, 0, 64, 127
2, 38820, Note_on_c, 0, 77, 89
2, 38826, Note_on_c, 0, 65, 79
2, 38834, Note_on_c, 0, 51, 66
2, 38955, Note_on_c, 0, 71, 0
2, 38956, Note_on_c, 0, 75, 0
2, 38956, Note_on_c, 0, 78, 0
2, 38956, Note_on_c, 0, 66, 0
2, 38957, Note_on_c, 0, 65, 0
2, 38957, Control_c, 0, 64, 0
2, 38957, Note_on_c, 0, 77, 0
2, 38963, Note_on_c, 0, 56, 60
2, 39060, Control_c, 0, 64, 127
2, 39095, Note_on_c, 0, 75, 87
2, 39101, Note_on_c, 0, 63, 69
2, 39103, Note_on_c, 0, 71, 71
2, 39104, Note_on_c, 0, 68, 70
2, 39109, Note_on_c, 0, 59, 69
2, 39383, Note_on_c, 0, 59, 0
2, 39383, Note_on_c, 0, 71, 0
2, 39392, Note_on_c, 0, 71, 83
2, 39392, Note_on_c, 0, 59, 63
2, 39528, Note_on_c, 0, 63, 0
2, 39528, Note_on_c, 0, 71, 0
2, 39534, Note_on_c, 0, 71, 82
2, 39534, Note_on_c, 0, 63, 61
2, 39537, Note_on_c, 0, 75, 0
2, 39659, Note_on_c, 0, 71, 0
2, 39666, Note_on_c, 0, 71, 89
2, 39769, Control_c, 0, 64, 0
2, 39770, Note_on_c, 0, 56, 0
2, 39770, Note_on_c, 0, 63, 0
2, 39771, Note_on_c, 0, 68, 0
2, 39771, Note_on_c, 0, 51, 0
2, 39771, Note_on_c, 0, 71, 0
2, 39782, Note_on_c, 0, 44, 0
2, 39782, Note_on_c, 0, 59, 0
2, 39804, Note_on_c, 0, 77, 91
2, 39808, Note_on_c, 0, 46, 71
2, 39814, Note_on_c, 0, 58, 69
2, 39823, Note_on_c, 0, 74, 74
2, 39826, Note_on_c, 0, 65, 64
2, 39834, Note_on_c, 0, 70, 69
2, 39954, Note_on_c, 0, 53, 66
2, 39981, Note_on_c, 0, 74, 0
2, 39983, Note_on_c, 0, 70, 0
2, 40043, Control_c, 0, 64, 127
2, 40074, Note_on_c, 0, 77, 0
2, 40074, Control_c, 0, 64, 0
2, 40085, Note_on_c, 0, 77, 92
2, 40089, Note_on_c, 0, 65, 0
2, 40095, Note_on_c, 0, 65, 70
2, 40096, Note_on_c, 0, 74, 75
2, 40097, Note_on_c, 0, 58, 0
2, 40099, Note_on_c, 0, 70, 76
2, 40104, Note_on_c, 0, 46, 0
2, 40107, Note_on_c, 0, 58, 65
2, 40238, Note_on_c, 0, 60, 58
2, 40291, Note_on_c, 0, 74, 0
2, 40292, Note_on_c, 0, 58, 0
2, 40293, Note_on_c, 0, 77, 0
2, 40294, Note_on_c, 0, 70, 0
2, 40294, Note_on_c, 0, 65, 0
2, 40296, Note_on_c, 0, 53, 0
2, 40372, Note_on_c, 0, 77, 89
2, 40381, Note_on_c, 0, 60, 0
2, 40384, Note_on_c, 0, 74, 76
2, 40386, Note_on_c, 0, 65, 66
2, 40387, Note_on_c, 0, 62, 67
2, 40388, Note_on_c, 0, 70, 76
2, 40523, Note_on_c, 0, 58, 64
2, 40605, Note_on_c, 0, 62, 0
2, 40609, Note_on_c, 0, 65, 0
2, 40650, Note_on_c, 0, 77, 0
2, 40656, Note_on_c, 0, 62, 68
2, 40657, Note_on_c, 0, 74, 0
2, 40659, Note_on_c, 0, 77, 90
2, 40669, Note_on_c, 0, 74, 58
2, 40773, Control_c, 0, 64, 127
2, 40782, Note_on_c, 0, 75, 86
2, 40799, Note_on_c, 0, 63, 74
2, 40911, Control_c, 0, 64, 0
2, 40923, Note_on_c, 0, 79, 89
2, 40924, Note_on_c, 0, 62, 0
2, 40925, Note_on_c, 0, 77, 0
2, 40926, Note_on_c, 0, 74, 0
2, 40929, Note_on_c, 0, 65, 78
2, 40931, Note_on_c, 0, 63, 0
2, 40934, Note_on_c, 0, 70, 0
2, 40937, Note_on_c, 0, 74, 74
2, 40940, Note_on_c, 0, 70, 70
2, 40940, Note_on_c, 0, 75, 0
2, 40949, Note_on_c, 0, 58, 0
2, 41057, Note_on_c, 0, 79, 0
2, 41064, Note_on_c, 0, 74, 0
2, 41068, Note_on_c, 0, 58, 73
2, 41068, Note_on_c, 0, 79, 87
2, 41072, Note_on_c, 0, 70, 0
2, 41076, Note_on_c, 0, 74, 74
2, 41077, Note_on_c, 0, 70, 71
2, 41180, Control_c, 0, 64, 127
2, 41220, Note_on_c, 0, 67, 82
2, 41272, Control_c, 0, 64, 0
2, 41292, Note_on_c, 0, 58, 0
2, 41310, Note_on_c, 0, 65, 0
2, 41354, Note_on_c, 0, 77, 90
2, 41356, Note_on_c, 0, 58, 79
2, 41501, Note_on_c, 0, 68, 96
2, 41548, Control_c, 0, 64, 127
2, 41648, Note_on_c, 0, 58, 0
2, 41654, Note_on_c, 0, 58, 76
2, 41771, Note_on_c, 0, 70, 0
2, 41781, Note_on_c, 0, 70, 99
2, 41909, Note_on_c, 0, 58, 0
2, 41920, Note_on_c, 0, 58, 90
2, 42001, Note_on_c, 0, 79, 0
2, 42009, Note_on_c, 0, 74, 0
2, 42018, Note_on_c, 0, 68, 0
2, 42019, Note_on_c, 0, 70, 0
2, 42020, Note_on_c, 0, 77, 0
2, 42020, Control_c, 0, 64, 0
2, 42032, Note_on_c, 0, 67, 0
2, 42040, Note_on_c, 0, 58, 0
2, 42060, Note_on_c, 0, 82, 105
2, 42067, Note_on_c, 0, 77, 90
2, 42069, Note_on_c, 0, 74, 88
2, 42071, Note_on_c, 0, 70, 99
2, 42075, Note_on_c, 0, 46, 84
2, 42075, Note_on_c, 0, 58, 94
2, 42124, Note_on_c, 0, 58, 0
2, 42140, Note_on_c, 0, 46, 0
2, 42186, Note_on_c, 0, 70, 0
2, 42186, Note_on_c, 0, 74, 0
2, 42193, Note_on_c, 0, 77, 0
2, 42240, Note_on_c, 0, 82, 0
2, 42351, Note_on_c, 0, 82, 102
2, 42358, Note_on_c, 0, 70, 99
2, 42361, Note_on_c, 0, 77, 83
2, 42364, Note_on_c, 0, 74, 82
2, 42364, Note_on_c, 0, 46, 83
2, 42367, Note_on_c, 0, 34, 80
2, 42432, Note_on_c, 0, 74, 0
2, 42439, Note_on_c, 0, 46, 0
2, 42455, Note_on_c, 0, 34, 0
2, 42462, Note_on_c, 0, 70, 0
2, 42468, Note_on_c, 0, 82, 0
2, 42470, Note_on_c, 0, 77, 0
2, 42647, Note_on_c, 0, 82, 101
2, 42649, Note_on_c, 0, 77, 90
2, 42650, Note_on_c, 0, 70, 97
2, 42651, Note_on_c, 0, 74, 82
2, 42656, Note_on_c, 0, 46, 85
2, 42661, Note_on_c, 0, 34, 80
2, 42716, Note_on_c, 0, 74, 0
2, 42739, Note_on_c, 0, 77, 0
2, 42808, Note_on_c, 0, 46, 0
2, 42808, Note_on_c, 0, 70, 0
2, 42839, Note_on_c, 0, 34, 0
2, 42862, Note_on_c, 0, 82, 0
2, 42927, Note_on_c, 0, 84, 93
2, 42934, Note_on_c, 0, 34, 86
2, 42935, Note_on_c, 0, 46, 84
2, 42935, Note_on_c, 0, 72, 80
2, 42939, Note_on_c, 0, 77, 73
2, 43000, Note_on_c, 0, 46, 0
2, 43008, Note_on_c, 0, 34, 0
2, 43065, Note_on_c, 0, 82, 97
2, 43071, Note_on_c, 0, 70, 90
2, 43207, Note_on_c, 0, 72, 0
2, 43207, Note_on_c, 0, 84, 0
2, 43209, Note_on_c, 0, 58, 92
2, 43212, Note_on_c, 0, 84, 93
2, 43212, Note_on_c, 0, 46, 86
2, 43215, Note_on_c, 0, 72, 89
2, 43224, Note_on_c, 0, 82, 0
2, 43228, Note_on_c, 0, 70, 0
2, 43238, Note_on_c, 0, 77, 0
2, 43247, Note_on_c, 0, 72, 0
2, 43250, Note_on_c, 0, 46, 0
2, 43261, Note_on_c, 0, 58, 0
2, 43276, Note_on_c, 0, 84, 0
2, 43362, Note_on_c, 0, 84, 95
2, 43363, Note_on_c, 0, 58, 89
2, 43365, Note_on_c, 0, 72, 91
2, 43370, Note_on_c, 0, 46, 86
2, 43409, Note_on_c, 0, 46, 0
2, 43430, Note_on_c, 0, 58, 0
2, 43560, Note_on_c, 0, 72, 0
2, 43599, Note_on_c, 0, 84, 0
2, 43648, Note_on_c, 0, 82, 105
2, 43656, Note_on_c, 0, 70, 98
2, 43658, Note_on_c, 0, 77, 86
2, 43658, Note_on_c, 0, 46, 84
2, 43659, Note_on_c, 0, 74, 84
2, 43661, Note_on_c, 0, 34, 82
2, 43806, Control_c, 0, 64, 127
2, 43929, Note_on_c, 0, 34, 0
2, 43938, Note_on_c, 0, 34, 81
2, 43938, Note_on_c, 0, 27, 87
2, 43940, Note_on_c, 0, 58, 72
2, 44067, Note_on_c, 0, 34, 0
2, 44072, Note_on_c, 0, 34, 77
2, 44213, Note_on_c, 0, 34, 0
2, 44213, Note_on_c, 0, 58, 0
2, 44217, Note_on_c, 0, 34, 89
2, 44218, Note_on_c, 0, 22, 93
2, 44220, Note_on_c, 0, 58, 77
2, 44490, Note_on_c, 0, 34, 0
2, 44490, Note_on_c, 0, 46, 0
2, 44490, Note_on_c, 0, 58, 0
2, 44490, Note_on_c, 0, 70, 0
2, 44497, Note_on_c, 0, 70, 94
2, 44501, Note_on_c, 0, 46, 82
2, 44501, Note_on_c, 0, 58, 86
2, 44501, Note_on_c, 0, 34, 84
2, 44625, Control_c, 0, 64, 0
2, 44636, Note_on_c, 0, 70, 0
2, 44637, Note_on_c, 0, 74, 0
2, 44638, Note_on_c, 0, 58, 0
2, 44639, Note_on_c, 0, 51, 90
2, 44639, Note_on_c, 0, 63, 81
2, 44639, Note_on_c, 0, 75, 94
2, 44639, Note_on_c, 0, 34, 0
2, 44640, Note_on_c, 0, 39, 77
2, 44640, Note_on_c, 0, 82, 0
2, 44641, Note_on_c, 0, 70, 80
2, 44651, Note_on_c, 0, 22, 0
2, 44674, Note_on_c, 0, 27, 0
2, 44678, Note_on_c, 0, 75, 0
2, 44682, Note_on_c, 0, 46, 0
2, 44682, Note_on_c, 0, 77, 0
2, 44684, Note_on_c, 0, 39, 0
2, 44689, Note_on_c, 0, 63, 0
2, 44697, Note_on_c, 0, 51, 0
2, 44697, Note_on_c, 0, 70, 0
2, 44771, Note_on_c, 0, 77, 103
2, 44774, Note_on_c, 0, 41, 90
2, 44775, Note_on_c, 0, 53, 91
2, 44778, Note_on_c, 0, 65, 87
2, 44802, Note_on_c, 0, 77, 0
2, 44803, Note_on_c, 0, 53, 0
2, 44803, Note_on_c, 0, 41, 0
2, 44828, Note_on_c, 0, 65, 0
2, 44911, Note_on_c, 0, 80, 96
2, 44914, Note_on_c, 0, 56, 89
2, 44914, Note_on_c, 0, 68, 93
2, 44915, Note_on_c, 0, 44, 85
2, 44939, Note_on_c, 0, 56, 0
2, 44946, Note_on_c, 0, 44, 0
2, 44958, Note_on_c, 0, 68, 0
2, 45035, Note_on_c, 0, 80, 0
2, 45047, Note_on_c, 0, 77, 100
2, 45054, Note_on_c, 0, 65, 89
2, 45054, Note_on_c, 0, 53, 86
2, 45054, Note_on_c, 0, 41, 81
2, 45078, Note_on_c, 0, 65, 0
2, 45082, Note_on_c, 0, 77, 0
2, 45093, Note_on_c, 0, 41, 0
2, 45112, Note_on_c, 0, 53, 0
2, 45197, Note_on_c, 0, 82, 104
2, 45200, Note_on_c, 0, 70, 106
2, 45204, Note_on_c, 0, 58, 95
2, 45207, Note_on_c, 0, 46, 90
2, 45265, Control_c, 0, 64, 127
2, 45438, Control_c, 0, 64, 0
2, 45439, Note_on_c, 0, 70, 0
2, 45439, Note_on_c, 0, 82, 0
2, 45450, Note_on_c, 0, 46, 0
2, 45450, Note_on_c, 0, 58, 0
2, 45472, Note_on_c, 0, 82, 103
2, 45476, Note_on_c, 0, 79, 98
2, 45477, Note_on_c, 0, 75, 101
2, 45477, Note_on_c, 0, 70, 100
2, 45479, Note_on_c, 0, 27, 79
2, 45481, Note_on_c, 0, 34, 76
2, 45488, Note_on_c, 0, 34, 0
2, 45511, Control_c, 0, 64, 127
2, 45770, Note_on_c, 0, 46, 78
2, 45911, Note_on_c, 0, 75, 0
2, 45918, Note_on_c, 0, 70, 0
2, 45920, Note_on_c, 0, 75, 100
2, 45926, Note_on_c, 0, 63, 82
2, 45927, Note_on_c, 0, 70, 85
2, 45927, Note_on_c, 0, 51, 78
2, 45928, Note_on_c, 0, 55, 78
2, 46210, Note_on_c, 0, 51, 0
2, 46214, Note_on_c, 0, 51, 68
2, 46348, Note_on_c, 0, 55, 0
2, 46348, Note_on_c, 0, 63, 0
2, 46348, Note_on_c, 0, 70, 0
2, 46348, Note_on_c, 0, 75, 0
2, 46348, Note_on_c, 0, 79, 0
2, 46348, Note_on_c, 0, 82, 0
2, 46352, Note_on_c, 0, 82, 102
2, 46358, Note_on_c, 0, 63, 66
2, 46358, Note_on_c, 0, 79, 93
2, 46358, Note_on_c, 0, 75, 85
2, 46359, Note_on_c, 0, 70, 98
2, 46359, Note_on_c, 0, 55, 71
2, 46363, Note_on_c, 0, 58, 74
2, 46652, Note_on_c, 0, 31, 79
2, 46652, Note_on_c, 0, 43, 80
2, 46794, Note_on_c, 0, 27, 0
2, 46794, Note_on_c, 0, 63, 0
2, 46794, Note_on_c, 0, 70, 0
2, 46794, Note_on_c, 0, 75, 0
2, 46798, Note_on_c, 0, 75, 98
2, 46799, Control_c, 0, 64, 0
2, 46804, Note_on_c, 0, 31, 0
2, 46804, Note_on_c, 0, 70, 88
2, 46805, Note_on_c, 0, 79, 0
2, 46805, Note_on_c, 0, 67, 77
2, 46805, Note_on_c, 0, 55, 0
2, 46805, Note_on_c, 0, 63, 81
2, 46805, Note_on_c, 0, 58, 0
2, 46806, Note_on_c, 0, 43, 0
2, 46817, Note_on_c, 0, 46, 0
2, 46863, Control_c, 0, 64, 127
2, 46951, Note_on_c, 0, 46, 78
2, 47078, Note_on_c, 0, 51, 0
2, 47082, Note_on_c, 0, 51, 82
2, 47083, Note_on_c, 0, 55, 79
2, 47229, Note_on_c, 0, 84, 99
2, 47232, Note_on_c, 0, 75, 0
2, 47235, Note_on_c, 0, 75, 83
2, 47236, Note_on_c, 0, 79, 91
2, 47237, Note_on_c, 0, 72, 89
2, 47370, Note_on_c, 0, 51, 0
2, 47377, Note_on_c, 0, 51, 64
2, 47516, Note_on_c, 0, 82, 0
2, 47523, Note_on_c, 0, 70, 0
2, 47523, Note_on_c, 0, 75, 0
2, 47523, Note_on_c, 0, 79, 0
2, 47525, Note_on_c, 0, 82, 104
2, 47531, Note_on_c, 0, 70, 87
2, 47532, Note_on_c, 0, 75, 89
2, 47534, Note_on_c, 0, 79, 90
2, 47787, Control_c, 0, 64, 0
2, 47788, Note_on_c, 0, 84, 0
2, 47800, Note_on_c, 0, 46, 0
2, 47800, Note_on_c, 0, 55, 0
2, 47808, Note_on_c, 0, 63, 0
2, 47812, Note_on_c, 0, 32, 88
2, 47814, Note_on_c, 0, 44, 88
2, 47815, Note_on_c, 0, 51, 0
2, 47823, Note_on_c, 0, 67, 0
2, 47877, Control_c, 0, 64, 127
2, 48015, Note_on_c, 0, 44, 0
2, 48024, Note_on_c, 0, 44, 40
2, 48096, Note_on_c, 0, 48, 78
2, 48256, Note_on_c, 0, 56, 87
2, 48257, Note_on_c, 0, 51, 71
2, 48257, Note_on_c, 0, 60, 67
2, 48529, Note_on_c, 0, 51, 0
2, 48533, Note_on_c, 0, 48, 0
2, 48538, Note_on_c, 0, 44, 0
2, 48539, Note_on_c, 0, 51, 71
2, 48540, Note_on_c, 0, 80, 96
2, 48541, Note_on_c, 0, 68, 92
2, 48668, Note_on_c, 0, 56, 0
2, 48675, Note_on_c, 0, 79, 0
2, 48676, Note_on_c, 0, 56, 77
2, 48683, Note_on_c, 0, 75, 0
2, 48683, Note_on_c, 0, 79, 84
2, 48686, Note_on_c, 0, 67, 84
2, 48686, Note_on_c, 0, 81, 88
2, 48687, Note_on_c, 0, 75, 72
2, 48698, Control_c, 0, 64, 0
2, 48783, Control_c, 0, 64, 127
2, 48819, Note_on_c, 0, 77, 98
2, 48833, Note_on_c, 0, 65, 77
2, 48833, Note_on_c, 0, 74, 85
2, 48918, Note_on_c, 0, 51, 0
2, 48919, Note_on_c, 0, 81, 0
2, 48919, Note_on_c, 0, 79, 0
2, 48920, Note_on_c, 0, 67, 0
2, 48923, Control_c, 0, 64, 0
2, 48929, Note_on_c, 0, 32, 0
2, 48929, Note_on_c, 0, 60, 0
2, 48929, Note_on_c, 0, 72, 0
2, 48929, Note_on_c, 0, 80, 0
2, 48936, Note_on_c, 0, 56, 0
2, 48936, Note_on_c, 0, 68, 0
2, 48936, Note_on_c, 0, 82, 0
2, 48952, Note_on_c, 0, 75, 0
2, 48967, Control_c, 0, 64, 127
2, 48971, Note_on_c, 0, 34, 79
2, 49125, Note_on_c, 0, 75, 94
2, 49134, Note_on_c, 0, 63, 77
2, 49257, Note_on_c, 0, 58, 67
2, 49259, Note_on_c, 0, 75, 0
2, 49260, Note_on_c, 0, 46, 66
2, 49264, Note_on_c, 0, 75, 96
2, 49267, Note_on_c, 0, 58, 0
2, 49274, Note_on_c, 0, 72, 61
2, 49282, Note_on_c, 0, 72, 0
2, 49390, Note_on_c, 0, 63, 0
2, 49390, Note_on_c, 0, 75, 0
2, 49395, Note_on_c, 0, 75, 94
2, 49400, Note_on_c, 0, 63, 81
2, 49508, Note_on_c, 0, 65, 0
2, 49509, Control_c, 0, 64, 0
2, 49509, Note_on_c, 0, 46, 0
2, 49509, Note_on_c, 0, 77, 0
2, 49520, Note_on_c, 0, 70, 0
2, 49520, Note_on_c, 0, 74, 0
2, 49528, Note_on_c, 0, 34, 0
2, 49532, Note_on_c, 0, 35, 73
2, 49536, Note_on_c, 0, 63, 0
2, 49536, Note_on_c, 0, 75, 0
2, 49540, Note_on_c, 0, 75, 102
2, 49543, Note_on_c, 0, 63, 87
2, 49545, Note_on_c, 0, 71, 83
2, 49547, Note_on_c, 0, 67, 84
2, 49589, Control_c, 0, 64, 127
2, 49612, Note_on_c, 0, 63, 0
2, 49620, Note_on_c, 0, 35, 0
2, 49809, Control_c, 0, 64, 0
2, 49824, Note_on_c, 0, 77, 99
2, 49831, Note_on_c, 0, 75, 0
2, 49834, Note_on_c, 0, 65, 88
2, 49838, Note_on_c, 0, 53, 82
2, 49838, Note_on_c, 0, 62, 81
2, 49842, Note_on_c, 0, 47, 66
2, 49855, Note_on_c, 0, 48, 54
2, 49873, Control_c, 0, 64, 127
2, 49889, Note_on_c, 0, 67, 0
2, 50012, Note_on_c, 0, 47, 0
2, 50062, Note_on_c, 0, 62, 0
2, 50062, Note_on_c, 0, 65, 0
2, 50062, Control_c, 0, 64, 0
2, 50062, Note_on_c, 0, 53, 0
2, 50063, Note_on_c, 0, 71, 0
2, 50063, Note_on_c, 0, 77, 0
2, 50073, Note_on_c, 0, 48, 0
2, 50100, Note_on_c, 0, 79, 103
2, 50103, Note_on_c, 0, 67, 93
2, 50105, Note_on_c, 0, 75, 88
2, 50105, Note_on_c, 0, 48, 76
2, 50110, Note_on_c, 0, 36, 71
2, 50150, Control_c, 0, 64, 127
2, 50173, Note_on_c, 0, 48, 0
2, 50258, Note_on_c, 0, 60, 62
2, 50276, Note_on_c, 0, 51, 56
2, 50284, Note_on_c, 0, 55, 44
2, 50350, Note_on_c, 0, 67, 0
2, 50394, Note_on_c, 0, 48, 74
2, 50501, Control_c, 0, 64, 0
2, 50507, Note_on_c, 0, 48, 0
2, 50511, Note_on_c, 0, 36, 0
2, 50512, Note_on_c, 0, 75, 0
2, 50526, Note_on_c, 0, 60, 0
2, 50526, Note_on_c, 0, 79, 0
2, 50529, Note_on_c, 0, 86, 100
2, 50534, Note_on_c, 0, 51, 0
2, 50534, Note_on_c, 0, 55, 0
2, 50537, Note_on_c, 0, 74, 74
2, 50537, Note_on_c, 0, 60, 68
2, 50537, Note_on_c, 0, 79, 83
2, 50539, Note_on_c, 0, 51, 67
2, 50540, Note_on_c, 0, 55, 57
2, 50576, Note_on_c, 0, 51, 0
2, 50578, Note_on_c, 0, 60, 0
2, 50583, Note_on_c, 0, 55, 0
2, 50634, Control_c, 0, 64, 127
2, 50685, Note_on_c, 0, 48, 69
2, 50816, Note_on_c, 0, 48, 0
2, 50822, Note_on_c, 0, 60, 71
2, 50824, Note_on_c, 0, 55, 61
2, 50824, Note_on_c, 0, 51, 67
2, 50919, Note_on_c, 0, 86, 0
2, 50920, Note_on_c, 0, 51, 0
2, 50920, Note_on_c, 0, 74, 0
2, 50921, Note_on_c, 0, 55, 0
2, 50921, Note_on_c, 0, 60, 0
2, 50922, Control_c, 0, 64, 0
2, 50956, Note_on_c, 0, 79, 0
2, 50960, Note_on_c, 0, 79, 94
2, 50970, Note_on_c, 0, 75, 80
2, 50971, Note_on_c, 0, 67, 82
2, 50975, Note_on_c, 0, 72, 72
2, 50975, Note_on_c, 0, 48, 74
2, 51011, Note_on_c, 0, 48, 0
2, 51041, Control_c, 0, 64, 127
2, 51122, Note_on_c, 0, 51, 74
2, 51122, Note_on_c, 0, 60, 74
2, 51246, Note_on_c, 0, 33, 84
2, 51251, Note_on_c, 0, 45, 79
2, 51394, Note_on_c, 0, 60, 0
2, 51397, Note_on_c, 0, 77, 96
2, 51400, Note_on_c, 0, 57, 77
2, 51401, Note_on_c, 0, 53, 75
2, 51402, Control_c, 0, 64, 0
2, 51403, Note_on_c, 0, 60, 79
2, 51404, Note_on_c, 0, 69, 79
2, 51405, Note_on_c, 0, 65, 85
2, 51448, Control_c, 0, 64, 127
2, 51525, Note_on_c, 0, 75, 0
2, 51529, Note_on_c, 0, 75, 93
2, 51532, Note_on_c, 0, 72, 0
2, 51538, Note_on_c, 0, 72, 76
2, 51540, Note_on_c, 0, 63, 73
2, 51544, Note_on_c, 0, 48, 73
2, 51555, Note_on_c, 0, 33, 0
2, 51559, Note_on_c, 0, 51, 0
2, 51559, Note_on_c, 0, 45, 0
2, 51559, Note_on_c, 0, 53, 0
2, 51560, Note_on_c, 0, 65, 0
2, 51560, Note_on_c, 0, 57, 0
2, 51564, Note_on_c, 0, 79, 0
2, 51565, Note_on_c, 0, 77, 0
2, 51565, Note_on_c, 0, 60, 0
2, 51578, Note_on_c, 0, 67, 0
2, 51648, Note_on_c, 0, 48, 0
2, 51684, Note_on_c, 0, 60, 65
2, 51685, Note_on_c, 0, 53, 63
2, 51689, Note_on_c, 0, 57, 70
2, 51726, Control_c, 0, 64, 0
2, 51735, Note_on_c, 0, 69, 0
2, 51736, Note_on_c, 0, 57, 0
2, 51743, Note_on_c, 0, 63, 0
2, 51743, Note_on_c, 0, 60, 0
2, 51743, Note_on_c, 0, 53, 0
2, 51744, Note_on_c, 0, 75, 0
2, 51763, Note_on_c, 0, 72, 0
2, 51821, Note_on_c, 0, 75, 86
2, 51821, Note_on_c, 0, 48, 78
2, 51827, Note_on_c, 0, 63, 74
2, 51853, Note_on_c, 0, 63, 0
2, 51858, Note_on_c, 0, 75, 0
2, 51878, Note_on_c, 0, 48, 0
2, 51963, Note_on_c, 0, 63, 67
2, 51966, Note_on_c, 0, 57, 68
2, 51967, Note_on_c, 0, 75, 83
2, 51969, Note_on_c, 0, 53, 57
2, 51972, Note_on_c, 0, 60, 63
2, 51998, Note_on_c, 0, 57, 0
2, 52005, Note_on_c, 0, 63, 0
2, 52018, Note_on_c, 0, 53, 0
2, 52047, Note_on_c, 0, 60, 0
2, 52091, Note_on_c, 0, 48, 71
2, 52096, Note_on_c, 0, 77, 91
2, 52104, Note_on_c, 0, 65, 76
2, 52106, Note_on_c, 0, 72, 58
2, 52140, Note_on_c, 0, 48, 0
2, 52170, Note_on_c, 0, 75, 0
2, 52185, Control_c, 0, 64, 127
2, 52242, Note_on_c, 0, 57, 68
2, 52243, Note_on_c, 0, 79, 100
2, 52247, Note_on_c, 0, 72, 0
2, 52247, Note_on_c, 0, 60, 67
2, 52251, Note_on_c, 0, 75, 81
2, 52251, Note_on_c, 0, 67, 77
2, 52252, Note_on_c, 0, 72, 75
2, 52257, Note_on_c, 0, 48, 62
2, 52333, Control_c, 0, 64, 0
2, 52335, Note_on_c, 0, 57, 0
2, 52339, Note_on_c, 0, 65, 0
2, 52339, Note_on_c, 0, 77, 0
2, 52350, Note_on_c, 0, 48, 0
2, 52369, Note_on_c, 0, 60, 0
2, 52388, Note_on_c, 0, 44, 71
2, 52469, Control_c, 0, 64, 127
2, 52521, Note_on_c, 0, 48, 67
2, 52665, Note_on_c, 0, 51, 68
2, 52801, Note_on_c, 0, 56, 75
2, 52935, Note_on_c, 0, 60, 73
2, 53076, Note_on_c, 0, 56, 0
2, 53078, Note_on_c, 0, 80, 86
2, 53084, Note_on_c, 0, 75, 0
2, 53085, Note_on_c, 0, 63, 65
2, 53086, Note_on_c, 0, 56, 60
2, 53090, Note_on_c, 0, 75, 65
2, 53214, Note_on_c, 0, 79, 0
2, 53215, Note_on_c, 0, 68, 76
2, 53219, Note_on_c, 0, 79, 88
2, 53319, Note_on_c, 0, 51, 0
2, 53319, Note_on_c, 0, 80, 0
2, 53319, Note_on_c, 0, 48, 0
2, 53319, Note_on_c, 0, 63, 0
2, 53320, Note_on_c, 0, 56, 0
2, 53320, Note_on_c, 0, 68, 0
2, 53320, Note_on_c, 0, 75, 0
2, 53320, Note_on_c, 0, 60, 0
2, 53320, Note_on_c, 0, 44, 0
2, 53320, Note_on_c, 0, 67, 0
2, 53321, Note_on_c, 0, 72, 0
2, 53321, Note_on_c, 0, 79, 0
2, 53321, Control_c, 0, 64, 0
2, 53356, Note_on_c, 0, 77, 95
2, 53369, Note_on_c, 0, 70, 92
2, 53371, Note_on_c, 0, 74, 83
2, 53372, Note_on_c, 0, 46, 78
2, 53407, Note_on_c, 0, 46, 0
2, 53422, Control_c, 0, 64, 127
2, 53627, Note_on_c, 0, 82, 90
2, 53760, Note_on_c, 0, 70, 0
2, 53760, Note_on_c, 0, 82, 0
2, 53770, Note_on_c, 0, 82, 97
2, 53771, Note_on_c, 0, 70, 80
2, 53835, Note_on_c, 0, 68, 80
2, 53890, Note_on_c, 0, 82, 0
2, 53895, Note_on_c, 0, 82, 90
2, 53911, Note_on_c, 0, 67, 78
2, 53982, Note_on_c, 0, 65, 70
2, 54017, Note_on_c, 0, 63, 78
2, 54032, Note_on_c, 0, 84, 98
2, 54046, Note_on_c, 0, 72, 84
2, 54102, Note_on_c, 0, 62, 72
2, 54169, Note_on_c, 0, 60, 68
2, 54216, Note_on_c, 0, 58, 79
2, 54298, Note_on_c, 0, 56, 75
2, 54305, Note_on_c, 0, 82, 0
2, 54311, Note_on_c, 0, 82, 95
2, 54312, Note_on_c, 0, 70, 0
2, 54324, Note_on_c, 0, 70, 85
2, 54354, Note_on_c, 0, 55, 75
2, 54439, Note_on_c, 0, 53, 57
2, 54477, Note_on_c, 0, 51, 80
2, 54565, Note_on_c, 0, 77, 0
2, 54565, Control_c, 0, 64, 0
2, 54565, Note_on_c, 0, 65, 0
2, 54566, Note_on_c, 0, 56, 0
2, 54566, Note_on_c, 0, 74, 0
2, 54567, Note_on_c, 0, 62, 0
2, 54567, Note_on_c, 0, 63, 0
2, 54567, Note_on_c, 0, 68, 0
2, 54567, Note_on_c, 0, 67, 0
2, 54567, Note_on_c, 0, 51, 0
2, 54567, Note_on_c, 0, 60, 0
2, 54567, Note_on_c, 0, 58, 0
2, 54568, Note_on_c, 0, 55, 0
2, 54568, Note_on_c, 0, 72, 0
2, 54568, Note_on_c, 0, 53, 0
2, 54569, Note_on_c, 0, 84, 0
2, 54581, Note_on_c, 0, 70, 0
2, 54589, Note_on_c, 0, 82, 0
2, 54600, Note_on_c, 0, 82, 100
2, 54601, Note_on_c, 0, 39, 74
2, 54601, Note_on_c, 0, 79, 95
2, 54604, Note_on_c, 0, 70, 91
2, 54605, Note_on_c, 0, 75, 89
2, 54658, Control_c, 0, 64, 127
2, 54712, Note_on_c, 0, 39, 0
2, 54746, Note_on_c, 0, 58, 69
2, 54776, Note_on_c, 0, 55, 62
2, 54887, Note_on_c, 0, 46, 68
2, 55019, Note_on_c, 0, 70, 0
2, 55019, Note_on_c, 0, 75, 0
2, 55023, Note_on_c, 0, 75, 92
2, 55024, Control_c, 0, 64, 0
2, 55027, Note_on_c, 0, 55, 0
2, 55027, Note_on_c, 0, 58, 0
2, 55028, Note_on_c, 0, 70, 88
2, 55029, Note_on_c, 0, 67, 81
2, 55031, Note_on_c, 0, 55, 70
2, 55031, Note_on_c, 0, 58, 71
2, 55033, Note_on_c, 0, 79, 0
2, 55033, Note_on_c, 0, 82, 0
2, 55039, Note_on_c, 0, 46, 0
2, 55088, Note_on_c, 0, 58, 0
2, 55096, Control_c, 0, 64, 127
2, 55185, Note_on_c, 0, 51, 75
2, 55334, Note_on_c, 0, 55, 0
2, 55339, Note_on_c, 0, 55, 57
2, 55340, Note_on_c, 0, 58, 66
2, 55447, Control_c, 0, 64, 0
2, 55450, Note_on_c, 0, 51, 0
2, 55450, Note_on_c, 0, 55, 0
2, 55450, Note_on_c, 0, 58, 0
2, 55451, Note_on_c, 0, 67, 0
2, 55464, Note_on_c, 0, 70, 0
2, 55464, Note_on_c, 0, 75, 0
2, 55468, Note_on_c, 0, 82, 97
2, 55468, Note_on_c, 0, 46, 80
2, 55468, Note_on_c, 0, 79, 86
2, 55474, Note_on_c, 0, 70, 89
2, 55475, Note_on_c, 0, 75, 83
2, 55501, Note_on_c, 0, 46, 0
2, 55518, Control_c, 0, 64, 127
2, 55610, Note_on_c, 0, 55, 63
2, 55612, Note_on_c, 0, 58, 67
2, 55748, Note_on_c, 0, 43, 83
2, 55796, Control_c, 0, 64, 0
2, 55810, Control_c, 0, 64, 127
2, 55879, Note_on_c, 0, 75, 0
2, 55884, Note_on_c, 0, 75, 96
2, 55887, Note_on_c, 0, 55, 0
2, 55887, Note_on_c, 0, 58, 0
2, 55887, Note_on_c, 0, 70, 0
2, 55891, Note_on_c, 0, 70, 83
2, 55891, Note_on_c, 0, 55, 72
2, 55892, Note_on_c, 0, 67, 80
2, 55895, Note_on_c, 0, 58, 69
2, 55895, Note_on_c, 0, 79, 0
2, 56040, Note_on_c, 0, 46, 73
2, 56194, Note_on_c, 0, 55, 0
2, 56194, Note_on_c, 0, 58, 0
2, 56198, Note_on_c, 0, 58, 65
2, 56202, Note_on_c, 0, 55, 63
2, 56315, Control_c, 0, 64, 0
2, 56316, Note_on_c, 0, 46, 0
2, 56317, Note_on_c, 0, 67, 0
2, 56318, Note_on_c, 0, 58, 0
2, 56319, Note_on_c, 0, 55, 0
2, 56319, Note_on_c, 0, 82, 0
2, 56320, Note_on_c, 0, 43, 0
2, 56325, Note_on_c, 0, 75, 0
2, 56329, Note_on_c, 0, 84, 93
2, 56332, Note_on_c, 0, 70, 0
2, 56334, Note_on_c, 0, 72, 85
2, 56334, Note_on_c, 0, 75, 82
2, 56334, Note_on_c, 0, 79, 85
2, 56337, Note_on_c, 0, 51, 76
2, 56340, Note_on_c, 0, 72, 0
2, 56378, Control_c, 0, 64, 127
2, 56475, Note_on_c, 0, 58, 64
2, 56475, Note_on_c, 0, 55, 59
2, 56612, Note_on_c, 0, 82, 96
2, 56613, Note_on_c, 0, 46, 71
2, 56616, Note_on_c, 0, 75, 0
2, 56616, Note_on_c, 0, 79, 0
2, 56621, Note_on_c, 0, 75, 78
2, 56621, Note_on_c, 0, 79, 84
2, 56622, Note_on_c, 0, 70, 85
2, 56739, Note_on_c, 0, 55, 0
2, 56739, Note_on_c, 0, 58, 0
2, 56750, Note_on_c, 0, 58, 73
2, 56751, Note_on_c, 0, 55, 62
2, 56862, Note_on_c, 0, 84, 0
2, 56868, Note_on_c, 0, 46, 0
2, 56870, Note_on_c, 0, 51, 0
2, 56871, Note_on_c, 0, 55, 0
2, 56872, Control_c, 0, 64, 0
2, 56893, Note_on_c, 0, 58, 0
2, 56896, Note_on_c, 0, 44, 88
2, 56931, Control_c, 0, 64, 127
2, 57042, Note_on_c, 0, 60, 72
2, 57043, Note_on_c, 0, 56, 69
2, 57176, Note_on_c, 0, 48, 77
2, 57315, Note_on_c, 0, 56, 0
2, 57315, Note_on_c, 0, 60, 0
2, 57325, Note_on_c, 0, 60, 72
2, 57327, Note_on_c, 0, 56, 72
2, 57423, Note_on_c, 0, 44, 0
2, 57472, Control_c, 0, 64, 0
2, 57473, Note_on_c, 0, 60, 0
2, 57473, Note_on_c, 0, 51, 77
2, 57500, Note_on_c, 0, 56, 0
2, 57500, Control_c, 0, 64, 127
2, 57616, Note_on_c, 0, 80, 90
2, 57619, Note_on_c, 0, 60, 66
2, 57620, Note_on_c, 0, 68, 85
2, 57621, Note_on_c, 0, 72, 72
2, 57624, Note_on_c, 0, 56, 74
2, 57726, Control_c, 0, 64, 0
2, 57728, Note_on_c, 0, 60, 0
2, 57730, Note_on_c, 0, 51, 0
2, 57738, Note_on_c, 0, 70, 0
2, 57745, Note_on_c, 0, 48, 0
2, 57745, Note_on_c, 0, 79, 0
2, 57745, Control_c, 0, 64, 127
2, 57753, Note_on_c, 0, 82, 0
2, 57753, Note_on_c, 0, 48, 73
2, 57757, Note_on_c, 0, 79, 88
2, 57758, Note_on_c, 0, 67, 83
2, 57853, Note_on_c, 0, 68, 0
2, 57868, Note_on_c, 0, 75, 0
2, 57876, Note_on_c, 0, 56, 0
2, 57884, Note_on_c, 0, 72, 0
2, 57887, Note_on_c, 0, 56, 76
2, 57888, Note_on_c, 0, 77, 89
2, 57905, Note_on_c, 0, 74, 67
2, 57912, Note_on_c, 0, 65, 71
2, 57912, Note_on_c, 0, 70, 69
2, 57937, Control_c, 0, 64, 0
2, 57937, Note_on_c, 0, 80, 0
2, 57940, Note_on_c, 0, 79, 0
2, 57943, Note_on_c, 0, 56, 0
2, 57945, Note_on_c, 0, 67, 0
2, 57953, Note_on_c, 0, 48, 0
2, 58046, Note_on_c, 0, 58, 75
2, 58047, Note_on_c, 0, 46, 75
2, 58188, Note_on_c, 0, 75, 89
2, 58193, Note_on_c, 0, 63, 78
2, 58219, Note_on_c, 0, 65, 0
2, 58225, Note_on_c, 0, 74, 0
2, 58226, Note_on_c, 0, 77, 0
2, 58226, Note_on_c, 0, 70, 0
2, 58233, Note_on_c, 0, 63, 0
2, 58236, Note_on_c, 0, 75, 0
2, 58321, Control_c, 0, 64, 127
2, 58329, Note_on_c, 0, 75, 84
2, 58332, Note_on_c, 0, 63, 73
2, 58460, Note_on_c, 0, 58, 0
2, 58460, Note_on_c, 0, 63, 0
2, 58460, Note_on_c, 0, 75, 0
2, 58469, Note_on_c, 0, 75, 89
2, 58470, Note_on_c, 0, 63, 70
2, 58471, Note_on_c, 0, 58, 61
2, 58532, Control_c, 0, 64, 0
2, 58532, Note_on_c, 0, 58, 0
2, 58532, Note_on_c, 0, 63, 0
2, 58533, Note_on_c, 0, 75, 0
2, 58544, Note_on_c, 0, 46, 0
2, 58604, Note_on_c, 0, 75, 89
2, 58616, Note_on_c, 0, 63, 71
2, 58616, Note_on_c, 0, 71, 74
2, 58617, Note_on_c, 0, 59, 68
2, 58618, Note_on_c, 0, 67, 74
2, 58623, Note_on_c, 0, 55, 65
2, 58623, Note_on_c, 0, 47, 62
2, 58690, Note_on_c, 0, 59, 0
2, 58690, Control_c, 0, 64, 127
2, 58894, Note_on_c, 0, 77, 93
2, 58901, Note_on_c, 0, 65, 77
2, 59122, Control_c, 0, 64, 0
2, 59122, Note_on_c, 0, 63, 0
2, 59123, Note_on_c, 0, 71, 0
2, 59123, Note_on_c, 0, 75, 0
2, 59124, Note_on_c, 0, 77, 0
2, 59124, Note_on_c, 0, 65, 0
2, 59128, Note_on_c, 0, 47, 0
2, 59128, Note_on_c, 0, 55, 0
2, 59128, Note_on_c, 0, 67, 0
2, 59173, Note_on_c, 0, 48, 68
2, 59174, Note_on_c, 0, 79, 86
2, 59182, Note_on_c, 0, 72, 73
2, 59185, Note_on_c, 0, 75, 79
2, 59212, Note_on_c, 0, 48, 0
2, 59220, Control_c, 0, 64, 127
2, 59324, Note_on_c, 0, 67, 68
2, 59326, Note_on_c, 0, 60, 44
2, 59469, Note_on_c, 0, 63, 60
2, 59520, Note_on_c, 0, 60, 0
2, 59589, Note_on_c, 0, 72, 0
2, 59599, Note_on_c, 0, 86, 88
2, 59600, Note_on_c, 0, 72, 67
2, 59604, Note_on_c, 0, 79, 0
2, 59612, Note_on_c, 0, 75, 0
2, 59615, Note_on_c, 0, 79, 78
2, 59616, Note_on_c, 0, 75, 60
2, 59618, Note_on_c, 0, 67, 0
2, 59620, Control_c, 0, 64, 0
2, 59626, Note_on_c, 0, 63, 0
2, 59727, Control_c, 0, 64, 127
2, 59737, Note_on_c, 0, 60, 67
2, 59796, Note_on_c, 0, 72, 0
2, 59877, Note_on_c, 0, 67, 70
2, 59991, Control_c, 0, 64, 0
2, 59998, Note_on_c, 0, 60, 0
2, 59998, Note_on_c, 0, 86, 0
2, 60026, Note_on_c, 0, 75, 0
2, 60026, Note_on_c, 0, 79, 0
2, 60031, Note_on_c, 0, 79, 84
2, 60031, Note_on_c, 0, 63, 59
2, 60036, Note_on_c, 0, 75, 68
2, 60088, Control_c, 0, 64, 127
2, 60175, Note_on_c, 0, 72, 63
2, 60281, Control_c, 0, 64, 0
2, 60282, Note_on_c, 0, 63, 0
2, 60288, Note_on_c, 0, 72, 0
2, 60295, Note_on_c, 0, 67, 0
2, 60304, Note_on_c, 0, 57, 68
2, 60440, Note_on_c, 0, 77, 81
2, 60458, Note_on_c, 0, 65, 63
2, 60556, Note_on_c, 0, 75, 0
2, 60568, Note_on_c, 0, 75, 80
2, 60597, Note_on_c, 0, 72, 66
2, 60599, Note_on_c, 0, 60, 61
2, 60630, Note_on_c, 0, 77, 0
2, 60633, Note_on_c, 0, 79, 0
2, 60638, Note_on_c, 0, 57, 0
2, 60664, Control_c, 0, 64, 127
2, 60738, Note_on_c, 0, 69, 61
2, 60756, Note_on_c, 0, 60, 0
2, 60791, Control_c, 0, 64, 0
2, 60793, Note_on_c, 0, 75, 0
2, 60794, Note_on_c, 0, 65, 0
2, 60799, Note_on_c, 0, 72, 0
2, 60807, Note_on_c, 0, 69, 0
2, 60874, Note_on_c, 0, 75, 77
2, 60874, Note_on_c, 0, 57, 63
2, 61009, Note_on_c, 0, 75, 0
2, 61015, Note_on_c, 0, 65, 64
2, 61017, Note_on_c, 0, 75, 67
2, 61032, Control_c, 0, 64, 127
2, 61148, Control_c, 0, 64, 0
2, 61149, Note_on_c, 0, 77, 87
2, 61167, Note_on_c, 0, 60, 60
2, 61168, Note_on_c, 0, 57, 0
2, 61232, Control_c, 0, 64, 127
2, 61306, Note_on_c, 0, 69, 58
2, 61401, Note_on_c, 0, 75, 0
2, 61412, Control_c, 0, 64, 0
2, 61415, Note_on_c, 0, 60, 0
2, 61418, Note_on_c, 0, 69, 0
2, 61435, Note_on_c, 0, 53, 62
2, 61470, Note_on_c, 0, 65, 0
2, 61583, Note_on_c, 0, 75, 77
2, 61583, Note_on_c, 0, 60, 63
2, 61618, Note_on_c, 0, 75, 0
2, 61647, Note_on_c, 0, 77, 0
2, 61721, Note_on_c, 0, 63, 65
2, 61721, Note_on_c, 0, 75, 85
2, 61754, Control_c, 0, 64, 127
2, 61847, Note_on_c, 0, 75, 0
2, 61857, Note_on_c, 0, 75, 80
2, 61859, Note_on_c, 0, 68, 75
2, 61998, Note_on_c, 0, 96, 95
2, 62005, Note_on_c, 0, 84, 82
2, 62138, Note_on_c, 0, 72, 61
2, 62273, Note_on_c, 0, 94, 93
2, 62284, Note_on_c, 0, 75, 0
2, 62290, Note_on_c, 0, 75, 77
2, 62410, Note_on_c, 0, 80, 72
2, 62561, Note_on_c, 0, 55, 70
2, 62590, Note_on_c, 0, 94, 0
2, 62592, Note_on_c, 0, 53, 0
2, 62592, Note_on_c, 0, 80, 0
2, 62593, Note_on_c, 0, 75, 0
2, 62593, Note_on_c, 0, 68, 0
2, 62593, Note_on_c, 0, 84, 0
2, 62593, Note_on_c, 0, 63, 0
2, 62593, Note_on_c, 0, 72, 0
2, 62594, Note_on_c, 0, 96, 0
2, 62594, Note_on_c, 0, 60, 0
2, 62594, Control_c, 0, 64, 0
2, 62691, Control_c, 0, 64, 127
2, 62695, Note_on_c, 0, 75, 80
2, 62711, Note_on_c, 0, 63, 71
2, 62826, Note_on_c, 0, 67, 76
2, 62845, Note_on_c, 0, 75, 0
2, 62849, Note_on_c, 0, 75, 72
2, 62968, Note_on_c, 0, 75, 0
2, 62976, Note_on_c, 0, 70, 75
2, 62978, Note_on_c, 0, 75, 89
2, 63124, Note_on_c, 0, 96, 93
2, 63130, Note_on_c, 0, 84, 86
2, 63252, Note_on_c, 0, 75, 0
2, 63263, Note_on_c, 0, 75, 72
2, 63405, Note_on_c, 0, 79, 76
2, 63406, Note_on_c, 0, 94, 93
2, 63426, Note_on_c, 0, 77, 46
2, 63531, Note_on_c, 0, 82, 59
2, 63693, Note_on_c, 0, 56, 72
2, 63693, Note_on_c, 0, 91, 95
2, 63697, Note_on_c, 0, 79, 0
2, 63702, Note_on_c, 0, 94, 0
2, 63703, Note_on_c, 0, 70, 0
2, 63703, Note_on_c, 0, 82, 0
2, 63703, Note_on_c, 0, 96, 0
2, 63703, Note_on_c, 0, 63, 0
2, 63704, Note_on_c, 0, 84, 0
2, 63704, Note_on_c, 0, 75, 0
2, 63704, Note_on_c, 0, 67, 0
2, 63704, Control_c, 0, 64, 0
2, 63704, Note_on_c, 0, 55, 0
2, 63706, Note_on_c, 0, 79, 75
2, 63709, Note_on_c, 0, 87, 83
2, 63713, Note_on_c, 0, 77, 0
2, 63820, Control_c, 0, 64, 127
2, 63841, Note_on_c, 0, 60, 63
2, 63977, Note_on_c, 0, 63, 73
2, 64120, Note_on_c, 0, 68, 79
2, 64261, Note_on_c, 0, 72, 65
2, 64390, Note_on_c, 0, 92, 92
2, 64395, Note_on_c, 0, 75, 71
2, 64519, Note_on_c, 0, 91, 0
2, 64523, Note_on_c, 0, 80, 73
2, 64529, Note_on_c, 0, 91, 84
2, 64676, Note_on_c, 0, 89, 90
2, 64680, Note_on_c, 0, 68, 0
2, 64681, Note_on_c, 0, 56, 0
2, 64681, Note_on_c, 0, 80, 0
2, 64682, Note_on_c, 0, 87, 0
2, 64682, Note_on_c, 0, 79, 0
2, 64682, Note_on_c, 0, 75, 0
2, 64682, Note_on_c, 0, 92, 0
2, 64682, Note_on_c, 0, 91, 0
2, 64682, Note_on_c, 0, 63, 0
2, 64682, Note_on_c, 0, 60, 0
2, 64683, Note_on_c, 0, 72, 0
2, 64684, Note_on_c, 0, 58, 72
2, 64684, Control_c, 0, 64, 0
2, 64692, Note_on_c, 0, 86, 73
2, 64693, Note_on_c, 0, 77, 67
2, 64716, Note_on_c, 0, 82, 64
2, 64780, Note_on_c, 0, 58, 0
2, 64780, Control_c, 0, 64, 127
2, 64971, Note_on_c, 0, 87, 95
2, 64984, Note_on_c, 0, 75, 81
2, 65249, Note_on_c, 0, 87, 0
2, 65255, Note_on_c, 0, 87, 91
2, 65256, Note_on_c, 0, 75, 0
2, 65262, Note_on_c, 0, 75, 77
2, 65387, Note_on_c, 0, 87, 0
2, 65399, Note_on_c, 0, 87, 94
2, 65402, Note_on_c, 0, 75, 0
2, 65412, Note_on_c, 0, 75, 71
2, 65472, Note_on_c, 0, 86, 0
2, 65679, Note_on_c, 0, 82, 0
2, 65679, Note_on_c, 0, 89, 0
2, 65687, Note_on_c, 0, 77, 0
2, 65690, Note_on_c, 0, 89, 91
2, 65697, Note_on_c, 0, 77, 85
2, 65825, Note_on_c, 0, 75, 0
2, 65825, Note_on_c, 0, 87, 0
2, 65834, Note_on_c, 0, 87, 89
2, 65835, Note_on_c, 0, 75, 80
2, 65963, Note_on_c, 0, 89, 0
2, 65971, Note_on_c, 0, 77, 0
2, 65971, Note_on_c, 0, 89, 89
2, 65975, Control_c, 0, 64, 0
2, 65975, Note_on_c, 0, 77, 84
2, 66001, Note_on_c, 0, 75, 0
2, 66001, Note_on_c, 0, 87, 0
2, 66086, Control_c, 0, 64, 127
2, 66097, Note_on_c, 0, 87, 90
2, 66127, Note_on_c, 0, 75, 65
2, 66262, Note_on_c, 0, 63, 65
2, 66329, Note_on_c, 0, 62, 55
2, 66391, Note_on_c, 0, 61, 64
2, 66461, Note_on_c, 0, 45, 48
2, 66463, Note_on_c, 0, 60, 69
2, 66531, Note_on_c, 0, 77, 0
2, 66534, Note_on_c, 0, 59, 70
2, 66579, Note_on_c, 0, 58, 71
2, 66585, Note_on_c, 0, 45, 0
2, 66665, Note_on_c, 0, 57, 74
2, 66744, Note_on_c, 0, 56, 69
2, 66804, Note_on_c, 0, 55, 58
2, 66861, Note_on_c, 0, 54, 71
2, 66929, Note_on_c, 0, 53, 71
2, 67026, Note_on_c, 0, 52, 64
2, 67029, Control_c, 0, 64, 0
2, 67049, Note_on_c, 0, 59, 0
2, 67049, Note_on_c, 0, 57, 0
2, 67049, Note_on_c, 0, 87, 0
2, 67049, Note_on_c, 0, 58, 0
2, 67049, Note_on_c, 0, 62, 0
2, 67049, Note_on_c, 0, 60, 0
2, 67050, Note_on_c, 0, 61, 0
2, 67050, Note_on_c, 0, 54, 0
2, 67050, Note_on_c, 0, 55, 0
2, 67050, Note_on_c, 0, 63, 0
2, 67050, Note_on_c, 0, 53, 0
2, 67051, Note_on_c, 0, 56, 0
2, 67060, Note_on_c, 0, 79, 100
2, 67061, Note_on_c, 0, 75, 0
2, 67061, Note_on_c, 0, 89, 0
2, 67066, Note_on_c, 0, 75, 84
2, 67069, Note_on_c, 0, 52, 0
2, 67070, Note_on_c, 0, 70, 90
2, 67072, Note_on_c, 0, 51, 81
2, 67123, Control_c, 0, 64, 127
2, 67165, Note_on_c, 0, 50, 77
2, 67265, Note_on_c, 0, 49, 71
2, 67331, Note_on_c, 0, 77, 87
2, 67350, Note_on_c, 0, 48, 77
2, 67392, Note_on_c, 0, 75, 0
2, 67401, Note_on_c, 0, 75, 84
2, 67431, Note_on_c, 0, 47, 68
2, 67461, Note_on_c, 0, 77, 0
2, 67466, Note_on_c, 0, 77, 77
2, 67485, Note_on_c, 0, 46, 80
2, 67526, Note_on_c, 0, 82, 94
2, 67570, Control_c, 0, 64, 0
2, 67572, Note_on_c, 0, 51, 0
2, 67572, Note_on_c, 0, 79, 0
2, 67573, Note_on_c, 0, 48, 0
2, 67573, Note_on_c, 0, 75, 0
2, 67573, Note_on_c, 0, 47, 0
2, 67573, Note_on_c, 0, 46, 0
2, 67573, Note_on_c, 0, 49, 0
2, 67576, Note_on_c, 0, 50, 0
2, 67580, Note_on_c, 0, 45, 74
2, 67613, Note_on_c, 0, 80, 99
2, 67614, Note_on_c, 0, 70, 0
2, 67614, Note_on_c, 0, 77, 0
2, 67617, Note_on_c, 0, 44, 76
2, 67619, Note_on_c, 0, 73, 79
2, 67619, Note_on_c, 0, 77, 78
2, 67639, Note_on_c, 0, 45, 0
2, 67668, Note_on_c, 0, 77, 0
2, 67668, Note_on_c, 0, 82, 0
2, 67691, Control_c, 0, 64, 127
2, 67694, Note_on_c, 0, 43, 72
2, 67737, Note_on_c, 0, 80, 0
2, 67745, Note_on_c, 0, 73, 0
2, 67747, Note_on_c, 0, 77, 76
2, 67748, Note_on_c, 0, 80, 83
2, 67748, Note_on_c, 0, 43, 0
2, 67755, Note_on_c, 0, 73, 75
2, 67768, Note_on_c, 0, 44, 0
2, 67768, Control_c, 0, 64, 0
2, 67810, Note_on_c, 0, 41, 76
2, 67852, Control_c, 0, 64, 127
2, 67875, Note_on_c, 0, 80, 0
2, 67883, Note_on_c, 0, 73, 0
2, 67883, Note_on_c, 0, 77, 0
2, 67886, Note_on_c, 0, 85, 103
2, 67887, Note_on_c, 0, 80, 94
2, 67887, Note_on_c, 0, 73, 89
2, 67891, Note_on_c, 0, 77, 87
2, 67948, Note_on_c, 0, 38, 51
2, 67994, Note_on_c, 0, 40, 57
2, 67998, Note_on_c, 0, 41, 0
2, 68003, Note_on_c, 0, 41, 59
2, 68064, Note_on_c, 0, 37, 73
2, 68139, Note_on_c, 0, 41, 0
2, 68140, Note_on_c, 0, 73, 0
2, 68140, Note_on_c, 0, 80, 0
2, 68140, Note_on_c, 0, 85, 0
2, 68140, Control_c, 0, 64, 0
2, 68140, Note_on_c, 0, 77, 0
2, 68140, Note_on_c, 0, 38, 0
2, 68141, Note_on_c, 0, 37, 0
2, 68152, Note_on_c, 0, 40, 0
2, 68170, Note_on_c, 0, 39, 84
2, 68172, Note_on_c, 0, 82, 101
2, 68176, Note_on_c, 0, 79, 91
2, 68178, Note_on_c, 0, 75, 93
2, 68229, Control_c, 0, 64, 127
2, 68467, Note_on_c, 0, 82, 0
2, 68471, Note_on_c, 0, 82, 95
2, 68473, Note_on_c, 0, 63, 77
2, 68475, Note_on_c, 0, 58, 80
2, 68478, Note_on_c, 0, 70, 71
2, 68532, Control_c, 0, 64, 0
2, 68551, Control_c, 0, 64, 127
2, 68611, Note_on_c, 0, 55, 72
2, 68674, Note_on_c, 0, 39, 0
2, 68677, Note_on_c, 0, 84, 71
2, 68689, Note_on_c, 0, 70, 0
2, 68691, Note_on_c, 0, 55, 0
2, 68691, Note_on_c, 0, 63, 0
2, 68691, Note_on_c, 0, 58, 0
2, 68691, Note_on_c, 0, 75, 0
2, 68692, Note_on_c, 0, 82, 0
2, 68693, Control_c, 0, 64, 0
2, 68693, Note_on_c, 0, 79, 0
2, 68754, Note_on_c, 0, 87, 101
2, 68756, Note_on_c, 0, 67, 87
2, 68761, Note_on_c, 0, 63, 76
2, 68762, Note_on_c, 0, 58, 83
2, 68799, Note_on_c, 0, 58, 0
2, 68801, Note_on_c, 0, 63, 0
2, 68828, Note_on_c, 0, 67, 0
2, 68865, Note_on_c, 0, 87, 0
2, 68897, Note_on_c, 0, 84, 0
2, 68897, Note_on_c, 0, 55, 78
2, 68901, Note_on_c, 0, 84, 77
2, 68982, Note_on_c, 0, 55, 0
2, 69032, Note_on_c, 0, 58, 84
2, 69033, Note_on_c, 0, 63, 68
2, 69039, Note_on_c, 0, 82, 89
2, 69059, Note_on_c, 0, 58, 0
2, 69060, Note_on_c, 0, 63, 0
2, 69073, Note_on_c, 0, 84, 0
2, 69183, Note_on_c, 0, 75, 92
2, 69183, Note_on_c, 0, 69, 74
2, 69185, Note_on_c, 0, 53, 84
2, 69187, Note_on_c, 0, 41, 82
2, 69189, Note_on_c, 0, 69, 0
2, 69201, Note_on_c, 0, 82, 0
2, 69212, Control_c, 0, 64, 127
2, 69457, Note_on_c, 0, 53, 0
2, 69457, Note_on_c, 0, 75, 0
2, 69464, Note_on_c, 0, 75, 89
2, 69468, Note_on_c, 0, 53, 74
2, 69561, Control_c, 0, 64, 0
2, 69565, Note_on_c, 0, 41, 0
2, 69573, Note_on_c, 0, 53, 0
2, 69608, Note_on_c, 0, 82, 92
2, 69621, Note_on_c, 0, 63, 68
2, 69623, Note_on_c, 0, 60, 67
2, 69662, Note_on_c, 0, 63, 0
2, 69662, Note_on_c, 0, 60, 0
2, 69688, Note_on_c, 0, 75, 0
2, 69750, Note_on_c, 0, 53, 78
2, 69799, Note_on_c, 0, 53, 0
2, 69884, Note_on_c, 0, 79, 95
2, 69892, Note_on_c, 0, 68, 86
2, 69907, Note_on_c, 0, 63, 64
2, 69908, Note_on_c, 0, 60, 67
2, 69934, Note_on_c, 0, 63, 0
2, 69941, Note_on_c, 0, 82, 0
2, 69969, Note_on_c, 0, 60, 0
2, 70018, Note_on_c, 0, 68, 0
2, 70038, Note_on_c, 0, 53, 65
2, 70156, Control_c, 0, 64, 127
2, 70168, Note_on_c, 0, 63, 77
2, 70171, Note_on_c, 0, 60, 74
2, 70406, Note_on_c, 0, 53, 0
2, 70406, Control_c, 0, 64, 0
2, 70407, Note_on_c, 0, 63, 0
2, 70407, Note_on_c, 0, 79, 0
2, 70408, Note_on_c, 0, 60, 0
2, 70466, Note_on_c, 0, 43, 67
2, 70467, Note_on_c, 0, 70, 81
2, 70502, Note_on_c, 0, 70, 0
2, 70579, Control_c, 0, 64, 127
2, 70620, Note_on_c, 0, 51, 58
2, 70748, Note_on_c, 0, 70, 84
2, 70772, Note_on_c, 0, 55, 62
2, 70907, Note_on_c, 0, 58, 59
2, 70972, Note_on_c, 0, 72, 68
2, 71020, Control_c, 0, 64, 0
2, 71020, Note_on_c, 0, 70, 0
2, 71020, Note_on_c, 0, 43, 0
2, 71020, Note_on_c, 0, 58, 0
2, 71020, Note_on_c, 0, 51, 0
2, 71020, Note_on_c, 0, 55, 0
2, 71052, Note_on_c, 0, 63, 69
2, 71056, Note_on_c, 0, 75, 81
2, 71076, Note_on_c, 0, 72, 0
2, 71161, Note_on_c, 0, 63, 0
2, 71189, Note_on_c, 0, 75, 0
2, 71195, Note_on_c, 0, 58, 61
2, 71197, Note_on_c, 0, 72, 71
2, 71287, Note_on_c, 0, 58, 0
2, 71329, Note_on_c, 0, 55, 59
2, 71329, Note_on_c, 0, 70, 81
2, 71348, Note_on_c, 0, 72, 0
2, 71365, Note_on_c, 0, 55, 0
2, 71480, Note_on_c, 0, 65, 83
2, 71499, Note_on_c, 0, 44, 61
2, 71502, Note_on_c, 0, 70, 0
2, 71623, Note_on_c, 0, 65, 0
2, 71772, Note_on_c, 0, 65, 78
2, 71773, Note_on_c, 0, 51, 67
2, 71794, Note_on_c, 0, 44, 0
2, 71891, Note_on_c, 0, 65, 0
2, 71915, Note_on_c, 0, 72, 79
2, 71918, Note_on_c, 0, 60, 61
2, 72019, Note_on_c, 0, 72, 0
2, 72021, Note_on_c, 0, 51, 0
2, 72056, Note_on_c, 0, 60, 0
2, 72059, Note_on_c, 0, 56, 66
2, 72180, Note_on_c, 0, 70, 86
2, 72188, Note_on_c, 0, 56, 0
2, 72197, Note_on_c, 0, 46, 67
2, 72301, Note_on_c, 0, 46, 0
2, 72333, Note_on_c, 0, 53, 68
2, 72368, Control_c, 0, 64, 127
2, 72483, Note_on_c, 0, 70, 0
2, 72486, Note_on_c, 0, 62, 66
2, 72488, Note_on_c, 0, 70, 57
2, 72619, Note_on_c, 0, 58, 67
2, 72711, Control_c, 0, 64, 0
2, 72711, Note_on_c, 0, 53, 0
2, 72712, Note_on_c, 0, 70, 0
2, 72712, Note_on_c, 0, 58, 0
2, 72712, Note_on_c, 0, 62, 0
2, 72754, Note_on_c, 0, 82, 98
2, 72764, Note_on_c, 0, 79, 92
2, 72764, Note_on_c, 0, 75, 91
2, 72769, Note_on_c, 0, 39, 72
2, 72771, Note_on_c, 0, 51, 77
2, 72821, Control_c, 0, 64, 127
2, 73029, Note_on_c, 0, 82, 0
2, 73036, Note_on_c, 0, 82, 102
2, 73039, Note_on_c, 0, 63, 67
2, 73044, Note_on_c, 0, 63, 0
2, 73044, Note_on_c, 0, 75, 0
2, 73048, Note_on_c, 0, 58, 83
2, 73048, Note_on_c, 0, 75, 75
2, 73203, Note_on_c, 0, 55, 72
2, 73269, Note_on_c, 0, 84, 69
2, 73331, Note_on_c, 0, 87, 102
2, 73332, Note_on_c, 0, 67, 82
2, 73338, Note_on_c, 0, 63, 64
2, 73349, Control_c, 0, 64, 0
2, 73351, Note_on_c, 0, 58, 0
2, 73355, Note_on_c, 0, 55, 0
2, 73355, Note_on_c, 0, 82, 0
2, 73355, Note_on_c, 0, 39, 0
2, 73356, Note_on_c, 0, 58, 58
2, 73358, Note_on_c, 0, 51, 0
2, 73361, Note_on_c, 0, 84, 0
2, 73374, Note_on_c, 0, 79, 0
2, 73400, Note_on_c, 0, 67, 0
2, 73405, Note_on_c, 0, 75, 0
2, 73420, Note_on_c, 0, 58, 0
2, 73443, Note_on_c, 0, 63, 0
2, 73450, Note_on_c, 0, 87, 0
2, 73473, Note_on_c, 0, 55, 74
2, 73479, Note_on_c, 0, 84, 80
2, 73574, Note_on_c, 0, 55, 0
2, 73617, Note_on_c, 0, 58, 79
2, 73617, Note_on_c, 0, 82, 91
2, 73619, Note_on_c, 0, 63, 62
2, 73654, Note_on_c, 0, 58, 0
2, 73657, Note_on_c, 0, 84, 0
2, 73658, Note_on_c, 0, 63, 0
2, 73755, Note_on_c, 0, 75, 91
2, 73762, Note_on_c, 0, 53, 82
2, 73764, Note_on_c, 0, 41, 78
2, 73774, Note_on_c, 0, 82, 0
2, 73820, Control_c, 0, 64, 127
2, 74035, Note_on_c, 0, 53, 0
2, 74035, Note_on_c, 0, 75, 0
2, 74039, Note_on_c, 0, 53, 76
2, 74041, Note_on_c, 0, 75, 85
2, 74169, Control_c, 0, 64, 0
2, 74175, Note_on_c, 0, 41, 0
2, 74176, Note_on_c, 0, 53, 0
2, 74182, Note_on_c, 0, 82, 96
2, 74189, Note_on_c, 0, 75, 0
2, 74198, Note_on_c, 0, 63, 70
2, 74209, Note_on_c, 0, 60, 57
2, 74237, Note_on_c, 0, 63, 0
2, 74246, Note_on_c, 0, 60, 0
2, 74330, Note_on_c, 0, 53, 74
2, 74381, Note_on_c, 0, 53, 0
2, 74449, Note_on_c, 0, 82, 0
2, 74468, Note_on_c, 0, 79, 97
2, 74471, Note_on_c, 0, 68, 89
2, 74489, Note_on_c, 0, 63, 64
2, 74497, Note_on_c, 0, 60, 47
2, 74542, Note_on_c, 0, 63, 0
2, 74600, Note_on_c, 0, 53, 74
2, 74703, Control_c, 0, 64, 127
2, 74757, Note_on_c, 0, 60, 0
2, 74762, Note_on_c, 0, 63, 73
2, 74763, Note_on_c, 0, 60, 71
2, 74931, Note_on_c, 0, 67, 70
2, 74987, Note_on_c, 0, 68, 0
2, 74997, Note_on_c, 0, 68, 76
2, 75005, Note_on_c, 0, 79, 0
2, 75005, Note_on_c, 0, 53, 0
2, 75006, Note_on_c, 0, 63, 0
2, 75006, Note_on_c, 0, 67, 0
2, 75006, Note_on_c, 0, 60, 0
2, 75007, Control_c, 0, 64, 0
2, 75053, Note_on_c, 0, 70, 85
2, 75055, Note_on_c, 0, 43, 64
2, 75056, Note_on_c, 0, 68, 0
2, 75179, Control_c, 0, 64, 127
2, 75212, Note_on_c, 0, 51, 60
2, 75337, Note_on_c, 0, 55, 68
2, 75479, Note_on_c, 0, 68, 84
2, 75482, Note_on_c, 0, 58, 66
2, 75624, Note_on_c, 0, 63, 69
2, 75755, Note_on_c, 0, 58, 0
2, 75759, Note_on_c, 0, 67, 81
2, 75765, Note_on_c, 0, 58, 63
2, 75886, Note_on_c, 0, 55, 0
2, 75895, Note_on_c, 0, 55, 64
2, 75897, Note_on_c, 0, 43, 0
2, 76036, Note_on_c, 0, 68, 0
2, 76036, Note_on_c, 0, 51, 0
2, 76037, Note_on_c, 0, 70, 0
2, 76037, Note_on_c, 0, 67, 0
2, 76040, Control_c, 0, 64, 0
2, 76047, Note_on_c, 0, 63, 0
2, 76051, Note_on_c, 0, 63, 73
2, 76055, Note_on_c, 0, 55, 0
2, 76055, Note_on_c, 0, 58, 0
2, 76065, Note_on_c, 0, 44, 65
2, 76170, Control_c, 0, 64, 127
2, 76332, Note_on_c, 0, 51, 59
2, 76480, Note_on_c, 0, 60, 67
2, 76481, Note_on_c, 0, 56, 67
2, 76717, Note_on_c, 0, 51, 0
2, 76717, Note_on_c, 0, 60, 0
2, 76717, Note_on_c, 0, 56, 0
2, 76718, Note_on_c, 0, 63, 0
2, 76718, Note_on_c, 0, 44, 0
2, 76718, Control_c, 0, 64, 0
2, 76773, Note_on_c, 0, 70, 103
2, 76774, Note_on_c, 0, 65, 86
2, 76775, Note_on_c, 0, 58, 86
2, 76780, Note_on_c, 0, 62, 83
2, 76780, Note_on_c, 0, 46, 84
2, 76797, Note_on_c, 0, 58, 0
2, 76798, Note_on_c, 0, 70, 0
2, 76804, Note_on_c, 0, 46, 0
2, 76815, Note_on_c, 0, 65, 0
2, 76823, Note_on_c, 0, 62, 0
2, 77058, Note_on_c, 0, 70, 101
2, 77060, Note_on_c, 0, 62, 86
2, 77064, Note_on_c, 0, 46, 83
2, 77065, Note_on_c, 0, 34, 80
2, 77087, Note_on_c, 0, 46, 0
2, 77107, Note_on_c, 0, 62, 0
2, 77107, Note_on_c, 0, 70, 0
2, 77114, Note_on_c, 0, 34, 0
2, 77350, Note_on_c, 0, 63, 91
2, 77355, Note_on_c, 0, 70, 96
2, 77356, Note_on_c, 0, 75, 101
2, 77359, Note_on_c, 0, 67, 84
2, 77359, Note_on_c, 0, 51, 89
2, 77365, Note_on_c, 0, 39, 73
2, 77383, Note_on_c, 0, 63, 0
2, 77385, Note_on_c, 0, 70, 0
2, 77406, Note_on_c, 0, 51, 0
2, 77414, Note_on_c, 0, 67, 0
2, 77422, Control_c, 0, 64, 127
2, 77637, Note_on_c, 0, 75, 0
2, 77647, Note_on_c, 0, 75, 82
2, 77727, Note_on_c, 0, 76, 74
2, 77824, Note_on_c, 0, 77, 73
2, 77836, Note_on_c, 0, 39, 0
2, 77847, Note_on_c, 0, 39, 37
2, 77885, Note_on_c, 0, 78, 82
2, 77918, Note_on_c, 0, 47, 71
2, 77956, Note_on_c, 0, 79, 81
2, 77971, Note_on_c, 0, 46, 68
2, 78023, Note_on_c, 0, 80, 78
2, 78063, Note_on_c, 0, 45, 77
2, 78086, Note_on_c, 0, 81, 82
2, 78124, Note_on_c, 0, 44, 48
2, 78146, Note_on_c, 0, 82, 88
2, 78170, Note_on_c, 0, 43, 69
2, 78206, Note_on_c, 0, 83, 86
2, 78260, Note_on_c, 0, 41, 74
2, 78264, Note_on_c, 0, 29, 71
2, 78274, Note_on_c, 0, 29, 0
2, 78276, Note_on_c, 0, 84, 79
2, 78328, Note_on_c, 0, 28, 77
2, 78328, Note_on_c, 0, 40, 71
2, 78332, Note_on_c, 0, 85, 79
2, 78336, Note_on_c, 0, 28, 0
2, 78400, Note_on_c, 0, 86, 90
2, 78402, Note_on_c, 0, 46, 0
2, 78403, Note_on_c, 0, 79, 0
2, 78404, Note_on_c, 0, 43, 0
2, 78405, Note_on_c, 0, 39, 0
2, 78405, Note_on_c, 0, 47, 0
2, 78405, Note_on_c, 0, 77, 0
2, 78406, Note_on_c, 0, 76, 0
2, 78406, Note_on_c, 0, 84, 0
2, 78407, Note_on_c, 0, 82, 0
2, 78407, Note_on_c, 0, 45, 0
2, 78407, Note_on_c, 0, 78, 0
2, 78407, Control_c, 0, 64, 0
2, 78407, Note_on_c, 0, 75, 0
2, 78408, Note_on_c, 0, 44, 0
2, 78408, Note_on_c, 0, 81, 0
2, 78408, Note_on_c, 0, 83, 0
2, 78409, Note_on_c, 0, 85, 0
2, 78409, Note_on_c, 0, 80, 0
2, 78411, Note_on_c, 0, 40, 0
2, 78420, Note_on_c, 0, 41, 0
2, 78446, Note_on_c, 0, 86, 0
2, 78485, Note_on_c, 0, 87, 103
2, 78488, Note_on_c, 0, 27, 88
2, 78489, Note_on_c, 0, 99, 95
2, 78489, Note_on_c, 0, 39, 76
2, 78566, Control_c, 0, 64, 127
2, 79057, Control_c, 0, 64, 0
2, 79557, Note_on_c, 0, 39, 0
2, 79618, Note_on_c, 0, 99, 0
2, 79641, Note_on_c, 0, 27, 0
2, 79933, Note_on_c, 0, 87, 0
2, 79934, End_track
0, 0, End_of_file
