0, 0, Header, 1, 2, 384
1, 0, Start_track
1, 0, Tempo, 500000
1, 0, Time_signature, 4, 2, 24, 8
1, 1, End_track
2, 0, Start_track
2, 7, Control_c, 0, 64, 127
2, 5760, Control_c, 0, 64, 0
2, 6927, Control_c, 0, 64, 127
2, 7050, Control_c, 0, 64, 0
2, 8332, Note_on_c, 0, 64, 41
2, 8375, Note_on_c, 0, 71, 51
2, 8378, Control_c, 0, 64, 127
2, 8434, Note_on_c, 0, 93, 82
2, 8452, Note_on_c, 0, 76, 55
2, 8463, Note_on_c, 0, 83, 57
2, 8575, Note_on_c, 0, 92, 74
2, 8686, Note_on_c, 0, 93, 0
2, 8695, Note_on_c, 0, 93, 68
2, 8822, Note_on_c, 0, 88, 74
2, 8952, Note_on_c, 0, 86, 68
2, 9062, Note_on_c, 0, 88, 0
2, 9067, Note_on_c, 0, 88, 65
2, 9138, Control_c, 0, 64, 0
2, 9142, Note_on_c, 0, 93, 0
2, 9142, Note_on_c, 0, 83, 0
2, 9142, Note_on_c, 0, 86, 0
2, 9142, Note_on_c, 0, 88, 0
2, 9143, Note_on_c, 0, 64, 0
2, 9144, Note_on_c, 0, 76, 0
2, 9154, Note_on_c, 0, 71, 0
2, 9169, Note_on_c, 0, 92, 0
2, 9181, Note_on_c, 0, 92, 83
2, 9189, Note_on_c, 0, 74, 62
2, 9191, Note_on_c, 0, 64, 56
2, 9196, Note_on_c, 0, 71, 50
2, 9200, Note_on_c, 0, 83, 63
2, 9254, Control_c, 0, 64, 127
2, 9315, Note_on_c, 0, 90, 76
2, 9438, Note_on_c, 0, 92, 0
2, 9442, Note_on_c, 0, 92, 78
2, 9571, Note_on_c, 0, 88, 70
2, 9696, Note_on_c, 0, 86, 71
2, 9807, Note_on_c, 0, 88, 0
2, 9812, Note_on_c, 0, 88, 70
2, 9930, Note_on_c, 0, 83, 0
2, 9934, Note_on_c, 0, 83, 75
2, 10053, Note_on_c, 0, 81, 79
2, 10180, Note_on_c, 0, 80, 71
2, 10298, Note_on_c, 0, 81, 0
2, 10306, Note_on_c, 0, 81, 67
2, 10375, Note_on_c, 0, 64, 0
2, 10387, Note_on_c, 0, 64, 67
2, 10394, Control_c, 0, 64, 0
2, 10395, Note_on_c, 0, 92, 0
2, 10395, Note_on_c, 0, 90, 0
2, 10395, Note_on_c, 0, 88, 0
2, 10395, Note_on_c, 0, 74, 0
2, 10395, Note_on_c, 0, 86, 0
2, 10395, Note_on_c, 0, 83, 0
2, 10396, Note_on_c, 0, 81, 0
2, 10396, Note_on_c, 0, 80, 0
2, 10437, Note_on_c, 0, 71, 0
2, 10441, Note_on_c, 0, 93, 84
2, 10444, Note_on_c, 0, 71, 66
2, 10457, Note_on_c, 0, 76, 58
2, 10498, Control_c, 0, 64, 127
2, 10564, Note_on_c, 0, 92, 79
2, 10690, Note_on_c, 0, 93, 0
2, 10696, Note_on_c, 0, 93, 80
2, 10827, Note_on_c, 0, 88, 74
2, 10952, Note_on_c, 0, 86, 75
2, 11074, Note_on_c, 0, 88, 0
2, 11078, Note_on_c, 0, 88, 70
2, 11182, Note_on_c, 0, 92, 0
2, 11182, Note_on_c, 0, 93, 0
2, 11183, Note_on_c, 0, 86, 0
2, 11186, Control_c, 0, 64, 0
2, 11186, Note_on_c, 0, 88, 0
2, 11189, Note_on_c, 0, 64, 0
2, 11193, Note_on_c, 0, 92, 88
2, 11197, Note_on_c, 0, 71, 0
2, 11197, Note_on_c, 0, 76, 0
2, 11199, Note_on_c, 0, 64, 63
2, 11200, Note_on_c, 0, 74, 67
2, 11202, Note_on_c, 0, 76, 54
2, 11205, Note_on_c, 0, 71, 58
2, 11274, Control_c, 0, 64, 127
2, 11325, Note_on_c, 0, 90, 75
2, 11443, Note_on_c, 0, 92, 0
2, 11449, Note_on_c, 0, 92, 75
2, 11496, Note_on_c, 0, 76, 0
2, 11581, Note_on_c, 0, 88, 66
2, 11710, Note_on_c, 0, 86, 73
2, 11819, Note_on_c, 0, 88, 0
2, 11830, Note_on_c, 0, 88, 73
2, 11956, Note_on_c, 0, 83, 69
2, 12075, Note_on_c, 0, 81, 73
2, 12184, Note_on_c, 0, 80, 73
2, 12303, Note_on_c, 0, 81, 0
2, 12314, Note_on_c, 0, 81, 79
2, 12417, Note_on_c, 0, 86, 0
2, 12417, Note_on_c, 0, 83, 0
2, 12418, Note_on_c, 0, 88, 0
2, 12419, Note_on_c, 0, 71, 0
2, 12419, Note_on_c, 0, 92, 0
2, 12419, Note_on_c, 0, 74, 0
2, 12420, Note_on_c, 0, 80, 0
2, 12420, Note_on_c, 0, 64, 0
2, 12422, Control_c, 0, 64, 0
2, 12441, Note_on_c, 0, 90, 0
2, 12443, Note_on_c, 0, 52, 75
2, 12447, Note_on_c, 0, 93, 89
2, 12503, Control_c, 0, 64, 127
2, 12553, Note_on_c, 0, 59, 62
2, 12578, Note_on_c, 0, 92, 72
2, 12674, Note_on_c, 0, 64, 68
2, 12702, Note_on_c, 0, 93, 0
2, 12714, Note_on_c, 0, 93, 70
2, 12801, Note_on_c, 0, 69, 73
2, 12830, Note_on_c, 0, 88, 76
2, 12929, Note_on_c, 0, 71, 60
2, 12962, Note_on_c, 0, 86, 79
2, 13063, Note_on_c, 0, 69, 0
2, 13063, Note_on_c, 0, 88, 0
2, 13073, Note_on_c, 0, 88, 74
2, 13075, Note_on_c, 0, 69, 67
2, 13178, Note_on_c, 0, 64, 0
2, 13178, Note_on_c, 0, 81, 0
2, 13178, Note_on_c, 0, 92, 0
2, 13183, Note_on_c, 0, 86, 0
2, 13183, Control_c, 0, 64, 0
2, 13184, Note_on_c, 0, 52, 0
2, 13184, Note_on_c, 0, 93, 0
2, 13184, Note_on_c, 0, 92, 91
2, 13184, Note_on_c, 0, 59, 0
2, 13185, Note_on_c, 0, 88, 0
2, 13189, Note_on_c, 0, 64, 73
2, 13195, Note_on_c, 0, 83, 76
2, 13201, Note_on_c, 0, 71, 0
2, 13271, Control_c, 0, 64, 127
2, 13316, Note_on_c, 0, 71, 71
2, 13320, Note_on_c, 0, 90, 78
2, 13440, Note_on_c, 0, 92, 0
2, 13445, Note_on_c, 0, 92, 74
2, 13446, Note_on_c, 0, 76, 70
2, 13566, Note_on_c, 0, 81, 74
2, 13567, Note_on_c, 0, 88, 71
2, 13693, Note_on_c, 0, 83, 0
2, 13693, Note_on_c, 0, 88, 0
2, 13698, Note_on_c, 0, 88, 63
2, 13698, Note_on_c, 0, 86, 78
2, 13701, Note_on_c, 0, 83, 65
2, 13808, Note_on_c, 0, 81, 0
2, 13818, Note_on_c, 0, 81, 72
2, 13831, Note_on_c, 0, 88, 0
2, 13835, Note_on_c, 0, 88, 75
2, 13962, Note_on_c, 0, 76, 0
2, 13962, Note_on_c, 0, 83, 0
2, 13967, Note_on_c, 0, 76, 68
2, 13968, Note_on_c, 0, 83, 64
2, 14115, Note_on_c, 0, 71, 0
2, 14115, Note_on_c, 0, 81, 0
2, 14119, Note_on_c, 0, 81, 69
2, 14121, Note_on_c, 0, 71, 62
2, 14269, Note_on_c, 0, 69, 0
2, 14277, Note_on_c, 0, 76, 0
2, 14277, Note_on_c, 0, 83, 0
2, 14280, Note_on_c, 0, 69, 62
2, 14283, Note_on_c, 0, 76, 37
2, 14286, Note_on_c, 0, 83, 53
2, 14484, Note_on_c, 0, 64, 0
2, 14492, Note_on_c, 0, 88, 0
2, 14495, Note_on_c, 0, 64, 53
2, 14500, Note_on_c, 0, 88, 63
2, 14515, Note_on_c, 0, 86, 0
2, 14520, Note_on_c, 0, 86, 32
2, 14730, Note_on_c, 0, 64, 0
2, 14736, Note_on_c, 0, 52, 46
2, 14739, Note_on_c, 0, 64, 36
2, 15398, Note_on_c, 0, 83, 0
2, 15406, Note_on_c, 0, 83, 23
2, 16458, Note_on_c, 0, 92, 0
2, 16490, Note_on_c, 0, 69, 0
2, 16491, Note_on_c, 0, 81, 0
2, 16491, Note_on_c, 0, 83, 0
2, 16491, Note_on_c, 0, 64, 0
2, 16491, Note_on_c, 0, 71, 0
2, 16492, Note_on_c, 0, 86, 0
2, 16492, Note_on_c, 0, 52, 0
2, 16492, Note_on_c, 0, 88, 0
2, 16492, Note_on_c, 0, 76, 0
2, 16506, Control_c, 0, 64, 0
2, 16512, Note_on_c, 0, 90, 0
2, 16736, Note_on_c, 0, 40, 80
2, 16741, Note_on_c, 0, 28, 81
2, 16768, Note_on_c, 0, 41, 76
2, 16773, Note_on_c, 0, 28, 0
2, 16788, Control_c, 0, 64, 127
2, 16799, Note_on_c, 0, 43, 87
2, 16814, Note_on_c, 0, 45, 92
2, 16839, Note_on_c, 0, 47, 81
2, 16853, Note_on_c, 0, 48, 90
2, 16863, Note_on_c, 0, 52, 82
2, 16879, Note_on_c, 0, 53, 85
2, 16908, Note_on_c, 0, 55, 75
2, 16920, Note_on_c, 0, 57, 91
2, 16925, Note_on_c, 0, 59, 86
2, 16947, Note_on_c, 0, 60, 75
2, 16970, Note_on_c, 0, 62, 94
2, 16983, Note_on_c, 0, 64, 82
2, 17008, Note_on_c, 0, 65, 81
2, 17018, Note_on_c, 0, 41, 0
2, 17018, Note_on_c, 0, 43, 0
2, 17026, Note_on_c, 0, 45, 0
2, 17029, Note_on_c, 0, 67, 87
2, 17034, Note_on_c, 0, 48, 0
2, 17034, Note_on_c, 0, 52, 0
2, 17049, Note_on_c, 0, 40, 0
2, 17050, Note_on_c, 0, 69, 83
2, 17070, Note_on_c, 0, 71, 85
2, 17080, Note_on_c, 0, 47, 0
2, 17101, Note_on_c, 0, 72, 93
2, 17120, Note_on_c, 0, 74, 92
2, 17154, Note_on_c, 0, 76, 85
2, 17183, Note_on_c, 0, 77, 72
2, 17199, Note_on_c, 0, 69, 0
2, 17199, Note_on_c, 0, 74, 0
2, 17200, Note_on_c, 0, 65, 0
2, 17200, Note_on_c, 0, 72, 0
2, 17200, Note_on_c, 0, 71, 0
2, 17202, Note_on_c, 0, 76, 0
2, 17203, Note_on_c, 0, 55, 0
2, 17206, Control_c, 0, 64, 0
2, 17210, Note_on_c, 0, 62, 0
2, 17218, Note_on_c, 0, 53, 0
2, 17218, Note_on_c, 0, 57, 0
2, 17218, Note_on_c, 0, 59, 0
2, 17218, Note_on_c, 0, 60, 0
2, 17218, Note_on_c, 0, 64, 0
2, 17218, Note_on_c, 0, 67, 0
2, 17226, Note_on_c, 0, 77, 0
2, 17255, Note_on_c, 0, 29, 96
2, 17256, Note_on_c, 0, 82, 86
2, 17256, Note_on_c, 0, 41, 86
2, 17272, Control_c, 0, 64, 127
2, 17390, Note_on_c, 0, 88, 101
2, 17391, Note_on_c, 0, 84, 95
2, 17392, Note_on_c, 0, 81, 98
2, 17395, Note_on_c, 0, 76, 100
2, 17405, Note_on_c, 0, 57, 97
2, 17411, Note_on_c, 0, 48, 84
2, 17502, Note_on_c, 0, 84, 0
2, 17502, Note_on_c, 0, 88, 0
2, 17510, Note_on_c, 0, 76, 0
2, 17510, Note_on_c, 0, 81, 0
2, 17513, Note_on_c, 0, 88, 97
2, 17513, Note_on_c, 0, 84, 90
2, 17514, Note_on_c, 0, 81, 96
2, 17519, Note_on_c, 0, 76, 96
2, 17575, Note_on_c, 0, 57, 0
2, 17575, Note_on_c, 0, 81, 0
2, 17575, Note_on_c, 0, 48, 0
2, 17575, Note_on_c, 0, 76, 0
2, 17575, Note_on_c, 0, 84, 0
2, 17575, Note_on_c, 0, 41, 0
2, 17575, Note_on_c, 0, 88, 0
2, 17578, Control_c, 0, 64, 0
2, 17587, Note_on_c, 0, 29, 0
2, 17587, Note_on_c, 0, 82, 0
2, 17634, Note_on_c, 0, 88, 101
2, 17635, Note_on_c, 0, 81, 98
2, 17636, Note_on_c, 0, 76, 101
2, 17636, Note_on_c, 0, 84, 92
2, 17638, Note_on_c, 0, 43, 96
2, 17643, Note_on_c, 0, 31, 91
2, 17648, Control_c, 0, 64, 127
2, 17662, Note_on_c, 0, 76, 0
2, 17664, Note_on_c, 0, 81, 0
2, 17668, Note_on_c, 0, 88, 0
2, 17733, Note_on_c, 0, 84, 0
2, 17762, Note_on_c, 0, 86, 104
2, 17762, Note_on_c, 0, 74, 104
2, 17767, Note_on_c, 0, 83, 94
2, 17767, Note_on_c, 0, 79, 93
2, 17884, Note_on_c, 0, 55, 82
2, 17885, Note_on_c, 0, 59, 83
2, 17997, Note_on_c, 0, 50, 79
2, 18032, Note_on_c, 0, 74, 0
2, 18032, Note_on_c, 0, 79, 0
2, 18032, Note_on_c, 0, 83, 0
2, 18032, Note_on_c, 0, 86, 0
2, 18039, Note_on_c, 0, 86, 92
2, 18041, Note_on_c, 0, 74, 94
2, 18041, Note_on_c, 0, 79, 88
2, 18043, Note_on_c, 0, 83, 80
2, 18051, Note_on_c, 0, 76, 72
2, 18076, Control_c, 0, 64, 0
2, 18078, Note_on_c, 0, 59, 0
2, 18079, Note_on_c, 0, 55, 0
2, 18082, Note_on_c, 0, 50, 0
2, 18083, Note_on_c, 0, 83, 0
2, 18083, Note_on_c, 0, 74, 0
2, 18083, Note_on_c, 0, 79, 0
2, 18086, Note_on_c, 0, 31, 0
2, 18086, Note_on_c, 0, 86, 0
2, 18094, Note_on_c, 0, 43, 0
2, 18094, Note_on_c, 0, 76, 0
2, 18148, Note_on_c, 0, 45, 101
2, 18149, Note_on_c, 0, 86, 102
2, 18151, Note_on_c, 0, 33, 95
2, 18151, Note_on_c, 0, 74, 106
2, 18152, Note_on_c, 0, 83, 90
2, 18157, Note_on_c, 0, 40, 76
2, 18157, Note_on_c, 0, 79, 90
2, 18158, Note_on_c, 0, 76, 93
2, 18159, Note_on_c, 0, 38, 65
2, 18163, Control_c, 0, 64, 127
2, 18278, Note_on_c, 0, 38, 0
2, 18407, Note_on_c, 0, 57, 80
2, 18408, Note_on_c, 0, 85, 82
2, 18408, Note_on_c, 0, 76, 0
2, 18412, Note_on_c, 0, 73, 88
2, 18413, Note_on_c, 0, 81, 84
2, 18413, Note_on_c, 0, 76, 81
2, 18516, Note_on_c, 0, 73, 0
2, 18516, Note_on_c, 0, 76, 0
2, 18516, Note_on_c, 0, 81, 0
2, 18516, Note_on_c, 0, 85, 0
2, 18522, Note_on_c, 0, 85, 93
2, 18526, Note_on_c, 0, 64, 99
2, 18526, Note_on_c, 0, 81, 87
2, 18527, Note_on_c, 0, 73, 96
2, 18527, Note_on_c, 0, 61, 96
2, 18527, Note_on_c, 0, 76, 92
2, 18785, Note_on_c, 0, 57, 0
2, 18785, Note_on_c, 0, 61, 0
2, 18785, Note_on_c, 0, 73, 0
2, 18792, Note_on_c, 0, 57, 81
2, 18793, Note_on_c, 0, 73, 95
2, 18794, Note_on_c, 0, 61, 83
2, 18796, Note_on_c, 0, 69, 81
2, 18823, Note_on_c, 0, 76, 0
2, 18834, Note_on_c, 0, 76, 82
2, 18862, Note_on_c, 0, 64, 0
2, 18872, Note_on_c, 0, 64, 68
2, 18908, Note_on_c, 0, 69, 0
2, 18908, Note_on_c, 0, 81, 0
2, 18915, Note_on_c, 0, 69, 86
2, 18918, Note_on_c, 0, 81, 88
2, 18984, Note_on_c, 0, 73, 0
2, 18984, Note_on_c, 0, 85, 0
2, 18990, Note_on_c, 0, 85, 87
2, 18996, Note_on_c, 0, 73, 80
2, 19019, Note_on_c, 0, 88, 75
2, 19046, Note_on_c, 0, 76, 0
2, 19054, Note_on_c, 0, 76, 59
2, 19100, Note_on_c, 0, 69, 0
2, 19100, Note_on_c, 0, 81, 0
2, 19104, Note_on_c, 0, 93, 89
2, 19107, Note_on_c, 0, 69, 66
2, 19111, Note_on_c, 0, 81, 82
2, 19173, Note_on_c, 0, 97, 91
2, 19215, Note_on_c, 0, 85, 0
2, 19220, Note_on_c, 0, 85, 69
2, 19225, Note_on_c, 0, 100, 85
2, 19261, Note_on_c, 0, 88, 0
2, 19269, Note_on_c, 0, 69, 0
2, 19272, Note_on_c, 0, 88, 88
2, 19274, Note_on_c, 0, 69, 73
2, 19345, Note_on_c, 0, 100, 0
2, 19351, Note_on_c, 0, 100, 74
2, 19384, Note_on_c, 0, 97, 0
2, 19391, Note_on_c, 0, 97, 83
2, 19430, Note_on_c, 0, 81, 0
2, 19430, Note_on_c, 0, 93, 0
2, 19434, Note_on_c, 0, 93, 76
2, 19438, Note_on_c, 0, 81, 71
2, 19453, Note_on_c, 0, 76, 0
2, 19458, Note_on_c, 0, 76, 52
2, 19514, Note_on_c, 0, 88, 0
2, 19521, Note_on_c, 0, 88, 76
2, 19530, Note_on_c, 0, 61, 0
2, 19538, Note_on_c, 0, 61, 45
2, 19584, Note_on_c, 0, 73, 0
2, 19584, Note_on_c, 0, 85, 0
2, 19591, Note_on_c, 0, 69, 0
2, 19594, Note_on_c, 0, 85, 80
2, 19595, Note_on_c, 0, 73, 65
2, 19601, Note_on_c, 0, 69, 47
2, 19630, Note_on_c, 0, 93, 0
2, 19636, Note_on_c, 0, 93, 94
2, 19676, Note_on_c, 0, 88, 0
2, 19686, Note_on_c, 0, 88, 73
2, 19729, Note_on_c, 0, 85, 0
2, 19738, Note_on_c, 0, 85, 81
2, 19776, Note_on_c, 0, 81, 0
2, 19781, Note_on_c, 0, 81, 77
2, 19783, Note_on_c, 0, 69, 0
2, 19788, Note_on_c, 0, 69, 53
2, 19860, Note_on_c, 0, 69, 0
2, 19860, Note_on_c, 0, 76, 0
2, 19864, Note_on_c, 0, 69, 52
2, 19866, Note_on_c, 0, 76, 75
2, 19914, Note_on_c, 0, 61, 0
2, 19914, Note_on_c, 0, 73, 0
2, 19923, Note_on_c, 0, 73, 73
2, 19924, Note_on_c, 0, 61, 54
2, 19944, Note_on_c, 0, 61, 0
2, 19955, Note_on_c, 0, 61, 52
2, 19975, Note_on_c, 0, 61, 0
2, 19975, Note_on_c, 0, 69, 0
2, 19979, Note_on_c, 0, 61, 56
2, 19980, Note_on_c, 0, 69, 67
2, 20014, Note_on_c, 0, 61, 0
2, 20024, Note_on_c, 0, 61, 53
2, 20052, Note_on_c, 0, 61, 0
2, 20052, Note_on_c, 0, 64, 0
2, 20057, Note_on_c, 0, 61, 60
2, 20059, Note_on_c, 0, 64, 73
2, 20060, Note_on_c, 0, 40, 0
2, 20129, Note_on_c, 0, 61, 0
2, 20133, Note_on_c, 0, 61, 74
2, 20175, Note_on_c, 0, 57, 0
2, 20180, Note_on_c, 0, 57, 75
2, 20241, Note_on_c, 0, 93, 0
2, 20241, Note_on_c, 0, 83, 0
2, 20241, Note_on_c, 0, 97, 0
2, 20241, Note_on_c, 0, 45, 0
2, 20241, Note_on_c, 0, 33, 0
2, 20241, Note_on_c, 0, 57, 0
2, 20241, Note_on_c, 0, 69, 0
2, 20241, Note_on_c, 0, 100, 0
2, 20241, Note_on_c, 0, 64, 0
2, 20241, Note_on_c, 0, 76, 0
2, 20241, Note_on_c, 0, 88, 0
2, 20241, Note_on_c, 0, 81, 0
2, 20241, Note_on_c, 0, 74, 0
2, 20241, Note_on_c, 0, 85, 0
2, 20242, Note_on_c, 0, 61, 0
2, 20242, Note_on_c, 0, 86, 0
2, 20243, Note_on_c, 0, 79, 0
2, 20248, Control_c, 0, 64, 0
2, 20259, Note_on_c, 0, 73, 0
2, 20290, Note_on_c, 0, 43, 94
2, 20290, Note_on_c, 0, 31, 86
2, 20292, Note_on_c, 0, 59, 82
2, 20328, Control_c, 0, 64, 127
2, 20420, Note_on_c, 0, 72, 93
2, 20425, Note_on_c, 0, 67, 74
2, 20426, Note_on_c, 0, 62, 88
2, 20433, Note_on_c, 0, 55, 72
2, 20438, Note_on_c, 0, 50, 69
2, 20544, Note_on_c, 0, 43, 0
2, 20544, Note_on_c, 0, 62, 0
2, 20544, Note_on_c, 0, 67, 0
2, 20546, Note_on_c, 0, 71, 93
2, 20548, Note_on_c, 0, 67, 74
2, 20548, Note_on_c, 0, 43, 74
2, 20551, Note_on_c, 0, 59, 0
2, 20554, Note_on_c, 0, 62, 89
2, 20556, Note_on_c, 0, 59, 69
2, 20659, Note_on_c, 0, 59, 0
2, 20659, Note_on_c, 0, 62, 0
2, 20659, Note_on_c, 0, 67, 0
2, 20667, Note_on_c, 0, 62, 79
2, 20668, Note_on_c, 0, 67, 90
2, 20670, Note_on_c, 0, 59, 78
2, 20789, Note_on_c, 0, 43, 0
2, 20793, Note_on_c, 0, 69, 93
2, 20797, Note_on_c, 0, 43, 75
2, 20904, Note_on_c, 0, 62, 0
2, 20912, Note_on_c, 0, 71, 0
2, 20916, Note_on_c, 0, 62, 87
2, 20920, Note_on_c, 0, 71, 61
2, 20921, Note_on_c, 0, 65, 90
2, 20963, Note_on_c, 0, 62, 0
2, 20963, Note_on_c, 0, 55, 0
2, 20963, Note_on_c, 0, 67, 0
2, 20964, Note_on_c, 0, 43, 0
2, 20964, Note_on_c, 0, 31, 0
2, 20964, Note_on_c, 0, 71, 0
2, 20965, Note_on_c, 0, 59, 0
2, 20965, Control_c, 0, 64, 0
2, 20965, Note_on_c, 0, 50, 0
2, 20965, Note_on_c, 0, 65, 0
2, 20965, Note_on_c, 0, 72, 0
2, 20966, Note_on_c, 0, 69, 0
2, 21050, Control_c, 0, 64, 127
2, 21053, Note_on_c, 0, 43, 70
2, 21192, Control_c, 0, 64, 0
2, 21198, Note_on_c, 0, 72, 92
2, 21198, Note_on_c, 0, 55, 70
2, 21201, Note_on_c, 0, 50, 69
2, 21204, Control_c, 0, 64, 127
2, 21207, Note_on_c, 0, 62, 78
2, 21237, Note_on_c, 0, 43, 0
2, 21273, Note_on_c, 0, 55, 0
2, 21312, Note_on_c, 0, 50, 0
2, 21312, Note_on_c, 0, 62, 0
2, 21315, Note_on_c, 0, 71, 85
2, 21321, Note_on_c, 0, 43, 69
2, 21322, Note_on_c, 0, 62, 72
2, 21323, Note_on_c, 0, 50, 64
2, 21329, Note_on_c, 0, 55, 56
2, 21434, Note_on_c, 0, 55, 0
2, 21434, Note_on_c, 0, 62, 0
2, 21442, Note_on_c, 0, 50, 0
2, 21444, Note_on_c, 0, 62, 85
2, 21446, Note_on_c, 0, 55, 78
2, 21446, Note_on_c, 0, 67, 81
2, 21452, Note_on_c, 0, 50, 72
2, 21546, Note_on_c, 0, 72, 0
2, 21547, Note_on_c, 0, 62, 0
2, 21548, Note_on_c, 0, 50, 0
2, 21556, Control_c, 0, 64, 0
2, 21565, Note_on_c, 0, 43, 0
2, 21566, Note_on_c, 0, 69, 88
2, 21569, Note_on_c, 0, 43, 67
2, 21588, Control_c, 0, 64, 127
2, 21688, Note_on_c, 0, 55, 0
2, 21696, Note_on_c, 0, 43, 0
2, 21699, Note_on_c, 0, 65, 81
2, 21699, Note_on_c, 0, 55, 82
2, 21700, Note_on_c, 0, 62, 79
2, 21702, Note_on_c, 0, 43, 74
2, 21737, Note_on_c, 0, 50, 48
2, 21811, Note_on_c, 0, 43, 0
2, 21818, Note_on_c, 0, 55, 0
2, 21821, Note_on_c, 0, 43, 80
2, 21822, Note_on_c, 0, 55, 84
2, 21855, Note_on_c, 0, 57, 65
2, 21889, Note_on_c, 0, 59, 86
2, 21910, Note_on_c, 0, 60, 89
2, 21926, Note_on_c, 0, 62, 0
2, 21936, Note_on_c, 0, 62, 86
2, 21952, Note_on_c, 0, 64, 91
2, 21972, Note_on_c, 0, 65, 0
2, 21983, Note_on_c, 0, 65, 82
2, 22003, Note_on_c, 0, 67, 0
2, 22010, Note_on_c, 0, 55, 0
2, 22014, Note_on_c, 0, 67, 91
2, 22016, Note_on_c, 0, 55, 78
2, 22018, Note_on_c, 0, 69, 0
2, 22029, Note_on_c, 0, 69, 86
2, 22056, Note_on_c, 0, 71, 0
2, 22064, Note_on_c, 0, 71, 81
2, 22070, Note_on_c, 0, 72, 77
2, 22104, Note_on_c, 0, 74, 83
2, 22110, Note_on_c, 0, 55, 0
2, 22120, Note_on_c, 0, 55, 79
2, 22126, Note_on_c, 0, 50, 0
2, 22130, Note_on_c, 0, 50, 74
2, 22137, Note_on_c, 0, 76, 84
2, 22160, Note_on_c, 0, 77, 87
2, 22183, Note_on_c, 0, 79, 85
2, 22212, Note_on_c, 0, 81, 88
2, 22267, Note_on_c, 0, 74, 0
2, 22267, Note_on_c, 0, 60, 0
2, 22267, Note_on_c, 0, 72, 0
2, 22267, Note_on_c, 0, 50, 0
2, 22267, Note_on_c, 0, 55, 0
2, 22267, Note_on_c, 0, 62, 0
2, 22268, Note_on_c, 0, 57, 0
2, 22268, Note_on_c, 0, 64, 0
2, 22268, Note_on_c, 0, 65, 0
2, 22268, Note_on_c, 0, 59, 0
2, 22268, Note_on_c, 0, 71, 0
2, 22268, Note_on_c, 0, 76, 0
2, 22268, Note_on_c, 0, 77, 0
2, 22269, Note_on_c, 0, 79, 0
2, 22269, Note_on_c, 0, 81, 0
2, 22270, Control_c, 0, 64, 0
2, 22287, Note_on_c, 0, 67, 0
2, 22287, Note_on_c, 0, 69, 0
2, 22295, Note_on_c, 0, 43, 0
2, 22306, Note_on_c, 0, 31, 90
2, 22325, Control_c, 0, 64, 127
2, 22446, Note_on_c, 0, 72, 98
2, 22447, Note_on_c, 0, 55, 87
2, 22451, Note_on_c, 0, 50, 80
2, 22561, Note_on_c, 0, 62, 89
2, 22568, Note_on_c, 0, 71, 93
2, 22571, Note_on_c, 0, 31, 0
2, 22574, Note_on_c, 0, 43, 80
2, 22582, Note_on_c, 0, 31, 81
2, 22679, Note_on_c, 0, 62, 0
2, 22686, Note_on_c, 0, 43, 0
2, 22686, Note_on_c, 0, 55, 0
2, 22686, Note_on_c, 0, 71, 0
2, 22687, Note_on_c, 0, 67, 87
2, 22689, Note_on_c, 0, 62, 93
2, 22692, Note_on_c, 0, 55, 89
2, 22696, Note_on_c, 0, 71, 74
2, 22697, Note_on_c, 0, 43, 78
2, 22809, Note_on_c, 0, 43, 0
2, 22813, Note_on_c, 0, 69, 94
2, 22817, Note_on_c, 0, 43, 75
2, 22932, Note_on_c, 0, 55, 0
2, 22932, Note_on_c, 0, 62, 0
2, 22940, Note_on_c, 0, 43, 0
2, 22940, Note_on_c, 0, 50, 0
2, 22943, Note_on_c, 0, 65, 89
2, 22943, Note_on_c, 0, 55, 83
2, 22943, Note_on_c, 0, 62, 82
2, 22944, Note_on_c, 0, 43, 76
2, 22945, Note_on_c, 0, 50, 74
2, 22998, Note_on_c, 0, 67, 0
2, 22998, Note_on_c, 0, 62, 0
2, 22999, Note_on_c, 0, 65, 0
2, 22999, Note_on_c, 0, 55, 0
2, 23000, Note_on_c, 0, 43, 0
2, 23000, Note_on_c, 0, 50, 0
2, 23001, Note_on_c, 0, 71, 0
2, 23001, Note_on_c, 0, 72, 0
2, 23002, Note_on_c, 0, 69, 0
2, 23005, Control_c, 0, 64, 0
2, 23009, Note_on_c, 0, 31, 0
2, 23083, Note_on_c, 0, 43, 69
2, 23201, Control_c, 0, 64, 127
2, 23203, Note_on_c, 0, 74, 94
2, 23210, Note_on_c, 0, 55, 75
2, 23220, Note_on_c, 0, 50, 67
2, 23243, Note_on_c, 0, 76, 78
2, 23324, Note_on_c, 0, 43, 0
2, 23324, Note_on_c, 0, 77, 98
2, 23331, Note_on_c, 0, 50, 0
2, 23331, Note_on_c, 0, 55, 0
2, 23331, Note_on_c, 0, 74, 0
2, 23335, Note_on_c, 0, 43, 69
2, 23336, Note_on_c, 0, 55, 61
2, 23341, Note_on_c, 0, 50, 69
2, 23341, Note_on_c, 0, 74, 72
2, 23439, Note_on_c, 0, 74, 0
2, 23445, Note_on_c, 0, 79, 93
2, 23445, Note_on_c, 0, 74, 83
2, 23447, Note_on_c, 0, 50, 0
2, 23447, Note_on_c, 0, 55, 0
2, 23454, Note_on_c, 0, 76, 0
2, 23457, Note_on_c, 0, 55, 71
2, 23458, Note_on_c, 0, 50, 71
2, 23465, Note_on_c, 0, 76, 69
2, 23568, Note_on_c, 0, 81, 93
2, 23569, Note_on_c, 0, 74, 0
2, 23577, Note_on_c, 0, 43, 0
2, 23578, Note_on_c, 0, 74, 76
2, 23588, Note_on_c, 0, 43, 68
2, 23685, Note_on_c, 0, 77, 0
2, 23692, Note_on_c, 0, 55, 0
2, 23692, Note_on_c, 0, 74, 0
2, 23693, Note_on_c, 0, 77, 92
2, 23700, Note_on_c, 0, 50, 0
2, 23701, Note_on_c, 0, 74, 76
2, 23702, Note_on_c, 0, 55, 71
2, 23706, Note_on_c, 0, 50, 69
2, 23815, Note_on_c, 0, 43, 0
2, 23815, Note_on_c, 0, 74, 0
2, 23821, Note_on_c, 0, 74, 99
2, 23823, Note_on_c, 0, 55, 0
2, 23825, Note_on_c, 0, 43, 76
2, 23827, Note_on_c, 0, 55, 79
2, 23827, Note_on_c, 0, 67, 89
2, 23938, Note_on_c, 0, 76, 0
2, 23943, Note_on_c, 0, 76, 95
2, 23953, Note_on_c, 0, 43, 0
2, 23953, Note_on_c, 0, 50, 0
2, 23953, Note_on_c, 0, 55, 0
2, 23961, Note_on_c, 0, 55, 84
2, 23965, Note_on_c, 0, 50, 71
2, 23965, Note_on_c, 0, 43, 74
2, 23976, Note_on_c, 0, 74, 0
2, 23984, Note_on_c, 0, 74, 60
2, 24069, Note_on_c, 0, 67, 0
2, 24073, Note_on_c, 0, 72, 97
2, 24076, Note_on_c, 0, 43, 0
2, 24076, Note_on_c, 0, 50, 0
2, 24076, Note_on_c, 0, 55, 0
2, 24078, Note_on_c, 0, 67, 86
2, 24081, Note_on_c, 0, 55, 86
2, 24081, Note_on_c, 0, 50, 75
2, 24082, Note_on_c, 0, 43, 78
2, 24184, Note_on_c, 0, 43, 0
2, 24184, Note_on_c, 0, 50, 0
2, 24184, Note_on_c, 0, 55, 0
2, 24184, Note_on_c, 0, 67, 0
2, 24184, Note_on_c, 0, 74, 0
2, 24189, Note_on_c, 0, 50, 79
2, 24193, Note_on_c, 0, 55, 88
2, 24193, Note_on_c, 0, 43, 77
2, 24193, Note_on_c, 0, 74, 101
2, 24194, Note_on_c, 0, 67, 93
2, 24195, Note_on_c, 0, 71, 72
2, 24198, Note_on_c, 0, 77, 0
2, 24201, Note_on_c, 0, 79, 0
2, 24201, Note_on_c, 0, 81, 0
2, 24202, Note_on_c, 0, 72, 0
2, 24207, Note_on_c, 0, 71, 0
2, 24210, Control_c, 0, 64, 0
2, 24219, Note_on_c, 0, 67, 0
2, 24222, Note_on_c, 0, 76, 0
2, 24230, Note_on_c, 0, 55, 0
2, 24231, Note_on_c, 0, 74, 0
2, 24245, Note_on_c, 0, 43, 0
2, 24253, Note_on_c, 0, 50, 0
2, 24299, Control_c, 0, 64, 127
2, 24317, Note_on_c, 0, 43, 91
2, 24318, Note_on_c, 0, 31, 87
2, 24321, Note_on_c, 0, 74, 85
2, 24445, Note_on_c, 0, 74, 0
2, 24449, Note_on_c, 0, 84, 106
2, 24451, Note_on_c, 0, 45, 81
2, 24453, Note_on_c, 0, 43, 0
2, 24456, Note_on_c, 0, 50, 79
2, 24456, Note_on_c, 0, 55, 85
2, 24456, Note_on_c, 0, 74, 98
2, 24457, Note_on_c, 0, 43, 78
2, 24460, Note_on_c, 0, 45, 0
2, 24560, Note_on_c, 0, 43, 0
2, 24568, Note_on_c, 0, 74, 0
2, 24572, Note_on_c, 0, 43, 79
2, 24572, Note_on_c, 0, 83, 102
2, 24576, Note_on_c, 0, 50, 0
2, 24579, Note_on_c, 0, 74, 97
2, 24581, Note_on_c, 0, 50, 69
2, 24698, Note_on_c, 0, 43, 0
2, 24698, Note_on_c, 0, 50, 0
2, 24698, Note_on_c, 0, 55, 0
2, 24698, Note_on_c, 0, 74, 0
2, 24701, Note_on_c, 0, 79, 92
2, 24702, Note_on_c, 0, 74, 90
2, 24704, Note_on_c, 0, 50, 84
2, 24704, Note_on_c, 0, 55, 84
2, 24705, Note_on_c, 0, 43, 80
2, 24821, Note_on_c, 0, 43, 0
2, 24821, Note_on_c, 0, 50, 0
2, 24826, Note_on_c, 0, 81, 101
2, 24827, Note_on_c, 0, 43, 79
2, 24829, Note_on_c, 0, 74, 0
2, 24830, Note_on_c, 0, 50, 83
2, 24836, Note_on_c, 0, 74, 84
2, 24837, Note_on_c, 0, 78, 82
2, 24952, Note_on_c, 0, 50, 0
2, 24952, Note_on_c, 0, 55, 0
2, 24952, Note_on_c, 0, 74, 0
2, 24955, Note_on_c, 0, 77, 94
2, 24956, Note_on_c, 0, 55, 86
2, 24957, Control_c, 0, 64, 0
2, 24959, Note_on_c, 0, 50, 84
2, 24960, Note_on_c, 0, 74, 84
2, 24962, Note_on_c, 0, 31, 0
2, 24962, Note_on_c, 0, 43, 0
2, 24963, Note_on_c, 0, 79, 0
2, 24963, Note_on_c, 0, 84, 0
2, 24963, Note_on_c, 0, 81, 0
2, 24967, Note_on_c, 0, 78, 0
2, 24990, Note_on_c, 0, 83, 0
2, 25044, Control_c, 0, 64, 127
2, 25082, Note_on_c, 0, 50, 0
2, 25090, Note_on_c, 0, 55, 0
2, 25092, Control_c, 0, 64, 0
2, 25093, Note_on_c, 0, 43, 76
2, 25101, Note_on_c, 0, 55, 63
2, 25105, Note_on_c, 0, 77, 0
2, 25121, Note_on_c, 0, 74, 0
2, 25152, Note_on_c, 0, 55, 0
2, 25190, Note_on_c, 0, 43, 0
2, 25221, Control_c, 0, 64, 127
2, 25224, Note_on_c, 0, 84, 102
2, 25227, Note_on_c, 0, 43, 77
2, 25232, Note_on_c, 0, 55, 81
2, 25232, Note_on_c, 0, 74, 90
2, 25232, Note_on_c, 0, 50, 71
2, 25344, Note_on_c, 0, 43, 0
2, 25349, Note_on_c, 0, 83, 95
2, 25351, Note_on_c, 0, 74, 0
2, 25353, Note_on_c, 0, 43, 76
2, 25355, Note_on_c, 0, 74, 81
2, 25374, Note_on_c, 0, 55, 0
2, 25466, Note_on_c, 0, 74, 0
2, 25474, Note_on_c, 0, 50, 0
2, 25477, Note_on_c, 0, 55, 78
2, 25477, Note_on_c, 0, 79, 88
2, 25477, Note_on_c, 0, 74, 79
2, 25478, Note_on_c, 0, 50, 74
2, 25589, Note_on_c, 0, 43, 0
2, 25594, Note_on_c, 0, 81, 97
2, 25599, Note_on_c, 0, 43, 76
2, 25605, Note_on_c, 0, 74, 0
2, 25616, Note_on_c, 0, 74, 66
2, 25712, Note_on_c, 0, 43, 0
2, 25712, Note_on_c, 0, 50, 0
2, 25712, Note_on_c, 0, 55, 0
2, 25712, Note_on_c, 0, 74, 0
2, 25716, Note_on_c, 0, 74, 92
2, 25719, Note_on_c, 0, 43, 76
2, 25720, Note_on_c, 0, 50, 77
2, 25722, Note_on_c, 0, 77, 88
2, 25722, Note_on_c, 0, 55, 82
2, 25835, Note_on_c, 0, 43, 0
2, 25845, Note_on_c, 0, 43, 84
2, 25858, Note_on_c, 0, 55, 0
2, 25862, Note_on_c, 0, 57, 83
2, 25862, Note_on_c, 0, 55, 71
2, 25898, Note_on_c, 0, 59, 73
2, 25928, Note_on_c, 0, 60, 82
2, 25938, Note_on_c, 0, 62, 86
2, 25963, Note_on_c, 0, 64, 87
2, 26011, Note_on_c, 0, 67, 93
2, 26024, Note_on_c, 0, 65, 71
2, 26035, Note_on_c, 0, 43, 0
2, 26039, Note_on_c, 0, 69, 77
2, 26041, Note_on_c, 0, 43, 73
2, 26069, Note_on_c, 0, 71, 78
2, 26101, Note_on_c, 0, 72, 73
2, 26119, Note_on_c, 0, 74, 0
2, 26124, Note_on_c, 0, 74, 68
2, 26127, Note_on_c, 0, 48, 62
2, 26132, Note_on_c, 0, 76, 70
2, 26135, Note_on_c, 0, 48, 0
2, 26173, Note_on_c, 0, 50, 0
2, 26173, Note_on_c, 0, 55, 0
2, 26173, Note_on_c, 0, 77, 0
2, 26180, Note_on_c, 0, 55, 83
2, 26181, Note_on_c, 0, 79, 0
2, 26184, Note_on_c, 0, 77, 86
2, 26184, Note_on_c, 0, 50, 73
2, 26191, Note_on_c, 0, 79, 87
2, 26211, Note_on_c, 0, 81, 0
2, 26216, Note_on_c, 0, 81, 77
2, 26284, Note_on_c, 0, 64, 0
2, 26284, Note_on_c, 0, 62, 0
2, 26284, Note_on_c, 0, 65, 0
2, 26284, Note_on_c, 0, 71, 0
2, 26285, Note_on_c, 0, 69, 0
2, 26285, Note_on_c, 0, 84, 0
2, 26285, Note_on_c, 0, 74, 0
2, 26285, Note_on_c, 0, 67, 0
2, 26285, Note_on_c, 0, 57, 0
2, 26285, Note_on_c, 0, 59, 0
2, 26285, Note_on_c, 0, 60, 0
2, 26285, Note_on_c, 0, 50, 0
2, 26285, Note_on_c, 0, 76, 0
2, 26285, Note_on_c, 0, 43, 0
2, 26285, Note_on_c, 0, 72, 0
2, 26285, Note_on_c, 0, 55, 0
2, 26286, Note_on_c, 0, 77, 0
2, 26286, Note_on_c, 0, 81, 0
2, 26286, Note_on_c, 0, 79, 0
2, 26291, Control_c, 0, 64, 0
2, 26296, Note_on_c, 0, 83, 0
2, 26341, Note_on_c, 0, 81, 94
2, 26345, Note_on_c, 0, 84, 100
2, 26345, Note_on_c, 0, 76, 102
2, 26345, Note_on_c, 0, 88, 101
2, 26347, Note_on_c, 0, 43, 88
2, 26348, Note_on_c, 0, 31, 95
2, 26365, Control_c, 0, 64, 127
2, 26472, Note_on_c, 0, 43, 0
2, 26484, Note_on_c, 0, 43, 78
2, 26490, Note_on_c, 0, 55, 78
2, 26507, Note_on_c, 0, 81, 0
2, 26508, Note_on_c, 0, 84, 0
2, 26513, Note_on_c, 0, 88, 0
2, 26514, Control_c, 0, 64, 0
2, 26534, Note_on_c, 0, 31, 0
2, 26534, Note_on_c, 0, 76, 0
2, 26542, Note_on_c, 0, 43, 0
2, 26542, Note_on_c, 0, 55, 0
2, 26597, Note_on_c, 0, 55, 72
2, 26600, Note_on_c, 0, 50, 60
2, 26641, Note_on_c, 0, 55, 0
2, 26649, Note_on_c, 0, 50, 0
2, 26738, Note_on_c, 0, 81, 98
2, 26743, Note_on_c, 0, 88, 100
2, 26745, Note_on_c, 0, 84, 92
2, 26745, Note_on_c, 0, 43, 88
2, 26745, Note_on_c, 0, 76, 95
2, 26748, Note_on_c, 0, 31, 85
2, 26749, Control_c, 0, 64, 127
2, 26856, Note_on_c, 0, 43, 0
2, 26867, Note_on_c, 0, 43, 80
2, 26868, Note_on_c, 0, 55, 83
2, 26871, Note_on_c, 0, 50, 78
2, 26875, Note_on_c, 0, 31, 0
2, 26883, Note_on_c, 0, 84, 0
2, 26887, Note_on_c, 0, 81, 0
2, 26890, Control_c, 0, 64, 0
2, 26891, Note_on_c, 0, 88, 0
2, 26902, Note_on_c, 0, 50, 0
2, 26918, Note_on_c, 0, 55, 0
2, 26926, Note_on_c, 0, 43, 0
2, 26926, Note_on_c, 0, 76, 0
2, 26978, Note_on_c, 0, 55, 76
2, 26981, Note_on_c, 0, 50, 80
2, 27010, Note_on_c, 0, 50, 0
2, 27013, Note_on_c, 0, 55, 0
2, 27121, Note_on_c, 0, 81, 98
2, 27128, Note_on_c, 0, 88, 101
2, 27128, Note_on_c, 0, 43, 92
2, 27129, Note_on_c, 0, 76, 97
2, 27129, Note_on_c, 0, 84, 91
2, 27129, Note_on_c, 0, 31, 86
2, 27133, Control_c, 0, 64, 127
2, 27233, Note_on_c, 0, 43, 0
2, 27244, Note_on_c, 0, 43, 86
2, 27244, Note_on_c, 0, 55, 88
2, 27245, Note_on_c, 0, 50, 86
2, 27276, Note_on_c, 0, 84, 0
2, 27278, Note_on_c, 0, 76, 0
2, 27280, Note_on_c, 0, 88, 0
2, 27281, Control_c, 0, 64, 0
2, 27281, Note_on_c, 0, 43, 0
2, 27282, Note_on_c, 0, 55, 0
2, 27282, Note_on_c, 0, 31, 0
2, 27282, Note_on_c, 0, 81, 0
2, 27284, Note_on_c, 0, 50, 0
2, 27382, Note_on_c, 0, 74, 107
2, 27382, Note_on_c, 0, 86, 107
2, 27385, Note_on_c, 0, 79, 101
2, 27386, Control_c, 0, 64, 127
2, 27388, Note_on_c, 0, 83, 96
2, 27390, Note_on_c, 0, 43, 92
2, 27390, Note_on_c, 0, 31, 90
2, 27398, Note_on_c, 0, 38, 80
2, 27402, Note_on_c, 0, 38, 0
2, 27509, Note_on_c, 0, 31, 0
2, 27509, Note_on_c, 0, 43, 0
2, 27509, Note_on_c, 0, 74, 0
2, 27509, Note_on_c, 0, 79, 0
2, 27509, Note_on_c, 0, 83, 0
2, 27509, Note_on_c, 0, 86, 0
2, 27514, Note_on_c, 0, 86, 101
2, 27516, Note_on_c, 0, 74, 99
2, 27520, Note_on_c, 0, 79, 95
2, 27520, Note_on_c, 0, 43, 84
2, 27520, Note_on_c, 0, 83, 89
2, 27520, Note_on_c, 0, 31, 81
2, 27553, Control_c, 0, 64, 0
2, 27558, Note_on_c, 0, 31, 0
2, 27559, Note_on_c, 0, 79, 0
2, 27559, Note_on_c, 0, 83, 0
2, 27559, Note_on_c, 0, 43, 0
2, 27559, Note_on_c, 0, 86, 0
2, 27571, Note_on_c, 0, 74, 0
2, 27903, Note_on_c, 0, 104, 99
2, 27904, Note_on_c, 0, 103, 105
2, 27909, Note_on_c, 0, 104, 0
2, 27923, Note_on_c, 0, 101, 101
2, 27959, Note_on_c, 0, 100, 84
2, 27972, Note_on_c, 0, 98, 97
2, 27995, Note_on_c, 0, 96, 84
2, 27996, Note_on_c, 0, 95, 90
2, 28005, Note_on_c, 0, 93, 88
2, 28032, Control_c, 0, 64, 127
2, 28034, Note_on_c, 0, 91, 92
2, 28043, Note_on_c, 0, 89, 78
2, 28060, Note_on_c, 0, 88, 80
2, 28073, Note_on_c, 0, 86, 76
2, 28082, Note_on_c, 0, 84, 80
2, 28107, Note_on_c, 0, 83, 70
2, 28108, Note_on_c, 0, 81, 82
2, 28121, Note_on_c, 0, 79, 70
2, 28134, Note_on_c, 0, 77, 72
2, 28149, Note_on_c, 0, 76, 67
2, 28151, Note_on_c, 0, 74, 71
2, 28170, Note_on_c, 0, 72, 72
2, 28177, Control_c, 0, 64, 0
2, 28180, Note_on_c, 0, 71, 57
2, 28191, Note_on_c, 0, 76, 0
2, 28195, Note_on_c, 0, 74, 0
2, 28196, Note_on_c, 0, 69, 52
2, 28197, Note_on_c, 0, 77, 0
2, 28197, Note_on_c, 0, 88, 0
2, 28198, Note_on_c, 0, 98, 0
2, 28198, Note_on_c, 0, 89, 0
2, 28202, Note_on_c, 0, 84, 0
2, 28202, Note_on_c, 0, 79, 0
2, 28203, Note_on_c, 0, 95, 0
2, 28204, Note_on_c, 0, 93, 0
2, 28204, Note_on_c, 0, 81, 0
2, 28204, Note_on_c, 0, 83, 0
2, 28204, Note_on_c, 0, 86, 0
2, 28213, Note_on_c, 0, 71, 0
2, 28231, Note_on_c, 0, 72, 0
2, 28239, Note_on_c, 0, 69, 0
2, 28254, Note_on_c, 0, 91, 0
2, 28346, Note_on_c, 0, 100, 0
2, 28423, Note_on_c, 0, 96, 0
2, 28431, Note_on_c, 0, 103, 0
2, 28469, Note_on_c, 0, 101, 0
2, 28497, Note_on_c, 0, 64, 71
2, 28500, Note_on_c, 0, 41, 63
2, 28503, Note_on_c, 0, 60, 66
2, 28504, Note_on_c, 0, 57, 69
2, 28635, Note_on_c, 0, 69, 62
2, 28635, Note_on_c, 0, 67, 67
2, 28684, Control_c, 0, 64, 127
2, 28723, Control_c, 0, 64, 0
2, 28740, Note_on_c, 0, 48, 57
2, 28749, Note_on_c, 0, 67, 0
2, 28752, Note_on_c, 0, 64, 0
2, 28753, Note_on_c, 0, 69, 0
2, 28765, Note_on_c, 0, 69, 77
2, 28890, Note_on_c, 0, 64, 78
2, 28899, Note_on_c, 0, 41, 0
2, 28899, Note_on_c, 0, 60, 0
2, 28904, Note_on_c, 0, 41, 44
2, 28992, Note_on_c, 0, 57, 0
2, 29007, Note_on_c, 0, 48, 0
2, 29017, Note_on_c, 0, 48, 54
2, 29145, Note_on_c, 0, 69, 0
2, 29148, Note_on_c, 0, 64, 0
2, 29158, Note_on_c, 0, 62, 75
2, 29163, Note_on_c, 0, 53, 55
2, 29191, Note_on_c, 0, 62, 0
2, 29276, Note_on_c, 0, 53, 0
2, 29283, Note_on_c, 0, 48, 0
2, 29293, Note_on_c, 0, 62, 75
2, 29294, Note_on_c, 0, 48, 54
2, 29425, Note_on_c, 0, 53, 58
2, 29552, Note_on_c, 0, 48, 0
2, 29559, Note_on_c, 0, 48, 51
2, 29683, Note_on_c, 0, 53, 0
2, 29692, Note_on_c, 0, 53, 54
2, 29798, Note_on_c, 0, 57, 73
2, 29813, Note_on_c, 0, 48, 0
2, 29813, Control_c, 0, 64, 127
2, 29820, Note_on_c, 0, 48, 43
2, 29936, Note_on_c, 0, 53, 0
2, 29943, Note_on_c, 0, 53, 53
2, 30059, Note_on_c, 0, 48, 0
2, 30063, Note_on_c, 0, 48, 62
2, 30065, Note_on_c, 0, 60, 79
2, 30069, Control_c, 0, 64, 0
2, 30083, Note_on_c, 0, 62, 0
2, 30144, Control_c, 0, 64, 127
2, 30167, Note_on_c, 0, 53, 0
2, 30176, Note_on_c, 0, 53, 58
2, 30289, Note_on_c, 0, 48, 0
2, 30297, Control_c, 0, 64, 0
2, 30299, Note_on_c, 0, 48, 66
2, 30301, Note_on_c, 0, 53, 0
2, 30309, Note_on_c, 0, 62, 89
2, 30320, Note_on_c, 0, 57, 0
2, 30323, Note_on_c, 0, 60, 0
2, 30382, Control_c, 0, 64, 127
2, 30405, Note_on_c, 0, 53, 65
2, 30524, Note_on_c, 0, 48, 0
2, 30525, Control_c, 0, 64, 0
2, 30532, Note_on_c, 0, 53, 0
2, 30535, Note_on_c, 0, 41, 0
2, 30541, Note_on_c, 0, 62, 0
2, 30553, Note_on_c, 0, 40, 63
2, 30553, Note_on_c, 0, 64, 83
2, 30578, Note_on_c, 0, 59, 62
2, 30593, Note_on_c, 0, 55, 46
2, 30731, Note_on_c, 0, 52, 49
2, 30826, Note_on_c, 0, 47, 58
2, 30950, Note_on_c, 0, 55, 0
2, 30958, Note_on_c, 0, 52, 0
2, 30959, Note_on_c, 0, 55, 71
2, 30962, Note_on_c, 0, 52, 59
2, 31065, Note_on_c, 0, 55, 0
2, 31074, Note_on_c, 0, 55, 64
2, 31088, Note_on_c, 0, 47, 0
2, 31094, Note_on_c, 0, 47, 47
2, 31203, Control_c, 0, 64, 127
2, 31226, Note_on_c, 0, 52, 0
2, 31232, Note_on_c, 0, 52, 51
2, 31334, Note_on_c, 0, 47, 0
2, 31344, Note_on_c, 0, 47, 55
2, 31464, Note_on_c, 0, 52, 0
2, 31475, Note_on_c, 0, 52, 58
2, 31565, Control_c, 0, 64, 0
2, 31567, Note_on_c, 0, 55, 0
2, 31567, Note_on_c, 0, 40, 0
2, 31567, Note_on_c, 0, 52, 0
2, 31571, Note_on_c, 0, 64, 0
2, 31592, Note_on_c, 0, 76, 78
2, 31595, Note_on_c, 0, 47, 0
2, 31595, Note_on_c, 0, 59, 0
2, 31602, Note_on_c, 0, 47, 54
2, 31605, Note_on_c, 0, 71, 63
2, 31606, Note_on_c, 0, 67, 63
2, 31672, Control_c, 0, 64, 127
2, 31731, Note_on_c, 0, 52, 56
2, 31848, Note_on_c, 0, 47, 0
2, 31858, Note_on_c, 0, 47, 54
2, 31964, Note_on_c, 0, 67, 0
2, 31974, Note_on_c, 0, 67, 76
2, 31979, Note_on_c, 0, 52, 0
2, 31989, Note_on_c, 0, 52, 64
2, 32082, Note_on_c, 0, 52, 0
2, 32082, Note_on_c, 0, 71, 0
2, 32083, Note_on_c, 0, 76, 0
2, 32083, Control_c, 0, 64, 0
2, 32117, Note_on_c, 0, 47, 0
2, 32124, Note_on_c, 0, 47, 55
2, 32186, Control_c, 0, 64, 127
2, 32251, Note_on_c, 0, 52, 65
2, 32371, Note_on_c, 0, 47, 0
2, 32377, Note_on_c, 0, 47, 62
2, 32478, Note_on_c, 0, 52, 0
2, 32487, Note_on_c, 0, 52, 68
2, 32559, Note_on_c, 0, 47, 0
2, 32559, Note_on_c, 0, 52, 0
2, 32560, Control_c, 0, 64, 0
2, 32570, Note_on_c, 0, 67, 0
2, 32606, Note_on_c, 0, 64, 81
2, 32613, Note_on_c, 0, 60, 79
2, 32620, Note_on_c, 0, 57, 70
2, 32637, Note_on_c, 0, 38, 52
2, 32745, Note_on_c, 0, 67, 80
2, 32747, Note_on_c, 0, 53, 66
2, 32857, Note_on_c, 0, 64, 0
2, 32858, Note_on_c, 0, 53, 0
2, 32863, Note_on_c, 0, 67, 0
2, 32866, Note_on_c, 0, 69, 87
2, 32884, Note_on_c, 0, 45, 61
2, 32931, Note_on_c, 0, 60, 0
2, 32970, Note_on_c, 0, 57, 0
2, 32992, Note_on_c, 0, 64, 81
2, 32995, Note_on_c, 0, 53, 63
2, 32996, Note_on_c, 0, 57, 59
2, 33028, Note_on_c, 0, 69, 0
2, 33113, Note_on_c, 0, 53, 0
2, 33131, Note_on_c, 0, 45, 0
2, 33140, Note_on_c, 0, 45, 55
2, 33257, Note_on_c, 0, 62, 82
2, 33264, Note_on_c, 0, 53, 66
2, 33369, Note_on_c, 0, 57, 0
2, 33369, Note_on_c, 0, 62, 0
2, 33369, Note_on_c, 0, 64, 0
2, 33377, Note_on_c, 0, 45, 0
2, 33377, Note_on_c, 0, 62, 79
2, 33379, Note_on_c, 0, 57, 59
2, 33383, Note_on_c, 0, 45, 61
2, 33438, Note_on_c, 0, 53, 0
2, 33454, Note_on_c, 0, 38, 0
2, 33495, Note_on_c, 0, 53, 64
2, 33580, Note_on_c, 0, 53, 0
2, 33615, Note_on_c, 0, 43, 61
2, 33618, Note_on_c, 0, 59, 71
2, 33646, Note_on_c, 0, 57, 0
2, 33756, Note_on_c, 0, 55, 57
2, 33761, Note_on_c, 0, 45, 0
2, 33857, Note_on_c, 0, 55, 0
2, 33876, Note_on_c, 0, 59, 0
2, 33878, Note_on_c, 0, 57, 76
2, 33880, Note_on_c, 0, 50, 53
2, 34024, Note_on_c, 0, 55, 53
2, 34132, Note_on_c, 0, 60, 82
2, 34137, Note_on_c, 0, 50, 0
2, 34141, Note_on_c, 0, 50, 58
2, 34214, Note_on_c, 0, 55, 0
2, 34259, Note_on_c, 0, 55, 60
2, 34268, Note_on_c, 0, 57, 0
2, 34368, Note_on_c, 0, 62, 0
2, 34370, Note_on_c, 0, 55, 0
2, 34373, Note_on_c, 0, 60, 0
2, 34377, Note_on_c, 0, 62, 89
2, 34383, Note_on_c, 0, 50, 0
2, 34392, Note_on_c, 0, 50, 63
2, 34406, Control_c, 0, 64, 127
2, 34498, Note_on_c, 0, 55, 65
2, 34602, Note_on_c, 0, 43, 0
2, 34603, Note_on_c, 0, 55, 0
2, 34604, Note_on_c, 0, 50, 0
2, 34608, Control_c, 0, 64, 0
2, 34629, Note_on_c, 0, 62, 0
2, 34640, Note_on_c, 0, 62, 89
2, 34644, Note_on_c, 0, 55, 59
2, 34651, Note_on_c, 0, 36, 64
2, 34666, Note_on_c, 0, 59, 60
2, 34772, Note_on_c, 0, 52, 59
2, 34890, Note_on_c, 0, 43, 58
2, 35015, Note_on_c, 0, 62, 0
2, 35017, Note_on_c, 0, 64, 82
2, 35020, Note_on_c, 0, 52, 0
2, 35020, Note_on_c, 0, 55, 0
2, 35028, Note_on_c, 0, 59, 0
2, 35030, Note_on_c, 0, 52, 65
2, 35065, Note_on_c, 0, 64, 0
2, 35149, Note_on_c, 0, 64, 82
2, 35151, Note_on_c, 0, 43, 0
2, 35161, Note_on_c, 0, 43, 55
2, 35274, Control_c, 0, 64, 127
2, 35289, Note_on_c, 0, 52, 0
2, 35295, Note_on_c, 0, 52, 65
2, 35412, Note_on_c, 0, 43, 0
2, 35416, Note_on_c, 0, 43, 59
2, 35520, Note_on_c, 0, 52, 0
2, 35526, Note_on_c, 0, 52, 72
2, 35653, Note_on_c, 0, 64, 0
2, 35655, Control_c, 0, 64, 0
2, 35665, Note_on_c, 0, 36, 0
2, 35665, Note_on_c, 0, 43, 0
2, 35668, Note_on_c, 0, 76, 82
2, 35670, Note_on_c, 0, 43, 47
2, 35684, Note_on_c, 0, 67, 70
2, 35690, Note_on_c, 0, 55, 53
2, 35788, Control_c, 0, 64, 127
2, 35811, Note_on_c, 0, 43, 0
2, 35811, Note_on_c, 0, 55, 0
2, 35822, Note_on_c, 0, 55, 39
2, 35931, Note_on_c, 0, 64, 78
2, 35955, Note_on_c, 0, 48, 33
2, 36049, Note_on_c, 0, 55, 0
2, 36051, Control_c, 0, 64, 0
2, 36054, Note_on_c, 0, 64, 0
2, 36056, Note_on_c, 0, 76, 0
2, 36056, Note_on_c, 0, 74, 86
2, 36056, Note_on_c, 0, 67, 0
2, 36057, Note_on_c, 0, 55, 72
2, 36065, Note_on_c, 0, 48, 0
2, 36067, Note_on_c, 0, 70, 77
2, 36069, Note_on_c, 0, 48, 59
2, 36071, Note_on_c, 0, 58, 76
2, 36080, Note_on_c, 0, 52, 0
2, 36105, Note_on_c, 0, 58, 0
2, 36107, Note_on_c, 0, 74, 0
2, 36107, Note_on_c, 0, 70, 0
2, 36119, Note_on_c, 0, 55, 0
2, 36149, Note_on_c, 0, 48, 0
2, 36206, Note_on_c, 0, 46, 30
2, 36211, Note_on_c, 0, 46, 0
2, 36321, Note_on_c, 0, 76, 85
2, 36333, Note_on_c, 0, 36, 62
2, 36336, Note_on_c, 0, 67, 67
2, 36339, Note_on_c, 0, 70, 59
2, 36357, Control_c, 0, 64, 127
2, 36453, Note_on_c, 0, 48, 52
2, 36595, Note_on_c, 0, 48, 0
2, 36599, Note_on_c, 0, 48, 38
2, 36602, Note_on_c, 0, 72, 69
2, 36649, Note_on_c, 0, 36, 0
2, 36649, Note_on_c, 0, 67, 0
2, 36650, Control_c, 0, 64, 0
2, 36651, Note_on_c, 0, 48, 0
2, 36652, Note_on_c, 0, 72, 0
2, 36653, Note_on_c, 0, 70, 0
2, 36667, Note_on_c, 0, 74, 77
2, 36695, Note_on_c, 0, 76, 0
2, 36703, Note_on_c, 0, 76, 88
2, 36705, Note_on_c, 0, 41, 67
2, 36718, Note_on_c, 0, 74, 0
2, 36787, Note_on_c, 0, 76, 0
2, 36811, Note_on_c, 0, 48, 66
2, 36815, Note_on_c, 0, 79, 83
2, 36936, Note_on_c, 0, 81, 89
2, 36940, Note_on_c, 0, 41, 0
2, 36944, Note_on_c, 0, 57, 70
2, 36944, Note_on_c, 0, 53, 61
2, 36952, Note_on_c, 0, 69, 54
2, 36989, Note_on_c, 0, 57, 0
2, 36991, Note_on_c, 0, 48, 0
2, 36991, Note_on_c, 0, 53, 0
2, 37029, Note_on_c, 0, 81, 0
2, 37048, Note_on_c, 0, 69, 0
2, 37048, Note_on_c, 0, 79, 0
2, 37066, Note_on_c, 0, 76, 86
2, 37090, Note_on_c, 0, 48, 56
2, 37197, Note_on_c, 0, 41, 60
2, 37301, Note_on_c, 0, 48, 0
2, 37310, Note_on_c, 0, 41, 0
2, 37312, Note_on_c, 0, 48, 66
2, 37326, Note_on_c, 0, 74, 79
2, 37345, Note_on_c, 0, 76, 0
2, 37358, Note_on_c, 0, 74, 0
2, 37416, Note_on_c, 0, 48, 0
2, 37437, Note_on_c, 0, 74, 77
2, 37441, Note_on_c, 0, 53, 65
2, 37460, Note_on_c, 0, 69, 48
2, 37463, Note_on_c, 0, 57, 60
2, 37482, Note_on_c, 0, 41, 34
2, 37521, Note_on_c, 0, 57, 0
2, 37537, Note_on_c, 0, 53, 0
2, 37555, Note_on_c, 0, 41, 0
2, 37596, Note_on_c, 0, 48, 56
2, 37701, Note_on_c, 0, 69, 0
2, 37705, Note_on_c, 0, 41, 58
2, 37707, Note_on_c, 0, 69, 53
2, 37712, Note_on_c, 0, 48, 0
2, 37837, Note_on_c, 0, 48, 61
2, 37946, Note_on_c, 0, 69, 0
2, 37952, Note_on_c, 0, 69, 81
2, 37964, Note_on_c, 0, 53, 60
2, 37965, Note_on_c, 0, 57, 66
2, 37971, Note_on_c, 0, 74, 0
2, 38050, Note_on_c, 0, 53, 0
2, 38077, Note_on_c, 0, 48, 0
2, 38086, Note_on_c, 0, 48, 49
2, 38161, Note_on_c, 0, 57, 0
2, 38200, Note_on_c, 0, 41, 0
2, 38209, Note_on_c, 0, 41, 71
2, 38211, Note_on_c, 0, 72, 94
2, 38247, Note_on_c, 0, 69, 0
2, 38249, Note_on_c, 0, 48, 0
2, 38358, Note_on_c, 0, 48, 33
2, 38457, Note_on_c, 0, 53, 69
2, 38457, Note_on_c, 0, 74, 95
2, 38470, Note_on_c, 0, 57, 72
2, 38522, Control_c, 0, 64, 127
2, 38561, Note_on_c, 0, 48, 0
2, 38566, Note_on_c, 0, 48, 71
2, 38678, Note_on_c, 0, 53, 0
2, 38679, Note_on_c, 0, 48, 0
2, 38680, Note_on_c, 0, 41, 0
2, 38680, Note_on_c, 0, 57, 0
2, 38683, Note_on_c, 0, 74, 0
2, 38684, Control_c, 0, 64, 0
2, 38691, Note_on_c, 0, 72, 0
2, 38716, Note_on_c, 0, 40, 74
2, 38722, Note_on_c, 0, 76, 90
2, 38784, Control_c, 0, 64, 127
2, 38826, Note_on_c, 0, 47, 72
2, 38843, Note_on_c, 0, 79, 87
2, 38952, Note_on_c, 0, 79, 0
2, 38963, Note_on_c, 0, 79, 93
2, 38964, Note_on_c, 0, 52, 71
2, 38968, Note_on_c, 0, 55, 75
2, 39075, Note_on_c, 0, 47, 0
2, 39081, Note_on_c, 0, 47, 67
2, 39085, Note_on_c, 0, 81, 97
2, 39174, Note_on_c, 0, 55, 0
2, 39174, Note_on_c, 0, 52, 0
2, 39175, Note_on_c, 0, 47, 0
2, 39175, Note_on_c, 0, 79, 0
2, 39178, Control_c, 0, 64, 0
2, 39178, Note_on_c, 0, 81, 0
2, 39179, Note_on_c, 0, 76, 0
2, 39191, Note_on_c, 0, 40, 0
2, 39197, Note_on_c, 0, 40, 81
2, 39203, Note_on_c, 0, 83, 97
2, 39267, Control_c, 0, 64, 127
2, 39317, Note_on_c, 0, 47, 66
2, 39324, Note_on_c, 0, 81, 93
2, 39416, Note_on_c, 0, 52, 66
2, 39446, Note_on_c, 0, 79, 98
2, 39471, Note_on_c, 0, 55, 71
2, 39547, Note_on_c, 0, 47, 0
2, 39547, Control_c, 0, 64, 0
2, 39548, Note_on_c, 0, 52, 0
2, 39548, Note_on_c, 0, 40, 0
2, 39548, Note_on_c, 0, 81, 0
2, 39548, Note_on_c, 0, 83, 0
2, 39548, Note_on_c, 0, 55, 0
2, 39567, Note_on_c, 0, 79, 0
2, 39576, Note_on_c, 0, 79, 102
2, 39580, Note_on_c, 0, 45, 84
2, 39583, Note_on_c, 0, 71, 83
2, 39586, Note_on_c, 0, 74, 76
2, 39644, Control_c, 0, 64, 127
2, 39711, Note_on_c, 0, 52, 72
2, 39821, Note_on_c, 0, 57, 70
2, 39823, Note_on_c, 0, 81, 94
2, 39836, Note_on_c, 0, 71, 0
2, 39943, Note_on_c, 0, 81, 0
2, 39953, Note_on_c, 0, 81, 95
2, 39955, Note_on_c, 0, 61, 78
2, 40082, Note_on_c, 0, 69, 79
2, 40357, Note_on_c, 0, 64, 62
2, 40473, Note_on_c, 0, 57, 0
2, 40473, Note_on_c, 0, 69, 0
2, 40477, Note_on_c, 0, 57, 72
2, 40477, Note_on_c, 0, 69, 60
2, 40619, Note_on_c, 0, 74, 0
2, 40624, Note_on_c, 0, 74, 81
2, 40677, Note_on_c, 0, 76, 71
2, 40695, Note_on_c, 0, 52, 0
2, 40696, Note_on_c, 0, 64, 0
2, 40697, Note_on_c, 0, 61, 0
2, 40697, Note_on_c, 0, 69, 0
2, 40697, Control_c, 0, 64, 0
2, 40699, Note_on_c, 0, 79, 0
2, 40699, Note_on_c, 0, 81, 0
2, 40700, Note_on_c, 0, 57, 0
2, 40702, Note_on_c, 0, 45, 0
2, 40715, Note_on_c, 0, 74, 0
2, 40716, Note_on_c, 0, 76, 0
2, 40729, Note_on_c, 0, 77, 94
2, 40754, Note_on_c, 0, 38, 81
2, 40757, Note_on_c, 0, 50, 86
2, 40780, Control_c, 0, 64, 127
2, 40856, Note_on_c, 0, 76, 82
2, 40884, Note_on_c, 0, 45, 52
2, 40980, Note_on_c, 0, 50, 0
2, 40984, Note_on_c, 0, 50, 62
2, 40988, Note_on_c, 0, 74, 89
2, 41120, Note_on_c, 0, 72, 89
2, 41121, Note_on_c, 0, 57, 69
2, 41122, Note_on_c, 0, 60, 73
2, 41130, Note_on_c, 0, 53, 72
2, 41364, Note_on_c, 0, 53, 0
2, 41375, Note_on_c, 0, 53, 58
2, 41377, Note_on_c, 0, 69, 80
2, 41487, Note_on_c, 0, 60, 0
2, 41495, Note_on_c, 0, 53, 0
2, 41495, Note_on_c, 0, 57, 0
2, 41495, Note_on_c, 0, 72, 0
2, 41497, Note_on_c, 0, 60, 80
2, 41501, Note_on_c, 0, 53, 73
2, 41504, Note_on_c, 0, 57, 64
2, 41505, Note_on_c, 0, 72, 81
2, 41558, Control_c, 0, 64, 0
2, 41561, Note_on_c, 0, 74, 0
2, 41562, Note_on_c, 0, 50, 0
2, 41563, Note_on_c, 0, 60, 0
2, 41565, Note_on_c, 0, 77, 0
2, 41566, Note_on_c, 0, 76, 0
2, 41566, Note_on_c, 0, 69, 0
2, 41566, Note_on_c, 0, 38, 0
2, 41568, Note_on_c, 0, 72, 0
2, 41617, Note_on_c, 0, 45, 0
2, 41641, Note_on_c, 0, 74, 89
2, 41694, Note_on_c, 0, 57, 0
2, 41725, Note_on_c, 0, 53, 0
2, 41759, Note_on_c, 0, 40, 83
2, 41809, Control_c, 0, 64, 127
2, 41890, Note_on_c, 0, 76, 87
2, 41896, Note_on_c, 0, 47, 72
2, 42012, Note_on_c, 0, 52, 71
2, 42015, Note_on_c, 0, 79, 94
2, 42146, Note_on_c, 0, 62, 83
2, 42158, Note_on_c, 0, 59, 71
2, 42162, Note_on_c, 0, 55, 67
2, 42393, Note_on_c, 0, 52, 0
2, 42393, Note_on_c, 0, 55, 0
2, 42399, Note_on_c, 0, 52, 69
2, 42402, Note_on_c, 0, 55, 43
2, 42531, Note_on_c, 0, 62, 0
2, 42537, Note_on_c, 0, 62, 83
2, 42539, Note_on_c, 0, 55, 0
2, 42539, Note_on_c, 0, 59, 0
2, 42543, Note_on_c, 0, 55, 76
2, 42545, Note_on_c, 0, 59, 74
2, 42546, Note_on_c, 0, 67, 85
2, 42561, Note_on_c, 0, 76, 0
2, 42563, Note_on_c, 0, 79, 0
2, 42565, Note_on_c, 0, 40, 0
2, 42566, Note_on_c, 0, 47, 0
2, 42566, Note_on_c, 0, 52, 0
2, 42567, Control_c, 0, 64, 0
2, 42570, Note_on_c, 0, 74, 0
2, 42616, Note_on_c, 0, 62, 0
2, 42700, Note_on_c, 0, 59, 0
2, 42762, Note_on_c, 0, 55, 0
2, 42791, Note_on_c, 0, 69, 89
2, 42791, Note_on_c, 0, 53, 80
2, 42794, Note_on_c, 0, 41, 80
2, 42808, Note_on_c, 0, 67, 0
2, 42839, Control_c, 0, 64, 127
2, 42926, Note_on_c, 0, 48, 73
2, 43023, Note_on_c, 0, 53, 0
2, 43029, Note_on_c, 0, 53, 80
2, 43041, Note_on_c, 0, 72, 89
2, 43044, Note_on_c, 0, 60, 61
2, 43161, Note_on_c, 0, 60, 0
2, 43170, Note_on_c, 0, 60, 78
2, 43171, Note_on_c, 0, 57, 75
2, 43297, Note_on_c, 0, 74, 96
2, 43330, Note_on_c, 0, 60, 0
2, 43340, Note_on_c, 0, 60, 55
2, 43422, Note_on_c, 0, 53, 0
2, 43431, Note_on_c, 0, 53, 74
2, 43545, Note_on_c, 0, 60, 0
2, 43556, Note_on_c, 0, 76, 92
2, 43556, Note_on_c, 0, 60, 77
2, 43649, Note_on_c, 0, 48, 0
2, 43649, Note_on_c, 0, 41, 0
2, 43649, Note_on_c, 0, 53, 0
2, 43649, Note_on_c, 0, 74, 0
2, 43650, Note_on_c, 0, 57, 0
2, 43650, Note_on_c, 0, 69, 0
2, 43650, Note_on_c, 0, 60, 0
2, 43650, Note_on_c, 0, 72, 0
2, 43655, Control_c, 0, 64, 0
2, 43683, Note_on_c, 0, 76, 0
2, 43688, Note_on_c, 0, 76, 90
2, 43694, Note_on_c, 0, 67, 77
2, 43694, Note_on_c, 0, 43, 76
2, 43697, Note_on_c, 0, 71, 74
2, 43768, Control_c, 0, 64, 127
2, 43815, Note_on_c, 0, 50, 63
2, 43936, Note_on_c, 0, 55, 72
2, 43942, Note_on_c, 0, 74, 90
2, 44060, Note_on_c, 0, 74, 0
2, 44067, Note_on_c, 0, 74, 93
2, 44092, Note_on_c, 0, 59, 59
2, 44190, Note_on_c, 0, 67, 0
2, 44200, Note_on_c, 0, 67, 76
2, 44324, Note_on_c, 0, 62, 70
2, 44436, Note_on_c, 0, 59, 0
2, 44446, Note_on_c, 0, 59, 54
2, 44567, Note_on_c, 0, 55, 0
2, 44576, Note_on_c, 0, 55, 59
2, 44825, Control_c, 0, 64, 0
2, 44827, Note_on_c, 0, 71, 0
2, 44827, Note_on_c, 0, 62, 0
2, 44827, Note_on_c, 0, 50, 0
2, 44828, Note_on_c, 0, 67, 0
2, 44828, Note_on_c, 0, 59, 0
2, 44828, Note_on_c, 0, 76, 0
2, 44828, Note_on_c, 0, 55, 0
2, 44829, Note_on_c, 0, 74, 0
2, 44835, Note_on_c, 0, 43, 0
2, 44864, Note_on_c, 0, 91, 93
2, 44870, Note_on_c, 0, 44, 69
2, 44874, Note_on_c, 0, 79, 82
2, 44943, Control_c, 0, 64, 127
2, 44991, Note_on_c, 0, 51, 60
2, 45108, Note_on_c, 0, 56, 57
2, 45224, Note_on_c, 0, 60, 55
2, 45369, Note_on_c, 0, 63, 70
2, 45488, Note_on_c, 0, 60, 0
2, 45488, Note_on_c, 0, 91, 0
2, 45493, Note_on_c, 0, 91, 85
2, 45494, Note_on_c, 0, 60, 54
2, 45496, Note_on_c, 0, 79, 0
2, 45503, Note_on_c, 0, 79, 72
2, 45611, Note_on_c, 0, 79, 0
2, 45611, Note_on_c, 0, 91, 0
2, 45618, Note_on_c, 0, 79, 77
2, 45619, Note_on_c, 0, 63, 0
2, 45619, Note_on_c, 0, 91, 82
2, 45625, Note_on_c, 0, 63, 57
2, 45734, Note_on_c, 0, 91, 0
2, 45742, Note_on_c, 0, 79, 0
2, 45745, Note_on_c, 0, 91, 81
2, 45748, Note_on_c, 0, 68, 65
2, 45750, Note_on_c, 0, 79, 77
2, 45869, Note_on_c, 0, 96, 87
2, 45871, Note_on_c, 0, 84, 84
2, 45997, Note_on_c, 0, 75, 64
2, 46126, Note_on_c, 0, 91, 0
2, 46133, Note_on_c, 0, 79, 0
2, 46137, Note_on_c, 0, 91, 85
2, 46138, Note_on_c, 0, 79, 79
2, 46259, Note_on_c, 0, 72, 65
2, 46390, Note_on_c, 0, 89, 84
2, 46396, Note_on_c, 0, 77, 70
2, 46510, Note_on_c, 0, 68, 0
2, 46520, Note_on_c, 0, 68, 64
2, 46640, Note_on_c, 0, 75, 0
2, 46646, Note_on_c, 0, 87, 84
2, 46648, Note_on_c, 0, 60, 0
2, 46651, Note_on_c, 0, 75, 72
2, 46657, Note_on_c, 0, 60, 38
2, 46732, Note_on_c, 0, 63, 0
2, 46741, Note_on_c, 0, 63, 57
2, 46872, Note_on_c, 0, 79, 0
2, 46872, Note_on_c, 0, 91, 0
2, 46873, Note_on_c, 0, 63, 0
2, 46873, Note_on_c, 0, 51, 0
2, 46873, Note_on_c, 0, 68, 0
2, 46873, Note_on_c, 0, 72, 0
2, 46873, Note_on_c, 0, 87, 0
2, 46873, Note_on_c, 0, 60, 0
2, 46873, Note_on_c, 0, 84, 0
2, 46873, Note_on_c, 0, 96, 0
2, 46873, Note_on_c, 0, 89, 0
2, 46873, Note_on_c, 0, 75, 0
2, 46873, Note_on_c, 0, 77, 0
2, 46873, Note_on_c, 0, 56, 0
2, 46874, Note_on_c, 0, 44, 0
2, 46874, Control_c, 0, 64, 0
2, 46922, Note_on_c, 0, 43, 65
2, 46923, Note_on_c, 0, 89, 92
2, 46928, Note_on_c, 0, 86, 80
2, 46930, Note_on_c, 0, 77, 82
2, 46930, Note_on_c, 0, 82, 80
2, 46970, Control_c, 0, 64, 127
2, 47037, Note_on_c, 0, 50, 62
2, 47168, Note_on_c, 0, 53, 65
2, 47172, Note_on_c, 0, 91, 84
2, 47179, Note_on_c, 0, 79, 72
2, 47293, Note_on_c, 0, 89, 0
2, 47301, Note_on_c, 0, 77, 0
2, 47304, Note_on_c, 0, 89, 85
2, 47306, Note_on_c, 0, 58, 65
2, 47307, Note_on_c, 0, 77, 80
2, 47415, Note_on_c, 0, 62, 72
2, 47531, Note_on_c, 0, 58, 0
2, 47537, Note_on_c, 0, 58, 69
2, 47546, Note_on_c, 0, 86, 0
2, 47552, Note_on_c, 0, 86, 84
2, 47556, Note_on_c, 0, 74, 79
2, 47662, Note_on_c, 0, 62, 0
2, 47668, Note_on_c, 0, 62, 70
2, 47669, Note_on_c, 0, 82, 0
2, 47677, Note_on_c, 0, 82, 84
2, 47690, Note_on_c, 0, 70, 70
2, 47802, Note_on_c, 0, 65, 59
2, 47923, Note_on_c, 0, 77, 0
2, 47929, Note_on_c, 0, 77, 79
2, 48046, Note_on_c, 0, 70, 0
2, 48054, Note_on_c, 0, 70, 60
2, 48176, Note_on_c, 0, 74, 0
2, 48182, Note_on_c, 0, 74, 68
2, 48291, Note_on_c, 0, 65, 0
2, 48299, Note_on_c, 0, 65, 63
2, 48429, Note_on_c, 0, 87, 101
2, 48445, Note_on_c, 0, 70, 0
2, 48446, Note_on_c, 0, 82, 0
2, 48446, Note_on_c, 0, 75, 83
2, 48450, Note_on_c, 0, 70, 76
2, 48560, Note_on_c, 0, 62, 0
2, 48564, Note_on_c, 0, 62, 64
2, 48683, Note_on_c, 0, 89, 0
2, 48691, Note_on_c, 0, 65, 0
2, 48691, Note_on_c, 0, 77, 0
2, 48693, Note_on_c, 0, 89, 93
2, 48699, Note_on_c, 0, 65, 62
2, 48701, Note_on_c, 0, 77, 78
2, 48791, Note_on_c, 0, 58, 0
2, 48797, Note_on_c, 0, 58, 74
2, 48910, Note_on_c, 0, 43, 0
2, 48912, Note_on_c, 0, 53, 0
2, 48913, Note_on_c, 0, 62, 0
2, 48913, Note_on_c, 0, 86, 0
2, 48913, Note_on_c, 0, 79, 0
2, 48913, Note_on_c, 0, 50, 0
2, 48913, Note_on_c, 0, 87, 0
2, 48914, Note_on_c, 0, 58, 0
2, 48914, Note_on_c, 0, 91, 0
2, 48914, Note_on_c, 0, 77, 0
2, 48914, Note_on_c, 0, 65, 0
2, 48914, Note_on_c, 0, 70, 0
2, 48914, Note_on_c, 0, 74, 0
2, 48915, Note_on_c, 0, 75, 0
2, 48915, Control_c, 0, 64, 0
2, 48947, Note_on_c, 0, 47, 81
2, 48960, Note_on_c, 0, 89, 0
2, 49072, Note_on_c, 0, 54, 69
2, 49090, Control_c, 0, 64, 127
2, 49186, Note_on_c, 0, 59, 76
2, 49199, Note_on_c, 0, 94, 103
2, 49207, Note_on_c, 0, 82, 90
2, 49209, Note_on_c, 0, 90, 83
2, 49222, Note_on_c, 0, 87, 69
2, 49321, Note_on_c, 0, 63, 67
2, 49446, Note_on_c, 0, 66, 77
2, 49566, Note_on_c, 0, 63, 0
2, 49572, Note_on_c, 0, 63, 69
2, 49674, Note_on_c, 0, 66, 0
2, 49685, Note_on_c, 0, 66, 74
2, 49801, Note_on_c, 0, 71, 72
2, 49935, Note_on_c, 0, 75, 81
2, 50058, Note_on_c, 0, 82, 0
2, 50058, Note_on_c, 0, 94, 0
2, 50063, Note_on_c, 0, 94, 92
2, 50065, Note_on_c, 0, 66, 0
2, 50067, Note_on_c, 0, 82, 88
2, 50070, Note_on_c, 0, 66, 69
2, 50181, Note_on_c, 0, 71, 0
2, 50181, Note_on_c, 0, 94, 0
2, 50188, Note_on_c, 0, 82, 0
2, 50191, Note_on_c, 0, 94, 84
2, 50191, Note_on_c, 0, 71, 69
2, 50192, Note_on_c, 0, 82, 81
2, 50204, Note_on_c, 0, 90, 0
2, 50209, Note_on_c, 0, 90, 51
2, 50304, Note_on_c, 0, 63, 0
2, 50304, Note_on_c, 0, 94, 0
2, 50311, Note_on_c, 0, 82, 0
2, 50313, Note_on_c, 0, 94, 90
2, 50315, Note_on_c, 0, 63, 64
2, 50316, Note_on_c, 0, 82, 72
2, 50426, Note_on_c, 0, 94, 0
2, 50433, Note_on_c, 0, 94, 98
2, 50434, Note_on_c, 0, 66, 0
2, 50434, Note_on_c, 0, 82, 0
2, 50438, Note_on_c, 0, 82, 79
2, 50439, Note_on_c, 0, 66, 77
2, 50549, Note_on_c, 0, 47, 0
2, 50549, Note_on_c, 0, 59, 0
2, 50553, Note_on_c, 0, 59, 66
2, 50554, Note_on_c, 0, 92, 90
2, 50554, Note_on_c, 0, 47, 61
2, 50558, Note_on_c, 0, 80, 87
2, 50664, Note_on_c, 0, 63, 0
2, 50668, Note_on_c, 0, 63, 58
2, 50672, Note_on_c, 0, 90, 0
2, 50677, Note_on_c, 0, 90, 91
2, 50682, Note_on_c, 0, 78, 85
2, 50745, Note_on_c, 0, 71, 0
2, 50745, Note_on_c, 0, 94, 0
2, 50745, Control_c, 0, 64, 0
2, 50746, Note_on_c, 0, 90, 0
2, 50746, Note_on_c, 0, 82, 0
2, 50746, Note_on_c, 0, 92, 0
2, 50746, Note_on_c, 0, 80, 0
2, 50746, Note_on_c, 0, 47, 0
2, 50746, Note_on_c, 0, 54, 0
2, 50746, Note_on_c, 0, 87, 0
2, 50746, Note_on_c, 0, 75, 0
2, 50746, Note_on_c, 0, 66, 0
2, 50746, Note_on_c, 0, 63, 0
2, 50747, Note_on_c, 0, 59, 0
2, 50749, Note_on_c, 0, 78, 0
2, 50807, Note_on_c, 0, 94, 101
2, 50809, Note_on_c, 0, 82, 87
2, 50814, Note_on_c, 0, 87, 84
2, 50814, Note_on_c, 0, 46, 84
2, 50872, Control_c, 0, 64, 127
2, 51049, Note_on_c, 0, 58, 68
2, 51177, Note_on_c, 0, 65, 62
2, 51187, Note_on_c, 0, 70, 72
2, 51302, Note_on_c, 0, 94, 0
2, 51309, Note_on_c, 0, 94, 87
2, 51310, Note_on_c, 0, 82, 0
2, 51310, Note_on_c, 0, 87, 0
2, 51315, Note_on_c, 0, 75, 85
2, 51315, Note_on_c, 0, 82, 82
2, 51320, Note_on_c, 0, 87, 76
2, 51432, Note_on_c, 0, 58, 0
2, 51443, Note_on_c, 0, 58, 80
2, 51571, Note_on_c, 0, 65, 0
2, 51571, Note_on_c, 0, 70, 0
2, 51576, Note_on_c, 0, 70, 71
2, 51577, Note_on_c, 0, 65, 61
2, 51686, Note_on_c, 0, 75, 0
2, 51686, Note_on_c, 0, 82, 0
2, 51686, Note_on_c, 0, 87, 0
2, 51686, Note_on_c, 0, 94, 0
2, 51690, Note_on_c, 0, 94, 87
2, 51691, Note_on_c, 0, 75, 84
2, 51695, Note_on_c, 0, 87, 85
2, 51696, Note_on_c, 0, 82, 80
2, 51801, Note_on_c, 0, 58, 0
2, 51811, Note_on_c, 0, 58, 86
2, 51947, Note_on_c, 0, 65, 0
2, 51947, Note_on_c, 0, 82, 0
2, 51947, Note_on_c, 0, 94, 0
2, 51952, Note_on_c, 0, 94, 101
2, 51954, Note_on_c, 0, 74, 93
2, 51955, Note_on_c, 0, 70, 0
2, 51955, Note_on_c, 0, 86, 92
2, 51957, Note_on_c, 0, 65, 74
2, 51957, Note_on_c, 0, 77, 78
2, 51958, Note_on_c, 0, 82, 91
2, 51959, Note_on_c, 0, 70, 80
2, 52013, Note_on_c, 0, 82, 0
2, 52013, Note_on_c, 0, 94, 0
2, 52013, Note_on_c, 0, 58, 0
2, 52013, Note_on_c, 0, 70, 0
2, 52013, Note_on_c, 0, 87, 0
2, 52013, Note_on_c, 0, 65, 0
2, 52013, Note_on_c, 0, 75, 0
2, 52015, Control_c, 0, 64, 0
2, 52015, Note_on_c, 0, 74, 0
2, 52017, Note_on_c, 0, 86, 0
2, 52024, Note_on_c, 0, 46, 0
2, 52024, Note_on_c, 0, 77, 0
2, 52081, Note_on_c, 0, 94, 94
2, 52083, Note_on_c, 0, 74, 79
2, 52083, Note_on_c, 0, 70, 79
2, 52085, Note_on_c, 0, 82, 84
2, 52086, Note_on_c, 0, 65, 64
2, 52087, Note_on_c, 0, 86, 81
2, 52118, Note_on_c, 0, 74, 0
2, 52119, Note_on_c, 0, 70, 0
2, 52120, Note_on_c, 0, 82, 0
2, 52121, Note_on_c, 0, 65, 0
2, 52154, Note_on_c, 0, 94, 0
2, 52177, Note_on_c, 0, 86, 0
2, 52377, Control_c, 0, 64, 127
2, 52469, Note_on_c, 0, 91, 108
2, 52470, Note_on_c, 0, 79, 101
2, 52473, Note_on_c, 0, 67, 94
2, 52482, Note_on_c, 0, 65, 70
2, 52550, Note_on_c, 0, 64, 65
2, 52586, Note_on_c, 0, 62, 80
2, 52616, Note_on_c, 0, 60, 75
2, 52647, Note_on_c, 0, 71, 74
2, 52649, Note_on_c, 0, 59, 75
2, 52682, Note_on_c, 0, 57, 82
2, 52697, Note_on_c, 0, 55, 75
2, 52729, Note_on_c, 0, 94, 107
2, 52730, Note_on_c, 0, 82, 109
2, 52754, Note_on_c, 0, 52, 81
2, 52763, Note_on_c, 0, 50, 69
2, 52934, Control_c, 0, 64, 0
2, 52935, Note_on_c, 0, 64, 0
2, 52935, Note_on_c, 0, 52, 0
2, 52935, Note_on_c, 0, 65, 0
2, 52936, Note_on_c, 0, 71, 0
2, 52936, Note_on_c, 0, 62, 0
2, 52936, Note_on_c, 0, 59, 0
2, 52936, Note_on_c, 0, 67, 0
2, 52936, Note_on_c, 0, 60, 0
2, 52937, Note_on_c, 0, 91, 0
2, 52937, Note_on_c, 0, 94, 0
2, 52937, Note_on_c, 0, 50, 0
2, 52937, Note_on_c, 0, 57, 0
2, 52937, Note_on_c, 0, 79, 0
2, 52937, Note_on_c, 0, 82, 0
2, 52937, Note_on_c, 0, 55, 0
2, 52973, Note_on_c, 0, 84, 104
2, 52974, Note_on_c, 0, 96, 110
2, 52974, Note_on_c, 0, 32, 100
2, 52974, Note_on_c, 0, 44, 103
2, 52979, Note_on_c, 0, 87, 103
2, 52979, Note_on_c, 0, 92, 103
2, 53007, Control_c, 0, 64, 127
2, 53125, Note_on_c, 0, 51, 68
2, 53222, Note_on_c, 0, 84, 0
2, 53222, Note_on_c, 0, 96, 0
2, 53230, Note_on_c, 0, 87, 0
2, 53230, Note_on_c, 0, 92, 0
2, 53233, Note_on_c, 0, 96, 104
2, 53233, Note_on_c, 0, 84, 103
2, 53234, Note_on_c, 0, 60, 78
2, 53234, Note_on_c, 0, 87, 97
2, 53239, Note_on_c, 0, 92, 85
2, 53345, Note_on_c, 0, 51, 0
2, 53355, Note_on_c, 0, 51, 65
2, 53475, Note_on_c, 0, 32, 0
2, 53475, Note_on_c, 0, 44, 0
2, 53475, Note_on_c, 0, 84, 0
2, 53475, Note_on_c, 0, 96, 0
2, 53484, Note_on_c, 0, 96, 97
2, 53484, Note_on_c, 0, 84, 98
2, 53486, Note_on_c, 0, 32, 85
2, 53486, Note_on_c, 0, 44, 86
2, 53606, Note_on_c, 0, 98, 103
2, 53611, Note_on_c, 0, 86, 97
2, 53713, Note_on_c, 0, 60, 0
2, 53713, Note_on_c, 0, 87, 0
2, 53717, Note_on_c, 0, 99, 104
2, 53718, Note_on_c, 0, 60, 83
2, 53724, Note_on_c, 0, 87, 104
2, 53725, Note_on_c, 0, 96, 0
2, 53806, Note_on_c, 0, 51, 0
2, 53816, Note_on_c, 0, 51, 88
2, 53829, Note_on_c, 0, 99, 0
2, 53837, Note_on_c, 0, 99, 109
2, 53844, Note_on_c, 0, 87, 0
2, 53852, Note_on_c, 0, 94, 90
2, 53853, Note_on_c, 0, 87, 107
2, 53858, Note_on_c, 0, 91, 84
2, 53879, Note_on_c, 0, 86, 0
2, 53880, Note_on_c, 0, 98, 0
2, 53881, Note_on_c, 0, 32, 0
2, 53882, Note_on_c, 0, 60, 0
2, 53883, Note_on_c, 0, 44, 0
2, 53883, Note_on_c, 0, 51, 0
2, 53883, Note_on_c, 0, 92, 0
2, 53883, Control_c, 0, 64, 0
2, 53884, Note_on_c, 0, 84, 0
2, 53957, Note_on_c, 0, 27, 90
2, 53957, Note_on_c, 0, 39, 86
2, 53967, Control_c, 0, 64, 127
2, 54097, Note_on_c, 0, 87, 0
2, 54097, Note_on_c, 0, 91, 0
2, 54097, Note_on_c, 0, 94, 0
2, 54102, Note_on_c, 0, 82, 99
2, 54104, Note_on_c, 0, 91, 71
2, 54104, Note_on_c, 0, 94, 100
2, 54107, Note_on_c, 0, 51, 68
2, 54109, Note_on_c, 0, 87, 83
2, 54220, Note_on_c, 0, 39, 0
2, 54220, Note_on_c, 0, 94, 0
2, 54226, Note_on_c, 0, 39, 76
2, 54228, Note_on_c, 0, 82, 0
2, 54228, Note_on_c, 0, 87, 0
2, 54228, Note_on_c, 0, 91, 0
2, 54230, Note_on_c, 0, 94, 109
2, 54232, Note_on_c, 0, 82, 107
2, 54232, Note_on_c, 0, 91, 93
2, 54234, Note_on_c, 0, 87, 90
2, 54336, Note_on_c, 0, 51, 0
2, 54342, Note_on_c, 0, 51, 67
2, 54466, Note_on_c, 0, 27, 0
2, 54466, Note_on_c, 0, 39, 0
2, 54466, Note_on_c, 0, 94, 0
2, 54470, Note_on_c, 0, 39, 79
2, 54471, Note_on_c, 0, 27, 85
2, 54474, Note_on_c, 0, 82, 0
2, 54474, Note_on_c, 0, 87, 0
2, 54474, Note_on_c, 0, 91, 0
2, 54477, Note_on_c, 0, 94, 105
2, 54478, Note_on_c, 0, 82, 94
2, 54483, Note_on_c, 0, 91, 79
2, 54484, Note_on_c, 0, 87, 91
2, 54589, Note_on_c, 0, 39, 0
2, 54597, Note_on_c, 0, 51, 0
2, 54597, Note_on_c, 0, 87, 0
2, 54600, Note_on_c, 0, 39, 82
2, 54601, Note_on_c, 0, 51, 80
2, 54601, Note_on_c, 0, 92, 96
2, 54606, Note_on_c, 0, 80, 88
2, 54607, Note_on_c, 0, 87, 78
2, 54712, Note_on_c, 0, 91, 0
2, 54717, Note_on_c, 0, 58, 89
2, 54717, Note_on_c, 0, 91, 106
2, 54723, Note_on_c, 0, 79, 100
2, 54846, Note_on_c, 0, 89, 105
2, 54848, Note_on_c, 0, 86, 96
2, 54849, Note_on_c, 0, 77, 102
2, 54850, Note_on_c, 0, 82, 0
2, 54855, Note_on_c, 0, 82, 97
2, 54865, Note_on_c, 0, 99, 0
2, 54871, Note_on_c, 0, 51, 0
2, 54871, Note_on_c, 0, 39, 0
2, 54874, Note_on_c, 0, 87, 0
2, 54874, Note_on_c, 0, 94, 0
2, 54875, Note_on_c, 0, 58, 0
2, 54875, Note_on_c, 0, 91, 0
2, 54876, Note_on_c, 0, 27, 0
2, 54876, Note_on_c, 0, 92, 0
2, 54877, Note_on_c, 0, 80, 0
2, 54877, Note_on_c, 0, 79, 0
2, 54891, Control_c, 0, 64, 0
2, 54927, Control_c, 0, 64, 127
2, 54954, Note_on_c, 0, 34, 86
2, 54955, Note_on_c, 0, 46, 94
2, 55096, Note_on_c, 0, 77, 0
2, 55096, Note_on_c, 0, 89, 0
2, 55102, Note_on_c, 0, 50, 56
2, 55104, Note_on_c, 0, 77, 85
2, 55105, Note_on_c, 0, 89, 93
2, 55127, Note_on_c, 0, 50, 0
2, 55134, Note_on_c, 0, 50, 43
2, 55219, Note_on_c, 0, 46, 0
2, 55219, Note_on_c, 0, 89, 0
2, 55223, Note_on_c, 0, 58, 90
2, 55226, Note_on_c, 0, 77, 0
2, 55226, Note_on_c, 0, 82, 0
2, 55226, Note_on_c, 0, 86, 0
2, 55228, Note_on_c, 0, 46, 81
2, 55229, Note_on_c, 0, 89, 96
2, 55232, Note_on_c, 0, 77, 96
2, 55235, Note_on_c, 0, 86, 92
2, 55236, Note_on_c, 0, 82, 94
2, 55349, Note_on_c, 0, 50, 0
2, 55354, Note_on_c, 0, 50, 71
2, 55480, Note_on_c, 0, 46, 0
2, 55480, Note_on_c, 0, 77, 0
2, 55480, Note_on_c, 0, 89, 0
2, 55484, Note_on_c, 0, 34, 0
2, 55485, Note_on_c, 0, 89, 98
2, 55488, Note_on_c, 0, 58, 0
2, 55488, Note_on_c, 0, 86, 0
2, 55490, Note_on_c, 0, 77, 89
2, 55490, Note_on_c, 0, 46, 81
2, 55492, Note_on_c, 0, 58, 71
2, 55497, Note_on_c, 0, 86, 61
2, 55606, Note_on_c, 0, 91, 103
2, 55606, Note_on_c, 0, 79, 95
2, 55710, Note_on_c, 0, 58, 0
2, 55718, Note_on_c, 0, 46, 0
2, 55720, Note_on_c, 0, 58, 79
2, 55723, Note_on_c, 0, 92, 99
2, 55726, Note_on_c, 0, 46, 71
2, 55729, Note_on_c, 0, 53, 70
2, 55730, Note_on_c, 0, 80, 93
2, 55746, Note_on_c, 0, 81, 70
2, 55841, Note_on_c, 0, 92, 0
2, 55848, Note_on_c, 0, 80, 0
2, 55851, Note_on_c, 0, 92, 109
2, 55853, Note_on_c, 0, 80, 105
2, 55858, Note_on_c, 0, 84, 89
2, 55866, Note_on_c, 0, 87, 90
2, 55868, Note_on_c, 0, 86, 0
2, 55870, Note_on_c, 0, 91, 0
2, 55872, Note_on_c, 0, 79, 0
2, 55873, Note_on_c, 0, 89, 0
2, 55876, Note_on_c, 0, 77, 0
2, 55878, Note_on_c, 0, 82, 0
2, 55879, Note_on_c, 0, 81, 0
2, 55881, Note_on_c, 0, 46, 0
2, 55890, Note_on_c, 0, 58, 0
2, 55891, Control_c, 0, 64, 0
2, 55898, Note_on_c, 0, 53, 0
2, 55902, Note_on_c, 0, 50, 0
2, 55969, Note_on_c, 0, 48, 96
2, 55970, Note_on_c, 0, 36, 87
2, 55971, Control_c, 0, 64, 127
2, 56100, Note_on_c, 0, 91, 98
2, 56104, Note_on_c, 0, 79, 93
2, 56110, Note_on_c, 0, 48, 0
2, 56115, Note_on_c, 0, 48, 68
2, 56119, Note_on_c, 0, 51, 70
2, 56225, Note_on_c, 0, 79, 0
2, 56225, Note_on_c, 0, 84, 0
2, 56225, Note_on_c, 0, 91, 0
2, 56232, Note_on_c, 0, 48, 0
2, 56232, Note_on_c, 0, 87, 0
2, 56234, Note_on_c, 0, 91, 109
2, 56236, Note_on_c, 0, 43, 69
2, 56236, Note_on_c, 0, 84, 96
2, 56236, Note_on_c, 0, 79, 102
2, 56237, Note_on_c, 0, 87, 84
2, 56238, Note_on_c, 0, 55, 67
2, 56242, Note_on_c, 0, 48, 82
2, 56248, Note_on_c, 0, 55, 0
2, 56348, Note_on_c, 0, 51, 0
2, 56358, Note_on_c, 0, 51, 70
2, 56455, Note_on_c, 0, 51, 0
2, 56462, Note_on_c, 0, 51, 57
2, 56471, Note_on_c, 0, 48, 0
2, 56482, Note_on_c, 0, 48, 78
2, 56601, Note_on_c, 0, 51, 0
2, 56601, Note_on_c, 0, 87, 0
2, 56606, Note_on_c, 0, 51, 71
2, 56606, Note_on_c, 0, 75, 93
2, 56607, Note_on_c, 0, 87, 98
2, 56716, Note_on_c, 0, 80, 0
2, 56716, Note_on_c, 0, 92, 0
2, 56722, Note_on_c, 0, 92, 105
2, 56724, Note_on_c, 0, 36, 0
2, 56724, Note_on_c, 0, 48, 0
2, 56728, Note_on_c, 0, 80, 100
2, 56729, Note_on_c, 0, 36, 78
2, 56734, Note_on_c, 0, 48, 78
2, 56808, Note_on_c, 0, 51, 0
2, 56818, Note_on_c, 0, 51, 81
2, 56850, Note_on_c, 0, 94, 100
2, 56860, Note_on_c, 0, 82, 81
2, 56918, Note_on_c, 0, 36, 0
2, 56918, Note_on_c, 0, 92, 0
2, 56919, Note_on_c, 0, 79, 0
2, 56919, Note_on_c, 0, 91, 0
2, 56919, Note_on_c, 0, 94, 0
2, 56920, Note_on_c, 0, 51, 0
2, 56920, Note_on_c, 0, 82, 0
2, 56920, Note_on_c, 0, 87, 0
2, 56920, Note_on_c, 0, 75, 0
2, 56923, Control_c, 0, 64, 0
2, 56931, Note_on_c, 0, 43, 0
2, 56931, Note_on_c, 0, 80, 0
2, 56931, Note_on_c, 0, 84, 0
2, 56939, Note_on_c, 0, 48, 0
2, 56974, Note_on_c, 0, 96, 106
2, 56974, Note_on_c, 0, 84, 105
2, 56975, Note_on_c, 0, 32, 94
2, 56975, Note_on_c, 0, 44, 95
2, 56976, Note_on_c, 0, 87, 99
2, 56981, Note_on_c, 0, 92, 97
2, 57016, Control_c, 0, 64, 127
2, 57108, Note_on_c, 0, 44, 0
2, 57113, Note_on_c, 0, 44, 78
2, 57118, Note_on_c, 0, 51, 69
2, 57223, Note_on_c, 0, 84, 0
2, 57223, Note_on_c, 0, 96, 0
2, 57231, Note_on_c, 0, 87, 0
2, 57231, Note_on_c, 0, 92, 0
2, 57233, Note_on_c, 0, 60, 83
2, 57234, Note_on_c, 0, 96, 107
2, 57235, Note_on_c, 0, 84, 107
2, 57236, Note_on_c, 0, 87, 103
2, 57242, Note_on_c, 0, 92, 89
2, 57338, Note_on_c, 0, 51, 0
2, 57347, Note_on_c, 0, 51, 81
2, 57469, Note_on_c, 0, 44, 0
2, 57469, Note_on_c, 0, 84, 0
2, 57469, Note_on_c, 0, 96, 0
2, 57477, Note_on_c, 0, 32, 0
2, 57478, Note_on_c, 0, 96, 97
2, 57478, Note_on_c, 0, 44, 90
2, 57479, Note_on_c, 0, 84, 96
2, 57481, Note_on_c, 0, 32, 80
2, 57600, Note_on_c, 0, 98, 104
2, 57603, Note_on_c, 0, 86, 95
2, 57707, Note_on_c, 0, 60, 0
2, 57711, Note_on_c, 0, 99, 100
2, 57713, Note_on_c, 0, 60, 88
2, 57715, Note_on_c, 0, 87, 0
2, 57721, Note_on_c, 0, 87, 95
2, 57726, Note_on_c, 0, 56, 77
2, 57799, Note_on_c, 0, 51, 0
2, 57805, Note_on_c, 0, 51, 88
2, 57830, Note_on_c, 0, 99, 0
2, 57841, Note_on_c, 0, 99, 110
2, 57845, Note_on_c, 0, 87, 0
2, 57855, Note_on_c, 0, 87, 107
2, 57859, Note_on_c, 0, 91, 86
2, 57859, Note_on_c, 0, 84, 0
2, 57860, Note_on_c, 0, 86, 0
2, 57861, Note_on_c, 0, 44, 0
2, 57862, Note_on_c, 0, 98, 0
2, 57863, Note_on_c, 0, 92, 0
2, 57863, Note_on_c, 0, 96, 0
2, 57865, Note_on_c, 0, 32, 0
2, 57868, Control_c, 0, 64, 0
2, 57876, Note_on_c, 0, 56, 0
2, 57876, Note_on_c, 0, 60, 0
2, 57937, Note_on_c, 0, 51, 0
2, 57945, Control_c, 0, 64, 127
2, 57950, Note_on_c, 0, 39, 90
2, 57950, Note_on_c, 0, 27, 93
2, 58083, Note_on_c, 0, 39, 0
2, 58091, Note_on_c, 0, 91, 0
2, 58094, Note_on_c, 0, 39, 78
2, 58095, Note_on_c, 0, 51, 85
2, 58096, Note_on_c, 0, 94, 97
2, 58097, Note_on_c, 0, 82, 99
2, 58099, Note_on_c, 0, 87, 0
2, 58101, Note_on_c, 0, 91, 75
2, 58103, Note_on_c, 0, 87, 80
2, 58214, Note_on_c, 0, 51, 0
2, 58214, Note_on_c, 0, 82, 0
2, 58214, Note_on_c, 0, 91, 0
2, 58214, Note_on_c, 0, 94, 0
2, 58218, Note_on_c, 0, 94, 108
2, 58219, Note_on_c, 0, 82, 110
2, 58222, Note_on_c, 0, 87, 0
2, 58223, Note_on_c, 0, 91, 98
2, 58224, Note_on_c, 0, 58, 83
2, 58225, Note_on_c, 0, 51, 66
2, 58227, Note_on_c, 0, 87, 94
2, 58460, Note_on_c, 0, 27, 0
2, 58460, Note_on_c, 0, 39, 0
2, 58464, Note_on_c, 0, 39, 74
2, 58465, Note_on_c, 0, 27, 83
2, 58467, Note_on_c, 0, 82, 0
2, 58467, Note_on_c, 0, 94, 0
2, 58475, Note_on_c, 0, 87, 0
2, 58477, Note_on_c, 0, 94, 103
2, 58478, Note_on_c, 0, 82, 96
2, 58484, Note_on_c, 0, 87, 84
2, 58590, Note_on_c, 0, 51, 0
2, 58596, Note_on_c, 0, 51, 89
2, 58602, Note_on_c, 0, 92, 95
2, 58604, Note_on_c, 0, 80, 88
2, 58713, Note_on_c, 0, 91, 0
2, 58718, Note_on_c, 0, 91, 107
2, 58721, Note_on_c, 0, 79, 100
2, 58836, Note_on_c, 0, 79, 0
2, 58836, Note_on_c, 0, 91, 0
2, 58844, Note_on_c, 0, 82, 0
2, 58846, Note_on_c, 0, 79, 99
2, 58846, Note_on_c, 0, 86, 97
2, 58846, Note_on_c, 0, 91, 104
2, 58849, Note_on_c, 0, 82, 98
2, 58851, Note_on_c, 0, 99, 0
2, 58894, Control_c, 0, 64, 0
2, 58905, Control_c, 0, 64, 127
2, 58964, Note_on_c, 0, 34, 83
2, 58967, Note_on_c, 0, 46, 88
2, 59097, Note_on_c, 0, 58, 0
2, 59099, Note_on_c, 0, 89, 94
2, 59101, Note_on_c, 0, 77, 92
2, 59108, Note_on_c, 0, 58, 85
2, 59212, Note_on_c, 0, 77, 0
2, 59212, Note_on_c, 0, 86, 0
2, 59212, Note_on_c, 0, 89, 0
2, 59217, Note_on_c, 0, 89, 103
2, 59220, Note_on_c, 0, 34, 0
2, 59220, Note_on_c, 0, 82, 0
2, 59223, Note_on_c, 0, 77, 97
2, 59223, Note_on_c, 0, 86, 97
2, 59225, Note_on_c, 0, 82, 97
2, 59229, Note_on_c, 0, 34, 75
2, 59351, Note_on_c, 0, 46, 0
2, 59356, Note_on_c, 0, 46, 76
2, 59481, Note_on_c, 0, 46, 0
2, 59481, Note_on_c, 0, 58, 0
2, 59485, Note_on_c, 0, 46, 72
2, 59492, Note_on_c, 0, 58, 83
2, 59603, Note_on_c, 0, 53, 77
2, 59704, Note_on_c, 0, 27, 0
2, 59708, Note_on_c, 0, 87, 0
2, 59709, Note_on_c, 0, 51, 0
2, 59709, Note_on_c, 0, 80, 0
2, 59709, Note_on_c, 0, 53, 0
2, 59709, Note_on_c, 0, 92, 0
2, 59709, Note_on_c, 0, 39, 0
2, 59709, Note_on_c, 0, 91, 0
2, 59709, Note_on_c, 0, 79, 0
2, 59709, Note_on_c, 0, 82, 0
2, 59710, Note_on_c, 0, 89, 0
2, 59711, Note_on_c, 0, 77, 0
2, 59713, Control_c, 0, 64, 0
2, 59727, Note_on_c, 0, 34, 0
2, 59727, Note_on_c, 0, 46, 0
2, 59727, Note_on_c, 0, 86, 0
2, 59727, Note_on_c, 0, 94, 0
2, 59732, Note_on_c, 0, 34, 90
2, 59736, Note_on_c, 0, 46, 88
2, 59737, Note_on_c, 0, 99, 97
2, 59742, Note_on_c, 0, 58, 0
2, 59747, Note_on_c, 0, 87, 75
2, 59773, Control_c, 0, 64, 127
2, 59813, Note_on_c, 0, 98, 89
2, 59827, Note_on_c, 0, 87, 0
2, 59855, Note_on_c, 0, 94, 81
2, 59869, Note_on_c, 0, 70, 83
2, 59873, Note_on_c, 0, 70, 0
2, 59889, Note_on_c, 0, 58, 81
2, 59899, Note_on_c, 0, 89, 75
2, 59978, Note_on_c, 0, 87, 76
2, 59987, Note_on_c, 0, 53, 77
2, 60033, Note_on_c, 0, 86, 88
2, 60103, Note_on_c, 0, 46, 0
2, 60107, Note_on_c, 0, 46, 83
2, 60144, Note_on_c, 0, 77, 78
2, 60226, Note_on_c, 0, 58, 0
2, 60231, Note_on_c, 0, 75, 82
2, 60232, Note_on_c, 0, 58, 82
2, 60279, Note_on_c, 0, 74, 79
2, 60341, Note_on_c, 0, 53, 0
2, 60345, Note_on_c, 0, 53, 81
2, 60359, Note_on_c, 0, 70, 86
2, 60364, Note_on_c, 0, 77, 0
2, 60371, Note_on_c, 0, 77, 67
2, 60487, Note_on_c, 0, 79, 104
2, 60487, Note_on_c, 0, 58, 0
2, 60490, Note_on_c, 0, 67, 98
2, 60492, Note_on_c, 0, 58, 63
2, 60564, Note_on_c, 0, 67, 0
2, 60564, Note_on_c, 0, 77, 0
2, 60566, Note_on_c, 0, 76, 72
2, 60568, Note_on_c, 0, 77, 77
2, 60570, Note_on_c, 0, 64, 71
2, 60572, Note_on_c, 0, 65, 81
2, 60575, Note_on_c, 0, 67, 78
2, 60604, Note_on_c, 0, 62, 72
2, 60652, Note_on_c, 0, 60, 78
2, 60680, Note_on_c, 0, 59, 72
2, 60708, Note_on_c, 0, 57, 78
2, 60733, Note_on_c, 0, 70, 0
2, 60738, Note_on_c, 0, 82, 108
2, 60741, Note_on_c, 0, 53, 0
2, 60744, Note_on_c, 0, 70, 102
2, 60748, Note_on_c, 0, 75, 0
2, 60750, Note_on_c, 0, 53, 88
2, 60753, Note_on_c, 0, 75, 72
2, 60760, Note_on_c, 0, 58, 0
2, 60769, Note_on_c, 0, 80, 70
2, 60778, Note_on_c, 0, 52, 84
2, 60813, Note_on_c, 0, 50, 71
2, 60954, Control_c, 0, 64, 0
2, 60958, Note_on_c, 0, 52, 0
2, 60958, Note_on_c, 0, 62, 0
2, 60958, Note_on_c, 0, 67, 0
2, 60958, Note_on_c, 0, 64, 0
2, 60958, Note_on_c, 0, 86, 0
2, 60958, Note_on_c, 0, 65, 0
2, 60958, Note_on_c, 0, 59, 0
2, 60958, Note_on_c, 0, 77, 0
2, 60958, Note_on_c, 0, 74, 0
2, 60958, Note_on_c, 0, 75, 0
2, 60959, Note_on_c, 0, 53, 0
2, 60959, Note_on_c, 0, 70, 0
2, 60959, Note_on_c, 0, 99, 0
2, 60959, Note_on_c, 0, 79, 0
2, 60959, Note_on_c, 0, 57, 0
2, 60959, Note_on_c, 0, 87, 0
2, 60959, Note_on_c, 0, 60, 0
2, 60959, Note_on_c, 0, 50, 0
2, 60959, Note_on_c, 0, 82, 0
2, 60959, Note_on_c, 0, 89, 0
2, 60963, Note_on_c, 0, 34, 0
2, 60963, Note_on_c, 0, 98, 0
2, 60971, Note_on_c, 0, 46, 0
2, 60971, Note_on_c, 0, 76, 0
2, 60971, Note_on_c, 0, 94, 0
2, 60986, Note_on_c, 0, 80, 0
2, 60991, Note_on_c, 0, 32, 97
2, 60991, Note_on_c, 0, 84, 102
2, 60992, Note_on_c, 0, 44, 99
2, 60996, Note_on_c, 0, 80, 99
2, 60997, Note_on_c, 0, 75, 97
2, 60997, Note_on_c, 0, 87, 94
2, 61048, Control_c, 0, 64, 127
2, 61240, Note_on_c, 0, 84, 0
2, 61247, Note_on_c, 0, 84, 103
2, 61248, Note_on_c, 0, 75, 0
2, 61248, Note_on_c, 0, 80, 0
2, 61252, Note_on_c, 0, 75, 95
2, 61253, Note_on_c, 0, 80, 87
2, 61253, Note_on_c, 0, 60, 82
2, 61256, Note_on_c, 0, 56, 76
2, 61367, Note_on_c, 0, 72, 79
2, 61486, Note_on_c, 0, 84, 0
2, 61493, Note_on_c, 0, 32, 0
2, 61493, Note_on_c, 0, 44, 0
2, 61493, Note_on_c, 0, 75, 0
2, 61493, Note_on_c, 0, 80, 0
2, 61496, Note_on_c, 0, 84, 97
2, 61497, Note_on_c, 0, 80, 94
2, 61498, Note_on_c, 0, 75, 99
2, 61500, Note_on_c, 0, 32, 88
2, 61504, Note_on_c, 0, 44, 92
2, 61614, Note_on_c, 0, 86, 99
2, 61627, Note_on_c, 0, 74, 81
2, 61632, Note_on_c, 0, 56, 0
2, 61632, Note_on_c, 0, 51, 58
2, 61635, Note_on_c, 0, 56, 53
2, 61641, Note_on_c, 0, 76, 63
2, 61731, Note_on_c, 0, 60, 0
2, 61739, Note_on_c, 0, 56, 0
2, 61739, Note_on_c, 0, 75, 0
2, 61739, Note_on_c, 0, 87, 0
2, 61742, Note_on_c, 0, 60, 86
2, 61744, Note_on_c, 0, 75, 91
2, 61745, Note_on_c, 0, 87, 100
2, 61748, Note_on_c, 0, 56, 72
2, 61824, Note_on_c, 0, 51, 0
2, 61829, Note_on_c, 0, 51, 80
2, 61862, Note_on_c, 0, 87, 0
2, 61866, Note_on_c, 0, 87, 103
2, 61870, Note_on_c, 0, 75, 0
2, 61873, Note_on_c, 0, 82, 99
2, 61875, Note_on_c, 0, 75, 102
2, 61878, Note_on_c, 0, 79, 97
2, 61900, Note_on_c, 0, 76, 0
2, 61904, Note_on_c, 0, 80, 0
2, 61904, Note_on_c, 0, 84, 0
2, 61905, Control_c, 0, 64, 0
2, 61905, Note_on_c, 0, 72, 0
2, 61905, Note_on_c, 0, 56, 0
2, 61905, Note_on_c, 0, 32, 0
2, 61906, Note_on_c, 0, 51, 0
2, 61906, Note_on_c, 0, 86, 0
2, 61907, Note_on_c, 0, 74, 0
2, 61908, Note_on_c, 0, 60, 0
2, 61916, Note_on_c, 0, 44, 0
2, 61984, Note_on_c, 0, 39, 84
2, 61985, Control_c, 0, 64, 127
2, 61986, Note_on_c, 0, 27, 85
2, 62116, Note_on_c, 0, 70, 85
2, 62124, Note_on_c, 0, 51, 72
2, 62142, Note_on_c, 0, 44, 56
2, 62146, Note_on_c, 0, 44, 0
2, 62231, Note_on_c, 0, 82, 0
2, 62238, Note_on_c, 0, 75, 0
2, 62238, Note_on_c, 0, 79, 0
2, 62240, Note_on_c, 0, 82, 102
2, 62242, Note_on_c, 0, 79, 92
2, 62243, Note_on_c, 0, 75, 93
2, 62249, Note_on_c, 0, 58, 83
2, 62361, Note_on_c, 0, 63, 54
2, 62361, Note_on_c, 0, 51, 0
2, 62361, Note_on_c, 0, 70, 0
2, 62366, Note_on_c, 0, 70, 83
2, 62370, Note_on_c, 0, 51, 70
2, 62484, Note_on_c, 0, 39, 0
2, 62484, Note_on_c, 0, 82, 0
2, 62492, Note_on_c, 0, 75, 0
2, 62492, Note_on_c, 0, 79, 0
2, 62494, Note_on_c, 0, 82, 101
2, 62494, Note_on_c, 0, 39, 88
2, 62496, Note_on_c, 0, 79, 80
2, 62498, Note_on_c, 0, 75, 94
2, 62607, Note_on_c, 0, 51, 0
2, 62618, Note_on_c, 0, 51, 88
2, 62618, Note_on_c, 0, 80, 92
2, 62623, Note_on_c, 0, 68, 88
2, 62730, Note_on_c, 0, 58, 0
2, 62730, Note_on_c, 0, 70, 0
2, 62730, Note_on_c, 0, 79, 0
2, 62739, Note_on_c, 0, 79, 101
2, 62740, Note_on_c, 0, 70, 84
2, 62741, Note_on_c, 0, 58, 85
2, 62741, Note_on_c, 0, 67, 95
2, 62814, Note_on_c, 0, 51, 0
2, 62824, Note_on_c, 0, 51, 75
2, 62857, Note_on_c, 0, 77, 104
2, 62860, Note_on_c, 0, 70, 0
2, 62865, Note_on_c, 0, 74, 90
2, 62865, Note_on_c, 0, 65, 97
2, 62870, Note_on_c, 0, 70, 88
2, 62906, Note_on_c, 0, 87, 0
2, 62910, Note_on_c, 0, 82, 0
2, 62910, Note_on_c, 0, 63, 0
2, 62910, Note_on_c, 0, 80, 0
2, 62910, Note_on_c, 0, 75, 0
2, 62911, Note_on_c, 0, 39, 0
2, 62911, Note_on_c, 0, 67, 0
2, 62911, Note_on_c, 0, 79, 0
2, 62911, Note_on_c, 0, 68, 0
2, 62911, Note_on_c, 0, 58, 0
2, 62915, Control_c, 0, 64, 0
2, 62929, Note_on_c, 0, 51, 0
2, 62937, Note_on_c, 0, 27, 0
2, 62980, Note_on_c, 0, 34, 92
2, 62981, Note_on_c, 0, 46, 95
2, 63006, Control_c, 0, 64, 127
2, 63129, Note_on_c, 0, 46, 0
2, 63135, Note_on_c, 0, 46, 68
2, 63237, Note_on_c, 0, 77, 0
2, 63246, Note_on_c, 0, 77, 98
2, 63250, Note_on_c, 0, 58, 92
2, 63252, Note_on_c, 0, 46, 0
2, 63256, Note_on_c, 0, 68, 69
2, 63257, Note_on_c, 0, 46, 82
2, 63261, Note_on_c, 0, 69, 77
2, 63263, Note_on_c, 0, 50, 77
2, 63266, Note_on_c, 0, 53, 70
2, 63458, Note_on_c, 0, 50, 0
2, 63459, Note_on_c, 0, 65, 0
2, 63460, Note_on_c, 0, 34, 0
2, 63460, Control_c, 0, 64, 0
2, 63460, Note_on_c, 0, 46, 0
2, 63460, Note_on_c, 0, 58, 0
2, 63467, Note_on_c, 0, 53, 0
2, 63467, Note_on_c, 0, 68, 0
2, 63475, Note_on_c, 0, 69, 0
2, 63475, Note_on_c, 0, 70, 0
2, 63482, Note_on_c, 0, 77, 0
2, 63490, Note_on_c, 0, 74, 0
2, 63494, Note_on_c, 0, 80, 103
2, 63496, Note_on_c, 0, 74, 92
2, 63497, Note_on_c, 0, 47, 98
2, 63500, Note_on_c, 0, 35, 85
2, 63500, Note_on_c, 0, 71, 90
2, 63502, Note_on_c, 0, 77, 78
2, 63508, Note_on_c, 0, 78, 76
2, 63536, Control_c, 0, 64, 127
2, 63621, Note_on_c, 0, 47, 0
2, 63623, Note_on_c, 0, 67, 67
2, 63630, Note_on_c, 0, 47, 80
2, 63736, Note_on_c, 0, 47, 0
2, 63736, Note_on_c, 0, 67, 0
2, 63736, Note_on_c, 0, 71, 0
2, 63740, Note_on_c, 0, 59, 90
2, 63742, Note_on_c, 0, 79, 97
2, 63743, Note_on_c, 0, 47, 90
2, 63744, Note_on_c, 0, 71, 84
2, 63747, Note_on_c, 0, 67, 80
2, 63752, Note_on_c, 0, 69, 68
2, 63836, Note_on_c, 0, 47, 0
2, 63847, Note_on_c, 0, 47, 79
2, 63961, Note_on_c, 0, 74, 0
2, 63961, Note_on_c, 0, 71, 0
2, 63962, Note_on_c, 0, 80, 0
2, 63962, Note_on_c, 0, 47, 0
2, 63962, Note_on_c, 0, 67, 0
2, 63962, Note_on_c, 0, 79, 0
2, 63962, Note_on_c, 0, 59, 0
2, 63963, Control_c, 0, 64, 0
2, 63974, Note_on_c, 0, 35, 0
2, 63982, Note_on_c, 0, 69, 0
2, 63982, Note_on_c, 0, 77, 0
2, 63989, Note_on_c, 0, 78, 0
2, 63993, Note_on_c, 0, 77, 104
2, 63996, Note_on_c, 0, 48, 96
2, 63999, Note_on_c, 0, 36, 86
2, 64000, Note_on_c, 0, 75, 89
2, 64001, Note_on_c, 0, 72, 82
2, 64028, Control_c, 0, 64, 127
2, 64128, Note_on_c, 0, 48, 0
2, 64135, Note_on_c, 0, 48, 90
2, 64243, Note_on_c, 0, 72, 0
2, 64247, Note_on_c, 0, 60, 87
2, 64252, Note_on_c, 0, 72, 84
2, 64253, Note_on_c, 0, 51, 73
2, 64253, Note_on_c, 0, 79, 102
2, 64254, Note_on_c, 0, 67, 80
2, 64258, Note_on_c, 0, 75, 0
2, 64269, Note_on_c, 0, 75, 64
2, 64327, Note_on_c, 0, 48, 0
2, 64337, Note_on_c, 0, 48, 89
2, 64366, Note_on_c, 0, 67, 0
2, 64370, Note_on_c, 0, 67, 79
2, 64456, Note_on_c, 0, 51, 0
2, 64456, Note_on_c, 0, 72, 0
2, 64456, Note_on_c, 0, 75, 0
2, 64457, Note_on_c, 0, 48, 0
2, 64457, Note_on_c, 0, 67, 0
2, 64457, Note_on_c, 0, 79, 0
2, 64458, Note_on_c, 0, 60, 0
2, 64461, Control_c, 0, 64, 0
2, 64481, Note_on_c, 0, 36, 0
2, 64488, Note_on_c, 0, 77, 0
2, 64494, Note_on_c, 0, 77, 100
2, 64498, Note_on_c, 0, 46, 90
2, 64500, Note_on_c, 0, 74, 90
2, 64500, Note_on_c, 0, 34, 82
2, 64501, Note_on_c, 0, 70, 90
2, 64526, Note_on_c, 0, 34, 0
2, 64527, Control_c, 0, 64, 127
2, 64619, Note_on_c, 0, 46, 0
2, 64623, Note_on_c, 0, 46, 78
2, 64624, Note_on_c, 0, 67, 83
2, 64749, Note_on_c, 0, 75, 104
2, 64750, Note_on_c, 0, 70, 0
2, 64753, Note_on_c, 0, 51, 77
2, 64754, Note_on_c, 0, 58, 94
2, 64755, Note_on_c, 0, 73, 85
2, 64758, Note_on_c, 0, 70, 84
2, 64842, Note_on_c, 0, 46, 0
2, 64849, Note_on_c, 0, 46, 76
2, 64946, Control_c, 0, 64, 0
2, 64947, Note_on_c, 0, 51, 0
2, 64947, Note_on_c, 0, 67, 0
2, 64948, Note_on_c, 0, 46, 0
2, 64948, Note_on_c, 0, 70, 0
2, 64948, Note_on_c, 0, 58, 0
2, 64948, Note_on_c, 0, 75, 0
2, 64948, Note_on_c, 0, 77, 0
2, 64949, Note_on_c, 0, 74, 0
2, 64972, Note_on_c, 0, 73, 0
2, 64999, Note_on_c, 0, 84, 105
2, 64999, Note_on_c, 0, 81, 102
2, 65000, Note_on_c, 0, 33, 87
2, 65001, Note_on_c, 0, 72, 98
2, 65004, Note_on_c, 0, 77, 92
2, 65006, Note_on_c, 0, 45, 89
2, 65026, Control_c, 0, 64, 127
2, 65138, Note_on_c, 0, 48, 84
2, 65253, Note_on_c, 0, 53, 76
2, 65364, Note_on_c, 0, 53, 0
2, 65372, Note_on_c, 0, 72, 0
2, 65373, Note_on_c, 0, 53, 82
2, 65376, Note_on_c, 0, 72, 91
2, 65378, Note_on_c, 0, 69, 77
2, 65379, Note_on_c, 0, 65, 77
2, 65380, Note_on_c, 0, 57, 81
2, 65500, Note_on_c, 0, 60, 79
2, 65617, Note_on_c, 0, 65, 0
2, 65627, Note_on_c, 0, 65, 71
2, 65679, Note_on_c, 0, 60, 0
2, 65688, Note_on_c, 0, 60, 59
2, 65740, Note_on_c, 0, 69, 0
2, 65748, Note_on_c, 0, 69, 73
2, 65863, Note_on_c, 0, 60, 0
2, 65863, Note_on_c, 0, 72, 0
2, 65868, Note_on_c, 0, 72, 74
2, 65870, Note_on_c, 0, 60, 63
2, 66001, Note_on_c, 0, 77, 0
2, 66001, Note_on_c, 0, 84, 0
2, 66012, Note_on_c, 0, 84, 87
2, 66013, Note_on_c, 0, 77, 70
2, 66014, Note_on_c, 0, 87, 85
2, 66143, Note_on_c, 0, 89, 87
2, 66255, Note_on_c, 0, 81, 0
2, 66260, Note_on_c, 0, 91, 98
2, 66266, Note_on_c, 0, 81, 70
2, 66278, Note_on_c, 0, 69, 0
2, 66288, Note_on_c, 0, 69, 58
2, 66391, Note_on_c, 0, 96, 95
2, 66393, Note_on_c, 0, 65, 0
2, 66393, Note_on_c, 0, 84, 0
2, 66393, Note_on_c, 0, 87, 0
2, 66397, Note_on_c, 0, 65, 70
2, 66398, Note_on_c, 0, 84, 86
2, 66403, Note_on_c, 0, 87, 85
2, 66631, Note_on_c, 0, 91, 0
2, 66642, Note_on_c, 0, 91, 94
2, 66657, Note_on_c, 0, 67, 78
2, 66754, Note_on_c, 0, 69, 0
2, 66754, Note_on_c, 0, 89, 0
2, 66761, Note_on_c, 0, 89, 93
2, 66763, Note_on_c, 0, 69, 76
2, 66877, Note_on_c, 0, 84, 0
2, 66887, Note_on_c, 0, 86, 83
2, 66888, Control_c, 0, 64, 0
2, 66888, Note_on_c, 0, 84, 81
2, 66900, Note_on_c, 0, 33, 0
2, 66904, Note_on_c, 0, 96, 0
2, 66906, Note_on_c, 0, 60, 0
2, 66906, Note_on_c, 0, 48, 0
2, 66906, Note_on_c, 0, 57, 0
2, 66907, Note_on_c, 0, 69, 0
2, 66909, Note_on_c, 0, 65, 0
2, 66909, Note_on_c, 0, 53, 0
2, 66910, Note_on_c, 0, 77, 0
2, 66911, Note_on_c, 0, 89, 0
2, 66911, Note_on_c, 0, 67, 0
2, 66912, Note_on_c, 0, 91, 0
2, 66913, Note_on_c, 0, 87, 0
2, 66915, Note_on_c, 0, 81, 0
2, 66923, Note_on_c, 0, 45, 0
2, 66923, Note_on_c, 0, 72, 0
2, 66938, Note_on_c, 0, 84, 0
2, 66938, Note_on_c, 0, 86, 0
2, 66992, Control_c, 0, 64, 127
2, 66996, Note_on_c, 0, 80, 94
2, 66996, Note_on_c, 0, 87, 102
2, 67003, Note_on_c, 0, 53, 90
2, 67007, Note_on_c, 0, 75, 89
2, 67007, Note_on_c, 0, 41, 84
2, 67125, Note_on_c, 0, 48, 78
2, 67127, Note_on_c, 0, 86, 96
2, 67131, Note_on_c, 0, 74, 84
2, 67186, Note_on_c, 0, 74, 0
2, 67186, Note_on_c, 0, 53, 0
2, 67186, Note_on_c, 0, 80, 0
2, 67187, Note_on_c, 0, 75, 0
2, 67188, Note_on_c, 0, 41, 0
2, 67188, Note_on_c, 0, 87, 0
2, 67188, Note_on_c, 0, 86, 0
2, 67190, Control_c, 0, 64, 0
2, 67248, Note_on_c, 0, 87, 90
2, 67250, Note_on_c, 0, 56, 69
2, 67251, Note_on_c, 0, 75, 77
2, 67252, Note_on_c, 0, 53, 69
2, 67256, Note_on_c, 0, 41, 63
2, 67274, Note_on_c, 0, 56, 0
2, 67280, Note_on_c, 0, 87, 0
2, 67280, Note_on_c, 0, 75, 0
2, 67284, Note_on_c, 0, 41, 0
2, 67292, Note_on_c, 0, 48, 0
2, 67299, Note_on_c, 0, 53, 0
2, 67370, Note_on_c, 0, 82, 103
2, 67372, Note_on_c, 0, 75, 89
2, 67376, Note_on_c, 0, 70, 88
2, 67379, Note_on_c, 0, 43, 89
2, 67380, Note_on_c, 0, 67, 78
2, 67381, Note_on_c, 0, 55, 87
2, 67392, Control_c, 0, 64, 127
2, 67630, Note_on_c, 0, 75, 0
2, 67634, Note_on_c, 0, 51, 80
2, 67636, Note_on_c, 0, 75, 92
2, 67637, Note_on_c, 0, 63, 84
2, 67715, Note_on_c, 0, 82, 0
2, 67715, Note_on_c, 0, 51, 0
2, 67715, Note_on_c, 0, 55, 0
2, 67716, Note_on_c, 0, 70, 0
2, 67716, Note_on_c, 0, 63, 0
2, 67716, Note_on_c, 0, 75, 0
2, 67716, Note_on_c, 0, 43, 0
2, 67718, Control_c, 0, 64, 0
2, 67729, Note_on_c, 0, 67, 0
2, 67762, Note_on_c, 0, 75, 99
2, 67764, Note_on_c, 0, 43, 63
2, 67764, Note_on_c, 0, 58, 79
2, 67800, Note_on_c, 0, 75, 0
2, 67814, Note_on_c, 0, 58, 0
2, 67845, Note_on_c, 0, 43, 0
2, 67888, Note_on_c, 0, 80, 100
2, 67895, Note_on_c, 0, 44, 89
2, 67896, Note_on_c, 0, 68, 95
2, 67896, Note_on_c, 0, 56, 92
2, 67897, Note_on_c, 0, 72, 77
2, 67914, Control_c, 0, 64, 127
2, 68154, Note_on_c, 0, 79, 90
2, 68155, Note_on_c, 0, 67, 84
2, 68155, Note_on_c, 0, 51, 65
2, 68270, Note_on_c, 0, 60, 79
2, 68272, Note_on_c, 0, 77, 96
2, 68278, Note_on_c, 0, 65, 81
2, 68303, Note_on_c, 0, 67, 0
2, 68305, Note_on_c, 0, 51, 0
2, 68306, Control_c, 0, 64, 0
2, 68306, Note_on_c, 0, 79, 0
2, 68306, Note_on_c, 0, 80, 0
2, 68307, Note_on_c, 0, 68, 0
2, 68307, Note_on_c, 0, 56, 0
2, 68307, Note_on_c, 0, 72, 0
2, 68308, Note_on_c, 0, 44, 0
2, 68310, Note_on_c, 0, 60, 0
2, 68312, Note_on_c, 0, 65, 0
2, 68315, Note_on_c, 0, 77, 0
2, 68402, Note_on_c, 0, 75, 101
2, 68404, Note_on_c, 0, 63, 87
2, 68408, Note_on_c, 0, 70, 87
2, 68409, Note_on_c, 0, 58, 91
2, 68411, Note_on_c, 0, 46, 88
2, 68436, Control_c, 0, 64, 127
2, 68659, Note_on_c, 0, 46, 0
2, 68669, Note_on_c, 0, 53, 81
2, 68670, Note_on_c, 0, 46, 77
2, 68671, Note_on_c, 0, 94, 102
2, 68675, Note_on_c, 0, 82, 90
2, 68782, Note_on_c, 0, 58, 0
2, 68784, Note_on_c, 0, 62, 91
2, 68786, Note_on_c, 0, 58, 89
2, 68787, Note_on_c, 0, 96, 99
2, 68790, Note_on_c, 0, 84, 92
2, 68800, Note_on_c, 0, 82, 0
2, 68800, Note_on_c, 0, 94, 0
2, 68809, Note_on_c, 0, 46, 0
2, 68810, Note_on_c, 0, 70, 0
2, 68812, Note_on_c, 0, 75, 0
2, 68816, Note_on_c, 0, 53, 0
2, 68820, Note_on_c, 0, 63, 0
2, 68826, Control_c, 0, 64, 0
2, 68831, Note_on_c, 0, 84, 0
2, 68843, Note_on_c, 0, 62, 0
2, 68851, Note_on_c, 0, 58, 0
2, 68866, Note_on_c, 0, 96, 0
2, 68906, Note_on_c, 0, 98, 105
2, 68910, Note_on_c, 0, 86, 96
2, 68944, Note_on_c, 0, 86, 0
2, 68966, Note_on_c, 0, 98, 0
2, 69022, Note_on_c, 0, 99, 109
2, 69024, Note_on_c, 0, 29, 96
2, 69026, Note_on_c, 0, 87, 102
2, 69027, Note_on_c, 0, 41, 89
2, 69043, Control_c, 0, 64, 127
2, 69147, Note_on_c, 0, 98, 99
2, 69150, Note_on_c, 0, 86, 94
2, 69258, Note_on_c, 0, 41, 0
2, 69258, Note_on_c, 0, 99, 0
2, 69263, Note_on_c, 0, 41, 76
2, 69265, Note_on_c, 0, 87, 0
2, 69267, Note_on_c, 0, 53, 82
2, 69269, Note_on_c, 0, 99, 98
2, 69276, Note_on_c, 0, 87, 86
2, 69289, Note_on_c, 0, 100, 71
2, 69292, Note_on_c, 0, 98, 0
2, 69292, Note_on_c, 0, 86, 0
2, 69293, Note_on_c, 0, 29, 0
2, 69296, Note_on_c, 0, 100, 0
2, 69299, Control_c, 0, 64, 0
2, 69319, Note_on_c, 0, 53, 0
2, 69327, Note_on_c, 0, 41, 0
2, 69327, Note_on_c, 0, 87, 0
2, 69358, Note_on_c, 0, 99, 0
2, 69393, Note_on_c, 0, 94, 110
2, 69394, Note_on_c, 0, 82, 106
2, 69399, Note_on_c, 0, 87, 93
2, 69406, Note_on_c, 0, 43, 91
2, 69407, Note_on_c, 0, 31, 83
2, 69419, Control_c, 0, 64, 127
2, 69649, Note_on_c, 0, 87, 0
2, 69658, Note_on_c, 0, 87, 98
2, 69660, Note_on_c, 0, 75, 83
2, 69740, Note_on_c, 0, 94, 0
2, 69741, Note_on_c, 0, 31, 0
2, 69742, Note_on_c, 0, 82, 0
2, 69745, Control_c, 0, 64, 0
2, 69746, Note_on_c, 0, 43, 0
2, 69765, Note_on_c, 0, 75, 0
2, 69765, Note_on_c, 0, 87, 0
2, 69769, Note_on_c, 0, 51, 83
2, 69772, Note_on_c, 0, 55, 79
2, 69773, Note_on_c, 0, 87, 101
2, 69776, Note_on_c, 0, 75, 89
2, 69804, Note_on_c, 0, 51, 0
2, 69806, Note_on_c, 0, 55, 0
2, 69806, Note_on_c, 0, 75, 0
2, 69813, Note_on_c, 0, 87, 0
2, 69904, Note_on_c, 0, 92, 108
2, 69905, Note_on_c, 0, 80, 101
2, 69906, Note_on_c, 0, 44, 98
2, 69906, Note_on_c, 0, 32, 89
2, 69908, Note_on_c, 0, 84, 88
2, 69911, Note_on_c, 0, 87, 88
2, 69926, Control_c, 0, 64, 127
2, 70172, Note_on_c, 0, 91, 96
2, 70174, Note_on_c, 0, 79, 87
2, 70268, Control_c, 0, 64, 0
2, 70287, Note_on_c, 0, 32, 0
2, 70287, Note_on_c, 0, 44, 0
2, 70287, Note_on_c, 0, 84, 0
2, 70292, Note_on_c, 0, 44, 66
2, 70292, Note_on_c, 0, 89, 99
2, 70297, Note_on_c, 0, 77, 92
2, 70298, Note_on_c, 0, 84, 70
2, 70298, Note_on_c, 0, 32, 72
2, 70322, Note_on_c, 0, 84, 0
2, 70323, Note_on_c, 0, 77, 0
2, 70325, Note_on_c, 0, 89, 0
2, 70333, Note_on_c, 0, 80, 0
2, 70333, Note_on_c, 0, 87, 0
2, 70341, Note_on_c, 0, 44, 0
2, 70341, Note_on_c, 0, 92, 0
2, 70348, Note_on_c, 0, 32, 0
2, 70348, Note_on_c, 0, 91, 0
2, 70364, Note_on_c, 0, 79, 0
2, 70419, Note_on_c, 0, 87, 98
2, 70419, Note_on_c, 0, 34, 89
2, 70420, Note_on_c, 0, 82, 98
2, 70420, Note_on_c, 0, 46, 96
2, 70421, Note_on_c, 0, 75, 98
2, 70440, Control_c, 0, 64, 127
2, 70671, Note_on_c, 0, 34, 0
2, 70671, Note_on_c, 0, 46, 0
2, 70679, Note_on_c, 0, 75, 0
2, 70679, Note_on_c, 0, 87, 0
2, 70681, Note_on_c, 0, 46, 85
2, 70682, Note_on_c, 0, 34, 76
2, 70683, Note_on_c, 0, 87, 96
2, 70683, Note_on_c, 0, 75, 92
2, 70786, Note_on_c, 0, 46, 0
2, 70792, Note_on_c, 0, 89, 99
2, 70794, Note_on_c, 0, 82, 0
2, 70795, Note_on_c, 0, 58, 94
2, 70796, Note_on_c, 0, 46, 88
2, 70796, Note_on_c, 0, 53, 89
2, 70797, Note_on_c, 0, 77, 94
2, 70798, Note_on_c, 0, 82, 86
2, 70973, Note_on_c, 0, 34, 0
2, 70973, Note_on_c, 0, 46, 0
2, 70974, Note_on_c, 0, 89, 0
2, 70974, Note_on_c, 0, 58, 0
2, 70974, Note_on_c, 0, 82, 0
2, 70974, Note_on_c, 0, 53, 0
2, 70974, Note_on_c, 0, 77, 0
2, 70975, Note_on_c, 0, 75, 0
2, 70975, Control_c, 0, 64, 0
2, 70993, Note_on_c, 0, 87, 0
2, 71049, Note_on_c, 0, 75, 107
2, 71049, Note_on_c, 0, 87, 103
2, 71050, Note_on_c, 0, 78, 102
2, 71050, Note_on_c, 0, 47, 104
2, 71052, Note_on_c, 0, 35, 95
2, 71054, Note_on_c, 0, 83, 88
2, 71070, Control_c, 0, 64, 127
2, 71408, Note_on_c, 0, 83, 0
2, 71415, Note_on_c, 0, 83, 71
2, 71431, Note_on_c, 0, 47, 0
2, 71436, Note_on_c, 0, 59, 64
2, 71438, Note_on_c, 0, 47, 66
2, 71447, Note_on_c, 0, 59, 0
2, 71470, Note_on_c, 0, 87, 0
2, 71480, Note_on_c, 0, 87, 74
2, 71514, Note_on_c, 0, 90, 79
2, 71562, Note_on_c, 0, 47, 0
2, 71567, Note_on_c, 0, 95, 91
2, 71571, Note_on_c, 0, 47, 82
2, 71572, Note_on_c, 0, 39, 78
2, 71572, Note_on_c, 0, 59, 86
2, 71580, Note_on_c, 0, 54, 80
2, 71581, Note_on_c, 0, 51, 79
2, 71631, Note_on_c, 0, 90, 0
2, 71639, Note_on_c, 0, 90, 67
2, 71685, Note_on_c, 0, 87, 0
2, 71695, Note_on_c, 0, 87, 79
2, 71746, Note_on_c, 0, 83, 0
2, 71753, Note_on_c, 0, 83, 75
2, 71823, Note_on_c, 0, 83, 0
2, 71827, Note_on_c, 0, 83, 89
2, 71892, Note_on_c, 0, 78, 0
2, 71896, Note_on_c, 0, 78, 83
2, 71946, Note_on_c, 0, 75, 0
2, 71957, Note_on_c, 0, 75, 81
2, 71958, Note_on_c, 0, 71, 70
2, 72031, Note_on_c, 0, 47, 0
2, 72033, Note_on_c, 0, 51, 0
2, 72033, Note_on_c, 0, 83, 0
2, 72033, Note_on_c, 0, 90, 0
2, 72033, Note_on_c, 0, 78, 0
2, 72033, Note_on_c, 0, 87, 0
2, 72033, Note_on_c, 0, 71, 0
2, 72033, Note_on_c, 0, 54, 0
2, 72034, Note_on_c, 0, 59, 0
2, 72034, Control_c, 0, 64, 0
2, 72038, Note_on_c, 0, 39, 0
2, 72038, Note_on_c, 0, 95, 0
2, 72046, Note_on_c, 0, 35, 0
2, 72053, Note_on_c, 0, 75, 0
2, 72072, Note_on_c, 0, 89, 109
2, 72074, Note_on_c, 0, 49, 96
2, 72075, Note_on_c, 0, 77, 105
2, 72077, Note_on_c, 0, 85, 95
2, 72077, Note_on_c, 0, 80, 99
2, 72078, Note_on_c, 0, 37, 98
2, 72099, Control_c, 0, 64, 127
2, 72122, Note_on_c, 0, 49, 0
2, 72207, Note_on_c, 0, 77, 0
2, 72213, Note_on_c, 0, 77, 77
2, 72261, Note_on_c, 0, 80, 0
2, 72265, Note_on_c, 0, 80, 77
2, 72299, Note_on_c, 0, 85, 0
2, 72310, Note_on_c, 0, 85, 71
2, 72376, Note_on_c, 0, 85, 0
2, 72385, Note_on_c, 0, 85, 72
2, 72453, Note_on_c, 0, 89, 0
2, 72458, Note_on_c, 0, 89, 75
2, 72473, Note_on_c, 0, 49, 66
2, 72495, Note_on_c, 0, 92, 66
2, 72570, Note_on_c, 0, 97, 98
2, 72573, Note_on_c, 0, 53, 81
2, 72574, Note_on_c, 0, 61, 94
2, 72579, Note_on_c, 0, 56, 85
2, 72675, Note_on_c, 0, 89, 0
2, 72680, Note_on_c, 0, 89, 72
2, 72706, Note_on_c, 0, 85, 0
2, 72711, Note_on_c, 0, 85, 77
2, 72821, Note_on_c, 0, 85, 0
2, 72825, Note_on_c, 0, 85, 77
2, 72875, Note_on_c, 0, 80, 0
2, 72879, Note_on_c, 0, 80, 73
2, 72929, Note_on_c, 0, 77, 0
2, 72939, Note_on_c, 0, 77, 72
2, 72989, Note_on_c, 0, 73, 68
2, 73025, Note_on_c, 0, 37, 0
2, 73025, Note_on_c, 0, 85, 0
2, 73026, Note_on_c, 0, 49, 0
2, 73026, Note_on_c, 0, 92, 0
2, 73026, Note_on_c, 0, 53, 0
2, 73026, Note_on_c, 0, 61, 0
2, 73026, Note_on_c, 0, 89, 0
2, 73027, Note_on_c, 0, 77, 0
2, 73027, Note_on_c, 0, 56, 0
2, 73027, Note_on_c, 0, 80, 0
2, 73032, Note_on_c, 0, 73, 0
2, 73034, Control_c, 0, 64, 0
2, 73036, Note_on_c, 0, 97, 0
2, 73097, Note_on_c, 0, 51, 82
2, 73102, Note_on_c, 0, 63, 84
2, 73103, Note_on_c, 0, 75, 73
2, 73128, Control_c, 0, 64, 127
2, 73230, Note_on_c, 0, 94, 100
2, 73236, Note_on_c, 0, 75, 0
2, 73238, Note_on_c, 0, 82, 92
2, 73240, Note_on_c, 0, 75, 94
2, 73336, Note_on_c, 0, 94, 0
2, 73341, Note_on_c, 0, 94, 94
2, 73344, Note_on_c, 0, 82, 0
2, 73349, Note_on_c, 0, 82, 80
2, 73357, Note_on_c, 0, 70, 81
2, 73459, Note_on_c, 0, 94, 0
2, 73466, Note_on_c, 0, 82, 0
2, 73470, Note_on_c, 0, 94, 106
2, 73470, Note_on_c, 0, 68, 92
2, 73473, Note_on_c, 0, 82, 103
2, 73582, Note_on_c, 0, 63, 0
2, 73593, Note_on_c, 0, 63, 96
2, 73598, Note_on_c, 0, 51, 0
2, 73598, Note_on_c, 0, 92, 110
2, 73599, Note_on_c, 0, 80, 108
2, 73716, Note_on_c, 0, 58, 77
2, 73811, Note_on_c, 0, 56, 90
2, 73823, Note_on_c, 0, 68, 0
2, 73835, Note_on_c, 0, 80, 0
2, 73835, Note_on_c, 0, 92, 0
2, 73846, Note_on_c, 0, 92, 103
2, 73846, Note_on_c, 0, 80, 105
2, 73924, Note_on_c, 0, 58, 0
2, 73924, Note_on_c, 0, 82, 0
2, 73924, Note_on_c, 0, 92, 0
2, 73925, Note_on_c, 0, 63, 0
2, 73925, Note_on_c, 0, 80, 0
2, 73925, Note_on_c, 0, 56, 0
2, 73925, Note_on_c, 0, 75, 0
2, 73928, Control_c, 0, 64, 0
2, 73935, Note_on_c, 0, 70, 0
2, 73943, Note_on_c, 0, 94, 0
2, 73969, Note_on_c, 0, 39, 90
2, 73970, Note_on_c, 0, 27, 90
2, 73971, Note_on_c, 0, 80, 107
2, 73974, Note_on_c, 0, 92, 108
2, 73980, Note_on_c, 0, 82, 95
2, 73981, Note_on_c, 0, 87, 86
2, 74012, Control_c, 0, 64, 127
2, 74219, Note_on_c, 0, 82, 0
2, 74219, Note_on_c, 0, 87, 0
2, 74221, Note_on_c, 0, 46, 84
2, 74223, Note_on_c, 0, 34, 74
2, 74225, Note_on_c, 0, 94, 91
2, 74226, Note_on_c, 0, 82, 102
2, 74226, Note_on_c, 0, 91, 67
2, 74228, Note_on_c, 0, 87, 95
2, 74234, Note_on_c, 0, 91, 0
2, 74234, Note_on_c, 0, 94, 0
2, 74350, Note_on_c, 0, 82, 0
2, 74352, Note_on_c, 0, 51, 68
2, 74357, Note_on_c, 0, 87, 0
2, 74360, Note_on_c, 0, 82, 82
2, 74365, Note_on_c, 0, 87, 69
2, 74411, Note_on_c, 0, 82, 0
2, 74411, Note_on_c, 0, 87, 0
2, 74417, Note_on_c, 0, 94, 85
2, 74420, Note_on_c, 0, 82, 78
2, 74422, Note_on_c, 0, 87, 71
2, 74472, Note_on_c, 0, 46, 0
2, 74480, Note_on_c, 0, 34, 0
2, 74480, Note_on_c, 0, 87, 0
2, 74480, Note_on_c, 0, 46, 78
2, 74485, Note_on_c, 0, 34, 68
2, 74488, Note_on_c, 0, 87, 75
2, 74488, Note_on_c, 0, 82, 0
2, 74495, Note_on_c, 0, 82, 79
2, 74542, Note_on_c, 0, 94, 0
2, 74551, Note_on_c, 0, 94, 83
2, 74595, Note_on_c, 0, 27, 0
2, 74595, Note_on_c, 0, 39, 0
2, 74601, Note_on_c, 0, 39, 77
2, 74605, Note_on_c, 0, 27, 81
2, 74611, Note_on_c, 0, 82, 0
2, 74611, Note_on_c, 0, 87, 0
2, 74611, Note_on_c, 0, 94, 0
2, 74612, Note_on_c, 0, 91, 67
2, 74615, Note_on_c, 0, 87, 75
2, 74615, Note_on_c, 0, 94, 79
2, 74616, Note_on_c, 0, 82, 84
2, 74664, Note_on_c, 0, 94, 0
2, 74674, Note_on_c, 0, 94, 84
2, 74734, Note_on_c, 0, 46, 0
2, 74738, Note_on_c, 0, 46, 69
2, 74741, Note_on_c, 0, 82, 0
2, 74741, Note_on_c, 0, 87, 0
2, 74746, Note_on_c, 0, 87, 80
2, 74746, Note_on_c, 0, 82, 76
2, 74795, Note_on_c, 0, 94, 0
2, 74805, Note_on_c, 0, 94, 75
2, 74864, Note_on_c, 0, 82, 0
2, 74864, Note_on_c, 0, 87, 0
2, 74864, Note_on_c, 0, 91, 0
2, 74868, Note_on_c, 0, 55, 79
2, 74872, Note_on_c, 0, 51, 0
2, 74872, Note_on_c, 0, 82, 91
2, 74874, Note_on_c, 0, 87, 86
2, 74875, Note_on_c, 0, 91, 73
2, 74876, Note_on_c, 0, 51, 68
2, 74926, Note_on_c, 0, 94, 0
2, 74932, Note_on_c, 0, 94, 83
2, 75002, Note_on_c, 0, 34, 0
2, 75002, Note_on_c, 0, 82, 0
2, 75002, Note_on_c, 0, 87, 0
2, 75002, Note_on_c, 0, 91, 0
2, 75007, Note_on_c, 0, 82, 80
2, 75008, Note_on_c, 0, 87, 72
2, 75012, Note_on_c, 0, 34, 68
2, 75012, Note_on_c, 0, 91, 56
2, 75048, Note_on_c, 0, 94, 0
2, 75059, Note_on_c, 0, 94, 77
2, 75110, Note_on_c, 0, 27, 0
2, 75110, Note_on_c, 0, 39, 0
2, 75116, Note_on_c, 0, 39, 75
2, 75118, Note_on_c, 0, 87, 0
2, 75120, Note_on_c, 0, 27, 81
2, 75122, Note_on_c, 0, 87, 87
2, 75179, Note_on_c, 0, 94, 0
2, 75183, Note_on_c, 0, 94, 78
2, 75240, Note_on_c, 0, 91, 0
2, 75248, Note_on_c, 0, 82, 0
2, 75248, Note_on_c, 0, 87, 0
2, 75250, Note_on_c, 0, 91, 64
2, 75252, Note_on_c, 0, 87, 77
2, 75253, Note_on_c, 0, 82, 78
2, 75302, Note_on_c, 0, 94, 0
2, 75309, Note_on_c, 0, 94, 62
2, 75363, Note_on_c, 0, 82, 0
2, 75371, Note_on_c, 0, 39, 0
2, 75371, Note_on_c, 0, 87, 0
2, 75371, Note_on_c, 0, 91, 0
2, 75371, Note_on_c, 0, 94, 0
2, 75375, Note_on_c, 0, 82, 81
2, 75375, Note_on_c, 0, 87, 79
2, 75378, Note_on_c, 0, 91, 62
2, 75379, Note_on_c, 0, 94, 67
2, 75382, Note_on_c, 0, 39, 73
2, 75432, Note_on_c, 0, 94, 0
2, 75437, Note_on_c, 0, 94, 83
2, 75502, Note_on_c, 0, 82, 0
2, 75509, Note_on_c, 0, 87, 0
2, 75511, Note_on_c, 0, 82, 86
2, 75513, Note_on_c, 0, 87, 77
2, 75540, Note_on_c, 0, 46, 0
2, 75546, Note_on_c, 0, 46, 70
2, 75555, Note_on_c, 0, 94, 0
2, 75564, Note_on_c, 0, 94, 70
2, 75624, Note_on_c, 0, 27, 0
2, 75624, Note_on_c, 0, 39, 0
2, 75624, Note_on_c, 0, 82, 0
2, 75624, Note_on_c, 0, 87, 0
2, 75624, Note_on_c, 0, 91, 0
2, 75629, Note_on_c, 0, 82, 78
2, 75631, Note_on_c, 0, 91, 60
2, 75635, Note_on_c, 0, 27, 80
2, 75635, Note_on_c, 0, 87, 75
2, 75635, Note_on_c, 0, 39, 70
2, 75686, Note_on_c, 0, 94, 0
2, 75690, Note_on_c, 0, 94, 87
2, 75747, Note_on_c, 0, 87, 0
2, 75753, Note_on_c, 0, 87, 72
2, 75763, Note_on_c, 0, 34, 0
2, 75763, Note_on_c, 0, 46, 0
2, 75773, Note_on_c, 0, 34, 58
2, 75773, Note_on_c, 0, 46, 66
2, 75840, Note_on_c, 0, 39, 0
2, 75840, Note_on_c, 0, 82, 0
2, 75845, Note_on_c, 0, 39, 65
2, 75847, Note_on_c, 0, 87, 0
2, 75850, Note_on_c, 0, 82, 77
2, 75855, Note_on_c, 0, 94, 0
2, 75858, Note_on_c, 0, 87, 73
2, 75866, Note_on_c, 0, 94, 79
2, 75878, Note_on_c, 0, 51, 0
2, 75883, Note_on_c, 0, 51, 72
2, 75886, Note_on_c, 0, 55, 0
2, 75890, Note_on_c, 0, 55, 72
2, 75970, Note_on_c, 0, 46, 0
2, 75970, Note_on_c, 0, 82, 0
2, 75978, Note_on_c, 0, 46, 82
2, 75981, Note_on_c, 0, 82, 69
2, 76081, Note_on_c, 0, 34, 0
2, 76081, Note_on_c, 0, 80, 0
2, 76081, Note_on_c, 0, 82, 0
2, 76081, Note_on_c, 0, 92, 0
2, 76082, Note_on_c, 0, 46, 0
2, 76082, Note_on_c, 0, 55, 0
2, 76082, Note_on_c, 0, 87, 0
2, 76082, Control_c, 0, 64, 0
2, 76093, Note_on_c, 0, 27, 0
2, 76093, Note_on_c, 0, 51, 0
2, 76093, Note_on_c, 0, 94, 0
2, 76101, Note_on_c, 0, 39, 0
2, 76101, Note_on_c, 0, 91, 0
2, 76136, Note_on_c, 0, 82, 101
2, 76136, Note_on_c, 0, 70, 96
2, 76139, Note_on_c, 0, 74, 83
2, 76139, Note_on_c, 0, 77, 80
2, 76141, Note_on_c, 0, 34, 83
2, 76154, Control_c, 0, 64, 127
2, 76268, Note_on_c, 0, 84, 91
2, 76272, Note_on_c, 0, 46, 75
2, 76273, Note_on_c, 0, 72, 81
2, 76273, Note_on_c, 0, 41, 69
2, 76362, Note_on_c, 0, 46, 0
2, 76366, Note_on_c, 0, 50, 83
2, 76372, Note_on_c, 0, 46, 87
2, 76377, Note_on_c, 0, 82, 0
2, 76385, Note_on_c, 0, 74, 0
2, 76385, Note_on_c, 0, 82, 75
2, 76389, Note_on_c, 0, 86, 92
2, 76390, Note_on_c, 0, 74, 85
2, 76410, Note_on_c, 0, 41, 0
2, 76411, Note_on_c, 0, 72, 0
2, 76411, Note_on_c, 0, 77, 0
2, 76411, Note_on_c, 0, 50, 0
2, 76411, Note_on_c, 0, 84, 0
2, 76412, Note_on_c, 0, 74, 0
2, 76413, Note_on_c, 0, 46, 0
2, 76414, Control_c, 0, 64, 0
2, 76416, Note_on_c, 0, 70, 0
2, 76431, Note_on_c, 0, 34, 0
2, 76439, Note_on_c, 0, 82, 0
2, 76439, Note_on_c, 0, 86, 0
2, 76497, Note_on_c, 0, 87, 102
2, 76497, Note_on_c, 0, 82, 95
2, 76499, Note_on_c, 0, 79, 86
2, 76499, Note_on_c, 0, 51, 93
2, 76501, Note_on_c, 0, 39, 90
2, 76501, Note_on_c, 0, 75, 95
2, 76508, Control_c, 0, 64, 127
2, 76631, Note_on_c, 0, 39, 0
2, 76631, Note_on_c, 0, 51, 0
2, 76635, Note_on_c, 0, 39, 45
2, 76637, Note_on_c, 0, 51, 61
2, 76753, Note_on_c, 0, 82, 0
2, 76760, Note_on_c, 0, 82, 91
2, 76762, Note_on_c, 0, 55, 68
2, 76766, Note_on_c, 0, 70, 80
2, 76869, Note_on_c, 0, 79, 0
2, 76876, Note_on_c, 0, 75, 0
2, 76877, Note_on_c, 0, 79, 101
2, 76880, Note_on_c, 0, 67, 89
2, 76881, Note_on_c, 0, 63, 81
2, 76882, Note_on_c, 0, 75, 79
2, 76885, Note_on_c, 0, 58, 75
2, 76887, Note_on_c, 0, 51, 0
2, 77060, Control_c, 0, 64, 0
2, 77060, Note_on_c, 0, 55, 0
2, 77063, Note_on_c, 0, 82, 0
2, 77063, Note_on_c, 0, 39, 0
2, 77063, Note_on_c, 0, 67, 0
2, 77063, Note_on_c, 0, 79, 0
2, 77063, Note_on_c, 0, 63, 0
2, 77063, Note_on_c, 0, 58, 0
2, 77063, Note_on_c, 0, 70, 0
2, 77063, Note_on_c, 0, 87, 0
2, 77065, Note_on_c, 0, 75, 0
2, 77131, Note_on_c, 0, 85, 102
2, 77131, Note_on_c, 0, 73, 100
2, 77133, Note_on_c, 0, 80, 74
2, 77142, Note_on_c, 0, 49, 88
2, 77143, Note_on_c, 0, 37, 91
2, 77145, Control_c, 0, 64, 127
2, 77146, Note_on_c, 0, 77, 68
2, 77253, Note_on_c, 0, 49, 0
2, 77261, Note_on_c, 0, 87, 95
2, 77262, Note_on_c, 0, 49, 65
2, 77268, Note_on_c, 0, 75, 75
2, 77379, Note_on_c, 0, 53, 86
2, 77383, Note_on_c, 0, 49, 0
2, 77383, Note_on_c, 0, 77, 0
2, 77385, Note_on_c, 0, 41, 69
2, 77387, Note_on_c, 0, 89, 93
2, 77387, Note_on_c, 0, 49, 70
2, 77392, Note_on_c, 0, 77, 76
2, 77395, Note_on_c, 0, 88, 61
2, 77399, Note_on_c, 0, 76, 61
2, 77404, Note_on_c, 0, 87, 0
2, 77405, Note_on_c, 0, 73, 0
2, 77405, Note_on_c, 0, 85, 0
2, 77406, Note_on_c, 0, 75, 0
2, 77407, Note_on_c, 0, 80, 0
2, 77411, Note_on_c, 0, 53, 0
2, 77414, Note_on_c, 0, 76, 0
2, 77418, Control_c, 0, 64, 0
2, 77429, Note_on_c, 0, 41, 0
2, 77437, Note_on_c, 0, 49, 0
2, 77437, Note_on_c, 0, 77, 0
2, 77445, Note_on_c, 0, 37, 0
2, 77445, Note_on_c, 0, 88, 0
2, 77445, Note_on_c, 0, 89, 0
2, 77504, Note_on_c, 0, 90, 107
2, 77510, Note_on_c, 0, 78, 103
2, 77514, Control_c, 0, 64, 127
2, 77516, Note_on_c, 0, 85, 87
2, 77516, Note_on_c, 0, 82, 96
2, 77516, Note_on_c, 0, 42, 95
2, 77517, Note_on_c, 0, 54, 94
2, 77521, Note_on_c, 0, 54, 0
2, 77633, Note_on_c, 0, 49, 66
2, 77720, Note_on_c, 0, 54, 95
2, 77760, Note_on_c, 0, 85, 0
2, 77766, Note_on_c, 0, 85, 96
2, 77769, Note_on_c, 0, 73, 92
2, 77867, Note_on_c, 0, 54, 0
2, 77867, Note_on_c, 0, 73, 0
2, 77867, Note_on_c, 0, 82, 0
2, 77872, Note_on_c, 0, 66, 95
2, 77873, Note_on_c, 0, 78, 0
2, 77874, Note_on_c, 0, 61, 88
2, 77875, Note_on_c, 0, 54, 78
2, 77877, Note_on_c, 0, 73, 84
2, 77878, Note_on_c, 0, 82, 94
2, 77880, Note_on_c, 0, 70, 87
2, 78058, Note_on_c, 0, 61, 0
2, 78058, Note_on_c, 0, 42, 0
2, 78058, Note_on_c, 0, 49, 0
2, 78058, Note_on_c, 0, 54, 0
2, 78059, Note_on_c, 0, 73, 0
2, 78059, Note_on_c, 0, 85, 0
2, 78060, Note_on_c, 0, 82, 0
2, 78060, Note_on_c, 0, 66, 0
2, 78060, Note_on_c, 0, 90, 0
2, 78061, Note_on_c, 0, 70, 0
2, 78064, Control_c, 0, 64, 0
2, 78124, Note_on_c, 0, 74, 94
2, 78126, Note_on_c, 0, 83, 102
2, 78131, Note_on_c, 0, 79, 91
2, 78132, Note_on_c, 0, 71, 99
2, 78132, Note_on_c, 0, 31, 93
2, 78132, Note_on_c, 0, 43, 97
2, 78151, Control_c, 0, 64, 127
2, 78259, Note_on_c, 0, 31, 0
2, 78259, Note_on_c, 0, 43, 0
2, 78259, Note_on_c, 0, 71, 0
2, 78264, Note_on_c, 0, 78, 90
2, 78267, Note_on_c, 0, 43, 88
2, 78268, Note_on_c, 0, 31, 77
2, 78270, Note_on_c, 0, 71, 73
2, 78271, Note_on_c, 0, 66, 77
2, 78354, Note_on_c, 0, 79, 0
2, 78354, Note_on_c, 0, 83, 0
2, 78355, Note_on_c, 0, 74, 0
2, 78366, Note_on_c, 0, 78, 0
2, 78374, Note_on_c, 0, 66, 0
2, 78381, Control_c, 0, 64, 0
2, 78396, Note_on_c, 0, 67, 83
2, 78466, Note_on_c, 0, 31, 0
2, 78520, Note_on_c, 0, 43, 0
2, 78520, Note_on_c, 0, 67, 0
2, 78520, Note_on_c, 0, 71, 0
2, 78525, Note_on_c, 0, 71, 67
2, 78527, Note_on_c, 0, 59, 74
2, 78580, Note_on_c, 0, 62, 65
2, 78585, Note_on_c, 0, 59, 0
2, 78604, Note_on_c, 0, 71, 0
2, 78609, Note_on_c, 0, 62, 0
2, 78646, Note_on_c, 0, 69, 85
2, 78681, Control_c, 0, 64, 127
2, 78718, Note_on_c, 0, 64, 72
2, 78778, Note_on_c, 0, 43, 82
2, 78779, Note_on_c, 0, 55, 90
2, 78785, Note_on_c, 0, 60, 81
2, 78786, Note_on_c, 0, 50, 79
2, 78788, Control_c, 0, 64, 0
2, 78796, Note_on_c, 0, 69, 0
2, 78808, Note_on_c, 0, 55, 0
2, 78809, Note_on_c, 0, 50, 0
2, 78819, Note_on_c, 0, 64, 0
2, 78827, Note_on_c, 0, 43, 0
2, 78835, Note_on_c, 0, 60, 0
2, 78892, Note_on_c, 0, 71, 85
2, 78965, Note_on_c, 0, 65, 75
2, 79030, Note_on_c, 0, 62, 92
2, 79037, Note_on_c, 0, 50, 82
2, 79038, Note_on_c, 0, 43, 85
2, 79038, Note_on_c, 0, 55, 90
2, 79096, Control_c, 0, 64, 127
2, 79149, Note_on_c, 0, 72, 89
2, 79216, Note_on_c, 0, 67, 90
2, 79280, Note_on_c, 0, 64, 83
2, 79349, Note_on_c, 0, 67, 0
2, 79354, Note_on_c, 0, 67, 72
2, 79399, Note_on_c, 0, 74, 98
2, 79463, Note_on_c, 0, 69, 76
2, 79511, Note_on_c, 0, 65, 0
2, 79518, Note_on_c, 0, 67, 0
2, 79522, Note_on_c, 0, 65, 79
2, 79526, Note_on_c, 0, 55, 0
2, 79529, Note_on_c, 0, 67, 70
2, 79532, Note_on_c, 0, 55, 67
2, 79629, Note_on_c, 0, 57, 70
2, 79652, Note_on_c, 0, 76, 97
2, 79656, Note_on_c, 0, 67, 0
2, 79656, Note_on_c, 0, 71, 0
2, 79660, Note_on_c, 0, 67, 82
2, 79667, Note_on_c, 0, 71, 82
2, 79681, Note_on_c, 0, 59, 74
2, 79740, Note_on_c, 0, 60, 76
2, 79772, Note_on_c, 0, 69, 0
2, 79776, Note_on_c, 0, 77, 94
2, 79779, Note_on_c, 0, 62, 0
2, 79781, Note_on_c, 0, 69, 87
2, 79788, Note_on_c, 0, 62, 83
2, 79793, Note_on_c, 0, 50, 0
2, 79795, Note_on_c, 0, 43, 0
2, 79797, Note_on_c, 0, 72, 0
2, 79804, Control_c, 0, 64, 0
2, 79833, Control_c, 0, 64, 127
2, 79872, Note_on_c, 0, 64, 0
2, 79881, Note_on_c, 0, 64, 80
2, 79895, Note_on_c, 0, 71, 0
2, 79895, Note_on_c, 0, 74, 0
2, 79897, Note_on_c, 0, 79, 100
2, 79901, Note_on_c, 0, 71, 84
2, 79905, Note_on_c, 0, 74, 81
2, 79956, Note_on_c, 0, 65, 0
2, 79962, Note_on_c, 0, 65, 68
2, 80033, Note_on_c, 0, 67, 0
2, 80037, Note_on_c, 0, 67, 78
2, 80068, Note_on_c, 0, 71, 0
2, 80068, Note_on_c, 0, 77, 0
2, 80069, Note_on_c, 0, 65, 0
2, 80069, Note_on_c, 0, 74, 0
2, 80069, Note_on_c, 0, 79, 0
2, 80071, Note_on_c, 0, 55, 0
2, 80072, Note_on_c, 0, 67, 0
2, 80073, Control_c, 0, 64, 0
2, 80079, Note_on_c, 0, 57, 0
2, 80079, Note_on_c, 0, 59, 0
2, 80079, Note_on_c, 0, 62, 0
2, 80079, Note_on_c, 0, 64, 0
2, 80079, Note_on_c, 0, 69, 0
2, 80079, Note_on_c, 0, 76, 0
2, 80087, Note_on_c, 0, 60, 0
2, 80170, Note_on_c, 0, 88, 85
2, 80172, Note_on_c, 0, 84, 82
2, 80174, Note_on_c, 0, 81, 82
2, 80176, Note_on_c, 0, 76, 81
2, 80177, Note_on_c, 0, 53, 68
2, 80194, Control_c, 0, 64, 127
2, 80294, Note_on_c, 0, 53, 0
2, 80299, Note_on_c, 0, 91, 87
2, 80304, Note_on_c, 0, 79, 79
2, 80304, Note_on_c, 0, 53, 63
2, 80305, Note_on_c, 0, 65, 61
2, 80424, Note_on_c, 0, 81, 0
2, 80427, Note_on_c, 0, 93, 86
2, 80429, Note_on_c, 0, 81, 79
2, 80429, Note_on_c, 0, 60, 63
2, 80547, Note_on_c, 0, 88, 0
2, 80555, Note_on_c, 0, 76, 0
2, 80558, Note_on_c, 0, 88, 83
2, 80560, Note_on_c, 0, 76, 82
2, 80563, Note_on_c, 0, 65, 0
2, 80572, Note_on_c, 0, 65, 54
2, 80686, Note_on_c, 0, 60, 0
2, 80696, Note_on_c, 0, 60, 61
2, 80824, Note_on_c, 0, 53, 0
2, 80824, Note_on_c, 0, 65, 0
2, 80833, Note_on_c, 0, 53, 55
2, 80833, Note_on_c, 0, 86, 81
2, 80834, Note_on_c, 0, 65, 59
2, 80835, Note_on_c, 0, 74, 74
2, 80954, Note_on_c, 0, 60, 0
2, 80954, Note_on_c, 0, 74, 0
2, 80954, Note_on_c, 0, 86, 0
2, 80959, Note_on_c, 0, 60, 63
2, 80960, Note_on_c, 0, 86, 89
2, 80964, Note_on_c, 0, 74, 63
2, 81093, Note_on_c, 0, 65, 0
2, 81098, Note_on_c, 0, 65, 51
2, 81200, Note_on_c, 0, 93, 0
2, 81206, Note_on_c, 0, 88, 0
2, 81209, Note_on_c, 0, 79, 0
2, 81212, Control_c, 0, 64, 0
2, 81216, Note_on_c, 0, 60, 0
2, 81216, Note_on_c, 0, 76, 0
2, 81223, Note_on_c, 0, 76, 71
2, 81226, Note_on_c, 0, 60, 56
2, 81231, Note_on_c, 0, 91, 0
2, 81308, Control_c, 0, 64, 127
2, 81346, Note_on_c, 0, 79, 68
2, 81346, Note_on_c, 0, 65, 0
2, 81353, Note_on_c, 0, 65, 55
2, 81454, Note_on_c, 0, 81, 0
2, 81458, Note_on_c, 0, 81, 71
2, 81477, Note_on_c, 0, 60, 0
2, 81488, Note_on_c, 0, 60, 61
2, 81576, Note_on_c, 0, 76, 0
2, 81586, Note_on_c, 0, 76, 67
2, 81607, Note_on_c, 0, 65, 0
2, 81613, Note_on_c, 0, 65, 51
2, 81730, Note_on_c, 0, 60, 0
2, 81740, Note_on_c, 0, 60, 66
2, 81830, Note_on_c, 0, 81, 0
2, 81837, Note_on_c, 0, 81, 83
2, 81853, Note_on_c, 0, 53, 0
2, 81861, Note_on_c, 0, 65, 0
2, 81864, Note_on_c, 0, 53, 48
2, 81866, Note_on_c, 0, 65, 55
2, 81960, Note_on_c, 0, 84, 0
2, 81968, Note_on_c, 0, 60, 0
2, 81970, Note_on_c, 0, 84, 81
2, 81973, Note_on_c, 0, 60, 59
2, 81984, Note_on_c, 0, 74, 0
2, 81988, Note_on_c, 0, 74, 43
2, 82076, Note_on_c, 0, 86, 0
2, 82086, Note_on_c, 0, 86, 80
2, 82099, Note_on_c, 0, 65, 0
2, 82105, Note_on_c, 0, 65, 64
2, 82170, Note_on_c, 0, 81, 0
2, 82171, Control_c, 0, 64, 0
2, 82171, Note_on_c, 0, 79, 0
2, 82171, Note_on_c, 0, 53, 0
2, 82171, Note_on_c, 0, 76, 0
2, 82171, Note_on_c, 0, 65, 0
2, 82171, Note_on_c, 0, 60, 0
2, 82171, Note_on_c, 0, 74, 0
2, 82172, Note_on_c, 0, 84, 0
2, 82227, Note_on_c, 0, 52, 70
2, 82233, Note_on_c, 0, 88, 82
2, 82238, Note_on_c, 0, 79, 72
2, 82250, Note_on_c, 0, 76, 67
2, 82275, Control_c, 0, 64, 127
2, 82376, Note_on_c, 0, 64, 52
2, 82460, Note_on_c, 0, 86, 0
2, 82488, Note_on_c, 0, 59, 59
2, 82613, Note_on_c, 0, 79, 0
2, 82620, Note_on_c, 0, 79, 73
2, 82636, Note_on_c, 0, 64, 0
2, 82644, Note_on_c, 0, 64, 48
2, 82744, Note_on_c, 0, 79, 0
2, 82752, Note_on_c, 0, 79, 80
2, 82759, Note_on_c, 0, 59, 0
2, 82764, Note_on_c, 0, 71, 57
2, 82769, Note_on_c, 0, 59, 59
2, 82867, Note_on_c, 0, 64, 0
2, 82874, Note_on_c, 0, 69, 61
2, 82877, Note_on_c, 0, 64, 52
2, 82908, Note_on_c, 0, 88, 0
2, 82908, Note_on_c, 0, 76, 0
2, 82910, Control_c, 0, 64, 0
2, 82928, Note_on_c, 0, 71, 0
2, 82982, Control_c, 0, 64, 127
2, 83005, Note_on_c, 0, 59, 0
2, 83009, Note_on_c, 0, 59, 51
2, 83009, Note_on_c, 0, 72, 63
2, 83112, Note_on_c, 0, 79, 0
2, 83122, Note_on_c, 0, 74, 73
2, 83143, Note_on_c, 0, 64, 0
2, 83152, Note_on_c, 0, 64, 53
2, 83230, Note_on_c, 0, 64, 0
2, 83230, Note_on_c, 0, 69, 0
2, 83231, Control_c, 0, 64, 0
2, 83231, Note_on_c, 0, 72, 0
2, 83233, Note_on_c, 0, 74, 0
2, 83260, Note_on_c, 0, 76, 80
2, 83274, Note_on_c, 0, 59, 0
2, 83280, Note_on_c, 0, 67, 57
2, 83283, Note_on_c, 0, 71, 58
2, 83285, Note_on_c, 0, 59, 55
2, 83374, Control_c, 0, 64, 127
2, 83411, Note_on_c, 0, 64, 62
2, 83535, Note_on_c, 0, 59, 0
2, 83545, Note_on_c, 0, 59, 56
2, 83642, Note_on_c, 0, 67, 0
2, 83653, Note_on_c, 0, 67, 70
2, 83665, Note_on_c, 0, 64, 0
2, 83672, Note_on_c, 0, 64, 62
2, 83752, Note_on_c, 0, 71, 0
2, 83752, Note_on_c, 0, 64, 0
2, 83752, Control_c, 0, 64, 0
2, 83753, Note_on_c, 0, 76, 0
2, 83773, Note_on_c, 0, 59, 0
2, 83773, Note_on_c, 0, 67, 0
2, 83784, Note_on_c, 0, 67, 61
2, 83795, Note_on_c, 0, 59, 56
2, 83827, Control_c, 0, 64, 127
2, 83929, Note_on_c, 0, 64, 61
2, 84034, Note_on_c, 0, 59, 0
2, 84043, Note_on_c, 0, 59, 58
2, 84157, Note_on_c, 0, 64, 0
2, 84167, Note_on_c, 0, 64, 63
2, 84223, Note_on_c, 0, 67, 0
2, 84223, Control_c, 0, 64, 0
2, 84223, Note_on_c, 0, 64, 0
2, 84224, Note_on_c, 0, 59, 0
2, 84234, Note_on_c, 0, 52, 0
2, 84276, Note_on_c, 0, 88, 90
2, 84281, Note_on_c, 0, 100, 81
2, 84284, Note_on_c, 0, 76, 75
2, 84288, Note_on_c, 0, 100, 0
2, 84295, Note_on_c, 0, 97, 60
2, 84303, Note_on_c, 0, 97, 0
2, 84303, Control_c, 0, 64, 127
2, 84308, Note_on_c, 0, 62, 50
2, 84311, Note_on_c, 0, 69, 53
2, 84414, Note_on_c, 0, 91, 85
2, 84415, Note_on_c, 0, 65, 61
2, 84424, Note_on_c, 0, 79, 67
2, 84530, Note_on_c, 0, 93, 86
2, 84533, Note_on_c, 0, 81, 82
2, 84563, Note_on_c, 0, 57, 58
2, 84664, Note_on_c, 0, 76, 0
2, 84664, Note_on_c, 0, 88, 0
2, 84668, Note_on_c, 0, 88, 79
2, 84672, Note_on_c, 0, 65, 0
2, 84674, Note_on_c, 0, 76, 73
2, 84678, Note_on_c, 0, 65, 57
2, 84802, Note_on_c, 0, 57, 0
2, 84806, Note_on_c, 0, 57, 62
2, 84917, Note_on_c, 0, 65, 0
2, 84917, Note_on_c, 0, 69, 0
2, 84920, Note_on_c, 0, 86, 81
2, 84922, Note_on_c, 0, 74, 65
2, 84928, Note_on_c, 0, 69, 54
2, 84928, Note_on_c, 0, 65, 58
2, 85040, Note_on_c, 0, 57, 0
2, 85040, Note_on_c, 0, 69, 0
2, 85040, Note_on_c, 0, 86, 0
2, 85044, Note_on_c, 0, 86, 87
2, 85048, Note_on_c, 0, 74, 0
2, 85049, Note_on_c, 0, 57, 66
2, 85050, Note_on_c, 0, 69, 62
2, 85052, Note_on_c, 0, 74, 63
2, 85148, Note_on_c, 0, 65, 0
2, 85154, Note_on_c, 0, 65, 61
2, 85285, Note_on_c, 0, 93, 0
2, 85287, Note_on_c, 0, 91, 0
2, 85287, Note_on_c, 0, 81, 0
2, 85288, Note_on_c, 0, 79, 0
2, 85288, Note_on_c, 0, 88, 0
2, 85288, Note_on_c, 0, 69, 0
2, 85288, Note_on_c, 0, 86, 0
2, 85289, Note_on_c, 0, 65, 0
2, 85289, Note_on_c, 0, 74, 0
2, 85289, Control_c, 0, 64, 0
2, 85294, Note_on_c, 0, 76, 0
2, 85304, Note_on_c, 0, 76, 77
2, 85305, Note_on_c, 0, 43, 55
2, 85305, Note_on_c, 0, 71, 66
2, 85309, Note_on_c, 0, 57, 0
2, 85309, Note_on_c, 0, 62, 0
2, 85310, Note_on_c, 0, 55, 65
2, 85386, Control_c, 0, 64, 127
2, 85430, Note_on_c, 0, 79, 77
2, 85435, Note_on_c, 0, 67, 62
2, 85558, Note_on_c, 0, 81, 78
2, 85569, Note_on_c, 0, 62, 61
2, 85571, Note_on_c, 0, 69, 43
2, 85585, Note_on_c, 0, 43, 0
2, 85662, Note_on_c, 0, 76, 0
2, 85669, Note_on_c, 0, 76, 75
2, 85708, Note_on_c, 0, 67, 0
2, 85714, Note_on_c, 0, 67, 60
2, 85824, Note_on_c, 0, 62, 0
2, 85834, Note_on_c, 0, 62, 58
2, 85923, Note_on_c, 0, 81, 0
2, 85929, Note_on_c, 0, 81, 85
2, 85954, Note_on_c, 0, 67, 0
2, 85965, Note_on_c, 0, 74, 49
2, 85965, Note_on_c, 0, 67, 64
2, 86054, Note_on_c, 0, 62, 0
2, 86054, Note_on_c, 0, 74, 0
2, 86062, Note_on_c, 0, 84, 87
2, 86064, Note_on_c, 0, 74, 74
2, 86065, Note_on_c, 0, 62, 70
2, 86184, Note_on_c, 0, 67, 0
2, 86184, Note_on_c, 0, 74, 0
2, 86190, Note_on_c, 0, 86, 90
2, 86190, Note_on_c, 0, 67, 78
2, 86193, Note_on_c, 0, 74, 74
2, 86306, Control_c, 0, 64, 0
2, 86307, Note_on_c, 0, 71, 0
2, 86307, Note_on_c, 0, 69, 0
2, 86307, Note_on_c, 0, 86, 0
2, 86308, Note_on_c, 0, 81, 0
2, 86308, Note_on_c, 0, 62, 0
2, 86309, Note_on_c, 0, 67, 0
2, 86309, Note_on_c, 0, 76, 0
2, 86311, Note_on_c, 0, 84, 0
2, 86315, Note_on_c, 0, 74, 0
2, 86315, Note_on_c, 0, 86, 89
2, 86323, Note_on_c, 0, 55, 0
2, 86323, Note_on_c, 0, 79, 0
2, 86326, Note_on_c, 0, 48, 69
2, 86326, Note_on_c, 0, 74, 77
2, 86331, Note_on_c, 0, 79, 79
2, 86336, Note_on_c, 0, 83, 70
2, 86415, Control_c, 0, 64, 127
2, 86443, Note_on_c, 0, 64, 62
2, 86444, Note_on_c, 0, 67, 53
2, 86582, Note_on_c, 0, 55, 63
2, 86707, Note_on_c, 0, 64, 0
2, 86715, Note_on_c, 0, 64, 59
2, 86717, Note_on_c, 0, 88, 74
2, 86719, Note_on_c, 0, 76, 66
2, 86822, Note_on_c, 0, 88, 0
2, 86830, Note_on_c, 0, 76, 0
2, 86833, Note_on_c, 0, 88, 81
2, 86839, Note_on_c, 0, 76, 77
2, 86845, Note_on_c, 0, 55, 0
2, 86850, Note_on_c, 0, 55, 60
2, 86960, Note_on_c, 0, 64, 0
2, 86968, Note_on_c, 0, 64, 62
2, 87098, Note_on_c, 0, 55, 0
2, 87108, Note_on_c, 0, 55, 53
2, 87214, Note_on_c, 0, 64, 0
2, 87224, Note_on_c, 0, 64, 59
2, 87333, Note_on_c, 0, 88, 0
2, 87333, Note_on_c, 0, 86, 0
2, 87333, Note_on_c, 0, 74, 0
2, 87334, Control_c, 0, 64, 0
2, 87334, Note_on_c, 0, 79, 0
2, 87334, Note_on_c, 0, 83, 0
2, 87334, Note_on_c, 0, 55, 0
2, 87334, Note_on_c, 0, 64, 0
2, 87344, Note_on_c, 0, 76, 0
2, 87352, Note_on_c, 0, 48, 0
2, 87355, Note_on_c, 0, 76, 87
2, 87360, Note_on_c, 0, 67, 0
2, 87362, Note_on_c, 0, 48, 64
2, 87363, Note_on_c, 0, 71, 74
2, 87370, Note_on_c, 0, 67, 71
2, 87421, Control_c, 0, 64, 127
2, 87501, Note_on_c, 0, 55, 64
2, 87598, Note_on_c, 0, 64, 69
2, 87728, Note_on_c, 0, 55, 0
2, 87728, Note_on_c, 0, 67, 0
2, 87732, Note_on_c, 0, 55, 80
2, 87735, Note_on_c, 0, 74, 93
2, 87736, Note_on_c, 0, 48, 0
2, 87739, Note_on_c, 0, 58, 74
2, 87739, Note_on_c, 0, 67, 78
2, 87740, Note_on_c, 0, 48, 64
2, 87749, Note_on_c, 0, 71, 0
2, 87764, Note_on_c, 0, 64, 0
2, 87765, Note_on_c, 0, 76, 0
2, 87767, Note_on_c, 0, 67, 0
2, 87770, Note_on_c, 0, 55, 0
2, 87771, Control_c, 0, 64, 0
2, 87776, Note_on_c, 0, 74, 0
2, 87777, Note_on_c, 0, 58, 0
2, 87779, Note_on_c, 0, 48, 0
2, 87993, Note_on_c, 0, 76, 86
2, 87994, Note_on_c, 0, 48, 69
2, 87995, Note_on_c, 0, 67, 70
2, 87995, Note_on_c, 0, 36, 62
2, 88003, Note_on_c, 0, 70, 60
2, 88028, Control_c, 0, 64, 127
2, 88220, Note_on_c, 0, 48, 0
2, 88228, Note_on_c, 0, 48, 43
2, 88299, Note_on_c, 0, 60, 60
2, 88300, Note_on_c, 0, 72, 58
2, 88304, Note_on_c, 0, 72, 0
2, 88317, Control_c, 0, 64, 0
2, 88323, Note_on_c, 0, 67, 0
2, 88323, Note_on_c, 0, 70, 0
2, 88324, Note_on_c, 0, 76, 0
2, 88326, Note_on_c, 0, 48, 0
2, 88335, Note_on_c, 0, 36, 0
2, 88338, Note_on_c, 0, 60, 0
2, 88363, Note_on_c, 0, 62, 78
2, 88369, Note_on_c, 0, 74, 73
2, 88373, Note_on_c, 0, 74, 0
2, 88397, Note_on_c, 0, 41, 61
2, 88401, Note_on_c, 0, 64, 81
2, 88424, Note_on_c, 0, 62, 0
2, 88522, Note_on_c, 0, 48, 69
2, 88523, Note_on_c, 0, 67, 84
2, 88568, Note_on_c, 0, 64, 0
2, 88623, Note_on_c, 0, 67, 0
2, 88642, Note_on_c, 0, 48, 0
2, 88644, Note_on_c, 0, 69, 81
2, 88645, Note_on_c, 0, 53, 59
2, 88649, Note_on_c, 0, 57, 65
2, 88649, Note_on_c, 0, 48, 56
2, 88704, Note_on_c, 0, 41, 0
2, 88706, Note_on_c, 0, 53, 0
2, 88738, Note_on_c, 0, 57, 0
2, 88765, Note_on_c, 0, 48, 0
2, 88774, Note_on_c, 0, 64, 81
2, 88776, Note_on_c, 0, 48, 58
2, 88778, Note_on_c, 0, 69, 0
2, 88847, Note_on_c, 0, 48, 0
2, 88891, Note_on_c, 0, 41, 62
2, 89012, Note_on_c, 0, 48, 62
2, 89015, Note_on_c, 0, 62, 83
2, 89031, Note_on_c, 0, 64, 0
2, 89051, Note_on_c, 0, 62, 0
2, 89072, Note_on_c, 0, 41, 0
2, 89108, Note_on_c, 0, 48, 0
2, 89144, Note_on_c, 0, 53, 59
2, 89150, Note_on_c, 0, 62, 81
2, 89152, Note_on_c, 0, 57, 67
2, 89199, Note_on_c, 0, 53, 0
2, 89216, Note_on_c, 0, 57, 0
2, 89265, Note_on_c, 0, 48, 63
2, 89337, Note_on_c, 0, 48, 0
2, 89400, Note_on_c, 0, 41, 62
2, 89482, Note_on_c, 0, 62, 0
2, 89491, Note_on_c, 0, 41, 0
2, 89524, Note_on_c, 0, 48, 63
2, 89527, Note_on_c, 0, 60, 68
2, 89591, Note_on_c, 0, 60, 0
2, 89596, Note_on_c, 0, 48, 0
2, 89602, Note_on_c, 0, 62, 73
2, 89629, Note_on_c, 0, 62, 0
2, 89652, Note_on_c, 0, 53, 69
2, 89652, Note_on_c, 0, 64, 74
2, 89666, Note_on_c, 0, 57, 69
2, 89720, Note_on_c, 0, 62, 72
2, 89767, Note_on_c, 0, 62, 0
2, 89774, Note_on_c, 0, 57, 0
2, 89778, Note_on_c, 0, 53, 0
2, 89785, Note_on_c, 0, 64, 0
2, 89792, Note_on_c, 0, 60, 75
2, 89797, Note_on_c, 0, 48, 65
2, 89835, Note_on_c, 0, 62, 71
2, 89849, Note_on_c, 0, 60, 0
2, 89851, Note_on_c, 0, 48, 0
2, 89863, Note_on_c, 0, 62, 0
2, 89905, Note_on_c, 0, 67, 85
2, 89906, Note_on_c, 0, 41, 67
2, 89974, Note_on_c, 0, 64, 79
2, 90005, Note_on_c, 0, 67, 0
2, 90005, Note_on_c, 0, 41, 0
2, 90007, Note_on_c, 0, 48, 68
2, 90014, Note_on_c, 0, 64, 0
2, 90045, Note_on_c, 0, 62, 80
2, 90074, Note_on_c, 0, 48, 0
2, 90082, Note_on_c, 0, 62, 0
2, 90143, Note_on_c, 0, 53, 71
2, 90144, Note_on_c, 0, 69, 87
2, 90149, Note_on_c, 0, 57, 75
2, 90183, Note_on_c, 0, 53, 0
2, 90193, Note_on_c, 0, 57, 0
2, 90215, Note_on_c, 0, 69, 0
2, 90226, Note_on_c, 0, 48, 63
2, 90227, Note_on_c, 0, 67, 73
2, 90274, Note_on_c, 0, 67, 0
2, 90278, Note_on_c, 0, 48, 0
2, 90286, Note_on_c, 0, 48, 63
2, 90288, Note_on_c, 0, 64, 82
2, 90343, Note_on_c, 0, 48, 0
2, 90345, Note_on_c, 0, 64, 0
2, 90355, Note_on_c, 0, 67, 74
2, 90399, Note_on_c, 0, 67, 0
2, 90406, Note_on_c, 0, 71, 91
2, 90410, Note_on_c, 0, 40, 79
2, 90468, Note_on_c, 0, 67, 78
2, 90478, Control_c, 0, 64, 127
2, 90516, Note_on_c, 0, 47, 63
2, 90521, Note_on_c, 0, 64, 71
2, 90604, Note_on_c, 0, 62, 74
2, 90649, Note_on_c, 0, 52, 70
2, 90658, Note_on_c, 0, 55, 68
2, 90700, Note_on_c, 0, 67, 0
2, 90706, Note_on_c, 0, 67, 76
2, 90739, Note_on_c, 0, 47, 0
2, 90748, Note_on_c, 0, 47, 77
2, 90769, Note_on_c, 0, 71, 0
2, 90777, Note_on_c, 0, 71, 83
2, 90842, Note_on_c, 0, 74, 87
2, 90878, Note_on_c, 0, 52, 0
2, 90885, Note_on_c, 0, 40, 0
2, 90889, Note_on_c, 0, 64, 0
2, 90895, Note_on_c, 0, 40, 81
2, 90896, Note_on_c, 0, 76, 80
2, 90944, Note_on_c, 0, 79, 85
2, 90984, Note_on_c, 0, 47, 0
2, 90991, Note_on_c, 0, 47, 68
2, 90992, Note_on_c, 0, 74, 0
2, 91033, Note_on_c, 0, 83, 89
2, 91066, Note_on_c, 0, 52, 67
2, 91093, Note_on_c, 0, 86, 85
2, 91137, Note_on_c, 0, 88, 94
2, 91161, Note_on_c, 0, 55, 0
2, 91170, Note_on_c, 0, 55, 78
2, 91253, Note_on_c, 0, 62, 0
2, 91253, Note_on_c, 0, 71, 0
2, 91259, Control_c, 0, 64, 0
2, 91262, Note_on_c, 0, 67, 0
2, 91263, Note_on_c, 0, 55, 0
2, 91263, Note_on_c, 0, 47, 0
2, 91264, Note_on_c, 0, 76, 0
2, 91265, Note_on_c, 0, 40, 0
2, 91265, Note_on_c, 0, 88, 0
2, 91269, Note_on_c, 0, 86, 0
2, 91269, Note_on_c, 0, 45, 82
2, 91276, Note_on_c, 0, 86, 100
2, 91276, Note_on_c, 0, 52, 0
2, 91276, Note_on_c, 0, 79, 0
2, 91276, Note_on_c, 0, 83, 0
2, 91280, Note_on_c, 0, 74, 95
2, 91282, Note_on_c, 0, 79, 86
2, 91287, Note_on_c, 0, 83, 88
2, 91392, Control_c, 0, 64, 127
2, 91411, Note_on_c, 0, 52, 69
2, 91522, Note_on_c, 0, 79, 0
2, 91528, Note_on_c, 0, 85, 91
2, 91530, Note_on_c, 0, 45, 0
2, 91531, Note_on_c, 0, 57, 82
2, 91533, Note_on_c, 0, 79, 60
2, 91534, Note_on_c, 0, 73, 87
2, 91534, Note_on_c, 0, 45, 72
2, 91653, Note_on_c, 0, 73, 0
2, 91653, Note_on_c, 0, 85, 0
2, 91659, Note_on_c, 0, 85, 91
2, 91663, Note_on_c, 0, 61, 82
2, 91664, Note_on_c, 0, 81, 86
2, 91664, Note_on_c, 0, 73, 87
2, 91670, Note_on_c, 0, 76, 75
2, 91790, Note_on_c, 0, 69, 89
2, 92072, Note_on_c, 0, 64, 68
2, 92175, Note_on_c, 0, 57, 0
2, 92175, Note_on_c, 0, 69, 0
2, 92179, Note_on_c, 0, 57, 75
2, 92180, Note_on_c, 0, 69, 63
2, 92198, Note_on_c, 0, 45, 0
2, 92209, Note_on_c, 0, 45, 58
2, 92328, Note_on_c, 0, 86, 0
2, 92338, Note_on_c, 0, 86, 85
2, 92374, Note_on_c, 0, 85, 0
2, 92375, Note_on_c, 0, 69, 0
2, 92375, Note_on_c, 0, 52, 0
2, 92376, Note_on_c, 0, 61, 0
2, 92376, Note_on_c, 0, 64, 0
2, 92376, Control_c, 0, 64, 0
2, 92376, Note_on_c, 0, 73, 0
2, 92376, Note_on_c, 0, 57, 0
2, 92377, Note_on_c, 0, 81, 0
2, 92377, Note_on_c, 0, 79, 0
2, 92377, Note_on_c, 0, 45, 0
2, 92377, Note_on_c, 0, 76, 0
2, 92380, Note_on_c, 0, 74, 0
2, 92395, Note_on_c, 0, 88, 72
2, 92398, Note_on_c, 0, 83, 0
2, 92421, Note_on_c, 0, 86, 0
2, 92433, Note_on_c, 0, 89, 97
2, 92455, Note_on_c, 0, 50, 94
2, 92458, Note_on_c, 0, 38, 94
2, 92482, Control_c, 0, 64, 127
2, 92513, Note_on_c, 0, 88, 0
2, 92517, Note_on_c, 0, 100, 76
2, 92518, Note_on_c, 0, 88, 88
2, 92528, Note_on_c, 0, 100, 0
2, 92574, Note_on_c, 0, 84, 74
2, 92632, Note_on_c, 0, 81, 84
2, 92700, Note_on_c, 0, 77, 76
2, 92778, Note_on_c, 0, 76, 76
2, 92832, Note_on_c, 0, 53, 74
2, 92833, Note_on_c, 0, 60, 77
2, 92837, Note_on_c, 0, 72, 79
2, 92838, Note_on_c, 0, 57, 74
2, 92901, Note_on_c, 0, 69, 69
2, 92962, Note_on_c, 0, 65, 87
2, 93020, Note_on_c, 0, 69, 0
2, 93026, Note_on_c, 0, 69, 76
2, 93081, Note_on_c, 0, 72, 0
2, 93092, Note_on_c, 0, 72, 80
2, 93096, Note_on_c, 0, 50, 0
2, 93101, Note_on_c, 0, 50, 70
2, 93127, Note_on_c, 0, 76, 0
2, 93134, Note_on_c, 0, 76, 82
2, 93204, Note_on_c, 0, 60, 0
2, 93204, Note_on_c, 0, 77, 0
2, 93212, Note_on_c, 0, 53, 0
2, 93212, Note_on_c, 0, 57, 0
2, 93215, Note_on_c, 0, 77, 80
2, 93215, Note_on_c, 0, 60, 84
2, 93216, Note_on_c, 0, 53, 79
2, 93218, Note_on_c, 0, 57, 79
2, 93281, Note_on_c, 0, 81, 0
2, 93286, Note_on_c, 0, 81, 87
2, 93350, Note_on_c, 0, 84, 0
2, 93354, Note_on_c, 0, 84, 83
2, 93396, Note_on_c, 0, 88, 0
2, 93402, Note_on_c, 0, 88, 78
2, 93403, Note_on_c, 0, 84, 0
2, 93404, Control_c, 0, 64, 0
2, 93405, Note_on_c, 0, 77, 0
2, 93406, Note_on_c, 0, 53, 0
2, 93406, Note_on_c, 0, 81, 0
2, 93406, Note_on_c, 0, 38, 0
2, 93406, Note_on_c, 0, 76, 0
2, 93406, Note_on_c, 0, 57, 0
2, 93407, Note_on_c, 0, 69, 0
2, 93407, Note_on_c, 0, 89, 0
2, 93407, Note_on_c, 0, 65, 0
2, 93407, Note_on_c, 0, 50, 0
2, 93427, Note_on_c, 0, 60, 0
2, 93427, Note_on_c, 0, 72, 0
2, 93460, Note_on_c, 0, 91, 99
2, 93463, Note_on_c, 0, 52, 101
2, 93467, Note_on_c, 0, 40, 94
2, 93473, Note_on_c, 0, 88, 0
2, 93531, Note_on_c, 0, 88, 80
2, 93557, Control_c, 0, 64, 127
2, 93591, Note_on_c, 0, 86, 73
2, 93653, Note_on_c, 0, 83, 79
2, 93703, Note_on_c, 0, 52, 0
2, 93709, Note_on_c, 0, 79, 76
2, 93713, Note_on_c, 0, 52, 75
2, 93714, Note_on_c, 0, 76, 75
2, 93780, Note_on_c, 0, 76, 0
2, 93787, Note_on_c, 0, 76, 76
2, 93852, Note_on_c, 0, 62, 88
2, 93853, Note_on_c, 0, 59, 78
2, 93856, Note_on_c, 0, 55, 74
2, 93914, Note_on_c, 0, 74, 69
2, 93919, Note_on_c, 0, 71, 68
2, 93976, Note_on_c, 0, 67, 84
2, 94033, Note_on_c, 0, 71, 0
2, 94040, Note_on_c, 0, 71, 80
2, 94095, Note_on_c, 0, 74, 0
2, 94106, Note_on_c, 0, 74, 80
2, 94126, Note_on_c, 0, 52, 0
2, 94130, Note_on_c, 0, 52, 89
2, 94149, Note_on_c, 0, 76, 0
2, 94156, Note_on_c, 0, 76, 87
2, 94210, Note_on_c, 0, 40, 0
2, 94225, Note_on_c, 0, 79, 0
2, 94233, Note_on_c, 0, 55, 0
2, 94233, Note_on_c, 0, 62, 0
2, 94236, Note_on_c, 0, 79, 83
2, 94238, Note_on_c, 0, 62, 86
2, 94240, Note_on_c, 0, 55, 81
2, 94241, Note_on_c, 0, 59, 0
2, 94245, Note_on_c, 0, 59, 74
2, 94295, Note_on_c, 0, 83, 0
2, 94302, Note_on_c, 0, 83, 86
2, 94356, Note_on_c, 0, 86, 0
2, 94362, Note_on_c, 0, 86, 82
2, 94408, Note_on_c, 0, 62, 0
2, 94408, Note_on_c, 0, 89, 76
2, 94409, Note_on_c, 0, 59, 0
2, 94409, Note_on_c, 0, 67, 0
2, 94409, Note_on_c, 0, 76, 0
2, 94409, Note_on_c, 0, 71, 0
2, 94409, Note_on_c, 0, 86, 0
2, 94410, Note_on_c, 0, 88, 0
2, 94410, Note_on_c, 0, 79, 0
2, 94410, Note_on_c, 0, 55, 0
2, 94410, Note_on_c, 0, 91, 0
2, 94410, Note_on_c, 0, 83, 0
2, 94410, Control_c, 0, 64, 0
2, 94417, Note_on_c, 0, 74, 0
2, 94425, Note_on_c, 0, 52, 0
2, 94469, Note_on_c, 0, 93, 101
2, 94481, Note_on_c, 0, 53, 97
2, 94481, Note_on_c, 0, 41, 91
2, 94525, Control_c, 0, 64, 127
2, 94540, Note_on_c, 0, 89, 0
2, 94545, Note_on_c, 0, 91, 64
2, 94546, Note_on_c, 0, 89, 86
2, 94608, Note_on_c, 0, 84, 71
2, 94674, Note_on_c, 0, 81, 74
2, 94740, Note_on_c, 0, 53, 0
2, 94740, Note_on_c, 0, 89, 0
2, 94744, Note_on_c, 0, 89, 90
2, 94750, Note_on_c, 0, 53, 85
2, 94794, Note_on_c, 0, 84, 0
2, 94802, Note_on_c, 0, 84, 75
2, 94855, Note_on_c, 0, 81, 0
2, 94860, Note_on_c, 0, 81, 75
2, 94865, Note_on_c, 0, 57, 76
2, 94866, Note_on_c, 0, 60, 73
2, 94912, Note_on_c, 0, 77, 74
2, 94988, Note_on_c, 0, 88, 92
2, 95009, Note_on_c, 0, 84, 0
2, 95019, Note_on_c, 0, 84, 67
2, 95078, Note_on_c, 0, 81, 0
2, 95084, Note_on_c, 0, 81, 77
2, 95124, Note_on_c, 0, 53, 0
2, 95124, Note_on_c, 0, 77, 0
2, 95128, Note_on_c, 0, 53, 73
2, 95129, Note_on_c, 0, 77, 70
2, 95239, Note_on_c, 0, 57, 0
2, 95239, Note_on_c, 0, 60, 0
2, 95239, Note_on_c, 0, 84, 0
2, 95246, Note_on_c, 0, 60, 77
2, 95248, Note_on_c, 0, 57, 83
2, 95250, Note_on_c, 0, 84, 92
2, 95251, Note_on_c, 0, 72, 86
2, 95307, Note_on_c, 0, 41, 0
2, 95308, Note_on_c, 0, 91, 0
2, 95309, Note_on_c, 0, 77, 0
2, 95309, Note_on_c, 0, 57, 0
2, 95309, Note_on_c, 0, 89, 0
2, 95309, Note_on_c, 0, 53, 0
2, 95310, Note_on_c, 0, 93, 0
2, 95310, Note_on_c, 0, 84, 0
2, 95310, Note_on_c, 0, 81, 0
2, 95311, Note_on_c, 0, 60, 0
2, 95315, Control_c, 0, 64, 0
2, 95316, Note_on_c, 0, 88, 0
2, 95324, Note_on_c, 0, 72, 0
2, 95379, Note_on_c, 0, 88, 98
2, 95388, Note_on_c, 0, 76, 87
2, 95389, Note_on_c, 0, 43, 85
2, 95389, Note_on_c, 0, 79, 83
2, 95393, Note_on_c, 0, 83, 84
2, 95397, Note_on_c, 0, 55, 81
2, 95431, Control_c, 0, 64, 127
2, 95639, Note_on_c, 0, 55, 0
2, 95643, Note_on_c, 0, 86, 88
2, 95644, Note_on_c, 0, 55, 69
2, 95655, Note_on_c, 0, 74, 78
2, 95761, Note_on_c, 0, 86, 0
2, 95769, Note_on_c, 0, 74, 0
2, 95771, Note_on_c, 0, 59, 69
2, 95773, Note_on_c, 0, 86, 85
2, 95777, Note_on_c, 0, 79, 0
2, 95777, Note_on_c, 0, 83, 0
2, 95779, Note_on_c, 0, 74, 74
2, 95783, Note_on_c, 0, 83, 78
2, 95785, Note_on_c, 0, 79, 72
2, 95905, Note_on_c, 0, 67, 76
2, 96038, Note_on_c, 0, 62, 72
2, 96145, Note_on_c, 0, 59, 0
2, 96153, Note_on_c, 0, 59, 64
2, 96291, Note_on_c, 0, 55, 0
2, 96296, Note_on_c, 0, 55, 66
2, 96502, Note_on_c, 0, 83, 0
2, 96502, Note_on_c, 0, 67, 0
2, 96502, Note_on_c, 0, 62, 0
2, 96502, Note_on_c, 0, 86, 0
2, 96502, Note_on_c, 0, 79, 0
2, 96502, Note_on_c, 0, 59, 0
2, 96502, Note_on_c, 0, 55, 0
2, 96502, Note_on_c, 0, 76, 0
2, 96502, Note_on_c, 0, 43, 0
2, 96503, Control_c, 0, 64, 0
2, 96503, Note_on_c, 0, 74, 0
2, 96514, Note_on_c, 0, 88, 0
2, 96571, Note_on_c, 0, 91, 94
2, 96577, Note_on_c, 0, 44, 77
2, 96578, Note_on_c, 0, 79, 84
2, 96606, Control_c, 0, 64, 127
2, 96634, Note_on_c, 0, 51, 53
2, 96685, Note_on_c, 0, 55, 62
2, 96772, Note_on_c, 0, 56, 66
2, 96830, Note_on_c, 0, 58, 63
2, 96899, Note_on_c, 0, 60, 53
2, 96961, Note_on_c, 0, 62, 67
2, 97033, Note_on_c, 0, 63, 70
2, 97097, Note_on_c, 0, 65, 52
2, 97151, Note_on_c, 0, 67, 67
2, 97213, Note_on_c, 0, 91, 0
2, 97221, Note_on_c, 0, 79, 0
2, 97221, Note_on_c, 0, 68, 71
2, 97224, Note_on_c, 0, 91, 85
2, 97225, Note_on_c, 0, 79, 82
2, 97258, Note_on_c, 0, 70, 45
2, 97274, Note_on_c, 0, 89, 43
2, 97282, Note_on_c, 0, 89, 0
2, 97329, Note_on_c, 0, 72, 71
2, 97344, Note_on_c, 0, 79, 0
2, 97344, Note_on_c, 0, 91, 0
2, 97348, Note_on_c, 0, 91, 83
2, 97354, Note_on_c, 0, 79, 78
2, 97396, Note_on_c, 0, 74, 65
2, 97459, Note_on_c, 0, 91, 0
2, 97466, Note_on_c, 0, 79, 0
2, 97470, Note_on_c, 0, 91, 83
2, 97471, Note_on_c, 0, 79, 75
2, 97471, Note_on_c, 0, 75, 70
2, 97578, Note_on_c, 0, 56, 0
2, 97578, Note_on_c, 0, 51, 0
2, 97578, Note_on_c, 0, 67, 0
2, 97578, Note_on_c, 0, 63, 0
2, 97578, Note_on_c, 0, 65, 0
2, 97578, Note_on_c, 0, 62, 0
2, 97578, Control_c, 0, 64, 0
2, 97578, Note_on_c, 0, 74, 0
2, 97579, Note_on_c, 0, 58, 0
2, 97579, Note_on_c, 0, 55, 0
2, 97579, Note_on_c, 0, 79, 0
2, 97579, Note_on_c, 0, 44, 0
2, 97579, Note_on_c, 0, 72, 0
2, 97579, Note_on_c, 0, 60, 0
2, 97579, Note_on_c, 0, 75, 0
2, 97582, Note_on_c, 0, 70, 0
2, 97589, Note_on_c, 0, 68, 0
2, 97606, Note_on_c, 0, 96, 90
2, 97611, Note_on_c, 0, 84, 82
2, 97689, Control_c, 0, 64, 127
2, 97761, Note_on_c, 0, 75, 69
2, 97766, Note_on_c, 0, 91, 0
2, 97878, Note_on_c, 0, 91, 90
2, 97883, Note_on_c, 0, 74, 64
2, 97884, Note_on_c, 0, 79, 80
2, 97989, Note_on_c, 0, 72, 69
2, 98133, Note_on_c, 0, 89, 88
2, 98137, Note_on_c, 0, 67, 68
2, 98139, Note_on_c, 0, 77, 73
2, 98257, Note_on_c, 0, 63, 65
2, 98393, Note_on_c, 0, 87, 84
2, 98396, Note_on_c, 0, 75, 0
2, 98399, Note_on_c, 0, 62, 57
2, 98405, Note_on_c, 0, 75, 72
2, 98499, Note_on_c, 0, 60, 69
2, 98625, Note_on_c, 0, 67, 0
2, 98625, Note_on_c, 0, 75, 0
2, 98625, Note_on_c, 0, 62, 0
2, 98625, Note_on_c, 0, 87, 0
2, 98626, Note_on_c, 0, 63, 0
2, 98626, Note_on_c, 0, 91, 0
2, 98626, Note_on_c, 0, 79, 0
2, 98626, Note_on_c, 0, 60, 0
2, 98626, Note_on_c, 0, 77, 0
2, 98627, Note_on_c, 0, 72, 0
2, 98627, Note_on_c, 0, 74, 0
2, 98628, Note_on_c, 0, 84, 0
2, 98628, Note_on_c, 0, 96, 0
2, 98631, Control_c, 0, 64, 0
2, 98657, Note_on_c, 0, 89, 0
2, 98660, Note_on_c, 0, 43, 71
2, 98660, Note_on_c, 0, 31, 75
2, 98661, Note_on_c, 0, 89, 90
2, 98662, Note_on_c, 0, 77, 82
2, 98664, Note_on_c, 0, 86, 79
2, 98668, Note_on_c, 0, 82, 84
2, 98703, Control_c, 0, 64, 127
2, 98734, Note_on_c, 0, 31, 0
2, 98740, Note_on_c, 0, 50, 68
2, 98813, Note_on_c, 0, 53, 63
2, 98870, Note_on_c, 0, 55, 60
2, 98920, Note_on_c, 0, 91, 86
2, 98927, Note_on_c, 0, 79, 78
2, 98953, Note_on_c, 0, 56, 62
2, 99003, Note_on_c, 0, 58, 65
2, 99048, Note_on_c, 0, 77, 0
2, 99048, Note_on_c, 0, 89, 0
2, 99052, Note_on_c, 0, 60, 67
2, 99053, Note_on_c, 0, 89, 85
2, 99056, Note_on_c, 0, 77, 78
2, 99127, Note_on_c, 0, 62, 74
2, 99181, Note_on_c, 0, 63, 66
2, 99244, Note_on_c, 0, 65, 63
2, 99294, Note_on_c, 0, 86, 0
2, 99305, Note_on_c, 0, 86, 84
2, 99311, Note_on_c, 0, 67, 74
2, 99388, Note_on_c, 0, 68, 73
2, 99432, Note_on_c, 0, 82, 0
2, 99438, Note_on_c, 0, 82, 83
2, 99444, Note_on_c, 0, 70, 70
2, 99489, Note_on_c, 0, 72, 67
2, 99502, Note_on_c, 0, 70, 0
2, 99507, Note_on_c, 0, 70, 63
2, 99567, Note_on_c, 0, 74, 71
2, 99618, Note_on_c, 0, 62, 0
2, 99618, Note_on_c, 0, 50, 0
2, 99618, Note_on_c, 0, 65, 0
2, 99618, Note_on_c, 0, 60, 0
2, 99618, Note_on_c, 0, 55, 0
2, 99618, Note_on_c, 0, 68, 0
2, 99619, Note_on_c, 0, 56, 0
2, 99619, Note_on_c, 0, 67, 0
2, 99619, Note_on_c, 0, 77, 0
2, 99619, Note_on_c, 0, 79, 0
2, 99619, Note_on_c, 0, 58, 0
2, 99619, Note_on_c, 0, 91, 0
2, 99619, Note_on_c, 0, 89, 0
2, 99619, Note_on_c, 0, 86, 0
2, 99620, Note_on_c, 0, 53, 0
2, 99620, Note_on_c, 0, 70, 0
2, 99620, Note_on_c, 0, 72, 0
2, 99620, Note_on_c, 0, 63, 0
2, 99620, Note_on_c, 0, 82, 0
2, 99620, Control_c, 0, 64, 0
2, 99621, Note_on_c, 0, 74, 0
2, 99632, Note_on_c, 0, 43, 0
2, 99637, Note_on_c, 0, 75, 68
2, 99674, Note_on_c, 0, 75, 0
2, 99694, Note_on_c, 0, 77, 75
2, 99824, Control_c, 0, 64, 127
2, 99834, Note_on_c, 0, 75, 65
2, 99934, Note_on_c, 0, 74, 60
2, 100056, Note_on_c, 0, 70, 65
2, 100193, Note_on_c, 0, 75, 0
2, 100195, Note_on_c, 0, 87, 89
2, 100196, Note_on_c, 0, 65, 58
2, 100198, Note_on_c, 0, 75, 80
2, 100324, Note_on_c, 0, 63, 66
2, 100448, Note_on_c, 0, 62, 68
2, 100454, Note_on_c, 0, 77, 0
2, 100457, Note_on_c, 0, 89, 93
2, 100464, Note_on_c, 0, 77, 76
2, 100566, Note_on_c, 0, 58, 69
2, 100690, Note_on_c, 0, 65, 0
2, 100691, Note_on_c, 0, 58, 0
2, 100691, Note_on_c, 0, 62, 0
2, 100691, Note_on_c, 0, 77, 0
2, 100692, Note_on_c, 0, 70, 0
2, 100693, Note_on_c, 0, 89, 0
2, 100694, Note_on_c, 0, 63, 0
2, 100694, Control_c, 0, 64, 0
2, 100707, Note_on_c, 0, 74, 0
2, 100724, Note_on_c, 0, 47, 79
2, 100769, Note_on_c, 0, 75, 0
2, 100776, Control_c, 0, 64, 127
2, 100794, Note_on_c, 0, 51, 69
2, 100877, Note_on_c, 0, 54, 67
2, 100934, Note_on_c, 0, 59, 72
2, 100988, Note_on_c, 0, 94, 102
2, 100992, Note_on_c, 0, 87, 0
2, 100995, Note_on_c, 0, 82, 89
2, 100997, Note_on_c, 0, 90, 82
2, 100998, Note_on_c, 0, 87, 81
2, 101019, Note_on_c, 0, 61, 71
2, 101066, Note_on_c, 0, 63, 60
2, 101137, Note_on_c, 0, 65, 67
2, 101214, Note_on_c, 0, 66, 73
2, 101260, Note_on_c, 0, 68, 73
2, 101315, Note_on_c, 0, 70, 72
2, 101381, Note_on_c, 0, 71, 68
2, 101461, Note_on_c, 0, 73, 69
2, 101511, Note_on_c, 0, 75, 70
2, 101566, Note_on_c, 0, 77, 74
2, 101636, Note_on_c, 0, 78, 76
2, 101698, Note_on_c, 0, 80, 72
2, 101736, Note_on_c, 0, 47, 0
2, 101748, Note_on_c, 0, 94, 0
2, 101748, Note_on_c, 0, 70, 0
2, 101748, Note_on_c, 0, 54, 0
2, 101748, Note_on_c, 0, 68, 0
2, 101748, Note_on_c, 0, 65, 0
2, 101748, Control_c, 0, 64, 0
2, 101748, Note_on_c, 0, 75, 0
2, 101748, Note_on_c, 0, 66, 0
2, 101748, Note_on_c, 0, 87, 0
2, 101748, Note_on_c, 0, 61, 0
2, 101748, Note_on_c, 0, 63, 0
2, 101748, Note_on_c, 0, 59, 0
2, 101748, Note_on_c, 0, 71, 0
2, 101749, Note_on_c, 0, 73, 0
2, 101749, Note_on_c, 0, 51, 0
2, 101749, Note_on_c, 0, 90, 0
2, 101749, Note_on_c, 0, 77, 0
2, 101749, Note_on_c, 0, 78, 0
2, 101749, Note_on_c, 0, 80, 0
2, 101752, Note_on_c, 0, 82, 0
2, 101763, Note_on_c, 0, 82, 88
2, 101859, Control_c, 0, 64, 127
2, 101890, Note_on_c, 0, 82, 0
2, 101895, Note_on_c, 0, 78, 72
2, 101896, Note_on_c, 0, 94, 90
2, 101900, Note_on_c, 0, 82, 77
2, 102009, Note_on_c, 0, 77, 53
2, 102013, Note_on_c, 0, 82, 0
2, 102013, Note_on_c, 0, 94, 0
2, 102020, Note_on_c, 0, 94, 84
2, 102020, Note_on_c, 0, 82, 61
2, 102115, Note_on_c, 0, 75, 68
2, 102144, Note_on_c, 0, 82, 0
2, 102144, Note_on_c, 0, 94, 0
2, 102148, Note_on_c, 0, 94, 93
2, 102154, Note_on_c, 0, 82, 82
2, 102259, Note_on_c, 0, 94, 0
2, 102266, Note_on_c, 0, 82, 0
2, 102269, Note_on_c, 0, 94, 90
2, 102269, Note_on_c, 0, 70, 77
2, 102273, Note_on_c, 0, 82, 70
2, 102393, Note_on_c, 0, 92, 82
2, 102394, Note_on_c, 0, 80, 83
2, 102395, Note_on_c, 0, 66, 70
2, 102504, Note_on_c, 0, 65, 58
2, 102504, Note_on_c, 0, 66, 0
2, 102504, Note_on_c, 0, 78, 0
2, 102514, Note_on_c, 0, 66, 68
2, 102515, Note_on_c, 0, 90, 91
2, 102516, Note_on_c, 0, 78, 84
2, 102612, Note_on_c, 0, 63, 73
2, 102635, Note_on_c, 0, 94, 0
2, 102639, Note_on_c, 0, 94, 103
2, 102643, Note_on_c, 0, 82, 0
2, 102654, Note_on_c, 0, 82, 91
2, 102666, Note_on_c, 0, 65, 0
2, 102725, Note_on_c, 0, 78, 0
2, 102725, Note_on_c, 0, 90, 0
2, 102725, Note_on_c, 0, 70, 0
2, 102725, Note_on_c, 0, 77, 0
2, 102725, Note_on_c, 0, 66, 0
2, 102725, Note_on_c, 0, 80, 0
2, 102726, Note_on_c, 0, 75, 0
2, 102728, Note_on_c, 0, 92, 0
2, 102728, Control_c, 0, 64, 0
2, 102729, Note_on_c, 0, 63, 0
2, 102756, Note_on_c, 0, 46, 78
2, 102812, Control_c, 0, 64, 127
2, 102841, Note_on_c, 0, 53, 64
2, 102897, Note_on_c, 0, 58, 72
2, 102952, Note_on_c, 0, 60, 67
2, 103029, Note_on_c, 0, 62, 75
2, 103088, Note_on_c, 0, 63, 72
2, 103156, Note_on_c, 0, 65, 68
2, 103228, Note_on_c, 0, 67, 69
2, 103300, Note_on_c, 0, 68, 72
2, 103362, Note_on_c, 0, 70, 69
2, 103413, Note_on_c, 0, 72, 61
2, 103476, Note_on_c, 0, 74, 72
2, 103521, Note_on_c, 0, 75, 72
2, 103575, Note_on_c, 0, 77, 72
2, 103666, Note_on_c, 0, 79, 58
2, 103744, Note_on_c, 0, 80, 66
2, 103781, Note_on_c, 0, 62, 0
2, 103782, Note_on_c, 0, 53, 0
2, 103782, Note_on_c, 0, 70, 0
2, 103782, Note_on_c, 0, 58, 0
2, 103782, Note_on_c, 0, 65, 0
2, 103782, Note_on_c, 0, 67, 0
2, 103782, Note_on_c, 0, 63, 0
2, 103782, Note_on_c, 0, 68, 0
2, 103782, Note_on_c, 0, 74, 0
2, 103782, Note_on_c, 0, 72, 0
2, 103782, Note_on_c, 0, 77, 0
2, 103783, Note_on_c, 0, 60, 0
2, 103783, Control_c, 0, 64, 0
2, 103783, Note_on_c, 0, 75, 0
2, 103783, Note_on_c, 0, 79, 0
2, 103787, Note_on_c, 0, 94, 0
2, 103795, Note_on_c, 0, 46, 0
2, 103818, Note_on_c, 0, 82, 0
2, 103826, Note_on_c, 0, 82, 83
2, 103827, Note_on_c, 0, 58, 54
2, 103828, Note_on_c, 0, 70, 54
2, 103853, Note_on_c, 0, 80, 0
2, 103987, Control_c, 0, 64, 127
2, 104362, Note_on_c, 0, 91, 81
2, 104368, Control_c, 0, 64, 0
2, 104368, Note_on_c, 0, 82, 0
2, 104378, Note_on_c, 0, 58, 0
2, 104378, Note_on_c, 0, 70, 0
2, 104384, Note_on_c, 0, 70, 48
2, 104390, Note_on_c, 0, 58, 42
2, 104509, Control_c, 0, 64, 127
2, 104636, Note_on_c, 0, 94, 84
2, 104880, Control_c, 0, 64, 0
2, 104883, Note_on_c, 0, 70, 0
2, 104884, Note_on_c, 0, 91, 0
2, 104885, Note_on_c, 0, 58, 0
2, 104903, Note_on_c, 0, 96, 81
2, 104911, Note_on_c, 0, 68, 51
2, 104913, Note_on_c, 0, 84, 50
2, 104916, Note_on_c, 0, 56, 56
2, 104916, Note_on_c, 0, 68, 0
2, 104977, Note_on_c, 0, 84, 0
2, 104993, Control_c, 0, 64, 127
2, 105028, Note_on_c, 0, 84, 59
2, 105046, Note_on_c, 0, 63, 40
2, 105154, Note_on_c, 0, 96, 0
2, 105164, Note_on_c, 0, 96, 73
2, 105164, Note_on_c, 0, 72, 54
2, 105166, Note_on_c, 0, 68, 66
2, 105166, Note_on_c, 0, 87, 74
2, 105285, Note_on_c, 0, 84, 0
2, 105289, Note_on_c, 0, 84, 59
2, 105308, Note_on_c, 0, 63, 0
2, 105314, Note_on_c, 0, 63, 47
2, 105369, Note_on_c, 0, 94, 0
2, 105399, Note_on_c, 0, 63, 0
2, 105400, Note_on_c, 0, 84, 0
2, 105401, Note_on_c, 0, 87, 0
2, 105401, Control_c, 0, 64, 0
2, 105415, Note_on_c, 0, 96, 0
2, 105420, Note_on_c, 0, 96, 68
2, 105431, Note_on_c, 0, 56, 0
2, 105437, Note_on_c, 0, 56, 51
2, 105446, Note_on_c, 0, 72, 0
2, 105500, Control_c, 0, 64, 127
2, 105535, Note_on_c, 0, 98, 83
2, 105545, Note_on_c, 0, 86, 62
2, 105557, Note_on_c, 0, 84, 57
2, 105561, Note_on_c, 0, 63, 44
2, 105652, Note_on_c, 0, 99, 91
2, 105665, Note_on_c, 0, 87, 78
2, 105669, Note_on_c, 0, 68, 0
2, 105671, Note_on_c, 0, 72, 55
2, 105674, Note_on_c, 0, 68, 66
2, 105768, Note_on_c, 0, 63, 0
2, 105780, Note_on_c, 0, 63, 67
2, 105784, Note_on_c, 0, 99, 0
2, 105792, Note_on_c, 0, 99, 90
2, 105807, Note_on_c, 0, 84, 0
2, 105814, Note_on_c, 0, 84, 72
2, 105874, Control_c, 0, 64, 0
2, 105879, Note_on_c, 0, 84, 0
2, 105880, Note_on_c, 0, 87, 0
2, 105880, Note_on_c, 0, 72, 0
2, 105880, Note_on_c, 0, 68, 0
2, 105883, Note_on_c, 0, 56, 0
2, 105891, Note_on_c, 0, 86, 0
2, 105891, Note_on_c, 0, 98, 0
2, 105907, Note_on_c, 0, 63, 0
2, 105921, Note_on_c, 0, 51, 65
2, 105976, Note_on_c, 0, 99, 0
2, 105984, Control_c, 0, 64, 127
2, 106052, Note_on_c, 0, 63, 63
2, 106053, Note_on_c, 0, 94, 84
2, 106061, Note_on_c, 0, 82, 71
2, 106176, Note_on_c, 0, 94, 0
2, 106182, Note_on_c, 0, 70, 77
2, 106185, Note_on_c, 0, 87, 83
2, 106187, Note_on_c, 0, 94, 81
2, 106202, Note_on_c, 0, 67, 56
2, 106298, Note_on_c, 0, 63, 0
2, 106306, Note_on_c, 0, 82, 0
2, 106310, Note_on_c, 0, 63, 65
2, 106315, Note_on_c, 0, 82, 70
2, 106398, Note_on_c, 0, 96, 0
2, 106406, Note_on_c, 0, 51, 0
2, 106410, Note_on_c, 0, 70, 0
2, 106410, Note_on_c, 0, 67, 0
2, 106410, Note_on_c, 0, 87, 0
2, 106410, Note_on_c, 0, 82, 0
2, 106411, Control_c, 0, 64, 0
2, 106429, Note_on_c, 0, 63, 0
2, 106429, Note_on_c, 0, 94, 0
2, 106440, Note_on_c, 0, 94, 89
2, 106441, Note_on_c, 0, 51, 69
2, 106449, Note_on_c, 0, 82, 62
2, 106513, Control_c, 0, 64, 127
2, 106552, Note_on_c, 0, 82, 0
2, 106562, Note_on_c, 0, 82, 80
2, 106567, Note_on_c, 0, 92, 79
2, 106568, Note_on_c, 0, 63, 60
2, 106691, Note_on_c, 0, 91, 81
2, 106701, Note_on_c, 0, 70, 73
2, 106714, Note_on_c, 0, 87, 56
2, 106731, Note_on_c, 0, 67, 44
2, 106798, Note_on_c, 0, 63, 0
2, 106808, Note_on_c, 0, 63, 65
2, 106815, Note_on_c, 0, 89, 90
2, 106828, Note_on_c, 0, 82, 0
2, 106835, Note_on_c, 0, 82, 74
2, 106895, Note_on_c, 0, 94, 0
2, 106898, Note_on_c, 0, 91, 0
2, 106898, Note_on_c, 0, 67, 0
2, 106898, Note_on_c, 0, 92, 0
2, 106898, Note_on_c, 0, 51, 0
2, 106899, Note_on_c, 0, 63, 0
2, 106899, Note_on_c, 0, 87, 0
2, 106901, Control_c, 0, 64, 0
2, 106936, Note_on_c, 0, 70, 0
2, 106946, Note_on_c, 0, 46, 74
2, 107013, Control_c, 0, 64, 127
2, 107066, Note_on_c, 0, 89, 0
2, 107072, Note_on_c, 0, 89, 76
2, 107072, Note_on_c, 0, 62, 63
2, 107074, Note_on_c, 0, 82, 0
2, 107084, Note_on_c, 0, 82, 73
2, 107182, Note_on_c, 0, 89, 0
2, 107193, Note_on_c, 0, 89, 72
2, 107216, Note_on_c, 0, 70, 74
2, 107216, Note_on_c, 0, 86, 79
2, 107238, Note_on_c, 0, 65, 43
2, 107328, Note_on_c, 0, 62, 0
2, 107335, Note_on_c, 0, 82, 0
2, 107338, Note_on_c, 0, 62, 61
2, 107342, Note_on_c, 0, 82, 86
2, 107343, Note_on_c, 0, 70, 0
2, 107345, Note_on_c, 0, 74, 54
2, 107351, Note_on_c, 0, 70, 55
2, 107458, Note_on_c, 0, 89, 0
2, 107460, Control_c, 0, 64, 0
2, 107461, Note_on_c, 0, 65, 0
2, 107461, Note_on_c, 0, 86, 0
2, 107461, Note_on_c, 0, 70, 0
2, 107462, Note_on_c, 0, 82, 0
2, 107463, Note_on_c, 0, 89, 82
2, 107464, Note_on_c, 0, 101, 78
2, 107466, Note_on_c, 0, 46, 0
2, 107471, Note_on_c, 0, 46, 57
2, 107473, Note_on_c, 0, 62, 0
2, 107473, Note_on_c, 0, 74, 0
2, 107473, Note_on_c, 0, 101, 0
2, 107550, Control_c, 0, 64, 127
2, 107579, Note_on_c, 0, 91, 86
2, 107584, Note_on_c, 0, 82, 85
2, 107585, Note_on_c, 0, 62, 59
2, 107714, Note_on_c, 0, 92, 89
2, 107716, Note_on_c, 0, 86, 78
2, 107724, Note_on_c, 0, 58, 62
2, 107811, Note_on_c, 0, 62, 0
2, 107822, Note_on_c, 0, 62, 65
2, 107834, Note_on_c, 0, 92, 0
2, 107841, Note_on_c, 0, 92, 96
2, 107850, Note_on_c, 0, 82, 0
2, 107856, Note_on_c, 0, 82, 83
2, 107903, Note_on_c, 0, 86, 0
2, 107905, Note_on_c, 0, 62, 0
2, 107905, Note_on_c, 0, 89, 0
2, 107906, Control_c, 0, 64, 0
2, 107907, Note_on_c, 0, 91, 0
2, 107907, Note_on_c, 0, 58, 0
2, 107911, Note_on_c, 0, 46, 0
2, 107969, Note_on_c, 0, 48, 64
2, 108019, Control_c, 0, 64, 127
2, 108091, Note_on_c, 0, 91, 81
2, 108093, Note_on_c, 0, 84, 78
2, 108093, Note_on_c, 0, 63, 67
2, 108093, Note_on_c, 0, 67, 50
2, 108103, Note_on_c, 0, 67, 0
2, 108203, Note_on_c, 0, 91, 0
2, 108214, Note_on_c, 0, 91, 96
2, 108219, Note_on_c, 0, 87, 86
2, 108221, Note_on_c, 0, 72, 74
2, 108235, Note_on_c, 0, 67, 57
2, 108303, Note_on_c, 0, 63, 0
2, 108308, Note_on_c, 0, 63, 70
2, 108341, Note_on_c, 0, 84, 0
2, 108346, Note_on_c, 0, 84, 74
2, 108441, Note_on_c, 0, 48, 0
2, 108446, Control_c, 0, 64, 0
2, 108450, Note_on_c, 0, 63, 0
2, 108451, Note_on_c, 0, 91, 0
2, 108451, Note_on_c, 0, 87, 0
2, 108451, Note_on_c, 0, 48, 57
2, 108452, Note_on_c, 0, 67, 0
2, 108452, Note_on_c, 0, 84, 0
2, 108472, Note_on_c, 0, 82, 0
2, 108472, Note_on_c, 0, 92, 0
2, 108487, Note_on_c, 0, 72, 0
2, 108533, Control_c, 0, 64, 127
2, 108579, Note_on_c, 0, 63, 62
2, 108583, Note_on_c, 0, 84, 74
2, 108583, Note_on_c, 0, 87, 80
2, 108687, Note_on_c, 0, 48, 0
2, 108702, Note_on_c, 0, 87, 0
2, 108703, Note_on_c, 0, 92, 91
2, 108713, Note_on_c, 0, 87, 81
2, 108719, Note_on_c, 0, 72, 72
2, 108723, Note_on_c, 0, 67, 59
2, 108840, Note_on_c, 0, 63, 0
2, 108844, Note_on_c, 0, 94, 90
2, 108845, Note_on_c, 0, 63, 61
2, 108849, Note_on_c, 0, 67, 0
2, 108932, Control_c, 0, 64, 0
2, 108934, Note_on_c, 0, 63, 0
2, 108934, Note_on_c, 0, 72, 0
2, 108934, Note_on_c, 0, 84, 0
2, 108956, Note_on_c, 0, 87, 0
2, 108963, Note_on_c, 0, 92, 0
2, 108968, Note_on_c, 0, 96, 92
2, 108974, Note_on_c, 0, 56, 65
2, 108975, Note_on_c, 0, 84, 69
2, 108976, Note_on_c, 0, 87, 59
2, 108986, Note_on_c, 0, 94, 0
2, 109025, Control_c, 0, 64, 127
2, 109079, Note_on_c, 0, 84, 0
2, 109090, Note_on_c, 0, 84, 65
2, 109091, Note_on_c, 0, 68, 37
2, 109095, Note_on_c, 0, 63, 41
2, 109102, Note_on_c, 0, 68, 0
2, 109209, Note_on_c, 0, 96, 0
2, 109214, Note_on_c, 0, 96, 93
2, 109217, Note_on_c, 0, 87, 0
2, 109219, Note_on_c, 0, 72, 64
2, 109221, Note_on_c, 0, 87, 80
2, 109223, Note_on_c, 0, 68, 73
2, 109340, Note_on_c, 0, 84, 0
2, 109348, Note_on_c, 0, 84, 60
2, 109355, Note_on_c, 0, 68, 0
2, 109363, Note_on_c, 0, 63, 0
2, 109365, Note_on_c, 0, 68, 45
2, 109368, Note_on_c, 0, 75, 46
2, 109370, Note_on_c, 0, 63, 47
2, 109378, Note_on_c, 0, 75, 0
2, 109453, Note_on_c, 0, 63, 0
2, 109453, Note_on_c, 0, 72, 0
2, 109454, Note_on_c, 0, 87, 0
2, 109455, Note_on_c, 0, 96, 0
2, 109459, Control_c, 0, 64, 0
2, 109463, Note_on_c, 0, 84, 0
2, 109465, Note_on_c, 0, 96, 93
2, 109470, Note_on_c, 0, 56, 0
2, 109470, Note_on_c, 0, 68, 0
2, 109474, Note_on_c, 0, 84, 70
2, 109474, Note_on_c, 0, 68, 66
2, 109481, Note_on_c, 0, 56, 69
2, 109532, Control_c, 0, 64, 127
2, 109587, Note_on_c, 0, 98, 97
2, 109592, Note_on_c, 0, 86, 72
2, 109593, Note_on_c, 0, 84, 0
2, 109601, Note_on_c, 0, 68, 0
2, 109604, Note_on_c, 0, 84, 63
2, 109605, Note_on_c, 0, 63, 56
2, 109606, Note_on_c, 0, 68, 54
2, 109711, Note_on_c, 0, 99, 90
2, 109716, Note_on_c, 0, 68, 0
2, 109720, Note_on_c, 0, 72, 62
2, 109727, Note_on_c, 0, 68, 70
2, 109824, Note_on_c, 0, 99, 0
2, 109831, Note_on_c, 0, 63, 0
2, 109833, Note_on_c, 0, 99, 93
2, 109835, Note_on_c, 0, 63, 67
2, 109847, Note_on_c, 0, 84, 0
2, 109851, Note_on_c, 0, 84, 72
2, 109912, Note_on_c, 0, 72, 0
2, 109913, Note_on_c, 0, 63, 0
2, 109913, Note_on_c, 0, 56, 0
2, 109913, Note_on_c, 0, 68, 0
2, 109915, Control_c, 0, 64, 0
2, 109931, Note_on_c, 0, 86, 0
2, 109939, Note_on_c, 0, 98, 0
2, 109969, Note_on_c, 0, 51, 68
2, 110000, Control_c, 0, 64, 127
2, 110008, Note_on_c, 0, 84, 0
2, 110096, Note_on_c, 0, 63, 74
2, 110103, Note_on_c, 0, 94, 88
2, 110111, Note_on_c, 0, 82, 80
2, 110223, Note_on_c, 0, 94, 0
2, 110229, Note_on_c, 0, 70, 79
2, 110230, Note_on_c, 0, 94, 88
2, 110233, Note_on_c, 0, 87, 89
2, 110235, Note_on_c, 0, 67, 70
2, 110346, Note_on_c, 0, 63, 0
2, 110353, Note_on_c, 0, 82, 0
2, 110354, Note_on_c, 0, 63, 64
2, 110364, Note_on_c, 0, 82, 73
2, 110440, Control_c, 0, 64, 0
2, 110445, Note_on_c, 0, 63, 0
2, 110445, Note_on_c, 0, 67, 0
2, 110446, Note_on_c, 0, 96, 0
2, 110446, Note_on_c, 0, 82, 0
2, 110446, Note_on_c, 0, 87, 0
2, 110447, Note_on_c, 0, 70, 0
2, 110453, Note_on_c, 0, 99, 0
2, 110456, Note_on_c, 0, 51, 0
2, 110469, Note_on_c, 0, 94, 0
2, 110477, Note_on_c, 0, 94, 97
2, 110486, Note_on_c, 0, 51, 74
2, 110538, Control_c, 0, 64, 127
2, 110596, Note_on_c, 0, 82, 87
2, 110597, Note_on_c, 0, 92, 92
2, 110599, Note_on_c, 0, 63, 75
2, 110714, Note_on_c, 0, 63, 0
2, 110717, Note_on_c, 0, 91, 88
2, 110725, Note_on_c, 0, 63, 62
2, 110736, Note_on_c, 0, 70, 75
2, 110736, Note_on_c, 0, 87, 60
2, 110749, Note_on_c, 0, 67, 61
2, 110822, Note_on_c, 0, 63, 0
2, 110833, Note_on_c, 0, 63, 77
2, 110837, Note_on_c, 0, 91, 0
2, 110842, Note_on_c, 0, 91, 95
2, 110853, Note_on_c, 0, 82, 0
2, 110864, Note_on_c, 0, 82, 88
2, 110941, Note_on_c, 0, 94, 0
2, 110942, Control_c, 0, 64, 0
2, 110942, Note_on_c, 0, 67, 0
2, 110942, Note_on_c, 0, 70, 0
2, 110942, Note_on_c, 0, 63, 0
2, 110945, Note_on_c, 0, 51, 0
2, 110945, Note_on_c, 0, 87, 0
2, 110948, Note_on_c, 0, 92, 0
2, 110972, Note_on_c, 0, 46, 76
2, 111029, Control_c, 0, 64, 127
2, 111091, Note_on_c, 0, 82, 0
2, 111093, Note_on_c, 0, 89, 85
2, 111095, Note_on_c, 0, 62, 71
2, 111097, Note_on_c, 0, 82, 83
2, 111144, Note_on_c, 0, 58, 26
2, 111206, Note_on_c, 0, 89, 0
2, 111215, Note_on_c, 0, 89, 90
2, 111225, Note_on_c, 0, 86, 87
2, 111238, Note_on_c, 0, 70, 80
2, 111243, Note_on_c, 0, 65, 56
2, 111360, Note_on_c, 0, 62, 0
2, 111365, Note_on_c, 0, 62, 58
2, 111367, Note_on_c, 0, 82, 0
2, 111374, Note_on_c, 0, 82, 77
2, 111472, Control_c, 0, 64, 0
2, 111475, Note_on_c, 0, 46, 0
2, 111476, Note_on_c, 0, 65, 0
2, 111477, Note_on_c, 0, 70, 0
2, 111477, Note_on_c, 0, 62, 0
2, 111477, Note_on_c, 0, 86, 0
2, 111484, Note_on_c, 0, 46, 72
2, 111490, Note_on_c, 0, 91, 0
2, 111505, Note_on_c, 0, 58, 0
2, 111559, Control_c, 0, 64, 127
2, 111604, Note_on_c, 0, 62, 67
2, 111605, Note_on_c, 0, 82, 0
2, 111607, Note_on_c, 0, 74, 65
2, 111611, Note_on_c, 0, 82, 82
2, 111740, Note_on_c, 0, 87, 86
2, 111758, Note_on_c, 0, 70, 70
2, 111767, Note_on_c, 0, 65, 59
2, 111818, Note_on_c, 0, 86, 79
2, 111820, Note_on_c, 0, 62, 0
2, 111830, Note_on_c, 0, 62, 75
2, 111851, Note_on_c, 0, 82, 0
2, 111861, Note_on_c, 0, 82, 81
2, 111924, Note_on_c, 0, 77, 68
2, 111989, Note_on_c, 0, 46, 0
2, 111991, Note_on_c, 0, 75, 83
2, 111996, Note_on_c, 0, 46, 70
2, 112035, Note_on_c, 0, 74, 0
2, 112042, Note_on_c, 0, 74, 69
2, 112104, Note_on_c, 0, 70, 0
2, 112113, Note_on_c, 0, 70, 68
2, 112143, Note_on_c, 0, 65, 0
2, 112153, Note_on_c, 0, 65, 65
2, 112157, Note_on_c, 0, 58, 61
2, 112242, Note_on_c, 0, 63, 79
2, 112296, Note_on_c, 0, 62, 0
2, 112308, Note_on_c, 0, 62, 69
2, 112327, Note_on_c, 0, 58, 0
2, 112331, Note_on_c, 0, 58, 72
2, 112400, Note_on_c, 0, 53, 63
2, 112438, Note_on_c, 0, 50, 76
2, 112503, Note_on_c, 0, 79, 102
2, 112508, Note_on_c, 0, 67, 98
2, 112527, Note_on_c, 0, 46, 0
2, 112532, Note_on_c, 0, 46, 67
2, 112627, Note_on_c, 0, 50, 0
2, 112634, Note_on_c, 0, 50, 66
2, 112640, Note_on_c, 0, 41, 61
2, 112750, Note_on_c, 0, 82, 0
2, 112757, Note_on_c, 0, 82, 108
2, 112757, Note_on_c, 0, 46, 0
2, 112757, Note_on_c, 0, 70, 0
2, 112762, Note_on_c, 0, 34, 82
2, 112763, Note_on_c, 0, 70, 100
2, 112765, Note_on_c, 0, 74, 0
2, 112766, Note_on_c, 0, 46, 76
2, 112766, Note_on_c, 0, 58, 0
2, 112775, Note_on_c, 0, 74, 68
2, 112785, Note_on_c, 0, 80, 56
2, 112959, Control_c, 0, 64, 0
2, 112962, Note_on_c, 0, 34, 0
2, 112962, Note_on_c, 0, 41, 0
2, 112962, Note_on_c, 0, 79, 0
2, 112962, Note_on_c, 0, 65, 0
2, 112962, Note_on_c, 0, 80, 0
2, 112962, Note_on_c, 0, 86, 0
2, 112962, Note_on_c, 0, 67, 0
2, 112962, Note_on_c, 0, 46, 0
2, 112962, Note_on_c, 0, 75, 0
2, 112962, Note_on_c, 0, 74, 0
2, 112962, Note_on_c, 0, 53, 0
2, 112962, Note_on_c, 0, 87, 0
2, 112963, Note_on_c, 0, 77, 0
2, 112965, Note_on_c, 0, 89, 0
2, 112965, Note_on_c, 0, 63, 0
2, 112965, Note_on_c, 0, 82, 0
2, 112966, Note_on_c, 0, 70, 0
2, 112980, Note_on_c, 0, 50, 0
2, 112980, Note_on_c, 0, 62, 0
2, 113014, Note_on_c, 0, 84, 105
2, 113022, Note_on_c, 0, 44, 99
2, 113022, Note_on_c, 0, 32, 99
2, 113023, Note_on_c, 0, 80, 89
2, 113023, Note_on_c, 0, 75, 92
2, 113072, Control_c, 0, 64, 127
2, 113111, Note_on_c, 0, 32, 0
2, 113149, Note_on_c, 0, 44, 0
2, 113154, Note_on_c, 0, 44, 77
2, 113272, Note_on_c, 0, 80, 0
2, 113272, Note_on_c, 0, 84, 0
2, 113280, Note_on_c, 0, 75, 0
2, 113282, Note_on_c, 0, 84, 96
2, 113283, Note_on_c, 0, 80, 92
2, 113284, Note_on_c, 0, 75, 87
2, 113285, Note_on_c, 0, 60, 78
2, 113293, Note_on_c, 0, 56, 82
2, 113404, Note_on_c, 0, 72, 81
2, 113525, Note_on_c, 0, 44, 0
2, 113525, Note_on_c, 0, 75, 0
2, 113525, Note_on_c, 0, 80, 0
2, 113525, Note_on_c, 0, 84, 0
2, 113531, Note_on_c, 0, 80, 91
2, 113531, Note_on_c, 0, 84, 88
2, 113536, Note_on_c, 0, 75, 91
2, 113536, Note_on_c, 0, 44, 93
2, 113656, Note_on_c, 0, 44, 0
2, 113658, Note_on_c, 0, 86, 99
2, 113659, Note_on_c, 0, 74, 94
2, 113661, Note_on_c, 0, 44, 75
2, 113771, Note_on_c, 0, 56, 0
2, 113771, Note_on_c, 0, 60, 0
2, 113771, Note_on_c, 0, 75, 0
2, 113776, Note_on_c, 0, 60, 82
2, 113778, Note_on_c, 0, 87, 99
2, 113780, Note_on_c, 0, 75, 84
2, 113782, Note_on_c, 0, 56, 74
2, 113870, Note_on_c, 0, 51, 87
2, 113894, Note_on_c, 0, 87, 0
2, 113905, Note_on_c, 0, 87, 104
2, 113907, Note_on_c, 0, 82, 101
2, 113909, Note_on_c, 0, 75, 0
2, 113913, Note_on_c, 0, 79, 98
2, 113913, Note_on_c, 0, 75, 97
2, 113937, Note_on_c, 0, 80, 0
2, 113938, Control_c, 0, 64, 0
2, 113939, Note_on_c, 0, 74, 0
2, 113940, Note_on_c, 0, 72, 0
2, 113942, Note_on_c, 0, 44, 0
2, 113942, Note_on_c, 0, 84, 0
2, 113943, Note_on_c, 0, 86, 0
2, 113943, Note_on_c, 0, 60, 0
2, 113955, Note_on_c, 0, 56, 0
2, 114017, Control_c, 0, 64, 127
2, 114018, Note_on_c, 0, 39, 86
2, 114020, Note_on_c, 0, 27, 88
2, 114158, Note_on_c, 0, 70, 89
2, 114163, Note_on_c, 0, 39, 0
2, 114168, Note_on_c, 0, 39, 57
2, 114278, Note_on_c, 0, 79, 0
2, 114278, Note_on_c, 0, 82, 0
2, 114283, Note_on_c, 0, 82, 102
2, 114286, Note_on_c, 0, 75, 0
2, 114288, Note_on_c, 0, 79, 90
2, 114289, Note_on_c, 0, 75, 93
2, 114300, Note_on_c, 0, 58, 74
2, 114309, Note_on_c, 0, 83, 59
2, 114408, Note_on_c, 0, 51, 0
2, 114408, Note_on_c, 0, 58, 0
2, 114408, Note_on_c, 0, 70, 0
2, 114413, Note_on_c, 0, 70, 82
2, 114414, Note_on_c, 0, 58, 67
2, 114419, Note_on_c, 0, 51, 46
2, 114531, Note_on_c, 0, 39, 0
2, 114531, Note_on_c, 0, 82, 0
2, 114539, Note_on_c, 0, 75, 0
2, 114540, Note_on_c, 0, 82, 94
2, 114542, Note_on_c, 0, 39, 76
2, 114544, Note_on_c, 0, 75, 89
2, 114654, Note_on_c, 0, 51, 0
2, 114661, Note_on_c, 0, 63, 78
2, 114662, Note_on_c, 0, 58, 0
2, 114665, Note_on_c, 0, 51, 78
2, 114666, Note_on_c, 0, 80, 90
2, 114667, Note_on_c, 0, 68, 87
2, 114668, Note_on_c, 0, 58, 70
2, 114673, Note_on_c, 0, 55, 65
2, 114777, Note_on_c, 0, 58, 0
2, 114777, Note_on_c, 0, 79, 0
2, 114783, Note_on_c, 0, 58, 91
2, 114784, Note_on_c, 0, 79, 98
2, 114786, Note_on_c, 0, 67, 96
2, 114792, Note_on_c, 0, 83, 0
2, 114869, Note_on_c, 0, 51, 0
2, 114874, Note_on_c, 0, 51, 43
2, 114908, Note_on_c, 0, 70, 0
2, 114911, Note_on_c, 0, 77, 102
2, 114917, Note_on_c, 0, 74, 87
2, 114918, Note_on_c, 0, 70, 89
2, 114918, Note_on_c, 0, 65, 94
2, 114956, Note_on_c, 0, 27, 0
2, 114956, Note_on_c, 0, 87, 0
2, 114957, Note_on_c, 0, 82, 0
2, 114957, Note_on_c, 0, 79, 0
2, 114957, Note_on_c, 0, 55, 0
2, 114957, Note_on_c, 0, 51, 0
2, 114957, Note_on_c, 0, 58, 0
2, 114957, Note_on_c, 0, 67, 0
2, 114957, Note_on_c, 0, 75, 0
2, 114958, Note_on_c, 0, 63, 0
2, 114958, Note_on_c, 0, 68, 0
2, 114958, Note_on_c, 0, 80, 0
2, 114961, Control_c, 0, 64, 0
2, 114977, Note_on_c, 0, 39, 0
2, 115027, Note_on_c, 0, 34, 82
2, 115028, Note_on_c, 0, 46, 90
2, 115031, Control_c, 0, 64, 127
2, 115169, Note_on_c, 0, 77, 0
2, 115176, Note_on_c, 0, 46, 0
2, 115176, Note_on_c, 0, 65, 0
2, 115176, Note_on_c, 0, 74, 0
2, 115180, Note_on_c, 0, 77, 76
2, 115180, Note_on_c, 0, 58, 74
2, 115180, Note_on_c, 0, 46, 71
2, 115181, Note_on_c, 0, 65, 71
2, 115182, Note_on_c, 0, 74, 70
2, 115284, Note_on_c, 0, 58, 0
2, 115284, Note_on_c, 0, 77, 0
2, 115292, Note_on_c, 0, 46, 0
2, 115292, Note_on_c, 0, 70, 0
2, 115294, Note_on_c, 0, 77, 95
2, 115295, Note_on_c, 0, 58, 90
2, 115297, Note_on_c, 0, 70, 76
2, 115298, Note_on_c, 0, 46, 76
2, 115302, Note_on_c, 0, 50, 72
2, 115302, Note_on_c, 0, 53, 73
2, 115399, Note_on_c, 0, 46, 0
2, 115410, Note_on_c, 0, 46, 76
2, 115415, Note_on_c, 0, 77, 0
2, 115422, Note_on_c, 0, 77, 70
2, 115506, Control_c, 0, 64, 0
2, 115509, Note_on_c, 0, 50, 0
2, 115509, Note_on_c, 0, 74, 0
2, 115510, Note_on_c, 0, 53, 0
2, 115510, Note_on_c, 0, 65, 0
2, 115510, Note_on_c, 0, 58, 0
2, 115510, Note_on_c, 0, 77, 0
2, 115511, Note_on_c, 0, 70, 0
2, 115513, Note_on_c, 0, 34, 0
2, 115530, Note_on_c, 0, 46, 0
2, 115547, Note_on_c, 0, 80, 101
2, 115549, Note_on_c, 0, 37, 72
2, 115549, Note_on_c, 0, 47, 84
2, 115553, Note_on_c, 0, 37, 0
2, 115554, Note_on_c, 0, 74, 88
2, 115555, Note_on_c, 0, 75, 81
2, 115556, Note_on_c, 0, 71, 82
2, 115556, Note_on_c, 0, 77, 78
2, 115560, Note_on_c, 0, 75, 0
2, 115584, Control_c, 0, 64, 127
2, 115676, Note_on_c, 0, 47, 0
2, 115676, Note_on_c, 0, 71, 0
2, 115681, Note_on_c, 0, 67, 68
2, 115682, Note_on_c, 0, 47, 77
2, 115686, Note_on_c, 0, 71, 66
2, 115791, Note_on_c, 0, 47, 0
2, 115791, Note_on_c, 0, 71, 0
2, 115797, Note_on_c, 0, 79, 94
2, 115797, Note_on_c, 0, 47, 83
2, 115798, Note_on_c, 0, 71, 82
2, 115798, Note_on_c, 0, 59, 88
2, 115799, Note_on_c, 0, 67, 0
2, 115804, Note_on_c, 0, 67, 69
2, 115818, Note_on_c, 0, 69, 50
2, 115829, Note_on_c, 0, 69, 0
2, 115906, Note_on_c, 0, 47, 0
2, 115912, Note_on_c, 0, 47, 80
2, 115914, Note_on_c, 0, 67, 0
2, 115919, Note_on_c, 0, 67, 68
2, 115927, Note_on_c, 0, 69, 53
2, 116013, Control_c, 0, 64, 0
2, 116014, Note_on_c, 0, 71, 0
2, 116014, Note_on_c, 0, 67, 0
2, 116015, Note_on_c, 0, 47, 0
2, 116015, Note_on_c, 0, 74, 0
2, 116015, Note_on_c, 0, 80, 0
2, 116015, Note_on_c, 0, 59, 0
2, 116016, Note_on_c, 0, 79, 0
2, 116037, Note_on_c, 0, 69, 0
2, 116037, Note_on_c, 0, 77, 0
2, 116047, Note_on_c, 0, 77, 102
2, 116052, Note_on_c, 0, 48, 92
2, 116054, Note_on_c, 0, 36, 83
2, 116054, Note_on_c, 0, 72, 75
2, 116056, Note_on_c, 0, 65, 79
2, 116056, Note_on_c, 0, 75, 82
2, 116060, Note_on_c, 0, 65, 0
2, 116090, Control_c, 0, 64, 127
2, 116188, Note_on_c, 0, 67, 73
2, 116190, Note_on_c, 0, 48, 0
2, 116195, Note_on_c, 0, 48, 77
2, 116298, Note_on_c, 0, 72, 0
2, 116302, Note_on_c, 0, 60, 85
2, 116305, Note_on_c, 0, 48, 0
2, 116305, Note_on_c, 0, 67, 0
2, 116308, Note_on_c, 0, 79, 99
2, 116308, Note_on_c, 0, 51, 77
2, 116309, Note_on_c, 0, 72, 77
2, 116311, Note_on_c, 0, 48, 78
2, 116312, Note_on_c, 0, 67, 79
2, 116313, Note_on_c, 0, 75, 0
2, 116322, Note_on_c, 0, 75, 56
2, 116382, Note_on_c, 0, 48, 0
2, 116387, Note_on_c, 0, 48, 76
2, 116436, Note_on_c, 0, 51, 0
2, 116436, Note_on_c, 0, 67, 0
2, 116441, Note_on_c, 0, 67, 78
2, 116441, Note_on_c, 0, 51, 39
2, 116445, Note_on_c, 0, 70, 50
2, 116451, Note_on_c, 0, 70, 0
2, 116518, Note_on_c, 0, 51, 0
2, 116518, Note_on_c, 0, 60, 0
2, 116520, Note_on_c, 0, 75, 0
2, 116520, Note_on_c, 0, 48, 0
2, 116520, Note_on_c, 0, 67, 0
2, 116520, Note_on_c, 0, 36, 0
2, 116521, Note_on_c, 0, 79, 0
2, 116530, Control_c, 0, 64, 0
2, 116536, Note_on_c, 0, 72, 0
2, 116544, Note_on_c, 0, 77, 0
2, 116552, Note_on_c, 0, 46, 94
2, 116552, Note_on_c, 0, 77, 100
2, 116555, Note_on_c, 0, 34, 86
2, 116558, Note_on_c, 0, 74, 86
2, 116559, Note_on_c, 0, 70, 89
2, 116585, Note_on_c, 0, 34, 0
2, 116605, Control_c, 0, 64, 127
2, 116613, Note_on_c, 0, 46, 0
2, 116701, Note_on_c, 0, 67, 78
2, 116702, Note_on_c, 0, 58, 68
2, 116708, Note_on_c, 0, 55, 62
2, 116712, Note_on_c, 0, 55, 0
2, 116812, Note_on_c, 0, 58, 0
2, 116812, Note_on_c, 0, 67, 0
2, 116813, Note_on_c, 0, 75, 101
2, 116817, Note_on_c, 0, 58, 91
2, 116821, Note_on_c, 0, 67, 69
2, 116831, Note_on_c, 0, 51, 71
2, 116831, Note_on_c, 0, 73, 73
2, 116935, Note_on_c, 0, 46, 80
2, 117001, Control_c, 0, 64, 0
2, 117002, Note_on_c, 0, 67, 0
2, 117002, Note_on_c, 0, 77, 0
2, 117002, Note_on_c, 0, 51, 0
2, 117003, Note_on_c, 0, 46, 0
2, 117003, Note_on_c, 0, 58, 0
2, 117003, Note_on_c, 0, 74, 0
2, 117003, Note_on_c, 0, 70, 0
2, 117004, Note_on_c, 0, 75, 0
2, 117020, Note_on_c, 0, 73, 0
2, 117058, Note_on_c, 0, 84, 105
2, 117061, Note_on_c, 0, 81, 100
2, 117062, Note_on_c, 0, 72, 99
2, 117063, Note_on_c, 0, 33, 83
2, 117063, Note_on_c, 0, 77, 90
2, 117068, Note_on_c, 0, 45, 87
2, 117081, Control_c, 0, 64, 127
2, 117166, Note_on_c, 0, 45, 0
2, 117171, Note_on_c, 0, 45, 68
2, 117203, Note_on_c, 0, 48, 79
2, 117320, Note_on_c, 0, 53, 73
2, 117450, Note_on_c, 0, 53, 0
2, 117450, Note_on_c, 0, 72, 0
2, 117455, Note_on_c, 0, 53, 74
2, 117459, Note_on_c, 0, 72, 78
2, 117461, Note_on_c, 0, 65, 71
2, 117464, Note_on_c, 0, 69, 64
2, 117576, Note_on_c, 0, 60, 72
2, 117688, Note_on_c, 0, 65, 0
2, 117696, Note_on_c, 0, 65, 56
2, 117818, Note_on_c, 0, 69, 0
2, 117823, Note_on_c, 0, 69, 76
2, 117934, Note_on_c, 0, 72, 0
2, 117943, Note_on_c, 0, 72, 77
2, 118072, Note_on_c, 0, 77, 0
2, 118072, Note_on_c, 0, 84, 0
2, 118076, Note_on_c, 0, 84, 88
2, 118078, Note_on_c, 0, 77, 74
2, 118080, Note_on_c, 0, 69, 0
2, 118084, Note_on_c, 0, 87, 72
2, 118090, Note_on_c, 0, 69, 53
2, 118202, Note_on_c, 0, 72, 0
2, 118212, Note_on_c, 0, 72, 67
2, 118213, Note_on_c, 0, 89, 78
2, 118338, Note_on_c, 0, 91, 91
2, 118341, Note_on_c, 0, 69, 0
2, 118345, Note_on_c, 0, 69, 72
2, 118456, Note_on_c, 0, 65, 0
2, 118464, Note_on_c, 0, 84, 0
2, 118465, Note_on_c, 0, 96, 96
2, 118467, Note_on_c, 0, 65, 69
2, 118471, Note_on_c, 0, 87, 0
2, 118473, Note_on_c, 0, 84, 86
2, 118479, Note_on_c, 0, 87, 83
2, 118725, Note_on_c, 0, 69, 0
2, 118725, Note_on_c, 0, 91, 0
2, 118730, Note_on_c, 0, 67, 73
2, 118731, Note_on_c, 0, 93, 76
2, 118733, Note_on_c, 0, 91, 76
2, 118735, Note_on_c, 0, 69, 60
2, 118848, Note_on_c, 0, 65, 0
2, 118848, Note_on_c, 0, 69, 0
2, 118848, Note_on_c, 0, 89, 0
2, 118852, Note_on_c, 0, 65, 50
2, 118852, Note_on_c, 0, 89, 84
2, 118853, Note_on_c, 0, 69, 69
2, 118947, Note_on_c, 0, 33, 0
2, 118949, Note_on_c, 0, 93, 0
2, 118949, Note_on_c, 0, 69, 0
2, 118949, Note_on_c, 0, 81, 0
2, 118950, Note_on_c, 0, 96, 0
2, 118950, Note_on_c, 0, 45, 0
2, 118950, Note_on_c, 0, 65, 0
2, 118950, Control_c, 0, 64, 0
2, 118950, Note_on_c, 0, 89, 0
2, 118950, Note_on_c, 0, 53, 0
2, 118950, Note_on_c, 0, 91, 0
2, 118951, Note_on_c, 0, 48, 0
2, 118951, Note_on_c, 0, 84, 0
2, 118952, Note_on_c, 0, 67, 0
2, 118952, Note_on_c, 0, 87, 0
2, 118966, Note_on_c, 0, 86, 96
2, 118970, Note_on_c, 0, 72, 0
2, 118970, Note_on_c, 0, 77, 0
2, 118978, Note_on_c, 0, 60, 0
2, 119013, Note_on_c, 0, 86, 0
2, 119086, Control_c, 0, 64, 127
2, 119089, Note_on_c, 0, 87, 101
2, 119090, Note_on_c, 0, 80, 92
2, 119091, Note_on_c, 0, 53, 90
2, 119094, Note_on_c, 0, 75, 90
2, 119096, Note_on_c, 0, 41, 86
2, 119191, Note_on_c, 0, 53, 0
2, 119192, Note_on_c, 0, 41, 0
2, 119192, Note_on_c, 0, 87, 0
2, 119193, Note_on_c, 0, 75, 0
2, 119193, Note_on_c, 0, 80, 0
2, 119197, Control_c, 0, 64, 0
2, 119219, Note_on_c, 0, 86, 94
2, 119220, Note_on_c, 0, 74, 81
2, 119237, Note_on_c, 0, 48, 49
2, 119252, Note_on_c, 0, 74, 0
2, 119256, Note_on_c, 0, 86, 0
2, 119267, Note_on_c, 0, 48, 0
2, 119337, Note_on_c, 0, 87, 90
2, 119341, Note_on_c, 0, 53, 64
2, 119341, Note_on_c, 0, 75, 81
2, 119343, Note_on_c, 0, 56, 63
2, 119364, Note_on_c, 0, 41, 43
2, 119367, Note_on_c, 0, 87, 0
2, 119368, Note_on_c, 0, 75, 0
2, 119374, Note_on_c, 0, 53, 0
2, 119376, Note_on_c, 0, 56, 0
2, 119393, Note_on_c, 0, 41, 0
2, 119462, Control_c, 0, 64, 127
2, 119465, Note_on_c, 0, 82, 102
2, 119466, Note_on_c, 0, 75, 85
2, 119469, Note_on_c, 0, 43, 87
2, 119471, Note_on_c, 0, 70, 85
2, 119472, Note_on_c, 0, 55, 89
2, 119723, Note_on_c, 0, 75, 0
2, 119729, Note_on_c, 0, 51, 74
2, 119733, Note_on_c, 0, 63, 77
2, 119733, Note_on_c, 0, 75, 91
2, 119736, Control_c, 0, 64, 0
2, 119742, Note_on_c, 0, 82, 0
2, 119743, Note_on_c, 0, 70, 0
2, 119743, Note_on_c, 0, 55, 0
2, 119744, Note_on_c, 0, 43, 0
2, 119766, Note_on_c, 0, 51, 0
2, 119784, Note_on_c, 0, 63, 0
2, 119784, Note_on_c, 0, 75, 0
2, 119859, Note_on_c, 0, 75, 91
2, 119860, Note_on_c, 0, 63, 69
2, 119863, Note_on_c, 0, 58, 74
2, 119886, Note_on_c, 0, 63, 0
2, 119888, Note_on_c, 0, 75, 0
2, 119907, Note_on_c, 0, 58, 0
2, 119986, Note_on_c, 0, 80, 98
2, 119992, Note_on_c, 0, 68, 91
2, 119993, Note_on_c, 0, 72, 80
2, 119994, Note_on_c, 0, 44, 88
2, 119994, Note_on_c, 0, 56, 92
2, 119995, Note_on_c, 0, 75, 80
2, 120000, Control_c, 0, 64, 127
2, 120254, Note_on_c, 0, 79, 83
2, 120256, Note_on_c, 0, 67, 76
2, 120257, Note_on_c, 0, 51, 53
2, 120261, Note_on_c, 0, 51, 0
2, 120287, Note_on_c, 0, 72, 0
2, 120287, Note_on_c, 0, 80, 0
2, 120287, Note_on_c, 0, 75, 0
2, 120287, Note_on_c, 0, 67, 0
2, 120288, Control_c, 0, 64, 0
2, 120288, Note_on_c, 0, 56, 0
2, 120288, Note_on_c, 0, 44, 0
2, 120288, Note_on_c, 0, 79, 0
2, 120288, Note_on_c, 0, 68, 0
2, 120369, Note_on_c, 0, 77, 94
2, 120374, Note_on_c, 0, 60, 69
2, 120374, Note_on_c, 0, 65, 83
2, 120404, Note_on_c, 0, 60, 0
2, 120404, Note_on_c, 0, 65, 0
2, 120410, Note_on_c, 0, 77, 0
2, 120503, Note_on_c, 0, 75, 101
2, 120506, Control_c, 0, 64, 127
2, 120508, Note_on_c, 0, 63, 86
2, 120510, Note_on_c, 0, 58, 88
2, 120511, Note_on_c, 0, 46, 87
2, 120511, Note_on_c, 0, 70, 84
2, 120762, Note_on_c, 0, 53, 83
2, 120768, Note_on_c, 0, 46, 0
2, 120771, Note_on_c, 0, 94, 102
2, 120774, Note_on_c, 0, 46, 62
2, 120776, Note_on_c, 0, 82, 92
2, 120875, Note_on_c, 0, 58, 0
2, 120883, Note_on_c, 0, 62, 88
2, 120884, Note_on_c, 0, 58, 94
2, 120886, Note_on_c, 0, 96, 99
2, 120887, Note_on_c, 0, 84, 94
2, 120899, Note_on_c, 0, 82, 0
2, 120899, Note_on_c, 0, 94, 0
2, 120902, Note_on_c, 0, 46, 0
2, 120902, Note_on_c, 0, 53, 0
2, 120902, Note_on_c, 0, 75, 0
2, 120904, Note_on_c, 0, 63, 0
2, 120917, Note_on_c, 0, 62, 0
2, 120918, Control_c, 0, 64, 0
2, 120924, Note_on_c, 0, 84, 0
2, 120926, Note_on_c, 0, 96, 0
2, 120929, Note_on_c, 0, 70, 0
2, 120944, Note_on_c, 0, 58, 0
2, 121009, Note_on_c, 0, 98, 102
2, 121015, Note_on_c, 0, 86, 95
2, 121075, Note_on_c, 0, 86, 0
2, 121082, Note_on_c, 0, 98, 0
2, 121125, Note_on_c, 0, 99, 102
2, 121128, Note_on_c, 0, 29, 98
2, 121132, Note_on_c, 0, 87, 97
2, 121138, Note_on_c, 0, 41, 82
2, 121144, Control_c, 0, 64, 127
2, 121251, Note_on_c, 0, 98, 103
2, 121254, Note_on_c, 0, 86, 97
2, 121367, Note_on_c, 0, 99, 0
2, 121371, Note_on_c, 0, 53, 79
2, 121372, Note_on_c, 0, 99, 100
2, 121376, Note_on_c, 0, 48, 72
2, 121382, Note_on_c, 0, 87, 0
2, 121392, Note_on_c, 0, 87, 74
2, 121394, Note_on_c, 0, 98, 0
2, 121397, Control_c, 0, 64, 0
2, 121400, Note_on_c, 0, 86, 0
2, 121400, Note_on_c, 0, 41, 0
2, 121401, Note_on_c, 0, 29, 0
2, 121420, Note_on_c, 0, 48, 0
2, 121420, Note_on_c, 0, 53, 0
2, 121428, Note_on_c, 0, 87, 0
2, 121436, Note_on_c, 0, 99, 0
2, 121500, Note_on_c, 0, 82, 108
2, 121501, Note_on_c, 0, 94, 110
2, 121501, Note_on_c, 0, 87, 98
2, 121507, Note_on_c, 0, 43, 94
2, 121508, Note_on_c, 0, 31, 86
2, 121528, Control_c, 0, 64, 127
2, 121758, Note_on_c, 0, 87, 0
2, 121768, Note_on_c, 0, 87, 103
2, 121772, Note_on_c, 0, 75, 88
2, 121835, Note_on_c, 0, 31, 0
2, 121835, Note_on_c, 0, 94, 0
2, 121838, Note_on_c, 0, 75, 0
2, 121838, Note_on_c, 0, 82, 0
2, 121839, Control_c, 0, 64, 0
2, 121881, Note_on_c, 0, 43, 0
2, 121881, Note_on_c, 0, 87, 0
2, 121885, Note_on_c, 0, 55, 90
2, 121885, Note_on_c, 0, 51, 85
2, 121887, Note_on_c, 0, 43, 79
2, 121890, Note_on_c, 0, 87, 91
2, 121892, Note_on_c, 0, 75, 86
2, 121908, Note_on_c, 0, 55, 0
2, 121908, Note_on_c, 0, 43, 0
2, 121912, Note_on_c, 0, 51, 0
2, 121943, Note_on_c, 0, 75, 0
2, 121950, Note_on_c, 0, 87, 0
2, 122015, Note_on_c, 0, 92, 112
2, 122016, Note_on_c, 0, 80, 104
2, 122016, Note_on_c, 0, 44, 100
2, 122016, Note_on_c, 0, 32, 94
2, 122027, Note_on_c, 0, 87, 86
2, 122035, Control_c, 0, 64, 127
2, 122273, Note_on_c, 0, 44, 0
2, 122276, Note_on_c, 0, 91, 98
2, 122278, Note_on_c, 0, 79, 89
2, 122283, Note_on_c, 0, 44, 71
2, 122333, Note_on_c, 0, 79, 0
2, 122336, Note_on_c, 0, 91, 0
2, 122336, Note_on_c, 0, 80, 0
2, 122337, Note_on_c, 0, 87, 0
2, 122338, Note_on_c, 0, 92, 0
2, 122376, Control_c, 0, 64, 0
2, 122380, Note_on_c, 0, 44, 0
2, 122385, Note_on_c, 0, 56, 81
2, 122388, Note_on_c, 0, 32, 0
2, 122391, Note_on_c, 0, 44, 73
2, 122394, Note_on_c, 0, 89, 101
2, 122395, Note_on_c, 0, 32, 74
2, 122399, Note_on_c, 0, 77, 91
2, 122416, Note_on_c, 0, 32, 0
2, 122436, Note_on_c, 0, 77, 0
2, 122440, Note_on_c, 0, 89, 0
2, 122442, Note_on_c, 0, 56, 0
2, 122449, Note_on_c, 0, 44, 0
2, 122521, Note_on_c, 0, 87, 102
2, 122521, Note_on_c, 0, 34, 94
2, 122522, Note_on_c, 0, 46, 97
2, 122523, Note_on_c, 0, 75, 98
2, 122523, Note_on_c, 0, 82, 100
2, 122542, Control_c, 0, 64, 127
2, 122780, Note_on_c, 0, 46, 0
2, 122780, Note_on_c, 0, 75, 0
2, 122780, Note_on_c, 0, 87, 0
2, 122786, Note_on_c, 0, 87, 100
2, 122790, Note_on_c, 0, 75, 88
2, 122791, Note_on_c, 0, 46, 83
2, 122900, Note_on_c, 0, 89, 101
2, 122901, Note_on_c, 0, 53, 90
2, 122902, Note_on_c, 0, 77, 96
2, 122903, Note_on_c, 0, 82, 0
2, 122906, Note_on_c, 0, 58, 93
2, 122907, Note_on_c, 0, 82, 88
2, 122907, Note_on_c, 0, 86, 86
2, 123078, Note_on_c, 0, 46, 0
2, 123080, Note_on_c, 0, 86, 0
2, 123080, Note_on_c, 0, 89, 0
2, 123080, Note_on_c, 0, 53, 0
2, 123081, Note_on_c, 0, 58, 0
2, 123081, Note_on_c, 0, 82, 0
2, 123081, Note_on_c, 0, 77, 0
2, 123082, Note_on_c, 0, 75, 0
2, 123082, Control_c, 0, 64, 0
2, 123095, Note_on_c, 0, 34, 0
2, 123095, Note_on_c, 0, 87, 0
2, 123160, Note_on_c, 0, 47, 105
2, 123160, Note_on_c, 0, 87, 104
2, 123161, Note_on_c, 0, 75, 106
2, 123162, Note_on_c, 0, 78, 104
2, 123164, Note_on_c, 0, 35, 98
2, 123168, Note_on_c, 0, 83, 87
2, 123202, Control_c, 0, 64, 127
2, 123340, Note_on_c, 0, 75, 0
2, 123347, Note_on_c, 0, 75, 80
2, 123394, Note_on_c, 0, 78, 0
2, 123405, Note_on_c, 0, 78, 78
2, 123540, Note_on_c, 0, 83, 0
2, 123548, Note_on_c, 0, 47, 0
2, 123548, Note_on_c, 0, 87, 0
2, 123551, Note_on_c, 0, 83, 67
2, 123552, Note_on_c, 0, 47, 78
2, 123556, Note_on_c, 0, 87, 71
2, 123625, Note_on_c, 0, 90, 84
2, 123671, Note_on_c, 0, 47, 0
2, 123673, Note_on_c, 0, 95, 94
2, 123675, Note_on_c, 0, 47, 86
2, 123675, Note_on_c, 0, 59, 90
2, 123682, Note_on_c, 0, 54, 91
2, 123683, Note_on_c, 0, 51, 81
2, 123786, Note_on_c, 0, 87, 0
2, 123793, Note_on_c, 0, 87, 80
2, 123824, Note_on_c, 0, 83, 0
2, 123832, Note_on_c, 0, 83, 76
2, 123909, Note_on_c, 0, 83, 0
2, 123917, Note_on_c, 0, 83, 81
2, 123970, Note_on_c, 0, 78, 0
2, 123978, Note_on_c, 0, 78, 80
2, 124047, Note_on_c, 0, 75, 0
2, 124056, Note_on_c, 0, 71, 73
2, 124056, Note_on_c, 0, 75, 83
2, 124130, Note_on_c, 0, 35, 0
2, 124131, Note_on_c, 0, 78, 0
2, 124131, Note_on_c, 0, 71, 0
2, 124132, Note_on_c, 0, 54, 0
2, 124132, Note_on_c, 0, 51, 0
2, 124132, Control_c, 0, 64, 0
2, 124133, Note_on_c, 0, 75, 0
2, 124133, Note_on_c, 0, 87, 0
2, 124134, Note_on_c, 0, 59, 0
2, 124139, Note_on_c, 0, 95, 0
2, 124147, Note_on_c, 0, 47, 0
2, 124147, Note_on_c, 0, 83, 0
2, 124147, Note_on_c, 0, 90, 0
2, 124174, Note_on_c, 0, 49, 103
2, 124179, Note_on_c, 0, 37, 103
2, 124181, Note_on_c, 0, 77, 106
2, 124181, Note_on_c, 0, 80, 106
2, 124181, Note_on_c, 0, 89, 106
2, 124182, Note_on_c, 0, 85, 96
2, 124208, Control_c, 0, 64, 127
2, 124316, Note_on_c, 0, 37, 0
2, 124320, Note_on_c, 0, 37, 42
2, 124392, Note_on_c, 0, 80, 0
2, 124402, Note_on_c, 0, 80, 80
2, 124439, Note_on_c, 0, 85, 0
2, 124445, Note_on_c, 0, 85, 76
2, 124508, Note_on_c, 0, 85, 0
2, 124518, Note_on_c, 0, 85, 76
2, 124584, Note_on_c, 0, 49, 0
2, 124590, Note_on_c, 0, 49, 67
2, 124627, Note_on_c, 0, 88, 68
2, 124628, Note_on_c, 0, 92, 82
2, 124696, Note_on_c, 0, 97, 103
2, 124701, Note_on_c, 0, 53, 83
2, 124702, Note_on_c, 0, 61, 94
2, 124703, Note_on_c, 0, 56, 86
2, 124800, Note_on_c, 0, 89, 0
2, 124806, Note_on_c, 0, 89, 79
2, 124838, Note_on_c, 0, 85, 0
2, 124848, Note_on_c, 0, 85, 71
2, 124922, Note_on_c, 0, 85, 0
2, 124934, Note_on_c, 0, 85, 82
2, 124992, Note_on_c, 0, 80, 0
2, 124997, Note_on_c, 0, 80, 76
2, 125045, Note_on_c, 0, 77, 0
2, 125057, Note_on_c, 0, 77, 71
2, 125112, Note_on_c, 0, 73, 78
2, 125151, Note_on_c, 0, 97, 0
2, 125151, Control_c, 0, 64, 0
2, 125152, Note_on_c, 0, 37, 0
2, 125152, Note_on_c, 0, 92, 0
2, 125153, Note_on_c, 0, 80, 0
2, 125154, Note_on_c, 0, 77, 0
2, 125154, Note_on_c, 0, 53, 0
2, 125154, Note_on_c, 0, 56, 0
2, 125154, Note_on_c, 0, 61, 0
2, 125157, Note_on_c, 0, 73, 0
2, 125160, Note_on_c, 0, 88, 0
2, 125176, Note_on_c, 0, 49, 0
2, 125176, Note_on_c, 0, 85, 0
2, 125176, Note_on_c, 0, 89, 0
2, 125216, Note_on_c, 0, 63, 86
2, 125216, Note_on_c, 0, 51, 84
2, 125245, Control_c, 0, 64, 127
2, 125350, Note_on_c, 0, 94, 104
2, 125352, Note_on_c, 0, 82, 103
2, 125468, Note_on_c, 0, 82, 0
2, 125468, Note_on_c, 0, 94, 0
2, 125477, Note_on_c, 0, 94, 102
2, 125479, Note_on_c, 0, 82, 96
2, 125479, Note_on_c, 0, 75, 100
2, 125598, Note_on_c, 0, 82, 0
2, 125598, Note_on_c, 0, 94, 0
2, 125602, Note_on_c, 0, 94, 99
2, 125603, Note_on_c, 0, 70, 89
2, 125607, Note_on_c, 0, 82, 96
2, 125724, Note_on_c, 0, 68, 94
2, 125730, Note_on_c, 0, 92, 106
2, 125730, Note_on_c, 0, 80, 106
2, 125836, Note_on_c, 0, 63, 0
2, 125847, Note_on_c, 0, 63, 93
2, 125975, Note_on_c, 0, 70, 0
2, 125975, Note_on_c, 0, 80, 0
2, 125975, Note_on_c, 0, 92, 0
2, 125979, Note_on_c, 0, 70, 69
2, 125984, Note_on_c, 0, 58, 75
2, 125986, Note_on_c, 0, 80, 103
2, 125986, Note_on_c, 0, 92, 107
2, 126086, Note_on_c, 0, 56, 86
2, 126113, Note_on_c, 0, 80, 0
2, 126113, Note_on_c, 0, 92, 0
2, 126120, Note_on_c, 0, 82, 0
2, 126122, Note_on_c, 0, 92, 102
2, 126124, Note_on_c, 0, 80, 103
2, 126126, Note_on_c, 0, 87, 98
2, 126127, Note_on_c, 0, 82, 95
2, 126196, Note_on_c, 0, 80, 0
2, 126197, Note_on_c, 0, 68, 0
2, 126197, Note_on_c, 0, 63, 0
2, 126197, Note_on_c, 0, 92, 0
2, 126197, Note_on_c, 0, 51, 0
2, 126198, Note_on_c, 0, 94, 0
2, 126198, Note_on_c, 0, 58, 0
2, 126198, Control_c, 0, 64, 0
2, 126198, Note_on_c, 0, 82, 0
2, 126198, Note_on_c, 0, 70, 0
2, 126200, Note_on_c, 0, 87, 0
2, 126213, Note_on_c, 0, 56, 0
2, 126213, Note_on_c, 0, 75, 0
2, 126240, Note_on_c, 0, 51, 101
2, 126241, Note_on_c, 0, 39, 102
2, 126274, Control_c, 0, 64, 127
2, 126361, Note_on_c, 0, 82, 109
2, 126362, Note_on_c, 0, 87, 92
2, 126363, Note_on_c, 0, 94, 91
2, 126363, Note_on_c, 0, 91, 60
2, 126374, Note_on_c, 0, 91, 0
2, 126435, Note_on_c, 0, 94, 0
2, 126439, Note_on_c, 0, 94, 83
2, 126497, Note_on_c, 0, 82, 0
2, 126504, Note_on_c, 0, 87, 0
2, 126507, Note_on_c, 0, 82, 80
2, 126509, Note_on_c, 0, 87, 81
2, 126509, Note_on_c, 0, 91, 54
2, 126558, Note_on_c, 0, 94, 0
2, 126565, Note_on_c, 0, 94, 83
2, 126638, Note_on_c, 0, 49, 105
2, 126638, Control_c, 0, 64, 0
2, 126639, Note_on_c, 0, 37, 106
2, 126640, Note_on_c, 0, 99, 82
2, 126643, Note_on_c, 0, 87, 0
2, 126643, Note_on_c, 0, 94, 0
2, 126647, Note_on_c, 0, 87, 80
2, 126650, Note_on_c, 0, 39, 0
2, 126650, Note_on_c, 0, 91, 0
2, 126650, Note_on_c, 0, 94, 92
2, 126655, Note_on_c, 0, 91, 71
2, 126658, Note_on_c, 0, 39, 61
2, 126681, Control_c, 0, 64, 127
2, 126689, Note_on_c, 0, 51, 0
2, 126750, Note_on_c, 0, 99, 0
2, 126758, Note_on_c, 0, 82, 0
2, 126758, Note_on_c, 0, 91, 0
2, 126766, Note_on_c, 0, 91, 57
2, 126767, Note_on_c, 0, 82, 85
2, 126827, Note_on_c, 0, 94, 0
2, 126833, Note_on_c, 0, 94, 86
2, 126888, Note_on_c, 0, 82, 0
2, 126896, Note_on_c, 0, 87, 0
2, 126899, Note_on_c, 0, 82, 80
2, 126902, Note_on_c, 0, 37, 0
2, 126903, Note_on_c, 0, 87, 72
2, 126904, Note_on_c, 0, 91, 0
2, 126908, Note_on_c, 0, 91, 50
2, 127019, Note_on_c, 0, 82, 0
2, 127019, Note_on_c, 0, 87, 0
2, 127026, Note_on_c, 0, 87, 77
2, 127026, Note_on_c, 0, 82, 73
2, 127065, Note_on_c, 0, 94, 0
2, 127075, Note_on_c, 0, 94, 83
2, 127105, Control_c, 0, 64, 0
2, 127108, Note_on_c, 0, 49, 0
2, 127119, Note_on_c, 0, 39, 0
2, 127142, Note_on_c, 0, 87, 0
2, 127142, Note_on_c, 0, 91, 0
2, 127143, Note_on_c, 0, 48, 102
2, 127146, Note_on_c, 0, 36, 91
2, 127150, Note_on_c, 0, 87, 80
2, 127151, Note_on_c, 0, 91, 77
2, 127152, Note_on_c, 0, 99, 79
2, 127211, Note_on_c, 0, 94, 0
2, 127211, Control_c, 0, 64, 127
2, 127217, Note_on_c, 0, 94, 76
2, 127280, Note_on_c, 0, 87, 0
2, 127280, Note_on_c, 0, 91, 0
2, 127291, Note_on_c, 0, 87, 79
2, 127291, Note_on_c, 0, 91, 58
2, 127319, Note_on_c, 0, 94, 0
2, 127323, Note_on_c, 0, 94, 47
2, 127395, Note_on_c, 0, 82, 0
2, 127395, Note_on_c, 0, 94, 0
2, 127403, Note_on_c, 0, 87, 0
2, 127403, Note_on_c, 0, 91, 0
2, 127403, Note_on_c, 0, 99, 0
2, 127404, Note_on_c, 0, 82, 73
2, 127407, Note_on_c, 0, 94, 75
2, 127410, Note_on_c, 0, 91, 59
2, 127412, Note_on_c, 0, 60, 71
2, 127414, Note_on_c, 0, 99, 71
2, 127414, Note_on_c, 0, 87, 79
2, 127464, Note_on_c, 0, 94, 0
2, 127469, Note_on_c, 0, 94, 79
2, 127518, Note_on_c, 0, 60, 0
2, 127526, Note_on_c, 0, 48, 0
2, 127526, Note_on_c, 0, 82, 0
2, 127526, Note_on_c, 0, 94, 0
2, 127529, Note_on_c, 0, 60, 90
2, 127534, Note_on_c, 0, 87, 0
2, 127535, Note_on_c, 0, 51, 75
2, 127536, Note_on_c, 0, 48, 86
2, 127537, Note_on_c, 0, 94, 75
2, 127537, Note_on_c, 0, 82, 83
2, 127539, Note_on_c, 0, 87, 79
2, 127587, Note_on_c, 0, 94, 0
2, 127598, Note_on_c, 0, 94, 77
2, 127656, Note_on_c, 0, 60, 0
2, 127664, Note_on_c, 0, 87, 0
2, 127664, Note_on_c, 0, 91, 0
2, 127664, Note_on_c, 0, 94, 0
2, 127666, Note_on_c, 0, 60, 91
2, 127669, Note_on_c, 0, 91, 69
2, 127672, Note_on_c, 0, 99, 0
2, 127673, Note_on_c, 0, 94, 75
2, 127675, Note_on_c, 0, 87, 80
2, 127677, Note_on_c, 0, 99, 76
2, 127718, Note_on_c, 0, 94, 0
2, 127722, Note_on_c, 0, 94, 62
2, 127779, Note_on_c, 0, 87, 0
2, 127787, Note_on_c, 0, 60, 0
2, 127787, Note_on_c, 0, 56, 74
2, 127790, Note_on_c, 0, 87, 86
2, 127791, Note_on_c, 0, 72, 89
2, 127791, Note_on_c, 0, 68, 95
2, 127791, Note_on_c, 0, 60, 79
2, 127794, Note_on_c, 0, 63, 85
2, 127818, Note_on_c, 0, 82, 0
2, 127823, Note_on_c, 0, 82, 62
2, 127825, Note_on_c, 0, 94, 0
2, 127831, Note_on_c, 0, 94, 47
2, 127902, Note_on_c, 0, 60, 0
2, 127908, Note_on_c, 0, 60, 81
2, 127910, Note_on_c, 0, 87, 0
2, 127910, Note_on_c, 0, 91, 0
2, 127919, Note_on_c, 0, 91, 63
2, 127920, Note_on_c, 0, 87, 78
2, 127979, Note_on_c, 0, 94, 0
2, 127979, Note_on_c, 0, 99, 0
2, 127983, Note_on_c, 0, 94, 78
2, 127985, Note_on_c, 0, 99, 59
2, 128040, Note_on_c, 0, 56, 0
2, 128040, Note_on_c, 0, 60, 0
2, 128040, Note_on_c, 0, 82, 0
2, 128040, Note_on_c, 0, 91, 0
2, 128040, Note_on_c, 0, 94, 0
2, 128045, Note_on_c, 0, 82, 87
2, 128045, Note_on_c, 0, 60, 90
2, 128047, Note_on_c, 0, 91, 71
2, 128048, Note_on_c, 0, 87, 0
2, 128049, Note_on_c, 0, 94, 82
2, 128051, Note_on_c, 0, 90, 69
2, 128051, Note_on_c, 0, 56, 74
2, 128055, Note_on_c, 0, 87, 82
2, 128058, Note_on_c, 0, 51, 0
2, 128102, Note_on_c, 0, 91, 0
2, 128102, Note_on_c, 0, 94, 0
2, 128102, Note_on_c, 0, 99, 0
2, 128106, Note_on_c, 0, 91, 60
2, 128113, Note_on_c, 0, 94, 82
2, 128113, Note_on_c, 0, 99, 60
2, 128179, Note_on_c, 0, 82, 0
2, 128179, Note_on_c, 0, 87, 0
2, 128179, Note_on_c, 0, 91, 0
2, 128184, Note_on_c, 0, 82, 80
2, 128188, Note_on_c, 0, 91, 63
2, 128190, Note_on_c, 0, 87, 69
2, 128240, Note_on_c, 0, 94, 0
2, 128247, Note_on_c, 0, 94, 78
2, 128254, Note_on_c, 0, 68, 0
2, 128255, Note_on_c, 0, 60, 0
2, 128256, Note_on_c, 0, 72, 0
2, 128256, Note_on_c, 0, 82, 0
2, 128257, Note_on_c, 0, 63, 0
2, 128258, Control_c, 0, 64, 0
2, 128263, Note_on_c, 0, 36, 0
2, 128263, Note_on_c, 0, 90, 0
2, 128271, Note_on_c, 0, 48, 0
2, 128271, Note_on_c, 0, 56, 0
2, 128279, Note_on_c, 0, 99, 0
2, 128286, Note_on_c, 0, 91, 0
2, 128302, Note_on_c, 0, 87, 0
2, 128302, Note_on_c, 0, 49, 102
2, 128304, Note_on_c, 0, 37, 100
2, 128308, Note_on_c, 0, 87, 79
2, 128315, Note_on_c, 0, 82, 87
2, 128340, Control_c, 0, 64, 127
2, 128371, Note_on_c, 0, 94, 0
2, 128375, Note_on_c, 0, 94, 79
2, 128432, Note_on_c, 0, 82, 0
2, 128437, Note_on_c, 0, 82, 83
2, 128440, Note_on_c, 0, 87, 0
2, 128443, Note_on_c, 0, 91, 50
2, 128444, Note_on_c, 0, 87, 66
2, 128494, Note_on_c, 0, 94, 0
2, 128504, Note_on_c, 0, 94, 78
2, 128563, Note_on_c, 0, 82, 0
2, 128563, Note_on_c, 0, 87, 0
2, 128572, Note_on_c, 0, 82, 79
2, 128574, Note_on_c, 0, 87, 77
2, 128624, Note_on_c, 0, 94, 0
2, 128631, Note_on_c, 0, 94, 81
2, 128684, Control_c, 0, 64, 0
2, 128686, Note_on_c, 0, 49, 0
2, 128688, Note_on_c, 0, 37, 0
2, 128701, Note_on_c, 0, 82, 0
2, 128701, Note_on_c, 0, 87, 0
2, 128703, Note_on_c, 0, 48, 102
2, 128705, Note_on_c, 0, 36, 93
2, 128709, Note_on_c, 0, 99, 76
2, 128710, Note_on_c, 0, 87, 81
2, 128716, Note_on_c, 0, 99, 0
2, 128762, Control_c, 0, 64, 127
2, 128770, Note_on_c, 0, 94, 0
2, 128777, Note_on_c, 0, 94, 69
2, 128781, Note_on_c, 0, 99, 55
2, 128832, Note_on_c, 0, 87, 0
2, 128832, Note_on_c, 0, 94, 0
2, 128842, Note_on_c, 0, 87, 78
2, 128843, Note_on_c, 0, 94, 73
2, 128844, Note_on_c, 0, 82, 84
2, 128893, Note_on_c, 0, 99, 0
2, 128901, Note_on_c, 0, 94, 0
2, 128904, Note_on_c, 0, 99, 62
2, 128908, Note_on_c, 0, 94, 66
2, 128962, Note_on_c, 0, 82, 0
2, 128970, Note_on_c, 0, 87, 0
2, 128972, Note_on_c, 0, 82, 75
2, 128974, Note_on_c, 0, 87, 73
2, 129024, Note_on_c, 0, 94, 0
2, 129024, Note_on_c, 0, 99, 0
2, 129033, Note_on_c, 0, 99, 50
2, 129034, Note_on_c, 0, 94, 59
2, 129093, Note_on_c, 0, 82, 0
2, 129093, Note_on_c, 0, 87, 0
2, 129093, Note_on_c, 0, 94, 0
2, 129098, Note_on_c, 0, 82, 70
2, 129099, Note_on_c, 0, 94, 64
2, 129103, Note_on_c, 0, 87, 84
2, 129154, Note_on_c, 0, 94, 0
2, 129158, Note_on_c, 0, 94, 79
2, 129160, Note_on_c, 0, 36, 0
2, 129161, Note_on_c, 0, 48, 0
2, 129162, Note_on_c, 0, 91, 0
2, 129165, Note_on_c, 0, 82, 0
2, 129165, Control_c, 0, 64, 0
2, 129177, Note_on_c, 0, 99, 0
2, 129215, Note_on_c, 0, 47, 101
2, 129216, Note_on_c, 0, 94, 0
2, 129220, Note_on_c, 0, 35, 84
2, 129223, Note_on_c, 0, 87, 0
2, 129224, Note_on_c, 0, 94, 88
2, 129226, Note_on_c, 0, 99, 82
2, 129227, Note_on_c, 0, 87, 83
2, 129228, Note_on_c, 0, 82, 82
2, 129228, Note_on_c, 0, 90, 75
2, 129231, Note_on_c, 0, 99, 0
2, 129262, Control_c, 0, 64, 127
2, 129285, Note_on_c, 0, 94, 0
2, 129296, Note_on_c, 0, 94, 76
2, 129298, Note_on_c, 0, 99, 58
2, 129308, Note_on_c, 0, 99, 0
2, 129361, Note_on_c, 0, 82, 0
2, 129361, Note_on_c, 0, 87, 0
2, 129361, Note_on_c, 0, 90, 0
2, 129366, Note_on_c, 0, 99, 69
2, 129366, Note_on_c, 0, 87, 73
2, 129370, Note_on_c, 0, 90, 64
2, 129370, Note_on_c, 0, 82, 74
2, 129415, Note_on_c, 0, 94, 0
2, 129421, Note_on_c, 0, 94, 75
2, 129469, Note_on_c, 0, 47, 0
2, 129477, Note_on_c, 0, 90, 0
2, 129480, Note_on_c, 0, 47, 81
2, 129484, Note_on_c, 0, 82, 0
2, 129484, Note_on_c, 0, 87, 0
2, 129484, Note_on_c, 0, 94, 0
2, 129484, Note_on_c, 0, 99, 0
2, 129487, Note_on_c, 0, 90, 68
2, 129489, Note_on_c, 0, 99, 74
2, 129489, Note_on_c, 0, 82, 71
2, 129493, Note_on_c, 0, 87, 78
2, 129494, Note_on_c, 0, 94, 77
2, 129538, Note_on_c, 0, 94, 0
2, 129549, Note_on_c, 0, 94, 81
2, 129607, Note_on_c, 0, 87, 0
2, 129607, Note_on_c, 0, 90, 0
2, 129614, Note_on_c, 0, 59, 73
2, 129614, Note_on_c, 0, 51, 69
2, 129614, Note_on_c, 0, 90, 69
2, 129614, Note_on_c, 0, 54, 80
2, 129615, Note_on_c, 0, 99, 0
2, 129618, Note_on_c, 0, 39, 72
2, 129619, Note_on_c, 0, 87, 76
2, 129620, Note_on_c, 0, 99, 71
2, 129676, Note_on_c, 0, 94, 0
2, 129676, Note_on_c, 0, 99, 0
2, 129685, Note_on_c, 0, 99, 59
2, 129687, Note_on_c, 0, 94, 88
2, 129738, Note_on_c, 0, 59, 0
2, 129745, Note_on_c, 0, 59, 82
2, 129761, Note_on_c, 0, 87, 0
2, 129766, Note_on_c, 0, 87, 68
2, 129792, Note_on_c, 0, 94, 0
2, 129799, Note_on_c, 0, 94, 77
2, 129853, Note_on_c, 0, 59, 0
2, 129854, Note_on_c, 0, 71, 96
2, 129861, Note_on_c, 0, 87, 0
2, 129861, Note_on_c, 0, 90, 0
2, 129861, Note_on_c, 0, 94, 0
2, 129863, Note_on_c, 0, 66, 94
2, 129864, Note_on_c, 0, 63, 84
2, 129864, Note_on_c, 0, 59, 80
2, 129869, Note_on_c, 0, 94, 84
2, 129872, Note_on_c, 0, 87, 83
2, 129872, Note_on_c, 0, 90, 83
2, 129922, Note_on_c, 0, 94, 0
2, 129928, Note_on_c, 0, 94, 93
2, 129968, Note_on_c, 0, 59, 0
2, 129973, Note_on_c, 0, 59, 73
2, 130007, Note_on_c, 0, 82, 0
2, 130014, Note_on_c, 0, 87, 0
2, 130017, Note_on_c, 0, 82, 85
2, 130020, Note_on_c, 0, 87, 70
2, 130091, Note_on_c, 0, 94, 0
2, 130099, Note_on_c, 0, 59, 0
2, 130102, Note_on_c, 0, 94, 95
2, 130106, Note_on_c, 0, 51, 0
2, 130106, Note_on_c, 0, 54, 0
2, 130106, Note_on_c, 0, 82, 0
2, 130106, Note_on_c, 0, 87, 0
2, 130109, Note_on_c, 0, 59, 84
2, 130111, Note_on_c, 0, 82, 81
2, 130111, Note_on_c, 0, 54, 82
2, 130112, Note_on_c, 0, 87, 81
2, 130117, Note_on_c, 0, 51, 75
2, 130323, Control_c, 0, 64, 0
2, 130324, Note_on_c, 0, 35, 0
2, 130325, Note_on_c, 0, 54, 0
2, 130325, Note_on_c, 0, 71, 0
2, 130325, Note_on_c, 0, 94, 0
2, 130325, Note_on_c, 0, 66, 0
2, 130325, Note_on_c, 0, 59, 0
2, 130325, Note_on_c, 0, 90, 0
2, 130325, Note_on_c, 0, 82, 0
2, 130326, Note_on_c, 0, 87, 0
2, 130327, Note_on_c, 0, 51, 0
2, 130329, Note_on_c, 0, 39, 0
2, 130329, Note_on_c, 0, 99, 0
2, 130337, Note_on_c, 0, 47, 0
2, 130337, Note_on_c, 0, 63, 0
2, 130371, Note_on_c, 0, 51, 102
2, 130371, Note_on_c, 0, 39, 100
2, 130374, Note_on_c, 0, 73, 103
2, 130406, Control_c, 0, 64, 127
2, 130455, Note_on_c, 0, 85, 71
2, 130508, Note_on_c, 0, 75, 92
2, 130510, Note_on_c, 0, 87, 72
2, 130583, Note_on_c, 0, 87, 0
2, 130589, Note_on_c, 0, 87, 84
2, 130629, Note_on_c, 0, 73, 0
2, 130637, Note_on_c, 0, 73, 83
2, 130682, Note_on_c, 0, 85, 0
2, 130688, Note_on_c, 0, 85, 67
2, 130723, Note_on_c, 0, 87, 0
2, 130724, Note_on_c, 0, 75, 0
2, 130724, Note_on_c, 0, 85, 0
2, 130725, Note_on_c, 0, 73, 0
2, 130725, Note_on_c, 0, 51, 0
2, 130726, Note_on_c, 0, 39, 0
2, 130727, Control_c, 0, 64, 0
2, 130744, Note_on_c, 0, 49, 96
2, 130746, Note_on_c, 0, 37, 97
2, 130754, Note_on_c, 0, 82, 104
2, 130759, Note_on_c, 0, 94, 92
2, 130767, Note_on_c, 0, 94, 0
2, 130782, Control_c, 0, 64, 127
2, 130831, Note_on_c, 0, 94, 91
2, 130887, Note_on_c, 0, 80, 96
2, 130944, Note_on_c, 0, 94, 0
2, 130962, Note_on_c, 0, 92, 72
2, 131015, Note_on_c, 0, 75, 103
2, 131016, Note_on_c, 0, 87, 82
2, 131082, Note_on_c, 0, 87, 0
2, 131087, Note_on_c, 0, 87, 84
2, 131143, Note_on_c, 0, 73, 97
2, 131202, Note_on_c, 0, 85, 80
2, 131205, Note_on_c, 0, 92, 0
2, 131208, Note_on_c, 0, 80, 0
2, 131208, Note_on_c, 0, 82, 0
2, 131208, Control_c, 0, 64, 0
2, 131209, Note_on_c, 0, 49, 0
2, 131209, Note_on_c, 0, 75, 0
2, 131209, Note_on_c, 0, 87, 0
2, 131210, Note_on_c, 0, 73, 0
2, 131235, Note_on_c, 0, 37, 0
2, 131254, Note_on_c, 0, 48, 103
2, 131255, Note_on_c, 0, 36, 91
2, 131260, Note_on_c, 0, 75, 101
2, 131262, Note_on_c, 0, 87, 91
2, 131266, Note_on_c, 0, 85, 0
2, 131289, Control_c, 0, 64, 127
2, 131328, Note_on_c, 0, 87, 0
2, 131337, Note_on_c, 0, 87, 81
2, 131389, Note_on_c, 0, 75, 0
2, 131389, Note_on_c, 0, 87, 0
2, 131394, Note_on_c, 0, 75, 97
2, 131399, Note_on_c, 0, 87, 82
2, 131496, Note_on_c, 0, 48, 0
2, 131502, Note_on_c, 0, 48, 91
2, 131504, Note_on_c, 0, 36, 0
2, 131514, Note_on_c, 0, 36, 80
2, 131530, Note_on_c, 0, 80, 99
2, 131538, Note_on_c, 0, 92, 81
2, 131543, Note_on_c, 0, 92, 0
2, 131597, Note_on_c, 0, 92, 78
2, 131635, Note_on_c, 0, 60, 93
2, 131642, Note_on_c, 0, 80, 0
2, 131644, Note_on_c, 0, 56, 84
2, 131652, Note_on_c, 0, 80, 93
2, 131688, Note_on_c, 0, 92, 0
2, 131773, Note_on_c, 0, 60, 0
2, 131782, Note_on_c, 0, 60, 90
2, 131782, Note_on_c, 0, 82, 101
2, 131853, Note_on_c, 0, 94, 82
2, 131857, Note_on_c, 0, 94, 0
2, 131896, Note_on_c, 0, 56, 0
2, 131896, Note_on_c, 0, 60, 0
2, 131896, Note_on_c, 0, 82, 0
2, 131898, Note_on_c, 0, 72, 98
2, 131900, Note_on_c, 0, 94, 92
2, 131903, Note_on_c, 0, 60, 82
2, 131904, Note_on_c, 0, 82, 102
2, 131904, Note_on_c, 0, 68, 96
2, 131905, Note_on_c, 0, 56, 83
2, 131906, Note_on_c, 0, 63, 84
2, 131911, Note_on_c, 0, 94, 0
2, 131961, Note_on_c, 0, 94, 90
2, 132003, Note_on_c, 0, 60, 0
2, 132012, Note_on_c, 0, 60, 94
2, 132034, Note_on_c, 0, 80, 0
2, 132043, Note_on_c, 0, 92, 72
2, 132043, Note_on_c, 0, 80, 90
2, 132049, Note_on_c, 0, 92, 0
2, 132126, Note_on_c, 0, 80, 0
2, 132134, Note_on_c, 0, 48, 0
2, 132134, Note_on_c, 0, 56, 0
2, 132134, Note_on_c, 0, 60, 0
2, 132134, Note_on_c, 0, 80, 96
2, 132138, Note_on_c, 0, 60, 87
2, 132144, Note_on_c, 0, 56, 89
2, 132144, Note_on_c, 0, 51, 90
2, 132145, Note_on_c, 0, 48, 80
2, 132277, Note_on_c, 0, 60, 0
2, 132280, Note_on_c, 0, 75, 0
2, 132285, Note_on_c, 0, 75, 82
2, 132364, Note_on_c, 0, 36, 0
2, 132364, Note_on_c, 0, 94, 0
2, 132365, Note_on_c, 0, 51, 0
2, 132365, Note_on_c, 0, 56, 0
2, 132365, Note_on_c, 0, 80, 0
2, 132365, Note_on_c, 0, 75, 0
2, 132365, Note_on_c, 0, 68, 0
2, 132366, Control_c, 0, 64, 0
2, 132366, Note_on_c, 0, 87, 0
2, 132366, Note_on_c, 0, 82, 0
2, 132366, Note_on_c, 0, 63, 0
2, 132367, Note_on_c, 0, 72, 0
2, 132380, Note_on_c, 0, 48, 0
2, 132387, Note_on_c, 0, 61, 98
2, 132388, Note_on_c, 0, 49, 102
2, 132389, Note_on_c, 0, 73, 108
2, 132391, Note_on_c, 0, 37, 101
2, 132394, Note_on_c, 0, 70, 80
2, 132426, Control_c, 0, 64, 127
2, 132449, Note_on_c, 0, 70, 0
2, 132477, Note_on_c, 0, 85, 88
2, 132529, Note_on_c, 0, 75, 103
2, 132531, Note_on_c, 0, 87, 84
2, 132648, Note_on_c, 0, 73, 0
2, 132653, Note_on_c, 0, 73, 97
2, 132702, Note_on_c, 0, 85, 0
2, 132708, Note_on_c, 0, 85, 85
2, 132732, Note_on_c, 0, 75, 0
2, 132733, Note_on_c, 0, 73, 0
2, 132736, Note_on_c, 0, 87, 0
2, 132737, Control_c, 0, 64, 0
2, 132738, Note_on_c, 0, 85, 0
2, 132748, Note_on_c, 0, 37, 0
2, 132748, Note_on_c, 0, 49, 0
2, 132748, Note_on_c, 0, 61, 0
2, 132775, Note_on_c, 0, 48, 99
2, 132776, Note_on_c, 0, 80, 102
2, 132777, Note_on_c, 0, 36, 93
2, 132794, Control_c, 0, 64, 127
2, 132903, Note_on_c, 0, 79, 99
2, 132971, Note_on_c, 0, 91, 91
2, 133023, Note_on_c, 0, 75, 108
2, 133026, Note_on_c, 0, 87, 88
2, 133086, Note_on_c, 0, 87, 0
2, 133097, Note_on_c, 0, 87, 55
2, 133102, Note_on_c, 0, 75, 0
2, 133111, Note_on_c, 0, 75, 71
2, 133153, Note_on_c, 0, 73, 101
2, 133221, Note_on_c, 0, 79, 0
2, 133221, Note_on_c, 0, 80, 0
2, 133221, Note_on_c, 0, 85, 76
2, 133221, Note_on_c, 0, 75, 0
2, 133222, Note_on_c, 0, 48, 0
2, 133223, Note_on_c, 0, 87, 0
2, 133226, Note_on_c, 0, 73, 0
2, 133226, Control_c, 0, 64, 0
2, 133232, Note_on_c, 0, 91, 0
2, 133240, Note_on_c, 0, 36, 0
2, 133255, Note_on_c, 0, 85, 0
2, 133275, Note_on_c, 0, 47, 103
2, 133275, Note_on_c, 0, 75, 105
2, 133278, Note_on_c, 0, 35, 93
2, 133294, Control_c, 0, 64, 127
2, 133340, Note_on_c, 0, 75, 0
2, 133346, Note_on_c, 0, 75, 92
2, 133393, Note_on_c, 0, 75, 0
2, 133405, Note_on_c, 0, 75, 102
2, 133447, Note_on_c, 0, 75, 0
2, 133452, Note_on_c, 0, 87, 67
2, 133458, Note_on_c, 0, 75, 76
2, 133524, Note_on_c, 0, 47, 0
2, 133530, Note_on_c, 0, 59, 85
2, 133531, Note_on_c, 0, 54, 77
2, 133532, Note_on_c, 0, 47, 86
2, 133535, Note_on_c, 0, 78, 99
2, 133606, Note_on_c, 0, 90, 92
2, 133647, Note_on_c, 0, 59, 0
2, 133652, Note_on_c, 0, 59, 85
2, 133655, Note_on_c, 0, 54, 0
2, 133659, Note_on_c, 0, 54, 76
2, 133662, Note_on_c, 0, 87, 0
2, 133666, Note_on_c, 0, 51, 75
2, 133671, Note_on_c, 0, 87, 69
2, 133785, Note_on_c, 0, 47, 0
2, 133785, Note_on_c, 0, 59, 0
2, 133790, Note_on_c, 0, 47, 71
2, 133791, Note_on_c, 0, 59, 83
2, 133796, Note_on_c, 0, 80, 89
2, 133847, Note_on_c, 0, 87, 0
2, 133854, Note_on_c, 0, 92, 76
2, 133856, Note_on_c, 0, 87, 62
2, 133862, Note_on_c, 0, 92, 0
2, 133908, Note_on_c, 0, 47, 0
2, 133908, Note_on_c, 0, 59, 0
2, 133908, Note_on_c, 0, 80, 0
2, 133913, Note_on_c, 0, 71, 96
2, 133914, Note_on_c, 0, 80, 88
2, 133916, Note_on_c, 0, 54, 0
2, 133918, Note_on_c, 0, 47, 81
2, 133918, Note_on_c, 0, 59, 80
2, 133918, Note_on_c, 0, 66, 90
2, 133919, Note_on_c, 0, 75, 0
2, 133926, Note_on_c, 0, 54, 75
2, 134031, Note_on_c, 0, 59, 0
2, 134035, Note_on_c, 0, 59, 78
2, 134042, Note_on_c, 0, 94, 83
2, 134042, Note_on_c, 0, 82, 97
2, 134046, Note_on_c, 0, 94, 0
2, 134161, Note_on_c, 0, 59, 0
2, 134161, Note_on_c, 0, 82, 0
2, 134166, Note_on_c, 0, 59, 82
2, 134166, Note_on_c, 0, 82, 94
2, 134169, Note_on_c, 0, 47, 0
2, 134169, Note_on_c, 0, 51, 0
2, 134169, Note_on_c, 0, 54, 0
2, 134172, Note_on_c, 0, 94, 94
2, 134175, Note_on_c, 0, 47, 77
2, 134177, Note_on_c, 0, 94, 0
2, 134178, Note_on_c, 0, 54, 79
2, 134178, Note_on_c, 0, 51, 76
2, 134328, Control_c, 0, 64, 0
2, 134332, Note_on_c, 0, 71, 0
2, 134332, Note_on_c, 0, 80, 0
2, 134332, Note_on_c, 0, 47, 0
2, 134332, Note_on_c, 0, 66, 0
2, 134332, Note_on_c, 0, 54, 0
2, 134333, Note_on_c, 0, 35, 0
2, 134333, Note_on_c, 0, 59, 0
2, 134333, Note_on_c, 0, 82, 0
2, 134333, Note_on_c, 0, 51, 0
2, 134338, Note_on_c, 0, 87, 0
2, 134338, Note_on_c, 0, 90, 0
2, 134353, Note_on_c, 0, 78, 0
2, 134425, Note_on_c, 0, 82, 105
2, 134427, Note_on_c, 0, 74, 92
2, 134427, Note_on_c, 0, 70, 94
2, 134432, Note_on_c, 0, 77, 82
2, 134432, Note_on_c, 0, 58, 91
2, 134433, Note_on_c, 0, 46, 88
2, 134446, Control_c, 0, 64, 127
2, 134561, Note_on_c, 0, 58, 0
2, 134570, Note_on_c, 0, 62, 79
2, 134571, Note_on_c, 0, 58, 80
2, 134580, Control_c, 0, 64, 0
2, 134588, Note_on_c, 0, 70, 0
2, 134603, Note_on_c, 0, 82, 0
2, 134607, Note_on_c, 0, 62, 0
2, 134622, Note_on_c, 0, 74, 0
2, 134630, Note_on_c, 0, 46, 0
2, 134630, Note_on_c, 0, 77, 0
2, 134638, Note_on_c, 0, 58, 0
2, 134827, Note_on_c, 0, 53, 69
2, 134871, Note_on_c, 0, 53, 0
2, 134936, Note_on_c, 0, 82, 94
2, 134941, Note_on_c, 0, 74, 77
2, 134943, Note_on_c, 0, 70, 85
2, 134946, Note_on_c, 0, 62, 75
2, 134949, Note_on_c, 0, 58, 79
2, 134973, Note_on_c, 0, 62, 0
2, 134973, Note_on_c, 0, 74, 0
2, 134975, Note_on_c, 0, 70, 0
2, 134977, Note_on_c, 0, 82, 0
2, 134999, Note_on_c, 0, 58, 0
2, 135073, Note_on_c, 0, 80, 88
2, 135075, Note_on_c, 0, 68, 82
2, 135108, Note_on_c, 0, 80, 0
2, 135109, Note_on_c, 0, 68, 0
2, 135189, Note_on_c, 0, 68, 79
2, 135190, Note_on_c, 0, 80, 81
2, 135194, Note_on_c, 0, 58, 77
2, 135217, Note_on_c, 0, 68, 0
2, 135219, Note_on_c, 0, 58, 0
2, 135220, Note_on_c, 0, 80, 0
2, 135316, Note_on_c, 0, 80, 95
2, 135320, Note_on_c, 0, 68, 90
2, 135324, Note_on_c, 0, 75, 83
2, 135324, Note_on_c, 0, 56, 91
2, 135325, Note_on_c, 0, 72, 78
2, 135325, Note_on_c, 0, 44, 88
2, 135336, Control_c, 0, 64, 127
2, 135504, Control_c, 0, 64, 0
2, 135548, Note_on_c, 0, 44, 0
2, 135575, Note_on_c, 0, 75, 0
2, 135577, Note_on_c, 0, 79, 92
2, 135579, Note_on_c, 0, 60, 77
2, 135580, Note_on_c, 0, 67, 74
2, 135584, Note_on_c, 0, 75, 60
2, 135602, Note_on_c, 0, 68, 0
2, 135607, Note_on_c, 0, 80, 0
2, 135610, Note_on_c, 0, 67, 0
2, 135611, Note_on_c, 0, 56, 0
2, 135616, Note_on_c, 0, 79, 0
2, 135644, Note_on_c, 0, 60, 0
2, 135820, Note_on_c, 0, 75, 0
2, 135825, Note_on_c, 0, 75, 85
2, 135829, Note_on_c, 0, 56, 72
2, 135830, Note_on_c, 0, 68, 69
2, 135954, Note_on_c, 0, 63, 88
2, 135974, Note_on_c, 0, 56, 0
2, 135975, Note_on_c, 0, 60, 64
2, 136005, Note_on_c, 0, 68, 0
2, 136005, Note_on_c, 0, 72, 0
2, 136028, Note_on_c, 0, 63, 0
2, 136181, Note_on_c, 0, 60, 0
2, 136212, Note_on_c, 0, 75, 0
2, 136215, Note_on_c, 0, 44, 82
2, 136215, Note_on_c, 0, 56, 83
2, 136223, Note_on_c, 0, 75, 82
2, 136248, Note_on_c, 0, 56, 0
2, 136253, Note_on_c, 0, 44, 0
2, 136340, Note_on_c, 0, 77, 84
2, 136366, Note_on_c, 0, 75, 0
2, 136400, Note_on_c, 0, 77, 0
2, 136476, Note_on_c, 0, 79, 94
2, 136477, Note_on_c, 0, 55, 76
2, 136477, Note_on_c, 0, 43, 65
2, 136478, Note_on_c, 0, 67, 84
2, 136484, Note_on_c, 0, 75, 89
2, 136485, Note_on_c, 0, 70, 74
2, 136488, Control_c, 0, 64, 127
2, 136612, Note_on_c, 0, 63, 76
2, 136616, Note_on_c, 0, 58, 69
2, 136761, Control_c, 0, 64, 0
2, 136791, Note_on_c, 0, 58, 0
2, 136792, Note_on_c, 0, 55, 0
2, 136819, Note_on_c, 0, 43, 0
2, 136857, Note_on_c, 0, 67, 0
2, 136857, Note_on_c, 0, 79, 0
2, 136861, Note_on_c, 0, 79, 86
2, 136867, Note_on_c, 0, 55, 70
2, 136869, Note_on_c, 0, 67, 73
2, 136874, Note_on_c, 0, 43, 51
2, 136895, Note_on_c, 0, 67, 0
2, 136896, Note_on_c, 0, 63, 0
2, 136896, Note_on_c, 0, 79, 0
2, 136898, Note_on_c, 0, 55, 0
2, 136903, Note_on_c, 0, 75, 0
2, 136911, Note_on_c, 0, 70, 0
2, 136926, Note_on_c, 0, 43, 0
2, 136996, Note_on_c, 0, 79, 91
2, 136997, Note_on_c, 0, 63, 70
2, 136998, Note_on_c, 0, 67, 74
2, 136998, Note_on_c, 0, 58, 72
2, 136999, Note_on_c, 0, 75, 74
2, 137017, Note_on_c, 0, 67, 0
2, 137026, Note_on_c, 0, 75, 0
2, 137041, Note_on_c, 0, 58, 0
2, 137041, Note_on_c, 0, 63, 0
2, 137041, Note_on_c, 0, 79, 0
2, 137123, Note_on_c, 0, 80, 85
2, 137138, Note_on_c, 0, 68, 61
2, 137158, Note_on_c, 0, 80, 0
2, 137187, Note_on_c, 0, 68, 0
2, 137235, Note_on_c, 0, 55, 82
2, 137237, Note_on_c, 0, 43, 66
2, 137241, Note_on_c, 0, 79, 81
2, 137244, Note_on_c, 0, 81, 78
2, 137244, Note_on_c, 0, 67, 76
2, 137263, Note_on_c, 0, 55, 0
2, 137267, Note_on_c, 0, 81, 0
2, 137268, Note_on_c, 0, 67, 0
2, 137269, Note_on_c, 0, 79, 0
2, 137287, Note_on_c, 0, 43, 0
2, 137370, Note_on_c, 0, 77, 89
2, 137374, Note_on_c, 0, 74, 81
2, 137375, Note_on_c, 0, 56, 82
2, 137375, Note_on_c, 0, 65, 82
2, 137383, Note_on_c, 0, 44, 77
2, 137389, Note_on_c, 0, 70, 73
2, 137418, Control_c, 0, 64, 127
2, 137448, Note_on_c, 0, 65, 0
2, 137635, Note_on_c, 0, 79, 89
2, 137636, Note_on_c, 0, 60, 76
2, 137637, Note_on_c, 0, 48, 64
2, 137639, Note_on_c, 0, 67, 76
2, 137645, Note_on_c, 0, 75, 58
2, 137651, Control_c, 0, 64, 0
2, 137656, Note_on_c, 0, 74, 0
2, 137675, Note_on_c, 0, 75, 0
2, 137687, Note_on_c, 0, 70, 0
2, 137687, Note_on_c, 0, 77, 0
2, 137733, Note_on_c, 0, 56, 0
2, 137764, Note_on_c, 0, 75, 87
2, 137794, Note_on_c, 0, 48, 0
2, 137825, Note_on_c, 0, 79, 0
2, 137840, Note_on_c, 0, 67, 0
2, 137894, Note_on_c, 0, 56, 79
2, 137917, Note_on_c, 0, 60, 0
2, 137951, Note_on_c, 0, 56, 0
2, 137955, Note_on_c, 0, 44, 0
2, 138019, Note_on_c, 0, 63, 83
2, 138022, Note_on_c, 0, 60, 65
2, 138040, Note_on_c, 0, 75, 0
2, 138048, Note_on_c, 0, 63, 0
2, 138071, Note_on_c, 0, 60, 0
2, 138267, Note_on_c, 0, 56, 83
2, 138268, Note_on_c, 0, 44, 84
2, 138293, Note_on_c, 0, 56, 0
2, 138316, Note_on_c, 0, 44, 0
2, 138519, Note_on_c, 0, 46, 84
2, 138520, Note_on_c, 0, 58, 82
2, 138521, Note_on_c, 0, 94, 102
2, 138526, Note_on_c, 0, 82, 93
2, 138531, Note_on_c, 0, 86, 81
2, 138539, Control_c, 0, 64, 127
2, 138647, Note_on_c, 0, 58, 0
2, 138654, Note_on_c, 0, 58, 81
2, 138655, Note_on_c, 0, 62, 78
2, 138726, Control_c, 0, 64, 0
2, 138766, Note_on_c, 0, 62, 0
2, 138769, Note_on_c, 0, 82, 0
2, 138770, Note_on_c, 0, 94, 0
2, 138772, Note_on_c, 0, 86, 0
2, 138773, Note_on_c, 0, 58, 0
2, 138773, Note_on_c, 0, 46, 0
2, 138918, Note_on_c, 0, 65, 58
2, 138923, Note_on_c, 0, 53, 73
2, 138923, Note_on_c, 0, 65, 0
2, 138925, Note_on_c, 0, 94, 98
2, 138930, Note_on_c, 0, 82, 84
2, 138963, Note_on_c, 0, 53, 0
2, 138965, Note_on_c, 0, 92, 38
2, 138966, Note_on_c, 0, 82, 0
2, 138967, Note_on_c, 0, 94, 0
2, 139031, Note_on_c, 0, 92, 0
2, 139050, Note_on_c, 0, 62, 77
2, 139052, Note_on_c, 0, 94, 94
2, 139054, Note_on_c, 0, 58, 78
2, 139059, Note_on_c, 0, 82, 71
2, 139077, Note_on_c, 0, 62, 0
2, 139100, Note_on_c, 0, 58, 0
2, 139107, Note_on_c, 0, 82, 0
2, 139180, Note_on_c, 0, 96, 89
2, 139181, Note_on_c, 0, 84, 82
2, 139200, Note_on_c, 0, 94, 0
2, 139230, Note_on_c, 0, 84, 0
2, 139246, Note_on_c, 0, 96, 0
2, 139290, Note_on_c, 0, 98, 98
2, 139295, Note_on_c, 0, 86, 89
2, 139303, Note_on_c, 0, 58, 77
2, 139305, Note_on_c, 0, 46, 78
2, 139327, Note_on_c, 0, 58, 0
2, 139332, Note_on_c, 0, 86, 0
2, 139353, Note_on_c, 0, 46, 0
2, 139399, Note_on_c, 0, 98, 0
2, 139426, Note_on_c, 0, 99, 98
2, 139434, Note_on_c, 0, 87, 96
2, 139443, Note_on_c, 0, 56, 86
2, 139447, Note_on_c, 0, 44, 85
2, 139453, Control_c, 0, 64, 127
2, 139704, Note_on_c, 0, 94, 91
2, 139705, Note_on_c, 0, 82, 89
2, 139705, Note_on_c, 0, 60, 72
2, 139738, Note_on_c, 0, 56, 0
2, 139742, Note_on_c, 0, 60, 0
2, 139745, Note_on_c, 0, 44, 0
2, 139746, Control_c, 0, 64, 0
2, 139752, Note_on_c, 0, 87, 0
2, 139768, Note_on_c, 0, 99, 0
2, 139948, Note_on_c, 0, 91, 87
2, 139953, Note_on_c, 0, 79, 81
2, 139956, Note_on_c, 0, 56, 69
2, 140029, Note_on_c, 0, 56, 0
2, 140044, Note_on_c, 0, 79, 0
2, 140081, Note_on_c, 0, 63, 81
2, 140085, Note_on_c, 0, 60, 62
2, 140113, Note_on_c, 0, 60, 0
2, 140115, Note_on_c, 0, 63, 0
2, 140167, Note_on_c, 0, 82, 0
2, 140183, Note_on_c, 0, 91, 0
2, 140224, Note_on_c, 0, 87, 93
2, 140225, Note_on_c, 0, 75, 78
2, 140259, Note_on_c, 0, 94, 0
2, 140344, Control_c, 0, 64, 127
2, 140346, Note_on_c, 0, 44, 81
2, 140347, Note_on_c, 0, 56, 76
2, 140539, Note_on_c, 0, 87, 0
2, 140543, Control_c, 0, 64, 0
2, 140551, Note_on_c, 0, 44, 0
2, 140551, Note_on_c, 0, 75, 0
2, 140559, Note_on_c, 0, 56, 0
2, 140602, Note_on_c, 0, 60, 75
2, 140603, Note_on_c, 0, 48, 79
2, 140603, Note_on_c, 0, 91, 100
2, 140610, Note_on_c, 0, 79, 84
2, 140617, Note_on_c, 0, 87, 82
2, 140617, Note_on_c, 0, 84, 71
2, 140628, Control_c, 0, 64, 127
2, 140748, Note_on_c, 0, 63, 78
2, 140748, Note_on_c, 0, 67, 68
2, 140854, Note_on_c, 0, 48, 0
2, 140860, Control_c, 0, 64, 0
2, 140860, Note_on_c, 0, 63, 0
2, 140861, Note_on_c, 0, 79, 0
2, 140862, Note_on_c, 0, 87, 0
2, 140866, Note_on_c, 0, 60, 0
2, 140874, Note_on_c, 0, 84, 0
2, 140881, Note_on_c, 0, 91, 0
2, 140897, Note_on_c, 0, 67, 0
2, 140989, Note_on_c, 0, 60, 72
2, 140993, Note_on_c, 0, 91, 93
2, 141000, Note_on_c, 0, 79, 81
2, 141029, Note_on_c, 0, 60, 0
2, 141058, Note_on_c, 0, 79, 0
2, 141058, Note_on_c, 0, 91, 0
2, 141117, Note_on_c, 0, 67, 84
2, 141120, Note_on_c, 0, 63, 80
2, 141122, Note_on_c, 0, 91, 94
2, 141148, Note_on_c, 0, 67, 0
2, 141150, Note_on_c, 0, 63, 0
2, 141245, Note_on_c, 0, 92, 91
2, 141258, Note_on_c, 0, 91, 0
2, 141263, Note_on_c, 0, 80, 73
2, 141327, Note_on_c, 0, 80, 0
2, 141365, Note_on_c, 0, 60, 69
2, 141370, Note_on_c, 0, 91, 95
2, 141372, Note_on_c, 0, 79, 89
2, 141376, Note_on_c, 0, 48, 67
2, 141397, Note_on_c, 0, 60, 0
2, 141402, Note_on_c, 0, 91, 0
2, 141404, Note_on_c, 0, 92, 0
2, 141405, Note_on_c, 0, 48, 0
2, 141419, Note_on_c, 0, 79, 0
2, 141491, Note_on_c, 0, 91, 95
2, 141492, Note_on_c, 0, 79, 87
2, 141504, Note_on_c, 0, 82, 84
2, 141508, Note_on_c, 0, 46, 79
2, 141508, Note_on_c, 0, 58, 76
2, 141565, Control_c, 0, 64, 127
2, 141749, Note_on_c, 0, 46, 0
2, 141749, Note_on_c, 0, 58, 0
2, 141752, Note_on_c, 0, 89, 91
2, 141753, Note_on_c, 0, 70, 74
2, 141754, Note_on_c, 0, 77, 75
2, 141754, Note_on_c, 0, 46, 62
2, 141760, Note_on_c, 0, 58, 65
2, 141880, Note_on_c, 0, 65, 64
2, 141996, Note_on_c, 0, 62, 77
2, 142126, Note_on_c, 0, 58, 0
2, 142136, Note_on_c, 0, 58, 55
2, 142246, Note_on_c, 0, 53, 59
2, 142364, Note_on_c, 0, 46, 0
2, 142375, Note_on_c, 0, 46, 64
2, 142606, Note_on_c, 0, 53, 0
2, 142606, Note_on_c, 0, 62, 0
2, 142606, Note_on_c, 0, 91, 0
2, 142606, Note_on_c, 0, 79, 0
2, 142607, Note_on_c, 0, 89, 0
2, 142607, Note_on_c, 0, 46, 0
2, 142607, Note_on_c, 0, 65, 0
2, 142607, Note_on_c, 0, 77, 0
2, 142607, Note_on_c, 0, 70, 0
2, 142607, Note_on_c, 0, 82, 0
2, 142613, Control_c, 0, 64, 0
2, 142625, Note_on_c, 0, 58, 0
2, 142637, Note_on_c, 0, 41, 55
2, 142643, Note_on_c, 0, 60, 46
2, 142649, Note_on_c, 0, 58, 45
2, 142656, Note_on_c, 0, 58, 0
2, 142733, Note_on_c, 0, 48, 60
2, 142748, Control_c, 0, 64, 127
2, 142778, Note_on_c, 0, 60, 0
2, 142820, Note_on_c, 0, 51, 53
2, 142886, Note_on_c, 0, 48, 0
2, 142890, Note_on_c, 0, 48, 52
2, 142896, Note_on_c, 0, 63, 78
2, 142897, Note_on_c, 0, 56, 57
2, 142947, Note_on_c, 0, 51, 0
2, 142958, Note_on_c, 0, 51, 57
2, 143063, Note_on_c, 0, 48, 0
2, 143067, Note_on_c, 0, 48, 57
2, 143131, Note_on_c, 0, 51, 0
2, 143131, Note_on_c, 0, 56, 0
2, 143132, Note_on_c, 0, 48, 0
2, 143133, Control_c, 0, 64, 0
2, 143135, Note_on_c, 0, 63, 0
2, 143139, Note_on_c, 0, 41, 0
2, 143150, Note_on_c, 0, 41, 59
2, 143157, Note_on_c, 0, 70, 80
2, 143224, Control_c, 0, 64, 127
2, 143248, Note_on_c, 0, 48, 57
2, 143330, Note_on_c, 0, 51, 61
2, 143385, Note_on_c, 0, 48, 0
2, 143395, Note_on_c, 0, 48, 53
2, 143407, Note_on_c, 0, 63, 84
2, 143410, Note_on_c, 0, 56, 68
2, 143477, Note_on_c, 0, 51, 0
2, 143482, Note_on_c, 0, 51, 45
2, 143617, Note_on_c, 0, 48, 0
2, 143617, Note_on_c, 0, 51, 0
2, 143618, Control_c, 0, 64, 0
2, 143618, Note_on_c, 0, 56, 0
2, 143620, Note_on_c, 0, 70, 0
2, 143631, Note_on_c, 0, 41, 0
2, 143658, Note_on_c, 0, 43, 64
2, 143662, Note_on_c, 0, 63, 0
2, 143665, Note_on_c, 0, 70, 80
2, 143668, Note_on_c, 0, 63, 66
2, 143738, Control_c, 0, 64, 127
2, 143778, Note_on_c, 0, 51, 66
2, 143855, Note_on_c, 0, 55, 60
2, 143930, Note_on_c, 0, 63, 0
2, 143936, Note_on_c, 0, 63, 81
2, 143942, Note_on_c, 0, 58, 69
2, 144061, Note_on_c, 0, 51, 0
2, 144068, Note_on_c, 0, 51, 43
2, 144143, Note_on_c, 0, 51, 0
2, 144144, Note_on_c, 0, 58, 0
2, 144148, Note_on_c, 0, 63, 0
2, 144148, Control_c, 0, 64, 0
2, 144149, Note_on_c, 0, 70, 0
2, 144161, Note_on_c, 0, 43, 0
2, 144168, Note_on_c, 0, 43, 64
2, 144168, Note_on_c, 0, 55, 0
2, 144172, Note_on_c, 0, 62, 85
2, 144256, Note_on_c, 0, 51, 69
2, 144261, Control_c, 0, 64, 127
2, 144337, Note_on_c, 0, 55, 37
2, 144399, Note_on_c, 0, 51, 0
2, 144408, Note_on_c, 0, 51, 61
2, 144409, Note_on_c, 0, 58, 75
2, 144427, Note_on_c, 0, 63, 79
2, 144491, Note_on_c, 0, 55, 0
2, 144503, Note_on_c, 0, 55, 54
2, 144568, Note_on_c, 0, 51, 0
2, 144572, Note_on_c, 0, 51, 58
2, 144612, Note_on_c, 0, 62, 0
2, 144613, Note_on_c, 0, 58, 0
2, 144616, Note_on_c, 0, 43, 0
2, 144618, Control_c, 0, 64, 0
2, 144637, Note_on_c, 0, 55, 0
2, 144660, Note_on_c, 0, 51, 0
2, 144665, Note_on_c, 0, 44, 73
2, 144681, Note_on_c, 0, 63, 0
2, 144744, Control_c, 0, 64, 127
2, 144759, Note_on_c, 0, 51, 65
2, 144849, Note_on_c, 0, 56, 63
2, 144909, Note_on_c, 0, 60, 70
2, 144910, Note_on_c, 0, 75, 90
2, 144967, Note_on_c, 0, 56, 0
2, 144978, Note_on_c, 0, 56, 69
2, 145075, Note_on_c, 0, 51, 0
2, 145085, Note_on_c, 0, 51, 57
2, 145159, Note_on_c, 0, 44, 0
2, 145164, Note_on_c, 0, 44, 70
2, 145172, Note_on_c, 0, 82, 85
2, 145178, Note_on_c, 0, 75, 0
2, 145180, Control_c, 0, 64, 0
2, 145198, Note_on_c, 0, 51, 0
2, 145198, Note_on_c, 0, 56, 0
2, 145198, Note_on_c, 0, 60, 0
2, 145259, Control_c, 0, 64, 127
2, 145270, Note_on_c, 0, 51, 63
2, 145347, Note_on_c, 0, 56, 66
2, 145426, Note_on_c, 0, 75, 87
2, 145431, Note_on_c, 0, 60, 68
2, 145497, Note_on_c, 0, 56, 0
2, 145509, Note_on_c, 0, 56, 64
2, 145582, Note_on_c, 0, 51, 0
2, 145587, Note_on_c, 0, 51, 62
2, 145670, Control_c, 0, 64, 0
2, 145670, Note_on_c, 0, 51, 0
2, 145671, Note_on_c, 0, 60, 0
2, 145674, Note_on_c, 0, 82, 0
2, 145674, Note_on_c, 0, 75, 0
2, 145678, Note_on_c, 0, 43, 72
2, 145678, Note_on_c, 0, 82, 93
2, 145681, Note_on_c, 0, 44, 0
2, 145689, Note_on_c, 0, 56, 0
2, 145751, Control_c, 0, 64, 127
2, 145780, Note_on_c, 0, 51, 68
2, 145863, Note_on_c, 0, 55, 63
2, 145939, Note_on_c, 0, 58, 76
2, 145940, Note_on_c, 0, 75, 91
2, 146081, Note_on_c, 0, 51, 0
2, 146086, Note_on_c, 0, 51, 61
2, 146181, Note_on_c, 0, 43, 0
2, 146185, Note_on_c, 0, 55, 0
2, 146185, Note_on_c, 0, 51, 0
2, 146186, Note_on_c, 0, 58, 0
2, 146187, Note_on_c, 0, 82, 0
2, 146187, Note_on_c, 0, 77, 86
2, 146188, Note_on_c, 0, 75, 0
2, 146188, Control_c, 0, 64, 0
2, 146191, Note_on_c, 0, 43, 70
2, 146236, Note_on_c, 0, 43, 0
2, 146273, Control_c, 0, 64, 127
2, 146279, Note_on_c, 0, 51, 71
2, 146365, Note_on_c, 0, 51, 0
2, 146376, Note_on_c, 0, 51, 59
2, 146376, Note_on_c, 0, 55, 64
2, 146448, Note_on_c, 0, 75, 93
2, 146448, Note_on_c, 0, 58, 80
2, 146549, Note_on_c, 0, 51, 0
2, 146560, Note_on_c, 0, 51, 62
2, 146706, Note_on_c, 0, 55, 0
2, 146707, Note_on_c, 0, 41, 64
2, 146707, Note_on_c, 0, 58, 0
2, 146707, Note_on_c, 0, 51, 0
2, 146708, Control_c, 0, 64, 0
2, 146708, Note_on_c, 0, 77, 0
2, 146709, Note_on_c, 0, 75, 0
2, 146816, Note_on_c, 0, 48, 71
2, 146833, Control_c, 0, 64, 127
2, 146845, Note_on_c, 0, 65, 65
2, 146893, Note_on_c, 0, 51, 69
2, 146895, Note_on_c, 0, 63, 80
2, 146967, Note_on_c, 0, 62, 79
2, 146975, Note_on_c, 0, 56, 56
2, 147018, Note_on_c, 0, 48, 0
2, 147023, Note_on_c, 0, 48, 43
2, 147095, Note_on_c, 0, 63, 0
2, 147102, Note_on_c, 0, 63, 81
2, 147125, Note_on_c, 0, 48, 0
2, 147130, Note_on_c, 0, 48, 66
2, 147217, Note_on_c, 0, 41, 0
2, 147225, Note_on_c, 0, 51, 0
2, 147227, Note_on_c, 0, 41, 65
2, 147230, Note_on_c, 0, 51, 69
2, 147230, Control_c, 0, 64, 0
2, 147232, Note_on_c, 0, 70, 87
2, 147237, Note_on_c, 0, 62, 0
2, 147237, Note_on_c, 0, 48, 0
2, 147243, Note_on_c, 0, 56, 0
2, 147246, Note_on_c, 0, 63, 0
2, 147246, Note_on_c, 0, 65, 0
2, 147325, Control_c, 0, 64, 127
2, 147345, Note_on_c, 0, 48, 68
2, 147351, Note_on_c, 0, 63, 76
2, 147402, Note_on_c, 0, 51, 0
2, 147413, Note_on_c, 0, 51, 68
2, 147507, Note_on_c, 0, 62, 80
2, 147509, Note_on_c, 0, 56, 70
2, 147578, Note_on_c, 0, 51, 0
2, 147585, Note_on_c, 0, 51, 65
2, 147617, Note_on_c, 0, 63, 0
2, 147627, Note_on_c, 0, 63, 93
2, 147679, Note_on_c, 0, 48, 0
2, 147680, Note_on_c, 0, 56, 0
2, 147680, Note_on_c, 0, 62, 0
2, 147681, Control_c, 0, 64, 0
2, 147681, Note_on_c, 0, 70, 0
2, 147682, Note_on_c, 0, 41, 0
2, 147740, Note_on_c, 0, 63, 0
2, 147754, Note_on_c, 0, 43, 77
2, 147770, Control_c, 0, 64, 127
2, 147863, Note_on_c, 0, 51, 0
2, 147866, Note_on_c, 0, 51, 62
2, 147880, Note_on_c, 0, 77, 83
2, 147937, Note_on_c, 0, 55, 60
2, 147959, Note_on_c, 0, 76, 81
2, 147991, Note_on_c, 0, 74, 92
2, 147991, Note_on_c, 0, 58, 83
2, 148113, Note_on_c, 0, 75, 84
2, 148131, Note_on_c, 0, 51, 0
2, 148135, Note_on_c, 0, 51, 47
2, 148239, Note_on_c, 0, 43, 0
2, 148243, Note_on_c, 0, 74, 0
2, 148243, Note_on_c, 0, 55, 0
2, 148244, Note_on_c, 0, 77, 0
2, 148244, Note_on_c, 0, 51, 0
2, 148244, Control_c, 0, 64, 0
2, 148244, Note_on_c, 0, 76, 0
2, 148245, Note_on_c, 0, 58, 0
2, 148246, Note_on_c, 0, 75, 0
2, 148246, Note_on_c, 0, 43, 63
2, 148246, Note_on_c, 0, 82, 98
2, 148316, Control_c, 0, 64, 127
2, 148336, Note_on_c, 0, 51, 67
2, 148375, Note_on_c, 0, 75, 94
2, 148436, Note_on_c, 0, 55, 57
2, 148509, Note_on_c, 0, 74, 100
2, 148520, Note_on_c, 0, 58, 82
2, 148623, Note_on_c, 0, 51, 0
2, 148623, Note_on_c, 0, 75, 0
2, 148633, Note_on_c, 0, 75, 98
2, 148633, Note_on_c, 0, 51, 58
2, 148696, Note_on_c, 0, 55, 0
2, 148696, Note_on_c, 0, 82, 0
2, 148696, Note_on_c, 0, 43, 0
2, 148697, Note_on_c, 0, 51, 0
2, 148697, Note_on_c, 0, 58, 0
2, 148697, Note_on_c, 0, 74, 0
2, 148698, Note_on_c, 0, 75, 0
2, 148702, Control_c, 0, 64, 0
2, 148752, Note_on_c, 0, 78, 107
2, 148754, Note_on_c, 0, 66, 105
2, 148756, Note_on_c, 0, 44, 84
2, 148757, Note_on_c, 0, 56, 82
2, 148757, Note_on_c, 0, 71, 93
2, 148758, Note_on_c, 0, 51, 84
2, 148759, Note_on_c, 0, 59, 84
2, 148784, Control_c, 0, 64, 127
2, 148915, Note_on_c, 0, 71, 0
2, 148924, Note_on_c, 0, 71, 74
2, 149001, Note_on_c, 0, 75, 84
2, 149022, Note_on_c, 0, 78, 0
2, 149031, Note_on_c, 0, 78, 79
2, 149099, Note_on_c, 0, 78, 0
2, 149103, Note_on_c, 0, 78, 81
2, 149130, Note_on_c, 0, 56, 0
2, 149140, Note_on_c, 0, 56, 71
2, 149181, Note_on_c, 0, 83, 82
2, 149222, Note_on_c, 0, 87, 78
2, 149267, Note_on_c, 0, 90, 102
2, 149268, Note_on_c, 0, 59, 0
2, 149268, Note_on_c, 0, 71, 0
2, 149271, Note_on_c, 0, 63, 98
2, 149272, Note_on_c, 0, 71, 98
2, 149278, Note_on_c, 0, 59, 69
2, 149345, Note_on_c, 0, 87, 0
2, 149353, Note_on_c, 0, 87, 80
2, 149399, Note_on_c, 0, 83, 0
2, 149403, Note_on_c, 0, 83, 79
2, 149452, Note_on_c, 0, 78, 0
2, 149457, Note_on_c, 0, 78, 77
2, 149521, Note_on_c, 0, 78, 0
2, 149528, Note_on_c, 0, 78, 95
2, 149591, Note_on_c, 0, 75, 0
2, 149595, Note_on_c, 0, 75, 89
2, 149637, Note_on_c, 0, 71, 0
2, 149641, Note_on_c, 0, 71, 81
2, 149652, Note_on_c, 0, 66, 0
2, 149663, Note_on_c, 0, 66, 88
2, 149738, Note_on_c, 0, 51, 0
2, 149738, Note_on_c, 0, 78, 0
2, 149738, Note_on_c, 0, 56, 0
2, 149739, Note_on_c, 0, 87, 0
2, 149739, Note_on_c, 0, 44, 0
2, 149739, Note_on_c, 0, 71, 0
2, 149739, Note_on_c, 0, 63, 0
2, 149739, Note_on_c, 0, 59, 0
2, 149739, Note_on_c, 0, 66, 0
2, 149739, Note_on_c, 0, 83, 0
2, 149740, Note_on_c, 0, 75, 0
2, 149740, Control_c, 0, 64, 0
2, 149744, Note_on_c, 0, 90, 0
2, 149773, Note_on_c, 0, 80, 107
2, 149779, Note_on_c, 0, 68, 105
2, 149779, Note_on_c, 0, 73, 104
2, 149784, Note_on_c, 0, 61, 102
2, 149786, Note_on_c, 0, 46, 92
2, 149786, Note_on_c, 0, 53, 86
2, 149813, Control_c, 0, 64, 127
2, 149913, Note_on_c, 0, 68, 0
2, 149923, Note_on_c, 0, 68, 73
2, 149952, Note_on_c, 0, 73, 0
2, 149962, Note_on_c, 0, 73, 74
2, 150023, Note_on_c, 0, 77, 85
2, 150051, Note_on_c, 0, 80, 0
2, 150057, Note_on_c, 0, 80, 75
2, 150120, Note_on_c, 0, 80, 0
2, 150125, Note_on_c, 0, 80, 87
2, 150191, Note_on_c, 0, 58, 70
2, 150192, Note_on_c, 0, 85, 87
2, 150257, Note_on_c, 0, 89, 81
2, 150296, Note_on_c, 0, 92, 110
2, 150297, Note_on_c, 0, 73, 0
2, 150301, Note_on_c, 0, 65, 80
2, 150301, Note_on_c, 0, 53, 0
2, 150301, Note_on_c, 0, 73, 102
2, 150535, Note_on_c, 0, 85, 0
2, 150543, Note_on_c, 0, 73, 0
2, 150547, Note_on_c, 0, 85, 106
2, 150547, Note_on_c, 0, 73, 103
2, 150769, Note_on_c, 0, 80, 0
2, 150769, Note_on_c, 0, 58, 0
2, 150769, Note_on_c, 0, 68, 0
2, 150769, Note_on_c, 0, 65, 0
2, 150769, Note_on_c, 0, 85, 0
2, 150769, Note_on_c, 0, 92, 0
2, 150769, Note_on_c, 0, 73, 0
2, 150769, Note_on_c, 0, 61, 0
2, 150770, Control_c, 0, 64, 0
2, 150770, Note_on_c, 0, 77, 0
2, 150770, Note_on_c, 0, 89, 0
2, 150781, Note_on_c, 0, 46, 0
2, 150809, Note_on_c, 0, 63, 95
2, 150809, Note_on_c, 0, 87, 108
2, 150809, Note_on_c, 0, 82, 103
2, 150810, Note_on_c, 0, 75, 110
2, 150814, Note_on_c, 0, 79, 102
2, 150822, Note_on_c, 0, 51, 85
2, 150825, Note_on_c, 0, 58, 82
2, 150858, Control_c, 0, 64, 127
2, 151068, Note_on_c, 0, 39, 58
2, 151116, Note_on_c, 0, 46, 79
2, 151173, Note_on_c, 0, 51, 0
2, 151178, Note_on_c, 0, 55, 70
2, 151183, Note_on_c, 0, 51, 63
2, 151234, Note_on_c, 0, 58, 0
2, 151244, Note_on_c, 0, 58, 73
2, 151272, Note_on_c, 0, 63, 0
2, 151283, Note_on_c, 0, 63, 71
2, 151337, Note_on_c, 0, 67, 80
2, 151388, Note_on_c, 0, 63, 0
2, 151392, Note_on_c, 0, 63, 73
2, 151434, Note_on_c, 0, 58, 0
2, 151441, Note_on_c, 0, 58, 73
2, 151488, Note_on_c, 0, 55, 0
2, 151492, Note_on_c, 0, 55, 68
2, 151557, Note_on_c, 0, 63, 0
2, 151564, Note_on_c, 0, 51, 0
2, 151568, Note_on_c, 0, 63, 63
2, 151571, Note_on_c, 0, 51, 57
2, 151610, Note_on_c, 0, 58, 0
2, 151621, Note_on_c, 0, 58, 70
2, 151656, Note_on_c, 0, 63, 0
2, 151661, Note_on_c, 0, 63, 71
2, 151687, Note_on_c, 0, 67, 0
2, 151699, Note_on_c, 0, 67, 79
2, 151760, Note_on_c, 0, 70, 75
2, 151787, Note_on_c, 0, 75, 0
2, 151795, Note_on_c, 0, 75, 73
2, 151825, Note_on_c, 0, 79, 0
2, 151837, Note_on_c, 0, 79, 88
2, 151902, Note_on_c, 0, 75, 0
2, 151906, Note_on_c, 0, 75, 72
2, 151948, Note_on_c, 0, 70, 0
2, 151957, Note_on_c, 0, 70, 77
2, 152002, Note_on_c, 0, 67, 0
2, 152007, Note_on_c, 0, 67, 80
2, 152056, Note_on_c, 0, 63, 0
2, 152065, Note_on_c, 0, 63, 71
2, 152117, Note_on_c, 0, 70, 0
2, 152122, Note_on_c, 0, 70, 68
2, 152171, Note_on_c, 0, 75, 0
2, 152176, Note_on_c, 0, 75, 78
2, 152209, Note_on_c, 0, 79, 0
2, 152215, Note_on_c, 0, 79, 79
2, 152271, Note_on_c, 0, 82, 0
2, 152275, Note_on_c, 0, 82, 85
2, 152302, Note_on_c, 0, 87, 0
2, 152310, Note_on_c, 0, 87, 79
2, 152359, Note_on_c, 0, 91, 94
2, 152417, Note_on_c, 0, 87, 0
2, 152428, Note_on_c, 0, 87, 78
2, 152463, Note_on_c, 0, 82, 0
2, 152470, Note_on_c, 0, 82, 82
2, 152517, Note_on_c, 0, 79, 0
2, 152521, Note_on_c, 0, 79, 78
2, 152578, Note_on_c, 0, 75, 0
2, 152587, Note_on_c, 0, 75, 76
2, 152647, Note_on_c, 0, 82, 0
2, 152658, Note_on_c, 0, 82, 75
2, 152732, Note_on_c, 0, 87, 0
2, 152740, Note_on_c, 0, 87, 78
2, 152824, Note_on_c, 0, 91, 0
2, 152829, Note_on_c, 0, 91, 79
2, 152965, Note_on_c, 0, 94, 93
2, 153000, Note_on_c, 0, 91, 0
2, 153005, Note_on_c, 0, 91, 60
2, 154752, Note_on_c, 0, 93, 56
2, 154944, Note_on_c, 0, 94, 0
2, 154949, Note_on_c, 0, 94, 66
2, 155082, Note_on_c, 0, 93, 0
2, 155092, Note_on_c, 0, 93, 60
2, 155205, Note_on_c, 0, 94, 0
2, 155211, Note_on_c, 0, 94, 70
2, 155304, Note_on_c, 0, 93, 0
2, 155310, Note_on_c, 0, 93, 62
2, 155397, Note_on_c, 0, 94, 0
2, 155402, Note_on_c, 0, 94, 65
2, 155466, Note_on_c, 0, 93, 0
2, 155475, Note_on_c, 0, 93, 67
2, 155520, Note_on_c, 0, 39, 0
2, 155520, Note_on_c, 0, 46, 0
2, 155520, Note_on_c, 0, 51, 0
2, 155520, Note_on_c, 0, 55, 0
2, 155520, Note_on_c, 0, 58, 0
2, 155520, Note_on_c, 0, 63, 0
2, 155520, Note_on_c, 0, 67, 0
2, 155520, Note_on_c, 0, 70, 0
2, 155520, Note_on_c, 0, 75, 0
2, 155520, Note_on_c, 0, 79, 0
2, 155520, Note_on_c, 0, 82, 0
2, 155520, Note_on_c, 0, 87, 0
2, 155520, Note_on_c, 0, 91, 0
2, 155535, Note_on_c, 0, 94, 0
2, 155546, Note_on_c, 0, 94, 72
2, 155604, Note_on_c, 0, 93, 0
2, 155613, Note_on_c, 0, 93, 69
2, 155673, Note_on_c, 0, 94, 0
2, 155682, Note_on_c, 0, 94, 76
2, 155735, Note_on_c, 0, 93, 0
2, 155746, Note_on_c, 0, 93, 77
2, 155796, Note_on_c, 0, 94, 0
2, 155807, Note_on_c, 0, 94, 82
2, 155865, Note_on_c, 0, 93, 0
2, 155874, Note_on_c, 0, 93, 78
2, 155927, Note_on_c, 0, 94, 0
2, 155937, Note_on_c, 0, 94, 81
2, 155988, Note_on_c, 0, 93, 0
2, 155998, Note_on_c, 0, 93, 79
2, 156049, Note_on_c, 0, 94, 0
2, 156060, Note_on_c, 0, 94, 80
2, 156119, Note_on_c, 0, 93, 0
2, 156125, Note_on_c, 0, 93, 83
2, 156188, Note_on_c, 0, 94, 0
2, 156197, Note_on_c, 0, 94, 80
2, 156249, Note_on_c, 0, 93, 0
2, 156257, Note_on_c, 0, 93, 79
2, 156318, Note_on_c, 0, 94, 0
2, 156330, Note_on_c, 0, 94, 75
2, 156403, Note_on_c, 0, 93, 0
2, 156408, Note_on_c, 0, 93, 68
2, 156464, Note_on_c, 0, 94, 0
2, 156469, Note_on_c, 0, 94, 70
2, 156556, Note_on_c, 0, 93, 0
2, 156561, Note_on_c, 0, 93, 70
2, 156625, Note_on_c, 0, 94, 0
2, 156630, Note_on_c, 0, 94, 65
2, 156710, Note_on_c, 0, 93, 0
2, 156716, Note_on_c, 0, 93, 71
2, 156794, Note_on_c, 0, 94, 0
2, 156805, Note_on_c, 0, 94, 79
2, 156917, Note_on_c, 0, 93, 0
2, 156922, Note_on_c, 0, 93, 71
2, 157040, Note_on_c, 0, 94, 0
2, 157045, Note_on_c, 0, 94, 81
2, 157181, Note_on_c, 0, 86, 70
2, 157282, Note_on_c, 0, 89, 70
2, 157383, Note_on_c, 0, 87, 69
2, 157467, Note_on_c, 0, 91, 77
2, 157544, Note_on_c, 0, 81, 75
2, 157609, Note_on_c, 0, 84, 74
2, 157691, Note_on_c, 0, 82, 79
2, 157762, Note_on_c, 0, 87, 0
2, 157766, Note_on_c, 0, 87, 75
2, 157839, Note_on_c, 0, 78, 77
2, 157895, Note_on_c, 0, 80, 78
2, 157960, Note_on_c, 0, 79, 75
2, 158008, Note_on_c, 0, 82, 0
2, 158019, Note_on_c, 0, 82, 79
2, 158091, Note_on_c, 0, 74, 80
2, 158101, Note_on_c, 0, 94, 0
2, 158152, Note_on_c, 0, 77, 76
2, 158169, Note_on_c, 0, 80, 0
2, 158184, Note_on_c, 0, 78, 0
2, 158242, Note_on_c, 0, 75, 75
2, 158277, Note_on_c, 0, 79, 0
2, 158287, Note_on_c, 0, 79, 74
2, 158367, Note_on_c, 0, 69, 76
2, 158425, Note_on_c, 0, 72, 77
2, 158469, Note_on_c, 0, 74, 0
2, 158484, Note_on_c, 0, 87, 0
2, 158507, Note_on_c, 0, 70, 78
2, 158522, Note_on_c, 0, 72, 0
2, 158538, Note_on_c, 0, 81, 0
2, 158538, Note_on_c, 0, 84, 0
2, 158545, Note_on_c, 0, 77, 0
2, 158545, Note_on_c, 0, 89, 0
2, 158553, Note_on_c, 0, 86, 0
2, 158553, Note_on_c, 0, 91, 0
2, 158561, Note_on_c, 0, 69, 0
2, 158561, Note_on_c, 0, 75, 0
2, 158566, Note_on_c, 0, 75, 72
2, 158568, Note_on_c, 0, 82, 0
2, 158568, Control_c, 0, 64, 0
2, 158584, Note_on_c, 0, 93, 0
2, 158622, Note_on_c, 0, 79, 0
2, 158630, Note_on_c, 0, 70, 0
2, 158652, Note_on_c, 0, 66, 76
2, 158725, Note_on_c, 0, 66, 0
2, 158725, Note_on_c, 0, 68, 76
2, 158796, Note_on_c, 0, 67, 71
2, 158796, Note_on_c, 0, 68, 0
2, 158799, Note_on_c, 0, 75, 0
2, 158882, Note_on_c, 0, 67, 0
2, 158885, Note_on_c, 0, 70, 70
2, 158965, Note_on_c, 0, 70, 0
2, 158996, Note_on_c, 0, 62, 69
2, 159094, Note_on_c, 0, 65, 68
2, 159107, Note_on_c, 0, 62, 0
2, 159206, Note_on_c, 0, 63, 73
2, 159313, Note_on_c, 0, 63, 0
2, 159320, Note_on_c, 0, 63, 72
2, 159398, Control_c, 0, 64, 127
2, 159413, Note_on_c, 0, 65, 0
2, 159481, Note_on_c, 0, 65, 68
2, 159575, Note_on_c, 0, 63, 0
2, 159583, Note_on_c, 0, 63, 65
2, 159667, Note_on_c, 0, 65, 0
2, 159675, Note_on_c, 0, 65, 62
2, 159744, Note_on_c, 0, 63, 0
2, 159751, Note_on_c, 0, 63, 68
2, 159820, Note_on_c, 0, 65, 0
2, 159829, Note_on_c, 0, 65, 61
2, 159874, Note_on_c, 0, 63, 0
2, 159883, Note_on_c, 0, 63, 66
2, 159951, Note_on_c, 0, 65, 0
2, 159960, Note_on_c, 0, 65, 58
2, 160005, Note_on_c, 0, 63, 0
2, 160012, Note_on_c, 0, 63, 70
2, 160058, Note_on_c, 0, 65, 0
2, 160070, Note_on_c, 0, 65, 59
2, 160120, Note_on_c, 0, 63, 0
2, 160129, Note_on_c, 0, 63, 71
2, 160181, Note_on_c, 0, 65, 0
2, 160187, Note_on_c, 0, 65, 64
2, 160243, Note_on_c, 0, 63, 0
2, 160249, Note_on_c, 0, 63, 58
2, 160289, Note_on_c, 0, 65, 0
2, 160299, Note_on_c, 0, 65, 64
2, 160358, Note_on_c, 0, 63, 0
2, 160367, Note_on_c, 0, 63, 71
2, 160419, Note_on_c, 0, 65, 0
2, 160425, Note_on_c, 0, 65, 61
2, 160473, Note_on_c, 0, 63, 0
2, 160477, Note_on_c, 0, 63, 68
2, 160512, Note_on_c, 0, 65, 0
2, 160523, Note_on_c, 0, 65, 66
2, 160573, Note_on_c, 0, 63, 0
2, 160584, Note_on_c, 0, 63, 67
2, 160627, Note_on_c, 0, 65, 0
2, 160633, Note_on_c, 0, 65, 66
2, 160680, Note_on_c, 0, 63, 0
2, 160692, Note_on_c, 0, 63, 66
2, 160742, Note_on_c, 0, 65, 0
2, 160748, Note_on_c, 0, 65, 55
2, 160796, Note_on_c, 0, 63, 0
2, 160802, Note_on_c, 0, 63, 67
2, 160842, Note_on_c, 0, 65, 0
2, 160852, Note_on_c, 0, 65, 72
2, 160871, Control_c, 0, 64, 0
2, 160903, Note_on_c, 0, 63, 0
2, 160908, Note_on_c, 0, 63, 61
2, 160911, Control_c, 0, 64, 127
2, 160957, Note_on_c, 0, 65, 0
2, 160965, Note_on_c, 0, 65, 58
2, 161018, Note_on_c, 0, 63, 0
2, 161025, Note_on_c, 0, 63, 66
2, 161064, Note_on_c, 0, 65, 0
2, 161075, Note_on_c, 0, 65, 66
2, 161118, Note_on_c, 0, 63, 0
2, 161129, Note_on_c, 0, 63, 73
2, 161187, Note_on_c, 0, 65, 0
2, 161193, Note_on_c, 0, 65, 65
2, 161249, Note_on_c, 0, 63, 0
2, 161255, Note_on_c, 0, 63, 71
2, 161303, Note_on_c, 0, 65, 0
2, 161311, Note_on_c, 0, 65, 65
2, 161364, Note_on_c, 0, 63, 0
2, 161369, Note_on_c, 0, 63, 73
2, 161410, Note_on_c, 0, 65, 0
2, 161422, Note_on_c, 0, 65, 66
2, 161479, Note_on_c, 0, 63, 0
2, 161484, Note_on_c, 0, 63, 67
2, 161518, Note_on_c, 0, 65, 0
2, 161523, Note_on_c, 0, 65, 75
2, 161579, Note_on_c, 0, 63, 0
2, 161585, Note_on_c, 0, 63, 67
2, 161617, Note_on_c, 0, 65, 0
2, 161628, Note_on_c, 0, 65, 68
2, 161694, Note_on_c, 0, 63, 0
2, 161698, Note_on_c, 0, 63, 70
2, 161756, Note_on_c, 0, 65, 0
2, 161763, Note_on_c, 0, 65, 60
2, 161802, Note_on_c, 0, 63, 0
2, 161806, Note_on_c, 0, 63, 64
2, 161871, Note_on_c, 0, 65, 0
2, 161877, Note_on_c, 0, 65, 53
2, 161940, Note_on_c, 0, 63, 0
2, 161945, Note_on_c, 0, 63, 53
2, 162009, Note_on_c, 0, 65, 0
2, 162018, Note_on_c, 0, 65, 58
2, 162063, Note_on_c, 0, 63, 0
2, 162073, Note_on_c, 0, 63, 65
2, 162163, Note_on_c, 0, 65, 0
2, 162167, Note_on_c, 0, 65, 59
2, 162224, Note_on_c, 0, 63, 0
2, 162233, Note_on_c, 0, 63, 57
2, 162316, Note_on_c, 0, 65, 0
2, 162321, Note_on_c, 0, 65, 55
2, 162416, Note_on_c, 0, 63, 0
2, 162424, Note_on_c, 0, 63, 51
2, 162541, Note_on_c, 0, 65, 0
2, 162544, Note_on_c, 0, 63, 0
2, 162545, Note_on_c, 0, 62, 59
2, 162634, Note_on_c, 0, 62, 0
2, 162644, Note_on_c, 0, 63, 65
2, 162740, Note_on_c, 0, 65, 64
2, 162834, Note_on_c, 0, 67, 59
2, 162905, Note_on_c, 0, 68, 67
2, 162946, Note_on_c, 0, 63, 0
2, 162974, Note_on_c, 0, 68, 0
2, 162981, Note_on_c, 0, 70, 66
2, 163031, Note_on_c, 0, 65, 0
2, 163035, Note_on_c, 0, 70, 0
2, 163046, Note_on_c, 0, 67, 0
2, 163054, Note_on_c, 0, 72, 62
2, 163073, Control_c, 0, 64, 0
2, 163097, Note_on_c, 0, 72, 0
2, 163130, Control_c, 0, 64, 127
2, 163140, Note_on_c, 0, 74, 56
2, 163183, Note_on_c, 0, 74, 0
2, 163215, Control_c, 0, 64, 0
2, 163225, Note_on_c, 0, 75, 55
2, 163272, Note_on_c, 0, 75, 0
2, 163303, Note_on_c, 0, 77, 55
2, 163356, Note_on_c, 0, 77, 0
2, 163397, Note_on_c, 0, 79, 60
2, 163493, Note_on_c, 0, 79, 0
2, 163505, Note_on_c, 0, 80, 54
2, 163599, Control_c, 0, 64, 127
2, 163638, Note_on_c, 0, 80, 0
2, 163639, Note_on_c, 0, 82, 59
2, 163778, Note_on_c, 0, 84, 66
2, 163783, Note_on_c, 0, 82, 0
2, 163791, Control_c, 0, 64, 0
2, 163895, Note_on_c, 0, 84, 0
2, 163923, Note_on_c, 0, 86, 61
2, 163983, Control_c, 0, 64, 127
2, 164064, Note_on_c, 0, 87, 59
2, 164202, Note_on_c, 0, 89, 60
2, 164363, Note_on_c, 0, 91, 54
2, 164532, Note_on_c, 0, 92, 54
2, 164697, Note_on_c, 0, 86, 0
2, 164741, Note_on_c, 0, 94, 64
2, 165018, Note_on_c, 0, 96, 60
2, 165047, Note_on_c, 0, 68, 42
2, 165047, Note_on_c, 0, 80, 41
2, 165050, Control_c, 0, 64, 0
2, 165052, Note_on_c, 0, 62, 25
2, 165058, Note_on_c, 0, 62, 0
2, 165173, Control_c, 0, 64, 127
2, 165231, Note_on_c, 0, 98, 60
2, 165235, Note_on_c, 0, 87, 0
2, 165373, Note_on_c, 0, 96, 0
2, 165380, Note_on_c, 0, 96, 59
2, 165496, Note_on_c, 0, 94, 0
2, 165501, Note_on_c, 0, 94, 65
2, 165626, Note_on_c, 0, 80, 0
2, 165635, Note_on_c, 0, 80, 64
2, 165642, Note_on_c, 0, 92, 0
2, 165645, Note_on_c, 0, 87, 52
2, 165646, Note_on_c, 0, 92, 56
2, 165757, Note_on_c, 0, 94, 0
2, 165766, Note_on_c, 0, 94, 75
2, 165780, Note_on_c, 0, 89, 0
2, 165880, Note_on_c, 0, 96, 0
2, 165887, Note_on_c, 0, 96, 66
2, 166010, Note_on_c, 0, 98, 0
2, 166018, Note_on_c, 0, 91, 0
2, 166021, Note_on_c, 0, 98, 78
2, 166114, Note_on_c, 0, 98, 0
2, 166114, Note_on_c, 0, 94, 0
2, 166115, Note_on_c, 0, 68, 0
2, 166115, Control_c, 0, 64, 0
2, 166115, Note_on_c, 0, 92, 0
2, 166116, Note_on_c, 0, 87, 0
2, 166118, Note_on_c, 0, 80, 0
2, 166151, Note_on_c, 0, 63, 53
2, 166151, Note_on_c, 0, 99, 71
2, 166156, Note_on_c, 0, 96, 0
2, 166225, Control_c, 0, 64, 127
2, 166275, Note_on_c, 0, 101, 80
2, 166394, Note_on_c, 0, 99, 0
2, 166399, Note_on_c, 0, 99, 78
2, 166532, Note_on_c, 0, 98, 81
2, 166648, Note_on_c, 0, 99, 0
2, 166652, Note_on_c, 0, 99, 78
2, 166657, Note_on_c, 0, 79, 63
2, 166659, Note_on_c, 0, 87, 63
2, 166666, Note_on_c, 0, 82, 61
2, 166783, Note_on_c, 0, 94, 80
2, 166912, Note_on_c, 0, 92, 78
2, 167043, Note_on_c, 0, 91, 77
2, 167137, Note_on_c, 0, 99, 0
2, 167138, Note_on_c, 0, 79, 0
2, 167138, Note_on_c, 0, 101, 0
2, 167138, Note_on_c, 0, 82, 0
2, 167139, Note_on_c, 0, 92, 0
2, 167139, Note_on_c, 0, 94, 0
2, 167139, Note_on_c, 0, 91, 0
2, 167140, Note_on_c, 0, 87, 0
2, 167142, Note_on_c, 0, 63, 0
2, 167146, Control_c, 0, 64, 0
2, 167147, Note_on_c, 0, 98, 0
2, 167178, Note_on_c, 0, 89, 71
2, 167182, Note_on_c, 0, 70, 59
2, 167189, Note_on_c, 0, 58, 47
2, 167247, Note_on_c, 0, 70, 0
2, 167255, Control_c, 0, 64, 127
2, 167262, Note_on_c, 0, 58, 0
2, 167299, Note_on_c, 0, 91, 72
2, 167431, Note_on_c, 0, 89, 0
2, 167436, Note_on_c, 0, 89, 71
2, 167566, Note_on_c, 0, 87, 67
2, 167684, Note_on_c, 0, 86, 73
2, 167688, Note_on_c, 0, 82, 63
2, 167689, Note_on_c, 0, 74, 61
2, 167691, Note_on_c, 0, 77, 59
2, 167808, Note_on_c, 0, 87, 0
2, 167813, Note_on_c, 0, 87, 72
2, 167930, Note_on_c, 0, 89, 0
2, 167940, Note_on_c, 0, 89, 72
2, 168063, Note_on_c, 0, 92, 65
2, 168143, Note_on_c, 0, 86, 0
2, 168143, Note_on_c, 0, 82, 0
2, 168144, Note_on_c, 0, 74, 0
2, 168144, Note_on_c, 0, 89, 0
2, 168144, Note_on_c, 0, 87, 0
2, 168145, Note_on_c, 0, 77, 0
2, 168145, Control_c, 0, 64, 0
2, 168176, Note_on_c, 0, 91, 0
2, 168176, Note_on_c, 0, 92, 0
2, 168180, Note_on_c, 0, 60, 56
2, 168186, Note_on_c, 0, 91, 74
2, 168186, Note_on_c, 0, 72, 66
2, 168253, Control_c, 0, 64, 127
2, 168276, Note_on_c, 0, 60, 0
2, 168319, Note_on_c, 0, 92, 80
2, 168437, Note_on_c, 0, 91, 0
2, 168446, Note_on_c, 0, 91, 81
2, 168560, Note_on_c, 0, 89, 72
2, 168675, Note_on_c, 0, 91, 0
2, 168681, Note_on_c, 0, 91, 73
2, 168694, Note_on_c, 0, 84, 60
2, 168694, Note_on_c, 0, 75, 56
2, 168696, Note_on_c, 0, 79, 66
2, 168813, Note_on_c, 0, 87, 74
2, 168936, Note_on_c, 0, 91, 0
2, 168945, Note_on_c, 0, 91, 83
2, 169054, Note_on_c, 0, 94, 86
2, 169136, Note_on_c, 0, 92, 0
2, 169137, Note_on_c, 0, 84, 0
2, 169137, Note_on_c, 0, 89, 0
2, 169137, Note_on_c, 0, 87, 0
2, 169137, Note_on_c, 0, 79, 0
2, 169137, Note_on_c, 0, 75, 0
2, 169141, Control_c, 0, 64, 0
2, 169159, Note_on_c, 0, 72, 0
2, 169185, Note_on_c, 0, 56, 56
2, 169186, Note_on_c, 0, 96, 79
2, 169213, Note_on_c, 0, 91, 0
2, 169228, Note_on_c, 0, 94, 0
2, 169244, Control_c, 0, 64, 127
2, 169308, Note_on_c, 0, 98, 87
2, 169428, Note_on_c, 0, 96, 0
2, 169434, Note_on_c, 0, 96, 76
2, 169549, Note_on_c, 0, 94, 86
2, 169679, Note_on_c, 0, 92, 83
2, 169684, Note_on_c, 0, 80, 76
2, 169700, Note_on_c, 0, 72, 62
2, 169702, Note_on_c, 0, 75, 61
2, 169804, Note_on_c, 0, 94, 0
2, 169811, Note_on_c, 0, 94, 88
2, 169927, Note_on_c, 0, 96, 0
2, 169932, Note_on_c, 0, 96, 84
2, 170042, Note_on_c, 0, 98, 0
2, 170052, Note_on_c, 0, 98, 97
2, 170123, Note_on_c, 0, 98, 0
2, 170124, Note_on_c, 0, 80, 0
2, 170124, Note_on_c, 0, 94, 0
2, 170124, Note_on_c, 0, 92, 0
2, 170124, Note_on_c, 0, 96, 0
2, 170126, Note_on_c, 0, 56, 0
2, 170126, Note_on_c, 0, 75, 0
2, 170126, Note_on_c, 0, 72, 0
2, 170130, Control_c, 0, 64, 0
2, 170176, Note_on_c, 0, 99, 89
2, 170178, Note_on_c, 0, 63, 57
2, 170234, Control_c, 0, 64, 127
2, 170307, Note_on_c, 0, 101, 91
2, 170426, Note_on_c, 0, 99, 0
2, 170430, Note_on_c, 0, 99, 83
2, 170549, Note_on_c, 0, 98, 89
2, 170664, Note_on_c, 0, 99, 0
2, 170669, Note_on_c, 0, 99, 79
2, 170683, Note_on_c, 0, 79, 64
2, 170699, Note_on_c, 0, 75, 52
2, 170700, Note_on_c, 0, 70, 55
2, 170806, Note_on_c, 0, 94, 77
2, 170937, Note_on_c, 0, 92, 77
2, 171061, Note_on_c, 0, 91, 78
2, 171154, Note_on_c, 0, 99, 0
2, 171154, Note_on_c, 0, 91, 0
2, 171154, Note_on_c, 0, 75, 0
2, 171155, Note_on_c, 0, 94, 0
2, 171155, Note_on_c, 0, 79, 0
2, 171157, Note_on_c, 0, 98, 0
2, 171157, Note_on_c, 0, 70, 0
2, 171159, Note_on_c, 0, 92, 0
2, 171160, Control_c, 0, 64, 0
2, 171164, Note_on_c, 0, 63, 0
2, 171171, Note_on_c, 0, 101, 0
2, 171189, Note_on_c, 0, 89, 75
2, 171192, Note_on_c, 0, 46, 57
2, 171193, Note_on_c, 0, 58, 53
2, 171256, Control_c, 0, 64, 127
2, 171308, Note_on_c, 0, 91, 80
2, 171317, Note_on_c, 0, 46, 0
2, 171425, Note_on_c, 0, 89, 0
2, 171432, Note_on_c, 0, 89, 75
2, 171553, Note_on_c, 0, 87, 79
2, 171689, Note_on_c, 0, 77, 65
2, 171690, Note_on_c, 0, 86, 79
2, 171693, Note_on_c, 0, 74, 63
2, 171701, Note_on_c, 0, 70, 59
2, 171809, Note_on_c, 0, 87, 0
2, 171815, Note_on_c, 0, 87, 74
2, 171924, Note_on_c, 0, 86, 0
2, 171929, Note_on_c, 0, 86, 75
2, 172069, Note_on_c, 0, 82, 71
2, 172185, Note_on_c, 0, 77, 0
2, 172193, Note_on_c, 0, 70, 0
2, 172193, Note_on_c, 0, 74, 0
2, 172195, Note_on_c, 0, 77, 75
2, 172197, Note_on_c, 0, 74, 60
2, 172198, Note_on_c, 0, 70, 62
2, 172199, Note_on_c, 0, 65, 47
2, 172312, Note_on_c, 0, 79, 74
2, 172431, Note_on_c, 0, 77, 0
2, 172436, Note_on_c, 0, 77, 74
2, 172562, Note_on_c, 0, 75, 75
2, 172677, Note_on_c, 0, 65, 0
2, 172677, Note_on_c, 0, 70, 0
2, 172677, Note_on_c, 0, 74, 0
2, 172681, Note_on_c, 0, 74, 80
2, 172687, Note_on_c, 0, 70, 70
2, 172688, Note_on_c, 0, 62, 63
2, 172688, Note_on_c, 0, 65, 59
2, 172800, Note_on_c, 0, 75, 0
2, 172810, Note_on_c, 0, 75, 78
2, 172922, Note_on_c, 0, 77, 0
2, 172932, Note_on_c, 0, 77, 71
2, 173038, Note_on_c, 0, 82, 0
2, 173047, Note_on_c, 0, 82, 76
2, 173127, Note_on_c, 0, 62, 0
2, 173128, Note_on_c, 0, 86, 0
2, 173128, Note_on_c, 0, 87, 0
2, 173128, Note_on_c, 0, 82, 0
2, 173128, Note_on_c, 0, 58, 0
2, 173128, Note_on_c, 0, 79, 0
2, 173128, Control_c, 0, 64, 0
2, 173128, Note_on_c, 0, 70, 0
2, 173129, Note_on_c, 0, 77, 0
2, 173129, Note_on_c, 0, 74, 0
2, 173129, Note_on_c, 0, 89, 0
2, 173129, Note_on_c, 0, 65, 0
2, 173129, Note_on_c, 0, 75, 0
2, 173130, Note_on_c, 0, 91, 0
2, 173173, Note_on_c, 0, 68, 80
2, 173178, Note_on_c, 0, 75, 75
2, 173178, Note_on_c, 0, 84, 85
2, 173179, Note_on_c, 0, 60, 66
2, 173180, Note_on_c, 0, 63, 64
2, 173180, Note_on_c, 0, 72, 73
2, 173213, Note_on_c, 0, 60, 0
2, 173214, Control_c, 0, 64, 127
2, 173278, Note_on_c, 0, 80, 67
2, 173314, Note_on_c, 0, 75, 0
2, 173319, Note_on_c, 0, 75, 70
2, 173368, Note_on_c, 0, 72, 0
2, 173373, Note_on_c, 0, 72, 76
2, 173429, Note_on_c, 0, 44, 74
2, 173475, Note_on_c, 0, 72, 0
2, 173484, Note_on_c, 0, 72, 72
2, 173552, Note_on_c, 0, 75, 0
2, 173563, Note_on_c, 0, 75, 71
2, 173614, Note_on_c, 0, 80, 0
2, 173623, Note_on_c, 0, 80, 72
2, 173639, Note_on_c, 0, 72, 0
2, 173640, Note_on_c, 0, 75, 0
2, 173640, Note_on_c, 0, 44, 0
2, 173640, Note_on_c, 0, 84, 0
2, 173644, Note_on_c, 0, 63, 0
2, 173644, Note_on_c, 0, 68, 0
2, 173646, Control_c, 0, 64, 0
2, 173675, Note_on_c, 0, 80, 0
2, 173685, Note_on_c, 0, 84, 90
2, 173695, Note_on_c, 0, 68, 82
2, 173700, Note_on_c, 0, 63, 73
2, 173701, Note_on_c, 0, 60, 66
2, 173713, Control_c, 0, 64, 127
2, 173772, Note_on_c, 0, 80, 71
2, 173815, Note_on_c, 0, 75, 88
2, 173936, Note_on_c, 0, 84, 0
2, 173942, Note_on_c, 0, 84, 89
2, 173944, Note_on_c, 0, 72, 88
2, 173946, Note_on_c, 0, 44, 80
2, 174015, Note_on_c, 0, 80, 0
2, 174015, Note_on_c, 0, 68, 0
2, 174015, Note_on_c, 0, 63, 0
2, 174015, Note_on_c, 0, 75, 0
2, 174015, Note_on_c, 0, 60, 0
2, 174015, Note_on_c, 0, 44, 0
2, 174016, Note_on_c, 0, 72, 0
2, 174016, Note_on_c, 0, 84, 0
2, 174019, Control_c, 0, 64, 0
2, 174064, Note_on_c, 0, 86, 90
2, 174068, Note_on_c, 0, 74, 83
2, 174087, Note_on_c, 0, 74, 0
2, 174088, Note_on_c, 0, 86, 0
2, 174187, Note_on_c, 0, 87, 98
2, 174193, Note_on_c, 0, 67, 88
2, 174193, Note_on_c, 0, 75, 90
2, 174197, Note_on_c, 0, 63, 76
2, 174202, Note_on_c, 0, 58, 75
2, 174213, Control_c, 0, 64, 127
2, 174261, Note_on_c, 0, 82, 76
2, 174319, Note_on_c, 0, 79, 63
2, 174351, Note_on_c, 0, 75, 0
2, 174358, Note_on_c, 0, 75, 76
2, 174428, Note_on_c, 0, 67, 0
2, 174432, Note_on_c, 0, 39, 71
2, 174435, Note_on_c, 0, 67, 58
2, 174476, Note_on_c, 0, 70, 78
2, 174535, Note_on_c, 0, 75, 0
2, 174547, Note_on_c, 0, 75, 76
2, 174589, Note_on_c, 0, 79, 0
2, 174597, Note_on_c, 0, 79, 78
2, 174626, Note_on_c, 0, 39, 0
2, 174626, Note_on_c, 0, 67, 0
2, 174626, Note_on_c, 0, 70, 0
2, 174627, Note_on_c, 0, 58, 0
2, 174627, Note_on_c, 0, 82, 0
2, 174627, Note_on_c, 0, 63, 0
2, 174629, Note_on_c, 0, 87, 0
2, 174629, Note_on_c, 0, 75, 0
2, 174630, Note_on_c, 0, 79, 0
2, 174636, Control_c, 0, 64, 0
2, 174687, Note_on_c, 0, 82, 98
2, 174697, Note_on_c, 0, 67, 82
2, 174700, Note_on_c, 0, 63, 79
2, 174707, Note_on_c, 0, 58, 74
2, 174712, Control_c, 0, 64, 127
2, 174780, Note_on_c, 0, 79, 66
2, 174809, Note_on_c, 0, 75, 77
2, 174936, Note_on_c, 0, 80, 95
2, 174938, Note_on_c, 0, 39, 74
2, 174939, Note_on_c, 0, 68, 89
2, 174993, Note_on_c, 0, 67, 0
2, 174994, Note_on_c, 0, 82, 0
2, 175000, Note_on_c, 0, 68, 0
2, 175001, Note_on_c, 0, 75, 0
2, 175003, Control_c, 0, 64, 0
2, 175005, Note_on_c, 0, 80, 0
2, 175006, Note_on_c, 0, 39, 0
2, 175011, Note_on_c, 0, 63, 0
2, 175027, Note_on_c, 0, 58, 0
2, 175057, Note_on_c, 0, 79, 0
2, 175062, Note_on_c, 0, 79, 89
2, 175063, Note_on_c, 0, 67, 86
2, 175093, Note_on_c, 0, 79, 0
2, 175111, Note_on_c, 0, 67, 0
2, 175190, Note_on_c, 0, 77, 96
2, 175197, Note_on_c, 0, 65, 84
2, 175206, Note_on_c, 0, 62, 72
2, 175215, Note_on_c, 0, 58, 69
2, 175223, Note_on_c, 0, 74, 58
2, 175257, Control_c, 0, 64, 127
2, 175311, Note_on_c, 0, 70, 75
2, 175372, Note_on_c, 0, 65, 0
2, 175372, Note_on_c, 0, 77, 0
2, 175381, Note_on_c, 0, 77, 69
2, 175382, Note_on_c, 0, 65, 64
2, 175445, Note_on_c, 0, 46, 78
2, 175464, Note_on_c, 0, 65, 0
2, 175475, Note_on_c, 0, 65, 68
2, 175557, Note_on_c, 0, 70, 0
2, 175562, Note_on_c, 0, 70, 71
2, 175626, Note_on_c, 0, 74, 0
2, 175630, Note_on_c, 0, 74, 77
2, 175682, Note_on_c, 0, 70, 0
2, 175683, Note_on_c, 0, 46, 0
2, 175683, Note_on_c, 0, 74, 0
2, 175687, Note_on_c, 0, 77, 0
2, 175687, Control_c, 0, 64, 0
2, 175699, Note_on_c, 0, 77, 91
2, 175703, Note_on_c, 0, 65, 0
2, 175710, Note_on_c, 0, 58, 0
2, 175710, Note_on_c, 0, 62, 0
2, 175713, Note_on_c, 0, 65, 84
2, 175718, Note_on_c, 0, 62, 75
2, 175721, Note_on_c, 0, 58, 76
2, 175764, Control_c, 0, 64, 127
2, 175769, Note_on_c, 0, 74, 72
2, 175779, Note_on_c, 0, 62, 0
2, 175829, Note_on_c, 0, 70, 71
2, 175887, Note_on_c, 0, 74, 0
2, 175891, Note_on_c, 0, 74, 53
2, 175965, Note_on_c, 0, 46, 81
2, 175967, Note_on_c, 0, 79, 92
2, 175968, Note_on_c, 0, 67, 83
2, 176029, Note_on_c, 0, 74, 0
2, 176029, Note_on_c, 0, 77, 0
2, 176029, Note_on_c, 0, 70, 0
2, 176029, Note_on_c, 0, 58, 0
2, 176029, Note_on_c, 0, 65, 0
2, 176029, Note_on_c, 0, 46, 0
2, 176029, Note_on_c, 0, 79, 0
2, 176031, Note_on_c, 0, 67, 0
2, 176033, Control_c, 0, 64, 0
2, 176083, Note_on_c, 0, 80, 90
2, 176084, Note_on_c, 0, 68, 87
2, 176107, Note_on_c, 0, 68, 0
2, 176111, Note_on_c, 0, 80, 0
2, 176212, Note_on_c, 0, 79, 99
2, 176215, Note_on_c, 0, 75, 84
2, 176216, Note_on_c, 0, 67, 83
2, 176220, Note_on_c, 0, 63, 83
2, 176220, Note_on_c, 0, 60, 77
2, 176271, Note_on_c, 0, 75, 0
2, 176271, Control_c, 0, 64, 127
2, 176282, Note_on_c, 0, 75, 81
2, 176338, Note_on_c, 0, 72, 80
2, 176378, Note_on_c, 0, 67, 0
2, 176385, Note_on_c, 0, 67, 76
2, 176474, Note_on_c, 0, 48, 75
2, 176494, Note_on_c, 0, 67, 0
2, 176498, Note_on_c, 0, 67, 70
2, 176578, Note_on_c, 0, 72, 0
2, 176584, Note_on_c, 0, 72, 80
2, 176640, Note_on_c, 0, 75, 0
2, 176643, Note_on_c, 0, 75, 79
2, 176688, Note_on_c, 0, 67, 0
2, 176688, Note_on_c, 0, 72, 0
2, 176688, Note_on_c, 0, 60, 0
2, 176689, Note_on_c, 0, 48, 0
2, 176689, Note_on_c, 0, 63, 0
2, 176689, Control_c, 0, 64, 0
2, 176709, Note_on_c, 0, 75, 0
2, 176709, Note_on_c, 0, 79, 0
2, 176713, Note_on_c, 0, 79, 98
2, 176728, Note_on_c, 0, 67, 86
2, 176734, Note_on_c, 0, 75, 77
2, 176734, Note_on_c, 0, 60, 76
2, 176735, Note_on_c, 0, 63, 83
2, 176778, Control_c, 0, 64, 127
2, 176839, Note_on_c, 0, 75, 0
2, 176846, Note_on_c, 0, 72, 80
2, 176848, Note_on_c, 0, 75, 61
2, 176862, Note_on_c, 0, 67, 0
2, 176867, Note_on_c, 0, 67, 63
2, 176977, Note_on_c, 0, 68, 98
2, 176977, Note_on_c, 0, 75, 0
2, 176979, Note_on_c, 0, 80, 97
2, 176982, Note_on_c, 0, 48, 83
2, 176982, Note_on_c, 0, 75, 68
2, 177036, Note_on_c, 0, 67, 0
2, 177037, Note_on_c, 0, 79, 0
2, 177037, Note_on_c, 0, 75, 0
2, 177037, Note_on_c, 0, 72, 0
2, 177037, Note_on_c, 0, 68, 0
2, 177038, Note_on_c, 0, 48, 0
2, 177038, Note_on_c, 0, 63, 0
2, 177039, Note_on_c, 0, 80, 0
2, 177042, Control_c, 0, 64, 0
2, 177047, Note_on_c, 0, 60, 0
2, 177095, Note_on_c, 0, 82, 97
2, 177103, Note_on_c, 0, 70, 79
2, 177112, Note_on_c, 0, 75, 54
2, 177129, Note_on_c, 0, 70, 0
2, 177134, Note_on_c, 0, 82, 0
2, 177185, Note_on_c, 0, 75, 0
2, 177220, Note_on_c, 0, 84, 98
2, 177226, Note_on_c, 0, 75, 88
2, 177228, Note_on_c, 0, 68, 93
2, 177230, Note_on_c, 0, 72, 89
2, 177235, Note_on_c, 0, 63, 79
2, 177241, Note_on_c, 0, 60, 72
2, 177262, Control_c, 0, 64, 127
2, 177295, Note_on_c, 0, 80, 81
2, 177354, Note_on_c, 0, 75, 0
2, 177360, Note_on_c, 0, 75, 79
2, 177415, Note_on_c, 0, 72, 0
2, 177421, Note_on_c, 0, 72, 72
2, 177482, Note_on_c, 0, 44, 82
2, 177515, Note_on_c, 0, 72, 0
2, 177520, Note_on_c, 0, 72, 82
2, 177600, Note_on_c, 0, 75, 0
2, 177604, Note_on_c, 0, 75, 71
2, 177653, Note_on_c, 0, 80, 0
2, 177664, Note_on_c, 0, 80, 75
2, 177692, Note_on_c, 0, 44, 0
2, 177692, Note_on_c, 0, 68, 0
2, 177693, Note_on_c, 0, 63, 0
2, 177694, Note_on_c, 0, 60, 0
2, 177694, Note_on_c, 0, 72, 0
2, 177694, Note_on_c, 0, 75, 0
2, 177694, Note_on_c, 0, 84, 0
2, 177695, Control_c, 0, 64, 0
2, 177722, Note_on_c, 0, 80, 0
2, 177740, Note_on_c, 0, 84, 98
2, 177746, Note_on_c, 0, 72, 89
2, 177746, Note_on_c, 0, 68, 92
2, 177749, Note_on_c, 0, 63, 83
2, 177751, Note_on_c, 0, 60, 80
2, 177776, Control_c, 0, 64, 127
2, 177825, Note_on_c, 0, 80, 74
2, 177860, Note_on_c, 0, 75, 86
2, 177984, Note_on_c, 0, 84, 0
2, 177991, Note_on_c, 0, 84, 99
2, 177996, Note_on_c, 0, 44, 87
2, 178031, Note_on_c, 0, 75, 0
2, 178032, Note_on_c, 0, 44, 0
2, 178032, Note_on_c, 0, 80, 0
2, 178033, Note_on_c, 0, 68, 0
2, 178033, Note_on_c, 0, 63, 0
2, 178033, Note_on_c, 0, 72, 0
2, 178035, Control_c, 0, 64, 0
2, 178045, Note_on_c, 0, 60, 0
2, 178053, Note_on_c, 0, 84, 0
2, 178112, Note_on_c, 0, 86, 95
2, 178115, Note_on_c, 0, 74, 89
2, 178136, Note_on_c, 0, 74, 0
2, 178160, Note_on_c, 0, 86, 0
2, 178240, Note_on_c, 0, 87, 99
2, 178247, Note_on_c, 0, 75, 93
2, 178250, Note_on_c, 0, 67, 90
2, 178256, Note_on_c, 0, 63, 82
2, 178264, Note_on_c, 0, 58, 78
2, 178268, Control_c, 0, 64, 127
2, 178305, Note_on_c, 0, 82, 91
2, 178349, Note_on_c, 0, 79, 68
2, 178391, Note_on_c, 0, 75, 0
2, 178399, Note_on_c, 0, 75, 72
2, 178483, Note_on_c, 0, 67, 0
2, 178492, Note_on_c, 0, 67, 66
2, 178492, Note_on_c, 0, 39, 77
2, 178535, Note_on_c, 0, 70, 76
2, 178606, Note_on_c, 0, 75, 0
2, 178613, Note_on_c, 0, 75, 75
2, 178659, Note_on_c, 0, 79, 0
2, 178664, Note_on_c, 0, 79, 71
2, 178696, Note_on_c, 0, 39, 0
2, 178698, Note_on_c, 0, 67, 0
2, 178699, Note_on_c, 0, 70, 0
2, 178700, Note_on_c, 0, 63, 0
2, 178700, Note_on_c, 0, 58, 0
2, 178700, Note_on_c, 0, 87, 0
2, 178701, Note_on_c, 0, 75, 0
2, 178701, Control_c, 0, 64, 0
2, 178701, Note_on_c, 0, 79, 0
2, 178736, Note_on_c, 0, 82, 0
2, 178748, Note_on_c, 0, 82, 100
2, 178755, Note_on_c, 0, 70, 88
2, 178758, Note_on_c, 0, 67, 90
2, 178763, Note_on_c, 0, 63, 85
2, 178778, Note_on_c, 0, 58, 81
2, 178782, Control_c, 0, 64, 127
2, 178866, Note_on_c, 0, 75, 84
2, 179007, Note_on_c, 0, 80, 97
2, 179009, Note_on_c, 0, 68, 89
2, 179009, Note_on_c, 0, 39, 76
2, 179069, Note_on_c, 0, 82, 0
2, 179069, Note_on_c, 0, 67, 0
2, 179069, Note_on_c, 0, 75, 0
2, 179069, Note_on_c, 0, 70, 0
2, 179070, Note_on_c, 0, 63, 0
2, 179070, Note_on_c, 0, 58, 0
2, 179070, Note_on_c, 0, 39, 0
2, 179070, Note_on_c, 0, 80, 0
2, 179070, Note_on_c, 0, 68, 0
2, 179072, Control_c, 0, 64, 0
2, 179124, Note_on_c, 0, 79, 97
2, 179124, Note_on_c, 0, 67, 93
2, 179148, Note_on_c, 0, 79, 0
2, 179166, Note_on_c, 0, 67, 0
2, 179255, Note_on_c, 0, 77, 98
2, 179260, Note_on_c, 0, 65, 91
2, 179262, Note_on_c, 0, 62, 78
2, 179272, Note_on_c, 0, 58, 82
2, 179297, Control_c, 0, 64, 127
2, 179303, Note_on_c, 0, 74, 65
2, 179375, Note_on_c, 0, 70, 79
2, 179420, Note_on_c, 0, 65, 0
2, 179431, Note_on_c, 0, 65, 67
2, 179510, Note_on_c, 0, 46, 78
2, 179596, Note_on_c, 0, 70, 0
2, 179608, Note_on_c, 0, 70, 70
2, 179658, Note_on_c, 0, 74, 0
2, 179668, Note_on_c, 0, 74, 85
2, 179750, Note_on_c, 0, 65, 0
2, 179757, Note_on_c, 0, 65, 88
2, 179758, Note_on_c, 0, 62, 0
2, 179758, Note_on_c, 0, 77, 0
2, 179765, Note_on_c, 0, 58, 0
2, 179767, Note_on_c, 0, 77, 84
2, 179768, Note_on_c, 0, 62, 71
2, 179772, Note_on_c, 0, 58, 73
2, 179832, Note_on_c, 0, 79, 90
2, 179885, Note_on_c, 0, 80, 80
2, 179941, Note_on_c, 0, 82, 87
2, 179996, Note_on_c, 0, 46, 0
2, 180000, Note_on_c, 0, 46, 74
2, 180001, Note_on_c, 0, 84, 88
2, 180076, Note_on_c, 0, 86, 79
2, 180101, Note_on_c, 0, 87, 87
2, 180175, Note_on_c, 0, 89, 84
2, 180222, Note_on_c, 0, 80, 0
2, 180222, Note_on_c, 0, 74, 0
2, 180222, Note_on_c, 0, 46, 0
2, 180222, Note_on_c, 0, 77, 0
2, 180222, Note_on_c, 0, 70, 0
2, 180222, Note_on_c, 0, 86, 0
2, 180222, Note_on_c, 0, 79, 0
2, 180222, Note_on_c, 0, 82, 0
2, 180222, Note_on_c, 0, 84, 0
2, 180223, Note_on_c, 0, 89, 0
2, 180223, Note_on_c, 0, 87, 0
2, 180228, Control_c, 0, 64, 0
2, 180241, Note_on_c, 0, 65, 0
2, 180245, Note_on_c, 0, 94, 103
2, 180249, Note_on_c, 0, 58, 0
2, 180249, Note_on_c, 0, 62, 0
2, 180252, Note_on_c, 0, 65, 91
2, 180255, Note_on_c, 0, 62, 82
2, 180260, Note_on_c, 0, 58, 92
2, 180295, Control_c, 0, 64, 127
2, 180318, Note_on_c, 0, 89, 71
2, 180400, Note_on_c, 0, 86, 52
2, 180455, Note_on_c, 0, 82, 83
2, 180497, Note_on_c, 0, 77, 75
2, 180566, Note_on_c, 0, 74, 72
2, 180571, Note_on_c, 0, 70, 79
2, 180618, Note_on_c, 0, 65, 0
2, 180623, Note_on_c, 0, 65, 68
2, 180656, Note_on_c, 0, 62, 0
2, 180663, Note_on_c, 0, 62, 86
2, 180743, Note_on_c, 0, 91, 112
2, 180745, Note_on_c, 0, 79, 106
2, 180748, Note_on_c, 0, 58, 0
2, 180748, Note_on_c, 0, 86, 0
2, 180753, Note_on_c, 0, 86, 76
2, 180753, Note_on_c, 0, 58, 91
2, 180844, Note_on_c, 0, 53, 82
2, 180907, Note_on_c, 0, 50, 64
2, 180994, Note_on_c, 0, 82, 0
2, 180994, Note_on_c, 0, 94, 0
2, 181000, Note_on_c, 0, 46, 99
2, 181004, Note_on_c, 0, 94, 109
2, 181005, Note_on_c, 0, 82, 109
2, 181094, Note_on_c, 0, 46, 0
2, 181100, Note_on_c, 0, 46, 79
2, 181190, Note_on_c, 0, 62, 0
2, 181190, Control_c, 0, 64, 0
2, 181190, Note_on_c, 0, 89, 0
2, 181190, Note_on_c, 0, 77, 0
2, 181190, Note_on_c, 0, 50, 0
2, 181191, Note_on_c, 0, 65, 0
2, 181191, Note_on_c, 0, 82, 0
2, 181191, Note_on_c, 0, 74, 0
2, 181191, Note_on_c, 0, 86, 0
2, 181191, Note_on_c, 0, 53, 0
2, 181191, Note_on_c, 0, 79, 0
2, 181191, Note_on_c, 0, 70, 0
2, 181191, Note_on_c, 0, 46, 0
2, 181191, Note_on_c, 0, 91, 0
2, 181191, Note_on_c, 0, 94, 0
2, 181191, Note_on_c, 0, 58, 0
2, 181250, Note_on_c, 0, 96, 109
2, 181251, Note_on_c, 0, 84, 104
2, 181252, Note_on_c, 0, 32, 94
2, 181252, Note_on_c, 0, 87, 98
2, 181253, Note_on_c, 0, 44, 93
2, 181257, Note_on_c, 0, 92, 97
2, 181278, Control_c, 0, 64, 127
2, 181405, Note_on_c, 0, 51, 68
2, 181509, Note_on_c, 0, 84, 0
2, 181509, Note_on_c, 0, 87, 0
2, 181509, Note_on_c, 0, 96, 0
2, 181514, Note_on_c, 0, 96, 103
2, 181516, Note_on_c, 0, 92, 0
2, 181517, Note_on_c, 0, 84, 101
2, 181518, Note_on_c, 0, 60, 78
2, 181520, Note_on_c, 0, 87, 98
2, 181520, Note_on_c, 0, 68, 84
2, 181522, Note_on_c, 0, 92, 92
2, 181525, Note_on_c, 0, 56, 75
2, 181532, Note_on_c, 0, 68, 0
2, 181624, Note_on_c, 0, 51, 0
2, 181634, Note_on_c, 0, 51, 75
2, 181754, Note_on_c, 0, 84, 0
2, 181754, Note_on_c, 0, 96, 0
2, 181760, Note_on_c, 0, 96, 97
2, 181762, Note_on_c, 0, 32, 0
2, 181762, Note_on_c, 0, 44, 0
2, 181765, Note_on_c, 0, 84, 101
2, 181767, Note_on_c, 0, 32, 80
2, 181769, Note_on_c, 0, 44, 87
2, 181881, Note_on_c, 0, 98, 103
2, 181886, Note_on_c, 0, 86, 99
2, 181992, Note_on_c, 0, 60, 0
2, 182000, Note_on_c, 0, 56, 0
2, 182000, Note_on_c, 0, 87, 0
2, 182001, Note_on_c, 0, 60, 89
2, 182004, Note_on_c, 0, 99, 103
2, 182008, Note_on_c, 0, 87, 95
2, 182010, Note_on_c, 0, 56, 75
2, 182085, Note_on_c, 0, 51, 0
2, 182093, Note_on_c, 0, 51, 89
2, 182115, Note_on_c, 0, 99, 0
2, 182123, Note_on_c, 0, 99, 107
2, 182131, Note_on_c, 0, 87, 0
2, 182138, Note_on_c, 0, 91, 98
2, 182139, Note_on_c, 0, 87, 104
2, 182141, Note_on_c, 0, 94, 99
2, 182159, Note_on_c, 0, 84, 0
2, 182162, Note_on_c, 0, 86, 0
2, 182163, Note_on_c, 0, 96, 0
2, 182163, Note_on_c, 0, 98, 0
2, 182163, Note_on_c, 0, 92, 0
2, 182164, Note_on_c, 0, 56, 0
2, 182165, Note_on_c, 0, 51, 0
2, 182165, Note_on_c, 0, 44, 0
2, 182166, Note_on_c, 0, 32, 0
2, 182174, Control_c, 0, 64, 0
2, 182184, Note_on_c, 0, 60, 0
2, 182231, Control_c, 0, 64, 127
2, 182244, Note_on_c, 0, 39, 87
2, 182244, Note_on_c, 0, 27, 93
2, 182369, Note_on_c, 0, 94, 0
2, 182376, Note_on_c, 0, 39, 0
2, 182380, Note_on_c, 0, 94, 102
2, 182380, Note_on_c, 0, 82, 103
2, 182387, Note_on_c, 0, 39, 75
2, 182392, Note_on_c, 0, 87, 0
2, 182397, Note_on_c, 0, 87, 73
2, 182403, Note_on_c, 0, 51, 71
2, 182507, Note_on_c, 0, 82, 0
2, 182507, Note_on_c, 0, 87, 0
2, 182507, Note_on_c, 0, 91, 0
2, 182507, Note_on_c, 0, 94, 0
2, 182512, Note_on_c, 0, 82, 108
2, 182512, Note_on_c, 0, 94, 106
2, 182517, Note_on_c, 0, 91, 90
2, 182517, Note_on_c, 0, 87, 92
2, 182745, Note_on_c, 0, 27, 0
2, 182745, Note_on_c, 0, 39, 0
2, 182753, Note_on_c, 0, 82, 0
2, 182753, Note_on_c, 0, 87, 0
2, 182753, Note_on_c, 0, 91, 0
2, 182753, Note_on_c, 0, 94, 0
2, 182754, Note_on_c, 0, 39, 84
2, 182756, Note_on_c, 0, 27, 88
2, 182758, Note_on_c, 0, 94, 104
2, 182759, Note_on_c, 0, 82, 100
2, 182763, Note_on_c, 0, 91, 70
2, 182763, Note_on_c, 0, 87, 79
2, 182876, Note_on_c, 0, 51, 0
2, 182880, Note_on_c, 0, 51, 91
2, 182880, Note_on_c, 0, 58, 75
2, 182882, Note_on_c, 0, 92, 95
2, 182885, Note_on_c, 0, 80, 88
2, 182991, Note_on_c, 0, 91, 0
2, 183002, Note_on_c, 0, 91, 103
2, 183003, Note_on_c, 0, 79, 98
2, 183027, Note_on_c, 0, 83, 56
2, 183031, Note_on_c, 0, 89, 61
2, 183121, Note_on_c, 0, 82, 0
2, 183121, Note_on_c, 0, 89, 0
2, 183127, Note_on_c, 0, 89, 101
2, 183128, Note_on_c, 0, 77, 105
2, 183132, Note_on_c, 0, 82, 102
2, 183133, Note_on_c, 0, 86, 95
2, 183144, Note_on_c, 0, 87, 0
2, 183152, Note_on_c, 0, 87, 70
2, 183164, Control_c, 0, 64, 0
2, 183165, Note_on_c, 0, 51, 0
2, 183166, Note_on_c, 0, 58, 0
2, 183168, Note_on_c, 0, 83, 0
2, 183169, Note_on_c, 0, 80, 0
2, 183171, Note_on_c, 0, 27, 0
2, 183172, Note_on_c, 0, 92, 0
2, 183173, Note_on_c, 0, 79, 0
2, 183175, Note_on_c, 0, 99, 0
2, 183198, Note_on_c, 0, 39, 0
2, 183198, Note_on_c, 0, 94, 0
2, 183214, Control_c, 0, 64, 127
2, 183253, Note_on_c, 0, 34, 84
2, 183254, Note_on_c, 0, 46, 93
2, 183505, Note_on_c, 0, 77, 0
2, 183505, Note_on_c, 0, 89, 0
2, 183509, Note_on_c, 0, 89, 101
2, 183512, Note_on_c, 0, 58, 91
2, 183514, Note_on_c, 0, 77, 88
2, 183516, Note_on_c, 0, 50, 74
2, 183516, Note_on_c, 0, 53, 81
2, 183605, Note_on_c, 0, 46, 0
2, 183611, Note_on_c, 0, 46, 76
2, 183713, Note_on_c, 0, 87, 0
2, 183715, Note_on_c, 0, 86, 0
2, 183715, Note_on_c, 0, 34, 0
2, 183716, Note_on_c, 0, 58, 0
2, 183716, Note_on_c, 0, 89, 0
2, 183716, Note_on_c, 0, 53, 0
2, 183716, Note_on_c, 0, 46, 0
2, 183716, Note_on_c, 0, 77, 0
2, 183717, Control_c, 0, 64, 0
2, 183720, Note_on_c, 0, 91, 0
2, 183728, Note_on_c, 0, 50, 0
2, 183728, Note_on_c, 0, 82, 0
2, 183755, Note_on_c, 0, 92, 108
2, 183755, Note_on_c, 0, 47, 94
2, 183756, Note_on_c, 0, 35, 84
2, 183756, Note_on_c, 0, 80, 106
2, 183759, Note_on_c, 0, 86, 87
2, 183782, Control_c, 0, 64, 127
2, 183882, Note_on_c, 0, 47, 0
2, 183886, Note_on_c, 0, 47, 71
2, 184002, Note_on_c, 0, 59, 85
2, 184007, Note_on_c, 0, 91, 109
2, 184008, Note_on_c, 0, 83, 83
2, 184008, Note_on_c, 0, 79, 100
2, 184011, Note_on_c, 0, 50, 73
2, 184012, Note_on_c, 0, 55, 77
2, 184104, Note_on_c, 0, 47, 0
2, 184110, Note_on_c, 0, 47, 69
2, 184233, Control_c, 0, 64, 0
2, 184233, Note_on_c, 0, 86, 0
2, 184233, Note_on_c, 0, 92, 0
2, 184233, Note_on_c, 0, 80, 0
2, 184233, Note_on_c, 0, 79, 0
2, 184233, Note_on_c, 0, 83, 0
2, 184235, Note_on_c, 0, 47, 0
2, 184236, Note_on_c, 0, 55, 0
2, 184238, Note_on_c, 0, 59, 0
2, 184250, Note_on_c, 0, 35, 0
2, 184253, Note_on_c, 0, 48, 91
2, 184255, Note_on_c, 0, 36, 80
2, 184257, Note_on_c, 0, 89, 107
2, 184261, Note_on_c, 0, 84, 90
2, 184262, Note_on_c, 0, 77, 99
2, 184268, Note_on_c, 0, 87, 83
2, 184281, Note_on_c, 0, 50, 0
2, 184296, Control_c, 0, 64, 127
2, 184366, Note_on_c, 0, 48, 0
2, 184377, Note_on_c, 0, 48, 85
2, 184504, Note_on_c, 0, 48, 0
2, 184504, Note_on_c, 0, 91, 0
2, 184506, Note_on_c, 0, 60, 84
2, 184508, Note_on_c, 0, 51, 80
2, 184509, Note_on_c, 0, 91, 105
2, 184509, Note_on_c, 0, 48, 87
2, 184511, Note_on_c, 0, 79, 99
2, 184596, Note_on_c, 0, 48, 0
2, 184600, Note_on_c, 0, 48, 88
2, 184653, Note_on_c, 0, 85, 45
2, 184718, Note_on_c, 0, 48, 0
2, 184719, Note_on_c, 0, 51, 0
2, 184720, Note_on_c, 0, 84, 0
2, 184720, Note_on_c, 0, 79, 0
2, 184720, Note_on_c, 0, 87, 0
2, 184720, Note_on_c, 0, 77, 0
2, 184721, Control_c, 0, 64, 0
2, 184727, Note_on_c, 0, 36, 0
2, 184742, Note_on_c, 0, 60, 0
2, 184742, Note_on_c, 0, 85, 0
2, 184742, Note_on_c, 0, 89, 0
2, 184750, Note_on_c, 0, 91, 0
2, 184753, Note_on_c, 0, 89, 104
2, 184754, Note_on_c, 0, 77, 99
2, 184755, Note_on_c, 0, 91, 88
2, 184755, Note_on_c, 0, 34, 83
2, 184756, Note_on_c, 0, 79, 89
2, 184758, Note_on_c, 0, 86, 87
2, 184759, Note_on_c, 0, 46, 94
2, 184761, Note_on_c, 0, 82, 98
2, 184788, Control_c, 0, 64, 127
2, 184872, Note_on_c, 0, 46, 0
2, 184882, Note_on_c, 0, 46, 45
2, 185008, Note_on_c, 0, 87, 98
2, 185008, Note_on_c, 0, 58, 94
2, 185010, Note_on_c, 0, 75, 98
2, 185011, Note_on_c, 0, 79, 0
2, 185014, Note_on_c, 0, 51, 75
2, 185022, Note_on_c, 0, 79, 71
2, 185026, Note_on_c, 0, 46, 0
2, 185031, Note_on_c, 0, 46, 69
2, 185095, Note_on_c, 0, 46, 0
2, 185102, Note_on_c, 0, 46, 80
2, 185134, Note_on_c, 0, 91, 0
2, 185193, Note_on_c, 0, 82, 0
2, 185193, Note_on_c, 0, 89, 0
2, 185193, Note_on_c, 0, 46, 0
2, 185193, Note_on_c, 0, 51, 0
2, 185193, Note_on_c, 0, 86, 0
2, 185194, Note_on_c, 0, 87, 0
2, 185194, Note_on_c, 0, 77, 0
2, 185195, Note_on_c, 0, 58, 0
2, 185195, Note_on_c, 0, 75, 0
2, 185196, Control_c, 0, 64, 0
2, 185210, Note_on_c, 0, 34, 0
2, 185210, Note_on_c, 0, 79, 0
2, 185249, Note_on_c, 0, 96, 107
2, 185250, Note_on_c, 0, 93, 102
2, 185252, Note_on_c, 0, 84, 105
2, 185252, Note_on_c, 0, 89, 103
2, 185253, Note_on_c, 0, 33, 87
2, 185255, Note_on_c, 0, 45, 92
2, 185271, Note_on_c, 0, 87, 66
2, 185272, Control_c, 0, 64, 127
2, 185416, Note_on_c, 0, 48, 76
2, 185536, Note_on_c, 0, 53, 77
2, 185644, Note_on_c, 0, 57, 79
2, 185767, Note_on_c, 0, 60, 72
2, 185893, Note_on_c, 0, 77, 67
2, 185894, Note_on_c, 0, 65, 66
2, 186014, Note_on_c, 0, 69, 76
2, 186138, Note_on_c, 0, 72, 76
2, 186278, Note_on_c, 0, 77, 0
2, 186278, Note_on_c, 0, 84, 0
2, 186278, Note_on_c, 0, 87, 0
2, 186282, Note_on_c, 0, 77, 70
2, 186282, Note_on_c, 0, 84, 83
2, 186284, Note_on_c, 0, 87, 87
2, 186401, Note_on_c, 0, 89, 0
2, 186408, Note_on_c, 0, 72, 0
2, 186412, Note_on_c, 0, 89, 79
2, 186413, Note_on_c, 0, 72, 57
2, 186524, Note_on_c, 0, 69, 0
2, 186529, Note_on_c, 0, 91, 84
2, 186534, Note_on_c, 0, 79, 62
2, 186535, Note_on_c, 0, 69, 53
2, 186647, Note_on_c, 0, 65, 0
2, 186647, Note_on_c, 0, 84, 0
2, 186647, Note_on_c, 0, 96, 0
2, 186651, Note_on_c, 0, 96, 91
2, 186651, Note_on_c, 0, 65, 71
2, 186654, Note_on_c, 0, 87, 0
2, 186656, Note_on_c, 0, 84, 84
2, 186664, Note_on_c, 0, 87, 78
2, 186908, Note_on_c, 0, 91, 0
2, 186915, Note_on_c, 0, 91, 90
2, 186926, Note_on_c, 0, 67, 65
2, 187031, Note_on_c, 0, 69, 0
2, 187031, Note_on_c, 0, 89, 0
2, 187035, Note_on_c, 0, 89, 86
2, 187038, Note_on_c, 0, 69, 72
2, 187154, Note_on_c, 0, 88, 88
2, 187159, Note_on_c, 0, 86, 80
2, 187176, Note_on_c, 0, 57, 0
2, 187177, Note_on_c, 0, 96, 0
2, 187177, Note_on_c, 0, 60, 0
2, 187179, Control_c, 0, 64, 0
2, 187179, Note_on_c, 0, 65, 0
2, 187179, Note_on_c, 0, 69, 0
2, 187180, Note_on_c, 0, 93, 0
2, 187180, Note_on_c, 0, 33, 0
2, 187180, Note_on_c, 0, 91, 0
2, 187180, Note_on_c, 0, 84, 0
2, 187180, Note_on_c, 0, 45, 0
2, 187180, Note_on_c, 0, 48, 0
2, 187181, Note_on_c, 0, 89, 0
2, 187181, Note_on_c, 0, 72, 0
2, 187183, Note_on_c, 0, 79, 0
2, 187183, Note_on_c, 0, 67, 0
2, 187183, Note_on_c, 0, 87, 0
2, 187190, Note_on_c, 0, 88, 0
2, 187192, Note_on_c, 0, 53, 0
2, 187200, Note_on_c, 0, 77, 0
2, 187215, Note_on_c, 0, 86, 0
2, 187276, Control_c, 0, 64, 127
2, 187277, Note_on_c, 0, 80, 96
2, 187279, Note_on_c, 0, 87, 100
2, 187280, Note_on_c, 0, 53, 89
2, 187280, Note_on_c, 0, 75, 93
2, 187284, Note_on_c, 0, 41, 85
2, 187396, Note_on_c, 0, 86, 96
2, 187401, Note_on_c, 0, 74, 86
2, 187401, Note_on_c, 0, 48, 70
2, 187480, Note_on_c, 0, 74, 0
2, 187480, Note_on_c, 0, 48, 0
2, 187480, Note_on_c, 0, 41, 0
2, 187480, Note_on_c, 0, 80, 0
2, 187480, Note_on_c, 0, 53, 0
2, 187480, Note_on_c, 0, 86, 0
2, 187480, Note_on_c, 0, 75, 0
2, 187486, Control_c, 0, 64, 0
2, 187514, Note_on_c, 0, 87, 0
2, 187519, Note_on_c, 0, 56, 79
2, 187519, Note_on_c, 0, 87, 94
2, 187520, Note_on_c, 0, 53, 73
2, 187524, Note_on_c, 0, 75, 83
2, 187530, Note_on_c, 0, 53, 0
2, 187553, Note_on_c, 0, 56, 0
2, 187557, Note_on_c, 0, 87, 0
2, 187558, Note_on_c, 0, 75, 0
2, 187642, Note_on_c, 0, 82, 104
2, 187647, Note_on_c, 0, 75, 90
2, 187651, Note_on_c, 0, 70, 90
2, 187654, Note_on_c, 0, 55, 90
2, 187654, Note_on_c, 0, 43, 86
2, 187668, Control_c, 0, 64, 127
2, 187906, Note_on_c, 0, 75, 0
2, 187910, Note_on_c, 0, 51, 74
2, 187916, Note_on_c, 0, 75, 93
2, 187917, Note_on_c, 0, 87, 77
2, 187917, Note_on_c, 0, 63, 77
2, 187921, Note_on_c, 0, 63, 0
2, 187921, Note_on_c, 0, 87, 0
2, 187973, Note_on_c, 0, 82, 0
2, 187973, Note_on_c, 0, 70, 0
2, 187973, Note_on_c, 0, 43, 0
2, 187973, Note_on_c, 0, 55, 0
2, 187974, Note_on_c, 0, 75, 0
2, 187974, Note_on_c, 0, 51, 0
2, 187976, Control_c, 0, 64, 0
2, 188033, Note_on_c, 0, 51, 65
2, 188037, Note_on_c, 0, 63, 80
2, 188038, Note_on_c, 0, 75, 97
2, 188040, Note_on_c, 0, 58, 78
2, 188040, Note_on_c, 0, 87, 84
2, 188044, Note_on_c, 0, 87, 0
2, 188068, Note_on_c, 0, 63, 0
2, 188070, Note_on_c, 0, 58, 0
2, 188070, Note_on_c, 0, 75, 0
2, 188072, Note_on_c, 0, 51, 0
2, 188165, Note_on_c, 0, 80, 98
2, 188167, Control_c, 0, 64, 127
2, 188171, Note_on_c, 0, 68, 94
2, 188172, Note_on_c, 0, 44, 89
2, 188172, Note_on_c, 0, 72, 81
2, 188172, Note_on_c, 0, 56, 91
2, 188172, Note_on_c, 0, 75, 77
2, 188426, Note_on_c, 0, 79, 90
2, 188427, Note_on_c, 0, 51, 72
2, 188429, Note_on_c, 0, 67, 83
2, 188536, Note_on_c, 0, 56, 0
2, 188536, Note_on_c, 0, 60, 77
2, 188540, Note_on_c, 0, 56, 76
2, 188541, Note_on_c, 0, 77, 97
2, 188544, Note_on_c, 0, 65, 84
2, 188573, Note_on_c, 0, 80, 0
2, 188574, Note_on_c, 0, 68, 0
2, 188574, Note_on_c, 0, 51, 0
2, 188574, Note_on_c, 0, 67, 0
2, 188575, Note_on_c, 0, 75, 0
2, 188576, Note_on_c, 0, 72, 0
2, 188576, Note_on_c, 0, 79, 0
2, 188576, Note_on_c, 0, 56, 0
2, 188577, Note_on_c, 0, 44, 0
2, 188577, Control_c, 0, 64, 0
2, 188578, Note_on_c, 0, 60, 0
2, 188582, Note_on_c, 0, 77, 0
2, 188583, Note_on_c, 0, 65, 0
2, 188675, Note_on_c, 0, 75, 97
2, 188675, Note_on_c, 0, 63, 86
2, 188677, Note_on_c, 0, 70, 91
2, 188677, Note_on_c, 0, 46, 88
2, 188677, Note_on_c, 0, 58, 93
2, 188705, Control_c, 0, 64, 127
2, 188923, Note_on_c, 0, 53, 78
2, 188938, Note_on_c, 0, 94, 101
2, 188941, Note_on_c, 0, 82, 94
2, 188977, Note_on_c, 0, 92, 41
2, 189050, Note_on_c, 0, 58, 0
2, 189053, Note_on_c, 0, 62, 85
2, 189055, Note_on_c, 0, 96, 90
2, 189056, Note_on_c, 0, 84, 91
2, 189061, Note_on_c, 0, 86, 77
2, 189062, Note_on_c, 0, 58, 73
2, 189132, Note_on_c, 0, 75, 0
2, 189132, Note_on_c, 0, 46, 0
2, 189132, Note_on_c, 0, 82, 0
2, 189132, Note_on_c, 0, 53, 0
2, 189133, Note_on_c, 0, 62, 0
2, 189133, Note_on_c, 0, 84, 0
2, 189133, Note_on_c, 0, 86, 0
2, 189133, Note_on_c, 0, 58, 0
2, 189133, Note_on_c, 0, 94, 0
2, 189133, Note_on_c, 0, 96, 0
2, 189134, Note_on_c, 0, 70, 0
2, 189134, Note_on_c, 0, 63, 0
2, 189137, Control_c, 0, 64, 0
2, 189143, Note_on_c, 0, 92, 0
2, 189172, Note_on_c, 0, 98, 91
2, 189177, Note_on_c, 0, 86, 82
2, 189219, Note_on_c, 0, 86, 0
2, 189273, Note_on_c, 0, 98, 0
2, 189291, Note_on_c, 0, 99, 93
2, 189292, Note_on_c, 0, 63, 86
2, 189296, Note_on_c, 0, 60, 77
2, 189300, Note_on_c, 0, 53, 75
2, 189300, Note_on_c, 0, 87, 75
2, 189307, Note_on_c, 0, 56, 68
2, 189328, Note_on_c, 0, 63, 0
2, 189329, Note_on_c, 0, 53, 0
2, 189330, Note_on_c, 0, 60, 0
2, 189342, Note_on_c, 0, 87, 0
2, 189358, Note_on_c, 0, 56, 0
2, 189396, Note_on_c, 0, 99, 0
2, 189417, Note_on_c, 0, 98, 91
2, 189422, Note_on_c, 0, 86, 74
2, 189473, Note_on_c, 0, 86, 0
2, 189496, Note_on_c, 0, 98, 0
2, 189538, Note_on_c, 0, 99, 88
2, 189544, Note_on_c, 0, 87, 79
2, 189575, Note_on_c, 0, 87, 0
2, 189675, Note_on_c, 0, 94, 91
2, 189677, Note_on_c, 0, 82, 81
2, 189742, Note_on_c, 0, 99, 0
2, 189809, Note_on_c, 0, 63, 71
2, 189812, Note_on_c, 0, 58, 67
2, 189815, Note_on_c, 0, 55, 52
2, 189844, Note_on_c, 0, 63, 0
2, 189846, Note_on_c, 0, 58, 0
2, 189846, Note_on_c, 0, 55, 0
2, 189849, Note_on_c, 0, 94, 0
2, 189864, Note_on_c, 0, 82, 0
2, 189937, Note_on_c, 0, 87, 77
2, 189938, Note_on_c, 0, 75, 70
2, 189962, Note_on_c, 0, 75, 0
2, 189966, Note_on_c, 0, 87, 0
2, 190062, Note_on_c, 0, 87, 80
2, 190062, Note_on_c, 0, 75, 63
2, 190092, Note_on_c, 0, 87, 0
2, 190110, Note_on_c, 0, 75, 0
2, 190180, Note_on_c, 0, 92, 93
2, 190186, Note_on_c, 0, 80, 84
2, 190207, Note_on_c, 0, 90, 44
2, 190218, Note_on_c, 0, 90, 0
2, 190313, Note_on_c, 0, 63, 72
2, 190314, Note_on_c, 0, 60, 63
2, 190317, Note_on_c, 0, 56, 65
2, 190350, Note_on_c, 0, 63, 0
2, 190351, Note_on_c, 0, 60, 0
2, 190354, Note_on_c, 0, 56, 0
2, 190364, Note_on_c, 0, 80, 0
2, 190394, Note_on_c, 0, 92, 0
2, 190437, Note_on_c, 0, 91, 81
2, 190442, Note_on_c, 0, 79, 73
2, 190468, Note_on_c, 0, 91, 0
2, 190468, Note_on_c, 0, 79, 0
2, 190556, Note_on_c, 0, 89, 80
2, 190559, Note_on_c, 0, 77, 73
2, 190690, Note_on_c, 0, 82, 80
2, 190691, Note_on_c, 0, 87, 70
2, 190693, Note_on_c, 0, 75, 73
2, 190697, Note_on_c, 0, 58, 76
2, 190699, Note_on_c, 0, 46, 75
2, 190717, Control_c, 0, 64, 127
2, 190940, Note_on_c, 0, 82, 0
2, 190949, Note_on_c, 0, 82, 98
2, 190950, Note_on_c, 0, 70, 91
2, 191071, Note_on_c, 0, 84, 98
2, 191073, Note_on_c, 0, 72, 85
2, 191124, Note_on_c, 0, 77, 0
2, 191177, Note_on_c, 0, 58, 0
2, 191178, Note_on_c, 0, 82, 0
2, 191179, Note_on_c, 0, 70, 0
2, 191179, Note_on_c, 0, 46, 0
2, 191179, Note_on_c, 0, 75, 0
2, 191180, Note_on_c, 0, 84, 0
2, 191180, Note_on_c, 0, 72, 0
2, 191181, Note_on_c, 0, 87, 0
2, 191181, Control_c, 0, 64, 0
2, 191182, Note_on_c, 0, 86, 94
2, 191185, Note_on_c, 0, 89, 0
2, 191186, Note_on_c, 0, 74, 81
2, 191213, Note_on_c, 0, 74, 0
2, 191214, Note_on_c, 0, 86, 0
2, 191296, Note_on_c, 0, 87, 103
2, 191297, Note_on_c, 0, 29, 97
2, 191297, Note_on_c, 0, 80, 95
2, 191297, Note_on_c, 0, 75, 100
2, 191297, Note_on_c, 0, 41, 85
2, 191316, Control_c, 0, 64, 127
2, 191423, Note_on_c, 0, 86, 97
2, 191426, Note_on_c, 0, 74, 83
2, 191531, Note_on_c, 0, 41, 0
2, 191536, Note_on_c, 0, 53, 85
2, 191539, Note_on_c, 0, 75, 0
2, 191539, Note_on_c, 0, 87, 0
2, 191541, Note_on_c, 0, 41, 77
2, 191542, Note_on_c, 0, 48, 82
2, 191544, Note_on_c, 0, 87, 98
2, 191549, Note_on_c, 0, 75, 94
2, 191590, Note_on_c, 0, 74, 0
2, 191590, Note_on_c, 0, 75, 0
2, 191590, Note_on_c, 0, 29, 0
2, 191591, Control_c, 0, 64, 0
2, 191592, Note_on_c, 0, 41, 0
2, 191592, Note_on_c, 0, 80, 0
2, 191592, Note_on_c, 0, 86, 0
2, 191594, Note_on_c, 0, 53, 0
2, 191594, Note_on_c, 0, 48, 0
2, 191595, Note_on_c, 0, 87, 0
2, 191665, Note_on_c, 0, 82, 106
2, 191667, Note_on_c, 0, 43, 97
2, 191668, Note_on_c, 0, 70, 99
2, 191670, Note_on_c, 0, 79, 79
2, 191671, Note_on_c, 0, 31, 91
2, 191677, Control_c, 0, 64, 127
2, 191920, Note_on_c, 0, 55, 82
2, 191922, Note_on_c, 0, 51, 79
2, 192005, Note_on_c, 0, 51, 0
2, 192005, Note_on_c, 0, 82, 0
2, 192006, Note_on_c, 0, 31, 0
2, 192006, Note_on_c, 0, 43, 0
2, 192007, Note_on_c, 0, 55, 0
2, 192009, Control_c, 0, 64, 0
2, 192015, Note_on_c, 0, 79, 0
2, 192023, Note_on_c, 0, 70, 0
2, 192052, Note_on_c, 0, 32, 95
2, 192052, Note_on_c, 0, 44, 102
2, 192053, Note_on_c, 0, 80, 97
2, 192055, Note_on_c, 0, 87, 102
2, 192057, Note_on_c, 0, 75, 94
2, 192076, Control_c, 0, 64, 127
2, 192176, Note_on_c, 0, 86, 96
2, 192179, Note_on_c, 0, 74, 85
2, 192284, Note_on_c, 0, 87, 0
2, 192288, Note_on_c, 0, 56, 78
2, 192291, Note_on_c, 0, 75, 0
2, 192295, Note_on_c, 0, 87, 93
2, 192300, Note_on_c, 0, 75, 82
2, 192357, Note_on_c, 0, 74, 0
2, 192358, Note_on_c, 0, 80, 0
2, 192358, Note_on_c, 0, 86, 0
2, 192359, Note_on_c, 0, 44, 0
2, 192359, Note_on_c, 0, 87, 0
2, 192361, Note_on_c, 0, 75, 0
2, 192363, Note_on_c, 0, 56, 0
2, 192365, Control_c, 0, 64, 0
2, 192376, Note_on_c, 0, 32, 0
2, 192418, Note_on_c, 0, 82, 109
2, 192420, Note_on_c, 0, 46, 97
2, 192420, Note_on_c, 0, 34, 90
2, 192424, Note_on_c, 0, 70, 100
2, 192437, Control_c, 0, 64, 127
2, 192645, Note_on_c, 0, 46, 0
2, 192650, Note_on_c, 0, 58, 78
2, 192652, Note_on_c, 0, 46, 77
2, 192750, Note_on_c, 0, 34, 0
2, 192751, Note_on_c, 0, 46, 0
2, 192751, Control_c, 0, 64, 0
2, 192752, Note_on_c, 0, 58, 0
2, 192752, Note_on_c, 0, 70, 0
2, 192753, Note_on_c, 0, 82, 0
2, 192799, Note_on_c, 0, 75, 98
2, 192800, Note_on_c, 0, 80, 99
2, 192800, Note_on_c, 0, 32, 98
2, 192800, Note_on_c, 0, 44, 102
2, 192802, Note_on_c, 0, 87, 104
2, 192821, Control_c, 0, 64, 127
2, 192933, Note_on_c, 0, 86, 101
2, 192934, Note_on_c, 0, 74, 89
2, 193036, Note_on_c, 0, 75, 0
2, 193036, Note_on_c, 0, 87, 0
2, 193044, Note_on_c, 0, 87, 103
2, 193046, Note_on_c, 0, 46, 89
2, 193046, Note_on_c, 0, 34, 82
2, 193048, Note_on_c, 0, 75, 93
2, 193049, Note_on_c, 0, 78, 77
2, 193059, Note_on_c, 0, 78, 0
2, 193059, Note_on_c, 0, 80, 0
2, 193064, Note_on_c, 0, 80, 55
2, 193164, Note_on_c, 0, 89, 98
2, 193164, Note_on_c, 0, 77, 98
2, 193175, Note_on_c, 0, 46, 0
2, 193177, Note_on_c, 0, 34, 0
2, 193177, Note_on_c, 0, 74, 0
2, 193178, Note_on_c, 0, 32, 0
2, 193178, Note_on_c, 0, 75, 0
2, 193178, Note_on_c, 0, 44, 0
2, 193179, Note_on_c, 0, 86, 0
2, 193179, Control_c, 0, 64, 0
2, 193180, Note_on_c, 0, 80, 0
2, 193182, Note_on_c, 0, 87, 0
2, 193186, Note_on_c, 0, 87, 49
2, 193195, Note_on_c, 0, 77, 0
2, 193213, Note_on_c, 0, 87, 0
2, 193213, Note_on_c, 0, 89, 0
2, 193288, Note_on_c, 0, 87, 106
2, 193292, Note_on_c, 0, 47, 104
2, 193292, Note_on_c, 0, 78, 102
2, 193293, Note_on_c, 0, 75, 107
2, 193294, Note_on_c, 0, 35, 92
2, 193295, Note_on_c, 0, 83, 90
2, 193305, Control_c, 0, 64, 127
2, 193543, Note_on_c, 0, 83, 0
2, 193543, Note_on_c, 0, 87, 0
2, 193547, Note_on_c, 0, 83, 76
2, 193550, Note_on_c, 0, 87, 67
2, 193628, Note_on_c, 0, 83, 0
2, 193628, Note_on_c, 0, 87, 0
2, 193633, Note_on_c, 0, 83, 76
2, 193638, Note_on_c, 0, 87, 71
2, 193697, Note_on_c, 0, 87, 0
2, 193708, Note_on_c, 0, 87, 78
2, 193709, Note_on_c, 0, 90, 69
2, 193758, Note_on_c, 0, 90, 0
2, 193765, Note_on_c, 0, 90, 77
2, 193815, Note_on_c, 0, 95, 96
2, 193816, Note_on_c, 0, 59, 88
2, 193817, Note_on_c, 0, 39, 85
2, 193824, Note_on_c, 0, 54, 90
2, 193825, Note_on_c, 0, 51, 79
2, 193935, Note_on_c, 0, 87, 0
2, 193943, Note_on_c, 0, 90, 0
2, 193944, Note_on_c, 0, 87, 79
2, 193951, Note_on_c, 0, 90, 64
2, 194065, Note_on_c, 0, 83, 0
2, 194070, Note_on_c, 0, 83, 89
2, 194135, Note_on_c, 0, 78, 0
2, 194139, Note_on_c, 0, 78, 77
2, 194181, Note_on_c, 0, 75, 0
2, 194191, Note_on_c, 0, 75, 81
2, 194193, Note_on_c, 0, 71, 72
2, 194275, Note_on_c, 0, 51, 0
2, 194275, Note_on_c, 0, 83, 0
2, 194275, Note_on_c, 0, 90, 0
2, 194276, Note_on_c, 0, 71, 0
2, 194276, Note_on_c, 0, 78, 0
2, 194276, Note_on_c, 0, 54, 0
2, 194277, Control_c, 0, 64, 0
2, 194280, Note_on_c, 0, 35, 0
2, 194288, Note_on_c, 0, 39, 0
2, 194288, Note_on_c, 0, 47, 0
2, 194288, Note_on_c, 0, 75, 0
2, 194288, Note_on_c, 0, 95, 0
2, 194296, Note_on_c, 0, 59, 0
2, 194296, Note_on_c, 0, 87, 0
2, 194317, Note_on_c, 0, 49, 102
2, 194322, Note_on_c, 0, 89, 105
2, 194322, Note_on_c, 0, 77, 105
2, 194322, Note_on_c, 0, 37, 102
2, 194323, Note_on_c, 0, 80, 100
2, 194324, Note_on_c, 0, 85, 94
2, 194357, Control_c, 0, 64, 127
2, 194511, Note_on_c, 0, 80, 0
2, 194516, Note_on_c, 0, 80, 82
2, 194549, Note_on_c, 0, 85, 0
2, 194553, Note_on_c, 0, 85, 70
2, 194626, Note_on_c, 0, 85, 0
2, 194630, Note_on_c, 0, 85, 69
2, 194703, Note_on_c, 0, 49, 0
2, 194703, Note_on_c, 0, 89, 0
2, 194708, Note_on_c, 0, 89, 76
2, 194710, Note_on_c, 0, 49, 58
2, 194748, Note_on_c, 0, 92, 73
2, 194813, Note_on_c, 0, 97, 104
2, 194826, Note_on_c, 0, 49, 0
2, 194828, Note_on_c, 0, 53, 81
2, 194829, Note_on_c, 0, 61, 89
2, 194832, Note_on_c, 0, 56, 80
2, 194835, Note_on_c, 0, 49, 75
2, 194933, Note_on_c, 0, 89, 0
2, 194941, Note_on_c, 0, 85, 0
2, 194943, Note_on_c, 0, 89, 70
2, 194950, Note_on_c, 0, 85, 79
2, 195056, Note_on_c, 0, 85, 0
2, 195065, Note_on_c, 0, 85, 76
2, 195110, Note_on_c, 0, 80, 0
2, 195121, Note_on_c, 0, 80, 77
2, 195171, Note_on_c, 0, 77, 0
2, 195175, Note_on_c, 0, 77, 68
2, 195222, Note_on_c, 0, 73, 81
2, 195254, Note_on_c, 0, 92, 0
2, 195254, Note_on_c, 0, 49, 0
2, 195255, Note_on_c, 0, 53, 0
2, 195255, Note_on_c, 0, 80, 0
2, 195255, Note_on_c, 0, 89, 0
2, 195255, Note_on_c, 0, 77, 0
2, 195255, Note_on_c, 0, 85, 0
2, 195256, Note_on_c, 0, 56, 0
2, 195256, Note_on_c, 0, 61, 0
2, 195258, Control_c, 0, 64, 0
2, 195271, Note_on_c, 0, 37, 0
2, 195271, Note_on_c, 0, 97, 0
2, 195294, Note_on_c, 0, 73, 0
2, 195322, Note_on_c, 0, 63, 94
2, 195322, Note_on_c, 0, 51, 87
2, 195363, Control_c, 0, 64, 127
2, 195464, Note_on_c, 0, 94, 108
2, 195468, Note_on_c, 0, 82, 103
2, 195470, Note_on_c, 0, 75, 96
2, 195571, Note_on_c, 0, 82, 0
2, 195571, Note_on_c, 0, 94, 0
2, 195575, Note_on_c, 0, 94, 104
2, 195581, Note_on_c, 0, 82, 103
2, 195582, Note_on_c, 0, 70, 90
2, 195694, Note_on_c, 0, 94, 0
2, 195701, Note_on_c, 0, 82, 0
2, 195701, Note_on_c, 0, 68, 90
2, 195705, Note_on_c, 0, 94, 107
2, 195706, Note_on_c, 0, 82, 103
2, 195809, Note_on_c, 0, 63, 0
2, 195820, Note_on_c, 0, 63, 100
2, 195836, Note_on_c, 0, 92, 110
2, 195836, Note_on_c, 0, 80, 108
2, 195945, Note_on_c, 0, 58, 73
2, 196042, Note_on_c, 0, 56, 90
2, 196070, Note_on_c, 0, 80, 0
2, 196070, Note_on_c, 0, 92, 0
2, 196076, Note_on_c, 0, 92, 105
2, 196079, Note_on_c, 0, 80, 106
2, 196105, Note_on_c, 0, 90, 54
2, 196146, Note_on_c, 0, 63, 0
2, 196146, Note_on_c, 0, 80, 0
2, 196146, Note_on_c, 0, 82, 0
2, 196147, Note_on_c, 0, 94, 0
2, 196147, Note_on_c, 0, 90, 0
2, 196147, Note_on_c, 0, 51, 0
2, 196147, Note_on_c, 0, 92, 0
2, 196147, Note_on_c, 0, 70, 0
2, 196147, Note_on_c, 0, 58, 0
2, 196149, Control_c, 0, 64, 0
2, 196149, Note_on_c, 0, 56, 0
2, 196162, Note_on_c, 0, 68, 0
2, 196162, Note_on_c, 0, 75, 0
2, 196192, Note_on_c, 0, 39, 97
2, 196194, Note_on_c, 0, 27, 99
2, 196196, Note_on_c, 0, 80, 107
2, 196198, Note_on_c, 0, 34, 85
2, 196200, Note_on_c, 0, 92, 108
2, 196204, Note_on_c, 0, 87, 92
2, 196205, Note_on_c, 0, 82, 97
2, 196239, Control_c, 0, 64, 127
2, 196446, Note_on_c, 0, 34, 0
2, 196446, Note_on_c, 0, 82, 0
2, 196446, Note_on_c, 0, 87, 0
2, 196454, Note_on_c, 0, 87, 98
2, 196454, Note_on_c, 0, 34, 77
2, 196455, Note_on_c, 0, 82, 98
2, 196456, Note_on_c, 0, 46, 82
2, 196456, Note_on_c, 0, 94, 93
2, 196523, Note_on_c, 0, 94, 0
2, 196531, Note_on_c, 0, 94, 94
2, 196584, Note_on_c, 0, 87, 0
2, 196589, Note_on_c, 0, 87, 78
2, 196590, Note_on_c, 0, 83, 69
2, 196638, Note_on_c, 0, 94, 0
2, 196647, Note_on_c, 0, 94, 92
2, 196715, Note_on_c, 0, 82, 0
2, 196715, Note_on_c, 0, 87, 0
2, 196715, Note_on_c, 0, 94, 0
2, 196719, Note_on_c, 0, 82, 81
2, 196720, Note_on_c, 0, 91, 64
2, 196720, Note_on_c, 0, 87, 89
2, 196726, Note_on_c, 0, 94, 77
2, 196769, Note_on_c, 0, 94, 0
2, 196773, Note_on_c, 0, 94, 88
2, 196823, Note_on_c, 0, 39, 0
2, 196827, Note_on_c, 0, 39, 71
2, 196830, Note_on_c, 0, 87, 0
2, 196839, Note_on_c, 0, 87, 92
2, 196892, Note_on_c, 0, 82, 0
2, 196892, Note_on_c, 0, 94, 0
2, 196901, Note_on_c, 0, 94, 90
2, 196903, Note_on_c, 0, 82, 77
2, 196961, Note_on_c, 0, 39, 0
2, 196961, Note_on_c, 0, 87, 0
2, 196966, Note_on_c, 0, 39, 67
2, 196968, Note_on_c, 0, 82, 0
2, 196972, Note_on_c, 0, 87, 85
2, 196974, Note_on_c, 0, 82, 82
2, 197015, Note_on_c, 0, 94, 0
2, 197026, Note_on_c, 0, 94, 77
2, 197091, Note_on_c, 0, 46, 0
2, 197091, Note_on_c, 0, 82, 0
2, 197091, Note_on_c, 0, 87, 0
2, 197091, Note_on_c, 0, 91, 0
2, 197095, Note_on_c, 0, 55, 78
2, 197097, Note_on_c, 0, 87, 88
2, 197097, Note_on_c, 0, 91, 66
2, 197098, Note_on_c, 0, 82, 82
2, 197101, Note_on_c, 0, 46, 71
2, 197101, Note_on_c, 0, 51, 67
2, 197145, Note_on_c, 0, 94, 0
2, 197155, Note_on_c, 0, 94, 88
2, 197207, Note_on_c, 0, 83, 0
2, 197222, Note_on_c, 0, 34, 0
2, 197222, Note_on_c, 0, 39, 0
2, 197222, Note_on_c, 0, 46, 0
2, 197222, Note_on_c, 0, 82, 0
2, 197222, Note_on_c, 0, 87, 0
2, 197222, Note_on_c, 0, 91, 0
2, 197227, Note_on_c, 0, 82, 85
2, 197227, Note_on_c, 0, 91, 72
2, 197228, Note_on_c, 0, 46, 72
2, 197230, Note_on_c, 0, 39, 71
2, 197230, Note_on_c, 0, 34, 73
2, 197233, Note_on_c, 0, 87, 83
2, 197276, Note_on_c, 0, 94, 0
2, 197287, Note_on_c, 0, 94, 81
2, 197322, Note_on_c, 0, 39, 0
2, 197330, Note_on_c, 0, 39, 84
2, 197345, Note_on_c, 0, 87, 0
2, 197353, Note_on_c, 0, 87, 90
2, 197355, Note_on_c, 0, 99, 83
2, 197406, Note_on_c, 0, 94, 0
2, 197410, Note_on_c, 0, 94, 88
2, 197445, Note_on_c, 0, 91, 0
2, 197452, Note_on_c, 0, 39, 0
2, 197453, Note_on_c, 0, 91, 56
2, 197459, Note_on_c, 0, 39, 70
2, 197460, Note_on_c, 0, 46, 0
2, 197471, Note_on_c, 0, 46, 74
2, 197475, Note_on_c, 0, 82, 0
2, 197483, Note_on_c, 0, 87, 0
2, 197487, Note_on_c, 0, 82, 85
2, 197488, Note_on_c, 0, 87, 75
2, 197514, Note_on_c, 0, 99, 0
2, 197537, Note_on_c, 0, 94, 0
2, 197541, Note_on_c, 0, 94, 83
2, 197598, Note_on_c, 0, 55, 0
2, 197598, Note_on_c, 0, 82, 0
2, 197606, Note_on_c, 0, 46, 0
2, 197606, Note_on_c, 0, 51, 0
2, 197606, Note_on_c, 0, 87, 0
2, 197606, Note_on_c, 0, 91, 0
2, 197608, Note_on_c, 0, 82, 85
2, 197610, Note_on_c, 0, 55, 78
2, 197610, Note_on_c, 0, 87, 88
2, 197611, Note_on_c, 0, 91, 67
2, 197613, Note_on_c, 0, 51, 72
2, 197615, Note_on_c, 0, 46, 68
2, 197660, Note_on_c, 0, 94, 0
2, 197666, Note_on_c, 0, 94, 85
2, 197729, Note_on_c, 0, 39, 0
2, 197735, Note_on_c, 0, 39, 69
2, 197736, Note_on_c, 0, 34, 0
2, 197736, Note_on_c, 0, 46, 0
2, 197736, Note_on_c, 0, 82, 0
2, 197736, Note_on_c, 0, 87, 0
2, 197736, Note_on_c, 0, 91, 0
2, 197736, Note_on_c, 0, 94, 0
2, 197740, Note_on_c, 0, 46, 74
2, 197742, Note_on_c, 0, 87, 80
2, 197742, Note_on_c, 0, 91, 62
2, 197743, Note_on_c, 0, 82, 83
2, 197745, Note_on_c, 0, 34, 64
2, 197747, Note_on_c, 0, 94, 75
2, 197798, Note_on_c, 0, 94, 0
2, 197803, Note_on_c, 0, 94, 75
2, 197852, Note_on_c, 0, 39, 0
2, 197859, Note_on_c, 0, 94, 0
2, 197860, Note_on_c, 0, 39, 77
2, 197867, Note_on_c, 0, 82, 0
2, 197867, Note_on_c, 0, 87, 0
2, 197871, Note_on_c, 0, 94, 78
2, 197871, Note_on_c, 0, 87, 81
2, 197874, Note_on_c, 0, 82, 82
2, 197921, Note_on_c, 0, 82, 0
2, 197921, Note_on_c, 0, 94, 0
2, 197925, Note_on_c, 0, 82, 70
2, 197930, Note_on_c, 0, 94, 75
2, 197982, Note_on_c, 0, 46, 0
2, 197990, Note_on_c, 0, 39, 0
2, 197994, Note_on_c, 0, 46, 79
2, 197998, Note_on_c, 0, 87, 0
2, 198001, Note_on_c, 0, 39, 62
2, 198005, Note_on_c, 0, 87, 70
2, 198005, Note_on_c, 0, 82, 0
2, 198013, Note_on_c, 0, 82, 73
2, 198113, Note_on_c, 0, 82, 0
2, 198119, Note_on_c, 0, 82, 79
2, 198120, Note_on_c, 0, 51, 0
2, 198120, Note_on_c, 0, 55, 0
2, 198120, Note_on_c, 0, 87, 0
2, 198120, Note_on_c, 0, 91, 0
2, 198124, Note_on_c, 0, 51, 66
2, 198125, Note_on_c, 0, 55, 72
2, 198126, Note_on_c, 0, 91, 59
2, 198126, Note_on_c, 0, 87, 81
2, 198174, Note_on_c, 0, 94, 0
2, 198186, Note_on_c, 0, 94, 76
2, 198190, Note_on_c, 0, 82, 0
2, 198199, Note_on_c, 0, 82, 56
2, 198205, Note_on_c, 0, 46, 0
2, 198216, Note_on_c, 0, 46, 76
2, 198228, Note_on_c, 0, 39, 0
2, 198236, Note_on_c, 0, 39, 60
2, 198243, Note_on_c, 0, 87, 0
2, 198251, Note_on_c, 0, 87, 70
2, 198251, Note_on_c, 0, 82, 0
2, 198256, Note_on_c, 0, 82, 78
2, 198323, Note_on_c, 0, 80, 0
2, 198323, Note_on_c, 0, 55, 0
2, 198323, Note_on_c, 0, 51, 0
2, 198326, Control_c, 0, 64, 0
2, 198327, Note_on_c, 0, 94, 0
2, 198328, Note_on_c, 0, 27, 0
2, 198328, Note_on_c, 0, 92, 0
2, 198343, Note_on_c, 0, 34, 0
2, 198343, Note_on_c, 0, 46, 0
2, 198351, Note_on_c, 0, 39, 0
2, 198353, Note_on_c, 0, 35, 77
2, 198353, Note_on_c, 0, 47, 79
2, 198354, Note_on_c, 0, 42, 72
2, 198357, Note_on_c, 0, 39, 68
2, 198366, Note_on_c, 0, 82, 0
2, 198366, Note_on_c, 0, 87, 0
2, 198372, Note_on_c, 0, 87, 81
2, 198373, Note_on_c, 0, 82, 79
2, 198382, Note_on_c, 0, 42, 0
2, 198405, Control_c, 0, 64, 127
2, 198412, Note_on_c, 0, 91, 0
2, 198425, Note_on_c, 0, 94, 84
2, 198443, Note_on_c, 0, 39, 0
2, 198489, Note_on_c, 0, 87, 0
2, 198497, Note_on_c, 0, 35, 0
2, 198497, Note_on_c, 0, 82, 0
2, 198500, Note_on_c, 0, 42, 76
2, 198500, Note_on_c, 0, 87, 73
2, 198501, Note_on_c, 0, 82, 73
2, 198501, Note_on_c, 0, 99, 66
2, 198502, Note_on_c, 0, 39, 64
2, 198503, Note_on_c, 0, 35, 71
2, 198543, Note_on_c, 0, 94, 0
2, 198549, Note_on_c, 0, 94, 71
2, 198551, Note_on_c, 0, 47, 0
2, 198604, Note_on_c, 0, 82, 0
2, 198604, Note_on_c, 0, 87, 0
2, 198609, Note_on_c, 0, 82, 81
2, 198611, Note_on_c, 0, 87, 80
2, 198612, Note_on_c, 0, 35, 0
2, 198612, Note_on_c, 0, 39, 0
2, 198612, Note_on_c, 0, 94, 0
2, 198618, Note_on_c, 0, 35, 78
2, 198621, Note_on_c, 0, 94, 76
2, 198622, Note_on_c, 0, 47, 77
2, 198623, Note_on_c, 0, 39, 71
2, 198666, Note_on_c, 0, 94, 0
2, 198670, Note_on_c, 0, 94, 83
2, 198735, Note_on_c, 0, 42, 0
2, 198743, Note_on_c, 0, 35, 0
2, 198743, Note_on_c, 0, 82, 0
2, 198743, Note_on_c, 0, 87, 0
2, 198744, Note_on_c, 0, 42, 72
2, 198749, Note_on_c, 0, 87, 74
2, 198750, Note_on_c, 0, 39, 0
2, 198751, Note_on_c, 0, 35, 73
2, 198753, Note_on_c, 0, 82, 85
2, 198755, Note_on_c, 0, 39, 72
2, 198781, Note_on_c, 0, 94, 0
2, 198788, Note_on_c, 0, 94, 81
2, 198842, Control_c, 0, 64, 0
2, 198842, Note_on_c, 0, 35, 0
2, 198842, Note_on_c, 0, 47, 0
2, 198846, Note_on_c, 0, 82, 0
2, 198850, Note_on_c, 0, 39, 0
2, 198850, Note_on_c, 0, 35, 74
2, 198852, Note_on_c, 0, 47, 75
2, 198858, Note_on_c, 0, 87, 0
2, 198858, Note_on_c, 0, 94, 0
2, 198859, Note_on_c, 0, 39, 61
2, 198862, Note_on_c, 0, 87, 84
2, 198868, Note_on_c, 0, 94, 69
2, 198904, Note_on_c, 0, 94, 0
2, 198915, Note_on_c, 0, 94, 68
2, 198935, Control_c, 0, 64, 127
2, 198958, Note_on_c, 0, 99, 0
2, 198965, Note_on_c, 0, 35, 0
2, 198965, Note_on_c, 0, 39, 0
2, 198965, Note_on_c, 0, 42, 0
2, 198975, Note_on_c, 0, 42, 73
2, 198975, Note_on_c, 0, 35, 69
2, 198988, Note_on_c, 0, 87, 0
2, 198988, Note_on_c, 0, 94, 0
2, 198997, Note_on_c, 0, 94, 66
2, 199000, Note_on_c, 0, 87, 64
2, 199000, Note_on_c, 0, 82, 78
2, 199019, Note_on_c, 0, 47, 0
2, 199042, Note_on_c, 0, 94, 0
2, 199053, Note_on_c, 0, 94, 72
2, 199104, Note_on_c, 0, 82, 0
2, 199111, Note_on_c, 0, 87, 0
2, 199111, Note_on_c, 0, 94, 0
2, 199113, Note_on_c, 0, 51, 74
2, 199113, Note_on_c, 0, 82, 85
2, 199115, Note_on_c, 0, 39, 66
2, 199116, Note_on_c, 0, 47, 69
2, 199117, Note_on_c, 0, 87, 83
2, 199121, Note_on_c, 0, 94, 74
2, 199165, Note_on_c, 0, 94, 0
2, 199176, Note_on_c, 0, 94, 84
2, 199234, Note_on_c, 0, 42, 0
2, 199242, Note_on_c, 0, 39, 0
2, 199242, Note_on_c, 0, 87, 0
2, 199245, Note_on_c, 0, 42, 70
2, 199246, Note_on_c, 0, 87, 72
2, 199247, Note_on_c, 0, 39, 55
2, 199296, Note_on_c, 0, 94, 0
2, 199299, Note_on_c, 0, 94, 75
2, 199347, Control_c, 0, 64, 0
2, 199351, Note_on_c, 0, 42, 0
2, 199352, Note_on_c, 0, 51, 0
2, 199353, Note_on_c, 0, 47, 0
2, 199355, Note_on_c, 0, 35, 0
2, 199357, Note_on_c, 0, 37, 82
2, 199357, Note_on_c, 0, 82, 0
2, 199357, Note_on_c, 0, 94, 0
2, 199362, Note_on_c, 0, 94, 81
2, 199365, Note_on_c, 0, 87, 0
2, 199365, Note_on_c, 0, 82, 86
2, 199369, Note_on_c, 0, 87, 78
2, 199418, Note_on_c, 0, 39, 0
2, 199426, Note_on_c, 0, 94, 0
2, 199426, Control_c, 0, 64, 127
2, 199430, Note_on_c, 0, 94, 76
2, 199474, Note_on_c, 0, 44, 70
2, 199480, Note_on_c, 0, 32, 66
2, 199488, Note_on_c, 0, 32, 0
2, 199495, Note_on_c, 0, 87, 0
2, 199503, Note_on_c, 0, 82, 0
2, 199504, Note_on_c, 0, 87, 75
2, 199511, Note_on_c, 0, 82, 70
2, 199549, Note_on_c, 0, 94, 0
2, 199558, Note_on_c, 0, 94, 83
2, 199610, Note_on_c, 0, 37, 0
2, 199610, Note_on_c, 0, 82, 0
2, 199614, Note_on_c, 0, 37, 77
2, 199614, Note_on_c, 0, 53, 88
2, 199616, Note_on_c, 0, 82, 89
2, 199618, Note_on_c, 0, 87, 0
2, 199620, Note_on_c, 0, 49, 78
2, 199622, Note_on_c, 0, 87, 81
2, 199626, Note_on_c, 0, 49, 0
2, 199672, Note_on_c, 0, 94, 0
2, 199682, Note_on_c, 0, 94, 86
2, 199733, Note_on_c, 0, 44, 0
2, 199741, Note_on_c, 0, 37, 0
2, 199741, Note_on_c, 0, 44, 80
2, 199750, Note_on_c, 0, 37, 74
2, 199795, Note_on_c, 0, 94, 0
2, 199804, Note_on_c, 0, 94, 79
2, 199848, Control_c, 0, 64, 0
2, 199848, Note_on_c, 0, 82, 0
2, 199848, Note_on_c, 0, 87, 0
2, 199854, Note_on_c, 0, 87, 67
2, 199856, Note_on_c, 0, 82, 85
2, 199856, Note_on_c, 0, 37, 0
2, 199856, Note_on_c, 0, 94, 0
2, 199861, Note_on_c, 0, 37, 77
2, 199864, Note_on_c, 0, 94, 82
2, 199887, Control_c, 0, 64, 127
2, 199910, Note_on_c, 0, 94, 0
2, 199919, Note_on_c, 0, 94, 83
2, 199964, Note_on_c, 0, 44, 0
2, 199975, Note_on_c, 0, 44, 69
2, 199979, Note_on_c, 0, 87, 0
2, 199983, Note_on_c, 0, 87, 62
2, 200071, Note_on_c, 0, 82, 0
2, 200071, Note_on_c, 0, 87, 0
2, 200078, Note_on_c, 0, 87, 79
2, 200083, Note_on_c, 0, 82, 79
2, 200087, Note_on_c, 0, 37, 0
2, 200094, Note_on_c, 0, 53, 0
2, 200098, Note_on_c, 0, 37, 74
2, 200101, Note_on_c, 0, 53, 87
2, 200108, Note_on_c, 0, 49, 67
2, 200179, Note_on_c, 0, 44, 0
2, 200179, Note_on_c, 0, 87, 0
2, 200184, Note_on_c, 0, 87, 74
2, 200189, Note_on_c, 0, 44, 67
2, 200286, Note_on_c, 0, 49, 0
2, 200293, Note_on_c, 0, 94, 0
2, 200295, Note_on_c, 0, 53, 0
2, 200295, Note_on_c, 0, 37, 0
2, 200296, Note_on_c, 0, 87, 0
2, 200297, Note_on_c, 0, 44, 0
2, 200299, Control_c, 0, 64, 0
2, 200309, Note_on_c, 0, 82, 0
2, 200333, Note_on_c, 0, 99, 102
2, 200337, Note_on_c, 0, 39, 97
2, 200337, Note_on_c, 0, 51, 84
2, 200378, Control_c, 0, 64, 127
2, 200399, Note_on_c, 0, 94, 81
2, 200409, Note_on_c, 0, 51, 0
2, 200455, Note_on_c, 0, 87, 87
2, 200459, Note_on_c, 0, 51, 73
2, 200471, Note_on_c, 0, 39, 0
2, 200476, Note_on_c, 0, 39, 63
2, 200540, Note_on_c, 0, 87, 0
2, 200550, Note_on_c, 0, 87, 67
2, 200593, Note_on_c, 0, 51, 0
2, 200599, Note_on_c, 0, 63, 85
2, 200601, Note_on_c, 0, 51, 70
2, 200609, Note_on_c, 0, 99, 0
2, 200612, Note_on_c, 0, 58, 69
2, 200616, Note_on_c, 0, 87, 0
2, 200619, Note_on_c, 0, 99, 68
2, 200619, Note_on_c, 0, 55, 56
2, 200626, Note_on_c, 0, 87, 66
2, 200701, Note_on_c, 0, 51, 0
2, 200701, Note_on_c, 0, 87, 0
2, 200709, Note_on_c, 0, 39, 0
2, 200710, Note_on_c, 0, 87, 76
2, 200711, Note_on_c, 0, 51, 77
2, 200716, Note_on_c, 0, 39, 61
2, 200770, Note_on_c, 0, 94, 0
2, 200774, Note_on_c, 0, 94, 62
2, 200818, Note_on_c, 0, 58, 0
2, 200819, Note_on_c, 0, 51, 0
2, 200819, Note_on_c, 0, 55, 0
2, 200819, Note_on_c, 0, 63, 0
2, 200820, Control_c, 0, 64, 0
2, 200824, Note_on_c, 0, 87, 0
2, 200832, Note_on_c, 0, 99, 0
2, 200833, Note_on_c, 0, 87, 84
2, 200836, Note_on_c, 0, 99, 98
2, 200839, Note_on_c, 0, 39, 0
2, 200845, Note_on_c, 0, 39, 90
2, 200876, Note_on_c, 0, 85, 56
2, 200885, Note_on_c, 0, 85, 0
2, 200885, Control_c, 0, 64, 127
2, 200901, Note_on_c, 0, 87, 0
2, 200908, Note_on_c, 0, 94, 0
2, 200915, Note_on_c, 0, 94, 81
2, 200962, Note_on_c, 0, 39, 0
2, 200966, Note_on_c, 0, 87, 81
2, 200966, Note_on_c, 0, 39, 70
2, 201100, Note_on_c, 0, 99, 0
2, 201106, Note_on_c, 0, 63, 90
2, 201111, Note_on_c, 0, 58, 81
2, 201112, Note_on_c, 0, 99, 77
2, 201114, Note_on_c, 0, 55, 73
2, 201200, Note_on_c, 0, 87, 0
2, 201200, Note_on_c, 0, 99, 0
2, 201202, Note_on_c, 0, 82, 78
2, 201206, Note_on_c, 0, 99, 76
2, 201208, Note_on_c, 0, 82, 0
2, 201208, Note_on_c, 0, 87, 86
2, 201215, Note_on_c, 0, 51, 73
2, 201269, Note_on_c, 0, 87, 0
2, 201269, Note_on_c, 0, 99, 0
2, 201278, Note_on_c, 0, 87, 74
2, 201280, Note_on_c, 0, 99, 66
2, 201315, Note_on_c, 0, 94, 0
2, 201321, Note_on_c, 0, 94, 74
2, 201336, Note_on_c, 0, 58, 0
2, 201338, Note_on_c, 0, 55, 0
2, 201340, Note_on_c, 0, 51, 0
2, 201340, Note_on_c, 0, 63, 0
2, 201343, Control_c, 0, 64, 0
2, 201346, Note_on_c, 0, 39, 0
2, 201346, Note_on_c, 0, 87, 0
2, 201346, Note_on_c, 0, 99, 0
2, 201357, Note_on_c, 0, 39, 89
2, 201357, Note_on_c, 0, 99, 96
2, 201357, Note_on_c, 0, 87, 86
2, 201400, Control_c, 0, 64, 127
2, 201415, Note_on_c, 0, 94, 0
2, 201419, Note_on_c, 0, 94, 73
2, 201469, Note_on_c, 0, 39, 0
2, 201469, Note_on_c, 0, 87, 0
2, 201475, Note_on_c, 0, 39, 69
2, 201477, Note_on_c, 0, 87, 77
2, 201585, Note_on_c, 0, 82, 83
2, 201611, Note_on_c, 0, 63, 82
2, 201619, Note_on_c, 0, 58, 73
2, 201627, Note_on_c, 0, 56, 72
2, 201634, Note_on_c, 0, 64, 73
2, 201722, Note_on_c, 0, 87, 0
2, 201722, Note_on_c, 0, 99, 0
2, 201727, Note_on_c, 0, 51, 71
2, 201727, Note_on_c, 0, 99, 75
2, 201733, Note_on_c, 0, 87, 82
2, 201762, Note_on_c, 0, 97, 52
2, 201769, Note_on_c, 0, 88, 61
2, 201792, Note_on_c, 0, 87, 0
2, 201803, Note_on_c, 0, 87, 78
2, 201822, Note_on_c, 0, 94, 0
2, 201832, Note_on_c, 0, 94, 70
2, 201845, Note_on_c, 0, 97, 0
2, 201845, Note_on_c, 0, 56, 0
2, 201846, Note_on_c, 0, 88, 0
2, 201847, Note_on_c, 0, 58, 0
2, 201848, Note_on_c, 0, 51, 0
2, 201848, Note_on_c, 0, 82, 0
2, 201848, Note_on_c, 0, 63, 0
2, 201848, Note_on_c, 0, 64, 0
2, 201849, Control_c, 0, 64, 0
2, 201853, Note_on_c, 0, 87, 0
2, 201861, Note_on_c, 0, 39, 0
2, 201861, Note_on_c, 0, 99, 0
2, 201862, Note_on_c, 0, 87, 90
2, 201869, Note_on_c, 0, 39, 98
2, 201869, Note_on_c, 0, 99, 98
2, 201899, Note_on_c, 0, 87, 0
2, 201899, Control_c, 0, 64, 127
2, 201930, Note_on_c, 0, 94, 0
2, 201935, Note_on_c, 0, 94, 75
2, 201953, Note_on_c, 0, 99, 0
2, 201962, Note_on_c, 0, 99, 70
2, 201984, Note_on_c, 0, 99, 0
2, 201988, Note_on_c, 0, 99, 77
2, 201988, Note_on_c, 0, 87, 81
2, 202060, Note_on_c, 0, 99, 0
2, 202072, Note_on_c, 0, 99, 59
2, 202122, Note_on_c, 0, 99, 0
2, 202125, Note_on_c, 0, 51, 78
2, 202127, Note_on_c, 0, 63, 93
2, 202133, Note_on_c, 0, 99, 78
2, 202134, Note_on_c, 0, 58, 80
2, 202135, Note_on_c, 0, 55, 79
2, 202206, Note_on_c, 0, 87, 0
2, 202214, Note_on_c, 0, 51, 0
2, 202214, Note_on_c, 0, 99, 0
2, 202217, Note_on_c, 0, 87, 90
2, 202219, Note_on_c, 0, 99, 76
2, 202220, Note_on_c, 0, 51, 77
2, 202342, Note_on_c, 0, 58, 0
2, 202343, Note_on_c, 0, 55, 0
2, 202343, Control_c, 0, 64, 0
2, 202343, Note_on_c, 0, 63, 0
2, 202343, Note_on_c, 0, 51, 0
2, 202347, Note_on_c, 0, 39, 0
2, 202360, Note_on_c, 0, 87, 0
2, 202360, Note_on_c, 0, 99, 0
2, 202368, Note_on_c, 0, 94, 0
2, 202371, Note_on_c, 0, 99, 100
2, 202380, Note_on_c, 0, 35, 74
2, 202398, Control_c, 0, 64, 127
2, 202434, Note_on_c, 0, 94, 92
2, 202484, Note_on_c, 0, 87, 84
2, 202487, Note_on_c, 0, 47, 79
2, 202529, Note_on_c, 0, 99, 0
2, 202539, Note_on_c, 0, 99, 62
2, 202621, Note_on_c, 0, 99, 0
2, 202625, Note_on_c, 0, 59, 86
2, 202628, Note_on_c, 0, 54, 83
2, 202630, Note_on_c, 0, 99, 81
2, 202671, Note_on_c, 0, 51, 48
2, 202744, Note_on_c, 0, 47, 0
2, 202744, Note_on_c, 0, 87, 0
2, 202748, Note_on_c, 0, 87, 87
2, 202752, Note_on_c, 0, 99, 0
2, 202754, Note_on_c, 0, 47, 74
2, 202756, Note_on_c, 0, 99, 72
2, 202836, Note_on_c, 0, 94, 0
2, 202844, Note_on_c, 0, 94, 86
2, 202851, Note_on_c, 0, 47, 0
2, 202854, Control_c, 0, 64, 0
2, 202856, Note_on_c, 0, 47, 90
2, 202856, Note_on_c, 0, 59, 0
2, 202856, Note_on_c, 0, 51, 0
2, 202857, Note_on_c, 0, 54, 0
2, 202867, Note_on_c, 0, 99, 0
2, 202872, Note_on_c, 0, 99, 101
2, 202874, Note_on_c, 0, 35, 0
2, 202880, Note_on_c, 0, 35, 79
2, 202905, Control_c, 0, 64, 127
2, 202944, Note_on_c, 0, 94, 0
2, 202950, Note_on_c, 0, 94, 79
2, 202982, Note_on_c, 0, 35, 0
2, 202982, Note_on_c, 0, 47, 0
2, 202989, Note_on_c, 0, 35, 73
2, 202989, Note_on_c, 0, 47, 77
2, 202990, Note_on_c, 0, 87, 0
2, 202990, Note_on_c, 0, 99, 0
2, 202994, Note_on_c, 0, 99, 75
2, 202998, Note_on_c, 0, 87, 82
2, 203097, Note_on_c, 0, 87, 0
2, 203108, Note_on_c, 0, 87, 72
2, 203120, Note_on_c, 0, 47, 0
2, 203128, Note_on_c, 0, 99, 0
2, 203129, Note_on_c, 0, 47, 77
2, 203131, Note_on_c, 0, 59, 78
2, 203134, Note_on_c, 0, 54, 77
2, 203134, Note_on_c, 0, 63, 70
2, 203134, Note_on_c, 0, 99, 69
2, 203140, Note_on_c, 0, 57, 76
2, 203220, Note_on_c, 0, 94, 0
2, 203229, Note_on_c, 0, 94, 70
2, 203235, Note_on_c, 0, 99, 0
2, 203239, Note_on_c, 0, 39, 65
2, 203243, Note_on_c, 0, 87, 0
2, 203247, Note_on_c, 0, 99, 82
2, 203247, Note_on_c, 0, 87, 86
2, 203352, Control_c, 0, 64, 0
2, 203354, Note_on_c, 0, 35, 0
2, 203354, Note_on_c, 0, 57, 0
2, 203354, Note_on_c, 0, 54, 0
2, 203357, Note_on_c, 0, 59, 0
2, 203366, Note_on_c, 0, 47, 0
2, 203366, Note_on_c, 0, 63, 0
2, 203366, Note_on_c, 0, 94, 0
2, 203370, Note_on_c, 0, 94, 88
2, 203374, Note_on_c, 0, 87, 0
2, 203374, Note_on_c, 0, 99, 0
2, 203377, Note_on_c, 0, 47, 86
2, 203378, Note_on_c, 0, 99, 100
2, 203379, Note_on_c, 0, 37, 86
2, 203380, Note_on_c, 0, 87, 79
2, 203420, Control_c, 0, 64, 127
2, 203427, Note_on_c, 0, 47, 0
2, 203435, Note_on_c, 0, 94, 0
2, 203441, Note_on_c, 0, 94, 78
2, 203481, Note_on_c, 0, 37, 0
2, 203489, Note_on_c, 0, 87, 0
2, 203492, Note_on_c, 0, 37, 81
2, 203493, Note_on_c, 0, 49, 80
2, 203493, Note_on_c, 0, 87, 78
2, 203566, Note_on_c, 0, 94, 0
2, 203576, Note_on_c, 0, 94, 59
2, 203627, Note_on_c, 0, 94, 0
2, 203629, Note_on_c, 0, 82, 83
2, 203631, Note_on_c, 0, 56, 80
2, 203632, Note_on_c, 0, 94, 65
2, 203635, Note_on_c, 0, 49, 0
2, 203637, Note_on_c, 0, 61, 85
2, 203639, Note_on_c, 0, 49, 78
2, 203719, Note_on_c, 0, 82, 0
2, 203727, Note_on_c, 0, 49, 0
2, 203727, Note_on_c, 0, 87, 0
2, 203727, Note_on_c, 0, 94, 0
2, 203727, Note_on_c, 0, 99, 0
2, 203728, Note_on_c, 0, 82, 81
2, 203731, Note_on_c, 0, 94, 71
2, 203731, Note_on_c, 0, 49, 76
2, 203731, Note_on_c, 0, 87, 86
2, 203733, Note_on_c, 0, 99, 76
2, 203735, Note_on_c, 0, 37, 0
2, 203739, Note_on_c, 0, 37, 69
2, 203811, Note_on_c, 0, 94, 0
2, 203817, Note_on_c, 0, 94, 61
2, 203855, Note_on_c, 0, 61, 0
2, 203857, Note_on_c, 0, 56, 0
2, 203861, Control_c, 0, 64, 0
2, 203865, Note_on_c, 0, 37, 0
2, 203865, Note_on_c, 0, 99, 0
2, 203873, Note_on_c, 0, 87, 0
2, 203873, Note_on_c, 0, 94, 0
2, 203876, Note_on_c, 0, 37, 86
2, 203876, Note_on_c, 0, 99, 102
2, 203878, Note_on_c, 0, 94, 83
2, 203878, Note_on_c, 0, 87, 78
2, 203885, Note_on_c, 0, 97, 72
2, 203888, Note_on_c, 0, 82, 0
2, 203919, Control_c, 0, 64, 127
2, 203927, Note_on_c, 0, 39, 0
2, 203973, Note_on_c, 0, 87, 0
2, 203973, Note_on_c, 0, 99, 0
2, 203979, Note_on_c, 0, 87, 79
2, 203982, Note_on_c, 0, 99, 68
2, 203988, Note_on_c, 0, 37, 0
2, 203988, Note_on_c, 0, 49, 0
2, 203994, Note_on_c, 0, 49, 83
2, 203995, Note_on_c, 0, 37, 79
2, 204080, Note_on_c, 0, 87, 0
2, 204085, Note_on_c, 0, 87, 73
2, 204119, Note_on_c, 0, 49, 0
2, 204122, Note_on_c, 0, 75, 89
2, 204126, Note_on_c, 0, 61, 85
2, 204127, Note_on_c, 0, 56, 81
2, 204130, Note_on_c, 0, 49, 80
2, 204136, Note_on_c, 0, 53, 72
2, 204188, Note_on_c, 0, 49, 0
2, 204188, Note_on_c, 0, 87, 0
2, 204193, Note_on_c, 0, 82, 90
2, 204198, Note_on_c, 0, 87, 84
2, 204199, Note_on_c, 0, 49, 84
2, 204305, Control_c, 0, 64, 0
2, 204307, Note_on_c, 0, 99, 0
2, 204307, Note_on_c, 0, 87, 0
2, 204307, Note_on_c, 0, 37, 0
2, 204307, Note_on_c, 0, 49, 0
2, 204307, Note_on_c, 0, 56, 0
2, 204308, Note_on_c, 0, 82, 0
2, 204308, Note_on_c, 0, 61, 0
2, 204308, Note_on_c, 0, 75, 0
2, 204318, Note_on_c, 0, 94, 0
2, 204318, Note_on_c, 0, 97, 0
2, 204326, Note_on_c, 0, 53, 0
2, 204375, Note_on_c, 0, 99, 109
2, 204382, Note_on_c, 0, 87, 108
2, 204385, Note_on_c, 0, 91, 87
2, 204385, Note_on_c, 0, 51, 100
2, 204386, Note_on_c, 0, 39, 97
2, 204392, Note_on_c, 0, 97, 74
2, 204403, Control_c, 0, 64, 127
2, 204771, Note_on_c, 0, 87, 0
2, 204776, Note_on_c, 0, 87, 102
2, 204776, Note_on_c, 0, 75, 104
2, 204777, Note_on_c, 0, 82, 100
2, 204782, Note_on_c, 0, 67, 96
2, 204783, Note_on_c, 0, 63, 90
2, 204788, Note_on_c, 0, 58, 91
2, 204790, Note_on_c, 0, 61, 79
2, 205079, Note_on_c, 0, 91, 0
2, 205155, Note_on_c, 0, 27, 84
2, 205255, Note_on_c, 0, 97, 0
2, 205286, Note_on_c, 0, 63, 0
2, 205286, Note_on_c, 0, 67, 0
2, 205286, Note_on_c, 0, 75, 0
2, 205291, Note_on_c, 0, 75, 105
2, 205292, Note_on_c, 0, 63, 98
2, 205293, Note_on_c, 0, 55, 100
2, 205294, Note_on_c, 0, 67, 100
2, 205297, Note_on_c, 0, 70, 100
2, 205298, Note_on_c, 0, 46, 96
2, 205440, Note_on_c, 0, 99, 0
2, 206446, Note_on_c, 0, 51, 0
2, 206456, Note_on_c, 0, 51, 75
2, 206492, Note_on_c, 0, 39, 0
2, 206497, Note_on_c, 0, 39, 74
2, 206576, Note_on_c, 0, 27, 0
2, 206586, Note_on_c, 0, 27, 91
2, 206619, Note_on_c, 0, 39, 0
2, 206624, Note_on_c, 0, 82, 0
2, 206626, Note_on_c, 0, 87, 0
2, 206626, Note_on_c, 0, 75, 0
2, 206628, Note_on_c, 0, 55, 0
2, 206630, Note_on_c, 0, 67, 0
2, 206632, Note_on_c, 0, 63, 0
2, 206639, Note_on_c, 0, 61, 0
2, 206649, Control_c, 0, 64, 0
2, 206653, Note_on_c, 0, 51, 0
2, 206653, Note_on_c, 0, 58, 0
2, 206668, Note_on_c, 0, 46, 0
2, 206737, Note_on_c, 0, 27, 0
2, 208465, Note_on_c, 0, 70, 0
2, 208466, End_track
0, 0, End_of_file
