0, 0, Header, 1, 2, 384
1, 0, Start_track
1, 0, Tempo, 500000
1, 0, Time_signature, 4, 2, 24, 8
1, 1, End_track
2, 0, Start_track
2, 1205, Control_c, 0, 64, 127
2, 1402, Note_on_c, 0, 48, 53
2, 1630, Note_on_c, 0, 55, 66
2, 1770, Note_on_c, 0, 60, 71
2, 1862, Note_on_c, 0, 62, 76
2, 1945, Note_on_c, 0, 64, 77
2, 2022, Note_on_c, 0, 67, 75
2, 2094, Note_on_c, 0, 72, 86
2, 2170, Note_on_c, 0, 74, 86
2, 2215, Note_on_c, 0, 76, 82
2, 2293, Note_on_c, 0, 79, 82
2, 2365, Note_on_c, 0, 84, 90
2, 2461, Note_on_c, 0, 86, 88
2, 2571, Note_on_c, 0, 88, 95
2, 3678, Note_on_c, 0, 86, 0
2, 3682, Note_on_c, 0, 86, 78
2, 3763, Note_on_c, 0, 88, 0
2, 3771, Note_on_c, 0, 88, 77
2, 3878, Note_on_c, 0, 86, 0
2, 3885, Note_on_c, 0, 86, 82
2, 4024, Note_on_c, 0, 79, 0
2, 4032, Note_on_c, 0, 74, 0
2, 4035, Note_on_c, 0, 83, 79
2, 4035, Note_on_c, 0, 79, 77
2, 4036, Note_on_c, 0, 52, 45
2, 4043, Note_on_c, 0, 74, 56
2, 4043, Control_c, 0, 64, 0
2, 4043, Note_on_c, 0, 88, 0
2, 4044, Note_on_c, 0, 76, 0
2, 4045, Note_on_c, 0, 86, 0
2, 4045, Note_on_c, 0, 60, 0
2, 4046, Note_on_c, 0, 72, 0
2, 4047, Note_on_c, 0, 62, 0
2, 4047, Note_on_c, 0, 64, 0
2, 4048, Note_on_c, 0, 55, 0
2, 4048, Note_on_c, 0, 84, 0
2, 4048, Note_on_c, 0, 48, 0
2, 4058, Note_on_c, 0, 59, 52
2, 4462, Control_c, 0, 64, 127
2, 6472, Note_on_c, 0, 43, 56
2, 6492, Note_on_c, 0, 59, 0
2, 6492, Control_c, 0, 64, 0
2, 6493, Note_on_c, 0, 52, 0
2, 6504, Note_on_c, 0, 67, 0
2, 6504, Note_on_c, 0, 74, 0
2, 6504, Note_on_c, 0, 83, 0
2, 6512, Note_on_c, 0, 79, 0
2, 6566, Control_c, 0, 64, 127
2, 6652, Note_on_c, 0, 50, 64
2, 6771, Note_on_c, 0, 55, 63
2, 6864, Note_on_c, 0, 57, 70
2, 6932, Note_on_c, 0, 59, 74
2, 6994, Note_on_c, 0, 62, 81
2, 7064, Note_on_c, 0, 67, 82
2, 7132, Note_on_c, 0, 69, 80
2, 7183, Note_on_c, 0, 71, 82
2, 7250, Note_on_c, 0, 74, 88
2, 7329, Note_on_c, 0, 79, 90
2, 7379, Note_on_c, 0, 81, 79
2, 7440, Note_on_c, 0, 83, 88
2, 7529, Note_on_c, 0, 86, 94
2, 8655, Note_on_c, 0, 83, 0
2, 8661, Note_on_c, 0, 83, 81
2, 8747, Note_on_c, 0, 86, 0
2, 8757, Note_on_c, 0, 86, 80
2, 8839, Note_on_c, 0, 83, 0
2, 8847, Note_on_c, 0, 83, 85
2, 8962, Note_on_c, 0, 81, 0
2, 8974, Note_on_c, 0, 81, 81
2, 8985, Note_on_c, 0, 74, 0
2, 8993, Note_on_c, 0, 57, 0
2, 8994, Note_on_c, 0, 69, 0
2, 8994, Note_on_c, 0, 86, 0
2, 8995, Note_on_c, 0, 59, 0
2, 8995, Note_on_c, 0, 71, 0
2, 8995, Note_on_c, 0, 83, 0
2, 8995, Note_on_c, 0, 50, 0
2, 8995, Note_on_c, 0, 55, 0
2, 8995, Note_on_c, 0, 79, 0
2, 8996, Note_on_c, 0, 67, 0
2, 8996, Note_on_c, 0, 74, 61
2, 8996, Control_c, 0, 64, 0
2, 8996, Note_on_c, 0, 78, 69
2, 9000, Note_on_c, 0, 43, 0
2, 9003, Note_on_c, 0, 57, 59
2, 9004, Note_on_c, 0, 66, 59
2, 9308, Control_c, 0, 64, 127
2, 10608, Note_on_c, 0, 79, 73
2, 10608, Note_on_c, 0, 71, 54
2, 11120, Note_on_c, 0, 78, 0
2, 11131, Note_on_c, 0, 78, 79
2, 11152, Note_on_c, 0, 69, 60
2, 11550, Note_on_c, 0, 74, 0
2, 11558, Note_on_c, 0, 66, 0
2, 11561, Note_on_c, 0, 74, 71
2, 11563, Note_on_c, 0, 66, 65
2, 11604, Note_on_c, 0, 62, 0
2, 12119, Note_on_c, 0, 69, 0
2, 12123, Note_on_c, 0, 69, 63
2, 12164, Note_on_c, 0, 62, 52
2, 12803, Note_on_c, 0, 48, 48
2, 12898, Note_on_c, 0, 55, 57
2, 12971, Note_on_c, 0, 62, 0
2, 12979, Note_on_c, 0, 62, 59
2, 13056, Note_on_c, 0, 64, 66
2, 13081, Control_c, 0, 64, 0
2, 13129, Note_on_c, 0, 67, 63
2, 13132, Note_on_c, 0, 81, 0
2, 13136, Note_on_c, 0, 69, 0
2, 13142, Note_on_c, 0, 79, 0
2, 13178, Note_on_c, 0, 66, 0
2, 13178, Note_on_c, 0, 71, 0
2, 13186, Note_on_c, 0, 71, 69
2, 13201, Note_on_c, 0, 78, 0
2, 13286, Note_on_c, 0, 57, 0
2, 13286, Note_on_c, 0, 74, 0
2, 13312, Note_on_c, 0, 76, 64
2, 13854, Control_c, 0, 64, 127
2, 17280, Note_on_c, 0, 48, 0
2, 17280, Note_on_c, 0, 55, 0
2, 17280, Note_on_c, 0, 62, 0
2, 17280, Note_on_c, 0, 64, 0
2, 17280, Note_on_c, 0, 67, 0
2, 17280, Note_on_c, 0, 71, 0
2, 17280, Note_on_c, 0, 76, 0
2, 17831, Note_on_c, 0, 62, 66
2, 18028, Note_on_c, 0, 62, 0
2, 18040, Note_on_c, 0, 64, 75
2, 18051, Control_c, 0, 64, 0
2, 18051, Note_on_c, 0, 48, 48
2, 18058, Note_on_c, 0, 60, 52
2, 18059, Note_on_c, 0, 55, 49
2, 18394, Note_on_c, 0, 62, 68
2, 18411, Note_on_c, 0, 64, 0
2, 18501, Control_c, 0, 64, 127
2, 18576, Note_on_c, 0, 64, 72
2, 18928, Note_on_c, 0, 67, 76
2, 19290, Note_on_c, 0, 66, 76
2, 19462, Note_on_c, 0, 60, 0
2, 19464, Note_on_c, 0, 64, 0
2, 19464, Note_on_c, 0, 62, 0
2, 19464, Control_c, 0, 64, 0
2, 19464, Note_on_c, 0, 55, 0
2, 19464, Note_on_c, 0, 67, 0
2, 19464, Note_on_c, 0, 48, 0
2, 19482, Note_on_c, 0, 57, 52
2, 19487, Note_on_c, 0, 50, 41
2, 19647, Note_on_c, 0, 64, 66
2, 19760, Control_c, 0, 64, 127
2, 19827, Note_on_c, 0, 62, 73
2, 20190, Note_on_c, 0, 59, 70
2, 20528, Note_on_c, 0, 62, 0
2, 20538, Note_on_c, 0, 62, 69
2, 20705, Note_on_c, 0, 62, 0
2, 20709, Note_on_c, 0, 62, 71
2, 20889, Note_on_c, 0, 62, 0
2, 20896, Note_on_c, 0, 62, 73
2, 20920, Note_on_c, 0, 57, 0
2, 20929, Note_on_c, 0, 57, 50
2, 20932, Control_c, 0, 64, 0
2, 20936, Note_on_c, 0, 52, 42
2, 20941, Note_on_c, 0, 66, 0
2, 20941, Note_on_c, 0, 64, 0
2, 20941, Note_on_c, 0, 50, 0
2, 20943, Note_on_c, 0, 59, 0
2, 21212, Control_c, 0, 64, 127
2, 21440, Note_on_c, 0, 64, 72
2, 21982, Note_on_c, 0, 59, 59
2, 21983, Note_on_c, 0, 55, 46
2, 21999, Control_c, 0, 64, 0
2, 22010, Note_on_c, 0, 57, 0
2, 22010, Note_on_c, 0, 62, 0
2, 22241, Control_c, 0, 64, 127
2, 23721, Note_on_c, 0, 62, 67
2, 23731, Note_on_c, 0, 59, 0
2, 23731, Note_on_c, 0, 64, 0
2, 23738, Note_on_c, 0, 59, 30
2, 23923, Note_on_c, 0, 55, 0
2, 23928, Note_on_c, 0, 64, 70
2, 23929, Note_on_c, 0, 60, 59
2, 23934, Note_on_c, 0, 55, 52
2, 23936, Note_on_c, 0, 48, 47
2, 23937, Note_on_c, 0, 62, 0
2, 23939, Control_c, 0, 64, 0
2, 23940, Note_on_c, 0, 59, 0
2, 23953, Note_on_c, 0, 52, 0
2, 24115, Control_c, 0, 64, 127
2, 24277, Note_on_c, 0, 62, 72
2, 24453, Note_on_c, 0, 64, 0
2, 24458, Note_on_c, 0, 64, 76
2, 24819, Note_on_c, 0, 67, 79
2, 25177, Note_on_c, 0, 66, 80
2, 25354, Note_on_c, 0, 57, 60
2, 25363, Note_on_c, 0, 60, 0
2, 25364, Control_c, 0, 64, 0
2, 25366, Note_on_c, 0, 64, 0
2, 25366, Note_on_c, 0, 62, 0
2, 25367, Note_on_c, 0, 48, 0
2, 25367, Note_on_c, 0, 67, 0
2, 25379, Note_on_c, 0, 50, 41
2, 25382, Note_on_c, 0, 55, 0
2, 25525, Note_on_c, 0, 64, 68
2, 25559, Control_c, 0, 64, 127
2, 25704, Note_on_c, 0, 62, 76
2, 26067, Note_on_c, 0, 59, 73
2, 26409, Note_on_c, 0, 71, 72
2, 26572, Note_on_c, 0, 71, 0
2, 26583, Note_on_c, 0, 71, 67
2, 26764, Note_on_c, 0, 71, 0
2, 26775, Note_on_c, 0, 71, 70
2, 26787, Note_on_c, 0, 57, 0
2, 26787, Note_on_c, 0, 62, 0
2, 26792, Note_on_c, 0, 57, 51
2, 26792, Control_c, 0, 64, 0
2, 26792, Note_on_c, 0, 52, 52
2, 26794, Note_on_c, 0, 62, 59
2, 26797, Note_on_c, 0, 64, 0
2, 26797, Note_on_c, 0, 50, 0
2, 26798, Note_on_c, 0, 59, 0
2, 26798, Note_on_c, 0, 66, 0
2, 26964, Control_c, 0, 64, 127
2, 28183, Note_on_c, 0, 56, 54
2, 28208, Note_on_c, 0, 52, 0
2, 28219, Note_on_c, 0, 52, 20
2, 28220, Control_c, 0, 64, 0
2, 28239, Note_on_c, 0, 57, 0
2, 28323, Control_c, 0, 64, 127
2, 28800, Note_on_c, 0, 62, 0
2, 28800, Note_on_c, 0, 71, 0
2, 28906, Note_on_c, 0, 50, 42
2, 29643, Note_on_c, 0, 71, 77
2, 29644, Note_on_c, 0, 52, 0
2, 29654, Control_c, 0, 64, 0
2, 29655, Note_on_c, 0, 50, 0
2, 29656, Note_on_c, 0, 56, 0
2, 29665, Note_on_c, 0, 64, 54
2, 29665, Note_on_c, 0, 60, 54
2, 29671, Note_on_c, 0, 48, 44
2, 29674, Note_on_c, 0, 55, 52
2, 29736, Control_c, 0, 64, 127
2, 29975, Note_on_c, 0, 71, 0
2, 29983, Note_on_c, 0, 71, 74
2, 30159, Note_on_c, 0, 71, 0
2, 30169, Note_on_c, 0, 71, 83
2, 30519, Note_on_c, 0, 67, 82
2, 30869, Note_on_c, 0, 66, 82
2, 31015, Control_c, 0, 64, 0
2, 31015, Note_on_c, 0, 64, 0
2, 31015, Note_on_c, 0, 55, 0
2, 31016, Note_on_c, 0, 67, 0
2, 31027, Note_on_c, 0, 48, 0
2, 31032, Note_on_c, 0, 48, 56
2, 31034, Note_on_c, 0, 71, 0
2, 31038, Note_on_c, 0, 57, 55
2, 31042, Note_on_c, 0, 60, 0
2, 31047, Note_on_c, 0, 62, 58
2, 31052, Note_on_c, 0, 60, 53
2, 31142, Control_c, 0, 64, 127
2, 31228, Note_on_c, 0, 67, 79
2, 31576, Note_on_c, 0, 69, 79
2, 31918, Note_on_c, 0, 67, 0
2, 31928, Note_on_c, 0, 67, 79
2, 32509, Note_on_c, 0, 69, 0
2, 32509, Note_on_c, 0, 62, 0
2, 32509, Note_on_c, 0, 60, 0
2, 32510, Note_on_c, 0, 48, 0
2, 32511, Note_on_c, 0, 67, 0
2, 32512, Note_on_c, 0, 66, 0
2, 32514, Control_c, 0, 64, 0
2, 32532, Note_on_c, 0, 57, 0
2, 32535, Note_on_c, 0, 59, 63
2, 32537, Note_on_c, 0, 47, 51
2, 32538, Note_on_c, 0, 57, 54
2, 32543, Note_on_c, 0, 54, 54
2, 32609, Control_c, 0, 64, 127
2, 32712, Note_on_c, 0, 64, 70
2, 32883, Note_on_c, 0, 62, 74
2, 33065, Note_on_c, 0, 66, 72
2, 33231, Note_on_c, 0, 67, 79
2, 33392, Note_on_c, 0, 66, 0
2, 33399, Note_on_c, 0, 66, 78
2, 33571, Note_on_c, 0, 69, 82
2, 33745, Note_on_c, 0, 67, 0
2, 33752, Note_on_c, 0, 67, 78
2, 33936, Note_on_c, 0, 62, 0
2, 33936, Note_on_c, 0, 47, 0
2, 33936, Note_on_c, 0, 69, 0
2, 33936, Note_on_c, 0, 57, 0
2, 33937, Note_on_c, 0, 54, 0
2, 33937, Note_on_c, 0, 64, 0
2, 33937, Note_on_c, 0, 59, 0
2, 33939, Note_on_c, 0, 66, 0
2, 33940, Control_c, 0, 64, 0
2, 33943, Note_on_c, 0, 52, 49
2, 33947, Note_on_c, 0, 55, 57
2, 33948, Note_on_c, 0, 59, 57
2, 34152, Control_c, 0, 64, 127
2, 35312, Note_on_c, 0, 67, 0
2, 35319, Note_on_c, 0, 67, 71
2, 35335, Note_on_c, 0, 52, 0
2, 35335, Note_on_c, 0, 55, 0
2, 35339, Note_on_c, 0, 52, 45
2, 35345, Note_on_c, 0, 59, 0
2, 35346, Note_on_c, 0, 45, 41
2, 35347, Note_on_c, 0, 55, 51
2, 35347, Control_c, 0, 64, 0
2, 35348, Note_on_c, 0, 60, 49
2, 35427, Control_c, 0, 64, 127
2, 35642, Note_on_c, 0, 67, 0
2, 35654, Note_on_c, 0, 67, 69
2, 35827, Note_on_c, 0, 67, 0
2, 35837, Note_on_c, 0, 67, 70
2, 36195, Note_on_c, 0, 67, 0
2, 36199, Note_on_c, 0, 67, 76
2, 36541, Note_on_c, 0, 67, 0
2, 36550, Note_on_c, 0, 67, 76
2, 36733, Note_on_c, 0, 67, 0
2, 36738, Note_on_c, 0, 67, 74
2, 36745, Note_on_c, 0, 47, 52
2, 36746, Note_on_c, 0, 54, 53
2, 36749, Note_on_c, 0, 35, 52
2, 36751, Note_on_c, 0, 57, 56
2, 36756, Note_on_c, 0, 35, 0
2, 36759, Control_c, 0, 64, 0
2, 36787, Note_on_c, 0, 60, 0
2, 36788, Note_on_c, 0, 45, 0
2, 36797, Note_on_c, 0, 52, 0
2, 36799, Note_on_c, 0, 55, 0
2, 36799, Note_on_c, 0, 67, 0
2, 36909, Note_on_c, 0, 67, 66
2, 36917, Control_c, 0, 64, 127
2, 37075, Note_on_c, 0, 66, 80
2, 37241, Note_on_c, 0, 64, 79
2, 37431, Note_on_c, 0, 62, 80
2, 37785, Note_on_c, 0, 66, 0
2, 37789, Note_on_c, 0, 48, 55
2, 37793, Note_on_c, 0, 66, 74
2, 37800, Note_on_c, 0, 62, 0
2, 37801, Note_on_c, 0, 55, 56
2, 37812, Note_on_c, 0, 62, 54
2, 37814, Control_c, 0, 64, 0
2, 37817, Note_on_c, 0, 59, 54
2, 37818, Note_on_c, 0, 47, 0
2, 37819, Note_on_c, 0, 54, 0
2, 37819, Note_on_c, 0, 64, 0
2, 37819, Note_on_c, 0, 57, 0
2, 37820, Note_on_c, 0, 67, 0
2, 37946, Control_c, 0, 64, 127
2, 38466, Note_on_c, 0, 52, 44
2, 38467, Note_on_c, 0, 67, 72
2, 38476, Note_on_c, 0, 59, 0
2, 38488, Note_on_c, 0, 59, 41
2, 38522, Control_c, 0, 64, 0
2, 38530, Note_on_c, 0, 66, 0
2, 38676, Control_c, 0, 64, 127
2, 39459, Note_on_c, 0, 67, 0
2, 39468, Note_on_c, 0, 67, 45
2, 39518, Note_on_c, 0, 71, 61
2, 39594, Note_on_c, 0, 76, 71
2, 40320, Note_on_c, 0, 48, 0
2, 40320, Note_on_c, 0, 59, 0
2, 40320, Note_on_c, 0, 62, 0
2, 40657, Note_on_c, 0, 55, 0
2, 41064, Note_on_c, 0, 71, 0
2, 41071, Note_on_c, 0, 71, 78
2, 41076, Note_on_c, 0, 64, 68
2, 41093, Note_on_c, 0, 48, 48
2, 41100, Note_on_c, 0, 55, 51
2, 41122, Control_c, 0, 64, 0
2, 41125, Note_on_c, 0, 67, 0
2, 41127, Note_on_c, 0, 52, 0
2, 41128, Note_on_c, 0, 76, 0
2, 41303, Control_c, 0, 64, 127
2, 42490, Note_on_c, 0, 69, 74
2, 42493, Note_on_c, 0, 64, 0
2, 42503, Note_on_c, 0, 64, 63
2, 42504, Note_on_c, 0, 57, 53
2, 42507, Note_on_c, 0, 50, 53
2, 42511, Note_on_c, 0, 62, 54
2, 42515, Control_c, 0, 64, 0
2, 42524, Note_on_c, 0, 48, 0
2, 42531, Note_on_c, 0, 55, 0
2, 42531, Note_on_c, 0, 71, 0
2, 42616, Control_c, 0, 64, 127
2, 43197, Note_on_c, 0, 74, 79
2, 43949, Note_on_c, 0, 71, 75
2, 43952, Note_on_c, 0, 64, 0
2, 43962, Note_on_c, 0, 64, 65
2, 43968, Note_on_c, 0, 57, 0
2, 43972, Note_on_c, 0, 57, 53
2, 43973, Note_on_c, 0, 52, 53
2, 43977, Note_on_c, 0, 59, 54
2, 43994, Note_on_c, 0, 62, 0
2, 43994, Control_c, 0, 64, 0
2, 43996, Note_on_c, 0, 69, 0
2, 43996, Note_on_c, 0, 50, 0
2, 43997, Note_on_c, 0, 74, 0
2, 44136, Control_c, 0, 64, 127
2, 45385, Note_on_c, 0, 40, 58
2, 46909, Note_on_c, 0, 71, 0
2, 46915, Note_on_c, 0, 71, 74
2, 46917, Note_on_c, 0, 64, 0
2, 46924, Note_on_c, 0, 55, 56
2, 46924, Note_on_c, 0, 64, 67
2, 46934, Note_on_c, 0, 48, 48
2, 46937, Note_on_c, 0, 60, 55
2, 46952, Control_c, 0, 64, 0
2, 46957, Note_on_c, 0, 59, 0
2, 46957, Note_on_c, 0, 52, 0
2, 46957, Note_on_c, 0, 40, 0
2, 46970, Note_on_c, 0, 57, 0
2, 47093, Control_c, 0, 64, 127
2, 48245, Note_on_c, 0, 60, 0
2, 48291, Note_on_c, 0, 64, 0
2, 48294, Note_on_c, 0, 69, 70
2, 48297, Note_on_c, 0, 64, 65
2, 48298, Note_on_c, 0, 57, 54
2, 48308, Note_on_c, 0, 62, 55
2, 48310, Note_on_c, 0, 50, 49
2, 48333, Control_c, 0, 64, 0
2, 48334, Note_on_c, 0, 55, 0
2, 48335, Note_on_c, 0, 48, 0
2, 48360, Note_on_c, 0, 71, 0
2, 48437, Control_c, 0, 64, 127
2, 48985, Note_on_c, 0, 74, 82
2, 49735, Note_on_c, 0, 64, 0
2, 49738, Note_on_c, 0, 71, 73
2, 49746, Note_on_c, 0, 64, 68
2, 49751, Note_on_c, 0, 57, 0
2, 49756, Note_on_c, 0, 57, 52
2, 49757, Note_on_c, 0, 59, 55
2, 49757, Note_on_c, 0, 52, 51
2, 49798, Note_on_c, 0, 62, 0
2, 49799, Note_on_c, 0, 74, 0
2, 49800, Note_on_c, 0, 69, 0
2, 49800, Note_on_c, 0, 50, 0
2, 49801, Control_c, 0, 64, 0
2, 50042, Control_c, 0, 64, 127
2, 50734, Note_on_c, 0, 59, 0
2, 51269, Note_on_c, 0, 40, 37
2, 51314, Note_on_c, 0, 76, 45
2, 51315, Note_on_c, 0, 71, 0
2, 51840, Note_on_c, 0, 52, 0
2, 51840, Note_on_c, 0, 57, 0
2, 51840, Note_on_c, 0, 64, 0
2, 52794, Note_on_c, 0, 62, 73
2, 52996, Note_on_c, 0, 43, 59
2, 52996, Note_on_c, 0, 52, 58
2, 52996, Note_on_c, 0, 64, 86
2, 53000, Note_on_c, 0, 36, 54
2, 53002, Note_on_c, 0, 55, 67
2, 53040, Control_c, 0, 64, 0
2, 53041, Note_on_c, 0, 62, 0
2, 53043, Note_on_c, 0, 40, 0
2, 53047, Note_on_c, 0, 76, 0
2, 53214, Control_c, 0, 64, 127
2, 53353, Note_on_c, 0, 62, 82
2, 53544, Note_on_c, 0, 64, 0
2, 53548, Note_on_c, 0, 64, 87
2, 53900, Note_on_c, 0, 67, 86
2, 54251, Note_on_c, 0, 66, 87
2, 54416, Note_on_c, 0, 36, 0
2, 54417, Note_on_c, 0, 43, 0
2, 54417, Note_on_c, 0, 64, 0
2, 54417, Note_on_c, 0, 55, 0
2, 54419, Control_c, 0, 64, 0
2, 54419, Note_on_c, 0, 67, 0
2, 54419, Note_on_c, 0, 62, 0
2, 54426, Note_on_c, 0, 54, 66
2, 54428, Note_on_c, 0, 52, 0
2, 54431, Note_on_c, 0, 38, 58
2, 54431, Note_on_c, 0, 45, 57
2, 54433, Note_on_c, 0, 50, 57
2, 54581, Control_c, 0, 64, 127
2, 54609, Note_on_c, 0, 64, 79
2, 54784, Note_on_c, 0, 62, 86
2, 55116, Note_on_c, 0, 59, 87
2, 55441, Note_on_c, 0, 62, 0
2, 55451, Note_on_c, 0, 62, 83
2, 55618, Note_on_c, 0, 62, 0
2, 55627, Note_on_c, 0, 62, 86
2, 55810, Note_on_c, 0, 62, 0
2, 55820, Note_on_c, 0, 62, 72
2, 55833, Note_on_c, 0, 57, 66
2, 55834, Note_on_c, 0, 47, 53
2, 55837, Note_on_c, 0, 52, 57
2, 55837, Note_on_c, 0, 40, 50
2, 55860, Note_on_c, 0, 59, 0
2, 55861, Note_on_c, 0, 64, 0
2, 55864, Note_on_c, 0, 38, 0
2, 55864, Note_on_c, 0, 54, 0
2, 55865, Note_on_c, 0, 66, 0
2, 55866, Note_on_c, 0, 45, 0
2, 55868, Control_c, 0, 64, 0
2, 55964, Note_on_c, 0, 50, 0
2, 56186, Control_c, 0, 64, 127
2, 56359, Note_on_c, 0, 64, 78
2, 56865, Note_on_c, 0, 59, 74
2, 56878, Note_on_c, 0, 55, 67
2, 56914, Control_c, 0, 64, 0
2, 56926, Note_on_c, 0, 57, 0
2, 56928, Note_on_c, 0, 64, 0
2, 57492, Control_c, 0, 64, 127
2, 57998, Note_on_c, 0, 50, 50
2, 58529, Note_on_c, 0, 62, 0
2, 58536, Note_on_c, 0, 62, 86
2, 58721, Note_on_c, 0, 52, 0
2, 58728, Note_on_c, 0, 55, 0
2, 58730, Note_on_c, 0, 52, 62
2, 58731, Note_on_c, 0, 64, 92
2, 58732, Note_on_c, 0, 43, 63
2, 58737, Note_on_c, 0, 36, 61
2, 58740, Note_on_c, 0, 55, 72
2, 58764, Note_on_c, 0, 50, 0
2, 58772, Control_c, 0, 64, 0
2, 58772, Note_on_c, 0, 62, 0
2, 58774, Note_on_c, 0, 40, 0
2, 58777, Note_on_c, 0, 59, 0
2, 58928, Control_c, 0, 64, 127
2, 59062, Note_on_c, 0, 62, 86
2, 59136, Note_on_c, 0, 47, 0
2, 59258, Note_on_c, 0, 64, 0
2, 59268, Note_on_c, 0, 64, 88
2, 59401, Note_on_c, 0, 62, 0
2, 59409, Control_c, 0, 64, 0
2, 59435, Control_c, 0, 64, 127
2, 59614, Note_on_c, 0, 67, 93
2, 59965, Note_on_c, 0, 66, 91
2, 60131, Control_c, 0, 64, 0
2, 60132, Note_on_c, 0, 43, 0
2, 60133, Note_on_c, 0, 36, 0
2, 60133, Note_on_c, 0, 64, 0
2, 60133, Note_on_c, 0, 52, 0
2, 60135, Note_on_c, 0, 67, 0
2, 60138, Note_on_c, 0, 54, 70
2, 60140, Note_on_c, 0, 38, 62
2, 60140, Note_on_c, 0, 45, 60
2, 60143, Note_on_c, 0, 50, 62
2, 60149, Note_on_c, 0, 55, 0
2, 60303, Control_c, 0, 64, 127
2, 60311, Note_on_c, 0, 64, 82
2, 60488, Note_on_c, 0, 62, 90
2, 60813, Note_on_c, 0, 59, 87
2, 61146, Note_on_c, 0, 71, 84
2, 61301, Note_on_c, 0, 71, 0
2, 61308, Note_on_c, 0, 71, 83
2, 61486, Note_on_c, 0, 71, 0
2, 61492, Note_on_c, 0, 71, 87
2, 61501, Note_on_c, 0, 62, 0
2, 61501, Note_on_c, 0, 66, 0
2, 61506, Note_on_c, 0, 66, 72
2, 61509, Note_on_c, 0, 59, 0
2, 61511, Note_on_c, 0, 62, 68
2, 61513, Note_on_c, 0, 59, 60
2, 61516, Note_on_c, 0, 55, 58
2, 61516, Note_on_c, 0, 50, 0
2, 61517, Note_on_c, 0, 43, 57
2, 61521, Note_on_c, 0, 50, 53
2, 61549, Control_c, 0, 64, 0
2, 61557, Note_on_c, 0, 64, 0
2, 61557, Note_on_c, 0, 54, 0
2, 61559, Note_on_c, 0, 45, 0
2, 61559, Note_on_c, 0, 38, 0
2, 61770, Control_c, 0, 64, 127
2, 62542, Note_on_c, 0, 81, 82
2, 62549, Note_on_c, 0, 74, 68
2, 62576, Note_on_c, 0, 62, 0
2, 62582, Note_on_c, 0, 62, 50
2, 63211, Note_on_c, 0, 78, 78
2, 63217, Note_on_c, 0, 69, 63
2, 63575, Note_on_c, 0, 74, 0
2, 63580, Note_on_c, 0, 74, 72
2, 63582, Note_on_c, 0, 66, 0
2, 63588, Note_on_c, 0, 66, 71
2, 64273, Note_on_c, 0, 71, 0
2, 64278, Note_on_c, 0, 71, 89
2, 64289, Note_on_c, 0, 50, 0
2, 64292, Note_on_c, 0, 64, 70
2, 64292, Note_on_c, 0, 62, 0
2, 64292, Note_on_c, 0, 66, 0
2, 64292, Note_on_c, 0, 55, 0
2, 64292, Note_on_c, 0, 43, 0
2, 64292, Note_on_c, 0, 74, 0
2, 64293, Note_on_c, 0, 45, 68
2, 64293, Note_on_c, 0, 69, 0
2, 64293, Note_on_c, 0, 81, 0
2, 64293, Note_on_c, 0, 78, 0
2, 64293, Note_on_c, 0, 52, 66
2, 64293, Note_on_c, 0, 57, 68
2, 64294, Note_on_c, 0, 60, 72
2, 64297, Control_c, 0, 64, 0
2, 64327, Note_on_c, 0, 59, 0
2, 64389, Control_c, 0, 64, 127
2, 64604, Note_on_c, 0, 71, 0
2, 64611, Note_on_c, 0, 71, 85
2, 64780, Note_on_c, 0, 71, 0
2, 64785, Note_on_c, 0, 71, 85
2, 65148, Note_on_c, 0, 67, 88
2, 65514, Note_on_c, 0, 66, 89
2, 65687, Note_on_c, 0, 57, 0
2, 65687, Note_on_c, 0, 60, 0
2, 65688, Note_on_c, 0, 71, 0
2, 65688, Note_on_c, 0, 52, 0
2, 65689, Note_on_c, 0, 67, 0
2, 65690, Note_on_c, 0, 45, 0
2, 65692, Control_c, 0, 64, 0
2, 65695, Note_on_c, 0, 57, 75
2, 65695, Note_on_c, 0, 62, 66
2, 65698, Note_on_c, 0, 60, 67
2, 65698, Note_on_c, 0, 50, 67
2, 65748, Note_on_c, 0, 64, 0
2, 65771, Control_c, 0, 64, 127
2, 65872, Note_on_c, 0, 67, 84
2, 66228, Note_on_c, 0, 69, 84
2, 66385, Note_on_c, 0, 57, 0
2, 66390, Note_on_c, 0, 57, 66
2, 66391, Note_on_c, 0, 48, 64
2, 66406, Note_on_c, 0, 62, 0
2, 66407, Note_on_c, 0, 60, 0
2, 66410, Control_c, 0, 64, 0
2, 66410, Note_on_c, 0, 50, 0
2, 66410, Note_on_c, 0, 67, 0
2, 66411, Note_on_c, 0, 66, 0
2, 66462, Control_c, 0, 64, 127
2, 66567, Note_on_c, 0, 67, 84
2, 67118, Note_on_c, 0, 67, 0
2, 67118, Control_c, 0, 64, 0
2, 67119, Note_on_c, 0, 48, 0
2, 67119, Note_on_c, 0, 47, 72
2, 67119, Note_on_c, 0, 54, 74
2, 67120, Note_on_c, 0, 59, 77
2, 67123, Note_on_c, 0, 57, 0
2, 67130, Note_on_c, 0, 69, 0
2, 67238, Control_c, 0, 64, 127
2, 67293, Note_on_c, 0, 64, 77
2, 67455, Note_on_c, 0, 62, 81
2, 67634, Note_on_c, 0, 66, 78
2, 67794, Note_on_c, 0, 67, 89
2, 67952, Note_on_c, 0, 66, 0
2, 67961, Note_on_c, 0, 66, 80
2, 68143, Note_on_c, 0, 71, 88
2, 68321, Note_on_c, 0, 69, 86
2, 68490, Note_on_c, 0, 64, 0
2, 68499, Note_on_c, 0, 64, 68
2, 68505, Note_on_c, 0, 59, 0
2, 68516, Note_on_c, 0, 59, 57
2, 68517, Note_on_c, 0, 55, 63
2, 68518, Note_on_c, 0, 52, 58
2, 68528, Note_on_c, 0, 62, 0
2, 68529, Control_c, 0, 64, 0
2, 68529, Note_on_c, 0, 47, 0
2, 68529, Note_on_c, 0, 66, 0
2, 68530, Note_on_c, 0, 67, 0
2, 68530, Note_on_c, 0, 54, 0
2, 68531, Note_on_c, 0, 71, 0
2, 68712, Control_c, 0, 64, 127
2, 69580, Note_on_c, 0, 67, 83
2, 69926, Note_on_c, 0, 67, 0
2, 69930, Note_on_c, 0, 67, 85
2, 69941, Note_on_c, 0, 64, 0
2, 69942, Note_on_c, 0, 60, 70
2, 69945, Note_on_c, 0, 57, 66
2, 69946, Note_on_c, 0, 64, 68
2, 69949, Note_on_c, 0, 52, 0
2, 69950, Control_c, 0, 64, 0
2, 69953, Note_on_c, 0, 52, 60
2, 69954, Note_on_c, 0, 55, 0
2, 69957, Note_on_c, 0, 45, 59
2, 69960, Note_on_c, 0, 69, 0
2, 69987, Note_on_c, 0, 59, 0
2, 70072, Control_c, 0, 64, 127
2, 70264, Note_on_c, 0, 67, 0
2, 70273, Note_on_c, 0, 67, 74
2, 70456, Note_on_c, 0, 67, 0
2, 70461, Note_on_c, 0, 67, 86
2, 70778, Note_on_c, 0, 64, 0
2, 70809, Note_on_c, 0, 67, 0
2, 70813, Note_on_c, 0, 67, 92
2, 71178, Note_on_c, 0, 67, 0
2, 71184, Note_on_c, 0, 67, 83
2, 71339, Note_on_c, 0, 60, 0
2, 71339, Note_on_c, 0, 45, 0
2, 71342, Control_c, 0, 64, 0
2, 71354, Note_on_c, 0, 52, 0
2, 71354, Note_on_c, 0, 67, 0
2, 71365, Note_on_c, 0, 67, 77
2, 71370, Note_on_c, 0, 57, 0
2, 71373, Note_on_c, 0, 62, 71
2, 71374, Note_on_c, 0, 54, 68
2, 71374, Note_on_c, 0, 47, 66
2, 71375, Note_on_c, 0, 57, 72
2, 71424, Control_c, 0, 64, 127
2, 71523, Note_on_c, 0, 62, 0
2, 71529, Note_on_c, 0, 62, 72
2, 71531, Note_on_c, 0, 67, 0
2, 71536, Note_on_c, 0, 67, 85
2, 71706, Note_on_c, 0, 66, 87
2, 71864, Note_on_c, 0, 64, 87
2, 72061, Note_on_c, 0, 62, 0
2, 72065, Note_on_c, 0, 62, 88
2, 72391, Note_on_c, 0, 66, 0
2, 72402, Note_on_c, 0, 66, 87
2, 72407, Note_on_c, 0, 62, 0
2, 72409, Note_on_c, 0, 55, 65
2, 72415, Note_on_c, 0, 59, 70
2, 72418, Note_on_c, 0, 62, 68
2, 72418, Control_c, 0, 64, 0
2, 72421, Note_on_c, 0, 54, 0
2, 72421, Note_on_c, 0, 67, 0
2, 72421, Note_on_c, 0, 47, 0
2, 72422, Note_on_c, 0, 57, 0
2, 72424, Note_on_c, 0, 64, 0
2, 72424, Note_on_c, 0, 48, 60
2, 72537, Control_c, 0, 64, 127
2, 73071, Note_on_c, 0, 67, 80
2, 73100, Control_c, 0, 64, 0
2, 73113, Note_on_c, 0, 66, 0
2, 73190, Control_c, 0, 64, 127
2, 73753, Note_on_c, 0, 71, 59
2, 73770, Note_on_c, 0, 64, 59
2, 74096, Note_on_c, 0, 67, 0
2, 74101, Note_on_c, 0, 76, 77
2, 74103, Note_on_c, 0, 67, 69
2, 74434, Note_on_c, 0, 71, 0
2, 74444, Note_on_c, 0, 71, 70
2, 74444, Note_on_c, 0, 79, 83
2, 74472, Note_on_c, 0, 76, 0
2, 74477, Note_on_c, 0, 76, 30
2, 74802, Note_on_c, 0, 83, 81
2, 74803, Note_on_c, 0, 76, 0
2, 74809, Note_on_c, 0, 76, 61
2, 74880, Note_on_c, 0, 48, 0
2, 74880, Note_on_c, 0, 55, 0
2, 74880, Note_on_c, 0, 59, 0
2, 74880, Note_on_c, 0, 62, 0
2, 75509, Note_on_c, 0, 71, 0
2, 75517, Note_on_c, 0, 64, 0
2, 75517, Note_on_c, 0, 71, 86
2, 75521, Note_on_c, 0, 60, 72
2, 75522, Note_on_c, 0, 64, 78
2, 75523, Note_on_c, 0, 55, 70
2, 75525, Note_on_c, 0, 48, 62
2, 75535, Control_c, 0, 64, 0
2, 75568, Note_on_c, 0, 67, 0
2, 75568, Note_on_c, 0, 79, 0
2, 75570, Note_on_c, 0, 83, 0
2, 75594, Note_on_c, 0, 76, 0
2, 75640, Control_c, 0, 64, 127
2, 75686, Note_on_c, 0, 71, 0
2, 75692, Note_on_c, 0, 71, 80
2, 75876, Note_on_c, 0, 69, 90
2, 76185, Note_on_c, 0, 69, 0
2, 76195, Note_on_c, 0, 69, 90
2, 76549, Note_on_c, 0, 72, 92
2, 76564, Note_on_c, 0, 60, 0
2, 76566, Note_on_c, 0, 48, 0
2, 76566, Note_on_c, 0, 71, 0
2, 76568, Control_c, 0, 64, 0
2, 76570, Note_on_c, 0, 62, 70
2, 76575, Note_on_c, 0, 57, 66
2, 76575, Note_on_c, 0, 66, 73
2, 76577, Note_on_c, 0, 50, 57
2, 76584, Note_on_c, 0, 55, 0
2, 76584, Note_on_c, 0, 64, 0
2, 76661, Control_c, 0, 64, 127
2, 76707, Note_on_c, 0, 69, 0
2, 76729, Note_on_c, 0, 71, 86
2, 76914, Note_on_c, 0, 67, 86
2, 77061, Note_on_c, 0, 67, 0
2, 77069, Note_on_c, 0, 67, 50
2, 77253, Note_on_c, 0, 66, 0
2, 77261, Note_on_c, 0, 66, 94
2, 77595, Note_on_c, 0, 72, 0
2, 77595, Note_on_c, 0, 67, 0
2, 77596, Note_on_c, 0, 71, 0
2, 77596, Note_on_c, 0, 57, 0
2, 77597, Note_on_c, 0, 66, 0
2, 77600, Control_c, 0, 64, 0
2, 77621, Note_on_c, 0, 50, 0
2, 77629, Note_on_c, 0, 62, 0
2, 77631, Note_on_c, 0, 50, 61
2, 77632, Note_on_c, 0, 43, 63
2, 77633, Note_on_c, 0, 55, 63
2, 77634, Note_on_c, 0, 62, 55
2, 77652, Control_c, 0, 64, 127
2, 77809, Note_on_c, 0, 67, 86
2, 77836, Note_on_c, 0, 62, 0
2, 77839, Note_on_c, 0, 59, 57
2, 77841, Note_on_c, 0, 62, 56
2, 77863, Control_c, 0, 64, 0
2, 78059, Control_c, 0, 64, 127
2, 79242, Note_on_c, 0, 43, 0
2, 79242, Note_on_c, 0, 55, 0
2, 79247, Note_on_c, 0, 55, 67
2, 79249, Note_on_c, 0, 43, 64
2, 79995, Note_on_c, 0, 54, 95
2, 79997, Note_on_c, 0, 42, 92
2, 80747, Note_on_c, 0, 55, 0
2, 80752, Note_on_c, 0, 55, 96
2, 80758, Note_on_c, 0, 47, 91
2, 80762, Note_on_c, 0, 67, 0
2, 80764, Note_on_c, 0, 79, 102
2, 80766, Note_on_c, 0, 52, 86
2, 80770, Note_on_c, 0, 67, 97
2, 80772, Note_on_c, 0, 71, 89
2, 80796, Control_c, 0, 64, 0
2, 80805, Note_on_c, 0, 54, 0
2, 80805, Note_on_c, 0, 43, 0
2, 80806, Note_on_c, 0, 59, 0
2, 80807, Note_on_c, 0, 42, 0
2, 80824, Note_on_c, 0, 62, 0
2, 80832, Note_on_c, 0, 50, 0
2, 80862, Control_c, 0, 64, 127
2, 81104, Note_on_c, 0, 78, 91
2, 81107, Note_on_c, 0, 66, 87
2, 81292, Note_on_c, 0, 67, 0
2, 81292, Note_on_c, 0, 71, 0
2, 81292, Note_on_c, 0, 79, 0
2, 81296, Note_on_c, 0, 79, 101
2, 81300, Note_on_c, 0, 71, 87
2, 81300, Note_on_c, 0, 67, 93
2, 81303, Note_on_c, 0, 76, 85
2, 81311, Note_on_c, 0, 78, 0
2, 81311, Control_c, 0, 64, 0
2, 81312, Note_on_c, 0, 66, 0
2, 81361, Control_c, 0, 64, 127
2, 81646, Note_on_c, 0, 71, 0
2, 81653, Note_on_c, 0, 83, 103
2, 81655, Note_on_c, 0, 71, 99
2, 82186, Note_on_c, 0, 78, 97
2, 82191, Note_on_c, 0, 66, 89
2, 82195, Note_on_c, 0, 69, 71
2, 82196, Note_on_c, 0, 74, 77
2, 82344, Note_on_c, 0, 76, 0
2, 82355, Note_on_c, 0, 76, 77
2, 82358, Note_on_c, 0, 64, 86
2, 82383, Note_on_c, 0, 74, 0
2, 82387, Note_on_c, 0, 74, 43
2, 82536, Note_on_c, 0, 74, 0
2, 82544, Note_on_c, 0, 69, 0
2, 82548, Note_on_c, 0, 74, 92
2, 82552, Note_on_c, 0, 66, 0
2, 82554, Note_on_c, 0, 69, 73
2, 82556, Note_on_c, 0, 66, 84
2, 82559, Note_on_c, 0, 62, 79
2, 82882, Note_on_c, 0, 52, 0
2, 82888, Note_on_c, 0, 52, 92
2, 82891, Note_on_c, 0, 43, 93
2, 82893, Note_on_c, 0, 36, 88
2, 82896, Note_on_c, 0, 64, 0
2, 82898, Note_on_c, 0, 62, 0
2, 82899, Note_on_c, 0, 71, 0
2, 82899, Note_on_c, 0, 69, 0
2, 82899, Note_on_c, 0, 83, 0
2, 82900, Control_c, 0, 64, 0
2, 82900, Note_on_c, 0, 78, 0
2, 82900, Note_on_c, 0, 74, 0
2, 82903, Note_on_c, 0, 66, 0
2, 82913, Note_on_c, 0, 79, 0
2, 82920, Note_on_c, 0, 47, 0
2, 82920, Note_on_c, 0, 55, 0
2, 82920, Note_on_c, 0, 67, 0
2, 83005, Control_c, 0, 64, 127
2, 83234, Note_on_c, 0, 79, 91
2, 83235, Note_on_c, 0, 76, 0
2, 83237, Note_on_c, 0, 67, 82
2, 83412, Note_on_c, 0, 67, 0
2, 83412, Note_on_c, 0, 79, 0
2, 83416, Note_on_c, 0, 79, 101
2, 83422, Note_on_c, 0, 67, 91
2, 83423, Note_on_c, 0, 72, 85
2, 83425, Note_on_c, 0, 76, 82
2, 83439, Control_c, 0, 64, 0
2, 83535, Control_c, 0, 64, 127
2, 84329, Note_on_c, 0, 57, 90
2, 85056, Note_on_c, 0, 43, 0
2, 85062, Note_on_c, 0, 59, 95
2, 85063, Note_on_c, 0, 79, 0
2, 85066, Note_on_c, 0, 43, 88
2, 85067, Note_on_c, 0, 79, 104
2, 85070, Note_on_c, 0, 50, 82
2, 85070, Note_on_c, 0, 71, 94
2, 85071, Note_on_c, 0, 67, 0
2, 85075, Note_on_c, 0, 74, 90
2, 85077, Note_on_c, 0, 67, 92
2, 85086, Note_on_c, 0, 36, 0
2, 85089, Control_c, 0, 64, 0
2, 85093, Note_on_c, 0, 76, 0
2, 85095, Note_on_c, 0, 57, 0
2, 85098, Note_on_c, 0, 52, 0
2, 85099, Note_on_c, 0, 72, 0
2, 85186, Control_c, 0, 64, 127
2, 85420, Note_on_c, 0, 78, 97
2, 85422, Note_on_c, 0, 66, 89
2, 85593, Note_on_c, 0, 67, 0
2, 85593, Note_on_c, 0, 74, 0
2, 85593, Note_on_c, 0, 79, 0
2, 85601, Note_on_c, 0, 71, 0
2, 85602, Note_on_c, 0, 79, 102
2, 85604, Note_on_c, 0, 74, 84
2, 85604, Note_on_c, 0, 67, 95
2, 85605, Note_on_c, 0, 71, 87
2, 85606, Control_c, 0, 64, 0
2, 85611, Note_on_c, 0, 66, 0
2, 85612, Note_on_c, 0, 78, 0
2, 85670, Control_c, 0, 64, 127
2, 85962, Note_on_c, 0, 71, 0
2, 85965, Note_on_c, 0, 83, 103
2, 85969, Note_on_c, 0, 74, 0
2, 85969, Note_on_c, 0, 79, 0
2, 85973, Note_on_c, 0, 71, 90
2, 85974, Note_on_c, 0, 74, 84
2, 85974, Note_on_c, 0, 79, 88
2, 86507, Note_on_c, 0, 74, 0
2, 86510, Note_on_c, 0, 78, 96
2, 86512, Note_on_c, 0, 66, 85
2, 86516, Note_on_c, 0, 74, 77
2, 86518, Note_on_c, 0, 69, 74
2, 86678, Note_on_c, 0, 76, 77
2, 86678, Note_on_c, 0, 64, 88
2, 86860, Note_on_c, 0, 69, 0
2, 86860, Note_on_c, 0, 74, 0
2, 86866, Note_on_c, 0, 74, 95
2, 86868, Note_on_c, 0, 66, 0
2, 86871, Note_on_c, 0, 69, 85
2, 86872, Note_on_c, 0, 62, 88
2, 86873, Note_on_c, 0, 66, 84
2, 87201, Note_on_c, 0, 59, 0
2, 87201, Note_on_c, 0, 62, 0
2, 87201, Note_on_c, 0, 64, 0
2, 87201, Note_on_c, 0, 69, 0
2, 87201, Note_on_c, 0, 76, 0
2, 87201, Note_on_c, 0, 79, 0
2, 87202, Note_on_c, 0, 66, 0
2, 87202, Note_on_c, 0, 78, 0
2, 87202, Control_c, 0, 64, 0
2, 87212, Note_on_c, 0, 38, 80
2, 87214, Note_on_c, 0, 67, 0
2, 87214, Note_on_c, 0, 71, 0
2, 87214, Note_on_c, 0, 83, 0
2, 87216, Note_on_c, 0, 45, 86
2, 87216, Note_on_c, 0, 54, 92
2, 87221, Note_on_c, 0, 43, 0
2, 87267, Control_c, 0, 64, 127
2, 87548, Note_on_c, 0, 81, 97
2, 87559, Note_on_c, 0, 69, 86
2, 87728, Note_on_c, 0, 81, 0
2, 87736, Note_on_c, 0, 69, 0
2, 87736, Note_on_c, 0, 74, 0
2, 87739, Note_on_c, 0, 81, 100
2, 87743, Note_on_c, 0, 69, 92
2, 87743, Note_on_c, 0, 62, 69
2, 87745, Note_on_c, 0, 78, 89
2, 87745, Note_on_c, 0, 57, 69
2, 87747, Note_on_c, 0, 74, 80
2, 88696, Note_on_c, 0, 79, 101
2, 88700, Note_on_c, 0, 67, 90
2, 88704, Note_on_c, 0, 74, 0
2, 88710, Note_on_c, 0, 74, 79
2, 88711, Note_on_c, 0, 78, 0
2, 88718, Note_on_c, 0, 78, 76
2, 89410, Note_on_c, 0, 81, 0
2, 89418, Note_on_c, 0, 74, 0
2, 89421, Note_on_c, 0, 55, 95
2, 89421, Note_on_c, 0, 81, 104
2, 89425, Note_on_c, 0, 69, 0
2, 89425, Note_on_c, 0, 78, 0
2, 89429, Control_c, 0, 64, 0
2, 89429, Note_on_c, 0, 74, 93
2, 89432, Note_on_c, 0, 78, 91
2, 89432, Note_on_c, 0, 47, 84
2, 89435, Note_on_c, 0, 69, 90
2, 89469, Note_on_c, 0, 38, 0
2, 89469, Note_on_c, 0, 79, 0
2, 89469, Note_on_c, 0, 67, 0
2, 89471, Note_on_c, 0, 57, 0
2, 89472, Note_on_c, 0, 54, 0
2, 89473, Note_on_c, 0, 45, 0
2, 89487, Note_on_c, 0, 50, 0
2, 89495, Note_on_c, 0, 62, 0
2, 89548, Control_c, 0, 64, 127
2, 89951, Note_on_c, 0, 83, 105
2, 89955, Note_on_c, 0, 74, 0
2, 89961, Note_on_c, 0, 71, 90
2, 89962, Note_on_c, 0, 74, 89
2, 89963, Note_on_c, 0, 79, 87
2, 89984, Control_c, 0, 64, 0
2, 90001, Note_on_c, 0, 69, 0
2, 90001, Note_on_c, 0, 78, 0
2, 90017, Note_on_c, 0, 81, 0
2, 90055, Control_c, 0, 64, 127
2, 90854, Note_on_c, 0, 79, 0
2, 90863, Note_on_c, 0, 79, 103
2, 90869, Note_on_c, 0, 71, 0
2, 90874, Note_on_c, 0, 67, 83
2, 90880, Note_on_c, 0, 71, 83
2, 90882, Note_on_c, 0, 76, 76
2, 91596, Note_on_c, 0, 52, 92
2, 91609, Note_on_c, 0, 86, 102
2, 91612, Note_on_c, 0, 43, 85
2, 91614, Note_on_c, 0, 74, 0
2, 91616, Note_on_c, 0, 36, 83
2, 91622, Note_on_c, 0, 79, 0
2, 91625, Note_on_c, 0, 74, 88
2, 91631, Note_on_c, 0, 79, 82
2, 91639, Note_on_c, 0, 71, 0
2, 91641, Note_on_c, 0, 76, 0
2, 91642, Note_on_c, 0, 55, 0
2, 91642, Note_on_c, 0, 67, 0
2, 91642, Note_on_c, 0, 83, 0
2, 91648, Control_c, 0, 64, 0
2, 91660, Note_on_c, 0, 47, 0
2, 91745, Control_c, 0, 64, 127
2, 92129, Note_on_c, 0, 36, 0
2, 92129, Note_on_c, 0, 86, 0
2, 92139, Note_on_c, 0, 86, 100
2, 92144, Note_on_c, 0, 74, 0
2, 92144, Note_on_c, 0, 79, 0
2, 92149, Note_on_c, 0, 83, 86
2, 92149, Note_on_c, 0, 74, 85
2, 92152, Note_on_c, 0, 79, 84
2, 92659, Note_on_c, 0, 83, 0
2, 92664, Note_on_c, 0, 83, 99
2, 92666, Note_on_c, 0, 74, 0
2, 92674, Note_on_c, 0, 79, 0
2, 92677, Note_on_c, 0, 71, 88
2, 92677, Note_on_c, 0, 74, 83
2, 92679, Note_on_c, 0, 79, 82
2, 93020, Note_on_c, 0, 74, 0
2, 93022, Note_on_c, 0, 81, 96
2, 93027, Note_on_c, 0, 79, 0
2, 93029, Note_on_c, 0, 69, 86
2, 93030, Note_on_c, 0, 74, 82
2, 93033, Note_on_c, 0, 79, 82
2, 93373, Note_on_c, 0, 79, 0
2, 93381, Note_on_c, 0, 71, 0
2, 93381, Note_on_c, 0, 74, 0
2, 93382, Note_on_c, 0, 79, 96
2, 93386, Note_on_c, 0, 74, 74
2, 93390, Note_on_c, 0, 71, 72
2, 93393, Note_on_c, 0, 67, 71
2, 93709, Note_on_c, 0, 81, 0
2, 93709, Note_on_c, 0, 52, 0
2, 93710, Note_on_c, 0, 83, 0
2, 93710, Note_on_c, 0, 69, 0
2, 93712, Note_on_c, 0, 74, 0
2, 93712, Note_on_c, 0, 86, 0
2, 93716, Control_c, 0, 64, 0
2, 93726, Note_on_c, 0, 71, 0
2, 93726, Note_on_c, 0, 79, 0
2, 93731, Note_on_c, 0, 79, 100
2, 93734, Note_on_c, 0, 59, 88
2, 93734, Note_on_c, 0, 43, 0
2, 93734, Note_on_c, 0, 67, 0
2, 93736, Note_on_c, 0, 71, 92
2, 93737, Note_on_c, 0, 50, 76
2, 93738, Note_on_c, 0, 67, 91
2, 93738, Note_on_c, 0, 43, 77
2, 93780, Control_c, 0, 64, 127
2, 93919, Note_on_c, 0, 74, 87
2, 94256, Note_on_c, 0, 74, 0
2, 94264, Note_on_c, 0, 67, 0
2, 94264, Note_on_c, 0, 71, 0
2, 94264, Note_on_c, 0, 74, 94
2, 94271, Note_on_c, 0, 62, 87
2, 94274, Note_on_c, 0, 67, 73
2, 94275, Note_on_c, 0, 71, 78
2, 95151, Note_on_c, 0, 78, 98
2, 95159, Note_on_c, 0, 66, 83
2, 95162, Note_on_c, 0, 74, 0
2, 95164, Note_on_c, 0, 69, 79
2, 95168, Note_on_c, 0, 74, 71
2, 95861, Note_on_c, 0, 79, 0
2, 95865, Note_on_c, 0, 79, 101
2, 95869, Note_on_c, 0, 69, 0
2, 95869, Note_on_c, 0, 74, 0
2, 95875, Note_on_c, 0, 38, 78
2, 95878, Note_on_c, 0, 45, 79
2, 95878, Note_on_c, 0, 74, 85
2, 95880, Note_on_c, 0, 54, 83
2, 95880, Note_on_c, 0, 69, 85
2, 95902, Control_c, 0, 64, 0
2, 95903, Note_on_c, 0, 50, 0
2, 95903, Note_on_c, 0, 78, 0
2, 95904, Note_on_c, 0, 62, 0
2, 95904, Note_on_c, 0, 67, 0
2, 95904, Note_on_c, 0, 71, 0
2, 95904, Note_on_c, 0, 43, 0
2, 95904, Note_on_c, 0, 59, 0
2, 95906, Note_on_c, 0, 66, 0
2, 96007, Control_c, 0, 64, 127
2, 96921, Note_on_c, 0, 74, 0
2, 96921, Note_on_c, 0, 79, 0
2, 96925, Note_on_c, 0, 79, 95
2, 96930, Note_on_c, 0, 74, 77
2, 96932, Note_on_c, 0, 67, 81
2, 97274, Note_on_c, 0, 69, 0
2, 97279, Note_on_c, 0, 81, 99
2, 97282, Note_on_c, 0, 74, 0
2, 97286, Note_on_c, 0, 69, 88
2, 97289, Note_on_c, 0, 78, 92
2, 97292, Note_on_c, 0, 74, 80
2, 97920, Note_on_c, 0, 38, 0
2, 97920, Note_on_c, 0, 54, 0
2, 97955, Note_on_c, 0, 67, 0
2, 97955, Control_c, 0, 64, 0
2, 97955, Note_on_c, 0, 45, 0
2, 97955, Note_on_c, 0, 79, 0
2, 97955, Note_on_c, 0, 81, 0
2, 97956, Note_on_c, 0, 74, 0
2, 97956, Note_on_c, 0, 78, 0
2, 97966, Note_on_c, 0, 69, 0
2, 97992, Note_on_c, 0, 79, 101
2, 97992, Note_on_c, 0, 52, 88
2, 97993, Note_on_c, 0, 40, 81
2, 97993, Note_on_c, 0, 47, 79
2, 97995, Note_on_c, 0, 71, 88
2, 97998, Note_on_c, 0, 67, 93
2, 98035, Control_c, 0, 64, 127
2, 98327, Note_on_c, 0, 52, 0
2, 98331, Note_on_c, 0, 78, 82
2, 98334, Note_on_c, 0, 71, 0
2, 98338, Note_on_c, 0, 52, 51
2, 98339, Note_on_c, 0, 66, 72
2, 98343, Note_on_c, 0, 71, 53
2, 98519, Note_on_c, 0, 67, 0
2, 98519, Note_on_c, 0, 79, 0
2, 98526, Note_on_c, 0, 71, 0
2, 98529, Note_on_c, 0, 79, 97
2, 98530, Note_on_c, 0, 64, 88
2, 98530, Note_on_c, 0, 67, 88
2, 98530, Note_on_c, 0, 59, 81
2, 98531, Note_on_c, 0, 55, 78
2, 98532, Note_on_c, 0, 76, 82
2, 98534, Note_on_c, 0, 71, 79
2, 98880, Note_on_c, 0, 71, 0
2, 98884, Note_on_c, 0, 83, 102
2, 98889, Note_on_c, 0, 71, 92
2, 99041, Note_on_c, 0, 52, 0
2, 99051, Note_on_c, 0, 52, 77
2, 99371, Note_on_c, 0, 78, 0
2, 99379, Note_on_c, 0, 66, 0
2, 99380, Note_on_c, 0, 78, 101
2, 99384, Note_on_c, 0, 66, 93
2, 99386, Note_on_c, 0, 55, 0
2, 99386, Note_on_c, 0, 59, 0
2, 99392, Note_on_c, 0, 59, 78
2, 99392, Note_on_c, 0, 74, 75
2, 99395, Note_on_c, 0, 55, 77
2, 99395, Note_on_c, 0, 69, 73
2, 99402, Note_on_c, 0, 74, 0
2, 99548, Note_on_c, 0, 64, 0
2, 99548, Note_on_c, 0, 76, 0
2, 99557, Note_on_c, 0, 76, 90
2, 99559, Note_on_c, 0, 64, 88
2, 99763, Note_on_c, 0, 69, 0
2, 99766, Note_on_c, 0, 74, 102
2, 99770, Note_on_c, 0, 66, 0
2, 99774, Note_on_c, 0, 69, 83
2, 99779, Note_on_c, 0, 62, 85
2, 99780, Note_on_c, 0, 66, 79
2, 100046, Note_on_c, 0, 47, 0
2, 100048, Note_on_c, 0, 52, 0
2, 100048, Note_on_c, 0, 69, 0
2, 100048, Note_on_c, 0, 59, 0
2, 100049, Note_on_c, 0, 62, 0
2, 100049, Note_on_c, 0, 76, 0
2, 100049, Control_c, 0, 64, 0
2, 100049, Note_on_c, 0, 67, 0
2, 100049, Note_on_c, 0, 79, 0
2, 100049, Note_on_c, 0, 71, 0
2, 100050, Note_on_c, 0, 78, 0
2, 100050, Note_on_c, 0, 66, 0
2, 100050, Note_on_c, 0, 83, 0
2, 100062, Note_on_c, 0, 40, 0
2, 100070, Note_on_c, 0, 55, 0
2, 100070, Note_on_c, 0, 64, 0
2, 100098, Note_on_c, 0, 48, 95
2, 100102, Note_on_c, 0, 43, 90
2, 100104, Note_on_c, 0, 36, 90
2, 100124, Control_c, 0, 64, 127
2, 100438, Note_on_c, 0, 79, 89
2, 100444, Note_on_c, 0, 67, 78
2, 100631, Note_on_c, 0, 79, 0
2, 100638, Note_on_c, 0, 67, 0
2, 100641, Note_on_c, 0, 79, 97
2, 100644, Note_on_c, 0, 67, 88
2, 100645, Note_on_c, 0, 60, 81
2, 100649, Note_on_c, 0, 52, 72
2, 100649, Note_on_c, 0, 76, 83
2, 100649, Note_on_c, 0, 55, 84
2, 100650, Note_on_c, 0, 72, 81
2, 101160, Note_on_c, 0, 48, 0
2, 101170, Note_on_c, 0, 48, 83
2, 101486, Note_on_c, 0, 57, 98
2, 101514, Note_on_c, 0, 52, 0
2, 101514, Note_on_c, 0, 55, 0
2, 101518, Note_on_c, 0, 52, 63
2, 101519, Note_on_c, 0, 55, 65
2, 101760, Note_on_c, 0, 74, 0
2, 101821, Note_on_c, 0, 48, 0
2, 101825, Note_on_c, 0, 48, 59
2, 102190, Note_on_c, 0, 43, 0
2, 102190, Note_on_c, 0, 79, 0
2, 102197, Note_on_c, 0, 67, 0
2, 102198, Note_on_c, 0, 43, 87
2, 102200, Note_on_c, 0, 59, 91
2, 102200, Note_on_c, 0, 79, 103
2, 102201, Note_on_c, 0, 50, 81
2, 102206, Note_on_c, 0, 71, 90
2, 102208, Note_on_c, 0, 74, 90
2, 102209, Control_c, 0, 64, 0
2, 102209, Note_on_c, 0, 67, 94
2, 102213, Note_on_c, 0, 36, 0
2, 102215, Note_on_c, 0, 76, 0
2, 102216, Note_on_c, 0, 57, 0
2, 102216, Note_on_c, 0, 60, 0
2, 102217, Note_on_c, 0, 48, 0
2, 102217, Note_on_c, 0, 72, 0
2, 102218, Note_on_c, 0, 55, 0
2, 102218, Note_on_c, 0, 52, 0
2, 102289, Control_c, 0, 64, 127
2, 102544, Note_on_c, 0, 78, 90
2, 102550, Note_on_c, 0, 62, 67
2, 102551, Note_on_c, 0, 50, 0
2, 102553, Note_on_c, 0, 66, 81
2, 102554, Note_on_c, 0, 50, 62
2, 102556, Note_on_c, 0, 69, 60
2, 102727, Note_on_c, 0, 59, 0
2, 102727, Note_on_c, 0, 67, 0
2, 102727, Note_on_c, 0, 71, 0
2, 102727, Note_on_c, 0, 74, 0
2, 102727, Note_on_c, 0, 79, 0
2, 102732, Note_on_c, 0, 79, 98
2, 102733, Note_on_c, 0, 55, 91
2, 102736, Note_on_c, 0, 59, 85
2, 102738, Note_on_c, 0, 67, 89
2, 102738, Note_on_c, 0, 71, 80
2, 102739, Note_on_c, 0, 74, 86
2, 103080, Note_on_c, 0, 74, 0
2, 103083, Note_on_c, 0, 83, 101
2, 103088, Note_on_c, 0, 71, 0
2, 103091, Note_on_c, 0, 74, 85
2, 103093, Note_on_c, 0, 71, 88
2, 103249, Note_on_c, 0, 55, 0
2, 103256, Note_on_c, 0, 55, 85
2, 103580, Note_on_c, 0, 59, 0
2, 103580, Note_on_c, 0, 62, 0
2, 103580, Note_on_c, 0, 66, 0
2, 103580, Note_on_c, 0, 69, 0
2, 103580, Note_on_c, 0, 74, 0
2, 103580, Note_on_c, 0, 78, 0
2, 103584, Note_on_c, 0, 78, 102
2, 103586, Note_on_c, 0, 62, 91
2, 103587, Note_on_c, 0, 66, 95
2, 103589, Note_on_c, 0, 74, 85
2, 103590, Note_on_c, 0, 69, 85
2, 103591, Note_on_c, 0, 59, 85
2, 103754, Note_on_c, 0, 76, 90
2, 103758, Note_on_c, 0, 64, 86
2, 103910, Note_on_c, 0, 55, 0
2, 103921, Note_on_c, 0, 55, 81
2, 103941, Note_on_c, 0, 74, 0
2, 103945, Note_on_c, 0, 74, 98
2, 103948, Note_on_c, 0, 62, 0
2, 103948, Note_on_c, 0, 66, 0
2, 103948, Note_on_c, 0, 69, 0
2, 103953, Note_on_c, 0, 62, 81
2, 103953, Note_on_c, 0, 69, 79
2, 103958, Note_on_c, 0, 66, 85
2, 104251, Note_on_c, 0, 79, 0
2, 104251, Note_on_c, 0, 62, 0
2, 104251, Note_on_c, 0, 71, 0
2, 104252, Note_on_c, 0, 76, 0
2, 104252, Note_on_c, 0, 64, 0
2, 104252, Note_on_c, 0, 67, 0
2, 104252, Control_c, 0, 64, 0
2, 104252, Note_on_c, 0, 66, 0
2, 104252, Note_on_c, 0, 78, 0
2, 104254, Note_on_c, 0, 83, 0
2, 104263, Note_on_c, 0, 43, 0
2, 104271, Note_on_c, 0, 55, 0
2, 104271, Note_on_c, 0, 59, 0
2, 104279, Note_on_c, 0, 50, 0
2, 104287, Note_on_c, 0, 38, 92
2, 104288, Note_on_c, 0, 45, 89
2, 104288, Note_on_c, 0, 50, 91
2, 104317, Control_c, 0, 64, 127
2, 104615, Note_on_c, 0, 81, 94
2, 104616, Note_on_c, 0, 69, 0
2, 104616, Note_on_c, 0, 74, 0
2, 104623, Note_on_c, 0, 69, 83
2, 104625, Note_on_c, 0, 74, 59
2, 104799, Note_on_c, 0, 57, 85
2, 104801, Note_on_c, 0, 81, 0
2, 104808, Note_on_c, 0, 69, 0
2, 104810, Note_on_c, 0, 81, 97
2, 104812, Note_on_c, 0, 54, 86
2, 104815, Note_on_c, 0, 69, 90
2, 104816, Note_on_c, 0, 74, 0
2, 104822, Note_on_c, 0, 74, 80
2, 104823, Note_on_c, 0, 78, 86
2, 105338, Note_on_c, 0, 50, 0
2, 105347, Note_on_c, 0, 50, 76
2, 105669, Note_on_c, 0, 57, 0
2, 105676, Note_on_c, 0, 54, 0
2, 105676, Note_on_c, 0, 74, 0
2, 105678, Note_on_c, 0, 79, 100
2, 105679, Note_on_c, 0, 67, 92
2, 105680, Note_on_c, 0, 57, 81
2, 105680, Note_on_c, 0, 62, 88
2, 105681, Note_on_c, 0, 74, 88
2, 105685, Note_on_c, 0, 54, 81
2, 106037, Note_on_c, 0, 50, 0
2, 106047, Note_on_c, 0, 50, 70
2, 106378, Note_on_c, 0, 45, 0
2, 106379, Note_on_c, 0, 62, 0
2, 106379, Note_on_c, 0, 57, 0
2, 106380, Note_on_c, 0, 79, 0
2, 106380, Note_on_c, 0, 50, 0
2, 106380, Note_on_c, 0, 54, 0
2, 106380, Note_on_c, 0, 67, 0
2, 106381, Control_c, 0, 64, 0
2, 106383, Note_on_c, 0, 81, 0
2, 106388, Note_on_c, 0, 81, 103
2, 106391, Note_on_c, 0, 69, 0
2, 106391, Note_on_c, 0, 74, 0
2, 106391, Note_on_c, 0, 78, 0
2, 106395, Note_on_c, 0, 74, 92
2, 106397, Note_on_c, 0, 69, 89
2, 106398, Note_on_c, 0, 38, 0
2, 106399, Note_on_c, 0, 78, 92
2, 106402, Note_on_c, 0, 47, 88
2, 106402, Note_on_c, 0, 52, 88
2, 106402, Note_on_c, 0, 40, 88
2, 106444, Control_c, 0, 64, 127
2, 106728, Note_on_c, 0, 52, 0
2, 106734, Note_on_c, 0, 52, 74
2, 106924, Note_on_c, 0, 59, 87
2, 106930, Note_on_c, 0, 55, 83
2, 106931, Note_on_c, 0, 83, 102
2, 106935, Note_on_c, 0, 79, 90
2, 106939, Note_on_c, 0, 71, 92
2, 106941, Note_on_c, 0, 76, 74
2, 107427, Note_on_c, 0, 52, 0
2, 107436, Note_on_c, 0, 52, 70
2, 107765, Note_on_c, 0, 59, 0
2, 107765, Note_on_c, 0, 79, 0
2, 107770, Note_on_c, 0, 64, 91
2, 107773, Note_on_c, 0, 55, 0
2, 107773, Note_on_c, 0, 71, 0
2, 107773, Note_on_c, 0, 76, 0
2, 107774, Note_on_c, 0, 59, 85
2, 107777, Note_on_c, 0, 79, 101
2, 107777, Note_on_c, 0, 67, 85
2, 107781, Note_on_c, 0, 55, 78
2, 107782, Note_on_c, 0, 76, 87
2, 107783, Note_on_c, 0, 71, 91
2, 108111, Note_on_c, 0, 52, 0
2, 108118, Note_on_c, 0, 52, 86
2, 108395, Note_on_c, 0, 78, 0
2, 108448, Note_on_c, 0, 81, 0
2, 108448, Note_on_c, 0, 47, 0
2, 108448, Note_on_c, 0, 69, 0
2, 108448, Note_on_c, 0, 52, 0
2, 108449, Control_c, 0, 64, 0
2, 108449, Note_on_c, 0, 71, 0
2, 108449, Note_on_c, 0, 40, 0
2, 108450, Note_on_c, 0, 64, 0
2, 108450, Note_on_c, 0, 76, 0
2, 108450, Note_on_c, 0, 83, 0
2, 108450, Note_on_c, 0, 59, 0
2, 108450, Note_on_c, 0, 67, 0
2, 108450, Note_on_c, 0, 55, 0
2, 108450, Note_on_c, 0, 74, 0
2, 108450, Note_on_c, 0, 79, 0
2, 108476, Note_on_c, 0, 86, 107
2, 108486, Note_on_c, 0, 74, 99
2, 108487, Note_on_c, 0, 36, 88
2, 108489, Note_on_c, 0, 83, 96
2, 108489, Note_on_c, 0, 43, 88
2, 108490, Note_on_c, 0, 79, 94
2, 108491, Note_on_c, 0, 48, 91
2, 108526, Control_c, 0, 64, 127
2, 108817, Note_on_c, 0, 48, 0
2, 108828, Note_on_c, 0, 48, 73
2, 109002, Note_on_c, 0, 36, 0
2, 109009, Note_on_c, 0, 86, 0
2, 109017, Note_on_c, 0, 74, 0
2, 109020, Note_on_c, 0, 86, 100
2, 109023, Note_on_c, 0, 55, 91
2, 109025, Note_on_c, 0, 79, 0
2, 109025, Note_on_c, 0, 83, 0
2, 109028, Note_on_c, 0, 52, 76
2, 109028, Note_on_c, 0, 74, 93
2, 109030, Note_on_c, 0, 83, 89
2, 109032, Note_on_c, 0, 79, 82
2, 109524, Note_on_c, 0, 83, 0
2, 109528, Note_on_c, 0, 83, 97
2, 109532, Note_on_c, 0, 48, 0
2, 109532, Note_on_c, 0, 74, 0
2, 109532, Note_on_c, 0, 79, 0
2, 109535, Note_on_c, 0, 71, 86
2, 109536, Note_on_c, 0, 74, 79
2, 109540, Note_on_c, 0, 79, 76
2, 109543, Note_on_c, 0, 48, 80
2, 109551, Note_on_c, 0, 36, 68
2, 109555, Note_on_c, 0, 36, 0
2, 109854, Note_on_c, 0, 55, 0
2, 109854, Note_on_c, 0, 74, 0
2, 109855, Note_on_c, 0, 64, 89
2, 109857, Note_on_c, 0, 81, 100
2, 109858, Note_on_c, 0, 55, 84
2, 109859, Note_on_c, 0, 60, 71
2, 109860, Note_on_c, 0, 69, 91
2, 109863, Note_on_c, 0, 74, 90
2, 109870, Note_on_c, 0, 60, 0
2, 110192, Note_on_c, 0, 48, 0
2, 110196, Note_on_c, 0, 48, 69
2, 110197, Note_on_c, 0, 60, 64
2, 110200, Note_on_c, 0, 55, 0
2, 110200, Note_on_c, 0, 79, 0
2, 110205, Note_on_c, 0, 55, 68
2, 110206, Note_on_c, 0, 79, 98
2, 110208, Note_on_c, 0, 71, 0
2, 110212, Note_on_c, 0, 67, 82
2, 110215, Note_on_c, 0, 74, 0
2, 110215, Note_on_c, 0, 71, 85
2, 110223, Note_on_c, 0, 74, 62
2, 110512, Note_on_c, 0, 48, 0
2, 110513, Note_on_c, 0, 81, 0
2, 110513, Note_on_c, 0, 74, 0
2, 110513, Note_on_c, 0, 52, 0
2, 110514, Note_on_c, 0, 69, 0
2, 110514, Note_on_c, 0, 64, 0
2, 110514, Note_on_c, 0, 43, 0
2, 110514, Note_on_c, 0, 71, 0
2, 110515, Note_on_c, 0, 83, 0
2, 110515, Note_on_c, 0, 55, 0
2, 110515, Note_on_c, 0, 67, 0
2, 110515, Control_c, 0, 64, 0
2, 110516, Note_on_c, 0, 86, 0
2, 110530, Note_on_c, 0, 60, 0
2, 110545, Note_on_c, 0, 79, 0
2, 110555, Note_on_c, 0, 79, 98
2, 110557, Note_on_c, 0, 43, 83
2, 110557, Note_on_c, 0, 67, 89
2, 110557, Note_on_c, 0, 55, 82
2, 110558, Note_on_c, 0, 71, 91
2, 110559, Note_on_c, 0, 50, 76
2, 110599, Control_c, 0, 64, 127
2, 110739, Note_on_c, 0, 74, 82
2, 110765, Note_on_c, 0, 75, 60
2, 110883, Note_on_c, 0, 50, 0
2, 110883, Note_on_c, 0, 74, 0
2, 110889, Note_on_c, 0, 50, 65
2, 110892, Note_on_c, 0, 74, 50
2, 111075, Note_on_c, 0, 74, 0
2, 111081, Note_on_c, 0, 74, 95
2, 111083, Note_on_c, 0, 71, 0
2, 111089, Note_on_c, 0, 62, 83
2, 111091, Note_on_c, 0, 55, 0
2, 111091, Note_on_c, 0, 67, 0
2, 111094, Note_on_c, 0, 71, 79
2, 111095, Note_on_c, 0, 59, 71
2, 111095, Note_on_c, 0, 55, 74
2, 111098, Note_on_c, 0, 67, 73
2, 111621, Note_on_c, 0, 50, 0
2, 111627, Note_on_c, 0, 50, 69
2, 111957, Note_on_c, 0, 78, 100
2, 111959, Note_on_c, 0, 59, 0
2, 111962, Note_on_c, 0, 66, 91
2, 111962, Note_on_c, 0, 69, 87
2, 111964, Note_on_c, 0, 59, 77
2, 111966, Note_on_c, 0, 55, 0
2, 111970, Note_on_c, 0, 55, 75
2, 112296, Note_on_c, 0, 50, 0
2, 112302, Note_on_c, 0, 50, 63
2, 112635, Control_c, 0, 64, 0
2, 112636, Note_on_c, 0, 71, 0
2, 112637, Note_on_c, 0, 62, 0
2, 112637, Note_on_c, 0, 67, 0
2, 112637, Note_on_c, 0, 59, 0
2, 112637, Note_on_c, 0, 66, 0
2, 112637, Note_on_c, 0, 55, 0
2, 112637, Note_on_c, 0, 75, 0
2, 112638, Note_on_c, 0, 43, 0
2, 112638, Note_on_c, 0, 78, 0
2, 112650, Note_on_c, 0, 79, 0
2, 112655, Note_on_c, 0, 79, 98
2, 112657, Note_on_c, 0, 50, 0
2, 112657, Note_on_c, 0, 69, 0
2, 112657, Note_on_c, 0, 74, 0
2, 112662, Note_on_c, 0, 67, 83
2, 112662, Note_on_c, 0, 74, 80
2, 112664, Note_on_c, 0, 38, 79
2, 112665, Note_on_c, 0, 50, 77
2, 112667, Note_on_c, 0, 69, 82
2, 112675, Note_on_c, 0, 45, 72
2, 112734, Control_c, 0, 64, 127
2, 112995, Note_on_c, 0, 50, 0
2, 113000, Note_on_c, 0, 50, 62
2, 113170, Note_on_c, 0, 57, 69
2, 113184, Note_on_c, 0, 54, 64
2, 113671, Note_on_c, 0, 50, 0
2, 113676, Note_on_c, 0, 50, 50
2, 114017, Note_on_c, 0, 57, 0
2, 114024, Note_on_c, 0, 57, 61
2, 114034, Note_on_c, 0, 81, 86
2, 114040, Note_on_c, 0, 69, 0
2, 114046, Note_on_c, 0, 62, 59
2, 114048, Note_on_c, 0, 74, 0
2, 114050, Note_on_c, 0, 69, 69
2, 114053, Note_on_c, 0, 78, 78
2, 114055, Note_on_c, 0, 54, 0
2, 114065, Note_on_c, 0, 54, 59
2, 114378, Note_on_c, 0, 50, 0
2, 114387, Note_on_c, 0, 50, 54
2, 114739, Note_on_c, 0, 79, 0
2, 114743, Note_on_c, 0, 79, 83
2, 114747, Control_c, 0, 64, 0
2, 114748, Note_on_c, 0, 45, 0
2, 114749, Note_on_c, 0, 62, 0
2, 114750, Note_on_c, 0, 81, 0
2, 114750, Note_on_c, 0, 57, 0
2, 114750, Note_on_c, 0, 54, 0
2, 114750, Note_on_c, 0, 69, 0
2, 114750, Note_on_c, 0, 78, 0
2, 114750, Note_on_c, 0, 50, 0
2, 114753, Note_on_c, 0, 52, 63
2, 114754, Note_on_c, 0, 38, 0
2, 114754, Note_on_c, 0, 67, 0
2, 114758, Note_on_c, 0, 71, 59
2, 114760, Note_on_c, 0, 67, 61
2, 114767, Note_on_c, 0, 76, 49
2, 114984, Control_c, 0, 64, 127
2, 115102, Note_on_c, 0, 59, 53
2, 115293, Note_on_c, 0, 64, 57
2, 115814, Note_on_c, 0, 59, 0
2, 115821, Note_on_c, 0, 59, 60
2, 116160, Note_on_c, 0, 67, 0
2, 116165, Note_on_c, 0, 67, 65
2, 116505, Note_on_c, 0, 64, 0
2, 116509, Note_on_c, 0, 64, 62
2, 116851, Note_on_c, 0, 71, 0
2, 116861, Note_on_c, 0, 48, 52
2, 116862, Note_on_c, 0, 71, 73
2, 116881, Note_on_c, 0, 64, 0
2, 116886, Note_on_c, 0, 64, 58
2, 116893, Control_c, 0, 64, 0
2, 116897, Note_on_c, 0, 67, 0
2, 116901, Note_on_c, 0, 67, 43
2, 116906, Note_on_c, 0, 52, 0
2, 116908, Note_on_c, 0, 59, 0
2, 116908, Note_on_c, 0, 79, 0
2, 116908, Note_on_c, 0, 76, 0
2, 117012, Control_c, 0, 64, 127
2, 117216, Note_on_c, 0, 55, 54
2, 117411, Note_on_c, 0, 60, 60
2, 117911, Note_on_c, 0, 55, 0
2, 117921, Note_on_c, 0, 55, 66
2, 118294, Note_on_c, 0, 69, 77
2, 118625, Note_on_c, 0, 60, 0
2, 118635, Note_on_c, 0, 60, 61
2, 118970, Note_on_c, 0, 71, 0
2, 118977, Note_on_c, 0, 71, 81
2, 118987, Note_on_c, 0, 43, 57
2, 118993, Note_on_c, 0, 67, 0
2, 119000, Note_on_c, 0, 62, 57
2, 119001, Note_on_c, 0, 60, 0
2, 119003, Note_on_c, 0, 48, 0
2, 119003, Note_on_c, 0, 69, 0
2, 119003, Note_on_c, 0, 67, 59
2, 119004, Control_c, 0, 64, 0
2, 119016, Note_on_c, 0, 64, 0
2, 119040, Note_on_c, 0, 55, 0
2, 119116, Control_c, 0, 64, 127
2, 119315, Note_on_c, 0, 50, 47
2, 119497, Note_on_c, 0, 55, 64
2, 120007, Note_on_c, 0, 50, 0
2, 120013, Note_on_c, 0, 50, 52
2, 120367, Note_on_c, 0, 59, 66
2, 120721, Note_on_c, 0, 50, 0
2, 120733, Note_on_c, 0, 50, 27
2, 120960, Note_on_c, 0, 43, 0
2, 120960, Note_on_c, 0, 62, 0
2, 120960, Note_on_c, 0, 67, 0
2, 120960, Note_on_c, 0, 71, 0
2, 121077, Note_on_c, 0, 64, 71
2, 121084, Control_c, 0, 64, 0
2, 121086, Note_on_c, 0, 38, 51
2, 121087, Note_on_c, 0, 50, 0
2, 121087, Note_on_c, 0, 59, 0
2, 121087, Note_on_c, 0, 55, 0
2, 121093, Note_on_c, 0, 57, 51
2, 121100, Note_on_c, 0, 62, 55
2, 121190, Control_c, 0, 64, 127
2, 121432, Note_on_c, 0, 45, 51
2, 121645, Note_on_c, 0, 50, 32
2, 122127, Note_on_c, 0, 45, 0
2, 122137, Note_on_c, 0, 45, 62
2, 122462, Note_on_c, 0, 69, 74
2, 122490, Note_on_c, 0, 54, 51
2, 122818, Note_on_c, 0, 50, 0
2, 122827, Note_on_c, 0, 50, 50
2, 123179, Note_on_c, 0, 67, 75
2, 123179, Note_on_c, 0, 62, 0
2, 123183, Note_on_c, 0, 40, 57
2, 123183, Control_c, 0, 64, 0
2, 123185, Note_on_c, 0, 62, 60
2, 123185, Note_on_c, 0, 64, 0
2, 123185, Note_on_c, 0, 45, 0
2, 123186, Note_on_c, 0, 54, 0
2, 123186, Note_on_c, 0, 50, 0
2, 123187, Note_on_c, 0, 69, 0
2, 123187, Note_on_c, 0, 59, 60
2, 123188, Note_on_c, 0, 38, 0
2, 123194, Note_on_c, 0, 57, 0
2, 123287, Control_c, 0, 64, 127
2, 123522, Note_on_c, 0, 47, 58
2, 123711, Note_on_c, 0, 52, 60
2, 124208, Note_on_c, 0, 47, 0
2, 124214, Note_on_c, 0, 47, 53
2, 124565, Note_on_c, 0, 55, 51
2, 124884, Note_on_c, 0, 52, 0
2, 124892, Note_on_c, 0, 52, 50
2, 125245, Note_on_c, 0, 48, 53
2, 125253, Control_c, 0, 64, 0
2, 125255, Note_on_c, 0, 40, 0
2, 125255, Note_on_c, 0, 52, 0
2, 125255, Note_on_c, 0, 47, 0
2, 125256, Note_on_c, 0, 62, 0
2, 125256, Note_on_c, 0, 59, 0
2, 125257, Note_on_c, 0, 55, 0
2, 125258, Note_on_c, 0, 64, 74
2, 125270, Note_on_c, 0, 60, 54
2, 125345, Control_c, 0, 64, 127
2, 125599, Note_on_c, 0, 55, 53
2, 125775, Note_on_c, 0, 60, 0
2, 125784, Note_on_c, 0, 60, 60
2, 126282, Note_on_c, 0, 55, 0
2, 126292, Note_on_c, 0, 55, 59
2, 126632, Note_on_c, 0, 69, 73
2, 126643, Note_on_c, 0, 64, 0
2, 126647, Note_on_c, 0, 64, 58
2, 126981, Note_on_c, 0, 55, 0
2, 126989, Note_on_c, 0, 55, 60
2, 127343, Note_on_c, 0, 71, 78
2, 127354, Note_on_c, 0, 43, 56
2, 127357, Note_on_c, 0, 67, 0
2, 127361, Note_on_c, 0, 67, 59
2, 127362, Note_on_c, 0, 62, 55
2, 127367, Note_on_c, 0, 48, 0
2, 127367, Note_on_c, 0, 60, 0
2, 127367, Control_c, 0, 64, 0
2, 127367, Note_on_c, 0, 55, 0
2, 127368, Note_on_c, 0, 64, 0
2, 127368, Note_on_c, 0, 69, 0
2, 127449, Control_c, 0, 64, 127
2, 127668, Note_on_c, 0, 50, 48
2, 127749, Note_on_c, 0, 43, 0
2, 127891, Note_on_c, 0, 59, 61
2, 128386, Note_on_c, 0, 50, 0
2, 128394, Note_on_c, 0, 50, 41
2, 128751, Note_on_c, 0, 55, 60
2, 128762, Note_on_c, 0, 67, 0
2, 128766, Note_on_c, 0, 67, 63
2, 129093, Note_on_c, 0, 50, 0
2, 129098, Note_on_c, 0, 50, 39
2, 129461, Note_on_c, 0, 50, 0
2, 129464, Note_on_c, 0, 55, 0
2, 129464, Control_c, 0, 64, 0
2, 129465, Note_on_c, 0, 59, 0
2, 129465, Note_on_c, 0, 67, 0
2, 129465, Note_on_c, 0, 71, 0
2, 129466, Note_on_c, 0, 50, 47
2, 129468, Note_on_c, 0, 69, 68
2, 129484, Note_on_c, 0, 62, 0
2, 129491, Note_on_c, 0, 62, 48
2, 129495, Note_on_c, 0, 64, 54
2, 129576, Control_c, 0, 64, 127
2, 129803, Note_on_c, 0, 57, 50
2, 130014, Note_on_c, 0, 62, 0
2, 130023, Note_on_c, 0, 62, 50
2, 130506, Note_on_c, 0, 57, 0
2, 130512, Note_on_c, 0, 57, 43
2, 130947, Note_on_c, 0, 86, 61
2, 130955, Note_on_c, 0, 74, 50
2, 130967, Note_on_c, 0, 62, 0
2, 130974, Note_on_c, 0, 62, 48
2, 130982, Note_on_c, 0, 66, 47
2, 130990, Note_on_c, 0, 50, 0
2, 132480, Note_on_c, 0, 57, 0
2, 132480, Note_on_c, 0, 64, 0
2, 132480, Note_on_c, 0, 69, 0
2, 133916, Note_on_c, 0, 74, 0
2, 133920, Note_on_c, 0, 74, 59
2, 134112, Note_on_c, 0, 48, 49
2, 134117, Note_on_c, 0, 76, 66
2, 134120, Note_on_c, 0, 72, 56
2, 134161, Control_c, 0, 64, 0
2, 134174, Note_on_c, 0, 66, 0
2, 134174, Note_on_c, 0, 86, 0
2, 134175, Note_on_c, 0, 74, 0
2, 134176, Note_on_c, 0, 62, 0
2, 134200, Control_c, 0, 64, 127
2, 134302, Note_on_c, 0, 55, 61
2, 134455, Note_on_c, 0, 74, 77
2, 134479, Note_on_c, 0, 60, 58
2, 134630, Note_on_c, 0, 76, 0
2, 134635, Note_on_c, 0, 76, 82
2, 134663, Note_on_c, 0, 64, 68
2, 134990, Note_on_c, 0, 79, 91
2, 135339, Note_on_c, 0, 78, 88
2, 135501, Note_on_c, 0, 60, 0
2, 135501, Note_on_c, 0, 74, 0
2, 135501, Note_on_c, 0, 48, 0
2, 135501, Note_on_c, 0, 72, 0
2, 135501, Note_on_c, 0, 64, 0
2, 135501, Note_on_c, 0, 76, 0
2, 135501, Note_on_c, 0, 55, 0
2, 135501, Note_on_c, 0, 79, 0
2, 135501, Control_c, 0, 64, 0
2, 135508, Note_on_c, 0, 50, 55
2, 135525, Note_on_c, 0, 69, 56
2, 135559, Control_c, 0, 64, 127
2, 135628, Note_on_c, 0, 50, 0
2, 135679, Note_on_c, 0, 76, 71
2, 135686, Note_on_c, 0, 57, 63
2, 135851, Note_on_c, 0, 74, 84
2, 135868, Note_on_c, 0, 62, 62
2, 136035, Note_on_c, 0, 66, 61
2, 136199, Note_on_c, 0, 71, 77
2, 136519, Note_on_c, 0, 74, 0
2, 136528, Note_on_c, 0, 74, 78
2, 136704, Note_on_c, 0, 74, 0
2, 136708, Note_on_c, 0, 74, 81
2, 136871, Note_on_c, 0, 69, 0
2, 136872, Note_on_c, 0, 71, 0
2, 136872, Note_on_c, 0, 76, 0
2, 136872, Note_on_c, 0, 57, 0
2, 136872, Note_on_c, 0, 62, 0
2, 136872, Note_on_c, 0, 66, 0
2, 136874, Control_c, 0, 64, 0
2, 136880, Note_on_c, 0, 74, 0
2, 136880, Note_on_c, 0, 78, 0
2, 136887, Note_on_c, 0, 52, 58
2, 136888, Note_on_c, 0, 74, 80
2, 136909, Note_on_c, 0, 69, 63
2, 136942, Control_c, 0, 64, 127
2, 137041, Note_on_c, 0, 52, 0
2, 137061, Note_on_c, 0, 59, 65
2, 137247, Note_on_c, 0, 64, 56
2, 137396, Note_on_c, 0, 76, 77
2, 137418, Note_on_c, 0, 69, 0
2, 137423, Note_on_c, 0, 69, 59
2, 137928, Note_on_c, 0, 71, 78
2, 138170, Control_c, 0, 64, 0
2, 138173, Note_on_c, 0, 64, 0
2, 138173, Note_on_c, 0, 69, 0
2, 138173, Note_on_c, 0, 59, 0
2, 138174, Note_on_c, 0, 76, 0
2, 138174, Note_on_c, 0, 74, 0
2, 138232, Control_c, 0, 64, 127
2, 138241, Note_on_c, 0, 52, 62
2, 138401, Note_on_c, 0, 52, 0
2, 138418, Note_on_c, 0, 59, 64
2, 138584, Note_on_c, 0, 83, 61
2, 138602, Note_on_c, 0, 64, 67
2, 138735, Note_on_c, 0, 91, 75
2, 138758, Note_on_c, 0, 67, 67
2, 138915, Note_on_c, 0, 71, 0
2, 138919, Note_on_c, 0, 90, 76
2, 138921, Note_on_c, 0, 71, 64
2, 139075, Note_on_c, 0, 86, 75
2, 139246, Note_on_c, 0, 81, 76
2, 139420, Note_on_c, 0, 74, 79
2, 139588, Note_on_c, 0, 48, 63
2, 139594, Note_on_c, 0, 64, 0
2, 139595, Note_on_c, 0, 81, 0
2, 139595, Note_on_c, 0, 74, 0
2, 139595, Note_on_c, 0, 86, 0
2, 139595, Note_on_c, 0, 67, 0
2, 139595, Note_on_c, 0, 71, 0
2, 139595, Note_on_c, 0, 59, 0
2, 139595, Note_on_c, 0, 91, 0
2, 139595, Note_on_c, 0, 83, 0
2, 139595, Note_on_c, 0, 90, 0
2, 139596, Control_c, 0, 64, 0
2, 139613, Note_on_c, 0, 76, 77
2, 139619, Note_on_c, 0, 72, 73
2, 139668, Control_c, 0, 64, 127
2, 139772, Note_on_c, 0, 55, 64
2, 139852, Note_on_c, 0, 48, 0
2, 139933, Note_on_c, 0, 74, 83
2, 139959, Note_on_c, 0, 60, 64
2, 140106, Note_on_c, 0, 76, 0
2, 140113, Note_on_c, 0, 72, 0
2, 140117, Note_on_c, 0, 64, 73
2, 140117, Note_on_c, 0, 76, 80
2, 140124, Note_on_c, 0, 72, 54
2, 140455, Note_on_c, 0, 79, 89
2, 140818, Note_on_c, 0, 78, 88
2, 140964, Control_c, 0, 64, 0
2, 140965, Note_on_c, 0, 60, 0
2, 140966, Note_on_c, 0, 72, 0
2, 140966, Note_on_c, 0, 55, 0
2, 140967, Note_on_c, 0, 74, 0
2, 140967, Note_on_c, 0, 79, 0
2, 140967, Note_on_c, 0, 64, 0
2, 140981, Note_on_c, 0, 76, 0
2, 140983, Note_on_c, 0, 50, 61
2, 141027, Control_c, 0, 64, 127
2, 141104, Note_on_c, 0, 50, 0
2, 141148, Note_on_c, 0, 76, 74
2, 141170, Note_on_c, 0, 57, 64
2, 141323, Note_on_c, 0, 74, 87
2, 141347, Note_on_c, 0, 62, 62
2, 141517, Note_on_c, 0, 66, 57
2, 141677, Note_on_c, 0, 71, 80
2, 142021, Note_on_c, 0, 83, 84
2, 142187, Note_on_c, 0, 83, 0
2, 142194, Note_on_c, 0, 83, 83
2, 142359, Note_on_c, 0, 62, 0
2, 142359, Note_on_c, 0, 76, 0
2, 142359, Note_on_c, 0, 57, 0
2, 142359, Note_on_c, 0, 71, 0
2, 142359, Control_c, 0, 64, 0
2, 142359, Note_on_c, 0, 78, 0
2, 142359, Note_on_c, 0, 66, 0
2, 142364, Note_on_c, 0, 83, 0
2, 142371, Note_on_c, 0, 52, 56
2, 142371, Note_on_c, 0, 74, 0
2, 142374, Note_on_c, 0, 83, 89
2, 142381, Note_on_c, 0, 74, 70
2, 142425, Control_c, 0, 64, 127
2, 142525, Note_on_c, 0, 52, 0
2, 142539, Note_on_c, 0, 59, 62
2, 142720, Note_on_c, 0, 64, 66
2, 142905, Note_on_c, 0, 69, 59
2, 143239, Note_on_c, 0, 83, 0
2, 143251, Note_on_c, 0, 83, 60
2, 143398, Note_on_c, 0, 88, 75
2, 143574, Note_on_c, 0, 93, 83
2, 143699, Note_on_c, 0, 74, 0
2, 143702, Note_on_c, 0, 69, 0
2, 143702, Note_on_c, 0, 59, 0
2, 143702, Note_on_c, 0, 64, 0
2, 143702, Note_on_c, 0, 83, 0
2, 143702, Note_on_c, 0, 88, 0
2, 143704, Control_c, 0, 64, 0
2, 143736, Note_on_c, 0, 92, 82
2, 143738, Note_on_c, 0, 52, 62
2, 143746, Control_c, 0, 64, 127
2, 143886, Note_on_c, 0, 88, 77
2, 143913, Note_on_c, 0, 59, 67
2, 144074, Note_on_c, 0, 83, 62
2, 144079, Note_on_c, 0, 64, 66
2, 144230, Note_on_c, 0, 93, 0
2, 144234, Note_on_c, 0, 80, 70
2, 144240, Note_on_c, 0, 68, 60
2, 144407, Note_on_c, 0, 71, 68
2, 144430, Note_on_c, 0, 64, 0
2, 144435, Note_on_c, 0, 64, 48
2, 144775, Note_on_c, 0, 52, 0
2, 144785, Note_on_c, 0, 52, 43
2, 145128, Note_on_c, 0, 83, 0
2, 145139, Note_on_c, 0, 83, 88
2, 145146, Note_on_c, 0, 92, 0
2, 145147, Note_on_c, 0, 52, 0
2, 145148, Note_on_c, 0, 68, 0
2, 145148, Note_on_c, 0, 64, 0
2, 145148, Note_on_c, 0, 80, 0
2, 145148, Note_on_c, 0, 48, 64
2, 145148, Note_on_c, 0, 59, 0
2, 145148, Note_on_c, 0, 88, 0
2, 145150, Control_c, 0, 64, 0
2, 145152, Note_on_c, 0, 71, 0
2, 145158, Note_on_c, 0, 79, 69
2, 145162, Note_on_c, 0, 71, 65
2, 145205, Control_c, 0, 64, 127
2, 145301, Note_on_c, 0, 55, 62
2, 145313, Note_on_c, 0, 48, 0
2, 145482, Note_on_c, 0, 83, 0
2, 145489, Note_on_c, 0, 60, 70
2, 145489, Note_on_c, 0, 83, 76
2, 145489, Note_on_c, 0, 71, 0
2, 145495, Note_on_c, 0, 71, 52
2, 145658, Note_on_c, 0, 83, 0
2, 145666, Note_on_c, 0, 83, 84
2, 145666, Note_on_c, 0, 71, 0
2, 145670, Note_on_c, 0, 64, 71
2, 145670, Note_on_c, 0, 71, 70
2, 146012, Note_on_c, 0, 79, 0
2, 146016, Note_on_c, 0, 79, 89
2, 146376, Note_on_c, 0, 78, 86
2, 146382, Note_on_c, 0, 74, 74
2, 146385, Note_on_c, 0, 69, 69
2, 146522, Note_on_c, 0, 60, 0
2, 146522, Note_on_c, 0, 64, 0
2, 146523, Note_on_c, 0, 55, 0
2, 146523, Note_on_c, 0, 83, 0
2, 146523, Note_on_c, 0, 71, 0
2, 146523, Note_on_c, 0, 79, 0
2, 146524, Control_c, 0, 64, 0
2, 146543, Note_on_c, 0, 48, 71
2, 146588, Control_c, 0, 64, 127
2, 146716, Note_on_c, 0, 57, 68
2, 146717, Note_on_c, 0, 79, 88
2, 146882, Note_on_c, 0, 62, 68
2, 147067, Note_on_c, 0, 81, 90
2, 147068, Note_on_c, 0, 66, 70
2, 147079, Note_on_c, 0, 74, 0
2, 147087, Note_on_c, 0, 69, 0
2, 147090, Note_on_c, 0, 74, 58
2, 147094, Note_on_c, 0, 69, 58
2, 147417, Note_on_c, 0, 79, 0
2, 147423, Note_on_c, 0, 79, 89
2, 147425, Note_on_c, 0, 48, 0
2, 147943, Note_on_c, 0, 81, 0
2, 147943, Note_on_c, 0, 69, 0
2, 147943, Note_on_c, 0, 57, 0
2, 147943, Note_on_c, 0, 62, 0
2, 147944, Note_on_c, 0, 66, 0
2, 147945, Note_on_c, 0, 78, 0
2, 147945, Control_c, 0, 64, 0
2, 147954, Note_on_c, 0, 47, 65
2, 147962, Note_on_c, 0, 74, 0
2, 147977, Note_on_c, 0, 71, 65
2, 148001, Control_c, 0, 64, 127
2, 148133, Note_on_c, 0, 54, 71
2, 148134, Note_on_c, 0, 76, 75
2, 148289, Note_on_c, 0, 74, 80
2, 148291, Note_on_c, 0, 57, 74
2, 148459, Note_on_c, 0, 78, 82
2, 148459, Note_on_c, 0, 62, 71
2, 148638, Note_on_c, 0, 79, 0
2, 148643, Note_on_c, 0, 79, 90
2, 148650, Note_on_c, 0, 66, 67
2, 148792, Note_on_c, 0, 78, 0
2, 148801, Note_on_c, 0, 78, 85
2, 148970, Note_on_c, 0, 81, 89
2, 149137, Note_on_c, 0, 79, 0
2, 149147, Note_on_c, 0, 79, 88
2, 149276, Note_on_c, 0, 74, 0
2, 149287, Note_on_c, 0, 74, 50
2, 149314, Note_on_c, 0, 52, 61
2, 149325, Note_on_c, 0, 71, 0
2, 149325, Note_on_c, 0, 47, 0
2, 149325, Note_on_c, 0, 54, 0
2, 149325, Note_on_c, 0, 66, 0
2, 149325, Note_on_c, 0, 57, 0
2, 149326, Note_on_c, 0, 81, 0
2, 149326, Note_on_c, 0, 62, 0
2, 149326, Note_on_c, 0, 78, 0
2, 149326, Note_on_c, 0, 76, 0
2, 149327, Control_c, 0, 64, 0
2, 149399, Control_c, 0, 64, 127
2, 149489, Note_on_c, 0, 59, 61
2, 149506, Note_on_c, 0, 52, 0
2, 149671, Note_on_c, 0, 64, 61
2, 149864, Note_on_c, 0, 67, 62
2, 150405, Note_on_c, 0, 79, 0
2, 150411, Note_on_c, 0, 79, 83
2, 150750, Note_on_c, 0, 79, 0
2, 150761, Note_on_c, 0, 79, 89
2, 150769, Note_on_c, 0, 64, 0
2, 150769, Note_on_c, 0, 67, 0
2, 150769, Note_on_c, 0, 59, 0
2, 150771, Note_on_c, 0, 45, 58
2, 150772, Control_c, 0, 64, 0
2, 150781, Note_on_c, 0, 74, 0
2, 150794, Note_on_c, 0, 76, 52
2, 150794, Note_on_c, 0, 72, 61
2, 150794, Note_on_c, 0, 69, 56
2, 150835, Control_c, 0, 64, 127
2, 150932, Note_on_c, 0, 52, 55
2, 151098, Note_on_c, 0, 57, 59
2, 151111, Note_on_c, 0, 79, 0
2, 151122, Note_on_c, 0, 79, 81
2, 151268, Note_on_c, 0, 60, 63
2, 151296, Note_on_c, 0, 79, 0
2, 151301, Note_on_c, 0, 79, 86
2, 151303, Note_on_c, 0, 69, 0
2, 151303, Note_on_c, 0, 72, 0
2, 151309, Note_on_c, 0, 69, 54
2, 151312, Note_on_c, 0, 72, 65
2, 151334, Note_on_c, 0, 76, 0
2, 151338, Note_on_c, 0, 76, 45
2, 151626, Note_on_c, 0, 79, 0
2, 151636, Note_on_c, 0, 79, 88
2, 151987, Note_on_c, 0, 79, 0
2, 151995, Note_on_c, 0, 79, 86
2, 152152, Note_on_c, 0, 76, 0
2, 152152, Note_on_c, 0, 60, 0
2, 152152, Note_on_c, 0, 57, 0
2, 152152, Note_on_c, 0, 52, 0
2, 152152, Note_on_c, 0, 72, 0
2, 152153, Control_c, 0, 64, 0
2, 152163, Note_on_c, 0, 45, 0
2, 152163, Note_on_c, 0, 79, 0
2, 152172, Note_on_c, 0, 79, 85
2, 152175, Note_on_c, 0, 50, 58
2, 152179, Note_on_c, 0, 69, 0
2, 152189, Note_on_c, 0, 69, 65
2, 152199, Note_on_c, 0, 74, 43
2, 152217, Control_c, 0, 64, 127
2, 152325, Note_on_c, 0, 69, 0
2, 152325, Note_on_c, 0, 79, 0
2, 152335, Note_on_c, 0, 79, 87
2, 152336, Note_on_c, 0, 69, 63
2, 152359, Note_on_c, 0, 57, 62
2, 152363, Note_on_c, 0, 74, 0
2, 152367, Note_on_c, 0, 74, 43
2, 152496, Note_on_c, 0, 78, 85
2, 152524, Note_on_c, 0, 74, 0
2, 152536, Note_on_c, 0, 74, 53
2, 152536, Note_on_c, 0, 62, 56
2, 152667, Note_on_c, 0, 76, 78
2, 152700, Note_on_c, 0, 66, 55
2, 152839, Note_on_c, 0, 74, 0
2, 152848, Note_on_c, 0, 74, 84
2, 152870, Note_on_c, 0, 69, 0
2, 152876, Note_on_c, 0, 69, 58
2, 153169, Note_on_c, 0, 78, 0
2, 153180, Control_c, 0, 64, 0
2, 153181, Note_on_c, 0, 78, 88
2, 153181, Note_on_c, 0, 62, 0
2, 153181, Note_on_c, 0, 57, 0
2, 153181, Note_on_c, 0, 43, 64
2, 153181, Note_on_c, 0, 79, 0
2, 153182, Note_on_c, 0, 50, 0
2, 153182, Note_on_c, 0, 76, 0
2, 153182, Note_on_c, 0, 66, 0
2, 153185, Note_on_c, 0, 74, 0
2, 153195, Note_on_c, 0, 74, 65
2, 153200, Note_on_c, 0, 69, 0
2, 153205, Note_on_c, 0, 71, 59
2, 153206, Note_on_c, 0, 69, 56
2, 153254, Control_c, 0, 64, 127
2, 153363, Note_on_c, 0, 50, 53
2, 153508, Note_on_c, 0, 55, 59
2, 153689, Note_on_c, 0, 59, 54
2, 153850, Note_on_c, 0, 79, 88
2, 153876, Note_on_c, 0, 71, 0
2, 153876, Note_on_c, 0, 74, 0
2, 153881, Note_on_c, 0, 74, 55
2, 153881, Note_on_c, 0, 62, 59
2, 153886, Note_on_c, 0, 71, 45
2, 154360, Note_on_c, 0, 55, 0
2, 154364, Note_on_c, 0, 55, 58
2, 154529, Note_on_c, 0, 62, 0
2, 154534, Note_on_c, 0, 62, 60
2, 154732, Note_on_c, 0, 67, 56
2, 154892, Note_on_c, 0, 81, 73
2, 154897, Note_on_c, 0, 74, 0
2, 154901, Note_on_c, 0, 74, 51
2, 155235, Note_on_c, 0, 79, 0
2, 155244, Note_on_c, 0, 79, 72
2, 155520, Note_on_c, 0, 43, 0
2, 155520, Note_on_c, 0, 50, 0
2, 155520, Note_on_c, 0, 69, 0
2, 155520, Note_on_c, 0, 78, 0
2, 155606, Note_on_c, 0, 86, 75
2, 156314, Note_on_c, 0, 81, 0
2, 156314, Note_on_c, 0, 74, 0
2, 156315, Note_on_c, 0, 59, 0
2, 156315, Note_on_c, 0, 67, 0
2, 156315, Note_on_c, 0, 62, 0
2, 156315, Note_on_c, 0, 86, 0
2, 156317, Note_on_c, 0, 55, 0
2, 156320, Control_c, 0, 64, 0
2, 156328, Note_on_c, 0, 48, 61
2, 156330, Note_on_c, 0, 83, 87
2, 156349, Note_on_c, 0, 71, 0
2, 156356, Note_on_c, 0, 71, 63
2, 156357, Note_on_c, 0, 79, 0
2, 156361, Note_on_c, 0, 79, 63
2, 156377, Note_on_c, 0, 76, 41
2, 156380, Control_c, 0, 64, 127
2, 156449, Note_on_c, 0, 71, 0
2, 156503, Note_on_c, 0, 83, 0
2, 156511, Note_on_c, 0, 55, 66
2, 156512, Note_on_c, 0, 83, 80
2, 156685, Note_on_c, 0, 81, 84
2, 156691, Note_on_c, 0, 60, 67
2, 156718, Note_on_c, 0, 72, 42
2, 156725, Note_on_c, 0, 72, 0
2, 156843, Note_on_c, 0, 64, 67
2, 157009, Note_on_c, 0, 81, 0
2, 157020, Note_on_c, 0, 81, 86
2, 157041, Note_on_c, 0, 67, 61
2, 157047, Note_on_c, 0, 72, 61
2, 157363, Note_on_c, 0, 64, 0
2, 157364, Note_on_c, 0, 79, 0
2, 157364, Note_on_c, 0, 55, 0
2, 157364, Note_on_c, 0, 60, 0
2, 157364, Note_on_c, 0, 67, 0
2, 157364, Note_on_c, 0, 83, 0
2, 157366, Control_c, 0, 64, 0
2, 157366, Note_on_c, 0, 48, 0
2, 157366, Note_on_c, 0, 50, 68
2, 157371, Note_on_c, 0, 86, 73
2, 157378, Note_on_c, 0, 72, 0
2, 157378, Note_on_c, 0, 76, 0
2, 157378, Note_on_c, 0, 81, 0
2, 157379, Note_on_c, 0, 84, 69
2, 157385, Note_on_c, 0, 72, 54
2, 157388, Note_on_c, 0, 76, 52
2, 157389, Note_on_c, 0, 74, 54
2, 157424, Control_c, 0, 64, 127
2, 157542, Note_on_c, 0, 57, 66
2, 157543, Note_on_c, 0, 83, 82
2, 157721, Note_on_c, 0, 79, 89
2, 157727, Note_on_c, 0, 62, 70
2, 157747, Note_on_c, 0, 72, 0
2, 157887, Note_on_c, 0, 66, 62
2, 158058, Note_on_c, 0, 78, 90
2, 158061, Note_on_c, 0, 69, 69
2, 158420, Note_on_c, 0, 43, 69
2, 158425, Note_on_c, 0, 83, 0
2, 158425, Note_on_c, 0, 62, 0
2, 158426, Note_on_c, 0, 57, 0
2, 158426, Note_on_c, 0, 79, 0
2, 158426, Note_on_c, 0, 50, 0
2, 158426, Note_on_c, 0, 69, 0
2, 158426, Note_on_c, 0, 78, 0
2, 158426, Note_on_c, 0, 76, 0
2, 158426, Note_on_c, 0, 66, 0
2, 158426, Control_c, 0, 64, 0
2, 158427, Note_on_c, 0, 86, 0
2, 158427, Note_on_c, 0, 84, 0
2, 158430, Note_on_c, 0, 74, 0
2, 158499, Control_c, 0, 64, 127
2, 158602, Note_on_c, 0, 79, 91
2, 158620, Note_on_c, 0, 71, 63
2, 158622, Note_on_c, 0, 74, 58
2, 158779, Note_on_c, 0, 55, 62
2, 158946, Note_on_c, 0, 59, 65
2, 159313, Note_on_c, 0, 55, 0
2, 159318, Note_on_c, 0, 55, 62
2, 159482, Note_on_c, 0, 59, 0
2, 159487, Note_on_c, 0, 59, 66
2, 159663, Note_on_c, 0, 62, 76
2, 159836, Note_on_c, 0, 71, 0
2, 159839, Note_on_c, 0, 67, 86
2, 159847, Note_on_c, 0, 71, 71
2, 160552, Note_on_c, 0, 54, 95
2, 160553, Note_on_c, 0, 42, 90
2, 161280, Note_on_c, 0, 55, 0
2, 161284, Note_on_c, 0, 55, 94
2, 161287, Note_on_c, 0, 40, 88
2, 161287, Note_on_c, 0, 47, 90
2, 161287, Note_on_c, 0, 67, 0
2, 161287, Note_on_c, 0, 79, 0
2, 161294, Control_c, 0, 64, 0
2, 161294, Note_on_c, 0, 79, 100
2, 161295, Note_on_c, 0, 71, 0
2, 161297, Note_on_c, 0, 67, 95
2, 161299, Note_on_c, 0, 71, 84
2, 161311, Note_on_c, 0, 59, 0
2, 161311, Note_on_c, 0, 62, 0
2, 161312, Note_on_c, 0, 43, 0
2, 161313, Note_on_c, 0, 54, 0
2, 161313, Note_on_c, 0, 74, 0
2, 161319, Note_on_c, 0, 42, 0
2, 161364, Control_c, 0, 64, 127
2, 161627, Note_on_c, 0, 78, 88
2, 161627, Note_on_c, 0, 52, 76
2, 161633, Note_on_c, 0, 66, 75
2, 161809, Note_on_c, 0, 55, 0
2, 161809, Note_on_c, 0, 67, 0
2, 161809, Note_on_c, 0, 79, 0
2, 161813, Note_on_c, 0, 59, 89
2, 161816, Note_on_c, 0, 79, 96
2, 161817, Note_on_c, 0, 71, 0
2, 161820, Note_on_c, 0, 55, 89
2, 161820, Note_on_c, 0, 67, 88
2, 161824, Note_on_c, 0, 76, 84
2, 161824, Note_on_c, 0, 71, 82
2, 161829, Note_on_c, 0, 74, 74
2, 162153, Note_on_c, 0, 83, 98
2, 162155, Note_on_c, 0, 71, 0
2, 162159, Note_on_c, 0, 71, 86
2, 162324, Note_on_c, 0, 52, 0
2, 162328, Note_on_c, 0, 52, 82
2, 162493, Note_on_c, 0, 55, 0
2, 162502, Note_on_c, 0, 55, 82
2, 162662, Note_on_c, 0, 66, 0
2, 162662, Note_on_c, 0, 78, 0
2, 162667, Note_on_c, 0, 78, 100
2, 162668, Note_on_c, 0, 66, 99
2, 162670, Note_on_c, 0, 59, 0
2, 162670, Note_on_c, 0, 74, 0
2, 162674, Note_on_c, 0, 64, 93
2, 162674, Note_on_c, 0, 59, 85
2, 162676, Note_on_c, 0, 69, 76
2, 162676, Note_on_c, 0, 74, 76
2, 162823, Note_on_c, 0, 76, 0
2, 162829, Note_on_c, 0, 76, 85
2, 162846, Note_on_c, 0, 64, 0
2, 162852, Note_on_c, 0, 64, 80
2, 162984, Note_on_c, 0, 52, 0
2, 162994, Note_on_c, 0, 52, 80
2, 163023, Note_on_c, 0, 69, 0
2, 163023, Note_on_c, 0, 74, 0
2, 163027, Note_on_c, 0, 74, 96
2, 163034, Note_on_c, 0, 69, 81
2, 163038, Note_on_c, 0, 66, 0
2, 163045, Note_on_c, 0, 66, 78
2, 163048, Note_on_c, 0, 62, 81
2, 163319, Control_c, 0, 64, 0
2, 163320, Note_on_c, 0, 47, 0
2, 163320, Note_on_c, 0, 52, 0
2, 163320, Note_on_c, 0, 64, 0
2, 163320, Note_on_c, 0, 55, 0
2, 163320, Note_on_c, 0, 62, 0
2, 163321, Note_on_c, 0, 71, 0
2, 163321, Note_on_c, 0, 59, 0
2, 163321, Note_on_c, 0, 79, 0
2, 163321, Note_on_c, 0, 40, 0
2, 163321, Note_on_c, 0, 69, 0
2, 163321, Note_on_c, 0, 67, 0
2, 163322, Note_on_c, 0, 83, 0
2, 163323, Note_on_c, 0, 78, 0
2, 163324, Note_on_c, 0, 66, 0
2, 163338, Note_on_c, 0, 76, 0
2, 163364, Note_on_c, 0, 48, 101
2, 163365, Note_on_c, 0, 43, 87
2, 163367, Note_on_c, 0, 36, 93
2, 163407, Control_c, 0, 64, 127
2, 163714, Note_on_c, 0, 48, 0
2, 163718, Note_on_c, 0, 48, 72
2, 163725, Note_on_c, 0, 79, 91
2, 163731, Note_on_c, 0, 67, 84
2, 163896, Note_on_c, 0, 55, 93
2, 163898, Note_on_c, 0, 79, 0
2, 163899, Note_on_c, 0, 52, 78
2, 163906, Note_on_c, 0, 67, 0
2, 163907, Note_on_c, 0, 79, 101
2, 163910, Note_on_c, 0, 67, 90
2, 163911, Note_on_c, 0, 76, 83
2, 163916, Note_on_c, 0, 72, 82
2, 164221, Note_on_c, 0, 48, 0
2, 164229, Note_on_c, 0, 48, 75
2, 164405, Note_on_c, 0, 52, 0
2, 164405, Note_on_c, 0, 55, 0
2, 164411, Note_on_c, 0, 55, 86
2, 164414, Note_on_c, 0, 52, 73
2, 164567, Note_on_c, 0, 48, 0
2, 164578, Note_on_c, 0, 48, 87
2, 164744, Note_on_c, 0, 57, 103
2, 165066, Note_on_c, 0, 48, 0
2, 165073, Note_on_c, 0, 48, 79
2, 165419, Note_on_c, 0, 36, 0
2, 165427, Note_on_c, 0, 43, 0
2, 165431, Control_c, 0, 64, 0
2, 165434, Note_on_c, 0, 55, 0
2, 165434, Note_on_c, 0, 79, 0
2, 165437, Note_on_c, 0, 43, 86
2, 165438, Note_on_c, 0, 55, 88
2, 165441, Note_on_c, 0, 59, 92
2, 165442, Note_on_c, 0, 67, 0
2, 165442, Note_on_c, 0, 74, 0
2, 165445, Note_on_c, 0, 79, 104
2, 165446, Note_on_c, 0, 50, 80
2, 165446, Note_on_c, 0, 67, 93
2, 165447, Note_on_c, 0, 71, 92
2, 165451, Note_on_c, 0, 74, 89
2, 165465, Note_on_c, 0, 48, 0
2, 165466, Note_on_c, 0, 76, 0
2, 165466, Note_on_c, 0, 57, 0
2, 165467, Note_on_c, 0, 72, 0
2, 165468, Note_on_c, 0, 52, 0
2, 165496, Note_on_c, 0, 55, 0
2, 165519, Control_c, 0, 64, 127
2, 165783, Note_on_c, 0, 78, 91
2, 165792, Note_on_c, 0, 62, 62
2, 165801, Note_on_c, 0, 66, 74
2, 165957, Note_on_c, 0, 79, 0
2, 165964, Note_on_c, 0, 59, 0
2, 165964, Note_on_c, 0, 71, 0
2, 165964, Note_on_c, 0, 74, 0
2, 165966, Note_on_c, 0, 55, 92
2, 165967, Note_on_c, 0, 79, 100
2, 165968, Note_on_c, 0, 59, 88
2, 165969, Note_on_c, 0, 74, 88
2, 165970, Note_on_c, 0, 71, 86
2, 166302, Note_on_c, 0, 71, 0
2, 166302, Note_on_c, 0, 74, 0
2, 166304, Note_on_c, 0, 83, 104
2, 166308, Note_on_c, 0, 74, 87
2, 166310, Note_on_c, 0, 71, 92
2, 166464, Note_on_c, 0, 55, 0
2, 166471, Note_on_c, 0, 55, 90
2, 166632, Note_on_c, 0, 59, 0
2, 166637, Note_on_c, 0, 59, 86
2, 166809, Note_on_c, 0, 62, 0
2, 166809, Note_on_c, 0, 66, 0
2, 166809, Note_on_c, 0, 74, 0
2, 166809, Note_on_c, 0, 78, 0
2, 166813, Note_on_c, 0, 78, 99
2, 166817, Note_on_c, 0, 71, 0
2, 166818, Note_on_c, 0, 62, 83
2, 166819, Note_on_c, 0, 66, 91
2, 166820, Note_on_c, 0, 74, 79
2, 166822, Note_on_c, 0, 69, 77
2, 166826, Note_on_c, 0, 71, 68
2, 166975, Note_on_c, 0, 76, 91
2, 166993, Note_on_c, 0, 64, 84
2, 167132, Note_on_c, 0, 55, 0
2, 167141, Note_on_c, 0, 55, 86
2, 167162, Note_on_c, 0, 74, 0
2, 167170, Note_on_c, 0, 74, 96
2, 167170, Note_on_c, 0, 62, 0
2, 167170, Note_on_c, 0, 69, 0
2, 167177, Note_on_c, 0, 69, 83
2, 167178, Note_on_c, 0, 66, 0
2, 167181, Note_on_c, 0, 62, 86
2, 167188, Note_on_c, 0, 66, 79
2, 167468, Note_on_c, 0, 50, 0
2, 167469, Note_on_c, 0, 69, 0
2, 167469, Note_on_c, 0, 79, 0
2, 167470, Note_on_c, 0, 71, 0
2, 167470, Note_on_c, 0, 76, 0
2, 167470, Note_on_c, 0, 59, 0
2, 167471, Note_on_c, 0, 64, 0
2, 167472, Control_c, 0, 64, 0
2, 167472, Note_on_c, 0, 66, 0
2, 167472, Note_on_c, 0, 78, 0
2, 167474, Note_on_c, 0, 83, 0
2, 167477, Note_on_c, 0, 43, 0
2, 167485, Note_on_c, 0, 67, 0
2, 167493, Note_on_c, 0, 55, 0
2, 167493, Note_on_c, 0, 62, 0
2, 167504, Note_on_c, 0, 50, 97
2, 167504, Note_on_c, 0, 45, 93
2, 167505, Note_on_c, 0, 38, 89
2, 167554, Control_c, 0, 64, 127
2, 167838, Note_on_c, 0, 50, 0
2, 167849, Note_on_c, 0, 50, 70
2, 167850, Note_on_c, 0, 81, 95
2, 167854, Note_on_c, 0, 74, 0
2, 167858, Note_on_c, 0, 69, 83
2, 167865, Note_on_c, 0, 74, 56
2, 168030, Note_on_c, 0, 50, 0
2, 168030, Note_on_c, 0, 81, 0
2, 168030, Note_on_c, 0, 57, 85
2, 168034, Note_on_c, 0, 81, 93
2, 168036, Note_on_c, 0, 54, 85
2, 168037, Note_on_c, 0, 50, 74
2, 168038, Note_on_c, 0, 69, 0
2, 168038, Note_on_c, 0, 74, 0
2, 168048, Note_on_c, 0, 74, 78
2, 168049, Note_on_c, 0, 78, 87
2, 168049, Note_on_c, 0, 69, 76
2, 168368, Note_on_c, 0, 50, 0
2, 168380, Note_on_c, 0, 50, 67
2, 168545, Note_on_c, 0, 54, 0
2, 168545, Note_on_c, 0, 57, 0
2, 168554, Note_on_c, 0, 57, 78
2, 168556, Note_on_c, 0, 54, 77
2, 168714, Note_on_c, 0, 50, 0
2, 168722, Note_on_c, 0, 50, 80
2, 168890, Note_on_c, 0, 74, 0
2, 168897, Note_on_c, 0, 79, 102
2, 168898, Note_on_c, 0, 54, 0
2, 168898, Note_on_c, 0, 57, 0
2, 168898, Note_on_c, 0, 69, 0
2, 168901, Note_on_c, 0, 62, 89
2, 168902, Note_on_c, 0, 74, 87
2, 168902, Note_on_c, 0, 57, 81
2, 168906, Note_on_c, 0, 69, 80
2, 168907, Note_on_c, 0, 54, 83
2, 169228, Note_on_c, 0, 50, 0
2, 169239, Note_on_c, 0, 50, 80
2, 169574, Note_on_c, 0, 81, 0
2, 169580, Note_on_c, 0, 45, 0
2, 169581, Note_on_c, 0, 81, 104
2, 169581, Note_on_c, 0, 79, 0
2, 169582, Note_on_c, 0, 62, 0
2, 169583, Note_on_c, 0, 57, 0
2, 169585, Note_on_c, 0, 50, 0
2, 169585, Note_on_c, 0, 54, 0
2, 169586, Control_c, 0, 64, 0
2, 169589, Note_on_c, 0, 69, 0
2, 169589, Note_on_c, 0, 74, 0
2, 169589, Note_on_c, 0, 78, 0
2, 169592, Note_on_c, 0, 47, 94
2, 169592, Note_on_c, 0, 40, 93
2, 169593, Note_on_c, 0, 74, 87
2, 169594, Note_on_c, 0, 69, 83
2, 169594, Note_on_c, 0, 78, 91
2, 169597, Note_on_c, 0, 38, 0
2, 169697, Control_c, 0, 64, 127
2, 169951, Note_on_c, 0, 52, 76
2, 170139, Note_on_c, 0, 59, 89
2, 170142, Note_on_c, 0, 55, 86
2, 170144, Note_on_c, 0, 83, 104
2, 170150, Note_on_c, 0, 79, 92
2, 170153, Note_on_c, 0, 71, 94
2, 170159, Note_on_c, 0, 76, 79
2, 170488, Note_on_c, 0, 52, 0
2, 170497, Note_on_c, 0, 52, 73
2, 170672, Note_on_c, 0, 55, 0
2, 170672, Note_on_c, 0, 59, 0
2, 170677, Note_on_c, 0, 59, 85
2, 170678, Note_on_c, 0, 55, 79
2, 170826, Note_on_c, 0, 52, 0
2, 170833, Note_on_c, 0, 52, 82
2, 171018, Note_on_c, 0, 55, 0
2, 171018, Note_on_c, 0, 59, 0
2, 171018, Note_on_c, 0, 76, 0
2, 171018, Note_on_c, 0, 79, 0
2, 171022, Note_on_c, 0, 79, 103
2, 171022, Note_on_c, 0, 64, 96
2, 171023, Note_on_c, 0, 59, 89
2, 171024, Note_on_c, 0, 55, 84
2, 171025, Note_on_c, 0, 71, 0
2, 171029, Note_on_c, 0, 76, 86
2, 171032, Note_on_c, 0, 71, 86
2, 171363, Note_on_c, 0, 52, 0
2, 171369, Note_on_c, 0, 52, 80
2, 171712, Note_on_c, 0, 47, 0
2, 171712, Note_on_c, 0, 52, 0
2, 171713, Note_on_c, 0, 69, 0
2, 171713, Note_on_c, 0, 81, 0
2, 171713, Note_on_c, 0, 59, 0
2, 171713, Note_on_c, 0, 71, 0
2, 171713, Note_on_c, 0, 55, 0
2, 171713, Note_on_c, 0, 64, 0
2, 171713, Note_on_c, 0, 76, 0
2, 171714, Control_c, 0, 64, 0
2, 171717, Note_on_c, 0, 78, 0
2, 171722, Note_on_c, 0, 86, 104
2, 171724, Note_on_c, 0, 40, 0
2, 171729, Note_on_c, 0, 48, 97
2, 171732, Note_on_c, 0, 74, 0
2, 171732, Note_on_c, 0, 79, 0
2, 171733, Note_on_c, 0, 36, 90
2, 171734, Note_on_c, 0, 43, 91
2, 171736, Note_on_c, 0, 74, 87
2, 171738, Note_on_c, 0, 79, 87
2, 171816, Control_c, 0, 64, 127
2, 172062, Note_on_c, 0, 36, 0
2, 172085, Note_on_c, 0, 48, 0
2, 172090, Note_on_c, 0, 48, 70
2, 172090, Note_on_c, 0, 76, 64
2, 172262, Note_on_c, 0, 86, 0
2, 172273, Note_on_c, 0, 86, 99
2, 172276, Note_on_c, 0, 55, 89
2, 172277, Note_on_c, 0, 74, 0
2, 172277, Note_on_c, 0, 79, 0
2, 172278, Note_on_c, 0, 52, 80
2, 172282, Note_on_c, 0, 79, 82
2, 172283, Note_on_c, 0, 74, 83
2, 172615, Note_on_c, 0, 48, 0
2, 172619, Note_on_c, 0, 48, 78
2, 172784, Note_on_c, 0, 83, 0
2, 172789, Note_on_c, 0, 83, 100
2, 172792, Note_on_c, 0, 55, 0
2, 172792, Note_on_c, 0, 79, 0
2, 172797, Note_on_c, 0, 79, 81
2, 172798, Note_on_c, 0, 71, 88
2, 172802, Note_on_c, 0, 60, 88
2, 172803, Note_on_c, 0, 55, 83
2, 172961, Note_on_c, 0, 48, 0
2, 172966, Note_on_c, 0, 48, 76
2, 173122, Note_on_c, 0, 60, 0
2, 173130, Note_on_c, 0, 48, 0
2, 173130, Note_on_c, 0, 55, 0
2, 173130, Note_on_c, 0, 71, 0
2, 173130, Note_on_c, 0, 76, 0
2, 173130, Note_on_c, 0, 81, 102
2, 173133, Note_on_c, 0, 60, 88
2, 173134, Note_on_c, 0, 71, 86
2, 173134, Note_on_c, 0, 55, 77
2, 173135, Note_on_c, 0, 64, 92
2, 173135, Note_on_c, 0, 69, 91
2, 173139, Note_on_c, 0, 76, 78
2, 173140, Note_on_c, 0, 48, 80
2, 173452, Note_on_c, 0, 48, 0
2, 173460, Note_on_c, 0, 79, 0
2, 173462, Note_on_c, 0, 48, 78
2, 173468, Note_on_c, 0, 79, 99
2, 173472, Note_on_c, 0, 67, 86
2, 173800, Note_on_c, 0, 48, 0
2, 173800, Note_on_c, 0, 60, 0
2, 173800, Note_on_c, 0, 81, 0
2, 173801, Note_on_c, 0, 76, 0
2, 173801, Note_on_c, 0, 64, 0
2, 173801, Note_on_c, 0, 69, 0
2, 173801, Note_on_c, 0, 74, 0
2, 173802, Note_on_c, 0, 83, 0
2, 173805, Control_c, 0, 64, 0
2, 173813, Note_on_c, 0, 52, 0
2, 173813, Note_on_c, 0, 79, 0
2, 173813, Note_on_c, 0, 86, 0
2, 173821, Note_on_c, 0, 43, 0
2, 173821, Note_on_c, 0, 55, 0
2, 173821, Note_on_c, 0, 67, 0
2, 173821, Note_on_c, 0, 71, 0
2, 173825, Note_on_c, 0, 79, 101
2, 173825, Note_on_c, 0, 55, 92
2, 173827, Note_on_c, 0, 43, 89
2, 173828, Note_on_c, 0, 50, 82
2, 173828, Note_on_c, 0, 67, 95
2, 173830, Note_on_c, 0, 71, 90
2, 173898, Control_c, 0, 64, 127
2, 174010, Note_on_c, 0, 74, 86
2, 174027, Note_on_c, 0, 75, 65
2, 174190, Note_on_c, 0, 50, 0
2, 174194, Note_on_c, 0, 50, 60
2, 174336, Note_on_c, 0, 74, 0
2, 174346, Note_on_c, 0, 74, 98
2, 174351, Note_on_c, 0, 55, 0
2, 174351, Note_on_c, 0, 71, 0
2, 174356, Note_on_c, 0, 71, 81
2, 174357, Note_on_c, 0, 62, 87
2, 174360, Note_on_c, 0, 55, 82
2, 174361, Note_on_c, 0, 59, 81
2, 174689, Note_on_c, 0, 50, 0
2, 174698, Note_on_c, 0, 50, 60
2, 174873, Note_on_c, 0, 55, 0
2, 174873, Note_on_c, 0, 59, 0
2, 174882, Note_on_c, 0, 55, 74
2, 174883, Note_on_c, 0, 59, 69
2, 175027, Note_on_c, 0, 50, 0
2, 175037, Note_on_c, 0, 50, 68
2, 175219, Note_on_c, 0, 55, 0
2, 175219, Note_on_c, 0, 59, 0
2, 175219, Note_on_c, 0, 62, 0
2, 175219, Note_on_c, 0, 74, 0
2, 175221, Note_on_c, 0, 78, 105
2, 175225, Note_on_c, 0, 59, 83
2, 175228, Note_on_c, 0, 62, 88
2, 175229, Note_on_c, 0, 66, 88
2, 175229, Note_on_c, 0, 74, 86
2, 175230, Note_on_c, 0, 55, 81
2, 175236, Note_on_c, 0, 43, 0
2, 175241, Note_on_c, 0, 71, 0
2, 175549, Note_on_c, 0, 50, 0
2, 175558, Note_on_c, 0, 50, 84
2, 175907, Note_on_c, 0, 62, 0
2, 175908, Control_c, 0, 64, 0
2, 175908, Note_on_c, 0, 59, 0
2, 175908, Note_on_c, 0, 66, 0
2, 175909, Note_on_c, 0, 78, 0
2, 175918, Note_on_c, 0, 67, 0
2, 175918, Note_on_c, 0, 75, 0
2, 175918, Note_on_c, 0, 79, 0
2, 175925, Note_on_c, 0, 50, 0
2, 175925, Note_on_c, 0, 55, 0
2, 175928, Note_on_c, 0, 79, 104
2, 175933, Note_on_c, 0, 74, 0
2, 175935, Note_on_c, 0, 38, 89
2, 175936, Note_on_c, 0, 50, 88
2, 175936, Note_on_c, 0, 67, 93
2, 175939, Note_on_c, 0, 69, 88
2, 175941, Note_on_c, 0, 74, 85
2, 175944, Note_on_c, 0, 45, 84
2, 176002, Control_c, 0, 64, 127
2, 176294, Note_on_c, 0, 50, 0
2, 176299, Note_on_c, 0, 50, 69
2, 176459, Note_on_c, 0, 57, 88
2, 176466, Note_on_c, 0, 54, 86
2, 176770, Note_on_c, 0, 50, 0
2, 176781, Note_on_c, 0, 50, 88
2, 176947, Note_on_c, 0, 54, 0
2, 176947, Note_on_c, 0, 57, 0
2, 176950, Note_on_c, 0, 62, 84
2, 176951, Note_on_c, 0, 57, 71
2, 176958, Note_on_c, 0, 54, 74
2, 177123, Note_on_c, 0, 50, 0
2, 177130, Note_on_c, 0, 50, 70
2, 177300, Note_on_c, 0, 54, 0
2, 177300, Note_on_c, 0, 57, 0
2, 177303, Note_on_c, 0, 66, 88
2, 177304, Note_on_c, 0, 57, 74
2, 177306, Note_on_c, 0, 54, 84
2, 177311, Note_on_c, 0, 81, 99
2, 177323, Note_on_c, 0, 69, 0
2, 177327, Note_on_c, 0, 78, 89
2, 177332, Note_on_c, 0, 69, 75
2, 177646, Note_on_c, 0, 50, 0
2, 177651, Note_on_c, 0, 50, 55
2, 178034, Note_on_c, 0, 91, 85
2, 178037, Note_on_c, 0, 67, 0
2, 178037, Note_on_c, 0, 79, 0
2, 178039, Note_on_c, 0, 45, 0
2, 178040, Note_on_c, 0, 69, 0
2, 178040, Note_on_c, 0, 81, 0
2, 178041, Note_on_c, 0, 62, 0
2, 178041, Note_on_c, 0, 74, 0
2, 178041, Note_on_c, 0, 54, 0
2, 178041, Note_on_c, 0, 50, 0
2, 178041, Note_on_c, 0, 57, 0
2, 178041, Note_on_c, 0, 78, 0
2, 178042, Control_c, 0, 64, 0
2, 178043, Note_on_c, 0, 67, 74
2, 178045, Note_on_c, 0, 79, 78
2, 178045, Note_on_c, 0, 38, 0
2, 178048, Note_on_c, 0, 52, 68
2, 178048, Note_on_c, 0, 59, 70
2, 178053, Note_on_c, 0, 66, 0
2, 178199, Control_c, 0, 64, 127
2, 178370, Note_on_c, 0, 90, 77
2, 178383, Note_on_c, 0, 78, 58
2, 178541, Control_c, 0, 64, 0
2, 178552, Note_on_c, 0, 91, 0
2, 178560, Note_on_c, 0, 79, 0
2, 178561, Note_on_c, 0, 91, 85
2, 178564, Note_on_c, 0, 79, 75
2, 178598, Note_on_c, 0, 78, 0
2, 178598, Control_c, 0, 64, 127
2, 178644, Note_on_c, 0, 90, 0
2, 178894, Note_on_c, 0, 95, 89
2, 178901, Note_on_c, 0, 83, 76
2, 179426, Note_on_c, 0, 90, 82
2, 179447, Note_on_c, 0, 78, 65
2, 179607, Note_on_c, 0, 88, 77
2, 179616, Note_on_c, 0, 76, 62
2, 179793, Note_on_c, 0, 86, 85
2, 179802, Note_on_c, 0, 74, 71
2, 180132, Control_c, 0, 64, 0
2, 180133, Note_on_c, 0, 95, 0
2, 180135, Note_on_c, 0, 74, 0
2, 180135, Note_on_c, 0, 59, 0
2, 180135, Note_on_c, 0, 52, 0
2, 180135, Note_on_c, 0, 83, 0
2, 180135, Note_on_c, 0, 90, 0
2, 180136, Note_on_c, 0, 78, 0
2, 180136, Note_on_c, 0, 88, 0
2, 180136, Note_on_c, 0, 91, 0
2, 180136, Note_on_c, 0, 67, 0
2, 180136, Note_on_c, 0, 79, 0
2, 180136, Note_on_c, 0, 86, 0
2, 180136, Note_on_c, 0, 76, 0
2, 180139, Note_on_c, 0, 48, 55
2, 180140, Note_on_c, 0, 60, 51
2, 180141, Note_on_c, 0, 55, 62
2, 180142, Note_on_c, 0, 64, 65
2, 180203, Control_c, 0, 64, 127
2, 180487, Note_on_c, 0, 60, 0
2, 180514, Note_on_c, 0, 79, 73
2, 180679, Note_on_c, 0, 79, 0
2, 180683, Note_on_c, 0, 91, 84
2, 180683, Note_on_c, 0, 79, 78
2, 181194, Note_on_c, 0, 60, 71
2, 181539, Note_on_c, 0, 67, 66
2, 181547, Note_on_c, 0, 64, 0
2, 181557, Note_on_c, 0, 64, 58
2, 181558, Note_on_c, 0, 69, 60
2, 182261, Note_on_c, 0, 71, 75
2, 182269, Note_on_c, 0, 55, 0
2, 182269, Note_on_c, 0, 79, 0
2, 182269, Note_on_c, 0, 91, 0
2, 182270, Note_on_c, 0, 62, 67
2, 182274, Note_on_c, 0, 91, 83
2, 182279, Note_on_c, 0, 55, 71
2, 182280, Note_on_c, 0, 79, 76
2, 182281, Note_on_c, 0, 64, 0
2, 182283, Note_on_c, 0, 60, 0
2, 182283, Note_on_c, 0, 69, 0
2, 182284, Note_on_c, 0, 67, 0
2, 182284, Note_on_c, 0, 48, 0
2, 182295, Control_c, 0, 64, 0
2, 182430, Control_c, 0, 64, 127
2, 182612, Note_on_c, 0, 90, 86
2, 182627, Note_on_c, 0, 78, 69
2, 182799, Note_on_c, 0, 79, 0
2, 182799, Note_on_c, 0, 91, 0
2, 182803, Note_on_c, 0, 91, 87
2, 182810, Note_on_c, 0, 79, 80
2, 183142, Note_on_c, 0, 95, 95
2, 183151, Note_on_c, 0, 83, 79
2, 183674, Note_on_c, 0, 90, 0
2, 183678, Note_on_c, 0, 90, 84
2, 183690, Note_on_c, 0, 78, 0
2, 183696, Note_on_c, 0, 78, 65
2, 183846, Note_on_c, 0, 88, 82
2, 183862, Note_on_c, 0, 76, 62
2, 184026, Note_on_c, 0, 86, 90
2, 184032, Note_on_c, 0, 74, 75
2, 184363, Note_on_c, 0, 95, 0
2, 184365, Note_on_c, 0, 90, 0
2, 184365, Note_on_c, 0, 88, 0
2, 184365, Note_on_c, 0, 76, 0
2, 184366, Note_on_c, 0, 74, 0
2, 184366, Note_on_c, 0, 62, 0
2, 184366, Note_on_c, 0, 78, 0
2, 184366, Note_on_c, 0, 91, 0
2, 184366, Note_on_c, 0, 71, 0
2, 184366, Note_on_c, 0, 83, 0
2, 184367, Note_on_c, 0, 86, 0
2, 184367, Note_on_c, 0, 79, 0
2, 184369, Control_c, 0, 64, 0
2, 184381, Note_on_c, 0, 55, 0
2, 184383, Note_on_c, 0, 57, 70
2, 184391, Note_on_c, 0, 66, 68
2, 184393, Note_on_c, 0, 50, 44
2, 184435, Control_c, 0, 64, 127
2, 184581, Note_on_c, 0, 50, 0
2, 184722, Note_on_c, 0, 93, 87
2, 184726, Note_on_c, 0, 81, 75
2, 184896, Note_on_c, 0, 93, 0
2, 184903, Note_on_c, 0, 81, 0
2, 184907, Note_on_c, 0, 93, 91
2, 184908, Note_on_c, 0, 81, 77
2, 185464, Note_on_c, 0, 62, 65
2, 185813, Note_on_c, 0, 91, 88
2, 185831, Note_on_c, 0, 79, 71
2, 185838, Note_on_c, 0, 69, 57
2, 185840, Note_on_c, 0, 74, 57
2, 185848, Note_on_c, 0, 66, 0
2, 185854, Note_on_c, 0, 66, 57
2, 186508, Note_on_c, 0, 93, 0
2, 186514, Note_on_c, 0, 93, 86
2, 186516, Note_on_c, 0, 81, 0
2, 186520, Note_on_c, 0, 81, 75
2, 186521, Note_on_c, 0, 67, 61
2, 186522, Note_on_c, 0, 52, 58
2, 186525, Note_on_c, 0, 59, 63
2, 186526, Note_on_c, 0, 64, 55
2, 186536, Note_on_c, 0, 91, 0
2, 186538, Note_on_c, 0, 79, 0
2, 186538, Note_on_c, 0, 66, 0
2, 186538, Note_on_c, 0, 62, 0
2, 186539, Note_on_c, 0, 57, 0
2, 186541, Control_c, 0, 64, 0
2, 186554, Note_on_c, 0, 74, 0
2, 186562, Note_on_c, 0, 69, 0
2, 186624, Control_c, 0, 64, 127
2, 187029, Note_on_c, 0, 95, 93
2, 187034, Note_on_c, 0, 83, 79
2, 187920, Note_on_c, 0, 91, 83
2, 187933, Note_on_c, 0, 79, 72
2, 187942, Note_on_c, 0, 71, 54
2, 187944, Note_on_c, 0, 67, 0
2, 187948, Note_on_c, 0, 67, 49
2, 187949, Note_on_c, 0, 76, 48
2, 188640, Note_on_c, 0, 98, 92
2, 188648, Note_on_c, 0, 55, 60
2, 188648, Note_on_c, 0, 86, 75
2, 188651, Note_on_c, 0, 64, 0
2, 188653, Note_on_c, 0, 48, 50
2, 188655, Note_on_c, 0, 60, 49
2, 188655, Note_on_c, 0, 64, 61
2, 188676, Control_c, 0, 64, 0
2, 188676, Note_on_c, 0, 59, 0
2, 188677, Note_on_c, 0, 95, 0
2, 188677, Note_on_c, 0, 67, 0
2, 188677, Note_on_c, 0, 52, 0
2, 188678, Note_on_c, 0, 71, 0
2, 188678, Note_on_c, 0, 83, 0
2, 188678, Note_on_c, 0, 76, 0
2, 188678, Note_on_c, 0, 79, 0
2, 188678, Note_on_c, 0, 91, 0
2, 188682, Note_on_c, 0, 81, 0
2, 188689, Note_on_c, 0, 93, 0
2, 188751, Control_c, 0, 64, 127
2, 189196, Note_on_c, 0, 86, 0
2, 189196, Note_on_c, 0, 98, 0
2, 189201, Note_on_c, 0, 98, 90
2, 189205, Note_on_c, 0, 86, 76
2, 189703, Note_on_c, 0, 60, 0
2, 189704, Note_on_c, 0, 95, 83
2, 189713, Note_on_c, 0, 83, 66
2, 189714, Note_on_c, 0, 60, 56
2, 190054, Note_on_c, 0, 93, 84
2, 190062, Note_on_c, 0, 81, 75
2, 190068, Note_on_c, 0, 72, 60
2, 190074, Note_on_c, 0, 67, 58
2, 190083, Note_on_c, 0, 76, 50
2, 190412, Note_on_c, 0, 91, 80
2, 190420, Note_on_c, 0, 79, 75
2, 190733, Note_on_c, 0, 98, 0
2, 190733, Note_on_c, 0, 95, 0
2, 190734, Note_on_c, 0, 93, 0
2, 190734, Note_on_c, 0, 48, 0
2, 190735, Note_on_c, 0, 72, 0
2, 190735, Note_on_c, 0, 60, 0
2, 190735, Note_on_c, 0, 86, 0
2, 190735, Note_on_c, 0, 64, 0
2, 190735, Note_on_c, 0, 83, 0
2, 190735, Note_on_c, 0, 76, 0
2, 190736, Note_on_c, 0, 67, 0
2, 190736, Note_on_c, 0, 81, 0
2, 190737, Control_c, 0, 64, 0
2, 190755, Note_on_c, 0, 55, 0
2, 190755, Note_on_c, 0, 91, 0
2, 190761, Note_on_c, 0, 62, 68
2, 190762, Note_on_c, 0, 55, 66
2, 190763, Note_on_c, 0, 79, 0
2, 190766, Note_on_c, 0, 91, 79
2, 190774, Note_on_c, 0, 79, 75
2, 190775, Note_on_c, 0, 71, 63
2, 190809, Control_c, 0, 64, 127
2, 190942, Note_on_c, 0, 86, 80
2, 190944, Note_on_c, 0, 74, 69
2, 191278, Note_on_c, 0, 74, 0
2, 191278, Note_on_c, 0, 86, 0
2, 191286, Note_on_c, 0, 86, 82
2, 191289, Note_on_c, 0, 74, 75
2, 191291, Control_c, 0, 64, 0
2, 191324, Control_c, 0, 64, 127
2, 191377, Note_on_c, 0, 91, 0
2, 191385, Note_on_c, 0, 79, 0
2, 191861, Note_on_c, 0, 62, 0
2, 191870, Note_on_c, 0, 62, 52
2, 192226, Note_on_c, 0, 90, 81
2, 192230, Note_on_c, 0, 71, 0
2, 192239, Note_on_c, 0, 67, 54
2, 192240, Note_on_c, 0, 71, 54
2, 192243, Note_on_c, 0, 78, 69
2, 192899, Note_on_c, 0, 50, 46
2, 192906, Note_on_c, 0, 62, 0
2, 192910, Note_on_c, 0, 62, 48
2, 192925, Note_on_c, 0, 66, 62
2, 192927, Note_on_c, 0, 91, 78
2, 192935, Note_on_c, 0, 71, 0
2, 192935, Note_on_c, 0, 57, 60
2, 192935, Note_on_c, 0, 90, 0
2, 192936, Note_on_c, 0, 67, 0
2, 192936, Note_on_c, 0, 86, 0
2, 192936, Note_on_c, 0, 78, 0
2, 192937, Note_on_c, 0, 74, 0
2, 192938, Note_on_c, 0, 55, 0
2, 192938, Note_on_c, 0, 79, 72
2, 192941, Control_c, 0, 64, 0
2, 193006, Note_on_c, 0, 50, 0
2, 193013, Control_c, 0, 64, 127
2, 193943, Note_on_c, 0, 62, 0
2, 193954, Note_on_c, 0, 62, 62
2, 194333, Note_on_c, 0, 93, 76
2, 194338, Note_on_c, 0, 81, 64
2, 194346, Note_on_c, 0, 69, 51
2, 194365, Note_on_c, 0, 66, 0
2, 194371, Note_on_c, 0, 66, 49
2, 194372, Note_on_c, 0, 74, 31
2, 194383, Note_on_c, 0, 78, 35
2, 194388, Note_on_c, 0, 78, 0
2, 195041, Note_on_c, 0, 91, 0
2, 195048, Note_on_c, 0, 79, 0
2, 195050, Note_on_c, 0, 91, 74
2, 195052, Note_on_c, 0, 52, 45
2, 195056, Note_on_c, 0, 79, 66
2, 195073, Note_on_c, 0, 59, 52
2, 195074, Note_on_c, 0, 67, 48
2, 195079, Note_on_c, 0, 74, 0
2, 195081, Note_on_c, 0, 62, 0
2, 195081, Note_on_c, 0, 81, 0
2, 195081, Note_on_c, 0, 69, 0
2, 195081, Note_on_c, 0, 66, 0
2, 195081, Note_on_c, 0, 93, 0
2, 195086, Control_c, 0, 64, 0
2, 195095, Note_on_c, 0, 57, 0
2, 195156, Control_c, 0, 64, 127
2, 195765, Note_on_c, 0, 64, 62
2, 196469, Note_on_c, 0, 67, 0
2, 196474, Note_on_c, 0, 67, 53
2, 196816, Note_on_c, 0, 71, 56
2, 197236, Note_on_c, 0, 76, 54
2, 197760, Note_on_c, 0, 52, 0
2, 197760, Note_on_c, 0, 59, 0
2, 197760, Note_on_c, 0, 79, 0
2, 197760, Note_on_c, 0, 91, 0
2, 199115, Control_c, 0, 64, 0
2, 199115, Note_on_c, 0, 64, 0
2, 199116, Note_on_c, 0, 67, 0
2, 199119, Note_on_c, 0, 71, 0
2, 199121, Note_on_c, 0, 40, 92
2, 199123, Note_on_c, 0, 28, 94
2, 199130, Note_on_c, 0, 47, 87
2, 199157, Control_c, 0, 64, 127
2, 199208, Note_on_c, 0, 52, 77
2, 199257, Note_on_c, 0, 76, 0
2, 199287, Note_on_c, 0, 54, 84
2, 199328, Note_on_c, 0, 55, 79
2, 199384, Note_on_c, 0, 59, 90
2, 199432, Note_on_c, 0, 64, 88
2, 199476, Note_on_c, 0, 66, 94
2, 199546, Note_on_c, 0, 71, 91
2, 199584, Note_on_c, 0, 76, 78
2, 199593, Note_on_c, 0, 78, 86
2, 199622, Note_on_c, 0, 79, 94
2, 199806, Control_c, 0, 64, 0
2, 199806, Note_on_c, 0, 71, 0
2, 199806, Note_on_c, 0, 66, 0
2, 199806, Note_on_c, 0, 59, 0
2, 199807, Note_on_c, 0, 54, 0
2, 199807, Note_on_c, 0, 64, 0
2, 199807, Note_on_c, 0, 76, 0
2, 199807, Note_on_c, 0, 55, 0
2, 199807, Note_on_c, 0, 47, 0
2, 199807, Note_on_c, 0, 52, 0
2, 199807, Note_on_c, 0, 79, 0
2, 199807, Note_on_c, 0, 40, 0
2, 199808, Note_on_c, 0, 78, 0
2, 199808, Note_on_c, 0, 28, 0
2, 199837, Note_on_c, 0, 80, 108
2, 199838, Note_on_c, 0, 41, 105
2, 199838, Note_on_c, 0, 72, 98
2, 199838, Note_on_c, 0, 29, 102
2, 199839, Note_on_c, 0, 68, 106
2, 199887, Control_c, 0, 64, 127
2, 200171, Note_on_c, 0, 41, 0
2, 200172, Note_on_c, 0, 79, 100
2, 200175, Note_on_c, 0, 67, 92
2, 200182, Note_on_c, 0, 41, 87
2, 200186, Note_on_c, 0, 29, 0
2, 200192, Note_on_c, 0, 29, 70
2, 200348, Note_on_c, 0, 68, 0
2, 200348, Note_on_c, 0, 72, 0
2, 200348, Note_on_c, 0, 80, 0
2, 200354, Note_on_c, 0, 56, 98
2, 200357, Note_on_c, 0, 72, 89
2, 200358, Note_on_c, 0, 80, 105
2, 200358, Note_on_c, 0, 48, 85
2, 200359, Note_on_c, 0, 68, 103
2, 200359, Note_on_c, 0, 53, 85
2, 200686, Note_on_c, 0, 72, 0
2, 200686, Note_on_c, 0, 80, 0
2, 200687, Note_on_c, 0, 84, 106
2, 200690, Note_on_c, 0, 80, 95
2, 200690, Note_on_c, 0, 72, 95
2, 200855, Note_on_c, 0, 53, 0
2, 200862, Note_on_c, 0, 53, 96
2, 201016, Note_on_c, 0, 56, 0
2, 201026, Note_on_c, 0, 60, 88
2, 201027, Note_on_c, 0, 56, 75
2, 201177, Note_on_c, 0, 53, 0
2, 201177, Note_on_c, 0, 60, 0
2, 201177, Note_on_c, 0, 72, 0
2, 201177, Note_on_c, 0, 79, 0
2, 201184, Note_on_c, 0, 79, 91
2, 201184, Note_on_c, 0, 53, 85
2, 201185, Note_on_c, 0, 68, 0
2, 201185, Note_on_c, 0, 60, 86
2, 201186, Note_on_c, 0, 65, 95
2, 201189, Note_on_c, 0, 72, 78
2, 201191, Note_on_c, 0, 68, 95
2, 201192, Note_on_c, 0, 56, 0
2, 201203, Note_on_c, 0, 56, 81
2, 201371, Note_on_c, 0, 77, 99
2, 201538, Note_on_c, 0, 53, 0
2, 201538, Note_on_c, 0, 60, 0
2, 201538, Note_on_c, 0, 68, 0
2, 201538, Note_on_c, 0, 72, 0
2, 201541, Note_on_c, 0, 75, 104
2, 201546, Note_on_c, 0, 53, 94
2, 201546, Note_on_c, 0, 56, 0
2, 201546, Note_on_c, 0, 72, 95
2, 201548, Note_on_c, 0, 60, 82
2, 201549, Note_on_c, 0, 68, 94
2, 201550, Note_on_c, 0, 63, 95
2, 201555, Note_on_c, 0, 56, 90
2, 201871, Note_on_c, 0, 48, 0
2, 201872, Control_c, 0, 64, 0
2, 201872, Note_on_c, 0, 79, 0
2, 201872, Note_on_c, 0, 68, 0
2, 201872, Note_on_c, 0, 80, 0
2, 201872, Note_on_c, 0, 53, 0
2, 201872, Note_on_c, 0, 67, 0
2, 201872, Note_on_c, 0, 63, 0
2, 201872, Note_on_c, 0, 56, 0
2, 201872, Note_on_c, 0, 60, 0
2, 201872, Note_on_c, 0, 75, 0
2, 201872, Note_on_c, 0, 72, 0
2, 201873, Note_on_c, 0, 65, 0
2, 201884, Note_on_c, 0, 29, 0
2, 201884, Note_on_c, 0, 84, 0
2, 201891, Note_on_c, 0, 41, 0
2, 201891, Note_on_c, 0, 77, 0
2, 201905, Note_on_c, 0, 37, 109
2, 201909, Note_on_c, 0, 25, 103
2, 201930, Control_c, 0, 64, 127
2, 202261, Note_on_c, 0, 61, 85
2, 202265, Note_on_c, 0, 80, 104
2, 202274, Note_on_c, 0, 56, 78
2, 202277, Note_on_c, 0, 68, 99
2, 202278, Note_on_c, 0, 53, 61
2, 202421, Note_on_c, 0, 53, 0
2, 202421, Note_on_c, 0, 61, 0
2, 202427, Note_on_c, 0, 53, 88
2, 202427, Note_on_c, 0, 61, 107
2, 202429, Note_on_c, 0, 56, 0
2, 202429, Note_on_c, 0, 68, 0
2, 202429, Note_on_c, 0, 80, 0
2, 202434, Note_on_c, 0, 56, 92
2, 202438, Note_on_c, 0, 80, 107
2, 202440, Note_on_c, 0, 68, 105
2, 202441, Note_on_c, 0, 73, 108
2, 202447, Note_on_c, 0, 77, 94
2, 202759, Note_on_c, 0, 53, 0
2, 202765, Note_on_c, 0, 53, 88
2, 202936, Note_on_c, 0, 56, 0
2, 202936, Note_on_c, 0, 61, 0
2, 202942, Note_on_c, 0, 61, 100
2, 202944, Note_on_c, 0, 56, 88
2, 203089, Note_on_c, 0, 53, 0
2, 203098, Note_on_c, 0, 53, 87
2, 203281, Note_on_c, 0, 56, 0
2, 203281, Note_on_c, 0, 61, 0
2, 203287, Note_on_c, 0, 70, 100
2, 203287, Note_on_c, 0, 65, 91
2, 203287, Note_on_c, 0, 61, 101
2, 203292, Note_on_c, 0, 56, 88
2, 203604, Note_on_c, 0, 53, 0
2, 203610, Note_on_c, 0, 53, 96
2, 203965, Note_on_c, 0, 37, 0
2, 203968, Note_on_c, 0, 77, 0
2, 203968, Note_on_c, 0, 73, 0
2, 203968, Note_on_c, 0, 53, 0
2, 203968, Note_on_c, 0, 56, 0
2, 203968, Note_on_c, 0, 70, 0
2, 203969, Note_on_c, 0, 61, 0
2, 203969, Note_on_c, 0, 65, 0
2, 203971, Control_c, 0, 64, 0
2, 203973, Note_on_c, 0, 25, 0
2, 203980, Note_on_c, 0, 80, 0
2, 203988, Note_on_c, 0, 68, 0
2, 203992, Note_on_c, 0, 80, 111
2, 203992, Note_on_c, 0, 44, 109
2, 203993, Note_on_c, 0, 75, 103
2, 203994, Note_on_c, 0, 32, 101
2, 203995, Note_on_c, 0, 72, 99
2, 203995, Note_on_c, 0, 68, 109
2, 204034, Control_c, 0, 64, 127
2, 204038, Note_on_c, 0, 32, 0
2, 204349, Note_on_c, 0, 44, 0
2, 204352, Note_on_c, 0, 79, 104
2, 204354, Note_on_c, 0, 44, 84
2, 204354, Note_on_c, 0, 67, 95
2, 204510, Note_on_c, 0, 75, 0
2, 204518, Note_on_c, 0, 68, 0
2, 204518, Note_on_c, 0, 80, 0
2, 204519, Note_on_c, 0, 60, 90
2, 204522, Note_on_c, 0, 56, 98
2, 204522, Note_on_c, 0, 75, 97
2, 204522, Note_on_c, 0, 51, 95
2, 204522, Note_on_c, 0, 80, 102
2, 204524, Note_on_c, 0, 68, 100
2, 204527, Note_on_c, 0, 48, 87
2, 204856, Note_on_c, 0, 48, 0
2, 204856, Note_on_c, 0, 72, 0
2, 204856, Note_on_c, 0, 75, 0
2, 204856, Note_on_c, 0, 80, 0
2, 204860, Note_on_c, 0, 84, 104
2, 204864, Note_on_c, 0, 48, 89
2, 204864, Note_on_c, 0, 75, 101
2, 204866, Note_on_c, 0, 80, 102
2, 204866, Note_on_c, 0, 72, 97
2, 205025, Note_on_c, 0, 56, 0
2, 205025, Note_on_c, 0, 60, 0
2, 205029, Note_on_c, 0, 56, 78
2, 205029, Note_on_c, 0, 60, 88
2, 205186, Note_on_c, 0, 51, 0
2, 205193, Note_on_c, 0, 51, 88
2, 205355, Note_on_c, 0, 60, 0
2, 205355, Note_on_c, 0, 67, 0
2, 205355, Note_on_c, 0, 75, 0
2, 205355, Note_on_c, 0, 79, 0
2, 205361, Note_on_c, 0, 60, 98
2, 205362, Note_on_c, 0, 75, 105
2, 205362, Note_on_c, 0, 63, 102
2, 205363, Note_on_c, 0, 56, 0
2, 205363, Note_on_c, 0, 72, 0
2, 205363, Note_on_c, 0, 79, 103
2, 205365, Note_on_c, 0, 67, 101
2, 205366, Note_on_c, 0, 68, 0
2, 205368, Note_on_c, 0, 72, 95
2, 205370, Note_on_c, 0, 56, 86
2, 205528, Note_on_c, 0, 77, 99
2, 205531, Note_on_c, 0, 65, 97
2, 205693, Note_on_c, 0, 51, 0
2, 205697, Note_on_c, 0, 51, 96
2, 205701, Note_on_c, 0, 63, 0
2, 205701, Note_on_c, 0, 75, 0
2, 205708, Note_on_c, 0, 75, 110
2, 205709, Note_on_c, 0, 63, 105
2, 205996, Note_on_c, 0, 48, 0
2, 205997, Note_on_c, 0, 79, 0
2, 205997, Note_on_c, 0, 65, 0
2, 205997, Note_on_c, 0, 51, 0
2, 205997, Note_on_c, 0, 63, 0
2, 205997, Note_on_c, 0, 67, 0
2, 205997, Note_on_c, 0, 77, 0
2, 205997, Note_on_c, 0, 56, 0
2, 205997, Note_on_c, 0, 75, 0
2, 205998, Note_on_c, 0, 60, 0
2, 205998, Note_on_c, 0, 72, 0
2, 205998, Note_on_c, 0, 44, 0
2, 205999, Note_on_c, 0, 84, 0
2, 206000, Control_c, 0, 64, 0
2, 206016, Note_on_c, 0, 80, 0
2, 206042, Note_on_c, 0, 39, 104
2, 206043, Note_on_c, 0, 27, 107
2, 206069, Control_c, 0, 64, 127
2, 206395, Note_on_c, 0, 51, 85
2, 206396, Note_on_c, 0, 82, 100
2, 206402, Note_on_c, 0, 70, 98
2, 206561, Note_on_c, 0, 51, 0
2, 206561, Note_on_c, 0, 82, 0
2, 206565, Note_on_c, 0, 63, 103
2, 206566, Note_on_c, 0, 58, 98
2, 206568, Note_on_c, 0, 70, 0
2, 206569, Note_on_c, 0, 55, 95
2, 206569, Note_on_c, 0, 82, 106
2, 206571, Note_on_c, 0, 51, 90
2, 206574, Note_on_c, 0, 75, 99
2, 206579, Note_on_c, 0, 70, 99
2, 206580, Note_on_c, 0, 79, 89
2, 206899, Note_on_c, 0, 55, 0
2, 206904, Note_on_c, 0, 55, 94
2, 207075, Note_on_c, 0, 58, 0
2, 207075, Note_on_c, 0, 63, 0
2, 207084, Note_on_c, 0, 58, 94
2, 207086, Note_on_c, 0, 63, 99
2, 207244, Note_on_c, 0, 55, 0
2, 207256, Note_on_c, 0, 55, 92
2, 207429, Note_on_c, 0, 63, 0
2, 207433, Note_on_c, 0, 80, 110
2, 207436, Note_on_c, 0, 58, 0
2, 207436, Note_on_c, 0, 75, 0
2, 207439, Note_on_c, 0, 68, 106
2, 207440, Note_on_c, 0, 63, 101
2, 207440, Note_on_c, 0, 75, 100
2, 207441, Note_on_c, 0, 67, 96
2, 207441, Note_on_c, 0, 58, 86
2, 207774, Note_on_c, 0, 55, 0
2, 207783, Note_on_c, 0, 55, 102
2, 208147, Note_on_c, 0, 39, 0
2, 208147, Note_on_c, 0, 51, 0
2, 208147, Note_on_c, 0, 55, 0
2, 208148, Note_on_c, 0, 80, 0
2, 208148, Note_on_c, 0, 79, 0
2, 208148, Note_on_c, 0, 67, 0
2, 208149, Note_on_c, 0, 68, 0
2, 208150, Control_c, 0, 64, 0
2, 208158, Note_on_c, 0, 27, 0
2, 208158, Note_on_c, 0, 82, 0
2, 208166, Note_on_c, 0, 58, 0
2, 208166, Note_on_c, 0, 63, 0
2, 208166, Note_on_c, 0, 70, 0
2, 208166, Note_on_c, 0, 75, 0
2, 208168, Note_on_c, 0, 82, 108
2, 208172, Note_on_c, 0, 41, 104
2, 208176, Note_on_c, 0, 70, 101
2, 208177, Note_on_c, 0, 29, 100
2, 208177, Note_on_c, 0, 75, 101
2, 208212, Control_c, 0, 64, 127
2, 208289, Note_on_c, 0, 29, 0
2, 208502, Note_on_c, 0, 53, 60
2, 208687, Note_on_c, 0, 60, 97
2, 208689, Note_on_c, 0, 84, 106
2, 208691, Note_on_c, 0, 72, 98
2, 208693, Note_on_c, 0, 56, 94
2, 208693, Note_on_c, 0, 77, 92
2, 208693, Note_on_c, 0, 80, 99
2, 208995, Note_on_c, 0, 53, 0
2, 209005, Note_on_c, 0, 53, 86
2, 209180, Note_on_c, 0, 56, 0
2, 209180, Note_on_c, 0, 60, 0
2, 209184, Note_on_c, 0, 65, 94
2, 209185, Note_on_c, 0, 60, 77
2, 209190, Note_on_c, 0, 56, 81
2, 209341, Note_on_c, 0, 53, 0
2, 209347, Note_on_c, 0, 53, 86
2, 209525, Note_on_c, 0, 80, 0
2, 209533, Note_on_c, 0, 56, 0
2, 209533, Note_on_c, 0, 60, 0
2, 209533, Note_on_c, 0, 72, 0
2, 209533, Note_on_c, 0, 77, 0
2, 209536, Note_on_c, 0, 80, 110
2, 209537, Note_on_c, 0, 60, 98
2, 209538, Note_on_c, 0, 68, 105
2, 209538, Note_on_c, 0, 72, 102
2, 209539, Note_on_c, 0, 56, 95
2, 209540, Note_on_c, 0, 77, 89
2, 209871, Note_on_c, 0, 53, 0
2, 209871, Note_on_c, 0, 56, 0
2, 209877, Note_on_c, 0, 53, 95
2, 209880, Note_on_c, 0, 56, 70
2, 210247, Note_on_c, 0, 75, 0
2, 210247, Note_on_c, 0, 80, 0
2, 210247, Note_on_c, 0, 84, 0
2, 210249, Control_c, 0, 64, 0
2, 210253, Note_on_c, 0, 87, 108
2, 210254, Note_on_c, 0, 75, 104
2, 210255, Note_on_c, 0, 80, 105
2, 210256, Note_on_c, 0, 84, 95
2, 210258, Note_on_c, 0, 41, 0
2, 210259, Note_on_c, 0, 72, 0
2, 210259, Note_on_c, 0, 60, 0
2, 210259, Note_on_c, 0, 77, 0
2, 210259, Note_on_c, 0, 65, 0
2, 210259, Note_on_c, 0, 53, 0
2, 210260, Note_on_c, 0, 56, 0
2, 210260, Note_on_c, 0, 68, 0
2, 210265, Note_on_c, 0, 37, 102
2, 210266, Note_on_c, 0, 25, 99
2, 210286, Note_on_c, 0, 70, 0
2, 210301, Control_c, 0, 64, 127
2, 210370, Note_on_c, 0, 25, 0
2, 210598, Note_on_c, 0, 49, 67
2, 210608, Note_on_c, 0, 49, 0
2, 210746, Note_on_c, 0, 82, 0
2, 210783, Note_on_c, 0, 61, 103
2, 210785, Note_on_c, 0, 75, 0
2, 210785, Note_on_c, 0, 80, 0
2, 210785, Note_on_c, 0, 84, 0
2, 210785, Note_on_c, 0, 87, 0
2, 210789, Note_on_c, 0, 87, 106
2, 210789, Note_on_c, 0, 53, 82
2, 210790, Note_on_c, 0, 65, 90
2, 210791, Note_on_c, 0, 56, 93
2, 210794, Note_on_c, 0, 80, 101
2, 210795, Note_on_c, 0, 84, 94
2, 210796, Note_on_c, 0, 75, 99
2, 210800, Note_on_c, 0, 65, 0
2, 211100, Note_on_c, 0, 53, 0
2, 211104, Note_on_c, 0, 53, 83
2, 211276, Note_on_c, 0, 84, 0
2, 211284, Note_on_c, 0, 53, 0
2, 211284, Note_on_c, 0, 61, 0
2, 211284, Note_on_c, 0, 75, 0
2, 211284, Note_on_c, 0, 80, 0
2, 211287, Note_on_c, 0, 84, 103
2, 211288, Note_on_c, 0, 72, 99
2, 211288, Note_on_c, 0, 80, 101
2, 211289, Note_on_c, 0, 65, 90
2, 211291, Note_on_c, 0, 61, 94
2, 211292, Note_on_c, 0, 56, 0
2, 211293, Note_on_c, 0, 53, 77
2, 211294, Note_on_c, 0, 75, 96
2, 211302, Note_on_c, 0, 56, 89
2, 211445, Note_on_c, 0, 56, 0
2, 211455, Note_on_c, 0, 56, 77
2, 211622, Note_on_c, 0, 61, 0
2, 211622, Note_on_c, 0, 65, 0
2, 211622, Note_on_c, 0, 72, 0
2, 211629, Note_on_c, 0, 82, 100
2, 211630, Note_on_c, 0, 75, 0
2, 211631, Note_on_c, 0, 68, 101
2, 211633, Note_on_c, 0, 61, 91
2, 211633, Note_on_c, 0, 65, 93
2, 211633, Note_on_c, 0, 72, 97
2, 211637, Note_on_c, 0, 75, 98
2, 211637, Note_on_c, 0, 56, 0
2, 211647, Note_on_c, 0, 56, 78
2, 211968, Note_on_c, 0, 56, 0
2, 211968, Note_on_c, 0, 72, 0
2, 211968, Note_on_c, 0, 80, 0
2, 211976, Note_on_c, 0, 80, 105
2, 211978, Note_on_c, 0, 56, 93
2, 211979, Note_on_c, 0, 72, 95
2, 212331, Control_c, 0, 64, 0
2, 212331, Note_on_c, 0, 87, 0
2, 212333, Note_on_c, 0, 56, 0
2, 212333, Note_on_c, 0, 82, 0
2, 212333, Note_on_c, 0, 65, 0
2, 212333, Note_on_c, 0, 75, 0
2, 212336, Note_on_c, 0, 37, 0
2, 212336, Note_on_c, 0, 80, 0
2, 212344, Note_on_c, 0, 61, 0
2, 212344, Note_on_c, 0, 68, 0
2, 212344, Note_on_c, 0, 72, 0
2, 212347, Note_on_c, 0, 44, 106
2, 212347, Note_on_c, 0, 80, 108
2, 212348, Note_on_c, 0, 32, 101
2, 212349, Note_on_c, 0, 72, 95
2, 212349, Note_on_c, 0, 68, 105
2, 212352, Note_on_c, 0, 53, 0
2, 212352, Note_on_c, 0, 84, 0
2, 212375, Control_c, 0, 64, 127
2, 212533, Note_on_c, 0, 75, 98
2, 212678, Note_on_c, 0, 48, 81
2, 212851, Note_on_c, 0, 68, 0
2, 212851, Note_on_c, 0, 75, 0
2, 212858, Note_on_c, 0, 75, 105
2, 212858, Note_on_c, 0, 72, 0
2, 212860, Note_on_c, 0, 60, 97
2, 212862, Note_on_c, 0, 68, 99
2, 212862, Note_on_c, 0, 63, 93
2, 212863, Note_on_c, 0, 72, 90
2, 212864, Note_on_c, 0, 56, 89
2, 212864, Note_on_c, 0, 51, 87
2, 213081, Note_on_c, 0, 32, 0
2, 213189, Note_on_c, 0, 51, 0
2, 213193, Note_on_c, 0, 51, 73
2, 213358, Note_on_c, 0, 56, 0
2, 213358, Note_on_c, 0, 60, 0
2, 213358, Note_on_c, 0, 63, 0
2, 213364, Note_on_c, 0, 63, 84
2, 213364, Note_on_c, 0, 56, 82
2, 213365, Note_on_c, 0, 60, 80
2, 213527, Note_on_c, 0, 56, 0
2, 213531, Note_on_c, 0, 56, 89
2, 213711, Note_on_c, 0, 63, 0
2, 213717, Note_on_c, 0, 79, 105
2, 213719, Note_on_c, 0, 60, 0
2, 213719, Note_on_c, 0, 68, 0
2, 213719, Note_on_c, 0, 72, 0
2, 213719, Note_on_c, 0, 75, 0
2, 213721, Note_on_c, 0, 63, 100
2, 213723, Note_on_c, 0, 75, 101
2, 213723, Note_on_c, 0, 60, 98
2, 213724, Note_on_c, 0, 72, 96
2, 213725, Note_on_c, 0, 68, 98
2, 213780, Note_on_c, 0, 48, 0
2, 214056, Note_on_c, 0, 56, 0
2, 214062, Note_on_c, 0, 56, 102
2, 214410, Note_on_c, 0, 44, 0
2, 214417, Note_on_c, 0, 79, 0
2, 214417, Note_on_c, 0, 68, 0
2, 214417, Note_on_c, 0, 80, 0
2, 214418, Note_on_c, 0, 56, 0
2, 214419, Note_on_c, 0, 51, 0
2, 214419, Note_on_c, 0, 60, 0
2, 214419, Note_on_c, 0, 63, 0
2, 214419, Control_c, 0, 64, 0
2, 214420, Note_on_c, 0, 72, 0
2, 214424, Note_on_c, 0, 80, 107
2, 214425, Note_on_c, 0, 75, 0
2, 214429, Note_on_c, 0, 68, 103
2, 214430, Note_on_c, 0, 39, 100
2, 214430, Note_on_c, 0, 27, 101
2, 214430, Note_on_c, 0, 75, 97
2, 214432, Note_on_c, 0, 70, 99
2, 214479, Control_c, 0, 64, 127
2, 214586, Note_on_c, 0, 27, 0
2, 214783, Note_on_c, 0, 52, 62
2, 214785, Note_on_c, 0, 53, 72
2, 214945, Note_on_c, 0, 58, 97
2, 214953, Note_on_c, 0, 55, 93
2, 215264, Note_on_c, 0, 51, 96
2, 215424, Note_on_c, 0, 58, 0
2, 215431, Note_on_c, 0, 55, 0
2, 215432, Note_on_c, 0, 58, 95
2, 215435, Note_on_c, 0, 63, 96
2, 215435, Note_on_c, 0, 55, 85
2, 215585, Note_on_c, 0, 51, 0
2, 215589, Note_on_c, 0, 51, 77
2, 215784, Note_on_c, 0, 58, 0
2, 215784, Note_on_c, 0, 63, 0
2, 215784, Note_on_c, 0, 70, 0
2, 215784, Note_on_c, 0, 75, 0
2, 215789, Note_on_c, 0, 82, 105
2, 215790, Note_on_c, 0, 67, 101
2, 215790, Note_on_c, 0, 63, 97
2, 215792, Note_on_c, 0, 58, 90
2, 215793, Note_on_c, 0, 70, 99
2, 215794, Note_on_c, 0, 79, 95
2, 215796, Note_on_c, 0, 75, 98
2, 216115, Note_on_c, 0, 55, 0
2, 216119, Note_on_c, 0, 55, 92
2, 216460, Note_on_c, 0, 68, 0
2, 216460, Note_on_c, 0, 80, 0
2, 216465, Note_on_c, 0, 63, 0
2, 216465, Control_c, 0, 64, 0
2, 216466, Note_on_c, 0, 55, 0
2, 216466, Note_on_c, 0, 79, 0
2, 216467, Note_on_c, 0, 58, 0
2, 216467, Note_on_c, 0, 75, 0
2, 216468, Note_on_c, 0, 67, 0
2, 216468, Note_on_c, 0, 52, 0
2, 216468, Note_on_c, 0, 70, 0
2, 216469, Note_on_c, 0, 51, 0
2, 216470, Note_on_c, 0, 39, 0
2, 216470, Note_on_c, 0, 53, 0
2, 216470, Note_on_c, 0, 82, 0
2, 216471, Note_on_c, 0, 80, 112
2, 216472, Note_on_c, 0, 68, 107
2, 216473, Note_on_c, 0, 72, 102
2, 216477, Note_on_c, 0, 29, 96
2, 216479, Note_on_c, 0, 77, 95
2, 216514, Control_c, 0, 64, 127
2, 216566, Note_on_c, 0, 36, 86
2, 216638, Note_on_c, 0, 41, 80
2, 216767, Note_on_c, 0, 44, 65
2, 216806, Note_on_c, 0, 72, 0
2, 216809, Note_on_c, 0, 79, 97
2, 216811, Note_on_c, 0, 67, 95
2, 216811, Note_on_c, 0, 48, 79
2, 216815, Note_on_c, 0, 72, 72
2, 216890, Note_on_c, 0, 53, 80
2, 216975, Note_on_c, 0, 72, 0
2, 216975, Note_on_c, 0, 77, 0
2, 216983, Note_on_c, 0, 68, 0
2, 216983, Note_on_c, 0, 80, 0
2, 216985, Note_on_c, 0, 72, 89
2, 216986, Note_on_c, 0, 56, 84
2, 216986, Note_on_c, 0, 77, 77
2, 216987, Note_on_c, 0, 80, 105
2, 216987, Note_on_c, 0, 68, 103
2, 217071, Note_on_c, 0, 60, 86
2, 217159, Note_on_c, 0, 53, 0
2, 217170, Note_on_c, 0, 53, 88
2, 217251, Note_on_c, 0, 56, 0
2, 217262, Note_on_c, 0, 56, 83
2, 217344, Note_on_c, 0, 60, 0
2, 217351, Note_on_c, 0, 72, 0
2, 217351, Note_on_c, 0, 80, 0
2, 217353, Note_on_c, 0, 60, 85
2, 217356, Note_on_c, 0, 84, 106
2, 217359, Note_on_c, 0, 77, 0
2, 217362, Note_on_c, 0, 72, 97
2, 217363, Note_on_c, 0, 80, 100
2, 217367, Note_on_c, 0, 77, 92
2, 217468, Note_on_c, 0, 65, 87
2, 217536, Note_on_c, 0, 68, 0
2, 217546, Note_on_c, 0, 68, 91
2, 217628, Note_on_c, 0, 65, 0
2, 217632, Note_on_c, 0, 65, 86
2, 217697, Note_on_c, 0, 60, 0
2, 217708, Note_on_c, 0, 60, 84
2, 217774, Note_on_c, 0, 56, 0
2, 217778, Note_on_c, 0, 56, 86
2, 217866, Note_on_c, 0, 53, 0
2, 217866, Note_on_c, 0, 79, 0
2, 217872, Note_on_c, 0, 53, 92
2, 217873, Note_on_c, 0, 72, 0
2, 217877, Note_on_c, 0, 79, 102
2, 217883, Note_on_c, 0, 72, 81
2, 217943, Note_on_c, 0, 48, 0
2, 217951, Note_on_c, 0, 48, 80
2, 218027, Note_on_c, 0, 44, 0
2, 218032, Note_on_c, 0, 44, 87
2, 218035, Note_on_c, 0, 72, 0
2, 218035, Note_on_c, 0, 77, 0
2, 218039, Note_on_c, 0, 72, 76
2, 218041, Note_on_c, 0, 77, 92
2, 218088, Note_on_c, 0, 41, 0
2, 218100, Note_on_c, 0, 41, 91
2, 218211, Note_on_c, 0, 53, 0
2, 218219, Note_on_c, 0, 56, 0
2, 218219, Note_on_c, 0, 68, 0
2, 218219, Note_on_c, 0, 72, 0
2, 218220, Note_on_c, 0, 53, 83
2, 218223, Note_on_c, 0, 75, 100
2, 218224, Note_on_c, 0, 56, 86
2, 218225, Note_on_c, 0, 72, 92
2, 218228, Note_on_c, 0, 68, 96
2, 218280, Note_on_c, 0, 48, 0
2, 218290, Note_on_c, 0, 48, 76
2, 218365, Note_on_c, 0, 44, 0
2, 218375, Note_on_c, 0, 44, 95
2, 218480, Note_on_c, 0, 29, 0
2, 218491, Note_on_c, 0, 53, 0
2, 218491, Note_on_c, 0, 67, 0
2, 218491, Note_on_c, 0, 79, 0
2, 218491, Note_on_c, 0, 65, 0
2, 218491, Note_on_c, 0, 48, 0
2, 218491, Note_on_c, 0, 56, 0
2, 218492, Note_on_c, 0, 75, 0
2, 218492, Note_on_c, 0, 68, 0
2, 218492, Note_on_c, 0, 60, 0
2, 218492, Note_on_c, 0, 77, 0
2, 218492, Note_on_c, 0, 72, 0
2, 218492, Note_on_c, 0, 44, 0
2, 218493, Control_c, 0, 64, 0
2, 218493, Note_on_c, 0, 84, 0
2, 218503, Note_on_c, 0, 36, 0
2, 218511, Note_on_c, 0, 41, 0
2, 218519, Note_on_c, 0, 80, 0
2, 218523, Note_on_c, 0, 37, 107
2, 218565, Control_c, 0, 64, 127
2, 218662, Note_on_c, 0, 43, 66
2, 218673, Note_on_c, 0, 44, 61
2, 218707, Note_on_c, 0, 49, 74
2, 218809, Note_on_c, 0, 53, 75
2, 218869, Note_on_c, 0, 80, 100
2, 218871, Note_on_c, 0, 73, 96
2, 218911, Note_on_c, 0, 61, 79
2, 219025, Note_on_c, 0, 80, 0
2, 219031, Note_on_c, 0, 80, 104
2, 219033, Note_on_c, 0, 73, 0
2, 219037, Note_on_c, 0, 65, 88
2, 219039, Note_on_c, 0, 73, 76
2, 219210, Note_on_c, 0, 73, 0
2, 219216, Note_on_c, 0, 73, 97
2, 219288, Note_on_c, 0, 68, 87
2, 219340, Note_on_c, 0, 65, 0
2, 219350, Note_on_c, 0, 65, 91
2, 219463, Note_on_c, 0, 61, 0
2, 219467, Note_on_c, 0, 61, 83
2, 219534, Note_on_c, 0, 56, 79
2, 219617, Note_on_c, 0, 53, 0
2, 219621, Note_on_c, 0, 52, 50
2, 219624, Note_on_c, 0, 52, 0
2, 219627, Note_on_c, 0, 53, 54
2, 219678, Note_on_c, 0, 49, 0
2, 219683, Note_on_c, 0, 49, 77
2, 219763, Note_on_c, 0, 44, 0
2, 219772, Note_on_c, 0, 44, 76
2, 219849, Control_c, 0, 64, 0
2, 219850, Note_on_c, 0, 53, 0
2, 219850, Note_on_c, 0, 49, 0
2, 219851, Note_on_c, 0, 44, 0
2, 219851, Note_on_c, 0, 73, 0
2, 219851, Note_on_c, 0, 56, 0
2, 219851, Note_on_c, 0, 80, 0
2, 219851, Note_on_c, 0, 68, 0
2, 219851, Note_on_c, 0, 61, 0
2, 219855, Note_on_c, 0, 37, 0
2, 219859, Note_on_c, 0, 37, 89
2, 219863, Note_on_c, 0, 43, 0
2, 219870, Note_on_c, 0, 65, 0
2, 219909, Control_c, 0, 64, 127
2, 219944, Note_on_c, 0, 44, 80
2, 219997, Note_on_c, 0, 49, 77
2, 220084, Note_on_c, 0, 53, 78
2, 220174, Note_on_c, 0, 61, 89
2, 220228, Note_on_c, 0, 56, 82
2, 220293, Note_on_c, 0, 53, 0
2, 220297, Note_on_c, 0, 53, 70
2, 220308, Note_on_c, 0, 49, 0
2, 220319, Note_on_c, 0, 49, 83
2, 220423, Note_on_c, 0, 44, 0
2, 220428, Note_on_c, 0, 44, 81
2, 220528, Control_c, 0, 64, 0
2, 220529, Note_on_c, 0, 44, 0
2, 220529, Note_on_c, 0, 49, 0
2, 220529, Note_on_c, 0, 53, 0
2, 220530, Note_on_c, 0, 80, 111
2, 220530, Note_on_c, 0, 61, 0
2, 220530, Note_on_c, 0, 56, 0
2, 220531, Note_on_c, 0, 32, 98
2, 220531, Note_on_c, 0, 37, 0
2, 220536, Note_on_c, 0, 68, 106
2, 220536, Note_on_c, 0, 72, 97
2, 220537, Note_on_c, 0, 75, 98
2, 220584, Control_c, 0, 64, 127
2, 220611, Note_on_c, 0, 39, 86
2, 220681, Note_on_c, 0, 44, 67
2, 220768, Note_on_c, 0, 48, 70
2, 220858, Note_on_c, 0, 51, 76
2, 220861, Note_on_c, 0, 75, 0
2, 220872, Note_on_c, 0, 79, 96
2, 220872, Note_on_c, 0, 75, 81
2, 220897, Note_on_c, 0, 56, 85
2, 221015, Note_on_c, 0, 80, 0
2, 221015, Note_on_c, 0, 60, 82
2, 221022, Note_on_c, 0, 80, 103
2, 221022, Note_on_c, 0, 72, 0
2, 221022, Note_on_c, 0, 75, 0
2, 221032, Note_on_c, 0, 72, 78
2, 221032, Note_on_c, 0, 75, 97
2, 221110, Note_on_c, 0, 63, 85
2, 221191, Note_on_c, 0, 68, 0
2, 221198, Note_on_c, 0, 68, 97
2, 221253, Note_on_c, 0, 63, 0
2, 221259, Note_on_c, 0, 63, 81
2, 221306, Note_on_c, 0, 60, 0
2, 221318, Note_on_c, 0, 60, 80
2, 221376, Note_on_c, 0, 72, 0
2, 221376, Note_on_c, 0, 75, 0
2, 221376, Note_on_c, 0, 80, 0
2, 221382, Note_on_c, 0, 75, 97
2, 221383, Note_on_c, 0, 84, 106
2, 221386, Note_on_c, 0, 80, 98
2, 221387, Note_on_c, 0, 72, 84
2, 221422, Note_on_c, 0, 56, 0
2, 221426, Note_on_c, 0, 56, 86
2, 221491, Note_on_c, 0, 51, 0
2, 221502, Note_on_c, 0, 51, 79
2, 221551, Note_on_c, 0, 49, 69
2, 221552, Note_on_c, 0, 48, 0
2, 221556, Note_on_c, 0, 48, 65
2, 221560, Note_on_c, 0, 49, 0
2, 221652, Note_on_c, 0, 44, 0
2, 221658, Note_on_c, 0, 44, 77
2, 221729, Note_on_c, 0, 39, 0
2, 221739, Note_on_c, 0, 39, 81
2, 221821, Note_on_c, 0, 48, 0
2, 221822, Note_on_c, 0, 56, 0
2, 221823, Note_on_c, 0, 68, 0
2, 221823, Note_on_c, 0, 44, 0
2, 221823, Note_on_c, 0, 63, 0
2, 221823, Note_on_c, 0, 80, 0
2, 221825, Control_c, 0, 64, 0
2, 221826, Note_on_c, 0, 84, 0
2, 221836, Note_on_c, 0, 32, 0
2, 221836, Note_on_c, 0, 60, 0
2, 221841, Note_on_c, 0, 32, 100
2, 221844, Note_on_c, 0, 51, 0
2, 221844, Note_on_c, 0, 79, 0
2, 221852, Note_on_c, 0, 72, 0
2, 221852, Note_on_c, 0, 75, 0
2, 221855, Note_on_c, 0, 79, 105
2, 221856, Note_on_c, 0, 67, 104
2, 221857, Note_on_c, 0, 72, 93
2, 221861, Note_on_c, 0, 75, 97
2, 221890, Control_c, 0, 64, 127
2, 221905, Note_on_c, 0, 39, 0
2, 221910, Note_on_c, 0, 39, 79
2, 221973, Note_on_c, 0, 44, 64
2, 222031, Note_on_c, 0, 77, 94
2, 222034, Note_on_c, 0, 65, 86
2, 222073, Note_on_c, 0, 48, 83
2, 222074, Note_on_c, 0, 49, 72
2, 222155, Note_on_c, 0, 56, 86
2, 222197, Note_on_c, 0, 72, 0
2, 222197, Note_on_c, 0, 75, 0
2, 222206, Note_on_c, 0, 75, 107
2, 222208, Note_on_c, 0, 72, 92
2, 222211, Note_on_c, 0, 63, 97
2, 222212, Note_on_c, 0, 68, 91
2, 222213, Note_on_c, 0, 49, 0
2, 222223, Note_on_c, 0, 51, 89
2, 222343, Note_on_c, 0, 44, 0
2, 222354, Note_on_c, 0, 44, 85
2, 222489, Note_on_c, 0, 44, 0
2, 222489, Note_on_c, 0, 79, 0
2, 222491, Note_on_c, 0, 51, 0
2, 222492, Note_on_c, 0, 67, 0
2, 222492, Note_on_c, 0, 77, 0
2, 222492, Note_on_c, 0, 56, 0
2, 222492, Note_on_c, 0, 65, 0
2, 222493, Note_on_c, 0, 63, 0
2, 222495, Control_c, 0, 64, 0
2, 222497, Note_on_c, 0, 32, 0
2, 222504, Note_on_c, 0, 48, 0
2, 222528, Note_on_c, 0, 39, 0
2, 222532, Note_on_c, 0, 39, 93
2, 222574, Control_c, 0, 64, 127
2, 222640, Note_on_c, 0, 46, 93
2, 222722, Note_on_c, 0, 51, 67
2, 222815, Note_on_c, 0, 55, 82
2, 222861, Note_on_c, 0, 82, 96
2, 222865, Note_on_c, 0, 75, 0
2, 222867, Note_on_c, 0, 79, 87
2, 222875, Note_on_c, 0, 75, 81
2, 222885, Note_on_c, 0, 58, 88
2, 222937, Note_on_c, 0, 63, 82
2, 223019, Note_on_c, 0, 68, 0
2, 223019, Note_on_c, 0, 82, 0
2, 223026, Note_on_c, 0, 82, 98
2, 223027, Note_on_c, 0, 79, 0
2, 223028, Note_on_c, 0, 68, 96
2, 223032, Note_on_c, 0, 79, 91
2, 223120, Note_on_c, 0, 70, 85
2, 223180, Note_on_c, 0, 75, 0
2, 223191, Note_on_c, 0, 75, 90
2, 223242, Note_on_c, 0, 70, 0
2, 223253, Note_on_c, 0, 70, 78
2, 223314, Note_on_c, 0, 67, 87
2, 223411, Note_on_c, 0, 63, 0
2, 223422, Note_on_c, 0, 63, 85
2, 223488, Note_on_c, 0, 58, 0
2, 223493, Note_on_c, 0, 58, 83
2, 223557, Note_on_c, 0, 55, 0
2, 223561, Note_on_c, 0, 55, 81
2, 223664, Note_on_c, 0, 51, 0
2, 223672, Note_on_c, 0, 51, 79
2, 223749, Note_on_c, 0, 46, 0
2, 223754, Note_on_c, 0, 46, 87
2, 223841, Note_on_c, 0, 39, 0
2, 223841, Note_on_c, 0, 68, 0
2, 223846, Note_on_c, 0, 80, 107
2, 223846, Note_on_c, 0, 39, 93
2, 223848, Note_on_c, 0, 75, 0
2, 223852, Note_on_c, 0, 68, 99
2, 223852, Note_on_c, 0, 75, 102
2, 223854, Control_c, 0, 64, 0
2, 223860, Note_on_c, 0, 79, 0
2, 223860, Note_on_c, 0, 55, 0
2, 223861, Note_on_c, 0, 46, 0
2, 223861, Note_on_c, 0, 67, 0
2, 223861, Note_on_c, 0, 58, 0
2, 223862, Note_on_c, 0, 51, 0
2, 223862, Note_on_c, 0, 70, 0
2, 223863, Note_on_c, 0, 82, 0
2, 223872, Note_on_c, 0, 72, 0
2, 223887, Note_on_c, 0, 63, 0
2, 223925, Control_c, 0, 64, 127
2, 223942, Note_on_c, 0, 46, 92
2, 224008, Note_on_c, 0, 51, 83
2, 224096, Note_on_c, 0, 55, 84
2, 224185, Note_on_c, 0, 63, 92
2, 224251, Note_on_c, 0, 58, 83
2, 224294, Note_on_c, 0, 55, 0
2, 224305, Note_on_c, 0, 55, 54
2, 224332, Note_on_c, 0, 51, 0
2, 224343, Note_on_c, 0, 51, 87
2, 224497, Note_on_c, 0, 46, 0
2, 224497, Note_on_c, 0, 51, 0
2, 224497, Note_on_c, 0, 80, 0
2, 224497, Note_on_c, 0, 58, 0
2, 224497, Note_on_c, 0, 55, 0
2, 224497, Note_on_c, 0, 63, 0
2, 224499, Control_c, 0, 64, 0
2, 224509, Note_on_c, 0, 39, 0
2, 224509, Note_on_c, 0, 68, 0
2, 224509, Note_on_c, 0, 75, 0
2, 224524, Note_on_c, 0, 82, 109
2, 224528, Note_on_c, 0, 79, 86
2, 224529, Note_on_c, 0, 29, 95
2, 224530, Note_on_c, 0, 70, 101
2, 224533, Note_on_c, 0, 75, 101
2, 224570, Control_c, 0, 64, 127
2, 224616, Note_on_c, 0, 36, 42
2, 224680, Note_on_c, 0, 41, 70
2, 224798, Note_on_c, 0, 46, 59
2, 224855, Note_on_c, 0, 48, 75
2, 224949, Note_on_c, 0, 55, 66
2, 224955, Note_on_c, 0, 53, 51
2, 225028, Note_on_c, 0, 84, 102
2, 225032, Note_on_c, 0, 72, 99
2, 225035, Note_on_c, 0, 77, 92
2, 225035, Note_on_c, 0, 80, 98
2, 225070, Note_on_c, 0, 48, 0
2, 225074, Note_on_c, 0, 60, 86
2, 225081, Note_on_c, 0, 48, 70
2, 225164, Note_on_c, 0, 65, 77
2, 225234, Note_on_c, 0, 68, 94
2, 225315, Note_on_c, 0, 65, 0
2, 225324, Note_on_c, 0, 65, 85
2, 225384, Note_on_c, 0, 60, 0
2, 225394, Note_on_c, 0, 60, 83
2, 225471, Note_on_c, 0, 56, 86
2, 225553, Note_on_c, 0, 53, 0
2, 225564, Note_on_c, 0, 53, 87
2, 225653, Note_on_c, 0, 48, 0
2, 225657, Note_on_c, 0, 48, 83
2, 225738, Note_on_c, 0, 53, 0
2, 225743, Note_on_c, 0, 53, 78
2, 225815, Note_on_c, 0, 48, 0
2, 225821, Note_on_c, 0, 48, 84
2, 225872, Note_on_c, 0, 65, 0
2, 225872, Note_on_c, 0, 84, 0
2, 225872, Note_on_c, 0, 82, 0
2, 225873, Note_on_c, 0, 55, 0
2, 225873, Note_on_c, 0, 46, 0
2, 225873, Note_on_c, 0, 75, 0
2, 225874, Note_on_c, 0, 53, 0
2, 225874, Note_on_c, 0, 70, 0
2, 225875, Note_on_c, 0, 56, 0
2, 225876, Note_on_c, 0, 60, 0
2, 225876, Note_on_c, 0, 29, 0
2, 225876, Note_on_c, 0, 36, 0
2, 225876, Note_on_c, 0, 80, 0
2, 225880, Control_c, 0, 64, 0
2, 225884, Note_on_c, 0, 41, 0
2, 225884, Note_on_c, 0, 68, 0
2, 225884, Note_on_c, 0, 72, 0
2, 225884, Note_on_c, 0, 77, 0
2, 225884, Note_on_c, 0, 79, 0
2, 225887, Note_on_c, 0, 80, 106
2, 225888, Note_on_c, 0, 41, 90
2, 225890, Note_on_c, 0, 72, 94
2, 225891, Note_on_c, 0, 68, 100
2, 225894, Note_on_c, 0, 77, 90
2, 225937, Control_c, 0, 64, 127
2, 225976, Note_on_c, 0, 48, 0
2, 225981, Note_on_c, 0, 48, 85
2, 226049, Note_on_c, 0, 53, 80
2, 226160, Note_on_c, 0, 57, 78
2, 226228, Note_on_c, 0, 65, 87
2, 226292, Note_on_c, 0, 60, 82
2, 226357, Note_on_c, 0, 56, 81
2, 226391, Note_on_c, 0, 53, 0
2, 226401, Note_on_c, 0, 53, 77
2, 226506, Note_on_c, 0, 49, 65
2, 226559, Note_on_c, 0, 41, 0
2, 226561, Note_on_c, 0, 65, 0
2, 226561, Note_on_c, 0, 77, 0
2, 226561, Note_on_c, 0, 48, 0
2, 226561, Note_on_c, 0, 57, 0
2, 226562, Note_on_c, 0, 53, 0
2, 226562, Note_on_c, 0, 72, 0
2, 226562, Note_on_c, 0, 68, 0
2, 226562, Note_on_c, 0, 56, 0
2, 226563, Control_c, 0, 64, 0
2, 226567, Note_on_c, 0, 80, 0
2, 226571, Note_on_c, 0, 37, 96
2, 226571, Note_on_c, 0, 87, 107
2, 226573, Note_on_c, 0, 75, 103
2, 226573, Note_on_c, 0, 80, 104
2, 226575, Note_on_c, 0, 60, 0
2, 226621, Note_on_c, 0, 49, 0
2, 226621, Control_c, 0, 64, 127
2, 226664, Note_on_c, 0, 44, 79
2, 226733, Note_on_c, 0, 49, 77
2, 226817, Note_on_c, 0, 53, 73
2, 226894, Note_on_c, 0, 56, 77
2, 226956, Note_on_c, 0, 61, 81
2, 227064, Note_on_c, 0, 65, 82
2, 227082, Note_on_c, 0, 80, 0
2, 227082, Note_on_c, 0, 87, 0
2, 227086, Note_on_c, 0, 87, 106
2, 227093, Note_on_c, 0, 80, 100
2, 227095, Note_on_c, 0, 84, 82
2, 227151, Note_on_c, 0, 68, 96
2, 227244, Note_on_c, 0, 73, 95
2, 227312, Note_on_c, 0, 68, 0
2, 227316, Note_on_c, 0, 68, 76
2, 227358, Note_on_c, 0, 65, 0
2, 227364, Note_on_c, 0, 65, 78
2, 227466, Note_on_c, 0, 61, 0
2, 227476, Note_on_c, 0, 61, 78
2, 227543, Note_on_c, 0, 56, 0
2, 227551, Note_on_c, 0, 56, 79
2, 227573, Note_on_c, 0, 75, 0
2, 227573, Note_on_c, 0, 80, 0
2, 227573, Note_on_c, 0, 84, 0
2, 227578, Note_on_c, 0, 84, 102
2, 227579, Note_on_c, 0, 75, 98
2, 227583, Note_on_c, 0, 72, 91
2, 227584, Note_on_c, 0, 80, 92
2, 227636, Note_on_c, 0, 52, 54
2, 227719, Note_on_c, 0, 49, 0
2, 227724, Note_on_c, 0, 49, 68
2, 227796, Note_on_c, 0, 44, 0
2, 227807, Note_on_c, 0, 44, 85
2, 227904, Note_on_c, 0, 37, 0
2, 227908, Note_on_c, 0, 52, 0
2, 227909, Note_on_c, 0, 49, 0
2, 227909, Note_on_c, 0, 87, 0
2, 227909, Note_on_c, 0, 73, 0
2, 227909, Note_on_c, 0, 80, 0
2, 227909, Note_on_c, 0, 65, 0
2, 227910, Note_on_c, 0, 68, 0
2, 227910, Note_on_c, 0, 53, 0
2, 227910, Note_on_c, 0, 61, 0
2, 227911, Note_on_c, 0, 44, 0
2, 227911, Note_on_c, 0, 72, 0
2, 227911, Note_on_c, 0, 75, 0
2, 227911, Note_on_c, 0, 37, 90
2, 227912, Note_on_c, 0, 84, 0
2, 227913, Control_c, 0, 64, 0
2, 227915, Note_on_c, 0, 82, 107
2, 227918, Note_on_c, 0, 75, 103
2, 227919, Note_on_c, 0, 56, 0
2, 227920, Note_on_c, 0, 70, 98
2, 227965, Control_c, 0, 64, 127
2, 227988, Note_on_c, 0, 44, 79
2, 228053, Note_on_c, 0, 49, 75
2, 228131, Note_on_c, 0, 53, 79
2, 228230, Note_on_c, 0, 61, 88
2, 228259, Note_on_c, 0, 80, 102
2, 228266, Note_on_c, 0, 68, 99
2, 228306, Note_on_c, 0, 56, 80
2, 228372, Note_on_c, 0, 53, 0
2, 228382, Note_on_c, 0, 53, 78
2, 228418, Note_on_c, 0, 49, 0
2, 228425, Note_on_c, 0, 49, 65
2, 228582, Note_on_c, 0, 37, 0
2, 228583, Note_on_c, 0, 49, 0
2, 228583, Note_on_c, 0, 56, 0
2, 228583, Note_on_c, 0, 75, 0
2, 228584, Note_on_c, 0, 61, 0
2, 228584, Note_on_c, 0, 44, 0
2, 228584, Note_on_c, 0, 53, 0
2, 228585, Note_on_c, 0, 82, 0
2, 228585, Note_on_c, 0, 70, 0
2, 228586, Control_c, 0, 64, 0
2, 228595, Note_on_c, 0, 68, 0
2, 228595, Note_on_c, 0, 80, 0
2, 228599, Note_on_c, 0, 80, 106
2, 228600, Note_on_c, 0, 32, 88
2, 228602, Note_on_c, 0, 72, 94
2, 228604, Note_on_c, 0, 68, 104
2, 228641, Control_c, 0, 64, 127
2, 228699, Note_on_c, 0, 39, 72
2, 228769, Note_on_c, 0, 44, 81
2, 228800, Note_on_c, 0, 75, 97
2, 228863, Note_on_c, 0, 48, 78
2, 228953, Note_on_c, 0, 51, 73
2, 229006, Note_on_c, 0, 56, 81
2, 229117, Note_on_c, 0, 75, 0
2, 229121, Note_on_c, 0, 60, 90
2, 229126, Note_on_c, 0, 75, 107
2, 229132, Note_on_c, 0, 72, 0
2, 229139, Note_on_c, 0, 72, 91
2, 229212, Note_on_c, 0, 63, 82
2, 229286, Note_on_c, 0, 68, 0
2, 229296, Note_on_c, 0, 68, 97
2, 229355, Note_on_c, 0, 63, 0
2, 229361, Note_on_c, 0, 63, 80
2, 229416, Note_on_c, 0, 60, 0
2, 229425, Note_on_c, 0, 60, 88
2, 229532, Note_on_c, 0, 56, 0
2, 229540, Note_on_c, 0, 56, 80
2, 229601, Note_on_c, 0, 51, 0
2, 229611, Note_on_c, 0, 51, 82
2, 229662, Note_on_c, 0, 48, 0
2, 229667, Note_on_c, 0, 48, 69
2, 229777, Note_on_c, 0, 44, 0
2, 229783, Note_on_c, 0, 44, 68
2, 229839, Note_on_c, 0, 39, 0
2, 229849, Note_on_c, 0, 39, 79
2, 229954, Note_on_c, 0, 32, 0
2, 229962, Note_on_c, 0, 72, 0
2, 229962, Note_on_c, 0, 75, 0
2, 229965, Note_on_c, 0, 32, 93
2, 229966, Control_c, 0, 64, 0
2, 229966, Note_on_c, 0, 79, 104
2, 229967, Note_on_c, 0, 63, 0
2, 229967, Note_on_c, 0, 39, 0
2, 229967, Note_on_c, 0, 44, 0
2, 229967, Note_on_c, 0, 60, 0
2, 229967, Note_on_c, 0, 80, 0
2, 229967, Note_on_c, 0, 56, 0
2, 229967, Note_on_c, 0, 68, 0
2, 229968, Note_on_c, 0, 48, 0
2, 229968, Note_on_c, 0, 51, 0
2, 229970, Note_on_c, 0, 72, 96
2, 229970, Note_on_c, 0, 75, 93
2, 229970, Note_on_c, 0, 67, 97
2, 230031, Control_c, 0, 64, 127
2, 230049, Note_on_c, 0, 39, 62
2, 230103, Note_on_c, 0, 44, 74
2, 230192, Note_on_c, 0, 48, 77
2, 230295, Note_on_c, 0, 56, 78
2, 230385, Note_on_c, 0, 51, 74
2, 230515, Note_on_c, 0, 51, 0
2, 230521, Note_on_c, 0, 51, 86
2, 230645, Note_on_c, 0, 39, 0
2, 230650, Note_on_c, 0, 80, 107
2, 230652, Note_on_c, 0, 39, 91
2, 230653, Note_on_c, 0, 72, 0
2, 230653, Note_on_c, 0, 75, 0
2, 230658, Note_on_c, 0, 68, 96
2, 230659, Note_on_c, 0, 75, 97
2, 230661, Note_on_c, 0, 72, 90
2, 230662, Control_c, 0, 64, 0
2, 230668, Note_on_c, 0, 44, 0
2, 230671, Note_on_c, 0, 79, 0
2, 230671, Note_on_c, 0, 67, 0
2, 230671, Note_on_c, 0, 48, 0
2, 230672, Note_on_c, 0, 51, 0
2, 230672, Note_on_c, 0, 56, 0
2, 230684, Note_on_c, 0, 32, 0
2, 230730, Control_c, 0, 64, 127
2, 230766, Note_on_c, 0, 46, 86
2, 230828, Note_on_c, 0, 51, 74
2, 230926, Note_on_c, 0, 55, 78
2, 231015, Note_on_c, 0, 58, 69
2, 231070, Note_on_c, 0, 63, 82
2, 231152, Note_on_c, 0, 58, 0
2, 231163, Note_on_c, 0, 58, 65
2, 231229, Note_on_c, 0, 55, 0
2, 231240, Note_on_c, 0, 55, 83
2, 231336, Note_on_c, 0, 51, 0
2, 231342, Note_on_c, 0, 51, 90
2, 231413, Note_on_c, 0, 55, 0
2, 231422, Note_on_c, 0, 55, 66
2, 231467, Note_on_c, 0, 58, 0
2, 231477, Note_on_c, 0, 58, 80
2, 231559, Note_on_c, 0, 63, 0
2, 231570, Note_on_c, 0, 63, 78
2, 231666, Note_on_c, 0, 67, 79
2, 231796, Note_on_c, 0, 70, 82
2, 231882, Note_on_c, 0, 75, 0
2, 231892, Note_on_c, 0, 75, 79
2, 231963, Note_on_c, 0, 79, 89
2, 232051, Note_on_c, 0, 51, 0
2, 232051, Note_on_c, 0, 79, 0
2, 232055, Note_on_c, 0, 51, 88
2, 232056, Note_on_c, 0, 82, 106
2, 232058, Note_on_c, 0, 70, 0
2, 232060, Note_on_c, 0, 79, 92
2, 232065, Note_on_c, 0, 70, 95
2, 232066, Note_on_c, 0, 75, 0
2, 232071, Note_on_c, 0, 75, 90
2, 232072, Control_c, 0, 64, 0
2, 232099, Note_on_c, 0, 80, 0
2, 232099, Note_on_c, 0, 55, 0
2, 232100, Note_on_c, 0, 67, 0
2, 232100, Note_on_c, 0, 63, 0
2, 232100, Note_on_c, 0, 46, 0
2, 232112, Note_on_c, 0, 68, 0
2, 232112, Note_on_c, 0, 72, 0
2, 232120, Note_on_c, 0, 39, 0
2, 232151, Note_on_c, 0, 58, 0
2, 232158, Control_c, 0, 64, 127
2, 232160, Note_on_c, 0, 58, 75
2, 232288, Note_on_c, 0, 63, 80
2, 232393, Note_on_c, 0, 67, 79
2, 232504, Note_on_c, 0, 70, 0
2, 232509, Note_on_c, 0, 70, 85
2, 232642, Note_on_c, 0, 75, 0
2, 232650, Note_on_c, 0, 75, 75
2, 232765, Note_on_c, 0, 79, 0
2, 232772, Note_on_c, 0, 79, 80
2, 232919, Note_on_c, 0, 82, 0
2, 232923, Note_on_c, 0, 82, 80
2, 233066, Note_on_c, 0, 53, 75
2, 233133, Note_on_c, 0, 60, 80
2, 233189, Note_on_c, 0, 80, 81
2, 233198, Note_on_c, 0, 68, 88
2, 233220, Note_on_c, 0, 70, 0
2, 233220, Note_on_c, 0, 82, 0
2, 233220, Note_on_c, 0, 58, 0
2, 233220, Note_on_c, 0, 79, 0
2, 233221, Note_on_c, 0, 63, 0
2, 233221, Note_on_c, 0, 67, 0
2, 233221, Control_c, 0, 64, 0
2, 233221, Note_on_c, 0, 75, 0
2, 233233, Note_on_c, 0, 51, 0
2, 233237, Note_on_c, 0, 84, 84
2, 233303, Note_on_c, 0, 89, 92
2, 233318, Control_c, 0, 64, 127
2, 233360, Note_on_c, 0, 92, 103
2, 233994, Note_on_c, 0, 92, 0
2, 234004, Note_on_c, 0, 92, 55
2, 234024, Note_on_c, 0, 68, 0
2, 234031, Note_on_c, 0, 68, 58
2, 234039, Note_on_c, 0, 65, 46
2, 234163, Note_on_c, 0, 80, 0
2, 234172, Note_on_c, 0, 80, 65
2, 234242, Note_on_c, 0, 72, 47
2, 234255, Note_on_c, 0, 53, 0
2, 234278, Note_on_c, 0, 84, 0
2, 234282, Note_on_c, 0, 84, 64
2, 234378, Note_on_c, 0, 80, 0
2, 234388, Note_on_c, 0, 80, 59
2, 234485, Note_on_c, 0, 92, 0
2, 234490, Note_on_c, 0, 92, 69
2, 234493, Note_on_c, 0, 65, 0
2, 234493, Note_on_c, 0, 68, 0
2, 234497, Note_on_c, 0, 68, 49
2, 234500, Note_on_c, 0, 65, 56
2, 234616, Note_on_c, 0, 80, 0
2, 234624, Note_on_c, 0, 80, 51
2, 234677, Note_on_c, 0, 72, 0
2, 234687, Note_on_c, 0, 72, 52
2, 234708, Note_on_c, 0, 84, 0
2, 234716, Note_on_c, 0, 84, 56
2, 234785, Note_on_c, 0, 80, 0
2, 234791, Note_on_c, 0, 80, 59
2, 234862, Note_on_c, 0, 92, 0
2, 234869, Note_on_c, 0, 92, 70
2, 234877, Note_on_c, 0, 68, 0
2, 234885, Note_on_c, 0, 65, 0
2, 234886, Note_on_c, 0, 68, 50
2, 234896, Note_on_c, 0, 65, 47
2, 234961, Note_on_c, 0, 80, 0
2, 234973, Note_on_c, 0, 80, 61
2, 235054, Note_on_c, 0, 72, 0
2, 235054, Note_on_c, 0, 84, 0
2, 235058, Note_on_c, 0, 84, 67
2, 235060, Note_on_c, 0, 72, 55
2, 235146, Note_on_c, 0, 80, 0
2, 235155, Note_on_c, 0, 80, 72
2, 235200, Note_on_c, 0, 68, 0
2, 235205, Note_on_c, 0, 68, 66
2, 235207, Note_on_c, 0, 65, 0
2, 235216, Note_on_c, 0, 65, 41
2, 235230, Note_on_c, 0, 92, 0
2, 235241, Note_on_c, 0, 92, 86
2, 235315, Note_on_c, 0, 80, 0
2, 235321, Note_on_c, 0, 80, 76
2, 235361, Note_on_c, 0, 72, 0
2, 235371, Note_on_c, 0, 72, 64
2, 235415, Note_on_c, 0, 84, 0
2, 235419, Note_on_c, 0, 84, 71
2, 235507, Note_on_c, 0, 80, 0
2, 235513, Note_on_c, 0, 80, 71
2, 235545, Note_on_c, 0, 68, 0
2, 235550, Note_on_c, 0, 68, 74
2, 235553, Note_on_c, 0, 65, 0
2, 235555, Note_on_c, 0, 91, 88
2, 235560, Note_on_c, 0, 65, 64
2, 235622, Note_on_c, 0, 80, 0
2, 235632, Note_on_c, 0, 80, 79
2, 235722, Note_on_c, 0, 84, 0
2, 235727, Note_on_c, 0, 84, 77
2, 235837, Note_on_c, 0, 80, 0
2, 235842, Note_on_c, 0, 80, 72
2, 235944, Note_on_c, 0, 89, 0
2, 235946, Note_on_c, 0, 68, 0
2, 235946, Note_on_c, 0, 72, 0
2, 235947, Note_on_c, 0, 60, 0
2, 235947, Note_on_c, 0, 65, 0
2, 235947, Note_on_c, 0, 84, 0
2, 235947, Note_on_c, 0, 80, 0
2, 235949, Control_c, 0, 64, 0
2, 235949, Note_on_c, 0, 89, 91
2, 235960, Note_on_c, 0, 91, 0
2, 235968, Note_on_c, 0, 92, 0
2, 235970, Note_on_c, 0, 61, 66
2, 235978, Note_on_c, 0, 56, 64
2, 236006, Control_c, 0, 64, 127
2, 236097, Note_on_c, 0, 77, 55
2, 236174, Note_on_c, 0, 80, 70
2, 236275, Note_on_c, 0, 77, 0
2, 236283, Note_on_c, 0, 77, 58
2, 236405, Note_on_c, 0, 89, 0
2, 236412, Note_on_c, 0, 89, 77
2, 236421, Note_on_c, 0, 61, 0
2, 236428, Note_on_c, 0, 61, 46
2, 236431, Note_on_c, 0, 65, 55
2, 236432, Note_on_c, 0, 68, 59
2, 236528, Note_on_c, 0, 77, 0
2, 236539, Note_on_c, 0, 77, 62
2, 236620, Note_on_c, 0, 80, 0
2, 236625, Note_on_c, 0, 73, 51
2, 236630, Note_on_c, 0, 80, 69
2, 236728, Note_on_c, 0, 77, 0
2, 236733, Note_on_c, 0, 77, 55
2, 236789, Note_on_c, 0, 89, 0
2, 236801, Note_on_c, 0, 89, 88
2, 236828, Note_on_c, 0, 61, 0
2, 236828, Note_on_c, 0, 65, 0
2, 236828, Note_on_c, 0, 68, 0
2, 236833, Note_on_c, 0, 65, 55
2, 236833, Note_on_c, 0, 68, 50
2, 236838, Note_on_c, 0, 61, 40
2, 236904, Note_on_c, 0, 77, 0
2, 236910, Note_on_c, 0, 77, 56
2, 236974, Note_on_c, 0, 73, 0
2, 236974, Note_on_c, 0, 80, 0
2, 236980, Note_on_c, 0, 80, 75
2, 236981, Note_on_c, 0, 73, 63
2, 237066, Note_on_c, 0, 77, 0
2, 237072, Note_on_c, 0, 77, 70
2, 237135, Note_on_c, 0, 68, 0
2, 237135, Note_on_c, 0, 89, 0
2, 237142, Note_on_c, 0, 68, 67
2, 237143, Note_on_c, 0, 89, 90
2, 237158, Note_on_c, 0, 65, 0
2, 237169, Note_on_c, 0, 65, 53
2, 237235, Note_on_c, 0, 77, 0
2, 237239, Note_on_c, 0, 77, 57
2, 237304, Note_on_c, 0, 73, 0
2, 237304, Note_on_c, 0, 80, 0
2, 237312, Note_on_c, 0, 80, 74
2, 237313, Note_on_c, 0, 73, 68
2, 237411, Note_on_c, 0, 77, 0
2, 237416, Note_on_c, 0, 77, 59
2, 237473, Note_on_c, 0, 89, 0
2, 237480, Note_on_c, 0, 89, 90
2, 237480, Note_on_c, 0, 65, 0
2, 237480, Note_on_c, 0, 68, 0
2, 237484, Note_on_c, 0, 65, 60
2, 237485, Note_on_c, 0, 68, 60
2, 237550, Note_on_c, 0, 77, 0
2, 237561, Note_on_c, 0, 77, 63
2, 237626, Note_on_c, 0, 73, 0
2, 237638, Note_on_c, 0, 73, 74
2, 237649, Note_on_c, 0, 80, 0
2, 237658, Note_on_c, 0, 80, 72
2, 237757, Note_on_c, 0, 77, 0
2, 237762, Note_on_c, 0, 77, 59
2, 237811, Note_on_c, 0, 61, 0
2, 237818, Note_on_c, 0, 65, 0
2, 237818, Note_on_c, 0, 68, 0
2, 237822, Note_on_c, 0, 61, 39
2, 237824, Note_on_c, 0, 68, 68
2, 237824, Note_on_c, 0, 87, 88
2, 237826, Note_on_c, 0, 65, 60
2, 237888, Note_on_c, 0, 77, 0
2, 237894, Note_on_c, 0, 77, 58
2, 237972, Note_on_c, 0, 80, 0
2, 237979, Note_on_c, 0, 80, 75
2, 238103, Note_on_c, 0, 77, 0
2, 238108, Note_on_c, 0, 77, 57
2, 238209, Note_on_c, 0, 84, 79
2, 238212, Note_on_c, 0, 68, 0
2, 238213, Note_on_c, 0, 65, 0
2, 238213, Note_on_c, 0, 77, 0
2, 238213, Note_on_c, 0, 89, 0
2, 238215, Note_on_c, 0, 87, 0
2, 238215, Control_c, 0, 64, 0
2, 238225, Note_on_c, 0, 61, 0
2, 238225, Note_on_c, 0, 73, 0
2, 238230, Note_on_c, 0, 44, 60
2, 238233, Note_on_c, 0, 56, 0
2, 238238, Note_on_c, 0, 51, 55
2, 238238, Note_on_c, 0, 56, 56
2, 238241, Note_on_c, 0, 80, 0
2, 238279, Control_c, 0, 64, 127
2, 238360, Note_on_c, 0, 72, 64
2, 238447, Note_on_c, 0, 75, 65
2, 238533, Note_on_c, 0, 72, 0
2, 238538, Note_on_c, 0, 72, 65
2, 238632, Note_on_c, 0, 84, 0
2, 238642, Note_on_c, 0, 84, 77
2, 238646, Note_on_c, 0, 63, 56
2, 238660, Note_on_c, 0, 60, 47
2, 238740, Note_on_c, 0, 72, 0
2, 238751, Note_on_c, 0, 72, 73
2, 238808, Note_on_c, 0, 68, 57
2, 238840, Note_on_c, 0, 75, 0
2, 238849, Note_on_c, 0, 75, 62
2, 238924, Note_on_c, 0, 72, 0
2, 238935, Note_on_c, 0, 72, 68
2, 238978, Note_on_c, 0, 84, 0
2, 238988, Note_on_c, 0, 84, 80
2, 239001, Note_on_c, 0, 60, 0
2, 239001, Note_on_c, 0, 63, 0
2, 239012, Note_on_c, 0, 63, 55
2, 239012, Note_on_c, 0, 60, 61
2, 239063, Note_on_c, 0, 72, 0
2, 239067, Note_on_c, 0, 72, 76
2, 239147, Note_on_c, 0, 75, 0
2, 239157, Note_on_c, 0, 75, 78
2, 239178, Note_on_c, 0, 68, 0
2, 239183, Note_on_c, 0, 68, 62
2, 239247, Note_on_c, 0, 72, 0
2, 239256, Note_on_c, 0, 72, 80
2, 239308, Note_on_c, 0, 84, 0
2, 239314, Note_on_c, 0, 84, 85
2, 239331, Note_on_c, 0, 60, 0
2, 239331, Note_on_c, 0, 63, 0
2, 239341, Note_on_c, 0, 63, 66
2, 239343, Note_on_c, 0, 60, 64
2, 239400, Note_on_c, 0, 72, 0
2, 239406, Note_on_c, 0, 72, 77
2, 239477, Note_on_c, 0, 68, 0
2, 239477, Note_on_c, 0, 75, 0
2, 239487, Note_on_c, 0, 75, 77
2, 239489, Note_on_c, 0, 68, 72
2, 239569, Note_on_c, 0, 72, 0
2, 239574, Note_on_c, 0, 72, 77
2, 239627, Note_on_c, 0, 85, 95
2, 239646, Note_on_c, 0, 60, 0
2, 239646, Note_on_c, 0, 63, 0
2, 239651, Note_on_c, 0, 63, 67
2, 239654, Note_on_c, 0, 60, 67
2, 239700, Note_on_c, 0, 72, 0
2, 239706, Note_on_c, 0, 72, 71
2, 239808, Note_on_c, 0, 68, 0
2, 239808, Note_on_c, 0, 75, 0
2, 239811, Note_on_c, 0, 68, 68
2, 239813, Note_on_c, 0, 75, 73
2, 239900, Note_on_c, 0, 72, 0
2, 239907, Note_on_c, 0, 72, 73
2, 239953, Note_on_c, 0, 63, 0
2, 239953, Note_on_c, 0, 84, 0
2, 239960, Note_on_c, 0, 63, 70
2, 239961, Note_on_c, 0, 60, 0
2, 239963, Note_on_c, 0, 84, 91
2, 239965, Note_on_c, 0, 60, 72
2, 240038, Note_on_c, 0, 72, 0
2, 240049, Note_on_c, 0, 72, 69
2, 240130, Note_on_c, 0, 75, 0
2, 240135, Note_on_c, 0, 75, 67
2, 240245, Note_on_c, 0, 72, 0
2, 240249, Note_on_c, 0, 72, 60
2, 240280, Note_on_c, 0, 51, 0
2, 240280, Note_on_c, 0, 68, 0
2, 240281, Note_on_c, 0, 63, 0
2, 240281, Note_on_c, 0, 72, 0
2, 240281, Note_on_c, 0, 56, 0
2, 240281, Note_on_c, 0, 60, 0
2, 240282, Note_on_c, 0, 75, 0
2, 240282, Note_on_c, 0, 84, 0
2, 240282, Control_c, 0, 64, 0
2, 240283, Note_on_c, 0, 44, 0
2, 240291, Note_on_c, 0, 85, 0
2, 240313, Note_on_c, 0, 82, 88
2, 240317, Note_on_c, 0, 51, 63
2, 240337, Note_on_c, 0, 58, 66
2, 240360, Control_c, 0, 64, 127
2, 240407, Note_on_c, 0, 51, 0
2, 240451, Note_on_c, 0, 70, 53
2, 240527, Note_on_c, 0, 75, 67
2, 240606, Note_on_c, 0, 70, 0
2, 240616, Note_on_c, 0, 70, 70
2, 240683, Note_on_c, 0, 58, 0
2, 240688, Note_on_c, 0, 58, 66
2, 240691, Note_on_c, 0, 82, 0
2, 240695, Note_on_c, 0, 63, 55
2, 240701, Note_on_c, 0, 82, 86
2, 240798, Note_on_c, 0, 70, 0
2, 240809, Note_on_c, 0, 70, 69
2, 240877, Note_on_c, 0, 67, 52
2, 240883, Note_on_c, 0, 75, 0
2, 240893, Note_on_c, 0, 75, 72
2, 241029, Note_on_c, 0, 63, 0
2, 241034, Note_on_c, 0, 63, 61
2, 241036, Note_on_c, 0, 82, 0
2, 241041, Note_on_c, 0, 82, 87
2, 241044, Note_on_c, 0, 58, 0
2, 241050, Note_on_c, 0, 58, 49
2, 241128, Note_on_c, 0, 70, 0
2, 241134, Note_on_c, 0, 70, 55
2, 241205, Note_on_c, 0, 67, 0
2, 241205, Note_on_c, 0, 75, 0
2, 241212, Note_on_c, 0, 67, 54
2, 241216, Note_on_c, 0, 75, 71
2, 241313, Note_on_c, 0, 70, 0
2, 241324, Note_on_c, 0, 70, 64
2, 241367, Note_on_c, 0, 82, 0
2, 241374, Note_on_c, 0, 63, 0
2, 241376, Note_on_c, 0, 82, 88
2, 241383, Note_on_c, 0, 63, 59
2, 241390, Note_on_c, 0, 58, 0
2, 241395, Note_on_c, 0, 58, 51
2, 241459, Note_on_c, 0, 70, 0
2, 241465, Note_on_c, 0, 70, 69
2, 241536, Note_on_c, 0, 67, 0
2, 241547, Note_on_c, 0, 67, 60
2, 241551, Note_on_c, 0, 75, 0
2, 241562, Note_on_c, 0, 75, 65
2, 241651, Note_on_c, 0, 70, 0
2, 241662, Note_on_c, 0, 70, 52
2, 241709, Note_on_c, 0, 80, 86
2, 241712, Note_on_c, 0, 58, 0
2, 241718, Note_on_c, 0, 58, 68
2, 241720, Note_on_c, 0, 63, 0
2, 241726, Note_on_c, 0, 63, 61
2, 241789, Note_on_c, 0, 70, 0
2, 241795, Note_on_c, 0, 70, 62
2, 241881, Note_on_c, 0, 67, 0
2, 241886, Note_on_c, 0, 67, 60
2, 242047, Note_on_c, 0, 79, 82
2, 242065, Note_on_c, 0, 58, 0
2, 242065, Note_on_c, 0, 63, 0
2, 242070, Note_on_c, 0, 58, 68
2, 242070, Note_on_c, 0, 63, 63
2, 242150, Note_on_c, 0, 70, 0
2, 242156, Note_on_c, 0, 70, 61
2, 242242, Note_on_c, 0, 75, 0
2, 242253, Note_on_c, 0, 75, 67
2, 242365, Note_on_c, 0, 70, 0
2, 242375, Note_on_c, 0, 70, 48
2, 242442, Note_on_c, 0, 80, 0
2, 242445, Note_on_c, 0, 41, 61
2, 242448, Note_on_c, 0, 80, 78
2, 242476, Note_on_c, 0, 67, 0
2, 242476, Note_on_c, 0, 58, 0
2, 242477, Note_on_c, 0, 82, 0
2, 242477, Note_on_c, 0, 63, 0
2, 242477, Note_on_c, 0, 79, 0
2, 242477, Note_on_c, 0, 70, 0
2, 242478, Note_on_c, 0, 75, 0
2, 242482, Control_c, 0, 64, 0
2, 242542, Control_c, 0, 64, 127
2, 242560, Note_on_c, 0, 77, 62
2, 242635, Note_on_c, 0, 72, 73
2, 242644, Note_on_c, 0, 48, 60
2, 242751, Note_on_c, 0, 68, 58
2, 242787, Note_on_c, 0, 80, 0
2, 242792, Note_on_c, 0, 80, 81
2, 242808, Note_on_c, 0, 53, 59
2, 242880, Note_on_c, 0, 77, 0
2, 242884, Note_on_c, 0, 77, 68
2, 242972, Note_on_c, 0, 72, 0
2, 242980, Note_on_c, 0, 56, 58
2, 242983, Note_on_c, 0, 72, 74
2, 243041, Note_on_c, 0, 68, 0
2, 243049, Note_on_c, 0, 68, 61
2, 243136, Note_on_c, 0, 84, 82
2, 243137, Note_on_c, 0, 60, 69
2, 243217, Note_on_c, 0, 80, 0
2, 243224, Note_on_c, 0, 80, 74
2, 243287, Note_on_c, 0, 77, 0
2, 243294, Note_on_c, 0, 53, 0
2, 243297, Note_on_c, 0, 77, 67
2, 243299, Note_on_c, 0, 53, 71
2, 243394, Note_on_c, 0, 72, 0
2, 243402, Note_on_c, 0, 72, 68
2, 243448, Note_on_c, 0, 84, 0
2, 243456, Note_on_c, 0, 84, 88
2, 243471, Note_on_c, 0, 56, 0
2, 243482, Note_on_c, 0, 56, 68
2, 243540, Note_on_c, 0, 80, 0
2, 243545, Note_on_c, 0, 80, 76
2, 243609, Note_on_c, 0, 77, 0
2, 243617, Note_on_c, 0, 60, 0
2, 243619, Note_on_c, 0, 77, 74
2, 243625, Note_on_c, 0, 60, 71
2, 243701, Note_on_c, 0, 72, 0
2, 243707, Note_on_c, 0, 72, 73
2, 243780, Note_on_c, 0, 85, 97
2, 243799, Note_on_c, 0, 65, 72
2, 243863, Note_on_c, 0, 80, 0
2, 243867, Note_on_c, 0, 80, 81
2, 243924, Note_on_c, 0, 77, 0
2, 243935, Note_on_c, 0, 77, 57
2, 243962, Note_on_c, 0, 60, 0
2, 243971, Note_on_c, 0, 60, 76
2, 244003, Note_on_c, 0, 73, 71
2, 244100, Note_on_c, 0, 87, 98
2, 244124, Note_on_c, 0, 56, 0
2, 244133, Note_on_c, 0, 56, 71
2, 244185, Note_on_c, 0, 80, 0
2, 244191, Note_on_c, 0, 80, 77
2, 244277, Note_on_c, 0, 53, 0
2, 244277, Note_on_c, 0, 77, 0
2, 244283, Note_on_c, 0, 77, 65
2, 244288, Note_on_c, 0, 53, 53
2, 244339, Note_on_c, 0, 73, 0
2, 244344, Note_on_c, 0, 73, 66
2, 244481, Note_on_c, 0, 89, 95
2, 244490, Note_on_c, 0, 49, 61
2, 244494, Note_on_c, 0, 41, 0
2, 244495, Note_on_c, 0, 65, 0
2, 244495, Note_on_c, 0, 53, 0
2, 244495, Note_on_c, 0, 60, 0
2, 244495, Note_on_c, 0, 77, 0
2, 244495, Note_on_c, 0, 56, 0
2, 244495, Note_on_c, 0, 73, 0
2, 244495, Note_on_c, 0, 72, 0
2, 244495, Note_on_c, 0, 80, 0
2, 244496, Note_on_c, 0, 85, 0
2, 244496, Note_on_c, 0, 68, 0
2, 244496, Note_on_c, 0, 84, 0
2, 244497, Note_on_c, 0, 48, 0
2, 244497, Control_c, 0, 64, 0
2, 244515, Note_on_c, 0, 87, 0
2, 244561, Control_c, 0, 64, 127
2, 244578, Note_on_c, 0, 85, 76
2, 244668, Note_on_c, 0, 80, 76
2, 244684, Note_on_c, 0, 49, 0
2, 244693, Note_on_c, 0, 56, 62
2, 244760, Note_on_c, 0, 77, 58
2, 244815, Note_on_c, 0, 89, 0
2, 244826, Note_on_c, 0, 89, 92
2, 244848, Note_on_c, 0, 61, 74
2, 244907, Note_on_c, 0, 85, 0
2, 244918, Note_on_c, 0, 85, 76
2, 244992, Note_on_c, 0, 80, 0
2, 245001, Note_on_c, 0, 63, 60
2, 245002, Note_on_c, 0, 80, 66
2, 245084, Note_on_c, 0, 77, 0
2, 245094, Note_on_c, 0, 77, 45
2, 245154, Note_on_c, 0, 65, 70
2, 245155, Note_on_c, 0, 87, 94
2, 245245, Note_on_c, 0, 85, 0
2, 245250, Note_on_c, 0, 85, 81
2, 245345, Note_on_c, 0, 56, 0
2, 245345, Note_on_c, 0, 80, 0
2, 245349, Note_on_c, 0, 80, 69
2, 245349, Note_on_c, 0, 56, 58
2, 245406, Note_on_c, 0, 77, 0
2, 245410, Note_on_c, 0, 77, 52
2, 245475, Note_on_c, 0, 87, 0
2, 245481, Note_on_c, 0, 87, 90
2, 245506, Note_on_c, 0, 61, 0
2, 245511, Note_on_c, 0, 61, 71
2, 245560, Note_on_c, 0, 85, 0
2, 245570, Note_on_c, 0, 85, 80
2, 245644, Note_on_c, 0, 80, 0
2, 245652, Note_on_c, 0, 65, 0
2, 245655, Note_on_c, 0, 80, 72
2, 245658, Note_on_c, 0, 65, 69
2, 245721, Note_on_c, 0, 77, 0
2, 245731, Note_on_c, 0, 77, 65
2, 245821, Note_on_c, 0, 85, 0
2, 245825, Note_on_c, 0, 85, 93
2, 245835, Note_on_c, 0, 68, 78
2, 245890, Note_on_c, 0, 80, 0
2, 245901, Note_on_c, 0, 80, 74
2, 245982, Note_on_c, 0, 77, 0
2, 245990, Note_on_c, 0, 65, 0
2, 245993, Note_on_c, 0, 77, 58
2, 245995, Note_on_c, 0, 65, 62
2, 246086, Note_on_c, 0, 73, 56
2, 246151, Note_on_c, 0, 61, 0
2, 246151, Note_on_c, 0, 85, 0
2, 246158, Note_on_c, 0, 85, 89
2, 246162, Note_on_c, 0, 61, 74
2, 246236, Note_on_c, 0, 80, 0
2, 246243, Note_on_c, 0, 80, 70
2, 246297, Note_on_c, 0, 56, 0
2, 246306, Note_on_c, 0, 56, 68
2, 246328, Note_on_c, 0, 77, 0
2, 246332, Note_on_c, 0, 77, 50
2, 246382, Note_on_c, 0, 73, 0
2, 246388, Note_on_c, 0, 73, 70
2, 246512, Note_on_c, 0, 87, 0
2, 246518, Note_on_c, 0, 44, 70
2, 246519, Note_on_c, 0, 87, 83
2, 246539, Note_on_c, 0, 65, 0
2, 246539, Note_on_c, 0, 63, 0
2, 246539, Note_on_c, 0, 85, 0
2, 246539, Note_on_c, 0, 89, 0
2, 246539, Note_on_c, 0, 80, 0
2, 246539, Note_on_c, 0, 73, 0
2, 246539, Note_on_c, 0, 68, 0
2, 246540, Note_on_c, 0, 56, 0
2, 246540, Note_on_c, 0, 77, 0
2, 246544, Control_c, 0, 64, 0
2, 246551, Note_on_c, 0, 61, 0
2, 246597, Control_c, 0, 64, 127
2, 246613, Note_on_c, 0, 84, 72
2, 246693, Note_on_c, 0, 51, 60
2, 246700, Note_on_c, 0, 80, 73
2, 246801, Note_on_c, 0, 75, 66
2, 246823, Note_on_c, 0, 56, 55
2, 246873, Note_on_c, 0, 87, 0
2, 246882, Note_on_c, 0, 87, 93
2, 246958, Note_on_c, 0, 84, 0
2, 246964, Note_on_c, 0, 84, 72
2, 246984, Note_on_c, 0, 58, 59
2, 247034, Note_on_c, 0, 80, 0
2, 247039, Note_on_c, 0, 80, 73
2, 247111, Note_on_c, 0, 75, 0
2, 247123, Note_on_c, 0, 75, 63
2, 247161, Note_on_c, 0, 60, 69
2, 247196, Note_on_c, 0, 87, 0
2, 247201, Note_on_c, 0, 87, 87
2, 247280, Note_on_c, 0, 84, 0
2, 247288, Note_on_c, 0, 84, 69
2, 247334, Note_on_c, 0, 56, 0
2, 247345, Note_on_c, 0, 56, 56
2, 247357, Note_on_c, 0, 80, 0
2, 247362, Note_on_c, 0, 80, 74
2, 247441, Note_on_c, 0, 75, 0
2, 247449, Note_on_c, 0, 75, 59
2, 247518, Note_on_c, 0, 60, 0
2, 247518, Note_on_c, 0, 87, 0
2, 247524, Note_on_c, 0, 87, 83
2, 247525, Note_on_c, 0, 60, 66
2, 247595, Note_on_c, 0, 84, 0
2, 247605, Note_on_c, 0, 84, 68
2, 247672, Note_on_c, 0, 80, 0
2, 247683, Note_on_c, 0, 80, 69
2, 247684, Note_on_c, 0, 63, 68
2, 247756, Note_on_c, 0, 75, 0
2, 247765, Note_on_c, 0, 75, 58
2, 247854, Note_on_c, 0, 85, 92
2, 247860, Note_on_c, 0, 68, 77
2, 247933, Note_on_c, 0, 84, 0
2, 247942, Note_on_c, 0, 84, 65
2, 248010, Note_on_c, 0, 80, 0
2, 248016, Note_on_c, 0, 80, 70
2, 248017, Note_on_c, 0, 63, 0
2, 248023, Note_on_c, 0, 63, 62
2, 248171, Note_on_c, 0, 87, 0
2, 248182, Note_on_c, 0, 87, 94
2, 248202, Note_on_c, 0, 60, 0
2, 248206, Note_on_c, 0, 60, 66
2, 248240, Note_on_c, 0, 84, 0
2, 248250, Note_on_c, 0, 84, 70
2, 248325, Note_on_c, 0, 56, 0
2, 248336, Note_on_c, 0, 56, 63
2, 248340, Note_on_c, 0, 80, 0
2, 248351, Note_on_c, 0, 80, 68
2, 248417, Note_on_c, 0, 75, 0
2, 248425, Note_on_c, 0, 75, 72
2, 248517, Note_on_c, 0, 51, 0
2, 248525, Note_on_c, 0, 51, 64
2, 248530, Note_on_c, 0, 82, 82
2, 248537, Note_on_c, 0, 85, 0
2, 248538, Note_on_c, 0, 68, 0
2, 248540, Note_on_c, 0, 58, 0
2, 248541, Note_on_c, 0, 63, 0
2, 248541, Note_on_c, 0, 80, 0
2, 248542, Note_on_c, 0, 60, 0
2, 248542, Note_on_c, 0, 84, 0
2, 248542, Note_on_c, 0, 75, 0
2, 248542, Note_on_c, 0, 44, 0
2, 248546, Control_c, 0, 64, 0
2, 248555, Note_on_c, 0, 56, 0
2, 248563, Note_on_c, 0, 87, 0
2, 248609, Control_c, 0, 64, 127
2, 248630, Note_on_c, 0, 79, 79
2, 248692, Note_on_c, 0, 58, 68
2, 248713, Note_on_c, 0, 75, 72
2, 248812, Note_on_c, 0, 70, 57
2, 248855, Note_on_c, 0, 82, 0
2, 248863, Note_on_c, 0, 82, 87
2, 248865, Note_on_c, 0, 63, 71
2, 248939, Note_on_c, 0, 79, 0
2, 248946, Note_on_c, 0, 79, 74
2, 249008, Note_on_c, 0, 75, 0
2, 249016, Note_on_c, 0, 75, 71
2, 249043, Note_on_c, 0, 65, 62
2, 249108, Note_on_c, 0, 70, 0
2, 249114, Note_on_c, 0, 70, 65
2, 249192, Note_on_c, 0, 82, 0
2, 249198, Note_on_c, 0, 67, 72
2, 249202, Note_on_c, 0, 82, 92
2, 249285, Note_on_c, 0, 79, 0
2, 249292, Note_on_c, 0, 79, 76
2, 249369, Note_on_c, 0, 58, 0
2, 249369, Note_on_c, 0, 75, 0
2, 249374, Note_on_c, 0, 75, 70
2, 249375, Note_on_c, 0, 58, 70
2, 249454, Note_on_c, 0, 70, 0
2, 249464, Note_on_c, 0, 70, 58
2, 249515, Note_on_c, 0, 82, 0
2, 249526, Note_on_c, 0, 82, 86
2, 249538, Note_on_c, 0, 63, 0
2, 249543, Note_on_c, 0, 63, 72
2, 249584, Note_on_c, 0, 79, 0
2, 249596, Note_on_c, 0, 79, 77
2, 249684, Note_on_c, 0, 67, 0
2, 249684, Note_on_c, 0, 75, 0
2, 249688, Note_on_c, 0, 75, 75
2, 249693, Note_on_c, 0, 67, 82
2, 249707, Note_on_c, 0, 70, 0
2, 249718, Note_on_c, 0, 70, 73
2, 249876, Note_on_c, 0, 70, 0
2, 249882, Note_on_c, 0, 89, 103
2, 249884, Note_on_c, 0, 58, 0
2, 249886, Note_on_c, 0, 70, 82
2, 249888, Note_on_c, 0, 77, 88
2, 249895, Note_on_c, 0, 58, 63
2, 250045, Note_on_c, 0, 67, 0
2, 250050, Note_on_c, 0, 67, 83
2, 250222, Note_on_c, 0, 63, 0
2, 250222, Note_on_c, 0, 79, 0
2, 250226, Note_on_c, 0, 63, 74
2, 250226, Note_on_c, 0, 91, 103
2, 250228, Note_on_c, 0, 79, 95
2, 250352, Note_on_c, 0, 58, 0
2, 250364, Note_on_c, 0, 58, 78
2, 250572, Note_on_c, 0, 70, 0
2, 250573, Note_on_c, 0, 75, 0
2, 250573, Note_on_c, 0, 65, 0
2, 250574, Note_on_c, 0, 67, 0
2, 250574, Note_on_c, 0, 63, 0
2, 250574, Note_on_c, 0, 77, 0
2, 250574, Note_on_c, 0, 79, 0
2, 250574, Note_on_c, 0, 58, 0
2, 250578, Note_on_c, 0, 91, 0
2, 250578, Control_c, 0, 64, 0
2, 250583, Note_on_c, 0, 51, 0
2, 250583, Note_on_c, 0, 82, 0
2, 250598, Note_on_c, 0, 89, 0
2, 250601, Note_on_c, 0, 41, 78
2, 250602, Note_on_c, 0, 84, 89
2, 250602, Note_on_c, 0, 92, 104
2, 250603, Note_on_c, 0, 80, 97
2, 250604, Note_on_c, 0, 89, 95
2, 250682, Control_c, 0, 64, 127
2, 250783, Note_on_c, 0, 48, 70
2, 250948, Note_on_c, 0, 53, 52
2, 250962, Note_on_c, 0, 44, 62
2, 251043, Note_on_c, 0, 48, 0
2, 251044, Note_on_c, 0, 56, 72
2, 251048, Note_on_c, 0, 48, 61
2, 251108, Note_on_c, 0, 60, 71
2, 251120, Note_on_c, 0, 53, 0
2, 251131, Note_on_c, 0, 53, 68
2, 251200, Note_on_c, 0, 65, 75
2, 251235, Note_on_c, 0, 56, 0
2, 251246, Note_on_c, 0, 56, 71
2, 251268, Note_on_c, 0, 68, 87
2, 251281, Note_on_c, 0, 60, 0
2, 251292, Note_on_c, 0, 60, 72
2, 251327, Note_on_c, 0, 72, 85
2, 251374, Note_on_c, 0, 65, 0
2, 251380, Note_on_c, 0, 65, 73
2, 251413, Note_on_c, 0, 77, 76
2, 251458, Note_on_c, 0, 68, 0
2, 251458, Note_on_c, 0, 80, 0
2, 251462, Note_on_c, 0, 68, 88
2, 251467, Note_on_c, 0, 80, 83
2, 251503, Note_on_c, 0, 73, 90
2, 251550, Note_on_c, 0, 84, 0
2, 251562, Note_on_c, 0, 84, 85
2, 251589, Note_on_c, 0, 77, 0
2, 251593, Note_on_c, 0, 77, 87
2, 251642, Note_on_c, 0, 72, 0
2, 251642, Note_on_c, 0, 80, 0
2, 251649, Note_on_c, 0, 72, 79
2, 251650, Note_on_c, 0, 80, 91
2, 251704, Note_on_c, 0, 68, 0
2, 251715, Note_on_c, 0, 68, 95
2, 251788, Note_on_c, 0, 65, 0
2, 251796, Note_on_c, 0, 65, 88
2, 251857, Note_on_c, 0, 60, 0
2, 251864, Note_on_c, 0, 60, 86
2, 251894, Note_on_c, 0, 91, 105
2, 251898, Note_on_c, 0, 79, 92
2, 252026, Note_on_c, 0, 56, 0
2, 252035, Note_on_c, 0, 56, 82
2, 252195, Note_on_c, 0, 53, 0
2, 252206, Note_on_c, 0, 53, 72
2, 252364, Note_on_c, 0, 48, 0
2, 252368, Note_on_c, 0, 48, 76
2, 252539, Note_on_c, 0, 49, 79
2, 252543, Note_on_c, 0, 73, 0
2, 252543, Note_on_c, 0, 68, 0
2, 252543, Note_on_c, 0, 92, 0
2, 252544, Note_on_c, 0, 65, 0
2, 252544, Note_on_c, 0, 79, 0
2, 252544, Note_on_c, 0, 91, 0
2, 252544, Note_on_c, 0, 48, 0
2, 252544, Note_on_c, 0, 53, 0
2, 252544, Note_on_c, 0, 56, 0
2, 252544, Note_on_c, 0, 72, 0
2, 252545, Note_on_c, 0, 84, 0
2, 252545, Note_on_c, 0, 44, 0
2, 252545, Note_on_c, 0, 60, 0
2, 252546, Control_c, 0, 64, 0
2, 252556, Note_on_c, 0, 89, 0
2, 252561, Note_on_c, 0, 89, 106
2, 252564, Note_on_c, 0, 77, 0
2, 252564, Note_on_c, 0, 80, 0
2, 252568, Note_on_c, 0, 85, 95
2, 252569, Note_on_c, 0, 80, 97
2, 252570, Note_on_c, 0, 77, 92
2, 252572, Note_on_c, 0, 41, 0
2, 252618, Control_c, 0, 64, 127
2, 252720, Note_on_c, 0, 44, 78
2, 252905, Note_on_c, 0, 53, 69
2, 252984, Note_on_c, 0, 56, 75
2, 253052, Note_on_c, 0, 61, 80
2, 253091, Control_c, 0, 64, 0
2, 253109, Control_c, 0, 64, 127
2, 253135, Note_on_c, 0, 65, 78
2, 253194, Note_on_c, 0, 56, 0
2, 253202, Note_on_c, 0, 68, 84
2, 253203, Note_on_c, 0, 56, 61
2, 253232, Note_on_c, 0, 61, 0
2, 253240, Note_on_c, 0, 61, 74
2, 253261, Note_on_c, 0, 73, 84
2, 253332, Note_on_c, 0, 65, 0
2, 253337, Note_on_c, 0, 65, 57
2, 253340, Note_on_c, 0, 77, 0
2, 253346, Note_on_c, 0, 77, 77
2, 253401, Note_on_c, 0, 80, 0
2, 253409, Note_on_c, 0, 80, 87
2, 253412, Note_on_c, 0, 69, 51
2, 253478, Note_on_c, 0, 85, 0
2, 253486, Note_on_c, 0, 77, 0
2, 253489, Note_on_c, 0, 85, 92
2, 253491, Note_on_c, 0, 77, 76
2, 253539, Note_on_c, 0, 73, 0
2, 253550, Note_on_c, 0, 73, 87
2, 253562, Note_on_c, 0, 80, 0
2, 253572, Note_on_c, 0, 80, 78
2, 253601, Note_on_c, 0, 68, 0
2, 253610, Note_on_c, 0, 68, 90
2, 253632, Note_on_c, 0, 77, 0
2, 253635, Note_on_c, 0, 77, 61
2, 253693, Note_on_c, 0, 65, 0
2, 253703, Note_on_c, 0, 65, 82
2, 253762, Note_on_c, 0, 61, 0
2, 253773, Note_on_c, 0, 61, 83
2, 253823, Note_on_c, 0, 87, 104
2, 253826, Note_on_c, 0, 75, 100
2, 253946, Note_on_c, 0, 56, 0
2, 253957, Note_on_c, 0, 56, 72
2, 254131, Note_on_c, 0, 53, 0
2, 254139, Note_on_c, 0, 53, 72
2, 254292, Note_on_c, 0, 49, 0
2, 254300, Note_on_c, 0, 49, 70
2, 254469, Note_on_c, 0, 87, 0
2, 254470, Note_on_c, 0, 89, 0
2, 254471, Note_on_c, 0, 68, 0
2, 254471, Note_on_c, 0, 65, 0
2, 254471, Note_on_c, 0, 49, 0
2, 254471, Note_on_c, 0, 77, 0
2, 254472, Note_on_c, 0, 73, 0
2, 254472, Note_on_c, 0, 85, 0
2, 254472, Note_on_c, 0, 56, 0
2, 254472, Note_on_c, 0, 44, 0
2, 254472, Note_on_c, 0, 53, 0
2, 254472, Note_on_c, 0, 61, 0
2, 254473, Control_c, 0, 64, 0
2, 254481, Note_on_c, 0, 84, 99
2, 254484, Note_on_c, 0, 69, 0
2, 254484, Note_on_c, 0, 75, 0
2, 254484, Note_on_c, 0, 80, 0
2, 254484, Note_on_c, 0, 48, 76
2, 254489, Note_on_c, 0, 80, 91
2, 254490, Note_on_c, 0, 36, 75
2, 254493, Note_on_c, 0, 72, 85
2, 254493, Note_on_c, 0, 75, 93
2, 254561, Control_c, 0, 64, 127
2, 254667, Note_on_c, 0, 44, 69
2, 254814, Note_on_c, 0, 48, 0
2, 254818, Note_on_c, 0, 48, 64
2, 254829, Note_on_c, 0, 39, 64
2, 254901, Note_on_c, 0, 51, 79
2, 254914, Note_on_c, 0, 44, 0
2, 254925, Note_on_c, 0, 44, 65
2, 254965, Note_on_c, 0, 56, 76
2, 255047, Note_on_c, 0, 60, 83
2, 255121, Note_on_c, 0, 63, 79
2, 255149, Note_on_c, 0, 55, 70
2, 255182, Note_on_c, 0, 68, 80
2, 255206, Note_on_c, 0, 59, 74
2, 255260, Note_on_c, 0, 72, 0
2, 255264, Note_on_c, 0, 72, 86
2, 255283, Note_on_c, 0, 63, 0
2, 255283, Note_on_c, 0, 75, 0
2, 255287, Note_on_c, 0, 75, 71
2, 255288, Note_on_c, 0, 63, 72
2, 255336, Note_on_c, 0, 68, 0
2, 255336, Note_on_c, 0, 75, 0
2, 255344, Note_on_c, 0, 75, 85
2, 255347, Note_on_c, 0, 68, 68
2, 255406, Note_on_c, 0, 72, 0
2, 255406, Note_on_c, 0, 80, 0
2, 255415, Note_on_c, 0, 72, 81
2, 255416, Note_on_c, 0, 80, 92
2, 255475, Note_on_c, 0, 68, 0
2, 255485, Note_on_c, 0, 68, 93
2, 255505, Note_on_c, 0, 75, 0
2, 255511, Note_on_c, 0, 75, 84
2, 255536, Note_on_c, 0, 63, 0
2, 255547, Note_on_c, 0, 63, 86
2, 255567, Note_on_c, 0, 72, 0
2, 255571, Note_on_c, 0, 72, 79
2, 255659, Note_on_c, 0, 60, 0
2, 255666, Note_on_c, 0, 60, 87
2, 255741, Note_on_c, 0, 85, 105
2, 255749, Note_on_c, 0, 73, 86
2, 255751, Note_on_c, 0, 56, 0
2, 255756, Note_on_c, 0, 56, 80
2, 255912, Note_on_c, 0, 51, 0
2, 255917, Note_on_c, 0, 51, 77
2, 256051, Note_on_c, 0, 48, 0
2, 256057, Note_on_c, 0, 48, 71
2, 256086, Note_on_c, 0, 87, 102
2, 256089, Note_on_c, 0, 75, 0
2, 256089, Note_on_c, 0, 80, 0
2, 256095, Note_on_c, 0, 75, 88
2, 256100, Note_on_c, 0, 80, 61
2, 256235, Note_on_c, 0, 44, 0
2, 256239, Note_on_c, 0, 44, 81
2, 256389, Note_on_c, 0, 36, 0
2, 256412, Note_on_c, 0, 39, 0
2, 256418, Note_on_c, 0, 39, 81
2, 256423, Note_on_c, 0, 82, 98
2, 256424, Note_on_c, 0, 85, 0
2, 256426, Note_on_c, 0, 73, 0
2, 256426, Note_on_c, 0, 87, 0
2, 256426, Control_c, 0, 64, 0
2, 256427, Note_on_c, 0, 75, 0
2, 256427, Note_on_c, 0, 51, 0
2, 256428, Note_on_c, 0, 60, 0
2, 256428, Note_on_c, 0, 79, 88
2, 256428, Note_on_c, 0, 80, 0
2, 256428, Note_on_c, 0, 56, 0
2, 256428, Note_on_c, 0, 68, 0
2, 256429, Note_on_c, 0, 55, 0
2, 256429, Note_on_c, 0, 59, 0
2, 256429, Note_on_c, 0, 72, 0
2, 256429, Note_on_c, 0, 84, 0
2, 256429, Note_on_c, 0, 44, 0
2, 256431, Note_on_c, 0, 75, 86
2, 256442, Note_on_c, 0, 48, 0
2, 256442, Note_on_c, 0, 63, 0
2, 256504, Control_c, 0, 64, 127
2, 256592, Note_on_c, 0, 46, 79
2, 256757, Note_on_c, 0, 46, 0
2, 256763, Note_on_c, 0, 46, 64
2, 256767, Note_on_c, 0, 55, 71
2, 256832, Note_on_c, 0, 58, 80
2, 256860, Note_on_c, 0, 51, 68
2, 256898, Note_on_c, 0, 63, 78
2, 256978, Note_on_c, 0, 67, 81
2, 257003, Note_on_c, 0, 58, 0
2, 257011, Note_on_c, 0, 58, 72
2, 257049, Note_on_c, 0, 70, 82
2, 257064, Note_on_c, 0, 63, 0
2, 257075, Note_on_c, 0, 63, 76
2, 257111, Note_on_c, 0, 75, 0
2, 257115, Note_on_c, 0, 75, 75
2, 257141, Note_on_c, 0, 67, 0
2, 257148, Note_on_c, 0, 67, 62
2, 257195, Note_on_c, 0, 79, 0
2, 257200, Note_on_c, 0, 79, 75
2, 257218, Note_on_c, 0, 70, 0
2, 257226, Note_on_c, 0, 70, 65
2, 257256, Note_on_c, 0, 75, 0
2, 257256, Note_on_c, 0, 82, 0
2, 257267, Note_on_c, 0, 82, 81
2, 257267, Note_on_c, 0, 75, 70
2, 257341, Note_on_c, 0, 79, 0
2, 257347, Note_on_c, 0, 79, 87
2, 257351, Note_on_c, 0, 87, 84
2, 257395, Note_on_c, 0, 75, 0
2, 257405, Note_on_c, 0, 75, 76
2, 257425, Note_on_c, 0, 82, 0
2, 257433, Note_on_c, 0, 82, 81
2, 257433, Note_on_c, 0, 70, 0
2, 257444, Note_on_c, 0, 70, 78
2, 257479, Note_on_c, 0, 79, 0
2, 257488, Note_on_c, 0, 79, 78
2, 257541, Note_on_c, 0, 67, 0
2, 257548, Note_on_c, 0, 67, 81
2, 257602, Note_on_c, 0, 63, 0
2, 257610, Note_on_c, 0, 63, 85
2, 257692, Note_on_c, 0, 80, 101
2, 257700, Note_on_c, 0, 68, 88
2, 257725, Note_on_c, 0, 58, 0
2, 257731, Note_on_c, 0, 58, 71
2, 257886, Note_on_c, 0, 55, 0
2, 257891, Note_on_c, 0, 55, 79
2, 257894, Note_on_c, 0, 39, 0
2, 258017, Note_on_c, 0, 51, 0
2, 258028, Note_on_c, 0, 51, 76
2, 258032, Note_on_c, 0, 82, 0
2, 258039, Note_on_c, 0, 82, 96
2, 258040, Note_on_c, 0, 70, 0
2, 258044, Note_on_c, 0, 70, 86
2, 258178, Note_on_c, 0, 46, 0
2, 258189, Note_on_c, 0, 46, 74
2, 258361, Note_on_c, 0, 41, 77
2, 258367, Note_on_c, 0, 84, 102
2, 258370, Control_c, 0, 64, 0
2, 258370, Note_on_c, 0, 80, 0
2, 258373, Note_on_c, 0, 58, 0
2, 258373, Note_on_c, 0, 67, 0
2, 258373, Note_on_c, 0, 63, 0
2, 258373, Note_on_c, 0, 55, 0
2, 258373, Note_on_c, 0, 68, 0
2, 258373, Note_on_c, 0, 79, 0
2, 258373, Note_on_c, 0, 82, 0
2, 258374, Note_on_c, 0, 70, 0
2, 258375, Note_on_c, 0, 87, 0
2, 258377, Note_on_c, 0, 80, 91
2, 258383, Note_on_c, 0, 72, 84
2, 258385, Note_on_c, 0, 51, 0
2, 258385, Note_on_c, 0, 75, 0
2, 258387, Note_on_c, 0, 77, 85
2, 258393, Note_on_c, 0, 46, 0
2, 258447, Control_c, 0, 64, 127
2, 258468, Note_on_c, 0, 48, 67
2, 258520, Note_on_c, 0, 53, 77
2, 258652, Note_on_c, 0, 55, 48
2, 258709, Note_on_c, 0, 56, 75
2, 258792, Note_on_c, 0, 53, 0
2, 258803, Note_on_c, 0, 53, 66
2, 258892, Note_on_c, 0, 56, 0
2, 258902, Note_on_c, 0, 56, 71
2, 258992, Note_on_c, 0, 60, 79
2, 259041, Note_on_c, 0, 92, 101
2, 259046, Note_on_c, 0, 80, 0
2, 259053, Note_on_c, 0, 80, 87
2, 259065, Note_on_c, 0, 65, 78
2, 259138, Note_on_c, 0, 56, 0
2, 259144, Note_on_c, 0, 56, 72
2, 259169, Note_on_c, 0, 55, 0
2, 259207, Note_on_c, 0, 60, 0
2, 259216, Note_on_c, 0, 60, 72
2, 259292, Note_on_c, 0, 65, 0
2, 259296, Note_on_c, 0, 65, 74
2, 259400, Note_on_c, 0, 68, 76
2, 259476, Note_on_c, 0, 60, 0
2, 259485, Note_on_c, 0, 60, 76
2, 259560, Note_on_c, 0, 65, 0
2, 259568, Note_on_c, 0, 65, 72
2, 259653, Note_on_c, 0, 68, 0
2, 259662, Note_on_c, 0, 68, 77
2, 259725, Note_on_c, 0, 94, 105
2, 259732, Note_on_c, 0, 82, 82
2, 259737, Note_on_c, 0, 72, 0
2, 259742, Note_on_c, 0, 72, 74
2, 259783, Note_on_c, 0, 68, 0
2, 259789, Note_on_c, 0, 68, 84
2, 259875, Note_on_c, 0, 65, 0
2, 259880, Note_on_c, 0, 65, 71
2, 259960, Note_on_c, 0, 60, 0
2, 259969, Note_on_c, 0, 60, 69
2, 260029, Note_on_c, 0, 68, 0
2, 260034, Note_on_c, 0, 68, 66
2, 260106, Note_on_c, 0, 65, 0
2, 260113, Note_on_c, 0, 65, 71
2, 260218, Note_on_c, 0, 62, 41
2, 260282, Note_on_c, 0, 58, 78
2, 260390, Note_on_c, 0, 92, 0
2, 260394, Note_on_c, 0, 96, 106
2, 260397, Note_on_c, 0, 49, 79
2, 260398, Note_on_c, 0, 89, 97
2, 260401, Note_on_c, 0, 92, 93
2, 260407, Note_on_c, 0, 80, 0
2, 260407, Note_on_c, 0, 82, 0
2, 260408, Note_on_c, 0, 48, 0
2, 260408, Note_on_c, 0, 68, 0
2, 260408, Note_on_c, 0, 60, 0
2, 260408, Note_on_c, 0, 58, 0
2, 260408, Note_on_c, 0, 72, 0
2, 260409, Note_on_c, 0, 65, 0
2, 260409, Note_on_c, 0, 77, 0
2, 260409, Note_on_c, 0, 56, 0
2, 260419, Control_c, 0, 64, 0
2, 260421, Note_on_c, 0, 41, 0
2, 260421, Note_on_c, 0, 53, 0
2, 260421, Note_on_c, 0, 62, 0
2, 260490, Control_c, 0, 64, 127
2, 260503, Note_on_c, 0, 56, 77
2, 260577, Note_on_c, 0, 61, 76
2, 260662, Note_on_c, 0, 63, 74
2, 260757, Note_on_c, 0, 65, 75
2, 260820, Note_on_c, 0, 56, 0
2, 260830, Note_on_c, 0, 56, 71
2, 260920, Note_on_c, 0, 61, 0
2, 260924, Note_on_c, 0, 61, 75
2, 260981, Note_on_c, 0, 65, 0
2, 260987, Note_on_c, 0, 65, 66
2, 261073, Note_on_c, 0, 92, 0
2, 261077, Note_on_c, 0, 68, 75
2, 261083, Note_on_c, 0, 92, 100
2, 261089, Note_on_c, 0, 80, 88
2, 261143, Note_on_c, 0, 61, 0
2, 261151, Note_on_c, 0, 61, 78
2, 261242, Note_on_c, 0, 65, 0
2, 261248, Note_on_c, 0, 65, 65
2, 261327, Note_on_c, 0, 68, 0
2, 261336, Note_on_c, 0, 68, 68
2, 261407, Note_on_c, 0, 73, 81
2, 261504, Note_on_c, 0, 65, 0
2, 261513, Note_on_c, 0, 65, 64
2, 261596, Note_on_c, 0, 68, 0
2, 261605, Note_on_c, 0, 68, 72
2, 261680, Note_on_c, 0, 73, 0
2, 261686, Note_on_c, 0, 73, 75
2, 261734, Note_on_c, 0, 89, 0
2, 261745, Note_on_c, 0, 89, 103
2, 261749, Note_on_c, 0, 80, 0
2, 261753, Note_on_c, 0, 80, 86
2, 261753, Note_on_c, 0, 85, 80
2, 261766, Note_on_c, 0, 77, 66
2, 261786, Control_c, 0, 64, 0
2, 261811, Control_c, 0, 64, 127
2, 261849, Note_on_c, 0, 73, 0
2, 261858, Note_on_c, 0, 73, 74
2, 261949, Note_on_c, 0, 65, 0
2, 261955, Note_on_c, 0, 65, 62
2, 262018, Note_on_c, 0, 68, 0
2, 262022, Note_on_c, 0, 68, 78
2, 262126, Note_on_c, 0, 73, 0
2, 262133, Note_on_c, 0, 73, 71
2, 262195, Note_on_c, 0, 68, 0
2, 262199, Note_on_c, 0, 68, 85
2, 262287, Note_on_c, 0, 65, 0
2, 262296, Note_on_c, 0, 65, 71
2, 262371, Note_on_c, 0, 61, 0
2, 262377, Note_on_c, 0, 61, 65
2, 262471, Note_on_c, 0, 94, 0
2, 262485, Note_on_c, 0, 48, 81
2, 262498, Note_on_c, 0, 92, 0
2, 262498, Note_on_c, 0, 65, 0
2, 262498, Note_on_c, 0, 85, 0
2, 262498, Note_on_c, 0, 73, 0
2, 262499, Note_on_c, 0, 63, 0
2, 262499, Note_on_c, 0, 68, 0
2, 262499, Note_on_c, 0, 89, 0
2, 262499, Note_on_c, 0, 61, 0
2, 262500, Note_on_c, 0, 56, 0
2, 262500, Note_on_c, 0, 77, 0
2, 262502, Note_on_c, 0, 49, 0
2, 262504, Control_c, 0, 64, 0
2, 262510, Note_on_c, 0, 84, 0
2, 262510, Note_on_c, 0, 96, 0
2, 262525, Note_on_c, 0, 80, 0
2, 262527, Note_on_c, 0, 87, 94
2, 262534, Note_on_c, 0, 80, 77
2, 262571, Control_c, 0, 64, 127
2, 262600, Note_on_c, 0, 56, 75
2, 262632, Note_on_c, 0, 48, 0
2, 262685, Note_on_c, 0, 60, 69
2, 262805, Note_on_c, 0, 63, 58
2, 262868, Note_on_c, 0, 68, 77
2, 262955, Note_on_c, 0, 60, 0
2, 262964, Note_on_c, 0, 60, 72
2, 263047, Note_on_c, 0, 63, 0
2, 263054, Note_on_c, 0, 63, 72
2, 263132, Note_on_c, 0, 68, 0
2, 263143, Note_on_c, 0, 68, 78
2, 263193, Note_on_c, 0, 87, 0
2, 263201, Note_on_c, 0, 80, 0
2, 263204, Note_on_c, 0, 87, 92
2, 263206, Note_on_c, 0, 92, 96
2, 263209, Note_on_c, 0, 80, 91
2, 263231, Note_on_c, 0, 72, 79
2, 263293, Note_on_c, 0, 63, 0
2, 263298, Note_on_c, 0, 63, 73
2, 263385, Note_on_c, 0, 68, 0
2, 263395, Note_on_c, 0, 68, 76
2, 263454, Note_on_c, 0, 72, 0
2, 263465, Note_on_c, 0, 72, 71
2, 263561, Note_on_c, 0, 75, 72
2, 263662, Note_on_c, 0, 68, 0
2, 263667, Note_on_c, 0, 68, 65
2, 263746, Note_on_c, 0, 72, 0
2, 263755, Note_on_c, 0, 72, 72
2, 263895, Note_on_c, 0, 96, 101
2, 263900, Note_on_c, 0, 80, 0
2, 263900, Note_on_c, 0, 87, 0
2, 263904, Note_on_c, 0, 87, 81
2, 263907, Note_on_c, 0, 92, 0
2, 263910, Note_on_c, 0, 84, 77
2, 263911, Note_on_c, 0, 80, 84
2, 263912, Note_on_c, 0, 92, 72
2, 263984, Note_on_c, 0, 75, 0
2, 263994, Note_on_c, 0, 75, 80
2, 264092, Note_on_c, 0, 72, 0
2, 264102, Note_on_c, 0, 72, 75
2, 264145, Note_on_c, 0, 68, 0
2, 264152, Note_on_c, 0, 68, 71
2, 264245, Note_on_c, 0, 75, 0
2, 264251, Note_on_c, 0, 75, 69
2, 264353, Note_on_c, 0, 72, 0
2, 264358, Note_on_c, 0, 72, 76
2, 264453, Note_on_c, 0, 68, 0
2, 264458, Note_on_c, 0, 68, 62
2, 264552, Note_on_c, 0, 63, 0
2, 264559, Note_on_c, 0, 63, 65
2, 264695, Note_on_c, 0, 51, 79
2, 264702, Note_on_c, 0, 94, 99
2, 264706, Note_on_c, 0, 87, 0
2, 264716, Note_on_c, 0, 87, 80
2, 264718, Note_on_c, 0, 82, 80
2, 264718, Note_on_c, 0, 91, 70
2, 264725, Control_c, 0, 64, 0
2, 264727, Note_on_c, 0, 56, 0
2, 264727, Note_on_c, 0, 60, 0
2, 264727, Note_on_c, 0, 63, 0
2, 264728, Note_on_c, 0, 72, 0
2, 264728, Note_on_c, 0, 68, 0
2, 264728, Note_on_c, 0, 84, 0
2, 264728, Note_on_c, 0, 75, 0
2, 264729, Note_on_c, 0, 80, 0
2, 264730, Note_on_c, 0, 92, 0
2, 264731, Note_on_c, 0, 96, 0
2, 264798, Control_c, 0, 64, 127
2, 264821, Note_on_c, 0, 51, 0
2, 264824, Note_on_c, 0, 58, 71
2, 264918, Note_on_c, 0, 63, 66
2, 265009, Note_on_c, 0, 67, 46
2, 265095, Note_on_c, 0, 70, 58
2, 265182, Note_on_c, 0, 63, 0
2, 265186, Note_on_c, 0, 63, 61
2, 265267, Note_on_c, 0, 67, 0
2, 265272, Note_on_c, 0, 67, 67
2, 265374, Note_on_c, 0, 70, 0
2, 265383, Note_on_c, 0, 70, 63
2, 265428, Note_on_c, 0, 87, 0
2, 265432, Note_on_c, 0, 92, 85
2, 265435, Note_on_c, 0, 80, 78
2, 265439, Note_on_c, 0, 87, 70
2, 265463, Note_on_c, 0, 75, 64
2, 265551, Note_on_c, 0, 67, 0
2, 265559, Note_on_c, 0, 67, 65
2, 265666, Note_on_c, 0, 70, 0
2, 265676, Note_on_c, 0, 70, 64
2, 265735, Note_on_c, 0, 75, 0
2, 265740, Note_on_c, 0, 75, 70
2, 265844, Note_on_c, 0, 79, 65
2, 265935, Note_on_c, 0, 70, 0
2, 265939, Note_on_c, 0, 70, 64
2, 266035, Note_on_c, 0, 75, 0
2, 266041, Note_on_c, 0, 75, 48
2, 266112, Note_on_c, 0, 79, 0
2, 266122, Note_on_c, 0, 79, 61
2, 266196, Note_on_c, 0, 94, 0
2, 266204, Note_on_c, 0, 82, 0
2, 266204, Note_on_c, 0, 94, 91
2, 266209, Note_on_c, 0, 82, 73
2, 266327, Note_on_c, 0, 75, 0
2, 266335, Note_on_c, 0, 75, 56
2, 266426, Note_on_c, 0, 79, 0
2, 266432, Note_on_c, 0, 79, 65
2, 266542, Note_on_c, 0, 82, 0
2, 266551, Note_on_c, 0, 82, 61
2, 266634, Note_on_c, 0, 87, 0
2, 266639, Note_on_c, 0, 87, 73
2, 266734, Note_on_c, 0, 79, 0
2, 266744, Note_on_c, 0, 79, 76
2, 266849, Note_on_c, 0, 82, 0
2, 266860, Note_on_c, 0, 82, 67
2, 266964, Note_on_c, 0, 87, 0
2, 266969, Note_on_c, 0, 87, 64
2, 267095, Note_on_c, 0, 91, 0
2, 267100, Note_on_c, 0, 91, 56
2, 267217, Note_on_c, 0, 82, 0
2, 267226, Note_on_c, 0, 82, 60
2, 267386, Note_on_c, 0, 87, 0
2, 267391, Note_on_c, 0, 87, 60
2, 267540, Note_on_c, 0, 91, 0
2, 267547, Note_on_c, 0, 91, 67
2, 267724, Note_on_c, 0, 94, 0
2, 267732, Note_on_c, 0, 94, 85
2, 267947, Note_on_c, 0, 87, 0
2, 267952, Note_on_c, 0, 87, 71
2, 268216, Note_on_c, 0, 91, 0
2, 268222, Note_on_c, 0, 91, 76
2, 268569, Note_on_c, 0, 94, 0
2, 268576, Note_on_c, 0, 94, 78
2, 269127, Note_on_c, 0, 99, 83
2, 269429, Note_on_c, 0, 58, 0
2, 269798, Note_on_c, 0, 63, 0
2, 270044, Note_on_c, 0, 80, 0
2, 270044, Note_on_c, 0, 92, 0
2, 270167, Note_on_c, 0, 67, 0
2, 270551, Note_on_c, 0, 70, 0
2, 270720, Note_on_c, 0, 75, 0
2, 270720, Note_on_c, 0, 79, 0
2, 270720, Note_on_c, 0, 82, 0
2, 270720, Note_on_c, 0, 87, 0
2, 270720, Note_on_c, 0, 91, 0
2, 270720, Note_on_c, 0, 94, 0
2, 273051, Note_on_c, 0, 58, 57
2, 273738, Note_on_c, 0, 99, 0
2, 274061, Note_on_c, 0, 32, 46
2, 274218, Note_on_c, 0, 39, 38
2, 274327, Note_on_c, 0, 44, 47
2, 274405, Note_on_c, 0, 51, 61
2, 274496, Note_on_c, 0, 56, 64
2, 274560, Note_on_c, 0, 58, 0
2, 274567, Note_on_c, 0, 58, 60
2, 274601, Control_c, 0, 64, 0
2, 274692, Note_on_c, 0, 61, 79
2, 275143, Note_on_c, 0, 58, 0
2, 275228, Control_c, 0, 64, 127
2, 276625, Note_on_c, 0, 39, 0
2, 276630, Note_on_c, 0, 39, 41
2, 277670, Note_on_c, 0, 32, 0
2, 277681, Note_on_c, 0, 32, 41
2, 277800, Note_on_c, 0, 39, 0
2, 277806, Note_on_c, 0, 39, 42
2, 277893, Note_on_c, 0, 44, 0
2, 277903, Note_on_c, 0, 44, 51
2, 277972, Note_on_c, 0, 48, 50
2, 278046, Note_on_c, 0, 51, 0
2, 278051, Note_on_c, 0, 51, 56
2, 278112, Note_on_c, 0, 61, 0
2, 278113, Control_c, 0, 64, 0
2, 278123, Note_on_c, 0, 56, 0
2, 278134, Note_on_c, 0, 56, 53
2, 278223, Note_on_c, 0, 60, 72
2, 279114, Control_c, 0, 64, 127
2, 282240, Note_on_c, 0, 32, 0
2, 282240, Note_on_c, 0, 39, 0
2, 282240, Note_on_c, 0, 44, 0
2, 282240, Note_on_c, 0, 48, 0
2, 282240, Note_on_c, 0, 51, 0
2, 282240, Note_on_c, 0, 56, 0
2, 282240, Note_on_c, 0, 60, 0
2, 284474, Control_c, 0, 64, 0
2, 284475, End_track
0, 0, End_of_file
