0, 0, Header, 1, 2, 384
1, 0, Start_track
1, 0, Tempo, 500000
1, 0, Time_signature, 4, 2, 24, 8
1, 1, End_track
2, 0, Start_track
2, 3188, Note_on_c, 0, 91, 77
2, 3605, Note_on_c, 0, 93, 75
2, 3743, Note_on_c, 0, 67, 48
2, 3743, Note_on_c, 0, 94, 87
2, 3750, Note_on_c, 0, 74, 59
2, 3753, Note_on_c, 0, 82, 68
2, 3771, Note_on_c, 0, 86, 63
2, 3786, Control_c, 0, 64, 127
2, 4308, Note_on_c, 0, 93, 0
2, 4314, Note_on_c, 0, 93, 87
2, 4337, Note_on_c, 0, 81, 39
2, 4711, Note_on_c, 0, 89, 72
2, 4853, Note_on_c, 0, 86, 0
2, 4860, Note_on_c, 0, 86, 78
2, 4861, Note_on_c, 0, 81, 0
2, 4869, Note_on_c, 0, 74, 0
2, 4872, Note_on_c, 0, 65, 43
2, 4872, Note_on_c, 0, 81, 56
2, 4874, Note_on_c, 0, 77, 51
2, 4875, Control_c, 0, 64, 0
2, 4876, Note_on_c, 0, 91, 0
2, 4877, Note_on_c, 0, 94, 0
2, 4878, Note_on_c, 0, 93, 0
2, 4878, Note_on_c, 0, 89, 0
2, 4878, Note_on_c, 0, 74, 51
2, 4879, Note_on_c, 0, 82, 0
2, 4881, Note_on_c, 0, 67, 0
2, 5015, Control_c, 0, 64, 127
2, 5429, Note_on_c, 0, 86, 0
2, 5433, Note_on_c, 0, 86, 88
2, 5843, Note_on_c, 0, 89, 78
2, 5998, Note_on_c, 0, 86, 0
2, 6000, Note_on_c, 0, 65, 0
2, 6000, Note_on_c, 0, 77, 0
2, 6002, Note_on_c, 0, 91, 84
2, 6002, Control_c, 0, 64, 0
2, 6002, Note_on_c, 0, 89, 0
2, 6004, Note_on_c, 0, 86, 74
2, 6005, Note_on_c, 0, 74, 0
2, 6005, Note_on_c, 0, 81, 0
2, 6010, Note_on_c, 0, 74, 60
2, 6010, Note_on_c, 0, 70, 51
2, 6017, Note_on_c, 0, 63, 56
2, 6021, Note_on_c, 0, 82, 61
2, 6120, Control_c, 0, 64, 127
2, 6417, Note_on_c, 0, 94, 85
2, 6579, Control_c, 0, 64, 0
2, 6583, Note_on_c, 0, 86, 0
2, 6583, Note_on_c, 0, 63, 0
2, 6583, Note_on_c, 0, 70, 0
2, 6583, Note_on_c, 0, 94, 0
2, 6584, Note_on_c, 0, 82, 0
2, 6584, Note_on_c, 0, 91, 0
2, 6589, Note_on_c, 0, 93, 88
2, 6596, Note_on_c, 0, 84, 74
2, 6599, Note_on_c, 0, 65, 60
2, 6601, Note_on_c, 0, 72, 57
2, 6601, Note_on_c, 0, 81, 66
2, 6604, Note_on_c, 0, 74, 0
2, 6605, Note_on_c, 0, 77, 49
2, 6673, Control_c, 0, 64, 127
2, 7039, Note_on_c, 0, 89, 75
2, 7057, Note_on_c, 0, 77, 0
2, 7062, Note_on_c, 0, 77, 28
2, 7303, Note_on_c, 0, 93, 0
2, 7307, Note_on_c, 0, 58, 62
2, 7311, Note_on_c, 0, 65, 0
2, 7311, Note_on_c, 0, 77, 0
2, 7316, Note_on_c, 0, 65, 57
2, 7319, Note_on_c, 0, 81, 0
2, 7321, Note_on_c, 0, 86, 78
2, 7322, Note_on_c, 0, 77, 66
2, 7323, Note_on_c, 0, 70, 58
2, 7323, Note_on_c, 0, 81, 60
2, 7378, Note_on_c, 0, 72, 0
2, 7378, Control_c, 0, 64, 0
2, 7380, Note_on_c, 0, 84, 0
2, 7382, Note_on_c, 0, 89, 0
2, 7941, Control_c, 0, 64, 127
2, 8716, Note_on_c, 0, 86, 0
2, 8727, Note_on_c, 0, 86, 78
2, 9024, Note_on_c, 0, 60, 52
2, 9085, Note_on_c, 0, 67, 53
2, 9140, Note_on_c, 0, 74, 49
2, 9145, Note_on_c, 0, 58, 0
2, 9150, Control_c, 0, 64, 0
2, 9154, Note_on_c, 0, 77, 0
2, 9162, Note_on_c, 0, 70, 0
2, 9162, Note_on_c, 0, 81, 0
2, 9166, Note_on_c, 0, 75, 57
2, 9169, Note_on_c, 0, 86, 0
2, 9173, Note_on_c, 0, 79, 64
2, 9211, Note_on_c, 0, 84, 75
2, 9239, Control_c, 0, 64, 127
2, 9323, Note_on_c, 0, 74, 0
2, 9592, Note_on_c, 0, 84, 0
2, 9599, Note_on_c, 0, 84, 81
2, 9600, Note_on_c, 0, 65, 0
2, 9738, Note_on_c, 0, 84, 0
2, 9747, Note_on_c, 0, 84, 87
2, 10022, Note_on_c, 0, 84, 0
2, 10028, Note_on_c, 0, 84, 84
2, 10134, Note_on_c, 0, 86, 86
2, 10268, Note_on_c, 0, 84, 0
2, 10272, Note_on_c, 0, 84, 89
2, 10272, Note_on_c, 0, 86, 0
2, 10274, Note_on_c, 0, 75, 0
2, 10276, Note_on_c, 0, 67, 0
2, 10283, Note_on_c, 0, 60, 0
2, 10289, Note_on_c, 0, 72, 66
2, 10295, Note_on_c, 0, 69, 57
2, 10295, Note_on_c, 0, 62, 68
2, 10296, Note_on_c, 0, 77, 65
2, 10304, Note_on_c, 0, 81, 61
2, 10321, Note_on_c, 0, 79, 0
2, 10323, Control_c, 0, 64, 0
2, 10344, Control_c, 0, 64, 127
2, 10555, Note_on_c, 0, 82, 89
2, 10689, Note_on_c, 0, 89, 86
2, 10837, Note_on_c, 0, 86, 95
2, 11258, Note_on_c, 0, 86, 0
2, 11262, Note_on_c, 0, 86, 88
2, 11435, Note_on_c, 0, 81, 0
2, 11436, Control_c, 0, 64, 0
2, 11437, Note_on_c, 0, 69, 0
2, 11438, Note_on_c, 0, 77, 0
2, 11438, Note_on_c, 0, 91, 90
2, 11438, Note_on_c, 0, 62, 0
2, 11439, Note_on_c, 0, 72, 0
2, 11439, Note_on_c, 0, 84, 0
2, 11440, Note_on_c, 0, 89, 0
2, 11445, Note_on_c, 0, 74, 62
2, 11446, Note_on_c, 0, 63, 64
2, 11450, Note_on_c, 0, 86, 0
2, 11451, Note_on_c, 0, 70, 55
2, 11458, Note_on_c, 0, 82, 0
2, 11460, Note_on_c, 0, 86, 77
2, 11462, Note_on_c, 0, 82, 51
2, 11573, Control_c, 0, 64, 127
2, 11911, Note_on_c, 0, 91, 0
2, 11917, Note_on_c, 0, 91, 80
2, 12103, Note_on_c, 0, 91, 0
2, 12113, Note_on_c, 0, 64, 67
2, 12114, Note_on_c, 0, 91, 85
2, 12144, Control_c, 0, 64, 0
2, 12144, Note_on_c, 0, 63, 0
2, 12280, Control_c, 0, 64, 127
2, 12295, Note_on_c, 0, 86, 0
2, 12302, Note_on_c, 0, 86, 83
2, 12480, Note_on_c, 0, 91, 0
2, 12485, Note_on_c, 0, 91, 81
2, 12735, Note_on_c, 0, 94, 88
2, 13083, Note_on_c, 0, 93, 80
2, 13086, Note_on_c, 0, 74, 0
2, 13086, Note_on_c, 0, 86, 0
2, 13090, Note_on_c, 0, 74, 61
2, 13091, Note_on_c, 0, 86, 64
2, 13091, Note_on_c, 0, 66, 43
2, 13094, Note_on_c, 0, 81, 65
2, 13098, Note_on_c, 0, 69, 51
2, 13155, Note_on_c, 0, 91, 0
2, 13155, Note_on_c, 0, 82, 0
2, 13157, Note_on_c, 0, 64, 0
2, 13166, Control_c, 0, 64, 0
2, 13171, Note_on_c, 0, 70, 0
2, 13178, Note_on_c, 0, 94, 0
2, 13355, Control_c, 0, 64, 127
2, 13994, Note_on_c, 0, 91, 72
2, 14008, Note_on_c, 0, 62, 48
2, 14016, Note_on_c, 0, 81, 0
2, 14020, Note_on_c, 0, 81, 28
2, 14055, Control_c, 0, 64, 0
2, 14058, Note_on_c, 0, 93, 0
2, 14092, Note_on_c, 0, 86, 0
2, 14192, Control_c, 0, 64, 127
2, 14702, Note_on_c, 0, 93, 67
2, 15610, Note_on_c, 0, 95, 76
2, 16857, Note_on_c, 0, 93, 0
2, 16869, Note_on_c, 0, 93, 67
2, 17088, Note_on_c, 0, 91, 0
2, 17097, Note_on_c, 0, 91, 71
2, 17267, Note_on_c, 0, 90, 78
2, 17280, Note_on_c, 0, 62, 0
2, 17280, Note_on_c, 0, 66, 0
2, 17280, Note_on_c, 0, 69, 0
2, 17280, Note_on_c, 0, 74, 0
2, 17280, Note_on_c, 0, 81, 0
2, 17416, Note_on_c, 0, 86, 77
2, 17528, Note_on_c, 0, 88, 77
2, 17633, Note_on_c, 0, 86, 0
2, 17643, Note_on_c, 0, 86, 79
2, 17738, Note_on_c, 0, 83, 77
2, 17836, Note_on_c, 0, 81, 79
2, 17917, Note_on_c, 0, 83, 0
2, 17928, Note_on_c, 0, 83, 72
2, 17992, Note_on_c, 0, 79, 81
2, 18080, Note_on_c, 0, 78, 80
2, 18152, Note_on_c, 0, 74, 81
2, 18218, Note_on_c, 0, 76, 81
2, 18293, Note_on_c, 0, 74, 0
2, 18300, Note_on_c, 0, 74, 71
2, 18339, Note_on_c, 0, 71, 79
2, 18405, Note_on_c, 0, 69, 83
2, 18439, Note_on_c, 0, 71, 0
2, 18446, Note_on_c, 0, 71, 72
2, 18518, Note_on_c, 0, 67, 78
2, 18582, Note_on_c, 0, 66, 79
2, 18652, Note_on_c, 0, 62, 90
2, 18706, Note_on_c, 0, 64, 82
2, 18769, Note_on_c, 0, 62, 0
2, 18778, Note_on_c, 0, 62, 77
2, 18819, Note_on_c, 0, 59, 88
2, 18882, Note_on_c, 0, 57, 83
2, 18915, Note_on_c, 0, 59, 0
2, 18924, Note_on_c, 0, 59, 81
2, 18993, Note_on_c, 0, 55, 75
2, 19050, Note_on_c, 0, 54, 89
2, 19127, Note_on_c, 0, 50, 88
2, 19134, Control_c, 0, 64, 0
2, 19135, Note_on_c, 0, 74, 0
2, 19135, Note_on_c, 0, 38, 74
2, 19135, Note_on_c, 0, 67, 0
2, 19135, Note_on_c, 0, 59, 0
2, 19135, Note_on_c, 0, 66, 0
2, 19135, Note_on_c, 0, 62, 0
2, 19136, Note_on_c, 0, 71, 0
2, 19136, Note_on_c, 0, 79, 0
2, 19136, Note_on_c, 0, 57, 0
2, 19136, Note_on_c, 0, 55, 0
2, 19136, Note_on_c, 0, 64, 0
2, 19136, Note_on_c, 0, 78, 0
2, 19136, Note_on_c, 0, 81, 0
2, 19136, Note_on_c, 0, 76, 0
2, 19137, Note_on_c, 0, 95, 0
2, 19146, Note_on_c, 0, 69, 0
2, 19146, Note_on_c, 0, 83, 0
2, 19146, Note_on_c, 0, 91, 0
2, 19146, Note_on_c, 0, 93, 0
2, 19153, Note_on_c, 0, 86, 0
2, 19153, Note_on_c, 0, 88, 0
2, 19153, Note_on_c, 0, 90, 0
2, 19176, Note_on_c, 0, 54, 0
2, 19187, Note_on_c, 0, 54, 81
2, 19200, Control_c, 0, 64, 127
2, 19204, Note_on_c, 0, 50, 0
2, 19238, Note_on_c, 0, 57, 84
2, 19238, Note_on_c, 0, 38, 0
2, 19285, Note_on_c, 0, 59, 80
2, 19352, Note_on_c, 0, 62, 90
2, 19412, Note_on_c, 0, 66, 80
2, 19441, Note_on_c, 0, 69, 80
2, 19479, Note_on_c, 0, 71, 55
2, 19484, Note_on_c, 0, 71, 0
2, 19504, Note_on_c, 0, 74, 85
2, 19595, Control_c, 0, 64, 0
2, 19595, Note_on_c, 0, 69, 0
2, 19595, Note_on_c, 0, 57, 0
2, 19596, Note_on_c, 0, 54, 0
2, 19596, Note_on_c, 0, 62, 0
2, 19596, Note_on_c, 0, 59, 0
2, 19596, Note_on_c, 0, 66, 0
2, 19598, Note_on_c, 0, 74, 0
2, 19626, Note_on_c, 0, 71, 87
2, 19626, Note_on_c, 0, 52, 98
2, 19626, Note_on_c, 0, 76, 106
2, 19629, Note_on_c, 0, 67, 93
2, 19629, Note_on_c, 0, 40, 91
2, 19706, Control_c, 0, 64, 127
2, 19894, Note_on_c, 0, 59, 78
2, 20012, Note_on_c, 0, 62, 77
2, 20138, Note_on_c, 0, 64, 82
2, 20252, Note_on_c, 0, 59, 0
2, 20256, Note_on_c, 0, 59, 76
2, 20375, Note_on_c, 0, 52, 0
2, 20375, Note_on_c, 0, 62, 0
2, 20379, Note_on_c, 0, 57, 84
2, 20379, Note_on_c, 0, 52, 76
2, 20381, Note_on_c, 0, 62, 78
2, 20497, Note_on_c, 0, 52, 0
2, 20497, Note_on_c, 0, 59, 0
2, 20497, Note_on_c, 0, 64, 0
2, 20503, Note_on_c, 0, 59, 88
2, 20504, Note_on_c, 0, 64, 89
2, 20508, Note_on_c, 0, 52, 82
2, 20643, Note_on_c, 0, 59, 0
2, 20651, Note_on_c, 0, 59, 64
2, 20766, Note_on_c, 0, 62, 0
2, 20771, Note_on_c, 0, 62, 75
2, 20889, Note_on_c, 0, 64, 0
2, 20893, Note_on_c, 0, 64, 77
2, 21020, Note_on_c, 0, 59, 0
2, 21024, Note_on_c, 0, 59, 76
2, 21135, Note_on_c, 0, 62, 0
2, 21146, Note_on_c, 0, 62, 85
2, 21258, Note_on_c, 0, 64, 0
2, 21262, Note_on_c, 0, 64, 73
2, 21381, Note_on_c, 0, 67, 0
2, 21390, Note_on_c, 0, 67, 84
2, 21511, Note_on_c, 0, 59, 0
2, 21516, Note_on_c, 0, 59, 78
2, 21641, Control_c, 0, 64, 0
2, 21642, Note_on_c, 0, 64, 0
2, 21646, Note_on_c, 0, 67, 0
2, 21646, Note_on_c, 0, 62, 0
2, 21646, Note_on_c, 0, 59, 0
2, 21646, Note_on_c, 0, 57, 0
2, 21648, Note_on_c, 0, 76, 0
2, 21649, Note_on_c, 0, 52, 0
2, 21649, Note_on_c, 0, 71, 0
2, 21653, Note_on_c, 0, 64, 90
2, 21653, Note_on_c, 0, 43, 81
2, 21654, Note_on_c, 0, 52, 87
2, 21656, Note_on_c, 0, 36, 80
2, 21680, Note_on_c, 0, 40, 0
2, 21742, Control_c, 0, 64, 127
2, 21914, Note_on_c, 0, 59, 74
2, 22050, Note_on_c, 0, 62, 74
2, 22156, Note_on_c, 0, 64, 0
2, 22162, Note_on_c, 0, 64, 82
2, 22264, Note_on_c, 0, 59, 0
2, 22273, Note_on_c, 0, 59, 80
2, 22394, Note_on_c, 0, 62, 0
2, 22402, Note_on_c, 0, 36, 0
2, 22406, Note_on_c, 0, 62, 90
2, 22406, Note_on_c, 0, 36, 82
2, 22407, Note_on_c, 0, 48, 72
2, 22502, Note_on_c, 0, 43, 0
2, 22503, Control_c, 0, 64, 0
2, 22503, Note_on_c, 0, 36, 0
2, 22503, Note_on_c, 0, 59, 0
2, 22504, Note_on_c, 0, 62, 0
2, 22504, Note_on_c, 0, 52, 0
2, 22504, Note_on_c, 0, 64, 0
2, 22525, Note_on_c, 0, 48, 0
2, 22528, Note_on_c, 0, 67, 90
2, 22536, Note_on_c, 0, 45, 85
2, 22536, Note_on_c, 0, 50, 87
2, 22536, Note_on_c, 0, 38, 80
2, 22609, Control_c, 0, 64, 127
2, 22657, Note_on_c, 0, 59, 76
2, 22765, Note_on_c, 0, 66, 84
2, 22863, Note_on_c, 0, 59, 0
2, 22872, Note_on_c, 0, 59, 80
2, 22996, Note_on_c, 0, 64, 90
2, 23123, Note_on_c, 0, 62, 95
2, 23232, Note_on_c, 0, 66, 0
2, 23243, Note_on_c, 0, 66, 82
2, 23358, Note_on_c, 0, 69, 88
2, 23478, Note_on_c, 0, 74, 90
2, 23587, Note_on_c, 0, 38, 0
2, 23588, Note_on_c, 0, 62, 0
2, 23588, Note_on_c, 0, 69, 0
2, 23588, Note_on_c, 0, 59, 0
2, 23588, Note_on_c, 0, 45, 0
2, 23588, Note_on_c, 0, 50, 0
2, 23588, Note_on_c, 0, 74, 0
2, 23589, Control_c, 0, 64, 0
2, 23600, Note_on_c, 0, 66, 0
2, 23608, Note_on_c, 0, 64, 0
2, 23608, Note_on_c, 0, 67, 0
2, 23612, Note_on_c, 0, 71, 94
2, 23618, Note_on_c, 0, 64, 89
2, 23618, Note_on_c, 0, 52, 87
2, 23618, Note_on_c, 0, 40, 81
2, 23619, Note_on_c, 0, 67, 91
2, 23685, Control_c, 0, 64, 127
2, 23869, Note_on_c, 0, 64, 0
2, 23874, Note_on_c, 0, 64, 84
2, 23995, Note_on_c, 0, 69, 71
2, 24115, Note_on_c, 0, 71, 0
2, 24119, Note_on_c, 0, 71, 78
2, 24222, Note_on_c, 0, 64, 0
2, 24234, Note_on_c, 0, 64, 73
2, 24360, Note_on_c, 0, 69, 0
2, 24368, Note_on_c, 0, 52, 0
2, 24372, Note_on_c, 0, 69, 80
2, 24372, Note_on_c, 0, 62, 86
2, 24373, Note_on_c, 0, 57, 86
2, 24375, Note_on_c, 0, 52, 79
2, 24491, Note_on_c, 0, 52, 0
2, 24491, Note_on_c, 0, 64, 0
2, 24491, Note_on_c, 0, 71, 0
2, 24498, Note_on_c, 0, 64, 88
2, 24498, Note_on_c, 0, 71, 84
2, 24501, Note_on_c, 0, 59, 87
2, 24502, Note_on_c, 0, 52, 80
2, 24629, Note_on_c, 0, 64, 0
2, 24640, Note_on_c, 0, 64, 58
2, 24752, Note_on_c, 0, 69, 0
2, 24763, Note_on_c, 0, 69, 71
2, 24875, Note_on_c, 0, 71, 0
2, 24880, Note_on_c, 0, 71, 82
2, 24998, Note_on_c, 0, 64, 0
2, 25005, Note_on_c, 0, 64, 76
2, 25121, Note_on_c, 0, 69, 0
2, 25126, Note_on_c, 0, 69, 77
2, 25228, Note_on_c, 0, 71, 0
2, 25239, Note_on_c, 0, 71, 86
2, 25369, Note_on_c, 0, 74, 91
2, 25482, Note_on_c, 0, 64, 0
2, 25489, Note_on_c, 0, 64, 76
2, 25597, Note_on_c, 0, 52, 0
2, 25605, Note_on_c, 0, 71, 0
2, 25608, Note_on_c, 0, 52, 89
2, 25610, Note_on_c, 0, 57, 0
2, 25610, Control_c, 0, 64, 0
2, 25610, Note_on_c, 0, 62, 0
2, 25611, Note_on_c, 0, 59, 0
2, 25611, Note_on_c, 0, 64, 0
2, 25611, Note_on_c, 0, 67, 0
2, 25611, Note_on_c, 0, 69, 0
2, 25612, Note_on_c, 0, 43, 82
2, 25613, Note_on_c, 0, 74, 0
2, 25615, Note_on_c, 0, 71, 97
2, 25615, Note_on_c, 0, 36, 84
2, 25635, Note_on_c, 0, 40, 0
2, 25697, Control_c, 0, 64, 127
2, 25874, Note_on_c, 0, 64, 79
2, 25998, Note_on_c, 0, 69, 76
2, 26104, Note_on_c, 0, 71, 0
2, 26109, Note_on_c, 0, 71, 77
2, 26227, Note_on_c, 0, 64, 0
2, 26231, Note_on_c, 0, 64, 73
2, 26334, Note_on_c, 0, 36, 0
2, 26334, Note_on_c, 0, 69, 0
2, 26345, Note_on_c, 0, 36, 88
2, 26345, Note_on_c, 0, 69, 84
2, 26345, Note_on_c, 0, 48, 76
2, 26446, Note_on_c, 0, 43, 0
2, 26446, Note_on_c, 0, 71, 0
2, 26446, Note_on_c, 0, 36, 0
2, 26446, Control_c, 0, 64, 0
2, 26446, Note_on_c, 0, 64, 0
2, 26446, Note_on_c, 0, 69, 0
2, 26457, Note_on_c, 0, 48, 0
2, 26465, Note_on_c, 0, 52, 0
2, 26476, Note_on_c, 0, 38, 87
2, 26476, Note_on_c, 0, 74, 90
2, 26476, Note_on_c, 0, 45, 89
2, 26526, Control_c, 0, 64, 127
2, 26593, Note_on_c, 0, 69, 81
2, 26710, Note_on_c, 0, 71, 84
2, 26833, Note_on_c, 0, 74, 0
2, 26838, Note_on_c, 0, 74, 91
2, 26941, Note_on_c, 0, 69, 0
2, 26946, Note_on_c, 0, 69, 82
2, 27046, Note_on_c, 0, 69, 0
2, 27046, Note_on_c, 0, 38, 0
2, 27046, Note_on_c, 0, 74, 0
2, 27046, Note_on_c, 0, 71, 0
2, 27047, Note_on_c, 0, 45, 0
2, 27048, Control_c, 0, 64, 0
2, 27081, Note_on_c, 0, 91, 113
2, 27083, Note_on_c, 0, 79, 104
2, 27133, Control_c, 0, 64, 127
2, 27164, Note_on_c, 0, 79, 0
2, 27233, Note_on_c, 0, 91, 0
2, 27336, Note_on_c, 0, 90, 113
2, 27338, Note_on_c, 0, 78, 111
2, 27546, Control_c, 0, 64, 0
2, 27550, Note_on_c, 0, 78, 0
2, 27551, Note_on_c, 0, 90, 0
2, 27579, Note_on_c, 0, 79, 105
2, 27580, Note_on_c, 0, 88, 106
2, 27582, Note_on_c, 0, 76, 108
2, 27582, Note_on_c, 0, 83, 100
2, 27587, Note_on_c, 0, 40, 95
2, 27589, Note_on_c, 0, 28, 100
2, 27613, Note_on_c, 0, 85, 62
2, 27617, Control_c, 0, 64, 127
2, 27832, Note_on_c, 0, 40, 0
2, 27839, Note_on_c, 0, 47, 71
2, 27840, Note_on_c, 0, 52, 79
2, 27841, Note_on_c, 0, 40, 71
2, 27947, Note_on_c, 0, 40, 0
2, 27955, Note_on_c, 0, 47, 0
2, 27955, Note_on_c, 0, 76, 0
2, 27958, Note_on_c, 0, 40, 63
2, 27959, Note_on_c, 0, 47, 59
2, 27960, Note_on_c, 0, 76, 69
2, 27962, Note_on_c, 0, 74, 82
2, 27978, Note_on_c, 0, 85, 0
2, 28012, Note_on_c, 0, 75, 79
2, 28070, Note_on_c, 0, 40, 0
2, 28070, Note_on_c, 0, 76, 0
2, 28076, Note_on_c, 0, 40, 81
2, 28078, Note_on_c, 0, 76, 101
2, 28079, Note_on_c, 0, 71, 89
2, 28082, Note_on_c, 0, 67, 93
2, 28193, Note_on_c, 0, 40, 0
2, 28193, Note_on_c, 0, 47, 0
2, 28197, Note_on_c, 0, 47, 74
2, 28199, Note_on_c, 0, 40, 62
2, 28323, Note_on_c, 0, 47, 0
2, 28323, Note_on_c, 0, 52, 0
2, 28328, Note_on_c, 0, 47, 79
2, 28332, Note_on_c, 0, 52, 74
2, 28439, Note_on_c, 0, 40, 0
2, 28450, Note_on_c, 0, 40, 64
2, 28477, Note_on_c, 0, 74, 0
2, 28484, Note_on_c, 0, 74, 82
2, 28523, Note_on_c, 0, 75, 0
2, 28527, Note_on_c, 0, 75, 75
2, 28546, Note_on_c, 0, 47, 0
2, 28557, Note_on_c, 0, 47, 72
2, 28561, Note_on_c, 0, 40, 0
2, 28572, Note_on_c, 0, 40, 84
2, 28577, Note_on_c, 0, 71, 0
2, 28577, Note_on_c, 0, 76, 0
2, 28581, Note_on_c, 0, 76, 104
2, 28583, Note_on_c, 0, 71, 80
2, 28584, Note_on_c, 0, 67, 0
2, 28589, Note_on_c, 0, 67, 83
2, 28692, Note_on_c, 0, 40, 0
2, 28700, Note_on_c, 0, 40, 72
2, 28815, Note_on_c, 0, 40, 0
2, 28815, Note_on_c, 0, 47, 0
2, 28820, Note_on_c, 0, 47, 85
2, 28826, Note_on_c, 0, 40, 68
2, 28930, Note_on_c, 0, 40, 0
2, 28939, Note_on_c, 0, 40, 66
2, 28953, Note_on_c, 0, 74, 0
2, 28962, Note_on_c, 0, 74, 83
2, 28992, Note_on_c, 0, 75, 0
2, 29001, Note_on_c, 0, 75, 82
2, 29045, Note_on_c, 0, 88, 0
2, 29058, Note_on_c, 0, 75, 0
2, 29059, Note_on_c, 0, 71, 0
2, 29061, Note_on_c, 0, 40, 0
2, 29061, Note_on_c, 0, 83, 0
2, 29063, Note_on_c, 0, 74, 0
2, 29065, Control_c, 0, 64, 0
2, 29068, Note_on_c, 0, 40, 86
2, 29068, Note_on_c, 0, 67, 0
2, 29068, Note_on_c, 0, 76, 0
2, 29077, Note_on_c, 0, 76, 97
2, 29080, Note_on_c, 0, 67, 92
2, 29107, Control_c, 0, 64, 127
2, 29114, Note_on_c, 0, 52, 0
2, 29122, Note_on_c, 0, 79, 0
2, 29145, Note_on_c, 0, 28, 0
2, 29191, Note_on_c, 0, 40, 0
2, 29196, Note_on_c, 0, 74, 94
2, 29198, Note_on_c, 0, 40, 75
2, 29314, Note_on_c, 0, 47, 0
2, 29318, Note_on_c, 0, 79, 102
2, 29319, Note_on_c, 0, 47, 87
2, 29322, Note_on_c, 0, 52, 93
2, 29510, Note_on_c, 0, 67, 0
2, 29510, Control_c, 0, 64, 0
2, 29510, Note_on_c, 0, 52, 0
2, 29511, Note_on_c, 0, 47, 0
2, 29511, Note_on_c, 0, 40, 0
2, 29511, Note_on_c, 0, 76, 0
2, 29511, Note_on_c, 0, 79, 0
2, 29511, Note_on_c, 0, 74, 0
2, 29563, Note_on_c, 0, 76, 106
2, 29568, Note_on_c, 0, 67, 89
2, 29569, Note_on_c, 0, 36, 97
2, 29570, Note_on_c, 0, 48, 98
2, 29570, Note_on_c, 0, 71, 89
2, 29606, Control_c, 0, 64, 127
2, 29819, Note_on_c, 0, 60, 77
2, 29820, Note_on_c, 0, 64, 79
2, 29825, Note_on_c, 0, 55, 76
2, 29928, Note_on_c, 0, 36, 0
2, 29928, Note_on_c, 0, 48, 0
2, 29934, Note_on_c, 0, 48, 82
2, 29937, Note_on_c, 0, 74, 83
2, 29939, Note_on_c, 0, 36, 74
2, 29998, Note_on_c, 0, 75, 69
2, 30051, Note_on_c, 0, 48, 0
2, 30051, Note_on_c, 0, 67, 0
2, 30051, Note_on_c, 0, 71, 0
2, 30051, Note_on_c, 0, 76, 0
2, 30059, Note_on_c, 0, 36, 0
2, 30060, Note_on_c, 0, 71, 85
2, 30061, Note_on_c, 0, 48, 82
2, 30061, Note_on_c, 0, 76, 102
2, 30063, Note_on_c, 0, 67, 92
2, 30065, Note_on_c, 0, 36, 81
2, 30182, Note_on_c, 0, 48, 0
2, 30193, Note_on_c, 0, 48, 77
2, 30297, Note_on_c, 0, 55, 0
2, 30297, Note_on_c, 0, 60, 0
2, 30305, Note_on_c, 0, 48, 0
2, 30305, Note_on_c, 0, 64, 0
2, 30308, Note_on_c, 0, 55, 82
2, 30308, Note_on_c, 0, 60, 91
2, 30310, Note_on_c, 0, 48, 81
2, 30311, Note_on_c, 0, 64, 91
2, 30405, Note_on_c, 0, 48, 0
2, 30405, Note_on_c, 0, 74, 0
2, 30409, Note_on_c, 0, 48, 82
2, 30413, Note_on_c, 0, 74, 86
2, 30451, Note_on_c, 0, 75, 0
2, 30461, Note_on_c, 0, 75, 86
2, 30501, Control_c, 0, 64, 0
2, 30501, Note_on_c, 0, 67, 0
2, 30502, Note_on_c, 0, 64, 0
2, 30502, Note_on_c, 0, 71, 0
2, 30502, Note_on_c, 0, 55, 0
2, 30502, Note_on_c, 0, 76, 0
2, 30502, Note_on_c, 0, 75, 0
2, 30502, Note_on_c, 0, 60, 0
2, 30502, Note_on_c, 0, 36, 0
2, 30502, Note_on_c, 0, 48, 0
2, 30520, Note_on_c, 0, 74, 0
2, 30549, Note_on_c, 0, 88, 101
2, 30554, Note_on_c, 0, 50, 96
2, 30554, Note_on_c, 0, 76, 100
2, 30555, Note_on_c, 0, 38, 86
2, 30574, Control_c, 0, 64, 127
2, 30671, Note_on_c, 0, 83, 98
2, 30675, Note_on_c, 0, 71, 92
2, 30789, Note_on_c, 0, 86, 103
2, 30792, Note_on_c, 0, 74, 101
2, 30800, Note_on_c, 0, 62, 93
2, 30811, Note_on_c, 0, 57, 73
2, 30811, Note_on_c, 0, 54, 73
2, 30812, Note_on_c, 0, 50, 0
2, 30817, Note_on_c, 0, 50, 68
2, 30904, Note_on_c, 0, 50, 0
2, 30911, Note_on_c, 0, 50, 87
2, 30914, Note_on_c, 0, 81, 101
2, 30915, Note_on_c, 0, 69, 99
2, 31019, Note_on_c, 0, 50, 0
2, 31025, Note_on_c, 0, 50, 83
2, 31027, Note_on_c, 0, 57, 0
2, 31027, Note_on_c, 0, 71, 0
2, 31027, Note_on_c, 0, 83, 0
2, 31031, Note_on_c, 0, 83, 100
2, 31036, Note_on_c, 0, 57, 67
2, 31036, Note_on_c, 0, 71, 97
2, 31142, Note_on_c, 0, 50, 0
2, 31152, Note_on_c, 0, 50, 82
2, 31157, Note_on_c, 0, 79, 103
2, 31159, Note_on_c, 0, 67, 97
2, 31265, Note_on_c, 0, 81, 0
2, 31271, Note_on_c, 0, 74, 0
2, 31272, Note_on_c, 0, 57, 0
2, 31272, Note_on_c, 0, 62, 0
2, 31272, Note_on_c, 0, 69, 0
2, 31274, Note_on_c, 0, 81, 104
2, 31277, Note_on_c, 0, 69, 101
2, 31278, Note_on_c, 0, 62, 94
2, 31280, Note_on_c, 0, 54, 0
2, 31283, Note_on_c, 0, 57, 83
2, 31290, Note_on_c, 0, 54, 74
2, 31372, Note_on_c, 0, 50, 0
2, 31376, Note_on_c, 0, 50, 94
2, 31489, Note_on_c, 0, 83, 0
2, 31489, Note_on_c, 0, 86, 0
2, 31489, Note_on_c, 0, 67, 0
2, 31489, Note_on_c, 0, 71, 0
2, 31489, Note_on_c, 0, 57, 0
2, 31489, Note_on_c, 0, 62, 0
2, 31489, Note_on_c, 0, 54, 0
2, 31489, Note_on_c, 0, 50, 0
2, 31489, Note_on_c, 0, 88, 0
2, 31489, Note_on_c, 0, 81, 0
2, 31489, Control_c, 0, 64, 0
2, 31489, Note_on_c, 0, 69, 0
2, 31490, Note_on_c, 0, 79, 0
2, 31490, Note_on_c, 0, 76, 0
2, 31503, Note_on_c, 0, 38, 0
2, 31527, Note_on_c, 0, 71, 103
2, 31529, Note_on_c, 0, 83, 108
2, 31529, Note_on_c, 0, 76, 107
2, 31531, Note_on_c, 0, 79, 98
2, 31533, Note_on_c, 0, 28, 97
2, 31535, Note_on_c, 0, 40, 100
2, 31557, Control_c, 0, 64, 127
2, 31772, Note_on_c, 0, 40, 0
2, 31777, Note_on_c, 0, 47, 75
2, 31780, Note_on_c, 0, 40, 70
2, 31895, Note_on_c, 0, 40, 0
2, 31901, Note_on_c, 0, 40, 67
2, 31906, Note_on_c, 0, 81, 87
2, 31959, Note_on_c, 0, 82, 79
2, 32010, Note_on_c, 0, 40, 0
2, 32010, Note_on_c, 0, 79, 0
2, 32010, Note_on_c, 0, 83, 0
2, 32017, Note_on_c, 0, 76, 0
2, 32018, Note_on_c, 0, 40, 70
2, 32019, Note_on_c, 0, 83, 98
2, 32019, Note_on_c, 0, 79, 99
2, 32025, Note_on_c, 0, 76, 100
2, 32125, Note_on_c, 0, 28, 0
2, 32125, Note_on_c, 0, 40, 0
2, 32132, Note_on_c, 0, 40, 80
2, 32134, Note_on_c, 0, 28, 79
2, 32256, Note_on_c, 0, 40, 0
2, 32256, Note_on_c, 0, 47, 0
2, 32266, Note_on_c, 0, 47, 72
2, 32266, Note_on_c, 0, 40, 74
2, 32267, Note_on_c, 0, 52, 78
2, 32378, Note_on_c, 0, 40, 0
2, 32389, Note_on_c, 0, 40, 68
2, 32394, Note_on_c, 0, 81, 0
2, 32404, Note_on_c, 0, 81, 86
2, 32501, Note_on_c, 0, 79, 0
2, 32509, Note_on_c, 0, 40, 0
2, 32509, Note_on_c, 0, 76, 0
2, 32509, Note_on_c, 0, 83, 0
2, 32513, Note_on_c, 0, 79, 102
2, 32513, Note_on_c, 0, 83, 101
2, 32516, Note_on_c, 0, 40, 80
2, 32519, Note_on_c, 0, 76, 96
2, 32632, Note_on_c, 0, 40, 0
2, 32642, Note_on_c, 0, 40, 77
2, 32755, Note_on_c, 0, 47, 0
2, 32762, Note_on_c, 0, 40, 0
2, 32766, Note_on_c, 0, 52, 0
2, 32766, Note_on_c, 0, 47, 87
2, 32769, Note_on_c, 0, 40, 71
2, 32878, Note_on_c, 0, 81, 0
2, 32885, Note_on_c, 0, 81, 84
2, 32885, Note_on_c, 0, 40, 0
2, 32890, Note_on_c, 0, 40, 75
2, 32901, Note_on_c, 0, 82, 0
2, 32911, Note_on_c, 0, 82, 88
2, 32993, Note_on_c, 0, 40, 0
2, 32993, Note_on_c, 0, 83, 0
2, 32997, Control_c, 0, 64, 0
2, 32997, Note_on_c, 0, 71, 0
2, 32998, Note_on_c, 0, 83, 99
2, 32998, Note_on_c, 0, 82, 0
2, 32999, Note_on_c, 0, 40, 73
2, 32999, Note_on_c, 0, 79, 0
2, 32999, Note_on_c, 0, 28, 0
2, 33000, Note_on_c, 0, 81, 0
2, 33000, Note_on_c, 0, 76, 0
2, 33005, Note_on_c, 0, 76, 94
2, 33024, Note_on_c, 0, 47, 0
2, 33047, Control_c, 0, 64, 127
2, 33116, Note_on_c, 0, 40, 0
2, 33127, Note_on_c, 0, 40, 78
2, 33127, Note_on_c, 0, 81, 99
2, 33244, Note_on_c, 0, 86, 100
2, 33246, Note_on_c, 0, 40, 0
2, 33247, Note_on_c, 0, 47, 90
2, 33249, Note_on_c, 0, 52, 84
2, 33256, Note_on_c, 0, 40, 81
2, 33346, Note_on_c, 0, 40, 0
2, 33355, Note_on_c, 0, 40, 62
2, 33447, Control_c, 0, 64, 0
2, 33450, Note_on_c, 0, 86, 0
2, 33450, Note_on_c, 0, 52, 0
2, 33451, Note_on_c, 0, 76, 0
2, 33451, Note_on_c, 0, 40, 0
2, 33454, Note_on_c, 0, 83, 0
2, 33469, Note_on_c, 0, 47, 0
2, 33469, Note_on_c, 0, 81, 0
2, 33489, Note_on_c, 0, 83, 104
2, 33494, Note_on_c, 0, 79, 98
2, 33496, Note_on_c, 0, 76, 100
2, 33499, Note_on_c, 0, 48, 99
2, 33503, Note_on_c, 0, 36, 91
2, 33523, Control_c, 0, 64, 127
2, 33738, Note_on_c, 0, 60, 85
2, 33740, Note_on_c, 0, 64, 81
2, 33742, Note_on_c, 0, 55, 74
2, 33861, Note_on_c, 0, 48, 0
2, 33869, Note_on_c, 0, 48, 74
2, 33872, Note_on_c, 0, 81, 93
2, 33927, Note_on_c, 0, 82, 59
2, 33953, Note_on_c, 0, 36, 0
2, 33965, Note_on_c, 0, 60, 0
2, 33968, Note_on_c, 0, 79, 0
2, 33971, Note_on_c, 0, 64, 0
2, 33976, Note_on_c, 0, 48, 0
2, 33976, Note_on_c, 0, 76, 0
2, 33976, Note_on_c, 0, 83, 0
2, 33976, Note_on_c, 0, 79, 95
2, 33981, Note_on_c, 0, 48, 97
2, 33981, Note_on_c, 0, 83, 98
2, 33982, Note_on_c, 0, 76, 98
2, 33987, Note_on_c, 0, 36, 84
2, 34007, Note_on_c, 0, 81, 0
2, 34106, Note_on_c, 0, 48, 0
2, 34111, Note_on_c, 0, 48, 89
2, 34222, Note_on_c, 0, 55, 0
2, 34232, Note_on_c, 0, 55, 80
2, 34233, Note_on_c, 0, 60, 83
2, 34237, Note_on_c, 0, 64, 86
2, 34321, Note_on_c, 0, 48, 0
2, 34325, Note_on_c, 0, 81, 79
2, 34333, Note_on_c, 0, 48, 81
2, 34383, Note_on_c, 0, 82, 0
2, 34394, Note_on_c, 0, 82, 92
2, 34428, Control_c, 0, 64, 0
2, 34429, Note_on_c, 0, 36, 0
2, 34432, Note_on_c, 0, 64, 0
2, 34432, Note_on_c, 0, 55, 0
2, 34432, Note_on_c, 0, 83, 0
2, 34432, Note_on_c, 0, 79, 0
2, 34432, Note_on_c, 0, 48, 0
2, 34432, Note_on_c, 0, 60, 0
2, 34432, Note_on_c, 0, 76, 0
2, 34432, Note_on_c, 0, 81, 0
2, 34434, Note_on_c, 0, 82, 0
2, 34478, Note_on_c, 0, 88, 106
2, 34488, Note_on_c, 0, 76, 103
2, 34489, Note_on_c, 0, 50, 87
2, 34492, Note_on_c, 0, 38, 86
2, 34513, Control_c, 0, 64, 127
2, 34731, Note_on_c, 0, 86, 101
2, 34732, Note_on_c, 0, 62, 78
2, 34733, Note_on_c, 0, 57, 71
2, 34737, Note_on_c, 0, 54, 75
2, 34740, Note_on_c, 0, 74, 93
2, 34752, Note_on_c, 0, 50, 0
2, 34761, Note_on_c, 0, 50, 63
2, 34844, Note_on_c, 0, 50, 0
2, 34849, Note_on_c, 0, 50, 76
2, 34959, Note_on_c, 0, 50, 0
2, 34966, Note_on_c, 0, 50, 72
2, 34967, Note_on_c, 0, 54, 0
2, 34972, Note_on_c, 0, 59, 60
2, 34975, Note_on_c, 0, 54, 62
2, 34976, Note_on_c, 0, 83, 99
2, 34978, Note_on_c, 0, 71, 85
2, 34982, Note_on_c, 0, 59, 0
2, 35097, Note_on_c, 0, 38, 0
2, 35097, Note_on_c, 0, 50, 0
2, 35101, Note_on_c, 0, 50, 86
2, 35104, Note_on_c, 0, 38, 69
2, 35205, Note_on_c, 0, 86, 0
2, 35212, Note_on_c, 0, 74, 0
2, 35215, Note_on_c, 0, 86, 104
2, 35220, Note_on_c, 0, 54, 0
2, 35220, Note_on_c, 0, 57, 0
2, 35220, Note_on_c, 0, 62, 0
2, 35220, Note_on_c, 0, 88, 0
2, 35222, Note_on_c, 0, 76, 0
2, 35222, Note_on_c, 0, 74, 97
2, 35223, Note_on_c, 0, 38, 0
2, 35223, Note_on_c, 0, 71, 0
2, 35224, Note_on_c, 0, 83, 0
2, 35224, Note_on_c, 0, 50, 0
2, 35227, Note_on_c, 0, 57, 77
2, 35227, Note_on_c, 0, 62, 85
2, 35231, Note_on_c, 0, 54, 77
2, 35336, Note_on_c, 0, 50, 87
2, 35437, Control_c, 0, 64, 0
2, 35438, Note_on_c, 0, 50, 0
2, 35438, Note_on_c, 0, 54, 0
2, 35438, Note_on_c, 0, 74, 0
2, 35439, Note_on_c, 0, 57, 0
2, 35439, Note_on_c, 0, 62, 0
2, 35450, Note_on_c, 0, 86, 0
2, 35468, Note_on_c, 0, 40, 82
2, 35499, Note_on_c, 0, 40, 0
2, 35581, Note_on_c, 0, 40, 74
2, 35617, Note_on_c, 0, 40, 0
2, 35721, Note_on_c, 0, 64, 86
2, 35724, Note_on_c, 0, 59, 79
2, 35724, Note_on_c, 0, 47, 66
2, 35726, Note_on_c, 0, 52, 70
2, 35750, Note_on_c, 0, 64, 0
2, 35773, Note_on_c, 0, 47, 0
2, 35773, Note_on_c, 0, 52, 0
2, 35773, Note_on_c, 0, 59, 0
2, 35838, Note_on_c, 0, 40, 67
2, 35875, Note_on_c, 0, 40, 0
2, 35956, Note_on_c, 0, 40, 69
2, 35972, Note_on_c, 0, 59, 79
2, 35975, Note_on_c, 0, 64, 87
2, 36000, Note_on_c, 0, 40, 0
2, 36071, Note_on_c, 0, 40, 69
2, 36131, Note_on_c, 0, 64, 0
2, 36136, Note_on_c, 0, 59, 0
2, 36136, Note_on_c, 0, 40, 0
2, 36211, Note_on_c, 0, 64, 87
2, 36222, Note_on_c, 0, 59, 79
2, 36222, Note_on_c, 0, 47, 70
2, 36225, Note_on_c, 0, 52, 68
2, 36253, Note_on_c, 0, 47, 0
2, 36255, Note_on_c, 0, 59, 0
2, 36259, Note_on_c, 0, 52, 0
2, 36288, Note_on_c, 0, 64, 0
2, 36329, Note_on_c, 0, 40, 72
2, 36331, Note_on_c, 0, 62, 88
2, 36336, Note_on_c, 0, 57, 80
2, 36363, Note_on_c, 0, 62, 0
2, 36364, Note_on_c, 0, 57, 0
2, 36376, Note_on_c, 0, 40, 0
2, 36454, Note_on_c, 0, 40, 75
2, 36461, Note_on_c, 0, 64, 91
2, 36463, Note_on_c, 0, 59, 81
2, 36499, Note_on_c, 0, 40, 0
2, 36577, Note_on_c, 0, 40, 63
2, 36629, Note_on_c, 0, 59, 0
2, 36630, Note_on_c, 0, 64, 0
2, 36687, Note_on_c, 0, 40, 0
2, 36714, Note_on_c, 0, 64, 83
2, 36719, Note_on_c, 0, 47, 67
2, 36721, Note_on_c, 0, 40, 68
2, 36724, Note_on_c, 0, 59, 74
2, 36724, Note_on_c, 0, 52, 68
2, 36752, Note_on_c, 0, 47, 0
2, 36754, Note_on_c, 0, 40, 0
2, 36757, Note_on_c, 0, 64, 0
2, 36758, Note_on_c, 0, 52, 0
2, 36759, Note_on_c, 0, 59, 0
2, 36818, Note_on_c, 0, 40, 68
2, 36835, Note_on_c, 0, 62, 86
2, 36837, Note_on_c, 0, 57, 80
2, 36868, Note_on_c, 0, 57, 0
2, 36869, Note_on_c, 0, 62, 0
2, 36871, Note_on_c, 0, 40, 0
2, 36957, Note_on_c, 0, 40, 77
2, 36960, Note_on_c, 0, 59, 88
2, 36961, Note_on_c, 0, 64, 90
2, 36985, Note_on_c, 0, 40, 0
2, 37067, Note_on_c, 0, 40, 67
2, 37079, Note_on_c, 0, 59, 0
2, 37082, Note_on_c, 0, 64, 0
2, 37120, Note_on_c, 0, 40, 0
2, 37198, Note_on_c, 0, 47, 85
2, 37205, Note_on_c, 0, 67, 92
2, 37205, Note_on_c, 0, 52, 83
2, 37205, Note_on_c, 0, 40, 79
2, 37206, Note_on_c, 0, 62, 84
2, 37274, Note_on_c, 0, 47, 0
2, 37274, Note_on_c, 0, 52, 0
2, 37309, Note_on_c, 0, 40, 0
2, 37314, Note_on_c, 0, 40, 74
2, 37351, Note_on_c, 0, 40, 0
2, 37443, Note_on_c, 0, 36, 86
2, 37477, Note_on_c, 0, 36, 0
2, 37557, Note_on_c, 0, 36, 79
2, 37597, Note_on_c, 0, 36, 0
2, 37620, Note_on_c, 0, 62, 0
2, 37685, Note_on_c, 0, 67, 0
2, 37690, Note_on_c, 0, 64, 87
2, 37696, Note_on_c, 0, 60, 81
2, 37697, Note_on_c, 0, 52, 77
2, 37718, Note_on_c, 0, 43, 43
2, 37721, Note_on_c, 0, 60, 0
2, 37739, Note_on_c, 0, 52, 0
2, 37739, Note_on_c, 0, 64, 0
2, 37754, Note_on_c, 0, 43, 0
2, 37822, Note_on_c, 0, 36, 69
2, 37856, Note_on_c, 0, 36, 0
2, 37935, Note_on_c, 0, 36, 76
2, 37943, Note_on_c, 0, 64, 95
2, 37948, Note_on_c, 0, 60, 78
2, 37978, Note_on_c, 0, 36, 0
2, 38065, Note_on_c, 0, 36, 70
2, 38154, Note_on_c, 0, 60, 0
2, 38177, Note_on_c, 0, 36, 0
2, 38189, Note_on_c, 0, 43, 77
2, 38189, Note_on_c, 0, 52, 84
2, 38192, Note_on_c, 0, 67, 93
2, 38234, Note_on_c, 0, 43, 0
2, 38234, Note_on_c, 0, 52, 0
2, 38299, Note_on_c, 0, 36, 78
2, 38307, Note_on_c, 0, 64, 0
2, 38334, Note_on_c, 0, 67, 0
2, 38361, Note_on_c, 0, 36, 0
2, 38428, Note_on_c, 0, 66, 92
2, 38432, Note_on_c, 0, 62, 89
2, 38434, Note_on_c, 0, 38, 82
2, 38469, Note_on_c, 0, 38, 0
2, 38556, Note_on_c, 0, 38, 74
2, 38618, Note_on_c, 0, 62, 0
2, 38618, Note_on_c, 0, 38, 0
2, 38687, Note_on_c, 0, 62, 92
2, 38688, Note_on_c, 0, 54, 87
2, 38689, Note_on_c, 0, 45, 72
2, 38728, Note_on_c, 0, 54, 0
2, 38730, Note_on_c, 0, 66, 0
2, 38733, Note_on_c, 0, 45, 0
2, 38805, Note_on_c, 0, 38, 76
2, 38842, Note_on_c, 0, 38, 0
2, 38912, Note_on_c, 0, 62, 0
2, 38934, Note_on_c, 0, 38, 72
2, 38934, Note_on_c, 0, 59, 94
2, 38971, Note_on_c, 0, 38, 0
2, 39055, Note_on_c, 0, 38, 76
2, 39172, Note_on_c, 0, 38, 0
2, 39182, Note_on_c, 0, 57, 92
2, 39185, Note_on_c, 0, 45, 79
2, 39188, Note_on_c, 0, 54, 84
2, 39206, Note_on_c, 0, 59, 0
2, 39235, Note_on_c, 0, 57, 0
2, 39236, Note_on_c, 0, 45, 0
2, 39246, Note_on_c, 0, 54, 0
2, 39287, Note_on_c, 0, 38, 77
2, 39325, Note_on_c, 0, 38, 0
2, 39438, Note_on_c, 0, 40, 86
2, 39440, Note_on_c, 0, 28, 94
2, 39440, Note_on_c, 0, 57, 96
2, 39475, Control_c, 0, 64, 127
2, 39697, Note_on_c, 0, 57, 0
2, 39701, Note_on_c, 0, 57, 69
2, 39702, Note_on_c, 0, 47, 62
2, 39706, Note_on_c, 0, 52, 69
2, 39820, Note_on_c, 0, 40, 0
2, 39820, Note_on_c, 0, 57, 0
2, 39824, Note_on_c, 0, 59, 93
2, 39827, Note_on_c, 0, 40, 73
2, 39828, Note_on_c, 0, 57, 72
2, 39936, Note_on_c, 0, 59, 0
2, 39947, Note_on_c, 0, 59, 92
2, 40051, Note_on_c, 0, 28, 0
2, 40058, Note_on_c, 0, 40, 0
2, 40062, Note_on_c, 0, 28, 77
2, 40062, Note_on_c, 0, 40, 64
2, 40181, Note_on_c, 0, 47, 0
2, 40189, Note_on_c, 0, 52, 0
2, 40193, Note_on_c, 0, 47, 72
2, 40194, Note_on_c, 0, 52, 74
2, 40194, Note_on_c, 0, 57, 0
2, 40304, Note_on_c, 0, 40, 0
2, 40311, Note_on_c, 0, 40, 58
2, 40322, Note_on_c, 0, 74, 78
2, 40365, Note_on_c, 0, 75, 79
2, 40419, Note_on_c, 0, 40, 0
2, 40421, Control_c, 0, 64, 0
2, 40421, Note_on_c, 0, 71, 85
2, 40422, Note_on_c, 0, 76, 98
2, 40422, Note_on_c, 0, 52, 0
2, 40422, Note_on_c, 0, 75, 0
2, 40423, Note_on_c, 0, 59, 0
2, 40423, Note_on_c, 0, 74, 0
2, 40423, Note_on_c, 0, 67, 80
2, 40425, Note_on_c, 0, 40, 83
2, 40442, Note_on_c, 0, 47, 0
2, 40473, Control_c, 0, 64, 127
2, 40550, Note_on_c, 0, 40, 0
2, 40561, Note_on_c, 0, 40, 56
2, 40669, Note_on_c, 0, 47, 83
2, 40671, Note_on_c, 0, 52, 75
2, 40773, Note_on_c, 0, 47, 0
2, 40782, Note_on_c, 0, 47, 67
2, 40804, Note_on_c, 0, 74, 77
2, 40850, Note_on_c, 0, 75, 72
2, 40891, Note_on_c, 0, 67, 0
2, 40892, Note_on_c, 0, 47, 0
2, 40892, Note_on_c, 0, 74, 0
2, 40892, Note_on_c, 0, 75, 0
2, 40893, Control_c, 0, 64, 0
2, 40896, Note_on_c, 0, 28, 0
2, 40896, Note_on_c, 0, 52, 0
2, 40896, Note_on_c, 0, 71, 0
2, 40900, Note_on_c, 0, 71, 68
2, 40903, Note_on_c, 0, 40, 0
2, 40907, Note_on_c, 0, 40, 67
2, 40911, Note_on_c, 0, 76, 0
2, 40916, Note_on_c, 0, 76, 93
2, 40939, Note_on_c, 0, 67, 70
2, 40949, Control_c, 0, 64, 127
2, 41034, Note_on_c, 0, 40, 0
2, 41043, Note_on_c, 0, 40, 74
2, 41045, Note_on_c, 0, 74, 84
2, 41168, Note_on_c, 0, 79, 98
2, 41172, Note_on_c, 0, 47, 82
2, 41280, Note_on_c, 0, 40, 0
2, 41290, Note_on_c, 0, 40, 70
2, 41373, Control_c, 0, 64, 0
2, 41375, Note_on_c, 0, 47, 0
2, 41375, Note_on_c, 0, 74, 0
2, 41375, Note_on_c, 0, 67, 0
2, 41375, Note_on_c, 0, 71, 0
2, 41376, Note_on_c, 0, 79, 0
2, 41402, Note_on_c, 0, 40, 0
2, 41402, Note_on_c, 0, 76, 0
2, 41407, Note_on_c, 0, 76, 101
2, 41413, Note_on_c, 0, 71, 86
2, 41413, Note_on_c, 0, 67, 82
2, 41414, Note_on_c, 0, 36, 93
2, 41456, Control_c, 0, 64, 127
2, 41665, Note_on_c, 0, 60, 75
2, 41669, Note_on_c, 0, 55, 69
2, 41670, Note_on_c, 0, 52, 70
2, 41771, Note_on_c, 0, 76, 0
2, 41775, Note_on_c, 0, 74, 73
2, 41780, Note_on_c, 0, 76, 71
2, 41790, Note_on_c, 0, 48, 76
2, 41837, Note_on_c, 0, 75, 63
2, 41886, Note_on_c, 0, 48, 0
2, 41886, Note_on_c, 0, 71, 0
2, 41886, Note_on_c, 0, 76, 0
2, 41890, Note_on_c, 0, 71, 80
2, 41894, Note_on_c, 0, 36, 0
2, 41894, Note_on_c, 0, 67, 0
2, 41897, Note_on_c, 0, 48, 81
2, 41897, Note_on_c, 0, 76, 98
2, 41898, Note_on_c, 0, 67, 81
2, 41899, Note_on_c, 0, 36, 81
2, 42032, Note_on_c, 0, 48, 0
2, 42037, Note_on_c, 0, 48, 80
2, 42155, Note_on_c, 0, 36, 0
2, 42155, Note_on_c, 0, 52, 0
2, 42155, Note_on_c, 0, 55, 0
2, 42155, Note_on_c, 0, 60, 0
2, 42159, Note_on_c, 0, 60, 79
2, 42163, Note_on_c, 0, 55, 74
2, 42164, Note_on_c, 0, 36, 71
2, 42164, Note_on_c, 0, 52, 75
2, 42255, Note_on_c, 0, 48, 0
2, 42262, Note_on_c, 0, 48, 83
2, 42278, Note_on_c, 0, 55, 0
2, 42301, Note_on_c, 0, 74, 0
2, 42306, Note_on_c, 0, 74, 78
2, 42339, Note_on_c, 0, 75, 0
2, 42348, Note_on_c, 0, 75, 76
2, 42367, Note_on_c, 0, 60, 0
2, 42368, Note_on_c, 0, 36, 0
2, 42368, Note_on_c, 0, 71, 0
2, 42368, Note_on_c, 0, 67, 0
2, 42368, Note_on_c, 0, 48, 0
2, 42369, Note_on_c, 0, 52, 0
2, 42369, Note_on_c, 0, 74, 0
2, 42369, Control_c, 0, 64, 0
2, 42401, Note_on_c, 0, 75, 0
2, 42401, Note_on_c, 0, 76, 0
2, 42405, Note_on_c, 0, 76, 99
2, 42412, Note_on_c, 0, 71, 82
2, 42414, Note_on_c, 0, 69, 88
2, 42417, Note_on_c, 0, 38, 84
2, 42455, Control_c, 0, 64, 127
2, 42666, Note_on_c, 0, 62, 73
2, 42666, Note_on_c, 0, 57, 67
2, 42667, Note_on_c, 0, 54, 69
2, 42778, Note_on_c, 0, 74, 77
2, 42783, Note_on_c, 0, 50, 76
2, 42808, Note_on_c, 0, 71, 0
2, 42815, Note_on_c, 0, 71, 66
2, 42816, Note_on_c, 0, 54, 0
2, 42821, Note_on_c, 0, 54, 46
2, 42821, Note_on_c, 0, 75, 70
2, 42892, Note_on_c, 0, 50, 0
2, 42892, Note_on_c, 0, 76, 0
2, 42897, Note_on_c, 0, 76, 93
2, 42900, Note_on_c, 0, 54, 0
2, 42900, Note_on_c, 0, 69, 0
2, 42903, Note_on_c, 0, 50, 69
2, 42904, Note_on_c, 0, 69, 84
2, 42910, Note_on_c, 0, 54, 57
2, 43023, Note_on_c, 0, 50, 0
2, 43023, Note_on_c, 0, 74, 0
2, 43029, Note_on_c, 0, 74, 83
2, 43030, Note_on_c, 0, 50, 70
2, 43046, Note_on_c, 0, 54, 0
2, 43057, Note_on_c, 0, 54, 52
2, 43141, Note_on_c, 0, 81, 102
2, 43161, Note_on_c, 0, 54, 0
2, 43161, Note_on_c, 0, 57, 0
2, 43161, Note_on_c, 0, 62, 0
2, 43165, Note_on_c, 0, 62, 82
2, 43166, Note_on_c, 0, 57, 75
2, 43170, Note_on_c, 0, 54, 73
2, 43261, Note_on_c, 0, 50, 0
2, 43272, Note_on_c, 0, 50, 70
2, 43376, Note_on_c, 0, 71, 0
2, 43377, Control_c, 0, 64, 0
2, 43377, Note_on_c, 0, 75, 0
2, 43377, Note_on_c, 0, 54, 0
2, 43378, Note_on_c, 0, 76, 0
2, 43378, Note_on_c, 0, 50, 0
2, 43378, Note_on_c, 0, 62, 0
2, 43379, Note_on_c, 0, 57, 0
2, 43379, Note_on_c, 0, 81, 0
2, 43392, Note_on_c, 0, 38, 0
2, 43392, Note_on_c, 0, 74, 0
2, 43399, Note_on_c, 0, 69, 0
2, 43400, Note_on_c, 0, 40, 81
2, 43435, Note_on_c, 0, 40, 0
2, 43518, Note_on_c, 0, 40, 62
2, 43557, Note_on_c, 0, 40, 0
2, 43640, Note_on_c, 0, 64, 91
2, 43649, Note_on_c, 0, 47, 74
2, 43650, Note_on_c, 0, 59, 77
2, 43653, Note_on_c, 0, 52, 69
2, 43672, Note_on_c, 0, 64, 0
2, 43673, Note_on_c, 0, 47, 0
2, 43679, Note_on_c, 0, 59, 0
2, 43681, Note_on_c, 0, 52, 0
2, 43771, Note_on_c, 0, 40, 63
2, 43809, Note_on_c, 0, 40, 0
2, 43895, Note_on_c, 0, 40, 74
2, 43902, Note_on_c, 0, 59, 84
2, 43904, Note_on_c, 0, 64, 87
2, 43998, Note_on_c, 0, 40, 0
2, 44009, Note_on_c, 0, 40, 73
2, 44073, Note_on_c, 0, 64, 0
2, 44078, Note_on_c, 0, 59, 0
2, 44085, Note_on_c, 0, 40, 0
2, 44147, Note_on_c, 0, 64, 77
2, 44148, Note_on_c, 0, 47, 76
2, 44149, Note_on_c, 0, 59, 80
2, 44150, Note_on_c, 0, 52, 74
2, 44178, Note_on_c, 0, 47, 0
2, 44181, Note_on_c, 0, 59, 0
2, 44182, Note_on_c, 0, 52, 0
2, 44182, Note_on_c, 0, 64, 0
2, 44266, Note_on_c, 0, 40, 72
2, 44266, Note_on_c, 0, 62, 86
2, 44270, Note_on_c, 0, 57, 81
2, 44296, Note_on_c, 0, 57, 0
2, 44297, Note_on_c, 0, 62, 0
2, 44317, Note_on_c, 0, 40, 0
2, 44394, Note_on_c, 0, 40, 75
2, 44394, Note_on_c, 0, 59, 90
2, 44395, Note_on_c, 0, 64, 91
2, 44432, Note_on_c, 0, 40, 0
2, 44517, Note_on_c, 0, 40, 72
2, 44561, Note_on_c, 0, 64, 0
2, 44563, Note_on_c, 0, 40, 0
2, 44563, Note_on_c, 0, 59, 0
2, 44640, Note_on_c, 0, 64, 93
2, 44647, Note_on_c, 0, 47, 77
2, 44648, Note_on_c, 0, 59, 82
2, 44648, Note_on_c, 0, 52, 78
2, 44676, Note_on_c, 0, 47, 0
2, 44677, Note_on_c, 0, 52, 0
2, 44678, Note_on_c, 0, 59, 0
2, 44712, Note_on_c, 0, 64, 0
2, 44760, Note_on_c, 0, 40, 78
2, 44767, Note_on_c, 0, 62, 90
2, 44770, Note_on_c, 0, 57, 85
2, 44794, Note_on_c, 0, 57, 0
2, 44796, Note_on_c, 0, 62, 0
2, 44803, Note_on_c, 0, 40, 0
2, 44884, Note_on_c, 0, 40, 79
2, 44884, Note_on_c, 0, 59, 96
2, 44884, Note_on_c, 0, 64, 92
2, 44917, Note_on_c, 0, 40, 0
2, 45002, Note_on_c, 0, 40, 83
2, 45027, Note_on_c, 0, 59, 0
2, 45030, Note_on_c, 0, 64, 0
2, 45052, Note_on_c, 0, 40, 0
2, 45138, Note_on_c, 0, 67, 99
2, 45139, Note_on_c, 0, 62, 92
2, 45139, Note_on_c, 0, 47, 86
2, 45140, Note_on_c, 0, 40, 84
2, 45182, Note_on_c, 0, 47, 0
2, 45204, Note_on_c, 0, 40, 0
2, 45251, Note_on_c, 0, 40, 74
2, 45286, Note_on_c, 0, 40, 0
2, 45374, Note_on_c, 0, 36, 90
2, 45413, Note_on_c, 0, 36, 0
2, 45434, Note_on_c, 0, 62, 0
2, 45492, Note_on_c, 0, 36, 80
2, 45541, Note_on_c, 0, 36, 0
2, 45603, Note_on_c, 0, 67, 0
2, 45631, Note_on_c, 0, 64, 91
2, 45631, Note_on_c, 0, 60, 88
2, 45634, Note_on_c, 0, 43, 79
2, 45636, Note_on_c, 0, 52, 81
2, 45655, Note_on_c, 0, 52, 0
2, 45659, Note_on_c, 0, 60, 0
2, 45660, Note_on_c, 0, 64, 0
2, 45662, Note_on_c, 0, 43, 0
2, 45754, Note_on_c, 0, 36, 77
2, 45791, Note_on_c, 0, 36, 0
2, 45872, Note_on_c, 0, 36, 78
2, 45883, Note_on_c, 0, 60, 89
2, 45883, Note_on_c, 0, 64, 96
2, 45915, Note_on_c, 0, 36, 0
2, 46005, Note_on_c, 0, 36, 73
2, 46080, Note_on_c, 0, 60, 0
2, 46086, Note_on_c, 0, 64, 0
2, 46095, Note_on_c, 0, 36, 0
2, 46125, Note_on_c, 0, 52, 89
2, 46127, Note_on_c, 0, 43, 77
2, 46128, Note_on_c, 0, 71, 97
2, 46183, Note_on_c, 0, 52, 0
2, 46237, Note_on_c, 0, 36, 81
2, 46264, Note_on_c, 0, 43, 0
2, 46272, Note_on_c, 0, 36, 0
2, 46302, Note_on_c, 0, 71, 0
2, 46373, Note_on_c, 0, 69, 95
2, 46375, Note_on_c, 0, 38, 87
2, 46377, Note_on_c, 0, 66, 90
2, 46406, Note_on_c, 0, 69, 0
2, 46407, Note_on_c, 0, 38, 0
2, 46493, Note_on_c, 0, 38, 74
2, 46575, Note_on_c, 0, 38, 0
2, 46615, Note_on_c, 0, 67, 94
2, 46617, Note_on_c, 0, 66, 0
2, 46623, Note_on_c, 0, 54, 89
2, 46627, Note_on_c, 0, 45, 76
2, 46655, Note_on_c, 0, 45, 0
2, 46671, Note_on_c, 0, 54, 0
2, 46739, Note_on_c, 0, 38, 77
2, 46775, Note_on_c, 0, 38, 0
2, 46859, Note_on_c, 0, 38, 76
2, 46862, Note_on_c, 0, 64, 101
2, 46863, Note_on_c, 0, 67, 0
2, 46899, Note_on_c, 0, 38, 0
2, 46989, Note_on_c, 0, 38, 72
2, 47075, Note_on_c, 0, 38, 0
2, 47085, Note_on_c, 0, 64, 0
2, 47110, Note_on_c, 0, 62, 96
2, 47112, Note_on_c, 0, 45, 80
2, 47128, Note_on_c, 0, 54, 86
2, 47185, Note_on_c, 0, 45, 0
2, 47185, Control_c, 0, 64, 127
2, 47221, Note_on_c, 0, 38, 78
2, 47262, Note_on_c, 0, 54, 0
2, 47275, Control_c, 0, 64, 0
2, 47278, Note_on_c, 0, 38, 0
2, 47283, Note_on_c, 0, 62, 0
2, 47372, Note_on_c, 0, 62, 102
2, 47376, Note_on_c, 0, 40, 83
2, 47378, Note_on_c, 0, 28, 90
2, 47408, Control_c, 0, 64, 127
2, 47629, Note_on_c, 0, 47, 72
2, 47631, Note_on_c, 0, 52, 73
2, 47746, Note_on_c, 0, 40, 0
2, 47746, Note_on_c, 0, 47, 0
2, 47752, Note_on_c, 0, 64, 95
2, 47757, Note_on_c, 0, 40, 73
2, 47758, Note_on_c, 0, 47, 68
2, 47861, Note_on_c, 0, 40, 0
2, 47869, Note_on_c, 0, 64, 0
2, 47872, Note_on_c, 0, 40, 72
2, 47874, Note_on_c, 0, 64, 91
2, 47984, Note_on_c, 0, 40, 0
2, 47991, Note_on_c, 0, 40, 73
2, 48122, Note_on_c, 0, 40, 0
2, 48122, Note_on_c, 0, 47, 0
2, 48122, Note_on_c, 0, 52, 0
2, 48127, Note_on_c, 0, 47, 77
2, 48131, Note_on_c, 0, 52, 80
2, 48131, Note_on_c, 0, 40, 76
2, 48253, Note_on_c, 0, 40, 0
2, 48259, Note_on_c, 0, 40, 75
2, 48265, Note_on_c, 0, 81, 81
2, 48321, Note_on_c, 0, 82, 75
2, 48330, Note_on_c, 0, 82, 0
2, 48360, Note_on_c, 0, 62, 0
2, 48360, Note_on_c, 0, 64, 0
2, 48360, Note_on_c, 0, 40, 0
2, 48363, Note_on_c, 0, 52, 0
2, 48365, Note_on_c, 0, 40, 78
2, 48365, Note_on_c, 0, 81, 0
2, 48365, Note_on_c, 0, 83, 98
2, 48366, Control_c, 0, 64, 0
2, 48368, Note_on_c, 0, 79, 97
2, 48372, Note_on_c, 0, 76, 92
2, 48430, Control_c, 0, 64, 127
2, 48483, Note_on_c, 0, 40, 0
2, 48490, Note_on_c, 0, 40, 76
2, 48606, Note_on_c, 0, 47, 0
2, 48616, Note_on_c, 0, 47, 79
2, 48618, Note_on_c, 0, 52, 74
2, 48729, Note_on_c, 0, 40, 0
2, 48737, Note_on_c, 0, 81, 84
2, 48739, Note_on_c, 0, 40, 70
2, 48775, Note_on_c, 0, 82, 82
2, 48783, Note_on_c, 0, 79, 0
2, 48794, Note_on_c, 0, 79, 49
2, 48821, Note_on_c, 0, 28, 0
2, 48840, Note_on_c, 0, 79, 0
2, 48843, Note_on_c, 0, 81, 0
2, 48844, Note_on_c, 0, 40, 0
2, 48844, Note_on_c, 0, 83, 0
2, 48845, Note_on_c, 0, 82, 0
2, 48846, Control_c, 0, 64, 0
2, 48855, Note_on_c, 0, 83, 101
2, 48855, Note_on_c, 0, 40, 77
2, 48867, Note_on_c, 0, 47, 0
2, 48867, Note_on_c, 0, 76, 0
2, 48871, Note_on_c, 0, 76, 87
2, 48898, Control_c, 0, 64, 127
2, 48975, Note_on_c, 0, 40, 0
2, 48979, Note_on_c, 0, 40, 87
2, 48981, Note_on_c, 0, 81, 92
2, 49105, Note_on_c, 0, 52, 0
2, 49109, Note_on_c, 0, 86, 100
2, 49109, Note_on_c, 0, 47, 89
2, 49110, Note_on_c, 0, 52, 84
2, 49205, Note_on_c, 0, 40, 0
2, 49214, Note_on_c, 0, 40, 70
2, 49216, Note_on_c, 0, 28, 67
2, 49221, Note_on_c, 0, 28, 0
2, 49303, Control_c, 0, 64, 0
2, 49303, Note_on_c, 0, 40, 0
2, 49303, Note_on_c, 0, 52, 0
2, 49304, Note_on_c, 0, 47, 0
2, 49304, Note_on_c, 0, 86, 0
2, 49304, Note_on_c, 0, 81, 0
2, 49304, Note_on_c, 0, 83, 0
2, 49307, Note_on_c, 0, 76, 0
2, 49344, Note_on_c, 0, 83, 103
2, 49347, Note_on_c, 0, 79, 97
2, 49348, Note_on_c, 0, 76, 98
2, 49348, Note_on_c, 0, 48, 95
2, 49351, Note_on_c, 0, 36, 92
2, 49374, Control_c, 0, 64, 127
2, 49595, Note_on_c, 0, 64, 79
2, 49600, Note_on_c, 0, 60, 76
2, 49613, Note_on_c, 0, 55, 67
2, 49720, Note_on_c, 0, 48, 0
2, 49723, Note_on_c, 0, 81, 89
2, 49725, Note_on_c, 0, 48, 92
2, 49785, Note_on_c, 0, 82, 66
2, 49827, Note_on_c, 0, 83, 0
2, 49835, Note_on_c, 0, 48, 0
2, 49835, Note_on_c, 0, 79, 0
2, 49838, Note_on_c, 0, 83, 99
2, 49839, Note_on_c, 0, 55, 0
2, 49842, Note_on_c, 0, 64, 0
2, 49843, Note_on_c, 0, 76, 0
2, 49843, Note_on_c, 0, 60, 0
2, 49845, Note_on_c, 0, 79, 95
2, 49846, Note_on_c, 0, 48, 81
2, 49851, Note_on_c, 0, 76, 94
2, 49858, Note_on_c, 0, 36, 0
2, 49889, Note_on_c, 0, 48, 0
2, 49920, Note_on_c, 0, 81, 0
2, 49966, Note_on_c, 0, 48, 81
2, 50078, Note_on_c, 0, 60, 78
2, 50084, Note_on_c, 0, 55, 76
2, 50085, Note_on_c, 0, 64, 80
2, 50173, Note_on_c, 0, 48, 0
2, 50180, Note_on_c, 0, 48, 87
2, 50211, Note_on_c, 0, 82, 0
2, 50216, Note_on_c, 0, 82, 89
2, 50284, Note_on_c, 0, 48, 0
2, 50284, Note_on_c, 0, 60, 0
2, 50284, Note_on_c, 0, 55, 0
2, 50284, Note_on_c, 0, 79, 0
2, 50285, Note_on_c, 0, 82, 0
2, 50285, Note_on_c, 0, 64, 0
2, 50285, Note_on_c, 0, 76, 0
2, 50286, Control_c, 0, 64, 0
2, 50296, Note_on_c, 0, 83, 0
2, 50328, Note_on_c, 0, 88, 104
2, 50334, Note_on_c, 0, 76, 102
2, 50334, Note_on_c, 0, 50, 90
2, 50335, Note_on_c, 0, 38, 87
2, 50365, Control_c, 0, 64, 127
2, 50576, Note_on_c, 0, 86, 100
2, 50577, Note_on_c, 0, 62, 81
2, 50582, Note_on_c, 0, 57, 75
2, 50582, Note_on_c, 0, 74, 92
2, 50583, Note_on_c, 0, 54, 75
2, 50688, Note_on_c, 0, 50, 0
2, 50692, Note_on_c, 0, 50, 79
2, 50810, Note_on_c, 0, 76, 0
2, 50820, Note_on_c, 0, 76, 72
2, 50822, Note_on_c, 0, 83, 94
2, 50824, Note_on_c, 0, 71, 88
2, 50941, Note_on_c, 0, 50, 0
2, 50949, Note_on_c, 0, 50, 67
2, 51056, Note_on_c, 0, 86, 0
2, 51064, Note_on_c, 0, 54, 0
2, 51064, Note_on_c, 0, 62, 0
2, 51064, Note_on_c, 0, 74, 0
2, 51066, Note_on_c, 0, 86, 100
2, 51071, Note_on_c, 0, 74, 90
2, 51074, Note_on_c, 0, 54, 76
2, 51074, Note_on_c, 0, 62, 83
2, 51310, Note_on_c, 0, 38, 0
2, 51313, Control_c, 0, 64, 0
2, 51313, Note_on_c, 0, 71, 0
2, 51313, Note_on_c, 0, 54, 0
2, 51313, Note_on_c, 0, 50, 0
2, 51313, Note_on_c, 0, 62, 0
2, 51313, Note_on_c, 0, 57, 0
2, 51314, Note_on_c, 0, 86, 0
2, 51314, Note_on_c, 0, 83, 0
2, 51314, Note_on_c, 0, 74, 0
2, 51314, Note_on_c, 0, 88, 0
2, 51325, Note_on_c, 0, 76, 0
2, 51330, Note_on_c, 0, 76, 90
2, 51337, Note_on_c, 0, 48, 77
2, 51463, Control_c, 0, 64, 127
2, 51479, Note_on_c, 0, 55, 60
2, 51592, Note_on_c, 0, 60, 64
2, 51719, Note_on_c, 0, 71, 79
2, 51721, Note_on_c, 0, 62, 65
2, 51840, Note_on_c, 0, 71, 0
2, 51844, Note_on_c, 0, 71, 78
2, 51844, Note_on_c, 0, 64, 60
2, 51863, Note_on_c, 0, 48, 0
2, 52216, Note_on_c, 0, 60, 0
2, 52223, Note_on_c, 0, 60, 54
2, 52224, Note_on_c, 0, 71, 0
2, 52234, Note_on_c, 0, 71, 79
2, 52359, Control_c, 0, 64, 0
2, 52361, Note_on_c, 0, 69, 83
2, 52365, Note_on_c, 0, 43, 62
2, 52366, Note_on_c, 0, 55, 0
2, 52368, Note_on_c, 0, 62, 0
2, 52368, Note_on_c, 0, 60, 0
2, 52368, Note_on_c, 0, 64, 0
2, 52369, Note_on_c, 0, 76, 0
2, 52372, Note_on_c, 0, 71, 0
2, 52469, Control_c, 0, 64, 127
2, 52512, Note_on_c, 0, 50, 60
2, 52621, Note_on_c, 0, 55, 61
2, 52737, Note_on_c, 0, 74, 77
2, 52766, Note_on_c, 0, 57, 68
2, 52872, Note_on_c, 0, 71, 81
2, 52873, Note_on_c, 0, 59, 69
2, 53260, Note_on_c, 0, 55, 0
2, 53260, Note_on_c, 0, 71, 0
2, 53266, Note_on_c, 0, 55, 59
2, 53267, Note_on_c, 0, 71, 80
2, 53386, Control_c, 0, 64, 0
2, 53387, Note_on_c, 0, 57, 0
2, 53387, Note_on_c, 0, 55, 0
2, 53387, Note_on_c, 0, 59, 0
2, 53387, Note_on_c, 0, 50, 0
2, 53387, Note_on_c, 0, 43, 0
2, 53387, Note_on_c, 0, 74, 0
2, 53387, Note_on_c, 0, 71, 0
2, 53391, Note_on_c, 0, 69, 0
2, 53398, Note_on_c, 0, 69, 82
2, 53400, Note_on_c, 0, 38, 62
2, 53475, Control_c, 0, 64, 127
2, 53533, Note_on_c, 0, 45, 71
2, 53633, Note_on_c, 0, 50, 71
2, 53759, Note_on_c, 0, 71, 79
2, 53789, Note_on_c, 0, 52, 64
2, 53890, Note_on_c, 0, 69, 0
2, 53900, Note_on_c, 0, 69, 86
2, 53901, Note_on_c, 0, 54, 67
2, 54144, Note_on_c, 0, 71, 0
2, 54155, Note_on_c, 0, 71, 80
2, 54266, Note_on_c, 0, 50, 0
2, 54272, Note_on_c, 0, 50, 68
2, 54366, Note_on_c, 0, 54, 0
2, 54367, Note_on_c, 0, 52, 0
2, 54367, Note_on_c, 0, 38, 0
2, 54368, Note_on_c, 0, 45, 0
2, 54368, Note_on_c, 0, 50, 0
2, 54368, Note_on_c, 0, 71, 0
2, 54368, Control_c, 0, 64, 0
2, 54368, Note_on_c, 0, 69, 0
2, 54392, Note_on_c, 0, 74, 90
2, 54396, Note_on_c, 0, 40, 66
2, 54399, Note_on_c, 0, 62, 78
2, 54402, Note_on_c, 0, 67, 75
2, 54435, Control_c, 0, 64, 127
2, 54525, Note_on_c, 0, 47, 62
2, 54640, Note_on_c, 0, 55, 73
2, 54643, Note_on_c, 0, 67, 0
2, 54646, Note_on_c, 0, 71, 88
2, 54648, Note_on_c, 0, 67, 63
2, 54868, Note_on_c, 0, 55, 0
2, 54868, Note_on_c, 0, 47, 0
2, 54869, Note_on_c, 0, 40, 0
2, 54869, Note_on_c, 0, 67, 0
2, 54869, Note_on_c, 0, 71, 0
2, 54870, Control_c, 0, 64, 0
2, 54873, Note_on_c, 0, 62, 0
2, 54881, Note_on_c, 0, 74, 0
2, 54889, Note_on_c, 0, 74, 89
2, 54891, Note_on_c, 0, 38, 64
2, 54898, Note_on_c, 0, 62, 81
2, 54900, Note_on_c, 0, 66, 74
2, 54902, Note_on_c, 0, 69, 72
2, 54950, Control_c, 0, 64, 127
2, 54973, Note_on_c, 0, 38, 0
2, 55021, Note_on_c, 0, 45, 68
2, 55134, Note_on_c, 0, 54, 72
2, 55359, Control_c, 0, 64, 0
2, 55360, Note_on_c, 0, 45, 0
2, 55360, Note_on_c, 0, 66, 0
2, 55360, Note_on_c, 0, 54, 0
2, 55361, Note_on_c, 0, 62, 0
2, 55362, Note_on_c, 0, 74, 0
2, 55372, Note_on_c, 0, 69, 0
2, 55398, Note_on_c, 0, 76, 96
2, 55405, Note_on_c, 0, 64, 85
2, 55406, Note_on_c, 0, 36, 77
2, 55407, Note_on_c, 0, 48, 76
2, 55409, Note_on_c, 0, 67, 77
2, 55409, Note_on_c, 0, 71, 79
2, 55437, Note_on_c, 0, 36, 0
2, 55464, Note_on_c, 0, 48, 0
2, 55488, Control_c, 0, 64, 127
2, 55672, Note_on_c, 0, 64, 0
2, 55677, Note_on_c, 0, 60, 63
2, 55682, Note_on_c, 0, 64, 58
2, 55779, Note_on_c, 0, 71, 0
2, 55789, Note_on_c, 0, 71, 77
2, 55816, Note_on_c, 0, 55, 59
2, 55925, Note_on_c, 0, 60, 0
2, 55925, Note_on_c, 0, 64, 0
2, 55925, Note_on_c, 0, 71, 0
2, 55929, Note_on_c, 0, 71, 86
2, 55934, Note_on_c, 0, 60, 58
2, 55936, Note_on_c, 0, 64, 67
2, 56040, Note_on_c, 0, 55, 0
2, 56045, Note_on_c, 0, 55, 63
2, 56171, Note_on_c, 0, 60, 0
2, 56175, Note_on_c, 0, 60, 71
2, 56179, Note_on_c, 0, 64, 0
2, 56186, Note_on_c, 0, 64, 74
2, 56263, Note_on_c, 0, 55, 0
2, 56269, Note_on_c, 0, 55, 67
2, 56286, Note_on_c, 0, 71, 0
2, 56296, Note_on_c, 0, 71, 81
2, 56392, Note_on_c, 0, 60, 0
2, 56392, Note_on_c, 0, 67, 0
2, 56393, Note_on_c, 0, 55, 0
2, 56395, Note_on_c, 0, 76, 0
2, 56396, Note_on_c, 0, 71, 0
2, 56396, Control_c, 0, 64, 0
2, 56417, Note_on_c, 0, 64, 0
2, 56429, Note_on_c, 0, 69, 93
2, 56429, Note_on_c, 0, 43, 76
2, 56486, Control_c, 0, 64, 127
2, 56494, Note_on_c, 0, 69, 0
2, 56677, Note_on_c, 0, 79, 93
2, 56679, Note_on_c, 0, 62, 73
2, 56680, Note_on_c, 0, 59, 74
2, 56688, Note_on_c, 0, 71, 66
2, 56805, Note_on_c, 0, 55, 62
2, 56924, Note_on_c, 0, 62, 0
2, 56931, Note_on_c, 0, 78, 97
2, 56931, Note_on_c, 0, 59, 0
2, 56935, Note_on_c, 0, 62, 79
2, 56936, Note_on_c, 0, 59, 74
2, 57047, Note_on_c, 0, 55, 0
2, 57057, Note_on_c, 0, 55, 61
2, 57168, Note_on_c, 0, 74, 90
2, 57185, Note_on_c, 0, 59, 0
2, 57185, Note_on_c, 0, 62, 0
2, 57189, Note_on_c, 0, 62, 86
2, 57189, Note_on_c, 0, 59, 75
2, 57254, Note_on_c, 0, 55, 0
2, 57261, Note_on_c, 0, 55, 72
2, 57389, Control_c, 0, 64, 0
2, 57389, Note_on_c, 0, 55, 0
2, 57389, Note_on_c, 0, 62, 0
2, 57389, Note_on_c, 0, 79, 0
2, 57389, Note_on_c, 0, 78, 0
2, 57389, Note_on_c, 0, 74, 0
2, 57390, Note_on_c, 0, 59, 0
2, 57408, Note_on_c, 0, 43, 0
2, 57408, Note_on_c, 0, 71, 0
2, 57424, Note_on_c, 0, 72, 83
2, 57426, Note_on_c, 0, 76, 90
2, 57434, Note_on_c, 0, 69, 83
2, 57441, Note_on_c, 0, 57, 83
2, 57444, Note_on_c, 0, 45, 78
2, 57484, Control_c, 0, 64, 127
2, 57538, Note_on_c, 0, 64, 79
2, 57676, Note_on_c, 0, 64, 0
2, 57680, Note_on_c, 0, 64, 64
2, 57687, Note_on_c, 0, 52, 62
2, 57799, Note_on_c, 0, 72, 0
2, 57807, Note_on_c, 0, 72, 73
2, 57807, Note_on_c, 0, 69, 0
2, 57810, Note_on_c, 0, 60, 72
2, 57813, Note_on_c, 0, 69, 61
2, 57822, Note_on_c, 0, 57, 0
2, 57830, Note_on_c, 0, 57, 62
2, 57922, Note_on_c, 0, 64, 0
2, 57930, Note_on_c, 0, 64, 59
2, 58037, Note_on_c, 0, 64, 0
2, 58042, Note_on_c, 0, 64, 72
2, 58068, Note_on_c, 0, 52, 0
2, 58073, Note_on_c, 0, 52, 59
2, 58183, Note_on_c, 0, 57, 0
2, 58183, Note_on_c, 0, 60, 0
2, 58183, Note_on_c, 0, 69, 0
2, 58183, Note_on_c, 0, 72, 0
2, 58188, Note_on_c, 0, 72, 70
2, 58188, Note_on_c, 0, 69, 63
2, 58188, Note_on_c, 0, 57, 63
2, 58189, Note_on_c, 0, 60, 74
2, 58306, Note_on_c, 0, 64, 0
2, 58317, Note_on_c, 0, 64, 74
2, 58410, Control_c, 0, 64, 0
2, 58411, Note_on_c, 0, 69, 0
2, 58411, Note_on_c, 0, 52, 0
2, 58411, Note_on_c, 0, 57, 0
2, 58411, Note_on_c, 0, 60, 0
2, 58411, Note_on_c, 0, 72, 0
2, 58412, Note_on_c, 0, 76, 0
2, 58421, Note_on_c, 0, 45, 0
2, 58429, Note_on_c, 0, 64, 0
2, 58432, Note_on_c, 0, 74, 90
2, 58439, Note_on_c, 0, 71, 78
2, 58444, Note_on_c, 0, 66, 78
2, 58445, Note_on_c, 0, 59, 78
2, 58446, Note_on_c, 0, 47, 81
2, 58498, Control_c, 0, 64, 127
2, 58506, Note_on_c, 0, 47, 0
2, 58560, Note_on_c, 0, 62, 76
2, 58675, Note_on_c, 0, 62, 0
2, 58681, Note_on_c, 0, 62, 72
2, 58684, Note_on_c, 0, 54, 71
2, 58805, Note_on_c, 0, 59, 0
2, 58805, Note_on_c, 0, 62, 0
2, 58805, Note_on_c, 0, 71, 0
2, 58813, Note_on_c, 0, 66, 0
2, 58814, Note_on_c, 0, 62, 79
2, 58814, Note_on_c, 0, 59, 74
2, 58815, Note_on_c, 0, 71, 76
2, 58817, Note_on_c, 0, 66, 65
2, 58913, Note_on_c, 0, 62, 0
2, 58924, Note_on_c, 0, 62, 74
2, 59059, Note_on_c, 0, 54, 0
2, 59059, Note_on_c, 0, 62, 0
2, 59063, Note_on_c, 0, 62, 85
2, 59069, Note_on_c, 0, 54, 64
2, 59182, Note_on_c, 0, 71, 0
2, 59189, Note_on_c, 0, 59, 0
2, 59189, Note_on_c, 0, 66, 0
2, 59190, Note_on_c, 0, 71, 79
2, 59194, Note_on_c, 0, 59, 70
2, 59200, Note_on_c, 0, 66, 76
2, 59304, Note_on_c, 0, 62, 0
2, 59315, Note_on_c, 0, 62, 76
2, 59384, Note_on_c, 0, 54, 0
2, 59384, Note_on_c, 0, 62, 0
2, 59384, Note_on_c, 0, 66, 0
2, 59384, Note_on_c, 0, 71, 0
2, 59385, Note_on_c, 0, 74, 0
2, 59385, Note_on_c, 0, 59, 0
2, 59385, Control_c, 0, 64, 0
2, 59427, Note_on_c, 0, 76, 100
2, 59434, Note_on_c, 0, 48, 90
2, 59434, Note_on_c, 0, 60, 89
2, 59435, Note_on_c, 0, 67, 87
2, 59438, Note_on_c, 0, 72, 87
2, 59465, Note_on_c, 0, 60, 0
2, 59470, Note_on_c, 0, 67, 0
2, 59520, Control_c, 0, 64, 127
2, 59563, Note_on_c, 0, 64, 82
2, 59642, Note_on_c, 0, 48, 0
2, 59643, Control_c, 0, 64, 0
2, 59685, Note_on_c, 0, 55, 71
2, 59686, Note_on_c, 0, 67, 86
2, 59719, Note_on_c, 0, 64, 0
2, 59719, Note_on_c, 0, 72, 0
2, 59729, Note_on_c, 0, 67, 0
2, 59735, Note_on_c, 0, 76, 0
2, 59737, Note_on_c, 0, 55, 0
2, 59802, Note_on_c, 0, 60, 81
2, 59803, Note_on_c, 0, 72, 85
2, 59806, Note_on_c, 0, 76, 80
2, 59831, Note_on_c, 0, 72, 0
2, 59832, Note_on_c, 0, 76, 0
2, 59832, Note_on_c, 0, 60, 0
2, 59915, Note_on_c, 0, 76, 92
2, 59932, Note_on_c, 0, 73, 89
2, 59937, Note_on_c, 0, 61, 92
2, 59938, Note_on_c, 0, 49, 90
2, 59950, Control_c, 0, 64, 127
2, 60064, Note_on_c, 0, 64, 91
2, 60157, Note_on_c, 0, 57, 82
2, 60181, Note_on_c, 0, 67, 88
2, 60213, Note_on_c, 0, 64, 0
2, 60215, Control_c, 0, 64, 0
2, 60216, Note_on_c, 0, 76, 0
2, 60216, Note_on_c, 0, 73, 0
2, 60222, Note_on_c, 0, 49, 0
2, 60230, Note_on_c, 0, 67, 0
2, 60280, Note_on_c, 0, 61, 0
2, 60281, Note_on_c, 0, 76, 96
2, 60284, Note_on_c, 0, 73, 86
2, 60284, Note_on_c, 0, 61, 84
2, 60316, Note_on_c, 0, 76, 0
2, 60318, Note_on_c, 0, 57, 0
2, 60334, Note_on_c, 0, 61, 0
2, 60341, Note_on_c, 0, 73, 0
2, 60397, Note_on_c, 0, 78, 100
2, 60402, Note_on_c, 0, 74, 90
2, 60407, Note_on_c, 0, 62, 97
2, 60407, Note_on_c, 0, 66, 87
2, 60409, Note_on_c, 0, 57, 94
2, 60412, Note_on_c, 0, 50, 91
2, 60422, Note_on_c, 0, 68, 78
2, 60426, Control_c, 0, 64, 127
2, 60526, Note_on_c, 0, 57, 0
2, 60533, Note_on_c, 0, 62, 0
2, 60535, Note_on_c, 0, 57, 94
2, 60537, Note_on_c, 0, 62, 89
2, 60648, Note_on_c, 0, 50, 0
2, 60648, Note_on_c, 0, 62, 0
2, 60651, Control_c, 0, 64, 0
2, 60656, Note_on_c, 0, 57, 0
2, 60658, Note_on_c, 0, 62, 90
2, 60659, Note_on_c, 0, 50, 87
2, 60661, Note_on_c, 0, 57, 103
2, 60670, Note_on_c, 0, 68, 0
2, 60685, Note_on_c, 0, 78, 0
2, 60691, Note_on_c, 0, 62, 0
2, 60691, Note_on_c, 0, 50, 0
2, 60695, Note_on_c, 0, 66, 0
2, 60695, Note_on_c, 0, 74, 0
2, 60725, Note_on_c, 0, 57, 0
2, 60912, Note_on_c, 0, 79, 110
2, 60915, Note_on_c, 0, 67, 107
2, 60933, Control_c, 0, 64, 127
2, 61158, Note_on_c, 0, 50, 103
2, 61158, Note_on_c, 0, 38, 95
2, 61280, Note_on_c, 0, 81, 98
2, 61282, Note_on_c, 0, 69, 92
2, 61345, Control_c, 0, 64, 0
2, 61347, Note_on_c, 0, 79, 0
2, 61347, Note_on_c, 0, 50, 0
2, 61348, Note_on_c, 0, 81, 0
2, 61349, Note_on_c, 0, 69, 0
2, 61349, Note_on_c, 0, 38, 0
2, 61355, Note_on_c, 0, 67, 0
2, 61397, Note_on_c, 0, 79, 91
2, 61397, Note_on_c, 0, 82, 104
2, 61397, Note_on_c, 0, 31, 97
2, 61398, Note_on_c, 0, 70, 103
2, 61398, Note_on_c, 0, 43, 98
2, 61403, Note_on_c, 0, 74, 96
2, 61436, Note_on_c, 0, 43, 0
2, 61447, Control_c, 0, 64, 127
2, 61544, Note_on_c, 0, 43, 80
2, 61657, Note_on_c, 0, 58, 88
2, 61661, Note_on_c, 0, 50, 67
2, 61762, Note_on_c, 0, 43, 0
2, 61768, Note_on_c, 0, 43, 77
2, 61900, Note_on_c, 0, 50, 0
2, 61903, Note_on_c, 0, 81, 106
2, 61904, Note_on_c, 0, 69, 98
2, 61905, Note_on_c, 0, 50, 85
2, 62023, Note_on_c, 0, 43, 0
2, 62034, Note_on_c, 0, 43, 75
2, 62146, Note_on_c, 0, 58, 0
2, 62154, Note_on_c, 0, 31, 0
2, 62154, Note_on_c, 0, 43, 0
2, 62157, Note_on_c, 0, 58, 93
2, 62164, Note_on_c, 0, 43, 65
2, 62165, Note_on_c, 0, 31, 64
2, 62261, Note_on_c, 0, 31, 0
2, 62261, Note_on_c, 0, 43, 0
2, 62268, Note_on_c, 0, 77, 96
2, 62269, Note_on_c, 0, 43, 80
2, 62270, Note_on_c, 0, 31, 80
2, 62271, Note_on_c, 0, 65, 92
2, 62281, Note_on_c, 0, 67, 66
2, 62328, Note_on_c, 0, 82, 0
2, 62329, Note_on_c, 0, 31, 0
2, 62329, Note_on_c, 0, 65, 0
2, 62329, Note_on_c, 0, 69, 0
2, 62329, Note_on_c, 0, 81, 0
2, 62330, Note_on_c, 0, 58, 0
2, 62330, Note_on_c, 0, 50, 0
2, 62330, Note_on_c, 0, 77, 0
2, 62330, Note_on_c, 0, 43, 0
2, 62331, Note_on_c, 0, 70, 0
2, 62334, Control_c, 0, 64, 0
2, 62338, Note_on_c, 0, 67, 0
2, 62346, Note_on_c, 0, 74, 0
2, 62346, Note_on_c, 0, 79, 0
2, 62395, Note_on_c, 0, 65, 79
2, 62395, Note_on_c, 0, 74, 101
2, 62396, Note_on_c, 0, 62, 95
2, 62397, Note_on_c, 0, 41, 94
2, 62401, Note_on_c, 0, 29, 96
2, 62469, Control_c, 0, 64, 127
2, 62538, Note_on_c, 0, 41, 0
2, 62544, Note_on_c, 0, 41, 75
2, 62645, Note_on_c, 0, 29, 0
2, 62649, Note_on_c, 0, 57, 83
2, 62650, Note_on_c, 0, 38, 74
2, 62651, Note_on_c, 0, 29, 68
2, 62768, Note_on_c, 0, 41, 0
2, 62773, Note_on_c, 0, 41, 73
2, 62891, Note_on_c, 0, 62, 0
2, 62891, Note_on_c, 0, 74, 0
2, 62898, Note_on_c, 0, 74, 97
2, 62899, Note_on_c, 0, 41, 0
2, 62900, Note_on_c, 0, 62, 97
2, 62903, Note_on_c, 0, 50, 88
2, 62906, Note_on_c, 0, 41, 74
2, 63014, Note_on_c, 0, 29, 0
2, 63014, Note_on_c, 0, 41, 0
2, 63022, Note_on_c, 0, 41, 77
2, 63024, Note_on_c, 0, 29, 76
2, 63137, Note_on_c, 0, 50, 0
2, 63144, Note_on_c, 0, 38, 0
2, 63144, Note_on_c, 0, 57, 0
2, 63148, Note_on_c, 0, 50, 82
2, 63148, Note_on_c, 0, 69, 71
2, 63148, Note_on_c, 0, 57, 80
2, 63244, Note_on_c, 0, 41, 0
2, 63251, Note_on_c, 0, 41, 86
2, 63260, Note_on_c, 0, 65, 0
2, 63263, Note_on_c, 0, 77, 99
2, 63264, Note_on_c, 0, 65, 90
2, 63354, Note_on_c, 0, 41, 0
2, 63354, Note_on_c, 0, 29, 0
2, 63355, Note_on_c, 0, 65, 0
2, 63355, Note_on_c, 0, 74, 0
2, 63355, Note_on_c, 0, 77, 0
2, 63355, Note_on_c, 0, 62, 0
2, 63355, Note_on_c, 0, 57, 0
2, 63359, Control_c, 0, 64, 0
2, 63367, Note_on_c, 0, 50, 0
2, 63367, Note_on_c, 0, 69, 0
2, 63385, Note_on_c, 0, 79, 107
2, 63388, Note_on_c, 0, 27, 96
2, 63389, Note_on_c, 0, 67, 97
2, 63392, Note_on_c, 0, 70, 93
2, 63394, Note_on_c, 0, 75, 88
2, 63452, Control_c, 0, 64, 127
2, 63498, Note_on_c, 0, 27, 0
2, 63502, Note_on_c, 0, 27, 78
2, 63503, Note_on_c, 0, 39, 72
2, 63642, Note_on_c, 0, 55, 83
2, 63647, Note_on_c, 0, 63, 77
2, 63647, Note_on_c, 0, 51, 79
2, 63751, Note_on_c, 0, 70, 0
2, 63755, Note_on_c, 0, 46, 84
2, 63755, Note_on_c, 0, 82, 93
2, 63757, Note_on_c, 0, 70, 90
2, 63845, Note_on_c, 0, 67, 0
2, 63846, Note_on_c, 0, 39, 0
2, 63846, Note_on_c, 0, 79, 0
2, 63846, Note_on_c, 0, 46, 0
2, 63846, Note_on_c, 0, 63, 0
2, 63846, Note_on_c, 0, 55, 0
2, 63847, Note_on_c, 0, 51, 0
2, 63847, Note_on_c, 0, 75, 0
2, 63847, Note_on_c, 0, 70, 0
2, 63847, Note_on_c, 0, 82, 0
2, 63850, Control_c, 0, 64, 0
2, 63859, Note_on_c, 0, 27, 0
2, 63876, Note_on_c, 0, 81, 105
2, 63879, Note_on_c, 0, 29, 94
2, 63880, Note_on_c, 0, 77, 89
2, 63881, Note_on_c, 0, 72, 96
2, 63882, Note_on_c, 0, 69, 100
2, 63917, Note_on_c, 0, 72, 0
2, 63943, Control_c, 0, 64, 127
2, 63992, Note_on_c, 0, 41, 44
2, 64132, Note_on_c, 0, 53, 84
2, 64132, Note_on_c, 0, 57, 81
2, 64151, Note_on_c, 0, 81, 0
2, 64235, Note_on_c, 0, 48, 93
2, 64235, Note_on_c, 0, 77, 0
2, 64245, Note_on_c, 0, 77, 86
2, 64246, Note_on_c, 0, 65, 80
2, 64326, Note_on_c, 0, 57, 0
2, 64328, Note_on_c, 0, 48, 0
2, 64329, Note_on_c, 0, 65, 0
2, 64329, Control_c, 0, 64, 0
2, 64330, Note_on_c, 0, 53, 0
2, 64330, Note_on_c, 0, 77, 0
2, 64335, Note_on_c, 0, 29, 0
2, 64350, Note_on_c, 0, 41, 0
2, 64350, Note_on_c, 0, 69, 0
2, 64370, Note_on_c, 0, 74, 103
2, 64376, Note_on_c, 0, 62, 95
2, 64377, Note_on_c, 0, 70, 82
2, 64377, Note_on_c, 0, 34, 87
2, 64435, Control_c, 0, 64, 127
2, 64505, Note_on_c, 0, 58, 72
2, 64515, Note_on_c, 0, 46, 69
2, 64619, Note_on_c, 0, 58, 0
2, 64619, Note_on_c, 0, 62, 0
2, 64628, Note_on_c, 0, 58, 90
2, 64630, Note_on_c, 0, 62, 77
2, 64640, Note_on_c, 0, 50, 71
2, 64834, Note_on_c, 0, 50, 0
2, 64834, Note_on_c, 0, 34, 0
2, 64835, Note_on_c, 0, 46, 0
2, 64837, Control_c, 0, 64, 0
2, 64857, Note_on_c, 0, 58, 0
2, 64857, Note_on_c, 0, 62, 0
2, 64861, Note_on_c, 0, 35, 90
2, 64903, Control_c, 0, 64, 127
2, 64968, Note_on_c, 0, 47, 79
2, 65103, Note_on_c, 0, 74, 0
2, 65111, Note_on_c, 0, 70, 0
2, 65111, Note_on_c, 0, 74, 98
2, 65113, Note_on_c, 0, 62, 102
2, 65114, Note_on_c, 0, 59, 86
2, 65114, Note_on_c, 0, 50, 84
2, 65116, Note_on_c, 0, 71, 74
2, 65180, Note_on_c, 0, 47, 0
2, 65189, Note_on_c, 0, 47, 80
2, 65315, Note_on_c, 0, 62, 0
2, 65315, Note_on_c, 0, 74, 0
2, 65316, Note_on_c, 0, 50, 0
2, 65317, Note_on_c, 0, 59, 0
2, 65317, Control_c, 0, 64, 0
2, 65318, Note_on_c, 0, 35, 0
2, 65333, Note_on_c, 0, 71, 0
2, 65341, Note_on_c, 0, 47, 0
2, 65351, Note_on_c, 0, 36, 86
2, 65352, Note_on_c, 0, 60, 94
2, 65353, Note_on_c, 0, 72, 95
2, 65354, Note_on_c, 0, 63, 89
2, 65383, Note_on_c, 0, 60, 0
2, 65387, Control_c, 0, 64, 127
2, 65433, Note_on_c, 0, 36, 0
2, 65433, Note_on_c, 0, 63, 0
2, 65433, Note_on_c, 0, 72, 0
2, 65437, Note_on_c, 0, 48, 86
2, 65437, Note_on_c, 0, 60, 90
2, 65438, Note_on_c, 0, 72, 86
2, 65439, Note_on_c, 0, 36, 82
2, 65439, Note_on_c, 0, 63, 83
2, 65448, Note_on_c, 0, 48, 0
2, 65510, Note_on_c, 0, 60, 0
2, 65510, Note_on_c, 0, 63, 0
2, 65510, Note_on_c, 0, 72, 0
2, 65516, Note_on_c, 0, 72, 85
2, 65516, Note_on_c, 0, 63, 91
2, 65520, Note_on_c, 0, 60, 82
2, 65550, Control_c, 0, 64, 0
2, 65583, Note_on_c, 0, 55, 86
2, 65587, Note_on_c, 0, 60, 0
2, 65587, Note_on_c, 0, 63, 0
2, 65587, Note_on_c, 0, 72, 0
2, 65592, Note_on_c, 0, 60, 91
2, 65592, Note_on_c, 0, 67, 73
2, 65593, Note_on_c, 0, 63, 83
2, 65596, Note_on_c, 0, 51, 81
2, 65598, Note_on_c, 0, 72, 83
2, 65600, Note_on_c, 0, 70, 76
2, 65610, Note_on_c, 0, 70, 0
2, 65617, Note_on_c, 0, 36, 0
2, 65624, Note_on_c, 0, 60, 0
2, 65625, Note_on_c, 0, 55, 0
2, 65627, Note_on_c, 0, 63, 0
2, 65631, Note_on_c, 0, 51, 0
2, 65656, Note_on_c, 0, 67, 0
2, 65656, Control_c, 0, 64, 127
2, 65687, Note_on_c, 0, 72, 0
2, 65690, Note_on_c, 0, 63, 89
2, 65691, Note_on_c, 0, 60, 84
2, 65691, Note_on_c, 0, 72, 87
2, 65698, Note_on_c, 0, 48, 75
2, 65707, Note_on_c, 0, 67, 54
2, 65763, Note_on_c, 0, 60, 0
2, 65771, Note_on_c, 0, 63, 0
2, 65771, Note_on_c, 0, 72, 0
2, 65775, Note_on_c, 0, 60, 84
2, 65775, Note_on_c, 0, 72, 89
2, 65775, Note_on_c, 0, 63, 82
2, 65814, Control_c, 0, 64, 0
2, 65840, Note_on_c, 0, 60, 0
2, 65840, Note_on_c, 0, 63, 0
2, 65848, Note_on_c, 0, 48, 0
2, 65848, Note_on_c, 0, 72, 0
2, 65851, Note_on_c, 0, 60, 90
2, 65852, Note_on_c, 0, 63, 97
2, 65852, Note_on_c, 0, 48, 92
2, 65853, Note_on_c, 0, 72, 83
2, 65871, Note_on_c, 0, 67, 0
2, 65883, Note_on_c, 0, 48, 0
2, 65884, Note_on_c, 0, 60, 0
2, 65890, Note_on_c, 0, 63, 0
2, 65975, Note_on_c, 0, 36, 73
2, 66001, Note_on_c, 0, 36, 0
2, 66009, Note_on_c, 0, 72, 0
2, 66013, Note_on_c, 0, 72, 88
2, 66014, Note_on_c, 0, 63, 86
2, 66015, Note_on_c, 0, 60, 81
2, 66071, Note_on_c, 0, 63, 0
2, 66086, Note_on_c, 0, 60, 0
2, 66086, Note_on_c, 0, 72, 0
2, 66095, Note_on_c, 0, 60, 95
2, 66097, Note_on_c, 0, 63, 90
2, 66097, Note_on_c, 0, 72, 96
2, 66098, Note_on_c, 0, 67, 71
2, 66104, Note_on_c, 0, 55, 90
2, 66114, Note_on_c, 0, 51, 76
2, 66129, Note_on_c, 0, 60, 0
2, 66136, Note_on_c, 0, 55, 0
2, 66209, Note_on_c, 0, 51, 0
2, 66226, Note_on_c, 0, 36, 89
2, 66250, Note_on_c, 0, 74, 92
2, 66251, Note_on_c, 0, 62, 98
2, 66263, Note_on_c, 0, 72, 0
2, 66270, Note_on_c, 0, 63, 0
2, 66277, Note_on_c, 0, 62, 0
2, 66282, Note_on_c, 0, 74, 0
2, 66282, Note_on_c, 0, 36, 0
2, 66286, Note_on_c, 0, 67, 0
2, 66341, Note_on_c, 0, 72, 102
2, 66344, Note_on_c, 0, 60, 97
2, 66346, Note_on_c, 0, 69, 93
2, 66347, Note_on_c, 0, 65, 83
2, 66348, Note_on_c, 0, 38, 94
2, 66393, Note_on_c, 0, 60, 0
2, 66408, Note_on_c, 0, 65, 0
2, 66408, Control_c, 0, 64, 127
2, 66447, Note_on_c, 0, 38, 0
2, 66457, Note_on_c, 0, 38, 76
2, 66459, Note_on_c, 0, 50, 85
2, 66591, Note_on_c, 0, 53, 88
2, 66593, Note_on_c, 0, 57, 92
2, 66596, Note_on_c, 0, 65, 80
2, 66596, Note_on_c, 0, 70, 95
2, 66723, Note_on_c, 0, 38, 0
2, 66728, Note_on_c, 0, 38, 81
2, 66765, Note_on_c, 0, 72, 0
2, 66766, Note_on_c, 0, 53, 0
2, 66766, Note_on_c, 0, 70, 0
2, 66766, Note_on_c, 0, 57, 0
2, 66767, Note_on_c, 0, 50, 0
2, 66768, Control_c, 0, 64, 0
2, 66769, Note_on_c, 0, 69, 0
2, 66776, Note_on_c, 0, 77, 97
2, 66777, Note_on_c, 0, 65, 0
2, 66780, Note_on_c, 0, 69, 48
2, 66808, Note_on_c, 0, 38, 0
2, 66845, Note_on_c, 0, 50, 92
2, 66846, Note_on_c, 0, 74, 100
2, 66848, Note_on_c, 0, 38, 84
2, 66869, Control_c, 0, 64, 127
2, 66954, Note_on_c, 0, 38, 0
2, 66963, Note_on_c, 0, 38, 80
2, 67077, Note_on_c, 0, 38, 0
2, 67087, Note_on_c, 0, 38, 82
2, 67088, Note_on_c, 0, 57, 98
2, 67095, Note_on_c, 0, 53, 89
2, 67099, Note_on_c, 0, 67, 90
2, 67200, Note_on_c, 0, 38, 0
2, 67200, Note_on_c, 0, 77, 0
2, 67210, Note_on_c, 0, 38, 81
2, 67299, Note_on_c, 0, 69, 0
2, 67300, Control_c, 0, 64, 0
2, 67300, Note_on_c, 0, 53, 0
2, 67300, Note_on_c, 0, 74, 0
2, 67301, Note_on_c, 0, 57, 0
2, 67307, Note_on_c, 0, 50, 0
2, 67330, Note_on_c, 0, 38, 0
2, 67330, Note_on_c, 0, 67, 0
2, 67334, Note_on_c, 0, 39, 88
2, 67335, Note_on_c, 0, 67, 99
2, 67335, Note_on_c, 0, 79, 107
2, 67341, Note_on_c, 0, 73, 77
2, 67342, Note_on_c, 0, 70, 94
2, 67376, Control_c, 0, 64, 127
2, 67415, Note_on_c, 0, 79, 0
2, 67422, Note_on_c, 0, 67, 0
2, 67422, Note_on_c, 0, 70, 0
2, 67425, Note_on_c, 0, 79, 96
2, 67427, Note_on_c, 0, 67, 90
2, 67428, Note_on_c, 0, 70, 83
2, 67444, Note_on_c, 0, 51, 82
2, 67507, Note_on_c, 0, 67, 0
2, 67507, Note_on_c, 0, 70, 0
2, 67507, Note_on_c, 0, 79, 0
2, 67516, Note_on_c, 0, 79, 93
2, 67517, Note_on_c, 0, 70, 84
2, 67518, Note_on_c, 0, 67, 93
2, 67576, Note_on_c, 0, 70, 0
2, 67578, Note_on_c, 0, 58, 97
2, 67584, Note_on_c, 0, 67, 0
2, 67584, Note_on_c, 0, 79, 0
2, 67587, Note_on_c, 0, 70, 89
2, 67587, Note_on_c, 0, 79, 93
2, 67588, Note_on_c, 0, 55, 83
2, 67589, Note_on_c, 0, 67, 88
2, 67706, Note_on_c, 0, 51, 0
2, 67709, Note_on_c, 0, 63, 70
2, 67711, Note_on_c, 0, 51, 67
2, 67752, Note_on_c, 0, 79, 0
2, 67760, Note_on_c, 0, 67, 0
2, 67760, Note_on_c, 0, 70, 0
2, 67764, Note_on_c, 0, 79, 99
2, 67765, Note_on_c, 0, 67, 91
2, 67770, Note_on_c, 0, 70, 75
2, 67801, Note_on_c, 0, 55, 0
2, 67801, Control_c, 0, 64, 0
2, 67802, Note_on_c, 0, 51, 0
2, 67802, Note_on_c, 0, 73, 0
2, 67802, Note_on_c, 0, 63, 0
2, 67814, Note_on_c, 0, 39, 0
2, 67814, Note_on_c, 0, 58, 0
2, 67822, Note_on_c, 0, 79, 0
2, 67826, Note_on_c, 0, 79, 99
2, 67827, Note_on_c, 0, 40, 93
2, 67829, Note_on_c, 0, 67, 0
2, 67829, Note_on_c, 0, 70, 0
2, 67833, Note_on_c, 0, 70, 104
2, 67833, Note_on_c, 0, 67, 96
2, 67875, Control_c, 0, 64, 127
2, 67983, Note_on_c, 0, 70, 0
2, 67986, Note_on_c, 0, 74, 86
2, 67989, Note_on_c, 0, 52, 43
2, 67994, Note_on_c, 0, 70, 55
2, 68067, Note_on_c, 0, 58, 99
2, 68067, Note_on_c, 0, 52, 0
2, 68067, Note_on_c, 0, 67, 0
2, 68067, Note_on_c, 0, 79, 0
2, 68071, Note_on_c, 0, 79, 105
2, 68071, Note_on_c, 0, 52, 71
2, 68072, Note_on_c, 0, 55, 81
2, 68072, Note_on_c, 0, 67, 86
2, 68190, Note_on_c, 0, 52, 0
2, 68199, Note_on_c, 0, 52, 76
2, 68221, Note_on_c, 0, 70, 0
2, 68227, Note_on_c, 0, 82, 99
2, 68231, Note_on_c, 0, 70, 88
2, 68295, Note_on_c, 0, 58, 0
2, 68295, Note_on_c, 0, 67, 0
2, 68295, Note_on_c, 0, 55, 0
2, 68295, Note_on_c, 0, 82, 0
2, 68295, Control_c, 0, 64, 0
2, 68295, Note_on_c, 0, 79, 0
2, 68296, Note_on_c, 0, 70, 0
2, 68305, Note_on_c, 0, 40, 0
2, 68313, Note_on_c, 0, 52, 0
2, 68313, Note_on_c, 0, 74, 0
2, 68313, Note_on_c, 0, 81, 106
2, 68317, Note_on_c, 0, 69, 99
2, 68317, Note_on_c, 0, 74, 99
2, 68318, Note_on_c, 0, 42, 97
2, 68319, Note_on_c, 0, 78, 91
2, 68375, Note_on_c, 0, 74, 0
2, 68382, Control_c, 0, 64, 127
2, 68447, Note_on_c, 0, 50, 81
2, 68573, Note_on_c, 0, 54, 84
2, 68576, Note_on_c, 0, 57, 89
2, 68659, Note_on_c, 0, 50, 0
2, 68663, Note_on_c, 0, 50, 84
2, 68768, Note_on_c, 0, 57, 0
2, 68768, Note_on_c, 0, 81, 0
2, 68768, Note_on_c, 0, 69, 0
2, 68768, Note_on_c, 0, 50, 0
2, 68768, Note_on_c, 0, 78, 0
2, 68768, Note_on_c, 0, 54, 0
2, 68770, Control_c, 0, 64, 0
2, 68782, Note_on_c, 0, 42, 0
2, 68810, Note_on_c, 0, 38, 92
2, 68811, Note_on_c, 0, 79, 105
2, 68816, Note_on_c, 0, 67, 99
2, 68817, Note_on_c, 0, 74, 89
2, 68823, Note_on_c, 0, 69, 92
2, 68851, Control_c, 0, 64, 127
2, 68916, Note_on_c, 0, 45, 94
2, 69043, Note_on_c, 0, 38, 0
2, 69048, Note_on_c, 0, 38, 97
2, 69052, Note_on_c, 0, 26, 94
2, 69054, Note_on_c, 0, 84, 88
2, 69057, Note_on_c, 0, 72, 87
2, 69060, Note_on_c, 0, 81, 91
2, 69066, Note_on_c, 0, 84, 0
2, 69181, Note_on_c, 0, 69, 0
2, 69181, Note_on_c, 0, 81, 0
2, 69186, Note_on_c, 0, 81, 93
2, 69192, Note_on_c, 0, 69, 84
2, 69247, Note_on_c, 0, 38, 0
2, 69247, Note_on_c, 0, 79, 0
2, 69247, Note_on_c, 0, 45, 0
2, 69247, Note_on_c, 0, 72, 0
2, 69247, Note_on_c, 0, 81, 0
2, 69247, Control_c, 0, 64, 0
2, 69248, Note_on_c, 0, 69, 0
2, 69250, Note_on_c, 0, 26, 0
2, 69258, Note_on_c, 0, 67, 0
2, 69258, Note_on_c, 0, 74, 0
2, 69307, Note_on_c, 0, 79, 92
2, 69308, Note_on_c, 0, 82, 105
2, 69309, Note_on_c, 0, 70, 104
2, 69311, Note_on_c, 0, 43, 99
2, 69314, Note_on_c, 0, 31, 92
2, 69315, Note_on_c, 0, 74, 92
2, 69319, Control_c, 0, 64, 127
2, 69442, Note_on_c, 0, 43, 0
2, 69452, Note_on_c, 0, 43, 81
2, 69565, Note_on_c, 0, 58, 93
2, 69596, Note_on_c, 0, 50, 54
2, 69688, Note_on_c, 0, 43, 0
2, 69698, Note_on_c, 0, 43, 82
2, 69811, Note_on_c, 0, 50, 0
2, 69816, Note_on_c, 0, 81, 103
2, 69816, Note_on_c, 0, 50, 84
2, 69820, Note_on_c, 0, 69, 92
2, 69934, Note_on_c, 0, 43, 0
2, 69945, Note_on_c, 0, 43, 81
2, 70056, Note_on_c, 0, 50, 0
2, 70056, Note_on_c, 0, 58, 0
2, 70067, Note_on_c, 0, 50, 85
2, 70068, Note_on_c, 0, 58, 89
2, 70141, Note_on_c, 0, 43, 0
2, 70152, Note_on_c, 0, 43, 86
2, 70183, Note_on_c, 0, 77, 91
2, 70184, Note_on_c, 0, 65, 89
2, 70245, Control_c, 0, 64, 0
2, 70248, Note_on_c, 0, 50, 0
2, 70248, Note_on_c, 0, 74, 0
2, 70249, Note_on_c, 0, 79, 0
2, 70249, Note_on_c, 0, 58, 0
2, 70249, Note_on_c, 0, 82, 0
2, 70249, Note_on_c, 0, 31, 0
2, 70249, Note_on_c, 0, 69, 0
2, 70249, Note_on_c, 0, 65, 0
2, 70250, Note_on_c, 0, 81, 0
2, 70250, Note_on_c, 0, 70, 0
2, 70251, Note_on_c, 0, 77, 0
2, 70272, Note_on_c, 0, 43, 0
2, 70305, Note_on_c, 0, 74, 101
2, 70306, Note_on_c, 0, 62, 96
2, 70308, Note_on_c, 0, 41, 95
2, 70312, Note_on_c, 0, 29, 97
2, 70313, Note_on_c, 0, 69, 84
2, 70348, Control_c, 0, 64, 127
2, 70440, Note_on_c, 0, 41, 0
2, 70446, Note_on_c, 0, 41, 76
2, 70574, Note_on_c, 0, 57, 84
2, 70579, Note_on_c, 0, 50, 70
2, 70686, Note_on_c, 0, 41, 0
2, 70691, Note_on_c, 0, 41, 77
2, 70817, Note_on_c, 0, 62, 0
2, 70817, Note_on_c, 0, 74, 0
2, 70824, Note_on_c, 0, 50, 0
2, 70826, Note_on_c, 0, 74, 97
2, 70827, Note_on_c, 0, 62, 93
2, 70831, Note_on_c, 0, 50, 86
2, 70940, Note_on_c, 0, 41, 0
2, 70947, Note_on_c, 0, 29, 0
2, 70950, Note_on_c, 0, 41, 72
2, 70953, Note_on_c, 0, 29, 73
2, 71063, Note_on_c, 0, 50, 0
2, 71070, Note_on_c, 0, 57, 0
2, 71070, Note_on_c, 0, 69, 0
2, 71074, Note_on_c, 0, 50, 80
2, 71076, Note_on_c, 0, 57, 86
2, 71079, Note_on_c, 0, 69, 69
2, 71105, Note_on_c, 0, 67, 44
2, 71105, Note_on_c, 0, 55, 45
2, 71109, Note_on_c, 0, 67, 0
2, 71116, Note_on_c, 0, 55, 0
2, 71170, Note_on_c, 0, 41, 0
2, 71179, Note_on_c, 0, 41, 89
2, 71189, Note_on_c, 0, 65, 86
2, 71189, Note_on_c, 0, 77, 98
2, 71272, Note_on_c, 0, 41, 0
2, 71272, Note_on_c, 0, 29, 0
2, 71272, Note_on_c, 0, 74, 0
2, 71272, Note_on_c, 0, 57, 0
2, 71273, Note_on_c, 0, 65, 0
2, 71273, Note_on_c, 0, 77, 0
2, 71281, Control_c, 0, 64, 0
2, 71285, Note_on_c, 0, 50, 0
2, 71285, Note_on_c, 0, 62, 0
2, 71293, Note_on_c, 0, 69, 0
2, 71313, Note_on_c, 0, 79, 105
2, 71317, Note_on_c, 0, 67, 97
2, 71320, Note_on_c, 0, 27, 96
2, 71320, Note_on_c, 0, 39, 91
2, 71320, Note_on_c, 0, 70, 93
2, 71321, Note_on_c, 0, 75, 86
2, 71354, Control_c, 0, 64, 127
2, 71569, Note_on_c, 0, 55, 90
2, 71570, Note_on_c, 0, 51, 83
2, 71675, Note_on_c, 0, 46, 89
2, 71677, Note_on_c, 0, 70, 0
2, 71680, Note_on_c, 0, 82, 97
2, 71682, Note_on_c, 0, 70, 90
2, 71766, Note_on_c, 0, 46, 0
2, 71767, Note_on_c, 0, 79, 0
2, 71767, Note_on_c, 0, 67, 0
2, 71767, Note_on_c, 0, 55, 0
2, 71767, Note_on_c, 0, 51, 0
2, 71767, Note_on_c, 0, 70, 0
2, 71767, Note_on_c, 0, 82, 0
2, 71768, Note_on_c, 0, 75, 0
2, 71769, Note_on_c, 0, 27, 0
2, 71770, Control_c, 0, 64, 0
2, 71777, Note_on_c, 0, 39, 0
2, 71797, Note_on_c, 0, 81, 107
2, 71803, Note_on_c, 0, 29, 101
2, 71803, Note_on_c, 0, 77, 89
2, 71804, Note_on_c, 0, 72, 94
2, 71804, Note_on_c, 0, 69, 99
2, 71846, Control_c, 0, 64, 127
2, 71906, Note_on_c, 0, 41, 51
2, 72049, Note_on_c, 0, 53, 94
2, 72050, Note_on_c, 0, 57, 92
2, 72161, Note_on_c, 0, 69, 0
2, 72161, Note_on_c, 0, 77, 0
2, 72167, Note_on_c, 0, 69, 76
2, 72168, Note_on_c, 0, 65, 88
2, 72170, Note_on_c, 0, 47, 77
2, 72171, Note_on_c, 0, 77, 92
2, 72172, Note_on_c, 0, 48, 82
2, 72233, Note_on_c, 0, 41, 0
2, 72234, Note_on_c, 0, 57, 0
2, 72234, Note_on_c, 0, 69, 0
2, 72235, Note_on_c, 0, 53, 0
2, 72235, Note_on_c, 0, 65, 0
2, 72236, Note_on_c, 0, 81, 0
2, 72237, Note_on_c, 0, 77, 0
2, 72238, Note_on_c, 0, 72, 0
2, 72240, Control_c, 0, 64, 0
2, 72245, Note_on_c, 0, 29, 0
2, 72245, Note_on_c, 0, 47, 0
2, 72245, Note_on_c, 0, 48, 0
2, 72289, Note_on_c, 0, 86, 107
2, 72292, Note_on_c, 0, 34, 90
2, 72295, Note_on_c, 0, 77, 95
2, 72296, Note_on_c, 0, 74, 102
2, 72296, Note_on_c, 0, 82, 94
2, 72307, Control_c, 0, 64, 127
2, 72533, Note_on_c, 0, 58, 93
2, 72542, Note_on_c, 0, 53, 64
2, 72542, Note_on_c, 0, 50, 75
2, 72752, Note_on_c, 0, 53, 0
2, 72755, Note_on_c, 0, 82, 0
2, 72756, Note_on_c, 0, 50, 0
2, 72756, Control_c, 0, 64, 0
2, 72756, Note_on_c, 0, 58, 0
2, 72756, Note_on_c, 0, 77, 0
2, 72758, Note_on_c, 0, 74, 0
2, 72768, Note_on_c, 0, 34, 0
2, 72779, Note_on_c, 0, 35, 90
2, 72821, Control_c, 0, 64, 127
2, 72886, Note_on_c, 0, 47, 86
2, 73021, Note_on_c, 0, 86, 0
2, 73032, Note_on_c, 0, 59, 90
2, 73032, Note_on_c, 0, 86, 104
2, 73033, Note_on_c, 0, 50, 92
2, 73033, Note_on_c, 0, 74, 100
2, 73113, Note_on_c, 0, 47, 0
2, 73119, Note_on_c, 0, 47, 91
2, 73224, Note_on_c, 0, 86, 0
2, 73224, Note_on_c, 0, 35, 0
2, 73225, Note_on_c, 0, 74, 0
2, 73225, Note_on_c, 0, 47, 0
2, 73225, Note_on_c, 0, 59, 0
2, 73225, Note_on_c, 0, 50, 0
2, 73228, Control_c, 0, 64, 0
2, 73276, Note_on_c, 0, 84, 104
2, 73277, Note_on_c, 0, 72, 100
2, 73277, Note_on_c, 0, 36, 98
2, 73278, Note_on_c, 0, 48, 100
2, 73297, Control_c, 0, 64, 127
2, 73351, Note_on_c, 0, 72, 0
2, 73351, Note_on_c, 0, 84, 0
2, 73357, Note_on_c, 0, 72, 92
2, 73357, Note_on_c, 0, 84, 106
2, 73436, Note_on_c, 0, 84, 0
2, 73440, Note_on_c, 0, 84, 87
2, 73492, Note_on_c, 0, 84, 0
2, 73492, Note_on_c, 0, 72, 0
2, 73496, Control_c, 0, 64, 0
2, 73497, Note_on_c, 0, 36, 0
2, 73509, Note_on_c, 0, 63, 94
2, 73510, Note_on_c, 0, 60, 70
2, 73511, Note_on_c, 0, 55, 82
2, 73512, Note_on_c, 0, 48, 0
2, 73515, Note_on_c, 0, 70, 97
2, 73516, Note_on_c, 0, 82, 94
2, 73543, Control_c, 0, 64, 127
2, 73589, Note_on_c, 0, 70, 0
2, 73589, Note_on_c, 0, 82, 0
2, 73595, Note_on_c, 0, 82, 94
2, 73595, Note_on_c, 0, 70, 73
2, 73666, Note_on_c, 0, 60, 0
2, 73670, Note_on_c, 0, 84, 91
2, 73673, Note_on_c, 0, 70, 0
2, 73676, Note_on_c, 0, 82, 0
2, 73677, Note_on_c, 0, 63, 0
2, 73678, Control_c, 0, 64, 0
2, 73681, Note_on_c, 0, 55, 0
2, 73750, Note_on_c, 0, 60, 96
2, 73752, Note_on_c, 0, 55, 92
2, 73754, Note_on_c, 0, 79, 106
2, 73758, Note_on_c, 0, 51, 85
2, 73758, Control_c, 0, 64, 127
2, 73763, Note_on_c, 0, 67, 99
2, 73781, Note_on_c, 0, 84, 0
2, 73835, Note_on_c, 0, 47, 80
2, 73835, Note_on_c, 0, 48, 79
2, 73912, Note_on_c, 0, 48, 0
2, 73919, Note_on_c, 0, 48, 88
2, 74005, Note_on_c, 0, 36, 97
2, 74039, Note_on_c, 0, 51, 0
2, 74039, Note_on_c, 0, 67, 0
2, 74039, Note_on_c, 0, 55, 0
2, 74039, Note_on_c, 0, 48, 0
2, 74039, Control_c, 0, 64, 0
2, 74040, Note_on_c, 0, 47, 0
2, 74040, Note_on_c, 0, 79, 0
2, 74042, Note_on_c, 0, 60, 0
2, 74045, Note_on_c, 0, 36, 0
2, 74184, Note_on_c, 0, 77, 96
2, 74234, Note_on_c, 0, 77, 0
2, 74261, Note_on_c, 0, 84, 105
2, 74269, Note_on_c, 0, 72, 98
2, 74274, Note_on_c, 0, 50, 98
2, 74276, Note_on_c, 0, 38, 95
2, 74280, Control_c, 0, 64, 127
2, 74342, Note_on_c, 0, 72, 0
2, 74342, Note_on_c, 0, 84, 0
2, 74352, Note_on_c, 0, 72, 92
2, 74352, Note_on_c, 0, 84, 99
2, 74490, Note_on_c, 0, 70, 97
2, 74491, Note_on_c, 0, 65, 92
2, 74492, Note_on_c, 0, 62, 92
2, 74492, Note_on_c, 0, 57, 96
2, 74496, Note_on_c, 0, 82, 90
2, 74527, Note_on_c, 0, 80, 45
2, 74657, Note_on_c, 0, 84, 0
2, 74662, Note_on_c, 0, 84, 99
2, 74690, Control_c, 0, 64, 0
2, 74691, Note_on_c, 0, 57, 0
2, 74691, Note_on_c, 0, 50, 0
2, 74691, Note_on_c, 0, 80, 0
2, 74691, Note_on_c, 0, 70, 0
2, 74691, Note_on_c, 0, 62, 0
2, 74691, Note_on_c, 0, 65, 0
2, 74691, Note_on_c, 0, 72, 0
2, 74691, Note_on_c, 0, 82, 0
2, 74692, Note_on_c, 0, 84, 0
2, 74692, Note_on_c, 0, 38, 0
2, 74732, Note_on_c, 0, 62, 96
2, 74733, Note_on_c, 0, 57, 92
2, 74761, Note_on_c, 0, 79, 107
2, 74762, Note_on_c, 0, 50, 80
2, 74763, Note_on_c, 0, 67, 103
2, 74765, Note_on_c, 0, 53, 79
2, 74772, Control_c, 0, 64, 127
2, 74895, Note_on_c, 0, 50, 0
2, 74904, Note_on_c, 0, 50, 82
2, 74989, Note_on_c, 0, 38, 88
2, 75041, Note_on_c, 0, 62, 0
2, 75047, Note_on_c, 0, 38, 0
2, 75047, Note_on_c, 0, 50, 0
2, 75048, Note_on_c, 0, 53, 0
2, 75052, Note_on_c, 0, 79, 0
2, 75052, Note_on_c, 0, 67, 0
2, 75052, Control_c, 0, 64, 0
2, 75056, Note_on_c, 0, 57, 0
2, 75141, Note_on_c, 0, 77, 97
2, 75182, Note_on_c, 0, 77, 0
2, 75248, Control_c, 0, 64, 127
2, 75255, Note_on_c, 0, 79, 108
2, 75258, Note_on_c, 0, 39, 82
2, 75261, Note_on_c, 0, 67, 97
2, 75261, Note_on_c, 0, 73, 81
2, 75264, Note_on_c, 0, 70, 95
2, 75392, Note_on_c, 0, 51, 83
2, 75509, Note_on_c, 0, 79, 0
2, 75514, Note_on_c, 0, 58, 87
2, 75517, Note_on_c, 0, 67, 0
2, 75517, Note_on_c, 0, 70, 0
2, 75519, Note_on_c, 0, 79, 97
2, 75520, Note_on_c, 0, 55, 82
2, 75522, Note_on_c, 0, 67, 89
2, 75528, Note_on_c, 0, 70, 88
2, 75609, Note_on_c, 0, 51, 0
2, 75619, Note_on_c, 0, 51, 77
2, 75671, Note_on_c, 0, 67, 0
2, 75671, Note_on_c, 0, 70, 0
2, 75671, Note_on_c, 0, 79, 0
2, 75681, Note_on_c, 0, 79, 91
2, 75681, Note_on_c, 0, 70, 82
2, 75681, Note_on_c, 0, 67, 77
2, 75739, Note_on_c, 0, 73, 0
2, 75741, Control_c, 0, 64, 0
2, 75741, Note_on_c, 0, 55, 0
2, 75741, Note_on_c, 0, 58, 0
2, 75742, Note_on_c, 0, 51, 0
2, 75742, Note_on_c, 0, 39, 0
2, 75747, Note_on_c, 0, 79, 0
2, 75755, Note_on_c, 0, 67, 0
2, 75755, Note_on_c, 0, 70, 0
2, 75758, Note_on_c, 0, 79, 99
2, 75759, Note_on_c, 0, 40, 93
2, 75760, Note_on_c, 0, 67, 97
2, 75761, Note_on_c, 0, 70, 96
2, 75801, Control_c, 0, 64, 127
2, 75805, Note_on_c, 0, 40, 0
2, 75921, Note_on_c, 0, 74, 82
2, 76001, Note_on_c, 0, 79, 0
2, 76007, Note_on_c, 0, 58, 98
2, 76008, Note_on_c, 0, 67, 0
2, 76012, Note_on_c, 0, 79, 104
2, 76014, Note_on_c, 0, 67, 91
2, 76015, Note_on_c, 0, 55, 80
2, 76142, Note_on_c, 0, 52, 71
2, 76162, Note_on_c, 0, 70, 0
2, 76166, Note_on_c, 0, 82, 88
2, 76169, Note_on_c, 0, 70, 76
2, 76229, Note_on_c, 0, 67, 0
2, 76230, Note_on_c, 0, 79, 0
2, 76230, Note_on_c, 0, 58, 0
2, 76230, Note_on_c, 0, 55, 0
2, 76231, Note_on_c, 0, 52, 0
2, 76231, Note_on_c, 0, 82, 0
2, 76231, Note_on_c, 0, 70, 0
2, 76232, Control_c, 0, 64, 0
2, 76254, Note_on_c, 0, 74, 0
2, 76257, Note_on_c, 0, 41, 89
2, 76258, Note_on_c, 0, 81, 106
2, 76263, Note_on_c, 0, 74, 97
2, 76265, Note_on_c, 0, 69, 94
2, 76293, Control_c, 0, 64, 127
2, 76398, Note_on_c, 0, 49, 69
2, 76511, Note_on_c, 0, 77, 104
2, 76517, Note_on_c, 0, 53, 75
2, 76517, Note_on_c, 0, 57, 87
2, 76523, Note_on_c, 0, 69, 0
2, 76526, Note_on_c, 0, 54, 69
2, 76527, Note_on_c, 0, 69, 70
2, 76630, Note_on_c, 0, 50, 78
2, 76756, Note_on_c, 0, 81, 0
2, 76757, Control_c, 0, 64, 0
2, 76757, Note_on_c, 0, 49, 0
2, 76757, Note_on_c, 0, 77, 0
2, 76757, Note_on_c, 0, 53, 0
2, 76758, Note_on_c, 0, 57, 0
2, 76758, Note_on_c, 0, 69, 0
2, 76759, Note_on_c, 0, 50, 0
2, 76761, Note_on_c, 0, 54, 0
2, 76761, Note_on_c, 0, 74, 0
2, 76764, Note_on_c, 0, 42, 93
2, 76767, Note_on_c, 0, 74, 99
2, 76776, Note_on_c, 0, 41, 0
2, 76815, Control_c, 0, 64, 127
2, 76879, Note_on_c, 0, 50, 78
2, 77015, Note_on_c, 0, 74, 0
2, 77017, Note_on_c, 0, 77, 105
2, 77020, Note_on_c, 0, 54, 81
2, 77025, Note_on_c, 0, 57, 83
2, 77026, Note_on_c, 0, 74, 72
2, 77107, Note_on_c, 0, 50, 0
2, 77118, Note_on_c, 0, 50, 81
2, 77240, Note_on_c, 0, 42, 0
2, 77241, Note_on_c, 0, 54, 0
2, 77241, Control_c, 0, 64, 0
2, 77242, Note_on_c, 0, 74, 0
2, 77242, Note_on_c, 0, 57, 0
2, 77243, Note_on_c, 0, 77, 0
2, 77260, Note_on_c, 0, 50, 0
2, 77281, Note_on_c, 0, 79, 105
2, 77288, Note_on_c, 0, 67, 97
2, 77288, Note_on_c, 0, 70, 97
2, 77290, Note_on_c, 0, 48, 92
2, 77291, Note_on_c, 0, 36, 95
2, 77292, Note_on_c, 0, 75, 96
2, 77324, Note_on_c, 0, 48, 0
2, 77329, Control_c, 0, 64, 127
2, 77352, Note_on_c, 0, 36, 0
2, 77548, Note_on_c, 0, 55, 70
2, 77606, Note_on_c, 0, 58, 79
2, 77655, Note_on_c, 0, 60, 72
2, 77664, Note_on_c, 0, 62, 81
2, 77724, Note_on_c, 0, 63, 87
2, 77736, Note_on_c, 0, 79, 0
2, 77790, Note_on_c, 0, 55, 0
2, 77790, Note_on_c, 0, 60, 0
2, 77790, Note_on_c, 0, 67, 0
2, 77795, Note_on_c, 0, 60, 83
2, 77798, Note_on_c, 0, 63, 0
2, 77801, Note_on_c, 0, 67, 90
2, 77801, Note_on_c, 0, 55, 77
2, 77804, Note_on_c, 0, 63, 79
2, 77811, Note_on_c, 0, 51, 72
2, 77859, Note_on_c, 0, 70, 0
2, 77863, Note_on_c, 0, 70, 85
2, 77914, Note_on_c, 0, 74, 84
2, 77959, Note_on_c, 0, 75, 0
2, 77968, Note_on_c, 0, 75, 80
2, 78035, Note_on_c, 0, 79, 88
2, 78107, Note_on_c, 0, 82, 87
2, 78144, Note_on_c, 0, 86, 85
2, 78165, Note_on_c, 0, 48, 90
2, 78172, Note_on_c, 0, 36, 74
2, 78210, Note_on_c, 0, 87, 81
2, 78277, Note_on_c, 0, 67, 0
2, 78278, Note_on_c, 0, 51, 0
2, 78278, Note_on_c, 0, 55, 0
2, 78278, Note_on_c, 0, 79, 0
2, 78278, Control_c, 0, 64, 0
2, 78278, Note_on_c, 0, 62, 0
2, 78278, Note_on_c, 0, 63, 0
2, 78278, Note_on_c, 0, 58, 0
2, 78278, Note_on_c, 0, 82, 0
2, 78278, Note_on_c, 0, 75, 0
2, 78278, Note_on_c, 0, 70, 0
2, 78278, Note_on_c, 0, 74, 0
2, 78278, Note_on_c, 0, 91, 98
2, 78278, Note_on_c, 0, 48, 0
2, 78279, Note_on_c, 0, 86, 0
2, 78279, Note_on_c, 0, 87, 0
2, 78280, Note_on_c, 0, 60, 0
2, 78283, Note_on_c, 0, 50, 95
2, 78286, Note_on_c, 0, 38, 84
2, 78297, Note_on_c, 0, 36, 0
2, 78343, Control_c, 0, 64, 127
2, 78361, Note_on_c, 0, 89, 89
2, 78416, Note_on_c, 0, 86, 89
2, 78494, Note_on_c, 0, 81, 55
2, 78540, Note_on_c, 0, 79, 86
2, 78606, Note_on_c, 0, 77, 85
2, 78647, Note_on_c, 0, 74, 84
2, 78689, Note_on_c, 0, 69, 71
2, 78758, Note_on_c, 0, 77, 0
2, 78768, Note_on_c, 0, 77, 103
2, 78773, Note_on_c, 0, 65, 102
2, 78773, Note_on_c, 0, 74, 0
2, 78783, Note_on_c, 0, 74, 82
2, 78787, Note_on_c, 0, 62, 93
2, 78824, Note_on_c, 0, 57, 78
2, 78879, Note_on_c, 0, 53, 84
2, 78965, Note_on_c, 0, 50, 0
2, 78965, Note_on_c, 0, 81, 0
2, 78976, Note_on_c, 0, 50, 88
2, 79009, Note_on_c, 0, 45, 87
2, 79065, Note_on_c, 0, 38, 0
2, 79075, Note_on_c, 0, 38, 82
2, 79127, Note_on_c, 0, 77, 0
2, 79134, Note_on_c, 0, 65, 0
2, 79137, Note_on_c, 0, 77, 95
2, 79141, Note_on_c, 0, 65, 91
2, 79240, Note_on_c, 0, 45, 0
2, 79241, Note_on_c, 0, 86, 0
2, 79241, Note_on_c, 0, 89, 0
2, 79242, Note_on_c, 0, 53, 0
2, 79242, Note_on_c, 0, 74, 0
2, 79242, Note_on_c, 0, 62, 0
2, 79242, Note_on_c, 0, 57, 0
2, 79242, Control_c, 0, 64, 0
2, 79242, Note_on_c, 0, 69, 0
2, 79243, Note_on_c, 0, 65, 0
2, 79249, Note_on_c, 0, 91, 0
2, 79257, Note_on_c, 0, 38, 0
2, 79257, Note_on_c, 0, 50, 0
2, 79265, Note_on_c, 0, 77, 0
2, 79272, Note_on_c, 0, 79, 0
2, 79277, Note_on_c, 0, 79, 106
2, 79284, Note_on_c, 0, 67, 102
2, 79285, Note_on_c, 0, 74, 91
2, 79285, Note_on_c, 0, 71, 86
2, 79288, Note_on_c, 0, 31, 95
2, 79290, Note_on_c, 0, 43, 100
2, 79294, Note_on_c, 0, 72, 73
2, 79326, Note_on_c, 0, 72, 0
2, 79326, Control_c, 0, 64, 127
2, 79524, Note_on_c, 0, 59, 74
2, 79578, Note_on_c, 0, 62, 80
2, 79641, Note_on_c, 0, 43, 0
2, 79650, Note_on_c, 0, 43, 79
2, 79656, Note_on_c, 0, 67, 0
2, 79662, Note_on_c, 0, 67, 82
2, 79718, Note_on_c, 0, 71, 0
2, 79722, Note_on_c, 0, 71, 72
2, 79772, Note_on_c, 0, 62, 0
2, 79781, Note_on_c, 0, 62, 76
2, 79794, Note_on_c, 0, 50, 77
2, 79799, Note_on_c, 0, 55, 76
2, 79802, Note_on_c, 0, 79, 0
2, 79810, Note_on_c, 0, 79, 91
2, 79864, Note_on_c, 0, 74, 0
2, 79868, Note_on_c, 0, 74, 76
2, 79910, Note_on_c, 0, 71, 0
2, 79914, Note_on_c, 0, 71, 72
2, 79987, Note_on_c, 0, 67, 0
2, 79996, Note_on_c, 0, 67, 78
2, 80048, Note_on_c, 0, 71, 0
2, 80053, Note_on_c, 0, 71, 72
2, 80071, Note_on_c, 0, 74, 0
2, 80082, Note_on_c, 0, 74, 79
2, 80163, Note_on_c, 0, 79, 0
2, 80169, Note_on_c, 0, 79, 76
2, 80216, Note_on_c, 0, 83, 79
2, 80274, Note_on_c, 0, 86, 72
2, 80294, Note_on_c, 0, 62, 0
2, 80300, Note_on_c, 0, 62, 86
2, 80302, Note_on_c, 0, 67, 0
2, 80309, Note_on_c, 0, 59, 0
2, 80313, Note_on_c, 0, 67, 90
2, 80313, Note_on_c, 0, 59, 71
2, 80314, Note_on_c, 0, 91, 98
2, 80371, Note_on_c, 0, 86, 0
2, 80381, Note_on_c, 0, 86, 84
2, 80409, Note_on_c, 0, 83, 0
2, 80417, Note_on_c, 0, 83, 76
2, 80478, Note_on_c, 0, 79, 0
2, 80487, Note_on_c, 0, 79, 80
2, 80547, Note_on_c, 0, 86, 0
2, 80552, Note_on_c, 0, 86, 90
2, 80616, Note_on_c, 0, 91, 0
2, 80627, Note_on_c, 0, 91, 89
2, 80688, Note_on_c, 0, 95, 87
2, 80745, Note_on_c, 0, 98, 89
2, 80808, Note_on_c, 0, 74, 0
2, 80808, Note_on_c, 0, 79, 0
2, 80808, Note_on_c, 0, 103, 104
2, 80812, Note_on_c, 0, 79, 77
2, 80813, Note_on_c, 0, 74, 77
2, 81047, Note_on_c, 0, 31, 0
2, 81047, Note_on_c, 0, 43, 0
2, 81047, Note_on_c, 0, 55, 0
2, 81049, Note_on_c, 0, 62, 0
2, 81053, Note_on_c, 0, 55, 88
2, 81054, Note_on_c, 0, 43, 90
2, 81057, Note_on_c, 0, 31, 73
2, 81283, Control_c, 0, 64, 0
2, 81285, Note_on_c, 0, 98, 0
2, 81287, Note_on_c, 0, 95, 0
2, 81288, Note_on_c, 0, 31, 0
2, 81288, Note_on_c, 0, 86, 0
2, 81288, Note_on_c, 0, 50, 0
2, 81288, Note_on_c, 0, 43, 0
2, 81288, Note_on_c, 0, 59, 0
2, 81288, Note_on_c, 0, 74, 0
2, 81288, Note_on_c, 0, 67, 0
2, 81288, Note_on_c, 0, 83, 0
2, 81288, Note_on_c, 0, 55, 0
2, 81289, Note_on_c, 0, 79, 0
2, 81292, Note_on_c, 0, 103, 0
2, 81300, Note_on_c, 0, 91, 0
2, 81308, Note_on_c, 0, 71, 0
2, 81324, Note_on_c, 0, 76, 102
2, 81327, Note_on_c, 0, 67, 89
2, 81328, Note_on_c, 0, 71, 86
2, 81328, Note_on_c, 0, 52, 90
2, 81328, Note_on_c, 0, 40, 85
2, 81377, Control_c, 0, 64, 127
2, 81576, Note_on_c, 0, 67, 0
2, 81584, Note_on_c, 0, 67, 64
2, 81585, Note_on_c, 0, 59, 70
2, 81588, Note_on_c, 0, 55, 61
2, 81588, Note_on_c, 0, 64, 69
2, 81723, Note_on_c, 0, 74, 79
2, 81768, Note_on_c, 0, 40, 0
2, 81778, Note_on_c, 0, 75, 81
2, 81822, Note_on_c, 0, 71, 0
2, 81822, Note_on_c, 0, 76, 0
2, 81830, Note_on_c, 0, 67, 0
2, 81833, Note_on_c, 0, 76, 102
2, 81833, Note_on_c, 0, 71, 85
2, 81839, Note_on_c, 0, 67, 77
2, 81845, Note_on_c, 0, 59, 0
2, 81856, Note_on_c, 0, 59, 64
2, 81960, Note_on_c, 0, 52, 0
2, 81965, Note_on_c, 0, 52, 82
2, 82083, Note_on_c, 0, 55, 0
2, 82083, Note_on_c, 0, 59, 0
2, 82083, Note_on_c, 0, 64, 0
2, 82083, Note_on_c, 0, 67, 0
2, 82089, Note_on_c, 0, 55, 73
2, 82090, Note_on_c, 0, 64, 87
2, 82090, Note_on_c, 0, 59, 71
2, 82091, Note_on_c, 0, 67, 72
2, 82222, Note_on_c, 0, 74, 0
2, 82222, Note_on_c, 0, 76, 0
2, 82226, Note_on_c, 0, 76, 59
2, 82227, Note_on_c, 0, 74, 75
2, 82275, Note_on_c, 0, 75, 0
2, 82286, Note_on_c, 0, 75, 78
2, 82329, Note_on_c, 0, 71, 0
2, 82329, Note_on_c, 0, 76, 0
2, 82337, Note_on_c, 0, 67, 0
2, 82339, Note_on_c, 0, 71, 82
2, 82340, Note_on_c, 0, 76, 104
2, 82341, Note_on_c, 0, 67, 88
2, 82498, Note_on_c, 0, 52, 0
2, 82502, Note_on_c, 0, 52, 83
2, 82606, Note_on_c, 0, 55, 0
2, 82606, Note_on_c, 0, 59, 0
2, 82606, Note_on_c, 0, 64, 0
2, 82613, Note_on_c, 0, 64, 94
2, 82614, Note_on_c, 0, 59, 84
2, 82615, Note_on_c, 0, 55, 70
2, 82736, Note_on_c, 0, 74, 0
2, 82744, Note_on_c, 0, 74, 80
2, 82790, Note_on_c, 0, 75, 0
2, 82800, Note_on_c, 0, 75, 62
2, 82844, Note_on_c, 0, 76, 0
2, 82851, Note_on_c, 0, 67, 0
2, 82854, Note_on_c, 0, 76, 98
2, 82861, Note_on_c, 0, 67, 86
2, 82974, Note_on_c, 0, 74, 0
2, 82982, Note_on_c, 0, 52, 0
2, 82985, Note_on_c, 0, 74, 92
2, 82988, Note_on_c, 0, 52, 73
2, 83101, Note_on_c, 0, 79, 101
2, 83105, Note_on_c, 0, 55, 0
2, 83105, Note_on_c, 0, 59, 0
2, 83105, Note_on_c, 0, 64, 0
2, 83112, Note_on_c, 0, 55, 78
2, 83113, Note_on_c, 0, 64, 78
2, 83114, Note_on_c, 0, 59, 72
2, 83308, Note_on_c, 0, 74, 0
2, 83308, Note_on_c, 0, 67, 0
2, 83308, Note_on_c, 0, 71, 0
2, 83308, Note_on_c, 0, 59, 0
2, 83308, Note_on_c, 0, 75, 0
2, 83308, Note_on_c, 0, 55, 0
2, 83308, Note_on_c, 0, 64, 0
2, 83309, Note_on_c, 0, 79, 0
2, 83309, Control_c, 0, 64, 0
2, 83320, Note_on_c, 0, 52, 0
2, 83328, Note_on_c, 0, 76, 0
2, 83354, Note_on_c, 0, 76, 103
2, 83360, Note_on_c, 0, 48, 95
2, 83361, Note_on_c, 0, 71, 89
2, 83361, Note_on_c, 0, 36, 95
2, 83389, Control_c, 0, 64, 127
2, 83608, Note_on_c, 0, 60, 84
2, 83609, Note_on_c, 0, 64, 91
2, 83610, Note_on_c, 0, 55, 70
2, 83612, Note_on_c, 0, 36, 0
2, 83754, Note_on_c, 0, 74, 84
2, 83830, Note_on_c, 0, 75, 74
2, 83857, Note_on_c, 0, 76, 0
2, 83862, Note_on_c, 0, 67, 91
2, 83863, Note_on_c, 0, 76, 99
2, 83980, Note_on_c, 0, 48, 0
2, 83991, Note_on_c, 0, 48, 90
2, 84096, Note_on_c, 0, 60, 0
2, 84096, Note_on_c, 0, 64, 0
2, 84103, Note_on_c, 0, 55, 0
2, 84106, Note_on_c, 0, 60, 83
2, 84107, Note_on_c, 0, 64, 86
2, 84109, Note_on_c, 0, 55, 73
2, 84140, Note_on_c, 0, 56, 48
2, 84151, Note_on_c, 0, 68, 43
2, 84157, Note_on_c, 0, 68, 0
2, 84203, Note_on_c, 0, 74, 0
2, 84209, Note_on_c, 0, 74, 84
2, 84241, Note_on_c, 0, 75, 0
2, 84245, Note_on_c, 0, 75, 93
2, 84297, Note_on_c, 0, 67, 0
2, 84298, Note_on_c, 0, 71, 0
2, 84298, Note_on_c, 0, 56, 0
2, 84298, Control_c, 0, 64, 0
2, 84298, Note_on_c, 0, 74, 0
2, 84298, Note_on_c, 0, 76, 0
2, 84298, Note_on_c, 0, 60, 0
2, 84298, Note_on_c, 0, 55, 0
2, 84299, Note_on_c, 0, 75, 0
2, 84311, Note_on_c, 0, 48, 0
2, 84311, Note_on_c, 0, 64, 0
2, 84346, Note_on_c, 0, 88, 101
2, 84352, Note_on_c, 0, 76, 100
2, 84353, Note_on_c, 0, 50, 94
2, 84354, Note_on_c, 0, 38, 90
2, 84364, Control_c, 0, 64, 127
2, 84470, Note_on_c, 0, 83, 99
2, 84474, Note_on_c, 0, 71, 94
2, 84594, Note_on_c, 0, 86, 102
2, 84598, Note_on_c, 0, 62, 99
2, 84599, Note_on_c, 0, 57, 87
2, 84600, Note_on_c, 0, 74, 96
2, 84606, Note_on_c, 0, 54, 82
2, 84715, Note_on_c, 0, 81, 99
2, 84716, Note_on_c, 0, 69, 94
2, 84833, Note_on_c, 0, 71, 0
2, 84833, Note_on_c, 0, 83, 0
2, 84837, Note_on_c, 0, 83, 102
2, 84839, Note_on_c, 0, 71, 100
2, 84963, Note_on_c, 0, 50, 0
2, 84963, Note_on_c, 0, 62, 0
2, 84968, Note_on_c, 0, 79, 102
2, 84970, Note_on_c, 0, 50, 82
2, 84972, Note_on_c, 0, 67, 97
2, 84972, Note_on_c, 0, 62, 84
2, 85079, Note_on_c, 0, 81, 0
2, 85086, Note_on_c, 0, 54, 0
2, 85086, Note_on_c, 0, 62, 0
2, 85086, Note_on_c, 0, 69, 0
2, 85089, Note_on_c, 0, 81, 105
2, 85090, Note_on_c, 0, 69, 101
2, 85090, Note_on_c, 0, 62, 94
2, 85090, Note_on_c, 0, 54, 91
2, 85297, Note_on_c, 0, 54, 0
2, 85297, Note_on_c, 0, 50, 0
2, 85298, Control_c, 0, 64, 0
2, 85298, Note_on_c, 0, 83, 0
2, 85298, Note_on_c, 0, 86, 0
2, 85298, Note_on_c, 0, 88, 0
2, 85298, Note_on_c, 0, 74, 0
2, 85298, Note_on_c, 0, 62, 0
2, 85298, Note_on_c, 0, 57, 0
2, 85298, Note_on_c, 0, 67, 0
2, 85298, Note_on_c, 0, 71, 0
2, 85298, Note_on_c, 0, 81, 0
2, 85298, Note_on_c, 0, 69, 0
2, 85299, Note_on_c, 0, 79, 0
2, 85299, Note_on_c, 0, 76, 0
2, 85301, Note_on_c, 0, 38, 0
2, 85343, Note_on_c, 0, 83, 110
2, 85345, Note_on_c, 0, 71, 103
2, 85347, Note_on_c, 0, 79, 100
2, 85348, Note_on_c, 0, 76, 105
2, 85353, Note_on_c, 0, 28, 102
2, 85353, Note_on_c, 0, 40, 97
2, 85378, Control_c, 0, 64, 127
2, 85597, Note_on_c, 0, 47, 76
2, 85598, Note_on_c, 0, 52, 84
2, 85708, Note_on_c, 0, 40, 0
2, 85718, Note_on_c, 0, 40, 85
2, 85718, Note_on_c, 0, 81, 85
2, 85831, Note_on_c, 0, 76, 0
2, 85831, Note_on_c, 0, 79, 0
2, 85831, Note_on_c, 0, 83, 0
2, 85836, Note_on_c, 0, 83, 106
2, 85839, Note_on_c, 0, 40, 0
2, 85839, Note_on_c, 0, 47, 0
2, 85841, Note_on_c, 0, 79, 101
2, 85843, Note_on_c, 0, 76, 102
2, 85843, Note_on_c, 0, 47, 76
2, 85850, Note_on_c, 0, 40, 81
2, 85969, Note_on_c, 0, 40, 0
2, 85978, Note_on_c, 0, 40, 81
2, 86077, Note_on_c, 0, 47, 0
2, 86085, Note_on_c, 0, 40, 0
2, 86085, Note_on_c, 0, 52, 0
2, 86088, Note_on_c, 0, 47, 80
2, 86090, Note_on_c, 0, 40, 82
2, 86092, Note_on_c, 0, 52, 85
2, 86208, Note_on_c, 0, 28, 0
2, 86208, Note_on_c, 0, 40, 0
2, 86215, Note_on_c, 0, 81, 0
2, 86216, Note_on_c, 0, 28, 81
2, 86216, Note_on_c, 0, 40, 74
2, 86220, Note_on_c, 0, 81, 87
2, 86271, Note_on_c, 0, 82, 87
2, 86320, Note_on_c, 0, 52, 0
2, 86322, Note_on_c, 0, 71, 0
2, 86324, Note_on_c, 0, 81, 0
2, 86324, Note_on_c, 0, 82, 0
2, 86326, Control_c, 0, 64, 0
2, 86338, Note_on_c, 0, 40, 0
2, 86338, Note_on_c, 0, 79, 0
2, 86338, Note_on_c, 0, 83, 0
2, 86342, Note_on_c, 0, 83, 103
2, 86344, Note_on_c, 0, 79, 99
2, 86344, Note_on_c, 0, 40, 82
2, 86346, Note_on_c, 0, 76, 0
2, 86350, Note_on_c, 0, 76, 94
2, 86384, Control_c, 0, 64, 127
2, 86461, Note_on_c, 0, 40, 0
2, 86466, Note_on_c, 0, 40, 67
2, 86576, Note_on_c, 0, 47, 0
2, 86584, Note_on_c, 0, 40, 0
2, 86586, Note_on_c, 0, 47, 92
2, 86588, Note_on_c, 0, 52, 80
2, 86590, Note_on_c, 0, 40, 77
2, 86707, Note_on_c, 0, 40, 0
2, 86711, Note_on_c, 0, 40, 69
2, 86712, Note_on_c, 0, 81, 82
2, 86767, Note_on_c, 0, 82, 82
2, 86776, Note_on_c, 0, 79, 0
2, 86781, Note_on_c, 0, 79, 61
2, 86822, Note_on_c, 0, 40, 0
2, 86826, Note_on_c, 0, 40, 79
2, 86837, Note_on_c, 0, 83, 0
2, 86841, Note_on_c, 0, 83, 98
2, 86845, Note_on_c, 0, 76, 0
2, 86850, Note_on_c, 0, 76, 93
2, 86952, Note_on_c, 0, 81, 0
2, 86960, Note_on_c, 0, 40, 0
2, 86963, Note_on_c, 0, 81, 92
2, 86966, Note_on_c, 0, 40, 84
2, 87075, Note_on_c, 0, 47, 0
2, 87075, Note_on_c, 0, 52, 0
2, 87081, Note_on_c, 0, 47, 86
2, 87085, Note_on_c, 0, 86, 100
2, 87086, Note_on_c, 0, 52, 84
2, 87183, Note_on_c, 0, 40, 0
2, 87194, Note_on_c, 0, 40, 80
2, 87282, Control_c, 0, 64, 0
2, 87284, Note_on_c, 0, 52, 0
2, 87284, Note_on_c, 0, 82, 0
2, 87285, Note_on_c, 0, 47, 0
2, 87285, Note_on_c, 0, 81, 0
2, 87285, Note_on_c, 0, 79, 0
2, 87285, Note_on_c, 0, 83, 0
2, 87286, Note_on_c, 0, 76, 0
2, 87286, Note_on_c, 0, 86, 0
2, 87290, Note_on_c, 0, 28, 0
2, 87306, Note_on_c, 0, 40, 0
2, 87331, Note_on_c, 0, 83, 104
2, 87333, Note_on_c, 0, 79, 99
2, 87334, Note_on_c, 0, 76, 102
2, 87335, Note_on_c, 0, 48, 100
2, 87340, Note_on_c, 0, 36, 95
2, 87352, Control_c, 0, 64, 127
2, 87575, Note_on_c, 0, 48, 0
2, 87581, Note_on_c, 0, 60, 78
2, 87584, Note_on_c, 0, 64, 79
2, 87585, Note_on_c, 0, 48, 69
2, 87586, Note_on_c, 0, 55, 72
2, 87697, Note_on_c, 0, 48, 0
2, 87705, Note_on_c, 0, 36, 0
2, 87708, Note_on_c, 0, 81, 85
2, 87709, Note_on_c, 0, 48, 79
2, 87713, Note_on_c, 0, 81, 0
2, 87716, Note_on_c, 0, 36, 71
2, 87725, Note_on_c, 0, 82, 91
2, 87751, Note_on_c, 0, 79, 0
2, 87755, Note_on_c, 0, 79, 58
2, 87820, Note_on_c, 0, 48, 0
2, 87820, Note_on_c, 0, 76, 0
2, 87820, Note_on_c, 0, 83, 0
2, 87826, Note_on_c, 0, 83, 102
2, 87828, Note_on_c, 0, 48, 90
2, 87831, Note_on_c, 0, 76, 95
2, 87843, Note_on_c, 0, 36, 0
2, 87848, Note_on_c, 0, 36, 58
2, 87959, Note_on_c, 0, 36, 0
2, 87959, Note_on_c, 0, 48, 0
2, 87964, Note_on_c, 0, 48, 88
2, 87969, Note_on_c, 0, 36, 71
2, 88074, Note_on_c, 0, 60, 0
2, 88080, Note_on_c, 0, 60, 90
2, 88081, Note_on_c, 0, 48, 0
2, 88081, Note_on_c, 0, 55, 0
2, 88081, Note_on_c, 0, 64, 0
2, 88087, Note_on_c, 0, 64, 91
2, 88088, Note_on_c, 0, 55, 72
2, 88088, Note_on_c, 0, 48, 78
2, 88181, Note_on_c, 0, 36, 0
2, 88181, Note_on_c, 0, 48, 0
2, 88186, Note_on_c, 0, 48, 84
2, 88192, Note_on_c, 0, 36, 73
2, 88206, Note_on_c, 0, 81, 86
2, 88258, Note_on_c, 0, 82, 0
2, 88269, Note_on_c, 0, 82, 94
2, 88307, Control_c, 0, 64, 0
2, 88307, Note_on_c, 0, 60, 0
2, 88308, Note_on_c, 0, 64, 0
2, 88308, Note_on_c, 0, 48, 0
2, 88308, Note_on_c, 0, 76, 0
2, 88308, Note_on_c, 0, 81, 0
2, 88308, Note_on_c, 0, 55, 0
2, 88309, Note_on_c, 0, 82, 0
2, 88309, Note_on_c, 0, 79, 0
2, 88309, Note_on_c, 0, 83, 0
2, 88327, Note_on_c, 0, 36, 0
2, 88342, Note_on_c, 0, 52, 106
2, 88344, Note_on_c, 0, 88, 107
2, 88345, Note_on_c, 0, 40, 97
2, 88345, Note_on_c, 0, 76, 107
2, 88386, Note_on_c, 0, 52, 0
2, 88387, Note_on_c, 0, 76, 0
2, 88387, Note_on_c, 0, 88, 0
2, 88392, Note_on_c, 0, 40, 0
2, 88516, Note_on_c, 0, 47, 101
2, 88516, Note_on_c, 0, 35, 94
2, 88516, Note_on_c, 0, 83, 102
2, 88521, Note_on_c, 0, 71, 98
2, 88540, Note_on_c, 0, 47, 0
2, 88565, Note_on_c, 0, 71, 0
2, 88573, Note_on_c, 0, 35, 0
2, 88573, Note_on_c, 0, 83, 0
2, 88688, Note_on_c, 0, 86, 104
2, 88691, Note_on_c, 0, 74, 102
2, 88698, Note_on_c, 0, 38, 94
2, 88699, Note_on_c, 0, 50, 92
2, 88699, Note_on_c, 0, 40, 83
2, 88699, Note_on_c, 0, 52, 85
2, 88704, Note_on_c, 0, 40, 0
2, 88726, Note_on_c, 0, 74, 0
2, 88727, Note_on_c, 0, 50, 0
2, 88730, Note_on_c, 0, 38, 0
2, 88731, Note_on_c, 0, 86, 0
2, 88736, Note_on_c, 0, 52, 0
2, 88845, Note_on_c, 0, 45, 102
2, 88846, Note_on_c, 0, 81, 103
2, 88846, Note_on_c, 0, 33, 97
2, 88847, Note_on_c, 0, 69, 100
2, 88878, Note_on_c, 0, 69, 0
2, 88881, Note_on_c, 0, 81, 0
2, 88884, Note_on_c, 0, 33, 0
2, 88885, Note_on_c, 0, 45, 0
2, 89009, Note_on_c, 0, 47, 100
2, 89010, Note_on_c, 0, 83, 99
2, 89012, Note_on_c, 0, 35, 96
2, 89014, Note_on_c, 0, 71, 101
2, 89045, Note_on_c, 0, 47, 0
2, 89045, Note_on_c, 0, 71, 0
2, 89049, Note_on_c, 0, 83, 0
2, 89051, Note_on_c, 0, 35, 0
2, 89186, Note_on_c, 0, 31, 98
2, 89187, Note_on_c, 0, 43, 100
2, 89187, Note_on_c, 0, 79, 107
2, 89191, Note_on_c, 0, 67, 103
2, 89222, Note_on_c, 0, 43, 0
2, 89222, Note_on_c, 0, 67, 0
2, 89223, Note_on_c, 0, 31, 0
2, 89223, Note_on_c, 0, 79, 0
2, 89361, Note_on_c, 0, 74, 94
2, 89362, Note_on_c, 0, 40, 96
2, 89365, Note_on_c, 0, 28, 100
2, 89387, Control_c, 0, 64, 127
2, 89487, Note_on_c, 0, 28, 0
2, 89487, Note_on_c, 0, 40, 0
2, 89491, Control_c, 0, 64, 0
2, 89493, Note_on_c, 0, 40, 75
2, 89494, Note_on_c, 0, 28, 66
2, 89579, Note_on_c, 0, 74, 0
2, 89625, Note_on_c, 0, 64, 78
2, 89625, Note_on_c, 0, 59, 81
2, 89660, Note_on_c, 0, 59, 0
2, 89661, Note_on_c, 0, 64, 0
2, 89671, Note_on_c, 0, 28, 0
2, 89679, Note_on_c, 0, 40, 0
2, 89872, Note_on_c, 0, 64, 87
2, 89874, Note_on_c, 0, 59, 81
2, 90036, Note_on_c, 0, 64, 0
2, 90039, Note_on_c, 0, 59, 0
2, 90117, Note_on_c, 0, 64, 79
2, 90122, Note_on_c, 0, 59, 82
2, 90201, Control_c, 0, 64, 127
2, 90224, Control_c, 0, 64, 0
2, 90244, Note_on_c, 0, 64, 0
2, 90245, Note_on_c, 0, 59, 0
2, 90248, Note_on_c, 0, 62, 86
2, 90253, Note_on_c, 0, 40, 80
2, 90256, Note_on_c, 0, 28, 87
2, 90260, Note_on_c, 0, 57, 76
2, 90288, Note_on_c, 0, 40, 0
2, 90291, Note_on_c, 0, 57, 0
2, 90292, Note_on_c, 0, 62, 0
2, 90293, Note_on_c, 0, 28, 0
2, 90374, Note_on_c, 0, 64, 81
2, 90374, Note_on_c, 0, 59, 80
2, 90412, Note_on_c, 0, 59, 0
2, 90413, Note_on_c, 0, 64, 0
2, 90506, Note_on_c, 0, 40, 76
2, 90507, Note_on_c, 0, 28, 83
2, 90516, Control_c, 0, 64, 127
2, 90621, Note_on_c, 0, 64, 90
2, 90625, Note_on_c, 0, 59, 78
2, 90745, Note_on_c, 0, 62, 91
2, 90754, Note_on_c, 0, 57, 78
2, 90757, Note_on_c, 0, 52, 76
2, 90779, Control_c, 0, 64, 0
2, 90792, Note_on_c, 0, 59, 0
2, 90793, Note_on_c, 0, 40, 0
2, 90793, Note_on_c, 0, 64, 0
2, 90794, Note_on_c, 0, 57, 0
2, 90795, Note_on_c, 0, 62, 0
2, 90798, Note_on_c, 0, 52, 0
2, 90800, Note_on_c, 0, 28, 0
2, 90877, Note_on_c, 0, 40, 75
2, 90878, Note_on_c, 0, 64, 92
2, 90880, Note_on_c, 0, 59, 82
2, 90938, Control_c, 0, 64, 127
2, 90950, Note_on_c, 0, 47, 74
2, 91056, Note_on_c, 0, 52, 73
2, 91132, Note_on_c, 0, 67, 91
2, 91134, Note_on_c, 0, 62, 91
2, 91136, Note_on_c, 0, 55, 83
2, 91324, Note_on_c, 0, 47, 0
2, 91324, Note_on_c, 0, 64, 0
2, 91325, Note_on_c, 0, 52, 0
2, 91325, Note_on_c, 0, 55, 0
2, 91325, Note_on_c, 0, 59, 0
2, 91325, Note_on_c, 0, 67, 0
2, 91326, Note_on_c, 0, 62, 0
2, 91326, Control_c, 0, 64, 0
2, 91338, Note_on_c, 0, 40, 0
2, 91384, Note_on_c, 0, 48, 104
2, 91388, Note_on_c, 0, 43, 87
2, 91388, Note_on_c, 0, 36, 96
2, 91422, Control_c, 0, 64, 127
2, 91514, Note_on_c, 0, 43, 0
2, 91514, Note_on_c, 0, 48, 0
2, 91520, Note_on_c, 0, 43, 69
2, 91520, Note_on_c, 0, 48, 80
2, 91521, Control_c, 0, 64, 0
2, 91568, Note_on_c, 0, 48, 0
2, 91571, Note_on_c, 0, 36, 0
2, 91572, Note_on_c, 0, 43, 0
2, 91646, Note_on_c, 0, 64, 91
2, 91648, Note_on_c, 0, 60, 86
2, 91679, Note_on_c, 0, 60, 0
2, 91680, Note_on_c, 0, 64, 0
2, 91903, Note_on_c, 0, 64, 91
2, 91918, Note_on_c, 0, 60, 79
2, 92156, Note_on_c, 0, 67, 90
2, 92162, Note_on_c, 0, 64, 0
2, 92190, Note_on_c, 0, 60, 0
2, 92286, Note_on_c, 0, 50, 96
2, 92287, Note_on_c, 0, 38, 87
2, 92287, Note_on_c, 0, 45, 89
2, 92316, Note_on_c, 0, 50, 0
2, 92318, Note_on_c, 0, 38, 0
2, 92322, Note_on_c, 0, 45, 0
2, 92399, Note_on_c, 0, 66, 90
2, 92399, Note_on_c, 0, 62, 91
2, 92428, Note_on_c, 0, 67, 0
2, 92520, Note_on_c, 0, 62, 0
2, 92539, Note_on_c, 0, 50, 92
2, 92540, Note_on_c, 0, 45, 89
2, 92540, Note_on_c, 0, 38, 86
2, 92597, Control_c, 0, 64, 127
2, 92653, Note_on_c, 0, 62, 93
2, 92704, Note_on_c, 0, 45, 0
2, 92766, Note_on_c, 0, 38, 0
2, 92778, Note_on_c, 0, 38, 76
2, 92779, Note_on_c, 0, 45, 66
2, 92876, Control_c, 0, 64, 0
2, 92901, Note_on_c, 0, 54, 89
2, 92904, Note_on_c, 0, 59, 97
2, 92943, Control_c, 0, 64, 127
2, 92958, Note_on_c, 0, 66, 0
2, 93004, Note_on_c, 0, 50, 0
2, 93009, Note_on_c, 0, 50, 82
2, 93050, Note_on_c, 0, 45, 0
2, 93055, Note_on_c, 0, 45, 80
2, 93058, Note_on_c, 0, 38, 0
2, 93067, Note_on_c, 0, 50, 0
2, 93073, Note_on_c, 0, 54, 0
2, 93081, Note_on_c, 0, 62, 0
2, 93100, Control_c, 0, 64, 0
2, 93104, Note_on_c, 0, 45, 0
2, 93110, Note_on_c, 0, 59, 0
2, 93155, Note_on_c, 0, 57, 89
2, 93155, Note_on_c, 0, 38, 81
2, 93219, Control_c, 0, 64, 127
2, 93250, Note_on_c, 0, 57, 0
2, 93330, Note_on_c, 0, 38, 0
2, 93335, Control_c, 0, 64, 0
2, 93415, Note_on_c, 0, 57, 100
2, 93420, Note_on_c, 0, 40, 83
2, 93422, Note_on_c, 0, 28, 92
2, 93473, Control_c, 0, 64, 127
2, 93665, Note_on_c, 0, 57, 0
2, 93670, Note_on_c, 0, 47, 64
2, 93670, Note_on_c, 0, 57, 69
2, 93675, Note_on_c, 0, 52, 71
2, 93780, Note_on_c, 0, 40, 0
2, 93788, Note_on_c, 0, 57, 0
2, 93791, Note_on_c, 0, 59, 88
2, 93791, Note_on_c, 0, 40, 72
2, 93792, Note_on_c, 0, 57, 74
2, 93911, Note_on_c, 0, 40, 0
2, 93911, Note_on_c, 0, 59, 0
2, 93920, Note_on_c, 0, 59, 86
2, 93922, Note_on_c, 0, 40, 71
2, 94026, Note_on_c, 0, 40, 0
2, 94031, Note_on_c, 0, 40, 70
2, 94156, Note_on_c, 0, 47, 0
2, 94164, Note_on_c, 0, 52, 0
2, 94168, Note_on_c, 0, 47, 72
2, 94169, Note_on_c, 0, 52, 84
2, 94299, Note_on_c, 0, 74, 78
2, 94353, Note_on_c, 0, 75, 75
2, 94402, Note_on_c, 0, 40, 0
2, 94408, Note_on_c, 0, 76, 96
2, 94409, Note_on_c, 0, 40, 80
2, 94411, Note_on_c, 0, 67, 82
2, 94412, Note_on_c, 0, 71, 84
2, 94540, Note_on_c, 0, 28, 0
2, 94540, Note_on_c, 0, 40, 0
2, 94551, Note_on_c, 0, 40, 67
2, 94552, Note_on_c, 0, 28, 77
2, 94663, Note_on_c, 0, 47, 0
2, 94663, Note_on_c, 0, 52, 0
2, 94667, Note_on_c, 0, 47, 71
2, 94671, Note_on_c, 0, 52, 79
2, 94771, Note_on_c, 0, 74, 0
2, 94775, Note_on_c, 0, 74, 77
2, 94801, Note_on_c, 0, 40, 0
2, 94807, Note_on_c, 0, 40, 61
2, 94809, Note_on_c, 0, 75, 0
2, 94814, Note_on_c, 0, 75, 76
2, 94886, Note_on_c, 0, 76, 0
2, 94897, Note_on_c, 0, 76, 91
2, 94901, Note_on_c, 0, 40, 0
2, 94909, Note_on_c, 0, 67, 0
2, 94910, Note_on_c, 0, 40, 75
2, 94920, Note_on_c, 0, 67, 79
2, 95024, Note_on_c, 0, 40, 0
2, 95024, Note_on_c, 0, 74, 0
2, 95032, Note_on_c, 0, 74, 88
2, 95033, Note_on_c, 0, 40, 71
2, 95152, Note_on_c, 0, 79, 100
2, 95155, Note_on_c, 0, 47, 0
2, 95162, Note_on_c, 0, 40, 0
2, 95162, Note_on_c, 0, 52, 0
2, 95165, Note_on_c, 0, 47, 82
2, 95171, Note_on_c, 0, 40, 82
2, 95173, Note_on_c, 0, 52, 87
2, 95270, Note_on_c, 0, 40, 0
2, 95280, Note_on_c, 0, 40, 76
2, 95342, Note_on_c, 0, 74, 0
2, 95342, Note_on_c, 0, 57, 0
2, 95342, Note_on_c, 0, 67, 0
2, 95342, Note_on_c, 0, 40, 0
2, 95343, Note_on_c, 0, 75, 0
2, 95343, Note_on_c, 0, 71, 0
2, 95343, Note_on_c, 0, 52, 0
2, 95343, Note_on_c, 0, 79, 0
2, 95344, Control_c, 0, 64, 0
2, 95354, Note_on_c, 0, 28, 0
2, 95362, Note_on_c, 0, 47, 0
2, 95362, Note_on_c, 0, 59, 0
2, 95362, Note_on_c, 0, 76, 0
2, 95397, Note_on_c, 0, 36, 89
2, 95397, Note_on_c, 0, 81, 99
2, 95453, Note_on_c, 0, 36, 0
2, 95458, Note_on_c, 0, 82, 98
2, 95500, Note_on_c, 0, 81, 0
2, 95512, Note_on_c, 0, 36, 73
2, 95512, Note_on_c, 0, 83, 88
2, 95554, Control_c, 0, 64, 127
2, 95591, Note_on_c, 0, 86, 93
2, 95643, Note_on_c, 0, 81, 85
2, 95649, Note_on_c, 0, 52, 86
2, 95651, Note_on_c, 0, 43, 70
2, 95658, Note_on_c, 0, 83, 0
2, 95685, Note_on_c, 0, 82, 0
2, 95686, Note_on_c, 0, 86, 0
2, 95695, Note_on_c, 0, 82, 95
2, 95704, Note_on_c, 0, 52, 0
2, 95738, Note_on_c, 0, 43, 0
2, 95747, Note_on_c, 0, 83, 90
2, 95758, Note_on_c, 0, 82, 0
2, 95761, Note_on_c, 0, 36, 0
2, 95761, Note_on_c, 0, 81, 0
2, 95767, Note_on_c, 0, 36, 74
2, 95787, Control_c, 0, 64, 0
2, 95802, Note_on_c, 0, 83, 0
2, 95804, Note_on_c, 0, 86, 93
2, 95867, Note_on_c, 0, 81, 87
2, 95870, Note_on_c, 0, 86, 0
2, 95892, Note_on_c, 0, 36, 0
2, 95897, Note_on_c, 0, 36, 68
2, 95918, Note_on_c, 0, 82, 93
2, 95946, Note_on_c, 0, 36, 0
2, 95946, Note_on_c, 0, 81, 0
2, 95966, Note_on_c, 0, 82, 0
2, 95968, Note_on_c, 0, 83, 77
2, 96007, Control_c, 0, 64, 127
2, 96019, Note_on_c, 0, 86, 80
2, 96019, Note_on_c, 0, 36, 78
2, 96058, Note_on_c, 0, 81, 94
2, 96115, Note_on_c, 0, 83, 0
2, 96132, Note_on_c, 0, 82, 92
2, 96138, Note_on_c, 0, 36, 0
2, 96149, Note_on_c, 0, 43, 84
2, 96158, Note_on_c, 0, 52, 88
2, 96161, Note_on_c, 0, 86, 0
2, 96164, Note_on_c, 0, 83, 96
2, 96184, Note_on_c, 0, 81, 0
2, 96190, Control_c, 0, 64, 0
2, 96190, Note_on_c, 0, 43, 0
2, 96191, Note_on_c, 0, 52, 0
2, 96197, Note_on_c, 0, 82, 0
2, 96212, Note_on_c, 0, 83, 0
2, 96275, Note_on_c, 0, 86, 105
2, 96281, Note_on_c, 0, 38, 91
2, 96314, Control_c, 0, 64, 127
2, 96472, Note_on_c, 0, 83, 87
2, 96491, Note_on_c, 0, 38, 0
2, 96498, Note_on_c, 0, 38, 81
2, 96535, Note_on_c, 0, 81, 85
2, 96568, Note_on_c, 0, 83, 0
2, 96574, Note_on_c, 0, 83, 77
2, 96629, Note_on_c, 0, 81, 0
2, 96633, Note_on_c, 0, 45, 82
2, 96633, Note_on_c, 0, 54, 83
2, 96634, Note_on_c, 0, 81, 91
2, 96681, Note_on_c, 0, 79, 82
2, 96737, Note_on_c, 0, 38, 0
2, 96741, Note_on_c, 0, 38, 84
2, 96747, Note_on_c, 0, 78, 93
2, 96798, Note_on_c, 0, 79, 0
2, 96804, Note_on_c, 0, 79, 77
2, 96825, Control_c, 0, 64, 0
2, 96833, Note_on_c, 0, 86, 0
2, 96834, Note_on_c, 0, 83, 0
2, 96836, Note_on_c, 0, 81, 0
2, 96837, Note_on_c, 0, 54, 0
2, 96860, Note_on_c, 0, 45, 0
2, 96860, Note_on_c, 0, 78, 0
2, 96867, Note_on_c, 0, 38, 0
2, 96870, Note_on_c, 0, 78, 90
2, 96874, Note_on_c, 0, 38, 69
2, 96883, Note_on_c, 0, 79, 0
2, 96907, Note_on_c, 0, 76, 84
2, 96920, Note_on_c, 0, 78, 0
2, 96962, Note_on_c, 0, 76, 0
2, 96965, Note_on_c, 0, 74, 77
2, 96998, Note_on_c, 0, 38, 0
2, 97002, Note_on_c, 0, 38, 69
2, 97016, Note_on_c, 0, 69, 79
2, 97021, Control_c, 0, 64, 127
2, 97052, Control_c, 0, 64, 0
2, 97086, Note_on_c, 0, 70, 89
2, 97148, Note_on_c, 0, 45, 81
2, 97150, Note_on_c, 0, 54, 85
2, 97156, Note_on_c, 0, 71, 91
2, 97213, Note_on_c, 0, 38, 0
2, 97218, Note_on_c, 0, 38, 74
2, 97221, Note_on_c, 0, 74, 0
2, 97230, Note_on_c, 0, 74, 88
2, 97247, Note_on_c, 0, 45, 0
2, 97252, Note_on_c, 0, 71, 0
2, 97259, Note_on_c, 0, 69, 0
2, 97267, Note_on_c, 0, 70, 0
2, 97274, Note_on_c, 0, 54, 0
2, 97288, Note_on_c, 0, 74, 0
2, 97290, Note_on_c, 0, 38, 0
2, 97302, Note_on_c, 0, 75, 81
2, 97332, Note_on_c, 0, 75, 0
2, 97352, Note_on_c, 0, 76, 108
2, 97375, Note_on_c, 0, 40, 91
2, 97377, Note_on_c, 0, 28, 96
2, 97405, Control_c, 0, 64, 127
2, 97512, Note_on_c, 0, 28, 0
2, 97512, Note_on_c, 0, 40, 0
2, 97517, Note_on_c, 0, 40, 70
2, 97517, Note_on_c, 0, 28, 76
2, 97555, Note_on_c, 0, 28, 0
2, 97559, Note_on_c, 0, 76, 0
2, 97561, Note_on_c, 0, 40, 0
2, 97568, Control_c, 0, 64, 0
2, 97635, Note_on_c, 0, 64, 92
2, 97638, Note_on_c, 0, 59, 79
2, 97663, Note_on_c, 0, 64, 0
2, 97664, Note_on_c, 0, 59, 0
2, 97899, Note_on_c, 0, 64, 94
2, 97901, Note_on_c, 0, 59, 87
2, 98069, Note_on_c, 0, 64, 0
2, 98072, Note_on_c, 0, 59, 0
2, 98140, Note_on_c, 0, 64, 84
2, 98140, Note_on_c, 0, 59, 85
2, 98250, Note_on_c, 0, 59, 0
2, 98274, Note_on_c, 0, 62, 95
2, 98279, Note_on_c, 0, 57, 86
2, 98292, Note_on_c, 0, 40, 75
2, 98293, Note_on_c, 0, 28, 80
2, 98311, Note_on_c, 0, 64, 0
2, 98316, Note_on_c, 0, 57, 0
2, 98320, Note_on_c, 0, 62, 0
2, 98324, Note_on_c, 0, 40, 0
2, 98342, Note_on_c, 0, 28, 0
2, 98393, Note_on_c, 0, 64, 89
2, 98394, Note_on_c, 0, 59, 90
2, 98430, Note_on_c, 0, 64, 0
2, 98430, Note_on_c, 0, 59, 0
2, 98538, Note_on_c, 0, 28, 86
2, 98539, Note_on_c, 0, 40, 81
2, 98557, Control_c, 0, 64, 127
2, 98646, Note_on_c, 0, 64, 88
2, 98651, Note_on_c, 0, 59, 82
2, 98651, Note_on_c, 0, 47, 68
2, 98657, Note_on_c, 0, 47, 0
2, 98777, Note_on_c, 0, 62, 93
2, 98782, Note_on_c, 0, 57, 82
2, 98784, Note_on_c, 0, 52, 80
2, 98828, Note_on_c, 0, 64, 0
2, 98828, Control_c, 0, 64, 0
2, 98829, Note_on_c, 0, 59, 0
2, 98831, Note_on_c, 0, 52, 0
2, 98832, Note_on_c, 0, 62, 0
2, 98833, Note_on_c, 0, 57, 0
2, 98833, Note_on_c, 0, 28, 0
2, 98833, Note_on_c, 0, 40, 0
2, 98892, Note_on_c, 0, 40, 74
2, 98894, Note_on_c, 0, 64, 94
2, 98898, Note_on_c, 0, 59, 86
2, 98941, Control_c, 0, 64, 127
2, 98959, Note_on_c, 0, 47, 79
2, 99057, Note_on_c, 0, 52, 74
2, 99145, Note_on_c, 0, 67, 97
2, 99148, Note_on_c, 0, 55, 89
2, 99149, Note_on_c, 0, 62, 96
2, 99288, Control_c, 0, 64, 0
2, 99296, Note_on_c, 0, 47, 0
2, 99296, Note_on_c, 0, 52, 0
2, 99297, Note_on_c, 0, 55, 0
2, 99298, Note_on_c, 0, 67, 0
2, 99298, Note_on_c, 0, 59, 0
2, 99298, Note_on_c, 0, 62, 0
2, 99310, Note_on_c, 0, 40, 0
2, 99317, Note_on_c, 0, 64, 0
2, 99397, Note_on_c, 0, 48, 99
2, 99398, Note_on_c, 0, 43, 85
2, 99400, Note_on_c, 0, 36, 89
2, 99417, Control_c, 0, 64, 127
2, 99532, Note_on_c, 0, 36, 0
2, 99532, Note_on_c, 0, 43, 0
2, 99532, Note_on_c, 0, 48, 0
2, 99536, Note_on_c, 0, 43, 81
2, 99537, Note_on_c, 0, 48, 98
2, 99538, Note_on_c, 0, 36, 86
2, 99561, Control_c, 0, 64, 0
2, 99568, Note_on_c, 0, 36, 0
2, 99569, Note_on_c, 0, 43, 0
2, 99586, Note_on_c, 0, 48, 0
2, 99652, Note_on_c, 0, 64, 93
2, 99653, Note_on_c, 0, 60, 89
2, 99682, Note_on_c, 0, 60, 0
2, 99683, Note_on_c, 0, 64, 0
2, 99911, Note_on_c, 0, 64, 98
2, 99912, Note_on_c, 0, 60, 92
2, 99940, Note_on_c, 0, 60, 0
2, 99955, Control_c, 0, 64, 127
2, 100144, Note_on_c, 0, 71, 95
2, 100250, Control_c, 0, 64, 0
2, 100251, Note_on_c, 0, 71, 0
2, 100266, Note_on_c, 0, 43, 82
2, 100266, Note_on_c, 0, 48, 83
2, 100267, Note_on_c, 0, 36, 79
2, 100293, Note_on_c, 0, 64, 0
2, 100302, Note_on_c, 0, 48, 0
2, 100303, Note_on_c, 0, 36, 0
2, 100304, Note_on_c, 0, 43, 0
2, 100389, Note_on_c, 0, 86, 103
2, 100394, Note_on_c, 0, 81, 97
2, 100395, Note_on_c, 0, 74, 102
2, 100400, Control_c, 0, 64, 127
2, 100403, Note_on_c, 0, 45, 97
2, 100404, Note_on_c, 0, 38, 93
2, 100404, Note_on_c, 0, 50, 95
2, 100535, Note_on_c, 0, 74, 0
2, 100535, Note_on_c, 0, 81, 0
2, 100535, Note_on_c, 0, 86, 0
2, 100536, Control_c, 0, 64, 0
2, 100554, Note_on_c, 0, 38, 0
2, 100554, Note_on_c, 0, 45, 0
2, 100554, Note_on_c, 0, 50, 0
2, 100559, Note_on_c, 0, 38, 86
2, 100559, Note_on_c, 0, 45, 81
2, 100559, Note_on_c, 0, 50, 85
2, 100561, Note_on_c, 0, 83, 92
2, 100565, Note_on_c, 0, 71, 92
2, 100590, Note_on_c, 0, 71, 0
2, 100590, Note_on_c, 0, 83, 0
2, 100600, Note_on_c, 0, 45, 0
2, 100600, Note_on_c, 0, 50, 0
2, 100615, Note_on_c, 0, 38, 0
2, 100732, Note_on_c, 0, 81, 93
2, 100733, Note_on_c, 0, 69, 92
2, 100762, Note_on_c, 0, 69, 0
2, 100765, Note_on_c, 0, 81, 0
2, 100887, Note_on_c, 0, 76, 100
2, 100889, Note_on_c, 0, 83, 102
2, 100894, Note_on_c, 0, 71, 98
2, 100902, Note_on_c, 0, 50, 92
2, 100903, Note_on_c, 0, 38, 86
2, 100904, Note_on_c, 0, 45, 89
2, 100915, Control_c, 0, 64, 127
2, 101045, Note_on_c, 0, 38, 0
2, 101045, Note_on_c, 0, 45, 0
2, 101045, Note_on_c, 0, 50, 0
2, 101054, Note_on_c, 0, 50, 87
2, 101054, Note_on_c, 0, 76, 0
2, 101056, Note_on_c, 0, 45, 86
2, 101057, Note_on_c, 0, 38, 77
2, 101057, Note_on_c, 0, 81, 94
2, 101058, Note_on_c, 0, 69, 94
2, 101064, Control_c, 0, 64, 0
2, 101066, Note_on_c, 0, 83, 0
2, 101073, Note_on_c, 0, 71, 0
2, 101084, Note_on_c, 0, 50, 0
2, 101088, Note_on_c, 0, 69, 0
2, 101089, Note_on_c, 0, 81, 0
2, 101107, Note_on_c, 0, 38, 0
2, 101107, Note_on_c, 0, 45, 0
2, 101212, Note_on_c, 0, 79, 99
2, 101213, Note_on_c, 0, 67, 92
2, 101246, Note_on_c, 0, 79, 0
2, 101247, Note_on_c, 0, 67, 0
2, 101378, Note_on_c, 0, 81, 105
2, 101378, Note_on_c, 0, 69, 102
2, 101379, Note_on_c, 0, 40, 94
2, 101379, Note_on_c, 0, 76, 100
2, 101379, Note_on_c, 0, 28, 89
2, 101391, Control_c, 0, 64, 127
2, 101626, Note_on_c, 0, 52, 80
2, 101626, Note_on_c, 0, 47, 72
2, 101736, Note_on_c, 0, 47, 0
2, 101744, Note_on_c, 0, 40, 0
2, 101746, Note_on_c, 0, 83, 91
2, 101747, Note_on_c, 0, 47, 77
2, 101748, Note_on_c, 0, 40, 77
2, 101750, Note_on_c, 0, 71, 84
2, 101859, Note_on_c, 0, 40, 0
2, 101862, Note_on_c, 0, 69, 0
2, 101863, Note_on_c, 0, 81, 0
2, 101867, Note_on_c, 0, 83, 0
2, 101868, Note_on_c, 0, 40, 82
2, 101875, Note_on_c, 0, 71, 0
2, 101875, Note_on_c, 0, 76, 0
2, 101878, Note_on_c, 0, 83, 98
2, 101882, Note_on_c, 0, 47, 0
2, 101882, Control_c, 0, 64, 0
2, 101883, Note_on_c, 0, 71, 85
2, 101885, Note_on_c, 0, 76, 88
2, 101967, Control_c, 0, 64, 127
2, 101982, Note_on_c, 0, 40, 0
2, 101993, Note_on_c, 0, 40, 72
2, 102120, Note_on_c, 0, 52, 0
2, 102125, Note_on_c, 0, 47, 73
2, 102126, Note_on_c, 0, 52, 78
2, 102218, Note_on_c, 0, 59, 80
2, 102236, Note_on_c, 0, 40, 0
2, 102236, Note_on_c, 0, 47, 0
2, 102244, Note_on_c, 0, 47, 60
2, 102247, Note_on_c, 0, 40, 56
2, 102275, Note_on_c, 0, 62, 82
2, 102319, Note_on_c, 0, 64, 72
2, 102364, Note_on_c, 0, 67, 86
2, 102443, Note_on_c, 0, 62, 0
2, 102448, Note_on_c, 0, 62, 84
2, 102489, Note_on_c, 0, 40, 0
2, 102489, Note_on_c, 0, 47, 0
2, 102497, Note_on_c, 0, 64, 0
2, 102498, Note_on_c, 0, 47, 61
2, 102500, Note_on_c, 0, 40, 65
2, 102501, Note_on_c, 0, 64, 75
2, 102551, Note_on_c, 0, 67, 0
2, 102558, Note_on_c, 0, 67, 78
2, 102609, Note_on_c, 0, 69, 82
2, 102612, Note_on_c, 0, 40, 0
2, 102612, Note_on_c, 0, 47, 0
2, 102616, Note_on_c, 0, 47, 81
2, 102620, Note_on_c, 0, 52, 0
2, 102623, Note_on_c, 0, 40, 81
2, 102624, Note_on_c, 0, 52, 83
2, 102673, Note_on_c, 0, 64, 0
2, 102685, Note_on_c, 0, 64, 75
2, 102727, Note_on_c, 0, 67, 0
2, 102735, Note_on_c, 0, 40, 0
2, 102735, Note_on_c, 0, 47, 0
2, 102738, Note_on_c, 0, 67, 76
2, 102739, Note_on_c, 0, 40, 74
2, 102740, Note_on_c, 0, 47, 72
2, 102796, Note_on_c, 0, 69, 0
2, 102803, Note_on_c, 0, 69, 71
2, 102842, Note_on_c, 0, 40, 0
2, 102842, Note_on_c, 0, 47, 0
2, 102847, Note_on_c, 0, 47, 72
2, 102850, Note_on_c, 0, 71, 0
2, 102850, Note_on_c, 0, 40, 78
2, 102856, Note_on_c, 0, 71, 83
2, 102927, Note_on_c, 0, 67, 0
2, 102938, Note_on_c, 0, 67, 86
2, 102981, Note_on_c, 0, 40, 0
2, 102985, Note_on_c, 0, 40, 75
2, 102988, Note_on_c, 0, 69, 0
2, 102993, Note_on_c, 0, 69, 83
2, 103042, Note_on_c, 0, 71, 0
2, 103053, Note_on_c, 0, 71, 79
2, 103073, Control_c, 0, 64, 0
2, 103080, Note_on_c, 0, 83, 0
2, 103088, Note_on_c, 0, 47, 0
2, 103096, Note_on_c, 0, 52, 0
2, 103097, Note_on_c, 0, 47, 85
2, 103100, Note_on_c, 0, 74, 85
2, 103100, Note_on_c, 0, 52, 87
2, 103150, Note_on_c, 0, 28, 0
2, 103157, Control_c, 0, 64, 127
2, 103165, Note_on_c, 0, 69, 0
2, 103176, Note_on_c, 0, 69, 73
2, 103211, Note_on_c, 0, 40, 0
2, 103211, Note_on_c, 0, 71, 0
2, 103222, Note_on_c, 0, 71, 82
2, 103222, Note_on_c, 0, 40, 75
2, 103272, Note_on_c, 0, 74, 0
2, 103282, Note_on_c, 0, 74, 80
2, 103285, Note_on_c, 0, 52, 0
2, 103285, Control_c, 0, 64, 0
2, 103286, Note_on_c, 0, 76, 0
2, 103286, Note_on_c, 0, 47, 0
2, 103286, Note_on_c, 0, 40, 0
2, 103287, Note_on_c, 0, 69, 0
2, 103287, Note_on_c, 0, 71, 0
2, 103296, Note_on_c, 0, 59, 0
2, 103303, Note_on_c, 0, 64, 0
2, 103311, Note_on_c, 0, 62, 0
2, 103319, Note_on_c, 0, 67, 0
2, 103331, Note_on_c, 0, 36, 93
2, 103332, Note_on_c, 0, 76, 87
2, 103334, Note_on_c, 0, 74, 0
2, 103365, Control_c, 0, 64, 127
2, 103398, Note_on_c, 0, 71, 86
2, 103449, Note_on_c, 0, 36, 0
2, 103457, Note_on_c, 0, 74, 77
2, 103460, Note_on_c, 0, 36, 69
2, 103511, Note_on_c, 0, 76, 0
2, 103521, Note_on_c, 0, 76, 75
2, 103582, Note_on_c, 0, 79, 91
2, 103583, Note_on_c, 0, 52, 87
2, 103583, Note_on_c, 0, 43, 75
2, 103641, Note_on_c, 0, 74, 0
2, 103645, Note_on_c, 0, 74, 78
2, 103680, Note_on_c, 0, 36, 0
2, 103680, Note_on_c, 0, 76, 0
2, 103689, Note_on_c, 0, 36, 78
2, 103691, Note_on_c, 0, 76, 85
2, 103756, Note_on_c, 0, 79, 0
2, 103760, Note_on_c, 0, 79, 83
2, 103790, Note_on_c, 0, 74, 0
2, 103791, Note_on_c, 0, 71, 0
2, 103791, Note_on_c, 0, 43, 0
2, 103791, Note_on_c, 0, 52, 0
2, 103793, Note_on_c, 0, 79, 0
2, 103797, Control_c, 0, 64, 0
2, 103802, Note_on_c, 0, 36, 0
2, 103809, Note_on_c, 0, 36, 83
2, 103810, Note_on_c, 0, 76, 0
2, 103821, Note_on_c, 0, 81, 81
2, 103832, Note_on_c, 0, 83, 68
2, 103879, Note_on_c, 0, 76, 83
2, 103879, Control_c, 0, 64, 127
2, 103887, Note_on_c, 0, 81, 0
2, 103933, Note_on_c, 0, 36, 0
2, 103940, Note_on_c, 0, 36, 86
2, 103943, Note_on_c, 0, 79, 92
2, 104000, Note_on_c, 0, 81, 82
2, 104040, Note_on_c, 0, 83, 0
2, 104050, Note_on_c, 0, 83, 89
2, 104056, Note_on_c, 0, 52, 86
2, 104102, Note_on_c, 0, 79, 0
2, 104110, Note_on_c, 0, 79, 80
2, 104163, Note_on_c, 0, 81, 0
2, 104170, Note_on_c, 0, 81, 82
2, 104174, Note_on_c, 0, 43, 80
2, 104209, Note_on_c, 0, 83, 0
2, 104221, Note_on_c, 0, 83, 87
2, 104245, Note_on_c, 0, 36, 0
2, 104245, Note_on_c, 0, 52, 0
2, 104245, Note_on_c, 0, 81, 0
2, 104245, Note_on_c, 0, 43, 0
2, 104245, Note_on_c, 0, 76, 0
2, 104246, Note_on_c, 0, 83, 0
2, 104247, Control_c, 0, 64, 0
2, 104263, Note_on_c, 0, 79, 0
2, 104301, Note_on_c, 0, 88, 103
2, 104310, Note_on_c, 0, 76, 98
2, 104312, Note_on_c, 0, 38, 89
2, 104355, Control_c, 0, 64, 127
2, 104560, Note_on_c, 0, 86, 98
2, 104566, Note_on_c, 0, 57, 72
2, 104566, Note_on_c, 0, 62, 77
2, 104568, Note_on_c, 0, 74, 89
2, 104570, Note_on_c, 0, 54, 72
2, 104681, Note_on_c, 0, 50, 76
2, 104793, Note_on_c, 0, 50, 0
2, 104801, Note_on_c, 0, 38, 0
2, 104804, Note_on_c, 0, 50, 76
2, 104805, Note_on_c, 0, 83, 95
2, 104806, Note_on_c, 0, 38, 67
2, 104806, Note_on_c, 0, 71, 85
2, 104828, Note_on_c, 0, 81, 60
2, 104916, Note_on_c, 0, 38, 0
2, 104916, Note_on_c, 0, 50, 0
2, 104926, Note_on_c, 0, 38, 64
2, 104927, Note_on_c, 0, 50, 71
2, 105054, Note_on_c, 0, 54, 0
2, 105054, Note_on_c, 0, 62, 0
2, 105054, Note_on_c, 0, 74, 0
2, 105054, Note_on_c, 0, 86, 0
2, 105059, Note_on_c, 0, 54, 77
2, 105060, Note_on_c, 0, 86, 89
2, 105063, Note_on_c, 0, 62, 75
2, 105063, Note_on_c, 0, 74, 80
2, 105311, Note_on_c, 0, 71, 0
2, 105311, Note_on_c, 0, 50, 0
2, 105312, Note_on_c, 0, 54, 0
2, 105312, Note_on_c, 0, 74, 0
2, 105312, Note_on_c, 0, 83, 0
2, 105312, Note_on_c, 0, 86, 0
2, 105312, Note_on_c, 0, 62, 0
2, 105312, Note_on_c, 0, 57, 0
2, 105312, Note_on_c, 0, 38, 0
2, 105315, Control_c, 0, 64, 0
2, 105323, Note_on_c, 0, 76, 0
2, 105323, Note_on_c, 0, 81, 0
2, 105331, Note_on_c, 0, 88, 0
2, 105333, Note_on_c, 0, 64, 88
2, 105333, Note_on_c, 0, 48, 77
2, 105335, Note_on_c, 0, 55, 72
2, 105339, Note_on_c, 0, 88, 75
2, 105346, Note_on_c, 0, 86, 60
2, 105431, Control_c, 0, 64, 127
2, 105482, Note_on_c, 0, 76, 64
2, 105592, Note_on_c, 0, 88, 0
2, 105598, Note_on_c, 0, 88, 62
2, 105699, Note_on_c, 0, 76, 0
2, 105705, Note_on_c, 0, 59, 72
2, 105709, Note_on_c, 0, 76, 59
2, 105830, Note_on_c, 0, 59, 0
2, 105838, Note_on_c, 0, 88, 0
2, 105841, Note_on_c, 0, 59, 85
2, 105847, Note_on_c, 0, 88, 67
2, 105976, Note_on_c, 0, 76, 0
2, 105981, Note_on_c, 0, 76, 52
2, 106099, Note_on_c, 0, 88, 0
2, 106106, Note_on_c, 0, 88, 64
2, 106214, Note_on_c, 0, 59, 0
2, 106219, Note_on_c, 0, 59, 68
2, 106229, Note_on_c, 0, 76, 0
2, 106241, Note_on_c, 0, 76, 64
2, 106344, Note_on_c, 0, 48, 0
2, 106345, Note_on_c, 0, 88, 0
2, 106345, Note_on_c, 0, 55, 0
2, 106346, Note_on_c, 0, 59, 0
2, 106346, Note_on_c, 0, 64, 0
2, 106346, Note_on_c, 0, 76, 0
2, 106347, Control_c, 0, 64, 0
2, 106360, Note_on_c, 0, 86, 0
2, 106365, Note_on_c, 0, 86, 72
2, 106366, Note_on_c, 0, 43, 67
2, 106366, Note_on_c, 0, 57, 73
2, 106369, Note_on_c, 0, 50, 68
2, 106467, Control_c, 0, 64, 127
2, 106502, Note_on_c, 0, 74, 60
2, 106606, Note_on_c, 0, 86, 0
2, 106615, Note_on_c, 0, 86, 73
2, 106728, Note_on_c, 0, 74, 0
2, 106736, Note_on_c, 0, 62, 82
2, 106739, Note_on_c, 0, 74, 66
2, 106862, Note_on_c, 0, 59, 69
2, 106874, Note_on_c, 0, 86, 0
2, 106883, Note_on_c, 0, 86, 75
2, 106990, Note_on_c, 0, 74, 0
2, 106991, Note_on_c, 0, 76, 43
2, 106994, Note_on_c, 0, 74, 58
2, 106997, Note_on_c, 0, 76, 0
2, 107120, Note_on_c, 0, 86, 0
2, 107131, Note_on_c, 0, 86, 71
2, 107235, Note_on_c, 0, 59, 0
2, 107243, Note_on_c, 0, 74, 0
2, 107246, Note_on_c, 0, 59, 70
2, 107248, Note_on_c, 0, 74, 64
2, 107361, Note_on_c, 0, 62, 0
2, 107362, Note_on_c, 0, 74, 0
2, 107363, Note_on_c, 0, 59, 0
2, 107364, Control_c, 0, 64, 0
2, 107366, Note_on_c, 0, 43, 0
2, 107366, Note_on_c, 0, 57, 0
2, 107374, Note_on_c, 0, 50, 0
2, 107374, Note_on_c, 0, 86, 0
2, 107376, Note_on_c, 0, 57, 76
2, 107378, Note_on_c, 0, 86, 74
2, 107379, Note_on_c, 0, 50, 67
2, 107383, Note_on_c, 0, 54, 70
2, 107443, Control_c, 0, 64, 127
2, 107503, Note_on_c, 0, 74, 59
2, 107619, Note_on_c, 0, 86, 0
2, 107629, Note_on_c, 0, 86, 76
2, 107735, Note_on_c, 0, 74, 0
2, 107736, Note_on_c, 0, 59, 70
2, 107742, Note_on_c, 0, 74, 62
2, 107865, Note_on_c, 0, 57, 0
2, 107865, Note_on_c, 0, 86, 0
2, 107869, Note_on_c, 0, 57, 77
2, 107875, Note_on_c, 0, 86, 77
2, 107996, Note_on_c, 0, 74, 0
2, 108000, Note_on_c, 0, 74, 55
2, 108119, Note_on_c, 0, 57, 0
2, 108119, Note_on_c, 0, 59, 0
2, 108119, Note_on_c, 0, 86, 0
2, 108127, Note_on_c, 0, 86, 82
2, 108128, Note_on_c, 0, 59, 78
2, 108130, Note_on_c, 0, 57, 64
2, 108234, Note_on_c, 0, 74, 0
2, 108239, Note_on_c, 0, 74, 58
2, 108348, Note_on_c, 0, 57, 0
2, 108348, Note_on_c, 0, 50, 0
2, 108348, Note_on_c, 0, 54, 0
2, 108349, Note_on_c, 0, 74, 0
2, 108349, Control_c, 0, 64, 0
2, 108350, Note_on_c, 0, 59, 0
2, 108372, Note_on_c, 0, 86, 0
2, 108375, Note_on_c, 0, 62, 83
2, 108376, Note_on_c, 0, 86, 78
2, 108380, Note_on_c, 0, 52, 70
2, 108384, Note_on_c, 0, 55, 63
2, 108385, Note_on_c, 0, 83, 63
2, 108392, Note_on_c, 0, 79, 64
2, 108441, Control_c, 0, 64, 127
2, 108516, Note_on_c, 0, 74, 58
2, 108623, Note_on_c, 0, 59, 85
2, 108641, Note_on_c, 0, 86, 0
2, 108645, Note_on_c, 0, 86, 82
2, 108733, Note_on_c, 0, 74, 0
2, 108744, Note_on_c, 0, 74, 62
2, 108865, Note_on_c, 0, 52, 0
2, 108865, Note_on_c, 0, 55, 0
2, 108866, Note_on_c, 0, 79, 0
2, 108866, Note_on_c, 0, 59, 0
2, 108866, Note_on_c, 0, 83, 0
2, 108867, Control_c, 0, 64, 0
2, 108879, Note_on_c, 0, 62, 0
2, 108879, Note_on_c, 0, 74, 0
2, 108887, Note_on_c, 0, 86, 0
2, 108889, Note_on_c, 0, 62, 78
2, 108890, Note_on_c, 0, 54, 73
2, 108890, Note_on_c, 0, 74, 71
2, 108891, Note_on_c, 0, 86, 74
2, 108892, Note_on_c, 0, 81, 69
2, 108895, Note_on_c, 0, 78, 74
2, 108897, Note_on_c, 0, 50, 65
2, 108940, Control_c, 0, 64, 127
2, 109009, Note_on_c, 0, 74, 0
2, 109019, Note_on_c, 0, 74, 60
2, 109140, Note_on_c, 0, 86, 0
2, 109149, Note_on_c, 0, 86, 77
2, 109240, Note_on_c, 0, 74, 0
2, 109251, Note_on_c, 0, 74, 68
2, 109375, Control_c, 0, 64, 0
2, 109375, Note_on_c, 0, 50, 0
2, 109376, Note_on_c, 0, 81, 0
2, 109376, Note_on_c, 0, 86, 0
2, 109376, Note_on_c, 0, 62, 0
2, 109377, Note_on_c, 0, 54, 0
2, 109377, Note_on_c, 0, 78, 0
2, 109393, Note_on_c, 0, 74, 0
2, 109397, Note_on_c, 0, 88, 87
2, 109397, Note_on_c, 0, 48, 65
2, 109404, Note_on_c, 0, 79, 70
2, 109406, Note_on_c, 0, 76, 77
2, 109409, Note_on_c, 0, 79, 0
2, 109455, Control_c, 0, 64, 127
2, 109509, Note_on_c, 0, 48, 0
2, 109519, Note_on_c, 0, 55, 63
2, 109652, Note_on_c, 0, 64, 68
2, 109658, Note_on_c, 0, 60, 54
2, 109762, Note_on_c, 0, 55, 0
2, 109765, Note_on_c, 0, 83, 74
2, 109766, Note_on_c, 0, 55, 61
2, 109767, Note_on_c, 0, 71, 70
2, 109885, Note_on_c, 0, 64, 0
2, 109885, Note_on_c, 0, 71, 0
2, 109885, Note_on_c, 0, 83, 0
2, 109893, Note_on_c, 0, 60, 0
2, 109895, Note_on_c, 0, 83, 73
2, 109896, Note_on_c, 0, 64, 74
2, 109896, Note_on_c, 0, 71, 74
2, 109899, Note_on_c, 0, 60, 72
2, 110016, Note_on_c, 0, 55, 0
2, 110023, Note_on_c, 0, 55, 67
2, 110131, Note_on_c, 0, 60, 0
2, 110141, Note_on_c, 0, 60, 74
2, 110154, Note_on_c, 0, 64, 0
2, 110160, Note_on_c, 0, 64, 76
2, 110231, Note_on_c, 0, 55, 0
2, 110241, Note_on_c, 0, 55, 71
2, 110254, Note_on_c, 0, 83, 0
2, 110261, Note_on_c, 0, 83, 84
2, 110261, Note_on_c, 0, 71, 0
2, 110267, Note_on_c, 0, 71, 78
2, 110344, Note_on_c, 0, 60, 0
2, 110345, Note_on_c, 0, 76, 0
2, 110345, Note_on_c, 0, 55, 0
2, 110345, Note_on_c, 0, 64, 0
2, 110346, Note_on_c, 0, 71, 0
2, 110346, Note_on_c, 0, 83, 0
2, 110348, Control_c, 0, 64, 0
2, 110361, Note_on_c, 0, 88, 0
2, 110390, Note_on_c, 0, 43, 68
2, 110396, Note_on_c, 0, 81, 89
2, 110402, Note_on_c, 0, 69, 84
2, 110430, Control_c, 0, 64, 127
2, 110446, Note_on_c, 0, 69, 0
2, 110469, Note_on_c, 0, 81, 0
2, 110501, Note_on_c, 0, 55, 67
2, 110644, Note_on_c, 0, 91, 95
2, 110648, Note_on_c, 0, 62, 75
2, 110651, Note_on_c, 0, 59, 70
2, 110652, Note_on_c, 0, 79, 84
2, 110768, Note_on_c, 0, 55, 0
2, 110779, Note_on_c, 0, 55, 61
2, 110894, Note_on_c, 0, 90, 97
2, 110899, Note_on_c, 0, 59, 0
2, 110899, Note_on_c, 0, 62, 0
2, 110901, Note_on_c, 0, 78, 89
2, 110907, Note_on_c, 0, 59, 78
2, 110910, Note_on_c, 0, 62, 77
2, 111022, Note_on_c, 0, 55, 0
2, 111033, Note_on_c, 0, 55, 68
2, 111133, Note_on_c, 0, 86, 99
2, 111144, Note_on_c, 0, 62, 0
2, 111148, Note_on_c, 0, 74, 88
2, 111152, Note_on_c, 0, 59, 0
2, 111154, Note_on_c, 0, 62, 89
2, 111156, Note_on_c, 0, 59, 76
2, 111161, Note_on_c, 0, 71, 71
2, 111168, Note_on_c, 0, 71, 0
2, 111229, Note_on_c, 0, 55, 0
2, 111235, Note_on_c, 0, 55, 69
2, 111327, Note_on_c, 0, 90, 0
2, 111328, Note_on_c, 0, 78, 0
2, 111328, Note_on_c, 0, 62, 0
2, 111328, Note_on_c, 0, 55, 0
2, 111328, Note_on_c, 0, 91, 0
2, 111329, Note_on_c, 0, 86, 0
2, 111329, Note_on_c, 0, 59, 0
2, 111329, Note_on_c, 0, 74, 0
2, 111330, Note_on_c, 0, 79, 0
2, 111330, Control_c, 0, 64, 0
2, 111344, Note_on_c, 0, 43, 0
2, 111388, Note_on_c, 0, 88, 96
2, 111395, Note_on_c, 0, 84, 84
2, 111397, Note_on_c, 0, 45, 84
2, 111397, Note_on_c, 0, 76, 87
2, 111402, Note_on_c, 0, 81, 78
2, 111436, Control_c, 0, 64, 127
2, 111505, Note_on_c, 0, 81, 0
2, 111505, Note_on_c, 0, 84, 0
2, 111514, Note_on_c, 0, 81, 70
2, 111515, Note_on_c, 0, 84, 71
2, 111529, Note_on_c, 0, 52, 71
2, 111636, Note_on_c, 0, 76, 0
2, 111644, Note_on_c, 0, 81, 0
2, 111647, Note_on_c, 0, 76, 61
2, 111651, Note_on_c, 0, 84, 0
2, 111653, Note_on_c, 0, 60, 69
2, 111653, Note_on_c, 0, 81, 59
2, 111656, Note_on_c, 0, 84, 60
2, 111759, Note_on_c, 0, 45, 0
2, 111759, Note_on_c, 0, 76, 0
2, 111759, Note_on_c, 0, 81, 0
2, 111759, Note_on_c, 0, 84, 0
2, 111763, Note_on_c, 0, 84, 76
2, 111765, Note_on_c, 0, 76, 74
2, 111766, Note_on_c, 0, 81, 71
2, 111769, Note_on_c, 0, 45, 79
2, 111882, Note_on_c, 0, 84, 0
2, 111889, Note_on_c, 0, 52, 0
2, 111889, Note_on_c, 0, 81, 0
2, 111893, Note_on_c, 0, 84, 71
2, 111893, Note_on_c, 0, 81, 60
2, 111894, Note_on_c, 0, 52, 74
2, 112005, Note_on_c, 0, 76, 0
2, 112005, Note_on_c, 0, 81, 0
2, 112012, Note_on_c, 0, 60, 0
2, 112013, Note_on_c, 0, 76, 71
2, 112014, Note_on_c, 0, 81, 72
2, 112016, Note_on_c, 0, 60, 73
2, 112135, Note_on_c, 0, 45, 0
2, 112135, Note_on_c, 0, 76, 0
2, 112135, Note_on_c, 0, 81, 0
2, 112135, Note_on_c, 0, 84, 0
2, 112140, Note_on_c, 0, 57, 69
2, 112140, Note_on_c, 0, 81, 73
2, 112141, Note_on_c, 0, 76, 67
2, 112144, Note_on_c, 0, 84, 67
2, 112146, Note_on_c, 0, 45, 71
2, 112250, Note_on_c, 0, 84, 0
2, 112260, Note_on_c, 0, 84, 88
2, 112266, Note_on_c, 0, 52, 0
2, 112266, Note_on_c, 0, 81, 0
2, 112271, Note_on_c, 0, 81, 65
2, 112272, Note_on_c, 0, 52, 82
2, 112333, Note_on_c, 0, 81, 0
2, 112333, Note_on_c, 0, 45, 0
2, 112333, Note_on_c, 0, 52, 0
2, 112333, Note_on_c, 0, 57, 0
2, 112333, Note_on_c, 0, 60, 0
2, 112334, Note_on_c, 0, 76, 0
2, 112335, Control_c, 0, 64, 0
2, 112336, Note_on_c, 0, 88, 0
2, 112350, Note_on_c, 0, 84, 0
2, 112389, Note_on_c, 0, 86, 99
2, 112392, Note_on_c, 0, 47, 84
2, 112399, Note_on_c, 0, 74, 88
2, 112400, Note_on_c, 0, 83, 83
2, 112400, Note_on_c, 0, 78, 85
2, 112435, Control_c, 0, 64, 127
2, 112512, Note_on_c, 0, 78, 0
2, 112519, Note_on_c, 0, 54, 69
2, 112523, Note_on_c, 0, 78, 60
2, 112527, Note_on_c, 0, 83, 0
2, 112532, Note_on_c, 0, 83, 56
2, 112634, Note_on_c, 0, 78, 0
2, 112634, Note_on_c, 0, 83, 0
2, 112640, Note_on_c, 0, 83, 73
2, 112641, Note_on_c, 0, 62, 76
2, 112642, Note_on_c, 0, 74, 0
2, 112645, Note_on_c, 0, 78, 72
2, 112648, Note_on_c, 0, 74, 68
2, 112650, Note_on_c, 0, 54, 0
2, 112661, Note_on_c, 0, 54, 47
2, 112757, Note_on_c, 0, 47, 0
2, 112757, Note_on_c, 0, 74, 0
2, 112757, Note_on_c, 0, 83, 0
2, 112765, Note_on_c, 0, 78, 0
2, 112767, Note_on_c, 0, 47, 80
2, 112767, Note_on_c, 0, 83, 77
2, 112769, Note_on_c, 0, 74, 78
2, 112770, Note_on_c, 0, 78, 81
2, 112888, Note_on_c, 0, 54, 0
2, 112888, Note_on_c, 0, 74, 0
2, 112888, Note_on_c, 0, 78, 0
2, 112892, Note_on_c, 0, 78, 82
2, 112896, Note_on_c, 0, 83, 0
2, 112897, Note_on_c, 0, 74, 71
2, 112898, Note_on_c, 0, 54, 74
2, 112906, Note_on_c, 0, 83, 60
2, 113003, Note_on_c, 0, 74, 0
2, 113003, Note_on_c, 0, 78, 0
2, 113003, Note_on_c, 0, 83, 0
2, 113007, Note_on_c, 0, 78, 77
2, 113009, Note_on_c, 0, 74, 81
2, 113010, Note_on_c, 0, 83, 80
2, 113011, Note_on_c, 0, 62, 0
2, 113021, Note_on_c, 0, 62, 79
2, 113126, Note_on_c, 0, 47, 0
2, 113135, Note_on_c, 0, 47, 84
2, 113141, Note_on_c, 0, 74, 0
2, 113141, Note_on_c, 0, 83, 0
2, 113146, Note_on_c, 0, 83, 77
2, 113149, Note_on_c, 0, 78, 0
2, 113151, Note_on_c, 0, 74, 80
2, 113155, Note_on_c, 0, 78, 75
2, 113256, Note_on_c, 0, 54, 0
2, 113256, Note_on_c, 0, 74, 0
2, 113256, Note_on_c, 0, 78, 0
2, 113256, Note_on_c, 0, 83, 0
2, 113264, Note_on_c, 0, 62, 0
2, 113266, Note_on_c, 0, 54, 74
2, 113266, Note_on_c, 0, 78, 87
2, 113267, Note_on_c, 0, 83, 73
2, 113268, Note_on_c, 0, 74, 78
2, 113268, Note_on_c, 0, 62, 69
2, 113273, Note_on_c, 0, 59, 63
2, 113343, Note_on_c, 0, 59, 0
2, 113343, Control_c, 0, 64, 0
2, 113343, Note_on_c, 0, 83, 0
2, 113343, Note_on_c, 0, 47, 0
2, 113344, Note_on_c, 0, 74, 0
2, 113344, Note_on_c, 0, 78, 0
2, 113344, Note_on_c, 0, 62, 0
2, 113344, Note_on_c, 0, 54, 0
2, 113345, Note_on_c, 0, 86, 0
2, 113376, Note_on_c, 0, 88, 97
2, 113378, Note_on_c, 0, 48, 90
2, 113381, Note_on_c, 0, 76, 90
2, 113418, Control_c, 0, 64, 127
2, 113448, Note_on_c, 0, 84, 94
2, 113515, Note_on_c, 0, 60, 77
2, 113520, Note_on_c, 0, 79, 85
2, 113520, Note_on_c, 0, 55, 68
2, 113564, Note_on_c, 0, 76, 0
2, 113568, Note_on_c, 0, 76, 64
2, 113610, Note_on_c, 0, 48, 0
2, 113621, Note_on_c, 0, 48, 90
2, 113629, Note_on_c, 0, 72, 88
2, 113690, Note_on_c, 0, 67, 73
2, 113725, Note_on_c, 0, 60, 0
2, 113733, Note_on_c, 0, 55, 0
2, 113736, Note_on_c, 0, 60, 82
2, 113743, Note_on_c, 0, 55, 73
2, 113757, Note_on_c, 0, 64, 86
2, 113798, Note_on_c, 0, 48, 0
2, 113798, Note_on_c, 0, 60, 0
2, 113799, Note_on_c, 0, 72, 0
2, 113799, Note_on_c, 0, 84, 0
2, 113800, Note_on_c, 0, 55, 0
2, 113801, Control_c, 0, 64, 0
2, 113801, Note_on_c, 0, 76, 0
2, 113802, Note_on_c, 0, 79, 0
2, 113803, Note_on_c, 0, 64, 0
2, 113803, Note_on_c, 0, 88, 0
2, 113809, Note_on_c, 0, 67, 0
2, 113815, Note_on_c, 0, 67, 85
2, 113860, Note_on_c, 0, 49, 89
2, 113863, Control_c, 0, 64, 127
2, 113875, Note_on_c, 0, 73, 94
2, 113962, Note_on_c, 0, 76, 82
2, 113975, Note_on_c, 0, 61, 79
2, 113984, Note_on_c, 0, 57, 77
2, 114010, Note_on_c, 0, 79, 91
2, 114058, Note_on_c, 0, 85, 86
2, 114109, Note_on_c, 0, 49, 0
2, 114113, Note_on_c, 0, 88, 92
2, 114113, Note_on_c, 0, 49, 93
2, 114170, Note_on_c, 0, 85, 0
2, 114175, Note_on_c, 0, 85, 89
2, 114216, Note_on_c, 0, 61, 0
2, 114216, Note_on_c, 0, 79, 0
2, 114223, Note_on_c, 0, 79, 90
2, 114224, Note_on_c, 0, 57, 0
2, 114227, Note_on_c, 0, 61, 84
2, 114232, Note_on_c, 0, 57, 79
2, 114289, Note_on_c, 0, 57, 0
2, 114290, Note_on_c, 0, 73, 0
2, 114290, Note_on_c, 0, 49, 0
2, 114290, Note_on_c, 0, 67, 0
2, 114290, Note_on_c, 0, 61, 0
2, 114291, Note_on_c, 0, 79, 0
2, 114292, Note_on_c, 0, 85, 0
2, 114292, Note_on_c, 0, 76, 0
2, 114294, Note_on_c, 0, 88, 0
2, 114297, Control_c, 0, 64, 0
2, 114343, Note_on_c, 0, 90, 111
2, 114344, Note_on_c, 0, 62, 103
2, 114346, Note_on_c, 0, 57, 99
2, 114350, Note_on_c, 0, 50, 95
2, 114353, Note_on_c, 0, 78, 106
2, 114353, Note_on_c, 0, 81, 98
2, 114358, Note_on_c, 0, 86, 95
2, 114370, Control_c, 0, 64, 127
2, 114377, Note_on_c, 0, 87, 61
2, 114462, Note_on_c, 0, 57, 0
2, 114470, Note_on_c, 0, 50, 0
2, 114470, Note_on_c, 0, 62, 0
2, 114474, Note_on_c, 0, 57, 91
2, 114474, Note_on_c, 0, 62, 93
2, 114476, Note_on_c, 0, 50, 84
2, 114593, Note_on_c, 0, 57, 0
2, 114593, Note_on_c, 0, 62, 0
2, 114597, Note_on_c, 0, 62, 101
2, 114602, Note_on_c, 0, 57, 92
2, 114610, Note_on_c, 0, 50, 0
2, 114612, Note_on_c, 0, 87, 0
2, 114614, Note_on_c, 0, 78, 0
2, 114614, Note_on_c, 0, 86, 0
2, 114617, Note_on_c, 0, 90, 0
2, 114619, Note_on_c, 0, 81, 0
2, 114640, Control_c, 0, 64, 0
2, 114662, Note_on_c, 0, 62, 0
2, 114677, Note_on_c, 0, 57, 0
2, 114839, Note_on_c, 0, 62, 98
2, 114840, Note_on_c, 0, 79, 108
2, 114844, Note_on_c, 0, 67, 99
2, 114846, Control_c, 0, 64, 127
2, 114866, Note_on_c, 0, 57, 79
2, 114958, Note_on_c, 0, 50, 88
2, 115018, Note_on_c, 0, 45, 84
2, 115069, Note_on_c, 0, 38, 94
2, 115198, Note_on_c, 0, 81, 101
2, 115202, Note_on_c, 0, 69, 95
2, 115279, Note_on_c, 0, 45, 0
2, 115279, Note_on_c, 0, 67, 0
2, 115279, Note_on_c, 0, 57, 0
2, 115280, Note_on_c, 0, 79, 0
2, 115280, Note_on_c, 0, 62, 0
2, 115280, Note_on_c, 0, 81, 0
2, 115280, Note_on_c, 0, 69, 0
2, 115280, Note_on_c, 0, 50, 0
2, 115280, Note_on_c, 0, 38, 0
2, 115281, Control_c, 0, 64, 0
2, 115317, Note_on_c, 0, 79, 93
2, 115319, Note_on_c, 0, 82, 104
2, 115320, Note_on_c, 0, 70, 104
2, 115324, Note_on_c, 0, 74, 92
2, 115324, Note_on_c, 0, 43, 98
2, 115325, Note_on_c, 0, 31, 100
2, 115345, Control_c, 0, 64, 127
2, 115470, Note_on_c, 0, 58, 87
2, 115576, Note_on_c, 0, 43, 0
2, 115584, Note_on_c, 0, 43, 91
2, 115683, Note_on_c, 0, 58, 0
2, 115695, Note_on_c, 0, 58, 87
2, 115696, Note_on_c, 0, 50, 71
2, 115814, Note_on_c, 0, 43, 0
2, 115824, Note_on_c, 0, 81, 103
2, 115825, Note_on_c, 0, 43, 95
2, 115825, Note_on_c, 0, 69, 92
2, 115952, Note_on_c, 0, 58, 0
2, 115961, Note_on_c, 0, 58, 86
2, 115965, Note_on_c, 0, 62, 61
2, 116075, Note_on_c, 0, 43, 0
2, 116080, Note_on_c, 0, 43, 88
2, 116190, Note_on_c, 0, 58, 0
2, 116194, Note_on_c, 0, 65, 98
2, 116194, Note_on_c, 0, 77, 99
2, 116195, Note_on_c, 0, 58, 82
2, 116264, Note_on_c, 0, 69, 0
2, 116264, Note_on_c, 0, 81, 0
2, 116264, Note_on_c, 0, 82, 0
2, 116264, Note_on_c, 0, 50, 0
2, 116265, Note_on_c, 0, 58, 0
2, 116265, Note_on_c, 0, 79, 0
2, 116265, Note_on_c, 0, 74, 0
2, 116266, Note_on_c, 0, 65, 0
2, 116266, Note_on_c, 0, 43, 0
2, 116266, Note_on_c, 0, 70, 0
2, 116267, Note_on_c, 0, 31, 0
2, 116270, Note_on_c, 0, 77, 0
2, 116270, Control_c, 0, 64, 0
2, 116282, Note_on_c, 0, 62, 0
2, 116321, Note_on_c, 0, 41, 93
2, 116322, Note_on_c, 0, 74, 101
2, 116324, Note_on_c, 0, 62, 98
2, 116330, Note_on_c, 0, 69, 83
2, 116352, Control_c, 0, 64, 127
2, 116460, Note_on_c, 0, 53, 84
2, 116461, Note_on_c, 0, 57, 83
2, 116567, Note_on_c, 0, 41, 0
2, 116572, Note_on_c, 0, 41, 91
2, 116689, Note_on_c, 0, 53, 0
2, 116689, Note_on_c, 0, 57, 0
2, 116696, Note_on_c, 0, 57, 87
2, 116696, Note_on_c, 0, 53, 81
2, 116820, Note_on_c, 0, 41, 0
2, 116820, Note_on_c, 0, 62, 0
2, 116820, Note_on_c, 0, 74, 0
2, 116828, Note_on_c, 0, 57, 0
2, 116829, Note_on_c, 0, 74, 101
2, 116831, Note_on_c, 0, 41, 91
2, 116831, Note_on_c, 0, 62, 100
2, 116839, Note_on_c, 0, 57, 82
2, 116943, Note_on_c, 0, 53, 0
2, 116951, Note_on_c, 0, 57, 0
2, 116952, Note_on_c, 0, 53, 84
2, 116961, Note_on_c, 0, 57, 80
2, 117066, Note_on_c, 0, 41, 0
2, 117076, Note_on_c, 0, 41, 84
2, 117196, Note_on_c, 0, 53, 0
2, 117196, Note_on_c, 0, 57, 0
2, 117201, Note_on_c, 0, 53, 86
2, 117203, Note_on_c, 0, 41, 0
2, 117203, Note_on_c, 0, 77, 102
2, 117206, Note_on_c, 0, 69, 0
2, 117207, Note_on_c, 0, 57, 84
2, 117207, Note_on_c, 0, 65, 93
2, 117283, Note_on_c, 0, 62, 0
2, 117283, Note_on_c, 0, 57, 0
2, 117283, Note_on_c, 0, 65, 0
2, 117283, Note_on_c, 0, 74, 0
2, 117283, Note_on_c, 0, 53, 0
2, 117284, Note_on_c, 0, 77, 0
2, 117288, Control_c, 0, 64, 0
2, 117330, Note_on_c, 0, 79, 106
2, 117331, Note_on_c, 0, 67, 99
2, 117332, Note_on_c, 0, 39, 84
2, 117337, Note_on_c, 0, 75, 95
2, 117365, Control_c, 0, 64, 127
2, 117450, Note_on_c, 0, 55, 80
2, 117495, Note_on_c, 0, 50, 54
2, 117571, Note_on_c, 0, 46, 65
2, 117696, Note_on_c, 0, 55, 0
2, 117699, Note_on_c, 0, 82, 96
2, 117699, Note_on_c, 0, 51, 81
2, 117700, Note_on_c, 0, 55, 74
2, 117701, Note_on_c, 0, 70, 94
2, 117779, Note_on_c, 0, 79, 0
2, 117780, Note_on_c, 0, 55, 0
2, 117781, Note_on_c, 0, 70, 0
2, 117781, Note_on_c, 0, 82, 0
2, 117782, Control_c, 0, 64, 0
2, 117783, Note_on_c, 0, 75, 0
2, 117788, Note_on_c, 0, 39, 0
2, 117788, Note_on_c, 0, 67, 0
2, 117795, Note_on_c, 0, 51, 0
2, 117803, Note_on_c, 0, 46, 0
2, 117803, Note_on_c, 0, 50, 0
2, 117821, Note_on_c, 0, 81, 103
2, 117822, Note_on_c, 0, 41, 92
2, 117824, Note_on_c, 0, 69, 96
2, 117824, Note_on_c, 0, 72, 92
2, 117826, Note_on_c, 0, 77, 90
2, 117849, Control_c, 0, 64, 127
2, 117961, Note_on_c, 0, 53, 73
2, 117961, Note_on_c, 0, 57, 73
2, 118064, Note_on_c, 0, 41, 0
2, 118068, Note_on_c, 0, 41, 84
2, 118187, Note_on_c, 0, 53, 0
2, 118187, Note_on_c, 0, 57, 0
2, 118187, Note_on_c, 0, 77, 0
2, 118191, Note_on_c, 0, 77, 98
2, 118194, Note_on_c, 0, 65, 90
2, 118196, Note_on_c, 0, 53, 79
2, 118197, Note_on_c, 0, 57, 84
2, 118255, Note_on_c, 0, 41, 0
2, 118256, Note_on_c, 0, 81, 0
2, 118256, Note_on_c, 0, 57, 0
2, 118257, Note_on_c, 0, 69, 0
2, 118258, Note_on_c, 0, 53, 0
2, 118258, Control_c, 0, 64, 0
2, 118259, Note_on_c, 0, 72, 0
2, 118259, Note_on_c, 0, 65, 0
2, 118260, Note_on_c, 0, 77, 0
2, 118327, Note_on_c, 0, 46, 88
2, 118328, Note_on_c, 0, 74, 102
2, 118329, Note_on_c, 0, 62, 97
2, 118329, Note_on_c, 0, 65, 84
2, 118330, Note_on_c, 0, 34, 89
2, 118330, Note_on_c, 0, 70, 85
2, 118354, Note_on_c, 0, 46, 0
2, 118364, Control_c, 0, 64, 127
2, 118444, Note_on_c, 0, 50, 76
2, 118445, Note_on_c, 0, 46, 88
2, 118563, Note_on_c, 0, 34, 0
2, 118574, Note_on_c, 0, 34, 79
2, 118686, Note_on_c, 0, 46, 0
2, 118686, Note_on_c, 0, 50, 0
2, 118691, Note_on_c, 0, 46, 78
2, 118695, Note_on_c, 0, 50, 65
2, 118809, Note_on_c, 0, 34, 0
2, 118816, Note_on_c, 0, 34, 78
2, 118924, Note_on_c, 0, 50, 0
2, 118932, Note_on_c, 0, 46, 0
2, 118935, Note_on_c, 0, 50, 82
2, 118937, Note_on_c, 0, 46, 78
2, 119038, Note_on_c, 0, 70, 0
2, 119038, Note_on_c, 0, 46, 0
2, 119043, Control_c, 0, 64, 0
2, 119055, Note_on_c, 0, 34, 0
2, 119055, Note_on_c, 0, 50, 0
2, 119055, Note_on_c, 0, 62, 0
2, 119055, Note_on_c, 0, 74, 0
2, 119061, Note_on_c, 0, 74, 100
2, 119062, Note_on_c, 0, 62, 102
2, 119062, Note_on_c, 0, 35, 82
2, 119063, Note_on_c, 0, 65, 0
2, 119109, Control_c, 0, 64, 127
2, 119186, Note_on_c, 0, 47, 74
2, 119297, Note_on_c, 0, 60, 92
2, 119299, Note_on_c, 0, 62, 0
2, 119299, Note_on_c, 0, 48, 85
2, 119302, Note_on_c, 0, 36, 84
2, 119303, Note_on_c, 0, 72, 90
2, 119304, Note_on_c, 0, 63, 86
2, 119305, Note_on_c, 0, 74, 0
2, 119328, Note_on_c, 0, 48, 0
2, 119347, Note_on_c, 0, 35, 0
2, 119370, Note_on_c, 0, 60, 0
2, 119370, Note_on_c, 0, 63, 0
2, 119370, Note_on_c, 0, 72, 0
2, 119376, Note_on_c, 0, 72, 95
2, 119379, Note_on_c, 0, 63, 90
2, 119380, Note_on_c, 0, 48, 78
2, 119381, Note_on_c, 0, 60, 89
2, 119411, Note_on_c, 0, 51, 68
2, 119447, Note_on_c, 0, 48, 0
2, 119447, Note_on_c, 0, 72, 0
2, 119454, Note_on_c, 0, 48, 73
2, 119454, Note_on_c, 0, 60, 0
2, 119454, Note_on_c, 0, 63, 0
2, 119457, Note_on_c, 0, 72, 88
2, 119458, Note_on_c, 0, 60, 87
2, 119459, Note_on_c, 0, 63, 83
2, 119485, Control_c, 0, 64, 0
2, 119531, Note_on_c, 0, 48, 0
2, 119531, Note_on_c, 0, 60, 0
2, 119531, Note_on_c, 0, 63, 0
2, 119531, Note_on_c, 0, 72, 0
2, 119539, Note_on_c, 0, 48, 83
2, 119540, Note_on_c, 0, 60, 87
2, 119541, Note_on_c, 0, 63, 94
2, 119541, Note_on_c, 0, 72, 89
2, 119577, Note_on_c, 0, 47, 0
2, 119608, Note_on_c, 0, 36, 0
2, 119616, Note_on_c, 0, 72, 0
2, 119623, Note_on_c, 0, 48, 0
2, 119623, Note_on_c, 0, 51, 0
2, 119623, Note_on_c, 0, 60, 0
2, 119623, Note_on_c, 0, 63, 0
2, 119627, Note_on_c, 0, 72, 93
2, 119627, Note_on_c, 0, 63, 91
2, 119627, Note_on_c, 0, 60, 93
2, 119634, Note_on_c, 0, 51, 77
2, 119634, Note_on_c, 0, 48, 82
2, 119662, Control_c, 0, 64, 127
2, 119708, Note_on_c, 0, 60, 0
2, 119708, Note_on_c, 0, 63, 0
2, 119708, Note_on_c, 0, 72, 0
2, 119718, Note_on_c, 0, 72, 81
2, 119718, Note_on_c, 0, 60, 89
2, 119719, Note_on_c, 0, 63, 81
2, 119769, Control_c, 0, 64, 0
2, 119777, Note_on_c, 0, 48, 0
2, 119784, Note_on_c, 0, 60, 0
2, 119784, Note_on_c, 0, 63, 0
2, 119784, Note_on_c, 0, 72, 0
2, 119787, Note_on_c, 0, 48, 87
2, 119789, Note_on_c, 0, 60, 90
2, 119790, Note_on_c, 0, 36, 93
2, 119790, Note_on_c, 0, 72, 97
2, 119794, Note_on_c, 0, 63, 92
2, 119861, Control_c, 0, 64, 127
2, 119923, Note_on_c, 0, 48, 0
2, 119930, Note_on_c, 0, 36, 0
2, 119934, Note_on_c, 0, 48, 79
2, 119935, Note_on_c, 0, 36, 76
2, 119946, Note_on_c, 0, 60, 0
2, 119946, Note_on_c, 0, 63, 0
2, 119946, Note_on_c, 0, 72, 0
2, 119954, Note_on_c, 0, 63, 74
2, 119955, Note_on_c, 0, 60, 93
2, 119956, Note_on_c, 0, 72, 90
2, 120030, Note_on_c, 0, 36, 0
2, 120030, Note_on_c, 0, 60, 0
2, 120030, Note_on_c, 0, 63, 0
2, 120030, Note_on_c, 0, 72, 0
2, 120040, Note_on_c, 0, 60, 89
2, 120040, Note_on_c, 0, 72, 98
2, 120041, Note_on_c, 0, 36, 85
2, 120041, Note_on_c, 0, 63, 89
2, 120161, Note_on_c, 0, 51, 0
2, 120167, Note_on_c, 0, 51, 70
2, 120200, Note_on_c, 0, 74, 87
2, 120202, Note_on_c, 0, 36, 0
2, 120202, Note_on_c, 0, 60, 0
2, 120202, Control_c, 0, 64, 0
2, 120203, Note_on_c, 0, 62, 96
2, 120204, Note_on_c, 0, 72, 0
2, 120205, Note_on_c, 0, 63, 0
2, 120208, Note_on_c, 0, 51, 0
2, 120215, Note_on_c, 0, 48, 0
2, 120226, Note_on_c, 0, 74, 0
2, 120245, Note_on_c, 0, 62, 0
2, 120285, Note_on_c, 0, 72, 103
2, 120285, Note_on_c, 0, 38, 90
2, 120288, Note_on_c, 0, 60, 98
2, 120290, Note_on_c, 0, 69, 92
2, 120291, Note_on_c, 0, 65, 85
2, 120337, Note_on_c, 0, 60, 0
2, 120345, Control_c, 0, 64, 127
2, 120415, Note_on_c, 0, 53, 78
2, 120416, Note_on_c, 0, 50, 80
2, 120522, Note_on_c, 0, 38, 0
2, 120532, Note_on_c, 0, 38, 68
2, 120546, Note_on_c, 0, 70, 77
2, 120560, Note_on_c, 0, 69, 0
2, 120568, Note_on_c, 0, 69, 55
2, 120668, Note_on_c, 0, 50, 0
2, 120668, Note_on_c, 0, 53, 0
2, 120675, Note_on_c, 0, 53, 78
2, 120676, Note_on_c, 0, 50, 80
2, 120704, Note_on_c, 0, 77, 96
2, 120731, Note_on_c, 0, 72, 0
2, 120731, Note_on_c, 0, 69, 0
2, 120733, Note_on_c, 0, 70, 0
2, 120733, Note_on_c, 0, 50, 0
2, 120733, Note_on_c, 0, 38, 0
2, 120734, Control_c, 0, 64, 0
2, 120737, Note_on_c, 0, 65, 0
2, 120744, Note_on_c, 0, 53, 0
2, 120772, Note_on_c, 0, 77, 0
2, 120779, Note_on_c, 0, 74, 102
2, 120786, Note_on_c, 0, 38, 77
2, 120821, Control_c, 0, 64, 127
2, 120917, Note_on_c, 0, 53, 81
2, 120917, Note_on_c, 0, 50, 74
2, 121021, Note_on_c, 0, 38, 0
2, 121032, Note_on_c, 0, 38, 81
2, 121034, Note_on_c, 0, 67, 97
2, 121036, Note_on_c, 0, 62, 80
2, 121144, Note_on_c, 0, 50, 0
2, 121144, Note_on_c, 0, 53, 0
2, 121154, Note_on_c, 0, 53, 89
2, 121155, Note_on_c, 0, 50, 81
2, 121234, Note_on_c, 0, 74, 0
2, 121235, Note_on_c, 0, 67, 0
2, 121239, Control_c, 0, 64, 0
2, 121251, Note_on_c, 0, 50, 0
2, 121251, Note_on_c, 0, 53, 0
2, 121259, Note_on_c, 0, 38, 0
2, 121259, Note_on_c, 0, 62, 0
2, 121285, Note_on_c, 0, 39, 88
2, 121286, Note_on_c, 0, 67, 97
2, 121286, Note_on_c, 0, 79, 108
2, 121291, Note_on_c, 0, 73, 74
2, 121293, Note_on_c, 0, 70, 87
2, 121320, Control_c, 0, 64, 127
2, 121359, Note_on_c, 0, 67, 0
2, 121359, Note_on_c, 0, 70, 0
2, 121359, Note_on_c, 0, 79, 0
2, 121364, Note_on_c, 0, 79, 108
2, 121370, Note_on_c, 0, 70, 98
2, 121370, Note_on_c, 0, 67, 95
2, 121380, Note_on_c, 0, 74, 61
2, 121408, Note_on_c, 0, 41, 46
2, 121413, Note_on_c, 0, 41, 0
2, 121443, Note_on_c, 0, 74, 0
2, 121443, Note_on_c, 0, 79, 0
2, 121450, Note_on_c, 0, 43, 62
2, 121451, Note_on_c, 0, 67, 0
2, 121451, Note_on_c, 0, 70, 0
2, 121453, Note_on_c, 0, 74, 67
2, 121454, Note_on_c, 0, 79, 94
2, 121455, Note_on_c, 0, 55, 76
2, 121455, Note_on_c, 0, 67, 86
2, 121459, Note_on_c, 0, 55, 0
2, 121460, Note_on_c, 0, 70, 78
2, 121520, Note_on_c, 0, 39, 0
2, 121520, Note_on_c, 0, 79, 0
2, 121525, Note_on_c, 0, 79, 108
2, 121528, Note_on_c, 0, 67, 0
2, 121528, Note_on_c, 0, 70, 0
2, 121528, Note_on_c, 0, 39, 84
2, 121534, Note_on_c, 0, 67, 93
2, 121534, Note_on_c, 0, 70, 92
2, 121662, Note_on_c, 0, 55, 75
2, 121669, Note_on_c, 0, 51, 77
2, 121689, Note_on_c, 0, 70, 0
2, 121689, Note_on_c, 0, 79, 0
2, 121695, Note_on_c, 0, 79, 103
2, 121700, Note_on_c, 0, 70, 94
2, 121723, Note_on_c, 0, 67, 0
2, 121724, Note_on_c, 0, 39, 0
2, 121726, Control_c, 0, 64, 0
2, 121728, Note_on_c, 0, 43, 0
2, 121735, Note_on_c, 0, 73, 0
2, 121743, Note_on_c, 0, 51, 0
2, 121751, Note_on_c, 0, 55, 0
2, 121766, Note_on_c, 0, 70, 0
2, 121766, Note_on_c, 0, 79, 0
2, 121770, Note_on_c, 0, 79, 102
2, 121776, Note_on_c, 0, 40, 88
2, 121777, Note_on_c, 0, 67, 101
2, 121777, Note_on_c, 0, 70, 101
2, 121789, Control_c, 0, 64, 127
2, 121900, Note_on_c, 0, 52, 85
2, 121916, Note_on_c, 0, 55, 63
2, 121923, Note_on_c, 0, 76, 61
2, 121927, Note_on_c, 0, 76, 0
2, 121935, Note_on_c, 0, 74, 0
2, 121941, Note_on_c, 0, 74, 79
2, 122019, Note_on_c, 0, 79, 0
2, 122027, Note_on_c, 0, 40, 0
2, 122027, Note_on_c, 0, 67, 0
2, 122030, Note_on_c, 0, 79, 103
2, 122031, Note_on_c, 0, 40, 88
2, 122033, Note_on_c, 0, 67, 91
2, 122150, Note_on_c, 0, 55, 0
2, 122154, Note_on_c, 0, 55, 80
2, 122165, Note_on_c, 0, 70, 0
2, 122173, Note_on_c, 0, 74, 0
2, 122175, Note_on_c, 0, 82, 99
2, 122177, Note_on_c, 0, 70, 90
2, 122182, Note_on_c, 0, 74, 68
2, 122231, Note_on_c, 0, 67, 0
2, 122232, Note_on_c, 0, 74, 0
2, 122232, Note_on_c, 0, 40, 0
2, 122232, Note_on_c, 0, 70, 0
2, 122232, Note_on_c, 0, 79, 0
2, 122232, Note_on_c, 0, 55, 0
2, 122232, Note_on_c, 0, 82, 0
2, 122233, Control_c, 0, 64, 0
2, 122250, Note_on_c, 0, 52, 0
2, 122275, Note_on_c, 0, 81, 106
2, 122275, Note_on_c, 0, 42, 98
2, 122281, Note_on_c, 0, 69, 99
2, 122283, Note_on_c, 0, 74, 99
2, 122284, Note_on_c, 0, 78, 93
2, 122319, Control_c, 0, 64, 127
2, 122406, Note_on_c, 0, 54, 79
2, 122407, Note_on_c, 0, 57, 85
2, 122519, Note_on_c, 0, 42, 0
2, 122524, Note_on_c, 0, 42, 93
2, 122626, Note_on_c, 0, 54, 0
2, 122626, Note_on_c, 0, 57, 0
2, 122630, Note_on_c, 0, 54, 78
2, 122630, Note_on_c, 0, 57, 81
2, 122726, Note_on_c, 0, 42, 0
2, 122728, Note_on_c, 0, 81, 0
2, 122728, Note_on_c, 0, 54, 0
2, 122729, Note_on_c, 0, 69, 0
2, 122729, Note_on_c, 0, 57, 0
2, 122729, Note_on_c, 0, 78, 0
2, 122730, Control_c, 0, 64, 0
2, 122741, Note_on_c, 0, 74, 0
2, 122764, Note_on_c, 0, 79, 106
2, 122770, Note_on_c, 0, 50, 102
2, 122770, Note_on_c, 0, 67, 95
2, 122771, Note_on_c, 0, 38, 92
2, 122775, Note_on_c, 0, 74, 86
2, 122803, Control_c, 0, 64, 127
2, 122874, Note_on_c, 0, 45, 89
2, 123002, Note_on_c, 0, 38, 0
2, 123010, Note_on_c, 0, 38, 88
2, 123013, Note_on_c, 0, 26, 91
2, 123018, Note_on_c, 0, 26, 0
2, 123132, Note_on_c, 0, 81, 99
2, 123136, Note_on_c, 0, 69, 91
2, 123195, Control_c, 0, 64, 0
2, 123195, Note_on_c, 0, 81, 0
2, 123196, Note_on_c, 0, 74, 0
2, 123196, Note_on_c, 0, 79, 0
2, 123196, Note_on_c, 0, 38, 0
2, 123196, Note_on_c, 0, 69, 0
2, 123197, Note_on_c, 0, 50, 0
2, 123202, Note_on_c, 0, 67, 0
2, 123210, Note_on_c, 0, 45, 0
2, 123259, Note_on_c, 0, 82, 106
2, 123260, Note_on_c, 0, 79, 97
2, 123260, Note_on_c, 0, 70, 103
2, 123261, Note_on_c, 0, 43, 98
2, 123262, Note_on_c, 0, 74, 93
2, 123265, Note_on_c, 0, 31, 96
2, 123287, Control_c, 0, 64, 127
2, 123408, Note_on_c, 0, 58, 89
2, 123509, Note_on_c, 0, 43, 0
2, 123520, Note_on_c, 0, 43, 86
2, 123632, Note_on_c, 0, 58, 0
2, 123641, Note_on_c, 0, 50, 77
2, 123642, Note_on_c, 0, 58, 78
2, 123763, Note_on_c, 0, 43, 0
2, 123768, Note_on_c, 0, 81, 103
2, 123770, Note_on_c, 0, 69, 99
2, 123773, Note_on_c, 0, 43, 90
2, 123924, Note_on_c, 0, 58, 0
2, 123929, Note_on_c, 0, 58, 72
2, 123939, Note_on_c, 0, 50, 0
2, 123943, Note_on_c, 0, 50, 57
2, 124024, Note_on_c, 0, 43, 0
2, 124031, Note_on_c, 0, 43, 82
2, 124139, Note_on_c, 0, 58, 0
2, 124141, Note_on_c, 0, 50, 0
2, 124145, Note_on_c, 0, 77, 94
2, 124146, Note_on_c, 0, 58, 90
2, 124148, Note_on_c, 0, 62, 72
2, 124148, Note_on_c, 0, 65, 85
2, 124218, Note_on_c, 0, 82, 0
2, 124218, Note_on_c, 0, 81, 0
2, 124218, Note_on_c, 0, 65, 0
2, 124218, Note_on_c, 0, 69, 0
2, 124219, Note_on_c, 0, 74, 0
2, 124219, Note_on_c, 0, 31, 0
2, 124219, Note_on_c, 0, 79, 0
2, 124219, Note_on_c, 0, 58, 0
2, 124219, Note_on_c, 0, 43, 0
2, 124219, Note_on_c, 0, 70, 0
2, 124220, Note_on_c, 0, 77, 0
2, 124222, Control_c, 0, 64, 0
2, 124224, Note_on_c, 0, 62, 0
2, 124269, Note_on_c, 0, 74, 99
2, 124272, Note_on_c, 0, 62, 92
2, 124272, Note_on_c, 0, 41, 89
2, 124273, Note_on_c, 0, 70, 80
2, 124277, Note_on_c, 0, 70, 0
2, 124316, Control_c, 0, 64, 127
2, 124404, Note_on_c, 0, 53, 83
2, 124406, Note_on_c, 0, 57, 78
2, 124523, Note_on_c, 0, 41, 0
2, 124531, Note_on_c, 0, 41, 76
2, 124654, Note_on_c, 0, 53, 0
2, 124654, Note_on_c, 0, 57, 0
2, 124658, Note_on_c, 0, 53, 74
2, 124665, Note_on_c, 0, 57, 67
2, 124769, Note_on_c, 0, 62, 0
2, 124769, Note_on_c, 0, 74, 0
2, 124774, Note_on_c, 0, 74, 100
2, 124776, Note_on_c, 0, 62, 95
2, 124776, Note_on_c, 0, 41, 0
2, 124788, Note_on_c, 0, 41, 85
2, 124884, Note_on_c, 0, 53, 0
2, 124892, Note_on_c, 0, 57, 0
2, 124895, Note_on_c, 0, 53, 83
2, 124902, Note_on_c, 0, 57, 69
2, 125015, Note_on_c, 0, 41, 0
2, 125019, Note_on_c, 0, 41, 83
2, 125137, Note_on_c, 0, 53, 0
2, 125145, Note_on_c, 0, 57, 0
2, 125146, Note_on_c, 0, 53, 80
2, 125149, Note_on_c, 0, 77, 100
2, 125154, Note_on_c, 0, 57, 71
2, 125155, Note_on_c, 0, 65, 92
2, 125211, Note_on_c, 0, 57, 0
2, 125211, Note_on_c, 0, 62, 0
2, 125212, Note_on_c, 0, 41, 0
2, 125212, Note_on_c, 0, 53, 0
2, 125213, Note_on_c, 0, 74, 0
2, 125214, Note_on_c, 0, 65, 0
2, 125216, Note_on_c, 0, 77, 0
2, 125217, Control_c, 0, 64, 0
2, 125273, Note_on_c, 0, 79, 103
2, 125278, Note_on_c, 0, 70, 97
2, 125280, Note_on_c, 0, 67, 93
2, 125280, Note_on_c, 0, 39, 84
2, 125282, Note_on_c, 0, 75, 93
2, 125306, Control_c, 0, 64, 127
2, 125395, Note_on_c, 0, 51, 85
2, 125396, Note_on_c, 0, 55, 79
2, 125514, Note_on_c, 0, 39, 0
2, 125523, Note_on_c, 0, 39, 77
2, 125637, Note_on_c, 0, 55, 0
2, 125644, Note_on_c, 0, 70, 0
2, 125647, Note_on_c, 0, 82, 96
2, 125648, Note_on_c, 0, 55, 84
2, 125651, Note_on_c, 0, 70, 98
2, 125652, Note_on_c, 0, 51, 0
2, 125658, Note_on_c, 0, 51, 83
2, 125666, Note_on_c, 0, 47, 67
2, 125675, Note_on_c, 0, 47, 0
2, 125686, Note_on_c, 0, 78, 50
2, 125705, Note_on_c, 0, 67, 0
2, 125707, Note_on_c, 0, 79, 0
2, 125707, Control_c, 0, 64, 0
2, 125708, Note_on_c, 0, 55, 0
2, 125709, Note_on_c, 0, 39, 0
2, 125709, Note_on_c, 0, 51, 0
2, 125709, Note_on_c, 0, 75, 0
2, 125709, Note_on_c, 0, 70, 0
2, 125709, Note_on_c, 0, 82, 0
2, 125719, Note_on_c, 0, 78, 0
2, 125771, Note_on_c, 0, 81, 104
2, 125771, Note_on_c, 0, 41, 93
2, 125772, Note_on_c, 0, 69, 93
2, 125774, Note_on_c, 0, 77, 92
2, 125774, Note_on_c, 0, 72, 92
2, 125796, Note_on_c, 0, 78, 61
2, 125797, Note_on_c, 0, 71, 58
2, 125798, Control_c, 0, 64, 127
2, 125901, Note_on_c, 0, 53, 87
2, 125902, Note_on_c, 0, 57, 81
2, 126005, Note_on_c, 0, 41, 0
2, 126011, Note_on_c, 0, 41, 83
2, 126128, Note_on_c, 0, 53, 0
2, 126136, Note_on_c, 0, 57, 0
2, 126136, Note_on_c, 0, 77, 0
2, 126139, Note_on_c, 0, 53, 85
2, 126139, Note_on_c, 0, 72, 0
2, 126140, Note_on_c, 0, 77, 96
2, 126142, Note_on_c, 0, 57, 82
2, 126210, Note_on_c, 0, 41, 0
2, 126210, Note_on_c, 0, 57, 0
2, 126211, Note_on_c, 0, 78, 0
2, 126212, Note_on_c, 0, 53, 0
2, 126212, Note_on_c, 0, 81, 0
2, 126213, Note_on_c, 0, 77, 0
2, 126213, Control_c, 0, 64, 0
2, 126220, Note_on_c, 0, 69, 0
2, 126220, Note_on_c, 0, 71, 0
2, 126269, Note_on_c, 0, 86, 109
2, 126270, Note_on_c, 0, 34, 90
2, 126271, Note_on_c, 0, 77, 97
2, 126272, Note_on_c, 0, 82, 95
2, 126276, Note_on_c, 0, 74, 102
2, 126297, Control_c, 0, 64, 127
2, 126400, Note_on_c, 0, 50, 76
2, 126401, Note_on_c, 0, 46, 74
2, 126512, Note_on_c, 0, 34, 0
2, 126517, Note_on_c, 0, 34, 87
2, 126635, Note_on_c, 0, 46, 0
2, 126635, Note_on_c, 0, 50, 0
2, 126645, Note_on_c, 0, 46, 88
2, 126646, Note_on_c, 0, 50, 85
2, 126758, Note_on_c, 0, 34, 0
2, 126765, Note_on_c, 0, 34, 85
2, 126873, Note_on_c, 0, 46, 0
2, 126873, Note_on_c, 0, 50, 0
2, 126881, Note_on_c, 0, 46, 91
2, 126884, Note_on_c, 0, 50, 78
2, 126976, Note_on_c, 0, 82, 0
2, 126976, Note_on_c, 0, 46, 0
2, 126977, Note_on_c, 0, 50, 0
2, 126977, Note_on_c, 0, 77, 0
2, 126977, Control_c, 0, 64, 0
2, 126977, Note_on_c, 0, 74, 0
2, 126996, Note_on_c, 0, 34, 0
2, 126996, Note_on_c, 0, 86, 0
2, 127007, Note_on_c, 0, 35, 90
2, 127007, Note_on_c, 0, 86, 106
2, 127012, Note_on_c, 0, 74, 105
2, 127042, Control_c, 0, 64, 127
2, 127123, Note_on_c, 0, 47, 80
2, 127195, Note_on_c, 0, 35, 0
2, 127196, Note_on_c, 0, 47, 0
2, 127196, Control_c, 0, 64, 0
2, 127197, Note_on_c, 0, 74, 0
2, 127197, Note_on_c, 0, 86, 0
2, 127253, Note_on_c, 0, 84, 105
2, 127255, Note_on_c, 0, 72, 98
2, 127255, Note_on_c, 0, 48, 96
2, 127259, Note_on_c, 0, 36, 94
2, 127280, Control_c, 0, 64, 127
2, 127326, Note_on_c, 0, 72, 0
2, 127326, Note_on_c, 0, 84, 0
2, 127331, Note_on_c, 0, 84, 90
2, 127332, Note_on_c, 0, 72, 84
2, 127416, Control_c, 0, 64, 0
2, 127423, Note_on_c, 0, 84, 0
2, 127427, Note_on_c, 0, 48, 0
2, 127464, Note_on_c, 0, 36, 0
2, 127477, Note_on_c, 0, 63, 97
2, 127482, Note_on_c, 0, 60, 76
2, 127485, Note_on_c, 0, 55, 85
2, 127490, Note_on_c, 0, 70, 95
2, 127490, Note_on_c, 0, 82, 92
2, 127490, Note_on_c, 0, 56, 82
2, 127495, Control_c, 0, 64, 127
2, 127640, Note_on_c, 0, 84, 96
2, 127682, Note_on_c, 0, 70, 0
2, 127682, Note_on_c, 0, 56, 0
2, 127682, Note_on_c, 0, 63, 0
2, 127682, Note_on_c, 0, 55, 0
2, 127682, Note_on_c, 0, 82, 0
2, 127683, Control_c, 0, 64, 0
2, 127683, Note_on_c, 0, 84, 0
2, 127687, Note_on_c, 0, 72, 0
2, 127695, Note_on_c, 0, 60, 0
2, 127731, Note_on_c, 0, 60, 94
2, 127736, Note_on_c, 0, 79, 107
2, 127736, Note_on_c, 0, 51, 81
2, 127737, Note_on_c, 0, 55, 88
2, 127741, Note_on_c, 0, 67, 101
2, 127742, Note_on_c, 0, 48, 81
2, 127764, Control_c, 0, 64, 127
2, 127800, Note_on_c, 0, 47, 46
2, 127985, Note_on_c, 0, 36, 95
2, 128017, Note_on_c, 0, 55, 0
2, 128017, Note_on_c, 0, 60, 0
2, 128021, Note_on_c, 0, 51, 0
2, 128021, Note_on_c, 0, 47, 0
2, 128022, Note_on_c, 0, 48, 0
2, 128022, Note_on_c, 0, 79, 0
2, 128023, Control_c, 0, 64, 0
2, 128029, Note_on_c, 0, 36, 0
2, 128033, Note_on_c, 0, 67, 0
2, 128163, Note_on_c, 0, 77, 92
2, 128209, Note_on_c, 0, 77, 0
2, 128244, Note_on_c, 0, 84, 108
2, 128247, Note_on_c, 0, 72, 99
2, 128248, Note_on_c, 0, 77, 89
2, 128248, Control_c, 0, 64, 127
2, 128251, Note_on_c, 0, 38, 98
2, 128253, Note_on_c, 0, 50, 99
2, 128325, Note_on_c, 0, 72, 0
2, 128325, Note_on_c, 0, 84, 0
2, 128330, Note_on_c, 0, 84, 106
2, 128334, Note_on_c, 0, 72, 89
2, 128468, Note_on_c, 0, 65, 92
2, 128469, Note_on_c, 0, 62, 83
2, 128471, Note_on_c, 0, 50, 0
2, 128474, Note_on_c, 0, 57, 87
2, 128481, Note_on_c, 0, 50, 79
2, 128482, Note_on_c, 0, 70, 92
2, 128483, Note_on_c, 0, 82, 90
2, 128503, Note_on_c, 0, 78, 72
2, 128572, Note_on_c, 0, 81, 64
2, 128624, Note_on_c, 0, 84, 0
2, 128634, Note_on_c, 0, 84, 97
2, 128660, Control_c, 0, 64, 0
2, 128661, Note_on_c, 0, 50, 0
2, 128661, Note_on_c, 0, 57, 0
2, 128661, Note_on_c, 0, 82, 0
2, 128662, Note_on_c, 0, 70, 0
2, 128662, Note_on_c, 0, 72, 0
2, 128662, Note_on_c, 0, 65, 0
2, 128663, Note_on_c, 0, 78, 0
2, 128663, Note_on_c, 0, 38, 0
2, 128686, Note_on_c, 0, 81, 0
2, 128693, Note_on_c, 0, 62, 0
2, 128693, Note_on_c, 0, 77, 0
2, 128693, Note_on_c, 0, 84, 0
2, 128699, Note_on_c, 0, 62, 92
2, 128704, Note_on_c, 0, 57, 89
2, 128735, Note_on_c, 0, 79, 109
2, 128735, Note_on_c, 0, 53, 71
2, 128738, Note_on_c, 0, 67, 101
2, 128738, Note_on_c, 0, 50, 77
2, 128739, Control_c, 0, 64, 127
2, 128862, Note_on_c, 0, 50, 0
2, 128873, Note_on_c, 0, 50, 80
2, 128967, Note_on_c, 0, 38, 85
2, 129061, Control_c, 0, 64, 0
2, 129062, Note_on_c, 0, 62, 0
2, 129062, Note_on_c, 0, 57, 0
2, 129063, Note_on_c, 0, 53, 0
2, 129063, Note_on_c, 0, 50, 0
2, 129065, Note_on_c, 0, 38, 0
2, 129065, Note_on_c, 0, 67, 0
2, 129065, Note_on_c, 0, 79, 0
2, 129112, Note_on_c, 0, 77, 94
2, 129149, Note_on_c, 0, 77, 0
2, 129229, Note_on_c, 0, 79, 109
2, 129234, Note_on_c, 0, 39, 88
2, 129234, Note_on_c, 0, 67, 101
2, 129235, Note_on_c, 0, 70, 101
2, 129237, Note_on_c, 0, 73, 80
2, 129246, Control_c, 0, 64, 127
2, 129355, Note_on_c, 0, 55, 72
2, 129355, Note_on_c, 0, 51, 74
2, 129469, Note_on_c, 0, 39, 0
2, 129469, Note_on_c, 0, 67, 0
2, 129469, Note_on_c, 0, 79, 0
2, 129475, Note_on_c, 0, 39, 94
2, 129477, Note_on_c, 0, 70, 0
2, 129477, Note_on_c, 0, 73, 0
2, 129480, Note_on_c, 0, 79, 105
2, 129480, Note_on_c, 0, 67, 101
2, 129484, Note_on_c, 0, 73, 87
2, 129485, Note_on_c, 0, 70, 97
2, 129607, Note_on_c, 0, 51, 0
2, 129607, Note_on_c, 0, 55, 0
2, 129613, Note_on_c, 0, 55, 79
2, 129613, Note_on_c, 0, 51, 81
2, 129619, Note_on_c, 0, 58, 70
2, 129638, Note_on_c, 0, 67, 0
2, 129638, Note_on_c, 0, 70, 0
2, 129638, Note_on_c, 0, 79, 0
2, 129644, Note_on_c, 0, 79, 97
2, 129649, Note_on_c, 0, 67, 78
2, 129649, Note_on_c, 0, 70, 77
2, 129672, Control_c, 0, 64, 0
2, 129676, Note_on_c, 0, 67, 0
2, 129677, Note_on_c, 0, 55, 0
2, 129678, Note_on_c, 0, 51, 0
2, 129679, Note_on_c, 0, 58, 0
2, 129679, Note_on_c, 0, 39, 0
2, 129679, Note_on_c, 0, 73, 0
2, 129715, Note_on_c, 0, 79, 0
2, 129722, Note_on_c, 0, 70, 0
2, 129724, Note_on_c, 0, 79, 97
2, 129727, Note_on_c, 0, 70, 90
2, 129728, Note_on_c, 0, 40, 89
2, 129729, Note_on_c, 0, 67, 92
2, 129753, Control_c, 0, 64, 127
2, 129859, Note_on_c, 0, 52, 75
2, 129863, Note_on_c, 0, 55, 76
2, 129872, Note_on_c, 0, 58, 65
2, 129888, Note_on_c, 0, 74, 77
2, 129976, Note_on_c, 0, 40, 0
2, 129976, Note_on_c, 0, 67, 0
2, 129976, Note_on_c, 0, 79, 0
2, 129980, Note_on_c, 0, 79, 102
2, 129980, Note_on_c, 0, 40, 84
2, 129985, Note_on_c, 0, 67, 87
2, 130099, Note_on_c, 0, 55, 0
2, 130106, Note_on_c, 0, 58, 0
2, 130110, Note_on_c, 0, 55, 82
2, 130114, Note_on_c, 0, 52, 0
2, 130118, Note_on_c, 0, 58, 64
2, 130122, Note_on_c, 0, 70, 0
2, 130123, Note_on_c, 0, 82, 101
2, 130124, Note_on_c, 0, 52, 70
2, 130128, Note_on_c, 0, 70, 87
2, 130172, Note_on_c, 0, 40, 0
2, 130173, Note_on_c, 0, 67, 0
2, 130173, Note_on_c, 0, 52, 0
2, 130173, Note_on_c, 0, 79, 0
2, 130173, Note_on_c, 0, 70, 0
2, 130173, Note_on_c, 0, 74, 0
2, 130174, Control_c, 0, 64, 0
2, 130174, Note_on_c, 0, 55, 0
2, 130175, Note_on_c, 0, 82, 0
2, 130191, Note_on_c, 0, 58, 0
2, 130228, Note_on_c, 0, 81, 105
2, 130230, Note_on_c, 0, 41, 88
2, 130234, Note_on_c, 0, 74, 97
2, 130236, Note_on_c, 0, 69, 96
2, 130252, Control_c, 0, 64, 127
2, 130354, Note_on_c, 0, 57, 80
2, 130356, Note_on_c, 0, 53, 76
2, 130475, Note_on_c, 0, 41, 0
2, 130479, Note_on_c, 0, 41, 81
2, 130484, Note_on_c, 0, 77, 104
2, 130590, Note_on_c, 0, 53, 0
2, 130598, Note_on_c, 0, 57, 0
2, 130600, Note_on_c, 0, 53, 80
2, 130602, Note_on_c, 0, 57, 68
2, 130687, Note_on_c, 0, 74, 0
2, 130687, Note_on_c, 0, 41, 0
2, 130687, Note_on_c, 0, 69, 0
2, 130688, Note_on_c, 0, 81, 0
2, 130688, Note_on_c, 0, 57, 0
2, 130688, Note_on_c, 0, 77, 0
2, 130689, Control_c, 0, 64, 0
2, 130705, Note_on_c, 0, 53, 0
2, 130732, Note_on_c, 0, 42, 96
2, 130741, Note_on_c, 0, 74, 102
2, 130759, Control_c, 0, 64, 127
2, 130857, Note_on_c, 0, 54, 73
2, 130862, Note_on_c, 0, 57, 78
2, 130967, Note_on_c, 0, 42, 0
2, 130977, Note_on_c, 0, 42, 97
2, 130997, Note_on_c, 0, 77, 103
2, 131089, Note_on_c, 0, 57, 0
2, 131097, Note_on_c, 0, 54, 0
2, 131101, Note_on_c, 0, 57, 77
2, 131101, Note_on_c, 0, 54, 78
2, 131202, Note_on_c, 0, 74, 0
2, 131202, Control_c, 0, 64, 0
2, 131202, Note_on_c, 0, 54, 0
2, 131203, Note_on_c, 0, 77, 0
2, 131220, Note_on_c, 0, 57, 0
2, 131228, Note_on_c, 0, 42, 0
2, 131255, Note_on_c, 0, 79, 103
2, 131258, Note_on_c, 0, 48, 98
2, 131261, Note_on_c, 0, 70, 100
2, 131261, Note_on_c, 0, 36, 95
2, 131263, Note_on_c, 0, 67, 98
2, 131264, Note_on_c, 0, 75, 95
2, 131289, Control_c, 0, 64, 127
2, 131523, Note_on_c, 0, 55, 75
2, 131582, Note_on_c, 0, 58, 81
2, 131642, Note_on_c, 0, 48, 0
2, 131648, Note_on_c, 0, 62, 87
2, 131652, Note_on_c, 0, 48, 71
2, 131693, Note_on_c, 0, 63, 88
2, 131765, Note_on_c, 0, 67, 0
2, 131772, Note_on_c, 0, 67, 87
2, 131773, Note_on_c, 0, 63, 0
2, 131773, Note_on_c, 0, 60, 91
2, 131779, Note_on_c, 0, 63, 79
2, 131796, Note_on_c, 0, 51, 71
2, 131834, Note_on_c, 0, 70, 0
2, 131839, Note_on_c, 0, 70, 82
2, 131887, Note_on_c, 0, 74, 82
2, 131942, Note_on_c, 0, 75, 0
2, 131946, Note_on_c, 0, 75, 81
2, 132003, Note_on_c, 0, 79, 0
2, 132009, Note_on_c, 0, 79, 86
2, 132074, Note_on_c, 0, 82, 87
2, 132116, Note_on_c, 0, 86, 88
2, 132142, Note_on_c, 0, 48, 0
2, 132147, Note_on_c, 0, 48, 92
2, 132149, Note_on_c, 0, 36, 0
2, 132154, Note_on_c, 0, 36, 80
2, 132164, Note_on_c, 0, 87, 88
2, 132244, Note_on_c, 0, 67, 0
2, 132245, Note_on_c, 0, 55, 0
2, 132246, Note_on_c, 0, 63, 0
2, 132247, Note_on_c, 0, 48, 0
2, 132247, Note_on_c, 0, 70, 0
2, 132247, Note_on_c, 0, 58, 0
2, 132247, Note_on_c, 0, 75, 0
2, 132248, Note_on_c, 0, 79, 0
2, 132249, Note_on_c, 0, 74, 0
2, 132249, Note_on_c, 0, 82, 0
2, 132249, Note_on_c, 0, 51, 0
2, 132250, Note_on_c, 0, 60, 0
2, 132250, Note_on_c, 0, 62, 0
2, 132250, Note_on_c, 0, 86, 0
2, 132251, Note_on_c, 0, 87, 0
2, 132251, Control_c, 0, 64, 0
2, 132258, Note_on_c, 0, 91, 102
2, 132267, Note_on_c, 0, 38, 96
2, 132268, Note_on_c, 0, 50, 102
2, 132280, Note_on_c, 0, 36, 0
2, 132311, Control_c, 0, 64, 127
2, 132332, Note_on_c, 0, 89, 89
2, 132389, Note_on_c, 0, 86, 87
2, 132444, Note_on_c, 0, 81, 77
2, 132509, Note_on_c, 0, 79, 83
2, 132575, Note_on_c, 0, 77, 82
2, 132612, Note_on_c, 0, 74, 79
2, 132661, Note_on_c, 0, 69, 60
2, 132741, Note_on_c, 0, 77, 0
2, 132748, Note_on_c, 0, 62, 100
2, 132749, Note_on_c, 0, 77, 104
2, 132755, Note_on_c, 0, 65, 98
2, 132777, Note_on_c, 0, 57, 75
2, 132836, Note_on_c, 0, 53, 85
2, 132917, Note_on_c, 0, 50, 0
2, 132928, Note_on_c, 0, 50, 74
2, 132975, Note_on_c, 0, 43, 81
2, 133049, Note_on_c, 0, 36, 73
2, 133125, Note_on_c, 0, 65, 0
2, 133125, Note_on_c, 0, 77, 0
2, 133135, Note_on_c, 0, 77, 93
2, 133136, Note_on_c, 0, 65, 87
2, 133220, Note_on_c, 0, 43, 0
2, 133220, Note_on_c, 0, 89, 0
2, 133220, Note_on_c, 0, 86, 0
2, 133220, Note_on_c, 0, 57, 0
2, 133220, Note_on_c, 0, 53, 0
2, 133220, Note_on_c, 0, 77, 0
2, 133221, Note_on_c, 0, 38, 0
2, 133221, Note_on_c, 0, 81, 0
2, 133221, Note_on_c, 0, 69, 0
2, 133221, Note_on_c, 0, 62, 0
2, 133221, Control_c, 0, 64, 0
2, 133224, Note_on_c, 0, 36, 0
2, 133224, Note_on_c, 0, 91, 0
2, 133232, Note_on_c, 0, 50, 0
2, 133232, Note_on_c, 0, 74, 0
2, 133240, Note_on_c, 0, 65, 0
2, 133255, Note_on_c, 0, 79, 0
2, 133265, Note_on_c, 0, 79, 109
2, 133267, Note_on_c, 0, 74, 87
2, 133267, Note_on_c, 0, 71, 95
2, 133268, Note_on_c, 0, 67, 102
2, 133268, Note_on_c, 0, 31, 98
2, 133270, Note_on_c, 0, 43, 101
2, 133286, Control_c, 0, 64, 127
2, 133508, Note_on_c, 0, 59, 76
2, 133575, Note_on_c, 0, 62, 72
2, 133647, Note_on_c, 0, 43, 0
2, 133647, Note_on_c, 0, 67, 0
2, 133656, Note_on_c, 0, 67, 68
2, 133657, Note_on_c, 0, 43, 74
2, 133701, Note_on_c, 0, 71, 0
2, 133711, Note_on_c, 0, 71, 82
2, 133747, Note_on_c, 0, 74, 0
2, 133756, Note_on_c, 0, 74, 76
2, 133792, Note_on_c, 0, 55, 83
2, 133793, Note_on_c, 0, 79, 0
2, 133795, Note_on_c, 0, 50, 85
2, 133797, Note_on_c, 0, 79, 93
2, 133862, Note_on_c, 0, 74, 0
2, 133872, Note_on_c, 0, 74, 75
2, 133900, Note_on_c, 0, 71, 0
2, 133912, Note_on_c, 0, 71, 78
2, 133985, Note_on_c, 0, 67, 0
2, 133989, Note_on_c, 0, 67, 77
2, 134031, Note_on_c, 0, 71, 0
2, 134042, Note_on_c, 0, 71, 67
2, 134062, Note_on_c, 0, 74, 0
2, 134069, Note_on_c, 0, 74, 86
2, 134138, Note_on_c, 0, 79, 0
2, 134148, Note_on_c, 0, 79, 83
2, 134161, Note_on_c, 0, 55, 0
2, 134171, Note_on_c, 0, 55, 63
2, 134201, Note_on_c, 0, 83, 82
2, 134252, Note_on_c, 0, 86, 78
2, 134284, Note_on_c, 0, 62, 0
2, 134290, Note_on_c, 0, 91, 96
2, 134290, Note_on_c, 0, 62, 88
2, 134292, Note_on_c, 0, 67, 0
2, 134297, Note_on_c, 0, 67, 88
2, 134338, Note_on_c, 0, 86, 0
2, 134349, Note_on_c, 0, 86, 87
2, 134384, Note_on_c, 0, 83, 0
2, 134392, Note_on_c, 0, 83, 78
2, 134446, Note_on_c, 0, 79, 0
2, 134451, Note_on_c, 0, 79, 80
2, 134469, Note_on_c, 0, 31, 0
2, 134499, Note_on_c, 0, 83, 0
2, 134505, Note_on_c, 0, 83, 57
2, 134507, Note_on_c, 0, 86, 0
2, 134511, Note_on_c, 0, 86, 84
2, 134568, Note_on_c, 0, 91, 0
2, 134578, Note_on_c, 0, 91, 89
2, 134640, Note_on_c, 0, 95, 88
2, 134653, Note_on_c, 0, 67, 0
2, 134659, Note_on_c, 0, 67, 66
2, 134695, Note_on_c, 0, 98, 91
2, 134760, Note_on_c, 0, 79, 0
2, 134768, Note_on_c, 0, 74, 0
2, 134769, Note_on_c, 0, 103, 105
2, 134771, Note_on_c, 0, 79, 86
2, 134774, Note_on_c, 0, 74, 80
2, 135014, Note_on_c, 0, 43, 0
2, 135014, Note_on_c, 0, 55, 0
2, 135014, Note_on_c, 0, 67, 0
2, 135022, Note_on_c, 0, 43, 74
2, 135023, Note_on_c, 0, 55, 67
2, 135023, Note_on_c, 0, 67, 55
2, 135239, Control_c, 0, 64, 0
2, 135240, Note_on_c, 0, 98, 0
2, 135240, Note_on_c, 0, 95, 0
2, 135240, Note_on_c, 0, 59, 0
2, 135240, Note_on_c, 0, 86, 0
2, 135240, Note_on_c, 0, 83, 0
2, 135240, Note_on_c, 0, 43, 0
2, 135241, Note_on_c, 0, 55, 0
2, 135241, Note_on_c, 0, 62, 0
2, 135241, Note_on_c, 0, 50, 0
2, 135241, Note_on_c, 0, 67, 0
2, 135241, Note_on_c, 0, 79, 0
2, 135241, Note_on_c, 0, 74, 0
2, 135252, Note_on_c, 0, 103, 0
2, 135260, Note_on_c, 0, 71, 0
2, 135260, Note_on_c, 0, 91, 0
2, 135275, Note_on_c, 0, 48, 92
2, 135279, Note_on_c, 0, 60, 86
2, 135311, Note_on_c, 0, 60, 0
2, 135329, Control_c, 0, 64, 127
2, 135336, Note_on_c, 0, 48, 0
2, 135440, Note_on_c, 0, 64, 56
2, 135536, Note_on_c, 0, 64, 0
2, 135543, Note_on_c, 0, 88, 85
2, 135547, Note_on_c, 0, 76, 77
2, 135547, Note_on_c, 0, 64, 64
2, 135664, Note_on_c, 0, 72, 67
2, 135670, Note_on_c, 0, 67, 58
2, 135790, Note_on_c, 0, 64, 0
2, 135790, Note_on_c, 0, 88, 0
2, 135797, Note_on_c, 0, 76, 0
2, 135798, Note_on_c, 0, 88, 82
2, 135799, Note_on_c, 0, 64, 68
2, 135802, Note_on_c, 0, 76, 77
2, 135912, Note_on_c, 0, 64, 0
2, 135917, Note_on_c, 0, 64, 60
2, 136051, Note_on_c, 0, 72, 0
2, 136055, Note_on_c, 0, 95, 86
2, 136057, Note_on_c, 0, 72, 60
2, 136058, Note_on_c, 0, 67, 0
2, 136061, Note_on_c, 0, 83, 78
2, 136065, Note_on_c, 0, 67, 55
2, 136174, Note_on_c, 0, 64, 0
2, 136182, Note_on_c, 0, 64, 66
2, 136308, Note_on_c, 0, 93, 90
2, 136315, Note_on_c, 0, 81, 79
2, 136320, Note_on_c, 0, 67, 0
2, 136320, Note_on_c, 0, 72, 0
2, 136324, Note_on_c, 0, 67, 61
2, 136324, Note_on_c, 0, 72, 60
2, 136427, Note_on_c, 0, 64, 0
2, 136436, Note_on_c, 0, 64, 64
2, 136550, Note_on_c, 0, 64, 0
2, 136560, Note_on_c, 0, 64, 65
2, 136566, Note_on_c, 0, 91, 90
2, 136571, Note_on_c, 0, 79, 80
2, 136688, Note_on_c, 0, 72, 0
2, 136696, Note_on_c, 0, 67, 0
2, 136699, Note_on_c, 0, 72, 66
2, 136700, Note_on_c, 0, 67, 64
2, 136803, Note_on_c, 0, 64, 0
2, 136807, Note_on_c, 0, 64, 73
2, 136812, Note_on_c, 0, 90, 90
2, 136816, Note_on_c, 0, 78, 80
2, 136919, Note_on_c, 0, 64, 0
2, 136928, Note_on_c, 0, 64, 75
2, 137049, Note_on_c, 0, 91, 0
2, 137053, Note_on_c, 0, 91, 97
2, 137057, Note_on_c, 0, 67, 0
2, 137057, Note_on_c, 0, 72, 0
2, 137057, Note_on_c, 0, 79, 0
2, 137061, Note_on_c, 0, 72, 71
2, 137061, Note_on_c, 0, 79, 84
2, 137067, Note_on_c, 0, 67, 72
2, 137126, Note_on_c, 0, 64, 0
2, 137137, Note_on_c, 0, 64, 74
2, 137246, Note_on_c, 0, 93, 0
2, 137246, Note_on_c, 0, 91, 0
2, 137247, Note_on_c, 0, 90, 0
2, 137247, Note_on_c, 0, 72, 0
2, 137247, Note_on_c, 0, 81, 0
2, 137247, Control_c, 0, 64, 0
2, 137248, Note_on_c, 0, 83, 0
2, 137248, Note_on_c, 0, 95, 0
2, 137248, Note_on_c, 0, 78, 0
2, 137249, Note_on_c, 0, 79, 0
2, 137249, Note_on_c, 0, 67, 0
2, 137250, Note_on_c, 0, 76, 0
2, 137264, Note_on_c, 0, 64, 0
2, 137264, Note_on_c, 0, 88, 0
2, 137300, Note_on_c, 0, 90, 96
2, 137304, Note_on_c, 0, 64, 84
2, 137306, Note_on_c, 0, 52, 81
2, 137307, Note_on_c, 0, 86, 82
2, 137307, Note_on_c, 0, 83, 76
2, 137307, Note_on_c, 0, 78, 89
2, 137318, Control_c, 0, 64, 127
2, 137448, Note_on_c, 0, 64, 0
2, 137455, Note_on_c, 0, 64, 54
2, 137564, Note_on_c, 0, 64, 0
2, 137571, Note_on_c, 0, 64, 57
2, 137679, Note_on_c, 0, 86, 0
2, 137685, Note_on_c, 0, 86, 91
2, 137691, Note_on_c, 0, 71, 61
2, 137691, Note_on_c, 0, 74, 75
2, 137694, Note_on_c, 0, 67, 55
2, 137794, Note_on_c, 0, 64, 0
2, 137803, Note_on_c, 0, 64, 61
2, 137925, Note_on_c, 0, 64, 0
2, 137930, Note_on_c, 0, 64, 62
2, 138060, Note_on_c, 0, 88, 90
2, 138071, Note_on_c, 0, 67, 0
2, 138071, Note_on_c, 0, 71, 0
2, 138073, Note_on_c, 0, 76, 79
2, 138076, Note_on_c, 0, 71, 68
2, 138076, Note_on_c, 0, 67, 62
2, 138201, Note_on_c, 0, 64, 0
2, 138206, Note_on_c, 0, 64, 74
2, 138324, Note_on_c, 0, 67, 0
2, 138324, Note_on_c, 0, 71, 0
2, 138328, Note_on_c, 0, 67, 71
2, 138331, Note_on_c, 0, 71, 72
2, 138447, Note_on_c, 0, 64, 0
2, 138451, Note_on_c, 0, 64, 64
2, 138577, Note_on_c, 0, 64, 0
2, 138582, Note_on_c, 0, 64, 70
2, 138700, Note_on_c, 0, 67, 0
2, 138700, Note_on_c, 0, 71, 0
2, 138705, Note_on_c, 0, 67, 64
2, 138705, Note_on_c, 0, 71, 67
2, 138808, Note_on_c, 0, 64, 0
2, 138808, Note_on_c, 0, 86, 0
2, 138816, Note_on_c, 0, 64, 77
2, 138818, Note_on_c, 0, 86, 91
2, 138823, Note_on_c, 0, 74, 0
2, 138831, Note_on_c, 0, 74, 81
2, 138954, Note_on_c, 0, 64, 0
2, 138959, Note_on_c, 0, 64, 81
2, 139077, Note_on_c, 0, 67, 0
2, 139077, Note_on_c, 0, 71, 0
2, 139077, Note_on_c, 0, 88, 0
2, 139082, Note_on_c, 0, 67, 79
2, 139083, Note_on_c, 0, 88, 98
2, 139084, Note_on_c, 0, 76, 0
2, 139087, Note_on_c, 0, 71, 77
2, 139088, Note_on_c, 0, 76, 94
2, 139153, Note_on_c, 0, 64, 0
2, 139163, Note_on_c, 0, 64, 70
2, 139268, Note_on_c, 0, 74, 0
2, 139269, Note_on_c, 0, 86, 0
2, 139269, Note_on_c, 0, 67, 0
2, 139270, Note_on_c, 0, 52, 0
2, 139270, Note_on_c, 0, 88, 0
2, 139270, Control_c, 0, 64, 0
2, 139270, Note_on_c, 0, 83, 0
2, 139270, Note_on_c, 0, 71, 0
2, 139271, Note_on_c, 0, 64, 0
2, 139271, Note_on_c, 0, 78, 0
2, 139276, Note_on_c, 0, 90, 0
2, 139324, Note_on_c, 0, 48, 101
2, 139325, Note_on_c, 0, 36, 92
2, 139345, Control_c, 0, 64, 127
2, 139458, Note_on_c, 0, 55, 75
2, 139545, Note_on_c, 0, 55, 0
2, 139556, Note_on_c, 0, 55, 76
2, 139576, Note_on_c, 0, 76, 0
2, 139583, Note_on_c, 0, 76, 87
2, 139590, Note_on_c, 0, 71, 80
2, 139701, Note_on_c, 0, 60, 70
2, 139703, Note_on_c, 0, 64, 72
2, 139814, Note_on_c, 0, 55, 0
2, 139825, Note_on_c, 0, 55, 73
2, 139850, Note_on_c, 0, 74, 86
2, 139853, Note_on_c, 0, 69, 79
2, 139944, Note_on_c, 0, 55, 0
2, 139955, Note_on_c, 0, 55, 77
2, 140090, Note_on_c, 0, 60, 0
2, 140090, Note_on_c, 0, 76, 0
2, 140098, Note_on_c, 0, 64, 0
2, 140098, Note_on_c, 0, 71, 0
2, 140100, Note_on_c, 0, 76, 92
2, 140101, Note_on_c, 0, 60, 77
2, 140103, Note_on_c, 0, 64, 84
2, 140104, Note_on_c, 0, 71, 83
2, 140160, Note_on_c, 0, 55, 0
2, 140166, Note_on_c, 0, 55, 68
2, 140285, Control_c, 0, 64, 0
2, 140285, Note_on_c, 0, 69, 0
2, 140285, Note_on_c, 0, 60, 0
2, 140285, Note_on_c, 0, 55, 0
2, 140286, Note_on_c, 0, 64, 0
2, 140286, Note_on_c, 0, 74, 0
2, 140290, Note_on_c, 0, 48, 0
2, 140298, Note_on_c, 0, 36, 0
2, 140334, Note_on_c, 0, 48, 102
2, 140338, Note_on_c, 0, 36, 93
2, 140367, Control_c, 0, 64, 127
2, 140485, Note_on_c, 0, 55, 71
2, 140590, Note_on_c, 0, 55, 0
2, 140590, Note_on_c, 0, 71, 0
2, 140590, Note_on_c, 0, 76, 0
2, 140594, Note_on_c, 0, 76, 87
2, 140596, Note_on_c, 0, 55, 77
2, 140597, Note_on_c, 0, 71, 82
2, 140706, Note_on_c, 0, 60, 78
2, 140707, Note_on_c, 0, 64, 75
2, 140828, Note_on_c, 0, 55, 0
2, 140837, Note_on_c, 0, 55, 82
2, 140841, Note_on_c, 0, 74, 85
2, 140856, Note_on_c, 0, 69, 74
2, 140874, Note_on_c, 0, 64, 0
2, 140880, Note_on_c, 0, 64, 38
2, 140943, Note_on_c, 0, 55, 0
2, 140954, Note_on_c, 0, 55, 79
2, 141089, Note_on_c, 0, 48, 0
2, 141089, Note_on_c, 0, 60, 0
2, 141089, Note_on_c, 0, 64, 0
2, 141096, Note_on_c, 0, 71, 0
2, 141096, Note_on_c, 0, 76, 0
2, 141100, Note_on_c, 0, 64, 87
2, 141100, Note_on_c, 0, 48, 72
2, 141100, Note_on_c, 0, 60, 76
2, 141103, Note_on_c, 0, 76, 93
2, 141107, Note_on_c, 0, 71, 84
2, 141173, Note_on_c, 0, 55, 0
2, 141181, Note_on_c, 0, 55, 80
2, 141283, Note_on_c, 0, 48, 0
2, 141285, Note_on_c, 0, 69, 0
2, 141285, Note_on_c, 0, 64, 0
2, 141285, Note_on_c, 0, 55, 0
2, 141285, Note_on_c, 0, 60, 0
2, 141285, Control_c, 0, 64, 0
2, 141286, Note_on_c, 0, 74, 0
2, 141288, Note_on_c, 0, 36, 0
2, 141339, Note_on_c, 0, 52, 100
2, 141341, Note_on_c, 0, 40, 95
2, 141365, Control_c, 0, 64, 127
2, 141485, Note_on_c, 0, 55, 64
2, 141573, Note_on_c, 0, 55, 0
2, 141584, Note_on_c, 0, 55, 71
2, 141596, Note_on_c, 0, 76, 0
2, 141603, Note_on_c, 0, 71, 0
2, 141605, Note_on_c, 0, 76, 90
2, 141608, Note_on_c, 0, 71, 79
2, 141614, Note_on_c, 0, 64, 54
2, 141703, Note_on_c, 0, 64, 0
2, 141714, Note_on_c, 0, 64, 70
2, 141716, Note_on_c, 0, 59, 73
2, 141841, Note_on_c, 0, 55, 0
2, 141847, Note_on_c, 0, 55, 72
2, 141852, Note_on_c, 0, 74, 86
2, 141854, Note_on_c, 0, 69, 76
2, 141964, Note_on_c, 0, 55, 0
2, 141973, Note_on_c, 0, 55, 68
2, 142095, Note_on_c, 0, 59, 0
2, 142095, Note_on_c, 0, 76, 0
2, 142103, Note_on_c, 0, 64, 0
2, 142103, Note_on_c, 0, 71, 0
2, 142104, Note_on_c, 0, 76, 90
2, 142106, Note_on_c, 0, 59, 77
2, 142107, Note_on_c, 0, 71, 80
2, 142107, Note_on_c, 0, 52, 0
2, 142108, Note_on_c, 0, 64, 73
2, 142187, Note_on_c, 0, 55, 0
2, 142191, Note_on_c, 0, 55, 81
2, 142312, Control_c, 0, 64, 0
2, 142313, Note_on_c, 0, 69, 0
2, 142313, Note_on_c, 0, 71, 0
2, 142313, Note_on_c, 0, 55, 0
2, 142314, Note_on_c, 0, 64, 0
2, 142314, Note_on_c, 0, 76, 0
2, 142325, Note_on_c, 0, 40, 0
2, 142325, Note_on_c, 0, 59, 0
2, 142325, Note_on_c, 0, 74, 0
2, 142351, Note_on_c, 0, 52, 99
2, 142353, Note_on_c, 0, 40, 89
2, 142356, Note_on_c, 0, 71, 92
2, 142356, Note_on_c, 0, 76, 86
2, 142358, Note_on_c, 0, 67, 90
2, 142394, Control_c, 0, 64, 127
2, 142482, Note_on_c, 0, 55, 71
2, 142499, Note_on_c, 0, 59, 47
2, 142594, Note_on_c, 0, 55, 0
2, 142599, Note_on_c, 0, 55, 74
2, 142607, Note_on_c, 0, 66, 75
2, 142608, Note_on_c, 0, 69, 70
2, 142740, Note_on_c, 0, 59, 0
2, 142746, Note_on_c, 0, 64, 66
2, 142751, Note_on_c, 0, 59, 67
2, 142855, Note_on_c, 0, 71, 0
2, 142862, Note_on_c, 0, 71, 86
2, 142863, Note_on_c, 0, 67, 0
2, 142871, Note_on_c, 0, 55, 0
2, 142873, Note_on_c, 0, 67, 72
2, 142875, Note_on_c, 0, 55, 63
2, 142986, Note_on_c, 0, 55, 0
2, 142990, Note_on_c, 0, 55, 75
2, 143109, Note_on_c, 0, 59, 0
2, 143109, Note_on_c, 0, 64, 0
2, 143116, Note_on_c, 0, 71, 0
2, 143117, Note_on_c, 0, 59, 74
2, 143118, Note_on_c, 0, 64, 78
2, 143120, Note_on_c, 0, 74, 87
2, 143120, Note_on_c, 0, 71, 77
2, 143201, Note_on_c, 0, 55, 0
2, 143208, Note_on_c, 0, 55, 71
2, 143298, Control_c, 0, 64, 0
2, 143299, Note_on_c, 0, 71, 0
2, 143299, Note_on_c, 0, 69, 0
2, 143299, Note_on_c, 0, 55, 0
2, 143299, Note_on_c, 0, 66, 0
2, 143299, Note_on_c, 0, 67, 0
2, 143300, Note_on_c, 0, 59, 0
2, 143300, Note_on_c, 0, 52, 0
2, 143301, Note_on_c, 0, 74, 0
2, 143301, Note_on_c, 0, 76, 0
2, 143316, Note_on_c, 0, 40, 0
2, 143316, Note_on_c, 0, 64, 0
2, 143366, Note_on_c, 0, 48, 87
2, 143372, Note_on_c, 0, 60, 82
2, 143393, Control_c, 0, 64, 127
2, 143397, Note_on_c, 0, 48, 0
2, 143431, Note_on_c, 0, 60, 0
2, 143504, Note_on_c, 0, 64, 70
2, 143600, Note_on_c, 0, 64, 0
2, 143609, Note_on_c, 0, 64, 72
2, 143626, Note_on_c, 0, 88, 81
2, 143643, Note_on_c, 0, 76, 65
2, 143750, Note_on_c, 0, 72, 69
2, 143755, Note_on_c, 0, 67, 61
2, 143869, Note_on_c, 0, 64, 0
2, 143875, Note_on_c, 0, 64, 59
2, 143877, Note_on_c, 0, 76, 0
2, 143877, Note_on_c, 0, 88, 0
2, 143882, Note_on_c, 0, 88, 89
2, 143886, Note_on_c, 0, 76, 74
2, 143992, Note_on_c, 0, 64, 0
2, 144000, Note_on_c, 0, 64, 70
2, 144135, Note_on_c, 0, 95, 92
2, 144138, Note_on_c, 0, 72, 0
2, 144141, Note_on_c, 0, 83, 80
2, 144149, Note_on_c, 0, 72, 52
2, 144153, Note_on_c, 0, 67, 0
2, 144158, Note_on_c, 0, 67, 60
2, 144172, Note_on_c, 0, 60, 47
2, 144253, Note_on_c, 0, 64, 0
2, 144261, Note_on_c, 0, 64, 67
2, 144387, Note_on_c, 0, 93, 94
2, 144399, Note_on_c, 0, 81, 82
2, 144399, Note_on_c, 0, 72, 0
2, 144403, Note_on_c, 0, 72, 57
2, 144407, Note_on_c, 0, 67, 0
2, 144411, Note_on_c, 0, 67, 49
2, 144499, Note_on_c, 0, 64, 0
2, 144505, Note_on_c, 0, 64, 65
2, 144622, Note_on_c, 0, 64, 0
2, 144627, Note_on_c, 0, 64, 63
2, 144644, Note_on_c, 0, 91, 89
2, 144655, Note_on_c, 0, 79, 73
2, 144760, Note_on_c, 0, 67, 0
2, 144760, Note_on_c, 0, 72, 0
2, 144769, Note_on_c, 0, 72, 70
2, 144771, Note_on_c, 0, 67, 67
2, 144875, Note_on_c, 0, 64, 0
2, 144880, Note_on_c, 0, 64, 71
2, 144887, Note_on_c, 0, 90, 87
2, 144894, Note_on_c, 0, 78, 79
2, 144998, Note_on_c, 0, 64, 0
2, 145008, Note_on_c, 0, 64, 70
2, 145128, Note_on_c, 0, 91, 0
2, 145136, Note_on_c, 0, 91, 95
2, 145136, Note_on_c, 0, 72, 0
2, 145136, Note_on_c, 0, 79, 0
2, 145142, Note_on_c, 0, 79, 80
2, 145144, Note_on_c, 0, 67, 0
2, 145146, Note_on_c, 0, 72, 67
2, 145155, Note_on_c, 0, 67, 67
2, 145221, Note_on_c, 0, 64, 0
2, 145226, Note_on_c, 0, 64, 75
2, 145324, Control_c, 0, 64, 0
2, 145327, Note_on_c, 0, 91, 0
2, 145327, Note_on_c, 0, 93, 0
2, 145327, Note_on_c, 0, 81, 0
2, 145327, Note_on_c, 0, 90, 0
2, 145328, Note_on_c, 0, 72, 0
2, 145328, Note_on_c, 0, 78, 0
2, 145329, Note_on_c, 0, 79, 0
2, 145329, Note_on_c, 0, 88, 0
2, 145329, Note_on_c, 0, 64, 0
2, 145329, Note_on_c, 0, 83, 0
2, 145329, Note_on_c, 0, 67, 0
2, 145330, Note_on_c, 0, 95, 0
2, 145330, Note_on_c, 0, 60, 0
2, 145330, Note_on_c, 0, 76, 0
2, 145386, Note_on_c, 0, 90, 94
2, 145392, Note_on_c, 0, 83, 75
2, 145392, Note_on_c, 0, 86, 86
2, 145393, Note_on_c, 0, 78, 88
2, 145393, Note_on_c, 0, 52, 79
2, 145405, Control_c, 0, 64, 127
2, 145530, Note_on_c, 0, 64, 63
2, 145628, Note_on_c, 0, 64, 0
2, 145639, Note_on_c, 0, 64, 75
2, 145758, Note_on_c, 0, 86, 0
2, 145761, Note_on_c, 0, 71, 66
2, 145762, Note_on_c, 0, 67, 60
2, 145770, Note_on_c, 0, 86, 88
2, 145786, Note_on_c, 0, 74, 75
2, 145881, Note_on_c, 0, 64, 0
2, 145886, Note_on_c, 0, 64, 77
2, 146004, Note_on_c, 0, 64, 0
2, 146014, Note_on_c, 0, 64, 79
2, 146142, Note_on_c, 0, 88, 87
2, 146142, Note_on_c, 0, 67, 0
2, 146142, Note_on_c, 0, 71, 0
2, 146148, Note_on_c, 0, 76, 80
2, 146151, Note_on_c, 0, 67, 65
2, 146153, Note_on_c, 0, 71, 63
2, 146265, Note_on_c, 0, 64, 0
2, 146271, Note_on_c, 0, 64, 72
2, 146388, Note_on_c, 0, 67, 0
2, 146388, Note_on_c, 0, 71, 0
2, 146396, Note_on_c, 0, 71, 70
2, 146399, Note_on_c, 0, 67, 65
2, 146496, Note_on_c, 0, 64, 0
2, 146507, Note_on_c, 0, 64, 61
2, 146626, Note_on_c, 0, 90, 0
2, 146634, Note_on_c, 0, 64, 0
2, 146634, Note_on_c, 0, 78, 0
2, 146637, Note_on_c, 0, 90, 91
2, 146638, Note_on_c, 0, 64, 66
2, 146644, Note_on_c, 0, 78, 86
2, 146764, Note_on_c, 0, 67, 0
2, 146764, Note_on_c, 0, 71, 0
2, 146769, Note_on_c, 0, 67, 68
2, 146769, Note_on_c, 0, 71, 70
2, 146880, Note_on_c, 0, 64, 0
2, 146885, Note_on_c, 0, 91, 95
2, 146891, Note_on_c, 0, 64, 73
2, 146894, Note_on_c, 0, 79, 83
2, 147002, Note_on_c, 0, 64, 0
2, 147009, Note_on_c, 0, 64, 80
2, 147125, Note_on_c, 0, 88, 0
2, 147130, Note_on_c, 0, 88, 88
2, 147133, Note_on_c, 0, 76, 0
2, 147141, Note_on_c, 0, 67, 0
2, 147141, Note_on_c, 0, 71, 0
2, 147144, Note_on_c, 0, 76, 73
2, 147146, Note_on_c, 0, 67, 75
2, 147150, Note_on_c, 0, 71, 74
2, 147202, Note_on_c, 0, 64, 0
2, 147213, Note_on_c, 0, 64, 77
2, 147287, Note_on_c, 0, 87, 56
2, 147367, Note_on_c, 0, 74, 0
2, 147368, Note_on_c, 0, 67, 0
2, 147368, Note_on_c, 0, 71, 0
2, 147368, Note_on_c, 0, 86, 0
2, 147368, Note_on_c, 0, 76, 0
2, 147368, Note_on_c, 0, 52, 0
2, 147369, Note_on_c, 0, 79, 0
2, 147370, Note_on_c, 0, 91, 0
2, 147370, Control_c, 0, 64, 0
2, 147371, Note_on_c, 0, 88, 0
2, 147376, Note_on_c, 0, 88, 91
2, 147379, Note_on_c, 0, 78, 0
2, 147379, Note_on_c, 0, 83, 0
2, 147379, Note_on_c, 0, 87, 0
2, 147380, Note_on_c, 0, 95, 103
2, 147383, Note_on_c, 0, 84, 94
2, 147383, Note_on_c, 0, 41, 85
2, 147386, Note_on_c, 0, 83, 92
2, 147386, Note_on_c, 0, 64, 0
2, 147386, Note_on_c, 0, 90, 0
2, 147432, Control_c, 0, 64, 127
2, 147448, Note_on_c, 0, 88, 0
2, 147483, Note_on_c, 0, 48, 84
2, 147549, Note_on_c, 0, 53, 82
2, 147644, Note_on_c, 0, 57, 73
2, 147728, Note_on_c, 0, 60, 81
2, 147805, Note_on_c, 0, 64, 79
2, 147863, Note_on_c, 0, 53, 0
2, 147874, Note_on_c, 0, 53, 96
2, 147955, Note_on_c, 0, 57, 0
2, 147959, Note_on_c, 0, 57, 79
2, 148032, Note_on_c, 0, 60, 0
2, 148040, Note_on_c, 0, 60, 78
2, 148078, Note_on_c, 0, 64, 0
2, 148089, Note_on_c, 0, 64, 65
2, 148095, Note_on_c, 0, 65, 72
2, 148126, Note_on_c, 0, 88, 90
2, 148128, Note_on_c, 0, 76, 81
2, 148239, Note_on_c, 0, 88, 0
2, 148244, Note_on_c, 0, 88, 91
2, 148298, Note_on_c, 0, 72, 76
2, 148369, Note_on_c, 0, 76, 0
2, 148377, Note_on_c, 0, 76, 94
2, 148431, Note_on_c, 0, 72, 0
2, 148435, Note_on_c, 0, 72, 74
2, 148515, Note_on_c, 0, 69, 76
2, 148623, Note_on_c, 0, 65, 0
2, 148634, Note_on_c, 0, 65, 80
2, 148700, Note_on_c, 0, 60, 0
2, 148709, Note_on_c, 0, 60, 74
2, 148776, Note_on_c, 0, 57, 0
2, 148781, Note_on_c, 0, 57, 75
2, 148869, Note_on_c, 0, 64, 0
2, 148875, Note_on_c, 0, 64, 82
2, 148945, Note_on_c, 0, 60, 0
2, 148950, Note_on_c, 0, 60, 70
2, 148957, Note_on_c, 0, 59, 56
2, 148961, Note_on_c, 0, 59, 0
2, 148992, Note_on_c, 0, 57, 0
2, 149001, Note_on_c, 0, 57, 76
2, 149099, Note_on_c, 0, 53, 0
2, 149106, Note_on_c, 0, 53, 73
2, 149168, Note_on_c, 0, 48, 0
2, 149173, Note_on_c, 0, 48, 70
2, 149248, Note_on_c, 0, 45, 80
2, 149360, Note_on_c, 0, 95, 0
2, 149368, Note_on_c, 0, 83, 0
2, 149368, Note_on_c, 0, 84, 0
2, 149368, Note_on_c, 0, 65, 0
2, 149369, Note_on_c, 0, 76, 0
2, 149369, Note_on_c, 0, 64, 0
2, 149370, Note_on_c, 0, 48, 0
2, 149370, Note_on_c, 0, 53, 0
2, 149370, Note_on_c, 0, 60, 0
2, 149370, Note_on_c, 0, 41, 0
2, 149370, Note_on_c, 0, 72, 0
2, 149370, Note_on_c, 0, 57, 0
2, 149370, Note_on_c, 0, 69, 0
2, 149370, Note_on_c, 0, 88, 0
2, 149371, Note_on_c, 0, 45, 0
2, 149372, Note_on_c, 0, 50, 84
2, 149372, Control_c, 0, 64, 0
2, 149373, Note_on_c, 0, 38, 80
2, 149442, Note_on_c, 0, 50, 0
2, 149475, Control_c, 0, 64, 127
2, 149636, Note_on_c, 0, 88, 89
2, 149640, Note_on_c, 0, 76, 80
2, 149889, Note_on_c, 0, 69, 78
2, 149889, Note_on_c, 0, 86, 80
2, 149899, Note_on_c, 0, 62, 76
2, 149904, Note_on_c, 0, 78, 63
2, 149905, Note_on_c, 0, 66, 63
2, 149906, Note_on_c, 0, 74, 69
2, 150144, Note_on_c, 0, 76, 0
2, 150144, Note_on_c, 0, 88, 0
2, 150149, Note_on_c, 0, 88, 84
2, 150153, Note_on_c, 0, 76, 84
2, 150389, Note_on_c, 0, 38, 0
2, 150392, Control_c, 0, 64, 0
2, 150392, Note_on_c, 0, 69, 0
2, 150392, Note_on_c, 0, 62, 0
2, 150393, Note_on_c, 0, 76, 0
2, 150393, Note_on_c, 0, 66, 0
2, 150393, Note_on_c, 0, 88, 0
2, 150393, Note_on_c, 0, 86, 0
2, 150397, Note_on_c, 0, 74, 0
2, 150398, Note_on_c, 0, 83, 86
2, 150400, Note_on_c, 0, 55, 70
2, 150401, Note_on_c, 0, 43, 65
2, 150405, Note_on_c, 0, 78, 0
2, 150406, Note_on_c, 0, 71, 79
2, 150408, Note_on_c, 0, 74, 73
2, 150408, Note_on_c, 0, 79, 77
2, 150481, Control_c, 0, 64, 127
2, 150652, Note_on_c, 0, 81, 88
2, 150654, Note_on_c, 0, 69, 78
2, 150904, Note_on_c, 0, 71, 0
2, 150904, Note_on_c, 0, 83, 0
2, 150912, Note_on_c, 0, 74, 0
2, 150914, Note_on_c, 0, 83, 78
2, 150915, Note_on_c, 0, 71, 74
2, 150917, Note_on_c, 0, 74, 62
2, 150919, Note_on_c, 0, 67, 55
2, 150922, Note_on_c, 0, 62, 67
2, 151050, Note_on_c, 0, 43, 0
2, 151160, Note_on_c, 0, 86, 86
2, 151165, Note_on_c, 0, 74, 0
2, 151176, Note_on_c, 0, 74, 70
2, 151411, Note_on_c, 0, 79, 0
2, 151411, Note_on_c, 0, 88, 85
2, 151414, Note_on_c, 0, 48, 63
2, 151421, Note_on_c, 0, 76, 71
2, 151422, Note_on_c, 0, 79, 75
2, 151454, Control_c, 0, 64, 0
2, 151454, Note_on_c, 0, 67, 0
2, 151454, Note_on_c, 0, 74, 0
2, 151454, Note_on_c, 0, 62, 0
2, 151455, Note_on_c, 0, 83, 0
2, 151455, Note_on_c, 0, 86, 0
2, 151455, Note_on_c, 0, 81, 0
2, 151455, Note_on_c, 0, 55, 0
2, 151456, Note_on_c, 0, 69, 0
2, 151464, Note_on_c, 0, 71, 0
2, 151587, Control_c, 0, 64, 127
2, 151670, Note_on_c, 0, 55, 52
2, 151792, Note_on_c, 0, 60, 61
2, 151918, Note_on_c, 0, 64, 62
2, 152056, Note_on_c, 0, 67, 54
2, 152176, Note_on_c, 0, 72, 51
2, 152271, Note_on_c, 0, 76, 0
2, 152276, Note_on_c, 0, 76, 65
2, 152432, Note_on_c, 0, 79, 0
2, 152436, Note_on_c, 0, 79, 59
2, 152962, Note_on_c, 0, 88, 0
2, 152973, Note_on_c, 0, 88, 80
2, 152985, Note_on_c, 0, 79, 0
2, 152991, Note_on_c, 0, 79, 68
2, 153382, Note_on_c, 0, 90, 78
2, 153387, Note_on_c, 0, 81, 66
2, 153500, Note_on_c, 0, 60, 0
2, 153504, Note_on_c, 0, 60, 60
2, 153511, Note_on_c, 0, 91, 85
2, 153524, Note_on_c, 0, 55, 0
2, 153527, Note_on_c, 0, 72, 0
2, 153527, Note_on_c, 0, 67, 0
2, 153527, Note_on_c, 0, 64, 0
2, 153527, Note_on_c, 0, 76, 0
2, 153527, Note_on_c, 0, 79, 0
2, 153528, Control_c, 0, 64, 0
2, 153529, Note_on_c, 0, 81, 0
2, 153530, Note_on_c, 0, 48, 0
2, 153538, Note_on_c, 0, 90, 0
2, 153540, Note_on_c, 0, 83, 64
2, 153546, Note_on_c, 0, 88, 0
2, 153623, Control_c, 0, 64, 127
2, 153787, Note_on_c, 0, 67, 57
2, 154026, Note_on_c, 0, 90, 76
2, 154044, Note_on_c, 0, 76, 55
2, 154049, Note_on_c, 0, 81, 67
2, 154053, Note_on_c, 0, 60, 0
2, 154422, Note_on_c, 0, 86, 81
2, 154454, Note_on_c, 0, 78, 65
2, 154529, Note_on_c, 0, 91, 0
2, 154541, Note_on_c, 0, 59, 60
2, 154552, Note_on_c, 0, 83, 0
2, 154557, Note_on_c, 0, 83, 77
2, 154563, Control_c, 0, 64, 0
2, 154575, Note_on_c, 0, 74, 67
2, 154575, Note_on_c, 0, 67, 0
2, 154577, Note_on_c, 0, 76, 0
2, 154578, Note_on_c, 0, 86, 0
2, 154578, Note_on_c, 0, 81, 0
2, 154579, Note_on_c, 0, 90, 0
2, 154586, Note_on_c, 0, 78, 0
2, 154636, Control_c, 0, 64, 127
2, 154802, Note_on_c, 0, 66, 58
2, 155051, Note_on_c, 0, 83, 0
2, 155056, Note_on_c, 0, 83, 74
2, 155059, Note_on_c, 0, 74, 0
2, 155068, Note_on_c, 0, 74, 63
2, 155443, Note_on_c, 0, 86, 76
2, 155445, Note_on_c, 0, 78, 69
2, 155582, Note_on_c, 0, 88, 77
2, 155585, Note_on_c, 0, 57, 66
2, 155592, Note_on_c, 0, 79, 74
2, 155594, Control_c, 0, 64, 0
2, 155600, Note_on_c, 0, 59, 0
2, 155601, Note_on_c, 0, 83, 0
2, 155601, Note_on_c, 0, 86, 0
2, 155601, Note_on_c, 0, 74, 0
2, 155602, Note_on_c, 0, 66, 0
2, 155602, Note_on_c, 0, 78, 0
2, 155650, Control_c, 0, 64, 127
2, 155828, Note_on_c, 0, 64, 74
2, 155958, Note_on_c, 0, 91, 82
2, 155973, Note_on_c, 0, 88, 0
2, 155977, Note_on_c, 0, 88, 51
2, 155981, Note_on_c, 0, 83, 62
2, 156091, Note_on_c, 0, 59, 68
2, 156091, Note_on_c, 0, 90, 84
2, 156098, Control_c, 0, 64, 0
2, 156105, Note_on_c, 0, 57, 0
2, 156107, Note_on_c, 0, 88, 0
2, 156107, Note_on_c, 0, 79, 0
2, 156107, Note_on_c, 0, 91, 0
2, 156107, Note_on_c, 0, 64, 0
2, 156110, Note_on_c, 0, 81, 75
2, 156165, Control_c, 0, 64, 127
2, 156331, Note_on_c, 0, 66, 71
2, 156395, Note_on_c, 0, 83, 0
2, 156458, Note_on_c, 0, 86, 82
2, 156460, Note_on_c, 0, 78, 75
2, 156578, Control_c, 0, 64, 0
2, 156579, Note_on_c, 0, 81, 0
2, 156579, Note_on_c, 0, 66, 0
2, 156580, Note_on_c, 0, 59, 0
2, 156580, Note_on_c, 0, 86, 0
2, 156582, Note_on_c, 0, 78, 0
2, 156594, Note_on_c, 0, 88, 81
2, 156595, Note_on_c, 0, 90, 0
2, 156599, Note_on_c, 0, 52, 71
2, 156599, Note_on_c, 0, 79, 73
2, 156664, Control_c, 0, 64, 127
2, 156829, Note_on_c, 0, 59, 67
2, 157102, Note_on_c, 0, 88, 0
2, 157106, Note_on_c, 0, 88, 77
2, 157113, Note_on_c, 0, 67, 60
2, 157117, Note_on_c, 0, 79, 0
2, 157128, Note_on_c, 0, 79, 65
2, 157469, Note_on_c, 0, 90, 82
2, 157474, Note_on_c, 0, 81, 70
2, 157601, Note_on_c, 0, 91, 90
2, 157611, Note_on_c, 0, 60, 64
2, 157620, Note_on_c, 0, 83, 70
2, 157623, Control_c, 0, 64, 0
2, 157627, Note_on_c, 0, 52, 0
2, 157629, Note_on_c, 0, 59, 0
2, 157629, Note_on_c, 0, 88, 0
2, 157631, Note_on_c, 0, 81, 0
2, 157632, Note_on_c, 0, 67, 0
2, 157632, Note_on_c, 0, 79, 0
2, 157701, Control_c, 0, 64, 127
2, 157862, Note_on_c, 0, 67, 70
2, 158127, Note_on_c, 0, 93, 86
2, 158129, Note_on_c, 0, 84, 76
2, 158151, Note_on_c, 0, 76, 65
2, 158284, Note_on_c, 0, 90, 0
2, 158515, Note_on_c, 0, 83, 0
2, 158515, Note_on_c, 0, 91, 0
2, 158519, Note_on_c, 0, 91, 84
2, 158526, Note_on_c, 0, 83, 70
2, 158634, Note_on_c, 0, 84, 0
2, 158634, Control_c, 0, 64, 0
2, 158635, Note_on_c, 0, 93, 0
2, 158636, Note_on_c, 0, 67, 0
2, 158636, Note_on_c, 0, 60, 0
2, 158636, Note_on_c, 0, 76, 0
2, 158637, Note_on_c, 0, 83, 0
2, 158637, Note_on_c, 0, 91, 0
2, 158642, Note_on_c, 0, 59, 68
2, 158644, Note_on_c, 0, 90, 86
2, 158655, Note_on_c, 0, 81, 76
2, 158722, Control_c, 0, 64, 127
2, 158897, Note_on_c, 0, 66, 65
2, 159147, Note_on_c, 0, 86, 84
2, 159163, Note_on_c, 0, 78, 80
2, 159170, Note_on_c, 0, 74, 62
2, 159523, Note_on_c, 0, 83, 78
2, 159528, Note_on_c, 0, 74, 0
2, 159534, Note_on_c, 0, 74, 56
2, 159662, Note_on_c, 0, 57, 67
2, 159662, Note_on_c, 0, 88, 75
2, 159664, Note_on_c, 0, 59, 0
2, 159666, Note_on_c, 0, 86, 0
2, 159667, Note_on_c, 0, 66, 0
2, 159667, Note_on_c, 0, 74, 0
2, 159668, Note_on_c, 0, 90, 0
2, 159668, Note_on_c, 0, 78, 0
2, 159669, Note_on_c, 0, 83, 0
2, 159669, Control_c, 0, 64, 0
2, 159686, Note_on_c, 0, 79, 61
2, 159751, Control_c, 0, 64, 127
2, 159907, Note_on_c, 0, 64, 76
2, 160039, Note_on_c, 0, 91, 83
2, 160043, Note_on_c, 0, 83, 69
2, 160157, Control_c, 0, 64, 0
2, 160161, Note_on_c, 0, 57, 0
2, 160162, Note_on_c, 0, 64, 0
2, 160162, Note_on_c, 0, 79, 0
2, 160162, Note_on_c, 0, 91, 0
2, 160162, Note_on_c, 0, 90, 84
2, 160163, Note_on_c, 0, 88, 0
2, 160166, Note_on_c, 0, 81, 0
2, 160170, Note_on_c, 0, 59, 66
2, 160173, Note_on_c, 0, 81, 77
2, 160250, Control_c, 0, 64, 127
2, 160289, Note_on_c, 0, 83, 0
2, 160408, Note_on_c, 0, 66, 69
2, 160525, Note_on_c, 0, 86, 80
2, 160545, Note_on_c, 0, 78, 60
2, 160643, Control_c, 0, 64, 0
2, 160645, Note_on_c, 0, 66, 0
2, 160645, Note_on_c, 0, 81, 0
2, 160645, Note_on_c, 0, 59, 0
2, 160646, Note_on_c, 0, 78, 0
2, 160657, Note_on_c, 0, 90, 0
2, 160663, Note_on_c, 0, 88, 80
2, 160669, Note_on_c, 0, 79, 72
2, 160669, Note_on_c, 0, 52, 67
2, 160671, Note_on_c, 0, 76, 53
2, 160727, Control_c, 0, 64, 127
2, 160826, Note_on_c, 0, 86, 0
2, 160915, Note_on_c, 0, 59, 66
2, 161164, Note_on_c, 0, 76, 0
2, 161170, Note_on_c, 0, 67, 64
2, 161174, Note_on_c, 0, 76, 85
2, 161550, Note_on_c, 0, 74, 79
2, 161671, Note_on_c, 0, 76, 0
2, 161672, Note_on_c, 0, 48, 73
2, 161682, Note_on_c, 0, 76, 86
2, 161683, Note_on_c, 0, 88, 0
2, 161683, Control_c, 0, 64, 0
2, 161687, Note_on_c, 0, 67, 0
2, 161690, Note_on_c, 0, 59, 0
2, 161691, Note_on_c, 0, 72, 67
2, 161691, Note_on_c, 0, 74, 0
2, 161692, Note_on_c, 0, 79, 0
2, 161692, Note_on_c, 0, 52, 0
2, 161693, Note_on_c, 0, 67, 68
2, 161744, Note_on_c, 0, 48, 0
2, 161807, Note_on_c, 0, 55, 61
2, 161810, Note_on_c, 0, 64, 61
2, 161922, Note_on_c, 0, 48, 66
2, 162040, Note_on_c, 0, 55, 0
2, 162048, Note_on_c, 0, 64, 0
2, 162049, Note_on_c, 0, 55, 64
2, 162052, Note_on_c, 0, 64, 66
2, 162078, Note_on_c, 0, 48, 0
2, 162087, Note_on_c, 0, 55, 0
2, 162117, Note_on_c, 0, 64, 0
2, 162155, Note_on_c, 0, 76, 0
2, 162162, Note_on_c, 0, 76, 87
2, 162174, Note_on_c, 0, 48, 78
2, 162242, Note_on_c, 0, 48, 0
2, 162300, Note_on_c, 0, 55, 63
2, 162302, Note_on_c, 0, 64, 66
2, 162335, Note_on_c, 0, 55, 0
2, 162355, Note_on_c, 0, 67, 0
2, 162414, Note_on_c, 0, 48, 81
2, 162455, Note_on_c, 0, 64, 0
2, 162516, Note_on_c, 0, 48, 0
2, 162536, Note_on_c, 0, 79, 91
2, 162539, Note_on_c, 0, 72, 0
2, 162539, Note_on_c, 0, 64, 82
2, 162543, Note_on_c, 0, 55, 62
2, 162560, Note_on_c, 0, 76, 0
2, 162575, Note_on_c, 0, 55, 0
2, 162593, Note_on_c, 0, 64, 0
2, 162659, Note_on_c, 0, 79, 0
2, 162663, Note_on_c, 0, 50, 82
2, 162665, Note_on_c, 0, 78, 98
2, 162674, Note_on_c, 0, 69, 76
2, 162678, Note_on_c, 0, 74, 79
2, 162701, Note_on_c, 0, 50, 0
2, 162797, Note_on_c, 0, 57, 72
2, 162798, Note_on_c, 0, 66, 71
2, 162911, Note_on_c, 0, 50, 80
2, 163008, Note_on_c, 0, 50, 0
2, 163038, Note_on_c, 0, 57, 0
2, 163038, Note_on_c, 0, 66, 0
2, 163043, Note_on_c, 0, 66, 77
2, 163049, Note_on_c, 0, 57, 75
2, 163052, Note_on_c, 0, 78, 0
2, 163107, Note_on_c, 0, 66, 0
2, 163165, Note_on_c, 0, 78, 98
2, 163165, Note_on_c, 0, 50, 86
2, 163200, Note_on_c, 0, 57, 0
2, 163230, Note_on_c, 0, 74, 0
2, 163284, Note_on_c, 0, 50, 0
2, 163295, Note_on_c, 0, 66, 78
2, 163303, Note_on_c, 0, 57, 73
2, 163401, Note_on_c, 0, 50, 81
2, 163507, Note_on_c, 0, 57, 0
2, 163514, Note_on_c, 0, 66, 0
2, 163515, Note_on_c, 0, 57, 75
2, 163516, Note_on_c, 0, 76, 91
2, 163519, Note_on_c, 0, 66, 72
2, 163534, Note_on_c, 0, 78, 0
2, 163537, Note_on_c, 0, 50, 0
2, 163545, Note_on_c, 0, 69, 0
2, 163576, Note_on_c, 0, 57, 0
2, 163576, Note_on_c, 0, 66, 0
2, 163620, Note_on_c, 0, 76, 0
2, 163640, Note_on_c, 0, 78, 101
2, 163641, Note_on_c, 0, 51, 87
2, 163651, Note_on_c, 0, 71, 79
2, 163658, Note_on_c, 0, 75, 80
2, 163771, Note_on_c, 0, 59, 76
2, 163775, Note_on_c, 0, 66, 71
2, 163791, Control_c, 0, 64, 127
2, 163883, Note_on_c, 0, 51, 0
2, 163892, Note_on_c, 0, 51, 71
2, 164002, Note_on_c, 0, 76, 87
2, 164014, Note_on_c, 0, 59, 0
2, 164014, Note_on_c, 0, 66, 0
2, 164020, Note_on_c, 0, 59, 67
2, 164020, Note_on_c, 0, 66, 70
2, 164085, Control_c, 0, 64, 0
2, 164121, Note_on_c, 0, 51, 0
2, 164121, Note_on_c, 0, 78, 0
2, 164129, Note_on_c, 0, 66, 0
2, 164129, Note_on_c, 0, 71, 0
2, 164130, Note_on_c, 0, 51, 80
2, 164131, Note_on_c, 0, 78, 102
2, 164136, Note_on_c, 0, 75, 0
2, 164140, Note_on_c, 0, 71, 79
2, 164141, Note_on_c, 0, 75, 82
2, 164147, Note_on_c, 0, 59, 0
2, 164167, Note_on_c, 0, 76, 0
2, 164226, Note_on_c, 0, 51, 0
2, 164244, Control_c, 0, 64, 127
2, 164264, Note_on_c, 0, 66, 69
2, 164264, Note_on_c, 0, 59, 70
2, 164380, Note_on_c, 0, 51, 76
2, 164487, Note_on_c, 0, 51, 0
2, 164490, Note_on_c, 0, 59, 0
2, 164497, Note_on_c, 0, 66, 0
2, 164501, Note_on_c, 0, 59, 78
2, 164501, Note_on_c, 0, 81, 94
2, 164503, Note_on_c, 0, 66, 81
2, 164562, Note_on_c, 0, 59, 0
2, 164565, Note_on_c, 0, 81, 0
2, 164593, Control_c, 0, 64, 0
2, 164597, Note_on_c, 0, 66, 0
2, 164597, Note_on_c, 0, 71, 0
2, 164627, Note_on_c, 0, 52, 91
2, 164628, Note_on_c, 0, 79, 98
2, 164632, Note_on_c, 0, 76, 93
2, 164634, Note_on_c, 0, 71, 89
2, 164636, Note_on_c, 0, 78, 0
2, 164643, Note_on_c, 0, 75, 0
2, 164670, Note_on_c, 0, 52, 0
2, 164743, Control_c, 0, 64, 127
2, 164762, Note_on_c, 0, 67, 79
2, 164762, Note_on_c, 0, 59, 76
2, 164877, Note_on_c, 0, 52, 81
2, 164989, Note_on_c, 0, 59, 0
2, 164989, Note_on_c, 0, 67, 0
2, 164994, Note_on_c, 0, 59, 85
2, 164998, Note_on_c, 0, 67, 87
2, 165069, Note_on_c, 0, 59, 0
2, 165081, Note_on_c, 0, 52, 0
2, 165094, Control_c, 0, 64, 0
2, 165112, Note_on_c, 0, 76, 0
2, 165122, Note_on_c, 0, 76, 99
2, 165125, Note_on_c, 0, 50, 93
2, 165166, Note_on_c, 0, 50, 0
2, 165189, Note_on_c, 0, 71, 0
2, 165254, Note_on_c, 0, 57, 76
2, 165255, Note_on_c, 0, 66, 80
2, 165265, Control_c, 0, 64, 127
2, 165319, Note_on_c, 0, 67, 0
2, 165368, Note_on_c, 0, 50, 74
2, 165465, Note_on_c, 0, 66, 0
2, 165473, Note_on_c, 0, 57, 0
2, 165476, Note_on_c, 0, 66, 76
2, 165481, Note_on_c, 0, 57, 79
2, 165586, Note_on_c, 0, 57, 0
2, 165587, Note_on_c, 0, 50, 0
2, 165588, Note_on_c, 0, 66, 0
2, 165589, Control_c, 0, 64, 0
2, 165611, Note_on_c, 0, 76, 0
2, 165616, Note_on_c, 0, 83, 100
2, 165621, Note_on_c, 0, 72, 85
2, 165622, Note_on_c, 0, 76, 101
2, 165628, Note_on_c, 0, 45, 82
2, 165672, Control_c, 0, 64, 127
2, 165712, Note_on_c, 0, 52, 76
2, 165790, Note_on_c, 0, 57, 77
2, 165864, Note_on_c, 0, 52, 0
2, 165873, Note_on_c, 0, 52, 84
2, 165926, Note_on_c, 0, 57, 0
2, 165936, Note_on_c, 0, 57, 77
2, 166030, Note_on_c, 0, 60, 74
2, 166103, Note_on_c, 0, 81, 98
2, 166105, Note_on_c, 0, 64, 95
2, 166156, Note_on_c, 0, 60, 0
2, 166166, Note_on_c, 0, 60, 81
2, 166225, Note_on_c, 0, 57, 0
2, 166237, Note_on_c, 0, 57, 78
2, 166341, Note_on_c, 0, 52, 0
2, 166345, Note_on_c, 0, 52, 86
2, 166471, Note_on_c, 0, 79, 0
2, 166478, Note_on_c, 0, 79, 96
2, 166525, Note_on_c, 0, 45, 0
2, 166574, Note_on_c, 0, 52, 0
2, 166575, Note_on_c, 0, 72, 0
2, 166575, Note_on_c, 0, 81, 0
2, 166575, Note_on_c, 0, 64, 0
2, 166575, Note_on_c, 0, 76, 0
2, 166576, Note_on_c, 0, 79, 0
2, 166576, Note_on_c, 0, 83, 0
2, 166577, Control_c, 0, 64, 0
2, 166586, Note_on_c, 0, 60, 0
2, 166594, Note_on_c, 0, 57, 0
2, 166605, Note_on_c, 0, 78, 105
2, 166605, Note_on_c, 0, 47, 89
2, 166607, Note_on_c, 0, 69, 81
2, 166610, Note_on_c, 0, 74, 90
2, 166663, Control_c, 0, 64, 127
2, 166686, Note_on_c, 0, 54, 81
2, 166694, Note_on_c, 0, 47, 0
2, 166759, Note_on_c, 0, 57, 81
2, 166848, Note_on_c, 0, 54, 0
2, 166858, Note_on_c, 0, 54, 83
2, 166917, Note_on_c, 0, 57, 0
2, 166921, Note_on_c, 0, 57, 84
2, 167014, Note_on_c, 0, 62, 81
2, 167083, Note_on_c, 0, 66, 79
2, 167162, Note_on_c, 0, 62, 0
2, 167168, Note_on_c, 0, 62, 83
2, 167224, Note_on_c, 0, 57, 0
2, 167234, Note_on_c, 0, 57, 80
2, 167308, Note_on_c, 0, 54, 0
2, 167313, Note_on_c, 0, 54, 85
2, 167559, Note_on_c, 0, 57, 0
2, 167559, Control_c, 0, 64, 0
2, 167559, Note_on_c, 0, 54, 0
2, 167559, Note_on_c, 0, 69, 0
2, 167560, Note_on_c, 0, 66, 0
2, 167560, Note_on_c, 0, 62, 0
2, 167560, Note_on_c, 0, 78, 0
2, 167560, Note_on_c, 0, 74, 0
2, 167581, Note_on_c, 0, 76, 104
2, 167582, Note_on_c, 0, 36, 88
2, 167583, Note_on_c, 0, 72, 91
2, 167584, Note_on_c, 0, 64, 99
2, 167586, Note_on_c, 0, 67, 90
2, 167639, Control_c, 0, 64, 127
2, 167652, Note_on_c, 0, 43, 80
2, 167742, Note_on_c, 0, 48, 76
2, 167826, Note_on_c, 0, 52, 86
2, 167923, Note_on_c, 0, 52, 0
2, 167928, Note_on_c, 0, 52, 68
2, 168088, Control_c, 0, 64, 0
2, 168095, Note_on_c, 0, 43, 0
2, 168096, Note_on_c, 0, 74, 98
2, 168096, Note_on_c, 0, 52, 0
2, 168097, Note_on_c, 0, 48, 0
2, 168097, Note_on_c, 0, 72, 0
2, 168097, Note_on_c, 0, 64, 0
2, 168097, Note_on_c, 0, 62, 96
2, 168099, Note_on_c, 0, 76, 0
2, 168099, Note_on_c, 0, 38, 82
2, 168100, Note_on_c, 0, 67, 0
2, 168100, Note_on_c, 0, 69, 90
2, 168103, Note_on_c, 0, 66, 90
2, 168115, Note_on_c, 0, 36, 0
2, 168161, Control_c, 0, 64, 127
2, 168179, Note_on_c, 0, 45, 85
2, 168259, Note_on_c, 0, 50, 84
2, 168334, Note_on_c, 0, 54, 89
2, 168565, Note_on_c, 0, 50, 0
2, 168565, Note_on_c, 0, 45, 0
2, 168565, Control_c, 0, 64, 0
2, 168565, Note_on_c, 0, 54, 0
2, 168566, Note_on_c, 0, 74, 0
2, 168566, Note_on_c, 0, 69, 0
2, 168566, Note_on_c, 0, 66, 0
2, 168566, Note_on_c, 0, 62, 0
2, 168567, Note_on_c, 0, 38, 0
2, 168596, Note_on_c, 0, 76, 104
2, 168601, Note_on_c, 0, 64, 99
2, 168601, Note_on_c, 0, 71, 90
2, 168602, Note_on_c, 0, 67, 95
2, 168602, Note_on_c, 0, 40, 89
2, 168603, Note_on_c, 0, 52, 94
2, 168660, Control_c, 0, 64, 127
2, 168844, Note_on_c, 0, 52, 0
2, 168856, Note_on_c, 0, 52, 84
2, 168930, Note_on_c, 0, 59, 81
2, 168975, Note_on_c, 0, 64, 0
2, 168984, Note_on_c, 0, 64, 85
2, 169036, Note_on_c, 0, 64, 0
2, 169047, Note_on_c, 0, 64, 73
2, 169105, Note_on_c, 0, 71, 0
2, 169117, Note_on_c, 0, 71, 79
2, 169190, Note_on_c, 0, 76, 0
2, 169195, Note_on_c, 0, 76, 76
2, 169228, Note_on_c, 0, 40, 0
2, 169259, Note_on_c, 0, 76, 0
2, 169268, Note_on_c, 0, 76, 85
2, 169332, Note_on_c, 0, 83, 72
2, 169381, Note_on_c, 0, 88, 89
2, 169443, Note_on_c, 0, 88, 0
2, 169453, Note_on_c, 0, 88, 81
2, 169540, Note_on_c, 0, 95, 81
2, 169615, Note_on_c, 0, 100, 92
2, 170880, Note_on_c, 0, 52, 0
2, 170880, Note_on_c, 0, 59, 0
2, 170880, Note_on_c, 0, 67, 0
2, 171983, Note_on_c, 0, 28, 60
2, 171990, Note_on_c, 0, 40, 52
2, 172234, Control_c, 0, 64, 0
2, 172236, Note_on_c, 0, 100, 0
2, 172237, Note_on_c, 0, 76, 0
2, 172239, Note_on_c, 0, 88, 0
2, 172239, Control_c, 0, 64, 127
2, 172241, Note_on_c, 0, 95, 0
2, 172241, Note_on_c, 0, 83, 0
2, 173091, Note_on_c, 0, 28, 0
2, 173091, Note_on_c, 0, 40, 0
2, 173098, Note_on_c, 0, 28, 52
2, 173101, Note_on_c, 0, 40, 54
2, 173352, Note_on_c, 0, 28, 0
2, 173358, Note_on_c, 0, 28, 49
2, 173383, Note_on_c, 0, 64, 0
2, 173406, Note_on_c, 0, 71, 0
2, 174193, Note_on_c, 0, 88, 67
2, 174196, Note_on_c, 0, 64, 65
2, 174199, Note_on_c, 0, 76, 56
2, 174213, Note_on_c, 0, 59, 45
2, 174217, Note_on_c, 0, 71, 59
2, 174220, Note_on_c, 0, 59, 0
2, 174313, Note_on_c, 0, 83, 59
2, 174428, Note_on_c, 0, 64, 0
2, 174436, Note_on_c, 0, 64, 64
2, 174474, Note_on_c, 0, 76, 0
2, 174484, Note_on_c, 0, 76, 45
2, 174566, Note_on_c, 0, 83, 0
2, 174573, Note_on_c, 0, 83, 52
2, 174704, Note_on_c, 0, 88, 0
2, 174715, Note_on_c, 0, 88, 58
2, 174720, Note_on_c, 0, 28, 0
2, 174819, Note_on_c, 0, 83, 0
2, 174830, Note_on_c, 0, 83, 52
2, 174950, Note_on_c, 0, 76, 0
2, 174955, Note_on_c, 0, 76, 56
2, 175042, Note_on_c, 0, 83, 0
2, 175052, Note_on_c, 0, 83, 59
2, 175188, Note_on_c, 0, 64, 0
2, 175188, Note_on_c, 0, 88, 0
2, 175193, Note_on_c, 0, 64, 65
2, 175193, Note_on_c, 0, 88, 68
2, 175196, Note_on_c, 0, 76, 0
2, 175200, Note_on_c, 0, 76, 53
2, 175211, Note_on_c, 0, 71, 0
2, 175221, Note_on_c, 0, 71, 55
2, 175319, Note_on_c, 0, 83, 0
2, 175322, Note_on_c, 0, 83, 53
2, 175449, Note_on_c, 0, 64, 0
2, 175454, Note_on_c, 0, 64, 63
2, 175572, Note_on_c, 0, 83, 0
2, 175581, Note_on_c, 0, 83, 46
2, 175718, Note_on_c, 0, 88, 0
2, 175722, Note_on_c, 0, 88, 59
2, 175825, Note_on_c, 0, 83, 0
2, 175834, Note_on_c, 0, 83, 60
2, 175971, Note_on_c, 0, 76, 0
2, 175982, Note_on_c, 0, 76, 53
2, 176094, Note_on_c, 0, 83, 0
2, 176105, Note_on_c, 0, 83, 57
2, 176209, Note_on_c, 0, 71, 0
2, 176215, Note_on_c, 0, 62, 68
2, 176217, Note_on_c, 0, 88, 0
2, 176221, Note_on_c, 0, 71, 57
2, 176228, Note_on_c, 0, 88, 61
2, 176242, Control_c, 0, 64, 0
2, 176263, Control_c, 0, 64, 127
2, 176355, Note_on_c, 0, 83, 0
2, 176366, Note_on_c, 0, 83, 61
2, 176455, Note_on_c, 0, 62, 0
2, 176461, Note_on_c, 0, 62, 61
2, 176494, Note_on_c, 0, 76, 0
2, 176498, Note_on_c, 0, 76, 48
2, 176593, Note_on_c, 0, 83, 0
2, 176604, Note_on_c, 0, 83, 57
2, 176732, Note_on_c, 0, 88, 0
2, 176739, Note_on_c, 0, 88, 58
2, 176847, Note_on_c, 0, 83, 0
2, 176851, Note_on_c, 0, 83, 58
2, 176977, Note_on_c, 0, 76, 0
2, 176988, Note_on_c, 0, 76, 56
2, 177093, Note_on_c, 0, 83, 0
2, 177097, Note_on_c, 0, 83, 54
2, 177208, Note_on_c, 0, 62, 0
2, 177218, Note_on_c, 0, 62, 67
2, 177231, Note_on_c, 0, 88, 0
2, 177235, Control_c, 0, 64, 0
2, 177239, Note_on_c, 0, 71, 0
2, 177239, Note_on_c, 0, 64, 0
2, 177239, Note_on_c, 0, 88, 59
2, 177249, Note_on_c, 0, 71, 55
2, 177269, Note_on_c, 0, 40, 0
2, 177285, Control_c, 0, 64, 127
2, 177361, Note_on_c, 0, 83, 0
2, 177370, Note_on_c, 0, 83, 63
2, 177469, Note_on_c, 0, 62, 0
2, 177476, Note_on_c, 0, 62, 61
2, 177492, Note_on_c, 0, 76, 0
2, 177498, Note_on_c, 0, 76, 44
2, 177615, Note_on_c, 0, 83, 0
2, 177620, Note_on_c, 0, 83, 60
2, 177738, Note_on_c, 0, 88, 0
2, 177747, Note_on_c, 0, 88, 64
2, 177845, Note_on_c, 0, 83, 0
2, 177855, Note_on_c, 0, 83, 63
2, 177884, Note_on_c, 0, 62, 0
2, 177891, Note_on_c, 0, 62, 29
2, 177999, Note_on_c, 0, 76, 0
2, 178005, Note_on_c, 0, 76, 57
2, 178114, Note_on_c, 0, 83, 0
2, 178120, Note_on_c, 0, 83, 59
2, 178237, Note_on_c, 0, 88, 0
2, 178241, Note_on_c, 0, 61, 67
2, 178246, Note_on_c, 0, 88, 68
2, 178249, Note_on_c, 0, 69, 58
2, 178251, Control_c, 0, 64, 0
2, 178254, Note_on_c, 0, 73, 65
2, 178255, Note_on_c, 0, 62, 0
2, 178255, Note_on_c, 0, 76, 0
2, 178256, Note_on_c, 0, 83, 0
2, 178256, Note_on_c, 0, 71, 0
2, 178321, Control_c, 0, 64, 127
2, 178387, Note_on_c, 0, 81, 55
2, 178498, Note_on_c, 0, 61, 0
2, 178502, Note_on_c, 0, 61, 60
2, 178506, Note_on_c, 0, 69, 0
2, 178510, Note_on_c, 0, 76, 57
2, 178511, Note_on_c, 0, 69, 30
2, 178629, Note_on_c, 0, 81, 0
2, 178635, Note_on_c, 0, 81, 54
2, 178752, Note_on_c, 0, 88, 0
2, 178760, Note_on_c, 0, 88, 66
2, 178874, Note_on_c, 0, 61, 0
2, 178874, Note_on_c, 0, 81, 0
2, 178882, Note_on_c, 0, 81, 62
2, 178884, Note_on_c, 0, 61, 39
2, 179005, Note_on_c, 0, 76, 0
2, 179014, Note_on_c, 0, 76, 58
2, 179136, Note_on_c, 0, 81, 0
2, 179143, Note_on_c, 0, 81, 66
2, 179235, Note_on_c, 0, 61, 0
2, 179247, Note_on_c, 0, 61, 65
2, 179258, Note_on_c, 0, 69, 0
2, 179258, Note_on_c, 0, 88, 0
2, 179264, Control_c, 0, 64, 0
2, 179265, Note_on_c, 0, 88, 67
2, 179266, Note_on_c, 0, 73, 0
2, 179267, Note_on_c, 0, 69, 62
2, 179269, Note_on_c, 0, 85, 57
2, 179271, Note_on_c, 0, 73, 60
2, 179274, Note_on_c, 0, 85, 0
2, 179312, Control_c, 0, 64, 127
2, 179389, Note_on_c, 0, 81, 0
2, 179398, Note_on_c, 0, 81, 62
2, 179504, Note_on_c, 0, 61, 0
2, 179510, Note_on_c, 0, 61, 70
2, 179527, Note_on_c, 0, 76, 0
2, 179535, Note_on_c, 0, 76, 58
2, 179635, Note_on_c, 0, 81, 0
2, 179645, Note_on_c, 0, 81, 57
2, 179765, Note_on_c, 0, 88, 0
2, 179772, Note_on_c, 0, 88, 63
2, 179888, Note_on_c, 0, 81, 0
2, 179900, Note_on_c, 0, 81, 54
2, 180011, Note_on_c, 0, 76, 0
2, 180022, Note_on_c, 0, 76, 61
2, 180142, Note_on_c, 0, 81, 0
2, 180147, Note_on_c, 0, 81, 55
2, 180252, Note_on_c, 0, 73, 0
2, 180258, Note_on_c, 0, 61, 0
2, 180258, Note_on_c, 0, 76, 0
2, 180259, Note_on_c, 0, 81, 0
2, 180261, Control_c, 0, 64, 0
2, 180264, Note_on_c, 0, 69, 0
2, 180264, Note_on_c, 0, 88, 0
2, 180268, Note_on_c, 0, 60, 71
2, 180270, Note_on_c, 0, 88, 65
2, 180274, Note_on_c, 0, 69, 57
2, 180326, Control_c, 0, 64, 127
2, 180400, Note_on_c, 0, 81, 64
2, 180433, Note_on_c, 0, 60, 0
2, 180528, Note_on_c, 0, 60, 64
2, 180537, Note_on_c, 0, 76, 60
2, 180641, Note_on_c, 0, 81, 0
2, 180649, Note_on_c, 0, 81, 56
2, 180764, Note_on_c, 0, 88, 0
2, 180772, Note_on_c, 0, 88, 65
2, 180887, Note_on_c, 0, 81, 0
2, 180898, Note_on_c, 0, 81, 63
2, 181025, Note_on_c, 0, 76, 0
2, 181030, Note_on_c, 0, 76, 61
2, 181140, Note_on_c, 0, 81, 0
2, 181144, Note_on_c, 0, 81, 59
2, 181248, Note_on_c, 0, 60, 0
2, 181259, Note_on_c, 0, 60, 67
2, 181263, Note_on_c, 0, 69, 0
2, 181263, Note_on_c, 0, 88, 0
2, 181265, Control_c, 0, 64, 0
2, 181273, Note_on_c, 0, 69, 56
2, 181274, Note_on_c, 0, 88, 67
2, 181317, Control_c, 0, 64, 127
2, 181393, Note_on_c, 0, 81, 0
2, 181399, Note_on_c, 0, 81, 62
2, 181501, Note_on_c, 0, 60, 0
2, 181506, Note_on_c, 0, 60, 62
2, 181539, Note_on_c, 0, 76, 0
2, 181546, Note_on_c, 0, 76, 47
2, 181647, Note_on_c, 0, 81, 0
2, 181652, Note_on_c, 0, 81, 54
2, 181777, Note_on_c, 0, 88, 0
2, 181782, Note_on_c, 0, 88, 60
2, 181908, Note_on_c, 0, 81, 0
2, 181912, Note_on_c, 0, 81, 63
2, 181923, Note_on_c, 0, 76, 0
2, 181933, Note_on_c, 0, 76, 28
2, 182031, Note_on_c, 0, 76, 0
2, 182035, Note_on_c, 0, 76, 58
2, 182146, Note_on_c, 0, 81, 0
2, 182157, Note_on_c, 0, 81, 65
2, 182267, Note_on_c, 0, 59, 69
2, 182269, Note_on_c, 0, 88, 0
2, 182277, Control_c, 0, 64, 0
2, 182279, Note_on_c, 0, 88, 62
2, 182282, Note_on_c, 0, 67, 57
2, 182315, Control_c, 0, 64, 127
2, 182405, Note_on_c, 0, 83, 61
2, 182499, Note_on_c, 0, 59, 0
2, 182505, Note_on_c, 0, 59, 68
2, 182530, Note_on_c, 0, 76, 0
2, 182539, Note_on_c, 0, 76, 50
2, 182630, Note_on_c, 0, 83, 0
2, 182637, Note_on_c, 0, 83, 62
2, 182768, Note_on_c, 0, 88, 0
2, 182778, Note_on_c, 0, 88, 65
2, 182876, Note_on_c, 0, 83, 0
2, 182884, Note_on_c, 0, 83, 62
2, 183022, Note_on_c, 0, 76, 0
2, 183028, Note_on_c, 0, 76, 57
2, 183121, Note_on_c, 0, 83, 0
2, 183131, Note_on_c, 0, 83, 63
2, 183244, Note_on_c, 0, 59, 0
2, 183256, Note_on_c, 0, 59, 74
2, 183267, Note_on_c, 0, 88, 0
2, 183273, Control_c, 0, 64, 0
2, 183274, Note_on_c, 0, 88, 71
2, 183275, Note_on_c, 0, 67, 0
2, 183281, Note_on_c, 0, 67, 53
2, 183321, Control_c, 0, 64, 127
2, 183360, Note_on_c, 0, 81, 0
2, 183390, Note_on_c, 0, 83, 0
2, 183399, Note_on_c, 0, 83, 69
2, 183498, Note_on_c, 0, 59, 0
2, 183503, Note_on_c, 0, 59, 71
2, 183528, Note_on_c, 0, 76, 0
2, 183539, Note_on_c, 0, 76, 57
2, 183636, Note_on_c, 0, 83, 0
2, 183640, Note_on_c, 0, 83, 65
2, 183767, Note_on_c, 0, 88, 0
2, 183775, Note_on_c, 0, 88, 70
2, 183882, Note_on_c, 0, 83, 0
2, 183892, Note_on_c, 0, 83, 72
2, 184020, Note_on_c, 0, 76, 0
2, 184026, Note_on_c, 0, 76, 66
2, 184120, Note_on_c, 0, 83, 0
2, 184128, Note_on_c, 0, 83, 68
2, 184250, Note_on_c, 0, 88, 0
2, 184258, Note_on_c, 0, 60, 0
2, 184262, Note_on_c, 0, 88, 73
2, 184262, Note_on_c, 0, 61, 70
2, 184262, Note_on_c, 0, 64, 67
2, 184264, Note_on_c, 0, 70, 69
2, 184266, Note_on_c, 0, 59, 0
2, 184268, Note_on_c, 0, 67, 0
2, 184268, Note_on_c, 0, 76, 0
2, 184269, Note_on_c, 0, 83, 0
2, 184269, Control_c, 0, 64, 0
2, 184304, Note_on_c, 0, 69, 0
2, 184320, Control_c, 0, 64, 127
2, 184393, Note_on_c, 0, 82, 78
2, 184496, Note_on_c, 0, 61, 0
2, 184507, Note_on_c, 0, 61, 65
2, 184510, Note_on_c, 0, 76, 73
2, 184627, Note_on_c, 0, 82, 0
2, 184633, Note_on_c, 0, 82, 74
2, 184742, Note_on_c, 0, 88, 0
2, 184747, Note_on_c, 0, 88, 84
2, 184865, Note_on_c, 0, 82, 0
2, 184875, Note_on_c, 0, 82, 83
2, 184980, Note_on_c, 0, 76, 0
2, 184990, Note_on_c, 0, 76, 81
2, 185111, Note_on_c, 0, 82, 0
2, 185120, Note_on_c, 0, 82, 86
2, 185214, Note_on_c, 0, 88, 0
2, 185215, Note_on_c, 0, 76, 0
2, 185215, Note_on_c, 0, 82, 0
2, 185221, Control_c, 0, 64, 0
2, 185226, Note_on_c, 0, 61, 0
2, 185230, Note_on_c, 0, 61, 71
2, 185233, Note_on_c, 0, 64, 0
2, 185237, Note_on_c, 0, 91, 95
2, 185241, Note_on_c, 0, 70, 0
2, 185245, Note_on_c, 0, 64, 69
2, 185245, Note_on_c, 0, 70, 62
2, 185287, Control_c, 0, 64, 127
2, 185378, Note_on_c, 0, 82, 83
2, 185479, Note_on_c, 0, 61, 0
2, 185484, Note_on_c, 0, 61, 64
2, 185485, Note_on_c, 0, 79, 82
2, 185602, Note_on_c, 0, 82, 0
2, 185611, Note_on_c, 0, 82, 87
2, 185740, Note_on_c, 0, 91, 0
2, 185746, Note_on_c, 0, 91, 89
2, 185856, Note_on_c, 0, 82, 0
2, 185861, Note_on_c, 0, 82, 81
2, 185971, Note_on_c, 0, 79, 0
2, 185980, Note_on_c, 0, 79, 81
2, 186086, Note_on_c, 0, 82, 0
2, 186091, Note_on_c, 0, 82, 86
2, 186232, Note_on_c, 0, 91, 0
2, 186237, Note_on_c, 0, 91, 93
2, 186242, Note_on_c, 0, 62, 71
2, 186245, Note_on_c, 0, 61, 0
2, 186246, Note_on_c, 0, 82, 0
2, 186247, Note_on_c, 0, 79, 0
2, 186248, Control_c, 0, 64, 0
2, 186248, Note_on_c, 0, 64, 0
2, 186251, Note_on_c, 0, 69, 68
2, 186251, Note_on_c, 0, 67, 67
2, 186286, Note_on_c, 0, 70, 0
2, 186309, Control_c, 0, 64, 127
2, 186368, Note_on_c, 0, 81, 74
2, 186485, Note_on_c, 0, 62, 0
2, 186496, Note_on_c, 0, 62, 67
2, 186498, Note_on_c, 0, 79, 78
2, 186608, Note_on_c, 0, 81, 0
2, 186619, Note_on_c, 0, 81, 76
2, 186746, Note_on_c, 0, 91, 0
2, 186750, Note_on_c, 0, 91, 86
2, 186877, Note_on_c, 0, 81, 0
2, 186884, Note_on_c, 0, 81, 75
2, 186984, Note_on_c, 0, 79, 0
2, 186992, Note_on_c, 0, 79, 77
2, 187100, Note_on_c, 0, 81, 0
2, 187110, Note_on_c, 0, 81, 75
2, 187230, Note_on_c, 0, 62, 0
2, 187230, Note_on_c, 0, 91, 0
2, 187235, Note_on_c, 0, 62, 71
2, 187240, Note_on_c, 0, 91, 83
2, 187246, Note_on_c, 0, 67, 0
2, 187246, Note_on_c, 0, 69, 0
2, 187250, Note_on_c, 0, 67, 65
2, 187250, Note_on_c, 0, 69, 62
2, 187292, Control_c, 0, 64, 0
2, 187368, Note_on_c, 0, 81, 0
2, 187373, Note_on_c, 0, 81, 70
2, 187376, Control_c, 0, 64, 127
2, 187468, Note_on_c, 0, 62, 0
2, 187477, Note_on_c, 0, 62, 64
2, 187484, Note_on_c, 0, 79, 0
2, 187493, Note_on_c, 0, 79, 70
2, 187607, Note_on_c, 0, 81, 0
2, 187612, Note_on_c, 0, 81, 70
2, 187729, Note_on_c, 0, 91, 0
2, 187737, Note_on_c, 0, 91, 70
2, 187845, Note_on_c, 0, 81, 0
2, 187852, Note_on_c, 0, 81, 65
2, 187968, Note_on_c, 0, 79, 0
2, 187979, Note_on_c, 0, 79, 72
2, 188098, Note_on_c, 0, 81, 0
2, 188106, Note_on_c, 0, 81, 69
2, 188213, Note_on_c, 0, 62, 0
2, 188221, Note_on_c, 0, 91, 0
2, 188223, Note_on_c, 0, 62, 62
2, 188225, Note_on_c, 0, 79, 0
2, 188229, Note_on_c, 0, 69, 0
2, 188229, Control_c, 0, 64, 0
2, 188230, Note_on_c, 0, 91, 75
2, 188234, Note_on_c, 0, 69, 54
2, 188240, Note_on_c, 0, 66, 54
2, 188307, Note_on_c, 0, 86, 68
2, 188313, Control_c, 0, 64, 127
2, 188375, Note_on_c, 0, 81, 0
2, 188384, Note_on_c, 0, 81, 66
2, 188451, Note_on_c, 0, 62, 0
2, 188456, Note_on_c, 0, 62, 61
2, 188488, Note_on_c, 0, 79, 68
2, 188544, Note_on_c, 0, 81, 0
2, 188554, Note_on_c, 0, 81, 66
2, 188643, Note_on_c, 0, 86, 0
2, 188648, Note_on_c, 0, 86, 70
2, 188712, Note_on_c, 0, 91, 0
2, 188718, Note_on_c, 0, 91, 77
2, 188797, Note_on_c, 0, 86, 0
2, 188803, Note_on_c, 0, 86, 64
2, 188858, Note_on_c, 0, 81, 0
2, 188864, Note_on_c, 0, 81, 69
2, 188951, Note_on_c, 0, 79, 0
2, 188955, Note_on_c, 0, 79, 68
2, 189020, Note_on_c, 0, 81, 0
2, 189025, Note_on_c, 0, 81, 72
2, 189120, Note_on_c, 0, 86, 0
2, 189130, Note_on_c, 0, 86, 77
2, 189196, Note_on_c, 0, 62, 0
2, 189204, Note_on_c, 0, 62, 67
2, 189204, Note_on_c, 0, 66, 0
2, 189204, Note_on_c, 0, 69, 0
2, 189204, Note_on_c, 0, 81, 0
2, 189208, Note_on_c, 0, 69, 61
2, 189208, Note_on_c, 0, 66, 63
2, 189209, Note_on_c, 0, 81, 64
2, 189214, Note_on_c, 0, 90, 80
2, 189304, Note_on_c, 0, 86, 0
2, 189312, Note_on_c, 0, 86, 75
2, 189373, Note_on_c, 0, 81, 0
2, 189379, Note_on_c, 0, 81, 71
2, 189434, Note_on_c, 0, 62, 0
2, 189438, Note_on_c, 0, 62, 68
2, 189476, Note_on_c, 0, 78, 71
2, 189557, Note_on_c, 0, 81, 0
2, 189568, Note_on_c, 0, 81, 70
2, 189634, Note_on_c, 0, 86, 0
2, 189638, Note_on_c, 0, 86, 64
2, 189665, Note_on_c, 0, 90, 0
2, 189675, Note_on_c, 0, 90, 79
2, 189688, Note_on_c, 0, 67, 0
2, 189694, Note_on_c, 0, 67, 97
2, 189742, Note_on_c, 0, 86, 0
2, 189751, Note_on_c, 0, 86, 74
2, 189834, Note_on_c, 0, 81, 0
2, 189844, Note_on_c, 0, 81, 67
2, 189918, Note_on_c, 0, 78, 0
2, 189922, Note_on_c, 0, 78, 70
2, 190010, Note_on_c, 0, 81, 0
2, 190021, Note_on_c, 0, 81, 72
2, 190056, Note_on_c, 0, 69, 0
2, 190062, Note_on_c, 0, 69, 82
2, 190126, Note_on_c, 0, 86, 0
2, 190130, Note_on_c, 0, 86, 79
2, 190144, Note_on_c, 0, 69, 0
2, 190145, Note_on_c, 0, 66, 0
2, 190145, Note_on_c, 0, 67, 0
2, 190145, Note_on_c, 0, 91, 0
2, 190146, Note_on_c, 0, 81, 0
2, 190146, Note_on_c, 0, 90, 0
2, 190146, Note_on_c, 0, 79, 0
2, 190146, Note_on_c, 0, 78, 0
2, 190147, Control_c, 0, 64, 0
2, 190179, Note_on_c, 0, 62, 0
2, 190190, Note_on_c, 0, 62, 72
2, 190198, Note_on_c, 0, 55, 72
2, 190200, Note_on_c, 0, 70, 84
2, 190206, Note_on_c, 0, 91, 83
2, 190225, Note_on_c, 0, 86, 0
2, 190241, Control_c, 0, 64, 127
2, 190303, Note_on_c, 0, 86, 73
2, 190374, Note_on_c, 0, 82, 77
2, 190460, Note_on_c, 0, 79, 70
2, 190540, Note_on_c, 0, 82, 0
2, 190545, Note_on_c, 0, 82, 78
2, 190648, Note_on_c, 0, 86, 0
2, 190654, Note_on_c, 0, 86, 69
2, 190709, Note_on_c, 0, 91, 0
2, 190713, Note_on_c, 0, 91, 84
2, 190714, Note_on_c, 0, 69, 84
2, 190778, Note_on_c, 0, 86, 0
2, 190785, Note_on_c, 0, 86, 75
2, 190863, Note_on_c, 0, 82, 0
2, 190868, Note_on_c, 0, 82, 67
2, 190955, Note_on_c, 0, 79, 0
2, 190960, Note_on_c, 0, 79, 65
2, 191047, Note_on_c, 0, 82, 0
2, 191054, Note_on_c, 0, 82, 74
2, 191080, Note_on_c, 0, 65, 79
2, 191139, Note_on_c, 0, 86, 0
2, 191145, Note_on_c, 0, 86, 77
2, 191179, Note_on_c, 0, 70, 0
2, 191180, Note_on_c, 0, 69, 0
2, 191180, Note_on_c, 0, 55, 0
2, 191180, Note_on_c, 0, 91, 0
2, 191180, Note_on_c, 0, 82, 0
2, 191180, Note_on_c, 0, 79, 0
2, 191181, Control_c, 0, 64, 0
2, 191193, Note_on_c, 0, 62, 0
2, 191204, Note_on_c, 0, 62, 90
2, 191216, Note_on_c, 0, 57, 81
2, 191217, Note_on_c, 0, 53, 79
2, 191223, Note_on_c, 0, 89, 73
2, 191278, Control_c, 0, 64, 127
2, 191293, Note_on_c, 0, 86, 0
2, 191300, Note_on_c, 0, 86, 77
2, 191389, Note_on_c, 0, 81, 74
2, 191476, Note_on_c, 0, 77, 66
2, 191485, Note_on_c, 0, 65, 0
2, 191539, Note_on_c, 0, 81, 0
2, 191547, Note_on_c, 0, 81, 63
2, 191631, Note_on_c, 0, 86, 0
2, 191637, Note_on_c, 0, 86, 72
2, 191708, Note_on_c, 0, 62, 0
2, 191708, Note_on_c, 0, 89, 0
2, 191715, Note_on_c, 0, 89, 71
2, 191715, Note_on_c, 0, 62, 96
2, 191777, Note_on_c, 0, 86, 0
2, 191782, Note_on_c, 0, 86, 77
2, 191854, Note_on_c, 0, 81, 0
2, 191858, Note_on_c, 0, 81, 76
2, 191961, Note_on_c, 0, 77, 0
2, 191971, Note_on_c, 0, 77, 64
2, 192030, Note_on_c, 0, 81, 0
2, 192041, Note_on_c, 0, 81, 76
2, 192061, Note_on_c, 0, 62, 0
2, 192068, Note_on_c, 0, 65, 73
2, 192068, Note_on_c, 0, 62, 63
2, 192069, Note_on_c, 0, 53, 0
2, 192077, Note_on_c, 0, 53, 48
2, 192115, Note_on_c, 0, 86, 0
2, 192126, Note_on_c, 0, 86, 72
2, 192167, Note_on_c, 0, 53, 0
2, 192168, Note_on_c, 0, 65, 0
2, 192169, Control_c, 0, 64, 0
2, 192169, Note_on_c, 0, 77, 0
2, 192169, Note_on_c, 0, 62, 0
2, 192169, Note_on_c, 0, 89, 0
2, 192169, Note_on_c, 0, 57, 0
2, 192192, Note_on_c, 0, 81, 0
2, 192204, Note_on_c, 0, 91, 91
2, 192208, Note_on_c, 0, 67, 83
2, 192212, Note_on_c, 0, 63, 88
2, 192215, Note_on_c, 0, 86, 0
2, 192218, Note_on_c, 0, 58, 79
2, 192218, Note_on_c, 0, 55, 78
2, 192253, Control_c, 0, 64, 127
2, 192312, Note_on_c, 0, 87, 76
2, 192381, Note_on_c, 0, 82, 66
2, 192460, Note_on_c, 0, 79, 70
2, 192552, Note_on_c, 0, 82, 0
2, 192563, Note_on_c, 0, 82, 71
2, 192568, Note_on_c, 0, 70, 77
2, 192606, Note_on_c, 0, 87, 0
2, 192615, Note_on_c, 0, 87, 74
2, 192677, Control_c, 0, 64, 0
2, 192679, Note_on_c, 0, 67, 0
2, 192679, Note_on_c, 0, 79, 0
2, 192679, Note_on_c, 0, 58, 0
2, 192679, Note_on_c, 0, 55, 0
2, 192679, Note_on_c, 0, 82, 0
2, 192679, Note_on_c, 0, 63, 0
2, 192679, Note_on_c, 0, 70, 0
2, 192679, Note_on_c, 0, 87, 0
2, 192680, Note_on_c, 0, 91, 0
2, 192707, Note_on_c, 0, 65, 84
2, 192707, Note_on_c, 0, 69, 91
2, 192710, Note_on_c, 0, 89, 83
2, 192715, Note_on_c, 0, 60, 76
2, 192716, Note_on_c, 0, 57, 83
2, 192742, Note_on_c, 0, 65, 0
2, 192745, Note_on_c, 0, 57, 0
2, 192746, Note_on_c, 0, 60, 0
2, 192760, Control_c, 0, 64, 127
2, 192768, Note_on_c, 0, 84, 72
2, 192866, Note_on_c, 0, 81, 66
2, 192948, Note_on_c, 0, 77, 67
2, 193036, Note_on_c, 0, 81, 0
2, 193041, Note_on_c, 0, 81, 66
2, 193078, Note_on_c, 0, 65, 87
2, 193128, Note_on_c, 0, 84, 0
2, 193133, Note_on_c, 0, 84, 73
2, 193166, Note_on_c, 0, 65, 0
2, 193166, Note_on_c, 0, 77, 0
2, 193167, Note_on_c, 0, 81, 0
2, 193171, Control_c, 0, 64, 0
2, 193175, Note_on_c, 0, 69, 0
2, 193175, Note_on_c, 0, 89, 0
2, 193195, Note_on_c, 0, 62, 96
2, 193198, Note_on_c, 0, 84, 0
2, 193218, Note_on_c, 0, 58, 85
2, 193224, Note_on_c, 0, 86, 81
2, 193259, Control_c, 0, 64, 127
2, 193317, Note_on_c, 0, 82, 77
2, 193392, Note_on_c, 0, 77, 72
2, 193488, Note_on_c, 0, 74, 62
2, 193551, Note_on_c, 0, 77, 0
2, 193560, Note_on_c, 0, 77, 68
2, 193628, Note_on_c, 0, 82, 0
2, 193637, Note_on_c, 0, 82, 74
2, 193680, Note_on_c, 0, 46, 91
2, 193704, Note_on_c, 0, 86, 0
2, 193711, Note_on_c, 0, 86, 76
2, 193766, Note_on_c, 0, 82, 0
2, 193777, Note_on_c, 0, 82, 73
2, 193858, Note_on_c, 0, 77, 0
2, 193864, Note_on_c, 0, 77, 27
2, 193927, Note_on_c, 0, 62, 0
2, 193927, Note_on_c, 0, 74, 0
2, 193932, Note_on_c, 0, 74, 72
2, 193932, Note_on_c, 0, 62, 90
2, 193996, Note_on_c, 0, 77, 0
2, 194003, Note_on_c, 0, 77, 62
2, 194058, Note_on_c, 0, 82, 0
2, 194068, Note_on_c, 0, 82, 60
2, 194112, Note_on_c, 0, 84, 77
2, 194161, Note_on_c, 0, 46, 0
2, 194161, Control_c, 0, 64, 0
2, 194162, Note_on_c, 0, 74, 0
2, 194162, Note_on_c, 0, 58, 0
2, 194162, Note_on_c, 0, 77, 0
2, 194162, Note_on_c, 0, 62, 0
2, 194162, Note_on_c, 0, 86, 0
2, 194165, Note_on_c, 0, 84, 0
2, 194181, Note_on_c, 0, 82, 0
2, 194192, Note_on_c, 0, 60, 84
2, 194199, Note_on_c, 0, 87, 85
2, 194199, Note_on_c, 0, 48, 74
2, 194200, Note_on_c, 0, 55, 74
2, 194204, Note_on_c, 0, 51, 71
2, 194250, Control_c, 0, 64, 127
2, 194286, Note_on_c, 0, 84, 63
2, 194355, Note_on_c, 0, 79, 68
2, 194450, Note_on_c, 0, 75, 65
2, 194526, Note_on_c, 0, 79, 0
2, 194538, Note_on_c, 0, 79, 69
2, 194565, Note_on_c, 0, 60, 0
2, 194571, Note_on_c, 0, 60, 78
2, 194611, Note_on_c, 0, 84, 0
2, 194617, Note_on_c, 0, 84, 69
2, 194672, Note_on_c, 0, 60, 0
2, 194672, Note_on_c, 0, 87, 0
2, 194679, Note_on_c, 0, 60, 78
2, 194679, Note_on_c, 0, 87, 81
2, 194772, Note_on_c, 0, 84, 0
2, 194776, Note_on_c, 0, 84, 72
2, 194856, Note_on_c, 0, 79, 0
2, 194864, Note_on_c, 0, 79, 56
2, 194926, Note_on_c, 0, 60, 0
2, 194931, Note_on_c, 0, 60, 78
2, 194949, Note_on_c, 0, 75, 0
2, 194956, Note_on_c, 0, 75, 76
2, 195018, Note_on_c, 0, 79, 0
2, 195027, Note_on_c, 0, 79, 70
2, 195057, Note_on_c, 0, 62, 90
2, 195072, Note_on_c, 0, 84, 0
2, 195083, Note_on_c, 0, 84, 83
2, 195139, Note_on_c, 0, 87, 0
2, 195140, Note_on_c, 0, 48, 0
2, 195140, Note_on_c, 0, 75, 0
2, 195140, Note_on_c, 0, 51, 0
2, 195140, Note_on_c, 0, 62, 0
2, 195141, Note_on_c, 0, 84, 0
2, 195141, Note_on_c, 0, 55, 0
2, 195143, Control_c, 0, 64, 0
2, 195156, Note_on_c, 0, 79, 0
2, 195171, Note_on_c, 0, 60, 0
2, 195181, Note_on_c, 0, 60, 90
2, 195183, Note_on_c, 0, 57, 83
2, 195183, Note_on_c, 0, 89, 85
2, 195189, Note_on_c, 0, 53, 81
2, 195191, Note_on_c, 0, 50, 74
2, 195240, Control_c, 0, 64, 127
2, 195263, Note_on_c, 0, 86, 80
2, 195348, Note_on_c, 0, 81, 75
2, 195428, Note_on_c, 0, 58, 87
2, 195452, Note_on_c, 0, 77, 56
2, 195517, Note_on_c, 0, 81, 0
2, 195521, Note_on_c, 0, 81, 76
2, 195551, Note_on_c, 0, 65, 84
2, 195586, Note_on_c, 0, 86, 0
2, 195591, Note_on_c, 0, 86, 78
2, 195671, Note_on_c, 0, 89, 0
2, 195677, Note_on_c, 0, 89, 76
2, 195681, Note_on_c, 0, 62, 101
2, 195740, Note_on_c, 0, 86, 0
2, 195747, Note_on_c, 0, 86, 74
2, 195816, Note_on_c, 0, 81, 0
2, 195823, Note_on_c, 0, 81, 72
2, 195916, Note_on_c, 0, 77, 0
2, 195921, Note_on_c, 0, 77, 68
2, 196001, Note_on_c, 0, 81, 0
2, 196006, Note_on_c, 0, 81, 67
2, 196032, Note_on_c, 0, 62, 0
2, 196041, Note_on_c, 0, 62, 91
2, 196070, Note_on_c, 0, 86, 0
2, 196079, Note_on_c, 0, 86, 76
2, 196128, Note_on_c, 0, 53, 0
2, 196128, Note_on_c, 0, 89, 0
2, 196128, Note_on_c, 0, 50, 0
2, 196128, Note_on_c, 0, 77, 0
2, 196128, Note_on_c, 0, 58, 0
2, 196128, Note_on_c, 0, 60, 0
2, 196128, Note_on_c, 0, 65, 0
2, 196128, Note_on_c, 0, 86, 0
2, 196128, Note_on_c, 0, 81, 0
2, 196129, Note_on_c, 0, 57, 0
2, 196129, Control_c, 0, 64, 0
2, 196147, Note_on_c, 0, 62, 0
2, 196182, Note_on_c, 0, 91, 94
2, 196183, Note_on_c, 0, 67, 90
2, 196190, Note_on_c, 0, 63, 95
2, 196195, Note_on_c, 0, 58, 91
2, 196224, Control_c, 0, 64, 127
2, 196249, Note_on_c, 0, 87, 74
2, 196332, Note_on_c, 0, 82, 75
2, 196419, Note_on_c, 0, 79, 76
2, 196427, Note_on_c, 0, 51, 90
2, 196485, Note_on_c, 0, 82, 0
2, 196490, Note_on_c, 0, 82, 65
2, 196523, Note_on_c, 0, 87, 0
2, 196530, Note_on_c, 0, 87, 84
2, 196538, Note_on_c, 0, 67, 0
2, 196549, Note_on_c, 0, 67, 85
2, 196646, Note_on_c, 0, 87, 0
2, 196647, Note_on_c, 0, 79, 0
2, 196647, Note_on_c, 0, 51, 0
2, 196647, Control_c, 0, 64, 0
2, 196647, Note_on_c, 0, 63, 0
2, 196654, Note_on_c, 0, 91, 0
2, 196661, Note_on_c, 0, 67, 0
2, 196664, Note_on_c, 0, 91, 103
2, 196665, Note_on_c, 0, 67, 95
2, 196667, Note_on_c, 0, 64, 96
2, 196669, Note_on_c, 0, 58, 0
2, 196669, Note_on_c, 0, 82, 0
2, 196674, Note_on_c, 0, 58, 92
2, 196715, Control_c, 0, 64, 127
2, 196751, Note_on_c, 0, 88, 81
2, 196821, Note_on_c, 0, 82, 75
2, 196898, Note_on_c, 0, 79, 76
2, 196903, Note_on_c, 0, 52, 101
2, 196968, Note_on_c, 0, 82, 0
2, 196976, Note_on_c, 0, 88, 0
2, 196977, Note_on_c, 0, 82, 66
2, 196987, Note_on_c, 0, 88, 76
2, 197040, Note_on_c, 0, 70, 86
2, 197133, Control_c, 0, 64, 0
2, 197133, Note_on_c, 0, 52, 0
2, 197133, Note_on_c, 0, 64, 0
2, 197134, Note_on_c, 0, 67, 0
2, 197134, Note_on_c, 0, 70, 0
2, 197134, Note_on_c, 0, 91, 0
2, 197134, Note_on_c, 0, 79, 0
2, 197134, Note_on_c, 0, 82, 0
2, 197134, Note_on_c, 0, 58, 0
2, 197151, Note_on_c, 0, 66, 98
2, 197151, Note_on_c, 0, 69, 98
2, 197153, Note_on_c, 0, 88, 0
2, 197154, Note_on_c, 0, 62, 99
2, 197155, Note_on_c, 0, 93, 102
2, 197191, Control_c, 0, 64, 127
2, 197233, Note_on_c, 0, 90, 94
2, 197303, Note_on_c, 0, 86, 76
2, 197379, Note_on_c, 0, 81, 61
2, 197410, Note_on_c, 0, 50, 82
2, 197446, Note_on_c, 0, 78, 80
2, 197521, Note_on_c, 0, 74, 85
2, 197593, Note_on_c, 0, 69, 0
2, 197594, Note_on_c, 0, 93, 0
2, 197594, Note_on_c, 0, 50, 0
2, 197594, Note_on_c, 0, 86, 0
2, 197594, Control_c, 0, 64, 0
2, 197594, Note_on_c, 0, 62, 0
2, 197594, Note_on_c, 0, 90, 0
2, 197594, Note_on_c, 0, 66, 0
2, 197594, Note_on_c, 0, 78, 0
2, 197595, Note_on_c, 0, 74, 0
2, 197614, Note_on_c, 0, 81, 0
2, 197633, Note_on_c, 0, 62, 99
2, 197639, Note_on_c, 0, 79, 109
2, 197642, Note_on_c, 0, 67, 101
2, 197660, Control_c, 0, 64, 127
2, 197671, Note_on_c, 0, 57, 79
2, 197713, Note_on_c, 0, 62, 0
2, 197769, Note_on_c, 0, 50, 88
2, 197829, Note_on_c, 0, 45, 83
2, 197878, Note_on_c, 0, 38, 89
2, 197985, Note_on_c, 0, 81, 102
2, 197988, Note_on_c, 0, 69, 95
2, 198075, Note_on_c, 0, 45, 0
2, 198076, Note_on_c, 0, 79, 0
2, 198076, Control_c, 0, 64, 0
2, 198077, Note_on_c, 0, 50, 0
2, 198077, Note_on_c, 0, 81, 0
2, 198077, Note_on_c, 0, 69, 0
2, 198078, Note_on_c, 0, 38, 0
2, 198090, Note_on_c, 0, 57, 0
2, 198090, Note_on_c, 0, 67, 0
2, 198116, Note_on_c, 0, 79, 89
2, 198119, Note_on_c, 0, 82, 105
2, 198120, Note_on_c, 0, 70, 105
2, 198120, Note_on_c, 0, 74, 95
2, 198122, Note_on_c, 0, 43, 98
2, 198123, Note_on_c, 0, 31, 95
2, 198144, Control_c, 0, 64, 127
2, 198278, Note_on_c, 0, 58, 77
2, 198382, Note_on_c, 0, 43, 0
2, 198388, Note_on_c, 0, 43, 83
2, 198504, Note_on_c, 0, 58, 0
2, 198510, Note_on_c, 0, 58, 83
2, 198512, Note_on_c, 0, 62, 63
2, 198514, Note_on_c, 0, 50, 69
2, 198635, Note_on_c, 0, 43, 0
2, 198636, Note_on_c, 0, 81, 105
2, 198639, Note_on_c, 0, 69, 94
2, 198639, Note_on_c, 0, 43, 88
2, 198758, Note_on_c, 0, 58, 0
2, 198763, Note_on_c, 0, 58, 77
2, 198773, Note_on_c, 0, 50, 0
2, 198778, Note_on_c, 0, 50, 77
2, 198873, Note_on_c, 0, 43, 0
2, 198882, Note_on_c, 0, 43, 85
2, 198996, Note_on_c, 0, 50, 0
2, 198996, Note_on_c, 0, 58, 0
2, 199002, Note_on_c, 0, 58, 88
2, 199003, Note_on_c, 0, 77, 93
2, 199004, Note_on_c, 0, 65, 89
2, 199005, Note_on_c, 0, 50, 70
2, 199065, Note_on_c, 0, 31, 0
2, 199072, Note_on_c, 0, 82, 0
2, 199073, Note_on_c, 0, 81, 0
2, 199075, Note_on_c, 0, 69, 0
2, 199075, Note_on_c, 0, 62, 0
2, 199075, Note_on_c, 0, 58, 0
2, 199076, Note_on_c, 0, 50, 0
2, 199076, Note_on_c, 0, 65, 0
2, 199076, Note_on_c, 0, 70, 0
2, 199077, Note_on_c, 0, 77, 0
2, 199084, Control_c, 0, 64, 0
2, 199088, Note_on_c, 0, 74, 0
2, 199088, Note_on_c, 0, 79, 0
2, 199096, Note_on_c, 0, 43, 0
2, 199129, Note_on_c, 0, 74, 98
2, 199130, Note_on_c, 0, 65, 89
2, 199134, Note_on_c, 0, 41, 91
2, 199136, Note_on_c, 0, 62, 94
2, 199138, Note_on_c, 0, 69, 79
2, 199165, Control_c, 0, 64, 127
2, 199269, Note_on_c, 0, 57, 79
2, 199270, Note_on_c, 0, 53, 81
2, 199380, Note_on_c, 0, 41, 0
2, 199387, Note_on_c, 0, 41, 79
2, 199503, Note_on_c, 0, 53, 0
2, 199503, Note_on_c, 0, 57, 0
2, 199507, Note_on_c, 0, 57, 78
2, 199508, Note_on_c, 0, 53, 79
2, 199618, Note_on_c, 0, 62, 0
2, 199618, Note_on_c, 0, 74, 0
2, 199624, Control_c, 0, 64, 0
2, 199626, Note_on_c, 0, 74, 103
2, 199626, Note_on_c, 0, 41, 0
2, 199628, Note_on_c, 0, 62, 99
2, 199631, Note_on_c, 0, 53, 0
2, 199633, Note_on_c, 0, 57, 0
2, 199635, Note_on_c, 0, 41, 83
2, 199656, Control_c, 0, 64, 127
2, 199680, Note_on_c, 0, 65, 0
2, 199767, Note_on_c, 0, 53, 77
2, 199768, Note_on_c, 0, 57, 71
2, 199770, Note_on_c, 0, 50, 59
2, 199872, Note_on_c, 0, 41, 0
2, 199877, Note_on_c, 0, 41, 82
2, 199987, Note_on_c, 0, 53, 0
2, 199987, Note_on_c, 0, 57, 0
2, 199997, Note_on_c, 0, 53, 81
2, 199998, Note_on_c, 0, 57, 86
2, 199998, Note_on_c, 0, 77, 103
2, 200000, Note_on_c, 0, 65, 96
2, 200070, Note_on_c, 0, 41, 0
2, 200070, Note_on_c, 0, 57, 0
2, 200072, Note_on_c, 0, 53, 0
2, 200072, Note_on_c, 0, 65, 0
2, 200074, Note_on_c, 0, 77, 0
2, 200075, Control_c, 0, 64, 0
2, 200079, Note_on_c, 0, 50, 0
2, 200079, Note_on_c, 0, 62, 0
2, 200079, Note_on_c, 0, 69, 0
2, 200087, Note_on_c, 0, 74, 0
2, 200127, Note_on_c, 0, 79, 105
2, 200128, Note_on_c, 0, 39, 85
2, 200129, Note_on_c, 0, 67, 97
2, 200129, Note_on_c, 0, 70, 97
2, 200133, Note_on_c, 0, 75, 95
2, 200163, Control_c, 0, 64, 127
2, 200245, Note_on_c, 0, 55, 81
2, 200247, Note_on_c, 0, 51, 80
2, 200363, Note_on_c, 0, 39, 0
2, 200369, Note_on_c, 0, 39, 69
2, 200478, Note_on_c, 0, 55, 0
2, 200486, Note_on_c, 0, 51, 0
2, 200486, Note_on_c, 0, 70, 0
2, 200488, Note_on_c, 0, 55, 86
2, 200490, Note_on_c, 0, 82, 95
2, 200494, Note_on_c, 0, 43, 72
2, 200495, Note_on_c, 0, 70, 90
2, 200497, Note_on_c, 0, 51, 81
2, 200501, Note_on_c, 0, 43, 0
2, 200561, Note_on_c, 0, 67, 0
2, 200562, Note_on_c, 0, 75, 0
2, 200562, Note_on_c, 0, 79, 0
2, 200562, Note_on_c, 0, 39, 0
2, 200564, Note_on_c, 0, 70, 0
2, 200564, Note_on_c, 0, 82, 0
2, 200565, Note_on_c, 0, 51, 0
2, 200569, Control_c, 0, 64, 0
2, 200578, Note_on_c, 0, 55, 0
2, 200614, Note_on_c, 0, 81, 102
2, 200615, Note_on_c, 0, 41, 93
2, 200620, Note_on_c, 0, 69, 95
2, 200620, Note_on_c, 0, 72, 90
2, 200621, Note_on_c, 0, 77, 91
2, 200632, Control_c, 0, 64, 127
2, 200746, Note_on_c, 0, 57, 87
2, 200748, Note_on_c, 0, 53, 86
2, 200847, Note_on_c, 0, 41, 0
2, 200856, Note_on_c, 0, 41, 90
2, 200962, Note_on_c, 0, 57, 0
2, 200970, Note_on_c, 0, 53, 0
2, 200970, Note_on_c, 0, 77, 0
2, 200974, Note_on_c, 0, 57, 90
2, 200974, Note_on_c, 0, 53, 88
2, 200981, Note_on_c, 0, 77, 94
2, 201040, Note_on_c, 0, 69, 0
2, 201040, Note_on_c, 0, 41, 0
2, 201041, Note_on_c, 0, 53, 0
2, 201042, Note_on_c, 0, 72, 0
2, 201042, Note_on_c, 0, 77, 0
2, 201043, Note_on_c, 0, 81, 0
2, 201045, Control_c, 0, 64, 0
2, 201054, Note_on_c, 0, 57, 0
2, 201104, Note_on_c, 0, 34, 95
2, 201104, Note_on_c, 0, 86, 109
2, 201108, Control_c, 0, 64, 127
2, 201111, Note_on_c, 0, 77, 98
2, 201112, Note_on_c, 0, 74, 103
2, 201113, Note_on_c, 0, 82, 90
2, 201227, Note_on_c, 0, 50, 82
2, 201227, Note_on_c, 0, 46, 84
2, 201354, Note_on_c, 0, 34, 0
2, 201363, Note_on_c, 0, 34, 87
2, 201469, Note_on_c, 0, 46, 0
2, 201477, Note_on_c, 0, 50, 0
2, 201480, Note_on_c, 0, 46, 84
2, 201484, Note_on_c, 0, 50, 73
2, 201600, Note_on_c, 0, 34, 0
2, 201603, Note_on_c, 0, 34, 80
2, 201707, Note_on_c, 0, 46, 0
2, 201707, Note_on_c, 0, 50, 0
2, 201712, Note_on_c, 0, 46, 75
2, 201712, Note_on_c, 0, 50, 76
2, 201800, Note_on_c, 0, 34, 0
2, 201801, Note_on_c, 0, 82, 0
2, 201802, Note_on_c, 0, 46, 0
2, 201802, Control_c, 0, 64, 0
2, 201802, Note_on_c, 0, 50, 0
2, 201802, Note_on_c, 0, 77, 0
2, 201822, Note_on_c, 0, 74, 0
2, 201822, Note_on_c, 0, 86, 0
2, 201826, Note_on_c, 0, 86, 103
2, 201828, Note_on_c, 0, 35, 85
2, 201829, Note_on_c, 0, 74, 104
2, 201853, Control_c, 0, 64, 127
2, 201936, Note_on_c, 0, 47, 78
2, 202012, Control_c, 0, 64, 0
2, 202016, Note_on_c, 0, 35, 0
2, 202017, Note_on_c, 0, 74, 0
2, 202017, Note_on_c, 0, 47, 0
2, 202017, Note_on_c, 0, 86, 0
2, 202074, Note_on_c, 0, 84, 103
2, 202075, Note_on_c, 0, 48, 92
2, 202078, Note_on_c, 0, 72, 97
2, 202079, Note_on_c, 0, 36, 94
2, 202083, Control_c, 0, 64, 127
2, 202160, Note_on_c, 0, 72, 0
2, 202160, Note_on_c, 0, 84, 0
2, 202165, Note_on_c, 0, 72, 92
2, 202167, Note_on_c, 0, 84, 93
2, 202229, Note_on_c, 0, 72, 0
2, 202229, Note_on_c, 0, 84, 0
2, 202235, Note_on_c, 0, 72, 82
2, 202236, Note_on_c, 0, 84, 89
2, 202300, Note_on_c, 0, 63, 98
2, 202302, Note_on_c, 0, 55, 85
2, 202302, Note_on_c, 0, 60, 77
2, 202308, Note_on_c, 0, 70, 97
2, 202309, Note_on_c, 0, 82, 96
2, 202383, Note_on_c, 0, 63, 0
2, 202388, Note_on_c, 0, 63, 83
2, 202452, Note_on_c, 0, 84, 0
2, 202462, Note_on_c, 0, 84, 87
2, 202505, Control_c, 0, 64, 0
2, 202508, Note_on_c, 0, 72, 0
2, 202508, Note_on_c, 0, 48, 0
2, 202508, Note_on_c, 0, 70, 0
2, 202508, Note_on_c, 0, 82, 0
2, 202508, Note_on_c, 0, 63, 0
2, 202509, Note_on_c, 0, 84, 0
2, 202529, Note_on_c, 0, 36, 0
2, 202529, Note_on_c, 0, 60, 0
2, 202535, Note_on_c, 0, 60, 89
2, 202536, Note_on_c, 0, 55, 0
2, 202542, Note_on_c, 0, 55, 91
2, 202548, Note_on_c, 0, 51, 77
2, 202549, Note_on_c, 0, 79, 105
2, 202554, Note_on_c, 0, 67, 100
2, 202575, Control_c, 0, 64, 127
2, 202610, Note_on_c, 0, 48, 91
2, 202690, Note_on_c, 0, 48, 0
2, 202698, Note_on_c, 0, 48, 87
2, 202796, Note_on_c, 0, 36, 91
2, 202909, Note_on_c, 0, 67, 0
2, 202910, Note_on_c, 0, 55, 0
2, 202910, Note_on_c, 0, 51, 0
2, 202911, Note_on_c, 0, 48, 0
2, 202912, Note_on_c, 0, 79, 0
2, 202913, Note_on_c, 0, 60, 0
2, 202914, Note_on_c, 0, 36, 0
2, 202916, Control_c, 0, 64, 0
2, 202945, Note_on_c, 0, 77, 95
2, 202971, Note_on_c, 0, 77, 0
2, 203047, Note_on_c, 0, 84, 105
2, 203050, Note_on_c, 0, 72, 99
2, 203053, Note_on_c, 0, 77, 83
2, 203056, Note_on_c, 0, 38, 98
2, 203060, Note_on_c, 0, 50, 96
2, 203066, Control_c, 0, 64, 127
2, 203128, Note_on_c, 0, 72, 0
2, 203128, Note_on_c, 0, 84, 0
2, 203134, Note_on_c, 0, 72, 103
2, 203136, Note_on_c, 0, 84, 101
2, 203197, Note_on_c, 0, 84, 0
2, 203205, Note_on_c, 0, 72, 0
2, 203208, Note_on_c, 0, 84, 87
2, 203209, Note_on_c, 0, 72, 75
2, 203279, Note_on_c, 0, 70, 99
2, 203279, Note_on_c, 0, 62, 91
2, 203282, Note_on_c, 0, 57, 93
2, 203285, Note_on_c, 0, 82, 96
2, 203287, Note_on_c, 0, 53, 77
2, 203343, Note_on_c, 0, 82, 0
2, 203354, Note_on_c, 0, 82, 95
2, 203420, Note_on_c, 0, 84, 0
2, 203426, Note_on_c, 0, 84, 106
2, 203459, Control_c, 0, 64, 0
2, 203462, Note_on_c, 0, 50, 0
2, 203462, Note_on_c, 0, 82, 0
2, 203462, Note_on_c, 0, 62, 0
2, 203463, Note_on_c, 0, 57, 0
2, 203463, Note_on_c, 0, 84, 0
2, 203463, Note_on_c, 0, 72, 0
2, 203463, Note_on_c, 0, 38, 0
2, 203481, Note_on_c, 0, 53, 0
2, 203489, Note_on_c, 0, 70, 0
2, 203489, Note_on_c, 0, 77, 0
2, 203509, Note_on_c, 0, 62, 96
2, 203516, Note_on_c, 0, 57, 92
2, 203530, Note_on_c, 0, 79, 109
2, 203532, Note_on_c, 0, 53, 74
2, 203532, Note_on_c, 0, 67, 103
2, 203558, Control_c, 0, 64, 127
2, 203573, Note_on_c, 0, 62, 0
2, 203672, Note_on_c, 0, 50, 83
2, 203766, Note_on_c, 0, 38, 84
2, 203873, Note_on_c, 0, 67, 0
2, 203874, Note_on_c, 0, 79, 0
2, 203876, Note_on_c, 0, 50, 0
2, 203876, Note_on_c, 0, 53, 0
2, 203876, Note_on_c, 0, 38, 0
2, 203878, Control_c, 0, 64, 0
2, 203880, Note_on_c, 0, 57, 0
2, 203901, Note_on_c, 0, 77, 101
2, 203952, Note_on_c, 0, 77, 0
2, 204023, Note_on_c, 0, 79, 109
2, 204028, Note_on_c, 0, 67, 102
2, 204029, Note_on_c, 0, 70, 101
2, 204031, Note_on_c, 0, 39, 85
2, 204035, Note_on_c, 0, 73, 76
2, 204057, Control_c, 0, 64, 127
2, 204153, Note_on_c, 0, 55, 76
2, 204153, Note_on_c, 0, 51, 74
2, 204264, Note_on_c, 0, 39, 0
2, 204272, Note_on_c, 0, 79, 0
2, 204272, Note_on_c, 0, 39, 84
2, 204280, Note_on_c, 0, 67, 0
2, 204280, Note_on_c, 0, 70, 0
2, 204280, Note_on_c, 0, 73, 0
2, 204282, Note_on_c, 0, 79, 99
2, 204285, Note_on_c, 0, 67, 93
2, 204290, Note_on_c, 0, 73, 77
2, 204290, Note_on_c, 0, 70, 89
2, 204403, Note_on_c, 0, 55, 0
2, 204408, Note_on_c, 0, 55, 73
2, 204410, Note_on_c, 0, 51, 0
2, 204419, Note_on_c, 0, 51, 71
2, 204425, Note_on_c, 0, 58, 59
2, 204441, Note_on_c, 0, 79, 0
2, 204449, Note_on_c, 0, 70, 0
2, 204452, Note_on_c, 0, 79, 102
2, 204456, Note_on_c, 0, 67, 0
2, 204459, Note_on_c, 0, 70, 82
2, 204461, Control_c, 0, 64, 0
2, 204462, Note_on_c, 0, 67, 84
2, 204466, Note_on_c, 0, 51, 0
2, 204467, Note_on_c, 0, 55, 0
2, 204467, Note_on_c, 0, 39, 0
2, 204471, Note_on_c, 0, 58, 0
2, 204487, Note_on_c, 0, 73, 0
2, 204503, Note_on_c, 0, 67, 0
2, 204518, Note_on_c, 0, 70, 0
2, 204518, Note_on_c, 0, 79, 0
2, 204525, Note_on_c, 0, 79, 96
2, 204528, Note_on_c, 0, 70, 100
2, 204529, Note_on_c, 0, 40, 89
2, 204530, Note_on_c, 0, 67, 95
2, 204541, Control_c, 0, 64, 127
2, 204654, Note_on_c, 0, 52, 78
2, 204675, Note_on_c, 0, 55, 62
2, 204679, Note_on_c, 0, 58, 59
2, 204686, Note_on_c, 0, 74, 81
2, 204687, Note_on_c, 0, 58, 0
2, 204764, Note_on_c, 0, 40, 0
2, 204764, Note_on_c, 0, 67, 0
2, 204764, Note_on_c, 0, 79, 0
2, 204770, Note_on_c, 0, 40, 83
2, 204773, Note_on_c, 0, 67, 96
2, 204773, Note_on_c, 0, 79, 104
2, 204887, Note_on_c, 0, 55, 0
2, 204892, Note_on_c, 0, 55, 87
2, 204894, Note_on_c, 0, 52, 0
2, 204904, Note_on_c, 0, 52, 67
2, 204917, Note_on_c, 0, 70, 0
2, 204922, Note_on_c, 0, 82, 99
2, 204924, Note_on_c, 0, 70, 85
2, 204988, Note_on_c, 0, 40, 0
2, 204988, Note_on_c, 0, 52, 0
2, 204989, Note_on_c, 0, 67, 0
2, 204989, Note_on_c, 0, 70, 0
2, 204989, Note_on_c, 0, 79, 0
2, 204989, Note_on_c, 0, 82, 0
2, 204989, Note_on_c, 0, 55, 0
2, 204990, Control_c, 0, 64, 0
2, 205017, Note_on_c, 0, 74, 0
2, 205019, Note_on_c, 0, 41, 87
2, 205020, Note_on_c, 0, 81, 103
2, 205023, Note_on_c, 0, 69, 97
2, 205024, Note_on_c, 0, 74, 96
2, 205063, Control_c, 0, 64, 127
2, 205142, Note_on_c, 0, 53, 78
2, 205142, Note_on_c, 0, 57, 79
2, 205255, Note_on_c, 0, 41, 0
2, 205266, Note_on_c, 0, 41, 82
2, 205271, Note_on_c, 0, 77, 104
2, 205378, Note_on_c, 0, 53, 0
2, 205378, Note_on_c, 0, 57, 0
2, 205386, Note_on_c, 0, 53, 83
2, 205387, Note_on_c, 0, 57, 88
2, 205467, Note_on_c, 0, 81, 0
2, 205467, Note_on_c, 0, 41, 0
2, 205467, Note_on_c, 0, 74, 0
2, 205467, Note_on_c, 0, 57, 0
2, 205468, Note_on_c, 0, 77, 0
2, 205470, Note_on_c, 0, 69, 0
2, 205472, Control_c, 0, 64, 0
2, 205478, Note_on_c, 0, 53, 0
2, 205517, Note_on_c, 0, 42, 96
2, 205520, Note_on_c, 0, 74, 101
2, 205555, Control_c, 0, 64, 127
2, 205634, Note_on_c, 0, 54, 65
2, 205635, Note_on_c, 0, 57, 77
2, 205747, Note_on_c, 0, 42, 0
2, 205753, Note_on_c, 0, 42, 92
2, 205765, Note_on_c, 0, 77, 97
2, 205854, Note_on_c, 0, 54, 0
2, 205854, Note_on_c, 0, 57, 0
2, 205859, Note_on_c, 0, 54, 74
2, 205863, Note_on_c, 0, 57, 66
2, 205964, Note_on_c, 0, 42, 0
2, 205965, Note_on_c, 0, 74, 0
2, 205965, Control_c, 0, 64, 0
2, 205965, Note_on_c, 0, 54, 0
2, 205966, Note_on_c, 0, 57, 0
2, 205966, Note_on_c, 0, 77, 0
2, 206020, Note_on_c, 0, 79, 103
2, 206025, Note_on_c, 0, 70, 101
2, 206025, Note_on_c, 0, 48, 101
2, 206027, Note_on_c, 0, 36, 97
2, 206027, Note_on_c, 0, 75, 92
2, 206069, Control_c, 0, 64, 127
2, 206269, Note_on_c, 0, 48, 0
2, 206279, Note_on_c, 0, 48, 59
2, 206281, Note_on_c, 0, 55, 76
2, 206336, Note_on_c, 0, 58, 81
2, 206390, Note_on_c, 0, 62, 78
2, 206438, Note_on_c, 0, 48, 0
2, 206438, Note_on_c, 0, 55, 0
2, 206442, Note_on_c, 0, 55, 70
2, 206443, Note_on_c, 0, 48, 76
2, 206452, Note_on_c, 0, 63, 83
2, 206532, Note_on_c, 0, 67, 89
2, 206534, Note_on_c, 0, 60, 91
2, 206545, Note_on_c, 0, 51, 82
2, 206561, Note_on_c, 0, 70, 0
2, 206576, Note_on_c, 0, 79, 0
2, 206600, Note_on_c, 0, 70, 85
2, 206622, Note_on_c, 0, 75, 0
2, 206641, Note_on_c, 0, 74, 85
2, 206695, Note_on_c, 0, 75, 79
2, 206757, Note_on_c, 0, 79, 76
2, 206827, Note_on_c, 0, 82, 86
2, 206863, Note_on_c, 0, 86, 82
2, 206902, Note_on_c, 0, 87, 88
2, 206906, Note_on_c, 0, 36, 0
2, 206906, Note_on_c, 0, 48, 0
2, 206913, Note_on_c, 0, 36, 84
2, 206914, Note_on_c, 0, 48, 81
2, 206991, Note_on_c, 0, 58, 0
2, 206994, Note_on_c, 0, 67, 0
2, 206995, Note_on_c, 0, 55, 0
2, 206995, Note_on_c, 0, 79, 0
2, 206996, Note_on_c, 0, 36, 0
2, 206996, Note_on_c, 0, 48, 0
2, 206996, Note_on_c, 0, 70, 0
2, 206996, Control_c, 0, 64, 0
2, 206997, Note_on_c, 0, 63, 0
2, 206998, Note_on_c, 0, 74, 0
2, 206998, Note_on_c, 0, 86, 0
2, 206998, Note_on_c, 0, 82, 0
2, 206999, Note_on_c, 0, 62, 0
2, 206999, Note_on_c, 0, 51, 0
2, 207000, Note_on_c, 0, 60, 0
2, 207001, Note_on_c, 0, 87, 0
2, 207009, Note_on_c, 0, 91, 104
2, 207014, Note_on_c, 0, 75, 0
2, 207025, Note_on_c, 0, 50, 99
2, 207026, Note_on_c, 0, 38, 89
2, 207075, Control_c, 0, 64, 127
2, 207088, Note_on_c, 0, 89, 84
2, 207132, Note_on_c, 0, 86, 83
2, 207182, Note_on_c, 0, 81, 75
2, 207258, Note_on_c, 0, 79, 85
2, 207319, Note_on_c, 0, 77, 78
2, 207346, Note_on_c, 0, 74, 71
2, 207398, Note_on_c, 0, 69, 72
2, 207498, Note_on_c, 0, 74, 0
2, 207498, Note_on_c, 0, 77, 0
2, 207502, Note_on_c, 0, 77, 103
2, 207508, Note_on_c, 0, 74, 83
2, 207508, Note_on_c, 0, 62, 96
2, 207510, Note_on_c, 0, 65, 93
2, 207533, Note_on_c, 0, 57, 72
2, 207571, Note_on_c, 0, 53, 89
2, 207659, Note_on_c, 0, 50, 0
2, 207669, Note_on_c, 0, 50, 79
2, 207711, Note_on_c, 0, 45, 79
2, 207767, Note_on_c, 0, 38, 0
2, 207773, Note_on_c, 0, 38, 74
2, 207866, Note_on_c, 0, 65, 0
2, 207866, Note_on_c, 0, 77, 0
2, 207872, Note_on_c, 0, 77, 94
2, 207877, Note_on_c, 0, 65, 91
2, 207879, Note_on_c, 0, 72, 65
2, 207889, Note_on_c, 0, 72, 0
2, 207897, Note_on_c, 0, 91, 0
2, 207969, Note_on_c, 0, 86, 0
2, 207969, Note_on_c, 0, 45, 0
2, 207969, Note_on_c, 0, 53, 0
2, 207969, Note_on_c, 0, 69, 0
2, 207969, Note_on_c, 0, 62, 0
2, 207970, Note_on_c, 0, 57, 0
2, 207970, Note_on_c, 0, 65, 0
2, 207970, Note_on_c, 0, 77, 0
2, 207970, Note_on_c, 0, 38, 0
2, 207970, Control_c, 0, 64, 0
2, 207982, Note_on_c, 0, 50, 0
2, 207982, Note_on_c, 0, 74, 0
2, 207982, Note_on_c, 0, 89, 0
2, 207989, Note_on_c, 0, 81, 0
2, 207997, Note_on_c, 0, 79, 0
2, 208004, Note_on_c, 0, 79, 106
2, 208009, Note_on_c, 0, 74, 83
2, 208010, Note_on_c, 0, 67, 101
2, 208011, Note_on_c, 0, 71, 91
2, 208015, Note_on_c, 0, 31, 97
2, 208016, Note_on_c, 0, 43, 96
2, 208074, Control_c, 0, 64, 127
2, 208165, Note_on_c, 0, 50, 63
2, 208273, Note_on_c, 0, 55, 74
2, 208273, Note_on_c, 0, 43, 0
2, 208282, Note_on_c, 0, 43, 74
2, 208346, Note_on_c, 0, 59, 79
2, 208389, Note_on_c, 0, 55, 0
2, 208400, Note_on_c, 0, 55, 69
2, 208404, Note_on_c, 0, 50, 0
2, 208410, Note_on_c, 0, 62, 80
2, 208413, Note_on_c, 0, 50, 66
2, 208504, Note_on_c, 0, 43, 0
2, 208504, Note_on_c, 0, 67, 0
2, 208509, Note_on_c, 0, 43, 73
2, 208510, Note_on_c, 0, 67, 86
2, 208588, Note_on_c, 0, 62, 0
2, 208596, Note_on_c, 0, 62, 76
2, 208642, Note_on_c, 0, 43, 0
2, 208642, Note_on_c, 0, 50, 0
2, 208642, Note_on_c, 0, 55, 0
2, 208642, Note_on_c, 0, 59, 0
2, 208647, Note_on_c, 0, 55, 70
2, 208650, Note_on_c, 0, 50, 74
2, 208651, Note_on_c, 0, 43, 68
2, 208652, Note_on_c, 0, 59, 81
2, 208719, Note_on_c, 0, 62, 0
2, 208724, Note_on_c, 0, 62, 81
2, 208773, Note_on_c, 0, 43, 0
2, 208778, Note_on_c, 0, 43, 76
2, 208780, Note_on_c, 0, 55, 0
2, 208788, Note_on_c, 0, 67, 0
2, 208792, Note_on_c, 0, 55, 74
2, 208793, Note_on_c, 0, 67, 64
2, 208872, Note_on_c, 0, 71, 0
2, 208877, Note_on_c, 0, 71, 75
2, 208903, Note_on_c, 0, 50, 0
2, 208914, Note_on_c, 0, 50, 67
2, 208949, Note_on_c, 0, 74, 0
2, 208960, Note_on_c, 0, 74, 70
2, 208995, Note_on_c, 0, 79, 0
2, 209001, Note_on_c, 0, 79, 96
2, 209011, Note_on_c, 0, 43, 0
2, 209021, Note_on_c, 0, 43, 74
2, 209064, Note_on_c, 0, 74, 0
2, 209071, Note_on_c, 0, 74, 74
2, 209111, Note_on_c, 0, 71, 0
2, 209118, Note_on_c, 0, 71, 71
2, 209134, Note_on_c, 0, 50, 0
2, 209134, Note_on_c, 0, 55, 0
2, 209141, Note_on_c, 0, 55, 66
2, 209144, Note_on_c, 0, 50, 64
2, 209187, Note_on_c, 0, 74, 0
2, 209193, Note_on_c, 0, 74, 80
2, 209256, Note_on_c, 0, 43, 0
2, 209256, Note_on_c, 0, 79, 0
2, 209267, Note_on_c, 0, 43, 75
2, 209268, Note_on_c, 0, 79, 94
2, 209329, Note_on_c, 0, 83, 74
2, 209387, Note_on_c, 0, 55, 0
2, 209387, Note_on_c, 0, 62, 0
2, 209395, Note_on_c, 0, 55, 73
2, 209395, Note_on_c, 0, 86, 90
2, 209397, Note_on_c, 0, 62, 76
2, 209495, Note_on_c, 0, 43, 0
2, 209501, Note_on_c, 0, 94, 113
2, 209504, Note_on_c, 0, 43, 91
2, 209505, Note_on_c, 0, 82, 110
2, 209640, Note_on_c, 0, 50, 0
2, 209640, Note_on_c, 0, 55, 0
2, 209648, Note_on_c, 0, 55, 78
2, 209650, Note_on_c, 0, 50, 79
2, 209652, Note_on_c, 0, 38, 70
2, 209656, Note_on_c, 0, 38, 0
2, 209740, Note_on_c, 0, 43, 0
2, 209745, Note_on_c, 0, 43, 81
2, 209840, Note_on_c, 0, 43, 0
2, 209840, Note_on_c, 0, 50, 0
2, 209840, Note_on_c, 0, 55, 0
2, 209847, Note_on_c, 0, 55, 72
2, 209847, Note_on_c, 0, 47, 63
2, 209849, Note_on_c, 0, 50, 75
2, 209851, Note_on_c, 0, 43, 65
2, 209856, Note_on_c, 0, 47, 0
2, 209938, Control_c, 0, 64, 0
2, 209942, Note_on_c, 0, 50, 0
2, 209942, Note_on_c, 0, 86, 0
2, 209942, Note_on_c, 0, 83, 0
2, 209942, Note_on_c, 0, 79, 0
2, 209942, Note_on_c, 0, 59, 0
2, 209942, Note_on_c, 0, 74, 0
2, 209942, Note_on_c, 0, 67, 0
2, 209943, Note_on_c, 0, 82, 0
2, 209943, Note_on_c, 0, 94, 0
2, 209943, Note_on_c, 0, 55, 0
2, 209944, Note_on_c, 0, 43, 0
2, 209944, Note_on_c, 0, 31, 0
2, 209955, Note_on_c, 0, 62, 0
2, 209955, Note_on_c, 0, 71, 0
2, 209981, Note_on_c, 0, 91, 114
2, 209988, Note_on_c, 0, 87, 97
2, 209988, Note_on_c, 0, 79, 107
2, 209990, Note_on_c, 0, 82, 106
2, 209996, Note_on_c, 0, 48, 99
2, 209996, Note_on_c, 0, 36, 94
2, 210032, Control_c, 0, 64, 127
2, 210132, Note_on_c, 0, 36, 0
2, 210132, Note_on_c, 0, 48, 0
2, 210138, Note_on_c, 0, 36, 52
2, 210139, Note_on_c, 0, 48, 70
2, 210244, Note_on_c, 0, 60, 81
2, 210246, Note_on_c, 0, 51, 72
2, 210250, Note_on_c, 0, 55, 71
2, 210378, Note_on_c, 0, 79, 0
2, 210384, Note_on_c, 0, 79, 103
2, 210385, Note_on_c, 0, 36, 0
2, 210391, Note_on_c, 0, 67, 92
2, 210393, Note_on_c, 0, 75, 95
2, 210393, Note_on_c, 0, 70, 89
2, 210395, Note_on_c, 0, 36, 81
2, 210501, Note_on_c, 0, 48, 0
2, 210511, Note_on_c, 0, 48, 89
2, 210608, Note_on_c, 0, 51, 0
2, 210608, Note_on_c, 0, 55, 0
2, 210608, Note_on_c, 0, 60, 0
2, 210612, Note_on_c, 0, 51, 72
2, 210612, Note_on_c, 0, 60, 82
2, 210613, Note_on_c, 0, 55, 76
2, 210731, Note_on_c, 0, 79, 0
2, 210739, Note_on_c, 0, 51, 0
2, 210739, Note_on_c, 0, 67, 0
2, 210739, Note_on_c, 0, 70, 0
2, 210739, Note_on_c, 0, 75, 0
2, 210742, Note_on_c, 0, 79, 100
2, 210749, Note_on_c, 0, 67, 91
2, 210749, Note_on_c, 0, 75, 93
2, 210750, Note_on_c, 0, 51, 74
2, 210750, Note_on_c, 0, 70, 91
2, 210839, Note_on_c, 0, 48, 0
2, 210849, Note_on_c, 0, 48, 89
2, 210992, Note_on_c, 0, 79, 0
2, 210997, Note_on_c, 0, 79, 106
2, 211004, Note_on_c, 0, 72, 97
2, 211005, Note_on_c, 0, 69, 98
2, 211009, Note_on_c, 0, 50, 98
2, 211011, Note_on_c, 0, 77, 98
2, 211011, Control_c, 0, 64, 0
2, 211012, Note_on_c, 0, 38, 93
2, 211018, Note_on_c, 0, 82, 0
2, 211018, Note_on_c, 0, 87, 0
2, 211018, Note_on_c, 0, 55, 0
2, 211019, Note_on_c, 0, 70, 0
2, 211019, Note_on_c, 0, 91, 0
2, 211019, Note_on_c, 0, 60, 0
2, 211020, Note_on_c, 0, 51, 0
2, 211020, Note_on_c, 0, 67, 0
2, 211021, Note_on_c, 0, 75, 0
2, 211024, Note_on_c, 0, 36, 0
2, 211046, Note_on_c, 0, 48, 0
2, 211138, Control_c, 0, 64, 127
2, 211522, Note_on_c, 0, 77, 0
2, 211532, Note_on_c, 0, 89, 112
2, 211533, Note_on_c, 0, 77, 106
2, 211898, Note_on_c, 0, 77, 0
2, 211898, Note_on_c, 0, 89, 0
2, 211903, Note_on_c, 0, 89, 103
2, 211908, Note_on_c, 0, 77, 99
2, 212004, Note_on_c, 0, 72, 0
2, 212005, Note_on_c, 0, 50, 0
2, 212006, Note_on_c, 0, 89, 0
2, 212006, Note_on_c, 0, 69, 0
2, 212007, Control_c, 0, 64, 0
2, 212014, Note_on_c, 0, 79, 0
2, 212021, Note_on_c, 0, 77, 0
2, 212033, Note_on_c, 0, 91, 113
2, 212037, Note_on_c, 0, 31, 96
2, 212038, Note_on_c, 0, 83, 100
2, 212039, Note_on_c, 0, 79, 105
2, 212040, Note_on_c, 0, 86, 98
2, 212075, Control_c, 0, 64, 127
2, 212101, Note_on_c, 0, 43, 48
2, 212175, Note_on_c, 0, 31, 0
2, 212186, Note_on_c, 0, 31, 64
2, 212244, Note_on_c, 0, 43, 0
2, 212255, Note_on_c, 0, 43, 72
2, 212298, Note_on_c, 0, 31, 0
2, 212306, Note_on_c, 0, 31, 77
2, 212341, Note_on_c, 0, 55, 75
2, 212413, Note_on_c, 0, 43, 0
2, 212421, Note_on_c, 0, 31, 0
2, 212424, Note_on_c, 0, 59, 76
2, 212424, Note_on_c, 0, 43, 71
2, 212426, Note_on_c, 0, 31, 74
2, 212494, Note_on_c, 0, 62, 78
2, 212536, Note_on_c, 0, 31, 0
2, 212539, Note_on_c, 0, 67, 82
2, 212547, Note_on_c, 0, 31, 85
2, 212605, Note_on_c, 0, 43, 0
2, 212605, Note_on_c, 0, 62, 0
2, 212615, Note_on_c, 0, 62, 81
2, 212616, Note_on_c, 0, 43, 63
2, 212659, Note_on_c, 0, 59, 0
2, 212664, Note_on_c, 0, 59, 77
2, 212682, Note_on_c, 0, 31, 0
2, 212693, Note_on_c, 0, 31, 76
2, 212728, Note_on_c, 0, 62, 0
2, 212733, Note_on_c, 0, 62, 78
2, 212805, Note_on_c, 0, 31, 0
2, 212805, Note_on_c, 0, 38, 0
2, 212809, Note_on_c, 0, 38, 63
2, 212812, Note_on_c, 0, 67, 0
2, 212813, Note_on_c, 0, 31, 75
2, 212819, Note_on_c, 0, 67, 72
2, 212858, Note_on_c, 0, 43, 0
2, 212863, Note_on_c, 0, 43, 74
2, 212901, Note_on_c, 0, 71, 74
2, 212920, Note_on_c, 0, 31, 0
2, 212925, Note_on_c, 0, 31, 68
2, 212958, Note_on_c, 0, 62, 0
2, 212962, Note_on_c, 0, 74, 79
2, 212969, Note_on_c, 0, 62, 75
2, 213020, Note_on_c, 0, 79, 0
2, 213024, Note_on_c, 0, 79, 92
2, 213035, Note_on_c, 0, 31, 0
2, 213035, Note_on_c, 0, 67, 0
2, 213039, Note_on_c, 0, 67, 65
2, 213043, Note_on_c, 0, 31, 83
2, 213104, Note_on_c, 0, 43, 0
2, 213109, Note_on_c, 0, 43, 76
2, 213150, Note_on_c, 0, 71, 0
2, 213154, Note_on_c, 0, 71, 79
2, 213181, Note_on_c, 0, 31, 0
2, 213191, Control_c, 0, 64, 0
2, 213191, Note_on_c, 0, 31, 78
2, 213222, Note_on_c, 0, 75, 82
2, 213227, Control_c, 0, 64, 127
2, 213258, Note_on_c, 0, 31, 0
2, 213263, Note_on_c, 0, 31, 81
2, 213265, Note_on_c, 0, 43, 0
2, 213270, Note_on_c, 0, 43, 76
2, 213312, Note_on_c, 0, 79, 0
2, 213321, Note_on_c, 0, 79, 78
2, 213381, Note_on_c, 0, 83, 0
2, 213386, Note_on_c, 0, 83, 82
2, 213396, Note_on_c, 0, 31, 0
2, 213396, Note_on_c, 0, 38, 0
2, 213401, Note_on_c, 0, 31, 86
2, 213403, Note_on_c, 0, 38, 65
2, 213404, Note_on_c, 0, 91, 0
2, 213450, Note_on_c, 0, 86, 0
2, 213460, Note_on_c, 0, 86, 86
2, 213508, Note_on_c, 0, 91, 104
2, 213511, Note_on_c, 0, 31, 0
2, 213522, Note_on_c, 0, 31, 95
2, 213573, Note_on_c, 0, 86, 0
2, 213580, Note_on_c, 0, 43, 0
2, 213584, Note_on_c, 0, 86, 86
2, 213584, Note_on_c, 0, 43, 73
2, 213634, Note_on_c, 0, 31, 0
2, 213634, Note_on_c, 0, 38, 0
2, 213634, Note_on_c, 0, 83, 0
2, 213640, Note_on_c, 0, 38, 67
2, 213641, Note_on_c, 0, 83, 89
2, 213644, Note_on_c, 0, 31, 87
2, 213703, Note_on_c, 0, 86, 0
2, 213709, Note_on_c, 0, 86, 87
2, 213742, Note_on_c, 0, 31, 0
2, 213749, Note_on_c, 0, 31, 84
2, 213765, Note_on_c, 0, 91, 0
2, 213776, Note_on_c, 0, 91, 97
2, 213837, Note_on_c, 0, 95, 92
2, 213849, Note_on_c, 0, 31, 0
2, 213853, Note_on_c, 0, 31, 86
2, 213899, Note_on_c, 0, 98, 100
2, 213995, Note_on_c, 0, 91, 0
2, 214002, Note_on_c, 0, 103, 111
2, 214003, Note_on_c, 0, 91, 107
2, 214003, Note_on_c, 0, 31, 0
2, 214008, Note_on_c, 0, 31, 94
2, 214036, Note_on_c, 0, 83, 0
2, 214038, Note_on_c, 0, 79, 0
2, 214038, Note_on_c, 0, 86, 0
2, 214039, Note_on_c, 0, 95, 0
2, 214041, Note_on_c, 0, 59, 0
2, 214045, Control_c, 0, 64, 0
2, 214049, Note_on_c, 0, 62, 0
2, 214056, Note_on_c, 0, 71, 0
2, 214056, Note_on_c, 0, 75, 0
2, 214064, Note_on_c, 0, 43, 0
2, 214064, Note_on_c, 0, 55, 0
2, 214064, Note_on_c, 0, 67, 0
2, 214064, Note_on_c, 0, 74, 0
2, 214264, Note_on_c, 0, 38, 0
2, 214448, Control_c, 0, 64, 127
2, 216099, Note_on_c, 0, 98, 0
2, 216111, Control_c, 0, 64, 0
2, 216145, Note_on_c, 0, 31, 0
2, 216391, Note_on_c, 0, 103, 0
2, 216407, Note_on_c, 0, 91, 0
2, 216408, End_track
0, 0, End_of_file
