0, 0, Header, 1, 2, 384
1, 0, Start_track
1, 0, Tempo, 500000
1, 0, Time_signature, 4, 2, 24, 8
1, 1, End_track
2, 0, Start_track
2, 1993, Note_on_c, 0, 38, 80
2, 1994, Note_on_c, 0, 45, 81
2, 2030, Note_on_c, 0, 45, 0
2, 2031, Note_on_c, 0, 38, 0
2, 2096, Note_on_c, 0, 38, 72
2, 2099, Note_on_c, 0, 45, 72
2, 2128, Note_on_c, 0, 38, 0
2, 2129, Note_on_c, 0, 45, 0
2, 2210, Note_on_c, 0, 45, 74
2, 2212, Note_on_c, 0, 38, 71
2, 2214, Note_on_c, 0, 50, 83
2, 2247, Note_on_c, 0, 38, 0
2, 2248, Note_on_c, 0, 45, 0
2, 2249, Note_on_c, 0, 50, 0
2, 2333, Note_on_c, 0, 38, 70
2, 2335, Note_on_c, 0, 45, 60
2, 2369, Note_on_c, 0, 38, 0
2, 2396, Note_on_c, 0, 45, 0
2, 2459, Note_on_c, 0, 50, 83
2, 2461, Note_on_c, 0, 45, 69
2, 2492, Note_on_c, 0, 45, 0
2, 2492, Note_on_c, 0, 50, 0
2, 2578, Note_on_c, 0, 50, 69
2, 2579, Note_on_c, 0, 45, 75
2, 2609, Note_on_c, 0, 50, 0
2, 2612, Note_on_c, 0, 45, 0
2, 2675, Note_on_c, 0, 38, 81
2, 2676, Note_on_c, 0, 45, 80
2, 2709, Note_on_c, 0, 45, 0
2, 2712, Note_on_c, 0, 38, 0
2, 2785, Note_on_c, 0, 50, 85
2, 2786, Note_on_c, 0, 45, 75
2, 2819, Note_on_c, 0, 45, 0
2, 2820, Note_on_c, 0, 50, 0
2, 2898, Note_on_c, 0, 45, 77
2, 2900, Note_on_c, 0, 38, 76
2, 2940, Note_on_c, 0, 45, 0
2, 2940, Note_on_c, 0, 38, 0
2, 3011, Note_on_c, 0, 38, 66
2, 3013, Note_on_c, 0, 45, 71
2, 3047, Note_on_c, 0, 45, 0
2, 3048, Note_on_c, 0, 38, 0
2, 3120, Note_on_c, 0, 50, 92
2, 3121, Note_on_c, 0, 45, 79
2, 3155, Note_on_c, 0, 45, 0
2, 3156, Note_on_c, 0, 50, 0
2, 3242, Note_on_c, 0, 38, 83
2, 3243, Note_on_c, 0, 45, 76
2, 3281, Note_on_c, 0, 45, 0
2, 3325, Note_on_c, 0, 38, 0
2, 3353, Note_on_c, 0, 50, 91
2, 3356, Note_on_c, 0, 45, 76
2, 3389, Note_on_c, 0, 45, 0
2, 3390, Note_on_c, 0, 50, 0
2, 3466, Note_on_c, 0, 50, 84
2, 3468, Note_on_c, 0, 45, 78
2, 3506, Note_on_c, 0, 45, 0
2, 3506, Note_on_c, 0, 50, 0
2, 3582, Note_on_c, 0, 38, 83
2, 3582, Note_on_c, 0, 45, 81
2, 3663, Note_on_c, 0, 45, 0
2, 3667, Note_on_c, 0, 50, 96
2, 3668, Note_on_c, 0, 45, 69
2, 3699, Note_on_c, 0, 38, 0
2, 3709, Note_on_c, 0, 50, 0
2, 3732, Note_on_c, 0, 45, 0
2, 3797, Note_on_c, 0, 51, 97
2, 3797, Note_on_c, 0, 46, 78
2, 3834, Note_on_c, 0, 51, 0
2, 3835, Note_on_c, 0, 46, 0
2, 3922, Note_on_c, 0, 38, 73
2, 3922, Note_on_c, 0, 45, 72
2, 3959, Note_on_c, 0, 45, 0
2, 3966, Note_on_c, 0, 38, 0
2, 4026, Note_on_c, 0, 51, 81
2, 4035, Note_on_c, 0, 46, 59
2, 4067, Note_on_c, 0, 51, 0
2, 4116, Note_on_c, 0, 46, 0
2, 4152, Note_on_c, 0, 50, 71
2, 4155, Note_on_c, 0, 45, 59
2, 4184, Note_on_c, 0, 50, 0
2, 4186, Note_on_c, 0, 45, 0
2, 4266, Note_on_c, 0, 38, 76
2, 4266, Note_on_c, 0, 45, 78
2, 4308, Note_on_c, 0, 38, 0
2, 4308, Note_on_c, 0, 45, 0
2, 4370, Note_on_c, 0, 51, 72
2, 4372, Note_on_c, 0, 46, 64
2, 4374, Note_on_c, 0, 45, 61
2, 4385, Note_on_c, 0, 45, 0
2, 4402, Note_on_c, 0, 46, 0
2, 4405, Note_on_c, 0, 51, 0
2, 4476, Note_on_c, 0, 45, 59
2, 4478, Note_on_c, 0, 50, 81
2, 4510, Note_on_c, 0, 50, 0
2, 4515, Note_on_c, 0, 45, 0
2, 4598, Note_on_c, 0, 38, 80
2, 4599, Note_on_c, 0, 45, 67
2, 4654, Note_on_c, 0, 45, 0
2, 4692, Note_on_c, 0, 38, 0
2, 4712, Note_on_c, 0, 51, 86
2, 4712, Note_on_c, 0, 46, 75
2, 4750, Note_on_c, 0, 46, 0
2, 4756, Note_on_c, 0, 51, 0
2, 4820, Note_on_c, 0, 50, 71
2, 4824, Note_on_c, 0, 45, 67
2, 4850, Note_on_c, 0, 50, 0
2, 4855, Note_on_c, 0, 45, 0
2, 4932, Note_on_c, 0, 38, 84
2, 4933, Note_on_c, 0, 45, 81
2, 5007, Note_on_c, 0, 45, 0
2, 5025, Note_on_c, 0, 50, 90
2, 5061, Note_on_c, 0, 38, 0
2, 5073, Note_on_c, 0, 50, 0
2, 5162, Note_on_c, 0, 38, 83
2, 5162, Note_on_c, 0, 45, 84
2, 5211, Note_on_c, 0, 38, 0
2, 5215, Note_on_c, 0, 45, 0
2, 5278, Note_on_c, 0, 53, 90
2, 5283, Note_on_c, 0, 48, 81
2, 5286, Note_on_c, 0, 45, 70
2, 5328, Note_on_c, 0, 53, 0
2, 5331, Note_on_c, 0, 48, 0
2, 5345, Note_on_c, 0, 45, 0
2, 5399, Note_on_c, 0, 38, 81
2, 5401, Note_on_c, 0, 45, 79
2, 5438, Note_on_c, 0, 38, 0
2, 5475, Note_on_c, 0, 45, 0
2, 5488, Note_on_c, 0, 53, 87
2, 5488, Note_on_c, 0, 48, 83
2, 5494, Note_on_c, 0, 45, 69
2, 5525, Note_on_c, 0, 48, 0
2, 5525, Note_on_c, 0, 53, 0
2, 5537, Note_on_c, 0, 45, 0
2, 5612, Note_on_c, 0, 38, 98
2, 5612, Note_on_c, 0, 26, 92
2, 5612, Note_on_c, 0, 45, 87
2, 5613, Note_on_c, 0, 33, 74
2, 5644, Note_on_c, 0, 33, 0
2, 5660, Note_on_c, 0, 45, 0
2, 5713, Note_on_c, 0, 38, 0
2, 5725, Note_on_c, 0, 38, 74
2, 5726, Note_on_c, 0, 45, 65
2, 5790, Note_on_c, 0, 26, 0
2, 5829, Note_on_c, 0, 45, 0
2, 5833, Note_on_c, 0, 50, 86
2, 5840, Note_on_c, 0, 45, 67
2, 5861, Note_on_c, 0, 50, 0
2, 5864, Note_on_c, 0, 38, 0
2, 5898, Note_on_c, 0, 45, 0
2, 5962, Note_on_c, 0, 38, 73
2, 5965, Note_on_c, 0, 45, 64
2, 5995, Note_on_c, 0, 38, 0
2, 5996, Note_on_c, 0, 45, 0
2, 6082, Note_on_c, 0, 50, 90
2, 6085, Note_on_c, 0, 45, 68
2, 6109, Note_on_c, 0, 50, 0
2, 6112, Note_on_c, 0, 45, 0
2, 6180, Note_on_c, 0, 50, 72
2, 6217, Note_on_c, 0, 50, 0
2, 6293, Note_on_c, 0, 38, 81
2, 6295, Note_on_c, 0, 45, 66
2, 6334, Note_on_c, 0, 38, 0
2, 6337, Note_on_c, 0, 45, 0
2, 6401, Note_on_c, 0, 45, 82
2, 6402, Note_on_c, 0, 50, 85
2, 6433, Note_on_c, 0, 45, 0
2, 6439, Note_on_c, 0, 50, 0
2, 6523, Note_on_c, 0, 26, 94
2, 6523, Note_on_c, 0, 33, 77
2, 6523, Note_on_c, 0, 45, 86
2, 6524, Note_on_c, 0, 38, 96
2, 6558, Note_on_c, 0, 33, 0
2, 6574, Note_on_c, 0, 45, 0
2, 6612, Note_on_c, 0, 26, 0
2, 6635, Note_on_c, 0, 38, 0
2, 6644, Note_on_c, 0, 38, 82
2, 6647, Note_on_c, 0, 45, 69
2, 6743, Note_on_c, 0, 45, 0
2, 6749, Note_on_c, 0, 50, 83
2, 6753, Note_on_c, 0, 45, 70
2, 6778, Note_on_c, 0, 38, 0
2, 6780, Note_on_c, 0, 50, 0
2, 6812, Note_on_c, 0, 45, 0
2, 6859, Note_on_c, 0, 45, 80
2, 6860, Note_on_c, 0, 38, 77
2, 6891, Note_on_c, 0, 38, 0
2, 6892, Note_on_c, 0, 45, 0
2, 6979, Note_on_c, 0, 50, 86
2, 6983, Note_on_c, 0, 45, 66
2, 7010, Note_on_c, 0, 50, 0
2, 7019, Note_on_c, 0, 45, 0
2, 7090, Note_on_c, 0, 50, 71
2, 7092, Note_on_c, 0, 45, 73
2, 7124, Note_on_c, 0, 45, 0
2, 7150, Note_on_c, 0, 50, 0
2, 7205, Note_on_c, 0, 45, 76
2, 7207, Note_on_c, 0, 38, 79
2, 7237, Note_on_c, 0, 45, 0
2, 7280, Note_on_c, 0, 38, 0
2, 7297, Note_on_c, 0, 50, 91
2, 7299, Note_on_c, 0, 45, 81
2, 7335, Note_on_c, 0, 50, 0
2, 7338, Note_on_c, 0, 45, 0
2, 7429, Note_on_c, 0, 39, 84
2, 7430, Note_on_c, 0, 51, 89
2, 7430, Note_on_c, 0, 27, 86
2, 7436, Note_on_c, 0, 38, 91
2, 7438, Note_on_c, 0, 26, 90
2, 7462, Note_on_c, 0, 51, 0
2, 7465, Note_on_c, 0, 39, 0
2, 7465, Note_on_c, 0, 38, 0
2, 7480, Note_on_c, 0, 27, 0
2, 7488, Note_on_c, 0, 26, 0
2, 7545, Note_on_c, 0, 26, 82
2, 7547, Note_on_c, 0, 38, 84
2, 7584, Note_on_c, 0, 26, 0
2, 7664, Note_on_c, 0, 51, 89
2, 7671, Note_on_c, 0, 45, 55
2, 7672, Note_on_c, 0, 38, 0
2, 7700, Note_on_c, 0, 51, 0
2, 7741, Note_on_c, 0, 45, 0
2, 7779, Note_on_c, 0, 50, 79
2, 7810, Note_on_c, 0, 50, 0
2, 7885, Note_on_c, 0, 45, 80
2, 7886, Note_on_c, 0, 38, 74
2, 7927, Note_on_c, 0, 45, 0
2, 7929, Note_on_c, 0, 38, 0
2, 7991, Note_on_c, 0, 51, 87
2, 7995, Note_on_c, 0, 46, 71
2, 8031, Note_on_c, 0, 51, 0
2, 8031, Note_on_c, 0, 46, 0
2, 8099, Note_on_c, 0, 50, 75
2, 8132, Note_on_c, 0, 50, 0
2, 8191, Note_on_c, 0, 38, 82
2, 8192, Note_on_c, 0, 45, 83
2, 8230, Note_on_c, 0, 45, 0
2, 8230, Note_on_c, 0, 38, 0
2, 8307, Note_on_c, 0, 51, 90
2, 8307, Note_on_c, 0, 46, 84
2, 8344, Note_on_c, 0, 46, 0
2, 8345, Note_on_c, 0, 51, 0
2, 8414, Note_on_c, 0, 50, 82
2, 8442, Note_on_c, 0, 50, 0
2, 8499, Note_on_c, 0, 45, 84
2, 8499, Note_on_c, 0, 38, 82
2, 8536, Note_on_c, 0, 38, 0
2, 8563, Note_on_c, 0, 45, 0
2, 8614, Note_on_c, 0, 48, 84
2, 8617, Note_on_c, 0, 53, 83
2, 8645, Note_on_c, 0, 53, 0
2, 8645, Note_on_c, 0, 48, 0
2, 8736, Note_on_c, 0, 33, 92
2, 8736, Note_on_c, 0, 45, 100
2, 8774, Note_on_c, 0, 33, 0
2, 8776, Note_on_c, 0, 45, 0
2, 8859, Note_on_c, 0, 57, 72
2, 8860, Note_on_c, 0, 33, 79
2, 8862, Note_on_c, 0, 45, 86
2, 8870, Note_on_c, 0, 57, 0
2, 8890, Note_on_c, 0, 33, 0
2, 8890, Note_on_c, 0, 45, 0
2, 9220, Note_on_c, 0, 57, 102
2, 9221, Note_on_c, 0, 38, 105
2, 9222, Note_on_c, 0, 26, 97
2, 9224, Note_on_c, 0, 54, 90
2, 9323, Note_on_c, 0, 57, 0
2, 9334, Note_on_c, 0, 57, 76
2, 9438, Note_on_c, 0, 57, 0
2, 9443, Note_on_c, 0, 57, 89
2, 9561, Note_on_c, 0, 57, 0
2, 9565, Note_on_c, 0, 57, 84
2, 9596, Note_on_c, 0, 57, 0
2, 9615, Note_on_c, 0, 54, 0
2, 9684, Note_on_c, 0, 57, 82
2, 9684, Note_on_c, 0, 26, 0
2, 9687, Note_on_c, 0, 46, 80
2, 9688, Note_on_c, 0, 51, 90
2, 9707, Note_on_c, 0, 38, 0
2, 9745, Note_on_c, 0, 57, 0
2, 9761, Note_on_c, 0, 51, 0
2, 9804, Note_on_c, 0, 57, 82
2, 9815, Note_on_c, 0, 46, 0
2, 9836, Note_on_c, 0, 57, 0
2, 9902, Note_on_c, 0, 57, 77
2, 9902, Note_on_c, 0, 38, 83
2, 9938, Note_on_c, 0, 57, 0
2, 10018, Note_on_c, 0, 57, 84
2, 10026, Note_on_c, 0, 50, 82
2, 10027, Note_on_c, 0, 45, 80
2, 10071, Note_on_c, 0, 57, 0
2, 10133, Note_on_c, 0, 60, 90
2, 10160, Note_on_c, 0, 38, 0
2, 10164, Note_on_c, 0, 60, 0
2, 10176, Note_on_c, 0, 45, 0
2, 10183, Note_on_c, 0, 50, 0
2, 10241, Note_on_c, 0, 60, 87
2, 10281, Note_on_c, 0, 60, 0
2, 10355, Note_on_c, 0, 60, 80
2, 10356, Note_on_c, 0, 38, 73
2, 10356, Note_on_c, 0, 45, 67
2, 10360, Note_on_c, 0, 45, 0
2, 10363, Note_on_c, 0, 57, 78
2, 10387, Note_on_c, 0, 60, 0
2, 10387, Note_on_c, 0, 57, 0
2, 10457, Note_on_c, 0, 57, 74
2, 10458, Note_on_c, 0, 60, 79
2, 10487, Note_on_c, 0, 60, 0
2, 10488, Note_on_c, 0, 57, 0
2, 10580, Note_on_c, 0, 51, 93
2, 10581, Note_on_c, 0, 62, 99
2, 10584, Note_on_c, 0, 46, 88
2, 10620, Note_on_c, 0, 51, 0
2, 10620, Note_on_c, 0, 62, 0
2, 10636, Note_on_c, 0, 38, 0
2, 10697, Note_on_c, 0, 62, 92
2, 10734, Note_on_c, 0, 62, 0
2, 10782, Note_on_c, 0, 46, 0
2, 10803, Note_on_c, 0, 38, 76
2, 10816, Note_on_c, 0, 62, 87
2, 10913, Note_on_c, 0, 62, 0
2, 10918, Note_on_c, 0, 62, 90
2, 10970, Note_on_c, 0, 62, 0
2, 10974, Note_on_c, 0, 38, 0
2, 11040, Note_on_c, 0, 38, 105
2, 11041, Note_on_c, 0, 26, 99
2, 11041, Note_on_c, 0, 64, 102
2, 11042, Note_on_c, 0, 33, 86
2, 11082, Control_c, 0, 64, 127
2, 11128, Note_on_c, 0, 33, 0
2, 11151, Note_on_c, 0, 64, 0
2, 11160, Note_on_c, 0, 64, 80
2, 11251, Note_on_c, 0, 64, 0
2, 11257, Note_on_c, 0, 64, 82
2, 11358, Note_on_c, 0, 64, 0
2, 11368, Note_on_c, 0, 64, 87
2, 11473, Note_on_c, 0, 64, 0
2, 11478, Note_on_c, 0, 38, 0
2, 11478, Note_on_c, 0, 64, 88
2, 11500, Note_on_c, 0, 51, 92
2, 11506, Note_on_c, 0, 46, 81
2, 11577, Control_c, 0, 64, 0
2, 11589, Note_on_c, 0, 26, 0
2, 11589, Note_on_c, 0, 51, 0
2, 11589, Note_on_c, 0, 64, 0
2, 11594, Note_on_c, 0, 64, 89
2, 11629, Note_on_c, 0, 46, 0
2, 11696, Note_on_c, 0, 64, 0
2, 11703, Note_on_c, 0, 64, 79
2, 11740, Note_on_c, 0, 64, 0
2, 11742, Note_on_c, 0, 45, 66
2, 11743, Note_on_c, 0, 38, 83
2, 11816, Note_on_c, 0, 65, 102
2, 11850, Note_on_c, 0, 45, 0
2, 11854, Note_on_c, 0, 50, 85
2, 11855, Note_on_c, 0, 45, 78
2, 11934, Note_on_c, 0, 65, 0
2, 11942, Note_on_c, 0, 65, 95
2, 11957, Note_on_c, 0, 45, 0
2, 11980, Note_on_c, 0, 50, 0
2, 11988, Note_on_c, 0, 38, 0
2, 11996, Note_on_c, 0, 65, 0
2, 12055, Note_on_c, 0, 65, 85
2, 12081, Note_on_c, 0, 65, 0
2, 12133, Note_on_c, 0, 38, 83
2, 12151, Note_on_c, 0, 65, 86
2, 12195, Note_on_c, 0, 65, 0
2, 12258, Note_on_c, 0, 65, 95
2, 12292, Note_on_c, 0, 65, 0
2, 12376, Note_on_c, 0, 67, 100
2, 12379, Note_on_c, 0, 51, 98
2, 12382, Note_on_c, 0, 46, 89
2, 12390, Note_on_c, 0, 39, 78
2, 12410, Control_c, 0, 64, 127
2, 12430, Note_on_c, 0, 64, 43
2, 12441, Note_on_c, 0, 64, 0
2, 12487, Note_on_c, 0, 67, 0
2, 12493, Note_on_c, 0, 67, 100
2, 12595, Note_on_c, 0, 38, 0
2, 12595, Note_on_c, 0, 67, 0
2, 12603, Note_on_c, 0, 67, 92
2, 12604, Note_on_c, 0, 38, 88
2, 12607, Note_on_c, 0, 65, 77
2, 12608, Note_on_c, 0, 46, 0
2, 12695, Note_on_c, 0, 67, 0
2, 12701, Note_on_c, 0, 67, 67
2, 12756, Note_on_c, 0, 65, 0
2, 12759, Note_on_c, 0, 67, 0
2, 12760, Note_on_c, 0, 51, 0
2, 12761, Note_on_c, 0, 39, 0
2, 12765, Control_c, 0, 64, 0
2, 12787, Note_on_c, 0, 38, 0
2, 12831, Note_on_c, 0, 69, 99
2, 12834, Note_on_c, 0, 62, 97
2, 12835, Note_on_c, 0, 38, 103
2, 12836, Note_on_c, 0, 66, 95
2, 12837, Note_on_c, 0, 26, 96
2, 12841, Note_on_c, 0, 33, 84
2, 12848, Note_on_c, 0, 33, 0
2, 12871, Control_c, 0, 64, 127
2, 12933, Note_on_c, 0, 66, 0
2, 12933, Note_on_c, 0, 69, 0
2, 12939, Note_on_c, 0, 69, 91
2, 12944, Note_on_c, 0, 66, 73
2, 13063, Note_on_c, 0, 69, 0
2, 13071, Note_on_c, 0, 62, 0
2, 13072, Note_on_c, 0, 69, 76
2, 13075, Note_on_c, 0, 62, 76
2, 13148, Control_c, 0, 64, 0
2, 13163, Note_on_c, 0, 62, 0
2, 13163, Note_on_c, 0, 66, 0
2, 13163, Note_on_c, 0, 69, 0
2, 13167, Note_on_c, 0, 69, 83
2, 13168, Note_on_c, 0, 66, 62
2, 13168, Note_on_c, 0, 62, 79
2, 13286, Note_on_c, 0, 51, 98
2, 13286, Note_on_c, 0, 62, 0
2, 13286, Note_on_c, 0, 69, 0
2, 13290, Note_on_c, 0, 69, 83
2, 13293, Note_on_c, 0, 65, 78
2, 13294, Note_on_c, 0, 46, 89
2, 13295, Note_on_c, 0, 62, 83
2, 13296, Note_on_c, 0, 63, 87
2, 13301, Note_on_c, 0, 63, 0
2, 13301, Note_on_c, 0, 65, 0
2, 13393, Note_on_c, 0, 26, 0
2, 13401, Note_on_c, 0, 62, 0
2, 13401, Note_on_c, 0, 69, 0
2, 13408, Note_on_c, 0, 69, 87
2, 13409, Note_on_c, 0, 51, 0
2, 13412, Note_on_c, 0, 62, 81
2, 13413, Note_on_c, 0, 65, 72
2, 13438, Note_on_c, 0, 46, 0
2, 13447, Note_on_c, 0, 65, 0
2, 13470, Note_on_c, 0, 38, 0
2, 13470, Note_on_c, 0, 62, 0
2, 13470, Note_on_c, 0, 66, 0
2, 13470, Note_on_c, 0, 69, 0
2, 13520, Note_on_c, 0, 38, 87
2, 13523, Note_on_c, 0, 69, 82
2, 13526, Note_on_c, 0, 62, 74
2, 13527, Note_on_c, 0, 65, 71
2, 13585, Note_on_c, 0, 62, 0
2, 13585, Note_on_c, 0, 69, 0
2, 13601, Control_c, 0, 64, 127
2, 13616, Note_on_c, 0, 65, 0
2, 13622, Note_on_c, 0, 65, 74
2, 13628, Note_on_c, 0, 69, 84
2, 13630, Note_on_c, 0, 62, 78
2, 13632, Note_on_c, 0, 38, 0
2, 13635, Note_on_c, 0, 50, 92
2, 13640, Note_on_c, 0, 45, 83
2, 13642, Note_on_c, 0, 38, 82
2, 13739, Note_on_c, 0, 65, 0
2, 13743, Note_on_c, 0, 72, 95
2, 13744, Note_on_c, 0, 65, 89
2, 13847, Note_on_c, 0, 38, 0
2, 13847, Note_on_c, 0, 65, 0
2, 13847, Note_on_c, 0, 72, 0
2, 13851, Note_on_c, 0, 38, 77
2, 13852, Note_on_c, 0, 72, 98
2, 13853, Note_on_c, 0, 65, 93
2, 13969, Note_on_c, 0, 65, 0
2, 13969, Note_on_c, 0, 72, 0
2, 13977, Note_on_c, 0, 38, 0
2, 13977, Note_on_c, 0, 45, 0
2, 13979, Note_on_c, 0, 72, 90
2, 13980, Note_on_c, 0, 65, 89
2, 13982, Note_on_c, 0, 38, 77
2, 13988, Note_on_c, 0, 45, 65
2, 14054, Note_on_c, 0, 72, 0
2, 14064, Note_on_c, 0, 72, 91
2, 14173, Control_c, 0, 64, 0
2, 14189, Note_on_c, 0, 71, 100
2, 14191, Note_on_c, 0, 51, 96
2, 14193, Note_on_c, 0, 46, 84
2, 14195, Note_on_c, 0, 64, 96
2, 14197, Note_on_c, 0, 39, 81
2, 14231, Note_on_c, 0, 62, 0
2, 14231, Note_on_c, 0, 65, 0
2, 14238, Note_on_c, 0, 69, 0
2, 14254, Note_on_c, 0, 64, 0
2, 14261, Control_c, 0, 64, 127
2, 14300, Note_on_c, 0, 46, 0
2, 14300, Note_on_c, 0, 50, 0
2, 14300, Note_on_c, 0, 71, 0
2, 14304, Note_on_c, 0, 52, 77
2, 14304, Note_on_c, 0, 71, 85
2, 14307, Note_on_c, 0, 64, 84
2, 14309, Note_on_c, 0, 46, 73
2, 14330, Note_on_c, 0, 51, 0
2, 14369, Note_on_c, 0, 72, 0
2, 14376, Note_on_c, 0, 52, 0
2, 14392, Note_on_c, 0, 64, 0
2, 14400, Note_on_c, 0, 38, 0
2, 14400, Note_on_c, 0, 46, 0
2, 14401, Note_on_c, 0, 64, 82
2, 14404, Note_on_c, 0, 38, 80
2, 14404, Note_on_c, 0, 46, 64
2, 14520, Note_on_c, 0, 70, 94
2, 14521, Note_on_c, 0, 63, 98
2, 14556, Note_on_c, 0, 64, 0
2, 14563, Note_on_c, 0, 46, 0
2, 14564, Control_c, 0, 64, 0
2, 14565, Note_on_c, 0, 63, 0
2, 14565, Note_on_c, 0, 38, 0
2, 14567, Note_on_c, 0, 70, 0
2, 14568, Note_on_c, 0, 39, 0
2, 14568, Note_on_c, 0, 45, 0
2, 14576, Note_on_c, 0, 71, 0
2, 14635, Note_on_c, 0, 69, 101
2, 14636, Note_on_c, 0, 38, 101
2, 14638, Note_on_c, 0, 62, 97
2, 14640, Note_on_c, 0, 66, 92
2, 14641, Note_on_c, 0, 26, 97
2, 14668, Control_c, 0, 64, 127
2, 14753, Note_on_c, 0, 62, 0
2, 14753, Note_on_c, 0, 66, 0
2, 14753, Note_on_c, 0, 69, 0
2, 14758, Note_on_c, 0, 69, 94
2, 14762, Note_on_c, 0, 62, 77
2, 14764, Note_on_c, 0, 66, 75
2, 14876, Note_on_c, 0, 62, 0
2, 14876, Note_on_c, 0, 69, 0
2, 14885, Note_on_c, 0, 69, 74
2, 14885, Note_on_c, 0, 62, 83
2, 14906, Note_on_c, 0, 38, 0
2, 14916, Note_on_c, 0, 38, 45
2, 14976, Note_on_c, 0, 38, 0
2, 14981, Note_on_c, 0, 50, 78
2, 14983, Note_on_c, 0, 62, 0
2, 14983, Note_on_c, 0, 66, 0
2, 14983, Note_on_c, 0, 69, 0
2, 14984, Note_on_c, 0, 38, 73
2, 14988, Note_on_c, 0, 69, 74
2, 14988, Note_on_c, 0, 62, 77
2, 14991, Note_on_c, 0, 50, 0
2, 14993, Note_on_c, 0, 66, 71
2, 15083, Note_on_c, 0, 69, 0
2, 15093, Note_on_c, 0, 51, 95
2, 15094, Note_on_c, 0, 46, 90
2, 15094, Note_on_c, 0, 69, 89
2, 15098, Note_on_c, 0, 38, 0
2, 15098, Note_on_c, 0, 62, 0
2, 15099, Note_on_c, 0, 63, 85
2, 15103, Note_on_c, 0, 62, 75
2, 15106, Note_on_c, 0, 63, 0
2, 15109, Note_on_c, 0, 38, 75
2, 15206, Note_on_c, 0, 62, 0
2, 15206, Note_on_c, 0, 69, 0
2, 15211, Note_on_c, 0, 69, 87
2, 15212, Note_on_c, 0, 62, 86
2, 15250, Note_on_c, 0, 46, 0
2, 15252, Control_c, 0, 64, 0
2, 15252, Note_on_c, 0, 26, 0
2, 15275, Note_on_c, 0, 51, 0
2, 15298, Note_on_c, 0, 38, 0
2, 15306, Note_on_c, 0, 62, 0
2, 15306, Note_on_c, 0, 69, 0
2, 15307, Note_on_c, 0, 38, 79
2, 15314, Note_on_c, 0, 69, 91
2, 15315, Note_on_c, 0, 62, 86
2, 15336, Note_on_c, 0, 66, 0
2, 15346, Note_on_c, 0, 38, 0
2, 15348, Note_on_c, 0, 62, 0
2, 15348, Note_on_c, 0, 69, 0
2, 15424, Note_on_c, 0, 50, 95
2, 15424, Note_on_c, 0, 45, 86
2, 15425, Note_on_c, 0, 38, 83
2, 15425, Note_on_c, 0, 69, 99
2, 15426, Note_on_c, 0, 62, 93
2, 15429, Control_c, 0, 64, 127
2, 15528, Note_on_c, 0, 69, 0
2, 15536, Note_on_c, 0, 62, 0
2, 15538, Note_on_c, 0, 65, 73
2, 15539, Note_on_c, 0, 69, 94
2, 15540, Note_on_c, 0, 62, 88
2, 15544, Note_on_c, 0, 65, 0
2, 15636, Note_on_c, 0, 69, 0
2, 15644, Note_on_c, 0, 38, 0
2, 15644, Note_on_c, 0, 62, 0
2, 15647, Note_on_c, 0, 69, 82
2, 15648, Note_on_c, 0, 62, 75
2, 15651, Note_on_c, 0, 45, 0
2, 15652, Note_on_c, 0, 38, 76
2, 15655, Note_on_c, 0, 45, 61
2, 15751, Note_on_c, 0, 62, 0
2, 15756, Note_on_c, 0, 62, 84
2, 15758, Note_on_c, 0, 65, 72
2, 15759, Note_on_c, 0, 69, 0
2, 15766, Note_on_c, 0, 69, 86
2, 15797, Note_on_c, 0, 38, 0
2, 15797, Note_on_c, 0, 45, 0
2, 15797, Note_on_c, 0, 50, 0
2, 15801, Note_on_c, 0, 50, 78
2, 15807, Note_on_c, 0, 45, 84
2, 15807, Note_on_c, 0, 38, 72
2, 15935, Note_on_c, 0, 69, 0
2, 15936, Note_on_c, 0, 62, 0
2, 15936, Note_on_c, 0, 45, 0
2, 15937, Note_on_c, 0, 38, 0
2, 15937, Note_on_c, 0, 50, 0
2, 15938, Control_c, 0, 64, 0
2, 15951, Note_on_c, 0, 65, 0
2, 15983, Note_on_c, 0, 48, 98
2, 15984, Note_on_c, 0, 36, 93
2, 15987, Note_on_c, 0, 35, 86
2, 15992, Note_on_c, 0, 59, 73
2, 15992, Note_on_c, 0, 47, 81
2, 15995, Note_on_c, 0, 62, 70
2, 15997, Note_on_c, 0, 35, 0
2, 15997, Note_on_c, 0, 47, 0
2, 16020, Control_c, 0, 64, 127
2, 16055, Note_on_c, 0, 64, 62
2, 16121, Note_on_c, 0, 69, 78
2, 16128, Note_on_c, 0, 59, 0
2, 16154, Note_on_c, 0, 74, 83
2, 16201, Note_on_c, 0, 76, 89
2, 16246, Note_on_c, 0, 81, 105
2, 16320, Note_on_c, 0, 36, 0
2, 16325, Note_on_c, 0, 36, 66
2, 16330, Note_on_c, 0, 41, 70
2, 16403, Note_on_c, 0, 36, 0
2, 16403, Note_on_c, 0, 69, 0
2, 16405, Note_on_c, 0, 48, 0
2, 16405, Note_on_c, 0, 41, 0
2, 16406, Control_c, 0, 64, 0
2, 16406, Note_on_c, 0, 74, 0
2, 16407, Note_on_c, 0, 81, 0
2, 16407, Note_on_c, 0, 76, 0
2, 16412, Note_on_c, 0, 62, 0
2, 16412, Note_on_c, 0, 64, 0
2, 16462, Note_on_c, 0, 46, 107
2, 16463, Note_on_c, 0, 34, 98
2, 16466, Note_on_c, 0, 74, 111
2, 16519, Control_c, 0, 64, 127
2, 16687, Note_on_c, 0, 81, 103
2, 16690, Note_on_c, 0, 72, 91
2, 16788, Note_on_c, 0, 72, 0
2, 16788, Note_on_c, 0, 74, 0
2, 16788, Note_on_c, 0, 81, 0
2, 16793, Note_on_c, 0, 81, 104
2, 16798, Note_on_c, 0, 72, 90
2, 16799, Note_on_c, 0, 74, 95
2, 16893, Note_on_c, 0, 62, 90
2, 16897, Note_on_c, 0, 58, 84
2, 16899, Note_on_c, 0, 53, 82
2, 17018, Note_on_c, 0, 72, 0
2, 17021, Note_on_c, 0, 79, 91
2, 17023, Note_on_c, 0, 72, 85
2, 17111, Note_on_c, 0, 81, 0
2, 17118, Note_on_c, 0, 72, 0
2, 17122, Note_on_c, 0, 81, 110
2, 17122, Note_on_c, 0, 72, 87
2, 17126, Note_on_c, 0, 74, 0
2, 17136, Note_on_c, 0, 74, 80
2, 17226, Note_on_c, 0, 34, 0
2, 17226, Note_on_c, 0, 46, 0
2, 17230, Note_on_c, 0, 46, 96
2, 17230, Note_on_c, 0, 34, 86
2, 17357, Note_on_c, 0, 89, 103
2, 17364, Note_on_c, 0, 77, 84
2, 17387, Note_on_c, 0, 79, 0
2, 17392, Note_on_c, 0, 79, 55
2, 17456, Note_on_c, 0, 89, 0
2, 17463, Note_on_c, 0, 89, 95
2, 17510, Note_on_c, 0, 46, 0
2, 17514, Note_on_c, 0, 46, 69
2, 17587, Note_on_c, 0, 84, 86
2, 17640, Note_on_c, 0, 46, 0
2, 17644, Note_on_c, 0, 46, 77
2, 17671, Note_on_c, 0, 84, 0
2, 17681, Note_on_c, 0, 84, 80
2, 17779, Note_on_c, 0, 53, 0
2, 17786, Note_on_c, 0, 58, 0
2, 17786, Note_on_c, 0, 62, 0
2, 17789, Note_on_c, 0, 53, 88
2, 17791, Note_on_c, 0, 62, 92
2, 17792, Note_on_c, 0, 58, 89
2, 17797, Note_on_c, 0, 86, 99
2, 17909, Note_on_c, 0, 86, 0
2, 17919, Note_on_c, 0, 86, 96
2, 17978, Note_on_c, 0, 46, 0
2, 17978, Note_on_c, 0, 58, 0
2, 17986, Note_on_c, 0, 53, 0
2, 17986, Note_on_c, 0, 46, 75
2, 17989, Note_on_c, 0, 58, 74
2, 17991, Note_on_c, 0, 53, 58
2, 18024, Note_on_c, 0, 79, 0
2, 18036, Note_on_c, 0, 79, 81
2, 18109, Note_on_c, 0, 77, 0
2, 18109, Note_on_c, 0, 79, 0
2, 18114, Note_on_c, 0, 77, 67
2, 18118, Note_on_c, 0, 79, 74
2, 18202, Note_on_c, 0, 34, 0
2, 18203, Control_c, 0, 64, 0
2, 18204, Note_on_c, 0, 46, 0
2, 18204, Note_on_c, 0, 86, 0
2, 18204, Note_on_c, 0, 89, 0
2, 18204, Note_on_c, 0, 53, 0
2, 18204, Note_on_c, 0, 74, 0
2, 18205, Note_on_c, 0, 62, 0
2, 18205, Note_on_c, 0, 72, 0
2, 18205, Note_on_c, 0, 81, 0
2, 18205, Note_on_c, 0, 79, 0
2, 18205, Note_on_c, 0, 84, 0
2, 18205, Note_on_c, 0, 77, 0
2, 18224, Note_on_c, 0, 58, 0
2, 18254, Note_on_c, 0, 48, 107
2, 18254, Note_on_c, 0, 74, 109
2, 18254, Note_on_c, 0, 36, 103
2, 18258, Note_on_c, 0, 76, 98
2, 18293, Control_c, 0, 64, 127
2, 18416, Note_on_c, 0, 74, 0
2, 18427, Note_on_c, 0, 74, 69
2, 18478, Note_on_c, 0, 48, 0
2, 18485, Note_on_c, 0, 81, 103
2, 18488, Note_on_c, 0, 48, 66
2, 18488, Note_on_c, 0, 72, 88
2, 18593, Note_on_c, 0, 48, 0
2, 18593, Note_on_c, 0, 72, 0
2, 18593, Note_on_c, 0, 81, 0
2, 18597, Note_on_c, 0, 81, 104
2, 18600, Note_on_c, 0, 48, 67
2, 18600, Note_on_c, 0, 74, 0
2, 18601, Note_on_c, 0, 72, 91
2, 18612, Note_on_c, 0, 74, 80
2, 18691, Note_on_c, 0, 60, 81
2, 18692, Note_on_c, 0, 55, 87
2, 18694, Note_on_c, 0, 52, 87
2, 18800, Note_on_c, 0, 52, 0
2, 18800, Note_on_c, 0, 55, 0
2, 18800, Note_on_c, 0, 60, 0
2, 18808, Note_on_c, 0, 48, 0
2, 18808, Note_on_c, 0, 72, 0
2, 18811, Note_on_c, 0, 52, 84
2, 18811, Note_on_c, 0, 55, 75
2, 18811, Note_on_c, 0, 60, 87
2, 18812, Note_on_c, 0, 48, 84
2, 18812, Note_on_c, 0, 72, 85
2, 18813, Note_on_c, 0, 79, 94
2, 18908, Note_on_c, 0, 72, 0
2, 18908, Note_on_c, 0, 81, 0
2, 18913, Note_on_c, 0, 72, 90
2, 18917, Note_on_c, 0, 81, 109
2, 18931, Note_on_c, 0, 74, 0
2, 18935, Note_on_c, 0, 74, 78
2, 19008, Note_on_c, 0, 36, 0
2, 19012, Note_on_c, 0, 36, 90
2, 19125, Note_on_c, 0, 89, 99
2, 19176, Note_on_c, 0, 48, 0
2, 19182, Note_on_c, 0, 48, 75
2, 19223, Note_on_c, 0, 89, 0
2, 19232, Note_on_c, 0, 89, 100
2, 19307, Note_on_c, 0, 52, 0
2, 19311, Note_on_c, 0, 52, 77
2, 19356, Note_on_c, 0, 84, 90
2, 19392, Note_on_c, 0, 48, 0
2, 19398, Note_on_c, 0, 48, 88
2, 19553, Note_on_c, 0, 60, 0
2, 19560, Note_on_c, 0, 52, 0
2, 19560, Note_on_c, 0, 55, 0
2, 19564, Note_on_c, 0, 60, 94
2, 19565, Note_on_c, 0, 55, 89
2, 19570, Note_on_c, 0, 52, 92
2, 19572, Note_on_c, 0, 86, 98
2, 19676, Note_on_c, 0, 86, 0
2, 19685, Note_on_c, 0, 86, 98
2, 19760, Note_on_c, 0, 48, 0
2, 19765, Note_on_c, 0, 48, 88
2, 19791, Note_on_c, 0, 79, 0
2, 19802, Note_on_c, 0, 79, 87
2, 19875, Note_on_c, 0, 79, 0
2, 19887, Note_on_c, 0, 79, 82
2, 19991, Note_on_c, 0, 76, 0
2, 19994, Note_on_c, 0, 81, 0
2, 19995, Note_on_c, 0, 89, 0
2, 19995, Note_on_c, 0, 86, 0
2, 19995, Note_on_c, 0, 84, 0
2, 19995, Note_on_c, 0, 72, 0
2, 19996, Note_on_c, 0, 52, 0
2, 19998, Control_c, 0, 64, 0
2, 20006, Note_on_c, 0, 36, 0
2, 20014, Note_on_c, 0, 48, 0
2, 20014, Note_on_c, 0, 55, 0
2, 20014, Note_on_c, 0, 60, 0
2, 20029, Note_on_c, 0, 74, 0
2, 20029, Note_on_c, 0, 79, 0
2, 20034, Note_on_c, 0, 79, 103
2, 20037, Note_on_c, 0, 74, 103
2, 20037, Note_on_c, 0, 50, 103
2, 20038, Note_on_c, 0, 38, 105
2, 20083, Control_c, 0, 64, 127
2, 20282, Note_on_c, 0, 50, 0
2, 20287, Note_on_c, 0, 50, 84
2, 20388, Note_on_c, 0, 78, 101
2, 20393, Note_on_c, 0, 69, 77
2, 20503, Note_on_c, 0, 62, 88
2, 20505, Note_on_c, 0, 57, 79
2, 20506, Note_on_c, 0, 54, 87
2, 20712, Note_on_c, 0, 69, 0
2, 20712, Note_on_c, 0, 74, 0
2, 20720, Note_on_c, 0, 50, 0
2, 20722, Note_on_c, 0, 74, 105
2, 20723, Note_on_c, 0, 69, 93
2, 20724, Note_on_c, 0, 66, 104
2, 20725, Note_on_c, 0, 50, 91
2, 20738, Note_on_c, 0, 79, 0
2, 20739, Note_on_c, 0, 54, 0
2, 20739, Note_on_c, 0, 62, 0
2, 20739, Note_on_c, 0, 57, 0
2, 20739, Note_on_c, 0, 38, 0
2, 20741, Control_c, 0, 64, 0
2, 20805, Control_c, 0, 64, 127
2, 20849, Note_on_c, 0, 38, 96
2, 20972, Note_on_c, 0, 84, 93
2, 21077, Note_on_c, 0, 86, 96
2, 21196, Note_on_c, 0, 81, 97
2, 21246, Note_on_c, 0, 54, 72
2, 21303, Note_on_c, 0, 79, 92
2, 21381, Note_on_c, 0, 69, 0
2, 21386, Note_on_c, 0, 62, 85
2, 21388, Note_on_c, 0, 54, 0
2, 21392, Note_on_c, 0, 69, 81
2, 21395, Note_on_c, 0, 54, 72
2, 21396, Note_on_c, 0, 60, 68
2, 21398, Note_on_c, 0, 57, 70
2, 21519, Note_on_c, 0, 78, 0
2, 21525, Note_on_c, 0, 78, 100
2, 21626, Note_on_c, 0, 74, 0
2, 21635, Note_on_c, 0, 74, 94
2, 21711, Note_on_c, 0, 50, 0
2, 21718, Note_on_c, 0, 50, 91
2, 21772, Note_on_c, 0, 45, 88
2, 21812, Note_on_c, 0, 84, 0
2, 21813, Note_on_c, 0, 79, 0
2, 21813, Note_on_c, 0, 69, 0
2, 21813, Note_on_c, 0, 57, 0
2, 21814, Note_on_c, 0, 86, 0
2, 21814, Note_on_c, 0, 62, 0
2, 21814, Note_on_c, 0, 81, 0
2, 21814, Note_on_c, 0, 54, 0
2, 21814, Control_c, 0, 64, 0
2, 21814, Note_on_c, 0, 66, 0
2, 21814, Note_on_c, 0, 74, 0
2, 21814, Note_on_c, 0, 50, 0
2, 21814, Note_on_c, 0, 78, 0
2, 21826, Note_on_c, 0, 60, 0
2, 21857, Note_on_c, 0, 38, 0
2, 21864, Note_on_c, 0, 45, 0
2, 21865, Note_on_c, 0, 72, 103
2, 21867, Note_on_c, 0, 38, 98
2, 21868, Note_on_c, 0, 67, 94
2, 21903, Control_c, 0, 64, 127
2, 22074, Note_on_c, 0, 74, 91
2, 22081, Note_on_c, 0, 69, 75
2, 22187, Note_on_c, 0, 69, 0
2, 22187, Note_on_c, 0, 74, 0
2, 22195, Note_on_c, 0, 72, 0
2, 22196, Note_on_c, 0, 74, 98
2, 22198, Note_on_c, 0, 69, 84
2, 22200, Note_on_c, 0, 72, 81
2, 22277, Note_on_c, 0, 62, 91
2, 22417, Note_on_c, 0, 67, 0
2, 22428, Note_on_c, 0, 67, 83
2, 22540, Note_on_c, 0, 69, 0
2, 22540, Note_on_c, 0, 74, 0
2, 22551, Note_on_c, 0, 69, 94
2, 22551, Note_on_c, 0, 74, 103
2, 22553, Note_on_c, 0, 66, 97
2, 22656, Note_on_c, 0, 38, 0
2, 22659, Note_on_c, 0, 67, 0
2, 22659, Note_on_c, 0, 72, 0
2, 22659, Note_on_c, 0, 62, 0
2, 22659, Control_c, 0, 64, 0
2, 22661, Note_on_c, 0, 38, 88
2, 22748, Control_c, 0, 64, 127
2, 22893, Note_on_c, 0, 62, 86
2, 22962, Note_on_c, 0, 50, 61
2, 23014, Note_on_c, 0, 57, 82
2, 23104, Note_on_c, 0, 55, 85
2, 23229, Note_on_c, 0, 54, 85
2, 23324, Note_on_c, 0, 74, 0
2, 23324, Control_c, 0, 64, 0
2, 23339, Note_on_c, 0, 50, 0
2, 23345, Note_on_c, 0, 50, 78
2, 23347, Note_on_c, 0, 55, 0
2, 23393, Note_on_c, 0, 54, 0
2, 23447, Note_on_c, 0, 66, 0
2, 23491, Note_on_c, 0, 45, 64
2, 23554, Note_on_c, 0, 69, 0
2, 23600, Note_on_c, 0, 38, 0
2, 23616, Note_on_c, 0, 50, 0
2, 23620, Note_on_c, 0, 50, 61
2, 23736, Note_on_c, 0, 64, 81
2, 23750, Note_on_c, 0, 38, 60
2, 24030, Note_on_c, 0, 62, 0
2, 24431, Note_on_c, 0, 62, 76
2, 24468, Note_on_c, 0, 64, 0
2, 24491, Note_on_c, 0, 57, 0
2, 24658, Note_on_c, 0, 57, 61
2, 24662, Note_on_c, 0, 62, 0
2, 24944, Control_c, 0, 64, 127
2, 25591, Note_on_c, 0, 36, 47
2, 25635, Note_on_c, 0, 50, 0
2, 25643, Note_on_c, 0, 57, 0
2, 25646, Note_on_c, 0, 52, 43
2, 25652, Note_on_c, 0, 57, 57
2, 25662, Note_on_c, 0, 38, 0
2, 25666, Control_c, 0, 64, 0
2, 25693, Note_on_c, 0, 48, 58
2, 25700, Note_on_c, 0, 64, 84
2, 25701, Note_on_c, 0, 60, 62
2, 26413, Note_on_c, 0, 62, 75
2, 26451, Note_on_c, 0, 60, 0
2, 26530, Note_on_c, 0, 64, 0
2, 26649, Note_on_c, 0, 57, 0
2, 26653, Note_on_c, 0, 62, 0
2, 26660, Note_on_c, 0, 57, 62
2, 27064, Control_c, 0, 64, 127
2, 27598, Note_on_c, 0, 34, 48
2, 27613, Note_on_c, 0, 48, 0
2, 27613, Note_on_c, 0, 52, 0
2, 27613, Note_on_c, 0, 36, 0
2, 27617, Note_on_c, 0, 45, 0
2, 27620, Control_c, 0, 64, 0
2, 27638, Note_on_c, 0, 53, 49
2, 27640, Note_on_c, 0, 57, 0
2, 27644, Note_on_c, 0, 57, 61
2, 27682, Note_on_c, 0, 62, 74
2, 28356, Note_on_c, 0, 60, 63
2, 28431, Note_on_c, 0, 62, 0
2, 28439, Note_on_c, 0, 53, 0
2, 28600, Control_c, 0, 64, 127
2, 28623, Note_on_c, 0, 34, 0
2, 28626, Note_on_c, 0, 53, 54
2, 28628, Note_on_c, 0, 34, 37
2, 29098, Note_on_c, 0, 55, 69
2, 29329, Note_on_c, 0, 53, 0
2, 29340, Note_on_c, 0, 53, 69
2, 29509, Note_on_c, 0, 33, 46
2, 29567, Note_on_c, 0, 34, 0
2, 29569, Note_on_c, 0, 60, 0
2, 29571, Note_on_c, 0, 57, 0
2, 29571, Note_on_c, 0, 53, 0
2, 29572, Control_c, 0, 64, 0
2, 29575, Note_on_c, 0, 55, 0
2, 29581, Note_on_c, 0, 55, 76
2, 29581, Note_on_c, 0, 45, 52
2, 29582, Note_on_c, 0, 50, 63
2, 30051, Control_c, 0, 64, 127
2, 30319, Note_on_c, 0, 57, 62
2, 30574, Note_on_c, 0, 57, 0
2, 30585, Note_on_c, 0, 57, 62
2, 30586, Control_c, 0, 64, 0
2, 30587, Note_on_c, 0, 49, 44
2, 30593, Note_on_c, 0, 55, 0
2, 30594, Note_on_c, 0, 50, 0
2, 30973, Control_c, 0, 64, 127
2, 31526, Note_on_c, 0, 45, 0
2, 31526, Note_on_c, 0, 49, 0
2, 31528, Note_on_c, 0, 38, 51
2, 31533, Note_on_c, 0, 45, 41
2, 31564, Note_on_c, 0, 57, 0
2, 31574, Control_c, 0, 64, 0
2, 31575, Note_on_c, 0, 57, 57
2, 31582, Note_on_c, 0, 53, 52
2, 31602, Note_on_c, 0, 50, 62
2, 31606, Note_on_c, 0, 64, 86
2, 31664, Note_on_c, 0, 33, 0
2, 31718, Control_c, 0, 64, 127
2, 32302, Note_on_c, 0, 62, 84
2, 32555, Note_on_c, 0, 57, 0
2, 32563, Note_on_c, 0, 50, 0
2, 32564, Note_on_c, 0, 57, 66
2, 32568, Note_on_c, 0, 50, 50
2, 32570, Note_on_c, 0, 53, 0
2, 32574, Note_on_c, 0, 41, 46
2, 32575, Note_on_c, 0, 53, 54
2, 32578, Note_on_c, 0, 45, 0
2, 32579, Note_on_c, 0, 62, 0
2, 32579, Note_on_c, 0, 38, 0
2, 32580, Control_c, 0, 64, 0
2, 32580, Note_on_c, 0, 64, 0
2, 32762, Control_c, 0, 64, 127
2, 33569, Note_on_c, 0, 50, 0
2, 33573, Note_on_c, 0, 64, 75
2, 33573, Note_on_c, 0, 62, 65
2, 33575, Note_on_c, 0, 55, 61
2, 33575, Note_on_c, 0, 58, 64
2, 33579, Note_on_c, 0, 50, 53
2, 33580, Note_on_c, 0, 43, 56
2, 33598, Note_on_c, 0, 41, 0
2, 33599, Note_on_c, 0, 53, 0
2, 33601, Control_c, 0, 64, 0
2, 33615, Note_on_c, 0, 57, 0
2, 33784, Control_c, 0, 64, 127
2, 34268, Note_on_c, 0, 62, 0
2, 34275, Note_on_c, 0, 62, 82
2, 34544, Note_on_c, 0, 62, 0
2, 34546, Note_on_c, 0, 65, 79
2, 34555, Note_on_c, 0, 62, 61
2, 34560, Note_on_c, 0, 58, 0
2, 34564, Note_on_c, 0, 58, 56
2, 34567, Note_on_c, 0, 50, 0
2, 34569, Note_on_c, 0, 64, 0
2, 34570, Note_on_c, 0, 53, 45
2, 34570, Note_on_c, 0, 43, 0
2, 34571, Note_on_c, 0, 55, 0
2, 34571, Note_on_c, 0, 46, 50
2, 34578, Note_on_c, 0, 50, 39
2, 34584, Control_c, 0, 64, 0
2, 34752, Control_c, 0, 64, 127
2, 35404, Note_on_c, 0, 50, 0
2, 35431, Note_on_c, 0, 48, 58
2, 35510, Note_on_c, 0, 52, 59
2, 35520, Note_on_c, 0, 48, 0
2, 35522, Note_on_c, 0, 60, 69
2, 35524, Note_on_c, 0, 48, 60
2, 35529, Note_on_c, 0, 64, 72
2, 35532, Note_on_c, 0, 69, 88
2, 35534, Note_on_c, 0, 58, 0
2, 35537, Note_on_c, 0, 65, 0
2, 35537, Note_on_c, 0, 46, 0
2, 35538, Control_c, 0, 64, 0
2, 35538, Note_on_c, 0, 53, 0
2, 35541, Note_on_c, 0, 57, 56
2, 35566, Note_on_c, 0, 62, 0
2, 36241, Control_c, 0, 64, 127
2, 36259, Note_on_c, 0, 69, 0
2, 36277, Note_on_c, 0, 70, 73
2, 36288, Control_c, 0, 64, 0
2, 36395, Control_c, 0, 64, 127
2, 36524, Note_on_c, 0, 67, 81
2, 37005, Control_c, 0, 64, 0
2, 37007, Note_on_c, 0, 64, 0
2, 37007, Note_on_c, 0, 62, 73
2, 37008, Note_on_c, 0, 57, 0
2, 37008, Note_on_c, 0, 48, 0
2, 37009, Note_on_c, 0, 60, 0
2, 37010, Note_on_c, 0, 70, 0
2, 37013, Note_on_c, 0, 50, 61
2, 37014, Note_on_c, 0, 58, 72
2, 37017, Note_on_c, 0, 52, 0
2, 37020, Note_on_c, 0, 46, 60
2, 37021, Note_on_c, 0, 52, 48
2, 37102, Control_c, 0, 64, 127
2, 37155, Note_on_c, 0, 52, 0
2, 37248, Note_on_c, 0, 67, 0
2, 37252, Note_on_c, 0, 67, 84
2, 37489, Note_on_c, 0, 46, 0
2, 37490, Note_on_c, 0, 58, 0
2, 37491, Note_on_c, 0, 50, 0
2, 37495, Note_on_c, 0, 67, 0
2, 37496, Control_c, 0, 64, 0
2, 37501, Note_on_c, 0, 62, 0
2, 37504, Note_on_c, 0, 69, 81
2, 37506, Note_on_c, 0, 45, 58
2, 37507, Note_on_c, 0, 57, 59
2, 37511, Note_on_c, 0, 52, 50
2, 37512, Note_on_c, 0, 62, 62
2, 37512, Note_on_c, 0, 64, 62
2, 37662, Control_c, 0, 64, 127
2, 37862, Note_on_c, 0, 69, 0
2, 37872, Note_on_c, 0, 69, 73
2, 38221, Note_on_c, 0, 70, 79
2, 38463, Note_on_c, 0, 67, 74
2, 38476, Note_on_c, 0, 64, 0
2, 38479, Note_on_c, 0, 62, 0
2, 38479, Note_on_c, 0, 69, 0
2, 38480, Note_on_c, 0, 70, 0
2, 38482, Note_on_c, 0, 64, 52
2, 38483, Note_on_c, 0, 61, 54
2, 38489, Control_c, 0, 64, 0
2, 38768, Control_c, 0, 64, 127
2, 39912, Note_on_c, 0, 45, 0
2, 39919, Note_on_c, 0, 45, 94
2, 39922, Note_on_c, 0, 33, 89
2, 40005, Note_on_c, 0, 52, 0
2, 40014, Note_on_c, 0, 57, 0
2, 40015, Note_on_c, 0, 64, 0
2, 40015, Note_on_c, 0, 67, 0
2, 40015, Note_on_c, 0, 61, 0
2, 40016, Control_c, 0, 64, 0
2, 40028, Note_on_c, 0, 33, 0
2, 40028, Note_on_c, 0, 45, 0
2, 40032, Note_on_c, 0, 45, 90
2, 40032, Note_on_c, 0, 33, 82
2, 40081, Note_on_c, 0, 45, 0
2, 40089, Note_on_c, 0, 33, 0
2, 40416, Note_on_c, 0, 67, 105
2, 40423, Note_on_c, 0, 29, 89
2, 40426, Note_on_c, 0, 57, 86
2, 40426, Note_on_c, 0, 41, 95
2, 40426, Note_on_c, 0, 63, 95
2, 40430, Note_on_c, 0, 60, 91
2, 40535, Control_c, 0, 64, 127
2, 40757, Note_on_c, 0, 41, 0
2, 40761, Note_on_c, 0, 41, 55
2, 40876, Note_on_c, 0, 56, 102
2, 40877, Note_on_c, 0, 48, 87
2, 41095, Note_on_c, 0, 41, 0
2, 41095, Note_on_c, 0, 48, 0
2, 41102, Note_on_c, 0, 41, 79
2, 41106, Note_on_c, 0, 48, 80
2, 41203, Note_on_c, 0, 56, 0
2, 41207, Control_c, 0, 64, 0
2, 41210, Note_on_c, 0, 29, 0
2, 41210, Note_on_c, 0, 48, 0
2, 41213, Note_on_c, 0, 63, 0
2, 41214, Note_on_c, 0, 56, 98
2, 41215, Note_on_c, 0, 67, 0
2, 41215, Note_on_c, 0, 60, 0
2, 41215, Note_on_c, 0, 41, 0
2, 41216, Note_on_c, 0, 48, 74
2, 41233, Note_on_c, 0, 57, 0
2, 41240, Note_on_c, 0, 56, 0
2, 41318, Note_on_c, 0, 48, 0
2, 41347, Note_on_c, 0, 65, 101
2, 41352, Note_on_c, 0, 60, 88
2, 41352, Note_on_c, 0, 41, 66
2, 41425, Note_on_c, 0, 41, 0
2, 41487, Control_c, 0, 64, 127
2, 41565, Note_on_c, 0, 41, 73
2, 41678, Note_on_c, 0, 82, 95
2, 41680, Note_on_c, 0, 70, 106
2, 41687, Note_on_c, 0, 82, 0
2, 41795, Note_on_c, 0, 56, 104
2, 41795, Note_on_c, 0, 48, 89
2, 41917, Note_on_c, 0, 41, 0
2, 41925, Note_on_c, 0, 41, 74
2, 41994, Note_on_c, 0, 48, 0
2, 42005, Note_on_c, 0, 48, 81
2, 42025, Note_on_c, 0, 68, 101
2, 42165, Note_on_c, 0, 70, 0
2, 42166, Note_on_c, 0, 65, 0
2, 42166, Note_on_c, 0, 56, 0
2, 42167, Note_on_c, 0, 68, 0
2, 42170, Note_on_c, 0, 60, 0
2, 42172, Control_c, 0, 64, 0
2, 42186, Note_on_c, 0, 41, 0
2, 42186, Note_on_c, 0, 48, 0
2, 42250, Note_on_c, 0, 27, 94
2, 42251, Note_on_c, 0, 67, 101
2, 42251, Note_on_c, 0, 39, 94
2, 42253, Note_on_c, 0, 63, 86
2, 42257, Note_on_c, 0, 60, 93
2, 42309, Control_c, 0, 64, 127
2, 42339, Note_on_c, 0, 27, 0
2, 42347, Note_on_c, 0, 39, 0
2, 42350, Note_on_c, 0, 27, 82
2, 42351, Note_on_c, 0, 39, 84
2, 42600, Note_on_c, 0, 60, 0
2, 42608, Note_on_c, 0, 60, 73
2, 42608, Note_on_c, 0, 39, 0
2, 42608, Note_on_c, 0, 63, 0
2, 42608, Note_on_c, 0, 67, 0
2, 42612, Note_on_c, 0, 67, 70
2, 42615, Note_on_c, 0, 39, 60
2, 42617, Control_c, 0, 64, 0
2, 42617, Note_on_c, 0, 63, 64
2, 42716, Note_on_c, 0, 60, 0
2, 42716, Note_on_c, 0, 63, 0
2, 42716, Note_on_c, 0, 67, 0
2, 42721, Note_on_c, 0, 60, 97
2, 42725, Note_on_c, 0, 67, 87
2, 42726, Note_on_c, 0, 63, 85
2, 42726, Note_on_c, 0, 55, 100
2, 42731, Note_on_c, 0, 51, 94
2, 42732, Note_on_c, 0, 48, 91
2, 42769, Control_c, 0, 64, 127
2, 42931, Note_on_c, 0, 39, 0
2, 42942, Note_on_c, 0, 39, 73
2, 42952, Control_c, 0, 64, 0
2, 43046, Note_on_c, 0, 48, 0
2, 43046, Note_on_c, 0, 51, 0
2, 43046, Note_on_c, 0, 55, 0
2, 43046, Note_on_c, 0, 60, 0
2, 43046, Note_on_c, 0, 63, 0
2, 43050, Note_on_c, 0, 60, 89
2, 43050, Note_on_c, 0, 63, 83
2, 43050, Note_on_c, 0, 51, 91
2, 43051, Note_on_c, 0, 55, 90
2, 43052, Note_on_c, 0, 48, 87
2, 43061, Control_c, 0, 64, 127
2, 43172, Note_on_c, 0, 55, 0
2, 43173, Control_c, 0, 64, 0
2, 43175, Note_on_c, 0, 51, 0
2, 43178, Note_on_c, 0, 60, 0
2, 43179, Note_on_c, 0, 63, 0
2, 43186, Note_on_c, 0, 48, 0
2, 43189, Note_on_c, 0, 65, 103
2, 43192, Note_on_c, 0, 27, 0
2, 43207, Note_on_c, 0, 39, 0
2, 43207, Note_on_c, 0, 67, 0
2, 43384, Control_c, 0, 64, 127
2, 43402, Note_on_c, 0, 39, 83
2, 43525, Note_on_c, 0, 67, 105
2, 43628, Note_on_c, 0, 63, 84
2, 43628, Note_on_c, 0, 51, 94
2, 43632, Note_on_c, 0, 55, 102
2, 43635, Note_on_c, 0, 48, 87
2, 43641, Note_on_c, 0, 52, 83
2, 43760, Note_on_c, 0, 39, 0
2, 43769, Note_on_c, 0, 39, 78
2, 43852, Note_on_c, 0, 48, 0
2, 43852, Note_on_c, 0, 55, 0
2, 43862, Note_on_c, 0, 75, 104
2, 43863, Note_on_c, 0, 48, 79
2, 43864, Note_on_c, 0, 55, 79
2, 44001, Note_on_c, 0, 51, 0
2, 44002, Note_on_c, 0, 63, 0
2, 44002, Note_on_c, 0, 55, 0
2, 44002, Note_on_c, 0, 65, 0
2, 44002, Note_on_c, 0, 52, 0
2, 44002, Control_c, 0, 64, 0
2, 44002, Note_on_c, 0, 67, 0
2, 44002, Note_on_c, 0, 39, 0
2, 44008, Note_on_c, 0, 75, 0
2, 44029, Note_on_c, 0, 48, 0
2, 44086, Note_on_c, 0, 72, 105
2, 44094, Note_on_c, 0, 25, 102
2, 44094, Note_on_c, 0, 68, 94
2, 44094, Note_on_c, 0, 65, 89
2, 44095, Note_on_c, 0, 37, 99
2, 44129, Control_c, 0, 64, 127
2, 44198, Note_on_c, 0, 25, 0
2, 44207, Note_on_c, 0, 25, 84
2, 44436, Note_on_c, 0, 65, 0
2, 44444, Note_on_c, 0, 37, 0
2, 44445, Note_on_c, 0, 65, 67
2, 44449, Note_on_c, 0, 37, 71
2, 44536, Control_c, 0, 64, 0
2, 44555, Note_on_c, 0, 60, 97
2, 44555, Note_on_c, 0, 49, 91
2, 44561, Note_on_c, 0, 44, 85
2, 44620, Control_c, 0, 64, 127
2, 44766, Note_on_c, 0, 37, 0
2, 44770, Note_on_c, 0, 37, 71
2, 44866, Note_on_c, 0, 60, 0
2, 44870, Note_on_c, 0, 60, 86
2, 44901, Note_on_c, 0, 53, 82
2, 44904, Note_on_c, 0, 44, 0
2, 44908, Note_on_c, 0, 44, 83
2, 44982, Note_on_c, 0, 37, 0
2, 44982, Note_on_c, 0, 60, 0
2, 44993, Control_c, 0, 64, 0
2, 44997, Note_on_c, 0, 25, 0
2, 45009, Note_on_c, 0, 82, 91
2, 45009, Note_on_c, 0, 70, 107
2, 45012, Note_on_c, 0, 49, 0
2, 45012, Note_on_c, 0, 65, 0
2, 45012, Note_on_c, 0, 68, 0
2, 45020, Note_on_c, 0, 72, 0
2, 45027, Note_on_c, 0, 53, 0
2, 45228, Note_on_c, 0, 37, 85
2, 45250, Control_c, 0, 64, 127
2, 45339, Note_on_c, 0, 72, 102
2, 45442, Note_on_c, 0, 44, 0
2, 45450, Note_on_c, 0, 37, 0
2, 45450, Note_on_c, 0, 44, 95
2, 45451, Note_on_c, 0, 53, 102
2, 45456, Note_on_c, 0, 37, 79
2, 45573, Note_on_c, 0, 37, 0
2, 45577, Note_on_c, 0, 37, 74
2, 45672, Note_on_c, 0, 44, 0
2, 45672, Note_on_c, 0, 72, 0
2, 45679, Note_on_c, 0, 75, 96
2, 45681, Note_on_c, 0, 44, 76
2, 45683, Note_on_c, 0, 72, 81
2, 45838, Note_on_c, 0, 72, 0
2, 45838, Note_on_c, 0, 53, 0
2, 45838, Note_on_c, 0, 37, 0
2, 45838, Note_on_c, 0, 44, 0
2, 45839, Note_on_c, 0, 70, 0
2, 45839, Note_on_c, 0, 75, 0
2, 45840, Control_c, 0, 64, 0
2, 45857, Note_on_c, 0, 82, 0
2, 45899, Note_on_c, 0, 70, 102
2, 45900, Note_on_c, 0, 63, 92
2, 45904, Note_on_c, 0, 67, 87
2, 45906, Note_on_c, 0, 36, 90
2, 45911, Note_on_c, 0, 24, 87
2, 45914, Note_on_c, 0, 25, 93
2, 45957, Control_c, 0, 64, 127
2, 45995, Note_on_c, 0, 24, 0
2, 46003, Note_on_c, 0, 25, 0
2, 46006, Note_on_c, 0, 24, 72
2, 46007, Note_on_c, 0, 25, 83
2, 46126, Note_on_c, 0, 67, 0
2, 46131, Note_on_c, 0, 67, 94
2, 46241, Note_on_c, 0, 63, 0
2, 46245, Note_on_c, 0, 63, 102
2, 46361, Note_on_c, 0, 51, 99
2, 46370, Note_on_c, 0, 43, 65
2, 46571, Note_on_c, 0, 25, 0
2, 46571, Note_on_c, 0, 36, 0
2, 46576, Note_on_c, 0, 36, 77
2, 46619, Note_on_c, 0, 67, 0
2, 46620, Note_on_c, 0, 63, 0
2, 46620, Note_on_c, 0, 51, 0
2, 46621, Control_c, 0, 64, 0
2, 46621, Note_on_c, 0, 70, 0
2, 46625, Note_on_c, 0, 43, 0
2, 46632, Note_on_c, 0, 24, 0
2, 46671, Note_on_c, 0, 36, 0
2, 46704, Note_on_c, 0, 60, 94
2, 46706, Note_on_c, 0, 51, 96
2, 46710, Note_on_c, 0, 43, 77
2, 46771, Control_c, 0, 64, 127
2, 46915, Note_on_c, 0, 58, 83
2, 47023, Note_on_c, 0, 55, 94
2, 47076, Control_c, 0, 64, 0
2, 47086, Control_c, 0, 64, 127
2, 47132, Note_on_c, 0, 51, 0
2, 47143, Note_on_c, 0, 51, 93
2, 47250, Note_on_c, 0, 48, 93
2, 47351, Note_on_c, 0, 36, 86
2, 47409, Control_c, 0, 64, 0
2, 47431, Control_c, 0, 64, 127
2, 47467, Note_on_c, 0, 63, 98
2, 47600, Note_on_c, 0, 43, 0
2, 47605, Note_on_c, 0, 31, 65
2, 47608, Note_on_c, 0, 43, 71
2, 47616, Note_on_c, 0, 31, 0
2, 47617, Control_c, 0, 64, 0
2, 47619, Note_on_c, 0, 63, 0
2, 47619, Note_on_c, 0, 48, 0
2, 47620, Note_on_c, 0, 36, 0
2, 47623, Note_on_c, 0, 58, 0
2, 47631, Note_on_c, 0, 51, 0
2, 47631, Note_on_c, 0, 55, 0
2, 47631, Note_on_c, 0, 60, 0
2, 47654, Note_on_c, 0, 43, 0
2, 47703, Note_on_c, 0, 65, 96
2, 47705, Note_on_c, 0, 46, 99
2, 47706, Note_on_c, 0, 34, 92
2, 47754, Control_c, 0, 64, 127
2, 47925, Note_on_c, 0, 72, 99
2, 48038, Note_on_c, 0, 72, 0
2, 48042, Note_on_c, 0, 72, 103
2, 48145, Note_on_c, 0, 72, 0
2, 48153, Note_on_c, 0, 65, 0
2, 48153, Note_on_c, 0, 72, 81
2, 48155, Note_on_c, 0, 56, 79
2, 48155, Note_on_c, 0, 53, 78
2, 48157, Note_on_c, 0, 65, 71
2, 48278, Note_on_c, 0, 70, 88
2, 48399, Note_on_c, 0, 72, 0
2, 48407, Note_on_c, 0, 65, 0
2, 48407, Note_on_c, 0, 72, 99
2, 48413, Note_on_c, 0, 65, 78
2, 48413, Note_on_c, 0, 68, 87
2, 48414, Note_on_c, 0, 60, 85
2, 48465, Control_c, 0, 64, 0
2, 48468, Note_on_c, 0, 46, 0
2, 48476, Note_on_c, 0, 53, 0
2, 48476, Note_on_c, 0, 46, 97
2, 48499, Control_c, 0, 64, 127
2, 48679, Control_c, 0, 64, 0
2, 48691, Note_on_c, 0, 70, 0
2, 48698, Note_on_c, 0, 34, 0
2, 48710, Note_on_c, 0, 34, 81
2, 48744, Control_c, 0, 64, 127
2, 48829, Note_on_c, 0, 46, 0
2, 48834, Note_on_c, 0, 46, 84
2, 48936, Note_on_c, 0, 34, 0
2, 48940, Note_on_c, 0, 34, 77
2, 49059, Note_on_c, 0, 56, 0
2, 49067, Note_on_c, 0, 56, 97
2, 49068, Note_on_c, 0, 53, 90
2, 49274, Note_on_c, 0, 34, 0
2, 49280, Note_on_c, 0, 34, 88
2, 49285, Note_on_c, 0, 63, 93
2, 49382, Note_on_c, 0, 46, 0
2, 49393, Note_on_c, 0, 46, 77
2, 49462, Note_on_c, 0, 46, 0
2, 49462, Note_on_c, 0, 34, 0
2, 49462, Control_c, 0, 64, 0
2, 49462, Note_on_c, 0, 63, 0
2, 49463, Note_on_c, 0, 53, 0
2, 49489, Note_on_c, 0, 56, 0
2, 49489, Note_on_c, 0, 68, 0
2, 49505, Note_on_c, 0, 65, 0
2, 49508, Note_on_c, 0, 48, 96
2, 49508, Note_on_c, 0, 36, 93
2, 49511, Note_on_c, 0, 64, 83
2, 49514, Note_on_c, 0, 65, 91
2, 49520, Note_on_c, 0, 64, 0
2, 49533, Note_on_c, 0, 48, 0
2, 49551, Note_on_c, 0, 60, 0
2, 49574, Note_on_c, 0, 36, 0
2, 49574, Control_c, 0, 64, 127
2, 49614, Note_on_c, 0, 48, 86
2, 49735, Note_on_c, 0, 72, 0
2, 49744, Note_on_c, 0, 72, 98
2, 49843, Note_on_c, 0, 72, 0
2, 49848, Note_on_c, 0, 72, 98
2, 49877, Note_on_c, 0, 36, 58
2, 49961, Note_on_c, 0, 55, 94
2, 49962, Note_on_c, 0, 51, 86
2, 50073, Note_on_c, 0, 48, 0
2, 50084, Note_on_c, 0, 48, 66
2, 50085, Note_on_c, 0, 70, 94
2, 50188, Note_on_c, 0, 72, 0
2, 50199, Note_on_c, 0, 72, 101
2, 50201, Note_on_c, 0, 60, 88
2, 50202, Note_on_c, 0, 67, 95
2, 50203, Note_on_c, 0, 63, 91
2, 50302, Control_c, 0, 64, 0
2, 50306, Note_on_c, 0, 51, 0
2, 50307, Note_on_c, 0, 65, 0
2, 50308, Note_on_c, 0, 70, 0
2, 50311, Note_on_c, 0, 36, 0
2, 50311, Note_on_c, 0, 48, 0
2, 50321, Note_on_c, 0, 48, 93
2, 50321, Note_on_c, 0, 36, 95
2, 50388, Control_c, 0, 64, 127
2, 50464, Note_on_c, 0, 46, 18
2, 50465, Note_on_c, 0, 48, 0
2, 50472, Note_on_c, 0, 46, 0
2, 50476, Note_on_c, 0, 48, 38
2, 50549, Note_on_c, 0, 36, 0
2, 50554, Note_on_c, 0, 36, 87
2, 50680, Note_on_c, 0, 48, 0
2, 50690, Note_on_c, 0, 48, 82
2, 50757, Note_on_c, 0, 36, 0
2, 50760, Note_on_c, 0, 36, 61
2, 50887, Note_on_c, 0, 63, 0
2, 50895, Note_on_c, 0, 75, 108
2, 50895, Note_on_c, 0, 55, 0
2, 50895, Note_on_c, 0, 67, 0
2, 50898, Note_on_c, 0, 63, 101
2, 50899, Note_on_c, 0, 67, 87
2, 50906, Note_on_c, 0, 55, 95
2, 50907, Note_on_c, 0, 51, 89
2, 51041, Note_on_c, 0, 75, 0
2, 51046, Note_on_c, 0, 75, 78
2, 51102, Note_on_c, 0, 36, 0
2, 51106, Note_on_c, 0, 36, 80
2, 51202, Note_on_c, 0, 48, 0
2, 51207, Note_on_c, 0, 48, 75
2, 51290, Note_on_c, 0, 67, 0
2, 51290, Note_on_c, 0, 48, 0
2, 51290, Control_c, 0, 64, 0
2, 51290, Note_on_c, 0, 55, 0
2, 51290, Note_on_c, 0, 63, 0
2, 51290, Note_on_c, 0, 75, 0
2, 51290, Note_on_c, 0, 36, 0
2, 51291, Note_on_c, 0, 51, 0
2, 51302, Note_on_c, 0, 60, 0
2, 51302, Note_on_c, 0, 72, 0
2, 51350, Note_on_c, 0, 70, 111
2, 51351, Note_on_c, 0, 82, 104
2, 51351, Note_on_c, 0, 49, 97
2, 51352, Note_on_c, 0, 37, 95
2, 51353, Note_on_c, 0, 60, 96
2, 51402, Control_c, 0, 64, 127
2, 51686, Note_on_c, 0, 37, 0
2, 51686, Note_on_c, 0, 49, 0
2, 51690, Note_on_c, 0, 37, 75
2, 51691, Note_on_c, 0, 49, 74
2, 51808, Note_on_c, 0, 56, 97
2, 51812, Note_on_c, 0, 53, 89
2, 51813, Note_on_c, 0, 41, 75
2, 52028, Note_on_c, 0, 72, 100
2, 52119, Note_on_c, 0, 41, 0
2, 52122, Note_on_c, 0, 56, 0
2, 52122, Note_on_c, 0, 53, 0
2, 52124, Note_on_c, 0, 70, 0
2, 52125, Note_on_c, 0, 60, 0
2, 52129, Control_c, 0, 64, 0
2, 52131, Note_on_c, 0, 37, 0
2, 52131, Note_on_c, 0, 49, 0
2, 52131, Note_on_c, 0, 82, 0
2, 52142, Note_on_c, 0, 37, 95
2, 52143, Note_on_c, 0, 49, 87
2, 52189, Note_on_c, 0, 37, 0
2, 52190, Note_on_c, 0, 49, 0
2, 52193, Control_c, 0, 64, 127
2, 52257, Note_on_c, 0, 65, 96
2, 52385, Note_on_c, 0, 65, 0
2, 52388, Note_on_c, 0, 37, 96
2, 52390, Note_on_c, 0, 65, 79
2, 52390, Note_on_c, 0, 49, 86
2, 52500, Note_on_c, 0, 37, 0
2, 52500, Note_on_c, 0, 49, 0
2, 52506, Note_on_c, 0, 49, 68
2, 52510, Note_on_c, 0, 37, 73
2, 52608, Note_on_c, 0, 37, 0
2, 52615, Note_on_c, 0, 37, 80
2, 52661, Note_on_c, 0, 39, 28
2, 52669, Note_on_c, 0, 39, 0
2, 52721, Control_c, 0, 64, 0
2, 52738, Note_on_c, 0, 65, 0
2, 52740, Note_on_c, 0, 75, 110
2, 52743, Note_on_c, 0, 68, 93
2, 52745, Note_on_c, 0, 56, 99
2, 52746, Note_on_c, 0, 37, 0
2, 52748, Note_on_c, 0, 53, 92
2, 52749, Note_on_c, 0, 65, 93
2, 52751, Note_on_c, 0, 37, 90
2, 52753, Control_c, 0, 64, 127
2, 52953, Note_on_c, 0, 37, 0
2, 52964, Note_on_c, 0, 37, 79
2, 53061, Note_on_c, 0, 49, 0
2, 53065, Note_on_c, 0, 49, 69
2, 53114, Note_on_c, 0, 72, 0
2, 53126, Note_on_c, 0, 56, 0
2, 53126, Note_on_c, 0, 68, 0
2, 53126, Note_on_c, 0, 65, 0
2, 53126, Note_on_c, 0, 53, 0
2, 53127, Note_on_c, 0, 49, 0
2, 53127, Note_on_c, 0, 75, 0
2, 53127, Note_on_c, 0, 37, 0
2, 53129, Control_c, 0, 64, 0
2, 53204, Note_on_c, 0, 70, 104
2, 53205, Note_on_c, 0, 82, 98
2, 53206, Note_on_c, 0, 63, 97
2, 53208, Note_on_c, 0, 51, 103
2, 53209, Note_on_c, 0, 67, 95
2, 53209, Note_on_c, 0, 39, 93
2, 53209, Note_on_c, 0, 79, 87
2, 53209, Note_on_c, 0, 75, 92
2, 53237, Control_c, 0, 64, 127
2, 53306, Note_on_c, 0, 75, 0
2, 53506, Note_on_c, 0, 39, 0
2, 53511, Note_on_c, 0, 39, 67
2, 53514, Note_on_c, 0, 51, 0
2, 53523, Note_on_c, 0, 51, 68
2, 53544, Note_on_c, 0, 70, 0
2, 53552, Note_on_c, 0, 63, 0
2, 53554, Note_on_c, 0, 70, 96
2, 53557, Note_on_c, 0, 63, 87
2, 53675, Note_on_c, 0, 51, 0
2, 53679, Note_on_c, 0, 55, 99
2, 53685, Note_on_c, 0, 46, 83
2, 53687, Note_on_c, 0, 51, 83
2, 53879, Note_on_c, 0, 72, 101
2, 53982, Note_on_c, 0, 39, 0
2, 53982, Note_on_c, 0, 51, 0
2, 53982, Note_on_c, 0, 79, 0
2, 53987, Note_on_c, 0, 39, 91
2, 53992, Note_on_c, 0, 51, 79
2, 54028, Note_on_c, 0, 82, 0
2, 54039, Note_on_c, 0, 46, 0
2, 54039, Note_on_c, 0, 55, 0
2, 54039, Note_on_c, 0, 72, 0
2, 54039, Note_on_c, 0, 51, 0
2, 54040, Note_on_c, 0, 70, 0
2, 54040, Note_on_c, 0, 63, 0
2, 54044, Control_c, 0, 64, 0
2, 54051, Note_on_c, 0, 67, 0
2, 54107, Note_on_c, 0, 51, 93
2, 54111, Note_on_c, 0, 72, 102
2, 54116, Note_on_c, 0, 63, 95
2, 54116, Note_on_c, 0, 67, 92
2, 54119, Note_on_c, 0, 60, 85
2, 54128, Control_c, 0, 64, 127
2, 54339, Note_on_c, 0, 48, 104
2, 54339, Note_on_c, 0, 36, 99
2, 54566, Note_on_c, 0, 48, 0
2, 54566, Note_on_c, 0, 60, 0
2, 54566, Note_on_c, 0, 63, 0
2, 54573, Note_on_c, 0, 60, 77
2, 54574, Note_on_c, 0, 67, 0
2, 54576, Note_on_c, 0, 48, 86
2, 54576, Note_on_c, 0, 63, 88
2, 54585, Note_on_c, 0, 67, 80
2, 54597, Note_on_c, 0, 51, 0
2, 54604, Note_on_c, 0, 51, 69
2, 54622, Note_on_c, 0, 70, 79
2, 54704, Note_on_c, 0, 72, 0
2, 54711, Note_on_c, 0, 72, 74
2, 54758, Note_on_c, 0, 51, 0
2, 54758, Note_on_c, 0, 63, 0
2, 54767, Note_on_c, 0, 51, 80
2, 54768, Note_on_c, 0, 63, 83
2, 54769, Note_on_c, 0, 75, 80
2, 54796, Note_on_c, 0, 60, 0
2, 54806, Note_on_c, 0, 60, 69
2, 54809, Note_on_c, 0, 82, 97
2, 54881, Note_on_c, 0, 53, 69
2, 55034, Note_on_c, 0, 60, 0
2, 55035, Note_on_c, 0, 36, 0
2, 55035, Note_on_c, 0, 63, 0
2, 55037, Control_c, 0, 64, 0
2, 55037, Note_on_c, 0, 82, 0
2, 55037, Note_on_c, 0, 70, 0
2, 55050, Note_on_c, 0, 48, 0
2, 55050, Note_on_c, 0, 51, 0
2, 55050, Note_on_c, 0, 53, 0
2, 55050, Note_on_c, 0, 67, 0
2, 55050, Note_on_c, 0, 72, 0
2, 55052, Note_on_c, 0, 79, 109
2, 55055, Note_on_c, 0, 67, 103
2, 55056, Note_on_c, 0, 72, 97
2, 55057, Note_on_c, 0, 39, 0
2, 55057, Note_on_c, 0, 75, 0
2, 55060, Note_on_c, 0, 53, 107
2, 55060, Note_on_c, 0, 48, 100
2, 55061, Note_on_c, 0, 41, 100
2, 55061, Note_on_c, 0, 75, 95
2, 55100, Note_on_c, 0, 53, 0
2, 55119, Control_c, 0, 64, 127
2, 55316, Note_on_c, 0, 53, 85
2, 55518, Note_on_c, 0, 53, 0
2, 55521, Note_on_c, 0, 65, 98
2, 55522, Note_on_c, 0, 60, 93
2, 55522, Note_on_c, 0, 56, 95
2, 55523, Note_on_c, 0, 53, 88
2, 55733, Note_on_c, 0, 41, 0
2, 55745, Note_on_c, 0, 41, 71
2, 55864, Note_on_c, 0, 56, 0
2, 55864, Note_on_c, 0, 60, 0
2, 55872, Note_on_c, 0, 60, 93
2, 55875, Note_on_c, 0, 56, 89
2, 55983, Note_on_c, 0, 77, 105
2, 56209, Note_on_c, 0, 53, 0
2, 56209, Note_on_c, 0, 60, 0
2, 56218, Note_on_c, 0, 53, 78
2, 56220, Note_on_c, 0, 60, 66
2, 56337, Note_on_c, 0, 94, 102
2, 56337, Note_on_c, 0, 82, 109
2, 56344, Note_on_c, 0, 70, 101
2, 56348, Note_on_c, 0, 94, 0
2, 56355, Note_on_c, 0, 65, 0
2, 56359, Note_on_c, 0, 65, 72
2, 56440, Note_on_c, 0, 56, 0
2, 56440, Note_on_c, 0, 60, 0
2, 56444, Note_on_c, 0, 56, 94
2, 56445, Note_on_c, 0, 60, 94
2, 56547, Note_on_c, 0, 53, 0
2, 56547, Note_on_c, 0, 56, 0
2, 56552, Note_on_c, 0, 53, 84
2, 56554, Note_on_c, 0, 56, 79
2, 56663, Note_on_c, 0, 56, 0
2, 56663, Note_on_c, 0, 60, 0
2, 56669, Note_on_c, 0, 60, 86
2, 56669, Note_on_c, 0, 80, 105
2, 56673, Note_on_c, 0, 56, 86
2, 56674, Note_on_c, 0, 68, 96
2, 56841, Note_on_c, 0, 41, 0
2, 56842, Note_on_c, 0, 48, 0
2, 56843, Note_on_c, 0, 56, 0
2, 56843, Note_on_c, 0, 53, 0
2, 56843, Note_on_c, 0, 65, 0
2, 56843, Note_on_c, 0, 70, 0
2, 56843, Note_on_c, 0, 82, 0
2, 56843, Note_on_c, 0, 67, 0
2, 56843, Note_on_c, 0, 60, 0
2, 56843, Note_on_c, 0, 75, 0
2, 56843, Note_on_c, 0, 79, 0
2, 56843, Note_on_c, 0, 77, 0
2, 56843, Note_on_c, 0, 80, 0
2, 56843, Note_on_c, 0, 68, 0
2, 56844, Note_on_c, 0, 72, 0
2, 56845, Control_c, 0, 64, 0
2, 56899, Note_on_c, 0, 51, 104
2, 56899, Note_on_c, 0, 39, 99
2, 56900, Note_on_c, 0, 79, 105
2, 56904, Note_on_c, 0, 67, 100
2, 56904, Note_on_c, 0, 72, 101
2, 56904, Note_on_c, 0, 75, 96
2, 56970, Control_c, 0, 64, 127
2, 57000, Note_on_c, 0, 51, 0
2, 57012, Note_on_c, 0, 51, 96
2, 57254, Note_on_c, 0, 51, 0
2, 57265, Note_on_c, 0, 51, 69
2, 57359, Note_on_c, 0, 60, 96
2, 57362, Note_on_c, 0, 55, 98
2, 57561, Note_on_c, 0, 51, 0
2, 57572, Note_on_c, 0, 51, 99
2, 57676, Note_on_c, 0, 55, 0
2, 57676, Note_on_c, 0, 60, 0
2, 57685, Note_on_c, 0, 60, 89
2, 57687, Note_on_c, 0, 55, 79
2, 57813, Note_on_c, 0, 77, 108
2, 57815, Note_on_c, 0, 65, 103
2, 58007, Note_on_c, 0, 39, 0
2, 58007, Note_on_c, 0, 51, 0
2, 58014, Note_on_c, 0, 39, 86
2, 58014, Note_on_c, 0, 51, 80
2, 58168, Note_on_c, 0, 67, 0
2, 58168, Note_on_c, 0, 79, 0
2, 58174, Note_on_c, 0, 79, 105
2, 58176, Note_on_c, 0, 67, 101
2, 58291, Note_on_c, 0, 55, 0
2, 58291, Note_on_c, 0, 60, 0
2, 58295, Note_on_c, 0, 60, 88
2, 58296, Note_on_c, 0, 55, 86
2, 58398, Note_on_c, 0, 51, 0
2, 58405, Note_on_c, 0, 51, 87
2, 58506, Note_on_c, 0, 55, 0
2, 58506, Note_on_c, 0, 60, 0
2, 58510, Note_on_c, 0, 60, 86
2, 58510, Note_on_c, 0, 55, 89
2, 58510, Note_on_c, 0, 87, 103
2, 58513, Note_on_c, 0, 75, 0
2, 58516, Note_on_c, 0, 79, 0
2, 58517, Note_on_c, 0, 75, 101
2, 58684, Note_on_c, 0, 39, 0
2, 58684, Control_c, 0, 64, 0
2, 58684, Note_on_c, 0, 51, 0
2, 58684, Note_on_c, 0, 55, 0
2, 58684, Note_on_c, 0, 60, 0
2, 58685, Note_on_c, 0, 87, 0
2, 58685, Note_on_c, 0, 67, 0
2, 58685, Note_on_c, 0, 65, 0
2, 58685, Note_on_c, 0, 77, 0
2, 58685, Note_on_c, 0, 72, 0
2, 58685, Note_on_c, 0, 75, 0
2, 58727, Note_on_c, 0, 49, 102
2, 58730, Note_on_c, 0, 37, 101
2, 58731, Note_on_c, 0, 84, 109
2, 58731, Note_on_c, 0, 48, 98
2, 58733, Note_on_c, 0, 77, 97
2, 58734, Note_on_c, 0, 72, 103
2, 58740, Note_on_c, 0, 80, 93
2, 58767, Note_on_c, 0, 48, 0
2, 58782, Note_on_c, 0, 49, 0
2, 58790, Control_c, 0, 64, 127
2, 58836, Note_on_c, 0, 37, 0
2, 58846, Note_on_c, 0, 37, 64
2, 58847, Note_on_c, 0, 49, 67
2, 59082, Note_on_c, 0, 49, 0
2, 59088, Note_on_c, 0, 49, 70
2, 59192, Note_on_c, 0, 53, 92
2, 59192, Note_on_c, 0, 60, 97
2, 59193, Note_on_c, 0, 56, 90
2, 59404, Note_on_c, 0, 49, 0
2, 59410, Note_on_c, 0, 49, 91
2, 59504, Note_on_c, 0, 53, 0
2, 59504, Note_on_c, 0, 60, 0
2, 59512, Note_on_c, 0, 56, 0
2, 59515, Note_on_c, 0, 53, 87
2, 59515, Note_on_c, 0, 60, 84
2, 59519, Note_on_c, 0, 56, 69
2, 59660, Note_on_c, 0, 82, 109
2, 59662, Note_on_c, 0, 70, 105
2, 59857, Note_on_c, 0, 37, 0
2, 59864, Note_on_c, 0, 37, 78
2, 59988, Note_on_c, 0, 72, 0
2, 59988, Note_on_c, 0, 84, 0
2, 59994, Note_on_c, 0, 84, 109
2, 59996, Note_on_c, 0, 72, 101
2, 60103, Note_on_c, 0, 60, 0
2, 60111, Note_on_c, 0, 53, 0
2, 60111, Note_on_c, 0, 56, 0
2, 60114, Note_on_c, 0, 60, 97
2, 60115, Note_on_c, 0, 56, 89
2, 60116, Note_on_c, 0, 53, 89
2, 60211, Note_on_c, 0, 49, 0
2, 60217, Note_on_c, 0, 49, 82
2, 60322, Note_on_c, 0, 87, 105
2, 60353, Note_on_c, 0, 75, 74
2, 60518, Control_c, 0, 64, 0
2, 60521, Note_on_c, 0, 87, 0
2, 60521, Note_on_c, 0, 49, 0
2, 60521, Note_on_c, 0, 53, 0
2, 60521, Note_on_c, 0, 84, 0
2, 60521, Note_on_c, 0, 56, 0
2, 60521, Note_on_c, 0, 60, 0
2, 60521, Note_on_c, 0, 80, 0
2, 60521, Note_on_c, 0, 72, 0
2, 60521, Note_on_c, 0, 75, 0
2, 60521, Note_on_c, 0, 77, 0
2, 60522, Note_on_c, 0, 37, 0
2, 60541, Note_on_c, 0, 70, 0
2, 60541, Note_on_c, 0, 82, 0
2, 60541, Note_on_c, 0, 48, 104
2, 60545, Note_on_c, 0, 36, 99
2, 60545, Note_on_c, 0, 82, 106
2, 60546, Note_on_c, 0, 70, 102
2, 60587, Control_c, 0, 64, 127
2, 60778, Note_on_c, 0, 91, 105
2, 60783, Note_on_c, 0, 79, 89
2, 60883, Note_on_c, 0, 87, 104
2, 60887, Note_on_c, 0, 75, 98
2, 61002, Note_on_c, 0, 48, 0
2, 61005, Note_on_c, 0, 60, 96
2, 61006, Note_on_c, 0, 55, 96
2, 61009, Note_on_c, 0, 48, 85
2, 61011, Note_on_c, 0, 51, 88
2, 61201, Note_on_c, 0, 48, 0
2, 61212, Note_on_c, 0, 48, 83
2, 61324, Note_on_c, 0, 48, 0
2, 61324, Note_on_c, 0, 60, 0
2, 61334, Note_on_c, 0, 48, 88
2, 61335, Note_on_c, 0, 84, 105
2, 61336, Note_on_c, 0, 60, 90
2, 61337, Note_on_c, 0, 72, 96
2, 61486, Note_on_c, 0, 82, 0
2, 61496, Note_on_c, 0, 82, 89
2, 61497, Note_on_c, 0, 94, 76
2, 61501, Note_on_c, 0, 94, 0
2, 61562, Note_on_c, 0, 79, 0
2, 61578, Note_on_c, 0, 75, 0
2, 61584, Note_on_c, 0, 75, 89
2, 61601, Note_on_c, 0, 84, 0
2, 61608, Note_on_c, 0, 72, 0
2, 61612, Note_on_c, 0, 84, 74
2, 61617, Note_on_c, 0, 72, 67
2, 61708, Note_on_c, 0, 72, 0
2, 61719, Note_on_c, 0, 72, 65
2, 61745, Note_on_c, 0, 66, 59
2, 61748, Note_on_c, 0, 67, 73
2, 61754, Note_on_c, 0, 66, 0
2, 61780, Note_on_c, 0, 63, 81
2, 61824, Note_on_c, 0, 60, 0
2, 61829, Note_on_c, 0, 60, 89
2, 61831, Note_on_c, 0, 55, 0
2, 61836, Note_on_c, 0, 55, 92
2, 62000, Note_on_c, 0, 60, 0
2, 62005, Note_on_c, 0, 60, 61
2, 62046, Note_on_c, 0, 36, 0
2, 62055, Note_on_c, 0, 36, 63
2, 62077, Note_on_c, 0, 63, 0
2, 62077, Note_on_c, 0, 75, 0
2, 62086, Note_on_c, 0, 75, 102
2, 62087, Note_on_c, 0, 63, 92
2, 62169, Note_on_c, 0, 48, 0
2, 62174, Note_on_c, 0, 48, 77
2, 62246, Control_c, 0, 64, 0
2, 62249, Note_on_c, 0, 48, 0
2, 62249, Note_on_c, 0, 63, 0
2, 62249, Note_on_c, 0, 82, 0
2, 62249, Note_on_c, 0, 51, 0
2, 62249, Note_on_c, 0, 67, 0
2, 62249, Note_on_c, 0, 70, 0
2, 62249, Note_on_c, 0, 55, 0
2, 62249, Note_on_c, 0, 36, 0
2, 62249, Note_on_c, 0, 60, 0
2, 62249, Note_on_c, 0, 75, 0
2, 62250, Note_on_c, 0, 84, 0
2, 62250, Note_on_c, 0, 72, 0
2, 62250, Note_on_c, 0, 91, 0
2, 62250, Note_on_c, 0, 87, 0
2, 62311, Note_on_c, 0, 77, 103
2, 62312, Note_on_c, 0, 65, 103
2, 62317, Note_on_c, 0, 46, 99
2, 62318, Note_on_c, 0, 34, 93
2, 62346, Control_c, 0, 64, 127
2, 62541, Note_on_c, 0, 84, 100
2, 62547, Note_on_c, 0, 72, 87
2, 62645, Note_on_c, 0, 72, 0
2, 62645, Note_on_c, 0, 84, 0
2, 62650, Note_on_c, 0, 84, 104
2, 62651, Note_on_c, 0, 72, 90
2, 62780, Note_on_c, 0, 56, 77
2, 62782, Note_on_c, 0, 53, 70
2, 62883, Note_on_c, 0, 72, 0
2, 62884, Note_on_c, 0, 82, 96
2, 62886, Note_on_c, 0, 94, 84
2, 62889, Note_on_c, 0, 72, 79
2, 62891, Note_on_c, 0, 94, 0
2, 62991, Note_on_c, 0, 84, 0
2, 62999, Note_on_c, 0, 72, 0
2, 63002, Note_on_c, 0, 84, 108
2, 63010, Note_on_c, 0, 72, 88
2, 63011, Note_on_c, 0, 75, 93
2, 63106, Note_on_c, 0, 34, 0
2, 63106, Note_on_c, 0, 46, 0
2, 63110, Note_on_c, 0, 46, 91
2, 63111, Note_on_c, 0, 34, 89
2, 63329, Note_on_c, 0, 72, 0
2, 63335, Note_on_c, 0, 72, 80
2, 63338, Note_on_c, 0, 60, 74
2, 63429, Note_on_c, 0, 60, 0
2, 63429, Note_on_c, 0, 72, 0
2, 63433, Note_on_c, 0, 72, 86
2, 63439, Note_on_c, 0, 60, 81
2, 63452, Note_on_c, 0, 46, 0
2, 63458, Note_on_c, 0, 46, 93
2, 63557, Note_on_c, 0, 70, 98
2, 63571, Note_on_c, 0, 58, 75
2, 63667, Note_on_c, 0, 72, 0
2, 63673, Note_on_c, 0, 72, 105
2, 63674, Note_on_c, 0, 60, 0
2, 63682, Note_on_c, 0, 56, 0
2, 63682, Note_on_c, 0, 65, 0
2, 63684, Note_on_c, 0, 60, 90
2, 63685, Note_on_c, 0, 68, 88
2, 63688, Note_on_c, 0, 56, 94
2, 63690, Note_on_c, 0, 53, 0
2, 63691, Note_on_c, 0, 65, 80
2, 63694, Note_on_c, 0, 53, 82
2, 63782, Note_on_c, 0, 46, 0
2, 63790, Note_on_c, 0, 46, 94
2, 63912, Note_on_c, 0, 34, 0
2, 63912, Note_on_c, 0, 75, 0
2, 63920, Note_on_c, 0, 68, 0
2, 63922, Note_on_c, 0, 75, 107
2, 63922, Note_on_c, 0, 34, 96
2, 63923, Note_on_c, 0, 60, 0
2, 63924, Note_on_c, 0, 56, 0
2, 63925, Note_on_c, 0, 63, 91
2, 63931, Note_on_c, 0, 68, 84
2, 64065, Control_c, 0, 64, 0
2, 64065, Note_on_c, 0, 46, 0
2, 64065, Note_on_c, 0, 82, 0
2, 64065, Note_on_c, 0, 34, 0
2, 64066, Note_on_c, 0, 63, 0
2, 64066, Note_on_c, 0, 58, 0
2, 64066, Note_on_c, 0, 70, 0
2, 64066, Note_on_c, 0, 68, 0
2, 64066, Note_on_c, 0, 53, 0
2, 64066, Note_on_c, 0, 72, 0
2, 64067, Note_on_c, 0, 65, 0
2, 64067, Note_on_c, 0, 75, 0
2, 64067, Note_on_c, 0, 77, 0
2, 64081, Note_on_c, 0, 84, 0
2, 64145, Note_on_c, 0, 77, 109
2, 64146, Note_on_c, 0, 65, 107
2, 64147, Note_on_c, 0, 48, 101
2, 64148, Note_on_c, 0, 36, 96
2, 64197, Control_c, 0, 64, 127
2, 64375, Note_on_c, 0, 84, 100
2, 64394, Note_on_c, 0, 72, 68
2, 64473, Note_on_c, 0, 72, 0
2, 64473, Note_on_c, 0, 84, 0
2, 64482, Note_on_c, 0, 84, 108
2, 64482, Note_on_c, 0, 72, 98
2, 64588, Note_on_c, 0, 48, 0
2, 64591, Note_on_c, 0, 60, 83
2, 64593, Note_on_c, 0, 51, 83
2, 64594, Note_on_c, 0, 55, 67
2, 64596, Note_on_c, 0, 48, 74
2, 64715, Note_on_c, 0, 82, 98
2, 64718, Note_on_c, 0, 94, 86
2, 64727, Note_on_c, 0, 94, 0
2, 64826, Note_on_c, 0, 72, 0
2, 64826, Note_on_c, 0, 84, 0
2, 64832, Note_on_c, 0, 84, 108
2, 64834, Note_on_c, 0, 48, 0
2, 64837, Note_on_c, 0, 79, 94
2, 64838, Note_on_c, 0, 72, 97
2, 64841, Note_on_c, 0, 75, 96
2, 64841, Note_on_c, 0, 48, 77
2, 64896, Note_on_c, 0, 48, 0
2, 64902, Note_on_c, 0, 48, 85
2, 64903, Note_on_c, 0, 36, 0
2, 64910, Note_on_c, 0, 36, 87
2, 65141, Note_on_c, 0, 48, 0
2, 65141, Note_on_c, 0, 60, 0
2, 65145, Note_on_c, 0, 60, 74
2, 65147, Note_on_c, 0, 48, 58
2, 65226, Note_on_c, 0, 48, 0
2, 65226, Note_on_c, 0, 60, 0
2, 65230, Note_on_c, 0, 60, 90
2, 65231, Note_on_c, 0, 48, 74
2, 65350, Note_on_c, 0, 58, 94
2, 65448, Note_on_c, 0, 60, 0
2, 65452, Note_on_c, 0, 60, 99
2, 65456, Note_on_c, 0, 36, 0
2, 65464, Note_on_c, 0, 75, 0
2, 65465, Note_on_c, 0, 99, 108
2, 65466, Note_on_c, 0, 36, 74
2, 65467, Note_on_c, 0, 87, 111
2, 65471, Note_on_c, 0, 75, 106
2, 65472, Note_on_c, 0, 99, 0
2, 65579, Note_on_c, 0, 36, 0
2, 65579, Note_on_c, 0, 48, 0
2, 65583, Note_on_c, 0, 48, 84
2, 65589, Note_on_c, 0, 36, 66
2, 65679, Note_on_c, 0, 48, 0
2, 65679, Note_on_c, 0, 55, 0
2, 65687, Note_on_c, 0, 36, 0
2, 65687, Note_on_c, 0, 55, 102
2, 65690, Note_on_c, 0, 48, 81
2, 65692, Note_on_c, 0, 36, 81
2, 65756, Note_on_c, 0, 48, 0
2, 65764, Note_on_c, 0, 48, 83
2, 65892, Control_c, 0, 64, 0
2, 65897, Note_on_c, 0, 48, 0
2, 65897, Note_on_c, 0, 82, 0
2, 65897, Note_on_c, 0, 65, 0
2, 65898, Note_on_c, 0, 60, 0
2, 65898, Note_on_c, 0, 51, 0
2, 65898, Note_on_c, 0, 58, 0
2, 65898, Note_on_c, 0, 72, 0
2, 65898, Note_on_c, 0, 75, 0
2, 65898, Note_on_c, 0, 77, 0
2, 65898, Note_on_c, 0, 84, 0
2, 65899, Note_on_c, 0, 79, 0
2, 65917, Note_on_c, 0, 55, 0
2, 65917, Note_on_c, 0, 87, 0
2, 65928, Note_on_c, 0, 87, 103
2, 65929, Note_on_c, 0, 49, 106
2, 65930, Note_on_c, 0, 37, 98
2, 65930, Note_on_c, 0, 77, 102
2, 65932, Note_on_c, 0, 80, 100
2, 65994, Control_c, 0, 64, 127
2, 66065, Note_on_c, 0, 48, 28
2, 66167, Note_on_c, 0, 65, 80
2, 66167, Note_on_c, 0, 67, 65
2, 66255, Note_on_c, 0, 65, 0
2, 66266, Note_on_c, 0, 65, 72
2, 66378, Note_on_c, 0, 65, 0
2, 66383, Note_on_c, 0, 60, 88
2, 66385, Note_on_c, 0, 68, 94
2, 66388, Note_on_c, 0, 53, 74
2, 66388, Note_on_c, 0, 65, 73
2, 66393, Note_on_c, 0, 56, 71
2, 66493, Note_on_c, 0, 65, 0
2, 66493, Note_on_c, 0, 68, 0
2, 66497, Note_on_c, 0, 68, 98
2, 66504, Note_on_c, 0, 65, 69
2, 66616, Note_on_c, 0, 65, 0
2, 66618, Note_on_c, 0, 70, 97
2, 66622, Note_on_c, 0, 65, 59
2, 66693, Note_on_c, 0, 37, 0
2, 66693, Note_on_c, 0, 49, 0
2, 66698, Note_on_c, 0, 49, 88
2, 66699, Note_on_c, 0, 37, 86
2, 66731, Note_on_c, 0, 70, 0
2, 66736, Note_on_c, 0, 70, 108
2, 66739, Note_on_c, 0, 65, 0
2, 66749, Note_on_c, 0, 65, 76
2, 66754, Note_on_c, 0, 68, 0
2, 66759, Note_on_c, 0, 68, 61
2, 66839, Note_on_c, 0, 65, 0
2, 66839, Note_on_c, 0, 68, 0
2, 66842, Note_on_c, 0, 72, 104
2, 66844, Note_on_c, 0, 68, 73
2, 66846, Note_on_c, 0, 65, 88
2, 66931, Note_on_c, 0, 72, 0
2, 66938, Note_on_c, 0, 65, 0
2, 66941, Note_on_c, 0, 72, 85
2, 66949, Note_on_c, 0, 65, 71
2, 66992, Note_on_c, 0, 37, 0
2, 67000, Note_on_c, 0, 49, 0
2, 67000, Note_on_c, 0, 37, 88
2, 67004, Note_on_c, 0, 49, 82
2, 67061, Note_on_c, 0, 65, 0
2, 67066, Note_on_c, 0, 75, 109
2, 67067, Note_on_c, 0, 65, 81
2, 67153, Note_on_c, 0, 75, 0
2, 67161, Note_on_c, 0, 65, 0
2, 67161, Note_on_c, 0, 70, 0
2, 67163, Note_on_c, 0, 75, 102
2, 67165, Note_on_c, 0, 70, 71
2, 67167, Note_on_c, 0, 65, 73
2, 67284, Note_on_c, 0, 60, 0
2, 67284, Note_on_c, 0, 65, 0
2, 67284, Note_on_c, 0, 68, 0
2, 67284, Note_on_c, 0, 77, 0
2, 67292, Note_on_c, 0, 56, 0
2, 67292, Note_on_c, 0, 72, 0
2, 67293, Note_on_c, 0, 65, 100
2, 67295, Note_on_c, 0, 60, 100
2, 67295, Note_on_c, 0, 77, 108
2, 67295, Note_on_c, 0, 68, 101
2, 67297, Note_on_c, 0, 72, 96
2, 67301, Note_on_c, 0, 56, 94
2, 67307, Note_on_c, 0, 75, 0
2, 67312, Note_on_c, 0, 75, 70
2, 67438, Note_on_c, 0, 37, 0
2, 67438, Note_on_c, 0, 49, 0
2, 67444, Note_on_c, 0, 49, 74
2, 67445, Note_on_c, 0, 37, 80
2, 67522, Note_on_c, 0, 77, 0
2, 67529, Note_on_c, 0, 89, 112
2, 67532, Note_on_c, 0, 77, 101
2, 67630, Note_on_c, 0, 87, 0
2, 67640, Note_on_c, 0, 87, 110
2, 67652, Note_on_c, 0, 82, 99
2, 67654, Note_on_c, 0, 79, 103
2, 67691, Note_on_c, 0, 37, 0
2, 67693, Note_on_c, 0, 48, 0
2, 67693, Control_c, 0, 64, 0
2, 67693, Note_on_c, 0, 49, 0
2, 67693, Note_on_c, 0, 65, 0
2, 67693, Note_on_c, 0, 56, 0
2, 67694, Note_on_c, 0, 53, 0
2, 67694, Note_on_c, 0, 60, 0
2, 67694, Note_on_c, 0, 68, 0
2, 67694, Note_on_c, 0, 72, 0
2, 67694, Note_on_c, 0, 70, 0
2, 67694, Note_on_c, 0, 80, 0
2, 67695, Note_on_c, 0, 77, 0
2, 67695, Note_on_c, 0, 75, 0
2, 67695, Note_on_c, 0, 89, 0
2, 67699, Note_on_c, 0, 36, 0
2, 67699, Note_on_c, 0, 67, 0
2, 67757, Note_on_c, 0, 39, 105
2, 67758, Note_on_c, 0, 51, 107
2, 67761, Note_on_c, 0, 46, 95
2, 67783, Control_c, 0, 64, 127
2, 67999, Note_on_c, 0, 67, 94
2, 68098, Note_on_c, 0, 67, 0
2, 68107, Note_on_c, 0, 67, 81
2, 68109, Note_on_c, 0, 70, 71
2, 68198, Note_on_c, 0, 67, 0
2, 68198, Note_on_c, 0, 70, 0
2, 68203, Note_on_c, 0, 63, 85
2, 68203, Note_on_c, 0, 58, 87
2, 68207, Note_on_c, 0, 70, 98
2, 68209, Note_on_c, 0, 67, 91
2, 68209, Note_on_c, 0, 55, 87
2, 68313, Note_on_c, 0, 70, 0
2, 68320, Note_on_c, 0, 70, 95
2, 68321, Note_on_c, 0, 67, 0
2, 68326, Note_on_c, 0, 67, 87
2, 68437, Note_on_c, 0, 72, 102
2, 68459, Note_on_c, 0, 67, 0
2, 68467, Note_on_c, 0, 39, 0
2, 68467, Note_on_c, 0, 51, 0
2, 68467, Note_on_c, 0, 63, 0
2, 68467, Note_on_c, 0, 67, 77
2, 68471, Note_on_c, 0, 63, 77
2, 68473, Note_on_c, 0, 39, 86
2, 68475, Note_on_c, 0, 51, 92
2, 68536, Note_on_c, 0, 72, 0
2, 68544, Note_on_c, 0, 67, 0
2, 68544, Note_on_c, 0, 72, 103
2, 68552, Note_on_c, 0, 67, 89
2, 68643, Note_on_c, 0, 67, 0
2, 68651, Note_on_c, 0, 72, 0
2, 68654, Note_on_c, 0, 67, 85
2, 68656, Note_on_c, 0, 72, 84
2, 68663, Note_on_c, 0, 75, 87
2, 68728, Note_on_c, 0, 51, 0
2, 68728, Note_on_c, 0, 70, 0
2, 68733, Note_on_c, 0, 51, 78
2, 68739, Note_on_c, 0, 70, 81
2, 68743, Note_on_c, 0, 75, 0
2, 68747, Note_on_c, 0, 75, 82
2, 68820, Note_on_c, 0, 55, 0
2, 68824, Note_on_c, 0, 55, 84
2, 68905, Note_on_c, 0, 77, 103
2, 68912, Note_on_c, 0, 70, 0
2, 68918, Note_on_c, 0, 70, 84
2, 68920, Note_on_c, 0, 51, 0
2, 68920, Note_on_c, 0, 63, 0
2, 68920, Note_on_c, 0, 67, 0
2, 68925, Note_on_c, 0, 63, 73
2, 68930, Note_on_c, 0, 51, 80
2, 68931, Note_on_c, 0, 67, 68
2, 69012, Note_on_c, 0, 55, 0
2, 69017, Note_on_c, 0, 55, 76
2, 69112, Note_on_c, 0, 63, 0
2, 69112, Note_on_c, 0, 67, 0
2, 69120, Note_on_c, 0, 79, 0
2, 69121, Note_on_c, 0, 63, 100
2, 69121, Note_on_c, 0, 85, 113
2, 69123, Note_on_c, 0, 67, 95
2, 69125, Note_on_c, 0, 73, 105
2, 69127, Note_on_c, 0, 75, 0
2, 69131, Note_on_c, 0, 79, 89
2, 69131, Note_on_c, 0, 75, 93
2, 69258, Note_on_c, 0, 39, 0
2, 69268, Note_on_c, 0, 39, 96
2, 69358, Note_on_c, 0, 51, 0
2, 69362, Note_on_c, 0, 51, 81
2, 69442, Note_on_c, 0, 46, 0
2, 69448, Note_on_c, 0, 46, 80
2, 69556, Note_on_c, 0, 55, 0
2, 69556, Note_on_c, 0, 46, 0
2, 69556, Note_on_c, 0, 87, 0
2, 69556, Note_on_c, 0, 39, 0
2, 69556, Note_on_c, 0, 67, 0
2, 69556, Note_on_c, 0, 51, 0
2, 69556, Note_on_c, 0, 85, 0
2, 69557, Note_on_c, 0, 75, 0
2, 69557, Note_on_c, 0, 73, 0
2, 69557, Note_on_c, 0, 70, 0
2, 69557, Note_on_c, 0, 77, 0
2, 69557, Note_on_c, 0, 63, 0
2, 69558, Note_on_c, 0, 79, 0
2, 69558, Note_on_c, 0, 72, 0
2, 69563, Control_c, 0, 64, 0
2, 69573, Note_on_c, 0, 58, 0
2, 69573, Note_on_c, 0, 82, 0
2, 69591, Note_on_c, 0, 84, 113
2, 69594, Note_on_c, 0, 53, 94
2, 69596, Note_on_c, 0, 72, 103
2, 69596, Note_on_c, 0, 77, 95
2, 69599, Note_on_c, 0, 80, 95
2, 69601, Note_on_c, 0, 41, 84
2, 69601, Note_on_c, 0, 48, 83
2, 69888, Note_on_c, 0, 72, 0
2, 69895, Control_c, 0, 64, 127
2, 69898, Note_on_c, 0, 72, 65
2, 70078, Note_on_c, 0, 79, 73
2, 70179, Note_on_c, 0, 72, 0
2, 70189, Note_on_c, 0, 72, 67
2, 70302, Note_on_c, 0, 77, 0
2, 70308, Note_on_c, 0, 77, 75
2, 70425, Note_on_c, 0, 79, 0
2, 70429, Note_on_c, 0, 79, 75
2, 70533, Note_on_c, 0, 72, 0
2, 70539, Note_on_c, 0, 72, 66
2, 70663, Note_on_c, 0, 77, 0
2, 70668, Note_on_c, 0, 77, 76
2, 70771, Note_on_c, 0, 80, 0
2, 70775, Note_on_c, 0, 80, 82
2, 70878, Note_on_c, 0, 72, 0
2, 70889, Note_on_c, 0, 72, 66
2, 71016, Note_on_c, 0, 77, 0
2, 71021, Note_on_c, 0, 77, 67
2, 71124, Note_on_c, 0, 79, 0
2, 71129, Note_on_c, 0, 79, 76
2, 71239, Note_on_c, 0, 72, 0
2, 71244, Note_on_c, 0, 72, 64
2, 71354, Note_on_c, 0, 77, 0
2, 71363, Note_on_c, 0, 77, 69
2, 71462, Note_on_c, 0, 80, 0
2, 71473, Note_on_c, 0, 80, 76
2, 71577, Note_on_c, 0, 72, 0
2, 71588, Note_on_c, 0, 72, 59
2, 71708, Note_on_c, 0, 77, 0
2, 71715, Note_on_c, 0, 77, 67
2, 71823, Note_on_c, 0, 79, 0
2, 71832, Note_on_c, 0, 79, 75
2, 71938, Note_on_c, 0, 72, 0
2, 71943, Note_on_c, 0, 72, 66
2, 72061, Note_on_c, 0, 77, 0
2, 72065, Note_on_c, 0, 77, 75
2, 72168, Note_on_c, 0, 79, 0
2, 72176, Note_on_c, 0, 79, 80
2, 72261, Note_on_c, 0, 72, 0
2, 72266, Note_on_c, 0, 72, 76
2, 72337, Note_on_c, 0, 80, 0
2, 72344, Note_on_c, 0, 80, 95
2, 72407, Note_on_c, 0, 79, 0
2, 72412, Note_on_c, 0, 79, 71
2, 72414, Note_on_c, 0, 77, 0
2, 72422, Note_on_c, 0, 77, 80
2, 72445, Note_on_c, 0, 72, 0
2, 72453, Note_on_c, 0, 72, 78
2, 72529, Note_on_c, 0, 70, 69
2, 72589, Note_on_c, 0, 65, 57
2, 72606, Note_on_c, 0, 48, 0
2, 72614, Note_on_c, 0, 84, 0
2, 72616, Note_on_c, 0, 48, 55
2, 72619, Note_on_c, 0, 60, 66
2, 72665, Note_on_c, 0, 56, 83
2, 72670, Note_on_c, 0, 58, 70
2, 72714, Note_on_c, 0, 53, 0
2, 72725, Note_on_c, 0, 53, 87
2, 72788, Note_on_c, 0, 45, 105
2, 72789, Note_on_c, 0, 33, 96
2, 72887, Note_on_c, 0, 48, 0
2, 72888, Note_on_c, 0, 70, 0
2, 72888, Note_on_c, 0, 56, 0
2, 72888, Note_on_c, 0, 53, 0
2, 72890, Note_on_c, 0, 72, 0
2, 72890, Note_on_c, 0, 80, 0
2, 72890, Note_on_c, 0, 77, 0
2, 72891, Note_on_c, 0, 65, 0
2, 72892, Note_on_c, 0, 60, 0
2, 72892, Note_on_c, 0, 41, 0
2, 72895, Control_c, 0, 64, 0
2, 72898, Note_on_c, 0, 33, 0
2, 72906, Note_on_c, 0, 45, 0
2, 72909, Note_on_c, 0, 33, 93
2, 72910, Note_on_c, 0, 45, 99
2, 72913, Note_on_c, 0, 79, 0
2, 72921, Note_on_c, 0, 58, 0
2, 73059, Note_on_c, 0, 33, 0
2, 73067, Note_on_c, 0, 45, 0
2, 73279, Note_on_c, 0, 64, 100
2, 73279, Note_on_c, 0, 38, 105
2, 73284, Note_on_c, 0, 26, 97
2, 73286, Note_on_c, 0, 33, 81
2, 73328, Control_c, 0, 64, 127
2, 73406, Note_on_c, 0, 53, 78
2, 73501, Note_on_c, 0, 57, 90
2, 73554, Note_on_c, 0, 62, 86
2, 73612, Note_on_c, 0, 38, 0
2, 73618, Note_on_c, 0, 38, 79
2, 73645, Note_on_c, 0, 65, 80
2, 73674, Note_on_c, 0, 53, 0
2, 73683, Note_on_c, 0, 53, 80
2, 73692, Note_on_c, 0, 69, 77
2, 73754, Note_on_c, 0, 76, 106
2, 73758, Note_on_c, 0, 38, 0
2, 73762, Note_on_c, 0, 50, 96
2, 73763, Note_on_c, 0, 45, 98
2, 73765, Note_on_c, 0, 38, 95
2, 73824, Note_on_c, 0, 74, 82
2, 73873, Note_on_c, 0, 69, 0
2, 73881, Note_on_c, 0, 69, 82
2, 73996, Note_on_c, 0, 50, 0
2, 73996, Note_on_c, 0, 53, 0
2, 74003, Note_on_c, 0, 50, 71
2, 74004, Note_on_c, 0, 62, 0
2, 74004, Note_on_c, 0, 53, 64
2, 74015, Note_on_c, 0, 62, 74
2, 74088, Note_on_c, 0, 64, 0
2, 74096, Note_on_c, 0, 38, 0
2, 74096, Note_on_c, 0, 50, 0
2, 74100, Note_on_c, 0, 64, 102
2, 74101, Note_on_c, 0, 38, 94
2, 74104, Note_on_c, 0, 45, 0
2, 74104, Note_on_c, 0, 53, 0
2, 74107, Note_on_c, 0, 50, 98
2, 74110, Note_on_c, 0, 53, 90
2, 74110, Note_on_c, 0, 45, 91
2, 74113, Control_c, 0, 64, 0
2, 74158, Note_on_c, 0, 57, 0
2, 74167, Note_on_c, 0, 57, 75
2, 74196, Note_on_c, 0, 26, 0
2, 74204, Note_on_c, 0, 33, 0
2, 74327, Note_on_c, 0, 38, 0
2, 74327, Control_c, 0, 64, 127
2, 74337, Note_on_c, 0, 38, 80
2, 74426, Note_on_c, 0, 50, 0
2, 74434, Note_on_c, 0, 53, 0
2, 74436, Note_on_c, 0, 50, 90
2, 74442, Note_on_c, 0, 45, 0
2, 74443, Note_on_c, 0, 53, 73
2, 74447, Note_on_c, 0, 45, 73
2, 74503, Note_on_c, 0, 74, 0
2, 74505, Control_c, 0, 64, 0
2, 74519, Note_on_c, 0, 65, 0
2, 74526, Note_on_c, 0, 76, 0
2, 74527, Note_on_c, 0, 45, 0
2, 74537, Note_on_c, 0, 50, 0
2, 74542, Note_on_c, 0, 38, 0
2, 74542, Note_on_c, 0, 57, 0
2, 74542, Note_on_c, 0, 69, 0
2, 74547, Note_on_c, 0, 38, 89
2, 74549, Note_on_c, 0, 53, 0
2, 74549, Note_on_c, 0, 64, 0
2, 74557, Note_on_c, 0, 62, 0
2, 74687, Note_on_c, 0, 62, 98
2, 74687, Note_on_c, 0, 50, 97
2, 74688, Note_on_c, 0, 38, 0
2, 74690, Note_on_c, 0, 53, 94
2, 74691, Note_on_c, 0, 45, 88
2, 74692, Note_on_c, 0, 57, 85
2, 74692, Note_on_c, 0, 38, 88
2, 74703, Control_c, 0, 64, 127
2, 74887, Note_on_c, 0, 38, 0
2, 74891, Note_on_c, 0, 38, 80
2, 74995, Note_on_c, 0, 45, 0
2, 75000, Note_on_c, 0, 45, 78
2, 75098, Note_on_c, 0, 45, 0
2, 75099, Note_on_c, 0, 62, 0
2, 75099, Note_on_c, 0, 50, 0
2, 75099, Note_on_c, 0, 53, 0
2, 75102, Control_c, 0, 64, 0
2, 75110, Note_on_c, 0, 57, 0
2, 75141, Note_on_c, 0, 38, 0
2, 75147, Note_on_c, 0, 38, 103
2, 75149, Note_on_c, 0, 65, 106
2, 75152, Note_on_c, 0, 58, 99
2, 75153, Note_on_c, 0, 53, 87
2, 75187, Control_c, 0, 64, 127
2, 75287, Note_on_c, 0, 53, 0
2, 75290, Note_on_c, 0, 45, 70
2, 75290, Note_on_c, 0, 53, 75
2, 75356, Note_on_c, 0, 53, 0
2, 75356, Note_on_c, 0, 58, 0
2, 75361, Note_on_c, 0, 53, 52
2, 75363, Note_on_c, 0, 58, 82
2, 75409, Note_on_c, 0, 62, 79
2, 75502, Note_on_c, 0, 65, 0
2, 75506, Note_on_c, 0, 65, 82
2, 75517, Note_on_c, 0, 53, 0
2, 75524, Note_on_c, 0, 53, 62
2, 75527, Note_on_c, 0, 50, 63
2, 75548, Note_on_c, 0, 70, 81
2, 75606, Note_on_c, 0, 77, 102
2, 75617, Note_on_c, 0, 50, 0
2, 75621, Note_on_c, 0, 50, 90
2, 75629, Note_on_c, 0, 46, 90
2, 75649, Note_on_c, 0, 74, 90
2, 75709, Note_on_c, 0, 70, 0
2, 75713, Note_on_c, 0, 70, 84
2, 75847, Note_on_c, 0, 62, 0
2, 75855, Note_on_c, 0, 38, 0
2, 75855, Note_on_c, 0, 50, 0
2, 75855, Note_on_c, 0, 53, 0
2, 75855, Note_on_c, 0, 62, 75
2, 75859, Note_on_c, 0, 50, 76
2, 75864, Note_on_c, 0, 53, 56
2, 75865, Note_on_c, 0, 38, 82
2, 75924, Control_c, 0, 64, 0
2, 75928, Note_on_c, 0, 62, 0
2, 75928, Note_on_c, 0, 74, 0
2, 75928, Note_on_c, 0, 70, 0
2, 75928, Note_on_c, 0, 38, 0
2, 75929, Note_on_c, 0, 77, 0
2, 75929, Note_on_c, 0, 46, 0
2, 75939, Note_on_c, 0, 45, 0
2, 75947, Note_on_c, 0, 58, 0
2, 75970, Note_on_c, 0, 53, 0
2, 75970, Note_on_c, 0, 65, 0
2, 75974, Note_on_c, 0, 65, 97
2, 75978, Note_on_c, 0, 50, 0
2, 75978, Note_on_c, 0, 62, 86
2, 75978, Note_on_c, 0, 53, 88
2, 75984, Note_on_c, 0, 50, 89
2, 75987, Note_on_c, 0, 46, 83
2, 75988, Note_on_c, 0, 58, 85
2, 76101, Note_on_c, 0, 46, 0
2, 76107, Note_on_c, 0, 46, 68
2, 76170, Note_on_c, 0, 50, 0
2, 76193, Note_on_c, 0, 53, 0
2, 76200, Control_c, 0, 64, 127
2, 76209, Note_on_c, 0, 38, 86
2, 76261, Note_on_c, 0, 53, 65
2, 76313, Note_on_c, 0, 38, 0
2, 76316, Note_on_c, 0, 46, 0
2, 76319, Note_on_c, 0, 50, 85
2, 76323, Note_on_c, 0, 46, 80
2, 76329, Control_c, 0, 64, 0
2, 76350, Note_on_c, 0, 50, 0
2, 76351, Note_on_c, 0, 46, 0
2, 76354, Note_on_c, 0, 53, 0
2, 76362, Note_on_c, 0, 62, 0
2, 76369, Note_on_c, 0, 58, 0
2, 76392, Note_on_c, 0, 65, 0
2, 76425, Note_on_c, 0, 38, 87
2, 76439, Control_c, 0, 64, 127
2, 76540, Note_on_c, 0, 64, 103
2, 76547, Note_on_c, 0, 53, 96
2, 76549, Note_on_c, 0, 50, 94
2, 76556, Note_on_c, 0, 46, 87
2, 76738, Note_on_c, 0, 38, 0
2, 76745, Note_on_c, 0, 38, 83
2, 76853, Note_on_c, 0, 46, 0
2, 76853, Note_on_c, 0, 50, 0
2, 76857, Note_on_c, 0, 50, 86
2, 76863, Note_on_c, 0, 46, 79
2, 76958, Note_on_c, 0, 46, 0
2, 76959, Note_on_c, 0, 38, 0
2, 76960, Note_on_c, 0, 50, 0
2, 76960, Note_on_c, 0, 64, 0
2, 76961, Note_on_c, 0, 53, 0
2, 76964, Control_c, 0, 64, 0
2, 77010, Note_on_c, 0, 67, 108
2, 77014, Note_on_c, 0, 38, 95
2, 77017, Note_on_c, 0, 26, 91
2, 77017, Note_on_c, 0, 59, 95
2, 77021, Note_on_c, 0, 62, 81
2, 77045, Control_c, 0, 64, 127
2, 77222, Note_on_c, 0, 59, 0
2, 77223, Note_on_c, 0, 55, 89
2, 77232, Note_on_c, 0, 59, 79
2, 77299, Note_on_c, 0, 62, 0
2, 77307, Note_on_c, 0, 62, 90
2, 77376, Note_on_c, 0, 67, 0
2, 77383, Note_on_c, 0, 67, 83
2, 77420, Note_on_c, 0, 71, 84
2, 77478, Note_on_c, 0, 79, 102
2, 77480, Note_on_c, 0, 50, 97
2, 77487, Note_on_c, 0, 47, 94
2, 77528, Note_on_c, 0, 74, 84
2, 77575, Note_on_c, 0, 71, 0
2, 77580, Note_on_c, 0, 71, 89
2, 77606, Note_on_c, 0, 67, 0
2, 77610, Note_on_c, 0, 67, 76
2, 77729, Note_on_c, 0, 38, 0
2, 77736, Note_on_c, 0, 47, 0
2, 77739, Note_on_c, 0, 38, 73
2, 77747, Note_on_c, 0, 47, 61
2, 77804, Note_on_c, 0, 62, 0
2, 77804, Note_on_c, 0, 71, 0
2, 77804, Note_on_c, 0, 74, 0
2, 77807, Note_on_c, 0, 79, 0
2, 77821, Note_on_c, 0, 67, 0
2, 77828, Note_on_c, 0, 67, 102
2, 77829, Note_on_c, 0, 50, 0
2, 77829, Note_on_c, 0, 55, 0
2, 77829, Note_on_c, 0, 59, 0
2, 77833, Note_on_c, 0, 59, 89
2, 77835, Note_on_c, 0, 55, 93
2, 77836, Note_on_c, 0, 26, 0
2, 77836, Note_on_c, 0, 47, 0
2, 77840, Note_on_c, 0, 50, 91
2, 77844, Note_on_c, 0, 47, 80
2, 77860, Note_on_c, 0, 63, 64
2, 77867, Note_on_c, 0, 63, 0
2, 77931, Control_c, 0, 64, 0
2, 77936, Note_on_c, 0, 38, 0
2, 78073, Note_on_c, 0, 38, 83
2, 78082, Control_c, 0, 64, 127
2, 78167, Note_on_c, 0, 50, 0
2, 78177, Note_on_c, 0, 50, 88
2, 78182, Note_on_c, 0, 47, 0
2, 78188, Note_on_c, 0, 47, 76
2, 78274, Note_on_c, 0, 38, 0
2, 78274, Note_on_c, 0, 47, 0
2, 78279, Note_on_c, 0, 38, 79
2, 78280, Note_on_c, 0, 47, 81
2, 78285, Note_on_c, 0, 50, 0
2, 78295, Control_c, 0, 64, 0
2, 78297, Note_on_c, 0, 55, 0
2, 78305, Note_on_c, 0, 67, 0
2, 78320, Note_on_c, 0, 59, 0
2, 78351, Control_c, 0, 64, 127
2, 78397, Note_on_c, 0, 65, 106
2, 78398, Note_on_c, 0, 53, 101
2, 78405, Note_on_c, 0, 38, 0
2, 78406, Note_on_c, 0, 50, 83
2, 78416, Note_on_c, 0, 38, 79
2, 78604, Note_on_c, 0, 38, 0
2, 78612, Note_on_c, 0, 47, 0
2, 78615, Note_on_c, 0, 38, 84
2, 78618, Note_on_c, 0, 47, 77
2, 78785, Note_on_c, 0, 47, 0
2, 78785, Note_on_c, 0, 53, 0
2, 78785, Note_on_c, 0, 38, 0
2, 78785, Note_on_c, 0, 65, 0
2, 78786, Control_c, 0, 64, 0
2, 78796, Note_on_c, 0, 50, 0
2, 78853, Note_on_c, 0, 59, 106
2, 78859, Note_on_c, 0, 38, 97
2, 78860, Note_on_c, 0, 26, 97
2, 78866, Note_on_c, 0, 67, 84
2, 78881, Control_c, 0, 64, 127
2, 78907, Note_on_c, 0, 55, 46
2, 78988, Note_on_c, 0, 38, 0
2, 78989, Note_on_c, 0, 50, 74
2, 78999, Note_on_c, 0, 38, 74
2, 79065, Note_on_c, 0, 55, 0
2, 79073, Note_on_c, 0, 38, 0
2, 79074, Note_on_c, 0, 55, 89
2, 79079, Note_on_c, 0, 53, 74
2, 79083, Note_on_c, 0, 38, 86
2, 79180, Note_on_c, 0, 59, 0
2, 79188, Note_on_c, 0, 59, 76
2, 79281, Note_on_c, 0, 71, 87
2, 79311, Note_on_c, 0, 50, 0
2, 79316, Note_on_c, 0, 50, 89
2, 79325, Note_on_c, 0, 47, 92
2, 79328, Note_on_c, 0, 83, 109
2, 79402, Note_on_c, 0, 77, 81
2, 79432, Note_on_c, 0, 74, 79
2, 79480, Note_on_c, 0, 38, 0
2, 79484, Note_on_c, 0, 38, 77
2, 79488, Note_on_c, 0, 67, 0
2, 79492, Note_on_c, 0, 67, 58
2, 79557, Note_on_c, 0, 38, 0
2, 79567, Note_on_c, 0, 38, 72
2, 79652, Note_on_c, 0, 55, 0
2, 79652, Control_c, 0, 64, 0
2, 79652, Note_on_c, 0, 83, 0
2, 79652, Note_on_c, 0, 74, 0
2, 79652, Note_on_c, 0, 77, 0
2, 79652, Note_on_c, 0, 50, 0
2, 79656, Note_on_c, 0, 26, 0
2, 79664, Note_on_c, 0, 53, 0
2, 79664, Note_on_c, 0, 67, 0
2, 79664, Note_on_c, 0, 71, 0
2, 79672, Note_on_c, 0, 47, 0
2, 79672, Note_on_c, 0, 59, 0
2, 79675, Note_on_c, 0, 71, 100
2, 79679, Note_on_c, 0, 59, 87
2, 79681, Note_on_c, 0, 47, 78
2, 79682, Note_on_c, 0, 65, 90
2, 79683, Note_on_c, 0, 62, 88
2, 79686, Note_on_c, 0, 50, 81
2, 79787, Note_on_c, 0, 38, 0
2, 79802, Control_c, 0, 64, 127
2, 79888, Note_on_c, 0, 38, 79
2, 79971, Note_on_c, 0, 50, 0
2, 79979, Note_on_c, 0, 50, 76
2, 80028, Note_on_c, 0, 45, 43
2, 80079, Note_on_c, 0, 47, 0
2, 80085, Note_on_c, 0, 47, 78
2, 80217, Note_on_c, 0, 38, 0
2, 80221, Note_on_c, 0, 70, 111
2, 80222, Note_on_c, 0, 58, 95
2, 80226, Note_on_c, 0, 38, 85
2, 80240, Note_on_c, 0, 45, 0
2, 80463, Note_on_c, 0, 50, 0
2, 80469, Note_on_c, 0, 50, 96
2, 80663, Note_on_c, 0, 65, 0
2, 80686, Note_on_c, 0, 62, 0
2, 80688, Note_on_c, 0, 47, 0
2, 80688, Note_on_c, 0, 71, 0
2, 80688, Note_on_c, 0, 58, 0
2, 80689, Note_on_c, 0, 70, 0
2, 80689, Note_on_c, 0, 59, 0
2, 80690, Control_c, 0, 64, 0
2, 80716, Note_on_c, 0, 38, 0
2, 80716, Note_on_c, 0, 50, 0
2, 80723, Note_on_c, 0, 50, 105
2, 80726, Note_on_c, 0, 38, 104
2, 80728, Note_on_c, 0, 81, 103
2, 80762, Control_c, 0, 64, 127
2, 80819, Note_on_c, 0, 77, 92
2, 80878, Note_on_c, 0, 74, 81
2, 80920, Note_on_c, 0, 69, 86
2, 81010, Note_on_c, 0, 65, 65
2, 81016, Note_on_c, 0, 50, 0
2, 81027, Note_on_c, 0, 50, 60
2, 81070, Note_on_c, 0, 69, 0
2, 81075, Note_on_c, 0, 57, 79
2, 81079, Note_on_c, 0, 69, 79
2, 81139, Note_on_c, 0, 65, 0
2, 81149, Note_on_c, 0, 65, 81
2, 81169, Note_on_c, 0, 57, 0
2, 81181, Note_on_c, 0, 57, 75
2, 81187, Note_on_c, 0, 53, 84
2, 81231, Note_on_c, 0, 69, 0
2, 81242, Note_on_c, 0, 69, 77
2, 81308, Note_on_c, 0, 74, 0
2, 81318, Note_on_c, 0, 74, 78
2, 81331, Note_on_c, 0, 50, 0
2, 81331, Note_on_c, 0, 65, 0
2, 81335, Note_on_c, 0, 65, 64
2, 81335, Note_on_c, 0, 50, 79
2, 81415, Note_on_c, 0, 77, 0
2, 81423, Note_on_c, 0, 65, 0
2, 81424, Note_on_c, 0, 77, 78
2, 81428, Note_on_c, 0, 65, 72
2, 81429, Note_on_c, 0, 45, 83
2, 81431, Note_on_c, 0, 74, 0
2, 81436, Note_on_c, 0, 74, 60
2, 81530, Note_on_c, 0, 38, 0
2, 81530, Note_on_c, 0, 69, 0
2, 81530, Note_on_c, 0, 74, 0
2, 81530, Note_on_c, 0, 77, 0
2, 81530, Note_on_c, 0, 81, 0
2, 81533, Control_c, 0, 64, 0
2, 81536, Note_on_c, 0, 81, 102
2, 81538, Note_on_c, 0, 50, 0
2, 81538, Note_on_c, 0, 45, 0
2, 81540, Note_on_c, 0, 65, 0
2, 81540, Note_on_c, 0, 77, 89
2, 81540, Note_on_c, 0, 53, 0
2, 81541, Note_on_c, 0, 57, 0
2, 81541, Note_on_c, 0, 74, 90
2, 81541, Note_on_c, 0, 38, 88
2, 81542, Note_on_c, 0, 69, 95
2, 81545, Note_on_c, 0, 50, 85
2, 81630, Control_c, 0, 64, 127
2, 81776, Note_on_c, 0, 38, 0
2, 81787, Note_on_c, 0, 45, 67
2, 81787, Note_on_c, 0, 38, 76
2, 81868, Note_on_c, 0, 50, 0
2, 81876, Note_on_c, 0, 38, 0
2, 81879, Note_on_c, 0, 50, 87
2, 81883, Note_on_c, 0, 38, 85
2, 81884, Note_on_c, 0, 45, 0
2, 81888, Note_on_c, 0, 45, 80
2, 81984, Note_on_c, 0, 38, 0
2, 81989, Note_on_c, 0, 38, 83
2, 82099, Note_on_c, 0, 45, 0
2, 82099, Note_on_c, 0, 50, 0
2, 82106, Note_on_c, 0, 38, 0
2, 82107, Note_on_c, 0, 50, 95
2, 82109, Note_on_c, 0, 45, 84
2, 82110, Note_on_c, 0, 82, 108
2, 82111, Note_on_c, 0, 70, 106
2, 82111, Note_on_c, 0, 38, 93
2, 82329, Note_on_c, 0, 38, 0
2, 82329, Note_on_c, 0, 45, 0
2, 82334, Note_on_c, 0, 38, 81
2, 82338, Note_on_c, 0, 45, 61
2, 82444, Note_on_c, 0, 38, 0
2, 82444, Note_on_c, 0, 45, 0
2, 82444, Note_on_c, 0, 50, 0
2, 82449, Note_on_c, 0, 50, 75
2, 82453, Note_on_c, 0, 38, 73
2, 82454, Note_on_c, 0, 45, 70
2, 82524, Note_on_c, 0, 69, 0
2, 82525, Note_on_c, 0, 45, 0
2, 82525, Note_on_c, 0, 81, 0
2, 82525, Note_on_c, 0, 50, 0
2, 82525, Note_on_c, 0, 82, 0
2, 82525, Note_on_c, 0, 70, 0
2, 82525, Note_on_c, 0, 74, 0
2, 82525, Note_on_c, 0, 77, 0
2, 82532, Control_c, 0, 64, 0
2, 82575, Note_on_c, 0, 38, 0
2, 82578, Note_on_c, 0, 50, 95
2, 82579, Note_on_c, 0, 84, 105
2, 82583, Note_on_c, 0, 38, 100
2, 82584, Note_on_c, 0, 72, 97
2, 82587, Note_on_c, 0, 46, 98
2, 82587, Note_on_c, 0, 41, 73
2, 82587, Note_on_c, 0, 77, 87
2, 82621, Control_c, 0, 64, 127
2, 82656, Note_on_c, 0, 82, 95
2, 82698, Note_on_c, 0, 77, 0
2, 82704, Note_on_c, 0, 77, 75
2, 82728, Note_on_c, 0, 72, 0
2, 82739, Note_on_c, 0, 72, 80
2, 82824, Note_on_c, 0, 70, 77
2, 82897, Note_on_c, 0, 72, 0
2, 82909, Note_on_c, 0, 72, 67
2, 82928, Note_on_c, 0, 60, 75
2, 82931, Note_on_c, 0, 48, 63
2, 82936, Note_on_c, 0, 48, 0
2, 82974, Note_on_c, 0, 46, 0
2, 82984, Note_on_c, 0, 46, 73
2, 82990, Note_on_c, 0, 65, 73
2, 83041, Note_on_c, 0, 58, 86
2, 83044, Note_on_c, 0, 53, 88
2, 83112, Note_on_c, 0, 72, 0
2, 83123, Note_on_c, 0, 72, 74
2, 83182, Note_on_c, 0, 77, 0
2, 83186, Note_on_c, 0, 77, 70
2, 83192, Note_on_c, 0, 76, 46
2, 83274, Note_on_c, 0, 82, 0
2, 83284, Note_on_c, 0, 82, 78
2, 83374, Control_c, 0, 64, 0
2, 83381, Note_on_c, 0, 84, 0
2, 83389, Note_on_c, 0, 72, 0
2, 83389, Note_on_c, 0, 77, 0
2, 83392, Note_on_c, 0, 84, 107
2, 83393, Note_on_c, 0, 65, 0
2, 83393, Note_on_c, 0, 58, 0
2, 83393, Note_on_c, 0, 60, 0
2, 83393, Note_on_c, 0, 70, 0
2, 83394, Note_on_c, 0, 53, 0
2, 83397, Note_on_c, 0, 38, 0
2, 83397, Note_on_c, 0, 46, 0
2, 83397, Note_on_c, 0, 50, 0
2, 83397, Note_on_c, 0, 82, 0
2, 83399, Note_on_c, 0, 72, 100
2, 83400, Note_on_c, 0, 77, 90
2, 83401, Note_on_c, 0, 50, 91
2, 83402, Note_on_c, 0, 46, 93
2, 83402, Note_on_c, 0, 38, 89
2, 83403, Note_on_c, 0, 82, 92
2, 83404, Note_on_c, 0, 41, 0
2, 83420, Note_on_c, 0, 76, 0
2, 83487, Note_on_c, 0, 38, 0
2, 83504, Note_on_c, 0, 46, 0
2, 83512, Note_on_c, 0, 50, 0
2, 83635, Control_c, 0, 64, 127
2, 83649, Note_on_c, 0, 38, 82
2, 83750, Note_on_c, 0, 38, 0
2, 83754, Note_on_c, 0, 46, 85
2, 83755, Note_on_c, 0, 50, 88
2, 83756, Note_on_c, 0, 38, 84
2, 83865, Note_on_c, 0, 38, 0
2, 83865, Note_on_c, 0, 46, 0
2, 83871, Note_on_c, 0, 38, 82
2, 83875, Note_on_c, 0, 46, 68
2, 83973, Note_on_c, 0, 50, 0
2, 83980, Note_on_c, 0, 46, 0
2, 83981, Note_on_c, 0, 79, 105
2, 83983, Note_on_c, 0, 67, 101
2, 83984, Note_on_c, 0, 50, 91
2, 83991, Note_on_c, 0, 46, 87
2, 84011, Control_c, 0, 64, 0
2, 84026, Note_on_c, 0, 82, 0
2, 84096, Control_c, 0, 64, 127
2, 84119, Note_on_c, 0, 77, 0
2, 84188, Note_on_c, 0, 38, 0
2, 84192, Note_on_c, 0, 38, 83
2, 84303, Note_on_c, 0, 46, 0
2, 84303, Note_on_c, 0, 50, 0
2, 84311, Note_on_c, 0, 50, 78
2, 84314, Note_on_c, 0, 46, 76
2, 84326, Note_on_c, 0, 84, 0
2, 84392, Note_on_c, 0, 38, 0
2, 84392, Note_on_c, 0, 72, 0
2, 84392, Note_on_c, 0, 67, 0
2, 84393, Control_c, 0, 64, 0
2, 84394, Note_on_c, 0, 79, 0
2, 84403, Note_on_c, 0, 46, 0
2, 84410, Note_on_c, 0, 50, 0
2, 84450, Note_on_c, 0, 81, 107
2, 84455, Note_on_c, 0, 69, 84
2, 84457, Note_on_c, 0, 38, 89
2, 84464, Control_c, 0, 64, 127
2, 84466, Note_on_c, 0, 47, 87
2, 84514, Note_on_c, 0, 77, 89
2, 84585, Note_on_c, 0, 74, 83
2, 84610, Note_on_c, 0, 38, 0
2, 84614, Note_on_c, 0, 38, 64
2, 84642, Note_on_c, 0, 71, 65
2, 84714, Note_on_c, 0, 65, 72
2, 84741, Note_on_c, 0, 38, 0
2, 84747, Note_on_c, 0, 38, 40
2, 84752, Note_on_c, 0, 62, 56
2, 84811, Note_on_c, 0, 59, 79
2, 84825, Note_on_c, 0, 47, 0
2, 84831, Note_on_c, 0, 47, 54
2, 84856, Note_on_c, 0, 62, 0
2, 84860, Note_on_c, 0, 62, 82
2, 84902, Note_on_c, 0, 47, 0
2, 84902, Note_on_c, 0, 65, 0
2, 84902, Note_on_c, 0, 69, 0
2, 84909, Note_on_c, 0, 65, 86
2, 84912, Note_on_c, 0, 47, 89
2, 84912, Note_on_c, 0, 50, 89
2, 84913, Note_on_c, 0, 69, 86
2, 84979, Note_on_c, 0, 71, 0
2, 84983, Note_on_c, 0, 71, 74
2, 85009, Note_on_c, 0, 38, 0
2, 85016, Note_on_c, 0, 38, 54
2, 85032, Note_on_c, 0, 74, 0
2, 85042, Note_on_c, 0, 74, 82
2, 85102, Note_on_c, 0, 62, 0
2, 85107, Note_on_c, 0, 62, 64
2, 85117, Note_on_c, 0, 38, 0
2, 85121, Note_on_c, 0, 38, 49
2, 85132, Note_on_c, 0, 77, 0
2, 85137, Note_on_c, 0, 77, 79
2, 85263, Note_on_c, 0, 38, 0
2, 85263, Note_on_c, 0, 71, 0
2, 85263, Note_on_c, 0, 74, 0
2, 85263, Note_on_c, 0, 77, 0
2, 85263, Note_on_c, 0, 81, 0
2, 85267, Note_on_c, 0, 81, 98
2, 85267, Note_on_c, 0, 71, 93
2, 85268, Note_on_c, 0, 77, 93
2, 85270, Note_on_c, 0, 38, 89
2, 85270, Note_on_c, 0, 74, 91
2, 85277, Control_c, 0, 64, 0
2, 85313, Note_on_c, 0, 65, 0
2, 85319, Note_on_c, 0, 62, 0
2, 85332, Note_on_c, 0, 47, 0
2, 85340, Note_on_c, 0, 59, 0
2, 85347, Note_on_c, 0, 50, 0
2, 85357, Note_on_c, 0, 50, 76
2, 85401, Control_c, 0, 64, 127
2, 85501, Note_on_c, 0, 38, 0
2, 85511, Note_on_c, 0, 38, 78
2, 85608, Note_on_c, 0, 50, 0
2, 85619, Note_on_c, 0, 50, 81
2, 85635, Note_on_c, 0, 47, 70
2, 85716, Note_on_c, 0, 38, 0
2, 85726, Note_on_c, 0, 38, 89
2, 85862, Note_on_c, 0, 47, 0
2, 85862, Note_on_c, 0, 50, 0
2, 85867, Note_on_c, 0, 79, 104
2, 85870, Note_on_c, 0, 50, 93
2, 85872, Note_on_c, 0, 67, 104
2, 85872, Note_on_c, 0, 47, 90
2, 86069, Note_on_c, 0, 81, 0
2, 86077, Note_on_c, 0, 38, 0
2, 86081, Note_on_c, 0, 81, 100
2, 86083, Note_on_c, 0, 38, 77
2, 86085, Note_on_c, 0, 69, 0
2, 86093, Note_on_c, 0, 69, 80
2, 86192, Note_on_c, 0, 67, 0
2, 86192, Note_on_c, 0, 79, 0
2, 86202, Note_on_c, 0, 79, 92
2, 86203, Note_on_c, 0, 67, 92
2, 86271, Note_on_c, 0, 67, 0
2, 86272, Note_on_c, 0, 81, 0
2, 86273, Note_on_c, 0, 69, 0
2, 86273, Note_on_c, 0, 47, 0
2, 86273, Note_on_c, 0, 38, 0
2, 86273, Note_on_c, 0, 79, 0
2, 86276, Control_c, 0, 64, 0
2, 86292, Note_on_c, 0, 50, 0
2, 86292, Note_on_c, 0, 71, 0
2, 86292, Note_on_c, 0, 74, 0
2, 86292, Note_on_c, 0, 77, 0
2, 86331, Note_on_c, 0, 50, 99
2, 86333, Note_on_c, 0, 78, 103
2, 86334, Note_on_c, 0, 38, 100
2, 86335, Note_on_c, 0, 66, 104
2, 86369, Control_c, 0, 64, 127
2, 86440, Note_on_c, 0, 74, 82
2, 86504, Note_on_c, 0, 69, 79
2, 86545, Note_on_c, 0, 66, 0
2, 86550, Note_on_c, 0, 66, 78
2, 86599, Note_on_c, 0, 74, 0
2, 86604, Note_on_c, 0, 74, 65
2, 86658, Note_on_c, 0, 62, 67
2, 86661, Note_on_c, 0, 50, 0
2, 86666, Note_on_c, 0, 50, 61
2, 86668, Note_on_c, 0, 62, 0
2, 86684, Note_on_c, 0, 69, 0
2, 86690, Note_on_c, 0, 69, 69
2, 86737, Note_on_c, 0, 54, 87
2, 86776, Note_on_c, 0, 50, 0
2, 86776, Note_on_c, 0, 66, 0
2, 86785, Note_on_c, 0, 50, 85
2, 86786, Note_on_c, 0, 66, 75
2, 86789, Note_on_c, 0, 45, 80
2, 86968, Note_on_c, 0, 45, 0
2, 86968, Note_on_c, 0, 50, 0
2, 86968, Note_on_c, 0, 66, 0
2, 86973, Note_on_c, 0, 66, 69
2, 86976, Note_on_c, 0, 69, 0
2, 86977, Note_on_c, 0, 50, 67
2, 86978, Note_on_c, 0, 45, 72
2, 86980, Note_on_c, 0, 69, 76
2, 87085, Note_on_c, 0, 78, 0
2, 87086, Note_on_c, 0, 54, 0
2, 87088, Control_c, 0, 64, 0
2, 87091, Note_on_c, 0, 50, 0
2, 87097, Note_on_c, 0, 50, 86
2, 87098, Note_on_c, 0, 38, 0
2, 87098, Note_on_c, 0, 45, 0
2, 87098, Note_on_c, 0, 66, 0
2, 87098, Note_on_c, 0, 69, 0
2, 87098, Note_on_c, 0, 74, 0
2, 87102, Note_on_c, 0, 74, 101
2, 87103, Note_on_c, 0, 45, 75
2, 87103, Note_on_c, 0, 38, 80
2, 87108, Note_on_c, 0, 69, 92
2, 87109, Note_on_c, 0, 66, 93
2, 87214, Control_c, 0, 64, 127
2, 87355, Note_on_c, 0, 72, 85
2, 87459, Note_on_c, 0, 69, 0
2, 87467, Note_on_c, 0, 72, 0
2, 87471, Note_on_c, 0, 69, 82
2, 87475, Note_on_c, 0, 72, 73
2, 87573, Note_on_c, 0, 67, 84
2, 87682, Note_on_c, 0, 66, 0
2, 87690, Note_on_c, 0, 50, 0
2, 87693, Note_on_c, 0, 66, 83
2, 87699, Note_on_c, 0, 50, 76
2, 87705, Note_on_c, 0, 45, 0
2, 87715, Note_on_c, 0, 45, 62
2, 87802, Note_on_c, 0, 62, 82
2, 87934, Note_on_c, 0, 57, 70
2, 88012, Note_on_c, 0, 50, 0
2, 88018, Note_on_c, 0, 50, 67
2, 88051, Note_on_c, 0, 45, 0
2, 88051, Note_on_c, 0, 62, 0
2, 88057, Note_on_c, 0, 62, 70
2, 88061, Note_on_c, 0, 45, 64
2, 88066, Note_on_c, 0, 57, 0
2, 88071, Note_on_c, 0, 57, 63
2, 88120, Note_on_c, 0, 62, 0
2, 88129, Note_on_c, 0, 62, 56
2, 88132, Note_on_c, 0, 72, 0
2, 88134, Note_on_c, 0, 66, 0
2, 88137, Note_on_c, 0, 74, 0
2, 88138, Note_on_c, 0, 67, 0
2, 88138, Note_on_c, 0, 45, 0
2, 88144, Control_c, 0, 64, 0
2, 88158, Note_on_c, 0, 69, 0
2, 88166, Note_on_c, 0, 38, 0
2, 88171, Note_on_c, 0, 38, 81
2, 88243, Note_on_c, 0, 57, 0
2, 88304, Note_on_c, 0, 50, 0
2, 88314, Note_on_c, 0, 50, 54
2, 88317, Note_on_c, 0, 57, 51
2, 88404, Note_on_c, 0, 62, 0
2, 88412, Note_on_c, 0, 62, 71
2, 88445, Note_on_c, 0, 62, 0
2, 88523, Note_on_c, 0, 62, 74
2, 88619, Note_on_c, 0, 57, 0
2, 88626, Note_on_c, 0, 62, 0
2, 88647, Note_on_c, 0, 60, 69
2, 88652, Note_on_c, 0, 55, 65
2, 88655, Note_on_c, 0, 57, 61
2, 88690, Note_on_c, 0, 60, 0
2, 88692, Note_on_c, 0, 55, 0
2, 88765, Note_on_c, 0, 57, 0
2, 88769, Note_on_c, 0, 62, 69
2, 88776, Note_on_c, 0, 57, 62
2, 88819, Note_on_c, 0, 50, 0
2, 88819, Note_on_c, 0, 62, 0
2, 88865, Note_on_c, 0, 57, 0
2, 88870, Note_on_c, 0, 57, 68
2, 88875, Note_on_c, 0, 62, 66
2, 88906, Note_on_c, 0, 57, 0
2, 88914, Note_on_c, 0, 62, 0
2, 88977, Note_on_c, 0, 50, 53
2, 89068, Note_on_c, 0, 62, 71
2, 89118, Note_on_c, 0, 62, 0
2, 89187, Note_on_c, 0, 57, 70
2, 89191, Note_on_c, 0, 62, 72
2, 89263, Note_on_c, 0, 62, 0
2, 89266, Note_on_c, 0, 57, 0
2, 89317, Note_on_c, 0, 55, 69
2, 89321, Note_on_c, 0, 60, 62
2, 89397, Note_on_c, 0, 55, 0
2, 89405, Note_on_c, 0, 60, 0
2, 89422, Note_on_c, 0, 62, 73
2, 89428, Note_on_c, 0, 57, 62
2, 89469, Note_on_c, 0, 62, 0
2, 89469, Note_on_c, 0, 57, 0
2, 89502, Note_on_c, 0, 50, 0
2, 89506, Note_on_c, 0, 50, 49
2, 89624, Note_on_c, 0, 57, 65
2, 89627, Note_on_c, 0, 62, 62
2, 89654, Note_on_c, 0, 62, 0
2, 89656, Note_on_c, 0, 57, 0
2, 89731, Note_on_c, 0, 62, 76
2, 89734, Note_on_c, 0, 57, 68
2, 89769, Note_on_c, 0, 57, 0
2, 89777, Note_on_c, 0, 62, 0
2, 89848, Note_on_c, 0, 50, 0
2, 89854, Note_on_c, 0, 50, 62
2, 89960, Note_on_c, 0, 63, 79
2, 89961, Note_on_c, 0, 58, 77
2, 90078, Note_on_c, 0, 63, 0
2, 90079, Note_on_c, 0, 58, 0
2, 90086, Note_on_c, 0, 50, 0
2, 90096, Note_on_c, 0, 50, 61
2, 90190, Note_on_c, 0, 63, 76
2, 90198, Note_on_c, 0, 58, 61
2, 90270, Note_on_c, 0, 58, 0
2, 90273, Note_on_c, 0, 63, 0
2, 90312, Note_on_c, 0, 62, 78
2, 90317, Note_on_c, 0, 57, 68
2, 90375, Note_on_c, 0, 62, 0
2, 90378, Note_on_c, 0, 57, 0
2, 90416, Note_on_c, 0, 50, 0
2, 90421, Note_on_c, 0, 50, 69
2, 90525, Note_on_c, 0, 63, 73
2, 90534, Note_on_c, 0, 58, 65
2, 90583, Note_on_c, 0, 63, 0
2, 90583, Note_on_c, 0, 58, 0
2, 90642, Note_on_c, 0, 62, 73
2, 90647, Note_on_c, 0, 57, 61
2, 90709, Note_on_c, 0, 57, 0
2, 90710, Note_on_c, 0, 62, 0
2, 90739, Note_on_c, 0, 50, 0
2, 90750, Note_on_c, 0, 50, 68
2, 90850, Note_on_c, 0, 63, 83
2, 90873, Note_on_c, 0, 58, 66
2, 90892, Control_c, 0, 64, 127
2, 90991, Note_on_c, 0, 62, 76
2, 90991, Note_on_c, 0, 57, 66
2, 91084, Note_on_c, 0, 57, 0
2, 91095, Note_on_c, 0, 57, 62
2, 91238, Note_on_c, 0, 62, 0
2, 91244, Note_on_c, 0, 62, 68
2, 91331, Note_on_c, 0, 65, 70
2, 91450, Note_on_c, 0, 69, 71
2, 91468, Note_on_c, 0, 62, 0
2, 91479, Note_on_c, 0, 62, 44
2, 91545, Note_on_c, 0, 74, 65
2, 91630, Note_on_c, 0, 50, 0
2, 91633, Note_on_c, 0, 50, 67
2, 91722, Note_on_c, 0, 57, 0
2, 91731, Note_on_c, 0, 57, 58
2, 91783, Note_on_c, 0, 62, 0
2, 91788, Note_on_c, 0, 62, 63
2, 91801, Note_on_c, 0, 76, 81
2, 91803, Note_on_c, 0, 63, 0
2, 91803, Note_on_c, 0, 58, 0
2, 91806, Note_on_c, 0, 65, 0
2, 91808, Note_on_c, 0, 74, 0
2, 91810, Note_on_c, 0, 65, 63
2, 91813, Control_c, 0, 64, 0
2, 91822, Note_on_c, 0, 69, 0
2, 91829, Note_on_c, 0, 69, 61
2, 91837, Note_on_c, 0, 38, 0
2, 91860, Control_c, 0, 64, 127
2, 92505, Note_on_c, 0, 74, 76
2, 92766, Note_on_c, 0, 69, 0
2, 92771, Note_on_c, 0, 69, 71
2, 92797, Note_on_c, 0, 65, 0
2, 92802, Note_on_c, 0, 65, 42
2, 93135, Note_on_c, 0, 62, 0
2, 93146, Note_on_c, 0, 62, 58
2, 93350, Note_on_c, 0, 50, 0
2, 93355, Note_on_c, 0, 50, 57
2, 93480, Note_on_c, 0, 57, 0
2, 93480, Note_on_c, 0, 62, 0
2, 93489, Note_on_c, 0, 62, 70
2, 93492, Note_on_c, 0, 57, 48
2, 93596, Note_on_c, 0, 50, 0
2, 93606, Note_on_c, 0, 50, 57
2, 93709, Control_c, 0, 64, 0
2, 93711, Note_on_c, 0, 76, 0
2, 93722, Note_on_c, 0, 76, 88
2, 93726, Note_on_c, 0, 62, 0
2, 93726, Note_on_c, 0, 65, 0
2, 93732, Note_on_c, 0, 62, 60
2, 93737, Note_on_c, 0, 65, 52
2, 93739, Note_on_c, 0, 58, 54
2, 93740, Note_on_c, 0, 70, 67
2, 93880, Control_c, 0, 64, 127
2, 93911, Note_on_c, 0, 57, 0
2, 94080, Note_on_c, 0, 69, 0
2, 94080, Note_on_c, 0, 74, 0
2, 94437, Note_on_c, 0, 74, 79
2, 94696, Note_on_c, 0, 69, 80
2, 95032, Note_on_c, 0, 58, 0
2, 95032, Note_on_c, 0, 62, 0
2, 95040, Note_on_c, 0, 62, 70
2, 95043, Note_on_c, 0, 58, 63
2, 95270, Note_on_c, 0, 50, 0
2, 95277, Note_on_c, 0, 50, 51
2, 95400, Note_on_c, 0, 58, 0
2, 95400, Note_on_c, 0, 62, 0
2, 95406, Note_on_c, 0, 62, 63
2, 95407, Note_on_c, 0, 58, 60
2, 95508, Note_on_c, 0, 50, 0
2, 95520, Note_on_c, 0, 50, 57
2, 95635, Control_c, 0, 64, 0
2, 95636, Note_on_c, 0, 58, 0
2, 95636, Note_on_c, 0, 69, 0
2, 95636, Note_on_c, 0, 76, 0
2, 95636, Note_on_c, 0, 70, 0
2, 95639, Note_on_c, 0, 74, 0
2, 95643, Note_on_c, 0, 74, 85
2, 95662, Note_on_c, 0, 62, 0
2, 95662, Note_on_c, 0, 65, 0
2, 95666, Note_on_c, 0, 65, 60
2, 95671, Note_on_c, 0, 62, 57
2, 95673, Note_on_c, 0, 59, 56
2, 95831, Control_c, 0, 64, 127
2, 96365, Note_on_c, 0, 72, 72
2, 96591, Note_on_c, 0, 65, 0
2, 96601, Note_on_c, 0, 65, 75
2, 96985, Note_on_c, 0, 67, 80
2, 97121, Note_on_c, 0, 62, 0
2, 97125, Note_on_c, 0, 62, 63
2, 97128, Note_on_c, 0, 59, 0
2, 97132, Note_on_c, 0, 59, 61
2, 97344, Note_on_c, 0, 65, 0
2, 97349, Note_on_c, 0, 65, 79
2, 97589, Note_on_c, 0, 50, 0
2, 97589, Note_on_c, 0, 62, 0
2, 97589, Note_on_c, 0, 67, 0
2, 97600, Note_on_c, 0, 62, 62
2, 97600, Note_on_c, 0, 67, 77
2, 97600, Note_on_c, 0, 58, 59
2, 97601, Note_on_c, 0, 50, 61
2, 97605, Note_on_c, 0, 74, 0
2, 97605, Note_on_c, 0, 72, 0
2, 97607, Note_on_c, 0, 65, 0
2, 97607, Note_on_c, 0, 59, 0
2, 97614, Control_c, 0, 64, 0
2, 97751, Control_c, 0, 64, 127
2, 98314, Note_on_c, 0, 69, 65
2, 98526, Note_on_c, 0, 58, 0
2, 98572, Note_on_c, 0, 69, 0
2, 98578, Note_on_c, 0, 69, 69
2, 99537, Note_on_c, 0, 76, 89
2, 99543, Note_on_c, 0, 38, 67
2, 99548, Note_on_c, 0, 69, 0
2, 99552, Note_on_c, 0, 69, 68
2, 99554, Note_on_c, 0, 65, 69
2, 99559, Control_c, 0, 64, 0
2, 99624, Note_on_c, 0, 62, 0
2, 99632, Control_c, 0, 64, 127
2, 99648, Note_on_c, 0, 67, 0
2, 99663, Note_on_c, 0, 50, 0
2, 99788, Note_on_c, 0, 62, 65
2, 99902, Note_on_c, 0, 57, 55
2, 100013, Note_on_c, 0, 53, 65
2, 100131, Note_on_c, 0, 62, 0
2, 100139, Note_on_c, 0, 62, 77
2, 100239, Note_on_c, 0, 57, 0
2, 100242, Note_on_c, 0, 74, 94
2, 100243, Note_on_c, 0, 57, 79
2, 100339, Note_on_c, 0, 53, 0
2, 100344, Note_on_c, 0, 53, 72
2, 100466, Note_on_c, 0, 53, 0
2, 100467, Note_on_c, 0, 62, 0
2, 100467, Note_on_c, 0, 65, 0
2, 100467, Note_on_c, 0, 76, 0
2, 100467, Note_on_c, 0, 57, 0
2, 100468, Note_on_c, 0, 74, 0
2, 100468, Control_c, 0, 64, 0
2, 100468, Note_on_c, 0, 38, 0
2, 100477, Note_on_c, 0, 69, 0
2, 100487, Note_on_c, 0, 69, 90
2, 100502, Note_on_c, 0, 41, 70
2, 100546, Control_c, 0, 64, 127
2, 100719, Note_on_c, 0, 62, 72
2, 100840, Note_on_c, 0, 57, 62
2, 100943, Note_on_c, 0, 53, 72
2, 101061, Note_on_c, 0, 62, 0
2, 101071, Note_on_c, 0, 62, 81
2, 101160, Note_on_c, 0, 57, 0
2, 101171, Note_on_c, 0, 57, 70
2, 101268, Note_on_c, 0, 53, 0
2, 101276, Note_on_c, 0, 53, 65
2, 101402, Note_on_c, 0, 53, 0
2, 101402, Note_on_c, 0, 69, 0
2, 101403, Note_on_c, 0, 62, 0
2, 101403, Control_c, 0, 64, 0
2, 101414, Note_on_c, 0, 41, 0
2, 101414, Note_on_c, 0, 57, 0
2, 101426, Note_on_c, 0, 76, 98
2, 101435, Note_on_c, 0, 70, 82
2, 101435, Note_on_c, 0, 43, 74
2, 101438, Note_on_c, 0, 65, 78
2, 101491, Control_c, 0, 64, 127
2, 101493, Note_on_c, 0, 43, 0
2, 101671, Note_on_c, 0, 62, 73
2, 101796, Note_on_c, 0, 58, 66
2, 101927, Note_on_c, 0, 55, 69
2, 102044, Note_on_c, 0, 62, 0
2, 102054, Note_on_c, 0, 62, 69
2, 102131, Note_on_c, 0, 74, 95
2, 102151, Note_on_c, 0, 58, 0
2, 102157, Note_on_c, 0, 58, 75
2, 102251, Note_on_c, 0, 55, 0
2, 102262, Note_on_c, 0, 55, 79
2, 102362, Control_c, 0, 64, 0
2, 102362, Note_on_c, 0, 62, 0
2, 102362, Note_on_c, 0, 70, 0
2, 102362, Note_on_c, 0, 65, 0
2, 102362, Note_on_c, 0, 58, 0
2, 102363, Note_on_c, 0, 74, 0
2, 102363, Note_on_c, 0, 76, 0
2, 102374, Note_on_c, 0, 55, 0
2, 102393, Note_on_c, 0, 77, 93
2, 102401, Note_on_c, 0, 46, 82
2, 102401, Note_on_c, 0, 74, 78
2, 102402, Note_on_c, 0, 70, 80
2, 102434, Note_on_c, 0, 46, 0
2, 102435, Control_c, 0, 64, 127
2, 102641, Note_on_c, 0, 62, 66
2, 102759, Note_on_c, 0, 58, 70
2, 102885, Note_on_c, 0, 55, 73
2, 102988, Note_on_c, 0, 62, 0
2, 102995, Note_on_c, 0, 62, 77
2, 103096, Note_on_c, 0, 58, 0
2, 103100, Note_on_c, 0, 58, 75
2, 103219, Note_on_c, 0, 55, 0
2, 103224, Note_on_c, 0, 55, 64
2, 103292, Control_c, 0, 64, 0
2, 103292, Note_on_c, 0, 58, 0
2, 103292, Note_on_c, 0, 62, 0
2, 103292, Note_on_c, 0, 55, 0
2, 103292, Note_on_c, 0, 70, 0
2, 103293, Note_on_c, 0, 77, 0
2, 103293, Note_on_c, 0, 74, 0
2, 103348, Note_on_c, 0, 81, 100
2, 103357, Note_on_c, 0, 76, 89
2, 103359, Note_on_c, 0, 69, 81
2, 103361, Note_on_c, 0, 48, 72
2, 103361, Note_on_c, 0, 74, 77
2, 103372, Control_c, 0, 64, 127
2, 103576, Note_on_c, 0, 62, 72
2, 103707, Note_on_c, 0, 57, 68
2, 103710, Note_on_c, 0, 48, 0
2, 103820, Note_on_c, 0, 55, 73
2, 103941, Note_on_c, 0, 62, 0
2, 103951, Note_on_c, 0, 62, 72
2, 104048, Note_on_c, 0, 57, 0
2, 104055, Note_on_c, 0, 82, 98
2, 104060, Note_on_c, 0, 57, 78
2, 104202, Note_on_c, 0, 55, 0
2, 104212, Note_on_c, 0, 55, 69
2, 104287, Note_on_c, 0, 79, 95
2, 104317, Note_on_c, 0, 62, 0
2, 104321, Note_on_c, 0, 62, 88
2, 104417, Note_on_c, 0, 57, 0
2, 104422, Note_on_c, 0, 57, 78
2, 104517, Note_on_c, 0, 55, 0
2, 104527, Note_on_c, 0, 55, 79
2, 104616, Note_on_c, 0, 57, 0
2, 104622, Note_on_c, 0, 57, 77
2, 104755, Note_on_c, 0, 74, 0
2, 104761, Note_on_c, 0, 40, 82
2, 104761, Note_on_c, 0, 74, 97
2, 104767, Note_on_c, 0, 70, 85
2, 104993, Note_on_c, 0, 79, 0
2, 104998, Note_on_c, 0, 79, 92
2, 105209, Control_c, 0, 64, 0
2, 105209, Note_on_c, 0, 40, 0
2, 105209, Note_on_c, 0, 74, 0
2, 105210, Note_on_c, 0, 76, 0
2, 105210, Note_on_c, 0, 69, 0
2, 105210, Note_on_c, 0, 79, 0
2, 105210, Note_on_c, 0, 70, 0
2, 105211, Note_on_c, 0, 62, 0
2, 105211, Note_on_c, 0, 57, 0
2, 105211, Note_on_c, 0, 82, 0
2, 105223, Note_on_c, 0, 55, 0
2, 105239, Note_on_c, 0, 81, 0
2, 105244, Note_on_c, 0, 81, 101
2, 105247, Note_on_c, 0, 45, 88
2, 105252, Note_on_c, 0, 76, 85
2, 105252, Note_on_c, 0, 74, 85
2, 105292, Control_c, 0, 64, 127
2, 105331, Note_on_c, 0, 45, 0
2, 105465, Note_on_c, 0, 62, 67
2, 105576, Note_on_c, 0, 81, 0
2, 105581, Note_on_c, 0, 81, 92
2, 105584, Note_on_c, 0, 74, 0
2, 105584, Note_on_c, 0, 76, 0
2, 105587, Note_on_c, 0, 57, 79
2, 105592, Note_on_c, 0, 76, 81
2, 105592, Note_on_c, 0, 74, 76
2, 105594, Note_on_c, 0, 69, 75
2, 105704, Note_on_c, 0, 55, 80
2, 105822, Note_on_c, 0, 62, 0
2, 105829, Note_on_c, 0, 62, 81
2, 105938, Note_on_c, 0, 82, 99
2, 105953, Note_on_c, 0, 57, 0
2, 105962, Note_on_c, 0, 57, 80
2, 106083, Note_on_c, 0, 55, 0
2, 106095, Note_on_c, 0, 55, 75
2, 106158, Note_on_c, 0, 62, 0
2, 106159, Note_on_c, 0, 74, 0
2, 106162, Control_c, 0, 64, 0
2, 106175, Note_on_c, 0, 79, 100
2, 106183, Note_on_c, 0, 76, 0
2, 106183, Control_c, 0, 64, 127
2, 106192, Note_on_c, 0, 61, 87
2, 106194, Note_on_c, 0, 76, 76
2, 106195, Note_on_c, 0, 73, 85
2, 106321, Note_on_c, 0, 57, 0
2, 106328, Note_on_c, 0, 57, 78
2, 106437, Note_on_c, 0, 55, 0
2, 106441, Note_on_c, 0, 55, 70
2, 106536, Note_on_c, 0, 61, 0
2, 106543, Note_on_c, 0, 61, 85
2, 106659, Note_on_c, 0, 57, 0
2, 106664, Note_on_c, 0, 57, 76
2, 106759, Note_on_c, 0, 55, 0
2, 106769, Note_on_c, 0, 55, 76
2, 106867, Note_on_c, 0, 61, 0
2, 106874, Note_on_c, 0, 61, 86
2, 106951, Note_on_c, 0, 57, 0
2, 106957, Note_on_c, 0, 57, 85
2, 107097, Note_on_c, 0, 61, 0
2, 107108, Note_on_c, 0, 61, 91
2, 107151, Note_on_c, 0, 57, 0
2, 107160, Note_on_c, 0, 57, 82
2, 107197, Note_on_c, 0, 55, 0
2, 107201, Note_on_c, 0, 55, 92
2, 107247, Note_on_c, 0, 73, 0
2, 107248, Control_c, 0, 64, 0
2, 107248, Note_on_c, 0, 55, 0
2, 107248, Note_on_c, 0, 61, 0
2, 107266, Note_on_c, 0, 82, 0
2, 107274, Note_on_c, 0, 57, 0
2, 107282, Note_on_c, 0, 57, 85
2, 107362, Note_on_c, 0, 52, 86
2, 107397, Control_c, 0, 64, 127
2, 107440, Note_on_c, 0, 49, 92
2, 107487, Note_on_c, 0, 47, 64
2, 107542, Note_on_c, 0, 45, 96
2, 107670, Note_on_c, 0, 33, 92
2, 107770, Note_on_c, 0, 40, 98
2, 107857, Note_on_c, 0, 33, 0
2, 107862, Note_on_c, 0, 33, 94
2, 107880, Note_on_c, 0, 69, 0
2, 107972, Note_on_c, 0, 40, 0
2, 107973, Note_on_c, 0, 81, 0
2, 107973, Note_on_c, 0, 45, 0
2, 107973, Note_on_c, 0, 33, 0
2, 107974, Note_on_c, 0, 47, 0
2, 107974, Note_on_c, 0, 52, 0
2, 107975, Note_on_c, 0, 49, 0
2, 107976, Control_c, 0, 64, 0
2, 107980, Note_on_c, 0, 57, 0
2, 108003, Note_on_c, 0, 79, 0
2, 108015, Note_on_c, 0, 79, 105
2, 108017, Note_on_c, 0, 67, 106
2, 108018, Note_on_c, 0, 29, 98
2, 108018, Note_on_c, 0, 41, 100
2, 108019, Note_on_c, 0, 76, 0
2, 108019, Note_on_c, 0, 72, 89
2, 108023, Note_on_c, 0, 76, 94
2, 108088, Control_c, 0, 64, 127
2, 108373, Note_on_c, 0, 53, 84
2, 108468, Note_on_c, 0, 60, 102
2, 108472, Note_on_c, 0, 56, 103
2, 108695, Note_on_c, 0, 53, 0
2, 108699, Note_on_c, 0, 53, 87
2, 108702, Note_on_c, 0, 55, 91
2, 108794, Note_on_c, 0, 56, 0
2, 108802, Note_on_c, 0, 60, 0
2, 108802, Note_on_c, 0, 56, 92
2, 108811, Note_on_c, 0, 60, 75
2, 108932, Note_on_c, 0, 77, 109
2, 108934, Note_on_c, 0, 65, 100
2, 108948, Note_on_c, 0, 56, 0
2, 108953, Note_on_c, 0, 56, 73
2, 109032, Note_on_c, 0, 56, 0
2, 109038, Note_on_c, 0, 56, 67
2, 109125, Note_on_c, 0, 29, 0
2, 109125, Note_on_c, 0, 41, 0
2, 109133, Note_on_c, 0, 41, 82
2, 109136, Note_on_c, 0, 29, 80
2, 109289, Note_on_c, 0, 82, 112
2, 109291, Note_on_c, 0, 70, 104
2, 109386, Note_on_c, 0, 60, 0
2, 109393, Note_on_c, 0, 56, 0
2, 109394, Note_on_c, 0, 60, 88
2, 109400, Note_on_c, 0, 56, 92
2, 109440, Note_on_c, 0, 65, 0
2, 109445, Note_on_c, 0, 65, 50
2, 109501, Note_on_c, 0, 53, 0
2, 109511, Note_on_c, 0, 53, 90
2, 109593, Note_on_c, 0, 56, 0
2, 109593, Note_on_c, 0, 60, 0
2, 109603, Note_on_c, 0, 56, 94
2, 109604, Note_on_c, 0, 60, 88
2, 109614, Note_on_c, 0, 80, 107
2, 109616, Note_on_c, 0, 72, 0
2, 109619, Note_on_c, 0, 68, 103
2, 109622, Note_on_c, 0, 72, 82
2, 109624, Note_on_c, 0, 53, 0
2, 109629, Note_on_c, 0, 53, 73
2, 109808, Note_on_c, 0, 82, 0
2, 109808, Note_on_c, 0, 70, 0
2, 109809, Note_on_c, 0, 55, 0
2, 109809, Note_on_c, 0, 60, 0
2, 109809, Note_on_c, 0, 53, 0
2, 109809, Note_on_c, 0, 65, 0
2, 109809, Note_on_c, 0, 79, 0
2, 109809, Note_on_c, 0, 76, 0
2, 109810, Note_on_c, 0, 77, 0
2, 109810, Note_on_c, 0, 56, 0
2, 109810, Note_on_c, 0, 80, 0
2, 109810, Note_on_c, 0, 68, 0
2, 109811, Note_on_c, 0, 29, 0
2, 109812, Control_c, 0, 64, 0
2, 109824, Note_on_c, 0, 41, 0
2, 109824, Note_on_c, 0, 67, 0
2, 109824, Note_on_c, 0, 72, 0
2, 109853, Note_on_c, 0, 79, 108
2, 109855, Note_on_c, 0, 67, 102
2, 109856, Note_on_c, 0, 72, 101
2, 109856, Note_on_c, 0, 39, 96
2, 109858, Note_on_c, 0, 27, 93
2, 109860, Note_on_c, 0, 75, 100
2, 109893, Control_c, 0, 64, 127
2, 110204, Note_on_c, 0, 51, 77
2, 110298, Note_on_c, 0, 60, 96
2, 110302, Note_on_c, 0, 55, 95
2, 110522, Note_on_c, 0, 51, 0
2, 110526, Note_on_c, 0, 51, 84
2, 110630, Note_on_c, 0, 60, 0
2, 110638, Note_on_c, 0, 55, 0
2, 110641, Note_on_c, 0, 60, 83
2, 110642, Note_on_c, 0, 55, 83
2, 110783, Note_on_c, 0, 77, 103
2, 110785, Note_on_c, 0, 65, 100
2, 110991, Note_on_c, 0, 51, 0
2, 111000, Note_on_c, 0, 51, 78
2, 111114, Note_on_c, 0, 67, 0
2, 111114, Note_on_c, 0, 79, 0
2, 111120, Note_on_c, 0, 79, 103
2, 111123, Note_on_c, 0, 67, 100
2, 111237, Note_on_c, 0, 55, 0
2, 111237, Note_on_c, 0, 60, 0
2, 111243, Note_on_c, 0, 60, 95
2, 111245, Note_on_c, 0, 55, 95
2, 111298, Note_on_c, 0, 51, 0
2, 111307, Note_on_c, 0, 51, 28
2, 111444, Note_on_c, 0, 55, 0
2, 111452, Note_on_c, 0, 60, 0
2, 111455, Note_on_c, 0, 55, 79
2, 111456, Note_on_c, 0, 60, 81
2, 111459, Note_on_c, 0, 87, 104
2, 111459, Note_on_c, 0, 75, 0
2, 111464, Note_on_c, 0, 75, 103
2, 111660, Note_on_c, 0, 39, 0
2, 111661, Note_on_c, 0, 51, 0
2, 111661, Note_on_c, 0, 77, 0
2, 111661, Note_on_c, 0, 65, 0
2, 111661, Note_on_c, 0, 75, 0
2, 111661, Note_on_c, 0, 60, 0
2, 111661, Note_on_c, 0, 87, 0
2, 111662, Note_on_c, 0, 67, 0
2, 111662, Note_on_c, 0, 55, 0
2, 111662, Control_c, 0, 64, 0
2, 111662, Note_on_c, 0, 72, 0
2, 111662, Note_on_c, 0, 79, 0
2, 111667, Note_on_c, 0, 27, 0
2, 111694, Note_on_c, 0, 84, 111
2, 111698, Note_on_c, 0, 77, 96
2, 111700, Note_on_c, 0, 72, 104
2, 111701, Note_on_c, 0, 37, 94
2, 111702, Note_on_c, 0, 25, 100
2, 111703, Note_on_c, 0, 80, 97
2, 111736, Control_c, 0, 64, 127
2, 111889, Note_on_c, 0, 25, 0
2, 112031, Note_on_c, 0, 49, 71
2, 112139, Note_on_c, 0, 60, 100
2, 112141, Note_on_c, 0, 56, 96
2, 112141, Note_on_c, 0, 53, 91
2, 112366, Note_on_c, 0, 49, 0
2, 112377, Note_on_c, 0, 49, 88
2, 112473, Note_on_c, 0, 53, 0
2, 112473, Note_on_c, 0, 56, 0
2, 112473, Note_on_c, 0, 60, 0
2, 112480, Note_on_c, 0, 53, 79
2, 112482, Note_on_c, 0, 60, 87
2, 112483, Note_on_c, 0, 56, 81
2, 112625, Note_on_c, 0, 82, 110
2, 112630, Note_on_c, 0, 70, 105
2, 112634, Note_on_c, 0, 80, 0
2, 112641, Note_on_c, 0, 80, 84
2, 112849, Note_on_c, 0, 49, 0
2, 112854, Note_on_c, 0, 49, 80
2, 112855, Note_on_c, 0, 61, 76
2, 112865, Note_on_c, 0, 61, 0
2, 112980, Note_on_c, 0, 72, 0
2, 112980, Note_on_c, 0, 84, 0
2, 112984, Note_on_c, 0, 84, 110
2, 112987, Note_on_c, 0, 72, 99
2, 113088, Note_on_c, 0, 53, 0
2, 113088, Note_on_c, 0, 56, 0
2, 113088, Note_on_c, 0, 60, 0
2, 113094, Note_on_c, 0, 60, 102
2, 113099, Note_on_c, 0, 53, 79
2, 113099, Note_on_c, 0, 56, 87
2, 113203, Note_on_c, 0, 49, 0
2, 113208, Note_on_c, 0, 49, 74
2, 113295, Note_on_c, 0, 53, 0
2, 113295, Note_on_c, 0, 56, 0
2, 113305, Note_on_c, 0, 53, 80
2, 113306, Note_on_c, 0, 56, 89
2, 113307, Note_on_c, 0, 87, 96
2, 113314, Note_on_c, 0, 75, 96
2, 113526, Note_on_c, 0, 49, 0
2, 113527, Note_on_c, 0, 60, 0
2, 113527, Note_on_c, 0, 80, 0
2, 113528, Note_on_c, 0, 53, 0
2, 113528, Note_on_c, 0, 72, 0
2, 113528, Note_on_c, 0, 84, 0
2, 113528, Note_on_c, 0, 75, 0
2, 113528, Note_on_c, 0, 87, 0
2, 113529, Note_on_c, 0, 37, 0
2, 113529, Control_c, 0, 64, 0
2, 113541, Note_on_c, 0, 56, 0
2, 113541, Note_on_c, 0, 77, 0
2, 113541, Note_on_c, 0, 82, 0
2, 113548, Note_on_c, 0, 70, 0
2, 113552, Note_on_c, 0, 82, 108
2, 113558, Note_on_c, 0, 70, 103
2, 113560, Note_on_c, 0, 36, 93
2, 113560, Note_on_c, 0, 75, 92
2, 113563, Note_on_c, 0, 24, 93
2, 113587, Control_c, 0, 64, 127
2, 113771, Note_on_c, 0, 70, 0
2, 113775, Note_on_c, 0, 79, 99
2, 113782, Note_on_c, 0, 70, 92
2, 113886, Note_on_c, 0, 70, 0
2, 113886, Note_on_c, 0, 75, 0
2, 113886, Note_on_c, 0, 82, 0
2, 113895, Note_on_c, 0, 75, 106
2, 113896, Note_on_c, 0, 70, 85
2, 113896, Note_on_c, 0, 82, 91
2, 114022, Note_on_c, 0, 60, 85
2, 114025, Note_on_c, 0, 55, 90
2, 114028, Note_on_c, 0, 51, 88
2, 114252, Note_on_c, 0, 48, 82
2, 114358, Note_on_c, 0, 82, 0
2, 114359, Note_on_c, 0, 55, 0
2, 114359, Note_on_c, 0, 75, 0
2, 114359, Note_on_c, 0, 70, 0
2, 114359, Note_on_c, 0, 51, 0
2, 114360, Note_on_c, 0, 79, 0
2, 114363, Control_c, 0, 64, 0
2, 114370, Note_on_c, 0, 24, 0
2, 114370, Note_on_c, 0, 36, 0
2, 114370, Note_on_c, 0, 60, 0
2, 114377, Note_on_c, 0, 72, 104
2, 114379, Note_on_c, 0, 36, 94
2, 114380, Note_on_c, 0, 60, 90
2, 114383, Note_on_c, 0, 63, 86
2, 114447, Control_c, 0, 64, 127
2, 114616, Note_on_c, 0, 70, 91
2, 114640, Note_on_c, 0, 43, 77
2, 114723, Note_on_c, 0, 48, 0
2, 114723, Note_on_c, 0, 60, 0
2, 114728, Note_on_c, 0, 67, 85
2, 114729, Note_on_c, 0, 48, 89
2, 114731, Note_on_c, 0, 60, 76
2, 114839, Note_on_c, 0, 63, 0
2, 114843, Note_on_c, 0, 63, 98
2, 114844, Note_on_c, 0, 51, 93
2, 114961, Note_on_c, 0, 36, 0
2, 114961, Note_on_c, 0, 60, 0
2, 114967, Note_on_c, 0, 36, 78
2, 114973, Note_on_c, 0, 60, 93
2, 115069, Note_on_c, 0, 43, 0
2, 115072, Note_on_c, 0, 55, 88
2, 115073, Note_on_c, 0, 43, 68
2, 115176, Note_on_c, 0, 36, 0
2, 115183, Note_on_c, 0, 36, 90
2, 115184, Note_on_c, 0, 64, 89
2, 115269, Note_on_c, 0, 48, 0
2, 115275, Note_on_c, 0, 48, 85
2, 115382, Note_on_c, 0, 48, 0
2, 115382, Note_on_c, 0, 72, 0
2, 115382, Note_on_c, 0, 51, 0
2, 115382, Note_on_c, 0, 36, 0
2, 115382, Note_on_c, 0, 67, 0
2, 115382, Note_on_c, 0, 43, 0
2, 115382, Note_on_c, 0, 63, 0
2, 115382, Note_on_c, 0, 64, 0
2, 115383, Note_on_c, 0, 55, 0
2, 115383, Note_on_c, 0, 70, 0
2, 115387, Control_c, 0, 64, 0
2, 115399, Note_on_c, 0, 60, 0
2, 115412, Note_on_c, 0, 77, 100
2, 115415, Note_on_c, 0, 65, 101
2, 115418, Note_on_c, 0, 46, 98
2, 115418, Note_on_c, 0, 34, 88
2, 115425, Note_on_c, 0, 75, 77
2, 115461, Control_c, 0, 64, 127
2, 115642, Note_on_c, 0, 84, 106
2, 115643, Note_on_c, 0, 72, 95
2, 115737, Note_on_c, 0, 72, 0
2, 115737, Note_on_c, 0, 84, 0
2, 115746, Note_on_c, 0, 84, 109
2, 115748, Note_on_c, 0, 72, 96
2, 115860, Note_on_c, 0, 65, 0
2, 115869, Note_on_c, 0, 60, 90
2, 115870, Note_on_c, 0, 65, 83
2, 115871, Note_on_c, 0, 53, 82
2, 115872, Note_on_c, 0, 56, 81
2, 115979, Note_on_c, 0, 94, 83
2, 115979, Note_on_c, 0, 82, 91
2, 115983, Note_on_c, 0, 94, 0
2, 115985, Note_on_c, 0, 70, 75
2, 116083, Note_on_c, 0, 72, 0
2, 116083, Note_on_c, 0, 77, 0
2, 116083, Note_on_c, 0, 84, 0
2, 116088, Note_on_c, 0, 84, 106
2, 116091, Note_on_c, 0, 72, 90
2, 116092, Note_on_c, 0, 77, 91
2, 116183, Note_on_c, 0, 46, 0
2, 116190, Note_on_c, 0, 34, 0
2, 116192, Note_on_c, 0, 46, 96
2, 116194, Note_on_c, 0, 34, 89
2, 116413, Note_on_c, 0, 34, 0
2, 116413, Note_on_c, 0, 46, 0
2, 116422, Note_on_c, 0, 46, 90
2, 116424, Note_on_c, 0, 34, 86
2, 116541, Note_on_c, 0, 52, 82
2, 116651, Note_on_c, 0, 46, 0
2, 116659, Note_on_c, 0, 34, 0
2, 116661, Note_on_c, 0, 46, 90
2, 116668, Note_on_c, 0, 34, 74
2, 116749, Note_on_c, 0, 48, 89
2, 116751, Note_on_c, 0, 53, 0
2, 116751, Note_on_c, 0, 56, 0
2, 116751, Note_on_c, 0, 60, 0
2, 116751, Note_on_c, 0, 65, 0
2, 116755, Note_on_c, 0, 53, 87
2, 116757, Note_on_c, 0, 60, 93
2, 116758, Note_on_c, 0, 56, 92
2, 116760, Note_on_c, 0, 65, 81
2, 116761, Note_on_c, 0, 68, 90
2, 116958, Note_on_c, 0, 46, 0
2, 116966, Note_on_c, 0, 34, 0
2, 116969, Note_on_c, 0, 46, 93
2, 116975, Note_on_c, 0, 34, 94
2, 116981, Note_on_c, 0, 75, 0
2, 116986, Note_on_c, 0, 75, 100
2, 116991, Note_on_c, 0, 63, 94
2, 117073, Note_on_c, 0, 46, 0
2, 117083, Note_on_c, 0, 46, 92
2, 117154, Control_c, 0, 64, 0
2, 117155, Note_on_c, 0, 34, 0
2, 117155, Note_on_c, 0, 52, 0
2, 117155, Note_on_c, 0, 46, 0
2, 117155, Note_on_c, 0, 48, 0
2, 117155, Note_on_c, 0, 68, 0
2, 117156, Note_on_c, 0, 82, 0
2, 117156, Note_on_c, 0, 56, 0
2, 117156, Note_on_c, 0, 84, 0
2, 117156, Note_on_c, 0, 60, 0
2, 117156, Note_on_c, 0, 63, 0
2, 117157, Note_on_c, 0, 53, 0
2, 117157, Note_on_c, 0, 72, 0
2, 117158, Note_on_c, 0, 70, 0
2, 117158, Note_on_c, 0, 75, 0
2, 117158, Note_on_c, 0, 77, 0
2, 117158, Note_on_c, 0, 65, 0
2, 117222, Note_on_c, 0, 77, 102
2, 117225, Note_on_c, 0, 65, 101
2, 117226, Note_on_c, 0, 36, 99
2, 117226, Note_on_c, 0, 48, 101
2, 117242, Control_c, 0, 64, 127
2, 117457, Note_on_c, 0, 84, 104
2, 117460, Note_on_c, 0, 72, 94
2, 117557, Note_on_c, 0, 72, 0
2, 117557, Note_on_c, 0, 84, 0
2, 117565, Note_on_c, 0, 84, 106
2, 117568, Note_on_c, 0, 72, 91
2, 117680, Note_on_c, 0, 60, 88
2, 117680, Note_on_c, 0, 48, 0
2, 117683, Note_on_c, 0, 55, 87
2, 117684, Note_on_c, 0, 48, 78
2, 117687, Note_on_c, 0, 51, 81
2, 117795, Note_on_c, 0, 82, 97
2, 117799, Note_on_c, 0, 70, 85
2, 117903, Note_on_c, 0, 84, 0
2, 117907, Note_on_c, 0, 84, 105
2, 117911, Note_on_c, 0, 79, 92
2, 117913, Note_on_c, 0, 75, 98
2, 117978, Note_on_c, 0, 65, 0
2, 117981, Note_on_c, 0, 77, 0
2, 118003, Note_on_c, 0, 36, 0
2, 118003, Note_on_c, 0, 48, 0
2, 118010, Note_on_c, 0, 48, 97
2, 118013, Note_on_c, 0, 36, 92
2, 118241, Note_on_c, 0, 48, 0
2, 118245, Note_on_c, 0, 48, 88
2, 118341, Note_on_c, 0, 51, 0
2, 118352, Note_on_c, 0, 51, 89
2, 118448, Note_on_c, 0, 48, 0
2, 118453, Note_on_c, 0, 48, 79
2, 118586, Note_on_c, 0, 48, 0
2, 118586, Note_on_c, 0, 51, 0
2, 118586, Note_on_c, 0, 55, 0
2, 118586, Note_on_c, 0, 60, 0
2, 118586, Note_on_c, 0, 75, 0
2, 118591, Note_on_c, 0, 87, 106
2, 118591, Note_on_c, 0, 60, 96
2, 118591, Note_on_c, 0, 51, 94
2, 118592, Note_on_c, 0, 48, 88
2, 118592, Note_on_c, 0, 75, 110
2, 118595, Note_on_c, 0, 55, 77
2, 118809, Note_on_c, 0, 36, 0
2, 118814, Note_on_c, 0, 36, 76
2, 119036, Note_on_c, 0, 36, 0
2, 119037, Note_on_c, 0, 48, 0
2, 119037, Note_on_c, 0, 51, 0
2, 119037, Note_on_c, 0, 55, 0
2, 119037, Note_on_c, 0, 87, 0
2, 119037, Note_on_c, 0, 60, 0
2, 119037, Note_on_c, 0, 79, 0
2, 119038, Note_on_c, 0, 72, 0
2, 119038, Note_on_c, 0, 84, 0
2, 119038, Note_on_c, 0, 75, 0
2, 119039, Control_c, 0, 64, 0
2, 119047, Note_on_c, 0, 70, 0
2, 119047, Note_on_c, 0, 82, 0
2, 119081, Note_on_c, 0, 82, 109
2, 119081, Note_on_c, 0, 49, 99
2, 119082, Note_on_c, 0, 70, 104
2, 119082, Note_on_c, 0, 37, 100
2, 119083, Note_on_c, 0, 77, 95
2, 119084, Note_on_c, 0, 75, 99
2, 119132, Control_c, 0, 64, 127
2, 119424, Note_on_c, 0, 37, 0
2, 119424, Note_on_c, 0, 49, 0
2, 119427, Note_on_c, 0, 49, 82
2, 119431, Note_on_c, 0, 37, 75
2, 119540, Note_on_c, 0, 60, 98
2, 119542, Note_on_c, 0, 53, 90
2, 119542, Note_on_c, 0, 56, 89
2, 119546, Note_on_c, 0, 68, 88
2, 119548, Note_on_c, 0, 65, 83
2, 119774, Note_on_c, 0, 84, 107
2, 119780, Note_on_c, 0, 72, 96
2, 119869, Note_on_c, 0, 37, 0
2, 119869, Note_on_c, 0, 49, 0
2, 119878, Note_on_c, 0, 37, 96
2, 119878, Note_on_c, 0, 49, 87
2, 120015, Note_on_c, 0, 77, 0
2, 120023, Note_on_c, 0, 65, 0
2, 120026, Note_on_c, 0, 77, 105
2, 120027, Note_on_c, 0, 65, 98
2, 120138, Note_on_c, 0, 37, 0
2, 120138, Note_on_c, 0, 49, 0
2, 120147, Note_on_c, 0, 37, 93
2, 120148, Note_on_c, 0, 49, 80
2, 120253, Note_on_c, 0, 37, 0
2, 120253, Note_on_c, 0, 49, 0
2, 120260, Note_on_c, 0, 37, 81
2, 120262, Note_on_c, 0, 49, 79
2, 120384, Note_on_c, 0, 49, 0
2, 120389, Note_on_c, 0, 49, 88
2, 120499, Note_on_c, 0, 53, 0
2, 120499, Note_on_c, 0, 60, 0
2, 120499, Note_on_c, 0, 68, 0
2, 120506, Note_on_c, 0, 75, 0
2, 120507, Note_on_c, 0, 60, 98
2, 120508, Note_on_c, 0, 53, 91
2, 120509, Note_on_c, 0, 56, 0
2, 120510, Note_on_c, 0, 68, 96
2, 120511, Note_on_c, 0, 87, 107
2, 120515, Note_on_c, 0, 75, 107
2, 120714, Note_on_c, 0, 37, 0
2, 120719, Note_on_c, 0, 37, 79
2, 120806, Note_on_c, 0, 49, 0
2, 120817, Note_on_c, 0, 49, 82
2, 120903, Note_on_c, 0, 53, 0
2, 120903, Note_on_c, 0, 65, 0
2, 120903, Note_on_c, 0, 60, 0
2, 120903, Note_on_c, 0, 68, 0
2, 120903, Note_on_c, 0, 82, 0
2, 120903, Note_on_c, 0, 87, 0
2, 120904, Note_on_c, 0, 84, 0
2, 120904, Note_on_c, 0, 72, 0
2, 120904, Note_on_c, 0, 77, 0
2, 120904, Note_on_c, 0, 70, 0
2, 120905, Note_on_c, 0, 75, 0
2, 120908, Control_c, 0, 64, 0
2, 120921, Note_on_c, 0, 37, 0
2, 120921, Note_on_c, 0, 49, 0
2, 120975, Note_on_c, 0, 39, 98
2, 120976, Note_on_c, 0, 82, 106
2, 120977, Note_on_c, 0, 51, 101
2, 120978, Note_on_c, 0, 79, 97
2, 120979, Note_on_c, 0, 75, 98
2, 120980, Note_on_c, 0, 70, 97
2, 121006, Control_c, 0, 64, 127
2, 121290, Note_on_c, 0, 51, 0
2, 121290, Note_on_c, 0, 82, 0
2, 121296, Note_on_c, 0, 51, 82
2, 121297, Note_on_c, 0, 70, 0
2, 121297, Note_on_c, 0, 79, 0
2, 121301, Note_on_c, 0, 82, 96
2, 121303, Note_on_c, 0, 70, 90
2, 121305, Note_on_c, 0, 75, 0
2, 121308, Note_on_c, 0, 79, 73
2, 121311, Note_on_c, 0, 75, 78
2, 121430, Note_on_c, 0, 63, 101
2, 121432, Note_on_c, 0, 58, 84
2, 121432, Note_on_c, 0, 55, 91
2, 121627, Note_on_c, 0, 84, 106
2, 121631, Note_on_c, 0, 72, 94
2, 121635, Note_on_c, 0, 75, 0
2, 121647, Note_on_c, 0, 75, 86
2, 121728, Note_on_c, 0, 39, 0
2, 121739, Note_on_c, 0, 39, 94
2, 121827, Note_on_c, 0, 51, 0
2, 121839, Note_on_c, 0, 51, 77
2, 121866, Note_on_c, 0, 84, 0
2, 121873, Note_on_c, 0, 84, 106
2, 121873, Note_on_c, 0, 72, 0
2, 121873, Note_on_c, 0, 75, 0
2, 121873, Note_on_c, 0, 79, 0
2, 121879, Note_on_c, 0, 72, 103
2, 121882, Note_on_c, 0, 79, 96
2, 121884, Note_on_c, 0, 46, 85
2, 121885, Note_on_c, 0, 75, 101
2, 122056, Control_c, 0, 64, 0
2, 122056, Note_on_c, 0, 46, 0
2, 122056, Note_on_c, 0, 39, 0
2, 122056, Note_on_c, 0, 55, 0
2, 122056, Note_on_c, 0, 82, 0
2, 122056, Note_on_c, 0, 58, 0
2, 122057, Note_on_c, 0, 79, 0
2, 122081, Note_on_c, 0, 51, 0
2, 122081, Note_on_c, 0, 63, 0
2, 122081, Note_on_c, 0, 70, 0
2, 122092, Note_on_c, 0, 48, 103
2, 122093, Note_on_c, 0, 36, 101
2, 122096, Note_on_c, 0, 84, 0
2, 122119, Control_c, 0, 64, 127
2, 122311, Note_on_c, 0, 36, 0
2, 122311, Note_on_c, 0, 48, 0
2, 122319, Note_on_c, 0, 55, 87
2, 122321, Note_on_c, 0, 48, 94
2, 122322, Note_on_c, 0, 36, 84
2, 122354, Note_on_c, 0, 58, 69
2, 122405, Note_on_c, 0, 63, 70
2, 122477, Note_on_c, 0, 67, 88
2, 122523, Note_on_c, 0, 70, 76
2, 122580, Note_on_c, 0, 36, 0
2, 122580, Note_on_c, 0, 48, 0
2, 122587, Note_on_c, 0, 36, 73
2, 122590, Note_on_c, 0, 48, 85
2, 122664, Note_on_c, 0, 53, 68
2, 122767, Control_c, 0, 64, 0
2, 122768, Note_on_c, 0, 63, 0
2, 122768, Note_on_c, 0, 67, 0
2, 122768, Note_on_c, 0, 55, 0
2, 122769, Note_on_c, 0, 48, 0
2, 122769, Note_on_c, 0, 36, 0
2, 122769, Note_on_c, 0, 70, 0
2, 122769, Note_on_c, 0, 58, 0
2, 122772, Note_on_c, 0, 75, 0
2, 122780, Note_on_c, 0, 72, 0
2, 122787, Note_on_c, 0, 53, 0
2, 122795, Note_on_c, 0, 53, 107
2, 122799, Note_on_c, 0, 72, 93
2, 122799, Note_on_c, 0, 41, 97
2, 122799, Note_on_c, 0, 79, 104
2, 122833, Control_c, 0, 64, 127
2, 123037, Note_on_c, 0, 67, 83
2, 123044, Note_on_c, 0, 48, 67
2, 123045, Note_on_c, 0, 60, 65
2, 123133, Note_on_c, 0, 72, 0
2, 123138, Note_on_c, 0, 72, 84
2, 123160, Note_on_c, 0, 55, 80
2, 123256, Note_on_c, 0, 79, 0
2, 123264, Note_on_c, 0, 60, 0
2, 123267, Note_on_c, 0, 79, 91
2, 123267, Note_on_c, 0, 60, 93
2, 123345, Note_on_c, 0, 64, 55
2, 123371, Note_on_c, 0, 67, 0
2, 123379, Note_on_c, 0, 53, 0
2, 123382, Note_on_c, 0, 67, 88
2, 123383, Note_on_c, 0, 53, 72
2, 123486, Note_on_c, 0, 72, 0
2, 123491, Note_on_c, 0, 72, 82
2, 123494, Note_on_c, 0, 55, 0
2, 123498, Note_on_c, 0, 55, 80
2, 123586, Note_on_c, 0, 79, 0
2, 123595, Note_on_c, 0, 79, 87
2, 123632, Note_on_c, 0, 60, 0
2, 123636, Note_on_c, 0, 60, 87
2, 123704, Note_on_c, 0, 77, 102
2, 123717, Note_on_c, 0, 53, 0
2, 123721, Note_on_c, 0, 53, 90
2, 123816, Note_on_c, 0, 55, 0
2, 123822, Note_on_c, 0, 55, 83
2, 123823, Note_on_c, 0, 68, 94
2, 123924, Note_on_c, 0, 72, 0
2, 123935, Note_on_c, 0, 72, 86
2, 123935, Note_on_c, 0, 56, 84
2, 124047, Note_on_c, 0, 60, 0
2, 124051, Note_on_c, 0, 60, 97
2, 124051, Note_on_c, 0, 82, 109
2, 124052, Note_on_c, 0, 94, 101
2, 124154, Note_on_c, 0, 53, 0
2, 124154, Note_on_c, 0, 68, 0
2, 124163, Note_on_c, 0, 53, 88
2, 124166, Note_on_c, 0, 68, 96
2, 124247, Note_on_c, 0, 55, 0
2, 124255, Note_on_c, 0, 55, 91
2, 124285, Note_on_c, 0, 72, 0
2, 124290, Note_on_c, 0, 72, 68
2, 124362, Note_on_c, 0, 56, 0
2, 124366, Note_on_c, 0, 56, 85
2, 124389, Note_on_c, 0, 60, 0
2, 124396, Note_on_c, 0, 80, 107
2, 124492, Note_on_c, 0, 68, 0
2, 124503, Note_on_c, 0, 68, 90
2, 124531, Note_on_c, 0, 64, 0
2, 124552, Note_on_c, 0, 53, 0
2, 124552, Note_on_c, 0, 48, 0
2, 124552, Note_on_c, 0, 82, 0
2, 124553, Note_on_c, 0, 80, 0
2, 124553, Note_on_c, 0, 77, 0
2, 124554, Note_on_c, 0, 79, 0
2, 124554, Note_on_c, 0, 68, 0
2, 124555, Note_on_c, 0, 67, 0
2, 124555, Note_on_c, 0, 72, 0
2, 124555, Note_on_c, 0, 94, 0
2, 124556, Control_c, 0, 64, 0
2, 124569, Note_on_c, 0, 41, 0
2, 124569, Note_on_c, 0, 55, 0
2, 124569, Note_on_c, 0, 56, 0
2, 124619, Note_on_c, 0, 79, 107
2, 124619, Note_on_c, 0, 51, 107
2, 124620, Note_on_c, 0, 39, 104
2, 124638, Control_c, 0, 64, 127
2, 124848, Note_on_c, 0, 67, 85
2, 124881, Note_on_c, 0, 53, 43
2, 124892, Note_on_c, 0, 53, 0
2, 124960, Note_on_c, 0, 72, 86
2, 124985, Note_on_c, 0, 55, 83
2, 125084, Note_on_c, 0, 79, 0
2, 125088, Note_on_c, 0, 79, 95
2, 125092, Note_on_c, 0, 60, 87
2, 125191, Note_on_c, 0, 67, 0
2, 125199, Note_on_c, 0, 51, 0
2, 125201, Note_on_c, 0, 67, 83
2, 125208, Note_on_c, 0, 51, 75
2, 125299, Note_on_c, 0, 72, 0
2, 125305, Note_on_c, 0, 72, 91
2, 125314, Note_on_c, 0, 55, 0
2, 125319, Note_on_c, 0, 55, 76
2, 125422, Note_on_c, 0, 60, 0
2, 125422, Note_on_c, 0, 79, 0
2, 125426, Note_on_c, 0, 60, 82
2, 125428, Note_on_c, 0, 79, 96
2, 125537, Note_on_c, 0, 77, 108
2, 125544, Note_on_c, 0, 51, 0
2, 125552, Note_on_c, 0, 51, 83
2, 125660, Note_on_c, 0, 55, 0
2, 125660, Note_on_c, 0, 67, 0
2, 125664, Note_on_c, 0, 55, 87
2, 125665, Note_on_c, 0, 67, 88
2, 125715, Note_on_c, 0, 68, 44
2, 125721, Note_on_c, 0, 68, 0
2, 125767, Note_on_c, 0, 60, 0
2, 125767, Note_on_c, 0, 72, 0
2, 125771, Note_on_c, 0, 72, 89
2, 125774, Note_on_c, 0, 60, 88
2, 125867, Note_on_c, 0, 79, 0
2, 125873, Note_on_c, 0, 79, 106
2, 125882, Note_on_c, 0, 51, 0
2, 125890, Note_on_c, 0, 51, 89
2, 125982, Note_on_c, 0, 55, 0
2, 125990, Note_on_c, 0, 67, 0
2, 125993, Note_on_c, 0, 55, 80
2, 125997, Note_on_c, 0, 67, 85
2, 126067, Note_on_c, 0, 72, 0
2, 126072, Note_on_c, 0, 72, 87
2, 126105, Note_on_c, 0, 60, 0
2, 126110, Note_on_c, 0, 60, 81
2, 126182, Note_on_c, 0, 55, 0
2, 126191, Note_on_c, 0, 55, 86
2, 126202, Note_on_c, 0, 87, 103
2, 126203, Note_on_c, 0, 75, 109
2, 126220, Note_on_c, 0, 51, 0
2, 126230, Note_on_c, 0, 51, 67
2, 126394, Control_c, 0, 64, 0
2, 126395, Note_on_c, 0, 51, 0
2, 126396, Note_on_c, 0, 55, 0
2, 126396, Note_on_c, 0, 67, 0
2, 126397, Note_on_c, 0, 60, 0
2, 126397, Note_on_c, 0, 72, 0
2, 126398, Note_on_c, 0, 77, 0
2, 126398, Note_on_c, 0, 79, 0
2, 126399, Note_on_c, 0, 75, 0
2, 126401, Note_on_c, 0, 87, 0
2, 126405, Note_on_c, 0, 39, 0
2, 126431, Note_on_c, 0, 37, 103
2, 126432, Note_on_c, 0, 84, 109
2, 126434, Note_on_c, 0, 77, 96
2, 126435, Note_on_c, 0, 72, 102
2, 126474, Control_c, 0, 64, 127
2, 126597, Note_on_c, 0, 37, 0
2, 126607, Note_on_c, 0, 37, 42
2, 126666, Note_on_c, 0, 72, 0
2, 126677, Note_on_c, 0, 72, 78
2, 126679, Note_on_c, 0, 48, 42
2, 126689, Note_on_c, 0, 48, 0
2, 126695, Note_on_c, 0, 49, 46
2, 126781, Note_on_c, 0, 77, 0
2, 126786, Note_on_c, 0, 77, 84
2, 126795, Note_on_c, 0, 53, 78
2, 126896, Note_on_c, 0, 84, 0
2, 126901, Note_on_c, 0, 60, 86
2, 126901, Note_on_c, 0, 84, 101
2, 127004, Note_on_c, 0, 60, 0
2, 127011, Note_on_c, 0, 49, 0
2, 127011, Note_on_c, 0, 72, 0
2, 127015, Note_on_c, 0, 60, 79
2, 127015, Note_on_c, 0, 49, 73
2, 127016, Note_on_c, 0, 72, 90
2, 127023, Note_on_c, 0, 48, 65
2, 127111, Note_on_c, 0, 53, 0
2, 127119, Note_on_c, 0, 60, 0
2, 127119, Note_on_c, 0, 77, 0
2, 127122, Note_on_c, 0, 53, 82
2, 127124, Note_on_c, 0, 77, 85
2, 127130, Note_on_c, 0, 60, 73
2, 127226, Note_on_c, 0, 48, 0
2, 127226, Note_on_c, 0, 60, 0
2, 127226, Note_on_c, 0, 84, 0
2, 127232, Note_on_c, 0, 60, 80
2, 127233, Note_on_c, 0, 84, 106
2, 127235, Note_on_c, 0, 48, 76
2, 127342, Note_on_c, 0, 49, 0
2, 127345, Note_on_c, 0, 82, 108
2, 127348, Note_on_c, 0, 49, 90
2, 127449, Note_on_c, 0, 53, 0
2, 127449, Note_on_c, 0, 72, 0
2, 127454, Note_on_c, 0, 72, 95
2, 127456, Note_on_c, 0, 53, 86
2, 127557, Note_on_c, 0, 77, 0
2, 127561, Note_on_c, 0, 77, 91
2, 127583, Note_on_c, 0, 55, 83
2, 127656, Note_on_c, 0, 84, 0
2, 127664, Note_on_c, 0, 49, 0
2, 127667, Note_on_c, 0, 84, 109
2, 127675, Note_on_c, 0, 49, 91
2, 127779, Note_on_c, 0, 53, 0
2, 127779, Note_on_c, 0, 72, 0
2, 127783, Note_on_c, 0, 72, 85
2, 127785, Note_on_c, 0, 53, 81
2, 127879, Note_on_c, 0, 77, 0
2, 127887, Note_on_c, 0, 60, 0
2, 127888, Note_on_c, 0, 77, 83
2, 127891, Note_on_c, 0, 60, 86
2, 127993, Note_on_c, 0, 56, 78
2, 127996, Note_on_c, 0, 87, 103
2, 128164, Note_on_c, 0, 82, 0
2, 128165, Note_on_c, 0, 60, 0
2, 128165, Note_on_c, 0, 55, 0
2, 128165, Note_on_c, 0, 53, 0
2, 128166, Note_on_c, 0, 56, 0
2, 128166, Note_on_c, 0, 72, 0
2, 128166, Note_on_c, 0, 77, 0
2, 128166, Note_on_c, 0, 37, 0
2, 128167, Note_on_c, 0, 87, 0
2, 128168, Control_c, 0, 64, 0
2, 128171, Note_on_c, 0, 48, 0
2, 128171, Note_on_c, 0, 49, 0
2, 128179, Note_on_c, 0, 84, 0
2, 128218, Note_on_c, 0, 48, 105
2, 128220, Note_on_c, 0, 82, 106
2, 128220, Note_on_c, 0, 70, 103
2, 128221, Note_on_c, 0, 36, 102
2, 128224, Note_on_c, 0, 79, 78
2, 128257, Note_on_c, 0, 83, 61
2, 128263, Control_c, 0, 64, 127
2, 128440, Note_on_c, 0, 79, 0
2, 128444, Note_on_c, 0, 91, 109
2, 128449, Note_on_c, 0, 79, 95
2, 128547, Note_on_c, 0, 79, 0
2, 128555, Note_on_c, 0, 91, 0
2, 128558, Note_on_c, 0, 87, 108
2, 128559, Note_on_c, 0, 79, 91
2, 128560, Note_on_c, 0, 91, 88
2, 128655, Note_on_c, 0, 36, 0
2, 128655, Note_on_c, 0, 48, 0
2, 128660, Note_on_c, 0, 48, 98
2, 128665, Note_on_c, 0, 36, 84
2, 128780, Note_on_c, 0, 55, 96
2, 128835, Note_on_c, 0, 72, 84
2, 128896, Note_on_c, 0, 60, 86
2, 128970, Note_on_c, 0, 36, 0
2, 128970, Note_on_c, 0, 48, 0
2, 128971, Note_on_c, 0, 82, 0
2, 128971, Note_on_c, 0, 72, 0
2, 128971, Note_on_c, 0, 87, 0
2, 128972, Note_on_c, 0, 91, 0
2, 128972, Note_on_c, 0, 60, 0
2, 128972, Note_on_c, 0, 79, 0
2, 128973, Control_c, 0, 64, 0
2, 128973, Note_on_c, 0, 55, 0
2, 128975, Note_on_c, 0, 48, 87
2, 128976, Note_on_c, 0, 36, 88
2, 128977, Note_on_c, 0, 84, 102
2, 128977, Note_on_c, 0, 70, 0
2, 129000, Note_on_c, 0, 83, 0
2, 129016, Control_c, 0, 64, 127
2, 129046, Note_on_c, 0, 82, 94
2, 129094, Note_on_c, 0, 79, 72
2, 129138, Note_on_c, 0, 75, 78
2, 129139, Note_on_c, 0, 48, 0
2, 129145, Note_on_c, 0, 48, 65
2, 129151, Note_on_c, 0, 72, 79
2, 129248, Note_on_c, 0, 70, 69
2, 129285, Note_on_c, 0, 36, 0
2, 129292, Note_on_c, 0, 48, 0
2, 129294, Note_on_c, 0, 36, 59
2, 129297, Note_on_c, 0, 67, 81
2, 129298, Note_on_c, 0, 48, 63
2, 129361, Note_on_c, 0, 48, 0
2, 129364, Note_on_c, 0, 63, 87
2, 129366, Note_on_c, 0, 48, 67
2, 129459, Note_on_c, 0, 60, 92
2, 129500, Note_on_c, 0, 48, 0
2, 129505, Note_on_c, 0, 48, 97
2, 129607, Note_on_c, 0, 36, 0
2, 129615, Note_on_c, 0, 36, 82
2, 129707, Note_on_c, 0, 36, 0
2, 129707, Note_on_c, 0, 48, 0
2, 129707, Note_on_c, 0, 63, 0
2, 129707, Note_on_c, 0, 72, 0
2, 129707, Note_on_c, 0, 75, 0
2, 129709, Note_on_c, 0, 67, 0
2, 129715, Note_on_c, 0, 63, 95
2, 129715, Note_on_c, 0, 75, 105
2, 129717, Note_on_c, 0, 48, 77
2, 129718, Note_on_c, 0, 36, 80
2, 129718, Note_on_c, 0, 72, 84
2, 129806, Note_on_c, 0, 43, 84
2, 129871, Control_c, 0, 64, 0
2, 129871, Note_on_c, 0, 48, 0
2, 129871, Note_on_c, 0, 84, 0
2, 129872, Note_on_c, 0, 63, 0
2, 129872, Note_on_c, 0, 72, 0
2, 129872, Note_on_c, 0, 82, 0
2, 129872, Note_on_c, 0, 60, 0
2, 129872, Note_on_c, 0, 70, 0
2, 129872, Note_on_c, 0, 75, 0
2, 129872, Note_on_c, 0, 79, 0
2, 129872, Note_on_c, 0, 36, 0
2, 129873, Note_on_c, 0, 43, 0
2, 129936, Note_on_c, 0, 77, 105
2, 129936, Note_on_c, 0, 68, 105
2, 129938, Note_on_c, 0, 65, 101
2, 129939, Note_on_c, 0, 46, 99
2, 129939, Note_on_c, 0, 34, 92
2, 129943, Note_on_c, 0, 75, 83
2, 129960, Control_c, 0, 64, 127
2, 130180, Note_on_c, 0, 84, 101
2, 130186, Note_on_c, 0, 72, 89
2, 130191, Note_on_c, 0, 75, 0
2, 130195, Note_on_c, 0, 75, 69
2, 130275, Note_on_c, 0, 84, 0
2, 130283, Note_on_c, 0, 72, 0
2, 130283, Note_on_c, 0, 84, 107
2, 130288, Note_on_c, 0, 72, 79
2, 130306, Note_on_c, 0, 65, 0
2, 130310, Note_on_c, 0, 65, 63
2, 130375, Note_on_c, 0, 65, 0
2, 130383, Note_on_c, 0, 53, 74
2, 130383, Note_on_c, 0, 56, 85
2, 130386, Note_on_c, 0, 65, 73
2, 130506, Note_on_c, 0, 72, 0
2, 130512, Note_on_c, 0, 82, 99
2, 130516, Note_on_c, 0, 72, 81
2, 130521, Note_on_c, 0, 65, 0
2, 130529, Note_on_c, 0, 65, 69
2, 130613, Note_on_c, 0, 72, 0
2, 130613, Note_on_c, 0, 84, 0
2, 130621, Note_on_c, 0, 75, 0
2, 130623, Note_on_c, 0, 84, 112
2, 130624, Note_on_c, 0, 72, 102
2, 130625, Note_on_c, 0, 75, 102
2, 130728, Note_on_c, 0, 34, 0
2, 130728, Note_on_c, 0, 46, 0
2, 130734, Note_on_c, 0, 46, 95
2, 130734, Note_on_c, 0, 34, 90
2, 130951, Note_on_c, 0, 72, 0
2, 130961, Note_on_c, 0, 72, 82
2, 130962, Note_on_c, 0, 60, 75
2, 130982, Note_on_c, 0, 68, 0
2, 130990, Note_on_c, 0, 46, 0
2, 130991, Note_on_c, 0, 68, 58
2, 130993, Note_on_c, 0, 58, 63
2, 131000, Note_on_c, 0, 46, 60
2, 131051, Note_on_c, 0, 60, 0
2, 131051, Note_on_c, 0, 72, 0
2, 131055, Note_on_c, 0, 72, 89
2, 131057, Note_on_c, 0, 60, 82
2, 131105, Note_on_c, 0, 65, 0
2, 131112, Note_on_c, 0, 53, 0
2, 131116, Note_on_c, 0, 65, 70
2, 131123, Note_on_c, 0, 53, 63
2, 131166, Note_on_c, 0, 58, 0
2, 131174, Note_on_c, 0, 58, 80
2, 131175, Note_on_c, 0, 70, 94
2, 131228, Note_on_c, 0, 46, 0
2, 131235, Note_on_c, 0, 46, 93
2, 131266, Note_on_c, 0, 72, 0
2, 131272, Note_on_c, 0, 72, 103
2, 131274, Note_on_c, 0, 60, 0
2, 131282, Note_on_c, 0, 60, 85
2, 131284, Note_on_c, 0, 63, 80
2, 131358, Note_on_c, 0, 56, 0
2, 131368, Note_on_c, 0, 56, 91
2, 131466, Note_on_c, 0, 53, 0
2, 131475, Note_on_c, 0, 53, 89
2, 131520, Note_on_c, 0, 63, 0
2, 131520, Note_on_c, 0, 75, 0
2, 131524, Note_on_c, 0, 75, 106
2, 131526, Note_on_c, 0, 63, 92
2, 131573, Note_on_c, 0, 46, 0
2, 131577, Note_on_c, 0, 46, 87
2, 131692, Note_on_c, 0, 46, 0
2, 131693, Note_on_c, 0, 58, 0
2, 131693, Note_on_c, 0, 63, 0
2, 131693, Note_on_c, 0, 56, 0
2, 131693, Note_on_c, 0, 82, 0
2, 131693, Note_on_c, 0, 34, 0
2, 131693, Control_c, 0, 64, 0
2, 131693, Note_on_c, 0, 60, 0
2, 131693, Note_on_c, 0, 68, 0
2, 131693, Note_on_c, 0, 84, 0
2, 131693, Note_on_c, 0, 72, 0
2, 131694, Note_on_c, 0, 75, 0
2, 131694, Note_on_c, 0, 70, 0
2, 131694, Note_on_c, 0, 77, 0
2, 131694, Note_on_c, 0, 65, 0
2, 131712, Note_on_c, 0, 53, 0
2, 131739, Note_on_c, 0, 36, 100
2, 131739, Note_on_c, 0, 48, 104
2, 131740, Note_on_c, 0, 77, 102
2, 131744, Note_on_c, 0, 72, 90
2, 131788, Control_c, 0, 64, 127
2, 131968, Note_on_c, 0, 84, 103
2, 131993, Note_on_c, 0, 79, 78
2, 132072, Note_on_c, 0, 84, 0
2, 132080, Note_on_c, 0, 79, 0
2, 132083, Note_on_c, 0, 84, 99
2, 132084, Note_on_c, 0, 79, 88
2, 132171, Note_on_c, 0, 60, 84
2, 132177, Note_on_c, 0, 55, 84
2, 132183, Note_on_c, 0, 51, 80
2, 132292, Control_c, 0, 64, 0
2, 132295, Note_on_c, 0, 48, 0
2, 132299, Note_on_c, 0, 55, 0
2, 132300, Note_on_c, 0, 48, 79
2, 132303, Note_on_c, 0, 82, 95
2, 132304, Note_on_c, 0, 53, 72
2, 132305, Note_on_c, 0, 65, 78
2, 132311, Note_on_c, 0, 51, 0
2, 132318, Control_c, 0, 64, 127
2, 132322, Note_on_c, 0, 51, 64
2, 132326, Note_on_c, 0, 72, 0
2, 132403, Note_on_c, 0, 84, 0
2, 132410, Note_on_c, 0, 79, 0
2, 132411, Note_on_c, 0, 84, 109
2, 132416, Note_on_c, 0, 72, 102
2, 132416, Note_on_c, 0, 79, 93
2, 132420, Note_on_c, 0, 75, 101
2, 132449, Note_on_c, 0, 53, 0
2, 132456, Note_on_c, 0, 36, 0
2, 132456, Note_on_c, 0, 48, 0
2, 132460, Note_on_c, 0, 48, 82
2, 132468, Note_on_c, 0, 36, 85
2, 132718, Note_on_c, 0, 48, 0
2, 132718, Note_on_c, 0, 60, 0
2, 132724, Note_on_c, 0, 60, 83
2, 132725, Note_on_c, 0, 48, 66
2, 132810, Note_on_c, 0, 48, 0
2, 132810, Note_on_c, 0, 60, 0
2, 132820, Note_on_c, 0, 60, 85
2, 132820, Note_on_c, 0, 48, 72
2, 132950, Note_on_c, 0, 58, 88
2, 133040, Note_on_c, 0, 60, 0
2, 133048, Note_on_c, 0, 75, 0
2, 133050, Note_on_c, 0, 60, 98
2, 133051, Note_on_c, 0, 87, 113
2, 133052, Note_on_c, 0, 75, 105
2, 133173, Note_on_c, 0, 55, 87
2, 133259, Note_on_c, 0, 47, 57
2, 133332, Note_on_c, 0, 55, 0
2, 133342, Note_on_c, 0, 55, 93
2, 133491, Control_c, 0, 64, 0
2, 133496, Note_on_c, 0, 82, 0
2, 133496, Note_on_c, 0, 51, 0
2, 133497, Note_on_c, 0, 72, 0
2, 133497, Note_on_c, 0, 60, 0
2, 133497, Note_on_c, 0, 55, 0
2, 133497, Note_on_c, 0, 75, 0
2, 133497, Note_on_c, 0, 58, 0
2, 133498, Note_on_c, 0, 79, 0
2, 133498, Note_on_c, 0, 65, 0
2, 133501, Note_on_c, 0, 47, 0
2, 133509, Note_on_c, 0, 77, 0
2, 133509, Note_on_c, 0, 84, 0
2, 133509, Note_on_c, 0, 87, 0
2, 133517, Note_on_c, 0, 37, 97
2, 133517, Note_on_c, 0, 87, 102
2, 133518, Note_on_c, 0, 80, 105
2, 133518, Note_on_c, 0, 49, 104
2, 133519, Note_on_c, 0, 77, 103
2, 133532, Note_on_c, 0, 48, 0
2, 133555, Note_on_c, 0, 36, 0
2, 133578, Control_c, 0, 64, 127
2, 133771, Note_on_c, 0, 65, 81
2, 133862, Note_on_c, 0, 65, 0
2, 133872, Note_on_c, 0, 65, 72
2, 133969, Note_on_c, 0, 65, 0
2, 133970, Note_on_c, 0, 60, 88
2, 133974, Note_on_c, 0, 68, 103
2, 133975, Note_on_c, 0, 65, 80
2, 133980, Note_on_c, 0, 53, 81
2, 133992, Note_on_c, 0, 87, 0
2, 134092, Note_on_c, 0, 65, 0
2, 134092, Note_on_c, 0, 68, 0
2, 134101, Note_on_c, 0, 65, 81
2, 134102, Note_on_c, 0, 68, 87
2, 134208, Note_on_c, 0, 65, 0
2, 134208, Note_on_c, 0, 68, 0
2, 134213, Note_on_c, 0, 65, 72
2, 134213, Note_on_c, 0, 70, 92
2, 134217, Note_on_c, 0, 68, 70
2, 134261, Note_on_c, 0, 37, 0
2, 134261, Note_on_c, 0, 49, 0
2, 134272, Note_on_c, 0, 49, 92
2, 134272, Note_on_c, 0, 37, 96
2, 134323, Note_on_c, 0, 70, 0
2, 134328, Note_on_c, 0, 70, 100
2, 134330, Note_on_c, 0, 65, 0
2, 134330, Note_on_c, 0, 68, 0
2, 134335, Note_on_c, 0, 68, 72
2, 134338, Note_on_c, 0, 65, 82
2, 134430, Note_on_c, 0, 60, 0
2, 134430, Note_on_c, 0, 65, 0
2, 134430, Note_on_c, 0, 68, 0
2, 134435, Note_on_c, 0, 72, 98
2, 134439, Note_on_c, 0, 60, 78
2, 134441, Note_on_c, 0, 65, 75
2, 134441, Note_on_c, 0, 68, 66
2, 134530, Note_on_c, 0, 72, 0
2, 134539, Note_on_c, 0, 72, 95
2, 134553, Note_on_c, 0, 68, 0
2, 134561, Note_on_c, 0, 37, 0
2, 134561, Note_on_c, 0, 65, 0
2, 134564, Note_on_c, 0, 68, 67
2, 134565, Note_on_c, 0, 65, 72
2, 134568, Note_on_c, 0, 37, 88
2, 134661, Note_on_c, 0, 49, 0
2, 134661, Note_on_c, 0, 65, 0
2, 134661, Note_on_c, 0, 68, 0
2, 134664, Note_on_c, 0, 75, 107
2, 134666, Note_on_c, 0, 49, 84
2, 134667, Note_on_c, 0, 68, 76
2, 134671, Note_on_c, 0, 65, 89
2, 134760, Note_on_c, 0, 65, 0
2, 134760, Note_on_c, 0, 68, 0
2, 134760, Note_on_c, 0, 75, 0
2, 134765, Note_on_c, 0, 68, 70
2, 134765, Note_on_c, 0, 75, 95
2, 134766, Note_on_c, 0, 65, 93
2, 134883, Note_on_c, 0, 53, 0
2, 134883, Note_on_c, 0, 60, 0
2, 134883, Note_on_c, 0, 65, 0
2, 134883, Note_on_c, 0, 68, 0
2, 134883, Note_on_c, 0, 77, 0
2, 134889, Note_on_c, 0, 65, 102
2, 134890, Note_on_c, 0, 60, 97
2, 134891, Note_on_c, 0, 68, 94
2, 134893, Note_on_c, 0, 53, 93
2, 134893, Note_on_c, 0, 56, 84
2, 134893, Note_on_c, 0, 77, 102
2, 134983, Note_on_c, 0, 68, 0
2, 134991, Note_on_c, 0, 68, 85
2, 135045, Note_on_c, 0, 37, 0
2, 135045, Note_on_c, 0, 49, 0
2, 135050, Note_on_c, 0, 37, 85
2, 135051, Note_on_c, 0, 49, 80
2, 135121, Note_on_c, 0, 37, 0
2, 135121, Note_on_c, 0, 49, 0
2, 135121, Note_on_c, 0, 77, 0
2, 135125, Note_on_c, 0, 89, 112
2, 135127, Note_on_c, 0, 49, 79
2, 135129, Note_on_c, 0, 77, 101
2, 135131, Note_on_c, 0, 37, 77
2, 135236, Note_on_c, 0, 87, 111
2, 135241, Note_on_c, 0, 82, 102
2, 135243, Note_on_c, 0, 79, 108
2, 135310, Note_on_c, 0, 37, 0
2, 135310, Note_on_c, 0, 49, 0
2, 135311, Note_on_c, 0, 65, 0
2, 135311, Note_on_c, 0, 53, 0
2, 135311, Note_on_c, 0, 72, 0
2, 135312, Note_on_c, 0, 68, 0
2, 135312, Note_on_c, 0, 70, 0
2, 135312, Note_on_c, 0, 60, 0
2, 135312, Note_on_c, 0, 80, 0
2, 135312, Note_on_c, 0, 77, 0
2, 135313, Control_c, 0, 64, 0
2, 135313, Note_on_c, 0, 75, 0
2, 135329, Note_on_c, 0, 56, 0
2, 135336, Note_on_c, 0, 89, 0
2, 135354, Note_on_c, 0, 51, 109
2, 135355, Note_on_c, 0, 39, 111
2, 135362, Note_on_c, 0, 46, 96
2, 135375, Control_c, 0, 64, 127
2, 135505, Note_on_c, 0, 46, 0
2, 135517, Note_on_c, 0, 46, 48
2, 135597, Note_on_c, 0, 67, 88
2, 135682, Note_on_c, 0, 67, 0
2, 135692, Note_on_c, 0, 67, 78
2, 135693, Note_on_c, 0, 65, 72
2, 135790, Note_on_c, 0, 67, 0
2, 135791, Note_on_c, 0, 63, 94
2, 135793, Note_on_c, 0, 55, 97
2, 135797, Note_on_c, 0, 67, 93
2, 135798, Note_on_c, 0, 70, 99
2, 135897, Note_on_c, 0, 70, 0
2, 135897, Note_on_c, 0, 82, 0
2, 135901, Note_on_c, 0, 70, 107
2, 135903, Note_on_c, 0, 82, 99
2, 135904, Note_on_c, 0, 58, 84
2, 135905, Note_on_c, 0, 65, 0
2, 135905, Note_on_c, 0, 67, 0
2, 135910, Note_on_c, 0, 67, 84
2, 135914, Note_on_c, 0, 65, 75
2, 135926, Note_on_c, 0, 61, 43
2, 136012, Note_on_c, 0, 70, 0
2, 136022, Note_on_c, 0, 70, 89
2, 136022, Note_on_c, 0, 72, 101
2, 136066, Note_on_c, 0, 39, 0
2, 136066, Note_on_c, 0, 46, 0
2, 136077, Note_on_c, 0, 39, 103
2, 136077, Note_on_c, 0, 46, 93
2, 136112, Note_on_c, 0, 72, 0
2, 136122, Note_on_c, 0, 72, 106
2, 136220, Note_on_c, 0, 72, 0
2, 136227, Note_on_c, 0, 67, 0
2, 136229, Note_on_c, 0, 72, 94
2, 136235, Note_on_c, 0, 67, 78
2, 136243, Note_on_c, 0, 63, 0
2, 136254, Note_on_c, 0, 63, 74
2, 136255, Note_on_c, 0, 75, 80
2, 136258, Note_on_c, 0, 51, 0
2, 136267, Note_on_c, 0, 51, 69
2, 136343, Note_on_c, 0, 70, 0
2, 136350, Note_on_c, 0, 55, 0
2, 136350, Note_on_c, 0, 79, 0
2, 136354, Note_on_c, 0, 70, 80
2, 136355, Note_on_c, 0, 55, 98
2, 136358, Note_on_c, 0, 79, 83
2, 136366, Note_on_c, 0, 67, 0
2, 136370, Note_on_c, 0, 67, 69
2, 136473, Note_on_c, 0, 63, 0
2, 136473, Note_on_c, 0, 65, 0
2, 136477, Note_on_c, 0, 63, 101
2, 136481, Note_on_c, 0, 70, 0
2, 136484, Note_on_c, 0, 65, 105
2, 136485, Note_on_c, 0, 70, 103
2, 136486, Note_on_c, 0, 77, 107
2, 136581, Note_on_c, 0, 58, 0
2, 136590, Note_on_c, 0, 58, 93
2, 136704, Note_on_c, 0, 51, 0
2, 136704, Note_on_c, 0, 63, 0
2, 136704, Note_on_c, 0, 79, 0
2, 136711, Note_on_c, 0, 85, 112
2, 136713, Note_on_c, 0, 51, 108
2, 136713, Note_on_c, 0, 63, 101
2, 136715, Note_on_c, 0, 79, 96
2, 136716, Note_on_c, 0, 73, 110
2, 136826, Note_on_c, 0, 39, 0
2, 136832, Note_on_c, 0, 39, 100
2, 136926, Note_on_c, 0, 46, 0
2, 136937, Note_on_c, 0, 46, 88
2, 137077, Note_on_c, 0, 41, 74
2, 137078, Note_on_c, 0, 48, 74
2, 137080, Note_on_c, 0, 40, 79
2, 137168, Note_on_c, 0, 79, 0
2, 137168, Note_on_c, 0, 70, 0
2, 137169, Note_on_c, 0, 73, 0
2, 137169, Note_on_c, 0, 46, 0
2, 137169, Note_on_c, 0, 85, 0
2, 137171, Note_on_c, 0, 82, 0
2, 137172, Note_on_c, 0, 63, 0
2, 137174, Control_c, 0, 64, 0
2, 137174, Note_on_c, 0, 51, 0
2, 137180, Note_on_c, 0, 72, 0
2, 137180, Note_on_c, 0, 77, 0
2, 137180, Note_on_c, 0, 87, 0
2, 137183, Note_on_c, 0, 84, 112
2, 137184, Note_on_c, 0, 77, 103
2, 137184, Note_on_c, 0, 72, 106
2, 137187, Note_on_c, 0, 67, 0
2, 137187, Note_on_c, 0, 75, 0
2, 137188, Note_on_c, 0, 80, 98
2, 137195, Note_on_c, 0, 58, 0
2, 137195, Note_on_c, 0, 61, 0
2, 137195, Note_on_c, 0, 65, 0
2, 137218, Note_on_c, 0, 55, 0
2, 137226, Note_on_c, 0, 39, 0
2, 137226, Note_on_c, 0, 48, 0
2, 137233, Note_on_c, 0, 40, 0
2, 137448, Control_c, 0, 64, 127
2, 137472, Control_c, 0, 64, 0
2, 137571, Control_c, 0, 64, 127
2, 137643, Note_on_c, 0, 79, 77
2, 137748, Note_on_c, 0, 72, 0
2, 137748, Note_on_c, 0, 84, 0
2, 137754, Note_on_c, 0, 84, 75
2, 137757, Note_on_c, 0, 72, 72
2, 137863, Note_on_c, 0, 77, 0
2, 137868, Note_on_c, 0, 77, 76
2, 137971, Note_on_c, 0, 79, 0
2, 137976, Note_on_c, 0, 79, 75
2, 138086, Note_on_c, 0, 72, 0
2, 138090, Note_on_c, 0, 72, 72
2, 138201, Note_on_c, 0, 77, 0
2, 138207, Note_on_c, 0, 77, 75
2, 138234, Note_on_c, 0, 76, 50
2, 138240, Note_on_c, 0, 76, 0
2, 138324, Note_on_c, 0, 80, 0
2, 138331, Note_on_c, 0, 80, 82
2, 138439, Note_on_c, 0, 72, 0
2, 138447, Note_on_c, 0, 72, 68
2, 138570, Note_on_c, 0, 77, 0
2, 138574, Note_on_c, 0, 77, 70
2, 138685, Note_on_c, 0, 79, 0
2, 138689, Note_on_c, 0, 79, 77
2, 138800, Note_on_c, 0, 72, 0
2, 138809, Note_on_c, 0, 72, 63
2, 138915, Note_on_c, 0, 77, 0
2, 138921, Note_on_c, 0, 77, 65
2, 139023, Note_on_c, 0, 80, 0
2, 139032, Note_on_c, 0, 80, 84
2, 139161, Note_on_c, 0, 72, 0
2, 139167, Note_on_c, 0, 72, 61
2, 139253, Note_on_c, 0, 77, 0
2, 139263, Note_on_c, 0, 77, 70
2, 139376, Note_on_c, 0, 79, 0
2, 139383, Note_on_c, 0, 79, 75
2, 139507, Note_on_c, 0, 72, 0
2, 139511, Note_on_c, 0, 72, 58
2, 139630, Note_on_c, 0, 77, 0
2, 139638, Note_on_c, 0, 77, 66
2, 139722, Note_on_c, 0, 79, 0
2, 139729, Note_on_c, 0, 79, 73
2, 139845, Note_on_c, 0, 72, 0
2, 139850, Note_on_c, 0, 72, 59
2, 139944, Note_on_c, 0, 80, 0
2, 139952, Note_on_c, 0, 80, 82
2, 140060, Note_on_c, 0, 72, 0
2, 140069, Note_on_c, 0, 72, 59
2, 140160, Note_on_c, 0, 41, 0
2, 140160, Note_on_c, 0, 84, 0
2, 140185, Note_on_c, 0, 78, 80
2, 140313, Note_on_c, 0, 79, 0
2, 140324, Note_on_c, 0, 79, 73
2, 140428, Note_on_c, 0, 72, 0
2, 140432, Note_on_c, 0, 72, 66
2, 140536, Note_on_c, 0, 77, 0
2, 140546, Note_on_c, 0, 77, 73
2, 140666, Note_on_c, 0, 79, 0
2, 140672, Note_on_c, 0, 79, 77
2, 140782, Note_on_c, 0, 72, 0
2, 140786, Note_on_c, 0, 41, 57
2, 140786, Note_on_c, 0, 72, 68
2, 140881, Note_on_c, 0, 79, 0
2, 140886, Note_on_c, 0, 53, 73
2, 140887, Note_on_c, 0, 79, 87
2, 140981, Note_on_c, 0, 77, 0
2, 140991, Note_on_c, 0, 77, 73
2, 141120, Note_on_c, 0, 72, 0
2, 141129, Note_on_c, 0, 72, 68
2, 141219, Note_on_c, 0, 77, 0
2, 141230, Note_on_c, 0, 77, 68
2, 141330, Note_on_c, 0, 75, 72
2, 141452, Note_on_c, 0, 67, 70
2, 141557, Note_on_c, 0, 72, 0
2, 141568, Note_on_c, 0, 72, 71
2, 141688, Note_on_c, 0, 70, 64
2, 141791, Note_on_c, 0, 65, 72
2, 141888, Note_on_c, 0, 70, 0
2, 141899, Note_on_c, 0, 70, 66
2, 142018, Note_on_c, 0, 67, 0
2, 142022, Note_on_c, 0, 67, 74
2, 142126, Note_on_c, 0, 65, 0
2, 142131, Note_on_c, 0, 65, 66
2, 142233, Note_on_c, 0, 67, 0
2, 142245, Note_on_c, 0, 67, 73
2, 142363, Note_on_c, 0, 63, 75
2, 142485, Note_on_c, 0, 60, 68
2, 142602, Note_on_c, 0, 63, 0
2, 142612, Note_on_c, 0, 63, 72
2, 142717, Note_on_c, 0, 65, 0
2, 142724, Note_on_c, 0, 65, 72
2, 142848, Note_on_c, 0, 60, 0
2, 142854, Note_on_c, 0, 60, 65
2, 142955, Note_on_c, 0, 63, 0
2, 142959, Note_on_c, 0, 63, 72
2, 143063, Note_on_c, 0, 65, 0
2, 143074, Note_on_c, 0, 65, 75
2, 143185, Note_on_c, 0, 70, 0
2, 143195, Note_on_c, 0, 70, 65
2, 143285, Note_on_c, 0, 65, 0
2, 143296, Note_on_c, 0, 65, 77
2, 143419, Note_on_c, 0, 68, 78
2, 143523, Note_on_c, 0, 70, 0
2, 143529, Note_on_c, 0, 70, 70
2, 143639, Note_on_c, 0, 72, 0
2, 143649, Note_on_c, 0, 72, 70
2, 143746, Note_on_c, 0, 75, 0
2, 143757, Note_on_c, 0, 75, 76
2, 143861, Note_on_c, 0, 77, 0
2, 143870, Note_on_c, 0, 77, 69
2, 143969, Note_on_c, 0, 80, 0
2, 143978, Note_on_c, 0, 80, 73
2, 144000, Note_on_c, 0, 41, 0
2, 144000, Note_on_c, 0, 53, 0
2, 144000, Note_on_c, 0, 78, 0
2, 144000, Note_on_c, 0, 79, 0
2, 144107, Note_on_c, 0, 82, 65
2, 144215, Note_on_c, 0, 77, 0
2, 144220, Note_on_c, 0, 77, 62
2, 144314, Note_on_c, 0, 82, 0
2, 144323, Note_on_c, 0, 82, 69
2, 144453, Note_on_c, 0, 77, 0
2, 144461, Note_on_c, 0, 77, 69
2, 144576, Note_on_c, 0, 84, 76
2, 144806, Note_on_c, 0, 77, 0
2, 144815, Note_on_c, 0, 77, 65
2, 145070, Note_on_c, 0, 87, 66
2, 145297, Note_on_c, 0, 82, 0
2, 145307, Note_on_c, 0, 82, 59
2, 145574, Note_on_c, 0, 84, 0
2, 145585, Note_on_c, 0, 84, 67
2, 145827, Note_on_c, 0, 77, 0
2, 145832, Note_on_c, 0, 77, 60
2, 146065, Note_on_c, 0, 87, 0
2, 146075, Note_on_c, 0, 87, 66
2, 146319, Note_on_c, 0, 82, 0
2, 146328, Note_on_c, 0, 82, 62
2, 146580, Note_on_c, 0, 84, 0
2, 146588, Note_on_c, 0, 84, 68
2, 146849, Note_on_c, 0, 67, 0
2, 146849, Note_on_c, 0, 77, 0
2, 146855, Note_on_c, 0, 77, 58
2, 147095, Note_on_c, 0, 87, 0
2, 147101, Note_on_c, 0, 87, 60
2, 147356, Note_on_c, 0, 82, 0
2, 147365, Note_on_c, 0, 82, 59
2, 147463, Note_on_c, 0, 60, 0
2, 147571, Note_on_c, 0, 63, 0
2, 147624, Note_on_c, 0, 84, 0
2, 147634, Note_on_c, 0, 84, 66
2, 147840, Note_on_c, 0, 68, 0
2, 147840, Note_on_c, 0, 70, 0
2, 147840, Note_on_c, 0, 72, 0
2, 147840, Note_on_c, 0, 75, 0
2, 147840, Note_on_c, 0, 80, 0
2, 147840, Control_c, 0, 64, 0
2, 147895, Note_on_c, 0, 86, 67
2, 147901, Note_on_c, 0, 65, 0
2, 148139, Note_on_c, 0, 84, 0
2, 148146, Note_on_c, 0, 84, 60
2, 148377, Note_on_c, 0, 82, 0
2, 148388, Note_on_c, 0, 82, 57
2, 148654, Note_on_c, 0, 77, 0
2, 148654, Note_on_c, 0, 84, 0
2, 148659, Note_on_c, 0, 84, 64
2, 148665, Note_on_c, 0, 77, 39
2, 148922, Note_on_c, 0, 77, 0
2, 148928, Note_on_c, 0, 77, 53
2, 149191, Note_on_c, 0, 87, 0
2, 149195, Note_on_c, 0, 87, 50
2, 149460, Note_on_c, 0, 82, 0
2, 149464, Note_on_c, 0, 82, 56
2, 149760, Note_on_c, 0, 84, 0
2, 149771, Note_on_c, 0, 84, 63
2, 150082, Note_on_c, 0, 77, 0
2, 150090, Note_on_c, 0, 77, 48
2, 150420, Note_on_c, 0, 87, 0
2, 150431, Note_on_c, 0, 87, 59
2, 150804, Note_on_c, 0, 82, 0
2, 150812, Note_on_c, 0, 82, 46
2, 151280, Note_on_c, 0, 89, 41
2, 151680, Note_on_c, 0, 86, 0
2, 151680, Control_c, 0, 64, 127
2, 153484, Note_on_c, 0, 77, 0
2, 153490, Note_on_c, 0, 77, 46
2, 153903, Note_on_c, 0, 80, 63
2, 154306, Note_on_c, 0, 84, 0
2, 154311, Note_on_c, 0, 84, 69
2, 154318, Note_on_c, 0, 72, 40
2, 154323, Note_on_c, 0, 65, 52
2, 154325, Note_on_c, 0, 68, 42
2, 154352, Note_on_c, 0, 77, 0
2, 154356, Note_on_c, 0, 77, 30
2, 155036, Note_on_c, 0, 77, 0
2, 155036, Note_on_c, 0, 87, 0
2, 155041, Note_on_c, 0, 77, 65
2, 155374, Note_on_c, 0, 77, 0
2, 155379, Note_on_c, 0, 87, 76
2, 155385, Note_on_c, 0, 77, 43
2, 155420, Note_on_c, 0, 82, 0
2, 155520, Note_on_c, 0, 89, 0
2, 155742, Note_on_c, 0, 65, 0
2, 155753, Note_on_c, 0, 74, 44
2, 155753, Note_on_c, 0, 65, 50
2, 155753, Note_on_c, 0, 86, 70
2, 155757, Note_on_c, 0, 70, 45
2, 155760, Note_on_c, 0, 82, 53
2, 155767, Note_on_c, 0, 87, 0
2, 155767, Note_on_c, 0, 68, 0
2, 155767, Note_on_c, 0, 80, 0
2, 155769, Note_on_c, 0, 77, 0
2, 155769, Control_c, 0, 64, 0
2, 155781, Note_on_c, 0, 72, 0
2, 155804, Note_on_c, 0, 84, 0
2, 155865, Control_c, 0, 64, 127
2, 156460, Note_on_c, 0, 77, 65
2, 156796, Note_on_c, 0, 89, 83
2, 157140, Note_on_c, 0, 65, 0
2, 157141, Note_on_c, 0, 87, 65
2, 157144, Note_on_c, 0, 75, 48
2, 157144, Note_on_c, 0, 65, 53
2, 157146, Control_c, 0, 64, 0
2, 157150, Note_on_c, 0, 68, 52
2, 157152, Note_on_c, 0, 72, 45
2, 157156, Note_on_c, 0, 82, 0
2, 157157, Note_on_c, 0, 74, 0
2, 157159, Note_on_c, 0, 80, 48
2, 157178, Note_on_c, 0, 77, 0
2, 157183, Note_on_c, 0, 77, 32
2, 157194, Control_c, 0, 64, 127
2, 157463, Note_on_c, 0, 86, 0
2, 157468, Note_on_c, 0, 86, 81
2, 157647, Note_on_c, 0, 87, 0
2, 157654, Note_on_c, 0, 87, 75
2, 158059, Note_on_c, 0, 91, 82
2, 158538, Note_on_c, 0, 77, 0
2, 158544, Note_on_c, 0, 77, 49
2, 158584, Note_on_c, 0, 70, 0
2, 158587, Note_on_c, 0, 82, 50
2, 158588, Note_on_c, 0, 70, 48
2, 158589, Note_on_c, 0, 74, 45
2, 158599, Note_on_c, 0, 65, 0
2, 158607, Note_on_c, 0, 86, 0
2, 158607, Note_on_c, 0, 89, 0
2, 158610, Note_on_c, 0, 65, 49
2, 158612, Note_on_c, 0, 86, 60
2, 158617, Note_on_c, 0, 89, 72
2, 158650, Control_c, 0, 64, 0
2, 158657, Note_on_c, 0, 80, 0
2, 158657, Note_on_c, 0, 87, 0
2, 158657, Note_on_c, 0, 68, 0
2, 158658, Note_on_c, 0, 91, 0
2, 158658, Note_on_c, 0, 72, 0
2, 158660, Note_on_c, 0, 75, 0
2, 158730, Control_c, 0, 64, 127
2, 159336, Note_on_c, 0, 89, 0
2, 159348, Note_on_c, 0, 89, 80
2, 159375, Note_on_c, 0, 65, 0
2, 159380, Note_on_c, 0, 65, 29
2, 159733, Note_on_c, 0, 91, 81
2, 160161, Note_on_c, 0, 92, 72
2, 160164, Note_on_c, 0, 61, 64
2, 160189, Note_on_c, 0, 89, 0
2, 160193, Note_on_c, 0, 89, 57
2, 160195, Note_on_c, 0, 85, 54
2, 160197, Control_c, 0, 64, 0
2, 160197, Note_on_c, 0, 91, 0
2, 160197, Note_on_c, 0, 65, 0
2, 160197, Note_on_c, 0, 82, 0
2, 160199, Note_on_c, 0, 74, 0
2, 160200, Note_on_c, 0, 70, 0
2, 160204, Note_on_c, 0, 86, 0
2, 160220, Note_on_c, 0, 77, 0
2, 160296, Control_c, 0, 64, 127
2, 160541, Note_on_c, 0, 68, 59
2, 160933, Note_on_c, 0, 72, 51
2, 161364, Note_on_c, 0, 92, 0
2, 161368, Note_on_c, 0, 92, 76
2, 161369, Note_on_c, 0, 73, 60
2, 161811, Note_on_c, 0, 91, 78
2, 161813, Note_on_c, 0, 63, 64
2, 161823, Note_on_c, 0, 79, 60
2, 161835, Note_on_c, 0, 85, 0
2, 161835, Note_on_c, 0, 92, 0
2, 161836, Note_on_c, 0, 61, 0
2, 161837, Note_on_c, 0, 68, 0
2, 161837, Note_on_c, 0, 72, 0
2, 161837, Note_on_c, 0, 73, 0
2, 161837, Note_on_c, 0, 89, 0
2, 161840, Control_c, 0, 64, 0
2, 161849, Note_on_c, 0, 82, 46
2, 161940, Control_c, 0, 64, 127
2, 162282, Note_on_c, 0, 70, 54
2, 162758, Note_on_c, 0, 75, 54
2, 163398, Note_on_c, 0, 77, 49
2, 163412, Note_on_c, 0, 89, 68
2, 164659, Note_on_c, 0, 89, 0
2, 164663, Note_on_c, 0, 89, 64
2, 164670, Note_on_c, 0, 58, 44
2, 164682, Note_on_c, 0, 70, 0
2, 164682, Note_on_c, 0, 77, 0
2, 164682, Note_on_c, 0, 86, 56
2, 164686, Note_on_c, 0, 70, 41
2, 164688, Note_on_c, 0, 77, 34
2, 164697, Note_on_c, 0, 82, 0
2, 164700, Control_c, 0, 64, 0
2, 164702, Note_on_c, 0, 82, 32
2, 164708, Note_on_c, 0, 91, 0
2, 164708, Note_on_c, 0, 63, 0
2, 164708, Note_on_c, 0, 79, 0
2, 164709, Note_on_c, 0, 75, 0
2, 164843, Control_c, 0, 64, 127
2, 165104, Note_on_c, 0, 70, 0
2, 165158, Note_on_c, 0, 58, 0
2, 165672, Note_on_c, 0, 65, 46
2, 166236, Note_on_c, 0, 72, 54
2, 166712, Note_on_c, 0, 70, 50
2, 167040, Note_on_c, 0, 77, 0
2, 167040, Note_on_c, 0, 82, 0
2, 167040, Note_on_c, 0, 86, 0
2, 167040, Note_on_c, 0, 89, 0
2, 167147, Control_c, 0, 64, 0
2, 167229, Note_on_c, 0, 77, 54
2, 167232, Control_c, 0, 64, 127
2, 167255, Control_c, 0, 64, 0
2, 167273, Note_on_c, 0, 46, 14
2, 167278, Note_on_c, 0, 46, 0
2, 167339, Control_c, 0, 64, 127
2, 167669, Control_c, 0, 64, 0
2, 167738, Note_on_c, 0, 72, 0
2, 167744, Note_on_c, 0, 72, 41
2, 167869, Control_c, 0, 64, 127
2, 167938, Control_c, 0, 64, 0
2, 168266, Note_on_c, 0, 82, 54
2, 168944, Note_on_c, 0, 77, 0
2, 168949, Note_on_c, 0, 77, 46
2, 169190, Control_c, 0, 64, 127
2, 169259, Control_c, 0, 64, 0
2, 170280, Note_on_c, 0, 65, 0
2, 170880, Note_on_c, 0, 70, 0
2, 170880, Note_on_c, 0, 72, 0
2, 170880, Note_on_c, 0, 82, 0
2, 170880, Control_c, 0, 64, 127
2, 173544, Note_on_c, 0, 77, 0
2, 178560, Control_c, 0, 64, 0
2, 178561, End_track
0, 0, End_of_file
