0, 0, Header, 1, 2, 384
1, 0, Start_track
1, 0, Tempo, 500000
1, 0, Time_signature, 4, 2, 24, 8
1, 1, End_track
2, 0, Start_track
2, 2292, Note_on_c, 0, 79, 93
2, 2292, Note_on_c, 0, 48, 70
2, 2300, Note_on_c, 0, 74, 83
2, 2300, Note_on_c, 0, 69, 77
2, 2301, Note_on_c, 0, 67, 76
2, 2319, Control_c, 0, 64, 127
2, 2376, Control_c, 0, 64, 0
2, 2380, Control_c, 0, 64, 127
2, 2575, Note_on_c, 0, 55, 64
2, 2576, Note_on_c, 0, 78, 83
2, 2856, Note_on_c, 0, 79, 0
2, 2860, Note_on_c, 0, 79, 90
2, 2864, Note_on_c, 0, 67, 0
2, 2864, Note_on_c, 0, 69, 0
2, 2864, Note_on_c, 0, 74, 0
2, 2869, Note_on_c, 0, 64, 67
2, 2869, Note_on_c, 0, 74, 79
2, 2871, Note_on_c, 0, 69, 72
2, 2873, Note_on_c, 0, 67, 71
2, 2878, Note_on_c, 0, 59, 68
2, 2920, Control_c, 0, 64, 0
2, 2956, Control_c, 0, 64, 127
2, 3202, Note_on_c, 0, 55, 0
2, 3213, Note_on_c, 0, 55, 70
2, 3394, Note_on_c, 0, 64, 0
2, 3399, Note_on_c, 0, 64, 76
2, 3402, Note_on_c, 0, 59, 0
2, 3406, Note_on_c, 0, 59, 75
2, 3740, Note_on_c, 0, 79, 0
2, 3746, Note_on_c, 0, 79, 97
2, 3747, Note_on_c, 0, 67, 0
2, 3747, Note_on_c, 0, 69, 0
2, 3747, Note_on_c, 0, 74, 0
2, 3752, Note_on_c, 0, 67, 78
2, 3752, Note_on_c, 0, 74, 86
2, 3756, Note_on_c, 0, 69, 83
2, 3759, Note_on_c, 0, 50, 80
2, 3805, Note_on_c, 0, 78, 0
2, 3805, Note_on_c, 0, 55, 0
2, 3805, Note_on_c, 0, 59, 0
2, 3805, Note_on_c, 0, 48, 0
2, 3805, Note_on_c, 0, 64, 0
2, 3812, Control_c, 0, 64, 0
2, 3916, Control_c, 0, 64, 127
2, 4020, Note_on_c, 0, 78, 96
2, 4028, Note_on_c, 0, 57, 73
2, 4300, Note_on_c, 0, 79, 0
2, 4305, Note_on_c, 0, 79, 97
2, 4308, Note_on_c, 0, 67, 0
2, 4308, Note_on_c, 0, 69, 0
2, 4316, Note_on_c, 0, 74, 0
2, 4318, Note_on_c, 0, 67, 73
2, 4318, Note_on_c, 0, 69, 79
2, 4327, Note_on_c, 0, 74, 82
2, 4328, Note_on_c, 0, 62, 66
2, 4328, Note_on_c, 0, 66, 61
2, 4344, Control_c, 0, 64, 0
2, 4385, Control_c, 0, 64, 127
2, 4654, Note_on_c, 0, 57, 0
2, 4659, Note_on_c, 0, 57, 71
2, 4838, Note_on_c, 0, 62, 0
2, 4838, Note_on_c, 0, 66, 0
2, 4842, Note_on_c, 0, 66, 78
2, 4848, Note_on_c, 0, 62, 58
2, 5184, Note_on_c, 0, 79, 0
2, 5190, Note_on_c, 0, 79, 100
2, 5191, Note_on_c, 0, 67, 0
2, 5191, Note_on_c, 0, 69, 0
2, 5191, Note_on_c, 0, 74, 0
2, 5202, Note_on_c, 0, 69, 85
2, 5202, Note_on_c, 0, 74, 84
2, 5203, Note_on_c, 0, 52, 79
2, 5203, Note_on_c, 0, 67, 81
2, 5238, Note_on_c, 0, 57, 0
2, 5240, Note_on_c, 0, 50, 0
2, 5241, Note_on_c, 0, 78, 0
2, 5242, Note_on_c, 0, 66, 0
2, 5243, Control_c, 0, 64, 0
2, 5306, Control_c, 0, 64, 127
2, 5471, Note_on_c, 0, 78, 96
2, 5473, Note_on_c, 0, 59, 79
2, 5736, Note_on_c, 0, 62, 0
2, 5743, Note_on_c, 0, 62, 66
2, 5744, Note_on_c, 0, 67, 0
2, 5748, Note_on_c, 0, 76, 94
2, 5756, Note_on_c, 0, 67, 77
2, 6074, Note_on_c, 0, 59, 0
2, 6081, Note_on_c, 0, 59, 76
2, 6259, Note_on_c, 0, 67, 0
2, 6259, Note_on_c, 0, 74, 0
2, 6266, Note_on_c, 0, 67, 82
2, 6266, Note_on_c, 0, 62, 0
2, 6270, Note_on_c, 0, 74, 88
2, 6273, Note_on_c, 0, 62, 76
2, 6443, Note_on_c, 0, 74, 0
2, 6448, Note_on_c, 0, 74, 97
2, 6615, Note_on_c, 0, 47, 82
2, 6620, Note_on_c, 0, 62, 0
2, 6620, Note_on_c, 0, 69, 0
2, 6624, Note_on_c, 0, 69, 70
2, 6626, Note_on_c, 0, 62, 68
2, 6629, Note_on_c, 0, 66, 71
2, 6631, Control_c, 0, 64, 0
2, 6632, Note_on_c, 0, 52, 0
2, 6632, Note_on_c, 0, 59, 0
2, 6633, Note_on_c, 0, 76, 0
2, 6634, Note_on_c, 0, 78, 0
2, 6635, Note_on_c, 0, 67, 0
2, 6636, Note_on_c, 0, 79, 0
2, 6712, Control_c, 0, 64, 127
2, 6907, Note_on_c, 0, 54, 78
2, 7165, Note_on_c, 0, 62, 0
2, 7172, Note_on_c, 0, 62, 79
2, 7179, Note_on_c, 0, 57, 75
2, 7518, Note_on_c, 0, 54, 0
2, 7522, Note_on_c, 0, 71, 103
2, 7528, Note_on_c, 0, 54, 87
2, 7695, Note_on_c, 0, 57, 0
2, 7695, Note_on_c, 0, 62, 0
2, 7701, Note_on_c, 0, 62, 94
2, 7705, Note_on_c, 0, 57, 86
2, 7864, Note_on_c, 0, 74, 0
2, 7868, Note_on_c, 0, 74, 105
2, 7963, Control_c, 0, 64, 0
2, 7965, Note_on_c, 0, 57, 0
2, 7965, Note_on_c, 0, 66, 0
2, 7965, Note_on_c, 0, 47, 0
2, 7966, Note_on_c, 0, 62, 0
2, 7966, Note_on_c, 0, 54, 0
2, 7967, Note_on_c, 0, 74, 0
2, 7967, Note_on_c, 0, 71, 0
2, 7979, Note_on_c, 0, 69, 0
2, 8037, Note_on_c, 0, 55, 97
2, 8037, Note_on_c, 0, 76, 106
2, 8041, Note_on_c, 0, 52, 91
2, 8042, Note_on_c, 0, 71, 98
2, 8044, Note_on_c, 0, 48, 87
2, 8044, Note_on_c, 0, 67, 100
2, 8079, Control_c, 0, 64, 127
2, 8311, Note_on_c, 0, 36, 98
2, 8586, Note_on_c, 0, 52, 0
2, 8586, Note_on_c, 0, 55, 0
2, 8589, Note_on_c, 0, 59, 105
2, 8590, Note_on_c, 0, 55, 97
2, 8590, Note_on_c, 0, 64, 105
2, 8591, Note_on_c, 0, 52, 93
2, 8924, Note_on_c, 0, 48, 0
2, 8931, Note_on_c, 0, 36, 0
2, 8931, Note_on_c, 0, 76, 0
2, 8935, Note_on_c, 0, 48, 95
2, 8935, Note_on_c, 0, 76, 110
2, 8936, Note_on_c, 0, 36, 84
2, 9108, Note_on_c, 0, 52, 0
2, 9108, Note_on_c, 0, 55, 0
2, 9108, Note_on_c, 0, 59, 0
2, 9113, Note_on_c, 0, 64, 0
2, 9116, Note_on_c, 0, 59, 103
2, 9118, Note_on_c, 0, 55, 93
2, 9119, Note_on_c, 0, 52, 93
2, 9271, Note_on_c, 0, 79, 109
2, 9358, Control_c, 0, 64, 0
2, 9365, Note_on_c, 0, 71, 0
2, 9365, Note_on_c, 0, 67, 0
2, 9366, Note_on_c, 0, 52, 0
2, 9366, Note_on_c, 0, 76, 0
2, 9366, Note_on_c, 0, 59, 0
2, 9367, Note_on_c, 0, 55, 0
2, 9368, Note_on_c, 0, 48, 0
2, 9368, Note_on_c, 0, 79, 0
2, 9384, Note_on_c, 0, 36, 0
2, 9449, Note_on_c, 0, 57, 108
2, 9451, Note_on_c, 0, 50, 93
2, 9451, Note_on_c, 0, 54, 99
2, 9453, Note_on_c, 0, 74, 102
2, 9453, Note_on_c, 0, 81, 104
2, 9456, Note_on_c, 0, 78, 109
2, 9500, Control_c, 0, 64, 127
2, 9711, Note_on_c, 0, 38, 102
2, 9984, Note_on_c, 0, 50, 0
2, 9984, Note_on_c, 0, 54, 0
2, 9984, Note_on_c, 0, 57, 0
2, 9987, Note_on_c, 0, 69, 106
2, 9988, Note_on_c, 0, 62, 102
2, 9990, Note_on_c, 0, 57, 108
2, 9993, Note_on_c, 0, 50, 90
2, 9993, Note_on_c, 0, 54, 102
2, 10314, Note_on_c, 0, 50, 0
2, 10321, Note_on_c, 0, 54, 0
2, 10324, Note_on_c, 0, 79, 111
2, 10324, Note_on_c, 0, 38, 0
2, 10324, Note_on_c, 0, 50, 96
2, 10325, Note_on_c, 0, 67, 108
2, 10333, Note_on_c, 0, 54, 92
2, 10483, Note_on_c, 0, 54, 0
2, 10483, Note_on_c, 0, 57, 0
2, 10483, Note_on_c, 0, 62, 0
2, 10491, Note_on_c, 0, 57, 107
2, 10491, Note_on_c, 0, 54, 105
2, 10492, Note_on_c, 0, 62, 103
2, 10494, Note_on_c, 0, 50, 0
2, 10638, Note_on_c, 0, 54, 0
2, 10638, Note_on_c, 0, 57, 0
2, 10638, Note_on_c, 0, 79, 0
2, 10639, Note_on_c, 0, 62, 0
2, 10639, Note_on_c, 0, 74, 0
2, 10640, Note_on_c, 0, 67, 0
2, 10640, Note_on_c, 0, 78, 0
2, 10641, Control_c, 0, 64, 0
2, 10644, Note_on_c, 0, 69, 0
2, 10644, Note_on_c, 0, 81, 0
2, 10649, Note_on_c, 0, 81, 110
2, 10650, Note_on_c, 0, 69, 110
2, 10790, Note_on_c, 0, 69, 0
2, 10835, Note_on_c, 0, 71, 109
2, 10836, Note_on_c, 0, 74, 109
2, 10838, Note_on_c, 0, 40, 104
2, 10838, Note_on_c, 0, 83, 104
2, 10840, Note_on_c, 0, 28, 105
2, 10851, Control_c, 0, 64, 127
2, 10859, Note_on_c, 0, 81, 0
2, 11014, Note_on_c, 0, 26, 90
2, 11017, Note_on_c, 0, 38, 86
2, 11097, Note_on_c, 0, 26, 0
2, 11097, Note_on_c, 0, 38, 0
2, 11107, Note_on_c, 0, 38, 95
2, 11107, Note_on_c, 0, 50, 93
2, 11107, Note_on_c, 0, 26, 92
2, 11108, Note_on_c, 0, 45, 94
2, 11351, Note_on_c, 0, 40, 0
2, 11354, Note_on_c, 0, 47, 107
2, 11354, Note_on_c, 0, 52, 100
2, 11355, Note_on_c, 0, 40, 91
2, 11635, Note_on_c, 0, 50, 0
2, 11642, Note_on_c, 0, 38, 0
2, 11642, Note_on_c, 0, 45, 0
2, 11646, Note_on_c, 0, 50, 102
2, 11649, Note_on_c, 0, 38, 96
2, 11651, Note_on_c, 0, 45, 97
2, 11842, Note_on_c, 0, 52, 0
2, 11842, Note_on_c, 0, 71, 0
2, 11846, Note_on_c, 0, 79, 109
2, 11848, Note_on_c, 0, 67, 105
2, 11849, Note_on_c, 0, 71, 105
2, 11853, Note_on_c, 0, 52, 94
2, 11855, Note_on_c, 0, 59, 90
2, 11865, Note_on_c, 0, 55, 73
2, 11911, Note_on_c, 0, 79, 0
2, 11917, Note_on_c, 0, 79, 103
2, 11936, Control_c, 0, 64, 0
2, 11957, Control_c, 0, 64, 127
2, 11996, Note_on_c, 0, 52, 0
2, 11996, Note_on_c, 0, 55, 0
2, 11996, Note_on_c, 0, 59, 0
2, 11996, Note_on_c, 0, 67, 0
2, 11996, Note_on_c, 0, 71, 0
2, 11996, Note_on_c, 0, 74, 0
2, 11996, Note_on_c, 0, 79, 0
2, 11999, Note_on_c, 0, 62, 92
2, 12000, Note_on_c, 0, 71, 94
2, 12001, Note_on_c, 0, 59, 91
2, 12001, Note_on_c, 0, 67, 92
2, 12002, Note_on_c, 0, 79, 101
2, 12005, Note_on_c, 0, 55, 91
2, 12005, Note_on_c, 0, 74, 86
2, 12006, Note_on_c, 0, 52, 91
2, 12072, Note_on_c, 0, 67, 0
2, 12072, Note_on_c, 0, 71, 0
2, 12072, Note_on_c, 0, 79, 0
2, 12080, Note_on_c, 0, 71, 102
2, 12082, Note_on_c, 0, 79, 105
2, 12082, Note_on_c, 0, 67, 97
2, 12117, Control_c, 0, 64, 0
2, 12124, Note_on_c, 0, 67, 0
2, 12125, Note_on_c, 0, 38, 0
2, 12126, Note_on_c, 0, 62, 0
2, 12126, Note_on_c, 0, 74, 0
2, 12128, Note_on_c, 0, 55, 0
2, 12129, Note_on_c, 0, 52, 0
2, 12129, Note_on_c, 0, 50, 0
2, 12129, Note_on_c, 0, 47, 0
2, 12130, Note_on_c, 0, 59, 0
2, 12134, Note_on_c, 0, 28, 0
2, 12142, Note_on_c, 0, 26, 0
2, 12142, Note_on_c, 0, 40, 0
2, 12142, Note_on_c, 0, 45, 0
2, 12142, Note_on_c, 0, 83, 0
2, 12175, Note_on_c, 0, 47, 107
2, 12176, Note_on_c, 0, 40, 101
2, 12176, Note_on_c, 0, 52, 103
2, 12195, Control_c, 0, 64, 127
2, 12361, Note_on_c, 0, 26, 84
2, 12363, Note_on_c, 0, 38, 76
2, 12372, Note_on_c, 0, 26, 0
2, 12441, Note_on_c, 0, 38, 0
2, 12445, Note_on_c, 0, 50, 99
2, 12446, Note_on_c, 0, 45, 98
2, 12446, Note_on_c, 0, 38, 88
2, 12494, Control_c, 0, 64, 0
2, 12507, Note_on_c, 0, 47, 0
2, 12533, Note_on_c, 0, 79, 0
2, 12579, Control_c, 0, 64, 127
2, 12593, Note_on_c, 0, 28, 80
2, 12695, Note_on_c, 0, 40, 0
2, 12695, Note_on_c, 0, 52, 0
2, 12699, Note_on_c, 0, 52, 97
2, 12700, Note_on_c, 0, 40, 93
2, 12700, Note_on_c, 0, 47, 106
2, 12756, Note_on_c, 0, 38, 0
2, 12787, Note_on_c, 0, 45, 0
2, 12923, Note_on_c, 0, 26, 92
2, 12925, Note_on_c, 0, 38, 86
2, 12971, Note_on_c, 0, 28, 0
2, 12994, Note_on_c, 0, 38, 0
2, 12994, Note_on_c, 0, 50, 0
2, 13003, Note_on_c, 0, 50, 105
2, 13005, Note_on_c, 0, 38, 96
2, 13006, Note_on_c, 0, 45, 94
2, 13009, Note_on_c, 0, 26, 0
2, 13017, Control_c, 0, 64, 0
2, 13020, Note_on_c, 0, 40, 0
2, 13021, Note_on_c, 0, 47, 0
2, 13025, Note_on_c, 0, 71, 0
2, 13102, Control_c, 0, 64, 127
2, 13194, Note_on_c, 0, 52, 0
2, 13200, Note_on_c, 0, 74, 109
2, 13200, Note_on_c, 0, 71, 108
2, 13202, Note_on_c, 0, 59, 91
2, 13202, Note_on_c, 0, 83, 111
2, 13205, Note_on_c, 0, 52, 93
2, 13205, Note_on_c, 0, 55, 85
2, 13263, Note_on_c, 0, 59, 0
2, 13271, Note_on_c, 0, 71, 0
2, 13271, Note_on_c, 0, 83, 0
2, 13274, Note_on_c, 0, 59, 86
2, 13275, Note_on_c, 0, 71, 100
2, 13276, Note_on_c, 0, 83, 103
2, 13347, Note_on_c, 0, 55, 0
2, 13347, Note_on_c, 0, 59, 0
2, 13347, Note_on_c, 0, 83, 0
2, 13355, Note_on_c, 0, 71, 0
2, 13355, Note_on_c, 0, 74, 0
2, 13358, Note_on_c, 0, 83, 105
2, 13358, Note_on_c, 0, 59, 96
2, 13359, Note_on_c, 0, 62, 97
2, 13359, Note_on_c, 0, 55, 94
2, 13360, Note_on_c, 0, 71, 98
2, 13360, Note_on_c, 0, 74, 105
2, 13360, Note_on_c, 0, 79, 85
2, 13362, Note_on_c, 0, 50, 0
2, 13424, Note_on_c, 0, 71, 0
2, 13424, Note_on_c, 0, 74, 0
2, 13424, Note_on_c, 0, 83, 0
2, 13432, Note_on_c, 0, 79, 0
2, 13435, Note_on_c, 0, 71, 109
2, 13435, Note_on_c, 0, 74, 108
2, 13435, Note_on_c, 0, 83, 108
2, 13439, Note_on_c, 0, 79, 95
2, 13501, Control_c, 0, 64, 0
2, 13505, Note_on_c, 0, 45, 0
2, 13511, Note_on_c, 0, 38, 0
2, 13524, Note_on_c, 0, 52, 0
2, 13529, Note_on_c, 0, 52, 103
2, 13529, Note_on_c, 0, 47, 105
2, 13530, Note_on_c, 0, 40, 102
2, 13555, Control_c, 0, 64, 127
2, 13570, Note_on_c, 0, 79, 0
2, 13793, Note_on_c, 0, 55, 0
2, 13796, Note_on_c, 0, 45, 98
2, 13797, Note_on_c, 0, 50, 101
2, 13798, Note_on_c, 0, 33, 83
2, 13800, Note_on_c, 0, 74, 0
2, 13801, Note_on_c, 0, 38, 92
2, 13804, Note_on_c, 0, 40, 0
2, 13806, Control_c, 0, 64, 0
2, 13806, Note_on_c, 0, 47, 0
2, 13806, Note_on_c, 0, 52, 0
2, 13824, Note_on_c, 0, 71, 0
2, 13824, Note_on_c, 0, 83, 0
2, 13870, Note_on_c, 0, 59, 0
2, 13885, Note_on_c, 0, 33, 0
2, 13885, Note_on_c, 0, 62, 0
2, 13931, Control_c, 0, 64, 127
2, 14036, Note_on_c, 0, 45, 0
2, 14042, Control_c, 0, 64, 0
2, 14042, Note_on_c, 0, 40, 98
2, 14042, Note_on_c, 0, 52, 101
2, 14042, Note_on_c, 0, 47, 103
2, 14085, Note_on_c, 0, 38, 0
2, 14085, Control_c, 0, 64, 127
2, 14265, Note_on_c, 0, 47, 0
2, 14266, Note_on_c, 0, 26, 92
2, 14270, Note_on_c, 0, 38, 83
2, 14277, Note_on_c, 0, 26, 0
2, 14335, Control_c, 0, 64, 0
2, 14338, Note_on_c, 0, 38, 0
2, 14338, Note_on_c, 0, 50, 0
2, 14343, Note_on_c, 0, 50, 103
2, 14344, Note_on_c, 0, 45, 101
2, 14346, Note_on_c, 0, 38, 96
2, 14369, Note_on_c, 0, 40, 0
2, 14392, Control_c, 0, 64, 127
2, 14407, Note_on_c, 0, 45, 0
2, 14418, Note_on_c, 0, 45, 78
2, 14419, Note_on_c, 0, 47, 76
2, 14527, Note_on_c, 0, 79, 109
2, 14529, Note_on_c, 0, 71, 109
2, 14530, Note_on_c, 0, 52, 0
2, 14533, Note_on_c, 0, 67, 101
2, 14534, Note_on_c, 0, 59, 94
2, 14535, Note_on_c, 0, 52, 93
2, 14607, Note_on_c, 0, 67, 0
2, 14607, Note_on_c, 0, 71, 0
2, 14607, Note_on_c, 0, 79, 0
2, 14611, Note_on_c, 0, 71, 91
2, 14611, Note_on_c, 0, 79, 102
2, 14611, Note_on_c, 0, 67, 95
2, 14684, Note_on_c, 0, 79, 0
2, 14691, Note_on_c, 0, 59, 0
2, 14691, Note_on_c, 0, 67, 0
2, 14691, Note_on_c, 0, 71, 0
2, 14693, Note_on_c, 0, 47, 0
2, 14694, Note_on_c, 0, 79, 102
2, 14695, Note_on_c, 0, 50, 0
2, 14695, Note_on_c, 0, 59, 90
2, 14695, Note_on_c, 0, 67, 99
2, 14695, Note_on_c, 0, 71, 97
2, 14700, Note_on_c, 0, 62, 94
2, 14705, Note_on_c, 0, 55, 84
2, 14760, Note_on_c, 0, 67, 0
2, 14760, Note_on_c, 0, 71, 0
2, 14760, Note_on_c, 0, 79, 0
2, 14771, Note_on_c, 0, 79, 108
2, 14772, Note_on_c, 0, 71, 106
2, 14772, Note_on_c, 0, 67, 97
2, 14788, Note_on_c, 0, 38, 0
2, 14788, Note_on_c, 0, 62, 0
2, 14789, Note_on_c, 0, 55, 0
2, 14790, Note_on_c, 0, 45, 0
2, 14790, Note_on_c, 0, 52, 0
2, 14794, Control_c, 0, 64, 0
2, 14837, Note_on_c, 0, 59, 0
2, 14856, Note_on_c, 0, 52, 101
2, 14856, Note_on_c, 0, 47, 100
2, 14857, Note_on_c, 0, 40, 97
2, 14883, Control_c, 0, 64, 127
2, 15058, Note_on_c, 0, 27, 80
2, 15058, Note_on_c, 0, 47, 0
2, 15068, Note_on_c, 0, 27, 0
2, 15121, Note_on_c, 0, 79, 0
2, 15125, Note_on_c, 0, 50, 102
2, 15126, Note_on_c, 0, 45, 96
2, 15127, Note_on_c, 0, 33, 80
2, 15132, Note_on_c, 0, 38, 92
2, 15141, Note_on_c, 0, 40, 0
2, 15142, Note_on_c, 0, 52, 0
2, 15154, Control_c, 0, 64, 0
2, 15160, Note_on_c, 0, 71, 0
2, 15168, Note_on_c, 0, 67, 0
2, 15285, Note_on_c, 0, 28, 84
2, 15285, Note_on_c, 0, 40, 74
2, 15375, Note_on_c, 0, 40, 0
2, 15378, Note_on_c, 0, 47, 108
2, 15379, Note_on_c, 0, 52, 101
2, 15380, Note_on_c, 0, 40, 97
2, 15383, Note_on_c, 0, 33, 0
2, 15386, Note_on_c, 0, 50, 0
2, 15421, Note_on_c, 0, 45, 0
2, 15444, Note_on_c, 0, 38, 0
2, 15588, Note_on_c, 0, 26, 82
2, 15593, Note_on_c, 0, 38, 82
2, 15598, Note_on_c, 0, 26, 0
2, 15636, Note_on_c, 0, 28, 0
2, 15636, Control_c, 0, 64, 127
2, 15659, Note_on_c, 0, 38, 0
2, 15663, Note_on_c, 0, 50, 103
2, 15663, Note_on_c, 0, 45, 102
2, 15663, Note_on_c, 0, 33, 86
2, 15664, Note_on_c, 0, 38, 93
2, 15690, Note_on_c, 0, 40, 0
2, 15859, Note_on_c, 0, 47, 0
2, 15869, Note_on_c, 0, 47, 102
2, 15872, Note_on_c, 0, 35, 91
2, 15874, Note_on_c, 0, 71, 100
2, 15905, Note_on_c, 0, 52, 0
2, 15945, Note_on_c, 0, 74, 102
2, 16028, Note_on_c, 0, 33, 0
2, 16028, Note_on_c, 0, 50, 0
2, 16031, Note_on_c, 0, 83, 105
2, 16035, Note_on_c, 0, 38, 0
2, 16038, Note_on_c, 0, 50, 98
2, 16041, Note_on_c, 0, 38, 93
2, 16052, Note_on_c, 0, 35, 0
2, 16053, Note_on_c, 0, 45, 0
2, 16053, Note_on_c, 0, 47, 0
2, 16054, Note_on_c, 0, 74, 0
2, 16054, Note_on_c, 0, 71, 0
2, 16054, Control_c, 0, 64, 0
2, 16135, Note_on_c, 0, 50, 0
2, 16151, Note_on_c, 0, 38, 0
2, 16189, Note_on_c, 0, 83, 0
2, 16211, Note_on_c, 0, 40, 94
2, 16213, Note_on_c, 0, 52, 101
2, 16214, Note_on_c, 0, 76, 109
2, 16296, Control_c, 0, 64, 127
2, 16477, Note_on_c, 0, 55, 96
2, 16477, Note_on_c, 0, 79, 101
2, 16484, Note_on_c, 0, 78, 69
2, 16488, Note_on_c, 0, 78, 0
2, 16750, Note_on_c, 0, 55, 0
2, 16753, Note_on_c, 0, 78, 102
2, 16756, Note_on_c, 0, 62, 96
2, 16760, Note_on_c, 0, 55, 82
2, 16760, Note_on_c, 0, 59, 90
2, 16926, Note_on_c, 0, 52, 0
2, 16931, Note_on_c, 0, 52, 60
2, 17035, Note_on_c, 0, 74, 90
2, 17141, Note_on_c, 0, 52, 0
2, 17146, Note_on_c, 0, 52, 68
2, 17233, Note_on_c, 0, 74, 0
2, 17238, Note_on_c, 0, 74, 75
2, 17287, Note_on_c, 0, 59, 0
2, 17287, Note_on_c, 0, 76, 0
2, 17291, Note_on_c, 0, 76, 100
2, 17295, Note_on_c, 0, 52, 0
2, 17295, Note_on_c, 0, 55, 0
2, 17295, Note_on_c, 0, 62, 0
2, 17298, Note_on_c, 0, 59, 88
2, 17299, Note_on_c, 0, 62, 90
2, 17299, Note_on_c, 0, 55, 85
2, 17305, Note_on_c, 0, 52, 74
2, 17448, Note_on_c, 0, 52, 0
2, 17456, Note_on_c, 0, 74, 0
2, 17459, Note_on_c, 0, 52, 65
2, 17466, Note_on_c, 0, 74, 103
2, 17566, Control_c, 0, 64, 0
2, 17568, Note_on_c, 0, 52, 0
2, 17568, Note_on_c, 0, 62, 0
2, 17569, Note_on_c, 0, 55, 0
2, 17569, Note_on_c, 0, 40, 0
2, 17569, Note_on_c, 0, 79, 0
2, 17569, Note_on_c, 0, 78, 0
2, 17569, Note_on_c, 0, 59, 0
2, 17569, Note_on_c, 0, 76, 0
2, 17635, Note_on_c, 0, 50, 86
2, 17636, Note_on_c, 0, 38, 88
2, 17679, Control_c, 0, 64, 127
2, 17809, Note_on_c, 0, 50, 0
2, 17820, Note_on_c, 0, 50, 66
2, 17913, Note_on_c, 0, 54, 80
2, 18040, Note_on_c, 0, 50, 0
2, 18051, Note_on_c, 0, 50, 66
2, 18178, Note_on_c, 0, 54, 0
2, 18182, Note_on_c, 0, 62, 92
2, 18185, Note_on_c, 0, 54, 79
2, 18196, Note_on_c, 0, 59, 80
2, 18276, Note_on_c, 0, 69, 82
2, 18347, Note_on_c, 0, 50, 0
2, 18352, Note_on_c, 0, 50, 66
2, 18369, Note_on_c, 0, 71, 82
2, 18439, Note_on_c, 0, 69, 0
2, 18444, Note_on_c, 0, 69, 92
2, 18516, Note_on_c, 0, 71, 0
2, 18524, Note_on_c, 0, 71, 89
2, 18531, Note_on_c, 0, 50, 0
2, 18538, Note_on_c, 0, 50, 70
2, 18593, Note_on_c, 0, 69, 0
2, 18601, Note_on_c, 0, 69, 96
2, 18670, Note_on_c, 0, 71, 0
2, 18676, Note_on_c, 0, 71, 101
2, 18700, Note_on_c, 0, 54, 0
2, 18700, Note_on_c, 0, 59, 0
2, 18700, Note_on_c, 0, 62, 0
2, 18706, Note_on_c, 0, 54, 92
2, 18706, Note_on_c, 0, 59, 92
2, 18708, Note_on_c, 0, 62, 96
2, 18854, Note_on_c, 0, 50, 0
2, 18854, Note_on_c, 0, 71, 0
2, 18859, Note_on_c, 0, 50, 78
2, 18865, Note_on_c, 0, 71, 93
2, 18937, Note_on_c, 0, 72, 99
2, 18957, Control_c, 0, 64, 0
2, 18964, Note_on_c, 0, 69, 0
2, 18964, Note_on_c, 0, 62, 0
2, 18964, Note_on_c, 0, 54, 0
2, 18965, Note_on_c, 0, 71, 0
2, 18965, Note_on_c, 0, 38, 0
2, 18965, Note_on_c, 0, 59, 0
2, 18965, Note_on_c, 0, 50, 0
2, 18969, Note_on_c, 0, 74, 0
2, 19030, Note_on_c, 0, 71, 100
2, 19033, Note_on_c, 0, 48, 94
2, 19035, Note_on_c, 0, 36, 89
2, 19047, Note_on_c, 0, 72, 0
2, 19061, Control_c, 0, 64, 127
2, 19200, Note_on_c, 0, 48, 0
2, 19208, Note_on_c, 0, 48, 67
2, 19297, Note_on_c, 0, 52, 84
2, 19305, Note_on_c, 0, 64, 90
2, 19392, Note_on_c, 0, 48, 0
2, 19400, Note_on_c, 0, 48, 69
2, 19572, Note_on_c, 0, 62, 97
2, 19576, Note_on_c, 0, 52, 0
2, 19582, Note_on_c, 0, 52, 69
2, 19594, Note_on_c, 0, 55, 73
2, 19729, Note_on_c, 0, 48, 0
2, 19740, Note_on_c, 0, 48, 69
2, 19929, Note_on_c, 0, 48, 0
2, 19940, Note_on_c, 0, 48, 63
2, 20090, Note_on_c, 0, 52, 0
2, 20090, Note_on_c, 0, 62, 0
2, 20098, Note_on_c, 0, 55, 0
2, 20099, Note_on_c, 0, 62, 92
2, 20102, Note_on_c, 0, 52, 80
2, 20102, Note_on_c, 0, 55, 74
2, 20259, Note_on_c, 0, 48, 0
2, 20264, Note_on_c, 0, 48, 77
2, 20343, Note_on_c, 0, 64, 0
2, 20343, Note_on_c, 0, 62, 0
2, 20343, Note_on_c, 0, 71, 0
2, 20344, Note_on_c, 0, 36, 0
2, 20345, Note_on_c, 0, 48, 0
2, 20345, Note_on_c, 0, 52, 0
2, 20346, Note_on_c, 0, 55, 0
2, 20347, Control_c, 0, 64, 0
2, 20422, Note_on_c, 0, 50, 92
2, 20423, Note_on_c, 0, 38, 92
2, 20444, Control_c, 0, 64, 127
2, 20582, Note_on_c, 0, 50, 0
2, 20587, Note_on_c, 0, 50, 63
2, 20599, Note_on_c, 0, 64, 96
2, 20654, Note_on_c, 0, 54, 91
2, 20757, Note_on_c, 0, 67, 102
2, 20759, Note_on_c, 0, 50, 0
2, 20764, Note_on_c, 0, 50, 69
2, 20832, Note_on_c, 0, 69, 104
2, 20912, Note_on_c, 0, 54, 0
2, 20921, Note_on_c, 0, 62, 97
2, 20923, Note_on_c, 0, 54, 85
2, 20926, Note_on_c, 0, 57, 91
2, 21016, Note_on_c, 0, 71, 108
2, 21104, Note_on_c, 0, 50, 0
2, 21110, Note_on_c, 0, 50, 89
2, 21258, Note_on_c, 0, 69, 0
2, 21267, Note_on_c, 0, 69, 105
2, 21269, Note_on_c, 0, 55, 97
2, 21350, Note_on_c, 0, 54, 0
2, 21361, Note_on_c, 0, 54, 94
2, 21427, Note_on_c, 0, 50, 0
2, 21427, Note_on_c, 0, 71, 0
2, 21434, Note_on_c, 0, 71, 108
2, 21436, Note_on_c, 0, 50, 81
2, 21531, Note_on_c, 0, 45, 76
2, 21596, Note_on_c, 0, 38, 0
2, 21603, Note_on_c, 0, 38, 84
2, 21607, Note_on_c, 0, 74, 109
2, 21674, Note_on_c, 0, 67, 0
2, 21674, Note_on_c, 0, 57, 0
2, 21675, Note_on_c, 0, 62, 0
2, 21676, Note_on_c, 0, 50, 0
2, 21676, Note_on_c, 0, 71, 0
2, 21676, Note_on_c, 0, 69, 0
2, 21676, Note_on_c, 0, 38, 0
2, 21676, Note_on_c, 0, 45, 0
2, 21676, Note_on_c, 0, 64, 0
2, 21679, Note_on_c, 0, 74, 0
2, 21684, Control_c, 0, 64, 0
2, 21688, Note_on_c, 0, 54, 0
2, 21688, Note_on_c, 0, 55, 0
2, 21770, Note_on_c, 0, 76, 106
2, 21772, Note_on_c, 0, 71, 89
2, 21772, Note_on_c, 0, 67, 97
2, 21774, Note_on_c, 0, 40, 88
2, 21775, Note_on_c, 0, 52, 95
2, 21780, Control_c, 0, 64, 127
2, 22040, Note_on_c, 0, 55, 99
2, 22045, Note_on_c, 0, 79, 103
2, 22315, Note_on_c, 0, 78, 104
2, 22318, Note_on_c, 0, 55, 0
2, 22318, Note_on_c, 0, 67, 0
2, 22322, Note_on_c, 0, 62, 91
2, 22322, Note_on_c, 0, 59, 93
2, 22328, Note_on_c, 0, 67, 85
2, 22328, Note_on_c, 0, 55, 87
2, 22487, Note_on_c, 0, 52, 0
2, 22493, Note_on_c, 0, 52, 75
2, 22584, Note_on_c, 0, 74, 93
2, 22694, Note_on_c, 0, 52, 0
2, 22702, Note_on_c, 0, 52, 73
2, 22786, Note_on_c, 0, 74, 0
2, 22796, Note_on_c, 0, 74, 71
2, 22848, Note_on_c, 0, 55, 0
2, 22848, Note_on_c, 0, 59, 0
2, 22848, Note_on_c, 0, 62, 0
2, 22848, Note_on_c, 0, 76, 0
2, 22855, Note_on_c, 0, 76, 105
2, 22858, Note_on_c, 0, 67, 0
2, 22858, Note_on_c, 0, 55, 91
2, 22858, Note_on_c, 0, 62, 92
2, 22859, Note_on_c, 0, 59, 91
2, 23009, Note_on_c, 0, 52, 0
2, 23009, Note_on_c, 0, 74, 0
2, 23013, Note_on_c, 0, 52, 75
2, 23020, Note_on_c, 0, 74, 106
2, 23120, Note_on_c, 0, 52, 0
2, 23121, Note_on_c, 0, 71, 0
2, 23121, Note_on_c, 0, 79, 0
2, 23121, Note_on_c, 0, 55, 0
2, 23121, Note_on_c, 0, 59, 0
2, 23121, Control_c, 0, 64, 0
2, 23121, Note_on_c, 0, 76, 0
2, 23121, Note_on_c, 0, 78, 0
2, 23132, Note_on_c, 0, 40, 0
2, 23155, Note_on_c, 0, 62, 0
2, 23186, Note_on_c, 0, 50, 96
2, 23189, Note_on_c, 0, 38, 90
2, 23224, Control_c, 0, 64, 127
2, 23449, Note_on_c, 0, 54, 95
2, 23554, Note_on_c, 0, 50, 0
2, 23558, Note_on_c, 0, 50, 67
2, 23708, Note_on_c, 0, 54, 0
2, 23714, Note_on_c, 0, 62, 95
2, 23718, Note_on_c, 0, 54, 88
2, 23719, Note_on_c, 0, 59, 91
2, 23823, Note_on_c, 0, 74, 0
2, 23829, Note_on_c, 0, 74, 101
2, 23906, Note_on_c, 0, 83, 100
2, 23982, Note_on_c, 0, 81, 102
2, 24046, Note_on_c, 0, 50, 0
2, 24046, Note_on_c, 0, 83, 0
2, 24055, Note_on_c, 0, 50, 63
2, 24057, Note_on_c, 0, 83, 101
2, 24130, Note_on_c, 0, 81, 0
2, 24141, Note_on_c, 0, 81, 100
2, 24222, Note_on_c, 0, 83, 0
2, 24230, Note_on_c, 0, 54, 0
2, 24230, Note_on_c, 0, 59, 0
2, 24230, Note_on_c, 0, 62, 0
2, 24233, Note_on_c, 0, 83, 105
2, 24234, Note_on_c, 0, 62, 89
2, 24235, Note_on_c, 0, 54, 96
2, 24235, Note_on_c, 0, 59, 100
2, 24399, Note_on_c, 0, 83, 0
2, 24405, Note_on_c, 0, 83, 99
2, 24478, Note_on_c, 0, 84, 105
2, 24497, Control_c, 0, 64, 0
2, 24500, Note_on_c, 0, 59, 0
2, 24500, Note_on_c, 0, 54, 0
2, 24501, Note_on_c, 0, 74, 0
2, 24501, Note_on_c, 0, 38, 0
2, 24502, Note_on_c, 0, 83, 0
2, 24502, Note_on_c, 0, 50, 0
2, 24502, Note_on_c, 0, 62, 0
2, 24502, Note_on_c, 0, 81, 0
2, 24571, Note_on_c, 0, 83, 106
2, 24571, Note_on_c, 0, 48, 99
2, 24572, Note_on_c, 0, 74, 105
2, 24573, Note_on_c, 0, 84, 0
2, 24577, Note_on_c, 0, 36, 91
2, 24591, Control_c, 0, 64, 127
2, 24737, Note_on_c, 0, 48, 0
2, 24742, Note_on_c, 0, 48, 70
2, 24820, Note_on_c, 0, 52, 92
2, 24846, Note_on_c, 0, 79, 101
2, 25105, Note_on_c, 0, 52, 0
2, 25109, Note_on_c, 0, 62, 96
2, 25115, Note_on_c, 0, 55, 87
2, 25116, Note_on_c, 0, 52, 82
2, 25282, Note_on_c, 0, 48, 0
2, 25286, Note_on_c, 0, 48, 77
2, 25451, Note_on_c, 0, 48, 0
2, 25460, Note_on_c, 0, 48, 76
2, 25628, Note_on_c, 0, 62, 0
2, 25635, Note_on_c, 0, 52, 0
2, 25635, Note_on_c, 0, 55, 0
2, 25638, Note_on_c, 0, 62, 101
2, 25640, Note_on_c, 0, 52, 86
2, 25641, Note_on_c, 0, 55, 82
2, 25774, Note_on_c, 0, 48, 0
2, 25778, Note_on_c, 0, 48, 87
2, 25804, Note_on_c, 0, 79, 0
2, 25809, Note_on_c, 0, 79, 104
2, 25893, Note_on_c, 0, 83, 0
2, 25893, Note_on_c, 0, 62, 0
2, 25894, Note_on_c, 0, 74, 0
2, 25895, Note_on_c, 0, 52, 0
2, 25895, Note_on_c, 0, 48, 0
2, 25897, Note_on_c, 0, 55, 0
2, 25897, Control_c, 0, 64, 0
2, 25912, Note_on_c, 0, 36, 0
2, 25978, Note_on_c, 0, 50, 98
2, 25979, Note_on_c, 0, 38, 95
2, 25979, Note_on_c, 0, 78, 108
2, 25984, Note_on_c, 0, 74, 97
2, 26004, Control_c, 0, 64, 127
2, 26227, Note_on_c, 0, 78, 0
2, 26231, Note_on_c, 0, 54, 97
2, 26236, Note_on_c, 0, 78, 103
2, 26327, Note_on_c, 0, 50, 0
2, 26331, Note_on_c, 0, 50, 72
2, 26496, Note_on_c, 0, 79, 0
2, 26503, Note_on_c, 0, 54, 0
2, 26503, Note_on_c, 0, 74, 0
2, 26507, Note_on_c, 0, 79, 103
2, 26507, Note_on_c, 0, 62, 99
2, 26508, Note_on_c, 0, 54, 87
2, 26512, Note_on_c, 0, 74, 101
2, 26513, Note_on_c, 0, 69, 86
2, 26514, Note_on_c, 0, 57, 95
2, 26664, Note_on_c, 0, 50, 0
2, 26669, Note_on_c, 0, 81, 106
2, 26670, Note_on_c, 0, 50, 92
2, 26827, Note_on_c, 0, 55, 96
2, 26910, Note_on_c, 0, 54, 0
2, 26918, Note_on_c, 0, 54, 95
2, 27010, Note_on_c, 0, 50, 0
2, 27015, Note_on_c, 0, 50, 86
2, 27101, Note_on_c, 0, 45, 86
2, 27145, Note_on_c, 0, 79, 0
2, 27146, Note_on_c, 0, 81, 0
2, 27146, Note_on_c, 0, 74, 0
2, 27146, Note_on_c, 0, 57, 0
2, 27146, Note_on_c, 0, 62, 0
2, 27146, Note_on_c, 0, 69, 0
2, 27146, Note_on_c, 0, 55, 0
2, 27146, Note_on_c, 0, 54, 0
2, 27147, Note_on_c, 0, 50, 0
2, 27149, Control_c, 0, 64, 0
2, 27164, Note_on_c, 0, 78, 0
2, 27179, Note_on_c, 0, 38, 0
2, 27187, Note_on_c, 0, 38, 86
2, 27190, Note_on_c, 0, 67, 100
2, 27252, Note_on_c, 0, 38, 0
2, 27264, Note_on_c, 0, 45, 0
2, 27310, Note_on_c, 0, 67, 0
2, 27345, Note_on_c, 0, 59, 105
2, 27346, Note_on_c, 0, 69, 105
2, 27349, Note_on_c, 0, 55, 99
2, 27352, Note_on_c, 0, 52, 96
2, 27353, Note_on_c, 0, 64, 88
2, 27371, Control_c, 0, 64, 127
2, 27505, Note_on_c, 0, 40, 86
2, 27544, Control_c, 0, 64, 0
2, 27555, Note_on_c, 0, 59, 0
2, 27558, Note_on_c, 0, 52, 0
2, 27560, Note_on_c, 0, 55, 0
2, 27598, Note_on_c, 0, 47, 91
2, 27598, Note_on_c, 0, 67, 97
2, 27618, Note_on_c, 0, 69, 0
2, 27655, Note_on_c, 0, 64, 0
2, 27678, Note_on_c, 0, 40, 0
2, 27684, Note_on_c, 0, 47, 0
2, 27689, Note_on_c, 0, 52, 88
2, 27778, Note_on_c, 0, 52, 0
2, 27788, Note_on_c, 0, 52, 90
2, 27841, Note_on_c, 0, 67, 0
2, 27875, Note_on_c, 0, 64, 106
2, 27882, Note_on_c, 0, 59, 103
2, 27882, Note_on_c, 0, 55, 102
2, 27901, Control_c, 0, 64, 127
2, 28151, Note_on_c, 0, 40, 78
2, 28153, Note_on_c, 0, 67, 99
2, 28231, Note_on_c, 0, 52, 0
2, 28235, Note_on_c, 0, 52, 85
2, 28323, Note_on_c, 0, 52, 0
2, 28330, Note_on_c, 0, 52, 83
2, 28400, Note_on_c, 0, 59, 0
2, 28408, Note_on_c, 0, 55, 0
2, 28410, Note_on_c, 0, 59, 110
2, 28411, Note_on_c, 0, 71, 107
2, 28412, Note_on_c, 0, 55, 97
2, 28545, Note_on_c, 0, 67, 0
2, 28545, Note_on_c, 0, 52, 0
2, 28547, Note_on_c, 0, 55, 0
2, 28547, Note_on_c, 0, 59, 0
2, 28548, Note_on_c, 0, 64, 0
2, 28550, Note_on_c, 0, 71, 0
2, 28554, Control_c, 0, 64, 0
2, 28569, Note_on_c, 0, 40, 0
2, 28574, Note_on_c, 0, 69, 110
2, 28730, Note_on_c, 0, 57, 99
2, 28732, Note_on_c, 0, 54, 97
2, 28733, Note_on_c, 0, 50, 93
2, 28899, Control_c, 0, 64, 127
2, 28903, Note_on_c, 0, 81, 101
2, 28905, Note_on_c, 0, 38, 82
2, 28994, Note_on_c, 0, 45, 77
2, 29061, Note_on_c, 0, 50, 0
2, 29065, Note_on_c, 0, 50, 91
2, 29076, Note_on_c, 0, 81, 0
2, 29086, Note_on_c, 0, 81, 103
2, 29160, Note_on_c, 0, 50, 0
2, 29171, Note_on_c, 0, 50, 83
2, 29237, Note_on_c, 0, 57, 0
2, 29237, Note_on_c, 0, 81, 0
2, 29243, Note_on_c, 0, 81, 110
2, 29245, Note_on_c, 0, 54, 0
2, 29248, Note_on_c, 0, 57, 109
2, 29249, Note_on_c, 0, 54, 92
2, 29399, Note_on_c, 0, 81, 0
2, 29406, Note_on_c, 0, 81, 107
2, 29498, Note_on_c, 0, 38, 0
2, 29509, Note_on_c, 0, 38, 80
2, 29575, Note_on_c, 0, 50, 0
2, 29586, Note_on_c, 0, 50, 88
2, 29667, Note_on_c, 0, 45, 0
2, 29675, Note_on_c, 0, 50, 0
2, 29677, Note_on_c, 0, 83, 109
2, 29678, Note_on_c, 0, 45, 67
2, 29682, Note_on_c, 0, 50, 80
2, 29760, Note_on_c, 0, 54, 0
2, 29760, Note_on_c, 0, 57, 0
2, 29764, Note_on_c, 0, 57, 106
2, 29764, Note_on_c, 0, 54, 104
2, 29938, Note_on_c, 0, 67, 108
2, 29960, Note_on_c, 0, 83, 0
2, 29961, Control_c, 0, 64, 0
2, 29961, Note_on_c, 0, 57, 0
2, 29961, Note_on_c, 0, 81, 0
2, 29962, Note_on_c, 0, 54, 0
2, 29962, Note_on_c, 0, 45, 0
2, 29962, Note_on_c, 0, 38, 0
2, 29963, Note_on_c, 0, 50, 0
2, 29963, Note_on_c, 0, 69, 0
2, 30093, Note_on_c, 0, 59, 109
2, 30094, Note_on_c, 0, 69, 109
2, 30094, Note_on_c, 0, 55, 94
2, 30097, Note_on_c, 0, 52, 93
2, 30100, Note_on_c, 0, 64, 90
2, 30128, Note_on_c, 0, 67, 0
2, 30128, Control_c, 0, 64, 127
2, 30253, Note_on_c, 0, 36, 86
2, 30347, Note_on_c, 0, 43, 86
2, 30347, Note_on_c, 0, 67, 101
2, 30371, Note_on_c, 0, 36, 0
2, 30373, Note_on_c, 0, 59, 0
2, 30375, Note_on_c, 0, 52, 0
2, 30377, Control_c, 0, 64, 0
2, 30380, Note_on_c, 0, 69, 0
2, 30382, Note_on_c, 0, 55, 0
2, 30405, Note_on_c, 0, 64, 0
2, 30425, Note_on_c, 0, 48, 95
2, 30435, Note_on_c, 0, 43, 0
2, 30463, Note_on_c, 0, 48, 0
2, 30526, Note_on_c, 0, 48, 84
2, 30551, Note_on_c, 0, 67, 0
2, 30618, Note_on_c, 0, 59, 107
2, 30621, Note_on_c, 0, 64, 106
2, 30622, Note_on_c, 0, 52, 96
2, 30622, Note_on_c, 0, 55, 101
2, 30881, Control_c, 0, 64, 127
2, 30882, Note_on_c, 0, 36, 85
2, 30885, Note_on_c, 0, 67, 100
2, 30958, Note_on_c, 0, 48, 0
2, 30968, Note_on_c, 0, 48, 89
2, 31050, Note_on_c, 0, 48, 0
2, 31056, Note_on_c, 0, 48, 80
2, 31134, Note_on_c, 0, 52, 0
2, 31134, Note_on_c, 0, 55, 0
2, 31134, Note_on_c, 0, 59, 0
2, 31140, Note_on_c, 0, 59, 109
2, 31141, Note_on_c, 0, 71, 107
2, 31143, Note_on_c, 0, 55, 102
2, 31143, Control_c, 0, 64, 0
2, 31145, Note_on_c, 0, 52, 90
2, 31188, Control_c, 0, 64, 127
2, 31314, Note_on_c, 0, 74, 112
2, 31360, Note_on_c, 0, 48, 0
2, 31360, Note_on_c, 0, 64, 0
2, 31360, Note_on_c, 0, 67, 0
2, 31360, Control_c, 0, 64, 0
2, 31361, Note_on_c, 0, 55, 0
2, 31361, Note_on_c, 0, 52, 0
2, 31361, Note_on_c, 0, 71, 0
2, 31361, Note_on_c, 0, 59, 0
2, 31372, Note_on_c, 0, 36, 0
2, 31467, Note_on_c, 0, 57, 103
2, 31468, Note_on_c, 0, 54, 101
2, 31469, Note_on_c, 0, 50, 94
2, 31511, Control_c, 0, 64, 127
2, 31651, Note_on_c, 0, 38, 81
2, 31653, Note_on_c, 0, 81, 96
2, 31729, Note_on_c, 0, 45, 77
2, 31818, Note_on_c, 0, 50, 0
2, 31818, Note_on_c, 0, 81, 0
2, 31822, Note_on_c, 0, 81, 95
2, 31823, Note_on_c, 0, 50, 85
2, 31925, Note_on_c, 0, 50, 0
2, 31929, Note_on_c, 0, 50, 79
2, 31994, Note_on_c, 0, 50, 0
2, 31994, Note_on_c, 0, 54, 0
2, 31994, Note_on_c, 0, 57, 0
2, 31994, Note_on_c, 0, 81, 0
2, 32003, Note_on_c, 0, 81, 109
2, 32003, Note_on_c, 0, 57, 105
2, 32004, Note_on_c, 0, 54, 99
2, 32005, Note_on_c, 0, 50, 78
2, 32156, Note_on_c, 0, 81, 0
2, 32161, Note_on_c, 0, 81, 110
2, 32240, Note_on_c, 0, 38, 0
2, 32248, Note_on_c, 0, 38, 86
2, 32325, Note_on_c, 0, 50, 0
2, 32334, Note_on_c, 0, 50, 88
2, 32409, Note_on_c, 0, 54, 0
2, 32411, Note_on_c, 0, 79, 105
2, 32419, Note_on_c, 0, 54, 74
2, 32424, Note_on_c, 0, 50, 0
2, 32435, Note_on_c, 0, 50, 81
2, 32509, Note_on_c, 0, 54, 0
2, 32509, Note_on_c, 0, 57, 0
2, 32513, Note_on_c, 0, 57, 107
2, 32513, Note_on_c, 0, 54, 100
2, 32694, Note_on_c, 0, 79, 0
2, 32696, Note_on_c, 0, 67, 108
2, 32696, Note_on_c, 0, 57, 0
2, 32696, Note_on_c, 0, 74, 0
2, 32697, Note_on_c, 0, 81, 0
2, 32697, Note_on_c, 0, 38, 0
2, 32697, Note_on_c, 0, 54, 0
2, 32697, Note_on_c, 0, 45, 0
2, 32697, Note_on_c, 0, 50, 0
2, 32698, Control_c, 0, 64, 0
2, 32865, Note_on_c, 0, 69, 107
2, 32867, Note_on_c, 0, 59, 104
2, 32867, Note_on_c, 0, 52, 96
2, 32868, Note_on_c, 0, 55, 98
2, 32885, Control_c, 0, 64, 127
2, 33029, Note_on_c, 0, 40, 84
2, 33108, Note_on_c, 0, 67, 0
2, 33114, Note_on_c, 0, 47, 95
2, 33115, Note_on_c, 0, 67, 98
2, 33192, Note_on_c, 0, 52, 0
2, 33196, Control_c, 0, 64, 0
2, 33201, Note_on_c, 0, 69, 0
2, 33202, Note_on_c, 0, 59, 0
2, 33202, Note_on_c, 0, 40, 0
2, 33203, Note_on_c, 0, 52, 92
2, 33205, Note_on_c, 0, 47, 0
2, 33216, Note_on_c, 0, 55, 0
2, 33277, Note_on_c, 0, 52, 0
2, 33302, Note_on_c, 0, 52, 88
2, 33389, Note_on_c, 0, 59, 105
2, 33389, Note_on_c, 0, 55, 99
2, 33391, Note_on_c, 0, 64, 105
2, 33408, Note_on_c, 0, 67, 0
2, 33415, Control_c, 0, 64, 127
2, 33659, Note_on_c, 0, 40, 80
2, 33664, Note_on_c, 0, 67, 100
2, 33745, Note_on_c, 0, 52, 0
2, 33756, Note_on_c, 0, 52, 94
2, 33853, Note_on_c, 0, 52, 0
2, 33857, Note_on_c, 0, 52, 88
2, 33930, Note_on_c, 0, 55, 0
2, 33930, Note_on_c, 0, 59, 0
2, 33934, Note_on_c, 0, 71, 107
2, 33934, Note_on_c, 0, 59, 110
2, 33936, Note_on_c, 0, 55, 103
2, 34108, Note_on_c, 0, 45, 68
2, 34112, Note_on_c, 0, 69, 108
2, 34114, Note_on_c, 0, 45, 0
2, 34141, Control_c, 0, 64, 0
2, 34148, Note_on_c, 0, 67, 0
2, 34148, Note_on_c, 0, 40, 0
2, 34148, Note_on_c, 0, 52, 0
2, 34148, Note_on_c, 0, 71, 0
2, 34148, Note_on_c, 0, 59, 0
2, 34149, Note_on_c, 0, 64, 0
2, 34149, Note_on_c, 0, 55, 0
2, 34262, Note_on_c, 0, 57, 103
2, 34264, Note_on_c, 0, 54, 98
2, 34264, Note_on_c, 0, 50, 93
2, 34291, Control_c, 0, 64, 127
2, 34450, Note_on_c, 0, 38, 82
2, 34534, Note_on_c, 0, 45, 79
2, 34629, Note_on_c, 0, 50, 0
2, 34636, Note_on_c, 0, 69, 0
2, 34638, Note_on_c, 0, 50, 96
2, 34640, Note_on_c, 0, 81, 104
2, 34642, Note_on_c, 0, 69, 105
2, 34744, Note_on_c, 0, 50, 0
2, 34755, Note_on_c, 0, 50, 84
2, 34813, Note_on_c, 0, 54, 0
2, 34813, Note_on_c, 0, 57, 0
2, 34817, Note_on_c, 0, 83, 103
2, 34819, Note_on_c, 0, 57, 107
2, 34821, Note_on_c, 0, 71, 101
2, 34822, Note_on_c, 0, 54, 103
2, 34974, Note_on_c, 0, 69, 0
2, 34974, Note_on_c, 0, 81, 0
2, 34979, Note_on_c, 0, 81, 107
2, 34979, Note_on_c, 0, 69, 105
2, 35051, Note_on_c, 0, 38, 0
2, 35058, Note_on_c, 0, 38, 85
2, 35143, Note_on_c, 0, 50, 0
2, 35143, Note_on_c, 0, 71, 0
2, 35143, Note_on_c, 0, 83, 0
2, 35154, Note_on_c, 0, 83, 104
2, 35154, Note_on_c, 0, 71, 104
2, 35154, Note_on_c, 0, 50, 93
2, 35235, Note_on_c, 0, 50, 0
2, 35246, Note_on_c, 0, 50, 82
2, 35320, Note_on_c, 0, 54, 0
2, 35320, Note_on_c, 0, 57, 0
2, 35324, Note_on_c, 0, 57, 101
2, 35324, Note_on_c, 0, 86, 108
2, 35325, Note_on_c, 0, 54, 94
2, 35327, Note_on_c, 0, 74, 111
2, 35458, Note_on_c, 0, 45, 0
2, 35464, Note_on_c, 0, 45, 52
2, 35496, Note_on_c, 0, 71, 0
2, 35496, Note_on_c, 0, 83, 0
2, 35501, Note_on_c, 0, 83, 108
2, 35501, Note_on_c, 0, 71, 107
2, 35595, Note_on_c, 0, 86, 0
2, 35595, Note_on_c, 0, 45, 0
2, 35596, Note_on_c, 0, 81, 0
2, 35597, Note_on_c, 0, 83, 0
2, 35597, Note_on_c, 0, 71, 0
2, 35597, Note_on_c, 0, 69, 0
2, 35598, Note_on_c, 0, 74, 0
2, 35598, Note_on_c, 0, 57, 0
2, 35599, Note_on_c, 0, 54, 0
2, 35600, Control_c, 0, 64, 0
2, 35612, Note_on_c, 0, 38, 0
2, 35612, Note_on_c, 0, 50, 0
2, 35669, Note_on_c, 0, 59, 107
2, 35674, Note_on_c, 0, 55, 98
2, 35675, Note_on_c, 0, 69, 111
2, 35675, Note_on_c, 0, 52, 92
2, 35675, Note_on_c, 0, 81, 107
2, 35696, Control_c, 0, 64, 127
2, 35845, Note_on_c, 0, 36, 91
2, 35945, Note_on_c, 0, 79, 108
2, 35945, Note_on_c, 0, 43, 89
2, 35945, Note_on_c, 0, 67, 102
2, 36043, Note_on_c, 0, 48, 92
2, 36126, Note_on_c, 0, 48, 0
2, 36133, Note_on_c, 0, 48, 93
2, 36203, Note_on_c, 0, 59, 0
2, 36211, Note_on_c, 0, 52, 0
2, 36211, Note_on_c, 0, 55, 0
2, 36214, Note_on_c, 0, 59, 109
2, 36216, Note_on_c, 0, 55, 102
2, 36216, Note_on_c, 0, 52, 98
2, 36449, Note_on_c, 0, 36, 0
2, 36456, Note_on_c, 0, 36, 91
2, 36541, Note_on_c, 0, 48, 0
2, 36549, Note_on_c, 0, 48, 88
2, 36633, Note_on_c, 0, 48, 0
2, 36640, Note_on_c, 0, 48, 84
2, 36702, Note_on_c, 0, 52, 0
2, 36702, Note_on_c, 0, 55, 0
2, 36702, Note_on_c, 0, 59, 0
2, 36708, Note_on_c, 0, 59, 105
2, 36710, Note_on_c, 0, 55, 102
2, 36712, Note_on_c, 0, 52, 98
2, 36871, Note_on_c, 0, 67, 0
2, 36871, Note_on_c, 0, 79, 0
2, 36876, Note_on_c, 0, 79, 107
2, 36878, Note_on_c, 0, 67, 98
2, 37013, Note_on_c, 0, 48, 0
2, 37013, Note_on_c, 0, 81, 0
2, 37013, Note_on_c, 0, 36, 0
2, 37013, Note_on_c, 0, 52, 0
2, 37013, Note_on_c, 0, 69, 0
2, 37014, Control_c, 0, 64, 0
2, 37014, Note_on_c, 0, 67, 0
2, 37014, Note_on_c, 0, 55, 0
2, 37014, Note_on_c, 0, 59, 0
2, 37014, Note_on_c, 0, 43, 0
2, 37014, Note_on_c, 0, 79, 0
2, 37051, Note_on_c, 0, 78, 113
2, 37054, Note_on_c, 0, 45, 93
2, 37054, Note_on_c, 0, 74, 105
2, 37055, Note_on_c, 0, 69, 101
2, 37057, Note_on_c, 0, 38, 105
2, 37058, Note_on_c, 0, 66, 105
2, 37102, Control_c, 0, 64, 127
2, 37174, Control_c, 0, 64, 0
2, 37176, Note_on_c, 0, 74, 0
2, 37177, Note_on_c, 0, 45, 0
2, 37178, Note_on_c, 0, 78, 0
2, 37186, Note_on_c, 0, 66, 0
2, 37186, Note_on_c, 0, 69, 0
2, 37219, Note_on_c, 0, 26, 93
2, 37263, Note_on_c, 0, 26, 0
2, 37301, Note_on_c, 0, 38, 0
2, 37306, Note_on_c, 0, 78, 112
2, 37308, Note_on_c, 0, 38, 98
2, 37312, Note_on_c, 0, 26, 97
2, 37313, Note_on_c, 0, 66, 104
2, 37340, Control_c, 0, 64, 127
2, 37463, Note_on_c, 0, 26, 0
2, 37463, Note_on_c, 0, 38, 0
2, 37468, Note_on_c, 0, 33, 78
2, 37469, Note_on_c, 0, 26, 90
2, 37472, Note_on_c, 0, 38, 86
2, 37547, Control_c, 0, 64, 0
2, 37562, Note_on_c, 0, 38, 0
2, 37567, Note_on_c, 0, 38, 98
2, 37570, Note_on_c, 0, 79, 108
2, 37575, Note_on_c, 0, 67, 103
2, 37616, Note_on_c, 0, 33, 0
2, 37632, Control_c, 0, 64, 127
2, 37739, Note_on_c, 0, 38, 0
2, 37744, Note_on_c, 0, 38, 95
2, 37750, Note_on_c, 0, 81, 107
2, 37754, Note_on_c, 0, 78, 0
2, 37756, Note_on_c, 0, 69, 101
2, 37759, Note_on_c, 0, 74, 94
2, 37763, Note_on_c, 0, 78, 91
2, 37821, Note_on_c, 0, 45, 92
2, 37874, Note_on_c, 0, 50, 87
2, 37969, Note_on_c, 0, 26, 0
2, 37985, Note_on_c, 0, 50, 0
2, 37989, Note_on_c, 0, 50, 82
2, 38069, Note_on_c, 0, 66, 0
2, 38074, Note_on_c, 0, 66, 94
2, 38077, Note_on_c, 0, 54, 101
2, 38077, Note_on_c, 0, 62, 95
2, 38077, Note_on_c, 0, 45, 0
2, 38080, Note_on_c, 0, 57, 93
2, 38082, Note_on_c, 0, 45, 82
2, 38381, Note_on_c, 0, 57, 0
2, 38381, Note_on_c, 0, 79, 0
2, 38381, Note_on_c, 0, 45, 0
2, 38381, Note_on_c, 0, 81, 0
2, 38381, Note_on_c, 0, 67, 0
2, 38381, Note_on_c, 0, 66, 0
2, 38381, Note_on_c, 0, 54, 0
2, 38381, Note_on_c, 0, 62, 0
2, 38382, Note_on_c, 0, 50, 0
2, 38382, Note_on_c, 0, 69, 0
2, 38382, Note_on_c, 0, 78, 0
2, 38382, Note_on_c, 0, 74, 0
2, 38389, Control_c, 0, 64, 0
2, 38400, Note_on_c, 0, 38, 0
2, 38433, Note_on_c, 0, 48, 95
2, 38434, Note_on_c, 0, 67, 100
2, 38438, Note_on_c, 0, 62, 90
2, 38441, Note_on_c, 0, 64, 93
2, 38668, Control_c, 0, 64, 127
2, 38732, Note_on_c, 0, 66, 87
2, 38976, Note_on_c, 0, 62, 0
2, 38976, Note_on_c, 0, 64, 0
2, 38983, Note_on_c, 0, 67, 0
2, 38985, Note_on_c, 0, 64, 78
2, 38986, Note_on_c, 0, 62, 78
2, 38987, Note_on_c, 0, 55, 77
2, 38987, Note_on_c, 0, 67, 89
2, 39354, Note_on_c, 0, 91, 72
2, 39528, Note_on_c, 0, 103, 104
2, 39859, Note_on_c, 0, 67, 0
2, 39859, Note_on_c, 0, 103, 0
2, 39866, Note_on_c, 0, 62, 0
2, 39866, Note_on_c, 0, 64, 0
2, 39867, Note_on_c, 0, 67, 90
2, 39867, Note_on_c, 0, 50, 84
2, 39867, Control_c, 0, 64, 0
2, 39871, Note_on_c, 0, 62, 81
2, 39874, Note_on_c, 0, 64, 76
2, 39894, Note_on_c, 0, 91, 0
2, 39895, Note_on_c, 0, 55, 0
2, 39895, Note_on_c, 0, 66, 0
2, 39897, Note_on_c, 0, 48, 0
2, 40005, Control_c, 0, 64, 127
2, 40141, Note_on_c, 0, 66, 80
2, 40396, Note_on_c, 0, 67, 0
2, 40404, Note_on_c, 0, 62, 0
2, 40404, Note_on_c, 0, 64, 0
2, 40407, Note_on_c, 0, 67, 76
2, 40409, Note_on_c, 0, 57, 65
2, 40413, Note_on_c, 0, 64, 63
2, 40414, Note_on_c, 0, 62, 63
2, 40748, Note_on_c, 0, 91, 78
2, 40918, Note_on_c, 0, 103, 95
2, 41249, Note_on_c, 0, 67, 0
2, 41256, Note_on_c, 0, 62, 0
2, 41256, Note_on_c, 0, 64, 0
2, 41258, Note_on_c, 0, 67, 92
2, 41261, Note_on_c, 0, 52, 72
2, 41263, Note_on_c, 0, 62, 77
2, 41264, Note_on_c, 0, 103, 0
2, 41266, Note_on_c, 0, 64, 78
2, 41291, Note_on_c, 0, 91, 0
2, 41293, Note_on_c, 0, 57, 0
2, 41294, Note_on_c, 0, 50, 0
2, 41296, Control_c, 0, 64, 0
2, 41297, Note_on_c, 0, 66, 0
2, 41418, Control_c, 0, 64, 127
2, 41548, Note_on_c, 0, 66, 87
2, 41794, Note_on_c, 0, 64, 0
2, 41798, Note_on_c, 0, 64, 90
2, 41806, Note_on_c, 0, 59, 76
2, 41806, Note_on_c, 0, 55, 70
2, 42127, Note_on_c, 0, 86, 71
2, 42309, Note_on_c, 0, 62, 0
2, 42314, Note_on_c, 0, 93, 83
2, 42316, Note_on_c, 0, 62, 85
2, 42470, Note_on_c, 0, 62, 0
2, 42480, Note_on_c, 0, 62, 67
2, 42503, Note_on_c, 0, 98, 97
2, 42661, Note_on_c, 0, 47, 92
2, 42942, Note_on_c, 0, 54, 69
2, 43216, Note_on_c, 0, 57, 81
2, 43530, Note_on_c, 0, 59, 0
2, 43541, Note_on_c, 0, 59, 106
2, 43714, Note_on_c, 0, 47, 0
2, 43724, Note_on_c, 0, 47, 83
2, 43875, Note_on_c, 0, 62, 0
2, 43884, Note_on_c, 0, 62, 98
2, 43995, Note_on_c, 0, 98, 0
2, 43996, Note_on_c, 0, 54, 0
2, 43996, Note_on_c, 0, 59, 0
2, 43996, Note_on_c, 0, 64, 0
2, 43997, Note_on_c, 0, 55, 0
2, 43997, Note_on_c, 0, 57, 0
2, 43997, Note_on_c, 0, 86, 0
2, 43998, Note_on_c, 0, 52, 0
2, 43999, Control_c, 0, 64, 0
2, 43999, Note_on_c, 0, 47, 0
2, 44000, Note_on_c, 0, 66, 0
2, 44006, Note_on_c, 0, 93, 0
2, 44014, Note_on_c, 0, 67, 0
2, 44060, Control_c, 0, 64, 127
2, 44063, Note_on_c, 0, 64, 106
2, 44064, Note_on_c, 0, 67, 84
2, 44068, Note_on_c, 0, 55, 95
2, 44071, Note_on_c, 0, 52, 85
2, 44074, Note_on_c, 0, 48, 87
2, 44113, Note_on_c, 0, 62, 0
2, 44333, Note_on_c, 0, 88, 102
2, 44335, Note_on_c, 0, 76, 92
2, 44419, Note_on_c, 0, 36, 93
2, 44421, Note_on_c, 0, 24, 89
2, 44601, Note_on_c, 0, 100, 114
2, 44605, Note_on_c, 0, 88, 0
2, 44611, Note_on_c, 0, 88, 106
2, 44611, Note_on_c, 0, 91, 99
2, 44766, Note_on_c, 0, 48, 0
2, 44766, Note_on_c, 0, 52, 0
2, 44766, Note_on_c, 0, 55, 0
2, 44773, Note_on_c, 0, 48, 96
2, 44773, Note_on_c, 0, 55, 96
2, 44776, Note_on_c, 0, 52, 89
2, 44951, Note_on_c, 0, 64, 0
2, 44962, Note_on_c, 0, 64, 111
2, 45120, Note_on_c, 0, 48, 0
2, 45120, Note_on_c, 0, 52, 0
2, 45120, Note_on_c, 0, 55, 0
2, 45124, Note_on_c, 0, 48, 95
2, 45124, Note_on_c, 0, 52, 91
2, 45125, Note_on_c, 0, 55, 98
2, 45281, Note_on_c, 0, 67, 0
2, 45288, Note_on_c, 0, 67, 109
2, 45414, Control_c, 0, 64, 0
2, 45417, Note_on_c, 0, 24, 0
2, 45420, Note_on_c, 0, 48, 0
2, 45420, Note_on_c, 0, 76, 0
2, 45420, Note_on_c, 0, 100, 0
2, 45421, Note_on_c, 0, 52, 0
2, 45421, Note_on_c, 0, 36, 0
2, 45421, Note_on_c, 0, 88, 0
2, 45422, Note_on_c, 0, 55, 0
2, 45422, Note_on_c, 0, 91, 0
2, 45422, Note_on_c, 0, 67, 0
2, 45434, Note_on_c, 0, 64, 0
2, 45461, Note_on_c, 0, 69, 109
2, 45463, Note_on_c, 0, 57, 109
2, 45467, Note_on_c, 0, 62, 96
2, 45468, Note_on_c, 0, 50, 101
2, 45468, Note_on_c, 0, 54, 106
2, 45469, Note_on_c, 0, 66, 102
2, 45504, Control_c, 0, 64, 127
2, 45745, Note_on_c, 0, 81, 104
2, 45746, Note_on_c, 0, 93, 107
2, 45814, Note_on_c, 0, 38, 103
2, 45815, Note_on_c, 0, 26, 95
2, 45995, Note_on_c, 0, 93, 0
2, 45999, Note_on_c, 0, 103, 85
2, 46001, Note_on_c, 0, 105, 114
2, 46002, Note_on_c, 0, 93, 114
2, 46010, Note_on_c, 0, 103, 0
2, 46156, Note_on_c, 0, 57, 0
2, 46156, Note_on_c, 0, 105, 0
2, 46164, Note_on_c, 0, 50, 0
2, 46164, Note_on_c, 0, 54, 0
2, 46167, Note_on_c, 0, 57, 107
2, 46169, Note_on_c, 0, 50, 98
2, 46170, Note_on_c, 0, 54, 102
2, 46341, Note_on_c, 0, 54, 0
2, 46347, Note_on_c, 0, 67, 108
2, 46351, Note_on_c, 0, 54, 89
2, 46517, Note_on_c, 0, 50, 0
2, 46517, Note_on_c, 0, 54, 0
2, 46517, Note_on_c, 0, 57, 0
2, 46523, Note_on_c, 0, 57, 101
2, 46524, Note_on_c, 0, 50, 84
2, 46526, Note_on_c, 0, 54, 98
2, 46640, Note_on_c, 0, 69, 0
2, 46652, Note_on_c, 0, 69, 113
2, 46824, Note_on_c, 0, 81, 0
2, 46825, Note_on_c, 0, 93, 0
2, 46825, Note_on_c, 0, 26, 0
2, 46825, Note_on_c, 0, 62, 0
2, 46825, Note_on_c, 0, 67, 0
2, 46826, Note_on_c, 0, 54, 0
2, 46827, Note_on_c, 0, 50, 0
2, 46827, Note_on_c, 0, 66, 0
2, 46836, Control_c, 0, 64, 0
2, 46840, Note_on_c, 0, 57, 0
2, 46848, Note_on_c, 0, 38, 0
2, 46848, Note_on_c, 0, 69, 0
2, 46871, Note_on_c, 0, 52, 111
2, 46872, Note_on_c, 0, 40, 106
2, 46873, Note_on_c, 0, 47, 107
2, 46874, Note_on_c, 0, 71, 112
2, 46874, Note_on_c, 0, 62, 101
2, 46875, Note_on_c, 0, 67, 102
2, 46901, Control_c, 0, 64, 127
2, 47056, Note_on_c, 0, 86, 108
2, 47058, Note_on_c, 0, 74, 101
2, 47224, Note_on_c, 0, 40, 0
2, 47229, Note_on_c, 0, 40, 86
2, 47230, Note_on_c, 0, 88, 106
2, 47230, Note_on_c, 0, 76, 102
2, 47233, Note_on_c, 0, 28, 94
2, 47301, Note_on_c, 0, 52, 0
2, 47393, Note_on_c, 0, 28, 0
2, 47393, Note_on_c, 0, 40, 0
2, 47397, Note_on_c, 0, 40, 92
2, 47397, Note_on_c, 0, 91, 110
2, 47398, Note_on_c, 0, 79, 105
2, 47402, Note_on_c, 0, 28, 91
2, 47562, Note_on_c, 0, 40, 0
2, 47567, Note_on_c, 0, 93, 112
2, 47569, Note_on_c, 0, 28, 0
2, 47569, Note_on_c, 0, 47, 0
2, 47572, Note_on_c, 0, 81, 109
2, 47573, Note_on_c, 0, 40, 96
2, 47574, Note_on_c, 0, 28, 94
2, 47731, Note_on_c, 0, 28, 0
2, 47731, Note_on_c, 0, 40, 0
2, 47737, Note_on_c, 0, 95, 113
2, 47740, Note_on_c, 0, 28, 98
2, 47741, Note_on_c, 0, 83, 106
2, 47741, Note_on_c, 0, 40, 96
2, 47900, Note_on_c, 0, 28, 0
2, 47900, Note_on_c, 0, 40, 0
2, 47907, Note_on_c, 0, 86, 0
2, 47909, Note_on_c, 0, 28, 98
2, 47910, Note_on_c, 0, 40, 96
2, 47912, Note_on_c, 0, 86, 112
2, 47914, Note_on_c, 0, 98, 113
2, 47915, Note_on_c, 0, 62, 0
2, 48069, Note_on_c, 0, 28, 0
2, 48069, Note_on_c, 0, 40, 0
2, 48069, Note_on_c, 0, 88, 0
2, 48072, Note_on_c, 0, 100, 117
2, 48072, Note_on_c, 0, 40, 96
2, 48074, Note_on_c, 0, 88, 113
2, 48074, Note_on_c, 0, 28, 99
2, 48238, Note_on_c, 0, 74, 0
2, 48239, Note_on_c, 0, 98, 0
2, 48239, Note_on_c, 0, 95, 0
2, 48240, Note_on_c, 0, 28, 0
2, 48240, Note_on_c, 0, 81, 0
2, 48240, Note_on_c, 0, 86, 0
2, 48240, Note_on_c, 0, 71, 0
2, 48240, Note_on_c, 0, 83, 0
2, 48241, Note_on_c, 0, 79, 0
2, 48241, Note_on_c, 0, 100, 0
2, 48241, Note_on_c, 0, 91, 0
2, 48241, Note_on_c, 0, 93, 0
2, 48242, Note_on_c, 0, 88, 0
2, 48242, Note_on_c, 0, 76, 0
2, 48242, Note_on_c, 0, 40, 0
2, 48245, Note_on_c, 0, 67, 0
2, 48252, Control_c, 0, 64, 0
2, 48257, Note_on_c, 0, 47, 104
2, 48339, Note_on_c, 0, 45, 99
2, 48414, Note_on_c, 0, 42, 93
2, 48491, Note_on_c, 0, 45, 0
2, 48507, Note_on_c, 0, 35, 95
2, 48518, Note_on_c, 0, 42, 0
2, 48522, Note_on_c, 0, 47, 0
2, 48615, Note_on_c, 0, 47, 103
2, 48617, Note_on_c, 0, 62, 107
2, 48620, Note_on_c, 0, 57, 102
2, 48623, Note_on_c, 0, 54, 102
2, 48683, Note_on_c, 0, 35, 0
2, 48729, Control_c, 0, 64, 127
2, 48913, Control_c, 0, 64, 0
2, 48918, Note_on_c, 0, 57, 0
2, 48919, Note_on_c, 0, 54, 0
2, 48919, Note_on_c, 0, 62, 0
2, 48919, Note_on_c, 0, 47, 0
2, 48972, Note_on_c, 0, 42, 88
2, 48973, Note_on_c, 0, 62, 104
2, 48977, Note_on_c, 0, 54, 106
2, 48978, Note_on_c, 0, 57, 101
2, 48998, Control_c, 0, 64, 127
2, 49131, Note_on_c, 0, 35, 98
2, 49320, Note_on_c, 0, 35, 0
2, 49320, Note_on_c, 0, 62, 0
2, 49323, Note_on_c, 0, 71, 109
2, 49327, Note_on_c, 0, 62, 99
2, 49328, Note_on_c, 0, 66, 101
2, 49330, Note_on_c, 0, 47, 108
2, 49331, Note_on_c, 0, 35, 95
2, 49401, Note_on_c, 0, 45, 34
2, 49443, Note_on_c, 0, 42, 0
2, 49450, Note_on_c, 0, 42, 87
2, 49497, Note_on_c, 0, 35, 0
2, 49505, Note_on_c, 0, 35, 93
2, 49523, Note_on_c, 0, 54, 0
2, 49524, Note_on_c, 0, 57, 0
2, 49529, Note_on_c, 0, 66, 0
2, 49531, Note_on_c, 0, 71, 0
2, 49531, Control_c, 0, 64, 0
2, 49531, Note_on_c, 0, 42, 0
2, 49533, Note_on_c, 0, 62, 0
2, 49539, Note_on_c, 0, 47, 0
2, 49551, Note_on_c, 0, 45, 0
2, 49574, Note_on_c, 0, 35, 0
2, 49685, Note_on_c, 0, 81, 112
2, 49686, Note_on_c, 0, 69, 109
2, 49686, Note_on_c, 0, 78, 111
2, 49686, Note_on_c, 0, 74, 107
2, 49691, Note_on_c, 0, 35, 103
2, 49695, Note_on_c, 0, 36, 98
2, 49735, Control_c, 0, 64, 127
2, 49857, Note_on_c, 0, 71, 108
2, 49857, Note_on_c, 0, 83, 111
2, 50016, Note_on_c, 0, 59, 108
2, 50019, Note_on_c, 0, 74, 0
2, 50021, Note_on_c, 0, 86, 111
2, 50023, Note_on_c, 0, 52, 90
2, 50023, Note_on_c, 0, 55, 88
2, 50027, Note_on_c, 0, 78, 0
2, 50030, Note_on_c, 0, 74, 111
2, 50036, Note_on_c, 0, 78, 102
2, 50196, Note_on_c, 0, 74, 0
2, 50196, Note_on_c, 0, 78, 0
2, 50196, Note_on_c, 0, 83, 0
2, 50202, Note_on_c, 0, 83, 103
2, 50204, Note_on_c, 0, 78, 98
2, 50205, Note_on_c, 0, 74, 102
2, 50267, Note_on_c, 0, 48, 88
2, 50365, Note_on_c, 0, 74, 0
2, 50365, Note_on_c, 0, 81, 0
2, 50371, Note_on_c, 0, 81, 108
2, 50375, Note_on_c, 0, 74, 97
2, 50526, Note_on_c, 0, 74, 0
2, 50526, Note_on_c, 0, 78, 0
2, 50526, Note_on_c, 0, 83, 0
2, 50531, Note_on_c, 0, 83, 105
2, 50535, Note_on_c, 0, 74, 97
2, 50535, Note_on_c, 0, 78, 88
2, 50537, Note_on_c, 0, 36, 0
2, 50542, Note_on_c, 0, 48, 0
2, 50542, Note_on_c, 0, 52, 0
2, 50549, Note_on_c, 0, 48, 84
2, 50552, Note_on_c, 0, 52, 74
2, 50618, Note_on_c, 0, 74, 0
2, 50618, Note_on_c, 0, 78, 0
2, 50618, Note_on_c, 0, 83, 0
2, 50623, Note_on_c, 0, 83, 104
2, 50624, Note_on_c, 0, 74, 107
2, 50626, Note_on_c, 0, 78, 90
2, 50711, Note_on_c, 0, 59, 0
2, 50718, Note_on_c, 0, 59, 109
2, 50718, Note_on_c, 0, 52, 0
2, 50718, Note_on_c, 0, 55, 0
2, 50722, Note_on_c, 0, 55, 99
2, 50728, Note_on_c, 0, 52, 92
2, 50872, Note_on_c, 0, 48, 0
2, 50872, Note_on_c, 0, 52, 0
2, 50876, Note_on_c, 0, 91, 98
2, 50880, Note_on_c, 0, 79, 109
2, 50880, Note_on_c, 0, 48, 85
2, 50881, Note_on_c, 0, 52, 79
2, 50882, Note_on_c, 0, 55, 0
2, 50887, Note_on_c, 0, 91, 0
2, 50976, Note_on_c, 0, 48, 0
2, 50976, Note_on_c, 0, 71, 0
2, 50977, Control_c, 0, 64, 0
2, 50977, Note_on_c, 0, 59, 0
2, 50977, Note_on_c, 0, 52, 0
2, 50977, Note_on_c, 0, 69, 0
2, 50977, Note_on_c, 0, 74, 0
2, 50977, Note_on_c, 0, 81, 0
2, 50977, Note_on_c, 0, 86, 0
2, 50977, Note_on_c, 0, 83, 0
2, 50977, Note_on_c, 0, 78, 0
2, 50979, Note_on_c, 0, 35, 0
2, 50980, Note_on_c, 0, 79, 0
2, 51051, Note_on_c, 0, 38, 103
2, 51052, Note_on_c, 0, 26, 97
2, 51054, Note_on_c, 0, 81, 106
2, 51054, Note_on_c, 0, 78, 110
2, 51059, Note_on_c, 0, 74, 103
2, 51102, Control_c, 0, 64, 127
2, 51224, Note_on_c, 0, 83, 106
2, 51382, Note_on_c, 0, 62, 104
2, 51384, Note_on_c, 0, 57, 98
2, 51386, Note_on_c, 0, 78, 0
2, 51389, Note_on_c, 0, 86, 108
2, 51391, Note_on_c, 0, 54, 97
2, 51394, Note_on_c, 0, 78, 106
2, 51394, Note_on_c, 0, 74, 0
2, 51396, Note_on_c, 0, 50, 87
2, 51399, Note_on_c, 0, 74, 102
2, 51525, Note_on_c, 0, 38, 0
2, 51531, Note_on_c, 0, 38, 94
2, 51555, Note_on_c, 0, 83, 0
2, 51563, Note_on_c, 0, 74, 0
2, 51563, Note_on_c, 0, 78, 0
2, 51565, Note_on_c, 0, 83, 102
2, 51572, Note_on_c, 0, 78, 103
2, 51573, Note_on_c, 0, 74, 102
2, 51617, Note_on_c, 0, 50, 0
2, 51623, Note_on_c, 0, 50, 86
2, 51717, Note_on_c, 0, 81, 0
2, 51723, Note_on_c, 0, 81, 105
2, 51740, Note_on_c, 0, 74, 0
2, 51746, Note_on_c, 0, 74, 85
2, 51824, Note_on_c, 0, 38, 0
2, 51834, Note_on_c, 0, 38, 87
2, 51893, Note_on_c, 0, 74, 0
2, 51893, Note_on_c, 0, 83, 0
2, 51901, Note_on_c, 0, 78, 0
2, 51904, Note_on_c, 0, 74, 96
2, 51905, Note_on_c, 0, 83, 99
2, 51906, Note_on_c, 0, 78, 86
2, 51978, Note_on_c, 0, 74, 0
2, 51978, Note_on_c, 0, 78, 0
2, 51978, Note_on_c, 0, 83, 0
2, 51984, Note_on_c, 0, 83, 105
2, 51986, Note_on_c, 0, 74, 106
2, 51989, Note_on_c, 0, 78, 103
2, 52070, Note_on_c, 0, 62, 0
2, 52078, Note_on_c, 0, 54, 0
2, 52078, Note_on_c, 0, 57, 0
2, 52079, Note_on_c, 0, 62, 100
2, 52082, Note_on_c, 0, 54, 98
2, 52087, Note_on_c, 0, 57, 90
2, 52216, Note_on_c, 0, 50, 0
2, 52220, Note_on_c, 0, 50, 91
2, 52228, Note_on_c, 0, 62, 0
2, 52247, Note_on_c, 0, 74, 0
2, 52253, Note_on_c, 0, 74, 108
2, 52332, Control_c, 0, 64, 0
2, 52333, Note_on_c, 0, 83, 0
2, 52334, Note_on_c, 0, 57, 0
2, 52334, Note_on_c, 0, 26, 0
2, 52335, Note_on_c, 0, 54, 0
2, 52335, Note_on_c, 0, 86, 0
2, 52335, Note_on_c, 0, 38, 0
2, 52335, Note_on_c, 0, 74, 0
2, 52335, Note_on_c, 0, 50, 0
2, 52354, Note_on_c, 0, 81, 0
2, 52362, Note_on_c, 0, 78, 0
2, 52403, Note_on_c, 0, 28, 101
2, 52404, Note_on_c, 0, 40, 99
2, 52408, Note_on_c, 0, 71, 104
2, 52410, Note_on_c, 0, 74, 104
2, 52446, Control_c, 0, 64, 127
2, 52577, Note_on_c, 0, 71, 0
2, 52584, Note_on_c, 0, 74, 0
2, 52587, Note_on_c, 0, 71, 95
2, 52588, Note_on_c, 0, 79, 100
2, 52593, Note_on_c, 0, 74, 94
2, 52669, Note_on_c, 0, 71, 0
2, 52669, Note_on_c, 0, 74, 0
2, 52669, Note_on_c, 0, 79, 0
2, 52679, Note_on_c, 0, 79, 102
2, 52679, Note_on_c, 0, 71, 98
2, 52679, Note_on_c, 0, 74, 100
2, 52744, Note_on_c, 0, 62, 102
2, 52751, Note_on_c, 0, 59, 98
2, 52757, Note_on_c, 0, 55, 92
2, 52892, Note_on_c, 0, 40, 0
2, 52896, Note_on_c, 0, 40, 93
2, 52922, Note_on_c, 0, 71, 0
2, 52922, Note_on_c, 0, 74, 0
2, 52929, Note_on_c, 0, 74, 106
2, 52934, Note_on_c, 0, 71, 96
2, 52998, Note_on_c, 0, 52, 89
2, 53084, Note_on_c, 0, 71, 0
2, 53084, Note_on_c, 0, 74, 0
2, 53090, Note_on_c, 0, 74, 105
2, 53090, Note_on_c, 0, 71, 94
2, 53184, Note_on_c, 0, 52, 0
2, 53184, Note_on_c, 0, 55, 0
2, 53184, Note_on_c, 0, 59, 0
2, 53191, Note_on_c, 0, 52, 81
2, 53194, Note_on_c, 0, 55, 73
2, 53195, Note_on_c, 0, 59, 75
2, 53253, Note_on_c, 0, 71, 0
2, 53253, Note_on_c, 0, 79, 0
2, 53260, Note_on_c, 0, 52, 0
2, 53260, Note_on_c, 0, 55, 0
2, 53260, Note_on_c, 0, 74, 0
2, 53263, Note_on_c, 0, 79, 107
2, 53264, Note_on_c, 0, 71, 99
2, 53270, Note_on_c, 0, 74, 93
2, 53271, Note_on_c, 0, 55, 84
2, 53272, Note_on_c, 0, 52, 88
2, 53414, Note_on_c, 0, 59, 0
2, 53414, Note_on_c, 0, 62, 0
2, 53419, Note_on_c, 0, 62, 103
2, 53422, Note_on_c, 0, 55, 0
2, 53422, Control_c, 0, 64, 0
2, 53425, Note_on_c, 0, 59, 97
2, 53429, Note_on_c, 0, 71, 0
2, 53429, Note_on_c, 0, 74, 0
2, 53430, Note_on_c, 0, 40, 0
2, 53430, Note_on_c, 0, 55, 94
2, 53435, Note_on_c, 0, 81, 107
2, 53437, Note_on_c, 0, 28, 0
2, 53437, Note_on_c, 0, 74, 101
2, 53438, Note_on_c, 0, 71, 95
2, 53452, Control_c, 0, 64, 127
2, 53552, Note_on_c, 0, 52, 0
2, 53556, Note_on_c, 0, 52, 86
2, 53561, Note_on_c, 0, 50, 61
2, 53568, Note_on_c, 0, 50, 0
2, 53591, Note_on_c, 0, 71, 0
2, 53591, Note_on_c, 0, 79, 0
2, 53595, Note_on_c, 0, 79, 101
2, 53598, Note_on_c, 0, 71, 94
2, 53674, Control_c, 0, 64, 0
2, 53692, Note_on_c, 0, 55, 0
2, 53694, Note_on_c, 0, 81, 0
2, 53694, Note_on_c, 0, 71, 0
2, 53694, Note_on_c, 0, 52, 0
2, 53694, Note_on_c, 0, 74, 0
2, 53695, Note_on_c, 0, 79, 0
2, 53706, Note_on_c, 0, 62, 0
2, 53713, Note_on_c, 0, 59, 0
2, 53763, Note_on_c, 0, 35, 103
2, 53764, Note_on_c, 0, 86, 113
2, 53770, Note_on_c, 0, 74, 116
2, 53772, Note_on_c, 0, 78, 104
2, 53783, Control_c, 0, 64, 127
2, 53816, Note_on_c, 0, 76, 60
2, 53944, Note_on_c, 0, 74, 0
2, 53951, Note_on_c, 0, 74, 96
2, 53951, Note_on_c, 0, 43, 61
2, 53959, Note_on_c, 0, 43, 0
2, 54021, Note_on_c, 0, 78, 0
2, 54026, Note_on_c, 0, 78, 94
2, 54097, Note_on_c, 0, 74, 0
2, 54097, Note_on_c, 0, 78, 0
2, 54102, Note_on_c, 0, 57, 112
2, 54107, Note_on_c, 0, 84, 104
2, 54107, Note_on_c, 0, 74, 107
2, 54107, Note_on_c, 0, 78, 106
2, 54109, Note_on_c, 0, 54, 103
2, 54284, Note_on_c, 0, 71, 77
2, 54343, Note_on_c, 0, 74, 0
2, 54345, Note_on_c, 0, 47, 93
2, 54346, Note_on_c, 0, 35, 0
2, 54348, Note_on_c, 0, 74, 101
2, 54443, Note_on_c, 0, 57, 0
2, 54443, Note_on_c, 0, 71, 0
2, 54443, Note_on_c, 0, 74, 0
2, 54443, Note_on_c, 0, 78, 0
2, 54448, Note_on_c, 0, 71, 105
2, 54451, Note_on_c, 0, 47, 0
2, 54451, Note_on_c, 0, 54, 0
2, 54452, Note_on_c, 0, 83, 106
2, 54453, Note_on_c, 0, 74, 103
2, 54454, Note_on_c, 0, 78, 100
2, 54454, Note_on_c, 0, 57, 106
2, 54455, Note_on_c, 0, 54, 94
2, 54455, Note_on_c, 0, 47, 89
2, 54620, Note_on_c, 0, 47, 0
2, 54629, Note_on_c, 0, 47, 93
2, 54704, Note_on_c, 0, 57, 0
2, 54704, Note_on_c, 0, 74, 0
2, 54704, Note_on_c, 0, 78, 0
2, 54710, Note_on_c, 0, 69, 101
2, 54712, Note_on_c, 0, 81, 111
2, 54714, Note_on_c, 0, 78, 103
2, 54715, Note_on_c, 0, 57, 105
2, 54715, Note_on_c, 0, 74, 96
2, 54720, Note_on_c, 0, 54, 0
2, 54725, Note_on_c, 0, 54, 94
2, 54850, Note_on_c, 0, 84, 0
2, 54850, Note_on_c, 0, 47, 0
2, 54851, Note_on_c, 0, 86, 0
2, 54852, Note_on_c, 0, 57, 0
2, 54852, Control_c, 0, 64, 0
2, 54852, Note_on_c, 0, 81, 0
2, 54853, Note_on_c, 0, 71, 0
2, 54853, Note_on_c, 0, 69, 0
2, 54853, Note_on_c, 0, 74, 0
2, 54853, Note_on_c, 0, 83, 0
2, 54853, Note_on_c, 0, 54, 0
2, 54854, Note_on_c, 0, 78, 0
2, 54859, Note_on_c, 0, 47, 97
2, 54865, Note_on_c, 0, 76, 0
2, 54981, Note_on_c, 0, 47, 0
2, 54981, Note_on_c, 0, 57, 112
2, 54986, Note_on_c, 0, 54, 100
2, 54990, Note_on_c, 0, 47, 92
2, 54992, Note_on_c, 0, 79, 110
2, 54993, Note_on_c, 0, 67, 100
2, 55032, Note_on_c, 0, 57, 0
2, 55034, Note_on_c, 0, 54, 0
2, 55039, Note_on_c, 0, 47, 0
2, 55160, Note_on_c, 0, 24, 96
2, 55160, Note_on_c, 0, 36, 104
2, 55165, Note_on_c, 0, 67, 0
2, 55168, Note_on_c, 0, 76, 103
2, 55242, Control_c, 0, 64, 127
2, 55246, Note_on_c, 0, 74, 107
2, 55346, Note_on_c, 0, 71, 104
2, 55427, Note_on_c, 0, 67, 101
2, 55507, Note_on_c, 0, 59, 110
2, 55514, Note_on_c, 0, 55, 97
2, 55519, Note_on_c, 0, 52, 90
2, 55522, Note_on_c, 0, 47, 86
2, 55687, Note_on_c, 0, 67, 0
2, 55687, Note_on_c, 0, 71, 0
2, 55687, Note_on_c, 0, 79, 0
2, 55692, Note_on_c, 0, 79, 108
2, 55692, Note_on_c, 0, 71, 102
2, 55695, Note_on_c, 0, 55, 0
2, 55698, Note_on_c, 0, 67, 99
2, 55702, Note_on_c, 0, 55, 84
2, 55703, Note_on_c, 0, 52, 0
2, 55707, Note_on_c, 0, 48, 83
2, 55708, Note_on_c, 0, 52, 72
2, 55738, Control_c, 0, 64, 0
2, 55749, Control_c, 0, 64, 127
2, 55772, Note_on_c, 0, 48, 0
2, 55781, Note_on_c, 0, 48, 90
2, 55841, Note_on_c, 0, 67, 0
2, 55841, Note_on_c, 0, 71, 0
2, 55841, Note_on_c, 0, 79, 0
2, 55847, Note_on_c, 0, 79, 105
2, 55850, Note_on_c, 0, 71, 102
2, 55851, Note_on_c, 0, 67, 94
2, 55941, Note_on_c, 0, 36, 0
2, 55946, Note_on_c, 0, 36, 83
2, 56024, Note_on_c, 0, 81, 109
2, 56025, Note_on_c, 0, 69, 108
2, 56033, Note_on_c, 0, 48, 0
2, 56040, Note_on_c, 0, 52, 0
2, 56044, Note_on_c, 0, 48, 88
2, 56046, Note_on_c, 0, 52, 66
2, 56186, Note_on_c, 0, 52, 0
2, 56186, Note_on_c, 0, 55, 0
2, 56186, Note_on_c, 0, 59, 0
2, 56186, Note_on_c, 0, 71, 0
2, 56186, Note_on_c, 0, 79, 0
2, 56190, Note_on_c, 0, 59, 110
2, 56191, Note_on_c, 0, 79, 95
2, 56191, Note_on_c, 0, 83, 109
2, 56192, Note_on_c, 0, 71, 110
2, 56193, Note_on_c, 0, 55, 91
2, 56196, Note_on_c, 0, 52, 93
2, 56325, Note_on_c, 0, 48, 0
2, 56336, Note_on_c, 0, 48, 91
2, 56348, Note_on_c, 0, 69, 0
2, 56348, Note_on_c, 0, 81, 0
2, 56353, Note_on_c, 0, 81, 109
2, 56353, Note_on_c, 0, 69, 112
2, 56506, Note_on_c, 0, 36, 0
2, 56508, Note_on_c, 0, 47, 0
2, 56508, Note_on_c, 0, 74, 0
2, 56508, Note_on_c, 0, 48, 0
2, 56510, Note_on_c, 0, 76, 0
2, 56510, Note_on_c, 0, 59, 0
2, 56511, Note_on_c, 0, 52, 0
2, 56511, Note_on_c, 0, 83, 0
2, 56511, Note_on_c, 0, 55, 0
2, 56511, Note_on_c, 0, 79, 0
2, 56511, Control_c, 0, 64, 0
2, 56512, Note_on_c, 0, 71, 0
2, 56517, Note_on_c, 0, 24, 0
2, 56532, Note_on_c, 0, 67, 0
2, 56536, Note_on_c, 0, 39, 103
2, 56536, Note_on_c, 0, 78, 102
2, 56538, Note_on_c, 0, 27, 102
2, 56541, Note_on_c, 0, 85, 96
2, 56542, Note_on_c, 0, 90, 95
2, 56547, Note_on_c, 0, 90, 0
2, 56578, Control_c, 0, 64, 127
2, 56586, Note_on_c, 0, 85, 0
2, 56607, Note_on_c, 0, 75, 97
2, 56710, Note_on_c, 0, 71, 105
2, 56778, Note_on_c, 0, 69, 0
2, 56788, Note_on_c, 0, 69, 102
2, 56867, Note_on_c, 0, 63, 108
2, 56873, Note_on_c, 0, 59, 94
2, 56882, Note_on_c, 0, 54, 87
2, 57016, Note_on_c, 0, 39, 0
2, 57023, Note_on_c, 0, 39, 89
2, 57039, Note_on_c, 0, 81, 0
2, 57044, Note_on_c, 0, 42, 58
2, 57047, Note_on_c, 0, 69, 0
2, 57050, Note_on_c, 0, 81, 108
2, 57053, Note_on_c, 0, 69, 105
2, 57054, Note_on_c, 0, 42, 0
2, 57132, Note_on_c, 0, 51, 84
2, 57208, Note_on_c, 0, 69, 0
2, 57208, Note_on_c, 0, 81, 0
2, 57214, Note_on_c, 0, 69, 107
2, 57215, Note_on_c, 0, 81, 109
2, 57315, Note_on_c, 0, 39, 0
2, 57321, Note_on_c, 0, 39, 87
2, 57384, Note_on_c, 0, 51, 0
2, 57384, Note_on_c, 0, 71, 0
2, 57390, Note_on_c, 0, 83, 112
2, 57393, Note_on_c, 0, 71, 113
2, 57395, Note_on_c, 0, 51, 71
2, 57553, Note_on_c, 0, 63, 0
2, 57561, Note_on_c, 0, 54, 0
2, 57561, Note_on_c, 0, 59, 0
2, 57561, Note_on_c, 0, 78, 0
2, 57563, Note_on_c, 0, 63, 104
2, 57564, Note_on_c, 0, 86, 110
2, 57564, Note_on_c, 0, 74, 112
2, 57565, Note_on_c, 0, 78, 81
2, 57569, Note_on_c, 0, 59, 91
2, 57571, Note_on_c, 0, 54, 92
2, 57715, Note_on_c, 0, 51, 0
2, 57719, Note_on_c, 0, 51, 77
2, 57722, Note_on_c, 0, 69, 0
2, 57722, Note_on_c, 0, 81, 0
2, 57728, Note_on_c, 0, 69, 112
2, 57729, Note_on_c, 0, 81, 109
2, 57849, Control_c, 0, 64, 0
2, 57850, Note_on_c, 0, 86, 0
2, 57851, Note_on_c, 0, 74, 0
2, 57852, Note_on_c, 0, 81, 0
2, 57852, Note_on_c, 0, 71, 0
2, 57852, Note_on_c, 0, 75, 0
2, 57852, Note_on_c, 0, 63, 0
2, 57852, Note_on_c, 0, 59, 0
2, 57853, Note_on_c, 0, 83, 0
2, 57853, Note_on_c, 0, 51, 0
2, 57853, Note_on_c, 0, 27, 0
2, 57853, Note_on_c, 0, 69, 0
2, 57854, Note_on_c, 0, 39, 0
2, 57854, Note_on_c, 0, 78, 0
2, 57868, Note_on_c, 0, 54, 0
2, 57894, Note_on_c, 0, 52, 111
2, 57894, Note_on_c, 0, 40, 107
2, 57895, Note_on_c, 0, 47, 108
2, 57896, Note_on_c, 0, 83, 105
2, 57896, Note_on_c, 0, 71, 108
2, 57896, Note_on_c, 0, 74, 106
2, 57898, Note_on_c, 0, 78, 106
2, 57930, Control_c, 0, 64, 127
2, 57999, Note_on_c, 0, 78, 0
2, 58008, Note_on_c, 0, 78, 79
2, 58076, Note_on_c, 0, 71, 0
2, 58076, Note_on_c, 0, 74, 0
2, 58080, Note_on_c, 0, 71, 93
2, 58086, Note_on_c, 0, 74, 83
2, 58099, Note_on_c, 0, 83, 0
2, 58106, Note_on_c, 0, 78, 0
2, 58109, Note_on_c, 0, 83, 88
2, 58117, Note_on_c, 0, 78, 73
2, 58168, Note_on_c, 0, 74, 0
2, 58168, Note_on_c, 0, 78, 0
2, 58172, Note_on_c, 0, 74, 90
2, 58177, Note_on_c, 0, 78, 89
2, 58177, Note_on_c, 0, 50, 102
2, 58179, Note_on_c, 0, 38, 104
2, 58229, Note_on_c, 0, 78, 0
2, 58234, Note_on_c, 0, 78, 93
2, 58275, Note_on_c, 0, 71, 0
2, 58275, Note_on_c, 0, 74, 0
2, 58283, Note_on_c, 0, 71, 88
2, 58283, Note_on_c, 0, 74, 87
2, 58329, Note_on_c, 0, 78, 0
2, 58334, Note_on_c, 0, 78, 96
2, 58340, Control_c, 0, 64, 0
2, 58360, Control_c, 0, 64, 127
2, 58391, Note_on_c, 0, 74, 0
2, 58399, Note_on_c, 0, 74, 99
2, 58414, Note_on_c, 0, 40, 0
2, 58414, Note_on_c, 0, 47, 0
2, 58414, Note_on_c, 0, 52, 0
2, 58414, Note_on_c, 0, 71, 0
2, 58414, Note_on_c, 0, 78, 0
2, 58419, Note_on_c, 0, 47, 97
2, 58424, Note_on_c, 0, 40, 93
2, 58424, Note_on_c, 0, 52, 97
2, 58425, Note_on_c, 0, 71, 88
2, 58425, Note_on_c, 0, 78, 103
2, 58490, Note_on_c, 0, 71, 0
2, 58490, Note_on_c, 0, 74, 0
2, 58496, Note_on_c, 0, 74, 85
2, 58497, Note_on_c, 0, 71, 93
2, 58536, Note_on_c, 0, 78, 0
2, 58542, Note_on_c, 0, 78, 77
2, 58613, Note_on_c, 0, 71, 0
2, 58613, Note_on_c, 0, 74, 0
2, 58617, Note_on_c, 0, 74, 87
2, 58617, Note_on_c, 0, 71, 82
2, 58644, Note_on_c, 0, 78, 0
2, 58650, Note_on_c, 0, 78, 91
2, 58705, Note_on_c, 0, 38, 0
2, 58705, Note_on_c, 0, 50, 0
2, 58713, Note_on_c, 0, 74, 0
2, 58713, Note_on_c, 0, 78, 0
2, 58713, Note_on_c, 0, 83, 0
2, 58713, Note_on_c, 0, 50, 101
2, 58716, Note_on_c, 0, 38, 102
2, 58717, Note_on_c, 0, 78, 94
2, 58720, Note_on_c, 0, 83, 88
2, 58721, Note_on_c, 0, 74, 86
2, 58805, Note_on_c, 0, 71, 0
2, 58805, Note_on_c, 0, 74, 0
2, 58811, Note_on_c, 0, 71, 79
2, 58812, Note_on_c, 0, 74, 89
2, 58920, Note_on_c, 0, 40, 0
2, 58920, Note_on_c, 0, 47, 0
2, 58920, Note_on_c, 0, 52, 0
2, 58920, Note_on_c, 0, 71, 0
2, 58920, Note_on_c, 0, 83, 0
2, 58925, Note_on_c, 0, 83, 104
2, 58927, Note_on_c, 0, 47, 105
2, 58928, Note_on_c, 0, 78, 0
2, 58929, Note_on_c, 0, 71, 95
2, 58931, Note_on_c, 0, 52, 97
2, 58931, Note_on_c, 0, 40, 94
2, 58939, Note_on_c, 0, 78, 101
2, 58997, Note_on_c, 0, 74, 0
2, 59002, Note_on_c, 0, 74, 99
2, 59036, Note_on_c, 0, 71, 0
2, 59041, Note_on_c, 0, 71, 88
2, 59132, Note_on_c, 0, 66, 92
2, 59222, Note_on_c, 0, 62, 69
2, 59224, Note_on_c, 0, 59, 92
2, 59243, Control_c, 0, 64, 0
2, 59245, Note_on_c, 0, 52, 0
2, 59245, Note_on_c, 0, 50, 0
2, 59245, Note_on_c, 0, 83, 0
2, 59246, Note_on_c, 0, 78, 0
2, 59246, Note_on_c, 0, 71, 0
2, 59246, Note_on_c, 0, 66, 0
2, 59246, Note_on_c, 0, 40, 0
2, 59246, Note_on_c, 0, 74, 0
2, 59246, Note_on_c, 0, 38, 0
2, 59266, Note_on_c, 0, 62, 0
2, 59274, Note_on_c, 0, 47, 0
2, 59279, Note_on_c, 0, 47, 110
2, 59281, Note_on_c, 0, 59, 0
2, 59284, Note_on_c, 0, 35, 101
2, 59343, Control_c, 0, 64, 127
2, 59538, Note_on_c, 0, 33, 99
2, 59539, Note_on_c, 0, 45, 110
2, 59640, Note_on_c, 0, 74, 116
2, 59644, Note_on_c, 0, 62, 107
2, 59646, Note_on_c, 0, 69, 86
2, 59785, Note_on_c, 0, 33, 0
2, 59785, Note_on_c, 0, 45, 0
2, 59786, Note_on_c, 0, 62, 0
2, 59786, Control_c, 0, 64, 0
2, 59800, Note_on_c, 0, 74, 0
2, 59804, Note_on_c, 0, 35, 0
2, 59804, Note_on_c, 0, 47, 0
2, 59813, Note_on_c, 0, 47, 111
2, 59815, Note_on_c, 0, 35, 98
2, 59842, Note_on_c, 0, 69, 0
2, 59896, Control_c, 0, 64, 127
2, 60000, Note_on_c, 0, 59, 108
2, 60002, Note_on_c, 0, 62, 105
2, 60004, Note_on_c, 0, 74, 113
2, 60008, Note_on_c, 0, 71, 92
2, 60030, Note_on_c, 0, 69, 66
2, 60062, Note_on_c, 0, 57, 104
2, 60129, Note_on_c, 0, 54, 101
2, 60188, Note_on_c, 0, 47, 0
2, 60192, Note_on_c, 0, 47, 101
2, 60277, Note_on_c, 0, 42, 96
2, 60349, Note_on_c, 0, 35, 0
2, 60349, Note_on_c, 0, 71, 0
2, 60349, Note_on_c, 0, 74, 0
2, 60353, Note_on_c, 0, 35, 91
2, 60355, Note_on_c, 0, 71, 107
2, 60355, Note_on_c, 0, 83, 107
2, 60357, Note_on_c, 0, 74, 110
2, 60363, Note_on_c, 0, 78, 96
2, 60449, Note_on_c, 0, 42, 0
2, 60453, Note_on_c, 0, 42, 98
2, 60518, Note_on_c, 0, 42, 0
2, 60518, Note_on_c, 0, 47, 0
2, 60529, Note_on_c, 0, 42, 87
2, 60529, Note_on_c, 0, 47, 101
2, 60595, Note_on_c, 0, 69, 0
2, 60598, Note_on_c, 0, 57, 0
2, 60599, Note_on_c, 0, 54, 0
2, 60599, Note_on_c, 0, 59, 0
2, 60599, Note_on_c, 0, 74, 0
2, 60599, Note_on_c, 0, 71, 0
2, 60599, Note_on_c, 0, 62, 0
2, 60599, Note_on_c, 0, 83, 0
2, 60599, Note_on_c, 0, 78, 0
2, 60600, Note_on_c, 0, 42, 0
2, 60600, Note_on_c, 0, 47, 0
2, 60603, Note_on_c, 0, 35, 0
2, 60604, Control_c, 0, 64, 0
2, 60706, Note_on_c, 0, 81, 111
2, 60707, Note_on_c, 0, 69, 113
2, 60708, Note_on_c, 0, 74, 109
2, 60709, Note_on_c, 0, 78, 111
2, 60717, Note_on_c, 0, 36, 98
2, 60748, Control_c, 0, 64, 127
2, 60880, Note_on_c, 0, 83, 112
2, 60880, Note_on_c, 0, 71, 104
2, 61032, Note_on_c, 0, 74, 0
2, 61032, Note_on_c, 0, 78, 0
2, 61033, Note_on_c, 0, 59, 105
2, 61036, Note_on_c, 0, 86, 110
2, 61037, Note_on_c, 0, 55, 89
2, 61039, Note_on_c, 0, 52, 78
2, 61040, Note_on_c, 0, 78, 111
2, 61042, Note_on_c, 0, 74, 110
2, 61171, Note_on_c, 0, 36, 0
2, 61177, Note_on_c, 0, 36, 68
2, 61209, Note_on_c, 0, 78, 0
2, 61217, Note_on_c, 0, 74, 0
2, 61217, Note_on_c, 0, 83, 0
2, 61218, Note_on_c, 0, 78, 99
2, 61221, Note_on_c, 0, 83, 103
2, 61225, Note_on_c, 0, 74, 104
2, 61305, Note_on_c, 0, 48, 88
2, 61370, Note_on_c, 0, 74, 0
2, 61370, Note_on_c, 0, 78, 0
2, 61370, Note_on_c, 0, 81, 0
2, 61378, Note_on_c, 0, 81, 110
2, 61381, Note_on_c, 0, 78, 92
2, 61381, Note_on_c, 0, 74, 103
2, 61463, Note_on_c, 0, 36, 0
2, 61470, Note_on_c, 0, 36, 79
2, 61539, Note_on_c, 0, 74, 0
2, 61539, Note_on_c, 0, 83, 0
2, 61546, Note_on_c, 0, 83, 104
2, 61547, Note_on_c, 0, 78, 0
2, 61550, Note_on_c, 0, 74, 101
2, 61552, Note_on_c, 0, 78, 85
2, 61616, Note_on_c, 0, 74, 0
2, 61616, Note_on_c, 0, 83, 0
2, 61624, Note_on_c, 0, 78, 0
2, 61627, Note_on_c, 0, 83, 104
2, 61628, Note_on_c, 0, 74, 100
2, 61634, Note_on_c, 0, 78, 100
2, 61716, Note_on_c, 0, 55, 0
2, 61716, Note_on_c, 0, 59, 0
2, 61721, Note_on_c, 0, 59, 107
2, 61724, Note_on_c, 0, 52, 0
2, 61727, Note_on_c, 0, 55, 103
2, 61734, Note_on_c, 0, 52, 94
2, 61743, Note_on_c, 0, 47, 89
2, 61862, Note_on_c, 0, 48, 0
2, 61866, Note_on_c, 0, 48, 88
2, 61889, Note_on_c, 0, 79, 108
2, 61889, Note_on_c, 0, 91, 97
2, 61900, Note_on_c, 0, 91, 0
2, 61998, Control_c, 0, 64, 0
2, 61998, Note_on_c, 0, 36, 0
2, 61999, Note_on_c, 0, 48, 0
2, 62001, Note_on_c, 0, 81, 0
2, 62001, Note_on_c, 0, 52, 0
2, 62001, Note_on_c, 0, 59, 0
2, 62002, Note_on_c, 0, 47, 0
2, 62002, Note_on_c, 0, 78, 0
2, 62003, Note_on_c, 0, 79, 0
2, 62003, Note_on_c, 0, 83, 0
2, 62003, Note_on_c, 0, 55, 0
2, 62003, Note_on_c, 0, 86, 0
2, 62008, Note_on_c, 0, 69, 0
2, 62023, Note_on_c, 0, 71, 0
2, 62023, Note_on_c, 0, 74, 0
2, 62056, Note_on_c, 0, 81, 109
2, 62057, Note_on_c, 0, 38, 102
2, 62058, Note_on_c, 0, 74, 106
2, 62059, Note_on_c, 0, 78, 103
2, 62060, Note_on_c, 0, 26, 100
2, 62085, Control_c, 0, 64, 127
2, 62223, Note_on_c, 0, 74, 0
2, 62228, Note_on_c, 0, 83, 109
2, 62228, Note_on_c, 0, 74, 102
2, 62370, Control_c, 0, 64, 0
2, 62372, Note_on_c, 0, 62, 100
2, 62380, Note_on_c, 0, 57, 94
2, 62383, Note_on_c, 0, 54, 91
2, 62384, Note_on_c, 0, 74, 0
2, 62384, Note_on_c, 0, 78, 0
2, 62388, Note_on_c, 0, 50, 84
2, 62389, Note_on_c, 0, 86, 109
2, 62393, Note_on_c, 0, 78, 109
2, 62395, Note_on_c, 0, 74, 110
2, 62400, Control_c, 0, 64, 127
2, 62522, Note_on_c, 0, 38, 0
2, 62534, Note_on_c, 0, 38, 94
2, 62553, Note_on_c, 0, 83, 0
2, 62561, Note_on_c, 0, 74, 0
2, 62561, Note_on_c, 0, 78, 0
2, 62564, Note_on_c, 0, 83, 108
2, 62566, Note_on_c, 0, 74, 101
2, 62566, Note_on_c, 0, 78, 104
2, 62622, Note_on_c, 0, 50, 0
2, 62630, Note_on_c, 0, 50, 78
2, 62714, Note_on_c, 0, 74, 0
2, 62714, Note_on_c, 0, 78, 0
2, 62714, Note_on_c, 0, 81, 0
2, 62719, Note_on_c, 0, 81, 107
2, 62724, Note_on_c, 0, 74, 103
2, 62725, Note_on_c, 0, 78, 97
2, 62845, Note_on_c, 0, 26, 0
2, 62845, Note_on_c, 0, 38, 0
2, 62849, Note_on_c, 0, 38, 94
2, 62850, Note_on_c, 0, 26, 78
2, 62883, Note_on_c, 0, 74, 0
2, 62883, Note_on_c, 0, 83, 0
2, 62887, Note_on_c, 0, 83, 100
2, 62890, Note_on_c, 0, 74, 102
2, 62971, Note_on_c, 0, 79, 104
2, 63052, Note_on_c, 0, 54, 0
2, 63052, Note_on_c, 0, 57, 0
2, 63052, Note_on_c, 0, 62, 0
2, 63057, Note_on_c, 0, 62, 99
2, 63063, Note_on_c, 0, 57, 100
2, 63064, Note_on_c, 0, 54, 99
2, 63152, Note_on_c, 0, 54, 0
2, 63158, Note_on_c, 0, 54, 74
2, 63214, Note_on_c, 0, 50, 0
2, 63221, Note_on_c, 0, 79, 0
2, 63225, Note_on_c, 0, 50, 92
2, 63231, Note_on_c, 0, 79, 109
2, 63336, Control_c, 0, 64, 0
2, 63340, Note_on_c, 0, 86, 0
2, 63341, Note_on_c, 0, 83, 0
2, 63341, Note_on_c, 0, 79, 0
2, 63341, Note_on_c, 0, 57, 0
2, 63342, Note_on_c, 0, 74, 0
2, 63342, Note_on_c, 0, 81, 0
2, 63342, Note_on_c, 0, 62, 0
2, 63343, Note_on_c, 0, 50, 0
2, 63343, Note_on_c, 0, 54, 0
2, 63360, Note_on_c, 0, 26, 0
2, 63360, Note_on_c, 0, 78, 0
2, 63367, Note_on_c, 0, 38, 0
2, 63401, Note_on_c, 0, 79, 110
2, 63402, Note_on_c, 0, 67, 107
2, 63403, Note_on_c, 0, 75, 99
2, 63403, Note_on_c, 0, 39, 98
2, 63403, Note_on_c, 0, 71, 101
2, 63406, Note_on_c, 0, 27, 102
2, 63490, Control_c, 0, 64, 127
2, 63667, Note_on_c, 0, 81, 111
2, 63668, Note_on_c, 0, 69, 108
2, 63759, Note_on_c, 0, 63, 104
2, 63763, Note_on_c, 0, 59, 99
2, 63769, Note_on_c, 0, 54, 93
2, 63905, Note_on_c, 0, 71, 0
2, 63912, Note_on_c, 0, 39, 0
2, 63913, Note_on_c, 0, 71, 109
2, 63914, Note_on_c, 0, 83, 111
2, 63920, Note_on_c, 0, 39, 93
2, 64081, Note_on_c, 0, 59, 0
2, 64081, Note_on_c, 0, 67, 0
2, 64085, Note_on_c, 0, 67, 92
2, 64088, Note_on_c, 0, 59, 81
2, 64143, Note_on_c, 0, 71, 0
2, 64153, Note_on_c, 0, 71, 92
2, 64181, Note_on_c, 0, 63, 0
2, 64181, Note_on_c, 0, 75, 0
2, 64186, Note_on_c, 0, 75, 87
2, 64188, Note_on_c, 0, 63, 82
2, 64250, Note_on_c, 0, 79, 0
2, 64256, Note_on_c, 0, 79, 100
2, 64296, Note_on_c, 0, 83, 0
2, 64307, Note_on_c, 0, 83, 100
2, 64350, Note_on_c, 0, 83, 0
2, 64355, Note_on_c, 0, 83, 66
2, 64356, Note_on_c, 0, 87, 101
2, 64412, Note_on_c, 0, 59, 0
2, 64412, Note_on_c, 0, 63, 0
2, 64412, Note_on_c, 0, 79, 0
2, 64418, Note_on_c, 0, 63, 105
2, 64419, Note_on_c, 0, 54, 0
2, 64422, Note_on_c, 0, 59, 95
2, 64423, Note_on_c, 0, 91, 114
2, 64423, Note_on_c, 0, 79, 110
2, 64425, Note_on_c, 0, 54, 89
2, 64593, Note_on_c, 0, 51, 70
2, 64596, Note_on_c, 0, 78, 115
2, 64597, Note_on_c, 0, 90, 114
2, 64730, Control_c, 0, 64, 0
2, 64730, Note_on_c, 0, 75, 0
2, 64731, Note_on_c, 0, 81, 0
2, 64731, Note_on_c, 0, 51, 0
2, 64731, Note_on_c, 0, 63, 0
2, 64732, Note_on_c, 0, 83, 0
2, 64732, Note_on_c, 0, 71, 0
2, 64735, Note_on_c, 0, 79, 0
2, 64735, Note_on_c, 0, 87, 0
2, 64735, Note_on_c, 0, 67, 0
2, 64736, Note_on_c, 0, 91, 0
2, 64736, Note_on_c, 0, 69, 0
2, 64736, Note_on_c, 0, 78, 0
2, 64737, Note_on_c, 0, 59, 0
2, 64738, Note_on_c, 0, 90, 0
2, 64750, Note_on_c, 0, 27, 0
2, 64750, Note_on_c, 0, 39, 0
2, 64765, Note_on_c, 0, 54, 0
2, 64766, Note_on_c, 0, 40, 94
2, 64766, Note_on_c, 0, 28, 91
2, 64766, Note_on_c, 0, 86, 106
2, 64796, Control_c, 0, 64, 127
2, 64800, Note_on_c, 0, 81, 85
2, 64850, Note_on_c, 0, 78, 96
2, 64935, Note_on_c, 0, 74, 113
2, 64983, Note_on_c, 0, 69, 89
2, 65103, Note_on_c, 0, 74, 0
2, 65103, Note_on_c, 0, 86, 0
2, 65107, Note_on_c, 0, 66, 107
2, 65110, Note_on_c, 0, 74, 113
2, 65114, Note_on_c, 0, 86, 108
2, 65114, Note_on_c, 0, 62, 89
2, 65225, Note_on_c, 0, 57, 92
2, 65346, Note_on_c, 0, 52, 84
2, 65441, Note_on_c, 0, 62, 0
2, 65448, Note_on_c, 0, 74, 0
2, 65448, Note_on_c, 0, 78, 0
2, 65451, Note_on_c, 0, 83, 106
2, 65451, Note_on_c, 0, 59, 106
2, 65452, Note_on_c, 0, 62, 91
2, 65452, Note_on_c, 0, 71, 108
2, 65452, Note_on_c, 0, 74, 108
2, 65453, Note_on_c, 0, 55, 99
2, 65453, Note_on_c, 0, 78, 94
2, 65458, Control_c, 0, 64, 0
2, 65487, Control_c, 0, 64, 127
2, 65541, Note_on_c, 0, 57, 0
2, 65625, Note_on_c, 0, 40, 0
2, 65629, Note_on_c, 0, 40, 84
2, 65710, Note_on_c, 0, 69, 0
2, 65710, Note_on_c, 0, 81, 0
2, 65717, Note_on_c, 0, 74, 0
2, 65717, Note_on_c, 0, 78, 0
2, 65720, Note_on_c, 0, 81, 108
2, 65721, Note_on_c, 0, 69, 102
2, 65723, Note_on_c, 0, 78, 104
2, 65727, Note_on_c, 0, 74, 102
2, 65879, Note_on_c, 0, 28, 0
2, 65879, Note_on_c, 0, 40, 0
2, 65884, Note_on_c, 0, 40, 84
2, 65885, Note_on_c, 0, 28, 91
2, 65896, Note_on_c, 0, 55, 0
2, 65896, Note_on_c, 0, 52, 0
2, 65897, Note_on_c, 0, 83, 0
2, 65897, Note_on_c, 0, 59, 0
2, 65897, Note_on_c, 0, 71, 0
2, 65898, Note_on_c, 0, 81, 0
2, 65898, Note_on_c, 0, 74, 0
2, 65900, Note_on_c, 0, 78, 0
2, 65901, Note_on_c, 0, 69, 0
2, 65902, Note_on_c, 0, 86, 0
2, 65909, Note_on_c, 0, 62, 0
2, 65909, Note_on_c, 0, 66, 0
2, 65918, Control_c, 0, 64, 0
2, 65940, Note_on_c, 0, 40, 0
2, 65978, Note_on_c, 0, 28, 0
2, 65989, Note_on_c, 0, 40, 99
2, 65990, Note_on_c, 0, 28, 94
2, 65990, Note_on_c, 0, 79, 111
2, 65996, Note_on_c, 0, 67, 105
2, 66050, Note_on_c, 0, 40, 0
2, 66166, Note_on_c, 0, 24, 94
2, 66168, Note_on_c, 0, 36, 101
2, 66170, Note_on_c, 0, 76, 103
2, 66193, Control_c, 0, 64, 127
2, 66250, Note_on_c, 0, 74, 105
2, 66255, Note_on_c, 0, 28, 0
2, 66343, Note_on_c, 0, 71, 99
2, 66408, Note_on_c, 0, 67, 0
2, 66419, Note_on_c, 0, 67, 99
2, 66504, Note_on_c, 0, 59, 110
2, 66506, Note_on_c, 0, 55, 90
2, 66507, Note_on_c, 0, 64, 86
2, 66509, Note_on_c, 0, 52, 89
2, 66662, Note_on_c, 0, 36, 0
2, 66662, Note_on_c, 0, 79, 0
2, 66670, Note_on_c, 0, 67, 0
2, 66673, Note_on_c, 0, 36, 92
2, 66673, Note_on_c, 0, 79, 106
2, 66680, Note_on_c, 0, 67, 95
2, 66768, Note_on_c, 0, 48, 88
2, 66839, Note_on_c, 0, 67, 0
2, 66839, Note_on_c, 0, 79, 0
2, 66849, Note_on_c, 0, 79, 106
2, 66850, Note_on_c, 0, 67, 101
2, 67015, Note_on_c, 0, 36, 0
2, 67017, Note_on_c, 0, 81, 107
2, 67018, Note_on_c, 0, 69, 107
2, 67023, Note_on_c, 0, 48, 0
2, 67026, Note_on_c, 0, 36, 79
2, 67033, Note_on_c, 0, 48, 83
2, 67184, Note_on_c, 0, 52, 0
2, 67184, Note_on_c, 0, 55, 0
2, 67184, Note_on_c, 0, 59, 0
2, 67184, Note_on_c, 0, 71, 0
2, 67188, Note_on_c, 0, 59, 106
2, 67188, Note_on_c, 0, 55, 95
2, 67193, Note_on_c, 0, 83, 105
2, 67193, Note_on_c, 0, 71, 106
2, 67194, Note_on_c, 0, 52, 92
2, 67198, Note_on_c, 0, 47, 95
2, 67315, Note_on_c, 0, 48, 0
2, 67326, Note_on_c, 0, 48, 91
2, 67353, Note_on_c, 0, 69, 0
2, 67353, Note_on_c, 0, 81, 0
2, 67359, Note_on_c, 0, 81, 109
2, 67361, Note_on_c, 0, 74, 0
2, 67361, Note_on_c, 0, 69, 104
2, 67365, Note_on_c, 0, 74, 105
2, 67372, Note_on_c, 0, 78, 100
2, 67376, Note_on_c, 0, 24, 0
2, 67476, Note_on_c, 0, 47, 0
2, 67477, Note_on_c, 0, 52, 0
2, 67477, Note_on_c, 0, 83, 0
2, 67477, Note_on_c, 0, 59, 0
2, 67477, Note_on_c, 0, 76, 0
2, 67477, Note_on_c, 0, 64, 0
2, 67478, Note_on_c, 0, 36, 0
2, 67478, Note_on_c, 0, 67, 0
2, 67478, Note_on_c, 0, 71, 0
2, 67478, Note_on_c, 0, 55, 0
2, 67479, Note_on_c, 0, 79, 0
2, 67480, Control_c, 0, 64, 0
2, 67499, Note_on_c, 0, 48, 0
2, 67538, Note_on_c, 0, 50, 102
2, 67539, Note_on_c, 0, 45, 101
2, 67540, Note_on_c, 0, 38, 99
2, 67545, Control_c, 0, 64, 127
2, 67607, Note_on_c, 0, 69, 0
2, 67614, Note_on_c, 0, 38, 0
2, 67614, Note_on_c, 0, 50, 0
2, 67617, Note_on_c, 0, 69, 92
2, 67618, Note_on_c, 0, 38, 51
2, 67619, Note_on_c, 0, 50, 83
2, 67641, Control_c, 0, 64, 0
2, 67699, Note_on_c, 0, 78, 0
2, 67705, Note_on_c, 0, 81, 0
2, 67706, Note_on_c, 0, 74, 0
2, 67714, Note_on_c, 0, 45, 0
2, 67722, Note_on_c, 0, 38, 0
2, 67722, Note_on_c, 0, 50, 0
2, 67737, Note_on_c, 0, 69, 0
2, 68061, Note_on_c, 0, 74, 109
2, 68063, Note_on_c, 0, 62, 101
2, 68097, Note_on_c, 0, 62, 0
2, 68105, Note_on_c, 0, 74, 0
2, 68240, Note_on_c, 0, 74, 112
2, 68244, Note_on_c, 0, 62, 101
2, 68591, Note_on_c, 0, 76, 114
2, 68591, Note_on_c, 0, 64, 112
2, 68620, Note_on_c, 0, 74, 0
2, 68620, Control_c, 0, 64, 127
2, 68636, Note_on_c, 0, 62, 0
2, 68904, Note_on_c, 0, 64, 0
2, 68933, Note_on_c, 0, 52, 104
2, 68934, Control_c, 0, 64, 0
2, 68934, Note_on_c, 0, 40, 105
2, 68937, Note_on_c, 0, 47, 106
2, 68938, Note_on_c, 0, 28, 105
2, 68974, Control_c, 0, 64, 127
2, 69115, Note_on_c, 0, 26, 70
2, 69116, Note_on_c, 0, 38, 72
2, 69212, Note_on_c, 0, 38, 0
2, 69212, Note_on_c, 0, 40, 0
2, 69218, Note_on_c, 0, 50, 94
2, 69221, Note_on_c, 0, 40, 79
2, 69222, Note_on_c, 0, 33, 76
2, 69222, Note_on_c, 0, 38, 87
2, 69223, Note_on_c, 0, 45, 91
2, 69231, Note_on_c, 0, 47, 0
2, 69232, Control_c, 0, 64, 0
2, 69233, Note_on_c, 0, 52, 0
2, 69242, Note_on_c, 0, 76, 0
2, 69281, Note_on_c, 0, 40, 0
2, 69288, Note_on_c, 0, 33, 0
2, 69327, Note_on_c, 0, 26, 0
2, 69350, Note_on_c, 0, 28, 0
2, 69350, Control_c, 0, 64, 127
2, 69356, Note_on_c, 0, 40, 64
2, 69359, Note_on_c, 0, 28, 77
2, 69443, Control_c, 0, 64, 0
2, 69457, Note_on_c, 0, 40, 0
2, 69468, Note_on_c, 0, 40, 94
2, 69469, Note_on_c, 0, 52, 100
2, 69470, Note_on_c, 0, 47, 102
2, 69471, Note_on_c, 0, 50, 0
2, 69473, Note_on_c, 0, 45, 0
2, 69488, Note_on_c, 0, 38, 0
2, 69619, Control_c, 0, 64, 127
2, 69679, Note_on_c, 0, 27, 78
2, 69683, Note_on_c, 0, 26, 88
2, 69687, Note_on_c, 0, 38, 82
2, 69688, Note_on_c, 0, 27, 0
2, 69749, Note_on_c, 0, 38, 0
2, 69753, Note_on_c, 0, 50, 103
2, 69760, Note_on_c, 0, 38, 97
2, 69762, Note_on_c, 0, 33, 78
2, 69765, Note_on_c, 0, 45, 91
2, 69963, Note_on_c, 0, 79, 110
2, 69964, Note_on_c, 0, 52, 0
2, 69967, Note_on_c, 0, 71, 105
2, 69967, Note_on_c, 0, 67, 102
2, 69971, Note_on_c, 0, 59, 88
2, 69972, Note_on_c, 0, 33, 0
2, 69974, Note_on_c, 0, 55, 83
2, 69975, Note_on_c, 0, 64, 92
2, 69976, Note_on_c, 0, 52, 95
2, 69980, Note_on_c, 0, 64, 0
2, 70041, Note_on_c, 0, 59, 0
2, 70041, Note_on_c, 0, 67, 0
2, 70047, Note_on_c, 0, 59, 61
2, 70050, Note_on_c, 0, 67, 99
2, 70110, Note_on_c, 0, 59, 0
2, 70110, Note_on_c, 0, 67, 0
2, 70110, Note_on_c, 0, 71, 0
2, 70110, Note_on_c, 0, 79, 0
2, 70115, Note_on_c, 0, 71, 100
2, 70118, Note_on_c, 0, 55, 0
2, 70118, Note_on_c, 0, 67, 92
2, 70119, Note_on_c, 0, 79, 100
2, 70121, Note_on_c, 0, 62, 79
2, 70121, Note_on_c, 0, 59, 90
2, 70121, Note_on_c, 0, 47, 0
2, 70122, Note_on_c, 0, 50, 0
2, 70124, Note_on_c, 0, 55, 89
2, 70179, Note_on_c, 0, 28, 0
2, 70183, Note_on_c, 0, 38, 0
2, 70185, Control_c, 0, 64, 0
2, 70187, Note_on_c, 0, 71, 0
2, 70187, Note_on_c, 0, 79, 0
2, 70191, Note_on_c, 0, 71, 100
2, 70192, Note_on_c, 0, 79, 106
2, 70195, Note_on_c, 0, 40, 0
2, 70225, Note_on_c, 0, 26, 0
2, 70272, Note_on_c, 0, 45, 0
2, 70287, Note_on_c, 0, 52, 0
2, 70298, Note_on_c, 0, 52, 103
2, 70299, Note_on_c, 0, 47, 100
2, 70299, Note_on_c, 0, 40, 102
2, 70333, Control_c, 0, 64, 127
2, 70499, Note_on_c, 0, 47, 0
2, 70502, Note_on_c, 0, 38, 83
2, 70504, Note_on_c, 0, 26, 90
2, 70571, Note_on_c, 0, 26, 0
2, 70571, Note_on_c, 0, 38, 0
2, 70577, Note_on_c, 0, 33, 85
2, 70579, Note_on_c, 0, 45, 95
2, 70579, Note_on_c, 0, 55, 0
2, 70579, Note_on_c, 0, 26, 92
2, 70580, Note_on_c, 0, 38, 95
2, 70580, Note_on_c, 0, 50, 102
2, 70584, Control_c, 0, 64, 0
2, 70586, Note_on_c, 0, 40, 0
2, 70586, Note_on_c, 0, 59, 0
2, 70589, Note_on_c, 0, 52, 0
2, 70594, Note_on_c, 0, 62, 0
2, 70609, Note_on_c, 0, 71, 0
2, 70617, Note_on_c, 0, 33, 0
2, 70663, Note_on_c, 0, 26, 0
2, 70730, Note_on_c, 0, 28, 82
2, 70740, Note_on_c, 0, 28, 0
2, 70797, Note_on_c, 0, 38, 0
2, 70798, Note_on_c, 0, 50, 0
2, 70799, Note_on_c, 0, 45, 0
2, 70822, Note_on_c, 0, 47, 105
2, 70823, Note_on_c, 0, 52, 104
2, 70824, Note_on_c, 0, 40, 99
2, 70828, Note_on_c, 0, 28, 99
2, 70832, Note_on_c, 0, 28, 0
2, 71040, Control_c, 0, 64, 127
2, 71044, Note_on_c, 0, 27, 80
2, 71047, Note_on_c, 0, 79, 0
2, 71049, Note_on_c, 0, 26, 87
2, 71052, Note_on_c, 0, 38, 84
2, 71055, Note_on_c, 0, 26, 0
2, 71055, Note_on_c, 0, 27, 0
2, 71116, Note_on_c, 0, 38, 0
2, 71118, Note_on_c, 0, 50, 103
2, 71122, Note_on_c, 0, 38, 99
2, 71128, Note_on_c, 0, 45, 96
2, 71312, Note_on_c, 0, 83, 109
2, 71312, Note_on_c, 0, 71, 110
2, 71313, Note_on_c, 0, 74, 107
2, 71316, Note_on_c, 0, 40, 0
2, 71316, Note_on_c, 0, 52, 0
2, 71319, Note_on_c, 0, 62, 89
2, 71326, Note_on_c, 0, 52, 92
2, 71329, Note_on_c, 0, 47, 0
2, 71374, Control_c, 0, 64, 0
2, 71385, Note_on_c, 0, 83, 0
2, 71389, Note_on_c, 0, 83, 104
2, 71400, Control_c, 0, 64, 127
2, 71470, Note_on_c, 0, 71, 0
2, 71470, Note_on_c, 0, 74, 0
2, 71477, Note_on_c, 0, 62, 0
2, 71477, Note_on_c, 0, 83, 0
2, 71480, Note_on_c, 0, 71, 101
2, 71480, Note_on_c, 0, 74, 97
2, 71481, Note_on_c, 0, 83, 100
2, 71486, Note_on_c, 0, 79, 81
2, 71487, Note_on_c, 0, 62, 91
2, 71492, Note_on_c, 0, 55, 90
2, 71554, Note_on_c, 0, 71, 0
2, 71554, Note_on_c, 0, 74, 0
2, 71554, Note_on_c, 0, 83, 0
2, 71560, Note_on_c, 0, 83, 107
2, 71561, Note_on_c, 0, 71, 102
2, 71562, Note_on_c, 0, 79, 0
2, 71565, Note_on_c, 0, 74, 105
2, 71567, Note_on_c, 0, 79, 88
2, 71586, Note_on_c, 0, 55, 0
2, 71588, Note_on_c, 0, 62, 0
2, 71591, Note_on_c, 0, 38, 0
2, 71596, Control_c, 0, 64, 0
2, 71608, Note_on_c, 0, 45, 0
2, 71608, Note_on_c, 0, 50, 0
2, 71608, Note_on_c, 0, 67, 0
2, 71616, Note_on_c, 0, 52, 0
2, 71646, Note_on_c, 0, 74, 0
2, 71649, Note_on_c, 0, 52, 99
2, 71650, Note_on_c, 0, 40, 102
2, 71650, Note_on_c, 0, 47, 104
2, 71655, Note_on_c, 0, 74, 97
2, 71662, Control_c, 0, 64, 127
2, 71843, Note_on_c, 0, 26, 86
2, 71845, Note_on_c, 0, 38, 86
2, 71854, Note_on_c, 0, 26, 0
2, 71915, Note_on_c, 0, 40, 0
2, 71915, Note_on_c, 0, 38, 0
2, 71915, Note_on_c, 0, 79, 0
2, 71916, Note_on_c, 0, 52, 0
2, 71917, Note_on_c, 0, 74, 0
2, 71917, Note_on_c, 0, 47, 0
2, 71918, Control_c, 0, 64, 0
2, 71926, Note_on_c, 0, 38, 90
2, 71927, Note_on_c, 0, 50, 101
2, 71928, Note_on_c, 0, 45, 94
2, 71930, Note_on_c, 0, 83, 0
2, 72080, Note_on_c, 0, 28, 84
2, 72080, Note_on_c, 0, 40, 79
2, 72158, Note_on_c, 0, 45, 0
2, 72161, Note_on_c, 0, 40, 0
2, 72161, Note_on_c, 0, 71, 0
2, 72168, Note_on_c, 0, 38, 0
2, 72172, Note_on_c, 0, 52, 103
2, 72172, Note_on_c, 0, 40, 98
2, 72173, Note_on_c, 0, 47, 103
2, 72238, Control_c, 0, 64, 127
2, 72392, Note_on_c, 0, 26, 86
2, 72395, Note_on_c, 0, 38, 83
2, 72399, Note_on_c, 0, 26, 0
2, 72460, Note_on_c, 0, 50, 0
2, 72467, Note_on_c, 0, 50, 104
2, 72468, Note_on_c, 0, 38, 0
2, 72470, Control_c, 0, 64, 0
2, 72473, Note_on_c, 0, 38, 97
2, 72476, Note_on_c, 0, 47, 0
2, 72477, Note_on_c, 0, 45, 97
2, 72478, Note_on_c, 0, 33, 83
2, 72480, Note_on_c, 0, 47, 86
2, 72529, Control_c, 0, 64, 127
2, 72545, Note_on_c, 0, 33, 0
2, 72645, Note_on_c, 0, 28, 0
2, 72672, Note_on_c, 0, 79, 109
2, 72674, Note_on_c, 0, 71, 106
2, 72675, Note_on_c, 0, 52, 0
2, 72677, Note_on_c, 0, 67, 103
2, 72678, Note_on_c, 0, 64, 96
2, 72681, Note_on_c, 0, 59, 90
2, 72682, Note_on_c, 0, 52, 95
2, 72683, Note_on_c, 0, 64, 0
2, 72744, Note_on_c, 0, 67, 0
2, 72744, Note_on_c, 0, 71, 0
2, 72744, Note_on_c, 0, 79, 0
2, 72755, Note_on_c, 0, 67, 95
2, 72755, Note_on_c, 0, 71, 95
2, 72756, Note_on_c, 0, 79, 103
2, 72821, Note_on_c, 0, 59, 0
2, 72821, Note_on_c, 0, 67, 0
2, 72829, Note_on_c, 0, 59, 90
2, 72829, Note_on_c, 0, 71, 0
2, 72829, Note_on_c, 0, 79, 0
2, 72833, Note_on_c, 0, 67, 95
2, 72833, Note_on_c, 0, 71, 95
2, 72833, Note_on_c, 0, 55, 83
2, 72835, Note_on_c, 0, 79, 97
2, 72906, Note_on_c, 0, 67, 0
2, 72906, Note_on_c, 0, 71, 0
2, 72906, Note_on_c, 0, 79, 0
2, 72910, Note_on_c, 0, 79, 105
2, 72910, Note_on_c, 0, 71, 99
2, 72912, Note_on_c, 0, 67, 100
2, 72914, Control_c, 0, 64, 0
2, 72952, Note_on_c, 0, 40, 0
2, 72952, Control_c, 0, 64, 127
2, 72960, Note_on_c, 0, 45, 0
2, 72967, Note_on_c, 0, 50, 0
2, 72983, Note_on_c, 0, 47, 0
2, 72983, Note_on_c, 0, 52, 0
2, 72990, Note_on_c, 0, 38, 0
2, 72993, Note_on_c, 0, 47, 106
2, 72994, Note_on_c, 0, 52, 99
2, 72994, Note_on_c, 0, 40, 96
2, 72998, Note_on_c, 0, 79, 0
2, 73004, Note_on_c, 0, 79, 90
2, 73005, Note_on_c, 0, 78, 86
2, 73198, Note_on_c, 0, 38, 78
2, 73201, Note_on_c, 0, 26, 84
2, 73205, Note_on_c, 0, 26, 0
2, 73207, Note_on_c, 0, 47, 0
2, 73267, Note_on_c, 0, 38, 0
2, 73276, Note_on_c, 0, 33, 82
2, 73277, Note_on_c, 0, 38, 99
2, 73278, Note_on_c, 0, 45, 96
2, 73281, Note_on_c, 0, 50, 98
2, 73290, Note_on_c, 0, 55, 0
2, 73297, Note_on_c, 0, 78, 0
2, 73309, Note_on_c, 0, 67, 0
2, 73309, Note_on_c, 0, 40, 0
2, 73309, Note_on_c, 0, 71, 0
2, 73309, Note_on_c, 0, 79, 0
2, 73309, Note_on_c, 0, 52, 0
2, 73310, Control_c, 0, 64, 0
2, 73313, Note_on_c, 0, 33, 0
2, 73344, Note_on_c, 0, 59, 0
2, 73440, Note_on_c, 0, 28, 85
2, 73474, Control_c, 0, 64, 127
2, 73524, Note_on_c, 0, 47, 105
2, 73526, Note_on_c, 0, 40, 98
2, 73527, Note_on_c, 0, 52, 101
2, 73543, Note_on_c, 0, 45, 0
2, 73547, Note_on_c, 0, 50, 0
2, 73554, Control_c, 0, 64, 0
2, 73612, Control_c, 0, 64, 127
2, 73688, Note_on_c, 0, 57, 95
2, 73743, Note_on_c, 0, 28, 0
2, 73757, Note_on_c, 0, 62, 95
2, 73834, Note_on_c, 0, 64, 104
2, 73850, Note_on_c, 0, 47, 0
2, 73855, Note_on_c, 0, 47, 102
2, 73861, Note_on_c, 0, 35, 91
2, 73919, Note_on_c, 0, 69, 97
2, 73981, Note_on_c, 0, 74, 104
2, 74035, Note_on_c, 0, 38, 0
2, 74041, Note_on_c, 0, 50, 95
2, 74046, Note_on_c, 0, 38, 95
2, 74046, Note_on_c, 0, 76, 99
2, 74108, Note_on_c, 0, 81, 99
2, 74163, Note_on_c, 0, 86, 97
2, 74222, Note_on_c, 0, 88, 99
2, 74257, Note_on_c, 0, 40, 0
2, 74272, Note_on_c, 0, 93, 110
2, 74362, Control_c, 0, 64, 0
2, 74364, Note_on_c, 0, 64, 0
2, 74365, Note_on_c, 0, 35, 0
2, 74365, Note_on_c, 0, 62, 0
2, 74365, Note_on_c, 0, 47, 0
2, 74365, Note_on_c, 0, 86, 0
2, 74365, Note_on_c, 0, 57, 0
2, 74365, Note_on_c, 0, 38, 0
2, 74366, Note_on_c, 0, 74, 0
2, 74366, Note_on_c, 0, 81, 0
2, 74366, Note_on_c, 0, 76, 0
2, 74366, Note_on_c, 0, 69, 0
2, 74367, Note_on_c, 0, 88, 0
2, 74367, Note_on_c, 0, 50, 0
2, 74380, Note_on_c, 0, 52, 0
2, 74385, Note_on_c, 0, 52, 107
2, 74390, Note_on_c, 0, 40, 93
2, 74391, Note_on_c, 0, 91, 112
2, 74493, Note_on_c, 0, 90, 89
2, 74503, Control_c, 0, 64, 127
2, 74519, Note_on_c, 0, 40, 0
2, 74564, Note_on_c, 0, 88, 89
2, 74659, Note_on_c, 0, 83, 74
2, 74668, Note_on_c, 0, 67, 96
2, 74818, Note_on_c, 0, 83, 0
2, 74823, Note_on_c, 0, 83, 76
2, 74880, Note_on_c, 0, 93, 0
2, 74926, Note_on_c, 0, 91, 0
2, 74933, Note_on_c, 0, 91, 96
2, 74939, Note_on_c, 0, 66, 93
2, 75002, Note_on_c, 0, 90, 0
2, 75013, Note_on_c, 0, 90, 89
2, 75102, Note_on_c, 0, 88, 0
2, 75109, Note_on_c, 0, 88, 74
2, 75171, Note_on_c, 0, 83, 0
2, 75182, Note_on_c, 0, 83, 74
2, 75261, Note_on_c, 0, 62, 80
2, 75275, Note_on_c, 0, 79, 62
2, 75371, Note_on_c, 0, 83, 0
2, 75379, Note_on_c, 0, 83, 62
2, 75440, Note_on_c, 0, 91, 0
2, 75451, Note_on_c, 0, 64, 94
2, 75451, Note_on_c, 0, 91, 96
2, 75525, Note_on_c, 0, 90, 0
2, 75534, Note_on_c, 0, 90, 81
2, 75609, Note_on_c, 0, 62, 0
2, 75609, Note_on_c, 0, 88, 0
2, 75613, Note_on_c, 0, 62, 77
2, 75613, Note_on_c, 0, 88, 73
2, 75686, Note_on_c, 0, 83, 0
2, 75692, Note_on_c, 0, 83, 71
2, 75783, Note_on_c, 0, 50, 87
2, 75798, Note_on_c, 0, 93, 101
2, 75878, Note_on_c, 0, 91, 0
2, 75882, Note_on_c, 0, 91, 89
2, 75955, Note_on_c, 0, 90, 0
2, 75965, Note_on_c, 0, 90, 81
2, 76046, Note_on_c, 0, 86, 69
2, 76068, Note_on_c, 0, 54, 74
2, 76134, Note_on_c, 0, 81, 69
2, 76231, Note_on_c, 0, 86, 0
2, 76239, Note_on_c, 0, 86, 72
2, 76331, Note_on_c, 0, 93, 0
2, 76335, Note_on_c, 0, 93, 87
2, 76344, Note_on_c, 0, 57, 82
2, 76423, Note_on_c, 0, 91, 0
2, 76428, Note_on_c, 0, 91, 79
2, 76520, Note_on_c, 0, 59, 100
2, 76584, Note_on_c, 0, 86, 0
2, 76589, Note_on_c, 0, 86, 69
2, 76615, Note_on_c, 0, 57, 0
2, 76623, Note_on_c, 0, 57, 70
2, 76677, Note_on_c, 0, 59, 0
2, 76677, Note_on_c, 0, 81, 0
2, 76687, Note_on_c, 0, 81, 68
2, 76688, Note_on_c, 0, 59, 82
2, 76761, Note_on_c, 0, 86, 0
2, 76769, Note_on_c, 0, 57, 0
2, 76770, Note_on_c, 0, 86, 74
2, 76777, Note_on_c, 0, 57, 66
2, 76846, Note_on_c, 0, 59, 0
2, 76846, Note_on_c, 0, 93, 0
2, 76854, Note_on_c, 0, 59, 96
2, 76855, Note_on_c, 0, 93, 96
2, 76915, Note_on_c, 0, 91, 0
2, 76926, Note_on_c, 0, 91, 88
2, 77007, Note_on_c, 0, 90, 0
2, 77014, Note_on_c, 0, 60, 94
2, 77018, Note_on_c, 0, 90, 74
2, 77091, Note_on_c, 0, 86, 0
2, 77103, Note_on_c, 0, 86, 79
2, 77199, Note_on_c, 0, 59, 0
2, 77200, Control_c, 0, 64, 0
2, 77202, Note_on_c, 0, 52, 0
2, 77203, Note_on_c, 0, 79, 0
2, 77203, Note_on_c, 0, 81, 0
2, 77203, Note_on_c, 0, 62, 0
2, 77204, Note_on_c, 0, 67, 0
2, 77204, Note_on_c, 0, 54, 0
2, 77204, Note_on_c, 0, 50, 0
2, 77204, Note_on_c, 0, 83, 0
2, 77204, Note_on_c, 0, 88, 0
2, 77204, Note_on_c, 0, 57, 0
2, 77204, Note_on_c, 0, 64, 0
2, 77205, Note_on_c, 0, 90, 0
2, 77205, Note_on_c, 0, 66, 0
2, 77205, Note_on_c, 0, 93, 0
2, 77206, Note_on_c, 0, 60, 0
2, 77207, Note_on_c, 0, 91, 0
2, 77209, Note_on_c, 0, 59, 95
2, 77211, Note_on_c, 0, 91, 97
2, 77212, Note_on_c, 0, 48, 86
2, 77222, Note_on_c, 0, 86, 0
2, 77280, Note_on_c, 0, 90, 76
2, 77306, Control_c, 0, 64, 127
2, 77395, Note_on_c, 0, 88, 74
2, 77463, Note_on_c, 0, 83, 68
2, 77497, Note_on_c, 0, 55, 97
2, 77555, Note_on_c, 0, 79, 58
2, 77652, Note_on_c, 0, 83, 0
2, 77663, Note_on_c, 0, 83, 60
2, 77760, Note_on_c, 0, 91, 0
2, 77764, Note_on_c, 0, 91, 93
2, 77765, Note_on_c, 0, 52, 66
2, 77836, Note_on_c, 0, 90, 0
2, 77840, Note_on_c, 0, 90, 82
2, 77928, Note_on_c, 0, 88, 0
2, 77938, Note_on_c, 0, 88, 80
2, 78005, Note_on_c, 0, 83, 0
2, 78011, Note_on_c, 0, 83, 72
2, 78097, Note_on_c, 0, 48, 0
2, 78097, Note_on_c, 0, 79, 0
2, 78102, Note_on_c, 0, 48, 65
2, 78104, Note_on_c, 0, 79, 64
2, 78213, Note_on_c, 0, 83, 0
2, 78222, Note_on_c, 0, 83, 53
2, 78274, Note_on_c, 0, 91, 0
2, 78282, Note_on_c, 0, 52, 0
2, 78283, Note_on_c, 0, 91, 89
2, 78287, Note_on_c, 0, 52, 51
2, 78351, Note_on_c, 0, 90, 0
2, 78355, Note_on_c, 0, 90, 82
2, 78451, Note_on_c, 0, 88, 0
2, 78461, Note_on_c, 0, 88, 75
2, 78512, Note_on_c, 0, 83, 0
2, 78517, Note_on_c, 0, 83, 75
2, 78618, Note_on_c, 0, 93, 95
2, 78622, Note_on_c, 0, 50, 84
2, 78640, Control_c, 0, 64, 0
2, 78648, Note_on_c, 0, 83, 0
2, 78648, Note_on_c, 0, 52, 0
2, 78648, Note_on_c, 0, 48, 0
2, 78648, Note_on_c, 0, 79, 0
2, 78648, Note_on_c, 0, 59, 0
2, 78651, Note_on_c, 0, 55, 0
2, 78652, Note_on_c, 0, 88, 0
2, 78696, Note_on_c, 0, 91, 0
2, 78702, Note_on_c, 0, 91, 77
2, 78712, Control_c, 0, 64, 127
2, 78773, Note_on_c, 0, 90, 0
2, 78784, Note_on_c, 0, 90, 73
2, 78809, Note_on_c, 0, 54, 91
2, 78892, Note_on_c, 0, 86, 76
2, 78985, Note_on_c, 0, 55, 94
2, 78985, Note_on_c, 0, 88, 86
2, 79067, Note_on_c, 0, 57, 93
2, 79073, Note_on_c, 0, 90, 0
2, 79081, Note_on_c, 0, 90, 78
2, 79142, Note_on_c, 0, 91, 0
2, 79152, Note_on_c, 0, 91, 92
2, 79180, Note_on_c, 0, 88, 0
2, 79191, Note_on_c, 0, 88, 51
2, 79224, Note_on_c, 0, 59, 106
2, 79231, Note_on_c, 0, 95, 99
2, 79347, Note_on_c, 0, 71, 56
2, 79357, Note_on_c, 0, 71, 0
2, 79434, Note_on_c, 0, 93, 0
2, 79438, Note_on_c, 0, 93, 84
2, 79511, Note_on_c, 0, 57, 0
2, 79515, Note_on_c, 0, 57, 93
2, 79518, Note_on_c, 0, 95, 0
2, 79522, Note_on_c, 0, 95, 100
2, 79610, Note_on_c, 0, 93, 0
2, 79616, Note_on_c, 0, 93, 89
2, 79672, Note_on_c, 0, 59, 0
2, 79680, Note_on_c, 0, 91, 0
2, 79683, Note_on_c, 0, 59, 90
2, 79686, Note_on_c, 0, 91, 86
2, 79749, Note_on_c, 0, 90, 0
2, 79760, Note_on_c, 0, 90, 92
2, 79841, Note_on_c, 0, 88, 0
2, 79850, Note_on_c, 0, 88, 92
2, 79852, Note_on_c, 0, 62, 92
2, 79925, Note_on_c, 0, 86, 0
2, 79930, Note_on_c, 0, 86, 93
2, 79982, Control_c, 0, 64, 0
2, 79986, Note_on_c, 0, 95, 0
2, 79990, Note_on_c, 0, 93, 0
2, 79990, Note_on_c, 0, 90, 0
2, 79991, Note_on_c, 0, 54, 0
2, 79992, Note_on_c, 0, 57, 0
2, 79992, Note_on_c, 0, 50, 0
2, 79993, Note_on_c, 0, 86, 0
2, 79997, Note_on_c, 0, 62, 0
2, 80010, Note_on_c, 0, 91, 0
2, 80017, Note_on_c, 0, 88, 0
2, 80020, Note_on_c, 0, 91, 100
2, 80024, Note_on_c, 0, 64, 98
2, 80025, Note_on_c, 0, 55, 0
2, 80025, Note_on_c, 0, 59, 0
2, 80029, Note_on_c, 0, 52, 79
2, 80030, Note_on_c, 0, 55, 85
2, 80030, Note_on_c, 0, 59, 87
2, 80079, Control_c, 0, 64, 127
2, 80120, Note_on_c, 0, 90, 87
2, 80218, Note_on_c, 0, 88, 82
2, 80289, Note_on_c, 0, 83, 77
2, 80296, Note_on_c, 0, 67, 93
2, 80380, Note_on_c, 0, 79, 73
2, 80471, Note_on_c, 0, 83, 0
2, 80482, Note_on_c, 0, 83, 74
2, 80563, Note_on_c, 0, 91, 0
2, 80573, Note_on_c, 0, 91, 97
2, 80575, Note_on_c, 0, 66, 96
2, 80647, Note_on_c, 0, 90, 0
2, 80656, Note_on_c, 0, 90, 81
2, 80739, Note_on_c, 0, 88, 0
2, 80744, Note_on_c, 0, 88, 85
2, 80824, Note_on_c, 0, 83, 0
2, 80834, Note_on_c, 0, 83, 75
2, 80889, Note_on_c, 0, 62, 88
2, 80916, Note_on_c, 0, 79, 0
2, 80925, Note_on_c, 0, 79, 73
2, 81000, Note_on_c, 0, 83, 0
2, 81010, Note_on_c, 0, 83, 73
2, 81077, Note_on_c, 0, 64, 0
2, 81077, Note_on_c, 0, 91, 0
2, 81088, Note_on_c, 0, 64, 100
2, 81089, Note_on_c, 0, 91, 99
2, 81162, Note_on_c, 0, 90, 0
2, 81170, Note_on_c, 0, 90, 85
2, 81254, Note_on_c, 0, 62, 0
2, 81254, Note_on_c, 0, 88, 0
2, 81259, Note_on_c, 0, 88, 72
2, 81265, Note_on_c, 0, 62, 83
2, 81315, Note_on_c, 0, 83, 0
2, 81324, Note_on_c, 0, 83, 72
2, 81415, Note_on_c, 0, 52, 0
2, 81416, Note_on_c, 0, 66, 0
2, 81418, Note_on_c, 0, 55, 0
2, 81418, Note_on_c, 0, 79, 0
2, 81418, Note_on_c, 0, 88, 0
2, 81419, Note_on_c, 0, 90, 0
2, 81419, Note_on_c, 0, 83, 0
2, 81419, Note_on_c, 0, 67, 0
2, 81419, Note_on_c, 0, 59, 0
2, 81419, Note_on_c, 0, 62, 0
2, 81420, Note_on_c, 0, 64, 0
2, 81420, Note_on_c, 0, 93, 102
2, 81420, Note_on_c, 0, 50, 93
2, 81426, Control_c, 0, 64, 0
2, 81446, Note_on_c, 0, 91, 0
2, 81492, Control_c, 0, 64, 127
2, 81508, Note_on_c, 0, 91, 95
2, 81594, Note_on_c, 0, 90, 90
2, 81687, Note_on_c, 0, 86, 79
2, 81694, Note_on_c, 0, 54, 90
2, 81766, Note_on_c, 0, 81, 81
2, 81861, Note_on_c, 0, 86, 0
2, 81871, Note_on_c, 0, 86, 83
2, 81937, Note_on_c, 0, 93, 0
2, 81941, Note_on_c, 0, 93, 99
2, 81950, Note_on_c, 0, 57, 96
2, 82014, Note_on_c, 0, 91, 0
2, 82021, Note_on_c, 0, 91, 96
2, 82114, Note_on_c, 0, 90, 0
2, 82124, Note_on_c, 0, 90, 80
2, 82135, Note_on_c, 0, 71, 104
2, 82183, Note_on_c, 0, 86, 0
2, 82195, Note_on_c, 0, 86, 90
2, 82223, Note_on_c, 0, 69, 100
2, 82291, Note_on_c, 0, 71, 0
2, 82291, Note_on_c, 0, 81, 0
2, 82297, Note_on_c, 0, 81, 87
2, 82301, Note_on_c, 0, 71, 97
2, 82383, Note_on_c, 0, 69, 0
2, 82383, Note_on_c, 0, 86, 0
2, 82389, Note_on_c, 0, 69, 100
2, 82393, Note_on_c, 0, 86, 83
2, 82452, Note_on_c, 0, 71, 0
2, 82458, Note_on_c, 0, 71, 106
2, 82460, Note_on_c, 0, 93, 0
2, 82469, Note_on_c, 0, 93, 106
2, 82536, Note_on_c, 0, 91, 0
2, 82547, Note_on_c, 0, 91, 102
2, 82629, Note_on_c, 0, 90, 0
2, 82633, Note_on_c, 0, 90, 95
2, 82636, Note_on_c, 0, 72, 107
2, 82682, Note_on_c, 0, 86, 0
2, 82686, Note_on_c, 0, 86, 86
2, 82805, Note_on_c, 0, 71, 0
2, 82816, Note_on_c, 0, 71, 106
2, 82818, Note_on_c, 0, 48, 89
2, 82823, Note_on_c, 0, 91, 0
2, 82823, Note_on_c, 0, 93, 0
2, 82824, Note_on_c, 0, 57, 0
2, 82825, Note_on_c, 0, 86, 0
2, 82826, Note_on_c, 0, 81, 0
2, 82826, Note_on_c, 0, 50, 0
2, 82826, Note_on_c, 0, 72, 0
2, 82826, Note_on_c, 0, 90, 0
2, 82826, Note_on_c, 0, 69, 0
2, 82827, Control_c, 0, 64, 0
2, 82829, Note_on_c, 0, 54, 0
2, 82913, Control_c, 0, 64, 127
2, 83093, Note_on_c, 0, 55, 93
2, 83094, Note_on_c, 0, 67, 102
2, 83364, Note_on_c, 0, 91, 103
2, 83366, Note_on_c, 0, 48, 0
2, 83366, Note_on_c, 0, 59, 76
2, 83368, Note_on_c, 0, 64, 78
2, 83446, Note_on_c, 0, 90, 96
2, 83525, Note_on_c, 0, 88, 91
2, 83611, Note_on_c, 0, 83, 73
2, 83686, Note_on_c, 0, 79, 74
2, 83719, Note_on_c, 0, 59, 0
2, 83730, Note_on_c, 0, 59, 78
2, 83773, Note_on_c, 0, 83, 0
2, 83778, Note_on_c, 0, 83, 72
2, 83873, Note_on_c, 0, 91, 0
2, 83878, Note_on_c, 0, 91, 102
2, 83880, Note_on_c, 0, 64, 0
2, 83892, Note_on_c, 0, 64, 94
2, 83942, Note_on_c, 0, 90, 0
2, 83953, Note_on_c, 0, 90, 75
2, 84034, Note_on_c, 0, 88, 0
2, 84040, Note_on_c, 0, 88, 74
2, 84080, Note_on_c, 0, 83, 0
2, 84091, Note_on_c, 0, 83, 73
2, 84134, Note_on_c, 0, 79, 0
2, 84140, Note_on_c, 0, 79, 70
2, 84216, Control_c, 0, 64, 0
2, 84222, Note_on_c, 0, 55, 0
2, 84222, Note_on_c, 0, 71, 0
2, 84222, Note_on_c, 0, 67, 0
2, 84222, Note_on_c, 0, 90, 0
2, 84222, Note_on_c, 0, 59, 0
2, 84222, Note_on_c, 0, 88, 0
2, 84222, Note_on_c, 0, 79, 0
2, 84222, Note_on_c, 0, 64, 0
2, 84229, Note_on_c, 0, 93, 108
2, 84231, Note_on_c, 0, 50, 96
2, 84241, Note_on_c, 0, 83, 0
2, 84241, Note_on_c, 0, 91, 0
2, 84280, Control_c, 0, 64, 127
2, 84320, Note_on_c, 0, 91, 98
2, 84403, Note_on_c, 0, 66, 102
2, 84408, Note_on_c, 0, 90, 96
2, 84488, Note_on_c, 0, 86, 92
2, 84556, Note_on_c, 0, 66, 0
2, 84560, Note_on_c, 0, 81, 99
2, 84567, Note_on_c, 0, 66, 94
2, 84661, Note_on_c, 0, 79, 79
2, 84740, Note_on_c, 0, 67, 102
2, 84743, Note_on_c, 0, 78, 81
2, 84829, Note_on_c, 0, 74, 89
2, 84908, Note_on_c, 0, 69, 108
2, 84994, Note_on_c, 0, 67, 0
2, 85005, Note_on_c, 0, 67, 87
2, 85079, Note_on_c, 0, 66, 0
2, 85086, Note_on_c, 0, 66, 95
2, 85190, Note_on_c, 0, 62, 87
2, 85259, Note_on_c, 0, 71, 111
2, 85352, Note_on_c, 0, 38, 92
2, 85438, Note_on_c, 0, 45, 92
2, 85509, Note_on_c, 0, 50, 0
2, 85514, Note_on_c, 0, 50, 90
2, 85565, Control_c, 0, 64, 0
2, 85566, Note_on_c, 0, 91, 0
2, 85567, Note_on_c, 0, 93, 0
2, 85567, Note_on_c, 0, 90, 0
2, 85568, Note_on_c, 0, 69, 0
2, 85568, Note_on_c, 0, 50, 0
2, 85568, Note_on_c, 0, 62, 0
2, 85568, Note_on_c, 0, 81, 0
2, 85568, Note_on_c, 0, 86, 0
2, 85568, Note_on_c, 0, 79, 0
2, 85569, Note_on_c, 0, 71, 0
2, 85569, Note_on_c, 0, 38, 0
2, 85569, Note_on_c, 0, 74, 0
2, 85569, Note_on_c, 0, 66, 0
2, 85570, Note_on_c, 0, 45, 0
2, 85585, Note_on_c, 0, 78, 0
2, 85593, Note_on_c, 0, 67, 0
2, 85614, Note_on_c, 0, 47, 104
2, 85615, Note_on_c, 0, 40, 97
2, 85618, Note_on_c, 0, 52, 100
2, 85632, Control_c, 0, 64, 127
2, 85804, Note_on_c, 0, 81, 105
2, 85806, Note_on_c, 0, 59, 81
2, 85809, Note_on_c, 0, 78, 85
2, 85810, Note_on_c, 0, 74, 93
2, 85824, Control_c, 0, 64, 0
2, 85839, Note_on_c, 0, 40, 0
2, 85849, Note_on_c, 0, 81, 0
2, 85851, Note_on_c, 0, 59, 0
2, 85851, Note_on_c, 0, 78, 0
2, 85854, Note_on_c, 0, 47, 0
2, 85854, Note_on_c, 0, 52, 0
2, 85858, Note_on_c, 0, 62, 71
2, 85893, Note_on_c, 0, 74, 0
2, 85896, Note_on_c, 0, 81, 104
2, 85897, Note_on_c, 0, 78, 98
2, 85898, Note_on_c, 0, 74, 98
2, 85958, Note_on_c, 0, 69, 99
2, 85969, Note_on_c, 0, 81, 0
2, 85975, Note_on_c, 0, 81, 101
2, 85977, Note_on_c, 0, 74, 0
2, 85977, Note_on_c, 0, 78, 0
2, 85981, Note_on_c, 0, 78, 87
2, 85986, Note_on_c, 0, 74, 94
2, 86027, Note_on_c, 0, 81, 0
2, 86029, Note_on_c, 0, 69, 0
2, 86031, Note_on_c, 0, 62, 0
2, 86037, Note_on_c, 0, 62, 82
2, 86062, Note_on_c, 0, 74, 0
2, 86062, Note_on_c, 0, 78, 0
2, 86138, Note_on_c, 0, 62, 0
2, 86147, Note_on_c, 0, 59, 88
2, 86147, Note_on_c, 0, 81, 101
2, 86151, Note_on_c, 0, 78, 87
2, 86153, Note_on_c, 0, 74, 85
2, 86223, Note_on_c, 0, 74, 0
2, 86223, Note_on_c, 0, 81, 0
2, 86228, Note_on_c, 0, 81, 104
2, 86231, Note_on_c, 0, 78, 0
2, 86231, Note_on_c, 0, 74, 99
2, 86233, Note_on_c, 0, 62, 74
2, 86236, Note_on_c, 0, 78, 85
2, 86261, Control_c, 0, 64, 127
2, 86269, Note_on_c, 0, 59, 0
2, 86307, Note_on_c, 0, 74, 0
2, 86307, Note_on_c, 0, 78, 0
2, 86307, Note_on_c, 0, 81, 0
2, 86313, Note_on_c, 0, 78, 101
2, 86315, Note_on_c, 0, 81, 104
2, 86318, Note_on_c, 0, 74, 102
2, 86318, Note_on_c, 0, 69, 98
2, 86349, Control_c, 0, 64, 0
2, 86379, Note_on_c, 0, 69, 0
2, 86407, Note_on_c, 0, 62, 0
2, 86413, Note_on_c, 0, 62, 86
2, 86423, Note_on_c, 0, 74, 0
2, 86430, Note_on_c, 0, 81, 0
2, 86438, Note_on_c, 0, 78, 0
2, 86490, Note_on_c, 0, 81, 106
2, 86495, Note_on_c, 0, 74, 97
2, 86506, Note_on_c, 0, 59, 90
2, 86522, Control_c, 0, 64, 127
2, 86524, Note_on_c, 0, 62, 0
2, 86576, Note_on_c, 0, 74, 0
2, 86576, Note_on_c, 0, 81, 0
2, 86580, Note_on_c, 0, 81, 94
2, 86586, Note_on_c, 0, 74, 92
2, 86587, Note_on_c, 0, 78, 82
2, 86592, Note_on_c, 0, 78, 0
2, 86597, Note_on_c, 0, 62, 84
2, 86627, Note_on_c, 0, 62, 0
2, 86638, Note_on_c, 0, 59, 0
2, 86638, Control_c, 0, 64, 0
2, 86653, Note_on_c, 0, 81, 0
2, 86661, Note_on_c, 0, 74, 0
2, 86664, Note_on_c, 0, 81, 106
2, 86671, Note_on_c, 0, 74, 95
2, 86688, Note_on_c, 0, 69, 96
2, 86722, Control_c, 0, 64, 127
2, 86756, Note_on_c, 0, 62, 93
2, 86835, Note_on_c, 0, 59, 92
2, 86838, Note_on_c, 0, 79, 99
2, 86920, Note_on_c, 0, 76, 102
2, 86955, Control_c, 0, 64, 0
2, 86958, Note_on_c, 0, 69, 0
2, 86959, Note_on_c, 0, 74, 0
2, 86959, Note_on_c, 0, 81, 0
2, 86961, Note_on_c, 0, 59, 0
2, 86962, Note_on_c, 0, 62, 0
2, 86963, Note_on_c, 0, 79, 0
2, 87000, Note_on_c, 0, 76, 0
2, 87009, Note_on_c, 0, 47, 109
2, 87010, Note_on_c, 0, 35, 94
2, 87068, Control_c, 0, 64, 127
2, 87191, Note_on_c, 0, 59, 79
2, 87191, Note_on_c, 0, 81, 106
2, 87192, Note_on_c, 0, 78, 90
2, 87193, Note_on_c, 0, 74, 97
2, 87237, Note_on_c, 0, 35, 0
2, 87262, Note_on_c, 0, 62, 84
2, 87267, Note_on_c, 0, 74, 0
2, 87267, Note_on_c, 0, 81, 0
2, 87272, Note_on_c, 0, 81, 103
2, 87273, Note_on_c, 0, 74, 82
2, 87274, Note_on_c, 0, 59, 0
2, 87275, Note_on_c, 0, 47, 0
2, 87278, Control_c, 0, 64, 0
2, 87344, Note_on_c, 0, 81, 0
2, 87352, Note_on_c, 0, 74, 0
2, 87352, Note_on_c, 0, 78, 0
2, 87352, Note_on_c, 0, 69, 101
2, 87352, Note_on_c, 0, 81, 103
2, 87356, Note_on_c, 0, 78, 99
2, 87356, Note_on_c, 0, 74, 96
2, 87375, Note_on_c, 0, 62, 0
2, 87387, Note_on_c, 0, 81, 0
2, 87387, Note_on_c, 0, 69, 0
2, 87393, Note_on_c, 0, 74, 0
2, 87397, Note_on_c, 0, 78, 0
2, 87439, Note_on_c, 0, 62, 86
2, 87534, Note_on_c, 0, 81, 100
2, 87538, Note_on_c, 0, 74, 94
2, 87538, Note_on_c, 0, 59, 82
2, 87539, Note_on_c, 0, 78, 87
2, 87567, Note_on_c, 0, 74, 0
2, 87575, Control_c, 0, 64, 127
2, 87605, Note_on_c, 0, 81, 0
2, 87613, Note_on_c, 0, 62, 0
2, 87613, Note_on_c, 0, 78, 0
2, 87617, Note_on_c, 0, 81, 106
2, 87619, Note_on_c, 0, 74, 99
2, 87621, Note_on_c, 0, 62, 77
2, 87621, Note_on_c, 0, 78, 91
2, 87678, Control_c, 0, 64, 0
2, 87697, Note_on_c, 0, 59, 0
2, 87697, Note_on_c, 0, 81, 0
2, 87705, Note_on_c, 0, 74, 0
2, 87705, Note_on_c, 0, 78, 0
2, 87708, Note_on_c, 0, 81, 102
2, 87709, Note_on_c, 0, 69, 97
2, 87710, Note_on_c, 0, 74, 92
2, 87710, Note_on_c, 0, 78, 99
2, 87759, Note_on_c, 0, 69, 0
2, 87782, Note_on_c, 0, 62, 0
2, 87792, Note_on_c, 0, 62, 70
2, 87805, Note_on_c, 0, 74, 0
2, 87805, Note_on_c, 0, 81, 0
2, 87813, Note_on_c, 0, 78, 0
2, 87886, Note_on_c, 0, 74, 95
2, 87886, Note_on_c, 0, 81, 99
2, 87893, Note_on_c, 0, 59, 86
2, 87928, Control_c, 0, 64, 127
2, 87963, Note_on_c, 0, 83, 102
2, 87974, Note_on_c, 0, 62, 0
2, 87978, Note_on_c, 0, 62, 85
2, 88028, Control_c, 0, 64, 0
2, 88034, Note_on_c, 0, 59, 0
2, 88035, Note_on_c, 0, 74, 0
2, 88035, Note_on_c, 0, 81, 0
2, 88040, Note_on_c, 0, 74, 104
2, 88040, Note_on_c, 0, 81, 110
2, 88041, Note_on_c, 0, 83, 0
2, 88069, Note_on_c, 0, 69, 94
2, 88104, Note_on_c, 0, 62, 0
2, 88112, Control_c, 0, 64, 127
2, 88147, Note_on_c, 0, 62, 90
2, 88216, Note_on_c, 0, 59, 98
2, 88217, Note_on_c, 0, 79, 110
2, 88345, Control_c, 0, 64, 0
2, 88347, Note_on_c, 0, 81, 0
2, 88347, Note_on_c, 0, 62, 0
2, 88347, Note_on_c, 0, 74, 0
2, 88348, Note_on_c, 0, 79, 0
2, 88349, Note_on_c, 0, 69, 0
2, 88350, Note_on_c, 0, 59, 0
2, 88392, Note_on_c, 0, 48, 109
2, 88394, Note_on_c, 0, 43, 99
2, 88395, Note_on_c, 0, 36, 92
2, 88473, Control_c, 0, 64, 127
2, 88561, Note_on_c, 0, 74, 109
2, 88576, Note_on_c, 0, 60, 85
2, 88588, Note_on_c, 0, 48, 0
2, 88604, Note_on_c, 0, 43, 0
2, 88634, Note_on_c, 0, 74, 0
2, 88640, Note_on_c, 0, 62, 90
2, 88642, Note_on_c, 0, 74, 104
2, 88657, Note_on_c, 0, 36, 0
2, 88669, Control_c, 0, 64, 0
2, 88696, Note_on_c, 0, 60, 0
2, 88727, Note_on_c, 0, 62, 0
2, 88728, Note_on_c, 0, 71, 97
2, 88742, Note_on_c, 0, 74, 0
2, 88750, Note_on_c, 0, 74, 102
2, 88786, Note_on_c, 0, 71, 0
2, 88815, Note_on_c, 0, 62, 89
2, 88915, Note_on_c, 0, 72, 101
2, 88917, Note_on_c, 0, 60, 86
2, 88988, Note_on_c, 0, 62, 0
2, 88988, Note_on_c, 0, 74, 0
2, 88993, Note_on_c, 0, 71, 101
2, 88996, Note_on_c, 0, 62, 85
2, 89000, Note_on_c, 0, 72, 0
2, 89048, Note_on_c, 0, 71, 0
2, 89064, Note_on_c, 0, 60, 0
2, 89064, Note_on_c, 0, 62, 0
2, 89086, Note_on_c, 0, 69, 102
2, 89089, Note_on_c, 0, 72, 108
2, 89184, Note_on_c, 0, 62, 90
2, 89226, Note_on_c, 0, 69, 0
2, 89254, Note_on_c, 0, 62, 0
2, 89274, Note_on_c, 0, 72, 0
2, 89276, Note_on_c, 0, 60, 91
2, 89277, Note_on_c, 0, 71, 99
2, 89341, Control_c, 0, 64, 127
2, 89350, Note_on_c, 0, 69, 103
2, 89357, Note_on_c, 0, 71, 0
2, 89373, Note_on_c, 0, 62, 81
2, 89389, Control_c, 0, 64, 0
2, 89407, Note_on_c, 0, 69, 0
2, 89425, Note_on_c, 0, 60, 0
2, 89437, Note_on_c, 0, 71, 109
2, 89440, Note_on_c, 0, 67, 99
2, 89441, Note_on_c, 0, 62, 0
2, 89510, Control_c, 0, 64, 127
2, 89524, Note_on_c, 0, 62, 92
2, 89603, Note_on_c, 0, 69, 103
2, 89605, Note_on_c, 0, 60, 99
2, 89679, Note_on_c, 0, 67, 0
2, 89686, Note_on_c, 0, 67, 97
2, 89703, Control_c, 0, 64, 0
2, 89711, Note_on_c, 0, 71, 0
2, 89711, Note_on_c, 0, 69, 0
2, 89711, Note_on_c, 0, 62, 0
2, 89712, Note_on_c, 0, 60, 0
2, 89713, Note_on_c, 0, 67, 0
2, 89784, Note_on_c, 0, 64, 106
2, 89784, Note_on_c, 0, 50, 100
2, 89785, Note_on_c, 0, 62, 104
2, 89788, Note_on_c, 0, 76, 104
2, 89789, Note_on_c, 0, 57, 101
2, 89789, Note_on_c, 0, 54, 104
2, 89809, Control_c, 0, 64, 127
2, 89925, Note_on_c, 0, 62, 0
2, 89925, Note_on_c, 0, 57, 0
2, 89926, Note_on_c, 0, 50, 0
2, 89926, Control_c, 0, 64, 0
2, 89927, Note_on_c, 0, 64, 0
2, 89928, Note_on_c, 0, 76, 0
2, 89937, Note_on_c, 0, 38, 94
2, 89940, Note_on_c, 0, 54, 0
2, 90033, Note_on_c, 0, 50, 88
2, 90055, Note_on_c, 0, 38, 0
2, 90120, Note_on_c, 0, 79, 107
2, 90122, Note_on_c, 0, 38, 98
2, 90124, Note_on_c, 0, 67, 103
2, 90160, Note_on_c, 0, 67, 0
2, 90163, Note_on_c, 0, 50, 0
2, 90164, Note_on_c, 0, 38, 0
2, 90299, Note_on_c, 0, 62, 103
2, 90301, Control_c, 0, 64, 127
2, 90303, Note_on_c, 0, 54, 104
2, 90304, Note_on_c, 0, 57, 104
2, 90420, Note_on_c, 0, 57, 0
2, 90420, Note_on_c, 0, 54, 0
2, 90423, Note_on_c, 0, 62, 0
2, 90426, Control_c, 0, 64, 0
2, 90432, Note_on_c, 0, 79, 0
2, 90460, Note_on_c, 0, 38, 99
2, 90460, Note_on_c, 0, 81, 107
2, 90466, Note_on_c, 0, 69, 103
2, 90519, Note_on_c, 0, 38, 0
2, 90539, Note_on_c, 0, 50, 89
2, 90637, Note_on_c, 0, 38, 97
2, 90697, Note_on_c, 0, 81, 0
2, 90697, Note_on_c, 0, 69, 0
2, 90697, Note_on_c, 0, 50, 0
2, 90698, Note_on_c, 0, 38, 0
2, 90803, Note_on_c, 0, 62, 106
2, 90804, Note_on_c, 0, 54, 105
2, 90806, Note_on_c, 0, 57, 104
2, 90813, Note_on_c, 0, 71, 105
2, 90818, Note_on_c, 0, 83, 104
2, 90854, Control_c, 0, 64, 127
2, 90981, Note_on_c, 0, 81, 108
2, 90982, Note_on_c, 0, 69, 109
2, 91085, Control_c, 0, 64, 0
2, 91086, Note_on_c, 0, 83, 0
2, 91087, Note_on_c, 0, 57, 0
2, 91087, Note_on_c, 0, 54, 0
2, 91088, Note_on_c, 0, 71, 0
2, 91088, Note_on_c, 0, 62, 0
2, 91092, Note_on_c, 0, 69, 0
2, 91150, Note_on_c, 0, 52, 105
2, 91150, Note_on_c, 0, 47, 103
2, 91150, Note_on_c, 0, 40, 100
2, 91200, Control_c, 0, 64, 127
2, 91311, Note_on_c, 0, 57, 109
2, 91340, Note_on_c, 0, 74, 86
2, 91407, Note_on_c, 0, 57, 0
2, 91415, Note_on_c, 0, 74, 0
2, 91415, Note_on_c, 0, 78, 86
2, 91417, Note_on_c, 0, 57, 96
2, 91420, Note_on_c, 0, 74, 77
2, 91453, Note_on_c, 0, 81, 0
2, 91463, Note_on_c, 0, 81, 84
2, 91499, Note_on_c, 0, 57, 0
2, 91503, Note_on_c, 0, 57, 102
2, 91505, Note_on_c, 0, 86, 103
2, 91599, Note_on_c, 0, 81, 0
2, 91603, Note_on_c, 0, 81, 79
2, 91607, Note_on_c, 0, 78, 0
2, 91611, Note_on_c, 0, 78, 68
2, 91668, Note_on_c, 0, 74, 0
2, 91675, Note_on_c, 0, 55, 107
2, 91679, Note_on_c, 0, 74, 87
2, 91701, Control_c, 0, 64, 0
2, 91722, Control_c, 0, 64, 127
2, 91783, Note_on_c, 0, 81, 0
2, 91788, Note_on_c, 0, 81, 83
2, 91845, Note_on_c, 0, 86, 0
2, 91850, Note_on_c, 0, 54, 106
2, 91851, Note_on_c, 0, 86, 101
2, 91860, Note_on_c, 0, 40, 0
2, 91888, Note_on_c, 0, 78, 0
2, 91889, Note_on_c, 0, 81, 0
2, 91891, Note_on_c, 0, 47, 0
2, 91891, Note_on_c, 0, 52, 0
2, 91891, Control_c, 0, 64, 0
2, 91893, Note_on_c, 0, 55, 0
2, 91943, Note_on_c, 0, 81, 89
2, 91944, Note_on_c, 0, 78, 82
2, 91983, Note_on_c, 0, 74, 0
2, 91991, Note_on_c, 0, 57, 0
2, 92021, Control_c, 0, 64, 127
2, 92032, Note_on_c, 0, 74, 95
2, 92098, Note_on_c, 0, 54, 0
2, 92101, Note_on_c, 0, 52, 103
2, 92109, Control_c, 0, 64, 0
2, 92113, Note_on_c, 0, 74, 0
2, 92113, Note_on_c, 0, 86, 0
2, 92136, Note_on_c, 0, 78, 0
2, 92136, Note_on_c, 0, 81, 0
2, 92140, Note_on_c, 0, 78, 81
2, 92141, Note_on_c, 0, 81, 92
2, 92160, Control_c, 0, 64, 127
2, 92228, Note_on_c, 0, 86, 104
2, 92305, Note_on_c, 0, 78, 0
2, 92305, Note_on_c, 0, 81, 0
2, 92310, Note_on_c, 0, 81, 90
2, 92313, Note_on_c, 0, 78, 84
2, 92390, Note_on_c, 0, 52, 0
2, 92392, Control_c, 0, 64, 0
2, 92393, Note_on_c, 0, 74, 96
2, 92394, Note_on_c, 0, 86, 0
2, 92396, Note_on_c, 0, 50, 99
2, 92397, Note_on_c, 0, 81, 0
2, 92413, Note_on_c, 0, 78, 0
2, 92470, Note_on_c, 0, 50, 0
2, 92472, Note_on_c, 0, 81, 87
2, 92472, Note_on_c, 0, 78, 91
2, 92491, Note_on_c, 0, 74, 0
2, 92552, Note_on_c, 0, 47, 108
2, 92553, Note_on_c, 0, 81, 0
2, 92554, Note_on_c, 0, 78, 0
2, 92557, Note_on_c, 0, 35, 95
2, 92557, Note_on_c, 0, 86, 99
2, 92628, Control_c, 0, 64, 127
2, 92638, Note_on_c, 0, 81, 90
2, 92639, Note_on_c, 0, 78, 85
2, 92724, Note_on_c, 0, 74, 79
2, 92725, Note_on_c, 0, 57, 107
2, 92805, Note_on_c, 0, 57, 0
2, 92805, Note_on_c, 0, 78, 0
2, 92805, Note_on_c, 0, 81, 0
2, 92809, Note_on_c, 0, 81, 87
2, 92811, Note_on_c, 0, 78, 88
2, 92811, Note_on_c, 0, 57, 100
2, 92881, Note_on_c, 0, 86, 0
2, 92886, Note_on_c, 0, 86, 101
2, 92889, Note_on_c, 0, 57, 0
2, 92900, Note_on_c, 0, 57, 102
2, 92966, Note_on_c, 0, 78, 0
2, 92971, Note_on_c, 0, 78, 76
2, 93027, Note_on_c, 0, 74, 0
2, 93039, Note_on_c, 0, 74, 96
2, 93079, Note_on_c, 0, 55, 105
2, 93127, Note_on_c, 0, 78, 0
2, 93127, Note_on_c, 0, 81, 0
2, 93139, Note_on_c, 0, 78, 77
2, 93139, Note_on_c, 0, 81, 85
2, 93219, Note_on_c, 0, 86, 0
2, 93224, Note_on_c, 0, 54, 102
2, 93227, Note_on_c, 0, 86, 101
2, 93296, Note_on_c, 0, 35, 0
2, 93299, Note_on_c, 0, 74, 0
2, 93300, Note_on_c, 0, 55, 0
2, 93300, Note_on_c, 0, 57, 0
2, 93301, Control_c, 0, 64, 0
2, 93304, Note_on_c, 0, 47, 0
2, 93312, Note_on_c, 0, 54, 0
2, 93319, Note_on_c, 0, 78, 0
2, 93319, Note_on_c, 0, 81, 0
2, 93321, Note_on_c, 0, 54, 92
2, 93323, Note_on_c, 0, 78, 89
2, 93324, Note_on_c, 0, 81, 85
2, 93360, Note_on_c, 0, 54, 0
2, 93392, Note_on_c, 0, 74, 87
2, 93411, Note_on_c, 0, 55, 102
2, 93442, Note_on_c, 0, 81, 0
2, 93442, Note_on_c, 0, 86, 0
2, 93457, Control_c, 0, 64, 127
2, 93473, Note_on_c, 0, 78, 0
2, 93478, Note_on_c, 0, 78, 89
2, 93484, Note_on_c, 0, 81, 78
2, 93496, Note_on_c, 0, 55, 0
2, 93505, Note_on_c, 0, 55, 92
2, 93552, Control_c, 0, 64, 0
2, 93557, Note_on_c, 0, 74, 0
2, 93560, Note_on_c, 0, 78, 0
2, 93560, Note_on_c, 0, 55, 0
2, 93576, Note_on_c, 0, 57, 104
2, 93579, Note_on_c, 0, 86, 100
2, 93611, Control_c, 0, 64, 127
2, 93649, Note_on_c, 0, 81, 0
2, 93655, Note_on_c, 0, 81, 87
2, 93659, Note_on_c, 0, 78, 84
2, 93724, Note_on_c, 0, 74, 97
2, 93753, Note_on_c, 0, 55, 100
2, 93762, Control_c, 0, 64, 0
2, 93765, Note_on_c, 0, 86, 0
2, 93765, Note_on_c, 0, 57, 0
2, 93795, Control_c, 0, 64, 127
2, 93803, Note_on_c, 0, 78, 0
2, 93803, Note_on_c, 0, 81, 0
2, 93811, Note_on_c, 0, 78, 89
2, 93812, Note_on_c, 0, 81, 94
2, 93872, Note_on_c, 0, 74, 0
2, 93880, Control_c, 0, 64, 0
2, 93911, Note_on_c, 0, 59, 112
2, 93918, Note_on_c, 0, 55, 0
2, 93922, Note_on_c, 0, 48, 101
2, 93922, Note_on_c, 0, 55, 102
2, 93922, Note_on_c, 0, 52, 99
2, 93924, Note_on_c, 0, 81, 0
2, 93926, Note_on_c, 0, 78, 0
2, 93928, Note_on_c, 0, 88, 105
2, 93929, Note_on_c, 0, 76, 102
2, 93964, Control_c, 0, 64, 127
2, 94024, Note_on_c, 0, 79, 85
2, 94027, Note_on_c, 0, 83, 86
2, 94104, Note_on_c, 0, 36, 93
2, 94126, Note_on_c, 0, 76, 0
2, 94126, Note_on_c, 0, 79, 0
2, 94136, Note_on_c, 0, 76, 90
2, 94137, Note_on_c, 0, 79, 68
2, 94210, Note_on_c, 0, 79, 0
2, 94210, Note_on_c, 0, 83, 0
2, 94217, Note_on_c, 0, 79, 88
2, 94221, Note_on_c, 0, 83, 80
2, 94264, Note_on_c, 0, 52, 0
2, 94269, Note_on_c, 0, 60, 107
2, 94274, Note_on_c, 0, 52, 70
2, 94302, Note_on_c, 0, 76, 0
2, 94310, Note_on_c, 0, 76, 88
2, 94379, Note_on_c, 0, 79, 0
2, 94386, Note_on_c, 0, 79, 89
2, 94388, Note_on_c, 0, 84, 75
2, 94433, Note_on_c, 0, 59, 0
2, 94437, Control_c, 0, 64, 0
2, 94440, Note_on_c, 0, 52, 0
2, 94440, Note_on_c, 0, 55, 0
2, 94444, Note_on_c, 0, 59, 112
2, 94448, Note_on_c, 0, 76, 0
2, 94452, Note_on_c, 0, 55, 102
2, 94452, Note_on_c, 0, 52, 100
2, 94456, Note_on_c, 0, 88, 0
2, 94459, Note_on_c, 0, 76, 104
2, 94460, Note_on_c, 0, 88, 105
2, 94464, Control_c, 0, 64, 127
2, 94533, Note_on_c, 0, 84, 0
2, 94540, Note_on_c, 0, 79, 0
2, 94540, Note_on_c, 0, 83, 0
2, 94541, Note_on_c, 0, 84, 75
2, 94545, Note_on_c, 0, 83, 91
2, 94546, Note_on_c, 0, 79, 89
2, 94617, Note_on_c, 0, 36, 0
2, 94622, Note_on_c, 0, 36, 90
2, 94625, Note_on_c, 0, 76, 0
2, 94633, Note_on_c, 0, 76, 88
2, 94709, Note_on_c, 0, 79, 0
2, 94709, Note_on_c, 0, 83, 0
2, 94718, Note_on_c, 0, 79, 75
2, 94721, Note_on_c, 0, 83, 84
2, 94786, Note_on_c, 0, 60, 0
2, 94793, Note_on_c, 0, 60, 104
2, 94794, Note_on_c, 0, 52, 0
2, 94794, Note_on_c, 0, 55, 0
2, 94801, Note_on_c, 0, 76, 0
2, 94804, Note_on_c, 0, 55, 73
2, 94805, Note_on_c, 0, 52, 65
2, 94806, Note_on_c, 0, 76, 93
2, 94863, Note_on_c, 0, 79, 0
2, 94863, Note_on_c, 0, 83, 0
2, 94867, Note_on_c, 0, 79, 93
2, 94868, Note_on_c, 0, 83, 84
2, 94947, Note_on_c, 0, 52, 0
2, 94947, Note_on_c, 0, 55, 0
2, 94947, Note_on_c, 0, 59, 0
2, 94947, Note_on_c, 0, 76, 0
2, 94952, Note_on_c, 0, 59, 107
2, 94955, Note_on_c, 0, 88, 0
2, 94955, Note_on_c, 0, 55, 99
2, 94958, Note_on_c, 0, 52, 99
2, 94959, Note_on_c, 0, 76, 104
2, 94962, Note_on_c, 0, 88, 104
2, 95040, Note_on_c, 0, 79, 0
2, 95040, Note_on_c, 0, 83, 0
2, 95048, Note_on_c, 0, 83, 93
2, 95049, Note_on_c, 0, 79, 98
2, 95116, Note_on_c, 0, 76, 0
2, 95122, Note_on_c, 0, 76, 91
2, 95185, Note_on_c, 0, 79, 0
2, 95193, Note_on_c, 0, 83, 0
2, 95194, Note_on_c, 0, 79, 103
2, 95199, Note_on_c, 0, 83, 100
2, 95291, Note_on_c, 0, 60, 0
2, 95291, Control_c, 0, 64, 0
2, 95293, Note_on_c, 0, 88, 0
2, 95293, Note_on_c, 0, 84, 0
2, 95293, Note_on_c, 0, 59, 0
2, 95293, Note_on_c, 0, 52, 0
2, 95294, Note_on_c, 0, 76, 0
2, 95294, Note_on_c, 0, 79, 0
2, 95294, Note_on_c, 0, 55, 0
2, 95294, Note_on_c, 0, 83, 0
2, 95294, Note_on_c, 0, 36, 0
2, 95301, Note_on_c, 0, 48, 0
2, 95309, Note_on_c, 0, 50, 106
2, 95310, Note_on_c, 0, 38, 108
2, 95311, Note_on_c, 0, 45, 105
2, 95441, Note_on_c, 0, 50, 0
2, 95441, Note_on_c, 0, 45, 0
2, 95444, Note_on_c, 0, 38, 0
2, 95572, Note_on_c, 0, 26, 99
2, 95572, Note_on_c, 0, 38, 97
2, 95646, Note_on_c, 0, 26, 0
2, 95668, Note_on_c, 0, 74, 113
2, 95674, Note_on_c, 0, 62, 106
2, 95692, Note_on_c, 0, 38, 0
2, 95838, Control_c, 0, 64, 127
2, 95858, Note_on_c, 0, 38, 103
2, 95858, Note_on_c, 0, 26, 101
2, 96015, Note_on_c, 0, 62, 0
2, 96015, Note_on_c, 0, 74, 0
2, 96025, Note_on_c, 0, 74, 115
2, 96026, Note_on_c, 0, 62, 108
2, 96040, Note_on_c, 0, 26, 0
2, 96042, Note_on_c, 0, 38, 0
2, 96042, Control_c, 0, 64, 0
2, 96122, Control_c, 0, 64, 127
2, 96178, Note_on_c, 0, 38, 96
2, 96178, Note_on_c, 0, 26, 91
2, 96357, Note_on_c, 0, 83, 112
2, 96364, Note_on_c, 0, 71, 112
2, 96381, Note_on_c, 0, 65, 88
2, 96387, Note_on_c, 0, 64, 98
2, 96403, Control_c, 0, 64, 0
2, 96411, Note_on_c, 0, 60, 65
2, 96422, Control_c, 0, 64, 127
2, 96429, Note_on_c, 0, 59, 84
2, 96430, Note_on_c, 0, 57, 91
2, 96444, Note_on_c, 0, 55, 89
2, 96444, Note_on_c, 0, 53, 98
2, 96458, Note_on_c, 0, 45, 106
2, 96459, Note_on_c, 0, 52, 85
2, 96464, Note_on_c, 0, 48, 95
2, 96465, Note_on_c, 0, 47, 97
2, 96471, Note_on_c, 0, 50, 83
2, 96626, Control_c, 0, 64, 0
2, 96638, Note_on_c, 0, 48, 0
2, 96638, Note_on_c, 0, 45, 0
2, 96639, Note_on_c, 0, 47, 0
2, 96640, Note_on_c, 0, 71, 0
2, 96640, Note_on_c, 0, 55, 0
2, 96640, Note_on_c, 0, 57, 0
2, 96641, Note_on_c, 0, 59, 0
2, 96641, Note_on_c, 0, 53, 0
2, 96641, Note_on_c, 0, 83, 0
2, 96641, Note_on_c, 0, 60, 0
2, 96641, Note_on_c, 0, 50, 0
2, 96641, Note_on_c, 0, 64, 0
2, 96641, Note_on_c, 0, 65, 0
2, 96641, Note_on_c, 0, 38, 0
2, 96645, Note_on_c, 0, 26, 0
2, 96652, Note_on_c, 0, 62, 0
2, 96652, Note_on_c, 0, 74, 0
2, 96660, Note_on_c, 0, 52, 0
2, 96706, Note_on_c, 0, 81, 113
2, 96707, Note_on_c, 0, 69, 115
2, 96711, Note_on_c, 0, 74, 105
2, 96712, Note_on_c, 0, 78, 109
2, 96717, Note_on_c, 0, 36, 96
2, 96737, Control_c, 0, 64, 127
2, 96892, Note_on_c, 0, 71, 106
2, 96893, Note_on_c, 0, 83, 110
2, 97034, Note_on_c, 0, 59, 107
2, 97041, Note_on_c, 0, 52, 90
2, 97041, Note_on_c, 0, 86, 113
2, 97044, Note_on_c, 0, 74, 0
2, 97044, Note_on_c, 0, 78, 0
2, 97047, Note_on_c, 0, 55, 87
2, 97049, Note_on_c, 0, 74, 111
2, 97055, Note_on_c, 0, 78, 108
2, 97198, Note_on_c, 0, 36, 0
2, 97207, Note_on_c, 0, 36, 79
2, 97213, Note_on_c, 0, 74, 0
2, 97213, Note_on_c, 0, 78, 0
2, 97213, Note_on_c, 0, 83, 0
2, 97219, Note_on_c, 0, 78, 104
2, 97220, Note_on_c, 0, 83, 105
2, 97224, Note_on_c, 0, 74, 101
2, 97298, Note_on_c, 0, 48, 87
2, 97374, Note_on_c, 0, 74, 0
2, 97374, Note_on_c, 0, 81, 0
2, 97379, Note_on_c, 0, 81, 110
2, 97384, Note_on_c, 0, 74, 98
2, 97459, Note_on_c, 0, 36, 0
2, 97463, Note_on_c, 0, 36, 73
2, 97551, Note_on_c, 0, 48, 0
2, 97551, Note_on_c, 0, 83, 0
2, 97559, Note_on_c, 0, 55, 0
2, 97559, Note_on_c, 0, 74, 0
2, 97559, Note_on_c, 0, 78, 0
2, 97560, Note_on_c, 0, 83, 105
2, 97562, Note_on_c, 0, 48, 90
2, 97563, Note_on_c, 0, 78, 90
2, 97568, Note_on_c, 0, 74, 89
2, 97569, Note_on_c, 0, 55, 78
2, 97632, Control_c, 0, 64, 0
2, 97635, Note_on_c, 0, 74, 0
2, 97635, Note_on_c, 0, 83, 0
2, 97643, Note_on_c, 0, 78, 0
2, 97645, Note_on_c, 0, 83, 106
2, 97646, Note_on_c, 0, 74, 110
2, 97648, Note_on_c, 0, 78, 102
2, 97674, Control_c, 0, 64, 127
2, 97728, Note_on_c, 0, 52, 0
2, 97728, Note_on_c, 0, 55, 0
2, 97728, Note_on_c, 0, 59, 0
2, 97732, Note_on_c, 0, 59, 110
2, 97736, Note_on_c, 0, 55, 98
2, 97737, Note_on_c, 0, 52, 96
2, 97881, Note_on_c, 0, 48, 0
2, 97885, Note_on_c, 0, 48, 86
2, 97895, Note_on_c, 0, 79, 110
2, 98015, Control_c, 0, 64, 0
2, 98016, Note_on_c, 0, 81, 0
2, 98016, Note_on_c, 0, 36, 0
2, 98017, Note_on_c, 0, 48, 0
2, 98019, Note_on_c, 0, 78, 0
2, 98019, Note_on_c, 0, 59, 0
2, 98019, Note_on_c, 0, 83, 0
2, 98019, Note_on_c, 0, 74, 0
2, 98019, Note_on_c, 0, 52, 0
2, 98020, Note_on_c, 0, 79, 0
2, 98020, Note_on_c, 0, 55, 0
2, 98027, Note_on_c, 0, 86, 0
2, 98035, Note_on_c, 0, 69, 0
2, 98042, Note_on_c, 0, 71, 0
2, 98076, Note_on_c, 0, 38, 107
2, 98077, Note_on_c, 0, 81, 112
2, 98078, Note_on_c, 0, 74, 107
2, 98079, Note_on_c, 0, 78, 113
2, 98088, Control_c, 0, 64, 127
2, 98250, Note_on_c, 0, 74, 0
2, 98250, Note_on_c, 0, 78, 0
2, 98254, Note_on_c, 0, 83, 106
2, 98257, Note_on_c, 0, 74, 105
2, 98260, Note_on_c, 0, 78, 94
2, 98403, Note_on_c, 0, 78, 0
2, 98406, Note_on_c, 0, 62, 101
2, 98408, Note_on_c, 0, 86, 109
2, 98411, Note_on_c, 0, 74, 0
2, 98414, Note_on_c, 0, 50, 94
2, 98414, Note_on_c, 0, 54, 105
2, 98414, Note_on_c, 0, 57, 99
2, 98414, Note_on_c, 0, 78, 108
2, 98416, Note_on_c, 0, 74, 104
2, 98549, Note_on_c, 0, 38, 0
2, 98554, Note_on_c, 0, 38, 102
2, 98572, Note_on_c, 0, 83, 0
2, 98580, Note_on_c, 0, 74, 0
2, 98580, Note_on_c, 0, 78, 0
2, 98583, Note_on_c, 0, 83, 104
2, 98588, Note_on_c, 0, 78, 103
2, 98591, Note_on_c, 0, 74, 99
2, 98664, Note_on_c, 0, 50, 0
2, 98675, Note_on_c, 0, 50, 87
2, 98734, Note_on_c, 0, 74, 0
2, 98734, Note_on_c, 0, 78, 0
2, 98734, Note_on_c, 0, 81, 0
2, 98737, Note_on_c, 0, 81, 108
2, 98744, Note_on_c, 0, 74, 94
2, 98744, Note_on_c, 0, 78, 94
2, 98826, Note_on_c, 0, 38, 0
2, 98831, Note_on_c, 0, 38, 89
2, 98910, Note_on_c, 0, 74, 0
2, 98910, Note_on_c, 0, 83, 0
2, 98919, Note_on_c, 0, 83, 101
2, 98920, Note_on_c, 0, 74, 95
2, 98926, Note_on_c, 0, 50, 0
2, 98933, Note_on_c, 0, 54, 0
2, 98936, Note_on_c, 0, 50, 78
2, 98945, Note_on_c, 0, 54, 64
2, 98987, Note_on_c, 0, 74, 0
2, 98987, Note_on_c, 0, 83, 0
2, 98994, Note_on_c, 0, 83, 107
2, 98995, Note_on_c, 0, 74, 105
2, 99010, Note_on_c, 0, 78, 0
2, 99014, Note_on_c, 0, 78, 85
2, 99087, Note_on_c, 0, 62, 0
2, 99095, Note_on_c, 0, 54, 0
2, 99095, Note_on_c, 0, 57, 0
2, 99098, Note_on_c, 0, 62, 97
2, 99099, Note_on_c, 0, 57, 104
2, 99099, Note_on_c, 0, 54, 100
2, 99109, Control_c, 0, 64, 0
2, 99133, Control_c, 0, 64, 127
2, 99233, Note_on_c, 0, 50, 0
2, 99238, Note_on_c, 0, 50, 87
2, 99260, Note_on_c, 0, 62, 0
2, 99261, Note_on_c, 0, 54, 0
2, 99264, Note_on_c, 0, 74, 0
2, 99268, Note_on_c, 0, 74, 109
2, 99378, Note_on_c, 0, 83, 0
2, 99380, Note_on_c, 0, 81, 0
2, 99380, Note_on_c, 0, 74, 0
2, 99380, Note_on_c, 0, 38, 0
2, 99380, Note_on_c, 0, 86, 0
2, 99381, Note_on_c, 0, 78, 0
2, 99381, Control_c, 0, 64, 0
2, 99394, Note_on_c, 0, 57, 0
2, 99402, Note_on_c, 0, 50, 0
2, 99430, Note_on_c, 0, 40, 104
2, 99434, Note_on_c, 0, 28, 101
2, 99434, Note_on_c, 0, 71, 106
2, 99436, Note_on_c, 0, 74, 109
2, 99448, Control_c, 0, 64, 127
2, 99601, Note_on_c, 0, 71, 0
2, 99609, Note_on_c, 0, 74, 0
2, 99610, Note_on_c, 0, 79, 100
2, 99610, Note_on_c, 0, 71, 97
2, 99616, Note_on_c, 0, 74, 92
2, 99678, Note_on_c, 0, 71, 0
2, 99678, Note_on_c, 0, 74, 0
2, 99678, Note_on_c, 0, 79, 0
2, 99687, Note_on_c, 0, 71, 99
2, 99689, Note_on_c, 0, 79, 111
2, 99689, Note_on_c, 0, 74, 104
2, 99766, Note_on_c, 0, 62, 96
2, 99774, Note_on_c, 0, 55, 97
2, 99774, Note_on_c, 0, 59, 96
2, 99909, Note_on_c, 0, 40, 0
2, 99915, Note_on_c, 0, 40, 95
2, 99932, Note_on_c, 0, 74, 0
2, 99939, Note_on_c, 0, 71, 0
2, 99942, Note_on_c, 0, 74, 105
2, 99944, Note_on_c, 0, 71, 102
2, 100024, Note_on_c, 0, 55, 0
2, 100028, Note_on_c, 0, 52, 92
2, 100033, Note_on_c, 0, 55, 73
2, 100093, Note_on_c, 0, 71, 0
2, 100093, Note_on_c, 0, 74, 0
2, 100100, Note_on_c, 0, 74, 104
2, 100102, Note_on_c, 0, 71, 101
2, 100177, Note_on_c, 0, 40, 0
2, 100186, Note_on_c, 0, 40, 88
2, 100270, Note_on_c, 0, 52, 0
2, 100270, Note_on_c, 0, 71, 0
2, 100270, Note_on_c, 0, 79, 0
2, 100277, Note_on_c, 0, 74, 0
2, 100278, Note_on_c, 0, 71, 103
2, 100279, Note_on_c, 0, 79, 109
2, 100281, Note_on_c, 0, 52, 95
2, 100281, Note_on_c, 0, 74, 100
2, 100431, Note_on_c, 0, 55, 0
2, 100431, Note_on_c, 0, 59, 0
2, 100431, Note_on_c, 0, 62, 0
2, 100435, Note_on_c, 0, 62, 100
2, 100436, Note_on_c, 0, 59, 105
2, 100439, Note_on_c, 0, 71, 0
2, 100439, Note_on_c, 0, 74, 0
2, 100440, Note_on_c, 0, 55, 101
2, 100442, Note_on_c, 0, 81, 108
2, 100443, Note_on_c, 0, 71, 98
2, 100443, Note_on_c, 0, 74, 103
2, 100577, Note_on_c, 0, 52, 0
2, 100584, Note_on_c, 0, 52, 90
2, 100592, Note_on_c, 0, 79, 0
2, 100600, Note_on_c, 0, 71, 0
2, 100603, Note_on_c, 0, 79, 103
2, 100608, Note_on_c, 0, 71, 93
2, 100712, Note_on_c, 0, 40, 0
2, 100714, Note_on_c, 0, 79, 0
2, 100715, Note_on_c, 0, 74, 0
2, 100715, Note_on_c, 0, 55, 0
2, 100716, Note_on_c, 0, 71, 0
2, 100716, Note_on_c, 0, 59, 0
2, 100718, Control_c, 0, 64, 0
2, 100730, Note_on_c, 0, 62, 0
2, 100730, Note_on_c, 0, 81, 0
2, 100738, Note_on_c, 0, 28, 0
2, 100738, Note_on_c, 0, 52, 0
2, 100773, Note_on_c, 0, 86, 113
2, 100774, Note_on_c, 0, 35, 106
2, 100776, Note_on_c, 0, 74, 113
2, 100778, Note_on_c, 0, 78, 109
2, 100784, Control_c, 0, 64, 127
2, 100945, Note_on_c, 0, 74, 0
2, 100956, Note_on_c, 0, 74, 100
2, 101015, Note_on_c, 0, 78, 0
2, 101018, Note_on_c, 0, 54, 49
2, 101022, Note_on_c, 0, 78, 104
2, 101030, Note_on_c, 0, 54, 0
2, 101107, Note_on_c, 0, 74, 0
2, 101107, Note_on_c, 0, 78, 0
2, 101111, Note_on_c, 0, 57, 111
2, 101116, Note_on_c, 0, 78, 108
2, 101117, Note_on_c, 0, 74, 109
2, 101117, Note_on_c, 0, 84, 108
2, 101117, Note_on_c, 0, 54, 100
2, 101260, Note_on_c, 0, 35, 0
2, 101270, Note_on_c, 0, 35, 90
2, 101270, Note_on_c, 0, 71, 94
2, 101337, Note_on_c, 0, 74, 0
2, 101338, Note_on_c, 0, 59, 96
2, 101341, Note_on_c, 0, 74, 100
2, 101341, Note_on_c, 0, 76, 84
2, 101343, Note_on_c, 0, 47, 95
2, 101452, Note_on_c, 0, 57, 0
2, 101452, Note_on_c, 0, 74, 0
2, 101452, Note_on_c, 0, 78, 0
2, 101460, Note_on_c, 0, 74, 100
2, 101460, Note_on_c, 0, 54, 0
2, 101460, Note_on_c, 0, 71, 0
2, 101461, Note_on_c, 0, 57, 108
2, 101463, Note_on_c, 0, 83, 108
2, 101464, Note_on_c, 0, 78, 99
2, 101464, Note_on_c, 0, 54, 101
2, 101465, Note_on_c, 0, 71, 102
2, 101637, Note_on_c, 0, 47, 0
2, 101648, Note_on_c, 0, 47, 91
2, 101713, Note_on_c, 0, 74, 0
2, 101713, Note_on_c, 0, 78, 0
2, 101719, Note_on_c, 0, 69, 101
2, 101719, Note_on_c, 0, 81, 111
2, 101721, Note_on_c, 0, 57, 0
2, 101723, Note_on_c, 0, 74, 105
2, 101723, Note_on_c, 0, 78, 105
2, 101726, Note_on_c, 0, 57, 102
2, 101744, Note_on_c, 0, 54, 0
2, 101754, Note_on_c, 0, 54, 77
2, 101875, Note_on_c, 0, 47, 0
2, 101885, Note_on_c, 0, 84, 0
2, 101885, Note_on_c, 0, 86, 0
2, 101885, Control_c, 0, 64, 0
2, 101886, Note_on_c, 0, 74, 0
2, 101886, Note_on_c, 0, 47, 100
2, 101886, Note_on_c, 0, 57, 0
2, 101886, Note_on_c, 0, 81, 0
2, 101886, Note_on_c, 0, 54, 0
2, 101886, Note_on_c, 0, 83, 0
2, 101886, Note_on_c, 0, 71, 0
2, 101887, Note_on_c, 0, 78, 0
2, 101887, Note_on_c, 0, 69, 0
2, 101898, Note_on_c, 0, 76, 0
2, 101905, Note_on_c, 0, 59, 0
2, 101913, Note_on_c, 0, 35, 0
2, 101986, Note_on_c, 0, 79, 109
2, 101987, Note_on_c, 0, 57, 109
2, 101987, Note_on_c, 0, 54, 102
2, 101991, Note_on_c, 0, 67, 104
2, 102043, Note_on_c, 0, 54, 0
2, 102044, Note_on_c, 0, 47, 0
2, 102045, Note_on_c, 0, 57, 0
2, 102166, Note_on_c, 0, 24, 96
2, 102167, Note_on_c, 0, 36, 107
2, 102173, Note_on_c, 0, 76, 107
2, 102174, Control_c, 0, 64, 127
2, 102205, Note_on_c, 0, 67, 0
2, 102248, Note_on_c, 0, 74, 110
2, 102340, Note_on_c, 0, 71, 103
2, 102421, Note_on_c, 0, 67, 100
2, 102504, Note_on_c, 0, 59, 110
2, 102509, Note_on_c, 0, 55, 96
2, 102510, Note_on_c, 0, 52, 91
2, 102673, Note_on_c, 0, 67, 0
2, 102673, Note_on_c, 0, 71, 0
2, 102673, Note_on_c, 0, 79, 0
2, 102683, Note_on_c, 0, 79, 105
2, 102684, Note_on_c, 0, 71, 99
2, 102685, Note_on_c, 0, 67, 99
2, 102781, Note_on_c, 0, 59, 0
2, 102781, Note_on_c, 0, 48, 83
2, 102784, Note_on_c, 0, 60, 75
2, 102786, Note_on_c, 0, 59, 83
2, 102789, Note_on_c, 0, 60, 0
2, 102835, Note_on_c, 0, 67, 0
2, 102835, Note_on_c, 0, 71, 0
2, 102835, Note_on_c, 0, 79, 0
2, 102842, Note_on_c, 0, 71, 100
2, 102842, Note_on_c, 0, 79, 108
2, 102846, Note_on_c, 0, 67, 101
2, 102942, Note_on_c, 0, 36, 0
2, 102948, Note_on_c, 0, 36, 87
2, 103014, Note_on_c, 0, 81, 106
2, 103015, Note_on_c, 0, 69, 109
2, 103050, Note_on_c, 0, 79, 0
2, 103061, Note_on_c, 0, 79, 64
2, 103180, Note_on_c, 0, 71, 0
2, 103188, Note_on_c, 0, 59, 0
2, 103191, Note_on_c, 0, 71, 108
2, 103194, Note_on_c, 0, 59, 109
2, 103196, Note_on_c, 0, 52, 0
2, 103196, Note_on_c, 0, 55, 0
2, 103200, Note_on_c, 0, 55, 97
2, 103203, Note_on_c, 0, 52, 93
2, 103319, Note_on_c, 0, 48, 0
2, 103329, Note_on_c, 0, 48, 91
2, 103331, Note_on_c, 0, 60, 88
2, 103349, Note_on_c, 0, 69, 0
2, 103349, Note_on_c, 0, 81, 0
2, 103359, Note_on_c, 0, 81, 110
2, 103361, Note_on_c, 0, 69, 106
2, 103481, Note_on_c, 0, 48, 0
2, 103482, Note_on_c, 0, 74, 0
2, 103483, Note_on_c, 0, 52, 0
2, 103483, Note_on_c, 0, 76, 0
2, 103483, Note_on_c, 0, 79, 0
2, 103483, Note_on_c, 0, 59, 0
2, 103483, Note_on_c, 0, 67, 0
2, 103484, Note_on_c, 0, 71, 0
2, 103484, Control_c, 0, 64, 0
2, 103484, Note_on_c, 0, 55, 0
2, 103495, Note_on_c, 0, 60, 0
2, 103503, Note_on_c, 0, 24, 0
2, 103503, Note_on_c, 0, 36, 0
2, 103532, Note_on_c, 0, 39, 103
2, 103534, Note_on_c, 0, 78, 104
2, 103536, Note_on_c, 0, 27, 103
2, 103541, Control_c, 0, 64, 127
2, 103620, Note_on_c, 0, 75, 105
2, 103701, Note_on_c, 0, 71, 105
2, 103779, Note_on_c, 0, 69, 0
2, 103786, Note_on_c, 0, 69, 104
2, 103870, Note_on_c, 0, 63, 106
2, 103876, Note_on_c, 0, 59, 90
2, 103881, Note_on_c, 0, 54, 96
2, 103883, Control_c, 0, 64, 0
2, 103902, Control_c, 0, 64, 127
2, 104033, Note_on_c, 0, 39, 0
2, 104038, Note_on_c, 0, 39, 85
2, 104040, Note_on_c, 0, 81, 0
2, 104048, Note_on_c, 0, 69, 0
2, 104049, Note_on_c, 0, 81, 110
2, 104057, Note_on_c, 0, 69, 103
2, 104129, Note_on_c, 0, 51, 87
2, 104209, Note_on_c, 0, 69, 0
2, 104209, Note_on_c, 0, 81, 0
2, 104218, Note_on_c, 0, 81, 112
2, 104219, Note_on_c, 0, 69, 109
2, 104317, Note_on_c, 0, 27, 0
2, 104317, Note_on_c, 0, 39, 0
2, 104322, Note_on_c, 0, 39, 82
2, 104322, Note_on_c, 0, 27, 86
2, 104386, Note_on_c, 0, 71, 0
2, 104393, Note_on_c, 0, 83, 115
2, 104393, Note_on_c, 0, 71, 113
2, 104417, Note_on_c, 0, 51, 0
2, 104421, Note_on_c, 0, 51, 85
2, 104547, Note_on_c, 0, 63, 0
2, 104552, Note_on_c, 0, 63, 105
2, 104563, Note_on_c, 0, 54, 0
2, 104563, Note_on_c, 0, 59, 0
2, 104565, Note_on_c, 0, 86, 111
2, 104567, Note_on_c, 0, 59, 95
2, 104567, Note_on_c, 0, 54, 94
2, 104568, Note_on_c, 0, 74, 113
2, 104693, Note_on_c, 0, 51, 0
2, 104701, Note_on_c, 0, 51, 69
2, 104716, Note_on_c, 0, 69, 0
2, 104716, Note_on_c, 0, 81, 0
2, 104720, Note_on_c, 0, 69, 112
2, 104727, Note_on_c, 0, 81, 107
2, 104848, Note_on_c, 0, 86, 0
2, 104848, Note_on_c, 0, 81, 0
2, 104849, Note_on_c, 0, 74, 0
2, 104849, Control_c, 0, 64, 0
2, 104849, Note_on_c, 0, 71, 0
2, 104850, Note_on_c, 0, 69, 0
2, 104850, Note_on_c, 0, 83, 0
2, 104850, Note_on_c, 0, 75, 0
2, 104850, Note_on_c, 0, 51, 0
2, 104850, Note_on_c, 0, 59, 0
2, 104850, Note_on_c, 0, 78, 0
2, 104850, Note_on_c, 0, 63, 0
2, 104850, Note_on_c, 0, 54, 0
2, 104855, Note_on_c, 0, 27, 0
2, 104862, Note_on_c, 0, 39, 0
2, 104891, Note_on_c, 0, 74, 111
2, 104891, Note_on_c, 0, 52, 109
2, 104891, Note_on_c, 0, 40, 106
2, 104892, Note_on_c, 0, 83, 105
2, 104892, Note_on_c, 0, 71, 108
2, 104895, Note_on_c, 0, 47, 106
2, 104897, Note_on_c, 0, 78, 108
2, 104908, Control_c, 0, 64, 127
2, 104954, Note_on_c, 0, 74, 0
2, 104965, Note_on_c, 0, 74, 69
2, 105070, Note_on_c, 0, 71, 0
2, 105077, Note_on_c, 0, 74, 0
2, 105081, Note_on_c, 0, 71, 94
2, 105084, Note_on_c, 0, 74, 83
2, 105100, Note_on_c, 0, 78, 0
2, 105105, Note_on_c, 0, 78, 78
2, 105176, Note_on_c, 0, 50, 99
2, 105179, Note_on_c, 0, 38, 102
2, 105216, Note_on_c, 0, 78, 0
2, 105223, Note_on_c, 0, 78, 101
2, 105269, Note_on_c, 0, 71, 0
2, 105269, Note_on_c, 0, 74, 0
2, 105279, Note_on_c, 0, 71, 97
2, 105280, Note_on_c, 0, 74, 91
2, 105331, Note_on_c, 0, 78, 0
2, 105337, Note_on_c, 0, 78, 88
2, 105384, Note_on_c, 0, 74, 0
2, 105392, Note_on_c, 0, 71, 0
2, 105393, Note_on_c, 0, 74, 85
2, 105397, Note_on_c, 0, 71, 90
2, 105423, Note_on_c, 0, 78, 0
2, 105431, Note_on_c, 0, 40, 0
2, 105431, Note_on_c, 0, 47, 0
2, 105431, Note_on_c, 0, 52, 0
2, 105434, Note_on_c, 0, 78, 104
2, 105435, Note_on_c, 0, 40, 99
2, 105435, Note_on_c, 0, 52, 100
2, 105436, Note_on_c, 0, 47, 104
2, 105444, Control_c, 0, 64, 0
2, 105454, Control_c, 0, 64, 127
2, 105484, Note_on_c, 0, 71, 0
2, 105490, Note_on_c, 0, 71, 85
2, 105492, Note_on_c, 0, 74, 0
2, 105497, Note_on_c, 0, 74, 76
2, 105538, Note_on_c, 0, 78, 0
2, 105538, Note_on_c, 0, 83, 0
2, 105548, Note_on_c, 0, 83, 91
2, 105549, Note_on_c, 0, 78, 96
2, 105600, Note_on_c, 0, 74, 0
2, 105606, Note_on_c, 0, 74, 93
2, 105638, Note_on_c, 0, 78, 0
2, 105638, Note_on_c, 0, 83, 0
2, 105648, Note_on_c, 0, 83, 94
2, 105648, Note_on_c, 0, 78, 91
2, 105699, Note_on_c, 0, 71, 0
2, 105699, Note_on_c, 0, 74, 0
2, 105704, Note_on_c, 0, 74, 80
2, 105709, Note_on_c, 0, 71, 83
2, 105715, Note_on_c, 0, 83, 0
2, 105722, Note_on_c, 0, 78, 0
2, 105725, Note_on_c, 0, 83, 85
2, 105728, Note_on_c, 0, 78, 87
2, 105745, Note_on_c, 0, 38, 0
2, 105745, Note_on_c, 0, 50, 0
2, 105752, Note_on_c, 0, 50, 89
2, 105753, Note_on_c, 0, 38, 102
2, 105792, Note_on_c, 0, 71, 0
2, 105792, Note_on_c, 0, 74, 0
2, 105792, Note_on_c, 0, 78, 0
2, 105797, Note_on_c, 0, 71, 86
2, 105801, Note_on_c, 0, 74, 95
2, 105803, Note_on_c, 0, 78, 89
2, 105838, Note_on_c, 0, 78, 0
2, 105846, Note_on_c, 0, 78, 84
2, 105899, Note_on_c, 0, 71, 0
2, 105899, Note_on_c, 0, 74, 0
2, 105904, Note_on_c, 0, 71, 87
2, 105907, Note_on_c, 0, 74, 90
2, 105953, Note_on_c, 0, 40, 0
2, 105953, Note_on_c, 0, 47, 0
2, 105960, Note_on_c, 0, 71, 0
2, 105960, Note_on_c, 0, 83, 0
2, 105964, Note_on_c, 0, 47, 104
2, 105964, Note_on_c, 0, 40, 95
2, 105965, Note_on_c, 0, 52, 0
2, 105967, Note_on_c, 0, 68, 92
2, 105968, Note_on_c, 0, 76, 90
2, 105971, Note_on_c, 0, 83, 104
2, 105971, Note_on_c, 0, 71, 92
2, 105975, Control_c, 0, 64, 0
2, 105976, Note_on_c, 0, 68, 0
2, 105976, Note_on_c, 0, 76, 0
2, 105991, Control_c, 0, 64, 127
2, 106022, Note_on_c, 0, 74, 0
2, 106030, Note_on_c, 0, 74, 87
2, 106068, Note_on_c, 0, 71, 0
2, 106076, Note_on_c, 0, 71, 94
2, 106150, Note_on_c, 0, 66, 92
2, 106202, Note_on_c, 0, 62, 81
2, 106251, Note_on_c, 0, 59, 93
2, 106278, Control_c, 0, 64, 0
2, 106281, Note_on_c, 0, 78, 0
2, 106281, Note_on_c, 0, 50, 0
2, 106281, Note_on_c, 0, 71, 0
2, 106281, Note_on_c, 0, 74, 0
2, 106281, Note_on_c, 0, 38, 0
2, 106282, Note_on_c, 0, 66, 0
2, 106291, Note_on_c, 0, 83, 0
2, 106298, Note_on_c, 0, 40, 0
2, 106306, Note_on_c, 0, 62, 0
2, 106314, Note_on_c, 0, 47, 0
2, 106314, Note_on_c, 0, 59, 0
2, 106319, Note_on_c, 0, 47, 111
2, 106324, Note_on_c, 0, 35, 100
2, 106383, Control_c, 0, 64, 127
2, 106591, Note_on_c, 0, 45, 106
2, 106591, Note_on_c, 0, 33, 97
2, 106608, Control_c, 0, 64, 0
2, 106613, Control_c, 0, 64, 127
2, 106704, Note_on_c, 0, 74, 113
2, 106707, Note_on_c, 0, 62, 106
2, 106725, Note_on_c, 0, 33, 0
2, 106728, Note_on_c, 0, 35, 0
2, 106731, Note_on_c, 0, 45, 0
2, 106732, Note_on_c, 0, 47, 0
2, 106732, Control_c, 0, 64, 0
2, 106752, Control_c, 0, 64, 127
2, 106848, Control_c, 0, 64, 0
2, 106865, Note_on_c, 0, 47, 110
2, 106869, Note_on_c, 0, 35, 97
2, 106890, Control_c, 0, 64, 127
2, 107043, Note_on_c, 0, 62, 0
2, 107043, Note_on_c, 0, 74, 0
2, 107046, Control_c, 0, 64, 0
2, 107048, Note_on_c, 0, 62, 103
2, 107049, Note_on_c, 0, 59, 106
2, 107050, Note_on_c, 0, 74, 114
2, 107056, Note_on_c, 0, 71, 92
2, 107063, Note_on_c, 0, 69, 96
2, 107095, Note_on_c, 0, 57, 87
2, 107105, Control_c, 0, 64, 127
2, 107153, Note_on_c, 0, 54, 98
2, 107228, Note_on_c, 0, 47, 0
2, 107234, Note_on_c, 0, 47, 101
2, 107323, Note_on_c, 0, 42, 100
2, 107376, Control_c, 0, 64, 0
2, 107377, Note_on_c, 0, 57, 0
2, 107377, Note_on_c, 0, 62, 0
2, 107377, Note_on_c, 0, 54, 0
2, 107377, Note_on_c, 0, 69, 0
2, 107378, Note_on_c, 0, 59, 0
2, 107397, Note_on_c, 0, 35, 0
2, 107397, Note_on_c, 0, 71, 0
2, 107397, Note_on_c, 0, 74, 0
2, 107401, Note_on_c, 0, 83, 106
2, 107401, Note_on_c, 0, 71, 106
2, 107402, Note_on_c, 0, 74, 108
2, 107403, Note_on_c, 0, 78, 100
2, 107406, Note_on_c, 0, 35, 94
2, 107427, Control_c, 0, 64, 127
2, 107489, Note_on_c, 0, 42, 0
2, 107500, Note_on_c, 0, 42, 93
2, 107566, Note_on_c, 0, 47, 0
2, 107570, Note_on_c, 0, 47, 104
2, 107627, Note_on_c, 0, 47, 0
2, 107634, Note_on_c, 0, 47, 77
2, 107652, Note_on_c, 0, 74, 0
2, 107652, Note_on_c, 0, 71, 0
2, 107653, Note_on_c, 0, 83, 0
2, 107654, Note_on_c, 0, 78, 0
2, 107655, Control_c, 0, 64, 0
2, 107656, Note_on_c, 0, 42, 0
2, 107673, Note_on_c, 0, 35, 0
2, 107681, Note_on_c, 0, 47, 0
2, 107751, Note_on_c, 0, 81, 112
2, 107752, Note_on_c, 0, 74, 112
2, 107753, Note_on_c, 0, 69, 114
2, 107754, Note_on_c, 0, 78, 110
2, 107759, Note_on_c, 0, 36, 104
2, 107788, Control_c, 0, 64, 127
2, 107917, Note_on_c, 0, 71, 106
2, 107920, Note_on_c, 0, 83, 111
2, 107942, Note_on_c, 0, 81, 0
2, 107946, Note_on_c, 0, 81, 54
2, 108071, Note_on_c, 0, 59, 108
2, 108080, Note_on_c, 0, 74, 0
2, 108080, Note_on_c, 0, 78, 0
2, 108082, Note_on_c, 0, 55, 91
2, 108082, Note_on_c, 0, 86, 110
2, 108084, Note_on_c, 0, 52, 84
2, 108085, Note_on_c, 0, 74, 112
2, 108091, Note_on_c, 0, 78, 109
2, 108218, Note_on_c, 0, 36, 0
2, 108229, Note_on_c, 0, 36, 87
2, 108264, Note_on_c, 0, 74, 0
2, 108264, Note_on_c, 0, 78, 0
2, 108264, Note_on_c, 0, 83, 0
2, 108269, Note_on_c, 0, 83, 106
2, 108271, Note_on_c, 0, 74, 105
2, 108274, Note_on_c, 0, 78, 98
2, 108330, Note_on_c, 0, 48, 88
2, 108426, Note_on_c, 0, 81, 0
2, 108433, Note_on_c, 0, 74, 0
2, 108435, Note_on_c, 0, 81, 109
2, 108440, Note_on_c, 0, 74, 104
2, 108526, Note_on_c, 0, 36, 0
2, 108532, Note_on_c, 0, 36, 82
2, 108587, Note_on_c, 0, 83, 0
2, 108595, Note_on_c, 0, 74, 0
2, 108595, Note_on_c, 0, 78, 0
2, 108597, Note_on_c, 0, 83, 104
2, 108599, Note_on_c, 0, 74, 104
2, 108600, Note_on_c, 0, 78, 90
2, 108672, Note_on_c, 0, 83, 0
2, 108679, Note_on_c, 0, 74, 0
2, 108679, Note_on_c, 0, 78, 0
2, 108682, Note_on_c, 0, 83, 107
2, 108684, Note_on_c, 0, 74, 105
2, 108685, Note_on_c, 0, 78, 103
2, 108764, Note_on_c, 0, 55, 0
2, 108764, Note_on_c, 0, 59, 0
2, 108769, Note_on_c, 0, 59, 108
2, 108771, Note_on_c, 0, 52, 0
2, 108774, Note_on_c, 0, 55, 102
2, 108777, Note_on_c, 0, 52, 100
2, 108910, Note_on_c, 0, 48, 0
2, 108914, Note_on_c, 0, 48, 88
2, 108935, Note_on_c, 0, 79, 110
2, 108937, Note_on_c, 0, 91, 103
2, 108948, Note_on_c, 0, 91, 0
2, 109038, Note_on_c, 0, 36, 0
2, 109042, Note_on_c, 0, 81, 0
2, 109042, Note_on_c, 0, 59, 0
2, 109042, Note_on_c, 0, 74, 0
2, 109043, Note_on_c, 0, 52, 0
2, 109043, Note_on_c, 0, 83, 0
2, 109043, Note_on_c, 0, 78, 0
2, 109043, Note_on_c, 0, 55, 0
2, 109043, Control_c, 0, 64, 0
2, 109043, Note_on_c, 0, 79, 0
2, 109043, Note_on_c, 0, 86, 0
2, 109048, Note_on_c, 0, 69, 0
2, 109056, Note_on_c, 0, 48, 0
2, 109063, Note_on_c, 0, 71, 0
2, 109103, Note_on_c, 0, 38, 103
2, 109104, Note_on_c, 0, 26, 100
2, 109106, Note_on_c, 0, 81, 111
2, 109111, Note_on_c, 0, 74, 108
2, 109112, Note_on_c, 0, 78, 109
2, 109125, Control_c, 0, 64, 127
2, 109278, Note_on_c, 0, 74, 0
2, 109278, Note_on_c, 0, 78, 0
2, 109278, Note_on_c, 0, 81, 0
2, 109282, Note_on_c, 0, 83, 109
2, 109284, Note_on_c, 0, 74, 99
2, 109289, Note_on_c, 0, 81, 90
2, 109290, Note_on_c, 0, 78, 88
2, 109431, Note_on_c, 0, 62, 101
2, 109438, Control_c, 0, 64, 0
2, 109447, Note_on_c, 0, 57, 100
2, 109447, Note_on_c, 0, 74, 0
2, 109447, Note_on_c, 0, 78, 0
2, 109450, Note_on_c, 0, 54, 97
2, 109452, Note_on_c, 0, 86, 109
2, 109454, Note_on_c, 0, 50, 85
2, 109455, Note_on_c, 0, 78, 110
2, 109458, Note_on_c, 0, 74, 109
2, 109478, Control_c, 0, 64, 127
2, 109601, Note_on_c, 0, 38, 0
2, 109605, Note_on_c, 0, 38, 100
2, 109608, Note_on_c, 0, 83, 0
2, 109616, Note_on_c, 0, 74, 0
2, 109616, Note_on_c, 0, 78, 0
2, 109618, Note_on_c, 0, 83, 105
2, 109621, Note_on_c, 0, 74, 98
2, 109627, Note_on_c, 0, 78, 101
2, 109685, Note_on_c, 0, 50, 0
2, 109695, Note_on_c, 0, 50, 84
2, 109770, Note_on_c, 0, 81, 0
2, 109777, Note_on_c, 0, 74, 0
2, 109779, Note_on_c, 0, 81, 108
2, 109782, Note_on_c, 0, 74, 102
2, 109877, Note_on_c, 0, 26, 0
2, 109877, Note_on_c, 0, 38, 0
2, 109885, Note_on_c, 0, 26, 81
2, 109886, Note_on_c, 0, 38, 88
2, 109939, Note_on_c, 0, 74, 0
2, 109939, Note_on_c, 0, 83, 0
2, 109943, Note_on_c, 0, 83, 104
2, 109945, Note_on_c, 0, 74, 105
2, 110027, Note_on_c, 0, 79, 107
2, 110115, Note_on_c, 0, 50, 0
2, 110115, Note_on_c, 0, 54, 0
2, 110115, Note_on_c, 0, 57, 0
2, 110115, Note_on_c, 0, 62, 0
2, 110119, Note_on_c, 0, 50, 86
2, 110119, Note_on_c, 0, 62, 95
2, 110121, Note_on_c, 0, 57, 100
2, 110123, Note_on_c, 0, 54, 99
2, 110254, Note_on_c, 0, 50, 0
2, 110259, Note_on_c, 0, 50, 88
2, 110277, Note_on_c, 0, 79, 0
2, 110288, Note_on_c, 0, 79, 104
2, 110406, Note_on_c, 0, 83, 0
2, 110406, Note_on_c, 0, 86, 0
2, 110407, Note_on_c, 0, 79, 0
2, 110408, Note_on_c, 0, 57, 0
2, 110408, Note_on_c, 0, 81, 0
2, 110408, Note_on_c, 0, 62, 0
2, 110408, Control_c, 0, 64, 0
2, 110409, Note_on_c, 0, 74, 0
2, 110409, Note_on_c, 0, 54, 0
2, 110409, Note_on_c, 0, 50, 0
2, 110423, Note_on_c, 0, 26, 0
2, 110423, Note_on_c, 0, 38, 0
2, 110430, Note_on_c, 0, 78, 0
2, 110464, Note_on_c, 0, 79, 110
2, 110464, Note_on_c, 0, 39, 101
2, 110465, Note_on_c, 0, 67, 105
2, 110465, Note_on_c, 0, 71, 99
2, 110465, Note_on_c, 0, 27, 97
2, 110471, Note_on_c, 0, 75, 98
2, 110507, Control_c, 0, 64, 127
2, 110731, Note_on_c, 0, 81, 111
2, 110731, Note_on_c, 0, 69, 108
2, 110811, Note_on_c, 0, 63, 100
2, 110814, Note_on_c, 0, 59, 93
2, 110818, Note_on_c, 0, 54, 87
2, 110968, Note_on_c, 0, 71, 0
2, 110975, Note_on_c, 0, 71, 109
2, 110976, Note_on_c, 0, 39, 0
2, 110980, Note_on_c, 0, 83, 108
2, 110980, Note_on_c, 0, 39, 95
2, 111121, Note_on_c, 0, 67, 0
2, 111133, Note_on_c, 0, 67, 96
2, 111152, Note_on_c, 0, 39, 0
2, 111152, Note_on_c, 0, 59, 0
2, 111158, Note_on_c, 0, 59, 87
2, 111163, Note_on_c, 0, 39, 89
2, 111183, Note_on_c, 0, 71, 0
2, 111193, Note_on_c, 0, 71, 91
2, 111221, Note_on_c, 0, 75, 0
2, 111230, Note_on_c, 0, 51, 92
2, 111232, Note_on_c, 0, 75, 109
2, 111298, Note_on_c, 0, 79, 0
2, 111309, Note_on_c, 0, 79, 104
2, 111352, Note_on_c, 0, 83, 0
2, 111362, Note_on_c, 0, 83, 98
2, 111413, Note_on_c, 0, 83, 0
2, 111424, Note_on_c, 0, 87, 101
2, 111425, Note_on_c, 0, 83, 77
2, 111482, Note_on_c, 0, 63, 0
2, 111490, Note_on_c, 0, 63, 105
2, 111490, Note_on_c, 0, 54, 0
2, 111490, Note_on_c, 0, 59, 0
2, 111490, Note_on_c, 0, 79, 0
2, 111493, Note_on_c, 0, 91, 115
2, 111494, Note_on_c, 0, 79, 111
2, 111494, Note_on_c, 0, 59, 90
2, 111498, Note_on_c, 0, 54, 91
2, 111628, Note_on_c, 0, 51, 0
2, 111633, Note_on_c, 0, 51, 76
2, 111665, Note_on_c, 0, 90, 115
2, 111666, Note_on_c, 0, 78, 117
2, 111812, Control_c, 0, 64, 0
2, 111814, Note_on_c, 0, 51, 0
2, 111815, Note_on_c, 0, 71, 0
2, 111815, Note_on_c, 0, 39, 0
2, 111815, Note_on_c, 0, 75, 0
2, 111815, Note_on_c, 0, 63, 0
2, 111815, Note_on_c, 0, 79, 0
2, 111815, Note_on_c, 0, 59, 0
2, 111815, Note_on_c, 0, 69, 0
2, 111815, Note_on_c, 0, 83, 0
2, 111816, Note_on_c, 0, 81, 0
2, 111816, Note_on_c, 0, 90, 0
2, 111816, Note_on_c, 0, 78, 0
2, 111816, Note_on_c, 0, 54, 0
2, 111816, Note_on_c, 0, 87, 0
2, 111816, Note_on_c, 0, 91, 0
2, 111820, Note_on_c, 0, 27, 0
2, 111831, Note_on_c, 0, 86, 107
2, 111836, Note_on_c, 0, 67, 0
2, 111839, Note_on_c, 0, 40, 107
2, 111839, Note_on_c, 0, 28, 100
2, 111859, Control_c, 0, 64, 127
2, 111878, Note_on_c, 0, 81, 92
2, 111923, Note_on_c, 0, 78, 80
2, 111991, Note_on_c, 0, 74, 111
2, 112048, Note_on_c, 0, 69, 90
2, 112167, Note_on_c, 0, 66, 106
2, 112174, Note_on_c, 0, 74, 0
2, 112174, Note_on_c, 0, 86, 0
2, 112178, Note_on_c, 0, 74, 107
2, 112179, Note_on_c, 0, 86, 110
2, 112185, Note_on_c, 0, 62, 74
2, 112269, Note_on_c, 0, 57, 92
2, 112413, Note_on_c, 0, 52, 88
2, 112519, Note_on_c, 0, 62, 0
2, 112519, Note_on_c, 0, 74, 0
2, 112519, Note_on_c, 0, 78, 0
2, 112523, Note_on_c, 0, 83, 109
2, 112525, Note_on_c, 0, 59, 104
2, 112525, Note_on_c, 0, 74, 110
2, 112525, Note_on_c, 0, 71, 106
2, 112525, Note_on_c, 0, 78, 100
2, 112526, Note_on_c, 0, 62, 95
2, 112527, Note_on_c, 0, 54, 97
2, 112696, Note_on_c, 0, 40, 0
2, 112702, Note_on_c, 0, 40, 83
2, 112780, Note_on_c, 0, 69, 0
2, 112780, Note_on_c, 0, 74, 0
2, 112780, Note_on_c, 0, 78, 0
2, 112780, Note_on_c, 0, 81, 0
2, 112787, Note_on_c, 0, 69, 104
2, 112788, Note_on_c, 0, 81, 107
2, 112791, Note_on_c, 0, 74, 98
2, 112791, Note_on_c, 0, 78, 101
2, 112811, Note_on_c, 0, 52, 0
2, 112820, Note_on_c, 0, 52, 64
2, 112934, Note_on_c, 0, 40, 0
2, 112942, Note_on_c, 0, 28, 0
2, 112945, Note_on_c, 0, 40, 81
2, 112946, Note_on_c, 0, 28, 89
2, 112985, Note_on_c, 0, 40, 0
2, 112986, Note_on_c, 0, 83, 0
2, 112987, Note_on_c, 0, 57, 0
2, 112988, Note_on_c, 0, 71, 0
2, 112988, Note_on_c, 0, 86, 0
2, 112988, Note_on_c, 0, 62, 0
2, 112988, Note_on_c, 0, 66, 0
2, 112989, Note_on_c, 0, 52, 0
2, 112989, Note_on_c, 0, 81, 0
2, 112989, Note_on_c, 0, 59, 0
2, 112989, Note_on_c, 0, 54, 0
2, 112989, Note_on_c, 0, 69, 0
2, 112991, Note_on_c, 0, 78, 0
2, 112996, Control_c, 0, 64, 0
2, 113003, Note_on_c, 0, 74, 0
2, 113056, Note_on_c, 0, 40, 94
2, 113057, Note_on_c, 0, 28, 0
2, 113061, Note_on_c, 0, 79, 111
2, 113061, Note_on_c, 0, 28, 89
2, 113067, Note_on_c, 0, 67, 102
2, 113118, Note_on_c, 0, 40, 0
2, 113195, Note_on_c, 0, 28, 0
2, 113244, Note_on_c, 0, 24, 93
2, 113245, Note_on_c, 0, 36, 102
2, 113254, Note_on_c, 0, 76, 103
2, 113264, Note_on_c, 0, 67, 0
2, 113272, Control_c, 0, 64, 127
2, 113318, Note_on_c, 0, 36, 0
2, 113329, Note_on_c, 0, 36, 49
2, 113331, Note_on_c, 0, 74, 100
2, 113419, Note_on_c, 0, 71, 98
2, 113498, Note_on_c, 0, 67, 99
2, 113587, Note_on_c, 0, 59, 109
2, 113588, Note_on_c, 0, 52, 82
2, 113589, Note_on_c, 0, 55, 82
2, 113748, Note_on_c, 0, 36, 0
2, 113748, Note_on_c, 0, 79, 0
2, 113753, Note_on_c, 0, 36, 90
2, 113756, Note_on_c, 0, 67, 0
2, 113759, Note_on_c, 0, 79, 103
2, 113764, Note_on_c, 0, 67, 98
2, 113847, Note_on_c, 0, 48, 86
2, 113917, Note_on_c, 0, 67, 0
2, 113917, Note_on_c, 0, 79, 0
2, 113921, Note_on_c, 0, 79, 105
2, 113924, Note_on_c, 0, 67, 102
2, 114009, Note_on_c, 0, 36, 0
2, 114016, Note_on_c, 0, 36, 84
2, 114086, Note_on_c, 0, 36, 0
2, 114092, Note_on_c, 0, 81, 107
2, 114092, Note_on_c, 0, 69, 107
2, 114094, Note_on_c, 0, 36, 75
2, 114101, Note_on_c, 0, 48, 0
2, 114105, Note_on_c, 0, 48, 82
2, 114247, Note_on_c, 0, 59, 0
2, 114247, Note_on_c, 0, 71, 0
2, 114255, Note_on_c, 0, 52, 0
2, 114255, Note_on_c, 0, 55, 0
2, 114256, Note_on_c, 0, 59, 110
2, 114258, Note_on_c, 0, 83, 104
2, 114258, Note_on_c, 0, 71, 108
2, 114259, Note_on_c, 0, 55, 94
2, 114260, Note_on_c, 0, 52, 90
2, 114401, Note_on_c, 0, 48, 0
2, 114405, Note_on_c, 0, 48, 82
2, 114432, Note_on_c, 0, 69, 0
2, 114432, Note_on_c, 0, 81, 0
2, 114438, Control_c, 0, 64, 0
2, 114438, Note_on_c, 0, 36, 0
2, 114439, Note_on_c, 0, 24, 0
2, 114439, Note_on_c, 0, 74, 0
2, 114440, Note_on_c, 0, 81, 106
2, 114441, Note_on_c, 0, 69, 104
2, 114441, Note_on_c, 0, 76, 0
2, 114441, Note_on_c, 0, 55, 0
2, 114441, Note_on_c, 0, 59, 0
2, 114442, Note_on_c, 0, 71, 0
2, 114442, Note_on_c, 0, 52, 0
2, 114443, Note_on_c, 0, 67, 0
2, 114443, Note_on_c, 0, 79, 0
2, 114447, Note_on_c, 0, 74, 96
2, 114454, Note_on_c, 0, 78, 85
2, 114455, Note_on_c, 0, 83, 0
2, 114470, Note_on_c, 0, 48, 0
2, 114508, Control_c, 0, 64, 127
2, 114531, Control_c, 0, 64, 0
2, 114616, Control_c, 0, 64, 127
2, 114621, Note_on_c, 0, 38, 102
2, 114622, Note_on_c, 0, 45, 96
2, 114622, Note_on_c, 0, 50, 103
2, 114700, Note_on_c, 0, 38, 0
2, 114700, Note_on_c, 0, 50, 0
2, 114705, Note_on_c, 0, 50, 101
2, 114706, Note_on_c, 0, 38, 88
2, 114766, Control_c, 0, 64, 0
2, 114774, Note_on_c, 0, 50, 0
2, 114774, Note_on_c, 0, 74, 0
2, 114774, Note_on_c, 0, 38, 0
2, 114774, Note_on_c, 0, 81, 0
2, 114775, Note_on_c, 0, 45, 0
2, 114776, Note_on_c, 0, 69, 0
2, 114777, Note_on_c, 0, 78, 0
2, 115128, Note_on_c, 0, 81, 109
2, 115130, Note_on_c, 0, 69, 109
2, 115200, Note_on_c, 0, 69, 0
2, 115238, Note_on_c, 0, 81, 0
2, 115313, Note_on_c, 0, 81, 109
2, 115316, Note_on_c, 0, 69, 107
2, 115353, Control_c, 0, 64, 127
2, 115475, Note_on_c, 0, 38, 87
2, 115656, Note_on_c, 0, 62, 97
2, 115656, Note_on_c, 0, 74, 89
2, 115657, Note_on_c, 0, 54, 97
2, 115662, Note_on_c, 0, 83, 108
2, 115663, Note_on_c, 0, 57, 96
2, 115663, Note_on_c, 0, 71, 105
2, 115665, Note_on_c, 0, 50, 81
2, 116006, Note_on_c, 0, 74, 0
2, 116017, Note_on_c, 0, 74, 106
2, 116018, Note_on_c, 0, 36, 93
2, 116056, Note_on_c, 0, 81, 0
2, 116056, Control_c, 0, 64, 0
2, 116056, Note_on_c, 0, 50, 0
2, 116056, Note_on_c, 0, 38, 0
2, 116056, Note_on_c, 0, 57, 0
2, 116056, Note_on_c, 0, 69, 0
2, 116056, Note_on_c, 0, 62, 0
2, 116056, Note_on_c, 0, 71, 0
2, 116056, Note_on_c, 0, 54, 0
2, 116056, Note_on_c, 0, 83, 0
2, 116152, Control_c, 0, 64, 127
2, 116297, Note_on_c, 0, 76, 98
2, 116309, Note_on_c, 0, 43, 74
2, 116585, Note_on_c, 0, 55, 70
2, 116588, Note_on_c, 0, 59, 69
2, 116927, Note_on_c, 0, 48, 63
2, 117089, Note_on_c, 0, 59, 0
2, 117096, Note_on_c, 0, 55, 0
2, 117100, Note_on_c, 0, 59, 73
2, 117101, Note_on_c, 0, 55, 67
2, 117281, Note_on_c, 0, 74, 0
2, 117291, Note_on_c, 0, 74, 80
2, 117358, Note_on_c, 0, 76, 0
2, 117367, Note_on_c, 0, 76, 85
2, 117434, Note_on_c, 0, 74, 0
2, 117445, Note_on_c, 0, 74, 90
2, 117451, Control_c, 0, 64, 0
2, 117456, Note_on_c, 0, 59, 0
2, 117457, Note_on_c, 0, 48, 0
2, 117458, Note_on_c, 0, 76, 0
2, 117459, Note_on_c, 0, 43, 0
2, 117460, Note_on_c, 0, 55, 0
2, 117460, Note_on_c, 0, 36, 0
2, 117465, Note_on_c, 0, 38, 76
2, 117596, Control_c, 0, 64, 127
2, 117728, Note_on_c, 0, 45, 65
2, 118015, Note_on_c, 0, 57, 61
2, 118016, Note_on_c, 0, 54, 61
2, 118353, Note_on_c, 0, 50, 55
2, 118489, Note_on_c, 0, 62, 58
2, 118517, Note_on_c, 0, 54, 0
2, 118525, Note_on_c, 0, 57, 0
2, 118525, Note_on_c, 0, 74, 0
2, 118527, Note_on_c, 0, 54, 74
2, 118531, Note_on_c, 0, 57, 77
2, 118534, Note_on_c, 0, 74, 95
2, 118619, Note_on_c, 0, 71, 89
2, 118694, Note_on_c, 0, 69, 76
2, 118769, Note_on_c, 0, 67, 86
2, 118863, Note_on_c, 0, 69, 0
2, 118873, Note_on_c, 0, 69, 95
2, 118880, Note_on_c, 0, 40, 84
2, 118890, Control_c, 0, 64, 0
2, 118898, Note_on_c, 0, 45, 0
2, 118898, Note_on_c, 0, 38, 0
2, 118900, Note_on_c, 0, 74, 0
2, 118900, Note_on_c, 0, 62, 0
2, 118900, Note_on_c, 0, 50, 0
2, 118901, Note_on_c, 0, 57, 0
2, 118902, Note_on_c, 0, 71, 0
2, 118905, Note_on_c, 0, 67, 0
2, 118924, Note_on_c, 0, 54, 0
2, 119001, Control_c, 0, 64, 127
2, 119145, Note_on_c, 0, 47, 74
2, 119149, Note_on_c, 0, 64, 87
2, 119423, Note_on_c, 0, 59, 70
2, 119426, Note_on_c, 0, 55, 67
2, 119786, Note_on_c, 0, 52, 67
2, 119938, Note_on_c, 0, 59, 0
2, 119944, Note_on_c, 0, 59, 77
2, 119953, Note_on_c, 0, 55, 0
2, 119958, Note_on_c, 0, 55, 64
2, 120127, Note_on_c, 0, 63, 69
2, 120297, Note_on_c, 0, 35, 71
2, 120300, Note_on_c, 0, 62, 81
2, 120322, Control_c, 0, 64, 0
2, 120324, Note_on_c, 0, 40, 0
2, 120325, Note_on_c, 0, 52, 0
2, 120325, Note_on_c, 0, 59, 0
2, 120325, Note_on_c, 0, 47, 0
2, 120326, Note_on_c, 0, 64, 0
2, 120326, Note_on_c, 0, 55, 0
2, 120326, Note_on_c, 0, 63, 0
2, 120345, Note_on_c, 0, 69, 0
2, 120437, Control_c, 0, 64, 127
2, 120506, Note_on_c, 0, 35, 0
2, 120588, Note_on_c, 0, 47, 74
2, 120857, Note_on_c, 0, 54, 65
2, 120860, Note_on_c, 0, 57, 66
2, 121190, Note_on_c, 0, 47, 0
2, 121200, Note_on_c, 0, 47, 77
2, 121202, Note_on_c, 0, 93, 102
2, 121202, Note_on_c, 0, 81, 97
2, 121367, Note_on_c, 0, 57, 0
2, 121373, Note_on_c, 0, 95, 103
2, 121374, Note_on_c, 0, 54, 0
2, 121377, Note_on_c, 0, 57, 81
2, 121377, Note_on_c, 0, 83, 98
2, 121378, Note_on_c, 0, 54, 80
2, 121546, Note_on_c, 0, 98, 105
2, 121552, Note_on_c, 0, 86, 86
2, 121712, Note_on_c, 0, 86, 0
2, 121712, Note_on_c, 0, 98, 0
2, 121721, Note_on_c, 0, 36, 80
2, 121722, Note_on_c, 0, 98, 110
2, 121723, Note_on_c, 0, 86, 100
2, 121728, Note_on_c, 0, 36, 0
2, 121738, Note_on_c, 0, 54, 0
2, 121738, Note_on_c, 0, 62, 0
2, 121738, Note_on_c, 0, 93, 0
2, 121739, Note_on_c, 0, 81, 0
2, 121739, Note_on_c, 0, 47, 0
2, 121739, Note_on_c, 0, 57, 0
2, 121740, Note_on_c, 0, 83, 0
2, 121740, Note_on_c, 0, 95, 0
2, 121746, Control_c, 0, 64, 0
2, 121804, Control_c, 0, 64, 127
2, 121974, Note_on_c, 0, 100, 110
2, 121977, Note_on_c, 0, 43, 71
2, 121982, Note_on_c, 0, 88, 106
2, 122268, Note_on_c, 0, 83, 98
2, 122283, Note_on_c, 0, 79, 67
2, 122285, Note_on_c, 0, 55, 71
2, 122291, Note_on_c, 0, 64, 67
2, 122296, Note_on_c, 0, 59, 65
2, 122614, Note_on_c, 0, 48, 74
2, 122780, Note_on_c, 0, 64, 0
2, 122787, Note_on_c, 0, 55, 0
2, 122787, Note_on_c, 0, 59, 0
2, 122791, Note_on_c, 0, 64, 93
2, 122792, Note_on_c, 0, 59, 82
2, 122798, Note_on_c, 0, 55, 73
2, 122956, Note_on_c, 0, 98, 0
2, 122961, Note_on_c, 0, 98, 106
2, 123025, Note_on_c, 0, 100, 0
2, 123032, Note_on_c, 0, 100, 109
2, 123133, Note_on_c, 0, 79, 0
2, 123133, Note_on_c, 0, 98, 0
2, 123134, Note_on_c, 0, 100, 0
2, 123134, Note_on_c, 0, 48, 0
2, 123136, Control_c, 0, 64, 0
2, 123136, Note_on_c, 0, 88, 0
2, 123137, Note_on_c, 0, 83, 0
2, 123137, Note_on_c, 0, 59, 0
2, 123137, Note_on_c, 0, 64, 0
2, 123137, Note_on_c, 0, 55, 0
2, 123141, Note_on_c, 0, 86, 0
2, 123142, Note_on_c, 0, 38, 90
2, 123144, Note_on_c, 0, 98, 112
2, 123146, Note_on_c, 0, 86, 100
2, 123148, Note_on_c, 0, 43, 0
2, 123233, Control_c, 0, 64, 127
2, 123395, Note_on_c, 0, 45, 73
2, 123656, Note_on_c, 0, 62, 79
2, 123664, Note_on_c, 0, 54, 75
2, 123667, Note_on_c, 0, 78, 91
2, 123667, Note_on_c, 0, 81, 92
2, 123667, Note_on_c, 0, 57, 69
2, 123939, Note_on_c, 0, 86, 0
2, 123948, Note_on_c, 0, 86, 91
2, 123973, Note_on_c, 0, 50, 79
2, 123985, Note_on_c, 0, 98, 0
2, 123990, Note_on_c, 0, 98, 112
2, 124147, Note_on_c, 0, 62, 0
2, 124154, Note_on_c, 0, 54, 0
2, 124154, Note_on_c, 0, 57, 0
2, 124157, Note_on_c, 0, 62, 83
2, 124159, Note_on_c, 0, 54, 81
2, 124165, Note_on_c, 0, 57, 68
2, 124227, Note_on_c, 0, 95, 105
2, 124313, Note_on_c, 0, 93, 97
2, 124365, Note_on_c, 0, 91, 93
2, 124469, Note_on_c, 0, 93, 0
2, 124473, Note_on_c, 0, 83, 91
2, 124474, Note_on_c, 0, 93, 108
2, 124476, Note_on_c, 0, 40, 81
2, 124487, Note_on_c, 0, 98, 0
2, 124488, Note_on_c, 0, 95, 0
2, 124488, Note_on_c, 0, 38, 0
2, 124489, Note_on_c, 0, 45, 0
2, 124489, Note_on_c, 0, 86, 0
2, 124489, Note_on_c, 0, 62, 0
2, 124489, Note_on_c, 0, 50, 0
2, 124489, Note_on_c, 0, 57, 0
2, 124489, Note_on_c, 0, 54, 0
2, 124489, Note_on_c, 0, 81, 0
2, 124490, Note_on_c, 0, 78, 0
2, 124497, Control_c, 0, 64, 0
2, 124600, Control_c, 0, 64, 127
2, 124733, Note_on_c, 0, 47, 77
2, 124735, Note_on_c, 0, 88, 104
2, 125022, Note_on_c, 0, 83, 0
2, 125028, Note_on_c, 0, 83, 93
2, 125029, Note_on_c, 0, 64, 73
2, 125036, Note_on_c, 0, 59, 67
2, 125041, Note_on_c, 0, 52, 57
2, 125042, Note_on_c, 0, 55, 63
2, 125360, Note_on_c, 0, 52, 0
2, 125365, Note_on_c, 0, 52, 58
2, 125544, Note_on_c, 0, 64, 0
2, 125552, Note_on_c, 0, 55, 0
2, 125552, Note_on_c, 0, 59, 0
2, 125553, Note_on_c, 0, 64, 73
2, 125560, Note_on_c, 0, 55, 63
2, 125561, Note_on_c, 0, 59, 56
2, 125706, Note_on_c, 0, 83, 0
2, 125715, Note_on_c, 0, 83, 77
2, 125795, Note_on_c, 0, 82, 85
2, 125890, Note_on_c, 0, 47, 0
2, 125897, Note_on_c, 0, 47, 72
2, 125901, Note_on_c, 0, 81, 89
2, 125906, Note_on_c, 0, 74, 73
2, 125907, Note_on_c, 0, 78, 75
2, 125928, Note_on_c, 0, 91, 0
2, 125933, Control_c, 0, 64, 0
2, 125934, Note_on_c, 0, 59, 0
2, 125937, Note_on_c, 0, 52, 0
2, 125938, Note_on_c, 0, 55, 0
2, 125939, Note_on_c, 0, 64, 0
2, 125940, Note_on_c, 0, 40, 0
2, 125940, Note_on_c, 0, 88, 0
2, 125940, Note_on_c, 0, 83, 0
2, 125940, Note_on_c, 0, 82, 0
2, 125944, Note_on_c, 0, 93, 0
2, 126013, Control_c, 0, 64, 127
2, 126186, Note_on_c, 0, 54, 69
2, 126468, Note_on_c, 0, 62, 62
2, 126469, Note_on_c, 0, 57, 60
2, 126650, Note_on_c, 0, 81, 0
2, 126652, Note_on_c, 0, 86, 83
2, 126657, Note_on_c, 0, 81, 71
2, 126988, Note_on_c, 0, 54, 0
2, 127000, Note_on_c, 0, 54, 49
2, 127254, Note_on_c, 0, 76, 59
2, 127294, Note_on_c, 0, 79, 66
2, 127346, Note_on_c, 0, 88, 92
2, 127352, Note_on_c, 0, 64, 70
2, 127352, Note_on_c, 0, 47, 0
2, 127352, Note_on_c, 0, 55, 66
2, 127353, Note_on_c, 0, 48, 64
2, 127353, Note_on_c, 0, 57, 0
2, 127353, Note_on_c, 0, 74, 0
2, 127353, Note_on_c, 0, 81, 0
2, 127354, Note_on_c, 0, 86, 0
2, 127354, Note_on_c, 0, 62, 0
2, 127356, Note_on_c, 0, 78, 0
2, 127358, Note_on_c, 0, 60, 57
2, 127359, Control_c, 0, 64, 0
2, 127365, Note_on_c, 0, 60, 0
2, 127372, Note_on_c, 0, 54, 0
2, 127426, Note_on_c, 0, 79, 0
2, 127441, Control_c, 0, 64, 127
2, 127448, Note_on_c, 0, 83, 58
2, 127528, Note_on_c, 0, 79, 64
2, 127618, Note_on_c, 0, 83, 0
2, 127623, Note_on_c, 0, 83, 66
2, 127680, Note_on_c, 0, 48, 0
2, 127703, Note_on_c, 0, 76, 0
2, 127711, Note_on_c, 0, 76, 60
2, 127795, Note_on_c, 0, 79, 0
2, 127805, Note_on_c, 0, 79, 70
2, 127880, Note_on_c, 0, 67, 73
2, 127895, Note_on_c, 0, 76, 0
2, 127899, Note_on_c, 0, 76, 69
2, 127987, Note_on_c, 0, 79, 0
2, 127991, Note_on_c, 0, 79, 67
2, 128040, Note_on_c, 0, 67, 0
2, 128048, Note_on_c, 0, 88, 0
2, 128051, Note_on_c, 0, 67, 95
2, 128053, Note_on_c, 0, 88, 96
2, 128133, Note_on_c, 0, 83, 0
2, 128139, Note_on_c, 0, 83, 77
2, 128225, Note_on_c, 0, 79, 0
2, 128234, Note_on_c, 0, 79, 82
2, 128309, Note_on_c, 0, 83, 0
2, 128318, Note_on_c, 0, 83, 77
2, 128409, Note_on_c, 0, 76, 0
2, 128419, Note_on_c, 0, 76, 63
2, 128509, Note_on_c, 0, 79, 0
2, 128515, Note_on_c, 0, 79, 72
2, 128570, Note_on_c, 0, 67, 0
2, 128577, Note_on_c, 0, 67, 90
2, 128593, Note_on_c, 0, 76, 0
2, 128598, Note_on_c, 0, 76, 75
2, 128773, Note_on_c, 0, 86, 95
2, 128774, Note_on_c, 0, 57, 81
2, 128775, Note_on_c, 0, 50, 80
2, 128775, Note_on_c, 0, 66, 78
2, 128776, Note_on_c, 0, 67, 0
2, 128777, Note_on_c, 0, 79, 0
2, 128777, Control_c, 0, 64, 0
2, 128777, Note_on_c, 0, 55, 0
2, 128777, Note_on_c, 0, 83, 0
2, 128777, Note_on_c, 0, 76, 0
2, 128778, Note_on_c, 0, 64, 0
2, 128780, Note_on_c, 0, 88, 0
2, 128855, Control_c, 0, 64, 127
2, 128866, Note_on_c, 0, 81, 78
2, 128946, Note_on_c, 0, 78, 90
2, 129039, Note_on_c, 0, 81, 0
2, 129045, Note_on_c, 0, 81, 80
2, 129137, Note_on_c, 0, 74, 81
2, 129216, Note_on_c, 0, 78, 0
2, 129226, Note_on_c, 0, 78, 75
2, 129295, Note_on_c, 0, 62, 71
2, 129308, Note_on_c, 0, 74, 0
2, 129318, Note_on_c, 0, 74, 83
2, 129392, Note_on_c, 0, 78, 0
2, 129396, Note_on_c, 0, 78, 86
2, 129469, Note_on_c, 0, 62, 0
2, 129469, Note_on_c, 0, 86, 0
2, 129475, Note_on_c, 0, 62, 93
2, 129479, Note_on_c, 0, 86, 94
2, 129553, Note_on_c, 0, 81, 0
2, 129560, Note_on_c, 0, 81, 77
2, 129638, Note_on_c, 0, 78, 0
2, 129649, Note_on_c, 0, 78, 86
2, 129738, Note_on_c, 0, 81, 0
2, 129747, Note_on_c, 0, 81, 79
2, 129748, Note_on_c, 0, 60, 89
2, 129822, Note_on_c, 0, 74, 0
2, 129827, Note_on_c, 0, 74, 78
2, 129914, Note_on_c, 0, 78, 0
2, 129926, Note_on_c, 0, 78, 66
2, 130014, Note_on_c, 0, 74, 0
2, 130021, Note_on_c, 0, 59, 91
2, 130023, Note_on_c, 0, 74, 84
2, 130099, Note_on_c, 0, 78, 0
2, 130110, Note_on_c, 0, 78, 81
2, 130193, Note_on_c, 0, 55, 82
2, 130193, Note_on_c, 0, 52, 75
2, 130195, Note_on_c, 0, 88, 102
2, 130195, Control_c, 0, 64, 0
2, 130196, Note_on_c, 0, 62, 0
2, 130196, Note_on_c, 0, 66, 0
2, 130196, Note_on_c, 0, 57, 0
2, 130196, Note_on_c, 0, 81, 0
2, 130197, Note_on_c, 0, 74, 0
2, 130199, Note_on_c, 0, 78, 0
2, 130203, Note_on_c, 0, 86, 0
2, 130222, Note_on_c, 0, 50, 0
2, 130237, Control_c, 0, 64, 127
2, 130291, Note_on_c, 0, 83, 75
2, 130376, Note_on_c, 0, 79, 83
2, 130452, Note_on_c, 0, 83, 0
2, 130456, Note_on_c, 0, 83, 78
2, 130544, Note_on_c, 0, 76, 75
2, 130644, Note_on_c, 0, 79, 0
2, 130648, Note_on_c, 0, 79, 74
2, 130728, Note_on_c, 0, 76, 0
2, 130732, Note_on_c, 0, 67, 90
2, 130737, Note_on_c, 0, 76, 82
2, 130813, Note_on_c, 0, 60, 0
2, 130813, Note_on_c, 0, 79, 0
2, 130821, Note_on_c, 0, 79, 85
2, 130905, Note_on_c, 0, 67, 0
2, 130905, Note_on_c, 0, 88, 0
2, 130911, Note_on_c, 0, 88, 98
2, 130913, Note_on_c, 0, 67, 97
2, 130997, Note_on_c, 0, 83, 0
2, 131003, Note_on_c, 0, 83, 74
2, 131082, Note_on_c, 0, 79, 0
2, 131086, Note_on_c, 0, 79, 85
2, 131166, Note_on_c, 0, 83, 0
2, 131176, Note_on_c, 0, 83, 70
2, 131251, Note_on_c, 0, 76, 0
2, 131255, Note_on_c, 0, 76, 80
2, 131351, Note_on_c, 0, 79, 0
2, 131361, Note_on_c, 0, 79, 67
2, 131428, Note_on_c, 0, 69, 92
2, 131443, Note_on_c, 0, 76, 0
2, 131454, Note_on_c, 0, 76, 84
2, 131527, Note_on_c, 0, 79, 0
2, 131535, Note_on_c, 0, 79, 68
2, 131596, Note_on_c, 0, 69, 0
2, 131599, Control_c, 0, 64, 0
2, 131600, Note_on_c, 0, 59, 0
2, 131600, Note_on_c, 0, 52, 0
2, 131600, Note_on_c, 0, 55, 0
2, 131600, Note_on_c, 0, 67, 0
2, 131600, Note_on_c, 0, 83, 0
2, 131601, Note_on_c, 0, 88, 0
2, 131602, Note_on_c, 0, 76, 0
2, 131607, Note_on_c, 0, 69, 101
2, 131616, Note_on_c, 0, 66, 79
2, 131616, Note_on_c, 0, 86, 90
2, 131618, Note_on_c, 0, 59, 80
2, 131619, Note_on_c, 0, 62, 72
2, 131619, Note_on_c, 0, 79, 0
2, 131665, Control_c, 0, 64, 127
2, 131717, Note_on_c, 0, 81, 83
2, 131797, Note_on_c, 0, 78, 86
2, 131880, Note_on_c, 0, 81, 0
2, 131885, Note_on_c, 0, 81, 86
2, 131961, Note_on_c, 0, 74, 81
2, 132034, Note_on_c, 0, 78, 0
2, 132045, Note_on_c, 0, 78, 86
2, 132141, Note_on_c, 0, 71, 95
2, 132157, Note_on_c, 0, 74, 0
2, 132163, Note_on_c, 0, 74, 80
2, 132218, Note_on_c, 0, 78, 0
2, 132229, Note_on_c, 0, 78, 86
2, 132311, Note_on_c, 0, 71, 0
2, 132311, Note_on_c, 0, 86, 0
2, 132315, Note_on_c, 0, 71, 103
2, 132318, Note_on_c, 0, 86, 96
2, 132387, Note_on_c, 0, 81, 0
2, 132393, Note_on_c, 0, 81, 89
2, 132487, Note_on_c, 0, 78, 0
2, 132494, Note_on_c, 0, 78, 84
2, 132579, Note_on_c, 0, 66, 0
2, 132579, Note_on_c, 0, 81, 0
2, 132584, Note_on_c, 0, 81, 78
2, 132590, Note_on_c, 0, 66, 98
2, 132656, Note_on_c, 0, 74, 0
2, 132660, Note_on_c, 0, 74, 80
2, 132756, Note_on_c, 0, 78, 0
2, 132761, Note_on_c, 0, 78, 79
2, 132848, Note_on_c, 0, 74, 0
2, 132858, Note_on_c, 0, 74, 88
2, 132859, Note_on_c, 0, 67, 93
2, 132940, Note_on_c, 0, 78, 0
2, 132950, Note_on_c, 0, 78, 73
2, 133041, Note_on_c, 0, 88, 103
2, 133043, Note_on_c, 0, 64, 91
2, 133044, Note_on_c, 0, 60, 84
2, 133044, Control_c, 0, 64, 0
2, 133046, Note_on_c, 0, 69, 0
2, 133047, Note_on_c, 0, 81, 0
2, 133047, Note_on_c, 0, 71, 0
2, 133047, Note_on_c, 0, 59, 0
2, 133047, Note_on_c, 0, 66, 0
2, 133048, Note_on_c, 0, 74, 0
2, 133048, Note_on_c, 0, 78, 0
2, 133051, Note_on_c, 0, 62, 0
2, 133051, Note_on_c, 0, 86, 0
2, 133124, Note_on_c, 0, 83, 77
2, 133125, Control_c, 0, 64, 127
2, 133204, Note_on_c, 0, 79, 84
2, 133286, Note_on_c, 0, 83, 0
2, 133297, Note_on_c, 0, 83, 85
2, 133377, Note_on_c, 0, 76, 80
2, 133463, Note_on_c, 0, 79, 0
2, 133473, Note_on_c, 0, 79, 76
2, 133562, Note_on_c, 0, 67, 0
2, 133562, Note_on_c, 0, 76, 0
2, 133571, Note_on_c, 0, 67, 89
2, 133574, Note_on_c, 0, 76, 81
2, 133647, Note_on_c, 0, 79, 0
2, 133657, Note_on_c, 0, 79, 87
2, 133739, Note_on_c, 0, 67, 0
2, 133739, Note_on_c, 0, 88, 0
2, 133749, Note_on_c, 0, 88, 98
2, 133750, Note_on_c, 0, 67, 95
2, 133824, Note_on_c, 0, 83, 0
2, 133832, Note_on_c, 0, 83, 71
2, 133916, Note_on_c, 0, 79, 0
2, 133921, Note_on_c, 0, 79, 84
2, 133992, Note_on_c, 0, 83, 0
2, 133998, Note_on_c, 0, 83, 75
2, 134069, Note_on_c, 0, 76, 0
2, 134077, Note_on_c, 0, 76, 73
2, 134161, Note_on_c, 0, 79, 0
2, 134169, Note_on_c, 0, 79, 77
2, 134261, Note_on_c, 0, 67, 0
2, 134261, Note_on_c, 0, 76, 0
2, 134266, Note_on_c, 0, 76, 85
2, 134266, Note_on_c, 0, 67, 89
2, 134346, Note_on_c, 0, 79, 0
2, 134354, Note_on_c, 0, 79, 69
2, 134450, Note_on_c, 0, 66, 91
2, 134451, Note_on_c, 0, 76, 0
2, 134452, Note_on_c, 0, 67, 0
2, 134453, Note_on_c, 0, 86, 99
2, 134454, Note_on_c, 0, 60, 0
2, 134454, Note_on_c, 0, 64, 0
2, 134454, Note_on_c, 0, 79, 0
2, 134455, Note_on_c, 0, 83, 0
2, 134456, Note_on_c, 0, 62, 87
2, 134458, Control_c, 0, 64, 0
2, 134484, Note_on_c, 0, 88, 0
2, 134515, Control_c, 0, 64, 127
2, 134548, Note_on_c, 0, 81, 85
2, 134634, Note_on_c, 0, 78, 90
2, 134730, Note_on_c, 0, 81, 0
2, 134735, Note_on_c, 0, 81, 76
2, 134809, Note_on_c, 0, 74, 87
2, 134891, Note_on_c, 0, 78, 0
2, 134900, Note_on_c, 0, 78, 84
2, 134976, Note_on_c, 0, 62, 0
2, 134986, Note_on_c, 0, 62, 91
2, 134991, Note_on_c, 0, 74, 0
2, 135001, Note_on_c, 0, 74, 89
2, 135075, Note_on_c, 0, 78, 0
2, 135086, Note_on_c, 0, 78, 82
2, 135152, Note_on_c, 0, 62, 0
2, 135160, Note_on_c, 0, 86, 0
2, 135162, Note_on_c, 0, 62, 95
2, 135164, Note_on_c, 0, 86, 99
2, 135237, Note_on_c, 0, 81, 0
2, 135248, Note_on_c, 0, 81, 82
2, 135321, Note_on_c, 0, 78, 0
2, 135332, Note_on_c, 0, 78, 91
2, 135421, Note_on_c, 0, 81, 0
2, 135428, Note_on_c, 0, 60, 98
2, 135429, Note_on_c, 0, 81, 84
2, 135505, Note_on_c, 0, 74, 0
2, 135510, Note_on_c, 0, 74, 82
2, 135598, Note_on_c, 0, 78, 0
2, 135602, Note_on_c, 0, 78, 85
2, 135697, Note_on_c, 0, 74, 0
2, 135701, Note_on_c, 0, 59, 98
2, 135702, Note_on_c, 0, 74, 91
2, 135790, Note_on_c, 0, 78, 0
2, 135794, Note_on_c, 0, 78, 83
2, 135873, Note_on_c, 0, 66, 0
2, 135873, Control_c, 0, 64, 0
2, 135874, Note_on_c, 0, 62, 0
2, 135874, Note_on_c, 0, 81, 0
2, 135875, Note_on_c, 0, 74, 0
2, 135876, Note_on_c, 0, 60, 0
2, 135876, Note_on_c, 0, 78, 0
2, 135877, Note_on_c, 0, 86, 0
2, 135878, Note_on_c, 0, 88, 101
2, 135886, Note_on_c, 0, 55, 93
2, 135886, Note_on_c, 0, 52, 84
2, 135959, Control_c, 0, 64, 127
2, 135973, Note_on_c, 0, 83, 77
2, 136051, Note_on_c, 0, 79, 88
2, 136128, Note_on_c, 0, 83, 0
2, 136135, Note_on_c, 0, 83, 80
2, 136222, Note_on_c, 0, 76, 78
2, 136312, Note_on_c, 0, 79, 0
2, 136319, Note_on_c, 0, 79, 72
2, 136396, Note_on_c, 0, 76, 0
2, 136400, Note_on_c, 0, 67, 97
2, 136402, Note_on_c, 0, 76, 84
2, 136488, Note_on_c, 0, 79, 0
2, 136498, Note_on_c, 0, 79, 85
2, 136573, Note_on_c, 0, 67, 0
2, 136581, Note_on_c, 0, 88, 0
2, 136582, Note_on_c, 0, 67, 99
2, 136589, Note_on_c, 0, 88, 97
2, 136673, Note_on_c, 0, 83, 0
2, 136677, Note_on_c, 0, 83, 75
2, 136757, Note_on_c, 0, 79, 0
2, 136769, Note_on_c, 0, 79, 91
2, 136834, Note_on_c, 0, 83, 0
2, 136839, Note_on_c, 0, 83, 68
2, 136911, Note_on_c, 0, 76, 0
2, 136921, Note_on_c, 0, 76, 76
2, 137011, Note_on_c, 0, 79, 0
2, 137022, Note_on_c, 0, 79, 81
2, 137093, Note_on_c, 0, 69, 101
2, 137103, Note_on_c, 0, 76, 0
2, 137111, Note_on_c, 0, 76, 90
2, 137195, Note_on_c, 0, 79, 0
2, 137202, Note_on_c, 0, 79, 84
2, 137272, Note_on_c, 0, 69, 0
2, 137276, Note_on_c, 0, 69, 102
2, 137280, Note_on_c, 0, 59, 0
2, 137282, Note_on_c, 0, 66, 92
2, 137283, Note_on_c, 0, 62, 88
2, 137284, Note_on_c, 0, 86, 97
2, 137285, Note_on_c, 0, 59, 91
2, 137289, Note_on_c, 0, 83, 0
2, 137290, Note_on_c, 0, 76, 0
2, 137290, Note_on_c, 0, 79, 0
2, 137291, Note_on_c, 0, 55, 0
2, 137291, Note_on_c, 0, 67, 0
2, 137295, Note_on_c, 0, 52, 0
2, 137299, Control_c, 0, 64, 0
2, 137310, Note_on_c, 0, 88, 0
2, 137372, Control_c, 0, 64, 127
2, 137383, Note_on_c, 0, 81, 86
2, 137463, Note_on_c, 0, 78, 92
2, 137541, Note_on_c, 0, 81, 0
2, 137547, Note_on_c, 0, 81, 87
2, 137616, Note_on_c, 0, 74, 94
2, 137702, Note_on_c, 0, 78, 0
2, 137706, Note_on_c, 0, 78, 90
2, 137794, Note_on_c, 0, 74, 0
2, 137798, Note_on_c, 0, 74, 109
2, 137879, Note_on_c, 0, 78, 0
2, 137885, Note_on_c, 0, 78, 92
2, 137971, Note_on_c, 0, 86, 0
2, 137977, Note_on_c, 0, 72, 108
2, 137982, Note_on_c, 0, 86, 103
2, 138055, Note_on_c, 0, 81, 0
2, 138060, Note_on_c, 0, 81, 89
2, 138147, Note_on_c, 0, 78, 0
2, 138152, Note_on_c, 0, 78, 98
2, 138237, Note_on_c, 0, 71, 104
2, 138247, Note_on_c, 0, 81, 0
2, 138258, Note_on_c, 0, 81, 87
2, 138332, Note_on_c, 0, 74, 0
2, 138342, Note_on_c, 0, 74, 98
2, 138416, Note_on_c, 0, 78, 0
2, 138422, Note_on_c, 0, 78, 93
2, 138501, Note_on_c, 0, 66, 0
2, 138512, Note_on_c, 0, 66, 100
2, 138524, Note_on_c, 0, 74, 0
2, 138528, Note_on_c, 0, 74, 96
2, 138600, Note_on_c, 0, 78, 0
2, 138609, Note_on_c, 0, 78, 91
2, 138673, Note_on_c, 0, 71, 0
2, 138673, Note_on_c, 0, 81, 0
2, 138673, Note_on_c, 0, 72, 0
2, 138673, Note_on_c, 0, 74, 0
2, 138674, Note_on_c, 0, 86, 0
2, 138674, Note_on_c, 0, 78, 0
2, 138675, Note_on_c, 0, 62, 0
2, 138675, Note_on_c, 0, 59, 0
2, 138683, Control_c, 0, 64, 0
2, 138685, Note_on_c, 0, 69, 0
2, 138693, Note_on_c, 0, 66, 0
2, 138705, Note_on_c, 0, 88, 109
2, 138709, Note_on_c, 0, 67, 100
2, 138710, Note_on_c, 0, 79, 102
2, 138710, Note_on_c, 0, 64, 94
2, 138711, Note_on_c, 0, 76, 103
2, 138731, Control_c, 0, 64, 127
2, 138892, Note_on_c, 0, 79, 0
2, 138901, Note_on_c, 0, 60, 93
2, 138903, Note_on_c, 0, 79, 76
2, 138905, Note_on_c, 0, 83, 74
2, 138978, Note_on_c, 0, 55, 78
2, 139069, Note_on_c, 0, 79, 0
2, 139069, Note_on_c, 0, 83, 0
2, 139072, Note_on_c, 0, 48, 85
2, 139073, Note_on_c, 0, 83, 90
2, 139079, Note_on_c, 0, 79, 73
2, 139153, Note_on_c, 0, 55, 0
2, 139158, Note_on_c, 0, 55, 82
2, 139230, Note_on_c, 0, 60, 0
2, 139236, Note_on_c, 0, 60, 82
2, 139238, Note_on_c, 0, 79, 0
2, 139238, Note_on_c, 0, 83, 0
2, 139240, Note_on_c, 0, 91, 107
2, 139242, Note_on_c, 0, 83, 88
2, 139245, Note_on_c, 0, 79, 92
2, 139307, Note_on_c, 0, 64, 0
2, 139315, Note_on_c, 0, 64, 99
2, 139399, Note_on_c, 0, 91, 0
2, 139407, Note_on_c, 0, 64, 0
2, 139407, Note_on_c, 0, 79, 0
2, 139410, Note_on_c, 0, 91, 110
2, 139411, Note_on_c, 0, 64, 94
2, 139412, Note_on_c, 0, 79, 100
2, 139415, Note_on_c, 0, 83, 0
2, 139419, Note_on_c, 0, 83, 90
2, 139491, Note_on_c, 0, 60, 0
2, 139496, Note_on_c, 0, 60, 92
2, 139584, Note_on_c, 0, 60, 0
2, 139584, Note_on_c, 0, 83, 0
2, 139591, Note_on_c, 0, 60, 89
2, 139594, Note_on_c, 0, 83, 86
2, 139660, Note_on_c, 0, 55, 0
2, 139664, Note_on_c, 0, 55, 84
2, 139760, Note_on_c, 0, 48, 0
2, 139760, Note_on_c, 0, 79, 0
2, 139760, Note_on_c, 0, 83, 0
2, 139765, Note_on_c, 0, 48, 82
2, 139769, Note_on_c, 0, 83, 90
2, 139771, Note_on_c, 0, 79, 79
2, 139845, Note_on_c, 0, 55, 0
2, 139856, Note_on_c, 0, 55, 78
2, 139929, Note_on_c, 0, 60, 0
2, 139929, Note_on_c, 0, 79, 0
2, 139929, Note_on_c, 0, 91, 0
2, 139933, Note_on_c, 0, 60, 96
2, 139937, Note_on_c, 0, 83, 0
2, 139939, Note_on_c, 0, 79, 98
2, 139940, Note_on_c, 0, 91, 105
2, 139943, Note_on_c, 0, 83, 95
2, 140006, Note_on_c, 0, 64, 0
2, 140011, Note_on_c, 0, 64, 88
2, 140108, Control_c, 0, 64, 0
2, 140109, Note_on_c, 0, 48, 0
2, 140110, Note_on_c, 0, 60, 0
2, 140110, Note_on_c, 0, 90, 110
2, 140111, Note_on_c, 0, 79, 0
2, 140111, Note_on_c, 0, 64, 0
2, 140111, Note_on_c, 0, 91, 0
2, 140111, Note_on_c, 0, 76, 0
2, 140112, Note_on_c, 0, 88, 0
2, 140112, Note_on_c, 0, 83, 0
2, 140113, Note_on_c, 0, 78, 106
2, 140114, Note_on_c, 0, 66, 96
2, 140116, Note_on_c, 0, 81, 99
2, 140121, Note_on_c, 0, 67, 0
2, 140136, Note_on_c, 0, 55, 0
2, 140152, Control_c, 0, 64, 127
2, 140198, Note_on_c, 0, 62, 85
2, 140290, Note_on_c, 0, 62, 0
2, 140290, Note_on_c, 0, 81, 0
2, 140295, Note_on_c, 0, 60, 66
2, 140295, Note_on_c, 0, 62, 82
2, 140300, Note_on_c, 0, 81, 82
2, 140376, Note_on_c, 0, 57, 80
2, 140459, Note_on_c, 0, 81, 0
2, 140467, Note_on_c, 0, 78, 0
2, 140469, Note_on_c, 0, 50, 81
2, 140470, Note_on_c, 0, 81, 88
2, 140471, Note_on_c, 0, 78, 85
2, 140544, Note_on_c, 0, 57, 0
2, 140555, Note_on_c, 0, 57, 64
2, 140636, Note_on_c, 0, 62, 0
2, 140636, Note_on_c, 0, 78, 0
2, 140640, Note_on_c, 0, 62, 89
2, 140640, Note_on_c, 0, 86, 100
2, 140641, Note_on_c, 0, 78, 95
2, 140643, Note_on_c, 0, 81, 0
2, 140649, Note_on_c, 0, 81, 90
2, 140705, Note_on_c, 0, 66, 0
2, 140715, Note_on_c, 0, 66, 95
2, 140805, Note_on_c, 0, 86, 0
2, 140812, Note_on_c, 0, 66, 0
2, 140812, Note_on_c, 0, 78, 0
2, 140812, Note_on_c, 0, 81, 0
2, 140816, Note_on_c, 0, 86, 106
2, 140818, Note_on_c, 0, 78, 99
2, 140818, Note_on_c, 0, 74, 90
2, 140819, Note_on_c, 0, 66, 88
2, 140819, Note_on_c, 0, 81, 95
2, 140828, Note_on_c, 0, 74, 0
2, 140889, Note_on_c, 0, 62, 0
2, 140898, Note_on_c, 0, 62, 82
2, 140989, Note_on_c, 0, 62, 0
2, 141000, Note_on_c, 0, 62, 75
2, 141066, Note_on_c, 0, 90, 0
2, 141073, Note_on_c, 0, 57, 0
2, 141085, Note_on_c, 0, 84, 107
2, 141085, Note_on_c, 0, 57, 88
2, 141089, Note_on_c, 0, 78, 0
2, 141089, Note_on_c, 0, 81, 0
2, 141093, Note_on_c, 0, 81, 92
2, 141094, Note_on_c, 0, 78, 89
2, 141166, Note_on_c, 0, 50, 0
2, 141175, Note_on_c, 0, 50, 78
2, 141258, Note_on_c, 0, 57, 0
2, 141269, Note_on_c, 0, 57, 73
2, 141342, Note_on_c, 0, 62, 0
2, 141342, Note_on_c, 0, 78, 0
2, 141348, Note_on_c, 0, 74, 80
2, 141349, Note_on_c, 0, 62, 90
2, 141350, Note_on_c, 0, 83, 95
2, 141354, Note_on_c, 0, 78, 95
2, 141434, Note_on_c, 0, 66, 0
2, 141442, Note_on_c, 0, 66, 87
2, 141535, Control_c, 0, 64, 0
2, 141536, Note_on_c, 0, 84, 0
2, 141536, Note_on_c, 0, 67, 96
2, 141537, Note_on_c, 0, 62, 0
2, 141537, Note_on_c, 0, 83, 0
2, 141537, Note_on_c, 0, 78, 0
2, 141537, Note_on_c, 0, 50, 0
2, 141538, Note_on_c, 0, 57, 0
2, 141538, Note_on_c, 0, 81, 0
2, 141538, Note_on_c, 0, 86, 0
2, 141538, Note_on_c, 0, 66, 0
2, 141539, Note_on_c, 0, 79, 97
2, 141539, Note_on_c, 0, 76, 98
2, 141542, Note_on_c, 0, 74, 0
2, 141550, Note_on_c, 0, 60, 0
2, 141580, Control_c, 0, 64, 127
2, 141635, Note_on_c, 0, 64, 96
2, 141711, Note_on_c, 0, 64, 0
2, 141711, Note_on_c, 0, 79, 0
2, 141719, Note_on_c, 0, 76, 0
2, 141721, Note_on_c, 0, 79, 83
2, 141722, Note_on_c, 0, 64, 85
2, 141723, Note_on_c, 0, 76, 80
2, 141802, Note_on_c, 0, 59, 81
2, 141888, Note_on_c, 0, 76, 0
2, 141888, Note_on_c, 0, 79, 0
2, 141897, Note_on_c, 0, 76, 91
2, 141897, Note_on_c, 0, 52, 87
2, 141897, Note_on_c, 0, 79, 89
2, 141972, Note_on_c, 0, 59, 0
2, 141983, Note_on_c, 0, 59, 67
2, 142049, Note_on_c, 0, 64, 0
2, 142056, Note_on_c, 0, 79, 0
2, 142060, Note_on_c, 0, 64, 97
2, 142061, Note_on_c, 0, 91, 105
2, 142067, Note_on_c, 0, 79, 96
2, 142068, Note_on_c, 0, 83, 91
2, 142133, Note_on_c, 0, 67, 0
2, 142144, Note_on_c, 0, 67, 92
2, 142233, Note_on_c, 0, 67, 0
2, 142233, Note_on_c, 0, 79, 0
2, 142233, Note_on_c, 0, 83, 0
2, 142233, Note_on_c, 0, 91, 0
2, 142237, Note_on_c, 0, 91, 109
2, 142240, Note_on_c, 0, 79, 101
2, 142242, Note_on_c, 0, 67, 96
2, 142244, Note_on_c, 0, 83, 96
2, 142310, Note_on_c, 0, 64, 0
2, 142320, Note_on_c, 0, 64, 97
2, 142410, Note_on_c, 0, 64, 0
2, 142410, Note_on_c, 0, 79, 0
2, 142410, Note_on_c, 0, 83, 0
2, 142414, Note_on_c, 0, 64, 92
2, 142418, Note_on_c, 0, 83, 85
2, 142421, Note_on_c, 0, 79, 82
2, 142494, Note_on_c, 0, 59, 0
2, 142500, Note_on_c, 0, 59, 80
2, 142586, Note_on_c, 0, 52, 0
2, 142586, Note_on_c, 0, 79, 0
2, 142586, Note_on_c, 0, 83, 0
2, 142590, Note_on_c, 0, 52, 87
2, 142591, Note_on_c, 0, 83, 89
2, 142591, Note_on_c, 0, 79, 87
2, 142663, Note_on_c, 0, 59, 0
2, 142667, Note_on_c, 0, 59, 75
2, 142755, Note_on_c, 0, 64, 0
2, 142755, Note_on_c, 0, 79, 0
2, 142755, Note_on_c, 0, 91, 0
2, 142763, Note_on_c, 0, 83, 0
2, 142764, Note_on_c, 0, 64, 94
2, 142766, Note_on_c, 0, 91, 106
2, 142767, Note_on_c, 0, 79, 101
2, 142770, Note_on_c, 0, 83, 98
2, 142840, Note_on_c, 0, 67, 0
2, 142851, Note_on_c, 0, 67, 89
2, 142913, Control_c, 0, 64, 0
2, 142916, Note_on_c, 0, 67, 0
2, 142917, Note_on_c, 0, 91, 0
2, 142918, Note_on_c, 0, 76, 0
2, 142918, Note_on_c, 0, 83, 0
2, 142919, Note_on_c, 0, 59, 0
2, 142932, Note_on_c, 0, 52, 0
2, 142932, Note_on_c, 0, 64, 0
2, 142932, Note_on_c, 0, 79, 0
2, 142938, Note_on_c, 0, 93, 109
2, 142939, Note_on_c, 0, 66, 94
2, 142941, Note_on_c, 0, 86, 104
2, 142943, Note_on_c, 0, 81, 103
2, 142944, Note_on_c, 0, 90, 95
2, 142955, Control_c, 0, 64, 127
2, 143017, Note_on_c, 0, 62, 89
2, 143109, Note_on_c, 0, 62, 0
2, 143109, Note_on_c, 0, 81, 0
2, 143109, Note_on_c, 0, 86, 0
2, 143114, Note_on_c, 0, 62, 77
2, 143117, Note_on_c, 0, 81, 93
2, 143119, Note_on_c, 0, 86, 97
2, 143194, Note_on_c, 0, 57, 77
2, 143270, Note_on_c, 0, 86, 0
2, 143277, Note_on_c, 0, 47, 92
2, 143278, Note_on_c, 0, 81, 0
2, 143281, Note_on_c, 0, 86, 96
2, 143287, Note_on_c, 0, 81, 92
2, 143354, Note_on_c, 0, 57, 0
2, 143364, Note_on_c, 0, 57, 89
2, 143447, Note_on_c, 0, 62, 0
2, 143454, Note_on_c, 0, 81, 0
2, 143454, Note_on_c, 0, 86, 0
2, 143454, Note_on_c, 0, 93, 0
2, 143457, Note_on_c, 0, 62, 87
2, 143458, Note_on_c, 0, 93, 107
2, 143459, Note_on_c, 0, 81, 104
2, 143462, Note_on_c, 0, 90, 0
2, 143465, Note_on_c, 0, 86, 102
2, 143469, Note_on_c, 0, 90, 91
2, 143523, Note_on_c, 0, 66, 0
2, 143532, Note_on_c, 0, 66, 81
2, 143631, Note_on_c, 0, 66, 0
2, 143639, Note_on_c, 0, 86, 0
2, 143641, Note_on_c, 0, 66, 89
2, 143641, Note_on_c, 0, 95, 112
2, 143643, Note_on_c, 0, 83, 106
2, 143646, Note_on_c, 0, 86, 101
2, 143715, Note_on_c, 0, 62, 0
2, 143724, Note_on_c, 0, 62, 94
2, 143808, Note_on_c, 0, 57, 0
2, 143817, Note_on_c, 0, 57, 78
2, 143907, Note_on_c, 0, 90, 0
2, 143912, Note_on_c, 0, 54, 94
2, 143916, Note_on_c, 0, 90, 110
2, 143916, Note_on_c, 0, 78, 108
2, 143984, Note_on_c, 0, 62, 0
2, 143995, Note_on_c, 0, 62, 93
2, 144069, Note_on_c, 0, 57, 0
2, 144076, Note_on_c, 0, 57, 82
2, 144168, Note_on_c, 0, 54, 0
2, 144168, Note_on_c, 0, 78, 0
2, 144168, Note_on_c, 0, 90, 0
2, 144173, Note_on_c, 0, 54, 70
2, 144179, Note_on_c, 0, 90, 113
2, 144180, Note_on_c, 0, 78, 107
2, 144184, Note_on_c, 0, 81, 0
2, 144245, Note_on_c, 0, 47, 0
2, 144251, Note_on_c, 0, 47, 99
2, 144324, Note_on_c, 0, 95, 0
2, 144324, Note_on_c, 0, 86, 0
2, 144324, Note_on_c, 0, 83, 0
2, 144325, Note_on_c, 0, 93, 0
2, 144325, Note_on_c, 0, 62, 0
2, 144325, Note_on_c, 0, 90, 0
2, 144326, Note_on_c, 0, 57, 0
2, 144326, Note_on_c, 0, 66, 0
2, 144326, Note_on_c, 0, 78, 0
2, 144326, Note_on_c, 0, 47, 0
2, 144327, Note_on_c, 0, 54, 0
2, 144340, Control_c, 0, 64, 0
2, 144352, Note_on_c, 0, 55, 105
2, 144354, Note_on_c, 0, 52, 101
2, 144356, Note_on_c, 0, 48, 102
2, 144357, Note_on_c, 0, 91, 113
2, 144359, Note_on_c, 0, 79, 110
2, 144360, Note_on_c, 0, 84, 101
2, 144363, Note_on_c, 0, 88, 102
2, 144384, Control_c, 0, 64, 127
2, 144516, Control_c, 0, 64, 0
2, 144521, Note_on_c, 0, 52, 0
2, 144522, Note_on_c, 0, 79, 0
2, 144523, Note_on_c, 0, 84, 0
2, 144523, Note_on_c, 0, 48, 0
2, 144529, Note_on_c, 0, 55, 0
2, 144623, Note_on_c, 0, 93, 114
2, 144624, Note_on_c, 0, 81, 109
2, 144691, Control_c, 0, 64, 127
2, 144698, Note_on_c, 0, 91, 0
2, 144718, Note_on_c, 0, 48, 106
2, 144719, Note_on_c, 0, 36, 99
2, 144896, Note_on_c, 0, 95, 111
2, 144899, Note_on_c, 0, 83, 107
2, 145059, Note_on_c, 0, 95, 0
2, 145067, Note_on_c, 0, 48, 0
2, 145067, Note_on_c, 0, 83, 0
2, 145069, Note_on_c, 0, 60, 103
2, 145070, Note_on_c, 0, 95, 107
2, 145074, Note_on_c, 0, 48, 98
2, 145075, Note_on_c, 0, 88, 0
2, 145078, Note_on_c, 0, 83, 102
2, 145078, Note_on_c, 0, 91, 101
2, 145078, Note_on_c, 0, 84, 96
2, 145080, Note_on_c, 0, 88, 104
2, 145080, Note_on_c, 0, 52, 95
2, 145082, Note_on_c, 0, 55, 101
2, 145351, Note_on_c, 0, 48, 0
2, 145351, Note_on_c, 0, 55, 0
2, 145351, Note_on_c, 0, 60, 0
2, 145355, Note_on_c, 0, 60, 90
2, 145357, Note_on_c, 0, 62, 96
2, 145359, Note_on_c, 0, 52, 0
2, 145361, Note_on_c, 0, 55, 92
2, 145362, Note_on_c, 0, 67, 91
2, 145362, Note_on_c, 0, 48, 92
2, 145364, Note_on_c, 0, 52, 90
2, 145376, Note_on_c, 0, 93, 0
2, 145597, Note_on_c, 0, 48, 0
2, 145604, Note_on_c, 0, 48, 93
2, 145605, Note_on_c, 0, 84, 0
2, 145605, Note_on_c, 0, 88, 0
2, 145609, Note_on_c, 0, 88, 110
2, 145610, Note_on_c, 0, 64, 101
2, 145610, Note_on_c, 0, 76, 108
2, 145789, Note_on_c, 0, 36, 0
2, 145789, Note_on_c, 0, 91, 0
2, 145797, Note_on_c, 0, 62, 0
2, 145797, Note_on_c, 0, 81, 0
2, 145800, Note_on_c, 0, 62, 100
2, 145801, Note_on_c, 0, 57, 101
2, 145801, Note_on_c, 0, 48, 0
2, 145801, Note_on_c, 0, 64, 0
2, 145801, Note_on_c, 0, 86, 105
2, 145801, Note_on_c, 0, 67, 0
2, 145802, Note_on_c, 0, 88, 0
2, 145802, Note_on_c, 0, 76, 0
2, 145803, Note_on_c, 0, 54, 99
2, 145803, Control_c, 0, 64, 0
2, 145804, Note_on_c, 0, 50, 94
2, 145805, Note_on_c, 0, 74, 105
2, 145805, Note_on_c, 0, 78, 104
2, 145807, Note_on_c, 0, 81, 98
2, 145812, Note_on_c, 0, 60, 0
2, 145812, Note_on_c, 0, 95, 0
2, 145820, Note_on_c, 0, 52, 0
2, 145820, Note_on_c, 0, 55, 0
2, 145827, Note_on_c, 0, 83, 0
2, 145873, Control_c, 0, 64, 127
2, 145931, Control_c, 0, 64, 0
2, 145931, Note_on_c, 0, 57, 0
2, 145937, Note_on_c, 0, 50, 0
2, 145939, Note_on_c, 0, 54, 0
2, 145939, Note_on_c, 0, 62, 0
2, 145941, Note_on_c, 0, 74, 0
2, 145941, Note_on_c, 0, 78, 0
2, 145944, Note_on_c, 0, 86, 0
2, 145996, Note_on_c, 0, 81, 0
2, 146092, Note_on_c, 0, 86, 108
2, 146093, Note_on_c, 0, 74, 107
2, 146093, Note_on_c, 0, 78, 108
2, 146096, Note_on_c, 0, 81, 105
2, 146173, Control_c, 0, 64, 127
2, 146185, Note_on_c, 0, 50, 104
2, 146186, Note_on_c, 0, 38, 104
2, 146342, Note_on_c, 0, 86, 0
2, 146353, Note_on_c, 0, 98, 114
2, 146353, Note_on_c, 0, 86, 109
2, 146519, Note_on_c, 0, 74, 0
2, 146524, Control_c, 0, 64, 0
2, 146526, Note_on_c, 0, 86, 0
2, 146526, Note_on_c, 0, 98, 0
2, 146527, Note_on_c, 0, 74, 113
2, 146530, Note_on_c, 0, 69, 101
2, 146531, Note_on_c, 0, 66, 92
2, 146535, Note_on_c, 0, 62, 95
2, 146536, Note_on_c, 0, 86, 109
2, 146536, Note_on_c, 0, 93, 105
2, 146537, Note_on_c, 0, 98, 109
2, 146537, Note_on_c, 0, 90, 107
2, 146557, Control_c, 0, 64, 127
2, 146787, Note_on_c, 0, 62, 0
2, 146795, Note_on_c, 0, 50, 0
2, 146798, Note_on_c, 0, 62, 98
2, 146798, Note_on_c, 0, 57, 102
2, 146799, Note_on_c, 0, 54, 100
2, 146799, Note_on_c, 0, 50, 96
2, 147041, Note_on_c, 0, 50, 0
2, 147041, Note_on_c, 0, 54, 0
2, 147041, Note_on_c, 0, 57, 0
2, 147041, Note_on_c, 0, 62, 0
2, 147046, Note_on_c, 0, 54, 95
2, 147047, Note_on_c, 0, 57, 97
2, 147047, Note_on_c, 0, 91, 110
2, 147051, Note_on_c, 0, 50, 93
2, 147052, Note_on_c, 0, 62, 93
2, 147053, Note_on_c, 0, 79, 101
2, 147245, Control_c, 0, 64, 0
2, 147247, Note_on_c, 0, 91, 0
2, 147247, Note_on_c, 0, 98, 0
2, 147248, Note_on_c, 0, 78, 0
2, 147249, Note_on_c, 0, 57, 0
2, 147249, Note_on_c, 0, 69, 0
2, 147250, Note_on_c, 0, 66, 0
2, 147251, Note_on_c, 0, 54, 0
2, 147251, Note_on_c, 0, 50, 0
2, 147251, Note_on_c, 0, 62, 0
2, 147256, Note_on_c, 0, 74, 0
2, 147256, Note_on_c, 0, 79, 0
2, 147256, Note_on_c, 0, 81, 0
2, 147256, Note_on_c, 0, 86, 0
2, 147256, Note_on_c, 0, 93, 0
2, 147261, Note_on_c, 0, 28, 96
2, 147262, Note_on_c, 0, 93, 115
2, 147263, Note_on_c, 0, 40, 100
2, 147264, Note_on_c, 0, 90, 0
2, 147264, Note_on_c, 0, 81, 111
2, 147267, Note_on_c, 0, 86, 105
2, 147269, Note_on_c, 0, 90, 93
2, 147279, Note_on_c, 0, 38, 0
2, 147302, Control_c, 0, 64, 127
2, 147440, Note_on_c, 0, 28, 0
2, 147447, Note_on_c, 0, 45, 99
2, 147447, Note_on_c, 0, 57, 100
2, 147525, Note_on_c, 0, 93, 0
2, 147532, Note_on_c, 0, 81, 0
2, 147532, Note_on_c, 0, 86, 0
2, 147532, Note_on_c, 0, 90, 0
2, 147536, Note_on_c, 0, 93, 108
2, 147538, Note_on_c, 0, 81, 104
2, 147543, Note_on_c, 0, 90, 99
2, 147543, Note_on_c, 0, 86, 97
2, 147620, Note_on_c, 0, 59, 106
2, 147622, Note_on_c, 0, 47, 102
2, 147795, Note_on_c, 0, 62, 102
2, 147797, Note_on_c, 0, 50, 93
2, 147798, Note_on_c, 0, 95, 109
2, 147801, Note_on_c, 0, 86, 0
2, 147801, Note_on_c, 0, 90, 0
2, 147804, Note_on_c, 0, 83, 105
2, 147806, Note_on_c, 0, 86, 98
2, 147806, Note_on_c, 0, 90, 97
2, 147962, Note_on_c, 0, 95, 0
2, 147970, Note_on_c, 0, 83, 0
2, 147970, Note_on_c, 0, 86, 0
2, 147972, Note_on_c, 0, 64, 101
2, 147973, Note_on_c, 0, 95, 114
2, 147977, Note_on_c, 0, 83, 112
2, 147978, Note_on_c, 0, 90, 0
2, 147981, Note_on_c, 0, 86, 104
2, 147981, Note_on_c, 0, 52, 102
2, 147988, Note_on_c, 0, 90, 99
2, 148138, Note_on_c, 0, 67, 106
2, 148140, Note_on_c, 0, 55, 113
2, 148308, Note_on_c, 0, 57, 0
2, 148312, Note_on_c, 0, 69, 109
2, 148313, Note_on_c, 0, 57, 113
2, 148485, Note_on_c, 0, 59, 0
2, 148490, Note_on_c, 0, 71, 103
2, 148491, Note_on_c, 0, 59, 106
2, 148669, Note_on_c, 0, 47, 0
2, 148676, Note_on_c, 0, 47, 110
2, 148676, Control_c, 0, 64, 0
2, 148682, Note_on_c, 0, 64, 0
2, 148682, Note_on_c, 0, 90, 0
2, 148682, Note_on_c, 0, 81, 0
2, 148682, Note_on_c, 0, 52, 0
2, 148682, Note_on_c, 0, 93, 0
2, 148682, Note_on_c, 0, 45, 0
2, 148682, Note_on_c, 0, 40, 0
2, 148683, Note_on_c, 0, 69, 0
2, 148683, Note_on_c, 0, 83, 0
2, 148683, Note_on_c, 0, 86, 0
2, 148684, Note_on_c, 0, 95, 0
2, 148684, Note_on_c, 0, 62, 0
2, 148684, Note_on_c, 0, 59, 0
2, 148684, Note_on_c, 0, 50, 0
2, 148685, Note_on_c, 0, 71, 0
2, 148685, Note_on_c, 0, 55, 0
2, 148686, Note_on_c, 0, 67, 0
2, 148707, Note_on_c, 0, 57, 0
2, 148759, Note_on_c, 0, 45, 78
2, 148761, Control_c, 0, 64, 127
2, 148834, Note_on_c, 0, 42, 96
2, 148898, Control_c, 0, 64, 0
2, 148903, Note_on_c, 0, 45, 0
2, 148911, Note_on_c, 0, 35, 90
2, 148922, Note_on_c, 0, 47, 0
2, 148976, Note_on_c, 0, 42, 0
2, 149007, Note_on_c, 0, 35, 0
2, 149032, Note_on_c, 0, 74, 114
2, 149035, Note_on_c, 0, 45, 99
2, 149035, Note_on_c, 0, 47, 100
2, 149037, Note_on_c, 0, 62, 104
2, 149039, Note_on_c, 0, 69, 103
2, 149040, Note_on_c, 0, 66, 103
2, 149040, Note_on_c, 0, 35, 93
2, 149061, Control_c, 0, 64, 127
2, 149299, Note_on_c, 0, 45, 0
2, 149299, Note_on_c, 0, 47, 0
2, 149303, Note_on_c, 0, 45, 96
2, 149303, Note_on_c, 0, 47, 103
2, 149383, Note_on_c, 0, 62, 0
2, 149383, Note_on_c, 0, 69, 0
2, 149383, Note_on_c, 0, 74, 0
2, 149391, Note_on_c, 0, 66, 0
2, 149392, Note_on_c, 0, 74, 113
2, 149393, Note_on_c, 0, 69, 103
2, 149394, Note_on_c, 0, 62, 105
2, 149395, Note_on_c, 0, 66, 101
2, 149583, Note_on_c, 0, 45, 0
2, 149583, Note_on_c, 0, 47, 0
2, 149589, Note_on_c, 0, 47, 100
2, 149593, Note_on_c, 0, 45, 98
2, 149752, Note_on_c, 0, 74, 0
2, 149756, Note_on_c, 0, 83, 106
2, 149757, Note_on_c, 0, 74, 109
2, 149757, Note_on_c, 0, 71, 101
2, 149760, Note_on_c, 0, 78, 98
2, 149824, Note_on_c, 0, 31, 78
2, 149875, Note_on_c, 0, 35, 0
2, 149883, Note_on_c, 0, 35, 83
2, 149914, Note_on_c, 0, 36, 81
2, 149931, Note_on_c, 0, 38, 88
2, 149957, Note_on_c, 0, 41, 85
2, 149959, Note_on_c, 0, 45, 0
2, 149959, Note_on_c, 0, 47, 0
2, 149963, Note_on_c, 0, 45, 84
2, 149964, Note_on_c, 0, 47, 93
2, 150026, Note_on_c, 0, 53, 91
2, 150027, Note_on_c, 0, 57, 101
2, 150032, Note_on_c, 0, 59, 100
2, 150120, Note_on_c, 0, 31, 0
2, 150120, Note_on_c, 0, 69, 0
2, 150126, Note_on_c, 0, 81, 105
2, 150130, Note_on_c, 0, 69, 102
2, 150141, Control_c, 0, 64, 0
2, 150159, Note_on_c, 0, 53, 0
2, 150163, Note_on_c, 0, 83, 0
2, 150163, Note_on_c, 0, 62, 0
2, 150164, Note_on_c, 0, 74, 0
2, 150164, Note_on_c, 0, 66, 0
2, 150164, Note_on_c, 0, 78, 0
2, 150165, Note_on_c, 0, 57, 0
2, 150165, Note_on_c, 0, 69, 0
2, 150166, Note_on_c, 0, 35, 0
2, 150166, Note_on_c, 0, 71, 0
2, 150167, Note_on_c, 0, 41, 0
2, 150169, Note_on_c, 0, 45, 0
2, 150170, Note_on_c, 0, 38, 0
2, 150170, Note_on_c, 0, 47, 0
2, 150171, Note_on_c, 0, 81, 0
2, 150182, Note_on_c, 0, 36, 0
2, 150190, Note_on_c, 0, 59, 0
2, 150278, Note_on_c, 0, 83, 112
2, 150279, Note_on_c, 0, 71, 108
2, 150316, Note_on_c, 0, 71, 0
2, 150324, Note_on_c, 0, 83, 0
2, 150452, Note_on_c, 0, 86, 114
2, 150461, Note_on_c, 0, 78, 112
2, 150461, Note_on_c, 0, 74, 115
2, 150470, Note_on_c, 0, 36, 96
2, 150472, Note_on_c, 0, 82, 87
2, 150512, Control_c, 0, 64, 127
2, 150520, Control_c, 0, 64, 0
2, 150604, Control_c, 0, 64, 127
2, 150620, Note_on_c, 0, 74, 0
2, 150620, Note_on_c, 0, 78, 0
2, 150624, Note_on_c, 0, 83, 106
2, 150626, Note_on_c, 0, 74, 103
2, 150626, Note_on_c, 0, 78, 101
2, 150689, Note_on_c, 0, 36, 0
2, 150693, Note_on_c, 0, 82, 0
2, 150695, Note_on_c, 0, 86, 0
2, 150696, Note_on_c, 0, 74, 0
2, 150697, Note_on_c, 0, 83, 0
2, 150697, Note_on_c, 0, 78, 0
2, 150702, Control_c, 0, 64, 0
2, 150782, Note_on_c, 0, 81, 110
2, 150785, Note_on_c, 0, 74, 103
2, 150786, Note_on_c, 0, 78, 97
2, 150823, Note_on_c, 0, 74, 0
2, 150947, Note_on_c, 0, 83, 105
2, 150950, Note_on_c, 0, 78, 0
2, 150952, Note_on_c, 0, 74, 98
2, 150955, Note_on_c, 0, 78, 87
2, 150996, Note_on_c, 0, 81, 0
2, 151027, Note_on_c, 0, 83, 0
2, 151034, Note_on_c, 0, 74, 0
2, 151034, Note_on_c, 0, 78, 0
2, 151037, Note_on_c, 0, 83, 108
2, 151039, Note_on_c, 0, 74, 103
2, 151045, Note_on_c, 0, 78, 100
2, 151121, Note_on_c, 0, 36, 100
2, 151121, Note_on_c, 0, 24, 99
2, 151296, Note_on_c, 0, 74, 0
2, 151300, Note_on_c, 0, 79, 101
2, 151302, Note_on_c, 0, 74, 96
2, 151326, Note_on_c, 0, 24, 0
2, 151329, Note_on_c, 0, 36, 0
2, 151330, Note_on_c, 0, 83, 0
2, 151342, Note_on_c, 0, 78, 0
2, 151403, Note_on_c, 0, 74, 0
2, 151449, Note_on_c, 0, 79, 0
2, 151468, Note_on_c, 0, 81, 108
2, 151469, Note_on_c, 0, 74, 103
2, 151491, Note_on_c, 0, 78, 70
2, 151516, Note_on_c, 0, 74, 0
2, 151633, Note_on_c, 0, 78, 0
2, 151638, Note_on_c, 0, 83, 103
2, 151639, Note_on_c, 0, 74, 98
2, 151641, Note_on_c, 0, 78, 78
2, 151764, Note_on_c, 0, 81, 0
2, 151802, Note_on_c, 0, 74, 0
2, 151802, Note_on_c, 0, 78, 0
2, 151803, Note_on_c, 0, 86, 108
2, 151807, Note_on_c, 0, 78, 108
2, 151807, Note_on_c, 0, 38, 100
2, 151807, Note_on_c, 0, 74, 108
2, 151809, Note_on_c, 0, 26, 94
2, 151825, Control_c, 0, 64, 127
2, 151964, Note_on_c, 0, 74, 0
2, 151964, Note_on_c, 0, 78, 0
2, 151964, Note_on_c, 0, 83, 0
2, 151972, Note_on_c, 0, 83, 102
2, 151973, Note_on_c, 0, 74, 101
2, 151974, Note_on_c, 0, 78, 92
2, 152075, Note_on_c, 0, 26, 0
2, 152077, Note_on_c, 0, 38, 0
2, 152078, Note_on_c, 0, 83, 0
2, 152079, Note_on_c, 0, 86, 0
2, 152087, Control_c, 0, 64, 0
2, 152102, Note_on_c, 0, 74, 0
2, 152102, Note_on_c, 0, 78, 0
2, 152140, Note_on_c, 0, 81, 105
2, 152144, Note_on_c, 0, 74, 101
2, 152150, Note_on_c, 0, 78, 81
2, 152183, Note_on_c, 0, 74, 0
2, 152190, Note_on_c, 0, 81, 0
2, 152217, Note_on_c, 0, 78, 0
2, 152302, Note_on_c, 0, 83, 102
2, 152304, Note_on_c, 0, 74, 100
2, 152305, Note_on_c, 0, 78, 96
2, 152333, Note_on_c, 0, 78, 0
2, 152335, Note_on_c, 0, 74, 0
2, 152378, Note_on_c, 0, 83, 0
2, 152384, Note_on_c, 0, 83, 105
2, 152389, Note_on_c, 0, 74, 106
2, 152389, Note_on_c, 0, 78, 101
2, 152440, Control_c, 0, 64, 127
2, 152482, Note_on_c, 0, 38, 105
2, 152484, Note_on_c, 0, 26, 104
2, 152663, Note_on_c, 0, 74, 0
2, 152666, Note_on_c, 0, 71, 106
2, 152666, Note_on_c, 0, 74, 103
2, 152698, Control_c, 0, 64, 0
2, 152706, Note_on_c, 0, 38, 0
2, 152708, Note_on_c, 0, 26, 0
2, 152711, Note_on_c, 0, 71, 0
2, 152714, Note_on_c, 0, 74, 0
2, 152724, Note_on_c, 0, 78, 0
2, 152724, Note_on_c, 0, 83, 0
2, 152832, Note_on_c, 0, 74, 104
2, 152833, Note_on_c, 0, 71, 104
2, 152874, Note_on_c, 0, 71, 0
2, 152881, Note_on_c, 0, 74, 0
2, 152989, Note_on_c, 0, 79, 103
2, 152991, Note_on_c, 0, 71, 92
2, 152996, Note_on_c, 0, 74, 88
2, 153020, Note_on_c, 0, 71, 0
2, 153024, Note_on_c, 0, 74, 0
2, 153054, Note_on_c, 0, 79, 0
2, 153081, Note_on_c, 0, 79, 102
2, 153083, Note_on_c, 0, 71, 93
2, 153083, Note_on_c, 0, 74, 97
2, 153131, Control_c, 0, 64, 127
2, 153163, Note_on_c, 0, 40, 100
2, 153164, Note_on_c, 0, 28, 101
2, 153338, Note_on_c, 0, 71, 0
2, 153338, Note_on_c, 0, 74, 0
2, 153342, Note_on_c, 0, 74, 107
2, 153343, Note_on_c, 0, 71, 102
2, 153427, Note_on_c, 0, 28, 0
2, 153434, Note_on_c, 0, 79, 0
2, 153434, Note_on_c, 0, 40, 0
2, 153435, Control_c, 0, 64, 0
2, 153441, Note_on_c, 0, 71, 0
2, 153443, Note_on_c, 0, 74, 0
2, 153506, Note_on_c, 0, 71, 99
2, 153507, Note_on_c, 0, 74, 99
2, 153552, Note_on_c, 0, 71, 0
2, 153564, Note_on_c, 0, 74, 0
2, 153673, Note_on_c, 0, 79, 102
2, 153674, Note_on_c, 0, 71, 96
2, 153678, Note_on_c, 0, 74, 89
2, 153710, Note_on_c, 0, 71, 0
2, 153714, Note_on_c, 0, 74, 0
2, 153776, Note_on_c, 0, 79, 0
2, 153846, Note_on_c, 0, 40, 99
2, 153848, Note_on_c, 0, 81, 110
2, 153848, Note_on_c, 0, 71, 102
2, 153849, Note_on_c, 0, 28, 98
2, 153849, Note_on_c, 0, 74, 98
2, 153861, Control_c, 0, 64, 127
2, 153999, Note_on_c, 0, 71, 0
2, 154003, Note_on_c, 0, 71, 97
2, 154003, Note_on_c, 0, 79, 100
2, 154094, Note_on_c, 0, 28, 0
2, 154096, Note_on_c, 0, 40, 0
2, 154097, Note_on_c, 0, 74, 0
2, 154099, Note_on_c, 0, 81, 0
2, 154099, Note_on_c, 0, 79, 0
2, 154102, Note_on_c, 0, 71, 0
2, 154117, Control_c, 0, 64, 0
2, 154174, Note_on_c, 0, 86, 113
2, 154177, Note_on_c, 0, 74, 112
2, 154178, Note_on_c, 0, 78, 106
2, 154222, Control_c, 0, 64, 127
2, 154368, Note_on_c, 0, 74, 0
2, 154371, Note_on_c, 0, 74, 98
2, 154421, Note_on_c, 0, 78, 0
2, 154431, Note_on_c, 0, 78, 106
2, 154442, Control_c, 0, 64, 0
2, 154455, Note_on_c, 0, 86, 0
2, 154483, Control_c, 0, 64, 127
2, 154513, Note_on_c, 0, 74, 0
2, 154513, Note_on_c, 0, 78, 0
2, 154518, Note_on_c, 0, 78, 102
2, 154522, Note_on_c, 0, 74, 107
2, 154522, Note_on_c, 0, 84, 104
2, 154524, Note_on_c, 0, 24, 90
2, 154524, Note_on_c, 0, 35, 94
2, 154529, Note_on_c, 0, 24, 0
2, 154686, Note_on_c, 0, 71, 92
2, 154752, Note_on_c, 0, 74, 0
2, 154758, Note_on_c, 0, 74, 100
2, 154759, Note_on_c, 0, 78, 0
2, 154766, Note_on_c, 0, 78, 60
2, 154844, Note_on_c, 0, 71, 0
2, 154844, Note_on_c, 0, 74, 0
2, 154851, Note_on_c, 0, 78, 0
2, 154853, Note_on_c, 0, 71, 105
2, 154853, Note_on_c, 0, 57, 110
2, 154854, Note_on_c, 0, 83, 108
2, 154854, Note_on_c, 0, 74, 106
2, 154856, Note_on_c, 0, 78, 99
2, 154856, Note_on_c, 0, 54, 101
2, 155040, Note_on_c, 0, 47, 88
2, 155112, Note_on_c, 0, 54, 0
2, 155112, Note_on_c, 0, 57, 0
2, 155112, Note_on_c, 0, 74, 0
2, 155112, Note_on_c, 0, 78, 0
2, 155115, Note_on_c, 0, 69, 108
2, 155116, Note_on_c, 0, 81, 106
2, 155119, Note_on_c, 0, 74, 98
2, 155121, Note_on_c, 0, 57, 102
2, 155122, Note_on_c, 0, 78, 103
2, 155123, Note_on_c, 0, 54, 87
2, 155136, Note_on_c, 0, 84, 0
2, 155203, Control_c, 0, 64, 0
2, 155223, Note_on_c, 0, 35, 0
2, 155224, Note_on_c, 0, 71, 0
2, 155224, Note_on_c, 0, 47, 0
2, 155225, Note_on_c, 0, 57, 0
2, 155225, Note_on_c, 0, 54, 0
2, 155225, Note_on_c, 0, 74, 0
2, 155225, Note_on_c, 0, 69, 0
2, 155243, Note_on_c, 0, 83, 0
2, 155266, Note_on_c, 0, 81, 0
2, 155276, Note_on_c, 0, 47, 92
2, 155381, Note_on_c, 0, 79, 108
2, 155383, Note_on_c, 0, 57, 110
2, 155385, Note_on_c, 0, 54, 104
2, 155385, Note_on_c, 0, 69, 101
2, 155385, Note_on_c, 0, 67, 103
2, 155458, Control_c, 0, 64, 127
2, 155568, Note_on_c, 0, 76, 98
2, 155595, Note_on_c, 0, 74, 95
2, 155632, Note_on_c, 0, 71, 99
2, 155665, Note_on_c, 0, 67, 0
2, 155672, Note_on_c, 0, 67, 96
2, 155733, Note_on_c, 0, 64, 98
2, 155776, Note_on_c, 0, 62, 92
2, 155815, Note_on_c, 0, 59, 103
2, 155861, Note_on_c, 0, 55, 94
2, 155892, Note_on_c, 0, 47, 0
2, 155896, Note_on_c, 0, 78, 0
2, 155899, Note_on_c, 0, 57, 0
2, 155900, Note_on_c, 0, 69, 0
2, 155900, Note_on_c, 0, 79, 0
2, 155900, Note_on_c, 0, 74, 0
2, 155902, Note_on_c, 0, 54, 0
2, 155902, Note_on_c, 0, 71, 0
2, 155903, Note_on_c, 0, 62, 0
2, 155904, Note_on_c, 0, 76, 0
2, 155905, Note_on_c, 0, 67, 0
2, 155905, Note_on_c, 0, 64, 0
2, 155905, Note_on_c, 0, 59, 0
2, 155906, Note_on_c, 0, 55, 0
2, 155908, Control_c, 0, 64, 0
2, 155924, Note_on_c, 0, 36, 101
2, 155927, Note_on_c, 0, 24, 99
2, 155996, Control_c, 0, 64, 127
2, 156092, Note_on_c, 0, 79, 107
2, 156095, Note_on_c, 0, 71, 98
2, 156098, Note_on_c, 0, 67, 98
2, 156149, Note_on_c, 0, 24, 0
2, 156165, Note_on_c, 0, 67, 0
2, 156165, Note_on_c, 0, 79, 0
2, 156172, Note_on_c, 0, 71, 0
2, 156175, Note_on_c, 0, 67, 99
2, 156176, Note_on_c, 0, 79, 105
2, 156176, Note_on_c, 0, 71, 98
2, 156187, Note_on_c, 0, 36, 0
2, 156198, Control_c, 0, 64, 0
2, 156234, Note_on_c, 0, 67, 0
2, 156241, Note_on_c, 0, 71, 0
2, 156241, Note_on_c, 0, 79, 0
2, 156252, Note_on_c, 0, 71, 104
2, 156252, Note_on_c, 0, 67, 97
2, 156252, Note_on_c, 0, 79, 99
2, 156311, Note_on_c, 0, 67, 0
2, 156326, Note_on_c, 0, 71, 0
2, 156341, Note_on_c, 0, 79, 0
2, 156422, Note_on_c, 0, 81, 110
2, 156422, Note_on_c, 0, 69, 109
2, 156465, Note_on_c, 0, 69, 0
2, 156470, Note_on_c, 0, 81, 0
2, 156587, Note_on_c, 0, 83, 111
2, 156590, Note_on_c, 0, 24, 107
2, 156591, Note_on_c, 0, 36, 98
2, 156591, Note_on_c, 0, 71, 109
2, 156758, Note_on_c, 0, 81, 109
2, 156759, Note_on_c, 0, 69, 112
2, 156825, Control_c, 0, 64, 127
2, 156894, Control_c, 0, 64, 0
2, 156927, Note_on_c, 0, 78, 100
2, 156933, Note_on_c, 0, 71, 0
2, 156940, Note_on_c, 0, 83, 0
2, 156959, Note_on_c, 0, 75, 99
2, 156979, Control_c, 0, 64, 127
2, 156989, Note_on_c, 0, 71, 98
2, 157025, Note_on_c, 0, 69, 0
2, 157030, Note_on_c, 0, 69, 99
2, 157093, Note_on_c, 0, 66, 97
2, 157132, Note_on_c, 0, 24, 0
2, 157133, Note_on_c, 0, 63, 93
2, 157176, Note_on_c, 0, 59, 89
2, 157230, Control_c, 0, 64, 0
2, 157232, Note_on_c, 0, 36, 0
2, 157234, Note_on_c, 0, 57, 96
2, 157236, Note_on_c, 0, 75, 0
2, 157236, Note_on_c, 0, 69, 0
2, 157237, Note_on_c, 0, 66, 0
2, 157237, Note_on_c, 0, 71, 0
2, 157238, Note_on_c, 0, 78, 0
2, 157238, Note_on_c, 0, 63, 0
2, 157242, Note_on_c, 0, 59, 0
2, 157255, Note_on_c, 0, 81, 0
2, 157281, Note_on_c, 0, 39, 102
2, 157281, Note_on_c, 0, 27, 103
2, 157324, Note_on_c, 0, 57, 0
2, 157347, Control_c, 0, 64, 127
2, 157442, Note_on_c, 0, 81, 108
2, 157443, Note_on_c, 0, 69, 108
2, 157516, Note_on_c, 0, 69, 0
2, 157516, Note_on_c, 0, 81, 0
2, 157520, Note_on_c, 0, 81, 100
2, 157522, Note_on_c, 0, 69, 108
2, 157583, Control_c, 0, 64, 0
2, 157593, Note_on_c, 0, 81, 0
2, 157601, Note_on_c, 0, 27, 0
2, 157601, Note_on_c, 0, 69, 0
2, 157605, Note_on_c, 0, 81, 105
2, 157605, Note_on_c, 0, 69, 106
2, 157625, Note_on_c, 0, 39, 0
2, 157670, Note_on_c, 0, 69, 0
2, 157765, Note_on_c, 0, 71, 110
2, 157766, Note_on_c, 0, 83, 108
2, 157804, Note_on_c, 0, 71, 0
2, 157808, Note_on_c, 0, 81, 0
2, 157820, Note_on_c, 0, 83, 0
2, 157937, Note_on_c, 0, 86, 110
2, 157939, Note_on_c, 0, 74, 111
2, 157939, Note_on_c, 0, 39, 101
2, 157941, Note_on_c, 0, 27, 108
2, 157969, Control_c, 0, 64, 127
2, 158109, Note_on_c, 0, 72, 113
2, 158110, Note_on_c, 0, 84, 108
2, 158126, Control_c, 0, 64, 0
2, 158144, Note_on_c, 0, 74, 0
2, 158162, Note_on_c, 0, 86, 0
2, 158165, Note_on_c, 0, 27, 0
2, 158167, Note_on_c, 0, 39, 0
2, 158207, Note_on_c, 0, 84, 0
2, 158209, Note_on_c, 0, 72, 0
2, 158272, Note_on_c, 0, 40, 103
2, 158273, Note_on_c, 0, 74, 112
2, 158273, Note_on_c, 0, 86, 111
2, 158273, Note_on_c, 0, 28, 100
2, 158274, Note_on_c, 0, 78, 108
2, 158315, Control_c, 0, 64, 127
2, 158438, Note_on_c, 0, 86, 0
2, 158446, Note_on_c, 0, 74, 0
2, 158446, Note_on_c, 0, 78, 0
2, 158449, Note_on_c, 0, 86, 101
2, 158450, Note_on_c, 0, 78, 91
2, 158452, Note_on_c, 0, 74, 99
2, 158530, Note_on_c, 0, 74, 0
2, 158530, Note_on_c, 0, 86, 0
2, 158538, Note_on_c, 0, 78, 0
2, 158541, Note_on_c, 0, 86, 102
2, 158541, Note_on_c, 0, 74, 103
2, 158543, Note_on_c, 0, 78, 98
2, 158548, Note_on_c, 0, 26, 89
2, 158549, Note_on_c, 0, 38, 105
2, 158615, Note_on_c, 0, 74, 0
2, 158615, Note_on_c, 0, 78, 0
2, 158615, Note_on_c, 0, 86, 0
2, 158620, Note_on_c, 0, 86, 104
2, 158625, Note_on_c, 0, 74, 101
2, 158625, Note_on_c, 0, 78, 102
2, 158714, Note_on_c, 0, 74, 0
2, 158714, Note_on_c, 0, 78, 0
2, 158714, Note_on_c, 0, 86, 0
2, 158719, Note_on_c, 0, 86, 100
2, 158719, Note_on_c, 0, 74, 94
2, 158721, Note_on_c, 0, 78, 95
2, 158791, Note_on_c, 0, 40, 0
2, 158791, Note_on_c, 0, 86, 0
2, 158797, Note_on_c, 0, 33, 87
2, 158799, Note_on_c, 0, 38, 0
2, 158799, Note_on_c, 0, 74, 0
2, 158799, Note_on_c, 0, 78, 0
2, 158801, Note_on_c, 0, 40, 96
2, 158802, Note_on_c, 0, 86, 109
2, 158803, Note_on_c, 0, 38, 100
2, 158804, Note_on_c, 0, 74, 106
2, 158805, Note_on_c, 0, 78, 101
2, 158810, Control_c, 0, 64, 0
2, 158860, Control_c, 0, 64, 127
2, 158876, Note_on_c, 0, 86, 0
2, 158883, Note_on_c, 0, 74, 0
2, 158883, Note_on_c, 0, 78, 0
2, 158887, Note_on_c, 0, 86, 98
2, 158889, Note_on_c, 0, 74, 93
2, 158890, Note_on_c, 0, 78, 87
2, 158968, Note_on_c, 0, 74, 0
2, 158968, Note_on_c, 0, 78, 0
2, 158968, Note_on_c, 0, 86, 0
2, 158973, Note_on_c, 0, 86, 102
2, 158974, Note_on_c, 0, 78, 98
2, 158974, Note_on_c, 0, 74, 93
2, 159052, Note_on_c, 0, 74, 0
2, 159052, Note_on_c, 0, 86, 0
2, 159060, Note_on_c, 0, 78, 0
2, 159060, Note_on_c, 0, 86, 106
2, 159062, Note_on_c, 0, 74, 107
2, 159064, Note_on_c, 0, 78, 107
2, 159091, Note_on_c, 0, 26, 0
2, 159091, Note_on_c, 0, 38, 0
2, 159096, Note_on_c, 0, 26, 88
2, 159096, Note_on_c, 0, 38, 103
2, 159144, Note_on_c, 0, 86, 0
2, 159152, Note_on_c, 0, 74, 0
2, 159152, Note_on_c, 0, 78, 0
2, 159156, Note_on_c, 0, 86, 101
2, 159157, Note_on_c, 0, 74, 104
2, 159158, Note_on_c, 0, 78, 100
2, 159218, Control_c, 0, 64, 0
2, 159221, Note_on_c, 0, 74, 0
2, 159221, Note_on_c, 0, 78, 0
2, 159221, Note_on_c, 0, 86, 0
2, 159226, Note_on_c, 0, 86, 97
2, 159227, Note_on_c, 0, 74, 92
2, 159227, Note_on_c, 0, 78, 88
2, 159244, Control_c, 0, 64, 127
2, 159306, Note_on_c, 0, 33, 0
2, 159306, Note_on_c, 0, 40, 0
2, 159310, Note_on_c, 0, 33, 89
2, 159316, Note_on_c, 0, 40, 97
2, 159340, Note_on_c, 0, 98, 104
2, 159348, Note_on_c, 0, 96, 103
2, 159363, Note_on_c, 0, 95, 92
2, 159371, Note_on_c, 0, 93, 92
2, 159390, Note_on_c, 0, 89, 98
2, 159398, Note_on_c, 0, 86, 0
2, 159404, Note_on_c, 0, 88, 89
2, 159409, Note_on_c, 0, 86, 91
2, 159423, Note_on_c, 0, 84, 92
2, 159436, Note_on_c, 0, 83, 92
2, 159436, Note_on_c, 0, 79, 99
2, 159439, Note_on_c, 0, 81, 100
2, 159455, Note_on_c, 0, 76, 94
2, 159460, Note_on_c, 0, 77, 87
2, 159470, Note_on_c, 0, 72, 90
2, 159488, Note_on_c, 0, 69, 94
2, 159490, Note_on_c, 0, 71, 84
2, 159518, Note_on_c, 0, 67, 78
2, 159526, Note_on_c, 0, 65, 77
2, 159526, Note_on_c, 0, 64, 69
2, 159531, Note_on_c, 0, 62, 73
2, 159650, Control_c, 0, 64, 0
2, 159651, Note_on_c, 0, 26, 0
2, 159656, Note_on_c, 0, 95, 0
2, 159656, Note_on_c, 0, 93, 0
2, 159656, Note_on_c, 0, 33, 0
2, 159656, Note_on_c, 0, 96, 0
2, 159656, Note_on_c, 0, 38, 0
2, 159657, Note_on_c, 0, 81, 0
2, 159657, Note_on_c, 0, 77, 0
2, 159657, Note_on_c, 0, 83, 0
2, 159657, Note_on_c, 0, 86, 0
2, 159657, Note_on_c, 0, 79, 0
2, 159657, Note_on_c, 0, 62, 0
2, 159658, Note_on_c, 0, 71, 0
2, 159658, Note_on_c, 0, 89, 0
2, 159658, Note_on_c, 0, 84, 0
2, 159658, Note_on_c, 0, 69, 0
2, 159658, Note_on_c, 0, 74, 0
2, 159658, Note_on_c, 0, 65, 0
2, 159659, Note_on_c, 0, 64, 0
2, 159659, Note_on_c, 0, 88, 0
2, 159660, Note_on_c, 0, 72, 0
2, 159660, Note_on_c, 0, 67, 0
2, 159660, Note_on_c, 0, 76, 0
2, 159667, Note_on_c, 0, 28, 0
2, 159667, Note_on_c, 0, 98, 0
2, 159671, Note_on_c, 0, 47, 109
2, 159674, Note_on_c, 0, 78, 0
2, 159675, Note_on_c, 0, 35, 96
2, 159690, Note_on_c, 0, 40, 0
2, 159751, Control_c, 0, 64, 127
2, 159948, Note_on_c, 0, 45, 106
2, 159949, Note_on_c, 0, 33, 100
2, 159991, Control_c, 0, 64, 0
2, 160012, Control_c, 0, 64, 127
2, 160025, Note_on_c, 0, 74, 115
2, 160026, Note_on_c, 0, 62, 105
2, 160031, Note_on_c, 0, 69, 92
2, 160031, Note_on_c, 0, 66, 104
2, 160186, Control_c, 0, 64, 0
2, 160189, Note_on_c, 0, 35, 0
2, 160189, Note_on_c, 0, 47, 0
2, 160194, Note_on_c, 0, 45, 0
2, 160197, Note_on_c, 0, 47, 104
2, 160199, Note_on_c, 0, 35, 95
2, 160220, Control_c, 0, 64, 127
2, 160227, Note_on_c, 0, 33, 0
2, 160312, Note_on_c, 0, 47, 0
2, 160323, Note_on_c, 0, 47, 58
2, 160389, Note_on_c, 0, 62, 0
2, 160389, Note_on_c, 0, 66, 0
2, 160389, Note_on_c, 0, 74, 0
2, 160393, Note_on_c, 0, 74, 114
2, 160393, Note_on_c, 0, 62, 94
2, 160393, Note_on_c, 0, 59, 103
2, 160396, Note_on_c, 0, 69, 0
2, 160398, Note_on_c, 0, 66, 97
2, 160400, Note_on_c, 0, 71, 94
2, 160401, Note_on_c, 0, 69, 88
2, 160441, Note_on_c, 0, 57, 59
2, 160495, Note_on_c, 0, 54, 100
2, 160565, Note_on_c, 0, 47, 0
2, 160575, Note_on_c, 0, 47, 92
2, 160652, Note_on_c, 0, 42, 88
2, 160727, Note_on_c, 0, 71, 0
2, 160734, Note_on_c, 0, 35, 0
2, 160734, Note_on_c, 0, 74, 0
2, 160738, Note_on_c, 0, 71, 109
2, 160738, Note_on_c, 0, 83, 109
2, 160740, Note_on_c, 0, 35, 88
2, 160741, Note_on_c, 0, 74, 107
2, 160745, Note_on_c, 0, 78, 92
2, 160819, Note_on_c, 0, 42, 0
2, 160828, Note_on_c, 0, 42, 97
2, 160911, Note_on_c, 0, 47, 0
2, 160920, Note_on_c, 0, 47, 102
2, 161041, Note_on_c, 0, 69, 0
2, 161052, Note_on_c, 0, 69, 98
2, 161072, Note_on_c, 0, 74, 0
2, 161072, Note_on_c, 0, 78, 0
2, 161083, Note_on_c, 0, 74, 105
2, 161083, Note_on_c, 0, 78, 107
2, 161084, Note_on_c, 0, 81, 107
2, 161092, Control_c, 0, 64, 0
2, 161092, Note_on_c, 0, 71, 0
2, 161093, Note_on_c, 0, 83, 0
2, 161093, Note_on_c, 0, 42, 0
2, 161093, Note_on_c, 0, 57, 0
2, 161093, Note_on_c, 0, 47, 0
2, 161093, Note_on_c, 0, 59, 0
2, 161093, Note_on_c, 0, 66, 0
2, 161094, Note_on_c, 0, 62, 0
2, 161094, Note_on_c, 0, 54, 0
2, 161094, Note_on_c, 0, 35, 0
2, 161218, Note_on_c, 0, 69, 0
2, 161233, Note_on_c, 0, 74, 0
2, 161247, Note_on_c, 0, 83, 109
2, 161252, Note_on_c, 0, 71, 103
2, 161280, Note_on_c, 0, 78, 0
2, 161341, Note_on_c, 0, 71, 0
2, 161349, Note_on_c, 0, 81, 0
2, 161364, Note_on_c, 0, 83, 0
2, 161423, Note_on_c, 0, 86, 114
2, 161424, Note_on_c, 0, 74, 115
2, 161426, Note_on_c, 0, 36, 98
2, 161426, Note_on_c, 0, 78, 108
2, 161433, Control_c, 0, 64, 127
2, 161587, Note_on_c, 0, 74, 0
2, 161587, Note_on_c, 0, 78, 0
2, 161593, Note_on_c, 0, 83, 108
2, 161595, Note_on_c, 0, 74, 106
2, 161597, Note_on_c, 0, 78, 100
2, 161748, Note_on_c, 0, 74, 0
2, 161748, Note_on_c, 0, 78, 0
2, 161752, Note_on_c, 0, 59, 106
2, 161752, Note_on_c, 0, 81, 107
2, 161753, Note_on_c, 0, 55, 95
2, 161753, Note_on_c, 0, 78, 101
2, 161754, Note_on_c, 0, 52, 94
2, 161758, Note_on_c, 0, 74, 106
2, 161925, Note_on_c, 0, 83, 0
2, 161932, Note_on_c, 0, 55, 0
2, 161932, Note_on_c, 0, 74, 0
2, 161932, Note_on_c, 0, 78, 0
2, 161933, Note_on_c, 0, 60, 83
2, 161935, Note_on_c, 0, 83, 95
2, 161936, Note_on_c, 0, 48, 94
2, 161936, Note_on_c, 0, 78, 84
2, 161937, Note_on_c, 0, 79, 84
2, 161937, Note_on_c, 0, 55, 79
2, 161937, Note_on_c, 0, 74, 98
2, 161940, Note_on_c, 0, 60, 0
2, 162001, Note_on_c, 0, 59, 0
2, 162001, Note_on_c, 0, 74, 0
2, 162001, Note_on_c, 0, 83, 0
2, 162007, Note_on_c, 0, 83, 106
2, 162009, Note_on_c, 0, 48, 0
2, 162009, Note_on_c, 0, 78, 0
2, 162010, Note_on_c, 0, 59, 105
2, 162012, Note_on_c, 0, 74, 110
2, 162014, Control_c, 0, 64, 0
2, 162014, Note_on_c, 0, 78, 105
2, 162016, Note_on_c, 0, 48, 91
2, 162055, Control_c, 0, 64, 127
2, 162163, Note_on_c, 0, 36, 0
2, 162168, Note_on_c, 0, 36, 88
2, 162263, Note_on_c, 0, 48, 0
2, 162267, Note_on_c, 0, 48, 92
2, 162286, Note_on_c, 0, 79, 0
2, 162293, Note_on_c, 0, 79, 108
2, 162351, Control_c, 0, 64, 0
2, 162362, Note_on_c, 0, 36, 0
2, 162362, Note_on_c, 0, 78, 0
2, 162362, Note_on_c, 0, 83, 0
2, 162363, Note_on_c, 0, 81, 0
2, 162363, Note_on_c, 0, 48, 0
2, 162365, Note_on_c, 0, 52, 0
2, 162365, Note_on_c, 0, 79, 0
2, 162370, Note_on_c, 0, 86, 0
2, 162378, Note_on_c, 0, 59, 0
2, 162378, Note_on_c, 0, 74, 0
2, 162385, Note_on_c, 0, 55, 0
2, 162450, Note_on_c, 0, 38, 101
2, 162451, Note_on_c, 0, 26, 98
2, 162457, Note_on_c, 0, 81, 109
2, 162461, Note_on_c, 0, 74, 105
2, 162462, Note_on_c, 0, 78, 105
2, 162485, Control_c, 0, 64, 127
2, 162628, Note_on_c, 0, 83, 102
2, 162782, Note_on_c, 0, 62, 102
2, 162785, Note_on_c, 0, 74, 0
2, 162785, Note_on_c, 0, 78, 0
2, 162786, Note_on_c, 0, 86, 107
2, 162788, Note_on_c, 0, 54, 101
2, 162788, Note_on_c, 0, 57, 97
2, 162789, Note_on_c, 0, 78, 107
2, 162790, Note_on_c, 0, 50, 85
2, 162791, Note_on_c, 0, 74, 107
2, 162946, Note_on_c, 0, 38, 0
2, 162950, Note_on_c, 0, 38, 94
2, 162954, Note_on_c, 0, 83, 0
2, 162965, Note_on_c, 0, 83, 100
2, 162969, Note_on_c, 0, 74, 0
2, 162969, Note_on_c, 0, 78, 0
2, 162979, Note_on_c, 0, 74, 97
2, 162979, Note_on_c, 0, 78, 92
2, 163023, Note_on_c, 0, 54, 0
2, 163031, Note_on_c, 0, 50, 0
2, 163033, Note_on_c, 0, 54, 75
2, 163036, Note_on_c, 0, 50, 90
2, 163115, Note_on_c, 0, 74, 0
2, 163115, Note_on_c, 0, 81, 0
2, 163124, Note_on_c, 0, 81, 105
2, 163126, Note_on_c, 0, 74, 101
2, 163200, Note_on_c, 0, 38, 0
2, 163206, Note_on_c, 0, 38, 90
2, 163284, Note_on_c, 0, 74, 0
2, 163284, Note_on_c, 0, 83, 0
2, 163288, Note_on_c, 0, 83, 103
2, 163289, Note_on_c, 0, 74, 105
2, 163307, Note_on_c, 0, 50, 0
2, 163317, Note_on_c, 0, 50, 80
2, 163373, Note_on_c, 0, 79, 107
2, 163461, Note_on_c, 0, 54, 0
2, 163461, Note_on_c, 0, 57, 0
2, 163461, Note_on_c, 0, 62, 0
2, 163465, Note_on_c, 0, 62, 98
2, 163465, Note_on_c, 0, 54, 103
2, 163465, Note_on_c, 0, 57, 100
2, 163614, Note_on_c, 0, 50, 0
2, 163618, Note_on_c, 0, 50, 84
2, 163622, Note_on_c, 0, 79, 0
2, 163627, Note_on_c, 0, 79, 109
2, 163726, Note_on_c, 0, 86, 0
2, 163726, Note_on_c, 0, 83, 0
2, 163727, Note_on_c, 0, 38, 0
2, 163727, Note_on_c, 0, 79, 0
2, 163727, Note_on_c, 0, 62, 0
2, 163727, Note_on_c, 0, 81, 0
2, 163727, Note_on_c, 0, 57, 0
2, 163727, Note_on_c, 0, 50, 0
2, 163727, Note_on_c, 0, 74, 0
2, 163728, Note_on_c, 0, 54, 0
2, 163728, Note_on_c, 0, 78, 0
2, 163728, Control_c, 0, 64, 0
2, 163737, Note_on_c, 0, 26, 0
2, 163801, Note_on_c, 0, 79, 109
2, 163802, Note_on_c, 0, 67, 107
2, 163803, Note_on_c, 0, 39, 98
2, 163803, Note_on_c, 0, 71, 98
2, 163805, Note_on_c, 0, 27, 97
2, 163805, Note_on_c, 0, 75, 95
2, 163875, Control_c, 0, 64, 127
2, 164070, Note_on_c, 0, 81, 111
2, 164071, Note_on_c, 0, 69, 109
2, 164157, Note_on_c, 0, 63, 101
2, 164158, Note_on_c, 0, 59, 97
2, 164164, Note_on_c, 0, 54, 85
2, 164313, Note_on_c, 0, 71, 0
2, 164317, Note_on_c, 0, 71, 110
2, 164321, Note_on_c, 0, 39, 0
2, 164323, Note_on_c, 0, 83, 110
2, 164327, Note_on_c, 0, 39, 91
2, 164474, Note_on_c, 0, 67, 0
2, 164484, Note_on_c, 0, 67, 96
2, 164497, Note_on_c, 0, 59, 0
2, 164505, Note_on_c, 0, 59, 80
2, 164505, Note_on_c, 0, 51, 84
2, 164551, Note_on_c, 0, 71, 0
2, 164557, Note_on_c, 0, 71, 94
2, 164582, Note_on_c, 0, 63, 0
2, 164582, Note_on_c, 0, 75, 0
2, 164591, Note_on_c, 0, 63, 86
2, 164592, Note_on_c, 0, 75, 88
2, 164659, Note_on_c, 0, 79, 0
2, 164670, Note_on_c, 0, 79, 103
2, 164712, Note_on_c, 0, 83, 0
2, 164723, Note_on_c, 0, 83, 102
2, 164770, Note_on_c, 0, 87, 109
2, 164828, Note_on_c, 0, 54, 0
2, 164828, Note_on_c, 0, 59, 0
2, 164828, Note_on_c, 0, 63, 0
2, 164828, Note_on_c, 0, 79, 0
2, 164832, Note_on_c, 0, 59, 100
2, 164832, Note_on_c, 0, 63, 106
2, 164833, Note_on_c, 0, 91, 114
2, 164837, Note_on_c, 0, 54, 99
2, 164838, Note_on_c, 0, 79, 104
2, 164966, Note_on_c, 0, 51, 0
2, 164976, Note_on_c, 0, 51, 75
2, 165008, Note_on_c, 0, 78, 116
2, 165008, Note_on_c, 0, 90, 114
2, 165141, Note_on_c, 0, 63, 0
2, 165142, Note_on_c, 0, 51, 0
2, 165143, Note_on_c, 0, 79, 0
2, 165144, Note_on_c, 0, 91, 0
2, 165145, Note_on_c, 0, 90, 0
2, 165145, Note_on_c, 0, 87, 0
2, 165145, Note_on_c, 0, 78, 0
2, 165146, Control_c, 0, 64, 0
2, 165166, Note_on_c, 0, 27, 0
2, 165166, Note_on_c, 0, 39, 0
2, 165166, Note_on_c, 0, 59, 0
2, 165173, Note_on_c, 0, 67, 0
2, 165173, Note_on_c, 0, 69, 0
2, 165173, Note_on_c, 0, 75, 0
2, 165177, Note_on_c, 0, 86, 103
2, 165179, Note_on_c, 0, 28, 90
2, 165180, Note_on_c, 0, 40, 97
2, 165181, Note_on_c, 0, 54, 0
2, 165181, Note_on_c, 0, 71, 0
2, 165204, Control_c, 0, 64, 127
2, 165212, Note_on_c, 0, 81, 0
2, 165216, Note_on_c, 0, 81, 92
2, 165265, Note_on_c, 0, 78, 94
2, 165345, Note_on_c, 0, 74, 99
2, 165400, Note_on_c, 0, 69, 96
2, 165511, Note_on_c, 0, 74, 0
2, 165511, Note_on_c, 0, 86, 0
2, 165516, Note_on_c, 0, 74, 114
2, 165517, Note_on_c, 0, 66, 104
2, 165517, Note_on_c, 0, 86, 111
2, 165553, Note_on_c, 0, 62, 57
2, 165636, Note_on_c, 0, 57, 96
2, 165749, Note_on_c, 0, 52, 83
2, 165753, Note_on_c, 0, 45, 74
2, 165757, Note_on_c, 0, 45, 0
2, 165872, Note_on_c, 0, 62, 0
2, 165872, Note_on_c, 0, 83, 0
2, 165878, Note_on_c, 0, 83, 110
2, 165878, Note_on_c, 0, 59, 104
2, 165879, Note_on_c, 0, 62, 98
2, 165879, Note_on_c, 0, 55, 102
2, 165880, Note_on_c, 0, 71, 109
2, 165880, Note_on_c, 0, 74, 0
2, 165880, Note_on_c, 0, 78, 0
2, 165884, Note_on_c, 0, 74, 107
2, 165884, Note_on_c, 0, 78, 100
2, 165888, Control_c, 0, 64, 0
2, 165897, Note_on_c, 0, 28, 0
2, 165898, Note_on_c, 0, 57, 0
2, 165898, Note_on_c, 0, 86, 0
2, 165898, Note_on_c, 0, 66, 0
2, 165898, Note_on_c, 0, 40, 0
2, 165899, Note_on_c, 0, 69, 0
2, 165911, Control_c, 0, 64, 127
2, 166053, Note_on_c, 0, 40, 94
2, 166141, Note_on_c, 0, 74, 0
2, 166141, Note_on_c, 0, 78, 0
2, 166141, Note_on_c, 0, 81, 0
2, 166144, Note_on_c, 0, 69, 107
2, 166145, Note_on_c, 0, 81, 107
2, 166149, Note_on_c, 0, 78, 101
2, 166149, Note_on_c, 0, 52, 0
2, 166152, Note_on_c, 0, 74, 97
2, 166153, Note_on_c, 0, 52, 94
2, 166292, Control_c, 0, 64, 0
2, 166292, Note_on_c, 0, 59, 0
2, 166292, Note_on_c, 0, 52, 0
2, 166293, Note_on_c, 0, 81, 0
2, 166293, Note_on_c, 0, 83, 0
2, 166293, Note_on_c, 0, 71, 0
2, 166294, Note_on_c, 0, 55, 0
2, 166294, Note_on_c, 0, 69, 0
2, 166296, Note_on_c, 0, 78, 0
2, 166302, Note_on_c, 0, 62, 0
2, 166310, Note_on_c, 0, 74, 0
2, 166318, Note_on_c, 0, 28, 85
2, 166371, Control_c, 0, 64, 127
2, 166394, Note_on_c, 0, 40, 0
2, 166404, Note_on_c, 0, 40, 100
2, 166429, Note_on_c, 0, 79, 111
2, 166430, Note_on_c, 0, 67, 106
2, 166553, Note_on_c, 0, 28, 0
2, 166556, Control_c, 0, 64, 0
2, 166556, Note_on_c, 0, 40, 0
2, 166559, Note_on_c, 0, 67, 0
2, 166589, Note_on_c, 0, 36, 104
2, 166589, Note_on_c, 0, 24, 93
2, 166602, Note_on_c, 0, 76, 105
2, 166632, Control_c, 0, 64, 127
2, 166676, Note_on_c, 0, 74, 104
2, 166761, Note_on_c, 0, 71, 98
2, 166849, Note_on_c, 0, 67, 99
2, 166929, Note_on_c, 0, 59, 110
2, 166933, Note_on_c, 0, 55, 94
2, 166936, Note_on_c, 0, 52, 91
2, 167086, Note_on_c, 0, 36, 0
2, 167095, Note_on_c, 0, 36, 88
2, 167097, Note_on_c, 0, 40, 72
2, 167101, Note_on_c, 0, 40, 0
2, 167101, Note_on_c, 0, 79, 0
2, 167109, Note_on_c, 0, 67, 0
2, 167110, Note_on_c, 0, 79, 104
2, 167113, Note_on_c, 0, 67, 95
2, 167187, Note_on_c, 0, 48, 96
2, 167278, Note_on_c, 0, 52, 0
2, 167278, Note_on_c, 0, 67, 0
2, 167278, Note_on_c, 0, 79, 0
2, 167282, Note_on_c, 0, 67, 98
2, 167282, Note_on_c, 0, 79, 105
2, 167283, Note_on_c, 0, 52, 85
2, 167437, Note_on_c, 0, 59, 0
2, 167438, Note_on_c, 0, 76, 0
2, 167439, Note_on_c, 0, 24, 0
2, 167439, Note_on_c, 0, 48, 0
2, 167443, Control_c, 0, 64, 0
2, 167447, Note_on_c, 0, 52, 0
2, 167449, Note_on_c, 0, 81, 111
2, 167449, Note_on_c, 0, 48, 82
2, 167450, Note_on_c, 0, 69, 110
2, 167451, Note_on_c, 0, 52, 73
2, 167462, Control_c, 0, 64, 127
2, 167592, Note_on_c, 0, 55, 0
2, 167598, Note_on_c, 0, 59, 108
2, 167600, Note_on_c, 0, 52, 0
2, 167603, Note_on_c, 0, 55, 90
2, 167610, Note_on_c, 0, 52, 94
2, 167616, Note_on_c, 0, 48, 0
2, 167616, Note_on_c, 0, 71, 0
2, 167621, Note_on_c, 0, 83, 106
2, 167622, Note_on_c, 0, 71, 107
2, 167622, Note_on_c, 0, 48, 73
2, 167639, Note_on_c, 0, 74, 0
2, 167777, Note_on_c, 0, 69, 0
2, 167777, Note_on_c, 0, 81, 0
2, 167783, Note_on_c, 0, 81, 110
2, 167785, Note_on_c, 0, 69, 107
2, 167788, Note_on_c, 0, 78, 105
2, 167789, Control_c, 0, 64, 0
2, 167790, Note_on_c, 0, 74, 101
2, 167792, Note_on_c, 0, 67, 0
2, 167792, Note_on_c, 0, 71, 0
2, 167794, Note_on_c, 0, 83, 0
2, 167795, Note_on_c, 0, 52, 0
2, 167800, Note_on_c, 0, 48, 0
2, 167808, Note_on_c, 0, 59, 0
2, 167808, Control_c, 0, 64, 127
2, 167810, Note_on_c, 0, 48, 60
2, 167815, Note_on_c, 0, 36, 0
2, 167815, Note_on_c, 0, 55, 0
2, 167823, Note_on_c, 0, 79, 0
2, 167907, Note_on_c, 0, 48, 0
2, 167925, Control_c, 0, 64, 0
2, 167949, Note_on_c, 0, 45, 100
2, 167949, Note_on_c, 0, 50, 107
2, 167950, Note_on_c, 0, 38, 104
2, 167969, Control_c, 0, 64, 127
2, 168176, Note_on_c, 0, 38, 0
2, 168186, Note_on_c, 0, 38, 82
2, 168291, Note_on_c, 0, 38, 0
2, 168301, Note_on_c, 0, 38, 95
2, 168468, Note_on_c, 0, 45, 0
2, 168468, Note_on_c, 0, 50, 0
2, 168475, Note_on_c, 0, 62, 101
2, 168476, Note_on_c, 0, 69, 0
2, 168476, Note_on_c, 0, 74, 0
2, 168476, Note_on_c, 0, 78, 0
2, 168476, Note_on_c, 0, 81, 0
2, 168477, Note_on_c, 0, 45, 98
2, 168479, Note_on_c, 0, 50, 102
2, 168480, Note_on_c, 0, 81, 109
2, 168480, Note_on_c, 0, 69, 109
2, 168485, Note_on_c, 0, 74, 107
2, 168487, Note_on_c, 0, 78, 107
2, 168637, Note_on_c, 0, 38, 0
2, 168645, Note_on_c, 0, 69, 0
2, 168645, Note_on_c, 0, 74, 0
2, 168645, Note_on_c, 0, 81, 0
2, 168645, Note_on_c, 0, 38, 87
2, 168649, Note_on_c, 0, 81, 108
2, 168649, Control_c, 0, 64, 0
2, 168651, Note_on_c, 0, 69, 105
2, 168654, Note_on_c, 0, 74, 99
2, 168683, Control_c, 0, 64, 127
2, 168821, Note_on_c, 0, 38, 0
2, 168829, Note_on_c, 0, 38, 93
2, 168990, Note_on_c, 0, 45, 0
2, 168990, Note_on_c, 0, 50, 0
2, 168990, Note_on_c, 0, 74, 0
2, 168990, Note_on_c, 0, 78, 0
2, 168996, Note_on_c, 0, 71, 108
2, 168999, Note_on_c, 0, 78, 112
2, 168999, Control_c, 0, 64, 0
2, 168999, Note_on_c, 0, 83, 107
2, 169000, Note_on_c, 0, 50, 100
2, 169001, Note_on_c, 0, 45, 96
2, 169002, Note_on_c, 0, 74, 100
2, 169029, Control_c, 0, 64, 127
2, 169339, Note_on_c, 0, 45, 0
2, 169340, Note_on_c, 0, 74, 0
2, 169340, Note_on_c, 0, 83, 0
2, 169340, Note_on_c, 0, 62, 0
2, 169340, Note_on_c, 0, 71, 0
2, 169340, Note_on_c, 0, 50, 0
2, 169341, Note_on_c, 0, 78, 0
2, 169347, Control_c, 0, 64, 0
2, 169351, Note_on_c, 0, 69, 0
2, 169351, Note_on_c, 0, 81, 0
2, 169354, Note_on_c, 0, 86, 115
2, 169356, Note_on_c, 0, 98, 116
2, 169358, Note_on_c, 0, 24, 97
2, 169358, Note_on_c, 0, 36, 107
2, 169436, Note_on_c, 0, 24, 0
2, 169466, Control_c, 0, 64, 127
2, 169532, Note_on_c, 0, 100, 119
2, 169533, Note_on_c, 0, 88, 115
2, 169694, Note_on_c, 0, 59, 109
2, 169698, Note_on_c, 0, 52, 99
2, 169699, Note_on_c, 0, 55, 97
2, 169858, Note_on_c, 0, 36, 0
2, 169867, Note_on_c, 0, 36, 94
2, 169868, Note_on_c, 0, 62, 103
2, 169943, Note_on_c, 0, 64, 105
2, 169967, Note_on_c, 0, 48, 85
2, 170042, Note_on_c, 0, 67, 99
2, 170117, Note_on_c, 0, 69, 103
2, 170135, Note_on_c, 0, 36, 0
2, 170139, Note_on_c, 0, 36, 83
2, 170188, Note_on_c, 0, 48, 0
2, 170194, Note_on_c, 0, 71, 102
2, 170199, Note_on_c, 0, 48, 87
2, 170259, Note_on_c, 0, 74, 108
2, 170359, Note_on_c, 0, 76, 107
2, 170380, Note_on_c, 0, 52, 0
2, 170380, Note_on_c, 0, 55, 0
2, 170380, Note_on_c, 0, 59, 0
2, 170388, Note_on_c, 0, 59, 103
2, 170389, Note_on_c, 0, 55, 97
2, 170390, Note_on_c, 0, 52, 94
2, 170446, Note_on_c, 0, 79, 100
2, 170526, Note_on_c, 0, 48, 0
2, 170535, Note_on_c, 0, 81, 100
2, 170537, Note_on_c, 0, 48, 87
2, 170538, Note_on_c, 0, 60, 85
2, 170600, Note_on_c, 0, 83, 103
2, 170672, Note_on_c, 0, 38, 0
2, 170677, Control_c, 0, 64, 0
2, 170679, Note_on_c, 0, 36, 0
2, 170679, Note_on_c, 0, 74, 0
2, 170679, Note_on_c, 0, 62, 0
2, 170679, Note_on_c, 0, 69, 0
2, 170679, Note_on_c, 0, 59, 0
2, 170679, Note_on_c, 0, 60, 0
2, 170679, Note_on_c, 0, 67, 0
2, 170680, Note_on_c, 0, 81, 0
2, 170680, Note_on_c, 0, 76, 0
2, 170680, Note_on_c, 0, 98, 0
2, 170680, Note_on_c, 0, 71, 0
2, 170681, Note_on_c, 0, 52, 0
2, 170681, Note_on_c, 0, 79, 0
2, 170681, Note_on_c, 0, 55, 0
2, 170682, Note_on_c, 0, 88, 0
2, 170682, Note_on_c, 0, 83, 0
2, 170688, Note_on_c, 0, 86, 0
2, 170688, Note_on_c, 0, 100, 0
2, 170695, Note_on_c, 0, 64, 0
2, 170703, Note_on_c, 0, 48, 0
2, 170722, Note_on_c, 0, 86, 112
2, 170722, Note_on_c, 0, 98, 115
2, 170729, Note_on_c, 0, 26, 99
2, 170729, Note_on_c, 0, 38, 105
2, 170764, Control_c, 0, 64, 127
2, 170904, Note_on_c, 0, 62, 97
2, 170908, Note_on_c, 0, 55, 73
2, 170984, Note_on_c, 0, 50, 84
2, 170988, Note_on_c, 0, 66, 102
2, 171056, Note_on_c, 0, 50, 0
2, 171058, Note_on_c, 0, 57, 106
2, 171066, Note_on_c, 0, 54, 99
2, 171067, Note_on_c, 0, 50, 92
2, 171074, Note_on_c, 0, 69, 101
2, 171165, Note_on_c, 0, 71, 96
2, 171240, Note_on_c, 0, 50, 0
2, 171246, Note_on_c, 0, 50, 89
2, 171252, Note_on_c, 0, 74, 105
2, 171256, Note_on_c, 0, 48, 74
2, 171331, Note_on_c, 0, 78, 103
2, 171340, Note_on_c, 0, 50, 0
2, 171347, Note_on_c, 0, 50, 87
2, 171402, Note_on_c, 0, 86, 0
2, 171413, Note_on_c, 0, 86, 110
2, 171494, Note_on_c, 0, 83, 103
2, 171517, Note_on_c, 0, 38, 0
2, 171528, Note_on_c, 0, 38, 73
2, 171581, Note_on_c, 0, 81, 106
2, 171663, Note_on_c, 0, 50, 0
2, 171663, Note_on_c, 0, 78, 0
2, 171668, Note_on_c, 0, 78, 108
2, 171668, Note_on_c, 0, 50, 56
2, 171747, Note_on_c, 0, 74, 0
2, 171755, Note_on_c, 0, 57, 0
2, 171756, Note_on_c, 0, 74, 103
2, 171763, Note_on_c, 0, 54, 0
2, 171766, Note_on_c, 0, 57, 108
2, 171767, Note_on_c, 0, 54, 101
2, 171840, Note_on_c, 0, 83, 0
2, 171844, Note_on_c, 0, 95, 111
2, 171847, Note_on_c, 0, 83, 105
2, 171893, Note_on_c, 0, 50, 0
2, 171902, Note_on_c, 0, 50, 80
2, 171924, Note_on_c, 0, 81, 0
2, 171928, Note_on_c, 0, 93, 107
2, 171929, Note_on_c, 0, 81, 106
2, 172018, Note_on_c, 0, 79, 107
2, 172018, Note_on_c, 0, 91, 110
2, 172066, Control_c, 0, 64, 0
2, 172066, Note_on_c, 0, 48, 0
2, 172067, Note_on_c, 0, 71, 0
2, 172067, Note_on_c, 0, 54, 0
2, 172067, Note_on_c, 0, 66, 0
2, 172067, Note_on_c, 0, 74, 0
2, 172067, Note_on_c, 0, 62, 0
2, 172067, Note_on_c, 0, 57, 0
2, 172067, Note_on_c, 0, 86, 0
2, 172067, Note_on_c, 0, 69, 0
2, 172068, Note_on_c, 0, 95, 0
2, 172068, Note_on_c, 0, 83, 0
2, 172069, Note_on_c, 0, 78, 0
2, 172073, Note_on_c, 0, 79, 0
2, 172078, Note_on_c, 0, 55, 0
2, 172078, Note_on_c, 0, 98, 0
2, 172085, Note_on_c, 0, 26, 0
2, 172093, Note_on_c, 0, 38, 0
2, 172093, Note_on_c, 0, 50, 0
2, 172101, Note_on_c, 0, 81, 0
2, 172101, Note_on_c, 0, 93, 0
2, 172105, Note_on_c, 0, 93, 115
2, 172108, Note_on_c, 0, 81, 112
2, 172111, Note_on_c, 0, 40, 98
2, 172111, Note_on_c, 0, 28, 101
2, 172162, Control_c, 0, 64, 127
2, 172369, Note_on_c, 0, 76, 112
2, 172369, Note_on_c, 0, 88, 111
2, 172458, Note_on_c, 0, 59, 106
2, 172465, Note_on_c, 0, 55, 100
2, 172466, Note_on_c, 0, 52, 93
2, 172623, Note_on_c, 0, 40, 0
2, 172633, Note_on_c, 0, 40, 92
2, 172635, Note_on_c, 0, 62, 101
2, 172684, Note_on_c, 0, 91, 0
2, 172722, Note_on_c, 0, 64, 107
2, 172816, Note_on_c, 0, 67, 97
2, 172905, Note_on_c, 0, 69, 98
2, 172938, Note_on_c, 0, 40, 0
2, 172943, Note_on_c, 0, 40, 81
2, 172968, Note_on_c, 0, 52, 0
2, 172977, Note_on_c, 0, 52, 81
2, 172980, Note_on_c, 0, 71, 95
2, 173068, Note_on_c, 0, 74, 108
2, 173145, Note_on_c, 0, 55, 0
2, 173145, Note_on_c, 0, 59, 0
2, 173145, Note_on_c, 0, 76, 0
2, 173149, Note_on_c, 0, 59, 106
2, 173152, Note_on_c, 0, 55, 97
2, 173156, Note_on_c, 0, 76, 101
2, 173251, Note_on_c, 0, 79, 102
2, 173276, Note_on_c, 0, 55, 0
2, 173283, Note_on_c, 0, 52, 0
2, 173286, Note_on_c, 0, 55, 83
2, 173289, Note_on_c, 0, 52, 81
2, 173322, Note_on_c, 0, 81, 0
2, 173326, Note_on_c, 0, 81, 105
2, 173417, Note_on_c, 0, 83, 99
2, 173468, Note_on_c, 0, 28, 0
2, 173469, Note_on_c, 0, 74, 0
2, 173469, Note_on_c, 0, 52, 0
2, 173470, Note_on_c, 0, 62, 0
2, 173470, Note_on_c, 0, 88, 0
2, 173470, Control_c, 0, 64, 0
2, 173470, Note_on_c, 0, 69, 0
2, 173470, Note_on_c, 0, 64, 0
2, 173470, Note_on_c, 0, 59, 0
2, 173471, Note_on_c, 0, 76, 0
2, 173471, Note_on_c, 0, 40, 0
2, 173471, Note_on_c, 0, 71, 0
2, 173471, Note_on_c, 0, 55, 0
2, 173471, Note_on_c, 0, 67, 0
2, 173471, Note_on_c, 0, 79, 0
2, 173472, Note_on_c, 0, 83, 0
2, 173475, Note_on_c, 0, 81, 0
2, 173475, Note_on_c, 0, 93, 0
2, 173479, Note_on_c, 0, 47, 110
2, 173484, Note_on_c, 0, 35, 98
2, 173486, Note_on_c, 0, 81, 106
2, 173529, Control_c, 0, 64, 127
2, 173569, Note_on_c, 0, 83, 100
2, 173652, Note_on_c, 0, 81, 0
2, 173661, Note_on_c, 0, 81, 107
2, 173758, Note_on_c, 0, 91, 92
2, 173759, Note_on_c, 0, 79, 102
2, 173767, Note_on_c, 0, 91, 0
2, 173820, Note_on_c, 0, 57, 103
2, 173821, Note_on_c, 0, 54, 101
2, 173850, Note_on_c, 0, 78, 96
2, 173921, Note_on_c, 0, 76, 101
2, 173990, Note_on_c, 0, 35, 0
2, 174000, Note_on_c, 0, 35, 84
2, 174001, Note_on_c, 0, 74, 99
2, 174067, Note_on_c, 0, 47, 0
2, 174075, Note_on_c, 0, 47, 94
2, 174078, Note_on_c, 0, 69, 101
2, 174167, Note_on_c, 0, 86, 111
2, 174274, Note_on_c, 0, 35, 0
2, 174285, Note_on_c, 0, 35, 85
2, 174320, Note_on_c, 0, 47, 0
2, 174327, Note_on_c, 0, 47, 94
2, 174328, Note_on_c, 0, 81, 0
2, 174334, Note_on_c, 0, 93, 114
2, 174338, Note_on_c, 0, 81, 113
2, 174489, Note_on_c, 0, 57, 0
2, 174489, Note_on_c, 0, 83, 0
2, 174497, Note_on_c, 0, 54, 0
2, 174499, Note_on_c, 0, 95, 112
2, 174499, Note_on_c, 0, 83, 108
2, 174500, Note_on_c, 0, 57, 108
2, 174503, Note_on_c, 0, 54, 102
2, 174650, Note_on_c, 0, 47, 0
2, 174658, Note_on_c, 0, 86, 0
2, 174660, Note_on_c, 0, 47, 92
2, 174663, Note_on_c, 0, 86, 108
2, 174665, Note_on_c, 0, 98, 112
2, 174783, Control_c, 0, 64, 0
2, 174786, Note_on_c, 0, 69, 0
2, 174786, Note_on_c, 0, 98, 0
2, 174786, Note_on_c, 0, 83, 0
2, 174787, Note_on_c, 0, 74, 0
2, 174787, Note_on_c, 0, 95, 0
2, 174787, Note_on_c, 0, 81, 0
2, 174788, Note_on_c, 0, 54, 0
2, 174789, Note_on_c, 0, 93, 0
2, 174790, Note_on_c, 0, 86, 0
2, 174791, Note_on_c, 0, 47, 0
2, 174796, Note_on_c, 0, 78, 0
2, 174796, Note_on_c, 0, 79, 0
2, 174804, Note_on_c, 0, 57, 0
2, 174804, Note_on_c, 0, 76, 0
2, 174819, Note_on_c, 0, 35, 0
2, 174840, Note_on_c, 0, 48, 112
2, 174844, Note_on_c, 0, 36, 105
2, 174846, Note_on_c, 0, 86, 112
2, 174849, Note_on_c, 0, 98, 113
2, 174865, Control_c, 0, 64, 127
2, 175013, Note_on_c, 0, 100, 116
2, 175015, Note_on_c, 0, 88, 115
2, 175169, Note_on_c, 0, 59, 106
2, 175172, Note_on_c, 0, 55, 99
2, 175174, Note_on_c, 0, 52, 99
2, 175355, Note_on_c, 0, 79, 112
2, 175357, Note_on_c, 0, 67, 103
2, 175434, Note_on_c, 0, 36, 0
2, 175434, Note_on_c, 0, 48, 0
2, 175438, Note_on_c, 0, 36, 82
2, 175439, Note_on_c, 0, 48, 92
2, 175518, Note_on_c, 0, 67, 0
2, 175518, Note_on_c, 0, 79, 0
2, 175524, Note_on_c, 0, 79, 109
2, 175527, Note_on_c, 0, 67, 99
2, 175610, Note_on_c, 0, 36, 0
2, 175621, Note_on_c, 0, 36, 85
2, 175686, Note_on_c, 0, 81, 110
2, 175687, Note_on_c, 0, 69, 109
2, 175841, Note_on_c, 0, 59, 0
2, 175848, Note_on_c, 0, 52, 0
2, 175848, Note_on_c, 0, 55, 0
2, 175852, Note_on_c, 0, 59, 111
2, 175855, Note_on_c, 0, 52, 100
2, 175858, Note_on_c, 0, 55, 89
2, 175858, Note_on_c, 0, 83, 104
2, 175858, Note_on_c, 0, 71, 109
2, 176025, Note_on_c, 0, 69, 0
2, 176025, Note_on_c, 0, 81, 0
2, 176031, Note_on_c, 0, 81, 107
2, 176032, Note_on_c, 0, 69, 103
2, 176166, Control_c, 0, 64, 0
2, 176171, Note_on_c, 0, 36, 0
2, 176171, Note_on_c, 0, 81, 0
2, 176171, Note_on_c, 0, 52, 0
2, 176172, Note_on_c, 0, 48, 0
2, 176172, Note_on_c, 0, 67, 0
2, 176173, Note_on_c, 0, 88, 0
2, 176173, Note_on_c, 0, 79, 0
2, 176173, Note_on_c, 0, 69, 0
2, 176173, Note_on_c, 0, 55, 0
2, 176173, Note_on_c, 0, 100, 0
2, 176173, Note_on_c, 0, 59, 0
2, 176174, Note_on_c, 0, 86, 0
2, 176174, Note_on_c, 0, 71, 0
2, 176179, Note_on_c, 0, 98, 0
2, 176186, Note_on_c, 0, 83, 0
2, 176209, Control_c, 0, 64, 127
2, 176216, Note_on_c, 0, 50, 105
2, 176220, Note_on_c, 0, 86, 112
2, 176220, Note_on_c, 0, 38, 102
2, 176221, Note_on_c, 0, 45, 96
2, 176222, Note_on_c, 0, 98, 114
2, 176223, Note_on_c, 0, 90, 111
2, 176403, Control_c, 0, 64, 0
2, 176404, Note_on_c, 0, 98, 0
2, 176404, Note_on_c, 0, 86, 0
2, 176405, Note_on_c, 0, 90, 0
2, 176405, Note_on_c, 0, 38, 0
2, 176405, Note_on_c, 0, 50, 0
2, 176406, Note_on_c, 0, 45, 0
2, 176730, Note_on_c, 0, 74, 110
2, 176734, Note_on_c, 0, 62, 102
2, 176773, Note_on_c, 0, 62, 0
2, 176774, Note_on_c, 0, 74, 0
2, 176920, Note_on_c, 0, 74, 113
2, 176924, Note_on_c, 0, 62, 106
2, 177031, Control_c, 0, 64, 127
2, 177054, Control_c, 0, 64, 0
2, 177194, Note_on_c, 0, 62, 0
2, 177196, Note_on_c, 0, 74, 0
2, 177275, Note_on_c, 0, 64, 113
2, 177275, Note_on_c, 0, 76, 112
2, 177300, Control_c, 0, 64, 127
2, 177484, Note_on_c, 0, 64, 0
2, 177597, Note_on_c, 0, 100, 117
2, 177603, Note_on_c, 0, 88, 113
2, 177611, Note_on_c, 0, 40, 105
2, 177612, Note_on_c, 0, 28, 103
2, 177841, Note_on_c, 0, 26, 94
2, 177845, Note_on_c, 0, 26, 0
2, 177849, Note_on_c, 0, 33, 68
2, 177889, Note_on_c, 0, 38, 97
2, 177895, Note_on_c, 0, 50, 95
2, 177937, Note_on_c, 0, 33, 0
2, 177976, Control_c, 0, 64, 0
2, 178145, Note_on_c, 0, 40, 0
2, 178145, Note_on_c, 0, 100, 0
2, 178146, Note_on_c, 0, 52, 100
2, 178149, Note_on_c, 0, 40, 92
2, 178149, Note_on_c, 0, 47, 105
2, 178160, Note_on_c, 0, 38, 0
2, 178191, Note_on_c, 0, 88, 0
2, 178421, Note_on_c, 0, 50, 0
2, 178429, Note_on_c, 0, 47, 0
2, 178429, Control_c, 0, 64, 127
2, 178431, Note_on_c, 0, 50, 103
2, 178432, Note_on_c, 0, 38, 96
2, 178438, Note_on_c, 0, 47, 91
2, 178560, Note_on_c, 0, 76, 0
2, 178634, Note_on_c, 0, 79, 108
2, 178636, Note_on_c, 0, 71, 105
2, 178639, Note_on_c, 0, 67, 101
2, 178642, Note_on_c, 0, 64, 93
2, 178644, Note_on_c, 0, 52, 0
2, 178646, Note_on_c, 0, 59, 91
2, 178648, Note_on_c, 0, 52, 92
2, 178652, Note_on_c, 0, 55, 67
2, 178705, Note_on_c, 0, 55, 0
2, 178705, Note_on_c, 0, 59, 0
2, 178705, Note_on_c, 0, 67, 0
2, 178705, Note_on_c, 0, 71, 0
2, 178705, Note_on_c, 0, 79, 0
2, 178711, Note_on_c, 0, 59, 62
2, 178711, Note_on_c, 0, 62, 37
2, 178713, Note_on_c, 0, 71, 83
2, 178714, Note_on_c, 0, 55, 48
2, 178716, Note_on_c, 0, 67, 82
2, 178716, Note_on_c, 0, 79, 98
2, 178775, Note_on_c, 0, 28, 0
2, 178790, Note_on_c, 0, 67, 0
2, 178790, Note_on_c, 0, 71, 0
2, 178790, Note_on_c, 0, 79, 0
2, 178798, Note_on_c, 0, 55, 0
2, 178798, Note_on_c, 0, 59, 0
2, 178798, Note_on_c, 0, 62, 0
2, 178800, Note_on_c, 0, 71, 97
2, 178800, Note_on_c, 0, 79, 107
2, 178801, Note_on_c, 0, 67, 101
2, 178802, Note_on_c, 0, 59, 87
2, 178803, Note_on_c, 0, 55, 88
2, 178805, Note_on_c, 0, 62, 85
2, 178867, Note_on_c, 0, 79, 0
2, 178874, Note_on_c, 0, 67, 0
2, 178874, Note_on_c, 0, 71, 0
2, 178878, Note_on_c, 0, 79, 106
2, 178880, Note_on_c, 0, 67, 96
2, 178880, Note_on_c, 0, 71, 103
2, 178901, Control_c, 0, 64, 0
2, 178911, Note_on_c, 0, 55, 0
2, 178915, Note_on_c, 0, 38, 0
2, 178917, Note_on_c, 0, 50, 0
2, 178920, Note_on_c, 0, 40, 0
2, 178944, Note_on_c, 0, 47, 0
2, 178951, Note_on_c, 0, 52, 0
2, 178951, Note_on_c, 0, 64, 0
2, 178954, Note_on_c, 0, 47, 106
2, 178955, Note_on_c, 0, 52, 100
2, 178956, Note_on_c, 0, 40, 104
2, 178967, Control_c, 0, 64, 127
2, 179163, Note_on_c, 0, 26, 91
2, 179166, Note_on_c, 0, 38, 85
2, 179174, Note_on_c, 0, 26, 0
2, 179206, Control_c, 0, 64, 0
2, 179207, Note_on_c, 0, 71, 0
2, 179208, Note_on_c, 0, 52, 0
2, 179209, Note_on_c, 0, 47, 0
2, 179209, Note_on_c, 0, 40, 0
2, 179212, Note_on_c, 0, 59, 0
2, 179220, Note_on_c, 0, 38, 0
2, 179225, Note_on_c, 0, 38, 91
2, 179228, Note_on_c, 0, 62, 0
2, 179228, Note_on_c, 0, 50, 101
2, 179232, Note_on_c, 0, 45, 94
2, 179387, Note_on_c, 0, 40, 72
2, 179389, Note_on_c, 0, 28, 82
2, 179466, Note_on_c, 0, 38, 0
2, 179469, Note_on_c, 0, 50, 0
2, 179470, Note_on_c, 0, 45, 0
2, 179481, Note_on_c, 0, 40, 0
2, 179485, Note_on_c, 0, 47, 104
2, 179486, Note_on_c, 0, 52, 104
2, 179486, Note_on_c, 0, 40, 99
2, 179489, Note_on_c, 0, 79, 0
2, 179520, Control_c, 0, 64, 127
2, 179690, Note_on_c, 0, 38, 83
2, 179690, Note_on_c, 0, 26, 86
2, 179696, Note_on_c, 0, 26, 0
2, 179781, Note_on_c, 0, 38, 0
2, 179788, Control_c, 0, 64, 0
2, 179791, Note_on_c, 0, 38, 99
2, 179791, Note_on_c, 0, 50, 103
2, 179792, Note_on_c, 0, 33, 83
2, 179794, Note_on_c, 0, 45, 98
2, 179811, Note_on_c, 0, 28, 0
2, 179834, Note_on_c, 0, 33, 0
2, 179873, Control_c, 0, 64, 127
2, 179978, Note_on_c, 0, 74, 109
2, 179979, Note_on_c, 0, 83, 107
2, 179980, Note_on_c, 0, 52, 0
2, 179981, Note_on_c, 0, 71, 108
2, 179984, Note_on_c, 0, 59, 94
2, 179985, Note_on_c, 0, 62, 90
2, 179986, Note_on_c, 0, 52, 96
2, 179996, Note_on_c, 0, 62, 0
2, 180049, Note_on_c, 0, 71, 0
2, 180049, Note_on_c, 0, 74, 0
2, 180049, Note_on_c, 0, 83, 0
2, 180060, Note_on_c, 0, 71, 101
2, 180060, Note_on_c, 0, 83, 96
2, 180061, Note_on_c, 0, 74, 91
2, 180119, Note_on_c, 0, 59, 0
2, 180126, Note_on_c, 0, 71, 0
2, 180126, Note_on_c, 0, 83, 0
2, 180130, Note_on_c, 0, 59, 96
2, 180130, Note_on_c, 0, 62, 91
2, 180132, Note_on_c, 0, 71, 94
2, 180132, Note_on_c, 0, 83, 100
2, 180134, Note_on_c, 0, 55, 88
2, 180211, Note_on_c, 0, 71, 0
2, 180211, Note_on_c, 0, 74, 0
2, 180211, Note_on_c, 0, 83, 0
2, 180217, Note_on_c, 0, 83, 106
2, 180220, Note_on_c, 0, 74, 109
2, 180220, Note_on_c, 0, 71, 105
2, 180244, Control_c, 0, 64, 0
2, 180249, Note_on_c, 0, 40, 0
2, 180251, Note_on_c, 0, 55, 0
2, 180253, Note_on_c, 0, 38, 0
2, 180253, Note_on_c, 0, 59, 0
2, 180253, Note_on_c, 0, 52, 0
2, 180264, Note_on_c, 0, 45, 0
2, 180264, Note_on_c, 0, 47, 0
2, 180272, Note_on_c, 0, 50, 0
2, 180299, Note_on_c, 0, 47, 105
2, 180300, Note_on_c, 0, 52, 105
2, 180301, Note_on_c, 0, 40, 98
2, 180303, Note_on_c, 0, 74, 0
2, 180326, Control_c, 0, 64, 127
2, 180494, Note_on_c, 0, 26, 80
2, 180503, Note_on_c, 0, 26, 0
2, 180560, Control_c, 0, 64, 0
2, 180561, Note_on_c, 0, 40, 0
2, 180562, Note_on_c, 0, 47, 0
2, 180564, Note_on_c, 0, 67, 0
2, 180566, Note_on_c, 0, 52, 0
2, 180569, Note_on_c, 0, 26, 92
2, 180569, Note_on_c, 0, 38, 99
2, 180569, Note_on_c, 0, 50, 101
2, 180570, Note_on_c, 0, 33, 79
2, 180572, Note_on_c, 0, 45, 94
2, 180579, Note_on_c, 0, 62, 0
2, 180587, Note_on_c, 0, 83, 0
2, 180633, Note_on_c, 0, 33, 0
2, 180664, Control_c, 0, 64, 127
2, 180723, Note_on_c, 0, 40, 72
2, 180723, Note_on_c, 0, 28, 83
2, 180779, Note_on_c, 0, 26, 0
2, 180790, Note_on_c, 0, 50, 0
2, 180797, Control_c, 0, 64, 0
2, 180802, Note_on_c, 0, 45, 0
2, 180817, Note_on_c, 0, 40, 0
2, 180817, Control_c, 0, 64, 127
2, 180824, Note_on_c, 0, 52, 103
2, 180825, Note_on_c, 0, 38, 0
2, 180825, Note_on_c, 0, 71, 0
2, 180826, Note_on_c, 0, 47, 107
2, 180827, Note_on_c, 0, 40, 100
2, 180833, Control_c, 0, 64, 0
2, 180917, Control_c, 0, 64, 127
2, 181017, Control_c, 0, 64, 0
2, 181021, Note_on_c, 0, 26, 83
2, 181025, Note_on_c, 0, 26, 0
2, 181104, Note_on_c, 0, 47, 0
2, 181120, Note_on_c, 0, 33, 83
2, 181121, Note_on_c, 0, 45, 99
2, 181122, Note_on_c, 0, 38, 100
2, 181123, Note_on_c, 0, 50, 105
2, 181140, Note_on_c, 0, 40, 0
2, 181148, Note_on_c, 0, 33, 0
2, 181155, Note_on_c, 0, 28, 0
2, 181155, Control_c, 0, 64, 127
2, 181313, Note_on_c, 0, 79, 109
2, 181318, Note_on_c, 0, 71, 100
2, 181319, Note_on_c, 0, 67, 100
2, 181322, Note_on_c, 0, 64, 90
2, 181324, Note_on_c, 0, 52, 0
2, 181325, Note_on_c, 0, 59, 87
2, 181328, Note_on_c, 0, 52, 92
2, 181332, Note_on_c, 0, 64, 0
2, 181386, Note_on_c, 0, 59, 0
2, 181391, Note_on_c, 0, 55, 65
2, 181393, Note_on_c, 0, 79, 0
2, 181394, Note_on_c, 0, 59, 73
2, 181402, Note_on_c, 0, 79, 105
2, 181463, Note_on_c, 0, 59, 0
2, 181463, Note_on_c, 0, 67, 0
2, 181463, Note_on_c, 0, 79, 0
2, 181470, Note_on_c, 0, 55, 0
2, 181470, Note_on_c, 0, 71, 0
2, 181473, Note_on_c, 0, 79, 100
2, 181473, Note_on_c, 0, 67, 102
2, 181474, Note_on_c, 0, 59, 90
2, 181474, Note_on_c, 0, 71, 98
2, 181477, Note_on_c, 0, 55, 88
2, 181547, Note_on_c, 0, 71, 0
2, 181547, Note_on_c, 0, 79, 0
2, 181551, Note_on_c, 0, 71, 100
2, 181552, Note_on_c, 0, 79, 108
2, 181559, Note_on_c, 0, 52, 0
2, 181560, Note_on_c, 0, 38, 0
2, 181562, Note_on_c, 0, 45, 0
2, 181563, Note_on_c, 0, 50, 0
2, 181564, Control_c, 0, 64, 0
2, 181632, Control_c, 0, 64, 127
2, 181637, Note_on_c, 0, 52, 105
2, 181637, Note_on_c, 0, 40, 104
2, 181637, Note_on_c, 0, 47, 101
2, 181762, Note_on_c, 0, 47, 0
2, 181768, Note_on_c, 0, 47, 79
2, 181913, Note_on_c, 0, 26, 92
2, 181913, Note_on_c, 0, 38, 98
2, 181914, Note_on_c, 0, 33, 85
2, 181915, Note_on_c, 0, 45, 98
2, 181915, Note_on_c, 0, 79, 0
2, 181916, Note_on_c, 0, 40, 0
2, 181917, Note_on_c, 0, 50, 101
2, 181917, Note_on_c, 0, 47, 0
2, 181918, Note_on_c, 0, 52, 0
2, 181919, Note_on_c, 0, 55, 0
2, 181923, Control_c, 0, 64, 0
2, 181923, Note_on_c, 0, 59, 0
2, 181946, Note_on_c, 0, 67, 0
2, 181992, Note_on_c, 0, 33, 0
2, 182023, Control_c, 0, 64, 127
2, 182039, Note_on_c, 0, 26, 0
2, 182057, Note_on_c, 0, 28, 77
2, 182161, Note_on_c, 0, 45, 0
2, 182163, Note_on_c, 0, 50, 0
2, 182164, Note_on_c, 0, 40, 96
2, 182165, Note_on_c, 0, 52, 102
2, 182167, Note_on_c, 0, 47, 106
2, 182167, Control_c, 0, 64, 0
2, 182177, Note_on_c, 0, 38, 0
2, 182184, Note_on_c, 0, 71, 0
2, 182311, Note_on_c, 0, 26, 86
2, 182312, Note_on_c, 0, 38, 79
2, 182400, Control_c, 0, 64, 127
2, 182430, Note_on_c, 0, 38, 0
2, 182436, Note_on_c, 0, 38, 93
2, 182436, Note_on_c, 0, 50, 99
2, 182441, Note_on_c, 0, 45, 98
2, 182446, Note_on_c, 0, 28, 0
2, 182461, Note_on_c, 0, 47, 0
2, 182653, Note_on_c, 0, 26, 0
2, 182655, Note_on_c, 0, 100, 115
2, 182661, Note_on_c, 0, 40, 0
2, 182664, Note_on_c, 0, 88, 110
2, 182666, Note_on_c, 0, 28, 99
2, 182667, Note_on_c, 0, 40, 95
2, 182671, Note_on_c, 0, 98, 92
2, 182676, Note_on_c, 0, 45, 0
2, 182679, Control_c, 0, 64, 0
2, 182699, Control_c, 0, 64, 127
2, 182737, Note_on_c, 0, 88, 0
2, 182737, Note_on_c, 0, 100, 0
2, 182745, Note_on_c, 0, 100, 112
2, 182749, Note_on_c, 0, 88, 103
2, 182814, Note_on_c, 0, 88, 0
2, 182814, Note_on_c, 0, 100, 0
2, 182823, Note_on_c, 0, 88, 109
2, 182825, Note_on_c, 0, 100, 117
2, 182830, Note_on_c, 0, 86, 90
2, 182837, Note_on_c, 0, 38, 0
2, 182840, Note_on_c, 0, 28, 0
2, 182844, Control_c, 0, 64, 0
2, 182846, Note_on_c, 0, 98, 0
2, 182860, Note_on_c, 0, 52, 0
2, 182876, Note_on_c, 0, 50, 0
2, 182876, Note_on_c, 0, 86, 0
2, 182899, Note_on_c, 0, 40, 0
2, 182899, Note_on_c, 0, 88, 0
2, 182899, Note_on_c, 0, 100, 0
2, 182905, Note_on_c, 0, 100, 115
2, 182905, Note_on_c, 0, 40, 97
2, 182908, Note_on_c, 0, 88, 110
2, 182910, Note_on_c, 0, 28, 101
2, 182937, Control_c, 0, 64, 127
2, 183041, Note_on_c, 0, 28, 0
2, 183046, Note_on_c, 0, 88, 0
2, 183048, Note_on_c, 0, 100, 0
2, 183049, Note_on_c, 0, 40, 0
2, 183050, Control_c, 0, 64, 0
2, 183051, End_track
0, 0, End_of_file
