0, 0, Header, 1, 2, 384
1, 0, Start_track
1, 0, Tempo, 500000
1, 0, Time_signature, 4, 2, 24, 8
1, 1, End_track
2, 0, Start_track
2, 1606, Note_on_c, 0, 70, 56
2, 1658, Control_c, 0, 64, 127
2, 1899, Note_on_c, 0, 75, 67
2, 2193, Note_on_c, 0, 77, 70
2, 2477, Control_c, 0, 64, 0
2, 2477, Note_on_c, 0, 79, 79
2, 2478, Note_on_c, 0, 77, 0
2, 2478, Note_on_c, 0, 75, 0
2, 2480, Note_on_c, 0, 70, 0
2, 2483, Note_on_c, 0, 63, 52
2, 2484, Note_on_c, 0, 70, 57
2, 2664, Control_c, 0, 64, 127
2, 2764, Note_on_c, 0, 70, 0
2, 2792, Note_on_c, 0, 77, 71
2, 3068, Note_on_c, 0, 75, 72
2, 3310, Note_on_c, 0, 79, 0
2, 3329, Note_on_c, 0, 77, 0
2, 3330, Note_on_c, 0, 75, 0
2, 3338, Control_c, 0, 64, 0
2, 3356, Note_on_c, 0, 63, 0
2, 3356, Note_on_c, 0, 72, 69
2, 3360, Note_on_c, 0, 68, 59
2, 3360, Note_on_c, 0, 63, 53
2, 3609, Control_c, 0, 64, 127
2, 3630, Note_on_c, 0, 70, 67
2, 3855, Note_on_c, 0, 68, 0
2, 3904, Note_on_c, 0, 68, 67
2, 3924, Note_on_c, 0, 72, 0
2, 4208, Note_on_c, 0, 70, 0
2, 4216, Note_on_c, 0, 63, 0
2, 4219, Note_on_c, 0, 70, 63
2, 4222, Note_on_c, 0, 63, 46
2, 4223, Note_on_c, 0, 67, 45
2, 4227, Control_c, 0, 64, 0
2, 4247, Note_on_c, 0, 68, 0
2, 4861, Control_c, 0, 64, 127
2, 5168, Note_on_c, 0, 70, 0
2, 5176, Note_on_c, 0, 70, 66
2, 5414, Control_c, 0, 64, 0
2, 5455, Note_on_c, 0, 75, 82
2, 5498, Control_c, 0, 64, 127
2, 5728, Note_on_c, 0, 77, 82
2, 6024, Note_on_c, 0, 79, 80
2, 6027, Note_on_c, 0, 67, 0
2, 6028, Note_on_c, 0, 77, 0
2, 6032, Control_c, 0, 64, 0
2, 6036, Note_on_c, 0, 63, 0
2, 6036, Note_on_c, 0, 70, 0
2, 6036, Note_on_c, 0, 75, 0
2, 6044, Note_on_c, 0, 63, 55
2, 6046, Note_on_c, 0, 75, 59
2, 6046, Note_on_c, 0, 70, 54
2, 6243, Control_c, 0, 64, 127
2, 6311, Note_on_c, 0, 77, 78
2, 6589, Note_on_c, 0, 79, 0
2, 6600, Note_on_c, 0, 79, 81
2, 6890, Control_c, 0, 64, 0
2, 6892, Note_on_c, 0, 70, 0
2, 6893, Note_on_c, 0, 77, 0
2, 6893, Note_on_c, 0, 79, 0
2, 6903, Note_on_c, 0, 80, 78
2, 6912, Note_on_c, 0, 63, 0
2, 6912, Note_on_c, 0, 75, 0
2, 6915, Note_on_c, 0, 68, 60
2, 6916, Note_on_c, 0, 72, 54
2, 6918, Note_on_c, 0, 63, 47
2, 6923, Note_on_c, 0, 75, 46
2, 7119, Control_c, 0, 64, 127
2, 7515, Note_on_c, 0, 79, 78
2, 7830, Note_on_c, 0, 77, 72
2, 7832, Note_on_c, 0, 70, 47
2, 7833, Note_on_c, 0, 63, 0
2, 7836, Note_on_c, 0, 65, 51
2, 7841, Note_on_c, 0, 75, 0
2, 7844, Note_on_c, 0, 63, 40
2, 7845, Note_on_c, 0, 75, 49
2, 7848, Note_on_c, 0, 80, 0
2, 7850, Note_on_c, 0, 79, 0
2, 7850, Note_on_c, 0, 68, 0
2, 7851, Note_on_c, 0, 72, 0
2, 7854, Control_c, 0, 64, 0
2, 8782, Note_on_c, 0, 79, 71
2, 8847, Control_c, 0, 64, 127
2, 9072, Note_on_c, 0, 80, 83
2, 9359, Note_on_c, 0, 82, 90
2, 9653, Note_on_c, 0, 82, 0
2, 9657, Note_on_c, 0, 82, 78
2, 9669, Control_c, 0, 64, 0
2, 9676, Note_on_c, 0, 75, 0
2, 9676, Note_on_c, 0, 77, 0
2, 9680, Note_on_c, 0, 60, 51
2, 9680, Note_on_c, 0, 68, 54
2, 9686, Note_on_c, 0, 79, 0
2, 9687, Note_on_c, 0, 80, 0
2, 9688, Note_on_c, 0, 75, 59
2, 9688, Note_on_c, 0, 72, 55
2, 9699, Note_on_c, 0, 63, 0
2, 9707, Note_on_c, 0, 65, 0
2, 9707, Note_on_c, 0, 70, 0
2, 9891, Control_c, 0, 64, 127
2, 9922, Note_on_c, 0, 60, 0
2, 10007, Note_on_c, 0, 72, 0
2, 10252, Note_on_c, 0, 75, 0
2, 10262, Note_on_c, 0, 75, 80
2, 10556, Control_c, 0, 64, 0
2, 10562, Note_on_c, 0, 68, 0
2, 10564, Note_on_c, 0, 77, 77
2, 10574, Note_on_c, 0, 62, 58
2, 10578, Note_on_c, 0, 70, 53
2, 10579, Note_on_c, 0, 74, 61
2, 10590, Note_on_c, 0, 75, 0
2, 10855, Note_on_c, 0, 79, 77
2, 10861, Note_on_c, 0, 77, 0
2, 11120, Control_c, 0, 64, 127
2, 11127, Note_on_c, 0, 80, 76
2, 11416, Control_c, 0, 64, 0
2, 11417, Note_on_c, 0, 80, 0
2, 11417, Note_on_c, 0, 62, 0
2, 11427, Note_on_c, 0, 79, 0
2, 11434, Note_on_c, 0, 79, 75
2, 11435, Note_on_c, 0, 70, 0
2, 11435, Note_on_c, 0, 82, 0
2, 11439, Note_on_c, 0, 75, 59
2, 11439, Note_on_c, 0, 70, 47
2, 11440, Note_on_c, 0, 63, 50
2, 11450, Note_on_c, 0, 74, 0
2, 11773, Control_c, 0, 64, 127
2, 12026, Note_on_c, 0, 70, 0
2, 12037, Note_on_c, 0, 70, 71
2, 12350, Note_on_c, 0, 79, 0
2, 12350, Control_c, 0, 64, 0
2, 12355, Note_on_c, 0, 72, 68
2, 12364, Note_on_c, 0, 63, 0
2, 12372, Note_on_c, 0, 70, 0
2, 12373, Note_on_c, 0, 63, 51
2, 12375, Note_on_c, 0, 56, 41
2, 12376, Note_on_c, 0, 68, 52
2, 12380, Note_on_c, 0, 75, 0
2, 12672, Control_c, 0, 64, 127
2, 13263, Note_on_c, 0, 68, 0
2, 13263, Note_on_c, 0, 72, 0
2, 13265, Note_on_c, 0, 75, 77
2, 13271, Note_on_c, 0, 63, 0
2, 13273, Note_on_c, 0, 68, 59
2, 13274, Note_on_c, 0, 72, 63
2, 13279, Control_c, 0, 64, 0
2, 13280, Note_on_c, 0, 63, 48
2, 13284, Note_on_c, 0, 53, 50
2, 13539, Control_c, 0, 64, 127
2, 14146, Note_on_c, 0, 75, 0
2, 14158, Note_on_c, 0, 75, 67
2, 14159, Note_on_c, 0, 70, 61
2, 14169, Note_on_c, 0, 68, 0
2, 14172, Note_on_c, 0, 65, 46
2, 14173, Note_on_c, 0, 58, 44
2, 14173, Note_on_c, 0, 63, 0
2, 14173, Note_on_c, 0, 68, 45
2, 14177, Note_on_c, 0, 53, 0
2, 14177, Control_c, 0, 64, 0
2, 14200, Note_on_c, 0, 56, 0
2, 14200, Note_on_c, 0, 72, 0
2, 14446, Control_c, 0, 64, 127
2, 14522, Control_c, 0, 64, 0
2, 14607, Control_c, 0, 64, 127
2, 14943, Note_on_c, 0, 51, 29
2, 15006, Note_on_c, 0, 58, 0
2, 15011, Note_on_c, 0, 58, 46
2, 15073, Note_on_c, 0, 63, 39
2, 15079, Note_on_c, 0, 68, 0
2, 15079, Note_on_c, 0, 65, 0
2, 15083, Control_c, 0, 64, 0
2, 15105, Note_on_c, 0, 67, 40
2, 15137, Note_on_c, 0, 70, 0
2, 15137, Note_on_c, 0, 75, 0
2, 15144, Note_on_c, 0, 70, 50
2, 15186, Note_on_c, 0, 75, 72
2, 15452, Control_c, 0, 64, 127
2, 16166, Note_on_c, 0, 70, 0
2, 16176, Note_on_c, 0, 70, 71
2, 16181, Note_on_c, 0, 58, 0
2, 16186, Note_on_c, 0, 58, 55
2, 16458, Note_on_c, 0, 75, 0
2, 16466, Note_on_c, 0, 75, 88
2, 16481, Note_on_c, 0, 63, 0
2, 16481, Note_on_c, 0, 70, 0
2, 16491, Note_on_c, 0, 70, 50
2, 16491, Note_on_c, 0, 63, 62
2, 16754, Note_on_c, 0, 77, 84
2, 16755, Note_on_c, 0, 65, 78
2, 16972, Note_on_c, 0, 51, 0
2, 16976, Note_on_c, 0, 51, 45
2, 16995, Note_on_c, 0, 67, 0
2, 17000, Note_on_c, 0, 67, 66
2, 17029, Note_on_c, 0, 65, 0
2, 17030, Note_on_c, 0, 77, 0
2, 17031, Control_c, 0, 64, 0
2, 17034, Note_on_c, 0, 58, 0
2, 17039, Note_on_c, 0, 58, 54
2, 17041, Note_on_c, 0, 63, 0
2, 17041, Note_on_c, 0, 70, 0
2, 17049, Note_on_c, 0, 75, 0
2, 17052, Note_on_c, 0, 63, 67
2, 17053, Note_on_c, 0, 70, 72
2, 17055, Note_on_c, 0, 79, 88
2, 17068, Note_on_c, 0, 75, 76
2, 17126, Control_c, 0, 64, 127
2, 17330, Note_on_c, 0, 77, 82
2, 17331, Note_on_c, 0, 65, 75
2, 17594, Note_on_c, 0, 75, 0
2, 17601, Note_on_c, 0, 75, 82
2, 17617, Note_on_c, 0, 63, 0
2, 17622, Note_on_c, 0, 63, 73
2, 17861, Note_on_c, 0, 75, 0
2, 17861, Note_on_c, 0, 70, 0
2, 17861, Note_on_c, 0, 65, 0
2, 17861, Note_on_c, 0, 58, 0
2, 17862, Note_on_c, 0, 77, 0
2, 17863, Note_on_c, 0, 67, 0
2, 17864, Note_on_c, 0, 79, 0
2, 17867, Control_c, 0, 64, 0
2, 17886, Note_on_c, 0, 63, 0
2, 17889, Note_on_c, 0, 72, 84
2, 17897, Note_on_c, 0, 63, 68
2, 17899, Note_on_c, 0, 60, 59
2, 17902, Note_on_c, 0, 56, 59
2, 17906, Note_on_c, 0, 68, 69
2, 17909, Note_on_c, 0, 51, 0
2, 17914, Note_on_c, 0, 51, 45
2, 17963, Note_on_c, 0, 60, 0
2, 17963, Control_c, 0, 64, 127
2, 18174, Note_on_c, 0, 70, 77
2, 18188, Note_on_c, 0, 58, 73
2, 18439, Note_on_c, 0, 56, 0
2, 18439, Note_on_c, 0, 68, 0
2, 18445, Note_on_c, 0, 68, 77
2, 18449, Note_on_c, 0, 56, 54
2, 18474, Note_on_c, 0, 53, 49
2, 18700, Note_on_c, 0, 51, 0
2, 18700, Note_on_c, 0, 63, 0
2, 18709, Note_on_c, 0, 63, 63
2, 18711, Note_on_c, 0, 51, 47
2, 18721, Note_on_c, 0, 72, 0
2, 18721, Note_on_c, 0, 56, 0
2, 18721, Note_on_c, 0, 68, 0
2, 18721, Note_on_c, 0, 53, 0
2, 18728, Control_c, 0, 64, 0
2, 18731, Note_on_c, 0, 58, 0
2, 18736, Note_on_c, 0, 58, 57
2, 18740, Note_on_c, 0, 55, 47
2, 18748, Note_on_c, 0, 67, 52
2, 18754, Note_on_c, 0, 70, 0
2, 18765, Note_on_c, 0, 70, 71
2, 19207, Control_c, 0, 64, 127
2, 19660, Note_on_c, 0, 58, 0
2, 19660, Note_on_c, 0, 70, 0
2, 19669, Note_on_c, 0, 70, 74
2, 19671, Note_on_c, 0, 58, 60
2, 19953, Note_on_c, 0, 75, 87
2, 19968, Note_on_c, 0, 63, 0
2, 19972, Note_on_c, 0, 63, 63
2, 20221, Note_on_c, 0, 77, 87
2, 20224, Note_on_c, 0, 65, 85
2, 20467, Note_on_c, 0, 67, 0
2, 20474, Note_on_c, 0, 67, 67
2, 20484, Note_on_c, 0, 55, 0
2, 20484, Note_on_c, 0, 65, 0
2, 20486, Note_on_c, 0, 77, 0
2, 20488, Control_c, 0, 64, 0
2, 20490, Note_on_c, 0, 58, 0
2, 20494, Note_on_c, 0, 58, 60
2, 20513, Note_on_c, 0, 63, 0
2, 20513, Note_on_c, 0, 70, 0
2, 20519, Note_on_c, 0, 63, 66
2, 20520, Note_on_c, 0, 75, 0
2, 20523, Note_on_c, 0, 70, 73
2, 20525, Note_on_c, 0, 79, 91
2, 20527, Note_on_c, 0, 75, 77
2, 20590, Control_c, 0, 64, 127
2, 20789, Note_on_c, 0, 67, 0
2, 20801, Note_on_c, 0, 77, 87
2, 20807, Note_on_c, 0, 65, 74
2, 21066, Note_on_c, 0, 79, 0
2, 21073, Note_on_c, 0, 79, 88
2, 21080, Note_on_c, 0, 67, 71
2, 21350, Note_on_c, 0, 77, 0
2, 21352, Note_on_c, 0, 58, 0
2, 21352, Note_on_c, 0, 65, 0
2, 21352, Note_on_c, 0, 67, 0
2, 21352, Note_on_c, 0, 79, 0
2, 21358, Note_on_c, 0, 63, 0
2, 21358, Note_on_c, 0, 70, 0
2, 21360, Control_c, 0, 64, 0
2, 21373, Note_on_c, 0, 75, 0
2, 21376, Note_on_c, 0, 80, 85
2, 21378, Note_on_c, 0, 75, 78
2, 21380, Note_on_c, 0, 72, 75
2, 21387, Note_on_c, 0, 68, 71
2, 21392, Note_on_c, 0, 60, 60
2, 21396, Note_on_c, 0, 51, 0
2, 21399, Note_on_c, 0, 56, 54
2, 21402, Note_on_c, 0, 51, 49
2, 21408, Note_on_c, 0, 63, 52
2, 21527, Control_c, 0, 64, 127
2, 21959, Note_on_c, 0, 79, 83
2, 21964, Note_on_c, 0, 63, 0
2, 21964, Note_on_c, 0, 75, 0
2, 21969, Note_on_c, 0, 63, 58
2, 21969, Note_on_c, 0, 75, 55
2, 21970, Note_on_c, 0, 67, 60
2, 22221, Note_on_c, 0, 65, 54
2, 22251, Note_on_c, 0, 80, 0
2, 22252, Note_on_c, 0, 56, 0
2, 22252, Note_on_c, 0, 68, 0
2, 22252, Note_on_c, 0, 72, 0
2, 22252, Note_on_c, 0, 67, 0
2, 22252, Note_on_c, 0, 63, 0
2, 22253, Note_on_c, 0, 79, 0
2, 22253, Note_on_c, 0, 60, 0
2, 22253, Note_on_c, 0, 75, 0
2, 22258, Control_c, 0, 64, 0
2, 22268, Note_on_c, 0, 58, 55
2, 22277, Note_on_c, 0, 74, 66
2, 22283, Note_on_c, 0, 70, 56
2, 22284, Note_on_c, 0, 77, 79
2, 22285, Note_on_c, 0, 62, 63
2, 22387, Control_c, 0, 64, 127
2, 23191, Note_on_c, 0, 79, 82
2, 23197, Note_on_c, 0, 75, 65
2, 23197, Note_on_c, 0, 67, 66
2, 23470, Note_on_c, 0, 77, 0
2, 23472, Note_on_c, 0, 80, 89
2, 23479, Note_on_c, 0, 68, 72
2, 23481, Note_on_c, 0, 77, 65
2, 23746, Note_on_c, 0, 70, 0
2, 23746, Note_on_c, 0, 79, 0
2, 23751, Note_on_c, 0, 82, 95
2, 23755, Note_on_c, 0, 70, 71
2, 23755, Note_on_c, 0, 79, 72
2, 23990, Note_on_c, 0, 60, 43
2, 24023, Note_on_c, 0, 70, 0
2, 24027, Note_on_c, 0, 70, 57
2, 24038, Note_on_c, 0, 62, 0
2, 24041, Note_on_c, 0, 56, 52
2, 24044, Note_on_c, 0, 65, 0
2, 24048, Note_on_c, 0, 67, 0
2, 24048, Note_on_c, 0, 80, 0
2, 24048, Note_on_c, 0, 82, 0
2, 24048, Note_on_c, 0, 58, 0
2, 24049, Note_on_c, 0, 79, 0
2, 24050, Control_c, 0, 64, 0
2, 24061, Note_on_c, 0, 74, 0
2, 24061, Note_on_c, 0, 77, 0
2, 24069, Note_on_c, 0, 68, 0
2, 24069, Note_on_c, 0, 75, 0
2, 24075, Note_on_c, 0, 72, 75
2, 24078, Note_on_c, 0, 75, 88
2, 24079, Note_on_c, 0, 68, 53
2, 24083, Note_on_c, 0, 63, 69
2, 24089, Note_on_c, 0, 82, 97
2, 24099, Note_on_c, 0, 70, 0
2, 24115, Note_on_c, 0, 51, 0
2, 24130, Control_c, 0, 64, 127
2, 24652, Note_on_c, 0, 63, 0
2, 24652, Note_on_c, 0, 75, 0
2, 24657, Note_on_c, 0, 75, 83
2, 24663, Note_on_c, 0, 63, 66
2, 24931, Note_on_c, 0, 56, 0
2, 24931, Note_on_c, 0, 82, 0
2, 24931, Note_on_c, 0, 75, 0
2, 24932, Control_c, 0, 64, 0
2, 24932, Note_on_c, 0, 72, 0
2, 24936, Note_on_c, 0, 60, 0
2, 24944, Note_on_c, 0, 68, 0
2, 24952, Note_on_c, 0, 63, 0
2, 24970, Note_on_c, 0, 77, 79
2, 24971, Note_on_c, 0, 74, 83
2, 24973, Note_on_c, 0, 65, 68
2, 24978, Note_on_c, 0, 62, 69
2, 24979, Note_on_c, 0, 50, 61
2, 24982, Note_on_c, 0, 58, 61
2, 25044, Control_c, 0, 64, 127
2, 25067, Note_on_c, 0, 65, 0
2, 25221, Note_on_c, 0, 62, 0
2, 25247, Note_on_c, 0, 79, 92
2, 25254, Note_on_c, 0, 75, 80
2, 25255, Note_on_c, 0, 67, 73
2, 25256, Note_on_c, 0, 63, 67
2, 25512, Note_on_c, 0, 77, 0
2, 25519, Note_on_c, 0, 80, 90
2, 25520, Note_on_c, 0, 63, 0
2, 25520, Note_on_c, 0, 65, 72
2, 25522, Note_on_c, 0, 77, 81
2, 25525, Note_on_c, 0, 68, 79
2, 25526, Note_on_c, 0, 63, 61
2, 25751, Note_on_c, 0, 63, 0
2, 25756, Note_on_c, 0, 51, 53
2, 25761, Note_on_c, 0, 63, 59
2, 25784, Note_on_c, 0, 79, 0
2, 25784, Note_on_c, 0, 74, 0
2, 25784, Note_on_c, 0, 65, 0
2, 25784, Note_on_c, 0, 75, 0
2, 25785, Note_on_c, 0, 68, 0
2, 25785, Note_on_c, 0, 80, 0
2, 25785, Note_on_c, 0, 50, 0
2, 25786, Control_c, 0, 64, 0
2, 25797, Note_on_c, 0, 77, 0
2, 25812, Note_on_c, 0, 63, 0
2, 25812, Note_on_c, 0, 67, 0
2, 25817, Note_on_c, 0, 67, 54
2, 25820, Note_on_c, 0, 58, 0
2, 25820, Note_on_c, 0, 63, 63
2, 25825, Note_on_c, 0, 58, 50
2, 25832, Note_on_c, 0, 79, 83
2, 25833, Note_on_c, 0, 75, 69
2, 25836, Note_on_c, 0, 70, 64
2, 25904, Control_c, 0, 64, 127
2, 26411, Note_on_c, 0, 70, 0
2, 26417, Note_on_c, 0, 70, 74
2, 26714, Note_on_c, 0, 72, 70
2, 26718, Note_on_c, 0, 63, 0
2, 26723, Note_on_c, 0, 60, 56
2, 26726, Note_on_c, 0, 51, 0
2, 26727, Note_on_c, 0, 79, 0
2, 26728, Note_on_c, 0, 67, 0
2, 26728, Note_on_c, 0, 75, 0
2, 26728, Note_on_c, 0, 58, 0
2, 26729, Note_on_c, 0, 70, 0
2, 26729, Note_on_c, 0, 63, 54
2, 26730, Note_on_c, 0, 68, 60
2, 26731, Control_c, 0, 64, 0
2, 26732, Note_on_c, 0, 51, 47
2, 26736, Note_on_c, 0, 56, 51
2, 26738, Note_on_c, 0, 44, 48
2, 27110, Control_c, 0, 64, 127
2, 27529, Note_on_c, 0, 41, 60
2, 27586, Note_on_c, 0, 60, 0
2, 27586, Note_on_c, 0, 63, 0
2, 27594, Note_on_c, 0, 68, 0
2, 27596, Note_on_c, 0, 63, 56
2, 27599, Note_on_c, 0, 68, 63
2, 27610, Note_on_c, 0, 44, 0
2, 27621, Control_c, 0, 64, 0
2, 27632, Note_on_c, 0, 72, 0
2, 27632, Control_c, 0, 64, 127
2, 27642, Note_on_c, 0, 72, 65
2, 27663, Note_on_c, 0, 68, 0
2, 27665, Note_on_c, 0, 75, 88
2, 27673, Note_on_c, 0, 68, 60
2, 27724, Control_c, 0, 64, 0
2, 27809, Control_c, 0, 64, 127
2, 28414, Note_on_c, 0, 46, 48
2, 28458, Note_on_c, 0, 53, 44
2, 28461, Note_on_c, 0, 65, 54
2, 28467, Note_on_c, 0, 41, 0
2, 28468, Note_on_c, 0, 75, 0
2, 28468, Note_on_c, 0, 72, 0
2, 28470, Note_on_c, 0, 56, 0
2, 28477, Note_on_c, 0, 63, 0
2, 28477, Control_c, 0, 64, 0
2, 28485, Note_on_c, 0, 51, 0
2, 28500, Note_on_c, 0, 68, 0
2, 28503, Note_on_c, 0, 58, 61
2, 28505, Note_on_c, 0, 68, 64
2, 28544, Note_on_c, 0, 75, 81
2, 28684, Control_c, 0, 64, 127
2, 29337, Note_on_c, 0, 39, 43
2, 29376, Note_on_c, 0, 46, 0
2, 29384, Note_on_c, 0, 46, 49
2, 29399, Note_on_c, 0, 53, 0
2, 29406, Note_on_c, 0, 65, 0
2, 29423, Note_on_c, 0, 58, 0
2, 29425, Control_c, 0, 64, 0
2, 29425, Note_on_c, 0, 68, 0
2, 29425, Note_on_c, 0, 75, 0
2, 29441, Note_on_c, 0, 67, 42
2, 29446, Note_on_c, 0, 70, 53
2, 29447, Note_on_c, 0, 51, 45
2, 29510, Note_on_c, 0, 75, 72
2, 29544, Note_on_c, 0, 67, 0
2, 29554, Note_on_c, 0, 67, 29
2, 29813, Control_c, 0, 64, 127
2, 30547, Note_on_c, 0, 82, 62
2, 30566, Note_on_c, 0, 67, 0
2, 30566, Note_on_c, 0, 70, 0
2, 30571, Note_on_c, 0, 70, 42
2, 30573, Note_on_c, 0, 67, 19
2, 30823, Note_on_c, 0, 84, 80
2, 30858, Note_on_c, 0, 75, 0
2, 30867, Note_on_c, 0, 72, 53
2, 30867, Note_on_c, 0, 75, 38
2, 31107, Note_on_c, 0, 86, 79
2, 31126, Note_on_c, 0, 74, 57
2, 31398, Note_on_c, 0, 39, 0
2, 31399, Note_on_c, 0, 84, 0
2, 31399, Note_on_c, 0, 51, 0
2, 31399, Note_on_c, 0, 74, 0
2, 31399, Note_on_c, 0, 72, 0
2, 31399, Note_on_c, 0, 86, 0
2, 31400, Note_on_c, 0, 82, 0
2, 31400, Note_on_c, 0, 67, 0
2, 31400, Note_on_c, 0, 70, 0
2, 31407, Control_c, 0, 64, 0
2, 31411, Note_on_c, 0, 46, 0
2, 31411, Note_on_c, 0, 75, 0
2, 31414, Note_on_c, 0, 87, 70
2, 31416, Note_on_c, 0, 60, 57
2, 31422, Note_on_c, 0, 75, 69
2, 31564, Control_c, 0, 64, 127
2, 31692, Note_on_c, 0, 63, 61
2, 31709, Note_on_c, 0, 67, 44
2, 31987, Note_on_c, 0, 67, 0
2, 31991, Note_on_c, 0, 72, 60
2, 31992, Note_on_c, 0, 67, 49
2, 32271, Note_on_c, 0, 60, 0
2, 32277, Note_on_c, 0, 60, 58
2, 32547, Note_on_c, 0, 63, 0
2, 32555, Note_on_c, 0, 63, 59
2, 32558, Note_on_c, 0, 86, 73
2, 32564, Note_on_c, 0, 74, 66
2, 32570, Note_on_c, 0, 67, 0
2, 32575, Note_on_c, 0, 67, 36
2, 32832, Note_on_c, 0, 67, 0
2, 32832, Note_on_c, 0, 87, 0
2, 32838, Note_on_c, 0, 67, 55
2, 32839, Note_on_c, 0, 72, 0
2, 32839, Note_on_c, 0, 75, 0
2, 32843, Note_on_c, 0, 87, 78
2, 32849, Note_on_c, 0, 72, 61
2, 32850, Note_on_c, 0, 75, 71
2, 33112, Note_on_c, 0, 74, 0
2, 33112, Note_on_c, 0, 86, 0
2, 33112, Note_on_c, 0, 72, 0
2, 33112, Note_on_c, 0, 67, 0
2, 33113, Note_on_c, 0, 60, 0
2, 33113, Note_on_c, 0, 75, 0
2, 33113, Note_on_c, 0, 87, 0
2, 33113, Note_on_c, 0, 63, 0
2, 33117, Control_c, 0, 64, 0
2, 33129, Note_on_c, 0, 89, 85
2, 33144, Note_on_c, 0, 59, 58
2, 33148, Note_on_c, 0, 77, 64
2, 33192, Control_c, 0, 64, 127
2, 33436, Note_on_c, 0, 62, 55
2, 33439, Note_on_c, 0, 67, 46
2, 33707, Note_on_c, 0, 67, 0
2, 33713, Note_on_c, 0, 67, 54
2, 33715, Note_on_c, 0, 71, 60
2, 33984, Note_on_c, 0, 59, 0
2, 33995, Note_on_c, 0, 59, 59
2, 34264, Note_on_c, 0, 91, 81
2, 34268, Note_on_c, 0, 62, 0
2, 34268, Note_on_c, 0, 67, 0
2, 34272, Note_on_c, 0, 62, 55
2, 34274, Note_on_c, 0, 79, 69
2, 34274, Note_on_c, 0, 67, 49
2, 34544, Note_on_c, 0, 67, 0
2, 34546, Note_on_c, 0, 92, 83
2, 34551, Note_on_c, 0, 67, 57
2, 34552, Note_on_c, 0, 71, 0
2, 34555, Note_on_c, 0, 80, 73
2, 34559, Note_on_c, 0, 71, 55
2, 34825, Note_on_c, 0, 71, 0
2, 34826, Note_on_c, 0, 67, 0
2, 34826, Note_on_c, 0, 80, 0
2, 34826, Note_on_c, 0, 62, 0
2, 34826, Note_on_c, 0, 59, 0
2, 34828, Note_on_c, 0, 91, 0
2, 34828, Note_on_c, 0, 89, 0
2, 34828, Note_on_c, 0, 77, 0
2, 34832, Control_c, 0, 64, 0
2, 34837, Note_on_c, 0, 91, 90
2, 34844, Note_on_c, 0, 79, 0
2, 34852, Note_on_c, 0, 79, 75
2, 34855, Note_on_c, 0, 70, 49
2, 34855, Note_on_c, 0, 58, 51
2, 34867, Note_on_c, 0, 92, 0
2, 34897, Control_c, 0, 64, 127
2, 35117, Note_on_c, 0, 67, 54
2, 35119, Note_on_c, 0, 63, 52
2, 35235, Note_on_c, 0, 70, 0
2, 35397, Note_on_c, 0, 58, 0
2, 35397, Note_on_c, 0, 67, 0
2, 35404, Note_on_c, 0, 67, 51
2, 35406, Note_on_c, 0, 70, 61
2, 35407, Note_on_c, 0, 58, 36
2, 35688, Note_on_c, 0, 58, 0
2, 35693, Note_on_c, 0, 58, 52
2, 35694, Note_on_c, 0, 87, 74
2, 35702, Note_on_c, 0, 75, 68
2, 35957, Note_on_c, 0, 63, 0
2, 35957, Note_on_c, 0, 67, 0
2, 35963, Note_on_c, 0, 67, 59
2, 35966, Note_on_c, 0, 63, 57
2, 36241, Note_on_c, 0, 70, 0
2, 36247, Note_on_c, 0, 70, 57
2, 36257, Note_on_c, 0, 67, 0
2, 36262, Note_on_c, 0, 67, 46
2, 36264, Note_on_c, 0, 58, 0
2, 36264, Note_on_c, 0, 63, 0
2, 36275, Note_on_c, 0, 58, 22
2, 36275, Note_on_c, 0, 63, 20
2, 36517, Note_on_c, 0, 75, 0
2, 36518, Note_on_c, 0, 79, 0
2, 36518, Note_on_c, 0, 67, 0
2, 36518, Note_on_c, 0, 63, 0
2, 36518, Note_on_c, 0, 58, 0
2, 36519, Note_on_c, 0, 70, 0
2, 36519, Note_on_c, 0, 87, 0
2, 36520, Note_on_c, 0, 91, 0
2, 36523, Control_c, 0, 64, 0
2, 36536, Note_on_c, 0, 89, 80
2, 36545, Note_on_c, 0, 77, 67
2, 36549, Note_on_c, 0, 69, 46
2, 36561, Note_on_c, 0, 57, 43
2, 36562, Note_on_c, 0, 63, 34
2, 36595, Control_c, 0, 64, 127
2, 36610, Note_on_c, 0, 63, 0
2, 36828, Note_on_c, 0, 60, 52
2, 36831, Note_on_c, 0, 65, 51
2, 36871, Note_on_c, 0, 69, 0
2, 37102, Note_on_c, 0, 65, 0
2, 37109, Note_on_c, 0, 60, 0
2, 37113, Note_on_c, 0, 65, 52
2, 37113, Note_on_c, 0, 69, 62
2, 37119, Note_on_c, 0, 60, 34
2, 37386, Note_on_c, 0, 57, 0
2, 37397, Note_on_c, 0, 57, 46
2, 37662, Note_on_c, 0, 60, 0
2, 37662, Note_on_c, 0, 65, 0
2, 37663, Note_on_c, 0, 84, 81
2, 37668, Note_on_c, 0, 65, 48
2, 37669, Note_on_c, 0, 60, 52
2, 37673, Note_on_c, 0, 72, 66
2, 37931, Note_on_c, 0, 65, 0
2, 37939, Note_on_c, 0, 69, 0
2, 37942, Note_on_c, 0, 65, 61
2, 37942, Note_on_c, 0, 86, 84
2, 37946, Note_on_c, 0, 60, 0
2, 37949, Note_on_c, 0, 74, 75
2, 37950, Note_on_c, 0, 69, 59
2, 37951, Note_on_c, 0, 60, 41
2, 38231, Note_on_c, 0, 69, 0
2, 38231, Note_on_c, 0, 72, 0
2, 38232, Note_on_c, 0, 77, 0
2, 38232, Note_on_c, 0, 84, 0
2, 38232, Note_on_c, 0, 74, 0
2, 38232, Note_on_c, 0, 60, 0
2, 38232, Note_on_c, 0, 89, 0
2, 38233, Note_on_c, 0, 86, 0
2, 38235, Control_c, 0, 64, 0
2, 38243, Note_on_c, 0, 56, 56
2, 38246, Note_on_c, 0, 57, 0
2, 38246, Note_on_c, 0, 65, 0
2, 38248, Note_on_c, 0, 87, 79
2, 38258, Note_on_c, 0, 75, 72
2, 38259, Note_on_c, 0, 68, 51
2, 38376, Control_c, 0, 64, 127
2, 38511, Note_on_c, 0, 60, 58
2, 38518, Note_on_c, 0, 63, 51
2, 38791, Note_on_c, 0, 56, 0
2, 38791, Note_on_c, 0, 60, 0
2, 38791, Note_on_c, 0, 63, 0
2, 38791, Note_on_c, 0, 68, 0
2, 38796, Note_on_c, 0, 63, 50
2, 38801, Note_on_c, 0, 56, 46
2, 38801, Note_on_c, 0, 68, 62
2, 38802, Note_on_c, 0, 60, 37
2, 39083, Note_on_c, 0, 56, 0
2, 39091, Note_on_c, 0, 56, 45
2, 39360, Note_on_c, 0, 60, 0
2, 39360, Note_on_c, 0, 63, 0
2, 39363, Note_on_c, 0, 86, 76
2, 39363, Note_on_c, 0, 60, 53
2, 39369, Note_on_c, 0, 74, 72
2, 39370, Note_on_c, 0, 63, 54
2, 39644, Note_on_c, 0, 63, 0
2, 39644, Note_on_c, 0, 68, 0
2, 39644, Note_on_c, 0, 87, 0
2, 39649, Note_on_c, 0, 87, 77
2, 39651, Note_on_c, 0, 60, 0
2, 39651, Note_on_c, 0, 75, 0
2, 39654, Note_on_c, 0, 63, 52
2, 39655, Note_on_c, 0, 68, 59
2, 39657, Note_on_c, 0, 75, 70
2, 39662, Note_on_c, 0, 60, 41
2, 39917, Note_on_c, 0, 68, 0
2, 39917, Note_on_c, 0, 86, 0
2, 39917, Note_on_c, 0, 74, 0
2, 39918, Note_on_c, 0, 63, 0
2, 39918, Note_on_c, 0, 75, 0
2, 39918, Note_on_c, 0, 56, 0
2, 39918, Note_on_c, 0, 60, 0
2, 39918, Control_c, 0, 64, 0
2, 39936, Note_on_c, 0, 87, 0
2, 39946, Note_on_c, 0, 87, 82
2, 39954, Note_on_c, 0, 55, 48
2, 39961, Note_on_c, 0, 67, 49
2, 39966, Note_on_c, 0, 67, 0
2, 39970, Note_on_c, 0, 75, 73
2, 40066, Control_c, 0, 64, 127
2, 40225, Note_on_c, 0, 63, 59
2, 40230, Note_on_c, 0, 58, 54
2, 40473, Note_on_c, 0, 63, 0
2, 40477, Note_on_c, 0, 63, 59
2, 40504, Note_on_c, 0, 67, 55
2, 40773, Note_on_c, 0, 55, 0
2, 40782, Note_on_c, 0, 82, 83
2, 40783, Note_on_c, 0, 55, 55
2, 40784, Note_on_c, 0, 70, 65
2, 41049, Note_on_c, 0, 58, 0
2, 41049, Note_on_c, 0, 63, 0
2, 41054, Note_on_c, 0, 63, 67
2, 41056, Note_on_c, 0, 58, 63
2, 41326, Note_on_c, 0, 63, 0
2, 41326, Note_on_c, 0, 67, 0
2, 41330, Note_on_c, 0, 63, 57
2, 41331, Note_on_c, 0, 67, 51
2, 41637, Note_on_c, 0, 55, 0
2, 41637, Note_on_c, 0, 70, 0
2, 41637, Note_on_c, 0, 67, 0
2, 41637, Note_on_c, 0, 58, 0
2, 41638, Note_on_c, 0, 75, 0
2, 41638, Note_on_c, 0, 87, 0
2, 41638, Note_on_c, 0, 94, 97
2, 41638, Control_c, 0, 64, 0
2, 41656, Note_on_c, 0, 63, 0
2, 41656, Note_on_c, 0, 82, 0
2, 41660, Note_on_c, 0, 82, 75
2, 41661, Note_on_c, 0, 63, 46
2, 41666, Note_on_c, 0, 53, 53
2, 41717, Note_on_c, 0, 63, 0
2, 41740, Control_c, 0, 64, 127
2, 41913, Note_on_c, 0, 63, 66
2, 41919, Note_on_c, 0, 60, 61
2, 42201, Note_on_c, 0, 63, 0
2, 42209, Note_on_c, 0, 65, 43
2, 42210, Note_on_c, 0, 63, 59
2, 42210, Note_on_c, 0, 68, 61
2, 42485, Note_on_c, 0, 53, 0
2, 42496, Note_on_c, 0, 53, 53
2, 42516, Note_on_c, 0, 63, 0
2, 42526, Note_on_c, 0, 63, 22
2, 42754, Note_on_c, 0, 60, 0
2, 42758, Note_on_c, 0, 60, 57
2, 42766, Note_on_c, 0, 92, 75
2, 42769, Note_on_c, 0, 63, 0
2, 42773, Note_on_c, 0, 63, 60
2, 42780, Note_on_c, 0, 80, 70
2, 43038, Note_on_c, 0, 63, 0
2, 43045, Note_on_c, 0, 63, 67
2, 43046, Note_on_c, 0, 68, 0
2, 43049, Note_on_c, 0, 91, 81
2, 43053, Note_on_c, 0, 68, 61
2, 43056, Note_on_c, 0, 79, 76
2, 43312, Note_on_c, 0, 68, 0
2, 43312, Note_on_c, 0, 82, 0
2, 43312, Note_on_c, 0, 79, 0
2, 43312, Note_on_c, 0, 63, 0
2, 43312, Note_on_c, 0, 94, 0
2, 43313, Note_on_c, 0, 80, 0
2, 43313, Note_on_c, 0, 60, 0
2, 43314, Note_on_c, 0, 53, 0
2, 43314, Control_c, 0, 64, 0
2, 43314, Note_on_c, 0, 91, 0
2, 43315, Note_on_c, 0, 92, 0
2, 43327, Note_on_c, 0, 89, 79
2, 43336, Note_on_c, 0, 77, 66
2, 43338, Note_on_c, 0, 65, 0
2, 43338, Note_on_c, 0, 58, 49
2, 43339, Note_on_c, 0, 70, 50
2, 43453, Control_c, 0, 64, 127
2, 43601, Note_on_c, 0, 65, 58
2, 43603, Note_on_c, 0, 62, 47
2, 43875, Note_on_c, 0, 70, 0
2, 43881, Note_on_c, 0, 70, 59
2, 43891, Note_on_c, 0, 65, 0
2, 43895, Note_on_c, 0, 65, 50
2, 44148, Note_on_c, 0, 62, 0
2, 44149, Note_on_c, 0, 65, 0
2, 44149, Note_on_c, 0, 70, 0
2, 44149, Note_on_c, 0, 77, 0
2, 44149, Note_on_c, 0, 58, 0
2, 44150, Control_c, 0, 64, 0
2, 44179, Note_on_c, 0, 59, 58
2, 44275, Control_c, 0, 64, 127
2, 44471, Note_on_c, 0, 62, 48
2, 44477, Note_on_c, 0, 87, 66
2, 44478, Note_on_c, 0, 75, 65
2, 44486, Note_on_c, 0, 67, 43
2, 44774, Note_on_c, 0, 67, 0
2, 44774, Note_on_c, 0, 89, 0
2, 44782, Note_on_c, 0, 89, 75
2, 44784, Note_on_c, 0, 67, 51
2, 44804, Note_on_c, 0, 77, 58
2, 44816, Note_on_c, 0, 71, 44
2, 45136, Note_on_c, 0, 60, 54
2, 45141, Note_on_c, 0, 91, 77
2, 45150, Note_on_c, 0, 79, 71
2, 45151, Note_on_c, 0, 59, 0
2, 45151, Note_on_c, 0, 67, 0
2, 45151, Note_on_c, 0, 62, 0
2, 45152, Note_on_c, 0, 71, 0
2, 45153, Note_on_c, 0, 89, 0
2, 45153, Note_on_c, 0, 75, 0
2, 45154, Note_on_c, 0, 77, 0
2, 45154, Control_c, 0, 64, 0
2, 45273, Control_c, 0, 64, 127
2, 45456, Note_on_c, 0, 63, 48
2, 45457, Note_on_c, 0, 67, 47
2, 45734, Note_on_c, 0, 67, 0
2, 45740, Note_on_c, 0, 72, 59
2, 45745, Note_on_c, 0, 67, 46
2, 46018, Note_on_c, 0, 60, 0
2, 46023, Note_on_c, 0, 60, 58
2, 46302, Note_on_c, 0, 63, 0
2, 46302, Note_on_c, 0, 67, 0
2, 46302, Note_on_c, 0, 87, 0
2, 46307, Note_on_c, 0, 67, 55
2, 46308, Note_on_c, 0, 63, 53
2, 46310, Note_on_c, 0, 87, 71
2, 46312, Note_on_c, 0, 75, 64
2, 46579, Note_on_c, 0, 79, 0
2, 46579, Note_on_c, 0, 91, 0
2, 46588, Note_on_c, 0, 91, 82
2, 46589, Note_on_c, 0, 79, 80
2, 46594, Note_on_c, 0, 60, 0
2, 46594, Note_on_c, 0, 67, 0
2, 46603, Note_on_c, 0, 67, 47
2, 46604, Note_on_c, 0, 72, 0
2, 46605, Note_on_c, 0, 60, 35
2, 46888, Control_c, 0, 64, 0
2, 46889, Note_on_c, 0, 87, 0
2, 46889, Note_on_c, 0, 63, 0
2, 46889, Note_on_c, 0, 75, 0
2, 46890, Note_on_c, 0, 60, 0
2, 46890, Note_on_c, 0, 98, 90
2, 46891, Note_on_c, 0, 91, 0
2, 46893, Note_on_c, 0, 59, 66
2, 46906, Note_on_c, 0, 86, 71
2, 46909, Note_on_c, 0, 79, 0
2, 46917, Note_on_c, 0, 67, 0
2, 46921, Note_on_c, 0, 67, 30
2, 46970, Control_c, 0, 64, 127
2, 47162, Note_on_c, 0, 67, 0
2, 47167, Note_on_c, 0, 62, 49
2, 47168, Note_on_c, 0, 67, 47
2, 47445, Note_on_c, 0, 71, 69
2, 47447, Note_on_c, 0, 67, 0
2, 47451, Note_on_c, 0, 67, 57
2, 47723, Note_on_c, 0, 67, 0
2, 47731, Note_on_c, 0, 59, 0
2, 47733, Note_on_c, 0, 99, 80
2, 47733, Note_on_c, 0, 67, 51
2, 47737, Note_on_c, 0, 59, 63
2, 47741, Note_on_c, 0, 87, 68
2, 48015, Note_on_c, 0, 62, 0
2, 48015, Note_on_c, 0, 67, 0
2, 48019, Note_on_c, 0, 67, 52
2, 48019, Note_on_c, 0, 62, 62
2, 48276, Note_on_c, 0, 67, 0
2, 48276, Note_on_c, 0, 71, 0
2, 48285, Note_on_c, 0, 71, 63
2, 48287, Note_on_c, 0, 67, 54
2, 48573, Note_on_c, 0, 99, 0
2, 48573, Note_on_c, 0, 98, 0
2, 48574, Note_on_c, 0, 87, 0
2, 48574, Note_on_c, 0, 86, 0
2, 48575, Note_on_c, 0, 71, 0
2, 48575, Note_on_c, 0, 67, 0
2, 48576, Note_on_c, 0, 62, 0
2, 48576, Note_on_c, 0, 59, 0
2, 48579, Control_c, 0, 64, 0
2, 48587, Note_on_c, 0, 101, 90
2, 48599, Note_on_c, 0, 89, 75
2, 48615, Note_on_c, 0, 58, 55
2, 48645, Control_c, 0, 64, 127
2, 48872, Note_on_c, 0, 63, 60
2, 48877, Note_on_c, 0, 67, 50
2, 49144, Note_on_c, 0, 67, 0
2, 49149, Note_on_c, 0, 67, 67
2, 49154, Note_on_c, 0, 70, 63
2, 49454, Note_on_c, 0, 103, 88
2, 49457, Note_on_c, 0, 91, 86
2, 49466, Note_on_c, 0, 58, 0
2, 49471, Note_on_c, 0, 58, 54
2, 49735, Note_on_c, 0, 63, 0
2, 49743, Note_on_c, 0, 67, 0
2, 49743, Note_on_c, 0, 63, 61
2, 49754, Note_on_c, 0, 67, 54
2, 50050, Note_on_c, 0, 70, 0
2, 50058, Note_on_c, 0, 67, 0
2, 50061, Note_on_c, 0, 70, 62
2, 50063, Note_on_c, 0, 67, 52
2, 50377, Note_on_c, 0, 67, 0
2, 50379, Note_on_c, 0, 58, 0
2, 50379, Note_on_c, 0, 63, 0
2, 50381, Note_on_c, 0, 101, 0
2, 50384, Control_c, 0, 64, 0
2, 50386, Note_on_c, 0, 91, 0
2, 50388, Note_on_c, 0, 103, 0
2, 50391, Note_on_c, 0, 93, 87
2, 50395, Note_on_c, 0, 57, 50
2, 50396, Note_on_c, 0, 70, 0
2, 50405, Note_on_c, 0, 69, 54
2, 50407, Note_on_c, 0, 84, 69
2, 50411, Note_on_c, 0, 89, 0
2, 50412, Note_on_c, 0, 81, 67
2, 50415, Note_on_c, 0, 89, 66
2, 50457, Control_c, 0, 64, 127
2, 50721, Note_on_c, 0, 60, 53
2, 50722, Note_on_c, 0, 65, 42
2, 51025, Note_on_c, 0, 65, 0
2, 51035, Note_on_c, 0, 65, 50
2, 51056, Note_on_c, 0, 60, 0
2, 51064, Note_on_c, 0, 69, 0
2, 51068, Note_on_c, 0, 60, 26
2, 51068, Note_on_c, 0, 69, 51
2, 51471, Note_on_c, 0, 69, 0
2, 51476, Note_on_c, 0, 69, 44
2, 51492, Note_on_c, 0, 72, 50
2, 51496, Note_on_c, 0, 63, 15
2, 51502, Note_on_c, 0, 63, 0
2, 52285, Note_on_c, 0, 72, 0
2, 52291, Note_on_c, 0, 72, 84
2, 52634, Note_on_c, 0, 74, 88
2, 52838, Note_on_c, 0, 41, 57
2, 52965, Note_on_c, 0, 81, 0
2, 52965, Note_on_c, 0, 84, 0
2, 52965, Note_on_c, 0, 93, 0
2, 52965, Note_on_c, 0, 72, 0
2, 52965, Note_on_c, 0, 74, 0
2, 52965, Note_on_c, 0, 89, 0
2, 52966, Note_on_c, 0, 69, 0
2, 52966, Note_on_c, 0, 60, 0
2, 52966, Note_on_c, 0, 57, 0
2, 52967, Note_on_c, 0, 51, 63
2, 52971, Control_c, 0, 64, 0
2, 52972, Note_on_c, 0, 63, 66
2, 52992, Note_on_c, 0, 65, 0
2, 53009, Note_on_c, 0, 68, 75
2, 53036, Note_on_c, 0, 72, 71
2, 53042, Note_on_c, 0, 56, 65
2, 53068, Control_c, 0, 64, 127
2, 53077, Note_on_c, 0, 75, 89
2, 53191, Note_on_c, 0, 63, 0
2, 53199, Note_on_c, 0, 68, 0
2, 53401, Note_on_c, 0, 82, 90
2, 53407, Note_on_c, 0, 70, 75
2, 53660, Note_on_c, 0, 82, 0
2, 53663, Note_on_c, 0, 53, 57
2, 53665, Note_on_c, 0, 82, 85
2, 53667, Note_on_c, 0, 56, 0
2, 53670, Note_on_c, 0, 65, 61
2, 53671, Note_on_c, 0, 60, 57
2, 53675, Note_on_c, 0, 70, 0
2, 53677, Note_on_c, 0, 56, 52
2, 53684, Note_on_c, 0, 70, 66
2, 53952, Note_on_c, 0, 60, 0
2, 53958, Note_on_c, 0, 63, 72
2, 53958, Note_on_c, 0, 60, 67
2, 53959, Note_on_c, 0, 56, 0
2, 53966, Note_on_c, 0, 56, 59
2, 54167, Note_on_c, 0, 63, 0
2, 54171, Note_on_c, 0, 63, 43
2, 54244, Note_on_c, 0, 80, 90
2, 54504, Note_on_c, 0, 60, 0
2, 54511, Note_on_c, 0, 60, 65
2, 54512, Note_on_c, 0, 63, 0
2, 54517, Note_on_c, 0, 79, 91
2, 54517, Note_on_c, 0, 63, 66
2, 54524, Note_on_c, 0, 68, 65
2, 54789, Note_on_c, 0, 63, 0
2, 54789, Note_on_c, 0, 68, 0
2, 54789, Note_on_c, 0, 72, 0
2, 54792, Note_on_c, 0, 72, 76
2, 54794, Note_on_c, 0, 63, 64
2, 54795, Note_on_c, 0, 68, 77
2, 55078, Note_on_c, 0, 77, 87
2, 55349, Note_on_c, 0, 63, 0
2, 55357, Note_on_c, 0, 60, 0
2, 55357, Note_on_c, 0, 68, 0
2, 55357, Note_on_c, 0, 75, 0
2, 55360, Note_on_c, 0, 63, 74
2, 55363, Note_on_c, 0, 75, 85
2, 55366, Note_on_c, 0, 60, 59
2, 55366, Note_on_c, 0, 68, 63
2, 55641, Note_on_c, 0, 63, 0
2, 55653, Note_on_c, 0, 63, 65
2, 55664, Note_on_c, 0, 60, 0
2, 55668, Note_on_c, 0, 60, 62
2, 55680, Note_on_c, 0, 41, 0
2, 55680, Note_on_c, 0, 51, 0
2, 55680, Note_on_c, 0, 65, 0
2, 55680, Note_on_c, 0, 82, 0
2, 55933, Note_on_c, 0, 75, 0
2, 55938, Note_on_c, 0, 75, 87
2, 56194, Note_on_c, 0, 56, 0
2, 56200, Note_on_c, 0, 56, 78
2, 56202, Note_on_c, 0, 53, 0
2, 56202, Note_on_c, 0, 70, 0
2, 56206, Note_on_c, 0, 70, 73
2, 56212, Note_on_c, 0, 53, 70
2, 56452, Note_on_c, 0, 34, 63
2, 56455, Note_on_c, 0, 63, 0
2, 56460, Note_on_c, 0, 56, 0
2, 56465, Note_on_c, 0, 70, 0
2, 56466, Control_c, 0, 64, 0
2, 56466, Note_on_c, 0, 53, 0
2, 56467, Note_on_c, 0, 63, 63
2, 56467, Note_on_c, 0, 75, 0
2, 56469, Note_on_c, 0, 60, 0
2, 56486, Note_on_c, 0, 80, 0
2, 56494, Note_on_c, 0, 79, 0
2, 56497, Note_on_c, 0, 46, 71
2, 56501, Note_on_c, 0, 68, 0
2, 56513, Note_on_c, 0, 68, 73
2, 56517, Note_on_c, 0, 72, 0
2, 56517, Note_on_c, 0, 77, 0
2, 56526, Note_on_c, 0, 72, 85
2, 56544, Note_on_c, 0, 75, 94
2, 56578, Control_c, 0, 64, 127
2, 56609, Note_on_c, 0, 34, 0
2, 56833, Note_on_c, 0, 82, 94
2, 56837, Note_on_c, 0, 70, 66
2, 57100, Note_on_c, 0, 70, 0
2, 57100, Note_on_c, 0, 82, 0
2, 57101, Note_on_c, 0, 56, 57
2, 57101, Note_on_c, 0, 60, 60
2, 57104, Note_on_c, 0, 82, 94
2, 57112, Note_on_c, 0, 70, 71
2, 57115, Note_on_c, 0, 53, 55
2, 57377, Note_on_c, 0, 63, 0
2, 57384, Note_on_c, 0, 56, 0
2, 57384, Note_on_c, 0, 60, 0
2, 57387, Note_on_c, 0, 63, 74
2, 57390, Note_on_c, 0, 56, 62
2, 57390, Note_on_c, 0, 60, 69
2, 57675, Note_on_c, 0, 80, 89
2, 57945, Note_on_c, 0, 60, 0
2, 57945, Note_on_c, 0, 63, 0
2, 57945, Note_on_c, 0, 75, 0
2, 57950, Note_on_c, 0, 79, 88
2, 57955, Note_on_c, 0, 60, 63
2, 57955, Note_on_c, 0, 63, 66
2, 57957, Note_on_c, 0, 75, 68
2, 57991, Note_on_c, 0, 68, 0
2, 57999, Note_on_c, 0, 68, 42
2, 58229, Note_on_c, 0, 72, 0
2, 58235, Note_on_c, 0, 72, 76
2, 58237, Note_on_c, 0, 63, 0
2, 58237, Note_on_c, 0, 68, 0
2, 58241, Note_on_c, 0, 68, 74
2, 58242, Note_on_c, 0, 63, 60
2, 58515, Note_on_c, 0, 77, 87
2, 58782, Note_on_c, 0, 63, 0
2, 58787, Note_on_c, 0, 63, 67
2, 58790, Note_on_c, 0, 60, 0
2, 58790, Note_on_c, 0, 68, 0
2, 58798, Note_on_c, 0, 75, 0
2, 58800, Note_on_c, 0, 60, 65
2, 58801, Note_on_c, 0, 68, 63
2, 58801, Note_on_c, 0, 75, 86
2, 59074, Note_on_c, 0, 63, 0
2, 59082, Note_on_c, 0, 56, 0
2, 59082, Note_on_c, 0, 60, 0
2, 59083, Note_on_c, 0, 63, 65
2, 59090, Note_on_c, 0, 56, 60
2, 59091, Note_on_c, 0, 60, 66
2, 59366, Note_on_c, 0, 75, 0
2, 59372, Note_on_c, 0, 75, 86
2, 59520, Note_on_c, 0, 46, 0
2, 59520, Note_on_c, 0, 70, 0
2, 59520, Note_on_c, 0, 82, 0
2, 59650, Note_on_c, 0, 56, 0
2, 59658, Note_on_c, 0, 53, 0
2, 59660, Note_on_c, 0, 56, 54
2, 59662, Note_on_c, 0, 74, 93
2, 59667, Note_on_c, 0, 53, 52
2, 59965, Note_on_c, 0, 72, 0
2, 59976, Note_on_c, 0, 72, 82
2, 59986, Note_on_c, 0, 56, 0
2, 59986, Note_on_c, 0, 63, 0
2, 59987, Note_on_c, 0, 60, 0
2, 59987, Note_on_c, 0, 79, 0
2, 59987, Control_c, 0, 64, 0
2, 59987, Note_on_c, 0, 80, 0
2, 59988, Note_on_c, 0, 68, 0
2, 59989, Note_on_c, 0, 75, 0
2, 59989, Note_on_c, 0, 77, 0
2, 59989, Note_on_c, 0, 74, 0
2, 59989, Note_on_c, 0, 53, 0
2, 59991, Note_on_c, 0, 62, 58
2, 59992, Note_on_c, 0, 46, 54
2, 59994, Note_on_c, 0, 68, 63
2, 60211, Control_c, 0, 64, 127
2, 60252, Note_on_c, 0, 53, 56
2, 60522, Note_on_c, 0, 56, 51
2, 60812, Note_on_c, 0, 70, 76
2, 60821, Note_on_c, 0, 58, 49
2, 60823, Control_c, 0, 64, 0
2, 60879, Note_on_c, 0, 72, 0
2, 60917, Control_c, 0, 64, 127
2, 61111, Note_on_c, 0, 60, 57
2, 61413, Note_on_c, 0, 63, 58
2, 61747, Note_on_c, 0, 62, 0
2, 61753, Note_on_c, 0, 62, 44
2, 61754, Note_on_c, 0, 65, 57
2, 61791, Note_on_c, 0, 63, 0
2, 61794, Note_on_c, 0, 60, 0
2, 61796, Note_on_c, 0, 56, 0
2, 61796, Note_on_c, 0, 68, 0
2, 61800, Control_c, 0, 64, 0
2, 62184, Control_c, 0, 64, 127
2, 62937, Note_on_c, 0, 65, 0
2, 62945, Note_on_c, 0, 65, 60
2, 62945, Note_on_c, 0, 58, 0
2, 62945, Note_on_c, 0, 70, 0
2, 62948, Note_on_c, 0, 68, 68
2, 62950, Note_on_c, 0, 58, 46
2, 62954, Note_on_c, 0, 70, 73
2, 63013, Note_on_c, 0, 62, 0
2, 63016, Note_on_c, 0, 46, 0
2, 63016, Note_on_c, 0, 53, 0
2, 63271, Note_on_c, 0, 75, 94
2, 63547, Note_on_c, 0, 77, 91
2, 63548, Note_on_c, 0, 46, 63
2, 63575, Note_on_c, 0, 68, 0
2, 63581, Note_on_c, 0, 68, 33
2, 63804, Note_on_c, 0, 75, 0
2, 63804, Note_on_c, 0, 68, 0
2, 63806, Note_on_c, 0, 46, 0
2, 63808, Note_on_c, 0, 77, 0
2, 63810, Control_c, 0, 64, 0
2, 63813, Note_on_c, 0, 58, 0
2, 63813, Note_on_c, 0, 65, 0
2, 63820, Note_on_c, 0, 70, 0
2, 63831, Note_on_c, 0, 79, 87
2, 63848, Note_on_c, 0, 58, 71
2, 63850, Note_on_c, 0, 75, 75
2, 63852, Note_on_c, 0, 51, 57
2, 63854, Note_on_c, 0, 67, 62
2, 63863, Note_on_c, 0, 70, 55
2, 63905, Control_c, 0, 64, 127
2, 63959, Note_on_c, 0, 67, 0
2, 63969, Note_on_c, 0, 68, 72
2, 64120, Note_on_c, 0, 77, 83
2, 64122, Note_on_c, 0, 67, 64
2, 64269, Note_on_c, 0, 65, 69
2, 64404, Note_on_c, 0, 75, 0
2, 64410, Note_on_c, 0, 63, 75
2, 64410, Note_on_c, 0, 75, 85
2, 64543, Note_on_c, 0, 62, 72
2, 64688, Note_on_c, 0, 70, 0
2, 64696, Note_on_c, 0, 51, 0
2, 64696, Note_on_c, 0, 68, 0
2, 64699, Note_on_c, 0, 60, 72
2, 64699, Note_on_c, 0, 72, 85
2, 64705, Note_on_c, 0, 67, 0
2, 64706, Note_on_c, 0, 62, 0
2, 64706, Note_on_c, 0, 63, 0
2, 64706, Note_on_c, 0, 68, 78
2, 64707, Note_on_c, 0, 51, 63
2, 64707, Note_on_c, 0, 65, 0
2, 64707, Note_on_c, 0, 77, 0
2, 64708, Note_on_c, 0, 75, 0
2, 64708, Control_c, 0, 64, 0
2, 64711, Note_on_c, 0, 79, 0
2, 64719, Note_on_c, 0, 58, 0
2, 64803, Control_c, 0, 64, 127
2, 64837, Note_on_c, 0, 62, 67
2, 64957, Note_on_c, 0, 60, 0
2, 64961, Note_on_c, 0, 60, 71
2, 64961, Note_on_c, 0, 70, 77
2, 65107, Note_on_c, 0, 58, 70
2, 65241, Note_on_c, 0, 68, 0
2, 65247, Note_on_c, 0, 56, 71
2, 65252, Note_on_c, 0, 68, 80
2, 65372, Note_on_c, 0, 60, 0
2, 65378, Note_on_c, 0, 60, 72
2, 65506, Note_on_c, 0, 60, 0
2, 65506, Note_on_c, 0, 62, 0
2, 65506, Note_on_c, 0, 72, 0
2, 65506, Note_on_c, 0, 56, 0
2, 65507, Control_c, 0, 64, 0
2, 65518, Note_on_c, 0, 70, 0
2, 65525, Note_on_c, 0, 58, 0
2, 65525, Note_on_c, 0, 68, 0
2, 65527, Note_on_c, 0, 70, 78
2, 65532, Note_on_c, 0, 58, 64
2, 65533, Note_on_c, 0, 51, 0
2, 65537, Note_on_c, 0, 51, 50
2, 65538, Note_on_c, 0, 67, 61
2, 65640, Control_c, 0, 64, 127
2, 65683, Note_on_c, 0, 55, 63
2, 65817, Note_on_c, 0, 58, 0
2, 65828, Note_on_c, 0, 58, 61
2, 65959, Note_on_c, 0, 63, 58
2, 66117, Note_on_c, 0, 67, 0
2, 66124, Note_on_c, 0, 67, 60
2, 66255, Note_on_c, 0, 58, 0
2, 66260, Note_on_c, 0, 58, 67
2, 66393, Note_on_c, 0, 67, 0
2, 66393, Note_on_c, 0, 70, 0
2, 66397, Note_on_c, 0, 67, 67
2, 66397, Note_on_c, 0, 70, 77
2, 66534, Note_on_c, 0, 68, 76
2, 66662, Note_on_c, 0, 67, 0
2, 66668, Note_on_c, 0, 67, 77
2, 66673, Note_on_c, 0, 75, 89
2, 66793, Note_on_c, 0, 65, 74
2, 66931, Note_on_c, 0, 63, 0
2, 66938, Note_on_c, 0, 63, 78
2, 66941, Note_on_c, 0, 77, 85
2, 67072, Note_on_c, 0, 62, 74
2, 67172, Note_on_c, 0, 65, 0
2, 67173, Note_on_c, 0, 67, 0
2, 67173, Note_on_c, 0, 62, 0
2, 67173, Note_on_c, 0, 68, 0
2, 67173, Note_on_c, 0, 51, 0
2, 67173, Note_on_c, 0, 63, 0
2, 67173, Note_on_c, 0, 70, 0
2, 67174, Note_on_c, 0, 75, 0
2, 67174, Note_on_c, 0, 77, 0
2, 67175, Note_on_c, 0, 55, 0
2, 67178, Control_c, 0, 64, 0
2, 67184, Note_on_c, 0, 58, 0
2, 67216, Note_on_c, 0, 79, 91
2, 67225, Note_on_c, 0, 75, 85
2, 67227, Note_on_c, 0, 67, 74
2, 67227, Note_on_c, 0, 55, 66
2, 67228, Note_on_c, 0, 72, 70
2, 67231, Note_on_c, 0, 48, 66
2, 67284, Control_c, 0, 64, 127
2, 67389, Note_on_c, 0, 62, 60
2, 67510, Note_on_c, 0, 63, 70
2, 67511, Note_on_c, 0, 77, 84
2, 67630, Note_on_c, 0, 62, 0
2, 67637, Note_on_c, 0, 62, 72
2, 67776, Note_on_c, 0, 79, 0
2, 67781, Note_on_c, 0, 79, 83
2, 67782, Note_on_c, 0, 60, 66
2, 67908, Note_on_c, 0, 58, 72
2, 68050, Control_c, 0, 64, 0
2, 68050, Note_on_c, 0, 63, 0
2, 68052, Note_on_c, 0, 67, 0
2, 68053, Note_on_c, 0, 62, 0
2, 68053, Note_on_c, 0, 60, 0
2, 68054, Note_on_c, 0, 55, 0
2, 68054, Note_on_c, 0, 77, 0
2, 68054, Note_on_c, 0, 58, 0
2, 68054, Note_on_c, 0, 79, 0
2, 68060, Note_on_c, 0, 48, 0
2, 68060, Note_on_c, 0, 75, 0
2, 68063, Note_on_c, 0, 80, 89
2, 68067, Note_on_c, 0, 72, 0
2, 68069, Note_on_c, 0, 48, 64
2, 68071, Note_on_c, 0, 75, 83
2, 68073, Note_on_c, 0, 56, 66
2, 68073, Note_on_c, 0, 72, 73
2, 68078, Note_on_c, 0, 68, 73
2, 68167, Control_c, 0, 64, 127
2, 68227, Note_on_c, 0, 58, 71
2, 68343, Note_on_c, 0, 60, 69
2, 68459, Note_on_c, 0, 58, 0
2, 68465, Note_on_c, 0, 58, 72
2, 68597, Note_on_c, 0, 56, 0
2, 68607, Note_on_c, 0, 56, 72
2, 68632, Note_on_c, 0, 79, 85
2, 68748, Note_on_c, 0, 55, 71
2, 68909, Note_on_c, 0, 58, 0
2, 68909, Note_on_c, 0, 68, 0
2, 68909, Note_on_c, 0, 75, 0
2, 68909, Note_on_c, 0, 60, 0
2, 68910, Note_on_c, 0, 72, 0
2, 68910, Note_on_c, 0, 56, 0
2, 68911, Note_on_c, 0, 80, 0
2, 68911, Note_on_c, 0, 79, 0
2, 68911, Note_on_c, 0, 55, 0
2, 68913, Note_on_c, 0, 48, 0
2, 68916, Control_c, 0, 64, 0
2, 68921, Note_on_c, 0, 77, 84
2, 68934, Note_on_c, 0, 50, 59
2, 68935, Note_on_c, 0, 74, 76
2, 68939, Note_on_c, 0, 53, 56
2, 68944, Note_on_c, 0, 70, 64
2, 69057, Note_on_c, 0, 58, 70
2, 69073, Control_c, 0, 64, 127
2, 69194, Note_on_c, 0, 62, 69
2, 69321, Note_on_c, 0, 65, 65
2, 69480, Note_on_c, 0, 70, 0
2, 69492, Note_on_c, 0, 70, 73
2, 69603, Note_on_c, 0, 58, 0
2, 69610, Note_on_c, 0, 58, 66
2, 69768, Note_on_c, 0, 63, 74
2, 69774, Note_on_c, 0, 79, 93
2, 69895, Note_on_c, 0, 62, 0
2, 69900, Note_on_c, 0, 62, 73
2, 70041, Note_on_c, 0, 63, 0
2, 70050, Note_on_c, 0, 80, 98
2, 70050, Note_on_c, 0, 63, 79
2, 70187, Note_on_c, 0, 65, 0
2, 70194, Note_on_c, 0, 65, 76
2, 70325, Note_on_c, 0, 70, 0
2, 70336, Note_on_c, 0, 70, 84
2, 70337, Note_on_c, 0, 82, 100
2, 70341, Note_on_c, 0, 58, 0
2, 70464, Note_on_c, 0, 74, 0
2, 70471, Note_on_c, 0, 74, 83
2, 70614, Note_on_c, 0, 63, 0
2, 70614, Note_on_c, 0, 80, 0
2, 70614, Note_on_c, 0, 62, 0
2, 70615, Note_on_c, 0, 50, 0
2, 70615, Note_on_c, 0, 53, 0
2, 70615, Note_on_c, 0, 70, 0
2, 70615, Note_on_c, 0, 74, 0
2, 70615, Note_on_c, 0, 79, 0
2, 70615, Note_on_c, 0, 77, 0
2, 70619, Control_c, 0, 64, 0
2, 70625, Note_on_c, 0, 82, 0
2, 70632, Note_on_c, 0, 82, 97
2, 70632, Note_on_c, 0, 65, 0
2, 70641, Note_on_c, 0, 72, 87
2, 70642, Note_on_c, 0, 56, 67
2, 70644, Note_on_c, 0, 44, 66
2, 70649, Note_on_c, 0, 51, 62
2, 70702, Control_c, 0, 64, 127
2, 70765, Note_on_c, 0, 74, 78
2, 70770, Note_on_c, 0, 68, 54
2, 70910, Note_on_c, 0, 75, 75
2, 71033, Note_on_c, 0, 70, 64
2, 71147, Note_on_c, 0, 75, 0
2, 71153, Note_on_c, 0, 75, 89
2, 71170, Note_on_c, 0, 68, 0
2, 71174, Note_on_c, 0, 68, 73
2, 71297, Note_on_c, 0, 67, 70
2, 71395, Note_on_c, 0, 74, 0
2, 71395, Note_on_c, 0, 68, 0
2, 71395, Note_on_c, 0, 51, 0
2, 71396, Note_on_c, 0, 67, 0
2, 71396, Note_on_c, 0, 70, 0
2, 71396, Note_on_c, 0, 75, 0
2, 71396, Note_on_c, 0, 72, 0
2, 71396, Note_on_c, 0, 56, 0
2, 71396, Note_on_c, 0, 82, 0
2, 71397, Note_on_c, 0, 44, 0
2, 71397, Control_c, 0, 64, 0
2, 71442, Note_on_c, 0, 77, 90
2, 71445, Note_on_c, 0, 46, 66
2, 71447, Note_on_c, 0, 65, 79
2, 71448, Note_on_c, 0, 53, 64
2, 71449, Note_on_c, 0, 74, 74
2, 71453, Note_on_c, 0, 70, 71
2, 71508, Control_c, 0, 64, 127
2, 71575, Note_on_c, 0, 58, 76
2, 71577, Note_on_c, 0, 53, 0
2, 71715, Note_on_c, 0, 65, 0
2, 71721, Note_on_c, 0, 65, 67
2, 71738, Note_on_c, 0, 70, 0
2, 71738, Note_on_c, 0, 77, 0
2, 71743, Note_on_c, 0, 77, 65
2, 71748, Note_on_c, 0, 70, 54
2, 71750, Note_on_c, 0, 79, 78
2, 71857, Note_on_c, 0, 67, 79
2, 71999, Note_on_c, 0, 80, 89
2, 72003, Note_on_c, 0, 68, 74
2, 72007, Note_on_c, 0, 70, 0
2, 72011, Note_on_c, 0, 75, 50
2, 72015, Note_on_c, 0, 70, 51
2, 72130, Note_on_c, 0, 58, 0
2, 72140, Note_on_c, 0, 58, 73
2, 72255, Note_on_c, 0, 74, 0
2, 72255, Note_on_c, 0, 80, 0
2, 72255, Note_on_c, 0, 67, 0
2, 72255, Note_on_c, 0, 68, 0
2, 72255, Note_on_c, 0, 65, 0
2, 72256, Note_on_c, 0, 46, 0
2, 72256, Note_on_c, 0, 70, 0
2, 72256, Note_on_c, 0, 77, 0
2, 72257, Control_c, 0, 64, 0
2, 72276, Note_on_c, 0, 58, 0
2, 72284, Note_on_c, 0, 79, 0
2, 72295, Note_on_c, 0, 79, 86
2, 72299, Note_on_c, 0, 75, 0
2, 72304, Note_on_c, 0, 58, 62
2, 72308, Note_on_c, 0, 75, 77
2, 72310, Note_on_c, 0, 70, 70
2, 72314, Note_on_c, 0, 67, 64
2, 72315, Note_on_c, 0, 51, 57
2, 72331, Note_on_c, 0, 63, 56
2, 72368, Control_c, 0, 64, 127
2, 72453, Note_on_c, 0, 58, 0
2, 72457, Note_on_c, 0, 65, 60
2, 72460, Note_on_c, 0, 58, 54
2, 72576, Note_on_c, 0, 63, 0
2, 72580, Note_on_c, 0, 63, 71
2, 72714, Note_on_c, 0, 62, 65
2, 72844, Note_on_c, 0, 70, 0
2, 72853, Note_on_c, 0, 60, 67
2, 72855, Note_on_c, 0, 70, 80
2, 72960, Note_on_c, 0, 58, 0
2, 72971, Note_on_c, 0, 58, 71
2, 73109, Note_on_c, 0, 62, 0
2, 73109, Note_on_c, 0, 63, 0
2, 73110, Note_on_c, 0, 67, 0
2, 73110, Note_on_c, 0, 75, 0
2, 73110, Note_on_c, 0, 70, 0
2, 73110, Note_on_c, 0, 58, 0
2, 73110, Note_on_c, 0, 51, 0
2, 73111, Note_on_c, 0, 79, 0
2, 73111, Control_c, 0, 64, 0
2, 73121, Note_on_c, 0, 65, 0
2, 73136, Note_on_c, 0, 60, 0
2, 73140, Note_on_c, 0, 72, 87
2, 73147, Note_on_c, 0, 60, 76
2, 73148, Note_on_c, 0, 44, 67
2, 73154, Note_on_c, 0, 51, 62
2, 73155, Note_on_c, 0, 68, 77
2, 73205, Control_c, 0, 64, 127
2, 73267, Note_on_c, 0, 60, 0
2, 73299, Note_on_c, 0, 56, 59
2, 73427, Note_on_c, 0, 60, 69
2, 73566, Note_on_c, 0, 62, 70
2, 73704, Note_on_c, 0, 68, 0
2, 73706, Note_on_c, 0, 63, 70
2, 73712, Note_on_c, 0, 68, 53
2, 73827, Note_on_c, 0, 56, 0
2, 73832, Note_on_c, 0, 56, 51
2, 73940, Note_on_c, 0, 60, 0
2, 73940, Note_on_c, 0, 68, 0
2, 73941, Note_on_c, 0, 62, 0
2, 73941, Note_on_c, 0, 51, 0
2, 73941, Note_on_c, 0, 63, 0
2, 73941, Note_on_c, 0, 56, 0
2, 73941, Note_on_c, 0, 72, 0
2, 73943, Note_on_c, 0, 44, 0
2, 73944, Control_c, 0, 64, 0
2, 73984, Note_on_c, 0, 75, 93
2, 73993, Note_on_c, 0, 41, 70
2, 73994, Note_on_c, 0, 72, 77
2, 73999, Note_on_c, 0, 53, 71
2, 74000, Note_on_c, 0, 68, 74
2, 74006, Note_on_c, 0, 69, 63
2, 74012, Note_on_c, 0, 69, 0
2, 74027, Control_c, 0, 64, 127
2, 74058, Note_on_c, 0, 53, 0
2, 74161, Note_on_c, 0, 55, 60
2, 74279, Note_on_c, 0, 56, 64
2, 74422, Note_on_c, 0, 60, 66
2, 74553, Note_on_c, 0, 63, 71
2, 74676, Note_on_c, 0, 67, 69
2, 74695, Note_on_c, 0, 41, 0
2, 74790, Note_on_c, 0, 56, 0
2, 74790, Note_on_c, 0, 68, 0
2, 74790, Note_on_c, 0, 55, 0
2, 74791, Note_on_c, 0, 63, 0
2, 74791, Note_on_c, 0, 60, 0
2, 74791, Note_on_c, 0, 67, 0
2, 74791, Control_c, 0, 64, 0
2, 74818, Note_on_c, 0, 75, 0
2, 74828, Note_on_c, 0, 75, 88
2, 74834, Note_on_c, 0, 58, 73
2, 74838, Note_on_c, 0, 46, 68
2, 74838, Note_on_c, 0, 68, 74
2, 74841, Note_on_c, 0, 72, 0
2, 74903, Note_on_c, 0, 58, 0
2, 74910, Control_c, 0, 64, 127
2, 74969, Note_on_c, 0, 65, 72
2, 75018, Note_on_c, 0, 46, 0
2, 75105, Note_on_c, 0, 62, 67
2, 75245, Note_on_c, 0, 58, 64
2, 75388, Note_on_c, 0, 56, 59
2, 75483, Note_on_c, 0, 53, 61
2, 75661, Note_on_c, 0, 68, 0
2, 75661, Note_on_c, 0, 65, 0
2, 75662, Note_on_c, 0, 62, 0
2, 75662, Note_on_c, 0, 58, 0
2, 75663, Note_on_c, 0, 56, 0
2, 75664, Control_c, 0, 64, 0
2, 75664, Note_on_c, 0, 53, 0
2, 75671, Note_on_c, 0, 75, 0
2, 75679, Note_on_c, 0, 75, 82
2, 75688, Note_on_c, 0, 67, 65
2, 75692, Note_on_c, 0, 51, 55
2, 75692, Note_on_c, 0, 70, 70
2, 75793, Control_c, 0, 64, 127
2, 75835, Note_on_c, 0, 58, 60
2, 75967, Note_on_c, 0, 63, 59
2, 75978, Note_on_c, 0, 51, 0
2, 76113, Note_on_c, 0, 65, 52
2, 76254, Note_on_c, 0, 67, 0
2, 76265, Note_on_c, 0, 67, 49
2, 76377, Note_on_c, 0, 70, 0
2, 76382, Note_on_c, 0, 70, 68
2, 76575, Note_on_c, 0, 91, 77
2, 76584, Note_on_c, 0, 75, 0
2, 76595, Note_on_c, 0, 75, 59
2, 76597, Note_on_c, 0, 79, 62
2, 76881, Note_on_c, 0, 92, 68
2, 76886, Note_on_c, 0, 80, 70
2, 77176, Note_on_c, 0, 94, 82
2, 77193, Note_on_c, 0, 82, 67
2, 77491, Note_on_c, 0, 94, 0
2, 77495, Note_on_c, 0, 92, 0
2, 77496, Note_on_c, 0, 65, 0
2, 77497, Control_c, 0, 64, 0
2, 77497, Note_on_c, 0, 91, 0
2, 77497, Note_on_c, 0, 80, 0
2, 77498, Note_on_c, 0, 63, 0
2, 77498, Note_on_c, 0, 82, 0
2, 77499, Note_on_c, 0, 58, 0
2, 77499, Note_on_c, 0, 70, 0
2, 77501, Note_on_c, 0, 94, 78
2, 77501, Note_on_c, 0, 75, 0
2, 77501, Note_on_c, 0, 67, 0
2, 77502, Note_on_c, 0, 79, 0
2, 77508, Note_on_c, 0, 63, 46
2, 77510, Note_on_c, 0, 72, 57
2, 77510, Note_on_c, 0, 82, 64
2, 77510, Note_on_c, 0, 60, 49
2, 77511, Note_on_c, 0, 68, 51
2, 77629, Control_c, 0, 64, 127
2, 78101, Note_on_c, 0, 87, 72
2, 78115, Note_on_c, 0, 75, 57
2, 78381, Note_on_c, 0, 89, 77
2, 78388, Note_on_c, 0, 94, 0
2, 78389, Note_on_c, 0, 82, 0
2, 78389, Note_on_c, 0, 87, 0
2, 78389, Control_c, 0, 64, 0
2, 78389, Note_on_c, 0, 72, 0
2, 78391, Note_on_c, 0, 75, 0
2, 78391, Note_on_c, 0, 68, 0
2, 78391, Note_on_c, 0, 63, 0
2, 78392, Note_on_c, 0, 60, 0
2, 78400, Note_on_c, 0, 74, 57
2, 78408, Note_on_c, 0, 77, 63
2, 78414, Note_on_c, 0, 65, 41
2, 78414, Note_on_c, 0, 70, 47
2, 78416, Note_on_c, 0, 62, 51
2, 78504, Control_c, 0, 64, 127
2, 78675, Note_on_c, 0, 91, 80
2, 78685, Note_on_c, 0, 79, 67
2, 78955, Note_on_c, 0, 92, 76
2, 78959, Note_on_c, 0, 80, 73
2, 79242, Note_on_c, 0, 91, 0
2, 79253, Note_on_c, 0, 91, 78
2, 79257, Note_on_c, 0, 79, 0
2, 79261, Control_c, 0, 64, 0
2, 79262, Note_on_c, 0, 65, 0
2, 79262, Note_on_c, 0, 80, 0
2, 79264, Note_on_c, 0, 62, 0
2, 79265, Note_on_c, 0, 74, 0
2, 79268, Note_on_c, 0, 79, 70
2, 79272, Note_on_c, 0, 70, 0
2, 79272, Note_on_c, 0, 77, 0
2, 79272, Note_on_c, 0, 89, 0
2, 79280, Note_on_c, 0, 75, 55
2, 79281, Note_on_c, 0, 67, 45
2, 79282, Note_on_c, 0, 70, 46
2, 79285, Note_on_c, 0, 63, 49
2, 79365, Note_on_c, 0, 92, 0
2, 79372, Control_c, 0, 64, 127
2, 79851, Note_on_c, 0, 82, 72
2, 80186, Note_on_c, 0, 63, 0
2, 80186, Note_on_c, 0, 75, 0
2, 80188, Note_on_c, 0, 84, 76
2, 80189, Note_on_c, 0, 91, 0
2, 80190, Note_on_c, 0, 67, 0
2, 80190, Note_on_c, 0, 79, 0
2, 80190, Note_on_c, 0, 82, 0
2, 80190, Note_on_c, 0, 70, 0
2, 80192, Control_c, 0, 64, 0
2, 80194, Note_on_c, 0, 56, 47
2, 80197, Note_on_c, 0, 75, 62
2, 80197, Note_on_c, 0, 63, 46
2, 80207, Note_on_c, 0, 72, 49
2, 80207, Note_on_c, 0, 68, 50
2, 80232, Control_c, 0, 64, 127
2, 81008, Control_c, 0, 64, 0
2, 81116, Control_c, 0, 64, 127
2, 82560, Note_on_c, 0, 56, 0
2, 82560, Note_on_c, 0, 63, 0
2, 82560, Note_on_c, 0, 68, 0
2, 82560, Note_on_c, 0, 72, 0
2, 82560, Note_on_c, 0, 75, 0
2, 82560, Note_on_c, 0, 84, 0
2, 83258, Note_on_c, 0, 75, 77
2, 83268, Note_on_c, 0, 63, 50
2, 83278, Note_on_c, 0, 68, 58
2, 83279, Note_on_c, 0, 72, 60
2, 83282, Note_on_c, 0, 41, 40
2, 83599, Note_on_c, 0, 51, 47
2, 83781, Note_on_c, 0, 41, 0
2, 83857, Note_on_c, 0, 68, 0
2, 83862, Note_on_c, 0, 56, 60
2, 83866, Note_on_c, 0, 68, 54
2, 84146, Note_on_c, 0, 60, 67
2, 84403, Note_on_c, 0, 63, 0
2, 84407, Note_on_c, 0, 63, 76
2, 84687, Note_on_c, 0, 68, 0
2, 84691, Note_on_c, 0, 68, 80
2, 85017, Note_on_c, 0, 75, 0
2, 85022, Note_on_c, 0, 75, 87
2, 85022, Note_on_c, 0, 51, 0
2, 85022, Control_c, 0, 64, 0
2, 85032, Note_on_c, 0, 63, 0
2, 85032, Note_on_c, 0, 68, 0
2, 85033, Note_on_c, 0, 71, 69
2, 85038, Note_on_c, 0, 59, 58
2, 85040, Note_on_c, 0, 63, 52
2, 85041, Note_on_c, 0, 68, 59
2, 85044, Note_on_c, 0, 47, 51
2, 85355, Control_c, 0, 64, 127
2, 86004, Note_on_c, 0, 74, 72
2, 86008, Note_on_c, 0, 68, 0
2, 86010, Note_on_c, 0, 62, 53
2, 86011, Note_on_c, 0, 70, 54
2, 86017, Note_on_c, 0, 68, 44
2, 86018, Note_on_c, 0, 58, 45
2, 86020, Note_on_c, 0, 71, 0
2, 86021, Note_on_c, 0, 63, 0
2, 86022, Note_on_c, 0, 75, 0
2, 86024, Note_on_c, 0, 59, 0
2, 86025, Control_c, 0, 64, 0
2, 86039, Note_on_c, 0, 47, 0
2, 86046, Note_on_c, 0, 60, 0
2, 86062, Note_on_c, 0, 72, 0
2, 86315, Control_c, 0, 64, 127
2, 86400, Control_c, 0, 64, 0
2, 86484, Control_c, 0, 64, 127
2, 87183, Note_on_c, 0, 56, 0
2, 87200, Note_on_c, 0, 58, 0
2, 87201, Note_on_c, 0, 62, 0
2, 87203, Note_on_c, 0, 74, 0
2, 87206, Note_on_c, 0, 68, 0
2, 87209, Control_c, 0, 64, 0
2, 87214, Note_on_c, 0, 70, 0
2, 87218, Note_on_c, 0, 75, 75
2, 87225, Note_on_c, 0, 70, 57
2, 87226, Note_on_c, 0, 39, 46
2, 87227, Note_on_c, 0, 67, 41
2, 87232, Note_on_c, 0, 63, 49
2, 87352, Control_c, 0, 64, 127
2, 87733, Note_on_c, 0, 58, 61
2, 88061, Note_on_c, 0, 60, 73
2, 88388, Note_on_c, 0, 49, 49
2, 88391, Note_on_c, 0, 61, 73
2, 88404, Note_on_c, 0, 39, 0
2, 88404, Note_on_c, 0, 51, 45
2, 88409, Note_on_c, 0, 60, 0
2, 88410, Note_on_c, 0, 39, 34
2, 88412, Note_on_c, 0, 58, 0
2, 88418, Note_on_c, 0, 75, 0
2, 88421, Control_c, 0, 64, 0
2, 88427, Note_on_c, 0, 67, 0
2, 88442, Note_on_c, 0, 70, 0
2, 88634, Note_on_c, 0, 63, 0
2, 88703, Note_on_c, 0, 53, 57
2, 88704, Control_c, 0, 64, 127
2, 89024, Note_on_c, 0, 55, 61
2, 89325, Note_on_c, 0, 55, 0
2, 89325, Note_on_c, 0, 49, 0
2, 89327, Note_on_c, 0, 53, 0
2, 89328, Note_on_c, 0, 61, 0
2, 89329, Control_c, 0, 64, 0
2, 89332, Note_on_c, 0, 56, 70
2, 89333, Note_on_c, 0, 51, 0
2, 89337, Note_on_c, 0, 68, 59
2, 89340, Note_on_c, 0, 48, 49
2, 89344, Note_on_c, 0, 51, 53
2, 89671, Note_on_c, 0, 48, 0
2, 89674, Note_on_c, 0, 60, 73
2, 89682, Note_on_c, 0, 48, 42
2, 89817, Control_c, 0, 64, 127
2, 90017, Note_on_c, 0, 56, 0
2, 90027, Note_on_c, 0, 56, 78
2, 90387, Note_on_c, 0, 71, 64
2, 90388, Note_on_c, 0, 59, 72
2, 90397, Note_on_c, 0, 47, 52
2, 90401, Note_on_c, 0, 68, 0
2, 90403, Control_c, 0, 64, 0
2, 90405, Note_on_c, 0, 56, 0
2, 90406, Note_on_c, 0, 48, 0
2, 90406, Note_on_c, 0, 60, 0
2, 90408, Note_on_c, 0, 51, 0
2, 90417, Note_on_c, 0, 51, 48
2, 90731, Note_on_c, 0, 39, 0
2, 90750, Note_on_c, 0, 53, 57
2, 91179, Note_on_c, 0, 56, 52
2, 91246, Control_c, 0, 64, 127
2, 91741, Note_on_c, 0, 58, 54
2, 91748, Note_on_c, 0, 55, 44
2, 91749, Note_on_c, 0, 46, 42
2, 91752, Note_on_c, 0, 51, 0
2, 91756, Note_on_c, 0, 39, 35
2, 91759, Note_on_c, 0, 51, 35
2, 91764, Control_c, 0, 64, 0
2, 91768, Note_on_c, 0, 47, 0
2, 91769, Note_on_c, 0, 56, 0
2, 91770, Note_on_c, 0, 59, 0
2, 91770, Note_on_c, 0, 53, 0
2, 91791, Note_on_c, 0, 71, 0
2, 92229, Control_c, 0, 64, 127
2, 92985, Note_on_c, 0, 27, 41
2, 94080, Note_on_c, 0, 46, 0
2, 94080, Note_on_c, 0, 51, 0
2, 94080, Note_on_c, 0, 55, 0
2, 94080, Note_on_c, 0, 58, 0
2, 94706, Note_on_c, 0, 82, 67
2, 94713, Note_on_c, 0, 79, 60
2, 94718, Note_on_c, 0, 67, 44
2, 94721, Note_on_c, 0, 70, 40
2, 94726, Note_on_c, 0, 75, 52
2, 94728, Note_on_c, 0, 63, 47
2, 96360, Note_on_c, 0, 39, 0
2, 97597, Note_on_c, 0, 27, 0
2, 97920, Note_on_c, 0, 63, 0
2, 97920, Note_on_c, 0, 67, 0
2, 97920, Note_on_c, 0, 70, 0
2, 97920, Note_on_c, 0, 75, 0
2, 97920, Note_on_c, 0, 79, 0
2, 97920, Note_on_c, 0, 82, 0
2, 100147, Control_c, 0, 64, 0
2, 101506, Control_c, 0, 64, 127
2, 104125, Control_c, 0, 64, 0
2, 104126, End_track
0, 0, End_of_file
