0, 0, Header, 1, 2, 384
1, 0, Start_track
1, 0, Tempo, 500000
1, 0, Time_signature, 4, 2, 24, 8
1, 1, End_track
2, 0, Start_track
2, 860, Control_c, 0, 64, 127
2, 1121, Note_on_c, 0, 73, 82
2, 1135, Note_on_c, 0, 49, 62
2, 1186, Note_on_c, 0, 68, 64
2, 1193, Note_on_c, 0, 56, 51
2, 1264, Note_on_c, 0, 61, 45
2, 1266, Note_on_c, 0, 64, 52
2, 1305, Note_on_c, 0, 68, 0
2, 1315, Note_on_c, 0, 68, 58
2, 1328, Note_on_c, 0, 56, 0
2, 1334, Note_on_c, 0, 56, 53
2, 1382, Note_on_c, 0, 61, 0
2, 1382, Note_on_c, 0, 73, 0
2, 1388, Note_on_c, 0, 73, 61
2, 1392, Note_on_c, 0, 61, 38
2, 1443, Note_on_c, 0, 68, 0
2, 1451, Note_on_c, 0, 68, 58
2, 1466, Note_on_c, 0, 56, 0
2, 1471, Note_on_c, 0, 56, 37
2, 1505, Note_on_c, 0, 61, 0
2, 1505, Note_on_c, 0, 64, 0
2, 1511, Note_on_c, 0, 64, 60
2, 1514, Note_on_c, 0, 61, 48
2, 1559, Note_on_c, 0, 68, 0
2, 1565, Note_on_c, 0, 68, 59
2, 1643, Note_on_c, 0, 49, 0
2, 1643, Note_on_c, 0, 73, 0
2, 1648, Note_on_c, 0, 49, 55
2, 1650, Note_on_c, 0, 73, 64
2, 1704, Note_on_c, 0, 56, 0
2, 1704, Note_on_c, 0, 68, 0
2, 1711, Note_on_c, 0, 56, 44
2, 1716, Note_on_c, 0, 68, 63
2, 1774, Note_on_c, 0, 64, 0
2, 1781, Note_on_c, 0, 64, 56
2, 1781, Note_on_c, 0, 61, 0
2, 1785, Note_on_c, 0, 61, 50
2, 1820, Note_on_c, 0, 68, 0
2, 1830, Note_on_c, 0, 68, 63
2, 1889, Note_on_c, 0, 49, 0
2, 1893, Note_on_c, 0, 49, 61
2, 1912, Note_on_c, 0, 73, 0
2, 1917, Note_on_c, 0, 73, 74
2, 1973, Note_on_c, 0, 68, 0
2, 1980, Note_on_c, 0, 68, 64
2, 2027, Note_on_c, 0, 61, 0
2, 2027, Note_on_c, 0, 64, 0
2, 2038, Note_on_c, 0, 61, 58
2, 2038, Note_on_c, 0, 64, 59
2, 2081, Note_on_c, 0, 68, 0
2, 2091, Note_on_c, 0, 68, 62
2, 2144, Note_on_c, 0, 49, 0
2, 2144, Control_c, 0, 64, 0
2, 2145, Note_on_c, 0, 68, 0
2, 2145, Note_on_c, 0, 73, 0
2, 2154, Note_on_c, 0, 48, 74
2, 2154, Note_on_c, 0, 75, 94
2, 2158, Note_on_c, 0, 56, 0
2, 2158, Note_on_c, 0, 61, 0
2, 2158, Note_on_c, 0, 64, 0
2, 2219, Control_c, 0, 64, 127
2, 2221, Note_on_c, 0, 56, 61
2, 2222, Note_on_c, 0, 68, 74
2, 2285, Note_on_c, 0, 63, 70
2, 2301, Note_on_c, 0, 60, 67
2, 2365, Note_on_c, 0, 68, 0
2, 2376, Note_on_c, 0, 68, 68
2, 2411, Note_on_c, 0, 48, 0
2, 2417, Note_on_c, 0, 48, 60
2, 2419, Note_on_c, 0, 75, 0
2, 2423, Note_on_c, 0, 75, 72
2, 2480, Note_on_c, 0, 56, 0
2, 2480, Note_on_c, 0, 68, 0
2, 2484, Note_on_c, 0, 56, 52
2, 2486, Note_on_c, 0, 68, 71
2, 2549, Note_on_c, 0, 63, 0
2, 2558, Note_on_c, 0, 63, 59
2, 2565, Note_on_c, 0, 60, 0
2, 2574, Note_on_c, 0, 60, 62
2, 2618, Note_on_c, 0, 68, 0
2, 2629, Note_on_c, 0, 68, 65
2, 2664, Note_on_c, 0, 48, 0
2, 2672, Note_on_c, 0, 75, 0
2, 2673, Note_on_c, 0, 48, 62
2, 2680, Note_on_c, 0, 75, 79
2, 2734, Note_on_c, 0, 56, 0
2, 2741, Note_on_c, 0, 68, 0
2, 2743, Note_on_c, 0, 56, 64
2, 2751, Note_on_c, 0, 68, 70
2, 2803, Note_on_c, 0, 63, 0
2, 2811, Note_on_c, 0, 63, 49
2, 2826, Note_on_c, 0, 60, 0
2, 2836, Note_on_c, 0, 60, 65
2, 2864, Note_on_c, 0, 56, 0
2, 2864, Note_on_c, 0, 68, 0
2, 2874, Note_on_c, 0, 56, 58
2, 2875, Note_on_c, 0, 68, 70
2, 2918, Note_on_c, 0, 48, 0
2, 2928, Note_on_c, 0, 48, 67
2, 2933, Note_on_c, 0, 75, 0
2, 2938, Note_on_c, 0, 75, 80
2, 2987, Note_on_c, 0, 56, 0
2, 2992, Note_on_c, 0, 56, 67
2, 3010, Note_on_c, 0, 68, 0
2, 3015, Note_on_c, 0, 68, 75
2, 3056, Note_on_c, 0, 63, 0
2, 3061, Note_on_c, 0, 63, 71
2, 3072, Note_on_c, 0, 60, 0
2, 3082, Note_on_c, 0, 60, 67
2, 3118, Note_on_c, 0, 56, 0
2, 3118, Note_on_c, 0, 68, 0
2, 3122, Note_on_c, 0, 56, 67
2, 3125, Note_on_c, 0, 68, 75
2, 3175, Note_on_c, 0, 56, 0
2, 3175, Note_on_c, 0, 68, 0
2, 3175, Note_on_c, 0, 60, 0
2, 3175, Note_on_c, 0, 63, 0
2, 3175, Note_on_c, 0, 75, 0
2, 3176, Control_c, 0, 64, 0
2, 3184, Note_on_c, 0, 77, 92
2, 3188, Note_on_c, 0, 47, 79
2, 3194, Note_on_c, 0, 48, 0
2, 3256, Note_on_c, 0, 68, 75
2, 3258, Note_on_c, 0, 56, 71
2, 3264, Control_c, 0, 64, 127
2, 3331, Note_on_c, 0, 65, 63
2, 3344, Note_on_c, 0, 59, 69
2, 3394, Note_on_c, 0, 68, 0
2, 3398, Note_on_c, 0, 68, 55
2, 3425, Note_on_c, 0, 47, 0
2, 3432, Note_on_c, 0, 77, 0
2, 3435, Note_on_c, 0, 47, 68
2, 3442, Note_on_c, 0, 77, 76
2, 3494, Note_on_c, 0, 56, 0
2, 3501, Note_on_c, 0, 56, 61
2, 3517, Note_on_c, 0, 68, 0
2, 3525, Note_on_c, 0, 68, 75
2, 3578, Note_on_c, 0, 65, 0
2, 3586, Note_on_c, 0, 59, 0
2, 3590, Note_on_c, 0, 65, 54
2, 3596, Note_on_c, 0, 59, 72
2, 3640, Note_on_c, 0, 56, 0
2, 3640, Note_on_c, 0, 68, 0
2, 3644, Note_on_c, 0, 68, 69
2, 3644, Note_on_c, 0, 56, 67
2, 3686, Note_on_c, 0, 77, 0
2, 3694, Note_on_c, 0, 47, 0
2, 3696, Note_on_c, 0, 77, 80
2, 3705, Note_on_c, 0, 47, 68
2, 3755, Note_on_c, 0, 56, 0
2, 3755, Note_on_c, 0, 68, 0
2, 3766, Note_on_c, 0, 68, 72
2, 3766, Note_on_c, 0, 56, 72
2, 3832, Note_on_c, 0, 65, 0
2, 3840, Note_on_c, 0, 59, 0
2, 3841, Note_on_c, 0, 65, 56
2, 3847, Note_on_c, 0, 59, 74
2, 3886, Note_on_c, 0, 56, 0
2, 3886, Note_on_c, 0, 68, 0
2, 3891, Note_on_c, 0, 68, 76
2, 3894, Note_on_c, 0, 56, 68
2, 3947, Note_on_c, 0, 77, 0
2, 3955, Note_on_c, 0, 47, 0
2, 3958, Note_on_c, 0, 77, 80
2, 3959, Note_on_c, 0, 47, 70
2, 4016, Note_on_c, 0, 56, 0
2, 4028, Note_on_c, 0, 56, 67
2, 4039, Note_on_c, 0, 68, 0
2, 4046, Note_on_c, 0, 68, 61
2, 4078, Note_on_c, 0, 59, 0
2, 4078, Note_on_c, 0, 65, 0
2, 4086, Note_on_c, 0, 59, 76
2, 4087, Note_on_c, 0, 65, 67
2, 4124, Note_on_c, 0, 68, 0
2, 4133, Note_on_c, 0, 68, 67
2, 4188, Note_on_c, 0, 68, 0
2, 4188, Control_c, 0, 64, 0
2, 4189, Note_on_c, 0, 65, 0
2, 4189, Note_on_c, 0, 47, 0
2, 4189, Note_on_c, 0, 59, 0
2, 4199, Note_on_c, 0, 45, 80
2, 4200, Note_on_c, 0, 78, 96
2, 4200, Note_on_c, 0, 56, 0
2, 4200, Note_on_c, 0, 77, 0
2, 4277, Note_on_c, 0, 69, 65
2, 4277, Control_c, 0, 64, 127
2, 4330, Note_on_c, 0, 54, 69
2, 4333, Note_on_c, 0, 66, 67
2, 4408, Note_on_c, 0, 69, 0
2, 4413, Note_on_c, 0, 69, 64
2, 4462, Note_on_c, 0, 78, 0
2, 4469, Note_on_c, 0, 45, 0
2, 4470, Note_on_c, 0, 78, 84
2, 4476, Note_on_c, 0, 45, 61
2, 4523, Note_on_c, 0, 69, 0
2, 4528, Note_on_c, 0, 69, 71
2, 4551, Note_on_c, 0, 49, 50
2, 4600, Note_on_c, 0, 66, 0
2, 4605, Note_on_c, 0, 66, 71
2, 4615, Note_on_c, 0, 54, 0
2, 4621, Note_on_c, 0, 54, 59
2, 4654, Note_on_c, 0, 69, 0
2, 4664, Note_on_c, 0, 69, 63
2, 4715, Note_on_c, 0, 78, 0
2, 4720, Note_on_c, 0, 78, 82
2, 4738, Note_on_c, 0, 45, 0
2, 4747, Note_on_c, 0, 45, 60
2, 4792, Note_on_c, 0, 69, 0
2, 4800, Note_on_c, 0, 49, 0
2, 4803, Note_on_c, 0, 69, 61
2, 4810, Note_on_c, 0, 49, 62
2, 4838, Note_on_c, 0, 66, 0
2, 4849, Note_on_c, 0, 66, 74
2, 4869, Note_on_c, 0, 54, 0
2, 4873, Note_on_c, 0, 54, 67
2, 4907, Note_on_c, 0, 69, 0
2, 4911, Note_on_c, 0, 69, 71
2, 4938, Note_on_c, 0, 49, 0
2, 4942, Note_on_c, 0, 49, 55
2, 4968, Note_on_c, 0, 78, 0
2, 4980, Note_on_c, 0, 78, 78
2, 4992, Note_on_c, 0, 45, 0
2, 5000, Note_on_c, 0, 45, 55
2, 5053, Note_on_c, 0, 49, 0
2, 5053, Note_on_c, 0, 69, 0
2, 5057, Note_on_c, 0, 69, 62
2, 5058, Note_on_c, 0, 49, 66
2, 5107, Note_on_c, 0, 54, 0
2, 5107, Note_on_c, 0, 66, 0
2, 5112, Note_on_c, 0, 54, 75
2, 5117, Note_on_c, 0, 66, 71
2, 5210, Note_on_c, 0, 78, 0
2, 5210, Note_on_c, 0, 69, 0
2, 5211, Note_on_c, 0, 66, 0
2, 5211, Note_on_c, 0, 54, 0
2, 5211, Note_on_c, 0, 49, 0
2, 5211, Note_on_c, 0, 45, 0
2, 5212, Note_on_c, 0, 80, 99
2, 5212, Control_c, 0, 64, 0
2, 5212, Note_on_c, 0, 41, 78
2, 5281, Note_on_c, 0, 49, 74
2, 5284, Note_on_c, 0, 73, 69
2, 5291, Control_c, 0, 64, 127
2, 5356, Note_on_c, 0, 68, 74
2, 5357, Note_on_c, 0, 53, 69
2, 5422, Note_on_c, 0, 49, 0
2, 5422, Note_on_c, 0, 73, 0
2, 5427, Note_on_c, 0, 49, 64
2, 5431, Note_on_c, 0, 73, 64
2, 5460, Note_on_c, 0, 41, 0
2, 5460, Note_on_c, 0, 80, 0
2, 5464, Note_on_c, 0, 41, 58
2, 5471, Note_on_c, 0, 80, 82
2, 5521, Note_on_c, 0, 49, 0
2, 5525, Note_on_c, 0, 49, 66
2, 5552, Note_on_c, 0, 73, 0
2, 5557, Note_on_c, 0, 73, 61
2, 5591, Note_on_c, 0, 68, 0
2, 5601, Note_on_c, 0, 68, 75
2, 5606, Note_on_c, 0, 53, 0
2, 5617, Note_on_c, 0, 53, 69
2, 5652, Note_on_c, 0, 49, 0
2, 5652, Note_on_c, 0, 73, 0
2, 5661, Note_on_c, 0, 49, 70
2, 5663, Note_on_c, 0, 73, 67
2, 5718, Note_on_c, 0, 81, 95
2, 5718, Note_on_c, 0, 41, 0
2, 5718, Note_on_c, 0, 80, 0
2, 5718, Note_on_c, 0, 49, 0
2, 5718, Control_c, 0, 64, 0
2, 5718, Note_on_c, 0, 73, 0
2, 5729, Note_on_c, 0, 53, 0
2, 5730, Note_on_c, 0, 42, 80
2, 5744, Note_on_c, 0, 68, 0
2, 5786, Note_on_c, 0, 73, 78
2, 5786, Note_on_c, 0, 49, 67
2, 5798, Control_c, 0, 64, 127
2, 5863, Note_on_c, 0, 69, 66
2, 5869, Note_on_c, 0, 54, 69
2, 5921, Note_on_c, 0, 73, 0
2, 5926, Note_on_c, 0, 73, 66
2, 5944, Note_on_c, 0, 42, 0
2, 5952, Note_on_c, 0, 49, 0
2, 5952, Note_on_c, 0, 42, 73
2, 5962, Note_on_c, 0, 49, 65
2, 5967, Note_on_c, 0, 81, 0
2, 5972, Note_on_c, 0, 81, 87
2, 6028, Note_on_c, 0, 49, 0
2, 6034, Note_on_c, 0, 49, 59
2, 6036, Note_on_c, 0, 73, 0
2, 6043, Note_on_c, 0, 73, 64
2, 6097, Note_on_c, 0, 54, 0
2, 6105, Note_on_c, 0, 69, 0
2, 6109, Note_on_c, 0, 54, 71
2, 6114, Note_on_c, 0, 69, 64
2, 6144, Note_on_c, 0, 49, 0
2, 6150, Note_on_c, 0, 49, 63
2, 6167, Note_on_c, 0, 73, 0
2, 6177, Note_on_c, 0, 73, 66
2, 6222, Note_on_c, 0, 83, 98
2, 6224, Control_c, 0, 64, 0
2, 6225, Note_on_c, 0, 49, 0
2, 6226, Note_on_c, 0, 73, 0
2, 6227, Note_on_c, 0, 81, 0
2, 6227, Note_on_c, 0, 69, 0
2, 6235, Note_on_c, 0, 39, 87
2, 6236, Note_on_c, 0, 54, 0
2, 6243, Note_on_c, 0, 42, 0
2, 6298, Note_on_c, 0, 78, 73
2, 6298, Note_on_c, 0, 47, 70
2, 6312, Control_c, 0, 64, 127
2, 6361, Note_on_c, 0, 71, 68
2, 6370, Note_on_c, 0, 51, 70
2, 6420, Note_on_c, 0, 47, 0
2, 6428, Note_on_c, 0, 78, 0
2, 6429, Note_on_c, 0, 47, 61
2, 6433, Note_on_c, 0, 78, 73
2, 6481, Note_on_c, 0, 83, 0
2, 6486, Note_on_c, 0, 83, 84
2, 6497, Note_on_c, 0, 39, 0
2, 6503, Note_on_c, 0, 39, 66
2, 6551, Note_on_c, 0, 47, 0
2, 6561, Note_on_c, 0, 47, 59
2, 6566, Note_on_c, 0, 78, 0
2, 6575, Note_on_c, 0, 78, 55
2, 6604, Note_on_c, 0, 71, 0
2, 6614, Note_on_c, 0, 71, 70
2, 6620, Note_on_c, 0, 51, 0
2, 6629, Note_on_c, 0, 51, 68
2, 6673, Note_on_c, 0, 47, 0
2, 6682, Note_on_c, 0, 47, 59
2, 6732, Note_on_c, 0, 80, 97
2, 6744, Control_c, 0, 64, 0
2, 6744, Note_on_c, 0, 47, 0
2, 6744, Note_on_c, 0, 51, 0
2, 6745, Note_on_c, 0, 78, 0
2, 6746, Note_on_c, 0, 39, 0
2, 6746, Note_on_c, 0, 83, 0
2, 6749, Note_on_c, 0, 40, 73
2, 6766, Note_on_c, 0, 71, 0
2, 6807, Note_on_c, 0, 47, 71
2, 6808, Note_on_c, 0, 76, 70
2, 6819, Control_c, 0, 64, 127
2, 6850, Note_on_c, 0, 40, 0
2, 6877, Note_on_c, 0, 71, 67
2, 6884, Note_on_c, 0, 52, 69
2, 6919, Note_on_c, 0, 76, 0
2, 6927, Note_on_c, 0, 47, 0
2, 6930, Note_on_c, 0, 76, 63
2, 6932, Note_on_c, 0, 47, 62
2, 6996, Note_on_c, 0, 80, 0
2, 6999, Note_on_c, 0, 40, 64
2, 7002, Note_on_c, 0, 80, 75
2, 7050, Note_on_c, 0, 76, 0
2, 7054, Note_on_c, 0, 76, 66
2, 7073, Note_on_c, 0, 47, 0
2, 7084, Note_on_c, 0, 47, 65
2, 7119, Note_on_c, 0, 71, 0
2, 7130, Note_on_c, 0, 71, 67
2, 7150, Note_on_c, 0, 52, 0
2, 7160, Note_on_c, 0, 52, 69
2, 7173, Note_on_c, 0, 76, 0
2, 7178, Note_on_c, 0, 76, 46
2, 7238, Note_on_c, 0, 81, 97
2, 7240, Note_on_c, 0, 47, 0
2, 7240, Note_on_c, 0, 76, 0
2, 7241, Note_on_c, 0, 80, 0
2, 7241, Note_on_c, 0, 40, 0
2, 7242, Control_c, 0, 64, 0
2, 7243, Note_on_c, 0, 42, 86
2, 7249, Note_on_c, 0, 52, 0
2, 7257, Note_on_c, 0, 71, 0
2, 7300, Note_on_c, 0, 74, 79
2, 7319, Control_c, 0, 64, 127
2, 7320, Note_on_c, 0, 45, 69
2, 7384, Note_on_c, 0, 69, 65
2, 7384, Note_on_c, 0, 50, 73
2, 7426, Note_on_c, 0, 74, 0
2, 7436, Note_on_c, 0, 74, 74
2, 7480, Note_on_c, 0, 81, 0
2, 7488, Note_on_c, 0, 42, 0
2, 7491, Note_on_c, 0, 81, 80
2, 7499, Note_on_c, 0, 42, 76
2, 7557, Note_on_c, 0, 74, 0
2, 7561, Note_on_c, 0, 74, 62
2, 7572, Note_on_c, 0, 45, 0
2, 7576, Note_on_c, 0, 45, 56
2, 7626, Note_on_c, 0, 69, 0
2, 7630, Note_on_c, 0, 69, 67
2, 7641, Note_on_c, 0, 50, 0
2, 7652, Note_on_c, 0, 50, 63
2, 7680, Note_on_c, 0, 74, 0
2, 7684, Note_on_c, 0, 74, 67
2, 7710, Note_on_c, 0, 45, 0
2, 7721, Note_on_c, 0, 45, 58
2, 7733, Note_on_c, 0, 42, 0
2, 7743, Note_on_c, 0, 42, 75
2, 7748, Control_c, 0, 64, 0
2, 7748, Note_on_c, 0, 81, 0
2, 7748, Note_on_c, 0, 69, 0
2, 7750, Note_on_c, 0, 50, 0
2, 7750, Note_on_c, 0, 45, 0
2, 7751, Note_on_c, 0, 74, 0
2, 7752, Note_on_c, 0, 78, 87
2, 7818, Note_on_c, 0, 74, 63
2, 7825, Note_on_c, 0, 45, 58
2, 7833, Control_c, 0, 64, 127
2, 7869, Note_on_c, 0, 69, 72
2, 7899, Note_on_c, 0, 50, 72
2, 7925, Note_on_c, 0, 74, 0
2, 7934, Note_on_c, 0, 74, 75
2, 7948, Note_on_c, 0, 45, 0
2, 7958, Note_on_c, 0, 45, 49
2, 7994, Note_on_c, 0, 42, 0
2, 7994, Note_on_c, 0, 78, 0
2, 8000, Note_on_c, 0, 78, 84
2, 8002, Note_on_c, 0, 42, 70
2, 8087, Note_on_c, 0, 45, 0
2, 8096, Note_on_c, 0, 45, 73
2, 8163, Note_on_c, 0, 50, 0
2, 8171, Note_on_c, 0, 69, 0
2, 8174, Note_on_c, 0, 50, 73
2, 8176, Note_on_c, 0, 69, 68
2, 8252, Note_on_c, 0, 78, 0
2, 8253, Note_on_c, 0, 50, 0
2, 8253, Note_on_c, 0, 42, 0
2, 8254, Note_on_c, 0, 69, 0
2, 8254, Note_on_c, 0, 45, 0
2, 8254, Note_on_c, 0, 76, 86
2, 8256, Note_on_c, 0, 74, 0
2, 8258, Control_c, 0, 64, 0
2, 8260, Note_on_c, 0, 44, 79
2, 8331, Note_on_c, 0, 72, 80
2, 8334, Note_on_c, 0, 51, 69
2, 8348, Control_c, 0, 64, 127
2, 8391, Note_on_c, 0, 56, 73
2, 8392, Note_on_c, 0, 68, 77
2, 8448, Note_on_c, 0, 72, 0
2, 8457, Note_on_c, 0, 72, 66
2, 8494, Note_on_c, 0, 44, 0
2, 8494, Note_on_c, 0, 51, 0
2, 8498, Note_on_c, 0, 75, 90
2, 8498, Note_on_c, 0, 51, 78
2, 8503, Note_on_c, 0, 44, 78
2, 8563, Note_on_c, 0, 72, 0
2, 8569, Note_on_c, 0, 72, 77
2, 8578, Note_on_c, 0, 51, 0
2, 8584, Note_on_c, 0, 51, 77
2, 8640, Note_on_c, 0, 56, 0
2, 8647, Note_on_c, 0, 68, 0
2, 8651, Note_on_c, 0, 56, 87
2, 8651, Note_on_c, 0, 68, 85
2, 8709, Note_on_c, 0, 51, 0
2, 8714, Note_on_c, 0, 51, 77
2, 8749, Note_on_c, 0, 80, 98
2, 8755, Note_on_c, 0, 44, 0
2, 8765, Note_on_c, 0, 44, 90
2, 8816, Note_on_c, 0, 51, 0
2, 8816, Note_on_c, 0, 75, 0
2, 8821, Note_on_c, 0, 51, 85
2, 8821, Note_on_c, 0, 75, 91
2, 8885, Note_on_c, 0, 72, 0
2, 8893, Note_on_c, 0, 56, 0
2, 8896, Note_on_c, 0, 72, 78
2, 8902, Note_on_c, 0, 56, 79
2, 8939, Note_on_c, 0, 51, 0
2, 8939, Note_on_c, 0, 75, 0
2, 8949, Note_on_c, 0, 51, 66
2, 8950, Note_on_c, 0, 75, 80
2, 8985, Note_on_c, 0, 44, 0
2, 8989, Note_on_c, 0, 84, 94
2, 8990, Note_on_c, 0, 44, 77
2, 9070, Note_on_c, 0, 51, 0
2, 9070, Note_on_c, 0, 75, 0
2, 9076, Note_on_c, 0, 75, 77
2, 9077, Note_on_c, 0, 51, 79
2, 9080, Note_on_c, 0, 56, 0
2, 9123, Note_on_c, 0, 72, 0
2, 9129, Note_on_c, 0, 72, 88
2, 9228, Note_on_c, 0, 76, 0
2, 9228, Note_on_c, 0, 75, 0
2, 9228, Note_on_c, 0, 51, 0
2, 9228, Note_on_c, 0, 68, 0
2, 9228, Control_c, 0, 64, 0
2, 9229, Note_on_c, 0, 72, 0
2, 9232, Note_on_c, 0, 84, 0
2, 9253, Note_on_c, 0, 73, 107
2, 9254, Note_on_c, 0, 80, 0
2, 9254, Note_on_c, 0, 85, 108
2, 9258, Note_on_c, 0, 80, 95
2, 9262, Note_on_c, 0, 44, 0
2, 9265, Note_on_c, 0, 37, 85
2, 9265, Note_on_c, 0, 76, 95
2, 9267, Note_on_c, 0, 49, 85
2, 9269, Note_on_c, 0, 44, 78
2, 9331, Control_c, 0, 64, 127
2, 9500, Note_on_c, 0, 76, 0
2, 9505, Note_on_c, 0, 88, 99
2, 9508, Note_on_c, 0, 76, 95
2, 9630, Note_on_c, 0, 80, 0
2, 9635, Note_on_c, 0, 80, 96
2, 9641, Note_on_c, 0, 87, 103
2, 9642, Note_on_c, 0, 75, 101
2, 9654, Note_on_c, 0, 83, 55
2, 9661, Note_on_c, 0, 85, 0
2, 9671, Note_on_c, 0, 85, 50
2, 9876, Note_on_c, 0, 83, 0
2, 9884, Note_on_c, 0, 75, 0
2, 9886, Note_on_c, 0, 83, 102
2, 9888, Note_on_c, 0, 75, 97
2, 9889, Note_on_c, 0, 71, 98
2, 9893, Note_on_c, 0, 78, 91
2, 10145, Note_on_c, 0, 73, 0
2, 10145, Note_on_c, 0, 76, 0
2, 10145, Note_on_c, 0, 80, 0
2, 10145, Note_on_c, 0, 85, 0
2, 10149, Note_on_c, 0, 85, 104
2, 10150, Note_on_c, 0, 73, 97
2, 10153, Note_on_c, 0, 80, 92
2, 10153, Note_on_c, 0, 76, 97
2, 10241, Note_on_c, 0, 37, 0
2, 10242, Note_on_c, 0, 44, 0
2, 10242, Note_on_c, 0, 78, 0
2, 10243, Note_on_c, 0, 83, 0
2, 10243, Control_c, 0, 64, 0
2, 10243, Note_on_c, 0, 71, 0
2, 10244, Note_on_c, 0, 87, 0
2, 10244, Note_on_c, 0, 75, 0
2, 10247, Note_on_c, 0, 88, 0
2, 10252, Note_on_c, 0, 49, 0
2, 10275, Note_on_c, 0, 52, 89
2, 10276, Note_on_c, 0, 64, 87
2, 10329, Control_c, 0, 64, 127
2, 10402, Note_on_c, 0, 66, 78
2, 10403, Note_on_c, 0, 54, 87
2, 10513, Note_on_c, 0, 52, 0
2, 10513, Note_on_c, 0, 64, 0
2, 10518, Note_on_c, 0, 52, 87
2, 10523, Note_on_c, 0, 64, 80
2, 10642, Note_on_c, 0, 51, 84
2, 10643, Note_on_c, 0, 63, 83
2, 10766, Note_on_c, 0, 49, 91
2, 10769, Note_on_c, 0, 61, 83
2, 10776, Control_c, 0, 64, 0
2, 10777, Note_on_c, 0, 51, 0
2, 10777, Note_on_c, 0, 54, 0
2, 10777, Note_on_c, 0, 52, 0
2, 10778, Note_on_c, 0, 64, 0
2, 10778, Note_on_c, 0, 63, 0
2, 10790, Note_on_c, 0, 66, 0
2, 10831, Note_on_c, 0, 49, 0
2, 10844, Note_on_c, 0, 61, 0
2, 10859, Control_c, 0, 64, 127
2, 10892, Note_on_c, 0, 51, 84
2, 10894, Note_on_c, 0, 63, 72
2, 11029, Note_on_c, 0, 49, 77
2, 11030, Note_on_c, 0, 61, 75
2, 11133, Note_on_c, 0, 47, 83
2, 11134, Note_on_c, 0, 59, 75
2, 11259, Note_on_c, 0, 51, 0
2, 11259, Note_on_c, 0, 61, 0
2, 11260, Note_on_c, 0, 73, 0
2, 11260, Note_on_c, 0, 47, 0
2, 11260, Note_on_c, 0, 49, 0
2, 11262, Control_c, 0, 64, 0
2, 11266, Note_on_c, 0, 63, 0
2, 11266, Note_on_c, 0, 85, 0
2, 11274, Note_on_c, 0, 59, 0
2, 11274, Note_on_c, 0, 76, 0
2, 11277, Note_on_c, 0, 85, 107
2, 11278, Note_on_c, 0, 76, 99
2, 11278, Note_on_c, 0, 81, 97
2, 11279, Note_on_c, 0, 73, 104
2, 11281, Note_on_c, 0, 80, 0
2, 11284, Note_on_c, 0, 33, 85
2, 11286, Note_on_c, 0, 45, 80
2, 11343, Control_c, 0, 64, 127
2, 11420, Note_on_c, 0, 73, 0
2, 11528, Note_on_c, 0, 88, 96
2, 11535, Note_on_c, 0, 76, 0
2, 11539, Note_on_c, 0, 76, 82
2, 11544, Note_on_c, 0, 80, 64
2, 11642, Note_on_c, 0, 80, 0
2, 11653, Note_on_c, 0, 80, 93
2, 11657, Note_on_c, 0, 87, 100
2, 11662, Note_on_c, 0, 75, 98
2, 11669, Note_on_c, 0, 83, 68
2, 11681, Note_on_c, 0, 85, 0
2, 11688, Note_on_c, 0, 85, 45
2, 11888, Note_on_c, 0, 83, 0
2, 11896, Note_on_c, 0, 75, 0
2, 11896, Note_on_c, 0, 83, 94
2, 11902, Note_on_c, 0, 75, 82
2, 11903, Note_on_c, 0, 71, 89
2, 12149, Note_on_c, 0, 76, 0
2, 12149, Note_on_c, 0, 81, 0
2, 12149, Note_on_c, 0, 85, 0
2, 12153, Note_on_c, 0, 85, 103
2, 12154, Note_on_c, 0, 73, 97
2, 12154, Note_on_c, 0, 81, 93
2, 12156, Note_on_c, 0, 76, 90
2, 12264, Note_on_c, 0, 33, 0
2, 12264, Note_on_c, 0, 45, 0
2, 12270, Note_on_c, 0, 87, 0
2, 12270, Note_on_c, 0, 80, 0
2, 12271, Note_on_c, 0, 88, 0
2, 12272, Note_on_c, 0, 75, 0
2, 12273, Note_on_c, 0, 83, 0
2, 12273, Control_c, 0, 64, 0
2, 12274, Note_on_c, 0, 71, 0
2, 12297, Note_on_c, 0, 49, 92
2, 12298, Note_on_c, 0, 61, 85
2, 12348, Note_on_c, 0, 49, 0
2, 12372, Control_c, 0, 64, 127
2, 12424, Note_on_c, 0, 51, 79
2, 12424, Note_on_c, 0, 63, 80
2, 12541, Note_on_c, 0, 61, 0
2, 12546, Note_on_c, 0, 49, 74
2, 12551, Note_on_c, 0, 61, 69
2, 12664, Note_on_c, 0, 59, 85
2, 12665, Note_on_c, 0, 47, 76
2, 12771, Note_on_c, 0, 63, 0
2, 12777, Note_on_c, 0, 51, 0
2, 12777, Note_on_c, 0, 49, 0
2, 12778, Note_on_c, 0, 61, 0
2, 12779, Note_on_c, 0, 47, 0
2, 12781, Note_on_c, 0, 59, 0
2, 12783, Control_c, 0, 64, 0
2, 12790, Note_on_c, 0, 45, 84
2, 12791, Note_on_c, 0, 57, 87
2, 12856, Control_c, 0, 64, 127
2, 12915, Note_on_c, 0, 59, 81
2, 12916, Note_on_c, 0, 47, 81
2, 13032, Note_on_c, 0, 45, 0
2, 13040, Note_on_c, 0, 57, 0
2, 13042, Note_on_c, 0, 45, 78
2, 13044, Note_on_c, 0, 57, 71
2, 13153, Note_on_c, 0, 44, 79
2, 13154, Note_on_c, 0, 56, 76
2, 13272, Note_on_c, 0, 47, 0
2, 13272, Note_on_c, 0, 57, 0
2, 13273, Note_on_c, 0, 56, 0
2, 13273, Note_on_c, 0, 59, 0
2, 13274, Note_on_c, 0, 44, 0
2, 13274, Control_c, 0, 64, 0
2, 13286, Note_on_c, 0, 45, 0
2, 13286, Note_on_c, 0, 73, 0
2, 13286, Note_on_c, 0, 76, 0
2, 13286, Note_on_c, 0, 85, 0
2, 13294, Note_on_c, 0, 81, 0
2, 13296, Note_on_c, 0, 85, 105
2, 13296, Note_on_c, 0, 54, 93
2, 13297, Note_on_c, 0, 73, 101
2, 13297, Note_on_c, 0, 78, 100
2, 13298, Note_on_c, 0, 42, 88
2, 13298, Note_on_c, 0, 49, 88
2, 13299, Note_on_c, 0, 81, 78
2, 13355, Control_c, 0, 64, 127
2, 13549, Note_on_c, 0, 88, 96
2, 13552, Note_on_c, 0, 76, 85
2, 13555, Note_on_c, 0, 85, 0
2, 13564, Note_on_c, 0, 85, 68
2, 13662, Note_on_c, 0, 78, 0
2, 13671, Note_on_c, 0, 78, 101
2, 13672, Note_on_c, 0, 87, 106
2, 13675, Note_on_c, 0, 75, 106
2, 13916, Note_on_c, 0, 75, 0
2, 13921, Note_on_c, 0, 83, 103
2, 13923, Note_on_c, 0, 78, 0
2, 13927, Note_on_c, 0, 75, 82
2, 13927, Note_on_c, 0, 78, 79
2, 13928, Note_on_c, 0, 71, 88
2, 14169, Note_on_c, 0, 73, 0
2, 14169, Note_on_c, 0, 81, 0
2, 14169, Note_on_c, 0, 85, 0
2, 14176, Note_on_c, 0, 85, 103
2, 14177, Note_on_c, 0, 73, 101
2, 14177, Note_on_c, 0, 78, 0
2, 14177, Note_on_c, 0, 81, 96
2, 14181, Note_on_c, 0, 78, 87
2, 14296, Note_on_c, 0, 87, 0
2, 14297, Note_on_c, 0, 75, 0
2, 14298, Note_on_c, 0, 54, 0
2, 14298, Note_on_c, 0, 88, 0
2, 14298, Note_on_c, 0, 76, 0
2, 14299, Note_on_c, 0, 83, 0
2, 14300, Note_on_c, 0, 71, 0
2, 14302, Control_c, 0, 64, 0
2, 14307, Note_on_c, 0, 42, 0
2, 14315, Note_on_c, 0, 49, 0
2, 14317, Note_on_c, 0, 57, 94
2, 14317, Note_on_c, 0, 69, 82
2, 14376, Control_c, 0, 64, 127
2, 14400, Note_on_c, 0, 57, 0
2, 14448, Note_on_c, 0, 59, 83
2, 14448, Note_on_c, 0, 71, 73
2, 14563, Note_on_c, 0, 57, 83
2, 14688, Note_on_c, 0, 68, 84
2, 14688, Note_on_c, 0, 56, 83
2, 14812, Note_on_c, 0, 56, 0
2, 14812, Note_on_c, 0, 59, 0
2, 14813, Note_on_c, 0, 71, 0
2, 14813, Note_on_c, 0, 68, 0
2, 14813, Note_on_c, 0, 54, 95
2, 14816, Note_on_c, 0, 66, 84
2, 14818, Control_c, 0, 64, 0
2, 14822, Note_on_c, 0, 69, 0
2, 14830, Note_on_c, 0, 57, 0
2, 14830, Note_on_c, 0, 81, 0
2, 14837, Note_on_c, 0, 73, 0
2, 14899, Control_c, 0, 64, 127
2, 14934, Note_on_c, 0, 56, 84
2, 14944, Note_on_c, 0, 68, 80
2, 14960, Note_on_c, 0, 54, 0
2, 15052, Note_on_c, 0, 66, 0
2, 15057, Note_on_c, 0, 54, 80
2, 15061, Note_on_c, 0, 66, 74
2, 15174, Note_on_c, 0, 52, 85
2, 15177, Note_on_c, 0, 64, 78
2, 15307, Note_on_c, 0, 66, 0
2, 15307, Note_on_c, 0, 68, 0
2, 15307, Note_on_c, 0, 56, 0
2, 15307, Control_c, 0, 64, 0
2, 15307, Note_on_c, 0, 52, 0
2, 15308, Note_on_c, 0, 54, 0
2, 15308, Note_on_c, 0, 64, 0
2, 15313, Note_on_c, 0, 78, 0
2, 15321, Note_on_c, 0, 85, 0
2, 15324, Note_on_c, 0, 84, 104
2, 15325, Note_on_c, 0, 75, 100
2, 15326, Note_on_c, 0, 72, 102
2, 15330, Note_on_c, 0, 44, 83
2, 15330, Note_on_c, 0, 80, 92
2, 15332, Note_on_c, 0, 51, 85
2, 15383, Control_c, 0, 64, 127
2, 15413, Note_on_c, 0, 72, 0
2, 15444, Note_on_c, 0, 44, 0
2, 15582, Note_on_c, 0, 75, 0
2, 15585, Note_on_c, 0, 87, 97
2, 15586, Note_on_c, 0, 75, 88
2, 15712, Note_on_c, 0, 85, 104
2, 15713, Note_on_c, 0, 80, 0
2, 15717, Note_on_c, 0, 73, 97
2, 15718, Note_on_c, 0, 80, 94
2, 15951, Note_on_c, 0, 84, 0
2, 15959, Note_on_c, 0, 75, 0
2, 15962, Note_on_c, 0, 84, 99
2, 15965, Note_on_c, 0, 72, 96
2, 15965, Note_on_c, 0, 75, 97
2, 15966, Note_on_c, 0, 80, 0
2, 15975, Note_on_c, 0, 80, 71
2, 16212, Note_on_c, 0, 80, 0
2, 16212, Note_on_c, 0, 84, 0
2, 16212, Note_on_c, 0, 87, 0
2, 16217, Note_on_c, 0, 92, 107
2, 16220, Note_on_c, 0, 84, 96
2, 16221, Note_on_c, 0, 80, 101
2, 16223, Note_on_c, 0, 87, 94
2, 16288, Control_c, 0, 64, 0
2, 16291, Note_on_c, 0, 72, 0
2, 16291, Note_on_c, 0, 85, 0
2, 16291, Note_on_c, 0, 73, 0
2, 16292, Note_on_c, 0, 75, 0
2, 16292, Note_on_c, 0, 51, 0
2, 16341, Note_on_c, 0, 44, 84
2, 16343, Note_on_c, 0, 56, 77
2, 16366, Control_c, 0, 64, 127
2, 16475, Note_on_c, 0, 45, 69
2, 16476, Note_on_c, 0, 57, 75
2, 16588, Note_on_c, 0, 58, 80
2, 16589, Note_on_c, 0, 46, 78
2, 16704, Note_on_c, 0, 47, 82
2, 16706, Note_on_c, 0, 59, 84
2, 16831, Note_on_c, 0, 48, 89
2, 16836, Note_on_c, 0, 60, 88
2, 16960, Note_on_c, 0, 61, 92
2, 16965, Note_on_c, 0, 49, 83
2, 17075, Note_on_c, 0, 50, 86
2, 17077, Note_on_c, 0, 62, 79
2, 17198, Note_on_c, 0, 63, 82
2, 17198, Note_on_c, 0, 51, 84
2, 17278, Note_on_c, 0, 60, 0
2, 17279, Note_on_c, 0, 48, 0
2, 17280, Note_on_c, 0, 58, 0
2, 17280, Note_on_c, 0, 56, 0
2, 17281, Note_on_c, 0, 47, 0
2, 17281, Note_on_c, 0, 45, 0
2, 17282, Note_on_c, 0, 51, 0
2, 17282, Note_on_c, 0, 61, 0
2, 17282, Note_on_c, 0, 46, 0
2, 17282, Note_on_c, 0, 50, 0
2, 17282, Note_on_c, 0, 49, 0
2, 17282, Note_on_c, 0, 57, 0
2, 17282, Control_c, 0, 64, 0
2, 17282, Note_on_c, 0, 59, 0
2, 17283, Note_on_c, 0, 44, 0
2, 17287, Note_on_c, 0, 84, 0
2, 17287, Note_on_c, 0, 87, 0
2, 17295, Note_on_c, 0, 62, 0
2, 17295, Note_on_c, 0, 63, 0
2, 17295, Note_on_c, 0, 80, 0
2, 17295, Note_on_c, 0, 92, 0
2, 17327, Note_on_c, 0, 80, 104
2, 17329, Note_on_c, 0, 68, 103
2, 17330, Note_on_c, 0, 37, 93
2, 17330, Note_on_c, 0, 73, 96
2, 17364, Control_c, 0, 64, 127
2, 17408, Note_on_c, 0, 49, 70
2, 17483, Note_on_c, 0, 44, 78
2, 17556, Note_on_c, 0, 49, 0
2, 17561, Note_on_c, 0, 49, 82
2, 17579, Note_on_c, 0, 73, 0
2, 17583, Note_on_c, 0, 73, 96
2, 17584, Note_on_c, 0, 61, 81
2, 17648, Note_on_c, 0, 49, 0
2, 17658, Note_on_c, 0, 49, 77
2, 17702, Note_on_c, 0, 73, 0
2, 17708, Note_on_c, 0, 78, 101
2, 17711, Note_on_c, 0, 73, 94
2, 17713, Note_on_c, 0, 66, 90
2, 17779, Note_on_c, 0, 49, 0
2, 17785, Note_on_c, 0, 49, 63
2, 17840, Note_on_c, 0, 37, 0
2, 17845, Note_on_c, 0, 37, 78
2, 17894, Note_on_c, 0, 49, 0
2, 17898, Note_on_c, 0, 49, 74
2, 17971, Note_on_c, 0, 44, 0
2, 17973, Note_on_c, 0, 75, 99
2, 17974, Note_on_c, 0, 63, 96
2, 17975, Note_on_c, 0, 44, 75
2, 18017, Note_on_c, 0, 49, 0
2, 18025, Note_on_c, 0, 49, 70
2, 18094, Note_on_c, 0, 37, 0
2, 18102, Note_on_c, 0, 37, 55
2, 18140, Note_on_c, 0, 49, 0
2, 18150, Note_on_c, 0, 49, 68
2, 18207, Control_c, 0, 64, 0
2, 18224, Note_on_c, 0, 73, 0
2, 18231, Note_on_c, 0, 76, 101
2, 18232, Note_on_c, 0, 37, 0
2, 18232, Note_on_c, 0, 68, 0
2, 18234, Note_on_c, 0, 63, 0
2, 18235, Note_on_c, 0, 64, 93
2, 18235, Note_on_c, 0, 73, 92
2, 18235, Note_on_c, 0, 66, 0
2, 18236, Note_on_c, 0, 75, 0
2, 18236, Note_on_c, 0, 80, 0
2, 18236, Note_on_c, 0, 37, 74
2, 18237, Note_on_c, 0, 78, 0
2, 18239, Note_on_c, 0, 68, 91
2, 18255, Note_on_c, 0, 61, 0
2, 18255, Control_c, 0, 64, 127
2, 18347, Note_on_c, 0, 37, 0
2, 18354, Note_on_c, 0, 37, 69
2, 18393, Note_on_c, 0, 49, 0
2, 18405, Note_on_c, 0, 49, 47
2, 18462, Note_on_c, 0, 44, 0
2, 18473, Note_on_c, 0, 44, 55
2, 18478, Note_on_c, 0, 73, 0
2, 18482, Note_on_c, 0, 73, 97
2, 18487, Note_on_c, 0, 61, 93
2, 18516, Note_on_c, 0, 49, 0
2, 18523, Note_on_c, 0, 49, 69
2, 18593, Note_on_c, 0, 37, 0
2, 18597, Note_on_c, 0, 37, 70
2, 18639, Note_on_c, 0, 49, 0
2, 18647, Note_on_c, 0, 49, 75
2, 18700, Note_on_c, 0, 44, 0
2, 18710, Note_on_c, 0, 44, 71
2, 18729, Note_on_c, 0, 75, 100
2, 18731, Note_on_c, 0, 68, 0
2, 18734, Note_on_c, 0, 63, 95
2, 18738, Note_on_c, 0, 71, 74
2, 18740, Note_on_c, 0, 68, 85
2, 18741, Note_on_c, 0, 64, 0
2, 18742, Note_on_c, 0, 76, 0
2, 18831, Note_on_c, 0, 37, 0
2, 18842, Note_on_c, 0, 37, 74
2, 18938, Note_on_c, 0, 44, 0
2, 18950, Note_on_c, 0, 44, 64
2, 18977, Note_on_c, 0, 71, 0
2, 18984, Note_on_c, 0, 63, 0
2, 18988, Note_on_c, 0, 71, 97
2, 18989, Note_on_c, 0, 59, 87
2, 18989, Note_on_c, 0, 66, 85
2, 18990, Note_on_c, 0, 63, 87
2, 19007, Note_on_c, 0, 75, 0
2, 19017, Control_c, 0, 64, 0
2, 19018, Note_on_c, 0, 44, 0
2, 19022, Note_on_c, 0, 68, 0
2, 19023, Note_on_c, 0, 37, 0
2, 19038, Note_on_c, 0, 73, 0
2, 19046, Note_on_c, 0, 49, 0
2, 19054, Note_on_c, 0, 61, 0
2, 19069, Control_c, 0, 64, 127
2, 19088, Note_on_c, 0, 35, 78
2, 19202, Note_on_c, 0, 42, 79
2, 19269, Note_on_c, 0, 47, 72
2, 19297, Control_c, 0, 64, 0
2, 19303, Note_on_c, 0, 66, 0
2, 19303, Note_on_c, 0, 42, 0
2, 19306, Note_on_c, 0, 47, 0
2, 19307, Note_on_c, 0, 59, 0
2, 19310, Note_on_c, 0, 35, 0
2, 19315, Note_on_c, 0, 63, 0
2, 19322, Note_on_c, 0, 71, 0
2, 19335, Note_on_c, 0, 80, 105
2, 19340, Note_on_c, 0, 73, 102
2, 19341, Note_on_c, 0, 68, 107
2, 19344, Note_on_c, 0, 33, 93
2, 19352, Note_on_c, 0, 76, 70
2, 19376, Control_c, 0, 64, 127
2, 19418, Note_on_c, 0, 45, 62
2, 19480, Note_on_c, 0, 40, 78
2, 19537, Note_on_c, 0, 45, 0
2, 19541, Note_on_c, 0, 45, 75
2, 19591, Note_on_c, 0, 73, 0
2, 19599, Note_on_c, 0, 33, 0
2, 19603, Note_on_c, 0, 73, 94
2, 19603, Note_on_c, 0, 69, 62
2, 19606, Note_on_c, 0, 33, 78
2, 19606, Note_on_c, 0, 61, 79
2, 19614, Note_on_c, 0, 61, 0
2, 19614, Note_on_c, 0, 69, 0
2, 19668, Note_on_c, 0, 45, 0
2, 19673, Note_on_c, 0, 45, 70
2, 19686, Control_c, 0, 64, 0
2, 19722, Note_on_c, 0, 33, 0
2, 19722, Note_on_c, 0, 73, 0
2, 19729, Control_c, 0, 64, 127
2, 19731, Note_on_c, 0, 78, 99
2, 19732, Note_on_c, 0, 33, 81
2, 19733, Note_on_c, 0, 69, 71
2, 19733, Note_on_c, 0, 73, 100
2, 19738, Note_on_c, 0, 66, 92
2, 19791, Note_on_c, 0, 45, 0
2, 19802, Note_on_c, 0, 45, 53
2, 19852, Note_on_c, 0, 33, 0
2, 19857, Note_on_c, 0, 33, 82
2, 19921, Note_on_c, 0, 45, 0
2, 19928, Note_on_c, 0, 45, 58
2, 19983, Note_on_c, 0, 33, 0
2, 19987, Note_on_c, 0, 75, 100
2, 19992, Note_on_c, 0, 33, 82
2, 19994, Note_on_c, 0, 63, 94
2, 20052, Note_on_c, 0, 45, 0
2, 20056, Note_on_c, 0, 45, 81
2, 20106, Note_on_c, 0, 33, 0
2, 20112, Note_on_c, 0, 33, 74
2, 20175, Note_on_c, 0, 45, 0
2, 20182, Note_on_c, 0, 45, 68
2, 20229, Note_on_c, 0, 40, 0
2, 20229, Note_on_c, 0, 76, 0
2, 20236, Note_on_c, 0, 33, 0
2, 20236, Note_on_c, 0, 73, 0
2, 20240, Note_on_c, 0, 40, 79
2, 20240, Note_on_c, 0, 76, 98
2, 20242, Note_on_c, 0, 33, 77
2, 20244, Note_on_c, 0, 68, 0
2, 20247, Note_on_c, 0, 73, 86
2, 20248, Note_on_c, 0, 64, 91
2, 20249, Note_on_c, 0, 63, 0
2, 20249, Note_on_c, 0, 75, 0
2, 20250, Note_on_c, 0, 68, 88
2, 20252, Note_on_c, 0, 66, 0
2, 20253, Note_on_c, 0, 78, 0
2, 20305, Note_on_c, 0, 45, 0
2, 20315, Note_on_c, 0, 45, 44
2, 20367, Note_on_c, 0, 33, 0
2, 20372, Note_on_c, 0, 33, 75
2, 20436, Note_on_c, 0, 45, 0
2, 20440, Note_on_c, 0, 45, 54
2, 20482, Note_on_c, 0, 40, 0
2, 20492, Note_on_c, 0, 75, 96
2, 20493, Note_on_c, 0, 40, 66
2, 20501, Note_on_c, 0, 63, 82
2, 20551, Note_on_c, 0, 45, 0
2, 20557, Note_on_c, 0, 45, 73
2, 20613, Note_on_c, 0, 33, 0
2, 20624, Note_on_c, 0, 33, 67
2, 20674, Note_on_c, 0, 45, 0
2, 20685, Note_on_c, 0, 45, 74
2, 20728, Note_on_c, 0, 73, 0
2, 20736, Note_on_c, 0, 64, 0
2, 20736, Note_on_c, 0, 68, 0
2, 20738, Note_on_c, 0, 73, 100
2, 20739, Note_on_c, 0, 76, 0
2, 20739, Note_on_c, 0, 61, 87
2, 20741, Note_on_c, 0, 68, 84
2, 20742, Note_on_c, 0, 64, 82
2, 20751, Note_on_c, 0, 40, 0
2, 20755, Note_on_c, 0, 40, 74
2, 20766, Note_on_c, 0, 80, 0
2, 20843, Note_on_c, 0, 33, 0
2, 20853, Note_on_c, 0, 33, 76
2, 20928, Note_on_c, 0, 40, 0
2, 20937, Note_on_c, 0, 40, 65
2, 20979, Note_on_c, 0, 71, 93
2, 20981, Note_on_c, 0, 59, 87
2, 20981, Note_on_c, 0, 63, 0
2, 20985, Note_on_c, 0, 63, 91
2, 20985, Note_on_c, 0, 66, 83
2, 20987, Note_on_c, 0, 47, 77
2, 20999, Control_c, 0, 64, 0
2, 21000, Note_on_c, 0, 75, 0
2, 21002, Note_on_c, 0, 73, 0
2, 21002, Note_on_c, 0, 68, 0
2, 21003, Note_on_c, 0, 64, 0
2, 21004, Note_on_c, 0, 40, 0
2, 21004, Note_on_c, 0, 61, 0
2, 21012, Note_on_c, 0, 69, 0
2, 21027, Note_on_c, 0, 45, 0
2, 21035, Note_on_c, 0, 33, 0
2, 21058, Control_c, 0, 64, 127
2, 21088, Note_on_c, 0, 35, 86
2, 21197, Note_on_c, 0, 42, 83
2, 21258, Note_on_c, 0, 47, 0
2, 21264, Note_on_c, 0, 47, 64
2, 21303, Note_on_c, 0, 42, 0
2, 21305, Note_on_c, 0, 66, 0
2, 21306, Control_c, 0, 64, 0
2, 21307, Note_on_c, 0, 47, 0
2, 21307, Note_on_c, 0, 63, 0
2, 21307, Note_on_c, 0, 59, 0
2, 21308, Note_on_c, 0, 71, 0
2, 21308, Note_on_c, 0, 35, 0
2, 21346, Note_on_c, 0, 92, 108
2, 21348, Note_on_c, 0, 40, 86
2, 21350, Note_on_c, 0, 83, 97
2, 21353, Note_on_c, 0, 80, 104
2, 21354, Note_on_c, 0, 88, 91
2, 21373, Control_c, 0, 64, 127
2, 21405, Note_on_c, 0, 52, 68
2, 21482, Note_on_c, 0, 47, 79
2, 21588, Note_on_c, 0, 40, 0
2, 21596, Note_on_c, 0, 88, 0
2, 21599, Note_on_c, 0, 40, 71
2, 21601, Note_on_c, 0, 88, 95
2, 21608, Note_on_c, 0, 76, 90
2, 21628, Note_on_c, 0, 86, 61
2, 21726, Note_on_c, 0, 47, 0
2, 21726, Note_on_c, 0, 83, 0
2, 21730, Note_on_c, 0, 90, 107
2, 21735, Note_on_c, 0, 47, 75
2, 21737, Note_on_c, 0, 78, 95
2, 21737, Note_on_c, 0, 83, 86
2, 21857, Note_on_c, 0, 40, 0
2, 21864, Note_on_c, 0, 40, 63
2, 21972, Note_on_c, 0, 40, 0
2, 21980, Note_on_c, 0, 47, 0
2, 21982, Note_on_c, 0, 40, 71
2, 21983, Note_on_c, 0, 87, 99
2, 21986, Note_on_c, 0, 47, 71
2, 21989, Note_on_c, 0, 75, 92
2, 22118, Note_on_c, 0, 40, 0
2, 22118, Note_on_c, 0, 92, 0
2, 22122, Note_on_c, 0, 40, 66
2, 22233, Note_on_c, 0, 47, 0
2, 22241, Note_on_c, 0, 86, 0
2, 22241, Note_on_c, 0, 88, 0
2, 22243, Note_on_c, 0, 47, 82
2, 22248, Note_on_c, 0, 76, 0
2, 22248, Note_on_c, 0, 80, 0
2, 22248, Note_on_c, 0, 83, 0
2, 22251, Note_on_c, 0, 88, 100
2, 22253, Note_on_c, 0, 80, 92
2, 22257, Note_on_c, 0, 76, 92
2, 22260, Note_on_c, 0, 83, 87
2, 22318, Note_on_c, 0, 90, 0
2, 22371, Note_on_c, 0, 40, 0
2, 22378, Note_on_c, 0, 40, 74
2, 22440, Note_on_c, 0, 52, 0
2, 22448, Note_on_c, 0, 52, 72
2, 22494, Note_on_c, 0, 47, 0
2, 22498, Note_on_c, 0, 47, 73
2, 22500, Note_on_c, 0, 85, 94
2, 22504, Note_on_c, 0, 73, 89
2, 22556, Note_on_c, 0, 52, 0
2, 22566, Note_on_c, 0, 52, 71
2, 22640, Note_on_c, 0, 40, 0
2, 22648, Note_on_c, 0, 40, 63
2, 22694, Note_on_c, 0, 52, 0
2, 22701, Note_on_c, 0, 52, 71
2, 22748, Note_on_c, 0, 47, 0
2, 22748, Note_on_c, 0, 75, 0
2, 22748, Note_on_c, 0, 80, 0
2, 22748, Note_on_c, 0, 87, 0
2, 22754, Note_on_c, 0, 47, 71
2, 22756, Note_on_c, 0, 80, 86
2, 22757, Note_on_c, 0, 87, 99
2, 22759, Note_on_c, 0, 75, 95
2, 22886, Note_on_c, 0, 40, 0
2, 22890, Note_on_c, 0, 40, 62
2, 22955, Note_on_c, 0, 52, 0
2, 22965, Note_on_c, 0, 52, 62
2, 23001, Note_on_c, 0, 47, 0
2, 23001, Note_on_c, 0, 83, 0
2, 23009, Note_on_c, 0, 76, 0
2, 23009, Note_on_c, 0, 80, 0
2, 23012, Note_on_c, 0, 47, 80
2, 23013, Note_on_c, 0, 83, 99
2, 23014, Note_on_c, 0, 71, 82
2, 23015, Note_on_c, 0, 76, 84
2, 23020, Note_on_c, 0, 80, 84
2, 23116, Note_on_c, 0, 40, 0
2, 23128, Note_on_c, 0, 40, 69
2, 23193, Note_on_c, 0, 52, 0
2, 23204, Note_on_c, 0, 52, 72
2, 23239, Note_on_c, 0, 47, 0
2, 23243, Note_on_c, 0, 47, 74
2, 23320, Control_c, 0, 64, 0
2, 23322, Note_on_c, 0, 85, 0
2, 23322, Note_on_c, 0, 73, 0
2, 23324, Note_on_c, 0, 47, 0
2, 23324, Note_on_c, 0, 78, 0
2, 23325, Note_on_c, 0, 76, 0
2, 23325, Note_on_c, 0, 88, 0
2, 23331, Note_on_c, 0, 75, 0
2, 23339, Note_on_c, 0, 52, 0
2, 23339, Note_on_c, 0, 71, 0
2, 23342, Note_on_c, 0, 91, 108
2, 23343, Note_on_c, 0, 79, 102
2, 23347, Note_on_c, 0, 80, 0
2, 23347, Note_on_c, 0, 83, 0
2, 23347, Note_on_c, 0, 87, 0
2, 23350, Note_on_c, 0, 82, 102
2, 23352, Note_on_c, 0, 87, 95
2, 23354, Note_on_c, 0, 40, 0
2, 23359, Note_on_c, 0, 39, 86
2, 23377, Control_c, 0, 64, 127
2, 23447, Note_on_c, 0, 51, 73
2, 23505, Note_on_c, 0, 46, 73
2, 23562, Note_on_c, 0, 51, 0
2, 23572, Note_on_c, 0, 51, 67
2, 23600, Note_on_c, 0, 87, 0
2, 23605, Note_on_c, 0, 87, 89
2, 23606, Note_on_c, 0, 75, 88
2, 23608, Note_on_c, 0, 39, 0
2, 23618, Note_on_c, 0, 39, 81
2, 23628, Note_on_c, 0, 85, 72
2, 23669, Note_on_c, 0, 51, 0
2, 23679, Note_on_c, 0, 51, 72
2, 23723, Note_on_c, 0, 82, 0
2, 23730, Note_on_c, 0, 88, 100
2, 23731, Note_on_c, 0, 46, 0
2, 23734, Note_on_c, 0, 82, 88
2, 23735, Note_on_c, 0, 46, 82
2, 23735, Note_on_c, 0, 76, 90
2, 23792, Note_on_c, 0, 51, 0
2, 23801, Note_on_c, 0, 51, 68
2, 23854, Note_on_c, 0, 39, 0
2, 23865, Note_on_c, 0, 39, 67
2, 23915, Note_on_c, 0, 51, 0
2, 23919, Note_on_c, 0, 51, 75
2, 23980, Control_c, 0, 64, 0
2, 23984, Note_on_c, 0, 46, 0
2, 23984, Note_on_c, 0, 85, 0
2, 23988, Note_on_c, 0, 46, 77
2, 23994, Note_on_c, 0, 85, 93
2, 23996, Note_on_c, 0, 73, 87
2, 24015, Control_c, 0, 64, 127
2, 24038, Note_on_c, 0, 51, 0
2, 24048, Note_on_c, 0, 51, 73
2, 24107, Note_on_c, 0, 39, 0
2, 24118, Note_on_c, 0, 39, 65
2, 24168, Note_on_c, 0, 51, 0
2, 24173, Note_on_c, 0, 51, 68
2, 24238, Note_on_c, 0, 46, 0
2, 24242, Note_on_c, 0, 46, 73
2, 24245, Note_on_c, 0, 75, 0
2, 24245, Note_on_c, 0, 87, 0
2, 24250, Note_on_c, 0, 87, 98
2, 24253, Note_on_c, 0, 79, 0
2, 24253, Note_on_c, 0, 82, 0
2, 24256, Note_on_c, 0, 75, 95
2, 24263, Control_c, 0, 64, 0
2, 24264, Note_on_c, 0, 79, 81
2, 24264, Note_on_c, 0, 82, 82
2, 24291, Note_on_c, 0, 51, 0
2, 24295, Note_on_c, 0, 76, 0
2, 24297, Note_on_c, 0, 51, 72
2, 24297, Note_on_c, 0, 73, 0
2, 24314, Note_on_c, 0, 91, 0
2, 24322, Control_c, 0, 64, 127
2, 24368, Note_on_c, 0, 46, 0
2, 24379, Note_on_c, 0, 46, 46
2, 24414, Note_on_c, 0, 51, 0
2, 24421, Note_on_c, 0, 51, 73
2, 24483, Note_on_c, 0, 46, 0
2, 24483, Note_on_c, 0, 85, 0
2, 24491, Note_on_c, 0, 82, 0
2, 24493, Note_on_c, 0, 85, 91
2, 24495, Note_on_c, 0, 46, 80
2, 24497, Note_on_c, 0, 73, 85
2, 24502, Note_on_c, 0, 82, 69
2, 24537, Note_on_c, 0, 51, 0
2, 24543, Note_on_c, 0, 51, 81
2, 24614, Note_on_c, 0, 39, 0
2, 24618, Note_on_c, 0, 39, 65
2, 24660, Note_on_c, 0, 51, 0
2, 24660, Note_on_c, 0, 75, 0
2, 24665, Note_on_c, 0, 51, 72
2, 24729, Note_on_c, 0, 46, 0
2, 24735, Note_on_c, 0, 46, 71
2, 24742, Note_on_c, 0, 83, 94
2, 24753, Note_on_c, 0, 71, 80
2, 24754, Note_on_c, 0, 75, 85
2, 24760, Note_on_c, 0, 79, 0
2, 24765, Note_on_c, 0, 79, 64
2, 24775, Note_on_c, 0, 51, 0
2, 24785, Note_on_c, 0, 51, 85
2, 24867, Note_on_c, 0, 39, 0
2, 24875, Note_on_c, 0, 39, 65
2, 24898, Note_on_c, 0, 51, 0
2, 24909, Note_on_c, 0, 51, 67
2, 24975, Note_on_c, 0, 46, 0
2, 24985, Note_on_c, 0, 46, 73
2, 24998, Note_on_c, 0, 39, 0
2, 24998, Note_on_c, 0, 75, 0
2, 24998, Note_on_c, 0, 82, 0
2, 25002, Note_on_c, 0, 82, 92
2, 25003, Note_on_c, 0, 39, 74
2, 25004, Note_on_c, 0, 75, 78
2, 25008, Note_on_c, 0, 70, 85
2, 25013, Note_on_c, 0, 88, 0
2, 25098, Note_on_c, 0, 39, 0
2, 25104, Note_on_c, 0, 39, 72
2, 25105, Note_on_c, 0, 87, 0
2, 25167, Note_on_c, 0, 51, 0
2, 25176, Note_on_c, 0, 51, 58
2, 25213, Note_on_c, 0, 46, 0
2, 25223, Note_on_c, 0, 46, 72
2, 25251, Note_on_c, 0, 73, 0
2, 25252, Control_c, 0, 64, 0
2, 25256, Note_on_c, 0, 79, 0
2, 25257, Note_on_c, 0, 82, 0
2, 25257, Note_on_c, 0, 70, 0
2, 25257, Note_on_c, 0, 71, 0
2, 25257, Note_on_c, 0, 46, 0
2, 25258, Note_on_c, 0, 83, 0
2, 25258, Note_on_c, 0, 75, 0
2, 25258, Note_on_c, 0, 51, 0
2, 25259, Note_on_c, 0, 39, 0
2, 25267, Note_on_c, 0, 85, 0
2, 25351, Note_on_c, 0, 75, 98
2, 25353, Note_on_c, 0, 68, 89
2, 25355, Note_on_c, 0, 63, 92
2, 25356, Note_on_c, 0, 44, 89
2, 25382, Control_c, 0, 64, 127
2, 25466, Note_on_c, 0, 44, 0
2, 25471, Note_on_c, 0, 51, 73
2, 25472, Note_on_c, 0, 56, 73
2, 25475, Note_on_c, 0, 44, 72
2, 25557, Control_c, 0, 64, 0
2, 25564, Note_on_c, 0, 56, 0
2, 25564, Note_on_c, 0, 75, 0
2, 25564, Note_on_c, 0, 51, 0
2, 25565, Note_on_c, 0, 68, 0
2, 25582, Note_on_c, 0, 63, 0
2, 25597, Note_on_c, 0, 44, 0
2, 25607, Note_on_c, 0, 44, 73
2, 25607, Note_on_c, 0, 59, 83
2, 25646, Note_on_c, 0, 59, 0
2, 25651, Note_on_c, 0, 44, 0
2, 25729, Note_on_c, 0, 51, 72
2, 25732, Note_on_c, 0, 61, 84
2, 25768, Note_on_c, 0, 51, 0
2, 25860, Note_on_c, 0, 44, 70
2, 25900, Note_on_c, 0, 44, 0
2, 25970, Note_on_c, 0, 61, 0
2, 25987, Note_on_c, 0, 51, 65
2, 25989, Note_on_c, 0, 58, 81
2, 26024, Note_on_c, 0, 51, 0
2, 26122, Note_on_c, 0, 44, 68
2, 26164, Note_on_c, 0, 44, 0
2, 26246, Note_on_c, 0, 59, 80
2, 26247, Note_on_c, 0, 51, 62
2, 26262, Note_on_c, 0, 58, 0
2, 26285, Note_on_c, 0, 51, 0
2, 26369, Note_on_c, 0, 44, 72
2, 26417, Note_on_c, 0, 44, 0
2, 26486, Note_on_c, 0, 59, 0
2, 26505, Note_on_c, 0, 56, 76
2, 26507, Note_on_c, 0, 51, 60
2, 26545, Note_on_c, 0, 51, 0
2, 26620, Note_on_c, 0, 44, 76
2, 26668, Note_on_c, 0, 44, 0
2, 26739, Note_on_c, 0, 51, 66
2, 26769, Note_on_c, 0, 58, 79
2, 26777, Note_on_c, 0, 56, 0
2, 26784, Note_on_c, 0, 51, 0
2, 26869, Note_on_c, 0, 44, 73
2, 26926, Control_c, 0, 64, 127
2, 26997, Note_on_c, 0, 54, 75
2, 26998, Note_on_c, 0, 51, 71
2, 27130, Note_on_c, 0, 42, 72
2, 27131, Note_on_c, 0, 61, 79
2, 27194, Note_on_c, 0, 66, 78
2, 27229, Note_on_c, 0, 49, 80
2, 27252, Note_on_c, 0, 70, 74
2, 27253, Note_on_c, 0, 73, 82
2, 27302, Note_on_c, 0, 44, 0
2, 27303, Control_c, 0, 64, 0
2, 27305, Note_on_c, 0, 42, 0
2, 27305, Note_on_c, 0, 51, 0
2, 27306, Note_on_c, 0, 54, 0
2, 27306, Note_on_c, 0, 61, 0
2, 27306, Note_on_c, 0, 58, 0
2, 27306, Note_on_c, 0, 66, 0
2, 27306, Note_on_c, 0, 73, 0
2, 27306, Note_on_c, 0, 49, 0
2, 27306, Note_on_c, 0, 70, 0
2, 27345, Note_on_c, 0, 75, 99
2, 27352, Note_on_c, 0, 68, 83
2, 27352, Note_on_c, 0, 71, 70
2, 27352, Note_on_c, 0, 63, 88
2, 27360, Note_on_c, 0, 40, 72
2, 27402, Control_c, 0, 64, 127
2, 27479, Note_on_c, 0, 40, 0
2, 27489, Note_on_c, 0, 47, 67
2, 27490, Note_on_c, 0, 40, 61
2, 27490, Note_on_c, 0, 52, 64
2, 27533, Control_c, 0, 64, 0
2, 27536, Note_on_c, 0, 75, 0
2, 27538, Note_on_c, 0, 63, 0
2, 27541, Note_on_c, 0, 52, 0
2, 27542, Note_on_c, 0, 40, 0
2, 27542, Note_on_c, 0, 47, 0
2, 27548, Note_on_c, 0, 68, 0
2, 27548, Note_on_c, 0, 71, 0
2, 27609, Note_on_c, 0, 59, 83
2, 27612, Note_on_c, 0, 40, 68
2, 27674, Note_on_c, 0, 40, 0
2, 27682, Note_on_c, 0, 59, 0
2, 27729, Note_on_c, 0, 47, 72
2, 27730, Note_on_c, 0, 61, 84
2, 27773, Note_on_c, 0, 47, 0
2, 27861, Note_on_c, 0, 40, 63
2, 27903, Note_on_c, 0, 40, 0
2, 27970, Note_on_c, 0, 47, 66
2, 27995, Note_on_c, 0, 58, 77
2, 27996, Note_on_c, 0, 61, 0
2, 28008, Note_on_c, 0, 47, 0
2, 28117, Note_on_c, 0, 40, 53
2, 28157, Note_on_c, 0, 40, 0
2, 28230, Note_on_c, 0, 47, 67
2, 28235, Note_on_c, 0, 59, 80
2, 28243, Note_on_c, 0, 58, 0
2, 28261, Note_on_c, 0, 47, 0
2, 28356, Note_on_c, 0, 40, 62
2, 28395, Note_on_c, 0, 40, 0
2, 28477, Note_on_c, 0, 47, 67
2, 28479, Note_on_c, 0, 59, 0
2, 28481, Note_on_c, 0, 58, 78
2, 28507, Note_on_c, 0, 47, 0
2, 28606, Note_on_c, 0, 40, 66
2, 28646, Note_on_c, 0, 40, 0
2, 28717, Note_on_c, 0, 47, 69
2, 28733, Note_on_c, 0, 56, 78
2, 28763, Note_on_c, 0, 58, 0
2, 28771, Note_on_c, 0, 47, 0
2, 28859, Note_on_c, 0, 40, 52
2, 28907, Control_c, 0, 64, 127
2, 28957, Note_on_c, 0, 47, 73
2, 28960, Note_on_c, 0, 54, 76
2, 29080, Control_c, 0, 64, 0
2, 29082, Note_on_c, 0, 40, 0
2, 29084, Note_on_c, 0, 47, 0
2, 29085, Note_on_c, 0, 54, 0
2, 29094, Note_on_c, 0, 42, 74
2, 29095, Note_on_c, 0, 61, 76
2, 29099, Note_on_c, 0, 56, 0
2, 29137, Control_c, 0, 64, 127
2, 29162, Note_on_c, 0, 66, 78
2, 29203, Note_on_c, 0, 49, 78
2, 29204, Note_on_c, 0, 73, 85
2, 29205, Note_on_c, 0, 70, 76
2, 29262, Note_on_c, 0, 61, 0
2, 29266, Note_on_c, 0, 70, 0
2, 29268, Note_on_c, 0, 73, 0
2, 29268, Note_on_c, 0, 42, 0
2, 29269, Note_on_c, 0, 66, 0
2, 29270, Control_c, 0, 64, 0
2, 29272, Note_on_c, 0, 49, 0
2, 29318, Note_on_c, 0, 75, 100
2, 29319, Note_on_c, 0, 87, 99
2, 29322, Note_on_c, 0, 82, 91
2, 29325, Note_on_c, 0, 44, 87
2, 29337, Control_c, 0, 64, 127
2, 29440, Note_on_c, 0, 56, 73
2, 29440, Note_on_c, 0, 51, 72
2, 29537, Control_c, 0, 64, 0
2, 29539, Note_on_c, 0, 82, 0
2, 29540, Note_on_c, 0, 87, 0
2, 29540, Note_on_c, 0, 51, 0
2, 29540, Note_on_c, 0, 75, 0
2, 29541, Note_on_c, 0, 56, 0
2, 29552, Note_on_c, 0, 44, 0
2, 29581, Note_on_c, 0, 71, 78
2, 29583, Note_on_c, 0, 44, 71
2, 29584, Note_on_c, 0, 68, 71
2, 29634, Note_on_c, 0, 44, 0
2, 29667, Note_on_c, 0, 68, 0
2, 29697, Note_on_c, 0, 51, 75
2, 29698, Note_on_c, 0, 73, 83
2, 29701, Note_on_c, 0, 71, 0
2, 29702, Note_on_c, 0, 70, 81
2, 29708, Note_on_c, 0, 56, 67
2, 29738, Note_on_c, 0, 51, 0
2, 29767, Note_on_c, 0, 56, 0
2, 29825, Note_on_c, 0, 44, 75
2, 29879, Note_on_c, 0, 44, 0
2, 29936, Note_on_c, 0, 70, 0
2, 29946, Note_on_c, 0, 70, 73
2, 29953, Note_on_c, 0, 51, 70
2, 29954, Note_on_c, 0, 56, 58
2, 29956, Note_on_c, 0, 73, 0
2, 29977, Note_on_c, 0, 66, 67
2, 29987, Note_on_c, 0, 51, 0
2, 29989, Note_on_c, 0, 56, 0
2, 30076, Note_on_c, 0, 44, 73
2, 30122, Note_on_c, 0, 44, 0
2, 30160, Note_on_c, 0, 66, 0
2, 30177, Note_on_c, 0, 70, 0
2, 30202, Note_on_c, 0, 71, 82
2, 30204, Note_on_c, 0, 56, 67
2, 30204, Note_on_c, 0, 51, 65
2, 30210, Note_on_c, 0, 63, 63
2, 30210, Note_on_c, 0, 68, 68
2, 30245, Note_on_c, 0, 51, 0
2, 30247, Note_on_c, 0, 56, 0
2, 30259, Note_on_c, 0, 63, 0
2, 30316, Note_on_c, 0, 68, 0
2, 30336, Note_on_c, 0, 44, 68
2, 30384, Note_on_c, 0, 44, 0
2, 30436, Note_on_c, 0, 71, 0
2, 30448, Note_on_c, 0, 68, 80
2, 30462, Note_on_c, 0, 56, 65
2, 30464, Note_on_c, 0, 63, 72
2, 30466, Note_on_c, 0, 51, 64
2, 30501, Note_on_c, 0, 51, 0
2, 30589, Control_c, 0, 64, 127
2, 30593, Note_on_c, 0, 44, 73
2, 30646, Control_c, 0, 64, 0
2, 30648, Note_on_c, 0, 44, 0
2, 30652, Note_on_c, 0, 63, 0
2, 30658, Note_on_c, 0, 56, 0
2, 30658, Note_on_c, 0, 68, 0
2, 30697, Note_on_c, 0, 66, 81
2, 30700, Note_on_c, 0, 70, 84
2, 30706, Note_on_c, 0, 56, 71
2, 30708, Note_on_c, 0, 51, 77
2, 30745, Note_on_c, 0, 51, 0
2, 30766, Note_on_c, 0, 56, 0
2, 30815, Note_on_c, 0, 66, 0
2, 30834, Note_on_c, 0, 44, 73
2, 30888, Control_c, 0, 64, 127
2, 30928, Note_on_c, 0, 63, 78
2, 30929, Note_on_c, 0, 66, 79
2, 30952, Note_on_c, 0, 51, 74
2, 30953, Note_on_c, 0, 56, 64
2, 31018, Note_on_c, 0, 44, 0
2, 31018, Note_on_c, 0, 51, 0
2, 31019, Note_on_c, 0, 63, 0
2, 31019, Note_on_c, 0, 70, 0
2, 31019, Control_c, 0, 64, 0
2, 31021, Note_on_c, 0, 66, 0
2, 31042, Note_on_c, 0, 56, 0
2, 31069, Note_on_c, 0, 73, 75
2, 31069, Note_on_c, 0, 42, 83
2, 31080, Control_c, 0, 64, 127
2, 31124, Note_on_c, 0, 78, 83
2, 31179, Note_on_c, 0, 54, 76
2, 31183, Note_on_c, 0, 49, 78
2, 31184, Note_on_c, 0, 82, 77
2, 31184, Note_on_c, 0, 85, 88
2, 31242, Note_on_c, 0, 78, 0
2, 31244, Note_on_c, 0, 82, 0
2, 31244, Note_on_c, 0, 49, 0
2, 31245, Note_on_c, 0, 85, 0
2, 31246, Control_c, 0, 64, 0
2, 31249, Note_on_c, 0, 73, 0
2, 31257, Note_on_c, 0, 42, 0
2, 31265, Note_on_c, 0, 54, 0
2, 31297, Note_on_c, 0, 87, 104
2, 31299, Note_on_c, 0, 80, 89
2, 31302, Note_on_c, 0, 75, 93
2, 31306, Note_on_c, 0, 40, 74
2, 31411, Control_c, 0, 64, 127
2, 31420, Note_on_c, 0, 52, 70
2, 31422, Note_on_c, 0, 47, 68
2, 31478, Note_on_c, 0, 47, 0
2, 31478, Note_on_c, 0, 80, 0
2, 31481, Note_on_c, 0, 75, 0
2, 31481, Note_on_c, 0, 87, 0
2, 31482, Note_on_c, 0, 52, 0
2, 31482, Control_c, 0, 64, 0
2, 31495, Note_on_c, 0, 40, 0
2, 31554, Note_on_c, 0, 40, 70
2, 31554, Note_on_c, 0, 71, 80
2, 31562, Note_on_c, 0, 68, 71
2, 31594, Note_on_c, 0, 40, 0
2, 31600, Note_on_c, 0, 68, 0
2, 31668, Note_on_c, 0, 71, 0
2, 31676, Note_on_c, 0, 73, 84
2, 31679, Note_on_c, 0, 70, 85
2, 31684, Note_on_c, 0, 47, 66
2, 31714, Note_on_c, 0, 47, 0
2, 31804, Note_on_c, 0, 40, 67
2, 31853, Note_on_c, 0, 40, 0
2, 31860, Note_on_c, 0, 70, 0
2, 31907, Note_on_c, 0, 73, 0
2, 31924, Note_on_c, 0, 70, 70
2, 31932, Note_on_c, 0, 52, 67
2, 31936, Note_on_c, 0, 47, 62
2, 31938, Note_on_c, 0, 66, 68
2, 31968, Note_on_c, 0, 47, 0
2, 31968, Note_on_c, 0, 52, 0
2, 32065, Note_on_c, 0, 40, 62
2, 32113, Note_on_c, 0, 40, 0
2, 32119, Note_on_c, 0, 66, 0
2, 32149, Note_on_c, 0, 70, 0
2, 32173, Note_on_c, 0, 71, 81
2, 32174, Note_on_c, 0, 47, 68
2, 32175, Note_on_c, 0, 52, 72
2, 32180, Note_on_c, 0, 59, 70
2, 32182, Note_on_c, 0, 68, 75
2, 32206, Note_on_c, 0, 52, 0
2, 32213, Note_on_c, 0, 47, 0
2, 32225, Note_on_c, 0, 59, 0
2, 32312, Note_on_c, 0, 40, 66
2, 32317, Control_c, 0, 64, 127
2, 32426, Note_on_c, 0, 52, 73
2, 32428, Note_on_c, 0, 70, 82
2, 32439, Note_on_c, 0, 47, 68
2, 32440, Control_c, 0, 64, 0
2, 32442, Note_on_c, 0, 66, 71
2, 32467, Note_on_c, 0, 40, 0
2, 32468, Note_on_c, 0, 47, 0
2, 32491, Note_on_c, 0, 52, 0
2, 32494, Note_on_c, 0, 68, 0
2, 32565, Note_on_c, 0, 40, 67
2, 32570, Control_c, 0, 64, 127
2, 32641, Note_on_c, 0, 47, 69
2, 32650, Note_on_c, 0, 52, 61
2, 32679, Note_on_c, 0, 59, 50
2, 32680, Note_on_c, 0, 68, 86
2, 32686, Note_on_c, 0, 59, 0
2, 32703, Note_on_c, 0, 63, 71
2, 32715, Note_on_c, 0, 70, 0
2, 32718, Note_on_c, 0, 40, 0
2, 32720, Note_on_c, 0, 47, 0
2, 32720, Control_c, 0, 64, 0
2, 32720, Note_on_c, 0, 52, 0
2, 32720, Note_on_c, 0, 71, 0
2, 32724, Note_on_c, 0, 66, 0
2, 32800, Note_on_c, 0, 30, 88
2, 32801, Control_c, 0, 64, 127
2, 32947, Note_on_c, 0, 63, 0
2, 32950, Note_on_c, 0, 66, 85
2, 32952, Note_on_c, 0, 63, 85
2, 33066, Note_on_c, 0, 42, 81
2, 33277, Note_on_c, 0, 30, 0
2, 33309, Note_on_c, 0, 68, 0
2, 33309, Control_c, 0, 64, 0
2, 33310, Note_on_c, 0, 66, 0
2, 33311, Note_on_c, 0, 63, 0
2, 33311, Note_on_c, 0, 42, 0
2, 33321, Note_on_c, 0, 44, 81
2, 33322, Note_on_c, 0, 87, 96
2, 33326, Note_on_c, 0, 80, 84
2, 33326, Note_on_c, 0, 75, 87
2, 33327, Note_on_c, 0, 83, 78
2, 33453, Note_on_c, 0, 51, 66
2, 33454, Control_c, 0, 64, 127
2, 33569, Note_on_c, 0, 44, 0
2, 33569, Note_on_c, 0, 83, 0
2, 33576, Note_on_c, 0, 44, 72
2, 33576, Note_on_c, 0, 75, 0
2, 33579, Note_on_c, 0, 83, 88
2, 33588, Note_on_c, 0, 75, 79
2, 33698, Note_on_c, 0, 59, 77
2, 33703, Note_on_c, 0, 85, 94
2, 33814, Note_on_c, 0, 51, 0
2, 33815, Note_on_c, 0, 87, 0
2, 33815, Note_on_c, 0, 80, 0
2, 33815, Control_c, 0, 64, 0
2, 33818, Note_on_c, 0, 59, 0
2, 33830, Note_on_c, 0, 44, 0
2, 33838, Note_on_c, 0, 75, 0
2, 33838, Note_on_c, 0, 83, 0
2, 33841, Note_on_c, 0, 44, 76
2, 33842, Note_on_c, 0, 75, 68
2, 33899, Control_c, 0, 64, 127
2, 33950, Note_on_c, 0, 51, 70
2, 33953, Note_on_c, 0, 82, 89
2, 34073, Note_on_c, 0, 56, 68
2, 34091, Note_on_c, 0, 75, 0
2, 34100, Note_on_c, 0, 75, 80
2, 34206, Note_on_c, 0, 59, 74
2, 34207, Note_on_c, 0, 83, 93
2, 34304, Note_on_c, 0, 75, 0
2, 34305, Note_on_c, 0, 56, 0
2, 34306, Note_on_c, 0, 82, 0
2, 34307, Note_on_c, 0, 51, 0
2, 34307, Control_c, 0, 64, 0
2, 34309, Note_on_c, 0, 59, 0
2, 34321, Note_on_c, 0, 44, 0
2, 34329, Note_on_c, 0, 85, 0
2, 34331, Note_on_c, 0, 44, 78
2, 34358, Note_on_c, 0, 75, 74
2, 34391, Control_c, 0, 64, 127
2, 34446, Note_on_c, 0, 51, 67
2, 34456, Note_on_c, 0, 80, 91
2, 34578, Note_on_c, 0, 56, 71
2, 34590, Note_on_c, 0, 75, 0
2, 34595, Note_on_c, 0, 75, 76
2, 34695, Note_on_c, 0, 59, 75
2, 34700, Note_on_c, 0, 82, 91
2, 34787, Note_on_c, 0, 80, 0
2, 34787, Note_on_c, 0, 56, 0
2, 34788, Control_c, 0, 64, 0
2, 34788, Note_on_c, 0, 51, 0
2, 34792, Note_on_c, 0, 59, 0
2, 34805, Note_on_c, 0, 83, 0
2, 34813, Note_on_c, 0, 44, 0
2, 34821, Note_on_c, 0, 75, 0
2, 34824, Note_on_c, 0, 44, 72
2, 34831, Note_on_c, 0, 75, 73
2, 34859, Control_c, 0, 64, 127
2, 34948, Note_on_c, 0, 78, 88
2, 34948, Note_on_c, 0, 51, 74
2, 35071, Note_on_c, 0, 42, 77
2, 35073, Note_on_c, 0, 73, 79
2, 35136, Note_on_c, 0, 78, 0
2, 35140, Note_on_c, 0, 78, 78
2, 35161, Note_on_c, 0, 49, 70
2, 35174, Note_on_c, 0, 82, 0
2, 35183, Note_on_c, 0, 82, 75
2, 35208, Note_on_c, 0, 85, 83
2, 35287, Note_on_c, 0, 44, 0
2, 35287, Control_c, 0, 64, 0
2, 35288, Note_on_c, 0, 42, 0
2, 35288, Note_on_c, 0, 73, 0
2, 35288, Note_on_c, 0, 49, 0
2, 35289, Note_on_c, 0, 82, 0
2, 35289, Note_on_c, 0, 51, 0
2, 35290, Note_on_c, 0, 85, 0
2, 35290, Note_on_c, 0, 78, 0
2, 35304, Note_on_c, 0, 75, 0
2, 35307, Note_on_c, 0, 40, 73
2, 35308, Note_on_c, 0, 87, 101
2, 35310, Note_on_c, 0, 80, 93
2, 35315, Note_on_c, 0, 75, 93
2, 35389, Control_c, 0, 64, 127
2, 35443, Note_on_c, 0, 47, 75
2, 35550, Note_on_c, 0, 75, 0
2, 35560, Note_on_c, 0, 83, 86
2, 35562, Note_on_c, 0, 75, 87
2, 35570, Note_on_c, 0, 52, 72
2, 35672, Note_on_c, 0, 56, 78
2, 35680, Note_on_c, 0, 85, 97
2, 35804, Note_on_c, 0, 40, 0
2, 35807, Control_c, 0, 64, 0
2, 35807, Note_on_c, 0, 47, 0
2, 35807, Note_on_c, 0, 52, 0
2, 35808, Note_on_c, 0, 87, 0
2, 35808, Note_on_c, 0, 85, 0
2, 35808, Note_on_c, 0, 83, 0
2, 35809, Note_on_c, 0, 80, 0
2, 35809, Note_on_c, 0, 56, 0
2, 35810, Note_on_c, 0, 40, 69
2, 35811, Note_on_c, 0, 75, 0
2, 35815, Note_on_c, 0, 75, 72
2, 35888, Control_c, 0, 64, 127
2, 35932, Note_on_c, 0, 82, 86
2, 35933, Note_on_c, 0, 47, 70
2, 36049, Note_on_c, 0, 75, 0
2, 36053, Note_on_c, 0, 52, 67
2, 36061, Note_on_c, 0, 75, 77
2, 36166, Note_on_c, 0, 56, 69
2, 36178, Note_on_c, 0, 83, 94
2, 36296, Note_on_c, 0, 47, 0
2, 36298, Control_c, 0, 64, 0
2, 36298, Note_on_c, 0, 52, 0
2, 36298, Note_on_c, 0, 56, 0
2, 36299, Note_on_c, 0, 82, 0
2, 36299, Note_on_c, 0, 83, 0
2, 36303, Note_on_c, 0, 40, 0
2, 36303, Note_on_c, 0, 75, 0
2, 36307, Note_on_c, 0, 40, 75
2, 36309, Note_on_c, 0, 75, 85
2, 36372, Control_c, 0, 64, 127
2, 36426, Note_on_c, 0, 47, 73
2, 36432, Note_on_c, 0, 82, 86
2, 36549, Note_on_c, 0, 75, 0
2, 36551, Note_on_c, 0, 52, 71
2, 36556, Note_on_c, 0, 75, 74
2, 36646, Note_on_c, 0, 56, 68
2, 36676, Note_on_c, 0, 80, 88
2, 36754, Control_c, 0, 64, 0
2, 36756, Note_on_c, 0, 75, 0
2, 36756, Note_on_c, 0, 47, 0
2, 36757, Note_on_c, 0, 82, 0
2, 36757, Note_on_c, 0, 52, 0
2, 36758, Note_on_c, 0, 56, 0
2, 36779, Note_on_c, 0, 40, 0
2, 36784, Note_on_c, 0, 40, 70
2, 36796, Note_on_c, 0, 75, 78
2, 36825, Control_c, 0, 64, 127
2, 36898, Note_on_c, 0, 47, 75
2, 36905, Note_on_c, 0, 78, 88
2, 37005, Control_c, 0, 64, 0
2, 37006, Note_on_c, 0, 47, 0
2, 37008, Note_on_c, 0, 75, 0
2, 37009, Note_on_c, 0, 78, 0
2, 37010, Note_on_c, 0, 40, 0
2, 37017, Note_on_c, 0, 80, 0
2, 37022, Note_on_c, 0, 73, 76
2, 37028, Note_on_c, 0, 42, 74
2, 37063, Control_c, 0, 64, 127
2, 37079, Note_on_c, 0, 78, 85
2, 37124, Note_on_c, 0, 82, 86
2, 37136, Note_on_c, 0, 49, 75
2, 37136, Note_on_c, 0, 85, 89
2, 37251, Note_on_c, 0, 99, 103
2, 37253, Note_on_c, 0, 87, 96
2, 37273, Note_on_c, 0, 44, 82
2, 37370, Note_on_c, 0, 87, 0
2, 37381, Note_on_c, 0, 87, 89
2, 37381, Note_on_c, 0, 56, 72
2, 37498, Note_on_c, 0, 95, 99
2, 37501, Note_on_c, 0, 83, 94
2, 37519, Note_on_c, 0, 59, 72
2, 37526, Note_on_c, 0, 63, 70
2, 37615, Note_on_c, 0, 68, 83
2, 37616, Note_on_c, 0, 87, 0
2, 37619, Note_on_c, 0, 97, 103
2, 37620, Note_on_c, 0, 87, 89
2, 37624, Note_on_c, 0, 85, 0
2, 37635, Note_on_c, 0, 85, 95
2, 37747, Note_on_c, 0, 44, 0
2, 37747, Note_on_c, 0, 87, 0
2, 37751, Note_on_c, 0, 44, 82
2, 37752, Note_on_c, 0, 87, 87
2, 37758, Note_on_c, 0, 78, 0
2, 37758, Note_on_c, 0, 42, 0
2, 37759, Note_on_c, 0, 49, 0
2, 37759, Note_on_c, 0, 59, 0
2, 37759, Note_on_c, 0, 63, 0
2, 37759, Note_on_c, 0, 82, 0
2, 37759, Note_on_c, 0, 56, 0
2, 37759, Note_on_c, 0, 85, 0
2, 37759, Note_on_c, 0, 83, 0
2, 37759, Note_on_c, 0, 95, 0
2, 37760, Control_c, 0, 64, 0
2, 37760, Note_on_c, 0, 68, 0
2, 37761, Note_on_c, 0, 97, 0
2, 37762, Note_on_c, 0, 73, 0
2, 37770, Note_on_c, 0, 99, 0
2, 37831, Control_c, 0, 64, 127
2, 37872, Note_on_c, 0, 56, 76
2, 37874, Note_on_c, 0, 94, 97
2, 37876, Note_on_c, 0, 82, 94
2, 37997, Note_on_c, 0, 59, 71
2, 38000, Note_on_c, 0, 87, 0
2, 38004, Note_on_c, 0, 87, 80
2, 38006, Note_on_c, 0, 63, 65
2, 38011, Note_on_c, 0, 75, 70
2, 38098, Note_on_c, 0, 68, 77
2, 38120, Note_on_c, 0, 95, 101
2, 38123, Note_on_c, 0, 87, 0
2, 38125, Note_on_c, 0, 83, 91
2, 38128, Note_on_c, 0, 87, 83
2, 38238, Note_on_c, 0, 44, 0
2, 38246, Note_on_c, 0, 87, 0
2, 38250, Note_on_c, 0, 44, 81
2, 38251, Note_on_c, 0, 87, 78
2, 38259, Control_c, 0, 64, 0
2, 38261, Note_on_c, 0, 63, 0
2, 38262, Note_on_c, 0, 68, 0
2, 38262, Note_on_c, 0, 59, 0
2, 38262, Note_on_c, 0, 56, 0
2, 38263, Note_on_c, 0, 82, 0
2, 38263, Note_on_c, 0, 83, 0
2, 38263, Note_on_c, 0, 94, 0
2, 38263, Note_on_c, 0, 95, 0
2, 38269, Note_on_c, 0, 75, 0
2, 38315, Control_c, 0, 64, 127
2, 38338, Note_on_c, 0, 44, 0
2, 38367, Note_on_c, 0, 44, 77
2, 38369, Note_on_c, 0, 87, 0
2, 38371, Note_on_c, 0, 56, 72
2, 38372, Note_on_c, 0, 92, 96
2, 38372, Note_on_c, 0, 80, 96
2, 38374, Note_on_c, 0, 87, 78
2, 38492, Note_on_c, 0, 87, 0
2, 38501, Note_on_c, 0, 87, 83
2, 38504, Note_on_c, 0, 59, 56
2, 38529, Note_on_c, 0, 63, 55
2, 38534, Note_on_c, 0, 60, 54
2, 38591, Note_on_c, 0, 68, 65
2, 38610, Note_on_c, 0, 94, 100
2, 38617, Note_on_c, 0, 82, 87
2, 38630, Note_on_c, 0, 87, 0
2, 38635, Note_on_c, 0, 87, 67
2, 38727, Note_on_c, 0, 59, 0
2, 38730, Note_on_c, 0, 44, 0
2, 38730, Note_on_c, 0, 87, 0
2, 38731, Note_on_c, 0, 56, 0
2, 38732, Control_c, 0, 64, 0
2, 38732, Note_on_c, 0, 60, 0
2, 38733, Note_on_c, 0, 80, 0
2, 38733, Note_on_c, 0, 63, 0
2, 38733, Note_on_c, 0, 82, 0
2, 38733, Note_on_c, 0, 94, 0
2, 38734, Note_on_c, 0, 92, 0
2, 38735, Note_on_c, 0, 87, 84
2, 38738, Note_on_c, 0, 44, 75
2, 38784, Control_c, 0, 64, 127
2, 38799, Note_on_c, 0, 68, 0
2, 38845, Note_on_c, 0, 44, 0
2, 38848, Note_on_c, 0, 56, 78
2, 38850, Note_on_c, 0, 78, 96
2, 38850, Note_on_c, 0, 44, 77
2, 38852, Note_on_c, 0, 90, 93
2, 38984, Note_on_c, 0, 85, 84
2, 38984, Note_on_c, 0, 42, 83
2, 39022, Note_on_c, 0, 90, 0
2, 39030, Note_on_c, 0, 90, 68
2, 39087, Note_on_c, 0, 94, 73
2, 39091, Note_on_c, 0, 54, 73
2, 39095, Note_on_c, 0, 97, 89
2, 39166, Note_on_c, 0, 78, 0
2, 39169, Control_c, 0, 64, 0
2, 39169, Note_on_c, 0, 90, 0
2, 39170, Note_on_c, 0, 85, 0
2, 39170, Note_on_c, 0, 44, 0
2, 39171, Note_on_c, 0, 97, 0
2, 39171, Note_on_c, 0, 56, 0
2, 39171, Note_on_c, 0, 42, 0
2, 39183, Note_on_c, 0, 54, 0
2, 39191, Note_on_c, 0, 94, 0
2, 39198, Note_on_c, 0, 87, 0
2, 39198, Note_on_c, 0, 99, 105
2, 39204, Note_on_c, 0, 87, 100
2, 39220, Note_on_c, 0, 40, 77
2, 39244, Control_c, 0, 64, 127
2, 39313, Note_on_c, 0, 87, 0
2, 39318, Note_on_c, 0, 52, 76
2, 39324, Note_on_c, 0, 87, 93
2, 39455, Note_on_c, 0, 83, 92
2, 39456, Note_on_c, 0, 95, 97
2, 39459, Note_on_c, 0, 87, 0
2, 39462, Note_on_c, 0, 56, 77
2, 39464, Note_on_c, 0, 87, 80
2, 39470, Note_on_c, 0, 59, 74
2, 39561, Note_on_c, 0, 64, 77
2, 39572, Note_on_c, 0, 97, 102
2, 39583, Note_on_c, 0, 85, 98
2, 39682, Note_on_c, 0, 40, 0
2, 39693, Note_on_c, 0, 40, 77
2, 39697, Note_on_c, 0, 87, 0
2, 39703, Note_on_c, 0, 87, 85
2, 39709, Control_c, 0, 64, 0
2, 39709, Note_on_c, 0, 59, 0
2, 39710, Note_on_c, 0, 52, 0
2, 39710, Note_on_c, 0, 85, 0
2, 39711, Note_on_c, 0, 56, 0
2, 39713, Note_on_c, 0, 97, 0
2, 39713, Note_on_c, 0, 95, 0
2, 39714, Note_on_c, 0, 83, 0
2, 39716, Note_on_c, 0, 64, 0
2, 39744, Note_on_c, 0, 99, 0
2, 39790, Control_c, 0, 64, 127
2, 39802, Note_on_c, 0, 52, 78
2, 39825, Note_on_c, 0, 94, 94
2, 39828, Note_on_c, 0, 87, 0
2, 39830, Note_on_c, 0, 82, 89
2, 39832, Note_on_c, 0, 87, 76
2, 39936, Note_on_c, 0, 40, 0
2, 39943, Note_on_c, 0, 87, 0
2, 39947, Note_on_c, 0, 56, 71
2, 39952, Note_on_c, 0, 59, 66
2, 39953, Note_on_c, 0, 87, 81
2, 40037, Note_on_c, 0, 64, 74
2, 40066, Note_on_c, 0, 87, 0
2, 40070, Note_on_c, 0, 95, 97
2, 40073, Note_on_c, 0, 83, 96
2, 40077, Note_on_c, 0, 87, 89
2, 40181, Note_on_c, 0, 87, 0
2, 40185, Note_on_c, 0, 40, 71
2, 40192, Note_on_c, 0, 87, 88
2, 40194, Control_c, 0, 64, 0
2, 40196, Note_on_c, 0, 82, 0
2, 40196, Note_on_c, 0, 94, 0
2, 40198, Note_on_c, 0, 52, 0
2, 40199, Note_on_c, 0, 56, 0
2, 40199, Note_on_c, 0, 59, 0
2, 40199, Note_on_c, 0, 64, 0
2, 40200, Note_on_c, 0, 83, 0
2, 40200, Note_on_c, 0, 95, 0
2, 40258, Control_c, 0, 64, 127
2, 40273, Note_on_c, 0, 87, 0
2, 40283, Note_on_c, 0, 52, 77
2, 40309, Note_on_c, 0, 94, 96
2, 40315, Note_on_c, 0, 82, 90
2, 40321, Note_on_c, 0, 87, 77
2, 40381, Note_on_c, 0, 40, 0
2, 40419, Note_on_c, 0, 87, 0
2, 40429, Note_on_c, 0, 87, 92
2, 40429, Note_on_c, 0, 56, 72
2, 40495, Note_on_c, 0, 64, 68
2, 40555, Note_on_c, 0, 92, 102
2, 40558, Note_on_c, 0, 87, 0
2, 40560, Note_on_c, 0, 80, 97
2, 40568, Note_on_c, 0, 87, 70
2, 40673, Note_on_c, 0, 87, 0
2, 40677, Note_on_c, 0, 87, 90
2, 40683, Note_on_c, 0, 51, 77
2, 40684, Note_on_c, 0, 39, 72
2, 40686, Note_on_c, 0, 85, 60
2, 40718, Note_on_c, 0, 64, 0
2, 40719, Note_on_c, 0, 82, 0
2, 40720, Note_on_c, 0, 80, 0
2, 40721, Control_c, 0, 64, 0
2, 40721, Note_on_c, 0, 94, 0
2, 40722, Note_on_c, 0, 92, 0
2, 40722, Note_on_c, 0, 56, 0
2, 40727, Note_on_c, 0, 52, 0
2, 40742, Note_on_c, 0, 85, 0
2, 40788, Note_on_c, 0, 87, 0
2, 40795, Note_on_c, 0, 91, 98
2, 40798, Note_on_c, 0, 79, 87
2, 40799, Note_on_c, 0, 87, 89
2, 40826, Control_c, 0, 64, 127
2, 40919, Note_on_c, 0, 87, 0
2, 40925, Note_on_c, 0, 87, 80
2, 40954, Note_on_c, 0, 85, 29
2, 41158, Note_on_c, 0, 91, 0
2, 41159, Control_c, 0, 64, 0
2, 41159, Note_on_c, 0, 87, 0
2, 41159, Note_on_c, 0, 39, 0
2, 41160, Note_on_c, 0, 51, 0
2, 41160, Note_on_c, 0, 79, 0
2, 41164, Note_on_c, 0, 85, 0
2, 41182, Note_on_c, 0, 71, 94
2, 41185, Note_on_c, 0, 40, 71
2, 41186, Note_on_c, 0, 68, 79
2, 41187, Note_on_c, 0, 64, 79
2, 41264, Control_c, 0, 64, 127
2, 41316, Note_on_c, 0, 47, 60
2, 41418, Note_on_c, 0, 52, 68
2, 41564, Note_on_c, 0, 68, 0
2, 41567, Note_on_c, 0, 47, 0
2, 41568, Note_on_c, 0, 71, 0
2, 41568, Note_on_c, 0, 68, 91
2, 41569, Note_on_c, 0, 52, 0
2, 41572, Note_on_c, 0, 64, 0
2, 41573, Note_on_c, 0, 59, 73
2, 41575, Note_on_c, 0, 56, 64
2, 41576, Control_c, 0, 64, 0
2, 41615, Note_on_c, 0, 68, 0
2, 41618, Note_on_c, 0, 56, 0
2, 41633, Note_on_c, 0, 40, 0
2, 41652, Note_on_c, 0, 59, 0
2, 41699, Note_on_c, 0, 68, 73
2, 41730, Note_on_c, 0, 68, 0
2, 41797, Note_on_c, 0, 68, 71
2, 41813, Note_on_c, 0, 52, 69
2, 41927, Note_on_c, 0, 70, 81
2, 41928, Note_on_c, 0, 47, 68
2, 41954, Note_on_c, 0, 52, 0
2, 42032, Note_on_c, 0, 70, 0
2, 42037, Note_on_c, 0, 68, 0
2, 42037, Note_on_c, 0, 47, 0
2, 42044, Note_on_c, 0, 40, 75
2, 42046, Note_on_c, 0, 71, 82
2, 42113, Note_on_c, 0, 40, 0
2, 42125, Note_on_c, 0, 71, 0
2, 42175, Note_on_c, 0, 39, 78
2, 42180, Note_on_c, 0, 70, 90
2, 42183, Note_on_c, 0, 67, 70
2, 42184, Note_on_c, 0, 63, 73
2, 42229, Note_on_c, 0, 67, 0
2, 42231, Note_on_c, 0, 63, 0
2, 42286, Control_c, 0, 64, 127
2, 42305, Note_on_c, 0, 68, 83
2, 42308, Note_on_c, 0, 46, 71
2, 42400, Note_on_c, 0, 51, 71
2, 42427, Note_on_c, 0, 67, 83
2, 42442, Note_on_c, 0, 63, 63
2, 42541, Note_on_c, 0, 46, 0
2, 42542, Control_c, 0, 64, 0
2, 42542, Note_on_c, 0, 51, 0
2, 42543, Note_on_c, 0, 39, 0
2, 42543, Note_on_c, 0, 68, 0
2, 42552, Note_on_c, 0, 58, 79
2, 42558, Note_on_c, 0, 55, 65
2, 42624, Control_c, 0, 64, 127
2, 42800, Note_on_c, 0, 51, 81
2, 42930, Note_on_c, 0, 46, 75
2, 42931, Note_on_c, 0, 63, 0
2, 42938, Note_on_c, 0, 75, 84
2, 42940, Note_on_c, 0, 63, 80
2, 43022, Note_on_c, 0, 39, 67
2, 43046, Note_on_c, 0, 63, 0
2, 43046, Note_on_c, 0, 75, 0
2, 43051, Note_on_c, 0, 75, 88
2, 43057, Note_on_c, 0, 63, 76
2, 43107, Note_on_c, 0, 55, 0
2, 43109, Control_c, 0, 64, 0
2, 43109, Note_on_c, 0, 63, 0
2, 43110, Note_on_c, 0, 46, 0
2, 43111, Note_on_c, 0, 75, 0
2, 43111, Note_on_c, 0, 58, 0
2, 43111, Note_on_c, 0, 51, 0
2, 43111, Note_on_c, 0, 39, 0
2, 43115, Note_on_c, 0, 67, 0
2, 43115, Note_on_c, 0, 70, 0
2, 43165, Note_on_c, 0, 80, 102
2, 43172, Note_on_c, 0, 68, 90
2, 43173, Note_on_c, 0, 44, 88
2, 43173, Note_on_c, 0, 72, 81
2, 43174, Note_on_c, 0, 32, 81
2, 43192, Control_c, 0, 64, 127
2, 43230, Note_on_c, 0, 72, 0
2, 43409, Note_on_c, 0, 63, 90
2, 43410, Note_on_c, 0, 75, 91
2, 43410, Note_on_c, 0, 56, 77
2, 43412, Note_on_c, 0, 51, 79
2, 43413, Note_on_c, 0, 47, 75
2, 43576, Note_on_c, 0, 68, 0
2, 43576, Note_on_c, 0, 80, 0
2, 43582, Note_on_c, 0, 80, 90
2, 43585, Note_on_c, 0, 68, 82
2, 43591, Note_on_c, 0, 32, 0
2, 43645, Note_on_c, 0, 47, 0
2, 43647, Note_on_c, 0, 63, 0
2, 43647, Control_c, 0, 64, 0
2, 43647, Note_on_c, 0, 68, 0
2, 43647, Note_on_c, 0, 51, 0
2, 43647, Note_on_c, 0, 80, 0
2, 43647, Note_on_c, 0, 56, 0
2, 43647, Note_on_c, 0, 75, 0
2, 43653, Note_on_c, 0, 44, 0
2, 43672, Note_on_c, 0, 82, 101
2, 43677, Note_on_c, 0, 34, 85
2, 43678, Note_on_c, 0, 46, 88
2, 43678, Note_on_c, 0, 70, 92
2, 43680, Note_on_c, 0, 73, 82
2, 43710, Note_on_c, 0, 46, 0
2, 43714, Control_c, 0, 64, 127
2, 43737, Note_on_c, 0, 34, 0
2, 43912, Note_on_c, 0, 58, 81
2, 43918, Note_on_c, 0, 54, 84
2, 43922, Note_on_c, 0, 49, 83
2, 43923, Note_on_c, 0, 78, 98
2, 43927, Note_on_c, 0, 66, 89
2, 44083, Note_on_c, 0, 82, 0
2, 44089, Note_on_c, 0, 82, 82
2, 44090, Note_on_c, 0, 70, 0
2, 44101, Note_on_c, 0, 70, 67
2, 44152, Control_c, 0, 64, 0
2, 44153, Note_on_c, 0, 58, 0
2, 44154, Note_on_c, 0, 49, 0
2, 44154, Note_on_c, 0, 66, 0
2, 44155, Note_on_c, 0, 73, 0
2, 44155, Note_on_c, 0, 54, 0
2, 44155, Note_on_c, 0, 70, 0
2, 44155, Note_on_c, 0, 82, 0
2, 44160, Note_on_c, 0, 78, 0
2, 44163, Note_on_c, 0, 83, 101
2, 44167, Note_on_c, 0, 75, 97
2, 44169, Note_on_c, 0, 71, 96
2, 44171, Note_on_c, 0, 35, 86
2, 44171, Note_on_c, 0, 78, 85
2, 44171, Note_on_c, 0, 47, 90
2, 44213, Control_c, 0, 64, 127
2, 44214, Note_on_c, 0, 35, 0
2, 44405, Note_on_c, 0, 47, 0
2, 44405, Note_on_c, 0, 71, 0
2, 44405, Note_on_c, 0, 78, 0
2, 44410, Note_on_c, 0, 78, 95
2, 44411, Note_on_c, 0, 59, 81
2, 44411, Note_on_c, 0, 66, 90
2, 44411, Note_on_c, 0, 54, 84
2, 44411, Note_on_c, 0, 47, 83
2, 44412, Note_on_c, 0, 51, 83
2, 44415, Note_on_c, 0, 71, 76
2, 44559, Note_on_c, 0, 71, 0
2, 44559, Note_on_c, 0, 83, 0
2, 44568, Note_on_c, 0, 83, 98
2, 44569, Note_on_c, 0, 71, 84
2, 44632, Control_c, 0, 64, 0
2, 44632, Note_on_c, 0, 47, 0
2, 44633, Note_on_c, 0, 71, 0
2, 44633, Note_on_c, 0, 54, 0
2, 44633, Note_on_c, 0, 83, 0
2, 44633, Note_on_c, 0, 78, 0
2, 44633, Note_on_c, 0, 51, 0
2, 44633, Note_on_c, 0, 75, 0
2, 44643, Note_on_c, 0, 59, 0
2, 44643, Note_on_c, 0, 66, 0
2, 44662, Note_on_c, 0, 48, 90
2, 44662, Note_on_c, 0, 84, 103
2, 44664, Note_on_c, 0, 36, 88
2, 44665, Note_on_c, 0, 72, 101
2, 44666, Note_on_c, 0, 75, 92
2, 44669, Note_on_c, 0, 80, 88
2, 44670, Note_on_c, 0, 81, 91
2, 44695, Note_on_c, 0, 36, 0
2, 44696, Note_on_c, 0, 48, 0
2, 44706, Note_on_c, 0, 84, 0
2, 44707, Note_on_c, 0, 72, 0
2, 44728, Control_c, 0, 64, 127
2, 44759, Note_on_c, 0, 81, 0
2, 44908, Note_on_c, 0, 32, 79
2, 44915, Note_on_c, 0, 44, 71
2, 44927, Note_on_c, 0, 42, 63
2, 44985, Note_on_c, 0, 44, 0
2, 44986, Note_on_c, 0, 80, 0
2, 44986, Note_on_c, 0, 32, 0
2, 44987, Note_on_c, 0, 75, 0
2, 44987, Control_c, 0, 64, 0
2, 45004, Note_on_c, 0, 42, 0
2, 45042, Note_on_c, 0, 85, 106
2, 45045, Note_on_c, 0, 73, 101
2, 45047, Note_on_c, 0, 76, 92
2, 45048, Note_on_c, 0, 80, 86
2, 45048, Note_on_c, 0, 37, 87
2, 45049, Note_on_c, 0, 49, 93
2, 45073, Control_c, 0, 64, 127
2, 45288, Note_on_c, 0, 37, 0
2, 45288, Note_on_c, 0, 49, 0
2, 45288, Note_on_c, 0, 73, 0
2, 45290, Control_c, 0, 64, 0
2, 45293, Note_on_c, 0, 49, 82
2, 45294, Note_on_c, 0, 73, 83
2, 45296, Note_on_c, 0, 37, 66
2, 45301, Note_on_c, 0, 76, 0
2, 45303, Note_on_c, 0, 80, 0
2, 45313, Note_on_c, 0, 85, 0
2, 45327, Note_on_c, 0, 37, 0
2, 45404, Note_on_c, 0, 73, 0
2, 45409, Note_on_c, 0, 73, 86
2, 45428, Note_on_c, 0, 52, 66
2, 45460, Note_on_c, 0, 73, 0
2, 45539, Note_on_c, 0, 56, 74
2, 45543, Note_on_c, 0, 68, 90
2, 45609, Note_on_c, 0, 52, 0
2, 45652, Note_on_c, 0, 56, 0
2, 45664, Note_on_c, 0, 61, 86
2, 45734, Note_on_c, 0, 49, 0
2, 45780, Control_c, 0, 64, 127
2, 45790, Note_on_c, 0, 73, 93
2, 45790, Note_on_c, 0, 56, 74
2, 45790, Note_on_c, 0, 44, 66
2, 45795, Note_on_c, 0, 44, 0
2, 45905, Note_on_c, 0, 52, 74
2, 46014, Control_c, 0, 64, 0
2, 46014, Note_on_c, 0, 68, 0
2, 46014, Note_on_c, 0, 56, 0
2, 46015, Note_on_c, 0, 52, 0
2, 46015, Note_on_c, 0, 73, 0
2, 46015, Note_on_c, 0, 61, 0
2, 46044, Note_on_c, 0, 83, 101
2, 46045, Note_on_c, 0, 75, 97
2, 46047, Note_on_c, 0, 78, 89
2, 46050, Note_on_c, 0, 71, 90
2, 46053, Note_on_c, 0, 47, 85
2, 46054, Note_on_c, 0, 35, 80
2, 46095, Control_c, 0, 64, 127
2, 46187, Note_on_c, 0, 35, 0
2, 46272, Note_on_c, 0, 47, 0
2, 46282, Control_c, 0, 64, 0
2, 46283, Note_on_c, 0, 78, 0
2, 46283, Note_on_c, 0, 75, 0
2, 46285, Note_on_c, 0, 83, 0
2, 46302, Note_on_c, 0, 71, 0
2, 46309, Note_on_c, 0, 71, 79
2, 46309, Note_on_c, 0, 47, 71
2, 46345, Note_on_c, 0, 71, 0
2, 46426, Note_on_c, 0, 51, 70
2, 46429, Note_on_c, 0, 71, 78
2, 46550, Note_on_c, 0, 54, 78
2, 46552, Note_on_c, 0, 66, 87
2, 46579, Note_on_c, 0, 71, 0
2, 46633, Note_on_c, 0, 51, 0
2, 46653, Note_on_c, 0, 54, 0
2, 46672, Note_on_c, 0, 59, 83
2, 46732, Note_on_c, 0, 47, 0
2, 46771, Control_c, 0, 64, 127
2, 46791, Note_on_c, 0, 54, 79
2, 46794, Note_on_c, 0, 71, 78
2, 46908, Note_on_c, 0, 51, 84
2, 47015, Control_c, 0, 64, 0
2, 47016, Note_on_c, 0, 66, 0
2, 47016, Note_on_c, 0, 71, 0
2, 47016, Note_on_c, 0, 51, 0
2, 47017, Note_on_c, 0, 59, 0
2, 47017, Note_on_c, 0, 54, 0
2, 47047, Note_on_c, 0, 85, 106
2, 47050, Note_on_c, 0, 81, 91
2, 47050, Note_on_c, 0, 73, 101
2, 47050, Note_on_c, 0, 76, 94
2, 47052, Note_on_c, 0, 33, 82
2, 47058, Note_on_c, 0, 45, 84
2, 47101, Control_c, 0, 64, 127
2, 47132, Note_on_c, 0, 45, 0
2, 47301, Note_on_c, 0, 73, 0
2, 47301, Note_on_c, 0, 85, 0
2, 47301, Note_on_c, 0, 45, 71
2, 47305, Note_on_c, 0, 85, 95
2, 47307, Note_on_c, 0, 73, 95
2, 47419, Note_on_c, 0, 49, 70
2, 47531, Note_on_c, 0, 73, 0
2, 47531, Note_on_c, 0, 85, 0
2, 47535, Note_on_c, 0, 85, 87
2, 47541, Note_on_c, 0, 52, 77
2, 47541, Note_on_c, 0, 73, 81
2, 47662, Note_on_c, 0, 73, 0
2, 47662, Note_on_c, 0, 81, 0
2, 47666, Note_on_c, 0, 81, 93
2, 47668, Note_on_c, 0, 57, 90
2, 47669, Note_on_c, 0, 73, 83
2, 47669, Note_on_c, 0, 76, 0
2, 47672, Note_on_c, 0, 69, 88
2, 47674, Note_on_c, 0, 76, 73
2, 47777, Note_on_c, 0, 52, 0
2, 47782, Note_on_c, 0, 52, 78
2, 47892, Note_on_c, 0, 49, 0
2, 47900, Note_on_c, 0, 73, 0
2, 47900, Note_on_c, 0, 85, 0
2, 47902, Note_on_c, 0, 49, 76
2, 47904, Note_on_c, 0, 85, 97
2, 47905, Note_on_c, 0, 73, 98
2, 47984, Note_on_c, 0, 45, 0
2, 47990, Note_on_c, 0, 45, 74
2, 48023, Note_on_c, 0, 73, 0
2, 48023, Note_on_c, 0, 85, 0
2, 48030, Note_on_c, 0, 85, 93
2, 48034, Note_on_c, 0, 73, 84
2, 48122, Control_c, 0, 64, 0
2, 48124, Note_on_c, 0, 81, 0
2, 48125, Note_on_c, 0, 52, 0
2, 48125, Note_on_c, 0, 76, 0
2, 48125, Note_on_c, 0, 57, 0
2, 48125, Note_on_c, 0, 69, 0
2, 48130, Note_on_c, 0, 33, 0
2, 48138, Note_on_c, 0, 49, 0
2, 48145, Note_on_c, 0, 45, 0
2, 48145, Note_on_c, 0, 73, 0
2, 48145, Note_on_c, 0, 85, 0
2, 48151, Note_on_c, 0, 85, 104
2, 48156, Note_on_c, 0, 73, 102
2, 48156, Note_on_c, 0, 80, 95
2, 48157, Note_on_c, 0, 32, 84
2, 48158, Note_on_c, 0, 75, 97
2, 48202, Note_on_c, 0, 32, 0
2, 48207, Control_c, 0, 64, 127
2, 48280, Note_on_c, 0, 44, 76
2, 48387, Note_on_c, 0, 48, 79
2, 48525, Note_on_c, 0, 51, 74
2, 48533, Note_on_c, 0, 84, 95
2, 48537, Note_on_c, 0, 75, 0
2, 48537, Note_on_c, 0, 80, 0
2, 48541, Note_on_c, 0, 72, 86
2, 48542, Note_on_c, 0, 80, 81
2, 48546, Note_on_c, 0, 75, 79
2, 48645, Note_on_c, 0, 84, 0
2, 48652, Note_on_c, 0, 44, 0
2, 48652, Note_on_c, 0, 72, 0
2, 48652, Note_on_c, 0, 75, 0
2, 48652, Note_on_c, 0, 80, 0
2, 48655, Note_on_c, 0, 84, 101
2, 48657, Note_on_c, 0, 56, 80
2, 48659, Note_on_c, 0, 72, 83
2, 48660, Note_on_c, 0, 44, 74
2, 48661, Note_on_c, 0, 75, 80
2, 48663, Note_on_c, 0, 80, 85
2, 48774, Note_on_c, 0, 60, 85
2, 48901, Note_on_c, 0, 63, 84
2, 49018, Note_on_c, 0, 68, 93
2, 49141, Note_on_c, 0, 93, 104
2, 49157, Note_on_c, 0, 85, 0
2, 49157, Note_on_c, 0, 51, 0
2, 49157, Note_on_c, 0, 48, 0
2, 49157, Note_on_c, 0, 56, 0
2, 49157, Note_on_c, 0, 80, 0
2, 49157, Control_c, 0, 64, 0
2, 49158, Note_on_c, 0, 68, 0
2, 49158, Note_on_c, 0, 84, 0
2, 49158, Note_on_c, 0, 44, 0
2, 49158, Note_on_c, 0, 63, 0
2, 49158, Note_on_c, 0, 72, 0
2, 49159, Note_on_c, 0, 60, 0
2, 49159, Note_on_c, 0, 75, 0
2, 49161, Note_on_c, 0, 73, 0
2, 49193, Note_on_c, 0, 90, 92
2, 49218, Note_on_c, 0, 87, 89
2, 49228, Control_c, 0, 64, 127
2, 49249, Note_on_c, 0, 84, 72
2, 49305, Note_on_c, 0, 81, 72
2, 49377, Note_on_c, 0, 78, 80
2, 49411, Note_on_c, 0, 75, 75
2, 49440, Note_on_c, 0, 72, 83
2, 49494, Note_on_c, 0, 69, 70
2, 49551, Note_on_c, 0, 93, 0
2, 49560, Note_on_c, 0, 66, 67
2, 49585, Note_on_c, 0, 63, 71
2, 49616, Note_on_c, 0, 60, 76
2, 49669, Note_on_c, 0, 57, 71
2, 49729, Note_on_c, 0, 54, 86
2, 49761, Note_on_c, 0, 51, 91
2, 49801, Note_on_c, 0, 48, 76
2, 49877, Note_on_c, 0, 44, 79
2, 49931, Note_on_c, 0, 39, 77
2, 49979, Note_on_c, 0, 32, 82
2, 50064, Control_c, 0, 64, 0
2, 50064, Note_on_c, 0, 90, 0
2, 50065, Note_on_c, 0, 69, 0
2, 50065, Note_on_c, 0, 78, 0
2, 50066, Note_on_c, 0, 81, 0
2, 50066, Note_on_c, 0, 39, 0
2, 50066, Note_on_c, 0, 75, 0
2, 50066, Note_on_c, 0, 87, 0
2, 50066, Note_on_c, 0, 32, 0
2, 50066, Note_on_c, 0, 48, 0
2, 50067, Note_on_c, 0, 72, 0
2, 50067, Note_on_c, 0, 44, 0
2, 50067, Note_on_c, 0, 51, 0
2, 50067, Note_on_c, 0, 84, 0
2, 50067, Note_on_c, 0, 57, 0
2, 50067, Note_on_c, 0, 66, 0
2, 50067, Note_on_c, 0, 60, 0
2, 50068, Note_on_c, 0, 63, 0
2, 50068, Note_on_c, 0, 54, 0
2, 50087, Note_on_c, 0, 73, 105
2, 50090, Note_on_c, 0, 85, 105
2, 50092, Note_on_c, 0, 80, 90
2, 50093, Note_on_c, 0, 76, 95
2, 50093, Note_on_c, 0, 37, 92
2, 50097, Note_on_c, 0, 25, 89
2, 50127, Control_c, 0, 64, 127
2, 50150, Note_on_c, 0, 25, 0
2, 50211, Note_on_c, 0, 85, 0
2, 50219, Note_on_c, 0, 73, 0
2, 50222, Note_on_c, 0, 85, 90
2, 50230, Note_on_c, 0, 73, 88
2, 50311, Note_on_c, 0, 37, 0
2, 50316, Note_on_c, 0, 37, 70
2, 50323, Note_on_c, 0, 49, 76
2, 50334, Note_on_c, 0, 76, 0
2, 50338, Note_on_c, 0, 88, 97
2, 50339, Note_on_c, 0, 76, 89
2, 50449, Note_on_c, 0, 80, 0
2, 50453, Note_on_c, 0, 61, 83
2, 50459, Note_on_c, 0, 56, 79
2, 50459, Note_on_c, 0, 80, 85
2, 50461, Note_on_c, 0, 87, 98
2, 50461, Note_on_c, 0, 52, 75
2, 50463, Note_on_c, 0, 75, 102
2, 50470, Note_on_c, 0, 83, 68
2, 50703, Note_on_c, 0, 49, 0
2, 50703, Note_on_c, 0, 83, 0
2, 50713, Note_on_c, 0, 49, 79
2, 50714, Note_on_c, 0, 83, 99
2, 50719, Note_on_c, 0, 71, 88
2, 50823, Note_on_c, 0, 44, 84
2, 50829, Note_on_c, 0, 32, 81
2, 50833, Note_on_c, 0, 71, 0
2, 50833, Note_on_c, 0, 83, 0
2, 50839, Note_on_c, 0, 83, 87
2, 50843, Note_on_c, 0, 71, 92
2, 50928, Note_on_c, 0, 87, 0
2, 50928, Control_c, 0, 64, 0
2, 50928, Note_on_c, 0, 75, 0
2, 50928, Note_on_c, 0, 80, 0
2, 50929, Note_on_c, 0, 49, 0
2, 50929, Note_on_c, 0, 73, 0
2, 50929, Note_on_c, 0, 83, 0
2, 50929, Note_on_c, 0, 56, 0
2, 50929, Note_on_c, 0, 44, 0
2, 50929, Note_on_c, 0, 52, 0
2, 50929, Note_on_c, 0, 71, 0
2, 50929, Note_on_c, 0, 88, 0
2, 50930, Note_on_c, 0, 61, 0
2, 50941, Note_on_c, 0, 32, 0
2, 50941, Note_on_c, 0, 37, 0
2, 50956, Note_on_c, 0, 76, 0
2, 50956, Note_on_c, 0, 85, 0
2, 50962, Note_on_c, 0, 85, 104
2, 50966, Note_on_c, 0, 73, 104
2, 50967, Note_on_c, 0, 33, 87
2, 50967, Note_on_c, 0, 76, 94
2, 50968, Note_on_c, 0, 45, 85
2, 51002, Control_c, 0, 64, 127
2, 51202, Note_on_c, 0, 85, 0
2, 51210, Note_on_c, 0, 73, 0
2, 51213, Note_on_c, 0, 85, 95
2, 51214, Note_on_c, 0, 73, 89
2, 51222, Note_on_c, 0, 52, 74
2, 51333, Note_on_c, 0, 76, 0
2, 51333, Note_on_c, 0, 88, 99
2, 51340, Note_on_c, 0, 85, 0
2, 51343, Note_on_c, 0, 76, 87
2, 51349, Note_on_c, 0, 85, 76
2, 51353, Note_on_c, 0, 57, 70
2, 51440, Note_on_c, 0, 52, 0
2, 51444, Note_on_c, 0, 52, 76
2, 51448, Note_on_c, 0, 57, 0
2, 51448, Note_on_c, 0, 64, 84
2, 51452, Note_on_c, 0, 61, 81
2, 51458, Note_on_c, 0, 57, 82
2, 51463, Note_on_c, 0, 85, 0
2, 51464, Note_on_c, 0, 87, 101
2, 51467, Note_on_c, 0, 78, 93
2, 51467, Note_on_c, 0, 75, 94
2, 51474, Note_on_c, 0, 85, 78
2, 51475, Note_on_c, 0, 82, 57
2, 51717, Note_on_c, 0, 45, 0
2, 51718, Note_on_c, 0, 83, 102
2, 51721, Note_on_c, 0, 45, 71
2, 51726, Note_on_c, 0, 71, 86
2, 51728, Note_on_c, 0, 69, 70
2, 51816, Note_on_c, 0, 52, 0
2, 51828, Note_on_c, 0, 52, 73
2, 51924, Note_on_c, 0, 45, 0
2, 51929, Note_on_c, 0, 45, 81
2, 52048, Note_on_c, 0, 87, 0
2, 52049, Note_on_c, 0, 45, 0
2, 52049, Note_on_c, 0, 75, 0
2, 52049, Note_on_c, 0, 71, 0
2, 52049, Note_on_c, 0, 78, 0
2, 52049, Note_on_c, 0, 73, 0
2, 52049, Note_on_c, 0, 64, 0
2, 52050, Note_on_c, 0, 61, 0
2, 52050, Note_on_c, 0, 88, 0
2, 52050, Control_c, 0, 64, 0
2, 52050, Note_on_c, 0, 76, 0
2, 52050, Note_on_c, 0, 83, 0
2, 52055, Note_on_c, 0, 82, 0
2, 52062, Note_on_c, 0, 33, 0
2, 52062, Note_on_c, 0, 57, 0
2, 52062, Note_on_c, 0, 69, 0
2, 52070, Note_on_c, 0, 52, 0
2, 52078, Note_on_c, 0, 85, 0
2, 52084, Note_on_c, 0, 85, 101
2, 52085, Note_on_c, 0, 75, 101
2, 52087, Note_on_c, 0, 73, 102
2, 52087, Note_on_c, 0, 78, 98
2, 52090, Note_on_c, 0, 47, 94
2, 52091, Note_on_c, 0, 35, 83
2, 52124, Control_c, 0, 64, 127
2, 52162, Note_on_c, 0, 73, 0
2, 52208, Note_on_c, 0, 85, 0
2, 52214, Note_on_c, 0, 85, 87
2, 52316, Note_on_c, 0, 47, 0
2, 52326, Note_on_c, 0, 47, 79
2, 52333, Note_on_c, 0, 88, 93
2, 52338, Note_on_c, 0, 76, 81
2, 52347, Note_on_c, 0, 86, 78
2, 52454, Note_on_c, 0, 47, 0
2, 52454, Note_on_c, 0, 75, 0
2, 52461, Note_on_c, 0, 87, 102
2, 52461, Note_on_c, 0, 54, 80
2, 52464, Note_on_c, 0, 47, 78
2, 52465, Note_on_c, 0, 75, 101
2, 52465, Note_on_c, 0, 59, 84
2, 52466, Note_on_c, 0, 51, 83
2, 52707, Note_on_c, 0, 47, 0
2, 52711, Note_on_c, 0, 83, 98
2, 52713, Note_on_c, 0, 71, 84
2, 52714, Note_on_c, 0, 47, 90
2, 52816, Note_on_c, 0, 42, 84
2, 52918, Note_on_c, 0, 86, 0
2, 52919, Note_on_c, 0, 88, 0
2, 52919, Control_c, 0, 64, 0
2, 52919, Note_on_c, 0, 42, 0
2, 52919, Note_on_c, 0, 47, 0
2, 52919, Note_on_c, 0, 51, 0
2, 52919, Note_on_c, 0, 87, 0
2, 52919, Note_on_c, 0, 76, 0
2, 52920, Note_on_c, 0, 83, 0
2, 52920, Note_on_c, 0, 85, 0
2, 52920, Note_on_c, 0, 54, 0
2, 52920, Note_on_c, 0, 71, 0
2, 52921, Note_on_c, 0, 59, 0
2, 52930, Note_on_c, 0, 35, 0
2, 52930, Note_on_c, 0, 75, 0
2, 52930, Note_on_c, 0, 78, 0
2, 52958, Note_on_c, 0, 80, 102
2, 52959, Note_on_c, 0, 71, 87
2, 52961, Note_on_c, 0, 68, 102
2, 52961, Note_on_c, 0, 28, 94
2, 52963, Note_on_c, 0, 40, 85
2, 52964, Note_on_c, 0, 74, 82
2, 52999, Control_c, 0, 64, 127
2, 53030, Note_on_c, 0, 68, 0
2, 53199, Note_on_c, 0, 80, 0
2, 53208, Note_on_c, 0, 80, 91
2, 53210, Note_on_c, 0, 52, 75
2, 53211, Note_on_c, 0, 68, 73
2, 53308, Note_on_c, 0, 59, 81
2, 53313, Note_on_c, 0, 56, 71
2, 53315, Note_on_c, 0, 44, 77
2, 53322, Note_on_c, 0, 71, 0
2, 53326, Note_on_c, 0, 83, 95
2, 53333, Note_on_c, 0, 71, 77
2, 53412, Note_on_c, 0, 74, 0
2, 53414, Note_on_c, 0, 68, 0
2, 53414, Note_on_c, 0, 40, 0
2, 53414, Note_on_c, 0, 80, 0
2, 53415, Note_on_c, 0, 52, 0
2, 53415, Control_c, 0, 64, 0
2, 53416, Note_on_c, 0, 83, 0
2, 53416, Note_on_c, 0, 59, 0
2, 53416, Note_on_c, 0, 56, 0
2, 53422, Note_on_c, 0, 28, 0
2, 53429, Note_on_c, 0, 44, 0
2, 53437, Note_on_c, 0, 71, 0
2, 53456, Note_on_c, 0, 80, 104
2, 53456, Note_on_c, 0, 71, 82
2, 53456, Note_on_c, 0, 27, 91
2, 53456, Note_on_c, 0, 39, 89
2, 53457, Note_on_c, 0, 68, 102
2, 53463, Note_on_c, 0, 75, 88
2, 53498, Control_c, 0, 64, 127
2, 53606, Note_on_c, 0, 27, 0
2, 53694, Note_on_c, 0, 83, 101
2, 53698, Note_on_c, 0, 71, 0
2, 53707, Note_on_c, 0, 71, 79
2, 53711, Note_on_c, 0, 51, 80
2, 53833, Note_on_c, 0, 59, 89
2, 53833, Note_on_c, 0, 56, 72
2, 53913, Note_on_c, 0, 51, 0
2, 53922, Note_on_c, 0, 51, 83
2, 54009, Note_on_c, 0, 71, 0
2, 54009, Note_on_c, 0, 83, 0
2, 54009, Note_on_c, 0, 68, 0
2, 54010, Note_on_c, 0, 51, 0
2, 54010, Note_on_c, 0, 75, 0
2, 54010, Note_on_c, 0, 56, 0
2, 54011, Note_on_c, 0, 59, 0
2, 54013, Control_c, 0, 64, 0
2, 54021, Note_on_c, 0, 39, 0
2, 54044, Note_on_c, 0, 80, 0
2, 54053, Note_on_c, 0, 73, 102
2, 54054, Note_on_c, 0, 85, 103
2, 54055, Note_on_c, 0, 80, 85
2, 54055, Note_on_c, 0, 37, 89
2, 54057, Note_on_c, 0, 76, 93
2, 54057, Note_on_c, 0, 25, 90
2, 54090, Note_on_c, 0, 25, 0
2, 54097, Control_c, 0, 64, 127
2, 54182, Note_on_c, 0, 85, 0
2, 54190, Note_on_c, 0, 73, 0
2, 54191, Note_on_c, 0, 85, 88
2, 54195, Note_on_c, 0, 73, 77
2, 54301, Note_on_c, 0, 49, 74
2, 54305, Note_on_c, 0, 76, 0
2, 54305, Note_on_c, 0, 88, 96
2, 54309, Note_on_c, 0, 76, 87
2, 54424, Note_on_c, 0, 61, 81
2, 54432, Note_on_c, 0, 52, 73
2, 54432, Note_on_c, 0, 87, 99
2, 54436, Note_on_c, 0, 75, 102
2, 54681, Note_on_c, 0, 49, 0
2, 54688, Note_on_c, 0, 49, 80
2, 54690, Note_on_c, 0, 83, 96
2, 54694, Note_on_c, 0, 71, 85
2, 54804, Note_on_c, 0, 83, 0
2, 54809, Note_on_c, 0, 44, 81
2, 54811, Note_on_c, 0, 83, 92
2, 54812, Note_on_c, 0, 71, 0
2, 54816, Note_on_c, 0, 71, 81
2, 54847, Note_on_c, 0, 81, 38
2, 54881, Note_on_c, 0, 81, 0
2, 54898, Note_on_c, 0, 37, 0
2, 54899, Note_on_c, 0, 44, 0
2, 54899, Note_on_c, 0, 87, 0
2, 54900, Note_on_c, 0, 49, 0
2, 54900, Note_on_c, 0, 75, 0
2, 54900, Note_on_c, 0, 80, 0
2, 54900, Note_on_c, 0, 73, 0
2, 54900, Note_on_c, 0, 83, 0
2, 54900, Note_on_c, 0, 71, 0
2, 54900, Note_on_c, 0, 52, 0
2, 54901, Note_on_c, 0, 76, 0
2, 54901, Note_on_c, 0, 88, 0
2, 54903, Control_c, 0, 64, 0
2, 54919, Note_on_c, 0, 61, 0
2, 54935, Note_on_c, 0, 85, 0
2, 54939, Note_on_c, 0, 33, 85
2, 54940, Note_on_c, 0, 85, 107
2, 54944, Note_on_c, 0, 73, 104
2, 54944, Note_on_c, 0, 76, 94
2, 54944, Note_on_c, 0, 45, 89
2, 54973, Control_c, 0, 64, 127
2, 55188, Note_on_c, 0, 73, 0
2, 55188, Note_on_c, 0, 85, 0
2, 55192, Note_on_c, 0, 85, 94
2, 55192, Note_on_c, 0, 52, 79
2, 55193, Note_on_c, 0, 73, 87
2, 55307, Note_on_c, 0, 88, 101
2, 55311, Note_on_c, 0, 76, 0
2, 55314, Note_on_c, 0, 57, 73
2, 55317, Note_on_c, 0, 76, 84
2, 55418, Note_on_c, 0, 52, 0
2, 55424, Note_on_c, 0, 52, 76
2, 55431, Note_on_c, 0, 61, 77
2, 55436, Note_on_c, 0, 87, 99
2, 55439, Note_on_c, 0, 78, 93
2, 55440, Note_on_c, 0, 75, 92
2, 55619, Note_on_c, 0, 53, 43
2, 55626, Note_on_c, 0, 53, 0
2, 55687, Note_on_c, 0, 57, 0
2, 55692, Note_on_c, 0, 83, 100
2, 55695, Note_on_c, 0, 45, 0
2, 55696, Note_on_c, 0, 57, 85
2, 55699, Note_on_c, 0, 45, 71
2, 55701, Note_on_c, 0, 71, 86
2, 55802, Note_on_c, 0, 52, 0
2, 55807, Note_on_c, 0, 52, 76
2, 55909, Note_on_c, 0, 57, 0
2, 55910, Note_on_c, 0, 45, 0
2, 55915, Note_on_c, 0, 45, 79
2, 56030, Note_on_c, 0, 87, 0
2, 56030, Control_c, 0, 64, 0
2, 56030, Note_on_c, 0, 52, 0
2, 56031, Note_on_c, 0, 45, 0
2, 56031, Note_on_c, 0, 88, 0
2, 56031, Note_on_c, 0, 76, 0
2, 56031, Note_on_c, 0, 83, 0
2, 56032, Note_on_c, 0, 71, 0
2, 56040, Note_on_c, 0, 33, 0
2, 56048, Note_on_c, 0, 61, 0
2, 56048, Note_on_c, 0, 73, 0
2, 56048, Note_on_c, 0, 75, 0
2, 56048, Note_on_c, 0, 78, 0
2, 56048, Note_on_c, 0, 85, 0
2, 56058, Note_on_c, 0, 78, 98
2, 56059, Note_on_c, 0, 73, 104
2, 56059, Note_on_c, 0, 85, 102
2, 56059, Note_on_c, 0, 75, 100
2, 56065, Note_on_c, 0, 47, 95
2, 56066, Note_on_c, 0, 35, 86
2, 56094, Control_c, 0, 64, 127
2, 56179, Note_on_c, 0, 73, 0
2, 56179, Note_on_c, 0, 85, 0
2, 56185, Note_on_c, 0, 85, 84
2, 56186, Note_on_c, 0, 75, 0
2, 56188, Note_on_c, 0, 73, 80
2, 56191, Note_on_c, 0, 75, 80
2, 56256, Note_on_c, 0, 35, 0
2, 56294, Note_on_c, 0, 47, 0
2, 56298, Note_on_c, 0, 47, 79
2, 56304, Note_on_c, 0, 88, 100
2, 56307, Note_on_c, 0, 76, 86
2, 56432, Note_on_c, 0, 75, 0
2, 56441, Note_on_c, 0, 87, 102
2, 56442, Note_on_c, 0, 59, 84
2, 56442, Note_on_c, 0, 75, 103
2, 56444, Note_on_c, 0, 51, 83
2, 56444, Note_on_c, 0, 54, 79
2, 56678, Note_on_c, 0, 47, 0
2, 56678, Note_on_c, 0, 73, 0
2, 56678, Note_on_c, 0, 85, 0
2, 56682, Note_on_c, 0, 85, 97
2, 56683, Note_on_c, 0, 47, 82
2, 56683, Note_on_c, 0, 73, 94
2, 56688, Note_on_c, 0, 35, 71
2, 56792, Note_on_c, 0, 42, 91
2, 56875, Note_on_c, 0, 88, 0
2, 56875, Note_on_c, 0, 42, 0
2, 56875, Note_on_c, 0, 85, 0
2, 56875, Note_on_c, 0, 47, 0
2, 56876, Note_on_c, 0, 87, 0
2, 56876, Note_on_c, 0, 51, 0
2, 56876, Note_on_c, 0, 76, 0
2, 56876, Note_on_c, 0, 75, 0
2, 56876, Note_on_c, 0, 54, 0
2, 56876, Control_c, 0, 64, 0
2, 56877, Note_on_c, 0, 73, 0
2, 56878, Note_on_c, 0, 59, 0
2, 56885, Note_on_c, 0, 35, 0
2, 56885, Note_on_c, 0, 78, 0
2, 56921, Note_on_c, 0, 83, 102
2, 56926, Note_on_c, 0, 71, 93
2, 56926, Note_on_c, 0, 28, 94
2, 56926, Note_on_c, 0, 74, 84
2, 56927, Note_on_c, 0, 80, 92
2, 56928, Note_on_c, 0, 40, 84
2, 56928, Note_on_c, 0, 76, 80
2, 56931, Note_on_c, 0, 74, 0
2, 56954, Control_c, 0, 64, 127
2, 57169, Note_on_c, 0, 92, 112
2, 57169, Note_on_c, 0, 40, 0
2, 57169, Note_on_c, 0, 80, 0
2, 57169, Note_on_c, 0, 83, 0
2, 57173, Note_on_c, 0, 52, 90
2, 57174, Note_on_c, 0, 80, 103
2, 57176, Note_on_c, 0, 40, 77
2, 57180, Note_on_c, 0, 88, 90
2, 57180, Note_on_c, 0, 83, 87
2, 57292, Note_on_c, 0, 47, 75
2, 57296, Note_on_c, 0, 59, 83
2, 57297, Note_on_c, 0, 64, 82
2, 57300, Note_on_c, 0, 47, 0
2, 57302, Note_on_c, 0, 56, 77
2, 57392, Note_on_c, 0, 52, 0
2, 57399, Note_on_c, 0, 52, 83
2, 57403, Note_on_c, 0, 54, 67
2, 57512, Control_c, 0, 64, 0
2, 57513, Note_on_c, 0, 88, 0
2, 57514, Note_on_c, 0, 59, 0
2, 57514, Note_on_c, 0, 71, 0
2, 57514, Note_on_c, 0, 64, 0
2, 57514, Note_on_c, 0, 56, 0
2, 57514, Note_on_c, 0, 76, 0
2, 57514, Note_on_c, 0, 92, 0
2, 57514, Note_on_c, 0, 83, 0
2, 57515, Note_on_c, 0, 80, 0
2, 57515, Note_on_c, 0, 40, 0
2, 57515, Note_on_c, 0, 28, 0
2, 57515, Note_on_c, 0, 54, 0
2, 57535, Note_on_c, 0, 90, 107
2, 57539, Note_on_c, 0, 78, 104
2, 57541, Note_on_c, 0, 84, 94
2, 57546, Note_on_c, 0, 52, 0
2, 57548, Note_on_c, 0, 86, 85
2, 57549, Note_on_c, 0, 51, 83
2, 57550, Note_on_c, 0, 52, 70
2, 57555, Note_on_c, 0, 46, 70
2, 57561, Note_on_c, 0, 52, 0
2, 57584, Control_c, 0, 64, 127
2, 57615, Note_on_c, 0, 51, 0
2, 57794, Note_on_c, 0, 32, 74
2, 57795, Note_on_c, 0, 44, 72
2, 57815, Note_on_c, 0, 46, 0
2, 57922, Note_on_c, 0, 32, 0
2, 57930, Note_on_c, 0, 44, 0
2, 57933, Note_on_c, 0, 32, 54
2, 57934, Note_on_c, 0, 44, 51
2, 57959, Note_on_c, 0, 90, 0
2, 57961, Control_c, 0, 64, 0
2, 57961, Note_on_c, 0, 78, 0
2, 57961, Note_on_c, 0, 32, 0
2, 57968, Note_on_c, 0, 84, 0
2, 57968, Note_on_c, 0, 86, 0
2, 57984, Note_on_c, 0, 44, 0
2, 58034, Note_on_c, 0, 80, 84
2, 58034, Note_on_c, 0, 85, 100
2, 58035, Note_on_c, 0, 73, 91
2, 58035, Note_on_c, 0, 76, 93
2, 58036, Note_on_c, 0, 37, 84
2, 58037, Control_c, 0, 64, 127
2, 58041, Note_on_c, 0, 49, 80
2, 58152, Note_on_c, 0, 85, 0
2, 58160, Note_on_c, 0, 37, 0
2, 58160, Note_on_c, 0, 49, 0
2, 58160, Note_on_c, 0, 76, 0
2, 58160, Note_on_c, 0, 80, 0
2, 58164, Note_on_c, 0, 85, 90
2, 58168, Note_on_c, 0, 80, 77
2, 58168, Note_on_c, 0, 76, 80
2, 58171, Note_on_c, 0, 37, 76
2, 58171, Note_on_c, 0, 49, 76
2, 58171, Note_on_c, 0, 52, 73
2, 58173, Note_on_c, 0, 44, 70
2, 58280, Note_on_c, 0, 85, 0
2, 58283, Note_on_c, 0, 37, 0
2, 58283, Note_on_c, 0, 73, 0
2, 58283, Note_on_c, 0, 80, 0
2, 58291, Note_on_c, 0, 49, 0
2, 58291, Note_on_c, 0, 76, 0
2, 58292, Note_on_c, 0, 80, 74
2, 58294, Note_on_c, 0, 37, 73
2, 58295, Note_on_c, 0, 49, 69
2, 58296, Note_on_c, 0, 88, 73
2, 58297, Note_on_c, 0, 76, 76
2, 58298, Note_on_c, 0, 44, 0
2, 58302, Note_on_c, 0, 44, 56
2, 58368, Note_on_c, 0, 52, 0
2, 58383, Note_on_c, 0, 44, 0
2, 58383, Control_c, 0, 64, 0
2, 58391, Note_on_c, 0, 80, 0
2, 58398, Note_on_c, 0, 87, 99
2, 58398, Note_on_c, 0, 37, 0
2, 58398, Note_on_c, 0, 49, 0
2, 58398, Note_on_c, 0, 76, 0
2, 58399, Note_on_c, 0, 80, 93
2, 58400, Note_on_c, 0, 75, 82
2, 58404, Note_on_c, 0, 76, 81
2, 58408, Note_on_c, 0, 49, 79
2, 58409, Note_on_c, 0, 37, 74
2, 58410, Note_on_c, 0, 52, 74
2, 58410, Note_on_c, 0, 44, 68
2, 58449, Note_on_c, 0, 52, 0
2, 58449, Note_on_c, 0, 49, 0
2, 58450, Note_on_c, 0, 44, 0
2, 58452, Note_on_c, 0, 75, 0
2, 58455, Note_on_c, 0, 37, 0
2, 58475, Control_c, 0, 64, 127
2, 58533, Note_on_c, 0, 37, 80
2, 58652, Note_on_c, 0, 80, 0
2, 58655, Note_on_c, 0, 83, 94
2, 58659, Note_on_c, 0, 76, 0
2, 58659, Control_c, 0, 64, 0
2, 58661, Note_on_c, 0, 80, 87
2, 58664, Note_on_c, 0, 76, 77
2, 58664, Note_on_c, 0, 52, 79
2, 58671, Note_on_c, 0, 49, 79
2, 58674, Note_on_c, 0, 44, 76
2, 58702, Note_on_c, 0, 88, 0
2, 58707, Note_on_c, 0, 52, 0
2, 58707, Note_on_c, 0, 49, 0
2, 58713, Note_on_c, 0, 87, 0
2, 58736, Note_on_c, 0, 76, 0
2, 58775, Note_on_c, 0, 44, 0
2, 58782, Note_on_c, 0, 37, 0
2, 58782, Note_on_c, 0, 80, 0
2, 58793, Note_on_c, 0, 37, 83
2, 58793, Note_on_c, 0, 80, 82
2, 58797, Note_on_c, 0, 76, 79
2, 58835, Note_on_c, 0, 37, 0
2, 58851, Note_on_c, 0, 83, 0
2, 58897, Note_on_c, 0, 76, 0
2, 58900, Note_on_c, 0, 52, 81
2, 58901, Note_on_c, 0, 44, 80
2, 58901, Note_on_c, 0, 85, 104
2, 58907, Note_on_c, 0, 76, 83
2, 58908, Note_on_c, 0, 81, 88
2, 58940, Note_on_c, 0, 52, 0
2, 58941, Note_on_c, 0, 76, 0
2, 58941, Note_on_c, 0, 44, 0
2, 58947, Note_on_c, 0, 81, 0
2, 58959, Note_on_c, 0, 80, 0
2, 59022, Note_on_c, 0, 33, 79
2, 59022, Note_on_c, 0, 45, 72
2, 59047, Note_on_c, 0, 76, 57
2, 59089, Note_on_c, 0, 85, 0
2, 59120, Note_on_c, 0, 76, 0
2, 59128, Note_on_c, 0, 45, 0
2, 59153, Note_on_c, 0, 49, 84
2, 59155, Note_on_c, 0, 40, 76
2, 59155, Note_on_c, 0, 85, 89
2, 59156, Note_on_c, 0, 37, 75
2, 59157, Note_on_c, 0, 81, 76
2, 59159, Note_on_c, 0, 76, 77
2, 59186, Note_on_c, 0, 76, 0
2, 59187, Note_on_c, 0, 81, 0
2, 59188, Note_on_c, 0, 49, 0
2, 59189, Note_on_c, 0, 33, 0
2, 59191, Note_on_c, 0, 85, 0
2, 59193, Note_on_c, 0, 37, 0
2, 59194, Note_on_c, 0, 40, 0
2, 59277, Note_on_c, 0, 33, 81
2, 59277, Note_on_c, 0, 45, 79
2, 59279, Note_on_c, 0, 88, 95
2, 59284, Note_on_c, 0, 76, 85
2, 59284, Note_on_c, 0, 81, 81
2, 59317, Note_on_c, 0, 76, 0
2, 59321, Note_on_c, 0, 81, 0
2, 59321, Note_on_c, 0, 88, 0
2, 59343, Note_on_c, 0, 45, 0
2, 59401, Note_on_c, 0, 87, 96
2, 59403, Note_on_c, 0, 49, 78
2, 59403, Note_on_c, 0, 40, 75
2, 59403, Note_on_c, 0, 76, 76
2, 59403, Note_on_c, 0, 37, 72
2, 59407, Note_on_c, 0, 81, 78
2, 59439, Note_on_c, 0, 49, 0
2, 59441, Note_on_c, 0, 37, 0
2, 59443, Note_on_c, 0, 33, 0
2, 59444, Note_on_c, 0, 76, 0
2, 59447, Note_on_c, 0, 81, 0
2, 59449, Note_on_c, 0, 40, 0
2, 59525, Note_on_c, 0, 33, 80
2, 59525, Note_on_c, 0, 45, 77
2, 59533, Note_on_c, 0, 81, 74
2, 59534, Note_on_c, 0, 76, 72
2, 59567, Note_on_c, 0, 76, 0
2, 59569, Note_on_c, 0, 81, 0
2, 59573, Note_on_c, 0, 87, 0
2, 59596, Note_on_c, 0, 45, 0
2, 59645, Note_on_c, 0, 83, 94
2, 59646, Note_on_c, 0, 49, 86
2, 59647, Note_on_c, 0, 40, 76
2, 59647, Note_on_c, 0, 81, 89
2, 59652, Note_on_c, 0, 76, 84
2, 59684, Note_on_c, 0, 49, 0
2, 59689, Note_on_c, 0, 76, 0
2, 59693, Note_on_c, 0, 81, 0
2, 59694, Note_on_c, 0, 83, 0
2, 59696, Note_on_c, 0, 40, 0
2, 59704, Note_on_c, 0, 33, 0
2, 59761, Note_on_c, 0, 33, 78
2, 59763, Note_on_c, 0, 45, 76
2, 59768, Note_on_c, 0, 81, 79
2, 59774, Note_on_c, 0, 76, 72
2, 59809, Note_on_c, 0, 76, 0
2, 59809, Note_on_c, 0, 81, 0
2, 59880, Note_on_c, 0, 45, 0
2, 59891, Note_on_c, 0, 49, 78
2, 59892, Note_on_c, 0, 81, 89
2, 59893, Note_on_c, 0, 40, 71
2, 59897, Note_on_c, 0, 76, 75
2, 59919, Note_on_c, 0, 33, 0
2, 59923, Note_on_c, 0, 49, 0
2, 59928, Note_on_c, 0, 76, 0
2, 59932, Note_on_c, 0, 40, 0
2, 59933, Note_on_c, 0, 81, 0
2, 60009, Note_on_c, 0, 85, 104
2, 60012, Note_on_c, 0, 75, 102
2, 60014, Note_on_c, 0, 35, 87
2, 60015, Note_on_c, 0, 78, 88
2, 60049, Note_on_c, 0, 75, 0
2, 60052, Note_on_c, 0, 35, 0
2, 60103, Control_c, 0, 64, 127
2, 60134, Note_on_c, 0, 78, 0
2, 60141, Note_on_c, 0, 51, 78
2, 60142, Note_on_c, 0, 85, 0
2, 60144, Note_on_c, 0, 39, 75
2, 60145, Note_on_c, 0, 75, 92
2, 60145, Note_on_c, 0, 78, 86
2, 60145, Note_on_c, 0, 42, 80
2, 60146, Note_on_c, 0, 87, 82
2, 60146, Note_on_c, 0, 85, 84
2, 60257, Note_on_c, 0, 42, 0
2, 60257, Note_on_c, 0, 78, 0
2, 60261, Note_on_c, 0, 78, 97
2, 60261, Note_on_c, 0, 35, 78
2, 60264, Note_on_c, 0, 85, 0
2, 60267, Note_on_c, 0, 42, 72
2, 60267, Note_on_c, 0, 88, 96
2, 60269, Note_on_c, 0, 85, 73
2, 60372, Note_on_c, 0, 75, 0
2, 60372, Note_on_c, 0, 87, 0
2, 60379, Note_on_c, 0, 87, 102
2, 60380, Note_on_c, 0, 39, 0
2, 60380, Note_on_c, 0, 42, 0
2, 60380, Note_on_c, 0, 51, 0
2, 60380, Note_on_c, 0, 78, 0
2, 60383, Note_on_c, 0, 75, 92
2, 60387, Note_on_c, 0, 51, 78
2, 60387, Note_on_c, 0, 35, 0
2, 60389, Note_on_c, 0, 78, 89
2, 60389, Note_on_c, 0, 39, 67
2, 60390, Note_on_c, 0, 42, 76
2, 60393, Note_on_c, 0, 35, 74
2, 60476, Note_on_c, 0, 42, 0
2, 60477, Note_on_c, 0, 88, 0
2, 60484, Note_on_c, 0, 35, 0
2, 60487, Note_on_c, 0, 51, 0
2, 60503, Note_on_c, 0, 39, 0
2, 60503, Note_on_c, 0, 85, 0
2, 60503, Control_c, 0, 64, 0
2, 60510, Note_on_c, 0, 87, 0
2, 60515, Note_on_c, 0, 47, 68
2, 60516, Note_on_c, 0, 35, 68
2, 60518, Note_on_c, 0, 75, 0
2, 60518, Note_on_c, 0, 78, 0
2, 60524, Note_on_c, 0, 78, 80
2, 60525, Note_on_c, 0, 75, 76
2, 60526, Note_on_c, 0, 47, 0
2, 60553, Note_on_c, 0, 75, 0
2, 60560, Note_on_c, 0, 78, 0
2, 60572, Note_on_c, 0, 35, 0
2, 60636, Note_on_c, 0, 83, 97
2, 60637, Note_on_c, 0, 51, 82
2, 60638, Note_on_c, 0, 42, 79
2, 60638, Note_on_c, 0, 78, 78
2, 60640, Note_on_c, 0, 75, 90
2, 60644, Note_on_c, 0, 47, 69
2, 60668, Note_on_c, 0, 51, 0
2, 60674, Note_on_c, 0, 75, 0
2, 60674, Note_on_c, 0, 78, 0
2, 60678, Note_on_c, 0, 42, 0
2, 60687, Note_on_c, 0, 47, 0
2, 60751, Note_on_c, 0, 35, 73
2, 60763, Note_on_c, 0, 78, 78
2, 60769, Note_on_c, 0, 75, 69
2, 60806, Note_on_c, 0, 35, 0
2, 60811, Note_on_c, 0, 78, 0
2, 60815, Note_on_c, 0, 75, 0
2, 60825, Note_on_c, 0, 83, 0
2, 60875, Note_on_c, 0, 80, 101
2, 60881, Note_on_c, 0, 51, 82
2, 60886, Note_on_c, 0, 42, 75
2, 60887, Note_on_c, 0, 71, 87
2, 60890, Note_on_c, 0, 76, 80
2, 60925, Control_c, 0, 64, 127
2, 61008, Note_on_c, 0, 40, 73
2, 61009, Note_on_c, 0, 71, 0
2, 61009, Note_on_c, 0, 76, 0
2, 61014, Note_on_c, 0, 76, 70
2, 61014, Note_on_c, 0, 71, 77
2, 61102, Note_on_c, 0, 51, 0
2, 61125, Note_on_c, 0, 80, 0
2, 61132, Note_on_c, 0, 71, 0
2, 61132, Note_on_c, 0, 76, 0
2, 61135, Note_on_c, 0, 47, 76
2, 61136, Note_on_c, 0, 80, 91
2, 61136, Note_on_c, 0, 52, 76
2, 61139, Note_on_c, 0, 71, 75
2, 61141, Note_on_c, 0, 76, 75
2, 61142, Control_c, 0, 64, 0
2, 61173, Note_on_c, 0, 40, 0
2, 61178, Note_on_c, 0, 42, 0
2, 61184, Note_on_c, 0, 47, 0
2, 61186, Note_on_c, 0, 71, 0
2, 61194, Note_on_c, 0, 52, 0
2, 61194, Note_on_c, 0, 76, 0
2, 61209, Note_on_c, 0, 80, 0
2, 61260, Note_on_c, 0, 83, 96
2, 61263, Note_on_c, 0, 40, 72
2, 61266, Note_on_c, 0, 71, 74
2, 61298, Note_on_c, 0, 83, 0
2, 61299, Note_on_c, 0, 71, 0
2, 61382, Note_on_c, 0, 80, 101
2, 61384, Note_on_c, 0, 47, 80
2, 61386, Note_on_c, 0, 71, 86
2, 61387, Note_on_c, 0, 52, 82
2, 61389, Note_on_c, 0, 75, 93
2, 61423, Note_on_c, 0, 52, 0
2, 61427, Note_on_c, 0, 75, 0
2, 61428, Note_on_c, 0, 71, 0
2, 61429, Note_on_c, 0, 47, 0
2, 61440, Note_on_c, 0, 40, 0
2, 61510, Note_on_c, 0, 39, 83
2, 61514, Note_on_c, 0, 71, 72
2, 61520, Note_on_c, 0, 75, 72
2, 61551, Note_on_c, 0, 71, 0
2, 61558, Note_on_c, 0, 75, 0
2, 61565, Note_on_c, 0, 80, 0
2, 61608, Control_c, 0, 64, 127
2, 61624, Control_c, 0, 64, 0
2, 61632, Note_on_c, 0, 39, 0
2, 61633, Note_on_c, 0, 51, 79
2, 61635, Note_on_c, 0, 75, 92
2, 61635, Note_on_c, 0, 83, 96
2, 61636, Note_on_c, 0, 47, 76
2, 61636, Note_on_c, 0, 39, 76
2, 61640, Note_on_c, 0, 71, 84
2, 61679, Note_on_c, 0, 71, 0
2, 61680, Note_on_c, 0, 51, 0
2, 61681, Note_on_c, 0, 39, 0
2, 61683, Note_on_c, 0, 47, 0
2, 61683, Note_on_c, 0, 75, 0
2, 61683, Note_on_c, 0, 83, 0
2, 61749, Note_on_c, 0, 39, 65
2, 61756, Note_on_c, 0, 47, 59
2, 61770, Note_on_c, 0, 71, 79
2, 61775, Note_on_c, 0, 75, 81
2, 61870, Note_on_c, 0, 75, 0
2, 61877, Note_on_c, 0, 39, 0
2, 61877, Note_on_c, 0, 47, 0
2, 61877, Note_on_c, 0, 71, 0
2, 61880, Note_on_c, 0, 75, 82
2, 61880, Note_on_c, 0, 51, 75
2, 61881, Note_on_c, 0, 71, 73
2, 61882, Note_on_c, 0, 39, 67
2, 61882, Note_on_c, 0, 47, 73
2, 61907, Note_on_c, 0, 71, 0
2, 61913, Note_on_c, 0, 75, 0
2, 61913, Note_on_c, 0, 51, 0
2, 61915, Note_on_c, 0, 47, 0
2, 61931, Note_on_c, 0, 39, 0
2, 61997, Note_on_c, 0, 85, 104
2, 61997, Note_on_c, 0, 80, 90
2, 61998, Note_on_c, 0, 73, 97
2, 62003, Note_on_c, 0, 76, 91
2, 62004, Note_on_c, 0, 37, 85
2, 62006, Note_on_c, 0, 49, 79
2, 62123, Note_on_c, 0, 76, 0
2, 62123, Note_on_c, 0, 80, 0
2, 62123, Note_on_c, 0, 85, 0
2, 62129, Note_on_c, 0, 85, 90
2, 62132, Note_on_c, 0, 76, 78
2, 62133, Note_on_c, 0, 80, 90
2, 62138, Note_on_c, 0, 52, 76
2, 62144, Note_on_c, 0, 44, 72
2, 62154, Note_on_c, 0, 73, 0
2, 62215, Note_on_c, 0, 76, 0
2, 62223, Note_on_c, 0, 80, 0
2, 62254, Note_on_c, 0, 37, 0
2, 62254, Note_on_c, 0, 49, 0
2, 62255, Note_on_c, 0, 88, 100
2, 62258, Note_on_c, 0, 49, 75
2, 62260, Note_on_c, 0, 37, 78
2, 62263, Note_on_c, 0, 76, 91
2, 62265, Note_on_c, 0, 80, 77
2, 62297, Note_on_c, 0, 76, 0
2, 62307, Note_on_c, 0, 49, 0
2, 62307, Note_on_c, 0, 85, 0
2, 62369, Note_on_c, 0, 80, 0
2, 62376, Note_on_c, 0, 80, 92
2, 62376, Note_on_c, 0, 44, 0
2, 62376, Note_on_c, 0, 52, 0
2, 62379, Note_on_c, 0, 87, 94
2, 62380, Note_on_c, 0, 76, 76
2, 62382, Note_on_c, 0, 52, 78
2, 62384, Note_on_c, 0, 44, 75
2, 62417, Note_on_c, 0, 76, 0
2, 62418, Note_on_c, 0, 52, 0
2, 62420, Note_on_c, 0, 44, 0
2, 62422, Note_on_c, 0, 80, 0
2, 62430, Note_on_c, 0, 37, 0
2, 62453, Note_on_c, 0, 88, 0
2, 62505, Note_on_c, 0, 37, 75
2, 62510, Note_on_c, 0, 80, 74
2, 62511, Note_on_c, 0, 76, 76
2, 62511, Note_on_c, 0, 49, 64
2, 62543, Note_on_c, 0, 76, 0
2, 62545, Note_on_c, 0, 49, 0
2, 62547, Note_on_c, 0, 80, 0
2, 62548, Note_on_c, 0, 37, 0
2, 62556, Note_on_c, 0, 87, 0
2, 62622, Note_on_c, 0, 83, 95
2, 62625, Note_on_c, 0, 52, 81
2, 62626, Note_on_c, 0, 80, 89
2, 62626, Note_on_c, 0, 76, 83
2, 62629, Note_on_c, 0, 44, 78
2, 62657, Note_on_c, 0, 76, 0
2, 62659, Note_on_c, 0, 52, 0
2, 62662, Note_on_c, 0, 80, 0
2, 62664, Note_on_c, 0, 83, 0
2, 62707, Note_on_c, 0, 44, 0
2, 62741, Note_on_c, 0, 83, 77
2, 62744, Note_on_c, 0, 37, 73
2, 62745, Note_on_c, 0, 80, 85
2, 62750, Note_on_c, 0, 76, 71
2, 62811, Note_on_c, 0, 76, 0
2, 62812, Note_on_c, 0, 37, 0
2, 62814, Note_on_c, 0, 83, 0
2, 62815, Note_on_c, 0, 80, 0
2, 62864, Note_on_c, 0, 44, 77
2, 62865, Note_on_c, 0, 85, 107
2, 62872, Note_on_c, 0, 76, 84
2, 62873, Note_on_c, 0, 50, 75
2, 62873, Note_on_c, 0, 81, 90
2, 62883, Note_on_c, 0, 50, 0
2, 62903, Note_on_c, 0, 76, 0
2, 62906, Control_c, 0, 64, 127
2, 62981, Note_on_c, 0, 33, 82
2, 62983, Note_on_c, 0, 81, 0
2, 62989, Note_on_c, 0, 81, 76
2, 63010, Note_on_c, 0, 76, 55
2, 63112, Note_on_c, 0, 49, 84
2, 63114, Note_on_c, 0, 81, 0
2, 63114, Note_on_c, 0, 85, 0
2, 63118, Note_on_c, 0, 40, 75
2, 63118, Note_on_c, 0, 37, 73
2, 63121, Note_on_c, 0, 76, 0
2, 63123, Note_on_c, 0, 85, 89
2, 63124, Note_on_c, 0, 81, 80
2, 63125, Note_on_c, 0, 76, 78
2, 63159, Note_on_c, 0, 81, 0
2, 63160, Note_on_c, 0, 44, 0
2, 63161, Note_on_c, 0, 76, 0
2, 63161, Note_on_c, 0, 37, 0
2, 63162, Note_on_c, 0, 33, 0
2, 63163, Note_on_c, 0, 85, 0
2, 63163, Control_c, 0, 64, 0
2, 63168, Note_on_c, 0, 49, 0
2, 63183, Note_on_c, 0, 40, 0
2, 63239, Note_on_c, 0, 33, 79
2, 63240, Note_on_c, 0, 45, 77
2, 63247, Note_on_c, 0, 88, 96
2, 63254, Note_on_c, 0, 76, 83
2, 63257, Note_on_c, 0, 81, 75
2, 63288, Note_on_c, 0, 76, 0
2, 63290, Note_on_c, 0, 81, 0
2, 63294, Note_on_c, 0, 88, 0
2, 63321, Note_on_c, 0, 45, 0
2, 63363, Note_on_c, 0, 49, 81
2, 63363, Note_on_c, 0, 37, 72
2, 63365, Note_on_c, 0, 87, 99
2, 63368, Note_on_c, 0, 81, 85
2, 63370, Note_on_c, 0, 40, 72
2, 63375, Note_on_c, 0, 76, 78
2, 63402, Note_on_c, 0, 49, 0
2, 63410, Note_on_c, 0, 76, 0
2, 63412, Note_on_c, 0, 40, 0
2, 63414, Note_on_c, 0, 81, 0
2, 63421, Note_on_c, 0, 33, 0
2, 63421, Note_on_c, 0, 37, 0
2, 63495, Note_on_c, 0, 33, 78
2, 63501, Note_on_c, 0, 81, 78
2, 63503, Note_on_c, 0, 76, 71
2, 63542, Note_on_c, 0, 81, 0
2, 63559, Note_on_c, 0, 87, 0
2, 63567, Note_on_c, 0, 76, 0
2, 63609, Note_on_c, 0, 49, 91
2, 63613, Note_on_c, 0, 81, 89
2, 63615, Note_on_c, 0, 83, 95
2, 63616, Note_on_c, 0, 40, 80
2, 63617, Note_on_c, 0, 76, 87
2, 63653, Note_on_c, 0, 49, 0
2, 63659, Note_on_c, 0, 33, 0
2, 63661, Note_on_c, 0, 76, 0
2, 63666, Note_on_c, 0, 83, 0
2, 63667, Note_on_c, 0, 81, 0
2, 63682, Note_on_c, 0, 40, 0
2, 63732, Note_on_c, 0, 83, 80
2, 63733, Note_on_c, 0, 33, 78
2, 63734, Note_on_c, 0, 45, 71
2, 63739, Note_on_c, 0, 81, 78
2, 63742, Note_on_c, 0, 76, 67
2, 63744, Control_c, 0, 64, 127
2, 63837, Note_on_c, 0, 49, 85
2, 63841, Note_on_c, 0, 37, 76
2, 63849, Note_on_c, 0, 40, 68
2, 63851, Note_on_c, 0, 76, 0
2, 63851, Note_on_c, 0, 81, 0
2, 63855, Note_on_c, 0, 81, 81
2, 63861, Note_on_c, 0, 76, 77
2, 63899, Control_c, 0, 64, 0
2, 63910, Note_on_c, 0, 81, 0
2, 63910, Note_on_c, 0, 76, 0
2, 63912, Note_on_c, 0, 83, 0
2, 63917, Note_on_c, 0, 37, 0
2, 63917, Note_on_c, 0, 33, 0
2, 63917, Note_on_c, 0, 40, 0
2, 63919, Note_on_c, 0, 49, 0
2, 63928, Note_on_c, 0, 45, 0
2, 63973, Note_on_c, 0, 85, 104
2, 63976, Note_on_c, 0, 75, 102
2, 63977, Note_on_c, 0, 47, 91
2, 63978, Note_on_c, 0, 35, 82
2, 63978, Note_on_c, 0, 78, 89
2, 64017, Note_on_c, 0, 75, 0
2, 64035, Control_c, 0, 64, 127
2, 64097, Note_on_c, 0, 85, 0
2, 64104, Note_on_c, 0, 78, 0
2, 64107, Note_on_c, 0, 85, 87
2, 64108, Note_on_c, 0, 75, 89
2, 64112, Note_on_c, 0, 78, 77
2, 64227, Note_on_c, 0, 88, 101
2, 64227, Note_on_c, 0, 78, 0
2, 64231, Note_on_c, 0, 78, 89
2, 64316, Control_c, 0, 64, 0
2, 64317, Note_on_c, 0, 78, 0
2, 64317, Note_on_c, 0, 88, 0
2, 64320, Note_on_c, 0, 35, 0
2, 64320, Note_on_c, 0, 47, 0
2, 64327, Note_on_c, 0, 75, 0
2, 64327, Note_on_c, 0, 85, 0
2, 64351, Note_on_c, 0, 87, 102
2, 64354, Note_on_c, 0, 59, 92
2, 64354, Note_on_c, 0, 75, 95
2, 64354, Note_on_c, 0, 47, 84
2, 64355, Note_on_c, 0, 54, 89
2, 64355, Note_on_c, 0, 78, 89
2, 64358, Note_on_c, 0, 51, 83
2, 64412, Control_c, 0, 64, 127
2, 64542, Note_on_c, 0, 78, 0
2, 64602, Note_on_c, 0, 83, 94
2, 64604, Note_on_c, 0, 75, 0
2, 64608, Note_on_c, 0, 75, 79
2, 64609, Note_on_c, 0, 78, 69
2, 64613, Note_on_c, 0, 71, 76
2, 64711, Note_on_c, 0, 71, 0
2, 64711, Note_on_c, 0, 75, 0
2, 64711, Note_on_c, 0, 83, 0
2, 64719, Note_on_c, 0, 83, 91
2, 64721, Note_on_c, 0, 75, 81
2, 64722, Note_on_c, 0, 71, 77
2, 64847, Control_c, 0, 64, 0
2, 64848, Note_on_c, 0, 85, 104
2, 64850, Note_on_c, 0, 47, 0
2, 64852, Note_on_c, 0, 54, 0
2, 64852, Note_on_c, 0, 87, 0
2, 64852, Note_on_c, 0, 73, 102
2, 64852, Note_on_c, 0, 75, 0
2, 64852, Note_on_c, 0, 78, 0
2, 64852, Note_on_c, 0, 51, 0
2, 64853, Note_on_c, 0, 83, 0
2, 64856, Note_on_c, 0, 76, 93
2, 64857, Note_on_c, 0, 59, 0
2, 64865, Note_on_c, 0, 71, 0
2, 64867, Note_on_c, 0, 81, 74
2, 64875, Note_on_c, 0, 74, 65
2, 64878, Note_on_c, 0, 86, 63
2, 64880, Note_on_c, 0, 74, 0
2, 64888, Note_on_c, 0, 80, 39
2, 64942, Control_c, 0, 64, 127
2, 64967, Note_on_c, 0, 49, 91
2, 64967, Note_on_c, 0, 37, 87
2, 65088, Note_on_c, 0, 80, 0
2, 65095, Note_on_c, 0, 76, 0
2, 65099, Note_on_c, 0, 80, 66
2, 65100, Note_on_c, 0, 76, 65
2, 65210, Note_on_c, 0, 49, 0
2, 65210, Note_on_c, 0, 76, 0
2, 65210, Note_on_c, 0, 80, 0
2, 65210, Note_on_c, 0, 86, 0
2, 65214, Note_on_c, 0, 80, 76
2, 65216, Note_on_c, 0, 49, 73
2, 65217, Note_on_c, 0, 76, 72
2, 65287, Note_on_c, 0, 85, 0
2, 65292, Note_on_c, 0, 85, 71
2, 65333, Note_on_c, 0, 80, 0
2, 65336, Note_on_c, 0, 66, 92
2, 65339, Note_on_c, 0, 80, 84
2, 65341, Note_on_c, 0, 76, 0
2, 65346, Note_on_c, 0, 76, 80
2, 65387, Note_on_c, 0, 85, 0
2, 65397, Note_on_c, 0, 85, 87
2, 65464, Note_on_c, 0, 49, 0
2, 65472, Note_on_c, 0, 76, 0
2, 65472, Note_on_c, 0, 80, 0
2, 65474, Note_on_c, 0, 49, 79
2, 65478, Note_on_c, 0, 76, 73
2, 65479, Note_on_c, 0, 80, 69
2, 65518, Note_on_c, 0, 85, 0
2, 65526, Note_on_c, 0, 85, 81
2, 65587, Note_on_c, 0, 80, 0
2, 65590, Note_on_c, 0, 63, 87
2, 65594, Note_on_c, 0, 80, 83
2, 65594, Note_on_c, 0, 56, 78
2, 65594, Note_on_c, 0, 76, 0
2, 65602, Note_on_c, 0, 76, 73
2, 65648, Note_on_c, 0, 85, 0
2, 65655, Note_on_c, 0, 85, 79
2, 65717, Note_on_c, 0, 49, 0
2, 65721, Note_on_c, 0, 49, 63
2, 65733, Note_on_c, 0, 76, 0
2, 65740, Note_on_c, 0, 80, 0
2, 65742, Note_on_c, 0, 76, 58
2, 65745, Note_on_c, 0, 80, 54
2, 65786, Note_on_c, 0, 85, 0
2, 65791, Note_on_c, 0, 85, 80
2, 65840, Note_on_c, 0, 80, 0
2, 65844, Note_on_c, 0, 64, 101
2, 65848, Note_on_c, 0, 56, 0
2, 65848, Note_on_c, 0, 61, 90
2, 65849, Note_on_c, 0, 83, 84
2, 65850, Note_on_c, 0, 80, 80
2, 65854, Note_on_c, 0, 56, 77
2, 65894, Note_on_c, 0, 81, 0
2, 65909, Note_on_c, 0, 85, 0
2, 65915, Note_on_c, 0, 85, 85
2, 65971, Note_on_c, 0, 49, 0
2, 65982, Note_on_c, 0, 49, 82
2, 65985, Note_on_c, 0, 82, 61
2, 66048, Note_on_c, 0, 85, 0
2, 66051, Note_on_c, 0, 85, 78
2, 66094, Note_on_c, 0, 61, 0
2, 66101, Note_on_c, 0, 56, 0
2, 66101, Note_on_c, 0, 80, 0
2, 66103, Note_on_c, 0, 61, 96
2, 66106, Note_on_c, 0, 56, 81
2, 66107, Note_on_c, 0, 80, 84
2, 66163, Note_on_c, 0, 85, 0
2, 66173, Note_on_c, 0, 85, 81
2, 66224, Note_on_c, 0, 49, 0
2, 66224, Note_on_c, 0, 83, 0
2, 66234, Note_on_c, 0, 49, 86
2, 66234, Note_on_c, 0, 83, 69
2, 66247, Note_on_c, 0, 76, 0
2, 66257, Note_on_c, 0, 76, 73
2, 66293, Note_on_c, 0, 85, 0
2, 66302, Note_on_c, 0, 85, 82
2, 66347, Note_on_c, 0, 63, 0
2, 66351, Note_on_c, 0, 63, 90
2, 66355, Note_on_c, 0, 56, 0
2, 66355, Note_on_c, 0, 80, 0
2, 66359, Note_on_c, 0, 56, 87
2, 66361, Note_on_c, 0, 80, 81
2, 66362, Note_on_c, 0, 76, 0
2, 66367, Note_on_c, 0, 76, 75
2, 66416, Note_on_c, 0, 85, 0
2, 66423, Note_on_c, 0, 85, 85
2, 66455, Note_on_c, 0, 49, 0
2, 66466, Note_on_c, 0, 49, 84
2, 66493, Note_on_c, 0, 80, 0
2, 66497, Note_on_c, 0, 80, 74
2, 66539, Note_on_c, 0, 85, 0
2, 66543, Note_on_c, 0, 85, 78
2, 66575, Note_on_c, 0, 59, 89
2, 66593, Note_on_c, 0, 80, 0
2, 66602, Note_on_c, 0, 80, 93
2, 66616, Note_on_c, 0, 76, 0
2, 66625, Note_on_c, 0, 76, 74
2, 66713, Note_on_c, 0, 35, 85
2, 66819, Note_on_c, 0, 47, 81
2, 66872, Control_c, 0, 64, 0
2, 66872, Note_on_c, 0, 56, 0
2, 66872, Note_on_c, 0, 66, 0
2, 66872, Note_on_c, 0, 80, 0
2, 66873, Note_on_c, 0, 47, 0
2, 66873, Note_on_c, 0, 83, 0
2, 66873, Note_on_c, 0, 61, 0
2, 66873, Note_on_c, 0, 37, 0
2, 66873, Note_on_c, 0, 63, 0
2, 66873, Note_on_c, 0, 85, 0
2, 66873, Note_on_c, 0, 73, 0
2, 66873, Note_on_c, 0, 35, 0
2, 66873, Note_on_c, 0, 59, 0
2, 66873, Note_on_c, 0, 64, 0
2, 66873, Note_on_c, 0, 76, 0
2, 66877, Note_on_c, 0, 82, 0
2, 66892, Note_on_c, 0, 49, 0
2, 66933, Note_on_c, 0, 68, 103
2, 66937, Note_on_c, 0, 61, 94
2, 66940, Note_on_c, 0, 73, 86
2, 66941, Note_on_c, 0, 64, 81
2, 66946, Note_on_c, 0, 73, 0
2, 66950, Note_on_c, 0, 33, 88
2, 66954, Note_on_c, 0, 45, 89
2, 66992, Control_c, 0, 64, 127
2, 67156, Note_on_c, 0, 85, 59
2, 67206, Note_on_c, 0, 80, 71
2, 67212, Note_on_c, 0, 49, 79
2, 67213, Note_on_c, 0, 76, 72
2, 67261, Note_on_c, 0, 85, 0
2, 67272, Note_on_c, 0, 85, 75
2, 67322, Note_on_c, 0, 80, 0
2, 67330, Note_on_c, 0, 76, 0
2, 67333, Note_on_c, 0, 66, 94
2, 67334, Note_on_c, 0, 80, 92
2, 67335, Note_on_c, 0, 76, 81
2, 67392, Note_on_c, 0, 85, 0
2, 67400, Note_on_c, 0, 85, 86
2, 67461, Note_on_c, 0, 49, 0
2, 67465, Note_on_c, 0, 49, 87
2, 67476, Note_on_c, 0, 76, 0
2, 67476, Note_on_c, 0, 80, 0
2, 67485, Note_on_c, 0, 76, 56
2, 67485, Note_on_c, 0, 80, 64
2, 67537, Note_on_c, 0, 85, 0
2, 67542, Note_on_c, 0, 85, 78
2, 67589, Note_on_c, 0, 63, 85
2, 67591, Note_on_c, 0, 80, 0
2, 67598, Note_on_c, 0, 57, 69
2, 67602, Note_on_c, 0, 80, 77
2, 67607, Note_on_c, 0, 76, 0
2, 67612, Note_on_c, 0, 76, 74
2, 67660, Note_on_c, 0, 85, 0
2, 67665, Note_on_c, 0, 85, 80
2, 67714, Note_on_c, 0, 49, 0
2, 67722, Note_on_c, 0, 49, 76
2, 67730, Control_c, 0, 64, 0
2, 67745, Note_on_c, 0, 80, 0
2, 67750, Note_on_c, 0, 80, 69
2, 67752, Note_on_c, 0, 76, 0
2, 67752, Control_c, 0, 64, 127
2, 67758, Note_on_c, 0, 76, 58
2, 67799, Note_on_c, 0, 85, 0
2, 67805, Note_on_c, 0, 85, 75
2, 67845, Note_on_c, 0, 61, 0
2, 67845, Note_on_c, 0, 64, 0
2, 67850, Note_on_c, 0, 61, 92
2, 67852, Note_on_c, 0, 64, 99
2, 67852, Note_on_c, 0, 80, 0
2, 67860, Note_on_c, 0, 57, 0
2, 67862, Note_on_c, 0, 80, 81
2, 67866, Note_on_c, 0, 57, 59
2, 67921, Note_on_c, 0, 85, 0
2, 67925, Note_on_c, 0, 85, 85
2, 67968, Note_on_c, 0, 49, 0
2, 67978, Note_on_c, 0, 49, 76
2, 68006, Note_on_c, 0, 76, 0
2, 68006, Note_on_c, 0, 80, 0
2, 68011, Note_on_c, 0, 80, 66
2, 68017, Note_on_c, 0, 76, 68
2, 68060, Note_on_c, 0, 85, 0
2, 68067, Note_on_c, 0, 85, 82
2, 68098, Note_on_c, 0, 63, 0
2, 68108, Note_on_c, 0, 63, 89
2, 68121, Note_on_c, 0, 57, 0
2, 68121, Note_on_c, 0, 80, 0
2, 68125, Note_on_c, 0, 57, 67
2, 68126, Note_on_c, 0, 80, 82
2, 68126, Control_c, 0, 64, 0
2, 68129, Note_on_c, 0, 76, 0
2, 68138, Note_on_c, 0, 76, 71
2, 68152, Control_c, 0, 64, 127
2, 68183, Note_on_c, 0, 85, 0
2, 68191, Note_on_c, 0, 85, 81
2, 68229, Note_on_c, 0, 49, 0
2, 68240, Note_on_c, 0, 49, 75
2, 68267, Note_on_c, 0, 80, 0
2, 68272, Note_on_c, 0, 80, 74
2, 68275, Note_on_c, 0, 76, 0
2, 68286, Note_on_c, 0, 76, 49
2, 68313, Note_on_c, 0, 85, 0
2, 68317, Note_on_c, 0, 85, 82
2, 68344, Note_on_c, 0, 61, 0
2, 68352, Note_on_c, 0, 57, 0
2, 68354, Note_on_c, 0, 61, 93
2, 68363, Note_on_c, 0, 57, 82
2, 68382, Note_on_c, 0, 76, 0
2, 68382, Note_on_c, 0, 80, 0
2, 68387, Note_on_c, 0, 80, 74
2, 68389, Note_on_c, 0, 76, 72
2, 68436, Note_on_c, 0, 85, 0
2, 68445, Note_on_c, 0, 85, 80
2, 68474, Note_on_c, 0, 49, 0
2, 68482, Note_on_c, 0, 49, 83
2, 68521, Note_on_c, 0, 81, 59
2, 68559, Note_on_c, 0, 85, 0
2, 68565, Note_on_c, 0, 85, 76
2, 68574, Note_on_c, 0, 57, 0
2, 68577, Note_on_c, 0, 59, 83
2, 68579, Note_on_c, 0, 57, 75
2, 68605, Note_on_c, 0, 57, 0
2, 68605, Note_on_c, 0, 80, 0
2, 68612, Note_on_c, 0, 57, 47
2, 68616, Note_on_c, 0, 80, 89
2, 68620, Note_on_c, 0, 33, 0
2, 68717, Note_on_c, 0, 35, 79
2, 68829, Note_on_c, 0, 47, 73
2, 68904, Note_on_c, 0, 81, 0
2, 68907, Note_on_c, 0, 68, 0
2, 68908, Note_on_c, 0, 80, 0
2, 68908, Control_c, 0, 64, 0
2, 68909, Note_on_c, 0, 49, 0
2, 68909, Note_on_c, 0, 47, 0
2, 68909, Note_on_c, 0, 66, 0
2, 68909, Note_on_c, 0, 85, 0
2, 68909, Note_on_c, 0, 45, 0
2, 68909, Note_on_c, 0, 57, 0
2, 68909, Note_on_c, 0, 61, 0
2, 68909, Note_on_c, 0, 64, 0
2, 68910, Note_on_c, 0, 59, 0
2, 68911, Note_on_c, 0, 35, 0
2, 68928, Note_on_c, 0, 63, 0
2, 68928, Note_on_c, 0, 76, 0
2, 68957, Note_on_c, 0, 40, 84
2, 68961, Note_on_c, 0, 83, 106
2, 68962, Note_on_c, 0, 71, 99
2, 68963, Note_on_c, 0, 76, 93
2, 68968, Note_on_c, 0, 79, 81
2, 68974, Control_c, 0, 64, 127
2, 69092, Note_on_c, 0, 55, 76
2, 69212, Note_on_c, 0, 76, 0
2, 69216, Note_on_c, 0, 76, 91
2, 69221, Note_on_c, 0, 64, 79
2, 69221, Note_on_c, 0, 52, 71
2, 69295, Note_on_c, 0, 59, 75
2, 69342, Note_on_c, 0, 81, 100
2, 69342, Note_on_c, 0, 76, 0
2, 69347, Note_on_c, 0, 69, 88
2, 69350, Note_on_c, 0, 55, 0
2, 69351, Note_on_c, 0, 76, 88
2, 69361, Note_on_c, 0, 55, 71
2, 69404, Control_c, 0, 64, 0
2, 69412, Note_on_c, 0, 83, 0
2, 69414, Note_on_c, 0, 55, 0
2, 69415, Note_on_c, 0, 52, 0
2, 69415, Note_on_c, 0, 71, 0
2, 69415, Note_on_c, 0, 79, 0
2, 69415, Note_on_c, 0, 64, 0
2, 69434, Note_on_c, 0, 59, 0
2, 69442, Control_c, 0, 64, 127
2, 69444, Note_on_c, 0, 59, 64
2, 69465, Note_on_c, 0, 40, 0
2, 69490, Note_on_c, 0, 52, 76
2, 69535, Control_c, 0, 64, 0
2, 69542, Control_c, 0, 64, 127
2, 69557, Note_on_c, 0, 59, 0
2, 69564, Note_on_c, 0, 59, 73
2, 69606, Note_on_c, 0, 78, 99
2, 69618, Note_on_c, 0, 66, 92
2, 69623, Note_on_c, 0, 55, 76
2, 69688, Note_on_c, 0, 59, 0
2, 69698, Note_on_c, 0, 59, 68
2, 69749, Note_on_c, 0, 52, 0
2, 69755, Note_on_c, 0, 52, 70
2, 69818, Note_on_c, 0, 59, 0
2, 69824, Note_on_c, 0, 59, 69
2, 69872, Note_on_c, 0, 76, 0
2, 69877, Note_on_c, 0, 79, 96
2, 69880, Note_on_c, 0, 55, 0
2, 69883, Note_on_c, 0, 76, 82
2, 69885, Note_on_c, 0, 71, 79
2, 69888, Note_on_c, 0, 67, 85
2, 69889, Note_on_c, 0, 55, 78
2, 70003, Note_on_c, 0, 52, 0
2, 70012, Note_on_c, 0, 52, 79
2, 70080, Note_on_c, 0, 59, 0
2, 70084, Note_on_c, 0, 59, 65
2, 70133, Note_on_c, 0, 55, 0
2, 70133, Note_on_c, 0, 76, 0
2, 70143, Note_on_c, 0, 76, 88
2, 70144, Note_on_c, 0, 55, 75
2, 70146, Note_on_c, 0, 64, 89
2, 70202, Note_on_c, 0, 59, 0
2, 70213, Note_on_c, 0, 59, 72
2, 70272, Note_on_c, 0, 52, 0
2, 70280, Note_on_c, 0, 52, 73
2, 70341, Note_on_c, 0, 59, 0
2, 70348, Note_on_c, 0, 59, 70
2, 70387, Note_on_c, 0, 66, 0
2, 70387, Note_on_c, 0, 78, 0
2, 70391, Note_on_c, 0, 78, 91
2, 70398, Note_on_c, 0, 66, 85
2, 70417, Note_on_c, 0, 55, 0
2, 70421, Note_on_c, 0, 55, 76
2, 70525, Note_on_c, 0, 59, 0
2, 70531, Note_on_c, 0, 59, 79
2, 70533, Note_on_c, 0, 52, 0
2, 70537, Note_on_c, 0, 52, 67
2, 70632, Note_on_c, 0, 71, 0
2, 70640, Note_on_c, 0, 66, 0
2, 70641, Note_on_c, 0, 74, 93
2, 70644, Note_on_c, 0, 71, 83
2, 70644, Note_on_c, 0, 62, 88
2, 70645, Note_on_c, 0, 66, 79
2, 70675, Control_c, 0, 64, 0
2, 70677, Note_on_c, 0, 69, 0
2, 70681, Note_on_c, 0, 78, 0
2, 70681, Note_on_c, 0, 55, 0
2, 70681, Note_on_c, 0, 67, 0
2, 70681, Note_on_c, 0, 79, 0
2, 70681, Note_on_c, 0, 52, 0
2, 70681, Note_on_c, 0, 64, 0
2, 70681, Note_on_c, 0, 81, 0
2, 70682, Note_on_c, 0, 76, 0
2, 70682, Note_on_c, 0, 59, 0
2, 70740, Control_c, 0, 64, 127
2, 70767, Note_on_c, 0, 38, 83
2, 70877, Note_on_c, 0, 50, 83
2, 70955, Note_on_c, 0, 62, 0
2, 70961, Control_c, 0, 64, 0
2, 70961, Note_on_c, 0, 50, 0
2, 70962, Note_on_c, 0, 66, 0
2, 70962, Note_on_c, 0, 38, 0
2, 70963, Note_on_c, 0, 74, 0
2, 70978, Note_on_c, 0, 71, 0
2, 71007, Note_on_c, 0, 83, 103
2, 71013, Note_on_c, 0, 76, 87
2, 71015, Note_on_c, 0, 71, 89
2, 71021, Note_on_c, 0, 36, 78
2, 71024, Control_c, 0, 64, 127
2, 71139, Note_on_c, 0, 48, 75
2, 71255, Note_on_c, 0, 48, 0
2, 71255, Note_on_c, 0, 76, 0
2, 71262, Note_on_c, 0, 48, 75
2, 71266, Note_on_c, 0, 76, 88
2, 71285, Note_on_c, 0, 64, 59
2, 71293, Note_on_c, 0, 64, 0
2, 71356, Note_on_c, 0, 59, 82
2, 71389, Note_on_c, 0, 81, 92
2, 71398, Note_on_c, 0, 69, 83
2, 71400, Note_on_c, 0, 76, 0
2, 71405, Note_on_c, 0, 76, 67
2, 71419, Control_c, 0, 64, 0
2, 71430, Note_on_c, 0, 83, 0
2, 71431, Note_on_c, 0, 36, 0
2, 71439, Control_c, 0, 64, 127
2, 71462, Note_on_c, 0, 48, 0
2, 71471, Note_on_c, 0, 48, 64
2, 71531, Note_on_c, 0, 59, 0
2, 71537, Note_on_c, 0, 59, 74
2, 71626, Note_on_c, 0, 78, 95
2, 71626, Note_on_c, 0, 55, 77
2, 71633, Note_on_c, 0, 66, 87
2, 71685, Note_on_c, 0, 59, 0
2, 71694, Note_on_c, 0, 59, 75
2, 71761, Note_on_c, 0, 48, 0
2, 71768, Note_on_c, 0, 48, 70
2, 71823, Note_on_c, 0, 59, 0
2, 71827, Note_on_c, 0, 59, 71
2, 71884, Note_on_c, 0, 55, 0
2, 71884, Note_on_c, 0, 76, 0
2, 71892, Note_on_c, 0, 71, 0
2, 71892, Note_on_c, 0, 55, 83
2, 71893, Note_on_c, 0, 79, 96
2, 71895, Note_on_c, 0, 76, 79
2, 71896, Note_on_c, 0, 67, 91
2, 71898, Note_on_c, 0, 71, 80
2, 71940, Note_on_c, 0, 69, 0
2, 71941, Note_on_c, 0, 66, 0
2, 71941, Note_on_c, 0, 48, 0
2, 71942, Control_c, 0, 64, 0
2, 71942, Note_on_c, 0, 81, 0
2, 71946, Note_on_c, 0, 59, 0
2, 71954, Note_on_c, 0, 59, 68
2, 71961, Control_c, 0, 64, 127
2, 72032, Note_on_c, 0, 48, 67
2, 72084, Note_on_c, 0, 59, 0
2, 72094, Note_on_c, 0, 59, 65
2, 72145, Note_on_c, 0, 55, 0
2, 72145, Note_on_c, 0, 78, 0
2, 72151, Note_on_c, 0, 78, 95
2, 72152, Note_on_c, 0, 55, 75
2, 72156, Note_on_c, 0, 66, 81
2, 72215, Note_on_c, 0, 59, 0
2, 72226, Note_on_c, 0, 59, 69
2, 72276, Note_on_c, 0, 48, 0
2, 72282, Note_on_c, 0, 48, 67
2, 72330, Note_on_c, 0, 59, 0
2, 72336, Note_on_c, 0, 59, 74
2, 72391, Note_on_c, 0, 76, 0
2, 72399, Note_on_c, 0, 55, 0
2, 72401, Note_on_c, 0, 76, 90
2, 72403, Note_on_c, 0, 64, 87
2, 72406, Note_on_c, 0, 55, 67
2, 72522, Note_on_c, 0, 48, 0
2, 72522, Note_on_c, 0, 59, 0
2, 72529, Note_on_c, 0, 48, 59
2, 72533, Note_on_c, 0, 59, 74
2, 72649, Note_on_c, 0, 74, 91
2, 72652, Note_on_c, 0, 66, 0
2, 72654, Note_on_c, 0, 69, 80
2, 72656, Note_on_c, 0, 62, 86
2, 72657, Note_on_c, 0, 66, 77
2, 72734, Note_on_c, 0, 55, 0
2, 72735, Control_c, 0, 64, 0
2, 72735, Note_on_c, 0, 48, 0
2, 72736, Note_on_c, 0, 64, 0
2, 72736, Note_on_c, 0, 59, 0
2, 72736, Note_on_c, 0, 78, 0
2, 72736, Note_on_c, 0, 67, 0
2, 72737, Note_on_c, 0, 79, 0
2, 72752, Note_on_c, 0, 71, 0
2, 72752, Note_on_c, 0, 76, 0
2, 72788, Note_on_c, 0, 38, 83
2, 72798, Note_on_c, 0, 62, 0
2, 72806, Control_c, 0, 64, 127
2, 72852, Note_on_c, 0, 66, 0
2, 72886, Note_on_c, 0, 50, 79
2, 72992, Control_c, 0, 64, 0
2, 73006, Note_on_c, 0, 74, 0
2, 73010, Note_on_c, 0, 74, 100
2, 73013, Note_on_c, 0, 70, 96
2, 73016, Note_on_c, 0, 67, 84
2, 73019, Note_on_c, 0, 55, 85
2, 73024, Note_on_c, 0, 43, 73
2, 73036, Note_on_c, 0, 69, 0
2, 73052, Control_c, 0, 64, 127
2, 73159, Note_on_c, 0, 82, 63
2, 73232, Note_on_c, 0, 86, 62
2, 73274, Note_on_c, 0, 67, 0
2, 73274, Note_on_c, 0, 82, 0
2, 73285, Note_on_c, 0, 67, 79
2, 73286, Note_on_c, 0, 82, 76
2, 73290, Note_on_c, 0, 38, 0
2, 73290, Note_on_c, 0, 55, 0
2, 73293, Note_on_c, 0, 62, 70
2, 73295, Note_on_c, 0, 55, 69
2, 73344, Note_on_c, 0, 86, 0
2, 73349, Note_on_c, 0, 86, 77
2, 73405, Note_on_c, 0, 82, 0
2, 73415, Note_on_c, 0, 79, 70
2, 73415, Note_on_c, 0, 82, 86
2, 73419, Note_on_c, 0, 72, 93
2, 73420, Note_on_c, 0, 79, 0
2, 73421, Note_on_c, 0, 63, 87
2, 73466, Note_on_c, 0, 86, 0
2, 73472, Note_on_c, 0, 86, 89
2, 73543, Note_on_c, 0, 55, 0
2, 73551, Note_on_c, 0, 82, 0
2, 73554, Note_on_c, 0, 55, 79
2, 73555, Note_on_c, 0, 82, 70
2, 73570, Note_on_c, 0, 79, 61
2, 73597, Note_on_c, 0, 86, 0
2, 73602, Note_on_c, 0, 86, 88
2, 73651, Note_on_c, 0, 62, 0
2, 73658, Note_on_c, 0, 82, 0
2, 73661, Note_on_c, 0, 69, 90
2, 73661, Note_on_c, 0, 62, 90
2, 73662, Note_on_c, 0, 82, 80
2, 73728, Note_on_c, 0, 86, 0
2, 73733, Note_on_c, 0, 86, 79
2, 73789, Note_on_c, 0, 55, 0
2, 73789, Note_on_c, 0, 82, 0
2, 73793, Note_on_c, 0, 55, 71
2, 73800, Note_on_c, 0, 82, 70
2, 73820, Note_on_c, 0, 79, 0
2, 73824, Note_on_c, 0, 79, 46
2, 73850, Note_on_c, 0, 86, 0
2, 73856, Note_on_c, 0, 86, 80
2, 73912, Note_on_c, 0, 62, 0
2, 73912, Note_on_c, 0, 70, 0
2, 73912, Note_on_c, 0, 82, 0
2, 73921, Note_on_c, 0, 70, 98
2, 73922, Note_on_c, 0, 62, 67
2, 73923, Note_on_c, 0, 82, 82
2, 73927, Note_on_c, 0, 67, 0
2, 73933, Note_on_c, 0, 67, 76
2, 73950, Note_on_c, 0, 50, 0
2, 73958, Note_on_c, 0, 79, 0
2, 73968, Note_on_c, 0, 79, 51
2, 73981, Note_on_c, 0, 86, 0
2, 73985, Note_on_c, 0, 86, 77
2, 74050, Note_on_c, 0, 55, 0
2, 74050, Note_on_c, 0, 82, 0
2, 74060, Note_on_c, 0, 82, 66
2, 74060, Note_on_c, 0, 55, 78
2, 74112, Note_on_c, 0, 86, 0
2, 74117, Note_on_c, 0, 86, 79
2, 74173, Note_on_c, 0, 62, 0
2, 74173, Note_on_c, 0, 67, 0
2, 74173, Note_on_c, 0, 82, 0
2, 74179, Note_on_c, 0, 82, 84
2, 74180, Note_on_c, 0, 62, 88
2, 74180, Note_on_c, 0, 67, 86
2, 74234, Note_on_c, 0, 86, 0
2, 74243, Note_on_c, 0, 86, 86
2, 74296, Note_on_c, 0, 55, 0
2, 74306, Note_on_c, 0, 55, 83
2, 74311, Note_on_c, 0, 82, 0
2, 74317, Note_on_c, 0, 82, 73
2, 74365, Note_on_c, 0, 86, 0
2, 74374, Note_on_c, 0, 86, 79
2, 74426, Note_on_c, 0, 62, 0
2, 74426, Note_on_c, 0, 69, 0
2, 74426, Note_on_c, 0, 82, 0
2, 74431, Note_on_c, 0, 82, 82
2, 74431, Note_on_c, 0, 62, 79
2, 74434, Note_on_c, 0, 69, 88
2, 74488, Note_on_c, 0, 86, 0
2, 74495, Note_on_c, 0, 86, 81
2, 74549, Note_on_c, 0, 55, 0
2, 74549, Note_on_c, 0, 82, 0
2, 74560, Note_on_c, 0, 55, 84
2, 74560, Note_on_c, 0, 82, 74
2, 74611, Note_on_c, 0, 86, 0
2, 74618, Note_on_c, 0, 43, 0
2, 74620, Note_on_c, 0, 86, 79
2, 74664, Note_on_c, 0, 62, 0
2, 74672, Note_on_c, 0, 82, 0
2, 74676, Note_on_c, 0, 62, 93
2, 74677, Note_on_c, 0, 65, 78
2, 74680, Note_on_c, 0, 79, 0
2, 74682, Note_on_c, 0, 82, 81
2, 74686, Note_on_c, 0, 79, 67
2, 74806, Note_on_c, 0, 41, 84
2, 74922, Note_on_c, 0, 53, 82
2, 74974, Note_on_c, 0, 72, 0
2, 74974, Note_on_c, 0, 41, 0
2, 74974, Note_on_c, 0, 63, 0
2, 74974, Note_on_c, 0, 79, 0
2, 74974, Note_on_c, 0, 69, 0
2, 74974, Note_on_c, 0, 70, 0
2, 74975, Note_on_c, 0, 65, 0
2, 74975, Note_on_c, 0, 82, 0
2, 74975, Note_on_c, 0, 53, 0
2, 74975, Note_on_c, 0, 74, 0
2, 74975, Note_on_c, 0, 86, 0
2, 74976, Control_c, 0, 64, 0
2, 74987, Note_on_c, 0, 55, 0
2, 74987, Note_on_c, 0, 67, 0
2, 74995, Note_on_c, 0, 62, 0
2, 75028, Note_on_c, 0, 74, 99
2, 75030, Note_on_c, 0, 70, 92
2, 75036, Note_on_c, 0, 51, 92
2, 75037, Note_on_c, 0, 67, 79
2, 75038, Note_on_c, 0, 39, 83
2, 75064, Control_c, 0, 64, 127
2, 75286, Note_on_c, 0, 82, 81
2, 75287, Note_on_c, 0, 67, 0
2, 75293, Note_on_c, 0, 67, 79
2, 75298, Note_on_c, 0, 55, 82
2, 75299, Note_on_c, 0, 62, 61
2, 75310, Note_on_c, 0, 62, 0
2, 75352, Note_on_c, 0, 86, 69
2, 75363, Note_on_c, 0, 39, 0
2, 75409, Note_on_c, 0, 67, 0
2, 75409, Note_on_c, 0, 82, 0
2, 75417, Note_on_c, 0, 82, 85
2, 75420, Note_on_c, 0, 63, 85
2, 75421, Note_on_c, 0, 67, 81
2, 75421, Note_on_c, 0, 72, 91
2, 75463, Note_on_c, 0, 86, 0
2, 75472, Note_on_c, 0, 86, 85
2, 75548, Note_on_c, 0, 82, 0
2, 75554, Note_on_c, 0, 82, 70
2, 75555, Note_on_c, 0, 55, 0
2, 75559, Note_on_c, 0, 55, 78
2, 75567, Note_on_c, 0, 79, 69
2, 75609, Note_on_c, 0, 86, 0
2, 75615, Note_on_c, 0, 86, 77
2, 75663, Note_on_c, 0, 82, 0
2, 75674, Note_on_c, 0, 82, 80
2, 75678, Note_on_c, 0, 69, 81
2, 75678, Note_on_c, 0, 63, 0
2, 75683, Note_on_c, 0, 63, 75
2, 75724, Note_on_c, 0, 86, 0
2, 75734, Note_on_c, 0, 86, 77
2, 75801, Note_on_c, 0, 55, 0
2, 75809, Note_on_c, 0, 82, 0
2, 75812, Note_on_c, 0, 55, 77
2, 75814, Note_on_c, 0, 82, 72
2, 75870, Note_on_c, 0, 86, 0
2, 75875, Note_on_c, 0, 86, 83
2, 75924, Note_on_c, 0, 63, 0
2, 75932, Note_on_c, 0, 70, 0
2, 75932, Note_on_c, 0, 82, 0
2, 75935, Note_on_c, 0, 63, 78
2, 75936, Note_on_c, 0, 70, 91
2, 75938, Note_on_c, 0, 82, 79
2, 75993, Note_on_c, 0, 86, 0
2, 75999, Note_on_c, 0, 86, 74
2, 76055, Note_on_c, 0, 55, 0
2, 76062, Note_on_c, 0, 82, 0
2, 76065, Note_on_c, 0, 55, 79
2, 76073, Note_on_c, 0, 82, 74
2, 76131, Note_on_c, 0, 86, 0
2, 76137, Note_on_c, 0, 86, 75
2, 76177, Note_on_c, 0, 69, 0
2, 76185, Note_on_c, 0, 63, 0
2, 76188, Note_on_c, 0, 69, 87
2, 76192, Note_on_c, 0, 63, 76
2, 76193, Note_on_c, 0, 79, 0
2, 76193, Note_on_c, 0, 82, 0
2, 76197, Note_on_c, 0, 82, 73
2, 76203, Note_on_c, 0, 79, 66
2, 76247, Note_on_c, 0, 86, 0
2, 76253, Note_on_c, 0, 86, 79
2, 76316, Note_on_c, 0, 55, 0
2, 76320, Note_on_c, 0, 55, 80
2, 76331, Note_on_c, 0, 82, 0
2, 76336, Note_on_c, 0, 82, 65
2, 76369, Note_on_c, 0, 86, 0
2, 76381, Note_on_c, 0, 86, 78
2, 76431, Note_on_c, 0, 67, 0
2, 76439, Note_on_c, 0, 63, 0
2, 76439, Note_on_c, 0, 82, 0
2, 76442, Note_on_c, 0, 67, 89
2, 76443, Note_on_c, 0, 82, 78
2, 76443, Note_on_c, 0, 63, 86
2, 76500, Note_on_c, 0, 86, 0
2, 76505, Note_on_c, 0, 86, 81
2, 76561, Note_on_c, 0, 55, 0
2, 76561, Note_on_c, 0, 82, 0
2, 76565, Note_on_c, 0, 55, 87
2, 76573, Note_on_c, 0, 82, 73
2, 76623, Note_on_c, 0, 86, 0
2, 76630, Note_on_c, 0, 86, 80
2, 76677, Note_on_c, 0, 63, 0
2, 76677, Note_on_c, 0, 82, 0
2, 76683, Note_on_c, 0, 82, 80
2, 76684, Note_on_c, 0, 79, 0
2, 76686, Note_on_c, 0, 63, 85
2, 76688, Note_on_c, 0, 65, 77
2, 76689, Note_on_c, 0, 79, 79
2, 76806, Note_on_c, 0, 41, 81
2, 76923, Note_on_c, 0, 53, 82
2, 76988, Note_on_c, 0, 41, 0
2, 76988, Note_on_c, 0, 74, 0
2, 76988, Note_on_c, 0, 82, 0
2, 76989, Note_on_c, 0, 53, 0
2, 76989, Note_on_c, 0, 79, 0
2, 76989, Note_on_c, 0, 55, 0
2, 76989, Note_on_c, 0, 69, 0
2, 76989, Note_on_c, 0, 70, 0
2, 76989, Note_on_c, 0, 51, 0
2, 76989, Note_on_c, 0, 65, 0
2, 76990, Note_on_c, 0, 86, 0
2, 76991, Control_c, 0, 64, 0
2, 76993, Note_on_c, 0, 72, 0
2, 76999, Note_on_c, 0, 63, 0
2, 76999, Note_on_c, 0, 67, 0
2, 77047, Note_on_c, 0, 86, 105
2, 77050, Note_on_c, 0, 43, 83
2, 77050, Note_on_c, 0, 74, 98
2, 77053, Note_on_c, 0, 82, 90
2, 77054, Note_on_c, 0, 79, 83
2, 77068, Control_c, 0, 64, 127
2, 77182, Note_on_c, 0, 58, 82
2, 77264, Note_on_c, 0, 62, 71
2, 77299, Note_on_c, 0, 79, 0
2, 77306, Note_on_c, 0, 74, 0
2, 77310, Note_on_c, 0, 79, 93
2, 77311, Note_on_c, 0, 67, 87
2, 77312, Note_on_c, 0, 55, 79
2, 77314, Note_on_c, 0, 74, 73
2, 77368, Note_on_c, 0, 62, 0
2, 77379, Note_on_c, 0, 62, 55
2, 77429, Note_on_c, 0, 58, 0
2, 77435, Note_on_c, 0, 84, 91
2, 77440, Note_on_c, 0, 81, 79
2, 77440, Note_on_c, 0, 72, 81
2, 77441, Note_on_c, 0, 58, 80
2, 77506, Note_on_c, 0, 62, 0
2, 77506, Note_on_c, 0, 74, 0
2, 77514, Note_on_c, 0, 74, 73
2, 77517, Note_on_c, 0, 62, 73
2, 77560, Note_on_c, 0, 43, 0
2, 77565, Note_on_c, 0, 43, 71
2, 77637, Note_on_c, 0, 62, 0
2, 77641, Note_on_c, 0, 62, 75
2, 77698, Note_on_c, 0, 58, 0
2, 77698, Note_on_c, 0, 81, 0
2, 77704, Note_on_c, 0, 58, 76
2, 77707, Note_on_c, 0, 81, 96
2, 77715, Note_on_c, 0, 69, 83
2, 77829, Note_on_c, 0, 55, 0
2, 77834, Note_on_c, 0, 55, 81
2, 77898, Note_on_c, 0, 62, 0
2, 77903, Note_on_c, 0, 62, 77
2, 77959, Note_on_c, 0, 58, 0
2, 77967, Note_on_c, 0, 82, 0
2, 77969, Note_on_c, 0, 58, 80
2, 77975, Note_on_c, 0, 74, 0
2, 77975, Note_on_c, 0, 82, 95
2, 77979, Note_on_c, 0, 74, 75
2, 77981, Note_on_c, 0, 70, 86
2, 78021, Note_on_c, 0, 62, 0
2, 78030, Note_on_c, 0, 62, 68
2, 78097, Note_on_c, 0, 55, 0
2, 78103, Note_on_c, 0, 55, 70
2, 78151, Note_on_c, 0, 62, 0
2, 78158, Note_on_c, 0, 62, 75
2, 78220, Note_on_c, 0, 58, 0
2, 78220, Note_on_c, 0, 79, 0
2, 78228, Note_on_c, 0, 67, 0
2, 78228, Note_on_c, 0, 74, 0
2, 78231, Note_on_c, 0, 58, 72
2, 78232, Note_on_c, 0, 79, 88
2, 78234, Note_on_c, 0, 67, 86
2, 78238, Note_on_c, 0, 74, 77
2, 78274, Note_on_c, 0, 62, 0
2, 78282, Note_on_c, 0, 62, 71
2, 78343, Note_on_c, 0, 55, 0
2, 78352, Note_on_c, 0, 55, 76
2, 78420, Note_on_c, 0, 62, 0
2, 78424, Note_on_c, 0, 62, 81
2, 78458, Note_on_c, 0, 58, 0
2, 78468, Note_on_c, 0, 58, 62
2, 78474, Note_on_c, 0, 74, 0
2, 78474, Note_on_c, 0, 81, 0
2, 78480, Note_on_c, 0, 81, 94
2, 78481, Note_on_c, 0, 69, 0
2, 78484, Note_on_c, 0, 74, 68
2, 78489, Note_on_c, 0, 69, 87
2, 78558, Note_on_c, 0, 55, 0
2, 78562, Note_on_c, 0, 55, 77
2, 78650, Note_on_c, 0, 62, 0
2, 78660, Note_on_c, 0, 62, 73
2, 78673, Note_on_c, 0, 58, 0
2, 78678, Note_on_c, 0, 58, 66
2, 78720, Note_on_c, 0, 69, 0
2, 78727, Note_on_c, 0, 74, 0
2, 78731, Note_on_c, 0, 69, 75
2, 78731, Note_on_c, 0, 77, 92
2, 78731, Note_on_c, 0, 65, 83
2, 78732, Note_on_c, 0, 74, 68
2, 78739, Control_c, 0, 64, 0
2, 78758, Note_on_c, 0, 43, 0
2, 78760, Note_on_c, 0, 62, 0
2, 78760, Note_on_c, 0, 67, 0
2, 78761, Note_on_c, 0, 81, 0
2, 78762, Note_on_c, 0, 55, 0
2, 78762, Note_on_c, 0, 58, 0
2, 78762, Note_on_c, 0, 79, 0
2, 78762, Note_on_c, 0, 74, 0
2, 78762, Note_on_c, 0, 72, 0
2, 78763, Note_on_c, 0, 86, 0
2, 78763, Note_on_c, 0, 70, 0
2, 78764, Note_on_c, 0, 82, 0
2, 78764, Note_on_c, 0, 84, 0
2, 78789, Note_on_c, 0, 65, 0
2, 78789, Note_on_c, 0, 69, 0
2, 78819, Control_c, 0, 64, 127
2, 78825, Note_on_c, 0, 41, 80
2, 78929, Note_on_c, 0, 53, 80
2, 79009, Note_on_c, 0, 41, 0
2, 79012, Note_on_c, 0, 53, 0
2, 79013, Control_c, 0, 64, 0
2, 79019, Note_on_c, 0, 77, 0
2, 79051, Note_on_c, 0, 86, 105
2, 79053, Note_on_c, 0, 74, 105
2, 79062, Note_on_c, 0, 82, 88
2, 79066, Note_on_c, 0, 79, 80
2, 79070, Note_on_c, 0, 39, 90
2, 79071, Note_on_c, 0, 51, 86
2, 79080, Control_c, 0, 64, 127
2, 79211, Note_on_c, 0, 39, 0
2, 79222, Note_on_c, 0, 39, 72
2, 79303, Note_on_c, 0, 79, 0
2, 79311, Note_on_c, 0, 79, 98
2, 79319, Note_on_c, 0, 39, 0
2, 79319, Note_on_c, 0, 51, 0
2, 79322, Note_on_c, 0, 27, 82
2, 79322, Note_on_c, 0, 39, 73
2, 79326, Note_on_c, 0, 67, 74
2, 79330, Note_on_c, 0, 70, 72
2, 79354, Note_on_c, 0, 74, 0
2, 79355, Note_on_c, 0, 82, 0
2, 79355, Note_on_c, 0, 86, 0
2, 79357, Note_on_c, 0, 79, 0
2, 79359, Note_on_c, 0, 39, 0
2, 79362, Control_c, 0, 64, 0
2, 79363, Note_on_c, 0, 67, 0
2, 79365, Note_on_c, 0, 27, 0
2, 79372, Note_on_c, 0, 70, 0
2, 79418, Control_c, 0, 64, 127
2, 79439, Note_on_c, 0, 39, 82
2, 79441, Note_on_c, 0, 27, 98
2, 79442, Note_on_c, 0, 72, 95
2, 79446, Note_on_c, 0, 84, 81
2, 79448, Note_on_c, 0, 75, 85
2, 79656, Note_on_c, 0, 27, 0
2, 79695, Note_on_c, 0, 39, 0
2, 79696, Note_on_c, 0, 51, 79
2, 79698, Note_on_c, 0, 81, 91
2, 79699, Note_on_c, 0, 69, 83
2, 79700, Note_on_c, 0, 39, 68
2, 79771, Control_c, 0, 64, 0
2, 79774, Note_on_c, 0, 39, 0
2, 79774, Note_on_c, 0, 81, 0
2, 79774, Note_on_c, 0, 72, 0
2, 79774, Note_on_c, 0, 84, 0
2, 79775, Note_on_c, 0, 69, 0
2, 79775, Note_on_c, 0, 51, 0
2, 79775, Note_on_c, 0, 75, 0
2, 79814, Note_on_c, 0, 82, 102
2, 79815, Note_on_c, 0, 79, 89
2, 79815, Note_on_c, 0, 75, 94
2, 79816, Note_on_c, 0, 70, 100
2, 79819, Note_on_c, 0, 39, 91
2, 79820, Note_on_c, 0, 51, 99
2, 79841, Control_c, 0, 64, 127
2, 80033, Note_on_c, 0, 39, 0
2, 80043, Note_on_c, 0, 39, 71
2, 80068, Note_on_c, 0, 46, 81
2, 80117, Note_on_c, 0, 51, 0
2, 80127, Note_on_c, 0, 63, 73
2, 80129, Note_on_c, 0, 51, 70
2, 80144, Note_on_c, 0, 55, 75
2, 80151, Note_on_c, 0, 58, 63
2, 80183, Note_on_c, 0, 67, 77
2, 80209, Note_on_c, 0, 70, 0
2, 80219, Note_on_c, 0, 70, 66
2, 80240, Note_on_c, 0, 75, 0
2, 80245, Note_on_c, 0, 75, 85
2, 80325, Note_on_c, 0, 79, 0
2, 80332, Note_on_c, 0, 79, 84
2, 80386, Note_on_c, 0, 82, 0
2, 80393, Note_on_c, 0, 82, 82
2, 80442, Note_on_c, 0, 87, 86
2, 80475, Note_on_c, 0, 91, 90
2, 80531, Note_on_c, 0, 41, 82
2, 80553, Note_on_c, 0, 55, 0
2, 80554, Note_on_c, 0, 51, 0
2, 80555, Note_on_c, 0, 39, 0
2, 80556, Note_on_c, 0, 58, 0
2, 80556, Note_on_c, 0, 79, 0
2, 80556, Note_on_c, 0, 67, 0
2, 80556, Note_on_c, 0, 82, 0
2, 80556, Note_on_c, 0, 46, 0
2, 80556, Note_on_c, 0, 70, 0
2, 80556, Control_c, 0, 64, 0
2, 80557, Note_on_c, 0, 63, 0
2, 80558, Note_on_c, 0, 75, 0
2, 80558, Note_on_c, 0, 87, 0
2, 80559, Note_on_c, 0, 91, 0
2, 80566, Note_on_c, 0, 48, 65
2, 80601, Note_on_c, 0, 41, 0
2, 80603, Note_on_c, 0, 54, 90
2, 80624, Control_c, 0, 64, 127
2, 80642, Note_on_c, 0, 57, 78
2, 80689, Note_on_c, 0, 69, 84
2, 80729, Note_on_c, 0, 72, 82
2, 80782, Note_on_c, 0, 77, 64
2, 80782, Note_on_c, 0, 75, 63
2, 80838, Note_on_c, 0, 81, 80
2, 80898, Note_on_c, 0, 84, 72
2, 80928, Note_on_c, 0, 89, 95
2, 81037, Control_c, 0, 64, 0
2, 81039, Note_on_c, 0, 48, 0
2, 81041, Note_on_c, 0, 77, 0
2, 81042, Note_on_c, 0, 72, 0
2, 81042, Note_on_c, 0, 54, 0
2, 81042, Note_on_c, 0, 89, 0
2, 81042, Note_on_c, 0, 57, 0
2, 81042, Note_on_c, 0, 69, 0
2, 81042, Note_on_c, 0, 75, 0
2, 81043, Note_on_c, 0, 84, 0
2, 81043, Note_on_c, 0, 81, 0
2, 81045, Note_on_c, 0, 86, 100
2, 81049, Note_on_c, 0, 82, 100
2, 81051, Note_on_c, 0, 91, 104
2, 81052, Note_on_c, 0, 43, 93
2, 81055, Note_on_c, 0, 50, 92
2, 81123, Control_c, 0, 64, 127
2, 81239, Note_on_c, 0, 43, 0
2, 81320, Note_on_c, 0, 103, 90
2, 81377, Note_on_c, 0, 91, 0
2, 81383, Note_on_c, 0, 94, 94
2, 81386, Note_on_c, 0, 91, 83
2, 81408, Note_on_c, 0, 50, 0
2, 81420, Note_on_c, 0, 98, 89
2, 81469, Note_on_c, 0, 86, 0
2, 81480, Note_on_c, 0, 86, 88
2, 81515, Note_on_c, 0, 98, 0
2, 81523, Note_on_c, 0, 94, 0
2, 81525, Note_on_c, 0, 98, 90
2, 81527, Note_on_c, 0, 94, 85
2, 81576, Note_on_c, 0, 86, 0
2, 81587, Note_on_c, 0, 86, 83
2, 81600, Note_on_c, 0, 82, 0
2, 81607, Note_on_c, 0, 82, 73
2, 81646, Note_on_c, 0, 94, 0
2, 81652, Note_on_c, 0, 94, 96
2, 81653, Note_on_c, 0, 91, 0
2, 81658, Note_on_c, 0, 91, 82
2, 81691, Note_on_c, 0, 80, 66
2, 81692, Note_on_c, 0, 82, 0
2, 81702, Note_on_c, 0, 82, 82
2, 81709, Note_on_c, 0, 79, 70
2, 81745, Note_on_c, 0, 91, 0
2, 81753, Note_on_c, 0, 86, 0
2, 81757, Note_on_c, 0, 91, 90
2, 81764, Note_on_c, 0, 86, 86
2, 81807, Note_on_c, 0, 79, 0
2, 81812, Note_on_c, 0, 79, 66
2, 81824, Note_on_c, 0, 74, 85
2, 81868, Note_on_c, 0, 82, 0
2, 81868, Note_on_c, 0, 86, 0
2, 81877, Note_on_c, 0, 86, 94
2, 81879, Note_on_c, 0, 82, 80
2, 81937, Note_on_c, 0, 74, 0
2, 81945, Note_on_c, 0, 74, 61
2, 81946, Note_on_c, 0, 70, 76
2, 81999, Note_on_c, 0, 79, 0
2, 81999, Note_on_c, 0, 82, 0
2, 82005, Note_on_c, 0, 82, 74
2, 82010, Note_on_c, 0, 79, 70
2, 82045, Note_on_c, 0, 70, 0
2, 82050, Note_on_c, 0, 70, 80
2, 82051, Note_on_c, 0, 67, 84
2, 82099, Note_on_c, 0, 79, 0
2, 82106, Note_on_c, 0, 79, 83
2, 82106, Note_on_c, 0, 74, 0
2, 82115, Note_on_c, 0, 74, 85
2, 82168, Note_on_c, 0, 67, 0
2, 82173, Note_on_c, 0, 67, 76
2, 82178, Note_on_c, 0, 62, 83
2, 82222, Note_on_c, 0, 74, 0
2, 82229, Note_on_c, 0, 70, 0
2, 82233, Note_on_c, 0, 74, 92
2, 82240, Note_on_c, 0, 70, 81
2, 82291, Note_on_c, 0, 58, 89
2, 82360, Note_on_c, 0, 70, 0
2, 82364, Note_on_c, 0, 70, 79
2, 82368, Note_on_c, 0, 67, 0
2, 82373, Note_on_c, 0, 67, 77
2, 82398, Note_on_c, 0, 58, 0
2, 82402, Note_on_c, 0, 55, 76
2, 82407, Note_on_c, 0, 58, 71
2, 82460, Note_on_c, 0, 62, 0
2, 82460, Note_on_c, 0, 67, 0
2, 82465, Note_on_c, 0, 67, 88
2, 82471, Note_on_c, 0, 62, 85
2, 82490, Note_on_c, 0, 55, 0
2, 82499, Note_on_c, 0, 55, 71
2, 82524, Note_on_c, 0, 50, 80
2, 82583, Note_on_c, 0, 58, 0
2, 82583, Note_on_c, 0, 62, 0
2, 82588, Note_on_c, 0, 58, 79
2, 82591, Note_on_c, 0, 62, 97
2, 82629, Note_on_c, 0, 55, 0
2, 82630, Note_on_c, 0, 46, 78
2, 82636, Note_on_c, 0, 43, 79
2, 82639, Note_on_c, 0, 55, 71
2, 82713, Note_on_c, 0, 58, 0
2, 82718, Note_on_c, 0, 58, 86
2, 82721, Note_on_c, 0, 55, 0
2, 82732, Note_on_c, 0, 55, 71
2, 82828, Note_on_c, 0, 50, 0
2, 82828, Note_on_c, 0, 55, 0
2, 82833, Note_on_c, 0, 55, 83
2, 82839, Note_on_c, 0, 50, 84
2, 82864, Note_on_c, 0, 38, 70
2, 82940, Note_on_c, 0, 80, 0
2, 82940, Note_on_c, 0, 79, 0
2, 82940, Note_on_c, 0, 94, 0
2, 82941, Note_on_c, 0, 46, 0
2, 82941, Note_on_c, 0, 82, 0
2, 82941, Note_on_c, 0, 38, 0
2, 82941, Note_on_c, 0, 67, 0
2, 82941, Note_on_c, 0, 86, 0
2, 82941, Note_on_c, 0, 62, 0
2, 82941, Note_on_c, 0, 55, 0
2, 82941, Note_on_c, 0, 70, 0
2, 82942, Note_on_c, 0, 58, 0
2, 82944, Control_c, 0, 64, 0
2, 82951, Note_on_c, 0, 74, 0
2, 82951, Note_on_c, 0, 103, 0
2, 82959, Note_on_c, 0, 50, 0
2, 82959, Note_on_c, 0, 98, 0
2, 82967, Note_on_c, 0, 91, 0
2, 82970, Note_on_c, 0, 31, 96
2, 83013, Control_c, 0, 64, 127
2, 83515, Note_on_c, 0, 91, 109
2, 83520, Note_on_c, 0, 79, 101
2, 83521, Note_on_c, 0, 82, 103
2, 83523, Note_on_c, 0, 86, 94
2, 83523, Note_on_c, 0, 55, 92
2, 83523, Note_on_c, 0, 62, 91
2, 83525, Note_on_c, 0, 58, 97
2, 84180, Note_on_c, 0, 31, 0
2, 84180, Note_on_c, 0, 43, 0
2, 84180, Note_on_c, 0, 55, 0
2, 84181, Note_on_c, 0, 67, 104
2, 84184, Note_on_c, 0, 31, 85
2, 84184, Note_on_c, 0, 43, 89
2, 84184, Note_on_c, 0, 55, 98
2, 84218, Note_on_c, 0, 62, 0
2, 84221, Note_on_c, 0, 58, 0
2, 84222, Control_c, 0, 64, 0
2, 84222, Note_on_c, 0, 91, 0
2, 84222, Note_on_c, 0, 82, 0
2, 84224, Note_on_c, 0, 86, 0
2, 84249, Note_on_c, 0, 79, 0
2, 85032, Control_c, 0, 64, 127
2, 86123, Control_c, 0, 64, 0
2, 86141, Note_on_c, 0, 31, 0
2, 86154, Note_on_c, 0, 67, 0
2, 86161, Note_on_c, 0, 55, 0
2, 86169, Note_on_c, 0, 43, 0
2, 86170, End_track
0, 0, End_of_file
