0, 0, Header, 1, 2, 384
1, 0, Start_track
1, 0, Tempo, 500000
1, 0, Time_signature, 4, 2, 24, 8
1, 1, End_track
2, 0, Start_track
2, 637, Control_c, 0, 64, 127
2, 1059, Control_c, 0, 64, 0
2, 1079, Note_on_c, 0, 25, 78
2, 1084, Note_on_c, 0, 37, 80
2, 1144, Note_on_c, 0, 37, 0
2, 1148, Note_on_c, 0, 37, 88
2, 1190, Control_c, 0, 64, 127
2, 1215, Note_on_c, 0, 32, 84
2, 1217, Note_on_c, 0, 77, 96
2, 1221, Note_on_c, 0, 32, 0
2, 1222, Note_on_c, 0, 75, 103
2, 1223, Note_on_c, 0, 80, 100
2, 1223, Note_on_c, 0, 87, 104
2, 1232, Note_on_c, 0, 85, 92
2, 1320, Note_on_c, 0, 87, 0
2, 1328, Note_on_c, 0, 75, 0
2, 1331, Note_on_c, 0, 87, 104
2, 1333, Note_on_c, 0, 75, 96
2, 1359, Note_on_c, 0, 25, 0
2, 1360, Note_on_c, 0, 37, 0
2, 1362, Note_on_c, 0, 77, 0
2, 1362, Note_on_c, 0, 80, 0
2, 1363, Note_on_c, 0, 85, 0
2, 1372, Control_c, 0, 64, 0
2, 1382, Note_on_c, 0, 75, 0
2, 1397, Note_on_c, 0, 87, 0
2, 1468, Note_on_c, 0, 90, 106
2, 1470, Note_on_c, 0, 78, 95
2, 1503, Note_on_c, 0, 78, 0
2, 1543, Note_on_c, 0, 90, 0
2, 1593, Note_on_c, 0, 89, 108
2, 1595, Note_on_c, 0, 77, 95
2, 1658, Note_on_c, 0, 77, 0
2, 1766, Note_on_c, 0, 89, 0
2, 1834, Note_on_c, 0, 85, 104
2, 1838, Note_on_c, 0, 44, 87
2, 1838, Note_on_c, 0, 73, 96
2, 1840, Note_on_c, 0, 41, 82
2, 1843, Note_on_c, 0, 49, 89
2, 1850, Control_c, 0, 64, 127
2, 1939, Control_c, 0, 64, 0
2, 1968, Note_on_c, 0, 37, 87
2, 1989, Note_on_c, 0, 73, 0
2, 1991, Note_on_c, 0, 41, 0
2, 1992, Note_on_c, 0, 49, 0
2, 1993, Note_on_c, 0, 85, 0
2, 1994, Note_on_c, 0, 44, 0
2, 1999, Note_on_c, 0, 37, 0
2, 2098, Note_on_c, 0, 87, 107
2, 2100, Note_on_c, 0, 75, 105
2, 2101, Note_on_c, 0, 78, 97
2, 2101, Note_on_c, 0, 30, 93
2, 2101, Note_on_c, 0, 42, 100
2, 2107, Note_on_c, 0, 82, 90
2, 2135, Control_c, 0, 64, 127
2, 2334, Note_on_c, 0, 42, 0
2, 2342, Note_on_c, 0, 75, 0
2, 2342, Note_on_c, 0, 87, 0
2, 2343, Note_on_c, 0, 42, 82
2, 2348, Note_on_c, 0, 87, 98
2, 2352, Note_on_c, 0, 75, 90
2, 2446, Note_on_c, 0, 49, 85
2, 2472, Note_on_c, 0, 78, 0
2, 2475, Note_on_c, 0, 90, 107
2, 2477, Note_on_c, 0, 78, 100
2, 2486, Control_c, 0, 64, 0
2, 2504, Note_on_c, 0, 49, 0
2, 2506, Note_on_c, 0, 87, 0
2, 2506, Note_on_c, 0, 75, 0
2, 2506, Note_on_c, 0, 82, 0
2, 2507, Note_on_c, 0, 42, 0
2, 2507, Note_on_c, 0, 78, 0
2, 2511, Note_on_c, 0, 30, 0
2, 2549, Note_on_c, 0, 90, 0
2, 2607, Note_on_c, 0, 89, 111
2, 2607, Note_on_c, 0, 44, 101
2, 2607, Note_on_c, 0, 32, 93
2, 2607, Note_on_c, 0, 77, 102
2, 2641, Control_c, 0, 64, 127
2, 2849, Note_on_c, 0, 44, 0
2, 2853, Note_on_c, 0, 87, 104
2, 2853, Note_on_c, 0, 75, 98
2, 2858, Note_on_c, 0, 44, 79
2, 2976, Note_on_c, 0, 51, 84
2, 2980, Note_on_c, 0, 56, 82
2, 2983, Note_on_c, 0, 84, 104
2, 2983, Note_on_c, 0, 72, 102
2, 3130, Note_on_c, 0, 89, 0
2, 3131, Note_on_c, 0, 32, 0
2, 3131, Note_on_c, 0, 77, 0
2, 3132, Note_on_c, 0, 87, 0
2, 3132, Note_on_c, 0, 44, 0
2, 3134, Note_on_c, 0, 75, 0
2, 3134, Note_on_c, 0, 51, 0
2, 3134, Note_on_c, 0, 72, 0
2, 3134, Note_on_c, 0, 84, 0
2, 3135, Control_c, 0, 64, 0
2, 3136, Note_on_c, 0, 56, 0
2, 3259, Note_on_c, 0, 78, 110
2, 3260, Note_on_c, 0, 49, 99
2, 3261, Note_on_c, 0, 37, 94
2, 3262, Note_on_c, 0, 70, 102
2, 3265, Note_on_c, 0, 66, 99
2, 3302, Control_c, 0, 64, 127
2, 3506, Note_on_c, 0, 61, 90
2, 3511, Note_on_c, 0, 75, 94
2, 3512, Note_on_c, 0, 56, 82
2, 3513, Note_on_c, 0, 53, 76
2, 3624, Note_on_c, 0, 49, 0
2, 3632, Note_on_c, 0, 77, 99
2, 3636, Note_on_c, 0, 49, 79
2, 3755, Note_on_c, 0, 53, 0
2, 3760, Note_on_c, 0, 53, 82
2, 3878, Note_on_c, 0, 49, 0
2, 3888, Note_on_c, 0, 49, 79
2, 3888, Note_on_c, 0, 73, 103
2, 4008, Note_on_c, 0, 53, 0
2, 4008, Note_on_c, 0, 56, 0
2, 4008, Note_on_c, 0, 61, 0
2, 4019, Note_on_c, 0, 53, 88
2, 4020, Note_on_c, 0, 56, 90
2, 4020, Note_on_c, 0, 61, 96
2, 4131, Note_on_c, 0, 49, 0
2, 4131, Note_on_c, 0, 75, 0
2, 4140, Note_on_c, 0, 49, 76
2, 4142, Note_on_c, 0, 75, 91
2, 4262, Note_on_c, 0, 53, 0
2, 4270, Note_on_c, 0, 53, 80
2, 4392, Note_on_c, 0, 49, 0
2, 4395, Note_on_c, 0, 72, 97
2, 4398, Note_on_c, 0, 49, 84
2, 4523, Note_on_c, 0, 53, 0
2, 4523, Note_on_c, 0, 56, 0
2, 4523, Note_on_c, 0, 61, 0
2, 4530, Note_on_c, 0, 61, 95
2, 4531, Note_on_c, 0, 53, 83
2, 4532, Note_on_c, 0, 56, 86
2, 4638, Note_on_c, 0, 73, 0
2, 4646, Note_on_c, 0, 49, 0
2, 4650, Note_on_c, 0, 73, 102
2, 4652, Note_on_c, 0, 49, 87
2, 4753, Note_on_c, 0, 53, 0
2, 4760, Note_on_c, 0, 53, 74
2, 4776, Note_on_c, 0, 56, 0
2, 4787, Note_on_c, 0, 56, 71
2, 4876, Note_on_c, 0, 49, 0
2, 4887, Note_on_c, 0, 49, 84
2, 4910, Note_on_c, 0, 68, 98
2, 5042, Note_on_c, 0, 48, 99
2, 5048, Note_on_c, 0, 36, 89
2, 5162, Note_on_c, 0, 44, 93
2, 5180, Note_on_c, 0, 75, 0
2, 5180, Note_on_c, 0, 49, 0
2, 5180, Note_on_c, 0, 48, 0
2, 5180, Note_on_c, 0, 53, 0
2, 5181, Note_on_c, 0, 56, 0
2, 5181, Note_on_c, 0, 68, 0
2, 5181, Note_on_c, 0, 72, 0
2, 5182, Note_on_c, 0, 78, 0
2, 5182, Note_on_c, 0, 77, 0
2, 5183, Note_on_c, 0, 36, 0
2, 5186, Control_c, 0, 64, 0
2, 5191, Note_on_c, 0, 61, 0
2, 5191, Note_on_c, 0, 70, 0
2, 5199, Note_on_c, 0, 37, 0
2, 5199, Note_on_c, 0, 66, 0
2, 5199, Note_on_c, 0, 73, 0
2, 5210, Note_on_c, 0, 44, 0
2, 5289, Note_on_c, 0, 78, 105
2, 5295, Note_on_c, 0, 46, 101
2, 5296, Note_on_c, 0, 34, 96
2, 5337, Control_c, 0, 64, 127
2, 5534, Note_on_c, 0, 56, 87
2, 5542, Note_on_c, 0, 61, 90
2, 5545, Note_on_c, 0, 75, 97
2, 5547, Note_on_c, 0, 53, 78
2, 5660, Note_on_c, 0, 46, 0
2, 5664, Note_on_c, 0, 77, 95
2, 5667, Note_on_c, 0, 46, 85
2, 5775, Note_on_c, 0, 53, 0
2, 5781, Note_on_c, 0, 58, 66
2, 5781, Note_on_c, 0, 53, 81
2, 5905, Note_on_c, 0, 46, 0
2, 5913, Note_on_c, 0, 46, 87
2, 5917, Note_on_c, 0, 73, 103
2, 6036, Note_on_c, 0, 53, 0
2, 6036, Note_on_c, 0, 56, 0
2, 6036, Note_on_c, 0, 61, 0
2, 6041, Note_on_c, 0, 56, 86
2, 6041, Note_on_c, 0, 61, 94
2, 6047, Note_on_c, 0, 53, 82
2, 6159, Note_on_c, 0, 46, 0
2, 6159, Note_on_c, 0, 75, 0
2, 6163, Note_on_c, 0, 75, 95
2, 6169, Note_on_c, 0, 46, 88
2, 6282, Note_on_c, 0, 53, 0
2, 6286, Note_on_c, 0, 53, 81
2, 6403, Note_on_c, 0, 72, 94
2, 6405, Note_on_c, 0, 46, 0
2, 6410, Note_on_c, 0, 46, 88
2, 6420, Note_on_c, 0, 58, 0
2, 6528, Note_on_c, 0, 56, 0
2, 6528, Note_on_c, 0, 61, 0
2, 6535, Note_on_c, 0, 53, 0
2, 6539, Note_on_c, 0, 56, 85
2, 6539, Note_on_c, 0, 61, 95
2, 6540, Note_on_c, 0, 53, 83
2, 6643, Note_on_c, 0, 73, 0
2, 6650, Note_on_c, 0, 46, 0
2, 6651, Note_on_c, 0, 73, 101
2, 6661, Note_on_c, 0, 46, 88
2, 6773, Note_on_c, 0, 53, 0
2, 6778, Note_on_c, 0, 53, 87
2, 6916, Note_on_c, 0, 68, 102
2, 6916, Note_on_c, 0, 32, 88
2, 7025, Note_on_c, 0, 44, 88
2, 7134, Note_on_c, 0, 32, 0
2, 7139, Note_on_c, 0, 32, 78
2, 7177, Control_c, 0, 64, 0
2, 7179, Note_on_c, 0, 46, 0
2, 7180, Note_on_c, 0, 78, 0
2, 7180, Note_on_c, 0, 53, 0
2, 7181, Note_on_c, 0, 75, 0
2, 7181, Note_on_c, 0, 32, 0
2, 7181, Note_on_c, 0, 72, 0
2, 7182, Note_on_c, 0, 44, 0
2, 7182, Note_on_c, 0, 77, 0
2, 7182, Note_on_c, 0, 68, 0
2, 7182, Note_on_c, 0, 73, 0
2, 7188, Note_on_c, 0, 34, 0
2, 7196, Note_on_c, 0, 56, 0
2, 7196, Note_on_c, 0, 61, 0
2, 7293, Note_on_c, 0, 80, 106
2, 7297, Note_on_c, 0, 68, 103
2, 7299, Note_on_c, 0, 30, 90
2, 7299, Note_on_c, 0, 73, 106
2, 7299, Note_on_c, 0, 42, 96
2, 7301, Note_on_c, 0, 77, 92
2, 7333, Note_on_c, 0, 42, 0
2, 7349, Note_on_c, 0, 68, 0
2, 7349, Control_c, 0, 64, 127
2, 7430, Note_on_c, 0, 42, 39
2, 7549, Note_on_c, 0, 77, 0
2, 7553, Note_on_c, 0, 77, 98
2, 7554, Note_on_c, 0, 58, 88
2, 7558, Note_on_c, 0, 49, 80
2, 7664, Note_on_c, 0, 42, 0
2, 7674, Note_on_c, 0, 78, 100
2, 7676, Note_on_c, 0, 42, 89
2, 7795, Note_on_c, 0, 49, 0
2, 7805, Note_on_c, 0, 49, 75
2, 7910, Note_on_c, 0, 42, 0
2, 7915, Note_on_c, 0, 42, 85
2, 7925, Note_on_c, 0, 75, 94
2, 8040, Note_on_c, 0, 49, 0
2, 8040, Note_on_c, 0, 58, 0
2, 8047, Note_on_c, 0, 49, 91
2, 8048, Note_on_c, 0, 58, 94
2, 8050, Note_on_c, 0, 54, 77
2, 8056, Note_on_c, 0, 54, 0
2, 8163, Note_on_c, 0, 42, 0
2, 8163, Note_on_c, 0, 77, 0
2, 8169, Note_on_c, 0, 42, 85
2, 8173, Note_on_c, 0, 77, 98
2, 8279, Note_on_c, 0, 49, 0
2, 8285, Note_on_c, 0, 49, 79
2, 8417, Note_on_c, 0, 42, 0
2, 8417, Note_on_c, 0, 73, 0
2, 8427, Note_on_c, 0, 73, 105
2, 8428, Note_on_c, 0, 42, 86
2, 8540, Note_on_c, 0, 49, 0
2, 8547, Note_on_c, 0, 58, 0
2, 8550, Note_on_c, 0, 49, 90
2, 8552, Note_on_c, 0, 58, 88
2, 8663, Note_on_c, 0, 42, 0
2, 8670, Note_on_c, 0, 75, 0
2, 8674, Note_on_c, 0, 42, 86
2, 8675, Note_on_c, 0, 75, 94
2, 8801, Note_on_c, 0, 49, 0
2, 8806, Note_on_c, 0, 49, 77
2, 8924, Note_on_c, 0, 42, 0
2, 8928, Note_on_c, 0, 72, 97
2, 8929, Note_on_c, 0, 42, 83
2, 9047, Note_on_c, 0, 49, 0
2, 9047, Note_on_c, 0, 58, 0
2, 9055, Note_on_c, 0, 58, 93
2, 9057, Note_on_c, 0, 49, 87
2, 9139, Note_on_c, 0, 42, 0
2, 9143, Note_on_c, 0, 42, 91
2, 9187, Control_c, 0, 64, 0
2, 9199, Note_on_c, 0, 58, 0
2, 9201, Note_on_c, 0, 72, 0
2, 9201, Note_on_c, 0, 42, 0
2, 9201, Note_on_c, 0, 73, 0
2, 9202, Note_on_c, 0, 49, 0
2, 9203, Note_on_c, 0, 75, 0
2, 9203, Note_on_c, 0, 80, 0
2, 9203, Note_on_c, 0, 77, 0
2, 9204, Note_on_c, 0, 78, 0
2, 9216, Note_on_c, 0, 30, 0
2, 9303, Note_on_c, 0, 80, 107
2, 9306, Note_on_c, 0, 72, 103
2, 9306, Note_on_c, 0, 68, 104
2, 9307, Note_on_c, 0, 75, 94
2, 9312, Note_on_c, 0, 44, 95
2, 9315, Note_on_c, 0, 32, 90
2, 9369, Control_c, 0, 64, 127
2, 9549, Note_on_c, 0, 60, 87
2, 9550, Note_on_c, 0, 51, 83
2, 9550, Note_on_c, 0, 77, 91
2, 9669, Note_on_c, 0, 44, 0
2, 9677, Note_on_c, 0, 78, 100
2, 9679, Note_on_c, 0, 44, 86
2, 9792, Note_on_c, 0, 51, 0
2, 9796, Note_on_c, 0, 51, 85
2, 9922, Note_on_c, 0, 44, 0
2, 9922, Note_on_c, 0, 75, 0
2, 9926, Note_on_c, 0, 44, 90
2, 9927, Note_on_c, 0, 75, 97
2, 10030, Note_on_c, 0, 51, 0
2, 10035, Note_on_c, 0, 51, 81
2, 10039, Note_on_c, 0, 56, 84
2, 10132, Note_on_c, 0, 80, 0
2, 10133, Note_on_c, 0, 75, 0
2, 10133, Note_on_c, 0, 77, 0
2, 10133, Note_on_c, 0, 72, 0
2, 10133, Note_on_c, 0, 78, 0
2, 10133, Note_on_c, 0, 44, 0
2, 10133, Note_on_c, 0, 51, 0
2, 10134, Note_on_c, 0, 56, 0
2, 10134, Control_c, 0, 64, 0
2, 10134, Note_on_c, 0, 60, 0
2, 10137, Note_on_c, 0, 68, 0
2, 10145, Note_on_c, 0, 32, 0
2, 10180, Note_on_c, 0, 89, 108
2, 10181, Note_on_c, 0, 80, 106
2, 10181, Note_on_c, 0, 77, 100
2, 10182, Note_on_c, 0, 85, 102
2, 10184, Note_on_c, 0, 44, 95
2, 10186, Note_on_c, 0, 32, 88
2, 10220, Note_on_c, 0, 44, 0
2, 10221, Note_on_c, 0, 32, 0
2, 10222, Note_on_c, 0, 89, 0
2, 10245, Note_on_c, 0, 77, 0
2, 10344, Note_on_c, 0, 80, 0
2, 10391, Note_on_c, 0, 85, 0
2, 10425, Note_on_c, 0, 87, 105
2, 10426, Note_on_c, 0, 75, 100
2, 10427, Note_on_c, 0, 34, 90
2, 10430, Note_on_c, 0, 46, 91
2, 10458, Note_on_c, 0, 46, 0
2, 10463, Note_on_c, 0, 75, 0
2, 10463, Note_on_c, 0, 34, 0
2, 10466, Note_on_c, 0, 87, 0
2, 10674, Note_on_c, 0, 85, 104
2, 10675, Note_on_c, 0, 48, 83
2, 10676, Note_on_c, 0, 36, 76
2, 10677, Note_on_c, 0, 73, 105
2, 10715, Note_on_c, 0, 48, 0
2, 10715, Note_on_c, 0, 36, 0
2, 10767, Note_on_c, 0, 73, 0
2, 10821, Note_on_c, 0, 85, 0
2, 10924, Note_on_c, 0, 72, 99
2, 10924, Note_on_c, 0, 84, 105
2, 10924, Note_on_c, 0, 44, 85
2, 10974, Control_c, 0, 64, 127
2, 11044, Note_on_c, 0, 32, 76
2, 11190, Note_on_c, 0, 54, 70
2, 11249, Note_on_c, 0, 61, 73
2, 11258, Control_c, 0, 64, 0
2, 11276, Note_on_c, 0, 32, 0
2, 11276, Note_on_c, 0, 44, 0
2, 11278, Note_on_c, 0, 54, 0
2, 11278, Note_on_c, 0, 72, 0
2, 11279, Note_on_c, 0, 84, 0
2, 11285, Note_on_c, 0, 66, 97
2, 11301, Note_on_c, 0, 37, 86
2, 11301, Note_on_c, 0, 49, 81
2, 11384, Note_on_c, 0, 37, 0
2, 11389, Note_on_c, 0, 49, 0
2, 11412, Note_on_c, 0, 44, 75
2, 11435, Note_on_c, 0, 61, 0
2, 11507, Note_on_c, 0, 44, 0
2, 11547, Note_on_c, 0, 37, 63
2, 11548, Note_on_c, 0, 49, 62
2, 11549, Note_on_c, 0, 63, 77
2, 11554, Note_on_c, 0, 66, 0
2, 11584, Note_on_c, 0, 49, 0
2, 11585, Note_on_c, 0, 37, 0
2, 11665, Note_on_c, 0, 65, 83
2, 11665, Note_on_c, 0, 63, 0
2, 11667, Note_on_c, 0, 44, 68
2, 11700, Note_on_c, 0, 44, 0
2, 11793, Note_on_c, 0, 37, 65
2, 11794, Note_on_c, 0, 49, 55
2, 11830, Note_on_c, 0, 37, 0
2, 11842, Note_on_c, 0, 49, 0
2, 11921, Note_on_c, 0, 44, 62
2, 11924, Note_on_c, 0, 65, 0
2, 11930, Note_on_c, 0, 61, 81
2, 11960, Note_on_c, 0, 44, 0
2, 12011, Note_on_c, 0, 61, 0
2, 12047, Note_on_c, 0, 37, 61
2, 12051, Note_on_c, 0, 49, 54
2, 12079, Note_on_c, 0, 37, 0
2, 12096, Note_on_c, 0, 49, 0
2, 12169, Note_on_c, 0, 44, 60
2, 12170, Note_on_c, 0, 32, 50
2, 12171, Note_on_c, 0, 63, 80
2, 12180, Note_on_c, 0, 32, 0
2, 12207, Note_on_c, 0, 44, 0
2, 12280, Note_on_c, 0, 49, 62
2, 12284, Note_on_c, 0, 37, 60
2, 12372, Note_on_c, 0, 49, 0
2, 12397, Note_on_c, 0, 37, 0
2, 12406, Note_on_c, 0, 44, 61
2, 12427, Note_on_c, 0, 60, 81
2, 12460, Note_on_c, 0, 44, 0
2, 12467, Note_on_c, 0, 63, 0
2, 12468, Note_on_c, 0, 60, 0
2, 12543, Note_on_c, 0, 49, 56
2, 12545, Note_on_c, 0, 37, 59
2, 12577, Note_on_c, 0, 49, 0
2, 12579, Note_on_c, 0, 37, 0
2, 12660, Note_on_c, 0, 44, 64
2, 12668, Note_on_c, 0, 61, 79
2, 12770, Note_on_c, 0, 44, 0
2, 12791, Note_on_c, 0, 49, 64
2, 12794, Note_on_c, 0, 37, 49
2, 12915, Note_on_c, 0, 56, 87
2, 12919, Note_on_c, 0, 44, 60
2, 12923, Note_on_c, 0, 49, 0
2, 12928, Note_on_c, 0, 61, 0
2, 12948, Note_on_c, 0, 37, 0
2, 13038, Note_on_c, 0, 48, 72
2, 13040, Note_on_c, 0, 36, 63
2, 13094, Note_on_c, 0, 44, 0
2, 13157, Note_on_c, 0, 44, 80
2, 13186, Note_on_c, 0, 56, 0
2, 13191, Note_on_c, 0, 56, 82
2, 13206, Note_on_c, 0, 36, 0
2, 13249, Note_on_c, 0, 61, 78
2, 13255, Note_on_c, 0, 48, 0
2, 13285, Note_on_c, 0, 63, 65
2, 13290, Note_on_c, 0, 46, 82
2, 13290, Note_on_c, 0, 66, 101
2, 13292, Note_on_c, 0, 34, 81
2, 13294, Note_on_c, 0, 44, 0
2, 13315, Note_on_c, 0, 56, 0
2, 13344, Note_on_c, 0, 34, 0
2, 13370, Note_on_c, 0, 46, 0
2, 13418, Note_on_c, 0, 41, 80
2, 13482, Note_on_c, 0, 41, 0
2, 13547, Note_on_c, 0, 63, 0
2, 13552, Note_on_c, 0, 46, 73
2, 13555, Note_on_c, 0, 34, 76
2, 13558, Note_on_c, 0, 63, 83
2, 13585, Note_on_c, 0, 66, 0
2, 13585, Note_on_c, 0, 61, 0
2, 13590, Note_on_c, 0, 46, 0
2, 13596, Note_on_c, 0, 34, 0
2, 13621, Note_on_c, 0, 63, 0
2, 13673, Note_on_c, 0, 41, 71
2, 13673, Note_on_c, 0, 65, 92
2, 13674, Note_on_c, 0, 53, 71
2, 13718, Note_on_c, 0, 41, 0
2, 13762, Note_on_c, 0, 53, 0
2, 13791, Note_on_c, 0, 46, 66
2, 13794, Note_on_c, 0, 34, 64
2, 13827, Note_on_c, 0, 46, 0
2, 13831, Note_on_c, 0, 34, 0
2, 13907, Note_on_c, 0, 41, 72
2, 13912, Note_on_c, 0, 53, 73
2, 13924, Note_on_c, 0, 61, 89
2, 13948, Note_on_c, 0, 65, 0
2, 13951, Note_on_c, 0, 41, 0
2, 13977, Note_on_c, 0, 53, 0
2, 14020, Note_on_c, 0, 61, 0
2, 14034, Note_on_c, 0, 46, 69
2, 14035, Note_on_c, 0, 34, 65
2, 14084, Note_on_c, 0, 34, 0
2, 14088, Note_on_c, 0, 46, 0
2, 14154, Note_on_c, 0, 41, 68
2, 14161, Note_on_c, 0, 63, 84
2, 14206, Note_on_c, 0, 41, 0
2, 14272, Note_on_c, 0, 46, 71
2, 14273, Note_on_c, 0, 34, 70
2, 14353, Note_on_c, 0, 46, 0
2, 14376, Note_on_c, 0, 34, 0
2, 14396, Note_on_c, 0, 41, 72
2, 14412, Note_on_c, 0, 60, 89
2, 14450, Note_on_c, 0, 63, 0
2, 14451, Note_on_c, 0, 41, 0
2, 14456, Note_on_c, 0, 60, 0
2, 14519, Note_on_c, 0, 46, 67
2, 14526, Note_on_c, 0, 34, 63
2, 14579, Note_on_c, 0, 34, 0
2, 14622, Note_on_c, 0, 46, 0
2, 14650, Note_on_c, 0, 41, 64
2, 14655, Note_on_c, 0, 61, 88
2, 14702, Note_on_c, 0, 41, 0
2, 14765, Note_on_c, 0, 46, 70
2, 14771, Note_on_c, 0, 34, 68
2, 14903, Note_on_c, 0, 41, 66
2, 14903, Note_on_c, 0, 56, 90
2, 14926, Note_on_c, 0, 34, 0
2, 14930, Note_on_c, 0, 61, 0
2, 14945, Note_on_c, 0, 46, 0
2, 14968, Note_on_c, 0, 41, 0
2, 15026, Note_on_c, 0, 44, 80
2, 15027, Note_on_c, 0, 32, 74
2, 15042, Note_on_c, 0, 56, 0
2, 15149, Note_on_c, 0, 41, 70
2, 15163, Note_on_c, 0, 56, 81
2, 15218, Note_on_c, 0, 61, 88
2, 15240, Note_on_c, 0, 65, 74
2, 15279, Note_on_c, 0, 68, 103
2, 15287, Note_on_c, 0, 32, 0
2, 15287, Note_on_c, 0, 56, 0
2, 15288, Note_on_c, 0, 42, 81
2, 15290, Note_on_c, 0, 41, 0
2, 15292, Note_on_c, 0, 30, 69
2, 15298, Note_on_c, 0, 44, 0
2, 15343, Note_on_c, 0, 30, 0
2, 15361, Note_on_c, 0, 42, 0
2, 15404, Note_on_c, 0, 37, 80
2, 15407, Note_on_c, 0, 49, 64
2, 15413, Note_on_c, 0, 49, 0
2, 15483, Note_on_c, 0, 37, 0
2, 15528, Note_on_c, 0, 65, 0
2, 15533, Note_on_c, 0, 65, 93
2, 15533, Note_on_c, 0, 68, 0
2, 15534, Note_on_c, 0, 42, 70
2, 15539, Note_on_c, 0, 30, 69
2, 15552, Note_on_c, 0, 61, 0
2, 15570, Note_on_c, 0, 42, 0
2, 15571, Note_on_c, 0, 30, 0
2, 15601, Note_on_c, 0, 65, 0
2, 15668, Note_on_c, 0, 66, 98
2, 15670, Note_on_c, 0, 37, 76
2, 15671, Note_on_c, 0, 49, 69
2, 15705, Note_on_c, 0, 37, 0
2, 15720, Note_on_c, 0, 49, 0
2, 15794, Note_on_c, 0, 42, 65
2, 15794, Note_on_c, 0, 30, 57
2, 15838, Note_on_c, 0, 42, 0
2, 15840, Note_on_c, 0, 30, 0
2, 15920, Note_on_c, 0, 37, 66
2, 15923, Note_on_c, 0, 63, 88
2, 15924, Note_on_c, 0, 49, 59
2, 15970, Note_on_c, 0, 66, 0
2, 15971, Note_on_c, 0, 63, 0
2, 15973, Note_on_c, 0, 37, 0
2, 15989, Note_on_c, 0, 49, 0
2, 16038, Note_on_c, 0, 42, 72
2, 16039, Note_on_c, 0, 30, 63
2, 16094, Note_on_c, 0, 30, 0
2, 16097, Note_on_c, 0, 42, 0
2, 16165, Note_on_c, 0, 37, 69
2, 16168, Note_on_c, 0, 49, 65
2, 16169, Note_on_c, 0, 65, 91
2, 16202, Note_on_c, 0, 37, 0
2, 16212, Note_on_c, 0, 49, 0
2, 16268, Note_on_c, 0, 42, 69
2, 16271, Note_on_c, 0, 30, 60
2, 16315, Note_on_c, 0, 42, 0
2, 16315, Note_on_c, 0, 30, 0
2, 16415, Note_on_c, 0, 37, 65
2, 16416, Note_on_c, 0, 61, 93
2, 16416, Note_on_c, 0, 49, 65
2, 16451, Note_on_c, 0, 65, 0
2, 16488, Note_on_c, 0, 37, 0
2, 16512, Note_on_c, 0, 49, 0
2, 16516, Note_on_c, 0, 61, 0
2, 16532, Note_on_c, 0, 42, 66
2, 16534, Note_on_c, 0, 30, 55
2, 16583, Note_on_c, 0, 30, 0
2, 16584, Note_on_c, 0, 42, 0
2, 16669, Note_on_c, 0, 63, 92
2, 16670, Note_on_c, 0, 37, 65
2, 16675, Note_on_c, 0, 49, 58
2, 16710, Note_on_c, 0, 49, 0
2, 16714, Note_on_c, 0, 37, 0
2, 16792, Note_on_c, 0, 42, 68
2, 16792, Note_on_c, 0, 30, 56
2, 16837, Note_on_c, 0, 42, 0
2, 16838, Note_on_c, 0, 30, 0
2, 16909, Note_on_c, 0, 60, 91
2, 16917, Note_on_c, 0, 37, 74
2, 16923, Note_on_c, 0, 63, 0
2, 16924, Note_on_c, 0, 49, 66
2, 16949, Control_c, 0, 64, 127
2, 16954, Note_on_c, 0, 37, 0
2, 16965, Note_on_c, 0, 49, 0
2, 17036, Note_on_c, 0, 30, 75
2, 17036, Note_on_c, 0, 42, 81
2, 17149, Note_on_c, 0, 56, 91
2, 17154, Note_on_c, 0, 37, 71
2, 17155, Note_on_c, 0, 49, 73
2, 17195, Note_on_c, 0, 60, 0
2, 17201, Note_on_c, 0, 60, 87
2, 17215, Note_on_c, 0, 42, 0
2, 17226, Note_on_c, 0, 30, 0
2, 17245, Note_on_c, 0, 63, 78
2, 17256, Note_on_c, 0, 49, 0
2, 17276, Note_on_c, 0, 68, 103
2, 17283, Note_on_c, 0, 44, 88
2, 17285, Note_on_c, 0, 32, 82
2, 17287, Note_on_c, 0, 37, 0
2, 17326, Control_c, 0, 64, 0
2, 17395, Note_on_c, 0, 32, 0
2, 17408, Note_on_c, 0, 39, 76
2, 17533, Note_on_c, 0, 44, 0
2, 17535, Note_on_c, 0, 65, 91
2, 17536, Note_on_c, 0, 32, 74
2, 17537, Note_on_c, 0, 44, 76
2, 17569, Note_on_c, 0, 39, 0
2, 17570, Note_on_c, 0, 32, 0
2, 17571, Note_on_c, 0, 44, 0
2, 17572, Note_on_c, 0, 68, 0
2, 17579, Note_on_c, 0, 56, 0
2, 17579, Note_on_c, 0, 60, 0
2, 17579, Note_on_c, 0, 63, 0
2, 17633, Note_on_c, 0, 65, 0
2, 17662, Note_on_c, 0, 66, 98
2, 17664, Note_on_c, 0, 39, 78
2, 17744, Note_on_c, 0, 39, 0
2, 17783, Note_on_c, 0, 32, 79
2, 17783, Note_on_c, 0, 44, 79
2, 17879, Note_on_c, 0, 32, 0
2, 17886, Note_on_c, 0, 44, 0
2, 17913, Note_on_c, 0, 63, 92
2, 17913, Note_on_c, 0, 39, 72
2, 18023, Note_on_c, 0, 32, 77
2, 18024, Note_on_c, 0, 44, 86
2, 18081, Note_on_c, 0, 44, 0
2, 18082, Note_on_c, 0, 32, 0
2, 18082, Note_on_c, 0, 66, 0
2, 18083, Note_on_c, 0, 39, 0
2, 18083, Note_on_c, 0, 63, 0
2, 18160, Note_on_c, 0, 77, 101
2, 18164, Note_on_c, 0, 65, 94
2, 18165, Note_on_c, 0, 68, 106
2, 18168, Note_on_c, 0, 73, 98
2, 18174, Note_on_c, 0, 44, 92
2, 18174, Note_on_c, 0, 32, 90
2, 18196, Note_on_c, 0, 65, 0
2, 18197, Note_on_c, 0, 68, 0
2, 18199, Note_on_c, 0, 77, 0
2, 18199, Note_on_c, 0, 44, 0
2, 18205, Note_on_c, 0, 73, 0
2, 18232, Note_on_c, 0, 32, 0
2, 18425, Note_on_c, 0, 75, 104
2, 18428, Note_on_c, 0, 34, 89
2, 18428, Note_on_c, 0, 46, 87
2, 18428, Note_on_c, 0, 63, 95
2, 18434, Note_on_c, 0, 73, 82
2, 18453, Note_on_c, 0, 63, 0
2, 18455, Note_on_c, 0, 46, 0
2, 18457, Note_on_c, 0, 75, 0
2, 18458, Note_on_c, 0, 34, 0
2, 18516, Note_on_c, 0, 73, 0
2, 18677, Note_on_c, 0, 73, 104
2, 18680, Note_on_c, 0, 61, 96
2, 18681, Note_on_c, 0, 48, 85
2, 18681, Note_on_c, 0, 36, 77
2, 18711, Note_on_c, 0, 48, 0
2, 18712, Note_on_c, 0, 36, 0
2, 18713, Note_on_c, 0, 61, 0
2, 18724, Note_on_c, 0, 73, 0
2, 18926, Note_on_c, 0, 44, 90
2, 18926, Note_on_c, 0, 72, 104
2, 18928, Note_on_c, 0, 60, 92
2, 18960, Note_on_c, 0, 60, 0
2, 19008, Note_on_c, 0, 44, 0
2, 19046, Note_on_c, 0, 32, 84
2, 19164, Note_on_c, 0, 66, 83
2, 19217, Note_on_c, 0, 68, 89
2, 19223, Note_on_c, 0, 32, 0
2, 19227, Note_on_c, 0, 66, 0
2, 19230, Note_on_c, 0, 72, 0
2, 19275, Note_on_c, 0, 78, 107
2, 19299, Control_c, 0, 64, 127
2, 19300, Note_on_c, 0, 37, 92
2, 19420, Note_on_c, 0, 49, 77
2, 19530, Note_on_c, 0, 49, 0
2, 19540, Note_on_c, 0, 49, 67
2, 19541, Note_on_c, 0, 75, 95
2, 19660, Note_on_c, 0, 68, 0
2, 19663, Note_on_c, 0, 56, 89
2, 19664, Note_on_c, 0, 77, 103
2, 19664, Note_on_c, 0, 53, 78
2, 19664, Note_on_c, 0, 68, 100
2, 19666, Note_on_c, 0, 65, 88
2, 19748, Note_on_c, 0, 37, 0
2, 19748, Control_c, 0, 64, 0
2, 19748, Note_on_c, 0, 75, 0
2, 19748, Note_on_c, 0, 78, 0
2, 19750, Note_on_c, 0, 53, 0
2, 19751, Note_on_c, 0, 56, 0
2, 19760, Note_on_c, 0, 49, 0
2, 19797, Note_on_c, 0, 37, 89
2, 19845, Control_c, 0, 64, 127
2, 19927, Note_on_c, 0, 73, 100
2, 19930, Note_on_c, 0, 49, 75
2, 20037, Note_on_c, 0, 49, 0
2, 20042, Note_on_c, 0, 49, 80
2, 20158, Note_on_c, 0, 53, 73
2, 20158, Note_on_c, 0, 56, 90
2, 20177, Note_on_c, 0, 75, 101
2, 20205, Note_on_c, 0, 73, 0
2, 20208, Control_c, 0, 64, 0
2, 20209, Note_on_c, 0, 49, 0
2, 20210, Note_on_c, 0, 37, 0
2, 20211, Note_on_c, 0, 53, 0
2, 20212, Note_on_c, 0, 56, 0
2, 20213, Note_on_c, 0, 65, 0
2, 20259, Note_on_c, 0, 68, 0
2, 20297, Note_on_c, 0, 37, 87
2, 20328, Control_c, 0, 64, 127
2, 20375, Note_on_c, 0, 77, 0
2, 20423, Note_on_c, 0, 72, 97
2, 20423, Note_on_c, 0, 49, 78
2, 20528, Note_on_c, 0, 49, 0
2, 20539, Note_on_c, 0, 49, 76
2, 20658, Note_on_c, 0, 56, 84
2, 20660, Note_on_c, 0, 53, 76
2, 20662, Note_on_c, 0, 73, 106
2, 20682, Note_on_c, 0, 65, 76
2, 20693, Control_c, 0, 64, 0
2, 20694, Note_on_c, 0, 37, 0
2, 20695, Note_on_c, 0, 75, 0
2, 20696, Note_on_c, 0, 72, 0
2, 20700, Note_on_c, 0, 56, 0
2, 20701, Note_on_c, 0, 53, 0
2, 20712, Note_on_c, 0, 49, 0
2, 20774, Control_c, 0, 64, 127
2, 20794, Note_on_c, 0, 37, 86
2, 20915, Note_on_c, 0, 68, 94
2, 20922, Note_on_c, 0, 49, 80
2, 21032, Note_on_c, 0, 36, 82
2, 21145, Note_on_c, 0, 48, 78
2, 21145, Note_on_c, 0, 66, 88
2, 21174, Note_on_c, 0, 49, 0
2, 21176, Note_on_c, 0, 37, 0
2, 21176, Note_on_c, 0, 36, 0
2, 21181, Note_on_c, 0, 65, 0
2, 21184, Control_c, 0, 64, 0
2, 21189, Note_on_c, 0, 68, 0
2, 21193, Note_on_c, 0, 68, 90
2, 21202, Note_on_c, 0, 48, 0
2, 21204, Note_on_c, 0, 73, 0
2, 21209, Note_on_c, 0, 73, 81
2, 21278, Note_on_c, 0, 78, 103
2, 21281, Note_on_c, 0, 34, 93
2, 21296, Control_c, 0, 64, 127
2, 21404, Note_on_c, 0, 46, 84
2, 21527, Note_on_c, 0, 46, 0
2, 21527, Note_on_c, 0, 73, 0
2, 21529, Note_on_c, 0, 75, 96
2, 21531, Note_on_c, 0, 46, 78
2, 21537, Note_on_c, 0, 73, 78
2, 21643, Note_on_c, 0, 56, 88
2, 21657, Note_on_c, 0, 68, 0
2, 21661, Note_on_c, 0, 77, 104
2, 21665, Note_on_c, 0, 53, 66
2, 21666, Note_on_c, 0, 68, 94
2, 21669, Note_on_c, 0, 65, 86
2, 21683, Control_c, 0, 64, 0
2, 21692, Note_on_c, 0, 75, 0
2, 21693, Note_on_c, 0, 78, 0
2, 21694, Note_on_c, 0, 34, 0
2, 21699, Note_on_c, 0, 56, 0
2, 21719, Note_on_c, 0, 46, 0
2, 21719, Note_on_c, 0, 66, 0
2, 21719, Note_on_c, 0, 73, 0
2, 21742, Note_on_c, 0, 53, 0
2, 21788, Note_on_c, 0, 34, 82
2, 21795, Control_c, 0, 64, 127
2, 21913, Note_on_c, 0, 73, 101
2, 21913, Note_on_c, 0, 46, 83
2, 22033, Note_on_c, 0, 46, 0
2, 22038, Note_on_c, 0, 46, 76
2, 22158, Note_on_c, 0, 56, 85
2, 22164, Note_on_c, 0, 68, 0
2, 22166, Note_on_c, 0, 75, 96
2, 22169, Note_on_c, 0, 53, 64
2, 22172, Note_on_c, 0, 65, 0
2, 22175, Note_on_c, 0, 68, 87
2, 22182, Note_on_c, 0, 65, 81
2, 22199, Note_on_c, 0, 77, 0
2, 22200, Note_on_c, 0, 73, 0
2, 22203, Note_on_c, 0, 34, 0
2, 22204, Note_on_c, 0, 46, 0
2, 22206, Control_c, 0, 64, 0
2, 22241, Note_on_c, 0, 53, 0
2, 22241, Note_on_c, 0, 56, 0
2, 22296, Note_on_c, 0, 34, 79
2, 22302, Control_c, 0, 64, 127
2, 22413, Note_on_c, 0, 72, 96
2, 22415, Note_on_c, 0, 46, 86
2, 22525, Note_on_c, 0, 46, 0
2, 22530, Note_on_c, 0, 46, 81
2, 22649, Note_on_c, 0, 53, 81
2, 22652, Note_on_c, 0, 56, 78
2, 22657, Note_on_c, 0, 73, 105
2, 22671, Note_on_c, 0, 65, 0
2, 22675, Note_on_c, 0, 65, 82
2, 22692, Control_c, 0, 64, 0
2, 22699, Note_on_c, 0, 46, 0
2, 22700, Note_on_c, 0, 34, 0
2, 22701, Note_on_c, 0, 72, 0
2, 22702, Note_on_c, 0, 75, 0
2, 22709, Note_on_c, 0, 68, 0
2, 22740, Note_on_c, 0, 53, 0
2, 22740, Note_on_c, 0, 56, 0
2, 22779, Note_on_c, 0, 34, 81
2, 22794, Control_c, 0, 64, 127
2, 22889, Note_on_c, 0, 46, 86
2, 22913, Note_on_c, 0, 68, 101
2, 23019, Note_on_c, 0, 32, 78
2, 23147, Note_on_c, 0, 68, 0
2, 23151, Note_on_c, 0, 68, 87
2, 23155, Note_on_c, 0, 44, 77
2, 23185, Note_on_c, 0, 46, 0
2, 23185, Note_on_c, 0, 73, 0
2, 23186, Note_on_c, 0, 34, 0
2, 23188, Control_c, 0, 64, 0
2, 23188, Note_on_c, 0, 44, 0
2, 23190, Note_on_c, 0, 32, 0
2, 23193, Note_on_c, 0, 73, 91
2, 23208, Note_on_c, 0, 65, 0
2, 23220, Note_on_c, 0, 77, 61
2, 23266, Note_on_c, 0, 80, 106
2, 23273, Note_on_c, 0, 30, 90
2, 23324, Control_c, 0, 64, 127
2, 23389, Note_on_c, 0, 42, 81
2, 23516, Note_on_c, 0, 42, 0
2, 23516, Note_on_c, 0, 77, 0
2, 23525, Note_on_c, 0, 77, 94
2, 23525, Note_on_c, 0, 42, 83
2, 23646, Note_on_c, 0, 42, 0
2, 23654, Note_on_c, 0, 68, 0
2, 23654, Note_on_c, 0, 73, 0
2, 23655, Note_on_c, 0, 78, 104
2, 23657, Note_on_c, 0, 42, 84
2, 23658, Note_on_c, 0, 73, 97
2, 23661, Note_on_c, 0, 68, 94
2, 23686, Control_c, 0, 64, 0
2, 23697, Note_on_c, 0, 77, 0
2, 23699, Note_on_c, 0, 80, 0
2, 23761, Note_on_c, 0, 42, 0
2, 23777, Note_on_c, 0, 30, 0
2, 23781, Note_on_c, 0, 30, 87
2, 23800, Control_c, 0, 64, 127
2, 23889, Note_on_c, 0, 42, 83
2, 23910, Note_on_c, 0, 75, 91
2, 24015, Note_on_c, 0, 42, 0
2, 24024, Note_on_c, 0, 42, 81
2, 24133, Note_on_c, 0, 54, 85
2, 24157, Note_on_c, 0, 49, 76
2, 24161, Note_on_c, 0, 68, 0
2, 24161, Note_on_c, 0, 73, 0
2, 24164, Note_on_c, 0, 77, 100
2, 24165, Note_on_c, 0, 68, 97
2, 24166, Note_on_c, 0, 73, 100
2, 24195, Control_c, 0, 64, 0
2, 24201, Note_on_c, 0, 78, 0
2, 24202, Note_on_c, 0, 30, 0
2, 24203, Note_on_c, 0, 42, 0
2, 24205, Note_on_c, 0, 75, 0
2, 24245, Note_on_c, 0, 49, 0
2, 24261, Note_on_c, 0, 54, 0
2, 24283, Note_on_c, 0, 30, 85
2, 24314, Control_c, 0, 64, 127
2, 24386, Note_on_c, 0, 42, 84
2, 24407, Note_on_c, 0, 73, 0
2, 24417, Note_on_c, 0, 73, 101
2, 24514, Note_on_c, 0, 42, 0
2, 24518, Note_on_c, 0, 42, 77
2, 24630, Note_on_c, 0, 54, 88
2, 24640, Note_on_c, 0, 49, 77
2, 24659, Note_on_c, 0, 75, 102
2, 24660, Note_on_c, 0, 68, 0
2, 24664, Note_on_c, 0, 68, 90
2, 24704, Note_on_c, 0, 30, 0
2, 24706, Control_c, 0, 64, 0
2, 24708, Note_on_c, 0, 42, 0
2, 24709, Note_on_c, 0, 73, 0
2, 24709, Note_on_c, 0, 77, 0
2, 24711, Note_on_c, 0, 49, 0
2, 24711, Note_on_c, 0, 54, 0
2, 24785, Note_on_c, 0, 30, 86
2, 24852, Control_c, 0, 64, 127
2, 24888, Note_on_c, 0, 42, 83
2, 24901, Note_on_c, 0, 72, 93
2, 25021, Note_on_c, 0, 42, 0
2, 25026, Note_on_c, 0, 42, 76
2, 25142, Note_on_c, 0, 54, 75
2, 25152, Note_on_c, 0, 68, 0
2, 25156, Note_on_c, 0, 68, 89
2, 25157, Note_on_c, 0, 49, 70
2, 25182, Note_on_c, 0, 72, 0
2, 25188, Note_on_c, 0, 72, 90
2, 25221, Note_on_c, 0, 75, 0
2, 25228, Control_c, 0, 64, 0
2, 25228, Note_on_c, 0, 49, 0
2, 25229, Note_on_c, 0, 30, 0
2, 25232, Note_on_c, 0, 42, 0
2, 25232, Note_on_c, 0, 75, 78
2, 25259, Note_on_c, 0, 54, 0
2, 25283, Note_on_c, 0, 80, 105
2, 25288, Note_on_c, 0, 32, 89
2, 25374, Control_c, 0, 64, 127
2, 25392, Note_on_c, 0, 44, 91
2, 25528, Note_on_c, 0, 32, 0
2, 25528, Note_on_c, 0, 44, 0
2, 25532, Note_on_c, 0, 77, 91
2, 25533, Note_on_c, 0, 44, 80
2, 25533, Note_on_c, 0, 32, 74
2, 25651, Note_on_c, 0, 44, 0
2, 25652, Note_on_c, 0, 80, 0
2, 25654, Note_on_c, 0, 77, 0
2, 25655, Note_on_c, 0, 44, 80
2, 25658, Note_on_c, 0, 78, 103
2, 25658, Note_on_c, 0, 68, 0
2, 25658, Note_on_c, 0, 72, 0
2, 25663, Note_on_c, 0, 68, 96
2, 25665, Note_on_c, 0, 72, 89
2, 25692, Note_on_c, 0, 32, 0
2, 25701, Control_c, 0, 64, 0
2, 25704, Note_on_c, 0, 75, 0
2, 25735, Note_on_c, 0, 44, 0
2, 25788, Note_on_c, 0, 32, 81
2, 25820, Control_c, 0, 64, 127
2, 25909, Note_on_c, 0, 75, 88
2, 25909, Note_on_c, 0, 44, 81
2, 26019, Note_on_c, 0, 44, 0
2, 26027, Note_on_c, 0, 44, 75
2, 26086, Note_on_c, 0, 51, 81
2, 26119, Note_on_c, 0, 32, 0
2, 26121, Note_on_c, 0, 44, 0
2, 26121, Note_on_c, 0, 75, 0
2, 26123, Note_on_c, 0, 72, 0
2, 26123, Control_c, 0, 64, 0
2, 26123, Note_on_c, 0, 68, 0
2, 26123, Note_on_c, 0, 78, 0
2, 26123, Note_on_c, 0, 51, 0
2, 26189, Note_on_c, 0, 77, 101
2, 26192, Note_on_c, 0, 72, 98
2, 26192, Note_on_c, 0, 68, 102
2, 26193, Note_on_c, 0, 44, 84
2, 26195, Note_on_c, 0, 32, 80
2, 26225, Note_on_c, 0, 77, 0
2, 26226, Note_on_c, 0, 72, 0
2, 26226, Note_on_c, 0, 68, 0
2, 26230, Note_on_c, 0, 32, 0
2, 26230, Note_on_c, 0, 44, 0
2, 26453, Note_on_c, 0, 75, 96
2, 26454, Note_on_c, 0, 68, 88
2, 26458, Note_on_c, 0, 44, 87
2, 26459, Note_on_c, 0, 32, 79
2, 26485, Note_on_c, 0, 68, 0
2, 26486, Note_on_c, 0, 44, 0
2, 26487, Note_on_c, 0, 32, 0
2, 26526, Note_on_c, 0, 75, 0
2, 26699, Note_on_c, 0, 73, 102
2, 26705, Note_on_c, 0, 33, 78
2, 26706, Note_on_c, 0, 45, 83
2, 26747, Note_on_c, 0, 33, 0
2, 26753, Note_on_c, 0, 45, 0
2, 26761, Note_on_c, 0, 73, 0
2, 26954, Note_on_c, 0, 72, 98
2, 26958, Note_on_c, 0, 65, 88
2, 26960, Note_on_c, 0, 69, 88
2, 26962, Note_on_c, 0, 45, 76
2, 27018, Control_c, 0, 64, 127
2, 27099, Note_on_c, 0, 57, 72
2, 27114, Note_on_c, 0, 53, 58
2, 27257, Control_c, 0, 64, 0
2, 27271, Note_on_c, 0, 65, 0
2, 27276, Note_on_c, 0, 45, 0
2, 27276, Note_on_c, 0, 57, 0
2, 27276, Note_on_c, 0, 53, 0
2, 27277, Note_on_c, 0, 69, 0
2, 27279, Note_on_c, 0, 72, 0
2, 27320, Note_on_c, 0, 82, 65
2, 27323, Note_on_c, 0, 85, 63
2, 27357, Note_on_c, 0, 46, 75
2, 27359, Note_on_c, 0, 89, 90
2, 27425, Note_on_c, 0, 85, 0
2, 27440, Note_on_c, 0, 82, 0
2, 27483, Note_on_c, 0, 53, 66
2, 27494, Control_c, 0, 64, 127
2, 27595, Note_on_c, 0, 58, 70
2, 27712, Note_on_c, 0, 60, 70
2, 27725, Note_on_c, 0, 85, 88
2, 27800, Note_on_c, 0, 84, 82
2, 27847, Note_on_c, 0, 85, 0
2, 27858, Note_on_c, 0, 85, 85
2, 27955, Note_on_c, 0, 60, 0
2, 27964, Note_on_c, 0, 87, 94
2, 27965, Note_on_c, 0, 60, 64
2, 28085, Note_on_c, 0, 89, 0
2, 28089, Note_on_c, 0, 61, 73
2, 28090, Note_on_c, 0, 65, 58
2, 28092, Note_on_c, 0, 89, 87
2, 28216, Note_on_c, 0, 90, 91
2, 28312, Control_c, 0, 64, 0
2, 28313, Note_on_c, 0, 53, 0
2, 28313, Note_on_c, 0, 58, 0
2, 28314, Note_on_c, 0, 87, 0
2, 28314, Note_on_c, 0, 61, 0
2, 28314, Note_on_c, 0, 84, 0
2, 28316, Note_on_c, 0, 85, 0
2, 28318, Note_on_c, 0, 46, 0
2, 28331, Note_on_c, 0, 60, 0
2, 28331, Note_on_c, 0, 89, 0
2, 28339, Note_on_c, 0, 45, 73
2, 28342, Note_on_c, 0, 89, 90
2, 28346, Note_on_c, 0, 65, 0
2, 28392, Note_on_c, 0, 90, 0
2, 28469, Control_c, 0, 64, 127
2, 28474, Note_on_c, 0, 87, 85
2, 28476, Note_on_c, 0, 53, 72
2, 28604, Note_on_c, 0, 85, 93
2, 28604, Note_on_c, 0, 57, 72
2, 28722, Note_on_c, 0, 60, 78
2, 28953, Note_on_c, 0, 57, 0
2, 28958, Note_on_c, 0, 57, 67
2, 29084, Note_on_c, 0, 60, 0
2, 29094, Note_on_c, 0, 65, 69
2, 29095, Note_on_c, 0, 60, 69
2, 29095, Note_on_c, 0, 82, 89
2, 29222, Note_on_c, 0, 82, 0
2, 29226, Note_on_c, 0, 82, 81
2, 29296, Note_on_c, 0, 84, 83
2, 29301, Control_c, 0, 64, 0
2, 29311, Note_on_c, 0, 57, 0
2, 29312, Note_on_c, 0, 87, 0
2, 29312, Note_on_c, 0, 65, 0
2, 29312, Note_on_c, 0, 82, 0
2, 29312, Note_on_c, 0, 53, 0
2, 29313, Note_on_c, 0, 89, 0
2, 29322, Note_on_c, 0, 45, 0
2, 29329, Note_on_c, 0, 60, 0
2, 29344, Note_on_c, 0, 44, 76
2, 29345, Note_on_c, 0, 85, 0
2, 29356, Note_on_c, 0, 85, 88
2, 29491, Control_c, 0, 64, 127
2, 29491, Note_on_c, 0, 53, 69
2, 29583, Note_on_c, 0, 84, 0
2, 29601, Note_on_c, 0, 82, 87
2, 29603, Note_on_c, 0, 56, 74
2, 29726, Note_on_c, 0, 61, 73
2, 29729, Note_on_c, 0, 82, 0
2, 29734, Note_on_c, 0, 82, 85
2, 29798, Note_on_c, 0, 85, 0
2, 29802, Note_on_c, 0, 85, 83
2, 29849, Note_on_c, 0, 89, 94
2, 29982, Note_on_c, 0, 56, 0
2, 29990, Note_on_c, 0, 56, 71
2, 30074, Note_on_c, 0, 82, 0
2, 30083, Note_on_c, 0, 82, 97
2, 30090, Note_on_c, 0, 61, 0
2, 30095, Note_on_c, 0, 61, 86
2, 30100, Note_on_c, 0, 65, 68
2, 30205, Note_on_c, 0, 82, 0
2, 30210, Note_on_c, 0, 82, 87
2, 30243, Note_on_c, 0, 85, 0
2, 30248, Note_on_c, 0, 85, 90
2, 30261, Control_c, 0, 64, 0
2, 30266, Note_on_c, 0, 44, 0
2, 30268, Note_on_c, 0, 61, 0
2, 30268, Note_on_c, 0, 82, 0
2, 30268, Note_on_c, 0, 53, 0
2, 30269, Note_on_c, 0, 56, 0
2, 30289, Note_on_c, 0, 65, 0
2, 30305, Note_on_c, 0, 89, 0
2, 30310, Note_on_c, 0, 89, 81
2, 30362, Note_on_c, 0, 53, 80
2, 30363, Note_on_c, 0, 94, 99
2, 30363, Note_on_c, 0, 43, 80
2, 30389, Control_c, 0, 64, 127
2, 30597, Note_on_c, 0, 89, 0
2, 30603, Note_on_c, 0, 89, 88
2, 30721, Note_on_c, 0, 87, 95
2, 30742, Note_on_c, 0, 55, 63
2, 30842, Note_on_c, 0, 85, 0
2, 30851, Note_on_c, 0, 85, 103
2, 30873, Note_on_c, 0, 65, 75
2, 30875, Note_on_c, 0, 53, 0
2, 30876, Note_on_c, 0, 61, 85
2, 30886, Note_on_c, 0, 58, 64
2, 31088, Note_on_c, 0, 55, 0
2, 31096, Note_on_c, 0, 55, 72
2, 31194, Control_c, 0, 64, 0
2, 31209, Note_on_c, 0, 58, 0
2, 31209, Note_on_c, 0, 87, 0
2, 31210, Note_on_c, 0, 55, 0
2, 31210, Note_on_c, 0, 61, 0
2, 31211, Note_on_c, 0, 43, 0
2, 31211, Note_on_c, 0, 89, 0
2, 31211, Note_on_c, 0, 65, 0
2, 31213, Note_on_c, 0, 85, 0
2, 31219, Note_on_c, 0, 94, 0
2, 31258, Note_on_c, 0, 73, 103
2, 31260, Note_on_c, 0, 61, 91
2, 31261, Note_on_c, 0, 46, 82
2, 31265, Note_on_c, 0, 54, 86
2, 31269, Note_on_c, 0, 66, 84
2, 31276, Note_on_c, 0, 70, 89
2, 31303, Control_c, 0, 64, 127
2, 31465, Control_c, 0, 64, 0
2, 31468, Note_on_c, 0, 46, 0
2, 31468, Note_on_c, 0, 73, 0
2, 31469, Note_on_c, 0, 54, 0
2, 31469, Note_on_c, 0, 70, 0
2, 31469, Note_on_c, 0, 61, 0
2, 31469, Note_on_c, 0, 66, 0
2, 31528, Note_on_c, 0, 61, 90
2, 31576, Note_on_c, 0, 61, 0
2, 31649, Note_on_c, 0, 61, 83
2, 31700, Note_on_c, 0, 61, 0
2, 31766, Note_on_c, 0, 61, 94
2, 31815, Note_on_c, 0, 61, 0
2, 31876, Note_on_c, 0, 56, 98
2, 31914, Note_on_c, 0, 56, 0
2, 32006, Note_on_c, 0, 39, 67
2, 32120, Note_on_c, 0, 73, 102
2, 32121, Note_on_c, 0, 61, 95
2, 32127, Note_on_c, 0, 66, 90
2, 32127, Note_on_c, 0, 46, 82
2, 32129, Note_on_c, 0, 54, 83
2, 32130, Note_on_c, 0, 70, 88
2, 32171, Control_c, 0, 64, 127
2, 32328, Control_c, 0, 64, 0
2, 32339, Note_on_c, 0, 73, 0
2, 32340, Note_on_c, 0, 39, 0
2, 32340, Note_on_c, 0, 66, 0
2, 32341, Note_on_c, 0, 61, 0
2, 32341, Note_on_c, 0, 46, 0
2, 32342, Note_on_c, 0, 54, 0
2, 32342, Note_on_c, 0, 70, 0
2, 32382, Note_on_c, 0, 75, 100
2, 32382, Note_on_c, 0, 72, 93
2, 32383, Note_on_c, 0, 63, 97
2, 32387, Note_on_c, 0, 68, 96
2, 32388, Note_on_c, 0, 56, 95
2, 32388, Note_on_c, 0, 41, 87
2, 32391, Note_on_c, 0, 49, 86
2, 32424, Control_c, 0, 64, 127
2, 32432, Note_on_c, 0, 49, 0
2, 32517, Note_on_c, 0, 63, 0
2, 32520, Control_c, 0, 64, 0
2, 32522, Note_on_c, 0, 63, 85
2, 32528, Note_on_c, 0, 72, 0
2, 32529, Note_on_c, 0, 56, 0
2, 32529, Note_on_c, 0, 75, 0
2, 32534, Note_on_c, 0, 68, 0
2, 32535, Note_on_c, 0, 41, 0
2, 32570, Note_on_c, 0, 63, 0
2, 32642, Note_on_c, 0, 63, 94
2, 32744, Note_on_c, 0, 63, 0
2, 32772, Note_on_c, 0, 56, 93
2, 32816, Note_on_c, 0, 56, 0
2, 33014, Note_on_c, 0, 75, 98
2, 33017, Note_on_c, 0, 63, 91
2, 33018, Note_on_c, 0, 68, 89
2, 33018, Note_on_c, 0, 41, 84
2, 33020, Note_on_c, 0, 72, 79
2, 33062, Control_c, 0, 64, 127
2, 33137, Note_on_c, 0, 49, 86
2, 33151, Note_on_c, 0, 56, 84
2, 33258, Control_c, 0, 64, 0
2, 33258, Note_on_c, 0, 41, 0
2, 33258, Note_on_c, 0, 68, 0
2, 33259, Note_on_c, 0, 75, 0
2, 33259, Note_on_c, 0, 56, 0
2, 33261, Note_on_c, 0, 63, 0
2, 33262, Note_on_c, 0, 72, 0
2, 33269, Note_on_c, 0, 49, 0
2, 33273, Note_on_c, 0, 77, 99
2, 33277, Note_on_c, 0, 65, 96
2, 33277, Note_on_c, 0, 73, 100
2, 33279, Note_on_c, 0, 70, 97
2, 33280, Note_on_c, 0, 49, 77
2, 33313, Note_on_c, 0, 65, 0
2, 33331, Note_on_c, 0, 49, 0
2, 33361, Control_c, 0, 64, 127
2, 33396, Note_on_c, 0, 49, 80
2, 33397, Note_on_c, 0, 42, 80
2, 33398, Note_on_c, 0, 58, 92
2, 33520, Note_on_c, 0, 58, 0
2, 33523, Note_on_c, 0, 49, 0
2, 33523, Note_on_c, 0, 42, 0
2, 33528, Control_c, 0, 64, 0
2, 33533, Note_on_c, 0, 65, 99
2, 33538, Note_on_c, 0, 70, 0
2, 33546, Note_on_c, 0, 77, 0
2, 33553, Note_on_c, 0, 73, 0
2, 33567, Note_on_c, 0, 65, 0
2, 33660, Note_on_c, 0, 65, 96
2, 33722, Note_on_c, 0, 65, 0
2, 33768, Note_on_c, 0, 65, 91
2, 33815, Note_on_c, 0, 65, 0
2, 33895, Note_on_c, 0, 73, 104
2, 33902, Note_on_c, 0, 61, 94
2, 33902, Note_on_c, 0, 55, 94
2, 33903, Note_on_c, 0, 70, 96
2, 33904, Note_on_c, 0, 51, 90
2, 33904, Note_on_c, 0, 43, 90
2, 33937, Control_c, 0, 64, 127
2, 33975, Control_c, 0, 64, 0
2, 33984, Control_c, 0, 64, 127
2, 34073, Note_on_c, 0, 61, 0
2, 34073, Note_on_c, 0, 73, 0
2, 34076, Control_c, 0, 64, 0
2, 34076, Note_on_c, 0, 70, 0
2, 34136, Note_on_c, 0, 77, 97
2, 34140, Note_on_c, 0, 65, 93
2, 34159, Note_on_c, 0, 55, 0
2, 34160, Note_on_c, 0, 43, 0
2, 34162, Note_on_c, 0, 51, 0
2, 34183, Note_on_c, 0, 65, 0
2, 34183, Note_on_c, 0, 77, 0
2, 34265, Note_on_c, 0, 78, 104
2, 34266, Note_on_c, 0, 66, 94
2, 34295, Note_on_c, 0, 66, 0
2, 34375, Note_on_c, 0, 78, 0
2, 34399, Note_on_c, 0, 80, 108
2, 34401, Note_on_c, 0, 68, 105
2, 34402, Note_on_c, 0, 75, 91
2, 34403, Note_on_c, 0, 72, 95
2, 34404, Note_on_c, 0, 56, 95
2, 34407, Note_on_c, 0, 51, 90
2, 34408, Note_on_c, 0, 44, 92
2, 34444, Control_c, 0, 64, 127
2, 34636, Note_on_c, 0, 44, 0
2, 34645, Note_on_c, 0, 44, 99
2, 34645, Note_on_c, 0, 32, 90
2, 34759, Note_on_c, 0, 68, 0
2, 34759, Note_on_c, 0, 72, 0
2, 34759, Note_on_c, 0, 75, 0
2, 34759, Note_on_c, 0, 80, 0
2, 34764, Note_on_c, 0, 80, 103
2, 34766, Note_on_c, 0, 68, 100
2, 34767, Note_on_c, 0, 72, 96
2, 34769, Note_on_c, 0, 75, 92
2, 34867, Note_on_c, 0, 68, 0
2, 34867, Note_on_c, 0, 80, 0
2, 34874, Note_on_c, 0, 72, 0
2, 34876, Note_on_c, 0, 68, 104
2, 34877, Note_on_c, 0, 80, 105
2, 34879, Note_on_c, 0, 72, 90
2, 34911, Note_on_c, 0, 94, 82
2, 34918, Note_on_c, 0, 92, 83
2, 34920, Note_on_c, 0, 94, 0
2, 34925, Note_on_c, 0, 90, 93
2, 34931, Note_on_c, 0, 87, 96
2, 34956, Note_on_c, 0, 85, 88
2, 34991, Note_on_c, 0, 82, 93
2, 35005, Note_on_c, 0, 80, 0
2, 35012, Note_on_c, 0, 80, 89
2, 35023, Note_on_c, 0, 78, 89
2, 35028, Note_on_c, 0, 75, 0
2, 35038, Note_on_c, 0, 75, 67
2, 35059, Note_on_c, 0, 73, 102
2, 35075, Note_on_c, 0, 70, 90
2, 35082, Note_on_c, 0, 68, 0
2, 35088, Note_on_c, 0, 68, 84
2, 35109, Note_on_c, 0, 66, 86
2, 35131, Note_on_c, 0, 63, 73
2, 35131, Note_on_c, 0, 61, 87
2, 35143, Note_on_c, 0, 58, 85
2, 35180, Note_on_c, 0, 54, 80
2, 35182, Note_on_c, 0, 51, 0
2, 35190, Note_on_c, 0, 51, 82
2, 35206, Note_on_c, 0, 49, 74
2, 35212, Note_on_c, 0, 44, 0
2, 35224, Note_on_c, 0, 44, 63
2, 35235, Note_on_c, 0, 75, 0
2, 35240, Note_on_c, 0, 46, 76
2, 35246, Note_on_c, 0, 75, 90
2, 35289, Note_on_c, 0, 73, 0
2, 35294, Note_on_c, 0, 73, 61
2, 35298, Note_on_c, 0, 77, 91
2, 35320, Note_on_c, 0, 80, 0
2, 35324, Note_on_c, 0, 80, 105
2, 35393, Control_c, 0, 64, 0
2, 35395, Note_on_c, 0, 73, 0
2, 35395, Note_on_c, 0, 46, 0
2, 35395, Note_on_c, 0, 66, 0
2, 35395, Note_on_c, 0, 72, 0
2, 35396, Note_on_c, 0, 56, 0
2, 35396, Note_on_c, 0, 85, 0
2, 35396, Note_on_c, 0, 68, 0
2, 35396, Note_on_c, 0, 70, 0
2, 35396, Note_on_c, 0, 54, 0
2, 35396, Note_on_c, 0, 32, 0
2, 35396, Note_on_c, 0, 90, 0
2, 35396, Note_on_c, 0, 58, 0
2, 35397, Note_on_c, 0, 78, 0
2, 35397, Note_on_c, 0, 77, 0
2, 35397, Note_on_c, 0, 82, 0
2, 35397, Note_on_c, 0, 92, 0
2, 35398, Note_on_c, 0, 44, 0
2, 35398, Note_on_c, 0, 63, 0
2, 35398, Note_on_c, 0, 61, 0
2, 35412, Note_on_c, 0, 51, 0
2, 35420, Note_on_c, 0, 49, 0
2, 35420, Note_on_c, 0, 75, 0
2, 35420, Note_on_c, 0, 80, 0
2, 35420, Note_on_c, 0, 87, 0
2, 35424, Note_on_c, 0, 75, 106
2, 35425, Note_on_c, 0, 80, 96
2, 35426, Note_on_c, 0, 87, 104
2, 35430, Note_on_c, 0, 37, 96
2, 35431, Note_on_c, 0, 49, 105
2, 35468, Note_on_c, 0, 49, 0
2, 35470, Note_on_c, 0, 75, 0
2, 35470, Note_on_c, 0, 37, 0
2, 35477, Note_on_c, 0, 87, 0
2, 35512, Control_c, 0, 64, 127
2, 35541, Note_on_c, 0, 87, 101
2, 35541, Note_on_c, 0, 75, 99
2, 35544, Note_on_c, 0, 49, 57
2, 35675, Note_on_c, 0, 90, 106
2, 35678, Note_on_c, 0, 78, 103
2, 35678, Note_on_c, 0, 61, 92
2, 35681, Note_on_c, 0, 49, 0
2, 35688, Note_on_c, 0, 49, 83
2, 35688, Note_on_c, 0, 87, 0
2, 35692, Note_on_c, 0, 87, 76
2, 35692, Note_on_c, 0, 56, 72
2, 35698, Note_on_c, 0, 53, 71
2, 35801, Note_on_c, 0, 89, 107
2, 35804, Note_on_c, 0, 49, 0
2, 35805, Note_on_c, 0, 77, 99
2, 35808, Note_on_c, 0, 49, 85
2, 35934, Note_on_c, 0, 53, 0
2, 35939, Note_on_c, 0, 53, 73
2, 36057, Note_on_c, 0, 49, 0
2, 36057, Note_on_c, 0, 85, 101
2, 36061, Note_on_c, 0, 73, 99
2, 36063, Note_on_c, 0, 49, 82
2, 36157, Note_on_c, 0, 56, 0
2, 36165, Note_on_c, 0, 61, 0
2, 36167, Note_on_c, 0, 56, 92
2, 36169, Note_on_c, 0, 61, 86
2, 36269, Note_on_c, 0, 87, 0
2, 36270, Note_on_c, 0, 75, 0
2, 36270, Note_on_c, 0, 53, 0
2, 36270, Control_c, 0, 64, 0
2, 36271, Note_on_c, 0, 80, 0
2, 36271, Note_on_c, 0, 90, 0
2, 36271, Note_on_c, 0, 89, 0
2, 36271, Note_on_c, 0, 78, 0
2, 36271, Note_on_c, 0, 85, 0
2, 36271, Note_on_c, 0, 56, 0
2, 36271, Note_on_c, 0, 73, 0
2, 36272, Note_on_c, 0, 77, 0
2, 36272, Note_on_c, 0, 61, 0
2, 36288, Note_on_c, 0, 49, 0
2, 36319, Note_on_c, 0, 87, 105
2, 36320, Note_on_c, 0, 46, 102
2, 36321, Note_on_c, 0, 80, 101
2, 36321, Note_on_c, 0, 34, 96
2, 36322, Note_on_c, 0, 75, 101
2, 36380, Control_c, 0, 64, 127
2, 36549, Note_on_c, 0, 34, 0
2, 36556, Note_on_c, 0, 75, 0
2, 36556, Note_on_c, 0, 87, 0
2, 36564, Note_on_c, 0, 46, 0
2, 36565, Note_on_c, 0, 87, 97
2, 36567, Note_on_c, 0, 75, 90
2, 36575, Note_on_c, 0, 46, 79
2, 36697, Note_on_c, 0, 90, 102
2, 36699, Note_on_c, 0, 78, 97
2, 36705, Note_on_c, 0, 61, 87
2, 36713, Note_on_c, 0, 56, 77
2, 36724, Note_on_c, 0, 53, 55
2, 36825, Note_on_c, 0, 46, 0
2, 36828, Note_on_c, 0, 89, 105
2, 36829, Note_on_c, 0, 77, 92
2, 36835, Note_on_c, 0, 46, 84
2, 36963, Note_on_c, 0, 53, 0
2, 36971, Note_on_c, 0, 53, 80
2, 37075, Note_on_c, 0, 85, 102
2, 37080, Note_on_c, 0, 73, 95
2, 37094, Note_on_c, 0, 46, 0
2, 37098, Note_on_c, 0, 46, 81
2, 37209, Note_on_c, 0, 56, 0
2, 37217, Note_on_c, 0, 53, 0
2, 37217, Note_on_c, 0, 61, 0
2, 37220, Note_on_c, 0, 56, 91
2, 37222, Note_on_c, 0, 61, 95
2, 37223, Note_on_c, 0, 53, 81
2, 37317, Note_on_c, 0, 46, 0
2, 37322, Note_on_c, 0, 46, 88
2, 37375, Control_c, 0, 64, 0
2, 37381, Note_on_c, 0, 80, 0
2, 37381, Note_on_c, 0, 61, 0
2, 37381, Note_on_c, 0, 87, 0
2, 37381, Note_on_c, 0, 73, 0
2, 37382, Note_on_c, 0, 85, 0
2, 37382, Note_on_c, 0, 75, 0
2, 37382, Note_on_c, 0, 46, 0
2, 37382, Note_on_c, 0, 78, 0
2, 37382, Note_on_c, 0, 56, 0
2, 37382, Note_on_c, 0, 77, 0
2, 37382, Note_on_c, 0, 53, 0
2, 37382, Note_on_c, 0, 90, 0
2, 37383, Note_on_c, 0, 89, 0
2, 37459, Note_on_c, 0, 87, 107
2, 37460, Note_on_c, 0, 75, 103
2, 37464, Note_on_c, 0, 78, 99
2, 37466, Note_on_c, 0, 82, 94
2, 37468, Note_on_c, 0, 42, 93
2, 37469, Note_on_c, 0, 30, 89
2, 37493, Control_c, 0, 64, 127
2, 37578, Note_on_c, 0, 42, 0
2, 37578, Note_on_c, 0, 75, 0
2, 37578, Note_on_c, 0, 87, 0
2, 37588, Note_on_c, 0, 87, 98
2, 37589, Note_on_c, 0, 42, 68
2, 37589, Note_on_c, 0, 75, 85
2, 37708, Note_on_c, 0, 78, 0
2, 37712, Note_on_c, 0, 58, 88
2, 37713, Note_on_c, 0, 49, 84
2, 37714, Note_on_c, 0, 90, 104
2, 37719, Note_on_c, 0, 78, 97
2, 37831, Note_on_c, 0, 42, 0
2, 37835, Note_on_c, 0, 42, 91
2, 37839, Note_on_c, 0, 89, 106
2, 37841, Note_on_c, 0, 77, 94
2, 37946, Note_on_c, 0, 49, 0
2, 37957, Note_on_c, 0, 49, 75
2, 37960, Note_on_c, 0, 54, 77
2, 38077, Note_on_c, 0, 42, 0
2, 38077, Note_on_c, 0, 75, 0
2, 38077, Note_on_c, 0, 87, 0
2, 38086, Note_on_c, 0, 87, 102
2, 38088, Note_on_c, 0, 42, 86
2, 38088, Note_on_c, 0, 75, 97
2, 38184, Note_on_c, 0, 49, 0
2, 38192, Note_on_c, 0, 58, 0
2, 38195, Note_on_c, 0, 49, 85
2, 38202, Note_on_c, 0, 58, 74
2, 38206, Note_on_c, 0, 85, 103
2, 38207, Note_on_c, 0, 73, 103
2, 38276, Note_on_c, 0, 87, 0
2, 38276, Note_on_c, 0, 90, 0
2, 38276, Note_on_c, 0, 89, 0
2, 38277, Note_on_c, 0, 78, 0
2, 38277, Note_on_c, 0, 75, 0
2, 38277, Note_on_c, 0, 54, 0
2, 38277, Note_on_c, 0, 77, 0
2, 38278, Note_on_c, 0, 82, 0
2, 38279, Control_c, 0, 64, 0
2, 38280, Note_on_c, 0, 73, 0
2, 38280, Note_on_c, 0, 85, 0
2, 38284, Note_on_c, 0, 30, 0
2, 38292, Note_on_c, 0, 49, 0
2, 38292, Note_on_c, 0, 58, 0
2, 38300, Note_on_c, 0, 42, 0
2, 38340, Note_on_c, 0, 87, 104
2, 38341, Note_on_c, 0, 75, 102
2, 38342, Note_on_c, 0, 44, 96
2, 38342, Note_on_c, 0, 32, 88
2, 38343, Note_on_c, 0, 80, 93
2, 38392, Note_on_c, 0, 32, 0
2, 38400, Note_on_c, 0, 44, 0
2, 38415, Note_on_c, 0, 75, 0
2, 38461, Note_on_c, 0, 87, 0
2, 38469, Note_on_c, 0, 80, 0
2, 38604, Note_on_c, 0, 73, 103
2, 38605, Note_on_c, 0, 85, 103
2, 38606, Note_on_c, 0, 44, 91
2, 38607, Note_on_c, 0, 58, 89
2, 38610, Note_on_c, 0, 51, 85
2, 38682, Note_on_c, 0, 58, 0
2, 38702, Note_on_c, 0, 44, 0
2, 38704, Note_on_c, 0, 73, 0
2, 38712, Note_on_c, 0, 85, 0
2, 38737, Note_on_c, 0, 51, 0
2, 38855, Note_on_c, 0, 60, 91
2, 38856, Note_on_c, 0, 70, 103
2, 38857, Note_on_c, 0, 82, 99
2, 38858, Note_on_c, 0, 51, 88
2, 38863, Note_on_c, 0, 56, 76
2, 38991, Note_on_c, 0, 60, 0
2, 38996, Note_on_c, 0, 82, 0
2, 38999, Note_on_c, 0, 70, 0
2, 39014, Note_on_c, 0, 51, 0
2, 39022, Note_on_c, 0, 56, 0
2, 39104, Note_on_c, 0, 44, 89
2, 39106, Note_on_c, 0, 85, 105
2, 39108, Note_on_c, 0, 73, 102
2, 39137, Control_c, 0, 64, 127
2, 39226, Note_on_c, 0, 48, 88
2, 39226, Note_on_c, 0, 56, 89
2, 39227, Note_on_c, 0, 51, 84
2, 39344, Note_on_c, 0, 75, 88
2, 39359, Note_on_c, 0, 77, 90
2, 39376, Note_on_c, 0, 80, 96
2, 39389, Control_c, 0, 64, 0
2, 39395, Note_on_c, 0, 85, 0
2, 39395, Note_on_c, 0, 51, 0
2, 39396, Note_on_c, 0, 73, 0
2, 39396, Note_on_c, 0, 44, 0
2, 39396, Note_on_c, 0, 48, 0
2, 39397, Note_on_c, 0, 56, 0
2, 39400, Note_on_c, 0, 75, 0
2, 39467, Note_on_c, 0, 80, 0
2, 39475, Note_on_c, 0, 80, 96
2, 39476, Note_on_c, 0, 75, 101
2, 39477, Note_on_c, 0, 87, 105
2, 39480, Note_on_c, 0, 37, 91
2, 39485, Note_on_c, 0, 49, 99
2, 39505, Control_c, 0, 64, 127
2, 39598, Note_on_c, 0, 75, 0
2, 39598, Note_on_c, 0, 87, 0
2, 39602, Note_on_c, 0, 87, 96
2, 39608, Note_on_c, 0, 75, 86
2, 39728, Note_on_c, 0, 49, 0
2, 39732, Note_on_c, 0, 61, 88
2, 39739, Note_on_c, 0, 49, 82
2, 39740, Note_on_c, 0, 90, 102
2, 39744, Note_on_c, 0, 53, 75
2, 39745, Note_on_c, 0, 78, 91
2, 39859, Note_on_c, 0, 49, 0
2, 39859, Note_on_c, 0, 77, 0
2, 39863, Note_on_c, 0, 49, 79
2, 39864, Note_on_c, 0, 89, 105
2, 39867, Note_on_c, 0, 77, 96
2, 39989, Note_on_c, 0, 53, 0
2, 39994, Note_on_c, 0, 53, 80
2, 39995, Note_on_c, 0, 56, 55
2, 40109, Note_on_c, 0, 85, 101
2, 40112, Note_on_c, 0, 49, 0
2, 40117, Note_on_c, 0, 73, 92
2, 40120, Note_on_c, 0, 49, 84
2, 40235, Note_on_c, 0, 56, 0
2, 40235, Note_on_c, 0, 61, 0
2, 40241, Note_on_c, 0, 56, 91
2, 40241, Note_on_c, 0, 61, 92
2, 40252, Note_on_c, 0, 49, 0
2, 40332, Note_on_c, 0, 90, 0
2, 40333, Note_on_c, 0, 89, 0
2, 40333, Control_c, 0, 64, 0
2, 40333, Note_on_c, 0, 53, 0
2, 40334, Note_on_c, 0, 78, 0
2, 40334, Note_on_c, 0, 80, 0
2, 40334, Note_on_c, 0, 85, 0
2, 40334, Note_on_c, 0, 56, 0
2, 40335, Note_on_c, 0, 73, 0
2, 40335, Note_on_c, 0, 77, 0
2, 40336, Note_on_c, 0, 61, 0
2, 40343, Note_on_c, 0, 37, 0
2, 40350, Note_on_c, 0, 75, 0
2, 40350, Note_on_c, 0, 87, 0
2, 40383, Note_on_c, 0, 87, 104
2, 40383, Note_on_c, 0, 75, 102
2, 40384, Note_on_c, 0, 80, 104
2, 40384, Note_on_c, 0, 46, 99
2, 40386, Note_on_c, 0, 34, 93
2, 40465, Control_c, 0, 64, 127
2, 40627, Note_on_c, 0, 46, 0
2, 40627, Note_on_c, 0, 75, 0
2, 40627, Note_on_c, 0, 87, 0
2, 40631, Note_on_c, 0, 87, 96
2, 40631, Note_on_c, 0, 46, 82
2, 40632, Note_on_c, 0, 75, 89
2, 40767, Note_on_c, 0, 90, 103
2, 40768, Note_on_c, 0, 61, 87
2, 40769, Note_on_c, 0, 78, 93
2, 40770, Note_on_c, 0, 56, 82
2, 40779, Note_on_c, 0, 53, 69
2, 40880, Note_on_c, 0, 46, 0
2, 40888, Note_on_c, 0, 53, 0
2, 40890, Note_on_c, 0, 89, 104
2, 40891, Note_on_c, 0, 46, 82
2, 40892, Note_on_c, 0, 77, 90
2, 40898, Note_on_c, 0, 53, 80
2, 41003, Note_on_c, 0, 53, 0
2, 41014, Note_on_c, 0, 53, 81
2, 41134, Note_on_c, 0, 46, 0
2, 41138, Note_on_c, 0, 85, 101
2, 41139, Note_on_c, 0, 46, 87
2, 41143, Note_on_c, 0, 73, 99
2, 41264, Note_on_c, 0, 56, 0
2, 41264, Note_on_c, 0, 61, 0
2, 41270, Note_on_c, 0, 56, 87
2, 41272, Note_on_c, 0, 53, 0
2, 41276, Note_on_c, 0, 61, 91
2, 41279, Note_on_c, 0, 53, 79
2, 41372, Note_on_c, 0, 46, 0
2, 41380, Note_on_c, 0, 46, 90
2, 41455, Control_c, 0, 64, 0
2, 41461, Note_on_c, 0, 90, 0
2, 41462, Note_on_c, 0, 78, 0
2, 41462, Note_on_c, 0, 87, 0
2, 41463, Note_on_c, 0, 46, 0
2, 41463, Note_on_c, 0, 75, 0
2, 41463, Note_on_c, 0, 85, 0
2, 41464, Note_on_c, 0, 80, 0
2, 41464, Note_on_c, 0, 77, 0
2, 41464, Note_on_c, 0, 53, 0
2, 41465, Note_on_c, 0, 89, 0
2, 41465, Note_on_c, 0, 73, 0
2, 41472, Note_on_c, 0, 34, 0
2, 41472, Note_on_c, 0, 56, 0
2, 41479, Note_on_c, 0, 61, 0
2, 41519, Note_on_c, 0, 87, 107
2, 41521, Note_on_c, 0, 75, 99
2, 41522, Note_on_c, 0, 78, 99
2, 41527, Note_on_c, 0, 82, 93
2, 41528, Note_on_c, 0, 30, 94
2, 41528, Note_on_c, 0, 42, 96
2, 41559, Note_on_c, 0, 42, 0
2, 41564, Note_on_c, 0, 30, 0
2, 41602, Control_c, 0, 64, 127
2, 41633, Note_on_c, 0, 87, 0
2, 41642, Note_on_c, 0, 42, 79
2, 41643, Note_on_c, 0, 87, 100
2, 41769, Note_on_c, 0, 58, 88
2, 41770, Note_on_c, 0, 49, 87
2, 41776, Note_on_c, 0, 90, 103
2, 41779, Note_on_c, 0, 78, 0
2, 41785, Note_on_c, 0, 78, 91
2, 41894, Note_on_c, 0, 42, 0
2, 41898, Note_on_c, 0, 42, 83
2, 41898, Note_on_c, 0, 89, 104
2, 41899, Note_on_c, 0, 77, 95
2, 42009, Note_on_c, 0, 49, 0
2, 42020, Note_on_c, 0, 49, 77
2, 42024, Note_on_c, 0, 42, 0
2, 42029, Note_on_c, 0, 42, 60
2, 42140, Note_on_c, 0, 87, 0
2, 42147, Note_on_c, 0, 87, 104
2, 42147, Note_on_c, 0, 42, 0
2, 42147, Note_on_c, 0, 75, 0
2, 42152, Note_on_c, 0, 75, 97
2, 42153, Note_on_c, 0, 42, 86
2, 42263, Note_on_c, 0, 49, 0
2, 42268, Note_on_c, 0, 49, 77
2, 42377, Control_c, 0, 64, 0
2, 42379, Note_on_c, 0, 87, 0
2, 42379, Note_on_c, 0, 42, 0
2, 42380, Note_on_c, 0, 58, 0
2, 42380, Note_on_c, 0, 49, 0
2, 42380, Note_on_c, 0, 89, 0
2, 42381, Note_on_c, 0, 90, 0
2, 42381, Note_on_c, 0, 75, 0
2, 42381, Note_on_c, 0, 77, 0
2, 42381, Note_on_c, 0, 78, 0
2, 42397, Note_on_c, 0, 73, 107
2, 42397, Note_on_c, 0, 85, 105
2, 42399, Note_on_c, 0, 32, 80
2, 42399, Note_on_c, 0, 44, 94
2, 42401, Note_on_c, 0, 82, 0
2, 42478, Note_on_c, 0, 32, 0
2, 42501, Note_on_c, 0, 44, 0
2, 42501, Note_on_c, 0, 73, 0
2, 42554, Note_on_c, 0, 85, 0
2, 42641, Note_on_c, 0, 44, 89
2, 42643, Note_on_c, 0, 94, 108
2, 42649, Note_on_c, 0, 82, 103
2, 42654, Control_c, 0, 64, 127
2, 42790, Note_on_c, 0, 56, 88
2, 42911, Note_on_c, 0, 51, 86
2, 42996, Note_on_c, 0, 92, 104
2, 42996, Note_on_c, 0, 81, 100
2, 42998, Note_on_c, 0, 84, 102
2, 42998, Note_on_c, 0, 93, 98
2, 42999, Note_on_c, 0, 57, 95
2, 43000, Note_on_c, 0, 92, 0
2, 43005, Note_on_c, 0, 45, 97
2, 43011, Note_on_c, 0, 94, 0
2, 43011, Note_on_c, 0, 44, 0
2, 43011, Control_c, 0, 64, 0
2, 43011, Note_on_c, 0, 82, 0
2, 43012, Note_on_c, 0, 56, 0
2, 43069, Note_on_c, 0, 51, 0
2, 43126, Note_on_c, 0, 41, 95
2, 43135, Note_on_c, 0, 45, 0
2, 43153, Note_on_c, 0, 57, 0
2, 43200, Control_c, 0, 64, 127
2, 43258, Note_on_c, 0, 48, 81
2, 43369, Note_on_c, 0, 53, 83
2, 43416, Control_c, 0, 64, 0
2, 43422, Note_on_c, 0, 93, 0
2, 43430, Note_on_c, 0, 48, 0
2, 43431, Note_on_c, 0, 41, 0
2, 43432, Note_on_c, 0, 84, 0
2, 43432, Note_on_c, 0, 81, 0
2, 43434, Note_on_c, 0, 53, 0
2, 43491, Note_on_c, 0, 75, 101
2, 43504, Note_on_c, 0, 65, 88
2, 43504, Note_on_c, 0, 70, 89
2, 43509, Note_on_c, 0, 58, 100
2, 43509, Note_on_c, 0, 53, 87
2, 43509, Note_on_c, 0, 46, 94
2, 43522, Control_c, 0, 64, 127
2, 43614, Note_on_c, 0, 53, 0
2, 43614, Note_on_c, 0, 70, 0
2, 43614, Note_on_c, 0, 75, 0
2, 43621, Note_on_c, 0, 75, 85
2, 43625, Note_on_c, 0, 70, 78
2, 43625, Note_on_c, 0, 53, 69
2, 43632, Control_c, 0, 64, 0
2, 43635, Note_on_c, 0, 58, 0
2, 43645, Note_on_c, 0, 46, 0
2, 43660, Note_on_c, 0, 65, 0
2, 43714, Note_on_c, 0, 53, 0
2, 43742, Note_on_c, 0, 78, 94
2, 43745, Note_on_c, 0, 70, 0
2, 43747, Note_on_c, 0, 46, 80
2, 43753, Note_on_c, 0, 70, 73
2, 43768, Control_c, 0, 64, 127
2, 43809, Note_on_c, 0, 78, 0
2, 43860, Note_on_c, 0, 70, 0
2, 43865, Note_on_c, 0, 77, 96
2, 43871, Note_on_c, 0, 65, 80
2, 43871, Note_on_c, 0, 70, 94
2, 43872, Note_on_c, 0, 61, 90
2, 43876, Note_on_c, 0, 53, 76
2, 43898, Note_on_c, 0, 75, 0
2, 43904, Note_on_c, 0, 77, 0
2, 43904, Control_c, 0, 64, 0
2, 43906, Note_on_c, 0, 65, 0
2, 43907, Note_on_c, 0, 46, 0
2, 43909, Note_on_c, 0, 70, 0
2, 43937, Note_on_c, 0, 53, 0
2, 43937, Note_on_c, 0, 61, 0
2, 43996, Note_on_c, 0, 46, 85
2, 44060, Control_c, 0, 64, 127
2, 44126, Note_on_c, 0, 73, 99
2, 44130, Note_on_c, 0, 61, 82
2, 44133, Note_on_c, 0, 53, 77
2, 44135, Note_on_c, 0, 70, 89
2, 44137, Note_on_c, 0, 58, 71
2, 44140, Note_on_c, 0, 65, 73
2, 44163, Control_c, 0, 64, 0
2, 44170, Note_on_c, 0, 46, 0
2, 44172, Note_on_c, 0, 61, 0
2, 44177, Note_on_c, 0, 53, 0
2, 44221, Note_on_c, 0, 65, 0
2, 44229, Note_on_c, 0, 58, 0
2, 44249, Note_on_c, 0, 46, 80
2, 44308, Note_on_c, 0, 70, 0
2, 44312, Note_on_c, 0, 73, 0
2, 44381, Note_on_c, 0, 61, 90
2, 44384, Note_on_c, 0, 53, 81
2, 44386, Note_on_c, 0, 75, 106
2, 44387, Note_on_c, 0, 69, 98
2, 44394, Note_on_c, 0, 65, 92
2, 44423, Note_on_c, 0, 53, 0
2, 44426, Note_on_c, 0, 61, 0
2, 44428, Note_on_c, 0, 46, 0
2, 44502, Note_on_c, 0, 45, 90
2, 44505, Control_c, 0, 64, 127
2, 44628, Note_on_c, 0, 75, 0
2, 44636, Note_on_c, 0, 65, 0
2, 44636, Note_on_c, 0, 69, 0
2, 44637, Note_on_c, 0, 53, 83
2, 44639, Note_on_c, 0, 75, 88
2, 44640, Note_on_c, 0, 60, 83
2, 44645, Note_on_c, 0, 69, 80
2, 44647, Note_on_c, 0, 65, 74
2, 44698, Control_c, 0, 64, 0
2, 44699, Note_on_c, 0, 65, 0
2, 44701, Note_on_c, 0, 45, 0
2, 44701, Note_on_c, 0, 69, 0
2, 44701, Note_on_c, 0, 53, 0
2, 44701, Note_on_c, 0, 60, 0
2, 44768, Note_on_c, 0, 78, 93
2, 44768, Note_on_c, 0, 45, 81
2, 44805, Note_on_c, 0, 75, 0
2, 44871, Note_on_c, 0, 45, 0
2, 44893, Note_on_c, 0, 60, 83
2, 44893, Note_on_c, 0, 53, 84
2, 44893, Note_on_c, 0, 77, 95
2, 44917, Note_on_c, 0, 60, 0
2, 44920, Note_on_c, 0, 78, 0
2, 44943, Note_on_c, 0, 53, 0
2, 44974, Note_on_c, 0, 77, 0
2, 45021, Note_on_c, 0, 45, 83
2, 45117, Note_on_c, 0, 45, 0
2, 45146, Note_on_c, 0, 60, 78
2, 45150, Note_on_c, 0, 53, 82
2, 45151, Note_on_c, 0, 73, 101
2, 45154, Note_on_c, 0, 65, 80
2, 45178, Note_on_c, 0, 60, 0
2, 45212, Note_on_c, 0, 53, 0
2, 45258, Control_c, 0, 64, 127
2, 45272, Note_on_c, 0, 45, 84
2, 45383, Note_on_c, 0, 60, 85
2, 45392, Note_on_c, 0, 53, 71
2, 45438, Control_c, 0, 64, 0
2, 45450, Note_on_c, 0, 65, 0
2, 45450, Note_on_c, 0, 60, 0
2, 45451, Note_on_c, 0, 45, 0
2, 45452, Note_on_c, 0, 53, 0
2, 45453, Note_on_c, 0, 73, 0
2, 45515, Note_on_c, 0, 72, 96
2, 45515, Note_on_c, 0, 75, 97
2, 45520, Note_on_c, 0, 68, 95
2, 45521, Note_on_c, 0, 44, 92
2, 45565, Control_c, 0, 64, 127
2, 45642, Note_on_c, 0, 68, 0
2, 45642, Note_on_c, 0, 72, 0
2, 45642, Note_on_c, 0, 75, 0
2, 45646, Note_on_c, 0, 75, 82
2, 45646, Note_on_c, 0, 72, 81
2, 45653, Note_on_c, 0, 68, 82
2, 45655, Note_on_c, 0, 60, 74
2, 45662, Note_on_c, 0, 51, 73
2, 45666, Note_on_c, 0, 56, 77
2, 45745, Control_c, 0, 64, 0
2, 45751, Note_on_c, 0, 56, 0
2, 45752, Note_on_c, 0, 75, 0
2, 45753, Note_on_c, 0, 51, 0
2, 45753, Note_on_c, 0, 60, 0
2, 45753, Note_on_c, 0, 68, 0
2, 45754, Note_on_c, 0, 72, 0
2, 45765, Note_on_c, 0, 44, 0
2, 45765, Note_on_c, 0, 78, 100
2, 45769, Note_on_c, 0, 44, 83
2, 45817, Note_on_c, 0, 44, 0
2, 45898, Note_on_c, 0, 60, 85
2, 45898, Note_on_c, 0, 77, 96
2, 45900, Note_on_c, 0, 56, 86
2, 45902, Note_on_c, 0, 51, 74
2, 45929, Note_on_c, 0, 60, 0
2, 45931, Note_on_c, 0, 56, 0
2, 45934, Note_on_c, 0, 78, 0
2, 45934, Note_on_c, 0, 51, 0
2, 45980, Note_on_c, 0, 77, 0
2, 46023, Note_on_c, 0, 44, 85
2, 46122, Note_on_c, 0, 44, 0
2, 46138, Note_on_c, 0, 75, 98
2, 46144, Note_on_c, 0, 56, 85
2, 46145, Note_on_c, 0, 60, 78
2, 46161, Note_on_c, 0, 51, 60
2, 46172, Control_c, 0, 64, 127
2, 46248, Note_on_c, 0, 60, 0
2, 46262, Note_on_c, 0, 44, 83
2, 46264, Note_on_c, 0, 73, 101
2, 46387, Note_on_c, 0, 51, 0
2, 46392, Note_on_c, 0, 51, 90
2, 46394, Note_on_c, 0, 75, 0
2, 46398, Note_on_c, 0, 75, 105
2, 46402, Note_on_c, 0, 56, 0
2, 46406, Note_on_c, 0, 60, 82
2, 46406, Note_on_c, 0, 70, 98
2, 46408, Note_on_c, 0, 67, 87
2, 46408, Note_on_c, 0, 56, 76
2, 46413, Control_c, 0, 64, 0
2, 46424, Note_on_c, 0, 73, 0
2, 46429, Note_on_c, 0, 44, 0
2, 46438, Note_on_c, 0, 60, 0
2, 46448, Note_on_c, 0, 56, 0
2, 46464, Note_on_c, 0, 51, 0
2, 46519, Note_on_c, 0, 43, 92
2, 46594, Control_c, 0, 64, 127
2, 46659, Note_on_c, 0, 58, 89
2, 46659, Note_on_c, 0, 51, 79
2, 46660, Note_on_c, 0, 73, 104
2, 46673, Note_on_c, 0, 70, 0
2, 46686, Note_on_c, 0, 43, 0
2, 46686, Control_c, 0, 64, 0
2, 46701, Note_on_c, 0, 58, 0
2, 46703, Note_on_c, 0, 51, 0
2, 46776, Note_on_c, 0, 43, 86
2, 46809, Note_on_c, 0, 67, 0
2, 46871, Control_c, 0, 64, 127
2, 46901, Note_on_c, 0, 43, 0
2, 46901, Control_c, 0, 64, 0
2, 46905, Note_on_c, 0, 51, 83
2, 46907, Note_on_c, 0, 58, 91
2, 46910, Note_on_c, 0, 70, 95
2, 46917, Note_on_c, 0, 75, 0
2, 46943, Note_on_c, 0, 58, 0
2, 46944, Note_on_c, 0, 51, 0
2, 47029, Note_on_c, 0, 43, 86
2, 47047, Control_c, 0, 64, 127
2, 47155, Note_on_c, 0, 73, 0
2, 47162, Note_on_c, 0, 58, 94
2, 47163, Note_on_c, 0, 73, 103
2, 47165, Note_on_c, 0, 51, 82
2, 47278, Note_on_c, 0, 43, 0
2, 47288, Note_on_c, 0, 43, 86
2, 47385, Note_on_c, 0, 51, 0
2, 47391, Note_on_c, 0, 75, 81
2, 47394, Note_on_c, 0, 51, 87
2, 47421, Note_on_c, 0, 78, 96
2, 47433, Note_on_c, 0, 82, 91
2, 47460, Control_c, 0, 64, 0
2, 47466, Note_on_c, 0, 73, 0
2, 47466, Note_on_c, 0, 58, 0
2, 47466, Note_on_c, 0, 82, 0
2, 47466, Note_on_c, 0, 51, 0
2, 47467, Note_on_c, 0, 78, 0
2, 47468, Note_on_c, 0, 75, 0
2, 47468, Note_on_c, 0, 43, 0
2, 47477, Note_on_c, 0, 70, 0
2, 47529, Note_on_c, 0, 87, 105
2, 47532, Note_on_c, 0, 78, 101
2, 47534, Note_on_c, 0, 75, 102
2, 47535, Note_on_c, 0, 51, 93
2, 47535, Note_on_c, 0, 82, 93
2, 47536, Note_on_c, 0, 46, 98
2, 47538, Note_on_c, 0, 39, 90
2, 47546, Control_c, 0, 64, 127
2, 47628, Control_c, 0, 64, 0
2, 47636, Note_on_c, 0, 51, 0
2, 47639, Note_on_c, 0, 39, 0
2, 47639, Note_on_c, 0, 46, 0
2, 47642, Note_on_c, 0, 82, 0
2, 47646, Note_on_c, 0, 75, 0
2, 47646, Note_on_c, 0, 87, 0
2, 47647, Note_on_c, 0, 78, 0
2, 47657, Note_on_c, 0, 87, 98
2, 47657, Note_on_c, 0, 75, 90
2, 47778, Note_on_c, 0, 90, 107
2, 47780, Note_on_c, 0, 78, 100
2, 47861, Note_on_c, 0, 75, 0
2, 47861, Note_on_c, 0, 87, 0
2, 47884, Note_on_c, 0, 78, 0
2, 47901, Note_on_c, 0, 89, 109
2, 47901, Note_on_c, 0, 77, 99
2, 47969, Control_c, 0, 64, 127
2, 48084, Control_c, 0, 64, 0
2, 48099, Note_on_c, 0, 90, 0
2, 48159, Note_on_c, 0, 85, 107
2, 48163, Note_on_c, 0, 61, 93
2, 48164, Note_on_c, 0, 58, 88
2, 48165, Note_on_c, 0, 73, 101
2, 48170, Note_on_c, 0, 54, 82
2, 48238, Control_c, 0, 64, 127
2, 48279, Note_on_c, 0, 51, 89
2, 48337, Note_on_c, 0, 77, 0
2, 48341, Control_c, 0, 64, 0
2, 48342, Note_on_c, 0, 61, 0
2, 48343, Note_on_c, 0, 51, 0
2, 48343, Note_on_c, 0, 54, 0
2, 48344, Note_on_c, 0, 85, 0
2, 48344, Note_on_c, 0, 73, 0
2, 48345, Note_on_c, 0, 89, 0
2, 48345, Note_on_c, 0, 58, 0
2, 48427, Note_on_c, 0, 87, 107
2, 48427, Note_on_c, 0, 75, 106
2, 48434, Note_on_c, 0, 78, 103
2, 48434, Note_on_c, 0, 32, 91
2, 48434, Note_on_c, 0, 44, 101
2, 48435, Note_on_c, 0, 82, 92
2, 48460, Control_c, 0, 64, 127
2, 48605, Note_on_c, 0, 82, 0
2, 48606, Note_on_c, 0, 75, 0
2, 48607, Control_c, 0, 64, 0
2, 48610, Note_on_c, 0, 87, 0
2, 48610, Note_on_c, 0, 78, 0
2, 48614, Note_on_c, 0, 32, 0
2, 48614, Note_on_c, 0, 44, 0
2, 48664, Note_on_c, 0, 87, 102
2, 48668, Note_on_c, 0, 75, 93
2, 48760, Note_on_c, 0, 75, 0
2, 48794, Note_on_c, 0, 90, 107
2, 48796, Note_on_c, 0, 78, 98
2, 48821, Note_on_c, 0, 87, 0
2, 48918, Note_on_c, 0, 89, 107
2, 48919, Note_on_c, 0, 77, 97
2, 48944, Control_c, 0, 64, 127
2, 49067, Control_c, 0, 64, 0
2, 49178, Note_on_c, 0, 51, 95
2, 49178, Note_on_c, 0, 87, 107
2, 49178, Note_on_c, 0, 75, 104
2, 49179, Note_on_c, 0, 56, 97
2, 49198, Control_c, 0, 64, 127
2, 49205, Note_on_c, 0, 90, 0
2, 49296, Note_on_c, 0, 44, 90
2, 49301, Note_on_c, 0, 72, 102
2, 49302, Note_on_c, 0, 84, 104
2, 49410, Control_c, 0, 64, 0
2, 49413, Note_on_c, 0, 89, 0
2, 49418, Note_on_c, 0, 87, 0
2, 49418, Note_on_c, 0, 75, 0
2, 49418, Note_on_c, 0, 51, 0
2, 49419, Note_on_c, 0, 44, 0
2, 49419, Note_on_c, 0, 84, 0
2, 49420, Note_on_c, 0, 56, 0
2, 49420, Note_on_c, 0, 72, 0
2, 49420, Note_on_c, 0, 77, 0
2, 49420, Note_on_c, 0, 78, 0
2, 49423, Note_on_c, 0, 85, 108
2, 49425, Note_on_c, 0, 73, 107
2, 49425, Note_on_c, 0, 77, 95
2, 49425, Note_on_c, 0, 80, 99
2, 49556, Note_on_c, 0, 37, 100
2, 49559, Note_on_c, 0, 25, 92
2, 49628, Control_c, 0, 64, 127
2, 49814, Note_on_c, 0, 56, 75
2, 49822, Note_on_c, 0, 53, 69
2, 49823, Note_on_c, 0, 61, 77
2, 49823, Note_on_c, 0, 49, 77
2, 49824, Note_on_c, 0, 75, 94
2, 49935, Note_on_c, 0, 37, 0
2, 49935, Note_on_c, 0, 77, 0
2, 49942, Note_on_c, 0, 37, 76
2, 49945, Note_on_c, 0, 77, 93
2, 50050, Note_on_c, 0, 53, 0
2, 50060, Note_on_c, 0, 53, 82
2, 50181, Note_on_c, 0, 49, 0
2, 50181, Note_on_c, 0, 73, 0
2, 50188, Note_on_c, 0, 49, 71
2, 50191, Note_on_c, 0, 73, 94
2, 50319, Note_on_c, 0, 53, 0
2, 50319, Note_on_c, 0, 56, 0
2, 50319, Note_on_c, 0, 61, 0
2, 50326, Note_on_c, 0, 53, 77
2, 50327, Note_on_c, 0, 61, 82
2, 50329, Note_on_c, 0, 56, 71
2, 50434, Note_on_c, 0, 75, 0
2, 50445, Note_on_c, 0, 75, 89
2, 50449, Note_on_c, 0, 49, 0
2, 50454, Note_on_c, 0, 49, 66
2, 50580, Note_on_c, 0, 53, 0
2, 50585, Note_on_c, 0, 53, 67
2, 50693, Note_on_c, 0, 72, 94
2, 50695, Note_on_c, 0, 49, 0
2, 50699, Note_on_c, 0, 49, 70
2, 50818, Note_on_c, 0, 53, 0
2, 50826, Note_on_c, 0, 56, 0
2, 50826, Note_on_c, 0, 61, 0
2, 50828, Note_on_c, 0, 53, 60
2, 50830, Note_on_c, 0, 56, 82
2, 50832, Note_on_c, 0, 61, 85
2, 50933, Note_on_c, 0, 73, 0
2, 50941, Note_on_c, 0, 85, 0
2, 50943, Note_on_c, 0, 73, 96
2, 50949, Note_on_c, 0, 49, 0
2, 50958, Note_on_c, 0, 49, 74
2, 51064, Note_on_c, 0, 53, 0
2, 51075, Note_on_c, 0, 53, 83
2, 51187, Note_on_c, 0, 25, 0
2, 51194, Note_on_c, 0, 56, 0
2, 51203, Note_on_c, 0, 56, 83
2, 51205, Note_on_c, 0, 68, 99
2, 51346, Note_on_c, 0, 36, 80
2, 51349, Note_on_c, 0, 48, 86
2, 51461, Note_on_c, 0, 44, 86
2, 51568, Note_on_c, 0, 75, 0
2, 51568, Note_on_c, 0, 37, 0
2, 51568, Note_on_c, 0, 48, 0
2, 51569, Note_on_c, 0, 61, 0
2, 51569, Note_on_c, 0, 49, 0
2, 51569, Note_on_c, 0, 56, 0
2, 51569, Note_on_c, 0, 72, 0
2, 51569, Note_on_c, 0, 53, 0
2, 51570, Note_on_c, 0, 44, 0
2, 51570, Note_on_c, 0, 80, 0
2, 51571, Note_on_c, 0, 77, 0
2, 51571, Control_c, 0, 64, 0
2, 51586, Note_on_c, 0, 36, 0
2, 51586, Note_on_c, 0, 68, 0
2, 51586, Note_on_c, 0, 73, 0
2, 51590, Note_on_c, 0, 78, 105
2, 51597, Note_on_c, 0, 68, 98
2, 51597, Note_on_c, 0, 73, 99
2, 51598, Note_on_c, 0, 46, 94
2, 51601, Note_on_c, 0, 34, 86
2, 51740, Note_on_c, 0, 34, 0
2, 51840, Control_c, 0, 64, 127
2, 51844, Note_on_c, 0, 61, 83
2, 51851, Note_on_c, 0, 53, 69
2, 51853, Note_on_c, 0, 75, 92
2, 51855, Note_on_c, 0, 46, 0
2, 51857, Note_on_c, 0, 56, 76
2, 51970, Note_on_c, 0, 46, 81
2, 51971, Note_on_c, 0, 77, 94
2, 52093, Note_on_c, 0, 53, 0
2, 52099, Note_on_c, 0, 53, 76
2, 52216, Note_on_c, 0, 46, 0
2, 52216, Note_on_c, 0, 73, 0
2, 52220, Note_on_c, 0, 46, 73
2, 52222, Note_on_c, 0, 73, 97
2, 52331, Note_on_c, 0, 56, 0
2, 52339, Note_on_c, 0, 61, 0
2, 52342, Note_on_c, 0, 56, 87
2, 52345, Note_on_c, 0, 61, 87
2, 52346, Note_on_c, 0, 53, 0
2, 52357, Note_on_c, 0, 53, 77
2, 52462, Note_on_c, 0, 46, 0
2, 52462, Note_on_c, 0, 75, 0
2, 52472, Note_on_c, 0, 75, 91
2, 52472, Note_on_c, 0, 46, 79
2, 52600, Note_on_c, 0, 53, 0
2, 52609, Note_on_c, 0, 53, 74
2, 52723, Note_on_c, 0, 46, 0
2, 52727, Note_on_c, 0, 46, 84
2, 52728, Note_on_c, 0, 72, 96
2, 52846, Note_on_c, 0, 53, 0
2, 52846, Note_on_c, 0, 56, 0
2, 52846, Note_on_c, 0, 61, 0
2, 52852, Note_on_c, 0, 56, 81
2, 52856, Note_on_c, 0, 61, 86
2, 52857, Note_on_c, 0, 53, 79
2, 52968, Note_on_c, 0, 73, 0
2, 52973, Note_on_c, 0, 73, 99
2, 52976, Note_on_c, 0, 46, 0
2, 52984, Note_on_c, 0, 46, 86
2, 53091, Note_on_c, 0, 53, 0
2, 53102, Note_on_c, 0, 53, 82
2, 53230, Note_on_c, 0, 68, 0
2, 53234, Note_on_c, 0, 68, 99
2, 53237, Note_on_c, 0, 44, 80
2, 53239, Note_on_c, 0, 32, 84
2, 53337, Note_on_c, 0, 44, 0
2, 53348, Note_on_c, 0, 44, 84
2, 53459, Note_on_c, 0, 39, 83
2, 53493, Control_c, 0, 64, 0
2, 53506, Note_on_c, 0, 72, 0
2, 53507, Note_on_c, 0, 78, 0
2, 53507, Note_on_c, 0, 75, 0
2, 53507, Note_on_c, 0, 53, 0
2, 53508, Note_on_c, 0, 68, 0
2, 53508, Note_on_c, 0, 46, 0
2, 53508, Note_on_c, 0, 56, 0
2, 53508, Note_on_c, 0, 77, 0
2, 53508, Note_on_c, 0, 73, 0
2, 53521, Note_on_c, 0, 32, 0
2, 53521, Note_on_c, 0, 44, 0
2, 53521, Note_on_c, 0, 61, 0
2, 53537, Note_on_c, 0, 39, 0
2, 53595, Note_on_c, 0, 80, 104
2, 53598, Note_on_c, 0, 77, 96
2, 53600, Note_on_c, 0, 68, 104
2, 53602, Note_on_c, 0, 73, 104
2, 53608, Note_on_c, 0, 30, 87
2, 53609, Note_on_c, 0, 42, 96
2, 53690, Control_c, 0, 64, 127
2, 53729, Note_on_c, 0, 42, 0
2, 53740, Note_on_c, 0, 42, 48
2, 53852, Note_on_c, 0, 77, 0
2, 53856, Note_on_c, 0, 49, 73
2, 53856, Note_on_c, 0, 77, 88
2, 53857, Note_on_c, 0, 58, 81
2, 53975, Note_on_c, 0, 42, 0
2, 53978, Note_on_c, 0, 78, 99
2, 53978, Note_on_c, 0, 42, 87
2, 54097, Note_on_c, 0, 49, 0
2, 54108, Note_on_c, 0, 49, 73
2, 54220, Note_on_c, 0, 42, 0
2, 54232, Note_on_c, 0, 42, 82
2, 54239, Note_on_c, 0, 75, 94
2, 54359, Note_on_c, 0, 49, 0
2, 54359, Note_on_c, 0, 58, 0
2, 54366, Note_on_c, 0, 49, 88
2, 54368, Note_on_c, 0, 58, 92
2, 54370, Note_on_c, 0, 54, 73
2, 54374, Note_on_c, 0, 54, 0
2, 54481, Note_on_c, 0, 42, 0
2, 54481, Note_on_c, 0, 77, 0
2, 54491, Note_on_c, 0, 77, 96
2, 54492, Note_on_c, 0, 42, 82
2, 54612, Note_on_c, 0, 49, 0
2, 54616, Note_on_c, 0, 49, 73
2, 54735, Note_on_c, 0, 42, 0
2, 54743, Note_on_c, 0, 73, 0
2, 54746, Note_on_c, 0, 42, 82
2, 54747, Note_on_c, 0, 73, 99
2, 54858, Note_on_c, 0, 49, 0
2, 54858, Note_on_c, 0, 58, 0
2, 54867, Note_on_c, 0, 49, 86
2, 54869, Note_on_c, 0, 58, 89
2, 54870, Note_on_c, 0, 54, 68
2, 54988, Note_on_c, 0, 42, 0
2, 54988, Note_on_c, 0, 75, 0
2, 54993, Note_on_c, 0, 75, 95
2, 54993, Note_on_c, 0, 42, 82
2, 55111, Note_on_c, 0, 49, 0
2, 55121, Note_on_c, 0, 49, 80
2, 55242, Note_on_c, 0, 42, 0
2, 55250, Note_on_c, 0, 42, 81
2, 55255, Note_on_c, 0, 72, 97
2, 55372, Note_on_c, 0, 49, 0
2, 55372, Note_on_c, 0, 54, 0
2, 55372, Note_on_c, 0, 58, 0
2, 55378, Note_on_c, 0, 58, 94
2, 55383, Note_on_c, 0, 49, 87
2, 55384, Note_on_c, 0, 54, 74
2, 55488, Note_on_c, 0, 42, 0
2, 55495, Note_on_c, 0, 42, 85
2, 55600, Control_c, 0, 64, 0
2, 55601, Note_on_c, 0, 42, 0
2, 55604, Note_on_c, 0, 49, 0
2, 55604, Note_on_c, 0, 73, 0
2, 55604, Note_on_c, 0, 58, 0
2, 55605, Note_on_c, 0, 78, 0
2, 55605, Note_on_c, 0, 77, 0
2, 55610, Note_on_c, 0, 30, 0
2, 55610, Note_on_c, 0, 68, 0
2, 55618, Note_on_c, 0, 54, 0
2, 55626, Note_on_c, 0, 72, 0
2, 55626, Note_on_c, 0, 80, 0
2, 55633, Note_on_c, 0, 75, 0
2, 55635, Note_on_c, 0, 80, 108
2, 55637, Note_on_c, 0, 72, 100
2, 55637, Note_on_c, 0, 75, 91
2, 55638, Note_on_c, 0, 68, 102
2, 55639, Note_on_c, 0, 44, 96
2, 55642, Note_on_c, 0, 32, 88
2, 55682, Note_on_c, 0, 44, 0
2, 55687, Control_c, 0, 64, 127
2, 55848, Note_on_c, 0, 32, 0
2, 55880, Note_on_c, 0, 60, 81
2, 55881, Note_on_c, 0, 77, 92
2, 55883, Note_on_c, 0, 51, 77
2, 56013, Note_on_c, 0, 78, 97
2, 56013, Note_on_c, 0, 44, 87
2, 56125, Note_on_c, 0, 51, 0
2, 56135, Note_on_c, 0, 51, 81
2, 56138, Note_on_c, 0, 56, 86
2, 56263, Note_on_c, 0, 44, 0
2, 56263, Note_on_c, 0, 75, 0
2, 56268, Note_on_c, 0, 75, 96
2, 56270, Note_on_c, 0, 44, 88
2, 56378, Note_on_c, 0, 51, 0
2, 56386, Note_on_c, 0, 51, 86
2, 56490, Note_on_c, 0, 60, 0
2, 56491, Note_on_c, 0, 51, 0
2, 56491, Note_on_c, 0, 72, 0
2, 56491, Note_on_c, 0, 77, 0
2, 56491, Note_on_c, 0, 75, 0
2, 56491, Note_on_c, 0, 78, 0
2, 56493, Note_on_c, 0, 56, 0
2, 56509, Note_on_c, 0, 68, 0
2, 56515, Control_c, 0, 64, 0
2, 56517, Note_on_c, 0, 80, 0
2, 56524, Note_on_c, 0, 44, 0
2, 56527, Note_on_c, 0, 80, 106
2, 56528, Note_on_c, 0, 89, 107
2, 56528, Note_on_c, 0, 77, 96
2, 56528, Note_on_c, 0, 85, 99
2, 56529, Note_on_c, 0, 44, 96
2, 56531, Note_on_c, 0, 32, 88
2, 56586, Note_on_c, 0, 44, 0
2, 56593, Note_on_c, 0, 77, 0
2, 56632, Note_on_c, 0, 32, 0
2, 56647, Note_on_c, 0, 89, 0
2, 56678, Note_on_c, 0, 80, 0
2, 56701, Note_on_c, 0, 85, 0
2, 56782, Note_on_c, 0, 87, 102
2, 56784, Note_on_c, 0, 75, 101
2, 56786, Note_on_c, 0, 46, 94
2, 56788, Note_on_c, 0, 34, 85
2, 56816, Control_c, 0, 64, 127
2, 56862, Note_on_c, 0, 46, 0
2, 56868, Control_c, 0, 64, 0
2, 56878, Note_on_c, 0, 75, 0
2, 56893, Note_on_c, 0, 34, 0
2, 56993, Note_on_c, 0, 87, 0
2, 57033, Note_on_c, 0, 85, 103
2, 57034, Note_on_c, 0, 73, 105
2, 57035, Note_on_c, 0, 48, 89
2, 57036, Note_on_c, 0, 36, 81
2, 57040, Note_on_c, 0, 80, 73
2, 57054, Control_c, 0, 64, 127
2, 57150, Control_c, 0, 64, 0
2, 57150, Note_on_c, 0, 36, 0
2, 57154, Note_on_c, 0, 73, 0
2, 57154, Note_on_c, 0, 48, 0
2, 57157, Note_on_c, 0, 85, 0
2, 57162, Note_on_c, 0, 80, 0
2, 57282, Note_on_c, 0, 44, 93
2, 57282, Note_on_c, 0, 72, 104
2, 57282, Note_on_c, 0, 84, 107
2, 57315, Control_c, 0, 64, 127
2, 57400, Note_on_c, 0, 44, 0
2, 57404, Note_on_c, 0, 32, 85
2, 57406, Note_on_c, 0, 44, 81
2, 57502, Note_on_c, 0, 78, 94
2, 57538, Note_on_c, 0, 80, 92
2, 57561, Control_c, 0, 64, 0
2, 57569, Note_on_c, 0, 72, 0
2, 57572, Note_on_c, 0, 84, 0
2, 57573, Note_on_c, 0, 44, 0
2, 57574, Note_on_c, 0, 32, 0
2, 57577, Note_on_c, 0, 78, 0
2, 57581, Note_on_c, 0, 80, 0
2, 57644, Note_on_c, 0, 90, 106
2, 57647, Note_on_c, 0, 78, 105
2, 57648, Note_on_c, 0, 85, 94
2, 57650, Note_on_c, 0, 49, 98
2, 57650, Note_on_c, 0, 80, 97
2, 57651, Note_on_c, 0, 37, 90
2, 57669, Control_c, 0, 64, 127
2, 57778, Note_on_c, 0, 44, 82
2, 57779, Note_on_c, 0, 32, 79
2, 57784, Note_on_c, 0, 49, 0
2, 57867, Control_c, 0, 64, 0
2, 57868, Note_on_c, 0, 32, 0
2, 57870, Note_on_c, 0, 44, 0
2, 57871, Note_on_c, 0, 90, 0
2, 57872, Note_on_c, 0, 78, 0
2, 57872, Note_on_c, 0, 37, 0
2, 57872, Note_on_c, 0, 80, 0
2, 57873, Note_on_c, 0, 85, 0
2, 57902, Note_on_c, 0, 87, 100
2, 57912, Note_on_c, 0, 49, 82
2, 57915, Note_on_c, 0, 37, 73
2, 57942, Note_on_c, 0, 37, 0
2, 57948, Note_on_c, 0, 87, 0
2, 57960, Note_on_c, 0, 49, 0
2, 58033, Note_on_c, 0, 89, 107
2, 58034, Note_on_c, 0, 77, 100
2, 58036, Note_on_c, 0, 80, 103
2, 58037, Note_on_c, 0, 85, 94
2, 58038, Note_on_c, 0, 44, 81
2, 58041, Note_on_c, 0, 32, 75
2, 58070, Note_on_c, 0, 44, 0
2, 58114, Note_on_c, 0, 32, 0
2, 58165, Note_on_c, 0, 49, 86
2, 58165, Note_on_c, 0, 37, 86
2, 58201, Note_on_c, 0, 49, 0
2, 58202, Note_on_c, 0, 37, 0
2, 58211, Note_on_c, 0, 85, 0
2, 58237, Note_on_c, 0, 80, 0
2, 58252, Note_on_c, 0, 77, 0
2, 58252, Note_on_c, 0, 89, 0
2, 58294, Note_on_c, 0, 44, 89
2, 58294, Note_on_c, 0, 80, 95
2, 58295, Note_on_c, 0, 85, 100
2, 58295, Note_on_c, 0, 32, 80
2, 58296, Note_on_c, 0, 77, 85
2, 58326, Note_on_c, 0, 77, 0
2, 58326, Note_on_c, 0, 44, 0
2, 58332, Note_on_c, 0, 32, 0
2, 58375, Note_on_c, 0, 80, 0
2, 58414, Note_on_c, 0, 49, 86
2, 58416, Note_on_c, 0, 37, 83
2, 58446, Note_on_c, 0, 37, 0
2, 58460, Note_on_c, 0, 49, 0
2, 58460, Note_on_c, 0, 85, 0
2, 58539, Note_on_c, 0, 80, 101
2, 58539, Note_on_c, 0, 44, 87
2, 58540, Note_on_c, 0, 87, 105
2, 58541, Note_on_c, 0, 32, 81
2, 58543, Note_on_c, 0, 77, 92
2, 58571, Note_on_c, 0, 44, 0
2, 58613, Note_on_c, 0, 32, 0
2, 58652, Note_on_c, 0, 77, 0
2, 58666, Note_on_c, 0, 49, 82
2, 58667, Note_on_c, 0, 37, 83
2, 58694, Note_on_c, 0, 49, 0
2, 58698, Note_on_c, 0, 37, 0
2, 58701, Note_on_c, 0, 87, 0
2, 58703, Note_on_c, 0, 80, 0
2, 58786, Note_on_c, 0, 44, 81
2, 58787, Note_on_c, 0, 84, 99
2, 58787, Note_on_c, 0, 32, 81
2, 58787, Note_on_c, 0, 80, 87
2, 58793, Note_on_c, 0, 77, 80
2, 58823, Note_on_c, 0, 44, 0
2, 58824, Note_on_c, 0, 32, 0
2, 58874, Note_on_c, 0, 77, 0
2, 58885, Note_on_c, 0, 80, 0
2, 58893, Note_on_c, 0, 84, 0
2, 58903, Note_on_c, 0, 49, 86
2, 58904, Note_on_c, 0, 37, 87
2, 58934, Note_on_c, 0, 49, 0
2, 58940, Note_on_c, 0, 37, 0
2, 59023, Note_on_c, 0, 32, 79
2, 59023, Note_on_c, 0, 44, 81
2, 59039, Note_on_c, 0, 85, 106
2, 59043, Note_on_c, 0, 77, 88
2, 59044, Note_on_c, 0, 80, 95
2, 59071, Note_on_c, 0, 44, 0
2, 59097, Note_on_c, 0, 32, 0
2, 59162, Note_on_c, 0, 49, 79
2, 59163, Note_on_c, 0, 37, 76
2, 59189, Note_on_c, 0, 77, 0
2, 59193, Note_on_c, 0, 49, 0
2, 59212, Note_on_c, 0, 37, 0
2, 59212, Note_on_c, 0, 80, 0
2, 59258, Note_on_c, 0, 85, 0
2, 59276, Note_on_c, 0, 32, 72
2, 59276, Note_on_c, 0, 80, 97
2, 59277, Note_on_c, 0, 44, 72
2, 59343, Note_on_c, 0, 44, 0
2, 59351, Control_c, 0, 64, 127
2, 59398, Note_on_c, 0, 49, 83
2, 59401, Note_on_c, 0, 37, 81
2, 59427, Note_on_c, 0, 32, 0
2, 59520, Note_on_c, 0, 32, 84
2, 59522, Note_on_c, 0, 44, 89
2, 59542, Note_on_c, 0, 49, 0
2, 59546, Note_on_c, 0, 37, 0
2, 59546, Note_on_c, 0, 80, 0
2, 59546, Control_c, 0, 64, 0
2, 59548, Note_on_c, 0, 32, 0
2, 59548, Note_on_c, 0, 44, 0
2, 59656, Note_on_c, 0, 46, 89
2, 59661, Note_on_c, 0, 90, 105
2, 59661, Note_on_c, 0, 78, 102
2, 59661, Note_on_c, 0, 34, 78
2, 59662, Note_on_c, 0, 82, 100
2, 59665, Note_on_c, 0, 85, 101
2, 59694, Note_on_c, 0, 46, 0
2, 59696, Control_c, 0, 64, 127
2, 59785, Note_on_c, 0, 29, 82
2, 59785, Note_on_c, 0, 41, 78
2, 59800, Control_c, 0, 64, 0
2, 59811, Note_on_c, 0, 34, 0
2, 59815, Note_on_c, 0, 41, 0
2, 59816, Note_on_c, 0, 29, 0
2, 59829, Note_on_c, 0, 78, 0
2, 59834, Note_on_c, 0, 82, 0
2, 59842, Note_on_c, 0, 85, 0
2, 59842, Note_on_c, 0, 90, 0
2, 59915, Note_on_c, 0, 87, 101
2, 59916, Note_on_c, 0, 46, 77
2, 59918, Note_on_c, 0, 34, 69
2, 59947, Note_on_c, 0, 46, 0
2, 59988, Note_on_c, 0, 34, 0
2, 60019, Note_on_c, 0, 87, 0
2, 60031, Note_on_c, 0, 29, 83
2, 60036, Note_on_c, 0, 41, 82
2, 60040, Note_on_c, 0, 89, 105
2, 60045, Note_on_c, 0, 77, 96
2, 60048, Note_on_c, 0, 82, 101
2, 60073, Note_on_c, 0, 29, 0
2, 60076, Note_on_c, 0, 41, 0
2, 60083, Note_on_c, 0, 85, 68
2, 60142, Control_c, 0, 64, 127
2, 60162, Note_on_c, 0, 46, 89
2, 60164, Note_on_c, 0, 34, 83
2, 60288, Note_on_c, 0, 85, 0
2, 60288, Control_c, 0, 64, 0
2, 60288, Note_on_c, 0, 41, 78
2, 60290, Note_on_c, 0, 29, 75
2, 60293, Note_on_c, 0, 85, 99
2, 60293, Note_on_c, 0, 34, 0
2, 60295, Note_on_c, 0, 77, 0
2, 60295, Note_on_c, 0, 82, 0
2, 60300, Note_on_c, 0, 82, 88
2, 60303, Note_on_c, 0, 46, 0
2, 60305, Note_on_c, 0, 77, 75
2, 60326, Note_on_c, 0, 41, 0
2, 60330, Note_on_c, 0, 77, 0
2, 60341, Note_on_c, 0, 29, 0
2, 60341, Note_on_c, 0, 89, 0
2, 60372, Note_on_c, 0, 82, 0
2, 60414, Note_on_c, 0, 46, 79
2, 60415, Note_on_c, 0, 34, 71
2, 60441, Note_on_c, 0, 85, 0
2, 60448, Note_on_c, 0, 46, 0
2, 60452, Note_on_c, 0, 34, 0
2, 60534, Note_on_c, 0, 29, 86
2, 60535, Note_on_c, 0, 41, 79
2, 60544, Note_on_c, 0, 87, 103
2, 60546, Note_on_c, 0, 77, 86
2, 60552, Note_on_c, 0, 82, 99
2, 60577, Note_on_c, 0, 29, 0
2, 60578, Note_on_c, 0, 41, 0
2, 60661, Note_on_c, 0, 46, 78
2, 60663, Note_on_c, 0, 34, 72
2, 60697, Note_on_c, 0, 46, 0
2, 60741, Note_on_c, 0, 34, 0
2, 60783, Note_on_c, 0, 41, 75
2, 60785, Note_on_c, 0, 29, 77
2, 60794, Note_on_c, 0, 77, 0
2, 60794, Note_on_c, 0, 82, 0
2, 60796, Note_on_c, 0, 84, 98
2, 60799, Note_on_c, 0, 77, 76
2, 60800, Note_on_c, 0, 82, 83
2, 60821, Note_on_c, 0, 41, 0
2, 60822, Note_on_c, 0, 29, 0
2, 60840, Note_on_c, 0, 87, 0
2, 60914, Note_on_c, 0, 46, 78
2, 60914, Note_on_c, 0, 34, 72
2, 60928, Note_on_c, 0, 84, 0
2, 60943, Note_on_c, 0, 46, 0
2, 60948, Note_on_c, 0, 77, 0
2, 60956, Note_on_c, 0, 82, 0
2, 60979, Note_on_c, 0, 34, 0
2, 61041, Note_on_c, 0, 29, 72
2, 61041, Note_on_c, 0, 41, 68
2, 61044, Note_on_c, 0, 85, 106
2, 61047, Note_on_c, 0, 82, 102
2, 61048, Note_on_c, 0, 29, 0
2, 61052, Note_on_c, 0, 77, 84
2, 61094, Note_on_c, 0, 41, 0
2, 61109, Control_c, 0, 64, 127
2, 61167, Note_on_c, 0, 46, 79
2, 61168, Note_on_c, 0, 34, 72
2, 61283, Note_on_c, 0, 80, 99
2, 61289, Note_on_c, 0, 29, 87
2, 61291, Note_on_c, 0, 41, 73
2, 61295, Note_on_c, 0, 46, 0
2, 61297, Note_on_c, 0, 85, 0
2, 61298, Note_on_c, 0, 77, 0
2, 61299, Note_on_c, 0, 82, 0
2, 61317, Note_on_c, 0, 34, 0
2, 61412, Note_on_c, 0, 46, 90
2, 61414, Note_on_c, 0, 34, 75
2, 61524, Note_on_c, 0, 29, 0
2, 61524, Note_on_c, 0, 41, 0
2, 61532, Note_on_c, 0, 29, 78
2, 61533, Note_on_c, 0, 41, 63
2, 61535, Control_c, 0, 64, 0
2, 61542, Note_on_c, 0, 46, 0
2, 61549, Note_on_c, 0, 80, 0
2, 61549, Note_on_c, 0, 34, 0
2, 61563, Note_on_c, 0, 29, 0
2, 61578, Note_on_c, 0, 41, 0
2, 61666, Note_on_c, 0, 85, 100
2, 61666, Note_on_c, 0, 80, 104
2, 61667, Note_on_c, 0, 42, 91
2, 61667, Note_on_c, 0, 92, 102
2, 61670, Note_on_c, 0, 54, 92
2, 61670, Note_on_c, 0, 89, 92
2, 61794, Note_on_c, 0, 49, 76
2, 61795, Note_on_c, 0, 37, 82
2, 61816, Note_on_c, 0, 42, 0
2, 61816, Note_on_c, 0, 54, 0
2, 61818, Note_on_c, 0, 89, 0
2, 61819, Note_on_c, 0, 80, 0
2, 61822, Note_on_c, 0, 37, 0
2, 61824, Note_on_c, 0, 85, 0
2, 61839, Note_on_c, 0, 49, 0
2, 61847, Note_on_c, 0, 92, 0
2, 61912, Note_on_c, 0, 89, 94
2, 61914, Note_on_c, 0, 80, 95
2, 61918, Note_on_c, 0, 42, 83
2, 61920, Note_on_c, 0, 85, 71
2, 61921, Note_on_c, 0, 54, 72
2, 61951, Note_on_c, 0, 42, 0
2, 61956, Note_on_c, 0, 80, 0
2, 61969, Note_on_c, 0, 54, 0
2, 61992, Note_on_c, 0, 85, 0
2, 62023, Note_on_c, 0, 89, 0
2, 62043, Note_on_c, 0, 90, 104
2, 62043, Note_on_c, 0, 49, 78
2, 62043, Note_on_c, 0, 37, 75
2, 62047, Note_on_c, 0, 85, 96
2, 62049, Note_on_c, 0, 80, 94
2, 62081, Note_on_c, 0, 49, 0
2, 62108, Note_on_c, 0, 37, 0
2, 62162, Note_on_c, 0, 42, 90
2, 62164, Note_on_c, 0, 54, 85
2, 62246, Note_on_c, 0, 54, 0
2, 62254, Note_on_c, 0, 80, 0
2, 62287, Note_on_c, 0, 37, 84
2, 62289, Note_on_c, 0, 49, 79
2, 62292, Note_on_c, 0, 42, 0
2, 62312, Note_on_c, 0, 87, 98
2, 62315, Note_on_c, 0, 85, 0
2, 62326, Note_on_c, 0, 85, 74
2, 62328, Note_on_c, 0, 80, 66
2, 62330, Note_on_c, 0, 90, 0
2, 62338, Note_on_c, 0, 37, 0
2, 62338, Note_on_c, 0, 49, 0
2, 62410, Note_on_c, 0, 42, 94
2, 62411, Note_on_c, 0, 54, 91
2, 62442, Note_on_c, 0, 54, 0
2, 62442, Note_on_c, 0, 87, 0
2, 62446, Note_on_c, 0, 80, 0
2, 62446, Note_on_c, 0, 85, 0
2, 62499, Note_on_c, 0, 42, 0
2, 62535, Note_on_c, 0, 49, 88
2, 62537, Note_on_c, 0, 37, 86
2, 62549, Note_on_c, 0, 80, 99
2, 62549, Note_on_c, 0, 89, 103
2, 62554, Note_on_c, 0, 85, 95
2, 62570, Note_on_c, 0, 49, 0
2, 62599, Note_on_c, 0, 37, 0
2, 62659, Note_on_c, 0, 42, 93
2, 62663, Note_on_c, 0, 54, 92
2, 62699, Note_on_c, 0, 54, 0
2, 62704, Note_on_c, 0, 89, 0
2, 62706, Note_on_c, 0, 85, 0
2, 62709, Note_on_c, 0, 80, 0
2, 62737, Note_on_c, 0, 42, 0
2, 62795, Note_on_c, 0, 37, 85
2, 62796, Note_on_c, 0, 49, 88
2, 62799, Note_on_c, 0, 85, 100
2, 62801, Note_on_c, 0, 80, 90
2, 62845, Note_on_c, 0, 37, 0
2, 62845, Note_on_c, 0, 49, 0
2, 62876, Note_on_c, 0, 85, 0
2, 62911, Note_on_c, 0, 42, 87
2, 62913, Note_on_c, 0, 54, 91
2, 62945, Note_on_c, 0, 80, 0
2, 62950, Note_on_c, 0, 54, 0
2, 62999, Note_on_c, 0, 42, 0
2, 63039, Note_on_c, 0, 80, 99
2, 63040, Note_on_c, 0, 87, 102
2, 63041, Note_on_c, 0, 84, 97
2, 63045, Note_on_c, 0, 37, 76
2, 63045, Note_on_c, 0, 49, 83
2, 63070, Note_on_c, 0, 37, 0
2, 63071, Note_on_c, 0, 49, 0
2, 63162, Note_on_c, 0, 42, 83
2, 63164, Note_on_c, 0, 54, 85
2, 63206, Control_c, 0, 64, 127
2, 63267, Note_on_c, 0, 80, 0
2, 63267, Note_on_c, 0, 84, 0
2, 63278, Note_on_c, 0, 80, 98
2, 63279, Note_on_c, 0, 84, 98
2, 63287, Note_on_c, 0, 49, 86
2, 63288, Note_on_c, 0, 37, 88
2, 63398, Note_on_c, 0, 42, 0
2, 63398, Note_on_c, 0, 54, 0
2, 63404, Note_on_c, 0, 42, 83
2, 63405, Note_on_c, 0, 54, 92
2, 63521, Note_on_c, 0, 80, 0
2, 63526, Note_on_c, 0, 80, 94
2, 63528, Note_on_c, 0, 49, 0
2, 63533, Note_on_c, 0, 49, 75
2, 63552, Note_on_c, 0, 84, 0
2, 63559, Note_on_c, 0, 84, 90
2, 63568, Note_on_c, 0, 37, 0
2, 63569, Control_c, 0, 64, 0
2, 63569, Note_on_c, 0, 49, 0
2, 63569, Note_on_c, 0, 54, 0
2, 63570, Note_on_c, 0, 42, 0
2, 63572, Note_on_c, 0, 87, 0
2, 63590, Note_on_c, 0, 80, 0
2, 63616, Note_on_c, 0, 87, 67
2, 63659, Note_on_c, 0, 84, 0
2, 63663, Note_on_c, 0, 92, 107
2, 63667, Note_on_c, 0, 87, 0
2, 63670, Note_on_c, 0, 84, 96
2, 63670, Note_on_c, 0, 80, 106
2, 63674, Note_on_c, 0, 56, 100
2, 63675, Note_on_c, 0, 87, 90
2, 63675, Note_on_c, 0, 44, 95
2, 63697, Control_c, 0, 64, 127
2, 63792, Control_c, 0, 64, 0
2, 63808, Note_on_c, 0, 84, 0
2, 63813, Note_on_c, 0, 44, 0
2, 63813, Note_on_c, 0, 56, 0
2, 63843, Note_on_c, 0, 87, 0
2, 63851, Note_on_c, 0, 92, 0
2, 63859, Note_on_c, 0, 80, 0
2, 63928, Note_on_c, 0, 89, 104
2, 63930, Note_on_c, 0, 77, 94
2, 63974, Note_on_c, 0, 77, 0
2, 64028, Note_on_c, 0, 89, 0
2, 64048, Note_on_c, 0, 66, 98
2, 64053, Note_on_c, 0, 56, 93
2, 64054, Note_on_c, 0, 63, 86
2, 64054, Note_on_c, 0, 60, 85
2, 64055, Note_on_c, 0, 78, 105
2, 64055, Note_on_c, 0, 90, 105
2, 64089, Control_c, 0, 64, 127
2, 64215, Control_c, 0, 64, 0
2, 64217, Note_on_c, 0, 63, 0
2, 64217, Note_on_c, 0, 60, 0
2, 64218, Note_on_c, 0, 56, 0
2, 64219, Note_on_c, 0, 78, 0
2, 64221, Note_on_c, 0, 90, 0
2, 64227, Note_on_c, 0, 66, 0
2, 64299, Note_on_c, 0, 87, 101
2, 64299, Note_on_c, 0, 75, 97
2, 64301, Note_on_c, 0, 56, 87
2, 64304, Note_on_c, 0, 51, 78
2, 64307, Note_on_c, 0, 44, 86
2, 64325, Note_on_c, 0, 75, 0
2, 64329, Note_on_c, 0, 56, 0
2, 64339, Note_on_c, 0, 51, 0
2, 64381, Note_on_c, 0, 87, 0
2, 64432, Note_on_c, 0, 89, 107
2, 64433, Note_on_c, 0, 77, 103
2, 64436, Note_on_c, 0, 80, 103
2, 64436, Note_on_c, 0, 85, 100
2, 64450, Control_c, 0, 64, 127
2, 64550, Note_on_c, 0, 44, 0
2, 64560, Note_on_c, 0, 44, 101
2, 64668, Note_on_c, 0, 32, 83
2, 64782, Note_on_c, 0, 85, 0
2, 64782, Note_on_c, 0, 89, 0
2, 64783, Note_on_c, 0, 32, 0
2, 64784, Note_on_c, 0, 44, 0
2, 64784, Note_on_c, 0, 77, 0
2, 64784, Note_on_c, 0, 80, 0
2, 64787, Control_c, 0, 64, 0
2, 64808, Note_on_c, 0, 78, 106
2, 64809, Note_on_c, 0, 66, 96
2, 64839, Note_on_c, 0, 66, 0
2, 64911, Note_on_c, 0, 78, 0
2, 64930, Note_on_c, 0, 77, 95
2, 64935, Note_on_c, 0, 65, 89
2, 64956, Note_on_c, 0, 65, 0
2, 64980, Note_on_c, 0, 77, 0
2, 65047, Note_on_c, 0, 75, 99
2, 65052, Note_on_c, 0, 63, 93
2, 65076, Note_on_c, 0, 75, 0
2, 65095, Note_on_c, 0, 63, 0
2, 65173, Note_on_c, 0, 73, 103
2, 65176, Note_on_c, 0, 61, 85
2, 65199, Note_on_c, 0, 61, 0
2, 65200, Note_on_c, 0, 73, 0
2, 65295, Note_on_c, 0, 72, 102
2, 65296, Note_on_c, 0, 60, 91
2, 65322, Note_on_c, 0, 60, 0
2, 65356, Note_on_c, 0, 72, 0
2, 65422, Note_on_c, 0, 75, 95
2, 65423, Note_on_c, 0, 63, 95
2, 65472, Note_on_c, 0, 63, 0
2, 65479, Note_on_c, 0, 75, 0
2, 65553, Note_on_c, 0, 73, 106
2, 65555, Note_on_c, 0, 61, 97
2, 65579, Control_c, 0, 64, 127
2, 65838, Note_on_c, 0, 49, 86
2, 65925, Note_on_c, 0, 73, 0
2, 65930, Control_c, 0, 64, 0
2, 65932, Note_on_c, 0, 73, 108
2, 65933, Note_on_c, 0, 85, 107
2, 65933, Note_on_c, 0, 80, 101
2, 65934, Note_on_c, 0, 77, 95
2, 65940, Note_on_c, 0, 61, 0
2, 65944, Note_on_c, 0, 61, 102
2, 65950, Note_on_c, 0, 53, 91
2, 65951, Note_on_c, 0, 56, 96
2, 65978, Control_c, 0, 64, 127
2, 66201, Note_on_c, 0, 49, 0
2, 66209, Note_on_c, 0, 73, 0
2, 66212, Note_on_c, 0, 49, 91
2, 66219, Note_on_c, 0, 73, 98
2, 66247, Note_on_c, 0, 77, 0
2, 66256, Note_on_c, 0, 77, 45
2, 66316, Note_on_c, 0, 80, 0
2, 66320, Note_on_c, 0, 80, 100
2, 66328, Note_on_c, 0, 44, 89
2, 66393, Note_on_c, 0, 85, 0
2, 66401, Note_on_c, 0, 85, 99
2, 66458, Note_on_c, 0, 89, 102
2, 66466, Note_on_c, 0, 37, 78
2, 66525, Note_on_c, 0, 92, 99
2, 66565, Note_on_c, 0, 97, 111
2, 66586, Note_on_c, 0, 25, 76
2, 67077, Note_on_c, 0, 25, 0
2, 67087, Note_on_c, 0, 25, 80
2, 67146, Note_on_c, 0, 37, 0
2, 67156, Note_on_c, 0, 37, 77
2, 67187, Note_on_c, 0, 97, 0
2, 67188, Note_on_c, 0, 92, 0
2, 67188, Note_on_c, 0, 85, 0
2, 67188, Note_on_c, 0, 89, 0
2, 67188, Note_on_c, 0, 73, 0
2, 67189, Note_on_c, 0, 80, 0
2, 67189, Note_on_c, 0, 53, 0
2, 67189, Control_c, 0, 64, 0
2, 67189, Note_on_c, 0, 44, 0
2, 67190, Note_on_c, 0, 56, 0
2, 67190, Note_on_c, 0, 77, 0
2, 67215, Note_on_c, 0, 49, 0
2, 67215, Note_on_c, 0, 61, 0
2, 67220, Note_on_c, 0, 61, 104
2, 67220, Note_on_c, 0, 49, 96
2, 67338, Control_c, 0, 64, 127
2, 67399, Note_on_c, 0, 25, 0
2, 67411, Control_c, 0, 64, 0
2, 67422, Note_on_c, 0, 37, 0
2, 69127, Note_on_c, 0, 49, 0
2, 69128, Note_on_c, 0, 61, 0
2, 69129, End_track
0, 0, End_of_file
