0, 0, Header, 1, 2, 384
1, 0, Start_track
1, 0, Tempo, 500000
1, 0, Time_signature, 4, 2, 24, 8
1, 1, End_track
2, 0, Start_track
2, 7, Control_c, 0, 64, 127
2, 3208, Note_on_c, 0, 81, 71
2, 3219, Note_on_c, 0, 69, 49
2, 3221, Note_on_c, 0, 74, 52
2, 3227, Note_on_c, 0, 62, 47
2, 3230, Note_on_c, 0, 78, 56
2, 3384, Note_on_c, 0, 80, 68
2, 3517, Note_on_c, 0, 81, 0
2, 3521, Note_on_c, 0, 81, 70
2, 3655, Note_on_c, 0, 80, 0
2, 3697, Note_on_c, 0, 83, 76
2, 4024, Note_on_c, 0, 81, 0
2, 4032, Note_on_c, 0, 81, 70
2, 4577, Note_on_c, 0, 69, 0
2, 4582, Note_on_c, 0, 76, 59
2, 4583, Note_on_c, 0, 69, 48
2, 4615, Control_c, 0, 64, 0
2, 4623, Note_on_c, 0, 74, 0
2, 4625, Note_on_c, 0, 83, 0
2, 4625, Note_on_c, 0, 78, 0
2, 4627, Note_on_c, 0, 62, 0
2, 4730, Control_c, 0, 64, 127
2, 5230, Note_on_c, 0, 74, 52
2, 5890, Note_on_c, 0, 81, 0
2, 5898, Note_on_c, 0, 81, 69
2, 5908, Note_on_c, 0, 71, 57
2, 5917, Note_on_c, 0, 64, 51
2, 5933, Note_on_c, 0, 74, 0
2, 5933, Control_c, 0, 64, 0
2, 5934, Note_on_c, 0, 76, 0
2, 6071, Note_on_c, 0, 80, 80
2, 6213, Note_on_c, 0, 81, 0
2, 6218, Note_on_c, 0, 81, 76
2, 6401, Note_on_c, 0, 83, 83
2, 6435, Note_on_c, 0, 69, 0
2, 6727, Note_on_c, 0, 81, 0
2, 6732, Note_on_c, 0, 81, 76
2, 6804, Note_on_c, 0, 80, 0
2, 7111, Control_c, 0, 64, 127
2, 7249, Note_on_c, 0, 71, 0
2, 7258, Note_on_c, 0, 74, 64
2, 7261, Note_on_c, 0, 71, 44
2, 7284, Control_c, 0, 64, 0
2, 7457, Control_c, 0, 64, 127
2, 7664, Control_c, 0, 64, 0
2, 7911, Note_on_c, 0, 73, 64
2, 7956, Note_on_c, 0, 74, 0
2, 7987, Note_on_c, 0, 83, 0
2, 8087, Control_c, 0, 64, 127
2, 8563, Note_on_c, 0, 81, 0
2, 8573, Note_on_c, 0, 81, 74
2, 8597, Note_on_c, 0, 69, 58
2, 8599, Note_on_c, 0, 54, 44
2, 8601, Note_on_c, 0, 61, 53
2, 8615, Control_c, 0, 64, 0
2, 8634, Note_on_c, 0, 64, 0
2, 8634, Note_on_c, 0, 73, 0
2, 8640, Note_on_c, 0, 71, 0
2, 8743, Note_on_c, 0, 80, 74
2, 8793, Control_c, 0, 64, 127
2, 8808, Note_on_c, 0, 81, 0
2, 8892, Note_on_c, 0, 81, 81
2, 9074, Note_on_c, 0, 83, 88
2, 9119, Control_c, 0, 64, 0
2, 9223, Note_on_c, 0, 81, 0
2, 9398, Note_on_c, 0, 81, 81
2, 9431, Note_on_c, 0, 80, 0
2, 9461, Control_c, 0, 64, 127
2, 9945, Note_on_c, 0, 69, 0
2, 9949, Note_on_c, 0, 73, 67
2, 9955, Note_on_c, 0, 69, 48
2, 9965, Control_c, 0, 64, 0
2, 10022, Control_c, 0, 64, 127
2, 10152, Note_on_c, 0, 83, 0
2, 10152, Control_c, 0, 64, 0
2, 10602, Note_on_c, 0, 71, 57
2, 10790, Control_c, 0, 64, 127
2, 11287, Note_on_c, 0, 70, 58
2, 11287, Note_on_c, 0, 66, 46
2, 11302, Control_c, 0, 64, 0
2, 11310, Note_on_c, 0, 71, 0
2, 11358, Note_on_c, 0, 73, 0
2, 11366, Note_on_c, 0, 81, 0
2, 11381, Note_on_c, 0, 69, 0
2, 12042, Control_c, 0, 64, 127
2, 12062, Note_on_c, 0, 82, 74
2, 12701, Note_on_c, 0, 83, 86
2, 12709, Note_on_c, 0, 74, 76
2, 12714, Note_on_c, 0, 67, 61
2, 12723, Control_c, 0, 64, 0
2, 12737, Note_on_c, 0, 82, 0
2, 12741, Note_on_c, 0, 66, 0
2, 12756, Note_on_c, 0, 70, 0
2, 12779, Note_on_c, 0, 54, 0
2, 12825, Control_c, 0, 64, 127
2, 13209, Note_on_c, 0, 61, 0
2, 13371, Note_on_c, 0, 85, 92
2, 13383, Note_on_c, 0, 76, 73
2, 13388, Note_on_c, 0, 66, 68
2, 14106, Note_on_c, 0, 88, 93
2, 14108, Note_on_c, 0, 76, 0
2, 14109, Note_on_c, 0, 47, 71
2, 14111, Note_on_c, 0, 81, 81
2, 14118, Note_on_c, 0, 76, 73
2, 14124, Note_on_c, 0, 78, 72
2, 14136, Control_c, 0, 64, 0
2, 14141, Note_on_c, 0, 74, 0
2, 14142, Note_on_c, 0, 83, 0
2, 14142, Note_on_c, 0, 85, 0
2, 14142, Note_on_c, 0, 66, 0
2, 14146, Note_on_c, 0, 67, 0
2, 14231, Control_c, 0, 64, 127
2, 14332, Note_on_c, 0, 54, 59
2, 14498, Note_on_c, 0, 57, 60
2, 14655, Note_on_c, 0, 62, 63
2, 14794, Note_on_c, 0, 86, 90
2, 14798, Note_on_c, 0, 74, 79
2, 14952, Note_on_c, 0, 59, 68
2, 15102, Note_on_c, 0, 66, 65
2, 15258, Note_on_c, 0, 69, 64
2, 15406, Note_on_c, 0, 78, 0
2, 15406, Note_on_c, 0, 81, 0
2, 15408, Note_on_c, 0, 85, 88
2, 15410, Note_on_c, 0, 81, 72
2, 15411, Note_on_c, 0, 73, 73
2, 15414, Note_on_c, 0, 78, 73
2, 15559, Note_on_c, 0, 66, 0
2, 15559, Note_on_c, 0, 74, 0
2, 15563, Note_on_c, 0, 66, 73
2, 15567, Note_on_c, 0, 74, 49
2, 15713, Note_on_c, 0, 69, 0
2, 15717, Note_on_c, 0, 69, 70
2, 15859, Note_on_c, 0, 74, 0
2, 15863, Note_on_c, 0, 74, 76
2, 16012, Note_on_c, 0, 86, 0
2, 16020, Note_on_c, 0, 74, 0
2, 16023, Note_on_c, 0, 86, 97
2, 16031, Note_on_c, 0, 74, 85
2, 16174, Note_on_c, 0, 69, 0
2, 16183, Note_on_c, 0, 69, 73
2, 16327, Note_on_c, 0, 66, 0
2, 16334, Note_on_c, 0, 66, 72
2, 16473, Note_on_c, 0, 59, 0
2, 16479, Note_on_c, 0, 59, 77
2, 16679, Note_on_c, 0, 93, 98
2, 16680, Note_on_c, 0, 81, 0
2, 16686, Note_on_c, 0, 49, 73
2, 16687, Note_on_c, 0, 59, 0
2, 16687, Note_on_c, 0, 69, 0
2, 16687, Note_on_c, 0, 57, 0
2, 16688, Note_on_c, 0, 88, 0
2, 16688, Note_on_c, 0, 73, 0
2, 16688, Note_on_c, 0, 62, 0
2, 16689, Note_on_c, 0, 54, 0
2, 16689, Note_on_c, 0, 74, 0
2, 16689, Note_on_c, 0, 78, 0
2, 16690, Note_on_c, 0, 66, 0
2, 16690, Note_on_c, 0, 47, 0
2, 16692, Note_on_c, 0, 81, 74
2, 16692, Control_c, 0, 64, 0
2, 16696, Note_on_c, 0, 76, 0
2, 16700, Note_on_c, 0, 89, 79
2, 16704, Note_on_c, 0, 85, 0
2, 16704, Note_on_c, 0, 86, 0
2, 16708, Note_on_c, 0, 85, 67
2, 16773, Control_c, 0, 64, 127
2, 16898, Note_on_c, 0, 56, 55
2, 17016, Note_on_c, 0, 61, 63
2, 17161, Note_on_c, 0, 63, 59
2, 17299, Note_on_c, 0, 65, 61
2, 17441, Note_on_c, 0, 61, 0
2, 17450, Note_on_c, 0, 61, 64
2, 17610, Note_on_c, 0, 68, 62
2, 17768, Note_on_c, 0, 73, 64
2, 17969, Note_on_c, 0, 77, 61
2, 18639, Note_on_c, 0, 92, 82
2, 18642, Note_on_c, 0, 80, 73
2, 19284, Note_on_c, 0, 93, 0
2, 19294, Note_on_c, 0, 93, 94
2, 19309, Control_c, 0, 64, 0
2, 19313, Note_on_c, 0, 61, 0
2, 19313, Note_on_c, 0, 92, 0
2, 19313, Note_on_c, 0, 63, 0
2, 19313, Note_on_c, 0, 80, 0
2, 19313, Note_on_c, 0, 68, 0
2, 19314, Note_on_c, 0, 65, 0
2, 19314, Note_on_c, 0, 56, 0
2, 19314, Note_on_c, 0, 73, 0
2, 19314, Note_on_c, 0, 77, 0
2, 19315, Note_on_c, 0, 49, 0
2, 19315, Note_on_c, 0, 89, 0
2, 19315, Note_on_c, 0, 81, 0
2, 19322, Note_on_c, 0, 88, 67
2, 19322, Note_on_c, 0, 81, 65
2, 19322, Note_on_c, 0, 85, 0
2, 19323, Note_on_c, 0, 54, 53
2, 19332, Note_on_c, 0, 85, 62
2, 19392, Control_c, 0, 64, 127
2, 19521, Note_on_c, 0, 61, 54
2, 19677, Note_on_c, 0, 64, 58
2, 19826, Note_on_c, 0, 69, 54
2, 19956, Note_on_c, 0, 92, 93
2, 19959, Note_on_c, 0, 80, 79
2, 20113, Note_on_c, 0, 61, 0
2, 20124, Note_on_c, 0, 61, 64
2, 20259, Note_on_c, 0, 64, 0
2, 20264, Note_on_c, 0, 64, 70
2, 20405, Note_on_c, 0, 69, 0
2, 20410, Note_on_c, 0, 69, 64
2, 20544, Note_on_c, 0, 93, 0
2, 20550, Note_on_c, 0, 93, 94
2, 20567, Note_on_c, 0, 88, 0
2, 20571, Note_on_c, 0, 88, 70
2, 20574, Note_on_c, 0, 81, 0
2, 20574, Note_on_c, 0, 85, 0
2, 20578, Note_on_c, 0, 81, 64
2, 20586, Note_on_c, 0, 85, 65
2, 20705, Note_on_c, 0, 64, 0
2, 20711, Note_on_c, 0, 64, 64
2, 20843, Note_on_c, 0, 69, 0
2, 20854, Note_on_c, 0, 69, 59
2, 20999, Note_on_c, 0, 73, 77
2, 21020, Note_on_c, 0, 69, 0
2, 21025, Note_on_c, 0, 69, 35
2, 21149, Note_on_c, 0, 95, 91
2, 21160, Note_on_c, 0, 83, 83
2, 21189, Note_on_c, 0, 73, 0
2, 21195, Note_on_c, 0, 73, 41
2, 21296, Note_on_c, 0, 69, 0
2, 21301, Note_on_c, 0, 69, 72
2, 21434, Note_on_c, 0, 64, 0
2, 21439, Note_on_c, 0, 64, 65
2, 21565, Note_on_c, 0, 61, 0
2, 21576, Note_on_c, 0, 61, 76
2, 21772, Note_on_c, 0, 93, 0
2, 21778, Note_on_c, 0, 97, 92
2, 21784, Note_on_c, 0, 93, 74
2, 21791, Note_on_c, 0, 80, 0
2, 21791, Note_on_c, 0, 92, 0
2, 21791, Note_on_c, 0, 81, 0
2, 21791, Note_on_c, 0, 69, 0
2, 21791, Note_on_c, 0, 83, 0
2, 21791, Note_on_c, 0, 73, 0
2, 21791, Note_on_c, 0, 61, 0
2, 21791, Note_on_c, 0, 64, 0
2, 21792, Note_on_c, 0, 88, 0
2, 21792, Note_on_c, 0, 54, 0
2, 21794, Control_c, 0, 64, 0
2, 21795, Note_on_c, 0, 85, 0
2, 21799, Note_on_c, 0, 90, 68
2, 21800, Note_on_c, 0, 47, 63
2, 21800, Note_on_c, 0, 85, 72
2, 21811, Note_on_c, 0, 95, 0
2, 21857, Control_c, 0, 64, 127
2, 21975, Note_on_c, 0, 54, 56
2, 22113, Note_on_c, 0, 59, 63
2, 22243, Note_on_c, 0, 61, 60
2, 22405, Note_on_c, 0, 63, 65
2, 22563, Note_on_c, 0, 59, 0
2, 22570, Note_on_c, 0, 59, 52
2, 22720, Note_on_c, 0, 66, 54
2, 22876, Note_on_c, 0, 71, 54
2, 23049, Note_on_c, 0, 75, 61
2, 23692, Note_on_c, 0, 93, 0
2, 23703, Note_on_c, 0, 93, 71
2, 23705, Note_on_c, 0, 81, 57
2, 24384, Note_on_c, 0, 66, 0
2, 24386, Note_on_c, 0, 86, 79
2, 24389, Note_on_c, 0, 74, 63
2, 24391, Note_on_c, 0, 59, 0
2, 24392, Note_on_c, 0, 66, 50
2, 24394, Note_on_c, 0, 78, 62
2, 24402, Note_on_c, 0, 59, 44
2, 24407, Note_on_c, 0, 54, 0
2, 24418, Note_on_c, 0, 54, 38
2, 24419, Note_on_c, 0, 62, 44
2, 24422, Note_on_c, 0, 97, 0
2, 24423, Note_on_c, 0, 71, 0
2, 24423, Note_on_c, 0, 93, 0
2, 24424, Note_on_c, 0, 85, 0
2, 24424, Note_on_c, 0, 63, 0
2, 24424, Note_on_c, 0, 61, 0
2, 24424, Note_on_c, 0, 90, 0
2, 24425, Note_on_c, 0, 81, 0
2, 24425, Note_on_c, 0, 47, 0
2, 24425, Note_on_c, 0, 75, 0
2, 24434, Control_c, 0, 64, 0
2, 24552, Control_c, 0, 64, 127
2, 24579, Note_on_c, 0, 85, 73
2, 24599, Note_on_c, 0, 74, 0
2, 24605, Note_on_c, 0, 74, 21
2, 24721, Note_on_c, 0, 86, 0
2, 24726, Note_on_c, 0, 86, 66
2, 24889, Note_on_c, 0, 88, 78
2, 25190, Note_on_c, 0, 86, 0
2, 25194, Note_on_c, 0, 86, 77
2, 25679, Note_on_c, 0, 76, 64
2, 25683, Note_on_c, 0, 69, 51
2, 25689, Note_on_c, 0, 66, 0
2, 25695, Note_on_c, 0, 66, 42
2, 26304, Note_on_c, 0, 74, 0
2, 26313, Note_on_c, 0, 74, 62
2, 26987, Note_on_c, 0, 85, 0
2, 26995, Note_on_c, 0, 74, 0
2, 26997, Note_on_c, 0, 85, 66
2, 27000, Note_on_c, 0, 74, 50
2, 27006, Note_on_c, 0, 47, 51
2, 27009, Note_on_c, 0, 77, 48
2, 27013, Note_on_c, 0, 53, 45
2, 27024, Control_c, 0, 64, 0
2, 27048, Control_c, 0, 64, 127
2, 27087, Note_on_c, 0, 88, 0
2, 27168, Note_on_c, 0, 83, 65
2, 27194, Note_on_c, 0, 77, 0
2, 27194, Note_on_c, 0, 86, 0
2, 27198, Note_on_c, 0, 76, 0
2, 27198, Note_on_c, 0, 66, 0
2, 27225, Control_c, 0, 64, 0
2, 27240, Note_on_c, 0, 78, 0
2, 27264, Note_on_c, 0, 69, 0
2, 27317, Note_on_c, 0, 85, 0
2, 27322, Note_on_c, 0, 85, 74
2, 27474, Note_on_c, 0, 86, 80
2, 27532, Note_on_c, 0, 54, 0
2, 27786, Note_on_c, 0, 85, 0
2, 27797, Note_on_c, 0, 85, 71
2, 27832, Note_on_c, 0, 83, 0
2, 27847, Control_c, 0, 64, 127
2, 28293, Note_on_c, 0, 74, 0
2, 28304, Note_on_c, 0, 74, 62
2, 28304, Note_on_c, 0, 69, 47
2, 28304, Note_on_c, 0, 65, 45
2, 28800, Note_on_c, 0, 59, 0
2, 28800, Note_on_c, 0, 62, 0
2, 28946, Note_on_c, 0, 73, 63
2, 29243, Note_on_c, 0, 83, 79
2, 29614, Note_on_c, 0, 85, 0
2, 29625, Note_on_c, 0, 85, 80
2, 29629, Note_on_c, 0, 73, 0
2, 29632, Note_on_c, 0, 83, 0
2, 29632, Note_on_c, 0, 80, 71
2, 29633, Note_on_c, 0, 53, 0
2, 29633, Note_on_c, 0, 74, 0
2, 29633, Note_on_c, 0, 69, 0
2, 29633, Note_on_c, 0, 86, 0
2, 29633, Note_on_c, 0, 65, 0
2, 29634, Note_on_c, 0, 73, 62
2, 29635, Control_c, 0, 64, 0
2, 29638, Note_on_c, 0, 76, 64
2, 29641, Note_on_c, 0, 40, 50
2, 29644, Note_on_c, 0, 47, 0
2, 29646, Note_on_c, 0, 52, 53
2, 29813, Control_c, 0, 64, 127
2, 30281, Note_on_c, 0, 64, 52
2, 30285, Note_on_c, 0, 61, 45
2, 30292, Note_on_c, 0, 57, 51
2, 30927, Note_on_c, 0, 64, 0
2, 30928, Note_on_c, 0, 69, 69
2, 30934, Note_on_c, 0, 64, 57
2, 30935, Note_on_c, 0, 61, 0
2, 30946, Note_on_c, 0, 61, 52
2, 31633, Note_on_c, 0, 73, 0
2, 31641, Note_on_c, 0, 73, 67
2, 31649, Note_on_c, 0, 64, 0
2, 31649, Note_on_c, 0, 69, 0
2, 31657, Note_on_c, 0, 69, 43
2, 31660, Note_on_c, 0, 64, 49
2, 32521, Note_on_c, 0, 83, 79
2, 32528, Note_on_c, 0, 74, 69
2, 32532, Note_on_c, 0, 52, 0
2, 32536, Note_on_c, 0, 71, 57
2, 32543, Note_on_c, 0, 52, 60
2, 32545, Note_on_c, 0, 77, 57
2, 32555, Note_on_c, 0, 40, 0
2, 32569, Control_c, 0, 64, 0
2, 32573, Note_on_c, 0, 80, 0
2, 32573, Note_on_c, 0, 69, 0
2, 32573, Note_on_c, 0, 61, 0
2, 32573, Note_on_c, 0, 76, 0
2, 32574, Note_on_c, 0, 57, 0
2, 32586, Note_on_c, 0, 85, 0
2, 32593, Note_on_c, 0, 64, 0
2, 32593, Note_on_c, 0, 73, 0
2, 32762, Control_c, 0, 64, 127
2, 34022, Note_on_c, 0, 71, 0
2, 34026, Note_on_c, 0, 71, 48
2, 34033, Note_on_c, 0, 64, 36
2, 34054, Note_on_c, 0, 59, 34
2, 34056, Control_c, 0, 64, 0
2, 34061, Note_on_c, 0, 62, 39
2, 34152, Control_c, 0, 64, 127
2, 36044, Note_on_c, 0, 81, 64
2, 36052, Note_on_c, 0, 33, 38
2, 36056, Note_on_c, 0, 45, 40
2, 36059, Note_on_c, 0, 76, 44
2, 36065, Control_c, 0, 64, 0
2, 36072, Note_on_c, 0, 71, 0
2, 36078, Note_on_c, 0, 59, 0
2, 36078, Note_on_c, 0, 69, 44
2, 36079, Note_on_c, 0, 74, 0
2, 36081, Note_on_c, 0, 71, 41
2, 36083, Note_on_c, 0, 77, 0
2, 36083, Note_on_c, 0, 62, 0
2, 36085, Note_on_c, 0, 83, 0
2, 36088, Note_on_c, 0, 52, 0
2, 36188, Control_c, 0, 64, 127
2, 36295, Note_on_c, 0, 33, 0
2, 36334, Note_on_c, 0, 64, 0
2, 36728, Note_on_c, 0, 64, 43
2, 36736, Note_on_c, 0, 57, 35
2, 36737, Note_on_c, 0, 61, 42
2, 37386, Note_on_c, 0, 57, 0
2, 37386, Note_on_c, 0, 61, 0
2, 37386, Note_on_c, 0, 64, 0
2, 37390, Note_on_c, 0, 57, 38
2, 37391, Note_on_c, 0, 59, 46
2, 37391, Note_on_c, 0, 64, 49
2, 37391, Note_on_c, 0, 61, 42
2, 38046, Note_on_c, 0, 57, 0
2, 38046, Note_on_c, 0, 61, 0
2, 38046, Note_on_c, 0, 64, 0
2, 38051, Note_on_c, 0, 64, 41
2, 38052, Note_on_c, 0, 57, 30
2, 38055, Note_on_c, 0, 61, 43
2, 38684, Note_on_c, 0, 45, 0
2, 38684, Note_on_c, 0, 57, 0
2, 38684, Note_on_c, 0, 61, 0
2, 38684, Note_on_c, 0, 64, 0
2, 38688, Note_on_c, 0, 64, 48
2, 38689, Note_on_c, 0, 45, 57
2, 38690, Note_on_c, 0, 61, 45
2, 38692, Note_on_c, 0, 57, 47
2, 38718, Note_on_c, 0, 71, 0
2, 38719, Note_on_c, 0, 81, 0
2, 38721, Note_on_c, 0, 76, 0
2, 38723, Control_c, 0, 64, 0
2, 38922, Control_c, 0, 64, 127
2, 39329, Note_on_c, 0, 64, 0
2, 39336, Note_on_c, 0, 57, 0
2, 39336, Note_on_c, 0, 59, 0
2, 39336, Note_on_c, 0, 61, 0
2, 39339, Note_on_c, 0, 64, 43
2, 39343, Note_on_c, 0, 61, 41
2, 39345, Note_on_c, 0, 57, 39
2, 39345, Note_on_c, 0, 59, 44
2, 39951, Note_on_c, 0, 59, 0
2, 39951, Note_on_c, 0, 64, 0
2, 39956, Note_on_c, 0, 64, 44
2, 39959, Note_on_c, 0, 57, 0
2, 39959, Note_on_c, 0, 61, 0
2, 39959, Note_on_c, 0, 59, 41
2, 39963, Note_on_c, 0, 61, 41
2, 39969, Note_on_c, 0, 57, 39
2, 40320, Note_on_c, 0, 69, 0
2, 40596, Note_on_c, 0, 57, 0
2, 40596, Note_on_c, 0, 61, 0
2, 40599, Note_on_c, 0, 40, 38
2, 40605, Note_on_c, 0, 61, 37
2, 40607, Note_on_c, 0, 57, 39
2, 40622, Control_c, 0, 64, 0
2, 40696, Control_c, 0, 64, 127
2, 41247, Note_on_c, 0, 33, 40
2, 41249, Note_on_c, 0, 45, 0
2, 41249, Note_on_c, 0, 61, 0
2, 41249, Note_on_c, 0, 64, 0
2, 41256, Note_on_c, 0, 57, 0
2, 41257, Note_on_c, 0, 45, 40
2, 41258, Note_on_c, 0, 61, 52
2, 41260, Note_on_c, 0, 64, 43
2, 41265, Control_c, 0, 64, 0
2, 41267, Note_on_c, 0, 57, 40
2, 41295, Control_c, 0, 64, 127
2, 41487, Note_on_c, 0, 59, 0
2, 41894, Note_on_c, 0, 61, 0
2, 41902, Note_on_c, 0, 64, 0
2, 41902, Note_on_c, 0, 73, 60
2, 41905, Note_on_c, 0, 61, 49
2, 41906, Note_on_c, 0, 64, 44
2, 41917, Note_on_c, 0, 57, 0
2, 41918, Note_on_c, 0, 69, 43
2, 41923, Note_on_c, 0, 57, 43
2, 41933, Note_on_c, 0, 59, 40
2, 42064, Note_on_c, 0, 74, 72
2, 42215, Note_on_c, 0, 76, 78
2, 42370, Note_on_c, 0, 76, 0
2, 42374, Note_on_c, 0, 76, 89
2, 42516, Note_on_c, 0, 64, 0
2, 42526, Note_on_c, 0, 64, 50
2, 42531, Note_on_c, 0, 57, 0
2, 42531, Note_on_c, 0, 59, 0
2, 42536, Note_on_c, 0, 57, 48
2, 42538, Note_on_c, 0, 59, 44
2, 42539, Note_on_c, 0, 61, 0
2, 42544, Note_on_c, 0, 61, 56
2, 42808, Note_on_c, 0, 74, 0
2, 42817, Note_on_c, 0, 74, 80
2, 42977, Note_on_c, 0, 73, 0
2, 42987, Note_on_c, 0, 73, 81
2, 43130, Note_on_c, 0, 59, 0
2, 43130, Note_on_c, 0, 61, 0
2, 43130, Note_on_c, 0, 64, 0
2, 43138, Note_on_c, 0, 64, 50
2, 43141, Note_on_c, 0, 59, 49
2, 43142, Note_on_c, 0, 61, 49
2, 43146, Note_on_c, 0, 57, 0
2, 43155, Note_on_c, 0, 57, 40
2, 43292, Note_on_c, 0, 69, 0
2, 43303, Note_on_c, 0, 69, 76
2, 43619, Note_on_c, 0, 71, 80
2, 43749, Control_c, 0, 64, 0
2, 43750, Note_on_c, 0, 69, 0
2, 43750, Note_on_c, 0, 76, 0
2, 43750, Note_on_c, 0, 57, 0
2, 43751, Note_on_c, 0, 45, 0
2, 43751, Note_on_c, 0, 74, 0
2, 43751, Note_on_c, 0, 73, 0
2, 43752, Note_on_c, 0, 40, 0
2, 43768, Note_on_c, 0, 33, 0
2, 43768, Note_on_c, 0, 61, 0
2, 43783, Note_on_c, 0, 59, 0
2, 43783, Note_on_c, 0, 64, 0
2, 43787, Note_on_c, 0, 44, 47
2, 43790, Note_on_c, 0, 56, 48
2, 43792, Note_on_c, 0, 59, 54
2, 43792, Note_on_c, 0, 64, 51
2, 43793, Note_on_c, 0, 52, 52
2, 43914, Control_c, 0, 64, 127
2, 44405, Note_on_c, 0, 59, 0
2, 44405, Note_on_c, 0, 64, 0
2, 44405, Note_on_c, 0, 71, 0
2, 44409, Note_on_c, 0, 71, 72
2, 44412, Note_on_c, 0, 64, 55
2, 44413, Note_on_c, 0, 56, 0
2, 44414, Note_on_c, 0, 59, 54
2, 44416, Note_on_c, 0, 68, 52
2, 44419, Note_on_c, 0, 56, 42
2, 44556, Note_on_c, 0, 73, 82
2, 44709, Note_on_c, 0, 74, 86
2, 44858, Note_on_c, 0, 74, 0
2, 44870, Note_on_c, 0, 74, 87
2, 45027, Note_on_c, 0, 56, 0
2, 45027, Note_on_c, 0, 59, 0
2, 45027, Note_on_c, 0, 64, 0
2, 45031, Note_on_c, 0, 64, 56
2, 45032, Note_on_c, 0, 59, 62
2, 45033, Note_on_c, 0, 56, 42
2, 45327, Note_on_c, 0, 73, 0
2, 45335, Note_on_c, 0, 73, 81
2, 45488, Note_on_c, 0, 71, 0
2, 45494, Note_on_c, 0, 71, 83
2, 45642, Note_on_c, 0, 59, 0
2, 45642, Note_on_c, 0, 64, 0
2, 45647, Note_on_c, 0, 59, 58
2, 45649, Note_on_c, 0, 64, 59
2, 45657, Note_on_c, 0, 56, 0
2, 45663, Note_on_c, 0, 56, 45
2, 45665, Note_on_c, 0, 68, 0
2, 45670, Note_on_c, 0, 68, 49
2, 45803, Note_on_c, 0, 68, 0
2, 45812, Note_on_c, 0, 68, 83
2, 46131, Note_on_c, 0, 69, 81
2, 46268, Note_on_c, 0, 68, 0
2, 46268, Note_on_c, 0, 73, 0
2, 46268, Note_on_c, 0, 71, 0
2, 46268, Note_on_c, 0, 74, 0
2, 46268, Note_on_c, 0, 56, 0
2, 46269, Note_on_c, 0, 59, 0
2, 46269, Control_c, 0, 64, 0
2, 46269, Note_on_c, 0, 44, 0
2, 46287, Note_on_c, 0, 64, 0
2, 46295, Note_on_c, 0, 52, 0
2, 46297, Note_on_c, 0, 64, 55
2, 46299, Note_on_c, 0, 52, 42
2, 46299, Note_on_c, 0, 61, 52
2, 46299, Note_on_c, 0, 57, 52
2, 46326, Note_on_c, 0, 42, 39
2, 46440, Control_c, 0, 64, 127
2, 46901, Note_on_c, 0, 69, 0
2, 46909, Note_on_c, 0, 64, 0
2, 46913, Note_on_c, 0, 69, 88
2, 46917, Note_on_c, 0, 61, 0
2, 46920, Note_on_c, 0, 64, 66
2, 46924, Note_on_c, 0, 57, 0
2, 46927, Note_on_c, 0, 61, 65
2, 46928, Note_on_c, 0, 57, 56
2, 47237, Note_on_c, 0, 78, 97
2, 47557, Note_on_c, 0, 76, 90
2, 47562, Note_on_c, 0, 64, 0
2, 47569, Note_on_c, 0, 69, 0
2, 47572, Note_on_c, 0, 64, 66
2, 47575, Note_on_c, 0, 45, 55
2, 47576, Note_on_c, 0, 69, 68
2, 47578, Note_on_c, 0, 37, 55
2, 47587, Control_c, 0, 64, 0
2, 47589, Note_on_c, 0, 52, 0
2, 47589, Note_on_c, 0, 42, 0
2, 47590, Note_on_c, 0, 61, 0
2, 47591, Note_on_c, 0, 57, 0
2, 47595, Note_on_c, 0, 78, 0
2, 47677, Control_c, 0, 64, 127
2, 47871, Note_on_c, 0, 74, 92
2, 48184, Note_on_c, 0, 64, 0
2, 48184, Note_on_c, 0, 73, 89
2, 48194, Note_on_c, 0, 64, 65
2, 48204, Note_on_c, 0, 61, 58
2, 48204, Note_on_c, 0, 57, 58
2, 48499, Note_on_c, 0, 71, 89
2, 48814, Note_on_c, 0, 71, 0
2, 48825, Note_on_c, 0, 71, 79
2, 48833, Control_c, 0, 64, 0
2, 48835, Note_on_c, 0, 38, 57
2, 48836, Note_on_c, 0, 62, 58
2, 48837, Note_on_c, 0, 45, 0
2, 48839, Note_on_c, 0, 66, 63
2, 48843, Note_on_c, 0, 45, 49
2, 48849, Note_on_c, 0, 74, 0
2, 48850, Note_on_c, 0, 73, 0
2, 48850, Note_on_c, 0, 64, 0
2, 48850, Note_on_c, 0, 76, 0
2, 48851, Note_on_c, 0, 57, 0
2, 48852, Note_on_c, 0, 61, 0
2, 48854, Note_on_c, 0, 37, 0
2, 48867, Note_on_c, 0, 69, 0
2, 49090, Control_c, 0, 64, 127
2, 49466, Note_on_c, 0, 62, 0
2, 49466, Note_on_c, 0, 66, 0
2, 49470, Note_on_c, 0, 66, 58
2, 49477, Note_on_c, 0, 62, 51
2, 49768, Note_on_c, 0, 73, 78
2, 49930, Control_c, 0, 64, 0
2, 49943, Note_on_c, 0, 62, 0
2, 49943, Note_on_c, 0, 66, 0
2, 49947, Note_on_c, 0, 69, 71
2, 49951, Note_on_c, 0, 62, 56
2, 49952, Note_on_c, 0, 66, 50
2, 49958, Note_on_c, 0, 71, 0
2, 50035, Control_c, 0, 64, 127
2, 50265, Note_on_c, 0, 66, 0
2, 50272, Note_on_c, 0, 66, 54
2, 50411, Note_on_c, 0, 62, 0
2, 50415, Note_on_c, 0, 62, 57
2, 50426, Note_on_c, 0, 45, 0
2, 50429, Note_on_c, 0, 68, 64
2, 50580, Note_on_c, 0, 69, 0
2, 50585, Note_on_c, 0, 69, 64
2, 50587, Note_on_c, 0, 57, 52
2, 50741, Note_on_c, 0, 73, 0
2, 50750, Note_on_c, 0, 73, 56
2, 50759, Note_on_c, 0, 50, 37
2, 50892, Note_on_c, 0, 74, 60
2, 51050, Note_on_c, 0, 78, 65
2, 51205, Note_on_c, 0, 81, 73
2, 51225, Note_on_c, 0, 73, 0
2, 51231, Note_on_c, 0, 73, 35
2, 51309, Note_on_c, 0, 62, 0
2, 51310, Note_on_c, 0, 68, 0
2, 51310, Note_on_c, 0, 69, 0
2, 51310, Note_on_c, 0, 50, 0
2, 51310, Note_on_c, 0, 74, 0
2, 51310, Note_on_c, 0, 57, 0
2, 51311, Note_on_c, 0, 73, 0
2, 51311, Note_on_c, 0, 66, 0
2, 51312, Note_on_c, 0, 38, 0
2, 51313, Control_c, 0, 64, 0
2, 51360, Note_on_c, 0, 47, 58
2, 51525, Control_c, 0, 64, 127
2, 51532, Note_on_c, 0, 54, 48
2, 51683, Note_on_c, 0, 59, 51
2, 51804, Note_on_c, 0, 61, 51
2, 51981, Note_on_c, 0, 86, 79
2, 51988, Note_on_c, 0, 62, 65
2, 51989, Note_on_c, 0, 74, 62
2, 52131, Note_on_c, 0, 86, 0
2, 52142, Note_on_c, 0, 86, 73
2, 52270, Note_on_c, 0, 86, 0
2, 52281, Note_on_c, 0, 86, 86
2, 52443, Note_on_c, 0, 85, 88
2, 52454, Note_on_c, 0, 78, 0
2, 52475, Note_on_c, 0, 77, 60
2, 52581, Control_c, 0, 64, 0
2, 52582, Note_on_c, 0, 81, 0
2, 52582, Note_on_c, 0, 62, 0
2, 52582, Note_on_c, 0, 59, 0
2, 52582, Note_on_c, 0, 86, 0
2, 52583, Note_on_c, 0, 54, 0
2, 52584, Note_on_c, 0, 74, 0
2, 52586, Note_on_c, 0, 61, 0
2, 52588, Note_on_c, 0, 47, 0
2, 52598, Note_on_c, 0, 49, 62
2, 52758, Note_on_c, 0, 56, 62
2, 52776, Control_c, 0, 64, 127
2, 52899, Note_on_c, 0, 83, 83
2, 52908, Note_on_c, 0, 61, 61
2, 52911, Note_on_c, 0, 73, 58
2, 53057, Note_on_c, 0, 63, 64
2, 53058, Note_on_c, 0, 81, 85
2, 53215, Note_on_c, 0, 65, 69
2, 53360, Note_on_c, 0, 83, 0
2, 53370, Note_on_c, 0, 83, 90
2, 53695, Note_on_c, 0, 88, 91
2, 53713, Note_on_c, 0, 81, 0
2, 53725, Note_on_c, 0, 81, 76
2, 53727, Note_on_c, 0, 76, 67
2, 53804, Note_on_c, 0, 63, 0
2, 53804, Control_c, 0, 64, 0
2, 53804, Note_on_c, 0, 65, 0
2, 53804, Note_on_c, 0, 61, 0
2, 53805, Note_on_c, 0, 83, 0
2, 53806, Note_on_c, 0, 49, 0
2, 53806, Note_on_c, 0, 73, 0
2, 53806, Note_on_c, 0, 77, 0
2, 53807, Note_on_c, 0, 85, 0
2, 53807, Note_on_c, 0, 56, 0
2, 53866, Note_on_c, 0, 54, 65
2, 53990, Control_c, 0, 64, 127
2, 54035, Note_on_c, 0, 61, 65
2, 54180, Note_on_c, 0, 64, 67
2, 54313, Note_on_c, 0, 69, 64
2, 54477, Note_on_c, 0, 73, 68
2, 54504, Note_on_c, 0, 54, 0
2, 54631, Note_on_c, 0, 85, 92
2, 54658, Note_on_c, 0, 73, 0
2, 54668, Note_on_c, 0, 73, 35
2, 54781, Note_on_c, 0, 88, 0
2, 54787, Note_on_c, 0, 88, 95
2, 54935, Note_on_c, 0, 81, 0
2, 54939, Note_on_c, 0, 93, 103
2, 54945, Note_on_c, 0, 81, 83
2, 55054, Note_on_c, 0, 85, 0
2, 55054, Note_on_c, 0, 88, 0
2, 55054, Note_on_c, 0, 73, 0
2, 55054, Note_on_c, 0, 76, 0
2, 55054, Note_on_c, 0, 69, 0
2, 55054, Note_on_c, 0, 61, 0
2, 55054, Note_on_c, 0, 64, 0
2, 55055, Control_c, 0, 64, 0
2, 55095, Note_on_c, 0, 59, 62
2, 55234, Control_c, 0, 64, 127
2, 55254, Note_on_c, 0, 85, 81
2, 55259, Note_on_c, 0, 63, 56
2, 55280, Note_on_c, 0, 93, 0
2, 55405, Note_on_c, 0, 66, 68
2, 55553, Note_on_c, 0, 83, 80
2, 55561, Note_on_c, 0, 71, 57
2, 55699, Note_on_c, 0, 75, 74
2, 55856, Note_on_c, 0, 81, 0
2, 55865, Note_on_c, 0, 81, 81
2, 56364, Note_on_c, 0, 47, 65
2, 56367, Note_on_c, 0, 86, 88
2, 56369, Note_on_c, 0, 63, 0
2, 56371, Note_on_c, 0, 83, 0
2, 56371, Note_on_c, 0, 85, 0
2, 56371, Note_on_c, 0, 71, 0
2, 56371, Note_on_c, 0, 59, 0
2, 56372, Note_on_c, 0, 66, 0
2, 56372, Note_on_c, 0, 81, 0
2, 56372, Note_on_c, 0, 75, 0
2, 56375, Control_c, 0, 64, 0
2, 56381, Note_on_c, 0, 74, 71
2, 56390, Note_on_c, 0, 78, 59
2, 56509, Control_c, 0, 64, 127
2, 56522, Note_on_c, 0, 47, 0
2, 56537, Note_on_c, 0, 54, 62
2, 56688, Note_on_c, 0, 57, 62
2, 56835, Note_on_c, 0, 62, 63
2, 56989, Note_on_c, 0, 85, 88
2, 57000, Note_on_c, 0, 74, 0
2, 57005, Note_on_c, 0, 74, 68
2, 57008, Note_on_c, 0, 78, 0
2, 57018, Note_on_c, 0, 78, 68
2, 57160, Note_on_c, 0, 59, 71
2, 57293, Note_on_c, 0, 66, 67
2, 57454, Note_on_c, 0, 69, 61
2, 57605, Note_on_c, 0, 83, 89
2, 57615, Note_on_c, 0, 74, 0
2, 57621, Note_on_c, 0, 74, 80
2, 57623, Note_on_c, 0, 78, 0
2, 57632, Note_on_c, 0, 78, 71
2, 57768, Note_on_c, 0, 66, 0
2, 57775, Note_on_c, 0, 66, 69
2, 57914, Note_on_c, 0, 69, 0
2, 57918, Note_on_c, 0, 69, 65
2, 58060, Note_on_c, 0, 74, 0
2, 58067, Note_on_c, 0, 74, 65
2, 58076, Note_on_c, 0, 66, 0
2, 58087, Note_on_c, 0, 66, 39
2, 58228, Note_on_c, 0, 81, 91
2, 58237, Note_on_c, 0, 78, 0
2, 58245, Note_on_c, 0, 74, 0
2, 58247, Note_on_c, 0, 78, 73
2, 58250, Note_on_c, 0, 74, 71
2, 58383, Note_on_c, 0, 69, 0
2, 58393, Note_on_c, 0, 69, 66
2, 58521, Note_on_c, 0, 66, 0
2, 58532, Note_on_c, 0, 66, 66
2, 58675, Note_on_c, 0, 59, 0
2, 58679, Note_on_c, 0, 59, 70
2, 58831, Note_on_c, 0, 81, 0
2, 58831, Note_on_c, 0, 83, 0
2, 58831, Note_on_c, 0, 86, 0
2, 58831, Control_c, 0, 64, 0
2, 58831, Note_on_c, 0, 57, 0
2, 58832, Note_on_c, 0, 59, 0
2, 58832, Note_on_c, 0, 54, 0
2, 58832, Note_on_c, 0, 66, 0
2, 58832, Note_on_c, 0, 62, 0
2, 58836, Note_on_c, 0, 85, 0
2, 58844, Note_on_c, 0, 69, 0
2, 58844, Note_on_c, 0, 74, 0
2, 58844, Note_on_c, 0, 78, 0
2, 58844, Note_on_c, 0, 85, 94
2, 58863, Note_on_c, 0, 80, 72
2, 58864, Note_on_c, 0, 77, 65
2, 58866, Note_on_c, 0, 49, 58
2, 59013, Control_c, 0, 64, 127
2, 59043, Note_on_c, 0, 56, 60
2, 59191, Note_on_c, 0, 61, 55
2, 59331, Note_on_c, 0, 63, 56
2, 59454, Note_on_c, 0, 65, 67
2, 59612, Note_on_c, 0, 61, 0
2, 59617, Note_on_c, 0, 61, 70
2, 59771, Note_on_c, 0, 86, 80
2, 59772, Note_on_c, 0, 68, 66
2, 59920, Note_on_c, 0, 83, 83
2, 59925, Note_on_c, 0, 63, 0
2, 59926, Note_on_c, 0, 85, 0
2, 59929, Note_on_c, 0, 56, 0
2, 59929, Note_on_c, 0, 68, 0
2, 59929, Note_on_c, 0, 65, 0
2, 59929, Note_on_c, 0, 86, 0
2, 59931, Control_c, 0, 64, 0
2, 59934, Note_on_c, 0, 49, 0
2, 59934, Note_on_c, 0, 80, 0
2, 59940, Note_on_c, 0, 73, 59
2, 59942, Note_on_c, 0, 77, 0
2, 59944, Note_on_c, 0, 80, 64
2, 59947, Note_on_c, 0, 77, 61
2, 60019, Control_c, 0, 64, 127
2, 60249, Note_on_c, 0, 75, 60
2, 60533, Note_on_c, 0, 77, 0
2, 60540, Note_on_c, 0, 77, 60
2, 60704, Note_on_c, 0, 68, 50
2, 60845, Note_on_c, 0, 78, 51
2, 60909, Note_on_c, 0, 75, 0
2, 60909, Note_on_c, 0, 77, 0
2, 60909, Note_on_c, 0, 61, 0
2, 60909, Note_on_c, 0, 73, 0
2, 60910, Note_on_c, 0, 83, 0
2, 60911, Note_on_c, 0, 80, 0
2, 60922, Control_c, 0, 64, 0
2, 61006, Note_on_c, 0, 80, 48
2, 61006, Note_on_c, 0, 61, 48
2, 61048, Control_c, 0, 64, 127
2, 61337, Note_on_c, 0, 62, 54
2, 61346, Note_on_c, 0, 80, 0
2, 61347, Note_on_c, 0, 68, 0
2, 61347, Note_on_c, 0, 78, 0
2, 61348, Note_on_c, 0, 61, 0
2, 61360, Control_c, 0, 64, 0
2, 61483, Note_on_c, 0, 76, 58
2, 61493, Control_c, 0, 64, 127
2, 61570, Control_c, 0, 64, 0
2, 61639, Note_on_c, 0, 76, 0
2, 61644, Note_on_c, 0, 76, 57
2, 61716, Control_c, 0, 64, 127
2, 61777, Note_on_c, 0, 76, 0
2, 61787, Note_on_c, 0, 76, 68
2, 61805, Note_on_c, 0, 66, 40
2, 61805, Note_on_c, 0, 74, 44
2, 61806, Note_on_c, 0, 69, 46
2, 62096, Note_on_c, 0, 88, 54
2, 62238, Note_on_c, 0, 74, 0
2, 62243, Note_on_c, 0, 74, 56
2, 62243, Note_on_c, 0, 93, 60
2, 62246, Note_on_c, 0, 69, 0
2, 62256, Note_on_c, 0, 69, 41
2, 62261, Note_on_c, 0, 66, 0
2, 62270, Note_on_c, 0, 66, 44
2, 62401, Note_on_c, 0, 100, 70
2, 62424, Control_c, 0, 64, 0
2, 62484, Control_c, 0, 64, 127
2, 62555, Note_on_c, 0, 69, 0
2, 62555, Note_on_c, 0, 61, 57
2, 62555, Note_on_c, 0, 62, 0
2, 62556, Note_on_c, 0, 76, 0
2, 62557, Note_on_c, 0, 74, 0
2, 62557, Note_on_c, 0, 66, 0
2, 62557, Note_on_c, 0, 93, 0
2, 62558, Note_on_c, 0, 88, 0
2, 62711, Note_on_c, 0, 69, 56
2, 62853, Note_on_c, 0, 69, 0
2, 62862, Note_on_c, 0, 69, 66
2, 63006, Note_on_c, 0, 69, 0
2, 63011, Note_on_c, 0, 69, 78
2, 63030, Note_on_c, 0, 73, 58
2, 63050, Note_on_c, 0, 64, 50
2, 63326, Note_on_c, 0, 88, 58
2, 63467, Note_on_c, 0, 69, 0
2, 63467, Note_on_c, 0, 73, 0
2, 63473, Note_on_c, 0, 73, 52
2, 63475, Note_on_c, 0, 64, 0
2, 63475, Note_on_c, 0, 93, 60
2, 63477, Note_on_c, 0, 69, 51
2, 63481, Note_on_c, 0, 64, 35
2, 63628, Note_on_c, 0, 100, 0
2, 63634, Note_on_c, 0, 100, 64
2, 63764, Note_on_c, 0, 73, 0
2, 63766, Note_on_c, 0, 61, 0
2, 63768, Note_on_c, 0, 93, 0
2, 63770, Note_on_c, 0, 64, 0
2, 63787, Note_on_c, 0, 59, 56
2, 63815, Control_c, 0, 64, 0
2, 63820, Control_c, 0, 64, 127
2, 63925, Note_on_c, 0, 76, 71
2, 63966, Note_on_c, 0, 88, 0
2, 64074, Note_on_c, 0, 76, 0
2, 64079, Note_on_c, 0, 76, 70
2, 64227, Note_on_c, 0, 76, 0
2, 64232, Note_on_c, 0, 76, 78
2, 64250, Note_on_c, 0, 69, 0
2, 64255, Note_on_c, 0, 74, 44
2, 64255, Note_on_c, 0, 66, 44
2, 64259, Note_on_c, 0, 69, 52
2, 64458, Note_on_c, 0, 100, 0
2, 64539, Note_on_c, 0, 88, 67
2, 64686, Note_on_c, 0, 93, 70
2, 64688, Note_on_c, 0, 74, 0
2, 64693, Note_on_c, 0, 74, 62
2, 64696, Note_on_c, 0, 66, 0
2, 64696, Note_on_c, 0, 69, 0
2, 64700, Note_on_c, 0, 66, 50
2, 64700, Note_on_c, 0, 69, 36
2, 64843, Note_on_c, 0, 100, 69
2, 64992, Control_c, 0, 64, 0
2, 64997, Note_on_c, 0, 76, 0
2, 64999, Note_on_c, 0, 69, 0
2, 64999, Note_on_c, 0, 57, 55
2, 64999, Note_on_c, 0, 74, 0
2, 65000, Note_on_c, 0, 59, 0
2, 65000, Note_on_c, 0, 88, 0
2, 65002, Note_on_c, 0, 66, 0
2, 65095, Note_on_c, 0, 100, 0
2, 65103, Note_on_c, 0, 93, 0
2, 65154, Note_on_c, 0, 69, 65
2, 65307, Note_on_c, 0, 71, 72
2, 65333, Note_on_c, 0, 69, 0
2, 65464, Note_on_c, 0, 73, 82
2, 65472, Note_on_c, 0, 71, 0
2, 65483, Note_on_c, 0, 64, 55
2, 65484, Note_on_c, 0, 69, 52
2, 65533, Control_c, 0, 64, 127
2, 65564, Note_on_c, 0, 57, 0
2, 65761, Note_on_c, 0, 88, 58
2, 65909, Note_on_c, 0, 73, 0
2, 65916, Note_on_c, 0, 93, 70
2, 65917, Note_on_c, 0, 73, 54
2, 66079, Note_on_c, 0, 100, 60
2, 66200, Note_on_c, 0, 47, 57
2, 66204, Note_on_c, 0, 93, 0
2, 66204, Note_on_c, 0, 64, 0
2, 66206, Note_on_c, 0, 73, 0
2, 66206, Note_on_c, 0, 88, 0
2, 66206, Note_on_c, 0, 100, 0
2, 66224, Note_on_c, 0, 69, 0
2, 66284, Control_c, 0, 64, 0
2, 66350, Note_on_c, 0, 71, 75
2, 66359, Note_on_c, 0, 47, 0
2, 66365, Note_on_c, 0, 54, 50
2, 66501, Note_on_c, 0, 71, 0
2, 66505, Note_on_c, 0, 71, 67
2, 66512, Note_on_c, 0, 66, 64
2, 66515, Note_on_c, 0, 62, 57
2, 66515, Note_on_c, 0, 54, 0
2, 66518, Note_on_c, 0, 59, 57
2, 66659, Note_on_c, 0, 69, 66
2, 66663, Note_on_c, 0, 54, 50
2, 66679, Note_on_c, 0, 62, 0
2, 66687, Note_on_c, 0, 59, 0
2, 66689, Note_on_c, 0, 71, 0
2, 66692, Note_on_c, 0, 66, 0
2, 66800, Note_on_c, 0, 54, 0
2, 66815, Note_on_c, 0, 71, 79
2, 66839, Note_on_c, 0, 69, 0
2, 66843, Note_on_c, 0, 69, 43
2, 66843, Note_on_c, 0, 66, 36
2, 66977, Note_on_c, 0, 66, 0
2, 66986, Note_on_c, 0, 54, 52
2, 66986, Note_on_c, 0, 66, 51
2, 67097, Note_on_c, 0, 54, 0
2, 67130, Note_on_c, 0, 69, 0
2, 67139, Note_on_c, 0, 69, 73
2, 67142, Note_on_c, 0, 62, 58
2, 67144, Note_on_c, 0, 59, 55
2, 67215, Control_c, 0, 64, 127
2, 67246, Note_on_c, 0, 66, 0
2, 67261, Control_c, 0, 64, 0
2, 67267, Note_on_c, 0, 62, 0
2, 67269, Note_on_c, 0, 71, 0
2, 67297, Note_on_c, 0, 73, 86
2, 67299, Note_on_c, 0, 59, 0
2, 67299, Note_on_c, 0, 69, 0
2, 67300, Note_on_c, 0, 54, 59
2, 67304, Note_on_c, 0, 69, 55
2, 67423, Note_on_c, 0, 54, 0
2, 67441, Note_on_c, 0, 49, 64
2, 67514, Control_c, 0, 64, 127
2, 67589, Note_on_c, 0, 57, 57
2, 67703, Control_c, 0, 64, 0
2, 67722, Note_on_c, 0, 49, 0
2, 67732, Note_on_c, 0, 57, 0
2, 67748, Note_on_c, 0, 74, 89
2, 67754, Note_on_c, 0, 64, 59
2, 67757, Note_on_c, 0, 61, 57
2, 67764, Note_on_c, 0, 71, 73
2, 67768, Note_on_c, 0, 69, 0
2, 67783, Note_on_c, 0, 73, 0
2, 67875, Control_c, 0, 64, 127
2, 67902, Note_on_c, 0, 57, 57
2, 67991, Note_on_c, 0, 64, 0
2, 68042, Control_c, 0, 64, 0
2, 68051, Note_on_c, 0, 76, 91
2, 68055, Note_on_c, 0, 73, 79
2, 68106, Control_c, 0, 64, 127
2, 68213, Note_on_c, 0, 57, 0
2, 68221, Note_on_c, 0, 57, 64
2, 68259, Note_on_c, 0, 71, 0
2, 68359, Note_on_c, 0, 61, 0
2, 68363, Note_on_c, 0, 78, 91
2, 68370, Note_on_c, 0, 61, 64
2, 68375, Note_on_c, 0, 74, 0
2, 68380, Control_c, 0, 64, 0
2, 68385, Note_on_c, 0, 74, 60
2, 68390, Note_on_c, 0, 73, 0
2, 68392, Note_on_c, 0, 64, 56
2, 68397, Note_on_c, 0, 73, 59
2, 68459, Control_c, 0, 64, 127
2, 68505, Note_on_c, 0, 57, 0
2, 68511, Note_on_c, 0, 57, 59
2, 68657, Control_c, 0, 64, 0
2, 68665, Note_on_c, 0, 57, 0
2, 68666, Note_on_c, 0, 64, 0
2, 68667, Note_on_c, 0, 61, 0
2, 68670, Note_on_c, 0, 76, 0
2, 68670, Note_on_c, 0, 73, 0
2, 68684, Note_on_c, 0, 66, 67
2, 68688, Note_on_c, 0, 50, 59
2, 68820, Control_c, 0, 64, 127
2, 68859, Note_on_c, 0, 57, 51
2, 69020, Note_on_c, 0, 62, 65
2, 69168, Note_on_c, 0, 64, 53
2, 69212, Note_on_c, 0, 66, 0
2, 69216, Note_on_c, 0, 66, 30
2, 69319, Note_on_c, 0, 66, 0
2, 69325, Note_on_c, 0, 66, 54
2, 69474, Note_on_c, 0, 69, 48
2, 69619, Note_on_c, 0, 74, 0
2, 69625, Note_on_c, 0, 74, 44
2, 69783, Note_on_c, 0, 76, 47
2, 69949, Note_on_c, 0, 78, 0
2, 69953, Note_on_c, 0, 78, 57
2, 70248, Control_c, 0, 64, 0
2, 70256, Note_on_c, 0, 64, 0
2, 70295, Note_on_c, 0, 57, 0
2, 70333, Note_on_c, 0, 50, 0
2, 70379, Note_on_c, 0, 66, 0
2, 70440, Note_on_c, 0, 62, 0
2, 70487, Note_on_c, 0, 69, 0
2, 70540, Note_on_c, 0, 76, 0
2, 70694, Note_on_c, 0, 74, 0
2, 70717, Control_c, 0, 64, 127
2, 71040, Note_on_c, 0, 78, 0
2, 71426, Note_on_c, 0, 62, 56
2, 71598, Note_on_c, 0, 68, 40
2, 71742, Note_on_c, 0, 69, 57
2, 71898, Note_on_c, 0, 71, 58
2, 72199, Note_on_c, 0, 69, 0
2, 72209, Note_on_c, 0, 69, 59
2, 72718, Note_on_c, 0, 64, 61
2, 72867, Note_on_c, 0, 68, 0
2, 72876, Note_on_c, 0, 68, 54
2, 72903, Control_c, 0, 64, 0
2, 72944, Control_c, 0, 64, 127
2, 73036, Note_on_c, 0, 69, 0
2, 73041, Note_on_c, 0, 69, 52
2, 73190, Note_on_c, 0, 71, 0
2, 73195, Note_on_c, 0, 71, 63
2, 73505, Note_on_c, 0, 69, 0
2, 73512, Note_on_c, 0, 69, 61
2, 73545, Control_c, 0, 64, 0
2, 73559, Note_on_c, 0, 68, 0
2, 73612, Control_c, 0, 64, 127
2, 73992, Note_on_c, 0, 66, 63
2, 74012, Note_on_c, 0, 71, 0
2, 74051, Note_on_c, 0, 64, 0
2, 74143, Note_on_c, 0, 68, 65
2, 74204, Note_on_c, 0, 69, 0
2, 74204, Control_c, 0, 64, 0
2, 74313, Note_on_c, 0, 69, 60
2, 74359, Note_on_c, 0, 68, 0
2, 74474, Note_on_c, 0, 69, 0
2, 74475, Note_on_c, 0, 71, 50
2, 74797, Note_on_c, 0, 69, 59
2, 74880, Note_on_c, 0, 62, 0
2, 74898, Note_on_c, 0, 71, 0
2, 75284, Note_on_c, 0, 54, 43
2, 75402, Control_c, 0, 64, 127
2, 75495, Control_c, 0, 64, 0
2, 75502, Control_c, 0, 64, 127
2, 75906, Note_on_c, 0, 52, 61
2, 76063, Note_on_c, 0, 88, 76
2, 76205, Note_on_c, 0, 86, 76
2, 76381, Note_on_c, 0, 85, 80
2, 76439, Note_on_c, 0, 66, 0
2, 76460, Control_c, 0, 64, 0
2, 76515, Control_c, 0, 64, 127
2, 76536, Note_on_c, 0, 50, 56
2, 76711, Note_on_c, 0, 68, 43
2, 76830, Note_on_c, 0, 69, 0
2, 76837, Note_on_c, 0, 69, 55
2, 77010, Note_on_c, 0, 57, 53
2, 77011, Note_on_c, 0, 71, 65
2, 77299, Note_on_c, 0, 69, 0
2, 77308, Note_on_c, 0, 69, 71
2, 77437, Note_on_c, 0, 54, 0
2, 77459, Note_on_c, 0, 62, 57
2, 77783, Note_on_c, 0, 52, 0
2, 77794, Note_on_c, 0, 52, 60
2, 77829, Note_on_c, 0, 68, 0
2, 77832, Note_on_c, 0, 57, 0
2, 77836, Note_on_c, 0, 69, 0
2, 77836, Note_on_c, 0, 88, 0
2, 77838, Note_on_c, 0, 50, 0
2, 77840, Note_on_c, 0, 62, 0
2, 77844, Note_on_c, 0, 86, 0
2, 77847, Control_c, 0, 64, 0
2, 77875, Note_on_c, 0, 71, 0
2, 77921, Note_on_c, 0, 85, 0
2, 77944, Note_on_c, 0, 68, 60
2, 77982, Control_c, 0, 64, 127
2, 78092, Note_on_c, 0, 69, 68
2, 78249, Note_on_c, 0, 71, 78
2, 78261, Control_c, 0, 64, 0
2, 78264, Note_on_c, 0, 59, 63
2, 78264, Note_on_c, 0, 69, 0
2, 78265, Note_on_c, 0, 68, 0
2, 78451, Control_c, 0, 64, 127
2, 78554, Note_on_c, 0, 69, 70
2, 78723, Note_on_c, 0, 64, 59
2, 79050, Note_on_c, 0, 54, 54
2, 79079, Note_on_c, 0, 69, 0
2, 79079, Note_on_c, 0, 59, 0
2, 79081, Note_on_c, 0, 52, 0
2, 79084, Control_c, 0, 64, 0
2, 79096, Note_on_c, 0, 71, 0
2, 79202, Note_on_c, 0, 68, 68
2, 79265, Control_c, 0, 64, 127
2, 79363, Note_on_c, 0, 69, 69
2, 79516, Note_on_c, 0, 71, 76
2, 79517, Note_on_c, 0, 61, 57
2, 79518, Control_c, 0, 64, 0
2, 79536, Note_on_c, 0, 69, 0
2, 79537, Note_on_c, 0, 68, 0
2, 79733, Control_c, 0, 64, 127
2, 79808, Note_on_c, 0, 69, 69
2, 79918, Note_on_c, 0, 64, 0
2, 79991, Note_on_c, 0, 66, 54
2, 80302, Note_on_c, 0, 54, 0
2, 80309, Note_on_c, 0, 54, 53
2, 80329, Control_c, 0, 64, 0
2, 80331, Note_on_c, 0, 61, 0
2, 80332, Note_on_c, 0, 71, 0
2, 80332, Note_on_c, 0, 66, 0
2, 80448, Control_c, 0, 64, 127
2, 80934, Note_on_c, 0, 52, 62
2, 81100, Note_on_c, 0, 88, 78
2, 81249, Note_on_c, 0, 86, 80
2, 81401, Note_on_c, 0, 85, 84
2, 81559, Note_on_c, 0, 38, 62
2, 81719, Note_on_c, 0, 68, 62
2, 81733, Note_on_c, 0, 45, 58
2, 81845, Note_on_c, 0, 69, 0
2, 81851, Note_on_c, 0, 69, 67
2, 81881, Note_on_c, 0, 50, 59
2, 82009, Note_on_c, 0, 71, 79
2, 82037, Note_on_c, 0, 52, 0
2, 82048, Note_on_c, 0, 52, 51
2, 82168, Note_on_c, 0, 54, 0
2, 82172, Note_on_c, 0, 54, 53
2, 82314, Note_on_c, 0, 50, 0
2, 82318, Note_on_c, 0, 64, 67
2, 82318, Note_on_c, 0, 50, 52
2, 82479, Note_on_c, 0, 57, 61
2, 82613, Note_on_c, 0, 69, 0
2, 82619, Note_on_c, 0, 69, 75
2, 82630, Note_on_c, 0, 62, 56
2, 82754, Note_on_c, 0, 45, 0
2, 82754, Note_on_c, 0, 54, 0
2, 82754, Note_on_c, 0, 50, 0
2, 82754, Note_on_c, 0, 71, 0
2, 82754, Note_on_c, 0, 68, 0
2, 82754, Note_on_c, 0, 57, 0
2, 82755, Note_on_c, 0, 38, 0
2, 82758, Note_on_c, 0, 88, 0
2, 82761, Control_c, 0, 64, 0
2, 82767, Note_on_c, 0, 85, 0
2, 82767, Note_on_c, 0, 86, 0
2, 82772, Note_on_c, 0, 40, 66
2, 82821, Control_c, 0, 64, 127
2, 82916, Note_on_c, 0, 68, 74
2, 82917, Note_on_c, 0, 47, 63
2, 83051, Note_on_c, 0, 52, 0
2, 83060, Note_on_c, 0, 52, 74
2, 83074, Note_on_c, 0, 69, 0
2, 83078, Note_on_c, 0, 69, 65
2, 83197, Note_on_c, 0, 64, 0
2, 83208, Note_on_c, 0, 54, 64
2, 83236, Note_on_c, 0, 71, 84
2, 83374, Note_on_c, 0, 56, 69
2, 83522, Note_on_c, 0, 64, 81
2, 83527, Note_on_c, 0, 52, 0
2, 83538, Note_on_c, 0, 52, 72
2, 83690, Note_on_c, 0, 59, 70
2, 83819, Note_on_c, 0, 64, 0
2, 83819, Note_on_c, 0, 69, 0
2, 83825, Note_on_c, 0, 64, 54
2, 83829, Note_on_c, 0, 69, 82
2, 83963, Control_c, 0, 64, 0
2, 83967, Note_on_c, 0, 52, 0
2, 83967, Note_on_c, 0, 47, 0
2, 83967, Note_on_c, 0, 40, 0
2, 83967, Note_on_c, 0, 68, 0
2, 83967, Note_on_c, 0, 59, 0
2, 83968, Note_on_c, 0, 54, 0
2, 83968, Note_on_c, 0, 71, 0
2, 83968, Note_on_c, 0, 56, 0
2, 83969, Note_on_c, 0, 42, 79
2, 83973, Note_on_c, 0, 62, 0
2, 84088, Control_c, 0, 64, 127
2, 84134, Note_on_c, 0, 49, 67
2, 84137, Note_on_c, 0, 68, 76
2, 84272, Note_on_c, 0, 69, 0
2, 84282, Note_on_c, 0, 52, 72
2, 84282, Note_on_c, 0, 69, 69
2, 84433, Note_on_c, 0, 71, 86
2, 84445, Note_on_c, 0, 57, 66
2, 84577, Note_on_c, 0, 61, 73
2, 84733, Note_on_c, 0, 52, 0
2, 84733, Note_on_c, 0, 64, 0
2, 84742, Note_on_c, 0, 64, 78
2, 84744, Note_on_c, 0, 52, 73
2, 84879, Note_on_c, 0, 57, 0
2, 84890, Note_on_c, 0, 57, 63
2, 85025, Note_on_c, 0, 61, 0
2, 85031, Note_on_c, 0, 61, 69
2, 85040, Note_on_c, 0, 69, 0
2, 85049, Note_on_c, 0, 69, 86
2, 85181, Note_on_c, 0, 68, 0
2, 85182, Note_on_c, 0, 64, 0
2, 85182, Note_on_c, 0, 57, 0
2, 85182, Note_on_c, 0, 52, 0
2, 85182, Note_on_c, 0, 49, 0
2, 85182, Control_c, 0, 64, 0
2, 85182, Note_on_c, 0, 71, 0
2, 85194, Note_on_c, 0, 42, 0
2, 85205, Note_on_c, 0, 42, 67
2, 85301, Control_c, 0, 64, 127
2, 85340, Note_on_c, 0, 49, 65
2, 85482, Note_on_c, 0, 52, 80
2, 85631, Note_on_c, 0, 57, 74
2, 85785, Note_on_c, 0, 61, 0
2, 85795, Note_on_c, 0, 61, 83
2, 85944, Note_on_c, 0, 88, 92
2, 85950, Note_on_c, 0, 76, 83
2, 86081, Note_on_c, 0, 86, 96
2, 86084, Note_on_c, 0, 74, 95
2, 86241, Note_on_c, 0, 85, 101
2, 86246, Note_on_c, 0, 73, 92
2, 86312, Note_on_c, 0, 88, 0
2, 86312, Note_on_c, 0, 57, 0
2, 86312, Note_on_c, 0, 74, 0
2, 86312, Note_on_c, 0, 86, 0
2, 86312, Note_on_c, 0, 76, 0
2, 86313, Note_on_c, 0, 52, 0
2, 86314, Note_on_c, 0, 61, 0
2, 86314, Note_on_c, 0, 49, 0
2, 86315, Note_on_c, 0, 42, 0
2, 86319, Control_c, 0, 64, 0
2, 86330, Note_on_c, 0, 69, 0
2, 86388, Note_on_c, 0, 47, 70
2, 86388, Note_on_c, 0, 35, 70
2, 86407, Control_c, 0, 64, 127
2, 86530, Note_on_c, 0, 47, 0
2, 86538, Note_on_c, 0, 35, 0
2, 86541, Note_on_c, 0, 47, 70
2, 86544, Note_on_c, 0, 35, 62
2, 86546, Note_on_c, 0, 68, 70
2, 86689, Note_on_c, 0, 69, 71
2, 86691, Note_on_c, 0, 50, 61
2, 86845, Note_on_c, 0, 71, 88
2, 86853, Note_on_c, 0, 50, 0
2, 86856, Note_on_c, 0, 62, 66
2, 86857, Note_on_c, 0, 50, 63
2, 86857, Note_on_c, 0, 54, 62
2, 86860, Note_on_c, 0, 47, 0
2, 86862, Note_on_c, 0, 66, 67
2, 86872, Note_on_c, 0, 47, 55
2, 86999, Note_on_c, 0, 59, 68
2, 87006, Note_on_c, 0, 47, 0
2, 87016, Note_on_c, 0, 47, 51
2, 87152, Note_on_c, 0, 50, 0
2, 87152, Note_on_c, 0, 62, 0
2, 87157, Note_on_c, 0, 50, 71
2, 87159, Note_on_c, 0, 62, 68
2, 87290, Note_on_c, 0, 54, 0
2, 87290, Note_on_c, 0, 66, 0
2, 87296, Note_on_c, 0, 54, 69
2, 87297, Note_on_c, 0, 66, 62
2, 87444, Note_on_c, 0, 59, 0
2, 87444, Note_on_c, 0, 71, 0
2, 87448, Note_on_c, 0, 71, 93
2, 87455, Note_on_c, 0, 59, 68
2, 87459, Note_on_c, 0, 62, 0
2, 87467, Note_on_c, 0, 66, 0
2, 87469, Note_on_c, 0, 62, 72
2, 87471, Note_on_c, 0, 66, 64
2, 87536, Note_on_c, 0, 85, 0
2, 87548, Note_on_c, 0, 73, 0
2, 87549, Note_on_c, 0, 68, 0
2, 87551, Note_on_c, 0, 54, 0
2, 87552, Note_on_c, 0, 69, 0
2, 87553, Note_on_c, 0, 47, 0
2, 87554, Note_on_c, 0, 50, 0
2, 87556, Control_c, 0, 64, 0
2, 87594, Note_on_c, 0, 32, 76
2, 87598, Note_on_c, 0, 35, 0
2, 87644, Control_c, 0, 64, 127
2, 87749, Note_on_c, 0, 47, 74
2, 87755, Note_on_c, 0, 68, 80
2, 87900, Note_on_c, 0, 50, 69
2, 87901, Note_on_c, 0, 69, 77
2, 88043, Note_on_c, 0, 71, 0
2, 88048, Note_on_c, 0, 71, 93
2, 88051, Note_on_c, 0, 50, 0
2, 88051, Note_on_c, 0, 62, 0
2, 88051, Note_on_c, 0, 66, 0
2, 88058, Note_on_c, 0, 66, 78
2, 88061, Note_on_c, 0, 50, 71
2, 88061, Note_on_c, 0, 54, 75
2, 88062, Note_on_c, 0, 62, 70
2, 88197, Note_on_c, 0, 59, 0
2, 88203, Note_on_c, 0, 59, 72
2, 88204, Note_on_c, 0, 47, 0
2, 88211, Note_on_c, 0, 47, 61
2, 88343, Note_on_c, 0, 62, 0
2, 88350, Note_on_c, 0, 50, 0
2, 88353, Note_on_c, 0, 62, 85
2, 88355, Note_on_c, 0, 50, 86
2, 88488, Note_on_c, 0, 54, 0
2, 88488, Note_on_c, 0, 66, 0
2, 88495, Note_on_c, 0, 66, 73
2, 88495, Note_on_c, 0, 54, 82
2, 88627, Note_on_c, 0, 32, 0
2, 88640, Note_on_c, 0, 73, 98
2, 88650, Note_on_c, 0, 47, 0
2, 88650, Note_on_c, 0, 59, 0
2, 88650, Note_on_c, 0, 68, 0
2, 88654, Note_on_c, 0, 59, 78
2, 88656, Note_on_c, 0, 68, 86
2, 88657, Note_on_c, 0, 66, 0
2, 88660, Note_on_c, 0, 47, 78
2, 88661, Note_on_c, 0, 66, 74
2, 88715, Note_on_c, 0, 54, 0
2, 88716, Note_on_c, 0, 71, 0
2, 88716, Note_on_c, 0, 69, 0
2, 88716, Note_on_c, 0, 47, 0
2, 88716, Note_on_c, 0, 62, 0
2, 88717, Note_on_c, 0, 50, 0
2, 88722, Control_c, 0, 64, 0
2, 88785, Note_on_c, 0, 37, 88
2, 88803, Control_c, 0, 64, 127
2, 88940, Note_on_c, 0, 49, 78
2, 88941, Note_on_c, 0, 71, 88
2, 88942, Note_on_c, 0, 66, 0
2, 88946, Note_on_c, 0, 66, 64
2, 89080, Note_on_c, 0, 66, 0
2, 89080, Note_on_c, 0, 73, 0
2, 89084, Note_on_c, 0, 73, 88
2, 89085, Note_on_c, 0, 54, 82
2, 89089, Note_on_c, 0, 66, 75
2, 89241, Note_on_c, 0, 37, 0
2, 89241, Note_on_c, 0, 66, 0
2, 89241, Note_on_c, 0, 68, 0
2, 89244, Note_on_c, 0, 74, 107
2, 89251, Note_on_c, 0, 37, 72
2, 89252, Note_on_c, 0, 66, 90
2, 89252, Note_on_c, 0, 68, 86
2, 89318, Note_on_c, 0, 73, 0
2, 89319, Note_on_c, 0, 54, 0
2, 89320, Note_on_c, 0, 71, 0
2, 89333, Note_on_c, 0, 59, 0
2, 89387, Note_on_c, 0, 49, 0
2, 89392, Note_on_c, 0, 61, 76
2, 89394, Note_on_c, 0, 49, 67
2, 89537, Note_on_c, 0, 71, 91
2, 89537, Note_on_c, 0, 54, 85
2, 89683, Note_on_c, 0, 56, 60
2, 89794, Note_on_c, 0, 61, 0
2, 89799, Note_on_c, 0, 61, 79
2, 89828, Note_on_c, 0, 73, 109
2, 89832, Note_on_c, 0, 68, 0
2, 89839, Note_on_c, 0, 68, 90
2, 89839, Note_on_c, 0, 65, 89
2, 89892, Control_c, 0, 64, 0
2, 89897, Note_on_c, 0, 49, 0
2, 89897, Note_on_c, 0, 71, 0
2, 89898, Note_on_c, 0, 61, 0
2, 89898, Note_on_c, 0, 56, 0
2, 89900, Note_on_c, 0, 74, 0
2, 89902, Note_on_c, 0, 54, 0
2, 89902, Note_on_c, 0, 66, 0
2, 89909, Note_on_c, 0, 37, 0
2, 89948, Control_c, 0, 64, 127
2, 89965, Note_on_c, 0, 37, 94
2, 90136, Note_on_c, 0, 75, 108
2, 90140, Note_on_c, 0, 37, 0
2, 90141, Note_on_c, 0, 49, 85
2, 90143, Note_on_c, 0, 63, 89
2, 90144, Note_on_c, 0, 37, 84
2, 90264, Note_on_c, 0, 53, 88
2, 90424, Note_on_c, 0, 65, 0
2, 90424, Note_on_c, 0, 68, 0
2, 90424, Note_on_c, 0, 73, 0
2, 90428, Note_on_c, 0, 77, 103
2, 90428, Note_on_c, 0, 56, 91
2, 90432, Note_on_c, 0, 65, 98
2, 90433, Note_on_c, 0, 68, 99
2, 90434, Note_on_c, 0, 73, 89
2, 90475, Note_on_c, 0, 63, 0
2, 90476, Note_on_c, 0, 53, 0
2, 90479, Note_on_c, 0, 75, 0
2, 90544, Control_c, 0, 64, 0
2, 90554, Note_on_c, 0, 37, 0
2, 90566, Note_on_c, 0, 37, 98
2, 90600, Control_c, 0, 64, 127
2, 90708, Note_on_c, 0, 37, 0
2, 90708, Note_on_c, 0, 49, 0
2, 90716, Note_on_c, 0, 56, 0
2, 90716, Note_on_c, 0, 73, 0
2, 90717, Note_on_c, 0, 78, 103
2, 90717, Note_on_c, 0, 49, 94
2, 90718, Note_on_c, 0, 66, 102
2, 90718, Note_on_c, 0, 37, 88
2, 90720, Note_on_c, 0, 73, 72
2, 90777, Note_on_c, 0, 65, 0
2, 90792, Note_on_c, 0, 49, 0
2, 90796, Note_on_c, 0, 37, 0
2, 90797, Note_on_c, 0, 73, 0
2, 90798, Note_on_c, 0, 77, 0
2, 90803, Control_c, 0, 64, 0
2, 90808, Note_on_c, 0, 68, 0
2, 90823, Note_on_c, 0, 66, 0
2, 90859, Note_on_c, 0, 80, 106
2, 90865, Note_on_c, 0, 49, 98
2, 90865, Note_on_c, 0, 77, 89
2, 90865, Note_on_c, 0, 68, 101
2, 90865, Note_on_c, 0, 73, 98
2, 90865, Note_on_c, 0, 37, 100
2, 90877, Control_c, 0, 64, 127
2, 91069, Note_on_c, 0, 80, 0
2, 91069, Note_on_c, 0, 73, 0
2, 91069, Note_on_c, 0, 68, 0
2, 91069, Control_c, 0, 64, 0
2, 91070, Note_on_c, 0, 77, 0
2, 91077, Note_on_c, 0, 78, 0
2, 91084, Note_on_c, 0, 37, 0
2, 91084, Note_on_c, 0, 49, 0
2, 91157, Note_on_c, 0, 81, 108
2, 91160, Note_on_c, 0, 69, 104
2, 91160, Note_on_c, 0, 74, 106
2, 91164, Note_on_c, 0, 38, 105
2, 91164, Note_on_c, 0, 78, 101
2, 91169, Control_c, 0, 64, 127
2, 91171, Note_on_c, 0, 26, 104
2, 91307, Note_on_c, 0, 26, 0
2, 91315, Note_on_c, 0, 38, 0
2, 91315, Note_on_c, 0, 26, 91
2, 91318, Note_on_c, 0, 80, 100
2, 91318, Note_on_c, 0, 68, 94
2, 91319, Note_on_c, 0, 38, 94
2, 91342, Note_on_c, 0, 74, 0
2, 91342, Note_on_c, 0, 69, 0
2, 91343, Note_on_c, 0, 81, 0
2, 91343, Note_on_c, 0, 78, 0
2, 91352, Control_c, 0, 64, 0
2, 91384, Note_on_c, 0, 26, 0
2, 91430, Note_on_c, 0, 38, 0
2, 91453, Note_on_c, 0, 80, 0
2, 91469, Note_on_c, 0, 81, 97
2, 91472, Note_on_c, 0, 69, 87
2, 91496, Note_on_c, 0, 69, 0
2, 91507, Note_on_c, 0, 68, 0
2, 91530, Note_on_c, 0, 81, 0
2, 91617, Note_on_c, 0, 83, 109
2, 91620, Note_on_c, 0, 71, 99
2, 91625, Note_on_c, 0, 80, 91
2, 91625, Note_on_c, 0, 76, 95
2, 91637, Control_c, 0, 64, 127
2, 91906, Note_on_c, 0, 76, 0
2, 91916, Note_on_c, 0, 76, 107
2, 91918, Note_on_c, 0, 64, 98
2, 91971, Control_c, 0, 64, 0
2, 92014, Control_c, 0, 64, 127
2, 92060, Control_c, 0, 64, 0
2, 92063, Note_on_c, 0, 28, 96
2, 92063, Note_on_c, 0, 40, 94
2, 92069, Note_on_c, 0, 71, 0
2, 92070, Note_on_c, 0, 64, 0
2, 92071, Note_on_c, 0, 83, 0
2, 92144, Control_c, 0, 64, 127
2, 92205, Note_on_c, 0, 83, 107
2, 92206, Note_on_c, 0, 76, 0
2, 92209, Note_on_c, 0, 71, 100
2, 92209, Note_on_c, 0, 73, 100
2, 92213, Note_on_c, 0, 76, 95
2, 92221, Note_on_c, 0, 40, 0
2, 92233, Control_c, 0, 64, 0
2, 92282, Note_on_c, 0, 28, 0
2, 92358, Note_on_c, 0, 30, 101
2, 92359, Control_c, 0, 64, 127
2, 92360, Note_on_c, 0, 42, 99
2, 92497, Note_on_c, 0, 30, 0
2, 92497, Note_on_c, 0, 42, 0
2, 92500, Note_on_c, 0, 81, 99
2, 92502, Note_on_c, 0, 69, 92
2, 92505, Note_on_c, 0, 76, 0
2, 92508, Note_on_c, 0, 30, 95
2, 92508, Note_on_c, 0, 42, 96
2, 92513, Note_on_c, 0, 76, 89
2, 92520, Note_on_c, 0, 80, 0
2, 92541, Note_on_c, 0, 69, 0
2, 92543, Note_on_c, 0, 42, 0
2, 92544, Note_on_c, 0, 71, 0
2, 92548, Note_on_c, 0, 81, 0
2, 92551, Note_on_c, 0, 83, 0
2, 92552, Control_c, 0, 64, 0
2, 92567, Note_on_c, 0, 73, 0
2, 92582, Note_on_c, 0, 30, 0
2, 92590, Note_on_c, 0, 76, 0
2, 92652, Note_on_c, 0, 80, 98
2, 92656, Note_on_c, 0, 68, 87
2, 92659, Note_on_c, 0, 76, 68
2, 92712, Note_on_c, 0, 76, 0
2, 92720, Note_on_c, 0, 68, 0
2, 92743, Note_on_c, 0, 80, 0
2, 92803, Note_on_c, 0, 81, 107
2, 92808, Note_on_c, 0, 69, 96
2, 92811, Note_on_c, 0, 73, 96
2, 92811, Note_on_c, 0, 76, 97
2, 92858, Control_c, 0, 64, 127
2, 93108, Note_on_c, 0, 42, 89
2, 93177, Control_c, 0, 64, 0
2, 93212, Control_c, 0, 64, 127
2, 93242, Note_on_c, 0, 69, 0
2, 93246, Note_on_c, 0, 49, 92
2, 93247, Note_on_c, 0, 57, 95
2, 93247, Note_on_c, 0, 69, 85
2, 93404, Note_on_c, 0, 78, 95
2, 93445, Note_on_c, 0, 80, 92
2, 93454, Note_on_c, 0, 49, 0
2, 93454, Note_on_c, 0, 76, 0
2, 93454, Note_on_c, 0, 57, 0
2, 93454, Note_on_c, 0, 42, 0
2, 93455, Note_on_c, 0, 69, 0
2, 93455, Note_on_c, 0, 73, 0
2, 93455, Note_on_c, 0, 81, 0
2, 93460, Note_on_c, 0, 78, 0
2, 93480, Control_c, 0, 64, 0
2, 93530, Note_on_c, 0, 81, 104
2, 93532, Note_on_c, 0, 74, 100
2, 93535, Note_on_c, 0, 38, 98
2, 93535, Note_on_c, 0, 69, 98
2, 93536, Note_on_c, 0, 78, 95
2, 93538, Note_on_c, 0, 66, 91
2, 93540, Note_on_c, 0, 26, 98
2, 93542, Note_on_c, 0, 66, 0
2, 93550, Control_c, 0, 64, 127
2, 93580, Note_on_c, 0, 80, 0
2, 93680, Note_on_c, 0, 38, 0
2, 93684, Note_on_c, 0, 80, 100
2, 93690, Note_on_c, 0, 68, 95
2, 93691, Note_on_c, 0, 81, 0
2, 93691, Note_on_c, 0, 38, 86
2, 93692, Note_on_c, 0, 74, 0
2, 93692, Note_on_c, 0, 69, 0
2, 93693, Control_c, 0, 64, 0
2, 93698, Note_on_c, 0, 78, 0
2, 93715, Note_on_c, 0, 80, 0
2, 93749, Note_on_c, 0, 68, 0
2, 93765, Note_on_c, 0, 26, 0
2, 93834, Note_on_c, 0, 81, 101
2, 93837, Note_on_c, 0, 69, 86
2, 93849, Note_on_c, 0, 38, 0
2, 93862, Note_on_c, 0, 69, 0
2, 93903, Note_on_c, 0, 81, 0
2, 93984, Note_on_c, 0, 83, 108
2, 93990, Note_on_c, 0, 71, 101
2, 93993, Note_on_c, 0, 80, 90
2, 93999, Note_on_c, 0, 76, 90
2, 94010, Control_c, 0, 64, 127
2, 94056, Control_c, 0, 64, 0
2, 94136, Note_on_c, 0, 40, 94
2, 94137, Note_on_c, 0, 28, 92
2, 94156, Control_c, 0, 64, 127
2, 94279, Note_on_c, 0, 28, 0
2, 94279, Note_on_c, 0, 40, 0
2, 94279, Note_on_c, 0, 76, 0
2, 94280, Note_on_c, 0, 81, 103
2, 94283, Note_on_c, 0, 69, 93
2, 94285, Note_on_c, 0, 40, 89
2, 94287, Note_on_c, 0, 76, 79
2, 94288, Note_on_c, 0, 28, 86
2, 94312, Note_on_c, 0, 80, 0
2, 94314, Note_on_c, 0, 83, 0
2, 94314, Note_on_c, 0, 71, 0
2, 94314, Note_on_c, 0, 81, 0
2, 94314, Note_on_c, 0, 76, 0
2, 94315, Note_on_c, 0, 69, 0
2, 94320, Control_c, 0, 64, 0
2, 94348, Note_on_c, 0, 28, 0
2, 94348, Note_on_c, 0, 40, 0
2, 94427, Note_on_c, 0, 71, 98
2, 94429, Note_on_c, 0, 83, 100
2, 94461, Note_on_c, 0, 83, 0
2, 94471, Note_on_c, 0, 71, 0
2, 94590, Note_on_c, 0, 85, 106
2, 94592, Note_on_c, 0, 73, 104
2, 94592, Note_on_c, 0, 81, 85
2, 94594, Note_on_c, 0, 78, 98
2, 94595, Note_on_c, 0, 42, 100
2, 94597, Note_on_c, 0, 30, 99
2, 94625, Control_c, 0, 64, 127
2, 94894, Note_on_c, 0, 42, 0
2, 94905, Note_on_c, 0, 42, 81
2, 94981, Note_on_c, 0, 52, 81
2, 95051, Note_on_c, 0, 66, 93
2, 95056, Note_on_c, 0, 57, 84
2, 95193, Note_on_c, 0, 42, 0
2, 95199, Note_on_c, 0, 42, 78
2, 95278, Note_on_c, 0, 52, 0
2, 95283, Note_on_c, 0, 52, 82
2, 95336, Note_on_c, 0, 68, 96
2, 95343, Note_on_c, 0, 59, 90
2, 95493, Note_on_c, 0, 42, 0
2, 95497, Note_on_c, 0, 42, 86
2, 95585, Note_on_c, 0, 52, 0
2, 95589, Note_on_c, 0, 52, 75
2, 95636, Note_on_c, 0, 69, 94
2, 95639, Note_on_c, 0, 57, 0
2, 95639, Note_on_c, 0, 59, 0
2, 95642, Note_on_c, 0, 61, 77
2, 95645, Note_on_c, 0, 57, 69
2, 95650, Note_on_c, 0, 59, 79
2, 95769, Note_on_c, 0, 42, 0
2, 95777, Note_on_c, 0, 69, 0
2, 95779, Note_on_c, 0, 42, 85
2, 95781, Note_on_c, 0, 69, 79
2, 95850, Note_on_c, 0, 59, 0
2, 95850, Note_on_c, 0, 66, 0
2, 95852, Note_on_c, 0, 52, 0
2, 95852, Note_on_c, 0, 78, 0
2, 95855, Note_on_c, 0, 73, 0
2, 95855, Note_on_c, 0, 57, 0
2, 95856, Note_on_c, 0, 42, 0
2, 95856, Note_on_c, 0, 69, 0
2, 95857, Note_on_c, 0, 30, 0
2, 95857, Note_on_c, 0, 68, 0
2, 95869, Note_on_c, 0, 81, 0
2, 95869, Control_c, 0, 64, 0
2, 95877, Note_on_c, 0, 61, 0
2, 95877, Note_on_c, 0, 85, 0
2, 95927, Note_on_c, 0, 81, 106
2, 95929, Note_on_c, 0, 74, 101
2, 95931, Note_on_c, 0, 69, 97
2, 95933, Note_on_c, 0, 38, 101
2, 95934, Note_on_c, 0, 78, 95
2, 95937, Note_on_c, 0, 26, 99
2, 95946, Control_c, 0, 64, 127
2, 96088, Note_on_c, 0, 68, 91
2, 96095, Note_on_c, 0, 74, 0
2, 96096, Note_on_c, 0, 38, 0
2, 96100, Note_on_c, 0, 69, 0
2, 96117, Control_c, 0, 64, 0
2, 96145, Note_on_c, 0, 68, 0
2, 96161, Note_on_c, 0, 26, 0
2, 96222, Note_on_c, 0, 81, 0
2, 96233, Note_on_c, 0, 81, 99
2, 96235, Note_on_c, 0, 69, 81
2, 96276, Note_on_c, 0, 78, 0
2, 96291, Note_on_c, 0, 69, 0
2, 96291, Note_on_c, 0, 81, 0
2, 96387, Note_on_c, 0, 83, 107
2, 96388, Note_on_c, 0, 71, 97
2, 96394, Note_on_c, 0, 80, 88
2, 96395, Note_on_c, 0, 76, 89
2, 96476, Control_c, 0, 64, 127
2, 96675, Note_on_c, 0, 76, 0
2, 96680, Note_on_c, 0, 76, 101
2, 96683, Note_on_c, 0, 64, 93
2, 96765, Control_c, 0, 64, 0
2, 96791, Control_c, 0, 64, 127
2, 96831, Note_on_c, 0, 64, 0
2, 96838, Note_on_c, 0, 28, 88
2, 96838, Note_on_c, 0, 40, 85
2, 96967, Note_on_c, 0, 83, 0
2, 96975, Note_on_c, 0, 71, 0
2, 96975, Note_on_c, 0, 76, 0
2, 96977, Note_on_c, 0, 83, 107
2, 96979, Note_on_c, 0, 71, 100
2, 96980, Note_on_c, 0, 73, 99
2, 96985, Note_on_c, 0, 76, 96
2, 97007, Note_on_c, 0, 40, 0
2, 97013, Note_on_c, 0, 28, 0
2, 97022, Control_c, 0, 64, 0
2, 97075, Note_on_c, 0, 80, 0
2, 97135, Note_on_c, 0, 30, 97
2, 97137, Note_on_c, 0, 42, 97
2, 97182, Control_c, 0, 64, 127
2, 97280, Note_on_c, 0, 81, 103
2, 97282, Note_on_c, 0, 30, 0
2, 97282, Note_on_c, 0, 42, 0
2, 97285, Note_on_c, 0, 69, 92
2, 97286, Note_on_c, 0, 30, 99
2, 97286, Note_on_c, 0, 42, 102
2, 97324, Note_on_c, 0, 42, 0
2, 97326, Note_on_c, 0, 30, 0
2, 97326, Note_on_c, 0, 81, 0
2, 97331, Control_c, 0, 64, 0
2, 97344, Note_on_c, 0, 76, 0
2, 97344, Note_on_c, 0, 83, 0
2, 97359, Note_on_c, 0, 71, 0
2, 97367, Note_on_c, 0, 73, 0
2, 97433, Note_on_c, 0, 80, 93
2, 97438, Note_on_c, 0, 68, 86
2, 97459, Note_on_c, 0, 69, 0
2, 97472, Note_on_c, 0, 68, 0
2, 97478, Note_on_c, 0, 80, 0
2, 97588, Note_on_c, 0, 81, 104
2, 97593, Note_on_c, 0, 69, 94
2, 97593, Note_on_c, 0, 73, 95
2, 97595, Note_on_c, 0, 76, 93
2, 97896, Note_on_c, 0, 42, 88
2, 98027, Note_on_c, 0, 69, 0
2, 98031, Note_on_c, 0, 49, 90
2, 98033, Note_on_c, 0, 57, 96
2, 98035, Control_c, 0, 64, 127
2, 98036, Note_on_c, 0, 69, 84
2, 98260, Note_on_c, 0, 42, 0
2, 98261, Note_on_c, 0, 69, 0
2, 98261, Note_on_c, 0, 57, 0
2, 98261, Note_on_c, 0, 49, 0
2, 98262, Note_on_c, 0, 81, 0
2, 98263, Control_c, 0, 64, 0
2, 98273, Note_on_c, 0, 73, 0
2, 98273, Note_on_c, 0, 76, 0
2, 98329, Note_on_c, 0, 73, 107
2, 98330, Note_on_c, 0, 85, 104
2, 98330, Note_on_c, 0, 78, 95
2, 98330, Note_on_c, 0, 81, 94
2, 98338, Note_on_c, 0, 38, 96
2, 98345, Note_on_c, 0, 26, 93
2, 98357, Control_c, 0, 64, 127
2, 98480, Note_on_c, 0, 38, 0
2, 98480, Note_on_c, 0, 73, 0
2, 98480, Note_on_c, 0, 78, 0
2, 98480, Note_on_c, 0, 81, 0
2, 98480, Note_on_c, 0, 85, 0
2, 98485, Note_on_c, 0, 81, 84
2, 98485, Note_on_c, 0, 78, 84
2, 98486, Note_on_c, 0, 38, 89
2, 98486, Note_on_c, 0, 73, 91
2, 98487, Note_on_c, 0, 85, 87
2, 98520, Note_on_c, 0, 26, 0
2, 98530, Control_c, 0, 64, 0
2, 98580, Note_on_c, 0, 73, 0
2, 98618, Note_on_c, 0, 85, 0
2, 98626, Note_on_c, 0, 73, 84
2, 98626, Note_on_c, 0, 78, 0
2, 98628, Note_on_c, 0, 85, 89
2, 98630, Note_on_c, 0, 78, 76
2, 98657, Note_on_c, 0, 38, 0
2, 98661, Note_on_c, 0, 73, 0
2, 98668, Note_on_c, 0, 78, 0
2, 98669, Note_on_c, 0, 85, 0
2, 98688, Note_on_c, 0, 81, 0
2, 98774, Note_on_c, 0, 83, 105
2, 98776, Note_on_c, 0, 71, 96
2, 98779, Note_on_c, 0, 76, 95
2, 98780, Note_on_c, 0, 80, 90
2, 98923, Note_on_c, 0, 40, 90
2, 98924, Note_on_c, 0, 28, 90
2, 98933, Control_c, 0, 64, 127
2, 99064, Note_on_c, 0, 28, 0
2, 99064, Note_on_c, 0, 40, 0
2, 99067, Note_on_c, 0, 81, 101
2, 99070, Note_on_c, 0, 69, 90
2, 99073, Note_on_c, 0, 40, 85
2, 99073, Note_on_c, 0, 28, 80
2, 99090, Note_on_c, 0, 76, 0
2, 99091, Note_on_c, 0, 71, 0
2, 99092, Note_on_c, 0, 83, 0
2, 99098, Note_on_c, 0, 80, 0
2, 99104, Control_c, 0, 64, 0
2, 99105, Note_on_c, 0, 81, 0
2, 99107, Note_on_c, 0, 69, 0
2, 99125, Note_on_c, 0, 28, 0
2, 99125, Note_on_c, 0, 40, 0
2, 99213, Note_on_c, 0, 80, 95
2, 99218, Note_on_c, 0, 68, 91
2, 99246, Note_on_c, 0, 68, 0
2, 99254, Note_on_c, 0, 80, 0
2, 99367, Note_on_c, 0, 78, 106
2, 99370, Note_on_c, 0, 66, 103
2, 99374, Note_on_c, 0, 69, 89
2, 99375, Note_on_c, 0, 73, 94
2, 99376, Note_on_c, 0, 42, 96
2, 99379, Note_on_c, 0, 30, 90
2, 99408, Note_on_c, 0, 66, 0
2, 99413, Note_on_c, 0, 42, 0
2, 99440, Control_c, 0, 64, 127
2, 99681, Note_on_c, 0, 49, 66
2, 99681, Note_on_c, 0, 57, 69
2, 99824, Note_on_c, 0, 57, 0
2, 99828, Note_on_c, 0, 61, 81
2, 99835, Note_on_c, 0, 57, 56
2, 99965, Note_on_c, 0, 66, 77
2, 99968, Note_on_c, 0, 56, 69
2, 100104, Note_on_c, 0, 68, 81
2, 100108, Note_on_c, 0, 57, 0
2, 100119, Note_on_c, 0, 57, 74
2, 100239, Note_on_c, 0, 69, 0
2, 100244, Note_on_c, 0, 69, 75
2, 100247, Note_on_c, 0, 61, 0
2, 100252, Note_on_c, 0, 61, 71
2, 100392, Note_on_c, 0, 73, 0
2, 100396, Note_on_c, 0, 73, 86
2, 100408, Note_on_c, 0, 57, 0
2, 100419, Note_on_c, 0, 57, 55
2, 100538, Note_on_c, 0, 78, 0
2, 100542, Note_on_c, 0, 78, 87
2, 100546, Note_on_c, 0, 30, 0
2, 100653, Note_on_c, 0, 68, 0
2, 100653, Note_on_c, 0, 61, 0
2, 100653, Note_on_c, 0, 73, 0
2, 100654, Note_on_c, 0, 57, 0
2, 100655, Note_on_c, 0, 66, 0
2, 100655, Note_on_c, 0, 49, 0
2, 100655, Note_on_c, 0, 56, 0
2, 100658, Control_c, 0, 64, 0
2, 100677, Note_on_c, 0, 69, 0
2, 100682, Note_on_c, 0, 81, 102
2, 100684, Note_on_c, 0, 78, 0
2, 100687, Note_on_c, 0, 74, 94
2, 100688, Note_on_c, 0, 69, 93
2, 100689, Note_on_c, 0, 78, 89
2, 100693, Note_on_c, 0, 38, 82
2, 100730, Control_c, 0, 64, 127
2, 100820, Note_on_c, 0, 45, 79
2, 100838, Note_on_c, 0, 80, 88
2, 100849, Note_on_c, 0, 68, 75
2, 100861, Note_on_c, 0, 78, 0
2, 100865, Note_on_c, 0, 78, 51
2, 100984, Note_on_c, 0, 69, 0
2, 100984, Note_on_c, 0, 81, 0
2, 100988, Note_on_c, 0, 54, 83
2, 100989, Note_on_c, 0, 81, 95
2, 100991, Note_on_c, 0, 69, 90
2, 101145, Note_on_c, 0, 80, 0
2, 101146, Note_on_c, 0, 83, 106
2, 101149, Note_on_c, 0, 71, 95
2, 101153, Note_on_c, 0, 76, 92
2, 101155, Note_on_c, 0, 80, 85
2, 101234, Note_on_c, 0, 69, 0
2, 101235, Note_on_c, 0, 45, 0
2, 101235, Note_on_c, 0, 81, 0
2, 101236, Note_on_c, 0, 78, 0
2, 101236, Note_on_c, 0, 54, 0
2, 101236, Note_on_c, 0, 74, 0
2, 101237, Note_on_c, 0, 38, 0
2, 101241, Control_c, 0, 64, 0
2, 101276, Note_on_c, 0, 68, 0
2, 101279, Note_on_c, 0, 40, 85
2, 101299, Control_c, 0, 64, 127
2, 101437, Note_on_c, 0, 76, 0
2, 101440, Note_on_c, 0, 47, 76
2, 101442, Note_on_c, 0, 76, 100
2, 101445, Note_on_c, 0, 64, 89
2, 101586, Note_on_c, 0, 52, 81
2, 101586, Note_on_c, 0, 56, 87
2, 101721, Note_on_c, 0, 83, 0
2, 101729, Note_on_c, 0, 47, 0
2, 101729, Note_on_c, 0, 71, 0
2, 101729, Note_on_c, 0, 76, 0
2, 101730, Note_on_c, 0, 83, 106
2, 101733, Note_on_c, 0, 47, 76
2, 101734, Note_on_c, 0, 71, 96
2, 101735, Note_on_c, 0, 73, 102
2, 101736, Note_on_c, 0, 76, 96
2, 101820, Control_c, 0, 64, 0
2, 101821, Note_on_c, 0, 64, 0
2, 101822, Note_on_c, 0, 56, 0
2, 101823, Note_on_c, 0, 40, 0
2, 101823, Note_on_c, 0, 52, 0
2, 101824, Note_on_c, 0, 47, 0
2, 101852, Note_on_c, 0, 80, 0
2, 101859, Control_c, 0, 64, 127
2, 101871, Note_on_c, 0, 42, 86
2, 102032, Note_on_c, 0, 49, 67
2, 102032, Note_on_c, 0, 81, 92
2, 102039, Note_on_c, 0, 69, 84
2, 102171, Note_on_c, 0, 57, 82
2, 102173, Note_on_c, 0, 80, 92
2, 102182, Note_on_c, 0, 49, 0
2, 102184, Note_on_c, 0, 68, 84
2, 102185, Note_on_c, 0, 52, 73
2, 102193, Note_on_c, 0, 49, 55
2, 102197, Note_on_c, 0, 76, 0
2, 102203, Note_on_c, 0, 76, 52
2, 102312, Note_on_c, 0, 81, 0
2, 102324, Note_on_c, 0, 81, 101
2, 102328, Note_on_c, 0, 49, 0
2, 102328, Note_on_c, 0, 69, 0
2, 102328, Note_on_c, 0, 73, 0
2, 102328, Note_on_c, 0, 76, 0
2, 102332, Note_on_c, 0, 76, 90
2, 102332, Note_on_c, 0, 69, 81
2, 102332, Note_on_c, 0, 73, 86
2, 102332, Note_on_c, 0, 49, 72
2, 102336, Note_on_c, 0, 83, 0
2, 102368, Control_c, 0, 64, 0
2, 102374, Control_c, 0, 64, 127
2, 102458, Note_on_c, 0, 42, 0
2, 102469, Note_on_c, 0, 42, 89
2, 102604, Note_on_c, 0, 49, 0
2, 102609, Note_on_c, 0, 49, 67
2, 102766, Note_on_c, 0, 52, 0
2, 102766, Note_on_c, 0, 57, 0
2, 102766, Note_on_c, 0, 69, 0
2, 102771, Note_on_c, 0, 57, 84
2, 102771, Note_on_c, 0, 52, 79
2, 102771, Note_on_c, 0, 69, 73
2, 102904, Note_on_c, 0, 49, 0
2, 102911, Note_on_c, 0, 78, 90
2, 102915, Note_on_c, 0, 49, 76
2, 102950, Note_on_c, 0, 80, 0
2, 102961, Note_on_c, 0, 80, 90
2, 103034, Note_on_c, 0, 71, 0
2, 103044, Note_on_c, 0, 80, 0
2, 103044, Note_on_c, 0, 68, 0
2, 103044, Note_on_c, 0, 73, 0
2, 103044, Note_on_c, 0, 49, 0
2, 103045, Note_on_c, 0, 42, 0
2, 103045, Note_on_c, 0, 52, 0
2, 103046, Note_on_c, 0, 76, 0
2, 103046, Note_on_c, 0, 57, 0
2, 103048, Control_c, 0, 64, 0
2, 103050, Note_on_c, 0, 81, 0
2, 103057, Note_on_c, 0, 69, 0
2, 103061, Note_on_c, 0, 81, 105
2, 103064, Note_on_c, 0, 69, 95
2, 103065, Note_on_c, 0, 78, 0
2, 103067, Note_on_c, 0, 38, 87
2, 103068, Note_on_c, 0, 74, 92
2, 103069, Note_on_c, 0, 78, 85
2, 103104, Control_c, 0, 64, 127
2, 103209, Note_on_c, 0, 45, 67
2, 103210, Note_on_c, 0, 80, 97
2, 103215, Note_on_c, 0, 68, 83
2, 103346, Note_on_c, 0, 54, 84
2, 103349, Note_on_c, 0, 81, 0
2, 103357, Note_on_c, 0, 69, 0
2, 103358, Note_on_c, 0, 81, 99
2, 103361, Note_on_c, 0, 69, 88
2, 103508, Note_on_c, 0, 83, 107
2, 103511, Note_on_c, 0, 80, 0
2, 103516, Note_on_c, 0, 71, 97
2, 103518, Note_on_c, 0, 80, 92
2, 103530, Note_on_c, 0, 76, 82
2, 103584, Control_c, 0, 64, 0
2, 103584, Note_on_c, 0, 38, 0
2, 103584, Note_on_c, 0, 74, 0
2, 103584, Note_on_c, 0, 81, 0
2, 103584, Note_on_c, 0, 54, 0
2, 103584, Note_on_c, 0, 69, 0
2, 103585, Note_on_c, 0, 45, 0
2, 103585, Note_on_c, 0, 78, 0
2, 103585, Note_on_c, 0, 68, 0
2, 103648, Note_on_c, 0, 40, 90
2, 103664, Control_c, 0, 64, 127
2, 103799, Note_on_c, 0, 47, 75
2, 103808, Note_on_c, 0, 88, 101
2, 103810, Note_on_c, 0, 76, 0
2, 103819, Note_on_c, 0, 76, 91
2, 103946, Note_on_c, 0, 56, 78
2, 103950, Note_on_c, 0, 74, 99
2, 103951, Note_on_c, 0, 86, 98
2, 103952, Note_on_c, 0, 52, 76
2, 103956, Note_on_c, 0, 80, 0
2, 103963, Note_on_c, 0, 80, 74
2, 104030, Control_c, 0, 64, 0
2, 104033, Note_on_c, 0, 76, 0
2, 104033, Note_on_c, 0, 88, 0
2, 104034, Note_on_c, 0, 71, 0
2, 104034, Note_on_c, 0, 56, 0
2, 104035, Note_on_c, 0, 80, 0
2, 104035, Note_on_c, 0, 47, 0
2, 104035, Note_on_c, 0, 74, 0
2, 104036, Note_on_c, 0, 52, 0
2, 104036, Note_on_c, 0, 40, 0
2, 104037, Note_on_c, 0, 86, 0
2, 104048, Note_on_c, 0, 83, 0
2, 104099, Note_on_c, 0, 85, 103
2, 104100, Note_on_c, 0, 78, 96
2, 104102, Note_on_c, 0, 42, 87
2, 104104, Note_on_c, 0, 73, 101
2, 104105, Note_on_c, 0, 81, 83
2, 104171, Control_c, 0, 64, 127
2, 104400, Note_on_c, 0, 69, 81
2, 104403, Note_on_c, 0, 57, 80
2, 104409, Note_on_c, 0, 52, 66
2, 104411, Note_on_c, 0, 61, 73
2, 104552, Note_on_c, 0, 68, 80
2, 104552, Note_on_c, 0, 59, 80
2, 104686, Note_on_c, 0, 42, 0
2, 104696, Note_on_c, 0, 42, 74
2, 104832, Note_on_c, 0, 69, 0
2, 104837, Note_on_c, 0, 69, 90
2, 104839, Note_on_c, 0, 61, 0
2, 104848, Note_on_c, 0, 61, 83
2, 104993, Note_on_c, 0, 59, 0
2, 104993, Note_on_c, 0, 68, 0
2, 105002, Note_on_c, 0, 68, 89
2, 105004, Note_on_c, 0, 59, 79
2, 105123, Note_on_c, 0, 52, 0
2, 105123, Note_on_c, 0, 57, 0
2, 105130, Note_on_c, 0, 57, 86
2, 105130, Note_on_c, 0, 52, 75
2, 105262, Note_on_c, 0, 69, 0
2, 105266, Note_on_c, 0, 69, 86
2, 105269, Note_on_c, 0, 61, 0
2, 105273, Note_on_c, 0, 61, 79
2, 105395, Note_on_c, 0, 73, 0
2, 105395, Note_on_c, 0, 42, 0
2, 105395, Note_on_c, 0, 81, 0
2, 105395, Note_on_c, 0, 68, 0
2, 105395, Note_on_c, 0, 69, 0
2, 105395, Note_on_c, 0, 52, 0
2, 105396, Note_on_c, 0, 61, 0
2, 105396, Note_on_c, 0, 57, 0
2, 105396, Note_on_c, 0, 59, 0
2, 105396, Control_c, 0, 64, 0
2, 105396, Note_on_c, 0, 78, 0
2, 105415, Note_on_c, 0, 85, 0
2, 105423, Note_on_c, 0, 85, 104
2, 105428, Note_on_c, 0, 78, 78
2, 105428, Note_on_c, 0, 73, 101
2, 105433, Note_on_c, 0, 81, 79
2, 105433, Note_on_c, 0, 38, 85
2, 105469, Control_c, 0, 64, 127
2, 105561, Note_on_c, 0, 73, 0
2, 105561, Note_on_c, 0, 78, 0
2, 105561, Note_on_c, 0, 81, 0
2, 105568, Note_on_c, 0, 81, 82
2, 105568, Note_on_c, 0, 45, 67
2, 105571, Note_on_c, 0, 73, 87
2, 105571, Note_on_c, 0, 78, 78
2, 105699, Note_on_c, 0, 85, 0
2, 105707, Note_on_c, 0, 73, 0
2, 105707, Note_on_c, 0, 78, 0
2, 105710, Note_on_c, 0, 85, 99
2, 105712, Note_on_c, 0, 54, 84
2, 105712, Note_on_c, 0, 73, 90
2, 105713, Note_on_c, 0, 78, 82
2, 105715, Note_on_c, 0, 50, 76
2, 105853, Note_on_c, 0, 38, 0
2, 105855, Note_on_c, 0, 83, 107
2, 105857, Note_on_c, 0, 71, 97
2, 105863, Note_on_c, 0, 76, 97
2, 105863, Note_on_c, 0, 38, 83
2, 105864, Note_on_c, 0, 80, 92
2, 105868, Note_on_c, 0, 45, 0
2, 105877, Note_on_c, 0, 45, 74
2, 105936, Control_c, 0, 64, 0
2, 105942, Note_on_c, 0, 78, 0
2, 105942, Note_on_c, 0, 54, 0
2, 105942, Note_on_c, 0, 73, 0
2, 105942, Note_on_c, 0, 85, 0
2, 105943, Note_on_c, 0, 50, 0
2, 105945, Note_on_c, 0, 38, 0
2, 105946, Note_on_c, 0, 45, 0
2, 105968, Note_on_c, 0, 81, 0
2, 105999, Note_on_c, 0, 40, 91
2, 106076, Control_c, 0, 64, 127
2, 106152, Note_on_c, 0, 76, 0
2, 106158, Note_on_c, 0, 81, 102
2, 106161, Note_on_c, 0, 69, 92
2, 106164, Note_on_c, 0, 76, 74
2, 106170, Note_on_c, 0, 47, 71
2, 106309, Note_on_c, 0, 56, 90
2, 106310, Note_on_c, 0, 52, 85
2, 106452, Note_on_c, 0, 47, 0
2, 106452, Note_on_c, 0, 83, 0
2, 106457, Note_on_c, 0, 83, 106
2, 106460, Note_on_c, 0, 71, 0
2, 106463, Note_on_c, 0, 47, 73
2, 106463, Note_on_c, 0, 73, 98
2, 106464, Note_on_c, 0, 71, 96
2, 106464, Note_on_c, 0, 77, 90
2, 106535, Note_on_c, 0, 47, 0
2, 106535, Note_on_c, 0, 40, 0
2, 106536, Note_on_c, 0, 69, 0
2, 106536, Note_on_c, 0, 76, 0
2, 106536, Note_on_c, 0, 52, 0
2, 106537, Note_on_c, 0, 81, 0
2, 106537, Note_on_c, 0, 80, 0
2, 106537, Note_on_c, 0, 56, 0
2, 106538, Control_c, 0, 64, 0
2, 106601, Note_on_c, 0, 41, 79
2, 106621, Control_c, 0, 64, 127
2, 106751, Note_on_c, 0, 49, 75
2, 106752, Note_on_c, 0, 73, 0
2, 106756, Note_on_c, 0, 85, 91
2, 106761, Note_on_c, 0, 73, 90
2, 106897, Note_on_c, 0, 41, 0
2, 106901, Note_on_c, 0, 86, 100
2, 106901, Note_on_c, 0, 56, 81
2, 106902, Note_on_c, 0, 41, 83
2, 106902, Note_on_c, 0, 74, 98
2, 106904, Note_on_c, 0, 53, 82
2, 106957, Control_c, 0, 64, 0
2, 106982, Control_c, 0, 64, 127
2, 107036, Note_on_c, 0, 49, 0
2, 107036, Note_on_c, 0, 85, 0
2, 107043, Note_on_c, 0, 73, 0
2, 107045, Note_on_c, 0, 49, 79
2, 107046, Note_on_c, 0, 85, 103
2, 107046, Note_on_c, 0, 81, 85
2, 107047, Note_on_c, 0, 73, 99
2, 107049, Note_on_c, 0, 78, 89
2, 107143, Note_on_c, 0, 71, 0
2, 107151, Note_on_c, 0, 83, 0
2, 107155, Note_on_c, 0, 49, 0
2, 107155, Note_on_c, 0, 53, 0
2, 107156, Note_on_c, 0, 56, 0
2, 107156, Control_c, 0, 64, 0
2, 107157, Note_on_c, 0, 74, 0
2, 107157, Note_on_c, 0, 86, 0
2, 107166, Note_on_c, 0, 41, 0
2, 107174, Note_on_c, 0, 77, 0
2, 107187, Note_on_c, 0, 42, 91
2, 107266, Control_c, 0, 64, 127
2, 107325, Note_on_c, 0, 49, 74
2, 107492, Note_on_c, 0, 54, 84
2, 107492, Note_on_c, 0, 57, 86
2, 107619, Note_on_c, 0, 49, 0
2, 107624, Note_on_c, 0, 49, 79
2, 107731, Note_on_c, 0, 42, 0
2, 107732, Note_on_c, 0, 54, 0
2, 107732, Note_on_c, 0, 49, 0
2, 107732, Note_on_c, 0, 57, 0
2, 107733, Control_c, 0, 64, 0
2, 107742, Note_on_c, 0, 73, 0
2, 107742, Note_on_c, 0, 78, 0
2, 107742, Note_on_c, 0, 81, 0
2, 107742, Note_on_c, 0, 85, 0
2, 107785, Note_on_c, 0, 85, 103
2, 107789, Note_on_c, 0, 73, 105
2, 107790, Note_on_c, 0, 81, 93
2, 107791, Note_on_c, 0, 78, 95
2, 107792, Note_on_c, 0, 47, 99
2, 107794, Note_on_c, 0, 35, 81
2, 107811, Control_c, 0, 64, 127
2, 107942, Note_on_c, 0, 73, 0
2, 107942, Note_on_c, 0, 78, 0
2, 107942, Note_on_c, 0, 81, 0
2, 107942, Note_on_c, 0, 85, 0
2, 107947, Note_on_c, 0, 73, 94
2, 107947, Note_on_c, 0, 85, 95
2, 107949, Note_on_c, 0, 59, 84
2, 107950, Note_on_c, 0, 47, 0
2, 107951, Note_on_c, 0, 78, 80
2, 107953, Note_on_c, 0, 81, 87
2, 107953, Note_on_c, 0, 47, 84
2, 107990, Note_on_c, 0, 35, 0
2, 108011, Note_on_c, 0, 73, 0
2, 108019, Note_on_c, 0, 47, 0
2, 108019, Note_on_c, 0, 59, 0
2, 108026, Note_on_c, 0, 78, 0
2, 108030, Control_c, 0, 64, 0
2, 108034, Note_on_c, 0, 81, 0
2, 108034, Note_on_c, 0, 85, 0
2, 108084, Note_on_c, 0, 85, 90
2, 108087, Note_on_c, 0, 73, 79
2, 108088, Note_on_c, 0, 78, 72
2, 108122, Note_on_c, 0, 73, 0
2, 108123, Note_on_c, 0, 85, 0
2, 108125, Note_on_c, 0, 78, 0
2, 108230, Note_on_c, 0, 83, 106
2, 108232, Note_on_c, 0, 71, 98
2, 108236, Note_on_c, 0, 76, 97
2, 108237, Note_on_c, 0, 80, 89
2, 108375, Note_on_c, 0, 49, 98
2, 108375, Note_on_c, 0, 37, 102
2, 108403, Control_c, 0, 64, 127
2, 108405, Note_on_c, 0, 76, 0
2, 108406, Note_on_c, 0, 71, 0
2, 108406, Note_on_c, 0, 80, 0
2, 108409, Note_on_c, 0, 83, 0
2, 108409, Note_on_c, 0, 49, 0
2, 108516, Note_on_c, 0, 81, 97
2, 108518, Note_on_c, 0, 37, 0
2, 108522, Note_on_c, 0, 69, 86
2, 108525, Note_on_c, 0, 49, 85
2, 108526, Note_on_c, 0, 37, 88
2, 108544, Control_c, 0, 64, 0
2, 108660, Note_on_c, 0, 80, 91
2, 108667, Note_on_c, 0, 68, 85
2, 108691, Note_on_c, 0, 69, 0
2, 108699, Note_on_c, 0, 81, 0
2, 108702, Note_on_c, 0, 49, 0
2, 108704, Note_on_c, 0, 68, 0
2, 108707, Note_on_c, 0, 80, 0
2, 108710, Note_on_c, 0, 37, 0
2, 108833, Note_on_c, 0, 78, 100
2, 108835, Note_on_c, 0, 50, 97
2, 108836, Note_on_c, 0, 38, 96
2, 108837, Note_on_c, 0, 66, 100
2, 108839, Note_on_c, 0, 69, 84
2, 108839, Note_on_c, 0, 74, 82
2, 108894, Control_c, 0, 64, 127
2, 109150, Note_on_c, 0, 57, 76
2, 109278, Note_on_c, 0, 66, 0
2, 109282, Note_on_c, 0, 62, 72
2, 109283, Note_on_c, 0, 66, 65
2, 109311, Note_on_c, 0, 52, 54
2, 109431, Note_on_c, 0, 54, 65
2, 109433, Note_on_c, 0, 64, 75
2, 109562, Note_on_c, 0, 66, 0
2, 109567, Note_on_c, 0, 66, 81
2, 109570, Note_on_c, 0, 57, 0
2, 109579, Note_on_c, 0, 57, 69
2, 109701, Note_on_c, 0, 62, 0
2, 109707, Note_on_c, 0, 62, 70
2, 109708, Note_on_c, 0, 66, 0
2, 109708, Note_on_c, 0, 69, 0
2, 109714, Note_on_c, 0, 66, 62
2, 109718, Note_on_c, 0, 69, 71
2, 109847, Note_on_c, 0, 66, 0
2, 109847, Note_on_c, 0, 74, 0
2, 109850, Note_on_c, 0, 66, 61
2, 109856, Note_on_c, 0, 74, 75
2, 109985, Note_on_c, 0, 66, 0
2, 109990, Note_on_c, 0, 66, 73
2, 110007, Note_on_c, 0, 76, 72
2, 110161, Note_on_c, 0, 69, 0
2, 110161, Note_on_c, 0, 78, 0
2, 110168, Note_on_c, 0, 78, 74
2, 110168, Note_on_c, 0, 69, 69
2, 110300, Note_on_c, 0, 74, 0
2, 110304, Note_on_c, 0, 74, 70
2, 110453, Note_on_c, 0, 78, 0
2, 110457, Note_on_c, 0, 78, 81
2, 110597, Note_on_c, 0, 81, 81
2, 110753, Note_on_c, 0, 74, 0
2, 110755, Note_on_c, 0, 86, 87
2, 110757, Note_on_c, 0, 74, 80
2, 110899, Note_on_c, 0, 81, 0
2, 110904, Note_on_c, 0, 81, 79
2, 111037, Note_on_c, 0, 86, 0
2, 111046, Note_on_c, 0, 86, 85
2, 111185, Note_on_c, 0, 90, 91
2, 111336, Note_on_c, 0, 52, 0
2, 111337, Note_on_c, 0, 38, 0
2, 111338, Note_on_c, 0, 76, 0
2, 111339, Note_on_c, 0, 62, 0
2, 111339, Note_on_c, 0, 64, 0
2, 111340, Note_on_c, 0, 78, 0
2, 111340, Note_on_c, 0, 81, 0
2, 111340, Note_on_c, 0, 86, 0
2, 111340, Note_on_c, 0, 50, 0
2, 111340, Note_on_c, 0, 74, 0
2, 111341, Note_on_c, 0, 57, 0
2, 111341, Note_on_c, 0, 54, 0
2, 111341, Note_on_c, 0, 90, 0
2, 111345, Note_on_c, 0, 92, 91
2, 111346, Note_on_c, 0, 52, 73
2, 111347, Note_on_c, 0, 40, 68
2, 111349, Control_c, 0, 64, 0
2, 111352, Note_on_c, 0, 66, 0
2, 111352, Note_on_c, 0, 69, 0
2, 111475, Control_c, 0, 64, 127
2, 111485, Note_on_c, 0, 90, 85
2, 111640, Note_on_c, 0, 88, 74
2, 111782, Note_on_c, 0, 83, 77
2, 111917, Note_on_c, 0, 80, 78
2, 111948, Note_on_c, 0, 76, 57
2, 112072, Note_on_c, 0, 78, 70
2, 112212, Note_on_c, 0, 76, 0
2, 112218, Note_on_c, 0, 76, 60
2, 112349, Note_on_c, 0, 71, 74
2, 112498, Note_on_c, 0, 64, 65
2, 112500, Note_on_c, 0, 68, 70
2, 112647, Note_on_c, 0, 66, 70
2, 112803, Note_on_c, 0, 64, 0
2, 112814, Note_on_c, 0, 64, 57
2, 112944, Note_on_c, 0, 59, 64
2, 113072, Note_on_c, 0, 52, 0
2, 113076, Note_on_c, 0, 52, 61
2, 113215, Note_on_c, 0, 62, 66
2, 113218, Note_on_c, 0, 59, 0
2, 113222, Note_on_c, 0, 59, 41
2, 113382, Note_on_c, 0, 61, 61
2, 113525, Note_on_c, 0, 59, 0
2, 113536, Note_on_c, 0, 59, 64
2, 113615, Note_on_c, 0, 59, 0
2, 113616, Note_on_c, 0, 83, 0
2, 113616, Note_on_c, 0, 62, 0
2, 113616, Note_on_c, 0, 90, 0
2, 113617, Note_on_c, 0, 68, 0
2, 113617, Note_on_c, 0, 71, 0
2, 113617, Note_on_c, 0, 80, 0
2, 113617, Note_on_c, 0, 40, 0
2, 113617, Note_on_c, 0, 92, 0
2, 113618, Note_on_c, 0, 78, 0
2, 113618, Note_on_c, 0, 88, 0
2, 113618, Note_on_c, 0, 64, 0
2, 113619, Note_on_c, 0, 76, 0
2, 113619, Note_on_c, 0, 66, 0
2, 113620, Note_on_c, 0, 52, 0
2, 113621, Control_c, 0, 64, 0
2, 113633, Note_on_c, 0, 61, 0
2, 113656, Note_on_c, 0, 45, 56
2, 113661, Note_on_c, 0, 61, 56
2, 113794, Control_c, 0, 64, 127
2, 113810, Note_on_c, 0, 52, 56
2, 113975, Note_on_c, 0, 57, 55
2, 114126, Note_on_c, 0, 59, 55
2, 114263, Note_on_c, 0, 61, 0
2, 114266, Note_on_c, 0, 85, 79
2, 114273, Note_on_c, 0, 61, 58
2, 114282, Note_on_c, 0, 73, 47
2, 114286, Note_on_c, 0, 73, 0
2, 114424, Note_on_c, 0, 57, 0
2, 114426, Note_on_c, 0, 76, 58
2, 114429, Note_on_c, 0, 57, 54
2, 114434, Note_on_c, 0, 69, 55
2, 114547, Note_on_c, 0, 85, 0
2, 114551, Note_on_c, 0, 85, 76
2, 114576, Note_on_c, 0, 64, 58
2, 114695, Note_on_c, 0, 86, 82
2, 114708, Note_on_c, 0, 69, 0
2, 114715, Note_on_c, 0, 69, 57
2, 114850, Note_on_c, 0, 73, 73
2, 114850, Note_on_c, 0, 88, 90
2, 114984, Note_on_c, 0, 76, 0
2, 114995, Note_on_c, 0, 76, 65
2, 115130, Note_on_c, 0, 57, 0
2, 115138, Note_on_c, 0, 81, 58
2, 115141, Note_on_c, 0, 57, 56
2, 115261, Note_on_c, 0, 88, 0
2, 115269, Note_on_c, 0, 88, 86
2, 115292, Note_on_c, 0, 64, 0
2, 115296, Note_on_c, 0, 64, 55
2, 115407, Note_on_c, 0, 86, 0
2, 115413, Note_on_c, 0, 86, 87
2, 115430, Note_on_c, 0, 69, 0
2, 115440, Note_on_c, 0, 69, 65
2, 115568, Note_on_c, 0, 76, 0
2, 115575, Note_on_c, 0, 76, 64
2, 115699, Note_on_c, 0, 85, 0
2, 115710, Note_on_c, 0, 85, 82
2, 115870, Note_on_c, 0, 83, 75
2, 115937, Note_on_c, 0, 81, 0
2, 115944, Note_on_c, 0, 81, 81
2, 115994, Note_on_c, 0, 76, 0
2, 115994, Control_c, 0, 64, 0
2, 115995, Note_on_c, 0, 86, 0
2, 115995, Note_on_c, 0, 85, 0
2, 115995, Note_on_c, 0, 57, 0
2, 115995, Note_on_c, 0, 69, 0
2, 115995, Note_on_c, 0, 59, 0
2, 115995, Note_on_c, 0, 88, 0
2, 115995, Note_on_c, 0, 64, 0
2, 115996, Note_on_c, 0, 52, 0
2, 115996, Note_on_c, 0, 61, 0
2, 115997, Note_on_c, 0, 45, 0
2, 116006, Note_on_c, 0, 83, 0
2, 116012, Note_on_c, 0, 40, 60
2, 116014, Note_on_c, 0, 73, 0
2, 116015, Note_on_c, 0, 83, 84
2, 116052, Note_on_c, 0, 81, 0
2, 116090, Control_c, 0, 64, 127
2, 116165, Note_on_c, 0, 47, 64
2, 116307, Note_on_c, 0, 52, 64
2, 116439, Note_on_c, 0, 54, 62
2, 116582, Note_on_c, 0, 83, 0
2, 116592, Note_on_c, 0, 83, 87
2, 116595, Note_on_c, 0, 56, 66
2, 116736, Note_on_c, 0, 52, 0
2, 116741, Note_on_c, 0, 52, 64
2, 116742, Note_on_c, 0, 76, 63
2, 116874, Note_on_c, 0, 83, 0
2, 116879, Note_on_c, 0, 83, 85
2, 116888, Note_on_c, 0, 59, 67
2, 117030, Note_on_c, 0, 85, 84
2, 117031, Note_on_c, 0, 64, 65
2, 117178, Note_on_c, 0, 68, 74
2, 117181, Note_on_c, 0, 86, 89
2, 117327, Note_on_c, 0, 76, 0
2, 117338, Note_on_c, 0, 76, 63
2, 117465, Note_on_c, 0, 52, 0
2, 117470, Note_on_c, 0, 80, 68
2, 117470, Note_on_c, 0, 52, 61
2, 117596, Note_on_c, 0, 86, 0
2, 117607, Note_on_c, 0, 86, 88
2, 117611, Note_on_c, 0, 59, 0
2, 117617, Note_on_c, 0, 59, 57
2, 117742, Note_on_c, 0, 85, 0
2, 117746, Note_on_c, 0, 85, 93
2, 117749, Note_on_c, 0, 64, 0
2, 117749, Note_on_c, 0, 76, 0
2, 117759, Note_on_c, 0, 76, 65
2, 117759, Note_on_c, 0, 64, 67
2, 117888, Note_on_c, 0, 76, 0
2, 117895, Note_on_c, 0, 76, 69
2, 118026, Note_on_c, 0, 83, 0
2, 118032, Note_on_c, 0, 83, 90
2, 118186, Note_on_c, 0, 81, 79
2, 118256, Note_on_c, 0, 80, 0
2, 118265, Note_on_c, 0, 80, 77
2, 118306, Note_on_c, 0, 47, 0
2, 118307, Note_on_c, 0, 52, 0
2, 118307, Note_on_c, 0, 54, 0
2, 118307, Note_on_c, 0, 59, 0
2, 118307, Note_on_c, 0, 85, 0
2, 118307, Control_c, 0, 64, 0
2, 118308, Note_on_c, 0, 64, 0
2, 118308, Note_on_c, 0, 56, 0
2, 118308, Note_on_c, 0, 68, 0
2, 118308, Note_on_c, 0, 80, 0
2, 118308, Note_on_c, 0, 83, 0
2, 118308, Note_on_c, 0, 40, 0
2, 118309, Note_on_c, 0, 76, 0
2, 118311, Note_on_c, 0, 86, 0
2, 118318, Note_on_c, 0, 81, 0
2, 118323, Note_on_c, 0, 81, 87
2, 118325, Note_on_c, 0, 42, 72
2, 118410, Control_c, 0, 64, 127
2, 118468, Note_on_c, 0, 49, 59
2, 118620, Note_on_c, 0, 52, 68
2, 118762, Note_on_c, 0, 57, 63
2, 118894, Note_on_c, 0, 81, 0
2, 118904, Note_on_c, 0, 81, 86
2, 118909, Note_on_c, 0, 61, 70
2, 119049, Note_on_c, 0, 80, 84
2, 119193, Note_on_c, 0, 81, 0
2, 119198, Note_on_c, 0, 81, 86
2, 119340, Note_on_c, 0, 90, 102
2, 119465, Note_on_c, 0, 42, 0
2, 119466, Note_on_c, 0, 80, 0
2, 119467, Note_on_c, 0, 61, 0
2, 119467, Note_on_c, 0, 52, 0
2, 119467, Note_on_c, 0, 49, 0
2, 119468, Note_on_c, 0, 57, 0
2, 119469, Note_on_c, 0, 81, 0
2, 119471, Control_c, 0, 64, 0
2, 119486, Note_on_c, 0, 76, 70
2, 119488, Note_on_c, 0, 37, 58
2, 119546, Control_c, 0, 64, 127
2, 119629, Note_on_c, 0, 88, 92
2, 119634, Note_on_c, 0, 49, 69
2, 119731, Note_on_c, 0, 90, 0
2, 119766, Note_on_c, 0, 52, 71
2, 119769, Note_on_c, 0, 76, 0
2, 119780, Note_on_c, 0, 76, 70
2, 119918, Note_on_c, 0, 57, 71
2, 119926, Note_on_c, 0, 86, 93
2, 120061, Note_on_c, 0, 76, 0
2, 120071, Note_on_c, 0, 61, 70
2, 120072, Note_on_c, 0, 76, 74
2, 120212, Note_on_c, 0, 85, 89
2, 120345, Note_on_c, 0, 76, 0
2, 120355, Note_on_c, 0, 76, 69
2, 120501, Note_on_c, 0, 82, 93
2, 120598, Control_c, 0, 64, 0
2, 120601, Note_on_c, 0, 49, 0
2, 120602, Note_on_c, 0, 86, 0
2, 120602, Note_on_c, 0, 88, 0
2, 120602, Note_on_c, 0, 85, 0
2, 120602, Note_on_c, 0, 57, 0
2, 120602, Note_on_c, 0, 61, 0
2, 120603, Note_on_c, 0, 52, 0
2, 120604, Note_on_c, 0, 37, 0
2, 120633, Note_on_c, 0, 38, 66
2, 120721, Control_c, 0, 64, 127
2, 120799, Note_on_c, 0, 83, 87
2, 120801, Note_on_c, 0, 45, 56
2, 120929, Note_on_c, 0, 83, 0
2, 120939, Note_on_c, 0, 83, 95
2, 120962, Note_on_c, 0, 74, 66
2, 120963, Note_on_c, 0, 50, 52
2, 120969, Note_on_c, 0, 78, 67
2, 121095, Note_on_c, 0, 52, 52
2, 121232, Note_on_c, 0, 54, 69
2, 121387, Note_on_c, 0, 77, 66
2, 121505, Note_on_c, 0, 78, 0
2, 121509, Note_on_c, 0, 78, 67
2, 121666, Note_on_c, 0, 76, 0
2, 121671, Note_on_c, 0, 45, 0
2, 121671, Note_on_c, 0, 38, 0
2, 121671, Control_c, 0, 64, 0
2, 121672, Note_on_c, 0, 74, 0
2, 121672, Note_on_c, 0, 50, 0
2, 121673, Note_on_c, 0, 52, 0
2, 121675, Note_on_c, 0, 54, 0
2, 121675, Note_on_c, 0, 77, 0
2, 121681, Note_on_c, 0, 82, 0
2, 121682, Note_on_c, 0, 66, 72
2, 121683, Note_on_c, 0, 73, 77
2, 121689, Note_on_c, 0, 83, 0
2, 121822, Note_on_c, 0, 74, 74
2, 121904, Control_c, 0, 64, 127
2, 121977, Note_on_c, 0, 62, 69
2, 121978, Note_on_c, 0, 70, 67
2, 121986, Control_c, 0, 64, 0
2, 121986, Note_on_c, 0, 78, 0
2, 121987, Note_on_c, 0, 73, 0
2, 122019, Note_on_c, 0, 66, 0
2, 122019, Control_c, 0, 64, 127
2, 122107, Note_on_c, 0, 71, 70
2, 122243, Note_on_c, 0, 65, 58
2, 122261, Note_on_c, 0, 57, 61
2, 122392, Note_on_c, 0, 66, 62
2, 122561, Note_on_c, 0, 61, 62
2, 122564, Note_on_c, 0, 50, 55
2, 122579, Control_c, 0, 64, 0
2, 122601, Note_on_c, 0, 62, 0
2, 122611, Note_on_c, 0, 70, 0
2, 122614, Note_on_c, 0, 71, 0
2, 122618, Note_on_c, 0, 65, 0
2, 122621, Note_on_c, 0, 66, 0
2, 122626, Note_on_c, 0, 74, 0
2, 122691, Note_on_c, 0, 62, 68
2, 122718, Note_on_c, 0, 61, 0
2, 122844, Note_on_c, 0, 66, 70
2, 122855, Note_on_c, 0, 62, 0
2, 122987, Note_on_c, 0, 50, 0
2, 122991, Note_on_c, 0, 57, 0
2, 122998, Note_on_c, 0, 47, 58
2, 123102, Control_c, 0, 64, 127
2, 123161, Note_on_c, 0, 54, 57
2, 123289, Note_on_c, 0, 59, 60
2, 123435, Note_on_c, 0, 73, 70
2, 123436, Note_on_c, 0, 61, 51
2, 123592, Note_on_c, 0, 74, 74
2, 123598, Note_on_c, 0, 62, 63
2, 123609, Note_on_c, 0, 59, 0
2, 123619, Note_on_c, 0, 59, 46
2, 123738, Note_on_c, 0, 78, 78
2, 123884, Note_on_c, 0, 86, 84
2, 124033, Note_on_c, 0, 85, 89
2, 124150, Note_on_c, 0, 54, 0
2, 124150, Note_on_c, 0, 61, 0
2, 124151, Note_on_c, 0, 73, 0
2, 124151, Note_on_c, 0, 78, 0
2, 124151, Note_on_c, 0, 59, 0
2, 124151, Note_on_c, 0, 86, 0
2, 124151, Note_on_c, 0, 62, 0
2, 124151, Note_on_c, 0, 74, 0
2, 124151, Note_on_c, 0, 47, 0
2, 124151, Control_c, 0, 64, 0
2, 124170, Note_on_c, 0, 66, 0
2, 124180, Note_on_c, 0, 49, 58
2, 124262, Control_c, 0, 64, 127
2, 124337, Note_on_c, 0, 56, 63
2, 124458, Note_on_c, 0, 61, 67
2, 124604, Note_on_c, 0, 63, 61
2, 124609, Note_on_c, 0, 71, 71
2, 124631, Note_on_c, 0, 85, 0
2, 124751, Note_on_c, 0, 73, 75
2, 124756, Note_on_c, 0, 65, 60
2, 124903, Note_on_c, 0, 77, 74
2, 125048, Note_on_c, 0, 83, 87
2, 125091, Note_on_c, 0, 73, 0
2, 125096, Note_on_c, 0, 73, 29
2, 125202, Note_on_c, 0, 85, 89
2, 125321, Control_c, 0, 64, 0
2, 125323, Note_on_c, 0, 61, 0
2, 125324, Note_on_c, 0, 71, 0
2, 125324, Note_on_c, 0, 63, 0
2, 125324, Note_on_c, 0, 49, 0
2, 125324, Note_on_c, 0, 56, 0
2, 125324, Note_on_c, 0, 65, 0
2, 125325, Note_on_c, 0, 83, 0
2, 125325, Note_on_c, 0, 77, 0
2, 125354, Note_on_c, 0, 54, 65
2, 125429, Control_c, 0, 64, 127
2, 125492, Note_on_c, 0, 61, 71
2, 125636, Note_on_c, 0, 64, 63
2, 125779, Note_on_c, 0, 81, 82
2, 125780, Note_on_c, 0, 69, 70
2, 125946, Note_on_c, 0, 83, 86
2, 126021, Note_on_c, 0, 81, 0
2, 126025, Note_on_c, 0, 81, 88
2, 126099, Note_on_c, 0, 80, 84
2, 126105, Note_on_c, 0, 64, 0
2, 126115, Note_on_c, 0, 64, 68
2, 126117, Note_on_c, 0, 76, 65
2, 126159, Note_on_c, 0, 81, 0
2, 126163, Note_on_c, 0, 81, 85
2, 126236, Note_on_c, 0, 69, 0
2, 126236, Note_on_c, 0, 83, 0
2, 126243, Note_on_c, 0, 69, 70
2, 126246, Note_on_c, 0, 83, 98
2, 126305, Note_on_c, 0, 85, 0
2, 126309, Note_on_c, 0, 85, 89
2, 126343, Note_on_c, 0, 69, 0
2, 126343, Note_on_c, 0, 73, 0
2, 126349, Note_on_c, 0, 73, 76
2, 126354, Note_on_c, 0, 69, 64
2, 126377, Note_on_c, 0, 87, 92
2, 126397, Note_on_c, 0, 69, 0
2, 126405, Note_on_c, 0, 69, 54
2, 126449, Note_on_c, 0, 88, 76
2, 126531, Control_c, 0, 64, 0
2, 126533, Note_on_c, 0, 87, 0
2, 126533, Note_on_c, 0, 80, 0
2, 126533, Note_on_c, 0, 69, 0
2, 126534, Note_on_c, 0, 73, 0
2, 126534, Note_on_c, 0, 85, 0
2, 126534, Note_on_c, 0, 64, 0
2, 126534, Note_on_c, 0, 61, 0
2, 126535, Note_on_c, 0, 83, 0
2, 126535, Note_on_c, 0, 54, 0
2, 126535, Note_on_c, 0, 81, 0
2, 126536, Note_on_c, 0, 88, 0
2, 126536, Note_on_c, 0, 76, 0
2, 126539, Note_on_c, 0, 93, 101
2, 126546, Note_on_c, 0, 59, 80
2, 126620, Control_c, 0, 64, 127
2, 126654, Note_on_c, 0, 92, 94
2, 126707, Note_on_c, 0, 66, 65
2, 126750, Note_on_c, 0, 93, 0
2, 126755, Note_on_c, 0, 93, 91
2, 126861, Note_on_c, 0, 87, 85
2, 126870, Note_on_c, 0, 71, 71
2, 126954, Note_on_c, 0, 85, 86
2, 127006, Note_on_c, 0, 75, 66
2, 127062, Note_on_c, 0, 83, 77
2, 127144, Note_on_c, 0, 81, 85
2, 127296, Note_on_c, 0, 71, 0
2, 127302, Note_on_c, 0, 71, 62
2, 127441, Note_on_c, 0, 66, 0
2, 127446, Note_on_c, 0, 66, 64
2, 127587, Note_on_c, 0, 59, 0
2, 127593, Note_on_c, 0, 59, 72
2, 127595, Note_on_c, 0, 83, 0
2, 127601, Note_on_c, 0, 83, 83
2, 127672, Note_on_c, 0, 85, 0
2, 127676, Note_on_c, 0, 85, 85
2, 127743, Note_on_c, 0, 81, 0
2, 127743, Note_on_c, 0, 93, 0
2, 127744, Note_on_c, 0, 75, 0
2, 127744, Note_on_c, 0, 71, 0
2, 127744, Note_on_c, 0, 87, 0
2, 127744, Note_on_c, 0, 83, 0
2, 127744, Note_on_c, 0, 66, 0
2, 127744, Note_on_c, 0, 59, 0
2, 127745, Control_c, 0, 64, 0
2, 127745, Note_on_c, 0, 85, 0
2, 127755, Note_on_c, 0, 86, 92
2, 127756, Note_on_c, 0, 92, 0
2, 127761, Note_on_c, 0, 74, 82
2, 127772, Note_on_c, 0, 47, 73
2, 127774, Note_on_c, 0, 78, 78
2, 127841, Control_c, 0, 64, 127
2, 127932, Note_on_c, 0, 54, 67
2, 128085, Note_on_c, 0, 57, 66
2, 128228, Note_on_c, 0, 62, 70
2, 128367, Note_on_c, 0, 85, 91
2, 128371, Note_on_c, 0, 74, 0
2, 128371, Note_on_c, 0, 78, 0
2, 128375, Note_on_c, 0, 74, 73
2, 128381, Note_on_c, 0, 78, 71
2, 128512, Note_on_c, 0, 59, 68
2, 128647, Note_on_c, 0, 57, 0
2, 128657, Note_on_c, 0, 66, 63
2, 128659, Note_on_c, 0, 57, 48
2, 128794, Note_on_c, 0, 69, 56
2, 128952, Note_on_c, 0, 83, 89
2, 128962, Note_on_c, 0, 74, 0
2, 128967, Note_on_c, 0, 74, 73
2, 128977, Note_on_c, 0, 59, 0
2, 128977, Note_on_c, 0, 78, 0
2, 128983, Note_on_c, 0, 59, 50
2, 128983, Note_on_c, 0, 78, 66
2, 129108, Note_on_c, 0, 66, 0
2, 129119, Note_on_c, 0, 66, 68
2, 129269, Note_on_c, 0, 69, 0
2, 129273, Note_on_c, 0, 69, 61
2, 129392, Note_on_c, 0, 74, 0
2, 129396, Note_on_c, 0, 74, 68
2, 129400, Note_on_c, 0, 66, 0
2, 129408, Note_on_c, 0, 66, 38
2, 129546, Note_on_c, 0, 74, 0
2, 129546, Note_on_c, 0, 78, 0
2, 129550, Note_on_c, 0, 81, 85
2, 129557, Note_on_c, 0, 74, 73
2, 129557, Note_on_c, 0, 78, 77
2, 129684, Note_on_c, 0, 69, 0
2, 129695, Note_on_c, 0, 69, 67
2, 129822, Note_on_c, 0, 83, 0
2, 129828, Note_on_c, 0, 83, 89
2, 129845, Note_on_c, 0, 66, 0
2, 129850, Note_on_c, 0, 66, 68
2, 129891, Note_on_c, 0, 81, 0
2, 129902, Note_on_c, 0, 81, 81
2, 129968, Note_on_c, 0, 59, 0
2, 129978, Note_on_c, 0, 59, 78
2, 129980, Note_on_c, 0, 80, 86
2, 130060, Note_on_c, 0, 81, 0
2, 130071, Note_on_c, 0, 81, 72
2, 130122, Note_on_c, 0, 85, 0
2, 130124, Note_on_c, 0, 69, 0
2, 130124, Note_on_c, 0, 57, 0
2, 130124, Note_on_c, 0, 86, 0
2, 130124, Note_on_c, 0, 59, 0
2, 130125, Note_on_c, 0, 54, 0
2, 130125, Note_on_c, 0, 83, 0
2, 130125, Note_on_c, 0, 66, 0
2, 130125, Note_on_c, 0, 62, 0
2, 130125, Note_on_c, 0, 81, 0
2, 130125, Note_on_c, 0, 47, 0
2, 130125, Control_c, 0, 64, 0
2, 130126, Note_on_c, 0, 85, 92
2, 130137, Note_on_c, 0, 74, 0
2, 130137, Note_on_c, 0, 78, 0
2, 130145, Note_on_c, 0, 80, 0
2, 130150, Note_on_c, 0, 49, 63
2, 130150, Note_on_c, 0, 80, 73
2, 130157, Note_on_c, 0, 77, 66
2, 130229, Control_c, 0, 64, 127
2, 130304, Note_on_c, 0, 56, 64
2, 130440, Note_on_c, 0, 61, 59
2, 130571, Note_on_c, 0, 63, 67
2, 130574, Note_on_c, 0, 75, 63
2, 130708, Note_on_c, 0, 65, 65
2, 130857, Note_on_c, 0, 83, 74
2, 130859, Note_on_c, 0, 61, 0
2, 130870, Note_on_c, 0, 61, 61
2, 130920, Note_on_c, 0, 85, 0
2, 130925, Note_on_c, 0, 85, 78
2, 131016, Note_on_c, 0, 86, 83
2, 131024, Note_on_c, 0, 68, 59
2, 131088, Note_on_c, 0, 83, 0
2, 131089, Note_on_c, 0, 85, 0
2, 131089, Note_on_c, 0, 49, 0
2, 131089, Note_on_c, 0, 75, 0
2, 131090, Note_on_c, 0, 65, 0
2, 131090, Note_on_c, 0, 63, 0
2, 131090, Note_on_c, 0, 80, 0
2, 131090, Note_on_c, 0, 61, 0
2, 131091, Note_on_c, 0, 77, 0
2, 131092, Note_on_c, 0, 56, 0
2, 131092, Control_c, 0, 64, 0
2, 131157, Note_on_c, 0, 83, 79
2, 131162, Note_on_c, 0, 80, 72
2, 131164, Note_on_c, 0, 77, 69
2, 131165, Note_on_c, 0, 73, 72
2, 131174, Note_on_c, 0, 68, 0
2, 131182, Note_on_c, 0, 86, 0
2, 131228, Control_c, 0, 64, 127
2, 131462, Note_on_c, 0, 75, 68
2, 131758, Note_on_c, 0, 77, 0
2, 131766, Note_on_c, 0, 77, 63
2, 131809, Note_on_c, 0, 83, 0
2, 131809, Note_on_c, 0, 80, 0
2, 131809, Note_on_c, 0, 73, 0
2, 131810, Note_on_c, 0, 75, 0
2, 131815, Control_c, 0, 64, 0
2, 131896, Control_c, 0, 64, 127
2, 131910, Note_on_c, 0, 68, 58
2, 132003, Note_on_c, 0, 77, 0
2, 132069, Note_on_c, 0, 78, 62
2, 132145, Control_c, 0, 64, 0
2, 132145, Note_on_c, 0, 68, 0
2, 132215, Note_on_c, 0, 80, 58
2, 132218, Note_on_c, 0, 61, 49
2, 132226, Control_c, 0, 64, 127
2, 132524, Note_on_c, 0, 50, 51
2, 132533, Note_on_c, 0, 78, 0
2, 132543, Note_on_c, 0, 80, 0
2, 132543, Note_on_c, 0, 61, 0
2, 132551, Control_c, 0, 64, 0
2, 132677, Note_on_c, 0, 64, 64
2, 132718, Note_on_c, 0, 64, 0
2, 132822, Note_on_c, 0, 64, 64
2, 132868, Note_on_c, 0, 64, 0
2, 132970, Note_on_c, 0, 64, 73
2, 133004, Note_on_c, 0, 62, 46
2, 133004, Note_on_c, 0, 57, 50
2, 133005, Note_on_c, 0, 54, 42
2, 133079, Control_c, 0, 64, 127
2, 133273, Note_on_c, 0, 88, 65
2, 133417, Note_on_c, 0, 74, 71
2, 133436, Note_on_c, 0, 69, 49
2, 133444, Note_on_c, 0, 66, 50
2, 133573, Note_on_c, 0, 100, 71
2, 133718, Note_on_c, 0, 49, 61
2, 133742, Note_on_c, 0, 100, 0
2, 133743, Note_on_c, 0, 74, 0
2, 133743, Note_on_c, 0, 69, 0
2, 133744, Note_on_c, 0, 54, 0
2, 133744, Note_on_c, 0, 50, 0
2, 133744, Note_on_c, 0, 57, 0
2, 133744, Note_on_c, 0, 66, 0
2, 133744, Note_on_c, 0, 64, 0
2, 133747, Note_on_c, 0, 62, 0
2, 133750, Control_c, 0, 64, 0
2, 133762, Note_on_c, 0, 88, 0
2, 133874, Note_on_c, 0, 57, 69
2, 133875, Note_on_c, 0, 69, 62
2, 133906, Note_on_c, 0, 69, 0
2, 133913, Note_on_c, 0, 57, 0
2, 134013, Note_on_c, 0, 57, 67
2, 134014, Note_on_c, 0, 69, 64
2, 134051, Note_on_c, 0, 57, 0
2, 134077, Note_on_c, 0, 69, 0
2, 134171, Note_on_c, 0, 57, 76
2, 134173, Note_on_c, 0, 69, 69
2, 134191, Note_on_c, 0, 61, 60
2, 134191, Note_on_c, 0, 52, 63
2, 134194, Note_on_c, 0, 64, 47
2, 134200, Note_on_c, 0, 64, 0
2, 134208, Control_c, 0, 64, 127
2, 134471, Note_on_c, 0, 88, 68
2, 134602, Note_on_c, 0, 73, 72
2, 134615, Note_on_c, 0, 69, 0
2, 134625, Note_on_c, 0, 93, 76
2, 134626, Note_on_c, 0, 64, 62
2, 134626, Note_on_c, 0, 69, 62
2, 134782, Note_on_c, 0, 100, 50
2, 134913, Note_on_c, 0, 47, 64
2, 134914, Note_on_c, 0, 100, 0
2, 134920, Note_on_c, 0, 61, 0
2, 134920, Note_on_c, 0, 64, 0
2, 134921, Note_on_c, 0, 52, 0
2, 134921, Note_on_c, 0, 69, 0
2, 134922, Note_on_c, 0, 93, 0
2, 134923, Note_on_c, 0, 57, 0
2, 134923, Note_on_c, 0, 49, 0
2, 134923, Note_on_c, 0, 73, 0
2, 134925, Note_on_c, 0, 88, 0
2, 134926, Control_c, 0, 64, 0
2, 135064, Note_on_c, 0, 64, 74
2, 135106, Note_on_c, 0, 64, 0
2, 135212, Note_on_c, 0, 64, 73
2, 135254, Note_on_c, 0, 64, 0
2, 135361, Note_on_c, 0, 64, 77
2, 135376, Note_on_c, 0, 62, 57
2, 135388, Note_on_c, 0, 54, 47
2, 135390, Control_c, 0, 64, 127
2, 135392, Note_on_c, 0, 57, 57
2, 135670, Note_on_c, 0, 88, 71
2, 135793, Note_on_c, 0, 74, 80
2, 135806, Note_on_c, 0, 69, 63
2, 135807, Note_on_c, 0, 93, 79
2, 135808, Note_on_c, 0, 66, 67
2, 135957, Note_on_c, 0, 100, 74
2, 136089, Note_on_c, 0, 57, 0
2, 136096, Note_on_c, 0, 57, 60
2, 136100, Note_on_c, 0, 45, 62
2, 136110, Note_on_c, 0, 47, 0
2, 136110, Note_on_c, 0, 88, 0
2, 136111, Note_on_c, 0, 74, 0
2, 136111, Note_on_c, 0, 62, 0
2, 136112, Note_on_c, 0, 54, 0
2, 136112, Note_on_c, 0, 93, 0
2, 136112, Note_on_c, 0, 66, 0
2, 136112, Note_on_c, 0, 69, 0
2, 136112, Note_on_c, 0, 100, 0
2, 136114, Note_on_c, 0, 64, 0
2, 136119, Control_c, 0, 64, 0
2, 136135, Note_on_c, 0, 57, 0
2, 136244, Note_on_c, 0, 57, 73
2, 136292, Note_on_c, 0, 57, 0
2, 136384, Note_on_c, 0, 59, 82
2, 136415, Note_on_c, 0, 59, 0
2, 136539, Note_on_c, 0, 61, 80
2, 136550, Note_on_c, 0, 52, 71
2, 136552, Note_on_c, 0, 57, 66
2, 136581, Control_c, 0, 64, 127
2, 136828, Note_on_c, 0, 88, 71
2, 136919, Note_on_c, 0, 45, 0
2, 136982, Note_on_c, 0, 73, 71
2, 136982, Note_on_c, 0, 93, 79
2, 136992, Note_on_c, 0, 69, 54
2, 136992, Note_on_c, 0, 64, 62
2, 137124, Note_on_c, 0, 100, 73
2, 137272, Note_on_c, 0, 47, 68
2, 137285, Note_on_c, 0, 93, 0
2, 137287, Note_on_c, 0, 100, 0
2, 137288, Note_on_c, 0, 64, 0
2, 137288, Note_on_c, 0, 57, 0
2, 137288, Note_on_c, 0, 69, 0
2, 137288, Note_on_c, 0, 61, 0
2, 137289, Note_on_c, 0, 52, 0
2, 137289, Note_on_c, 0, 73, 0
2, 137290, Note_on_c, 0, 88, 0
2, 137291, Control_c, 0, 64, 0
2, 137404, Note_on_c, 0, 71, 77
2, 137413, Note_on_c, 0, 62, 67
2, 137422, Note_on_c, 0, 66, 57
2, 137426, Note_on_c, 0, 54, 61
2, 137449, Note_on_c, 0, 62, 0
2, 137452, Note_on_c, 0, 71, 0
2, 137479, Note_on_c, 0, 66, 0
2, 137563, Note_on_c, 0, 71, 84
2, 137564, Note_on_c, 0, 59, 71
2, 137567, Note_on_c, 0, 66, 68
2, 137567, Note_on_c, 0, 62, 69
2, 137571, Control_c, 0, 64, 127
2, 137679, Note_on_c, 0, 54, 0
2, 137679, Note_on_c, 0, 66, 0
2, 137685, Note_on_c, 0, 66, 63
2, 137685, Note_on_c, 0, 54, 70
2, 137697, Note_on_c, 0, 69, 74
2, 137800, Note_on_c, 0, 71, 0
2, 137801, Note_on_c, 0, 59, 0
2, 137802, Note_on_c, 0, 66, 0
2, 137802, Note_on_c, 0, 54, 0
2, 137803, Note_on_c, 0, 62, 0
2, 137804, Note_on_c, 0, 69, 0
2, 137805, Control_c, 0, 64, 0
2, 137809, Note_on_c, 0, 47, 0
2, 137847, Note_on_c, 0, 35, 61
2, 137851, Note_on_c, 0, 47, 55
2, 137955, Note_on_c, 0, 35, 0
2, 137978, Note_on_c, 0, 47, 0
2, 137984, Note_on_c, 0, 47, 66
2, 137989, Note_on_c, 0, 83, 81
2, 137994, Control_c, 0, 64, 127
2, 137995, Note_on_c, 0, 74, 76
2, 138003, Note_on_c, 0, 78, 71
2, 138124, Note_on_c, 0, 83, 0
2, 138130, Note_on_c, 0, 83, 90
2, 138140, Note_on_c, 0, 74, 0
2, 138140, Note_on_c, 0, 78, 0
2, 138144, Note_on_c, 0, 74, 75
2, 138144, Note_on_c, 0, 59, 74
2, 138144, Note_on_c, 0, 78, 75
2, 138275, Note_on_c, 0, 81, 88
2, 138298, Note_on_c, 0, 66, 59
2, 138300, Note_on_c, 0, 54, 71
2, 138435, Note_on_c, 0, 49, 76
2, 138446, Control_c, 0, 64, 0
2, 138446, Note_on_c, 0, 78, 0
2, 138447, Note_on_c, 0, 47, 0
2, 138447, Note_on_c, 0, 74, 0
2, 138448, Note_on_c, 0, 83, 0
2, 138448, Note_on_c, 0, 54, 0
2, 138449, Note_on_c, 0, 81, 0
2, 138449, Note_on_c, 0, 59, 0
2, 138470, Note_on_c, 0, 66, 0
2, 138574, Note_on_c, 0, 73, 85
2, 138579, Note_on_c, 0, 64, 70
2, 138580, Note_on_c, 0, 69, 73
2, 138581, Note_on_c, 0, 57, 72
2, 138611, Note_on_c, 0, 64, 0
2, 138613, Note_on_c, 0, 73, 0
2, 138677, Control_c, 0, 64, 127
2, 138708, Note_on_c, 0, 69, 0
2, 138718, Note_on_c, 0, 73, 87
2, 138719, Note_on_c, 0, 69, 76
2, 138719, Note_on_c, 0, 64, 75
2, 138720, Note_on_c, 0, 61, 78
2, 138839, Note_on_c, 0, 57, 0
2, 138845, Note_on_c, 0, 57, 71
2, 138849, Note_on_c, 0, 71, 82
2, 138930, Note_on_c, 0, 69, 0
2, 138941, Note_on_c, 0, 73, 0
2, 138948, Note_on_c, 0, 61, 0
2, 138950, Note_on_c, 0, 57, 0
2, 138950, Note_on_c, 0, 64, 0
2, 138950, Note_on_c, 0, 49, 0
2, 138950, Note_on_c, 0, 71, 0
2, 138955, Control_c, 0, 64, 0
2, 139003, Note_on_c, 0, 37, 75
2, 139077, Control_c, 0, 64, 127
2, 139160, Note_on_c, 0, 85, 91
2, 139160, Note_on_c, 0, 49, 75
2, 139164, Note_on_c, 0, 73, 81
2, 139167, Note_on_c, 0, 76, 74
2, 139303, Note_on_c, 0, 86, 96
2, 139308, Note_on_c, 0, 74, 92
2, 139310, Note_on_c, 0, 61, 66
2, 139422, Note_on_c, 0, 57, 75
2, 139438, Note_on_c, 0, 76, 0
2, 139442, Note_on_c, 0, 88, 94
2, 139443, Note_on_c, 0, 76, 93
2, 139550, Note_on_c, 0, 37, 0
2, 139550, Note_on_c, 0, 74, 0
2, 139550, Note_on_c, 0, 86, 0
2, 139550, Note_on_c, 0, 73, 0
2, 139550, Note_on_c, 0, 49, 0
2, 139550, Note_on_c, 0, 76, 0
2, 139550, Note_on_c, 0, 85, 0
2, 139552, Note_on_c, 0, 88, 0
2, 139552, Control_c, 0, 64, 0
2, 139553, Note_on_c, 0, 57, 0
2, 139576, Note_on_c, 0, 61, 0
2, 139587, Note_on_c, 0, 90, 106
2, 139589, Note_on_c, 0, 81, 93
2, 139590, Note_on_c, 0, 78, 98
2, 139590, Note_on_c, 0, 38, 80
2, 139637, Control_c, 0, 64, 127
2, 139734, Note_on_c, 0, 45, 66
2, 139889, Note_on_c, 0, 54, 62
2, 139890, Note_on_c, 0, 66, 76
2, 139890, Note_on_c, 0, 62, 71
2, 140025, Note_on_c, 0, 50, 61
2, 140165, Note_on_c, 0, 69, 82
2, 140175, Note_on_c, 0, 66, 0
2, 140179, Note_on_c, 0, 57, 67
2, 140182, Note_on_c, 0, 66, 69
2, 140305, Note_on_c, 0, 54, 0
2, 140311, Note_on_c, 0, 54, 64
2, 140454, Note_on_c, 0, 74, 94
2, 140459, Note_on_c, 0, 69, 0
2, 140466, Note_on_c, 0, 69, 69
2, 140467, Note_on_c, 0, 62, 0
2, 140471, Note_on_c, 0, 62, 69
2, 140590, Note_on_c, 0, 57, 0
2, 140595, Note_on_c, 0, 57, 75
2, 140736, Note_on_c, 0, 78, 0
2, 140743, Note_on_c, 0, 66, 0
2, 140743, Note_on_c, 0, 74, 0
2, 140746, Note_on_c, 0, 78, 98
2, 140748, Note_on_c, 0, 74, 81
2, 140752, Note_on_c, 0, 66, 83
2, 140897, Note_on_c, 0, 62, 0
2, 140901, Note_on_c, 0, 62, 82
2, 141020, Note_on_c, 0, 57, 0
2, 141030, Note_on_c, 0, 57, 82
2, 141166, Note_on_c, 0, 54, 0
2, 141172, Note_on_c, 0, 54, 83
2, 141327, Note_on_c, 0, 50, 0
2, 141335, Note_on_c, 0, 38, 0
2, 141336, Note_on_c, 0, 92, 110
2, 141337, Note_on_c, 0, 80, 104
2, 141338, Note_on_c, 0, 50, 93
2, 141339, Note_on_c, 0, 38, 81
2, 141358, Note_on_c, 0, 90, 0
2, 141368, Note_on_c, 0, 90, 53
2, 141450, Note_on_c, 0, 45, 0
2, 141459, Note_on_c, 0, 45, 77
2, 141611, Note_on_c, 0, 78, 0
2, 141611, Note_on_c, 0, 90, 0
2, 141614, Note_on_c, 0, 42, 82
2, 141615, Note_on_c, 0, 90, 101
2, 141622, Note_on_c, 0, 78, 97
2, 141719, Note_on_c, 0, 38, 0
2, 141729, Note_on_c, 0, 38, 85
2, 141868, Control_c, 0, 64, 0
2, 141868, Note_on_c, 0, 42, 0
2, 141868, Note_on_c, 0, 80, 0
2, 141868, Note_on_c, 0, 92, 0
2, 141869, Note_on_c, 0, 69, 0
2, 141869, Note_on_c, 0, 62, 0
2, 141869, Note_on_c, 0, 74, 0
2, 141869, Note_on_c, 0, 81, 0
2, 141869, Note_on_c, 0, 38, 0
2, 141869, Note_on_c, 0, 45, 0
2, 141869, Note_on_c, 0, 90, 0
2, 141869, Note_on_c, 0, 54, 0
2, 141869, Note_on_c, 0, 78, 0
2, 141870, Note_on_c, 0, 66, 0
2, 141888, Note_on_c, 0, 50, 0
2, 141888, Note_on_c, 0, 57, 0
2, 141906, Note_on_c, 0, 89, 104
2, 141909, Note_on_c, 0, 77, 96
2, 141911, Note_on_c, 0, 80, 93
2, 141913, Note_on_c, 0, 85, 91
2, 141914, Note_on_c, 0, 37, 97
2, 141915, Note_on_c, 0, 49, 95
2, 141941, Control_c, 0, 64, 127
2, 142056, Note_on_c, 0, 37, 0
2, 142060, Note_on_c, 0, 61, 86
2, 142062, Note_on_c, 0, 53, 56
2, 142062, Note_on_c, 0, 56, 81
2, 142072, Note_on_c, 0, 53, 0
2, 142087, Control_c, 0, 64, 0
2, 142103, Note_on_c, 0, 49, 0
2, 142114, Note_on_c, 0, 56, 0
2, 142126, Note_on_c, 0, 61, 0
2, 142237, Note_on_c, 0, 37, 39
2, 142248, Note_on_c, 0, 37, 0
2, 142333, Note_on_c, 0, 37, 87
2, 142335, Note_on_c, 0, 49, 83
2, 142448, Note_on_c, 0, 49, 0
2, 142456, Note_on_c, 0, 37, 0
2, 142486, Note_on_c, 0, 83, 95
2, 142486, Note_on_c, 0, 90, 105
2, 142488, Note_on_c, 0, 78, 99
2, 142490, Note_on_c, 0, 87, 89
2, 142491, Note_on_c, 0, 51, 97
2, 142492, Note_on_c, 0, 39, 97
2, 142563, Control_c, 0, 64, 127
2, 142755, Note_on_c, 0, 39, 0
2, 142755, Note_on_c, 0, 51, 0
2, 142766, Note_on_c, 0, 51, 90
2, 142767, Note_on_c, 0, 39, 73
2, 142865, Note_on_c, 0, 87, 0
2, 142865, Control_c, 0, 64, 0
2, 142865, Note_on_c, 0, 78, 0
2, 142865, Note_on_c, 0, 90, 0
2, 142886, Note_on_c, 0, 51, 0
2, 142886, Note_on_c, 0, 77, 0
2, 142894, Note_on_c, 0, 39, 0
2, 142894, Note_on_c, 0, 85, 0
2, 142894, Note_on_c, 0, 89, 0
2, 142909, Note_on_c, 0, 80, 0
2, 142909, Note_on_c, 0, 83, 0
2, 142919, Note_on_c, 0, 92, 110
2, 142920, Note_on_c, 0, 89, 98
2, 142920, Note_on_c, 0, 80, 106
2, 142921, Note_on_c, 0, 85, 102
2, 142922, Note_on_c, 0, 41, 99
2, 142923, Note_on_c, 0, 53, 98
2, 142940, Control_c, 0, 64, 127
2, 143221, Note_on_c, 0, 73, 88
2, 143222, Note_on_c, 0, 61, 85
2, 143227, Note_on_c, 0, 56, 82
2, 143339, Note_on_c, 0, 53, 0
2, 143347, Note_on_c, 0, 61, 0
2, 143350, Note_on_c, 0, 53, 82
2, 143351, Note_on_c, 0, 61, 77
2, 143355, Note_on_c, 0, 77, 100
2, 143356, Note_on_c, 0, 65, 84
2, 143485, Note_on_c, 0, 61, 0
2, 143485, Note_on_c, 0, 80, 0
2, 143493, Note_on_c, 0, 80, 104
2, 143496, Note_on_c, 0, 68, 96
2, 143496, Note_on_c, 0, 61, 77
2, 143498, Note_on_c, 0, 49, 82
2, 143631, Note_on_c, 0, 73, 0
2, 143631, Note_on_c, 0, 85, 0
2, 143635, Note_on_c, 0, 85, 104
2, 143637, Note_on_c, 0, 73, 98
2, 143637, Note_on_c, 0, 44, 82
2, 143639, Note_on_c, 0, 32, 76
2, 143781, Note_on_c, 0, 83, 105
2, 143784, Note_on_c, 0, 49, 0
2, 143786, Note_on_c, 0, 71, 96
2, 143788, Note_on_c, 0, 37, 88
2, 143790, Note_on_c, 0, 49, 78
2, 143915, Note_on_c, 0, 44, 0
2, 143915, Note_on_c, 0, 77, 0
2, 143917, Note_on_c, 0, 81, 103
2, 143920, Note_on_c, 0, 69, 95
2, 143924, Note_on_c, 0, 77, 80
2, 143925, Note_on_c, 0, 44, 85
2, 144030, Note_on_c, 0, 49, 0
2, 144038, Note_on_c, 0, 80, 0
2, 144040, Note_on_c, 0, 37, 0
2, 144041, Note_on_c, 0, 49, 83
2, 144046, Note_on_c, 0, 68, 0
2, 144049, Note_on_c, 0, 80, 101
2, 144051, Note_on_c, 0, 68, 91
2, 144129, Note_on_c, 0, 69, 0
2, 144129, Note_on_c, 0, 32, 0
2, 144129, Control_c, 0, 64, 0
2, 144130, Note_on_c, 0, 81, 0
2, 144130, Note_on_c, 0, 83, 0
2, 144130, Note_on_c, 0, 73, 0
2, 144130, Note_on_c, 0, 49, 0
2, 144130, Note_on_c, 0, 68, 0
2, 144131, Note_on_c, 0, 44, 0
2, 144131, Note_on_c, 0, 53, 0
2, 144131, Note_on_c, 0, 71, 0
2, 144132, Note_on_c, 0, 80, 0
2, 144132, Note_on_c, 0, 92, 0
2, 144145, Note_on_c, 0, 41, 0
2, 144145, Note_on_c, 0, 61, 0
2, 144145, Note_on_c, 0, 77, 0
2, 144145, Note_on_c, 0, 89, 0
2, 144153, Note_on_c, 0, 56, 0
2, 144153, Note_on_c, 0, 65, 0
2, 144153, Note_on_c, 0, 85, 0
2, 144191, Note_on_c, 0, 81, 104
2, 144193, Note_on_c, 0, 93, 112
2, 144194, Note_on_c, 0, 50, 105
2, 144196, Note_on_c, 0, 38, 101
2, 144200, Note_on_c, 0, 90, 85
2, 144222, Control_c, 0, 64, 127
2, 144330, Note_on_c, 0, 50, 0
2, 144337, Note_on_c, 0, 38, 0
2, 144341, Note_on_c, 0, 50, 97
2, 144343, Note_on_c, 0, 38, 82
2, 144349, Note_on_c, 0, 92, 102
2, 144350, Note_on_c, 0, 80, 91
2, 144476, Note_on_c, 0, 81, 0
2, 144476, Note_on_c, 0, 93, 0
2, 144485, Note_on_c, 0, 93, 106
2, 144486, Note_on_c, 0, 54, 80
2, 144487, Note_on_c, 0, 42, 68
2, 144487, Note_on_c, 0, 81, 90
2, 144501, Note_on_c, 0, 92, 0
2, 144501, Control_c, 0, 64, 0
2, 144502, Note_on_c, 0, 38, 0
2, 144503, Note_on_c, 0, 90, 0
2, 144515, Note_on_c, 0, 54, 0
2, 144522, Note_on_c, 0, 50, 0
2, 144522, Note_on_c, 0, 80, 0
2, 144537, Note_on_c, 0, 42, 0
2, 144537, Note_on_c, 0, 81, 0
2, 144583, Note_on_c, 0, 93, 0
2, 144624, Note_on_c, 0, 95, 110
2, 144625, Note_on_c, 0, 83, 106
2, 144635, Note_on_c, 0, 52, 97
2, 144636, Note_on_c, 0, 88, 90
2, 144637, Note_on_c, 0, 40, 95
2, 144643, Note_on_c, 0, 92, 87
2, 144646, Note_on_c, 0, 50, 74
2, 144652, Control_c, 0, 64, 127
2, 144906, Note_on_c, 0, 88, 0
2, 144910, Note_on_c, 0, 88, 102
2, 144911, Note_on_c, 0, 76, 98
2, 144913, Note_on_c, 0, 52, 0
2, 144918, Note_on_c, 0, 52, 86
2, 145052, Note_on_c, 0, 52, 0
2, 145057, Note_on_c, 0, 56, 88
2, 145057, Note_on_c, 0, 52, 73
2, 145183, Control_c, 0, 64, 0
2, 145186, Note_on_c, 0, 40, 0
2, 145187, Note_on_c, 0, 50, 0
2, 145187, Note_on_c, 0, 52, 0
2, 145187, Note_on_c, 0, 92, 0
2, 145187, Note_on_c, 0, 76, 0
2, 145187, Note_on_c, 0, 56, 0
2, 145190, Note_on_c, 0, 83, 0
2, 145190, Note_on_c, 0, 95, 0
2, 145198, Note_on_c, 0, 88, 0
2, 145200, Note_on_c, 0, 95, 109
2, 145201, Note_on_c, 0, 83, 107
2, 145202, Note_on_c, 0, 88, 98
2, 145205, Note_on_c, 0, 85, 99
2, 145208, Note_on_c, 0, 30, 92
2, 145208, Note_on_c, 0, 42, 89
2, 145244, Control_c, 0, 64, 127
2, 145489, Note_on_c, 0, 42, 0
2, 145498, Note_on_c, 0, 93, 107
2, 145500, Note_on_c, 0, 81, 93
2, 145500, Note_on_c, 0, 42, 81
2, 145640, Note_on_c, 0, 80, 95
2, 145641, Note_on_c, 0, 92, 99
2, 145643, Note_on_c, 0, 57, 82
2, 145651, Note_on_c, 0, 49, 83
2, 145654, Note_on_c, 0, 52, 77
2, 145789, Note_on_c, 0, 81, 0
2, 145789, Note_on_c, 0, 88, 0
2, 145789, Note_on_c, 0, 93, 0
2, 145793, Control_c, 0, 64, 0
2, 145793, Note_on_c, 0, 93, 110
2, 145797, Note_on_c, 0, 42, 0
2, 145797, Note_on_c, 0, 49, 0
2, 145797, Note_on_c, 0, 85, 0
2, 145797, Note_on_c, 0, 81, 101
2, 145800, Note_on_c, 0, 88, 86
2, 145800, Note_on_c, 0, 85, 97
2, 145801, Note_on_c, 0, 49, 77
2, 145807, Note_on_c, 0, 42, 79
2, 145843, Control_c, 0, 64, 127
2, 146088, Note_on_c, 0, 42, 0
2, 146099, Note_on_c, 0, 42, 89
2, 146234, Note_on_c, 0, 49, 0
2, 146234, Note_on_c, 0, 57, 0
2, 146244, Note_on_c, 0, 57, 86
2, 146244, Note_on_c, 0, 49, 89
2, 146380, Note_on_c, 0, 49, 0
2, 146391, Note_on_c, 0, 49, 80
2, 146395, Note_on_c, 0, 90, 98
2, 146442, Note_on_c, 0, 92, 0
2, 146447, Note_on_c, 0, 92, 88
2, 146453, Note_on_c, 0, 80, 0
2, 146453, Note_on_c, 0, 42, 0
2, 146454, Note_on_c, 0, 93, 0
2, 146454, Note_on_c, 0, 83, 0
2, 146454, Note_on_c, 0, 81, 0
2, 146454, Note_on_c, 0, 90, 0
2, 146454, Note_on_c, 0, 49, 0
2, 146454, Note_on_c, 0, 57, 0
2, 146454, Note_on_c, 0, 85, 0
2, 146455, Control_c, 0, 64, 0
2, 146457, Note_on_c, 0, 52, 0
2, 146457, Note_on_c, 0, 95, 0
2, 146465, Note_on_c, 0, 30, 0
2, 146472, Note_on_c, 0, 88, 0
2, 146523, Note_on_c, 0, 50, 101
2, 146524, Note_on_c, 0, 81, 101
2, 146525, Note_on_c, 0, 93, 112
2, 146528, Note_on_c, 0, 38, 99
2, 146530, Note_on_c, 0, 86, 90
2, 146536, Note_on_c, 0, 42, 68
2, 146549, Control_c, 0, 64, 127
2, 146664, Note_on_c, 0, 92, 0
2, 146668, Note_on_c, 0, 92, 100
2, 146673, Note_on_c, 0, 80, 95
2, 146783, Note_on_c, 0, 86, 0
2, 146785, Note_on_c, 0, 38, 0
2, 146793, Note_on_c, 0, 50, 0
2, 146803, Note_on_c, 0, 81, 0
2, 146803, Note_on_c, 0, 93, 0
2, 146805, Note_on_c, 0, 54, 70
2, 146806, Note_on_c, 0, 62, 76
2, 146811, Note_on_c, 0, 93, 106
2, 146813, Note_on_c, 0, 81, 89
2, 146822, Control_c, 0, 64, 0
2, 146826, Note_on_c, 0, 42, 0
2, 146826, Note_on_c, 0, 80, 0
2, 146838, Note_on_c, 0, 54, 0
2, 146856, Note_on_c, 0, 62, 0
2, 146872, Note_on_c, 0, 81, 0
2, 146926, Note_on_c, 0, 92, 0
2, 146954, Note_on_c, 0, 95, 108
2, 146957, Note_on_c, 0, 83, 106
2, 146960, Note_on_c, 0, 40, 95
2, 146961, Note_on_c, 0, 52, 101
2, 146961, Note_on_c, 0, 88, 94
2, 146964, Control_c, 0, 64, 127
2, 147233, Note_on_c, 0, 93, 0
2, 147240, Note_on_c, 0, 52, 0
2, 147244, Note_on_c, 0, 93, 108
2, 147245, Note_on_c, 0, 81, 97
2, 147251, Note_on_c, 0, 52, 93
2, 147368, Note_on_c, 0, 56, 86
2, 147379, Note_on_c, 0, 52, 0
2, 147379, Note_on_c, 0, 83, 0
2, 147379, Note_on_c, 0, 95, 0
2, 147383, Note_on_c, 0, 95, 95
2, 147383, Note_on_c, 0, 83, 99
2, 147388, Note_on_c, 0, 52, 79
2, 147492, Note_on_c, 0, 95, 0
2, 147493, Control_c, 0, 64, 0
2, 147493, Note_on_c, 0, 81, 0
2, 147494, Note_on_c, 0, 88, 0
2, 147494, Note_on_c, 0, 83, 0
2, 147495, Note_on_c, 0, 56, 0
2, 147495, Note_on_c, 0, 40, 0
2, 147496, Note_on_c, 0, 52, 0
2, 147540, Note_on_c, 0, 93, 0
2, 147544, Note_on_c, 0, 97, 104
2, 147544, Note_on_c, 0, 93, 96
2, 147547, Note_on_c, 0, 85, 105
2, 147550, Note_on_c, 0, 90, 102
2, 147551, Note_on_c, 0, 42, 88
2, 147551, Note_on_c, 0, 30, 93
2, 147571, Control_c, 0, 64, 127
2, 147840, Note_on_c, 0, 30, 0
2, 147840, Note_on_c, 0, 42, 0
2, 147844, Note_on_c, 0, 30, 64
2, 147844, Note_on_c, 0, 42, 69
2, 147928, Note_on_c, 0, 52, 75
2, 147994, Note_on_c, 0, 66, 90
2, 148000, Note_on_c, 0, 57, 81
2, 148139, Note_on_c, 0, 42, 0
2, 148143, Note_on_c, 0, 42, 69
2, 148216, Note_on_c, 0, 52, 0
2, 148227, Note_on_c, 0, 52, 80
2, 148288, Note_on_c, 0, 68, 92
2, 148294, Note_on_c, 0, 59, 84
2, 148431, Note_on_c, 0, 42, 0
2, 148442, Note_on_c, 0, 42, 85
2, 148531, Note_on_c, 0, 52, 0
2, 148535, Note_on_c, 0, 52, 81
2, 148567, Note_on_c, 0, 57, 0
2, 148567, Note_on_c, 0, 69, 98
2, 148575, Note_on_c, 0, 61, 73
2, 148715, Note_on_c, 0, 42, 0
2, 148720, Note_on_c, 0, 42, 80
2, 148779, Note_on_c, 0, 69, 0
2, 148779, Note_on_c, 0, 66, 0
2, 148780, Note_on_c, 0, 59, 0
2, 148781, Note_on_c, 0, 93, 0
2, 148781, Note_on_c, 0, 61, 0
2, 148781, Note_on_c, 0, 68, 0
2, 148781, Note_on_c, 0, 97, 0
2, 148781, Note_on_c, 0, 85, 0
2, 148781, Control_c, 0, 64, 0
2, 148781, Note_on_c, 0, 52, 0
2, 148782, Note_on_c, 0, 42, 0
2, 148782, Note_on_c, 0, 90, 0
2, 148792, Note_on_c, 0, 30, 0
2, 148855, Note_on_c, 0, 81, 103
2, 148855, Note_on_c, 0, 50, 104
2, 148855, Note_on_c, 0, 93, 113
2, 148857, Note_on_c, 0, 38, 102
2, 148858, Note_on_c, 0, 90, 92
2, 148859, Note_on_c, 0, 86, 88
2, 148861, Control_c, 0, 64, 127
2, 149007, Note_on_c, 0, 50, 0
2, 149010, Note_on_c, 0, 92, 102
2, 149013, Note_on_c, 0, 50, 86
2, 149016, Note_on_c, 0, 80, 92
2, 149071, Note_on_c, 0, 90, 0
2, 149074, Note_on_c, 0, 86, 0
2, 149077, Note_on_c, 0, 93, 0
2, 149079, Note_on_c, 0, 38, 0
2, 149084, Note_on_c, 0, 92, 0
2, 149084, Control_c, 0, 64, 0
2, 149107, Note_on_c, 0, 80, 0
2, 149107, Note_on_c, 0, 81, 0
2, 149140, Note_on_c, 0, 54, 78
2, 149142, Note_on_c, 0, 93, 107
2, 149145, Note_on_c, 0, 81, 88
2, 149160, Note_on_c, 0, 50, 0
2, 149172, Note_on_c, 0, 54, 0
2, 149191, Note_on_c, 0, 81, 0
2, 149230, Note_on_c, 0, 93, 0
2, 149284, Note_on_c, 0, 95, 109
2, 149286, Note_on_c, 0, 83, 107
2, 149287, Note_on_c, 0, 52, 105
2, 149288, Note_on_c, 0, 40, 96
2, 149288, Note_on_c, 0, 88, 94
2, 149314, Control_c, 0, 64, 127
2, 149568, Note_on_c, 0, 88, 0
2, 149572, Note_on_c, 0, 88, 99
2, 149575, Note_on_c, 0, 52, 0
2, 149576, Note_on_c, 0, 76, 90
2, 149587, Note_on_c, 0, 52, 91
2, 149718, Note_on_c, 0, 56, 88
2, 149721, Note_on_c, 0, 52, 0
2, 149723, Note_on_c, 0, 64, 76
2, 149727, Note_on_c, 0, 52, 73
2, 149752, Note_on_c, 0, 54, 39
2, 149842, Control_c, 0, 64, 0
2, 149844, Note_on_c, 0, 54, 0
2, 149845, Note_on_c, 0, 40, 0
2, 149845, Note_on_c, 0, 52, 0
2, 149846, Note_on_c, 0, 56, 0
2, 149846, Note_on_c, 0, 76, 0
2, 149852, Note_on_c, 0, 64, 0
2, 149859, Note_on_c, 0, 83, 0
2, 149859, Note_on_c, 0, 88, 0
2, 149859, Note_on_c, 0, 95, 0
2, 149863, Note_on_c, 0, 95, 105
2, 149864, Note_on_c, 0, 83, 106
2, 149869, Note_on_c, 0, 85, 99
2, 149869, Note_on_c, 0, 88, 97
2, 149874, Note_on_c, 0, 42, 91
2, 149874, Note_on_c, 0, 30, 95
2, 149895, Note_on_c, 0, 32, 55
2, 149913, Control_c, 0, 64, 127
2, 150144, Note_on_c, 0, 30, 0
2, 150144, Note_on_c, 0, 42, 0
2, 150150, Note_on_c, 0, 30, 76
2, 150154, Note_on_c, 0, 42, 74
2, 150154, Note_on_c, 0, 93, 104
2, 150155, Note_on_c, 0, 81, 93
2, 150300, Note_on_c, 0, 57, 84
2, 150301, Note_on_c, 0, 80, 87
2, 150302, Note_on_c, 0, 45, 75
2, 150304, Note_on_c, 0, 92, 94
2, 150310, Note_on_c, 0, 40, 55
2, 150316, Note_on_c, 0, 52, 71
2, 150320, Note_on_c, 0, 52, 0
2, 150435, Note_on_c, 0, 93, 0
2, 150443, Note_on_c, 0, 81, 0
2, 150443, Note_on_c, 0, 85, 0
2, 150443, Note_on_c, 0, 88, 0
2, 150447, Note_on_c, 0, 93, 110
2, 150447, Note_on_c, 0, 88, 88
2, 150448, Note_on_c, 0, 81, 100
2, 150451, Note_on_c, 0, 30, 0
2, 150451, Note_on_c, 0, 42, 0
2, 150453, Note_on_c, 0, 85, 95
2, 150455, Note_on_c, 0, 42, 84
2, 150457, Note_on_c, 0, 30, 85
2, 150474, Note_on_c, 0, 40, 0
2, 150758, Note_on_c, 0, 42, 0
2, 150762, Note_on_c, 0, 54, 76
2, 150762, Note_on_c, 0, 42, 85
2, 150888, Note_on_c, 0, 57, 0
2, 150895, Note_on_c, 0, 69, 78
2, 150895, Note_on_c, 0, 57, 89
2, 150897, Note_on_c, 0, 49, 82
2, 150904, Note_on_c, 0, 32, 0
2, 151126, Note_on_c, 0, 30, 0
2, 151127, Note_on_c, 0, 92, 0
2, 151128, Note_on_c, 0, 93, 0
2, 151128, Note_on_c, 0, 42, 0
2, 151128, Note_on_c, 0, 80, 0
2, 151128, Note_on_c, 0, 85, 0
2, 151129, Note_on_c, 0, 49, 0
2, 151129, Note_on_c, 0, 83, 0
2, 151129, Note_on_c, 0, 57, 0
2, 151129, Note_on_c, 0, 88, 0
2, 151129, Note_on_c, 0, 81, 0
2, 151131, Control_c, 0, 64, 0
2, 151134, Note_on_c, 0, 45, 0
2, 151134, Note_on_c, 0, 69, 0
2, 151134, Note_on_c, 0, 95, 0
2, 151142, Note_on_c, 0, 54, 0
2, 151185, Note_on_c, 0, 50, 98
2, 151185, Note_on_c, 0, 97, 110
2, 151192, Note_on_c, 0, 93, 93
2, 151192, Note_on_c, 0, 90, 97
2, 151192, Note_on_c, 0, 38, 88
2, 151203, Control_c, 0, 64, 127
2, 151326, Note_on_c, 0, 93, 0
2, 151326, Note_on_c, 0, 97, 0
2, 151334, Note_on_c, 0, 90, 0
2, 151335, Note_on_c, 0, 97, 83
2, 151337, Note_on_c, 0, 93, 85
2, 151337, Note_on_c, 0, 85, 92
2, 151338, Control_c, 0, 64, 0
2, 151345, Note_on_c, 0, 90, 76
2, 151457, Note_on_c, 0, 97, 0
2, 151461, Note_on_c, 0, 62, 79
2, 151464, Note_on_c, 0, 85, 0
2, 151465, Note_on_c, 0, 54, 80
2, 151468, Note_on_c, 0, 97, 96
2, 151471, Note_on_c, 0, 85, 92
2, 151500, Note_on_c, 0, 50, 0
2, 151501, Note_on_c, 0, 54, 0
2, 151503, Note_on_c, 0, 38, 0
2, 151518, Note_on_c, 0, 62, 0
2, 151534, Note_on_c, 0, 90, 0
2, 151541, Note_on_c, 0, 85, 0
2, 151541, Note_on_c, 0, 93, 0
2, 151580, Note_on_c, 0, 97, 0
2, 151612, Note_on_c, 0, 95, 107
2, 151614, Note_on_c, 0, 83, 105
2, 151620, Note_on_c, 0, 40, 94
2, 151620, Note_on_c, 0, 52, 98
2, 151620, Note_on_c, 0, 88, 93
2, 151622, Note_on_c, 0, 92, 90
2, 151641, Control_c, 0, 64, 127
2, 151902, Note_on_c, 0, 52, 0
2, 151907, Note_on_c, 0, 93, 106
2, 151911, Note_on_c, 0, 81, 94
2, 151914, Note_on_c, 0, 52, 79
2, 152025, Note_on_c, 0, 56, 81
2, 152040, Note_on_c, 0, 92, 0
2, 152046, Note_on_c, 0, 92, 98
2, 152053, Note_on_c, 0, 80, 93
2, 152157, Note_on_c, 0, 95, 0
2, 152157, Note_on_c, 0, 52, 0
2, 152157, Note_on_c, 0, 83, 0
2, 152157, Note_on_c, 0, 93, 0
2, 152158, Note_on_c, 0, 81, 0
2, 152158, Note_on_c, 0, 40, 0
2, 152158, Control_c, 0, 64, 0
2, 152158, Note_on_c, 0, 80, 0
2, 152158, Note_on_c, 0, 88, 0
2, 152159, Note_on_c, 0, 56, 0
2, 152171, Note_on_c, 0, 92, 0
2, 152199, Note_on_c, 0, 81, 87
2, 152202, Note_on_c, 0, 90, 102
2, 152202, Note_on_c, 0, 78, 103
2, 152204, Note_on_c, 0, 30, 97
2, 152204, Note_on_c, 0, 42, 98
2, 152205, Note_on_c, 0, 85, 90
2, 152223, Note_on_c, 0, 82, 55
2, 152225, Control_c, 0, 64, 127
2, 152494, Note_on_c, 0, 42, 0
2, 152500, Note_on_c, 0, 42, 76
2, 152501, Note_on_c, 0, 54, 74
2, 152505, Note_on_c, 0, 66, 72
2, 152636, Note_on_c, 0, 40, 78
2, 152644, Note_on_c, 0, 52, 74
2, 152695, Note_on_c, 0, 64, 76
2, 152778, Note_on_c, 0, 42, 0
2, 152778, Note_on_c, 0, 54, 0
2, 152782, Note_on_c, 0, 42, 82
2, 152783, Note_on_c, 0, 54, 85
2, 152824, Note_on_c, 0, 66, 0
2, 152830, Note_on_c, 0, 66, 77
2, 152847, Note_on_c, 0, 30, 0
2, 152851, Note_on_c, 0, 42, 0
2, 152851, Note_on_c, 0, 85, 0
2, 152852, Note_on_c, 0, 78, 0
2, 152852, Note_on_c, 0, 90, 0
2, 152852, Note_on_c, 0, 40, 0
2, 152852, Note_on_c, 0, 52, 0
2, 152853, Note_on_c, 0, 81, 0
2, 152853, Note_on_c, 0, 54, 0
2, 152854, Note_on_c, 0, 64, 0
2, 152855, Note_on_c, 0, 82, 0
2, 152857, Control_c, 0, 64, 0
2, 152885, Note_on_c, 0, 66, 0
2, 152917, Note_on_c, 0, 69, 89
2, 152918, Note_on_c, 0, 57, 87
2, 152919, Note_on_c, 0, 45, 85
2, 152939, Control_c, 0, 64, 127
2, 152970, Note_on_c, 0, 57, 0
2, 152970, Note_on_c, 0, 69, 0
2, 152975, Note_on_c, 0, 69, 88
2, 152975, Note_on_c, 0, 57, 77
2, 153053, Note_on_c, 0, 42, 78
2, 153054, Note_on_c, 0, 66, 72
2, 153108, Note_on_c, 0, 66, 0
2, 153119, Note_on_c, 0, 66, 78
2, 153192, Note_on_c, 0, 40, 79
2, 153202, Note_on_c, 0, 52, 77
2, 153242, Note_on_c, 0, 64, 83
2, 153331, Note_on_c, 0, 42, 0
2, 153338, Note_on_c, 0, 66, 0
2, 153342, Note_on_c, 0, 42, 79
2, 153349, Note_on_c, 0, 66, 87
2, 153439, Note_on_c, 0, 45, 0
2, 153440, Note_on_c, 0, 66, 0
2, 153440, Note_on_c, 0, 57, 0
2, 153440, Note_on_c, 0, 69, 0
2, 153440, Note_on_c, 0, 64, 0
2, 153441, Note_on_c, 0, 52, 0
2, 153441, Note_on_c, 0, 40, 0
2, 153443, Control_c, 0, 64, 0
2, 153469, Note_on_c, 0, 42, 0
2, 153486, Note_on_c, 0, 81, 106
2, 153488, Note_on_c, 0, 38, 84
2, 153489, Note_on_c, 0, 74, 91
2, 153489, Note_on_c, 0, 69, 96
2, 153494, Note_on_c, 0, 78, 90
2, 153515, Control_c, 0, 64, 127
2, 153636, Note_on_c, 0, 80, 87
2, 153640, Note_on_c, 0, 68, 86
2, 153668, Note_on_c, 0, 45, 57
2, 153768, Note_on_c, 0, 69, 0
2, 153768, Note_on_c, 0, 81, 0
2, 153773, Note_on_c, 0, 54, 80
2, 153777, Note_on_c, 0, 81, 96
2, 153779, Note_on_c, 0, 69, 80
2, 153922, Note_on_c, 0, 45, 0
2, 153925, Note_on_c, 0, 83, 108
2, 153926, Note_on_c, 0, 45, 77
2, 153928, Note_on_c, 0, 71, 99
2, 153930, Note_on_c, 0, 80, 0
2, 153930, Note_on_c, 0, 81, 0
2, 153933, Note_on_c, 0, 76, 93
2, 153936, Note_on_c, 0, 81, 84
2, 153936, Note_on_c, 0, 80, 85
2, 153994, Note_on_c, 0, 78, 0
2, 153995, Note_on_c, 0, 38, 0
2, 153995, Note_on_c, 0, 68, 0
2, 153995, Note_on_c, 0, 74, 0
2, 153995, Note_on_c, 0, 54, 0
2, 153996, Note_on_c, 0, 69, 0
2, 154001, Note_on_c, 0, 45, 0
2, 154002, Control_c, 0, 64, 0
2, 154068, Control_c, 0, 64, 127
2, 154069, Note_on_c, 0, 40, 87
2, 154214, Note_on_c, 0, 76, 0
2, 154221, Note_on_c, 0, 76, 100
2, 154226, Note_on_c, 0, 47, 69
2, 154227, Note_on_c, 0, 64, 89
2, 154364, Note_on_c, 0, 56, 89
2, 154365, Note_on_c, 0, 52, 81
2, 154375, Note_on_c, 0, 81, 0
2, 154490, Note_on_c, 0, 83, 0
2, 154498, Note_on_c, 0, 47, 0
2, 154498, Note_on_c, 0, 71, 0
2, 154498, Note_on_c, 0, 76, 0
2, 154498, Control_c, 0, 64, 0
2, 154502, Note_on_c, 0, 83, 106
2, 154505, Note_on_c, 0, 47, 77
2, 154505, Note_on_c, 0, 71, 100
2, 154505, Note_on_c, 0, 76, 94
2, 154509, Note_on_c, 0, 73, 100
2, 154586, Note_on_c, 0, 56, 0
2, 154587, Note_on_c, 0, 47, 0
2, 154588, Note_on_c, 0, 40, 0
2, 154588, Note_on_c, 0, 52, 0
2, 154590, Note_on_c, 0, 64, 0
2, 154590, Control_c, 0, 64, 127
2, 154598, Note_on_c, 0, 80, 0
2, 154645, Note_on_c, 0, 42, 89
2, 154800, Note_on_c, 0, 81, 94
2, 154802, Note_on_c, 0, 69, 87
2, 154803, Note_on_c, 0, 49, 67
2, 154940, Note_on_c, 0, 57, 79
2, 154945, Note_on_c, 0, 80, 90
2, 154947, Note_on_c, 0, 52, 76
2, 154948, Note_on_c, 0, 45, 73
2, 154949, Note_on_c, 0, 68, 77
2, 155082, Note_on_c, 0, 81, 0
2, 155089, Note_on_c, 0, 69, 0
2, 155089, Note_on_c, 0, 73, 0
2, 155093, Note_on_c, 0, 81, 102
2, 155097, Note_on_c, 0, 49, 0
2, 155097, Note_on_c, 0, 76, 0
2, 155098, Note_on_c, 0, 69, 90
2, 155101, Note_on_c, 0, 73, 93
2, 155101, Note_on_c, 0, 49, 75
2, 155101, Note_on_c, 0, 76, 89
2, 155136, Note_on_c, 0, 83, 0
2, 155140, Note_on_c, 0, 57, 0
2, 155143, Note_on_c, 0, 45, 0
2, 155146, Note_on_c, 0, 80, 0
2, 155146, Note_on_c, 0, 68, 0
2, 155147, Note_on_c, 0, 42, 0
2, 155148, Note_on_c, 0, 52, 0
2, 155151, Note_on_c, 0, 71, 0
2, 155166, Control_c, 0, 64, 0
2, 155220, Note_on_c, 0, 49, 0
2, 155228, Note_on_c, 0, 69, 0
2, 155234, Note_on_c, 0, 42, 81
2, 155235, Control_c, 0, 64, 127
2, 155239, Note_on_c, 0, 69, 73
2, 155378, Note_on_c, 0, 49, 71
2, 155531, Note_on_c, 0, 57, 84
2, 155532, Note_on_c, 0, 52, 79
2, 155662, Note_on_c, 0, 78, 88
2, 155665, Note_on_c, 0, 49, 0
2, 155665, Note_on_c, 0, 76, 0
2, 155671, Note_on_c, 0, 49, 80
2, 155673, Note_on_c, 0, 76, 60
2, 155721, Note_on_c, 0, 80, 86
2, 155786, Control_c, 0, 64, 0
2, 155789, Note_on_c, 0, 80, 0
2, 155790, Note_on_c, 0, 49, 0
2, 155790, Note_on_c, 0, 52, 0
2, 155790, Note_on_c, 0, 42, 0
2, 155791, Note_on_c, 0, 57, 0
2, 155791, Note_on_c, 0, 76, 0
2, 155796, Note_on_c, 0, 81, 0
2, 155804, Note_on_c, 0, 69, 0
2, 155804, Note_on_c, 0, 73, 0
2, 155804, Note_on_c, 0, 78, 0
2, 155807, Note_on_c, 0, 81, 104
2, 155809, Note_on_c, 0, 69, 100
2, 155810, Note_on_c, 0, 38, 89
2, 155812, Note_on_c, 0, 74, 98
2, 155815, Note_on_c, 0, 78, 94
2, 155857, Control_c, 0, 64, 127
2, 155958, Note_on_c, 0, 80, 90
2, 155961, Note_on_c, 0, 45, 64
2, 155971, Note_on_c, 0, 68, 81
2, 156096, Note_on_c, 0, 69, 0
2, 156096, Note_on_c, 0, 81, 0
2, 156096, Note_on_c, 0, 54, 84
2, 156102, Note_on_c, 0, 81, 99
2, 156106, Note_on_c, 0, 69, 91
2, 156257, Note_on_c, 0, 80, 0
2, 156257, Note_on_c, 0, 83, 108
2, 156262, Note_on_c, 0, 71, 100
2, 156262, Note_on_c, 0, 80, 92
2, 156269, Note_on_c, 0, 76, 91
2, 156338, Note_on_c, 0, 68, 0
2, 156338, Note_on_c, 0, 81, 0
2, 156338, Note_on_c, 0, 69, 0
2, 156338, Note_on_c, 0, 78, 0
2, 156339, Note_on_c, 0, 38, 0
2, 156340, Note_on_c, 0, 74, 0
2, 156341, Note_on_c, 0, 54, 0
2, 156341, Note_on_c, 0, 45, 0
2, 156344, Control_c, 0, 64, 0
2, 156391, Note_on_c, 0, 40, 94
2, 156403, Control_c, 0, 64, 127
2, 156520, Note_on_c, 0, 47, 76
2, 156555, Note_on_c, 0, 88, 101
2, 156556, Note_on_c, 0, 76, 0
2, 156556, Note_on_c, 0, 80, 0
2, 156561, Note_on_c, 0, 80, 72
2, 156562, Note_on_c, 0, 76, 89
2, 156677, Note_on_c, 0, 56, 82
2, 156683, Note_on_c, 0, 52, 78
2, 156687, Note_on_c, 0, 74, 97
2, 156692, Note_on_c, 0, 86, 93
2, 156760, Note_on_c, 0, 88, 0
2, 156760, Note_on_c, 0, 76, 0
2, 156760, Note_on_c, 0, 74, 0
2, 156760, Control_c, 0, 64, 0
2, 156761, Note_on_c, 0, 47, 0
2, 156761, Note_on_c, 0, 80, 0
2, 156761, Note_on_c, 0, 56, 0
2, 156762, Note_on_c, 0, 86, 0
2, 156762, Note_on_c, 0, 40, 0
2, 156762, Note_on_c, 0, 52, 0
2, 156771, Note_on_c, 0, 71, 0
2, 156779, Note_on_c, 0, 83, 0
2, 156836, Note_on_c, 0, 85, 105
2, 156837, Note_on_c, 0, 42, 88
2, 156838, Note_on_c, 0, 30, 86
2, 156838, Note_on_c, 0, 81, 83
2, 156838, Note_on_c, 0, 78, 94
2, 156839, Note_on_c, 0, 73, 103
2, 156848, Note_on_c, 0, 30, 0
2, 156910, Control_c, 0, 64, 127
2, 157126, Note_on_c, 0, 69, 86
2, 157132, Note_on_c, 0, 52, 66
2, 157137, Note_on_c, 0, 57, 76
2, 157144, Note_on_c, 0, 61, 70
2, 157263, Note_on_c, 0, 61, 0
2, 157268, Note_on_c, 0, 68, 86
2, 157273, Note_on_c, 0, 61, 56
2, 157273, Note_on_c, 0, 59, 78
2, 157409, Note_on_c, 0, 42, 0
2, 157415, Note_on_c, 0, 42, 71
2, 157547, Note_on_c, 0, 69, 0
2, 157552, Note_on_c, 0, 73, 0
2, 157553, Note_on_c, 0, 69, 91
2, 157555, Note_on_c, 0, 61, 0
2, 157563, Note_on_c, 0, 61, 75
2, 157701, Note_on_c, 0, 68, 0
2, 157708, Note_on_c, 0, 59, 0
2, 157712, Note_on_c, 0, 68, 80
2, 157714, Note_on_c, 0, 59, 74
2, 157839, Note_on_c, 0, 57, 0
2, 157847, Note_on_c, 0, 52, 0
2, 157850, Note_on_c, 0, 57, 84
2, 157850, Note_on_c, 0, 52, 62
2, 157977, Note_on_c, 0, 69, 0
2, 157985, Note_on_c, 0, 61, 0
2, 157987, Note_on_c, 0, 69, 81
2, 157991, Note_on_c, 0, 61, 74
2, 158111, Note_on_c, 0, 52, 0
2, 158111, Note_on_c, 0, 68, 0
2, 158112, Note_on_c, 0, 61, 0
2, 158112, Note_on_c, 0, 69, 0
2, 158112, Note_on_c, 0, 42, 0
2, 158112, Note_on_c, 0, 59, 0
2, 158112, Note_on_c, 0, 81, 0
2, 158114, Control_c, 0, 64, 0
2, 158123, Note_on_c, 0, 57, 0
2, 158131, Note_on_c, 0, 78, 0
2, 158131, Note_on_c, 0, 85, 0
2, 158135, Note_on_c, 0, 85, 104
2, 158142, Note_on_c, 0, 78, 82
2, 158142, Note_on_c, 0, 73, 99
2, 158143, Note_on_c, 0, 81, 78
2, 158144, Note_on_c, 0, 38, 85
2, 158184, Control_c, 0, 64, 127
2, 158269, Note_on_c, 0, 81, 0
2, 158274, Note_on_c, 0, 45, 63
2, 158277, Note_on_c, 0, 73, 0
2, 158277, Note_on_c, 0, 78, 0
2, 158279, Note_on_c, 0, 81, 85
2, 158281, Note_on_c, 0, 73, 90
2, 158283, Note_on_c, 0, 78, 89
2, 158407, Note_on_c, 0, 73, 0
2, 158407, Note_on_c, 0, 85, 0
2, 158415, Note_on_c, 0, 78, 0
2, 158416, Note_on_c, 0, 85, 101
2, 158418, Note_on_c, 0, 73, 95
2, 158419, Note_on_c, 0, 54, 80
2, 158419, Note_on_c, 0, 78, 78
2, 158421, Note_on_c, 0, 50, 70
2, 158559, Note_on_c, 0, 83, 107
2, 158565, Note_on_c, 0, 71, 98
2, 158566, Note_on_c, 0, 76, 98
2, 158570, Note_on_c, 0, 80, 93
2, 158623, Note_on_c, 0, 85, 0
2, 158624, Note_on_c, 0, 54, 0
2, 158624, Note_on_c, 0, 78, 0
2, 158624, Note_on_c, 0, 73, 0
2, 158625, Note_on_c, 0, 38, 0
2, 158625, Control_c, 0, 64, 0
2, 158625, Note_on_c, 0, 50, 0
2, 158638, Note_on_c, 0, 45, 0
2, 158638, Note_on_c, 0, 81, 0
2, 158697, Note_on_c, 0, 40, 91
2, 158699, Control_c, 0, 64, 127
2, 158850, Note_on_c, 0, 47, 76
2, 158850, Note_on_c, 0, 81, 104
2, 158853, Note_on_c, 0, 69, 92
2, 158997, Note_on_c, 0, 56, 90
2, 158999, Note_on_c, 0, 52, 87
2, 159137, Note_on_c, 0, 47, 0
2, 159137, Note_on_c, 0, 71, 0
2, 159137, Note_on_c, 0, 83, 0
2, 159141, Note_on_c, 0, 83, 106
2, 159147, Note_on_c, 0, 71, 100
2, 159147, Note_on_c, 0, 73, 103
2, 159148, Note_on_c, 0, 47, 77
2, 159148, Note_on_c, 0, 77, 91
2, 159221, Note_on_c, 0, 76, 0
2, 159221, Note_on_c, 0, 81, 0
2, 159221, Note_on_c, 0, 40, 0
2, 159221, Note_on_c, 0, 52, 0
2, 159222, Note_on_c, 0, 69, 0
2, 159222, Note_on_c, 0, 56, 0
2, 159222, Control_c, 0, 64, 0
2, 159222, Note_on_c, 0, 80, 0
2, 159274, Note_on_c, 0, 41, 80
2, 159283, Control_c, 0, 64, 127
2, 159401, Note_on_c, 0, 49, 78
2, 159429, Note_on_c, 0, 73, 0
2, 159431, Note_on_c, 0, 53, 62
2, 159436, Note_on_c, 0, 53, 0
2, 159439, Note_on_c, 0, 85, 98
2, 159440, Note_on_c, 0, 73, 88
2, 159567, Note_on_c, 0, 41, 0
2, 159572, Note_on_c, 0, 53, 83
2, 159575, Note_on_c, 0, 86, 101
2, 159576, Note_on_c, 0, 41, 80
2, 159577, Note_on_c, 0, 74, 98
2, 159705, Note_on_c, 0, 49, 0
2, 159705, Note_on_c, 0, 85, 0
2, 159713, Note_on_c, 0, 73, 0
2, 159715, Note_on_c, 0, 49, 86
2, 159716, Note_on_c, 0, 85, 107
2, 159717, Note_on_c, 0, 73, 105
2, 159718, Note_on_c, 0, 81, 90
2, 159723, Note_on_c, 0, 78, 88
2, 159805, Note_on_c, 0, 47, 0
2, 159810, Note_on_c, 0, 41, 0
2, 159810, Note_on_c, 0, 53, 0
2, 159810, Note_on_c, 0, 49, 0
2, 159811, Note_on_c, 0, 74, 0
2, 159811, Note_on_c, 0, 86, 0
2, 159813, Note_on_c, 0, 77, 0
2, 159816, Control_c, 0, 64, 0
2, 159820, Note_on_c, 0, 71, 0
2, 159820, Note_on_c, 0, 83, 0
2, 159869, Note_on_c, 0, 42, 90
2, 159897, Control_c, 0, 64, 127
2, 160004, Note_on_c, 0, 49, 74
2, 160163, Note_on_c, 0, 54, 79
2, 160165, Note_on_c, 0, 57, 84
2, 160289, Note_on_c, 0, 49, 0
2, 160299, Note_on_c, 0, 49, 83
2, 160418, Note_on_c, 0, 49, 0
2, 160419, Note_on_c, 0, 54, 0
2, 160419, Note_on_c, 0, 57, 0
2, 160420, Note_on_c, 0, 78, 0
2, 160422, Control_c, 0, 64, 0
2, 160427, Note_on_c, 0, 42, 0
2, 160442, Note_on_c, 0, 73, 0
2, 160450, Note_on_c, 0, 81, 0
2, 160450, Note_on_c, 0, 85, 0
2, 160454, Note_on_c, 0, 38, 86
2, 160457, Note_on_c, 0, 85, 107
2, 160461, Note_on_c, 0, 73, 106
2, 160461, Note_on_c, 0, 78, 94
2, 160462, Note_on_c, 0, 81, 93
2, 160481, Control_c, 0, 64, 127
2, 160588, Note_on_c, 0, 81, 0
2, 160596, Note_on_c, 0, 73, 0
2, 160596, Note_on_c, 0, 78, 0
2, 160596, Note_on_c, 0, 85, 0
2, 160598, Note_on_c, 0, 45, 62
2, 160599, Note_on_c, 0, 81, 84
2, 160601, Note_on_c, 0, 78, 80
2, 160601, Note_on_c, 0, 85, 84
2, 160601, Note_on_c, 0, 73, 83
2, 160727, Note_on_c, 0, 85, 0
2, 160734, Note_on_c, 0, 73, 0
2, 160737, Note_on_c, 0, 85, 99
2, 160738, Note_on_c, 0, 73, 94
2, 160740, Note_on_c, 0, 54, 87
2, 160740, Note_on_c, 0, 50, 76
2, 160750, Note_on_c, 0, 50, 0
2, 160872, Note_on_c, 0, 38, 0
2, 160875, Note_on_c, 0, 83, 109
2, 160879, Note_on_c, 0, 71, 101
2, 160881, Note_on_c, 0, 76, 103
2, 160882, Note_on_c, 0, 38, 82
2, 160885, Note_on_c, 0, 80, 94
2, 160967, Note_on_c, 0, 85, 0
2, 160967, Note_on_c, 0, 78, 0
2, 160969, Note_on_c, 0, 45, 0
2, 160969, Control_c, 0, 64, 0
2, 160969, Note_on_c, 0, 54, 0
2, 160970, Note_on_c, 0, 73, 0
2, 160988, Note_on_c, 0, 81, 0
2, 161018, Note_on_c, 0, 38, 0
2, 161029, Note_on_c, 0, 38, 76
2, 161030, Note_on_c, 0, 40, 77
2, 161049, Control_c, 0, 64, 127
2, 161162, Note_on_c, 0, 47, 71
2, 161167, Note_on_c, 0, 81, 101
2, 161176, Note_on_c, 0, 69, 86
2, 161303, Note_on_c, 0, 80, 0
2, 161309, Note_on_c, 0, 80, 100
2, 161313, Note_on_c, 0, 68, 101
2, 161314, Note_on_c, 0, 56, 83
2, 161315, Note_on_c, 0, 52, 80
2, 161454, Note_on_c, 0, 38, 0
2, 161454, Note_on_c, 0, 47, 0
2, 161454, Note_on_c, 0, 71, 0
2, 161455, Note_on_c, 0, 56, 0
2, 161456, Note_on_c, 0, 81, 0
2, 161456, Control_c, 0, 64, 0
2, 161457, Note_on_c, 0, 68, 0
2, 161457, Note_on_c, 0, 40, 0
2, 161458, Note_on_c, 0, 80, 0
2, 161459, Note_on_c, 0, 83, 0
2, 161464, Note_on_c, 0, 69, 0
2, 161465, Note_on_c, 0, 78, 105
2, 161469, Note_on_c, 0, 42, 90
2, 161470, Note_on_c, 0, 69, 87
2, 161472, Note_on_c, 0, 73, 88
2, 161473, Note_on_c, 0, 66, 98
2, 161479, Note_on_c, 0, 52, 0
2, 161479, Note_on_c, 0, 76, 0
2, 161633, Control_c, 0, 64, 127
2, 161787, Note_on_c, 0, 49, 65
2, 161921, Note_on_c, 0, 54, 67
2, 162053, Note_on_c, 0, 56, 61
2, 162191, Note_on_c, 0, 57, 73
2, 162324, Note_on_c, 0, 73, 0
2, 162331, Note_on_c, 0, 61, 80
2, 162335, Note_on_c, 0, 73, 66
2, 162470, Note_on_c, 0, 66, 0
2, 162479, Note_on_c, 0, 66, 74
2, 162614, Note_on_c, 0, 68, 78
2, 162764, Note_on_c, 0, 56, 0
2, 162764, Note_on_c, 0, 61, 0
2, 162764, Note_on_c, 0, 68, 0
2, 162764, Note_on_c, 0, 73, 0
2, 162765, Note_on_c, 0, 54, 0
2, 162765, Note_on_c, 0, 49, 0
2, 162765, Note_on_c, 0, 57, 0
2, 162773, Note_on_c, 0, 81, 95
2, 162774, Note_on_c, 0, 47, 69
2, 162777, Note_on_c, 0, 42, 0
2, 162777, Note_on_c, 0, 69, 0
2, 162777, Note_on_c, 0, 78, 0
2, 162780, Note_on_c, 0, 74, 79
2, 162781, Control_c, 0, 64, 0
2, 162782, Note_on_c, 0, 69, 74
2, 162785, Note_on_c, 0, 66, 0
2, 162788, Note_on_c, 0, 78, 79
2, 162908, Control_c, 0, 64, 127
2, 162938, Note_on_c, 0, 54, 66
2, 163080, Note_on_c, 0, 80, 85
2, 163102, Note_on_c, 0, 68, 70
2, 163111, Note_on_c, 0, 57, 58
2, 163115, Note_on_c, 0, 69, 0
2, 163123, Note_on_c, 0, 69, 57
2, 163242, Note_on_c, 0, 62, 58
2, 163368, Note_on_c, 0, 81, 0
2, 163375, Note_on_c, 0, 81, 90
2, 163376, Note_on_c, 0, 69, 0
2, 163382, Note_on_c, 0, 69, 78
2, 163514, Note_on_c, 0, 54, 0
2, 163518, Note_on_c, 0, 54, 66
2, 163660, Note_on_c, 0, 80, 0
2, 163668, Note_on_c, 0, 57, 0
2, 163668, Note_on_c, 0, 68, 0
2, 163669, Note_on_c, 0, 80, 85
2, 163677, Note_on_c, 0, 57, 62
2, 163678, Note_on_c, 0, 68, 77
2, 163806, Note_on_c, 0, 62, 0
2, 163814, Note_on_c, 0, 62, 68
2, 163960, Note_on_c, 0, 81, 0
2, 163968, Note_on_c, 0, 69, 0
2, 163971, Note_on_c, 0, 81, 86
2, 163972, Note_on_c, 0, 69, 77
2, 164106, Note_on_c, 0, 54, 0
2, 164117, Note_on_c, 0, 54, 58
2, 164259, Note_on_c, 0, 57, 0
2, 164267, Note_on_c, 0, 68, 0
2, 164267, Note_on_c, 0, 80, 0
2, 164269, Note_on_c, 0, 57, 61
2, 164271, Note_on_c, 0, 80, 83
2, 164278, Note_on_c, 0, 68, 75
2, 164398, Note_on_c, 0, 62, 0
2, 164403, Note_on_c, 0, 62, 62
2, 164570, Note_on_c, 0, 66, 71
2, 164705, Note_on_c, 0, 54, 0
2, 164711, Note_on_c, 0, 54, 68
2, 164851, Note_on_c, 0, 69, 0
2, 164855, Note_on_c, 0, 76, 86
2, 164858, Note_on_c, 0, 57, 0
2, 164861, Note_on_c, 0, 69, 66
2, 164862, Note_on_c, 0, 64, 69
2, 164863, Note_on_c, 0, 57, 63
2, 164981, Note_on_c, 0, 62, 0
2, 164991, Note_on_c, 0, 62, 60
2, 165150, Note_on_c, 0, 64, 0
2, 165150, Note_on_c, 0, 76, 0
2, 165154, Note_on_c, 0, 42, 86
2, 165155, Note_on_c, 0, 76, 89
2, 165157, Note_on_c, 0, 64, 81
2, 165207, Note_on_c, 0, 69, 0
2, 165208, Note_on_c, 0, 64, 0
2, 165208, Note_on_c, 0, 76, 0
2, 165208, Note_on_c, 0, 47, 0
2, 165208, Note_on_c, 0, 81, 0
2, 165208, Note_on_c, 0, 62, 0
2, 165208, Note_on_c, 0, 54, 0
2, 165208, Note_on_c, 0, 57, 0
2, 165208, Note_on_c, 0, 66, 0
2, 165209, Note_on_c, 0, 74, 0
2, 165209, Note_on_c, 0, 78, 0
2, 165209, Note_on_c, 0, 68, 0
2, 165209, Note_on_c, 0, 80, 0
2, 165209, Control_c, 0, 64, 0
2, 165292, Note_on_c, 0, 54, 76
2, 165296, Note_on_c, 0, 76, 87
2, 165300, Note_on_c, 0, 64, 72
2, 165336, Note_on_c, 0, 54, 0
2, 165339, Note_on_c, 0, 64, 0
2, 165341, Note_on_c, 0, 76, 0
2, 165341, Note_on_c, 0, 42, 0
2, 165439, Note_on_c, 0, 73, 89
2, 165442, Note_on_c, 0, 61, 79
2, 165472, Note_on_c, 0, 61, 0
2, 165474, Note_on_c, 0, 73, 0
2, 165585, Note_on_c, 0, 78, 91
2, 165587, Note_on_c, 0, 40, 76
2, 165591, Note_on_c, 0, 66, 76
2, 165696, Control_c, 0, 64, 127
2, 165730, Note_on_c, 0, 42, 85
2, 165732, Note_on_c, 0, 54, 87
2, 165844, Note_on_c, 0, 54, 0
2, 165845, Note_on_c, 0, 66, 0
2, 165846, Control_c, 0, 64, 0
2, 165847, Note_on_c, 0, 78, 0
2, 165857, Note_on_c, 0, 40, 0
2, 166018, Note_on_c, 0, 42, 0
2, 166028, Note_on_c, 0, 88, 102
2, 166029, Note_on_c, 0, 42, 84
2, 166030, Note_on_c, 0, 30, 90
2, 166030, Note_on_c, 0, 76, 92
2, 166066, Note_on_c, 0, 88, 0
2, 166068, Note_on_c, 0, 76, 0
2, 166164, Note_on_c, 0, 42, 0
2, 166169, Note_on_c, 0, 88, 101
2, 166171, Note_on_c, 0, 42, 77
2, 166175, Note_on_c, 0, 76, 90
2, 166206, Note_on_c, 0, 88, 0
2, 166207, Note_on_c, 0, 76, 0
2, 166248, Note_on_c, 0, 30, 0
2, 166264, Note_on_c, 0, 42, 0
2, 166309, Note_on_c, 0, 85, 97
2, 166312, Note_on_c, 0, 73, 83
2, 166345, Note_on_c, 0, 73, 0
2, 166394, Note_on_c, 0, 85, 0
2, 166447, Note_on_c, 0, 90, 108
2, 166450, Note_on_c, 0, 78, 99
2, 166450, Note_on_c, 0, 40, 62
2, 166450, Note_on_c, 0, 28, 68
2, 166586, Note_on_c, 0, 40, 0
2, 166588, Note_on_c, 0, 42, 89
2, 166589, Note_on_c, 0, 30, 84
2, 166640, Note_on_c, 0, 90, 0
2, 166656, Control_c, 0, 64, 127
2, 166831, Control_c, 0, 64, 0
2, 166832, Note_on_c, 0, 30, 0
2, 166832, Note_on_c, 0, 28, 0
2, 166833, Note_on_c, 0, 42, 0
2, 166855, Note_on_c, 0, 78, 0
2, 166878, Note_on_c, 0, 42, 66
2, 166884, Note_on_c, 0, 54, 53
2, 166894, Note_on_c, 0, 54, 0
2, 166932, Control_c, 0, 64, 127
2, 167026, Note_on_c, 0, 64, 76
2, 167028, Note_on_c, 0, 76, 83
2, 167034, Note_on_c, 0, 49, 69
2, 167166, Note_on_c, 0, 78, 93
2, 167171, Note_on_c, 0, 66, 79
2, 167180, Note_on_c, 0, 52, 68
2, 167299, Note_on_c, 0, 80, 91
2, 167304, Note_on_c, 0, 57, 64
2, 167421, Control_c, 0, 64, 0
2, 167423, Note_on_c, 0, 80, 0
2, 167423, Note_on_c, 0, 66, 0
2, 167426, Note_on_c, 0, 52, 0
2, 167426, Note_on_c, 0, 49, 0
2, 167426, Note_on_c, 0, 57, 0
2, 167439, Note_on_c, 0, 64, 0
2, 167446, Note_on_c, 0, 81, 98
2, 167447, Note_on_c, 0, 42, 0
2, 167447, Note_on_c, 0, 76, 0
2, 167447, Note_on_c, 0, 78, 0
2, 167452, Note_on_c, 0, 74, 75
2, 167453, Note_on_c, 0, 69, 75
2, 167455, Note_on_c, 0, 47, 73
2, 167456, Note_on_c, 0, 78, 81
2, 167516, Control_c, 0, 64, 127
2, 167605, Note_on_c, 0, 54, 63
2, 167754, Note_on_c, 0, 80, 86
2, 167765, Note_on_c, 0, 68, 75
2, 167765, Note_on_c, 0, 57, 63
2, 167908, Note_on_c, 0, 62, 68
2, 168038, Note_on_c, 0, 81, 0
2, 168044, Note_on_c, 0, 81, 89
2, 168046, Note_on_c, 0, 69, 0
2, 168050, Note_on_c, 0, 69, 76
2, 168184, Note_on_c, 0, 54, 0
2, 168191, Note_on_c, 0, 54, 70
2, 168314, Note_on_c, 0, 80, 0
2, 168324, Note_on_c, 0, 80, 85
2, 168330, Note_on_c, 0, 69, 0
2, 168335, Note_on_c, 0, 69, 66
2, 168337, Note_on_c, 0, 57, 0
2, 168337, Note_on_c, 0, 68, 0
2, 168342, Note_on_c, 0, 57, 64
2, 168345, Note_on_c, 0, 68, 62
2, 168460, Note_on_c, 0, 62, 0
2, 168468, Note_on_c, 0, 62, 59
2, 168612, Note_on_c, 0, 80, 0
2, 168612, Note_on_c, 0, 47, 0
2, 168612, Note_on_c, 0, 68, 0
2, 168612, Note_on_c, 0, 54, 0
2, 168613, Note_on_c, 0, 62, 0
2, 168613, Note_on_c, 0, 57, 0
2, 168614, Note_on_c, 0, 81, 0
2, 168615, Note_on_c, 0, 74, 0
2, 168616, Note_on_c, 0, 78, 0
2, 168617, Control_c, 0, 64, 0
2, 168622, Note_on_c, 0, 69, 0
2, 168623, Note_on_c, 0, 81, 91
2, 168628, Note_on_c, 0, 40, 70
2, 168628, Note_on_c, 0, 69, 76
2, 168706, Control_c, 0, 64, 127
2, 168769, Note_on_c, 0, 47, 69
2, 168917, Note_on_c, 0, 80, 84
2, 168928, Note_on_c, 0, 52, 66
2, 168933, Note_on_c, 0, 68, 68
2, 169056, Note_on_c, 0, 56, 74
2, 169190, Note_on_c, 0, 81, 0
2, 169198, Note_on_c, 0, 69, 0
2, 169199, Note_on_c, 0, 81, 92
2, 169203, Note_on_c, 0, 69, 83
2, 169205, Note_on_c, 0, 40, 0
2, 169216, Note_on_c, 0, 40, 53
2, 169328, Note_on_c, 0, 47, 0
2, 169333, Note_on_c, 0, 47, 75
2, 169482, Note_on_c, 0, 52, 0
2, 169486, Note_on_c, 0, 52, 74
2, 169493, Note_on_c, 0, 83, 102
2, 169497, Note_on_c, 0, 68, 0
2, 169500, Note_on_c, 0, 71, 93
2, 169501, Note_on_c, 0, 80, 0
2, 169506, Note_on_c, 0, 68, 69
2, 169612, Note_on_c, 0, 56, 0
2, 169624, Note_on_c, 0, 56, 75
2, 169785, Note_on_c, 0, 86, 101
2, 169789, Note_on_c, 0, 74, 94
2, 169792, Note_on_c, 0, 45, 77
2, 169792, Note_on_c, 0, 69, 0
2, 169792, Note_on_c, 0, 47, 0
2, 169792, Note_on_c, 0, 68, 0
2, 169792, Control_c, 0, 64, 0
2, 169792, Note_on_c, 0, 81, 0
2, 169793, Note_on_c, 0, 71, 0
2, 169793, Note_on_c, 0, 83, 0
2, 169793, Note_on_c, 0, 52, 0
2, 169793, Note_on_c, 0, 40, 0
2, 169794, Note_on_c, 0, 76, 88
2, 169812, Note_on_c, 0, 56, 0
2, 169873, Control_c, 0, 64, 127
2, 169940, Note_on_c, 0, 52, 67
2, 170079, Note_on_c, 0, 57, 64
2, 170210, Note_on_c, 0, 85, 89
2, 170214, Note_on_c, 0, 73, 81
2, 170230, Note_on_c, 0, 59, 73
2, 170350, Note_on_c, 0, 73, 0
2, 170350, Note_on_c, 0, 85, 0
2, 170356, Note_on_c, 0, 85, 90
2, 170359, Note_on_c, 0, 73, 81
2, 170362, Note_on_c, 0, 61, 73
2, 170509, Note_on_c, 0, 64, 67
2, 170651, Note_on_c, 0, 69, 71
2, 170780, Note_on_c, 0, 73, 0
2, 170785, Note_on_c, 0, 73, 81
2, 170880, Note_on_c, 0, 45, 0
2, 171081, Note_on_c, 0, 54, 70
2, 171189, Note_on_c, 0, 52, 0
2, 171190, Control_c, 0, 64, 0
2, 171190, Note_on_c, 0, 69, 0
2, 171190, Note_on_c, 0, 57, 0
2, 171190, Note_on_c, 0, 85, 0
2, 171190, Note_on_c, 0, 76, 0
2, 171190, Note_on_c, 0, 59, 0
2, 171190, Note_on_c, 0, 74, 0
2, 171190, Note_on_c, 0, 64, 0
2, 171190, Note_on_c, 0, 86, 0
2, 171217, Note_on_c, 0, 61, 0
2, 171221, Note_on_c, 0, 66, 94
2, 171224, Note_on_c, 0, 61, 80
2, 171227, Note_on_c, 0, 70, 77
2, 171229, Note_on_c, 0, 58, 81
2, 171279, Control_c, 0, 64, 127
2, 171379, Note_on_c, 0, 73, 0
2, 171389, Note_on_c, 0, 73, 71
2, 171532, Note_on_c, 0, 76, 65
2, 171665, Note_on_c, 0, 78, 69
2, 171806, Note_on_c, 0, 64, 92
2, 171814, Note_on_c, 0, 82, 75
2, 171962, Note_on_c, 0, 85, 65
2, 172090, Control_c, 0, 64, 0
2, 172093, Note_on_c, 0, 61, 0
2, 172093, Note_on_c, 0, 64, 0
2, 172093, Note_on_c, 0, 76, 0
2, 172100, Note_on_c, 0, 64, 86
2, 172100, Note_on_c, 0, 76, 77
2, 172101, Note_on_c, 0, 58, 0
2, 172102, Note_on_c, 0, 54, 0
2, 172102, Note_on_c, 0, 73, 0
2, 172102, Note_on_c, 0, 66, 0
2, 172103, Note_on_c, 0, 85, 0
2, 172103, Note_on_c, 0, 70, 0
2, 172104, Note_on_c, 0, 47, 76
2, 172104, Note_on_c, 0, 78, 0
2, 172104, Note_on_c, 0, 82, 0
2, 172208, Control_c, 0, 64, 127
2, 172259, Note_on_c, 0, 66, 65
2, 172401, Note_on_c, 0, 69, 64
2, 172404, Note_on_c, 0, 54, 62
2, 172538, Note_on_c, 0, 74, 66
2, 172695, Note_on_c, 0, 78, 71
2, 172696, Note_on_c, 0, 57, 65
2, 172842, Note_on_c, 0, 81, 62
2, 172976, Note_on_c, 0, 74, 0
2, 172979, Note_on_c, 0, 86, 77
2, 172980, Note_on_c, 0, 62, 84
2, 172986, Note_on_c, 0, 74, 80
2, 173122, Note_on_c, 0, 69, 0
2, 173128, Note_on_c, 0, 69, 91
2, 173240, Note_on_c, 0, 81, 0
2, 173241, Note_on_c, 0, 76, 0
2, 173241, Note_on_c, 0, 57, 0
2, 173241, Note_on_c, 0, 64, 0
2, 173241, Note_on_c, 0, 66, 0
2, 173241, Note_on_c, 0, 54, 0
2, 173241, Note_on_c, 0, 74, 0
2, 173241, Note_on_c, 0, 62, 0
2, 173241, Note_on_c, 0, 86, 0
2, 173241, Note_on_c, 0, 78, 0
2, 173244, Note_on_c, 0, 47, 0
2, 173247, Control_c, 0, 64, 0
2, 173269, Note_on_c, 0, 52, 83
2, 173337, Control_c, 0, 64, 127
2, 173409, Note_on_c, 0, 68, 66
2, 173555, Note_on_c, 0, 71, 75
2, 173558, Note_on_c, 0, 59, 72
2, 173696, Note_on_c, 0, 76, 69
2, 173836, Note_on_c, 0, 68, 0
2, 173846, Note_on_c, 0, 68, 94
2, 173848, Note_on_c, 0, 80, 81
2, 173849, Note_on_c, 0, 64, 83
2, 173996, Note_on_c, 0, 83, 77
2, 174132, Note_on_c, 0, 66, 87
2, 174138, Note_on_c, 0, 62, 83
2, 174141, Note_on_c, 0, 88, 76
2, 174274, Note_on_c, 0, 76, 0
2, 174278, Note_on_c, 0, 76, 68
2, 174417, Control_c, 0, 64, 0
2, 174418, Note_on_c, 0, 68, 0
2, 174418, Note_on_c, 0, 62, 0
2, 174418, Note_on_c, 0, 80, 0
2, 174419, Note_on_c, 0, 59, 0
2, 174419, Note_on_c, 0, 64, 0
2, 174419, Note_on_c, 0, 76, 0
2, 174420, Note_on_c, 0, 88, 0
2, 174420, Note_on_c, 0, 71, 0
2, 174420, Note_on_c, 0, 52, 0
2, 174420, Note_on_c, 0, 83, 0
2, 174420, Note_on_c, 0, 66, 0
2, 174426, Note_on_c, 0, 65, 95
2, 174428, Note_on_c, 0, 69, 0
2, 174438, Note_on_c, 0, 49, 72
2, 174520, Control_c, 0, 64, 127
2, 174587, Note_on_c, 0, 68, 70
2, 174725, Note_on_c, 0, 73, 74
2, 174733, Note_on_c, 0, 56, 62
2, 174866, Note_on_c, 0, 77, 68
2, 175019, Note_on_c, 0, 80, 76
2, 175020, Note_on_c, 0, 61, 75
2, 175149, Note_on_c, 0, 66, 85
2, 175169, Note_on_c, 0, 85, 71
2, 175296, Note_on_c, 0, 68, 0
2, 175299, Note_on_c, 0, 89, 80
2, 175300, Note_on_c, 0, 68, 93
2, 175453, Note_on_c, 0, 69, 92
2, 175547, Control_c, 0, 64, 0
2, 175549, Note_on_c, 0, 65, 0
2, 175549, Note_on_c, 0, 73, 0
2, 175549, Note_on_c, 0, 61, 0
2, 175549, Note_on_c, 0, 89, 0
2, 175550, Note_on_c, 0, 80, 0
2, 175550, Note_on_c, 0, 68, 0
2, 175550, Note_on_c, 0, 49, 0
2, 175550, Note_on_c, 0, 66, 0
2, 175550, Note_on_c, 0, 77, 0
2, 175551, Note_on_c, 0, 56, 0
2, 175557, Note_on_c, 0, 85, 0
2, 175588, Note_on_c, 0, 66, 66
2, 175590, Note_on_c, 0, 54, 76
2, 175641, Control_c, 0, 64, 127
2, 175745, Note_on_c, 0, 73, 69
2, 175875, Note_on_c, 0, 61, 69
2, 175886, Note_on_c, 0, 76, 72
2, 176019, Note_on_c, 0, 81, 73
2, 176156, Note_on_c, 0, 61, 0
2, 176167, Note_on_c, 0, 61, 94
2, 176167, Note_on_c, 0, 57, 87
2, 176173, Note_on_c, 0, 85, 83
2, 176322, Note_on_c, 0, 88, 73
2, 176448, Note_on_c, 0, 61, 0
2, 176451, Note_on_c, 0, 64, 95
2, 176459, Note_on_c, 0, 61, 87
2, 176465, Note_on_c, 0, 93, 82
2, 176570, Note_on_c, 0, 81, 0
2, 176575, Note_on_c, 0, 81, 75
2, 176728, Control_c, 0, 64, 0
2, 176728, Note_on_c, 0, 88, 0
2, 176728, Note_on_c, 0, 85, 0
2, 176728, Note_on_c, 0, 69, 0
2, 176728, Note_on_c, 0, 64, 0
2, 176728, Note_on_c, 0, 73, 0
2, 176729, Note_on_c, 0, 57, 0
2, 176729, Note_on_c, 0, 76, 0
2, 176729, Note_on_c, 0, 61, 0
2, 176729, Note_on_c, 0, 81, 0
2, 176730, Note_on_c, 0, 93, 0
2, 176731, Note_on_c, 0, 54, 0
2, 176747, Note_on_c, 0, 66, 0
2, 176751, Note_on_c, 0, 47, 84
2, 176752, Note_on_c, 0, 66, 93
2, 176754, Note_on_c, 0, 62, 82
2, 176855, Control_c, 0, 64, 127
2, 176897, Note_on_c, 0, 64, 84
2, 176947, Note_on_c, 0, 62, 0
2, 176963, Control_c, 0, 64, 0
2, 176970, Control_c, 0, 64, 127
2, 177028, Note_on_c, 0, 64, 0
2, 177031, Note_on_c, 0, 47, 0
2, 177031, Note_on_c, 0, 66, 0
2, 177031, Control_c, 0, 64, 0
2, 177038, Note_on_c, 0, 66, 94
2, 177044, Note_on_c, 0, 62, 85
2, 177044, Note_on_c, 0, 54, 78
2, 177044, Note_on_c, 0, 59, 80
2, 177154, Note_on_c, 0, 59, 0
2, 177188, Note_on_c, 0, 47, 81
2, 177208, Note_on_c, 0, 54, 0
2, 177220, Note_on_c, 0, 62, 0
2, 177330, Note_on_c, 0, 59, 80
2, 177333, Note_on_c, 0, 54, 79
2, 177341, Note_on_c, 0, 47, 0
2, 177360, Note_on_c, 0, 59, 0
2, 177361, Note_on_c, 0, 66, 0
2, 177400, Note_on_c, 0, 54, 0
2, 177471, Note_on_c, 0, 78, 97
2, 177472, Note_on_c, 0, 74, 88
2, 177615, Note_on_c, 0, 74, 0
2, 177617, Note_on_c, 0, 76, 89
2, 177619, Note_on_c, 0, 47, 54
2, 177623, Note_on_c, 0, 47, 0
2, 177633, Note_on_c, 0, 78, 0
2, 177764, Note_on_c, 0, 78, 99
2, 177765, Note_on_c, 0, 74, 88
2, 177767, Note_on_c, 0, 59, 86
2, 177772, Note_on_c, 0, 54, 82
2, 177804, Note_on_c, 0, 59, 0
2, 177868, Note_on_c, 0, 76, 0
2, 177908, Note_on_c, 0, 47, 79
2, 177960, Note_on_c, 0, 54, 0
2, 178053, Note_on_c, 0, 59, 83
2, 178053, Note_on_c, 0, 71, 76
2, 178055, Note_on_c, 0, 54, 82
2, 178148, Note_on_c, 0, 47, 0
2, 178152, Note_on_c, 0, 54, 0
2, 178164, Note_on_c, 0, 59, 0
2, 178342, Note_on_c, 0, 47, 85
2, 178452, Control_c, 0, 64, 127
2, 178492, Note_on_c, 0, 54, 79
2, 178621, Note_on_c, 0, 78, 0
2, 178629, Note_on_c, 0, 59, 81
2, 178631, Note_on_c, 0, 78, 94
2, 178751, Note_on_c, 0, 62, 77
2, 178770, Note_on_c, 0, 80, 94
2, 178890, Note_on_c, 0, 78, 0
2, 178900, Note_on_c, 0, 78, 86
2, 179032, Control_c, 0, 64, 0
2, 179033, Note_on_c, 0, 74, 0
2, 179033, Note_on_c, 0, 62, 0
2, 179033, Note_on_c, 0, 54, 0
2, 179033, Note_on_c, 0, 59, 0
2, 179033, Note_on_c, 0, 47, 0
2, 179034, Note_on_c, 0, 80, 0
2, 179043, Note_on_c, 0, 71, 0
2, 179059, Note_on_c, 0, 78, 0
2, 179060, Note_on_c, 0, 77, 99
2, 179064, Note_on_c, 0, 68, 82
2, 179064, Note_on_c, 0, 49, 74
2, 179066, Note_on_c, 0, 65, 80
2, 179067, Note_on_c, 0, 73, 79
2, 179159, Control_c, 0, 64, 127
2, 179215, Note_on_c, 0, 56, 64
2, 179342, Note_on_c, 0, 61, 70
2, 179473, Note_on_c, 0, 65, 0
2, 179481, Note_on_c, 0, 65, 60
2, 179642, Note_on_c, 0, 68, 0
2, 179645, Note_on_c, 0, 78, 94
2, 179649, Note_on_c, 0, 68, 76
2, 179681, Note_on_c, 0, 77, 0
2, 179685, Note_on_c, 0, 77, 56
2, 179811, Note_on_c, 0, 61, 0
2, 179821, Note_on_c, 0, 61, 64
2, 179950, Note_on_c, 0, 65, 0
2, 179954, Note_on_c, 0, 65, 65
2, 180088, Note_on_c, 0, 68, 0
2, 180097, Note_on_c, 0, 68, 73
2, 180198, Note_on_c, 0, 78, 0
2, 180199, Control_c, 0, 64, 0
2, 180234, Note_on_c, 0, 73, 0
2, 180235, Note_on_c, 0, 80, 89
2, 180239, Note_on_c, 0, 73, 73
2, 180280, Control_c, 0, 64, 127
2, 180403, Note_on_c, 0, 68, 0
2, 180407, Note_on_c, 0, 68, 70
2, 180510, Note_on_c, 0, 65, 0
2, 180518, Note_on_c, 0, 65, 64
2, 180648, Note_on_c, 0, 61, 0
2, 180659, Note_on_c, 0, 61, 56
2, 180794, Note_on_c, 0, 56, 0
2, 180805, Note_on_c, 0, 56, 57
2, 180935, Note_on_c, 0, 53, 68
2, 181102, Note_on_c, 0, 49, 0
2, 181112, Note_on_c, 0, 49, 55
2, 181248, Note_on_c, 0, 44, 53
2, 181414, Note_on_c, 0, 37, 54
2, 182400, Note_on_c, 0, 73, 0
2, 182400, Note_on_c, 0, 77, 0
2, 182400, Note_on_c, 0, 80, 0
2, 182714, Note_on_c, 0, 65, 0
2, 182722, Note_on_c, 0, 37, 0
2, 182722, Note_on_c, 0, 65, 41
2, 182726, Note_on_c, 0, 37, 54
2, 183344, Note_on_c, 0, 37, 0
2, 183349, Note_on_c, 0, 37, 87
2, 183521, Note_on_c, 0, 68, 0
2, 183526, Note_on_c, 0, 61, 0
2, 183526, Note_on_c, 0, 49, 0
2, 183527, Note_on_c, 0, 37, 0
2, 183528, Note_on_c, 0, 65, 0
2, 183529, Note_on_c, 0, 53, 0
2, 183530, Note_on_c, 0, 44, 0
2, 183532, Control_c, 0, 64, 0
2, 183544, Note_on_c, 0, 56, 0
2, 183983, Note_on_c, 0, 61, 95
2, 183987, Note_on_c, 0, 57, 88
2, 183993, Note_on_c, 0, 54, 80
2, 183993, Note_on_c, 0, 38, 65
2, 184000, Note_on_c, 0, 45, 61
2, 184005, Control_c, 0, 64, 127
2, 184043, Note_on_c, 0, 45, 0
2, 184051, Note_on_c, 0, 45, 23
2, 184070, Note_on_c, 0, 52, 12
2, 184189, Note_on_c, 0, 45, 0
2, 184199, Note_on_c, 0, 45, 56
2, 184273, Note_on_c, 0, 38, 0
2, 184281, Note_on_c, 0, 38, 55
2, 184343, Note_on_c, 0, 45, 0
2, 184353, Note_on_c, 0, 45, 39
2, 184358, Note_on_c, 0, 52, 0
2, 184363, Note_on_c, 0, 52, 35
2, 184435, Note_on_c, 0, 45, 0
2, 184443, Note_on_c, 0, 45, 38
2, 184512, Note_on_c, 0, 52, 0
2, 184516, Note_on_c, 0, 52, 45
2, 184565, Note_on_c, 0, 45, 0
2, 184576, Note_on_c, 0, 45, 52
2, 184650, Note_on_c, 0, 52, 0
2, 184656, Note_on_c, 0, 52, 55
2, 184734, Note_on_c, 0, 45, 0
2, 184742, Note_on_c, 0, 45, 45
2, 184803, Note_on_c, 0, 52, 0
2, 184811, Note_on_c, 0, 52, 52
2, 184865, Note_on_c, 0, 45, 0
2, 184866, Note_on_c, 0, 42, 42
2, 184869, Note_on_c, 0, 45, 54
2, 184872, Note_on_c, 0, 42, 0
2, 184919, Note_on_c, 0, 45, 0
2, 184926, Note_on_c, 0, 45, 50
2, 184957, Note_on_c, 0, 52, 0
2, 184961, Note_on_c, 0, 52, 42
2, 185026, Note_on_c, 0, 45, 0
2, 185031, Note_on_c, 0, 45, 54
2, 185080, Note_on_c, 0, 52, 0
2, 185091, Note_on_c, 0, 52, 55
2, 185120, Control_c, 0, 64, 0
2, 185121, Note_on_c, 0, 38, 0
2, 185123, Note_on_c, 0, 45, 0
2, 185124, Note_on_c, 0, 57, 0
2, 185128, Note_on_c, 0, 61, 0
2, 185134, Note_on_c, 0, 54, 0
2, 185154, Note_on_c, 0, 59, 89
2, 185165, Note_on_c, 0, 56, 82
2, 185167, Note_on_c, 0, 47, 73
2, 185167, Note_on_c, 0, 40, 74
2, 185195, Control_c, 0, 64, 127
2, 185241, Note_on_c, 0, 47, 0
2, 185241, Note_on_c, 0, 52, 0
2, 185247, Note_on_c, 0, 47, 65
2, 185249, Note_on_c, 0, 52, 55
2, 185318, Note_on_c, 0, 47, 0
2, 185323, Note_on_c, 0, 47, 64
2, 185379, Note_on_c, 0, 52, 0
2, 185390, Note_on_c, 0, 52, 58
2, 185441, Note_on_c, 0, 47, 0
2, 185451, Note_on_c, 0, 47, 60
2, 185533, Note_on_c, 0, 47, 0
2, 185541, Note_on_c, 0, 40, 0
2, 185542, Note_on_c, 0, 47, 56
2, 185547, Note_on_c, 0, 40, 51
2, 185610, Note_on_c, 0, 47, 0
2, 185614, Note_on_c, 0, 47, 59
2, 185679, Note_on_c, 0, 52, 0
2, 185684, Note_on_c, 0, 52, 52
2, 185748, Note_on_c, 0, 47, 0
2, 185753, Note_on_c, 0, 47, 65
2, 185758, Note_on_c, 0, 64, 86
2, 185817, Note_on_c, 0, 52, 0
2, 185827, Note_on_c, 0, 52, 64
2, 185886, Note_on_c, 0, 40, 0
2, 185894, Note_on_c, 0, 47, 0
2, 185896, Note_on_c, 0, 40, 59
2, 185898, Note_on_c, 0, 47, 55
2, 185963, Note_on_c, 0, 52, 0
2, 185973, Note_on_c, 0, 52, 60
2, 186040, Note_on_c, 0, 40, 0
2, 186040, Note_on_c, 0, 47, 0
2, 186044, Note_on_c, 0, 47, 58
2, 186045, Note_on_c, 0, 40, 64
2, 186109, Note_on_c, 0, 40, 0
2, 186109, Note_on_c, 0, 52, 0
2, 186116, Note_on_c, 0, 52, 69
2, 186119, Note_on_c, 0, 40, 60
2, 186170, Note_on_c, 0, 40, 0
2, 186176, Note_on_c, 0, 40, 73
2, 186178, Note_on_c, 0, 47, 0
2, 186182, Note_on_c, 0, 47, 67
2, 186263, Note_on_c, 0, 47, 0
2, 186274, Note_on_c, 0, 47, 61
2, 186289, Control_c, 0, 64, 0
2, 186289, Note_on_c, 0, 56, 0
2, 186290, Note_on_c, 0, 59, 0
2, 186290, Note_on_c, 0, 40, 0
2, 186291, Note_on_c, 0, 64, 0
2, 186309, Note_on_c, 0, 52, 0
2, 186316, Note_on_c, 0, 47, 0
2, 186334, Note_on_c, 0, 69, 100
2, 186337, Note_on_c, 0, 61, 87
2, 186342, Note_on_c, 0, 64, 71
2, 186343, Note_on_c, 0, 57, 87
2, 186345, Note_on_c, 0, 49, 74
2, 186348, Note_on_c, 0, 42, 74
2, 186378, Control_c, 0, 64, 127
2, 186421, Note_on_c, 0, 47, 40
2, 186478, Note_on_c, 0, 42, 0
2, 186478, Note_on_c, 0, 49, 0
2, 186484, Note_on_c, 0, 42, 70
2, 186487, Note_on_c, 0, 68, 88
2, 186489, Note_on_c, 0, 49, 67
2, 186576, Note_on_c, 0, 52, 58
2, 186616, Note_on_c, 0, 49, 0
2, 186616, Note_on_c, 0, 57, 0
2, 186616, Note_on_c, 0, 69, 0
2, 186622, Note_on_c, 0, 69, 86
2, 186622, Note_on_c, 0, 49, 64
2, 186625, Note_on_c, 0, 57, 69
2, 186693, Note_on_c, 0, 49, 0
2, 186702, Note_on_c, 0, 49, 55
2, 186769, Note_on_c, 0, 49, 0
2, 186780, Note_on_c, 0, 49, 68
2, 186780, Note_on_c, 0, 71, 93
2, 186854, Note_on_c, 0, 42, 0
2, 186858, Note_on_c, 0, 42, 61
2, 186915, Note_on_c, 0, 49, 0
2, 186919, Note_on_c, 0, 49, 67
2, 186938, Note_on_c, 0, 57, 0
2, 186949, Note_on_c, 0, 57, 55
2, 186984, Note_on_c, 0, 52, 0
2, 186996, Note_on_c, 0, 52, 66
2, 187061, Note_on_c, 0, 49, 0
2, 187061, Note_on_c, 0, 64, 0
2, 187065, Note_on_c, 0, 64, 89
2, 187066, Note_on_c, 0, 49, 61
2, 187138, Note_on_c, 0, 52, 0
2, 187149, Note_on_c, 0, 52, 67
2, 187207, Note_on_c, 0, 49, 0
2, 187217, Note_on_c, 0, 49, 71
2, 187276, Note_on_c, 0, 52, 0
2, 187281, Note_on_c, 0, 52, 71
2, 187338, Note_on_c, 0, 47, 0
2, 187355, Control_c, 0, 64, 0
2, 187356, Note_on_c, 0, 68, 0
2, 187356, Note_on_c, 0, 52, 0
2, 187357, Note_on_c, 0, 42, 0
2, 187357, Note_on_c, 0, 64, 0
2, 187357, Note_on_c, 0, 71, 0
2, 187358, Note_on_c, 0, 57, 0
2, 187361, Note_on_c, 0, 49, 0
2, 187361, Note_on_c, 0, 61, 0
2, 187361, Note_on_c, 0, 69, 0
2, 187364, Note_on_c, 0, 81, 101
2, 187368, Note_on_c, 0, 69, 88
2, 187369, Note_on_c, 0, 49, 76
2, 187371, Note_on_c, 0, 76, 91
2, 187372, Note_on_c, 0, 73, 90
2, 187415, Control_c, 0, 64, 127
2, 187434, Note_on_c, 0, 54, 64
2, 187443, Note_on_c, 0, 52, 72
2, 187499, Note_on_c, 0, 54, 0
2, 187507, Note_on_c, 0, 49, 0
2, 187518, Note_on_c, 0, 49, 74
2, 187584, Note_on_c, 0, 52, 0
2, 187591, Note_on_c, 0, 52, 76
2, 187660, Note_on_c, 0, 49, 0
2, 187670, Note_on_c, 0, 49, 70
2, 187670, Note_on_c, 0, 80, 87
2, 187679, Note_on_c, 0, 68, 80
2, 187722, Note_on_c, 0, 52, 0
2, 187726, Note_on_c, 0, 52, 69
2, 187799, Note_on_c, 0, 49, 0
2, 187799, Note_on_c, 0, 81, 0
2, 187801, Note_on_c, 0, 42, 73
2, 187806, Note_on_c, 0, 69, 0
2, 187809, Note_on_c, 0, 81, 99
2, 187810, Note_on_c, 0, 49, 71
2, 187813, Note_on_c, 0, 69, 83
2, 187875, Note_on_c, 0, 52, 0
2, 187880, Note_on_c, 0, 52, 74
2, 187952, Note_on_c, 0, 42, 0
2, 187952, Note_on_c, 0, 49, 0
2, 187956, Note_on_c, 0, 83, 105
2, 187957, Note_on_c, 0, 42, 80
2, 187961, Note_on_c, 0, 71, 96
2, 187963, Note_on_c, 0, 49, 79
2, 188029, Note_on_c, 0, 52, 0
2, 188038, Note_on_c, 0, 52, 79
2, 188090, Note_on_c, 0, 49, 0
2, 188094, Note_on_c, 0, 49, 74
2, 188160, Note_on_c, 0, 52, 0
2, 188170, Note_on_c, 0, 52, 76
2, 188236, Note_on_c, 0, 49, 0
2, 188240, Note_on_c, 0, 49, 79
2, 188244, Note_on_c, 0, 88, 100
2, 188244, Note_on_c, 0, 76, 0
2, 188248, Note_on_c, 0, 76, 93
2, 188290, Note_on_c, 0, 52, 0
2, 188297, Note_on_c, 0, 52, 65
2, 188359, Note_on_c, 0, 49, 0
2, 188368, Note_on_c, 0, 49, 79
2, 188385, Note_on_c, 0, 86, 101
2, 188386, Note_on_c, 0, 74, 99
2, 188413, Note_on_c, 0, 42, 0
2, 188413, Note_on_c, 0, 52, 0
2, 188422, Note_on_c, 0, 52, 70
2, 188423, Note_on_c, 0, 42, 64
2, 188517, Note_on_c, 0, 45, 71
2, 188520, Note_on_c, 0, 73, 0
2, 188520, Note_on_c, 0, 81, 0
2, 188527, Note_on_c, 0, 85, 107
2, 188527, Note_on_c, 0, 81, 93
2, 188529, Note_on_c, 0, 73, 105
2, 188531, Note_on_c, 0, 78, 91
2, 188550, Note_on_c, 0, 83, 0
2, 188551, Note_on_c, 0, 69, 0
2, 188552, Control_c, 0, 64, 0
2, 188552, Note_on_c, 0, 80, 0
2, 188553, Note_on_c, 0, 71, 0
2, 188553, Note_on_c, 0, 88, 0
2, 188553, Note_on_c, 0, 52, 0
2, 188554, Note_on_c, 0, 76, 0
2, 188554, Note_on_c, 0, 74, 0
2, 188554, Note_on_c, 0, 42, 0
2, 188554, Note_on_c, 0, 86, 0
2, 188559, Note_on_c, 0, 45, 0
2, 188559, Note_on_c, 0, 68, 0
2, 188567, Note_on_c, 0, 49, 0
2, 188611, Note_on_c, 0, 52, 64
2, 188659, Control_c, 0, 64, 127
2, 188670, Note_on_c, 0, 38, 85
2, 188673, Note_on_c, 0, 45, 70
2, 188712, Note_on_c, 0, 45, 0
2, 188718, Note_on_c, 0, 45, 44
2, 188774, Note_on_c, 0, 52, 0
2, 188782, Note_on_c, 0, 52, 66
2, 188812, Note_on_c, 0, 45, 0
2, 188822, Note_on_c, 0, 45, 61
2, 188935, Note_on_c, 0, 45, 0
2, 188943, Note_on_c, 0, 38, 0
2, 188945, Note_on_c, 0, 45, 63
2, 188952, Note_on_c, 0, 38, 60
2, 189004, Note_on_c, 0, 45, 0
2, 189013, Note_on_c, 0, 45, 69
2, 189027, Note_on_c, 0, 52, 0
2, 189032, Note_on_c, 0, 52, 45
2, 189096, Note_on_c, 0, 45, 0
2, 189102, Note_on_c, 0, 45, 62
2, 189166, Note_on_c, 0, 52, 0
2, 189171, Note_on_c, 0, 52, 69
2, 189239, Note_on_c, 0, 57, 83
2, 189273, Note_on_c, 0, 45, 0
2, 189283, Note_on_c, 0, 45, 70
2, 189373, Note_on_c, 0, 45, 0
2, 189377, Note_on_c, 0, 45, 63
2, 189381, Note_on_c, 0, 38, 0
2, 189385, Note_on_c, 0, 38, 67
2, 189450, Note_on_c, 0, 52, 0
2, 189454, Note_on_c, 0, 52, 69
2, 189519, Note_on_c, 0, 38, 0
2, 189519, Note_on_c, 0, 45, 0
2, 189526, Note_on_c, 0, 38, 66
2, 189530, Note_on_c, 0, 45, 61
2, 189580, Note_on_c, 0, 52, 0
2, 189589, Note_on_c, 0, 52, 70
2, 189642, Note_on_c, 0, 45, 0
2, 189653, Note_on_c, 0, 45, 59
2, 189726, Note_on_c, 0, 52, 0
2, 189737, Note_on_c, 0, 52, 54
2, 189765, Note_on_c, 0, 45, 0
2, 189772, Note_on_c, 0, 45, 49
2, 189785, Control_c, 0, 64, 0
2, 189787, Note_on_c, 0, 38, 0
2, 189788, Note_on_c, 0, 78, 0
2, 189789, Note_on_c, 0, 85, 0
2, 189789, Note_on_c, 0, 57, 0
2, 189795, Note_on_c, 0, 81, 0
2, 189803, Note_on_c, 0, 73, 0
2, 189815, Note_on_c, 0, 59, 80
2, 189815, Note_on_c, 0, 56, 80
2, 189818, Note_on_c, 0, 45, 0
2, 189819, Note_on_c, 0, 47, 72
2, 189819, Note_on_c, 0, 40, 69
2, 189895, Note_on_c, 0, 52, 0
2, 189902, Note_on_c, 0, 52, 51
2, 189941, Control_c, 0, 64, 127
2, 189957, Note_on_c, 0, 47, 0
2, 189963, Note_on_c, 0, 47, 70
2, 190087, Note_on_c, 0, 40, 0
2, 190087, Note_on_c, 0, 47, 0
2, 190098, Note_on_c, 0, 40, 66
2, 190098, Note_on_c, 0, 47, 67
2, 190172, Note_on_c, 0, 52, 0
2, 190176, Note_on_c, 0, 52, 61
2, 190233, Note_on_c, 0, 40, 0
2, 190233, Note_on_c, 0, 47, 0
2, 190238, Note_on_c, 0, 47, 64
2, 190241, Note_on_c, 0, 40, 64
2, 190295, Note_on_c, 0, 52, 0
2, 190306, Note_on_c, 0, 52, 62
2, 190364, Note_on_c, 0, 47, 0
2, 190375, Note_on_c, 0, 47, 69
2, 190375, Note_on_c, 0, 56, 0
2, 190375, Note_on_c, 0, 64, 86
2, 190376, Control_c, 0, 64, 0
2, 190440, Note_on_c, 0, 40, 0
2, 190440, Note_on_c, 0, 52, 0
2, 190448, Control_c, 0, 64, 127
2, 190450, Note_on_c, 0, 40, 60
2, 190451, Note_on_c, 0, 52, 64
2, 190517, Note_on_c, 0, 47, 0
2, 190525, Note_on_c, 0, 40, 0
2, 190528, Note_on_c, 0, 47, 60
2, 190531, Note_on_c, 0, 40, 65
2, 190556, Note_on_c, 0, 40, 0
2, 190562, Note_on_c, 0, 40, 48
2, 190594, Note_on_c, 0, 52, 0
2, 190605, Note_on_c, 0, 52, 51
2, 190648, Note_on_c, 0, 40, 0
2, 190648, Note_on_c, 0, 47, 0
2, 190653, Note_on_c, 0, 40, 65
2, 190659, Note_on_c, 0, 47, 61
2, 190717, Note_on_c, 0, 52, 0
2, 190727, Note_on_c, 0, 52, 54
2, 190786, Note_on_c, 0, 40, 0
2, 190786, Note_on_c, 0, 47, 0
2, 190796, Note_on_c, 0, 40, 70
2, 190797, Note_on_c, 0, 47, 74
2, 190878, Note_on_c, 0, 52, 0
2, 190888, Note_on_c, 0, 52, 59
2, 190910, Note_on_c, 0, 40, 0
2, 190911, Note_on_c, 0, 64, 0
2, 190911, Note_on_c, 0, 47, 0
2, 190916, Control_c, 0, 64, 0
2, 190940, Note_on_c, 0, 52, 0
2, 190940, Note_on_c, 0, 59, 0
2, 190949, Note_on_c, 0, 69, 93
2, 190950, Note_on_c, 0, 61, 86
2, 190954, Note_on_c, 0, 42, 72
2, 190957, Note_on_c, 0, 57, 84
2, 190958, Note_on_c, 0, 49, 75
2, 190986, Control_c, 0, 64, 127
2, 191034, Note_on_c, 0, 52, 68
2, 191093, Note_on_c, 0, 42, 0
2, 191093, Note_on_c, 0, 49, 0
2, 191097, Note_on_c, 0, 68, 84
2, 191100, Note_on_c, 0, 42, 67
2, 191102, Note_on_c, 0, 49, 64
2, 191185, Note_on_c, 0, 52, 0
2, 191190, Note_on_c, 0, 52, 66
2, 191232, Note_on_c, 0, 49, 0
2, 191232, Note_on_c, 0, 69, 0
2, 191237, Note_on_c, 0, 69, 75
2, 191240, Note_on_c, 0, 49, 62
2, 191316, Note_on_c, 0, 52, 0
2, 191325, Note_on_c, 0, 52, 72
2, 191388, Note_on_c, 0, 71, 91
2, 191416, Note_on_c, 0, 42, 0
2, 191427, Note_on_c, 0, 42, 65
2, 191432, Note_on_c, 0, 45, 60
2, 191439, Note_on_c, 0, 45, 0
2, 191516, Note_on_c, 0, 49, 0
2, 191521, Note_on_c, 0, 49, 58
2, 191539, Note_on_c, 0, 52, 0
2, 191550, Note_on_c, 0, 52, 67
2, 191616, Note_on_c, 0, 52, 0
2, 191624, Note_on_c, 0, 52, 47
2, 191669, Note_on_c, 0, 49, 0
2, 191677, Note_on_c, 0, 64, 92
2, 191678, Note_on_c, 0, 49, 69
2, 191742, Note_on_c, 0, 54, 55
2, 191746, Note_on_c, 0, 54, 0
2, 191808, Note_on_c, 0, 42, 0
2, 191815, Note_on_c, 0, 49, 0
2, 191816, Note_on_c, 0, 42, 82
2, 191819, Note_on_c, 0, 49, 64
2, 191884, Note_on_c, 0, 52, 0
2, 191894, Note_on_c, 0, 52, 73
2, 191961, Note_on_c, 0, 49, 0
2, 191961, Note_on_c, 0, 69, 0
2, 191964, Note_on_c, 0, 71, 0
2, 191965, Note_on_c, 0, 64, 0
2, 191965, Control_c, 0, 64, 0
2, 191965, Note_on_c, 0, 52, 0
2, 191965, Note_on_c, 0, 57, 0
2, 191966, Note_on_c, 0, 81, 98
2, 191966, Note_on_c, 0, 61, 0
2, 191970, Note_on_c, 0, 49, 71
2, 191971, Note_on_c, 0, 69, 91
2, 191973, Note_on_c, 0, 76, 90
2, 191973, Note_on_c, 0, 73, 91
2, 191992, Note_on_c, 0, 68, 0
2, 192023, Control_c, 0, 64, 127
2, 192045, Note_on_c, 0, 52, 63
2, 192099, Note_on_c, 0, 49, 0
2, 192110, Note_on_c, 0, 49, 69
2, 192176, Note_on_c, 0, 52, 0
2, 192185, Note_on_c, 0, 52, 67
2, 192253, Note_on_c, 0, 49, 0
2, 192257, Note_on_c, 0, 49, 71
2, 192258, Note_on_c, 0, 80, 82
2, 192259, Note_on_c, 0, 68, 88
2, 192261, Note_on_c, 0, 76, 0
2, 192270, Note_on_c, 0, 76, 60
2, 192314, Note_on_c, 0, 52, 0
2, 192325, Note_on_c, 0, 52, 68
2, 192391, Note_on_c, 0, 42, 0
2, 192391, Note_on_c, 0, 69, 0
2, 192391, Note_on_c, 0, 81, 0
2, 192396, Note_on_c, 0, 81, 96
2, 192397, Note_on_c, 0, 69, 85
2, 192399, Note_on_c, 0, 42, 76
2, 192453, Note_on_c, 0, 52, 0
2, 192464, Note_on_c, 0, 52, 69
2, 192537, Note_on_c, 0, 42, 0
2, 192537, Note_on_c, 0, 49, 0
2, 192541, Note_on_c, 0, 42, 85
2, 192542, Note_on_c, 0, 49, 79
2, 192542, Note_on_c, 0, 83, 98
2, 192547, Note_on_c, 0, 71, 90
2, 192599, Note_on_c, 0, 52, 0
2, 192609, Note_on_c, 0, 52, 81
2, 192737, Note_on_c, 0, 52, 0
2, 192744, Note_on_c, 0, 52, 76
2, 192798, Note_on_c, 0, 49, 0
2, 192808, Note_on_c, 0, 49, 78
2, 192821, Note_on_c, 0, 76, 0
2, 192825, Note_on_c, 0, 88, 100
2, 192832, Note_on_c, 0, 76, 88
2, 192875, Note_on_c, 0, 52, 0
2, 192881, Note_on_c, 0, 52, 76
2, 192940, Note_on_c, 0, 56, 72
2, 192952, Note_on_c, 0, 56, 0
2, 192958, Note_on_c, 0, 86, 101
2, 192960, Note_on_c, 0, 74, 98
2, 193013, Note_on_c, 0, 52, 0
2, 193021, Note_on_c, 0, 52, 77
2, 193052, Note_on_c, 0, 42, 0
2, 193056, Note_on_c, 0, 42, 67
2, 193090, Note_on_c, 0, 73, 0
2, 193090, Note_on_c, 0, 81, 0
2, 193095, Note_on_c, 0, 85, 104
2, 193097, Note_on_c, 0, 81, 91
2, 193100, Note_on_c, 0, 73, 98
2, 193101, Note_on_c, 0, 78, 89
2, 193141, Note_on_c, 0, 88, 0
2, 193142, Note_on_c, 0, 42, 0
2, 193142, Note_on_c, 0, 52, 0
2, 193142, Note_on_c, 0, 49, 0
2, 193142, Note_on_c, 0, 76, 0
2, 193143, Note_on_c, 0, 83, 0
2, 193143, Note_on_c, 0, 71, 0
2, 193144, Note_on_c, 0, 80, 0
2, 193144, Note_on_c, 0, 74, 0
2, 193146, Note_on_c, 0, 86, 0
2, 193147, Control_c, 0, 64, 0
2, 193152, Note_on_c, 0, 68, 0
2, 193159, Note_on_c, 0, 69, 0
2, 193227, Note_on_c, 0, 38, 101
2, 193227, Note_on_c, 0, 50, 100
2, 193232, Note_on_c, 0, 45, 83
2, 193251, Control_c, 0, 64, 127
2, 193387, Note_on_c, 0, 54, 56
2, 193397, Note_on_c, 0, 80, 73
2, 193505, Note_on_c, 0, 54, 0
2, 193511, Note_on_c, 0, 54, 68
2, 193520, Note_on_c, 0, 81, 0
2, 193532, Note_on_c, 0, 81, 88
2, 193538, Note_on_c, 0, 93, 80
2, 193543, Note_on_c, 0, 93, 0
2, 193666, Note_on_c, 0, 54, 0
2, 193677, Note_on_c, 0, 54, 72
2, 193680, Note_on_c, 0, 57, 68
2, 193683, Note_on_c, 0, 83, 96
2, 193804, Note_on_c, 0, 54, 0
2, 193810, Note_on_c, 0, 54, 60
2, 193812, Note_on_c, 0, 69, 62
2, 193883, Note_on_c, 0, 64, 62
2, 193943, Note_on_c, 0, 54, 0
2, 193950, Note_on_c, 0, 57, 0
2, 193953, Note_on_c, 0, 54, 58
2, 193955, Note_on_c, 0, 57, 74
2, 193962, Note_on_c, 0, 76, 84
2, 194012, Note_on_c, 0, 64, 0
2, 194019, Note_on_c, 0, 64, 67
2, 194081, Note_on_c, 0, 54, 0
2, 194081, Note_on_c, 0, 57, 0
2, 194085, Note_on_c, 0, 54, 69
2, 194086, Note_on_c, 0, 57, 71
2, 194165, Note_on_c, 0, 64, 0
2, 194173, Note_on_c, 0, 64, 55
2, 194227, Note_on_c, 0, 54, 0
2, 194227, Note_on_c, 0, 57, 0
2, 194231, Note_on_c, 0, 54, 82
2, 194234, Note_on_c, 0, 83, 0
2, 194236, Note_on_c, 0, 57, 70
2, 194245, Note_on_c, 0, 83, 98
2, 194329, Note_on_c, 0, 50, 0
2, 194329, Note_on_c, 0, 45, 0
2, 194330, Note_on_c, 0, 57, 0
2, 194330, Control_c, 0, 64, 0
2, 194330, Note_on_c, 0, 78, 0
2, 194330, Note_on_c, 0, 80, 0
2, 194330, Note_on_c, 0, 76, 0
2, 194331, Note_on_c, 0, 85, 0
2, 194331, Note_on_c, 0, 64, 0
2, 194331, Note_on_c, 0, 38, 0
2, 194334, Note_on_c, 0, 69, 0
2, 194334, Note_on_c, 0, 73, 0
2, 194342, Note_on_c, 0, 54, 0
2, 194350, Note_on_c, 0, 81, 0
2, 194383, Note_on_c, 0, 47, 87
2, 194384, Note_on_c, 0, 52, 101
2, 194384, Note_on_c, 0, 40, 99
2, 194403, Control_c, 0, 64, 127
2, 194457, Note_on_c, 0, 83, 0
2, 194463, Note_on_c, 0, 83, 68
2, 194534, Note_on_c, 0, 52, 0
2, 194536, Note_on_c, 0, 81, 92
2, 194539, Note_on_c, 0, 52, 72
2, 194543, Note_on_c, 0, 56, 65
2, 194608, Note_on_c, 0, 64, 69
2, 194612, Note_on_c, 0, 76, 69
2, 194664, Note_on_c, 0, 56, 0
2, 194671, Note_on_c, 0, 56, 77
2, 194674, Note_on_c, 0, 80, 92
2, 194749, Note_on_c, 0, 64, 0
2, 194753, Note_on_c, 0, 64, 61
2, 194810, Note_on_c, 0, 56, 0
2, 194810, Note_on_c, 0, 81, 0
2, 194817, Note_on_c, 0, 81, 92
2, 194817, Note_on_c, 0, 56, 72
2, 194821, Note_on_c, 0, 59, 71
2, 194895, Note_on_c, 0, 64, 0
2, 194903, Note_on_c, 0, 64, 43
2, 194956, Note_on_c, 0, 56, 0
2, 194959, Note_on_c, 0, 68, 69
2, 194966, Note_on_c, 0, 56, 71
2, 195025, Note_on_c, 0, 64, 0
2, 195037, Note_on_c, 0, 64, 59
2, 195087, Note_on_c, 0, 59, 0
2, 195098, Note_on_c, 0, 59, 61
2, 195098, Note_on_c, 0, 47, 0
2, 195179, Note_on_c, 0, 59, 0
2, 195179, Note_on_c, 0, 64, 0
2, 195183, Note_on_c, 0, 59, 50
2, 195184, Note_on_c, 0, 64, 62
2, 195246, Note_on_c, 0, 71, 61
2, 195302, Note_on_c, 0, 64, 0
2, 195302, Note_on_c, 0, 76, 0
2, 195307, Note_on_c, 0, 64, 65
2, 195312, Note_on_c, 0, 76, 66
2, 195363, Note_on_c, 0, 56, 0
2, 195371, Note_on_c, 0, 56, 86
2, 195374, Note_on_c, 0, 78, 79
2, 195417, Note_on_c, 0, 80, 0
2, 195423, Note_on_c, 0, 80, 84
2, 195466, Control_c, 0, 64, 0
2, 195467, Note_on_c, 0, 71, 0
2, 195467, Note_on_c, 0, 64, 0
2, 195467, Note_on_c, 0, 80, 0
2, 195468, Note_on_c, 0, 83, 0
2, 195468, Note_on_c, 0, 56, 0
2, 195468, Note_on_c, 0, 76, 0
2, 195473, Note_on_c, 0, 78, 0
2, 195479, Note_on_c, 0, 52, 0
2, 195486, Note_on_c, 0, 40, 0
2, 195486, Note_on_c, 0, 59, 0
2, 195486, Note_on_c, 0, 68, 0
2, 195494, Note_on_c, 0, 81, 0
2, 195505, Note_on_c, 0, 81, 100
2, 195513, Note_on_c, 0, 73, 90
2, 195513, Note_on_c, 0, 76, 86
2, 195520, Note_on_c, 0, 42, 93
2, 195520, Note_on_c, 0, 54, 96
2, 195548, Control_c, 0, 64, 127
2, 195670, Note_on_c, 0, 80, 60
2, 195671, Note_on_c, 0, 73, 0
2, 195671, Note_on_c, 0, 57, 75
2, 195676, Note_on_c, 0, 73, 63
2, 195760, Note_on_c, 0, 64, 70
2, 195801, Note_on_c, 0, 57, 0
2, 195801, Note_on_c, 0, 81, 0
2, 195805, Note_on_c, 0, 81, 85
2, 195812, Note_on_c, 0, 57, 62
2, 195901, Note_on_c, 0, 76, 0
2, 195907, Note_on_c, 0, 76, 68
2, 195945, Note_on_c, 0, 83, 103
2, 195947, Note_on_c, 0, 57, 0
2, 195957, Note_on_c, 0, 57, 76
2, 195959, Note_on_c, 0, 61, 75
2, 196047, Note_on_c, 0, 64, 0
2, 196058, Note_on_c, 0, 64, 62
2, 196108, Note_on_c, 0, 57, 0
2, 196108, Note_on_c, 0, 61, 0
2, 196113, Note_on_c, 0, 57, 58
2, 196115, Note_on_c, 0, 61, 73
2, 196170, Note_on_c, 0, 64, 0
2, 196180, Note_on_c, 0, 64, 69
2, 196239, Note_on_c, 0, 57, 0
2, 196239, Note_on_c, 0, 61, 0
2, 196239, Note_on_c, 0, 81, 0
2, 196243, Note_on_c, 0, 61, 73
2, 196243, Note_on_c, 0, 81, 90
2, 196246, Note_on_c, 0, 57, 58
2, 196308, Note_on_c, 0, 64, 0
2, 196308, Note_on_c, 0, 76, 0
2, 196316, Note_on_c, 0, 76, 73
2, 196318, Note_on_c, 0, 64, 78
2, 196362, Note_on_c, 0, 61, 0
2, 196369, Note_on_c, 0, 57, 0
2, 196369, Note_on_c, 0, 83, 0
2, 196370, Note_on_c, 0, 61, 59
2, 196374, Note_on_c, 0, 57, 69
2, 196374, Note_on_c, 0, 83, 88
2, 196439, Note_on_c, 0, 64, 0
2, 196446, Note_on_c, 0, 64, 65
2, 196469, Note_on_c, 0, 61, 0
2, 196475, Note_on_c, 0, 61, 72
2, 196485, Note_on_c, 0, 57, 0
2, 196495, Note_on_c, 0, 57, 58
2, 196531, Note_on_c, 0, 73, 0
2, 196534, Note_on_c, 0, 85, 104
2, 196538, Note_on_c, 0, 76, 0
2, 196539, Note_on_c, 0, 73, 98
2, 196547, Note_on_c, 0, 76, 86
2, 196600, Note_on_c, 0, 76, 0
2, 196601, Note_on_c, 0, 61, 0
2, 196601, Note_on_c, 0, 73, 0
2, 196601, Note_on_c, 0, 57, 0
2, 196601, Note_on_c, 0, 80, 0
2, 196602, Note_on_c, 0, 54, 0
2, 196602, Note_on_c, 0, 81, 0
2, 196602, Note_on_c, 0, 83, 0
2, 196603, Note_on_c, 0, 85, 0
2, 196603, Control_c, 0, 64, 0
2, 196615, Note_on_c, 0, 42, 0
2, 196623, Note_on_c, 0, 64, 0
2, 196668, Note_on_c, 0, 54, 100
2, 196671, Note_on_c, 0, 42, 92
2, 196677, Control_c, 0, 64, 127
2, 196826, Note_on_c, 0, 61, 59
2, 196831, Note_on_c, 0, 57, 63
2, 196898, Note_on_c, 0, 64, 70
2, 196961, Note_on_c, 0, 61, 0
2, 196966, Note_on_c, 0, 61, 73
2, 197030, Note_on_c, 0, 64, 0
2, 197041, Note_on_c, 0, 64, 61
2, 197099, Note_on_c, 0, 57, 0
2, 197099, Note_on_c, 0, 61, 0
2, 197103, Note_on_c, 0, 61, 68
2, 197106, Note_on_c, 0, 57, 65
2, 197168, Note_on_c, 0, 64, 0
2, 197175, Note_on_c, 0, 64, 72
2, 197241, Note_on_c, 0, 40, 96
2, 197242, Note_on_c, 0, 52, 98
2, 197245, Note_on_c, 0, 57, 0
2, 197245, Note_on_c, 0, 61, 0
2, 197249, Note_on_c, 0, 61, 75
2, 197256, Note_on_c, 0, 57, 71
2, 197337, Note_on_c, 0, 64, 0
2, 197344, Note_on_c, 0, 64, 65
2, 197399, Note_on_c, 0, 57, 0
2, 197406, Note_on_c, 0, 61, 0
2, 197408, Note_on_c, 0, 57, 58
2, 197416, Note_on_c, 0, 61, 67
2, 197460, Note_on_c, 0, 64, 0
2, 197469, Note_on_c, 0, 64, 74
2, 197521, Note_on_c, 0, 61, 0
2, 197526, Note_on_c, 0, 61, 70
2, 197544, Note_on_c, 0, 54, 0
2, 197544, Note_on_c, 0, 57, 0
2, 197556, Note_on_c, 0, 57, 63
2, 197556, Note_on_c, 0, 54, 62
2, 197606, Note_on_c, 0, 64, 0
2, 197612, Note_on_c, 0, 64, 75
2, 197660, Note_on_c, 0, 57, 0
2, 197660, Note_on_c, 0, 61, 0
2, 197666, Note_on_c, 0, 57, 72
2, 197668, Note_on_c, 0, 61, 89
2, 197754, Note_on_c, 0, 40, 0
2, 197755, Note_on_c, 0, 54, 0
2, 197755, Note_on_c, 0, 52, 0
2, 197756, Note_on_c, 0, 57, 0
2, 197756, Note_on_c, 0, 42, 0
2, 197756, Note_on_c, 0, 64, 0
2, 197757, Note_on_c, 0, 61, 0
2, 197760, Control_c, 0, 64, 0
2, 197807, Note_on_c, 0, 38, 99
2, 197810, Note_on_c, 0, 50, 97
2, 197810, Note_on_c, 0, 81, 103
2, 197814, Note_on_c, 0, 45, 84
2, 197815, Note_on_c, 0, 74, 100
2, 197816, Note_on_c, 0, 69, 101
2, 197817, Note_on_c, 0, 78, 92
2, 197829, Control_c, 0, 64, 127
2, 197952, Note_on_c, 0, 54, 79
2, 197963, Note_on_c, 0, 80, 77
2, 197966, Note_on_c, 0, 68, 76
2, 198031, Note_on_c, 0, 64, 63
2, 198097, Note_on_c, 0, 69, 0
2, 198097, Note_on_c, 0, 81, 0
2, 198105, Note_on_c, 0, 54, 0
2, 198108, Note_on_c, 0, 81, 94
2, 198109, Note_on_c, 0, 69, 82
2, 198114, Note_on_c, 0, 54, 73
2, 198182, Note_on_c, 0, 64, 0
2, 198187, Note_on_c, 0, 64, 63
2, 198253, Note_on_c, 0, 83, 104
2, 198257, Note_on_c, 0, 71, 89
2, 198259, Note_on_c, 0, 54, 0
2, 198261, Note_on_c, 0, 57, 69
2, 198264, Note_on_c, 0, 54, 72
2, 198320, Note_on_c, 0, 64, 0
2, 198325, Note_on_c, 0, 64, 54
2, 198389, Note_on_c, 0, 54, 0
2, 198389, Note_on_c, 0, 57, 0
2, 198397, Note_on_c, 0, 54, 69
2, 198398, Note_on_c, 0, 57, 73
2, 198466, Note_on_c, 0, 64, 0
2, 198476, Note_on_c, 0, 64, 57
2, 198528, Note_on_c, 0, 54, 0
2, 198535, Note_on_c, 0, 57, 0
2, 198538, Note_on_c, 0, 54, 69
2, 198539, Note_on_c, 0, 57, 75
2, 198541, Note_on_c, 0, 76, 89
2, 198604, Note_on_c, 0, 64, 0
2, 198610, Note_on_c, 0, 64, 74
2, 198650, Note_on_c, 0, 54, 0
2, 198658, Note_on_c, 0, 57, 0
2, 198658, Note_on_c, 0, 69, 0
2, 198661, Note_on_c, 0, 54, 63
2, 198667, Note_on_c, 0, 69, 67
2, 198667, Note_on_c, 0, 57, 57
2, 198743, Note_on_c, 0, 64, 0
2, 198748, Note_on_c, 0, 64, 80
2, 198796, Note_on_c, 0, 54, 0
2, 198802, Note_on_c, 0, 54, 65
2, 198819, Note_on_c, 0, 71, 0
2, 198819, Note_on_c, 0, 83, 0
2, 198827, Note_on_c, 0, 83, 105
2, 198830, Note_on_c, 0, 71, 97
2, 198858, Note_on_c, 0, 80, 0
2, 198868, Note_on_c, 0, 80, 50
2, 198888, Note_on_c, 0, 45, 0
2, 198900, Control_c, 0, 64, 0
2, 198900, Note_on_c, 0, 69, 0
2, 198900, Note_on_c, 0, 68, 0
2, 198900, Note_on_c, 0, 57, 0
2, 198901, Note_on_c, 0, 38, 0
2, 198901, Note_on_c, 0, 64, 0
2, 198901, Note_on_c, 0, 76, 0
2, 198901, Note_on_c, 0, 81, 0
2, 198901, Note_on_c, 0, 74, 0
2, 198901, Note_on_c, 0, 50, 0
2, 198902, Note_on_c, 0, 78, 0
2, 198919, Note_on_c, 0, 54, 0
2, 198964, Note_on_c, 0, 52, 100
2, 198967, Note_on_c, 0, 40, 96
2, 198969, Note_on_c, 0, 47, 89
2, 198973, Control_c, 0, 64, 127
2, 199099, Note_on_c, 0, 56, 75
2, 199111, Note_on_c, 0, 52, 0
2, 199116, Note_on_c, 0, 52, 68
2, 199119, Note_on_c, 0, 81, 96
2, 199127, Note_on_c, 0, 69, 74
2, 199201, Note_on_c, 0, 76, 68
2, 199202, Note_on_c, 0, 64, 60
2, 199249, Note_on_c, 0, 80, 0
2, 199261, Note_on_c, 0, 57, 53
2, 199261, Note_on_c, 0, 59, 56
2, 199261, Note_on_c, 0, 80, 90
2, 199262, Note_on_c, 0, 68, 74
2, 199272, Note_on_c, 0, 69, 0
2, 199277, Note_on_c, 0, 69, 53
2, 199388, Note_on_c, 0, 81, 0
2, 199395, Note_on_c, 0, 56, 0
2, 199395, Note_on_c, 0, 59, 0
2, 199395, Note_on_c, 0, 64, 0
2, 199395, Note_on_c, 0, 69, 0
2, 199398, Note_on_c, 0, 81, 101
2, 199399, Note_on_c, 0, 69, 87
2, 199400, Note_on_c, 0, 56, 74
2, 199401, Note_on_c, 0, 64, 68
2, 199404, Note_on_c, 0, 59, 71
2, 199405, Note_on_c, 0, 54, 70
2, 199411, Note_on_c, 0, 54, 0
2, 199464, Note_on_c, 0, 64, 0
2, 199470, Note_on_c, 0, 64, 41
2, 199511, Note_on_c, 0, 56, 0
2, 199511, Note_on_c, 0, 59, 0
2, 199511, Note_on_c, 0, 69, 0
2, 199520, Note_on_c, 0, 56, 85
2, 199522, Note_on_c, 0, 69, 74
2, 199522, Note_on_c, 0, 59, 54
2, 199529, Note_on_c, 0, 54, 70
2, 199541, Note_on_c, 0, 47, 0
2, 199541, Note_on_c, 0, 68, 0
2, 199595, Note_on_c, 0, 64, 0
2, 199605, Note_on_c, 0, 64, 71
2, 199656, Note_on_c, 0, 71, 0
2, 199667, Note_on_c, 0, 71, 69
2, 199795, Note_on_c, 0, 57, 0
2, 199800, Control_c, 0, 64, 0
2, 199801, Note_on_c, 0, 81, 0
2, 199801, Note_on_c, 0, 80, 0
2, 199801, Note_on_c, 0, 69, 0
2, 199801, Note_on_c, 0, 76, 0
2, 199802, Note_on_c, 0, 54, 0
2, 199802, Note_on_c, 0, 83, 0
2, 199818, Note_on_c, 0, 40, 0
2, 199818, Note_on_c, 0, 52, 0
2, 199818, Note_on_c, 0, 56, 0
2, 199818, Note_on_c, 0, 59, 0
2, 199822, Note_on_c, 0, 52, 95
2, 199823, Note_on_c, 0, 40, 91
2, 199856, Control_c, 0, 64, 127
2, 199864, Note_on_c, 0, 64, 0
2, 200047, Control_c, 0, 64, 0
2, 200048, Note_on_c, 0, 71, 0
2, 200056, Note_on_c, 0, 52, 0
2, 200071, Note_on_c, 0, 40, 0
2, 200122, Note_on_c, 0, 74, 97
2, 200125, Control_c, 0, 64, 127
2, 200128, Note_on_c, 0, 47, 91
2, 200128, Note_on_c, 0, 62, 89
2, 200129, Note_on_c, 0, 71, 72
2, 200130, Note_on_c, 0, 35, 82
2, 200231, Note_on_c, 0, 74, 0
2, 200231, Note_on_c, 0, 35, 0
2, 200233, Control_c, 0, 64, 0
2, 200248, Note_on_c, 0, 62, 0
2, 200256, Note_on_c, 0, 47, 0
2, 200263, Note_on_c, 0, 71, 0
2, 200275, Note_on_c, 0, 73, 79
2, 200276, Note_on_c, 0, 54, 72
2, 200277, Note_on_c, 0, 59, 71
2, 200281, Note_on_c, 0, 61, 75
2, 200282, Note_on_c, 0, 50, 72
2, 200284, Note_on_c, 0, 71, 64
2, 200298, Note_on_c, 0, 73, 0
2, 200307, Note_on_c, 0, 61, 0
2, 200310, Note_on_c, 0, 59, 0
2, 200312, Note_on_c, 0, 50, 0
2, 200325, Note_on_c, 0, 54, 0
2, 200332, Note_on_c, 0, 71, 0
2, 200413, Note_on_c, 0, 74, 89
2, 200416, Note_on_c, 0, 62, 70
2, 200436, Note_on_c, 0, 74, 0
2, 200455, Note_on_c, 0, 62, 0
2, 200553, Note_on_c, 0, 76, 90
2, 200557, Note_on_c, 0, 64, 83
2, 200557, Note_on_c, 0, 47, 86
2, 200558, Note_on_c, 0, 35, 78
2, 200559, Note_on_c, 0, 71, 68
2, 200570, Control_c, 0, 64, 127
2, 200693, Note_on_c, 0, 71, 0
2, 200694, Note_on_c, 0, 78, 88
2, 200697, Note_on_c, 0, 66, 86
2, 200697, Note_on_c, 0, 59, 77
2, 200698, Note_on_c, 0, 54, 81
2, 200701, Note_on_c, 0, 71, 69
2, 200760, Control_c, 0, 64, 0
2, 200824, Note_on_c, 0, 64, 0
2, 200824, Note_on_c, 0, 76, 0
2, 200830, Note_on_c, 0, 76, 94
2, 200832, Note_on_c, 0, 54, 0
2, 200834, Note_on_c, 0, 64, 78
2, 200840, Note_on_c, 0, 54, 67
2, 200862, Note_on_c, 0, 66, 0
2, 200863, Note_on_c, 0, 59, 0
2, 200864, Note_on_c, 0, 47, 0
2, 200866, Note_on_c, 0, 78, 0
2, 200869, Note_on_c, 0, 76, 0
2, 200870, Note_on_c, 0, 71, 0
2, 200885, Note_on_c, 0, 35, 0
2, 200885, Note_on_c, 0, 54, 0
2, 200885, Note_on_c, 0, 64, 0
2, 200966, Note_on_c, 0, 78, 87
2, 200968, Note_on_c, 0, 66, 84
2, 200971, Note_on_c, 0, 49, 82
2, 200972, Note_on_c, 0, 37, 89
2, 200972, Note_on_c, 0, 73, 67
2, 200977, Note_on_c, 0, 73, 0
2, 201000, Control_c, 0, 64, 127
2, 201016, Note_on_c, 0, 66, 0
2, 201031, Note_on_c, 0, 49, 0
2, 201112, Note_on_c, 0, 80, 102
2, 201114, Note_on_c, 0, 68, 97
2, 201117, Note_on_c, 0, 73, 93
2, 201119, Note_on_c, 0, 77, 83
2, 201119, Note_on_c, 0, 61, 90
2, 201120, Note_on_c, 0, 49, 83
2, 201124, Note_on_c, 0, 56, 82
2, 201127, Note_on_c, 0, 53, 74
2, 201400, Note_on_c, 0, 49, 0
2, 201400, Note_on_c, 0, 61, 0
2, 201400, Note_on_c, 0, 73, 0
2, 201400, Note_on_c, 0, 77, 0
2, 201400, Note_on_c, 0, 81, 101
2, 201404, Note_on_c, 0, 69, 94
2, 201404, Note_on_c, 0, 73, 96
2, 201407, Note_on_c, 0, 77, 85
2, 201409, Note_on_c, 0, 61, 91
2, 201411, Note_on_c, 0, 49, 79
2, 201416, Note_on_c, 0, 76, 75
2, 201423, Note_on_c, 0, 76, 0
2, 201538, Note_on_c, 0, 56, 0
2, 201547, Note_on_c, 0, 56, 85
2, 201676, Note_on_c, 0, 53, 0
2, 201676, Note_on_c, 0, 73, 0
2, 201681, Note_on_c, 0, 83, 108
2, 201681, Note_on_c, 0, 53, 84
2, 201682, Note_on_c, 0, 73, 101
2, 201683, Note_on_c, 0, 71, 101
2, 201699, Note_on_c, 0, 80, 0
2, 201710, Note_on_c, 0, 80, 68
2, 201807, Note_on_c, 0, 49, 0
2, 201814, Note_on_c, 0, 49, 89
2, 201951, Note_on_c, 0, 44, 91
2, 201953, Note_on_c, 0, 49, 0
2, 201953, Note_on_c, 0, 73, 0
2, 201953, Note_on_c, 0, 77, 0
2, 201953, Note_on_c, 0, 80, 0
2, 201960, Note_on_c, 0, 85, 105
2, 201960, Note_on_c, 0, 49, 94
2, 201963, Note_on_c, 0, 73, 101
2, 201964, Note_on_c, 0, 80, 97
2, 201964, Note_on_c, 0, 77, 97
2, 202099, Note_on_c, 0, 37, 0
2, 202099, Note_on_c, 0, 49, 0
2, 202103, Note_on_c, 0, 37, 93
2, 202106, Note_on_c, 0, 49, 81
2, 202251, Note_on_c, 0, 90, 93
2, 202295, Note_on_c, 0, 92, 76
2, 202312, Note_on_c, 0, 81, 0
2, 202313, Note_on_c, 0, 44, 0
2, 202313, Note_on_c, 0, 56, 0
2, 202313, Note_on_c, 0, 80, 0
2, 202313, Note_on_c, 0, 49, 0
2, 202313, Note_on_c, 0, 68, 0
2, 202313, Note_on_c, 0, 69, 0
2, 202314, Note_on_c, 0, 77, 0
2, 202314, Note_on_c, 0, 61, 0
2, 202315, Note_on_c, 0, 83, 0
2, 202315, Note_on_c, 0, 78, 0
2, 202315, Note_on_c, 0, 73, 0
2, 202316, Note_on_c, 0, 71, 0
2, 202316, Control_c, 0, 64, 0
2, 202316, Note_on_c, 0, 85, 0
2, 202337, Note_on_c, 0, 37, 0
2, 202337, Note_on_c, 0, 53, 0
2, 202364, Note_on_c, 0, 50, 107
2, 202366, Note_on_c, 0, 81, 103
2, 202368, Note_on_c, 0, 90, 0
2, 202368, Note_on_c, 0, 93, 113
2, 202369, Note_on_c, 0, 38, 105
2, 202371, Note_on_c, 0, 86, 91
2, 202372, Note_on_c, 0, 90, 87
2, 202383, Control_c, 0, 64, 127
2, 202506, Note_on_c, 0, 92, 0
2, 202513, Note_on_c, 0, 92, 104
2, 202514, Note_on_c, 0, 80, 100
2, 202609, Control_c, 0, 64, 0
2, 202617, Note_on_c, 0, 90, 0
2, 202618, Note_on_c, 0, 80, 0
2, 202618, Note_on_c, 0, 38, 0
2, 202630, Note_on_c, 0, 50, 0
2, 202636, Note_on_c, 0, 86, 0
2, 202644, Note_on_c, 0, 81, 0
2, 202644, Note_on_c, 0, 93, 0
2, 202648, Note_on_c, 0, 62, 81
2, 202648, Note_on_c, 0, 54, 71
2, 202648, Note_on_c, 0, 93, 105
2, 202649, Note_on_c, 0, 81, 91
2, 202652, Note_on_c, 0, 62, 0
2, 202685, Note_on_c, 0, 81, 0
2, 202688, Note_on_c, 0, 54, 0
2, 202721, Note_on_c, 0, 92, 0
2, 202767, Note_on_c, 0, 93, 0
2, 202792, Note_on_c, 0, 95, 111
2, 202794, Note_on_c, 0, 83, 109
2, 202797, Note_on_c, 0, 52, 103
2, 202798, Note_on_c, 0, 40, 96
2, 202800, Note_on_c, 0, 92, 102
2, 202801, Note_on_c, 0, 88, 91
2, 202821, Control_c, 0, 64, 127
2, 203059, Note_on_c, 0, 88, 0
2, 203066, Note_on_c, 0, 88, 104
2, 203071, Note_on_c, 0, 76, 97
2, 203074, Note_on_c, 0, 40, 0
2, 203074, Note_on_c, 0, 52, 0
2, 203079, Note_on_c, 0, 52, 95
2, 203084, Note_on_c, 0, 40, 83
2, 203208, Note_on_c, 0, 64, 84
2, 203209, Note_on_c, 0, 56, 90
2, 203228, Note_on_c, 0, 54, 51
2, 203327, Control_c, 0, 64, 0
2, 203330, Note_on_c, 0, 40, 0
2, 203330, Note_on_c, 0, 92, 0
2, 203330, Note_on_c, 0, 52, 0
2, 203330, Note_on_c, 0, 76, 0
2, 203330, Note_on_c, 0, 56, 0
2, 203335, Note_on_c, 0, 54, 0
2, 203343, Note_on_c, 0, 64, 0
2, 203351, Note_on_c, 0, 83, 0
2, 203351, Note_on_c, 0, 95, 0
2, 203358, Note_on_c, 0, 88, 0
2, 203361, Note_on_c, 0, 95, 109
2, 203361, Note_on_c, 0, 85, 102
2, 203362, Note_on_c, 0, 83, 108
2, 203364, Note_on_c, 0, 30, 98
2, 203365, Note_on_c, 0, 42, 97
2, 203366, Note_on_c, 0, 88, 96
2, 203389, Note_on_c, 0, 32, 59
2, 203389, Control_c, 0, 64, 127
2, 203635, Note_on_c, 0, 30, 0
2, 203641, Note_on_c, 0, 93, 108
2, 203642, Note_on_c, 0, 42, 0
2, 203645, Note_on_c, 0, 81, 95
2, 203646, Note_on_c, 0, 30, 77
2, 203647, Note_on_c, 0, 42, 78
2, 203786, Note_on_c, 0, 80, 93
2, 203786, Note_on_c, 0, 92, 99
2, 203787, Note_on_c, 0, 57, 80
2, 203799, Note_on_c, 0, 49, 83
2, 203800, Note_on_c, 0, 52, 71
2, 203927, Note_on_c, 0, 81, 0
2, 203927, Note_on_c, 0, 88, 0
2, 203927, Note_on_c, 0, 93, 0
2, 203932, Note_on_c, 0, 93, 107
2, 203934, Note_on_c, 0, 85, 0
2, 203935, Note_on_c, 0, 88, 93
2, 203937, Note_on_c, 0, 81, 98
2, 203938, Note_on_c, 0, 85, 97
2, 203950, Note_on_c, 0, 30, 0
2, 203950, Note_on_c, 0, 42, 0
2, 203956, Note_on_c, 0, 42, 71
2, 203957, Note_on_c, 0, 30, 72
2, 204234, Note_on_c, 0, 30, 0
2, 204234, Note_on_c, 0, 42, 0
2, 204239, Note_on_c, 0, 30, 82
2, 204241, Note_on_c, 0, 42, 92
2, 204257, Note_on_c, 0, 32, 0
2, 204372, Note_on_c, 0, 49, 0
2, 204372, Note_on_c, 0, 57, 0
2, 204378, Note_on_c, 0, 49, 90
2, 204379, Note_on_c, 0, 57, 94
2, 204516, Note_on_c, 0, 90, 88
2, 204541, Note_on_c, 0, 92, 0
2, 204552, Note_on_c, 0, 92, 93
2, 204582, Note_on_c, 0, 30, 0
2, 204582, Note_on_c, 0, 95, 0
2, 204583, Note_on_c, 0, 80, 0
2, 204583, Note_on_c, 0, 42, 0
2, 204583, Note_on_c, 0, 52, 0
2, 204583, Note_on_c, 0, 92, 0
2, 204583, Note_on_c, 0, 83, 0
2, 204583, Note_on_c, 0, 90, 0
2, 204583, Note_on_c, 0, 81, 0
2, 204583, Note_on_c, 0, 93, 0
2, 204584, Note_on_c, 0, 57, 0
2, 204584, Note_on_c, 0, 49, 0
2, 204584, Note_on_c, 0, 85, 0
2, 204585, Control_c, 0, 64, 0
2, 204602, Note_on_c, 0, 88, 0
2, 204651, Note_on_c, 0, 81, 104
2, 204652, Note_on_c, 0, 93, 112
2, 204653, Note_on_c, 0, 50, 102
2, 204653, Note_on_c, 0, 38, 100
2, 204657, Note_on_c, 0, 90, 90
2, 204658, Note_on_c, 0, 86, 91
2, 204672, Control_c, 0, 64, 127
2, 204794, Note_on_c, 0, 50, 0
2, 204797, Note_on_c, 0, 80, 99
2, 204798, Note_on_c, 0, 92, 102
2, 204802, Note_on_c, 0, 90, 0
2, 204804, Note_on_c, 0, 50, 95
2, 204813, Note_on_c, 0, 90, 62
2, 204877, Control_c, 0, 64, 0
2, 204885, Note_on_c, 0, 86, 0
2, 204887, Note_on_c, 0, 38, 0
2, 204889, Note_on_c, 0, 90, 0
2, 204890, Note_on_c, 0, 80, 0
2, 204891, Note_on_c, 0, 50, 0
2, 204925, Note_on_c, 0, 81, 0
2, 204925, Note_on_c, 0, 92, 0
2, 204925, Note_on_c, 0, 93, 0
2, 204929, Note_on_c, 0, 54, 77
2, 204929, Note_on_c, 0, 62, 80
2, 204930, Note_on_c, 0, 93, 108
2, 204933, Note_on_c, 0, 81, 90
2, 204935, Note_on_c, 0, 42, 68
2, 204960, Note_on_c, 0, 54, 0
2, 204961, Note_on_c, 0, 81, 0
2, 204971, Note_on_c, 0, 42, 0
2, 204979, Note_on_c, 0, 62, 0
2, 205009, Note_on_c, 0, 93, 0
2, 205070, Note_on_c, 0, 95, 111
2, 205071, Note_on_c, 0, 83, 109
2, 205078, Note_on_c, 0, 92, 103
2, 205078, Note_on_c, 0, 88, 93
2, 205079, Note_on_c, 0, 52, 105
2, 205080, Note_on_c, 0, 40, 98
2, 205094, Control_c, 0, 64, 127
2, 205363, Note_on_c, 0, 52, 0
2, 205365, Note_on_c, 0, 93, 108
2, 205366, Note_on_c, 0, 64, 76
2, 205366, Note_on_c, 0, 81, 98
2, 205368, Note_on_c, 0, 52, 84
2, 205478, Note_on_c, 0, 64, 0
2, 205486, Note_on_c, 0, 83, 0
2, 205486, Note_on_c, 0, 95, 0
2, 205489, Note_on_c, 0, 64, 87
2, 205492, Note_on_c, 0, 56, 85
2, 205493, Note_on_c, 0, 52, 0
2, 205495, Note_on_c, 0, 83, 103
2, 205495, Note_on_c, 0, 95, 104
2, 205497, Note_on_c, 0, 52, 77
2, 205509, Note_on_c, 0, 92, 0
2, 205519, Note_on_c, 0, 92, 74
2, 205612, Control_c, 0, 64, 0
2, 205612, Note_on_c, 0, 95, 0
2, 205613, Note_on_c, 0, 92, 0
2, 205613, Note_on_c, 0, 83, 0
2, 205613, Note_on_c, 0, 40, 0
2, 205614, Note_on_c, 0, 52, 0
2, 205614, Note_on_c, 0, 81, 0
2, 205616, Note_on_c, 0, 88, 0
2, 205616, Note_on_c, 0, 56, 0
2, 205616, Note_on_c, 0, 64, 0
2, 205647, Note_on_c, 0, 93, 0
2, 205657, Note_on_c, 0, 97, 109
2, 205657, Note_on_c, 0, 93, 90
2, 205659, Note_on_c, 0, 85, 105
2, 205662, Note_on_c, 0, 42, 94
2, 205663, Note_on_c, 0, 30, 97
2, 205664, Note_on_c, 0, 90, 99
2, 205693, Control_c, 0, 64, 127
2, 205931, Note_on_c, 0, 42, 0
2, 205939, Note_on_c, 0, 97, 0
2, 205942, Note_on_c, 0, 42, 75
2, 205947, Note_on_c, 0, 97, 70
2, 206023, Note_on_c, 0, 52, 80
2, 206091, Note_on_c, 0, 66, 86
2, 206092, Note_on_c, 0, 69, 77
2, 206109, Note_on_c, 0, 57, 82
2, 206231, Note_on_c, 0, 42, 0
2, 206235, Note_on_c, 0, 42, 78
2, 206300, Note_on_c, 0, 52, 0
2, 206309, Note_on_c, 0, 52, 81
2, 206380, Note_on_c, 0, 68, 93
2, 206382, Note_on_c, 0, 59, 92
2, 206386, Note_on_c, 0, 64, 64
2, 206515, Note_on_c, 0, 42, 0
2, 206522, Note_on_c, 0, 42, 88
2, 206607, Note_on_c, 0, 52, 0
2, 206617, Note_on_c, 0, 52, 83
2, 206653, Note_on_c, 0, 64, 0
2, 206653, Note_on_c, 0, 69, 0
2, 206661, Note_on_c, 0, 57, 0
2, 206663, Note_on_c, 0, 64, 60
2, 206663, Note_on_c, 0, 69, 99
2, 206666, Note_on_c, 0, 61, 79
2, 206670, Note_on_c, 0, 57, 76
2, 206791, Note_on_c, 0, 42, 0
2, 206802, Note_on_c, 0, 42, 90
2, 206894, Note_on_c, 0, 93, 0
2, 206894, Note_on_c, 0, 69, 0
2, 206894, Note_on_c, 0, 59, 0
2, 206894, Note_on_c, 0, 57, 0
2, 206895, Note_on_c, 0, 68, 0
2, 206895, Note_on_c, 0, 66, 0
2, 206895, Note_on_c, 0, 90, 0
2, 206895, Note_on_c, 0, 97, 0
2, 206895, Note_on_c, 0, 52, 0
2, 206896, Note_on_c, 0, 85, 0
2, 206896, Note_on_c, 0, 42, 0
2, 206902, Control_c, 0, 64, 0
2, 206906, Note_on_c, 0, 30, 0
2, 206914, Note_on_c, 0, 64, 0
2, 206922, Note_on_c, 0, 61, 0
2, 206942, Note_on_c, 0, 93, 113
2, 206946, Note_on_c, 0, 81, 99
2, 206949, Note_on_c, 0, 50, 103
2, 206949, Note_on_c, 0, 90, 96
2, 206949, Note_on_c, 0, 38, 101
2, 206950, Note_on_c, 0, 86, 92
2, 206976, Control_c, 0, 64, 127
2, 207093, Note_on_c, 0, 92, 103
2, 207095, Note_on_c, 0, 80, 89
2, 207127, Control_c, 0, 64, 0
2, 207214, Note_on_c, 0, 38, 0
2, 207214, Note_on_c, 0, 81, 0
2, 207214, Note_on_c, 0, 93, 0
2, 207217, Note_on_c, 0, 62, 81
2, 207217, Note_on_c, 0, 50, 0
2, 207219, Note_on_c, 0, 54, 73
2, 207220, Note_on_c, 0, 93, 106
2, 207223, Note_on_c, 0, 81, 86
2, 207229, Note_on_c, 0, 80, 0
2, 207229, Note_on_c, 0, 86, 0
2, 207255, Note_on_c, 0, 54, 0
2, 207257, Note_on_c, 0, 81, 0
2, 207260, Note_on_c, 0, 62, 0
2, 207275, Note_on_c, 0, 90, 0
2, 207275, Note_on_c, 0, 92, 0
2, 207365, Note_on_c, 0, 95, 109
2, 207369, Note_on_c, 0, 83, 104
2, 207372, Note_on_c, 0, 40, 94
2, 207372, Note_on_c, 0, 52, 99
2, 207372, Note_on_c, 0, 88, 92
2, 207398, Control_c, 0, 64, 127
2, 207644, Note_on_c, 0, 88, 0
2, 207651, Note_on_c, 0, 52, 0
2, 207652, Note_on_c, 0, 88, 101
2, 207654, Note_on_c, 0, 76, 92
2, 207656, Note_on_c, 0, 64, 83
2, 207662, Note_on_c, 0, 52, 89
2, 207782, Note_on_c, 0, 64, 0
2, 207790, Note_on_c, 0, 52, 0
2, 207793, Note_on_c, 0, 64, 87
2, 207795, Note_on_c, 0, 56, 89
2, 207795, Note_on_c, 0, 52, 78
2, 207912, Note_on_c, 0, 93, 0
2, 207920, Note_on_c, 0, 76, 0
2, 207921, Note_on_c, 0, 64, 0
2, 207921, Note_on_c, 0, 52, 0
2, 207921, Note_on_c, 0, 40, 0
2, 207922, Note_on_c, 0, 56, 0
2, 207924, Control_c, 0, 64, 0
2, 207936, Note_on_c, 0, 83, 0
2, 207936, Note_on_c, 0, 88, 0
2, 207936, Note_on_c, 0, 95, 0
2, 207940, Note_on_c, 0, 95, 107
2, 207942, Note_on_c, 0, 83, 108
2, 207944, Note_on_c, 0, 97, 94
2, 207947, Note_on_c, 0, 85, 104
2, 207947, Note_on_c, 0, 88, 95
2, 207953, Note_on_c, 0, 30, 96
2, 207954, Note_on_c, 0, 42, 97
2, 208005, Control_c, 0, 64, 127
2, 208189, Note_on_c, 0, 97, 0
2, 208228, Note_on_c, 0, 93, 105
2, 208229, Note_on_c, 0, 81, 94
2, 208235, Note_on_c, 0, 42, 0
2, 208241, Note_on_c, 0, 42, 75
2, 208365, Note_on_c, 0, 92, 103
2, 208368, Note_on_c, 0, 80, 95
2, 208380, Note_on_c, 0, 57, 85
2, 208384, Note_on_c, 0, 49, 81
2, 208388, Note_on_c, 0, 52, 69
2, 208396, Note_on_c, 0, 45, 73
2, 208512, Note_on_c, 0, 30, 0
2, 208512, Note_on_c, 0, 42, 0
2, 208512, Note_on_c, 0, 81, 0
2, 208512, Note_on_c, 0, 85, 0
2, 208512, Note_on_c, 0, 88, 0
2, 208512, Note_on_c, 0, 93, 0
2, 208516, Note_on_c, 0, 93, 110
2, 208517, Note_on_c, 0, 88, 87
2, 208519, Note_on_c, 0, 81, 103
2, 208521, Note_on_c, 0, 85, 97
2, 208522, Note_on_c, 0, 30, 89
2, 208523, Note_on_c, 0, 42, 88
2, 208811, Note_on_c, 0, 42, 0
2, 208822, Note_on_c, 0, 42, 73
2, 208949, Note_on_c, 0, 49, 0
2, 208949, Note_on_c, 0, 57, 0
2, 208954, Note_on_c, 0, 49, 86
2, 208955, Note_on_c, 0, 57, 84
2, 209088, Note_on_c, 0, 49, 0
2, 209093, Note_on_c, 0, 49, 58
2, 209194, Note_on_c, 0, 92, 0
2, 209194, Note_on_c, 0, 45, 0
2, 209194, Note_on_c, 0, 93, 0
2, 209195, Note_on_c, 0, 80, 0
2, 209196, Note_on_c, 0, 30, 0
2, 209196, Note_on_c, 0, 81, 0
2, 209196, Note_on_c, 0, 83, 0
2, 209196, Note_on_c, 0, 57, 0
2, 209197, Note_on_c, 0, 88, 0
2, 209197, Note_on_c, 0, 49, 0
2, 209197, Note_on_c, 0, 85, 0
2, 209198, Control_c, 0, 64, 0
2, 209203, Note_on_c, 0, 95, 0
2, 209210, Note_on_c, 0, 42, 0
2, 209210, Note_on_c, 0, 52, 0
2, 209245, Note_on_c, 0, 97, 109
2, 209249, Note_on_c, 0, 93, 102
2, 209250, Note_on_c, 0, 50, 100
2, 209250, Note_on_c, 0, 90, 101
2, 209251, Note_on_c, 0, 85, 107
2, 209251, Note_on_c, 0, 38, 91
2, 209272, Control_c, 0, 64, 127
2, 209379, Note_on_c, 0, 50, 0
2, 209379, Note_on_c, 0, 93, 0
2, 209387, Note_on_c, 0, 38, 0
2, 209387, Note_on_c, 0, 97, 0
2, 209390, Note_on_c, 0, 93, 81
2, 209391, Note_on_c, 0, 50, 77
2, 209391, Note_on_c, 0, 38, 59
2, 209393, Note_on_c, 0, 97, 86
2, 209395, Note_on_c, 0, 85, 0
2, 209395, Note_on_c, 0, 90, 0
2, 209400, Note_on_c, 0, 85, 81
2, 209404, Note_on_c, 0, 90, 75
2, 209418, Control_c, 0, 64, 0
2, 209510, Note_on_c, 0, 97, 0
2, 209511, Note_on_c, 0, 62, 77
2, 209515, Note_on_c, 0, 54, 78
2, 209516, Note_on_c, 0, 97, 95
2, 209518, Note_on_c, 0, 62, 0
2, 209518, Note_on_c, 0, 85, 0
2, 209522, Note_on_c, 0, 85, 92
2, 209547, Note_on_c, 0, 90, 0
2, 209551, Note_on_c, 0, 50, 0
2, 209552, Note_on_c, 0, 54, 0
2, 209556, Note_on_c, 0, 38, 0
2, 209587, Note_on_c, 0, 85, 0
2, 209594, Note_on_c, 0, 93, 0
2, 209610, Note_on_c, 0, 97, 0
2, 209662, Note_on_c, 0, 95, 109
2, 209666, Note_on_c, 0, 83, 105
2, 209668, Note_on_c, 0, 92, 95
2, 209671, Note_on_c, 0, 88, 92
2, 209673, Note_on_c, 0, 52, 102
2, 209673, Note_on_c, 0, 40, 97
2, 209694, Control_c, 0, 64, 127
2, 209955, Note_on_c, 0, 52, 0
2, 209960, Note_on_c, 0, 93, 104
2, 209963, Note_on_c, 0, 40, 0
2, 209964, Note_on_c, 0, 81, 92
2, 209965, Note_on_c, 0, 52, 93
2, 209971, Note_on_c, 0, 40, 72
2, 210079, Note_on_c, 0, 56, 82
2, 210086, Note_on_c, 0, 92, 0
2, 210091, Note_on_c, 0, 92, 99
2, 210097, Note_on_c, 0, 80, 97
2, 210098, Note_on_c, 0, 54, 59
2, 210103, Note_on_c, 0, 42, 50
2, 210111, Note_on_c, 0, 90, 50
2, 210201, Note_on_c, 0, 95, 0
2, 210201, Note_on_c, 0, 40, 0
2, 210202, Note_on_c, 0, 52, 0
2, 210202, Note_on_c, 0, 83, 0
2, 210202, Note_on_c, 0, 92, 0
2, 210203, Note_on_c, 0, 93, 0
2, 210203, Note_on_c, 0, 81, 0
2, 210203, Note_on_c, 0, 80, 0
2, 210204, Note_on_c, 0, 88, 0
2, 210204, Control_c, 0, 64, 0
2, 210204, Note_on_c, 0, 56, 0
2, 210204, Note_on_c, 0, 54, 0
2, 210209, Note_on_c, 0, 90, 0
2, 210216, Note_on_c, 0, 42, 0
2, 210250, Note_on_c, 0, 81, 95
2, 210251, Note_on_c, 0, 90, 103
2, 210251, Note_on_c, 0, 78, 104
2, 210252, Note_on_c, 0, 85, 93
2, 210259, Note_on_c, 0, 30, 94
2, 210260, Note_on_c, 0, 42, 93
2, 210270, Control_c, 0, 64, 127
2, 210585, Note_on_c, 0, 42, 0
2, 210591, Note_on_c, 0, 66, 49
2, 210592, Note_on_c, 0, 42, 60
2, 210674, Note_on_c, 0, 40, 79
2, 210719, Note_on_c, 0, 76, 66
2, 210721, Note_on_c, 0, 64, 77
2, 210754, Note_on_c, 0, 30, 0
2, 210816, Note_on_c, 0, 42, 0
2, 210821, Note_on_c, 0, 42, 85
2, 210846, Note_on_c, 0, 66, 0
2, 210857, Note_on_c, 0, 66, 81
2, 210925, Note_on_c, 0, 81, 0
2, 210925, Note_on_c, 0, 64, 0
2, 210925, Note_on_c, 0, 85, 0
2, 210925, Note_on_c, 0, 90, 0
2, 210925, Note_on_c, 0, 78, 0
2, 210926, Note_on_c, 0, 40, 0
2, 210926, Note_on_c, 0, 42, 0
2, 210930, Control_c, 0, 64, 0
2, 210946, Note_on_c, 0, 76, 0
2, 210947, Note_on_c, 0, 57, 90
2, 210949, Note_on_c, 0, 45, 84
2, 210984, Control_c, 0, 64, 127
2, 210990, Note_on_c, 0, 69, 84
2, 211083, Note_on_c, 0, 42, 75
2, 211130, Note_on_c, 0, 66, 0
2, 211136, Note_on_c, 0, 66, 87
2, 211151, Note_on_c, 0, 54, 53
2, 211224, Note_on_c, 0, 40, 89
2, 211257, Note_on_c, 0, 64, 82
2, 211376, Note_on_c, 0, 42, 0
2, 211376, Note_on_c, 0, 66, 0
2, 211381, Note_on_c, 0, 54, 0
2, 211381, Note_on_c, 0, 66, 83
2, 211386, Note_on_c, 0, 42, 69
2, 211478, Note_on_c, 0, 66, 0
2, 211478, Note_on_c, 0, 40, 0
2, 211479, Note_on_c, 0, 69, 0
2, 211479, Note_on_c, 0, 57, 0
2, 211479, Note_on_c, 0, 64, 0
2, 211479, Note_on_c, 0, 42, 0
2, 211480, Control_c, 0, 64, 0
2, 211514, Note_on_c, 0, 81, 104
2, 211518, Note_on_c, 0, 78, 91
2, 211518, Note_on_c, 0, 74, 98
2, 211518, Note_on_c, 0, 69, 93
2, 211519, Note_on_c, 0, 38, 83
2, 211553, Control_c, 0, 64, 127
2, 211660, Note_on_c, 0, 68, 86
2, 211662, Note_on_c, 0, 80, 88
2, 211683, Note_on_c, 0, 45, 0
2, 211687, Note_on_c, 0, 45, 57
2, 211691, Note_on_c, 0, 74, 0
2, 211702, Note_on_c, 0, 74, 43
2, 211730, Note_on_c, 0, 73, 31
2, 211799, Note_on_c, 0, 81, 0
2, 211806, Note_on_c, 0, 81, 98
2, 211806, Note_on_c, 0, 69, 0
2, 211807, Note_on_c, 0, 54, 83
2, 211810, Note_on_c, 0, 69, 89
2, 211817, Note_on_c, 0, 50, 70
2, 211944, Note_on_c, 0, 73, 0
2, 211952, Note_on_c, 0, 80, 0
2, 211954, Note_on_c, 0, 83, 106
2, 211957, Note_on_c, 0, 71, 99
2, 211960, Note_on_c, 0, 45, 0
2, 211961, Note_on_c, 0, 76, 97
2, 211962, Note_on_c, 0, 80, 89
2, 211970, Note_on_c, 0, 45, 71
2, 212023, Note_on_c, 0, 69, 0
2, 212025, Note_on_c, 0, 54, 0
2, 212026, Note_on_c, 0, 45, 0
2, 212026, Note_on_c, 0, 81, 0
2, 212031, Control_c, 0, 64, 0
2, 212037, Note_on_c, 0, 38, 0
2, 212037, Note_on_c, 0, 50, 0
2, 212037, Note_on_c, 0, 78, 0
2, 212044, Note_on_c, 0, 74, 0
2, 212075, Note_on_c, 0, 68, 0
2, 212083, Control_c, 0, 64, 127
2, 212094, Note_on_c, 0, 40, 88
2, 212236, Note_on_c, 0, 76, 0
2, 212245, Note_on_c, 0, 76, 100
2, 212248, Note_on_c, 0, 64, 85
2, 212252, Note_on_c, 0, 71, 0
2, 212258, Note_on_c, 0, 71, 65
2, 212265, Note_on_c, 0, 47, 73
2, 212386, Note_on_c, 0, 56, 90
2, 212386, Note_on_c, 0, 52, 85
2, 212513, Note_on_c, 0, 83, 0
2, 212520, Note_on_c, 0, 47, 0
2, 212520, Note_on_c, 0, 71, 0
2, 212520, Note_on_c, 0, 76, 0
2, 212521, Note_on_c, 0, 83, 108
2, 212525, Note_on_c, 0, 71, 98
2, 212527, Note_on_c, 0, 73, 101
2, 212528, Note_on_c, 0, 76, 98
2, 212530, Note_on_c, 0, 47, 76
2, 212578, Note_on_c, 0, 64, 0
2, 212582, Note_on_c, 0, 52, 0
2, 212583, Note_on_c, 0, 40, 0
2, 212584, Control_c, 0, 64, 0
2, 212585, Note_on_c, 0, 56, 0
2, 212585, Note_on_c, 0, 47, 0
2, 212656, Note_on_c, 0, 42, 84
2, 212659, Control_c, 0, 64, 127
2, 212816, Note_on_c, 0, 49, 70
2, 212820, Note_on_c, 0, 81, 94
2, 212824, Note_on_c, 0, 69, 85
2, 212951, Note_on_c, 0, 80, 0
2, 212958, Note_on_c, 0, 69, 0
2, 212959, Note_on_c, 0, 57, 81
2, 212959, Note_on_c, 0, 80, 94
2, 212968, Note_on_c, 0, 69, 74
2, 212972, Note_on_c, 0, 52, 72
2, 212974, Note_on_c, 0, 49, 0
2, 212980, Note_on_c, 0, 49, 64
2, 213089, Note_on_c, 0, 81, 0
2, 213096, Note_on_c, 0, 69, 0
2, 213096, Note_on_c, 0, 76, 0
2, 213100, Note_on_c, 0, 81, 102
2, 213104, Note_on_c, 0, 49, 0
2, 213104, Note_on_c, 0, 73, 0
2, 213108, Note_on_c, 0, 76, 92
2, 213108, Note_on_c, 0, 69, 88
2, 213108, Note_on_c, 0, 49, 77
2, 213108, Note_on_c, 0, 73, 87
2, 213143, Note_on_c, 0, 83, 0
2, 213148, Note_on_c, 0, 57, 0
2, 213155, Control_c, 0, 64, 0
2, 213173, Note_on_c, 0, 71, 0
2, 213189, Note_on_c, 0, 52, 0
2, 213192, Note_on_c, 0, 42, 0
2, 213196, Note_on_c, 0, 80, 0
2, 213204, Control_c, 0, 64, 127
2, 213239, Note_on_c, 0, 42, 84
2, 213288, Note_on_c, 0, 49, 0
2, 213383, Note_on_c, 0, 49, 76
2, 213527, Note_on_c, 0, 69, 0
2, 213534, Note_on_c, 0, 57, 86
2, 213535, Note_on_c, 0, 69, 72
2, 213542, Note_on_c, 0, 52, 73
2, 213657, Note_on_c, 0, 49, 0
2, 213667, Note_on_c, 0, 49, 79
2, 213670, Note_on_c, 0, 78, 91
2, 213672, Note_on_c, 0, 42, 0
2, 213678, Note_on_c, 0, 42, 66
2, 213706, Note_on_c, 0, 80, 91
2, 213792, Note_on_c, 0, 73, 0
2, 213792, Note_on_c, 0, 80, 0
2, 213793, Note_on_c, 0, 52, 0
2, 213793, Note_on_c, 0, 49, 0
2, 213793, Note_on_c, 0, 42, 0
2, 213794, Note_on_c, 0, 57, 0
2, 213797, Control_c, 0, 64, 0
2, 213811, Note_on_c, 0, 69, 0
2, 213811, Note_on_c, 0, 76, 0
2, 213811, Note_on_c, 0, 78, 0
2, 213811, Note_on_c, 0, 81, 0
2, 213815, Note_on_c, 0, 38, 88
2, 213815, Note_on_c, 0, 81, 105
2, 213820, Note_on_c, 0, 69, 98
2, 213821, Note_on_c, 0, 74, 93
2, 213822, Note_on_c, 0, 78, 94
2, 213857, Control_c, 0, 64, 127
2, 213961, Note_on_c, 0, 80, 98
2, 213968, Note_on_c, 0, 45, 70
2, 213975, Note_on_c, 0, 68, 79
2, 214095, Note_on_c, 0, 69, 0
2, 214095, Note_on_c, 0, 81, 0
2, 214099, Note_on_c, 0, 54, 88
2, 214101, Note_on_c, 0, 81, 102
2, 214106, Note_on_c, 0, 69, 96
2, 214248, Note_on_c, 0, 80, 0
2, 214252, Note_on_c, 0, 83, 107
2, 214257, Note_on_c, 0, 71, 100
2, 214260, Note_on_c, 0, 80, 95
2, 214262, Note_on_c, 0, 76, 90
2, 214268, Note_on_c, 0, 50, 58
2, 214348, Note_on_c, 0, 74, 0
2, 214349, Note_on_c, 0, 38, 0
2, 214349, Note_on_c, 0, 45, 0
2, 214349, Note_on_c, 0, 78, 0
2, 214349, Note_on_c, 0, 54, 0
2, 214349, Note_on_c, 0, 81, 0
2, 214350, Note_on_c, 0, 69, 0
2, 214351, Control_c, 0, 64, 0
2, 214356, Note_on_c, 0, 50, 0
2, 214364, Note_on_c, 0, 68, 0
2, 214386, Note_on_c, 0, 40, 91
2, 214410, Control_c, 0, 64, 127
2, 214513, Note_on_c, 0, 47, 71
2, 214540, Note_on_c, 0, 88, 105
2, 214540, Note_on_c, 0, 76, 0
2, 214546, Note_on_c, 0, 76, 97
2, 214667, Note_on_c, 0, 56, 77
2, 214677, Note_on_c, 0, 74, 101
2, 214677, Note_on_c, 0, 52, 69
2, 214681, Note_on_c, 0, 86, 97
2, 214760, Note_on_c, 0, 88, 0
2, 214760, Note_on_c, 0, 76, 0
2, 214761, Control_c, 0, 64, 0
2, 214762, Note_on_c, 0, 56, 0
2, 214762, Note_on_c, 0, 40, 0
2, 214763, Note_on_c, 0, 74, 0
2, 214764, Note_on_c, 0, 47, 0
2, 214764, Note_on_c, 0, 52, 0
2, 214765, Note_on_c, 0, 86, 0
2, 214771, Note_on_c, 0, 71, 0
2, 214778, Note_on_c, 0, 80, 0
2, 214778, Note_on_c, 0, 83, 0
2, 214821, Note_on_c, 0, 85, 106
2, 214822, Note_on_c, 0, 81, 89
2, 214823, Note_on_c, 0, 78, 98
2, 214823, Note_on_c, 0, 42, 91
2, 214823, Note_on_c, 0, 73, 105
2, 214825, Note_on_c, 0, 30, 85
2, 214832, Note_on_c, 0, 30, 0
2, 214832, Control_c, 0, 64, 127
2, 215107, Note_on_c, 0, 69, 87
2, 215112, Note_on_c, 0, 57, 83
2, 215113, Note_on_c, 0, 61, 77
2, 215113, Note_on_c, 0, 52, 69
2, 215245, Note_on_c, 0, 68, 91
2, 215245, Note_on_c, 0, 59, 82
2, 215245, Note_on_c, 0, 40, 62
2, 215377, Note_on_c, 0, 42, 0
2, 215388, Note_on_c, 0, 42, 77
2, 215531, Note_on_c, 0, 57, 0
2, 215531, Note_on_c, 0, 61, 0
2, 215531, Note_on_c, 0, 69, 0
2, 215535, Note_on_c, 0, 69, 98
2, 215539, Note_on_c, 0, 52, 0
2, 215541, Note_on_c, 0, 57, 85
2, 215542, Note_on_c, 0, 61, 84
2, 215550, Note_on_c, 0, 52, 72
2, 215677, Note_on_c, 0, 59, 0
2, 215677, Note_on_c, 0, 68, 0
2, 215683, Note_on_c, 0, 68, 77
2, 215685, Note_on_c, 0, 59, 79
2, 215708, Note_on_c, 0, 42, 0
2, 215719, Note_on_c, 0, 42, 45
2, 215808, Note_on_c, 0, 42, 0
2, 215812, Note_on_c, 0, 42, 84
2, 215938, Note_on_c, 0, 42, 0
2, 215938, Note_on_c, 0, 69, 0
2, 215946, Note_on_c, 0, 42, 66
2, 215948, Note_on_c, 0, 69, 85
2, 216072, Note_on_c, 0, 42, 0
2, 216072, Note_on_c, 0, 40, 0
2, 216072, Note_on_c, 0, 73, 0
2, 216072, Note_on_c, 0, 69, 0
2, 216072, Note_on_c, 0, 68, 0
2, 216072, Note_on_c, 0, 78, 0
2, 216072, Note_on_c, 0, 81, 0
2, 216072, Note_on_c, 0, 59, 0
2, 216076, Control_c, 0, 64, 0
2, 216084, Note_on_c, 0, 57, 0
2, 216092, Note_on_c, 0, 52, 0
2, 216092, Note_on_c, 0, 61, 0
2, 216092, Note_on_c, 0, 85, 0
2, 216097, Note_on_c, 0, 85, 106
2, 216102, Note_on_c, 0, 78, 79
2, 216104, Note_on_c, 0, 38, 81
2, 216104, Note_on_c, 0, 73, 102
2, 216108, Note_on_c, 0, 81, 76
2, 216138, Control_c, 0, 64, 127
2, 216236, Note_on_c, 0, 45, 69
2, 216238, Note_on_c, 0, 78, 0
2, 216238, Note_on_c, 0, 81, 0
2, 216245, Note_on_c, 0, 73, 0
2, 216247, Note_on_c, 0, 78, 91
2, 216248, Note_on_c, 0, 81, 82
2, 216251, Note_on_c, 0, 73, 89
2, 216368, Note_on_c, 0, 73, 0
2, 216368, Note_on_c, 0, 85, 0
2, 216375, Note_on_c, 0, 85, 105
2, 216379, Note_on_c, 0, 73, 103
2, 216380, Note_on_c, 0, 54, 83
2, 216384, Note_on_c, 0, 38, 0
2, 216391, Note_on_c, 0, 38, 70
2, 216522, Note_on_c, 0, 83, 109
2, 216526, Note_on_c, 0, 71, 103
2, 216529, Note_on_c, 0, 76, 100
2, 216531, Note_on_c, 0, 80, 96
2, 216593, Note_on_c, 0, 85, 0
2, 216594, Note_on_c, 0, 54, 0
2, 216595, Note_on_c, 0, 73, 0
2, 216599, Note_on_c, 0, 38, 0
2, 216599, Note_on_c, 0, 45, 0
2, 216614, Note_on_c, 0, 81, 0
2, 216618, Control_c, 0, 64, 0
2, 216637, Note_on_c, 0, 78, 0
2, 216649, Note_on_c, 0, 40, 91
2, 216683, Control_c, 0, 64, 127
2, 216805, Note_on_c, 0, 47, 83
2, 216806, Note_on_c, 0, 76, 0
2, 216809, Note_on_c, 0, 88, 107
2, 216812, Note_on_c, 0, 76, 107
2, 216936, Note_on_c, 0, 56, 88
2, 216939, Note_on_c, 0, 52, 78
2, 217062, Control_c, 0, 64, 0
2, 217062, Note_on_c, 0, 71, 0
2, 217062, Note_on_c, 0, 47, 0
2, 217063, Note_on_c, 0, 83, 0
2, 217063, Note_on_c, 0, 56, 0
2, 217063, Note_on_c, 0, 76, 0
2, 217063, Note_on_c, 0, 80, 0
2, 217063, Note_on_c, 0, 52, 0
2, 217063, Note_on_c, 0, 88, 0
2, 217063, Note_on_c, 0, 40, 0
2, 217094, Note_on_c, 0, 89, 109
2, 217096, Note_on_c, 0, 80, 102
2, 217096, Note_on_c, 0, 85, 97
2, 217099, Note_on_c, 0, 77, 105
2, 217101, Note_on_c, 0, 53, 103
2, 217102, Note_on_c, 0, 41, 100
2, 217128, Control_c, 0, 64, 127
2, 217351, Note_on_c, 0, 85, 0
2, 217360, Note_on_c, 0, 37, 81
2, 217361, Note_on_c, 0, 49, 80
2, 217362, Control_c, 0, 64, 0
2, 217362, Note_on_c, 0, 85, 91
2, 217363, Note_on_c, 0, 73, 88
2, 217364, Note_on_c, 0, 53, 0
2, 217365, Note_on_c, 0, 89, 0
2, 217371, Note_on_c, 0, 77, 0
2, 217374, Note_on_c, 0, 41, 0
2, 217377, Note_on_c, 0, 80, 0
2, 217391, Note_on_c, 0, 49, 0
2, 217398, Note_on_c, 0, 37, 0
2, 217404, Note_on_c, 0, 73, 0
2, 217428, Note_on_c, 0, 85, 0
2, 217499, Note_on_c, 0, 83, 102
2, 217502, Note_on_c, 0, 71, 95
2, 217511, Note_on_c, 0, 52, 69
2, 217516, Note_on_c, 0, 40, 68
2, 217516, Note_on_c, 0, 53, 69
2, 217522, Note_on_c, 0, 41, 69
2, 217541, Note_on_c, 0, 71, 0
2, 217546, Note_on_c, 0, 40, 0
2, 217547, Note_on_c, 0, 83, 0
2, 217553, Note_on_c, 0, 41, 0
2, 217555, Note_on_c, 0, 53, 0
2, 217574, Note_on_c, 0, 52, 0
2, 217647, Note_on_c, 0, 81, 101
2, 217649, Note_on_c, 0, 69, 100
2, 217650, Note_on_c, 0, 42, 89
2, 217652, Note_on_c, 0, 73, 97
2, 217654, Note_on_c, 0, 54, 98
2, 217666, Control_c, 0, 64, 127
2, 217935, Note_on_c, 0, 54, 0
2, 217945, Note_on_c, 0, 54, 80
2, 218081, Note_on_c, 0, 54, 0
2, 218083, Note_on_c, 0, 66, 88
2, 218085, Note_on_c, 0, 57, 77
2, 218085, Note_on_c, 0, 61, 81
2, 218085, Note_on_c, 0, 54, 76
2, 218373, Note_on_c, 0, 73, 0
2, 218376, Note_on_c, 0, 42, 0
2, 218380, Note_on_c, 0, 61, 0
2, 218380, Note_on_c, 0, 54, 0
2, 218380, Note_on_c, 0, 66, 0
2, 218380, Note_on_c, 0, 69, 0
2, 218380, Note_on_c, 0, 81, 0
2, 218382, Note_on_c, 0, 57, 0
2, 218383, Note_on_c, 0, 85, 106
2, 218383, Control_c, 0, 64, 0
2, 218384, Note_on_c, 0, 73, 108
2, 218384, Note_on_c, 0, 69, 97
2, 218385, Note_on_c, 0, 62, 90
2, 218385, Note_on_c, 0, 66, 95
2, 218386, Note_on_c, 0, 81, 94
2, 218389, Note_on_c, 0, 78, 92
2, 218394, Note_on_c, 0, 74, 90
2, 218419, Note_on_c, 0, 62, 0
2, 218420, Note_on_c, 0, 74, 0
2, 218423, Note_on_c, 0, 85, 0
2, 218426, Note_on_c, 0, 69, 0
2, 218426, Note_on_c, 0, 73, 0
2, 218434, Note_on_c, 0, 66, 0
2, 218434, Note_on_c, 0, 78, 0
2, 218442, Note_on_c, 0, 81, 0
2, 218521, Note_on_c, 0, 85, 99
2, 218522, Note_on_c, 0, 73, 98
2, 218523, Note_on_c, 0, 78, 90
2, 218524, Note_on_c, 0, 81, 86
2, 218524, Note_on_c, 0, 69, 96
2, 218528, Note_on_c, 0, 66, 87
2, 218530, Note_on_c, 0, 62, 89
2, 218564, Note_on_c, 0, 69, 0
2, 218564, Note_on_c, 0, 66, 0
2, 218566, Note_on_c, 0, 73, 0
2, 218568, Note_on_c, 0, 62, 0
2, 218568, Note_on_c, 0, 78, 0
2, 218568, Note_on_c, 0, 85, 0
2, 218568, Note_on_c, 0, 81, 0
2, 218660, Note_on_c, 0, 85, 98
2, 218661, Note_on_c, 0, 62, 85
2, 218661, Note_on_c, 0, 66, 91
2, 218661, Note_on_c, 0, 73, 93
2, 218661, Note_on_c, 0, 69, 93
2, 218662, Note_on_c, 0, 78, 95
2, 218691, Note_on_c, 0, 62, 0
2, 218691, Note_on_c, 0, 66, 0
2, 218692, Note_on_c, 0, 69, 0
2, 218693, Note_on_c, 0, 78, 0
2, 218698, Note_on_c, 0, 85, 0
2, 218699, Note_on_c, 0, 73, 0
2, 218808, Note_on_c, 0, 83, 107
2, 218809, Note_on_c, 0, 64, 89
2, 218809, Note_on_c, 0, 71, 99
2, 218813, Note_on_c, 0, 76, 103
2, 218814, Note_on_c, 0, 80, 98
2, 218815, Note_on_c, 0, 68, 94
2, 218856, Control_c, 0, 64, 127
2, 219033, Note_on_c, 0, 76, 0
2, 219091, Note_on_c, 0, 81, 99
2, 219095, Note_on_c, 0, 64, 0
2, 219095, Note_on_c, 0, 68, 0
2, 219095, Note_on_c, 0, 71, 0
2, 219100, Note_on_c, 0, 78, 89
2, 219100, Note_on_c, 0, 64, 84
2, 219101, Note_on_c, 0, 71, 92
2, 219104, Note_on_c, 0, 68, 85
2, 219158, Note_on_c, 0, 64, 0
2, 219160, Note_on_c, 0, 81, 0
2, 219161, Note_on_c, 0, 68, 0
2, 219161, Note_on_c, 0, 80, 0
2, 219163, Note_on_c, 0, 78, 0
2, 219163, Note_on_c, 0, 71, 0
2, 219167, Control_c, 0, 64, 0
2, 219171, Note_on_c, 0, 83, 0
2, 219237, Note_on_c, 0, 80, 96
2, 219238, Note_on_c, 0, 71, 78
2, 219238, Note_on_c, 0, 68, 89
2, 219239, Note_on_c, 0, 64, 81
2, 219241, Note_on_c, 0, 76, 91
2, 219277, Note_on_c, 0, 68, 0
2, 219281, Note_on_c, 0, 71, 0
2, 219283, Note_on_c, 0, 76, 0
2, 219293, Note_on_c, 0, 80, 0
2, 219340, Note_on_c, 0, 64, 0
2, 219386, Note_on_c, 0, 78, 109
2, 219389, Note_on_c, 0, 69, 92
2, 219390, Note_on_c, 0, 73, 101
2, 219392, Note_on_c, 0, 66, 102
2, 219448, Control_c, 0, 64, 127
2, 219456, Note_on_c, 0, 66, 0
2, 219908, Note_on_c, 0, 54, 72
2, 219911, Note_on_c, 0, 66, 63
2, 219911, Note_on_c, 0, 42, 74
2, 219962, Note_on_c, 0, 66, 0
2, 219962, Note_on_c, 0, 73, 0
2, 219962, Note_on_c, 0, 78, 0
2, 219967, Note_on_c, 0, 73, 61
2, 219968, Note_on_c, 0, 66, 52
2, 219971, Note_on_c, 0, 78, 43
2, 220049, Note_on_c, 0, 45, 81
2, 220050, Note_on_c, 0, 57, 83
2, 220085, Note_on_c, 0, 69, 0
2, 220091, Note_on_c, 0, 69, 70
2, 220193, Note_on_c, 0, 59, 84
2, 220194, Note_on_c, 0, 47, 82
2, 220235, Note_on_c, 0, 71, 73
2, 220318, Note_on_c, 0, 49, 92
2, 220319, Note_on_c, 0, 61, 87
2, 220354, Note_on_c, 0, 73, 0
2, 220362, Note_on_c, 0, 61, 0
2, 220365, Note_on_c, 0, 73, 94
2, 220367, Note_on_c, 0, 61, 62
2, 220457, Note_on_c, 0, 52, 101
2, 220476, Note_on_c, 0, 64, 85
2, 220489, Note_on_c, 0, 76, 98
2, 220584, Note_on_c, 0, 54, 0
2, 220592, Note_on_c, 0, 42, 0
2, 220592, Note_on_c, 0, 66, 0
2, 220592, Note_on_c, 0, 78, 0
2, 220595, Note_on_c, 0, 54, 93
2, 220597, Note_on_c, 0, 42, 69
2, 220598, Note_on_c, 0, 66, 90
2, 220602, Note_on_c, 0, 78, 99
2, 220718, Note_on_c, 0, 47, 0
2, 220719, Note_on_c, 0, 45, 0
2, 220719, Note_on_c, 0, 52, 0
2, 220719, Note_on_c, 0, 64, 0
2, 220719, Control_c, 0, 64, 0
2, 220719, Note_on_c, 0, 71, 0
2, 220719, Note_on_c, 0, 49, 0
2, 220719, Note_on_c, 0, 61, 0
2, 220719, Note_on_c, 0, 66, 0
2, 220719, Note_on_c, 0, 57, 0
2, 220719, Note_on_c, 0, 59, 0
2, 220719, Note_on_c, 0, 76, 0
2, 220719, Note_on_c, 0, 42, 0
2, 220730, Note_on_c, 0, 54, 0
2, 220730, Note_on_c, 0, 73, 0
2, 220738, Note_on_c, 0, 69, 0
2, 220738, Note_on_c, 0, 78, 0
2, 220739, Note_on_c, 0, 81, 106
2, 220742, Note_on_c, 0, 74, 104
2, 220743, Note_on_c, 0, 69, 99
2, 220748, Note_on_c, 0, 78, 94
2, 220749, Note_on_c, 0, 50, 100
2, 220750, Note_on_c, 0, 38, 97
2, 220751, Note_on_c, 0, 66, 94
2, 220784, Control_c, 0, 64, 127
2, 220896, Note_on_c, 0, 80, 89
2, 220899, Note_on_c, 0, 45, 71
2, 220903, Note_on_c, 0, 68, 77
2, 221015, Note_on_c, 0, 50, 0
2, 221026, Note_on_c, 0, 50, 82
2, 221038, Note_on_c, 0, 81, 0
2, 221043, Note_on_c, 0, 81, 97
2, 221045, Note_on_c, 0, 69, 0
2, 221050, Note_on_c, 0, 69, 83
2, 221184, Note_on_c, 0, 74, 0
2, 221189, Note_on_c, 0, 57, 91
2, 221189, Note_on_c, 0, 83, 105
2, 221191, Note_on_c, 0, 50, 0
2, 221191, Note_on_c, 0, 78, 0
2, 221192, Note_on_c, 0, 74, 91
2, 221193, Note_on_c, 0, 54, 80
2, 221194, Note_on_c, 0, 71, 91
2, 221196, Note_on_c, 0, 50, 70
2, 221199, Note_on_c, 0, 78, 79
2, 221237, Note_on_c, 0, 66, 0
2, 221468, Note_on_c, 0, 50, 0
2, 221468, Note_on_c, 0, 69, 0
2, 221468, Note_on_c, 0, 81, 0
2, 221472, Note_on_c, 0, 81, 97
2, 221474, Note_on_c, 0, 50, 69
2, 221477, Note_on_c, 0, 69, 92
2, 221606, Note_on_c, 0, 54, 0
2, 221617, Note_on_c, 0, 62, 86
2, 221617, Note_on_c, 0, 54, 84
2, 221760, Note_on_c, 0, 69, 0
2, 221760, Note_on_c, 0, 71, 0
2, 221760, Note_on_c, 0, 81, 0
2, 221764, Note_on_c, 0, 81, 103
2, 221769, Note_on_c, 0, 69, 94
2, 221771, Note_on_c, 0, 71, 91
2, 221774, Note_on_c, 0, 76, 94
2, 221841, Note_on_c, 0, 45, 0
2, 221842, Note_on_c, 0, 83, 0
2, 221843, Note_on_c, 0, 68, 0
2, 221844, Note_on_c, 0, 54, 0
2, 221845, Note_on_c, 0, 62, 0
2, 221845, Note_on_c, 0, 50, 0
2, 221845, Note_on_c, 0, 74, 0
2, 221846, Note_on_c, 0, 78, 0
2, 221849, Control_c, 0, 64, 0
2, 221852, Note_on_c, 0, 80, 0
2, 221859, Note_on_c, 0, 38, 0
2, 221859, Note_on_c, 0, 57, 0
2, 221911, Note_on_c, 0, 52, 98
2, 221913, Note_on_c, 0, 40, 97
2, 221928, Control_c, 0, 64, 127
2, 222048, Note_on_c, 0, 80, 89
2, 222055, Note_on_c, 0, 68, 84
2, 222059, Note_on_c, 0, 40, 0
2, 222059, Note_on_c, 0, 76, 0
2, 222063, Note_on_c, 0, 47, 79
2, 222064, Note_on_c, 0, 76, 61
2, 222066, Note_on_c, 0, 35, 69
2, 222067, Note_on_c, 0, 40, 76
2, 222074, Note_on_c, 0, 35, 0
2, 222190, Note_on_c, 0, 52, 0
2, 222190, Note_on_c, 0, 69, 0
2, 222190, Note_on_c, 0, 81, 0
2, 222195, Note_on_c, 0, 81, 92
2, 222199, Note_on_c, 0, 52, 82
2, 222200, Note_on_c, 0, 69, 85
2, 222336, Note_on_c, 0, 71, 0
2, 222339, Note_on_c, 0, 83, 106
2, 222343, Note_on_c, 0, 68, 0
2, 222343, Note_on_c, 0, 76, 0
2, 222343, Note_on_c, 0, 80, 0
2, 222344, Note_on_c, 0, 71, 99
2, 222348, Note_on_c, 0, 59, 89
2, 222348, Note_on_c, 0, 80, 88
2, 222348, Note_on_c, 0, 68, 88
2, 222348, Note_on_c, 0, 56, 86
2, 222353, Note_on_c, 0, 76, 88
2, 222627, Note_on_c, 0, 69, 0
2, 222627, Note_on_c, 0, 81, 0
2, 222632, Note_on_c, 0, 81, 102
2, 222635, Note_on_c, 0, 52, 0
2, 222637, Note_on_c, 0, 69, 92
2, 222640, Note_on_c, 0, 52, 85
2, 222773, Note_on_c, 0, 56, 0
2, 222779, Note_on_c, 0, 64, 85
2, 222782, Note_on_c, 0, 56, 88
2, 222912, Note_on_c, 0, 81, 0
2, 222922, Note_on_c, 0, 81, 99
2, 222923, Note_on_c, 0, 85, 108
2, 222923, Note_on_c, 0, 78, 95
2, 222923, Note_on_c, 0, 73, 106
2, 222965, Note_on_c, 0, 80, 0
2, 222965, Note_on_c, 0, 76, 0
2, 222965, Note_on_c, 0, 47, 0
2, 222966, Note_on_c, 0, 71, 0
2, 222966, Note_on_c, 0, 59, 0
2, 222966, Note_on_c, 0, 69, 0
2, 222966, Note_on_c, 0, 52, 0
2, 222966, Note_on_c, 0, 68, 0
2, 222966, Note_on_c, 0, 40, 0
2, 222966, Note_on_c, 0, 56, 0
2, 222966, Note_on_c, 0, 83, 0
2, 222967, Note_on_c, 0, 64, 0
2, 222972, Control_c, 0, 64, 0
2, 223052, Note_on_c, 0, 42, 95
2, 223054, Note_on_c, 0, 54, 98
2, 223057, Control_c, 0, 64, 127
2, 223199, Note_on_c, 0, 49, 83
2, 223341, Note_on_c, 0, 86, 93
2, 223345, Note_on_c, 0, 74, 97
2, 223388, Note_on_c, 0, 54, 0
2, 223393, Note_on_c, 0, 54, 42
2, 223488, Note_on_c, 0, 73, 0
2, 223488, Note_on_c, 0, 78, 0
2, 223488, Note_on_c, 0, 81, 0
2, 223488, Note_on_c, 0, 85, 0
2, 223492, Note_on_c, 0, 85, 102
2, 223495, Note_on_c, 0, 73, 103
2, 223497, Note_on_c, 0, 81, 89
2, 223497, Note_on_c, 0, 61, 84
2, 223497, Note_on_c, 0, 78, 94
2, 223505, Note_on_c, 0, 57, 77
2, 223777, Note_on_c, 0, 83, 103
2, 223779, Note_on_c, 0, 54, 0
2, 223782, Note_on_c, 0, 71, 96
2, 223782, Note_on_c, 0, 66, 84
2, 223783, Note_on_c, 0, 54, 77
2, 223910, Note_on_c, 0, 57, 0
2, 223910, Note_on_c, 0, 61, 0
2, 223910, Note_on_c, 0, 66, 0
2, 223918, Note_on_c, 0, 66, 75
2, 223920, Note_on_c, 0, 61, 77
2, 223921, Note_on_c, 0, 57, 80
2, 224048, Note_on_c, 0, 81, 0
2, 224054, Note_on_c, 0, 81, 103
2, 224056, Note_on_c, 0, 73, 0
2, 224059, Note_on_c, 0, 69, 94
2, 224061, Note_on_c, 0, 76, 93
2, 224062, Note_on_c, 0, 73, 97
2, 224141, Note_on_c, 0, 83, 0
2, 224142, Note_on_c, 0, 61, 0
2, 224142, Note_on_c, 0, 54, 0
2, 224142, Note_on_c, 0, 86, 0
2, 224143, Note_on_c, 0, 85, 0
2, 224143, Note_on_c, 0, 66, 0
2, 224143, Note_on_c, 0, 42, 0
2, 224143, Note_on_c, 0, 57, 0
2, 224144, Note_on_c, 0, 71, 0
2, 224145, Control_c, 0, 64, 0
2, 224148, Note_on_c, 0, 49, 0
2, 224156, Note_on_c, 0, 74, 0
2, 224163, Note_on_c, 0, 78, 0
2, 224197, Note_on_c, 0, 37, 88
2, 224202, Control_c, 0, 64, 127
2, 224214, Note_on_c, 0, 49, 72
2, 224340, Note_on_c, 0, 45, 75
2, 224486, Note_on_c, 0, 49, 0
2, 224497, Note_on_c, 0, 49, 73
2, 224614, Note_on_c, 0, 52, 81
2, 224739, Note_on_c, 0, 57, 80
2, 224755, Note_on_c, 0, 81, 0
2, 224762, Note_on_c, 0, 69, 0
2, 224765, Note_on_c, 0, 81, 100
2, 224768, Note_on_c, 0, 69, 98
2, 224870, Note_on_c, 0, 52, 0
2, 224878, Note_on_c, 0, 52, 86
2, 225024, Note_on_c, 0, 49, 0
2, 225029, Note_on_c, 0, 49, 78
2, 225031, Note_on_c, 0, 52, 0
2, 225036, Note_on_c, 0, 80, 96
2, 225039, Note_on_c, 0, 73, 0
2, 225041, Note_on_c, 0, 52, 66
2, 225043, Note_on_c, 0, 68, 95
2, 225043, Note_on_c, 0, 73, 75
2, 225154, Note_on_c, 0, 45, 0
2, 225165, Note_on_c, 0, 45, 67
2, 225310, Note_on_c, 0, 73, 0
2, 225310, Note_on_c, 0, 45, 0
2, 225310, Note_on_c, 0, 49, 0
2, 225311, Note_on_c, 0, 52, 0
2, 225311, Note_on_c, 0, 69, 0
2, 225311, Note_on_c, 0, 81, 0
2, 225311, Note_on_c, 0, 80, 0
2, 225311, Control_c, 0, 64, 0
2, 225311, Note_on_c, 0, 68, 0
2, 225311, Note_on_c, 0, 37, 0
2, 225323, Note_on_c, 0, 57, 0
2, 225329, Note_on_c, 0, 78, 98
2, 225334, Note_on_c, 0, 74, 81
2, 225334, Note_on_c, 0, 71, 84
2, 225334, Note_on_c, 0, 66, 96
2, 225335, Note_on_c, 0, 35, 74
2, 225369, Note_on_c, 0, 76, 0
2, 225369, Control_c, 0, 64, 127
2, 225607, Note_on_c, 0, 66, 0
2, 225607, Note_on_c, 0, 74, 0
2, 225615, Note_on_c, 0, 74, 102
2, 225617, Note_on_c, 0, 66, 75
2, 225618, Note_on_c, 0, 62, 87
2, 225618, Note_on_c, 0, 54, 68
2, 225619, Note_on_c, 0, 59, 71
2, 225757, Note_on_c, 0, 50, 72
2, 225899, Note_on_c, 0, 59, 0
2, 225899, Note_on_c, 0, 71, 0
2, 225903, Note_on_c, 0, 76, 98
2, 225903, Note_on_c, 0, 59, 84
2, 225906, Note_on_c, 0, 64, 85
2, 225909, Note_on_c, 0, 71, 80
2, 226037, Note_on_c, 0, 54, 0
2, 226042, Note_on_c, 0, 54, 73
2, 226183, Note_on_c, 0, 78, 0
2, 226191, Note_on_c, 0, 62, 0
2, 226191, Note_on_c, 0, 66, 0
2, 226191, Note_on_c, 0, 74, 0
2, 226194, Note_on_c, 0, 78, 101
2, 226195, Note_on_c, 0, 62, 86
2, 226195, Note_on_c, 0, 74, 80
2, 226196, Note_on_c, 0, 66, 93
2, 226306, Note_on_c, 0, 59, 0
2, 226316, Note_on_c, 0, 59, 79
2, 226437, Note_on_c, 0, 35, 0
2, 226458, Control_c, 0, 64, 0
2, 226461, Note_on_c, 0, 62, 0
2, 226462, Note_on_c, 0, 66, 0
2, 226462, Note_on_c, 0, 54, 0
2, 226462, Note_on_c, 0, 74, 0
2, 226463, Note_on_c, 0, 50, 0
2, 226463, Note_on_c, 0, 64, 0
2, 226463, Note_on_c, 0, 59, 0
2, 226463, Note_on_c, 0, 78, 0
2, 226474, Note_on_c, 0, 81, 102
2, 226475, Note_on_c, 0, 71, 0
2, 226475, Note_on_c, 0, 76, 0
2, 226476, Note_on_c, 0, 52, 93
2, 226478, Note_on_c, 0, 69, 94
2, 226478, Note_on_c, 0, 40, 89
2, 226482, Note_on_c, 0, 71, 91
2, 226483, Note_on_c, 0, 76, 82
2, 226513, Control_c, 0, 64, 127
2, 226604, Note_on_c, 0, 47, 78
2, 226762, Note_on_c, 0, 80, 95
2, 226763, Note_on_c, 0, 56, 86
2, 226765, Note_on_c, 0, 68, 88
2, 226897, Note_on_c, 0, 52, 0
2, 226902, Note_on_c, 0, 52, 86
2, 226904, Note_on_c, 0, 78, 96
2, 226907, Note_on_c, 0, 66, 91
2, 227036, Note_on_c, 0, 47, 0
2, 227044, Note_on_c, 0, 59, 89
2, 227046, Note_on_c, 0, 47, 70
2, 227182, Note_on_c, 0, 80, 0
2, 227187, Note_on_c, 0, 80, 103
2, 227189, Note_on_c, 0, 56, 0
2, 227189, Note_on_c, 0, 68, 0
2, 227194, Note_on_c, 0, 68, 97
2, 227200, Note_on_c, 0, 56, 83
2, 227212, Note_on_c, 0, 78, 0
2, 227223, Note_on_c, 0, 78, 54
2, 227332, Note_on_c, 0, 64, 84
2, 227458, Note_on_c, 0, 69, 0
2, 227458, Note_on_c, 0, 81, 0
2, 227465, Note_on_c, 0, 81, 104
2, 227466, Note_on_c, 0, 78, 0
2, 227469, Note_on_c, 0, 69, 91
2, 227470, Note_on_c, 0, 74, 98
2, 227470, Note_on_c, 0, 78, 90
2, 227516, Note_on_c, 0, 52, 0
2, 227516, Note_on_c, 0, 47, 0
2, 227516, Note_on_c, 0, 59, 0
2, 227516, Note_on_c, 0, 64, 0
2, 227517, Note_on_c, 0, 76, 0
2, 227517, Note_on_c, 0, 80, 0
2, 227517, Note_on_c, 0, 56, 0
2, 227517, Note_on_c, 0, 68, 0
2, 227517, Note_on_c, 0, 71, 0
2, 227517, Note_on_c, 0, 40, 0
2, 227517, Control_c, 0, 64, 0
2, 227518, Note_on_c, 0, 66, 0
2, 227614, Note_on_c, 0, 50, 96
2, 227615, Note_on_c, 0, 38, 95
2, 227619, Control_c, 0, 64, 127
2, 227767, Note_on_c, 0, 62, 83
2, 227767, Note_on_c, 0, 54, 91
2, 227769, Note_on_c, 0, 57, 70
2, 227894, Control_c, 0, 64, 0
2, 227895, Note_on_c, 0, 50, 0
2, 227896, Note_on_c, 0, 54, 0
2, 227896, Note_on_c, 0, 74, 0
2, 227897, Note_on_c, 0, 62, 0
2, 227897, Note_on_c, 0, 38, 0
2, 227911, Note_on_c, 0, 57, 0
2, 227927, Note_on_c, 0, 78, 0
2, 227927, Note_on_c, 0, 81, 0
2, 228053, Note_on_c, 0, 50, 89
2, 228054, Note_on_c, 0, 38, 89
2, 228080, Control_c, 0, 64, 127
2, 228201, Note_on_c, 0, 62, 89
2, 228201, Note_on_c, 0, 54, 87
2, 228203, Note_on_c, 0, 57, 77
2, 228354, Note_on_c, 0, 54, 0
2, 228355, Note_on_c, 0, 62, 0
2, 228357, Note_on_c, 0, 38, 0
2, 228358, Control_c, 0, 64, 0
2, 228364, Note_on_c, 0, 50, 0
2, 228372, Note_on_c, 0, 69, 0
2, 228380, Note_on_c, 0, 57, 0
2, 228474, Note_on_c, 0, 50, 91
2, 228475, Note_on_c, 0, 38, 92
2, 228503, Control_c, 0, 64, 127
2, 228636, Note_on_c, 0, 62, 93
2, 228637, Note_on_c, 0, 57, 87
2, 228637, Note_on_c, 0, 54, 91
2, 228941, Note_on_c, 0, 81, 101
2, 228944, Note_on_c, 0, 69, 91
2, 229089, Note_on_c, 0, 80, 101
2, 229094, Note_on_c, 0, 68, 95
2, 229217, Note_on_c, 0, 69, 0
2, 229217, Note_on_c, 0, 81, 0
2, 229223, Note_on_c, 0, 81, 99
2, 229227, Note_on_c, 0, 69, 86
2, 229363, Note_on_c, 0, 69, 0
2, 229368, Note_on_c, 0, 76, 102
2, 229369, Note_on_c, 0, 64, 93
2, 229374, Note_on_c, 0, 69, 74
2, 229509, Note_on_c, 0, 62, 0
2, 229512, Note_on_c, 0, 74, 100
2, 229514, Note_on_c, 0, 62, 87
2, 229645, Note_on_c, 0, 73, 92
2, 229648, Note_on_c, 0, 61, 91
2, 229751, Note_on_c, 0, 62, 0
2, 229752, Note_on_c, 0, 54, 0
2, 229752, Note_on_c, 0, 57, 0
2, 229752, Note_on_c, 0, 81, 0
2, 229752, Note_on_c, 0, 68, 0
2, 229752, Note_on_c, 0, 74, 0
2, 229752, Note_on_c, 0, 64, 0
2, 229752, Note_on_c, 0, 80, 0
2, 229752, Note_on_c, 0, 76, 0
2, 229753, Note_on_c, 0, 61, 0
2, 229753, Note_on_c, 0, 50, 0
2, 229753, Note_on_c, 0, 73, 0
2, 229753, Note_on_c, 0, 38, 0
2, 229756, Control_c, 0, 64, 0
2, 229770, Note_on_c, 0, 69, 0
2, 229797, Note_on_c, 0, 69, 100
2, 229799, Note_on_c, 0, 57, 86
2, 229804, Note_on_c, 0, 64, 87
2, 229811, Note_on_c, 0, 45, 84
2, 229814, Note_on_c, 0, 33, 82
2, 229854, Control_c, 0, 64, 127
2, 230100, Note_on_c, 0, 45, 0
2, 230100, Note_on_c, 0, 57, 0
2, 230104, Note_on_c, 0, 57, 63
2, 230107, Note_on_c, 0, 45, 76
2, 230243, Note_on_c, 0, 52, 60
2, 230369, Note_on_c, 0, 45, 0
2, 230369, Note_on_c, 0, 57, 0
2, 230374, Note_on_c, 0, 57, 63
2, 230374, Note_on_c, 0, 45, 61
2, 230507, Note_on_c, 0, 64, 0
2, 230518, Note_on_c, 0, 64, 77
2, 230521, Note_on_c, 0, 59, 77
2, 230532, Note_on_c, 0, 61, 70
2, 230676, Note_on_c, 0, 57, 0
2, 230684, Note_on_c, 0, 45, 0
2, 230686, Note_on_c, 0, 57, 55
2, 230688, Note_on_c, 0, 45, 63
2, 230814, Note_on_c, 0, 45, 0
2, 230814, Note_on_c, 0, 52, 0
2, 230822, Note_on_c, 0, 52, 49
2, 230825, Note_on_c, 0, 45, 50
2, 230960, Note_on_c, 0, 45, 0
2, 230960, Note_on_c, 0, 57, 0
2, 230965, Note_on_c, 0, 45, 58
2, 230966, Note_on_c, 0, 57, 57
2, 231114, Note_on_c, 0, 59, 0
2, 231114, Note_on_c, 0, 64, 0
2, 231118, Note_on_c, 0, 64, 74
2, 231123, Note_on_c, 0, 59, 74
2, 231129, Note_on_c, 0, 61, 0
2, 231138, Note_on_c, 0, 61, 67
2, 231152, Note_on_c, 0, 45, 0
2, 231163, Note_on_c, 0, 45, 60
2, 231267, Note_on_c, 0, 45, 0
2, 231273, Note_on_c, 0, 45, 65
2, 231375, Note_on_c, 0, 52, 0
2, 231385, Note_on_c, 0, 52, 58
2, 231528, Note_on_c, 0, 57, 0
2, 231537, Note_on_c, 0, 57, 55
2, 231690, Note_on_c, 0, 64, 0
2, 231697, Note_on_c, 0, 59, 0
2, 231700, Note_on_c, 0, 64, 69
2, 231702, Note_on_c, 0, 59, 70
2, 231705, Note_on_c, 0, 61, 0
2, 231709, Note_on_c, 0, 61, 60
2, 231851, Note_on_c, 0, 45, 0
2, 231859, Note_on_c, 0, 45, 49
2, 231982, Note_on_c, 0, 52, 0
2, 231987, Note_on_c, 0, 52, 42
2, 232066, Note_on_c, 0, 45, 0
2, 232072, Note_on_c, 0, 45, 44
2, 232128, Note_on_c, 0, 57, 0
2, 232134, Note_on_c, 0, 57, 45
2, 232281, Note_on_c, 0, 59, 0
2, 232281, Note_on_c, 0, 64, 0
2, 232289, Note_on_c, 0, 64, 67
2, 232290, Note_on_c, 0, 59, 63
2, 232304, Note_on_c, 0, 61, 0
2, 232313, Note_on_c, 0, 61, 48
2, 232320, Note_on_c, 0, 69, 0
2, 232435, Note_on_c, 0, 57, 0
2, 232439, Note_on_c, 0, 57, 49
2, 232442, Note_on_c, 0, 45, 0
2, 232453, Note_on_c, 0, 45, 55
2, 232573, Note_on_c, 0, 52, 0
2, 232579, Note_on_c, 0, 52, 54
2, 232727, Note_on_c, 0, 57, 0
2, 232732, Note_on_c, 0, 57, 50
2, 232872, Note_on_c, 0, 59, 0
2, 232880, Note_on_c, 0, 61, 0
2, 232880, Note_on_c, 0, 64, 0
2, 232883, Note_on_c, 0, 59, 49
2, 232884, Note_on_c, 0, 64, 58
2, 232890, Note_on_c, 0, 61, 54
2, 233018, Note_on_c, 0, 45, 0
2, 233028, Note_on_c, 0, 45, 50
2, 233157, Note_on_c, 0, 52, 0
2, 233168, Note_on_c, 0, 52, 51
2, 233310, Note_on_c, 0, 57, 0
2, 233321, Note_on_c, 0, 57, 54
2, 233464, Note_on_c, 0, 59, 0
2, 233472, Note_on_c, 0, 61, 0
2, 233472, Note_on_c, 0, 64, 0
2, 233475, Note_on_c, 0, 59, 49
2, 233478, Note_on_c, 0, 61, 48
2, 233479, Note_on_c, 0, 64, 58
2, 233610, Note_on_c, 0, 45, 0
2, 233618, Note_on_c, 0, 45, 28
2, 233725, Note_on_c, 0, 52, 0
2, 233735, Note_on_c, 0, 52, 52
2, 233802, Note_on_c, 0, 45, 0
2, 233810, Note_on_c, 0, 45, 39
2, 233879, Note_on_c, 0, 57, 0
2, 233885, Note_on_c, 0, 57, 50
2, 233925, Note_on_c, 0, 52, 0
2, 233928, Note_on_c, 0, 52, 40
2, 234032, Note_on_c, 0, 64, 0
2, 234039, Note_on_c, 0, 64, 57
2, 234040, Note_on_c, 0, 59, 0
2, 234046, Note_on_c, 0, 59, 63
2, 234178, Note_on_c, 0, 45, 0
2, 234189, Note_on_c, 0, 45, 57
2, 234324, Note_on_c, 0, 52, 0
2, 234327, Note_on_c, 0, 88, 88
2, 234331, Note_on_c, 0, 52, 64
2, 234332, Note_on_c, 0, 76, 76
2, 234424, Note_on_c, 0, 33, 0
2, 234455, Note_on_c, 0, 57, 0
2, 234462, Note_on_c, 0, 57, 61
2, 234624, Note_on_c, 0, 88, 0
2, 234633, Note_on_c, 0, 88, 95
2, 234647, Note_on_c, 0, 76, 0
2, 234649, Note_on_c, 0, 64, 0
2, 234649, Control_c, 0, 64, 0
2, 234649, Note_on_c, 0, 61, 0
2, 234649, Note_on_c, 0, 59, 0
2, 234649, Note_on_c, 0, 52, 0
2, 234649, Note_on_c, 0, 57, 0
2, 234650, Note_on_c, 0, 45, 0
2, 234650, Note_on_c, 0, 81, 77
2, 234652, Note_on_c, 0, 50, 77
2, 234655, Note_on_c, 0, 76, 78
2, 234663, Note_on_c, 0, 78, 74
2, 234739, Control_c, 0, 64, 127
2, 234804, Note_on_c, 0, 57, 64
2, 234940, Note_on_c, 0, 62, 66
2, 235069, Note_on_c, 0, 50, 0
2, 235073, Note_on_c, 0, 64, 59
2, 235207, Note_on_c, 0, 86, 86
2, 235218, Note_on_c, 0, 74, 77
2, 235330, Note_on_c, 0, 57, 0
2, 235338, Note_on_c, 0, 57, 66
2, 235491, Note_on_c, 0, 62, 0
2, 235496, Note_on_c, 0, 62, 69
2, 235660, Note_on_c, 0, 64, 0
2, 235667, Note_on_c, 0, 64, 30
2, 235799, Note_on_c, 0, 78, 0
2, 235799, Note_on_c, 0, 81, 0
2, 235804, Note_on_c, 0, 85, 87
2, 235807, Note_on_c, 0, 81, 74
2, 235808, Note_on_c, 0, 73, 75
2, 235809, Note_on_c, 0, 78, 68
2, 235952, Note_on_c, 0, 57, 0
2, 235960, Note_on_c, 0, 57, 62
2, 236098, Note_on_c, 0, 62, 0
2, 236102, Note_on_c, 0, 62, 60
2, 236206, Note_on_c, 0, 64, 0
2, 236216, Note_on_c, 0, 64, 66
2, 236359, Note_on_c, 0, 74, 0
2, 236359, Note_on_c, 0, 86, 0
2, 236363, Note_on_c, 0, 86, 85
2, 236366, Note_on_c, 0, 74, 81
2, 236505, Note_on_c, 0, 57, 0
2, 236514, Note_on_c, 0, 57, 65
2, 236628, Note_on_c, 0, 62, 0
2, 236628, Note_on_c, 0, 74, 0
2, 236638, Note_on_c, 0, 62, 71
2, 236638, Note_on_c, 0, 74, 63
2, 236743, Note_on_c, 0, 64, 0
2, 236750, Note_on_c, 0, 64, 70
2, 236918, Note_on_c, 0, 86, 0
2, 236919, Note_on_c, 0, 73, 0
2, 236919, Note_on_c, 0, 85, 0
2, 236919, Note_on_c, 0, 93, 100
2, 236919, Note_on_c, 0, 74, 0
2, 236919, Note_on_c, 0, 62, 0
2, 236921, Note_on_c, 0, 76, 0
2, 236921, Control_c, 0, 64, 0
2, 236921, Note_on_c, 0, 57, 0
2, 236921, Note_on_c, 0, 64, 0
2, 236928, Note_on_c, 0, 81, 0
2, 236928, Note_on_c, 0, 88, 0
2, 236932, Note_on_c, 0, 81, 80
2, 236933, Note_on_c, 0, 83, 81
2, 236935, Note_on_c, 0, 78, 0
2, 236937, Note_on_c, 0, 88, 78
2, 236938, Note_on_c, 0, 52, 75
2, 237012, Control_c, 0, 64, 127
2, 237080, Note_on_c, 0, 59, 68
2, 237221, Note_on_c, 0, 62, 62
2, 237356, Note_on_c, 0, 64, 50
2, 237494, Note_on_c, 0, 86, 70
2, 237634, Note_on_c, 0, 59, 0
2, 237645, Note_on_c, 0, 59, 56
2, 237788, Note_on_c, 0, 62, 0
2, 237792, Note_on_c, 0, 62, 55
2, 237918, Note_on_c, 0, 64, 0
2, 237922, Note_on_c, 0, 64, 52
2, 238082, Note_on_c, 0, 85, 65
2, 238086, Note_on_c, 0, 76, 33
2, 238241, Note_on_c, 0, 59, 0
2, 238246, Note_on_c, 0, 59, 53
2, 238371, Note_on_c, 0, 62, 0
2, 238381, Note_on_c, 0, 62, 56
2, 238517, Note_on_c, 0, 64, 0
2, 238522, Note_on_c, 0, 64, 49
2, 238648, Note_on_c, 0, 83, 0
2, 238653, Note_on_c, 0, 83, 61
2, 238809, Note_on_c, 0, 59, 0
2, 238818, Note_on_c, 0, 59, 50
2, 238944, Note_on_c, 0, 92, 85
2, 238950, Note_on_c, 0, 80, 76
2, 238955, Note_on_c, 0, 62, 0
2, 238965, Note_on_c, 0, 62, 60
2, 239063, Note_on_c, 0, 64, 0
2, 239069, Note_on_c, 0, 64, 55
2, 239232, Note_on_c, 0, 52, 0
2, 239232, Note_on_c, 0, 93, 0
2, 239235, Control_c, 0, 64, 0
2, 239236, Note_on_c, 0, 92, 0
2, 239236, Note_on_c, 0, 80, 0
2, 239236, Note_on_c, 0, 86, 0
2, 239237, Note_on_c, 0, 64, 0
2, 239237, Note_on_c, 0, 62, 0
2, 239237, Note_on_c, 0, 83, 0
2, 239237, Note_on_c, 0, 59, 0
2, 239238, Note_on_c, 0, 76, 0
2, 239242, Note_on_c, 0, 93, 92
2, 239243, Note_on_c, 0, 54, 55
2, 239247, Note_on_c, 0, 81, 0
2, 239255, Note_on_c, 0, 88, 0
2, 239257, Note_on_c, 0, 81, 72
2, 239260, Note_on_c, 0, 88, 70
2, 239262, Note_on_c, 0, 85, 0
2, 239273, Note_on_c, 0, 85, 65
2, 239301, Control_c, 0, 64, 127
2, 239408, Note_on_c, 0, 61, 63
2, 239561, Note_on_c, 0, 64, 53
2, 239702, Note_on_c, 0, 69, 57
2, 239819, Note_on_c, 0, 92, 87
2, 239836, Note_on_c, 0, 80, 72
2, 239969, Note_on_c, 0, 61, 0
2, 239979, Note_on_c, 0, 61, 61
2, 240107, Note_on_c, 0, 64, 0
2, 240118, Note_on_c, 0, 64, 69
2, 240253, Note_on_c, 0, 69, 0
2, 240257, Note_on_c, 0, 69, 61
2, 240384, Note_on_c, 0, 93, 0
2, 240392, Note_on_c, 0, 93, 98
2, 240399, Note_on_c, 0, 81, 0
2, 240399, Note_on_c, 0, 88, 0
2, 240409, Note_on_c, 0, 81, 77
2, 240410, Note_on_c, 0, 88, 79
2, 240414, Note_on_c, 0, 85, 0
2, 240424, Note_on_c, 0, 85, 72
2, 240545, Note_on_c, 0, 61, 0
2, 240553, Note_on_c, 0, 61, 65
2, 240683, Note_on_c, 0, 64, 0
2, 240689, Note_on_c, 0, 64, 68
2, 240821, Note_on_c, 0, 69, 0
2, 240826, Note_on_c, 0, 69, 67
2, 240964, Note_on_c, 0, 95, 96
2, 240972, Note_on_c, 0, 83, 88
2, 240998, Note_on_c, 0, 69, 0
2, 241009, Note_on_c, 0, 69, 47
2, 241121, Note_on_c, 0, 61, 0
2, 241127, Note_on_c, 0, 61, 69
2, 241244, Note_on_c, 0, 64, 0
2, 241250, Note_on_c, 0, 64, 69
2, 241367, Note_on_c, 0, 69, 0
2, 241377, Note_on_c, 0, 69, 68
2, 241552, Note_on_c, 0, 97, 95
2, 241559, Note_on_c, 0, 93, 0
2, 241563, Note_on_c, 0, 93, 76
2, 241566, Note_on_c, 0, 54, 0
2, 241566, Note_on_c, 0, 85, 0
2, 241571, Note_on_c, 0, 90, 79
2, 241571, Control_c, 0, 64, 0
2, 241572, Note_on_c, 0, 85, 87
2, 241575, Note_on_c, 0, 81, 0
2, 241575, Note_on_c, 0, 83, 0
2, 241575, Note_on_c, 0, 92, 0
2, 241576, Note_on_c, 0, 80, 0
2, 241576, Note_on_c, 0, 64, 0
2, 241576, Note_on_c, 0, 69, 0
2, 241576, Note_on_c, 0, 61, 0
2, 241582, Note_on_c, 0, 88, 0
2, 241584, Note_on_c, 0, 47, 63
2, 241620, Note_on_c, 0, 95, 0
2, 241643, Control_c, 0, 64, 127
2, 241740, Note_on_c, 0, 54, 52
2, 241886, Note_on_c, 0, 57, 30
2, 241896, Note_on_c, 0, 57, 0
2, 241933, Note_on_c, 0, 59, 47
2, 242041, Note_on_c, 0, 63, 35
2, 242150, Note_on_c, 0, 93, 0
2, 242158, Note_on_c, 0, 93, 78
2, 242162, Note_on_c, 0, 81, 64
2, 242311, Note_on_c, 0, 54, 0
2, 242318, Note_on_c, 0, 54, 49
2, 242442, Note_on_c, 0, 59, 0
2, 242453, Note_on_c, 0, 59, 56
2, 242580, Note_on_c, 0, 63, 0
2, 242585, Note_on_c, 0, 63, 55
2, 242742, Note_on_c, 0, 78, 62
2, 242757, Note_on_c, 0, 90, 0
2, 242761, Note_on_c, 0, 90, 55
2, 242780, Note_on_c, 0, 63, 0
2, 242787, Note_on_c, 0, 63, 30
2, 242895, Note_on_c, 0, 54, 0
2, 242902, Note_on_c, 0, 54, 49
2, 243041, Note_on_c, 0, 59, 0
2, 243049, Note_on_c, 0, 59, 55
2, 243202, Note_on_c, 0, 63, 0
2, 243207, Note_on_c, 0, 63, 39
2, 243212, Note_on_c, 0, 66, 35
2, 243217, Note_on_c, 0, 66, 0
2, 243755, Note_on_c, 0, 81, 0
2, 243766, Note_on_c, 0, 81, 71
2, 243840, Note_on_c, 0, 85, 0
2, 243840, Note_on_c, 0, 97, 0
2, 244170, Note_on_c, 0, 47, 0
2, 244170, Note_on_c, 0, 81, 0
2, 244180, Note_on_c, 0, 81, 73
2, 244192, Note_on_c, 0, 74, 54
2, 244193, Note_on_c, 0, 78, 0
2, 244197, Note_on_c, 0, 78, 62
2, 244208, Note_on_c, 0, 59, 0
2, 244216, Note_on_c, 0, 54, 0
2, 244216, Note_on_c, 0, 47, 50
2, 244218, Note_on_c, 0, 62, 50
2, 244219, Note_on_c, 0, 59, 46
2, 244225, Note_on_c, 0, 54, 47
2, 244311, Control_c, 0, 64, 0
2, 244323, Control_c, 0, 64, 127
2, 244363, Note_on_c, 0, 80, 73
2, 244492, Note_on_c, 0, 81, 0
2, 244500, Note_on_c, 0, 81, 71
2, 244595, Control_c, 0, 64, 0
2, 244615, Control_c, 0, 64, 127
2, 244659, Note_on_c, 0, 83, 78
2, 244700, Control_c, 0, 64, 0
2, 244704, Note_on_c, 0, 81, 0
2, 244705, Note_on_c, 0, 78, 0
2, 244706, Note_on_c, 0, 90, 0
2, 244706, Note_on_c, 0, 63, 0
2, 244723, Note_on_c, 0, 93, 0
2, 244738, Note_on_c, 0, 80, 0
2, 244966, Note_on_c, 0, 81, 78
2, 245022, Control_c, 0, 64, 127
2, 245407, Note_on_c, 0, 76, 74
2, 245480, Note_on_c, 0, 83, 0
2, 245481, Control_c, 0, 64, 0
2, 245491, Note_on_c, 0, 74, 0
2, 246029, Note_on_c, 0, 74, 48
2, 246067, Control_c, 0, 64, 127
2, 246658, Note_on_c, 0, 81, 0
2, 246662, Note_on_c, 0, 81, 76
2, 246666, Note_on_c, 0, 59, 0
2, 246666, Note_on_c, 0, 62, 0
2, 246666, Note_on_c, 0, 52, 63
2, 246673, Note_on_c, 0, 74, 0
2, 246674, Note_on_c, 0, 62, 57
2, 246676, Note_on_c, 0, 59, 57
2, 246677, Note_on_c, 0, 71, 62
2, 246678, Note_on_c, 0, 74, 57
2, 246732, Control_c, 0, 64, 0
2, 246740, Note_on_c, 0, 76, 0
2, 246781, Note_on_c, 0, 54, 0
2, 246838, Note_on_c, 0, 80, 73
2, 246865, Note_on_c, 0, 47, 0
2, 246950, Note_on_c, 0, 81, 0
2, 246959, Note_on_c, 0, 81, 75
2, 247050, Control_c, 0, 64, 127
2, 247136, Note_on_c, 0, 83, 84
2, 247188, Control_c, 0, 64, 0
2, 247464, Note_on_c, 0, 81, 0
2, 247469, Note_on_c, 0, 81, 73
2, 247672, Control_c, 0, 64, 127
2, 247967, Note_on_c, 0, 73, 63
2, 248010, Control_c, 0, 64, 0
2, 248094, Control_c, 0, 64, 127
2, 248616, Note_on_c, 0, 71, 0
2, 248616, Note_on_c, 0, 80, 0
2, 248617, Control_c, 0, 64, 0
2, 248627, Note_on_c, 0, 71, 52
2, 248678, Control_c, 0, 64, 127
2, 248947, Note_on_c, 0, 73, 0
2, 248970, Note_on_c, 0, 80, 77
2, 249323, Note_on_c, 0, 74, 0
2, 249331, Note_on_c, 0, 83, 0
2, 249335, Note_on_c, 0, 83, 78
2, 249338, Note_on_c, 0, 80, 0
2, 249349, Note_on_c, 0, 80, 67
2, 249354, Note_on_c, 0, 71, 0
2, 249358, Note_on_c, 0, 45, 51
2, 249359, Note_on_c, 0, 71, 42
2, 249366, Control_c, 0, 64, 0
2, 249367, Note_on_c, 0, 74, 50
2, 249369, Note_on_c, 0, 76, 56
2, 249400, Note_on_c, 0, 81, 0
2, 249423, Note_on_c, 0, 59, 0
2, 249461, Note_on_c, 0, 52, 0
2, 249469, Note_on_c, 0, 62, 0
2, 249653, Control_c, 0, 64, 127
2, 249969, Note_on_c, 0, 52, 55
2, 250626, Note_on_c, 0, 56, 57
2, 251337, Note_on_c, 0, 59, 58
2, 251520, Note_on_c, 0, 45, 0
2, 251520, Note_on_c, 0, 71, 0
2, 251520, Note_on_c, 0, 74, 0
2, 251520, Note_on_c, 0, 76, 0
2, 251520, Note_on_c, 0, 80, 0
2, 251520, Note_on_c, 0, 83, 0
2, 252231, Note_on_c, 0, 64, 53
2, 252232, Note_on_c, 0, 68, 50
2, 252237, Note_on_c, 0, 62, 55
2, 254576, Note_on_c, 0, 52, 0
2, 254849, Note_on_c, 0, 81, 60
2, 255237, Note_on_c, 0, 56, 0
2, 255360, Note_on_c, 0, 59, 0
2, 255360, Note_on_c, 0, 62, 0
2, 255360, Note_on_c, 0, 64, 0
2, 255360, Note_on_c, 0, 68, 0
2, 255828, Note_on_c, 0, 81, 0
2, 255832, Note_on_c, 0, 81, 62
2, 255842, Note_on_c, 0, 73, 49
2, 255847, Note_on_c, 0, 45, 45
2, 255847, Note_on_c, 0, 76, 50
2, 255847, Note_on_c, 0, 33, 41
2, 255855, Note_on_c, 0, 69, 45
2, 255865, Control_c, 0, 64, 0
2, 255869, Note_on_c, 0, 71, 43
2, 255989, Control_c, 0, 64, 127
2, 256097, Note_on_c, 0, 33, 0
2, 256548, Note_on_c, 0, 64, 40
2, 256549, Note_on_c, 0, 57, 28
2, 256551, Note_on_c, 0, 61, 48
2, 256553, Note_on_c, 0, 59, 38
2, 257180, Note_on_c, 0, 61, 0
2, 257180, Note_on_c, 0, 64, 0
2, 257185, Note_on_c, 0, 64, 49
2, 257187, Note_on_c, 0, 57, 0
2, 257187, Note_on_c, 0, 59, 0
2, 257190, Note_on_c, 0, 61, 48
2, 257191, Note_on_c, 0, 57, 39
2, 257192, Note_on_c, 0, 59, 42
2, 257863, Note_on_c, 0, 59, 0
2, 257863, Note_on_c, 0, 64, 0
2, 257871, Note_on_c, 0, 57, 0
2, 257871, Note_on_c, 0, 61, 0
2, 257873, Note_on_c, 0, 64, 53
2, 257875, Note_on_c, 0, 59, 46
2, 257875, Note_on_c, 0, 61, 41
2, 257879, Note_on_c, 0, 57, 36
2, 258524, Note_on_c, 0, 64, 0
2, 258531, Note_on_c, 0, 57, 0
2, 258531, Note_on_c, 0, 59, 0
2, 258531, Note_on_c, 0, 61, 0
2, 258535, Note_on_c, 0, 64, 50
2, 258539, Note_on_c, 0, 45, 0
2, 258543, Note_on_c, 0, 57, 48
2, 258543, Note_on_c, 0, 61, 45
2, 258543, Note_on_c, 0, 59, 51
2, 258544, Note_on_c, 0, 45, 47
2, 258546, Note_on_c, 0, 33, 37
2, 258554, Note_on_c, 0, 33, 0
2, 258590, Note_on_c, 0, 71, 0
2, 258591, Note_on_c, 0, 73, 0
2, 258593, Control_c, 0, 64, 0
2, 258595, Note_on_c, 0, 76, 0
2, 258677, Control_c, 0, 64, 127
2, 258816, Note_on_c, 0, 81, 0
2, 259200, Note_on_c, 0, 57, 0
2, 259200, Note_on_c, 0, 59, 0
2, 259200, Note_on_c, 0, 61, 0
2, 259200, Note_on_c, 0, 64, 0
2, 259200, Note_on_c, 0, 69, 0
2, 259208, Note_on_c, 0, 59, 41
2, 259209, Note_on_c, 0, 57, 36
2, 259210, Note_on_c, 0, 61, 41
2, 259210, Note_on_c, 0, 64, 39
2, 259898, Note_on_c, 0, 64, 0
2, 259903, Note_on_c, 0, 64, 36
2, 259906, Note_on_c, 0, 57, 0
2, 259906, Note_on_c, 0, 61, 0
2, 259911, Note_on_c, 0, 61, 34
2, 259914, Note_on_c, 0, 59, 0
2, 259916, Note_on_c, 0, 57, 26
2, 259918, Note_on_c, 0, 59, 35
2, 260696, Note_on_c, 0, 40, 34
2, 260697, Note_on_c, 0, 59, 0
2, 260705, Note_on_c, 0, 61, 0
2, 260705, Note_on_c, 0, 64, 0
2, 260707, Note_on_c, 0, 59, 40
2, 260711, Note_on_c, 0, 61, 35
2, 260712, Note_on_c, 0, 57, 0
2, 260715, Note_on_c, 0, 64, 33
2, 260718, Note_on_c, 0, 57, 32
2, 261995, Note_on_c, 0, 45, 0
2, 261995, Note_on_c, 0, 59, 0
2, 261995, Note_on_c, 0, 61, 0
2, 261995, Note_on_c, 0, 64, 0
2, 262000, Note_on_c, 0, 33, 30
2, 262000, Note_on_c, 0, 64, 35
2, 262001, Note_on_c, 0, 61, 33
2, 262002, Note_on_c, 0, 45, 31
2, 262003, Note_on_c, 0, 57, 0
2, 262004, Note_on_c, 0, 59, 37
2, 262008, Note_on_c, 0, 57, 32
2, 262110, Note_on_c, 0, 40, 0
2, 262118, Control_c, 0, 64, 0
2, 263032, Control_c, 0, 64, 127
2, 266611, Note_on_c, 0, 33, 0
2, 266611, Note_on_c, 0, 45, 0
2, 266611, Note_on_c, 0, 59, 0
2, 266611, Note_on_c, 0, 61, 0
2, 266611, Note_on_c, 0, 64, 0
2, 266618, Note_on_c, 0, 57, 0
2, 275089, Control_c, 0, 64, 0
2, 275957, Control_c, 0, 64, 127
2, 278400, Control_c, 0, 64, 0
2, 281448, Control_c, 0, 64, 127
2, 283077, Control_c, 0, 64, 0
2, 283078, End_track
0, 0, End_of_file
