0, 0, Header, 1, 2, 384
1, 0, Start_track
1, 0, Tempo, 500000
1, 0, Time_signature, 4, 2, 24, 8
1, 1, End_track
2, 0, Start_track
2, 7, Control_c, 0, 64, 127
2, 1854, Note_on_c, 0, 47, 76
2, 1857, Note_on_c, 0, 35, 67
2, 3202, Note_on_c, 0, 35, 0
2, 3207, Note_on_c, 0, 35, 61
2, 3463, Note_on_c, 0, 35, 0
2, 3463, Note_on_c, 0, 47, 0
2, 3467, Note_on_c, 0, 47, 87
2, 3472, Note_on_c, 0, 35, 69
2, 4193, Note_on_c, 0, 47, 0
2, 4203, Note_on_c, 0, 47, 76
2, 4692, Note_on_c, 0, 35, 0
2, 4697, Note_on_c, 0, 35, 58
2, 4922, Note_on_c, 0, 35, 0
2, 4922, Note_on_c, 0, 47, 0
2, 4929, Note_on_c, 0, 47, 82
2, 4934, Note_on_c, 0, 35, 70
2, 5169, Note_on_c, 0, 52, 59
2, 5281, Note_on_c, 0, 54, 60
2, 5386, Note_on_c, 0, 57, 83
2, 5614, Note_on_c, 0, 47, 0
2, 5618, Note_on_c, 0, 47, 74
2, 5836, Note_on_c, 0, 54, 0
2, 5844, Note_on_c, 0, 54, 76
2, 5952, Note_on_c, 0, 57, 0
2, 5963, Note_on_c, 0, 57, 64
2, 6051, Note_on_c, 0, 35, 0
2, 6057, Note_on_c, 0, 59, 94
2, 6062, Note_on_c, 0, 35, 76
2, 6282, Note_on_c, 0, 35, 0
2, 6282, Note_on_c, 0, 47, 0
2, 6286, Note_on_c, 0, 47, 92
2, 6288, Note_on_c, 0, 35, 84
2, 6305, Control_c, 0, 64, 0
2, 6312, Control_c, 0, 64, 127
2, 6382, Note_on_c, 0, 52, 0
2, 6382, Note_on_c, 0, 54, 0
2, 6504, Note_on_c, 0, 57, 0
2, 6510, Note_on_c, 0, 57, 87
2, 6604, Note_on_c, 0, 59, 0
2, 6611, Note_on_c, 0, 59, 82
2, 6714, Note_on_c, 0, 64, 92
2, 6942, Note_on_c, 0, 47, 0
2, 6951, Note_on_c, 0, 47, 93
2, 7165, Note_on_c, 0, 59, 0
2, 7173, Note_on_c, 0, 59, 90
2, 7288, Note_on_c, 0, 64, 0
2, 7294, Note_on_c, 0, 64, 85
2, 7398, Note_on_c, 0, 69, 96
2, 7418, Note_on_c, 0, 35, 0
2, 7418, Note_on_c, 0, 47, 0
2, 7424, Note_on_c, 0, 47, 91
2, 7429, Note_on_c, 0, 35, 79
2, 7572, Control_c, 0, 64, 0
2, 7583, Note_on_c, 0, 57, 0
2, 7586, Note_on_c, 0, 64, 0
2, 7588, Note_on_c, 0, 69, 0
2, 7589, Note_on_c, 0, 59, 0
2, 7610, Note_on_c, 0, 47, 0
2, 7618, Note_on_c, 0, 35, 0
2, 7620, Note_on_c, 0, 47, 91
2, 7621, Note_on_c, 0, 71, 96
2, 7622, Note_on_c, 0, 35, 84
2, 7649, Control_c, 0, 64, 127
2, 7722, Note_on_c, 0, 69, 89
2, 7832, Note_on_c, 0, 66, 78
2, 7925, Note_on_c, 0, 69, 0
2, 7933, Note_on_c, 0, 69, 85
2, 8053, Note_on_c, 0, 64, 89
2, 8056, Note_on_c, 0, 47, 0
2, 8060, Note_on_c, 0, 47, 86
2, 8133, Note_on_c, 0, 66, 0
2, 8141, Note_on_c, 0, 66, 90
2, 8267, Note_on_c, 0, 76, 101
2, 8270, Note_on_c, 0, 57, 98
2, 8275, Note_on_c, 0, 54, 93
2, 8363, Note_on_c, 0, 71, 0
2, 8368, Note_on_c, 0, 71, 88
2, 8471, Note_on_c, 0, 69, 0
2, 8479, Note_on_c, 0, 69, 89
2, 8578, Note_on_c, 0, 71, 0
2, 8588, Note_on_c, 0, 71, 88
2, 8693, Note_on_c, 0, 66, 0
2, 8698, Note_on_c, 0, 42, 87
2, 8704, Note_on_c, 0, 66, 91
2, 8801, Note_on_c, 0, 69, 0
2, 8807, Note_on_c, 0, 69, 90
2, 8901, Note_on_c, 0, 47, 0
2, 8902, Control_c, 0, 64, 0
2, 8903, Note_on_c, 0, 64, 0
2, 8903, Note_on_c, 0, 57, 0
2, 8903, Note_on_c, 0, 42, 0
2, 8904, Note_on_c, 0, 76, 0
2, 8904, Note_on_c, 0, 54, 0
2, 8905, Note_on_c, 0, 69, 0
2, 8908, Note_on_c, 0, 35, 0
2, 8911, Note_on_c, 0, 47, 101
2, 8912, Note_on_c, 0, 78, 104
2, 8914, Note_on_c, 0, 35, 91
2, 8924, Note_on_c, 0, 66, 0
2, 8924, Note_on_c, 0, 71, 0
2, 8970, Control_c, 0, 64, 127
2, 9011, Note_on_c, 0, 76, 92
2, 9126, Note_on_c, 0, 71, 88
2, 9223, Note_on_c, 0, 76, 0
2, 9231, Note_on_c, 0, 76, 94
2, 9333, Note_on_c, 0, 69, 95
2, 9346, Note_on_c, 0, 47, 0
2, 9350, Note_on_c, 0, 47, 89
2, 9423, Note_on_c, 0, 71, 0
2, 9428, Note_on_c, 0, 71, 97
2, 9551, Note_on_c, 0, 81, 107
2, 9552, Note_on_c, 0, 57, 102
2, 9556, Note_on_c, 0, 54, 95
2, 9558, Control_c, 0, 64, 0
2, 9584, Control_c, 0, 64, 127
2, 9646, Note_on_c, 0, 78, 0
2, 9656, Note_on_c, 0, 78, 90
2, 9738, Note_on_c, 0, 76, 0
2, 9747, Note_on_c, 0, 76, 93
2, 9853, Note_on_c, 0, 78, 0
2, 9864, Note_on_c, 0, 78, 99
2, 9968, Note_on_c, 0, 71, 0
2, 9972, Note_on_c, 0, 42, 84
2, 9973, Note_on_c, 0, 71, 93
2, 10076, Note_on_c, 0, 76, 0
2, 10085, Note_on_c, 0, 76, 96
2, 10165, Note_on_c, 0, 71, 0
2, 10166, Note_on_c, 0, 42, 0
2, 10168, Note_on_c, 0, 54, 0
2, 10168, Note_on_c, 0, 76, 0
2, 10168, Note_on_c, 0, 81, 0
2, 10169, Note_on_c, 0, 57, 0
2, 10169, Note_on_c, 0, 69, 0
2, 10178, Control_c, 0, 64, 0
2, 10183, Note_on_c, 0, 47, 0
2, 10191, Note_on_c, 0, 35, 0
2, 10191, Note_on_c, 0, 78, 0
2, 10194, Note_on_c, 0, 47, 104
2, 10196, Note_on_c, 0, 35, 88
2, 10196, Note_on_c, 0, 83, 104
2, 10252, Control_c, 0, 64, 127
2, 10306, Note_on_c, 0, 81, 100
2, 10415, Note_on_c, 0, 78, 99
2, 10529, Note_on_c, 0, 81, 0
2, 10533, Note_on_c, 0, 81, 96
2, 10632, Note_on_c, 0, 59, 78
2, 10632, Note_on_c, 0, 71, 86
2, 10739, Note_on_c, 0, 76, 87
2, 10844, Note_on_c, 0, 83, 0
2, 10850, Note_on_c, 0, 83, 101
2, 10853, Note_on_c, 0, 69, 98
2, 10856, Note_on_c, 0, 66, 93
2, 10936, Note_on_c, 0, 81, 0
2, 10946, Note_on_c, 0, 81, 97
2, 11059, Note_on_c, 0, 78, 0
2, 11069, Note_on_c, 0, 78, 92
2, 11174, Note_on_c, 0, 81, 0
2, 11178, Note_on_c, 0, 81, 88
2, 11266, Note_on_c, 0, 71, 0
2, 11275, Note_on_c, 0, 71, 88
2, 11294, Note_on_c, 0, 42, 79
2, 11389, Note_on_c, 0, 76, 0
2, 11394, Note_on_c, 0, 76, 84
2, 11496, Note_on_c, 0, 47, 0
2, 11504, Note_on_c, 0, 35, 0
2, 11504, Note_on_c, 0, 83, 0
2, 11507, Note_on_c, 0, 47, 100
2, 11508, Note_on_c, 0, 35, 86
2, 11508, Note_on_c, 0, 83, 100
2, 11510, Note_on_c, 0, 59, 0
2, 11510, Note_on_c, 0, 42, 0
2, 11512, Control_c, 0, 64, 0
2, 11512, Note_on_c, 0, 81, 0
2, 11512, Note_on_c, 0, 76, 0
2, 11513, Note_on_c, 0, 69, 0
2, 11514, Note_on_c, 0, 66, 0
2, 11535, Note_on_c, 0, 71, 0
2, 11535, Note_on_c, 0, 78, 0
2, 11581, Control_c, 0, 64, 127
2, 11610, Note_on_c, 0, 81, 95
2, 11724, Note_on_c, 0, 78, 97
2, 11834, Note_on_c, 0, 81, 0
2, 11839, Note_on_c, 0, 81, 92
2, 11935, Note_on_c, 0, 71, 88
2, 11954, Note_on_c, 0, 59, 84
2, 12048, Note_on_c, 0, 76, 87
2, 12157, Note_on_c, 0, 83, 0
2, 12164, Note_on_c, 0, 69, 100
2, 12168, Note_on_c, 0, 66, 93
2, 12168, Note_on_c, 0, 83, 100
2, 12264, Note_on_c, 0, 81, 0
2, 12272, Note_on_c, 0, 81, 99
2, 12372, Note_on_c, 0, 78, 0
2, 12376, Note_on_c, 0, 78, 96
2, 12487, Note_on_c, 0, 81, 0
2, 12495, Note_on_c, 0, 81, 97
2, 12587, Note_on_c, 0, 71, 0
2, 12598, Note_on_c, 0, 42, 87
2, 12598, Note_on_c, 0, 71, 96
2, 12702, Note_on_c, 0, 76, 0
2, 12707, Note_on_c, 0, 76, 90
2, 12759, Note_on_c, 0, 69, 0
2, 12760, Note_on_c, 0, 78, 0
2, 12760, Note_on_c, 0, 66, 0
2, 12760, Note_on_c, 0, 81, 0
2, 12760, Control_c, 0, 64, 0
2, 12760, Note_on_c, 0, 83, 0
2, 12761, Note_on_c, 0, 76, 0
2, 12761, Note_on_c, 0, 42, 0
2, 12771, Note_on_c, 0, 35, 0
2, 12771, Note_on_c, 0, 59, 0
2, 12779, Note_on_c, 0, 47, 0
2, 12779, Note_on_c, 0, 71, 0
2, 12814, Note_on_c, 0, 47, 104
2, 12819, Note_on_c, 0, 35, 92
2, 12820, Note_on_c, 0, 83, 102
2, 12833, Control_c, 0, 64, 127
2, 12941, Note_on_c, 0, 81, 97
2, 13032, Note_on_c, 0, 47, 0
2, 13036, Note_on_c, 0, 78, 99
2, 13038, Note_on_c, 0, 47, 92
2, 13125, Note_on_c, 0, 81, 0
2, 13135, Note_on_c, 0, 81, 99
2, 13247, Note_on_c, 0, 75, 95
2, 13250, Note_on_c, 0, 57, 97
2, 13252, Note_on_c, 0, 54, 83
2, 13347, Note_on_c, 0, 78, 0
2, 13355, Note_on_c, 0, 78, 97
2, 13455, Note_on_c, 0, 83, 0
2, 13465, Note_on_c, 0, 83, 103
2, 13465, Note_on_c, 0, 69, 100
2, 13467, Note_on_c, 0, 66, 98
2, 13570, Note_on_c, 0, 81, 0
2, 13579, Note_on_c, 0, 81, 99
2, 13662, Note_on_c, 0, 78, 0
2, 13670, Note_on_c, 0, 78, 97
2, 13685, Note_on_c, 0, 54, 0
2, 13685, Note_on_c, 0, 57, 0
2, 13689, Note_on_c, 0, 57, 93
2, 13690, Note_on_c, 0, 54, 84
2, 13770, Note_on_c, 0, 81, 0
2, 13781, Note_on_c, 0, 81, 100
2, 13885, Note_on_c, 0, 47, 0
2, 13893, Note_on_c, 0, 75, 0
2, 13896, Note_on_c, 0, 47, 99
2, 13897, Note_on_c, 0, 75, 102
2, 13992, Note_on_c, 0, 78, 0
2, 14003, Note_on_c, 0, 78, 102
2, 14100, Note_on_c, 0, 35, 0
2, 14100, Note_on_c, 0, 83, 0
2, 14105, Note_on_c, 0, 35, 87
2, 14106, Note_on_c, 0, 83, 105
2, 14215, Note_on_c, 0, 81, 0
2, 14224, Note_on_c, 0, 81, 99
2, 14307, Note_on_c, 0, 47, 0
2, 14307, Note_on_c, 0, 78, 0
2, 14318, Note_on_c, 0, 47, 105
2, 14318, Note_on_c, 0, 78, 103
2, 14430, Note_on_c, 0, 81, 0
2, 14439, Note_on_c, 0, 81, 95
2, 14538, Note_on_c, 0, 75, 0
2, 14545, Note_on_c, 0, 54, 0
2, 14545, Note_on_c, 0, 57, 0
2, 14549, Note_on_c, 0, 75, 99
2, 14550, Note_on_c, 0, 57, 102
2, 14554, Note_on_c, 0, 54, 94
2, 14645, Note_on_c, 0, 78, 0
2, 14656, Note_on_c, 0, 78, 97
2, 14785, Note_on_c, 0, 71, 102
2, 14791, Note_on_c, 0, 66, 0
2, 14791, Note_on_c, 0, 69, 0
2, 14796, Note_on_c, 0, 69, 105
2, 14799, Note_on_c, 0, 66, 102
2, 14865, Note_on_c, 0, 73, 105
2, 14922, Note_on_c, 0, 75, 0
2, 14927, Note_on_c, 0, 75, 96
2, 14998, Note_on_c, 0, 76, 94
2, 15052, Note_on_c, 0, 78, 0
2, 15060, Note_on_c, 0, 78, 98
2, 15105, Note_on_c, 0, 80, 95
2, 15160, Note_on_c, 0, 81, 0
2, 15168, Note_on_c, 0, 81, 105
2, 15221, Note_on_c, 0, 83, 0
2, 15230, Note_on_c, 0, 83, 97
2, 15307, Note_on_c, 0, 85, 96
2, 15372, Note_on_c, 0, 87, 104
2, 15511, Note_on_c, 0, 47, 0
2, 15513, Control_c, 0, 64, 0
2, 15515, Note_on_c, 0, 81, 0
2, 15516, Note_on_c, 0, 73, 0
2, 15516, Note_on_c, 0, 78, 0
2, 15516, Note_on_c, 0, 75, 0
2, 15517, Note_on_c, 0, 69, 0
2, 15517, Note_on_c, 0, 83, 0
2, 15518, Note_on_c, 0, 85, 0
2, 15518, Note_on_c, 0, 66, 0
2, 15518, Note_on_c, 0, 57, 0
2, 15519, Note_on_c, 0, 87, 0
2, 15528, Note_on_c, 0, 54, 0
2, 15536, Note_on_c, 0, 35, 0
2, 15536, Note_on_c, 0, 71, 0
2, 15544, Note_on_c, 0, 76, 0
2, 15544, Note_on_c, 0, 80, 0
2, 15548, Note_on_c, 0, 88, 111
2, 15548, Note_on_c, 0, 76, 106
2, 15548, Note_on_c, 0, 52, 96
2, 15548, Note_on_c, 0, 40, 91
2, 15549, Note_on_c, 0, 80, 104
2, 15567, Control_c, 0, 64, 127
2, 15740, Control_c, 0, 64, 0
2, 15751, Note_on_c, 0, 40, 0
2, 15775, Note_on_c, 0, 56, 89
2, 15775, Note_on_c, 0, 59, 90
2, 15790, Note_on_c, 0, 52, 0
2, 15817, Note_on_c, 0, 56, 0
2, 15822, Note_on_c, 0, 59, 0
2, 15880, Note_on_c, 0, 56, 90
2, 15943, Note_on_c, 0, 56, 0
2, 15984, Note_on_c, 0, 59, 84
2, 15985, Note_on_c, 0, 56, 80
2, 16017, Note_on_c, 0, 59, 0
2, 16035, Note_on_c, 0, 56, 0
2, 16208, Note_on_c, 0, 47, 84
2, 16209, Note_on_c, 0, 35, 75
2, 16220, Note_on_c, 0, 88, 0
2, 16234, Note_on_c, 0, 47, 0
2, 16258, Note_on_c, 0, 35, 0
2, 16343, Note_on_c, 0, 76, 0
2, 16448, Note_on_c, 0, 56, 85
2, 16448, Note_on_c, 0, 59, 81
2, 16473, Note_on_c, 0, 80, 0
2, 16484, Note_on_c, 0, 56, 0
2, 16485, Note_on_c, 0, 59, 0
2, 16661, Note_on_c, 0, 59, 84
2, 16668, Note_on_c, 0, 56, 69
2, 16694, Note_on_c, 0, 59, 0
2, 16695, Note_on_c, 0, 56, 0
2, 16891, Note_on_c, 0, 52, 83
2, 16891, Note_on_c, 0, 40, 77
2, 16919, Control_c, 0, 64, 127
2, 17130, Note_on_c, 0, 56, 87
2, 17130, Note_on_c, 0, 59, 88
2, 17161, Note_on_c, 0, 52, 0
2, 17161, Note_on_c, 0, 40, 0
2, 17161, Control_c, 0, 64, 0
2, 17167, Note_on_c, 0, 56, 0
2, 17172, Note_on_c, 0, 59, 0
2, 17236, Note_on_c, 0, 56, 82
2, 17237, Note_on_c, 0, 59, 72
2, 17261, Note_on_c, 0, 56, 0
2, 17266, Note_on_c, 0, 59, 0
2, 17337, Note_on_c, 0, 56, 89
2, 17337, Note_on_c, 0, 59, 80
2, 17368, Note_on_c, 0, 59, 0
2, 17368, Note_on_c, 0, 56, 0
2, 17539, Note_on_c, 0, 47, 90
2, 17544, Note_on_c, 0, 35, 78
2, 17568, Note_on_c, 0, 47, 0
2, 17571, Note_on_c, 0, 35, 0
2, 17786, Note_on_c, 0, 59, 85
2, 17787, Note_on_c, 0, 56, 84
2, 17820, Note_on_c, 0, 56, 0
2, 17821, Note_on_c, 0, 59, 0
2, 18011, Note_on_c, 0, 56, 88
2, 18011, Note_on_c, 0, 59, 84
2, 18039, Note_on_c, 0, 59, 0
2, 18041, Note_on_c, 0, 56, 0
2, 18239, Note_on_c, 0, 52, 80
2, 18243, Note_on_c, 0, 40, 68
2, 18255, Control_c, 0, 64, 127
2, 18465, Note_on_c, 0, 59, 81
2, 18466, Note_on_c, 0, 56, 75
2, 18478, Control_c, 0, 64, 0
2, 18518, Note_on_c, 0, 56, 0
2, 18518, Note_on_c, 0, 59, 0
2, 18520, Note_on_c, 0, 40, 0
2, 18520, Note_on_c, 0, 52, 0
2, 18577, Note_on_c, 0, 56, 80
2, 18582, Note_on_c, 0, 59, 69
2, 18611, Note_on_c, 0, 56, 0
2, 18614, Note_on_c, 0, 59, 0
2, 18680, Note_on_c, 0, 56, 91
2, 18682, Note_on_c, 0, 59, 85
2, 18712, Note_on_c, 0, 59, 0
2, 18713, Note_on_c, 0, 56, 0
2, 18904, Note_on_c, 0, 47, 84
2, 18906, Note_on_c, 0, 35, 71
2, 18936, Note_on_c, 0, 47, 0
2, 18941, Note_on_c, 0, 35, 0
2, 19149, Note_on_c, 0, 59, 83
2, 19150, Note_on_c, 0, 56, 73
2, 19182, Note_on_c, 0, 56, 0
2, 19182, Note_on_c, 0, 59, 0
2, 19368, Note_on_c, 0, 59, 78
2, 19372, Note_on_c, 0, 56, 74
2, 19401, Note_on_c, 0, 56, 0
2, 19402, Note_on_c, 0, 59, 0
2, 19615, Note_on_c, 0, 40, 60
2, 19615, Note_on_c, 0, 52, 61
2, 19849, Note_on_c, 0, 56, 72
2, 19849, Note_on_c, 0, 59, 67
2, 19883, Note_on_c, 0, 56, 0
2, 19921, Note_on_c, 0, 59, 0
2, 19969, Note_on_c, 0, 59, 49
2, 19971, Note_on_c, 0, 56, 49
2, 20000, Note_on_c, 0, 52, 0
2, 20004, Note_on_c, 0, 59, 0
2, 20037, Note_on_c, 0, 56, 0
2, 20068, Note_on_c, 0, 59, 85
2, 20072, Note_on_c, 0, 56, 74
2, 20109, Note_on_c, 0, 56, 0
2, 20112, Note_on_c, 0, 40, 0
2, 20112, Note_on_c, 0, 59, 0
2, 20310, Note_on_c, 0, 47, 82
2, 20316, Note_on_c, 0, 59, 77
2, 20316, Note_on_c, 0, 57, 72
2, 20559, Note_on_c, 0, 49, 60
2, 20574, Note_on_c, 0, 47, 0
2, 20602, Note_on_c, 0, 49, 0
2, 20821, Note_on_c, 0, 51, 65
2, 21122, Note_on_c, 0, 52, 67
2, 21130, Note_on_c, 0, 51, 0
2, 21130, Note_on_c, 0, 57, 0
2, 21132, Note_on_c, 0, 59, 0
2, 21385, Note_on_c, 0, 66, 78
2, 21390, Note_on_c, 0, 56, 63
2, 21392, Note_on_c, 0, 59, 64
2, 21450, Note_on_c, 0, 59, 0
2, 21454, Note_on_c, 0, 56, 0
2, 21610, Note_on_c, 0, 59, 63
2, 21614, Note_on_c, 0, 56, 75
2, 21623, Note_on_c, 0, 68, 96
2, 21652, Note_on_c, 0, 66, 0
2, 21655, Note_on_c, 0, 59, 0
2, 21656, Note_on_c, 0, 52, 0
2, 21657, Note_on_c, 0, 56, 0
2, 21668, Note_on_c, 0, 68, 0
2, 21730, Note_on_c, 0, 56, 64
2, 21731, Note_on_c, 0, 59, 62
2, 21774, Note_on_c, 0, 59, 0
2, 21778, Note_on_c, 0, 56, 0
2, 21852, Note_on_c, 0, 68, 98
2, 21853, Note_on_c, 0, 56, 74
2, 21855, Note_on_c, 0, 59, 78
2, 21859, Note_on_c, 0, 52, 62
2, 21892, Note_on_c, 0, 56, 0
2, 21949, Note_on_c, 0, 59, 0
2, 22079, Note_on_c, 0, 59, 77
2, 22082, Note_on_c, 0, 56, 71
2, 22153, Note_on_c, 0, 56, 0
2, 22153, Note_on_c, 0, 52, 0
2, 22157, Note_on_c, 0, 59, 0
2, 22313, Note_on_c, 0, 59, 81
2, 22315, Note_on_c, 0, 56, 70
2, 22316, Note_on_c, 0, 51, 70
2, 22367, Note_on_c, 0, 56, 0
2, 22372, Note_on_c, 0, 51, 0
2, 22376, Note_on_c, 0, 59, 0
2, 22479, Note_on_c, 0, 68, 0
2, 22534, Note_on_c, 0, 49, 71
2, 22774, Note_on_c, 0, 68, 92
2, 22775, Note_on_c, 0, 59, 74
2, 22778, Note_on_c, 0, 56, 69
2, 22850, Note_on_c, 0, 56, 0
2, 22855, Note_on_c, 0, 59, 0
2, 22981, Note_on_c, 0, 59, 70
2, 23001, Note_on_c, 0, 71, 96
2, 23006, Note_on_c, 0, 56, 67
2, 23029, Note_on_c, 0, 59, 0
2, 23030, Note_on_c, 0, 68, 0
2, 23034, Note_on_c, 0, 49, 0
2, 23063, Note_on_c, 0, 56, 0
2, 23086, Note_on_c, 0, 71, 0
2, 23112, Note_on_c, 0, 59, 56
2, 23113, Note_on_c, 0, 56, 67
2, 23113, Note_on_c, 0, 49, 41
2, 23124, Note_on_c, 0, 49, 0
2, 23150, Note_on_c, 0, 56, 0
2, 23158, Note_on_c, 0, 59, 0
2, 23231, Note_on_c, 0, 59, 86
2, 23235, Note_on_c, 0, 49, 76
2, 23235, Note_on_c, 0, 71, 98
2, 23244, Note_on_c, 0, 56, 72
2, 23339, Note_on_c, 0, 59, 0
2, 23362, Note_on_c, 0, 56, 0
2, 23467, Note_on_c, 0, 59, 74
2, 23473, Note_on_c, 0, 56, 64
2, 23520, Note_on_c, 0, 56, 0
2, 23526, Note_on_c, 0, 59, 0
2, 23534, Note_on_c, 0, 49, 0
2, 23691, Note_on_c, 0, 59, 77
2, 23695, Note_on_c, 0, 49, 59
2, 23703, Note_on_c, 0, 56, 66
2, 23745, Note_on_c, 0, 56, 0
2, 23745, Note_on_c, 0, 59, 0
2, 23749, Note_on_c, 0, 49, 0
2, 23750, Note_on_c, 0, 71, 0
2, 23936, Note_on_c, 0, 44, 71
2, 23937, Note_on_c, 0, 71, 99
2, 24152, Note_on_c, 0, 59, 79
2, 24165, Note_on_c, 0, 52, 61
2, 24168, Note_on_c, 0, 44, 0
2, 24178, Note_on_c, 0, 44, 49
2, 24368, Note_on_c, 0, 59, 0
2, 24376, Note_on_c, 0, 44, 0
2, 24376, Note_on_c, 0, 52, 0
2, 24380, Note_on_c, 0, 59, 72
2, 24380, Note_on_c, 0, 52, 59
2, 24385, Note_on_c, 0, 44, 65
2, 24392, Note_on_c, 0, 66, 95
2, 24441, Note_on_c, 0, 71, 0
2, 24442, Note_on_c, 0, 59, 0
2, 24449, Note_on_c, 0, 66, 0
2, 24514, Note_on_c, 0, 44, 0
2, 24529, Note_on_c, 0, 52, 0
2, 24624, Note_on_c, 0, 59, 80
2, 24626, Note_on_c, 0, 52, 78
2, 24627, Note_on_c, 0, 66, 92
2, 24632, Note_on_c, 0, 44, 76
2, 24764, Note_on_c, 0, 52, 0
2, 24770, Note_on_c, 0, 59, 0
2, 24845, Note_on_c, 0, 59, 63
2, 24849, Note_on_c, 0, 52, 55
2, 24967, Note_on_c, 0, 59, 0
2, 24967, Note_on_c, 0, 52, 0
2, 24983, Note_on_c, 0, 44, 0
2, 25070, Note_on_c, 0, 59, 76
2, 25071, Note_on_c, 0, 44, 59
2, 25073, Note_on_c, 0, 52, 57
2, 25149, Note_on_c, 0, 44, 0
2, 25152, Note_on_c, 0, 52, 0
2, 25274, Note_on_c, 0, 59, 0
2, 25280, Note_on_c, 0, 66, 0
2, 25301, Note_on_c, 0, 45, 79
2, 25520, Note_on_c, 0, 45, 0
2, 25522, Note_on_c, 0, 66, 93
2, 25524, Note_on_c, 0, 59, 83
2, 25525, Note_on_c, 0, 52, 72
2, 25529, Note_on_c, 0, 45, 64
2, 25555, Note_on_c, 0, 66, 0
2, 25565, Note_on_c, 0, 59, 0
2, 25619, Note_on_c, 0, 66, 80
2, 25643, Note_on_c, 0, 52, 0
2, 25704, Note_on_c, 0, 45, 0
2, 25714, Note_on_c, 0, 52, 61
2, 25714, Note_on_c, 0, 59, 73
2, 25715, Note_on_c, 0, 45, 68
2, 25743, Note_on_c, 0, 68, 96
2, 25766, Note_on_c, 0, 66, 0
2, 25766, Note_on_c, 0, 59, 0
2, 25776, Note_on_c, 0, 68, 0
2, 25873, Note_on_c, 0, 45, 0
2, 25881, Note_on_c, 0, 52, 0
2, 25978, Note_on_c, 0, 68, 97
2, 25985, Note_on_c, 0, 59, 88
2, 25987, Note_on_c, 0, 45, 78
2, 25987, Note_on_c, 0, 52, 70
2, 26204, Note_on_c, 0, 59, 0
2, 26211, Note_on_c, 0, 52, 0
2, 26215, Note_on_c, 0, 59, 75
2, 26221, Note_on_c, 0, 52, 50
2, 26252, Note_on_c, 0, 59, 0
2, 26355, Note_on_c, 0, 45, 0
2, 26380, Note_on_c, 0, 52, 0
2, 26429, Note_on_c, 0, 47, 89
2, 26661, Note_on_c, 0, 40, 79
2, 26849, Note_on_c, 0, 47, 0
2, 26899, Note_on_c, 0, 59, 83
2, 26901, Note_on_c, 0, 52, 77
2, 26903, Note_on_c, 0, 66, 93
2, 26906, Note_on_c, 0, 56, 79
2, 26932, Note_on_c, 0, 40, 0
2, 27014, Note_on_c, 0, 56, 0
2, 27048, Note_on_c, 0, 68, 0
2, 27102, Note_on_c, 0, 52, 0
2, 27108, Note_on_c, 0, 52, 72
2, 27110, Note_on_c, 0, 59, 0
2, 27115, Note_on_c, 0, 59, 74
2, 27115, Note_on_c, 0, 56, 79
2, 27129, Note_on_c, 0, 68, 95
2, 27153, Note_on_c, 0, 66, 0
2, 27155, Note_on_c, 0, 56, 0
2, 27210, Note_on_c, 0, 52, 0
2, 27210, Note_on_c, 0, 59, 0
2, 27215, Note_on_c, 0, 59, 80
2, 27216, Note_on_c, 0, 56, 81
2, 27220, Note_on_c, 0, 52, 59
2, 27225, Note_on_c, 0, 68, 0
2, 27244, Note_on_c, 0, 59, 0
2, 27245, Note_on_c, 0, 52, 0
2, 27246, Note_on_c, 0, 56, 0
2, 27353, Note_on_c, 0, 68, 99
2, 27354, Note_on_c, 0, 40, 77
2, 27402, Control_c, 0, 64, 127
2, 27543, Control_c, 0, 64, 0
2, 27578, Note_on_c, 0, 59, 86
2, 27584, Note_on_c, 0, 52, 74
2, 27591, Note_on_c, 0, 56, 69
2, 27648, Note_on_c, 0, 40, 0
2, 27683, Note_on_c, 0, 56, 0
2, 27701, Note_on_c, 0, 52, 0
2, 27755, Note_on_c, 0, 59, 0
2, 27805, Note_on_c, 0, 39, 83
2, 27843, Note_on_c, 0, 39, 0
2, 28035, Note_on_c, 0, 37, 87
2, 28074, Note_on_c, 0, 37, 0
2, 28139, Control_c, 0, 64, 127
2, 28177, Note_on_c, 0, 68, 0
2, 28216, Control_c, 0, 64, 0
2, 28265, Note_on_c, 0, 68, 100
2, 28265, Note_on_c, 0, 59, 85
2, 28265, Note_on_c, 0, 56, 82
2, 28271, Note_on_c, 0, 52, 64
2, 28362, Control_c, 0, 64, 127
2, 28469, Note_on_c, 0, 52, 0
2, 28469, Note_on_c, 0, 56, 0
2, 28469, Note_on_c, 0, 59, 0
2, 28475, Note_on_c, 0, 59, 81
2, 28478, Note_on_c, 0, 56, 78
2, 28479, Note_on_c, 0, 52, 66
2, 28482, Note_on_c, 0, 71, 96
2, 28517, Control_c, 0, 64, 0
2, 28519, Note_on_c, 0, 56, 0
2, 28519, Note_on_c, 0, 68, 0
2, 28520, Note_on_c, 0, 52, 0
2, 28520, Note_on_c, 0, 59, 0
2, 28578, Note_on_c, 0, 52, 71
2, 28605, Note_on_c, 0, 52, 0
2, 28608, Note_on_c, 0, 71, 0
2, 28719, Note_on_c, 0, 71, 101
2, 28720, Note_on_c, 0, 37, 87
2, 28755, Note_on_c, 0, 37, 0
2, 28928, Note_on_c, 0, 59, 76
2, 28931, Note_on_c, 0, 56, 71
2, 28935, Note_on_c, 0, 52, 53
2, 29145, Note_on_c, 0, 59, 0
2, 29147, Note_on_c, 0, 73, 98
2, 29153, Note_on_c, 0, 56, 0
2, 29156, Note_on_c, 0, 59, 65
2, 29160, Note_on_c, 0, 52, 0
2, 29163, Note_on_c, 0, 56, 66
2, 29165, Note_on_c, 0, 52, 52
2, 29195, Note_on_c, 0, 56, 0
2, 29197, Note_on_c, 0, 59, 0
2, 29222, Note_on_c, 0, 71, 0
2, 29237, Note_on_c, 0, 52, 0
2, 29360, Note_on_c, 0, 73, 0
2, 29390, Note_on_c, 0, 44, 81
2, 29392, Note_on_c, 0, 66, 90
2, 29616, Note_on_c, 0, 59, 70
2, 29618, Note_on_c, 0, 54, 72
2, 29618, Note_on_c, 0, 52, 70
2, 29713, Note_on_c, 0, 44, 0
2, 29753, Note_on_c, 0, 66, 0
2, 29783, Note_on_c, 0, 52, 0
2, 29821, Note_on_c, 0, 59, 0
2, 29832, Note_on_c, 0, 52, 68
2, 29832, Note_on_c, 0, 59, 78
2, 29851, Note_on_c, 0, 66, 87
2, 29910, Note_on_c, 0, 66, 0
2, 29934, Note_on_c, 0, 52, 0
2, 29944, Note_on_c, 0, 54, 0
2, 29944, Note_on_c, 0, 59, 0
2, 29954, Note_on_c, 0, 59, 60
2, 29954, Note_on_c, 0, 54, 45
2, 30005, Note_on_c, 0, 54, 0
2, 30051, Note_on_c, 0, 59, 0
2, 30080, Note_on_c, 0, 66, 86
2, 30084, Note_on_c, 0, 44, 72
2, 30301, Note_on_c, 0, 59, 73
2, 30301, Note_on_c, 0, 52, 64
2, 30302, Note_on_c, 0, 54, 67
2, 30334, Note_on_c, 0, 44, 0
2, 30407, Note_on_c, 0, 52, 0
2, 30520, Note_on_c, 0, 59, 0
2, 30528, Note_on_c, 0, 68, 88
2, 30529, Note_on_c, 0, 59, 71
2, 30565, Note_on_c, 0, 66, 0
2, 30566, Note_on_c, 0, 59, 0
2, 30589, Note_on_c, 0, 54, 0
2, 30754, Note_on_c, 0, 64, 88
2, 30755, Note_on_c, 0, 45, 71
2, 30762, Note_on_c, 0, 61, 71
2, 30796, Note_on_c, 0, 68, 0
2, 30997, Note_on_c, 0, 59, 68
2, 31000, Note_on_c, 0, 52, 47
2, 31068, Note_on_c, 0, 59, 0
2, 31234, Note_on_c, 0, 52, 0
2, 31238, Note_on_c, 0, 59, 65
2, 31245, Note_on_c, 0, 52, 46
2, 31283, Note_on_c, 0, 59, 0
2, 31518, Note_on_c, 0, 52, 0
2, 31525, Note_on_c, 0, 57, 57
2, 31528, Note_on_c, 0, 52, 41
2, 31772, Control_c, 0, 64, 127
2, 31799, Note_on_c, 0, 80, 75
2, 31809, Note_on_c, 0, 68, 66
2, 32092, Note_on_c, 0, 81, 87
2, 32097, Note_on_c, 0, 69, 66
2, 32398, Control_c, 0, 64, 0
2, 32398, Note_on_c, 0, 83, 91
2, 32403, Note_on_c, 0, 44, 73
2, 32409, Note_on_c, 0, 71, 73
2, 32411, Note_on_c, 0, 57, 0
2, 32411, Note_on_c, 0, 61, 0
2, 32411, Note_on_c, 0, 80, 0
2, 32412, Note_on_c, 0, 64, 0
2, 32412, Note_on_c, 0, 45, 0
2, 32412, Note_on_c, 0, 68, 0
2, 32412, Note_on_c, 0, 81, 0
2, 32413, Note_on_c, 0, 52, 0
2, 32413, Note_on_c, 0, 69, 0
2, 32423, Note_on_c, 0, 76, 54
2, 32440, Control_c, 0, 64, 127
2, 32543, Note_on_c, 0, 52, 40
2, 32660, Note_on_c, 0, 59, 70
2, 32739, Note_on_c, 0, 83, 0
2, 32750, Note_on_c, 0, 83, 87
2, 32789, Note_on_c, 0, 64, 80
2, 32878, Note_on_c, 0, 83, 0
2, 32882, Note_on_c, 0, 83, 87
2, 32883, Note_on_c, 0, 66, 80
2, 32977, Note_on_c, 0, 71, 0
2, 32983, Note_on_c, 0, 71, 86
2, 33086, Note_on_c, 0, 56, 77
2, 33223, Note_on_c, 0, 64, 0
2, 33228, Note_on_c, 0, 64, 73
2, 33299, Note_on_c, 0, 81, 95
2, 33315, Note_on_c, 0, 66, 0
2, 33315, Note_on_c, 0, 76, 0
2, 33320, Note_on_c, 0, 66, 78
2, 33321, Note_on_c, 0, 76, 55
2, 33438, Note_on_c, 0, 71, 0
2, 33442, Note_on_c, 0, 71, 83
2, 33520, Note_on_c, 0, 80, 93
2, 33538, Note_on_c, 0, 66, 0
2, 33542, Note_on_c, 0, 66, 69
2, 33638, Note_on_c, 0, 64, 0
2, 33648, Note_on_c, 0, 64, 86
2, 33765, Control_c, 0, 64, 0
2, 33765, Note_on_c, 0, 78, 92
2, 33766, Note_on_c, 0, 81, 0
2, 33767, Note_on_c, 0, 52, 0
2, 33768, Note_on_c, 0, 56, 0
2, 33768, Note_on_c, 0, 59, 0
2, 33768, Note_on_c, 0, 71, 0
2, 33770, Note_on_c, 0, 66, 0
2, 33772, Note_on_c, 0, 64, 0
2, 33772, Note_on_c, 0, 80, 0
2, 33772, Note_on_c, 0, 45, 78
2, 33772, Note_on_c, 0, 44, 0
2, 33772, Note_on_c, 0, 83, 0
2, 33772, Note_on_c, 0, 76, 0
2, 33774, Note_on_c, 0, 71, 66
2, 33853, Control_c, 0, 64, 127
2, 33890, Note_on_c, 0, 52, 71
2, 34005, Note_on_c, 0, 59, 84
2, 34111, Note_on_c, 0, 76, 89
2, 34116, Note_on_c, 0, 64, 90
2, 34207, Note_on_c, 0, 66, 85
2, 34306, Note_on_c, 0, 71, 0
2, 34312, Note_on_c, 0, 71, 91
2, 34406, Note_on_c, 0, 78, 0
2, 34413, Note_on_c, 0, 78, 99
2, 34423, Note_on_c, 0, 57, 87
2, 34536, Note_on_c, 0, 64, 0
2, 34547, Note_on_c, 0, 64, 84
2, 34636, Note_on_c, 0, 66, 0
2, 34643, Note_on_c, 0, 66, 85
2, 34759, Note_on_c, 0, 71, 0
2, 34762, Note_on_c, 0, 80, 101
2, 34764, Note_on_c, 0, 71, 92
2, 34859, Note_on_c, 0, 66, 0
2, 34870, Note_on_c, 0, 66, 81
2, 34967, Note_on_c, 0, 64, 0
2, 34977, Note_on_c, 0, 64, 90
2, 35093, Control_c, 0, 64, 0
2, 35094, Note_on_c, 0, 80, 0
2, 35095, Note_on_c, 0, 52, 0
2, 35095, Note_on_c, 0, 59, 0
2, 35096, Note_on_c, 0, 57, 0
2, 35097, Note_on_c, 0, 45, 0
2, 35097, Note_on_c, 0, 71, 0
2, 35097, Note_on_c, 0, 78, 0
2, 35098, Note_on_c, 0, 47, 84
2, 35102, Note_on_c, 0, 83, 98
2, 35105, Note_on_c, 0, 66, 0
2, 35105, Note_on_c, 0, 76, 0
2, 35108, Note_on_c, 0, 71, 89
2, 35109, Note_on_c, 0, 78, 89
2, 35112, Note_on_c, 0, 64, 0
2, 35115, Note_on_c, 0, 76, 86
2, 35166, Control_c, 0, 64, 127
2, 35212, Note_on_c, 0, 71, 0
2, 35223, Note_on_c, 0, 54, 80
2, 35328, Note_on_c, 0, 59, 80
2, 35435, Note_on_c, 0, 83, 0
2, 35443, Note_on_c, 0, 83, 91
2, 35454, Note_on_c, 0, 64, 86
2, 35550, Note_on_c, 0, 83, 0
2, 35555, Note_on_c, 0, 83, 99
2, 35560, Note_on_c, 0, 66, 83
2, 35673, Note_on_c, 0, 71, 88
2, 35773, Note_on_c, 0, 59, 0
2, 35778, Note_on_c, 0, 59, 85
2, 35880, Note_on_c, 0, 64, 0
2, 35890, Note_on_c, 0, 64, 78
2, 35980, Note_on_c, 0, 81, 103
2, 35988, Note_on_c, 0, 66, 0
2, 35997, Note_on_c, 0, 66, 85
2, 36103, Note_on_c, 0, 71, 0
2, 36112, Note_on_c, 0, 71, 93
2, 36187, Note_on_c, 0, 80, 102
2, 36218, Note_on_c, 0, 66, 0
2, 36228, Note_on_c, 0, 66, 77
2, 36311, Note_on_c, 0, 64, 0
2, 36318, Note_on_c, 0, 64, 89
2, 36418, Note_on_c, 0, 78, 0
2, 36426, Control_c, 0, 64, 0
2, 36429, Note_on_c, 0, 49, 87
2, 36429, Note_on_c, 0, 78, 100
2, 36431, Note_on_c, 0, 59, 0
2, 36431, Note_on_c, 0, 47, 0
2, 36431, Note_on_c, 0, 64, 0
2, 36432, Note_on_c, 0, 83, 0
2, 36432, Note_on_c, 0, 66, 0
2, 36432, Note_on_c, 0, 81, 0
2, 36433, Note_on_c, 0, 71, 0
2, 36433, Note_on_c, 0, 76, 0
2, 36434, Note_on_c, 0, 80, 0
2, 36434, Note_on_c, 0, 54, 0
2, 36441, Note_on_c, 0, 71, 86
2, 36443, Note_on_c, 0, 76, 89
2, 36518, Control_c, 0, 64, 127
2, 36532, Note_on_c, 0, 56, 78
2, 36549, Note_on_c, 0, 49, 0
2, 36623, Note_on_c, 0, 59, 81
2, 36730, Note_on_c, 0, 64, 86
2, 36758, Note_on_c, 0, 80, 100
2, 36866, Note_on_c, 0, 66, 86
2, 36968, Note_on_c, 0, 61, 85
2, 37094, Note_on_c, 0, 78, 0
2, 37102, Note_on_c, 0, 76, 0
2, 37105, Note_on_c, 0, 78, 106
2, 37108, Note_on_c, 0, 76, 96
2, 37211, Note_on_c, 0, 75, 88
2, 37324, Note_on_c, 0, 71, 0
2, 37335, Note_on_c, 0, 71, 88
2, 37424, Note_on_c, 0, 66, 0
2, 37434, Note_on_c, 0, 66, 89
2, 37539, Note_on_c, 0, 64, 0
2, 37546, Note_on_c, 0, 64, 83
2, 37650, Note_on_c, 0, 63, 81
2, 37754, Note_on_c, 0, 71, 0
2, 37759, Note_on_c, 0, 71, 104
2, 37761, Note_on_c, 0, 59, 0
2, 37762, Note_on_c, 0, 61, 0
2, 37763, Note_on_c, 0, 80, 0
2, 37764, Note_on_c, 0, 78, 0
2, 37764, Note_on_c, 0, 64, 0
2, 37764, Note_on_c, 0, 75, 0
2, 37765, Note_on_c, 0, 56, 0
2, 37765, Note_on_c, 0, 63, 0
2, 37765, Note_on_c, 0, 76, 0
2, 37770, Note_on_c, 0, 66, 0
2, 37771, Note_on_c, 0, 44, 88
2, 37772, Note_on_c, 0, 52, 75
2, 37773, Control_c, 0, 64, 0
2, 37862, Control_c, 0, 64, 127
2, 37886, Note_on_c, 0, 76, 90
2, 38013, Note_on_c, 0, 78, 89
2, 38108, Note_on_c, 0, 71, 0
2, 38117, Note_on_c, 0, 71, 93
2, 38118, Note_on_c, 0, 83, 92
2, 38215, Note_on_c, 0, 71, 0
2, 38221, Note_on_c, 0, 88, 100
2, 38224, Note_on_c, 0, 71, 91
2, 38330, Note_on_c, 0, 90, 99
2, 38427, Note_on_c, 0, 64, 95
2, 38430, Note_on_c, 0, 95, 104
2, 38434, Note_on_c, 0, 56, 79
2, 38530, Note_on_c, 0, 90, 0
2, 38534, Note_on_c, 0, 90, 98
2, 38645, Note_on_c, 0, 88, 0
2, 38651, Note_on_c, 0, 69, 100
2, 38654, Note_on_c, 0, 88, 96
2, 38737, Note_on_c, 0, 83, 0
2, 38748, Note_on_c, 0, 83, 95
2, 38862, Note_on_c, 0, 68, 96
2, 38883, Note_on_c, 0, 78, 0
2, 38887, Note_on_c, 0, 78, 83
2, 38968, Note_on_c, 0, 76, 0
2, 38976, Note_on_c, 0, 76, 74
2, 39052, Control_c, 0, 64, 0
2, 39056, Note_on_c, 0, 95, 0
2, 39056, Note_on_c, 0, 90, 0
2, 39056, Note_on_c, 0, 69, 0
2, 39056, Note_on_c, 0, 56, 0
2, 39057, Note_on_c, 0, 68, 0
2, 39057, Note_on_c, 0, 64, 0
2, 39057, Note_on_c, 0, 88, 0
2, 39057, Note_on_c, 0, 83, 0
2, 39057, Note_on_c, 0, 76, 0
2, 39058, Note_on_c, 0, 78, 0
2, 39059, Note_on_c, 0, 44, 0
2, 39072, Note_on_c, 0, 66, 96
2, 39075, Note_on_c, 0, 52, 0
2, 39080, Note_on_c, 0, 52, 87
2, 39082, Note_on_c, 0, 45, 85
2, 39083, Note_on_c, 0, 71, 0
2, 39087, Note_on_c, 0, 49, 86
2, 39114, Control_c, 0, 64, 127
2, 39181, Note_on_c, 0, 76, 88
2, 39304, Note_on_c, 0, 78, 94
2, 39418, Note_on_c, 0, 83, 95
2, 39425, Note_on_c, 0, 64, 101
2, 39527, Note_on_c, 0, 88, 101
2, 39544, Note_on_c, 0, 66, 0
2, 39639, Note_on_c, 0, 90, 94
2, 39736, Note_on_c, 0, 64, 0
2, 39741, Note_on_c, 0, 95, 100
2, 39745, Note_on_c, 0, 66, 97
2, 39746, Note_on_c, 0, 64, 90
2, 39753, Note_on_c, 0, 57, 86
2, 39755, Note_on_c, 0, 61, 87
2, 39836, Note_on_c, 0, 90, 0
2, 39846, Note_on_c, 0, 90, 101
2, 39951, Note_on_c, 0, 88, 0
2, 39956, Note_on_c, 0, 88, 99
2, 40051, Note_on_c, 0, 83, 0
2, 40060, Note_on_c, 0, 83, 94
2, 40087, Note_on_c, 0, 68, 99
2, 40204, Note_on_c, 0, 78, 0
2, 40210, Note_on_c, 0, 78, 81
2, 40304, Note_on_c, 0, 76, 0
2, 40309, Note_on_c, 0, 76, 88
2, 40380, Note_on_c, 0, 95, 0
2, 40380, Note_on_c, 0, 49, 0
2, 40382, Note_on_c, 0, 61, 0
2, 40383, Note_on_c, 0, 68, 0
2, 40383, Control_c, 0, 64, 0
2, 40383, Note_on_c, 0, 57, 0
2, 40384, Note_on_c, 0, 66, 0
2, 40384, Note_on_c, 0, 45, 0
2, 40384, Note_on_c, 0, 78, 0
2, 40384, Note_on_c, 0, 52, 0
2, 40384, Note_on_c, 0, 88, 0
2, 40385, Note_on_c, 0, 64, 0
2, 40386, Note_on_c, 0, 76, 0
2, 40396, Note_on_c, 0, 90, 0
2, 40404, Note_on_c, 0, 83, 0
2, 40422, Note_on_c, 0, 71, 98
2, 40430, Note_on_c, 0, 59, 100
2, 40431, Note_on_c, 0, 47, 92
2, 40432, Note_on_c, 0, 54, 89
2, 40442, Control_c, 0, 64, 127
2, 40517, Note_on_c, 0, 76, 88
2, 40643, Note_on_c, 0, 78, 94
2, 40755, Note_on_c, 0, 83, 86
2, 40842, Note_on_c, 0, 71, 0
2, 40846, Note_on_c, 0, 71, 96
2, 40850, Note_on_c, 0, 88, 99
2, 40964, Note_on_c, 0, 90, 101
2, 41072, Note_on_c, 0, 71, 0
2, 41077, Control_c, 0, 64, 0
2, 41077, Note_on_c, 0, 95, 103
2, 41080, Note_on_c, 0, 59, 0
2, 41083, Note_on_c, 0, 71, 100
2, 41088, Note_on_c, 0, 66, 88
2, 41090, Note_on_c, 0, 59, 93
2, 41091, Note_on_c, 0, 63, 87
2, 41111, Control_c, 0, 64, 127
2, 41180, Note_on_c, 0, 90, 0
2, 41185, Note_on_c, 0, 90, 100
2, 41295, Note_on_c, 0, 88, 0
2, 41300, Note_on_c, 0, 73, 101
2, 41301, Note_on_c, 0, 88, 98
2, 41387, Note_on_c, 0, 83, 0
2, 41395, Note_on_c, 0, 83, 94
2, 41502, Note_on_c, 0, 78, 0
2, 41508, Note_on_c, 0, 75, 102
2, 41512, Note_on_c, 0, 78, 104
2, 41729, Note_on_c, 0, 73, 0
2, 41729, Control_c, 0, 64, 0
2, 41729, Note_on_c, 0, 47, 0
2, 41729, Note_on_c, 0, 54, 0
2, 41729, Note_on_c, 0, 88, 0
2, 41729, Note_on_c, 0, 95, 0
2, 41730, Note_on_c, 0, 63, 0
2, 41730, Note_on_c, 0, 75, 0
2, 41730, Note_on_c, 0, 66, 0
2, 41730, Note_on_c, 0, 90, 0
2, 41730, Note_on_c, 0, 83, 0
2, 41731, Note_on_c, 0, 78, 0
2, 41740, Note_on_c, 0, 59, 0
2, 41740, Note_on_c, 0, 76, 0
2, 41745, Note_on_c, 0, 64, 102
2, 41746, Note_on_c, 0, 49, 89
2, 41748, Note_on_c, 0, 71, 0
2, 41749, Note_on_c, 0, 68, 102
2, 41750, Note_on_c, 0, 56, 84
2, 41750, Note_on_c, 0, 76, 99
2, 41751, Note_on_c, 0, 59, 96
2, 41754, Note_on_c, 0, 71, 83
2, 41786, Control_c, 0, 64, 127
2, 41981, Control_c, 0, 64, 0
2, 41986, Note_on_c, 0, 49, 0
2, 41992, Note_on_c, 0, 49, 75
2, 42032, Control_c, 0, 64, 127
2, 42101, Note_on_c, 0, 59, 0
2, 42101, Note_on_c, 0, 71, 0
2, 42105, Note_on_c, 0, 63, 100
2, 42106, Note_on_c, 0, 66, 98
2, 42106, Note_on_c, 0, 75, 102
2, 42111, Note_on_c, 0, 71, 86
2, 42112, Note_on_c, 0, 59, 84
2, 42309, Note_on_c, 0, 56, 0
2, 42314, Note_on_c, 0, 56, 81
2, 42439, Note_on_c, 0, 59, 0
2, 42439, Note_on_c, 0, 64, 0
2, 42439, Note_on_c, 0, 68, 0
2, 42439, Note_on_c, 0, 76, 0
2, 42443, Note_on_c, 0, 68, 105
2, 42444, Note_on_c, 0, 76, 96
2, 42447, Note_on_c, 0, 71, 0
2, 42449, Note_on_c, 0, 64, 101
2, 42450, Note_on_c, 0, 59, 89
2, 42451, Note_on_c, 0, 71, 83
2, 42683, Note_on_c, 0, 47, 95
2, 42792, Note_on_c, 0, 66, 0
2, 42792, Note_on_c, 0, 75, 0
2, 42797, Note_on_c, 0, 78, 107
2, 42800, Note_on_c, 0, 59, 0
2, 42800, Note_on_c, 0, 71, 0
2, 42800, Note_on_c, 0, 66, 99
2, 42803, Note_on_c, 0, 75, 86
2, 42804, Note_on_c, 0, 59, 93
2, 42811, Note_on_c, 0, 71, 75
2, 42816, Note_on_c, 0, 47, 0
2, 42820, Note_on_c, 0, 47, 76
2, 42917, Note_on_c, 0, 54, 96
2, 42992, Note_on_c, 0, 47, 0
2, 42997, Note_on_c, 0, 47, 88
2, 43106, Note_on_c, 0, 59, 0
2, 43110, Note_on_c, 0, 63, 0
2, 43111, Note_on_c, 0, 71, 0
2, 43111, Note_on_c, 0, 56, 0
2, 43111, Note_on_c, 0, 66, 0
2, 43112, Control_c, 0, 64, 0
2, 43112, Note_on_c, 0, 68, 0
2, 43113, Note_on_c, 0, 75, 0
2, 43113, Note_on_c, 0, 49, 0
2, 43113, Note_on_c, 0, 78, 0
2, 43118, Note_on_c, 0, 54, 0
2, 43119, Note_on_c, 0, 47, 0
2, 43138, Note_on_c, 0, 64, 0
2, 43138, Note_on_c, 0, 76, 0
2, 43145, Note_on_c, 0, 76, 109
2, 43149, Note_on_c, 0, 64, 107
2, 43152, Note_on_c, 0, 45, 104
2, 43153, Note_on_c, 0, 69, 91
2, 43154, Note_on_c, 0, 73, 99
2, 43155, Note_on_c, 0, 71, 94
2, 43155, Note_on_c, 0, 33, 96
2, 43192, Control_c, 0, 64, 127
2, 43478, Control_c, 0, 64, 0
2, 43481, Note_on_c, 0, 76, 0
2, 43484, Note_on_c, 0, 45, 0
2, 43484, Note_on_c, 0, 73, 0
2, 43485, Note_on_c, 0, 69, 0
2, 43491, Note_on_c, 0, 33, 0
2, 43491, Note_on_c, 0, 64, 0
2, 43491, Note_on_c, 0, 71, 0
2, 43633, Note_on_c, 0, 59, 83
2, 43677, Note_on_c, 0, 59, 0
2, 43871, Note_on_c, 0, 64, 77
2, 44110, Note_on_c, 0, 66, 80
2, 44160, Note_on_c, 0, 64, 0
2, 44218, Note_on_c, 0, 35, 61
2, 44333, Note_on_c, 0, 64, 88
2, 44352, Note_on_c, 0, 35, 0
2, 44528, Note_on_c, 0, 66, 0
2, 44560, Note_on_c, 0, 52, 61
2, 44561, Note_on_c, 0, 37, 65
2, 44562, Note_on_c, 0, 44, 62
2, 44636, Control_c, 0, 64, 127
2, 44920, Note_on_c, 0, 37, 0
2, 44926, Note_on_c, 0, 37, 60
2, 44956, Control_c, 0, 64, 0
2, 44962, Note_on_c, 0, 44, 0
2, 44969, Note_on_c, 0, 52, 0
2, 44997, Note_on_c, 0, 37, 0
2, 45041, Note_on_c, 0, 59, 81
2, 45073, Note_on_c, 0, 64, 0
2, 45267, Note_on_c, 0, 66, 77
2, 45277, Note_on_c, 0, 59, 0
2, 45509, Note_on_c, 0, 64, 76
2, 45539, Note_on_c, 0, 66, 0
2, 45750, Note_on_c, 0, 66, 85
2, 45790, Note_on_c, 0, 64, 0
2, 45977, Note_on_c, 0, 47, 78
2, 45979, Note_on_c, 0, 42, 71
2, 45981, Note_on_c, 0, 35, 73
2, 46056, Control_c, 0, 64, 127
2, 46210, Control_c, 0, 64, 0
2, 46333, Note_on_c, 0, 42, 0
2, 46341, Note_on_c, 0, 47, 0
2, 46356, Note_on_c, 0, 35, 0
2, 46361, Note_on_c, 0, 35, 53
2, 46437, Note_on_c, 0, 47, 70
2, 46437, Note_on_c, 0, 42, 72
2, 46474, Note_on_c, 0, 66, 0
2, 46476, Note_on_c, 0, 42, 0
2, 46477, Note_on_c, 0, 47, 0
2, 46479, Note_on_c, 0, 35, 0
2, 46694, Note_on_c, 0, 66, 84
2, 46937, Note_on_c, 0, 64, 76
2, 46974, Note_on_c, 0, 66, 0
2, 47172, Note_on_c, 0, 35, 68
2, 47271, Note_on_c, 0, 47, 73
2, 47272, Note_on_c, 0, 42, 77
2, 47357, Note_on_c, 0, 35, 0
2, 47366, Note_on_c, 0, 64, 0
2, 47367, Note_on_c, 0, 42, 0
2, 47385, Note_on_c, 0, 47, 0
2, 47421, Note_on_c, 0, 66, 93
2, 47660, Note_on_c, 0, 64, 77
2, 47680, Note_on_c, 0, 66, 0
2, 47879, Note_on_c, 0, 66, 86
2, 47956, Note_on_c, 0, 64, 0
2, 48018, Note_on_c, 0, 47, 71
2, 48024, Note_on_c, 0, 42, 64
2, 48029, Note_on_c, 0, 35, 57
2, 48074, Note_on_c, 0, 68, 68
2, 48091, Note_on_c, 0, 35, 0
2, 48093, Note_on_c, 0, 47, 0
2, 48120, Note_on_c, 0, 69, 91
2, 48136, Note_on_c, 0, 66, 0
2, 48161, Note_on_c, 0, 42, 0
2, 48162, Note_on_c, 0, 68, 0
2, 48354, Note_on_c, 0, 68, 83
2, 48404, Note_on_c, 0, 69, 0
2, 48593, Note_on_c, 0, 64, 85
2, 48602, Note_on_c, 0, 68, 0
2, 48629, Control_c, 0, 64, 127
2, 48849, Note_on_c, 0, 73, 85
2, 48851, Note_on_c, 0, 33, 61
2, 48851, Note_on_c, 0, 69, 78
2, 48856, Note_on_c, 0, 45, 62
2, 49059, Note_on_c, 0, 33, 0
2, 49063, Note_on_c, 0, 33, 53
2, 49305, Note_on_c, 0, 33, 0
2, 49308, Note_on_c, 0, 59, 82
2, 49316, Note_on_c, 0, 33, 58
2, 49536, Note_on_c, 0, 33, 0
2, 49536, Note_on_c, 0, 64, 0
2, 49540, Note_on_c, 0, 64, 100
2, 49547, Note_on_c, 0, 33, 64
2, 49779, Note_on_c, 0, 47, 83
2, 49781, Note_on_c, 0, 75, 89
2, 49783, Note_on_c, 0, 66, 88
2, 49785, Note_on_c, 0, 35, 71
2, 49801, Control_c, 0, 64, 0
2, 49803, Note_on_c, 0, 33, 0
2, 49804, Note_on_c, 0, 59, 0
2, 49805, Note_on_c, 0, 45, 0
2, 49805, Note_on_c, 0, 73, 0
2, 49808, Note_on_c, 0, 69, 0
2, 49809, Note_on_c, 0, 64, 0
2, 49866, Control_c, 0, 64, 127
2, 50004, Note_on_c, 0, 35, 0
2, 50008, Note_on_c, 0, 35, 66
2, 50025, Note_on_c, 0, 64, 101
2, 50261, Note_on_c, 0, 76, 96
2, 50271, Note_on_c, 0, 68, 88
2, 50276, Note_on_c, 0, 37, 69
2, 50278, Note_on_c, 0, 44, 68
2, 50287, Control_c, 0, 64, 0
2, 50291, Note_on_c, 0, 75, 0
2, 50292, Note_on_c, 0, 66, 0
2, 50293, Note_on_c, 0, 47, 0
2, 50298, Note_on_c, 0, 35, 0
2, 50388, Control_c, 0, 64, 127
2, 50503, Note_on_c, 0, 37, 0
2, 50508, Note_on_c, 0, 37, 75
2, 50726, Note_on_c, 0, 37, 0
2, 50735, Note_on_c, 0, 37, 62
2, 50738, Note_on_c, 0, 59, 91
2, 50964, Note_on_c, 0, 37, 0
2, 50972, Note_on_c, 0, 37, 75
2, 50973, Note_on_c, 0, 66, 99
2, 51194, Note_on_c, 0, 37, 0
2, 51194, Note_on_c, 0, 64, 0
2, 51199, Note_on_c, 0, 37, 70
2, 51203, Note_on_c, 0, 64, 104
2, 51417, Note_on_c, 0, 37, 0
2, 51424, Note_on_c, 0, 37, 69
2, 51425, Note_on_c, 0, 66, 0
2, 51435, Note_on_c, 0, 66, 97
2, 51648, Note_on_c, 0, 44, 0
2, 51650, Note_on_c, 0, 64, 0
2, 51650, Control_c, 0, 64, 0
2, 51654, Note_on_c, 0, 68, 0
2, 51660, Note_on_c, 0, 76, 0
2, 51671, Note_on_c, 0, 59, 0
2, 51678, Note_on_c, 0, 66, 0
2, 51681, Note_on_c, 0, 78, 106
2, 51682, Note_on_c, 0, 66, 95
2, 51683, Note_on_c, 0, 42, 76
2, 51684, Note_on_c, 0, 47, 88
2, 51688, Note_on_c, 0, 71, 83
2, 51689, Note_on_c, 0, 75, 86
2, 51689, Note_on_c, 0, 35, 80
2, 51694, Note_on_c, 0, 37, 0
2, 51755, Control_c, 0, 64, 127
2, 51901, Note_on_c, 0, 35, 0
2, 51912, Note_on_c, 0, 35, 80
2, 52124, Note_on_c, 0, 35, 0
2, 52134, Note_on_c, 0, 35, 80
2, 52369, Note_on_c, 0, 35, 0
2, 52369, Note_on_c, 0, 66, 0
2, 52375, Note_on_c, 0, 35, 88
2, 52380, Note_on_c, 0, 66, 102
2, 52615, Note_on_c, 0, 35, 0
2, 52623, Note_on_c, 0, 35, 74
2, 52624, Note_on_c, 0, 64, 101
2, 52823, Note_on_c, 0, 42, 0
2, 52823, Note_on_c, 0, 47, 0
2, 52834, Note_on_c, 0, 47, 85
2, 52834, Note_on_c, 0, 42, 84
2, 52938, Note_on_c, 0, 35, 0
2, 52938, Note_on_c, 0, 42, 0
2, 52938, Note_on_c, 0, 47, 0
2, 52948, Note_on_c, 0, 42, 80
2, 52949, Note_on_c, 0, 47, 89
2, 52949, Note_on_c, 0, 35, 86
2, 53084, Note_on_c, 0, 66, 0
2, 53084, Note_on_c, 0, 71, 0
2, 53084, Note_on_c, 0, 75, 0
2, 53084, Note_on_c, 0, 78, 0
2, 53088, Note_on_c, 0, 78, 104
2, 53090, Note_on_c, 0, 66, 97
2, 53094, Note_on_c, 0, 75, 88
2, 53094, Note_on_c, 0, 71, 87
2, 53314, Note_on_c, 0, 64, 0
2, 53324, Note_on_c, 0, 76, 102
2, 53326, Note_on_c, 0, 64, 100
2, 53568, Note_on_c, 0, 66, 0
2, 53568, Note_on_c, 0, 78, 0
2, 53573, Note_on_c, 0, 78, 108
2, 53575, Note_on_c, 0, 66, 103
2, 53762, Note_on_c, 0, 75, 0
2, 53763, Note_on_c, 0, 66, 0
2, 53764, Note_on_c, 0, 71, 0
2, 53764, Note_on_c, 0, 76, 0
2, 53764, Note_on_c, 0, 42, 0
2, 53765, Note_on_c, 0, 47, 0
2, 53765, Note_on_c, 0, 78, 0
2, 53765, Control_c, 0, 64, 0
2, 53783, Note_on_c, 0, 35, 0
2, 53783, Note_on_c, 0, 64, 0
2, 53817, Note_on_c, 0, 81, 109
2, 53818, Note_on_c, 0, 69, 106
2, 53998, Note_on_c, 0, 69, 0
2, 54089, Note_on_c, 0, 80, 108
2, 54090, Control_c, 0, 64, 127
2, 54092, Note_on_c, 0, 68, 106
2, 54398, Note_on_c, 0, 76, 108
2, 54399, Note_on_c, 0, 64, 101
2, 54826, Control_c, 0, 64, 0
2, 54835, Note_on_c, 0, 76, 0
2, 54835, Note_on_c, 0, 81, 0
2, 54839, Note_on_c, 0, 85, 109
2, 54839, Note_on_c, 0, 73, 110
2, 54842, Note_on_c, 0, 33, 93
2, 54843, Note_on_c, 0, 81, 102
2, 54844, Note_on_c, 0, 76, 102
2, 54896, Control_c, 0, 64, 127
2, 55057, Note_on_c, 0, 68, 0
2, 55080, Note_on_c, 0, 73, 0
2, 55090, Note_on_c, 0, 73, 95
2, 55188, Note_on_c, 0, 76, 0
2, 55197, Note_on_c, 0, 76, 83
2, 55296, Note_on_c, 0, 85, 0
2, 55306, Note_on_c, 0, 85, 103
2, 55311, Note_on_c, 0, 57, 97
2, 55434, Note_on_c, 0, 76, 0
2, 55439, Note_on_c, 0, 76, 48
2, 55518, Note_on_c, 0, 64, 0
2, 55518, Note_on_c, 0, 81, 0
2, 55524, Note_on_c, 0, 64, 103
2, 55525, Note_on_c, 0, 69, 105
2, 55526, Note_on_c, 0, 76, 0
2, 55530, Note_on_c, 0, 81, 102
2, 55530, Note_on_c, 0, 76, 98
2, 55530, Note_on_c, 0, 61, 93
2, 55530, Note_on_c, 0, 83, 102
2, 55534, Note_on_c, 0, 80, 0
2, 55761, Note_on_c, 0, 71, 96
2, 55856, Note_on_c, 0, 76, 0
2, 55864, Note_on_c, 0, 76, 88
2, 55971, Note_on_c, 0, 83, 0
2, 55975, Note_on_c, 0, 47, 102
2, 55977, Note_on_c, 0, 35, 90
2, 55981, Note_on_c, 0, 83, 97
2, 56154, Control_c, 0, 64, 0
2, 56154, Note_on_c, 0, 57, 0
2, 56154, Note_on_c, 0, 33, 0
2, 56155, Note_on_c, 0, 64, 0
2, 56156, Note_on_c, 0, 61, 0
2, 56156, Note_on_c, 0, 69, 0
2, 56156, Note_on_c, 0, 81, 0
2, 56156, Note_on_c, 0, 83, 0
2, 56156, Note_on_c, 0, 47, 0
2, 56156, Note_on_c, 0, 35, 0
2, 56157, Note_on_c, 0, 71, 0
2, 56157, Note_on_c, 0, 85, 0
2, 56157, Note_on_c, 0, 76, 0
2, 56163, Note_on_c, 0, 73, 0
2, 56213, Note_on_c, 0, 80, 107
2, 56218, Note_on_c, 0, 71, 98
2, 56221, Note_on_c, 0, 76, 92
2, 56221, Note_on_c, 0, 49, 100
2, 56222, Note_on_c, 0, 37, 96
2, 56263, Control_c, 0, 64, 127
2, 56448, Note_on_c, 0, 49, 0
2, 56448, Note_on_c, 0, 71, 0
2, 56453, Note_on_c, 0, 71, 95
2, 56457, Note_on_c, 0, 49, 63
2, 56563, Note_on_c, 0, 76, 0
2, 56573, Note_on_c, 0, 76, 81
2, 56663, Note_on_c, 0, 49, 0
2, 56663, Note_on_c, 0, 80, 0
2, 56669, Note_on_c, 0, 49, 83
2, 56673, Note_on_c, 0, 80, 105
2, 56912, Note_on_c, 0, 64, 103
2, 56912, Note_on_c, 0, 56, 92
2, 56912, Note_on_c, 0, 59, 95
2, 57039, Note_on_c, 0, 71, 0
2, 57043, Note_on_c, 0, 71, 91
2, 57139, Note_on_c, 0, 76, 0
2, 57143, Note_on_c, 0, 76, 92
2, 57244, Note_on_c, 0, 78, 96
2, 57354, Note_on_c, 0, 37, 0
2, 57354, Note_on_c, 0, 49, 0
2, 57354, Note_on_c, 0, 80, 0
2, 57359, Note_on_c, 0, 80, 100
2, 57361, Note_on_c, 0, 37, 88
2, 57363, Note_on_c, 0, 49, 86
2, 57542, Control_c, 0, 64, 0
2, 57573, Note_on_c, 0, 80, 0
2, 57573, Note_on_c, 0, 37, 0
2, 57573, Note_on_c, 0, 59, 0
2, 57574, Note_on_c, 0, 49, 0
2, 57576, Note_on_c, 0, 64, 0
2, 57576, Note_on_c, 0, 56, 0
2, 57592, Note_on_c, 0, 71, 0
2, 57592, Note_on_c, 0, 76, 0
2, 57595, Note_on_c, 0, 83, 104
2, 57595, Note_on_c, 0, 47, 106
2, 57596, Note_on_c, 0, 35, 91
2, 57596, Note_on_c, 0, 71, 102
2, 57599, Note_on_c, 0, 76, 95
2, 57669, Control_c, 0, 64, 127
2, 57822, Note_on_c, 0, 71, 0
2, 57827, Note_on_c, 0, 71, 93
2, 57937, Note_on_c, 0, 76, 0
2, 57943, Note_on_c, 0, 76, 87
2, 58030, Note_on_c, 0, 47, 0
2, 58035, Note_on_c, 0, 59, 94
2, 58037, Note_on_c, 0, 83, 0
2, 58038, Note_on_c, 0, 54, 71
2, 58040, Note_on_c, 0, 47, 88
2, 58045, Note_on_c, 0, 83, 100
2, 58275, Note_on_c, 0, 59, 0
2, 58275, Note_on_c, 0, 76, 0
2, 58280, Note_on_c, 0, 66, 101
2, 58282, Note_on_c, 0, 76, 107
2, 58285, Note_on_c, 0, 59, 89
2, 58286, Note_on_c, 0, 64, 103
2, 58490, Note_on_c, 0, 71, 0
2, 58496, Note_on_c, 0, 71, 86
2, 58606, Note_on_c, 0, 76, 0
2, 58612, Note_on_c, 0, 76, 79
2, 58713, Note_on_c, 0, 35, 0
2, 58713, Note_on_c, 0, 47, 0
2, 58723, Note_on_c, 0, 47, 93
2, 58724, Note_on_c, 0, 35, 88
2, 58725, Note_on_c, 0, 80, 104
2, 58951, Note_on_c, 0, 64, 0
2, 58951, Note_on_c, 0, 66, 0
2, 58951, Note_on_c, 0, 78, 0
2, 58955, Note_on_c, 0, 78, 108
2, 58958, Note_on_c, 0, 64, 103
2, 58960, Note_on_c, 0, 66, 105
2, 59069, Note_on_c, 0, 63, 90
2, 59174, Note_on_c, 0, 64, 0
2, 59174, Note_on_c, 0, 76, 0
2, 59184, Note_on_c, 0, 61, 93
2, 59184, Note_on_c, 0, 76, 104
2, 59185, Note_on_c, 0, 64, 99
2, 59297, Note_on_c, 0, 59, 0
2, 59303, Note_on_c, 0, 59, 89
2, 59397, Note_on_c, 0, 78, 0
2, 59404, Note_on_c, 0, 66, 0
2, 59407, Note_on_c, 0, 78, 105
2, 59408, Note_on_c, 0, 57, 97
2, 59410, Note_on_c, 0, 66, 95
2, 59531, Note_on_c, 0, 56, 87
2, 59627, Note_on_c, 0, 54, 0
2, 59630, Note_on_c, 0, 81, 111
2, 59632, Note_on_c, 0, 54, 88
2, 59632, Note_on_c, 0, 69, 99
2, 59734, Note_on_c, 0, 52, 89
2, 59842, Note_on_c, 0, 80, 0
2, 59848, Note_on_c, 0, 51, 89
2, 59850, Note_on_c, 0, 80, 105
2, 59854, Note_on_c, 0, 68, 101
2, 59934, Note_on_c, 0, 51, 0
2, 59943, Note_on_c, 0, 49, 95
2, 59944, Note_on_c, 0, 51, 81
2, 60057, Note_on_c, 0, 47, 0
2, 60057, Note_on_c, 0, 76, 0
2, 60065, Note_on_c, 0, 52, 0
2, 60065, Note_on_c, 0, 64, 0
2, 60067, Note_on_c, 0, 47, 100
2, 60068, Note_on_c, 0, 76, 104
2, 60071, Note_on_c, 0, 64, 102
2, 60071, Note_on_c, 0, 52, 90
2, 60261, Control_c, 0, 64, 0
2, 60261, Note_on_c, 0, 80, 0
2, 60261, Note_on_c, 0, 64, 0
2, 60261, Note_on_c, 0, 68, 0
2, 60261, Note_on_c, 0, 69, 0
2, 60261, Note_on_c, 0, 52, 0
2, 60261, Note_on_c, 0, 81, 0
2, 60262, Note_on_c, 0, 56, 0
2, 60262, Note_on_c, 0, 66, 0
2, 60262, Note_on_c, 0, 63, 0
2, 60262, Note_on_c, 0, 61, 0
2, 60262, Note_on_c, 0, 78, 0
2, 60262, Note_on_c, 0, 57, 0
2, 60262, Note_on_c, 0, 59, 0
2, 60262, Note_on_c, 0, 49, 0
2, 60262, Note_on_c, 0, 54, 0
2, 60262, Note_on_c, 0, 51, 0
2, 60272, Note_on_c, 0, 71, 0
2, 60272, Note_on_c, 0, 83, 0
2, 60280, Note_on_c, 0, 35, 0
2, 60280, Note_on_c, 0, 47, 0
2, 60280, Note_on_c, 0, 76, 0
2, 60313, Note_on_c, 0, 73, 113
2, 60313, Note_on_c, 0, 85, 111
2, 60315, Note_on_c, 0, 45, 100
2, 60315, Note_on_c, 0, 33, 94
2, 60316, Note_on_c, 0, 80, 102
2, 60319, Note_on_c, 0, 76, 101
2, 60372, Control_c, 0, 64, 127
2, 60541, Note_on_c, 0, 73, 0
2, 60552, Note_on_c, 0, 73, 96
2, 60641, Note_on_c, 0, 76, 0
2, 60645, Note_on_c, 0, 76, 84
2, 60746, Note_on_c, 0, 52, 81
2, 60748, Note_on_c, 0, 45, 0
2, 60753, Note_on_c, 0, 45, 84
2, 60756, Note_on_c, 0, 85, 0
2, 60761, Note_on_c, 0, 85, 101
2, 60971, Control_c, 0, 64, 0
2, 60979, Note_on_c, 0, 76, 0
2, 60980, Note_on_c, 0, 64, 104
2, 60980, Note_on_c, 0, 69, 104
2, 60981, Note_on_c, 0, 83, 104
2, 60983, Note_on_c, 0, 76, 91
2, 60983, Note_on_c, 0, 61, 99
2, 61009, Control_c, 0, 64, 127
2, 61202, Note_on_c, 0, 71, 94
2, 61301, Note_on_c, 0, 76, 0
2, 61312, Note_on_c, 0, 76, 81
2, 61424, Note_on_c, 0, 83, 0
2, 61429, Note_on_c, 0, 47, 98
2, 61429, Note_on_c, 0, 83, 100
2, 61431, Note_on_c, 0, 35, 88
2, 61628, Note_on_c, 0, 47, 0
2, 61628, Note_on_c, 0, 35, 0
2, 61628, Note_on_c, 0, 45, 0
2, 61629, Note_on_c, 0, 71, 0
2, 61629, Note_on_c, 0, 61, 0
2, 61629, Note_on_c, 0, 85, 0
2, 61629, Note_on_c, 0, 69, 0
2, 61629, Note_on_c, 0, 64, 0
2, 61629, Note_on_c, 0, 52, 0
2, 61629, Note_on_c, 0, 83, 0
2, 61630, Control_c, 0, 64, 0
2, 61639, Note_on_c, 0, 33, 0
2, 61639, Note_on_c, 0, 73, 0
2, 61662, Note_on_c, 0, 76, 0
2, 61662, Note_on_c, 0, 80, 0
2, 61667, Note_on_c, 0, 80, 107
2, 61674, Note_on_c, 0, 49, 100
2, 61674, Note_on_c, 0, 71, 96
2, 61675, Note_on_c, 0, 37, 97
2, 61677, Note_on_c, 0, 76, 93
2, 61739, Control_c, 0, 64, 127
2, 61900, Note_on_c, 0, 71, 0
2, 61905, Note_on_c, 0, 71, 93
2, 62008, Note_on_c, 0, 76, 0
2, 62012, Note_on_c, 0, 76, 89
2, 62123, Note_on_c, 0, 37, 0
2, 62123, Note_on_c, 0, 49, 0
2, 62123, Note_on_c, 0, 80, 0
2, 62128, Note_on_c, 0, 80, 101
2, 62128, Note_on_c, 0, 49, 86
2, 62129, Note_on_c, 0, 37, 77
2, 62361, Note_on_c, 0, 64, 104
2, 62363, Note_on_c, 0, 59, 99
2, 62365, Note_on_c, 0, 56, 96
2, 62499, Note_on_c, 0, 71, 0
2, 62504, Note_on_c, 0, 71, 92
2, 62592, Note_on_c, 0, 76, 0
2, 62599, Note_on_c, 0, 76, 94
2, 62705, Note_on_c, 0, 78, 94
2, 62807, Note_on_c, 0, 80, 0
2, 62817, Note_on_c, 0, 80, 101
2, 62822, Note_on_c, 0, 37, 0
2, 62822, Note_on_c, 0, 49, 0
2, 62827, Note_on_c, 0, 49, 86
2, 62829, Note_on_c, 0, 37, 83
2, 63005, Note_on_c, 0, 37, 0
2, 63005, Note_on_c, 0, 59, 0
2, 63006, Note_on_c, 0, 49, 0
2, 63006, Note_on_c, 0, 80, 0
2, 63008, Control_c, 0, 64, 0
2, 63008, Note_on_c, 0, 56, 0
2, 63008, Note_on_c, 0, 64, 0
2, 63045, Note_on_c, 0, 71, 0
2, 63045, Note_on_c, 0, 76, 0
2, 63049, Note_on_c, 0, 83, 105
2, 63049, Note_on_c, 0, 47, 106
2, 63052, Note_on_c, 0, 35, 92
2, 63052, Note_on_c, 0, 78, 0
2, 63054, Note_on_c, 0, 71, 103
2, 63055, Note_on_c, 0, 76, 97
2, 63056, Note_on_c, 0, 78, 95
2, 63121, Control_c, 0, 64, 127
2, 63275, Note_on_c, 0, 71, 0
2, 63280, Note_on_c, 0, 71, 95
2, 63390, Note_on_c, 0, 76, 0
2, 63395, Note_on_c, 0, 76, 90
2, 63475, Note_on_c, 0, 47, 0
2, 63478, Note_on_c, 0, 59, 91
2, 63479, Note_on_c, 0, 47, 85
2, 63479, Note_on_c, 0, 54, 72
2, 63498, Note_on_c, 0, 83, 0
2, 63502, Note_on_c, 0, 83, 101
2, 63720, Note_on_c, 0, 76, 0
2, 63726, Note_on_c, 0, 66, 102
2, 63730, Note_on_c, 0, 76, 110
2, 63731, Note_on_c, 0, 64, 108
2, 63736, Note_on_c, 0, 59, 0
2, 63746, Note_on_c, 0, 59, 87
2, 63943, Note_on_c, 0, 71, 0
2, 63948, Note_on_c, 0, 71, 92
2, 64058, Note_on_c, 0, 76, 0
2, 64068, Note_on_c, 0, 76, 86
2, 64158, Note_on_c, 0, 35, 0
2, 64163, Note_on_c, 0, 80, 104
2, 64163, Note_on_c, 0, 35, 90
2, 64396, Note_on_c, 0, 47, 0
2, 64396, Note_on_c, 0, 78, 0
2, 64403, Note_on_c, 0, 47, 99
2, 64404, Note_on_c, 0, 66, 0
2, 64407, Note_on_c, 0, 78, 109
2, 64408, Note_on_c, 0, 66, 101
2, 64413, Note_on_c, 0, 75, 79
2, 64518, Note_on_c, 0, 49, 77
2, 64627, Note_on_c, 0, 76, 0
2, 64634, Note_on_c, 0, 51, 87
2, 64634, Note_on_c, 0, 64, 0
2, 64636, Note_on_c, 0, 76, 102
2, 64639, Note_on_c, 0, 64, 98
2, 64725, Note_on_c, 0, 52, 88
2, 64842, Note_on_c, 0, 54, 0
2, 64849, Note_on_c, 0, 66, 0
2, 64849, Note_on_c, 0, 78, 0
2, 64851, Note_on_c, 0, 54, 98
2, 64855, Note_on_c, 0, 78, 109
2, 64860, Note_on_c, 0, 66, 102
2, 64954, Note_on_c, 0, 56, 87
2, 65053, Note_on_c, 0, 57, 98
2, 65082, Note_on_c, 0, 81, 109
2, 65084, Note_on_c, 0, 69, 100
2, 65157, Note_on_c, 0, 59, 0
2, 65161, Note_on_c, 0, 59, 96
2, 65283, Note_on_c, 0, 61, 100
2, 65303, Note_on_c, 0, 80, 0
2, 65307, Note_on_c, 0, 80, 104
2, 65313, Note_on_c, 0, 68, 100
2, 65393, Note_on_c, 0, 63, 99
2, 65495, Note_on_c, 0, 64, 0
2, 65505, Note_on_c, 0, 64, 108
2, 65518, Note_on_c, 0, 76, 0
2, 65522, Note_on_c, 0, 76, 105
2, 65756, Note_on_c, 0, 76, 0
2, 65756, Note_on_c, 0, 81, 0
2, 65761, Note_on_c, 0, 76, 88
2, 65763, Note_on_c, 0, 81, 97
2, 65763, Note_on_c, 0, 85, 105
2, 65766, Note_on_c, 0, 45, 106
2, 65766, Note_on_c, 0, 33, 93
2, 65767, Control_c, 0, 64, 0
2, 65781, Note_on_c, 0, 49, 0
2, 65781, Note_on_c, 0, 56, 0
2, 65782, Note_on_c, 0, 75, 0
2, 65782, Note_on_c, 0, 80, 0
2, 65782, Note_on_c, 0, 47, 0
2, 65782, Note_on_c, 0, 68, 0
2, 65782, Note_on_c, 0, 69, 0
2, 65782, Note_on_c, 0, 61, 0
2, 65782, Note_on_c, 0, 51, 0
2, 65782, Note_on_c, 0, 83, 0
2, 65782, Note_on_c, 0, 63, 0
2, 65782, Note_on_c, 0, 52, 0
2, 65783, Note_on_c, 0, 78, 0
2, 65783, Note_on_c, 0, 57, 0
2, 65783, Note_on_c, 0, 59, 0
2, 65783, Note_on_c, 0, 35, 0
2, 65783, Note_on_c, 0, 71, 0
2, 65794, Note_on_c, 0, 54, 0
2, 65794, Note_on_c, 0, 64, 0
2, 65794, Note_on_c, 0, 66, 0
2, 65840, Control_c, 0, 64, 127
2, 65906, Note_on_c, 0, 73, 84
2, 65978, Note_on_c, 0, 45, 0
2, 65987, Note_on_c, 0, 45, 75
2, 66001, Note_on_c, 0, 76, 0
2, 66011, Note_on_c, 0, 76, 85
2, 66106, Note_on_c, 0, 52, 85
2, 66117, Note_on_c, 0, 81, 0
2, 66121, Note_on_c, 0, 81, 85
2, 66221, Note_on_c, 0, 59, 102
2, 66232, Note_on_c, 0, 52, 0
2, 66232, Note_on_c, 0, 85, 0
2, 66236, Note_on_c, 0, 52, 70
2, 66238, Note_on_c, 0, 85, 97
2, 66347, Note_on_c, 0, 73, 0
2, 66351, Note_on_c, 0, 73, 83
2, 66456, Note_on_c, 0, 64, 109
2, 66459, Note_on_c, 0, 83, 100
2, 66462, Note_on_c, 0, 81, 0
2, 66468, Note_on_c, 0, 81, 91
2, 66585, Note_on_c, 0, 71, 82
2, 66670, Note_on_c, 0, 66, 103
2, 66693, Note_on_c, 0, 76, 0
2, 66698, Note_on_c, 0, 76, 69
2, 66808, Note_on_c, 0, 81, 0
2, 66817, Note_on_c, 0, 81, 89
2, 66885, Note_on_c, 0, 64, 0
2, 66891, Note_on_c, 0, 64, 104
2, 66915, Note_on_c, 0, 83, 0
2, 66920, Note_on_c, 0, 83, 92
2, 67015, Note_on_c, 0, 71, 0
2, 67022, Note_on_c, 0, 71, 83
2, 67119, Control_c, 0, 64, 0
2, 67120, Note_on_c, 0, 45, 0
2, 67120, Note_on_c, 0, 52, 0
2, 67121, Note_on_c, 0, 81, 0
2, 67122, Note_on_c, 0, 73, 0
2, 67122, Note_on_c, 0, 64, 0
2, 67123, Note_on_c, 0, 66, 0
2, 67124, Note_on_c, 0, 85, 0
2, 67124, Note_on_c, 0, 59, 0
2, 67124, Note_on_c, 0, 83, 0
2, 67125, Note_on_c, 0, 71, 0
2, 67130, Note_on_c, 0, 33, 0
2, 67130, Note_on_c, 0, 76, 0
2, 67133, Note_on_c, 0, 80, 101
2, 67135, Note_on_c, 0, 49, 101
2, 67135, Note_on_c, 0, 37, 94
2, 67139, Note_on_c, 0, 76, 93
2, 67142, Note_on_c, 0, 78, 90
2, 67215, Control_c, 0, 64, 127
2, 67266, Note_on_c, 0, 71, 76
2, 67338, Note_on_c, 0, 49, 0
2, 67348, Note_on_c, 0, 49, 58
2, 67368, Note_on_c, 0, 76, 0
2, 67375, Note_on_c, 0, 76, 78
2, 67484, Note_on_c, 0, 78, 0
2, 67490, Note_on_c, 0, 78, 91
2, 67490, Note_on_c, 0, 56, 76
2, 67584, Note_on_c, 0, 80, 0
2, 67592, Note_on_c, 0, 59, 101
2, 67595, Note_on_c, 0, 80, 91
2, 67637, Note_on_c, 0, 78, 0
2, 67648, Note_on_c, 0, 78, 35
2, 67722, Note_on_c, 0, 71, 0
2, 67732, Note_on_c, 0, 71, 69
2, 67817, Note_on_c, 0, 66, 107
2, 67822, Note_on_c, 0, 80, 0
2, 67832, Note_on_c, 0, 80, 91
2, 67929, Note_on_c, 0, 71, 0
2, 67939, Note_on_c, 0, 71, 82
2, 68044, Note_on_c, 0, 76, 0
2, 68050, Note_on_c, 0, 76, 89
2, 68052, Note_on_c, 0, 64, 104
2, 68152, Note_on_c, 0, 78, 0
2, 68159, Note_on_c, 0, 78, 91
2, 68267, Note_on_c, 0, 66, 0
2, 68267, Note_on_c, 0, 80, 0
2, 68271, Note_on_c, 0, 66, 100
2, 68271, Note_on_c, 0, 80, 90
2, 68367, Note_on_c, 0, 71, 0
2, 68374, Note_on_c, 0, 71, 87
2, 68505, Note_on_c, 0, 76, 0
2, 68505, Note_on_c, 0, 78, 0
2, 68509, Note_on_c, 0, 47, 106
2, 68510, Note_on_c, 0, 83, 97
2, 68513, Note_on_c, 0, 76, 92
2, 68515, Note_on_c, 0, 35, 90
2, 68515, Note_on_c, 0, 78, 94
2, 68525, Control_c, 0, 64, 0
2, 68525, Note_on_c, 0, 64, 0
2, 68529, Note_on_c, 0, 80, 0
2, 68531, Note_on_c, 0, 66, 0
2, 68531, Note_on_c, 0, 71, 0
2, 68532, Note_on_c, 0, 56, 0
2, 68532, Note_on_c, 0, 59, 0
2, 68536, Note_on_c, 0, 49, 0
2, 68551, Note_on_c, 0, 37, 0
2, 68590, Control_c, 0, 64, 127
2, 68640, Note_on_c, 0, 71, 82
2, 68720, Note_on_c, 0, 47, 0
2, 68724, Note_on_c, 0, 47, 81
2, 68743, Note_on_c, 0, 76, 0
2, 68754, Note_on_c, 0, 76, 87
2, 68843, Note_on_c, 0, 78, 0
2, 68853, Note_on_c, 0, 78, 92
2, 68854, Note_on_c, 0, 54, 86
2, 68966, Note_on_c, 0, 83, 0
2, 68972, Note_on_c, 0, 83, 90
2, 68977, Note_on_c, 0, 59, 96
2, 69066, Note_on_c, 0, 71, 0
2, 69072, Note_on_c, 0, 71, 77
2, 69196, Note_on_c, 0, 59, 0
2, 69204, Note_on_c, 0, 76, 0
2, 69207, Note_on_c, 0, 59, 97
2, 69207, Note_on_c, 0, 66, 101
2, 69208, Note_on_c, 0, 76, 101
2, 69215, Control_c, 0, 64, 0
2, 69242, Control_c, 0, 64, 127
2, 69312, Note_on_c, 0, 71, 0
2, 69318, Note_on_c, 0, 71, 86
2, 69411, Note_on_c, 0, 76, 0
2, 69416, Note_on_c, 0, 64, 104
2, 69419, Note_on_c, 0, 76, 90
2, 69519, Note_on_c, 0, 78, 0
2, 69528, Note_on_c, 0, 78, 94
2, 69648, Note_on_c, 0, 80, 92
2, 69657, Note_on_c, 0, 47, 0
2, 69657, Note_on_c, 0, 59, 0
2, 69662, Note_on_c, 0, 59, 94
2, 69663, Note_on_c, 0, 47, 90
2, 69742, Note_on_c, 0, 71, 0
2, 69752, Note_on_c, 0, 71, 87
2, 69872, Note_on_c, 0, 66, 0
2, 69879, Note_on_c, 0, 66, 105
2, 69880, Note_on_c, 0, 59, 0
2, 69884, Note_on_c, 0, 95, 101
2, 69884, Note_on_c, 0, 59, 99
2, 69894, Note_on_c, 0, 87, 78
2, 70018, Note_on_c, 0, 83, 0
2, 70027, Note_on_c, 0, 83, 69
2, 70095, Note_on_c, 0, 64, 0
2, 70106, Note_on_c, 0, 64, 101
2, 70108, Note_on_c, 0, 93, 100
2, 70210, Note_on_c, 0, 83, 0
2, 70216, Note_on_c, 0, 83, 83
2, 70325, Note_on_c, 0, 66, 0
2, 70330, Note_on_c, 0, 92, 104
2, 70333, Note_on_c, 0, 66, 98
2, 70433, Note_on_c, 0, 83, 0
2, 70441, Note_on_c, 0, 83, 90
2, 70552, Note_on_c, 0, 90, 95
2, 70556, Note_on_c, 0, 35, 0
2, 70556, Note_on_c, 0, 59, 0
2, 70556, Note_on_c, 0, 87, 0
2, 70559, Note_on_c, 0, 69, 109
2, 70560, Note_on_c, 0, 87, 94
2, 70561, Note_on_c, 0, 59, 102
2, 70577, Note_on_c, 0, 47, 0
2, 70663, Note_on_c, 0, 83, 0
2, 70675, Note_on_c, 0, 83, 84
2, 70778, Note_on_c, 0, 92, 0
2, 70782, Note_on_c, 0, 92, 95
2, 70787, Note_on_c, 0, 68, 105
2, 70871, Note_on_c, 0, 83, 0
2, 70876, Note_on_c, 0, 83, 89
2, 70993, Note_on_c, 0, 64, 0
2, 70998, Note_on_c, 0, 64, 104
2, 70999, Note_on_c, 0, 88, 105
2, 71040, Note_on_c, 0, 54, 0
2, 71093, Note_on_c, 0, 76, 0
2, 71100, Note_on_c, 0, 76, 75
2, 71221, Control_c, 0, 64, 0
2, 71234, Note_on_c, 0, 80, 0
2, 71234, Note_on_c, 0, 64, 0
2, 71234, Note_on_c, 0, 93, 0
2, 71234, Note_on_c, 0, 66, 0
2, 71234, Note_on_c, 0, 68, 0
2, 71234, Note_on_c, 0, 90, 0
2, 71234, Note_on_c, 0, 87, 0
2, 71234, Note_on_c, 0, 92, 0
2, 71235, Note_on_c, 0, 78, 0
2, 71235, Note_on_c, 0, 95, 0
2, 71235, Note_on_c, 0, 83, 0
2, 71235, Note_on_c, 0, 69, 0
2, 71235, Note_on_c, 0, 76, 0
2, 71236, Note_on_c, 0, 88, 0
2, 71240, Note_on_c, 0, 45, 106
2, 71241, Note_on_c, 0, 33, 92
2, 71241, Note_on_c, 0, 85, 106
2, 71243, Note_on_c, 0, 81, 93
2, 71247, Note_on_c, 0, 59, 0
2, 71247, Note_on_c, 0, 71, 0
2, 71301, Control_c, 0, 64, 127
2, 71381, Note_on_c, 0, 73, 79
2, 71456, Note_on_c, 0, 57, 75
2, 71481, Note_on_c, 0, 76, 68
2, 71575, Note_on_c, 0, 52, 79
2, 71592, Note_on_c, 0, 81, 0
2, 71602, Note_on_c, 0, 81, 82
2, 71685, Note_on_c, 0, 85, 0
2, 71690, Note_on_c, 0, 85, 97
2, 71692, Note_on_c, 0, 59, 100
2, 71784, Note_on_c, 0, 73, 0
2, 71794, Note_on_c, 0, 73, 79
2, 71907, Note_on_c, 0, 81, 0
2, 71911, Note_on_c, 0, 64, 106
2, 71911, Note_on_c, 0, 83, 97
2, 71918, Note_on_c, 0, 81, 87
2, 72035, Note_on_c, 0, 71, 79
2, 72122, Note_on_c, 0, 76, 0
2, 72127, Note_on_c, 0, 66, 103
2, 72132, Note_on_c, 0, 76, 73
2, 72253, Note_on_c, 0, 81, 0
2, 72262, Note_on_c, 0, 81, 82
2, 72337, Note_on_c, 0, 64, 0
2, 72347, Note_on_c, 0, 64, 102
2, 72360, Note_on_c, 0, 83, 0
2, 72366, Note_on_c, 0, 83, 93
2, 72476, Note_on_c, 0, 71, 0
2, 72483, Note_on_c, 0, 71, 83
2, 72579, Control_c, 0, 64, 0
2, 72582, Note_on_c, 0, 80, 93
2, 72583, Note_on_c, 0, 33, 0
2, 72583, Note_on_c, 0, 76, 0
2, 72584, Note_on_c, 0, 45, 0
2, 72584, Note_on_c, 0, 52, 0
2, 72584, Note_on_c, 0, 81, 0
2, 72584, Note_on_c, 0, 57, 0
2, 72585, Note_on_c, 0, 64, 0
2, 72585, Note_on_c, 0, 66, 0
2, 72585, Note_on_c, 0, 85, 0
2, 72585, Note_on_c, 0, 83, 0
2, 72586, Note_on_c, 0, 71, 0
2, 72586, Note_on_c, 0, 59, 0
2, 72587, Note_on_c, 0, 37, 100
2, 72587, Note_on_c, 0, 49, 98
2, 72589, Note_on_c, 0, 76, 88
2, 72606, Note_on_c, 0, 73, 0
2, 72634, Note_on_c, 0, 37, 0
2, 72645, Note_on_c, 0, 49, 0
2, 72675, Control_c, 0, 64, 127
2, 72732, Note_on_c, 0, 71, 86
2, 72794, Note_on_c, 0, 49, 54
2, 72829, Note_on_c, 0, 76, 0
2, 72834, Note_on_c, 0, 76, 81
2, 72926, Note_on_c, 0, 56, 80
2, 72927, Note_on_c, 0, 78, 89
2, 73036, Note_on_c, 0, 80, 0
2, 73041, Note_on_c, 0, 80, 93
2, 73042, Note_on_c, 0, 59, 99
2, 73047, Note_on_c, 0, 47, 76
2, 73152, Note_on_c, 0, 71, 0
2, 73161, Note_on_c, 0, 71, 83
2, 73259, Note_on_c, 0, 80, 0
2, 73264, Note_on_c, 0, 66, 105
2, 73264, Note_on_c, 0, 80, 93
2, 73367, Note_on_c, 0, 71, 0
2, 73378, Note_on_c, 0, 71, 83
2, 73489, Note_on_c, 0, 76, 0
2, 73494, Note_on_c, 0, 64, 103
2, 73494, Note_on_c, 0, 76, 85
2, 73597, Note_on_c, 0, 78, 0
2, 73603, Note_on_c, 0, 78, 89
2, 73697, Note_on_c, 0, 66, 0
2, 73697, Note_on_c, 0, 80, 0
2, 73706, Note_on_c, 0, 80, 91
2, 73707, Note_on_c, 0, 66, 101
2, 73804, Note_on_c, 0, 71, 0
2, 73810, Note_on_c, 0, 71, 83
2, 73926, Control_c, 0, 64, 0
2, 73935, Note_on_c, 0, 47, 0
2, 73935, Note_on_c, 0, 49, 0
2, 73943, Note_on_c, 0, 76, 0
2, 73944, Note_on_c, 0, 47, 108
2, 73945, Note_on_c, 0, 83, 98
2, 73947, Note_on_c, 0, 35, 94
2, 73947, Note_on_c, 0, 76, 92
2, 73953, Note_on_c, 0, 56, 0
2, 73953, Note_on_c, 0, 64, 0
2, 73955, Note_on_c, 0, 71, 0
2, 73955, Note_on_c, 0, 59, 0
2, 73973, Note_on_c, 0, 66, 0
2, 73989, Note_on_c, 0, 80, 0
2, 74004, Control_c, 0, 64, 127
2, 74079, Note_on_c, 0, 71, 71
2, 74135, Note_on_c, 0, 47, 0
2, 74139, Note_on_c, 0, 47, 66
2, 74165, Note_on_c, 0, 76, 0
2, 74174, Note_on_c, 0, 76, 77
2, 74257, Note_on_c, 0, 78, 0
2, 74259, Note_on_c, 0, 54, 84
2, 74269, Note_on_c, 0, 78, 85
2, 74373, Note_on_c, 0, 83, 0
2, 74384, Note_on_c, 0, 83, 93
2, 74394, Note_on_c, 0, 59, 96
2, 74496, Note_on_c, 0, 71, 0
2, 74499, Note_on_c, 0, 71, 73
2, 74603, Note_on_c, 0, 59, 0
2, 74611, Note_on_c, 0, 76, 0
2, 74612, Note_on_c, 0, 66, 104
2, 74613, Note_on_c, 0, 59, 99
2, 74616, Note_on_c, 0, 76, 95
2, 74726, Note_on_c, 0, 71, 0
2, 74735, Note_on_c, 0, 71, 86
2, 74818, Note_on_c, 0, 76, 0
2, 74825, Note_on_c, 0, 64, 103
2, 74829, Note_on_c, 0, 76, 85
2, 74941, Note_on_c, 0, 78, 0
2, 74947, Note_on_c, 0, 78, 94
2, 75033, Note_on_c, 0, 47, 0
2, 75033, Note_on_c, 0, 59, 0
2, 75044, Note_on_c, 0, 47, 100
2, 75045, Note_on_c, 0, 59, 97
2, 75050, Note_on_c, 0, 80, 88
2, 75156, Note_on_c, 0, 71, 0
2, 75164, Note_on_c, 0, 71, 84
2, 75302, Note_on_c, 0, 59, 0
2, 75302, Note_on_c, 0, 66, 0
2, 75310, Note_on_c, 0, 83, 0
2, 75313, Note_on_c, 0, 59, 99
2, 75313, Note_on_c, 0, 66, 103
2, 75314, Note_on_c, 0, 83, 96
2, 75456, Note_on_c, 0, 71, 0
2, 75459, Note_on_c, 0, 71, 86
2, 75525, Note_on_c, 0, 64, 0
2, 75535, Note_on_c, 0, 64, 103
2, 75552, Note_on_c, 0, 85, 101
2, 75653, Note_on_c, 0, 73, 83
2, 75755, Note_on_c, 0, 66, 0
2, 75765, Note_on_c, 0, 66, 104
2, 75766, Note_on_c, 0, 87, 101
2, 75858, Note_on_c, 0, 75, 76
2, 75978, Note_on_c, 0, 59, 0
2, 75979, Note_on_c, 0, 69, 109
2, 75982, Note_on_c, 0, 59, 100
2, 75982, Note_on_c, 0, 88, 105
2, 76078, Note_on_c, 0, 76, 0
2, 76084, Note_on_c, 0, 76, 88
2, 76206, Note_on_c, 0, 68, 106
2, 76207, Note_on_c, 0, 90, 104
2, 76285, Note_on_c, 0, 78, 0
2, 76290, Note_on_c, 0, 78, 92
2, 76423, Note_on_c, 0, 64, 0
2, 76427, Note_on_c, 0, 93, 100
2, 76430, Note_on_c, 0, 64, 102
2, 76520, Note_on_c, 0, 81, 84
2, 76538, Note_on_c, 0, 35, 0
2, 76669, Control_c, 0, 64, 0
2, 76671, Note_on_c, 0, 71, 0
2, 76671, Note_on_c, 0, 75, 0
2, 76671, Note_on_c, 0, 54, 0
2, 76671, Note_on_c, 0, 87, 0
2, 76671, Note_on_c, 0, 64, 0
2, 76672, Note_on_c, 0, 80, 0
2, 76672, Note_on_c, 0, 85, 0
2, 76672, Note_on_c, 0, 68, 0
2, 76672, Note_on_c, 0, 69, 0
2, 76672, Note_on_c, 0, 78, 0
2, 76672, Note_on_c, 0, 73, 0
2, 76672, Note_on_c, 0, 81, 0
2, 76672, Note_on_c, 0, 76, 0
2, 76672, Note_on_c, 0, 90, 0
2, 76673, Note_on_c, 0, 88, 0
2, 76677, Note_on_c, 0, 47, 0
2, 76677, Note_on_c, 0, 59, 0
2, 76677, Note_on_c, 0, 83, 0
2, 76680, Note_on_c, 0, 95, 111
2, 76681, Note_on_c, 0, 59, 105
2, 76681, Note_on_c, 0, 47, 104
2, 76684, Note_on_c, 0, 66, 0
2, 76686, Note_on_c, 0, 83, 102
2, 76700, Note_on_c, 0, 93, 0
2, 76784, Control_c, 0, 64, 127
2, 76904, Note_on_c, 0, 90, 91
2, 77030, Note_on_c, 0, 95, 0
2, 77034, Note_on_c, 0, 95, 92
2, 77148, Note_on_c, 0, 88, 83
2, 77260, Note_on_c, 0, 90, 0
2, 77265, Note_on_c, 0, 90, 84
2, 77352, Note_on_c, 0, 59, 0
2, 77360, Note_on_c, 0, 83, 0
2, 77362, Note_on_c, 0, 66, 84
2, 77364, Note_on_c, 0, 59, 67
2, 77366, Note_on_c, 0, 83, 71
2, 77498, Note_on_c, 0, 88, 0
2, 77506, Note_on_c, 0, 88, 78
2, 77614, Note_on_c, 0, 90, 0
2, 77616, Note_on_c, 0, 78, 100
2, 77619, Note_on_c, 0, 90, 86
2, 77713, Note_on_c, 0, 95, 0
2, 77725, Note_on_c, 0, 95, 91
2, 77844, Note_on_c, 0, 88, 0
2, 77854, Note_on_c, 0, 76, 91
2, 77855, Note_on_c, 0, 88, 89
2, 77959, Note_on_c, 0, 90, 0
2, 77965, Note_on_c, 0, 90, 88
2, 78044, Note_on_c, 0, 59, 0
2, 78044, Note_on_c, 0, 66, 0
2, 78044, Note_on_c, 0, 78, 0
2, 78049, Note_on_c, 0, 78, 97
2, 78054, Note_on_c, 0, 59, 86
2, 78055, Note_on_c, 0, 66, 97
2, 78078, Control_c, 0, 64, 0
2, 78113, Control_c, 0, 64, 127
2, 78159, Note_on_c, 0, 88, 0
2, 78166, Note_on_c, 0, 88, 89
2, 78274, Note_on_c, 0, 76, 0
2, 78274, Note_on_c, 0, 90, 0
2, 78279, Note_on_c, 0, 90, 97
2, 78282, Note_on_c, 0, 76, 97
2, 78374, Note_on_c, 0, 95, 0
2, 78385, Note_on_c, 0, 95, 95
2, 78497, Note_on_c, 0, 78, 0
2, 78497, Note_on_c, 0, 88, 0
2, 78501, Note_on_c, 0, 78, 94
2, 78502, Note_on_c, 0, 88, 92
2, 78612, Note_on_c, 0, 90, 0
2, 78622, Note_on_c, 0, 90, 93
2, 78720, Note_on_c, 0, 47, 0
2, 78732, Note_on_c, 0, 81, 96
2, 78735, Note_on_c, 0, 59, 0
2, 78735, Note_on_c, 0, 66, 0
2, 78740, Note_on_c, 0, 66, 92
2, 78740, Note_on_c, 0, 59, 82
2, 78842, Note_on_c, 0, 88, 0
2, 78850, Note_on_c, 0, 88, 93
2, 78965, Note_on_c, 0, 90, 0
2, 78970, Note_on_c, 0, 90, 94
2, 78981, Note_on_c, 0, 80, 95
2, 79088, Note_on_c, 0, 95, 0
2, 79097, Note_on_c, 0, 95, 98
2, 79226, Note_on_c, 0, 76, 0
2, 79226, Note_on_c, 0, 88, 0
2, 79236, Note_on_c, 0, 88, 95
2, 79238, Note_on_c, 0, 76, 94
2, 79349, Note_on_c, 0, 90, 0
2, 79355, Note_on_c, 0, 90, 86
2, 79598, Note_on_c, 0, 100, 105
2, 79611, Note_on_c, 0, 40, 87
2, 79611, Note_on_c, 0, 52, 92
2, 79636, Note_on_c, 0, 83, 0
2, 79637, Note_on_c, 0, 59, 0
2, 79637, Note_on_c, 0, 90, 0
2, 79637, Note_on_c, 0, 88, 0
2, 79638, Note_on_c, 0, 78, 0
2, 79638, Note_on_c, 0, 80, 0
2, 79644, Note_on_c, 0, 66, 0
2, 79656, Note_on_c, 0, 81, 0
2, 79662, Control_c, 0, 64, 0
2, 79664, Note_on_c, 0, 76, 0
2, 79728, Note_on_c, 0, 99, 80
2, 79764, Control_c, 0, 64, 127
2, 79848, Note_on_c, 0, 100, 0
2, 79854, Note_on_c, 0, 100, 68
2, 79933, Note_on_c, 0, 95, 0
2, 79940, Note_on_c, 0, 95, 71
2, 80055, Note_on_c, 0, 90, 62
2, 80179, Note_on_c, 0, 95, 0
2, 80184, Note_on_c, 0, 95, 51
2, 80271, Note_on_c, 0, 100, 0
2, 80280, Note_on_c, 0, 100, 83
2, 80297, Note_on_c, 0, 64, 64
2, 80306, Note_on_c, 0, 54, 50
2, 80394, Note_on_c, 0, 99, 0
2, 80405, Note_on_c, 0, 99, 69
2, 80486, Note_on_c, 0, 100, 0
2, 80492, Note_on_c, 0, 100, 69
2, 80609, Note_on_c, 0, 95, 0
2, 80615, Note_on_c, 0, 95, 64
2, 80732, Note_on_c, 0, 90, 0
2, 80743, Note_on_c, 0, 90, 56
2, 80855, Note_on_c, 0, 95, 0
2, 80863, Note_on_c, 0, 95, 46
2, 80947, Note_on_c, 0, 100, 0
2, 80958, Note_on_c, 0, 100, 75
2, 80970, Note_on_c, 0, 64, 0
2, 80979, Note_on_c, 0, 64, 58
2, 80981, Note_on_c, 0, 71, 52
2, 80985, Note_on_c, 0, 66, 57
2, 81077, Note_on_c, 0, 99, 0
2, 81086, Note_on_c, 0, 99, 62
2, 81169, Note_on_c, 0, 100, 0
2, 81181, Note_on_c, 0, 100, 63
2, 81285, Note_on_c, 0, 95, 0
2, 81296, Note_on_c, 0, 95, 61
2, 81400, Note_on_c, 0, 90, 0
2, 81409, Note_on_c, 0, 90, 53
2, 81553, Note_on_c, 0, 95, 0
2, 81559, Note_on_c, 0, 95, 54
2, 81638, Note_on_c, 0, 100, 0
2, 81644, Note_on_c, 0, 78, 68
2, 81649, Note_on_c, 0, 100, 80
2, 81652, Note_on_c, 0, 76, 68
2, 81669, Note_on_c, 0, 71, 0
2, 81680, Note_on_c, 0, 71, 49
2, 81753, Note_on_c, 0, 99, 0
2, 81762, Note_on_c, 0, 99, 77
2, 81868, Note_on_c, 0, 100, 0
2, 81873, Note_on_c, 0, 100, 71
2, 81976, Note_on_c, 0, 95, 0
2, 81987, Note_on_c, 0, 95, 63
2, 82106, Note_on_c, 0, 90, 0
2, 82117, Note_on_c, 0, 90, 58
2, 82222, Note_on_c, 0, 95, 0
2, 82226, Note_on_c, 0, 95, 57
2, 82310, Control_c, 0, 64, 0
2, 82321, Note_on_c, 0, 100, 0
2, 82325, Note_on_c, 0, 40, 0
2, 82325, Note_on_c, 0, 71, 0
2, 82325, Note_on_c, 0, 95, 0
2, 82325, Note_on_c, 0, 64, 0
2, 82326, Note_on_c, 0, 76, 0
2, 82326, Note_on_c, 0, 100, 99
2, 82326, Note_on_c, 0, 78, 0
2, 82326, Note_on_c, 0, 54, 0
2, 82326, Note_on_c, 0, 66, 0
2, 82326, Note_on_c, 0, 90, 0
2, 82328, Note_on_c, 0, 45, 67
2, 82329, Note_on_c, 0, 99, 0
2, 82339, Note_on_c, 0, 49, 51
2, 82344, Note_on_c, 0, 52, 0
2, 82350, Note_on_c, 0, 52, 52
2, 82358, Note_on_c, 0, 59, 52
2, 82452, Note_on_c, 0, 99, 80
2, 82490, Control_c, 0, 64, 127
2, 82552, Note_on_c, 0, 100, 0
2, 82557, Note_on_c, 0, 100, 78
2, 82671, Note_on_c, 0, 95, 76
2, 82798, Note_on_c, 0, 90, 58
2, 82905, Note_on_c, 0, 45, 0
2, 82905, Note_on_c, 0, 95, 0
2, 82914, Note_on_c, 0, 95, 60
2, 83005, Note_on_c, 0, 100, 0
2, 83009, Note_on_c, 0, 100, 88
2, 83023, Note_on_c, 0, 66, 63
2, 83023, Note_on_c, 0, 64, 73
2, 83024, Note_on_c, 0, 71, 61
2, 83136, Note_on_c, 0, 99, 0
2, 83146, Note_on_c, 0, 99, 67
2, 83235, Note_on_c, 0, 100, 0
2, 83245, Note_on_c, 0, 100, 80
2, 83358, Note_on_c, 0, 95, 0
2, 83363, Note_on_c, 0, 95, 66
2, 83466, Note_on_c, 0, 90, 0
2, 83473, Note_on_c, 0, 90, 68
2, 83589, Note_on_c, 0, 95, 0
2, 83594, Note_on_c, 0, 95, 64
2, 83696, Note_on_c, 0, 100, 0
2, 83700, Note_on_c, 0, 76, 74
2, 83701, Note_on_c, 0, 100, 97
2, 83702, Note_on_c, 0, 78, 76
2, 83804, Note_on_c, 0, 49, 0
2, 83811, Note_on_c, 0, 99, 0
2, 83817, Note_on_c, 0, 99, 69
2, 83896, Note_on_c, 0, 100, 0
2, 83907, Note_on_c, 0, 100, 77
2, 84026, Note_on_c, 0, 95, 0
2, 84035, Note_on_c, 0, 95, 71
2, 84134, Note_on_c, 0, 90, 0
2, 84145, Note_on_c, 0, 90, 85
2, 84249, Note_on_c, 0, 95, 0
2, 84260, Note_on_c, 0, 95, 70
2, 84352, Note_on_c, 0, 102, 105
2, 84374, Note_on_c, 0, 83, 83
2, 84376, Control_c, 0, 64, 0
2, 84380, Note_on_c, 0, 76, 0
2, 84387, Note_on_c, 0, 78, 0
2, 84391, Note_on_c, 0, 76, 68
2, 84392, Note_on_c, 0, 78, 66
2, 84456, Control_c, 0, 64, 127
2, 84480, Note_on_c, 0, 100, 0
2, 84484, Note_on_c, 0, 100, 94
2, 84556, Note_on_c, 0, 52, 0
2, 84587, Note_on_c, 0, 99, 0
2, 84597, Note_on_c, 0, 99, 95
2, 84695, Note_on_c, 0, 100, 0
2, 84700, Note_on_c, 0, 100, 98
2, 84802, Note_on_c, 0, 90, 0
2, 84811, Note_on_c, 0, 90, 79
2, 84910, Note_on_c, 0, 95, 0
2, 84920, Note_on_c, 0, 95, 74
2, 85032, Note_on_c, 0, 64, 0
2, 85032, Note_on_c, 0, 100, 0
2, 85042, Note_on_c, 0, 100, 101
2, 85043, Note_on_c, 0, 64, 73
2, 85052, Note_on_c, 0, 56, 60
2, 85056, Note_on_c, 0, 59, 0
2, 85061, Note_on_c, 0, 76, 0
2, 85065, Note_on_c, 0, 59, 55
2, 85066, Note_on_c, 0, 49, 56
2, 85067, Note_on_c, 0, 83, 0
2, 85070, Note_on_c, 0, 71, 0
2, 85073, Note_on_c, 0, 78, 0
2, 85094, Note_on_c, 0, 66, 0
2, 85094, Note_on_c, 0, 102, 0
2, 85109, Note_on_c, 0, 90, 0
2, 85155, Note_on_c, 0, 99, 0
2, 85162, Note_on_c, 0, 99, 85
2, 85263, Note_on_c, 0, 100, 0
2, 85273, Note_on_c, 0, 100, 85
2, 85370, Note_on_c, 0, 95, 0
2, 85375, Note_on_c, 0, 95, 80
2, 85494, Note_on_c, 0, 90, 79
2, 85608, Note_on_c, 0, 95, 0
2, 85617, Note_on_c, 0, 95, 67
2, 85716, Note_on_c, 0, 100, 0
2, 85720, Note_on_c, 0, 100, 94
2, 85731, Note_on_c, 0, 64, 0
2, 85736, Note_on_c, 0, 71, 57
2, 85739, Note_on_c, 0, 64, 63
2, 85743, Note_on_c, 0, 66, 59
2, 85839, Note_on_c, 0, 99, 0
2, 85847, Note_on_c, 0, 99, 76
2, 85931, Note_on_c, 0, 100, 0
2, 85936, Note_on_c, 0, 100, 83
2, 86054, Note_on_c, 0, 95, 0
2, 86064, Note_on_c, 0, 95, 71
2, 86161, Note_on_c, 0, 90, 0
2, 86170, Note_on_c, 0, 90, 69
2, 86292, Note_on_c, 0, 95, 0
2, 86303, Note_on_c, 0, 95, 61
2, 86403, Note_on_c, 0, 87, 91
2, 86407, Note_on_c, 0, 99, 0
2, 86412, Note_on_c, 0, 99, 79
2, 86413, Note_on_c, 0, 78, 73
2, 86413, Note_on_c, 0, 83, 79
2, 86515, Note_on_c, 0, 99, 0
2, 86523, Note_on_c, 0, 99, 78
2, 86630, Note_on_c, 0, 100, 0
2, 86634, Note_on_c, 0, 100, 75
2, 86737, Note_on_c, 0, 95, 0
2, 86745, Note_on_c, 0, 95, 68
2, 86853, Note_on_c, 0, 90, 0
2, 86863, Note_on_c, 0, 90, 67
2, 86983, Note_on_c, 0, 95, 0
2, 86994, Note_on_c, 0, 95, 56
2, 87075, Note_on_c, 0, 100, 0
2, 87083, Note_on_c, 0, 100, 89
2, 87083, Note_on_c, 0, 78, 0
2, 87091, Note_on_c, 0, 83, 0
2, 87094, Note_on_c, 0, 75, 61
2, 87094, Note_on_c, 0, 78, 64
2, 87095, Note_on_c, 0, 83, 62
2, 87175, Note_on_c, 0, 99, 0
2, 87185, Note_on_c, 0, 99, 75
2, 87290, Note_on_c, 0, 100, 0
2, 87302, Note_on_c, 0, 100, 83
2, 87413, Note_on_c, 0, 95, 0
2, 87420, Note_on_c, 0, 95, 63
2, 87528, Note_on_c, 0, 90, 0
2, 87535, Note_on_c, 0, 90, 72
2, 87659, Note_on_c, 0, 95, 0
2, 87664, Note_on_c, 0, 95, 63
2, 87751, Note_on_c, 0, 100, 0
2, 87757, Note_on_c, 0, 100, 95
2, 87769, Note_on_c, 0, 45, 64
2, 87770, Note_on_c, 0, 52, 55
2, 87774, Note_on_c, 0, 49, 0
2, 87778, Note_on_c, 0, 49, 42
2, 87793, Note_on_c, 0, 87, 0
2, 87793, Note_on_c, 0, 64, 0
2, 87795, Note_on_c, 0, 83, 0
2, 87798, Note_on_c, 0, 66, 0
2, 87800, Note_on_c, 0, 71, 0
2, 87813, Note_on_c, 0, 56, 0
2, 87824, Control_c, 0, 64, 0
2, 87843, Note_on_c, 0, 78, 0
2, 87874, Note_on_c, 0, 99, 0
2, 87882, Note_on_c, 0, 49, 0
2, 87883, Note_on_c, 0, 99, 78
2, 87889, Control_c, 0, 64, 127
2, 87997, Note_on_c, 0, 100, 0
2, 88008, Note_on_c, 0, 100, 78
2, 88089, Note_on_c, 0, 95, 0
2, 88100, Note_on_c, 0, 95, 65
2, 88220, Note_on_c, 0, 90, 0
2, 88225, Note_on_c, 0, 90, 60
2, 88350, Note_on_c, 0, 95, 0
2, 88354, Note_on_c, 0, 95, 51
2, 88442, Note_on_c, 0, 100, 0
2, 88448, Note_on_c, 0, 100, 87
2, 88453, Note_on_c, 0, 64, 70
2, 88454, Note_on_c, 0, 66, 62
2, 88455, Note_on_c, 0, 71, 60
2, 88550, Note_on_c, 0, 99, 0
2, 88560, Note_on_c, 0, 99, 86
2, 88665, Note_on_c, 0, 100, 0
2, 88673, Note_on_c, 0, 100, 82
2, 88796, Note_on_c, 0, 95, 0
2, 88806, Note_on_c, 0, 95, 61
2, 88903, Note_on_c, 0, 90, 0
2, 88911, Note_on_c, 0, 90, 72
2, 89034, Note_on_c, 0, 95, 0
2, 89045, Note_on_c, 0, 95, 59
2, 89198, Note_on_c, 0, 83, 57
2, 89199, Note_on_c, 0, 76, 55
2, 89204, Note_on_c, 0, 78, 51
2, 89671, Note_on_c, 0, 59, 0
2, 90240, Note_on_c, 0, 45, 0
2, 90240, Note_on_c, 0, 52, 0
2, 90240, Note_on_c, 0, 75, 0
2, 91059, Note_on_c, 0, 52, 58
2, 91069, Control_c, 0, 64, 0
2, 91084, Note_on_c, 0, 99, 0
2, 91087, Note_on_c, 0, 83, 0
2, 91087, Note_on_c, 0, 64, 0
2, 91088, Note_on_c, 0, 100, 0
2, 91088, Note_on_c, 0, 95, 0
2, 91088, Note_on_c, 0, 78, 0
2, 91088, Note_on_c, 0, 90, 0
2, 91089, Note_on_c, 0, 71, 0
2, 91089, Note_on_c, 0, 76, 0
2, 91093, Note_on_c, 0, 66, 0
2, 91123, Control_c, 0, 64, 127
2, 91312, Note_on_c, 0, 78, 74
2, 91550, Note_on_c, 0, 59, 47
2, 91552, Note_on_c, 0, 80, 87
2, 91791, Note_on_c, 0, 80, 0
2, 91796, Note_on_c, 0, 80, 92
2, 91801, Note_on_c, 0, 64, 64
2, 91838, Control_c, 0, 64, 0
2, 91898, Control_c, 0, 64, 127
2, 92031, Note_on_c, 0, 66, 62
2, 92271, Note_on_c, 0, 68, 84
2, 92273, Note_on_c, 0, 51, 53
2, 92512, Control_c, 0, 64, 0
2, 92513, Note_on_c, 0, 68, 0
2, 92519, Note_on_c, 0, 49, 63
2, 92520, Note_on_c, 0, 51, 0
2, 92520, Note_on_c, 0, 52, 0
2, 92521, Note_on_c, 0, 80, 0
2, 92521, Note_on_c, 0, 64, 0
2, 92522, Note_on_c, 0, 59, 0
2, 92523, Note_on_c, 0, 66, 0
2, 92523, Note_on_c, 0, 68, 90
2, 92536, Note_on_c, 0, 78, 0
2, 92628, Control_c, 0, 64, 127
2, 92747, Note_on_c, 0, 80, 89
2, 92993, Note_on_c, 0, 83, 90
2, 92999, Note_on_c, 0, 56, 69
2, 93235, Note_on_c, 0, 83, 0
2, 93235, Note_on_c, 0, 64, 83
2, 93239, Note_on_c, 0, 83, 97
2, 93244, Note_on_c, 0, 59, 73
2, 93477, Note_on_c, 0, 71, 95
2, 93696, Note_on_c, 0, 49, 0
2, 93707, Note_on_c, 0, 49, 65
2, 93713, Note_on_c, 0, 73, 98
2, 93957, Note_on_c, 0, 83, 0
2, 93964, Note_on_c, 0, 71, 0
2, 93966, Note_on_c, 0, 44, 72
2, 93968, Note_on_c, 0, 83, 97
2, 93968, Note_on_c, 0, 76, 82
2, 93969, Note_on_c, 0, 71, 89
2, 93976, Note_on_c, 0, 68, 0
2, 93977, Note_on_c, 0, 56, 0
2, 93978, Note_on_c, 0, 64, 0
2, 93978, Note_on_c, 0, 59, 0
2, 93979, Note_on_c, 0, 80, 0
2, 93982, Note_on_c, 0, 73, 0
2, 93995, Note_on_c, 0, 49, 0
2, 94019, Control_c, 0, 64, 0
2, 94445, Note_on_c, 0, 78, 90
2, 94447, Note_on_c, 0, 52, 63
2, 94456, Control_c, 0, 64, 127
2, 94686, Note_on_c, 0, 78, 0
2, 94691, Note_on_c, 0, 78, 95
2, 94693, Note_on_c, 0, 59, 74
2, 94924, Note_on_c, 0, 71, 0
2, 94930, Note_on_c, 0, 71, 81
2, 95169, Note_on_c, 0, 69, 76
2, 95178, Note_on_c, 0, 44, 0
2, 95187, Note_on_c, 0, 44, 51
2, 95381, Control_c, 0, 64, 0
2, 95389, Note_on_c, 0, 59, 0
2, 95389, Note_on_c, 0, 44, 0
2, 95390, Note_on_c, 0, 52, 0
2, 95390, Note_on_c, 0, 71, 0
2, 95391, Note_on_c, 0, 76, 0
2, 95395, Note_on_c, 0, 69, 0
2, 95399, Note_on_c, 0, 68, 92
2, 95400, Note_on_c, 0, 45, 85
2, 95416, Note_on_c, 0, 83, 0
2, 95462, Control_c, 0, 64, 127
2, 95639, Note_on_c, 0, 78, 0
2, 95643, Note_on_c, 0, 78, 91
2, 95754, Note_on_c, 0, 78, 0
2, 95763, Note_on_c, 0, 78, 86
2, 95862, Note_on_c, 0, 80, 92
2, 95903, Note_on_c, 0, 52, 58
2, 96115, Note_on_c, 0, 80, 0
2, 96125, Note_on_c, 0, 80, 93
2, 96149, Note_on_c, 0, 57, 69
2, 96372, Note_on_c, 0, 66, 65
2, 96591, Note_on_c, 0, 45, 0
2, 96600, Note_on_c, 0, 45, 58
2, 96604, Note_on_c, 0, 69, 71
2, 96844, Note_on_c, 0, 68, 0
2, 96846, Control_c, 0, 64, 0
2, 96850, Note_on_c, 0, 40, 62
2, 96854, Note_on_c, 0, 68, 84
2, 96857, Note_on_c, 0, 52, 0
2, 96858, Note_on_c, 0, 66, 0
2, 96858, Note_on_c, 0, 57, 0
2, 96859, Note_on_c, 0, 78, 0
2, 96859, Note_on_c, 0, 45, 0
2, 96864, Note_on_c, 0, 69, 0
2, 96967, Note_on_c, 0, 80, 0
2, 97052, Control_c, 0, 64, 127
2, 97091, Note_on_c, 0, 54, 97
2, 97095, Note_on_c, 0, 47, 69
2, 97319, Note_on_c, 0, 56, 96
2, 97566, Note_on_c, 0, 56, 0
2, 97577, Note_on_c, 0, 56, 92
2, 97806, Note_on_c, 0, 76, 93
2, 98025, Note_on_c, 0, 39, 66
2, 98038, Note_on_c, 0, 83, 97
2, 98262, Control_c, 0, 64, 0
2, 98263, Note_on_c, 0, 47, 0
2, 98265, Note_on_c, 0, 40, 0
2, 98265, Note_on_c, 0, 56, 0
2, 98266, Note_on_c, 0, 54, 0
2, 98274, Note_on_c, 0, 88, 102
2, 98276, Note_on_c, 0, 37, 83
2, 98280, Note_on_c, 0, 68, 0
2, 98288, Note_on_c, 0, 39, 0
2, 98365, Control_c, 0, 64, 127
2, 98513, Note_on_c, 0, 64, 103
2, 98519, Note_on_c, 0, 37, 0
2, 98742, Note_on_c, 0, 63, 98
2, 98980, Note_on_c, 0, 59, 98
2, 98984, Note_on_c, 0, 78, 101
2, 98989, Note_on_c, 0, 56, 88
2, 98994, Note_on_c, 0, 49, 83
2, 99210, Note_on_c, 0, 83, 0
2, 99221, Note_on_c, 0, 83, 97
2, 99287, Note_on_c, 0, 76, 0
2, 99436, Note_on_c, 0, 61, 89
2, 99447, Note_on_c, 0, 90, 98
2, 99712, Note_on_c, 0, 95, 106
2, 99713, Note_on_c, 0, 54, 91
2, 99717, Note_on_c, 0, 44, 84
2, 99720, Note_on_c, 0, 52, 82
2, 99727, Control_c, 0, 64, 0
2, 99736, Note_on_c, 0, 59, 0
2, 99736, Note_on_c, 0, 49, 0
2, 99737, Note_on_c, 0, 83, 0
2, 99737, Note_on_c, 0, 56, 0
2, 99737, Note_on_c, 0, 61, 0
2, 99738, Note_on_c, 0, 64, 0
2, 99739, Note_on_c, 0, 63, 0
2, 99739, Note_on_c, 0, 78, 0
2, 99740, Note_on_c, 0, 90, 0
2, 99741, Note_on_c, 0, 88, 0
2, 99816, Control_c, 0, 64, 127
2, 99941, Note_on_c, 0, 93, 96
2, 100177, Note_on_c, 0, 54, 0
2, 100183, Note_on_c, 0, 54, 84
2, 100195, Note_on_c, 0, 92, 91
2, 100416, Note_on_c, 0, 54, 0
2, 100423, Note_on_c, 0, 44, 0
2, 100426, Note_on_c, 0, 54, 87
2, 100429, Note_on_c, 0, 90, 92
2, 100432, Note_on_c, 0, 44, 66
2, 100654, Note_on_c, 0, 92, 0
2, 100665, Note_on_c, 0, 92, 84
2, 100861, Note_on_c, 0, 95, 0
2, 100885, Note_on_c, 0, 87, 76
2, 100886, Note_on_c, 0, 56, 84
2, 101130, Note_on_c, 0, 52, 0
2, 101135, Note_on_c, 0, 88, 90
2, 101136, Note_on_c, 0, 52, 73
2, 101140, Note_on_c, 0, 45, 72
2, 101143, Note_on_c, 0, 81, 72
2, 101147, Control_c, 0, 64, 0
2, 101155, Note_on_c, 0, 90, 0
2, 101155, Note_on_c, 0, 92, 0
2, 101156, Note_on_c, 0, 93, 0
2, 101156, Note_on_c, 0, 56, 0
2, 101157, Note_on_c, 0, 54, 0
2, 101157, Note_on_c, 0, 44, 0
2, 101191, Note_on_c, 0, 87, 0
2, 101373, Note_on_c, 0, 83, 72
2, 101621, Note_on_c, 0, 81, 0
2, 101628, Note_on_c, 0, 81, 66
2, 101637, Note_on_c, 0, 88, 0
2, 101895, Note_on_c, 0, 76, 60
2, 101910, Note_on_c, 0, 57, 44
2, 101967, Note_on_c, 0, 83, 0
2, 102176, Note_on_c, 0, 68, 91
2, 102213, Control_c, 0, 64, 127
2, 102457, Note_on_c, 0, 69, 92
2, 102773, Note_on_c, 0, 52, 0
2, 102779, Note_on_c, 0, 71, 99
2, 102779, Note_on_c, 0, 44, 67
2, 102783, Note_on_c, 0, 59, 71
2, 102784, Note_on_c, 0, 52, 65
2, 102786, Control_c, 0, 64, 0
2, 102801, Note_on_c, 0, 81, 0
2, 102801, Note_on_c, 0, 69, 0
2, 102801, Note_on_c, 0, 76, 0
2, 102802, Note_on_c, 0, 45, 0
2, 102802, Note_on_c, 0, 57, 0
2, 102803, Note_on_c, 0, 68, 0
2, 102904, Control_c, 0, 64, 127
2, 102931, Note_on_c, 0, 76, 88
2, 103054, Note_on_c, 0, 83, 89
2, 103181, Note_on_c, 0, 88, 75
2, 103249, Note_on_c, 0, 71, 0
2, 103253, Note_on_c, 0, 95, 97
2, 103254, Note_on_c, 0, 71, 90
2, 103368, Note_on_c, 0, 100, 104
2, 103472, Note_on_c, 0, 71, 0
2, 103472, Note_on_c, 0, 100, 0
2, 103479, Note_on_c, 0, 71, 90
2, 103479, Note_on_c, 0, 100, 105
2, 103492, Control_c, 0, 64, 0
2, 103499, Note_on_c, 0, 64, 74
2, 103500, Note_on_c, 0, 56, 70
2, 103500, Note_on_c, 0, 88, 0
2, 103501, Note_on_c, 0, 83, 0
2, 103502, Note_on_c, 0, 76, 0
2, 103504, Note_on_c, 0, 59, 0
2, 103572, Control_c, 0, 64, 127
2, 103595, Note_on_c, 0, 44, 0
2, 103603, Note_on_c, 0, 95, 0
2, 103611, Note_on_c, 0, 95, 87
2, 103714, Note_on_c, 0, 69, 97
2, 103823, Note_on_c, 0, 88, 90
2, 103929, Note_on_c, 0, 68, 89
2, 103933, Note_on_c, 0, 83, 78
2, 104032, Note_on_c, 0, 76, 86
2, 104148, Note_on_c, 0, 52, 0
2, 104155, Note_on_c, 0, 66, 93
2, 104156, Control_c, 0, 64, 0
2, 104158, Note_on_c, 0, 52, 76
2, 104159, Note_on_c, 0, 45, 84
2, 104159, Note_on_c, 0, 69, 0
2, 104159, Note_on_c, 0, 56, 0
2, 104160, Note_on_c, 0, 64, 0
2, 104160, Note_on_c, 0, 88, 0
2, 104160, Note_on_c, 0, 68, 0
2, 104160, Note_on_c, 0, 76, 0
2, 104161, Note_on_c, 0, 83, 0
2, 104161, Note_on_c, 0, 95, 0
2, 104166, Note_on_c, 0, 49, 78
2, 104171, Note_on_c, 0, 100, 0
2, 104179, Note_on_c, 0, 71, 0
2, 104209, Note_on_c, 0, 66, 0
2, 104256, Control_c, 0, 64, 127
2, 104281, Note_on_c, 0, 76, 87
2, 104409, Note_on_c, 0, 83, 90
2, 104506, Note_on_c, 0, 64, 98
2, 104530, Note_on_c, 0, 88, 76
2, 104614, Note_on_c, 0, 95, 100
2, 104725, Note_on_c, 0, 100, 104
2, 104824, Note_on_c, 0, 100, 0
2, 104826, Note_on_c, 0, 66, 100
2, 104828, Note_on_c, 0, 100, 104
2, 104836, Note_on_c, 0, 61, 85
2, 104841, Control_c, 0, 64, 0
2, 104843, Note_on_c, 0, 57, 90
2, 104901, Note_on_c, 0, 52, 0
2, 104916, Note_on_c, 0, 83, 0
2, 104947, Control_c, 0, 64, 127
2, 104962, Note_on_c, 0, 76, 0
2, 104962, Note_on_c, 0, 95, 0
2, 104967, Note_on_c, 0, 95, 90
2, 105062, Note_on_c, 0, 88, 0
2, 105071, Note_on_c, 0, 88, 86
2, 105177, Note_on_c, 0, 88, 0
2, 105182, Note_on_c, 0, 68, 93
2, 105185, Note_on_c, 0, 49, 0
2, 105187, Note_on_c, 0, 88, 92
2, 105299, Note_on_c, 0, 83, 88
2, 105389, Note_on_c, 0, 76, 88
2, 105474, Note_on_c, 0, 95, 0
2, 105475, Note_on_c, 0, 83, 0
2, 105476, Note_on_c, 0, 76, 0
2, 105476, Note_on_c, 0, 61, 0
2, 105477, Note_on_c, 0, 68, 0
2, 105478, Note_on_c, 0, 57, 0
2, 105479, Note_on_c, 0, 45, 0
2, 105487, Control_c, 0, 64, 0
2, 105492, Note_on_c, 0, 64, 0
2, 105492, Note_on_c, 0, 66, 0
2, 105492, Note_on_c, 0, 100, 0
2, 105500, Note_on_c, 0, 88, 0
2, 105520, Note_on_c, 0, 71, 98
2, 105521, Note_on_c, 0, 59, 97
2, 105524, Note_on_c, 0, 47, 88
2, 105526, Note_on_c, 0, 54, 87
2, 105592, Control_c, 0, 64, 127
2, 105636, Note_on_c, 0, 76, 87
2, 105760, Note_on_c, 0, 83, 94
2, 105866, Note_on_c, 0, 88, 91
2, 105953, Note_on_c, 0, 83, 0
2, 105959, Note_on_c, 0, 83, 81
2, 105961, Note_on_c, 0, 95, 99
2, 105976, Note_on_c, 0, 71, 0
2, 105980, Note_on_c, 0, 71, 91
2, 106071, Note_on_c, 0, 100, 103
2, 106176, Note_on_c, 0, 100, 0
2, 106183, Note_on_c, 0, 71, 0
2, 106185, Note_on_c, 0, 100, 107
2, 106195, Note_on_c, 0, 71, 93
2, 106199, Note_on_c, 0, 59, 0
2, 106203, Note_on_c, 0, 59, 77
2, 106207, Note_on_c, 0, 66, 78
2, 106209, Note_on_c, 0, 63, 78
2, 106260, Control_c, 0, 64, 0
2, 106306, Note_on_c, 0, 95, 0
2, 106311, Note_on_c, 0, 95, 89
2, 106344, Control_c, 0, 64, 127
2, 106406, Note_on_c, 0, 88, 0
2, 106413, Note_on_c, 0, 69, 99
2, 106413, Note_on_c, 0, 88, 89
2, 106521, Note_on_c, 0, 88, 0
2, 106531, Note_on_c, 0, 88, 92
2, 106636, Note_on_c, 0, 83, 0
2, 106643, Note_on_c, 0, 68, 82
2, 106644, Note_on_c, 0, 83, 86
2, 106744, Note_on_c, 0, 76, 0
2, 106748, Note_on_c, 0, 76, 86
2, 106851, Note_on_c, 0, 54, 0
2, 106851, Control_c, 0, 64, 0
2, 106852, Note_on_c, 0, 68, 0
2, 106853, Note_on_c, 0, 63, 0
2, 106853, Note_on_c, 0, 95, 0
2, 106853, Note_on_c, 0, 47, 0
2, 106853, Note_on_c, 0, 83, 0
2, 106854, Note_on_c, 0, 100, 0
2, 106854, Note_on_c, 0, 71, 0
2, 106854, Note_on_c, 0, 69, 0
2, 106855, Note_on_c, 0, 76, 0
2, 106859, Note_on_c, 0, 66, 0
2, 106864, Note_on_c, 0, 66, 94
2, 106867, Note_on_c, 0, 59, 0
2, 106870, Note_on_c, 0, 49, 80
2, 106871, Note_on_c, 0, 59, 83
2, 106871, Note_on_c, 0, 56, 83
2, 106874, Note_on_c, 0, 88, 0
2, 106974, Note_on_c, 0, 66, 0
2, 106990, Control_c, 0, 64, 127
2, 106991, Note_on_c, 0, 76, 81
2, 106993, Note_on_c, 0, 68, 69
2, 106997, Note_on_c, 0, 68, 0
2, 107106, Note_on_c, 0, 83, 94
2, 107222, Note_on_c, 0, 68, 98
2, 107223, Note_on_c, 0, 88, 89
2, 107321, Note_on_c, 0, 95, 98
2, 107425, Note_on_c, 0, 100, 105
2, 107535, Note_on_c, 0, 100, 0
2, 107539, Note_on_c, 0, 100, 106
2, 107560, Note_on_c, 0, 66, 90
2, 107562, Note_on_c, 0, 64, 88
2, 107563, Control_c, 0, 64, 0
2, 107566, Note_on_c, 0, 61, 78
2, 107658, Note_on_c, 0, 95, 0
2, 107658, Control_c, 0, 64, 127
2, 107663, Note_on_c, 0, 95, 89
2, 107750, Note_on_c, 0, 49, 0
2, 107758, Note_on_c, 0, 88, 0
2, 107764, Note_on_c, 0, 88, 86
2, 107865, Note_on_c, 0, 88, 0
2, 107870, Note_on_c, 0, 88, 95
2, 107973, Note_on_c, 0, 83, 0
2, 107983, Note_on_c, 0, 83, 76
2, 108072, Note_on_c, 0, 76, 0
2, 108084, Note_on_c, 0, 76, 82
2, 108218, Note_on_c, 0, 83, 0
2, 108220, Note_on_c, 0, 95, 0
2, 108221, Note_on_c, 0, 64, 0
2, 108221, Note_on_c, 0, 100, 0
2, 108221, Note_on_c, 0, 88, 0
2, 108221, Note_on_c, 0, 59, 0
2, 108222, Note_on_c, 0, 68, 0
2, 108222, Note_on_c, 0, 66, 0
2, 108222, Note_on_c, 0, 61, 0
2, 108223, Note_on_c, 0, 56, 0
2, 108224, Note_on_c, 0, 44, 89
2, 108227, Note_on_c, 0, 83, 103
2, 108228, Control_c, 0, 64, 0
2, 108232, Note_on_c, 0, 71, 90
2, 108341, Control_c, 0, 64, 127
2, 108347, Note_on_c, 0, 52, 74
2, 108453, Note_on_c, 0, 59, 86
2, 108464, Note_on_c, 0, 76, 0
2, 108556, Note_on_c, 0, 83, 0
2, 108561, Note_on_c, 0, 83, 96
2, 108592, Note_on_c, 0, 64, 87
2, 108664, Note_on_c, 0, 83, 0
2, 108673, Note_on_c, 0, 83, 96
2, 108695, Note_on_c, 0, 71, 0
2, 108699, Note_on_c, 0, 71, 90
2, 108796, Note_on_c, 0, 76, 92
2, 108910, Note_on_c, 0, 76, 0
2, 108918, Note_on_c, 0, 76, 91
2, 109017, Note_on_c, 0, 71, 0
2, 109027, Note_on_c, 0, 71, 90
2, 109104, Note_on_c, 0, 81, 100
2, 109132, Note_on_c, 0, 64, 0
2, 109144, Note_on_c, 0, 64, 93
2, 109232, Note_on_c, 0, 59, 0
2, 109237, Note_on_c, 0, 59, 87
2, 109324, Note_on_c, 0, 52, 0
2, 109328, Note_on_c, 0, 80, 94
2, 109328, Note_on_c, 0, 52, 78
2, 109432, Note_on_c, 0, 44, 0
2, 109443, Note_on_c, 0, 44, 91
2, 109554, Control_c, 0, 64, 0
2, 109562, Note_on_c, 0, 52, 0
2, 109564, Note_on_c, 0, 81, 0
2, 109565, Note_on_c, 0, 59, 0
2, 109565, Note_on_c, 0, 44, 0
2, 109565, Note_on_c, 0, 83, 0
2, 109566, Note_on_c, 0, 80, 0
2, 109570, Note_on_c, 0, 78, 101
2, 109570, Note_on_c, 0, 76, 0
2, 109578, Note_on_c, 0, 71, 0
2, 109581, Note_on_c, 0, 45, 91
2, 109582, Note_on_c, 0, 76, 86
2, 109584, Note_on_c, 0, 71, 78
2, 109585, Note_on_c, 0, 64, 0
2, 109670, Control_c, 0, 64, 127
2, 109689, Note_on_c, 0, 52, 74
2, 109789, Note_on_c, 0, 59, 92
2, 109916, Note_on_c, 0, 76, 0
2, 109921, Note_on_c, 0, 64, 97
2, 109921, Note_on_c, 0, 76, 98
2, 110016, Note_on_c, 0, 71, 0
2, 110024, Note_on_c, 0, 71, 91
2, 110108, Note_on_c, 0, 76, 0
2, 110117, Note_on_c, 0, 76, 90
2, 110223, Note_on_c, 0, 76, 0
2, 110223, Note_on_c, 0, 78, 0
2, 110232, Note_on_c, 0, 78, 103
2, 110233, Note_on_c, 0, 76, 99
2, 110330, Note_on_c, 0, 71, 0
2, 110337, Note_on_c, 0, 71, 89
2, 110446, Note_on_c, 0, 64, 0
2, 110450, Note_on_c, 0, 64, 96
2, 110561, Note_on_c, 0, 80, 104
2, 110576, Note_on_c, 0, 59, 0
2, 110581, Note_on_c, 0, 59, 94
2, 110668, Note_on_c, 0, 52, 0
2, 110678, Note_on_c, 0, 52, 75
2, 110760, Note_on_c, 0, 45, 0
2, 110768, Note_on_c, 0, 45, 86
2, 110899, Note_on_c, 0, 71, 0
2, 110899, Note_on_c, 0, 78, 0
2, 110903, Note_on_c, 0, 83, 105
2, 110904, Control_c, 0, 64, 0
2, 110904, Note_on_c, 0, 47, 95
2, 110906, Note_on_c, 0, 76, 0
2, 110908, Note_on_c, 0, 71, 99
2, 110910, Note_on_c, 0, 78, 93
2, 110910, Note_on_c, 0, 59, 0
2, 110910, Note_on_c, 0, 52, 0
2, 110910, Note_on_c, 0, 64, 0
2, 110911, Note_on_c, 0, 45, 0
2, 110912, Note_on_c, 0, 76, 91
2, 110922, Note_on_c, 0, 80, 0
2, 110983, Control_c, 0, 64, 127
2, 111026, Note_on_c, 0, 54, 86
2, 111133, Note_on_c, 0, 59, 91
2, 111237, Note_on_c, 0, 83, 0
2, 111248, Note_on_c, 0, 83, 98
2, 111272, Note_on_c, 0, 64, 90
2, 111367, Note_on_c, 0, 71, 0
2, 111367, Note_on_c, 0, 83, 0
2, 111371, Note_on_c, 0, 83, 97
2, 111371, Note_on_c, 0, 71, 95
2, 111467, Note_on_c, 0, 76, 0
2, 111472, Note_on_c, 0, 76, 95
2, 111575, Note_on_c, 0, 76, 0
2, 111575, Note_on_c, 0, 83, 0
2, 111582, Note_on_c, 0, 78, 0
2, 111583, Note_on_c, 0, 76, 101
2, 111586, Note_on_c, 0, 83, 104
2, 111592, Note_on_c, 0, 78, 97
2, 111690, Note_on_c, 0, 71, 0
2, 111698, Note_on_c, 0, 71, 93
2, 111805, Note_on_c, 0, 64, 0
2, 111809, Note_on_c, 0, 85, 106
2, 111809, Note_on_c, 0, 64, 93
2, 111809, Note_on_c, 0, 73, 103
2, 111912, Note_on_c, 0, 59, 0
2, 111916, Note_on_c, 0, 59, 99
2, 112023, Note_on_c, 0, 52, 76
2, 112028, Note_on_c, 0, 87, 108
2, 112039, Note_on_c, 0, 75, 99
2, 112066, Note_on_c, 0, 47, 0
2, 112072, Note_on_c, 0, 47, 80
2, 112258, Note_on_c, 0, 59, 0
2, 112262, Control_c, 0, 64, 0
2, 112263, Note_on_c, 0, 59, 96
2, 112266, Note_on_c, 0, 76, 0
2, 112266, Note_on_c, 0, 83, 0
2, 112268, Note_on_c, 0, 88, 108
2, 112269, Note_on_c, 0, 80, 101
2, 112270, Note_on_c, 0, 76, 105
2, 112271, Note_on_c, 0, 83, 94
2, 112271, Note_on_c, 0, 64, 0
2, 112272, Note_on_c, 0, 85, 0
2, 112274, Note_on_c, 0, 73, 0
2, 112274, Note_on_c, 0, 71, 0
2, 112275, Note_on_c, 0, 78, 0
2, 112275, Note_on_c, 0, 47, 0
2, 112276, Note_on_c, 0, 54, 0
2, 112276, Note_on_c, 0, 52, 0
2, 112276, Note_on_c, 0, 75, 0
2, 112276, Note_on_c, 0, 49, 90
2, 112276, Note_on_c, 0, 56, 91
2, 112276, Note_on_c, 0, 87, 0
2, 112343, Control_c, 0, 64, 127
2, 112512, Note_on_c, 0, 49, 0
2, 112517, Note_on_c, 0, 49, 79
2, 112634, Note_on_c, 0, 80, 0
2, 112639, Note_on_c, 0, 80, 95
2, 112640, Note_on_c, 0, 75, 104
2, 112641, Note_on_c, 0, 87, 108
2, 112643, Note_on_c, 0, 63, 96
2, 112757, Note_on_c, 0, 49, 0
2, 112767, Note_on_c, 0, 49, 87
2, 112872, Note_on_c, 0, 56, 0
2, 112876, Note_on_c, 0, 56, 88
2, 112980, Note_on_c, 0, 76, 0
2, 112980, Note_on_c, 0, 88, 0
2, 112988, Note_on_c, 0, 80, 0
2, 112988, Note_on_c, 0, 83, 0
2, 112989, Note_on_c, 0, 88, 109
2, 112991, Note_on_c, 0, 64, 102
2, 112991, Note_on_c, 0, 76, 105
2, 112992, Note_on_c, 0, 80, 100
2, 112992, Note_on_c, 0, 83, 86
2, 113111, Note_on_c, 0, 49, 0
2, 113121, Note_on_c, 0, 49, 84
2, 113226, Note_on_c, 0, 56, 0
2, 113233, Note_on_c, 0, 56, 86
2, 113328, Note_on_c, 0, 66, 96
2, 113333, Note_on_c, 0, 87, 0
2, 113335, Note_on_c, 0, 90, 110
2, 113337, Note_on_c, 0, 78, 105
2, 113337, Note_on_c, 0, 87, 95
2, 113433, Note_on_c, 0, 49, 0
2, 113439, Note_on_c, 0, 49, 79
2, 113548, Note_on_c, 0, 56, 0
2, 113552, Note_on_c, 0, 56, 59
2, 113558, Note_on_c, 0, 87, 0
2, 113702, Note_on_c, 0, 88, 0
2, 113710, Note_on_c, 0, 59, 0
2, 113710, Note_on_c, 0, 76, 0
2, 113712, Note_on_c, 0, 88, 107
2, 113713, Control_c, 0, 64, 0
2, 113714, Note_on_c, 0, 76, 105
2, 113715, Note_on_c, 0, 90, 0
2, 113715, Note_on_c, 0, 64, 0
2, 113715, Note_on_c, 0, 78, 0
2, 113717, Note_on_c, 0, 49, 0
2, 113717, Note_on_c, 0, 81, 97
2, 113718, Note_on_c, 0, 80, 0
2, 113718, Note_on_c, 0, 85, 99
2, 113719, Note_on_c, 0, 56, 0
2, 113719, Note_on_c, 0, 75, 0
2, 113720, Note_on_c, 0, 63, 0
2, 113721, Note_on_c, 0, 52, 81
2, 113721, Note_on_c, 0, 59, 91
2, 113721, Note_on_c, 0, 45, 76
2, 113721, Note_on_c, 0, 49, 80
2, 113721, Note_on_c, 0, 66, 0
2, 113825, Control_c, 0, 64, 127
2, 113978, Note_on_c, 0, 88, 0
2, 113982, Note_on_c, 0, 88, 71
2, 114201, Note_on_c, 0, 88, 0
2, 114205, Note_on_c, 0, 88, 65
2, 114224, Note_on_c, 0, 59, 0
2, 114228, Note_on_c, 0, 59, 74
2, 114426, Note_on_c, 0, 64, 101
2, 114432, Note_on_c, 0, 88, 0
2, 114439, Note_on_c, 0, 88, 94
2, 114662, Note_on_c, 0, 66, 86
2, 114677, Note_on_c, 0, 88, 0
2, 114685, Note_on_c, 0, 45, 0
2, 114688, Note_on_c, 0, 88, 65
2, 114908, Note_on_c, 0, 64, 0
2, 114908, Note_on_c, 0, 88, 0
2, 114913, Note_on_c, 0, 64, 86
2, 114918, Note_on_c, 0, 88, 77
2, 115146, Note_on_c, 0, 88, 0
2, 115146, Control_c, 0, 64, 0
2, 115151, Note_on_c, 0, 88, 78
2, 115153, Note_on_c, 0, 49, 0
2, 115153, Note_on_c, 0, 76, 0
2, 115155, Note_on_c, 0, 81, 0
2, 115157, Note_on_c, 0, 66, 0
2, 115159, Note_on_c, 0, 56, 65
2, 115161, Note_on_c, 0, 59, 0
2, 115161, Note_on_c, 0, 52, 0
2, 115162, Note_on_c, 0, 76, 63
2, 115164, Note_on_c, 0, 49, 66
2, 115165, Note_on_c, 0, 59, 56
2, 115169, Note_on_c, 0, 83, 0
2, 115223, Control_c, 0, 64, 127
2, 115319, Note_on_c, 0, 90, 34
2, 115330, Note_on_c, 0, 90, 0
2, 115392, Note_on_c, 0, 88, 0
2, 115402, Note_on_c, 0, 88, 76
2, 115607, Note_on_c, 0, 59, 0
2, 115617, Note_on_c, 0, 59, 78
2, 115630, Note_on_c, 0, 88, 0
2, 115634, Note_on_c, 0, 88, 71
2, 115860, Note_on_c, 0, 88, 0
2, 115864, Note_on_c, 0, 88, 90
2, 115864, Note_on_c, 0, 66, 96
2, 116083, Note_on_c, 0, 64, 0
2, 116094, Note_on_c, 0, 64, 86
2, 116098, Note_on_c, 0, 88, 0
2, 116109, Note_on_c, 0, 88, 72
2, 116328, Note_on_c, 0, 66, 0
2, 116339, Note_on_c, 0, 66, 82
2, 116352, Note_on_c, 0, 88, 0
2, 116357, Note_on_c, 0, 88, 76
2, 116590, Note_on_c, 0, 59, 0
2, 116590, Note_on_c, 0, 76, 0
2, 116590, Note_on_c, 0, 88, 0
2, 116593, Control_c, 0, 64, 0
2, 116599, Note_on_c, 0, 88, 92
2, 116600, Note_on_c, 0, 76, 78
2, 116601, Note_on_c, 0, 59, 73
2, 116601, Note_on_c, 0, 47, 72
2, 116602, Note_on_c, 0, 54, 68
2, 116609, Note_on_c, 0, 64, 0
2, 116610, Note_on_c, 0, 56, 0
2, 116611, Note_on_c, 0, 49, 0
2, 116617, Note_on_c, 0, 66, 0
2, 116651, Note_on_c, 0, 85, 0
2, 116659, Control_c, 0, 64, 127
2, 116835, Note_on_c, 0, 88, 0
2, 116840, Note_on_c, 0, 88, 73
2, 117066, Note_on_c, 0, 88, 0
2, 117074, Note_on_c, 0, 88, 79
2, 117296, Note_on_c, 0, 88, 0
2, 117304, Note_on_c, 0, 76, 0
2, 117307, Note_on_c, 0, 88, 94
2, 117307, Note_on_c, 0, 66, 99
2, 117314, Note_on_c, 0, 76, 81
2, 117544, Note_on_c, 0, 64, 87
2, 117565, Note_on_c, 0, 88, 0
2, 117571, Note_on_c, 0, 88, 77
2, 117780, Note_on_c, 0, 88, 0
2, 117788, Note_on_c, 0, 88, 91
2, 118003, Note_on_c, 0, 66, 0
2, 118007, Note_on_c, 0, 66, 95
2, 118018, Note_on_c, 0, 59, 0
2, 118018, Note_on_c, 0, 76, 0
2, 118018, Note_on_c, 0, 88, 0
2, 118022, Note_on_c, 0, 59, 81
2, 118022, Note_on_c, 0, 88, 96
2, 118023, Note_on_c, 0, 76, 87
2, 118033, Control_c, 0, 64, 0
2, 118118, Control_c, 0, 64, 127
2, 118248, Note_on_c, 0, 64, 0
2, 118256, Note_on_c, 0, 88, 0
2, 118259, Note_on_c, 0, 64, 90
2, 118264, Note_on_c, 0, 47, 0
2, 118268, Note_on_c, 0, 88, 86
2, 118494, Note_on_c, 0, 66, 0
2, 118494, Note_on_c, 0, 88, 0
2, 118501, Note_on_c, 0, 66, 94
2, 118505, Note_on_c, 0, 88, 90
2, 118739, Note_on_c, 0, 69, 99
2, 118748, Note_on_c, 0, 88, 0
2, 118757, Note_on_c, 0, 88, 96
2, 118763, Note_on_c, 0, 76, 0
2, 118770, Note_on_c, 0, 76, 65
2, 118771, Control_c, 0, 64, 0
2, 118855, Control_c, 0, 64, 127
2, 118986, Note_on_c, 0, 88, 0
2, 118990, Note_on_c, 0, 68, 92
2, 118990, Note_on_c, 0, 88, 93
2, 119193, Note_on_c, 0, 64, 0
2, 119204, Note_on_c, 0, 64, 73
2, 119239, Note_on_c, 0, 88, 0
2, 119244, Note_on_c, 0, 88, 91
2, 119458, Control_c, 0, 64, 0
2, 119468, Note_on_c, 0, 73, 98
2, 119470, Note_on_c, 0, 64, 0
2, 119473, Note_on_c, 0, 61, 84
2, 119473, Note_on_c, 0, 57, 85
2, 119474, Note_on_c, 0, 64, 84
2, 119475, Note_on_c, 0, 88, 0
2, 119475, Note_on_c, 0, 66, 0
2, 119477, Note_on_c, 0, 59, 0
2, 119478, Note_on_c, 0, 68, 0
2, 119478, Note_on_c, 0, 69, 0
2, 119479, Note_on_c, 0, 76, 0
2, 119493, Note_on_c, 0, 54, 0
2, 119546, Control_c, 0, 64, 127
2, 119692, Note_on_c, 0, 57, 0
2, 119697, Note_on_c, 0, 57, 44
2, 119792, Note_on_c, 0, 61, 0
2, 119799, Note_on_c, 0, 61, 54
2, 119915, Note_on_c, 0, 57, 0
2, 119919, Note_on_c, 0, 83, 95
2, 119920, Note_on_c, 0, 57, 66
2, 119934, Control_c, 0, 64, 0
2, 119953, Control_c, 0, 64, 127
2, 120007, Note_on_c, 0, 61, 0
2, 120013, Note_on_c, 0, 61, 72
2, 120130, Note_on_c, 0, 64, 0
2, 120140, Note_on_c, 0, 64, 93
2, 120156, Note_on_c, 0, 88, 102
2, 120157, Note_on_c, 0, 71, 93
2, 120157, Note_on_c, 0, 76, 98
2, 120374, Note_on_c, 0, 59, 68
2, 120397, Note_on_c, 0, 90, 99
2, 120404, Note_on_c, 0, 78, 85
2, 120476, Note_on_c, 0, 64, 0
2, 120484, Note_on_c, 0, 64, 73
2, 120622, Note_on_c, 0, 59, 0
2, 120622, Note_on_c, 0, 76, 0
2, 120622, Note_on_c, 0, 88, 0
2, 120626, Note_on_c, 0, 88, 99
2, 120627, Note_on_c, 0, 59, 73
2, 120631, Note_on_c, 0, 76, 88
2, 120721, Note_on_c, 0, 64, 0
2, 120730, Note_on_c, 0, 64, 70
2, 120842, Control_c, 0, 64, 0
2, 120844, Note_on_c, 0, 61, 0
2, 120844, Note_on_c, 0, 64, 0
2, 120844, Note_on_c, 0, 73, 0
2, 120848, Note_on_c, 0, 57, 0
2, 120848, Note_on_c, 0, 78, 0
2, 120849, Note_on_c, 0, 68, 97
2, 120849, Note_on_c, 0, 59, 0
2, 120849, Note_on_c, 0, 71, 0
2, 120850, Note_on_c, 0, 90, 0
2, 120850, Note_on_c, 0, 64, 87
2, 120850, Note_on_c, 0, 83, 0
2, 120853, Note_on_c, 0, 61, 88
2, 120929, Control_c, 0, 64, 127
2, 121082, Note_on_c, 0, 61, 0
2, 121093, Note_on_c, 0, 61, 64
2, 121213, Note_on_c, 0, 64, 0
2, 121217, Note_on_c, 0, 64, 73
2, 121313, Note_on_c, 0, 61, 0
2, 121324, Note_on_c, 0, 61, 65
2, 121324, Note_on_c, 0, 83, 85
2, 121405, Note_on_c, 0, 64, 0
2, 121410, Note_on_c, 0, 64, 63
2, 121545, Note_on_c, 0, 90, 103
2, 121551, Note_on_c, 0, 61, 0
2, 121551, Note_on_c, 0, 64, 0
2, 121555, Note_on_c, 0, 78, 91
2, 121556, Note_on_c, 0, 64, 83
2, 121559, Note_on_c, 0, 83, 0
2, 121562, Note_on_c, 0, 61, 76
2, 121567, Note_on_c, 0, 83, 77
2, 121578, Note_on_c, 0, 68, 0
2, 121605, Note_on_c, 0, 76, 0
2, 121605, Note_on_c, 0, 88, 0
2, 121781, Note_on_c, 0, 61, 0
2, 121792, Note_on_c, 0, 61, 75
2, 121795, Note_on_c, 0, 88, 89
2, 121798, Note_on_c, 0, 76, 84
2, 121889, Note_on_c, 0, 64, 0
2, 121895, Note_on_c, 0, 64, 69
2, 122012, Note_on_c, 0, 61, 0
2, 122012, Note_on_c, 0, 90, 0
2, 122016, Note_on_c, 0, 61, 77
2, 122019, Note_on_c, 0, 78, 0
2, 122022, Note_on_c, 0, 90, 98
2, 122023, Note_on_c, 0, 78, 92
2, 122242, Note_on_c, 0, 64, 0
2, 122244, Note_on_c, 0, 66, 97
2, 122245, Note_on_c, 0, 71, 100
2, 122250, Note_on_c, 0, 78, 0
2, 122250, Note_on_c, 0, 90, 0
2, 122254, Note_on_c, 0, 64, 93
2, 122255, Note_on_c, 0, 61, 0
2, 122255, Note_on_c, 0, 78, 98
2, 122256, Note_on_c, 0, 88, 0
2, 122257, Note_on_c, 0, 83, 0
2, 122258, Note_on_c, 0, 90, 102
2, 122258, Note_on_c, 0, 76, 0
2, 122259, Note_on_c, 0, 59, 84
2, 122262, Note_on_c, 0, 83, 91
2, 122263, Control_c, 0, 64, 0
2, 122457, Control_c, 0, 64, 127
2, 122472, Note_on_c, 0, 59, 0
2, 122478, Note_on_c, 0, 59, 62
2, 122595, Note_on_c, 0, 64, 0
2, 122602, Note_on_c, 0, 64, 70
2, 122711, Note_on_c, 0, 59, 0
2, 122715, Note_on_c, 0, 59, 58
2, 122803, Note_on_c, 0, 64, 0
2, 122813, Note_on_c, 0, 64, 84
2, 122949, Note_on_c, 0, 90, 0
2, 122956, Note_on_c, 0, 59, 0
2, 122956, Note_on_c, 0, 64, 0
2, 122956, Note_on_c, 0, 71, 0
2, 122956, Note_on_c, 0, 78, 0
2, 122956, Note_on_c, 0, 83, 0
2, 122958, Note_on_c, 0, 90, 103
2, 122962, Note_on_c, 0, 78, 98
2, 122962, Note_on_c, 0, 64, 100
2, 122965, Note_on_c, 0, 83, 96
2, 122967, Control_c, 0, 64, 0
2, 122967, Note_on_c, 0, 59, 88
2, 122987, Note_on_c, 0, 66, 0
2, 123018, Control_c, 0, 64, 127
2, 123187, Note_on_c, 0, 59, 0
2, 123191, Note_on_c, 0, 59, 76
2, 123199, Note_on_c, 0, 88, 95
2, 123203, Note_on_c, 0, 76, 87
2, 123287, Note_on_c, 0, 64, 0
2, 123296, Note_on_c, 0, 64, 89
2, 123417, Note_on_c, 0, 59, 0
2, 123417, Note_on_c, 0, 64, 0
2, 123423, Note_on_c, 0, 68, 103
2, 123424, Note_on_c, 0, 59, 78
2, 123426, Control_c, 0, 64, 0
2, 123426, Note_on_c, 0, 64, 79
2, 123448, Control_c, 0, 64, 127
2, 123671, Note_on_c, 0, 59, 0
2, 123671, Note_on_c, 0, 78, 0
2, 123671, Note_on_c, 0, 90, 0
2, 123675, Note_on_c, 0, 63, 93
2, 123678, Note_on_c, 0, 83, 0
2, 123680, Note_on_c, 0, 66, 92
2, 123682, Note_on_c, 0, 90, 103
2, 123682, Note_on_c, 0, 78, 100
2, 123682, Note_on_c, 0, 59, 84
2, 123685, Note_on_c, 0, 76, 0
2, 123686, Note_on_c, 0, 68, 0
2, 123687, Note_on_c, 0, 88, 0
2, 123687, Note_on_c, 0, 83, 93
2, 123688, Note_on_c, 0, 64, 0
2, 123689, Control_c, 0, 64, 0
2, 123824, Control_c, 0, 64, 127
2, 123937, Note_on_c, 0, 88, 103
2, 123938, Note_on_c, 0, 76, 99
2, 124170, Note_on_c, 0, 78, 0
2, 124170, Note_on_c, 0, 90, 0
2, 124175, Note_on_c, 0, 90, 110
2, 124177, Note_on_c, 0, 78, 107
2, 124419, Note_on_c, 0, 78, 0
2, 124420, Note_on_c, 0, 93, 112
2, 124420, Note_on_c, 0, 63, 0
2, 124420, Note_on_c, 0, 90, 0
2, 124420, Note_on_c, 0, 76, 0
2, 124420, Note_on_c, 0, 88, 0
2, 124421, Note_on_c, 0, 81, 107
2, 124422, Note_on_c, 0, 66, 0
2, 124422, Note_on_c, 0, 83, 0
2, 124424, Control_c, 0, 64, 0
2, 124439, Note_on_c, 0, 59, 0
2, 124693, Note_on_c, 0, 92, 110
2, 124695, Note_on_c, 0, 80, 107
2, 124715, Control_c, 0, 64, 127
2, 125010, Note_on_c, 0, 88, 109
2, 125011, Note_on_c, 0, 76, 103
2, 125492, Note_on_c, 0, 73, 109
2, 125492, Note_on_c, 0, 64, 107
2, 125494, Note_on_c, 0, 45, 108
2, 125494, Note_on_c, 0, 69, 97
2, 125495, Note_on_c, 0, 33, 97
2, 125509, Note_on_c, 0, 76, 0
2, 125521, Note_on_c, 0, 92, 0
2, 125537, Note_on_c, 0, 93, 0
2, 125583, Note_on_c, 0, 81, 0
2, 125637, Note_on_c, 0, 80, 0
2, 125644, Note_on_c, 0, 45, 0
2, 125649, Note_on_c, 0, 45, 57
2, 125764, Note_on_c, 0, 85, 96
2, 125829, Note_on_c, 0, 88, 0
2, 125837, Note_on_c, 0, 88, 92
2, 125916, Note_on_c, 0, 95, 92
2, 125955, Note_on_c, 0, 97, 109
2, 125979, Note_on_c, 0, 57, 97
2, 126190, Note_on_c, 0, 64, 0
2, 126201, Note_on_c, 0, 64, 106
2, 126201, Note_on_c, 0, 61, 105
2, 126202, Note_on_c, 0, 71, 102
2, 126203, Control_c, 0, 64, 0
2, 126251, Control_c, 0, 64, 127
2, 126437, Note_on_c, 0, 83, 95
2, 126504, Note_on_c, 0, 88, 0
2, 126511, Note_on_c, 0, 88, 94
2, 126585, Note_on_c, 0, 93, 90
2, 126612, Note_on_c, 0, 95, 0
2, 126619, Note_on_c, 0, 95, 106
2, 126657, Note_on_c, 0, 47, 99
2, 126662, Note_on_c, 0, 35, 88
2, 126838, Note_on_c, 0, 33, 0
2, 126839, Note_on_c, 0, 97, 0
2, 126839, Note_on_c, 0, 85, 0
2, 126839, Note_on_c, 0, 35, 0
2, 126839, Note_on_c, 0, 64, 0
2, 126839, Note_on_c, 0, 93, 0
2, 126840, Note_on_c, 0, 73, 0
2, 126840, Note_on_c, 0, 95, 0
2, 126840, Note_on_c, 0, 69, 0
2, 126840, Note_on_c, 0, 83, 0
2, 126840, Note_on_c, 0, 71, 0
2, 126840, Note_on_c, 0, 45, 0
2, 126840, Note_on_c, 0, 88, 0
2, 126840, Note_on_c, 0, 57, 0
2, 126841, Note_on_c, 0, 61, 0
2, 126841, Control_c, 0, 64, 0
2, 126841, Note_on_c, 0, 47, 0
2, 126899, Note_on_c, 0, 68, 108
2, 126899, Note_on_c, 0, 49, 102
2, 126900, Note_on_c, 0, 37, 95
2, 126900, Note_on_c, 0, 64, 100
2, 126950, Control_c, 0, 64, 127
2, 127145, Note_on_c, 0, 83, 95
2, 127165, Note_on_c, 0, 64, 0
2, 127218, Note_on_c, 0, 88, 96
2, 127297, Note_on_c, 0, 90, 96
2, 127353, Note_on_c, 0, 92, 104
2, 127357, Note_on_c, 0, 49, 0
2, 127362, Note_on_c, 0, 49, 93
2, 127599, Note_on_c, 0, 64, 104
2, 127602, Note_on_c, 0, 56, 95
2, 127602, Note_on_c, 0, 59, 97
2, 127818, Note_on_c, 0, 83, 0
2, 127825, Note_on_c, 0, 83, 94
2, 127902, Note_on_c, 0, 88, 0
2, 127914, Note_on_c, 0, 88, 89
2, 127971, Note_on_c, 0, 90, 0
2, 127983, Note_on_c, 0, 90, 91
2, 128033, Note_on_c, 0, 92, 0
2, 128040, Note_on_c, 0, 92, 100
2, 128071, Note_on_c, 0, 37, 0
2, 128071, Note_on_c, 0, 49, 0
2, 128076, Note_on_c, 0, 49, 80
2, 128081, Note_on_c, 0, 37, 86
2, 128243, Control_c, 0, 64, 0
2, 128258, Note_on_c, 0, 90, 0
2, 128259, Note_on_c, 0, 37, 0
2, 128260, Note_on_c, 0, 59, 0
2, 128260, Note_on_c, 0, 49, 0
2, 128260, Note_on_c, 0, 83, 0
2, 128261, Note_on_c, 0, 64, 0
2, 128262, Note_on_c, 0, 56, 0
2, 128279, Note_on_c, 0, 68, 0
2, 128279, Note_on_c, 0, 92, 0
2, 128294, Note_on_c, 0, 88, 0
2, 128294, Note_on_c, 0, 71, 107
2, 128297, Note_on_c, 0, 66, 100
2, 128298, Note_on_c, 0, 64, 102
2, 128301, Note_on_c, 0, 47, 101
2, 128304, Note_on_c, 0, 35, 91
2, 128332, Control_c, 0, 64, 127
2, 128363, Note_on_c, 0, 66, 0
2, 128522, Note_on_c, 0, 83, 85
2, 128597, Note_on_c, 0, 88, 95
2, 128665, Note_on_c, 0, 90, 96
2, 128693, Note_on_c, 0, 64, 0
2, 128727, Note_on_c, 0, 95, 105
2, 128739, Note_on_c, 0, 47, 0
2, 128748, Note_on_c, 0, 59, 91
2, 128749, Note_on_c, 0, 47, 90
2, 128757, Note_on_c, 0, 54, 87
2, 128985, Note_on_c, 0, 59, 0
2, 128989, Note_on_c, 0, 64, 108
2, 128991, Note_on_c, 0, 59, 97
2, 129024, Note_on_c, 0, 71, 0
2, 129192, Note_on_c, 0, 83, 0
2, 129204, Note_on_c, 0, 83, 90
2, 129254, Note_on_c, 0, 88, 0
2, 129263, Note_on_c, 0, 88, 96
2, 129331, Note_on_c, 0, 90, 0
2, 129341, Note_on_c, 0, 90, 91
2, 129408, Note_on_c, 0, 92, 97
2, 129455, Note_on_c, 0, 68, 104
2, 129676, Note_on_c, 0, 95, 0
2, 129684, Note_on_c, 0, 54, 0
2, 129687, Note_on_c, 0, 95, 110
2, 129688, Note_on_c, 0, 54, 107
2, 129688, Note_on_c, 0, 66, 106
2, 129764, Note_on_c, 0, 93, 98
2, 129807, Note_on_c, 0, 92, 0
2, 129817, Note_on_c, 0, 92, 92
2, 129861, Note_on_c, 0, 90, 0
2, 129865, Note_on_c, 0, 90, 87
2, 129907, Note_on_c, 0, 64, 0
2, 129907, Note_on_c, 0, 88, 0
2, 129912, Note_on_c, 0, 64, 101
2, 129913, Note_on_c, 0, 52, 94
2, 129915, Note_on_c, 0, 88, 88
2, 129977, Note_on_c, 0, 87, 78
2, 130024, Note_on_c, 0, 85, 90
2, 130068, Note_on_c, 0, 83, 0
2, 130079, Note_on_c, 0, 83, 80
2, 130122, Note_on_c, 0, 54, 0
2, 130128, Note_on_c, 0, 81, 82
2, 130129, Note_on_c, 0, 66, 0
2, 130133, Note_on_c, 0, 54, 100
2, 130137, Note_on_c, 0, 66, 94
2, 130199, Note_on_c, 0, 80, 88
2, 130270, Note_on_c, 0, 78, 92
2, 130319, Note_on_c, 0, 76, 84
2, 130375, Note_on_c, 0, 83, 0
2, 130380, Note_on_c, 0, 69, 100
2, 130381, Note_on_c, 0, 57, 108
2, 130384, Note_on_c, 0, 83, 98
2, 130437, Note_on_c, 0, 81, 0
2, 130442, Note_on_c, 0, 81, 98
2, 130498, Note_on_c, 0, 80, 0
2, 130506, Note_on_c, 0, 80, 84
2, 130544, Note_on_c, 0, 78, 0
2, 130553, Note_on_c, 0, 78, 76
2, 130583, Note_on_c, 0, 76, 0
2, 130590, Note_on_c, 0, 76, 77
2, 130598, Note_on_c, 0, 68, 0
2, 130605, Note_on_c, 0, 56, 101
2, 130606, Note_on_c, 0, 68, 103
2, 130680, Note_on_c, 0, 75, 84
2, 130742, Note_on_c, 0, 73, 92
2, 130794, Note_on_c, 0, 71, 84
2, 130836, Note_on_c, 0, 52, 0
2, 130836, Note_on_c, 0, 64, 0
2, 130845, Note_on_c, 0, 52, 102
2, 130845, Note_on_c, 0, 64, 106
2, 131018, Note_on_c, 0, 75, 0
2, 131018, Note_on_c, 0, 95, 0
2, 131019, Note_on_c, 0, 71, 0
2, 131019, Note_on_c, 0, 90, 0
2, 131019, Note_on_c, 0, 80, 0
2, 131019, Note_on_c, 0, 73, 0
2, 131019, Note_on_c, 0, 83, 0
2, 131019, Note_on_c, 0, 93, 0
2, 131020, Note_on_c, 0, 78, 0
2, 131020, Note_on_c, 0, 69, 0
2, 131020, Note_on_c, 0, 59, 0
2, 131020, Note_on_c, 0, 76, 0
2, 131020, Note_on_c, 0, 56, 0
2, 131020, Note_on_c, 0, 64, 0
2, 131020, Note_on_c, 0, 52, 0
2, 131021, Note_on_c, 0, 88, 0
2, 131021, Note_on_c, 0, 57, 0
2, 131021, Note_on_c, 0, 85, 0
2, 131022, Note_on_c, 0, 68, 0
2, 131022, Control_c, 0, 64, 0
2, 131028, Note_on_c, 0, 81, 0
2, 131036, Note_on_c, 0, 35, 0
2, 131036, Note_on_c, 0, 47, 0
2, 131036, Note_on_c, 0, 54, 0
2, 131036, Note_on_c, 0, 66, 0
2, 131036, Note_on_c, 0, 87, 0
2, 131036, Note_on_c, 0, 92, 0
2, 131071, Note_on_c, 0, 73, 108
2, 131071, Note_on_c, 0, 45, 105
2, 131071, Note_on_c, 0, 64, 101
2, 131072, Note_on_c, 0, 69, 98
2, 131075, Note_on_c, 0, 33, 96
2, 131136, Control_c, 0, 64, 127
2, 131341, Note_on_c, 0, 85, 85
2, 131384, Note_on_c, 0, 88, 96
2, 131437, Note_on_c, 0, 95, 86
2, 131504, Note_on_c, 0, 69, 0
2, 131523, Note_on_c, 0, 97, 112
2, 131527, Note_on_c, 0, 33, 0
2, 131527, Note_on_c, 0, 45, 0
2, 131532, Note_on_c, 0, 52, 83
2, 131532, Note_on_c, 0, 45, 88
2, 131533, Note_on_c, 0, 33, 86
2, 131765, Note_on_c, 0, 64, 0
2, 131769, Note_on_c, 0, 71, 105
2, 131771, Note_on_c, 0, 61, 103
2, 131771, Note_on_c, 0, 64, 103
2, 132010, Note_on_c, 0, 83, 91
2, 132072, Note_on_c, 0, 88, 0
2, 132079, Note_on_c, 0, 88, 96
2, 132119, Note_on_c, 0, 73, 0
2, 132119, Note_on_c, 0, 95, 0
2, 132145, Note_on_c, 0, 93, 84
2, 132165, Note_on_c, 0, 52, 0
2, 132165, Note_on_c, 0, 97, 0
2, 132192, Note_on_c, 0, 95, 104
2, 132225, Note_on_c, 0, 47, 95
2, 132230, Note_on_c, 0, 35, 81
2, 132397, Control_c, 0, 64, 0
2, 132400, Note_on_c, 0, 33, 0
2, 132401, Note_on_c, 0, 35, 0
2, 132401, Note_on_c, 0, 61, 0
2, 132401, Note_on_c, 0, 64, 0
2, 132402, Note_on_c, 0, 93, 0
2, 132402, Note_on_c, 0, 85, 0
2, 132402, Note_on_c, 0, 45, 0
2, 132403, Note_on_c, 0, 47, 0
2, 132403, Note_on_c, 0, 83, 0
2, 132404, Note_on_c, 0, 95, 0
2, 132404, Note_on_c, 0, 88, 0
2, 132404, Note_on_c, 0, 71, 0
2, 132460, Note_on_c, 0, 68, 110
2, 132461, Note_on_c, 0, 64, 103
2, 132462, Note_on_c, 0, 49, 100
2, 132463, Note_on_c, 0, 37, 94
2, 132499, Note_on_c, 0, 68, 0
2, 132503, Control_c, 0, 64, 127
2, 132708, Note_on_c, 0, 83, 88
2, 132784, Note_on_c, 0, 88, 95
2, 132850, Note_on_c, 0, 90, 99
2, 132902, Note_on_c, 0, 64, 0
2, 132902, Note_on_c, 0, 92, 99
2, 132910, Note_on_c, 0, 49, 0
2, 132919, Note_on_c, 0, 49, 92
2, 133148, Note_on_c, 0, 64, 105
2, 133151, Note_on_c, 0, 56, 97
2, 133151, Note_on_c, 0, 59, 98
2, 133386, Note_on_c, 0, 83, 0
2, 133390, Note_on_c, 0, 83, 89
2, 133440, Note_on_c, 0, 88, 0
2, 133450, Note_on_c, 0, 88, 92
2, 133516, Note_on_c, 0, 90, 0
2, 133528, Note_on_c, 0, 90, 90
2, 133570, Note_on_c, 0, 92, 0
2, 133579, Note_on_c, 0, 92, 98
2, 133601, Note_on_c, 0, 37, 0
2, 133601, Note_on_c, 0, 49, 0
2, 133612, Note_on_c, 0, 49, 82
2, 133612, Note_on_c, 0, 37, 89
2, 133797, Control_c, 0, 64, 0
2, 133802, Note_on_c, 0, 37, 0
2, 133802, Note_on_c, 0, 90, 0
2, 133803, Note_on_c, 0, 49, 0
2, 133804, Note_on_c, 0, 56, 0
2, 133804, Note_on_c, 0, 83, 0
2, 133804, Note_on_c, 0, 59, 0
2, 133804, Note_on_c, 0, 64, 0
2, 133816, Note_on_c, 0, 92, 0
2, 133824, Note_on_c, 0, 88, 0
2, 133838, Note_on_c, 0, 71, 105
2, 133842, Note_on_c, 0, 64, 105
2, 133843, Note_on_c, 0, 47, 103
2, 133843, Note_on_c, 0, 66, 100
2, 133844, Note_on_c, 0, 35, 91
2, 133916, Control_c, 0, 64, 127
2, 133923, Note_on_c, 0, 66, 0
2, 133939, Note_on_c, 0, 47, 0
2, 133946, Note_on_c, 0, 71, 0
2, 134106, Note_on_c, 0, 83, 63
2, 134123, Note_on_c, 0, 35, 0
2, 134165, Note_on_c, 0, 88, 94
2, 134220, Note_on_c, 0, 90, 94
2, 134281, Note_on_c, 0, 47, 94
2, 134282, Note_on_c, 0, 59, 94
2, 134283, Note_on_c, 0, 95, 107
2, 134283, Note_on_c, 0, 54, 85
2, 134507, Note_on_c, 0, 64, 0
2, 134515, Note_on_c, 0, 59, 0
2, 134516, Note_on_c, 0, 64, 110
2, 134519, Note_on_c, 0, 59, 94
2, 134737, Note_on_c, 0, 83, 0
2, 134742, Note_on_c, 0, 83, 88
2, 134791, Note_on_c, 0, 88, 0
2, 134798, Note_on_c, 0, 88, 98
2, 134868, Note_on_c, 0, 90, 0
2, 134873, Note_on_c, 0, 90, 90
2, 134942, Note_on_c, 0, 92, 104
2, 134978, Note_on_c, 0, 68, 105
2, 135217, Note_on_c, 0, 78, 112
2, 135217, Note_on_c, 0, 66, 108
2, 135218, Note_on_c, 0, 71, 96
2, 135220, Note_on_c, 0, 75, 97
2, 135313, Note_on_c, 0, 42, 88
2, 135390, Note_on_c, 0, 47, 0
2, 135396, Note_on_c, 0, 47, 84
2, 135444, Note_on_c, 0, 64, 0
2, 135453, Note_on_c, 0, 76, 104
2, 135455, Note_on_c, 0, 64, 101
2, 135481, Note_on_c, 0, 49, 82
2, 135555, Note_on_c, 0, 51, 86
2, 135632, Note_on_c, 0, 52, 84
2, 135682, Note_on_c, 0, 66, 0
2, 135682, Note_on_c, 0, 78, 0
2, 135687, Note_on_c, 0, 78, 109
2, 135688, Note_on_c, 0, 66, 102
2, 135697, Note_on_c, 0, 54, 0
2, 135708, Note_on_c, 0, 54, 93
2, 135769, Note_on_c, 0, 56, 83
2, 135844, Note_on_c, 0, 57, 92
2, 135905, Note_on_c, 0, 59, 0
2, 135914, Note_on_c, 0, 81, 110
2, 135915, Note_on_c, 0, 69, 105
2, 135916, Note_on_c, 0, 59, 93
2, 136007, Note_on_c, 0, 61, 93
2, 136069, Note_on_c, 0, 63, 90
2, 136128, Note_on_c, 0, 64, 0
2, 136135, Note_on_c, 0, 64, 96
2, 136137, Note_on_c, 0, 80, 107
2, 136204, Note_on_c, 0, 66, 0
2, 136212, Note_on_c, 0, 66, 93
2, 136250, Note_on_c, 0, 68, 0
2, 136257, Note_on_c, 0, 68, 95
2, 136320, Note_on_c, 0, 69, 0
2, 136331, Note_on_c, 0, 69, 91
2, 136366, Note_on_c, 0, 71, 0
2, 136366, Note_on_c, 0, 76, 0
2, 136375, Note_on_c, 0, 76, 103
2, 136377, Note_on_c, 0, 71, 100
2, 136598, Control_c, 0, 64, 0
2, 136602, Note_on_c, 0, 42, 0
2, 136602, Note_on_c, 0, 49, 0
2, 136602, Note_on_c, 0, 47, 0
2, 136604, Note_on_c, 0, 95, 0
2, 136604, Note_on_c, 0, 75, 0
2, 136604, Note_on_c, 0, 64, 0
2, 136605, Note_on_c, 0, 57, 0
2, 136605, Note_on_c, 0, 54, 0
2, 136605, Note_on_c, 0, 90, 0
2, 136605, Note_on_c, 0, 92, 0
2, 136605, Note_on_c, 0, 68, 0
2, 136605, Note_on_c, 0, 63, 0
2, 136605, Note_on_c, 0, 52, 0
2, 136605, Note_on_c, 0, 56, 0
2, 136606, Note_on_c, 0, 78, 0
2, 136606, Note_on_c, 0, 51, 0
2, 136606, Note_on_c, 0, 71, 0
2, 136606, Note_on_c, 0, 83, 0
2, 136607, Note_on_c, 0, 88, 0
2, 136611, Note_on_c, 0, 76, 0
2, 136611, Note_on_c, 0, 81, 0
2, 136616, Note_on_c, 0, 33, 92
2, 136616, Note_on_c, 0, 45, 103
2, 136617, Note_on_c, 0, 81, 99
2, 136617, Note_on_c, 0, 76, 95
2, 136618, Note_on_c, 0, 85, 106
2, 136619, Note_on_c, 0, 59, 0
2, 136619, Note_on_c, 0, 61, 0
2, 136619, Note_on_c, 0, 66, 0
2, 136619, Note_on_c, 0, 69, 0
2, 136619, Note_on_c, 0, 80, 0
2, 136688, Control_c, 0, 64, 127
2, 136761, Note_on_c, 0, 73, 61
2, 136834, Note_on_c, 0, 45, 0
2, 136844, Note_on_c, 0, 45, 67
2, 136955, Note_on_c, 0, 52, 84
2, 136957, Note_on_c, 0, 81, 0
2, 136967, Note_on_c, 0, 81, 81
2, 137078, Note_on_c, 0, 59, 103
2, 137088, Note_on_c, 0, 85, 0
2, 137097, Note_on_c, 0, 85, 93
2, 137195, Note_on_c, 0, 73, 0
2, 137206, Note_on_c, 0, 73, 76
2, 137308, Note_on_c, 0, 64, 108
2, 137310, Note_on_c, 0, 81, 0
2, 137319, Note_on_c, 0, 81, 77
2, 137320, Note_on_c, 0, 83, 90
2, 137538, Note_on_c, 0, 66, 104
2, 137656, Note_on_c, 0, 81, 0
2, 137665, Note_on_c, 0, 81, 85
2, 137763, Note_on_c, 0, 64, 0
2, 137763, Note_on_c, 0, 83, 0
2, 137768, Note_on_c, 0, 83, 89
2, 137769, Note_on_c, 0, 64, 103
2, 137894, Note_on_c, 0, 71, 52
2, 138000, Note_on_c, 0, 52, 0
2, 138000, Note_on_c, 0, 45, 0
2, 138000, Note_on_c, 0, 81, 0
2, 138003, Note_on_c, 0, 64, 0
2, 138003, Note_on_c, 0, 66, 0
2, 138003, Note_on_c, 0, 85, 0
2, 138003, Note_on_c, 0, 83, 0
2, 138003, Control_c, 0, 64, 0
2, 138004, Note_on_c, 0, 76, 0
2, 138004, Note_on_c, 0, 71, 0
2, 138004, Note_on_c, 0, 59, 0
2, 138009, Note_on_c, 0, 33, 0
2, 138012, Note_on_c, 0, 80, 93
2, 138012, Note_on_c, 0, 49, 99
2, 138013, Note_on_c, 0, 37, 98
2, 138019, Note_on_c, 0, 78, 90
2, 138024, Note_on_c, 0, 73, 0
2, 138101, Control_c, 0, 64, 127
2, 138165, Note_on_c, 0, 71, 49
2, 138216, Note_on_c, 0, 49, 0
2, 138223, Note_on_c, 0, 49, 79
2, 138256, Note_on_c, 0, 76, 52
2, 138349, Note_on_c, 0, 56, 81
2, 138362, Note_on_c, 0, 78, 0
2, 138370, Note_on_c, 0, 78, 82
2, 138442, Note_on_c, 0, 59, 102
2, 138462, Note_on_c, 0, 80, 0
2, 138466, Note_on_c, 0, 80, 88
2, 138691, Note_on_c, 0, 66, 106
2, 138693, Note_on_c, 0, 80, 0
2, 138702, Note_on_c, 0, 80, 89
2, 138800, Note_on_c, 0, 71, 0
2, 138807, Note_on_c, 0, 71, 73
2, 138915, Note_on_c, 0, 76, 0
2, 138927, Note_on_c, 0, 76, 88
2, 138927, Note_on_c, 0, 64, 102
2, 139038, Note_on_c, 0, 78, 0
2, 139042, Note_on_c, 0, 78, 80
2, 139138, Note_on_c, 0, 66, 0
2, 139138, Note_on_c, 0, 80, 0
2, 139143, Note_on_c, 0, 80, 92
2, 139147, Note_on_c, 0, 66, 100
2, 139246, Note_on_c, 0, 71, 0
2, 139252, Note_on_c, 0, 71, 85
2, 139358, Control_c, 0, 64, 0
2, 139365, Note_on_c, 0, 80, 0
2, 139365, Note_on_c, 0, 56, 0
2, 139365, Note_on_c, 0, 64, 0
2, 139366, Note_on_c, 0, 71, 0
2, 139366, Note_on_c, 0, 49, 0
2, 139367, Note_on_c, 0, 59, 0
2, 139376, Note_on_c, 0, 37, 0
2, 139381, Note_on_c, 0, 47, 106
2, 139384, Note_on_c, 0, 66, 0
2, 139384, Note_on_c, 0, 76, 0
2, 139387, Note_on_c, 0, 35, 93
2, 139388, Note_on_c, 0, 76, 93
2, 139389, Note_on_c, 0, 83, 91
2, 139392, Note_on_c, 0, 78, 0
2, 139476, Control_c, 0, 64, 127
2, 139511, Note_on_c, 0, 71, 78
2, 139614, Note_on_c, 0, 76, 0
2, 139622, Note_on_c, 0, 76, 74
2, 139725, Note_on_c, 0, 54, 85
2, 139725, Note_on_c, 0, 78, 81
2, 139837, Note_on_c, 0, 83, 0
2, 139845, Note_on_c, 0, 83, 92
2, 139857, Note_on_c, 0, 59, 97
2, 139944, Note_on_c, 0, 71, 0
2, 139953, Note_on_c, 0, 71, 74
2, 140075, Note_on_c, 0, 59, 0
2, 140075, Note_on_c, 0, 76, 0
2, 140077, Note_on_c, 0, 66, 103
2, 140079, Note_on_c, 0, 59, 93
2, 140085, Note_on_c, 0, 76, 94
2, 140198, Note_on_c, 0, 71, 0
2, 140203, Note_on_c, 0, 71, 69
2, 140298, Note_on_c, 0, 76, 0
2, 140300, Note_on_c, 0, 64, 102
2, 140302, Note_on_c, 0, 76, 84
2, 140405, Note_on_c, 0, 78, 0
2, 140415, Note_on_c, 0, 78, 88
2, 140513, Note_on_c, 0, 47, 0
2, 140524, Note_on_c, 0, 47, 97
2, 140527, Note_on_c, 0, 80, 87
2, 140613, Note_on_c, 0, 71, 0
2, 140621, Note_on_c, 0, 71, 69
2, 140751, Note_on_c, 0, 66, 0
2, 140761, Note_on_c, 0, 66, 101
2, 140763, Note_on_c, 0, 95, 105
2, 140766, Note_on_c, 0, 59, 0
2, 140770, Note_on_c, 0, 59, 96
2, 140771, Note_on_c, 0, 87, 94
2, 140881, Note_on_c, 0, 83, 0
2, 140887, Note_on_c, 0, 83, 78
2, 140989, Note_on_c, 0, 64, 0
2, 140994, Note_on_c, 0, 93, 102
2, 140994, Note_on_c, 0, 64, 99
2, 141096, Note_on_c, 0, 83, 0
2, 141100, Note_on_c, 0, 83, 85
2, 141219, Note_on_c, 0, 66, 0
2, 141229, Note_on_c, 0, 92, 101
2, 141230, Note_on_c, 0, 66, 100
2, 141327, Note_on_c, 0, 83, 0
2, 141333, Note_on_c, 0, 83, 87
2, 141442, Note_on_c, 0, 59, 0
2, 141442, Note_on_c, 0, 87, 0
2, 141445, Note_on_c, 0, 69, 108
2, 141446, Note_on_c, 0, 87, 96
2, 141447, Note_on_c, 0, 90, 88
2, 141448, Note_on_c, 0, 59, 100
2, 141557, Note_on_c, 0, 83, 0
2, 141562, Note_on_c, 0, 83, 76
2, 141680, Note_on_c, 0, 92, 0
2, 141685, Note_on_c, 0, 68, 104
2, 141685, Note_on_c, 0, 92, 99
2, 141811, Note_on_c, 0, 83, 0
2, 141819, Note_on_c, 0, 83, 72
2, 141895, Note_on_c, 0, 64, 0
2, 141903, Note_on_c, 0, 64, 103
2, 141906, Note_on_c, 0, 88, 104
2, 141987, Note_on_c, 0, 76, 0
2, 141992, Note_on_c, 0, 76, 80
2, 142108, Note_on_c, 0, 64, 0
2, 142108, Note_on_c, 0, 80, 0
2, 142109, Note_on_c, 0, 95, 0
2, 142109, Note_on_c, 0, 90, 0
2, 142109, Note_on_c, 0, 66, 0
2, 142110, Note_on_c, 0, 71, 0
2, 142110, Note_on_c, 0, 83, 0
2, 142110, Note_on_c, 0, 68, 0
2, 142111, Note_on_c, 0, 47, 0
2, 142111, Note_on_c, 0, 93, 0
2, 142111, Note_on_c, 0, 87, 0
2, 142111, Note_on_c, 0, 92, 0
2, 142112, Note_on_c, 0, 59, 0
2, 142113, Note_on_c, 0, 69, 0
2, 142114, Control_c, 0, 64, 0
2, 142114, Note_on_c, 0, 54, 0
2, 142126, Note_on_c, 0, 35, 0
2, 142126, Note_on_c, 0, 76, 0
2, 142126, Note_on_c, 0, 78, 0
2, 142126, Note_on_c, 0, 88, 0
2, 142135, Note_on_c, 0, 85, 106
2, 142137, Note_on_c, 0, 76, 93
2, 142137, Note_on_c, 0, 33, 94
2, 142137, Note_on_c, 0, 45, 102
2, 142137, Note_on_c, 0, 81, 94
2, 142202, Control_c, 0, 64, 127
2, 142264, Note_on_c, 0, 73, 82
2, 142348, Note_on_c, 0, 45, 0
2, 142359, Note_on_c, 0, 45, 79
2, 142364, Note_on_c, 0, 76, 0
2, 142374, Note_on_c, 0, 76, 70
2, 142456, Note_on_c, 0, 81, 0
2, 142467, Note_on_c, 0, 81, 90
2, 142467, Note_on_c, 0, 52, 81
2, 142579, Note_on_c, 0, 85, 0
2, 142585, Note_on_c, 0, 59, 98
2, 142590, Note_on_c, 0, 85, 95
2, 142686, Note_on_c, 0, 73, 0
2, 142691, Note_on_c, 0, 73, 83
2, 142815, Note_on_c, 0, 64, 106
2, 142817, Note_on_c, 0, 81, 0
2, 142823, Note_on_c, 0, 81, 93
2, 142823, Note_on_c, 0, 83, 95
2, 142937, Note_on_c, 0, 71, 66
2, 143045, Note_on_c, 0, 66, 103
2, 143155, Note_on_c, 0, 81, 0
2, 143160, Note_on_c, 0, 81, 81
2, 143255, Note_on_c, 0, 64, 0
2, 143263, Note_on_c, 0, 64, 102
2, 143270, Note_on_c, 0, 83, 0
2, 143275, Note_on_c, 0, 83, 91
2, 143377, Note_on_c, 0, 71, 0
2, 143387, Note_on_c, 0, 71, 74
2, 143490, Control_c, 0, 64, 0
2, 143490, Note_on_c, 0, 80, 98
2, 143493, Note_on_c, 0, 33, 0
2, 143493, Note_on_c, 0, 76, 0
2, 143495, Note_on_c, 0, 52, 0
2, 143497, Note_on_c, 0, 64, 0
2, 143497, Note_on_c, 0, 49, 102
2, 143497, Note_on_c, 0, 73, 0
2, 143498, Note_on_c, 0, 76, 91
2, 143498, Note_on_c, 0, 81, 0
2, 143498, Note_on_c, 0, 83, 0
2, 143498, Note_on_c, 0, 66, 0
2, 143499, Note_on_c, 0, 37, 100
2, 143499, Note_on_c, 0, 78, 94
2, 143500, Note_on_c, 0, 59, 0
2, 143516, Note_on_c, 0, 45, 0
2, 143516, Note_on_c, 0, 85, 0
2, 143569, Control_c, 0, 64, 127
2, 143623, Note_on_c, 0, 71, 0
2, 143628, Note_on_c, 0, 71, 83
2, 143700, Note_on_c, 0, 49, 0
2, 143706, Note_on_c, 0, 49, 82
2, 143731, Note_on_c, 0, 76, 0
2, 143737, Note_on_c, 0, 76, 69
2, 143831, Note_on_c, 0, 78, 0
2, 143841, Note_on_c, 0, 56, 83
2, 143842, Note_on_c, 0, 78, 86
2, 143946, Note_on_c, 0, 80, 0
2, 143950, Note_on_c, 0, 80, 93
2, 143950, Note_on_c, 0, 59, 100
2, 143992, Note_on_c, 0, 78, 0
2, 143996, Note_on_c, 0, 78, 35
2, 144061, Note_on_c, 0, 71, 0
2, 144066, Note_on_c, 0, 71, 78
2, 144183, Note_on_c, 0, 66, 104
2, 144184, Note_on_c, 0, 80, 0
2, 144189, Note_on_c, 0, 80, 93
2, 144284, Note_on_c, 0, 71, 0
2, 144293, Note_on_c, 0, 71, 85
2, 144407, Note_on_c, 0, 76, 0
2, 144411, Note_on_c, 0, 76, 93
2, 144412, Note_on_c, 0, 64, 103
2, 144514, Note_on_c, 0, 78, 0
2, 144523, Note_on_c, 0, 78, 90
2, 144622, Note_on_c, 0, 66, 0
2, 144622, Note_on_c, 0, 80, 0
2, 144631, Note_on_c, 0, 80, 92
2, 144633, Note_on_c, 0, 66, 100
2, 144721, Note_on_c, 0, 71, 0
2, 144733, Note_on_c, 0, 71, 81
2, 144860, Note_on_c, 0, 49, 0
2, 144862, Note_on_c, 0, 56, 0
2, 144862, Note_on_c, 0, 80, 0
2, 144863, Note_on_c, 0, 59, 0
2, 144863, Note_on_c, 0, 64, 0
2, 144865, Control_c, 0, 64, 0
2, 144874, Note_on_c, 0, 47, 104
2, 144875, Note_on_c, 0, 37, 0
2, 144875, Note_on_c, 0, 66, 0
2, 144875, Note_on_c, 0, 71, 0
2, 144875, Note_on_c, 0, 76, 0
2, 144875, Note_on_c, 0, 78, 0
2, 144879, Note_on_c, 0, 35, 89
2, 144880, Note_on_c, 0, 83, 92
2, 144880, Note_on_c, 0, 76, 91
2, 144882, Note_on_c, 0, 78, 94
2, 144921, Control_c, 0, 64, 127
2, 145002, Note_on_c, 0, 71, 86
2, 145075, Note_on_c, 0, 47, 0
2, 145083, Note_on_c, 0, 59, 77
2, 145085, Note_on_c, 0, 47, 70
2, 145090, Note_on_c, 0, 59, 0
2, 145090, Note_on_c, 0, 76, 0
2, 145102, Note_on_c, 0, 76, 90
2, 145198, Note_on_c, 0, 78, 0
2, 145200, Note_on_c, 0, 54, 84
2, 145205, Note_on_c, 0, 78, 91
2, 145313, Note_on_c, 0, 83, 0
2, 145322, Note_on_c, 0, 83, 89
2, 145334, Note_on_c, 0, 59, 94
2, 145336, Note_on_c, 0, 47, 0
2, 145341, Note_on_c, 0, 47, 72
2, 145405, Note_on_c, 0, 71, 0
2, 145415, Note_on_c, 0, 71, 81
2, 145543, Note_on_c, 0, 59, 0
2, 145543, Note_on_c, 0, 76, 0
2, 145551, Note_on_c, 0, 66, 104
2, 145551, Note_on_c, 0, 47, 0
2, 145553, Note_on_c, 0, 59, 99
2, 145555, Note_on_c, 0, 76, 103
2, 145556, Note_on_c, 0, 47, 88
2, 145674, Note_on_c, 0, 71, 0
2, 145678, Note_on_c, 0, 71, 84
2, 145766, Note_on_c, 0, 76, 0
2, 145769, Note_on_c, 0, 64, 104
2, 145770, Note_on_c, 0, 76, 90
2, 145873, Note_on_c, 0, 78, 0
2, 145884, Note_on_c, 0, 78, 93
2, 145996, Note_on_c, 0, 47, 0
2, 145996, Note_on_c, 0, 59, 0
2, 146003, Note_on_c, 0, 80, 92
2, 146006, Note_on_c, 0, 59, 94
2, 146007, Note_on_c, 0, 47, 96
2, 146112, Note_on_c, 0, 71, 0
2, 146116, Note_on_c, 0, 71, 75
2, 146242, Note_on_c, 0, 59, 0
2, 146242, Note_on_c, 0, 66, 0
2, 146249, Note_on_c, 0, 66, 104
2, 146249, Note_on_c, 0, 59, 97
2, 146342, Note_on_c, 0, 78, 0
2, 146349, Note_on_c, 0, 78, 80
2, 146457, Note_on_c, 0, 64, 0
2, 146463, Note_on_c, 0, 64, 102
2, 146471, Note_on_c, 0, 92, 99
2, 146565, Note_on_c, 0, 80, 0
2, 146575, Note_on_c, 0, 80, 90
2, 146695, Note_on_c, 0, 66, 0
2, 146699, Note_on_c, 0, 93, 104
2, 146701, Note_on_c, 0, 66, 99
2, 146807, Note_on_c, 0, 81, 95
2, 146926, Note_on_c, 0, 59, 0
2, 146930, Note_on_c, 0, 69, 107
2, 146931, Note_on_c, 0, 59, 105
2, 146936, Note_on_c, 0, 95, 103
2, 147048, Note_on_c, 0, 83, 0
2, 147053, Note_on_c, 0, 83, 90
2, 147168, Note_on_c, 0, 68, 101
2, 147184, Note_on_c, 0, 97, 104
2, 147262, Note_on_c, 0, 85, 93
2, 147371, Note_on_c, 0, 64, 0
2, 147381, Note_on_c, 0, 64, 102
2, 147383, Note_on_c, 0, 99, 109
2, 147483, Note_on_c, 0, 87, 91
2, 147634, Note_on_c, 0, 81, 0
2, 147635, Control_c, 0, 64, 0
2, 147635, Note_on_c, 0, 95, 0
2, 147635, Note_on_c, 0, 59, 0
2, 147635, Note_on_c, 0, 92, 0
2, 147635, Note_on_c, 0, 69, 0
2, 147635, Note_on_c, 0, 64, 0
2, 147635, Note_on_c, 0, 47, 0
2, 147635, Note_on_c, 0, 80, 0
2, 147635, Note_on_c, 0, 87, 0
2, 147635, Note_on_c, 0, 68, 0
2, 147635, Note_on_c, 0, 99, 0
2, 147636, Note_on_c, 0, 78, 0
2, 147636, Note_on_c, 0, 83, 0
2, 147636, Note_on_c, 0, 66, 0
2, 147636, Note_on_c, 0, 76, 0
2, 147636, Note_on_c, 0, 71, 0
2, 147636, Note_on_c, 0, 85, 0
2, 147637, Note_on_c, 0, 54, 0
2, 147646, Note_on_c, 0, 33, 97
2, 147647, Note_on_c, 0, 45, 100
2, 147648, Note_on_c, 0, 93, 0
2, 147648, Note_on_c, 0, 97, 0
2, 147648, Note_on_c, 0, 100, 114
2, 147652, Note_on_c, 0, 88, 107
2, 147655, Note_on_c, 0, 35, 0
2, 147657, Note_on_c, 0, 93, 105
2, 147658, Note_on_c, 0, 97, 106
2, 147678, Control_c, 0, 64, 127
2, 147786, Note_on_c, 0, 33, 0
2, 147863, Note_on_c, 0, 45, 0
2, 147867, Note_on_c, 0, 45, 74
2, 147944, Note_on_c, 0, 52, 76
2, 148021, Note_on_c, 0, 57, 85
2, 148105, Note_on_c, 0, 83, 98
2, 148110, Note_on_c, 0, 59, 98
2, 148113, Note_on_c, 0, 71, 87
2, 148178, Note_on_c, 0, 61, 84
2, 148253, Note_on_c, 0, 63, 84
2, 148308, Note_on_c, 0, 88, 0
2, 148319, Note_on_c, 0, 88, 107
2, 148319, Note_on_c, 0, 64, 102
2, 148320, Note_on_c, 0, 76, 97
2, 148385, Note_on_c, 0, 63, 0
2, 148396, Note_on_c, 0, 63, 86
2, 148446, Note_on_c, 0, 61, 0
2, 148457, Note_on_c, 0, 61, 92
2, 148554, Note_on_c, 0, 90, 105
2, 148558, Note_on_c, 0, 78, 103
2, 148569, Note_on_c, 0, 57, 0
2, 148573, Note_on_c, 0, 57, 95
2, 148654, Note_on_c, 0, 52, 0
2, 148659, Note_on_c, 0, 52, 78
2, 148776, Note_on_c, 0, 88, 0
2, 148784, Note_on_c, 0, 35, 90
2, 148784, Note_on_c, 0, 76, 0
2, 148786, Note_on_c, 0, 88, 104
2, 148788, Note_on_c, 0, 76, 99
2, 148854, Note_on_c, 0, 47, 89
2, 148953, Control_c, 0, 64, 0
2, 148967, Note_on_c, 0, 35, 0
2, 148968, Note_on_c, 0, 93, 0
2, 148969, Note_on_c, 0, 45, 0
2, 148969, Note_on_c, 0, 52, 0
2, 148969, Note_on_c, 0, 59, 0
2, 148969, Note_on_c, 0, 71, 0
2, 148969, Note_on_c, 0, 47, 0
2, 148970, Note_on_c, 0, 64, 0
2, 148970, Note_on_c, 0, 61, 0
2, 148970, Note_on_c, 0, 78, 0
2, 148970, Note_on_c, 0, 63, 0
2, 148970, Note_on_c, 0, 90, 0
2, 148970, Note_on_c, 0, 57, 0
2, 148970, Note_on_c, 0, 100, 0
2, 148970, Note_on_c, 0, 97, 0
2, 148970, Note_on_c, 0, 76, 0
2, 148971, Note_on_c, 0, 83, 0
2, 148971, Note_on_c, 0, 88, 0
2, 149027, Note_on_c, 0, 49, 102
2, 149027, Note_on_c, 0, 88, 108
2, 149030, Note_on_c, 0, 76, 107
2, 149031, Note_on_c, 0, 37, 94
2, 149032, Note_on_c, 0, 83, 98
2, 149032, Note_on_c, 0, 80, 101
2, 149061, Control_c, 0, 64, 127
2, 149068, Note_on_c, 0, 49, 0
2, 149287, Note_on_c, 0, 49, 74
2, 149365, Note_on_c, 0, 56, 85
2, 149448, Note_on_c, 0, 59, 85
2, 149475, Note_on_c, 0, 83, 0
2, 149482, Note_on_c, 0, 83, 101
2, 149483, Note_on_c, 0, 71, 96
2, 149528, Note_on_c, 0, 61, 89
2, 149616, Note_on_c, 0, 63, 90
2, 149680, Note_on_c, 0, 64, 99
2, 149687, Note_on_c, 0, 90, 108
2, 149688, Note_on_c, 0, 78, 107
2, 149775, Note_on_c, 0, 63, 0
2, 149785, Note_on_c, 0, 63, 92
2, 149790, Note_on_c, 0, 61, 0
2, 149797, Note_on_c, 0, 61, 91
2, 149905, Note_on_c, 0, 59, 0
2, 149910, Note_on_c, 0, 59, 90
2, 149913, Note_on_c, 0, 76, 0
2, 149913, Note_on_c, 0, 88, 0
2, 149915, Note_on_c, 0, 47, 75
2, 149918, Note_on_c, 0, 88, 104
2, 149921, Note_on_c, 0, 47, 0
2, 149922, Note_on_c, 0, 76, 98
2, 149975, Note_on_c, 0, 56, 0
2, 149985, Note_on_c, 0, 56, 90
2, 150120, Note_on_c, 0, 37, 0
2, 150129, Note_on_c, 0, 37, 93
2, 150136, Note_on_c, 0, 90, 0
2, 150144, Note_on_c, 0, 78, 0
2, 150147, Note_on_c, 0, 90, 100
2, 150148, Note_on_c, 0, 78, 101
2, 150228, Note_on_c, 0, 49, 0
2, 150235, Note_on_c, 0, 49, 84
2, 150354, Control_c, 0, 64, 0
2, 150358, Note_on_c, 0, 59, 0
2, 150358, Note_on_c, 0, 80, 0
2, 150359, Note_on_c, 0, 61, 0
2, 150360, Note_on_c, 0, 64, 0
2, 150360, Note_on_c, 0, 71, 0
2, 150360, Note_on_c, 0, 83, 0
2, 150360, Note_on_c, 0, 49, 0
2, 150361, Note_on_c, 0, 76, 0
2, 150361, Note_on_c, 0, 56, 0
2, 150362, Note_on_c, 0, 88, 0
2, 150362, Note_on_c, 0, 37, 0
2, 150374, Note_on_c, 0, 63, 0
2, 150389, Note_on_c, 0, 78, 0
2, 150389, Note_on_c, 0, 90, 0
2, 150393, Note_on_c, 0, 47, 107
2, 150394, Note_on_c, 0, 78, 105
2, 150394, Note_on_c, 0, 90, 105
2, 150397, Note_on_c, 0, 35, 94
2, 150399, Note_on_c, 0, 87, 100
2, 150400, Note_on_c, 0, 83, 93
2, 150435, Control_c, 0, 64, 127
2, 150466, Note_on_c, 0, 35, 0
2, 150524, Note_on_c, 0, 59, 57
2, 150604, Note_on_c, 0, 47, 0
2, 150610, Note_on_c, 0, 47, 79
2, 150683, Note_on_c, 0, 54, 88
2, 150750, Note_on_c, 0, 59, 0
2, 150754, Note_on_c, 0, 59, 86
2, 150831, Note_on_c, 0, 61, 89
2, 150885, Note_on_c, 0, 63, 95
2, 150951, Note_on_c, 0, 64, 96
2, 151057, Note_on_c, 0, 47, 0
2, 151057, Note_on_c, 0, 90, 0
2, 151063, Note_on_c, 0, 47, 103
2, 151065, Note_on_c, 0, 78, 0
2, 151065, Note_on_c, 0, 87, 0
2, 151068, Note_on_c, 0, 90, 109
2, 151069, Note_on_c, 0, 78, 104
2, 151073, Note_on_c, 0, 83, 0
2, 151075, Note_on_c, 0, 87, 98
2, 151077, Note_on_c, 0, 83, 94
2, 151296, Note_on_c, 0, 54, 0
2, 151299, Note_on_c, 0, 54, 95
2, 151300, Note_on_c, 0, 88, 102
2, 151301, Note_on_c, 0, 76, 97
2, 151411, Note_on_c, 0, 59, 0
2, 151415, Note_on_c, 0, 59, 74
2, 151488, Note_on_c, 0, 61, 0
2, 151492, Note_on_c, 0, 61, 82
2, 151564, Note_on_c, 0, 63, 0
2, 151575, Note_on_c, 0, 63, 91
2, 151633, Note_on_c, 0, 64, 0
2, 151643, Note_on_c, 0, 64, 95
2, 151726, Note_on_c, 0, 47, 0
2, 151733, Note_on_c, 0, 78, 0
2, 151733, Note_on_c, 0, 90, 0
2, 151735, Note_on_c, 0, 47, 101
2, 151737, Note_on_c, 0, 90, 110
2, 151741, Note_on_c, 0, 83, 0
2, 151741, Note_on_c, 0, 87, 0
2, 151742, Note_on_c, 0, 78, 106
2, 151746, Note_on_c, 0, 87, 99
2, 151748, Note_on_c, 0, 83, 95
2, 151768, Note_on_c, 0, 59, 0
2, 151769, Note_on_c, 0, 88, 0
2, 151769, Note_on_c, 0, 61, 0
2, 151769, Note_on_c, 0, 54, 0
2, 151769, Note_on_c, 0, 76, 0
2, 151772, Control_c, 0, 64, 0
2, 151779, Note_on_c, 0, 63, 0
2, 151779, Note_on_c, 0, 64, 0
2, 151823, Note_on_c, 0, 54, 81
2, 151825, Control_c, 0, 64, 127
2, 151841, Note_on_c, 0, 47, 0
2, 151899, Note_on_c, 0, 59, 89
2, 151965, Note_on_c, 0, 88, 105
2, 151967, Note_on_c, 0, 76, 101
2, 151992, Note_on_c, 0, 61, 90
2, 152054, Note_on_c, 0, 63, 93
2, 152127, Note_on_c, 0, 64, 94
2, 152171, Note_on_c, 0, 78, 0
2, 152171, Note_on_c, 0, 90, 0
2, 152180, Note_on_c, 0, 90, 108
2, 152182, Note_on_c, 0, 78, 104
2, 152197, Note_on_c, 0, 66, 97
2, 152254, Note_on_c, 0, 68, 92
2, 152322, Note_on_c, 0, 69, 87
2, 152386, Note_on_c, 0, 71, 95
2, 152404, Note_on_c, 0, 93, 110
2, 152406, Note_on_c, 0, 81, 105
2, 152471, Note_on_c, 0, 69, 0
2, 152481, Note_on_c, 0, 69, 89
2, 152517, Note_on_c, 0, 68, 0
2, 152522, Note_on_c, 0, 68, 90
2, 152570, Note_on_c, 0, 66, 0
2, 152581, Note_on_c, 0, 66, 96
2, 152621, Note_on_c, 0, 92, 104
2, 152624, Note_on_c, 0, 64, 0
2, 152625, Note_on_c, 0, 80, 102
2, 152633, Note_on_c, 0, 64, 93
2, 152686, Note_on_c, 0, 63, 0
2, 152696, Note_on_c, 0, 63, 91
2, 152739, Note_on_c, 0, 61, 0
2, 152746, Note_on_c, 0, 61, 92
2, 152847, Note_on_c, 0, 59, 0
2, 152851, Note_on_c, 0, 59, 84
2, 152855, Note_on_c, 0, 76, 0
2, 152855, Note_on_c, 0, 88, 0
2, 152863, Note_on_c, 0, 88, 108
2, 152865, Note_on_c, 0, 76, 103
2, 153050, Note_on_c, 0, 93, 0
2, 153050, Note_on_c, 0, 90, 0
2, 153050, Note_on_c, 0, 81, 0
2, 153050, Note_on_c, 0, 92, 0
2, 153050, Note_on_c, 0, 69, 0
2, 153051, Note_on_c, 0, 64, 0
2, 153051, Note_on_c, 0, 80, 0
2, 153051, Note_on_c, 0, 59, 0
2, 153051, Note_on_c, 0, 61, 0
2, 153052, Note_on_c, 0, 66, 0
2, 153052, Note_on_c, 0, 68, 0
2, 153052, Note_on_c, 0, 71, 0
2, 153052, Note_on_c, 0, 54, 0
2, 153053, Note_on_c, 0, 88, 0
2, 153062, Note_on_c, 0, 63, 0
2, 153062, Note_on_c, 0, 78, 0
2, 153062, Note_on_c, 0, 83, 0
2, 153062, Note_on_c, 0, 87, 0
2, 153065, Control_c, 0, 64, 0
2, 153097, Note_on_c, 0, 85, 108
2, 153097, Note_on_c, 0, 81, 102
2, 153101, Note_on_c, 0, 45, 106
2, 153101, Note_on_c, 0, 33, 99
2, 153154, Control_c, 0, 64, 127
2, 153292, Note_on_c, 0, 45, 0
2, 153302, Note_on_c, 0, 57, 59
2, 153303, Note_on_c, 0, 45, 68
2, 153308, Note_on_c, 0, 57, 0
2, 153379, Note_on_c, 0, 52, 80
2, 153478, Note_on_c, 0, 57, 82
2, 153545, Note_on_c, 0, 83, 101
2, 153549, Note_on_c, 0, 71, 95
2, 153581, Note_on_c, 0, 59, 88
2, 153653, Note_on_c, 0, 61, 89
2, 153715, Note_on_c, 0, 63, 88
2, 153776, Note_on_c, 0, 76, 0
2, 153780, Note_on_c, 0, 88, 106
2, 153780, Note_on_c, 0, 64, 102
2, 153781, Note_on_c, 0, 76, 100
2, 153853, Note_on_c, 0, 63, 0
2, 153863, Note_on_c, 0, 63, 76
2, 153907, Note_on_c, 0, 61, 0
2, 153913, Note_on_c, 0, 61, 89
2, 153999, Note_on_c, 0, 57, 0
2, 154005, Note_on_c, 0, 90, 103
2, 154009, Note_on_c, 0, 78, 101
2, 154010, Note_on_c, 0, 57, 92
2, 154091, Note_on_c, 0, 52, 0
2, 154097, Note_on_c, 0, 52, 87
2, 154229, Note_on_c, 0, 76, 0
2, 154229, Note_on_c, 0, 88, 0
2, 154230, Note_on_c, 0, 35, 95
2, 154234, Note_on_c, 0, 88, 103
2, 154236, Note_on_c, 0, 76, 104
2, 154325, Note_on_c, 0, 47, 88
2, 154423, Control_c, 0, 64, 0
2, 154424, Note_on_c, 0, 45, 0
2, 154424, Note_on_c, 0, 63, 0
2, 154425, Note_on_c, 0, 71, 0
2, 154425, Note_on_c, 0, 52, 0
2, 154425, Note_on_c, 0, 81, 0
2, 154425, Note_on_c, 0, 64, 0
2, 154425, Note_on_c, 0, 35, 0
2, 154425, Note_on_c, 0, 61, 0
2, 154425, Note_on_c, 0, 78, 0
2, 154425, Note_on_c, 0, 59, 0
2, 154425, Note_on_c, 0, 83, 0
2, 154425, Note_on_c, 0, 85, 0
2, 154425, Note_on_c, 0, 76, 0
2, 154425, Note_on_c, 0, 88, 0
2, 154429, Note_on_c, 0, 33, 0
2, 154437, Note_on_c, 0, 47, 0
2, 154437, Note_on_c, 0, 90, 0
2, 154444, Note_on_c, 0, 57, 0
2, 154479, Note_on_c, 0, 88, 106
2, 154481, Note_on_c, 0, 76, 105
2, 154481, Note_on_c, 0, 83, 100
2, 154483, Note_on_c, 0, 49, 102
2, 154484, Note_on_c, 0, 80, 98
2, 154485, Note_on_c, 0, 37, 94
2, 154506, Control_c, 0, 64, 127
2, 154721, Note_on_c, 0, 49, 0
2, 154732, Note_on_c, 0, 49, 55
2, 154819, Note_on_c, 0, 56, 85
2, 154918, Note_on_c, 0, 59, 97
2, 154944, Note_on_c, 0, 83, 0
2, 154950, Note_on_c, 0, 71, 96
2, 154951, Note_on_c, 0, 83, 101
2, 155001, Note_on_c, 0, 61, 92
2, 155069, Note_on_c, 0, 63, 93
2, 155144, Note_on_c, 0, 64, 98
2, 155173, Note_on_c, 0, 90, 109
2, 155174, Note_on_c, 0, 78, 103
2, 155205, Note_on_c, 0, 63, 0
2, 155216, Note_on_c, 0, 63, 70
2, 155266, Note_on_c, 0, 61, 0
2, 155275, Note_on_c, 0, 61, 93
2, 155358, Note_on_c, 0, 59, 0
2, 155367, Note_on_c, 0, 59, 91
2, 155389, Note_on_c, 0, 88, 0
2, 155397, Note_on_c, 0, 76, 0
2, 155399, Note_on_c, 0, 88, 104
2, 155401, Note_on_c, 0, 76, 95
2, 155435, Note_on_c, 0, 56, 0
2, 155442, Note_on_c, 0, 56, 91
2, 155612, Note_on_c, 0, 37, 0
2, 155612, Note_on_c, 0, 78, 0
2, 155612, Note_on_c, 0, 90, 0
2, 155620, Note_on_c, 0, 37, 92
2, 155622, Note_on_c, 0, 78, 105
2, 155623, Note_on_c, 0, 90, 104
2, 155712, Note_on_c, 0, 49, 0
2, 155722, Note_on_c, 0, 49, 86
2, 155831, Control_c, 0, 64, 0
2, 155831, Note_on_c, 0, 61, 0
2, 155832, Note_on_c, 0, 63, 0
2, 155832, Note_on_c, 0, 80, 0
2, 155832, Note_on_c, 0, 64, 0
2, 155832, Note_on_c, 0, 56, 0
2, 155832, Note_on_c, 0, 83, 0
2, 155833, Note_on_c, 0, 37, 0
2, 155833, Note_on_c, 0, 71, 0
2, 155833, Note_on_c, 0, 76, 0
2, 155835, Note_on_c, 0, 88, 0
2, 155850, Note_on_c, 0, 49, 0
2, 155850, Note_on_c, 0, 59, 0
2, 155857, Note_on_c, 0, 78, 0
2, 155857, Note_on_c, 0, 90, 0
2, 155867, Note_on_c, 0, 90, 108
2, 155868, Note_on_c, 0, 78, 108
2, 155869, Note_on_c, 0, 47, 106
2, 155872, Note_on_c, 0, 35, 93
2, 155872, Note_on_c, 0, 87, 99
2, 155874, Note_on_c, 0, 83, 92
2, 155904, Control_c, 0, 64, 127
2, 155908, Note_on_c, 0, 35, 0
2, 156080, Note_on_c, 0, 47, 0
2, 156087, Note_on_c, 0, 47, 75
2, 156091, Note_on_c, 0, 59, 72
2, 156163, Note_on_c, 0, 54, 88
2, 156218, Note_on_c, 0, 59, 0
2, 156229, Note_on_c, 0, 59, 86
2, 156312, Note_on_c, 0, 61, 85
2, 156369, Note_on_c, 0, 63, 92
2, 156425, Note_on_c, 0, 64, 98
2, 156533, Note_on_c, 0, 47, 0
2, 156533, Note_on_c, 0, 90, 0
2, 156539, Note_on_c, 0, 47, 103
2, 156541, Note_on_c, 0, 78, 0
2, 156544, Note_on_c, 0, 90, 108
2, 156548, Note_on_c, 0, 78, 104
2, 156549, Note_on_c, 0, 83, 0
2, 156549, Note_on_c, 0, 87, 0
2, 156553, Note_on_c, 0, 87, 95
2, 156558, Note_on_c, 0, 83, 96
2, 156764, Note_on_c, 0, 54, 0
2, 156767, Note_on_c, 0, 88, 104
2, 156769, Note_on_c, 0, 76, 97
2, 156775, Note_on_c, 0, 54, 90
2, 156871, Note_on_c, 0, 59, 0
2, 156883, Note_on_c, 0, 59, 80
2, 156979, Note_on_c, 0, 61, 0
2, 156983, Note_on_c, 0, 61, 78
2, 157040, Note_on_c, 0, 63, 0
2, 157049, Note_on_c, 0, 63, 94
2, 157102, Note_on_c, 0, 64, 0
2, 157113, Note_on_c, 0, 64, 95
2, 157194, Note_on_c, 0, 47, 0
2, 157194, Note_on_c, 0, 90, 0
2, 157201, Note_on_c, 0, 78, 0
2, 157201, Note_on_c, 0, 87, 0
2, 157204, Note_on_c, 0, 90, 113
2, 157205, Note_on_c, 0, 47, 101
2, 157206, Note_on_c, 0, 78, 104
2, 157206, Note_on_c, 0, 59, 0
2, 157207, Note_on_c, 0, 88, 0
2, 157207, Note_on_c, 0, 63, 0
2, 157208, Control_c, 0, 64, 0
2, 157208, Note_on_c, 0, 54, 0
2, 157209, Note_on_c, 0, 76, 0
2, 157209, Note_on_c, 0, 61, 0
2, 157209, Note_on_c, 0, 83, 0
2, 157211, Note_on_c, 0, 87, 103
2, 157215, Note_on_c, 0, 83, 96
2, 157232, Note_on_c, 0, 64, 0
2, 157263, Control_c, 0, 64, 127
2, 157295, Note_on_c, 0, 54, 89
2, 157383, Note_on_c, 0, 59, 74
2, 157434, Note_on_c, 0, 88, 105
2, 157435, Note_on_c, 0, 76, 99
2, 157472, Note_on_c, 0, 61, 88
2, 157538, Note_on_c, 0, 63, 90
2, 157605, Note_on_c, 0, 64, 91
2, 157647, Note_on_c, 0, 78, 0
2, 157647, Note_on_c, 0, 90, 0
2, 157654, Note_on_c, 0, 90, 111
2, 157658, Note_on_c, 0, 78, 107
2, 157681, Note_on_c, 0, 66, 95
2, 157740, Note_on_c, 0, 68, 93
2, 157798, Note_on_c, 0, 69, 92
2, 157874, Note_on_c, 0, 71, 98
2, 157888, Note_on_c, 0, 93, 108
2, 157889, Note_on_c, 0, 81, 107
2, 157954, Note_on_c, 0, 69, 0
2, 157959, Note_on_c, 0, 69, 91
2, 158016, Note_on_c, 0, 68, 0
2, 158020, Note_on_c, 0, 68, 89
2, 158054, Note_on_c, 0, 66, 0
2, 158063, Note_on_c, 0, 66, 93
2, 158105, Note_on_c, 0, 92, 106
2, 158107, Note_on_c, 0, 80, 103
2, 158108, Note_on_c, 0, 64, 0
2, 158117, Note_on_c, 0, 64, 95
2, 158192, Note_on_c, 0, 63, 0
2, 158196, Note_on_c, 0, 63, 82
2, 158231, Note_on_c, 0, 61, 0
2, 158239, Note_on_c, 0, 61, 68
2, 158307, Note_on_c, 0, 59, 0
2, 158314, Note_on_c, 0, 59, 86
2, 158338, Note_on_c, 0, 76, 0
2, 158338, Note_on_c, 0, 88, 0
2, 158344, Note_on_c, 0, 88, 108
2, 158346, Note_on_c, 0, 76, 102
2, 158571, Note_on_c, 0, 35, 89
2, 158891, Note_on_c, 0, 83, 0
2, 158901, Note_on_c, 0, 83, 84
2, 159006, Note_on_c, 0, 76, 0
2, 159012, Note_on_c, 0, 76, 71
2, 159137, Note_on_c, 0, 78, 0
2, 159148, Note_on_c, 0, 78, 77
2, 159252, Note_on_c, 0, 47, 0
2, 159260, Note_on_c, 0, 71, 0
2, 159262, Note_on_c, 0, 47, 81
2, 159266, Note_on_c, 0, 71, 87
2, 159344, Note_on_c, 0, 76, 0
2, 159355, Note_on_c, 0, 76, 77
2, 159482, Note_on_c, 0, 66, 0
2, 159494, Note_on_c, 0, 66, 95
2, 159582, Note_on_c, 0, 83, 0
2, 159592, Note_on_c, 0, 83, 86
2, 159713, Note_on_c, 0, 76, 0
2, 159720, Note_on_c, 0, 64, 0
2, 159721, Note_on_c, 0, 76, 77
2, 159726, Note_on_c, 0, 64, 94
2, 159820, Note_on_c, 0, 78, 0
2, 159829, Note_on_c, 0, 78, 76
2, 159951, Note_on_c, 0, 59, 0
2, 159951, Note_on_c, 0, 66, 0
2, 159951, Note_on_c, 0, 71, 0
2, 159955, Note_on_c, 0, 66, 95
2, 159955, Note_on_c, 0, 59, 88
2, 159956, Note_on_c, 0, 71, 87
2, 160058, Note_on_c, 0, 76, 0
2, 160069, Note_on_c, 0, 76, 86
2, 160166, Note_on_c, 0, 64, 0
2, 160174, Note_on_c, 0, 78, 0
2, 160176, Note_on_c, 0, 64, 95
2, 160184, Note_on_c, 0, 78, 86
2, 160296, Note_on_c, 0, 83, 0
2, 160301, Note_on_c, 0, 83, 87
2, 160404, Note_on_c, 0, 66, 0
2, 160412, Note_on_c, 0, 76, 0
2, 160413, Note_on_c, 0, 66, 94
2, 160417, Note_on_c, 0, 76, 80
2, 160512, Note_on_c, 0, 78, 0
2, 160522, Note_on_c, 0, 78, 84
2, 160627, Note_on_c, 0, 59, 0
2, 160627, Note_on_c, 0, 69, 0
2, 160634, Note_on_c, 0, 71, 0
2, 160636, Note_on_c, 0, 69, 103
2, 160636, Note_on_c, 0, 59, 93
2, 160644, Note_on_c, 0, 71, 95
2, 160742, Note_on_c, 0, 54, 0
2, 160750, Note_on_c, 0, 76, 0
2, 160761, Note_on_c, 0, 76, 85
2, 160865, Note_on_c, 0, 68, 0
2, 160865, Note_on_c, 0, 78, 0
2, 160873, Note_on_c, 0, 78, 88
2, 160875, Note_on_c, 0, 68, 98
2, 160988, Note_on_c, 0, 83, 0
2, 160992, Note_on_c, 0, 83, 95
2, 161095, Note_on_c, 0, 64, 0
2, 161102, Note_on_c, 0, 64, 97
2, 161103, Note_on_c, 0, 76, 0
2, 161107, Note_on_c, 0, 76, 91
2, 161126, Note_on_c, 0, 87, 0
2, 161203, Note_on_c, 0, 78, 0
2, 161214, Note_on_c, 0, 78, 90
2, 161318, Note_on_c, 0, 47, 0
2, 161326, Note_on_c, 0, 35, 0
2, 161329, Note_on_c, 0, 47, 100
2, 161331, Note_on_c, 0, 35, 79
2, 161333, Note_on_c, 0, 83, 0
2, 161337, Note_on_c, 0, 83, 97
2, 161441, Note_on_c, 0, 88, 0
2, 161451, Note_on_c, 0, 88, 92
2, 161564, Note_on_c, 0, 90, 0
2, 161573, Note_on_c, 0, 90, 91
2, 161674, Note_on_c, 0, 95, 97
2, 161786, Note_on_c, 0, 88, 0
2, 161794, Note_on_c, 0, 88, 91
2, 161894, Note_on_c, 0, 90, 0
2, 161905, Note_on_c, 0, 90, 82
2, 162009, Note_on_c, 0, 83, 0
2, 162017, Note_on_c, 0, 59, 0
2, 162017, Note_on_c, 0, 66, 0
2, 162021, Note_on_c, 0, 83, 80
2, 162021, Note_on_c, 0, 59, 71
2, 162022, Note_on_c, 0, 66, 83
2, 162132, Note_on_c, 0, 88, 0
2, 162136, Note_on_c, 0, 88, 89
2, 162263, Note_on_c, 0, 78, 0
2, 162267, Note_on_c, 0, 78, 106
2, 162362, Note_on_c, 0, 95, 0
2, 162369, Note_on_c, 0, 95, 98
2, 162470, Note_on_c, 0, 76, 0
2, 162476, Note_on_c, 0, 76, 96
2, 162485, Note_on_c, 0, 88, 0
2, 162493, Note_on_c, 0, 93, 0
2, 162493, Note_on_c, 0, 88, 93
2, 162501, Note_on_c, 0, 81, 0
2, 162600, Note_on_c, 0, 90, 0
2, 162610, Note_on_c, 0, 90, 96
2, 162708, Note_on_c, 0, 66, 0
2, 162708, Note_on_c, 0, 78, 0
2, 162716, Note_on_c, 0, 78, 104
2, 162716, Note_on_c, 0, 59, 0
2, 162716, Note_on_c, 0, 80, 0
2, 162716, Note_on_c, 0, 92, 0
2, 162719, Note_on_c, 0, 66, 104
2, 162721, Note_on_c, 0, 59, 90
2, 162808, Note_on_c, 0, 63, 0
2, 162823, Note_on_c, 0, 88, 0
2, 162832, Note_on_c, 0, 88, 90
2, 162846, Note_on_c, 0, 61, 0
2, 162946, Note_on_c, 0, 76, 0
2, 162946, Note_on_c, 0, 90, 0
2, 162954, Note_on_c, 0, 76, 98
2, 162956, Note_on_c, 0, 90, 102
2, 163061, Note_on_c, 0, 95, 0
2, 163073, Note_on_c, 0, 95, 96
2, 163153, Note_on_c, 0, 78, 0
2, 163160, Note_on_c, 0, 78, 99
2, 163176, Note_on_c, 0, 88, 0
2, 163183, Note_on_c, 0, 88, 99
2, 163200, Note_on_c, 0, 68, 0
2, 163200, Note_on_c, 0, 69, 0
2, 163200, Note_on_c, 0, 71, 0
2, 163284, Note_on_c, 0, 90, 0
2, 163291, Note_on_c, 0, 90, 98
2, 163399, Note_on_c, 0, 59, 0
2, 163399, Note_on_c, 0, 66, 0
2, 163403, Note_on_c, 0, 81, 105
2, 163406, Note_on_c, 0, 66, 99
2, 163406, Note_on_c, 0, 59, 91
2, 163514, Note_on_c, 0, 88, 0
2, 163524, Note_on_c, 0, 88, 104
2, 163622, Note_on_c, 0, 90, 0
2, 163632, Note_on_c, 0, 90, 103
2, 163633, Note_on_c, 0, 80, 105
2, 163729, Note_on_c, 0, 95, 0
2, 163739, Note_on_c, 0, 95, 102
2, 163837, Note_on_c, 0, 88, 0
2, 163845, Note_on_c, 0, 76, 0
2, 163847, Note_on_c, 0, 88, 100
2, 163850, Note_on_c, 0, 76, 102
2, 163937, Note_on_c, 0, 90, 0
2, 163948, Note_on_c, 0, 90, 103
2, 164083, Note_on_c, 0, 47, 0
2, 164083, Note_on_c, 0, 83, 0
2, 164088, Note_on_c, 0, 83, 102
2, 164090, Note_on_c, 0, 35, 0
2, 164092, Note_on_c, 0, 47, 106
2, 164095, Note_on_c, 0, 35, 93
2, 164144, Note_on_c, 0, 81, 0
2, 164151, Note_on_c, 0, 81, 97
2, 164206, Note_on_c, 0, 80, 0
2, 164212, Note_on_c, 0, 80, 87
2, 164259, Note_on_c, 0, 78, 0
2, 164266, Note_on_c, 0, 78, 90
2, 164305, Note_on_c, 0, 76, 0
2, 164316, Note_on_c, 0, 76, 83
2, 164401, Note_on_c, 0, 75, 87
2, 164479, Note_on_c, 0, 73, 89
2, 164551, Note_on_c, 0, 47, 0
2, 164555, Note_on_c, 0, 71, 91
2, 164556, Note_on_c, 0, 47, 96
2, 164766, Note_on_c, 0, 83, 0
2, 164770, Note_on_c, 0, 83, 103
2, 164776, Note_on_c, 0, 57, 99
2, 164777, Note_on_c, 0, 54, 97
2, 164828, Note_on_c, 0, 81, 0
2, 164835, Note_on_c, 0, 81, 92
2, 164889, Note_on_c, 0, 80, 0
2, 164901, Note_on_c, 0, 80, 81
2, 164958, Note_on_c, 0, 78, 0
2, 164964, Note_on_c, 0, 78, 79
2, 165004, Note_on_c, 0, 66, 0
2, 165004, Note_on_c, 0, 76, 0
2, 165009, Note_on_c, 0, 76, 89
2, 165011, Note_on_c, 0, 66, 97
2, 165081, Note_on_c, 0, 75, 0
2, 165088, Note_on_c, 0, 75, 88
2, 165166, Note_on_c, 0, 73, 0
2, 165175, Note_on_c, 0, 73, 88
2, 165235, Note_on_c, 0, 64, 0
2, 165235, Note_on_c, 0, 71, 0
2, 165239, Note_on_c, 0, 64, 105
2, 165241, Note_on_c, 0, 71, 94
2, 165465, Note_on_c, 0, 83, 0
2, 165473, Note_on_c, 0, 59, 0
2, 165473, Note_on_c, 0, 66, 0
2, 165476, Note_on_c, 0, 83, 103
2, 165481, Note_on_c, 0, 66, 101
2, 165482, Note_on_c, 0, 59, 100
2, 165527, Note_on_c, 0, 81, 0
2, 165537, Note_on_c, 0, 81, 97
2, 165588, Note_on_c, 0, 80, 0
2, 165595, Note_on_c, 0, 80, 81
2, 165642, Note_on_c, 0, 78, 0
2, 165652, Note_on_c, 0, 78, 86
2, 165688, Note_on_c, 0, 64, 0
2, 165688, Note_on_c, 0, 76, 0
2, 165696, Note_on_c, 0, 76, 87
2, 165696, Note_on_c, 0, 64, 102
2, 165772, Note_on_c, 0, 75, 0
2, 165777, Note_on_c, 0, 75, 91
2, 165841, Note_on_c, 0, 73, 0
2, 165853, Note_on_c, 0, 73, 92
2, 165926, Note_on_c, 0, 66, 0
2, 165926, Note_on_c, 0, 71, 0
2, 165934, Note_on_c, 0, 66, 104
2, 165935, Note_on_c, 0, 71, 91
2, 166156, Note_on_c, 0, 59, 0
2, 166156, Note_on_c, 0, 83, 0
2, 166164, Note_on_c, 0, 69, 105
2, 166167, Note_on_c, 0, 59, 103
2, 166167, Note_on_c, 0, 83, 96
2, 166218, Note_on_c, 0, 81, 0
2, 166228, Note_on_c, 0, 81, 96
2, 166279, Note_on_c, 0, 80, 0
2, 166286, Note_on_c, 0, 80, 88
2, 166333, Note_on_c, 0, 78, 0
2, 166344, Note_on_c, 0, 78, 84
2, 166379, Note_on_c, 0, 76, 0
2, 166383, Note_on_c, 0, 76, 75
2, 166388, Note_on_c, 0, 68, 104
2, 166456, Note_on_c, 0, 75, 0
2, 166461, Note_on_c, 0, 75, 93
2, 166548, Note_on_c, 0, 73, 0
2, 166552, Note_on_c, 0, 73, 90
2, 166609, Note_on_c, 0, 64, 0
2, 166609, Note_on_c, 0, 71, 0
2, 166615, Note_on_c, 0, 71, 101
2, 166615, Note_on_c, 0, 64, 105
2, 166840, Note_on_c, 0, 35, 0
2, 166840, Note_on_c, 0, 47, 0
2, 166840, Note_on_c, 0, 88, 0
2, 166849, Note_on_c, 0, 47, 103
2, 166850, Note_on_c, 0, 88, 107
2, 166851, Note_on_c, 0, 35, 95
2, 166890, Note_on_c, 0, 87, 95
2, 166943, Note_on_c, 0, 85, 89
2, 166974, Note_on_c, 0, 49, 85
2, 166974, Note_on_c, 0, 37, 84
2, 166986, Note_on_c, 0, 83, 0
2, 166990, Note_on_c, 0, 83, 80
2, 167009, Note_on_c, 0, 81, 0
2, 167016, Note_on_c, 0, 81, 88
2, 167040, Note_on_c, 0, 54, 0
2, 167040, Note_on_c, 0, 57, 0
2, 167040, Note_on_c, 0, 90, 0
2, 167040, Note_on_c, 0, 95, 0
2, 167078, Note_on_c, 0, 80, 0
2, 167082, Note_on_c, 0, 80, 98
2, 167087, Note_on_c, 0, 51, 76
2, 167088, Note_on_c, 0, 39, 72
2, 167185, Note_on_c, 0, 76, 0
2, 167191, Note_on_c, 0, 52, 91
2, 167193, Note_on_c, 0, 40, 85
2, 167195, Note_on_c, 0, 76, 88
2, 167293, Note_on_c, 0, 80, 0
2, 167299, Note_on_c, 0, 80, 92
2, 167305, Note_on_c, 0, 42, 96
2, 167307, Note_on_c, 0, 54, 89
2, 167362, Note_on_c, 0, 81, 0
2, 167367, Note_on_c, 0, 81, 92
2, 167416, Note_on_c, 0, 83, 0
2, 167418, Note_on_c, 0, 56, 98
2, 167421, Note_on_c, 0, 44, 102
2, 167421, Note_on_c, 0, 83, 88
2, 167462, Note_on_c, 0, 85, 0
2, 167473, Note_on_c, 0, 85, 83
2, 167523, Note_on_c, 0, 88, 0
2, 167531, Note_on_c, 0, 88, 106
2, 167535, Note_on_c, 0, 45, 99
2, 167535, Note_on_c, 0, 57, 103
2, 167577, Note_on_c, 0, 87, 0
2, 167582, Note_on_c, 0, 87, 90
2, 167623, Note_on_c, 0, 85, 0
2, 167634, Note_on_c, 0, 85, 90
2, 167646, Note_on_c, 0, 47, 0
2, 167646, Note_on_c, 0, 59, 0
2, 167655, Note_on_c, 0, 47, 99
2, 167657, Note_on_c, 0, 59, 102
2, 167677, Note_on_c, 0, 81, 0
2, 167687, Note_on_c, 0, 81, 93
2, 167761, Note_on_c, 0, 49, 0
2, 167761, Note_on_c, 0, 80, 0
2, 167765, Note_on_c, 0, 61, 99
2, 167766, Note_on_c, 0, 49, 93
2, 167771, Note_on_c, 0, 80, 89
2, 167823, Note_on_c, 0, 78, 0
2, 167827, Note_on_c, 0, 78, 76
2, 167884, Note_on_c, 0, 51, 0
2, 167884, Note_on_c, 0, 76, 0
2, 167887, Note_on_c, 0, 63, 98
2, 167888, Note_on_c, 0, 75, 0
2, 167889, Note_on_c, 0, 76, 90
2, 167889, Note_on_c, 0, 51, 95
2, 167953, Note_on_c, 0, 78, 0
2, 167962, Note_on_c, 0, 78, 97
2, 167992, Note_on_c, 0, 52, 0
2, 167992, Note_on_c, 0, 64, 0
2, 167996, Note_on_c, 0, 52, 96
2, 167999, Note_on_c, 0, 64, 103
2, 168007, Note_on_c, 0, 80, 0
2, 168018, Note_on_c, 0, 80, 91
2, 168053, Note_on_c, 0, 81, 0
2, 168064, Note_on_c, 0, 81, 88
2, 168099, Note_on_c, 0, 83, 0
2, 168111, Note_on_c, 0, 83, 100
2, 168325, Note_on_c, 0, 49, 0
2, 168325, Note_on_c, 0, 37, 0
2, 168325, Control_c, 0, 64, 0
2, 168326, Note_on_c, 0, 45, 0
2, 168326, Note_on_c, 0, 39, 0
2, 168326, Note_on_c, 0, 56, 0
2, 168326, Note_on_c, 0, 68, 0
2, 168326, Note_on_c, 0, 51, 0
2, 168326, Note_on_c, 0, 35, 0
2, 168326, Note_on_c, 0, 66, 0
2, 168326, Note_on_c, 0, 63, 0
2, 168326, Note_on_c, 0, 64, 0
2, 168326, Note_on_c, 0, 47, 0
2, 168327, Note_on_c, 0, 81, 0
2, 168327, Note_on_c, 0, 69, 0
2, 168327, Note_on_c, 0, 52, 0
2, 168327, Note_on_c, 0, 71, 0
2, 168327, Note_on_c, 0, 44, 0
2, 168327, Note_on_c, 0, 73, 0
2, 168327, Note_on_c, 0, 61, 0
2, 168328, Note_on_c, 0, 42, 0
2, 168328, Note_on_c, 0, 54, 0
2, 168331, Note_on_c, 0, 87, 0
2, 168337, Note_on_c, 0, 57, 0
2, 168337, Note_on_c, 0, 59, 0
2, 168345, Note_on_c, 0, 40, 0
2, 168345, Note_on_c, 0, 76, 0
2, 168345, Note_on_c, 0, 78, 0
2, 168345, Note_on_c, 0, 80, 0
2, 168345, Note_on_c, 0, 83, 0
2, 168345, Note_on_c, 0, 85, 0
2, 168345, Note_on_c, 0, 88, 0
2, 168349, Note_on_c, 0, 88, 108
2, 168351, Note_on_c, 0, 76, 104
2, 168351, Note_on_c, 0, 40, 92
2, 168352, Note_on_c, 0, 83, 97
2, 168353, Note_on_c, 0, 80, 106
2, 168354, Note_on_c, 0, 28, 96
2, 168357, Note_on_c, 0, 86, 92
2, 168430, Control_c, 0, 64, 127
2, 168756, Note_on_c, 0, 64, 74
2, 168812, Note_on_c, 0, 68, 80
2, 168848, Note_on_c, 0, 71, 55
2, 168913, Note_on_c, 0, 76, 0
2, 168924, Note_on_c, 0, 76, 72
2, 168967, Note_on_c, 0, 80, 0
2, 168977, Note_on_c, 0, 80, 81
2, 169006, Note_on_c, 0, 83, 0
2, 169015, Note_on_c, 0, 83, 82
2, 169067, Note_on_c, 0, 88, 0
2, 169078, Note_on_c, 0, 88, 100
2, 169136, Note_on_c, 0, 83, 0
2, 169146, Note_on_c, 0, 83, 53
2, 169167, Note_on_c, 0, 80, 0
2, 169177, Note_on_c, 0, 80, 88
2, 169205, Note_on_c, 0, 76, 0
2, 169214, Note_on_c, 0, 76, 85
2, 169290, Note_on_c, 0, 28, 0
2, 169290, Note_on_c, 0, 71, 0
2, 169301, Note_on_c, 0, 71, 64
2, 169328, Note_on_c, 0, 68, 0
2, 169339, Note_on_c, 0, 68, 83
2, 169413, Note_on_c, 0, 64, 0
2, 169423, Note_on_c, 0, 64, 77
2, 169489, Note_on_c, 0, 68, 0
2, 169497, Note_on_c, 0, 68, 60
2, 169520, Note_on_c, 0, 71, 0
2, 169532, Note_on_c, 0, 71, 79
2, 169582, Note_on_c, 0, 76, 0
2, 169586, Note_on_c, 0, 76, 70
2, 169643, Note_on_c, 0, 80, 0
2, 169650, Note_on_c, 0, 80, 74
2, 169697, Note_on_c, 0, 83, 0
2, 169702, Note_on_c, 0, 83, 83
2, 169763, Note_on_c, 0, 75, 105
2, 169766, Note_on_c, 0, 71, 0
2, 169766, Note_on_c, 0, 88, 0
2, 169768, Note_on_c, 0, 63, 105
2, 169771, Note_on_c, 0, 71, 101
2, 169773, Note_on_c, 0, 66, 96
2, 169774, Note_on_c, 0, 88, 103
2, 169866, Note_on_c, 0, 80, 0
2, 169870, Note_on_c, 0, 80, 89
2, 169896, Note_on_c, 0, 76, 0
2, 169902, Note_on_c, 0, 76, 69
2, 169989, Note_on_c, 0, 71, 0
2, 169993, Note_on_c, 0, 71, 71
2, 170027, Note_on_c, 0, 68, 0
2, 170037, Note_on_c, 0, 68, 87
2, 170112, Note_on_c, 0, 64, 0
2, 170122, Note_on_c, 0, 64, 73
2, 170227, Note_on_c, 0, 71, 0
2, 170238, Note_on_c, 0, 71, 82
2, 170288, Note_on_c, 0, 76, 0
2, 170292, Note_on_c, 0, 76, 80
2, 170350, Note_on_c, 0, 80, 0
2, 170358, Note_on_c, 0, 80, 83
2, 170396, Note_on_c, 0, 83, 0
2, 170403, Note_on_c, 0, 83, 86
2, 170472, Note_on_c, 0, 88, 0
2, 170478, Note_on_c, 0, 88, 99
2, 170534, Note_on_c, 0, 83, 0
2, 170538, Note_on_c, 0, 83, 77
2, 170588, Note_on_c, 0, 80, 0
2, 170592, Note_on_c, 0, 80, 84
2, 170626, Note_on_c, 0, 76, 0
2, 170631, Note_on_c, 0, 76, 84
2, 170711, Note_on_c, 0, 71, 0
2, 170721, Note_on_c, 0, 71, 56
2, 170780, Note_on_c, 0, 68, 0
2, 170785, Note_on_c, 0, 68, 68
2, 170841, Note_on_c, 0, 64, 0
2, 170853, Note_on_c, 0, 64, 77
2, 170880, Note_on_c, 0, 40, 0
2, 170880, Note_on_c, 0, 86, 0
2, 170910, Note_on_c, 0, 68, 0
2, 170917, Note_on_c, 0, 68, 67
2, 170956, Note_on_c, 0, 71, 0
2, 170966, Note_on_c, 0, 71, 65
2, 171018, Note_on_c, 0, 76, 0
2, 171023, Note_on_c, 0, 76, 80
2, 171079, Note_on_c, 0, 80, 0
2, 171088, Note_on_c, 0, 80, 85
2, 171125, Note_on_c, 0, 83, 0
2, 171134, Note_on_c, 0, 83, 88
2, 171187, Note_on_c, 0, 64, 0
2, 171187, Note_on_c, 0, 88, 0
2, 171195, Note_on_c, 0, 64, 98
2, 171196, Note_on_c, 0, 61, 97
2, 171196, Note_on_c, 0, 88, 104
2, 171197, Note_on_c, 0, 73, 109
2, 171198, Note_on_c, 0, 69, 103
2, 171264, Note_on_c, 0, 83, 0
2, 171269, Note_on_c, 0, 83, 76
2, 171313, Note_on_c, 0, 81, 89
2, 171356, Note_on_c, 0, 76, 0
2, 171363, Note_on_c, 0, 76, 85
2, 171409, Note_on_c, 0, 69, 0
2, 171420, Note_on_c, 0, 69, 71
2, 171463, Note_on_c, 0, 71, 0
2, 171469, Note_on_c, 0, 71, 69
2, 171509, Note_on_c, 0, 69, 0
2, 171517, Note_on_c, 0, 69, 69
2, 171578, Note_on_c, 0, 64, 0
2, 171585, Note_on_c, 0, 64, 73
2, 171648, Note_on_c, 0, 69, 0
2, 171652, Note_on_c, 0, 69, 79
2, 171694, Note_on_c, 0, 71, 0
2, 171703, Note_on_c, 0, 71, 61
2, 171747, Note_on_c, 0, 76, 0
2, 171752, Note_on_c, 0, 76, 82
2, 171809, Note_on_c, 0, 81, 0
2, 171818, Note_on_c, 0, 81, 89
2, 171847, Note_on_c, 0, 83, 0
2, 171859, Note_on_c, 0, 83, 87
2, 171916, Note_on_c, 0, 88, 0
2, 171921, Note_on_c, 0, 88, 99
2, 171978, Note_on_c, 0, 83, 0
2, 171988, Note_on_c, 0, 83, 86
2, 172024, Note_on_c, 0, 81, 0
2, 172030, Note_on_c, 0, 81, 83
2, 172062, Note_on_c, 0, 76, 0
2, 172062, Note_on_c, 0, 83, 0
2, 172067, Note_on_c, 0, 83, 68
2, 172074, Note_on_c, 0, 76, 81
2, 172147, Note_on_c, 0, 71, 0
2, 172157, Note_on_c, 0, 71, 75
2, 172200, Note_on_c, 0, 69, 0
2, 172208, Note_on_c, 0, 69, 78
2, 172277, Note_on_c, 0, 64, 0
2, 172284, Note_on_c, 0, 64, 77
2, 172331, Note_on_c, 0, 69, 0
2, 172340, Note_on_c, 0, 69, 72
2, 172369, Note_on_c, 0, 71, 0
2, 172374, Note_on_c, 0, 71, 77
2, 172446, Note_on_c, 0, 76, 0
2, 172452, Note_on_c, 0, 76, 65
2, 172508, Note_on_c, 0, 81, 0
2, 172514, Note_on_c, 0, 81, 86
2, 172569, Note_on_c, 0, 83, 0
2, 172580, Note_on_c, 0, 83, 83
2, 172631, Note_on_c, 0, 69, 0
2, 172638, Note_on_c, 0, 64, 0
2, 172638, Note_on_c, 0, 88, 0
2, 172639, Note_on_c, 0, 72, 106
2, 172642, Note_on_c, 0, 69, 99
2, 172645, Note_on_c, 0, 88, 102
2, 172647, Note_on_c, 0, 64, 103
2, 172654, Note_on_c, 0, 66, 0
2, 172659, Note_on_c, 0, 66, 86
2, 172659, Note_on_c, 0, 60, 86
2, 172707, Note_on_c, 0, 83, 0
2, 172718, Note_on_c, 0, 84, 81
2, 172719, Note_on_c, 0, 83, 73
2, 172753, Note_on_c, 0, 81, 0
2, 172761, Note_on_c, 0, 81, 89
2, 172807, Note_on_c, 0, 76, 0
2, 172817, Note_on_c, 0, 76, 83
2, 172899, Note_on_c, 0, 71, 0
2, 172907, Note_on_c, 0, 71, 85
2, 172953, Note_on_c, 0, 69, 0
2, 172960, Note_on_c, 0, 69, 76
2, 173038, Note_on_c, 0, 64, 0
2, 173045, Note_on_c, 0, 64, 79
2, 173114, Note_on_c, 0, 69, 0
2, 173120, Note_on_c, 0, 69, 66
2, 173160, Note_on_c, 0, 71, 0
2, 173165, Note_on_c, 0, 71, 62
2, 173230, Note_on_c, 0, 76, 0
2, 173240, Note_on_c, 0, 76, 74
2, 173314, Note_on_c, 0, 81, 0
2, 173319, Note_on_c, 0, 81, 83
2, 173391, Note_on_c, 0, 83, 0
2, 173400, Note_on_c, 0, 83, 81
2, 173460, Note_on_c, 0, 69, 0
2, 173468, Note_on_c, 0, 60, 0
2, 173468, Note_on_c, 0, 64, 0
2, 173468, Note_on_c, 0, 66, 0
2, 173468, Note_on_c, 0, 88, 0
2, 173469, Note_on_c, 0, 69, 105
2, 173472, Note_on_c, 0, 64, 104
2, 173472, Note_on_c, 0, 88, 103
2, 173474, Note_on_c, 0, 66, 98
2, 173479, Note_on_c, 0, 60, 89
2, 173544, Note_on_c, 0, 83, 0
2, 173553, Note_on_c, 0, 83, 85
2, 173591, Note_on_c, 0, 81, 0
2, 173602, Note_on_c, 0, 81, 86
2, 173652, Note_on_c, 0, 76, 0
2, 173658, Note_on_c, 0, 76, 83
2, 173744, Note_on_c, 0, 71, 0
2, 173754, Note_on_c, 0, 71, 85
2, 173813, Note_on_c, 0, 69, 0
2, 173819, Note_on_c, 0, 69, 76
2, 173913, Note_on_c, 0, 64, 0
2, 173922, Note_on_c, 0, 64, 82
2, 174005, Note_on_c, 0, 69, 0
2, 174014, Note_on_c, 0, 69, 86
2, 174074, Note_on_c, 0, 71, 0
2, 174080, Note_on_c, 0, 71, 79
2, 174167, Note_on_c, 0, 76, 0
2, 174177, Note_on_c, 0, 76, 81
2, 174274, Note_on_c, 0, 81, 0
2, 174278, Note_on_c, 0, 81, 86
2, 174374, Note_on_c, 0, 63, 0
2, 174374, Note_on_c, 0, 75, 0
2, 174397, Note_on_c, 0, 83, 0
2, 174401, Note_on_c, 0, 83, 85
2, 174720, Note_on_c, 0, 61, 0
2, 174720, Note_on_c, 0, 68, 0
2, 174720, Note_on_c, 0, 73, 0
2, 174720, Note_on_c, 0, 80, 0
2, 174790, Note_on_c, 0, 60, 0
2, 174791, Note_on_c, 0, 66, 0
2, 174794, Control_c, 0, 64, 0
2, 174804, Note_on_c, 0, 84, 0
2, 174812, Note_on_c, 0, 76, 0
2, 174812, Note_on_c, 0, 83, 0
2, 174812, Note_on_c, 0, 88, 0
2, 174816, Note_on_c, 0, 88, 109
2, 174817, Note_on_c, 0, 40, 87
2, 174817, Note_on_c, 0, 76, 106
2, 174818, Note_on_c, 0, 83, 98
2, 174819, Note_on_c, 0, 28, 93
2, 174820, Note_on_c, 0, 80, 104
2, 174850, Control_c, 0, 64, 127
2, 174935, Note_on_c, 0, 72, 0
2, 175202, Note_on_c, 0, 52, 60
2, 175319, Note_on_c, 0, 47, 57
2, 175449, Note_on_c, 0, 47, 0
2, 175459, Note_on_c, 0, 47, 64
2, 175526, Note_on_c, 0, 52, 0
2, 175533, Note_on_c, 0, 52, 55
2, 175595, Note_on_c, 0, 47, 0
2, 175600, Note_on_c, 0, 47, 55
2, 175664, Note_on_c, 0, 52, 0
2, 175675, Note_on_c, 0, 52, 61
2, 175733, Note_on_c, 0, 47, 0
2, 175740, Note_on_c, 0, 47, 66
2, 175787, Note_on_c, 0, 52, 0
2, 175795, Note_on_c, 0, 52, 59
2, 175848, Note_on_c, 0, 47, 0
2, 175860, Note_on_c, 0, 47, 72
2, 175933, Note_on_c, 0, 52, 0
2, 175937, Note_on_c, 0, 52, 66
2, 175994, Note_on_c, 0, 40, 0
2, 175994, Note_on_c, 0, 47, 0
2, 176001, Note_on_c, 0, 47, 81
2, 176005, Note_on_c, 0, 40, 75
2, 176125, Note_on_c, 0, 40, 0
2, 176125, Note_on_c, 0, 47, 0
2, 176129, Note_on_c, 0, 40, 72
2, 176130, Note_on_c, 0, 47, 78
2, 176194, Note_on_c, 0, 52, 0
2, 176205, Note_on_c, 0, 52, 65
2, 176248, Note_on_c, 0, 47, 0
2, 176255, Note_on_c, 0, 47, 80
2, 176309, Note_on_c, 0, 52, 0
2, 176320, Note_on_c, 0, 52, 69
2, 176363, Note_on_c, 0, 47, 0
2, 176374, Note_on_c, 0, 47, 79
2, 176440, Note_on_c, 0, 52, 0
2, 176451, Note_on_c, 0, 52, 76
2, 176478, Note_on_c, 0, 71, 0
2, 176485, Note_on_c, 0, 71, 105
2, 176486, Note_on_c, 0, 64, 0
2, 176490, Note_on_c, 0, 68, 105
2, 176492, Note_on_c, 0, 64, 98
2, 176494, Note_on_c, 0, 40, 0
2, 176494, Note_on_c, 0, 47, 0
2, 176499, Note_on_c, 0, 47, 85
2, 176499, Note_on_c, 0, 40, 90
2, 176640, Note_on_c, 0, 47, 0
2, 176644, Note_on_c, 0, 47, 75
2, 176709, Note_on_c, 0, 52, 0
2, 176716, Note_on_c, 0, 52, 73
2, 176824, Note_on_c, 0, 52, 0
2, 176834, Note_on_c, 0, 52, 66
2, 176908, Note_on_c, 0, 47, 0
2, 176912, Note_on_c, 0, 47, 79
2, 176993, Note_on_c, 0, 52, 0
2, 177002, Note_on_c, 0, 52, 62
2, 177024, Note_on_c, 0, 47, 0
2, 177033, Note_on_c, 0, 47, 79
2, 177093, Note_on_c, 0, 52, 0
2, 177097, Note_on_c, 0, 52, 72
2, 177154, Note_on_c, 0, 47, 0
2, 177162, Note_on_c, 0, 40, 0
2, 177162, Note_on_c, 0, 47, 84
2, 177166, Note_on_c, 0, 40, 73
2, 177208, Note_on_c, 0, 52, 0
2, 177219, Note_on_c, 0, 52, 76
2, 177300, Note_on_c, 0, 47, 0
2, 177308, Note_on_c, 0, 40, 0
2, 177309, Note_on_c, 0, 47, 89
2, 177317, Note_on_c, 0, 40, 79
2, 177361, Note_on_c, 0, 52, 0
2, 177369, Note_on_c, 0, 52, 70
2, 177446, Note_on_c, 0, 40, 0
2, 177446, Note_on_c, 0, 47, 0
2, 177450, Note_on_c, 0, 47, 80
2, 177452, Note_on_c, 0, 40, 74
2, 177523, Note_on_c, 0, 52, 0
2, 177530, Note_on_c, 0, 52, 77
2, 177607, Note_on_c, 0, 47, 0
2, 177612, Note_on_c, 0, 47, 83
2, 177676, Note_on_c, 0, 52, 0
2, 177681, Note_on_c, 0, 52, 74
2, 177768, Note_on_c, 0, 40, 0
2, 177768, Note_on_c, 0, 47, 0
2, 177776, Note_on_c, 0, 47, 78
2, 177778, Note_on_c, 0, 40, 77
2, 177845, Note_on_c, 0, 52, 0
2, 177855, Note_on_c, 0, 52, 76
2, 177937, Note_on_c, 0, 47, 0
2, 177945, Note_on_c, 0, 40, 0
2, 177947, Note_on_c, 0, 47, 79
2, 177950, Note_on_c, 0, 40, 81
2, 178022, Note_on_c, 0, 52, 0
2, 178027, Note_on_c, 0, 52, 78
2, 178129, Note_on_c, 0, 47, 0
2, 178136, Note_on_c, 0, 47, 80
2, 178245, Note_on_c, 0, 52, 0
2, 178254, Note_on_c, 0, 52, 90
2, 178560, Note_on_c, 0, 28, 0
2, 178560, Note_on_c, 0, 69, 0
2, 178560, Note_on_c, 0, 76, 0
2, 178560, Note_on_c, 0, 80, 0
2, 178560, Note_on_c, 0, 81, 0
2, 178560, Note_on_c, 0, 83, 0
2, 178560, Note_on_c, 0, 88, 0
2, 178744, Note_on_c, 0, 64, 0
2, 178790, Note_on_c, 0, 52, 0
2, 178793, Note_on_c, 0, 64, 107
2, 178798, Note_on_c, 0, 40, 0
2, 178799, Note_on_c, 0, 52, 102
2, 178802, Note_on_c, 0, 40, 93
2, 178802, Note_on_c, 0, 28, 93
2, 178809, Control_c, 0, 64, 0
2, 178833, Note_on_c, 0, 47, 0
2, 178835, Note_on_c, 0, 71, 0
2, 178838, Note_on_c, 0, 68, 0
2, 178974, Control_c, 0, 64, 127
2, 182304, Control_c, 0, 64, 0
2, 182315, Note_on_c, 0, 40, 0
2, 182315, Note_on_c, 0, 64, 0
2, 182323, Note_on_c, 0, 28, 0
2, 182330, Note_on_c, 0, 52, 0
2, 182331, End_track
0, 0, End_of_file
