0, 0, Header, 1, 2, 384
1, 0, Start_track
1, 0, Tempo, 500000
1, 0, Time_signature, 4, 2, 24, 8
1, 1, End_track
2, 0, Start_track
2, 2583, Note_on_c, 0, 104, 105
2, 2588, Note_on_c, 0, 104, 0
2, 2588, Control_c, 0, 64, 127
2, 2588, Note_on_c, 0, 103, 108
2, 2614, Note_on_c, 0, 101, 103
2, 2640, Note_on_c, 0, 100, 105
2, 2662, Note_on_c, 0, 98, 101
2, 2676, Note_on_c, 0, 96, 98
2, 2693, Note_on_c, 0, 95, 83
2, 2701, Note_on_c, 0, 93, 95
2, 2721, Note_on_c, 0, 91, 103
2, 2730, Note_on_c, 0, 89, 99
2, 2745, Note_on_c, 0, 88, 94
2, 2765, Note_on_c, 0, 86, 93
2, 2784, Note_on_c, 0, 84, 89
2, 2786, Note_on_c, 0, 83, 83
2, 2814, Note_on_c, 0, 81, 90
2, 2820, Note_on_c, 0, 79, 95
2, 2841, Note_on_c, 0, 77, 92
2, 2859, Note_on_c, 0, 76, 89
2, 2872, Note_on_c, 0, 74, 91
2, 2883, Note_on_c, 0, 72, 91
2, 2907, Note_on_c, 0, 71, 77
2, 2916, Note_on_c, 0, 69, 83
2, 2931, Note_on_c, 0, 67, 84
2, 2951, Note_on_c, 0, 65, 74
2, 2969, Note_on_c, 0, 64, 80
2, 2988, Note_on_c, 0, 62, 65
2, 3013, Note_on_c, 0, 60, 73
2, 3014, Note_on_c, 0, 59, 84
2, 3050, Note_on_c, 0, 57, 84
2, 3057, Note_on_c, 0, 55, 79
2, 3192, Note_on_c, 0, 45, 97
2, 3193, Control_c, 0, 64, 0
2, 3194, Note_on_c, 0, 103, 0
2, 3195, Note_on_c, 0, 53, 99
2, 3196, Note_on_c, 0, 59, 0
2, 3196, Note_on_c, 0, 77, 0
2, 3197, Note_on_c, 0, 38, 99
2, 3197, Note_on_c, 0, 76, 0
2, 3197, Note_on_c, 0, 65, 0
2, 3197, Note_on_c, 0, 62, 0
2, 3197, Note_on_c, 0, 86, 0
2, 3197, Note_on_c, 0, 74, 0
2, 3197, Note_on_c, 0, 64, 0
2, 3197, Note_on_c, 0, 83, 0
2, 3197, Note_on_c, 0, 71, 0
2, 3197, Note_on_c, 0, 93, 0
2, 3198, Note_on_c, 0, 81, 0
2, 3198, Note_on_c, 0, 79, 0
2, 3198, Note_on_c, 0, 84, 0
2, 3198, Note_on_c, 0, 89, 0
2, 3198, Note_on_c, 0, 57, 0
2, 3198, Note_on_c, 0, 72, 0
2, 3198, Note_on_c, 0, 60, 0
2, 3198, Note_on_c, 0, 91, 0
2, 3198, Note_on_c, 0, 67, 0
2, 3198, Note_on_c, 0, 69, 0
2, 3198, Note_on_c, 0, 98, 0
2, 3198, Note_on_c, 0, 95, 0
2, 3198, Note_on_c, 0, 96, 0
2, 3198, Note_on_c, 0, 55, 0
2, 3198, Note_on_c, 0, 88, 0
2, 3198, Note_on_c, 0, 100, 0
2, 3202, Note_on_c, 0, 101, 0
2, 3340, Control_c, 0, 64, 127
2, 3347, Note_on_c, 0, 62, 91
2, 3489, Note_on_c, 0, 65, 100
2, 3496, Note_on_c, 0, 57, 92
2, 3624, Note_on_c, 0, 62, 0
2, 3628, Note_on_c, 0, 69, 99
2, 3629, Note_on_c, 0, 62, 85
2, 3778, Note_on_c, 0, 65, 0
2, 3783, Note_on_c, 0, 65, 101
2, 3786, Note_on_c, 0, 57, 0
2, 3790, Note_on_c, 0, 57, 94
2, 3916, Note_on_c, 0, 69, 0
2, 3923, Note_on_c, 0, 69, 98
2, 4070, Note_on_c, 0, 65, 0
2, 4076, Note_on_c, 0, 65, 88
2, 4224, Note_on_c, 0, 62, 0
2, 4233, Note_on_c, 0, 62, 97
2, 4350, Control_c, 0, 64, 0
2, 4358, Note_on_c, 0, 69, 0
2, 4358, Note_on_c, 0, 38, 0
2, 4358, Note_on_c, 0, 62, 0
2, 4358, Note_on_c, 0, 53, 0
2, 4358, Note_on_c, 0, 65, 0
2, 4377, Note_on_c, 0, 45, 0
2, 4381, Note_on_c, 0, 45, 94
2, 4381, Note_on_c, 0, 52, 86
2, 4384, Note_on_c, 0, 37, 101
2, 4477, Control_c, 0, 64, 127
2, 4528, Note_on_c, 0, 61, 89
2, 4668, Note_on_c, 0, 65, 97
2, 4677, Note_on_c, 0, 57, 0
2, 4681, Note_on_c, 0, 57, 86
2, 4807, Note_on_c, 0, 61, 0
2, 4815, Note_on_c, 0, 69, 95
2, 4818, Note_on_c, 0, 61, 86
2, 4953, Note_on_c, 0, 65, 0
2, 4964, Note_on_c, 0, 65, 100
2, 4968, Note_on_c, 0, 57, 0
2, 4979, Note_on_c, 0, 57, 91
2, 5114, Note_on_c, 0, 69, 0
2, 5121, Note_on_c, 0, 69, 98
2, 5268, Note_on_c, 0, 65, 0
2, 5278, Note_on_c, 0, 65, 90
2, 5414, Note_on_c, 0, 61, 0
2, 5422, Note_on_c, 0, 61, 98
2, 5437, Note_on_c, 0, 49, 63
2, 5519, Control_c, 0, 64, 0
2, 5538, Note_on_c, 0, 37, 0
2, 5541, Note_on_c, 0, 61, 0
2, 5544, Note_on_c, 0, 45, 0
2, 5544, Note_on_c, 0, 49, 0
2, 5548, Note_on_c, 0, 65, 0
2, 5552, Note_on_c, 0, 52, 0
2, 5556, Note_on_c, 0, 45, 100
2, 5557, Note_on_c, 0, 52, 92
2, 5561, Note_on_c, 0, 36, 97
2, 5575, Note_on_c, 0, 57, 0
2, 5621, Control_c, 0, 64, 127
2, 5695, Note_on_c, 0, 60, 100
2, 5839, Note_on_c, 0, 65, 98
2, 5841, Note_on_c, 0, 57, 89
2, 5982, Note_on_c, 0, 60, 0
2, 5982, Note_on_c, 0, 69, 0
2, 5987, Note_on_c, 0, 69, 97
2, 5989, Note_on_c, 0, 60, 92
2, 6128, Note_on_c, 0, 57, 0
2, 6128, Note_on_c, 0, 65, 0
2, 6138, Note_on_c, 0, 65, 96
2, 6139, Note_on_c, 0, 57, 95
2, 6274, Note_on_c, 0, 69, 0
2, 6280, Note_on_c, 0, 69, 97
2, 6428, Note_on_c, 0, 65, 0
2, 6439, Note_on_c, 0, 65, 91
2, 6574, Note_on_c, 0, 60, 0
2, 6578, Note_on_c, 0, 60, 96
2, 6701, Control_c, 0, 64, 0
2, 6707, Note_on_c, 0, 52, 0
2, 6707, Note_on_c, 0, 69, 0
2, 6707, Note_on_c, 0, 65, 0
2, 6707, Note_on_c, 0, 57, 0
2, 6708, Note_on_c, 0, 45, 0
2, 6708, Note_on_c, 0, 60, 0
2, 6716, Note_on_c, 0, 43, 99
2, 6721, Note_on_c, 0, 35, 95
2, 6723, Note_on_c, 0, 50, 98
2, 6750, Note_on_c, 0, 36, 0
2, 6796, Control_c, 0, 64, 127
2, 6870, Note_on_c, 0, 55, 96
2, 7008, Note_on_c, 0, 59, 97
2, 7152, Note_on_c, 0, 62, 102
2, 7303, Note_on_c, 0, 62, 0
2, 7313, Note_on_c, 0, 62, 95
2, 7314, Note_on_c, 0, 67, 96
2, 7441, Note_on_c, 0, 59, 0
2, 7448, Note_on_c, 0, 59, 99
2, 7448, Note_on_c, 0, 43, 0
2, 7595, Note_on_c, 0, 55, 0
2, 7595, Note_on_c, 0, 62, 0
2, 7599, Note_on_c, 0, 71, 99
2, 7600, Note_on_c, 0, 55, 96
2, 7602, Note_on_c, 0, 62, 99
2, 7603, Note_on_c, 0, 67, 0
2, 7609, Note_on_c, 0, 67, 91
2, 7626, Note_on_c, 0, 50, 0
2, 7630, Note_on_c, 0, 50, 67
2, 7726, Note_on_c, 0, 59, 0
2, 7728, Note_on_c, 0, 47, 92
2, 7730, Note_on_c, 0, 59, 96
2, 7805, Note_on_c, 0, 62, 0
2, 7805, Note_on_c, 0, 71, 0
2, 7805, Note_on_c, 0, 35, 0
2, 7805, Note_on_c, 0, 50, 0
2, 7805, Note_on_c, 0, 67, 0
2, 7805, Note_on_c, 0, 55, 0
2, 7806, Control_c, 0, 64, 0
2, 7806, Note_on_c, 0, 59, 0
2, 7818, Note_on_c, 0, 47, 0
2, 7890, Note_on_c, 0, 74, 109
2, 7891, Note_on_c, 0, 46, 106
2, 7896, Note_on_c, 0, 34, 99
2, 7898, Note_on_c, 0, 65, 94
2, 7898, Note_on_c, 0, 70, 97
2, 7925, Control_c, 0, 64, 127
2, 8039, Note_on_c, 0, 62, 90
2, 8171, Note_on_c, 0, 65, 0
2, 8176, Note_on_c, 0, 58, 87
2, 8180, Note_on_c, 0, 65, 85
2, 8182, Note_on_c, 0, 53, 80
2, 8188, Note_on_c, 0, 50, 65
2, 8309, Note_on_c, 0, 46, 0
2, 8317, Note_on_c, 0, 58, 0
2, 8317, Note_on_c, 0, 70, 0
2, 8319, Note_on_c, 0, 46, 91
2, 8321, Note_on_c, 0, 70, 98
2, 8323, Note_on_c, 0, 58, 90
2, 8463, Note_on_c, 0, 65, 0
2, 8463, Note_on_c, 0, 70, 0
2, 8469, Note_on_c, 0, 76, 106
2, 8472, Note_on_c, 0, 65, 90
2, 8474, Note_on_c, 0, 70, 95
2, 8601, Note_on_c, 0, 46, 0
2, 8607, Note_on_c, 0, 46, 87
2, 8612, Note_on_c, 0, 64, 89
2, 8755, Note_on_c, 0, 58, 0
2, 8762, Note_on_c, 0, 50, 0
2, 8762, Note_on_c, 0, 53, 0
2, 8762, Note_on_c, 0, 65, 0
2, 8766, Note_on_c, 0, 58, 94
2, 8767, Note_on_c, 0, 53, 86
2, 8770, Note_on_c, 0, 50, 89
2, 8770, Note_on_c, 0, 65, 89
2, 8901, Note_on_c, 0, 70, 0
2, 8906, Note_on_c, 0, 70, 97
2, 8984, Control_c, 0, 64, 0
2, 8988, Note_on_c, 0, 34, 0
2, 8990, Note_on_c, 0, 62, 0
2, 8991, Note_on_c, 0, 64, 0
2, 8991, Note_on_c, 0, 65, 0
2, 8991, Note_on_c, 0, 50, 0
2, 8992, Note_on_c, 0, 53, 0
2, 8992, Note_on_c, 0, 74, 0
2, 8992, Note_on_c, 0, 46, 0
2, 8993, Note_on_c, 0, 76, 0
2, 8995, Note_on_c, 0, 70, 0
2, 9016, Note_on_c, 0, 58, 0
2, 9057, Note_on_c, 0, 77, 102
2, 9057, Note_on_c, 0, 45, 103
2, 9057, Note_on_c, 0, 33, 93
2, 9059, Note_on_c, 0, 69, 102
2, 9061, Note_on_c, 0, 74, 99
2, 9093, Control_c, 0, 64, 127
2, 9204, Note_on_c, 0, 65, 92
2, 9354, Note_on_c, 0, 69, 0
2, 9360, Note_on_c, 0, 69, 94
2, 9364, Note_on_c, 0, 57, 99
2, 9365, Note_on_c, 0, 53, 87
2, 9374, Note_on_c, 0, 50, 77
2, 9492, Note_on_c, 0, 45, 0
2, 9492, Note_on_c, 0, 74, 0
2, 9501, Note_on_c, 0, 74, 102
2, 9503, Note_on_c, 0, 45, 92
2, 9642, Note_on_c, 0, 79, 105
2, 9646, Note_on_c, 0, 33, 0
2, 9646, Note_on_c, 0, 69, 0
2, 9646, Note_on_c, 0, 74, 0
2, 9651, Note_on_c, 0, 74, 96
2, 9653, Note_on_c, 0, 69, 98
2, 9653, Note_on_c, 0, 45, 0
2, 9657, Note_on_c, 0, 33, 85
2, 9658, Note_on_c, 0, 45, 82
2, 9792, Note_on_c, 0, 45, 0
2, 9799, Note_on_c, 0, 67, 90
2, 9802, Note_on_c, 0, 45, 86
2, 9937, Note_on_c, 0, 57, 0
2, 9937, Note_on_c, 0, 69, 0
2, 9945, Note_on_c, 0, 57, 101
2, 9945, Note_on_c, 0, 50, 0
2, 9945, Note_on_c, 0, 53, 0
2, 9948, Note_on_c, 0, 69, 92
2, 9949, Note_on_c, 0, 53, 90
2, 9950, Note_on_c, 0, 50, 90
2, 10083, Note_on_c, 0, 74, 0
2, 10090, Note_on_c, 0, 74, 103
2, 10158, Note_on_c, 0, 33, 0
2, 10162, Note_on_c, 0, 79, 0
2, 10162, Note_on_c, 0, 77, 0
2, 10162, Note_on_c, 0, 65, 0
2, 10163, Note_on_c, 0, 57, 0
2, 10163, Note_on_c, 0, 53, 0
2, 10164, Note_on_c, 0, 67, 0
2, 10164, Note_on_c, 0, 69, 0
2, 10164, Note_on_c, 0, 74, 0
2, 10164, Control_c, 0, 64, 0
2, 10165, Note_on_c, 0, 50, 0
2, 10183, Note_on_c, 0, 45, 0
2, 10234, Note_on_c, 0, 81, 105
2, 10239, Note_on_c, 0, 74, 102
2, 10240, Note_on_c, 0, 70, 102
2, 10240, Note_on_c, 0, 43, 104
2, 10240, Note_on_c, 0, 31, 98
2, 10260, Control_c, 0, 64, 127
2, 10376, Note_on_c, 0, 69, 94
2, 10513, Note_on_c, 0, 70, 0
2, 10518, Note_on_c, 0, 58, 99
2, 10519, Note_on_c, 0, 70, 94
2, 10521, Note_on_c, 0, 50, 77
2, 10652, Note_on_c, 0, 74, 0
2, 10659, Note_on_c, 0, 31, 0
2, 10659, Note_on_c, 0, 43, 0
2, 10662, Note_on_c, 0, 74, 102
2, 10663, Note_on_c, 0, 43, 93
2, 10665, Note_on_c, 0, 31, 81
2, 10805, Note_on_c, 0, 74, 0
2, 10813, Note_on_c, 0, 43, 0
2, 10816, Note_on_c, 0, 82, 109
2, 10816, Note_on_c, 0, 74, 103
2, 10819, Note_on_c, 0, 43, 78
2, 10821, Note_on_c, 0, 31, 0
2, 10827, Note_on_c, 0, 31, 72
2, 10944, Note_on_c, 0, 70, 0
2, 10951, Note_on_c, 0, 43, 0
2, 10953, Note_on_c, 0, 70, 95
2, 10957, Note_on_c, 0, 43, 92
2, 11089, Note_on_c, 0, 50, 0
2, 11089, Note_on_c, 0, 58, 0
2, 11089, Note_on_c, 0, 74, 0
2, 11096, Note_on_c, 0, 50, 92
2, 11097, Note_on_c, 0, 58, 97
2, 11100, Note_on_c, 0, 74, 101
2, 11242, Note_on_c, 0, 77, 100
2, 11258, Note_on_c, 0, 43, 0
2, 11265, Note_on_c, 0, 43, 57
2, 11299, Control_c, 0, 64, 0
2, 11301, Note_on_c, 0, 69, 0
2, 11301, Note_on_c, 0, 74, 0
2, 11301, Note_on_c, 0, 50, 0
2, 11301, Note_on_c, 0, 31, 0
2, 11302, Note_on_c, 0, 43, 0
2, 11302, Note_on_c, 0, 58, 0
2, 11302, Note_on_c, 0, 82, 0
2, 11302, Note_on_c, 0, 70, 0
2, 11303, Note_on_c, 0, 81, 0
2, 11310, Note_on_c, 0, 77, 0
2, 11393, Note_on_c, 0, 45, 106
2, 11393, Note_on_c, 0, 33, 96
2, 11394, Note_on_c, 0, 85, 109
2, 11394, Note_on_c, 0, 76, 107
2, 11420, Control_c, 0, 64, 127
2, 11531, Note_on_c, 0, 73, 102
2, 11681, Note_on_c, 0, 76, 0
2, 11684, Note_on_c, 0, 55, 99
2, 11685, Note_on_c, 0, 76, 96
2, 11687, Note_on_c, 0, 52, 86
2, 11698, Note_on_c, 0, 49, 95
2, 11811, Note_on_c, 0, 45, 0
2, 11822, Note_on_c, 0, 45, 89
2, 11825, Note_on_c, 0, 81, 97
2, 11974, Note_on_c, 0, 67, 102
2, 11976, Note_on_c, 0, 88, 110
2, 11977, Note_on_c, 0, 79, 106
2, 12003, Note_on_c, 0, 64, 78
2, 12065, Note_on_c, 0, 49, 0
2, 12068, Note_on_c, 0, 61, 90
2, 12073, Note_on_c, 0, 49, 75
2, 12111, Note_on_c, 0, 76, 0
2, 12121, Note_on_c, 0, 76, 100
2, 12142, Note_on_c, 0, 55, 0
2, 12148, Note_on_c, 0, 55, 91
2, 12203, Note_on_c, 0, 52, 0
2, 12214, Note_on_c, 0, 52, 76
2, 12249, Note_on_c, 0, 79, 0
2, 12259, Note_on_c, 0, 79, 100
2, 12272, Note_on_c, 0, 49, 0
2, 12276, Note_on_c, 0, 49, 86
2, 12364, Note_on_c, 0, 64, 0
2, 12373, Note_on_c, 0, 64, 72
2, 12395, Note_on_c, 0, 45, 0
2, 12395, Note_on_c, 0, 85, 0
2, 12399, Note_on_c, 0, 45, 72
2, 12400, Note_on_c, 0, 57, 69
2, 12405, Note_on_c, 0, 85, 100
2, 12506, Note_on_c, 0, 64, 0
2, 12506, Note_on_c, 0, 81, 0
2, 12506, Note_on_c, 0, 55, 0
2, 12506, Note_on_c, 0, 88, 0
2, 12507, Note_on_c, 0, 49, 0
2, 12507, Note_on_c, 0, 45, 0
2, 12507, Note_on_c, 0, 73, 0
2, 12507, Note_on_c, 0, 79, 0
2, 12507, Control_c, 0, 64, 0
2, 12507, Note_on_c, 0, 85, 0
2, 12507, Note_on_c, 0, 67, 0
2, 12507, Note_on_c, 0, 57, 0
2, 12518, Note_on_c, 0, 33, 0
2, 12518, Note_on_c, 0, 76, 0
2, 12526, Note_on_c, 0, 52, 0
2, 12526, Note_on_c, 0, 61, 0
2, 12565, Note_on_c, 0, 69, 104
2, 12568, Note_on_c, 0, 43, 97
2, 12570, Note_on_c, 0, 58, 97
2, 12570, Note_on_c, 0, 31, 94
2, 12571, Note_on_c, 0, 62, 92
2, 12610, Control_c, 0, 64, 127
2, 12798, Control_c, 0, 64, 0
2, 12799, Note_on_c, 0, 69, 0
2, 12803, Note_on_c, 0, 43, 0
2, 12805, Note_on_c, 0, 58, 0
2, 12805, Note_on_c, 0, 62, 0
2, 12817, Note_on_c, 0, 31, 0
2, 12875, Note_on_c, 0, 65, 82
2, 12875, Note_on_c, 0, 50, 76
2, 12876, Note_on_c, 0, 53, 85
2, 12914, Note_on_c, 0, 65, 0
2, 12915, Note_on_c, 0, 53, 0
2, 12920, Note_on_c, 0, 50, 0
2, 13013, Note_on_c, 0, 65, 94
2, 13013, Note_on_c, 0, 43, 82
2, 13014, Note_on_c, 0, 58, 86
2, 13019, Note_on_c, 0, 62, 79
2, 13117, Note_on_c, 0, 43, 0
2, 13167, Note_on_c, 0, 43, 67
2, 13206, Note_on_c, 0, 58, 0
2, 13209, Note_on_c, 0, 43, 0
2, 13209, Note_on_c, 0, 62, 0
2, 13312, Note_on_c, 0, 43, 72
2, 13312, Note_on_c, 0, 62, 88
2, 13313, Note_on_c, 0, 58, 73
2, 13353, Note_on_c, 0, 43, 0
2, 13401, Note_on_c, 0, 58, 0
2, 13401, Note_on_c, 0, 65, 0
2, 13447, Note_on_c, 0, 62, 0
2, 13451, Note_on_c, 0, 50, 82
2, 13452, Note_on_c, 0, 53, 89
2, 13458, Note_on_c, 0, 65, 86
2, 13459, Note_on_c, 0, 62, 81
2, 13557, Note_on_c, 0, 62, 0
2, 13558, Note_on_c, 0, 50, 0
2, 13559, Note_on_c, 0, 53, 0
2, 13564, Note_on_c, 0, 65, 0
2, 13609, Note_on_c, 0, 64, 95
2, 13612, Note_on_c, 0, 60, 85
2, 13614, Note_on_c, 0, 43, 77
2, 13678, Note_on_c, 0, 43, 0
2, 13748, Note_on_c, 0, 36, 87
2, 13785, Control_c, 0, 64, 127
2, 13905, Note_on_c, 0, 62, 78
2, 13906, Note_on_c, 0, 65, 79
2, 13985, Note_on_c, 0, 60, 0
2, 13987, Control_c, 0, 64, 0
2, 13987, Note_on_c, 0, 64, 0
2, 13988, Note_on_c, 0, 62, 0
2, 13989, Note_on_c, 0, 65, 0
2, 13989, Note_on_c, 0, 36, 0
2, 14035, Note_on_c, 0, 52, 82
2, 14035, Note_on_c, 0, 55, 86
2, 14039, Note_on_c, 0, 48, 87
2, 14041, Note_on_c, 0, 60, 88
2, 14041, Note_on_c, 0, 67, 98
2, 14047, Note_on_c, 0, 64, 89
2, 14078, Note_on_c, 0, 52, 0
2, 14081, Note_on_c, 0, 48, 0
2, 14186, Note_on_c, 0, 36, 77
2, 14315, Note_on_c, 0, 36, 0
2, 14326, Note_on_c, 0, 36, 68
2, 14446, Control_c, 0, 64, 127
2, 14453, Note_on_c, 0, 36, 0
2, 14464, Note_on_c, 0, 36, 83
2, 14607, Note_on_c, 0, 55, 0
2, 14611, Note_on_c, 0, 55, 90
2, 14612, Note_on_c, 0, 48, 79
2, 14613, Note_on_c, 0, 62, 90
2, 14613, Note_on_c, 0, 52, 80
2, 14618, Note_on_c, 0, 67, 0
2, 14745, Note_on_c, 0, 62, 0
2, 14755, Note_on_c, 0, 62, 93
2, 14856, Note_on_c, 0, 60, 0
2, 14857, Note_on_c, 0, 55, 0
2, 14857, Note_on_c, 0, 64, 0
2, 14857, Note_on_c, 0, 48, 0
2, 14857, Note_on_c, 0, 52, 0
2, 14858, Note_on_c, 0, 36, 0
2, 14858, Control_c, 0, 64, 0
2, 14859, Note_on_c, 0, 62, 0
2, 14902, Note_on_c, 0, 45, 94
2, 14903, Note_on_c, 0, 33, 87
2, 14903, Note_on_c, 0, 64, 99
2, 14903, Note_on_c, 0, 60, 92
2, 14999, Control_c, 0, 64, 127
2, 15191, Note_on_c, 0, 60, 0
2, 15194, Note_on_c, 0, 52, 76
2, 15195, Note_on_c, 0, 55, 91
2, 15199, Note_on_c, 0, 60, 87
2, 15223, Control_c, 0, 64, 0
2, 15231, Note_on_c, 0, 45, 0
2, 15232, Note_on_c, 0, 64, 0
2, 15233, Note_on_c, 0, 60, 0
2, 15233, Note_on_c, 0, 55, 0
2, 15238, Note_on_c, 0, 52, 0
2, 15244, Note_on_c, 0, 33, 0
2, 15347, Note_on_c, 0, 67, 98
2, 15349, Note_on_c, 0, 60, 89
2, 15353, Note_on_c, 0, 64, 94
2, 15354, Note_on_c, 0, 33, 77
2, 15482, Note_on_c, 0, 33, 0
2, 15489, Note_on_c, 0, 33, 71
2, 15609, Note_on_c, 0, 64, 0
2, 15613, Note_on_c, 0, 33, 0
2, 15623, Note_on_c, 0, 33, 87
2, 15636, Note_on_c, 0, 60, 0
2, 15650, Note_on_c, 0, 62, 90
2, 15713, Control_c, 0, 64, 127
2, 15786, Note_on_c, 0, 64, 97
2, 15787, Note_on_c, 0, 55, 94
2, 15790, Note_on_c, 0, 52, 82
2, 15936, Note_on_c, 0, 62, 0
2, 15942, Note_on_c, 0, 62, 98
2, 15952, Note_on_c, 0, 53, 83
2, 15960, Note_on_c, 0, 57, 84
2, 15994, Control_c, 0, 64, 0
2, 15997, Note_on_c, 0, 67, 0
2, 16000, Note_on_c, 0, 64, 0
2, 16000, Note_on_c, 0, 55, 0
2, 16005, Note_on_c, 0, 33, 0
2, 16020, Note_on_c, 0, 52, 0
2, 16072, Note_on_c, 0, 38, 90
2, 16189, Control_c, 0, 64, 127
2, 16358, Note_on_c, 0, 57, 0
2, 16366, Note_on_c, 0, 53, 0
2, 16366, Note_on_c, 0, 57, 92
2, 16369, Note_on_c, 0, 50, 85
2, 16372, Note_on_c, 0, 53, 78
2, 16454, Control_c, 0, 64, 0
2, 16455, Note_on_c, 0, 62, 0
2, 16456, Note_on_c, 0, 53, 0
2, 16456, Note_on_c, 0, 38, 0
2, 16456, Note_on_c, 0, 57, 0
2, 16459, Note_on_c, 0, 50, 0
2, 16513, Note_on_c, 0, 38, 85
2, 16554, Note_on_c, 0, 38, 0
2, 16659, Note_on_c, 0, 62, 99
2, 16664, Note_on_c, 0, 38, 81
2, 16727, Control_c, 0, 64, 127
2, 16803, Note_on_c, 0, 38, 0
2, 16808, Note_on_c, 0, 38, 80
2, 16929, Note_on_c, 0, 50, 81
2, 16931, Note_on_c, 0, 57, 95
2, 16934, Note_on_c, 0, 53, 83
2, 16937, Note_on_c, 0, 65, 93
2, 17072, Note_on_c, 0, 38, 0
2, 17083, Note_on_c, 0, 38, 87
2, 17090, Note_on_c, 0, 50, 0
2, 17183, Control_c, 0, 64, 0
2, 17192, Note_on_c, 0, 53, 0
2, 17192, Note_on_c, 0, 57, 0
2, 17192, Note_on_c, 0, 65, 0
2, 17192, Note_on_c, 0, 62, 0
2, 17218, Note_on_c, 0, 38, 0
2, 17239, Note_on_c, 0, 31, 86
2, 17243, Note_on_c, 0, 67, 99
2, 17244, Note_on_c, 0, 58, 99
2, 17245, Note_on_c, 0, 62, 88
2, 17379, Control_c, 0, 64, 127
2, 17464, Note_on_c, 0, 31, 0
2, 17538, Note_on_c, 0, 69, 97
2, 17541, Note_on_c, 0, 62, 0
2, 17547, Note_on_c, 0, 50, 88
2, 17548, Note_on_c, 0, 58, 0
2, 17548, Note_on_c, 0, 53, 91
2, 17551, Note_on_c, 0, 65, 80
2, 17552, Note_on_c, 0, 62, 86
2, 17553, Note_on_c, 0, 58, 86
2, 17568, Control_c, 0, 64, 0
2, 17576, Note_on_c, 0, 67, 0
2, 17592, Note_on_c, 0, 50, 0
2, 17597, Note_on_c, 0, 58, 0
2, 17599, Note_on_c, 0, 53, 0
2, 17604, Note_on_c, 0, 69, 0
2, 17614, Note_on_c, 0, 65, 0
2, 17633, Note_on_c, 0, 62, 0
2, 17700, Note_on_c, 0, 67, 96
2, 17702, Note_on_c, 0, 58, 89
2, 17704, Note_on_c, 0, 62, 87
2, 17705, Note_on_c, 0, 43, 84
2, 17817, Note_on_c, 0, 43, 0
2, 17827, Note_on_c, 0, 43, 82
2, 17863, Control_c, 0, 64, 127
2, 17971, Control_c, 0, 64, 0
2, 17978, Note_on_c, 0, 43, 0
2, 17982, Note_on_c, 0, 43, 86
2, 18042, Note_on_c, 0, 58, 0
2, 18043, Note_on_c, 0, 67, 0
2, 18044, Note_on_c, 0, 43, 0
2, 18044, Note_on_c, 0, 62, 0
2, 18124, Control_c, 0, 64, 127
2, 18128, Note_on_c, 0, 53, 89
2, 18128, Note_on_c, 0, 58, 92
2, 18128, Note_on_c, 0, 67, 92
2, 18129, Note_on_c, 0, 50, 83
2, 18130, Note_on_c, 0, 62, 85
2, 18255, Note_on_c, 0, 58, 0
2, 18255, Note_on_c, 0, 67, 0
2, 18260, Note_on_c, 0, 43, 89
2, 18263, Note_on_c, 0, 62, 0
2, 18263, Note_on_c, 0, 58, 90
2, 18266, Note_on_c, 0, 67, 91
2, 18268, Note_on_c, 0, 62, 84
2, 18352, Control_c, 0, 64, 0
2, 18360, Note_on_c, 0, 50, 0
2, 18360, Note_on_c, 0, 43, 0
2, 18361, Note_on_c, 0, 62, 0
2, 18361, Note_on_c, 0, 53, 0
2, 18362, Note_on_c, 0, 58, 0
2, 18365, Note_on_c, 0, 67, 0
2, 18419, Note_on_c, 0, 69, 104
2, 18421, Note_on_c, 0, 60, 90
2, 18424, Note_on_c, 0, 36, 86
2, 18425, Note_on_c, 0, 64, 90
2, 18485, Control_c, 0, 64, 127
2, 18508, Note_on_c, 0, 60, 0
2, 18700, Note_on_c, 0, 64, 0
2, 18701, Note_on_c, 0, 55, 95
2, 18703, Note_on_c, 0, 48, 87
2, 18705, Note_on_c, 0, 52, 82
2, 18707, Note_on_c, 0, 60, 92
2, 18709, Note_on_c, 0, 67, 82
2, 18710, Note_on_c, 0, 64, 95
2, 18733, Control_c, 0, 64, 0
2, 18750, Note_on_c, 0, 52, 0
2, 18751, Note_on_c, 0, 69, 0
2, 18752, Note_on_c, 0, 48, 0
2, 18752, Note_on_c, 0, 55, 0
2, 18756, Note_on_c, 0, 60, 0
2, 18758, Note_on_c, 0, 64, 0
2, 18762, Note_on_c, 0, 36, 0
2, 18785, Note_on_c, 0, 67, 0
2, 18849, Note_on_c, 0, 64, 94
2, 18850, Note_on_c, 0, 36, 86
2, 18850, Note_on_c, 0, 60, 87
2, 18892, Control_c, 0, 64, 127
2, 18977, Note_on_c, 0, 36, 0
2, 18984, Note_on_c, 0, 60, 0
2, 18988, Note_on_c, 0, 36, 88
2, 18990, Note_on_c, 0, 60, 76
2, 19115, Note_on_c, 0, 36, 0
2, 19122, Note_on_c, 0, 36, 79
2, 19146, Note_on_c, 0, 60, 0
2, 19150, Note_on_c, 0, 60, 94
2, 19287, Note_on_c, 0, 67, 102
2, 19288, Note_on_c, 0, 48, 85
2, 19290, Note_on_c, 0, 55, 85
2, 19293, Note_on_c, 0, 52, 79
2, 19434, Note_on_c, 0, 65, 104
2, 19438, Note_on_c, 0, 36, 0
2, 19442, Note_on_c, 0, 57, 100
2, 19444, Note_on_c, 0, 62, 92
2, 19447, Note_on_c, 0, 36, 83
2, 19495, Note_on_c, 0, 60, 0
2, 19495, Control_c, 0, 64, 0
2, 19496, Note_on_c, 0, 67, 0
2, 19496, Note_on_c, 0, 55, 0
2, 19496, Note_on_c, 0, 64, 0
2, 19496, Note_on_c, 0, 48, 0
2, 19497, Note_on_c, 0, 52, 0
2, 19497, Note_on_c, 0, 36, 0
2, 19574, Note_on_c, 0, 50, 102
2, 19574, Note_on_c, 0, 38, 96
2, 19578, Note_on_c, 0, 45, 93
2, 19599, Control_c, 0, 64, 127
2, 19725, Note_on_c, 0, 48, 99
2, 19726, Note_on_c, 0, 36, 98
2, 19807, Control_c, 0, 64, 0
2, 19817, Note_on_c, 0, 45, 0
2, 19817, Note_on_c, 0, 65, 0
2, 19817, Note_on_c, 0, 57, 0
2, 19818, Note_on_c, 0, 48, 0
2, 19818, Note_on_c, 0, 36, 0
2, 19818, Note_on_c, 0, 62, 0
2, 19818, Note_on_c, 0, 50, 0
2, 19818, Note_on_c, 0, 38, 0
2, 19877, Note_on_c, 0, 49, 93
2, 19879, Note_on_c, 0, 37, 92
2, 19911, Note_on_c, 0, 49, 0
2, 19915, Note_on_c, 0, 37, 0
2, 20021, Control_c, 0, 64, 127
2, 20025, Note_on_c, 0, 50, 106
2, 20027, Note_on_c, 0, 38, 94
2, 20120, Control_c, 0, 64, 0
2, 20120, Note_on_c, 0, 38, 0
2, 20121, Note_on_c, 0, 50, 0
2, 20323, Note_on_c, 0, 81, 105
2, 20326, Note_on_c, 0, 69, 102
2, 20329, Note_on_c, 0, 38, 94
2, 20331, Note_on_c, 0, 26, 96
2, 20371, Note_on_c, 0, 26, 0
2, 20421, Note_on_c, 0, 38, 0
2, 20428, Note_on_c, 0, 69, 0
2, 20428, Note_on_c, 0, 81, 0
2, 20468, Note_on_c, 0, 79, 107
2, 20471, Note_on_c, 0, 40, 93
2, 20471, Note_on_c, 0, 28, 95
2, 20473, Note_on_c, 0, 67, 100
2, 20507, Note_on_c, 0, 40, 0
2, 20508, Note_on_c, 0, 79, 0
2, 20528, Note_on_c, 0, 67, 0
2, 20536, Note_on_c, 0, 28, 0
2, 20610, Note_on_c, 0, 41, 107
2, 20612, Note_on_c, 0, 77, 105
2, 20613, Note_on_c, 0, 29, 97
2, 20614, Note_on_c, 0, 72, 82
2, 20614, Note_on_c, 0, 65, 103
2, 20643, Control_c, 0, 64, 127
2, 20743, Note_on_c, 0, 41, 0
2, 20751, Note_on_c, 0, 65, 0
2, 20751, Note_on_c, 0, 72, 0
2, 20762, Note_on_c, 0, 29, 0
2, 20764, Note_on_c, 0, 77, 0
2, 20770, Control_c, 0, 64, 0
2, 20810, Note_on_c, 0, 84, 92
2, 20870, Note_on_c, 0, 91, 101
2, 20903, Note_on_c, 0, 96, 105
2, 21059, Note_on_c, 0, 77, 106
2, 21062, Note_on_c, 0, 65, 102
2, 21073, Note_on_c, 0, 84, 0
2, 21089, Note_on_c, 0, 91, 0
2, 21089, Note_on_c, 0, 96, 0
2, 21150, Note_on_c, 0, 65, 0
2, 21173, Note_on_c, 0, 77, 0
2, 21206, Note_on_c, 0, 52, 96
2, 21208, Note_on_c, 0, 43, 92
2, 21212, Note_on_c, 0, 79, 109
2, 21216, Note_on_c, 0, 36, 92
2, 21217, Note_on_c, 0, 67, 100
2, 21281, Control_c, 0, 64, 127
2, 21498, Note_on_c, 0, 72, 102
2, 21498, Note_on_c, 0, 60, 96
2, 21642, Note_on_c, 0, 67, 0
2, 21642, Note_on_c, 0, 72, 0
2, 21648, Note_on_c, 0, 72, 109
2, 21649, Note_on_c, 0, 60, 0
2, 21653, Note_on_c, 0, 67, 98
2, 21654, Note_on_c, 0, 64, 99
2, 21655, Note_on_c, 0, 60, 92
2, 21657, Note_on_c, 0, 96, 105
2, 21695, Note_on_c, 0, 91, 84
2, 21755, Note_on_c, 0, 88, 100
2, 21806, Note_on_c, 0, 84, 95
2, 21906, Control_c, 0, 64, 0
2, 21922, Note_on_c, 0, 91, 0
2, 21922, Note_on_c, 0, 96, 0
2, 21922, Note_on_c, 0, 79, 0
2, 21922, Note_on_c, 0, 88, 0
2, 21922, Note_on_c, 0, 60, 0
2, 21922, Note_on_c, 0, 72, 0
2, 21922, Note_on_c, 0, 84, 0
2, 21923, Note_on_c, 0, 52, 0
2, 21923, Note_on_c, 0, 36, 0
2, 21926, Note_on_c, 0, 43, 0
2, 21941, Note_on_c, 0, 64, 0
2, 21941, Note_on_c, 0, 67, 0
2, 21952, Note_on_c, 0, 81, 107
2, 21953, Note_on_c, 0, 43, 90
2, 21954, Note_on_c, 0, 69, 102
2, 22244, Note_on_c, 0, 58, 94
2, 22246, Note_on_c, 0, 53, 83
2, 22246, Note_on_c, 0, 77, 97
2, 22247, Note_on_c, 0, 50, 80
2, 22251, Note_on_c, 0, 69, 0
2, 22251, Note_on_c, 0, 74, 94
2, 22253, Note_on_c, 0, 65, 92
2, 22258, Note_on_c, 0, 70, 75
2, 22272, Note_on_c, 0, 43, 0
2, 22272, Note_on_c, 0, 81, 0
2, 22281, Note_on_c, 0, 58, 0
2, 22283, Note_on_c, 0, 53, 0
2, 22285, Note_on_c, 0, 50, 0
2, 22310, Note_on_c, 0, 65, 0
2, 22364, Note_on_c, 0, 70, 0
2, 22379, Note_on_c, 0, 77, 0
2, 22380, Note_on_c, 0, 43, 96
2, 22390, Note_on_c, 0, 77, 98
2, 22394, Note_on_c, 0, 74, 0
2, 22398, Note_on_c, 0, 70, 92
2, 22399, Note_on_c, 0, 65, 71
2, 22401, Note_on_c, 0, 74, 85
2, 22510, Control_c, 0, 64, 127
2, 22517, Note_on_c, 0, 43, 0
2, 22527, Note_on_c, 0, 43, 82
2, 22648, Note_on_c, 0, 43, 0
2, 22658, Note_on_c, 0, 43, 81
2, 22686, Note_on_c, 0, 74, 0
2, 22690, Note_on_c, 0, 62, 97
2, 22691, Note_on_c, 0, 74, 103
2, 22824, Note_on_c, 0, 77, 0
2, 22832, Note_on_c, 0, 65, 0
2, 22834, Note_on_c, 0, 53, 82
2, 22835, Note_on_c, 0, 50, 84
2, 22835, Note_on_c, 0, 77, 104
2, 22836, Note_on_c, 0, 58, 83
2, 22836, Note_on_c, 0, 65, 97
2, 22980, Note_on_c, 0, 76, 106
2, 22981, Note_on_c, 0, 64, 101
2, 22982, Note_on_c, 0, 67, 97
2, 22997, Control_c, 0, 64, 0
2, 23005, Note_on_c, 0, 53, 0
2, 23005, Note_on_c, 0, 62, 0
2, 23005, Note_on_c, 0, 77, 0
2, 23005, Note_on_c, 0, 70, 0
2, 23006, Note_on_c, 0, 50, 0
2, 23006, Note_on_c, 0, 65, 0
2, 23006, Note_on_c, 0, 74, 0
2, 23008, Note_on_c, 0, 58, 0
2, 23032, Note_on_c, 0, 43, 0
2, 23112, Note_on_c, 0, 36, 94
2, 23147, Control_c, 0, 64, 127
2, 23288, Note_on_c, 0, 77, 100
2, 23289, Note_on_c, 0, 65, 98
2, 23361, Note_on_c, 0, 36, 0
2, 23363, Note_on_c, 0, 65, 0
2, 23363, Note_on_c, 0, 64, 0
2, 23364, Note_on_c, 0, 67, 0
2, 23364, Note_on_c, 0, 76, 0
2, 23366, Note_on_c, 0, 77, 0
2, 23371, Control_c, 0, 64, 0
2, 23418, Note_on_c, 0, 55, 96
2, 23421, Note_on_c, 0, 48, 87
2, 23423, Note_on_c, 0, 52, 82
2, 23426, Note_on_c, 0, 79, 101
2, 23433, Note_on_c, 0, 67, 95
2, 23437, Note_on_c, 0, 76, 81
2, 23442, Note_on_c, 0, 72, 88
2, 23451, Note_on_c, 0, 55, 0
2, 23456, Note_on_c, 0, 48, 0
2, 23465, Note_on_c, 0, 52, 0
2, 23573, Note_on_c, 0, 36, 81
2, 23708, Note_on_c, 0, 36, 0
2, 23716, Note_on_c, 0, 36, 66
2, 23823, Control_c, 0, 64, 127
2, 23854, Note_on_c, 0, 36, 0
2, 23860, Note_on_c, 0, 36, 88
2, 24000, Note_on_c, 0, 67, 0
2, 24004, Note_on_c, 0, 55, 91
2, 24004, Note_on_c, 0, 74, 100
2, 24009, Note_on_c, 0, 62, 94
2, 24010, Note_on_c, 0, 67, 83
2, 24011, Note_on_c, 0, 48, 88
2, 24020, Note_on_c, 0, 52, 76
2, 24027, Note_on_c, 0, 64, 57
2, 24138, Note_on_c, 0, 36, 0
2, 24138, Note_on_c, 0, 62, 0
2, 24138, Note_on_c, 0, 74, 0
2, 24148, Note_on_c, 0, 62, 95
2, 24148, Note_on_c, 0, 74, 100
2, 24148, Note_on_c, 0, 36, 87
2, 24266, Control_c, 0, 64, 0
2, 24267, Note_on_c, 0, 36, 0
2, 24268, Note_on_c, 0, 64, 0
2, 24268, Note_on_c, 0, 72, 0
2, 24269, Note_on_c, 0, 52, 0
2, 24269, Note_on_c, 0, 74, 0
2, 24270, Note_on_c, 0, 79, 0
2, 24270, Note_on_c, 0, 62, 0
2, 24271, Note_on_c, 0, 55, 0
2, 24284, Note_on_c, 0, 76, 0
2, 24291, Note_on_c, 0, 48, 0
2, 24291, Note_on_c, 0, 67, 0
2, 24294, Note_on_c, 0, 76, 102
2, 24295, Note_on_c, 0, 64, 103
2, 24295, Note_on_c, 0, 45, 101
2, 24296, Note_on_c, 0, 33, 92
2, 24296, Note_on_c, 0, 67, 90
2, 24297, Note_on_c, 0, 72, 93
2, 24335, Note_on_c, 0, 33, 0
2, 24353, Control_c, 0, 64, 127
2, 24583, Note_on_c, 0, 72, 0
2, 24591, Note_on_c, 0, 67, 0
2, 24594, Note_on_c, 0, 72, 102
2, 24594, Note_on_c, 0, 60, 94
2, 24595, Note_on_c, 0, 55, 93
2, 24596, Note_on_c, 0, 52, 81
2, 24598, Note_on_c, 0, 67, 84
2, 24599, Control_c, 0, 64, 0
2, 24601, Note_on_c, 0, 45, 0
2, 24609, Note_on_c, 0, 76, 0
2, 24613, Note_on_c, 0, 64, 0
2, 24619, Note_on_c, 0, 67, 0
2, 24620, Note_on_c, 0, 72, 0
2, 24625, Note_on_c, 0, 60, 0
2, 24629, Note_on_c, 0, 52, 0
2, 24645, Note_on_c, 0, 55, 0
2, 24740, Note_on_c, 0, 45, 89
2, 24741, Note_on_c, 0, 79, 103
2, 24747, Note_on_c, 0, 72, 95
2, 24748, Note_on_c, 0, 67, 97
2, 24750, Note_on_c, 0, 76, 90
2, 24814, Control_c, 0, 64, 127
2, 24875, Note_on_c, 0, 45, 0
2, 24882, Note_on_c, 0, 45, 79
2, 25021, Note_on_c, 0, 45, 0
2, 25024, Note_on_c, 0, 81, 101
2, 25025, Note_on_c, 0, 69, 98
2, 25026, Note_on_c, 0, 45, 85
2, 25167, Note_on_c, 0, 67, 0
2, 25167, Note_on_c, 0, 79, 0
2, 25171, Note_on_c, 0, 79, 103
2, 25176, Note_on_c, 0, 67, 98
2, 25176, Note_on_c, 0, 55, 97
2, 25177, Note_on_c, 0, 52, 89
2, 25313, Note_on_c, 0, 45, 0
2, 25319, Note_on_c, 0, 45, 82
2, 25320, Note_on_c, 0, 77, 106
2, 25320, Note_on_c, 0, 69, 0
2, 25323, Note_on_c, 0, 81, 0
2, 25324, Control_c, 0, 64, 0
2, 25325, Note_on_c, 0, 67, 0
2, 25325, Note_on_c, 0, 72, 0
2, 25325, Note_on_c, 0, 79, 0
2, 25326, Note_on_c, 0, 65, 98
2, 25326, Note_on_c, 0, 69, 99
2, 25327, Note_on_c, 0, 76, 0
2, 25327, Note_on_c, 0, 74, 92
2, 25330, Note_on_c, 0, 55, 0
2, 25331, Note_on_c, 0, 52, 0
2, 25382, Note_on_c, 0, 45, 0
2, 25462, Note_on_c, 0, 38, 93
2, 25482, Control_c, 0, 64, 127
2, 25755, Note_on_c, 0, 57, 90
2, 25756, Note_on_c, 0, 50, 82
2, 25761, Note_on_c, 0, 53, 80
2, 25808, Control_c, 0, 64, 0
2, 25814, Note_on_c, 0, 53, 0
2, 25814, Note_on_c, 0, 57, 0
2, 25815, Note_on_c, 0, 74, 0
2, 25815, Note_on_c, 0, 50, 0
2, 25815, Note_on_c, 0, 69, 0
2, 25817, Note_on_c, 0, 38, 0
2, 25817, Note_on_c, 0, 65, 0
2, 25817, Note_on_c, 0, 77, 0
2, 25903, Note_on_c, 0, 38, 87
2, 25938, Note_on_c, 0, 38, 0
2, 26047, Note_on_c, 0, 38, 92
2, 26050, Note_on_c, 0, 74, 103
2, 26052, Note_on_c, 0, 62, 94
2, 26081, Control_c, 0, 64, 127
2, 26181, Note_on_c, 0, 38, 0
2, 26187, Note_on_c, 0, 38, 86
2, 26328, Note_on_c, 0, 57, 101
2, 26332, Note_on_c, 0, 81, 103
2, 26336, Note_on_c, 0, 53, 89
2, 26338, Note_on_c, 0, 69, 98
2, 26449, Note_on_c, 0, 38, 0
2, 26453, Note_on_c, 0, 38, 85
2, 26553, Control_c, 0, 64, 0
2, 26560, Note_on_c, 0, 38, 0
2, 26561, Note_on_c, 0, 74, 0
2, 26561, Note_on_c, 0, 57, 0
2, 26561, Note_on_c, 0, 62, 0
2, 26562, Note_on_c, 0, 53, 0
2, 26562, Note_on_c, 0, 81, 0
2, 26562, Note_on_c, 0, 69, 0
2, 26624, Note_on_c, 0, 70, 103
2, 26624, Note_on_c, 0, 31, 96
2, 26625, Note_on_c, 0, 43, 99
2, 26625, Note_on_c, 0, 82, 105
2, 26626, Note_on_c, 0, 77, 94
2, 26628, Note_on_c, 0, 74, 99
2, 26703, Control_c, 0, 64, 127
2, 26908, Note_on_c, 0, 74, 0
2, 26909, Control_c, 0, 64, 0
2, 26910, Note_on_c, 0, 31, 0
2, 26910, Note_on_c, 0, 77, 0
2, 26912, Note_on_c, 0, 82, 0
2, 26912, Note_on_c, 0, 70, 0
2, 26918, Note_on_c, 0, 43, 0
2, 26919, Note_on_c, 0, 58, 93
2, 26919, Note_on_c, 0, 53, 83
2, 26921, Note_on_c, 0, 77, 99
2, 26921, Note_on_c, 0, 65, 100
2, 26922, Note_on_c, 0, 50, 72
2, 26960, Note_on_c, 0, 58, 0
2, 26961, Note_on_c, 0, 53, 0
2, 26963, Note_on_c, 0, 65, 0
2, 26987, Note_on_c, 0, 50, 0
2, 26987, Note_on_c, 0, 77, 0
2, 27059, Note_on_c, 0, 43, 91
2, 27065, Note_on_c, 0, 77, 105
2, 27072, Note_on_c, 0, 65, 98
2, 27075, Note_on_c, 0, 74, 96
2, 27076, Note_on_c, 0, 70, 83
2, 27118, Control_c, 0, 64, 127
2, 27202, Note_on_c, 0, 43, 0
2, 27213, Note_on_c, 0, 43, 80
2, 27356, Note_on_c, 0, 43, 0
2, 27366, Note_on_c, 0, 43, 79
2, 27490, Control_c, 0, 64, 0
2, 27494, Note_on_c, 0, 74, 0
2, 27502, Note_on_c, 0, 65, 0
2, 27503, Note_on_c, 0, 58, 99
2, 27505, Note_on_c, 0, 74, 104
2, 27506, Note_on_c, 0, 53, 87
2, 27506, Note_on_c, 0, 62, 101
2, 27512, Note_on_c, 0, 50, 81
2, 27513, Note_on_c, 0, 65, 90
2, 27525, Note_on_c, 0, 70, 0
2, 27531, Note_on_c, 0, 70, 60
2, 27548, Control_c, 0, 64, 127
2, 27632, Note_on_c, 0, 43, 0
2, 27632, Note_on_c, 0, 77, 0
2, 27640, Note_on_c, 0, 65, 0
2, 27643, Note_on_c, 0, 43, 84
2, 27643, Note_on_c, 0, 77, 105
2, 27644, Note_on_c, 0, 65, 102
2, 27686, Control_c, 0, 64, 0
2, 27707, Note_on_c, 0, 62, 0
2, 27707, Note_on_c, 0, 50, 0
2, 27708, Note_on_c, 0, 70, 0
2, 27709, Note_on_c, 0, 65, 0
2, 27709, Note_on_c, 0, 53, 0
2, 27709, Note_on_c, 0, 58, 0
2, 27709, Note_on_c, 0, 74, 0
2, 27710, Note_on_c, 0, 43, 0
2, 27712, Note_on_c, 0, 77, 0
2, 27799, Note_on_c, 0, 76, 108
2, 27799, Note_on_c, 0, 64, 106
2, 27800, Note_on_c, 0, 67, 101
2, 27801, Note_on_c, 0, 36, 97
2, 27840, Control_c, 0, 64, 127
2, 28088, Note_on_c, 0, 77, 105
2, 28089, Note_on_c, 0, 55, 91
2, 28090, Note_on_c, 0, 52, 89
2, 28091, Note_on_c, 0, 65, 98
2, 28091, Note_on_c, 0, 48, 85
2, 28093, Note_on_c, 0, 36, 0
2, 28095, Control_c, 0, 64, 0
2, 28096, Note_on_c, 0, 64, 0
2, 28097, Note_on_c, 0, 67, 0
2, 28098, Note_on_c, 0, 76, 0
2, 28123, Note_on_c, 0, 55, 0
2, 28128, Note_on_c, 0, 52, 0
2, 28134, Note_on_c, 0, 65, 0
2, 28136, Note_on_c, 0, 77, 0
2, 28147, Note_on_c, 0, 48, 0
2, 28235, Note_on_c, 0, 79, 107
2, 28242, Note_on_c, 0, 67, 99
2, 28242, Note_on_c, 0, 72, 104
2, 28242, Note_on_c, 0, 48, 89
2, 28242, Note_on_c, 0, 36, 91
2, 28245, Note_on_c, 0, 76, 98
2, 28270, Control_c, 0, 64, 127
2, 28385, Note_on_c, 0, 48, 0
2, 28389, Note_on_c, 0, 48, 68
2, 28523, Note_on_c, 0, 36, 0
2, 28523, Note_on_c, 0, 72, 0
2, 28531, Note_on_c, 0, 72, 101
2, 28532, Note_on_c, 0, 36, 89
2, 28535, Note_on_c, 0, 60, 95
2, 28669, Note_on_c, 0, 48, 0
2, 28669, Note_on_c, 0, 76, 0
2, 28678, Note_on_c, 0, 55, 93
2, 28680, Note_on_c, 0, 76, 105
2, 28680, Note_on_c, 0, 48, 90
2, 28680, Note_on_c, 0, 64, 104
2, 28681, Note_on_c, 0, 52, 84
2, 28820, Note_on_c, 0, 77, 107
2, 28824, Note_on_c, 0, 69, 106
2, 28824, Note_on_c, 0, 65, 106
2, 28826, Note_on_c, 0, 74, 100
2, 28853, Control_c, 0, 64, 0
2, 28867, Note_on_c, 0, 60, 0
2, 28869, Note_on_c, 0, 64, 0
2, 28870, Note_on_c, 0, 72, 0
2, 28870, Note_on_c, 0, 67, 0
2, 28872, Note_on_c, 0, 36, 0
2, 28872, Note_on_c, 0, 48, 0
2, 28872, Note_on_c, 0, 55, 0
2, 28873, Note_on_c, 0, 79, 0
2, 28873, Note_on_c, 0, 76, 0
2, 28884, Note_on_c, 0, 52, 0
2, 28971, Note_on_c, 0, 50, 102
2, 28973, Note_on_c, 0, 38, 99
2, 28976, Note_on_c, 0, 45, 98
2, 28992, Control_c, 0, 64, 127
2, 29114, Note_on_c, 0, 45, 0
2, 29120, Note_on_c, 0, 33, 82
2, 29125, Note_on_c, 0, 45, 76
2, 29125, Control_c, 0, 64, 0
2, 29129, Note_on_c, 0, 38, 0
2, 29132, Note_on_c, 0, 50, 0
2, 29133, Note_on_c, 0, 69, 0
2, 29134, Note_on_c, 0, 74, 0
2, 29134, Note_on_c, 0, 77, 0
2, 29153, Note_on_c, 0, 65, 0
2, 29176, Note_on_c, 0, 45, 0
2, 29184, Note_on_c, 0, 33, 0
2, 29270, Note_on_c, 0, 45, 98
2, 29271, Note_on_c, 0, 33, 90
2, 29310, Note_on_c, 0, 45, 0
2, 29368, Note_on_c, 0, 33, 0
2, 29411, Note_on_c, 0, 77, 103
2, 29412, Note_on_c, 0, 43, 106
2, 29413, Note_on_c, 0, 65, 98
2, 29415, Note_on_c, 0, 67, 89
2, 29415, Note_on_c, 0, 31, 100
2, 29531, Note_on_c, 0, 77, 0
2, 29539, Note_on_c, 0, 31, 0
2, 29540, Note_on_c, 0, 43, 0
2, 29560, Note_on_c, 0, 65, 0
2, 29560, Note_on_c, 0, 67, 0
2, 29562, Note_on_c, 0, 79, 103
2, 29564, Note_on_c, 0, 65, 86
2, 29564, Note_on_c, 0, 67, 92
2, 29595, Note_on_c, 0, 67, 0
2, 29599, Note_on_c, 0, 79, 0
2, 29600, Note_on_c, 0, 65, 0
2, 29711, Note_on_c, 0, 64, 106
2, 29712, Note_on_c, 0, 36, 96
2, 29712, Note_on_c, 0, 24, 96
2, 29715, Note_on_c, 0, 76, 107
2, 29736, Control_c, 0, 64, 127
2, 29753, Note_on_c, 0, 64, 0
2, 29756, Note_on_c, 0, 76, 0
2, 29790, Note_on_c, 0, 24, 0
2, 29798, Note_on_c, 0, 36, 0
2, 29808, Control_c, 0, 64, 0
2, 29848, Note_on_c, 0, 72, 105
2, 29849, Note_on_c, 0, 60, 98
2, 29880, Note_on_c, 0, 60, 0
2, 29913, Note_on_c, 0, 72, 0
2, 30010, Note_on_c, 0, 74, 109
2, 30013, Note_on_c, 0, 62, 103
2, 30013, Note_on_c, 0, 38, 102
2, 30014, Note_on_c, 0, 65, 97
2, 30014, Note_on_c, 0, 69, 88
2, 30016, Note_on_c, 0, 26, 101
2, 30036, Control_c, 0, 64, 127
2, 30128, Control_c, 0, 64, 0
2, 30305, Note_on_c, 0, 26, 0
2, 30305, Note_on_c, 0, 38, 0
2, 30314, Note_on_c, 0, 26, 97
2, 30314, Note_on_c, 0, 38, 99
2, 30389, Control_c, 0, 64, 127
2, 30458, Note_on_c, 0, 26, 0
2, 30458, Note_on_c, 0, 38, 0
2, 30465, Note_on_c, 0, 26, 96
2, 30466, Note_on_c, 0, 38, 101
2, 30563, Control_c, 0, 64, 0
2, 30567, Note_on_c, 0, 74, 0
2, 30567, Note_on_c, 0, 26, 0
2, 30569, Note_on_c, 0, 65, 0
2, 30569, Note_on_c, 0, 62, 0
2, 30570, Note_on_c, 0, 38, 0
2, 30604, Note_on_c, 0, 69, 0
2, 30755, Note_on_c, 0, 69, 102
2, 30907, Note_on_c, 0, 57, 79
2, 30908, Note_on_c, 0, 48, 95
2, 30908, Note_on_c, 0, 65, 93
2, 30909, Note_on_c, 0, 36, 94
2, 30912, Note_on_c, 0, 57, 0
2, 30946, Note_on_c, 0, 48, 0
2, 30950, Note_on_c, 0, 36, 0
2, 30965, Note_on_c, 0, 69, 0
2, 31027, Note_on_c, 0, 65, 0
2, 31061, Note_on_c, 0, 67, 95
2, 31212, Note_on_c, 0, 58, 105
2, 31214, Note_on_c, 0, 62, 102
2, 31214, Note_on_c, 0, 65, 100
2, 31215, Note_on_c, 0, 43, 107
2, 31216, Note_on_c, 0, 31, 100
2, 31265, Control_c, 0, 64, 127
2, 31529, Note_on_c, 0, 55, 81
2, 31649, Note_on_c, 0, 62, 0
2, 31649, Note_on_c, 0, 65, 0
2, 31656, Note_on_c, 0, 58, 0
2, 31660, Note_on_c, 0, 65, 84
2, 31660, Note_on_c, 0, 62, 96
2, 31660, Note_on_c, 0, 58, 92
2, 31661, Note_on_c, 0, 74, 98
2, 31759, Note_on_c, 0, 82, 98
2, 31827, Note_on_c, 0, 86, 98
2, 31878, Note_on_c, 0, 89, 97
2, 31913, Note_on_c, 0, 94, 100
2, 31945, Note_on_c, 0, 70, 105
2, 31947, Note_on_c, 0, 98, 108
2, 32093, Note_on_c, 0, 69, 102
2, 32217, Note_on_c, 0, 55, 0
2, 32225, Note_on_c, 0, 43, 0
2, 32227, Note_on_c, 0, 55, 99
2, 32235, Note_on_c, 0, 43, 82
2, 32328, Control_c, 0, 64, 0
2, 32329, Note_on_c, 0, 58, 0
2, 32329, Note_on_c, 0, 31, 0
2, 32329, Note_on_c, 0, 94, 0
2, 32329, Note_on_c, 0, 98, 0
2, 32330, Note_on_c, 0, 70, 0
2, 32330, Note_on_c, 0, 82, 0
2, 32330, Note_on_c, 0, 43, 0
2, 32330, Note_on_c, 0, 67, 0
2, 32330, Note_on_c, 0, 74, 0
2, 32330, Note_on_c, 0, 65, 0
2, 32331, Note_on_c, 0, 86, 0
2, 32333, Note_on_c, 0, 89, 0
2, 32334, Note_on_c, 0, 69, 0
2, 32348, Note_on_c, 0, 62, 0
2, 32355, Note_on_c, 0, 55, 0
2, 32391, Note_on_c, 0, 48, 104
2, 32391, Note_on_c, 0, 67, 101
2, 32392, Note_on_c, 0, 60, 101
2, 32393, Note_on_c, 0, 64, 100
2, 32396, Note_on_c, 0, 36, 96
2, 32440, Control_c, 0, 64, 127
2, 32690, Note_on_c, 0, 65, 98
2, 32696, Note_on_c, 0, 72, 89
2, 32781, Note_on_c, 0, 76, 80
2, 32832, Note_on_c, 0, 67, 0
2, 32836, Note_on_c, 0, 79, 97
2, 32838, Note_on_c, 0, 67, 100
2, 32916, Note_on_c, 0, 84, 88
2, 32970, Note_on_c, 0, 67, 0
2, 32976, Note_on_c, 0, 67, 94
2, 32982, Note_on_c, 0, 88, 96
2, 33044, Note_on_c, 0, 91, 96
2, 33108, Note_on_c, 0, 60, 0
2, 33108, Note_on_c, 0, 64, 0
2, 33112, Note_on_c, 0, 96, 108
2, 33118, Note_on_c, 0, 60, 95
2, 33119, Note_on_c, 0, 64, 99
2, 33415, Note_on_c, 0, 48, 0
2, 33422, Note_on_c, 0, 48, 98
2, 33569, Note_on_c, 0, 60, 0
2, 33573, Note_on_c, 0, 60, 103
2, 33645, Note_on_c, 0, 91, 0
2, 33646, Note_on_c, 0, 48, 0
2, 33646, Control_c, 0, 64, 0
2, 33647, Note_on_c, 0, 84, 0
2, 33647, Note_on_c, 0, 60, 0
2, 33648, Note_on_c, 0, 76, 0
2, 33648, Note_on_c, 0, 96, 0
2, 33648, Note_on_c, 0, 36, 0
2, 33648, Note_on_c, 0, 79, 0
2, 33648, Note_on_c, 0, 72, 0
2, 33648, Note_on_c, 0, 65, 0
2, 33648, Note_on_c, 0, 88, 0
2, 33648, Note_on_c, 0, 67, 0
2, 33648, Note_on_c, 0, 64, 0
2, 33724, Note_on_c, 0, 60, 107
2, 33726, Note_on_c, 0, 45, 101
2, 33726, Note_on_c, 0, 33, 93
2, 33761, Control_c, 0, 64, 127
2, 34033, Note_on_c, 0, 70, 102
2, 34041, Note_on_c, 0, 72, 83
2, 34102, Note_on_c, 0, 76, 82
2, 34152, Note_on_c, 0, 79, 85
2, 34179, Note_on_c, 0, 69, 101
2, 34216, Note_on_c, 0, 84, 95
2, 34275, Note_on_c, 0, 88, 98
2, 34303, Note_on_c, 0, 91, 99
2, 34341, Note_on_c, 0, 96, 103
2, 34460, Note_on_c, 0, 60, 0
2, 34463, Note_on_c, 0, 64, 105
2, 34464, Note_on_c, 0, 57, 97
2, 34466, Note_on_c, 0, 60, 93
2, 34618, Note_on_c, 0, 67, 96
2, 34669, Control_c, 0, 64, 0
2, 34680, Note_on_c, 0, 96, 0
2, 34680, Note_on_c, 0, 91, 0
2, 34681, Note_on_c, 0, 57, 0
2, 34681, Note_on_c, 0, 60, 0
2, 34681, Note_on_c, 0, 76, 0
2, 34682, Note_on_c, 0, 45, 0
2, 34682, Note_on_c, 0, 84, 0
2, 34682, Note_on_c, 0, 69, 0
2, 34682, Note_on_c, 0, 79, 0
2, 34682, Note_on_c, 0, 33, 0
2, 34683, Note_on_c, 0, 70, 0
2, 34683, Note_on_c, 0, 88, 0
2, 34684, Note_on_c, 0, 72, 0
2, 34684, Note_on_c, 0, 64, 0
2, 34687, Note_on_c, 0, 67, 0
2, 34767, Note_on_c, 0, 65, 101
2, 34770, Note_on_c, 0, 50, 103
2, 34771, Note_on_c, 0, 62, 99
2, 34772, Note_on_c, 0, 38, 98
2, 34805, Control_c, 0, 64, 127
2, 35042, Note_on_c, 0, 74, 90
2, 35113, Note_on_c, 0, 77, 71
2, 35159, Note_on_c, 0, 81, 91
2, 35207, Note_on_c, 0, 57, 91
2, 35229, Note_on_c, 0, 86, 79
2, 35273, Note_on_c, 0, 89, 94
2, 35325, Note_on_c, 0, 93, 97
2, 35361, Note_on_c, 0, 98, 109
2, 35512, Note_on_c, 0, 62, 0
2, 35512, Note_on_c, 0, 65, 0
2, 35517, Note_on_c, 0, 65, 89
2, 35521, Note_on_c, 0, 62, 93
2, 35658, Note_on_c, 0, 81, 0
2, 35662, Note_on_c, 0, 81, 102
2, 35663, Note_on_c, 0, 69, 102
2, 35684, Note_on_c, 0, 98, 0
2, 35684, Control_c, 0, 64, 0
2, 35685, Note_on_c, 0, 89, 0
2, 35686, Note_on_c, 0, 57, 0
2, 35686, Note_on_c, 0, 86, 0
2, 35686, Note_on_c, 0, 93, 0
2, 35687, Note_on_c, 0, 62, 0
2, 35689, Note_on_c, 0, 74, 0
2, 35690, Note_on_c, 0, 65, 0
2, 35696, Note_on_c, 0, 50, 0
2, 35704, Note_on_c, 0, 38, 0
2, 35712, Note_on_c, 0, 77, 0
2, 35719, Note_on_c, 0, 81, 0
2, 35735, Note_on_c, 0, 69, 0
2, 35810, Note_on_c, 0, 79, 101
2, 35814, Note_on_c, 0, 67, 93
2, 35840, Note_on_c, 0, 67, 0
2, 35846, Note_on_c, 0, 79, 0
2, 35962, Note_on_c, 0, 46, 100
2, 35964, Note_on_c, 0, 77, 99
2, 35967, Note_on_c, 0, 34, 90
2, 35968, Note_on_c, 0, 65, 100
2, 35968, Note_on_c, 0, 74, 95
2, 35969, Note_on_c, 0, 70, 95
2, 35980, Control_c, 0, 64, 127
2, 36225, Control_c, 0, 64, 0
2, 36249, Note_on_c, 0, 74, 0
2, 36260, Note_on_c, 0, 74, 99
2, 36261, Note_on_c, 0, 62, 81
2, 36284, Note_on_c, 0, 34, 0
2, 36284, Note_on_c, 0, 77, 0
2, 36285, Note_on_c, 0, 46, 0
2, 36285, Note_on_c, 0, 70, 0
2, 36285, Note_on_c, 0, 65, 0
2, 36285, Note_on_c, 0, 74, 0
2, 36293, Note_on_c, 0, 62, 0
2, 36414, Note_on_c, 0, 58, 94
2, 36415, Note_on_c, 0, 74, 102
2, 36419, Note_on_c, 0, 46, 87
2, 36419, Note_on_c, 0, 62, 97
2, 36421, Note_on_c, 0, 70, 91
2, 36422, Note_on_c, 0, 53, 82
2, 36422, Note_on_c, 0, 65, 92
2, 36480, Note_on_c, 0, 53, 0
2, 36503, Note_on_c, 0, 46, 0
2, 36570, Note_on_c, 0, 34, 88
2, 36572, Control_c, 0, 64, 127
2, 36702, Note_on_c, 0, 46, 83
2, 36856, Note_on_c, 0, 46, 0
2, 36862, Note_on_c, 0, 46, 80
2, 36864, Note_on_c, 0, 62, 0
2, 36868, Note_on_c, 0, 34, 0
2, 36871, Note_on_c, 0, 74, 0
2, 36875, Note_on_c, 0, 62, 93
2, 36878, Note_on_c, 0, 74, 101
2, 36994, Note_on_c, 0, 58, 0
2, 37002, Note_on_c, 0, 58, 93
2, 37013, Note_on_c, 0, 62, 0
2, 37013, Note_on_c, 0, 70, 0
2, 37014, Note_on_c, 0, 65, 0
2, 37014, Note_on_c, 0, 74, 0
2, 37016, Note_on_c, 0, 50, 85
2, 37019, Control_c, 0, 64, 0
2, 37020, Note_on_c, 0, 53, 85
2, 37021, Note_on_c, 0, 81, 105
2, 37027, Note_on_c, 0, 69, 100
2, 37029, Note_on_c, 0, 58, 0
2, 37032, Note_on_c, 0, 46, 0
2, 37052, Note_on_c, 0, 53, 0
2, 37053, Note_on_c, 0, 50, 0
2, 37067, Note_on_c, 0, 69, 0
2, 37067, Note_on_c, 0, 81, 0
2, 37173, Note_on_c, 0, 79, 104
2, 37174, Note_on_c, 0, 48, 97
2, 37176, Note_on_c, 0, 72, 100
2, 37176, Note_on_c, 0, 67, 97
2, 37179, Note_on_c, 0, 36, 93
2, 37181, Note_on_c, 0, 76, 99
2, 37209, Control_c, 0, 64, 127
2, 37455, Note_on_c, 0, 36, 0
2, 37459, Note_on_c, 0, 36, 80
2, 37466, Note_on_c, 0, 81, 101
2, 37468, Note_on_c, 0, 69, 98
2, 37577, Note_on_c, 0, 48, 0
2, 37579, Note_on_c, 0, 67, 0
2, 37579, Note_on_c, 0, 81, 0
2, 37580, Note_on_c, 0, 76, 0
2, 37580, Note_on_c, 0, 72, 0
2, 37581, Note_on_c, 0, 79, 0
2, 37581, Note_on_c, 0, 69, 0
2, 37581, Control_c, 0, 64, 0
2, 37601, Note_on_c, 0, 36, 0
2, 37623, Note_on_c, 0, 60, 90
2, 37626, Note_on_c, 0, 72, 93
2, 37627, Note_on_c, 0, 64, 102
2, 37627, Note_on_c, 0, 76, 106
2, 37628, Note_on_c, 0, 67, 98
2, 37628, Note_on_c, 0, 55, 89
2, 37629, Note_on_c, 0, 52, 79
2, 37661, Note_on_c, 0, 60, 0
2, 37762, Note_on_c, 0, 52, 0
2, 37782, Note_on_c, 0, 36, 87
2, 37824, Control_c, 0, 64, 127
2, 37927, Note_on_c, 0, 48, 82
2, 38062, Note_on_c, 0, 36, 0
2, 38070, Note_on_c, 0, 36, 83
2, 38208, Note_on_c, 0, 72, 0
2, 38215, Note_on_c, 0, 55, 0
2, 38215, Note_on_c, 0, 64, 0
2, 38215, Note_on_c, 0, 67, 0
2, 38217, Note_on_c, 0, 72, 103
2, 38219, Note_on_c, 0, 60, 99
2, 38220, Note_on_c, 0, 64, 86
2, 38223, Note_on_c, 0, 55, 96
2, 38226, Note_on_c, 0, 67, 87
2, 38227, Note_on_c, 0, 52, 90
2, 38338, Note_on_c, 0, 48, 0
2, 38348, Note_on_c, 0, 48, 89
2, 38361, Note_on_c, 0, 72, 0
2, 38372, Note_on_c, 0, 72, 95
2, 38397, Control_c, 0, 64, 0
2, 38402, Note_on_c, 0, 67, 0
2, 38403, Note_on_c, 0, 60, 0
2, 38404, Note_on_c, 0, 52, 0
2, 38404, Note_on_c, 0, 64, 0
2, 38404, Note_on_c, 0, 55, 0
2, 38406, Note_on_c, 0, 48, 0
2, 38408, Note_on_c, 0, 36, 0
2, 38410, Note_on_c, 0, 76, 0
2, 38438, Note_on_c, 0, 72, 0
2, 38504, Note_on_c, 0, 33, 95
2, 38504, Note_on_c, 0, 45, 102
2, 38505, Note_on_c, 0, 81, 105
2, 38510, Note_on_c, 0, 72, 106
2, 38511, Note_on_c, 0, 69, 98
2, 38515, Note_on_c, 0, 76, 94
2, 38522, Control_c, 0, 64, 127
2, 38797, Control_c, 0, 64, 0
2, 38799, Note_on_c, 0, 72, 0
2, 38799, Note_on_c, 0, 81, 0
2, 38804, Note_on_c, 0, 55, 98
2, 38807, Note_on_c, 0, 33, 0
2, 38807, Note_on_c, 0, 69, 0
2, 38807, Note_on_c, 0, 81, 99
2, 38810, Note_on_c, 0, 52, 82
2, 38810, Note_on_c, 0, 72, 96
2, 38811, Note_on_c, 0, 69, 95
2, 38819, Note_on_c, 0, 76, 0
2, 38830, Note_on_c, 0, 45, 0
2, 38846, Note_on_c, 0, 81, 0
2, 38846, Note_on_c, 0, 55, 0
2, 38860, Note_on_c, 0, 52, 0
2, 38860, Note_on_c, 0, 69, 0
2, 38860, Note_on_c, 0, 72, 0
2, 38955, Note_on_c, 0, 79, 107
2, 38957, Note_on_c, 0, 72, 104
2, 38957, Note_on_c, 0, 76, 94
2, 38960, Note_on_c, 0, 67, 97
2, 38964, Note_on_c, 0, 33, 88
2, 38999, Control_c, 0, 64, 127
2, 39101, Note_on_c, 0, 45, 91
2, 39229, Note_on_c, 0, 33, 0
2, 39235, Note_on_c, 0, 33, 92
2, 39244, Note_on_c, 0, 72, 0
2, 39249, Note_on_c, 0, 72, 108
2, 39254, Note_on_c, 0, 60, 100
2, 39403, Note_on_c, 0, 55, 98
2, 39407, Note_on_c, 0, 52, 91
2, 39537, Note_on_c, 0, 74, 108
2, 39595, Control_c, 0, 64, 0
2, 39600, Note_on_c, 0, 79, 0
2, 39600, Note_on_c, 0, 67, 0
2, 39601, Note_on_c, 0, 33, 0
2, 39601, Note_on_c, 0, 60, 0
2, 39601, Note_on_c, 0, 52, 0
2, 39601, Note_on_c, 0, 72, 0
2, 39602, Note_on_c, 0, 76, 0
2, 39602, Note_on_c, 0, 45, 0
2, 39602, Note_on_c, 0, 55, 0
2, 39692, Note_on_c, 0, 50, 102
2, 39694, Note_on_c, 0, 38, 98
2, 39694, Note_on_c, 0, 69, 94
2, 39697, Note_on_c, 0, 45, 94
2, 39697, Note_on_c, 0, 65, 89
2, 39699, Note_on_c, 0, 62, 90
2, 39720, Control_c, 0, 64, 127
2, 39820, Note_on_c, 0, 65, 0
2, 39828, Note_on_c, 0, 69, 0
2, 39828, Note_on_c, 0, 65, 87
2, 39832, Note_on_c, 0, 69, 80
2, 39850, Control_c, 0, 64, 0
2, 39856, Note_on_c, 0, 45, 0
2, 39862, Note_on_c, 0, 38, 0
2, 39862, Note_on_c, 0, 50, 0
2, 39863, Note_on_c, 0, 74, 0
2, 39865, Note_on_c, 0, 62, 0
2, 39905, Note_on_c, 0, 65, 0
2, 39905, Note_on_c, 0, 69, 0
2, 39993, Note_on_c, 0, 38, 97
2, 39993, Note_on_c, 0, 26, 88
2, 39993, Note_on_c, 0, 69, 89
2, 39994, Note_on_c, 0, 65, 94
2, 40000, Note_on_c, 0, 62, 91
2, 40035, Control_c, 0, 64, 127
2, 40235, Control_c, 0, 64, 0
2, 40246, Note_on_c, 0, 65, 0
2, 40258, Note_on_c, 0, 26, 0
2, 40260, Note_on_c, 0, 62, 0
2, 40262, Note_on_c, 0, 38, 0
2, 40289, Note_on_c, 0, 69, 0
2, 40299, Note_on_c, 0, 69, 107
2, 40445, Note_on_c, 0, 65, 96
2, 40446, Note_on_c, 0, 48, 104
2, 40446, Note_on_c, 0, 36, 100
2, 40483, Note_on_c, 0, 48, 0
2, 40486, Note_on_c, 0, 36, 0
2, 40489, Note_on_c, 0, 65, 0
2, 40490, Note_on_c, 0, 69, 0
2, 40589, Note_on_c, 0, 67, 101
2, 40736, Note_on_c, 0, 65, 102
2, 40737, Note_on_c, 0, 62, 105
2, 40738, Note_on_c, 0, 31, 101
2, 40738, Note_on_c, 0, 43, 104
2, 40788, Control_c, 0, 64, 127
2, 41042, Note_on_c, 0, 55, 99
2, 41180, Note_on_c, 0, 62, 0
2, 41187, Note_on_c, 0, 65, 0
2, 41190, Note_on_c, 0, 62, 100
2, 41190, Note_on_c, 0, 74, 99
2, 41191, Note_on_c, 0, 58, 100
2, 41195, Note_on_c, 0, 67, 0
2, 41196, Note_on_c, 0, 65, 86
2, 41282, Note_on_c, 0, 82, 97
2, 41345, Note_on_c, 0, 86, 101
2, 41403, Note_on_c, 0, 89, 98
2, 41448, Note_on_c, 0, 94, 101
2, 41480, Note_on_c, 0, 98, 107
2, 41487, Note_on_c, 0, 70, 110
2, 41631, Note_on_c, 0, 69, 100
2, 41756, Note_on_c, 0, 55, 0
2, 41764, Note_on_c, 0, 55, 96
2, 41823, Note_on_c, 0, 86, 0
2, 41823, Note_on_c, 0, 94, 0
2, 41823, Note_on_c, 0, 82, 0
2, 41823, Note_on_c, 0, 98, 0
2, 41824, Note_on_c, 0, 62, 0
2, 41824, Note_on_c, 0, 74, 0
2, 41824, Note_on_c, 0, 58, 0
2, 41824, Note_on_c, 0, 65, 0
2, 41826, Note_on_c, 0, 43, 0
2, 41826, Control_c, 0, 64, 0
2, 41826, Note_on_c, 0, 89, 0
2, 41826, Note_on_c, 0, 70, 0
2, 41826, Note_on_c, 0, 55, 0
2, 41828, Note_on_c, 0, 69, 0
2, 41840, Note_on_c, 0, 31, 0
2, 41918, Note_on_c, 0, 67, 104
2, 41919, Note_on_c, 0, 60, 101
2, 41919, Note_on_c, 0, 48, 105
2, 41920, Note_on_c, 0, 64, 100
2, 41922, Note_on_c, 0, 36, 101
2, 41986, Control_c, 0, 64, 127
2, 42215, Note_on_c, 0, 65, 101
2, 42250, Note_on_c, 0, 72, 84
2, 42309, Note_on_c, 0, 76, 88
2, 42362, Note_on_c, 0, 67, 0
2, 42367, Note_on_c, 0, 67, 96
2, 42367, Note_on_c, 0, 79, 97
2, 42441, Note_on_c, 0, 84, 93
2, 42493, Note_on_c, 0, 67, 0
2, 42498, Note_on_c, 0, 88, 100
2, 42503, Note_on_c, 0, 67, 97
2, 42570, Note_on_c, 0, 91, 101
2, 42631, Note_on_c, 0, 60, 0
2, 42639, Note_on_c, 0, 64, 0
2, 42642, Note_on_c, 0, 60, 97
2, 42642, Note_on_c, 0, 96, 108
2, 42643, Note_on_c, 0, 64, 101
2, 42931, Note_on_c, 0, 48, 0
2, 42939, Note_on_c, 0, 48, 97
2, 43084, Note_on_c, 0, 60, 0
2, 43089, Note_on_c, 0, 60, 101
2, 43136, Note_on_c, 0, 60, 0
2, 43137, Control_c, 0, 64, 0
2, 43137, Note_on_c, 0, 96, 0
2, 43137, Note_on_c, 0, 48, 0
2, 43138, Note_on_c, 0, 84, 0
2, 43138, Note_on_c, 0, 64, 0
2, 43138, Note_on_c, 0, 91, 0
2, 43139, Note_on_c, 0, 79, 0
2, 43139, Note_on_c, 0, 65, 0
2, 43139, Note_on_c, 0, 76, 0
2, 43140, Note_on_c, 0, 72, 0
2, 43140, Note_on_c, 0, 88, 0
2, 43153, Note_on_c, 0, 36, 0
2, 43169, Note_on_c, 0, 67, 0
2, 43232, Note_on_c, 0, 60, 104
2, 43233, Note_on_c, 0, 45, 106
2, 43234, Note_on_c, 0, 33, 100
2, 43284, Control_c, 0, 64, 127
2, 43530, Note_on_c, 0, 70, 101
2, 43555, Note_on_c, 0, 72, 87
2, 43585, Note_on_c, 0, 76, 74
2, 43630, Note_on_c, 0, 79, 96
2, 43682, Note_on_c, 0, 84, 95
2, 43686, Note_on_c, 0, 69, 104
2, 43728, Note_on_c, 0, 88, 100
2, 43771, Note_on_c, 0, 91, 99
2, 43823, Note_on_c, 0, 96, 105
2, 43960, Note_on_c, 0, 60, 0
2, 43970, Note_on_c, 0, 64, 104
2, 43970, Note_on_c, 0, 60, 99
2, 43973, Note_on_c, 0, 57, 97
2, 44117, Note_on_c, 0, 67, 96
2, 44265, Control_c, 0, 64, 0
2, 44274, Note_on_c, 0, 50, 104
2, 44275, Note_on_c, 0, 33, 0
2, 44276, Note_on_c, 0, 96, 0
2, 44277, Note_on_c, 0, 60, 0
2, 44277, Note_on_c, 0, 38, 100
2, 44278, Note_on_c, 0, 84, 0
2, 44278, Note_on_c, 0, 62, 101
2, 44278, Note_on_c, 0, 65, 102
2, 44278, Note_on_c, 0, 91, 0
2, 44278, Note_on_c, 0, 88, 0
2, 44279, Note_on_c, 0, 70, 0
2, 44279, Note_on_c, 0, 79, 0
2, 44279, Note_on_c, 0, 64, 0
2, 44279, Note_on_c, 0, 72, 0
2, 44279, Note_on_c, 0, 76, 0
2, 44279, Note_on_c, 0, 45, 0
2, 44279, Note_on_c, 0, 67, 0
2, 44280, Note_on_c, 0, 57, 0
2, 44280, Note_on_c, 0, 69, 0
2, 44382, Control_c, 0, 64, 127
2, 44569, Note_on_c, 0, 74, 92
2, 44610, Note_on_c, 0, 77, 83
2, 44662, Note_on_c, 0, 81, 88
2, 44697, Note_on_c, 0, 50, 0
2, 44706, Note_on_c, 0, 50, 91
2, 44710, Note_on_c, 0, 86, 96
2, 44766, Note_on_c, 0, 89, 106
2, 44811, Note_on_c, 0, 93, 97
2, 44854, Note_on_c, 0, 98, 111
2, 44997, Note_on_c, 0, 62, 0
2, 45008, Note_on_c, 0, 62, 95
2, 45008, Note_on_c, 0, 53, 90
2, 45008, Note_on_c, 0, 57, 96
2, 45143, Note_on_c, 0, 62, 0
2, 45143, Note_on_c, 0, 74, 0
2, 45152, Note_on_c, 0, 74, 108
2, 45153, Note_on_c, 0, 62, 99
2, 45163, Control_c, 0, 64, 0
2, 45169, Note_on_c, 0, 89, 0
2, 45170, Note_on_c, 0, 98, 0
2, 45170, Note_on_c, 0, 86, 0
2, 45170, Note_on_c, 0, 77, 0
2, 45170, Note_on_c, 0, 65, 0
2, 45171, Note_on_c, 0, 93, 0
2, 45172, Note_on_c, 0, 81, 0
2, 45172, Note_on_c, 0, 53, 0
2, 45172, Note_on_c, 0, 50, 0
2, 45172, Note_on_c, 0, 57, 0
2, 45181, Note_on_c, 0, 38, 0
2, 45204, Note_on_c, 0, 62, 0
2, 45227, Note_on_c, 0, 74, 0
2, 45299, Note_on_c, 0, 76, 102
2, 45300, Note_on_c, 0, 64, 97
2, 45334, Note_on_c, 0, 64, 0
2, 45335, Note_on_c, 0, 76, 0
2, 45451, Note_on_c, 0, 77, 104
2, 45452, Note_on_c, 0, 46, 104
2, 45453, Note_on_c, 0, 65, 101
2, 45453, Note_on_c, 0, 34, 96
2, 45454, Note_on_c, 0, 74, 94
2, 45455, Note_on_c, 0, 70, 90
2, 45734, Note_on_c, 0, 34, 0
2, 45742, Control_c, 0, 64, 127
2, 45745, Note_on_c, 0, 34, 75
2, 45892, Note_on_c, 0, 79, 102
2, 45893, Note_on_c, 0, 58, 96
2, 45898, Note_on_c, 0, 67, 98
2, 45899, Note_on_c, 0, 53, 81
2, 45902, Control_c, 0, 64, 0
2, 45903, Note_on_c, 0, 50, 84
2, 45906, Note_on_c, 0, 74, 0
2, 45913, Note_on_c, 0, 77, 0
2, 45920, Note_on_c, 0, 34, 0
2, 45923, Note_on_c, 0, 70, 0
2, 45924, Note_on_c, 0, 46, 0
2, 45925, Note_on_c, 0, 65, 0
2, 45930, Note_on_c, 0, 58, 0
2, 45937, Note_on_c, 0, 67, 0
2, 45942, Note_on_c, 0, 50, 0
2, 45943, Note_on_c, 0, 79, 0
2, 45944, Note_on_c, 0, 53, 0
2, 46046, Note_on_c, 0, 77, 105
2, 46051, Note_on_c, 0, 65, 97
2, 46052, Note_on_c, 0, 70, 97
2, 46059, Note_on_c, 0, 34, 92
2, 46087, Control_c, 0, 64, 127
2, 46184, Note_on_c, 0, 46, 91
2, 46341, Note_on_c, 0, 34, 0
2, 46341, Note_on_c, 0, 46, 0
2, 46345, Note_on_c, 0, 34, 84
2, 46347, Note_on_c, 0, 46, 83
2, 46350, Note_on_c, 0, 64, 92
2, 46479, Note_on_c, 0, 65, 0
2, 46489, Note_on_c, 0, 65, 94
2, 46490, Note_on_c, 0, 58, 94
2, 46492, Note_on_c, 0, 53, 83
2, 46497, Note_on_c, 0, 50, 88
2, 46509, Control_c, 0, 64, 0
2, 46534, Note_on_c, 0, 64, 0
2, 46535, Note_on_c, 0, 34, 0
2, 46536, Note_on_c, 0, 46, 0
2, 46537, Note_on_c, 0, 70, 0
2, 46537, Note_on_c, 0, 77, 0
2, 46539, Note_on_c, 0, 53, 0
2, 46539, Note_on_c, 0, 65, 0
2, 46540, Note_on_c, 0, 58, 0
2, 46543, Note_on_c, 0, 50, 0
2, 46646, Note_on_c, 0, 67, 103
2, 46652, Note_on_c, 0, 64, 98
2, 46657, Note_on_c, 0, 48, 98
2, 46659, Note_on_c, 0, 36, 96
2, 46755, Control_c, 0, 64, 127
2, 46924, Note_on_c, 0, 36, 0
2, 46934, Note_on_c, 0, 36, 87
2, 47095, Note_on_c, 0, 60, 90
2, 47096, Note_on_c, 0, 69, 106
2, 47096, Note_on_c, 0, 52, 85
2, 47097, Note_on_c, 0, 55, 83
2, 47120, Control_c, 0, 64, 0
2, 47121, Note_on_c, 0, 48, 0
2, 47124, Note_on_c, 0, 64, 0
2, 47126, Note_on_c, 0, 67, 0
2, 47131, Note_on_c, 0, 60, 0
2, 47139, Note_on_c, 0, 36, 0
2, 47145, Note_on_c, 0, 69, 0
2, 47147, Note_on_c, 0, 55, 0
2, 47162, Note_on_c, 0, 52, 0
2, 47251, Note_on_c, 0, 64, 100
2, 47251, Note_on_c, 0, 67, 104
2, 47259, Note_on_c, 0, 36, 89
2, 47293, Control_c, 0, 64, 127
2, 47388, Note_on_c, 0, 48, 94
2, 47531, Note_on_c, 0, 36, 0
2, 47535, Note_on_c, 0, 36, 93
2, 47689, Note_on_c, 0, 82, 107
2, 47689, Note_on_c, 0, 70, 104
2, 47693, Note_on_c, 0, 60, 96
2, 47694, Note_on_c, 0, 52, 97
2, 47695, Note_on_c, 0, 55, 99
2, 47837, Note_on_c, 0, 81, 108
2, 47840, Note_on_c, 0, 69, 105
2, 47842, Note_on_c, 0, 76, 104
2, 47842, Note_on_c, 0, 72, 106
2, 47863, Note_on_c, 0, 70, 0
2, 47865, Note_on_c, 0, 64, 0
2, 47865, Note_on_c, 0, 48, 0
2, 47866, Note_on_c, 0, 52, 0
2, 47866, Note_on_c, 0, 60, 0
2, 47868, Note_on_c, 0, 67, 0
2, 47871, Note_on_c, 0, 55, 0
2, 47872, Note_on_c, 0, 36, 0
2, 47874, Control_c, 0, 64, 0
2, 47900, Note_on_c, 0, 82, 0
2, 47987, Note_on_c, 0, 45, 108
2, 47987, Note_on_c, 0, 33, 96
2, 48107, Control_c, 0, 64, 127
2, 48135, Note_on_c, 0, 79, 100
2, 48135, Note_on_c, 0, 67, 93
2, 48167, Note_on_c, 0, 33, 0
2, 48167, Note_on_c, 0, 45, 0
2, 48170, Control_c, 0, 64, 0
2, 48170, Note_on_c, 0, 76, 0
2, 48179, Note_on_c, 0, 79, 0
2, 48192, Note_on_c, 0, 69, 0
2, 48192, Note_on_c, 0, 72, 0
2, 48199, Note_on_c, 0, 81, 0
2, 48207, Note_on_c, 0, 67, 0
2, 48285, Note_on_c, 0, 81, 105
2, 48286, Note_on_c, 0, 33, 89
2, 48286, Note_on_c, 0, 45, 85
2, 48287, Note_on_c, 0, 69, 102
2, 48313, Note_on_c, 0, 69, 0
2, 48318, Note_on_c, 0, 45, 0
2, 48319, Note_on_c, 0, 33, 0
2, 48320, Note_on_c, 0, 81, 0
2, 48435, Note_on_c, 0, 70, 107
2, 48435, Note_on_c, 0, 74, 101
2, 48437, Note_on_c, 0, 82, 108
2, 48439, Note_on_c, 0, 46, 108
2, 48440, Note_on_c, 0, 34, 103
2, 48483, Control_c, 0, 64, 127
2, 48729, Note_on_c, 0, 34, 0
2, 48740, Note_on_c, 0, 34, 94
2, 48875, Note_on_c, 0, 46, 0
2, 48881, Note_on_c, 0, 46, 96
2, 48882, Note_on_c, 0, 58, 92
2, 48890, Note_on_c, 0, 58, 0
2, 48898, Control_c, 0, 64, 0
2, 48899, Note_on_c, 0, 67, 102
2, 48952, Note_on_c, 0, 82, 0
2, 48952, Note_on_c, 0, 74, 0
2, 48952, Note_on_c, 0, 70, 0
2, 48955, Note_on_c, 0, 46, 0
2, 48967, Note_on_c, 0, 34, 0
2, 49036, Note_on_c, 0, 67, 0
2, 49046, Note_on_c, 0, 70, 108
2, 49191, Note_on_c, 0, 45, 107
2, 49192, Note_on_c, 0, 33, 96
2, 49221, Control_c, 0, 64, 127
2, 49337, Note_on_c, 0, 72, 110
2, 49466, Note_on_c, 0, 33, 0
2, 49466, Note_on_c, 0, 45, 0
2, 49471, Note_on_c, 0, 33, 82
2, 49472, Note_on_c, 0, 45, 81
2, 49472, Note_on_c, 0, 70, 0
2, 49476, Control_c, 0, 64, 0
2, 49477, Note_on_c, 0, 72, 0
2, 49512, Note_on_c, 0, 45, 0
2, 49520, Note_on_c, 0, 33, 0
2, 49639, Note_on_c, 0, 69, 109
2, 49648, Note_on_c, 0, 48, 106
2, 49652, Note_on_c, 0, 36, 100
2, 49697, Control_c, 0, 64, 127
2, 49935, Note_on_c, 0, 36, 0
2, 49939, Note_on_c, 0, 67, 101
2, 49940, Note_on_c, 0, 36, 93
2, 50021, Note_on_c, 0, 69, 0
2, 50042, Note_on_c, 0, 48, 0
2, 50043, Control_c, 0, 64, 0
2, 50093, Note_on_c, 0, 69, 109
2, 50096, Note_on_c, 0, 36, 0
2, 50101, Note_on_c, 0, 48, 99
2, 50107, Note_on_c, 0, 36, 87
2, 50135, Note_on_c, 0, 67, 0
2, 50406, Note_on_c, 0, 45, 109
2, 50406, Note_on_c, 0, 33, 96
2, 50411, Control_c, 0, 64, 127
2, 50629, Note_on_c, 0, 36, 0
2, 50629, Note_on_c, 0, 48, 0
2, 50630, Note_on_c, 0, 33, 0
2, 50631, Note_on_c, 0, 45, 0
2, 50632, Note_on_c, 0, 69, 0
2, 50636, Control_c, 0, 64, 0
2, 50705, Note_on_c, 0, 81, 108
2, 50706, Note_on_c, 0, 69, 105
2, 50739, Note_on_c, 0, 69, 0
2, 50744, Note_on_c, 0, 81, 0
2, 50848, Note_on_c, 0, 81, 107
2, 50850, Note_on_c, 0, 69, 107
2, 50956, Note_on_c, 0, 69, 0
2, 50990, Note_on_c, 0, 80, 105
2, 50990, Note_on_c, 0, 68, 108
2, 51002, Note_on_c, 0, 81, 0
2, 51044, Note_on_c, 0, 68, 0
2, 51058, Note_on_c, 0, 80, 0
2, 51143, Note_on_c, 0, 81, 109
2, 51143, Note_on_c, 0, 69, 107
2, 51256, Note_on_c, 0, 69, 0
2, 51275, Note_on_c, 0, 40, 93
2, 51278, Note_on_c, 0, 28, 92
2, 51282, Note_on_c, 0, 83, 107
2, 51283, Note_on_c, 0, 71, 108
2, 51302, Note_on_c, 0, 28, 0
2, 51317, Note_on_c, 0, 81, 0
2, 51317, Control_c, 0, 64, 127
2, 51338, Note_on_c, 0, 35, 86
2, 51519, Note_on_c, 0, 71, 0
2, 51520, Note_on_c, 0, 83, 0
2, 51520, Note_on_c, 0, 35, 0
2, 51521, Control_c, 0, 64, 0
2, 51521, Note_on_c, 0, 40, 0
2, 51571, Note_on_c, 0, 72, 109
2, 51571, Note_on_c, 0, 76, 100
2, 51571, Note_on_c, 0, 84, 107
2, 51573, Note_on_c, 0, 45, 108
2, 51574, Note_on_c, 0, 81, 100
2, 51574, Note_on_c, 0, 33, 96
2, 51709, Note_on_c, 0, 45, 0
2, 51714, Note_on_c, 0, 45, 82
2, 51716, Note_on_c, 0, 71, 103
2, 51717, Note_on_c, 0, 83, 105
2, 51745, Note_on_c, 0, 72, 0
2, 51748, Note_on_c, 0, 84, 0
2, 51750, Note_on_c, 0, 81, 0
2, 51793, Note_on_c, 0, 71, 0
2, 51809, Note_on_c, 0, 83, 0
2, 51855, Note_on_c, 0, 33, 0
2, 51855, Note_on_c, 0, 45, 0
2, 51864, Note_on_c, 0, 45, 92
2, 51864, Note_on_c, 0, 79, 108
2, 51866, Note_on_c, 0, 33, 90
2, 51866, Note_on_c, 0, 67, 101
2, 51893, Note_on_c, 0, 67, 0
2, 51899, Note_on_c, 0, 45, 0
2, 51901, Note_on_c, 0, 33, 0
2, 51903, Note_on_c, 0, 79, 0
2, 51909, Note_on_c, 0, 76, 0
2, 52019, Note_on_c, 0, 79, 108
2, 52021, Note_on_c, 0, 71, 104
2, 52021, Note_on_c, 0, 31, 101
2, 52021, Note_on_c, 0, 43, 104
2, 52022, Note_on_c, 0, 67, 101
2, 52139, Control_c, 0, 64, 127
2, 52208, Note_on_c, 0, 43, 0
2, 52218, Note_on_c, 0, 43, 80
2, 52305, Note_on_c, 0, 79, 0
2, 52306, Note_on_c, 0, 71, 0
2, 52307, Note_on_c, 0, 67, 0
2, 52308, Note_on_c, 0, 31, 0
2, 52308, Note_on_c, 0, 43, 0
2, 52314, Control_c, 0, 64, 0
2, 52314, Note_on_c, 0, 64, 105
2, 52317, Note_on_c, 0, 43, 100
2, 52318, Note_on_c, 0, 31, 94
2, 52318, Note_on_c, 0, 76, 105
2, 52365, Note_on_c, 0, 64, 0
2, 52367, Note_on_c, 0, 76, 0
2, 52367, Note_on_c, 0, 43, 0
2, 52423, Note_on_c, 0, 31, 0
2, 52468, Note_on_c, 0, 71, 105
2, 52469, Note_on_c, 0, 83, 109
2, 52472, Note_on_c, 0, 43, 72
2, 52492, Note_on_c, 0, 71, 0
2, 52515, Note_on_c, 0, 43, 0
2, 52577, Note_on_c, 0, 83, 0
2, 52617, Note_on_c, 0, 41, 108
2, 52621, Note_on_c, 0, 29, 100
2, 52624, Note_on_c, 0, 81, 106
2, 52625, Note_on_c, 0, 69, 107
2, 52627, Note_on_c, 0, 72, 105
2, 52784, Control_c, 0, 64, 127
2, 52922, Note_on_c, 0, 41, 0
2, 52933, Note_on_c, 0, 41, 78
2, 53076, Note_on_c, 0, 48, 90
2, 53250, Note_on_c, 0, 57, 105
2, 53251, Note_on_c, 0, 52, 99
2, 53537, Note_on_c, 0, 41, 0
2, 53543, Note_on_c, 0, 41, 89
2, 53544, Note_on_c, 0, 72, 0
2, 53552, Note_on_c, 0, 72, 99
2, 53553, Note_on_c, 0, 76, 106
2, 53683, Note_on_c, 0, 48, 0
2, 53690, Control_c, 0, 64, 0
2, 53694, Note_on_c, 0, 48, 94
2, 53696, Note_on_c, 0, 79, 107
2, 53739, Note_on_c, 0, 76, 0
2, 53739, Note_on_c, 0, 72, 0
2, 53740, Note_on_c, 0, 52, 0
2, 53740, Note_on_c, 0, 69, 0
2, 53740, Note_on_c, 0, 57, 0
2, 53740, Note_on_c, 0, 41, 0
2, 53741, Note_on_c, 0, 81, 0
2, 53744, Note_on_c, 0, 29, 0
2, 53767, Note_on_c, 0, 48, 0
2, 53767, Note_on_c, 0, 79, 0
2, 53853, Note_on_c, 0, 77, 103
2, 53853, Note_on_c, 0, 69, 104
2, 53854, Note_on_c, 0, 74, 104
2, 53855, Note_on_c, 0, 50, 107
2, 53858, Note_on_c, 0, 38, 99
2, 53890, Control_c, 0, 64, 127
2, 54128, Note_on_c, 0, 38, 0
2, 54128, Note_on_c, 0, 50, 0
2, 54138, Note_on_c, 0, 50, 98
2, 54139, Note_on_c, 0, 38, 83
2, 54281, Note_on_c, 0, 57, 103
2, 54292, Note_on_c, 0, 53, 92
2, 54300, Note_on_c, 0, 81, 102
2, 54305, Note_on_c, 0, 69, 0
2, 54310, Note_on_c, 0, 69, 65
2, 54381, Control_c, 0, 64, 0
2, 54384, Note_on_c, 0, 69, 0
2, 54384, Note_on_c, 0, 53, 0
2, 54385, Note_on_c, 0, 57, 0
2, 54385, Note_on_c, 0, 77, 0
2, 54385, Note_on_c, 0, 50, 0
2, 54385, Note_on_c, 0, 81, 0
2, 54385, Note_on_c, 0, 74, 0
2, 54405, Note_on_c, 0, 38, 0
2, 54446, Note_on_c, 0, 79, 107
2, 54452, Note_on_c, 0, 71, 98
2, 54452, Note_on_c, 0, 74, 99
2, 54453, Note_on_c, 0, 31, 100
2, 54453, Note_on_c, 0, 43, 105
2, 54454, Note_on_c, 0, 67, 98
2, 54497, Control_c, 0, 64, 127
2, 54743, Note_on_c, 0, 43, 0
2, 54743, Note_on_c, 0, 74, 0
2, 54748, Note_on_c, 0, 74, 103
2, 54751, Note_on_c, 0, 43, 97
2, 54752, Note_on_c, 0, 62, 101
2, 54888, Note_on_c, 0, 43, 0
2, 54890, Note_on_c, 0, 55, 95
2, 54894, Note_on_c, 0, 43, 90
2, 54894, Note_on_c, 0, 50, 80
2, 54898, Control_c, 0, 64, 0
2, 54927, Note_on_c, 0, 31, 0
2, 54928, Note_on_c, 0, 71, 0
2, 54928, Note_on_c, 0, 79, 0
2, 54931, Note_on_c, 0, 67, 0
2, 54932, Note_on_c, 0, 55, 0
2, 54936, Note_on_c, 0, 74, 0
2, 54937, Note_on_c, 0, 62, 0
2, 54938, Note_on_c, 0, 50, 0
2, 54973, Note_on_c, 0, 43, 0
2, 55044, Note_on_c, 0, 74, 110
2, 55045, Note_on_c, 0, 62, 105
2, 55048, Note_on_c, 0, 48, 104
2, 55053, Note_on_c, 0, 67, 98
2, 55053, Note_on_c, 0, 36, 100
2, 55073, Control_c, 0, 64, 127
2, 55349, Note_on_c, 0, 76, 106
2, 55349, Note_on_c, 0, 48, 0
2, 55352, Note_on_c, 0, 64, 103
2, 55353, Note_on_c, 0, 60, 83
2, 55355, Note_on_c, 0, 48, 78
2, 55359, Note_on_c, 0, 55, 75
2, 55488, Note_on_c, 0, 64, 0
2, 55495, Note_on_c, 0, 55, 0
2, 55495, Note_on_c, 0, 67, 0
2, 55495, Note_on_c, 0, 76, 0
2, 55497, Note_on_c, 0, 52, 92
2, 55499, Note_on_c, 0, 64, 108
2, 55499, Note_on_c, 0, 76, 107
2, 55500, Note_on_c, 0, 67, 101
2, 55501, Note_on_c, 0, 55, 89
2, 55552, Control_c, 0, 64, 0
2, 55553, Note_on_c, 0, 36, 0
2, 55554, Note_on_c, 0, 55, 0
2, 55554, Note_on_c, 0, 74, 0
2, 55555, Note_on_c, 0, 62, 0
2, 55555, Note_on_c, 0, 48, 0
2, 55555, Note_on_c, 0, 60, 0
2, 55560, Note_on_c, 0, 52, 0
2, 55652, Note_on_c, 0, 40, 101
2, 55652, Note_on_c, 0, 28, 99
2, 55695, Control_c, 0, 64, 127
2, 55941, Note_on_c, 0, 28, 0
2, 55941, Note_on_c, 0, 40, 0
2, 55951, Note_on_c, 0, 40, 91
2, 55952, Note_on_c, 0, 28, 84
2, 56098, Note_on_c, 0, 47, 96
2, 56101, Note_on_c, 0, 59, 102
2, 56101, Note_on_c, 0, 56, 91
2, 56101, Note_on_c, 0, 52, 92
2, 56248, Note_on_c, 0, 76, 0
2, 56256, Note_on_c, 0, 40, 0
2, 56258, Note_on_c, 0, 76, 106
2, 56262, Note_on_c, 0, 40, 69
2, 56315, Control_c, 0, 64, 0
2, 56320, Note_on_c, 0, 40, 0
2, 56320, Note_on_c, 0, 76, 0
2, 56320, Note_on_c, 0, 59, 0
2, 56320, Note_on_c, 0, 52, 0
2, 56320, Note_on_c, 0, 56, 0
2, 56321, Note_on_c, 0, 47, 0
2, 56332, Note_on_c, 0, 28, 0
2, 56332, Note_on_c, 0, 64, 0
2, 56340, Note_on_c, 0, 67, 0
2, 56391, Note_on_c, 0, 45, 108
2, 56395, Note_on_c, 0, 33, 93
2, 56404, Note_on_c, 0, 84, 102
2, 56405, Note_on_c, 0, 76, 99
2, 56405, Note_on_c, 0, 81, 100
2, 56408, Note_on_c, 0, 72, 108
2, 56424, Control_c, 0, 64, 127
2, 56540, Note_on_c, 0, 33, 0
2, 56540, Note_on_c, 0, 45, 0
2, 56548, Note_on_c, 0, 33, 88
2, 56550, Note_on_c, 0, 45, 91
2, 56552, Note_on_c, 0, 83, 104
2, 56558, Note_on_c, 0, 71, 98
2, 56573, Note_on_c, 0, 84, 0
2, 56574, Note_on_c, 0, 76, 0
2, 56574, Note_on_c, 0, 72, 0
2, 56574, Note_on_c, 0, 81, 0
2, 56574, Control_c, 0, 64, 0
2, 56575, Note_on_c, 0, 33, 0
2, 56588, Note_on_c, 0, 71, 0
2, 56589, Note_on_c, 0, 83, 0
2, 56593, Note_on_c, 0, 45, 0
2, 56689, Note_on_c, 0, 45, 88
2, 56690, Note_on_c, 0, 86, 109
2, 56692, Note_on_c, 0, 33, 73
2, 56695, Note_on_c, 0, 74, 106
2, 56736, Note_on_c, 0, 74, 0
2, 56739, Note_on_c, 0, 45, 0
2, 56793, Note_on_c, 0, 86, 0
2, 56801, Note_on_c, 0, 33, 0
2, 56847, Note_on_c, 0, 84, 110
2, 56848, Note_on_c, 0, 76, 107
2, 56849, Note_on_c, 0, 72, 112
2, 56850, Note_on_c, 0, 43, 105
2, 56852, Note_on_c, 0, 31, 97
2, 57123, Control_c, 0, 64, 127
2, 57131, Note_on_c, 0, 31, 0
2, 57131, Note_on_c, 0, 43, 0
2, 57134, Note_on_c, 0, 79, 103
2, 57135, Note_on_c, 0, 67, 99
2, 57136, Note_on_c, 0, 43, 104
2, 57137, Note_on_c, 0, 31, 97
2, 57193, Note_on_c, 0, 72, 0
2, 57201, Note_on_c, 0, 67, 0
2, 57203, Control_c, 0, 64, 0
2, 57209, Note_on_c, 0, 76, 0
2, 57210, Note_on_c, 0, 79, 0
2, 57216, Note_on_c, 0, 84, 0
2, 57277, Note_on_c, 0, 43, 0
2, 57281, Note_on_c, 0, 83, 108
2, 57282, Note_on_c, 0, 71, 104
2, 57285, Note_on_c, 0, 31, 0
2, 57312, Note_on_c, 0, 71, 0
2, 57377, Note_on_c, 0, 83, 0
2, 57434, Note_on_c, 0, 41, 107
2, 57436, Note_on_c, 0, 69, 108
2, 57436, Note_on_c, 0, 29, 99
2, 57436, Note_on_c, 0, 81, 106
2, 57441, Note_on_c, 0, 72, 107
2, 57684, Control_c, 0, 64, 127
2, 57738, Note_on_c, 0, 41, 0
2, 57747, Note_on_c, 0, 41, 85
2, 57897, Note_on_c, 0, 48, 88
2, 58060, Note_on_c, 0, 48, 0
2, 58064, Note_on_c, 0, 57, 105
2, 58066, Note_on_c, 0, 52, 93
2, 58070, Note_on_c, 0, 48, 65
2, 58344, Note_on_c, 0, 69, 0
2, 58344, Note_on_c, 0, 81, 0
2, 58351, Note_on_c, 0, 81, 103
2, 58354, Note_on_c, 0, 69, 102
2, 58483, Note_on_c, 0, 48, 0
2, 58489, Note_on_c, 0, 48, 90
2, 58493, Note_on_c, 0, 79, 103
2, 58495, Note_on_c, 0, 67, 97
2, 58527, Control_c, 0, 64, 0
2, 58535, Note_on_c, 0, 72, 0
2, 58538, Note_on_c, 0, 41, 0
2, 58540, Note_on_c, 0, 52, 0
2, 58540, Note_on_c, 0, 57, 0
2, 58540, Note_on_c, 0, 69, 0
2, 58541, Note_on_c, 0, 81, 0
2, 58546, Note_on_c, 0, 67, 0
2, 58552, Note_on_c, 0, 79, 0
2, 58560, Note_on_c, 0, 29, 0
2, 58567, Note_on_c, 0, 48, 0
2, 58645, Note_on_c, 0, 81, 107
2, 58647, Note_on_c, 0, 69, 107
2, 58650, Note_on_c, 0, 38, 100
2, 58650, Note_on_c, 0, 72, 106
2, 58655, Note_on_c, 0, 26, 102
2, 58698, Control_c, 0, 64, 127
2, 58936, Note_on_c, 0, 38, 0
2, 58940, Note_on_c, 0, 38, 89
2, 59074, Note_on_c, 0, 69, 0
2, 59074, Note_on_c, 0, 81, 0
2, 59085, Note_on_c, 0, 69, 103
2, 59085, Note_on_c, 0, 81, 101
2, 59087, Note_on_c, 0, 50, 94
2, 59147, Control_c, 0, 64, 0
2, 59148, Note_on_c, 0, 26, 0
2, 59148, Note_on_c, 0, 50, 0
2, 59149, Note_on_c, 0, 38, 0
2, 59149, Note_on_c, 0, 72, 0
2, 59152, Note_on_c, 0, 81, 0
2, 59153, Note_on_c, 0, 69, 0
2, 59246, Note_on_c, 0, 71, 105
2, 59246, Note_on_c, 0, 83, 107
2, 59247, Note_on_c, 0, 74, 106
2, 59249, Note_on_c, 0, 28, 103
2, 59250, Note_on_c, 0, 40, 100
2, 59274, Control_c, 0, 64, 127
2, 59543, Note_on_c, 0, 40, 0
2, 59549, Note_on_c, 0, 80, 94
2, 59550, Note_on_c, 0, 68, 102
2, 59551, Note_on_c, 0, 40, 84
2, 59679, Note_on_c, 0, 52, 89
2, 59733, Note_on_c, 0, 83, 0
2, 59733, Note_on_c, 0, 40, 0
2, 59734, Note_on_c, 0, 74, 0
2, 59734, Note_on_c, 0, 52, 0
2, 59734, Control_c, 0, 64, 0
2, 59735, Note_on_c, 0, 71, 0
2, 59735, Note_on_c, 0, 68, 0
2, 59737, Note_on_c, 0, 80, 0
2, 59742, Note_on_c, 0, 28, 0
2, 59841, Note_on_c, 0, 81, 109
2, 59845, Note_on_c, 0, 69, 104
2, 59846, Note_on_c, 0, 72, 104
2, 59847, Note_on_c, 0, 76, 97
2, 59847, Note_on_c, 0, 45, 108
2, 59848, Note_on_c, 0, 33, 99
2, 59865, Control_c, 0, 64, 127
2, 60142, Note_on_c, 0, 33, 0
2, 60146, Note_on_c, 0, 33, 89
2, 60288, Note_on_c, 0, 69, 0
2, 60288, Note_on_c, 0, 81, 0
2, 60296, Note_on_c, 0, 81, 106
2, 60298, Note_on_c, 0, 69, 102
2, 60354, Control_c, 0, 64, 0
2, 60354, Note_on_c, 0, 33, 0
2, 60354, Note_on_c, 0, 76, 0
2, 60355, Note_on_c, 0, 72, 0
2, 60355, Note_on_c, 0, 69, 0
2, 60355, Note_on_c, 0, 45, 0
2, 60357, Note_on_c, 0, 81, 0
2, 60445, Note_on_c, 0, 40, 99
2, 60445, Note_on_c, 0, 28, 96
2, 60447, Note_on_c, 0, 81, 108
2, 60449, Control_c, 0, 64, 127
2, 60451, Note_on_c, 0, 69, 102
2, 60591, Note_on_c, 0, 68, 106
2, 60591, Note_on_c, 0, 80, 105
2, 60725, Note_on_c, 0, 28, 0
2, 60725, Note_on_c, 0, 40, 0
2, 60730, Note_on_c, 0, 28, 84
2, 60733, Note_on_c, 0, 40, 81
2, 60733, Note_on_c, 0, 69, 0
2, 60733, Note_on_c, 0, 81, 0
2, 60738, Note_on_c, 0, 81, 108
2, 60739, Note_on_c, 0, 69, 106
2, 60894, Note_on_c, 0, 40, 0
2, 60894, Note_on_c, 0, 80, 0
2, 60897, Note_on_c, 0, 83, 108
2, 60898, Note_on_c, 0, 71, 106
2, 60899, Note_on_c, 0, 80, 100
2, 60900, Note_on_c, 0, 52, 98
2, 60900, Note_on_c, 0, 76, 98
2, 60901, Note_on_c, 0, 40, 84
2, 60975, Note_on_c, 0, 47, 63
2, 61048, Note_on_c, 0, 40, 0
2, 61048, Note_on_c, 0, 52, 0
2, 61052, Note_on_c, 0, 52, 79
2, 61053, Note_on_c, 0, 40, 71
2, 61088, Note_on_c, 0, 52, 0
2, 61091, Note_on_c, 0, 40, 0
2, 61095, Note_on_c, 0, 83, 0
2, 61095, Control_c, 0, 64, 0
2, 61096, Note_on_c, 0, 80, 0
2, 61096, Note_on_c, 0, 76, 0
2, 61096, Note_on_c, 0, 68, 0
2, 61096, Note_on_c, 0, 81, 0
2, 61096, Note_on_c, 0, 69, 0
2, 61096, Note_on_c, 0, 47, 0
2, 61097, Note_on_c, 0, 71, 0
2, 61109, Note_on_c, 0, 28, 0
2, 61184, Note_on_c, 0, 72, 110
2, 61189, Note_on_c, 0, 45, 108
2, 61189, Note_on_c, 0, 76, 100
2, 61190, Note_on_c, 0, 64, 104
2, 61190, Note_on_c, 0, 33, 96
2, 61190, Note_on_c, 0, 60, 106
2, 61201, Control_c, 0, 64, 127
2, 61334, Note_on_c, 0, 59, 96
2, 61337, Note_on_c, 0, 71, 88
2, 61359, Control_c, 0, 64, 0
2, 61386, Note_on_c, 0, 76, 0
2, 61401, Note_on_c, 0, 72, 0
2, 61409, Note_on_c, 0, 60, 0
2, 61424, Note_on_c, 0, 59, 0
2, 61455, Note_on_c, 0, 33, 0
2, 61463, Note_on_c, 0, 45, 0
2, 61488, Note_on_c, 0, 67, 102
2, 61490, Note_on_c, 0, 55, 102
2, 61493, Note_on_c, 0, 33, 85
2, 61516, Note_on_c, 0, 71, 0
2, 61519, Note_on_c, 0, 67, 0
2, 61520, Note_on_c, 0, 55, 0
2, 61555, Note_on_c, 0, 33, 0
2, 61578, Note_on_c, 0, 64, 0
2, 61644, Note_on_c, 0, 31, 100
2, 61644, Note_on_c, 0, 59, 104
2, 61644, Note_on_c, 0, 43, 107
2, 61649, Note_on_c, 0, 67, 100
2, 61650, Note_on_c, 0, 55, 107
2, 61678, Control_c, 0, 64, 127
2, 61923, Note_on_c, 0, 31, 0
2, 61923, Note_on_c, 0, 43, 0
2, 61933, Note_on_c, 0, 43, 104
2, 61934, Note_on_c, 0, 31, 96
2, 61935, Note_on_c, 0, 64, 108
2, 61936, Note_on_c, 0, 52, 101
2, 62001, Control_c, 0, 64, 0
2, 62002, Note_on_c, 0, 59, 0
2, 62004, Note_on_c, 0, 55, 0
2, 62004, Note_on_c, 0, 52, 0
2, 62004, Note_on_c, 0, 67, 0
2, 62004, Note_on_c, 0, 31, 0
2, 62005, Note_on_c, 0, 43, 0
2, 62005, Note_on_c, 0, 64, 0
2, 62087, Note_on_c, 0, 71, 102
2, 62089, Note_on_c, 0, 59, 108
2, 62127, Note_on_c, 0, 71, 0
2, 62129, Note_on_c, 0, 59, 0
2, 62242, Note_on_c, 0, 69, 105
2, 62242, Note_on_c, 0, 41, 102
2, 62243, Note_on_c, 0, 29, 97
2, 62245, Note_on_c, 0, 60, 102
2, 62245, Note_on_c, 0, 57, 107
2, 62392, Control_c, 0, 64, 127
2, 62553, Note_on_c, 0, 41, 0
2, 62559, Note_on_c, 0, 41, 84
2, 62700, Note_on_c, 0, 48, 90
2, 62853, Note_on_c, 0, 57, 0
2, 62861, Note_on_c, 0, 57, 103
2, 62863, Note_on_c, 0, 52, 94
2, 63137, Note_on_c, 0, 41, 0
2, 63138, Note_on_c, 0, 72, 107
2, 63139, Note_on_c, 0, 76, 107
2, 63145, Note_on_c, 0, 41, 89
2, 63283, Note_on_c, 0, 48, 0
2, 63287, Note_on_c, 0, 48, 93
2, 63289, Note_on_c, 0, 79, 105
2, 63364, Control_c, 0, 64, 0
2, 63367, Note_on_c, 0, 29, 0
2, 63371, Note_on_c, 0, 52, 0
2, 63371, Note_on_c, 0, 41, 0
2, 63371, Note_on_c, 0, 60, 0
2, 63371, Note_on_c, 0, 69, 0
2, 63372, Note_on_c, 0, 57, 0
2, 63372, Note_on_c, 0, 72, 0
2, 63372, Note_on_c, 0, 76, 0
2, 63372, Note_on_c, 0, 48, 0
2, 63373, Note_on_c, 0, 79, 0
2, 63447, Note_on_c, 0, 77, 105
2, 63448, Note_on_c, 0, 69, 104
2, 63448, Note_on_c, 0, 50, 106
2, 63448, Note_on_c, 0, 74, 104
2, 63451, Note_on_c, 0, 38, 99
2, 63590, Control_c, 0, 64, 127
2, 63728, Note_on_c, 0, 50, 0
2, 63739, Note_on_c, 0, 50, 95
2, 63889, Note_on_c, 0, 69, 0
2, 63891, Note_on_c, 0, 57, 103
2, 63894, Note_on_c, 0, 81, 105
2, 63896, Note_on_c, 0, 53, 92
2, 63899, Note_on_c, 0, 69, 102
2, 63954, Note_on_c, 0, 57, 0
2, 63957, Note_on_c, 0, 74, 0
2, 63959, Note_on_c, 0, 69, 0
2, 63959, Note_on_c, 0, 50, 0
2, 63959, Note_on_c, 0, 53, 0
2, 63960, Note_on_c, 0, 77, 0
2, 63963, Note_on_c, 0, 81, 0
2, 63968, Control_c, 0, 64, 0
2, 63974, Note_on_c, 0, 38, 0
2, 64043, Note_on_c, 0, 83, 107
2, 64045, Note_on_c, 0, 71, 106
2, 64045, Note_on_c, 0, 74, 106
2, 64046, Note_on_c, 0, 31, 99
2, 64046, Note_on_c, 0, 79, 97
2, 64046, Note_on_c, 0, 43, 104
2, 64220, Control_c, 0, 64, 127
2, 64327, Note_on_c, 0, 43, 0
2, 64335, Note_on_c, 0, 31, 0
2, 64336, Note_on_c, 0, 43, 93
2, 64346, Note_on_c, 0, 31, 82
2, 64350, Note_on_c, 0, 79, 0
2, 64356, Note_on_c, 0, 79, 99
2, 64360, Note_on_c, 0, 67, 96
2, 64481, Note_on_c, 0, 43, 0
2, 64484, Note_on_c, 0, 55, 94
2, 64485, Control_c, 0, 64, 0
2, 64486, Note_on_c, 0, 50, 91
2, 64490, Note_on_c, 0, 43, 89
2, 64529, Note_on_c, 0, 67, 0
2, 64530, Note_on_c, 0, 79, 0
2, 64530, Note_on_c, 0, 55, 0
2, 64531, Note_on_c, 0, 71, 0
2, 64532, Note_on_c, 0, 74, 0
2, 64535, Note_on_c, 0, 31, 0
2, 64538, Note_on_c, 0, 50, 0
2, 64550, Note_on_c, 0, 83, 0
2, 64573, Note_on_c, 0, 43, 0
2, 64644, Note_on_c, 0, 71, 107
2, 64645, Note_on_c, 0, 74, 103
2, 64645, Note_on_c, 0, 83, 108
2, 64645, Note_on_c, 0, 48, 103
2, 64649, Note_on_c, 0, 36, 98
2, 64680, Control_c, 0, 64, 127
2, 64934, Note_on_c, 0, 48, 0
2, 64939, Note_on_c, 0, 84, 105
2, 64939, Note_on_c, 0, 48, 95
2, 64939, Note_on_c, 0, 60, 93
2, 64940, Note_on_c, 0, 72, 107
2, 65084, Note_on_c, 0, 55, 102
2, 65088, Note_on_c, 0, 71, 0
2, 65088, Note_on_c, 0, 74, 0
2, 65088, Note_on_c, 0, 83, 0
2, 65089, Note_on_c, 0, 52, 90
2, 65093, Note_on_c, 0, 83, 107
2, 65094, Note_on_c, 0, 74, 105
2, 65097, Note_on_c, 0, 71, 105
2, 65126, Control_c, 0, 64, 0
2, 65130, Note_on_c, 0, 84, 0
2, 65130, Note_on_c, 0, 48, 0
2, 65130, Note_on_c, 0, 36, 0
2, 65131, Note_on_c, 0, 72, 0
2, 65134, Note_on_c, 0, 60, 0
2, 65137, Note_on_c, 0, 55, 0
2, 65172, Note_on_c, 0, 52, 0
2, 65238, Note_on_c, 0, 28, 100
2, 65239, Note_on_c, 0, 40, 100
2, 65295, Control_c, 0, 64, 127
2, 65510, Note_on_c, 0, 40, 0
2, 65521, Note_on_c, 0, 40, 89
2, 65667, Note_on_c, 0, 52, 98
2, 65669, Note_on_c, 0, 47, 96
2, 65672, Note_on_c, 0, 59, 98
2, 65677, Note_on_c, 0, 56, 80
2, 65816, Note_on_c, 0, 64, 106
2, 65819, Control_c, 0, 64, 0
2, 65855, Note_on_c, 0, 28, 0
2, 65858, Note_on_c, 0, 40, 0
2, 65859, Note_on_c, 0, 52, 0
2, 65860, Note_on_c, 0, 56, 0
2, 65860, Note_on_c, 0, 59, 0
2, 65860, Note_on_c, 0, 47, 0
2, 65866, Note_on_c, 0, 64, 0
2, 65871, Note_on_c, 0, 74, 0
2, 65871, Note_on_c, 0, 83, 0
2, 65886, Note_on_c, 0, 71, 0
2, 65963, Note_on_c, 0, 45, 106
2, 65965, Note_on_c, 0, 72, 110
2, 65966, Note_on_c, 0, 33, 95
2, 65967, Note_on_c, 0, 64, 99
2, 65969, Note_on_c, 0, 60, 104
2, 65994, Control_c, 0, 64, 127
2, 66117, Note_on_c, 0, 33, 0
2, 66117, Note_on_c, 0, 45, 0
2, 66121, Note_on_c, 0, 71, 98
2, 66122, Note_on_c, 0, 33, 91
2, 66123, Note_on_c, 0, 59, 98
2, 66127, Note_on_c, 0, 45, 99
2, 66174, Control_c, 0, 64, 0
2, 66175, Note_on_c, 0, 45, 0
2, 66175, Note_on_c, 0, 72, 0
2, 66177, Note_on_c, 0, 59, 0
2, 66178, Note_on_c, 0, 64, 0
2, 66178, Note_on_c, 0, 60, 0
2, 66178, Note_on_c, 0, 33, 0
2, 66179, Note_on_c, 0, 71, 0
2, 66241, Note_on_c, 0, 45, 94
2, 66277, Note_on_c, 0, 74, 106
2, 66280, Note_on_c, 0, 62, 103
2, 66326, Note_on_c, 0, 62, 0
2, 66326, Note_on_c, 0, 45, 0
2, 66331, Note_on_c, 0, 74, 0
2, 66421, Note_on_c, 0, 72, 109
2, 66421, Note_on_c, 0, 43, 102
2, 66423, Note_on_c, 0, 60, 105
2, 66425, Note_on_c, 0, 31, 97
2, 66425, Note_on_c, 0, 67, 91
2, 66426, Note_on_c, 0, 64, 104
2, 66470, Control_c, 0, 64, 127
2, 66700, Note_on_c, 0, 67, 0
2, 66708, Note_on_c, 0, 31, 0
2, 66708, Note_on_c, 0, 43, 0
2, 66711, Note_on_c, 0, 67, 104
2, 66712, Note_on_c, 0, 55, 103
2, 66713, Note_on_c, 0, 43, 103
2, 66713, Note_on_c, 0, 31, 97
2, 66814, Control_c, 0, 64, 0
2, 66828, Note_on_c, 0, 60, 0
2, 66828, Note_on_c, 0, 72, 0
2, 66828, Note_on_c, 0, 64, 0
2, 66830, Note_on_c, 0, 55, 0
2, 66830, Note_on_c, 0, 67, 0
2, 66832, Note_on_c, 0, 31, 0
2, 66834, Note_on_c, 0, 43, 0
2, 66858, Note_on_c, 0, 59, 109
2, 66859, Note_on_c, 0, 71, 102
2, 66904, Note_on_c, 0, 59, 0
2, 66938, Note_on_c, 0, 71, 0
2, 67018, Note_on_c, 0, 41, 103
2, 67018, Note_on_c, 0, 60, 106
2, 67019, Note_on_c, 0, 72, 108
2, 67019, Note_on_c, 0, 29, 100
2, 67019, Note_on_c, 0, 64, 105
2, 67200, Control_c, 0, 64, 127
2, 67322, Note_on_c, 0, 41, 0
2, 67328, Note_on_c, 0, 41, 85
2, 67482, Note_on_c, 0, 48, 94
2, 67644, Note_on_c, 0, 57, 107
2, 67646, Note_on_c, 0, 52, 96
2, 67921, Note_on_c, 0, 41, 0
2, 67921, Note_on_c, 0, 72, 0
2, 67927, Note_on_c, 0, 84, 107
2, 67930, Note_on_c, 0, 41, 98
2, 67931, Note_on_c, 0, 72, 107
2, 67933, Note_on_c, 0, 76, 102
2, 68067, Note_on_c, 0, 48, 0
2, 68071, Note_on_c, 0, 48, 91
2, 68073, Note_on_c, 0, 83, 103
2, 68073, Note_on_c, 0, 71, 100
2, 68086, Control_c, 0, 64, 0
2, 68127, Note_on_c, 0, 72, 0
2, 68130, Note_on_c, 0, 52, 0
2, 68132, Note_on_c, 0, 84, 0
2, 68133, Note_on_c, 0, 57, 0
2, 68133, Note_on_c, 0, 71, 0
2, 68134, Note_on_c, 0, 83, 0
2, 68134, Note_on_c, 0, 41, 0
2, 68135, Note_on_c, 0, 76, 0
2, 68136, Note_on_c, 0, 29, 0
2, 68136, Note_on_c, 0, 60, 0
2, 68152, Note_on_c, 0, 48, 0
2, 68152, Note_on_c, 0, 64, 0
2, 68230, Note_on_c, 0, 81, 105
2, 68232, Note_on_c, 0, 69, 107
2, 68232, Note_on_c, 0, 72, 107
2, 68234, Note_on_c, 0, 50, 104
2, 68239, Note_on_c, 0, 38, 100
2, 68282, Control_c, 0, 64, 127
2, 68382, Note_on_c, 0, 50, 0
2, 68393, Note_on_c, 0, 50, 60
2, 68513, Note_on_c, 0, 50, 0
2, 68522, Note_on_c, 0, 50, 94
2, 68666, Note_on_c, 0, 81, 0
2, 68674, Note_on_c, 0, 69, 0
2, 68676, Note_on_c, 0, 81, 102
2, 68678, Note_on_c, 0, 69, 100
2, 68679, Note_on_c, 0, 53, 91
2, 68679, Note_on_c, 0, 57, 96
2, 68753, Control_c, 0, 64, 0
2, 68756, Note_on_c, 0, 72, 0
2, 68758, Note_on_c, 0, 50, 0
2, 68758, Note_on_c, 0, 38, 0
2, 68760, Note_on_c, 0, 57, 0
2, 68760, Note_on_c, 0, 53, 0
2, 68760, Note_on_c, 0, 69, 0
2, 68761, Note_on_c, 0, 81, 0
2, 68828, Note_on_c, 0, 86, 110
2, 68831, Note_on_c, 0, 74, 112
2, 68831, Note_on_c, 0, 79, 103
2, 68833, Note_on_c, 0, 52, 100
2, 68833, Note_on_c, 0, 83, 95
2, 68838, Note_on_c, 0, 40, 97
2, 68904, Control_c, 0, 64, 127
2, 69120, Note_on_c, 0, 79, 0
2, 69127, Note_on_c, 0, 52, 0
2, 69131, Note_on_c, 0, 79, 110
2, 69132, Note_on_c, 0, 67, 104
2, 69138, Note_on_c, 0, 52, 88
2, 69258, Note_on_c, 0, 52, 0
2, 69260, Note_on_c, 0, 59, 92
2, 69262, Note_on_c, 0, 55, 87
2, 69268, Note_on_c, 0, 52, 82
2, 69323, Control_c, 0, 64, 0
2, 69331, Note_on_c, 0, 83, 0
2, 69331, Note_on_c, 0, 40, 0
2, 69331, Note_on_c, 0, 86, 0
2, 69332, Note_on_c, 0, 52, 0
2, 69332, Note_on_c, 0, 55, 0
2, 69332, Note_on_c, 0, 74, 0
2, 69332, Note_on_c, 0, 67, 0
2, 69333, Note_on_c, 0, 59, 0
2, 69333, Note_on_c, 0, 79, 0
2, 69430, Note_on_c, 0, 79, 108
2, 69431, Note_on_c, 0, 45, 106
2, 69431, Note_on_c, 0, 67, 102
2, 69431, Note_on_c, 0, 74, 101
2, 69431, Note_on_c, 0, 71, 103
2, 69433, Note_on_c, 0, 33, 97
2, 69565, Control_c, 0, 64, 127
2, 69726, Note_on_c, 0, 83, 104
2, 69726, Note_on_c, 0, 45, 0
2, 69726, Note_on_c, 0, 71, 0
2, 69731, Note_on_c, 0, 57, 103
2, 69731, Note_on_c, 0, 71, 98
2, 69733, Note_on_c, 0, 45, 96
2, 69734, Note_on_c, 0, 52, 94
2, 69872, Note_on_c, 0, 71, 0
2, 69872, Note_on_c, 0, 83, 0
2, 69879, Note_on_c, 0, 83, 104
2, 69881, Note_on_c, 0, 71, 99
2, 70010, Note_on_c, 0, 33, 0
2, 70010, Note_on_c, 0, 45, 0
2, 70014, Control_c, 0, 64, 0
2, 70020, Note_on_c, 0, 45, 106
2, 70020, Note_on_c, 0, 81, 109
2, 70022, Note_on_c, 0, 72, 104
2, 70022, Note_on_c, 0, 33, 90
2, 70022, Note_on_c, 0, 69, 109
2, 70049, Note_on_c, 0, 33, 0
2, 70056, Control_c, 0, 64, 127
2, 70172, Note_on_c, 0, 69, 0
2, 70180, Note_on_c, 0, 69, 105
2, 70206, Note_on_c, 0, 64, 96
2, 70220, Note_on_c, 0, 60, 75
2, 70279, Note_on_c, 0, 52, 0
2, 70287, Note_on_c, 0, 57, 0
2, 70289, Note_on_c, 0, 52, 97
2, 70291, Note_on_c, 0, 57, 88
2, 70312, Note_on_c, 0, 48, 94
2, 70440, Note_on_c, 0, 45, 0
2, 70440, Note_on_c, 0, 57, 0
2, 70440, Note_on_c, 0, 64, 0
2, 70446, Note_on_c, 0, 45, 99
2, 70447, Note_on_c, 0, 64, 82
2, 70450, Note_on_c, 0, 57, 81
2, 70632, Note_on_c, 0, 72, 0
2, 70640, Note_on_c, 0, 45, 0
2, 70640, Note_on_c, 0, 60, 0
2, 70640, Note_on_c, 0, 64, 0
2, 70640, Note_on_c, 0, 69, 0
2, 70644, Note_on_c, 0, 72, 112
2, 70644, Note_on_c, 0, 60, 105
2, 70644, Note_on_c, 0, 33, 98
2, 70645, Note_on_c, 0, 69, 104
2, 70645, Note_on_c, 0, 64, 104
2, 70649, Note_on_c, 0, 45, 100
2, 70649, Note_on_c, 0, 48, 0
2, 70649, Note_on_c, 0, 71, 0
2, 70650, Note_on_c, 0, 67, 0
2, 70650, Note_on_c, 0, 79, 0
2, 70650, Note_on_c, 0, 52, 0
2, 70650, Note_on_c, 0, 81, 0
2, 70651, Note_on_c, 0, 57, 0
2, 70651, Note_on_c, 0, 83, 0
2, 70652, Control_c, 0, 64, 0
2, 70656, Note_on_c, 0, 74, 0
2, 70748, Control_c, 0, 64, 127
2, 70932, Note_on_c, 0, 33, 0
2, 70937, Note_on_c, 0, 33, 82
2, 71083, Note_on_c, 0, 71, 105
2, 71086, Note_on_c, 0, 62, 103
2, 71087, Note_on_c, 0, 59, 105
2, 71104, Control_c, 0, 64, 0
2, 71107, Note_on_c, 0, 64, 0
2, 71110, Note_on_c, 0, 60, 0
2, 71113, Note_on_c, 0, 69, 0
2, 71116, Note_on_c, 0, 45, 0
2, 71118, Note_on_c, 0, 33, 0
2, 71124, Note_on_c, 0, 72, 0
2, 71128, Note_on_c, 0, 59, 0
2, 71129, Note_on_c, 0, 62, 0
2, 71129, Note_on_c, 0, 71, 0
2, 71238, Note_on_c, 0, 31, 100
2, 71339, Note_on_c, 0, 31, 0
2, 71382, Note_on_c, 0, 67, 102
2, 71384, Note_on_c, 0, 55, 108
2, 71384, Note_on_c, 0, 62, 100
2, 71385, Note_on_c, 0, 59, 101
2, 71386, Note_on_c, 0, 43, 100
2, 71447, Control_c, 0, 64, 127
2, 71577, Note_on_c, 0, 67, 0
2, 71584, Note_on_c, 0, 67, 76
2, 71585, Note_on_c, 0, 43, 0
2, 71594, Note_on_c, 0, 43, 60
2, 71677, Note_on_c, 0, 55, 0
2, 71677, Note_on_c, 0, 67, 0
2, 71683, Note_on_c, 0, 67, 101
2, 71686, Note_on_c, 0, 55, 100
2, 71723, Control_c, 0, 64, 0
2, 71751, Note_on_c, 0, 59, 0
2, 71752, Note_on_c, 0, 43, 0
2, 71753, Note_on_c, 0, 62, 0
2, 71754, Note_on_c, 0, 55, 0
2, 71756, Note_on_c, 0, 67, 0
2, 71864, Note_on_c, 0, 69, 104
2, 71868, Note_on_c, 0, 57, 104
2, 71872, Note_on_c, 0, 64, 92
2, 71873, Note_on_c, 0, 41, 100
2, 71874, Note_on_c, 0, 29, 95
2, 71875, Note_on_c, 0, 60, 96
2, 72637, Control_c, 0, 64, 127
2, 74165, Control_c, 0, 64, 0
2, 74346, Note_on_c, 0, 79, 72
2, 74399, Note_on_c, 0, 83, 82
2, 74426, Control_c, 0, 64, 127
2, 74452, Note_on_c, 0, 84, 92
2, 74513, Note_on_c, 0, 91, 107
2, 74880, Note_on_c, 0, 29, 0
2, 74880, Note_on_c, 0, 41, 0
2, 74880, Note_on_c, 0, 57, 0
2, 74880, Note_on_c, 0, 60, 0
2, 74880, Note_on_c, 0, 64, 0
2, 74880, Note_on_c, 0, 69, 0
2, 77076, Control_c, 0, 64, 0
2, 77170, Note_on_c, 0, 84, 0
2, 77176, Note_on_c, 0, 83, 0
2, 77184, Note_on_c, 0, 91, 0
2, 77222, Note_on_c, 0, 79, 0
2, 77223, End_track
0, 0, End_of_file
