0, 0, Header, 1, 2, 384
1, 0, Start_track
1, 0, Tempo, 500000
1, 0, Time_signature, 4, 2, 24, 8
1, 1, End_track
2, 0, Start_track
2, 1945, Note_on_c, 0, 71, 56
2, 1997, Note_on_c, 0, 76, 60
2, 2039, Note_on_c, 0, 64, 38
2, 2040, Note_on_c, 0, 57, 45
2, 2047, Note_on_c, 0, 83, 80
2, 2250, Note_on_c, 0, 71, 0
2, 2258, Note_on_c, 0, 71, 74
2, 2434, Note_on_c, 0, 76, 0
2, 2442, Note_on_c, 0, 76, 75
2, 2572, Control_c, 0, 64, 127
2, 2626, Note_on_c, 0, 83, 0
2, 2631, Note_on_c, 0, 83, 80
2, 2818, Note_on_c, 0, 81, 86
2, 2819, Note_on_c, 0, 75, 79
2, 2820, Note_on_c, 0, 66, 72
2, 2838, Note_on_c, 0, 59, 57
2, 2849, Control_c, 0, 64, 0
2, 2852, Note_on_c, 0, 64, 0
2, 2853, Note_on_c, 0, 76, 0
2, 2853, Note_on_c, 0, 57, 0
2, 2854, Note_on_c, 0, 83, 0
2, 2872, Note_on_c, 0, 71, 0
2, 2987, Control_c, 0, 64, 127
2, 3021, Note_on_c, 0, 80, 83
2, 3210, Note_on_c, 0, 78, 88
2, 3398, Note_on_c, 0, 76, 74
2, 3586, Note_on_c, 0, 75, 0
2, 3597, Note_on_c, 0, 75, 78
2, 3599, Note_on_c, 0, 71, 62
2, 3604, Note_on_c, 0, 61, 57
2, 3609, Note_on_c, 0, 68, 66
2, 3653, Control_c, 0, 64, 0
2, 3658, Note_on_c, 0, 76, 0
2, 3659, Note_on_c, 0, 78, 0
2, 3659, Note_on_c, 0, 81, 0
2, 3659, Note_on_c, 0, 59, 0
2, 3659, Note_on_c, 0, 80, 0
2, 3660, Note_on_c, 0, 66, 0
2, 3796, Note_on_c, 0, 76, 74
2, 3843, Note_on_c, 0, 75, 0
2, 3998, Note_on_c, 0, 78, 75
2, 4021, Note_on_c, 0, 76, 0
2, 4214, Note_on_c, 0, 76, 66
2, 4227, Note_on_c, 0, 78, 0
2, 4454, Control_c, 0, 64, 127
2, 5155, Note_on_c, 0, 59, 67
2, 5229, Note_on_c, 0, 64, 58
2, 5260, Note_on_c, 0, 71, 0
2, 5264, Note_on_c, 0, 71, 80
2, 5265, Note_on_c, 0, 45, 61
2, 5274, Control_c, 0, 64, 0
2, 5459, Note_on_c, 0, 52, 55
2, 5460, Note_on_c, 0, 59, 0
2, 5466, Note_on_c, 0, 59, 68
2, 5637, Note_on_c, 0, 64, 0
2, 5641, Note_on_c, 0, 57, 66
2, 5647, Note_on_c, 0, 64, 74
2, 5760, Note_on_c, 0, 61, 0
2, 5760, Note_on_c, 0, 68, 0
2, 5798, Control_c, 0, 64, 127
2, 5821, Note_on_c, 0, 71, 0
2, 5827, Note_on_c, 0, 71, 80
2, 5836, Note_on_c, 0, 52, 0
2, 5845, Note_on_c, 0, 52, 54
2, 6021, Note_on_c, 0, 69, 86
2, 6022, Note_on_c, 0, 54, 64
2, 6039, Note_on_c, 0, 47, 53
2, 6053, Note_on_c, 0, 57, 0
2, 6053, Note_on_c, 0, 63, 62
2, 6054, Control_c, 0, 64, 0
2, 6055, Note_on_c, 0, 52, 0
2, 6055, Note_on_c, 0, 76, 0
2, 6055, Note_on_c, 0, 64, 0
2, 6055, Note_on_c, 0, 59, 0
2, 6055, Note_on_c, 0, 71, 0
2, 6055, Note_on_c, 0, 45, 0
2, 6182, Control_c, 0, 64, 127
2, 6227, Note_on_c, 0, 68, 76
2, 6397, Note_on_c, 0, 66, 87
2, 6466, Control_c, 0, 64, 0
2, 6551, Control_c, 0, 64, 127
2, 6581, Note_on_c, 0, 64, 72
2, 6773, Note_on_c, 0, 63, 0
2, 6783, Note_on_c, 0, 63, 75
2, 6785, Note_on_c, 0, 49, 61
2, 6790, Note_on_c, 0, 59, 62
2, 6790, Note_on_c, 0, 56, 60
2, 6801, Control_c, 0, 64, 0
2, 6807, Note_on_c, 0, 47, 0
2, 6807, Note_on_c, 0, 68, 0
2, 6808, Note_on_c, 0, 69, 0
2, 6808, Note_on_c, 0, 64, 0
2, 6808, Note_on_c, 0, 54, 0
2, 6808, Note_on_c, 0, 66, 0
2, 6962, Note_on_c, 0, 64, 75
2, 7011, Note_on_c, 0, 63, 0
2, 7167, Note_on_c, 0, 66, 78
2, 7194, Note_on_c, 0, 64, 0
2, 7377, Note_on_c, 0, 68, 79
2, 7764, Control_c, 0, 64, 127
2, 7790, Note_on_c, 0, 69, 74
2, 7969, Note_on_c, 0, 54, 67
2, 7971, Note_on_c, 0, 59, 0
2, 7971, Note_on_c, 0, 68, 0
2, 7976, Note_on_c, 0, 68, 85
2, 7977, Note_on_c, 0, 47, 61
2, 7981, Note_on_c, 0, 59, 58
2, 7989, Control_c, 0, 64, 0
2, 7996, Note_on_c, 0, 69, 0
2, 7997, Note_on_c, 0, 49, 0
2, 7997, Note_on_c, 0, 66, 0
2, 7997, Note_on_c, 0, 56, 0
2, 7998, Note_on_c, 0, 62, 67
2, 8094, Control_c, 0, 64, 127
2, 8174, Note_on_c, 0, 66, 77
2, 8225, Note_on_c, 0, 68, 0
2, 8232, Note_on_c, 0, 68, 81
2, 8309, Note_on_c, 0, 66, 0
2, 8317, Note_on_c, 0, 66, 76
2, 8371, Note_on_c, 0, 64, 83
2, 8374, Control_c, 0, 64, 0
2, 8375, Note_on_c, 0, 45, 68
2, 8375, Note_on_c, 0, 61, 75
2, 8381, Note_on_c, 0, 66, 0
2, 8381, Note_on_c, 0, 54, 0
2, 8381, Note_on_c, 0, 47, 0
2, 8381, Note_on_c, 0, 68, 0
2, 8383, Note_on_c, 0, 62, 0
2, 8424, Note_on_c, 0, 59, 0
2, 8578, Note_on_c, 0, 52, 58
2, 8751, Note_on_c, 0, 59, 59
2, 8970, Note_on_c, 0, 61, 0
2, 8974, Note_on_c, 0, 61, 67
2, 8974, Note_on_c, 0, 57, 64
2, 8994, Note_on_c, 0, 59, 0
2, 9387, Note_on_c, 0, 59, 74
2, 9392, Control_c, 0, 64, 127
2, 9569, Note_on_c, 0, 61, 0
2, 9569, Control_c, 0, 64, 0
2, 9579, Note_on_c, 0, 61, 84
2, 9592, Note_on_c, 0, 52, 0
2, 9602, Note_on_c, 0, 52, 62
2, 9722, Control_c, 0, 64, 127
2, 9770, Note_on_c, 0, 63, 80
2, 9960, Note_on_c, 0, 57, 0
2, 9970, Note_on_c, 0, 57, 51
2, 9975, Note_on_c, 0, 60, 64
2, 10007, Note_on_c, 0, 64, 0
2, 10011, Note_on_c, 0, 64, 81
2, 10012, Note_on_c, 0, 41, 58
2, 10017, Control_c, 0, 64, 0
2, 10020, Note_on_c, 0, 52, 0
2, 10020, Note_on_c, 0, 59, 0
2, 10021, Note_on_c, 0, 63, 0
2, 10045, Note_on_c, 0, 61, 0
2, 10260, Note_on_c, 0, 45, 0
2, 10344, Note_on_c, 0, 57, 0
2, 10421, Note_on_c, 0, 60, 0
2, 10431, Note_on_c, 0, 60, 77
2, 10705, Control_c, 0, 64, 127
2, 10869, Note_on_c, 0, 47, 46
2, 10893, Note_on_c, 0, 57, 45
2, 10893, Note_on_c, 0, 54, 44
2, 10935, Note_on_c, 0, 61, 51
2, 10943, Note_on_c, 0, 60, 0
2, 10944, Note_on_c, 0, 41, 0
2, 10954, Control_c, 0, 64, 0
2, 10967, Note_on_c, 0, 64, 0
2, 10978, Note_on_c, 0, 64, 66
2, 11838, Note_on_c, 0, 76, 54
2, 11942, Control_c, 0, 64, 127
2, 12082, Note_on_c, 0, 78, 71
2, 12288, Note_on_c, 0, 80, 89
2, 12481, Note_on_c, 0, 45, 69
2, 12508, Control_c, 0, 64, 0
2, 12518, Note_on_c, 0, 64, 0
2, 12529, Note_on_c, 0, 54, 0
2, 12529, Note_on_c, 0, 61, 0
2, 12529, Note_on_c, 0, 47, 0
2, 12529, Note_on_c, 0, 78, 0
2, 12530, Note_on_c, 0, 76, 0
2, 12541, Note_on_c, 0, 57, 0
2, 12694, Note_on_c, 0, 52, 60
2, 12879, Note_on_c, 0, 59, 73
2, 13083, Note_on_c, 0, 64, 58
2, 13083, Note_on_c, 0, 61, 64
2, 13467, Note_on_c, 0, 76, 70
2, 13486, Note_on_c, 0, 52, 0
2, 13494, Note_on_c, 0, 52, 47
2, 13670, Note_on_c, 0, 76, 0
2, 13678, Note_on_c, 0, 57, 56
2, 13680, Note_on_c, 0, 76, 75
2, 13808, Control_c, 0, 64, 127
2, 13864, Note_on_c, 0, 78, 91
2, 14054, Note_on_c, 0, 45, 0
2, 14054, Note_on_c, 0, 80, 0
2, 14058, Note_on_c, 0, 80, 90
2, 14064, Note_on_c, 0, 45, 71
2, 14099, Note_on_c, 0, 52, 0
2, 14100, Note_on_c, 0, 59, 0
2, 14100, Note_on_c, 0, 64, 0
2, 14100, Note_on_c, 0, 61, 0
2, 14103, Note_on_c, 0, 76, 0
2, 14104, Note_on_c, 0, 78, 0
2, 14110, Control_c, 0, 64, 0
2, 14123, Note_on_c, 0, 57, 0
2, 14251, Note_on_c, 0, 52, 67
2, 14384, Control_c, 0, 64, 127
2, 14430, Control_c, 0, 64, 0
2, 14438, Note_on_c, 0, 80, 0
2, 14446, Note_on_c, 0, 80, 84
2, 14447, Note_on_c, 0, 59, 78
2, 14515, Control_c, 0, 64, 127
2, 14639, Note_on_c, 0, 78, 89
2, 14645, Note_on_c, 0, 52, 0
2, 14656, Note_on_c, 0, 52, 59
2, 14657, Note_on_c, 0, 64, 70
2, 14657, Note_on_c, 0, 61, 70
2, 15022, Note_on_c, 0, 52, 0
2, 15030, Note_on_c, 0, 76, 80
2, 15033, Note_on_c, 0, 52, 54
2, 15220, Note_on_c, 0, 75, 81
2, 15224, Note_on_c, 0, 57, 64
2, 15406, Note_on_c, 0, 76, 0
2, 15417, Note_on_c, 0, 76, 84
2, 15600, Note_on_c, 0, 40, 61
2, 15645, Note_on_c, 0, 59, 0
2, 15645, Note_on_c, 0, 80, 0
2, 15646, Note_on_c, 0, 52, 0
2, 15646, Note_on_c, 0, 64, 0
2, 15646, Note_on_c, 0, 78, 0
2, 15646, Note_on_c, 0, 57, 0
2, 15646, Note_on_c, 0, 61, 0
2, 15647, Note_on_c, 0, 75, 0
2, 15648, Control_c, 0, 64, 0
2, 15667, Note_on_c, 0, 45, 0
2, 15798, Note_on_c, 0, 71, 85
2, 15817, Note_on_c, 0, 47, 52
2, 15843, Control_c, 0, 64, 127
2, 15992, Note_on_c, 0, 52, 65
2, 16193, Note_on_c, 0, 56, 68
2, 16565, Note_on_c, 0, 47, 0
2, 16573, Note_on_c, 0, 47, 53
2, 16780, Note_on_c, 0, 52, 0
2, 16786, Note_on_c, 0, 52, 61
2, 17141, Note_on_c, 0, 40, 0
2, 17146, Note_on_c, 0, 40, 57
2, 17207, Control_c, 0, 64, 0
2, 17216, Note_on_c, 0, 52, 0
2, 17217, Note_on_c, 0, 56, 0
2, 17218, Note_on_c, 0, 47, 0
2, 17219, Note_on_c, 0, 76, 0
2, 17354, Note_on_c, 0, 47, 62
2, 17495, Control_c, 0, 64, 127
2, 17545, Note_on_c, 0, 52, 58
2, 17738, Note_on_c, 0, 56, 73
2, 18117, Note_on_c, 0, 47, 0
2, 18121, Note_on_c, 0, 47, 49
2, 18124, Note_on_c, 0, 76, 71
2, 18316, Note_on_c, 0, 52, 0
2, 18321, Note_on_c, 0, 78, 89
2, 18321, Note_on_c, 0, 52, 50
2, 18518, Note_on_c, 0, 80, 97
2, 18705, Note_on_c, 0, 45, 73
2, 18743, Control_c, 0, 64, 0
2, 18754, Note_on_c, 0, 47, 0
2, 18755, Note_on_c, 0, 56, 0
2, 18756, Note_on_c, 0, 71, 0
2, 18756, Note_on_c, 0, 52, 0
2, 18757, Note_on_c, 0, 78, 0
2, 18757, Note_on_c, 0, 76, 0
2, 18758, Note_on_c, 0, 40, 0
2, 18901, Note_on_c, 0, 52, 65
2, 18984, Control_c, 0, 64, 127
2, 19076, Note_on_c, 0, 59, 76
2, 19264, Note_on_c, 0, 64, 70
2, 19280, Note_on_c, 0, 61, 69
2, 19673, Note_on_c, 0, 76, 73
2, 19676, Note_on_c, 0, 52, 0
2, 19681, Note_on_c, 0, 52, 51
2, 19860, Note_on_c, 0, 76, 0
2, 19866, Note_on_c, 0, 57, 66
2, 19867, Note_on_c, 0, 76, 83
2, 20043, Note_on_c, 0, 78, 92
2, 20229, Note_on_c, 0, 45, 0
2, 20236, Note_on_c, 0, 80, 0
2, 20240, Note_on_c, 0, 45, 74
2, 20240, Note_on_c, 0, 80, 93
2, 20279, Note_on_c, 0, 59, 0
2, 20279, Note_on_c, 0, 52, 0
2, 20279, Note_on_c, 0, 57, 0
2, 20280, Note_on_c, 0, 64, 0
2, 20280, Note_on_c, 0, 61, 0
2, 20283, Note_on_c, 0, 76, 0
2, 20284, Note_on_c, 0, 78, 0
2, 20285, Control_c, 0, 64, 0
2, 20398, Control_c, 0, 64, 127
2, 20432, Note_on_c, 0, 52, 62
2, 20609, Note_on_c, 0, 59, 78
2, 20610, Note_on_c, 0, 81, 87
2, 20643, Control_c, 0, 64, 0
2, 20743, Control_c, 0, 64, 127
2, 20797, Note_on_c, 0, 80, 0
2, 20808, Note_on_c, 0, 80, 86
2, 20824, Note_on_c, 0, 61, 69
2, 20824, Note_on_c, 0, 64, 69
2, 21120, Control_c, 0, 64, 0
2, 21196, Note_on_c, 0, 52, 0
2, 21200, Note_on_c, 0, 78, 85
2, 21207, Note_on_c, 0, 52, 60
2, 21219, Control_c, 0, 64, 127
2, 21376, Note_on_c, 0, 57, 67
2, 21393, Note_on_c, 0, 76, 78
2, 21564, Note_on_c, 0, 75, 80
2, 21761, Note_on_c, 0, 40, 63
2, 21761, Note_on_c, 0, 73, 81
2, 21782, Control_c, 0, 64, 0
2, 21783, Note_on_c, 0, 52, 0
2, 21783, Note_on_c, 0, 59, 0
2, 21784, Note_on_c, 0, 64, 0
2, 21784, Note_on_c, 0, 80, 0
2, 21784, Note_on_c, 0, 81, 0
2, 21785, Note_on_c, 0, 61, 0
2, 21785, Note_on_c, 0, 57, 0
2, 21787, Note_on_c, 0, 76, 0
2, 21787, Note_on_c, 0, 78, 0
2, 21792, Note_on_c, 0, 75, 0
2, 21803, Note_on_c, 0, 45, 0
2, 21957, Note_on_c, 0, 47, 60
2, 22141, Control_c, 0, 64, 127
2, 22144, Note_on_c, 0, 71, 74
2, 22145, Note_on_c, 0, 52, 58
2, 22333, Note_on_c, 0, 71, 0
2, 22342, Note_on_c, 0, 71, 77
2, 22343, Note_on_c, 0, 56, 63
2, 22702, Note_on_c, 0, 47, 0
2, 22709, Note_on_c, 0, 47, 63
2, 22894, Note_on_c, 0, 52, 0
2, 22903, Note_on_c, 0, 52, 68
2, 23270, Note_on_c, 0, 52, 0
2, 23276, Note_on_c, 0, 52, 69
2, 23359, Note_on_c, 0, 47, 0
2, 23360, Note_on_c, 0, 73, 0
2, 23360, Note_on_c, 0, 56, 0
2, 23362, Note_on_c, 0, 40, 0
2, 23369, Control_c, 0, 64, 0
2, 23468, Note_on_c, 0, 59, 78
2, 23643, Note_on_c, 0, 64, 75
2, 23669, Control_c, 0, 64, 127
2, 23838, Note_on_c, 0, 69, 74
2, 24028, Note_on_c, 0, 68, 77
2, 24215, Note_on_c, 0, 64, 0
2, 24221, Note_on_c, 0, 64, 66
2, 24399, Note_on_c, 0, 59, 0
2, 24407, Note_on_c, 0, 59, 62
2, 24568, Note_on_c, 0, 71, 0
2, 24576, Note_on_c, 0, 52, 0
2, 24578, Note_on_c, 0, 71, 84
2, 24584, Note_on_c, 0, 52, 68
2, 24618, Note_on_c, 0, 68, 0
2, 24619, Note_on_c, 0, 69, 0
2, 24785, Note_on_c, 0, 45, 72
2, 24787, Note_on_c, 0, 73, 85
2, 24794, Note_on_c, 0, 69, 73
2, 24818, Control_c, 0, 64, 0
2, 24837, Note_on_c, 0, 59, 0
2, 24842, Note_on_c, 0, 52, 0
2, 24855, Note_on_c, 0, 71, 0
2, 24960, Control_c, 0, 64, 127
2, 24979, Note_on_c, 0, 52, 69
2, 25167, Note_on_c, 0, 73, 0
2, 25171, Note_on_c, 0, 73, 85
2, 25173, Note_on_c, 0, 57, 65
2, 25364, Note_on_c, 0, 75, 94
2, 25365, Note_on_c, 0, 71, 84
2, 25539, Note_on_c, 0, 47, 73
2, 25559, Note_on_c, 0, 64, 0
2, 25559, Control_c, 0, 64, 0
2, 25562, Note_on_c, 0, 52, 0
2, 25562, Note_on_c, 0, 45, 0
2, 25563, Note_on_c, 0, 57, 0
2, 25568, Note_on_c, 0, 73, 0
2, 25574, Note_on_c, 0, 69, 0
2, 25666, Control_c, 0, 64, 127
2, 25729, Note_on_c, 0, 73, 85
2, 25733, Note_on_c, 0, 54, 67
2, 25912, Note_on_c, 0, 75, 0
2, 25920, Note_on_c, 0, 59, 77
2, 25921, Note_on_c, 0, 75, 88
2, 26104, Note_on_c, 0, 73, 0
2, 26109, Note_on_c, 0, 76, 99
2, 26115, Note_on_c, 0, 73, 83
2, 26119, Note_on_c, 0, 68, 84
2, 26283, Control_c, 0, 64, 0
2, 26285, Note_on_c, 0, 54, 0
2, 26285, Note_on_c, 0, 71, 0
2, 26285, Note_on_c, 0, 49, 76
2, 26285, Note_on_c, 0, 59, 0
2, 26286, Note_on_c, 0, 47, 0
2, 26286, Note_on_c, 0, 75, 0
2, 26449, Control_c, 0, 64, 127
2, 26470, Note_on_c, 0, 56, 76
2, 26667, Note_on_c, 0, 61, 78
2, 26848, Note_on_c, 0, 64, 81
2, 27217, Note_on_c, 0, 61, 0
2, 27225, Note_on_c, 0, 61, 75
2, 27394, Note_on_c, 0, 56, 0
2, 27402, Note_on_c, 0, 56, 73
2, 27578, Note_on_c, 0, 49, 0
2, 27586, Note_on_c, 0, 49, 65
2, 27599, Note_on_c, 0, 71, 69
2, 27778, Note_on_c, 0, 73, 0
2, 27783, Note_on_c, 0, 45, 67
2, 27787, Note_on_c, 0, 73, 81
2, 27795, Control_c, 0, 64, 0
2, 27798, Note_on_c, 0, 64, 0
2, 27798, Note_on_c, 0, 61, 0
2, 27798, Note_on_c, 0, 68, 0
2, 27798, Note_on_c, 0, 76, 0
2, 27799, Note_on_c, 0, 56, 0
2, 27802, Note_on_c, 0, 71, 0
2, 27810, Note_on_c, 0, 69, 64
2, 27863, Control_c, 0, 64, 127
2, 27970, Note_on_c, 0, 73, 0
2, 27975, Note_on_c, 0, 52, 64
2, 27977, Note_on_c, 0, 73, 85
2, 28154, Note_on_c, 0, 73, 0
2, 28164, Note_on_c, 0, 73, 89
2, 28171, Note_on_c, 0, 57, 73
2, 28341, Note_on_c, 0, 75, 95
2, 28358, Note_on_c, 0, 71, 76
2, 28523, Note_on_c, 0, 47, 74
2, 28535, Control_c, 0, 64, 0
2, 28541, Note_on_c, 0, 69, 0
2, 28542, Note_on_c, 0, 57, 0
2, 28542, Note_on_c, 0, 52, 0
2, 28542, Note_on_c, 0, 45, 0
2, 28543, Note_on_c, 0, 73, 0
2, 28546, Note_on_c, 0, 49, 0
2, 28631, Control_c, 0, 64, 127
2, 28712, Note_on_c, 0, 54, 73
2, 28713, Note_on_c, 0, 73, 81
2, 28884, Note_on_c, 0, 71, 0
2, 28884, Note_on_c, 0, 75, 0
2, 28888, Note_on_c, 0, 75, 83
2, 28889, Note_on_c, 0, 71, 72
2, 28891, Note_on_c, 0, 59, 77
2, 29086, Note_on_c, 0, 76, 94
2, 29091, Note_on_c, 0, 71, 0
2, 29095, Note_on_c, 0, 68, 77
2, 29103, Note_on_c, 0, 71, 73
2, 29225, Note_on_c, 0, 73, 0
2, 29227, Note_on_c, 0, 54, 0
2, 29227, Note_on_c, 0, 75, 0
2, 29227, Control_c, 0, 64, 0
2, 29228, Note_on_c, 0, 59, 0
2, 29229, Note_on_c, 0, 47, 0
2, 29272, Note_on_c, 0, 40, 67
2, 29422, Control_c, 0, 64, 127
2, 29463, Note_on_c, 0, 47, 58
2, 29657, Note_on_c, 0, 52, 60
2, 29864, Note_on_c, 0, 59, 67
2, 30251, Note_on_c, 0, 52, 0
2, 30257, Note_on_c, 0, 52, 58
2, 30524, Note_on_c, 0, 64, 65
2, 30537, Control_c, 0, 64, 0
2, 30549, Note_on_c, 0, 59, 0
2, 30549, Note_on_c, 0, 47, 0
2, 30549, Note_on_c, 0, 40, 0
2, 30552, Note_on_c, 0, 68, 0
2, 30681, Control_c, 0, 64, 127
2, 30827, Note_on_c, 0, 76, 0
2, 30831, Note_on_c, 0, 76, 64
2, 31161, Note_on_c, 0, 45, 62
2, 31164, Note_on_c, 0, 78, 79
2, 31265, Control_c, 0, 64, 0
2, 31267, Note_on_c, 0, 76, 0
2, 31269, Note_on_c, 0, 64, 0
2, 31296, Note_on_c, 0, 52, 0
2, 31334, Note_on_c, 0, 71, 0
2, 31380, Control_c, 0, 64, 127
2, 31405, Note_on_c, 0, 80, 87
2, 31412, Note_on_c, 0, 52, 65
2, 31607, Note_on_c, 0, 59, 70
2, 31812, Note_on_c, 0, 64, 61
2, 31826, Note_on_c, 0, 61, 55
2, 32205, Note_on_c, 0, 71, 66
2, 32371, Note_on_c, 0, 64, 0
2, 32375, Note_on_c, 0, 64, 62
2, 32547, Note_on_c, 0, 78, 0
2, 32552, Note_on_c, 0, 78, 84
2, 32553, Note_on_c, 0, 57, 69
2, 32739, Note_on_c, 0, 45, 0
2, 32739, Note_on_c, 0, 80, 0
2, 32750, Note_on_c, 0, 80, 91
2, 32750, Note_on_c, 0, 45, 72
2, 32782, Control_c, 0, 64, 0
2, 32805, Note_on_c, 0, 52, 0
2, 32805, Note_on_c, 0, 59, 0
2, 32805, Note_on_c, 0, 61, 0
2, 32893, Control_c, 0, 64, 127
2, 32941, Note_on_c, 0, 52, 64
2, 33108, Note_on_c, 0, 80, 0
2, 33110, Note_on_c, 0, 59, 70
2, 33114, Note_on_c, 0, 80, 86
2, 33315, Note_on_c, 0, 78, 0
2, 33318, Note_on_c, 0, 61, 71
2, 33320, Note_on_c, 0, 78, 90
2, 33338, Note_on_c, 0, 52, 0
2, 33349, Note_on_c, 0, 52, 44
2, 33684, Note_on_c, 0, 71, 0
2, 33689, Note_on_c, 0, 71, 71
2, 33690, Note_on_c, 0, 76, 74
2, 33876, Note_on_c, 0, 64, 0
2, 33879, Note_on_c, 0, 75, 81
2, 33881, Note_on_c, 0, 64, 62
2, 34045, Note_on_c, 0, 57, 0
2, 34045, Note_on_c, 0, 76, 0
2, 34053, Note_on_c, 0, 57, 69
2, 34056, Note_on_c, 0, 76, 86
2, 34248, Note_on_c, 0, 40, 67
2, 34278, Control_c, 0, 64, 0
2, 34286, Note_on_c, 0, 59, 0
2, 34286, Note_on_c, 0, 80, 0
2, 34286, Note_on_c, 0, 64, 0
2, 34286, Note_on_c, 0, 52, 0
2, 34286, Note_on_c, 0, 71, 0
2, 34287, Note_on_c, 0, 57, 0
2, 34287, Note_on_c, 0, 61, 0
2, 34287, Note_on_c, 0, 78, 0
2, 34287, Note_on_c, 0, 75, 0
2, 34306, Note_on_c, 0, 45, 0
2, 34433, Note_on_c, 0, 71, 89
2, 34435, Note_on_c, 0, 47, 61
2, 34483, Control_c, 0, 64, 127
2, 34610, Note_on_c, 0, 52, 66
2, 34817, Note_on_c, 0, 59, 63
2, 34817, Note_on_c, 0, 56, 69
2, 35189, Note_on_c, 0, 64, 66
2, 35374, Note_on_c, 0, 59, 0
2, 35379, Note_on_c, 0, 59, 57
2, 35550, Note_on_c, 0, 52, 0
2, 35555, Note_on_c, 0, 52, 69
2, 35735, Note_on_c, 0, 40, 0
2, 35745, Note_on_c, 0, 40, 69
2, 35800, Control_c, 0, 64, 0
2, 35808, Note_on_c, 0, 52, 0
2, 35808, Note_on_c, 0, 64, 0
2, 35808, Note_on_c, 0, 56, 0
2, 35808, Note_on_c, 0, 59, 0
2, 35809, Note_on_c, 0, 47, 0
2, 35809, Note_on_c, 0, 71, 0
2, 35819, Note_on_c, 0, 76, 0
2, 35925, Note_on_c, 0, 47, 65
2, 35965, Control_c, 0, 64, 127
2, 36116, Note_on_c, 0, 52, 75
2, 36314, Note_on_c, 0, 59, 62
2, 36315, Note_on_c, 0, 56, 72
2, 36701, Note_on_c, 0, 64, 68
2, 36902, Note_on_c, 0, 59, 0
2, 36913, Note_on_c, 0, 59, 59
2, 37109, Note_on_c, 0, 52, 0
2, 37113, Note_on_c, 0, 52, 56
2, 37120, Note_on_c, 0, 76, 76
2, 37322, Note_on_c, 0, 45, 73
2, 37328, Note_on_c, 0, 78, 88
2, 37393, Note_on_c, 0, 47, 0
2, 37394, Note_on_c, 0, 59, 0
2, 37394, Note_on_c, 0, 56, 0
2, 37394, Note_on_c, 0, 76, 0
2, 37394, Note_on_c, 0, 64, 0
2, 37394, Note_on_c, 0, 52, 0
2, 37395, Note_on_c, 0, 40, 0
2, 37396, Control_c, 0, 64, 0
2, 37518, Note_on_c, 0, 80, 99
2, 37519, Note_on_c, 0, 52, 69
2, 37639, Control_c, 0, 64, 127
2, 37699, Note_on_c, 0, 59, 71
2, 37897, Note_on_c, 0, 61, 74
2, 37897, Note_on_c, 0, 64, 71
2, 38247, Note_on_c, 0, 71, 79
2, 38438, Note_on_c, 0, 64, 0
2, 38442, Note_on_c, 0, 64, 64
2, 38607, Note_on_c, 0, 78, 0
2, 38616, Note_on_c, 0, 57, 72
2, 38616, Note_on_c, 0, 78, 88
2, 38791, Note_on_c, 0, 45, 0
2, 38799, Note_on_c, 0, 80, 0
2, 38801, Note_on_c, 0, 45, 81
2, 38803, Note_on_c, 0, 80, 94
2, 38864, Note_on_c, 0, 52, 0
2, 38864, Note_on_c, 0, 71, 0
2, 38865, Note_on_c, 0, 59, 0
2, 38865, Note_on_c, 0, 64, 0
2, 38865, Note_on_c, 0, 61, 0
2, 38865, Note_on_c, 0, 78, 0
2, 38870, Control_c, 0, 64, 0
2, 38975, Note_on_c, 0, 52, 71
2, 38983, Control_c, 0, 64, 127
2, 39155, Note_on_c, 0, 59, 80
2, 39170, Note_on_c, 0, 81, 88
2, 39344, Note_on_c, 0, 80, 0
2, 39355, Note_on_c, 0, 80, 92
2, 39361, Note_on_c, 0, 61, 74
2, 39362, Note_on_c, 0, 64, 75
2, 39436, Control_c, 0, 64, 0
2, 39521, Control_c, 0, 64, 127
2, 39711, Note_on_c, 0, 71, 79
2, 39723, Note_on_c, 0, 78, 87
2, 39889, Note_on_c, 0, 64, 0
2, 39900, Note_on_c, 0, 64, 73
2, 39901, Note_on_c, 0, 76, 82
2, 40074, Note_on_c, 0, 57, 0
2, 40081, Note_on_c, 0, 57, 70
2, 40081, Note_on_c, 0, 75, 81
2, 40274, Note_on_c, 0, 40, 72
2, 40276, Note_on_c, 0, 73, 90
2, 40313, Control_c, 0, 64, 0
2, 40314, Note_on_c, 0, 64, 0
2, 40314, Note_on_c, 0, 52, 0
2, 40314, Note_on_c, 0, 80, 0
2, 40315, Note_on_c, 0, 81, 0
2, 40315, Note_on_c, 0, 76, 0
2, 40315, Note_on_c, 0, 57, 0
2, 40315, Note_on_c, 0, 59, 0
2, 40315, Note_on_c, 0, 61, 0
2, 40315, Note_on_c, 0, 78, 0
2, 40316, Note_on_c, 0, 71, 0
2, 40316, Note_on_c, 0, 75, 0
2, 40317, Note_on_c, 0, 45, 0
2, 40427, Control_c, 0, 64, 127
2, 40459, Note_on_c, 0, 47, 64
2, 40656, Note_on_c, 0, 52, 64
2, 40659, Note_on_c, 0, 71, 75
2, 40842, Note_on_c, 0, 71, 0
2, 40847, Note_on_c, 0, 71, 74
2, 40853, Note_on_c, 0, 59, 61
2, 40868, Note_on_c, 0, 56, 52
2, 40871, Note_on_c, 0, 68, 44
2, 40880, Note_on_c, 0, 68, 0
2, 41221, Note_on_c, 0, 64, 68
2, 41402, Note_on_c, 0, 59, 0
2, 41410, Note_on_c, 0, 59, 63
2, 41579, Note_on_c, 0, 52, 0
2, 41584, Note_on_c, 0, 52, 67
2, 41786, Note_on_c, 0, 40, 0
2, 41791, Note_on_c, 0, 40, 70
2, 41840, Control_c, 0, 64, 0
2, 41842, Note_on_c, 0, 52, 0
2, 41843, Note_on_c, 0, 59, 0
2, 41843, Note_on_c, 0, 56, 0
2, 41843, Note_on_c, 0, 64, 0
2, 41843, Note_on_c, 0, 47, 0
2, 41843, Note_on_c, 0, 73, 0
2, 41948, Control_c, 0, 64, 127
2, 41972, Note_on_c, 0, 47, 68
2, 42176, Note_on_c, 0, 52, 63
2, 42406, Note_on_c, 0, 56, 51
2, 42412, Note_on_c, 0, 59, 59
2, 42859, Note_on_c, 0, 64, 52
2, 42900, Note_on_c, 0, 40, 0
2, 42996, Note_on_c, 0, 47, 0
2, 42996, Note_on_c, 0, 52, 0
2, 43008, Control_c, 0, 64, 0
2, 43153, Note_on_c, 0, 71, 0
2, 43391, Note_on_c, 0, 71, 66
2, 43530, Control_c, 0, 64, 127
2, 43761, Note_on_c, 0, 73, 70
2, 43775, Control_c, 0, 64, 0
2, 43791, Note_on_c, 0, 64, 0
2, 43795, Note_on_c, 0, 57, 49
2, 43797, Note_on_c, 0, 69, 46
2, 43799, Note_on_c, 0, 64, 43
2, 43809, Note_on_c, 0, 59, 0
2, 43809, Note_on_c, 0, 71, 0
2, 43809, Note_on_c, 0, 56, 0
2, 43875, Control_c, 0, 64, 127
2, 44014, Note_on_c, 0, 73, 0
2, 44018, Note_on_c, 0, 73, 78
2, 44190, Note_on_c, 0, 73, 0
2, 44201, Note_on_c, 0, 73, 84
2, 44218, Control_c, 0, 64, 0
2, 44313, Control_c, 0, 64, 127
2, 44389, Note_on_c, 0, 75, 80
2, 44423, Note_on_c, 0, 71, 62
2, 44590, Control_c, 0, 64, 0
2, 44592, Note_on_c, 0, 66, 67
2, 44609, Note_on_c, 0, 59, 58
2, 44659, Note_on_c, 0, 57, 0
2, 44659, Note_on_c, 0, 69, 0
2, 44659, Note_on_c, 0, 73, 0
2, 44781, Note_on_c, 0, 73, 71
2, 44797, Control_c, 0, 64, 127
2, 44943, Note_on_c, 0, 75, 0
2, 44949, Note_on_c, 0, 75, 77
2, 45145, Note_on_c, 0, 76, 80
2, 45173, Note_on_c, 0, 71, 0
2, 45184, Note_on_c, 0, 68, 48
2, 45184, Note_on_c, 0, 71, 48
2, 45293, Control_c, 0, 64, 0
2, 45306, Note_on_c, 0, 75, 0
2, 45306, Note_on_c, 0, 59, 0
2, 45306, Note_on_c, 0, 66, 0
2, 45306, Note_on_c, 0, 73, 0
2, 45359, Note_on_c, 0, 52, 54
2, 45473, Control_c, 0, 64, 127
2, 45546, Note_on_c, 0, 59, 61
2, 45565, Note_on_c, 0, 64, 0
2, 45728, Note_on_c, 0, 64, 66
2, 45911, Note_on_c, 0, 69, 69
2, 46080, Note_on_c, 0, 68, 0
2, 46086, Note_on_c, 0, 68, 80
2, 46264, Note_on_c, 0, 64, 0
2, 46269, Note_on_c, 0, 64, 59
2, 46440, Note_on_c, 0, 59, 0
2, 46450, Note_on_c, 0, 59, 72
2, 46625, Note_on_c, 0, 52, 0
2, 46625, Note_on_c, 0, 71, 0
2, 46630, Note_on_c, 0, 52, 64
2, 46635, Note_on_c, 0, 71, 80
2, 46840, Note_on_c, 0, 76, 0
2, 46851, Note_on_c, 0, 76, 89
2, 46855, Note_on_c, 0, 64, 0
2, 46855, Note_on_c, 0, 68, 0
2, 46858, Note_on_c, 0, 37, 71
2, 46859, Note_on_c, 0, 68, 76
2, 46861, Note_on_c, 0, 64, 71
2, 46873, Control_c, 0, 64, 0
2, 46890, Note_on_c, 0, 69, 0
2, 46890, Note_on_c, 0, 52, 0
2, 46890, Note_on_c, 0, 59, 0
2, 46970, Control_c, 0, 64, 127
2, 47051, Note_on_c, 0, 44, 68
2, 47224, Note_on_c, 0, 76, 0
2, 47234, Note_on_c, 0, 76, 83
2, 47235, Note_on_c, 0, 49, 62
2, 47247, Note_on_c, 0, 64, 0
2, 47256, Note_on_c, 0, 64, 65
2, 47411, Note_on_c, 0, 78, 100
2, 47418, Note_on_c, 0, 52, 71
2, 47424, Note_on_c, 0, 71, 0
2, 47427, Note_on_c, 0, 66, 85
2, 47428, Note_on_c, 0, 75, 78
2, 47430, Note_on_c, 0, 71, 62
2, 47535, Control_c, 0, 64, 0
2, 47562, Control_c, 0, 64, 127
2, 47593, Note_on_c, 0, 39, 79
2, 47777, Note_on_c, 0, 64, 0
2, 47777, Note_on_c, 0, 76, 0
2, 47780, Note_on_c, 0, 47, 73
2, 47781, Note_on_c, 0, 76, 90
2, 47783, Note_on_c, 0, 64, 82
2, 47953, Note_on_c, 0, 78, 0
2, 47961, Note_on_c, 0, 66, 0
2, 47963, Note_on_c, 0, 78, 99
2, 47970, Note_on_c, 0, 66, 88
2, 47973, Note_on_c, 0, 54, 77
2, 48145, Note_on_c, 0, 68, 0
2, 48151, Note_on_c, 0, 80, 101
2, 48153, Note_on_c, 0, 76, 0
2, 48154, Note_on_c, 0, 59, 74
2, 48156, Note_on_c, 0, 68, 87
2, 48160, Note_on_c, 0, 76, 81
2, 48161, Note_on_c, 0, 71, 0
2, 48167, Note_on_c, 0, 71, 75
2, 48350, Note_on_c, 0, 40, 80
2, 48369, Note_on_c, 0, 39, 0
2, 48369, Note_on_c, 0, 37, 0
2, 48371, Note_on_c, 0, 75, 0
2, 48371, Note_on_c, 0, 49, 0
2, 48371, Note_on_c, 0, 52, 0
2, 48371, Note_on_c, 0, 47, 0
2, 48372, Note_on_c, 0, 66, 0
2, 48372, Note_on_c, 0, 59, 0
2, 48372, Note_on_c, 0, 78, 0
2, 48372, Note_on_c, 0, 54, 0
2, 48372, Note_on_c, 0, 44, 0
2, 48373, Control_c, 0, 64, 0
2, 48391, Note_on_c, 0, 64, 0
2, 48525, Note_on_c, 0, 47, 71
2, 48591, Control_c, 0, 64, 127
2, 48703, Note_on_c, 0, 52, 67
2, 48865, Note_on_c, 0, 59, 76
2, 49078, Note_on_c, 0, 64, 79
2, 49259, Note_on_c, 0, 59, 0
2, 49264, Note_on_c, 0, 59, 64
2, 49466, Note_on_c, 0, 52, 0
2, 49471, Note_on_c, 0, 52, 62
2, 49658, Note_on_c, 0, 80, 0
2, 49669, Note_on_c, 0, 80, 85
2, 49903, Note_on_c, 0, 78, 90
2, 49913, Note_on_c, 0, 50, 68
2, 49918, Note_on_c, 0, 69, 70
2, 49927, Control_c, 0, 64, 0
2, 49930, Note_on_c, 0, 64, 0
2, 49930, Note_on_c, 0, 52, 0
2, 49930, Note_on_c, 0, 59, 0
2, 49931, Note_on_c, 0, 80, 0
2, 49931, Note_on_c, 0, 47, 0
2, 49933, Note_on_c, 0, 40, 0
2, 49934, Note_on_c, 0, 74, 60
2, 49943, Note_on_c, 0, 71, 0
2, 49943, Note_on_c, 0, 76, 0
2, 49950, Note_on_c, 0, 68, 0
2, 50004, Control_c, 0, 64, 127
2, 50096, Note_on_c, 0, 78, 0
2, 50100, Note_on_c, 0, 78, 96
2, 50124, Note_on_c, 0, 57, 60
2, 50273, Note_on_c, 0, 78, 0
2, 50278, Note_on_c, 0, 78, 82
2, 50300, Note_on_c, 0, 62, 70
2, 50457, Note_on_c, 0, 78, 0
2, 50468, Note_on_c, 0, 78, 87
2, 50476, Note_on_c, 0, 66, 79
2, 50641, Note_on_c, 0, 78, 0
2, 50647, Note_on_c, 0, 78, 85
2, 50841, Note_on_c, 0, 62, 0
2, 50843, Note_on_c, 0, 80, 85
2, 50847, Note_on_c, 0, 62, 64
2, 51018, Note_on_c, 0, 57, 0
2, 51024, Note_on_c, 0, 57, 70
2, 51194, Note_on_c, 0, 78, 0
2, 51200, Note_on_c, 0, 78, 93
2, 51202, Note_on_c, 0, 50, 0
2, 51210, Note_on_c, 0, 50, 66
2, 51224, Note_on_c, 0, 73, 68
2, 51225, Note_on_c, 0, 69, 0
2, 51230, Note_on_c, 0, 69, 66
2, 51387, Note_on_c, 0, 45, 77
2, 51399, Note_on_c, 0, 50, 0
2, 51399, Note_on_c, 0, 57, 0
2, 51399, Note_on_c, 0, 80, 0
2, 51399, Note_on_c, 0, 62, 0
2, 51399, Note_on_c, 0, 66, 0
2, 51400, Control_c, 0, 64, 0
2, 51400, Note_on_c, 0, 74, 0
2, 51494, Control_c, 0, 64, 127
2, 51575, Note_on_c, 0, 76, 80
2, 51576, Note_on_c, 0, 52, 64
2, 51747, Note_on_c, 0, 76, 0
2, 51750, Note_on_c, 0, 57, 67
2, 51753, Note_on_c, 0, 76, 75
2, 51947, Note_on_c, 0, 73, 0
2, 51951, Note_on_c, 0, 64, 59
2, 51952, Note_on_c, 0, 61, 71
2, 51952, Note_on_c, 0, 73, 80
2, 52108, Note_on_c, 0, 76, 0
2, 52118, Note_on_c, 0, 76, 86
2, 52308, Note_on_c, 0, 57, 0
2, 52312, Note_on_c, 0, 57, 52
2, 52492, Note_on_c, 0, 52, 0
2, 52499, Note_on_c, 0, 52, 56
2, 52661, Note_on_c, 0, 45, 0
2, 52672, Note_on_c, 0, 45, 61
2, 52684, Note_on_c, 0, 76, 0
2, 52689, Note_on_c, 0, 76, 72
2, 52883, Note_on_c, 0, 47, 62
2, 52888, Note_on_c, 0, 75, 80
2, 52907, Note_on_c, 0, 71, 61
2, 52910, Control_c, 0, 64, 0
2, 52911, Note_on_c, 0, 57, 0
2, 52911, Note_on_c, 0, 52, 0
2, 52911, Note_on_c, 0, 61, 0
2, 52912, Note_on_c, 0, 73, 0
2, 52916, Note_on_c, 0, 76, 0
2, 52930, Note_on_c, 0, 45, 0
2, 52930, Note_on_c, 0, 69, 0
2, 52938, Note_on_c, 0, 78, 0
2, 52953, Note_on_c, 0, 64, 0
2, 53007, Control_c, 0, 64, 127
2, 53085, Note_on_c, 0, 54, 69
2, 53268, Note_on_c, 0, 75, 0
2, 53273, Note_on_c, 0, 75, 78
2, 53291, Note_on_c, 0, 59, 64
2, 53452, Note_on_c, 0, 75, 0
2, 53463, Note_on_c, 0, 75, 91
2, 53468, Note_on_c, 0, 54, 0
2, 53473, Note_on_c, 0, 54, 63
2, 53475, Note_on_c, 0, 71, 0
2, 53480, Note_on_c, 0, 71, 68
2, 53529, Control_c, 0, 64, 0
2, 53614, Control_c, 0, 64, 127
2, 53645, Note_on_c, 0, 63, 79
2, 53821, Note_on_c, 0, 54, 0
2, 53829, Note_on_c, 0, 54, 77
2, 53830, Note_on_c, 0, 76, 89
2, 54005, Note_on_c, 0, 59, 0
2, 54010, Note_on_c, 0, 59, 81
2, 54197, Note_on_c, 0, 78, 99
2, 54197, Note_on_c, 0, 54, 0
2, 54205, Note_on_c, 0, 71, 0
2, 54205, Note_on_c, 0, 75, 0
2, 54207, Note_on_c, 0, 54, 73
2, 54209, Note_on_c, 0, 71, 74
2, 54210, Note_on_c, 0, 75, 81
2, 54389, Note_on_c, 0, 47, 0
2, 54397, Note_on_c, 0, 47, 80
2, 54410, Control_c, 0, 64, 0
2, 54414, Note_on_c, 0, 59, 0
2, 54415, Note_on_c, 0, 76, 0
2, 54416, Note_on_c, 0, 54, 0
2, 54416, Note_on_c, 0, 63, 0
2, 54520, Control_c, 0, 64, 127
2, 54575, Note_on_c, 0, 54, 79
2, 54756, Note_on_c, 0, 59, 82
2, 54935, Note_on_c, 0, 54, 0
2, 54939, Note_on_c, 0, 54, 76
2, 55116, Note_on_c, 0, 63, 88
2, 55288, Note_on_c, 0, 54, 0
2, 55294, Note_on_c, 0, 54, 82
2, 55457, Note_on_c, 0, 59, 0
2, 55463, Note_on_c, 0, 59, 86
2, 55633, Note_on_c, 0, 54, 0
2, 55641, Note_on_c, 0, 54, 79
2, 55641, Note_on_c, 0, 71, 0
2, 55652, Note_on_c, 0, 71, 79
2, 55799, Note_on_c, 0, 47, 0
2, 55799, Note_on_c, 0, 54, 0
2, 55800, Note_on_c, 0, 59, 0
2, 55800, Note_on_c, 0, 63, 0
2, 55801, Control_c, 0, 64, 0
2, 55825, Note_on_c, 0, 75, 0
2, 55825, Note_on_c, 0, 78, 0
2, 55833, Note_on_c, 0, 71, 0
2, 55834, Note_on_c, 0, 78, 101
2, 55836, Note_on_c, 0, 47, 87
2, 55838, Note_on_c, 0, 35, 83
2, 55838, Note_on_c, 0, 73, 84
2, 55843, Note_on_c, 0, 69, 83
2, 55918, Control_c, 0, 64, 127
2, 56040, Note_on_c, 0, 47, 0
2, 56045, Note_on_c, 0, 47, 67
2, 56199, Note_on_c, 0, 57, 71
2, 56217, Note_on_c, 0, 78, 0
2, 56224, Note_on_c, 0, 78, 95
2, 56386, Note_on_c, 0, 78, 0
2, 56394, Note_on_c, 0, 73, 0
2, 56395, Note_on_c, 0, 78, 103
2, 56397, Note_on_c, 0, 54, 77
2, 56399, Note_on_c, 0, 73, 89
2, 56401, Note_on_c, 0, 69, 0
2, 56410, Note_on_c, 0, 69, 85
2, 56568, Note_on_c, 0, 63, 87
2, 56739, Note_on_c, 0, 54, 0
2, 56749, Note_on_c, 0, 54, 68
2, 56753, Note_on_c, 0, 80, 104
2, 56924, Note_on_c, 0, 57, 0
2, 56929, Note_on_c, 0, 57, 84
2, 57077, Note_on_c, 0, 54, 0
2, 57085, Note_on_c, 0, 54, 83
2, 57100, Note_on_c, 0, 69, 0
2, 57111, Note_on_c, 0, 81, 100
2, 57111, Note_on_c, 0, 69, 84
2, 57113, Note_on_c, 0, 75, 95
2, 57115, Note_on_c, 0, 71, 92
2, 57262, Note_on_c, 0, 47, 0
2, 57269, Note_on_c, 0, 35, 0
2, 57271, Note_on_c, 0, 47, 90
2, 57274, Note_on_c, 0, 35, 90
2, 57499, Note_on_c, 0, 59, 77
2, 57574, Note_on_c, 0, 61, 78
2, 57630, Note_on_c, 0, 63, 0
2, 57634, Note_on_c, 0, 63, 87
2, 57638, Note_on_c, 0, 47, 0
2, 57649, Note_on_c, 0, 47, 79
2, 57714, Note_on_c, 0, 64, 82
2, 57768, Note_on_c, 0, 66, 86
2, 57828, Note_on_c, 0, 68, 90
2, 57899, Note_on_c, 0, 69, 0
2, 57906, Note_on_c, 0, 69, 85
2, 57960, Note_on_c, 0, 71, 0
2, 57967, Note_on_c, 0, 71, 83
2, 58007, Note_on_c, 0, 59, 0
2, 58007, Note_on_c, 0, 73, 0
2, 58013, Note_on_c, 0, 59, 94
2, 58018, Note_on_c, 0, 73, 71
2, 58053, Note_on_c, 0, 75, 0
2, 58064, Note_on_c, 0, 75, 84
2, 58117, Note_on_c, 0, 76, 90
2, 58183, Note_on_c, 0, 78, 0
2, 58192, Note_on_c, 0, 78, 82
2, 58229, Note_on_c, 0, 80, 0
2, 58239, Note_on_c, 0, 80, 85
2, 58306, Note_on_c, 0, 81, 0
2, 58311, Note_on_c, 0, 81, 86
2, 58352, Note_on_c, 0, 71, 0
2, 58361, Note_on_c, 0, 71, 89
2, 58369, Note_on_c, 0, 83, 86
2, 58416, Note_on_c, 0, 85, 91
2, 58459, Note_on_c, 0, 87, 84
2, 58510, Note_on_c, 0, 88, 94
2, 58566, Note_on_c, 0, 90, 91
2, 58611, Note_on_c, 0, 92, 89
2, 58701, Note_on_c, 0, 93, 95
2, 58775, Note_on_c, 0, 83, 0
2, 58781, Note_on_c, 0, 95, 109
2, 58786, Note_on_c, 0, 83, 97
2, 59520, Note_on_c, 0, 54, 0
2, 59520, Note_on_c, 0, 57, 0
2, 59520, Note_on_c, 0, 61, 0
2, 59888, Note_on_c, 0, 76, 0
2, 59894, Note_on_c, 0, 76, 104
2, 60157, Note_on_c, 0, 76, 0
2, 60165, Note_on_c, 0, 76, 104
2, 60395, Note_on_c, 0, 78, 0
2, 60401, Note_on_c, 0, 78, 101
2, 60679, Note_on_c, 0, 81, 0
2, 60687, Note_on_c, 0, 69, 0
2, 60689, Note_on_c, 0, 81, 100
2, 60695, Note_on_c, 0, 71, 0
2, 60695, Note_on_c, 0, 76, 0
2, 60698, Note_on_c, 0, 69, 91
2, 60698, Note_on_c, 0, 28, 88
2, 60699, Note_on_c, 0, 40, 86
2, 60700, Note_on_c, 0, 71, 89
2, 60704, Note_on_c, 0, 76, 87
2, 60713, Control_c, 0, 64, 0
2, 60723, Note_on_c, 0, 88, 0
2, 60729, Note_on_c, 0, 87, 0
2, 60729, Note_on_c, 0, 92, 0
2, 60730, Note_on_c, 0, 85, 0
2, 60733, Note_on_c, 0, 93, 0
2, 60733, Note_on_c, 0, 95, 0
2, 60741, Note_on_c, 0, 73, 0
2, 60741, Note_on_c, 0, 90, 0
2, 60756, Note_on_c, 0, 63, 0
2, 60756, Note_on_c, 0, 64, 0
2, 60756, Note_on_c, 0, 75, 0
2, 60764, Note_on_c, 0, 83, 0
2, 60771, Note_on_c, 0, 68, 0
2, 60771, Control_c, 0, 64, 127
2, 60779, Note_on_c, 0, 80, 0
2, 60794, Note_on_c, 0, 35, 0
2, 61107, Note_on_c, 0, 80, 92
2, 61110, Note_on_c, 0, 68, 86
2, 61125, Note_on_c, 0, 66, 0
2, 61309, Note_on_c, 0, 68, 0
2, 61309, Note_on_c, 0, 80, 0
2, 61316, Note_on_c, 0, 52, 66
2, 61320, Note_on_c, 0, 80, 92
2, 61320, Note_on_c, 0, 68, 92
2, 61324, Note_on_c, 0, 52, 0
2, 61506, Note_on_c, 0, 64, 89
2, 61509, Note_on_c, 0, 78, 0
2, 61516, Note_on_c, 0, 59, 0
2, 61518, Note_on_c, 0, 56, 79
2, 61518, Note_on_c, 0, 78, 96
2, 61520, Note_on_c, 0, 66, 91
2, 61520, Note_on_c, 0, 52, 73
2, 61523, Note_on_c, 0, 59, 70
2, 61908, Note_on_c, 0, 76, 0
2, 61914, Note_on_c, 0, 76, 99
2, 61916, Note_on_c, 0, 64, 0
2, 61922, Note_on_c, 0, 64, 81
2, 62254, Note_on_c, 0, 47, 0
2, 62315, Note_on_c, 0, 71, 0
2, 62319, Note_on_c, 0, 75, 101
2, 62325, Note_on_c, 0, 63, 92
2, 62326, Note_on_c, 0, 71, 81
2, 62331, Note_on_c, 0, 44, 89
2, 62334, Note_on_c, 0, 32, 84
2, 62348, Note_on_c, 0, 40, 0
2, 62349, Note_on_c, 0, 59, 0
2, 62349, Note_on_c, 0, 28, 0
2, 62350, Note_on_c, 0, 78, 0
2, 62350, Note_on_c, 0, 64, 0
2, 62350, Note_on_c, 0, 56, 0
2, 62350, Note_on_c, 0, 66, 0
2, 62351, Control_c, 0, 64, 0
2, 62351, Note_on_c, 0, 52, 0
2, 62361, Note_on_c, 0, 69, 0
2, 62361, Note_on_c, 0, 76, 0
2, 62361, Note_on_c, 0, 81, 0
2, 62369, Note_on_c, 0, 68, 0
2, 62369, Note_on_c, 0, 80, 0
2, 62415, Control_c, 0, 64, 127
2, 62492, Note_on_c, 0, 32, 0
2, 62714, Note_on_c, 0, 63, 0
2, 62714, Note_on_c, 0, 75, 0
2, 62719, Note_on_c, 0, 75, 96
2, 62721, Note_on_c, 0, 63, 83
2, 62911, Note_on_c, 0, 47, 74
2, 62913, Note_on_c, 0, 76, 97
2, 62918, Note_on_c, 0, 51, 65
2, 62922, Note_on_c, 0, 51, 0
2, 62928, Note_on_c, 0, 64, 76
2, 63104, Note_on_c, 0, 59, 87
2, 63110, Note_on_c, 0, 56, 79
2, 63111, Note_on_c, 0, 52, 74
2, 63275, Note_on_c, 0, 76, 0
2, 63286, Note_on_c, 0, 76, 100
2, 63467, Note_on_c, 0, 76, 0
2, 63477, Note_on_c, 0, 76, 96
2, 63670, Note_on_c, 0, 78, 95
2, 63874, Note_on_c, 0, 76, 0
2, 63876, Note_on_c, 0, 81, 100
2, 63877, Note_on_c, 0, 33, 87
2, 63878, Note_on_c, 0, 45, 87
2, 63879, Control_c, 0, 64, 0
2, 63884, Note_on_c, 0, 76, 92
2, 63885, Note_on_c, 0, 69, 92
2, 63886, Note_on_c, 0, 73, 88
2, 63894, Note_on_c, 0, 64, 0
2, 63894, Note_on_c, 0, 63, 0
2, 63895, Note_on_c, 0, 52, 0
2, 63895, Note_on_c, 0, 47, 0
2, 63895, Note_on_c, 0, 56, 0
2, 63895, Note_on_c, 0, 75, 0
2, 63895, Note_on_c, 0, 44, 0
2, 63895, Note_on_c, 0, 59, 0
2, 63912, Note_on_c, 0, 71, 0
2, 63920, Note_on_c, 0, 78, 0
2, 63951, Control_c, 0, 64, 127
2, 64277, Note_on_c, 0, 80, 97
2, 64280, Note_on_c, 0, 68, 90
2, 64304, Note_on_c, 0, 33, 0
2, 64463, Note_on_c, 0, 52, 67
2, 64648, Note_on_c, 0, 64, 88
2, 64650, Note_on_c, 0, 73, 0
2, 64650, Note_on_c, 0, 76, 0
2, 64653, Note_on_c, 0, 66, 93
2, 64653, Note_on_c, 0, 78, 101
2, 64654, Note_on_c, 0, 57, 80
2, 64655, Note_on_c, 0, 73, 81
2, 64655, Note_on_c, 0, 61, 85
2, 64656, Note_on_c, 0, 76, 91
2, 65026, Note_on_c, 0, 76, 0
2, 65032, Note_on_c, 0, 76, 81
2, 65230, Note_on_c, 0, 83, 101
2, 65232, Note_on_c, 0, 71, 96
2, 65373, Control_c, 0, 64, 0
2, 65376, Note_on_c, 0, 57, 0
2, 65376, Note_on_c, 0, 80, 0
2, 65377, Note_on_c, 0, 81, 0
2, 65377, Note_on_c, 0, 52, 0
2, 65378, Note_on_c, 0, 66, 0
2, 65378, Note_on_c, 0, 68, 0
2, 65380, Note_on_c, 0, 78, 0
2, 65380, Note_on_c, 0, 61, 0
2, 65381, Note_on_c, 0, 69, 0
2, 65387, Note_on_c, 0, 64, 0
2, 65395, Note_on_c, 0, 45, 0
2, 65405, Note_on_c, 0, 45, 90
2, 65406, Note_on_c, 0, 33, 92
2, 65448, Control_c, 0, 64, 127
2, 65771, Note_on_c, 0, 76, 0
2, 65780, Note_on_c, 0, 76, 94
2, 65794, Note_on_c, 0, 33, 0
2, 65963, Note_on_c, 0, 76, 0
2, 65971, Note_on_c, 0, 71, 0
2, 65973, Note_on_c, 0, 76, 98
2, 65980, Note_on_c, 0, 71, 89
2, 65980, Note_on_c, 0, 61, 84
2, 65982, Note_on_c, 0, 64, 82
2, 65984, Note_on_c, 0, 57, 79
2, 65986, Note_on_c, 0, 45, 0
2, 65991, Note_on_c, 0, 45, 79
2, 66362, Note_on_c, 0, 64, 0
2, 66367, Note_on_c, 0, 64, 86
2, 66539, Note_on_c, 0, 64, 0
2, 66547, Note_on_c, 0, 64, 87
2, 66551, Note_on_c, 0, 57, 0
2, 66551, Note_on_c, 0, 83, 0
2, 66551, Note_on_c, 0, 45, 0
2, 66557, Control_c, 0, 64, 0
2, 66558, Note_on_c, 0, 47, 90
2, 66560, Note_on_c, 0, 35, 92
2, 66562, Note_on_c, 0, 73, 0
2, 66585, Note_on_c, 0, 61, 0
2, 66616, Control_c, 0, 64, 127
2, 66931, Note_on_c, 0, 35, 0
2, 66931, Note_on_c, 0, 71, 0
2, 66938, Note_on_c, 0, 64, 0
2, 66941, Control_c, 0, 64, 0
2, 66942, Note_on_c, 0, 47, 0
2, 66950, Note_on_c, 0, 80, 106
2, 66952, Note_on_c, 0, 68, 100
2, 66953, Note_on_c, 0, 49, 96
2, 66954, Note_on_c, 0, 76, 0
2, 66955, Note_on_c, 0, 37, 96
2, 66958, Note_on_c, 0, 73, 91
2, 66960, Note_on_c, 0, 76, 83
2, 67031, Control_c, 0, 64, 127
2, 67358, Note_on_c, 0, 81, 99
2, 67363, Note_on_c, 0, 69, 89
2, 67507, Note_on_c, 0, 49, 0
2, 67516, Note_on_c, 0, 49, 77
2, 67722, Note_on_c, 0, 80, 0
2, 67729, Note_on_c, 0, 68, 0
2, 67732, Note_on_c, 0, 80, 104
2, 67734, Note_on_c, 0, 68, 100
2, 67737, Note_on_c, 0, 61, 89
2, 67739, Note_on_c, 0, 56, 82
2, 67740, Note_on_c, 0, 52, 71
2, 67750, Control_c, 0, 64, 0
2, 67775, Note_on_c, 0, 73, 0
2, 67776, Note_on_c, 0, 37, 0
2, 67776, Note_on_c, 0, 69, 0
2, 67778, Note_on_c, 0, 81, 0
2, 67814, Control_c, 0, 64, 127
2, 68106, Note_on_c, 0, 76, 0
2, 68113, Note_on_c, 0, 76, 86
2, 68117, Note_on_c, 0, 64, 73
2, 68298, Note_on_c, 0, 56, 0
2, 68303, Note_on_c, 0, 78, 103
2, 68305, Note_on_c, 0, 52, 0
2, 68309, Note_on_c, 0, 56, 65
2, 68309, Note_on_c, 0, 57, 66
2, 68310, Note_on_c, 0, 66, 87
2, 68310, Note_on_c, 0, 52, 61
2, 68311, Note_on_c, 0, 75, 85
2, 68316, Note_on_c, 0, 71, 77
2, 68487, Note_on_c, 0, 56, 0
2, 68489, Note_on_c, 0, 52, 0
2, 68490, Note_on_c, 0, 76, 0
2, 68491, Control_c, 0, 64, 0
2, 68491, Note_on_c, 0, 64, 0
2, 68492, Note_on_c, 0, 61, 0
2, 68497, Note_on_c, 0, 80, 0
2, 68505, Note_on_c, 0, 49, 0
2, 68505, Note_on_c, 0, 68, 0
2, 68506, Note_on_c, 0, 35, 93
2, 68544, Control_c, 0, 64, 127
2, 68682, Note_on_c, 0, 78, 0
2, 68693, Note_on_c, 0, 78, 88
2, 68887, Note_on_c, 0, 80, 93
2, 69058, Note_on_c, 0, 80, 0
2, 69067, Note_on_c, 0, 80, 96
2, 69069, Note_on_c, 0, 47, 78
2, 69250, Note_on_c, 0, 47, 0
2, 69250, Note_on_c, 0, 78, 0
2, 69258, Note_on_c, 0, 66, 0
2, 69258, Note_on_c, 0, 75, 0
2, 69260, Note_on_c, 0, 78, 104
2, 69261, Note_on_c, 0, 47, 85
2, 69262, Note_on_c, 0, 59, 86
2, 69265, Note_on_c, 0, 54, 84
2, 69265, Note_on_c, 0, 71, 0
2, 69268, Note_on_c, 0, 51, 85
2, 69268, Note_on_c, 0, 66, 89
2, 69269, Note_on_c, 0, 75, 79
2, 69270, Note_on_c, 0, 71, 71
2, 69634, Note_on_c, 0, 75, 0
2, 69645, Note_on_c, 0, 75, 90
2, 69652, Note_on_c, 0, 63, 79
2, 69837, Note_on_c, 0, 76, 107
2, 69841, Note_on_c, 0, 54, 0
2, 69843, Note_on_c, 0, 64, 93
2, 69846, Note_on_c, 0, 73, 87
2, 69847, Note_on_c, 0, 69, 82
2, 69848, Note_on_c, 0, 54, 73
2, 69992, Control_c, 0, 64, 0
2, 69992, Note_on_c, 0, 51, 0
2, 69993, Note_on_c, 0, 66, 0
2, 69993, Note_on_c, 0, 59, 0
2, 69993, Note_on_c, 0, 80, 0
2, 69993, Note_on_c, 0, 71, 0
2, 69993, Note_on_c, 0, 54, 0
2, 69993, Note_on_c, 0, 75, 0
2, 69993, Note_on_c, 0, 35, 0
2, 69994, Note_on_c, 0, 78, 0
2, 69995, Note_on_c, 0, 63, 0
2, 69995, Note_on_c, 0, 57, 0
2, 70003, Note_on_c, 0, 47, 0
2, 70011, Note_on_c, 0, 33, 96
2, 70012, Note_on_c, 0, 45, 90
2, 70095, Control_c, 0, 64, 127
2, 70233, Note_on_c, 0, 33, 0
2, 70385, Note_on_c, 0, 52, 70
2, 70579, Note_on_c, 0, 64, 0
2, 70586, Note_on_c, 0, 64, 93
2, 70586, Note_on_c, 0, 61, 89
2, 70586, Note_on_c, 0, 52, 0
2, 70589, Note_on_c, 0, 57, 83
2, 70594, Note_on_c, 0, 52, 75
2, 70643, Control_c, 0, 64, 0
2, 70671, Control_c, 0, 64, 127
2, 70955, Note_on_c, 0, 45, 0
2, 70966, Note_on_c, 0, 45, 75
2, 71139, Note_on_c, 0, 57, 0
2, 71141, Note_on_c, 0, 83, 102
2, 71147, Note_on_c, 0, 57, 84
2, 71147, Note_on_c, 0, 52, 0
2, 71148, Note_on_c, 0, 71, 96
2, 71153, Note_on_c, 0, 52, 80
2, 71153, Note_on_c, 0, 49, 85
2, 71189, Control_c, 0, 64, 0
2, 71232, Control_c, 0, 64, 127
2, 71324, Note_on_c, 0, 76, 0
2, 71331, Note_on_c, 0, 64, 0
2, 71334, Note_on_c, 0, 76, 102
2, 71335, Note_on_c, 0, 64, 90
2, 71528, Note_on_c, 0, 78, 106
2, 71535, Note_on_c, 0, 47, 98
2, 71536, Note_on_c, 0, 66, 97
2, 71536, Note_on_c, 0, 75, 94
2, 71537, Note_on_c, 0, 35, 94
2, 71556, Control_c, 0, 64, 0
2, 71559, Note_on_c, 0, 49, 0
2, 71560, Note_on_c, 0, 61, 0
2, 71560, Note_on_c, 0, 69, 0
2, 71561, Note_on_c, 0, 45, 0
2, 71562, Note_on_c, 0, 64, 0
2, 71569, Note_on_c, 0, 83, 0
2, 71577, Note_on_c, 0, 52, 0
2, 71577, Note_on_c, 0, 57, 0
2, 71577, Note_on_c, 0, 73, 0
2, 71577, Note_on_c, 0, 76, 0
2, 71639, Control_c, 0, 64, 127
2, 71892, Note_on_c, 0, 71, 0
2, 71899, Note_on_c, 0, 83, 84
2, 71899, Note_on_c, 0, 71, 96
2, 71904, Note_on_c, 0, 59, 90
2, 72087, Note_on_c, 0, 76, 80
2, 72087, Note_on_c, 0, 64, 84
2, 72089, Note_on_c, 0, 52, 83
2, 72253, Note_on_c, 0, 66, 0
2, 72253, Note_on_c, 0, 78, 0
2, 72257, Note_on_c, 0, 54, 91
2, 72258, Note_on_c, 0, 78, 87
2, 72259, Note_on_c, 0, 66, 94
2, 72476, Note_on_c, 0, 76, 0
2, 72485, Note_on_c, 0, 76, 100
2, 72691, Note_on_c, 0, 47, 0
2, 72691, Note_on_c, 0, 76, 0
2, 72698, Note_on_c, 0, 35, 0
2, 72701, Note_on_c, 0, 76, 104
2, 72702, Note_on_c, 0, 47, 97
2, 72703, Note_on_c, 0, 35, 96
2, 72726, Note_on_c, 0, 64, 0
2, 72726, Note_on_c, 0, 54, 0
2, 72727, Note_on_c, 0, 52, 0
2, 72727, Note_on_c, 0, 75, 0
2, 72727, Note_on_c, 0, 66, 0
2, 72728, Note_on_c, 0, 59, 0
2, 72729, Control_c, 0, 64, 0
2, 72744, Note_on_c, 0, 83, 0
2, 72768, Control_c, 0, 64, 127
2, 72898, Note_on_c, 0, 78, 0
2, 72909, Note_on_c, 0, 78, 91
2, 73120, Note_on_c, 0, 28, 94
2, 73121, Note_on_c, 0, 71, 0
2, 73121, Note_on_c, 0, 76, 0
2, 73123, Note_on_c, 0, 40, 93
2, 73124, Note_on_c, 0, 81, 105
2, 73126, Note_on_c, 0, 69, 102
2, 73126, Note_on_c, 0, 71, 97
2, 73131, Note_on_c, 0, 76, 95
2, 73135, Control_c, 0, 64, 0
2, 73182, Control_c, 0, 64, 127
2, 73251, Note_on_c, 0, 35, 0
2, 73487, Note_on_c, 0, 80, 101
2, 73493, Note_on_c, 0, 68, 97
2, 73493, Note_on_c, 0, 52, 79
2, 73674, Note_on_c, 0, 76, 0
2, 73683, Note_on_c, 0, 64, 97
2, 73684, Note_on_c, 0, 76, 88
2, 73686, Note_on_c, 0, 56, 85
2, 73686, Note_on_c, 0, 59, 91
2, 73858, Note_on_c, 0, 78, 0
2, 73869, Note_on_c, 0, 78, 102
2, 73870, Note_on_c, 0, 66, 94
2, 74065, Note_on_c, 0, 52, 0
2, 74065, Note_on_c, 0, 66, 0
2, 74065, Note_on_c, 0, 78, 0
2, 74070, Note_on_c, 0, 78, 97
2, 74071, Note_on_c, 0, 52, 81
2, 74072, Note_on_c, 0, 66, 89
2, 74242, Note_on_c, 0, 56, 0
2, 74242, Note_on_c, 0, 59, 0
2, 74242, Note_on_c, 0, 76, 0
2, 74246, Note_on_c, 0, 71, 0
2, 74249, Note_on_c, 0, 59, 85
2, 74250, Note_on_c, 0, 64, 0
2, 74252, Note_on_c, 0, 56, 90
2, 74253, Note_on_c, 0, 76, 100
2, 74254, Note_on_c, 0, 64, 93
2, 74261, Note_on_c, 0, 68, 0
2, 74426, Note_on_c, 0, 76, 0
2, 74434, Note_on_c, 0, 64, 0
2, 74435, Note_on_c, 0, 76, 94
2, 74440, Note_on_c, 0, 64, 84
2, 74577, Note_on_c, 0, 28, 0
2, 74578, Control_c, 0, 64, 0
2, 74579, Note_on_c, 0, 47, 0
2, 74579, Note_on_c, 0, 40, 0
2, 74580, Note_on_c, 0, 81, 0
2, 74580, Note_on_c, 0, 80, 0
2, 74581, Note_on_c, 0, 69, 0
2, 74581, Note_on_c, 0, 52, 0
2, 74581, Note_on_c, 0, 66, 0
2, 74581, Note_on_c, 0, 64, 0
2, 74581, Note_on_c, 0, 76, 0
2, 74581, Note_on_c, 0, 78, 0
2, 74581, Note_on_c, 0, 59, 0
2, 74595, Note_on_c, 0, 56, 0
2, 74617, Note_on_c, 0, 75, 108
2, 74618, Note_on_c, 0, 44, 101
2, 74621, Note_on_c, 0, 32, 94
2, 74621, Note_on_c, 0, 63, 104
2, 74625, Note_on_c, 0, 71, 87
2, 74657, Note_on_c, 0, 32, 0
2, 74664, Control_c, 0, 64, 127
2, 74795, Note_on_c, 0, 75, 0
2, 74803, Note_on_c, 0, 63, 0
2, 74804, Note_on_c, 0, 75, 94
2, 74811, Note_on_c, 0, 63, 88
2, 74986, Note_on_c, 0, 47, 77
2, 74987, Note_on_c, 0, 75, 0
2, 74995, Note_on_c, 0, 63, 0
2, 74998, Note_on_c, 0, 75, 94
2, 74999, Note_on_c, 0, 51, 68
2, 75003, Note_on_c, 0, 63, 77
2, 75183, Note_on_c, 0, 76, 104
2, 75189, Note_on_c, 0, 64, 96
2, 75191, Note_on_c, 0, 59, 94
2, 75194, Note_on_c, 0, 56, 88
2, 75197, Note_on_c, 0, 52, 84
2, 75540, Note_on_c, 0, 47, 0
2, 75540, Note_on_c, 0, 76, 0
2, 75545, Note_on_c, 0, 47, 82
2, 75548, Note_on_c, 0, 76, 105
2, 75724, Note_on_c, 0, 52, 0
2, 75724, Note_on_c, 0, 56, 0
2, 75724, Note_on_c, 0, 76, 0
2, 75730, Note_on_c, 0, 56, 94
2, 75731, Note_on_c, 0, 76, 100
2, 75732, Note_on_c, 0, 52, 87
2, 75735, Note_on_c, 0, 64, 0
2, 75916, Note_on_c, 0, 78, 99
2, 76083, Note_on_c, 0, 71, 0
2, 76083, Note_on_c, 0, 47, 0
2, 76084, Note_on_c, 0, 51, 0
2, 76084, Note_on_c, 0, 63, 0
2, 76084, Note_on_c, 0, 56, 0
2, 76084, Note_on_c, 0, 78, 0
2, 76084, Control_c, 0, 64, 0
2, 76085, Note_on_c, 0, 52, 0
2, 76085, Note_on_c, 0, 59, 0
2, 76093, Note_on_c, 0, 44, 0
2, 76101, Note_on_c, 0, 75, 0
2, 76101, Note_on_c, 0, 76, 0
2, 76105, Note_on_c, 0, 45, 96
2, 76107, Note_on_c, 0, 33, 90
2, 76107, Note_on_c, 0, 81, 104
2, 76111, Note_on_c, 0, 76, 101
2, 76112, Note_on_c, 0, 69, 101
2, 76113, Note_on_c, 0, 73, 101
2, 76147, Control_c, 0, 64, 127
2, 76151, Note_on_c, 0, 33, 0
2, 76454, Note_on_c, 0, 45, 0
2, 76465, Note_on_c, 0, 45, 83
2, 76465, Note_on_c, 0, 80, 106
2, 76467, Note_on_c, 0, 68, 103
2, 76467, Note_on_c, 0, 52, 83
2, 76661, Note_on_c, 0, 76, 0
2, 76665, Note_on_c, 0, 64, 95
2, 76665, Note_on_c, 0, 57, 81
2, 76666, Note_on_c, 0, 76, 90
2, 76666, Note_on_c, 0, 61, 87
2, 76852, Note_on_c, 0, 78, 106
2, 76855, Note_on_c, 0, 66, 97
2, 77030, Note_on_c, 0, 52, 0
2, 77034, Note_on_c, 0, 52, 76
2, 77207, Note_on_c, 0, 57, 0
2, 77207, Note_on_c, 0, 61, 0
2, 77213, Note_on_c, 0, 61, 85
2, 77214, Note_on_c, 0, 73, 0
2, 77217, Note_on_c, 0, 57, 86
2, 77222, Note_on_c, 0, 69, 0
2, 77223, Note_on_c, 0, 73, 83
2, 77230, Note_on_c, 0, 76, 0
2, 77233, Note_on_c, 0, 69, 72
2, 77234, Note_on_c, 0, 76, 92
2, 77419, Note_on_c, 0, 83, 101
2, 77424, Note_on_c, 0, 71, 95
2, 77568, Note_on_c, 0, 45, 0
2, 77571, Note_on_c, 0, 33, 97
2, 77572, Note_on_c, 0, 45, 97
2, 77928, Note_on_c, 0, 76, 0
2, 77936, Note_on_c, 0, 52, 0
2, 77937, Note_on_c, 0, 76, 96
2, 77940, Note_on_c, 0, 52, 74
2, 78120, Note_on_c, 0, 64, 0
2, 78120, Note_on_c, 0, 76, 0
2, 78128, Note_on_c, 0, 57, 0
2, 78128, Note_on_c, 0, 61, 0
2, 78128, Note_on_c, 0, 71, 0
2, 78128, Note_on_c, 0, 76, 101
2, 78131, Note_on_c, 0, 64, 89
2, 78133, Note_on_c, 0, 61, 91
2, 78134, Note_on_c, 0, 57, 88
2, 78135, Note_on_c, 0, 71, 91
2, 78489, Note_on_c, 0, 64, 0
2, 78495, Note_on_c, 0, 64, 94
2, 78497, Note_on_c, 0, 52, 0
2, 78507, Note_on_c, 0, 52, 77
2, 78696, Note_on_c, 0, 64, 0
2, 78696, Note_on_c, 0, 76, 0
2, 78700, Note_on_c, 0, 59, 102
2, 78703, Note_on_c, 0, 47, 95
2, 78706, Note_on_c, 0, 76, 85
2, 78708, Note_on_c, 0, 64, 86
2, 78708, Note_on_c, 0, 68, 0
2, 78708, Note_on_c, 0, 81, 0
2, 78708, Note_on_c, 0, 80, 0
2, 78708, Note_on_c, 0, 73, 0
2, 78708, Note_on_c, 0, 69, 0
2, 78709, Note_on_c, 0, 33, 0
2, 78709, Note_on_c, 0, 78, 0
2, 78710, Note_on_c, 0, 45, 0
2, 78711, Note_on_c, 0, 57, 0
2, 78711, Note_on_c, 0, 83, 0
2, 78711, Control_c, 0, 64, 0
2, 78711, Note_on_c, 0, 61, 0
2, 78712, Note_on_c, 0, 66, 0
2, 78735, Control_c, 0, 64, 127
2, 78743, Note_on_c, 0, 71, 0
2, 78865, Note_on_c, 0, 64, 0
2, 79078, Control_c, 0, 64, 0
2, 79082, Note_on_c, 0, 47, 0
2, 79083, Note_on_c, 0, 59, 0
2, 79088, Note_on_c, 0, 52, 0
2, 79101, Note_on_c, 0, 80, 108
2, 79104, Note_on_c, 0, 76, 0
2, 79107, Note_on_c, 0, 37, 98
2, 79107, Note_on_c, 0, 49, 100
2, 79107, Note_on_c, 0, 68, 102
2, 79114, Note_on_c, 0, 76, 93
2, 79114, Note_on_c, 0, 73, 96
2, 79142, Control_c, 0, 64, 127
2, 79480, Note_on_c, 0, 49, 0
2, 79481, Note_on_c, 0, 81, 98
2, 79484, Note_on_c, 0, 49, 84
2, 79486, Note_on_c, 0, 69, 91
2, 79680, Note_on_c, 0, 49, 0
2, 79682, Note_on_c, 0, 61, 99
2, 79683, Note_on_c, 0, 56, 84
2, 79683, Note_on_c, 0, 52, 70
2, 79691, Note_on_c, 0, 49, 77
2, 79856, Note_on_c, 0, 68, 0
2, 79856, Note_on_c, 0, 80, 0
2, 79863, Note_on_c, 0, 80, 107
2, 79866, Note_on_c, 0, 68, 104
2, 80098, Note_on_c, 0, 50, 60
2, 80240, Note_on_c, 0, 76, 0
2, 80245, Note_on_c, 0, 76, 102
2, 80256, Note_on_c, 0, 56, 0
2, 80257, Note_on_c, 0, 64, 87
2, 80263, Note_on_c, 0, 52, 0
2, 80267, Note_on_c, 0, 56, 83
2, 80267, Note_on_c, 0, 52, 73
2, 80401, Note_on_c, 0, 50, 0
2, 80443, Note_on_c, 0, 78, 107
2, 80444, Note_on_c, 0, 66, 95
2, 80446, Note_on_c, 0, 75, 90
2, 80450, Note_on_c, 0, 71, 84
2, 80607, Note_on_c, 0, 56, 0
2, 80607, Note_on_c, 0, 49, 0
2, 80607, Note_on_c, 0, 52, 0
2, 80608, Note_on_c, 0, 81, 0
2, 80609, Note_on_c, 0, 37, 0
2, 80611, Note_on_c, 0, 80, 0
2, 80611, Note_on_c, 0, 68, 0
2, 80611, Control_c, 0, 64, 0
2, 80611, Note_on_c, 0, 69, 0
2, 80611, Note_on_c, 0, 73, 0
2, 80611, Note_on_c, 0, 76, 0
2, 80611, Note_on_c, 0, 61, 0
2, 80611, Note_on_c, 0, 64, 0
2, 80626, Note_on_c, 0, 35, 97
2, 80647, Control_c, 0, 64, 127
2, 80808, Note_on_c, 0, 78, 0
2, 80815, Note_on_c, 0, 78, 100
2, 80996, Note_on_c, 0, 80, 101
2, 80998, Note_on_c, 0, 47, 88
2, 81177, Note_on_c, 0, 80, 0
2, 81185, Note_on_c, 0, 78, 0
2, 81189, Note_on_c, 0, 80, 95
2, 81195, Note_on_c, 0, 59, 95
2, 81196, Note_on_c, 0, 78, 89
2, 81197, Note_on_c, 0, 54, 77
2, 81198, Note_on_c, 0, 51, 83
2, 81369, Note_on_c, 0, 78, 0
2, 81377, Note_on_c, 0, 66, 0
2, 81380, Note_on_c, 0, 78, 108
2, 81381, Note_on_c, 0, 66, 99
2, 81561, Note_on_c, 0, 47, 0
2, 81561, Note_on_c, 0, 59, 0
2, 81567, Note_on_c, 0, 47, 90
2, 81570, Note_on_c, 0, 59, 77
2, 81753, Note_on_c, 0, 51, 0
2, 81761, Note_on_c, 0, 51, 84
2, 81761, Note_on_c, 0, 54, 0
2, 81761, Note_on_c, 0, 75, 0
2, 81766, Note_on_c, 0, 54, 77
2, 81772, Note_on_c, 0, 75, 99
2, 81779, Note_on_c, 0, 63, 93
2, 81975, Note_on_c, 0, 76, 108
2, 81982, Note_on_c, 0, 64, 93
2, 81985, Control_c, 0, 64, 0
2, 81986, Note_on_c, 0, 69, 93
2, 81987, Note_on_c, 0, 73, 96
2, 81997, Note_on_c, 0, 51, 0
2, 81997, Note_on_c, 0, 54, 0
2, 81998, Note_on_c, 0, 59, 0
2, 81998, Note_on_c, 0, 78, 0
2, 82000, Note_on_c, 0, 75, 0
2, 82000, Note_on_c, 0, 63, 0
2, 82001, Note_on_c, 0, 66, 0
2, 82002, Note_on_c, 0, 80, 0
2, 82002, Note_on_c, 0, 47, 0
2, 82014, Note_on_c, 0, 71, 0
2, 82053, Note_on_c, 0, 35, 0
2, 82129, Control_c, 0, 64, 127
2, 82138, Note_on_c, 0, 33, 91
2, 82139, Note_on_c, 0, 45, 88
2, 82526, Note_on_c, 0, 57, 73
2, 82711, Note_on_c, 0, 61, 89
2, 82913, Note_on_c, 0, 64, 0
2, 82913, Note_on_c, 0, 76, 0
2, 82920, Note_on_c, 0, 76, 77
2, 82921, Note_on_c, 0, 64, 86
2, 83143, Note_on_c, 0, 69, 0
2, 83148, Note_on_c, 0, 69, 84
2, 83149, Note_on_c, 0, 81, 76
2, 83353, Note_on_c, 0, 83, 94
2, 83358, Note_on_c, 0, 73, 0
2, 83368, Note_on_c, 0, 73, 83
2, 83617, Note_on_c, 0, 78, 101
2, 83780, Note_on_c, 0, 47, 57
2, 83845, Note_on_c, 0, 54, 62
2, 83846, Note_on_c, 0, 71, 74
2, 83852, Note_on_c, 0, 59, 71
2, 83870, Note_on_c, 0, 75, 79
2, 83908, Control_c, 0, 64, 0
2, 83915, Note_on_c, 0, 33, 0
2, 83916, Note_on_c, 0, 76, 0
2, 83916, Note_on_c, 0, 61, 0
2, 83916, Note_on_c, 0, 78, 0
2, 83917, Note_on_c, 0, 45, 0
2, 83917, Note_on_c, 0, 57, 0
2, 83917, Note_on_c, 0, 69, 0
2, 83917, Note_on_c, 0, 73, 0
2, 83918, Note_on_c, 0, 64, 0
2, 83920, Note_on_c, 0, 81, 0
2, 83920, Note_on_c, 0, 83, 0
2, 84293, Note_on_c, 0, 80, 85
2, 84540, Note_on_c, 0, 78, 85
2, 85278, Note_on_c, 0, 80, 0
2, 85285, Note_on_c, 0, 80, 81
2, 85610, Note_on_c, 0, 76, 81
2, 85632, Note_on_c, 0, 71, 0
2, 85637, Note_on_c, 0, 68, 52
2, 85638, Note_on_c, 0, 71, 50
2, 85724, Control_c, 0, 64, 127
2, 85800, Control_c, 0, 64, 0
2, 85941, Note_on_c, 0, 40, 52
2, 85973, Note_on_c, 0, 78, 0
2, 85974, Note_on_c, 0, 54, 0
2, 85979, Note_on_c, 0, 75, 0
2, 85979, Note_on_c, 0, 59, 0
2, 86169, Note_on_c, 0, 47, 0
2, 86175, Note_on_c, 0, 47, 64
2, 86373, Note_on_c, 0, 52, 62
2, 86566, Note_on_c, 0, 56, 66
2, 86653, Control_c, 0, 64, 127
2, 86972, Note_on_c, 0, 64, 66
2, 87182, Note_on_c, 0, 59, 61
2, 87367, Note_on_c, 0, 56, 0
2, 87373, Note_on_c, 0, 56, 69
2, 87582, Note_on_c, 0, 40, 0
2, 87592, Note_on_c, 0, 40, 67
2, 87640, Note_on_c, 0, 52, 0
2, 87648, Note_on_c, 0, 64, 0
2, 87651, Note_on_c, 0, 47, 0
2, 87652, Note_on_c, 0, 59, 0
2, 87655, Control_c, 0, 64, 0
2, 87662, Note_on_c, 0, 56, 0
2, 87682, Note_on_c, 0, 80, 0
2, 87771, Note_on_c, 0, 49, 71
2, 87960, Note_on_c, 0, 52, 71
2, 87974, Control_c, 0, 64, 127
2, 88175, Note_on_c, 0, 57, 67
2, 88181, Note_on_c, 0, 68, 0
2, 88621, Note_on_c, 0, 64, 59
2, 88818, Note_on_c, 0, 61, 75
2, 89026, Note_on_c, 0, 57, 0
2, 89031, Note_on_c, 0, 57, 67
2, 89241, Note_on_c, 0, 40, 0
2, 89246, Note_on_c, 0, 40, 75
2, 89325, Note_on_c, 0, 52, 0
2, 89329, Note_on_c, 0, 49, 0
2, 89329, Note_on_c, 0, 57, 0
2, 89329, Note_on_c, 0, 61, 0
2, 89333, Note_on_c, 0, 76, 0
2, 89335, Control_c, 0, 64, 0
2, 89456, Note_on_c, 0, 71, 0
2, 89471, Note_on_c, 0, 48, 69
2, 89594, Control_c, 0, 64, 127
2, 89682, Note_on_c, 0, 52, 76
2, 89912, Note_on_c, 0, 57, 72
2, 90355, Note_on_c, 0, 64, 0
2, 90365, Note_on_c, 0, 64, 56
2, 90620, Note_on_c, 0, 71, 87
2, 90622, Note_on_c, 0, 60, 63
2, 90854, Note_on_c, 0, 57, 0
2, 90865, Note_on_c, 0, 57, 65
2, 90866, Note_on_c, 0, 66, 89
2, 91129, Note_on_c, 0, 35, 73
2, 91160, Control_c, 0, 64, 0
2, 91180, Note_on_c, 0, 57, 0
2, 91180, Note_on_c, 0, 40, 0
2, 91181, Note_on_c, 0, 60, 0
2, 91181, Note_on_c, 0, 52, 0
2, 91181, Note_on_c, 0, 48, 0
2, 91181, Note_on_c, 0, 64, 0
2, 91183, Note_on_c, 0, 71, 0
2, 91345, Control_c, 0, 64, 127
2, 91403, Note_on_c, 0, 47, 62
2, 91648, Note_on_c, 0, 68, 86
2, 91935, Note_on_c, 0, 54, 50
2, 92236, Note_on_c, 0, 66, 0
2, 92244, Note_on_c, 0, 66, 89
2, 92282, Control_c, 0, 64, 0
2, 92390, Control_c, 0, 64, 127
2, 92616, Note_on_c, 0, 59, 69
2, 92989, Note_on_c, 0, 68, 0
2, 93000, Note_on_c, 0, 68, 81
2, 93603, Note_on_c, 0, 47, 0
2, 93609, Note_on_c, 0, 47, 40
2, 94080, Note_on_c, 0, 54, 0
2, 94458, Note_on_c, 0, 56, 49
2, 94467, Note_on_c, 0, 28, 49
2, 94468, Note_on_c, 0, 64, 69
2, 94470, Note_on_c, 0, 40, 39
2, 94471, Note_on_c, 0, 59, 0
2, 94478, Note_on_c, 0, 59, 59
2, 94536, Control_c, 0, 64, 0
2, 94550, Note_on_c, 0, 66, 0
2, 94552, Note_on_c, 0, 35, 0
2, 94686, Note_on_c, 0, 68, 0
2, 94894, Control_c, 0, 64, 127
2, 95024, Note_on_c, 0, 40, 0
2, 95035, Note_on_c, 0, 40, 35
2, 95385, Note_on_c, 0, 47, 0
2, 95392, Note_on_c, 0, 47, 50
2, 95647, Note_on_c, 0, 52, 49
2, 95867, Note_on_c, 0, 54, 48
2, 96038, Note_on_c, 0, 56, 0
2, 96043, Note_on_c, 0, 56, 51
2, 96238, Note_on_c, 0, 59, 0
2, 96247, Note_on_c, 0, 59, 58
2, 96437, Note_on_c, 0, 64, 0
2, 96442, Note_on_c, 0, 64, 41
2, 96636, Note_on_c, 0, 66, 63
2, 96652, Note_on_c, 0, 28, 0
2, 96833, Note_on_c, 0, 68, 71
2, 97022, Note_on_c, 0, 71, 65
2, 97248, Note_on_c, 0, 76, 66
2, 97449, Note_on_c, 0, 78, 75
2, 97705, Note_on_c, 0, 80, 82
2, 97920, Note_on_c, 0, 40, 0
2, 97920, Note_on_c, 0, 52, 0
2, 98001, Note_on_c, 0, 83, 77
2, 98385, Note_on_c, 0, 88, 84
2, 98994, Note_on_c, 0, 95, 103
2, 99033, Control_c, 0, 64, 0
2, 99056, Note_on_c, 0, 54, 0
2, 99118, Control_c, 0, 64, 127
2, 100001, Note_on_c, 0, 47, 0
2, 100654, Note_on_c, 0, 56, 0
2, 100853, Note_on_c, 0, 59, 0
2, 101053, Note_on_c, 0, 64, 0
2, 101245, Note_on_c, 0, 66, 0
2, 101445, Note_on_c, 0, 68, 0
2, 101629, Note_on_c, 0, 71, 0
2, 101760, Note_on_c, 0, 76, 0
2, 101760, Note_on_c, 0, 78, 0
2, 101760, Note_on_c, 0, 80, 0
2, 101760, Note_on_c, 0, 83, 0
2, 101760, Note_on_c, 0, 88, 0
2, 101760, Note_on_c, 0, 95, 0
2, 101854, Control_c, 0, 64, 0
2, 101855, End_track
0, 0, End_of_file
