0, 0, Header, 1, 2, 384
1, 0, Start_track
1, 0, Tempo, 500000
1, 0, Time_signature, 4, 2, 24, 8
1, 1, End_track
2, 0, Start_track
2, 2467, Note_on_c, 0, 74, 67
2, 2468, Note_on_c, 0, 77, 73
2, 2469, Note_on_c, 0, 81, 66
2, 2472, Control_c, 0, 64, 127
2, 2476, Note_on_c, 0, 89, 85
2, 3129, Note_on_c, 0, 93, 89
2, 3763, Note_on_c, 0, 93, 0
2, 3776, Note_on_c, 0, 76, 72
2, 3777, Note_on_c, 0, 88, 86
2, 3778, Note_on_c, 0, 81, 0
2, 3782, Note_on_c, 0, 81, 65
2, 3785, Note_on_c, 0, 72, 65
2, 3790, Control_c, 0, 64, 0
2, 3793, Note_on_c, 0, 74, 0
2, 3809, Note_on_c, 0, 77, 0
2, 3855, Note_on_c, 0, 89, 0
2, 4239, Control_c, 0, 64, 127
2, 5091, Note_on_c, 0, 86, 82
2, 5099, Note_on_c, 0, 81, 0
2, 5105, Note_on_c, 0, 81, 59
2, 5111, Control_c, 0, 64, 0
2, 5111, Note_on_c, 0, 70, 50
2, 5111, Note_on_c, 0, 77, 59
2, 5115, Note_on_c, 0, 76, 0
2, 5117, Note_on_c, 0, 88, 0
2, 5117, Note_on_c, 0, 72, 0
2, 5406, Control_c, 0, 64, 127
2, 6983, Note_on_c, 0, 57, 54
2, 7287, Note_on_c, 0, 58, 64
2, 7321, Control_c, 0, 64, 0
2, 7326, Control_c, 0, 64, 127
2, 7597, Note_on_c, 0, 60, 80
2, 7877, Note_on_c, 0, 62, 81
2, 8185, Note_on_c, 0, 46, 62
2, 8500, Note_on_c, 0, 53, 62
2, 8801, Note_on_c, 0, 57, 0
2, 8809, Note_on_c, 0, 57, 59
2, 9600, Note_on_c, 0, 58, 0
2, 9600, Note_on_c, 0, 60, 0
2, 9600, Note_on_c, 0, 70, 0
2, 9600, Note_on_c, 0, 77, 0
2, 9600, Note_on_c, 0, 81, 0
2, 9600, Note_on_c, 0, 86, 0
2, 9805, Note_on_c, 0, 48, 80
2, 9984, Control_c, 0, 64, 0
2, 10068, Control_c, 0, 64, 127
2, 10095, Note_on_c, 0, 65, 92
2, 10246, Note_on_c, 0, 64, 81
2, 10414, Note_on_c, 0, 65, 0
2, 10421, Note_on_c, 0, 57, 0
2, 10421, Note_on_c, 0, 62, 0
2, 10422, Note_on_c, 0, 65, 84
2, 10429, Note_on_c, 0, 60, 62
2, 10431, Note_on_c, 0, 62, 66
2, 10431, Note_on_c, 0, 57, 63
2, 10433, Note_on_c, 0, 45, 49
2, 10434, Note_on_c, 0, 50, 56
2, 10441, Note_on_c, 0, 48, 0
2, 10441, Note_on_c, 0, 53, 0
2, 10442, Note_on_c, 0, 46, 0
2, 10443, Note_on_c, 0, 64, 0
2, 10445, Control_c, 0, 64, 0
2, 10467, Note_on_c, 0, 45, 0
2, 10606, Control_c, 0, 64, 127
2, 10782, Note_on_c, 0, 57, 0
2, 11065, Note_on_c, 0, 69, 93
2, 11691, Note_on_c, 0, 72, 86
2, 11696, Note_on_c, 0, 69, 0
2, 11699, Note_on_c, 0, 64, 69
2, 11704, Note_on_c, 0, 48, 61
2, 11706, Note_on_c, 0, 69, 72
2, 11708, Note_on_c, 0, 65, 0
2, 11709, Note_on_c, 0, 57, 53
2, 11709, Note_on_c, 0, 50, 0
2, 11714, Note_on_c, 0, 67, 63
2, 11717, Control_c, 0, 64, 0
2, 11719, Note_on_c, 0, 62, 0
2, 11727, Note_on_c, 0, 60, 0
2, 11857, Control_c, 0, 64, 127
2, 12340, Note_on_c, 0, 55, 57
2, 12648, Note_on_c, 0, 64, 0
2, 12658, Note_on_c, 0, 64, 86
2, 12931, Note_on_c, 0, 62, 58
2, 12956, Note_on_c, 0, 69, 0
2, 12966, Note_on_c, 0, 69, 76
2, 12966, Note_on_c, 0, 65, 67
2, 12995, Note_on_c, 0, 74, 89
2, 12997, Note_on_c, 0, 46, 60
2, 13001, Note_on_c, 0, 64, 0
2, 13002, Note_on_c, 0, 57, 0
2, 13002, Note_on_c, 0, 48, 0
2, 13003, Note_on_c, 0, 72, 0
2, 13003, Note_on_c, 0, 55, 0
2, 13003, Control_c, 0, 64, 0
2, 13004, Note_on_c, 0, 67, 0
2, 13171, Control_c, 0, 64, 127
2, 13678, Note_on_c, 0, 62, 0
2, 13985, Note_on_c, 0, 53, 59
2, 15003, Note_on_c, 0, 58, 55
2, 15328, Note_on_c, 0, 57, 52
2, 15664, Note_on_c, 0, 98, 92
2, 15667, Note_on_c, 0, 65, 0
2, 15667, Note_on_c, 0, 74, 0
2, 15671, Note_on_c, 0, 86, 80
2, 15676, Note_on_c, 0, 62, 53
2, 15676, Note_on_c, 0, 74, 61
2, 15677, Note_on_c, 0, 65, 57
2, 17280, Note_on_c, 0, 53, 0
2, 17280, Note_on_c, 0, 57, 0
2, 17280, Note_on_c, 0, 58, 0
2, 17280, Note_on_c, 0, 69, 0
2, 17602, Note_on_c, 0, 46, 0
2, 17745, Control_c, 0, 64, 0
2, 17746, Note_on_c, 0, 86, 0
2, 17749, Note_on_c, 0, 62, 0
2, 17752, Note_on_c, 0, 98, 0
2, 17752, Note_on_c, 0, 74, 0
2, 17771, Note_on_c, 0, 65, 0
2, 18242, Note_on_c, 0, 77, 77
2, 18398, Note_on_c, 0, 76, 81
2, 18418, Note_on_c, 0, 77, 0
2, 18562, Note_on_c, 0, 77, 84
2, 18567, Note_on_c, 0, 69, 66
2, 18578, Note_on_c, 0, 72, 59
2, 18581, Note_on_c, 0, 62, 42
2, 18590, Note_on_c, 0, 76, 0
2, 18877, Control_c, 0, 64, 127
2, 19206, Note_on_c, 0, 81, 86
2, 19856, Note_on_c, 0, 76, 74
2, 19860, Note_on_c, 0, 69, 0
2, 19860, Note_on_c, 0, 72, 0
2, 19865, Note_on_c, 0, 72, 62
2, 19869, Note_on_c, 0, 60, 54
2, 19871, Note_on_c, 0, 69, 59
2, 19901, Control_c, 0, 64, 0
2, 19905, Note_on_c, 0, 77, 0
2, 19908, Note_on_c, 0, 62, 0
2, 19910, Note_on_c, 0, 81, 0
2, 20328, Control_c, 0, 64, 127
2, 20892, Note_on_c, 0, 74, 79
2, 21027, Note_on_c, 0, 72, 0
2, 21036, Note_on_c, 0, 72, 73
2, 21196, Note_on_c, 0, 74, 0
2, 21204, Note_on_c, 0, 74, 79
2, 21204, Note_on_c, 0, 69, 0
2, 21208, Control_c, 0, 64, 0
2, 21209, Note_on_c, 0, 69, 62
2, 21215, Note_on_c, 0, 76, 0
2, 21215, Note_on_c, 0, 60, 0
2, 21215, Note_on_c, 0, 72, 0
2, 21216, Note_on_c, 0, 58, 50
2, 21217, Note_on_c, 0, 65, 53
2, 21557, Control_c, 0, 64, 127
2, 21830, Note_on_c, 0, 77, 84
2, 22470, Note_on_c, 0, 81, 79
2, 22475, Note_on_c, 0, 67, 52
2, 22476, Note_on_c, 0, 57, 51
2, 22480, Note_on_c, 0, 72, 61
2, 22494, Control_c, 0, 64, 0
2, 22494, Note_on_c, 0, 69, 0
2, 22497, Note_on_c, 0, 65, 0
2, 22498, Note_on_c, 0, 77, 0
2, 22498, Note_on_c, 0, 58, 0
2, 22510, Note_on_c, 0, 74, 0
2, 22778, Control_c, 0, 64, 127
2, 23098, Note_on_c, 0, 65, 59
2, 23401, Note_on_c, 0, 82, 90
2, 23539, Note_on_c, 0, 81, 0
2, 23548, Note_on_c, 0, 81, 88
2, 23715, Note_on_c, 0, 82, 0
2, 23720, Note_on_c, 0, 82, 87
2, 23731, Note_on_c, 0, 65, 0
2, 23733, Note_on_c, 0, 55, 59
2, 23735, Control_c, 0, 64, 0
2, 23735, Note_on_c, 0, 74, 73
2, 23735, Note_on_c, 0, 65, 59
2, 23741, Note_on_c, 0, 72, 0
2, 23741, Note_on_c, 0, 67, 0
2, 23741, Note_on_c, 0, 57, 0
2, 23742, Note_on_c, 0, 81, 0
2, 23923, Control_c, 0, 64, 127
2, 24360, Note_on_c, 0, 86, 91
2, 24990, Note_on_c, 0, 81, 77
2, 25001, Note_on_c, 0, 55, 0
2, 25002, Note_on_c, 0, 77, 59
2, 25003, Note_on_c, 0, 65, 0
2, 25003, Note_on_c, 0, 74, 0
2, 25003, Control_c, 0, 64, 0
2, 25004, Note_on_c, 0, 86, 0
2, 25007, Note_on_c, 0, 76, 56
2, 25008, Note_on_c, 0, 64, 58
2, 25009, Note_on_c, 0, 53, 49
2, 25036, Note_on_c, 0, 82, 0
2, 25290, Control_c, 0, 64, 127
2, 25657, Note_on_c, 0, 62, 56
2, 25969, Note_on_c, 0, 79, 78
2, 26104, Note_on_c, 0, 77, 0
2, 26115, Note_on_c, 0, 77, 75
2, 26265, Note_on_c, 0, 62, 0
2, 26270, Note_on_c, 0, 62, 51
2, 26288, Note_on_c, 0, 79, 0
2, 26290, Note_on_c, 0, 58, 48
2, 26293, Note_on_c, 0, 79, 80
2, 26302, Note_on_c, 0, 53, 0
2, 26302, Note_on_c, 0, 81, 0
2, 26305, Note_on_c, 0, 64, 0
2, 26306, Note_on_c, 0, 76, 0
2, 26306, Note_on_c, 0, 77, 0
2, 26309, Control_c, 0, 64, 0
2, 26309, Note_on_c, 0, 52, 50
2, 26603, Control_c, 0, 64, 127
2, 26959, Note_on_c, 0, 74, 79
2, 27439, Note_on_c, 0, 69, 63
2, 27486, Note_on_c, 0, 74, 0
2, 27496, Note_on_c, 0, 74, 69
2, 27536, Note_on_c, 0, 76, 68
2, 27579, Note_on_c, 0, 58, 0
2, 27581, Control_c, 0, 64, 0
2, 27581, Note_on_c, 0, 52, 0
2, 27583, Note_on_c, 0, 45, 52
2, 27588, Note_on_c, 0, 81, 90
2, 27594, Note_on_c, 0, 62, 0
2, 27594, Note_on_c, 0, 79, 0
2, 27694, Control_c, 0, 64, 127
2, 27701, Note_on_c, 0, 74, 0
2, 27903, Note_on_c, 0, 59, 64
2, 27906, Note_on_c, 0, 52, 60
2, 28204, Note_on_c, 0, 61, 84
2, 28204, Note_on_c, 0, 57, 79
2, 28508, Note_on_c, 0, 77, 96
2, 28654, Note_on_c, 0, 76, 0
2, 28664, Note_on_c, 0, 76, 91
2, 28800, Note_on_c, 0, 59, 0
2, 28823, Note_on_c, 0, 77, 0
2, 28828, Note_on_c, 0, 77, 87
2, 28830, Note_on_c, 0, 69, 0
2, 28834, Note_on_c, 0, 38, 72
2, 28835, Note_on_c, 0, 74, 80
2, 28839, Note_on_c, 0, 69, 79
2, 28845, Control_c, 0, 64, 0
2, 28851, Note_on_c, 0, 52, 0
2, 28851, Note_on_c, 0, 81, 0
2, 28852, Note_on_c, 0, 57, 0
2, 28852, Note_on_c, 0, 61, 0
2, 28854, Note_on_c, 0, 76, 0
2, 28857, Note_on_c, 0, 45, 0
2, 29030, Control_c, 0, 64, 127
2, 29468, Note_on_c, 0, 77, 0
2, 29470, Note_on_c, 0, 81, 93
2, 29475, Note_on_c, 0, 74, 0
2, 29479, Note_on_c, 0, 77, 72
2, 29481, Note_on_c, 0, 74, 76
2, 30095, Note_on_c, 0, 76, 88
2, 30097, Note_on_c, 0, 45, 61
2, 30104, Note_on_c, 0, 72, 68
2, 30105, Note_on_c, 0, 67, 62
2, 30118, Note_on_c, 0, 74, 0
2, 30120, Note_on_c, 0, 81, 0
2, 30120, Note_on_c, 0, 38, 0
2, 30125, Control_c, 0, 64, 0
2, 30136, Note_on_c, 0, 69, 0
2, 30136, Note_on_c, 0, 77, 0
2, 30305, Control_c, 0, 64, 127
2, 30413, Note_on_c, 0, 52, 56
2, 30721, Note_on_c, 0, 55, 53
2, 30722, Note_on_c, 0, 60, 59
2, 31031, Note_on_c, 0, 74, 84
2, 31173, Note_on_c, 0, 72, 0
2, 31179, Note_on_c, 0, 72, 82
2, 31334, Note_on_c, 0, 74, 0
2, 31337, Note_on_c, 0, 34, 68
2, 31339, Control_c, 0, 64, 0
2, 31340, Note_on_c, 0, 74, 90
2, 31351, Note_on_c, 0, 69, 78
2, 31352, Note_on_c, 0, 52, 0
2, 31353, Note_on_c, 0, 72, 0
2, 31353, Note_on_c, 0, 55, 0
2, 31353, Note_on_c, 0, 60, 0
2, 31354, Note_on_c, 0, 67, 0
2, 31355, Note_on_c, 0, 76, 0
2, 31356, Note_on_c, 0, 45, 0
2, 31357, Note_on_c, 0, 65, 57
2, 31541, Control_c, 0, 64, 127
2, 31718, Note_on_c, 0, 65, 0
2, 31976, Note_on_c, 0, 77, 87
2, 31979, Note_on_c, 0, 69, 0
2, 31979, Note_on_c, 0, 74, 0
2, 31986, Note_on_c, 0, 74, 69
2, 31990, Note_on_c, 0, 69, 67
2, 32606, Note_on_c, 0, 81, 91
2, 32609, Note_on_c, 0, 77, 0
2, 32613, Note_on_c, 0, 41, 53
2, 32620, Note_on_c, 0, 77, 69
2, 32621, Note_on_c, 0, 72, 60
2, 32625, Control_c, 0, 64, 0
2, 32628, Note_on_c, 0, 34, 0
2, 32628, Note_on_c, 0, 69, 0
2, 32629, Note_on_c, 0, 74, 0
2, 32855, Control_c, 0, 64, 127
2, 32930, Note_on_c, 0, 48, 60
2, 33236, Note_on_c, 0, 53, 57
2, 33237, Note_on_c, 0, 55, 56
2, 33239, Note_on_c, 0, 60, 56
2, 33534, Note_on_c, 0, 82, 91
2, 33676, Note_on_c, 0, 81, 0
2, 33685, Note_on_c, 0, 81, 90
2, 33845, Note_on_c, 0, 82, 0
2, 33856, Note_on_c, 0, 82, 93
2, 33861, Note_on_c, 0, 77, 0
2, 33866, Note_on_c, 0, 43, 61
2, 33869, Note_on_c, 0, 72, 0
2, 33870, Note_on_c, 0, 53, 0
2, 33870, Note_on_c, 0, 60, 0
2, 33870, Note_on_c, 0, 55, 0
2, 33870, Note_on_c, 0, 48, 0
2, 33871, Control_c, 0, 64, 0
2, 33871, Note_on_c, 0, 77, 72
2, 33871, Note_on_c, 0, 81, 0
2, 33871, Note_on_c, 0, 41, 0
2, 33872, Note_on_c, 0, 74, 72
2, 34060, Control_c, 0, 64, 127
2, 34191, Note_on_c, 0, 74, 0
2, 34509, Note_on_c, 0, 86, 91
2, 34513, Note_on_c, 0, 77, 0
2, 34521, Note_on_c, 0, 82, 0
2, 34524, Note_on_c, 0, 77, 73
2, 34525, Note_on_c, 0, 82, 70
2, 35129, Note_on_c, 0, 81, 82
2, 35136, Note_on_c, 0, 77, 0
2, 35141, Note_on_c, 0, 38, 57
2, 35146, Note_on_c, 0, 77, 58
2, 35147, Note_on_c, 0, 74, 58
2, 35162, Control_c, 0, 64, 0
2, 35162, Note_on_c, 0, 82, 0
2, 35162, Note_on_c, 0, 86, 0
2, 35163, Note_on_c, 0, 43, 0
2, 35289, Control_c, 0, 64, 127
2, 35457, Note_on_c, 0, 45, 58
2, 35759, Note_on_c, 0, 53, 55
2, 35766, Note_on_c, 0, 50, 44
2, 36049, Note_on_c, 0, 79, 79
2, 36188, Note_on_c, 0, 77, 0
2, 36197, Note_on_c, 0, 77, 76
2, 36349, Note_on_c, 0, 79, 0
2, 36357, Note_on_c, 0, 79, 89
2, 36372, Note_on_c, 0, 74, 0
2, 36377, Note_on_c, 0, 74, 64
2, 36377, Note_on_c, 0, 43, 61
2, 36378, Note_on_c, 0, 38, 0
2, 36379, Note_on_c, 0, 53, 0
2, 36381, Note_on_c, 0, 81, 0
2, 36381, Note_on_c, 0, 71, 64
2, 36381, Note_on_c, 0, 77, 0
2, 36382, Note_on_c, 0, 50, 0
2, 36384, Note_on_c, 0, 45, 0
2, 36386, Control_c, 0, 64, 0
2, 36464, Control_c, 0, 64, 127
2, 36549, Control_c, 0, 64, 0
2, 36633, Control_c, 0, 64, 127
2, 36695, Note_on_c, 0, 50, 74
2, 36986, Note_on_c, 0, 74, 0
2, 36991, Note_on_c, 0, 74, 96
2, 36994, Note_on_c, 0, 71, 0
2, 36997, Note_on_c, 0, 55, 75
2, 36998, Note_on_c, 0, 71, 75
2, 37290, Note_on_c, 0, 59, 87
2, 37488, Note_on_c, 0, 69, 77
2, 37516, Note_on_c, 0, 74, 0
2, 37527, Note_on_c, 0, 74, 87
2, 37580, Note_on_c, 0, 43, 0
2, 37580, Note_on_c, 0, 50, 0
2, 37581, Note_on_c, 0, 71, 0
2, 37581, Note_on_c, 0, 55, 0
2, 37581, Note_on_c, 0, 59, 0
2, 37583, Control_c, 0, 64, 0
2, 37590, Note_on_c, 0, 76, 91
2, 37593, Note_on_c, 0, 79, 0
2, 37600, Note_on_c, 0, 45, 74
2, 37602, Note_on_c, 0, 81, 100
2, 37647, Control_c, 0, 64, 127
2, 37890, Note_on_c, 0, 62, 81
2, 37891, Note_on_c, 0, 59, 59
2, 37893, Note_on_c, 0, 52, 71
2, 38204, Note_on_c, 0, 57, 83
2, 38207, Note_on_c, 0, 61, 95
2, 38207, Note_on_c, 0, 64, 94
2, 38212, Control_c, 0, 64, 0
2, 38261, Control_c, 0, 64, 127
2, 38499, Note_on_c, 0, 69, 0
2, 38507, Note_on_c, 0, 69, 108
2, 38696, Note_on_c, 0, 38, 77
2, 38760, Note_on_c, 0, 45, 0
2, 38765, Note_on_c, 0, 45, 75
2, 38803, Note_on_c, 0, 59, 0
2, 38803, Note_on_c, 0, 57, 0
2, 38803, Note_on_c, 0, 52, 0
2, 38804, Note_on_c, 0, 62, 0
2, 38804, Note_on_c, 0, 69, 0
2, 38804, Note_on_c, 0, 64, 0
2, 38805, Note_on_c, 0, 74, 0
2, 38805, Note_on_c, 0, 61, 0
2, 38810, Control_c, 0, 64, 0
2, 38821, Note_on_c, 0, 53, 91
2, 38822, Note_on_c, 0, 76, 0
2, 38822, Note_on_c, 0, 81, 0
2, 38828, Note_on_c, 0, 89, 103
2, 38829, Note_on_c, 0, 81, 89
2, 38832, Note_on_c, 0, 77, 97
2, 38899, Control_c, 0, 64, 127
2, 38983, Note_on_c, 0, 38, 0
2, 39139, Note_on_c, 0, 88, 87
2, 39435, Note_on_c, 0, 57, 99
2, 39441, Note_on_c, 0, 86, 78
2, 39759, Note_on_c, 0, 81, 0
2, 39770, Note_on_c, 0, 81, 76
2, 40058, Note_on_c, 0, 89, 0
2, 40064, Note_on_c, 0, 52, 88
2, 40067, Note_on_c, 0, 36, 81
2, 40069, Note_on_c, 0, 89, 84
2, 40102, Note_on_c, 0, 86, 0
2, 40103, Note_on_c, 0, 81, 0
2, 40104, Note_on_c, 0, 53, 0
2, 40105, Note_on_c, 0, 57, 0
2, 40106, Note_on_c, 0, 88, 0
2, 40108, Control_c, 0, 64, 0
2, 40120, Note_on_c, 0, 45, 0
2, 40128, Note_on_c, 0, 77, 0
2, 40312, Control_c, 0, 64, 127
2, 40392, Note_on_c, 0, 88, 83
2, 40683, Note_on_c, 0, 86, 80
2, 41002, Note_on_c, 0, 81, 62
2, 41293, Note_on_c, 0, 50, 89
2, 41295, Note_on_c, 0, 89, 0
2, 41299, Note_on_c, 0, 34, 71
2, 41299, Note_on_c, 0, 89, 95
2, 41314, Note_on_c, 0, 52, 0
2, 41315, Note_on_c, 0, 86, 0
2, 41316, Note_on_c, 0, 81, 0
2, 41320, Note_on_c, 0, 36, 0
2, 41323, Note_on_c, 0, 88, 0
2, 41323, Control_c, 0, 64, 0
2, 41594, Control_c, 0, 64, 127
2, 41639, Note_on_c, 0, 88, 65
2, 41937, Note_on_c, 0, 86, 77
2, 42241, Note_on_c, 0, 81, 63
2, 42524, Note_on_c, 0, 89, 0
2, 42535, Note_on_c, 0, 89, 87
2, 42846, Note_on_c, 0, 88, 0
2, 42857, Note_on_c, 0, 88, 68
2, 43156, Note_on_c, 0, 62, 86
2, 43158, Note_on_c, 0, 81, 0
2, 43159, Control_c, 0, 64, 0
2, 43159, Note_on_c, 0, 58, 77
2, 43161, Note_on_c, 0, 86, 0
2, 43164, Note_on_c, 0, 88, 0
2, 43165, Note_on_c, 0, 86, 73
2, 43167, Note_on_c, 0, 50, 0
2, 43200, Note_on_c, 0, 89, 0
2, 43207, Control_c, 0, 64, 127
2, 43453, Note_on_c, 0, 34, 0
2, 43466, Note_on_c, 0, 64, 96
2, 43469, Note_on_c, 0, 48, 86
2, 43484, Note_on_c, 0, 81, 80
2, 43787, Note_on_c, 0, 65, 89
2, 43792, Control_c, 0, 64, 0
2, 43793, Note_on_c, 0, 57, 77
2, 43797, Note_on_c, 0, 48, 0
2, 43801, Note_on_c, 0, 58, 0
2, 43801, Note_on_c, 0, 86, 0
2, 43802, Note_on_c, 0, 64, 0
2, 43802, Note_on_c, 0, 89, 83
2, 43806, Note_on_c, 0, 84, 72
2, 43806, Note_on_c, 0, 62, 0
2, 43944, Control_c, 0, 64, 127
2, 44113, Note_on_c, 0, 88, 82
2, 44403, Note_on_c, 0, 69, 100
2, 44409, Note_on_c, 0, 86, 72
2, 44712, Note_on_c, 0, 81, 0
2, 44720, Note_on_c, 0, 81, 79
2, 44994, Note_on_c, 0, 89, 0
2, 44994, Note_on_c, 0, 86, 0
2, 44995, Note_on_c, 0, 88, 0
2, 44995, Note_on_c, 0, 81, 0
2, 44996, Note_on_c, 0, 65, 0
2, 44996, Control_c, 0, 64, 0
2, 45020, Note_on_c, 0, 57, 0
2, 45020, Note_on_c, 0, 69, 0
2, 45022, Note_on_c, 0, 48, 69
2, 45023, Note_on_c, 0, 64, 78
2, 45023, Note_on_c, 0, 72, 95
2, 45024, Note_on_c, 0, 57, 66
2, 45029, Note_on_c, 0, 69, 80
2, 45081, Control_c, 0, 64, 127
2, 45330, Note_on_c, 0, 88, 81
2, 45557, Note_on_c, 0, 84, 0
2, 45563, Note_on_c, 0, 84, 40
2, 45624, Note_on_c, 0, 86, 71
2, 45942, Note_on_c, 0, 81, 71
2, 46237, Note_on_c, 0, 88, 0
2, 46237, Note_on_c, 0, 81, 0
2, 46237, Note_on_c, 0, 64, 0
2, 46237, Control_c, 0, 64, 0
2, 46237, Note_on_c, 0, 86, 0
2, 46238, Note_on_c, 0, 84, 0
2, 46238, Note_on_c, 0, 48, 0
2, 46238, Note_on_c, 0, 57, 0
2, 46238, Note_on_c, 0, 72, 0
2, 46240, Note_on_c, 0, 74, 91
2, 46248, Note_on_c, 0, 69, 0
2, 46254, Note_on_c, 0, 69, 82
2, 46257, Note_on_c, 0, 46, 66
2, 46265, Note_on_c, 0, 62, 68
2, 46269, Note_on_c, 0, 53, 66
2, 46348, Control_c, 0, 64, 127
2, 46563, Note_on_c, 0, 88, 79
2, 46861, Note_on_c, 0, 86, 78
2, 47175, Note_on_c, 0, 81, 67
2, 47467, Note_on_c, 0, 89, 84
2, 47769, Note_on_c, 0, 88, 0
2, 47777, Note_on_c, 0, 88, 71
2, 48000, Note_on_c, 0, 69, 0
2, 48076, Note_on_c, 0, 86, 0
2, 48088, Note_on_c, 0, 86, 71
2, 48384, Note_on_c, 0, 81, 0
2, 48388, Note_on_c, 0, 81, 64
2, 48580, Note_on_c, 0, 70, 69
2, 48637, Note_on_c, 0, 74, 0
2, 48641, Note_on_c, 0, 74, 72
2, 48673, Note_on_c, 0, 77, 70
2, 48681, Note_on_c, 0, 93, 88
2, 48990, Note_on_c, 0, 89, 0
2, 49002, Note_on_c, 0, 89, 70
2, 49282, Note_on_c, 0, 74, 0
2, 49282, Note_on_c, 0, 88, 0
2, 49287, Note_on_c, 0, 88, 78
2, 49291, Note_on_c, 0, 74, 41
2, 49582, Note_on_c, 0, 86, 0
2, 49591, Note_on_c, 0, 86, 77
2, 49916, Note_on_c, 0, 98, 96
2, 49920, Note_on_c, 0, 86, 0
2, 49920, Note_on_c, 0, 88, 0
2, 49924, Note_on_c, 0, 86, 79
2, 49929, Note_on_c, 0, 88, 58
2, 50864, Note_on_c, 0, 46, 0
2, 50872, Note_on_c, 0, 62, 0
2, 50880, Note_on_c, 0, 53, 0
2, 51251, Note_on_c, 0, 93, 0
2, 51252, Note_on_c, 0, 98, 0
2, 51252, Note_on_c, 0, 88, 0
2, 51252, Note_on_c, 0, 86, 0
2, 51252, Note_on_c, 0, 89, 0
2, 51252, Note_on_c, 0, 81, 0
2, 51253, Note_on_c, 0, 74, 0
2, 51253, Note_on_c, 0, 77, 0
2, 51254, Note_on_c, 0, 70, 0
2, 51260, Control_c, 0, 64, 0
2, 51275, Note_on_c, 0, 26, 96
2, 51356, Control_c, 0, 64, 127
2, 51448, Note_on_c, 0, 26, 0
2, 51581, Note_on_c, 0, 38, 56
2, 51738, Note_on_c, 0, 45, 65
2, 51769, Note_on_c, 0, 57, 69
2, 51878, Note_on_c, 0, 38, 0
2, 51888, Note_on_c, 0, 65, 96
2, 51889, Note_on_c, 0, 38, 63
2, 51964, Note_on_c, 0, 64, 77
2, 52024, Note_on_c, 0, 38, 0
2, 52029, Note_on_c, 0, 38, 56
2, 52032, Note_on_c, 0, 65, 0
2, 52036, Note_on_c, 0, 65, 69
2, 52124, Note_on_c, 0, 62, 74
2, 52193, Note_on_c, 0, 57, 0
2, 52201, Note_on_c, 0, 57, 76
2, 52202, Note_on_c, 0, 50, 68
2, 52247, Note_on_c, 0, 62, 0
2, 52251, Note_on_c, 0, 62, 75
2, 52308, Note_on_c, 0, 65, 0
2, 52316, Note_on_c, 0, 65, 78
2, 52355, Note_on_c, 0, 52, 70
2, 52421, Note_on_c, 0, 69, 96
2, 52489, Note_on_c, 0, 53, 82
2, 52490, Note_on_c, 0, 77, 103
2, 52566, Note_on_c, 0, 76, 89
2, 52638, Note_on_c, 0, 77, 0
2, 52644, Note_on_c, 0, 77, 86
2, 52716, Note_on_c, 0, 74, 89
2, 52792, Note_on_c, 0, 53, 0
2, 52792, Note_on_c, 0, 69, 0
2, 52796, Note_on_c, 0, 69, 95
2, 52801, Note_on_c, 0, 53, 73
2, 52846, Note_on_c, 0, 74, 0
2, 52853, Note_on_c, 0, 74, 89
2, 52915, Note_on_c, 0, 77, 0
2, 52923, Note_on_c, 0, 77, 89
2, 52938, Note_on_c, 0, 57, 0
2, 52949, Note_on_c, 0, 57, 68
2, 53026, Note_on_c, 0, 81, 99
2, 53084, Note_on_c, 0, 62, 0
2, 53095, Note_on_c, 0, 62, 84
2, 53096, Note_on_c, 0, 89, 107
2, 53169, Note_on_c, 0, 88, 99
2, 53230, Note_on_c, 0, 89, 0
2, 53240, Note_on_c, 0, 89, 98
2, 53311, Note_on_c, 0, 86, 99
2, 53383, Note_on_c, 0, 81, 0
2, 53388, Note_on_c, 0, 81, 96
2, 53429, Note_on_c, 0, 86, 0
2, 53439, Note_on_c, 0, 86, 87
2, 53498, Note_on_c, 0, 89, 0
2, 53505, Note_on_c, 0, 89, 97
2, 53603, Note_on_c, 0, 93, 96
2, 53665, Note_on_c, 0, 52, 0
2, 53666, Note_on_c, 0, 89, 0
2, 53666, Note_on_c, 0, 64, 0
2, 53666, Note_on_c, 0, 86, 0
2, 53666, Note_on_c, 0, 69, 0
2, 53667, Note_on_c, 0, 74, 0
2, 53667, Note_on_c, 0, 38, 0
2, 53667, Note_on_c, 0, 45, 0
2, 53668, Note_on_c, 0, 93, 0
2, 53668, Note_on_c, 0, 76, 0
2, 53668, Note_on_c, 0, 62, 0
2, 53668, Note_on_c, 0, 77, 0
2, 53668, Note_on_c, 0, 81, 0
2, 53669, Note_on_c, 0, 53, 0
2, 53669, Note_on_c, 0, 57, 0
2, 53670, Control_c, 0, 64, 0
2, 53671, Note_on_c, 0, 34, 91
2, 53671, Note_on_c, 0, 101, 109
2, 53675, Note_on_c, 0, 34, 0
2, 53683, Note_on_c, 0, 50, 0
2, 53683, Note_on_c, 0, 88, 0
2, 53690, Note_on_c, 0, 65, 0
2, 53744, Control_c, 0, 64, 127
2, 53745, Note_on_c, 0, 100, 104
2, 53798, Note_on_c, 0, 101, 0
2, 53803, Note_on_c, 0, 101, 98
2, 53887, Note_on_c, 0, 98, 110
2, 53949, Note_on_c, 0, 41, 61
2, 53982, Note_on_c, 0, 94, 92
2, 54044, Note_on_c, 0, 98, 0
2, 54052, Note_on_c, 0, 98, 106
2, 54114, Note_on_c, 0, 46, 73
2, 54121, Note_on_c, 0, 53, 66
2, 54132, Note_on_c, 0, 89, 83
2, 54174, Note_on_c, 0, 94, 0
2, 54183, Note_on_c, 0, 94, 98
2, 54243, Note_on_c, 0, 89, 0
2, 54248, Note_on_c, 0, 50, 85
2, 54252, Note_on_c, 0, 89, 101
2, 54323, Note_on_c, 0, 88, 98
2, 54405, Note_on_c, 0, 89, 0
2, 54415, Note_on_c, 0, 89, 95
2, 54494, Note_on_c, 0, 86, 78
2, 54558, Note_on_c, 0, 53, 0
2, 54566, Note_on_c, 0, 53, 68
2, 54569, Note_on_c, 0, 82, 86
2, 54627, Note_on_c, 0, 86, 0
2, 54633, Note_on_c, 0, 86, 86
2, 54713, Note_on_c, 0, 77, 83
2, 54731, Note_on_c, 0, 58, 69
2, 54766, Note_on_c, 0, 82, 0
2, 54773, Note_on_c, 0, 82, 95
2, 54842, Note_on_c, 0, 77, 0
2, 54847, Note_on_c, 0, 77, 96
2, 54854, Note_on_c, 0, 62, 95
2, 54913, Note_on_c, 0, 76, 93
2, 55004, Note_on_c, 0, 77, 0
2, 55009, Note_on_c, 0, 77, 84
2, 55082, Note_on_c, 0, 74, 84
2, 55165, Note_on_c, 0, 70, 90
2, 55226, Note_on_c, 0, 74, 0
2, 55234, Note_on_c, 0, 74, 80
2, 55312, Note_on_c, 0, 65, 69
2, 55357, Note_on_c, 0, 70, 0
2, 55365, Note_on_c, 0, 70, 89
2, 55441, Note_on_c, 0, 65, 0
2, 55452, Note_on_c, 0, 65, 100
2, 55453, Control_c, 0, 64, 0
2, 55464, Note_on_c, 0, 46, 0
2, 55471, Note_on_c, 0, 46, 89
2, 55472, Control_c, 0, 64, 127
2, 55603, Note_on_c, 0, 62, 0
2, 55607, Note_on_c, 0, 62, 86
2, 55755, Note_on_c, 0, 67, 101
2, 55887, Note_on_c, 0, 58, 0
2, 55895, Note_on_c, 0, 58, 74
2, 56022, Control_c, 0, 64, 0
2, 56023, Note_on_c, 0, 101, 0
2, 56023, Note_on_c, 0, 94, 0
2, 56024, Note_on_c, 0, 98, 0
2, 56024, Note_on_c, 0, 100, 0
2, 56024, Note_on_c, 0, 82, 0
2, 56024, Note_on_c, 0, 88, 0
2, 56025, Note_on_c, 0, 86, 0
2, 56025, Note_on_c, 0, 89, 0
2, 56025, Note_on_c, 0, 70, 0
2, 56026, Note_on_c, 0, 77, 0
2, 56026, Note_on_c, 0, 41, 0
2, 56026, Note_on_c, 0, 53, 0
2, 56026, Note_on_c, 0, 50, 0
2, 56026, Note_on_c, 0, 76, 0
2, 56026, Note_on_c, 0, 74, 0
2, 56026, Note_on_c, 0, 46, 0
2, 56026, Note_on_c, 0, 58, 0
2, 56027, Note_on_c, 0, 62, 0
2, 56027, Note_on_c, 0, 67, 0
2, 56048, Note_on_c, 0, 65, 0
2, 56059, Note_on_c, 0, 69, 105
2, 56061, Note_on_c, 0, 41, 80
2, 56061, Note_on_c, 0, 29, 90
2, 56065, Note_on_c, 0, 60, 83
2, 56068, Note_on_c, 0, 65, 85
2, 56117, Control_c, 0, 64, 127
2, 56520, Note_on_c, 0, 48, 72
2, 56540, Note_on_c, 0, 60, 0
2, 56545, Note_on_c, 0, 60, 71
2, 56663, Note_on_c, 0, 53, 77
2, 56667, Note_on_c, 0, 72, 99
2, 56746, Note_on_c, 0, 67, 85
2, 56808, Note_on_c, 0, 65, 0
2, 56817, Note_on_c, 0, 65, 78
2, 56885, Note_on_c, 0, 67, 0
2, 56893, Note_on_c, 0, 67, 81
2, 56970, Note_on_c, 0, 48, 0
2, 56970, Note_on_c, 0, 60, 0
2, 56974, Note_on_c, 0, 60, 85
2, 56974, Note_on_c, 0, 48, 73
2, 57039, Note_on_c, 0, 65, 0
2, 57045, Note_on_c, 0, 65, 83
2, 57123, Note_on_c, 0, 72, 0
2, 57132, Note_on_c, 0, 72, 94
2, 57209, Note_on_c, 0, 77, 86
2, 57269, Note_on_c, 0, 60, 0
2, 57271, Note_on_c, 0, 84, 106
2, 57273, Note_on_c, 0, 60, 81
2, 57274, Note_on_c, 0, 55, 77
2, 57348, Note_on_c, 0, 79, 86
2, 57400, Note_on_c, 0, 77, 0
2, 57405, Note_on_c, 0, 77, 91
2, 57484, Note_on_c, 0, 79, 0
2, 57491, Note_on_c, 0, 79, 91
2, 57569, Note_on_c, 0, 72, 0
2, 57574, Note_on_c, 0, 72, 91
2, 57584, Note_on_c, 0, 60, 0
2, 57592, Note_on_c, 0, 60, 76
2, 57638, Note_on_c, 0, 77, 0
2, 57648, Note_on_c, 0, 77, 97
2, 57722, Note_on_c, 0, 65, 0
2, 57728, Note_on_c, 0, 65, 72
2, 57745, Note_on_c, 0, 84, 0
2, 57754, Note_on_c, 0, 84, 81
2, 57807, Note_on_c, 0, 89, 93
2, 57868, Note_on_c, 0, 72, 0
2, 57876, Note_on_c, 0, 67, 0
2, 57877, Note_on_c, 0, 72, 100
2, 57880, Note_on_c, 0, 67, 84
2, 57881, Note_on_c, 0, 96, 103
2, 57944, Note_on_c, 0, 91, 91
2, 58007, Note_on_c, 0, 89, 0
2, 58017, Note_on_c, 0, 89, 102
2, 58076, Note_on_c, 0, 91, 0
2, 58085, Note_on_c, 0, 91, 88
2, 58160, Note_on_c, 0, 84, 0
2, 58171, Note_on_c, 0, 84, 84
2, 58222, Note_on_c, 0, 91, 0
2, 58229, Note_on_c, 0, 91, 85
2, 58298, Note_on_c, 0, 89, 0
2, 58305, Note_on_c, 0, 89, 103
2, 58368, Note_on_c, 0, 91, 0
2, 58378, Note_on_c, 0, 91, 95
2, 58444, Note_on_c, 0, 29, 0
2, 58452, Note_on_c, 0, 96, 0
2, 58456, Control_c, 0, 64, 0
2, 58456, Note_on_c, 0, 41, 0
2, 58456, Note_on_c, 0, 48, 0
2, 58456, Note_on_c, 0, 69, 0
2, 58456, Note_on_c, 0, 33, 87
2, 58456, Note_on_c, 0, 53, 0
2, 58457, Note_on_c, 0, 84, 0
2, 58457, Note_on_c, 0, 89, 0
2, 58457, Note_on_c, 0, 60, 0
2, 58457, Note_on_c, 0, 96, 106
2, 58457, Note_on_c, 0, 67, 0
2, 58457, Note_on_c, 0, 72, 0
2, 58457, Note_on_c, 0, 91, 0
2, 58457, Note_on_c, 0, 55, 0
2, 58457, Note_on_c, 0, 79, 0
2, 58475, Note_on_c, 0, 65, 0
2, 58483, Note_on_c, 0, 77, 0
2, 58521, Control_c, 0, 64, 127
2, 58524, Note_on_c, 0, 91, 92
2, 58602, Note_on_c, 0, 88, 96
2, 58644, Note_on_c, 0, 91, 0
2, 58655, Note_on_c, 0, 91, 82
2, 58741, Note_on_c, 0, 84, 90
2, 58779, Note_on_c, 0, 45, 67
2, 58813, Note_on_c, 0, 88, 0
2, 58818, Note_on_c, 0, 88, 86
2, 58885, Note_on_c, 0, 86, 96
2, 58915, Note_on_c, 0, 52, 69
2, 58974, Note_on_c, 0, 88, 0
2, 58980, Note_on_c, 0, 88, 93
2, 59036, Note_on_c, 0, 84, 0
2, 59040, Note_on_c, 0, 60, 88
2, 59041, Note_on_c, 0, 84, 101
2, 59042, Note_on_c, 0, 55, 85
2, 59124, Note_on_c, 0, 79, 90
2, 59203, Note_on_c, 0, 76, 80
2, 59243, Note_on_c, 0, 79, 0
2, 59252, Note_on_c, 0, 79, 90
2, 59329, Note_on_c, 0, 72, 89
2, 59374, Note_on_c, 0, 57, 73
2, 59389, Note_on_c, 0, 76, 0
2, 59399, Note_on_c, 0, 76, 87
2, 59464, Note_on_c, 0, 74, 90
2, 59489, Note_on_c, 0, 60, 0
2, 59499, Note_on_c, 0, 60, 71
2, 59520, Note_on_c, 0, 96, 0
2, 59550, Note_on_c, 0, 76, 0
2, 59557, Note_on_c, 0, 76, 86
2, 59619, Note_on_c, 0, 72, 0
2, 59626, Note_on_c, 0, 72, 96
2, 59630, Note_on_c, 0, 64, 96
2, 59714, Note_on_c, 0, 67, 80
2, 59773, Note_on_c, 0, 64, 0
2, 59773, Note_on_c, 0, 76, 0
2, 59783, Note_on_c, 0, 64, 83
2, 59784, Note_on_c, 0, 76, 78
2, 59827, Note_on_c, 0, 67, 0
2, 59832, Note_on_c, 0, 67, 74
2, 59904, Note_on_c, 0, 60, 0
2, 59911, Note_on_c, 0, 60, 82
2, 59973, Note_on_c, 0, 64, 0
2, 59978, Note_on_c, 0, 64, 74
2, 60048, Note_on_c, 0, 62, 85
2, 60126, Note_on_c, 0, 64, 0
2, 60132, Note_on_c, 0, 64, 67
2, 60180, Note_on_c, 0, 60, 0
2, 60191, Note_on_c, 0, 60, 99
2, 60218, Note_on_c, 0, 45, 0
2, 60227, Note_on_c, 0, 45, 78
2, 60349, Note_on_c, 0, 55, 0
2, 60353, Note_on_c, 0, 55, 81
2, 60495, Note_on_c, 0, 64, 0
2, 60499, Note_on_c, 0, 64, 96
2, 60648, Note_on_c, 0, 60, 0
2, 60659, Note_on_c, 0, 60, 96
2, 60794, Note_on_c, 0, 33, 0
2, 60795, Control_c, 0, 64, 0
2, 60796, Note_on_c, 0, 86, 0
2, 60797, Note_on_c, 0, 52, 0
2, 60797, Note_on_c, 0, 84, 0
2, 60797, Note_on_c, 0, 57, 0
2, 60798, Note_on_c, 0, 64, 0
2, 60798, Note_on_c, 0, 72, 0
2, 60798, Note_on_c, 0, 45, 0
2, 60798, Note_on_c, 0, 67, 0
2, 60798, Note_on_c, 0, 60, 0
2, 60798, Note_on_c, 0, 88, 0
2, 60798, Note_on_c, 0, 91, 0
2, 60798, Note_on_c, 0, 55, 0
2, 60806, Note_on_c, 0, 65, 97
2, 60810, Note_on_c, 0, 62, 0
2, 60810, Note_on_c, 0, 76, 0
2, 60810, Note_on_c, 0, 79, 0
2, 60812, Note_on_c, 0, 38, 83
2, 60814, Note_on_c, 0, 62, 78
2, 60948, Control_c, 0, 64, 127
2, 61125, Note_on_c, 0, 45, 56
2, 61288, Note_on_c, 0, 50, 64
2, 61290, Note_on_c, 0, 81, 66
2, 61433, Note_on_c, 0, 53, 66
2, 61447, Note_on_c, 0, 89, 81
2, 61578, Note_on_c, 0, 50, 0
2, 61588, Note_on_c, 0, 50, 62
2, 61593, Note_on_c, 0, 88, 72
2, 61751, Note_on_c, 0, 52, 63
2, 61752, Note_on_c, 0, 86, 77
2, 61885, Note_on_c, 0, 53, 0
2, 61892, Note_on_c, 0, 53, 58
2, 61893, Note_on_c, 0, 81, 0
2, 61900, Note_on_c, 0, 81, 78
2, 62031, Note_on_c, 0, 89, 0
2, 62037, Note_on_c, 0, 89, 89
2, 62039, Note_on_c, 0, 62, 0
2, 62043, Note_on_c, 0, 62, 74
2, 62049, Note_on_c, 0, 57, 72
2, 62177, Note_on_c, 0, 88, 0
2, 62185, Note_on_c, 0, 88, 84
2, 62330, Note_on_c, 0, 86, 0
2, 62336, Note_on_c, 0, 86, 93
2, 62469, Note_on_c, 0, 81, 0
2, 62477, Note_on_c, 0, 81, 94
2, 62622, Note_on_c, 0, 65, 0
2, 62622, Note_on_c, 0, 89, 0
2, 62630, Note_on_c, 0, 69, 103
2, 62633, Note_on_c, 0, 89, 97
2, 62634, Note_on_c, 0, 65, 97
2, 62776, Note_on_c, 0, 88, 0
2, 62783, Note_on_c, 0, 88, 91
2, 62922, Note_on_c, 0, 86, 0
2, 62926, Note_on_c, 0, 86, 83
2, 63075, Note_on_c, 0, 81, 0
2, 63081, Note_on_c, 0, 81, 81
2, 63219, Note_on_c, 0, 81, 0
2, 63219, Note_on_c, 0, 88, 0
2, 63219, Note_on_c, 0, 38, 0
2, 63219, Note_on_c, 0, 89, 0
2, 63219, Note_on_c, 0, 45, 0
2, 63219, Note_on_c, 0, 86, 0
2, 63220, Note_on_c, 0, 62, 0
2, 63220, Note_on_c, 0, 52, 0
2, 63221, Note_on_c, 0, 50, 0
2, 63224, Control_c, 0, 64, 0
2, 63237, Note_on_c, 0, 53, 0
2, 63237, Note_on_c, 0, 57, 0
2, 63237, Note_on_c, 0, 65, 0
2, 63237, Note_on_c, 0, 74, 0
2, 63238, Note_on_c, 0, 34, 88
2, 63242, Note_on_c, 0, 74, 107
2, 63244, Note_on_c, 0, 69, 0
2, 63248, Note_on_c, 0, 65, 89
2, 63248, Note_on_c, 0, 69, 94
2, 63298, Control_c, 0, 64, 127
2, 63550, Note_on_c, 0, 46, 69
2, 63704, Note_on_c, 0, 53, 70
2, 63704, Note_on_c, 0, 81, 82
2, 63848, Note_on_c, 0, 89, 102
2, 63852, Note_on_c, 0, 58, 78
2, 63988, Note_on_c, 0, 88, 89
2, 63989, Note_on_c, 0, 53, 0
2, 63994, Note_on_c, 0, 53, 63
2, 64128, Note_on_c, 0, 58, 0
2, 64137, Note_on_c, 0, 86, 87
2, 64139, Note_on_c, 0, 58, 67
2, 64287, Note_on_c, 0, 60, 80
2, 64288, Note_on_c, 0, 82, 80
2, 64442, Note_on_c, 0, 89, 0
2, 64446, Note_on_c, 0, 62, 91
2, 64452, Note_on_c, 0, 89, 89
2, 64611, Note_on_c, 0, 88, 0
2, 64621, Note_on_c, 0, 88, 80
2, 64757, Note_on_c, 0, 86, 0
2, 64765, Note_on_c, 0, 86, 80
2, 64903, Note_on_c, 0, 82, 0
2, 64908, Note_on_c, 0, 82, 75
2, 65057, Note_on_c, 0, 88, 0
2, 65060, Note_on_c, 0, 76, 106
2, 65066, Note_on_c, 0, 72, 98
2, 65067, Note_on_c, 0, 88, 96
2, 65070, Note_on_c, 0, 70, 101
2, 65218, Note_on_c, 0, 88, 0
2, 65228, Note_on_c, 0, 88, 80
2, 65372, Note_on_c, 0, 86, 0
2, 65377, Note_on_c, 0, 86, 81
2, 65502, Note_on_c, 0, 82, 0
2, 65508, Note_on_c, 0, 82, 79
2, 65510, Note_on_c, 0, 34, 0
2, 65679, Note_on_c, 0, 72, 0
2, 65684, Note_on_c, 0, 72, 103
2, 65687, Note_on_c, 0, 65, 0
2, 65690, Note_on_c, 0, 41, 70
2, 65694, Note_on_c, 0, 81, 0
2, 65695, Note_on_c, 0, 65, 80
2, 65695, Note_on_c, 0, 88, 0
2, 65696, Note_on_c, 0, 76, 0
2, 65697, Note_on_c, 0, 58, 0
2, 65697, Note_on_c, 0, 62, 0
2, 65698, Note_on_c, 0, 82, 0
2, 65698, Note_on_c, 0, 70, 0
2, 65698, Note_on_c, 0, 60, 0
2, 65698, Note_on_c, 0, 74, 0
2, 65698, Note_on_c, 0, 69, 0
2, 65698, Note_on_c, 0, 86, 0
2, 65699, Note_on_c, 0, 67, 75
2, 65702, Note_on_c, 0, 89, 0
2, 65708, Control_c, 0, 64, 0
2, 65710, Note_on_c, 0, 46, 0
2, 65717, Note_on_c, 0, 53, 0
2, 65840, Control_c, 0, 64, 127
2, 65980, Note_on_c, 0, 48, 68
2, 66141, Note_on_c, 0, 53, 69
2, 66143, Note_on_c, 0, 81, 78
2, 66273, Note_on_c, 0, 55, 70
2, 66288, Note_on_c, 0, 89, 96
2, 66401, Note_on_c, 0, 53, 0
2, 66405, Note_on_c, 0, 53, 70
2, 66427, Note_on_c, 0, 88, 83
2, 66539, Note_on_c, 0, 55, 0
2, 66550, Note_on_c, 0, 55, 69
2, 66575, Note_on_c, 0, 84, 79
2, 66695, Note_on_c, 0, 57, 67
2, 66723, Note_on_c, 0, 81, 0
2, 66728, Note_on_c, 0, 81, 80
2, 66862, Note_on_c, 0, 65, 0
2, 66869, Note_on_c, 0, 89, 0
2, 66871, Note_on_c, 0, 65, 78
2, 66873, Note_on_c, 0, 60, 72
2, 66874, Note_on_c, 0, 89, 87
2, 67031, Note_on_c, 0, 88, 0
2, 67039, Note_on_c, 0, 88, 85
2, 67184, Note_on_c, 0, 84, 0
2, 67189, Note_on_c, 0, 84, 68
2, 67330, Note_on_c, 0, 81, 0
2, 67340, Note_on_c, 0, 81, 69
2, 67476, Note_on_c, 0, 89, 0
2, 67484, Note_on_c, 0, 65, 0
2, 67486, Note_on_c, 0, 69, 102
2, 67487, Note_on_c, 0, 89, 89
2, 67488, Note_on_c, 0, 65, 94
2, 67637, Note_on_c, 0, 88, 0
2, 67643, Note_on_c, 0, 88, 84
2, 67791, Note_on_c, 0, 84, 0
2, 67797, Note_on_c, 0, 84, 72
2, 67929, Note_on_c, 0, 81, 0
2, 67937, Note_on_c, 0, 81, 79
2, 68079, Control_c, 0, 64, 0
2, 68079, Note_on_c, 0, 48, 0
2, 68079, Note_on_c, 0, 41, 0
2, 68079, Note_on_c, 0, 53, 0
2, 68079, Note_on_c, 0, 88, 0
2, 68079, Note_on_c, 0, 89, 0
2, 68079, Note_on_c, 0, 81, 0
2, 68080, Note_on_c, 0, 69, 0
2, 68080, Note_on_c, 0, 65, 0
2, 68080, Note_on_c, 0, 57, 0
2, 68080, Note_on_c, 0, 84, 0
2, 68081, Note_on_c, 0, 60, 0
2, 68090, Note_on_c, 0, 55, 0
2, 68090, Note_on_c, 0, 67, 0
2, 68090, Note_on_c, 0, 72, 0
2, 68092, Note_on_c, 0, 45, 77
2, 68095, Note_on_c, 0, 67, 92
2, 68099, Note_on_c, 0, 64, 83
2, 68244, Control_c, 0, 64, 127
2, 68380, Note_on_c, 0, 52, 65
2, 68541, Note_on_c, 0, 79, 73
2, 68565, Note_on_c, 0, 55, 55
2, 68697, Note_on_c, 0, 88, 86
2, 68701, Note_on_c, 0, 60, 64
2, 68834, Note_on_c, 0, 86, 82
2, 68835, Note_on_c, 0, 55, 0
2, 68841, Note_on_c, 0, 55, 57
2, 68989, Note_on_c, 0, 60, 0
2, 68993, Note_on_c, 0, 60, 62
2, 68997, Note_on_c, 0, 84, 66
2, 69150, Note_on_c, 0, 79, 0
2, 69153, Note_on_c, 0, 62, 71
2, 69158, Note_on_c, 0, 79, 65
2, 69310, Note_on_c, 0, 65, 86
2, 69312, Note_on_c, 0, 88, 0
2, 69316, Note_on_c, 0, 88, 82
2, 69465, Note_on_c, 0, 86, 0
2, 69469, Note_on_c, 0, 86, 80
2, 69626, Note_on_c, 0, 84, 0
2, 69630, Note_on_c, 0, 84, 59
2, 69757, Note_on_c, 0, 79, 0
2, 69767, Note_on_c, 0, 79, 61
2, 69770, Note_on_c, 0, 77, 48
2, 69780, Note_on_c, 0, 77, 0
2, 69918, Note_on_c, 0, 64, 0
2, 69926, Note_on_c, 0, 88, 0
2, 69927, Note_on_c, 0, 64, 83
2, 69937, Note_on_c, 0, 88, 81
2, 70080, Note_on_c, 0, 86, 0
2, 70090, Note_on_c, 0, 86, 78
2, 70256, Note_on_c, 0, 84, 0
2, 70260, Note_on_c, 0, 84, 63
2, 70410, Note_on_c, 0, 79, 0
2, 70420, Note_on_c, 0, 79, 58
2, 70579, Note_on_c, 0, 65, 0
2, 70586, Note_on_c, 0, 65, 68
2, 70589, Note_on_c, 0, 57, 60
2, 70590, Note_on_c, 0, 38, 53
2, 70594, Note_on_c, 0, 45, 0
2, 70597, Note_on_c, 0, 50, 57
2, 70598, Note_on_c, 0, 52, 0
2, 70598, Note_on_c, 0, 62, 0
2, 70598, Note_on_c, 0, 86, 0
2, 70599, Note_on_c, 0, 84, 0
2, 70599, Note_on_c, 0, 60, 0
2, 70599, Note_on_c, 0, 55, 0
2, 70599, Note_on_c, 0, 64, 0
2, 70599, Note_on_c, 0, 79, 0
2, 70599, Note_on_c, 0, 45, 49
2, 70599, Note_on_c, 0, 67, 0
2, 70600, Control_c, 0, 64, 0
2, 70609, Note_on_c, 0, 88, 0
2, 70625, Note_on_c, 0, 45, 0
2, 70717, Note_on_c, 0, 38, 0
2, 70901, Control_c, 0, 64, 127
2, 71640, Note_on_c, 0, 86, 84
2, 71641, Note_on_c, 0, 77, 74
2, 71642, Note_on_c, 0, 74, 68
2, 71654, Note_on_c, 0, 57, 0
2, 71660, Note_on_c, 0, 69, 48
2, 71663, Note_on_c, 0, 57, 51
2, 71665, Note_on_c, 0, 62, 51
2, 72460, Note_on_c, 0, 50, 0
2, 72471, Note_on_c, 0, 50, 65
2, 72614, Note_on_c, 0, 57, 0
2, 72621, Note_on_c, 0, 57, 58
2, 72768, Note_on_c, 0, 62, 0
2, 72768, Note_on_c, 0, 65, 0
2, 72772, Note_on_c, 0, 65, 83
2, 72774, Note_on_c, 0, 62, 85
2, 72786, Note_on_c, 0, 60, 75
2, 72791, Note_on_c, 0, 69, 0
2, 72793, Note_on_c, 0, 74, 0
2, 72794, Note_on_c, 0, 86, 0
2, 72795, Note_on_c, 0, 77, 0
2, 72918, Note_on_c, 0, 67, 88
2, 73073, Note_on_c, 0, 69, 100
2, 73382, Note_on_c, 0, 69, 0
2, 73387, Note_on_c, 0, 69, 95
2, 73397, Note_on_c, 0, 60, 0
2, 73397, Note_on_c, 0, 62, 0
2, 73397, Note_on_c, 0, 65, 0
2, 73400, Note_on_c, 0, 67, 0
2, 73400, Note_on_c, 0, 57, 0
2, 73400, Control_c, 0, 64, 0
2, 73402, Note_on_c, 0, 60, 68
2, 73402, Note_on_c, 0, 62, 69
2, 73403, Note_on_c, 0, 65, 69
2, 73405, Note_on_c, 0, 46, 69
2, 73428, Note_on_c, 0, 50, 0
2, 73466, Control_c, 0, 64, 127
2, 73635, Note_on_c, 0, 60, 0
2, 73689, Note_on_c, 0, 65, 0
2, 73876, Note_on_c, 0, 53, 69
2, 73896, Note_on_c, 0, 62, 0
2, 74354, Note_on_c, 0, 89, 85
2, 74360, Note_on_c, 0, 84, 75
2, 74361, Note_on_c, 0, 65, 63
2, 74361, Note_on_c, 0, 77, 75
2, 74365, Note_on_c, 0, 74, 60
2, 74369, Note_on_c, 0, 82, 69
2, 74370, Note_on_c, 0, 62, 52
2, 74378, Note_on_c, 0, 58, 54
2, 75264, Note_on_c, 0, 46, 0
2, 75269, Note_on_c, 0, 46, 67
2, 75394, Note_on_c, 0, 53, 0
2, 75402, Note_on_c, 0, 58, 0
2, 75405, Note_on_c, 0, 53, 84
2, 75407, Note_on_c, 0, 58, 87
2, 75552, Note_on_c, 0, 60, 86
2, 75694, Note_on_c, 0, 65, 0
2, 75702, Note_on_c, 0, 65, 93
2, 75824, Note_on_c, 0, 69, 0
2, 75833, Note_on_c, 0, 69, 101
2, 76001, Note_on_c, 0, 60, 0
2, 76004, Note_on_c, 0, 67, 94
2, 76006, Note_on_c, 0, 48, 83
2, 76008, Note_on_c, 0, 65, 0
2, 76011, Note_on_c, 0, 60, 82
2, 76014, Note_on_c, 0, 65, 78
2, 76016, Note_on_c, 0, 74, 0
2, 76018, Control_c, 0, 64, 0
2, 76018, Note_on_c, 0, 84, 0
2, 76019, Note_on_c, 0, 46, 0
2, 76019, Note_on_c, 0, 82, 0
2, 76019, Note_on_c, 0, 69, 0
2, 76019, Note_on_c, 0, 62, 0
2, 76020, Note_on_c, 0, 89, 0
2, 76020, Note_on_c, 0, 53, 0
2, 76020, Note_on_c, 0, 77, 0
2, 76020, Note_on_c, 0, 58, 0
2, 76177, Control_c, 0, 64, 127
2, 76490, Note_on_c, 0, 55, 67
2, 76953, Note_on_c, 0, 60, 0
2, 76958, Note_on_c, 0, 88, 84
2, 76963, Note_on_c, 0, 72, 60
2, 76964, Note_on_c, 0, 60, 56
2, 76968, Note_on_c, 0, 72, 0
2, 76970, Note_on_c, 0, 64, 62
2, 76988, Note_on_c, 0, 76, 65
2, 76995, Note_on_c, 0, 79, 58
2, 77806, Note_on_c, 0, 55, 0
2, 77809, Note_on_c, 0, 55, 62
2, 77952, Note_on_c, 0, 60, 0
2, 77959, Note_on_c, 0, 60, 85
2, 78105, Note_on_c, 0, 67, 0
2, 78115, Note_on_c, 0, 67, 74
2, 78282, Note_on_c, 0, 65, 0
2, 78292, Note_on_c, 0, 65, 67
2, 78405, Note_on_c, 0, 64, 0
2, 78415, Note_on_c, 0, 64, 68
2, 78588, Note_on_c, 0, 96, 100
2, 78603, Note_on_c, 0, 84, 88
2, 78612, Note_on_c, 0, 67, 0
2, 78616, Note_on_c, 0, 72, 69
2, 78616, Note_on_c, 0, 67, 65
2, 80098, Note_on_c, 0, 43, 55
2, 80104, Note_on_c, 0, 36, 52
2, 80179, Note_on_c, 0, 48, 0
2, 80185, Note_on_c, 0, 48, 63
2, 80240, Note_on_c, 0, 36, 0
2, 80240, Note_on_c, 0, 43, 0
2, 80245, Note_on_c, 0, 36, 72
2, 80251, Note_on_c, 0, 43, 68
2, 80309, Note_on_c, 0, 48, 0
2, 80314, Note_on_c, 0, 48, 73
2, 80386, Note_on_c, 0, 36, 0
2, 80386, Note_on_c, 0, 43, 0
2, 80391, Note_on_c, 0, 36, 78
2, 80392, Note_on_c, 0, 43, 77
2, 80448, Note_on_c, 0, 48, 0
2, 80456, Note_on_c, 0, 48, 88
2, 80517, Note_on_c, 0, 36, 0
2, 80517, Note_on_c, 0, 43, 0
2, 80522, Note_on_c, 0, 43, 81
2, 80527, Note_on_c, 0, 36, 88
2, 80578, Note_on_c, 0, 48, 0
2, 80582, Note_on_c, 0, 48, 94
2, 80686, Note_on_c, 0, 36, 0
2, 80686, Note_on_c, 0, 43, 0
2, 80690, Note_on_c, 0, 43, 99
2, 80690, Note_on_c, 0, 36, 99
2, 80918, Note_on_c, 0, 60, 0
2, 80918, Note_on_c, 0, 76, 0
2, 80919, Note_on_c, 0, 88, 0
2, 80919, Note_on_c, 0, 96, 0
2, 80919, Note_on_c, 0, 64, 0
2, 80919, Note_on_c, 0, 72, 0
2, 80919, Note_on_c, 0, 84, 0
2, 80919, Note_on_c, 0, 48, 0
2, 80919, Note_on_c, 0, 43, 0
2, 80920, Note_on_c, 0, 36, 0
2, 80920, Note_on_c, 0, 79, 0
2, 80920, Note_on_c, 0, 67, 0
2, 80921, Control_c, 0, 64, 0
2, 80931, Note_on_c, 0, 65, 0
2, 80939, Note_on_c, 0, 55, 0
2, 80994, Note_on_c, 0, 77, 107
2, 80996, Note_on_c, 0, 65, 102
2, 81028, Note_on_c, 0, 65, 0
2, 81033, Note_on_c, 0, 77, 0
2, 81140, Note_on_c, 0, 76, 106
2, 81142, Note_on_c, 0, 64, 101
2, 81223, Note_on_c, 0, 64, 0
2, 81245, Note_on_c, 0, 76, 0
2, 81302, Note_on_c, 0, 26, 96
2, 81303, Note_on_c, 0, 38, 101
2, 81304, Note_on_c, 0, 77, 110
2, 81304, Note_on_c, 0, 65, 101
2, 81308, Control_c, 0, 64, 127
2, 81308, Note_on_c, 0, 69, 101
2, 81308, Note_on_c, 0, 74, 102
2, 81607, Note_on_c, 0, 26, 0
2, 81607, Note_on_c, 0, 38, 0
2, 81616, Note_on_c, 0, 26, 69
2, 81617, Note_on_c, 0, 38, 76
2, 81751, Note_on_c, 0, 45, 76
2, 81891, Note_on_c, 0, 77, 0
2, 81899, Note_on_c, 0, 38, 0
2, 81899, Note_on_c, 0, 69, 0
2, 81899, Note_on_c, 0, 74, 0
2, 81900, Note_on_c, 0, 81, 102
2, 81902, Note_on_c, 0, 77, 96
2, 81903, Note_on_c, 0, 38, 77
2, 81903, Note_on_c, 0, 69, 99
2, 81905, Note_on_c, 0, 74, 97
2, 81910, Note_on_c, 0, 50, 85
2, 82054, Note_on_c, 0, 53, 83
2, 82204, Note_on_c, 0, 57, 81
2, 82345, Note_on_c, 0, 62, 90
2, 82506, Control_c, 0, 64, 0
2, 82507, Note_on_c, 0, 76, 107
2, 82511, Note_on_c, 0, 67, 94
2, 82511, Note_on_c, 0, 64, 101
2, 82511, Note_on_c, 0, 45, 0
2, 82512, Note_on_c, 0, 38, 0
2, 82512, Note_on_c, 0, 74, 0
2, 82512, Note_on_c, 0, 62, 0
2, 82512, Note_on_c, 0, 57, 0
2, 82512, Note_on_c, 0, 53, 0
2, 82513, Note_on_c, 0, 81, 0
2, 82513, Note_on_c, 0, 26, 0
2, 82513, Note_on_c, 0, 50, 0
2, 82515, Note_on_c, 0, 69, 0
2, 82517, Note_on_c, 0, 36, 85
2, 82517, Note_on_c, 0, 48, 99
2, 82529, Note_on_c, 0, 77, 0
2, 82536, Note_on_c, 0, 65, 0
2, 82598, Control_c, 0, 64, 127
2, 82660, Note_on_c, 0, 72, 86
2, 82805, Note_on_c, 0, 67, 0
2, 82810, Note_on_c, 0, 67, 79
2, 82951, Note_on_c, 0, 64, 0
2, 82956, Note_on_c, 0, 64, 94
2, 83097, Note_on_c, 0, 36, 0
2, 83107, Note_on_c, 0, 36, 75
2, 83109, Note_on_c, 0, 60, 97
2, 83109, Note_on_c, 0, 55, 88
2, 83261, Note_on_c, 0, 52, 85
2, 83404, Note_on_c, 0, 48, 0
2, 83406, Note_on_c, 0, 74, 101
2, 83408, Note_on_c, 0, 62, 95
2, 83410, Note_on_c, 0, 48, 83
2, 83550, Note_on_c, 0, 60, 0
2, 83550, Note_on_c, 0, 72, 0
2, 83555, Note_on_c, 0, 43, 79
2, 83556, Note_on_c, 0, 72, 102
2, 83560, Note_on_c, 0, 60, 92
2, 83702, Control_c, 0, 64, 0
2, 83706, Note_on_c, 0, 55, 0
2, 83706, Note_on_c, 0, 76, 0
2, 83706, Note_on_c, 0, 52, 0
2, 83706, Note_on_c, 0, 60, 0
2, 83706, Note_on_c, 0, 67, 0
2, 83707, Note_on_c, 0, 64, 0
2, 83707, Note_on_c, 0, 72, 0
2, 83707, Note_on_c, 0, 48, 0
2, 83707, Note_on_c, 0, 43, 0
2, 83709, Note_on_c, 0, 36, 0
2, 83712, Note_on_c, 0, 62, 0
2, 83712, Note_on_c, 0, 74, 0
2, 83716, Note_on_c, 0, 74, 105
2, 83717, Note_on_c, 0, 34, 89
2, 83717, Note_on_c, 0, 65, 89
2, 83717, Note_on_c, 0, 62, 99
2, 83720, Note_on_c, 0, 70, 95
2, 83804, Control_c, 0, 64, 127
2, 84008, Note_on_c, 0, 41, 70
2, 84162, Note_on_c, 0, 46, 79
2, 84306, Note_on_c, 0, 77, 99
2, 84311, Note_on_c, 0, 65, 0
2, 84311, Note_on_c, 0, 70, 0
2, 84311, Note_on_c, 0, 74, 0
2, 84311, Note_on_c, 0, 38, 71
2, 84315, Note_on_c, 0, 65, 89
2, 84315, Note_on_c, 0, 74, 89
2, 84318, Note_on_c, 0, 38, 0
2, 84319, Note_on_c, 0, 70, 90
2, 84453, Note_on_c, 0, 53, 81
2, 84593, Note_on_c, 0, 58, 89
2, 84733, Note_on_c, 0, 62, 0
2, 84742, Note_on_c, 0, 62, 88
2, 84894, Control_c, 0, 64, 0
2, 84898, Note_on_c, 0, 34, 0
2, 84898, Note_on_c, 0, 41, 0
2, 84898, Note_on_c, 0, 77, 0
2, 84898, Note_on_c, 0, 58, 0
2, 84898, Note_on_c, 0, 62, 0
2, 84899, Note_on_c, 0, 65, 0
2, 84899, Note_on_c, 0, 74, 0
2, 84899, Note_on_c, 0, 70, 0
2, 84899, Note_on_c, 0, 53, 0
2, 84899, Note_on_c, 0, 46, 0
2, 84908, Note_on_c, 0, 81, 106
2, 84913, Note_on_c, 0, 69, 102
2, 84914, Note_on_c, 0, 72, 95
2, 84920, Note_on_c, 0, 33, 82
2, 84921, Note_on_c, 0, 45, 91
2, 84979, Control_c, 0, 64, 127
2, 85058, Note_on_c, 0, 77, 94
2, 85201, Note_on_c, 0, 72, 0
2, 85212, Note_on_c, 0, 72, 92
2, 85355, Note_on_c, 0, 69, 0
2, 85360, Note_on_c, 0, 69, 89
2, 85378, Note_on_c, 0, 33, 0
2, 85505, Note_on_c, 0, 65, 97
2, 85505, Note_on_c, 0, 60, 93
2, 85639, Note_on_c, 0, 57, 87
2, 85789, Note_on_c, 0, 82, 103
2, 85790, Note_on_c, 0, 70, 103
2, 85793, Note_on_c, 0, 41, 70
2, 85794, Note_on_c, 0, 53, 86
2, 85800, Note_on_c, 0, 41, 0
2, 85923, Note_on_c, 0, 69, 0
2, 85923, Note_on_c, 0, 81, 0
2, 85927, Note_on_c, 0, 48, 80
2, 85929, Note_on_c, 0, 81, 102
2, 85934, Note_on_c, 0, 69, 96
2, 86081, Note_on_c, 0, 53, 0
2, 86081, Note_on_c, 0, 65, 0
2, 86081, Note_on_c, 0, 77, 0
2, 86082, Note_on_c, 0, 72, 0
2, 86082, Note_on_c, 0, 60, 0
2, 86082, Control_c, 0, 64, 0
2, 86082, Note_on_c, 0, 57, 0
2, 86082, Note_on_c, 0, 81, 0
2, 86082, Note_on_c, 0, 45, 0
2, 86085, Note_on_c, 0, 82, 0
2, 86092, Note_on_c, 0, 48, 0
2, 86092, Note_on_c, 0, 69, 0
2, 86092, Note_on_c, 0, 70, 0
2, 86096, Note_on_c, 0, 82, 109
2, 86098, Note_on_c, 0, 70, 102
2, 86098, Note_on_c, 0, 74, 91
2, 86099, Note_on_c, 0, 79, 93
2, 86102, Note_on_c, 0, 43, 87
2, 86103, Note_on_c, 0, 31, 89
2, 86161, Control_c, 0, 64, 127
2, 86392, Note_on_c, 0, 31, 0
2, 86392, Note_on_c, 0, 43, 0
2, 86397, Note_on_c, 0, 43, 70
2, 86400, Note_on_c, 0, 31, 71
2, 86542, Note_on_c, 0, 50, 65
2, 86673, Note_on_c, 0, 53, 74
2, 86696, Note_on_c, 0, 86, 103
2, 86699, Note_on_c, 0, 74, 0
2, 86699, Note_on_c, 0, 82, 0
2, 86704, Note_on_c, 0, 74, 98
2, 86706, Note_on_c, 0, 77, 96
2, 86709, Note_on_c, 0, 82, 96
2, 86825, Note_on_c, 0, 58, 83
2, 86993, Note_on_c, 0, 62, 90
2, 87132, Note_on_c, 0, 65, 82
2, 87298, Note_on_c, 0, 74, 0
2, 87303, Note_on_c, 0, 81, 104
2, 87308, Note_on_c, 0, 74, 97
2, 87309, Note_on_c, 0, 69, 100
2, 87311, Control_c, 0, 64, 0
2, 87311, Note_on_c, 0, 82, 0
2, 87311, Note_on_c, 0, 70, 0
2, 87311, Note_on_c, 0, 77, 0
2, 87311, Note_on_c, 0, 65, 0
2, 87311, Note_on_c, 0, 58, 0
2, 87312, Note_on_c, 0, 50, 0
2, 87312, Note_on_c, 0, 62, 0
2, 87312, Note_on_c, 0, 86, 0
2, 87312, Note_on_c, 0, 43, 0
2, 87312, Note_on_c, 0, 53, 0
2, 87313, Note_on_c, 0, 79, 0
2, 87314, Note_on_c, 0, 41, 86
2, 87314, Note_on_c, 0, 31, 0
2, 87316, Note_on_c, 0, 29, 92
2, 87360, Control_c, 0, 64, 127
2, 87464, Note_on_c, 0, 77, 93
2, 87605, Note_on_c, 0, 74, 0
2, 87616, Note_on_c, 0, 74, 97
2, 87751, Note_on_c, 0, 69, 0
2, 87756, Note_on_c, 0, 69, 94
2, 87908, Note_on_c, 0, 65, 100
2, 87909, Note_on_c, 0, 62, 92
2, 88064, Note_on_c, 0, 57, 82
2, 88202, Note_on_c, 0, 79, 102
2, 88204, Note_on_c, 0, 41, 0
2, 88208, Note_on_c, 0, 67, 97
2, 88209, Note_on_c, 0, 53, 85
2, 88332, Note_on_c, 0, 50, 77
2, 88343, Note_on_c, 0, 77, 0
2, 88347, Note_on_c, 0, 69, 0
2, 88350, Note_on_c, 0, 65, 0
2, 88354, Note_on_c, 0, 77, 102
2, 88357, Note_on_c, 0, 65, 84
2, 88472, Note_on_c, 0, 50, 0
2, 88472, Note_on_c, 0, 57, 0
2, 88473, Note_on_c, 0, 62, 0
2, 88473, Note_on_c, 0, 53, 0
2, 88473, Note_on_c, 0, 65, 0
2, 88473, Note_on_c, 0, 67, 0
2, 88473, Note_on_c, 0, 79, 0
2, 88473, Note_on_c, 0, 77, 0
2, 88474, Note_on_c, 0, 81, 0
2, 88474, Control_c, 0, 64, 0
2, 88488, Note_on_c, 0, 29, 0
2, 88488, Note_on_c, 0, 74, 0
2, 88514, Note_on_c, 0, 79, 106
2, 88516, Note_on_c, 0, 67, 99
2, 88517, Note_on_c, 0, 74, 89
2, 88520, Note_on_c, 0, 70, 98
2, 88520, Note_on_c, 0, 40, 86
2, 88522, Note_on_c, 0, 28, 82
2, 88558, Control_c, 0, 64, 127
2, 88803, Note_on_c, 0, 40, 0
2, 88812, Note_on_c, 0, 40, 82
2, 88951, Note_on_c, 0, 46, 78
2, 89095, Note_on_c, 0, 74, 0
2, 89101, Note_on_c, 0, 74, 107
2, 89105, Note_on_c, 0, 50, 79
2, 89105, Note_on_c, 0, 62, 97
2, 89238, Note_on_c, 0, 55, 77
2, 89393, Note_on_c, 0, 58, 81
2, 89525, Note_on_c, 0, 62, 0
2, 89536, Note_on_c, 0, 62, 81
2, 89679, Note_on_c, 0, 28, 0
2, 89691, Control_c, 0, 64, 0
2, 89691, Note_on_c, 0, 40, 0
2, 89691, Note_on_c, 0, 62, 0
2, 89691, Note_on_c, 0, 46, 0
2, 89692, Note_on_c, 0, 79, 0
2, 89692, Note_on_c, 0, 58, 0
2, 89692, Note_on_c, 0, 67, 0
2, 89693, Note_on_c, 0, 50, 0
2, 89693, Note_on_c, 0, 55, 0
2, 89693, Note_on_c, 0, 70, 0
2, 89702, Note_on_c, 0, 74, 0
2, 89705, Note_on_c, 0, 81, 104
2, 89708, Note_on_c, 0, 69, 100
2, 89713, Note_on_c, 0, 45, 90
2, 89713, Note_on_c, 0, 74, 92
2, 89714, Note_on_c, 0, 33, 84
2, 89714, Note_on_c, 0, 76, 88
2, 89739, Note_on_c, 0, 78, 46
2, 89756, Control_c, 0, 64, 127
2, 90011, Note_on_c, 0, 62, 96
2, 90011, Note_on_c, 0, 59, 82
2, 90140, Note_on_c, 0, 45, 0
2, 90145, Note_on_c, 0, 45, 78
2, 90290, Note_on_c, 0, 64, 99
2, 90295, Note_on_c, 0, 52, 98
2, 90295, Control_c, 0, 64, 0
2, 90296, Note_on_c, 0, 57, 91
2, 90296, Note_on_c, 0, 61, 89
2, 90332, Control_c, 0, 64, 127
2, 90455, Note_on_c, 0, 45, 0
2, 90460, Note_on_c, 0, 45, 88
2, 90600, Note_on_c, 0, 33, 0
2, 90606, Note_on_c, 0, 33, 80
2, 90607, Note_on_c, 0, 89, 104
2, 90609, Note_on_c, 0, 77, 104
2, 90746, Note_on_c, 0, 45, 0
2, 90754, Note_on_c, 0, 76, 0
2, 90757, Note_on_c, 0, 45, 74
2, 90760, Note_on_c, 0, 88, 95
2, 90760, Note_on_c, 0, 76, 98
2, 90764, Note_on_c, 0, 85, 78
2, 90854, Note_on_c, 0, 52, 0
2, 90854, Note_on_c, 0, 81, 0
2, 90854, Note_on_c, 0, 62, 0
2, 90854, Note_on_c, 0, 45, 0
2, 90855, Note_on_c, 0, 69, 0
2, 90855, Note_on_c, 0, 77, 0
2, 90855, Note_on_c, 0, 74, 0
2, 90855, Note_on_c, 0, 64, 0
2, 90855, Note_on_c, 0, 57, 0
2, 90855, Note_on_c, 0, 59, 0
2, 90855, Note_on_c, 0, 61, 0
2, 90856, Note_on_c, 0, 76, 0
2, 90857, Control_c, 0, 64, 0
2, 90857, Note_on_c, 0, 88, 0
2, 90857, Note_on_c, 0, 89, 0
2, 90862, Note_on_c, 0, 78, 0
2, 90862, Note_on_c, 0, 85, 0
2, 90895, Note_on_c, 0, 38, 91
2, 90898, Note_on_c, 0, 81, 100
2, 90900, Note_on_c, 0, 89, 106
2, 90902, Note_on_c, 0, 77, 106
2, 90903, Note_on_c, 0, 86, 91
2, 90938, Control_c, 0, 64, 127
2, 91089, Note_on_c, 0, 53, 58
2, 91222, Note_on_c, 0, 57, 74
2, 91372, Note_on_c, 0, 62, 84
2, 91507, Note_on_c, 0, 81, 0
2, 91507, Note_on_c, 0, 86, 0
2, 91507, Note_on_c, 0, 89, 0
2, 91512, Note_on_c, 0, 81, 103
2, 91513, Note_on_c, 0, 93, 101
2, 91518, Note_on_c, 0, 86, 94
2, 91518, Note_on_c, 0, 89, 100
2, 91660, Note_on_c, 0, 57, 0
2, 91665, Note_on_c, 0, 57, 93
2, 91799, Note_on_c, 0, 62, 0
2, 91805, Note_on_c, 0, 62, 91
2, 91933, Note_on_c, 0, 65, 87
2, 92101, Control_c, 0, 64, 0
2, 92105, Note_on_c, 0, 88, 101
2, 92105, Note_on_c, 0, 77, 0
2, 92107, Note_on_c, 0, 84, 99
2, 92107, Note_on_c, 0, 65, 0
2, 92107, Note_on_c, 0, 93, 0
2, 92108, Note_on_c, 0, 62, 0
2, 92108, Note_on_c, 0, 53, 0
2, 92108, Note_on_c, 0, 81, 0
2, 92108, Note_on_c, 0, 57, 0
2, 92109, Note_on_c, 0, 45, 83
2, 92109, Note_on_c, 0, 76, 101
2, 92110, Note_on_c, 0, 79, 96
2, 92121, Note_on_c, 0, 38, 0
2, 92129, Note_on_c, 0, 86, 0
2, 92129, Note_on_c, 0, 89, 0
2, 92152, Control_c, 0, 64, 127
2, 92175, Note_on_c, 0, 33, 0
2, 92250, Note_on_c, 0, 52, 83
2, 92397, Note_on_c, 0, 72, 96
2, 92409, Note_on_c, 0, 67, 76
2, 92413, Note_on_c, 0, 55, 80
2, 92490, Note_on_c, 0, 72, 0
2, 92500, Note_on_c, 0, 64, 71
2, 92500, Note_on_c, 0, 72, 95
2, 92555, Note_on_c, 0, 60, 89
2, 92582, Note_on_c, 0, 67, 0
2, 92582, Note_on_c, 0, 72, 0
2, 92587, Note_on_c, 0, 72, 83
2, 92587, Note_on_c, 0, 67, 69
2, 92697, Note_on_c, 0, 67, 0
2, 92703, Note_on_c, 0, 67, 79
2, 92705, Note_on_c, 0, 64, 0
2, 92705, Note_on_c, 0, 72, 0
2, 92709, Note_on_c, 0, 76, 0
2, 92709, Note_on_c, 0, 64, 94
2, 92713, Note_on_c, 0, 72, 100
2, 92716, Note_on_c, 0, 74, 83
2, 92720, Note_on_c, 0, 74, 0
2, 92851, Note_on_c, 0, 60, 0
2, 92862, Note_on_c, 0, 60, 95
2, 92989, Note_on_c, 0, 55, 0
2, 92995, Note_on_c, 0, 86, 104
2, 92998, Note_on_c, 0, 74, 103
2, 93000, Note_on_c, 0, 55, 78
2, 93127, Note_on_c, 0, 52, 0
2, 93133, Note_on_c, 0, 52, 84
2, 93143, Note_on_c, 0, 72, 0
2, 93143, Note_on_c, 0, 84, 0
2, 93147, Note_on_c, 0, 84, 105
2, 93147, Note_on_c, 0, 72, 105
2, 93265, Note_on_c, 0, 45, 0
2, 93270, Note_on_c, 0, 74, 0
2, 93270, Note_on_c, 0, 67, 0
2, 93270, Note_on_c, 0, 79, 0
2, 93271, Note_on_c, 0, 84, 0
2, 93271, Note_on_c, 0, 64, 0
2, 93271, Note_on_c, 0, 72, 0
2, 93271, Note_on_c, 0, 60, 0
2, 93271, Note_on_c, 0, 88, 0
2, 93271, Control_c, 0, 64, 0
2, 93288, Note_on_c, 0, 52, 0
2, 93288, Note_on_c, 0, 55, 0
2, 93296, Note_on_c, 0, 86, 0
2, 93302, Note_on_c, 0, 86, 107
2, 93306, Note_on_c, 0, 34, 88
2, 93307, Note_on_c, 0, 74, 106
2, 93307, Note_on_c, 0, 77, 96
2, 93308, Note_on_c, 0, 46, 92
2, 93309, Note_on_c, 0, 82, 99
2, 93335, Control_c, 0, 64, 127
2, 93478, Note_on_c, 0, 50, 74
2, 93610, Note_on_c, 0, 53, 77
2, 93751, Note_on_c, 0, 58, 89
2, 93903, Note_on_c, 0, 77, 0
2, 93903, Note_on_c, 0, 82, 0
2, 93903, Note_on_c, 0, 86, 0
2, 93905, Control_c, 0, 64, 0
2, 93906, Note_on_c, 0, 89, 105
2, 93907, Note_on_c, 0, 77, 102
2, 93907, Note_on_c, 0, 82, 100
2, 93907, Note_on_c, 0, 86, 98
2, 93918, Control_c, 0, 64, 127
2, 94049, Note_on_c, 0, 53, 0
2, 94055, Note_on_c, 0, 53, 94
2, 94195, Note_on_c, 0, 58, 0
2, 94202, Note_on_c, 0, 58, 82
2, 94340, Note_on_c, 0, 62, 91
2, 94488, Note_on_c, 0, 34, 0
2, 94488, Note_on_c, 0, 46, 0
2, 94489, Note_on_c, 0, 50, 0
2, 94489, Control_c, 0, 64, 0
2, 94489, Note_on_c, 0, 53, 0
2, 94489, Note_on_c, 0, 62, 0
2, 94489, Note_on_c, 0, 77, 0
2, 94489, Note_on_c, 0, 86, 0
2, 94489, Note_on_c, 0, 58, 0
2, 94490, Note_on_c, 0, 82, 0
2, 94490, Note_on_c, 0, 74, 0
2, 94507, Note_on_c, 0, 93, 109
2, 94510, Note_on_c, 0, 89, 0
2, 94512, Note_on_c, 0, 84, 107
2, 94513, Note_on_c, 0, 81, 106
2, 94513, Note_on_c, 0, 41, 84
2, 94514, Note_on_c, 0, 89, 99
2, 94548, Control_c, 0, 64, 127
2, 94659, Note_on_c, 0, 48, 78
2, 94805, Note_on_c, 0, 53, 78
2, 94808, Note_on_c, 0, 72, 101
2, 94812, Note_on_c, 0, 65, 80
2, 94819, Note_on_c, 0, 67, 67
2, 94894, Note_on_c, 0, 65, 0
2, 94894, Note_on_c, 0, 67, 0
2, 94894, Note_on_c, 0, 72, 0
2, 94902, Note_on_c, 0, 67, 85
2, 94903, Note_on_c, 0, 72, 98
2, 94903, Note_on_c, 0, 65, 83
2, 94944, Note_on_c, 0, 55, 73
2, 94986, Note_on_c, 0, 72, 0
2, 94992, Note_on_c, 0, 72, 86
2, 95101, Note_on_c, 0, 67, 0
2, 95109, Note_on_c, 0, 65, 0
2, 95109, Note_on_c, 0, 72, 0
2, 95111, Note_on_c, 0, 67, 90
2, 95113, Note_on_c, 0, 72, 105
2, 95113, Note_on_c, 0, 65, 85
2, 95114, Note_on_c, 0, 60, 88
2, 95262, Note_on_c, 0, 55, 0
2, 95266, Note_on_c, 0, 55, 84
2, 95400, Note_on_c, 0, 53, 0
2, 95410, Note_on_c, 0, 53, 80
2, 95413, Note_on_c, 0, 82, 108
2, 95413, Note_on_c, 0, 94, 99
2, 95523, Note_on_c, 0, 48, 0
2, 95535, Note_on_c, 0, 48, 80
2, 95546, Note_on_c, 0, 81, 0
2, 95546, Note_on_c, 0, 93, 0
2, 95556, Note_on_c, 0, 93, 102
2, 95557, Note_on_c, 0, 81, 109
2, 95673, Note_on_c, 0, 94, 0
2, 95673, Note_on_c, 0, 65, 0
2, 95674, Note_on_c, 0, 72, 0
2, 95674, Note_on_c, 0, 67, 0
2, 95674, Note_on_c, 0, 81, 0
2, 95674, Note_on_c, 0, 41, 0
2, 95674, Note_on_c, 0, 84, 0
2, 95674, Note_on_c, 0, 53, 0
2, 95674, Note_on_c, 0, 89, 0
2, 95675, Control_c, 0, 64, 0
2, 95685, Note_on_c, 0, 48, 0
2, 95685, Note_on_c, 0, 55, 0
2, 95685, Note_on_c, 0, 60, 0
2, 95692, Note_on_c, 0, 93, 0
2, 95700, Note_on_c, 0, 82, 0
2, 95705, Note_on_c, 0, 94, 99
2, 95705, Note_on_c, 0, 82, 111
2, 95705, Note_on_c, 0, 86, 91
2, 95707, Note_on_c, 0, 31, 84
2, 95710, Note_on_c, 0, 91, 107
2, 95711, Note_on_c, 0, 43, 87
2, 95723, Control_c, 0, 64, 127
2, 95831, Note_on_c, 0, 31, 0
2, 95881, Note_on_c, 0, 50, 72
2, 96006, Note_on_c, 0, 53, 75
2, 96157, Note_on_c, 0, 58, 88
2, 96290, Note_on_c, 0, 98, 111
2, 96291, Note_on_c, 0, 86, 0
2, 96291, Note_on_c, 0, 94, 0
2, 96296, Note_on_c, 0, 89, 93
2, 96296, Note_on_c, 0, 86, 103
2, 96301, Note_on_c, 0, 94, 88
2, 96437, Note_on_c, 0, 58, 0
2, 96444, Note_on_c, 0, 58, 86
2, 96580, Note_on_c, 0, 62, 82
2, 96720, Note_on_c, 0, 67, 88
2, 96871, Control_c, 0, 64, 0
2, 96871, Note_on_c, 0, 62, 0
2, 96871, Note_on_c, 0, 50, 0
2, 96871, Note_on_c, 0, 58, 0
2, 96871, Note_on_c, 0, 94, 0
2, 96871, Note_on_c, 0, 82, 0
2, 96871, Note_on_c, 0, 53, 0
2, 96871, Note_on_c, 0, 98, 0
2, 96872, Note_on_c, 0, 91, 0
2, 96873, Note_on_c, 0, 43, 0
2, 96873, Note_on_c, 0, 67, 0
2, 96883, Note_on_c, 0, 86, 0
2, 96883, Note_on_c, 0, 89, 0
2, 96884, Note_on_c, 0, 93, 106
2, 96885, Note_on_c, 0, 81, 105
2, 96886, Note_on_c, 0, 38, 86
2, 96888, Note_on_c, 0, 89, 101
2, 96889, Note_on_c, 0, 86, 96
2, 96921, Control_c, 0, 64, 127
2, 97035, Note_on_c, 0, 45, 78
2, 97185, Note_on_c, 0, 50, 67
2, 97186, Note_on_c, 0, 74, 96
2, 97190, Note_on_c, 0, 65, 70
2, 97259, Note_on_c, 0, 74, 0
2, 97267, Note_on_c, 0, 74, 84
2, 97270, Note_on_c, 0, 69, 83
2, 97302, Note_on_c, 0, 53, 77
2, 97351, Note_on_c, 0, 65, 0
2, 97351, Note_on_c, 0, 69, 0
2, 97359, Note_on_c, 0, 69, 84
2, 97362, Note_on_c, 0, 65, 62
2, 97466, Note_on_c, 0, 65, 0
2, 97466, Note_on_c, 0, 69, 0
2, 97466, Note_on_c, 0, 74, 0
2, 97473, Note_on_c, 0, 65, 78
2, 97476, Note_on_c, 0, 74, 104
2, 97477, Note_on_c, 0, 69, 81
2, 97482, Note_on_c, 0, 62, 95
2, 97640, Note_on_c, 0, 57, 80
2, 97766, Note_on_c, 0, 53, 0
2, 97775, Note_on_c, 0, 91, 105
2, 97777, Note_on_c, 0, 53, 73
2, 97777, Note_on_c, 0, 79, 99
2, 97904, Note_on_c, 0, 50, 0
2, 97904, Note_on_c, 0, 89, 0
2, 97908, Note_on_c, 0, 38, 0
2, 97911, Note_on_c, 0, 50, 80
2, 97915, Note_on_c, 0, 89, 104
2, 97916, Note_on_c, 0, 77, 105
2, 98049, Note_on_c, 0, 77, 0
2, 98051, Control_c, 0, 64, 0
2, 98053, Note_on_c, 0, 50, 0
2, 98063, Note_on_c, 0, 40, 80
2, 98065, Note_on_c, 0, 45, 0
2, 98065, Note_on_c, 0, 62, 0
2, 98065, Note_on_c, 0, 65, 0
2, 98065, Note_on_c, 0, 74, 0
2, 98065, Note_on_c, 0, 79, 0
2, 98065, Note_on_c, 0, 86, 0
2, 98065, Note_on_c, 0, 91, 0
2, 98071, Note_on_c, 0, 91, 110
2, 98071, Note_on_c, 0, 79, 104
2, 98073, Note_on_c, 0, 53, 0
2, 98073, Note_on_c, 0, 57, 0
2, 98073, Note_on_c, 0, 69, 0
2, 98073, Note_on_c, 0, 89, 0
2, 98073, Note_on_c, 0, 93, 0
2, 98075, Note_on_c, 0, 86, 96
2, 98076, Note_on_c, 0, 82, 98
2, 98081, Note_on_c, 0, 81, 0
2, 98104, Control_c, 0, 64, 127
2, 98216, Note_on_c, 0, 46, 75
2, 98369, Note_on_c, 0, 50, 68
2, 98370, Note_on_c, 0, 74, 96
2, 98377, Note_on_c, 0, 70, 62
2, 98377, Note_on_c, 0, 67, 70
2, 98434, Note_on_c, 0, 74, 0
2, 98439, Note_on_c, 0, 74, 96
2, 98480, Note_on_c, 0, 55, 68
2, 98519, Note_on_c, 0, 74, 0
2, 98526, Note_on_c, 0, 67, 0
2, 98526, Note_on_c, 0, 70, 0
2, 98528, Note_on_c, 0, 74, 78
2, 98531, Note_on_c, 0, 70, 79
2, 98537, Note_on_c, 0, 67, 76
2, 98641, Note_on_c, 0, 70, 0
2, 98641, Note_on_c, 0, 74, 0
2, 98649, Note_on_c, 0, 67, 0
2, 98652, Note_on_c, 0, 70, 100
2, 98653, Note_on_c, 0, 74, 104
2, 98654, Note_on_c, 0, 67, 92
2, 98661, Note_on_c, 0, 62, 87
2, 98812, Note_on_c, 0, 58, 80
2, 98949, Note_on_c, 0, 86, 0
2, 98956, Note_on_c, 0, 55, 0
2, 98956, Note_on_c, 0, 74, 0
2, 98960, Note_on_c, 0, 86, 105
2, 98960, Note_on_c, 0, 55, 73
2, 98961, Note_on_c, 0, 74, 100
2, 99095, Note_on_c, 0, 79, 0
2, 99095, Note_on_c, 0, 91, 0
2, 99098, Note_on_c, 0, 52, 77
2, 99100, Note_on_c, 0, 91, 101
2, 99102, Note_on_c, 0, 79, 101
2, 99102, Note_on_c, 0, 86, 0
2, 99107, Note_on_c, 0, 86, 77
2, 99251, Note_on_c, 0, 52, 0
2, 99251, Note_on_c, 0, 46, 0
2, 99252, Note_on_c, 0, 50, 0
2, 99252, Note_on_c, 0, 62, 0
2, 99252, Note_on_c, 0, 58, 0
2, 99252, Note_on_c, 0, 74, 0
2, 99252, Note_on_c, 0, 79, 0
2, 99252, Note_on_c, 0, 55, 0
2, 99252, Note_on_c, 0, 70, 0
2, 99252, Note_on_c, 0, 67, 0
2, 99252, Note_on_c, 0, 45, 96
2, 99252, Note_on_c, 0, 82, 0
2, 99253, Control_c, 0, 64, 0
2, 99254, Note_on_c, 0, 91, 0
2, 99256, Note_on_c, 0, 93, 104
2, 99256, Note_on_c, 0, 40, 0
2, 99256, Note_on_c, 0, 86, 0
2, 99258, Note_on_c, 0, 81, 106
2, 99260, Note_on_c, 0, 88, 93
2, 99262, Note_on_c, 0, 86, 92
2, 99310, Control_c, 0, 64, 127
2, 99399, Note_on_c, 0, 52, 79
2, 99543, Note_on_c, 0, 57, 80
2, 99545, Note_on_c, 0, 74, 97
2, 99549, Note_on_c, 0, 69, 77
2, 99552, Note_on_c, 0, 67, 73
2, 99617, Note_on_c, 0, 74, 0
2, 99624, Note_on_c, 0, 74, 82
2, 99701, Note_on_c, 0, 62, 63
2, 99717, Note_on_c, 0, 67, 0
2, 99717, Note_on_c, 0, 74, 0
2, 99721, Note_on_c, 0, 74, 68
2, 99726, Note_on_c, 0, 67, 66
2, 99840, Note_on_c, 0, 67, 0
2, 99840, Note_on_c, 0, 69, 0
2, 99840, Note_on_c, 0, 74, 0
2, 99846, Note_on_c, 0, 74, 103
2, 99850, Note_on_c, 0, 69, 89
2, 99850, Note_on_c, 0, 64, 95
2, 99851, Note_on_c, 0, 67, 83
2, 99985, Note_on_c, 0, 45, 0
2, 99996, Note_on_c, 0, 45, 92
2, 100139, Note_on_c, 0, 45, 0
2, 100139, Note_on_c, 0, 57, 0
2, 100139, Note_on_c, 0, 74, 0
2, 100143, Note_on_c, 0, 45, 83
2, 100147, Note_on_c, 0, 67, 0
2, 100147, Note_on_c, 0, 69, 0
2, 100148, Note_on_c, 0, 57, 87
2, 100149, Note_on_c, 0, 74, 104
2, 100154, Note_on_c, 0, 69, 80
2, 100154, Note_on_c, 0, 67, 85
2, 100224, Note_on_c, 0, 74, 0
2, 100231, Note_on_c, 0, 69, 0
2, 100235, Note_on_c, 0, 74, 85
2, 100236, Note_on_c, 0, 69, 78
2, 100300, Note_on_c, 0, 62, 0
2, 100300, Note_on_c, 0, 74, 0
2, 100306, Note_on_c, 0, 62, 88
2, 100308, Note_on_c, 0, 67, 0
2, 100310, Note_on_c, 0, 74, 85
2, 100312, Note_on_c, 0, 67, 80
2, 100431, Note_on_c, 0, 74, 0
2, 100439, Note_on_c, 0, 64, 0
2, 100439, Note_on_c, 0, 69, 0
2, 100440, Note_on_c, 0, 74, 90
2, 100442, Note_on_c, 0, 76, 107
2, 100443, Note_on_c, 0, 64, 98
2, 100443, Note_on_c, 0, 69, 101
2, 100444, Control_c, 0, 64, 0
2, 100469, Control_c, 0, 64, 127
2, 100577, Note_on_c, 0, 45, 0
2, 100583, Note_on_c, 0, 45, 80
2, 100715, Note_on_c, 0, 45, 0
2, 100715, Note_on_c, 0, 57, 0
2, 100724, Note_on_c, 0, 45, 76
2, 100725, Note_on_c, 0, 57, 89
2, 100730, Note_on_c, 0, 69, 0
2, 100730, Note_on_c, 0, 74, 0
2, 100730, Note_on_c, 0, 76, 0
2, 100739, Note_on_c, 0, 69, 88
2, 100740, Note_on_c, 0, 74, 87
2, 100741, Note_on_c, 0, 76, 89
2, 100815, Note_on_c, 0, 76, 0
2, 100823, Note_on_c, 0, 69, 0
2, 100824, Note_on_c, 0, 76, 98
2, 100830, Note_on_c, 0, 69, 84
2, 100869, Note_on_c, 0, 62, 0
2, 100874, Note_on_c, 0, 62, 87
2, 100915, Note_on_c, 0, 69, 0
2, 100915, Note_on_c, 0, 76, 0
2, 100921, Note_on_c, 0, 76, 96
2, 100924, Note_on_c, 0, 69, 89
2, 101022, Note_on_c, 0, 81, 0
2, 101030, Note_on_c, 0, 64, 0
2, 101030, Note_on_c, 0, 69, 0
2, 101030, Note_on_c, 0, 76, 0
2, 101033, Note_on_c, 0, 81, 106
2, 101035, Note_on_c, 0, 69, 105
2, 101040, Note_on_c, 0, 73, 89
2, 101040, Note_on_c, 0, 64, 99
2, 101040, Note_on_c, 0, 76, 79
2, 101041, Note_on_c, 0, 61, 84
2, 101329, Note_on_c, 0, 69, 0
2, 101329, Note_on_c, 0, 81, 0
2, 101338, Note_on_c, 0, 81, 106
2, 101339, Note_on_c, 0, 69, 100
2, 101568, Note_on_c, 0, 93, 0
2, 101574, Note_on_c, 0, 46, 69
2, 101618, Note_on_c, 0, 53, 75
2, 101644, Note_on_c, 0, 62, 0
2, 101651, Note_on_c, 0, 62, 83
2, 101660, Note_on_c, 0, 74, 0
2, 101660, Note_on_c, 0, 86, 0
2, 101663, Control_c, 0, 64, 0
2, 101664, Note_on_c, 0, 74, 96
2, 101667, Note_on_c, 0, 81, 0
2, 101671, Note_on_c, 0, 77, 91
2, 101671, Note_on_c, 0, 86, 100
2, 101671, Note_on_c, 0, 81, 90
2, 101671, Note_on_c, 0, 76, 0
2, 101671, Note_on_c, 0, 45, 0
2, 101672, Note_on_c, 0, 69, 0
2, 101672, Note_on_c, 0, 67, 0
2, 101672, Note_on_c, 0, 64, 0
2, 101673, Note_on_c, 0, 61, 0
2, 101673, Note_on_c, 0, 57, 0
2, 101690, Note_on_c, 0, 73, 0
2, 101698, Note_on_c, 0, 88, 0
2, 101713, Note_on_c, 0, 52, 0
2, 101775, Note_on_c, 0, 62, 0
2, 101783, Control_c, 0, 64, 127
2, 102282, Note_on_c, 0, 86, 0
2, 102286, Note_on_c, 0, 86, 66
2, 102389, Note_on_c, 0, 81, 0
2, 102399, Note_on_c, 0, 81, 56
2, 102435, Note_on_c, 0, 77, 0
2, 102442, Note_on_c, 0, 77, 65
2, 102528, Note_on_c, 0, 74, 0
2, 102532, Note_on_c, 0, 74, 64
2, 102620, Note_on_c, 0, 86, 0
2, 102630, Note_on_c, 0, 86, 66
2, 102720, Note_on_c, 0, 81, 0
2, 102724, Note_on_c, 0, 81, 54
2, 102750, Note_on_c, 0, 77, 0
2, 102758, Note_on_c, 0, 77, 59
2, 102804, Note_on_c, 0, 74, 0
2, 102809, Note_on_c, 0, 74, 71
2, 102919, Note_on_c, 0, 86, 0
2, 102925, Note_on_c, 0, 86, 75
2, 102996, Note_on_c, 0, 81, 0
2, 103000, Note_on_c, 0, 81, 54
2, 103050, Note_on_c, 0, 77, 0
2, 103056, Note_on_c, 0, 77, 67
2, 103111, Note_on_c, 0, 74, 0
2, 103117, Note_on_c, 0, 74, 67
2, 103226, Note_on_c, 0, 86, 0
2, 103231, Note_on_c, 0, 86, 75
2, 103236, Note_on_c, 0, 62, 61
2, 103296, Note_on_c, 0, 81, 0
2, 103304, Note_on_c, 0, 81, 52
2, 103365, Note_on_c, 0, 77, 0
2, 103371, Note_on_c, 0, 77, 67
2, 103449, Note_on_c, 0, 74, 0
2, 103460, Note_on_c, 0, 74, 72
2, 103536, Note_on_c, 0, 64, 86
2, 103549, Note_on_c, 0, 86, 0
2, 103555, Note_on_c, 0, 86, 78
2, 103641, Note_on_c, 0, 81, 0
2, 103647, Note_on_c, 0, 81, 58
2, 103656, Note_on_c, 0, 77, 0
2, 103661, Note_on_c, 0, 77, 68
2, 103749, Note_on_c, 0, 74, 0
2, 103753, Note_on_c, 0, 74, 74
2, 103825, Note_on_c, 0, 86, 0
2, 103835, Note_on_c, 0, 86, 82
2, 103836, Note_on_c, 0, 65, 93
2, 103910, Note_on_c, 0, 81, 0
2, 103914, Note_on_c, 0, 81, 64
2, 103948, Note_on_c, 0, 77, 0
2, 103959, Note_on_c, 0, 77, 73
2, 104048, Note_on_c, 0, 74, 0
2, 104057, Note_on_c, 0, 74, 58
2, 104146, Note_on_c, 0, 60, 79
2, 104152, Note_on_c, 0, 84, 80
2, 104156, Note_on_c, 0, 46, 0
2, 104158, Note_on_c, 0, 52, 71
2, 104161, Note_on_c, 0, 74, 0
2, 104161, Control_c, 0, 64, 0
2, 104161, Note_on_c, 0, 45, 71
2, 104161, Note_on_c, 0, 62, 0
2, 104161, Note_on_c, 0, 81, 0
2, 104162, Note_on_c, 0, 64, 0
2, 104162, Note_on_c, 0, 65, 0
2, 104162, Note_on_c, 0, 86, 0
2, 104162, Note_on_c, 0, 53, 0
2, 104179, Note_on_c, 0, 77, 0
2, 104232, Control_c, 0, 64, 127
2, 104236, Note_on_c, 0, 79, 71
2, 104300, Note_on_c, 0, 76, 72
2, 104383, Note_on_c, 0, 72, 69
2, 104448, Note_on_c, 0, 84, 0
2, 104452, Note_on_c, 0, 84, 68
2, 104501, Note_on_c, 0, 79, 0
2, 104513, Note_on_c, 0, 79, 62
2, 104555, Note_on_c, 0, 76, 0
2, 104566, Note_on_c, 0, 76, 63
2, 104670, Note_on_c, 0, 72, 0
2, 104680, Note_on_c, 0, 72, 72
2, 104755, Note_on_c, 0, 84, 0
2, 104763, Note_on_c, 0, 84, 72
2, 104816, Note_on_c, 0, 79, 0
2, 104823, Note_on_c, 0, 79, 70
2, 104885, Note_on_c, 0, 76, 0
2, 104891, Note_on_c, 0, 76, 61
2, 104962, Note_on_c, 0, 72, 0
2, 104966, Note_on_c, 0, 72, 71
2, 105046, Note_on_c, 0, 67, 86
2, 105047, Note_on_c, 0, 84, 0
2, 105056, Note_on_c, 0, 84, 79
2, 105116, Note_on_c, 0, 79, 0
2, 105120, Note_on_c, 0, 79, 71
2, 105192, Note_on_c, 0, 76, 0
2, 105199, Note_on_c, 0, 65, 82
2, 105201, Note_on_c, 0, 76, 74
2, 105269, Note_on_c, 0, 72, 0
2, 105273, Note_on_c, 0, 72, 77
2, 105354, Note_on_c, 0, 84, 0
2, 105357, Note_on_c, 0, 50, 71
2, 105358, Note_on_c, 0, 84, 78
2, 105359, Control_c, 0, 64, 0
2, 105364, Note_on_c, 0, 65, 0
2, 105364, Note_on_c, 0, 72, 0
2, 105365, Note_on_c, 0, 60, 0
2, 105365, Note_on_c, 0, 52, 0
2, 105365, Note_on_c, 0, 76, 0
2, 105365, Note_on_c, 0, 79, 0
2, 105365, Note_on_c, 0, 67, 0
2, 105392, Note_on_c, 0, 45, 0
2, 105431, Control_c, 0, 64, 127
2, 105445, Note_on_c, 0, 81, 77
2, 105518, Note_on_c, 0, 77, 69
2, 105565, Note_on_c, 0, 72, 68
2, 105623, Note_on_c, 0, 84, 0
2, 105634, Note_on_c, 0, 84, 74
2, 105699, Note_on_c, 0, 81, 0
2, 105706, Note_on_c, 0, 81, 71
2, 105761, Note_on_c, 0, 77, 0
2, 105765, Note_on_c, 0, 77, 66
2, 105838, Note_on_c, 0, 72, 0
2, 105846, Note_on_c, 0, 72, 78
2, 105942, Note_on_c, 0, 86, 89
2, 106022, Note_on_c, 0, 81, 0
2, 106033, Note_on_c, 0, 81, 73
2, 106076, Note_on_c, 0, 77, 0
2, 106087, Note_on_c, 0, 77, 65
2, 106159, Note_on_c, 0, 74, 77
2, 106237, Note_on_c, 0, 86, 0
2, 106244, Note_on_c, 0, 86, 78
2, 106306, Note_on_c, 0, 81, 0
2, 106311, Note_on_c, 0, 81, 68
2, 106383, Note_on_c, 0, 77, 0
2, 106387, Note_on_c, 0, 77, 64
2, 106437, Note_on_c, 0, 74, 0
2, 106448, Note_on_c, 0, 74, 77
2, 106521, Note_on_c, 0, 50, 0
2, 106533, Note_on_c, 0, 50, 65
2, 106533, Note_on_c, 0, 58, 64
2, 106536, Note_on_c, 0, 86, 0
2, 106537, Note_on_c, 0, 43, 61
2, 106546, Note_on_c, 0, 84, 0
2, 106546, Note_on_c, 0, 77, 0
2, 106547, Note_on_c, 0, 81, 0
2, 106547, Note_on_c, 0, 86, 76
2, 106552, Control_c, 0, 64, 0
2, 106560, Note_on_c, 0, 72, 0
2, 106567, Note_on_c, 0, 74, 0
2, 106621, Control_c, 0, 64, 127
2, 106624, Note_on_c, 0, 82, 70
2, 106698, Note_on_c, 0, 77, 65
2, 106771, Note_on_c, 0, 74, 74
2, 106836, Note_on_c, 0, 86, 0
2, 106847, Note_on_c, 0, 86, 83
2, 106905, Note_on_c, 0, 82, 0
2, 106914, Note_on_c, 0, 82, 72
2, 106982, Note_on_c, 0, 77, 0
2, 106990, Note_on_c, 0, 77, 68
2, 107066, Note_on_c, 0, 74, 0
2, 107073, Note_on_c, 0, 74, 76
2, 107140, Note_on_c, 0, 62, 95
2, 107159, Note_on_c, 0, 86, 0
2, 107165, Note_on_c, 0, 86, 83
2, 107235, Note_on_c, 0, 82, 0
2, 107243, Note_on_c, 0, 82, 70
2, 107320, Note_on_c, 0, 77, 0
2, 107331, Note_on_c, 0, 77, 66
2, 107381, Note_on_c, 0, 74, 0
2, 107386, Note_on_c, 0, 74, 73
2, 107458, Note_on_c, 0, 86, 0
2, 107467, Note_on_c, 0, 86, 78
2, 107520, Note_on_c, 0, 82, 0
2, 107528, Note_on_c, 0, 82, 75
2, 107581, Note_on_c, 0, 77, 0
2, 107590, Note_on_c, 0, 77, 58
2, 107642, Note_on_c, 0, 74, 0
2, 107652, Note_on_c, 0, 74, 71
2, 107754, Note_on_c, 0, 77, 0
2, 107755, Note_on_c, 0, 58, 0
2, 107755, Note_on_c, 0, 62, 0
2, 107755, Note_on_c, 0, 82, 0
2, 107755, Note_on_c, 0, 74, 0
2, 107756, Note_on_c, 0, 43, 0
2, 107759, Control_c, 0, 64, 0
2, 107767, Note_on_c, 0, 45, 78
2, 107769, Note_on_c, 0, 88, 89
2, 107769, Note_on_c, 0, 52, 78
2, 107772, Note_on_c, 0, 61, 89
2, 107773, Note_on_c, 0, 50, 0
2, 107788, Note_on_c, 0, 86, 0
2, 107827, Control_c, 0, 64, 127
2, 107831, Note_on_c, 0, 85, 83
2, 107923, Note_on_c, 0, 81, 76
2, 107997, Note_on_c, 0, 76, 68
2, 108065, Note_on_c, 0, 88, 0
2, 108069, Note_on_c, 0, 62, 92
2, 108069, Note_on_c, 0, 88, 79
2, 108111, Note_on_c, 0, 85, 0
2, 108121, Note_on_c, 0, 85, 78
2, 108195, Note_on_c, 0, 81, 0
2, 108202, Note_on_c, 0, 81, 77
2, 108280, Note_on_c, 0, 76, 0
2, 108287, Note_on_c, 0, 76, 64
2, 108369, Note_on_c, 0, 64, 97
2, 108372, Note_on_c, 0, 88, 0
2, 108375, Note_on_c, 0, 49, 82
2, 108377, Note_on_c, 0, 88, 87
2, 108380, Note_on_c, 0, 45, 0
2, 108398, Note_on_c, 0, 52, 0
2, 108399, Note_on_c, 0, 81, 0
2, 108399, Note_on_c, 0, 61, 0
2, 108399, Note_on_c, 0, 62, 0
2, 108405, Control_c, 0, 64, 0
2, 108456, Note_on_c, 0, 85, 0
2, 108462, Note_on_c, 0, 85, 83
2, 108480, Control_c, 0, 64, 127
2, 108552, Note_on_c, 0, 81, 76
2, 108595, Note_on_c, 0, 76, 0
2, 108602, Note_on_c, 0, 76, 71
2, 108664, Note_on_c, 0, 88, 0
2, 108668, Note_on_c, 0, 88, 90
2, 108674, Note_on_c, 0, 57, 81
2, 108718, Note_on_c, 0, 85, 0
2, 108726, Note_on_c, 0, 85, 82
2, 108779, Note_on_c, 0, 81, 0
2, 108789, Note_on_c, 0, 81, 84
2, 108864, Note_on_c, 0, 76, 0
2, 108869, Note_on_c, 0, 76, 71
2, 108996, Note_on_c, 0, 69, 102
2, 109002, Note_on_c, 0, 57, 0
2, 109006, Note_on_c, 0, 65, 71
2, 109012, Note_on_c, 0, 57, 74
2, 109013, Note_on_c, 0, 50, 71
2, 109017, Note_on_c, 0, 81, 0
2, 109018, Note_on_c, 0, 88, 0
2, 109018, Note_on_c, 0, 76, 0
2, 109019, Note_on_c, 0, 85, 0
2, 109019, Note_on_c, 0, 64, 0
2, 109021, Note_on_c, 0, 49, 0
2, 109021, Control_c, 0, 64, 0
2, 109109, Control_c, 0, 64, 127
2, 109130, Note_on_c, 0, 74, 84
2, 109225, Note_on_c, 0, 76, 75
2, 109275, Note_on_c, 0, 77, 79
2, 109367, Note_on_c, 0, 81, 75
2, 109441, Note_on_c, 0, 86, 82
2, 109504, Note_on_c, 0, 88, 87
2, 109550, Note_on_c, 0, 89, 83
2, 109601, Note_on_c, 0, 65, 0
2, 109612, Note_on_c, 0, 65, 71
2, 109612, Note_on_c, 0, 93, 92
2, 109619, Note_on_c, 0, 62, 72
2, 109655, Note_on_c, 0, 89, 0
2, 109662, Note_on_c, 0, 89, 76
2, 109669, Control_c, 0, 64, 0
2, 109747, Note_on_c, 0, 88, 0
2, 109747, Control_c, 0, 64, 127
2, 109752, Note_on_c, 0, 88, 76
2, 109785, Note_on_c, 0, 86, 0
2, 109789, Note_on_c, 0, 86, 81
2, 109831, Note_on_c, 0, 81, 0
2, 109841, Note_on_c, 0, 81, 76
2, 109847, Note_on_c, 0, 50, 0
2, 109931, Note_on_c, 0, 77, 0
2, 109935, Note_on_c, 0, 77, 74
2, 109992, Note_on_c, 0, 76, 0
2, 110002, Note_on_c, 0, 76, 60
2, 110031, Note_on_c, 0, 74, 0
2, 110039, Note_on_c, 0, 74, 81
2, 110123, Note_on_c, 0, 69, 0
2, 110128, Note_on_c, 0, 69, 77
2, 110219, Note_on_c, 0, 63, 76
2, 110220, Note_on_c, 0, 55, 68
2, 110220, Note_on_c, 0, 48, 67
2, 110235, Note_on_c, 0, 93, 0
2, 110236, Note_on_c, 0, 88, 0
2, 110236, Note_on_c, 0, 89, 0
2, 110236, Note_on_c, 0, 86, 0
2, 110236, Note_on_c, 0, 81, 0
2, 110236, Note_on_c, 0, 69, 0
2, 110236, Note_on_c, 0, 65, 0
2, 110236, Note_on_c, 0, 77, 0
2, 110237, Note_on_c, 0, 62, 0
2, 110237, Note_on_c, 0, 74, 0
2, 110239, Control_c, 0, 64, 0
2, 110246, Note_on_c, 0, 76, 0
2, 110254, Note_on_c, 0, 57, 0
2, 110330, Note_on_c, 0, 69, 73
2, 110338, Control_c, 0, 64, 127
2, 110385, Note_on_c, 0, 72, 81
2, 110439, Note_on_c, 0, 75, 86
2, 110524, Note_on_c, 0, 81, 88
2, 110593, Note_on_c, 0, 84, 81
2, 110643, Note_on_c, 0, 87, 88
2, 110721, Note_on_c, 0, 93, 93
2, 110800, Note_on_c, 0, 91, 99
2, 110822, Note_on_c, 0, 48, 0
2, 110824, Note_on_c, 0, 57, 80
2, 110827, Note_on_c, 0, 48, 73
2, 110833, Note_on_c, 0, 41, 64
2, 110868, Note_on_c, 0, 63, 0
2, 110868, Note_on_c, 0, 93, 0
2, 110872, Control_c, 0, 64, 0
2, 110874, Note_on_c, 0, 93, 73
2, 110879, Note_on_c, 0, 84, 0
2, 110880, Note_on_c, 0, 87, 0
2, 110882, Note_on_c, 0, 72, 0
2, 110884, Note_on_c, 0, 81, 0
2, 110885, Note_on_c, 0, 75, 0
2, 110887, Note_on_c, 0, 69, 0
2, 110937, Note_on_c, 0, 91, 0
2, 110942, Note_on_c, 0, 91, 80
2, 110968, Control_c, 0, 64, 127
2, 111024, Note_on_c, 0, 87, 85
2, 111029, Note_on_c, 0, 93, 0
2, 111088, Note_on_c, 0, 84, 77
2, 111176, Note_on_c, 0, 79, 76
2, 111238, Note_on_c, 0, 75, 88
2, 111309, Note_on_c, 0, 72, 76
2, 111403, Note_on_c, 0, 74, 86
2, 111419, Note_on_c, 0, 46, 65
2, 111419, Note_on_c, 0, 91, 0
2, 111419, Note_on_c, 0, 79, 0
2, 111421, Note_on_c, 0, 41, 0
2, 111421, Note_on_c, 0, 87, 0
2, 111422, Note_on_c, 0, 84, 0
2, 111422, Note_on_c, 0, 75, 0
2, 111423, Note_on_c, 0, 72, 0
2, 111424, Control_c, 0, 64, 0
2, 111424, Note_on_c, 0, 57, 0
2, 111424, Note_on_c, 0, 70, 78
2, 111436, Note_on_c, 0, 48, 0
2, 111436, Note_on_c, 0, 55, 0
2, 111636, Control_c, 0, 64, 127
2, 111743, Note_on_c, 0, 53, 52
2, 111862, Note_on_c, 0, 58, 51
2, 112012, Note_on_c, 0, 74, 0
2, 112018, Note_on_c, 0, 86, 91
2, 112021, Note_on_c, 0, 74, 79
2, 112026, Note_on_c, 0, 82, 75
2, 112166, Note_on_c, 0, 53, 0
2, 112176, Note_on_c, 0, 53, 53
2, 112304, Note_on_c, 0, 58, 0
2, 112310, Note_on_c, 0, 58, 50
2, 112478, Note_on_c, 0, 62, 59
2, 112627, Note_on_c, 0, 70, 0
2, 112627, Note_on_c, 0, 74, 0
2, 112631, Note_on_c, 0, 74, 73
2, 112635, Note_on_c, 0, 65, 66
2, 112635, Note_on_c, 0, 70, 67
2, 112780, Note_on_c, 0, 53, 0
2, 112789, Note_on_c, 0, 53, 61
2, 112934, Note_on_c, 0, 58, 0
2, 112934, Note_on_c, 0, 74, 0
2, 112934, Note_on_c, 0, 86, 0
2, 112940, Note_on_c, 0, 86, 94
2, 112943, Note_on_c, 0, 74, 86
2, 112945, Note_on_c, 0, 58, 58
2, 113080, Note_on_c, 0, 62, 0
2, 113085, Note_on_c, 0, 62, 73
2, 113245, Note_on_c, 0, 88, 96
2, 113246, Note_on_c, 0, 76, 85
2, 113387, Note_on_c, 0, 53, 0
2, 113396, Note_on_c, 0, 53, 65
2, 113543, Note_on_c, 0, 89, 98
2, 113548, Note_on_c, 0, 58, 0
2, 113552, Note_on_c, 0, 77, 85
2, 113553, Note_on_c, 0, 58, 66
2, 113679, Note_on_c, 0, 62, 0
2, 113690, Note_on_c, 0, 62, 75
2, 113852, Note_on_c, 0, 84, 95
2, 113860, Note_on_c, 0, 45, 69
2, 113861, Note_on_c, 0, 72, 84
2, 113862, Note_on_c, 0, 88, 0
2, 113863, Note_on_c, 0, 76, 0
2, 113864, Note_on_c, 0, 89, 0
2, 113864, Note_on_c, 0, 82, 0
2, 113865, Note_on_c, 0, 77, 0
2, 113865, Note_on_c, 0, 70, 0
2, 113866, Note_on_c, 0, 58, 0
2, 113866, Note_on_c, 0, 46, 0
2, 113866, Note_on_c, 0, 65, 0
2, 113866, Note_on_c, 0, 86, 0
2, 113866, Note_on_c, 0, 74, 0
2, 113866, Note_on_c, 0, 53, 0
2, 113866, Control_c, 0, 64, 0
2, 113867, Note_on_c, 0, 79, 69
2, 113868, Note_on_c, 0, 76, 68
2, 113879, Note_on_c, 0, 62, 0
2, 113948, Control_c, 0, 64, 127
2, 114167, Note_on_c, 0, 52, 57
2, 114318, Note_on_c, 0, 55, 59
2, 114447, Note_on_c, 0, 72, 0
2, 114452, Note_on_c, 0, 72, 87
2, 114455, Note_on_c, 0, 64, 79
2, 114457, Note_on_c, 0, 67, 72
2, 114616, Note_on_c, 0, 52, 0
2, 114621, Note_on_c, 0, 52, 58
2, 114739, Note_on_c, 0, 79, 0
2, 114745, Note_on_c, 0, 91, 91
2, 114749, Note_on_c, 0, 79, 81
2, 114754, Note_on_c, 0, 55, 0
2, 114760, Note_on_c, 0, 55, 57
2, 114762, Note_on_c, 0, 86, 57
2, 114769, Note_on_c, 0, 86, 0
2, 114901, Note_on_c, 0, 60, 69
2, 114903, Note_on_c, 0, 89, 102
2, 114906, Note_on_c, 0, 77, 90
2, 114909, Note_on_c, 0, 81, 89
2, 114914, Note_on_c, 0, 86, 77
2, 115040, Note_on_c, 0, 52, 0
2, 115040, Control_c, 0, 64, 0
2, 115041, Note_on_c, 0, 84, 0
2, 115041, Note_on_c, 0, 76, 0
2, 115041, Note_on_c, 0, 72, 0
2, 115041, Note_on_c, 0, 45, 0
2, 115041, Note_on_c, 0, 67, 0
2, 115041, Note_on_c, 0, 64, 0
2, 115041, Note_on_c, 0, 55, 0
2, 115042, Note_on_c, 0, 91, 0
2, 115061, Note_on_c, 0, 79, 0
2, 115066, Note_on_c, 0, 50, 76
2, 115066, Note_on_c, 0, 62, 85
2, 115123, Control_c, 0, 64, 127
2, 115366, Note_on_c, 0, 57, 69
2, 115384, Note_on_c, 0, 50, 0
2, 115484, Note_on_c, 0, 62, 0
2, 115494, Note_on_c, 0, 62, 75
2, 115664, Note_on_c, 0, 74, 91
2, 115666, Note_on_c, 0, 65, 73
2, 115666, Note_on_c, 0, 69, 76
2, 115806, Note_on_c, 0, 57, 0
2, 115810, Note_on_c, 0, 57, 76
2, 115944, Note_on_c, 0, 62, 0
2, 115944, Note_on_c, 0, 77, 0
2, 115944, Note_on_c, 0, 89, 0
2, 115950, Note_on_c, 0, 89, 103
2, 115954, Note_on_c, 0, 62, 83
2, 115954, Note_on_c, 0, 77, 97
2, 115960, Note_on_c, 0, 60, 0
2, 116072, Note_on_c, 0, 89, 0
2, 116072, Note_on_c, 0, 69, 0
2, 116072, Note_on_c, 0, 57, 0
2, 116072, Note_on_c, 0, 65, 0
2, 116072, Note_on_c, 0, 62, 0
2, 116072, Note_on_c, 0, 77, 0
2, 116073, Note_on_c, 0, 74, 0
2, 116075, Note_on_c, 0, 86, 0
2, 116075, Control_c, 0, 64, 0
2, 116083, Note_on_c, 0, 81, 0
2, 116095, Note_on_c, 0, 79, 86
2, 116096, Note_on_c, 0, 91, 101
2, 116190, Note_on_c, 0, 79, 0
2, 116236, Control_c, 0, 64, 127
2, 116248, Note_on_c, 0, 93, 103
2, 116251, Note_on_c, 0, 81, 100
2, 116254, Note_on_c, 0, 86, 93
2, 116255, Note_on_c, 0, 89, 88
2, 116513, Note_on_c, 0, 91, 0
2, 116533, Control_c, 0, 64, 0
2, 116552, Note_on_c, 0, 65, 92
2, 116552, Note_on_c, 0, 53, 87
2, 116554, Note_on_c, 0, 62, 87
2, 116554, Note_on_c, 0, 50, 85
2, 116555, Note_on_c, 0, 43, 75
2, 116567, Control_c, 0, 64, 127
2, 116694, Note_on_c, 0, 67, 79
2, 116843, Note_on_c, 0, 65, 0
2, 116846, Note_on_c, 0, 69, 100
2, 116851, Note_on_c, 0, 43, 0
2, 116851, Note_on_c, 0, 50, 0
2, 116851, Note_on_c, 0, 53, 0
2, 116854, Note_on_c, 0, 65, 87
2, 116857, Note_on_c, 0, 53, 87
2, 116858, Note_on_c, 0, 50, 87
2, 116860, Note_on_c, 0, 58, 82
2, 116861, Note_on_c, 0, 43, 72
2, 117158, Note_on_c, 0, 89, 0
2, 117163, Note_on_c, 0, 89, 101
2, 117166, Note_on_c, 0, 77, 91
2, 117166, Note_on_c, 0, 84, 73
2, 117171, Control_c, 0, 64, 0
2, 117172, Note_on_c, 0, 86, 0
2, 117173, Note_on_c, 0, 43, 0
2, 117173, Note_on_c, 0, 84, 0
2, 117174, Note_on_c, 0, 69, 0
2, 117174, Note_on_c, 0, 50, 0
2, 117175, Note_on_c, 0, 62, 0
2, 117176, Note_on_c, 0, 67, 0
2, 117176, Note_on_c, 0, 65, 0
2, 117176, Note_on_c, 0, 93, 0
2, 117176, Note_on_c, 0, 53, 0
2, 117177, Note_on_c, 0, 81, 0
2, 117181, Note_on_c, 0, 58, 0
2, 117215, Note_on_c, 0, 77, 0
2, 117225, Note_on_c, 0, 89, 0
2, 117308, Note_on_c, 0, 91, 97
2, 117309, Note_on_c, 0, 79, 97
2, 117362, Note_on_c, 0, 79, 0
2, 117369, Note_on_c, 0, 91, 0
2, 117419, Control_c, 0, 64, 127
2, 117458, Note_on_c, 0, 81, 106
2, 117460, Note_on_c, 0, 93, 98
2, 117460, Note_on_c, 0, 84, 94
2, 117764, Note_on_c, 0, 55, 89
2, 117767, Note_on_c, 0, 53, 84
2, 117768, Note_on_c, 0, 45, 87
2, 117769, Note_on_c, 0, 65, 85
2, 117775, Control_c, 0, 64, 0
2, 117777, Note_on_c, 0, 60, 70
2, 117803, Control_c, 0, 64, 127
2, 117911, Note_on_c, 0, 53, 0
2, 117918, Note_on_c, 0, 67, 82
2, 117920, Note_on_c, 0, 53, 76
2, 118062, Note_on_c, 0, 69, 103
2, 118064, Note_on_c, 0, 45, 0
2, 118064, Note_on_c, 0, 53, 0
2, 118064, Note_on_c, 0, 60, 0
2, 118064, Note_on_c, 0, 65, 0
2, 118068, Note_on_c, 0, 60, 77
2, 118069, Note_on_c, 0, 53, 88
2, 118072, Note_on_c, 0, 45, 87
2, 118074, Note_on_c, 0, 65, 78
2, 118365, Control_c, 0, 64, 0
2, 118369, Note_on_c, 0, 89, 103
2, 118369, Note_on_c, 0, 84, 0
2, 118370, Note_on_c, 0, 69, 0
2, 118370, Note_on_c, 0, 93, 0
2, 118370, Note_on_c, 0, 67, 0
2, 118370, Note_on_c, 0, 60, 0
2, 118370, Note_on_c, 0, 45, 0
2, 118371, Note_on_c, 0, 81, 0
2, 118371, Note_on_c, 0, 53, 0
2, 118372, Note_on_c, 0, 77, 96
2, 118387, Note_on_c, 0, 55, 0
2, 118387, Note_on_c, 0, 65, 0
2, 118429, Note_on_c, 0, 77, 0
2, 118437, Note_on_c, 0, 89, 0
2, 118514, Note_on_c, 0, 91, 100
2, 118515, Note_on_c, 0, 79, 93
2, 118540, Control_c, 0, 64, 127
2, 118676, Note_on_c, 0, 93, 105
2, 118677, Note_on_c, 0, 89, 99
2, 118677, Note_on_c, 0, 81, 104
2, 118680, Note_on_c, 0, 86, 97
2, 118946, Note_on_c, 0, 59, 97
2, 118951, Note_on_c, 0, 47, 87
2, 118958, Note_on_c, 0, 55, 85
2, 118990, Note_on_c, 0, 89, 0
2, 118992, Note_on_c, 0, 86, 0
2, 118995, Note_on_c, 0, 81, 0
2, 118996, Control_c, 0, 64, 0
2, 119001, Note_on_c, 0, 93, 0
2, 119009, Note_on_c, 0, 91, 0
2, 119024, Control_c, 0, 64, 127
2, 119063, Note_on_c, 0, 50, 75
2, 119070, Note_on_c, 0, 79, 0
2, 119093, Note_on_c, 0, 55, 0
2, 119104, Note_on_c, 0, 55, 60
2, 119193, Note_on_c, 0, 59, 0
2, 119204, Note_on_c, 0, 59, 79
2, 119279, Note_on_c, 0, 62, 98
2, 119370, Note_on_c, 0, 50, 0
2, 119370, Note_on_c, 0, 59, 0
2, 119374, Note_on_c, 0, 50, 58
2, 119380, Note_on_c, 0, 59, 84
2, 119447, Note_on_c, 0, 62, 0
2, 119455, Note_on_c, 0, 62, 81
2, 119552, Note_on_c, 0, 67, 94
2, 119631, Note_on_c, 0, 62, 0
2, 119640, Note_on_c, 0, 62, 78
2, 119746, Note_on_c, 0, 67, 0
2, 119751, Note_on_c, 0, 67, 89
2, 119859, Note_on_c, 0, 71, 97
2, 120157, Note_on_c, 0, 86, 100
2, 120160, Note_on_c, 0, 74, 94
2, 120299, Note_on_c, 0, 67, 0
2, 120306, Note_on_c, 0, 67, 95
2, 120457, Note_on_c, 0, 88, 102
2, 120459, Note_on_c, 0, 76, 101
2, 120614, Note_on_c, 0, 59, 0
2, 120614, Note_on_c, 0, 62, 0
2, 120618, Note_on_c, 0, 62, 96
2, 120620, Note_on_c, 0, 59, 57
2, 120751, Note_on_c, 0, 89, 107
2, 120753, Note_on_c, 0, 77, 102
2, 120875, Note_on_c, 0, 59, 0
2, 120880, Note_on_c, 0, 59, 74
2, 121067, Note_on_c, 0, 86, 0
2, 121067, Note_on_c, 0, 89, 0
2, 121067, Note_on_c, 0, 93, 103
2, 121068, Note_on_c, 0, 81, 104
2, 121069, Note_on_c, 0, 43, 85
2, 121071, Note_on_c, 0, 89, 93
2, 121073, Note_on_c, 0, 71, 0
2, 121073, Control_c, 0, 64, 0
2, 121073, Note_on_c, 0, 59, 0
2, 121073, Note_on_c, 0, 76, 0
2, 121074, Note_on_c, 0, 62, 0
2, 121074, Note_on_c, 0, 86, 85
2, 121074, Note_on_c, 0, 74, 0
2, 121074, Note_on_c, 0, 88, 0
2, 121074, Note_on_c, 0, 50, 0
2, 121075, Note_on_c, 0, 67, 0
2, 121075, Note_on_c, 0, 77, 0
2, 121077, Note_on_c, 0, 82, 96
2, 121082, Note_on_c, 0, 47, 0
2, 121082, Note_on_c, 0, 82, 0
2, 121098, Note_on_c, 0, 55, 0
2, 121152, Control_c, 0, 64, 127
2, 121377, Note_on_c, 0, 50, 75
2, 121525, Note_on_c, 0, 53, 70
2, 121663, Note_on_c, 0, 62, 96
2, 121673, Note_on_c, 0, 58, 88
2, 121825, Note_on_c, 0, 55, 75
2, 121950, Note_on_c, 0, 58, 0
2, 121958, Note_on_c, 0, 58, 65
2, 122104, Note_on_c, 0, 62, 0
2, 122113, Note_on_c, 0, 62, 91
2, 122250, Note_on_c, 0, 62, 0
2, 122255, Note_on_c, 0, 62, 88
2, 122257, Note_on_c, 0, 65, 96
2, 122403, Note_on_c, 0, 55, 0
2, 122410, Note_on_c, 0, 55, 78
2, 122557, Note_on_c, 0, 58, 0
2, 122561, Note_on_c, 0, 58, 76
2, 122695, Note_on_c, 0, 62, 0
2, 122699, Note_on_c, 0, 62, 89
2, 122849, Note_on_c, 0, 65, 0
2, 122856, Note_on_c, 0, 69, 105
2, 122859, Note_on_c, 0, 65, 95
2, 123002, Note_on_c, 0, 55, 0
2, 123007, Note_on_c, 0, 55, 95
2, 123148, Note_on_c, 0, 58, 0
2, 123152, Note_on_c, 0, 94, 102
2, 123153, Note_on_c, 0, 82, 103
2, 123153, Note_on_c, 0, 58, 82
2, 123264, Note_on_c, 0, 62, 0
2, 123275, Note_on_c, 0, 62, 83
2, 123309, Note_on_c, 0, 91, 111
2, 123314, Note_on_c, 0, 79, 104
2, 123316, Note_on_c, 0, 84, 99
2, 123325, Note_on_c, 0, 88, 86
2, 123413, Note_on_c, 0, 94, 0
2, 123413, Control_c, 0, 64, 0
2, 123413, Note_on_c, 0, 50, 0
2, 123413, Note_on_c, 0, 93, 0
2, 123414, Note_on_c, 0, 53, 0
2, 123414, Note_on_c, 0, 43, 0
2, 123414, Note_on_c, 0, 55, 0
2, 123414, Note_on_c, 0, 58, 0
2, 123414, Note_on_c, 0, 69, 0
2, 123414, Note_on_c, 0, 81, 0
2, 123414, Note_on_c, 0, 89, 0
2, 123432, Note_on_c, 0, 62, 0
2, 123432, Note_on_c, 0, 65, 0
2, 123432, Note_on_c, 0, 86, 0
2, 123458, Note_on_c, 0, 48, 100
2, 123460, Note_on_c, 0, 36, 92
2, 123479, Control_c, 0, 64, 127
2, 123650, Note_on_c, 0, 60, 75
2, 123747, Note_on_c, 0, 48, 0
2, 123755, Note_on_c, 0, 36, 0
2, 123759, Note_on_c, 0, 48, 87
2, 123761, Note_on_c, 0, 36, 74
2, 123765, Note_on_c, 0, 67, 80
2, 123766, Note_on_c, 0, 65, 85
2, 123770, Note_on_c, 0, 67, 0
2, 123913, Note_on_c, 0, 58, 89
2, 123914, Note_on_c, 0, 67, 101
2, 123915, Note_on_c, 0, 55, 86
2, 123917, Note_on_c, 0, 53, 75
2, 124062, Note_on_c, 0, 60, 0
2, 124067, Note_on_c, 0, 72, 110
2, 124070, Note_on_c, 0, 65, 0
2, 124070, Note_on_c, 0, 67, 0
2, 124073, Note_on_c, 0, 60, 96
2, 124077, Note_on_c, 0, 65, 71
2, 124078, Note_on_c, 0, 67, 88
2, 124367, Note_on_c, 0, 43, 84
2, 124492, Note_on_c, 0, 88, 0
2, 124499, Control_c, 0, 64, 0
2, 124500, Note_on_c, 0, 82, 0
2, 124503, Note_on_c, 0, 55, 0
2, 124503, Note_on_c, 0, 65, 0
2, 124504, Note_on_c, 0, 72, 0
2, 124504, Note_on_c, 0, 58, 0
2, 124504, Note_on_c, 0, 67, 0
2, 124508, Note_on_c, 0, 36, 0
2, 124508, Note_on_c, 0, 48, 0
2, 124508, Note_on_c, 0, 91, 0
2, 124513, Note_on_c, 0, 48, 102
2, 124518, Note_on_c, 0, 36, 93
2, 124569, Control_c, 0, 64, 127
2, 124661, Note_on_c, 0, 84, 0
2, 124800, Note_on_c, 0, 36, 0
2, 124800, Note_on_c, 0, 43, 0
2, 124800, Note_on_c, 0, 48, 0
2, 124805, Note_on_c, 0, 48, 86
2, 124805, Note_on_c, 0, 72, 104
2, 124809, Note_on_c, 0, 36, 80
2, 124938, Note_on_c, 0, 36, 0
2, 124938, Note_on_c, 0, 48, 0
2, 124938, Note_on_c, 0, 53, 0
2, 124940, Note_on_c, 0, 58, 95
2, 124942, Note_on_c, 0, 36, 83
2, 124948, Note_on_c, 0, 48, 81
2, 124949, Note_on_c, 0, 53, 80
2, 124949, Note_on_c, 0, 77, 102
2, 125084, Note_on_c, 0, 79, 0
2, 125092, Note_on_c, 0, 79, 102
2, 125230, Note_on_c, 0, 60, 0
2, 125237, Note_on_c, 0, 36, 0
2, 125237, Note_on_c, 0, 48, 0
2, 125237, Note_on_c, 0, 72, 0
2, 125237, Note_on_c, 0, 77, 0
2, 125237, Note_on_c, 0, 79, 0
2, 125242, Note_on_c, 0, 48, 100
2, 125242, Note_on_c, 0, 84, 107
2, 125245, Note_on_c, 0, 36, 95
2, 125245, Note_on_c, 0, 53, 0
2, 125245, Note_on_c, 0, 79, 99
2, 125247, Note_on_c, 0, 77, 102
2, 125247, Note_on_c, 0, 72, 105
2, 125268, Control_c, 0, 64, 0
2, 125345, Note_on_c, 0, 36, 0
2, 125349, Note_on_c, 0, 43, 84
2, 125350, Note_on_c, 0, 31, 77
2, 125351, Note_on_c, 0, 36, 88
2, 125352, Control_c, 0, 64, 127
2, 125445, Note_on_c, 0, 36, 0
2, 125455, Note_on_c, 0, 36, 91
2, 125552, Note_on_c, 0, 36, 0
2, 125552, Note_on_c, 0, 72, 0
2, 125552, Note_on_c, 0, 84, 0
2, 125556, Note_on_c, 0, 84, 110
2, 125557, Note_on_c, 0, 72, 107
2, 125560, Note_on_c, 0, 36, 92
2, 125562, Note_on_c, 0, 24, 96
2, 125675, Note_on_c, 0, 24, 0
2, 125675, Note_on_c, 0, 36, 0
2, 125680, Note_on_c, 0, 24, 76
2, 125680, Note_on_c, 0, 36, 76
2, 125697, Note_on_c, 0, 48, 0
2, 125697, Note_on_c, 0, 58, 0
2, 125698, Note_on_c, 0, 77, 0
2, 125699, Note_on_c, 0, 43, 0
2, 125699, Note_on_c, 0, 79, 0
2, 125700, Control_c, 0, 64, 0
2, 125700, Note_on_c, 0, 72, 0
2, 125700, Note_on_c, 0, 84, 0
2, 125713, Note_on_c, 0, 31, 0
2, 125729, Note_on_c, 0, 24, 0
2, 125736, Note_on_c, 0, 36, 0
2, 125892, Note_on_c, 0, 93, 111
2, 125894, Note_on_c, 0, 84, 107
2, 125894, Note_on_c, 0, 81, 107
2, 125895, Note_on_c, 0, 89, 100
2, 125897, Note_on_c, 0, 41, 95
2, 125900, Note_on_c, 0, 29, 97
2, 125921, Control_c, 0, 64, 127
2, 126190, Note_on_c, 0, 81, 0
2, 126190, Note_on_c, 0, 84, 0
2, 126190, Note_on_c, 0, 93, 0
2, 126199, Note_on_c, 0, 93, 103
2, 126199, Note_on_c, 0, 84, 105
2, 126200, Note_on_c, 0, 81, 106
2, 126477, Note_on_c, 0, 48, 87
2, 126480, Note_on_c, 0, 53, 86
2, 126531, Note_on_c, 0, 57, 100
2, 126824, Note_on_c, 0, 94, 91
2, 126825, Note_on_c, 0, 82, 99
2, 126973, Note_on_c, 0, 53, 0
2, 126973, Note_on_c, 0, 93, 0
2, 126978, Note_on_c, 0, 53, 77
2, 126981, Note_on_c, 0, 81, 0
2, 126981, Note_on_c, 0, 84, 0
2, 126981, Note_on_c, 0, 89, 0
2, 126984, Note_on_c, 0, 93, 105
2, 126988, Note_on_c, 0, 81, 107
2, 126989, Note_on_c, 0, 84, 102
2, 126992, Note_on_c, 0, 89, 95
2, 127127, Note_on_c, 0, 57, 0
2, 127132, Note_on_c, 0, 60, 88
2, 127133, Note_on_c, 0, 65, 96
2, 127136, Note_on_c, 0, 57, 90
2, 127142, Note_on_c, 0, 94, 0
2, 127411, Note_on_c, 0, 93, 0
2, 127440, Note_on_c, 0, 67, 99
2, 127595, Note_on_c, 0, 60, 0
2, 127602, Note_on_c, 0, 60, 87
2, 127733, Note_on_c, 0, 65, 0
2, 127743, Note_on_c, 0, 69, 107
2, 127744, Note_on_c, 0, 65, 105
2, 128033, Note_on_c, 0, 84, 0
2, 128041, Note_on_c, 0, 84, 110
2, 128043, Note_on_c, 0, 72, 99
2, 128317, Control_c, 0, 64, 0
2, 128318, Note_on_c, 0, 82, 0
2, 128319, Note_on_c, 0, 72, 0
2, 128320, Note_on_c, 0, 84, 0
2, 128320, Note_on_c, 0, 53, 0
2, 128320, Note_on_c, 0, 69, 0
2, 128320, Note_on_c, 0, 60, 0
2, 128320, Note_on_c, 0, 29, 0
2, 128320, Note_on_c, 0, 67, 0
2, 128320, Note_on_c, 0, 57, 0
2, 128321, Note_on_c, 0, 89, 0
2, 128321, Note_on_c, 0, 81, 0
2, 128325, Note_on_c, 0, 48, 0
2, 128332, Note_on_c, 0, 41, 0
2, 128332, Note_on_c, 0, 65, 0
2, 128345, Note_on_c, 0, 91, 110
2, 128345, Note_on_c, 0, 79, 101
2, 128346, Note_on_c, 0, 86, 91
2, 128347, Note_on_c, 0, 82, 102
2, 128349, Note_on_c, 0, 40, 87
2, 128352, Note_on_c, 0, 28, 83
2, 128386, Control_c, 0, 64, 127
2, 128663, Note_on_c, 0, 82, 0
2, 128663, Note_on_c, 0, 91, 0
2, 128670, Note_on_c, 0, 79, 0
2, 128670, Note_on_c, 0, 86, 0
2, 128672, Note_on_c, 0, 91, 104
2, 128674, Note_on_c, 0, 82, 99
2, 128675, Note_on_c, 0, 79, 96
2, 128675, Note_on_c, 0, 86, 89
2, 128828, Note_on_c, 0, 52, 72
2, 128904, Note_on_c, 0, 55, 73
2, 128957, Note_on_c, 0, 58, 104
2, 129255, Note_on_c, 0, 93, 103
2, 129256, Note_on_c, 0, 81, 106
2, 129400, Note_on_c, 0, 40, 0
2, 129408, Note_on_c, 0, 91, 0
2, 129410, Note_on_c, 0, 40, 80
2, 129415, Note_on_c, 0, 79, 0
2, 129417, Note_on_c, 0, 91, 110
2, 129423, Note_on_c, 0, 86, 0
2, 129423, Note_on_c, 0, 79, 103
2, 129430, Note_on_c, 0, 86, 93
2, 129434, Note_on_c, 0, 88, 87
2, 129513, Note_on_c, 0, 81, 0
2, 129513, Note_on_c, 0, 40, 0
2, 129514, Note_on_c, 0, 52, 0
2, 129514, Note_on_c, 0, 82, 0
2, 129515, Note_on_c, 0, 58, 0
2, 129516, Note_on_c, 0, 55, 0
2, 129517, Control_c, 0, 64, 0
2, 129523, Note_on_c, 0, 93, 0
2, 129530, Note_on_c, 0, 28, 0
2, 129564, Note_on_c, 0, 45, 101
2, 129564, Note_on_c, 0, 33, 89
2, 129592, Control_c, 0, 64, 127
2, 129864, Note_on_c, 0, 62, 96
2, 129872, Note_on_c, 0, 59, 80
2, 130016, Note_on_c, 0, 57, 81
2, 130171, Note_on_c, 0, 76, 95
2, 130173, Note_on_c, 0, 61, 90
2, 130174, Note_on_c, 0, 64, 94
2, 130194, Note_on_c, 0, 77, 104
2, 130195, Note_on_c, 0, 89, 106
2, 130483, Note_on_c, 0, 76, 0
2, 130483, Note_on_c, 0, 88, 0
2, 130487, Note_on_c, 0, 88, 99
2, 130488, Note_on_c, 0, 76, 102
2, 130629, Note_on_c, 0, 45, 0
2, 130638, Note_on_c, 0, 45, 82
2, 130778, Control_c, 0, 64, 0
2, 130785, Note_on_c, 0, 64, 0
2, 130785, Note_on_c, 0, 61, 0
2, 130786, Note_on_c, 0, 76, 0
2, 130786, Note_on_c, 0, 91, 0
2, 130787, Note_on_c, 0, 88, 0
2, 130790, Note_on_c, 0, 59, 0
2, 130790, Note_on_c, 0, 77, 0
2, 130790, Note_on_c, 0, 89, 0
2, 130798, Note_on_c, 0, 86, 0
2, 130801, Note_on_c, 0, 89, 107
2, 130801, Note_on_c, 0, 77, 106
2, 130801, Note_on_c, 0, 38, 92
2, 130802, Note_on_c, 0, 81, 95
2, 130805, Note_on_c, 0, 33, 0
2, 130805, Note_on_c, 0, 57, 0
2, 130805, Note_on_c, 0, 62, 0
2, 130806, Note_on_c, 0, 86, 88
2, 130813, Note_on_c, 0, 79, 0
2, 130847, Note_on_c, 0, 87, 34
2, 130851, Note_on_c, 0, 87, 0
2, 130859, Control_c, 0, 64, 127
2, 131297, Note_on_c, 0, 45, 0
2, 131320, Note_on_c, 0, 53, 73
2, 131364, Note_on_c, 0, 57, 75
2, 131375, Note_on_c, 0, 62, 82
2, 131423, Note_on_c, 0, 65, 95
2, 131719, Note_on_c, 0, 77, 0
2, 131719, Note_on_c, 0, 89, 0
2, 131728, Note_on_c, 0, 89, 107
2, 131729, Note_on_c, 0, 77, 102
2, 131857, Note_on_c, 0, 38, 0
2, 131867, Note_on_c, 0, 50, 89
2, 131868, Note_on_c, 0, 38, 82
2, 132018, Control_c, 0, 64, 0
2, 132022, Note_on_c, 0, 89, 0
2, 132022, Note_on_c, 0, 77, 0
2, 132023, Note_on_c, 0, 81, 0
2, 132023, Note_on_c, 0, 38, 0
2, 132023, Note_on_c, 0, 53, 0
2, 132023, Note_on_c, 0, 86, 0
2, 132023, Note_on_c, 0, 62, 0
2, 132023, Note_on_c, 0, 65, 0
2, 132023, Note_on_c, 0, 50, 0
2, 132024, Note_on_c, 0, 57, 0
2, 132030, Note_on_c, 0, 91, 107
2, 132033, Note_on_c, 0, 84, 96
2, 132036, Note_on_c, 0, 79, 100
2, 132037, Note_on_c, 0, 48, 94
2, 132039, Note_on_c, 0, 88, 87
2, 132039, Note_on_c, 0, 36, 85
2, 132096, Control_c, 0, 64, 127
2, 132352, Note_on_c, 0, 77, 104
2, 132352, Note_on_c, 0, 89, 105
2, 132487, Note_on_c, 0, 36, 0
2, 132520, Note_on_c, 0, 55, 71
2, 132574, Note_on_c, 0, 57, 84
2, 132596, Note_on_c, 0, 60, 80
2, 132648, Note_on_c, 0, 88, 0
2, 132654, Note_on_c, 0, 64, 102
2, 132660, Note_on_c, 0, 88, 106
2, 132660, Note_on_c, 0, 76, 110
2, 132948, Note_on_c, 0, 77, 0
2, 132948, Note_on_c, 0, 89, 0
2, 132953, Note_on_c, 0, 89, 109
2, 132955, Note_on_c, 0, 77, 105
2, 133094, Note_on_c, 0, 48, 0
2, 133105, Note_on_c, 0, 48, 83
2, 133108, Note_on_c, 0, 36, 75
2, 133229, Control_c, 0, 64, 0
2, 133230, Note_on_c, 0, 48, 0
2, 133231, Note_on_c, 0, 91, 0
2, 133231, Note_on_c, 0, 57, 0
2, 133231, Note_on_c, 0, 55, 0
2, 133231, Note_on_c, 0, 60, 0
2, 133231, Note_on_c, 0, 84, 0
2, 133231, Note_on_c, 0, 64, 0
2, 133231, Note_on_c, 0, 76, 0
2, 133232, Note_on_c, 0, 36, 0
2, 133233, Note_on_c, 0, 79, 0
2, 133240, Note_on_c, 0, 77, 0
2, 133248, Note_on_c, 0, 88, 0
2, 133255, Note_on_c, 0, 89, 0
2, 133262, Note_on_c, 0, 93, 107
2, 133265, Note_on_c, 0, 81, 103
2, 133266, Note_on_c, 0, 89, 96
2, 133266, Note_on_c, 0, 47, 93
2, 133267, Note_on_c, 0, 35, 91
2, 133267, Note_on_c, 0, 86, 95
2, 133324, Control_c, 0, 64, 127
2, 133516, Note_on_c, 0, 35, 0
2, 133551, Note_on_c, 0, 55, 71
2, 133717, Note_on_c, 0, 59, 80
2, 133869, Note_on_c, 0, 62, 92
2, 134013, Note_on_c, 0, 67, 88
2, 134157, Note_on_c, 0, 71, 101
2, 134291, Note_on_c, 0, 74, 104
2, 134453, Note_on_c, 0, 86, 0
2, 134458, Note_on_c, 0, 43, 77
2, 134458, Note_on_c, 0, 50, 82
2, 134460, Note_on_c, 0, 86, 100
2, 134462, Note_on_c, 0, 79, 97
2, 134463, Note_on_c, 0, 93, 0
2, 134464, Note_on_c, 0, 71, 0
2, 134464, Note_on_c, 0, 81, 0
2, 134465, Note_on_c, 0, 47, 0
2, 134465, Note_on_c, 0, 62, 0
2, 134465, Note_on_c, 0, 67, 0
2, 134465, Note_on_c, 0, 59, 0
2, 134465, Note_on_c, 0, 55, 0
2, 134465, Note_on_c, 0, 74, 0
2, 134465, Note_on_c, 0, 89, 0
2, 134466, Control_c, 0, 64, 0
2, 134545, Control_c, 0, 64, 127
2, 134599, Note_on_c, 0, 83, 100
2, 134644, Note_on_c, 0, 74, 69
2, 134737, Note_on_c, 0, 83, 0
2, 134745, Note_on_c, 0, 74, 0
2, 134748, Note_on_c, 0, 83, 98
2, 134750, Note_on_c, 0, 74, 87
2, 134891, Note_on_c, 0, 79, 0
2, 134900, Note_on_c, 0, 79, 90
2, 134902, Note_on_c, 0, 71, 83
2, 135045, Note_on_c, 0, 71, 0
2, 135052, Note_on_c, 0, 67, 78
2, 135052, Note_on_c, 0, 79, 0
2, 135056, Note_on_c, 0, 71, 82
2, 135056, Note_on_c, 0, 79, 83
2, 135060, Note_on_c, 0, 59, 65
2, 135061, Note_on_c, 0, 62, 69
2, 135198, Note_on_c, 0, 74, 0
2, 135206, Note_on_c, 0, 74, 83
2, 135344, Note_on_c, 0, 74, 0
2, 135350, Note_on_c, 0, 74, 79
2, 135482, Note_on_c, 0, 71, 0
2, 135493, Note_on_c, 0, 71, 81
2, 135625, Note_on_c, 0, 59, 0
2, 135625, Note_on_c, 0, 67, 0
2, 135625, Control_c, 0, 64, 0
2, 135625, Note_on_c, 0, 50, 0
2, 135625, Note_on_c, 0, 62, 0
2, 135625, Note_on_c, 0, 74, 0
2, 135625, Note_on_c, 0, 79, 0
2, 135625, Note_on_c, 0, 83, 0
2, 135626, Note_on_c, 0, 43, 0
2, 135644, Note_on_c, 0, 71, 0
2, 135644, Note_on_c, 0, 86, 0
2, 135650, Note_on_c, 0, 34, 77
2, 135661, Note_on_c, 0, 70, 90
2, 135671, Note_on_c, 0, 65, 68
2, 135671, Note_on_c, 0, 62, 69
2, 135728, Control_c, 0, 64, 127
2, 135962, Note_on_c, 0, 46, 81
2, 136112, Note_on_c, 0, 53, 65
2, 136243, Note_on_c, 0, 62, 0
2, 136248, Note_on_c, 0, 86, 97
2, 136248, Note_on_c, 0, 70, 0
2, 136249, Note_on_c, 0, 62, 82
2, 136253, Note_on_c, 0, 74, 99
2, 136253, Note_on_c, 0, 58, 77
2, 136255, Note_on_c, 0, 82, 90
2, 136257, Note_on_c, 0, 77, 83
2, 136415, Note_on_c, 0, 88, 96
2, 136415, Note_on_c, 0, 76, 93
2, 136550, Note_on_c, 0, 77, 0
2, 136554, Note_on_c, 0, 89, 106
2, 136556, Note_on_c, 0, 77, 99
2, 136705, Note_on_c, 0, 41, 65
2, 136797, Control_c, 0, 64, 0
2, 136800, Note_on_c, 0, 86, 0
2, 136801, Note_on_c, 0, 82, 0
2, 136801, Note_on_c, 0, 88, 0
2, 136801, Note_on_c, 0, 65, 0
2, 136801, Note_on_c, 0, 62, 0
2, 136801, Note_on_c, 0, 77, 0
2, 136801, Note_on_c, 0, 41, 0
2, 136801, Note_on_c, 0, 89, 0
2, 136801, Note_on_c, 0, 46, 0
2, 136801, Note_on_c, 0, 58, 0
2, 136801, Note_on_c, 0, 76, 0
2, 136801, Note_on_c, 0, 53, 0
2, 136802, Note_on_c, 0, 34, 0
2, 136802, Note_on_c, 0, 74, 0
2, 136854, Note_on_c, 0, 46, 85
2, 136855, Note_on_c, 0, 34, 86
2, 136856, Note_on_c, 0, 91, 106
2, 136858, Note_on_c, 0, 79, 102
2, 136859, Note_on_c, 0, 84, 93
2, 136863, Note_on_c, 0, 88, 90
2, 136880, Control_c, 0, 64, 127
2, 137157, Note_on_c, 0, 84, 0
2, 137160, Note_on_c, 0, 84, 97
2, 137161, Note_on_c, 0, 72, 95
2, 137172, Note_on_c, 0, 34, 0
2, 137172, Note_on_c, 0, 46, 0
2, 137177, Note_on_c, 0, 46, 75
2, 137183, Note_on_c, 0, 34, 67
2, 137306, Note_on_c, 0, 52, 84
2, 137454, Note_on_c, 0, 60, 97
2, 137456, Note_on_c, 0, 55, 93
2, 137487, Note_on_c, 0, 91, 0
2, 137748, Note_on_c, 0, 72, 0
2, 137748, Note_on_c, 0, 84, 0
2, 137754, Note_on_c, 0, 84, 106
2, 137757, Note_on_c, 0, 72, 99
2, 137886, Note_on_c, 0, 34, 0
2, 137886, Note_on_c, 0, 46, 0
2, 137890, Note_on_c, 0, 46, 89
2, 137892, Note_on_c, 0, 34, 77
2, 138029, Note_on_c, 0, 79, 0
2, 138029, Note_on_c, 0, 34, 0
2, 138029, Control_c, 0, 64, 0
2, 138029, Note_on_c, 0, 46, 0
2, 138030, Note_on_c, 0, 72, 0
2, 138030, Note_on_c, 0, 88, 0
2, 138030, Note_on_c, 0, 84, 0
2, 138030, Note_on_c, 0, 52, 0
2, 138031, Note_on_c, 0, 60, 0
2, 138032, Note_on_c, 0, 55, 0
2, 138066, Note_on_c, 0, 93, 102
2, 138067, Note_on_c, 0, 33, 92
2, 138067, Note_on_c, 0, 81, 109
2, 138068, Note_on_c, 0, 45, 97
2, 138070, Note_on_c, 0, 88, 92
2, 138072, Note_on_c, 0, 86, 91
2, 138101, Control_c, 0, 64, 127
2, 138355, Note_on_c, 0, 81, 0
2, 138355, Note_on_c, 0, 88, 0
2, 138355, Note_on_c, 0, 93, 0
2, 138356, Note_on_c, 0, 57, 82
2, 138359, Note_on_c, 0, 93, 96
2, 138362, Note_on_c, 0, 81, 103
2, 138365, Note_on_c, 0, 88, 91
2, 138584, Note_on_c, 0, 86, 0
2, 138585, Control_c, 0, 64, 0
2, 138585, Note_on_c, 0, 33, 0
2, 138586, Note_on_c, 0, 93, 0
2, 138587, Note_on_c, 0, 88, 0
2, 138588, Note_on_c, 0, 81, 0
2, 138588, Note_on_c, 0, 45, 0
2, 138608, Note_on_c, 0, 57, 0
2, 138651, Note_on_c, 0, 91, 107
2, 138651, Note_on_c, 0, 37, 88
2, 138652, Note_on_c, 0, 49, 94
2, 138656, Note_on_c, 0, 85, 99
2, 138657, Note_on_c, 0, 79, 103
2, 138659, Note_on_c, 0, 88, 90
2, 138670, Control_c, 0, 64, 127
2, 138799, Note_on_c, 0, 57, 89
2, 138853, Control_c, 0, 64, 0
2, 138872, Note_on_c, 0, 57, 0
2, 138874, Note_on_c, 0, 79, 0
2, 138874, Note_on_c, 0, 88, 0
2, 138875, Note_on_c, 0, 91, 0
2, 138875, Note_on_c, 0, 37, 0
2, 138875, Note_on_c, 0, 49, 0
2, 138876, Note_on_c, 0, 85, 0
2, 138951, Note_on_c, 0, 91, 95
2, 138951, Note_on_c, 0, 79, 95
2, 139017, Note_on_c, 0, 79, 0
2, 139026, Note_on_c, 0, 91, 0
2, 139113, Note_on_c, 0, 89, 108
2, 139118, Note_on_c, 0, 77, 106
2, 139118, Note_on_c, 0, 50, 100
2, 139119, Note_on_c, 0, 81, 95
2, 139119, Note_on_c, 0, 38, 93
2, 139119, Note_on_c, 0, 86, 93
2, 139130, Control_c, 0, 64, 127
2, 139399, Note_on_c, 0, 50, 0
2, 139407, Note_on_c, 0, 38, 0
2, 139409, Note_on_c, 0, 50, 73
2, 139411, Note_on_c, 0, 38, 63
2, 139550, Note_on_c, 0, 69, 99
2, 139554, Note_on_c, 0, 53, 84
2, 139555, Note_on_c, 0, 57, 85
2, 139557, Note_on_c, 0, 65, 87
2, 139691, Note_on_c, 0, 50, 0
2, 139702, Note_on_c, 0, 50, 88
2, 139709, Note_on_c, 0, 38, 0
2, 139722, Note_on_c, 0, 57, 0
2, 139728, Note_on_c, 0, 57, 64
2, 139790, Note_on_c, 0, 62, 99
2, 139837, Note_on_c, 0, 69, 0
2, 139837, Note_on_c, 0, 77, 0
2, 139844, Note_on_c, 0, 77, 103
2, 139848, Note_on_c, 0, 74, 99
2, 139848, Note_on_c, 0, 69, 98
2, 139933, Control_c, 0, 64, 0
2, 139933, Note_on_c, 0, 89, 0
2, 139933, Note_on_c, 0, 86, 0
2, 139934, Note_on_c, 0, 77, 0
2, 139934, Note_on_c, 0, 69, 0
2, 139934, Note_on_c, 0, 57, 0
2, 139934, Note_on_c, 0, 62, 0
2, 139934, Note_on_c, 0, 81, 0
2, 139934, Note_on_c, 0, 53, 0
2, 139934, Note_on_c, 0, 74, 0
2, 139934, Note_on_c, 0, 65, 0
2, 139952, Note_on_c, 0, 50, 0
2, 140002, Note_on_c, 0, 76, 108
2, 140003, Note_on_c, 0, 67, 96
2, 140003, Note_on_c, 0, 72, 93
2, 140113, Control_c, 0, 64, 127
2, 140141, Note_on_c, 0, 48, 98
2, 140142, Note_on_c, 0, 36, 95
2, 140293, Note_on_c, 0, 77, 102
2, 140293, Note_on_c, 0, 43, 77
2, 140294, Note_on_c, 0, 31, 80
2, 140345, Control_c, 0, 64, 0
2, 140346, Note_on_c, 0, 36, 0
2, 140347, Note_on_c, 0, 48, 0
2, 140347, Note_on_c, 0, 72, 0
2, 140359, Note_on_c, 0, 76, 0
2, 140370, Note_on_c, 0, 76, 90
2, 140375, Note_on_c, 0, 31, 0
2, 140375, Note_on_c, 0, 67, 0
2, 140411, Note_on_c, 0, 77, 0
2, 140421, Note_on_c, 0, 43, 0
2, 140446, Note_on_c, 0, 74, 102
2, 140450, Note_on_c, 0, 70, 98
2, 140450, Note_on_c, 0, 65, 92
2, 140451, Note_on_c, 0, 31, 95
2, 140452, Note_on_c, 0, 43, 97
2, 140468, Note_on_c, 0, 76, 0
2, 140567, Control_c, 0, 64, 127
2, 140889, Note_on_c, 0, 43, 0
2, 140899, Note_on_c, 0, 43, 71
2, 141047, Control_c, 0, 64, 0
2, 141048, Note_on_c, 0, 65, 0
2, 141048, Note_on_c, 0, 70, 0
2, 141050, Note_on_c, 0, 74, 0
2, 141058, Note_on_c, 0, 82, 98
2, 141060, Note_on_c, 0, 74, 105
2, 141060, Note_on_c, 0, 86, 99
2, 141061, Note_on_c, 0, 50, 82
2, 141061, Note_on_c, 0, 58, 90
2, 141104, Control_c, 0, 64, 127
2, 141202, Note_on_c, 0, 88, 101
2, 141204, Note_on_c, 0, 76, 104
2, 141212, Note_on_c, 0, 86, 0
2, 141216, Note_on_c, 0, 86, 64
2, 141342, Note_on_c, 0, 89, 108
2, 141345, Note_on_c, 0, 77, 105
2, 141480, Note_on_c, 0, 31, 0
2, 141480, Note_on_c, 0, 43, 0
2, 141486, Note_on_c, 0, 43, 75
2, 141489, Note_on_c, 0, 31, 72
2, 141634, Control_c, 0, 64, 0
2, 141635, Note_on_c, 0, 50, 0
2, 141635, Note_on_c, 0, 89, 0
2, 141636, Note_on_c, 0, 77, 0
2, 141636, Note_on_c, 0, 31, 0
2, 141636, Note_on_c, 0, 58, 0
2, 141637, Note_on_c, 0, 82, 0
2, 141637, Note_on_c, 0, 76, 0
2, 141637, Note_on_c, 0, 74, 0
2, 141637, Note_on_c, 0, 86, 0
2, 141649, Note_on_c, 0, 91, 110
2, 141649, Note_on_c, 0, 88, 0
2, 141653, Note_on_c, 0, 79, 99
2, 141653, Note_on_c, 0, 84, 97
2, 141656, Note_on_c, 0, 48, 92
2, 141657, Note_on_c, 0, 88, 91
2, 141660, Note_on_c, 0, 36, 88
2, 141734, Control_c, 0, 64, 127
2, 141951, Note_on_c, 0, 89, 105
2, 141952, Note_on_c, 0, 77, 99
2, 142087, Note_on_c, 0, 48, 0
2, 142098, Note_on_c, 0, 48, 79
2, 142241, Note_on_c, 0, 88, 0
2, 142248, Note_on_c, 0, 84, 0
2, 142252, Note_on_c, 0, 64, 100
2, 142252, Note_on_c, 0, 88, 101
2, 142254, Note_on_c, 0, 82, 98
2, 142256, Note_on_c, 0, 58, 87
2, 142256, Note_on_c, 0, 84, 95
2, 142258, Note_on_c, 0, 76, 105
2, 142259, Note_on_c, 0, 60, 74
2, 142259, Note_on_c, 0, 55, 80
2, 142260, Note_on_c, 0, 91, 0
2, 142548, Note_on_c, 0, 77, 0
2, 142548, Note_on_c, 0, 89, 0
2, 142559, Note_on_c, 0, 89, 104
2, 142559, Note_on_c, 0, 77, 99
2, 142694, Note_on_c, 0, 89, 0
2, 142702, Note_on_c, 0, 36, 0
2, 142702, Note_on_c, 0, 77, 0
2, 142702, Note_on_c, 0, 82, 0
2, 142702, Note_on_c, 0, 84, 0
2, 142704, Note_on_c, 0, 89, 103
2, 142708, Note_on_c, 0, 77, 99
2, 142708, Note_on_c, 0, 36, 82
2, 142710, Note_on_c, 0, 84, 97
2, 142712, Note_on_c, 0, 82, 95
2, 142794, Note_on_c, 0, 60, 0
2, 142794, Note_on_c, 0, 79, 0
2, 142798, Note_on_c, 0, 43, 0
2, 142798, Note_on_c, 0, 55, 0
2, 142798, Note_on_c, 0, 64, 0
2, 142798, Note_on_c, 0, 76, 0
2, 142798, Note_on_c, 0, 58, 0
2, 142799, Note_on_c, 0, 36, 0
2, 142804, Control_c, 0, 64, 0
2, 142809, Note_on_c, 0, 48, 0
2, 142809, Note_on_c, 0, 88, 0
2, 142862, Note_on_c, 0, 41, 94
2, 142863, Note_on_c, 0, 29, 97
2, 142901, Control_c, 0, 64, 127
2, 143170, Note_on_c, 0, 41, 0
2, 143177, Note_on_c, 0, 53, 58
2, 143178, Note_on_c, 0, 41, 58
2, 143185, Note_on_c, 0, 53, 0
2, 143304, Note_on_c, 0, 70, 99
2, 143316, Note_on_c, 0, 41, 0
2, 143319, Note_on_c, 0, 65, 83
2, 143319, Note_on_c, 0, 60, 87
2, 143321, Note_on_c, 0, 53, 81
2, 143326, Note_on_c, 0, 48, 72
2, 143327, Note_on_c, 0, 41, 77
2, 143616, Note_on_c, 0, 41, 0
2, 143625, Note_on_c, 0, 41, 72
2, 143752, Note_on_c, 0, 48, 0
2, 143754, Note_on_c, 0, 70, 0
2, 143756, Note_on_c, 0, 53, 0
2, 143759, Control_c, 0, 64, 0
2, 143761, Note_on_c, 0, 29, 0
2, 143761, Note_on_c, 0, 41, 0
2, 143769, Note_on_c, 0, 60, 0
2, 143769, Note_on_c, 0, 65, 0
2, 143769, Note_on_c, 0, 77, 0
2, 143769, Note_on_c, 0, 82, 0
2, 143769, Note_on_c, 0, 89, 0
2, 143772, Note_on_c, 0, 69, 103
2, 143773, Note_on_c, 0, 29, 84
2, 143773, Note_on_c, 0, 41, 76
2, 143774, Note_on_c, 0, 60, 79
2, 143779, Note_on_c, 0, 65, 87
2, 143784, Note_on_c, 0, 84, 0
2, 143915, Control_c, 0, 64, 127
2, 144240, Note_on_c, 0, 48, 65
2, 144396, Note_on_c, 0, 53, 67
2, 144555, Note_on_c, 0, 55, 78
2, 144683, Note_on_c, 0, 60, 0
2, 144691, Note_on_c, 0, 60, 87
2, 144829, Note_on_c, 0, 65, 0
2, 144840, Note_on_c, 0, 65, 77
2, 144985, Note_on_c, 0, 67, 88
2, 145140, Note_on_c, 0, 72, 85
2, 145285, Note_on_c, 0, 77, 99
2, 145293, Note_on_c, 0, 74, 96
2, 145300, Note_on_c, 0, 50, 86
2, 145301, Note_on_c, 0, 62, 95
2, 145301, Note_on_c, 0, 38, 75
2, 145302, Note_on_c, 0, 57, 81
2, 145313, Note_on_c, 0, 38, 0
2, 145418, Control_c, 0, 64, 0
2, 145420, Note_on_c, 0, 57, 0
2, 145420, Note_on_c, 0, 29, 0
2, 145421, Note_on_c, 0, 53, 0
2, 145422, Note_on_c, 0, 60, 0
2, 145422, Note_on_c, 0, 77, 0
2, 145422, Note_on_c, 0, 48, 0
2, 145422, Note_on_c, 0, 41, 0
2, 145422, Note_on_c, 0, 50, 0
2, 145422, Note_on_c, 0, 62, 0
2, 145422, Note_on_c, 0, 55, 0
2, 145422, Note_on_c, 0, 72, 0
2, 145423, Note_on_c, 0, 74, 0
2, 145423, Note_on_c, 0, 67, 0
2, 145428, Note_on_c, 0, 69, 0
2, 145431, Note_on_c, 0, 57, 64
2, 145436, Note_on_c, 0, 65, 0
2, 145437, Note_on_c, 0, 69, 77
2, 145497, Note_on_c, 0, 57, 0
2, 145497, Note_on_c, 0, 69, 0
2, 145593, Note_on_c, 0, 74, 87
2, 145636, Note_on_c, 0, 74, 0
2, 145743, Note_on_c, 0, 69, 77
2, 145792, Note_on_c, 0, 69, 0
2, 145883, Note_on_c, 0, 81, 99
2, 145891, Note_on_c, 0, 74, 85
2, 145924, Note_on_c, 0, 74, 0
2, 145935, Note_on_c, 0, 81, 0
2, 146038, Note_on_c, 0, 69, 85
2, 146126, Note_on_c, 0, 69, 0
2, 146187, Note_on_c, 0, 77, 90
2, 146189, Note_on_c, 0, 62, 92
2, 146192, Note_on_c, 0, 57, 82
2, 146192, Note_on_c, 0, 74, 84
2, 146193, Note_on_c, 0, 50, 81
2, 146223, Note_on_c, 0, 62, 0
2, 146230, Note_on_c, 0, 57, 0
2, 146231, Note_on_c, 0, 50, 0
2, 146234, Note_on_c, 0, 74, 0
2, 146244, Note_on_c, 0, 77, 0
2, 146334, Note_on_c, 0, 69, 77
2, 146392, Note_on_c, 0, 69, 0
2, 146477, Note_on_c, 0, 60, 92
2, 146477, Note_on_c, 0, 57, 89
2, 146477, Note_on_c, 0, 76, 101
2, 146478, Note_on_c, 0, 48, 84
2, 146478, Note_on_c, 0, 72, 93
2, 146503, Control_c, 0, 64, 127
2, 146595, Note_on_c, 0, 48, 0
2, 146601, Note_on_c, 0, 48, 77
2, 146603, Note_on_c, 0, 57, 0
2, 146610, Note_on_c, 0, 57, 80
2, 146611, Note_on_c, 0, 60, 0
2, 146621, Note_on_c, 0, 60, 83
2, 146622, Note_on_c, 0, 69, 79
2, 146659, Control_c, 0, 64, 0
2, 146684, Note_on_c, 0, 60, 0
2, 146684, Note_on_c, 0, 57, 0
2, 146684, Note_on_c, 0, 69, 0
2, 146684, Note_on_c, 0, 76, 0
2, 146685, Note_on_c, 0, 72, 0
2, 146695, Note_on_c, 0, 48, 0
2, 146781, Note_on_c, 0, 72, 82
2, 146817, Note_on_c, 0, 72, 0
2, 146926, Note_on_c, 0, 69, 79
2, 146976, Note_on_c, 0, 69, 0
2, 147066, Note_on_c, 0, 81, 100
2, 147069, Note_on_c, 0, 72, 91
2, 147106, Note_on_c, 0, 72, 0
2, 147113, Note_on_c, 0, 81, 0
2, 147217, Note_on_c, 0, 69, 85
2, 147276, Note_on_c, 0, 69, 0
2, 147362, Note_on_c, 0, 76, 93
2, 147364, Note_on_c, 0, 60, 82
2, 147366, Note_on_c, 0, 72, 88
2, 147366, Note_on_c, 0, 57, 83
2, 147368, Note_on_c, 0, 48, 72
2, 147414, Note_on_c, 0, 60, 0
2, 147421, Note_on_c, 0, 48, 0
2, 147422, Note_on_c, 0, 57, 0
2, 147426, Note_on_c, 0, 72, 0
2, 147435, Note_on_c, 0, 76, 0
2, 147506, Note_on_c, 0, 69, 87
2, 147551, Note_on_c, 0, 69, 0
2, 147654, Note_on_c, 0, 58, 90
2, 147655, Note_on_c, 0, 74, 100
2, 147659, Note_on_c, 0, 69, 90
2, 147660, Note_on_c, 0, 46, 90
2, 147662, Note_on_c, 0, 53, 81
2, 147663, Control_c, 0, 64, 127
2, 147793, Note_on_c, 0, 58, 0
2, 147801, Note_on_c, 0, 58, 73
2, 147805, Note_on_c, 0, 65, 74
2, 147851, Control_c, 0, 64, 0
2, 147852, Note_on_c, 0, 58, 0
2, 147854, Note_on_c, 0, 46, 0
2, 147855, Note_on_c, 0, 65, 0
2, 147855, Note_on_c, 0, 69, 0
2, 147856, Note_on_c, 0, 74, 0
2, 147858, Note_on_c, 0, 53, 0
2, 147951, Note_on_c, 0, 81, 94
2, 147953, Note_on_c, 0, 74, 92
2, 147956, Note_on_c, 0, 69, 62
2, 147984, Note_on_c, 0, 69, 0
2, 147991, Note_on_c, 0, 74, 0
2, 147991, Note_on_c, 0, 81, 0
2, 148100, Note_on_c, 0, 62, 85
2, 148101, Note_on_c, 0, 69, 88
2, 148105, Note_on_c, 0, 58, 77
2, 148141, Note_on_c, 0, 62, 0
2, 148143, Note_on_c, 0, 69, 0
2, 148144, Note_on_c, 0, 58, 0
2, 148237, Note_on_c, 0, 77, 91
2, 148241, Note_on_c, 0, 74, 84
2, 148282, Note_on_c, 0, 77, 0
2, 148285, Note_on_c, 0, 74, 0
2, 148388, Note_on_c, 0, 69, 79
2, 148428, Note_on_c, 0, 69, 0
2, 148537, Note_on_c, 0, 58, 86
2, 148541, Note_on_c, 0, 74, 95
2, 148542, Note_on_c, 0, 46, 82
2, 148542, Note_on_c, 0, 53, 76
2, 148543, Note_on_c, 0, 69, 86
2, 148569, Control_c, 0, 64, 127
2, 148661, Note_on_c, 0, 46, 0
2, 148661, Note_on_c, 0, 74, 0
2, 148666, Note_on_c, 0, 74, 69
2, 148668, Note_on_c, 0, 46, 75
2, 148669, Note_on_c, 0, 58, 0
2, 148675, Note_on_c, 0, 65, 75
2, 148680, Note_on_c, 0, 58, 81
2, 148759, Note_on_c, 0, 74, 0
2, 148760, Note_on_c, 0, 65, 0
2, 148760, Note_on_c, 0, 46, 0
2, 148761, Note_on_c, 0, 58, 0
2, 148761, Note_on_c, 0, 53, 0
2, 148761, Control_c, 0, 64, 0
2, 148776, Note_on_c, 0, 69, 0
2, 148821, Note_on_c, 0, 81, 95
2, 148825, Note_on_c, 0, 74, 91
2, 148858, Note_on_c, 0, 74, 0
2, 148865, Note_on_c, 0, 81, 0
2, 148972, Note_on_c, 0, 69, 92
2, 148973, Note_on_c, 0, 62, 84
2, 148975, Note_on_c, 0, 58, 84
2, 149011, Note_on_c, 0, 62, 0
2, 149012, Note_on_c, 0, 58, 0
2, 149012, Note_on_c, 0, 69, 0
2, 149118, Note_on_c, 0, 77, 89
2, 149118, Note_on_c, 0, 74, 87
2, 149172, Note_on_c, 0, 74, 0
2, 149196, Note_on_c, 0, 77, 0
2, 149259, Note_on_c, 0, 69, 80
2, 149304, Note_on_c, 0, 69, 0
2, 149408, Note_on_c, 0, 58, 83
2, 149409, Note_on_c, 0, 74, 95
2, 149410, Note_on_c, 0, 46, 77
2, 149410, Note_on_c, 0, 53, 72
2, 149412, Note_on_c, 0, 69, 84
2, 149437, Control_c, 0, 64, 127
2, 149543, Note_on_c, 0, 65, 78
2, 149683, Note_on_c, 0, 74, 0
2, 149685, Control_c, 0, 64, 0
2, 149687, Note_on_c, 0, 69, 0
2, 149688, Note_on_c, 0, 77, 101
2, 149688, Note_on_c, 0, 46, 0
2, 149689, Note_on_c, 0, 65, 0
2, 149692, Note_on_c, 0, 53, 0
2, 149694, Note_on_c, 0, 60, 89
2, 149694, Note_on_c, 0, 74, 90
2, 149695, Note_on_c, 0, 48, 85
2, 149696, Note_on_c, 0, 55, 80
2, 149706, Note_on_c, 0, 58, 0
2, 149764, Note_on_c, 0, 74, 0
2, 149772, Note_on_c, 0, 77, 0
2, 149839, Note_on_c, 0, 48, 0
2, 149840, Note_on_c, 0, 76, 95
2, 149840, Note_on_c, 0, 72, 86
2, 149852, Note_on_c, 0, 55, 0
2, 149875, Note_on_c, 0, 60, 0
2, 149880, Note_on_c, 0, 76, 0
2, 149898, Note_on_c, 0, 72, 0
2, 149981, Note_on_c, 0, 77, 102
2, 149983, Note_on_c, 0, 62, 100
2, 149985, Note_on_c, 0, 74, 100
2, 149986, Note_on_c, 0, 57, 94
2, 149986, Note_on_c, 0, 50, 90
2, 149987, Note_on_c, 0, 45, 77
2, 149990, Control_c, 0, 64, 127
2, 149998, Note_on_c, 0, 45, 0
2, 150128, Note_on_c, 0, 57, 0
2, 150128, Note_on_c, 0, 62, 0
2, 150132, Note_on_c, 0, 69, 86
2, 150134, Note_on_c, 0, 57, 71
2, 150137, Note_on_c, 0, 62, 71
2, 150148, Note_on_c, 0, 74, 0
2, 150150, Note_on_c, 0, 77, 0
2, 150151, Control_c, 0, 64, 0
2, 150153, Note_on_c, 0, 50, 0
2, 150190, Note_on_c, 0, 69, 0
2, 150205, Note_on_c, 0, 57, 0
2, 150213, Note_on_c, 0, 62, 0
2, 150280, Note_on_c, 0, 74, 90
2, 150324, Note_on_c, 0, 74, 0
2, 150431, Note_on_c, 0, 69, 94
2, 150441, Note_on_c, 0, 62, 81
2, 150441, Note_on_c, 0, 65, 90
2, 150465, Note_on_c, 0, 65, 0
2, 150466, Note_on_c, 0, 62, 0
2, 150467, Note_on_c, 0, 69, 0
2, 150569, Note_on_c, 0, 81, 92
2, 150571, Note_on_c, 0, 77, 73
2, 150634, Note_on_c, 0, 81, 0
2, 150635, Note_on_c, 0, 77, 0
2, 150720, Note_on_c, 0, 69, 90
2, 150791, Note_on_c, 0, 69, 0
2, 150865, Note_on_c, 0, 57, 87
2, 150866, Note_on_c, 0, 62, 94
2, 150868, Note_on_c, 0, 77, 95
2, 150870, Note_on_c, 0, 45, 71
2, 150870, Note_on_c, 0, 50, 82
2, 150870, Note_on_c, 0, 74, 87
2, 150881, Note_on_c, 0, 45, 0
2, 150901, Note_on_c, 0, 62, 0
2, 150909, Note_on_c, 0, 57, 0
2, 150912, Note_on_c, 0, 74, 0
2, 150915, Note_on_c, 0, 50, 0
2, 150918, Note_on_c, 0, 77, 0
2, 151033, Note_on_c, 0, 69, 88
2, 151080, Note_on_c, 0, 69, 0
2, 151155, Note_on_c, 0, 60, 91
2, 151155, Note_on_c, 0, 57, 87
2, 151155, Note_on_c, 0, 48, 84
2, 151156, Note_on_c, 0, 72, 100
2, 151159, Note_on_c, 0, 76, 99
2, 151180, Control_c, 0, 64, 127
2, 151257, Note_on_c, 0, 48, 0
2, 151264, Note_on_c, 0, 48, 63
2, 151298, Note_on_c, 0, 69, 84
2, 151311, Note_on_c, 0, 57, 0
2, 151315, Note_on_c, 0, 57, 63
2, 151319, Note_on_c, 0, 60, 0
2, 151323, Note_on_c, 0, 60, 65
2, 151438, Note_on_c, 0, 48, 0
2, 151438, Note_on_c, 0, 57, 0
2, 151438, Note_on_c, 0, 76, 0
2, 151439, Note_on_c, 0, 60, 0
2, 151440, Control_c, 0, 64, 0
2, 151449, Note_on_c, 0, 72, 0
2, 151456, Note_on_c, 0, 72, 92
2, 151457, Note_on_c, 0, 69, 0
2, 151503, Note_on_c, 0, 72, 0
2, 151598, Note_on_c, 0, 69, 94
2, 151602, Note_on_c, 0, 64, 84
2, 151605, Note_on_c, 0, 60, 81
2, 151637, Note_on_c, 0, 69, 0
2, 151637, Note_on_c, 0, 64, 0
2, 151664, Note_on_c, 0, 60, 0
2, 151742, Note_on_c, 0, 84, 97
2, 151744, Note_on_c, 0, 76, 92
2, 151771, Note_on_c, 0, 76, 0
2, 151774, Note_on_c, 0, 84, 0
2, 151892, Note_on_c, 0, 69, 85
2, 151936, Note_on_c, 0, 69, 0
2, 152032, Note_on_c, 0, 60, 84
2, 152036, Note_on_c, 0, 55, 82
2, 152036, Note_on_c, 0, 76, 91
2, 152036, Note_on_c, 0, 72, 89
2, 152037, Note_on_c, 0, 48, 80
2, 152070, Note_on_c, 0, 60, 0
2, 152081, Note_on_c, 0, 72, 0
2, 152082, Note_on_c, 0, 55, 0
2, 152098, Note_on_c, 0, 48, 0
2, 152106, Note_on_c, 0, 76, 0
2, 152171, Note_on_c, 0, 69, 82
2, 152236, Note_on_c, 0, 69, 0
2, 152327, Note_on_c, 0, 74, 98
2, 152329, Note_on_c, 0, 46, 90
2, 152330, Note_on_c, 0, 69, 90
2, 152332, Note_on_c, 0, 53, 82
2, 152355, Control_c, 0, 64, 127
2, 152463, Note_on_c, 0, 46, 0
2, 152467, Note_on_c, 0, 65, 80
2, 152469, Note_on_c, 0, 58, 79
2, 152473, Note_on_c, 0, 46, 86
2, 152478, Note_on_c, 0, 58, 0
2, 152621, Note_on_c, 0, 86, 97
2, 152622, Control_c, 0, 64, 0
2, 152622, Note_on_c, 0, 77, 95
2, 152625, Note_on_c, 0, 69, 0
2, 152628, Note_on_c, 0, 46, 0
2, 152629, Note_on_c, 0, 53, 0
2, 152640, Note_on_c, 0, 74, 0
2, 152655, Note_on_c, 0, 65, 0
2, 152660, Note_on_c, 0, 77, 0
2, 152666, Note_on_c, 0, 86, 0
2, 152754, Note_on_c, 0, 74, 86
2, 152757, Note_on_c, 0, 65, 79
2, 152758, Note_on_c, 0, 62, 81
2, 152758, Note_on_c, 0, 58, 78
2, 152782, Note_on_c, 0, 65, 0
2, 152787, Note_on_c, 0, 62, 0
2, 152790, Note_on_c, 0, 74, 0
2, 152816, Note_on_c, 0, 58, 0
2, 152910, Note_on_c, 0, 81, 95
2, 152913, Note_on_c, 0, 74, 93
2, 152951, Note_on_c, 0, 81, 0
2, 152952, Note_on_c, 0, 74, 0
2, 153044, Note_on_c, 0, 69, 82
2, 153089, Note_on_c, 0, 69, 0
2, 153198, Note_on_c, 0, 74, 96
2, 153198, Note_on_c, 0, 46, 89
2, 153203, Note_on_c, 0, 53, 79
2, 153203, Note_on_c, 0, 69, 90
2, 153208, Control_c, 0, 64, 127
2, 153331, Note_on_c, 0, 46, 0
2, 153336, Note_on_c, 0, 65, 78
2, 153340, Note_on_c, 0, 58, 76
2, 153342, Note_on_c, 0, 46, 77
2, 153458, Control_c, 0, 64, 0
2, 153459, Note_on_c, 0, 69, 0
2, 153460, Note_on_c, 0, 65, 0
2, 153461, Note_on_c, 0, 46, 0
2, 153462, Note_on_c, 0, 74, 0
2, 153464, Note_on_c, 0, 53, 0
2, 153480, Note_on_c, 0, 86, 102
2, 153483, Note_on_c, 0, 77, 94
2, 153500, Note_on_c, 0, 58, 0
2, 153524, Note_on_c, 0, 77, 0
2, 153526, Note_on_c, 0, 86, 0
2, 153620, Note_on_c, 0, 74, 93
2, 153629, Note_on_c, 0, 65, 83
2, 153634, Note_on_c, 0, 62, 70
2, 153634, Note_on_c, 0, 58, 78
2, 153658, Note_on_c, 0, 74, 0
2, 153670, Note_on_c, 0, 65, 0
2, 153692, Note_on_c, 0, 62, 0
2, 153699, Note_on_c, 0, 58, 0
2, 153770, Note_on_c, 0, 81, 88
2, 153772, Note_on_c, 0, 74, 89
2, 153818, Note_on_c, 0, 74, 0
2, 153836, Note_on_c, 0, 81, 0
2, 153905, Note_on_c, 0, 69, 81
2, 153968, Note_on_c, 0, 69, 0
2, 154037, Control_c, 0, 64, 127
2, 154050, Note_on_c, 0, 58, 91
2, 154056, Note_on_c, 0, 74, 98
2, 154057, Note_on_c, 0, 46, 83
2, 154058, Note_on_c, 0, 53, 76
2, 154064, Note_on_c, 0, 69, 92
2, 154196, Note_on_c, 0, 65, 73
2, 154342, Note_on_c, 0, 89, 105
2, 154344, Note_on_c, 0, 77, 104
2, 154353, Note_on_c, 0, 48, 92
2, 154356, Note_on_c, 0, 36, 85
2, 154484, Note_on_c, 0, 76, 103
2, 154485, Note_on_c, 0, 88, 100
2, 154544, Note_on_c, 0, 53, 0
2, 154630, Control_c, 0, 64, 0
2, 154634, Note_on_c, 0, 65, 0
2, 154635, Note_on_c, 0, 48, 0
2, 154636, Note_on_c, 0, 77, 0
2, 154636, Note_on_c, 0, 89, 0
2, 154637, Note_on_c, 0, 74, 0
2, 154637, Note_on_c, 0, 76, 0
2, 154639, Note_on_c, 0, 36, 0
2, 154639, Note_on_c, 0, 88, 0
2, 154643, Note_on_c, 0, 81, 99
2, 154644, Note_on_c, 0, 46, 0
2, 154645, Note_on_c, 0, 77, 104
2, 154647, Note_on_c, 0, 50, 89
2, 154647, Note_on_c, 0, 89, 104
2, 154648, Note_on_c, 0, 38, 86
2, 154652, Note_on_c, 0, 58, 0
2, 154652, Note_on_c, 0, 69, 0
2, 154759, Control_c, 0, 64, 127
2, 154804, Note_on_c, 0, 86, 92
2, 154928, Note_on_c, 0, 81, 0
2, 154937, Note_on_c, 0, 81, 80
2, 155074, Note_on_c, 0, 86, 0
2, 155079, Note_on_c, 0, 86, 81
2, 155228, Note_on_c, 0, 77, 0
2, 155232, Note_on_c, 0, 77, 75
2, 155232, Note_on_c, 0, 65, 71
2, 155238, Note_on_c, 0, 74, 63
2, 155239, Note_on_c, 0, 62, 67
2, 155243, Note_on_c, 0, 50, 0
2, 155255, Note_on_c, 0, 57, 59
2, 155258, Note_on_c, 0, 38, 0
2, 155374, Note_on_c, 0, 81, 0
2, 155384, Note_on_c, 0, 81, 83
2, 155520, Note_on_c, 0, 77, 0
2, 155520, Note_on_c, 0, 89, 0
2, 155531, Note_on_c, 0, 89, 99
2, 155531, Note_on_c, 0, 77, 90
2, 155665, Note_on_c, 0, 81, 0
2, 155675, Note_on_c, 0, 81, 102
2, 155676, Note_on_c, 0, 93, 93
2, 155815, Note_on_c, 0, 45, 83
2, 155821, Note_on_c, 0, 88, 100
2, 155823, Note_on_c, 0, 76, 93
2, 155827, Note_on_c, 0, 93, 0
2, 155828, Control_c, 0, 64, 0
2, 155829, Note_on_c, 0, 65, 0
2, 155829, Note_on_c, 0, 77, 0
2, 155829, Note_on_c, 0, 86, 0
2, 155829, Note_on_c, 0, 89, 0
2, 155829, Note_on_c, 0, 62, 0
2, 155830, Note_on_c, 0, 81, 0
2, 155830, Note_on_c, 0, 57, 0
2, 155834, Note_on_c, 0, 74, 0
2, 155838, Note_on_c, 0, 79, 90
2, 155919, Control_c, 0, 64, 127
2, 155986, Note_on_c, 0, 52, 68
2, 155987, Note_on_c, 0, 84, 73
2, 156134, Note_on_c, 0, 79, 0
2, 156140, Note_on_c, 0, 55, 64
2, 156145, Note_on_c, 0, 79, 79
2, 156272, Note_on_c, 0, 84, 0
2, 156276, Note_on_c, 0, 60, 77
2, 156277, Note_on_c, 0, 84, 75
2, 156410, Note_on_c, 0, 76, 0
2, 156420, Note_on_c, 0, 62, 77
2, 156422, Note_on_c, 0, 76, 78
2, 156549, Note_on_c, 0, 79, 0
2, 156555, Note_on_c, 0, 79, 86
2, 156556, Note_on_c, 0, 64, 73
2, 156704, Note_on_c, 0, 67, 84
2, 156707, Note_on_c, 0, 86, 99
2, 156707, Note_on_c, 0, 74, 92
2, 156848, Note_on_c, 0, 84, 0
2, 156858, Note_on_c, 0, 72, 93
2, 156858, Note_on_c, 0, 84, 97
2, 156961, Note_on_c, 0, 52, 0
2, 156961, Note_on_c, 0, 62, 0
2, 156961, Note_on_c, 0, 60, 0
2, 156961, Note_on_c, 0, 88, 0
2, 156962, Note_on_c, 0, 72, 0
2, 156962, Note_on_c, 0, 79, 0
2, 156962, Note_on_c, 0, 76, 0
2, 156962, Note_on_c, 0, 84, 0
2, 156962, Note_on_c, 0, 74, 0
2, 156962, Note_on_c, 0, 86, 0
2, 156962, Note_on_c, 0, 45, 0
2, 156962, Note_on_c, 0, 55, 0
2, 156962, Note_on_c, 0, 64, 0
2, 156963, Note_on_c, 0, 67, 0
2, 156966, Control_c, 0, 64, 0
2, 156999, Note_on_c, 0, 86, 99
2, 157005, Note_on_c, 0, 77, 85
2, 157006, Note_on_c, 0, 74, 90
2, 157009, Note_on_c, 0, 34, 79
2, 157009, Note_on_c, 0, 46, 83
2, 157109, Control_c, 0, 64, 127
2, 157167, Note_on_c, 0, 82, 74
2, 157304, Note_on_c, 0, 81, 77
2, 157447, Note_on_c, 0, 82, 0
2, 157456, Note_on_c, 0, 82, 79
2, 157585, Note_on_c, 0, 77, 0
2, 157591, Note_on_c, 0, 77, 73
2, 157593, Note_on_c, 0, 74, 0
2, 157599, Note_on_c, 0, 74, 60
2, 157603, Note_on_c, 0, 62, 68
2, 157604, Note_on_c, 0, 53, 62
2, 157605, Note_on_c, 0, 58, 58
2, 157731, Note_on_c, 0, 82, 0
2, 157742, Note_on_c, 0, 82, 78
2, 157877, Note_on_c, 0, 74, 0
2, 157877, Note_on_c, 0, 86, 0
2, 157882, Note_on_c, 0, 86, 97
2, 157884, Note_on_c, 0, 74, 92
2, 158023, Note_on_c, 0, 77, 0
2, 158031, Note_on_c, 0, 89, 99
2, 158032, Note_on_c, 0, 77, 95
2, 158177, Note_on_c, 0, 77, 0
2, 158181, Note_on_c, 0, 84, 100
2, 158181, Note_on_c, 0, 41, 70
2, 158187, Note_on_c, 0, 77, 84
2, 158188, Control_c, 0, 64, 0
2, 158188, Note_on_c, 0, 72, 85
2, 158189, Note_on_c, 0, 81, 0
2, 158189, Note_on_c, 0, 82, 0
2, 158189, Note_on_c, 0, 89, 0
2, 158189, Note_on_c, 0, 34, 0
2, 158190, Note_on_c, 0, 86, 0
2, 158190, Note_on_c, 0, 62, 0
2, 158191, Note_on_c, 0, 74, 0
2, 158193, Note_on_c, 0, 53, 0
2, 158200, Note_on_c, 0, 58, 0
2, 158208, Note_on_c, 0, 46, 0
2, 158292, Control_c, 0, 64, 127
2, 158322, Note_on_c, 0, 81, 76
2, 158336, Note_on_c, 0, 48, 65
2, 158474, Note_on_c, 0, 79, 77
2, 158479, Note_on_c, 0, 53, 72
2, 158622, Note_on_c, 0, 81, 0
2, 158625, Note_on_c, 0, 55, 69
2, 158629, Note_on_c, 0, 81, 81
2, 158753, Note_on_c, 0, 72, 0
2, 158761, Note_on_c, 0, 72, 78
2, 158780, Note_on_c, 0, 57, 61
2, 158906, Note_on_c, 0, 77, 0
2, 158911, Note_on_c, 0, 60, 76
2, 158917, Note_on_c, 0, 77, 79
2, 159057, Note_on_c, 0, 82, 95
2, 159057, Note_on_c, 0, 65, 76
2, 159059, Note_on_c, 0, 70, 94
2, 159191, Note_on_c, 0, 81, 0
2, 159199, Note_on_c, 0, 81, 98
2, 159202, Note_on_c, 0, 69, 86
2, 159331, Control_c, 0, 64, 0
2, 159334, Note_on_c, 0, 65, 0
2, 159334, Note_on_c, 0, 41, 0
2, 159335, Note_on_c, 0, 60, 0
2, 159335, Note_on_c, 0, 77, 0
2, 159335, Note_on_c, 0, 84, 0
2, 159335, Note_on_c, 0, 48, 0
2, 159335, Note_on_c, 0, 53, 0
2, 159336, Note_on_c, 0, 69, 0
2, 159336, Note_on_c, 0, 72, 0
2, 159336, Note_on_c, 0, 79, 0
2, 159336, Note_on_c, 0, 57, 0
2, 159336, Note_on_c, 0, 82, 0
2, 159337, Note_on_c, 0, 81, 0
2, 159344, Note_on_c, 0, 82, 101
2, 159344, Note_on_c, 0, 55, 0
2, 159344, Note_on_c, 0, 70, 0
2, 159348, Note_on_c, 0, 70, 92
2, 159348, Note_on_c, 0, 43, 73
2, 159349, Note_on_c, 0, 74, 83
2, 159349, Note_on_c, 0, 55, 80
2, 159429, Control_c, 0, 64, 127
2, 159506, Note_on_c, 0, 79, 73
2, 159661, Note_on_c, 0, 77, 72
2, 159820, Note_on_c, 0, 79, 0
2, 159825, Note_on_c, 0, 79, 63
2, 159953, Note_on_c, 0, 67, 70
2, 159962, Note_on_c, 0, 62, 58
2, 159966, Note_on_c, 0, 74, 0
2, 159966, Note_on_c, 0, 58, 58
2, 159970, Note_on_c, 0, 74, 71
2, 159980, Control_c, 0, 64, 0
2, 159989, Control_c, 0, 64, 127
2, 160104, Note_on_c, 0, 79, 0
2, 160113, Note_on_c, 0, 79, 75
2, 160243, Note_on_c, 0, 70, 0
2, 160243, Note_on_c, 0, 82, 0
2, 160247, Note_on_c, 0, 82, 93
2, 160253, Note_on_c, 0, 70, 84
2, 160389, Note_on_c, 0, 74, 0
2, 160397, Note_on_c, 0, 86, 94
2, 160399, Note_on_c, 0, 74, 93
2, 160542, Note_on_c, 0, 74, 0
2, 160542, Note_on_c, 0, 77, 0
2, 160546, Note_on_c, 0, 38, 73
2, 160546, Control_c, 0, 64, 0
2, 160546, Note_on_c, 0, 81, 99
2, 160548, Note_on_c, 0, 55, 0
2, 160548, Note_on_c, 0, 82, 0
2, 160549, Note_on_c, 0, 62, 0
2, 160550, Note_on_c, 0, 58, 0
2, 160551, Note_on_c, 0, 67, 0
2, 160552, Note_on_c, 0, 79, 0
2, 160552, Note_on_c, 0, 74, 78
2, 160554, Note_on_c, 0, 43, 0
2, 160554, Note_on_c, 0, 69, 86
2, 160565, Note_on_c, 0, 70, 0
2, 160611, Note_on_c, 0, 86, 0
2, 160619, Control_c, 0, 64, 127
2, 160692, Note_on_c, 0, 77, 79
2, 160711, Note_on_c, 0, 45, 58
2, 160841, Note_on_c, 0, 50, 64
2, 160868, Note_on_c, 0, 76, 65
2, 160980, Note_on_c, 0, 77, 0
2, 160988, Note_on_c, 0, 52, 65
2, 160991, Note_on_c, 0, 77, 70
2, 161118, Note_on_c, 0, 69, 0
2, 161124, Note_on_c, 0, 69, 73
2, 161151, Note_on_c, 0, 53, 60
2, 161256, Note_on_c, 0, 74, 0
2, 161266, Note_on_c, 0, 74, 76
2, 161291, Note_on_c, 0, 57, 57
2, 161414, Note_on_c, 0, 79, 97
2, 161421, Note_on_c, 0, 67, 75
2, 161422, Note_on_c, 0, 62, 58
2, 161548, Note_on_c, 0, 77, 0
2, 161553, Note_on_c, 0, 77, 92
2, 161694, Note_on_c, 0, 79, 0
2, 161702, Note_on_c, 0, 52, 0
2, 161705, Note_on_c, 0, 79, 100
2, 161712, Note_on_c, 0, 52, 81
2, 161712, Control_c, 0, 64, 0
2, 161713, Note_on_c, 0, 40, 74
2, 161717, Note_on_c, 0, 38, 0
2, 161718, Note_on_c, 0, 76, 0
2, 161718, Note_on_c, 0, 53, 0
2, 161719, Note_on_c, 0, 62, 0
2, 161719, Note_on_c, 0, 74, 0
2, 161719, Note_on_c, 0, 67, 0
2, 161719, Note_on_c, 0, 77, 0
2, 161719, Note_on_c, 0, 81, 0
2, 161719, Note_on_c, 0, 50, 0
2, 161719, Note_on_c, 0, 69, 0
2, 161719, Note_on_c, 0, 45, 0
2, 161740, Note_on_c, 0, 57, 0
2, 161832, Control_c, 0, 64, 127
2, 161869, Note_on_c, 0, 74, 71
2, 162030, Note_on_c, 0, 70, 57
2, 162140, Note_on_c, 0, 74, 0
2, 162150, Note_on_c, 0, 74, 59
2, 162328, Note_on_c, 0, 67, 65
2, 162330, Note_on_c, 0, 62, 57
2, 162331, Note_on_c, 0, 58, 56
2, 162470, Note_on_c, 0, 70, 0
2, 162474, Note_on_c, 0, 70, 77
2, 162616, Note_on_c, 0, 74, 0
2, 162621, Note_on_c, 0, 74, 76
2, 162754, Note_on_c, 0, 40, 0
2, 162754, Note_on_c, 0, 79, 0
2, 162763, Note_on_c, 0, 79, 81
2, 162911, Control_c, 0, 64, 0
2, 162915, Note_on_c, 0, 62, 0
2, 162915, Note_on_c, 0, 79, 0
2, 162916, Note_on_c, 0, 58, 0
2, 162916, Note_on_c, 0, 70, 0
2, 162916, Note_on_c, 0, 67, 0
2, 162918, Note_on_c, 0, 81, 93
2, 162918, Note_on_c, 0, 45, 64
2, 162923, Note_on_c, 0, 52, 0
2, 162931, Note_on_c, 0, 74, 0
2, 162935, Note_on_c, 0, 76, 67
2, 162935, Note_on_c, 0, 69, 65
2, 162937, Note_on_c, 0, 74, 60
2, 163008, Control_c, 0, 64, 127
2, 163104, Note_on_c, 0, 52, 55
2, 163234, Note_on_c, 0, 57, 59
2, 163374, Note_on_c, 0, 59, 55
2, 163540, Note_on_c, 0, 62, 55
2, 163683, Note_on_c, 0, 57, 0
2, 163691, Note_on_c, 0, 57, 52
2, 163822, Note_on_c, 0, 59, 0
2, 163831, Note_on_c, 0, 59, 56
2, 163983, Note_on_c, 0, 62, 0
2, 163994, Note_on_c, 0, 62, 49
2, 164149, Note_on_c, 0, 61, 57
2, 164422, Control_c, 0, 64, 0
2, 164457, Note_on_c, 0, 64, 55
2, 164459, Note_on_c, 0, 45, 0
2, 164509, Note_on_c, 0, 62, 0
2, 164510, Note_on_c, 0, 59, 0
2, 164520, Note_on_c, 0, 52, 0
2, 164759, Note_on_c, 0, 69, 0
2, 164763, Note_on_c, 0, 69, 63
2, 164797, Note_on_c, 0, 74, 0
2, 164881, Control_c, 0, 64, 127
2, 165095, Note_on_c, 0, 73, 66
2, 165473, Note_on_c, 0, 69, 0
2, 165475, Note_on_c, 0, 74, 67
2, 165483, Note_on_c, 0, 69, 60
2, 165484, Note_on_c, 0, 65, 50
2, 165485, Note_on_c, 0, 58, 44
2, 165510, Control_c, 0, 64, 0
2, 165511, Note_on_c, 0, 76, 0
2, 165513, Note_on_c, 0, 64, 0
2, 165513, Note_on_c, 0, 61, 0
2, 165514, Note_on_c, 0, 73, 0
2, 165519, Note_on_c, 0, 81, 0
2, 165634, Note_on_c, 0, 57, 0
2, 166087, Control_c, 0, 64, 127
2, 166834, Note_on_c, 0, 86, 77
2, 166837, Control_c, 0, 64, 0
2, 166838, Note_on_c, 0, 77, 61
2, 166838, Note_on_c, 0, 82, 54
2, 166878, Control_c, 0, 64, 127
2, 167477, Note_on_c, 0, 74, 0
2, 167483, Note_on_c, 0, 74, 72
2, 167488, Note_on_c, 0, 88, 85
2, 167489, Control_c, 0, 64, 0
2, 167492, Note_on_c, 0, 70, 67
2, 167516, Control_c, 0, 64, 127
2, 167804, Note_on_c, 0, 89, 99
2, 168138, Note_on_c, 0, 91, 97
2, 168153, Note_on_c, 0, 88, 0
2, 168158, Note_on_c, 0, 72, 67
2, 168158, Note_on_c, 0, 67, 65
2, 168164, Note_on_c, 0, 88, 66
2, 168187, Note_on_c, 0, 82, 0
2, 168187, Note_on_c, 0, 74, 0
2, 168187, Control_c, 0, 64, 0
2, 168188, Note_on_c, 0, 70, 0
2, 168188, Note_on_c, 0, 89, 0
2, 168189, Note_on_c, 0, 77, 0
2, 168192, Note_on_c, 0, 58, 0
2, 168199, Note_on_c, 0, 65, 0
2, 168199, Note_on_c, 0, 69, 0
2, 168207, Note_on_c, 0, 86, 0
2, 168322, Control_c, 0, 64, 127
2, 168798, Note_on_c, 0, 64, 57
2, 169443, Note_on_c, 0, 72, 0
2, 169446, Note_on_c, 0, 76, 66
2, 169447, Note_on_c, 0, 72, 56
2, 170058, Note_on_c, 0, 72, 0
2, 170065, Note_on_c, 0, 72, 65
2, 170065, Note_on_c, 0, 67, 0
2, 170070, Note_on_c, 0, 67, 57
2, 170223, Note_on_c, 0, 84, 80
2, 170355, Note_on_c, 0, 86, 92
2, 170396, Note_on_c, 0, 84, 0
2, 170400, Note_on_c, 0, 84, 82
2, 170434, Control_c, 0, 64, 0
2, 170489, Note_on_c, 0, 83, 82
2, 170519, Control_c, 0, 64, 127
2, 170549, Note_on_c, 0, 84, 0
2, 170553, Note_on_c, 0, 84, 83
2, 170681, Control_c, 0, 64, 0
2, 170682, Note_on_c, 0, 76, 0
2, 170683, Note_on_c, 0, 83, 0
2, 170683, Note_on_c, 0, 64, 0
2, 170684, Note_on_c, 0, 91, 0
2, 170695, Note_on_c, 0, 72, 0
2, 170697, Note_on_c, 0, 96, 104
2, 170703, Note_on_c, 0, 67, 0
2, 170703, Note_on_c, 0, 86, 0
2, 170711, Note_on_c, 0, 88, 0
2, 170711, Note_on_c, 0, 67, 63
2, 170715, Note_on_c, 0, 88, 79
2, 170795, Control_c, 0, 64, 127
2, 171350, Note_on_c, 0, 64, 54
2, 171932, Note_on_c, 0, 84, 0
2, 171958, Note_on_c, 0, 96, 0
2, 171960, Note_on_c, 0, 88, 0
2, 171960, Note_on_c, 0, 73, 62
2, 171961, Control_c, 0, 64, 0
2, 171962, Note_on_c, 0, 67, 0
2, 171970, Note_on_c, 0, 61, 49
2, 171970, Note_on_c, 0, 64, 0
2, 171971, Note_on_c, 0, 67, 55
2, 171977, Note_on_c, 0, 64, 56
2, 172108, Control_c, 0, 64, 127
2, 172450, Note_on_c, 0, 94, 91
2, 172488, Note_on_c, 0, 91, 76
2, 172598, Note_on_c, 0, 74, 79
2, 172909, Note_on_c, 0, 93, 97
2, 172920, Note_on_c, 0, 89, 86
2, 173207, Note_on_c, 0, 91, 0
2, 173217, Note_on_c, 0, 91, 98
2, 173222, Note_on_c, 0, 61, 0
2, 173227, Note_on_c, 0, 76, 76
2, 173233, Note_on_c, 0, 88, 75
2, 173236, Note_on_c, 0, 69, 68
2, 173239, Note_on_c, 0, 65, 43
2, 173244, Control_c, 0, 64, 0
2, 173247, Note_on_c, 0, 94, 0
2, 173248, Note_on_c, 0, 62, 47
2, 173250, Note_on_c, 0, 64, 0
2, 173250, Note_on_c, 0, 74, 0
2, 173251, Note_on_c, 0, 67, 0
2, 173251, Note_on_c, 0, 89, 0
2, 173253, Note_on_c, 0, 73, 0
2, 173329, Control_c, 0, 64, 127
2, 173698, Note_on_c, 0, 93, 0
2, 173706, Note_on_c, 0, 93, 95
2, 173724, Note_on_c, 0, 89, 80
2, 173839, Note_on_c, 0, 77, 70
2, 174151, Note_on_c, 0, 93, 0
2, 174155, Note_on_c, 0, 93, 88
2, 174159, Note_on_c, 0, 89, 0
2, 174163, Note_on_c, 0, 89, 80
2, 174489, Note_on_c, 0, 76, 0
2, 174491, Note_on_c, 0, 79, 67
2, 174491, Control_c, 0, 64, 0
2, 174492, Note_on_c, 0, 89, 0
2, 174493, Note_on_c, 0, 62, 0
2, 174494, Note_on_c, 0, 77, 0
2, 174494, Note_on_c, 0, 60, 52
2, 174495, Note_on_c, 0, 65, 0
2, 174497, Note_on_c, 0, 69, 0
2, 174497, Note_on_c, 0, 76, 55
2, 174498, Note_on_c, 0, 93, 0
2, 174504, Note_on_c, 0, 91, 0
2, 174506, Note_on_c, 0, 69, 55
2, 174512, Note_on_c, 0, 88, 0
2, 174643, Control_c, 0, 64, 127
2, 175124, Note_on_c, 0, 81, 61
2, 175126, Note_on_c, 0, 77, 53
2, 175774, Note_on_c, 0, 86, 75
2, 175779, Note_on_c, 0, 77, 0
2, 175781, Note_on_c, 0, 46, 49
2, 175784, Note_on_c, 0, 77, 52
2, 175800, Control_c, 0, 64, 0
2, 175800, Note_on_c, 0, 60, 0
2, 175801, Note_on_c, 0, 69, 0
2, 175802, Note_on_c, 0, 79, 0
2, 175802, Note_on_c, 0, 81, 0
2, 175803, Note_on_c, 0, 76, 0
2, 175810, Note_on_c, 0, 81, 50
2, 175910, Control_c, 0, 64, 127
2, 176127, Note_on_c, 0, 53, 46
2, 176254, Note_on_c, 0, 58, 49
2, 176421, Note_on_c, 0, 62, 55
2, 176555, Note_on_c, 0, 58, 0
2, 176565, Note_on_c, 0, 58, 49
2, 176724, Note_on_c, 0, 53, 0
2, 176729, Note_on_c, 0, 53, 56
2, 176847, Note_on_c, 0, 58, 0
2, 176855, Note_on_c, 0, 58, 50
2, 177010, Note_on_c, 0, 74, 85
2, 177032, Note_on_c, 0, 69, 67
2, 177035, Note_on_c, 0, 65, 46
2, 177162, Note_on_c, 0, 58, 0
2, 177166, Note_on_c, 0, 58, 48
2, 177323, Note_on_c, 0, 53, 0
2, 177331, Note_on_c, 0, 53, 58
2, 177461, Note_on_c, 0, 58, 0
2, 177466, Note_on_c, 0, 58, 55
2, 177610, Note_on_c, 0, 76, 89
2, 177618, Note_on_c, 0, 72, 78
2, 177623, Note_on_c, 0, 62, 0
2, 177628, Note_on_c, 0, 62, 71
2, 177753, Note_on_c, 0, 58, 0
2, 177762, Note_on_c, 0, 58, 61
2, 177763, Note_on_c, 0, 46, 0
2, 177907, Note_on_c, 0, 53, 0
2, 177907, Note_on_c, 0, 77, 0
2, 177913, Note_on_c, 0, 53, 62
2, 177914, Note_on_c, 0, 74, 0
2, 177918, Note_on_c, 0, 77, 91
2, 177919, Note_on_c, 0, 74, 77
2, 178030, Note_on_c, 0, 58, 0
2, 178034, Note_on_c, 0, 58, 60
2, 178222, Note_on_c, 0, 72, 0
2, 178227, Note_on_c, 0, 72, 92
2, 178248, Note_on_c, 0, 64, 69
2, 178248, Note_on_c, 0, 45, 67
2, 178250, Note_on_c, 0, 67, 62
2, 178255, Note_on_c, 0, 69, 0
2, 178256, Note_on_c, 0, 53, 0
2, 178256, Note_on_c, 0, 58, 0
2, 178256, Note_on_c, 0, 76, 0
2, 178256, Note_on_c, 0, 65, 0
2, 178256, Note_on_c, 0, 62, 0
2, 178256, Note_on_c, 0, 74, 0
2, 178256, Note_on_c, 0, 86, 0
2, 178257, Note_on_c, 0, 81, 0
2, 178260, Control_c, 0, 64, 0
2, 178275, Note_on_c, 0, 77, 0
2, 178368, Control_c, 0, 64, 127
2, 178529, Note_on_c, 0, 52, 67
2, 178680, Note_on_c, 0, 55, 63
2, 178821, Note_on_c, 0, 64, 0
2, 178827, Note_on_c, 0, 64, 80
2, 178832, Note_on_c, 0, 60, 72
2, 178967, Note_on_c, 0, 55, 0
2, 178973, Note_on_c, 0, 55, 65
2, 179097, Note_on_c, 0, 52, 0
2, 179105, Note_on_c, 0, 52, 66
2, 179258, Note_on_c, 0, 55, 0
2, 179262, Note_on_c, 0, 55, 64
2, 179408, Note_on_c, 0, 50, 73
2, 179412, Note_on_c, 0, 65, 80
2, 179413, Note_on_c, 0, 62, 75
2, 179414, Control_c, 0, 64, 0
2, 179415, Note_on_c, 0, 52, 0
2, 179415, Note_on_c, 0, 67, 0
2, 179415, Note_on_c, 0, 64, 0
2, 179416, Note_on_c, 0, 60, 0
2, 179416, Note_on_c, 0, 55, 0
2, 179416, Note_on_c, 0, 45, 0
2, 179450, Note_on_c, 0, 72, 0
2, 179496, Control_c, 0, 64, 127
2, 179715, Note_on_c, 0, 74, 93
2, 179721, Note_on_c, 0, 57, 73
2, 179865, Note_on_c, 0, 62, 0
2, 179870, Note_on_c, 0, 62, 78
2, 180003, Note_on_c, 0, 74, 0
2, 180011, Note_on_c, 0, 65, 0
2, 180011, Note_on_c, 0, 77, 102
2, 180015, Note_on_c, 0, 74, 92
2, 180019, Note_on_c, 0, 65, 73
2, 180157, Note_on_c, 0, 62, 0
2, 180164, Note_on_c, 0, 62, 72
2, 180311, Note_on_c, 0, 57, 0
2, 180313, Note_on_c, 0, 79, 99
2, 180314, Note_on_c, 0, 76, 90
2, 180321, Note_on_c, 0, 57, 66
2, 180449, Note_on_c, 0, 62, 0
2, 180458, Note_on_c, 0, 62, 76
2, 180596, Note_on_c, 0, 62, 0
2, 180596, Note_on_c, 0, 57, 0
2, 180597, Note_on_c, 0, 50, 0
2, 180597, Note_on_c, 0, 76, 0
2, 180597, Note_on_c, 0, 65, 0
2, 180597, Note_on_c, 0, 79, 0
2, 180598, Control_c, 0, 64, 0
2, 180613, Note_on_c, 0, 81, 101
2, 180618, Note_on_c, 0, 74, 0
2, 180618, Note_on_c, 0, 77, 0
2, 180624, Note_on_c, 0, 74, 88
2, 180626, Note_on_c, 0, 77, 84
2, 180664, Control_c, 0, 64, 127
2, 180945, Note_on_c, 0, 43, 74
2, 181030, Note_on_c, 0, 50, 72
2, 181083, Note_on_c, 0, 53, 83
2, 181176, Note_on_c, 0, 57, 83
2, 181230, Note_on_c, 0, 69, 104
2, 181233, Note_on_c, 0, 65, 88
2, 181235, Note_on_c, 0, 62, 88
2, 181236, Note_on_c, 0, 58, 95
2, 181532, Note_on_c, 0, 77, 0
2, 181542, Note_on_c, 0, 77, 100
2, 181590, Control_c, 0, 64, 0
2, 181592, Note_on_c, 0, 69, 0
2, 181593, Note_on_c, 0, 74, 0
2, 181593, Note_on_c, 0, 77, 0
2, 181594, Note_on_c, 0, 50, 0
2, 181594, Note_on_c, 0, 62, 0
2, 181594, Note_on_c, 0, 81, 0
2, 181595, Note_on_c, 0, 57, 0
2, 181595, Note_on_c, 0, 53, 0
2, 181595, Note_on_c, 0, 65, 0
2, 181595, Note_on_c, 0, 43, 0
2, 181595, Note_on_c, 0, 58, 0
2, 181683, Note_on_c, 0, 79, 99
2, 181764, Note_on_c, 0, 79, 0
2, 181839, Control_c, 0, 64, 127
2, 181842, Note_on_c, 0, 81, 108
2, 181844, Note_on_c, 0, 77, 96
2, 181845, Note_on_c, 0, 72, 96
2, 182140, Note_on_c, 0, 45, 80
2, 182199, Note_on_c, 0, 48, 79
2, 182274, Note_on_c, 0, 53, 82
2, 182357, Note_on_c, 0, 55, 83
2, 182421, Note_on_c, 0, 57, 97
2, 182422, Note_on_c, 0, 65, 92
2, 182423, Note_on_c, 0, 69, 104
2, 182425, Note_on_c, 0, 60, 76
2, 182722, Note_on_c, 0, 77, 0
2, 182726, Note_on_c, 0, 77, 104
2, 182786, Control_c, 0, 64, 0
2, 182787, Note_on_c, 0, 48, 0
2, 182787, Note_on_c, 0, 55, 0
2, 182787, Note_on_c, 0, 69, 0
2, 182787, Note_on_c, 0, 57, 0
2, 182787, Note_on_c, 0, 81, 0
2, 182787, Note_on_c, 0, 72, 0
2, 182787, Note_on_c, 0, 65, 0
2, 182787, Note_on_c, 0, 53, 0
2, 182788, Note_on_c, 0, 77, 0
2, 182788, Note_on_c, 0, 60, 0
2, 182788, Note_on_c, 0, 45, 0
2, 182869, Note_on_c, 0, 79, 102
2, 182943, Note_on_c, 0, 79, 0
2, 183029, Control_c, 0, 64, 127
2, 183031, Note_on_c, 0, 81, 108
2, 183034, Note_on_c, 0, 74, 100
2, 183034, Note_on_c, 0, 77, 98
2, 183322, Note_on_c, 0, 47, 92
2, 183378, Note_on_c, 0, 50, 77
2, 183448, Note_on_c, 0, 55, 82
2, 183522, Note_on_c, 0, 59, 84
2, 183593, Note_on_c, 0, 62, 101
2, 183667, Note_on_c, 0, 59, 0
2, 183672, Note_on_c, 0, 59, 87
2, 183736, Note_on_c, 0, 62, 0
2, 183746, Note_on_c, 0, 62, 80
2, 183816, Note_on_c, 0, 67, 88
2, 183900, Note_on_c, 0, 71, 101
2, 183951, Note_on_c, 0, 67, 0
2, 183962, Note_on_c, 0, 67, 87
2, 184035, Note_on_c, 0, 71, 0
2, 184042, Note_on_c, 0, 71, 103
2, 184120, Note_on_c, 0, 74, 0
2, 184131, Note_on_c, 0, 74, 102
2, 184182, Note_on_c, 0, 79, 108
2, 184504, Note_on_c, 0, 74, 0
2, 184514, Note_on_c, 0, 74, 105
2, 184650, Note_on_c, 0, 67, 0
2, 184654, Note_on_c, 0, 67, 96
2, 184810, Note_on_c, 0, 76, 105
2, 184957, Note_on_c, 0, 62, 0
2, 184961, Note_on_c, 0, 62, 100
2, 185111, Note_on_c, 0, 77, 0
2, 185115, Note_on_c, 0, 77, 103
2, 185241, Note_on_c, 0, 59, 0
2, 185252, Note_on_c, 0, 59, 88
2, 185410, Note_on_c, 0, 77, 0
2, 185410, Note_on_c, 0, 81, 0
2, 185417, Note_on_c, 0, 81, 106
2, 185418, Note_on_c, 0, 74, 0
2, 185420, Note_on_c, 0, 77, 93
2, 185420, Note_on_c, 0, 69, 104
2, 185423, Note_on_c, 0, 74, 92
2, 185428, Note_on_c, 0, 43, 81
2, 185438, Note_on_c, 0, 59, 0
2, 185438, Note_on_c, 0, 76, 0
2, 185439, Note_on_c, 0, 47, 0
2, 185439, Note_on_c, 0, 71, 0
2, 185441, Note_on_c, 0, 79, 0
2, 185441, Note_on_c, 0, 62, 0
2, 185442, Note_on_c, 0, 67, 0
2, 185442, Note_on_c, 0, 55, 0
2, 185442, Note_on_c, 0, 50, 0
2, 185443, Control_c, 0, 64, 0
2, 185510, Control_c, 0, 64, 127
2, 185736, Note_on_c, 0, 50, 67
2, 185879, Note_on_c, 0, 53, 66
2, 186030, Note_on_c, 0, 62, 92
2, 186037, Note_on_c, 0, 58, 82
2, 186190, Note_on_c, 0, 55, 70
2, 186316, Note_on_c, 0, 58, 0
2, 186322, Note_on_c, 0, 58, 77
2, 186455, Note_on_c, 0, 62, 0
2, 186462, Note_on_c, 0, 62, 93
2, 186608, Note_on_c, 0, 62, 0
2, 186612, Note_on_c, 0, 62, 86
2, 186613, Note_on_c, 0, 65, 98
2, 186620, Control_c, 0, 64, 0
2, 186639, Control_c, 0, 64, 127
2, 186762, Note_on_c, 0, 55, 0
2, 186773, Note_on_c, 0, 55, 92
2, 186908, Note_on_c, 0, 58, 0
2, 186912, Note_on_c, 0, 58, 87
2, 187046, Note_on_c, 0, 62, 0
2, 187053, Note_on_c, 0, 62, 81
2, 187192, Note_on_c, 0, 69, 0
2, 187200, Note_on_c, 0, 65, 0
2, 187202, Note_on_c, 0, 69, 107
2, 187204, Note_on_c, 0, 65, 99
2, 187345, Note_on_c, 0, 55, 0
2, 187351, Note_on_c, 0, 55, 95
2, 187491, Note_on_c, 0, 58, 0
2, 187501, Note_on_c, 0, 58, 86
2, 187503, Note_on_c, 0, 82, 106
2, 187505, Note_on_c, 0, 70, 106
2, 187599, Note_on_c, 0, 62, 0
2, 187608, Note_on_c, 0, 62, 90
2, 187656, Note_on_c, 0, 79, 109
2, 187657, Note_on_c, 0, 67, 102
2, 187663, Note_on_c, 0, 72, 93
2, 187664, Note_on_c, 0, 76, 99
2, 187750, Note_on_c, 0, 53, 0
2, 187750, Note_on_c, 0, 50, 0
2, 187751, Note_on_c, 0, 55, 0
2, 187751, Note_on_c, 0, 70, 0
2, 187751, Note_on_c, 0, 62, 0
2, 187751, Note_on_c, 0, 82, 0
2, 187752, Note_on_c, 0, 65, 0
2, 187752, Note_on_c, 0, 58, 0
2, 187752, Control_c, 0, 64, 0
2, 187752, Note_on_c, 0, 43, 0
2, 187760, Note_on_c, 0, 74, 0
2, 187760, Note_on_c, 0, 77, 0
2, 187760, Note_on_c, 0, 81, 0
2, 187768, Note_on_c, 0, 69, 0
2, 187803, Note_on_c, 0, 48, 105
2, 187804, Note_on_c, 0, 36, 95
2, 187822, Control_c, 0, 64, 127
2, 187992, Note_on_c, 0, 60, 69
2, 188098, Note_on_c, 0, 48, 0
2, 188104, Note_on_c, 0, 48, 70
2, 188106, Note_on_c, 0, 36, 0
2, 188110, Note_on_c, 0, 36, 67
2, 188115, Note_on_c, 0, 65, 86
2, 188252, Note_on_c, 0, 67, 0
2, 188255, Note_on_c, 0, 58, 92
2, 188257, Note_on_c, 0, 67, 98
2, 188259, Note_on_c, 0, 64, 77
2, 188259, Note_on_c, 0, 55, 87
2, 188262, Note_on_c, 0, 53, 80
2, 188405, Note_on_c, 0, 48, 0
2, 188405, Note_on_c, 0, 60, 0
2, 188405, Note_on_c, 0, 72, 0
2, 188413, Note_on_c, 0, 65, 0
2, 188413, Note_on_c, 0, 67, 0
2, 188416, Note_on_c, 0, 72, 110
2, 188416, Note_on_c, 0, 48, 82
2, 188417, Note_on_c, 0, 60, 100
2, 188418, Note_on_c, 0, 67, 97
2, 188419, Note_on_c, 0, 65, 88
2, 188701, Note_on_c, 0, 43, 96
2, 188706, Note_on_c, 0, 31, 78
2, 188712, Note_on_c, 0, 31, 0
2, 188858, Note_on_c, 0, 36, 0
2, 188858, Note_on_c, 0, 48, 0
2, 188863, Note_on_c, 0, 48, 107
2, 188865, Note_on_c, 0, 36, 104
2, 188865, Control_c, 0, 64, 0
2, 188868, Note_on_c, 0, 53, 0
2, 188869, Note_on_c, 0, 65, 0
2, 188869, Note_on_c, 0, 60, 0
2, 188869, Note_on_c, 0, 76, 0
2, 188869, Note_on_c, 0, 58, 0
2, 188870, Note_on_c, 0, 55, 0
2, 188870, Note_on_c, 0, 67, 0
2, 188870, Note_on_c, 0, 72, 0
2, 188870, Note_on_c, 0, 79, 0
2, 188870, Note_on_c, 0, 43, 0
2, 188874, Note_on_c, 0, 64, 0
2, 188966, Control_c, 0, 64, 127
2, 189064, Note_on_c, 0, 60, 83
2, 189128, Note_on_c, 0, 62, 79
2, 189179, Note_on_c, 0, 64, 87
2, 189268, Note_on_c, 0, 65, 87
2, 189312, Note_on_c, 0, 36, 0
2, 189312, Note_on_c, 0, 48, 0
2, 189318, Note_on_c, 0, 48, 94
2, 189320, Note_on_c, 0, 67, 88
2, 189322, Note_on_c, 0, 36, 77
2, 189371, Note_on_c, 0, 69, 86
2, 189415, Note_on_c, 0, 70, 95
2, 189445, Note_on_c, 0, 53, 83
2, 189489, Note_on_c, 0, 72, 95
2, 189542, Note_on_c, 0, 74, 99
2, 189558, Note_on_c, 0, 55, 88
2, 189559, Note_on_c, 0, 58, 87
2, 189592, Note_on_c, 0, 76, 100
2, 189661, Note_on_c, 0, 77, 91
2, 189712, Note_on_c, 0, 79, 90
2, 189739, Note_on_c, 0, 81, 93
2, 189777, Note_on_c, 0, 82, 94
2, 189813, Note_on_c, 0, 84, 93
2, 189841, Note_on_c, 0, 36, 0
2, 189841, Note_on_c, 0, 48, 0
2, 189847, Note_on_c, 0, 48, 96
2, 189853, Note_on_c, 0, 36, 85
2, 189853, Note_on_c, 0, 86, 97
2, 189901, Note_on_c, 0, 88, 92
2, 189946, Note_on_c, 0, 89, 100
2, 189982, Note_on_c, 0, 91, 99
2, 190009, Note_on_c, 0, 93, 89
2, 190050, Note_on_c, 0, 94, 90
2, 190133, Note_on_c, 0, 84, 0
2, 190133, Note_on_c, 0, 91, 0
2, 190140, Note_on_c, 0, 84, 111
2, 190141, Note_on_c, 0, 36, 0
2, 190142, Note_on_c, 0, 96, 109
2, 190144, Note_on_c, 0, 24, 96
2, 190144, Note_on_c, 0, 91, 107
2, 190145, Note_on_c, 0, 48, 0
2, 190145, Note_on_c, 0, 82, 0
2, 190145, Note_on_c, 0, 86, 0
2, 190145, Note_on_c, 0, 72, 0
2, 190145, Note_on_c, 0, 53, 0
2, 190145, Note_on_c, 0, 81, 0
2, 190145, Note_on_c, 0, 77, 0
2, 190145, Note_on_c, 0, 58, 0
2, 190145, Note_on_c, 0, 70, 0
2, 190145, Note_on_c, 0, 69, 0
2, 190145, Note_on_c, 0, 74, 0
2, 190145, Note_on_c, 0, 76, 0
2, 190146, Note_on_c, 0, 60, 0
2, 190146, Note_on_c, 0, 62, 0
2, 190146, Note_on_c, 0, 93, 0
2, 190146, Note_on_c, 0, 55, 0
2, 190146, Note_on_c, 0, 89, 0
2, 190146, Note_on_c, 0, 36, 95
2, 190146, Control_c, 0, 64, 0
2, 190146, Note_on_c, 0, 64, 0
2, 190146, Note_on_c, 0, 79, 0
2, 190156, Note_on_c, 0, 67, 0
2, 190164, Note_on_c, 0, 65, 0
2, 190179, Control_c, 0, 64, 127
2, 190287, Note_on_c, 0, 24, 0
2, 190287, Note_on_c, 0, 84, 0
2, 190287, Note_on_c, 0, 91, 0
2, 190287, Note_on_c, 0, 96, 0
2, 190295, Note_on_c, 0, 36, 0
2, 190295, Note_on_c, 0, 91, 101
2, 190295, Note_on_c, 0, 84, 103
2, 190296, Note_on_c, 0, 96, 105
2, 190297, Note_on_c, 0, 24, 93
2, 190302, Note_on_c, 0, 88, 0
2, 190305, Note_on_c, 0, 36, 93
2, 190307, Note_on_c, 0, 88, 74
2, 190425, Note_on_c, 0, 94, 0
2, 190425, Note_on_c, 0, 96, 0
2, 190433, Note_on_c, 0, 84, 0
2, 190433, Note_on_c, 0, 91, 0
2, 190436, Note_on_c, 0, 96, 106
2, 190437, Note_on_c, 0, 91, 106
2, 190438, Note_on_c, 0, 84, 107
2, 190440, Note_on_c, 0, 24, 0
2, 190440, Note_on_c, 0, 36, 0
2, 190450, Note_on_c, 0, 24, 98
2, 190450, Note_on_c, 0, 36, 99
2, 190686, Control_c, 0, 64, 0
2, 190730, Note_on_c, 0, 91, 0
2, 190749, Note_on_c, 0, 36, 0
2, 190855, Note_on_c, 0, 88, 0
2, 190917, Note_on_c, 0, 84, 0
2, 190917, Note_on_c, 0, 96, 0
2, 191132, Note_on_c, 0, 24, 0
2, 192153, Note_on_c, 0, 36, 93
2, 192168, Control_c, 0, 64, 127
2, 192195, Note_on_c, 0, 43, 75
2, 192268, Note_on_c, 0, 48, 96
2, 192344, Note_on_c, 0, 52, 97
2, 192394, Note_on_c, 0, 55, 101
2, 192466, Note_on_c, 0, 60, 111
2, 192610, Note_on_c, 0, 52, 0
2, 192610, Note_on_c, 0, 48, 0
2, 192610, Note_on_c, 0, 36, 0
2, 192611, Note_on_c, 0, 43, 0
2, 192611, Note_on_c, 0, 60, 0
2, 192613, Note_on_c, 0, 55, 0
2, 192613, Control_c, 0, 64, 0
2, 192757, Note_on_c, 0, 69, 110
2, 192757, Note_on_c, 0, 41, 99
2, 192758, Note_on_c, 0, 29, 97
2, 192759, Note_on_c, 0, 65, 100
2, 192759, Note_on_c, 0, 60, 91
2, 192814, Control_c, 0, 64, 127
2, 192829, Note_on_c, 0, 60, 0
2, 193011, Note_on_c, 0, 60, 75
2, 193052, Note_on_c, 0, 65, 0
2, 193056, Note_on_c, 0, 65, 80
2, 193089, Note_on_c, 0, 67, 89
2, 193105, Note_on_c, 0, 69, 0
2, 193111, Note_on_c, 0, 69, 91
2, 193188, Note_on_c, 0, 72, 88
2, 193249, Note_on_c, 0, 77, 96
2, 193306, Note_on_c, 0, 79, 85
2, 193351, Note_on_c, 0, 81, 98
2, 193387, Note_on_c, 0, 84, 106
2, 193459, Note_on_c, 0, 72, 0
2, 193469, Note_on_c, 0, 72, 90
2, 193528, Note_on_c, 0, 77, 0
2, 193534, Note_on_c, 0, 77, 89
2, 193597, Note_on_c, 0, 79, 0
2, 193604, Note_on_c, 0, 79, 86
2, 193635, Note_on_c, 0, 81, 0
2, 193646, Note_on_c, 0, 81, 93
2, 193663, Note_on_c, 0, 70, 106
2, 193720, Note_on_c, 0, 84, 0
2, 193726, Note_on_c, 0, 84, 96
2, 193796, Note_on_c, 0, 89, 101
2, 193812, Note_on_c, 0, 69, 0
2, 193819, Note_on_c, 0, 69, 101
2, 193857, Note_on_c, 0, 91, 102
2, 193901, Note_on_c, 0, 93, 72
2, 193955, Note_on_c, 0, 96, 108
2, 193966, Note_on_c, 0, 60, 0
2, 193966, Note_on_c, 0, 65, 0
2, 193972, Note_on_c, 0, 65, 101
2, 193976, Note_on_c, 0, 60, 96
2, 194019, Note_on_c, 0, 93, 0
2, 194024, Note_on_c, 0, 93, 61
2, 194027, Note_on_c, 0, 84, 0
2, 194033, Note_on_c, 0, 84, 74
2, 194065, Note_on_c, 0, 91, 0
2, 194071, Note_on_c, 0, 91, 92
2, 194119, Note_on_c, 0, 89, 0
2, 194124, Note_on_c, 0, 89, 88
2, 194181, Note_on_c, 0, 84, 0
2, 194192, Note_on_c, 0, 84, 82
2, 194273, Note_on_c, 0, 81, 0
2, 194277, Note_on_c, 0, 81, 94
2, 194334, Note_on_c, 0, 79, 0
2, 194345, Note_on_c, 0, 79, 85
2, 194396, Note_on_c, 0, 77, 0
2, 194404, Note_on_c, 0, 77, 87
2, 194472, Note_on_c, 0, 72, 0
2, 194477, Note_on_c, 0, 72, 87
2, 194534, Note_on_c, 0, 84, 0
2, 194545, Note_on_c, 0, 84, 105
2, 194595, Note_on_c, 0, 81, 0
2, 194600, Note_on_c, 0, 81, 96
2, 194641, Note_on_c, 0, 79, 0
2, 194648, Note_on_c, 0, 79, 86
2, 194688, Note_on_c, 0, 77, 0
2, 194696, Note_on_c, 0, 77, 88
2, 194749, Note_on_c, 0, 72, 0
2, 194755, Note_on_c, 0, 72, 91
2, 194833, Note_on_c, 0, 60, 0
2, 194839, Note_on_c, 0, 60, 106
2, 194841, Note_on_c, 0, 69, 0
2, 194845, Note_on_c, 0, 69, 79
2, 194863, Note_on_c, 0, 71, 63
2, 194887, Note_on_c, 0, 67, 0
2, 194894, Note_on_c, 0, 67, 77
2, 194910, Note_on_c, 0, 65, 0
2, 194915, Note_on_c, 0, 65, 32
2, 194979, Note_on_c, 0, 60, 0
2, 194989, Note_on_c, 0, 60, 58
2, 194989, Note_on_c, 0, 79, 0
2, 195148, Note_on_c, 0, 67, 0
2, 195149, Note_on_c, 0, 91, 0
2, 195151, Note_on_c, 0, 93, 0
2, 195151, Note_on_c, 0, 96, 0
2, 195151, Note_on_c, 0, 89, 0
2, 195151, Note_on_c, 0, 60, 0
2, 195152, Note_on_c, 0, 58, 103
2, 195152, Note_on_c, 0, 81, 0
2, 195152, Note_on_c, 0, 70, 0
2, 195152, Note_on_c, 0, 62, 99
2, 195152, Note_on_c, 0, 77, 0
2, 195152, Note_on_c, 0, 65, 0
2, 195153, Note_on_c, 0, 72, 0
2, 195153, Note_on_c, 0, 67, 102
2, 195155, Note_on_c, 0, 40, 94
2, 195160, Note_on_c, 0, 28, 85
2, 195162, Control_c, 0, 64, 0
2, 195164, Note_on_c, 0, 84, 0
2, 195171, Note_on_c, 0, 69, 0
2, 195179, Note_on_c, 0, 71, 0
2, 195187, Note_on_c, 0, 41, 0
2, 195210, Note_on_c, 0, 29, 0
2, 195233, Control_c, 0, 64, 127
2, 195348, Note_on_c, 0, 62, 0
2, 195353, Note_on_c, 0, 62, 70
2, 195386, Note_on_c, 0, 67, 0
2, 195396, Note_on_c, 0, 67, 71
2, 195444, Note_on_c, 0, 69, 84
2, 195503, Note_on_c, 0, 70, 93
2, 195590, Note_on_c, 0, 74, 87
2, 195657, Note_on_c, 0, 79, 93
2, 195708, Note_on_c, 0, 81, 85
2, 195752, Note_on_c, 0, 82, 94
2, 195755, Note_on_c, 0, 58, 0
2, 195759, Note_on_c, 0, 58, 91
2, 195765, Note_on_c, 0, 55, 78
2, 195785, Note_on_c, 0, 86, 102
2, 195847, Note_on_c, 0, 74, 0
2, 195856, Note_on_c, 0, 74, 87
2, 195901, Note_on_c, 0, 79, 0
2, 195909, Note_on_c, 0, 79, 87
2, 195947, Note_on_c, 0, 81, 0
2, 195956, Note_on_c, 0, 81, 92
2, 195993, Note_on_c, 0, 82, 0
2, 195999, Note_on_c, 0, 82, 89
2, 196062, Note_on_c, 0, 86, 0
2, 196073, Note_on_c, 0, 86, 95
2, 196121, Note_on_c, 0, 91, 94
2, 196175, Note_on_c, 0, 93, 89
2, 196256, Note_on_c, 0, 94, 96
2, 196331, Note_on_c, 0, 28, 0
2, 196343, Note_on_c, 0, 100, 108
2, 196343, Note_on_c, 0, 40, 0
2, 196343, Note_on_c, 0, 58, 0
2, 196344, Note_on_c, 0, 62, 0
2, 196344, Note_on_c, 0, 69, 0
2, 196345, Note_on_c, 0, 86, 0
2, 196345, Note_on_c, 0, 70, 0
2, 196345, Note_on_c, 0, 81, 0
2, 196345, Note_on_c, 0, 67, 0
2, 196345, Note_on_c, 0, 82, 0
2, 196346, Note_on_c, 0, 79, 0
2, 196346, Note_on_c, 0, 91, 0
2, 196347, Note_on_c, 0, 94, 0
2, 196349, Note_on_c, 0, 45, 104
2, 196349, Note_on_c, 0, 33, 94
2, 196349, Control_c, 0, 64, 0
2, 196354, Note_on_c, 0, 55, 0
2, 196362, Note_on_c, 0, 74, 0
2, 196400, Control_c, 0, 64, 127
2, 196429, Note_on_c, 0, 97, 98
2, 196527, Note_on_c, 0, 91, 90
2, 196580, Note_on_c, 0, 88, 81
2, 196655, Note_on_c, 0, 85, 90
2, 196712, Note_on_c, 0, 82, 75
2, 196769, Note_on_c, 0, 81, 87
2, 196809, Note_on_c, 0, 79, 79
2, 196885, Note_on_c, 0, 76, 79
2, 196930, Note_on_c, 0, 88, 0
2, 196935, Note_on_c, 0, 88, 100
2, 196939, Note_on_c, 0, 65, 97
2, 196946, Note_on_c, 0, 57, 90
2, 196946, Note_on_c, 0, 61, 90
2, 196999, Note_on_c, 0, 85, 0
2, 197006, Note_on_c, 0, 85, 90
2, 197045, Note_on_c, 0, 81, 0
2, 197055, Note_on_c, 0, 81, 87
2, 197076, Note_on_c, 0, 79, 0
2, 197087, Note_on_c, 0, 79, 60
2, 197145, Note_on_c, 0, 76, 0
2, 197152, Note_on_c, 0, 76, 85
2, 197251, Note_on_c, 0, 73, 88
2, 197252, Note_on_c, 0, 64, 103
2, 197289, Note_on_c, 0, 70, 74
2, 197327, Note_on_c, 0, 69, 80
2, 197387, Note_on_c, 0, 67, 74
2, 197514, Note_on_c, 0, 33, 0
2, 197529, Control_c, 0, 64, 0
2, 197531, Note_on_c, 0, 69, 0
2, 197531, Note_on_c, 0, 64, 0
2, 197531, Note_on_c, 0, 91, 0
2, 197531, Note_on_c, 0, 45, 0
2, 197531, Note_on_c, 0, 61, 0
2, 197531, Note_on_c, 0, 70, 0
2, 197531, Note_on_c, 0, 82, 0
2, 197532, Note_on_c, 0, 85, 0
2, 197532, Note_on_c, 0, 76, 0
2, 197532, Note_on_c, 0, 79, 0
2, 197532, Note_on_c, 0, 88, 0
2, 197532, Note_on_c, 0, 57, 0
2, 197532, Note_on_c, 0, 73, 0
2, 197532, Note_on_c, 0, 67, 0
2, 197532, Note_on_c, 0, 97, 0
2, 197533, Note_on_c, 0, 100, 0
2, 197537, Note_on_c, 0, 93, 0
2, 197544, Note_on_c, 0, 81, 0
2, 197552, Note_on_c, 0, 65, 0
2, 197556, Note_on_c, 0, 65, 103
2, 197561, Note_on_c, 0, 50, 100
2, 197561, Note_on_c, 0, 62, 102
2, 197562, Note_on_c, 0, 38, 94
2, 197571, Note_on_c, 0, 45, 77
2, 197598, Control_c, 0, 64, 127
2, 197740, Note_on_c, 0, 69, 86
2, 197815, Note_on_c, 0, 74, 90
2, 197863, Note_on_c, 0, 77, 88
2, 197946, Note_on_c, 0, 81, 84
2, 198012, Note_on_c, 0, 86, 94
2, 198076, Note_on_c, 0, 88, 95
2, 198120, Note_on_c, 0, 89, 85
2, 198167, Note_on_c, 0, 93, 102
2, 198169, Note_on_c, 0, 57, 93
2, 198170, Note_on_c, 0, 53, 91
2, 198220, Note_on_c, 0, 89, 0
2, 198226, Note_on_c, 0, 89, 70
2, 198233, Note_on_c, 0, 91, 83
2, 198282, Note_on_c, 0, 88, 0
2, 198289, Note_on_c, 0, 88, 87
2, 198328, Note_on_c, 0, 86, 0
2, 198333, Note_on_c, 0, 86, 82
2, 198382, Note_on_c, 0, 81, 0
2, 198387, Note_on_c, 0, 81, 78
2, 198458, Note_on_c, 0, 77, 0
2, 198469, Note_on_c, 0, 77, 86
2, 198549, Note_on_c, 0, 76, 79
2, 198574, Note_on_c, 0, 74, 0
2, 198580, Note_on_c, 0, 74, 92
2, 198673, Note_on_c, 0, 69, 0
2, 198681, Note_on_c, 0, 69, 87
2, 198741, Control_c, 0, 64, 0
2, 198743, Note_on_c, 0, 89, 0
2, 198743, Note_on_c, 0, 93, 0
2, 198744, Note_on_c, 0, 86, 0
2, 198744, Note_on_c, 0, 65, 0
2, 198744, Note_on_c, 0, 53, 0
2, 198745, Note_on_c, 0, 62, 0
2, 198745, Note_on_c, 0, 69, 0
2, 198745, Note_on_c, 0, 91, 0
2, 198745, Note_on_c, 0, 74, 0
2, 198745, Note_on_c, 0, 81, 0
2, 198746, Note_on_c, 0, 76, 0
2, 198746, Note_on_c, 0, 57, 0
2, 198746, Note_on_c, 0, 50, 0
2, 198750, Note_on_c, 0, 38, 0
2, 198753, Note_on_c, 0, 37, 100
2, 198754, Note_on_c, 0, 49, 103
2, 198758, Note_on_c, 0, 77, 0
2, 198758, Note_on_c, 0, 88, 0
2, 198789, Control_c, 0, 64, 127
2, 198901, Note_on_c, 0, 69, 85
2, 198946, Note_on_c, 0, 73, 84
2, 198998, Note_on_c, 0, 76, 91
2, 199004, Note_on_c, 0, 45, 0
2, 199051, Note_on_c, 0, 65, 102
2, 199100, Note_on_c, 0, 81, 93
2, 199178, Note_on_c, 0, 85, 101
2, 199252, Note_on_c, 0, 88, 96
2, 199310, Note_on_c, 0, 89, 88
2, 199360, Note_on_c, 0, 64, 106
2, 199361, Note_on_c, 0, 93, 99
2, 199367, Note_on_c, 0, 57, 95
2, 199367, Note_on_c, 0, 61, 99
2, 199411, Note_on_c, 0, 89, 0
2, 199418, Note_on_c, 0, 89, 67
2, 199464, Note_on_c, 0, 88, 0
2, 199476, Note_on_c, 0, 88, 79
2, 199518, Note_on_c, 0, 85, 0
2, 199523, Note_on_c, 0, 85, 90
2, 199564, Note_on_c, 0, 81, 0
2, 199573, Note_on_c, 0, 81, 84
2, 199656, Note_on_c, 0, 65, 0
2, 199661, Note_on_c, 0, 65, 101
2, 199718, Note_on_c, 0, 76, 0
2, 199728, Note_on_c, 0, 76, 64
2, 199764, Note_on_c, 0, 73, 0
2, 199773, Note_on_c, 0, 73, 84
2, 199802, Note_on_c, 0, 69, 0
2, 199807, Note_on_c, 0, 69, 74
2, 199953, Control_c, 0, 64, 0
2, 199954, Note_on_c, 0, 93, 0
2, 199955, Note_on_c, 0, 89, 0
2, 199955, Note_on_c, 0, 49, 0
2, 199955, Note_on_c, 0, 76, 0
2, 199956, Note_on_c, 0, 85, 0
2, 199956, Note_on_c, 0, 37, 0
2, 199956, Note_on_c, 0, 69, 0
2, 199956, Note_on_c, 0, 81, 0
2, 199957, Note_on_c, 0, 61, 0
2, 199957, Note_on_c, 0, 64, 0
2, 199957, Note_on_c, 0, 73, 0
2, 199958, Note_on_c, 0, 57, 0
2, 199964, Note_on_c, 0, 65, 0
2, 199967, Note_on_c, 0, 69, 106
2, 199971, Note_on_c, 0, 88, 0
2, 199973, Note_on_c, 0, 65, 89
2, 199974, Note_on_c, 0, 48, 103
2, 199974, Note_on_c, 0, 36, 96
2, 200010, Control_c, 0, 64, 127
2, 200110, Note_on_c, 0, 69, 0
2, 200119, Note_on_c, 0, 69, 79
2, 200191, Note_on_c, 0, 74, 86
2, 200239, Note_on_c, 0, 77, 80
2, 200292, Note_on_c, 0, 81, 95
2, 200348, Note_on_c, 0, 74, 0
2, 200352, Note_on_c, 0, 74, 82
2, 200424, Note_on_c, 0, 77, 0
2, 200429, Note_on_c, 0, 77, 90
2, 200494, Note_on_c, 0, 81, 0
2, 200502, Note_on_c, 0, 81, 83
2, 200559, Note_on_c, 0, 86, 99
2, 200565, Note_on_c, 0, 62, 93
2, 200574, Note_on_c, 0, 53, 78
2, 200574, Note_on_c, 0, 57, 81
2, 200640, Note_on_c, 0, 77, 0
2, 200648, Note_on_c, 0, 77, 83
2, 200709, Note_on_c, 0, 81, 0
2, 200720, Note_on_c, 0, 81, 90
2, 200785, Note_on_c, 0, 86, 0
2, 200795, Note_on_c, 0, 86, 93
2, 200856, Note_on_c, 0, 89, 100
2, 200901, Note_on_c, 0, 81, 0
2, 200910, Note_on_c, 0, 81, 78
2, 200977, Note_on_c, 0, 86, 0
2, 200983, Note_on_c, 0, 86, 94
2, 201016, Note_on_c, 0, 89, 0
2, 201020, Note_on_c, 0, 89, 89
2, 201144, Note_on_c, 0, 47, 95
2, 201146, Note_on_c, 0, 35, 92
2, 201151, Note_on_c, 0, 48, 0
2, 201151, Note_on_c, 0, 98, 107
2, 201154, Note_on_c, 0, 86, 0
2, 201154, Note_on_c, 0, 36, 0
2, 201154, Note_on_c, 0, 53, 0
2, 201154, Note_on_c, 0, 57, 0
2, 201154, Note_on_c, 0, 81, 0
2, 201154, Note_on_c, 0, 77, 0
2, 201154, Control_c, 0, 64, 0
2, 201155, Note_on_c, 0, 65, 0
2, 201155, Note_on_c, 0, 69, 0
2, 201155, Note_on_c, 0, 62, 0
2, 201155, Note_on_c, 0, 89, 0
2, 201169, Note_on_c, 0, 74, 0
2, 201216, Control_c, 0, 64, 127
2, 201241, Note_on_c, 0, 95, 93
2, 201293, Note_on_c, 0, 91, 86
2, 201361, Note_on_c, 0, 86, 86
2, 201423, Note_on_c, 0, 95, 0
2, 201431, Note_on_c, 0, 95, 97
2, 201500, Note_on_c, 0, 91, 0
2, 201511, Note_on_c, 0, 91, 89
2, 201569, Note_on_c, 0, 86, 0
2, 201576, Note_on_c, 0, 86, 83
2, 201646, Note_on_c, 0, 83, 87
2, 201730, Note_on_c, 0, 91, 0
2, 201735, Note_on_c, 0, 91, 94
2, 201737, Note_on_c, 0, 67, 90
2, 201744, Note_on_c, 0, 62, 79
2, 201745, Note_on_c, 0, 98, 0
2, 201747, Note_on_c, 0, 59, 74
2, 201822, Note_on_c, 0, 86, 0
2, 201831, Note_on_c, 0, 86, 84
2, 201868, Note_on_c, 0, 83, 0
2, 201878, Note_on_c, 0, 83, 83
2, 201952, Note_on_c, 0, 79, 79
2, 202037, Note_on_c, 0, 86, 0
2, 202043, Note_on_c, 0, 86, 91
2, 202106, Note_on_c, 0, 83, 0
2, 202117, Note_on_c, 0, 83, 84
2, 202160, Note_on_c, 0, 79, 0
2, 202164, Note_on_c, 0, 79, 69
2, 202239, Note_on_c, 0, 74, 86
2, 202301, Note_on_c, 0, 95, 0
2, 202301, Note_on_c, 0, 91, 0
2, 202301, Note_on_c, 0, 35, 0
2, 202301, Note_on_c, 0, 47, 0
2, 202302, Note_on_c, 0, 79, 0
2, 202302, Note_on_c, 0, 62, 0
2, 202302, Note_on_c, 0, 86, 0
2, 202302, Control_c, 0, 64, 0
2, 202302, Note_on_c, 0, 59, 0
2, 202302, Note_on_c, 0, 67, 0
2, 202302, Note_on_c, 0, 74, 0
2, 202321, Note_on_c, 0, 83, 0
2, 202333, Note_on_c, 0, 34, 96
2, 202391, Control_c, 0, 64, 127
2, 202642, Note_on_c, 0, 46, 70
2, 202781, Note_on_c, 0, 53, 68
2, 202940, Note_on_c, 0, 74, 101
2, 202941, Note_on_c, 0, 70, 97
2, 202941, Note_on_c, 0, 58, 82
2, 203103, Note_on_c, 0, 60, 81
2, 203160, Note_on_c, 0, 76, 97
2, 203162, Note_on_c, 0, 72, 89
2, 203254, Note_on_c, 0, 62, 92
2, 203381, Note_on_c, 0, 77, 102
2, 203381, Note_on_c, 0, 72, 0
2, 203385, Note_on_c, 0, 65, 93
2, 203387, Note_on_c, 0, 72, 60
2, 203502, Note_on_c, 0, 60, 0
2, 203502, Control_c, 0, 64, 0
2, 203503, Note_on_c, 0, 34, 0
2, 203503, Note_on_c, 0, 62, 0
2, 203504, Note_on_c, 0, 70, 0
2, 203505, Note_on_c, 0, 65, 0
2, 203505, Note_on_c, 0, 76, 0
2, 203505, Note_on_c, 0, 72, 0
2, 203507, Note_on_c, 0, 77, 0
2, 203512, Note_on_c, 0, 53, 0
2, 203520, Note_on_c, 0, 46, 0
2, 203520, Note_on_c, 0, 58, 0
2, 203520, Note_on_c, 0, 74, 0
2, 203554, Note_on_c, 0, 34, 90
2, 203554, Note_on_c, 0, 79, 103
2, 203554, Note_on_c, 0, 67, 96
2, 203555, Note_on_c, 0, 72, 90
2, 203555, Note_on_c, 0, 76, 94
2, 203596, Control_c, 0, 64, 127
2, 203850, Note_on_c, 0, 46, 87
2, 203994, Note_on_c, 0, 52, 74
2, 204142, Note_on_c, 0, 72, 0
2, 204149, Note_on_c, 0, 52, 0
2, 204153, Note_on_c, 0, 72, 101
2, 204155, Note_on_c, 0, 55, 83
2, 204156, Note_on_c, 0, 52, 80
2, 204296, Note_on_c, 0, 60, 95
2, 204444, Note_on_c, 0, 64, 98
2, 204572, Note_on_c, 0, 72, 0
2, 204581, Note_on_c, 0, 72, 100
2, 204707, Note_on_c, 0, 34, 0
2, 204711, Note_on_c, 0, 79, 0
2, 204712, Note_on_c, 0, 52, 0
2, 204712, Note_on_c, 0, 60, 0
2, 204712, Note_on_c, 0, 46, 0
2, 204712, Note_on_c, 0, 67, 0
2, 204712, Note_on_c, 0, 64, 0
2, 204713, Note_on_c, 0, 72, 0
2, 204713, Control_c, 0, 64, 0
2, 204713, Note_on_c, 0, 55, 0
2, 204713, Note_on_c, 0, 76, 0
2, 204743, Note_on_c, 0, 81, 105
2, 204745, Note_on_c, 0, 69, 103
2, 204745, Note_on_c, 0, 45, 94
2, 204746, Note_on_c, 0, 74, 96
2, 204747, Note_on_c, 0, 76, 96
2, 204747, Note_on_c, 0, 33, 89
2, 204779, Control_c, 0, 64, 127
2, 205040, Note_on_c, 0, 57, 77
2, 205155, Note_on_c, 0, 81, 0
2, 205163, Note_on_c, 0, 69, 0
2, 205167, Note_on_c, 0, 81, 102
2, 205169, Note_on_c, 0, 69, 93
2, 205240, Note_on_c, 0, 69, 0
2, 205240, Note_on_c, 0, 81, 0
2, 205248, Note_on_c, 0, 81, 85
2, 205250, Note_on_c, 0, 69, 73
2, 205306, Note_on_c, 0, 81, 0
2, 205306, Note_on_c, 0, 74, 0
2, 205307, Note_on_c, 0, 76, 0
2, 205307, Note_on_c, 0, 69, 0
2, 205308, Note_on_c, 0, 45, 0
2, 205310, Note_on_c, 0, 57, 0
2, 205311, Control_c, 0, 64, 0
2, 205324, Note_on_c, 0, 33, 0
2, 205340, Note_on_c, 0, 49, 98
2, 205342, Note_on_c, 0, 37, 89
2, 205342, Note_on_c, 0, 85, 103
2, 205343, Note_on_c, 0, 73, 102
2, 205345, Note_on_c, 0, 76, 101
2, 205370, Control_c, 0, 64, 127
2, 205551, Note_on_c, 0, 45, 92
2, 205551, Note_on_c, 0, 33, 87
2, 205553, Note_on_c, 0, 86, 105
2, 205556, Note_on_c, 0, 74, 105
2, 205747, Note_on_c, 0, 49, 0
2, 205747, Note_on_c, 0, 76, 0
2, 205752, Note_on_c, 0, 37, 0
2, 205756, Note_on_c, 0, 86, 0
2, 205757, Note_on_c, 0, 88, 100
2, 205757, Note_on_c, 0, 49, 83
2, 205758, Note_on_c, 0, 76, 105
2, 205821, Note_on_c, 0, 74, 0
2, 205822, Note_on_c, 0, 76, 0
2, 205824, Note_on_c, 0, 73, 0
2, 205824, Note_on_c, 0, 88, 0
2, 205826, Note_on_c, 0, 49, 0
2, 205827, Note_on_c, 0, 45, 0
2, 205829, Control_c, 0, 64, 0
2, 205839, Note_on_c, 0, 33, 0
2, 205839, Note_on_c, 0, 85, 0
2, 205911, Note_on_c, 0, 91, 109
2, 205913, Note_on_c, 0, 79, 104
2, 205950, Note_on_c, 0, 79, 0
2, 205954, Note_on_c, 0, 91, 0
2, 206066, Note_on_c, 0, 89, 108
2, 206066, Note_on_c, 0, 77, 107
2, 206068, Note_on_c, 0, 81, 101
2, 206069, Control_c, 0, 64, 127
2, 206071, Note_on_c, 0, 86, 98
2, 206196, Note_on_c, 0, 50, 100
2, 206196, Note_on_c, 0, 38, 97
2, 206336, Note_on_c, 0, 57, 91
2, 206338, Note_on_c, 0, 53, 89
2, 206493, Note_on_c, 0, 65, 98
2, 206497, Note_on_c, 0, 62, 89
2, 206624, Control_c, 0, 64, 0
2, 206624, Note_on_c, 0, 86, 0
2, 206625, Note_on_c, 0, 50, 0
2, 206625, Note_on_c, 0, 89, 0
2, 206625, Note_on_c, 0, 77, 0
2, 206625, Note_on_c, 0, 38, 0
2, 206626, Note_on_c, 0, 62, 0
2, 206626, Note_on_c, 0, 81, 0
2, 206626, Note_on_c, 0, 53, 0
2, 206626, Note_on_c, 0, 57, 0
2, 206626, Note_on_c, 0, 65, 0
2, 206641, Note_on_c, 0, 64, 99
2, 206649, Note_on_c, 0, 60, 95
2, 206649, Note_on_c, 0, 48, 97
2, 206745, Control_c, 0, 64, 127
2, 206778, Note_on_c, 0, 36, 98
2, 206947, Note_on_c, 0, 65, 95
2, 206999, Note_on_c, 0, 64, 0
2, 207003, Note_on_c, 0, 48, 0
2, 207003, Note_on_c, 0, 36, 0
2, 207003, Note_on_c, 0, 60, 0
2, 207004, Control_c, 0, 64, 0
2, 207005, Note_on_c, 0, 64, 72
2, 207075, Note_on_c, 0, 65, 0
2, 207080, Note_on_c, 0, 62, 102
2, 207088, Note_on_c, 0, 58, 98
2, 207092, Note_on_c, 0, 43, 91
2, 207095, Note_on_c, 0, 31, 92
2, 207144, Control_c, 0, 64, 127
2, 207544, Note_on_c, 0, 31, 0
2, 207544, Note_on_c, 0, 43, 0
2, 207548, Note_on_c, 0, 43, 81
2, 207552, Note_on_c, 0, 31, 72
2, 207690, Note_on_c, 0, 62, 0
2, 207698, Note_on_c, 0, 86, 103
2, 207700, Note_on_c, 0, 74, 105
2, 207701, Note_on_c, 0, 62, 90
2, 207703, Note_on_c, 0, 58, 0
2, 207709, Note_on_c, 0, 53, 75
2, 207732, Note_on_c, 0, 55, 46
2, 207855, Note_on_c, 0, 88, 101
2, 207855, Note_on_c, 0, 76, 101
2, 207983, Note_on_c, 0, 89, 105
2, 207984, Note_on_c, 0, 77, 104
2, 208120, Note_on_c, 0, 31, 0
2, 208120, Note_on_c, 0, 43, 0
2, 208126, Note_on_c, 0, 43, 66
2, 208129, Note_on_c, 0, 31, 64
2, 208266, Note_on_c, 0, 55, 0
2, 208271, Note_on_c, 0, 31, 0
2, 208272, Note_on_c, 0, 89, 0
2, 208273, Note_on_c, 0, 76, 0
2, 208273, Note_on_c, 0, 77, 0
2, 208273, Note_on_c, 0, 62, 0
2, 208273, Note_on_c, 0, 64, 0
2, 208274, Note_on_c, 0, 53, 0
2, 208274, Note_on_c, 0, 86, 0
2, 208274, Control_c, 0, 64, 0
2, 208275, Note_on_c, 0, 74, 0
2, 208281, Note_on_c, 0, 88, 0
2, 208285, Note_on_c, 0, 91, 107
2, 208287, Note_on_c, 0, 79, 100
2, 208287, Note_on_c, 0, 84, 99
2, 208293, Note_on_c, 0, 88, 91
2, 208294, Note_on_c, 0, 48, 93
2, 208294, Note_on_c, 0, 36, 89
2, 208373, Control_c, 0, 64, 127
2, 208742, Note_on_c, 0, 48, 0
2, 208753, Note_on_c, 0, 48, 84
2, 208888, Note_on_c, 0, 91, 0
2, 208896, Note_on_c, 0, 79, 0
2, 208896, Note_on_c, 0, 84, 0
2, 208896, Note_on_c, 0, 88, 0
2, 208896, Note_on_c, 0, 91, 106
2, 208898, Note_on_c, 0, 60, 90
2, 208900, Note_on_c, 0, 79, 102
2, 208900, Note_on_c, 0, 52, 90
2, 208901, Note_on_c, 0, 84, 97
2, 208902, Note_on_c, 0, 55, 80
2, 208906, Note_on_c, 0, 88, 92
2, 209128, Note_on_c, 0, 89, 104
2, 209129, Note_on_c, 0, 77, 98
2, 209333, Note_on_c, 0, 48, 0
2, 209333, Note_on_c, 0, 88, 0
2, 209340, Note_on_c, 0, 88, 100
2, 209341, Note_on_c, 0, 36, 0
2, 209343, Note_on_c, 0, 76, 99
2, 209344, Note_on_c, 0, 48, 85
2, 209345, Note_on_c, 0, 36, 85
2, 209445, Note_on_c, 0, 77, 0
2, 209446, Note_on_c, 0, 60, 0
2, 209446, Note_on_c, 0, 89, 0
2, 209447, Note_on_c, 0, 55, 0
2, 209447, Note_on_c, 0, 91, 0
2, 209447, Note_on_c, 0, 84, 0
2, 209447, Note_on_c, 0, 88, 0
2, 209447, Note_on_c, 0, 79, 0
2, 209448, Control_c, 0, 64, 0
2, 209448, Note_on_c, 0, 76, 0
2, 209448, Note_on_c, 0, 36, 0
2, 209448, Note_on_c, 0, 52, 0
2, 209456, Note_on_c, 0, 43, 0
2, 209472, Note_on_c, 0, 48, 0
2, 209506, Note_on_c, 0, 86, 101
2, 209506, Note_on_c, 0, 89, 106
2, 209507, Note_on_c, 0, 77, 100
2, 209508, Note_on_c, 0, 82, 103
2, 209509, Note_on_c, 0, 46, 97
2, 209510, Note_on_c, 0, 34, 90
2, 209548, Control_c, 0, 64, 127
2, 209817, Note_on_c, 0, 46, 0
2, 209822, Note_on_c, 0, 46, 55
2, 209968, Note_on_c, 0, 64, 94
2, 209973, Note_on_c, 0, 60, 84
2, 209974, Note_on_c, 0, 53, 80
2, 210263, Note_on_c, 0, 46, 0
2, 210271, Note_on_c, 0, 46, 87
2, 210404, Control_c, 0, 64, 0
2, 210408, Note_on_c, 0, 34, 0
2, 210408, Note_on_c, 0, 46, 0
2, 210413, Note_on_c, 0, 62, 93
2, 210413, Note_on_c, 0, 65, 87
2, 210413, Note_on_c, 0, 82, 0
2, 210413, Note_on_c, 0, 86, 0
2, 210413, Note_on_c, 0, 64, 0
2, 210414, Note_on_c, 0, 46, 87
2, 210414, Note_on_c, 0, 34, 81
2, 210414, Note_on_c, 0, 77, 0
2, 210414, Note_on_c, 0, 60, 0
2, 210415, Note_on_c, 0, 53, 0
2, 210424, Note_on_c, 0, 89, 0
2, 210547, Control_c, 0, 64, 127
2, 210708, Note_on_c, 0, 46, 0
2, 210713, Note_on_c, 0, 46, 80
2, 210873, Note_on_c, 0, 67, 97
2, 210878, Note_on_c, 0, 64, 92
2, 210880, Note_on_c, 0, 53, 87
2, 210887, Control_c, 0, 64, 0
2, 210890, Note_on_c, 0, 62, 0
2, 210915, Control_c, 0, 64, 127
2, 211138, Note_on_c, 0, 46, 0
2, 211145, Note_on_c, 0, 46, 93
2, 211284, Note_on_c, 0, 65, 0
2, 211289, Note_on_c, 0, 69, 104
2, 211292, Note_on_c, 0, 34, 0
2, 211294, Note_on_c, 0, 65, 95
2, 211295, Note_on_c, 0, 64, 0
2, 211297, Note_on_c, 0, 67, 0
2, 211298, Control_c, 0, 64, 0
2, 211299, Note_on_c, 0, 53, 0
2, 211300, Note_on_c, 0, 34, 92
2, 211368, Control_c, 0, 64, 127
2, 211445, Note_on_c, 0, 65, 0
2, 211456, Note_on_c, 0, 65, 80
2, 211503, Note_on_c, 0, 67, 83
2, 211537, Note_on_c, 0, 69, 0
2, 211542, Note_on_c, 0, 69, 88
2, 211590, Note_on_c, 0, 45, 84
2, 211594, Note_on_c, 0, 33, 82
2, 211594, Note_on_c, 0, 70, 91
2, 211660, Note_on_c, 0, 72, 100
2, 211723, Note_on_c, 0, 74, 104
2, 211796, Note_on_c, 0, 76, 82
2, 211860, Note_on_c, 0, 34, 0
2, 211861, Note_on_c, 0, 74, 0
2, 211862, Note_on_c, 0, 33, 0
2, 211862, Note_on_c, 0, 72, 0
2, 211862, Note_on_c, 0, 70, 0
2, 211862, Note_on_c, 0, 67, 0
2, 211863, Note_on_c, 0, 65, 0
2, 211863, Note_on_c, 0, 45, 0
2, 211863, Note_on_c, 0, 69, 0
2, 211863, Control_c, 0, 64, 0
2, 211864, Note_on_c, 0, 76, 0
2, 211868, Note_on_c, 0, 46, 0
2, 211900, Note_on_c, 0, 77, 108
2, 211906, Note_on_c, 0, 31, 94
2, 211906, Note_on_c, 0, 74, 97
2, 211908, Note_on_c, 0, 43, 99
2, 211968, Control_c, 0, 64, 127
2, 212198, Note_on_c, 0, 31, 0
2, 212205, Note_on_c, 0, 31, 77
2, 212212, Note_on_c, 0, 77, 0
2, 212212, Control_c, 0, 64, 0
2, 212212, Note_on_c, 0, 74, 0
2, 212244, Note_on_c, 0, 43, 0
2, 212282, Note_on_c, 0, 31, 0
2, 212494, Note_on_c, 0, 70, 92
2, 212494, Note_on_c, 0, 74, 92
2, 212540, Note_on_c, 0, 70, 0
2, 212548, Note_on_c, 0, 74, 0
2, 212640, Note_on_c, 0, 72, 93
2, 212640, Note_on_c, 0, 76, 90
2, 212677, Note_on_c, 0, 72, 0
2, 212700, Note_on_c, 0, 76, 0
2, 212781, Note_on_c, 0, 77, 102
2, 212784, Note_on_c, 0, 74, 92
2, 212839, Note_on_c, 0, 74, 0
2, 212855, Note_on_c, 0, 77, 0
2, 212921, Note_on_c, 0, 43, 86
2, 212923, Note_on_c, 0, 31, 81
2, 212961, Note_on_c, 0, 43, 0
2, 212961, Note_on_c, 0, 31, 0
2, 213076, Note_on_c, 0, 79, 104
2, 213078, Note_on_c, 0, 70, 106
2, 213081, Note_on_c, 0, 76, 99
2, 213084, Note_on_c, 0, 72, 97
2, 213084, Note_on_c, 0, 48, 98
2, 213084, Note_on_c, 0, 36, 90
2, 213120, Control_c, 0, 64, 127
2, 213379, Note_on_c, 0, 36, 0
2, 213380, Note_on_c, 0, 48, 0
2, 213381, Note_on_c, 0, 79, 0
2, 213381, Note_on_c, 0, 76, 0
2, 213382, Note_on_c, 0, 70, 0
2, 213385, Control_c, 0, 64, 0
2, 213396, Note_on_c, 0, 72, 0
2, 213693, Note_on_c, 0, 79, 107
2, 213699, Note_on_c, 0, 76, 98
2, 213699, Note_on_c, 0, 70, 106
2, 213700, Note_on_c, 0, 72, 97
2, 213726, Control_c, 0, 64, 127
2, 213820, Note_on_c, 0, 76, 0
2, 213820, Control_c, 0, 64, 0
2, 213822, Note_on_c, 0, 79, 0
2, 213826, Note_on_c, 0, 70, 0
2, 213826, Note_on_c, 0, 72, 0
2, 213906, Note_on_c, 0, 77, 107
2, 213907, Note_on_c, 0, 70, 104
2, 213909, Note_on_c, 0, 72, 100
2, 213926, Control_c, 0, 64, 127
2, 213961, Note_on_c, 0, 70, 0
2, 214029, Note_on_c, 0, 77, 0
2, 214039, Control_c, 0, 64, 0
2, 214041, Note_on_c, 0, 72, 0
2, 214118, Note_on_c, 0, 70, 99
2, 214119, Note_on_c, 0, 48, 95
2, 214120, Note_on_c, 0, 36, 90
2, 214120, Note_on_c, 0, 76, 95
2, 214123, Note_on_c, 0, 72, 84
2, 214157, Note_on_c, 0, 36, 0
2, 214158, Note_on_c, 0, 48, 0
2, 214210, Note_on_c, 0, 70, 0
2, 214279, Note_on_c, 0, 72, 0
2, 214283, Note_on_c, 0, 77, 107
2, 214287, Note_on_c, 0, 70, 98
2, 214289, Note_on_c, 0, 72, 100
2, 214290, Note_on_c, 0, 41, 99
2, 214291, Note_on_c, 0, 29, 94
2, 214333, Control_c, 0, 64, 127
2, 214594, Note_on_c, 0, 41, 0
2, 214600, Note_on_c, 0, 41, 77
2, 214740, Note_on_c, 0, 70, 0
2, 214751, Note_on_c, 0, 70, 102
2, 214755, Note_on_c, 0, 41, 0
2, 214761, Note_on_c, 0, 65, 87
2, 214761, Note_on_c, 0, 53, 85
2, 214763, Note_on_c, 0, 48, 82
2, 214764, Note_on_c, 0, 41, 83
2, 214767, Note_on_c, 0, 60, 88
2, 215055, Note_on_c, 0, 41, 0
2, 215060, Note_on_c, 0, 41, 80
2, 215201, Note_on_c, 0, 29, 0
2, 215201, Note_on_c, 0, 41, 0
2, 215206, Note_on_c, 0, 77, 0
2, 215207, Note_on_c, 0, 72, 0
2, 215208, Control_c, 0, 64, 0
2, 215208, Note_on_c, 0, 60, 0
2, 215208, Note_on_c, 0, 65, 0
2, 215209, Note_on_c, 0, 53, 0
2, 215210, Note_on_c, 0, 41, 93
2, 215211, Note_on_c, 0, 29, 94
2, 215212, Note_on_c, 0, 69, 108
2, 215213, Note_on_c, 0, 60, 88
2, 215215, Note_on_c, 0, 65, 93
2, 215224, Note_on_c, 0, 48, 0
2, 215232, Note_on_c, 0, 70, 0
2, 215239, Note_on_c, 0, 76, 0
2, 215347, Control_c, 0, 64, 127
2, 215531, Note_on_c, 0, 41, 0
2, 215542, Note_on_c, 0, 41, 77
2, 215596, Note_on_c, 0, 48, 82
2, 215661, Note_on_c, 0, 53, 82
2, 215766, Note_on_c, 0, 55, 78
2, 215832, Note_on_c, 0, 57, 77
2, 215883, Note_on_c, 0, 58, 83
2, 215946, Note_on_c, 0, 60, 0
2, 215952, Note_on_c, 0, 60, 85
2, 216031, Note_on_c, 0, 62, 91
2, 216090, Note_on_c, 0, 64, 89
2, 216115, Note_on_c, 0, 65, 0
2, 216124, Note_on_c, 0, 65, 80
2, 216172, Note_on_c, 0, 67, 85
2, 216207, Note_on_c, 0, 69, 0
2, 216211, Note_on_c, 0, 69, 80
2, 216257, Note_on_c, 0, 70, 96
2, 216311, Note_on_c, 0, 72, 95
2, 216366, Note_on_c, 0, 74, 89
2, 216415, Note_on_c, 0, 76, 90
2, 216491, Note_on_c, 0, 77, 96
2, 216534, Note_on_c, 0, 53, 0
2, 216534, Note_on_c, 0, 65, 0
2, 216534, Note_on_c, 0, 58, 0
2, 216534, Note_on_c, 0, 62, 0
2, 216534, Note_on_c, 0, 64, 0
2, 216534, Note_on_c, 0, 76, 0
2, 216534, Note_on_c, 0, 60, 0
2, 216534, Note_on_c, 0, 57, 0
2, 216534, Note_on_c, 0, 48, 0
2, 216534, Note_on_c, 0, 69, 0
2, 216534, Note_on_c, 0, 74, 0
2, 216534, Note_on_c, 0, 72, 0
2, 216535, Note_on_c, 0, 55, 0
2, 216535, Note_on_c, 0, 67, 0
2, 216535, Note_on_c, 0, 70, 0
2, 216537, Control_c, 0, 64, 0
2, 216537, Note_on_c, 0, 29, 0
2, 216569, Note_on_c, 0, 34, 83
2, 216665, Note_on_c, 0, 46, 91
2, 216668, Control_c, 0, 64, 127
2, 216706, Note_on_c, 0, 89, 106
2, 216708, Note_on_c, 0, 50, 85
2, 216873, Note_on_c, 0, 88, 83
2, 217028, Note_on_c, 0, 86, 84
2, 217190, Note_on_c, 0, 82, 75
2, 217328, Note_on_c, 0, 89, 0
2, 217338, Note_on_c, 0, 89, 91
2, 217466, Note_on_c, 0, 88, 0
2, 217473, Note_on_c, 0, 88, 77
2, 217620, Note_on_c, 0, 86, 0
2, 217631, Note_on_c, 0, 86, 81
2, 217774, Note_on_c, 0, 82, 0
2, 217784, Note_on_c, 0, 82, 72
2, 217927, Note_on_c, 0, 89, 0
2, 217933, Note_on_c, 0, 89, 87
2, 218058, Note_on_c, 0, 88, 0
2, 218068, Note_on_c, 0, 88, 77
2, 218211, Note_on_c, 0, 86, 0
2, 218217, Note_on_c, 0, 86, 76
2, 218350, Note_on_c, 0, 82, 0
2, 218360, Note_on_c, 0, 82, 70
2, 218513, Note_on_c, 0, 62, 88
2, 218526, Note_on_c, 0, 89, 0
2, 218537, Note_on_c, 0, 89, 82
2, 218672, Note_on_c, 0, 88, 0
2, 218680, Note_on_c, 0, 88, 81
2, 218810, Note_on_c, 0, 86, 0
2, 218819, Note_on_c, 0, 86, 71
2, 218949, Note_on_c, 0, 82, 0
2, 218958, Note_on_c, 0, 82, 78
2, 219064, Note_on_c, 0, 46, 0
2, 219069, Note_on_c, 0, 46, 66
2, 219095, Note_on_c, 0, 41, 0
2, 219109, Note_on_c, 0, 86, 0
2, 219109, Note_on_c, 0, 82, 0
2, 219110, Note_on_c, 0, 77, 0
2, 219110, Note_on_c, 0, 89, 0
2, 219111, Note_on_c, 0, 62, 0
2, 219112, Note_on_c, 0, 55, 76
2, 219113, Control_c, 0, 64, 0
2, 219113, Note_on_c, 0, 88, 0
2, 219113, Note_on_c, 0, 50, 0
2, 219113, Note_on_c, 0, 60, 84
2, 219118, Note_on_c, 0, 34, 0
2, 219150, Note_on_c, 0, 64, 97
2, 219233, Control_c, 0, 64, 127
2, 219441, Note_on_c, 0, 76, 69
2, 219582, Note_on_c, 0, 79, 66
2, 219729, Note_on_c, 0, 88, 87
2, 219868, Note_on_c, 0, 86, 80
2, 220018, Note_on_c, 0, 84, 74
2, 220162, Note_on_c, 0, 79, 0
2, 220172, Note_on_c, 0, 79, 68
2, 220308, Note_on_c, 0, 88, 0
2, 220313, Note_on_c, 0, 88, 88
2, 220454, Note_on_c, 0, 86, 0
2, 220463, Note_on_c, 0, 86, 84
2, 220608, Note_on_c, 0, 84, 0
2, 220615, Note_on_c, 0, 84, 71
2, 220746, Note_on_c, 0, 79, 0
2, 220755, Note_on_c, 0, 79, 77
2, 220876, Note_on_c, 0, 60, 0
2, 220885, Note_on_c, 0, 60, 97
2, 220892, Note_on_c, 0, 88, 0
2, 220900, Note_on_c, 0, 88, 91
2, 221045, Note_on_c, 0, 86, 0
2, 221049, Note_on_c, 0, 86, 80
2, 221184, Note_on_c, 0, 84, 0
2, 221190, Note_on_c, 0, 84, 77
2, 221329, Note_on_c, 0, 79, 0
2, 221336, Note_on_c, 0, 79, 77
2, 221484, Note_on_c, 0, 88, 0
2, 221485, Note_on_c, 0, 86, 0
2, 221485, Note_on_c, 0, 79, 0
2, 221485, Note_on_c, 0, 84, 0
2, 221485, Note_on_c, 0, 60, 0
2, 221495, Control_c, 0, 64, 0
2, 221498, Note_on_c, 0, 46, 0
2, 221503, Note_on_c, 0, 72, 99
2, 221506, Note_on_c, 0, 55, 0
2, 221506, Note_on_c, 0, 64, 0
2, 221508, Note_on_c, 0, 52, 77
2, 221509, Note_on_c, 0, 45, 73
2, 221510, Note_on_c, 0, 64, 87
2, 221511, Note_on_c, 0, 55, 77
2, 221512, Note_on_c, 0, 67, 79
2, 221529, Note_on_c, 0, 76, 0
2, 221575, Control_c, 0, 64, 127
2, 221827, Note_on_c, 0, 79, 80
2, 221960, Note_on_c, 0, 84, 76
2, 222104, Note_on_c, 0, 91, 91
2, 222253, Note_on_c, 0, 89, 81
2, 222406, Note_on_c, 0, 88, 76
2, 222551, Note_on_c, 0, 84, 0
2, 222561, Note_on_c, 0, 84, 59
2, 222689, Note_on_c, 0, 91, 0
2, 222700, Note_on_c, 0, 91, 88
2, 222842, Note_on_c, 0, 89, 0
2, 222850, Note_on_c, 0, 89, 80
2, 222996, Note_on_c, 0, 88, 0
2, 223002, Note_on_c, 0, 88, 79
2, 223142, Note_on_c, 0, 84, 0
2, 223153, Note_on_c, 0, 84, 73
2, 223280, Note_on_c, 0, 45, 0
2, 223296, Note_on_c, 0, 52, 0
2, 223296, Note_on_c, 0, 91, 0
2, 223298, Note_on_c, 0, 70, 95
2, 223303, Note_on_c, 0, 64, 0
2, 223303, Note_on_c, 0, 67, 0
2, 223305, Note_on_c, 0, 91, 89
2, 223309, Note_on_c, 0, 64, 77
2, 223309, Note_on_c, 0, 67, 81
2, 223441, Note_on_c, 0, 79, 0
2, 223441, Note_on_c, 0, 89, 0
2, 223449, Note_on_c, 0, 89, 85
2, 223580, Note_on_c, 0, 88, 0
2, 223589, Note_on_c, 0, 88, 80
2, 223726, Note_on_c, 0, 84, 0
2, 223733, Note_on_c, 0, 84, 76
2, 223899, Control_c, 0, 64, 0
2, 223901, Note_on_c, 0, 70, 0
2, 223902, Note_on_c, 0, 89, 0
2, 223902, Note_on_c, 0, 55, 0
2, 223903, Note_on_c, 0, 64, 0
2, 223904, Note_on_c, 0, 84, 0
2, 223904, Note_on_c, 0, 67, 0
2, 223905, Note_on_c, 0, 91, 0
2, 223905, Note_on_c, 0, 88, 0
2, 223910, Note_on_c, 0, 72, 0
2, 223915, Note_on_c, 0, 69, 96
2, 223916, Note_on_c, 0, 57, 78
2, 223916, Note_on_c, 0, 65, 74
2, 223918, Note_on_c, 0, 45, 64
2, 223921, Note_on_c, 0, 50, 78
2, 223987, Note_on_c, 0, 45, 0
2, 224064, Control_c, 0, 64, 127
2, 224194, Note_on_c, 0, 77, 72
2, 224338, Note_on_c, 0, 81, 74
2, 224472, Note_on_c, 0, 89, 88
2, 224622, Note_on_c, 0, 88, 78
2, 224624, Note_on_c, 0, 65, 0
2, 224765, Note_on_c, 0, 86, 79
2, 224901, Note_on_c, 0, 81, 0
2, 224905, Note_on_c, 0, 81, 76
2, 225062, Note_on_c, 0, 89, 0
2, 225067, Note_on_c, 0, 48, 73
2, 225071, Note_on_c, 0, 89, 85
2, 225200, Note_on_c, 0, 88, 0
2, 225211, Note_on_c, 0, 88, 81
2, 225361, Note_on_c, 0, 86, 0
2, 225371, Note_on_c, 0, 86, 80
2, 225507, Note_on_c, 0, 81, 0
2, 225516, Note_on_c, 0, 81, 76
2, 225656, Note_on_c, 0, 64, 73
2, 225656, Note_on_c, 0, 79, 82
2, 225657, Note_on_c, 0, 60, 70
2, 225807, Note_on_c, 0, 77, 0
2, 225812, Note_on_c, 0, 77, 71
2, 225951, Note_on_c, 0, 76, 67
2, 226093, Note_on_c, 0, 72, 76
2, 226266, Note_on_c, 0, 74, 96
2, 226272, Note_on_c, 0, 46, 67
2, 226291, Note_on_c, 0, 69, 0
2, 226295, Note_on_c, 0, 69, 66
2, 226302, Note_on_c, 0, 81, 0
2, 226302, Note_on_c, 0, 50, 0
2, 226302, Note_on_c, 0, 60, 0
2, 226302, Note_on_c, 0, 64, 0
2, 226303, Note_on_c, 0, 48, 0
2, 226303, Note_on_c, 0, 86, 0
2, 226303, Control_c, 0, 64, 0
2, 226303, Note_on_c, 0, 89, 0
2, 226303, Note_on_c, 0, 77, 0
2, 226303, Note_on_c, 0, 88, 0
2, 226304, Note_on_c, 0, 72, 0
2, 226304, Note_on_c, 0, 79, 0
2, 226304, Note_on_c, 0, 76, 0
2, 226321, Note_on_c, 0, 57, 0
2, 226521, Control_c, 0, 64, 127
2, 226572, Note_on_c, 0, 53, 62
2, 226719, Note_on_c, 0, 58, 58
2, 226865, Note_on_c, 0, 65, 60
2, 227021, Note_on_c, 0, 64, 55
2, 227200, Note_on_c, 0, 62, 58
2, 227343, Note_on_c, 0, 58, 0
2, 227348, Note_on_c, 0, 58, 53
2, 227458, Note_on_c, 0, 65, 0
2, 227469, Note_on_c, 0, 65, 63
2, 227619, Note_on_c, 0, 64, 0
2, 227628, Note_on_c, 0, 64, 66
2, 227758, Note_on_c, 0, 74, 0
2, 227769, Note_on_c, 0, 74, 91
2, 227788, Note_on_c, 0, 62, 0
2, 227794, Note_on_c, 0, 62, 58
2, 227927, Note_on_c, 0, 58, 0
2, 227932, Note_on_c, 0, 58, 60
2, 228062, Note_on_c, 0, 76, 98
2, 228065, Note_on_c, 0, 65, 0
2, 228076, Note_on_c, 0, 65, 74
2, 228211, Note_on_c, 0, 64, 0
2, 228215, Note_on_c, 0, 64, 78
2, 228373, Note_on_c, 0, 77, 95
2, 228380, Note_on_c, 0, 62, 0
2, 228385, Note_on_c, 0, 62, 62
2, 228480, Note_on_c, 0, 58, 0
2, 228480, Note_on_c, 0, 69, 0
2, 228491, Note_on_c, 0, 46, 0
2, 228491, Note_on_c, 0, 58, 66
2, 228672, Note_on_c, 0, 74, 0
2, 228676, Note_on_c, 0, 74, 97
2, 228687, Note_on_c, 0, 65, 0
2, 228691, Note_on_c, 0, 43, 64
2, 228693, Note_on_c, 0, 70, 82
2, 228694, Note_on_c, 0, 65, 64
2, 228723, Control_c, 0, 64, 0
2, 228727, Note_on_c, 0, 64, 0
2, 228728, Note_on_c, 0, 76, 0
2, 228728, Note_on_c, 0, 62, 0
2, 228729, Note_on_c, 0, 77, 0
2, 228729, Note_on_c, 0, 53, 0
2, 228741, Note_on_c, 0, 58, 0
2, 228956, Control_c, 0, 64, 127
2, 228996, Note_on_c, 0, 50, 60
2, 229136, Note_on_c, 0, 58, 58
2, 229286, Note_on_c, 0, 65, 0
2, 229290, Note_on_c, 0, 65, 64
2, 229443, Note_on_c, 0, 64, 57
2, 229610, Note_on_c, 0, 62, 60
2, 229747, Note_on_c, 0, 58, 0
2, 229758, Note_on_c, 0, 58, 56
2, 229893, Note_on_c, 0, 65, 0
2, 229901, Note_on_c, 0, 65, 64
2, 230054, Note_on_c, 0, 64, 0
2, 230065, Note_on_c, 0, 64, 56
2, 230177, Note_on_c, 0, 74, 0
2, 230183, Note_on_c, 0, 74, 86
2, 230208, Note_on_c, 0, 62, 0
2, 230218, Note_on_c, 0, 62, 65
2, 230353, Note_on_c, 0, 58, 0
2, 230365, Note_on_c, 0, 58, 60
2, 230492, Note_on_c, 0, 65, 0
2, 230495, Note_on_c, 0, 76, 94
2, 230502, Note_on_c, 0, 65, 73
2, 230661, Note_on_c, 0, 64, 0
2, 230665, Note_on_c, 0, 64, 70
2, 230799, Note_on_c, 0, 62, 0
2, 230799, Note_on_c, 0, 74, 0
2, 230805, Note_on_c, 0, 77, 94
2, 230809, Note_on_c, 0, 62, 65
2, 230810, Note_on_c, 0, 74, 66
2, 230937, Note_on_c, 0, 58, 0
2, 230941, Note_on_c, 0, 58, 62
2, 231114, Note_on_c, 0, 76, 0
2, 231120, Note_on_c, 0, 76, 90
2, 231137, Note_on_c, 0, 74, 0
2, 231141, Note_on_c, 0, 69, 72
2, 231141, Note_on_c, 0, 74, 79
2, 231143, Note_on_c, 0, 45, 68
2, 231164, Control_c, 0, 64, 0
2, 231165, Note_on_c, 0, 64, 0
2, 231165, Note_on_c, 0, 50, 0
2, 231166, Note_on_c, 0, 58, 0
2, 231166, Note_on_c, 0, 43, 0
2, 231166, Note_on_c, 0, 62, 0
2, 231167, Note_on_c, 0, 70, 0
2, 231167, Note_on_c, 0, 77, 0
2, 231183, Note_on_c, 0, 65, 0
2, 231290, Control_c, 0, 64, 127
2, 231434, Note_on_c, 0, 52, 58
2, 231601, Note_on_c, 0, 57, 55
2, 231747, Note_on_c, 0, 64, 67
2, 231902, Note_on_c, 0, 62, 55
2, 232035, Note_on_c, 0, 57, 0
2, 232045, Note_on_c, 0, 57, 58
2, 232197, Note_on_c, 0, 52, 0
2, 232208, Note_on_c, 0, 52, 60
2, 232381, Note_on_c, 0, 64, 0
2, 232392, Note_on_c, 0, 64, 62
2, 232527, Note_on_c, 0, 62, 0
2, 232537, Note_on_c, 0, 62, 65
2, 232711, Note_on_c, 0, 45, 0
2, 232711, Note_on_c, 0, 57, 0
2, 232716, Note_on_c, 0, 45, 53
2, 232717, Note_on_c, 0, 57, 61
2, 232896, Note_on_c, 0, 52, 0
2, 232903, Note_on_c, 0, 52, 54
2, 233072, Note_on_c, 0, 74, 0
2, 233079, Note_on_c, 0, 74, 81
2, 233088, Note_on_c, 0, 64, 0
2, 233095, Note_on_c, 0, 69, 0
2, 233098, Note_on_c, 0, 64, 64
2, 233103, Note_on_c, 0, 69, 66
2, 233256, Note_on_c, 0, 62, 0
2, 233266, Note_on_c, 0, 62, 55
2, 233487, Note_on_c, 0, 57, 0
2, 233498, Note_on_c, 0, 57, 55
2, 233771, Note_on_c, 0, 52, 0
2, 233775, Note_on_c, 0, 52, 57
2, 234224, Note_on_c, 0, 45, 0
2, 234232, Note_on_c, 0, 76, 0
2, 234235, Note_on_c, 0, 45, 55
2, 234240, Note_on_c, 0, 69, 0
2, 234242, Note_on_c, 0, 76, 59
2, 234245, Note_on_c, 0, 69, 60
2, 234246, Note_on_c, 0, 73, 53
2, 234349, Note_on_c, 0, 62, 0
2, 234349, Note_on_c, 0, 74, 0
2, 234349, Control_c, 0, 64, 0
2, 234524, Note_on_c, 0, 57, 0
2, 236029, Control_c, 0, 64, 127
2, 236160, Note_on_c, 0, 64, 0
2, 236160, Note_on_c, 0, 76, 0
2, 236557, Control_c, 0, 64, 0
2, 236565, Note_on_c, 0, 52, 0
2, 236573, Note_on_c, 0, 73, 0
2, 236574, Note_on_c, 0, 69, 0
2, 236582, Note_on_c, 0, 45, 0
2, 238477, Note_on_c, 0, 89, 66
2, 238637, Note_on_c, 0, 88, 69
2, 238763, Note_on_c, 0, 89, 0
2, 238771, Control_c, 0, 64, 127
2, 238814, Note_on_c, 0, 77, 65
2, 238818, Note_on_c, 0, 81, 66
2, 238819, Note_on_c, 0, 74, 58
2, 238820, Note_on_c, 0, 89, 76
2, 238847, Note_on_c, 0, 88, 0
2, 239488, Note_on_c, 0, 93, 71
2, 240138, Note_on_c, 0, 81, 0
2, 240140, Note_on_c, 0, 88, 78
2, 240142, Note_on_c, 0, 76, 59
2, 240149, Note_on_c, 0, 81, 61
2, 240152, Note_on_c, 0, 72, 60
2, 240204, Note_on_c, 0, 74, 0
2, 240204, Note_on_c, 0, 93, 0
2, 240208, Control_c, 0, 64, 0
2, 240210, Note_on_c, 0, 89, 0
2, 240212, Note_on_c, 0, 77, 0
2, 240852, Control_c, 0, 64, 127
2, 241611, Note_on_c, 0, 86, 75
2, 241612, Note_on_c, 0, 70, 55
2, 241612, Note_on_c, 0, 81, 0
2, 241616, Note_on_c, 0, 81, 50
2, 241617, Note_on_c, 0, 77, 55
2, 241622, Note_on_c, 0, 82, 52
2, 241642, Control_c, 0, 64, 0
2, 241645, Note_on_c, 0, 72, 0
2, 241646, Note_on_c, 0, 76, 0
2, 241647, Note_on_c, 0, 88, 0
2, 242165, Control_c, 0, 64, 127
2, 242315, Note_on_c, 0, 89, 81
2, 242966, Note_on_c, 0, 93, 75
2, 242972, Note_on_c, 0, 77, 0
2, 242972, Note_on_c, 0, 81, 0
2, 242974, Note_on_c, 0, 84, 60
2, 242981, Note_on_c, 0, 81, 43
2, 242982, Note_on_c, 0, 77, 50
2, 242982, Note_on_c, 0, 69, 57
2, 242990, Note_on_c, 0, 82, 0
2, 242990, Note_on_c, 0, 70, 0
2, 242990, Note_on_c, 0, 86, 0
2, 242992, Control_c, 0, 64, 0
2, 243179, Note_on_c, 0, 81, 0
2, 243333, Note_on_c, 0, 77, 0
2, 243678, Control_c, 0, 64, 127
2, 244101, Note_on_c, 0, 89, 0
2, 244426, Note_on_c, 0, 94, 79
2, 244427, Note_on_c, 0, 86, 77
2, 244427, Note_on_c, 0, 69, 0
2, 244430, Note_on_c, 0, 77, 62
2, 244435, Note_on_c, 0, 93, 0
2, 244436, Control_c, 0, 64, 0
2, 244437, Note_on_c, 0, 67, 61
2, 244446, Note_on_c, 0, 84, 0
2, 244631, Control_c, 0, 64, 127
2, 245101, Note_on_c, 0, 98, 91
2, 245760, Note_on_c, 0, 77, 0
2, 245760, Note_on_c, 0, 98, 0
2, 245762, Note_on_c, 0, 93, 79
2, 245779, Note_on_c, 0, 81, 58
2, 245783, Note_on_c, 0, 86, 0
2, 245791, Note_on_c, 0, 65, 43
2, 245793, Note_on_c, 0, 76, 51
2, 245793, Note_on_c, 0, 74, 57
2, 245794, Note_on_c, 0, 86, 62
2, 245795, Note_on_c, 0, 77, 47
2, 245808, Control_c, 0, 64, 0
2, 245814, Note_on_c, 0, 67, 0
2, 245836, Note_on_c, 0, 94, 0
2, 245852, Note_on_c, 0, 77, 0
2, 245967, Control_c, 0, 64, 127
2, 246005, Control_c, 0, 64, 0
2, 246036, Note_on_c, 0, 76, 0
2, 246090, Control_c, 0, 64, 127
2, 247140, Note_on_c, 0, 79, 60
2, 247201, Note_on_c, 0, 82, 59
2, 247242, Note_on_c, 0, 86, 0
2, 247251, Note_on_c, 0, 86, 66
2, 247278, Control_c, 0, 64, 0
2, 247284, Note_on_c, 0, 81, 0
2, 247285, Note_on_c, 0, 74, 0
2, 247286, Note_on_c, 0, 93, 0
2, 247316, Note_on_c, 0, 91, 77
2, 247319, Note_on_c, 0, 65, 0
2, 247320, Note_on_c, 0, 64, 51
2, 247357, Control_c, 0, 64, 127
2, 248035, Note_on_c, 0, 69, 59
2, 248730, Note_on_c, 0, 70, 69
2, 249458, Note_on_c, 0, 74, 73
2, 249853, Note_on_c, 0, 89, 87
2, 250360, Note_on_c, 0, 69, 0
2, 250363, Note_on_c, 0, 88, 84
2, 250365, Note_on_c, 0, 69, 62
2, 250368, Note_on_c, 0, 86, 0
2, 250375, Note_on_c, 0, 74, 0
2, 250379, Note_on_c, 0, 86, 71
2, 250381, Note_on_c, 0, 74, 57
2, 250386, Note_on_c, 0, 76, 62
2, 250387, Note_on_c, 0, 81, 54
2, 250415, Control_c, 0, 64, 0
2, 250418, Note_on_c, 0, 91, 0
2, 250419, Note_on_c, 0, 82, 0
2, 250419, Note_on_c, 0, 70, 0
2, 250420, Note_on_c, 0, 79, 0
2, 250421, Note_on_c, 0, 64, 0
2, 250421, Note_on_c, 0, 89, 0
2, 250621, Control_c, 0, 64, 127
2, 252019, Note_on_c, 0, 73, 51
2, 252103, Control_c, 0, 64, 0
2, 252280, Control_c, 0, 64, 127
2, 252986, Note_on_c, 0, 86, 0
2, 252991, Note_on_c, 0, 86, 77
2, 254100, Note_on_c, 0, 74, 0
2, 254107, Note_on_c, 0, 74, 62
2, 254227, Note_on_c, 0, 77, 50
2, 254269, Note_on_c, 0, 81, 0
2, 254280, Note_on_c, 0, 81, 64
2, 254319, Note_on_c, 0, 76, 0
2, 254384, Note_on_c, 0, 73, 0
2, 254384, Note_on_c, 0, 74, 0
2, 254384, Note_on_c, 0, 86, 0
2, 254392, Note_on_c, 0, 86, 83
2, 254394, Note_on_c, 0, 62, 60
2, 254394, Note_on_c, 0, 74, 61
2, 254407, Note_on_c, 0, 88, 0
2, 254433, Control_c, 0, 64, 0
2, 254461, Control_c, 0, 64, 127
2, 254522, Control_c, 0, 64, 0
2, 254737, Control_c, 0, 64, 127
2, 254776, Note_on_c, 0, 69, 0
2, 255239, Note_on_c, 0, 64, 58
2, 255360, Note_on_c, 0, 77, 0
2, 255360, Note_on_c, 0, 81, 0
2, 256107, Note_on_c, 0, 65, 59
2, 256132, Control_c, 0, 64, 0
2, 256250, Control_c, 0, 64, 127
2, 257064, Note_on_c, 0, 69, 61
2, 257095, Control_c, 0, 64, 0
2, 258685, Note_on_c, 0, 74, 0
2, 258689, Note_on_c, 0, 74, 56
2, 259000, Note_on_c, 0, 62, 0
2, 259000, Note_on_c, 0, 86, 0
2, 259200, Note_on_c, 0, 64, 0
2, 259200, Note_on_c, 0, 65, 0
2, 259537, Note_on_c, 0, 69, 0
2, 263040, Note_on_c, 0, 74, 0
2, 263041, End_track
0, 0, End_of_file
