0, 0, Header, 1, 2, 384
1, 0, Start_track
1, 0, Tempo, 500000
1, 0, Time_signature, 4, 2, 24, 8
1, 1, End_track
2, 0, Start_track
2, 7, Control_c, 0, 64, 127
2, 2307, Note_on_c, 0, 74, 84
2, 2314, Note_on_c, 0, 47, 58
2, 2315, Note_on_c, 0, 54, 63
2, 2320, Note_on_c, 0, 66, 71
2, 2323, Note_on_c, 0, 62, 62
2, 2330, Note_on_c, 0, 59, 59
2, 3639, Note_on_c, 0, 73, 84
2, 3643, Note_on_c, 0, 61, 71
2, 3657, Control_c, 0, 64, 0
2, 3661, Note_on_c, 0, 57, 57
2, 3662, Note_on_c, 0, 45, 60
2, 3663, Note_on_c, 0, 74, 0
2, 3663, Note_on_c, 0, 64, 68
2, 3665, Note_on_c, 0, 54, 0
2, 3665, Note_on_c, 0, 47, 0
2, 3667, Note_on_c, 0, 52, 58
2, 3667, Note_on_c, 0, 62, 0
2, 3667, Note_on_c, 0, 66, 0
2, 3668, Note_on_c, 0, 59, 0
2, 3755, Control_c, 0, 64, 127
2, 4922, Note_on_c, 0, 71, 85
2, 4927, Note_on_c, 0, 66, 68
2, 4933, Note_on_c, 0, 62, 67
2, 4936, Note_on_c, 0, 59, 68
2, 4937, Note_on_c, 0, 43, 62
2, 4939, Note_on_c, 0, 50, 64
2, 4963, Note_on_c, 0, 52, 0
2, 4964, Note_on_c, 0, 45, 0
2, 4964, Note_on_c, 0, 64, 0
2, 4964, Note_on_c, 0, 73, 0
2, 4964, Note_on_c, 0, 57, 0
2, 4978, Control_c, 0, 64, 0
2, 4984, Note_on_c, 0, 61, 0
2, 5099, Control_c, 0, 64, 127
2, 5246, Note_on_c, 0, 57, 72
2, 5564, Note_on_c, 0, 55, 72
2, 5875, Note_on_c, 0, 57, 0
2, 5875, Note_on_c, 0, 62, 0
2, 5878, Note_on_c, 0, 69, 82
2, 5882, Note_on_c, 0, 66, 0
2, 5884, Note_on_c, 0, 62, 69
2, 5886, Note_on_c, 0, 57, 72
2, 5886, Note_on_c, 0, 38, 73
2, 5888, Note_on_c, 0, 66, 69
2, 5893, Note_on_c, 0, 45, 59
2, 5911, Control_c, 0, 64, 0
2, 5916, Note_on_c, 0, 50, 0
2, 5918, Note_on_c, 0, 43, 0
2, 5918, Note_on_c, 0, 55, 0
2, 5918, Note_on_c, 0, 59, 0
2, 5919, Note_on_c, 0, 71, 0
2, 6159, Control_c, 0, 64, 127
2, 7534, Note_on_c, 0, 62, 0
2, 7538, Note_on_c, 0, 62, 88
2, 7549, Note_on_c, 0, 57, 0
2, 7554, Note_on_c, 0, 57, 68
2, 7554, Note_on_c, 0, 47, 58
2, 7557, Note_on_c, 0, 54, 59
2, 7567, Control_c, 0, 64, 0
2, 7591, Note_on_c, 0, 38, 0
2, 7596, Note_on_c, 0, 69, 0
2, 7618, Note_on_c, 0, 66, 0
2, 7718, Control_c, 0, 64, 127
2, 7851, Note_on_c, 0, 66, 70
2, 7864, Note_on_c, 0, 45, 0
2, 8157, Note_on_c, 0, 69, 85
2, 8448, Note_on_c, 0, 74, 83
2, 8770, Note_on_c, 0, 57, 0
2, 8771, Note_on_c, 0, 73, 93
2, 8775, Note_on_c, 0, 61, 73
2, 8777, Note_on_c, 0, 45, 73
2, 8777, Note_on_c, 0, 57, 67
2, 8783, Note_on_c, 0, 52, 65
2, 8811, Control_c, 0, 64, 0
2, 8817, Note_on_c, 0, 66, 0
2, 8817, Note_on_c, 0, 69, 0
2, 8818, Note_on_c, 0, 47, 0
2, 8819, Note_on_c, 0, 74, 0
2, 8832, Note_on_c, 0, 54, 0
2, 8839, Note_on_c, 0, 62, 0
2, 8901, Note_on_c, 0, 57, 0
2, 8947, Control_c, 0, 64, 127
2, 9091, Note_on_c, 0, 69, 73
2, 9419, Note_on_c, 0, 64, 66
2, 9728, Note_on_c, 0, 57, 59
2, 10027, Control_c, 0, 64, 0
2, 10040, Note_on_c, 0, 71, 83
2, 10052, Note_on_c, 0, 59, 69
2, 10053, Note_on_c, 0, 66, 60
2, 10054, Note_on_c, 0, 43, 61
2, 10055, Note_on_c, 0, 73, 0
2, 10055, Note_on_c, 0, 52, 0
2, 10056, Note_on_c, 0, 69, 0
2, 10056, Note_on_c, 0, 64, 0
2, 10057, Note_on_c, 0, 62, 64
2, 10057, Note_on_c, 0, 45, 0
2, 10058, Note_on_c, 0, 57, 0
2, 10058, Note_on_c, 0, 50, 64
2, 10058, Note_on_c, 0, 61, 0
2, 10222, Control_c, 0, 64, 127
2, 10355, Note_on_c, 0, 57, 70
2, 10657, Note_on_c, 0, 55, 64
2, 10988, Note_on_c, 0, 69, 74
2, 10990, Note_on_c, 0, 57, 0
2, 10990, Note_on_c, 0, 62, 0
2, 10997, Note_on_c, 0, 66, 0
2, 10998, Note_on_c, 0, 57, 64
2, 11000, Note_on_c, 0, 45, 56
2, 11000, Note_on_c, 0, 62, 57
2, 11002, Note_on_c, 0, 38, 60
2, 11003, Note_on_c, 0, 66, 55
2, 11004, Note_on_c, 0, 54, 56
2, 11009, Note_on_c, 0, 50, 0
2, 11011, Note_on_c, 0, 71, 0
2, 11011, Note_on_c, 0, 43, 0
2, 11013, Note_on_c, 0, 55, 0
2, 11015, Note_on_c, 0, 59, 0
2, 11018, Control_c, 0, 64, 0
2, 11189, Control_c, 0, 64, 127
2, 12483, Note_on_c, 0, 81, 62
2, 12531, Note_on_c, 0, 86, 61
2, 12570, Note_on_c, 0, 88, 76
2, 12623, Note_on_c, 0, 93, 82
2, 13440, Note_on_c, 0, 38, 0
2, 13440, Note_on_c, 0, 54, 0
2, 13440, Note_on_c, 0, 57, 0
2, 13440, Note_on_c, 0, 62, 0
2, 13440, Note_on_c, 0, 66, 0
2, 14773, Control_c, 0, 64, 0
2, 14789, Note_on_c, 0, 88, 0
2, 14792, Note_on_c, 0, 69, 0
2, 14794, Note_on_c, 0, 45, 0
2, 14799, Note_on_c, 0, 81, 0
2, 14799, Note_on_c, 0, 86, 0
2, 14799, Note_on_c, 0, 93, 0
2, 14986, Note_on_c, 0, 62, 70
2, 15029, Control_c, 0, 64, 127
2, 15312, Note_on_c, 0, 64, 77
2, 15313, Control_c, 0, 64, 0
2, 15325, Note_on_c, 0, 47, 48
2, 15326, Note_on_c, 0, 57, 58
2, 15331, Note_on_c, 0, 54, 45
2, 15421, Control_c, 0, 64, 127
2, 15613, Note_on_c, 0, 62, 0
2, 15624, Note_on_c, 0, 62, 74
2, 15782, Note_on_c, 0, 62, 0
2, 15791, Note_on_c, 0, 62, 70
2, 16442, Note_on_c, 0, 62, 0
2, 16451, Note_on_c, 0, 62, 73
2, 16604, Note_on_c, 0, 57, 0
2, 16605, Control_c, 0, 64, 0
2, 16608, Note_on_c, 0, 54, 0
2, 16610, Note_on_c, 0, 47, 0
2, 16611, Note_on_c, 0, 57, 62
2, 16611, Note_on_c, 0, 64, 0
2, 16616, Note_on_c, 0, 50, 62
2, 16617, Note_on_c, 0, 43, 59
2, 16622, Note_on_c, 0, 64, 77
2, 16636, Note_on_c, 0, 55, 49
2, 16650, Note_on_c, 0, 62, 0
2, 16657, Control_c, 0, 64, 127
2, 16915, Note_on_c, 0, 62, 74
2, 16926, Note_on_c, 0, 43, 0
2, 16930, Note_on_c, 0, 43, 41
2, 17072, Note_on_c, 0, 62, 0
2, 17081, Note_on_c, 0, 62, 73
2, 17771, Note_on_c, 0, 62, 0
2, 17780, Note_on_c, 0, 62, 78
2, 17935, Note_on_c, 0, 61, 85
2, 17955, Note_on_c, 0, 57, 0
2, 17961, Note_on_c, 0, 52, 59
2, 17961, Note_on_c, 0, 45, 61
2, 17964, Control_c, 0, 64, 0
2, 17965, Note_on_c, 0, 57, 61
2, 17967, Note_on_c, 0, 50, 0
2, 17967, Note_on_c, 0, 43, 0
2, 17967, Note_on_c, 0, 64, 0
2, 17978, Note_on_c, 0, 55, 0
2, 17986, Note_on_c, 0, 62, 0
2, 18055, Control_c, 0, 64, 127
2, 18234, Note_on_c, 0, 59, 74
2, 18408, Note_on_c, 0, 59, 0
2, 18413, Note_on_c, 0, 59, 64
2, 18724, Note_on_c, 0, 38, 58
2, 18862, Note_on_c, 0, 57, 0
2, 18867, Note_on_c, 0, 57, 77
2, 18872, Note_on_c, 0, 55, 70
2, 18885, Note_on_c, 0, 38, 0
2, 18885, Note_on_c, 0, 45, 0
2, 18889, Note_on_c, 0, 45, 53
2, 18894, Note_on_c, 0, 38, 54
2, 18895, Control_c, 0, 64, 0
2, 18895, Note_on_c, 0, 59, 0
2, 18896, Note_on_c, 0, 52, 0
2, 18896, Note_on_c, 0, 61, 0
2, 19046, Control_c, 0, 64, 127
2, 19472, Note_on_c, 0, 52, 58
2, 19773, Note_on_c, 0, 54, 67
2, 19778, Note_on_c, 0, 37, 64
2, 19793, Note_on_c, 0, 38, 0
2, 19796, Note_on_c, 0, 45, 0
2, 19797, Note_on_c, 0, 55, 0
2, 19797, Note_on_c, 0, 52, 0
2, 19802, Control_c, 0, 64, 0
2, 19875, Control_c, 0, 64, 127
2, 20086, Note_on_c, 0, 62, 82
2, 20237, Note_on_c, 0, 64, 84
2, 20382, Note_on_c, 0, 54, 0
2, 20390, Note_on_c, 0, 57, 0
2, 20391, Note_on_c, 0, 54, 62
2, 20392, Note_on_c, 0, 66, 88
2, 20397, Note_on_c, 0, 47, 64
2, 20398, Note_on_c, 0, 62, 0
2, 20400, Note_on_c, 0, 57, 66
2, 20402, Note_on_c, 0, 62, 66
2, 20417, Control_c, 0, 64, 0
2, 20417, Note_on_c, 0, 37, 0
2, 20422, Note_on_c, 0, 64, 0
2, 20497, Control_c, 0, 64, 127
2, 20674, Note_on_c, 0, 66, 0
2, 20682, Note_on_c, 0, 66, 93
2, 20843, Note_on_c, 0, 66, 0
2, 20853, Note_on_c, 0, 66, 85
2, 21313, Note_on_c, 0, 67, 95
2, 21603, Note_on_c, 0, 66, 0
2, 21614, Note_on_c, 0, 66, 86
2, 21634, Note_on_c, 0, 57, 0
2, 21638, Note_on_c, 0, 43, 56
2, 21638, Note_on_c, 0, 59, 67
2, 21638, Control_c, 0, 64, 0
2, 21642, Note_on_c, 0, 50, 55
2, 21644, Note_on_c, 0, 57, 60
2, 21651, Note_on_c, 0, 47, 0
2, 21653, Note_on_c, 0, 67, 0
2, 21665, Note_on_c, 0, 62, 0
2, 21672, Note_on_c, 0, 54, 0
2, 21749, Control_c, 0, 64, 127
2, 21776, Note_on_c, 0, 62, 82
2, 21941, Note_on_c, 0, 62, 0
2, 21949, Note_on_c, 0, 62, 74
2, 22041, Note_on_c, 0, 57, 0
2, 22056, Note_on_c, 0, 66, 0
2, 22556, Note_on_c, 0, 62, 0
2, 22566, Note_on_c, 0, 62, 80
2, 22579, Note_on_c, 0, 59, 0
2, 22588, Note_on_c, 0, 59, 48
2, 22875, Note_on_c, 0, 61, 82
2, 22882, Note_on_c, 0, 52, 62
2, 22882, Note_on_c, 0, 45, 66
2, 22885, Note_on_c, 0, 57, 63
2, 22893, Control_c, 0, 64, 0
2, 22904, Note_on_c, 0, 50, 0
2, 22905, Note_on_c, 0, 59, 0
2, 22907, Note_on_c, 0, 43, 0
2, 22932, Note_on_c, 0, 62, 0
2, 23016, Control_c, 0, 64, 127
2, 23170, Note_on_c, 0, 45, 0
2, 23179, Note_on_c, 0, 45, 51
2, 23180, Note_on_c, 0, 62, 77
2, 23352, Note_on_c, 0, 64, 76
2, 23640, Note_on_c, 0, 38, 66
2, 23784, Note_on_c, 0, 45, 0
2, 23793, Note_on_c, 0, 45, 57
2, 23800, Note_on_c, 0, 57, 0
2, 23800, Note_on_c, 0, 62, 0
2, 23808, Note_on_c, 0, 62, 75
2, 23808, Note_on_c, 0, 57, 68
2, 23812, Control_c, 0, 64, 0
2, 23826, Note_on_c, 0, 55, 56
2, 23828, Note_on_c, 0, 52, 0
2, 23829, Note_on_c, 0, 61, 0
2, 23938, Control_c, 0, 64, 127
2, 24407, Note_on_c, 0, 52, 53
2, 24715, Note_on_c, 0, 54, 68
2, 24718, Control_c, 0, 64, 0
2, 24718, Note_on_c, 0, 49, 58
2, 24721, Note_on_c, 0, 37, 62
2, 24729, Note_on_c, 0, 52, 0
2, 24731, Note_on_c, 0, 38, 0
2, 24733, Note_on_c, 0, 55, 0
2, 24733, Note_on_c, 0, 57, 0
2, 24814, Control_c, 0, 64, 127
2, 24960, Note_on_c, 0, 64, 0
2, 25040, Note_on_c, 0, 74, 89
2, 25344, Control_c, 0, 64, 0
2, 25348, Note_on_c, 0, 47, 73
2, 25348, Note_on_c, 0, 76, 93
2, 25351, Note_on_c, 0, 45, 0
2, 25352, Note_on_c, 0, 37, 0
2, 25356, Note_on_c, 0, 54, 0
2, 25359, Note_on_c, 0, 49, 0
2, 25363, Note_on_c, 0, 74, 0
2, 25367, Note_on_c, 0, 62, 0
2, 25451, Control_c, 0, 64, 127
2, 25638, Note_on_c, 0, 62, 68
2, 25646, Note_on_c, 0, 69, 61
2, 25651, Note_on_c, 0, 69, 0
2, 25652, Note_on_c, 0, 57, 69
2, 25662, Note_on_c, 0, 74, 84
2, 25797, Note_on_c, 0, 74, 0
2, 25803, Note_on_c, 0, 74, 76
2, 25971, Note_on_c, 0, 69, 79
2, 26426, Note_on_c, 0, 74, 0
2, 26431, Note_on_c, 0, 74, 83
2, 26571, Note_on_c, 0, 43, 68
2, 26595, Note_on_c, 0, 76, 0
2, 26601, Note_on_c, 0, 76, 88
2, 26603, Note_on_c, 0, 69, 0
2, 26613, Note_on_c, 0, 69, 59
2, 26651, Control_c, 0, 64, 0
2, 26672, Note_on_c, 0, 47, 0
2, 26703, Note_on_c, 0, 57, 0
2, 26764, Control_c, 0, 64, 127
2, 26880, Note_on_c, 0, 62, 0
2, 26884, Note_on_c, 0, 62, 70
2, 26887, Note_on_c, 0, 69, 0
2, 26887, Note_on_c, 0, 74, 0
2, 26892, Note_on_c, 0, 69, 63
2, 26895, Note_on_c, 0, 57, 70
2, 26898, Note_on_c, 0, 74, 91
2, 27041, Note_on_c, 0, 74, 0
2, 27046, Note_on_c, 0, 74, 80
2, 27194, Note_on_c, 0, 69, 0
2, 27205, Note_on_c, 0, 69, 82
2, 27648, Note_on_c, 0, 74, 0
2, 27653, Note_on_c, 0, 74, 87
2, 27806, Note_on_c, 0, 45, 74
2, 27811, Note_on_c, 0, 73, 97
2, 27816, Note_on_c, 0, 69, 0
2, 27826, Note_on_c, 0, 69, 78
2, 27827, Control_c, 0, 64, 0
2, 27835, Note_on_c, 0, 64, 75
2, 27841, Note_on_c, 0, 74, 0
2, 27841, Note_on_c, 0, 76, 0
2, 27842, Note_on_c, 0, 57, 0
2, 27845, Note_on_c, 0, 43, 0
2, 27863, Note_on_c, 0, 62, 0
2, 27947, Control_c, 0, 64, 127
2, 28124, Note_on_c, 0, 69, 0
2, 28126, Note_on_c, 0, 74, 97
2, 28135, Note_on_c, 0, 69, 55
2, 28257, Note_on_c, 0, 61, 72
2, 28280, Note_on_c, 0, 57, 64
2, 28416, Note_on_c, 0, 73, 0
2, 28422, Note_on_c, 0, 73, 88
2, 28425, Note_on_c, 0, 76, 98
2, 28592, Note_on_c, 0, 57, 0
2, 28592, Note_on_c, 0, 69, 0
2, 28602, Note_on_c, 0, 69, 59
2, 28603, Note_on_c, 0, 57, 65
2, 28728, Note_on_c, 0, 78, 98
2, 28738, Note_on_c, 0, 69, 0
2, 28741, Note_on_c, 0, 50, 79
2, 28742, Note_on_c, 0, 66, 75
2, 28744, Note_on_c, 0, 69, 75
2, 28746, Note_on_c, 0, 74, 0
2, 28750, Note_on_c, 0, 74, 79
2, 28771, Control_c, 0, 64, 0
2, 28779, Note_on_c, 0, 64, 0
2, 28779, Note_on_c, 0, 61, 0
2, 28779, Note_on_c, 0, 57, 0
2, 28779, Note_on_c, 0, 73, 0
2, 28779, Note_on_c, 0, 76, 0
2, 28780, Note_on_c, 0, 45, 0
2, 28915, Control_c, 0, 64, 127
2, 29206, Note_on_c, 0, 57, 53
2, 29360, Note_on_c, 0, 67, 72
2, 29387, Note_on_c, 0, 62, 59
2, 29650, Note_on_c, 0, 49, 59
2, 29652, Note_on_c, 0, 66, 0
2, 29663, Note_on_c, 0, 66, 67
2, 29668, Control_c, 0, 64, 0
2, 29672, Note_on_c, 0, 50, 0
2, 29706, Note_on_c, 0, 69, 0
2, 29729, Control_c, 0, 64, 127
2, 29952, Note_on_c, 0, 78, 0
2, 29961, Note_on_c, 0, 78, 89
2, 30090, Note_on_c, 0, 74, 0
2, 30101, Note_on_c, 0, 79, 86
2, 30269, Note_on_c, 0, 47, 68
2, 30274, Note_on_c, 0, 47, 0
2, 30274, Note_on_c, 0, 67, 0
2, 30283, Note_on_c, 0, 81, 90
2, 30286, Note_on_c, 0, 57, 0
2, 30286, Control_c, 0, 64, 0
2, 30286, Note_on_c, 0, 79, 0
2, 30287, Note_on_c, 0, 49, 0
2, 30289, Note_on_c, 0, 69, 73
2, 30289, Note_on_c, 0, 74, 71
2, 30289, Note_on_c, 0, 62, 0
2, 30289, Note_on_c, 0, 78, 0
2, 30299, Note_on_c, 0, 78, 67
2, 30305, Note_on_c, 0, 66, 0
2, 30382, Control_c, 0, 64, 127
2, 30581, Note_on_c, 0, 81, 0
2, 30586, Note_on_c, 0, 81, 88
2, 30594, Note_on_c, 0, 57, 65
2, 30597, Note_on_c, 0, 69, 0
2, 30597, Note_on_c, 0, 74, 0
2, 30601, Note_on_c, 0, 69, 59
2, 30604, Note_on_c, 0, 78, 0
2, 30608, Note_on_c, 0, 74, 64
2, 30615, Note_on_c, 0, 78, 58
2, 30735, Note_on_c, 0, 81, 0
2, 30746, Note_on_c, 0, 81, 94
2, 30750, Note_on_c, 0, 78, 0
2, 30755, Note_on_c, 0, 78, 70
2, 30758, Note_on_c, 0, 74, 0
2, 30767, Note_on_c, 0, 74, 58
2, 30888, Note_on_c, 0, 69, 0
2, 30893, Note_on_c, 0, 69, 82
2, 30912, Note_on_c, 0, 62, 68
2, 31203, Note_on_c, 0, 83, 98
2, 31492, Control_c, 0, 64, 0
2, 31495, Note_on_c, 0, 69, 0
2, 31495, Note_on_c, 0, 81, 0
2, 31503, Note_on_c, 0, 43, 75
2, 31505, Note_on_c, 0, 69, 90
2, 31505, Note_on_c, 0, 81, 98
2, 31506, Note_on_c, 0, 62, 0
2, 31506, Note_on_c, 0, 57, 0
2, 31508, Note_on_c, 0, 74, 0
2, 31508, Note_on_c, 0, 78, 0
2, 31511, Note_on_c, 0, 83, 0
2, 31695, Control_c, 0, 64, 127
2, 31814, Note_on_c, 0, 74, 87
2, 31836, Note_on_c, 0, 50, 56
2, 31971, Note_on_c, 0, 74, 0
2, 31980, Note_on_c, 0, 74, 79
2, 32130, Note_on_c, 0, 57, 61
2, 32152, Note_on_c, 0, 62, 45
2, 32440, Note_on_c, 0, 74, 0
2, 32450, Note_on_c, 0, 74, 82
2, 32589, Note_on_c, 0, 76, 88
2, 32725, Note_on_c, 0, 81, 0
2, 32726, Note_on_c, 0, 74, 0
2, 32727, Note_on_c, 0, 57, 0
2, 32727, Note_on_c, 0, 62, 0
2, 32727, Control_c, 0, 64, 0
2, 32727, Note_on_c, 0, 43, 0
2, 32728, Note_on_c, 0, 76, 0
2, 32737, Note_on_c, 0, 45, 74
2, 32739, Note_on_c, 0, 50, 0
2, 32739, Note_on_c, 0, 69, 0
2, 32742, Note_on_c, 0, 79, 96
2, 32751, Note_on_c, 0, 69, 82
2, 32762, Note_on_c, 0, 73, 72
2, 32862, Control_c, 0, 64, 127
2, 33029, Note_on_c, 0, 78, 85
2, 33054, Note_on_c, 0, 73, 0
2, 33059, Note_on_c, 0, 73, 40
2, 33199, Note_on_c, 0, 76, 95
2, 33349, Note_on_c, 0, 61, 67
2, 33503, Note_on_c, 0, 74, 89
2, 33661, Note_on_c, 0, 74, 0
2, 33671, Note_on_c, 0, 74, 89
2, 33810, Note_on_c, 0, 47, 68
2, 33873, Note_on_c, 0, 78, 0
2, 33876, Note_on_c, 0, 79, 0
2, 33881, Note_on_c, 0, 69, 0
2, 33883, Note_on_c, 0, 76, 0
2, 33890, Control_c, 0, 64, 0
2, 33899, Note_on_c, 0, 73, 0
2, 33907, Note_on_c, 0, 45, 0
2, 33914, Note_on_c, 0, 61, 0
2, 33945, Control_c, 0, 64, 127
2, 33964, Note_on_c, 0, 62, 94
2, 33971, Note_on_c, 0, 57, 86
2, 33971, Note_on_c, 0, 54, 77
2, 34258, Note_on_c, 0, 64, 101
2, 34412, Note_on_c, 0, 45, 88
2, 34463, Control_c, 0, 64, 0
2, 34470, Note_on_c, 0, 57, 0
2, 34471, Note_on_c, 0, 47, 0
2, 34471, Note_on_c, 0, 62, 0
2, 34471, Note_on_c, 0, 74, 0
2, 34471, Note_on_c, 0, 54, 0
2, 34472, Note_on_c, 0, 64, 0
2, 34565, Note_on_c, 0, 66, 108
2, 34567, Note_on_c, 0, 45, 0
2, 34568, Note_on_c, 0, 54, 97
2, 34568, Note_on_c, 0, 57, 98
2, 34572, Note_on_c, 0, 45, 88
2, 34629, Control_c, 0, 64, 127
2, 34870, Note_on_c, 0, 67, 108
2, 34892, Control_c, 0, 64, 0
2, 34899, Note_on_c, 0, 66, 0
2, 34903, Note_on_c, 0, 54, 0
2, 34920, Note_on_c, 0, 45, 0
2, 34920, Note_on_c, 0, 57, 0
2, 35190, Note_on_c, 0, 43, 91
2, 35193, Note_on_c, 0, 50, 96
2, 35193, Note_on_c, 0, 59, 93
2, 35193, Note_on_c, 0, 66, 104
2, 35251, Control_c, 0, 64, 127
2, 35496, Note_on_c, 0, 43, 0
2, 35496, Note_on_c, 0, 66, 0
2, 35504, Note_on_c, 0, 50, 0
2, 35504, Note_on_c, 0, 59, 0
2, 35505, Note_on_c, 0, 66, 101
2, 35506, Note_on_c, 0, 43, 79
2, 35515, Note_on_c, 0, 50, 80
2, 35515, Note_on_c, 0, 59, 81
2, 35768, Control_c, 0, 64, 0
2, 35781, Note_on_c, 0, 50, 0
2, 35781, Note_on_c, 0, 66, 0
2, 35783, Note_on_c, 0, 59, 0
2, 35796, Note_on_c, 0, 67, 0
2, 35811, Note_on_c, 0, 43, 0
2, 35815, Note_on_c, 0, 64, 104
2, 35957, Note_on_c, 0, 64, 0
2, 36114, Note_on_c, 0, 64, 94
2, 36119, Note_on_c, 0, 88, 95
2, 36120, Note_on_c, 0, 76, 92
2, 36122, Note_on_c, 0, 55, 80
2, 36124, Note_on_c, 0, 59, 84
2, 36157, Control_c, 0, 64, 127
2, 36410, Note_on_c, 0, 59, 0
2, 36415, Note_on_c, 0, 62, 87
2, 36416, Note_on_c, 0, 59, 61
2, 36733, Note_on_c, 0, 62, 0
2, 36734, Note_on_c, 0, 43, 67
2, 36742, Note_on_c, 0, 62, 85
2, 37037, Note_on_c, 0, 61, 89
2, 37040, Note_on_c, 0, 43, 0
2, 37044, Note_on_c, 0, 50, 76
2, 37045, Note_on_c, 0, 43, 63
2, 37048, Note_on_c, 0, 59, 0
2, 37052, Note_on_c, 0, 59, 74
2, 37340, Note_on_c, 0, 59, 0
2, 37351, Note_on_c, 0, 59, 78
2, 37501, Note_on_c, 0, 59, 0
2, 37512, Note_on_c, 0, 59, 73
2, 37622, Note_on_c, 0, 61, 0
2, 37623, Note_on_c, 0, 43, 0
2, 37624, Note_on_c, 0, 50, 0
2, 37624, Note_on_c, 0, 76, 0
2, 37624, Note_on_c, 0, 62, 0
2, 37626, Note_on_c, 0, 55, 0
2, 37628, Control_c, 0, 64, 0
2, 37632, Note_on_c, 0, 64, 0
2, 37632, Note_on_c, 0, 88, 0
2, 37633, Note_on_c, 0, 42, 67
2, 37693, Control_c, 0, 64, 127
2, 37797, Note_on_c, 0, 57, 82
2, 37946, Note_on_c, 0, 57, 0
2, 37949, Note_on_c, 0, 76, 81
2, 37951, Note_on_c, 0, 57, 66
2, 38252, Note_on_c, 0, 88, 88
2, 38265, Note_on_c, 0, 52, 60
2, 38269, Note_on_c, 0, 76, 0
2, 38274, Note_on_c, 0, 76, 44
2, 38533, Note_on_c, 0, 47, 74
2, 38542, Control_c, 0, 64, 0
2, 38546, Note_on_c, 0, 52, 0
2, 38547, Note_on_c, 0, 42, 0
2, 38550, Note_on_c, 0, 76, 0
2, 38551, Note_on_c, 0, 88, 0
2, 38560, Note_on_c, 0, 86, 94
2, 38561, Note_on_c, 0, 59, 0
2, 38563, Note_on_c, 0, 74, 81
2, 38568, Note_on_c, 0, 57, 0
2, 38578, Note_on_c, 0, 78, 56
2, 38591, Note_on_c, 0, 81, 59
2, 38592, Control_c, 0, 64, 127
2, 38848, Note_on_c, 0, 62, 98
2, 39156, Note_on_c, 0, 64, 102
2, 39160, Note_on_c, 0, 47, 0
2, 39164, Note_on_c, 0, 47, 85
2, 39279, Note_on_c, 0, 54, 82
2, 39446, Note_on_c, 0, 66, 108
2, 39453, Note_on_c, 0, 57, 97
2, 39592, Note_on_c, 0, 61, 96
2, 39751, Note_on_c, 0, 62, 0
2, 39754, Note_on_c, 0, 67, 108
2, 39755, Note_on_c, 0, 62, 102
2, 40028, Note_on_c, 0, 78, 0
2, 40037, Control_c, 0, 64, 0
2, 40040, Note_on_c, 0, 64, 0
2, 40040, Note_on_c, 0, 61, 0
2, 40040, Note_on_c, 0, 62, 0
2, 40040, Note_on_c, 0, 74, 0
2, 40040, Note_on_c, 0, 67, 0
2, 40040, Note_on_c, 0, 57, 0
2, 40040, Note_on_c, 0, 86, 0
2, 40041, Note_on_c, 0, 54, 0
2, 40043, Note_on_c, 0, 81, 0
2, 40058, Note_on_c, 0, 66, 0
2, 40066, Note_on_c, 0, 47, 0
2, 40069, Note_on_c, 0, 66, 107
2, 40077, Note_on_c, 0, 49, 97
2, 40078, Note_on_c, 0, 55, 95
2, 40078, Note_on_c, 0, 59, 95
2, 40120, Control_c, 0, 64, 127
2, 40358, Note_on_c, 0, 66, 0
2, 40366, Note_on_c, 0, 49, 0
2, 40369, Note_on_c, 0, 66, 102
2, 40371, Note_on_c, 0, 49, 84
2, 40373, Note_on_c, 0, 55, 0
2, 40373, Note_on_c, 0, 59, 0
2, 40377, Note_on_c, 0, 59, 82
2, 40380, Note_on_c, 0, 55, 80
2, 40613, Note_on_c, 0, 49, 0
2, 40614, Note_on_c, 0, 59, 0
2, 40666, Control_c, 0, 64, 0
2, 40681, Note_on_c, 0, 55, 0
2, 40683, Note_on_c, 0, 64, 104
2, 40696, Note_on_c, 0, 66, 0
2, 40834, Note_on_c, 0, 64, 0
2, 40998, Note_on_c, 0, 64, 88
2, 40998, Note_on_c, 0, 88, 100
2, 41001, Note_on_c, 0, 76, 95
2, 41008, Note_on_c, 0, 54, 74
2, 41011, Note_on_c, 0, 58, 77
2, 41014, Note_on_c, 0, 61, 80
2, 41026, Control_c, 0, 64, 127
2, 41307, Note_on_c, 0, 62, 89
2, 41599, Note_on_c, 0, 42, 77
2, 41625, Note_on_c, 0, 62, 0
2, 41630, Note_on_c, 0, 62, 84
2, 41909, Note_on_c, 0, 58, 0
2, 41909, Note_on_c, 0, 61, 0
2, 41915, Note_on_c, 0, 61, 93
2, 41920, Note_on_c, 0, 58, 71
2, 41925, Note_on_c, 0, 54, 0
2, 41936, Note_on_c, 0, 54, 67
2, 42223, Note_on_c, 0, 49, 62
2, 42362, Note_on_c, 0, 61, 0
2, 42372, Note_on_c, 0, 61, 80
2, 42495, Note_on_c, 0, 54, 0
2, 42497, Note_on_c, 0, 64, 0
2, 42497, Note_on_c, 0, 49, 0
2, 42498, Note_on_c, 0, 62, 0
2, 42501, Note_on_c, 0, 76, 0
2, 42504, Control_c, 0, 64, 0
2, 42508, Note_on_c, 0, 88, 0
2, 42515, Note_on_c, 0, 47, 74
2, 42516, Note_on_c, 0, 58, 0
2, 42524, Note_on_c, 0, 42, 0
2, 42624, Control_c, 0, 64, 127
2, 42680, Note_on_c, 0, 62, 81
2, 42820, Note_on_c, 0, 54, 69
2, 42839, Note_on_c, 0, 62, 0
2, 42846, Note_on_c, 0, 62, 78
2, 43120, Note_on_c, 0, 57, 68
2, 43123, Note_on_c, 0, 74, 72
2, 43415, Note_on_c, 0, 62, 0
2, 43420, Note_on_c, 0, 62, 69
2, 43440, Note_on_c, 0, 81, 72
2, 43727, Note_on_c, 0, 45, 66
2, 43731, Note_on_c, 0, 88, 86
2, 43734, Control_c, 0, 64, 0
2, 43741, Note_on_c, 0, 47, 0
2, 43742, Note_on_c, 0, 54, 0
2, 43760, Note_on_c, 0, 61, 0
2, 43791, Note_on_c, 0, 74, 0
2, 43791, Control_c, 0, 64, 127
2, 44022, Note_on_c, 0, 86, 73
2, 44034, Note_on_c, 0, 52, 62
2, 44083, Note_on_c, 0, 88, 0
2, 44094, Note_on_c, 0, 88, 80
2, 44167, Note_on_c, 0, 86, 0
2, 44177, Note_on_c, 0, 86, 74
2, 44313, Note_on_c, 0, 81, 0
2, 44320, Note_on_c, 0, 81, 82
2, 44338, Note_on_c, 0, 61, 68
2, 44620, Note_on_c, 0, 62, 0
2, 44628, Note_on_c, 0, 62, 73
2, 44648, Note_on_c, 0, 74, 60
2, 44783, Note_on_c, 0, 64, 75
2, 44949, Note_on_c, 0, 65, 85
2, 44951, Note_on_c, 0, 58, 66
2, 44953, Note_on_c, 0, 43, 66
2, 44953, Note_on_c, 0, 53, 66
2, 44954, Control_c, 0, 64, 0
2, 44976, Note_on_c, 0, 45, 0
2, 44977, Note_on_c, 0, 81, 0
2, 44978, Note_on_c, 0, 52, 0
2, 44978, Note_on_c, 0, 61, 0
2, 44979, Note_on_c, 0, 64, 0
2, 44981, Note_on_c, 0, 57, 0
2, 44989, Note_on_c, 0, 74, 0
2, 44997, Note_on_c, 0, 86, 0
2, 44997, Note_on_c, 0, 88, 0
2, 45004, Control_c, 0, 64, 127
2, 45417, Note_on_c, 0, 64, 75
2, 45557, Note_on_c, 0, 58, 0
2, 45561, Note_on_c, 0, 58, 61
2, 45580, Note_on_c, 0, 53, 0
2, 45591, Note_on_c, 0, 53, 41
2, 45592, Note_on_c, 0, 50, 50
2, 45711, Note_on_c, 0, 62, 0
2, 45719, Note_on_c, 0, 62, 80
2, 45872, Note_on_c, 0, 62, 0
2, 45881, Note_on_c, 0, 62, 74
2, 46172, Note_on_c, 0, 58, 0
2, 46183, Note_on_c, 0, 58, 57
2, 46185, Note_on_c, 0, 77, 85
2, 46195, Note_on_c, 0, 50, 0
2, 46206, Note_on_c, 0, 50, 53
2, 46211, Note_on_c, 0, 45, 40
2, 46218, Note_on_c, 0, 45, 0
2, 46218, Note_on_c, 0, 53, 0
2, 46223, Note_on_c, 0, 53, 45
2, 46678, Note_on_c, 0, 76, 81
2, 46794, Note_on_c, 0, 58, 0
2, 46798, Note_on_c, 0, 58, 71
2, 46824, Note_on_c, 0, 53, 0
2, 46832, Note_on_c, 0, 50, 0
2, 46833, Note_on_c, 0, 53, 55
2, 46837, Note_on_c, 0, 50, 49
2, 46972, Note_on_c, 0, 74, 80
2, 47101, Note_on_c, 0, 43, 0
2, 47111, Note_on_c, 0, 43, 79
2, 47124, Note_on_c, 0, 64, 0
2, 47135, Note_on_c, 0, 64, 77
2, 47255, Note_on_c, 0, 65, 0
2, 47264, Note_on_c, 0, 65, 84
2, 47424, Note_on_c, 0, 64, 0
2, 47434, Note_on_c, 0, 52, 69
2, 47435, Note_on_c, 0, 64, 83
2, 47437, Note_on_c, 0, 67, 94
2, 47438, Note_on_c, 0, 45, 72
2, 47441, Note_on_c, 0, 55, 74
2, 47461, Control_c, 0, 64, 0
2, 47466, Note_on_c, 0, 43, 0
2, 47468, Note_on_c, 0, 50, 0
2, 47468, Note_on_c, 0, 62, 0
2, 47468, Note_on_c, 0, 77, 0
2, 47468, Note_on_c, 0, 74, 0
2, 47469, Note_on_c, 0, 76, 0
2, 47469, Note_on_c, 0, 65, 0
2, 47471, Note_on_c, 0, 53, 0
2, 47485, Note_on_c, 0, 58, 0
2, 47539, Control_c, 0, 64, 127
2, 47914, Note_on_c, 0, 65, 98
2, 48053, Note_on_c, 0, 52, 0
2, 48053, Note_on_c, 0, 55, 0
2, 48064, Note_on_c, 0, 52, 65
2, 48064, Note_on_c, 0, 60, 69
2, 48064, Note_on_c, 0, 55, 62
2, 48168, Note_on_c, 0, 64, 0
2, 48218, Note_on_c, 0, 64, 85
2, 48368, Note_on_c, 0, 64, 0
2, 48373, Note_on_c, 0, 64, 84
2, 48652, Note_on_c, 0, 52, 0
2, 48652, Note_on_c, 0, 60, 0
2, 48660, Note_on_c, 0, 55, 0
2, 48661, Note_on_c, 0, 60, 69
2, 48664, Note_on_c, 0, 52, 60
2, 48664, Note_on_c, 0, 79, 92
2, 48667, Note_on_c, 0, 55, 60
2, 48898, Note_on_c, 0, 67, 0
2, 49082, Note_on_c, 0, 65, 0
2, 49128, Note_on_c, 0, 77, 93
2, 49267, Note_on_c, 0, 60, 0
2, 49274, Note_on_c, 0, 52, 0
2, 49274, Note_on_c, 0, 55, 0
2, 49278, Note_on_c, 0, 60, 82
2, 49281, Note_on_c, 0, 55, 66
2, 49286, Note_on_c, 0, 52, 63
2, 49432, Note_on_c, 0, 76, 93
2, 49574, Note_on_c, 0, 45, 0
2, 49578, Note_on_c, 0, 45, 80
2, 49585, Note_on_c, 0, 65, 85
2, 49721, Note_on_c, 0, 67, 90
2, 49881, Note_on_c, 0, 65, 0
2, 49884, Note_on_c, 0, 58, 82
2, 49886, Note_on_c, 0, 69, 102
2, 49887, Note_on_c, 0, 46, 80
2, 49891, Note_on_c, 0, 65, 89
2, 49892, Note_on_c, 0, 53, 78
2, 49922, Control_c, 0, 64, 0
2, 49922, Note_on_c, 0, 64, 0
2, 49922, Note_on_c, 0, 77, 0
2, 49922, Note_on_c, 0, 55, 0
2, 49923, Note_on_c, 0, 45, 0
2, 49923, Note_on_c, 0, 76, 0
2, 49923, Note_on_c, 0, 79, 0
2, 49943, Note_on_c, 0, 52, 0
2, 49950, Note_on_c, 0, 60, 0
2, 49950, Note_on_c, 0, 67, 0
2, 50012, Control_c, 0, 64, 127
2, 50197, Note_on_c, 0, 67, 96
2, 50334, Note_on_c, 0, 53, 0
2, 50345, Note_on_c, 0, 53, 64
2, 50496, Note_on_c, 0, 58, 0
2, 50500, Note_on_c, 0, 79, 100
2, 50502, Note_on_c, 0, 70, 89
2, 50503, Note_on_c, 0, 46, 0
2, 50503, Note_on_c, 0, 67, 0
2, 50505, Note_on_c, 0, 58, 83
2, 50507, Note_on_c, 0, 62, 88
2, 50507, Note_on_c, 0, 67, 89
2, 50509, Note_on_c, 0, 46, 70
2, 50510, Note_on_c, 0, 74, 83
2, 50532, Note_on_c, 0, 69, 0
2, 50553, Control_c, 0, 64, 0
2, 50611, Note_on_c, 0, 65, 0
2, 50611, Control_c, 0, 64, 127
2, 50803, Note_on_c, 0, 53, 0
2, 50813, Note_on_c, 0, 53, 76
2, 50814, Note_on_c, 0, 65, 96
2, 51114, Note_on_c, 0, 47, 93
2, 51118, Note_on_c, 0, 65, 0
2, 51120, Note_on_c, 0, 55, 91
2, 51121, Note_on_c, 0, 59, 96
2, 51122, Note_on_c, 0, 65, 99
2, 51144, Note_on_c, 0, 58, 0
2, 51144, Note_on_c, 0, 46, 0
2, 51144, Note_on_c, 0, 74, 0
2, 51144, Note_on_c, 0, 53, 0
2, 51144, Note_on_c, 0, 79, 0
2, 51145, Note_on_c, 0, 70, 0
2, 51145, Note_on_c, 0, 62, 0
2, 51145, Note_on_c, 0, 67, 0
2, 51147, Control_c, 0, 64, 0
2, 51210, Control_c, 0, 64, 127
2, 51429, Note_on_c, 0, 62, 99
2, 51432, Note_on_c, 0, 47, 0
2, 51440, Note_on_c, 0, 47, 64
2, 51577, Note_on_c, 0, 53, 77
2, 51728, Note_on_c, 0, 72, 99
2, 51728, Note_on_c, 0, 69, 106
2, 51729, Note_on_c, 0, 81, 105
2, 51732, Note_on_c, 0, 55, 0
2, 51732, Note_on_c, 0, 59, 0
2, 51732, Note_on_c, 0, 62, 0
2, 51737, Note_on_c, 0, 62, 95
2, 51739, Note_on_c, 0, 74, 89
2, 51743, Note_on_c, 0, 55, 81
2, 51743, Note_on_c, 0, 59, 85
2, 51891, Control_c, 0, 64, 0
2, 51905, Note_on_c, 0, 69, 0
2, 51906, Note_on_c, 0, 81, 0
2, 51907, Note_on_c, 0, 62, 0
2, 51907, Note_on_c, 0, 72, 0
2, 51909, Note_on_c, 0, 53, 0
2, 51911, Note_on_c, 0, 74, 0
2, 51911, Note_on_c, 0, 47, 0
2, 51911, Note_on_c, 0, 55, 0
2, 51916, Note_on_c, 0, 65, 0
2, 51932, Note_on_c, 0, 59, 0
2, 52052, Note_on_c, 0, 60, 98
2, 52053, Note_on_c, 0, 79, 107
2, 52057, Note_on_c, 0, 55, 86
2, 52058, Note_on_c, 0, 48, 91
2, 52062, Note_on_c, 0, 72, 91
2, 52065, Note_on_c, 0, 67, 100
2, 52066, Note_on_c, 0, 76, 97
2, 52093, Control_c, 0, 64, 127
2, 52512, Note_on_c, 0, 52, 66
2, 52661, Note_on_c, 0, 72, 0
2, 52664, Note_on_c, 0, 81, 109
2, 52671, Note_on_c, 0, 72, 97
2, 52672, Note_on_c, 0, 69, 101
2, 52677, Note_on_c, 0, 76, 0
2, 52680, Note_on_c, 0, 62, 91
2, 52681, Note_on_c, 0, 76, 85
2, 52684, Note_on_c, 0, 74, 85
2, 52972, Note_on_c, 0, 64, 105
2, 53237, Note_on_c, 0, 79, 0
2, 53245, Note_on_c, 0, 67, 0
2, 53248, Note_on_c, 0, 79, 107
2, 53255, Note_on_c, 0, 67, 98
2, 53276, Note_on_c, 0, 48, 0
2, 53282, Control_c, 0, 64, 0
2, 53286, Note_on_c, 0, 48, 84
2, 53295, Note_on_c, 0, 64, 0
2, 53296, Note_on_c, 0, 55, 0
2, 53296, Note_on_c, 0, 52, 0
2, 53296, Note_on_c, 0, 62, 0
2, 53296, Note_on_c, 0, 60, 0
2, 53296, Note_on_c, 0, 76, 0
2, 53297, Note_on_c, 0, 81, 0
2, 53306, Control_c, 0, 64, 127
2, 53411, Note_on_c, 0, 77, 104
2, 53412, Note_on_c, 0, 65, 100
2, 53575, Note_on_c, 0, 69, 0
2, 53579, Note_on_c, 0, 57, 100
2, 53580, Note_on_c, 0, 49, 100
2, 53582, Note_on_c, 0, 76, 107
2, 53584, Note_on_c, 0, 64, 98
2, 53584, Note_on_c, 0, 73, 105
2, 53586, Note_on_c, 0, 69, 94
2, 53605, Control_c, 0, 64, 0
2, 53606, Note_on_c, 0, 74, 0
2, 53607, Note_on_c, 0, 77, 0
2, 53608, Note_on_c, 0, 65, 0
2, 53614, Note_on_c, 0, 79, 0
2, 53621, Note_on_c, 0, 48, 0
2, 53621, Note_on_c, 0, 67, 0
2, 53629, Note_on_c, 0, 72, 0
2, 53660, Control_c, 0, 64, 127
2, 53985, Note_on_c, 0, 48, 24
2, 53990, Note_on_c, 0, 48, 0
2, 54028, Note_on_c, 0, 64, 0
2, 54032, Note_on_c, 0, 52, 92
2, 54039, Note_on_c, 0, 64, 69
2, 54213, Note_on_c, 0, 64, 0
2, 54213, Note_on_c, 0, 76, 0
2, 54215, Control_c, 0, 64, 0
2, 54217, Note_on_c, 0, 76, 111
2, 54217, Note_on_c, 0, 56, 107
2, 54219, Note_on_c, 0, 44, 105
2, 54219, Note_on_c, 0, 68, 107
2, 54221, Note_on_c, 0, 64, 104
2, 54243, Control_c, 0, 64, 127
2, 54363, Note_on_c, 0, 75, 101
2, 54366, Note_on_c, 0, 68, 0
2, 54377, Note_on_c, 0, 68, 75
2, 54378, Note_on_c, 0, 63, 95
2, 54497, Note_on_c, 0, 44, 0
2, 54504, Note_on_c, 0, 76, 0
2, 54508, Note_on_c, 0, 32, 96
2, 54508, Note_on_c, 0, 44, 100
2, 54512, Note_on_c, 0, 64, 0
2, 54514, Note_on_c, 0, 76, 106
2, 54521, Note_on_c, 0, 64, 99
2, 54656, Note_on_c, 0, 78, 108
2, 54675, Note_on_c, 0, 66, 96
2, 54685, Control_c, 0, 64, 0
2, 54701, Note_on_c, 0, 75, 0
2, 54702, Note_on_c, 0, 56, 0
2, 54703, Note_on_c, 0, 32, 0
2, 54703, Note_on_c, 0, 52, 0
2, 54704, Note_on_c, 0, 63, 0
2, 54704, Note_on_c, 0, 68, 0
2, 54705, Note_on_c, 0, 49, 0
2, 54706, Note_on_c, 0, 73, 0
2, 54707, Note_on_c, 0, 66, 0
2, 54709, Note_on_c, 0, 78, 0
2, 54712, Note_on_c, 0, 57, 0
2, 54720, Note_on_c, 0, 69, 0
2, 54720, Note_on_c, 0, 76, 0
2, 54727, Note_on_c, 0, 44, 0
2, 54727, Note_on_c, 0, 64, 0
2, 54831, Note_on_c, 0, 76, 112
2, 54836, Note_on_c, 0, 73, 106
2, 54838, Note_on_c, 0, 64, 106
2, 54838, Note_on_c, 0, 68, 102
2, 54840, Note_on_c, 0, 25, 94
2, 54841, Note_on_c, 0, 37, 105
2, 54858, Control_c, 0, 64, 127
2, 55319, Note_on_c, 0, 37, 0
2, 55322, Note_on_c, 0, 49, 98
2, 55326, Note_on_c, 0, 37, 73
2, 55449, Note_on_c, 0, 64, 0
2, 55449, Note_on_c, 0, 68, 0
2, 55449, Note_on_c, 0, 76, 0
2, 55456, Note_on_c, 0, 76, 111
2, 55460, Note_on_c, 0, 68, 110
2, 55461, Note_on_c, 0, 64, 108
2, 55472, Note_on_c, 0, 73, 0
2, 55478, Note_on_c, 0, 61, 89
2, 55478, Note_on_c, 0, 73, 74
2, 55483, Note_on_c, 0, 52, 87
2, 55484, Note_on_c, 0, 44, 67
2, 55485, Note_on_c, 0, 56, 75
2, 55492, Control_c, 0, 64, 0
2, 55503, Control_c, 0, 64, 127
2, 55615, Note_on_c, 0, 75, 109
2, 55616, Note_on_c, 0, 63, 106
2, 55741, Note_on_c, 0, 49, 0
2, 55749, Note_on_c, 0, 37, 0
2, 55751, Note_on_c, 0, 49, 100
2, 55754, Note_on_c, 0, 37, 81
2, 55764, Note_on_c, 0, 76, 0
2, 55769, Note_on_c, 0, 76, 112
2, 55772, Note_on_c, 0, 64, 0
2, 55776, Note_on_c, 0, 64, 103
2, 55911, Note_on_c, 0, 78, 113
2, 55922, Note_on_c, 0, 66, 99
2, 55956, Note_on_c, 0, 25, 0
2, 55976, Control_c, 0, 64, 0
2, 55987, Note_on_c, 0, 75, 0
2, 55987, Note_on_c, 0, 56, 0
2, 55987, Note_on_c, 0, 63, 0
2, 55987, Note_on_c, 0, 61, 0
2, 55988, Note_on_c, 0, 64, 0
2, 55988, Note_on_c, 0, 52, 0
2, 55989, Note_on_c, 0, 76, 0
2, 55989, Note_on_c, 0, 73, 0
2, 55989, Note_on_c, 0, 66, 0
2, 55989, Note_on_c, 0, 44, 0
2, 55990, Note_on_c, 0, 78, 0
2, 56002, Note_on_c, 0, 49, 0
2, 56002, Note_on_c, 0, 68, 0
2, 56010, Note_on_c, 0, 37, 0
2, 56078, Note_on_c, 0, 76, 112
2, 56082, Note_on_c, 0, 73, 109
2, 56082, Note_on_c, 0, 45, 112
2, 56083, Note_on_c, 0, 64, 107
2, 56084, Note_on_c, 0, 33, 100
2, 56084, Note_on_c, 0, 69, 102
2, 56094, Control_c, 0, 64, 127
2, 56563, Note_on_c, 0, 45, 0
2, 56573, Note_on_c, 0, 45, 95
2, 56580, Note_on_c, 0, 57, 72
2, 56586, Note_on_c, 0, 57, 0
2, 56678, Note_on_c, 0, 76, 0
2, 56686, Note_on_c, 0, 64, 0
2, 56686, Note_on_c, 0, 73, 0
2, 56689, Note_on_c, 0, 76, 113
2, 56693, Note_on_c, 0, 69, 0
2, 56695, Note_on_c, 0, 64, 111
2, 56697, Note_on_c, 0, 73, 107
2, 56703, Note_on_c, 0, 61, 106
2, 56703, Note_on_c, 0, 69, 97
2, 56704, Control_c, 0, 64, 0
2, 56712, Note_on_c, 0, 57, 92
2, 56720, Note_on_c, 0, 52, 86
2, 56724, Control_c, 0, 64, 127
2, 56865, Note_on_c, 0, 75, 104
2, 56866, Note_on_c, 0, 63, 106
2, 56885, Note_on_c, 0, 73, 0
2, 56891, Note_on_c, 0, 73, 60
2, 56993, Note_on_c, 0, 45, 0
2, 56993, Note_on_c, 0, 76, 0
2, 57000, Note_on_c, 0, 64, 0
2, 57002, Note_on_c, 0, 76, 109
2, 57004, Note_on_c, 0, 45, 103
2, 57012, Note_on_c, 0, 64, 105
2, 57154, Note_on_c, 0, 45, 0
2, 57157, Note_on_c, 0, 78, 115
2, 57162, Note_on_c, 0, 33, 0
2, 57162, Note_on_c, 0, 66, 104
2, 57165, Note_on_c, 0, 45, 92
2, 57171, Note_on_c, 0, 33, 75
2, 57214, Control_c, 0, 64, 0
2, 57225, Note_on_c, 0, 33, 0
2, 57226, Note_on_c, 0, 61, 0
2, 57226, Note_on_c, 0, 64, 0
2, 57226, Note_on_c, 0, 52, 0
2, 57226, Note_on_c, 0, 75, 0
2, 57227, Note_on_c, 0, 63, 0
2, 57227, Note_on_c, 0, 57, 0
2, 57227, Note_on_c, 0, 45, 0
2, 57227, Note_on_c, 0, 69, 0
2, 57227, Note_on_c, 0, 73, 0
2, 57239, Note_on_c, 0, 76, 0
2, 57319, Note_on_c, 0, 80, 110
2, 57321, Note_on_c, 0, 68, 111
2, 57322, Note_on_c, 0, 71, 103
2, 57323, Note_on_c, 0, 47, 109
2, 57325, Note_on_c, 0, 35, 98
2, 57331, Note_on_c, 0, 66, 0
2, 57346, Control_c, 0, 64, 127
2, 57628, Note_on_c, 0, 81, 111
2, 57636, Note_on_c, 0, 69, 104
2, 57753, Note_on_c, 0, 35, 0
2, 57753, Note_on_c, 0, 47, 0
2, 57758, Note_on_c, 0, 47, 98
2, 57763, Note_on_c, 0, 35, 90
2, 57784, Note_on_c, 0, 78, 0
2, 57789, Note_on_c, 0, 78, 111
2, 57792, Note_on_c, 0, 71, 0
2, 57796, Note_on_c, 0, 66, 103
2, 57800, Note_on_c, 0, 71, 96
2, 57815, Note_on_c, 0, 75, 84
2, 57941, Note_on_c, 0, 54, 97
2, 57944, Note_on_c, 0, 59, 101
2, 57946, Note_on_c, 0, 51, 91
2, 58102, Note_on_c, 0, 76, 114
2, 58102, Note_on_c, 0, 64, 110
2, 58245, Note_on_c, 0, 47, 0
2, 58255, Note_on_c, 0, 47, 94
2, 58406, Note_on_c, 0, 68, 0
2, 58406, Note_on_c, 0, 71, 0
2, 58406, Note_on_c, 0, 80, 0
2, 58414, Note_on_c, 0, 68, 112
2, 58414, Note_on_c, 0, 80, 114
2, 58417, Note_on_c, 0, 71, 103
2, 58491, Control_c, 0, 64, 0
2, 58500, Note_on_c, 0, 35, 0
2, 58501, Note_on_c, 0, 75, 0
2, 58501, Note_on_c, 0, 81, 0
2, 58501, Note_on_c, 0, 76, 0
2, 58501, Note_on_c, 0, 59, 0
2, 58502, Note_on_c, 0, 69, 0
2, 58502, Note_on_c, 0, 78, 0
2, 58502, Note_on_c, 0, 54, 0
2, 58502, Note_on_c, 0, 66, 0
2, 58502, Note_on_c, 0, 51, 0
2, 58503, Note_on_c, 0, 64, 0
2, 58529, Note_on_c, 0, 47, 0
2, 58554, Note_on_c, 0, 52, 107
2, 58557, Note_on_c, 0, 40, 104
2, 58590, Control_c, 0, 64, 127
2, 58850, Note_on_c, 0, 47, 103
2, 58869, Note_on_c, 0, 59, 83
2, 59166, Note_on_c, 0, 68, 0
2, 59174, Note_on_c, 0, 59, 0
2, 59175, Note_on_c, 0, 51, 110
2, 59176, Note_on_c, 0, 68, 109
2, 59178, Note_on_c, 0, 39, 100
2, 59180, Control_c, 0, 64, 0
2, 59180, Note_on_c, 0, 59, 96
2, 59186, Note_on_c, 0, 47, 0
2, 59186, Note_on_c, 0, 40, 0
2, 59187, Note_on_c, 0, 52, 0
2, 59251, Control_c, 0, 64, 127
2, 59468, Note_on_c, 0, 47, 95
2, 59471, Note_on_c, 0, 35, 85
2, 59473, Note_on_c, 0, 80, 0
2, 59481, Note_on_c, 0, 80, 112
2, 59481, Note_on_c, 0, 35, 0
2, 59481, Note_on_c, 0, 68, 0
2, 59486, Note_on_c, 0, 68, 100
2, 59624, Note_on_c, 0, 81, 113
2, 59625, Note_on_c, 0, 69, 108
2, 59696, Note_on_c, 0, 59, 0
2, 59703, Control_c, 0, 64, 0
2, 59709, Note_on_c, 0, 68, 0
2, 59709, Note_on_c, 0, 80, 0
2, 59711, Note_on_c, 0, 69, 0
2, 59711, Note_on_c, 0, 71, 0
2, 59712, Note_on_c, 0, 51, 0
2, 59712, Note_on_c, 0, 39, 0
2, 59713, Note_on_c, 0, 81, 0
2, 59727, Note_on_c, 0, 47, 0
2, 59792, Note_on_c, 0, 37, 102
2, 59792, Note_on_c, 0, 83, 111
2, 59793, Note_on_c, 0, 71, 109
2, 59797, Note_on_c, 0, 49, 106
2, 59803, Note_on_c, 0, 76, 96
2, 59807, Note_on_c, 0, 80, 98
2, 59819, Control_c, 0, 64, 127
2, 60088, Note_on_c, 0, 83, 0
2, 60096, Note_on_c, 0, 71, 0
2, 60096, Note_on_c, 0, 80, 0
2, 60098, Note_on_c, 0, 83, 111
2, 60101, Note_on_c, 0, 71, 97
2, 60103, Note_on_c, 0, 76, 0
2, 60105, Note_on_c, 0, 80, 100
2, 60111, Note_on_c, 0, 76, 95
2, 60234, Note_on_c, 0, 37, 0
2, 60234, Note_on_c, 0, 49, 0
2, 60238, Note_on_c, 0, 49, 100
2, 60245, Note_on_c, 0, 37, 87
2, 60249, Note_on_c, 0, 71, 0
2, 60257, Note_on_c, 0, 83, 0
2, 60261, Note_on_c, 0, 71, 95
2, 60263, Note_on_c, 0, 83, 96
2, 60264, Note_on_c, 0, 76, 0
2, 60272, Note_on_c, 0, 80, 0
2, 60275, Note_on_c, 0, 76, 83
2, 60276, Note_on_c, 0, 80, 87
2, 60407, Note_on_c, 0, 64, 108
2, 60410, Note_on_c, 0, 56, 103
2, 60415, Note_on_c, 0, 59, 90
2, 60549, Note_on_c, 0, 71, 0
2, 60549, Note_on_c, 0, 83, 0
2, 60556, Note_on_c, 0, 76, 0
2, 60560, Note_on_c, 0, 71, 107
2, 60560, Note_on_c, 0, 83, 111
2, 60564, Note_on_c, 0, 80, 0
2, 60567, Note_on_c, 0, 76, 103
2, 60568, Note_on_c, 0, 80, 98
2, 60702, Note_on_c, 0, 49, 0
2, 60710, Note_on_c, 0, 37, 0
2, 60711, Note_on_c, 0, 49, 106
2, 60717, Note_on_c, 0, 37, 82
2, 60857, Note_on_c, 0, 85, 113
2, 60859, Note_on_c, 0, 73, 115
2, 60892, Control_c, 0, 64, 0
2, 60900, Note_on_c, 0, 37, 0
2, 60904, Note_on_c, 0, 56, 0
2, 60904, Note_on_c, 0, 49, 0
2, 60905, Note_on_c, 0, 71, 0
2, 60905, Note_on_c, 0, 80, 0
2, 60906, Note_on_c, 0, 64, 0
2, 60906, Note_on_c, 0, 59, 0
2, 60925, Note_on_c, 0, 76, 0
2, 60925, Note_on_c, 0, 83, 0
2, 60971, Note_on_c, 0, 73, 0
2, 60986, Note_on_c, 0, 85, 0
2, 61020, Note_on_c, 0, 83, 112
2, 61021, Note_on_c, 0, 71, 111
2, 61021, Note_on_c, 0, 33, 98
2, 61022, Note_on_c, 0, 45, 108
2, 61030, Note_on_c, 0, 76, 95
2, 61032, Note_on_c, 0, 80, 100
2, 61040, Control_c, 0, 64, 127
2, 61324, Note_on_c, 0, 45, 0
2, 61324, Note_on_c, 0, 76, 0
2, 61332, Note_on_c, 0, 33, 0
2, 61333, Note_on_c, 0, 76, 112
2, 61334, Note_on_c, 0, 45, 100
2, 61335, Note_on_c, 0, 64, 106
2, 61336, Note_on_c, 0, 33, 86
2, 61343, Note_on_c, 0, 73, 88
2, 61474, Note_on_c, 0, 52, 91
2, 61632, Note_on_c, 0, 52, 0
2, 61639, Note_on_c, 0, 64, 0
2, 61642, Note_on_c, 0, 52, 94
2, 61644, Note_on_c, 0, 88, 112
2, 61644, Note_on_c, 0, 64, 106
2, 61647, Note_on_c, 0, 76, 0
2, 61649, Note_on_c, 0, 78, 114
2, 61649, Note_on_c, 0, 61, 109
2, 61651, Note_on_c, 0, 76, 110
2, 61653, Note_on_c, 0, 85, 87
2, 61675, Note_on_c, 0, 73, 0
2, 61682, Note_on_c, 0, 83, 0
2, 61686, Note_on_c, 0, 52, 0
2, 61688, Note_on_c, 0, 71, 0
2, 61689, Control_c, 0, 64, 0
2, 61689, Note_on_c, 0, 80, 0
2, 61698, Note_on_c, 0, 78, 0
2, 61701, Note_on_c, 0, 45, 0
2, 61708, Note_on_c, 0, 33, 0
2, 61716, Note_on_c, 0, 64, 0
2, 61724, Note_on_c, 0, 61, 0
2, 61724, Note_on_c, 0, 76, 0
2, 61770, Note_on_c, 0, 85, 0
2, 61923, Note_on_c, 0, 88, 0
2, 61967, Note_on_c, 0, 87, 111
2, 61972, Note_on_c, 0, 75, 112
2, 61975, Note_on_c, 0, 47, 108
2, 61980, Note_on_c, 0, 83, 102
2, 61981, Note_on_c, 0, 35, 100
2, 61981, Note_on_c, 0, 78, 103
2, 62000, Control_c, 0, 64, 127
2, 62438, Note_on_c, 0, 47, 0
2, 62442, Note_on_c, 0, 47, 102
2, 62576, Note_on_c, 0, 83, 0
2, 62584, Note_on_c, 0, 83, 107
2, 62585, Note_on_c, 0, 71, 106
2, 62738, Note_on_c, 0, 59, 96
2, 62876, Note_on_c, 0, 75, 0
2, 62876, Note_on_c, 0, 78, 0
2, 62879, Note_on_c, 0, 66, 108
2, 62881, Note_on_c, 0, 78, 111
2, 62885, Note_on_c, 0, 63, 102
2, 62885, Note_on_c, 0, 75, 106
2, 63022, Note_on_c, 0, 83, 0
2, 63030, Note_on_c, 0, 83, 107
2, 63197, Note_on_c, 0, 80, 113
2, 63198, Note_on_c, 0, 75, 0
2, 63205, Note_on_c, 0, 75, 109
2, 63207, Note_on_c, 0, 72, 102
2, 63458, Note_on_c, 0, 47, 0
2, 63460, Note_on_c, 0, 71, 0
2, 63462, Note_on_c, 0, 66, 0
2, 63462, Note_on_c, 0, 63, 0
2, 63462, Note_on_c, 0, 59, 0
2, 63462, Control_c, 0, 64, 0
2, 63463, Note_on_c, 0, 35, 0
2, 63475, Note_on_c, 0, 87, 0
2, 63492, Note_on_c, 0, 48, 113
2, 63492, Note_on_c, 0, 36, 105
2, 63505, Note_on_c, 0, 83, 0
2, 63628, Control_c, 0, 64, 127
2, 63802, Note_on_c, 0, 32, 95
2, 63954, Note_on_c, 0, 44, 94
2, 64104, Note_on_c, 0, 48, 0
2, 64109, Note_on_c, 0, 48, 87
2, 64113, Note_on_c, 0, 76, 110
2, 64250, Note_on_c, 0, 75, 0
2, 64258, Note_on_c, 0, 44, 0
2, 64261, Note_on_c, 0, 75, 110
2, 64263, Note_on_c, 0, 44, 72
2, 64265, Note_on_c, 0, 51, 95
2, 64399, Note_on_c, 0, 54, 103
2, 64412, Note_on_c, 0, 76, 0
2, 64422, Note_on_c, 0, 76, 111
2, 64550, Note_on_c, 0, 78, 0
2, 64553, Note_on_c, 0, 60, 100
2, 64559, Note_on_c, 0, 78, 116
2, 64634, Note_on_c, 0, 72, 0
2, 64640, Note_on_c, 0, 48, 0
2, 64641, Note_on_c, 0, 32, 0
2, 64641, Note_on_c, 0, 36, 0
2, 64641, Note_on_c, 0, 75, 0
2, 64642, Note_on_c, 0, 54, 0
2, 64643, Note_on_c, 0, 60, 0
2, 64643, Note_on_c, 0, 44, 0
2, 64644, Note_on_c, 0, 51, 0
2, 64645, Note_on_c, 0, 78, 0
2, 64647, Control_c, 0, 64, 0
2, 64657, Note_on_c, 0, 76, 0
2, 64657, Note_on_c, 0, 80, 0
2, 64730, Note_on_c, 0, 68, 112
2, 64730, Note_on_c, 0, 76, 112
2, 64731, Note_on_c, 0, 49, 108
2, 64733, Note_on_c, 0, 64, 107
2, 64735, Note_on_c, 0, 37, 104
2, 64757, Control_c, 0, 64, 127
2, 65018, Note_on_c, 0, 49, 0
2, 65025, Note_on_c, 0, 49, 92
2, 65186, Note_on_c, 0, 56, 77
2, 65326, Note_on_c, 0, 76, 0
2, 65332, Note_on_c, 0, 76, 112
2, 65333, Note_on_c, 0, 64, 0
2, 65333, Note_on_c, 0, 68, 0
2, 65337, Note_on_c, 0, 68, 109
2, 65338, Note_on_c, 0, 64, 102
2, 65340, Control_c, 0, 64, 0
2, 65342, Note_on_c, 0, 59, 93
2, 65395, Control_c, 0, 64, 127
2, 65501, Note_on_c, 0, 75, 103
2, 65640, Note_on_c, 0, 37, 0
2, 65640, Note_on_c, 0, 49, 0
2, 65640, Note_on_c, 0, 76, 0
2, 65646, Note_on_c, 0, 49, 98
2, 65648, Note_on_c, 0, 37, 97
2, 65652, Note_on_c, 0, 76, 105
2, 65795, Note_on_c, 0, 78, 107
2, 65860, Control_c, 0, 64, 0
2, 65860, Note_on_c, 0, 59, 0
2, 65861, Note_on_c, 0, 64, 0
2, 65861, Note_on_c, 0, 37, 0
2, 65862, Note_on_c, 0, 76, 0
2, 65862, Note_on_c, 0, 49, 0
2, 65863, Note_on_c, 0, 68, 0
2, 65864, Note_on_c, 0, 75, 0
2, 65867, Note_on_c, 0, 78, 0
2, 65871, Note_on_c, 0, 56, 0
2, 65958, Note_on_c, 0, 33, 99
2, 65959, Note_on_c, 0, 45, 107
2, 65959, Note_on_c, 0, 80, 111
2, 65959, Note_on_c, 0, 68, 112
2, 65970, Note_on_c, 0, 73, 101
2, 65978, Note_on_c, 0, 76, 80
2, 66001, Control_c, 0, 64, 127
2, 66247, Note_on_c, 0, 45, 0
2, 66256, Note_on_c, 0, 45, 93
2, 66401, Note_on_c, 0, 45, 0
2, 66405, Note_on_c, 0, 52, 79
2, 66407, Note_on_c, 0, 45, 73
2, 66570, Note_on_c, 0, 68, 0
2, 66574, Note_on_c, 0, 68, 111
2, 66577, Note_on_c, 0, 45, 0
2, 66580, Note_on_c, 0, 61, 107
2, 66589, Note_on_c, 0, 45, 86
2, 66877, Note_on_c, 0, 68, 0
2, 66885, Note_on_c, 0, 45, 0
2, 66885, Note_on_c, 0, 80, 0
2, 66887, Note_on_c, 0, 68, 104
2, 66889, Note_on_c, 0, 45, 94
2, 66890, Note_on_c, 0, 80, 106
2, 67040, Note_on_c, 0, 69, 107
2, 67040, Note_on_c, 0, 81, 110
2, 67087, Control_c, 0, 64, 0
2, 67096, Note_on_c, 0, 33, 0
2, 67096, Note_on_c, 0, 52, 0
2, 67098, Note_on_c, 0, 61, 0
2, 67103, Note_on_c, 0, 45, 0
2, 67104, Note_on_c, 0, 80, 0
2, 67104, Note_on_c, 0, 73, 0
2, 67104, Note_on_c, 0, 76, 0
2, 67105, Note_on_c, 0, 69, 0
2, 67105, Note_on_c, 0, 68, 0
2, 67109, Note_on_c, 0, 81, 0
2, 67191, Note_on_c, 0, 47, 106
2, 67195, Note_on_c, 0, 83, 109
2, 67196, Note_on_c, 0, 71, 109
2, 67199, Note_on_c, 0, 35, 95
2, 67204, Note_on_c, 0, 78, 94
2, 67204, Note_on_c, 0, 75, 101
2, 67246, Control_c, 0, 64, 127
2, 67507, Note_on_c, 0, 47, 0
2, 67507, Note_on_c, 0, 71, 0
2, 67507, Note_on_c, 0, 83, 0
2, 67511, Note_on_c, 0, 83, 105
2, 67514, Note_on_c, 0, 47, 97
2, 67514, Note_on_c, 0, 75, 0
2, 67515, Note_on_c, 0, 71, 102
2, 67522, Note_on_c, 0, 78, 0
2, 67523, Note_on_c, 0, 75, 91
2, 67528, Note_on_c, 0, 78, 75
2, 67642, Note_on_c, 0, 54, 92
2, 67660, Note_on_c, 0, 71, 0
2, 67660, Note_on_c, 0, 83, 0
2, 67668, Note_on_c, 0, 75, 0
2, 67671, Note_on_c, 0, 71, 105
2, 67671, Note_on_c, 0, 83, 103
2, 67676, Note_on_c, 0, 78, 0
2, 67677, Note_on_c, 0, 75, 100
2, 67686, Note_on_c, 0, 78, 92
2, 67729, Note_on_c, 0, 80, 21
2, 67806, Note_on_c, 0, 54, 0
2, 67813, Note_on_c, 0, 66, 108
2, 67816, Note_on_c, 0, 54, 89
2, 67817, Note_on_c, 0, 63, 103
2, 68106, Note_on_c, 0, 47, 0
2, 68113, Note_on_c, 0, 71, 0
2, 68113, Note_on_c, 0, 83, 0
2, 68116, Note_on_c, 0, 47, 100
2, 68117, Note_on_c, 0, 59, 91
2, 68118, Note_on_c, 0, 83, 112
2, 68119, Note_on_c, 0, 71, 102
2, 68129, Note_on_c, 0, 75, 0
2, 68133, Note_on_c, 0, 75, 81
2, 68136, Note_on_c, 0, 78, 0
2, 68141, Note_on_c, 0, 78, 67
2, 68373, Control_c, 0, 64, 0
2, 68396, Note_on_c, 0, 59, 0
2, 68396, Note_on_c, 0, 71, 0
2, 68396, Note_on_c, 0, 54, 0
2, 68397, Note_on_c, 0, 78, 0
2, 68398, Note_on_c, 0, 83, 0
2, 68398, Note_on_c, 0, 66, 0
2, 68399, Note_on_c, 0, 63, 0
2, 68405, Note_on_c, 0, 80, 0
2, 68413, Note_on_c, 0, 35, 0
2, 68413, Note_on_c, 0, 47, 0
2, 68421, Note_on_c, 0, 75, 0
2, 68424, Note_on_c, 0, 72, 110
2, 68425, Note_on_c, 0, 84, 108
2, 68426, Note_on_c, 0, 48, 107
2, 68429, Note_on_c, 0, 75, 105
2, 68430, Note_on_c, 0, 44, 102
2, 68432, Note_on_c, 0, 36, 100
2, 68433, Note_on_c, 0, 80, 96
2, 68482, Control_c, 0, 64, 127
2, 68716, Note_on_c, 0, 32, 93
2, 68720, Note_on_c, 0, 44, 0
2, 68731, Note_on_c, 0, 44, 94
2, 68733, Note_on_c, 0, 85, 111
2, 68735, Note_on_c, 0, 73, 112
2, 68897, Note_on_c, 0, 44, 0
2, 68897, Note_on_c, 0, 48, 0
2, 68901, Note_on_c, 0, 48, 93
2, 68902, Note_on_c, 0, 44, 77
2, 68996, Note_on_c, 0, 51, 97
2, 69027, Note_on_c, 0, 75, 0
2, 69034, Note_on_c, 0, 54, 77
2, 69036, Note_on_c, 0, 87, 113
2, 69038, Note_on_c, 0, 75, 114
2, 69093, Control_c, 0, 64, 0
2, 69102, Note_on_c, 0, 80, 0
2, 69105, Note_on_c, 0, 72, 0
2, 69105, Note_on_c, 0, 73, 0
2, 69106, Note_on_c, 0, 85, 0
2, 69106, Note_on_c, 0, 36, 0
2, 69106, Note_on_c, 0, 75, 0
2, 69106, Note_on_c, 0, 84, 0
2, 69107, Note_on_c, 0, 32, 0
2, 69107, Note_on_c, 0, 44, 0
2, 69108, Note_on_c, 0, 48, 0
2, 69108, Note_on_c, 0, 87, 0
2, 69108, Note_on_c, 0, 51, 0
2, 69111, Note_on_c, 0, 54, 0
2, 69353, Note_on_c, 0, 45, 108
2, 69353, Note_on_c, 0, 33, 100
2, 69356, Note_on_c, 0, 88, 111
2, 69360, Note_on_c, 0, 76, 113
2, 69361, Note_on_c, 0, 85, 111
2, 69363, Note_on_c, 0, 81, 108
2, 69373, Control_c, 0, 64, 127
2, 69802, Note_on_c, 0, 57, 88
2, 69941, Note_on_c, 0, 76, 0
2, 69941, Note_on_c, 0, 85, 0
2, 69945, Note_on_c, 0, 85, 111
2, 69950, Note_on_c, 0, 73, 109
2, 69952, Note_on_c, 0, 76, 78
2, 70103, Note_on_c, 0, 57, 0
2, 70107, Note_on_c, 0, 57, 93
2, 70253, Note_on_c, 0, 83, 104
2, 70256, Note_on_c, 0, 76, 0
2, 70256, Note_on_c, 0, 81, 0
2, 70257, Note_on_c, 0, 69, 108
2, 70259, Note_on_c, 0, 71, 105
2, 70262, Note_on_c, 0, 64, 97
2, 70263, Note_on_c, 0, 81, 97
2, 70264, Note_on_c, 0, 57, 0
2, 70267, Note_on_c, 0, 76, 86
2, 70267, Note_on_c, 0, 61, 97
2, 70268, Note_on_c, 0, 57, 83
2, 70302, Control_c, 0, 64, 0
2, 70387, Control_c, 0, 64, 127
2, 70556, Note_on_c, 0, 69, 0
2, 70556, Note_on_c, 0, 81, 0
2, 70564, Note_on_c, 0, 69, 106
2, 70564, Note_on_c, 0, 81, 108
2, 70586, Note_on_c, 0, 73, 0
2, 70596, Note_on_c, 0, 73, 64
2, 70867, Control_c, 0, 64, 0
2, 70878, Note_on_c, 0, 71, 0
2, 70878, Note_on_c, 0, 83, 0
2, 70881, Note_on_c, 0, 44, 99
2, 70884, Note_on_c, 0, 59, 99
2, 70887, Note_on_c, 0, 83, 107
2, 70890, Note_on_c, 0, 71, 107
2, 70894, Note_on_c, 0, 33, 0
2, 70899, Note_on_c, 0, 85, 0
2, 70901, Note_on_c, 0, 76, 0
2, 70904, Note_on_c, 0, 80, 98
2, 70904, Note_on_c, 0, 64, 0
2, 70906, Note_on_c, 0, 45, 0
2, 70907, Note_on_c, 0, 61, 0
2, 70908, Note_on_c, 0, 73, 0
2, 70909, Note_on_c, 0, 76, 90
2, 70917, Note_on_c, 0, 88, 0
2, 70924, Note_on_c, 0, 57, 0
2, 70924, Note_on_c, 0, 69, 0
2, 70924, Note_on_c, 0, 81, 0
2, 70963, Control_c, 0, 64, 127
2, 71185, Note_on_c, 0, 76, 0
2, 71196, Note_on_c, 0, 52, 89
2, 71197, Note_on_c, 0, 76, 104
2, 71206, Note_on_c, 0, 64, 101
2, 71339, Note_on_c, 0, 64, 0
2, 71339, Note_on_c, 0, 76, 0
2, 71349, Note_on_c, 0, 76, 106
2, 71351, Note_on_c, 0, 64, 92
2, 71479, Control_c, 0, 64, 0
2, 71487, Note_on_c, 0, 52, 0
2, 71499, Note_on_c, 0, 59, 0
2, 71502, Note_on_c, 0, 49, 98
2, 71503, Note_on_c, 0, 37, 99
2, 71523, Note_on_c, 0, 44, 0
2, 71531, Note_on_c, 0, 83, 0
2, 71546, Control_c, 0, 64, 127
2, 71562, Note_on_c, 0, 71, 0
2, 71623, Note_on_c, 0, 64, 0
2, 71808, Note_on_c, 0, 76, 0
2, 71817, Note_on_c, 0, 76, 108
2, 71819, Note_on_c, 0, 44, 82
2, 71819, Note_on_c, 0, 64, 104
2, 72105, Control_c, 0, 64, 0
2, 72107, Note_on_c, 0, 80, 0
2, 72111, Note_on_c, 0, 44, 0
2, 72111, Note_on_c, 0, 37, 0
2, 72113, Note_on_c, 0, 64, 0
2, 72113, Note_on_c, 0, 49, 0
2, 72114, Note_on_c, 0, 73, 111
2, 72116, Note_on_c, 0, 76, 0
2, 72117, Note_on_c, 0, 78, 107
2, 72119, Note_on_c, 0, 69, 102
2, 72126, Note_on_c, 0, 51, 98
2, 72133, Note_on_c, 0, 39, 92
2, 72184, Control_c, 0, 64, 127
2, 72427, Note_on_c, 0, 80, 106
2, 72470, Control_c, 0, 64, 0
2, 72479, Note_on_c, 0, 78, 0
2, 72479, Note_on_c, 0, 73, 0
2, 72479, Note_on_c, 0, 39, 0
2, 72480, Note_on_c, 0, 51, 0
2, 72481, Note_on_c, 0, 69, 0
2, 72560, Note_on_c, 0, 80, 0
2, 72595, Note_on_c, 0, 32, 87
2, 72596, Note_on_c, 0, 44, 93
2, 72600, Note_on_c, 0, 81, 108
2, 72600, Note_on_c, 0, 72, 103
2, 72603, Note_on_c, 0, 75, 97
2, 72614, Control_c, 0, 64, 127
2, 72923, Note_on_c, 0, 80, 104
2, 72952, Control_c, 0, 64, 0
2, 72954, Note_on_c, 0, 72, 0
2, 72954, Note_on_c, 0, 81, 0
2, 72954, Note_on_c, 0, 75, 0
2, 72960, Note_on_c, 0, 32, 0
2, 72960, Note_on_c, 0, 44, 0
2, 73044, Note_on_c, 0, 80, 0
2, 73085, Note_on_c, 0, 80, 103
2, 73087, Note_on_c, 0, 49, 94
2, 73087, Note_on_c, 0, 71, 96
2, 73088, Note_on_c, 0, 37, 91
2, 73096, Note_on_c, 0, 76, 86
2, 73113, Control_c, 0, 64, 127
2, 73556, Note_on_c, 0, 56, 71
2, 73729, Note_on_c, 0, 59, 74
2, 73875, Note_on_c, 0, 64, 90
2, 74019, Note_on_c, 0, 59, 0
2, 74023, Control_c, 0, 64, 0
2, 74023, Note_on_c, 0, 47, 87
2, 74024, Note_on_c, 0, 35, 79
2, 74024, Note_on_c, 0, 56, 0
2, 74024, Note_on_c, 0, 49, 0
2, 74027, Note_on_c, 0, 68, 94
2, 74031, Note_on_c, 0, 59, 82
2, 74031, Note_on_c, 0, 71, 0
2, 74065, Note_on_c, 0, 37, 0
2, 74096, Control_c, 0, 64, 127
2, 74119, Note_on_c, 0, 59, 0
2, 74334, Note_on_c, 0, 80, 0
2, 74343, Note_on_c, 0, 80, 95
2, 74493, Note_on_c, 0, 78, 89
2, 74638, Control_c, 0, 64, 0
2, 74639, Note_on_c, 0, 68, 0
2, 74641, Note_on_c, 0, 80, 0
2, 74643, Note_on_c, 0, 78, 0
2, 74649, Note_on_c, 0, 64, 0
2, 74649, Note_on_c, 0, 76, 0
2, 74657, Note_on_c, 0, 76, 100
2, 74661, Note_on_c, 0, 73, 100
2, 74662, Note_on_c, 0, 33, 82
2, 74664, Note_on_c, 0, 45, 85
2, 74664, Note_on_c, 0, 47, 0
2, 74666, Note_on_c, 0, 71, 88
2, 74672, Note_on_c, 0, 35, 0
2, 74734, Control_c, 0, 64, 127
2, 74772, Note_on_c, 0, 33, 0
2, 74999, Note_on_c, 0, 52, 60
2, 75282, Note_on_c, 0, 61, 80
2, 75299, Note_on_c, 0, 57, 72
2, 75578, Note_on_c, 0, 76, 0
2, 75588, Note_on_c, 0, 76, 104
2, 75888, Note_on_c, 0, 78, 96
2, 75890, Control_c, 0, 64, 0
2, 75893, Note_on_c, 0, 71, 0
2, 75894, Note_on_c, 0, 61, 0
2, 75895, Note_on_c, 0, 52, 0
2, 75896, Note_on_c, 0, 57, 0
2, 75897, Note_on_c, 0, 47, 89
2, 75897, Note_on_c, 0, 73, 0
2, 75897, Note_on_c, 0, 45, 0
2, 75898, Note_on_c, 0, 35, 83
2, 75902, Note_on_c, 0, 71, 90
2, 75906, Note_on_c, 0, 75, 89
2, 75924, Note_on_c, 0, 76, 0
2, 75978, Control_c, 0, 64, 127
2, 76116, Note_on_c, 0, 35, 0
2, 76200, Note_on_c, 0, 54, 76
2, 76226, Note_on_c, 0, 76, 98
2, 76523, Note_on_c, 0, 75, 0
2, 76528, Note_on_c, 0, 63, 85
2, 76534, Note_on_c, 0, 75, 103
2, 76534, Note_on_c, 0, 59, 83
2, 76538, Note_on_c, 0, 71, 0
2, 76544, Note_on_c, 0, 71, 61
2, 77030, Note_on_c, 0, 71, 0
2, 77030, Note_on_c, 0, 76, 0
2, 77034, Note_on_c, 0, 76, 102
2, 77040, Note_on_c, 0, 68, 91
2, 77040, Note_on_c, 0, 64, 84
2, 77041, Note_on_c, 0, 71, 90
2, 77071, Note_on_c, 0, 59, 0
2, 77073, Note_on_c, 0, 54, 0
2, 77082, Note_on_c, 0, 75, 0
2, 77084, Control_c, 0, 64, 0
2, 77087, Note_on_c, 0, 63, 0
2, 77137, Note_on_c, 0, 78, 0
2, 77145, Note_on_c, 0, 47, 0
2, 77178, Note_on_c, 0, 37, 73
2, 77178, Note_on_c, 0, 49, 68
2, 77245, Control_c, 0, 64, 127
2, 77493, Note_on_c, 0, 56, 63
2, 77811, Note_on_c, 0, 59, 71
2, 78120, Note_on_c, 0, 64, 0
2, 78127, Note_on_c, 0, 64, 76
2, 78435, Note_on_c, 0, 59, 0
2, 78439, Note_on_c, 0, 63, 76
2, 78440, Note_on_c, 0, 47, 68
2, 78446, Note_on_c, 0, 59, 59
2, 78566, Note_on_c, 0, 68, 0
2, 78568, Note_on_c, 0, 56, 0
2, 78568, Note_on_c, 0, 37, 0
2, 78570, Note_on_c, 0, 64, 0
2, 78574, Note_on_c, 0, 49, 0
2, 78576, Control_c, 0, 64, 0
2, 78589, Note_on_c, 0, 76, 0
2, 78727, Control_c, 0, 64, 127
2, 78743, Note_on_c, 0, 59, 0
2, 78753, Note_on_c, 0, 59, 71
2, 79055, Note_on_c, 0, 54, 58
2, 79349, Note_on_c, 0, 47, 0
2, 79355, Note_on_c, 0, 47, 65
2, 79652, Note_on_c, 0, 61, 77
2, 79655, Note_on_c, 0, 45, 70
2, 79706, Control_c, 0, 64, 0
2, 79709, Note_on_c, 0, 59, 0
2, 79710, Note_on_c, 0, 63, 0
2, 79711, Note_on_c, 0, 54, 0
2, 79718, Note_on_c, 0, 71, 0
2, 79726, Note_on_c, 0, 47, 0
2, 79848, Control_c, 0, 64, 127
2, 79960, Note_on_c, 0, 52, 62
2, 80272, Note_on_c, 0, 57, 60
2, 80597, Note_on_c, 0, 59, 71
2, 80601, Note_on_c, 0, 52, 0
2, 80603, Note_on_c, 0, 40, 59
2, 80606, Note_on_c, 0, 52, 56
2, 80607, Note_on_c, 0, 56, 62
2, 80636, Control_c, 0, 64, 0
2, 80643, Note_on_c, 0, 45, 0
2, 80646, Note_on_c, 0, 61, 0
2, 80646, Note_on_c, 0, 57, 0
2, 80816, Control_c, 0, 64, 127
2, 81511, Note_on_c, 0, 47, 57
2, 81994, Note_on_c, 0, 76, 65
2, 82050, Note_on_c, 0, 80, 62
2, 82088, Note_on_c, 0, 83, 63
2, 82127, Note_on_c, 0, 49, 63
2, 82130, Note_on_c, 0, 88, 92
2, 82151, Control_c, 0, 64, 0
2, 82157, Note_on_c, 0, 56, 0
2, 82158, Note_on_c, 0, 59, 0
2, 82163, Note_on_c, 0, 47, 0
2, 82222, Note_on_c, 0, 52, 0
2, 82245, Control_c, 0, 64, 127
2, 82337, Note_on_c, 0, 40, 0
2, 82439, Note_on_c, 0, 56, 60
2, 82750, Note_on_c, 0, 59, 71
2, 82867, Note_on_c, 0, 76, 0
2, 82876, Note_on_c, 0, 76, 70
2, 83020, Note_on_c, 0, 83, 0
2, 83022, Note_on_c, 0, 64, 80
2, 83026, Note_on_c, 0, 83, 81
2, 83159, Note_on_c, 0, 88, 0
2, 83165, Note_on_c, 0, 88, 95
2, 83330, Note_on_c, 0, 87, 100
2, 83332, Note_on_c, 0, 47, 81
2, 83347, Note_on_c, 0, 75, 78
2, 83351, Note_on_c, 0, 83, 0
2, 83358, Note_on_c, 0, 83, 73
2, 83365, Note_on_c, 0, 49, 0
2, 83368, Note_on_c, 0, 56, 0
2, 83368, Note_on_c, 0, 80, 0
2, 83368, Note_on_c, 0, 59, 0
2, 83369, Note_on_c, 0, 64, 0
2, 83372, Control_c, 0, 64, 0
2, 83381, Note_on_c, 0, 76, 0
2, 83389, Note_on_c, 0, 88, 0
2, 83450, Control_c, 0, 64, 127
2, 83636, Note_on_c, 0, 54, 77
2, 83784, Note_on_c, 0, 88, 103
2, 83802, Note_on_c, 0, 76, 86
2, 83951, Note_on_c, 0, 59, 73
2, 84097, Note_on_c, 0, 90, 106
2, 84109, Note_on_c, 0, 78, 79
2, 84228, Note_on_c, 0, 63, 72
2, 84389, Note_on_c, 0, 95, 101
2, 84403, Note_on_c, 0, 83, 0
2, 84409, Note_on_c, 0, 83, 78
2, 84538, Note_on_c, 0, 93, 106
2, 84539, Note_on_c, 0, 45, 77
2, 84553, Note_on_c, 0, 59, 0
2, 84553, Note_on_c, 0, 54, 0
2, 84553, Note_on_c, 0, 87, 0
2, 84553, Note_on_c, 0, 78, 0
2, 84553, Note_on_c, 0, 88, 0
2, 84553, Note_on_c, 0, 76, 0
2, 84554, Note_on_c, 0, 90, 0
2, 84554, Note_on_c, 0, 47, 0
2, 84555, Note_on_c, 0, 75, 0
2, 84555, Note_on_c, 0, 63, 0
2, 84556, Note_on_c, 0, 83, 0
2, 84557, Note_on_c, 0, 95, 0
2, 84562, Note_on_c, 0, 81, 80
2, 84563, Note_on_c, 0, 85, 80
2, 84571, Control_c, 0, 64, 0
2, 84625, Control_c, 0, 64, 127
2, 84844, Note_on_c, 0, 92, 96
2, 84848, Note_on_c, 0, 45, 0
2, 84993, Note_on_c, 0, 61, 72
2, 85029, Note_on_c, 0, 52, 48
2, 85160, Note_on_c, 0, 88, 87
2, 85182, Note_on_c, 0, 76, 76
2, 85313, Note_on_c, 0, 90, 91
2, 85463, Note_on_c, 0, 92, 0
2, 85465, Note_on_c, 0, 40, 65
2, 85470, Note_on_c, 0, 92, 101
2, 85496, Note_on_c, 0, 80, 86
2, 85499, Note_on_c, 0, 90, 0
2, 85500, Note_on_c, 0, 81, 0
2, 85500, Note_on_c, 0, 52, 0
2, 85500, Control_c, 0, 64, 0
2, 85501, Note_on_c, 0, 83, 74
2, 85502, Note_on_c, 0, 76, 0
2, 85502, Note_on_c, 0, 61, 0
2, 85503, Note_on_c, 0, 85, 0
2, 85524, Note_on_c, 0, 93, 0
2, 85601, Control_c, 0, 64, 127
2, 86100, Note_on_c, 0, 88, 0
2, 86110, Note_on_c, 0, 88, 81
2, 86141, Note_on_c, 0, 47, 43
2, 86423, Note_on_c, 0, 83, 0
2, 86427, Note_on_c, 0, 56, 49
2, 86430, Note_on_c, 0, 83, 72
2, 86446, Note_on_c, 0, 80, 0
2, 86450, Note_on_c, 0, 80, 50
2, 87060, Note_on_c, 0, 47, 0
2, 87064, Note_on_c, 0, 47, 65
2, 87078, Note_on_c, 0, 74, 84
2, 87085, Note_on_c, 0, 62, 67
2, 87088, Note_on_c, 0, 66, 66
2, 87121, Note_on_c, 0, 92, 0
2, 87125, Note_on_c, 0, 80, 0
2, 87126, Note_on_c, 0, 88, 0
2, 87126, Note_on_c, 0, 56, 0
2, 87128, Note_on_c, 0, 40, 0
2, 87137, Control_c, 0, 64, 0
2, 87152, Note_on_c, 0, 83, 0
2, 87221, Control_c, 0, 64, 127
2, 87730, Note_on_c, 0, 54, 46
2, 88048, Note_on_c, 0, 57, 63
2, 88327, Note_on_c, 0, 47, 0
2, 88340, Note_on_c, 0, 73, 78
2, 88343, Note_on_c, 0, 57, 0
2, 88347, Note_on_c, 0, 61, 62
2, 88350, Note_on_c, 0, 57, 54
2, 88353, Note_on_c, 0, 45, 62
2, 88355, Note_on_c, 0, 64, 61
2, 88399, Control_c, 0, 64, 0
2, 88404, Note_on_c, 0, 62, 0
2, 88419, Note_on_c, 0, 66, 0
2, 88419, Note_on_c, 0, 74, 0
2, 88427, Note_on_c, 0, 54, 0
2, 88488, Control_c, 0, 64, 127
2, 88997, Note_on_c, 0, 52, 61
2, 89652, Note_on_c, 0, 71, 73
2, 89661, Note_on_c, 0, 66, 63
2, 89675, Note_on_c, 0, 43, 55
2, 89676, Note_on_c, 0, 62, 52
2, 89688, Note_on_c, 0, 59, 41
2, 89689, Note_on_c, 0, 50, 56
2, 89700, Control_c, 0, 64, 0
2, 89722, Note_on_c, 0, 45, 0
2, 89725, Control_c, 0, 64, 127
2, 89756, Note_on_c, 0, 61, 0
2, 89771, Note_on_c, 0, 57, 0
2, 89779, Note_on_c, 0, 73, 0
2, 89786, Note_on_c, 0, 64, 0
2, 89794, Control_c, 0, 64, 0
2, 89894, Control_c, 0, 64, 127
2, 90001, Note_on_c, 0, 52, 0
2, 91560, Control_c, 0, 64, 0
2, 91645, Control_c, 0, 64, 127
2, 91714, Control_c, 0, 64, 0
2, 92467, Note_on_c, 0, 66, 0
2, 92477, Note_on_c, 0, 86, 69
2, 92513, Note_on_c, 0, 71, 0
2, 92536, Note_on_c, 0, 50, 0
2, 92544, Note_on_c, 0, 59, 0
2, 92574, Note_on_c, 0, 43, 0
2, 92574, Note_on_c, 0, 62, 0
2, 92815, Note_on_c, 0, 59, 59
2, 92817, Note_on_c, 0, 88, 73
2, 92820, Control_c, 0, 64, 127
2, 93112, Note_on_c, 0, 86, 0
2, 93123, Note_on_c, 0, 86, 76
2, 93126, Note_on_c, 0, 69, 60
2, 93265, Note_on_c, 0, 86, 0
2, 93276, Note_on_c, 0, 86, 63
2, 93440, Note_on_c, 0, 74, 45
2, 93450, Note_on_c, 0, 81, 64
2, 93619, Note_on_c, 0, 88, 0
2, 93627, Note_on_c, 0, 88, 26
2, 93895, Note_on_c, 0, 86, 0
2, 93901, Note_on_c, 0, 86, 83
2, 94064, Note_on_c, 0, 88, 0
2, 94073, Note_on_c, 0, 88, 85
2, 94074, Note_on_c, 0, 55, 51
2, 94371, Note_on_c, 0, 69, 0
2, 94371, Note_on_c, 0, 86, 0
2, 94376, Note_on_c, 0, 86, 78
2, 94378, Note_on_c, 0, 69, 68
2, 94510, Note_on_c, 0, 86, 0
2, 94521, Note_on_c, 0, 86, 83
2, 94694, Note_on_c, 0, 74, 0
2, 94694, Note_on_c, 0, 81, 0
2, 94704, Note_on_c, 0, 81, 68
2, 94705, Note_on_c, 0, 74, 59
2, 95147, Note_on_c, 0, 86, 0
2, 95152, Note_on_c, 0, 86, 83
2, 95178, Note_on_c, 0, 88, 0
2, 95183, Note_on_c, 0, 88, 48
2, 95321, Note_on_c, 0, 85, 88
2, 95333, Note_on_c, 0, 57, 59
2, 95339, Note_on_c, 0, 55, 0
2, 95342, Control_c, 0, 64, 0
2, 95342, Note_on_c, 0, 81, 0
2, 95345, Note_on_c, 0, 59, 0
2, 95346, Note_on_c, 0, 74, 0
2, 95351, Note_on_c, 0, 76, 60
2, 95370, Control_c, 0, 64, 127
2, 95640, Note_on_c, 0, 83, 77
2, 95784, Note_on_c, 0, 83, 0
2, 95789, Note_on_c, 0, 83, 74
2, 95796, Note_on_c, 0, 73, 64
2, 95820, Note_on_c, 0, 64, 46
2, 95861, Note_on_c, 0, 86, 0
2, 96126, Note_on_c, 0, 81, 69
2, 96276, Note_on_c, 0, 81, 0
2, 96280, Note_on_c, 0, 62, 57
2, 96282, Note_on_c, 0, 81, 77
2, 96323, Note_on_c, 0, 79, 57
2, 96328, Control_c, 0, 64, 0
2, 96334, Note_on_c, 0, 83, 0
2, 96334, Note_on_c, 0, 73, 0
2, 96334, Note_on_c, 0, 85, 0
2, 96334, Note_on_c, 0, 76, 0
2, 96335, Note_on_c, 0, 57, 0
2, 96335, Note_on_c, 0, 64, 0
2, 96335, Note_on_c, 0, 88, 0
2, 96353, Note_on_c, 0, 69, 0
2, 96407, Control_c, 0, 64, 127
2, 96902, Note_on_c, 0, 76, 50
2, 96918, Note_on_c, 0, 69, 54
2, 96925, Note_on_c, 0, 73, 34
2, 97207, Note_on_c, 0, 61, 64
2, 97210, Note_on_c, 0, 78, 65
2, 97531, Note_on_c, 0, 86, 87
2, 97676, Note_on_c, 0, 88, 82
2, 97704, Note_on_c, 0, 73, 0
2, 97822, Note_on_c, 0, 90, 88
2, 97832, Note_on_c, 0, 59, 60
2, 97839, Control_c, 0, 64, 0
2, 97843, Note_on_c, 0, 79, 0
2, 97843, Note_on_c, 0, 81, 0
2, 97843, Note_on_c, 0, 69, 0
2, 97844, Note_on_c, 0, 61, 0
2, 97844, Note_on_c, 0, 62, 0
2, 97845, Note_on_c, 0, 86, 0
2, 97846, Note_on_c, 0, 76, 0
2, 97846, Note_on_c, 0, 88, 0
2, 97848, Note_on_c, 0, 81, 66
2, 97866, Control_c, 0, 64, 127
2, 98119, Note_on_c, 0, 90, 0
2, 98123, Note_on_c, 0, 90, 96
2, 98142, Note_on_c, 0, 81, 0
2, 98153, Note_on_c, 0, 66, 63
2, 98154, Note_on_c, 0, 81, 70
2, 98273, Note_on_c, 0, 90, 0
2, 98283, Note_on_c, 0, 90, 103
2, 98296, Note_on_c, 0, 81, 0
2, 98300, Note_on_c, 0, 81, 64
2, 98431, Note_on_c, 0, 74, 76
2, 98436, Note_on_c, 0, 69, 70
2, 98580, Note_on_c, 0, 90, 0
2, 98586, Note_on_c, 0, 90, 106
2, 98618, Note_on_c, 0, 81, 0
2, 98630, Note_on_c, 0, 81, 74
2, 98890, Note_on_c, 0, 91, 104
2, 98912, Note_on_c, 0, 83, 76
2, 99033, Note_on_c, 0, 90, 0
2, 99034, Control_c, 0, 64, 0
2, 99038, Note_on_c, 0, 90, 102
2, 99052, Note_on_c, 0, 55, 65
2, 99064, Note_on_c, 0, 66, 0
2, 99064, Note_on_c, 0, 81, 0
2, 99064, Note_on_c, 0, 59, 0
2, 99065, Note_on_c, 0, 69, 0
2, 99066, Note_on_c, 0, 83, 0
2, 99067, Note_on_c, 0, 74, 0
2, 99068, Note_on_c, 0, 91, 0
2, 99068, Note_on_c, 0, 81, 74
2, 99072, Note_on_c, 0, 78, 0
2, 99125, Control_c, 0, 64, 127
2, 99195, Note_on_c, 0, 86, 93
2, 99216, Note_on_c, 0, 78, 63
2, 99348, Note_on_c, 0, 86, 0
2, 99349, Note_on_c, 0, 62, 63
2, 99359, Note_on_c, 0, 86, 88
2, 99386, Note_on_c, 0, 78, 0
2, 99391, Note_on_c, 0, 78, 57
2, 99644, Note_on_c, 0, 69, 62
2, 99666, Note_on_c, 0, 74, 66
2, 99955, Note_on_c, 0, 86, 0
2, 99963, Note_on_c, 0, 86, 86
2, 99985, Note_on_c, 0, 78, 0
2, 99990, Note_on_c, 0, 78, 63
2, 100254, Note_on_c, 0, 90, 0
2, 100267, Note_on_c, 0, 85, 89
2, 100280, Note_on_c, 0, 57, 70
2, 100281, Note_on_c, 0, 55, 0
2, 100281, Note_on_c, 0, 81, 0
2, 100281, Note_on_c, 0, 62, 0
2, 100281, Note_on_c, 0, 76, 72
2, 100281, Note_on_c, 0, 74, 0
2, 100281, Control_c, 0, 64, 0
2, 100282, Note_on_c, 0, 78, 0
2, 100316, Note_on_c, 0, 86, 0
2, 100377, Control_c, 0, 64, 127
2, 100585, Note_on_c, 0, 86, 89
2, 100588, Note_on_c, 0, 78, 74
2, 100736, Note_on_c, 0, 73, 65
2, 100764, Note_on_c, 0, 64, 44
2, 100874, Note_on_c, 0, 88, 84
2, 100897, Note_on_c, 0, 79, 66
2, 101176, Note_on_c, 0, 86, 0
2, 101180, Note_on_c, 0, 62, 71
2, 101187, Note_on_c, 0, 86, 85
2, 101190, Note_on_c, 0, 74, 68
2, 101207, Note_on_c, 0, 79, 0
2, 101211, Note_on_c, 0, 81, 69
2, 101211, Control_c, 0, 64, 0
2, 101217, Note_on_c, 0, 79, 59
2, 101219, Note_on_c, 0, 85, 0
2, 101220, Note_on_c, 0, 73, 0
2, 101220, Note_on_c, 0, 57, 0
2, 101220, Note_on_c, 0, 76, 0
2, 101220, Note_on_c, 0, 78, 0
2, 101220, Note_on_c, 0, 64, 0
2, 101221, Note_on_c, 0, 88, 0
2, 101237, Note_on_c, 0, 69, 0
2, 101337, Control_c, 0, 64, 127
2, 101510, Note_on_c, 0, 69, 64
2, 101537, Note_on_c, 0, 74, 0
2, 101644, Note_on_c, 0, 79, 0
2, 101653, Note_on_c, 0, 79, 71
2, 101821, Note_on_c, 0, 78, 66
2, 101969, Note_on_c, 0, 76, 73
2, 102120, Note_on_c, 0, 61, 71
2, 102136, Note_on_c, 0, 78, 0
2, 102142, Note_on_c, 0, 78, 63
2, 102420, Note_on_c, 0, 86, 0
2, 102425, Note_on_c, 0, 86, 89
2, 102441, Note_on_c, 0, 74, 73
2, 102737, Note_on_c, 0, 47, 70
2, 102746, Note_on_c, 0, 88, 86
2, 102758, Note_on_c, 0, 76, 0
2, 102765, Note_on_c, 0, 76, 68
2, 102768, Control_c, 0, 64, 0
2, 102769, Note_on_c, 0, 61, 0
2, 102769, Note_on_c, 0, 69, 0
2, 102770, Note_on_c, 0, 81, 0
2, 102771, Note_on_c, 0, 79, 0
2, 102804, Control_c, 0, 64, 127
2, 102901, Note_on_c, 0, 54, 62
2, 103042, Note_on_c, 0, 74, 0
2, 103042, Note_on_c, 0, 86, 0
2, 103048, Note_on_c, 0, 86, 88
2, 103048, Note_on_c, 0, 57, 64
2, 103053, Note_on_c, 0, 74, 78
2, 103170, Note_on_c, 0, 61, 72
2, 103196, Note_on_c, 0, 86, 0
2, 103200, Note_on_c, 0, 86, 95
2, 103203, Note_on_c, 0, 74, 0
2, 103207, Note_on_c, 0, 74, 73
2, 103326, Note_on_c, 0, 62, 0
2, 103337, Note_on_c, 0, 62, 76
2, 103503, Note_on_c, 0, 61, 0
2, 103508, Note_on_c, 0, 61, 65
2, 103618, Note_on_c, 0, 57, 0
2, 103625, Note_on_c, 0, 57, 54
2, 103795, Note_on_c, 0, 86, 0
2, 103805, Note_on_c, 0, 86, 81
2, 103936, Note_on_c, 0, 43, 78
2, 103956, Note_on_c, 0, 88, 0
2, 103960, Control_c, 0, 64, 0
2, 103965, Note_on_c, 0, 88, 93
2, 103971, Note_on_c, 0, 76, 0
2, 103974, Note_on_c, 0, 47, 0
2, 103975, Note_on_c, 0, 61, 0
2, 103976, Note_on_c, 0, 54, 0
2, 103977, Note_on_c, 0, 57, 0
2, 103977, Note_on_c, 0, 74, 0
2, 103977, Note_on_c, 0, 62, 0
2, 103978, Note_on_c, 0, 76, 61
2, 103987, Note_on_c, 0, 78, 0
2, 103987, Control_c, 0, 64, 127
2, 104056, Note_on_c, 0, 86, 0
2, 104100, Note_on_c, 0, 50, 62
2, 104239, Note_on_c, 0, 86, 84
2, 104249, Note_on_c, 0, 57, 68
2, 104251, Note_on_c, 0, 74, 75
2, 104371, Note_on_c, 0, 86, 0
2, 104381, Note_on_c, 0, 86, 93
2, 104386, Note_on_c, 0, 74, 0
2, 104394, Note_on_c, 0, 74, 74
2, 104401, Note_on_c, 0, 61, 71
2, 104540, Note_on_c, 0, 62, 81
2, 104701, Note_on_c, 0, 61, 0
2, 104710, Note_on_c, 0, 61, 66
2, 104847, Note_on_c, 0, 57, 0
2, 104853, Note_on_c, 0, 57, 52
2, 104993, Note_on_c, 0, 86, 0
2, 104999, Note_on_c, 0, 86, 93
2, 105000, Note_on_c, 0, 74, 0
2, 105006, Note_on_c, 0, 74, 76
2, 105153, Note_on_c, 0, 85, 90
2, 105153, Note_on_c, 0, 73, 94
2, 105156, Note_on_c, 0, 45, 76
2, 105159, Control_c, 0, 64, 0
2, 105179, Note_on_c, 0, 50, 0
2, 105180, Note_on_c, 0, 86, 0
2, 105181, Note_on_c, 0, 57, 0
2, 105181, Note_on_c, 0, 76, 0
2, 105181, Note_on_c, 0, 43, 0
2, 105181, Note_on_c, 0, 74, 0
2, 105181, Note_on_c, 0, 62, 0
2, 105192, Note_on_c, 0, 61, 0
2, 105200, Note_on_c, 0, 88, 0
2, 105200, Control_c, 0, 64, 127
2, 105307, Note_on_c, 0, 52, 67
2, 105445, Note_on_c, 0, 57, 68
2, 105448, Note_on_c, 0, 86, 97
2, 105455, Note_on_c, 0, 74, 89
2, 105593, Note_on_c, 0, 61, 65
2, 105762, Note_on_c, 0, 88, 100
2, 105764, Note_on_c, 0, 64, 65
2, 105766, Note_on_c, 0, 76, 90
2, 106071, Note_on_c, 0, 90, 101
2, 106071, Note_on_c, 0, 50, 82
2, 106084, Note_on_c, 0, 78, 79
2, 106089, Note_on_c, 0, 81, 75
2, 106091, Note_on_c, 0, 86, 0
2, 106099, Note_on_c, 0, 86, 71
2, 106102, Control_c, 0, 64, 0
2, 106108, Note_on_c, 0, 57, 0
2, 106108, Note_on_c, 0, 74, 0
2, 106108, Note_on_c, 0, 85, 0
2, 106109, Note_on_c, 0, 45, 0
2, 106109, Note_on_c, 0, 73, 0
2, 106109, Note_on_c, 0, 52, 0
2, 106109, Note_on_c, 0, 76, 0
2, 106110, Note_on_c, 0, 61, 0
2, 106110, Note_on_c, 0, 88, 0
2, 106110, Note_on_c, 0, 64, 0
2, 106183, Control_c, 0, 64, 127
2, 106238, Note_on_c, 0, 57, 67
2, 106386, Note_on_c, 0, 62, 74
2, 106539, Note_on_c, 0, 67, 85
2, 106560, Note_on_c, 0, 57, 0
2, 106561, Note_on_c, 0, 69, 51
2, 106566, Note_on_c, 0, 57, 42
2, 106693, Note_on_c, 0, 66, 72
2, 106842, Note_on_c, 0, 64, 69
2, 106982, Note_on_c, 0, 66, 0
2, 106992, Note_on_c, 0, 66, 85
2, 107143, Note_on_c, 0, 62, 0
2, 107154, Note_on_c, 0, 62, 63
2, 107258, Note_on_c, 0, 90, 0
2, 107268, Note_on_c, 0, 90, 97
2, 107289, Note_on_c, 0, 57, 0
2, 107289, Note_on_c, 0, 78, 0
2, 107293, Note_on_c, 0, 78, 55
2, 107294, Note_on_c, 0, 57, 59
2, 107427, Note_on_c, 0, 50, 0
2, 107431, Note_on_c, 0, 91, 102
2, 107436, Note_on_c, 0, 50, 68
2, 107440, Note_on_c, 0, 79, 79
2, 107583, Note_on_c, 0, 93, 106
2, 107584, Note_on_c, 0, 47, 83
2, 107596, Note_on_c, 0, 81, 0
2, 107601, Note_on_c, 0, 81, 86
2, 107623, Note_on_c, 0, 91, 0
2, 107623, Note_on_c, 0, 64, 0
2, 107623, Note_on_c, 0, 57, 0
2, 107624, Note_on_c, 0, 90, 0
2, 107624, Note_on_c, 0, 79, 0
2, 107624, Note_on_c, 0, 78, 0
2, 107624, Note_on_c, 0, 67, 0
2, 107625, Control_c, 0, 64, 0
2, 107635, Note_on_c, 0, 66, 0
2, 107635, Note_on_c, 0, 69, 0
2, 107635, Note_on_c, 0, 86, 0
2, 107642, Note_on_c, 0, 50, 0
2, 107642, Note_on_c, 0, 62, 0
2, 107673, Control_c, 0, 64, 127
2, 107731, Note_on_c, 0, 54, 67
2, 107880, Note_on_c, 0, 93, 0
2, 107887, Note_on_c, 0, 93, 85
2, 107897, Note_on_c, 0, 57, 75
2, 107904, Note_on_c, 0, 81, 0
2, 107914, Note_on_c, 0, 81, 71
2, 108034, Note_on_c, 0, 93, 0
2, 108038, Note_on_c, 0, 93, 92
2, 108042, Note_on_c, 0, 81, 0
2, 108044, Note_on_c, 0, 61, 79
2, 108052, Note_on_c, 0, 81, 78
2, 108207, Note_on_c, 0, 62, 81
2, 108357, Note_on_c, 0, 93, 0
2, 108363, Note_on_c, 0, 93, 102
2, 108364, Note_on_c, 0, 81, 0
2, 108369, Note_on_c, 0, 81, 87
2, 108503, Note_on_c, 0, 57, 0
2, 108509, Note_on_c, 0, 57, 73
2, 108653, Note_on_c, 0, 95, 99
2, 108659, Note_on_c, 0, 83, 86
2, 108789, Control_c, 0, 64, 0
2, 108794, Note_on_c, 0, 93, 0
2, 108799, Note_on_c, 0, 93, 105
2, 108799, Note_on_c, 0, 43, 82
2, 108812, Note_on_c, 0, 54, 0
2, 108812, Note_on_c, 0, 57, 0
2, 108812, Note_on_c, 0, 61, 0
2, 108814, Note_on_c, 0, 62, 0
2, 108814, Note_on_c, 0, 47, 0
2, 108814, Note_on_c, 0, 83, 0
2, 108817, Note_on_c, 0, 81, 0
2, 108822, Note_on_c, 0, 81, 90
2, 108825, Control_c, 0, 64, 127
2, 108840, Note_on_c, 0, 95, 0
2, 108968, Note_on_c, 0, 86, 93
2, 108979, Note_on_c, 0, 50, 67
2, 108980, Note_on_c, 0, 74, 69
2, 109117, Note_on_c, 0, 74, 0
2, 109117, Note_on_c, 0, 86, 0
2, 109121, Note_on_c, 0, 57, 66
2, 109122, Note_on_c, 0, 86, 84
2, 109124, Note_on_c, 0, 74, 77
2, 109263, Note_on_c, 0, 62, 70
2, 109446, Note_on_c, 0, 69, 68
2, 109731, Note_on_c, 0, 74, 0
2, 109731, Note_on_c, 0, 86, 0
2, 109735, Note_on_c, 0, 86, 93
2, 109740, Note_on_c, 0, 74, 84
2, 109895, Note_on_c, 0, 88, 100
2, 109908, Note_on_c, 0, 76, 85
2, 110042, Control_c, 0, 64, 0
2, 110050, Note_on_c, 0, 91, 106
2, 110054, Note_on_c, 0, 45, 77
2, 110061, Note_on_c, 0, 79, 81
2, 110080, Note_on_c, 0, 76, 0
2, 110081, Note_on_c, 0, 57, 0
2, 110081, Note_on_c, 0, 43, 0
2, 110081, Note_on_c, 0, 86, 0
2, 110081, Note_on_c, 0, 81, 0
2, 110082, Note_on_c, 0, 88, 0
2, 110082, Note_on_c, 0, 69, 0
2, 110082, Note_on_c, 0, 62, 0
2, 110082, Note_on_c, 0, 50, 0
2, 110084, Note_on_c, 0, 74, 0
2, 110085, Control_c, 0, 64, 127
2, 110100, Note_on_c, 0, 93, 0
2, 110204, Note_on_c, 0, 52, 64
2, 110337, Note_on_c, 0, 57, 75
2, 110341, Note_on_c, 0, 90, 96
2, 110350, Note_on_c, 0, 78, 77
2, 110490, Note_on_c, 0, 61, 77
2, 110492, Note_on_c, 0, 88, 99
2, 110525, Note_on_c, 0, 76, 76
2, 110657, Note_on_c, 0, 62, 77
2, 110785, Note_on_c, 0, 86, 90
2, 110794, Note_on_c, 0, 74, 76
2, 110799, Note_on_c, 0, 61, 0
2, 110808, Note_on_c, 0, 61, 63
2, 110952, Note_on_c, 0, 57, 0
2, 110952, Note_on_c, 0, 86, 0
2, 110960, Note_on_c, 0, 78, 0
2, 110962, Note_on_c, 0, 86, 94
2, 110963, Note_on_c, 0, 57, 69
2, 110967, Note_on_c, 0, 78, 85
2, 110968, Note_on_c, 0, 74, 0
2, 110972, Note_on_c, 0, 74, 76
2, 111105, Note_on_c, 0, 47, 85
2, 111255, Note_on_c, 0, 54, 99
2, 111267, Note_on_c, 0, 57, 0
2, 111271, Note_on_c, 0, 57, 94
2, 111275, Note_on_c, 0, 62, 0
2, 111280, Note_on_c, 0, 62, 97
2, 111536, Note_on_c, 0, 47, 0
2, 111541, Note_on_c, 0, 47, 95
2, 111559, Note_on_c, 0, 76, 0
2, 111563, Note_on_c, 0, 64, 101
2, 111569, Note_on_c, 0, 76, 88
2, 111720, Note_on_c, 0, 54, 0
2, 111720, Note_on_c, 0, 57, 0
2, 111729, Note_on_c, 0, 57, 80
2, 111729, Note_on_c, 0, 54, 82
2, 111871, Control_c, 0, 64, 0
2, 111871, Note_on_c, 0, 52, 0
2, 111872, Note_on_c, 0, 76, 0
2, 111872, Note_on_c, 0, 61, 0
2, 111872, Note_on_c, 0, 91, 0
2, 111872, Note_on_c, 0, 88, 0
2, 111872, Note_on_c, 0, 90, 0
2, 111872, Note_on_c, 0, 79, 0
2, 111872, Note_on_c, 0, 62, 0
2, 111873, Note_on_c, 0, 86, 0
2, 111873, Note_on_c, 0, 74, 0
2, 111873, Note_on_c, 0, 78, 0
2, 111873, Note_on_c, 0, 54, 0
2, 111874, Note_on_c, 0, 64, 0
2, 111874, Note_on_c, 0, 45, 0
2, 111874, Note_on_c, 0, 57, 0
2, 111878, Note_on_c, 0, 66, 104
2, 111879, Note_on_c, 0, 57, 100
2, 111883, Note_on_c, 0, 45, 99
2, 111897, Note_on_c, 0, 47, 0
2, 111943, Control_c, 0, 64, 127
2, 112173, Note_on_c, 0, 52, 91
2, 112176, Note_on_c, 0, 67, 107
2, 112420, Note_on_c, 0, 66, 0
2, 112420, Note_on_c, 0, 52, 0
2, 112421, Note_on_c, 0, 45, 0
2, 112421, Note_on_c, 0, 57, 0
2, 112423, Control_c, 0, 64, 0
2, 112478, Note_on_c, 0, 43, 98
2, 112480, Note_on_c, 0, 59, 106
2, 112483, Note_on_c, 0, 50, 103
2, 112485, Note_on_c, 0, 66, 101
2, 112558, Control_c, 0, 64, 127
2, 112716, Note_on_c, 0, 69, 78
2, 112788, Note_on_c, 0, 66, 0
2, 112794, Note_on_c, 0, 66, 97
2, 112831, Note_on_c, 0, 73, 98
2, 112906, Note_on_c, 0, 74, 92
2, 112987, Note_on_c, 0, 76, 87
2, 113052, Note_on_c, 0, 78, 81
2, 113100, Note_on_c, 0, 64, 101
2, 113129, Note_on_c, 0, 79, 77
2, 113176, Note_on_c, 0, 81, 86
2, 113207, Note_on_c, 0, 83, 87
2, 113259, Note_on_c, 0, 85, 97
2, 113334, Note_on_c, 0, 86, 97
2, 113388, Control_c, 0, 64, 0
2, 113393, Note_on_c, 0, 66, 0
2, 113393, Note_on_c, 0, 50, 0
2, 113394, Note_on_c, 0, 81, 0
2, 113394, Note_on_c, 0, 69, 0
2, 113395, Note_on_c, 0, 43, 0
2, 113395, Note_on_c, 0, 64, 0
2, 113396, Note_on_c, 0, 83, 0
2, 113396, Note_on_c, 0, 79, 0
2, 113397, Note_on_c, 0, 78, 0
2, 113397, Note_on_c, 0, 76, 0
2, 113398, Note_on_c, 0, 74, 0
2, 113398, Note_on_c, 0, 85, 0
2, 113399, Note_on_c, 0, 86, 0
2, 113402, Note_on_c, 0, 59, 0
2, 113402, Note_on_c, 0, 67, 0
2, 113403, Note_on_c, 0, 64, 107
2, 113406, Note_on_c, 0, 88, 99
2, 113410, Note_on_c, 0, 59, 99
2, 113410, Note_on_c, 0, 73, 0
2, 113413, Note_on_c, 0, 55, 95
2, 113448, Control_c, 0, 64, 127
2, 113484, Note_on_c, 0, 86, 75
2, 113542, Note_on_c, 0, 85, 81
2, 113603, Note_on_c, 0, 83, 84
2, 113625, Note_on_c, 0, 64, 0
2, 113630, Note_on_c, 0, 64, 69
2, 113674, Note_on_c, 0, 81, 70
2, 113710, Note_on_c, 0, 55, 0
2, 113713, Note_on_c, 0, 62, 100
2, 113721, Note_on_c, 0, 55, 76
2, 113731, Note_on_c, 0, 79, 84
2, 113808, Note_on_c, 0, 78, 82
2, 113862, Note_on_c, 0, 76, 74
2, 113946, Note_on_c, 0, 74, 73
2, 114024, Note_on_c, 0, 62, 0
2, 114029, Note_on_c, 0, 73, 75
2, 114033, Note_on_c, 0, 62, 89
2, 114089, Note_on_c, 0, 71, 77
2, 114168, Note_on_c, 0, 69, 67
2, 114231, Note_on_c, 0, 67, 81
2, 114299, Note_on_c, 0, 66, 80
2, 114337, Note_on_c, 0, 61, 99
2, 114339, Note_on_c, 0, 55, 0
2, 114347, Note_on_c, 0, 59, 0
2, 114347, Note_on_c, 0, 64, 0
2, 114350, Note_on_c, 0, 55, 81
2, 114351, Note_on_c, 0, 59, 90
2, 114356, Note_on_c, 0, 64, 82
2, 114629, Note_on_c, 0, 43, 76
2, 114785, Note_on_c, 0, 59, 0
2, 114794, Note_on_c, 0, 59, 103
2, 114796, Note_on_c, 0, 50, 89
2, 114872, Note_on_c, 0, 85, 0
2, 114872, Note_on_c, 0, 83, 0
2, 114872, Note_on_c, 0, 67, 0
2, 114873, Note_on_c, 0, 76, 0
2, 114874, Note_on_c, 0, 86, 0
2, 114874, Note_on_c, 0, 66, 0
2, 114874, Note_on_c, 0, 78, 0
2, 114876, Note_on_c, 0, 74, 0
2, 114876, Note_on_c, 0, 69, 0
2, 114877, Note_on_c, 0, 79, 0
2, 114877, Note_on_c, 0, 88, 0
2, 114879, Note_on_c, 0, 55, 0
2, 114880, Note_on_c, 0, 61, 0
2, 114880, Note_on_c, 0, 81, 0
2, 114885, Note_on_c, 0, 64, 0
2, 114885, Note_on_c, 0, 71, 0
2, 114885, Note_on_c, 0, 73, 0
2, 114889, Note_on_c, 0, 43, 0
2, 114892, Note_on_c, 0, 62, 0
2, 114904, Control_c, 0, 64, 0
2, 114945, Note_on_c, 0, 42, 89
2, 115015, Control_c, 0, 64, 127
2, 115110, Note_on_c, 0, 57, 101
2, 115253, Note_on_c, 0, 57, 0
2, 115257, Note_on_c, 0, 57, 80
2, 115296, Note_on_c, 0, 64, 82
2, 115384, Note_on_c, 0, 69, 81
2, 115446, Note_on_c, 0, 71, 74
2, 115510, Note_on_c, 0, 76, 86
2, 115533, Note_on_c, 0, 52, 82
2, 115550, Note_on_c, 0, 49, 78
2, 115569, Note_on_c, 0, 81, 89
2, 115626, Note_on_c, 0, 83, 88
2, 115705, Note_on_c, 0, 88, 88
2, 115826, Note_on_c, 0, 47, 100
2, 115849, Note_on_c, 0, 86, 100
2, 115860, Note_on_c, 0, 81, 0
2, 115861, Note_on_c, 0, 74, 89
2, 115865, Note_on_c, 0, 81, 76
2, 115871, Note_on_c, 0, 49, 0
2, 115871, Note_on_c, 0, 69, 0
2, 115871, Note_on_c, 0, 42, 0
2, 115871, Note_on_c, 0, 78, 67
2, 115872, Note_on_c, 0, 76, 0
2, 115872, Note_on_c, 0, 52, 0
2, 115872, Note_on_c, 0, 71, 0
2, 115872, Note_on_c, 0, 64, 0
2, 115872, Note_on_c, 0, 57, 0
2, 115872, Note_on_c, 0, 83, 0
2, 115872, Note_on_c, 0, 88, 0
2, 115873, Control_c, 0, 64, 0
2, 115883, Note_on_c, 0, 50, 0
2, 115891, Note_on_c, 0, 59, 0
2, 115952, Control_c, 0, 64, 127
2, 115991, Note_on_c, 0, 54, 90
2, 116129, Note_on_c, 0, 62, 107
2, 116304, Note_on_c, 0, 57, 78
2, 116431, Note_on_c, 0, 64, 105
2, 116582, Note_on_c, 0, 54, 0
2, 116593, Note_on_c, 0, 54, 83
2, 116743, Note_on_c, 0, 74, 0
2, 116747, Note_on_c, 0, 66, 109
2, 116751, Note_on_c, 0, 57, 0
2, 116751, Note_on_c, 0, 62, 0
2, 116753, Note_on_c, 0, 74, 92
2, 116756, Note_on_c, 0, 62, 92
2, 116761, Note_on_c, 0, 57, 88
2, 116782, Note_on_c, 0, 86, 0
2, 116784, Note_on_c, 0, 64, 0
2, 116786, Control_c, 0, 64, 0
2, 116797, Note_on_c, 0, 81, 0
2, 116805, Note_on_c, 0, 47, 0
2, 116858, Control_c, 0, 64, 127
2, 117041, Note_on_c, 0, 47, 81
2, 117043, Note_on_c, 0, 78, 0
2, 117047, Note_on_c, 0, 67, 107
2, 117291, Note_on_c, 0, 67, 0
2, 117291, Note_on_c, 0, 47, 0
2, 117292, Note_on_c, 0, 66, 0
2, 117292, Control_c, 0, 64, 0
2, 117304, Note_on_c, 0, 54, 0
2, 117312, Note_on_c, 0, 57, 0
2, 117312, Note_on_c, 0, 62, 0
2, 117319, Note_on_c, 0, 74, 0
2, 117347, Note_on_c, 0, 66, 107
2, 117363, Note_on_c, 0, 49, 96
2, 117369, Note_on_c, 0, 55, 91
2, 117369, Note_on_c, 0, 59, 91
2, 117376, Note_on_c, 0, 52, 86
2, 117381, Control_c, 0, 64, 127
2, 117500, Note_on_c, 0, 67, 79
2, 117563, Note_on_c, 0, 69, 79
2, 117604, Note_on_c, 0, 71, 63
2, 117657, Note_on_c, 0, 66, 0
2, 117662, Note_on_c, 0, 73, 99
2, 117668, Note_on_c, 0, 66, 95
2, 117730, Note_on_c, 0, 74, 90
2, 117808, Note_on_c, 0, 76, 83
2, 117869, Note_on_c, 0, 78, 70
2, 117936, Note_on_c, 0, 79, 67
2, 117985, Note_on_c, 0, 64, 103
2, 117991, Note_on_c, 0, 81, 76
2, 118044, Note_on_c, 0, 83, 84
2, 118127, Note_on_c, 0, 85, 80
2, 118213, Note_on_c, 0, 86, 90
2, 118253, Note_on_c, 0, 71, 0
2, 118253, Note_on_c, 0, 73, 0
2, 118253, Note_on_c, 0, 81, 0
2, 118253, Note_on_c, 0, 74, 0
2, 118253, Note_on_c, 0, 76, 0
2, 118253, Note_on_c, 0, 59, 0
2, 118253, Note_on_c, 0, 83, 0
2, 118253, Note_on_c, 0, 78, 0
2, 118253, Control_c, 0, 64, 0
2, 118253, Note_on_c, 0, 52, 0
2, 118253, Note_on_c, 0, 55, 0
2, 118254, Note_on_c, 0, 49, 0
2, 118254, Note_on_c, 0, 85, 0
2, 118254, Note_on_c, 0, 67, 0
2, 118254, Note_on_c, 0, 69, 0
2, 118254, Note_on_c, 0, 79, 0
2, 118255, Note_on_c, 0, 86, 0
2, 118279, Note_on_c, 0, 66, 0
2, 118287, Note_on_c, 0, 64, 0
2, 118297, Note_on_c, 0, 64, 106
2, 118298, Note_on_c, 0, 88, 99
2, 118305, Note_on_c, 0, 61, 96
2, 118309, Note_on_c, 0, 58, 91
2, 118325, Control_c, 0, 64, 127
2, 118380, Note_on_c, 0, 86, 80
2, 118444, Note_on_c, 0, 85, 74
2, 118483, Note_on_c, 0, 83, 83
2, 118541, Note_on_c, 0, 81, 74
2, 118598, Note_on_c, 0, 62, 100
2, 118626, Note_on_c, 0, 79, 74
2, 118687, Note_on_c, 0, 78, 70
2, 118745, Note_on_c, 0, 76, 73
2, 118810, Note_on_c, 0, 74, 78
2, 118888, Note_on_c, 0, 73, 74
2, 118901, Note_on_c, 0, 62, 0
2, 118905, Note_on_c, 0, 62, 92
2, 118959, Note_on_c, 0, 71, 70
2, 119013, Note_on_c, 0, 69, 66
2, 119049, Note_on_c, 0, 42, 79
2, 119074, Note_on_c, 0, 67, 59
2, 119144, Note_on_c, 0, 66, 57
2, 119208, Note_on_c, 0, 58, 0
2, 119216, Note_on_c, 0, 61, 0
2, 119218, Note_on_c, 0, 58, 97
2, 119223, Note_on_c, 0, 61, 98
2, 119236, Note_on_c, 0, 49, 81
2, 119516, Note_on_c, 0, 42, 0
2, 119525, Note_on_c, 0, 42, 87
2, 119669, Note_on_c, 0, 61, 0
2, 119680, Note_on_c, 0, 61, 104
2, 119754, Note_on_c, 0, 88, 0
2, 119756, Note_on_c, 0, 83, 0
2, 119756, Note_on_c, 0, 69, 0
2, 119757, Note_on_c, 0, 49, 0
2, 119757, Note_on_c, 0, 71, 0
2, 119757, Note_on_c, 0, 76, 0
2, 119757, Note_on_c, 0, 85, 0
2, 119757, Note_on_c, 0, 86, 0
2, 119757, Note_on_c, 0, 64, 0
2, 119758, Note_on_c, 0, 66, 0
2, 119758, Note_on_c, 0, 81, 0
2, 119758, Note_on_c, 0, 62, 0
2, 119758, Note_on_c, 0, 67, 0
2, 119758, Note_on_c, 0, 79, 0
2, 119758, Note_on_c, 0, 73, 0
2, 119758, Note_on_c, 0, 74, 0
2, 119758, Note_on_c, 0, 78, 0
2, 119758, Note_on_c, 0, 42, 0
2, 119764, Control_c, 0, 64, 0
2, 119769, Note_on_c, 0, 58, 0
2, 119821, Note_on_c, 0, 47, 87
2, 119892, Control_c, 0, 64, 127
2, 119987, Note_on_c, 0, 62, 94
2, 120130, Note_on_c, 0, 62, 0
2, 120134, Note_on_c, 0, 54, 89
2, 120134, Note_on_c, 0, 62, 88
2, 120280, Note_on_c, 0, 64, 72
2, 120344, Note_on_c, 0, 66, 74
2, 120429, Note_on_c, 0, 67, 77
2, 120434, Note_on_c, 0, 57, 79
2, 120497, Note_on_c, 0, 69, 80
2, 120551, Note_on_c, 0, 71, 79
2, 120605, Note_on_c, 0, 73, 85
2, 120669, Note_on_c, 0, 74, 84
2, 120734, Note_on_c, 0, 76, 82
2, 120744, Note_on_c, 0, 54, 0
2, 120750, Note_on_c, 0, 54, 65
2, 120804, Note_on_c, 0, 78, 77
2, 120892, Note_on_c, 0, 79, 84
2, 121038, Note_on_c, 0, 81, 93
2, 121040, Note_on_c, 0, 45, 84
2, 121056, Control_c, 0, 64, 0
2, 121060, Note_on_c, 0, 67, 0
2, 121061, Note_on_c, 0, 69, 0
2, 121061, Note_on_c, 0, 62, 0
2, 121061, Note_on_c, 0, 71, 0
2, 121061, Note_on_c, 0, 64, 0
2, 121061, Note_on_c, 0, 73, 0
2, 121062, Note_on_c, 0, 74, 0
2, 121062, Note_on_c, 0, 57, 0
2, 121062, Note_on_c, 0, 76, 0
2, 121062, Note_on_c, 0, 54, 0
2, 121062, Note_on_c, 0, 79, 0
2, 121062, Note_on_c, 0, 66, 0
2, 121063, Note_on_c, 0, 78, 0
2, 121075, Note_on_c, 0, 47, 0
2, 121075, Note_on_c, 0, 61, 0
2, 121121, Control_c, 0, 64, 127
2, 121143, Note_on_c, 0, 76, 70
2, 121210, Note_on_c, 0, 74, 80
2, 121291, Note_on_c, 0, 69, 71
2, 121335, Note_on_c, 0, 52, 68
2, 121351, Note_on_c, 0, 74, 0
2, 121363, Note_on_c, 0, 74, 78
2, 121420, Note_on_c, 0, 76, 0
2, 121429, Note_on_c, 0, 76, 72
2, 121497, Note_on_c, 0, 81, 0
2, 121507, Note_on_c, 0, 81, 70
2, 121549, Note_on_c, 0, 88, 77
2, 121611, Note_on_c, 0, 93, 98
2, 121639, Note_on_c, 0, 61, 70
2, 121925, Note_on_c, 0, 62, 81
2, 121927, Note_on_c, 0, 52, 0
2, 121938, Note_on_c, 0, 52, 66
2, 122067, Note_on_c, 0, 64, 85
2, 122226, Note_on_c, 0, 65, 91
2, 122227, Note_on_c, 0, 62, 0
2, 122234, Note_on_c, 0, 53, 78
2, 122236, Note_on_c, 0, 43, 84
2, 122237, Note_on_c, 0, 62, 77
2, 122259, Control_c, 0, 64, 0
2, 122260, Note_on_c, 0, 81, 0
2, 122260, Note_on_c, 0, 93, 0
2, 122260, Note_on_c, 0, 69, 0
2, 122260, Note_on_c, 0, 61, 0
2, 122261, Note_on_c, 0, 64, 0
2, 122261, Note_on_c, 0, 45, 0
2, 122261, Note_on_c, 0, 88, 0
2, 122273, Note_on_c, 0, 74, 0
2, 122280, Note_on_c, 0, 52, 0
2, 122280, Note_on_c, 0, 76, 0
2, 122357, Control_c, 0, 64, 127
2, 122555, Note_on_c, 0, 50, 52
2, 122682, Note_on_c, 0, 64, 72
2, 122695, Note_on_c, 0, 53, 0
2, 122703, Note_on_c, 0, 53, 57
2, 122843, Note_on_c, 0, 58, 75
2, 122979, Note_on_c, 0, 62, 0
2, 122990, Note_on_c, 0, 62, 81
2, 123133, Note_on_c, 0, 62, 0
2, 123144, Note_on_c, 0, 62, 86
2, 123156, Note_on_c, 0, 50, 0
2, 123161, Note_on_c, 0, 50, 67
2, 123302, Note_on_c, 0, 53, 0
2, 123309, Note_on_c, 0, 53, 67
2, 123432, Note_on_c, 0, 58, 0
2, 123437, Note_on_c, 0, 77, 87
2, 123442, Note_on_c, 0, 58, 75
2, 123443, Note_on_c, 0, 74, 83
2, 123740, Note_on_c, 0, 50, 0
2, 123751, Note_on_c, 0, 50, 57
2, 123896, Note_on_c, 0, 76, 90
2, 123909, Note_on_c, 0, 53, 0
2, 123912, Note_on_c, 0, 72, 67
2, 123915, Note_on_c, 0, 53, 61
2, 124062, Note_on_c, 0, 58, 0
2, 124068, Note_on_c, 0, 58, 77
2, 124200, Note_on_c, 0, 74, 0
2, 124208, Note_on_c, 0, 74, 95
2, 124346, Note_on_c, 0, 50, 0
2, 124353, Note_on_c, 0, 50, 72
2, 124369, Note_on_c, 0, 64, 0
2, 124374, Note_on_c, 0, 64, 76
2, 124492, Note_on_c, 0, 65, 0
2, 124503, Note_on_c, 0, 65, 81
2, 124660, Note_on_c, 0, 45, 84
2, 124661, Note_on_c, 0, 64, 0
2, 124669, Note_on_c, 0, 67, 95
2, 124672, Note_on_c, 0, 64, 91
2, 124672, Note_on_c, 0, 55, 85
2, 124687, Note_on_c, 0, 43, 0
2, 124688, Note_on_c, 0, 76, 0
2, 124688, Note_on_c, 0, 58, 0
2, 124688, Note_on_c, 0, 53, 0
2, 124688, Note_on_c, 0, 50, 0
2, 124689, Note_on_c, 0, 72, 0
2, 124689, Note_on_c, 0, 77, 0
2, 124690, Control_c, 0, 64, 0
2, 124700, Note_on_c, 0, 62, 0
2, 124707, Note_on_c, 0, 65, 0
2, 124730, Note_on_c, 0, 74, 0
2, 124769, Control_c, 0, 64, 127
2, 124966, Note_on_c, 0, 52, 72
2, 125107, Note_on_c, 0, 55, 0
2, 125110, Note_on_c, 0, 65, 92
2, 125118, Note_on_c, 0, 55, 79
2, 125277, Note_on_c, 0, 60, 87
2, 125399, Note_on_c, 0, 64, 0
2, 125409, Note_on_c, 0, 64, 81
2, 125568, Note_on_c, 0, 64, 0
2, 125573, Note_on_c, 0, 64, 94
2, 125574, Note_on_c, 0, 76, 91
2, 125583, Note_on_c, 0, 52, 0
2, 125594, Note_on_c, 0, 52, 72
2, 125714, Note_on_c, 0, 77, 97
2, 125744, Note_on_c, 0, 55, 0
2, 125748, Note_on_c, 0, 55, 68
2, 125882, Note_on_c, 0, 60, 0
2, 125882, Note_on_c, 0, 76, 0
2, 125884, Note_on_c, 0, 79, 104
2, 125892, Note_on_c, 0, 60, 80
2, 125893, Note_on_c, 0, 76, 95
2, 126190, Note_on_c, 0, 52, 0
2, 126195, Note_on_c, 0, 52, 67
2, 126343, Note_on_c, 0, 55, 0
2, 126343, Note_on_c, 0, 77, 0
2, 126348, Note_on_c, 0, 77, 95
2, 126353, Note_on_c, 0, 55, 80
2, 126355, Note_on_c, 0, 74, 89
2, 126497, Note_on_c, 0, 60, 0
2, 126508, Note_on_c, 0, 60, 80
2, 126643, Note_on_c, 0, 76, 0
2, 126650, Note_on_c, 0, 72, 88
2, 126653, Note_on_c, 0, 76, 91
2, 126804, Note_on_c, 0, 65, 0
2, 126808, Note_on_c, 0, 65, 93
2, 126821, Note_on_c, 0, 55, 0
2, 126835, Note_on_c, 0, 52, 0
2, 126839, Note_on_c, 0, 52, 75
2, 126950, Note_on_c, 0, 67, 0
2, 126956, Note_on_c, 0, 67, 93
2, 127093, Note_on_c, 0, 52, 0
2, 127093, Note_on_c, 0, 74, 0
2, 127094, Note_on_c, 0, 64, 0
2, 127094, Control_c, 0, 64, 0
2, 127094, Note_on_c, 0, 77, 0
2, 127095, Note_on_c, 0, 65, 0
2, 127095, Note_on_c, 0, 67, 0
2, 127096, Note_on_c, 0, 45, 0
2, 127103, Note_on_c, 0, 46, 96
2, 127109, Note_on_c, 0, 69, 105
2, 127119, Note_on_c, 0, 60, 0
2, 127119, Note_on_c, 0, 72, 0
2, 127119, Note_on_c, 0, 76, 0
2, 127157, Control_c, 0, 64, 127
2, 127415, Note_on_c, 0, 67, 101
2, 127419, Note_on_c, 0, 53, 83
2, 127564, Note_on_c, 0, 58, 82
2, 127703, Note_on_c, 0, 79, 0
2, 127710, Note_on_c, 0, 79, 105
2, 127710, Note_on_c, 0, 67, 0
2, 127715, Note_on_c, 0, 70, 96
2, 127718, Note_on_c, 0, 67, 97
2, 127719, Note_on_c, 0, 74, 90
2, 127721, Note_on_c, 0, 62, 90
2, 128015, Note_on_c, 0, 65, 102
2, 128017, Note_on_c, 0, 53, 0
2, 128024, Note_on_c, 0, 53, 85
2, 128171, Note_on_c, 0, 58, 0
2, 128176, Note_on_c, 0, 58, 87
2, 128317, Note_on_c, 0, 65, 0
2, 128322, Note_on_c, 0, 47, 101
2, 128327, Note_on_c, 0, 65, 107
2, 128333, Control_c, 0, 64, 0
2, 128336, Note_on_c, 0, 58, 0
2, 128336, Note_on_c, 0, 53, 0
2, 128337, Note_on_c, 0, 74, 0
2, 128337, Note_on_c, 0, 79, 0
2, 128337, Note_on_c, 0, 69, 0
2, 128337, Note_on_c, 0, 62, 0
2, 128337, Note_on_c, 0, 67, 0
2, 128337, Note_on_c, 0, 70, 0
2, 128348, Note_on_c, 0, 46, 0
2, 128394, Control_c, 0, 64, 127
2, 128629, Note_on_c, 0, 67, 104
2, 128631, Note_on_c, 0, 53, 92
2, 128779, Note_on_c, 0, 55, 79
2, 128928, Note_on_c, 0, 69, 106
2, 128929, Note_on_c, 0, 71, 100
2, 128929, Note_on_c, 0, 81, 109
2, 128936, Note_on_c, 0, 74, 93
2, 128937, Note_on_c, 0, 62, 87
2, 129242, Control_c, 0, 64, 0
2, 129246, Note_on_c, 0, 55, 0
2, 129248, Note_on_c, 0, 47, 0
2, 129249, Note_on_c, 0, 60, 107
2, 129249, Note_on_c, 0, 67, 0
2, 129250, Note_on_c, 0, 62, 0
2, 129250, Note_on_c, 0, 69, 0
2, 129250, Note_on_c, 0, 71, 0
2, 129250, Note_on_c, 0, 81, 0
2, 129250, Note_on_c, 0, 53, 0
2, 129251, Note_on_c, 0, 55, 91
2, 129252, Note_on_c, 0, 48, 99
2, 129254, Note_on_c, 0, 65, 0
2, 129256, Note_on_c, 0, 72, 109
2, 129258, Note_on_c, 0, 84, 105
2, 129263, Note_on_c, 0, 76, 102
2, 129267, Note_on_c, 0, 79, 98
2, 129269, Note_on_c, 0, 74, 0
2, 129292, Control_c, 0, 64, 127
2, 129692, Note_on_c, 0, 48, 0
2, 129699, Note_on_c, 0, 55, 0
2, 129701, Note_on_c, 0, 48, 93
2, 129710, Note_on_c, 0, 55, 89
2, 129855, Note_on_c, 0, 82, 107
2, 129856, Note_on_c, 0, 70, 108
2, 129866, Note_on_c, 0, 62, 100
2, 129868, Note_on_c, 0, 74, 90
2, 130002, Note_on_c, 0, 81, 111
2, 130002, Note_on_c, 0, 69, 105
2, 130145, Note_on_c, 0, 79, 0
2, 130149, Note_on_c, 0, 79, 113
2, 130152, Note_on_c, 0, 72, 0
2, 130152, Note_on_c, 0, 76, 0
2, 130155, Note_on_c, 0, 67, 107
2, 130156, Note_on_c, 0, 76, 105
2, 130157, Note_on_c, 0, 72, 102
2, 130157, Note_on_c, 0, 64, 104
2, 130314, Note_on_c, 0, 60, 0
2, 130325, Note_on_c, 0, 60, 101
2, 130460, Note_on_c, 0, 55, 0
2, 130464, Note_on_c, 0, 55, 102
2, 130606, Note_on_c, 0, 48, 0
2, 130615, Note_on_c, 0, 48, 107
2, 130733, Control_c, 0, 64, 0
2, 130735, Note_on_c, 0, 84, 0
2, 130736, Note_on_c, 0, 82, 0
2, 130737, Note_on_c, 0, 70, 0
2, 130737, Note_on_c, 0, 69, 0
2, 130737, Note_on_c, 0, 72, 0
2, 130737, Note_on_c, 0, 48, 0
2, 130737, Note_on_c, 0, 74, 0
2, 130737, Note_on_c, 0, 67, 0
2, 130738, Note_on_c, 0, 62, 0
2, 130738, Note_on_c, 0, 79, 0
2, 130738, Note_on_c, 0, 76, 0
2, 130739, Note_on_c, 0, 81, 0
2, 130740, Note_on_c, 0, 64, 0
2, 130752, Note_on_c, 0, 55, 0
2, 130757, Note_on_c, 0, 55, 104
2, 130759, Note_on_c, 0, 60, 0
2, 130762, Note_on_c, 0, 52, 102
2, 130763, Note_on_c, 0, 49, 110
2, 130767, Control_c, 0, 64, 127
2, 130824, Note_on_c, 0, 79, 89
2, 130892, Note_on_c, 0, 76, 89
2, 130932, Note_on_c, 0, 73, 100
2, 130981, Note_on_c, 0, 67, 99
2, 131059, Note_on_c, 0, 67, 0
2, 131069, Note_on_c, 0, 67, 88
2, 131128, Note_on_c, 0, 64, 95
2, 131193, Note_on_c, 0, 61, 95
2, 131266, Note_on_c, 0, 55, 0
2, 131270, Note_on_c, 0, 55, 91
2, 131382, Note_on_c, 0, 31, 104
2, 131383, Note_on_c, 0, 43, 109
2, 131665, Note_on_c, 0, 79, 0
2, 131673, Note_on_c, 0, 67, 0
2, 131677, Note_on_c, 0, 79, 112
2, 131684, Note_on_c, 0, 67, 103
2, 131686, Note_on_c, 0, 42, 100
2, 131688, Note_on_c, 0, 30, 102
2, 131823, Note_on_c, 0, 81, 113
2, 131827, Note_on_c, 0, 55, 0
2, 131827, Note_on_c, 0, 69, 105
2, 131829, Note_on_c, 0, 31, 0
2, 131830, Note_on_c, 0, 61, 0
2, 131830, Note_on_c, 0, 76, 0
2, 131830, Note_on_c, 0, 30, 0
2, 131830, Note_on_c, 0, 73, 0
2, 131830, Note_on_c, 0, 67, 0
2, 131831, Note_on_c, 0, 43, 0
2, 131831, Note_on_c, 0, 52, 0
2, 131831, Note_on_c, 0, 49, 0
2, 131831, Control_c, 0, 64, 0
2, 131832, Note_on_c, 0, 42, 0
2, 131833, Note_on_c, 0, 79, 0
2, 131850, Note_on_c, 0, 64, 0
2, 131893, Note_on_c, 0, 81, 0
2, 131896, Note_on_c, 0, 69, 0
2, 131990, Note_on_c, 0, 83, 112
2, 131992, Note_on_c, 0, 28, 102
2, 131992, Note_on_c, 0, 71, 112
2, 131992, Note_on_c, 0, 40, 102
2, 132000, Note_on_c, 0, 76, 100
2, 132011, Note_on_c, 0, 79, 93
2, 132042, Control_c, 0, 64, 127
2, 132280, Note_on_c, 0, 40, 0
2, 132291, Note_on_c, 0, 40, 77
2, 132316, Note_on_c, 0, 47, 87
2, 132406, Note_on_c, 0, 52, 95
2, 132449, Note_on_c, 0, 71, 0
2, 132449, Note_on_c, 0, 79, 0
2, 132455, Note_on_c, 0, 71, 99
2, 132458, Note_on_c, 0, 79, 111
2, 132460, Note_on_c, 0, 67, 103
2, 132497, Note_on_c, 0, 54, 68
2, 132589, Note_on_c, 0, 55, 82
2, 132621, Note_on_c, 0, 59, 107
2, 132698, Note_on_c, 0, 40, 0
2, 132698, Note_on_c, 0, 52, 0
2, 132698, Note_on_c, 0, 71, 0
2, 132698, Note_on_c, 0, 83, 0
2, 132698, Control_c, 0, 64, 0
2, 132699, Note_on_c, 0, 67, 0
2, 132699, Note_on_c, 0, 47, 0
2, 132699, Note_on_c, 0, 76, 0
2, 132699, Note_on_c, 0, 79, 0
2, 132699, Note_on_c, 0, 55, 0
2, 132699, Note_on_c, 0, 54, 0
2, 132699, Note_on_c, 0, 59, 0
2, 132710, Note_on_c, 0, 28, 0
2, 132923, Note_on_c, 0, 72, 114
2, 132924, Note_on_c, 0, 84, 110
2, 132927, Note_on_c, 0, 79, 109
2, 132929, Note_on_c, 0, 76, 107
2, 132929, Note_on_c, 0, 36, 106
2, 132930, Note_on_c, 0, 24, 104
2, 132956, Control_c, 0, 64, 127
2, 132971, Control_c, 0, 64, 0
2, 133056, Control_c, 0, 64, 127
2, 133217, Note_on_c, 0, 36, 0
2, 133226, Note_on_c, 0, 36, 96
2, 133295, Note_on_c, 0, 43, 81
2, 133358, Note_on_c, 0, 48, 99
2, 133452, Note_on_c, 0, 50, 92
2, 133527, Note_on_c, 0, 52, 100
2, 133547, Note_on_c, 0, 79, 0
2, 133549, Note_on_c, 0, 71, 104
2, 133551, Note_on_c, 0, 83, 106
2, 133555, Note_on_c, 0, 76, 0
2, 133555, Note_on_c, 0, 79, 99
2, 133559, Note_on_c, 0, 76, 95
2, 133678, Note_on_c, 0, 48, 0
2, 133683, Note_on_c, 0, 48, 98
2, 133830, Note_on_c, 0, 60, 95
2, 133831, Note_on_c, 0, 72, 0
2, 133835, Note_on_c, 0, 43, 0
2, 133837, Note_on_c, 0, 72, 106
2, 133839, Note_on_c, 0, 50, 0
2, 133839, Note_on_c, 0, 81, 110
2, 133840, Note_on_c, 0, 69, 104
2, 133844, Note_on_c, 0, 50, 84
2, 133899, Note_on_c, 0, 55, 74
2, 133977, Note_on_c, 0, 79, 0
2, 133985, Note_on_c, 0, 36, 0
2, 133985, Note_on_c, 0, 48, 0
2, 133986, Note_on_c, 0, 79, 109
2, 133989, Note_on_c, 0, 67, 103
2, 133990, Note_on_c, 0, 48, 96
2, 133996, Note_on_c, 0, 36, 90
2, 134131, Note_on_c, 0, 36, 0
2, 134138, Note_on_c, 0, 67, 0
2, 134138, Note_on_c, 0, 72, 0
2, 134138, Note_on_c, 0, 76, 0
2, 134138, Note_on_c, 0, 79, 0
2, 134139, Note_on_c, 0, 36, 104
2, 134143, Note_on_c, 0, 67, 98
2, 134143, Note_on_c, 0, 79, 99
2, 134145, Note_on_c, 0, 72, 102
2, 134148, Note_on_c, 0, 76, 99
2, 134351, Note_on_c, 0, 83, 0
2, 134351, Note_on_c, 0, 84, 0
2, 134351, Note_on_c, 0, 60, 0
2, 134352, Note_on_c, 0, 71, 0
2, 134352, Note_on_c, 0, 50, 0
2, 134352, Note_on_c, 0, 81, 0
2, 134352, Note_on_c, 0, 36, 0
2, 134353, Note_on_c, 0, 69, 0
2, 134353, Note_on_c, 0, 24, 0
2, 134354, Note_on_c, 0, 52, 0
2, 134355, Note_on_c, 0, 67, 0
2, 134358, Control_c, 0, 64, 0
2, 134376, Note_on_c, 0, 48, 0
2, 134376, Note_on_c, 0, 55, 0
2, 134434, Note_on_c, 0, 38, 103
2, 134434, Note_on_c, 0, 26, 101
2, 134545, Control_c, 0, 64, 127
2, 134745, Note_on_c, 0, 79, 0
2, 134750, Note_on_c, 0, 79, 108
2, 134755, Note_on_c, 0, 67, 103
2, 134756, Note_on_c, 0, 69, 99
2, 134765, Note_on_c, 0, 57, 77
2, 134765, Note_on_c, 0, 74, 72
2, 134766, Note_on_c, 0, 45, 72
2, 134772, Note_on_c, 0, 55, 73
2, 134784, Note_on_c, 0, 55, 0
2, 134864, Note_on_c, 0, 50, 95
2, 134892, Note_on_c, 0, 78, 114
2, 134895, Note_on_c, 0, 66, 112
2, 134906, Note_on_c, 0, 26, 0
2, 134950, Note_on_c, 0, 54, 90
2, 135037, Note_on_c, 0, 57, 0
2, 135037, Note_on_c, 0, 78, 0
2, 135045, Note_on_c, 0, 66, 0
2, 135045, Note_on_c, 0, 78, 105
2, 135048, Note_on_c, 0, 57, 110
2, 135050, Note_on_c, 0, 66, 106
2, 135189, Note_on_c, 0, 79, 0
2, 135190, Note_on_c, 0, 67, 0
2, 135191, Note_on_c, 0, 74, 0
2, 135191, Note_on_c, 0, 69, 0
2, 135191, Note_on_c, 0, 38, 0
2, 135193, Control_c, 0, 64, 0
2, 135193, Note_on_c, 0, 78, 0
2, 135193, Note_on_c, 0, 66, 0
2, 135198, Note_on_c, 0, 76, 0
2, 135206, Note_on_c, 0, 45, 0
2, 135206, Note_on_c, 0, 54, 0
2, 135206, Note_on_c, 0, 72, 0
2, 135214, Note_on_c, 0, 50, 0
2, 135214, Note_on_c, 0, 57, 0
2, 135353, Note_on_c, 0, 79, 113
2, 135356, Note_on_c, 0, 31, 98
2, 135357, Note_on_c, 0, 71, 105
2, 135357, Note_on_c, 0, 43, 109
2, 135357, Note_on_c, 0, 67, 102
2, 135362, Note_on_c, 0, 74, 103
2, 135644, Control_c, 0, 64, 127
2, 135672, Note_on_c, 0, 62, 105
2, 135678, Note_on_c, 0, 59, 99
2, 135809, Note_on_c, 0, 50, 98
2, 135813, Note_on_c, 0, 55, 94
2, 135970, Note_on_c, 0, 60, 111
2, 136097, Note_on_c, 0, 43, 0
2, 136106, Note_on_c, 0, 43, 101
2, 136118, Note_on_c, 0, 62, 0
2, 136252, Control_c, 0, 64, 0
2, 136253, Note_on_c, 0, 67, 0
2, 136253, Note_on_c, 0, 55, 0
2, 136253, Note_on_c, 0, 60, 0
2, 136253, Note_on_c, 0, 71, 0
2, 136254, Note_on_c, 0, 74, 0
2, 136254, Note_on_c, 0, 79, 0
2, 136254, Note_on_c, 0, 50, 0
2, 136266, Note_on_c, 0, 31, 0
2, 136273, Note_on_c, 0, 59, 0
2, 136275, Note_on_c, 0, 54, 107
2, 136277, Note_on_c, 0, 42, 108
2, 136281, Note_on_c, 0, 43, 0
2, 136282, Note_on_c, 0, 59, 105
2, 136366, Control_c, 0, 64, 127
2, 136414, Note_on_c, 0, 50, 95
2, 136579, Note_on_c, 0, 79, 111
2, 136579, Note_on_c, 0, 30, 99
2, 136584, Note_on_c, 0, 67, 102
2, 136601, Note_on_c, 0, 42, 0
2, 136723, Note_on_c, 0, 81, 112
2, 136724, Note_on_c, 0, 69, 102
2, 136746, Control_c, 0, 64, 0
2, 136746, Note_on_c, 0, 67, 0
2, 136748, Note_on_c, 0, 79, 0
2, 136748, Note_on_c, 0, 50, 0
2, 136749, Note_on_c, 0, 30, 0
2, 136765, Note_on_c, 0, 59, 0
2, 136773, Note_on_c, 0, 54, 0
2, 136796, Note_on_c, 0, 69, 0
2, 136819, Note_on_c, 0, 81, 0
2, 136892, Note_on_c, 0, 71, 112
2, 136894, Note_on_c, 0, 83, 109
2, 136898, Note_on_c, 0, 28, 100
2, 136898, Note_on_c, 0, 40, 101
2, 136899, Note_on_c, 0, 76, 103
2, 136900, Note_on_c, 0, 79, 103
2, 136919, Control_c, 0, 64, 127
2, 137141, Note_on_c, 0, 40, 0
2, 137153, Note_on_c, 0, 40, 75
2, 137188, Note_on_c, 0, 47, 85
2, 137281, Note_on_c, 0, 52, 92
2, 137341, Note_on_c, 0, 71, 0
2, 137341, Note_on_c, 0, 79, 0
2, 137348, Note_on_c, 0, 71, 104
2, 137351, Note_on_c, 0, 79, 110
2, 137352, Note_on_c, 0, 67, 100
2, 137367, Note_on_c, 0, 54, 83
2, 137450, Note_on_c, 0, 55, 86
2, 137520, Note_on_c, 0, 59, 110
2, 137616, Note_on_c, 0, 28, 0
2, 137620, Note_on_c, 0, 83, 0
2, 137621, Note_on_c, 0, 40, 0
2, 137621, Note_on_c, 0, 52, 0
2, 137621, Note_on_c, 0, 67, 0
2, 137621, Note_on_c, 0, 71, 0
2, 137621, Note_on_c, 0, 55, 0
2, 137621, Note_on_c, 0, 47, 0
2, 137621, Note_on_c, 0, 76, 0
2, 137621, Note_on_c, 0, 59, 0
2, 137622, Note_on_c, 0, 79, 0
2, 137630, Control_c, 0, 64, 0
2, 137633, Note_on_c, 0, 54, 0
2, 137819, Note_on_c, 0, 84, 110
2, 137822, Note_on_c, 0, 36, 107
2, 137824, Note_on_c, 0, 72, 113
2, 137826, Note_on_c, 0, 24, 103
2, 137829, Note_on_c, 0, 79, 103
2, 137832, Control_c, 0, 64, 127
2, 137836, Note_on_c, 0, 76, 100
2, 138101, Note_on_c, 0, 36, 0
2, 138112, Note_on_c, 0, 36, 91
2, 138168, Note_on_c, 0, 43, 79
2, 138237, Note_on_c, 0, 48, 93
2, 138337, Note_on_c, 0, 50, 90
2, 138408, Note_on_c, 0, 79, 0
2, 138412, Note_on_c, 0, 83, 107
2, 138412, Note_on_c, 0, 71, 104
2, 138413, Note_on_c, 0, 52, 93
2, 138416, Note_on_c, 0, 76, 0
2, 138417, Note_on_c, 0, 79, 101
2, 138420, Note_on_c, 0, 76, 87
2, 138570, Note_on_c, 0, 48, 0
2, 138575, Note_on_c, 0, 48, 92
2, 138714, Note_on_c, 0, 60, 101
2, 138716, Note_on_c, 0, 72, 0
2, 138718, Note_on_c, 0, 81, 106
2, 138723, Note_on_c, 0, 69, 101
2, 138723, Note_on_c, 0, 72, 90
2, 138723, Note_on_c, 0, 50, 0
2, 138731, Note_on_c, 0, 50, 79
2, 138786, Note_on_c, 0, 55, 93
2, 138869, Note_on_c, 0, 48, 0
2, 138869, Note_on_c, 0, 79, 0
2, 138874, Note_on_c, 0, 79, 108
2, 138875, Note_on_c, 0, 48, 96
2, 138883, Note_on_c, 0, 67, 97
2, 139000, Note_on_c, 0, 36, 0
2, 139010, Note_on_c, 0, 36, 104
2, 139031, Note_on_c, 0, 76, 0
2, 139031, Note_on_c, 0, 79, 0
2, 139036, Note_on_c, 0, 79, 102
2, 139038, Note_on_c, 0, 67, 0
2, 139038, Note_on_c, 0, 72, 0
2, 139041, Note_on_c, 0, 76, 102
2, 139042, Note_on_c, 0, 67, 95
2, 139043, Note_on_c, 0, 72, 93
2, 139250, Note_on_c, 0, 60, 0
2, 139251, Note_on_c, 0, 48, 0
2, 139251, Note_on_c, 0, 36, 0
2, 139252, Note_on_c, 0, 83, 0
2, 139252, Note_on_c, 0, 50, 0
2, 139252, Note_on_c, 0, 55, 0
2, 139252, Note_on_c, 0, 71, 0
2, 139252, Note_on_c, 0, 84, 0
2, 139253, Note_on_c, 0, 69, 0
2, 139253, Note_on_c, 0, 81, 0
2, 139254, Note_on_c, 0, 52, 0
2, 139256, Note_on_c, 0, 67, 0
2, 139258, Control_c, 0, 64, 0
2, 139261, Note_on_c, 0, 24, 0
2, 139269, Note_on_c, 0, 43, 0
2, 139328, Note_on_c, 0, 26, 106
2, 139331, Note_on_c, 0, 38, 104
2, 139353, Control_c, 0, 64, 127
2, 139614, Note_on_c, 0, 38, 0
2, 139614, Note_on_c, 0, 79, 0
2, 139624, Note_on_c, 0, 79, 105
2, 139624, Note_on_c, 0, 38, 99
2, 139628, Note_on_c, 0, 67, 98
2, 139633, Note_on_c, 0, 69, 95
2, 139661, Note_on_c, 0, 74, 48
2, 139683, Note_on_c, 0, 45, 38
2, 139744, Note_on_c, 0, 50, 93
2, 139779, Note_on_c, 0, 78, 107
2, 139782, Note_on_c, 0, 66, 108
2, 139852, Note_on_c, 0, 54, 95
2, 139914, Note_on_c, 0, 78, 0
2, 139924, Note_on_c, 0, 78, 109
2, 139929, Note_on_c, 0, 66, 0
2, 139934, Note_on_c, 0, 66, 97
2, 139941, Note_on_c, 0, 57, 106
2, 140130, Control_c, 0, 64, 0
2, 140133, Note_on_c, 0, 67, 0
2, 140133, Note_on_c, 0, 79, 0
2, 140134, Note_on_c, 0, 74, 0
2, 140134, Note_on_c, 0, 54, 0
2, 140134, Note_on_c, 0, 69, 0
2, 140134, Note_on_c, 0, 57, 0
2, 140135, Note_on_c, 0, 66, 0
2, 140135, Note_on_c, 0, 38, 0
2, 140136, Note_on_c, 0, 78, 0
2, 140136, Note_on_c, 0, 26, 0
2, 140152, Note_on_c, 0, 50, 0
2, 140152, Note_on_c, 0, 76, 0
2, 140160, Note_on_c, 0, 45, 0
2, 140160, Note_on_c, 0, 72, 0
2, 140239, Note_on_c, 0, 79, 112
2, 140240, Note_on_c, 0, 31, 100
2, 140241, Note_on_c, 0, 71, 104
2, 140242, Note_on_c, 0, 43, 107
2, 140246, Note_on_c, 0, 74, 98
2, 140247, Note_on_c, 0, 67, 103
2, 140267, Control_c, 0, 64, 127
2, 140536, Note_on_c, 0, 71, 0
2, 140540, Note_on_c, 0, 59, 99
2, 140540, Note_on_c, 0, 71, 78
2, 140555, Note_on_c, 0, 47, 67
2, 140694, Note_on_c, 0, 50, 91
2, 140696, Note_on_c, 0, 60, 101
2, 140701, Note_on_c, 0, 55, 85
2, 140843, Note_on_c, 0, 59, 0
2, 140854, Note_on_c, 0, 59, 100
2, 140866, Note_on_c, 0, 43, 0
2, 140870, Note_on_c, 0, 43, 69
2, 140989, Note_on_c, 0, 43, 0
2, 140994, Note_on_c, 0, 43, 93
2, 141004, Note_on_c, 0, 57, 104
2, 141086, Note_on_c, 0, 60, 0
2, 141087, Note_on_c, 0, 67, 0
2, 141088, Note_on_c, 0, 79, 0
2, 141088, Note_on_c, 0, 71, 0
2, 141088, Note_on_c, 0, 74, 0
2, 141089, Note_on_c, 0, 31, 0
2, 141089, Note_on_c, 0, 50, 0
2, 141089, Note_on_c, 0, 59, 0
2, 141089, Note_on_c, 0, 55, 0
2, 141089, Note_on_c, 0, 43, 0
2, 141093, Control_c, 0, 64, 0
2, 141104, Note_on_c, 0, 47, 0
2, 141148, Note_on_c, 0, 42, 110
2, 141149, Note_on_c, 0, 54, 108
2, 141154, Note_on_c, 0, 59, 103
2, 141158, Control_c, 0, 64, 127
2, 141189, Note_on_c, 0, 57, 0
2, 141447, Note_on_c, 0, 91, 115
2, 141448, Note_on_c, 0, 50, 97
2, 141454, Note_on_c, 0, 79, 101
2, 141606, Note_on_c, 0, 90, 108
2, 141610, Note_on_c, 0, 78, 103
2, 141738, Control_c, 0, 64, 0
2, 141742, Note_on_c, 0, 54, 0
2, 141747, Note_on_c, 0, 59, 0
2, 141749, Note_on_c, 0, 91, 0
2, 141751, Note_on_c, 0, 42, 0
2, 141752, Note_on_c, 0, 90, 0
2, 141752, Note_on_c, 0, 78, 0
2, 141757, Note_on_c, 0, 50, 0
2, 141757, Note_on_c, 0, 79, 0
2, 141760, Note_on_c, 0, 38, 89
2, 141760, Note_on_c, 0, 91, 112
2, 141760, Note_on_c, 0, 40, 98
2, 141763, Note_on_c, 0, 52, 99
2, 141763, Note_on_c, 0, 50, 102
2, 141767, Note_on_c, 0, 79, 107
2, 141768, Note_on_c, 0, 83, 97
2, 141803, Note_on_c, 0, 52, 0
2, 141811, Control_c, 0, 64, 127
2, 141880, Note_on_c, 0, 38, 0
2, 141907, Note_on_c, 0, 47, 92
2, 142041, Note_on_c, 0, 50, 0
2, 142052, Note_on_c, 0, 50, 84
2, 142074, Note_on_c, 0, 90, 107
2, 142078, Note_on_c, 0, 78, 99
2, 142103, Note_on_c, 0, 40, 0
2, 142224, Note_on_c, 0, 69, 94
2, 142227, Note_on_c, 0, 86, 106
2, 142228, Note_on_c, 0, 62, 96
2, 142228, Note_on_c, 0, 74, 107
2, 142232, Note_on_c, 0, 57, 99
2, 142233, Note_on_c, 0, 69, 0
2, 142233, Note_on_c, 0, 78, 0
2, 142237, Control_c, 0, 64, 0
2, 142238, Note_on_c, 0, 78, 97
2, 142279, Control_c, 0, 64, 127
2, 142364, Note_on_c, 0, 91, 0
2, 142375, Note_on_c, 0, 54, 84
2, 142533, Note_on_c, 0, 86, 0
2, 142540, Note_on_c, 0, 50, 0
2, 142540, Note_on_c, 0, 74, 0
2, 142542, Note_on_c, 0, 86, 105
2, 142545, Note_on_c, 0, 74, 103
2, 142545, Note_on_c, 0, 50, 85
2, 142550, Control_c, 0, 64, 0
2, 142586, Control_c, 0, 64, 127
2, 142686, Note_on_c, 0, 47, 0
2, 142691, Note_on_c, 0, 47, 85
2, 142769, Control_c, 0, 64, 0
2, 142790, Note_on_c, 0, 62, 0
2, 142790, Note_on_c, 0, 74, 0
2, 142790, Note_on_c, 0, 79, 0
2, 142790, Note_on_c, 0, 57, 0
2, 142791, Note_on_c, 0, 50, 0
2, 142791, Note_on_c, 0, 78, 0
2, 142791, Note_on_c, 0, 86, 0
2, 142791, Note_on_c, 0, 83, 0
2, 142791, Note_on_c, 0, 90, 0
2, 142792, Note_on_c, 0, 47, 0
2, 142801, Note_on_c, 0, 54, 0
2, 142841, Note_on_c, 0, 86, 106
2, 142844, Note_on_c, 0, 48, 104
2, 142847, Note_on_c, 0, 36, 97
2, 142850, Note_on_c, 0, 74, 105
2, 142858, Note_on_c, 0, 78, 90
2, 142864, Note_on_c, 0, 81, 83
2, 142871, Control_c, 0, 64, 127
2, 143010, Note_on_c, 0, 84, 105
2, 143010, Note_on_c, 0, 72, 104
2, 143152, Note_on_c, 0, 43, 91
2, 143285, Note_on_c, 0, 74, 0
2, 143285, Note_on_c, 0, 86, 0
2, 143293, Note_on_c, 0, 78, 0
2, 143293, Note_on_c, 0, 86, 105
2, 143295, Note_on_c, 0, 50, 96
2, 143297, Note_on_c, 0, 74, 103
2, 143297, Note_on_c, 0, 38, 82
2, 143301, Note_on_c, 0, 81, 0
2, 143303, Note_on_c, 0, 78, 93
2, 143308, Note_on_c, 0, 81, 91
2, 143441, Note_on_c, 0, 54, 97
2, 143597, Note_on_c, 0, 50, 0
2, 143603, Note_on_c, 0, 57, 106
2, 143605, Note_on_c, 0, 62, 102
2, 143793, Control_c, 0, 64, 0
2, 143795, Note_on_c, 0, 72, 0
2, 143796, Note_on_c, 0, 43, 0
2, 143796, Note_on_c, 0, 48, 0
2, 143796, Note_on_c, 0, 84, 0
2, 143796, Note_on_c, 0, 86, 0
2, 143797, Note_on_c, 0, 62, 0
2, 143797, Note_on_c, 0, 81, 0
2, 143798, Note_on_c, 0, 57, 0
2, 143800, Note_on_c, 0, 36, 0
2, 143800, Note_on_c, 0, 38, 0
2, 143815, Note_on_c, 0, 54, 0
2, 143815, Note_on_c, 0, 74, 0
2, 143815, Note_on_c, 0, 78, 0
2, 143905, Note_on_c, 0, 91, 112
2, 143908, Note_on_c, 0, 79, 108
2, 143910, Note_on_c, 0, 81, 105
2, 143913, Note_on_c, 0, 86, 99
2, 143917, Note_on_c, 0, 38, 101
2, 143918, Note_on_c, 0, 50, 106
2, 143938, Control_c, 0, 64, 127
2, 144373, Note_on_c, 0, 69, 86
2, 144380, Note_on_c, 0, 62, 93
2, 144381, Note_on_c, 0, 54, 93
2, 144382, Note_on_c, 0, 57, 91
2, 144534, Note_on_c, 0, 90, 113
2, 144537, Note_on_c, 0, 81, 0
2, 144539, Note_on_c, 0, 78, 111
2, 144542, Note_on_c, 0, 81, 99
2, 144568, Note_on_c, 0, 86, 0
2, 144572, Note_on_c, 0, 86, 59
2, 144683, Note_on_c, 0, 38, 0
2, 144688, Note_on_c, 0, 38, 100
2, 144837, Note_on_c, 0, 79, 0
2, 144837, Note_on_c, 0, 91, 0
2, 144846, Note_on_c, 0, 91, 115
2, 144848, Note_on_c, 0, 79, 106
2, 144990, Note_on_c, 0, 50, 0
2, 144995, Note_on_c, 0, 50, 81
2, 145116, Note_on_c, 0, 86, 0
2, 145117, Note_on_c, 0, 90, 0
2, 145118, Note_on_c, 0, 81, 0
2, 145118, Note_on_c, 0, 57, 0
2, 145118, Note_on_c, 0, 62, 0
2, 145118, Note_on_c, 0, 50, 0
2, 145118, Note_on_c, 0, 78, 0
2, 145118, Note_on_c, 0, 38, 0
2, 145119, Note_on_c, 0, 54, 0
2, 145120, Control_c, 0, 64, 0
2, 145128, Note_on_c, 0, 69, 0
2, 145138, Note_on_c, 0, 40, 98
2, 145144, Note_on_c, 0, 91, 0
2, 145149, Note_on_c, 0, 91, 113
2, 145152, Note_on_c, 0, 79, 0
2, 145158, Note_on_c, 0, 79, 106
2, 145159, Note_on_c, 0, 86, 100
2, 145163, Note_on_c, 0, 83, 92
2, 145190, Control_c, 0, 64, 127
2, 145292, Note_on_c, 0, 47, 92
2, 145456, Note_on_c, 0, 52, 88
2, 145595, Note_on_c, 0, 54, 97
2, 145737, Note_on_c, 0, 55, 100
2, 145892, Note_on_c, 0, 57, 103
2, 146017, Note_on_c, 0, 79, 0
2, 146018, Note_on_c, 0, 52, 0
2, 146020, Note_on_c, 0, 40, 0
2, 146020, Note_on_c, 0, 91, 0
2, 146021, Note_on_c, 0, 83, 0
2, 146022, Note_on_c, 0, 86, 0
2, 146022, Note_on_c, 0, 54, 0
2, 146022, Note_on_c, 0, 55, 0
2, 146023, Note_on_c, 0, 47, 0
2, 146023, Control_c, 0, 64, 0
2, 146026, Note_on_c, 0, 57, 0
2, 146051, Note_on_c, 0, 38, 97
2, 146053, Note_on_c, 0, 59, 106
2, 146081, Control_c, 0, 64, 127
2, 146223, Note_on_c, 0, 50, 83
2, 146355, Note_on_c, 0, 91, 109
2, 146357, Note_on_c, 0, 59, 0
2, 146362, Note_on_c, 0, 79, 99
2, 146366, Note_on_c, 0, 59, 93
2, 146506, Note_on_c, 0, 93, 111
2, 146511, Note_on_c, 0, 81, 106
2, 146588, Control_c, 0, 64, 0
2, 146606, Note_on_c, 0, 81, 0
2, 146607, Note_on_c, 0, 93, 0
2, 146607, Note_on_c, 0, 79, 0
2, 146608, Note_on_c, 0, 50, 0
2, 146608, Note_on_c, 0, 38, 0
2, 146610, Note_on_c, 0, 59, 0
2, 146611, Note_on_c, 0, 91, 0
2, 146667, Note_on_c, 0, 82, 108
2, 146668, Note_on_c, 0, 94, 111
2, 146669, Note_on_c, 0, 87, 107
2, 146671, Note_on_c, 0, 39, 99
2, 146673, Note_on_c, 0, 51, 106
2, 146688, Control_c, 0, 64, 127
2, 146976, Note_on_c, 0, 93, 110
2, 146985, Note_on_c, 0, 81, 101
2, 147118, Note_on_c, 0, 51, 0
2, 147129, Note_on_c, 0, 51, 84
2, 147283, Note_on_c, 0, 91, 113
2, 147283, Note_on_c, 0, 58, 95
2, 147287, Note_on_c, 0, 79, 105
2, 147296, Note_on_c, 0, 55, 78
2, 147436, Note_on_c, 0, 36, 101
2, 147485, Control_c, 0, 64, 0
2, 147489, Note_on_c, 0, 87, 0
2, 147490, Note_on_c, 0, 39, 0
2, 147490, Note_on_c, 0, 55, 0
2, 147490, Note_on_c, 0, 81, 0
2, 147490, Note_on_c, 0, 93, 0
2, 147490, Note_on_c, 0, 51, 0
2, 147490, Note_on_c, 0, 58, 0
2, 147491, Note_on_c, 0, 91, 0
2, 147491, Note_on_c, 0, 82, 0
2, 147491, Note_on_c, 0, 79, 0
2, 147491, Note_on_c, 0, 94, 0
2, 147525, Note_on_c, 0, 36, 0
2, 147599, Note_on_c, 0, 91, 111
2, 147603, Note_on_c, 0, 79, 104
2, 147606, Note_on_c, 0, 48, 101
2, 147606, Note_on_c, 0, 82, 103
2, 147607, Note_on_c, 0, 87, 99
2, 147609, Control_c, 0, 64, 127
2, 147609, Note_on_c, 0, 36, 90
2, 148068, Note_on_c, 0, 58, 92
2, 148078, Note_on_c, 0, 48, 0
2, 148082, Note_on_c, 0, 48, 74
2, 148220, Note_on_c, 0, 69, 103
2, 148377, Note_on_c, 0, 48, 0
2, 148382, Note_on_c, 0, 48, 81
2, 148523, Note_on_c, 0, 58, 0
2, 148530, Note_on_c, 0, 67, 104
2, 148531, Note_on_c, 0, 63, 97
2, 148531, Note_on_c, 0, 58, 96
2, 148534, Note_on_c, 0, 55, 85
2, 148834, Note_on_c, 0, 89, 106
2, 148838, Note_on_c, 0, 48, 0
2, 148840, Note_on_c, 0, 77, 99
2, 148842, Note_on_c, 0, 48, 86
2, 148846, Note_on_c, 0, 36, 0
2, 148850, Note_on_c, 0, 36, 73
2, 148968, Note_on_c, 0, 79, 0
2, 148968, Note_on_c, 0, 91, 0
2, 148978, Note_on_c, 0, 91, 107
2, 148980, Note_on_c, 0, 79, 100
2, 149064, Note_on_c, 0, 69, 0
2, 149064, Note_on_c, 0, 36, 0
2, 149064, Note_on_c, 0, 89, 0
2, 149064, Note_on_c, 0, 87, 0
2, 149065, Note_on_c, 0, 82, 0
2, 149065, Note_on_c, 0, 77, 0
2, 149065, Control_c, 0, 64, 0
2, 149065, Note_on_c, 0, 63, 0
2, 149066, Note_on_c, 0, 48, 0
2, 149066, Note_on_c, 0, 58, 0
2, 149066, Note_on_c, 0, 67, 0
2, 149067, Note_on_c, 0, 79, 0
2, 149067, Note_on_c, 0, 91, 0
2, 149067, Note_on_c, 0, 55, 0
2, 149137, Note_on_c, 0, 50, 98
2, 149141, Note_on_c, 0, 38, 95
2, 149157, Note_on_c, 0, 93, 108
2, 149162, Note_on_c, 0, 84, 94
2, 149164, Note_on_c, 0, 81, 92
2, 149199, Control_c, 0, 64, 127
2, 149456, Note_on_c, 0, 91, 110
2, 149464, Note_on_c, 0, 79, 95
2, 149591, Note_on_c, 0, 38, 0
2, 149591, Note_on_c, 0, 50, 0
2, 149599, Note_on_c, 0, 50, 88
2, 149602, Note_on_c, 0, 38, 76
2, 149771, Note_on_c, 0, 77, 106
2, 149773, Note_on_c, 0, 60, 89
2, 149774, Note_on_c, 0, 89, 106
2, 149788, Note_on_c, 0, 57, 65
2, 149913, Note_on_c, 0, 50, 0
2, 149918, Note_on_c, 0, 50, 79
2, 150067, Note_on_c, 0, 60, 0
2, 150067, Note_on_c, 0, 89, 0
2, 150071, Note_on_c, 0, 89, 106
2, 150074, Note_on_c, 0, 77, 0
2, 150074, Note_on_c, 0, 81, 0
2, 150074, Note_on_c, 0, 84, 0
2, 150078, Note_on_c, 0, 60, 80
2, 150078, Note_on_c, 0, 48, 68
2, 150079, Note_on_c, 0, 77, 102
2, 150083, Note_on_c, 0, 84, 91
2, 150085, Note_on_c, 0, 81, 95
2, 150085, Note_on_c, 0, 69, 97
2, 150090, Note_on_c, 0, 57, 0
2, 150100, Note_on_c, 0, 57, 64
2, 150528, Note_on_c, 0, 57, 0
2, 150538, Note_on_c, 0, 57, 71
2, 150681, Note_on_c, 0, 60, 0
2, 150686, Note_on_c, 0, 67, 92
2, 150689, Note_on_c, 0, 74, 99
2, 150691, Note_on_c, 0, 86, 102
2, 150692, Note_on_c, 0, 60, 71
2, 151004, Note_on_c, 0, 60, 0
2, 151010, Note_on_c, 0, 60, 93
2, 151012, Note_on_c, 0, 69, 0
2, 151014, Note_on_c, 0, 65, 95
2, 151027, Note_on_c, 0, 57, 0
2, 151035, Note_on_c, 0, 57, 81
2, 151319, Note_on_c, 0, 50, 0
2, 151319, Note_on_c, 0, 84, 0
2, 151326, Note_on_c, 0, 50, 84
2, 151330, Note_on_c, 0, 84, 102
2, 151330, Note_on_c, 0, 72, 89
2, 151334, Note_on_c, 0, 77, 0
2, 151340, Note_on_c, 0, 77, 79
2, 151342, Note_on_c, 0, 81, 0
2, 151348, Note_on_c, 0, 81, 78
2, 151623, Control_c, 0, 64, 0
2, 151626, Note_on_c, 0, 48, 0
2, 151626, Note_on_c, 0, 38, 0
2, 151627, Note_on_c, 0, 74, 0
2, 151627, Note_on_c, 0, 86, 0
2, 151627, Note_on_c, 0, 67, 0
2, 151627, Note_on_c, 0, 89, 0
2, 151628, Note_on_c, 0, 65, 0
2, 151628, Note_on_c, 0, 57, 0
2, 151629, Note_on_c, 0, 79, 0
2, 151629, Note_on_c, 0, 91, 0
2, 151629, Note_on_c, 0, 60, 0
2, 151633, Note_on_c, 0, 43, 97
2, 151633, Note_on_c, 0, 93, 0
2, 151649, Note_on_c, 0, 50, 0
2, 151710, Control_c, 0, 64, 127
2, 151941, Note_on_c, 0, 43, 0
2, 151948, Note_on_c, 0, 72, 0
2, 151950, Note_on_c, 0, 50, 88
2, 151951, Note_on_c, 0, 43, 77
2, 151951, Note_on_c, 0, 86, 103
2, 151953, Note_on_c, 0, 74, 100
2, 152240, Note_on_c, 0, 86, 0
2, 152247, Note_on_c, 0, 67, 94
2, 152248, Note_on_c, 0, 74, 0
2, 152248, Note_on_c, 0, 86, 100
2, 152252, Note_on_c, 0, 59, 82
2, 152252, Note_on_c, 0, 62, 82
2, 152254, Note_on_c, 0, 83, 92
2, 152254, Note_on_c, 0, 74, 92
2, 152261, Note_on_c, 0, 79, 89
2, 152317, Control_c, 0, 64, 0
2, 152401, Control_c, 0, 64, 127
2, 152563, Note_on_c, 0, 43, 0
2, 152572, Note_on_c, 0, 43, 70
2, 152868, Note_on_c, 0, 57, 83
2, 153169, Note_on_c, 0, 43, 0
2, 153177, Note_on_c, 0, 50, 0
2, 153180, Note_on_c, 0, 43, 62
2, 153183, Note_on_c, 0, 50, 46
2, 153461, Note_on_c, 0, 59, 0
2, 153472, Note_on_c, 0, 59, 77
2, 153484, Note_on_c, 0, 43, 0
2, 153490, Note_on_c, 0, 43, 52
2, 153784, Note_on_c, 0, 43, 0
2, 153793, Note_on_c, 0, 43, 55
2, 154099, Note_on_c, 0, 67, 0
2, 154105, Note_on_c, 0, 67, 70
2, 154114, Note_on_c, 0, 59, 0
2, 154114, Note_on_c, 0, 62, 0
2, 154119, Note_on_c, 0, 59, 52
2, 154119, Note_on_c, 0, 62, 58
2, 154406, Note_on_c, 0, 43, 0
2, 154411, Note_on_c, 0, 55, 63
2, 154415, Note_on_c, 0, 43, 48
2, 154728, Note_on_c, 0, 43, 0
2, 154728, Note_on_c, 0, 62, 0
2, 154732, Note_on_c, 0, 69, 73
2, 154732, Note_on_c, 0, 43, 45
2, 154734, Note_on_c, 0, 62, 56
2, 154744, Note_on_c, 0, 59, 0
2, 154754, Note_on_c, 0, 59, 47
2, 155020, Note_on_c, 0, 43, 0
2, 155020, Note_on_c, 0, 55, 0
2, 155028, Note_on_c, 0, 55, 58
2, 155031, Note_on_c, 0, 43, 45
2, 155364, Note_on_c, 0, 71, 68
2, 155520, Note_on_c, 0, 57, 0
2, 155520, Note_on_c, 0, 74, 0
2, 155520, Note_on_c, 0, 77, 0
2, 155520, Note_on_c, 0, 79, 0
2, 155520, Note_on_c, 0, 81, 0
2, 155520, Note_on_c, 0, 83, 0
2, 155520, Note_on_c, 0, 84, 0
2, 155520, Note_on_c, 0, 86, 0
2, 155997, Note_on_c, 0, 74, 74
2, 156018, Note_on_c, 0, 77, 47
2, 156026, Note_on_c, 0, 77, 0
2, 156553, Note_on_c, 0, 79, 56
2, 156626, Note_on_c, 0, 83, 75
2, 156679, Note_on_c, 0, 71, 0
2, 156690, Note_on_c, 0, 71, 56
2, 156691, Note_on_c, 0, 64, 47
2, 156707, Note_on_c, 0, 91, 88
2, 156739, Control_c, 0, 64, 0
2, 156744, Note_on_c, 0, 43, 0
2, 156744, Note_on_c, 0, 50, 0
2, 156744, Note_on_c, 0, 69, 0
2, 156744, Note_on_c, 0, 55, 0
2, 156745, Note_on_c, 0, 67, 0
2, 156746, Note_on_c, 0, 74, 0
2, 156756, Note_on_c, 0, 59, 0
2, 156756, Note_on_c, 0, 62, 0
2, 156825, Control_c, 0, 64, 127
2, 158034, Note_on_c, 0, 90, 80
2, 158039, Note_on_c, 0, 71, 0
2, 158039, Note_on_c, 0, 83, 0
2, 158046, Note_on_c, 0, 71, 64
2, 158050, Note_on_c, 0, 83, 71
2, 158052, Note_on_c, 0, 74, 55
2, 158058, Note_on_c, 0, 62, 53
2, 158058, Note_on_c, 0, 78, 61
2, 158077, Note_on_c, 0, 79, 0
2, 158082, Control_c, 0, 64, 0
2, 158100, Note_on_c, 0, 64, 0
2, 158123, Control_c, 0, 64, 127
2, 158438, Note_on_c, 0, 91, 0
2, 159403, Note_on_c, 0, 60, 64
2, 159406, Note_on_c, 0, 88, 79
2, 159417, Note_on_c, 0, 67, 62
2, 159423, Note_on_c, 0, 79, 69
2, 159424, Note_on_c, 0, 78, 0
2, 159424, Note_on_c, 0, 76, 63
2, 159424, Note_on_c, 0, 62, 0
2, 159428, Control_c, 0, 64, 0
2, 159436, Note_on_c, 0, 74, 0
2, 159444, Note_on_c, 0, 71, 0
2, 159444, Note_on_c, 0, 90, 0
2, 159452, Note_on_c, 0, 83, 0
2, 159513, Control_c, 0, 64, 127
2, 159722, Note_on_c, 0, 74, 66
2, 160030, Note_on_c, 0, 72, 72
2, 160350, Note_on_c, 0, 74, 0
2, 160357, Note_on_c, 0, 74, 71
2, 160363, Note_on_c, 0, 62, 56
2, 160366, Note_on_c, 0, 67, 0
2, 160367, Note_on_c, 0, 71, 60
2, 160374, Note_on_c, 0, 86, 79
2, 160374, Note_on_c, 0, 67, 52
2, 160383, Control_c, 0, 64, 0
2, 160389, Note_on_c, 0, 79, 0
2, 160393, Note_on_c, 0, 55, 41
2, 160395, Note_on_c, 0, 79, 55
2, 160400, Note_on_c, 0, 88, 0
2, 160401, Note_on_c, 0, 83, 61
2, 160401, Note_on_c, 0, 60, 0
2, 160402, Note_on_c, 0, 76, 0
2, 160402, Note_on_c, 0, 72, 0
2, 160527, Control_c, 0, 64, 127
2, 162277, Control_c, 0, 64, 0
2, 162332, Control_c, 0, 64, 127
2, 162339, Note_on_c, 0, 55, 0
2, 162393, Note_on_c, 0, 74, 0
2, 162432, Note_on_c, 0, 62, 0
2, 162455, Note_on_c, 0, 83, 0
2, 162455, Note_on_c, 0, 86, 0
2, 162473, Note_on_c, 0, 103, 105
2, 162478, Note_on_c, 0, 71, 0
2, 162478, Control_c, 0, 64, 0
2, 162485, Note_on_c, 0, 79, 0
2, 162493, Note_on_c, 0, 67, 0
2, 162506, Note_on_c, 0, 101, 110
2, 162531, Note_on_c, 0, 100, 104
2, 162552, Note_on_c, 0, 98, 106
2, 162562, Control_c, 0, 64, 127
2, 162571, Note_on_c, 0, 96, 104
2, 162597, Note_on_c, 0, 95, 85
2, 162605, Note_on_c, 0, 93, 97
2, 162624, Note_on_c, 0, 91, 101
2, 162635, Note_on_c, 0, 89, 101
2, 162660, Note_on_c, 0, 88, 89
2, 162663, Note_on_c, 0, 86, 85
2, 162682, Note_on_c, 0, 84, 72
2, 162701, Note_on_c, 0, 83, 88
2, 162728, Note_on_c, 0, 81, 90
2, 162741, Note_on_c, 0, 79, 89
2, 162750, Note_on_c, 0, 77, 86
2, 162765, Note_on_c, 0, 76, 90
2, 162766, Note_on_c, 0, 74, 80
2, 162788, Note_on_c, 0, 72, 78
2, 162811, Note_on_c, 0, 71, 82
2, 162823, Note_on_c, 0, 69, 75
2, 162842, Note_on_c, 0, 67, 81
2, 162857, Note_on_c, 0, 64, 84
2, 162861, Note_on_c, 0, 65, 82
2, 162890, Note_on_c, 0, 62, 86
2, 162900, Note_on_c, 0, 60, 86
2, 162927, Note_on_c, 0, 59, 94
2, 162956, Note_on_c, 0, 57, 87
2, 162958, Note_on_c, 0, 55, 86
2, 162991, Note_on_c, 0, 52, 80
2, 162996, Note_on_c, 0, 53, 79
2, 163006, Note_on_c, 0, 50, 83
2, 163096, Control_c, 0, 64, 0
2, 163100, Note_on_c, 0, 103, 0
2, 163100, Note_on_c, 0, 52, 0
2, 163100, Note_on_c, 0, 86, 0
2, 163100, Note_on_c, 0, 93, 0
2, 163101, Note_on_c, 0, 53, 0
2, 163101, Note_on_c, 0, 77, 0
2, 163101, Note_on_c, 0, 98, 0
2, 163102, Note_on_c, 0, 81, 0
2, 163102, Note_on_c, 0, 74, 0
2, 163102, Note_on_c, 0, 95, 0
2, 163102, Note_on_c, 0, 57, 0
2, 163102, Note_on_c, 0, 84, 0
2, 163102, Note_on_c, 0, 69, 0
2, 163102, Note_on_c, 0, 50, 0
2, 163102, Note_on_c, 0, 100, 0
2, 163102, Note_on_c, 0, 59, 0
2, 163102, Note_on_c, 0, 65, 0
2, 163102, Note_on_c, 0, 76, 0
2, 163102, Note_on_c, 0, 62, 0
2, 163102, Note_on_c, 0, 88, 0
2, 163102, Note_on_c, 0, 55, 0
2, 163102, Note_on_c, 0, 60, 0
2, 163102, Note_on_c, 0, 83, 0
2, 163102, Note_on_c, 0, 96, 0
2, 163102, Note_on_c, 0, 89, 0
2, 163102, Note_on_c, 0, 79, 0
2, 163102, Note_on_c, 0, 72, 0
2, 163103, Note_on_c, 0, 64, 0
2, 163103, Note_on_c, 0, 91, 0
2, 163103, Note_on_c, 0, 71, 0
2, 163103, Note_on_c, 0, 67, 0
2, 163107, Note_on_c, 0, 101, 0
2, 163115, Note_on_c, 0, 47, 108
2, 163120, Note_on_c, 0, 35, 96
2, 163161, Control_c, 0, 64, 127
2, 163418, Note_on_c, 0, 75, 103
2, 163423, Note_on_c, 0, 63, 94
2, 163568, Note_on_c, 0, 47, 0
2, 163579, Note_on_c, 0, 47, 84
2, 163726, Note_on_c, 0, 64, 101
2, 163726, Note_on_c, 0, 59, 101
2, 163727, Note_on_c, 0, 54, 93
2, 163728, Note_on_c, 0, 76, 102
2, 163731, Note_on_c, 0, 51, 91
2, 163734, Note_on_c, 0, 71, 90
2, 163952, Note_on_c, 0, 63, 0
2, 163957, Note_on_c, 0, 63, 62
2, 164021, Note_on_c, 0, 78, 110
2, 164028, Note_on_c, 0, 66, 102
2, 164167, Note_on_c, 0, 47, 0
2, 164175, Note_on_c, 0, 47, 96
2, 164321, Note_on_c, 0, 51, 0
2, 164321, Note_on_c, 0, 54, 0
2, 164321, Note_on_c, 0, 59, 0
2, 164327, Note_on_c, 0, 59, 105
2, 164328, Note_on_c, 0, 47, 0
2, 164328, Note_on_c, 0, 71, 0
2, 164331, Note_on_c, 0, 83, 112
2, 164331, Note_on_c, 0, 54, 99
2, 164332, Note_on_c, 0, 51, 96
2, 164332, Note_on_c, 0, 47, 91
2, 164332, Note_on_c, 0, 71, 105
2, 164628, Note_on_c, 0, 75, 0
2, 164634, Note_on_c, 0, 87, 113
2, 164638, Note_on_c, 0, 75, 111
2, 164659, Note_on_c, 0, 83, 0
2, 164666, Note_on_c, 0, 83, 68
2, 164751, Note_on_c, 0, 47, 0
2, 164761, Note_on_c, 0, 47, 100
2, 164935, Note_on_c, 0, 64, 0
2, 164939, Note_on_c, 0, 52, 112
2, 164940, Note_on_c, 0, 64, 114
2, 164943, Note_on_c, 0, 78, 0
2, 164950, Note_on_c, 0, 90, 109
2, 164950, Note_on_c, 0, 78, 111
2, 165089, Note_on_c, 0, 51, 0
2, 165089, Note_on_c, 0, 63, 0
2, 165094, Note_on_c, 0, 63, 105
2, 165099, Note_on_c, 0, 51, 100
2, 165235, Note_on_c, 0, 83, 0
2, 165239, Note_on_c, 0, 95, 114
2, 165243, Note_on_c, 0, 83, 112
2, 165248, Note_on_c, 0, 88, 91
2, 165250, Note_on_c, 0, 52, 0
2, 165250, Note_on_c, 0, 64, 0
2, 165254, Note_on_c, 0, 64, 102
2, 165257, Note_on_c, 0, 52, 99
2, 165381, Note_on_c, 0, 54, 0
2, 165381, Note_on_c, 0, 66, 0
2, 165390, Note_on_c, 0, 66, 108
2, 165391, Note_on_c, 0, 54, 108
2, 165478, Note_on_c, 0, 87, 0
2, 165478, Note_on_c, 0, 54, 0
2, 165478, Note_on_c, 0, 75, 0
2, 165478, Note_on_c, 0, 71, 0
2, 165479, Note_on_c, 0, 76, 0
2, 165479, Note_on_c, 0, 88, 0
2, 165479, Note_on_c, 0, 95, 0
2, 165479, Note_on_c, 0, 78, 0
2, 165479, Note_on_c, 0, 63, 0
2, 165480, Note_on_c, 0, 64, 0
2, 165480, Note_on_c, 0, 52, 0
2, 165480, Note_on_c, 0, 90, 0
2, 165482, Note_on_c, 0, 66, 0
2, 165485, Control_c, 0, 64, 0
2, 165496, Note_on_c, 0, 35, 0
2, 165496, Note_on_c, 0, 47, 0
2, 165496, Note_on_c, 0, 51, 0
2, 165496, Note_on_c, 0, 59, 0
2, 165496, Note_on_c, 0, 83, 0
2, 165560, Note_on_c, 0, 64, 115
2, 165569, Note_on_c, 0, 52, 106
2, 165874, Note_on_c, 0, 37, 106
2, 165875, Note_on_c, 0, 49, 113
2, 165895, Control_c, 0, 64, 127
2, 166068, Note_on_c, 0, 76, 86
2, 166113, Note_on_c, 0, 80, 94
2, 166157, Note_on_c, 0, 83, 105
2, 166167, Control_c, 0, 64, 0
2, 166175, Note_on_c, 0, 88, 111
2, 166179, Note_on_c, 0, 64, 0
2, 166185, Note_on_c, 0, 64, 108
2, 166190, Note_on_c, 0, 59, 104
2, 166195, Control_c, 0, 64, 127
2, 166198, Note_on_c, 0, 56, 96
2, 166325, Note_on_c, 0, 63, 103
2, 166464, Note_on_c, 0, 64, 0
2, 166471, Note_on_c, 0, 37, 0
2, 166471, Note_on_c, 0, 49, 0
2, 166473, Note_on_c, 0, 64, 103
2, 166475, Note_on_c, 0, 49, 94
2, 166476, Note_on_c, 0, 37, 93
2, 166477, Note_on_c, 0, 56, 0
2, 166619, Note_on_c, 0, 66, 112
2, 166668, Control_c, 0, 64, 0
2, 166704, Note_on_c, 0, 83, 0
2, 166704, Note_on_c, 0, 37, 0
2, 166704, Note_on_c, 0, 80, 0
2, 166704, Note_on_c, 0, 63, 0
2, 166705, Note_on_c, 0, 59, 0
2, 166705, Note_on_c, 0, 64, 0
2, 166705, Note_on_c, 0, 49, 0
2, 166705, Note_on_c, 0, 76, 0
2, 166705, Note_on_c, 0, 88, 0
2, 166706, Note_on_c, 0, 66, 0
2, 166709, Note_on_c, 0, 52, 0
2, 166775, Note_on_c, 0, 64, 110
2, 166775, Note_on_c, 0, 33, 100
2, 166776, Note_on_c, 0, 45, 109
2, 166780, Note_on_c, 0, 57, 96
2, 166786, Note_on_c, 0, 57, 0
2, 166993, Control_c, 0, 64, 127
2, 167078, Note_on_c, 0, 45, 0
2, 167086, Note_on_c, 0, 45, 99
2, 167273, Note_on_c, 0, 76, 83
2, 167333, Note_on_c, 0, 81, 92
2, 167358, Note_on_c, 0, 85, 111
2, 167385, Note_on_c, 0, 64, 0
2, 167390, Note_on_c, 0, 88, 107
2, 167393, Note_on_c, 0, 64, 107
2, 167400, Note_on_c, 0, 57, 101
2, 167401, Note_on_c, 0, 61, 102
2, 167541, Note_on_c, 0, 63, 106
2, 167669, Note_on_c, 0, 45, 0
2, 167674, Note_on_c, 0, 45, 93
2, 167692, Note_on_c, 0, 64, 0
2, 167696, Note_on_c, 0, 64, 100
2, 167841, Note_on_c, 0, 66, 110
2, 167895, Control_c, 0, 64, 0
2, 167924, Note_on_c, 0, 57, 0
2, 167924, Note_on_c, 0, 88, 0
2, 167924, Note_on_c, 0, 45, 0
2, 167925, Note_on_c, 0, 81, 0
2, 167925, Note_on_c, 0, 61, 0
2, 167926, Note_on_c, 0, 63, 0
2, 167926, Note_on_c, 0, 85, 0
2, 167926, Note_on_c, 0, 64, 0
2, 167926, Note_on_c, 0, 66, 0
2, 167930, Note_on_c, 0, 33, 0
2, 167938, Note_on_c, 0, 76, 0
2, 167988, Note_on_c, 0, 68, 114
2, 167989, Note_on_c, 0, 47, 106
2, 167993, Note_on_c, 0, 35, 95
2, 168007, Control_c, 0, 64, 127
2, 168308, Note_on_c, 0, 69, 110
2, 168462, Note_on_c, 0, 66, 110
2, 168546, Note_on_c, 0, 78, 106
2, 168571, Note_on_c, 0, 83, 89
2, 168591, Note_on_c, 0, 87, 94
2, 168611, Note_on_c, 0, 90, 111
2, 168612, Note_on_c, 0, 63, 106
2, 168616, Note_on_c, 0, 59, 90
2, 168772, Note_on_c, 0, 64, 111
2, 168921, Note_on_c, 0, 47, 0
2, 168927, Note_on_c, 0, 47, 102
2, 169082, Note_on_c, 0, 68, 0
2, 169091, Note_on_c, 0, 68, 114
2, 169098, Note_on_c, 0, 64, 0
2, 169105, Note_on_c, 0, 64, 105
2, 169150, Control_c, 0, 64, 0
2, 169160, Note_on_c, 0, 69, 0
2, 169161, Note_on_c, 0, 78, 0
2, 169162, Note_on_c, 0, 83, 0
2, 169162, Note_on_c, 0, 63, 0
2, 169162, Note_on_c, 0, 87, 0
2, 169162, Note_on_c, 0, 66, 0
2, 169163, Note_on_c, 0, 59, 0
2, 169175, Note_on_c, 0, 35, 0
2, 169175, Note_on_c, 0, 90, 0
2, 169182, Note_on_c, 0, 47, 0
2, 169233, Note_on_c, 0, 52, 103
2, 169234, Note_on_c, 0, 40, 105
2, 169274, Control_c, 0, 64, 127
2, 169528, Note_on_c, 0, 64, 0
2, 169534, Note_on_c, 0, 64, 97
2, 169547, Note_on_c, 0, 59, 93
2, 169548, Note_on_c, 0, 56, 91
2, 169556, Note_on_c, 0, 47, 72
2, 169725, Note_on_c, 0, 80, 95
2, 169769, Note_on_c, 0, 83, 82
2, 169829, Note_on_c, 0, 88, 97
2, 169850, Note_on_c, 0, 92, 111
2, 169854, Note_on_c, 0, 59, 0
2, 169854, Note_on_c, 0, 51, 110
2, 169854, Note_on_c, 0, 40, 0
2, 169854, Note_on_c, 0, 39, 94
2, 169854, Note_on_c, 0, 56, 0
2, 169858, Note_on_c, 0, 52, 0
2, 169859, Note_on_c, 0, 64, 0
2, 169862, Control_c, 0, 64, 0
2, 169873, Note_on_c, 0, 47, 0
2, 169873, Note_on_c, 0, 68, 0
2, 169904, Control_c, 0, 64, 127
2, 170144, Note_on_c, 0, 68, 113
2, 170146, Note_on_c, 0, 47, 93
2, 170147, Note_on_c, 0, 59, 89
2, 170147, Note_on_c, 0, 64, 99
2, 170288, Note_on_c, 0, 68, 0
2, 170292, Note_on_c, 0, 69, 107
2, 170298, Note_on_c, 0, 66, 96
2, 170298, Note_on_c, 0, 68, 92
2, 170357, Note_on_c, 0, 83, 0
2, 170362, Control_c, 0, 64, 0
2, 170369, Note_on_c, 0, 64, 0
2, 170369, Note_on_c, 0, 66, 0
2, 170369, Note_on_c, 0, 47, 0
2, 170369, Note_on_c, 0, 88, 0
2, 170370, Note_on_c, 0, 51, 0
2, 170370, Note_on_c, 0, 39, 0
2, 170370, Note_on_c, 0, 69, 0
2, 170370, Note_on_c, 0, 68, 0
2, 170370, Note_on_c, 0, 92, 0
2, 170373, Note_on_c, 0, 59, 0
2, 170380, Note_on_c, 0, 80, 0
2, 170444, Note_on_c, 0, 49, 112
2, 170444, Note_on_c, 0, 71, 108
2, 170447, Note_on_c, 0, 37, 105
2, 170450, Note_on_c, 0, 68, 107
2, 170453, Note_on_c, 0, 64, 98
2, 170480, Control_c, 0, 64, 127
2, 170741, Note_on_c, 0, 71, 0
2, 170752, Note_on_c, 0, 71, 110
2, 170903, Note_on_c, 0, 71, 0
2, 170912, Note_on_c, 0, 71, 100
2, 171008, Note_on_c, 0, 83, 96
2, 171054, Note_on_c, 0, 88, 104
2, 171056, Note_on_c, 0, 68, 0
2, 171058, Note_on_c, 0, 92, 104
2, 171062, Note_on_c, 0, 95, 109
2, 171066, Note_on_c, 0, 68, 110
2, 171072, Note_on_c, 0, 64, 0
2, 171081, Note_on_c, 0, 64, 90
2, 171088, Note_on_c, 0, 59, 88
2, 171217, Note_on_c, 0, 71, 0
2, 171221, Note_on_c, 0, 71, 111
2, 171363, Note_on_c, 0, 37, 0
2, 171363, Note_on_c, 0, 49, 0
2, 171371, Note_on_c, 0, 49, 102
2, 171373, Note_on_c, 0, 37, 106
2, 171519, Note_on_c, 0, 73, 115
2, 171575, Control_c, 0, 64, 0
2, 171588, Note_on_c, 0, 95, 0
2, 171588, Note_on_c, 0, 49, 0
2, 171588, Note_on_c, 0, 37, 0
2, 171588, Note_on_c, 0, 88, 0
2, 171589, Note_on_c, 0, 59, 0
2, 171589, Note_on_c, 0, 64, 0
2, 171589, Note_on_c, 0, 92, 0
2, 171589, Note_on_c, 0, 83, 0
2, 171590, Note_on_c, 0, 68, 0
2, 171590, Note_on_c, 0, 71, 0
2, 171591, Note_on_c, 0, 73, 0
2, 171679, Note_on_c, 0, 33, 107
2, 171680, Note_on_c, 0, 45, 113
2, 171681, Note_on_c, 0, 71, 108
2, 171747, Control_c, 0, 64, 127
2, 171998, Note_on_c, 0, 64, 111
2, 172004, Note_on_c, 0, 52, 106
2, 172034, Note_on_c, 0, 76, 97
2, 172091, Note_on_c, 0, 83, 97
2, 172092, Note_on_c, 0, 81, 99
2, 172158, Note_on_c, 0, 88, 105
2, 172204, Note_on_c, 0, 93, 90
2, 172245, Note_on_c, 0, 95, 106
2, 172293, Note_on_c, 0, 64, 0
2, 172293, Note_on_c, 0, 71, 0
2, 172293, Note_on_c, 0, 76, 0
2, 172296, Note_on_c, 0, 100, 113
2, 172303, Note_on_c, 0, 64, 107
2, 172303, Note_on_c, 0, 68, 109
2, 172303, Note_on_c, 0, 76, 109
2, 172304, Note_on_c, 0, 71, 100
2, 172626, Note_on_c, 0, 75, 114
2, 172628, Note_on_c, 0, 63, 111
2, 172640, Note_on_c, 0, 47, 110
2, 172642, Note_on_c, 0, 35, 100
2, 172643, Note_on_c, 0, 93, 0
2, 172643, Note_on_c, 0, 100, 0
2, 172643, Note_on_c, 0, 83, 0
2, 172643, Note_on_c, 0, 95, 0
2, 172645, Note_on_c, 0, 81, 0
2, 172646, Note_on_c, 0, 71, 0
2, 172646, Note_on_c, 0, 76, 0
2, 172647, Note_on_c, 0, 88, 0
2, 172649, Note_on_c, 0, 68, 0
2, 172654, Note_on_c, 0, 45, 0
2, 172654, Note_on_c, 0, 52, 0
2, 172656, Control_c, 0, 64, 0
2, 172661, Note_on_c, 0, 33, 0
2, 172661, Note_on_c, 0, 64, 0
2, 172730, Control_c, 0, 64, 127
2, 173061, Note_on_c, 0, 47, 0
2, 173065, Note_on_c, 0, 47, 98
2, 173233, Note_on_c, 0, 71, 112
2, 173256, Note_on_c, 0, 59, 86
2, 173383, Note_on_c, 0, 47, 0
2, 173389, Note_on_c, 0, 47, 96
2, 173532, Note_on_c, 0, 66, 109
2, 173549, Note_on_c, 0, 54, 96
2, 173552, Note_on_c, 0, 59, 0
2, 173556, Note_on_c, 0, 59, 93
2, 173561, Note_on_c, 0, 51, 89
2, 173675, Note_on_c, 0, 71, 0
2, 173680, Note_on_c, 0, 71, 110
2, 173836, Note_on_c, 0, 63, 0
2, 173845, Note_on_c, 0, 68, 114
2, 173848, Note_on_c, 0, 63, 105
2, 173850, Note_on_c, 0, 60, 106
2, 174148, Note_on_c, 0, 48, 112
2, 174149, Note_on_c, 0, 36, 107
2, 174155, Control_c, 0, 64, 0
2, 174163, Note_on_c, 0, 55, 77
2, 174165, Note_on_c, 0, 54, 0
2, 174167, Note_on_c, 0, 51, 0
2, 174168, Note_on_c, 0, 59, 0
2, 174169, Note_on_c, 0, 71, 0
2, 174170, Note_on_c, 0, 35, 0
2, 174174, Note_on_c, 0, 55, 0
2, 174190, Note_on_c, 0, 47, 0
2, 174205, Control_c, 0, 64, 127
2, 174213, Note_on_c, 0, 75, 0
2, 174313, Note_on_c, 0, 32, 94
2, 174314, Note_on_c, 0, 44, 91
2, 174458, Note_on_c, 0, 36, 0
2, 174458, Note_on_c, 0, 48, 0
2, 174462, Note_on_c, 0, 36, 103
2, 174464, Note_on_c, 0, 48, 95
2, 174607, Note_on_c, 0, 49, 103
2, 174609, Note_on_c, 0, 37, 102
2, 174742, Note_on_c, 0, 76, 113
2, 174745, Note_on_c, 0, 64, 113
2, 174754, Note_on_c, 0, 51, 103
2, 174759, Note_on_c, 0, 43, 95
2, 174766, Note_on_c, 0, 39, 78
2, 174781, Note_on_c, 0, 63, 0
2, 174888, Note_on_c, 0, 44, 0
2, 174896, Note_on_c, 0, 36, 0
2, 174896, Note_on_c, 0, 48, 0
2, 174896, Note_on_c, 0, 68, 0
2, 174896, Note_on_c, 0, 75, 111
2, 174897, Note_on_c, 0, 56, 90
2, 174898, Note_on_c, 0, 63, 104
2, 174900, Note_on_c, 0, 44, 86
2, 174901, Note_on_c, 0, 68, 85
2, 174902, Note_on_c, 0, 48, 87
2, 174904, Note_on_c, 0, 36, 92
2, 175034, Note_on_c, 0, 60, 0
2, 175042, Note_on_c, 0, 48, 0
2, 175042, Note_on_c, 0, 64, 0
2, 175042, Note_on_c, 0, 76, 0
2, 175045, Note_on_c, 0, 60, 102
2, 175047, Note_on_c, 0, 76, 108
2, 175047, Note_on_c, 0, 64, 101
2, 175051, Note_on_c, 0, 72, 94
2, 175053, Note_on_c, 0, 48, 100
2, 175054, Note_on_c, 0, 67, 89
2, 175188, Note_on_c, 0, 63, 0
2, 175194, Note_on_c, 0, 78, 116
2, 175196, Note_on_c, 0, 66, 0
2, 175200, Note_on_c, 0, 63, 99
2, 175200, Note_on_c, 0, 66, 111
2, 175203, Note_on_c, 0, 51, 0
2, 175203, Note_on_c, 0, 75, 0
2, 175208, Note_on_c, 0, 51, 98
2, 175211, Note_on_c, 0, 75, 83
2, 175311, Note_on_c, 0, 43, 0
2, 175315, Control_c, 0, 64, 0
2, 175317, Note_on_c, 0, 49, 0
2, 175317, Note_on_c, 0, 75, 0
2, 175318, Note_on_c, 0, 56, 0
2, 175319, Note_on_c, 0, 32, 0
2, 175319, Note_on_c, 0, 48, 0
2, 175319, Note_on_c, 0, 60, 0
2, 175319, Note_on_c, 0, 36, 0
2, 175319, Note_on_c, 0, 51, 0
2, 175319, Note_on_c, 0, 37, 0
2, 175320, Note_on_c, 0, 39, 0
2, 175321, Note_on_c, 0, 66, 0
2, 175321, Note_on_c, 0, 44, 0
2, 175321, Note_on_c, 0, 78, 0
2, 175334, Note_on_c, 0, 67, 0
2, 175334, Note_on_c, 0, 72, 0
2, 175342, Note_on_c, 0, 63, 0
2, 175342, Note_on_c, 0, 64, 0
2, 175342, Note_on_c, 0, 68, 0
2, 175342, Note_on_c, 0, 76, 0
2, 175352, Note_on_c, 0, 76, 117
2, 175353, Note_on_c, 0, 68, 115
2, 175353, Note_on_c, 0, 64, 111
2, 175353, Note_on_c, 0, 73, 109
2, 175682, Note_on_c, 0, 37, 112
2, 175684, Note_on_c, 0, 25, 98
2, 175687, Control_c, 0, 64, 127
2, 175802, Note_on_c, 0, 64, 0
2, 175811, Note_on_c, 0, 64, 82
2, 175864, Note_on_c, 0, 68, 0
2, 175874, Note_on_c, 0, 68, 103
2, 175895, Note_on_c, 0, 73, 0
2, 175905, Note_on_c, 0, 73, 82
2, 175987, Note_on_c, 0, 64, 0
2, 175987, Note_on_c, 0, 68, 0
2, 175987, Note_on_c, 0, 73, 0
2, 175987, Note_on_c, 0, 61, 110
2, 175991, Note_on_c, 0, 56, 102
2, 175993, Note_on_c, 0, 64, 98
2, 175993, Note_on_c, 0, 68, 114
2, 175994, Note_on_c, 0, 73, 112
2, 175994, Note_on_c, 0, 76, 0
2, 175999, Note_on_c, 0, 76, 111
2, 176148, Note_on_c, 0, 75, 110
2, 176148, Note_on_c, 0, 63, 102
2, 176294, Note_on_c, 0, 64, 0
2, 176294, Note_on_c, 0, 76, 0
2, 176297, Note_on_c, 0, 49, 97
2, 176298, Note_on_c, 0, 37, 0
2, 176304, Note_on_c, 0, 76, 111
2, 176305, Note_on_c, 0, 64, 102
2, 176437, Note_on_c, 0, 78, 113
2, 176448, Note_on_c, 0, 68, 0
2, 176453, Note_on_c, 0, 66, 97
2, 176457, Note_on_c, 0, 68, 70
2, 176530, Note_on_c, 0, 75, 0
2, 176530, Control_c, 0, 64, 0
2, 176530, Note_on_c, 0, 73, 0
2, 176530, Note_on_c, 0, 63, 0
2, 176530, Note_on_c, 0, 56, 0
2, 176530, Note_on_c, 0, 68, 0
2, 176531, Note_on_c, 0, 76, 0
2, 176531, Note_on_c, 0, 66, 0
2, 176532, Note_on_c, 0, 25, 0
2, 176534, Note_on_c, 0, 78, 0
2, 176547, Note_on_c, 0, 49, 0
2, 176547, Note_on_c, 0, 61, 0
2, 176547, Note_on_c, 0, 64, 0
2, 176598, Note_on_c, 0, 33, 104
2, 176598, Note_on_c, 0, 45, 111
2, 176602, Note_on_c, 0, 68, 114
2, 176603, Note_on_c, 0, 80, 111
2, 176605, Note_on_c, 0, 73, 107
2, 176609, Control_c, 0, 64, 127
2, 176609, Note_on_c, 0, 76, 94
2, 176924, Note_on_c, 0, 45, 0
2, 176935, Note_on_c, 0, 45, 88
2, 177085, Note_on_c, 0, 45, 0
2, 177089, Note_on_c, 0, 52, 84
2, 177092, Note_on_c, 0, 45, 72
2, 177223, Note_on_c, 0, 68, 0
2, 177231, Note_on_c, 0, 45, 0
2, 177232, Note_on_c, 0, 68, 115
2, 177234, Note_on_c, 0, 57, 102
2, 177237, Note_on_c, 0, 45, 94
2, 177238, Note_on_c, 0, 61, 107
2, 177241, Note_on_c, 0, 64, 92
2, 177530, Note_on_c, 0, 45, 0
2, 177530, Note_on_c, 0, 68, 0
2, 177530, Note_on_c, 0, 80, 0
2, 177536, Note_on_c, 0, 68, 107
2, 177536, Note_on_c, 0, 80, 112
2, 177542, Note_on_c, 0, 45, 89
2, 177684, Note_on_c, 0, 33, 0
2, 177684, Note_on_c, 0, 45, 0
2, 177690, Note_on_c, 0, 69, 107
2, 177690, Note_on_c, 0, 81, 112
2, 177694, Note_on_c, 0, 45, 88
2, 177695, Note_on_c, 0, 33, 81
2, 177772, Control_c, 0, 64, 0
2, 177778, Note_on_c, 0, 33, 0
2, 177780, Note_on_c, 0, 68, 0
2, 177780, Note_on_c, 0, 52, 0
2, 177781, Note_on_c, 0, 80, 0
2, 177781, Note_on_c, 0, 61, 0
2, 177781, Note_on_c, 0, 45, 0
2, 177781, Note_on_c, 0, 57, 0
2, 177781, Note_on_c, 0, 69, 0
2, 177781, Note_on_c, 0, 73, 0
2, 177781, Note_on_c, 0, 76, 0
2, 177781, Note_on_c, 0, 81, 0
2, 177799, Note_on_c, 0, 64, 0
2, 177855, Note_on_c, 0, 47, 111
2, 177860, Note_on_c, 0, 83, 111
2, 177860, Note_on_c, 0, 35, 99
2, 177864, Note_on_c, 0, 71, 109
2, 177872, Note_on_c, 0, 75, 104
2, 177879, Note_on_c, 0, 78, 91
2, 177884, Control_c, 0, 64, 127
2, 178168, Note_on_c, 0, 35, 0
2, 178168, Note_on_c, 0, 47, 0
2, 178168, Note_on_c, 0, 71, 0
2, 178168, Note_on_c, 0, 83, 0
2, 178172, Note_on_c, 0, 83, 111
2, 178173, Note_on_c, 0, 71, 103
2, 178174, Note_on_c, 0, 47, 95
2, 178179, Note_on_c, 0, 35, 83
2, 178314, Note_on_c, 0, 71, 0
2, 178314, Note_on_c, 0, 78, 0
2, 178314, Note_on_c, 0, 83, 0
2, 178319, Note_on_c, 0, 83, 108
2, 178321, Note_on_c, 0, 75, 0
2, 178323, Note_on_c, 0, 78, 108
2, 178323, Note_on_c, 0, 71, 110
2, 178325, Note_on_c, 0, 54, 93
2, 178326, Note_on_c, 0, 75, 106
2, 178475, Note_on_c, 0, 54, 0
2, 178479, Note_on_c, 0, 66, 110
2, 178479, Note_on_c, 0, 59, 87
2, 178480, Note_on_c, 0, 63, 106
2, 178481, Note_on_c, 0, 54, 91
2, 178782, Note_on_c, 0, 47, 0
2, 178782, Note_on_c, 0, 71, 0
2, 178782, Note_on_c, 0, 83, 0
2, 178790, Note_on_c, 0, 35, 0
2, 178791, Note_on_c, 0, 47, 103
2, 178793, Note_on_c, 0, 83, 112
2, 178793, Note_on_c, 0, 71, 104
2, 178795, Note_on_c, 0, 35, 87
2, 179046, Note_on_c, 0, 75, 0
2, 179047, Control_c, 0, 64, 0
2, 179047, Note_on_c, 0, 47, 0
2, 179047, Note_on_c, 0, 71, 0
2, 179047, Note_on_c, 0, 54, 0
2, 179047, Note_on_c, 0, 78, 0
2, 179047, Note_on_c, 0, 35, 0
2, 179047, Note_on_c, 0, 63, 0
2, 179047, Note_on_c, 0, 59, 0
2, 179048, Note_on_c, 0, 83, 0
2, 179048, Note_on_c, 0, 66, 0
2, 179105, Note_on_c, 0, 72, 114
2, 179108, Note_on_c, 0, 48, 109
2, 179109, Note_on_c, 0, 75, 106
2, 179110, Note_on_c, 0, 84, 108
2, 179111, Note_on_c, 0, 44, 105
2, 179114, Note_on_c, 0, 36, 103
2, 179116, Note_on_c, 0, 80, 104
2, 179136, Control_c, 0, 64, 127
2, 179404, Note_on_c, 0, 44, 0
2, 179407, Note_on_c, 0, 32, 89
2, 179409, Note_on_c, 0, 44, 88
2, 179414, Note_on_c, 0, 73, 115
2, 179414, Note_on_c, 0, 85, 111
2, 179481, Note_on_c, 0, 44, 0
2, 179492, Note_on_c, 0, 44, 75
2, 179596, Note_on_c, 0, 48, 0
2, 179600, Note_on_c, 0, 48, 82
2, 179700, Note_on_c, 0, 51, 93
2, 179704, Note_on_c, 0, 44, 0
2, 179711, Note_on_c, 0, 44, 70
2, 179712, Note_on_c, 0, 75, 0
2, 179715, Note_on_c, 0, 87, 109
2, 179716, Note_on_c, 0, 75, 109
2, 179724, Note_on_c, 0, 54, 80
2, 179765, Note_on_c, 0, 72, 0
2, 179777, Note_on_c, 0, 32, 0
2, 179777, Note_on_c, 0, 80, 0
2, 179778, Note_on_c, 0, 73, 0
2, 179779, Note_on_c, 0, 85, 0
2, 179779, Note_on_c, 0, 84, 0
2, 179781, Note_on_c, 0, 44, 0
2, 179784, Note_on_c, 0, 48, 0
2, 179785, Note_on_c, 0, 87, 0
2, 179785, Note_on_c, 0, 51, 0
2, 179788, Note_on_c, 0, 36, 0
2, 179789, Control_c, 0, 64, 0
2, 179796, Note_on_c, 0, 54, 0
2, 179796, Note_on_c, 0, 75, 0
2, 180040, Note_on_c, 0, 88, 112
2, 180044, Note_on_c, 0, 76, 114
2, 180044, Note_on_c, 0, 33, 99
2, 180044, Note_on_c, 0, 85, 111
2, 180045, Note_on_c, 0, 45, 108
2, 180046, Note_on_c, 0, 81, 108
2, 180080, Control_c, 0, 64, 127
2, 180506, Note_on_c, 0, 57, 79
2, 180633, Note_on_c, 0, 85, 0
2, 180644, Note_on_c, 0, 85, 109
2, 180644, Note_on_c, 0, 73, 110
2, 180646, Note_on_c, 0, 88, 0
2, 180794, Note_on_c, 0, 57, 0
2, 180804, Note_on_c, 0, 57, 91
2, 180951, Note_on_c, 0, 69, 108
2, 180956, Note_on_c, 0, 45, 0
2, 180956, Note_on_c, 0, 76, 0
2, 180957, Note_on_c, 0, 83, 105
2, 180958, Note_on_c, 0, 61, 94
2, 180959, Note_on_c, 0, 71, 108
2, 180959, Note_on_c, 0, 64, 96
2, 180960, Note_on_c, 0, 45, 87
2, 180967, Note_on_c, 0, 76, 87
2, 180986, Control_c, 0, 64, 0
2, 181071, Control_c, 0, 64, 127
2, 181263, Note_on_c, 0, 33, 0
2, 181263, Note_on_c, 0, 45, 0
2, 181271, Note_on_c, 0, 69, 0
2, 181271, Note_on_c, 0, 81, 0
2, 181274, Note_on_c, 0, 45, 93
2, 181274, Note_on_c, 0, 33, 84
2, 181275, Note_on_c, 0, 81, 109
2, 181279, Note_on_c, 0, 69, 106
2, 181546, Control_c, 0, 64, 0
2, 181551, Note_on_c, 0, 73, 0
2, 181551, Note_on_c, 0, 61, 0
2, 181551, Note_on_c, 0, 69, 0
2, 181551, Note_on_c, 0, 81, 0
2, 181554, Note_on_c, 0, 64, 0
2, 181555, Note_on_c, 0, 33, 0
2, 181562, Note_on_c, 0, 85, 0
2, 181570, Note_on_c, 0, 57, 0
2, 181570, Note_on_c, 0, 76, 0
2, 181578, Note_on_c, 0, 45, 0
2, 181578, Note_on_c, 0, 71, 0
2, 181578, Note_on_c, 0, 83, 0
2, 181582, Note_on_c, 0, 59, 100
2, 181583, Note_on_c, 0, 44, 97
2, 181587, Note_on_c, 0, 83, 111
2, 181588, Note_on_c, 0, 71, 109
2, 181596, Note_on_c, 0, 80, 102
2, 181598, Note_on_c, 0, 76, 95
2, 181624, Control_c, 0, 64, 127
2, 181877, Note_on_c, 0, 76, 0
2, 181888, Note_on_c, 0, 76, 107
2, 181891, Note_on_c, 0, 64, 104
2, 181896, Note_on_c, 0, 52, 94
2, 181908, Note_on_c, 0, 44, 0
2, 181918, Note_on_c, 0, 44, 62
2, 182046, Note_on_c, 0, 64, 0
2, 182046, Note_on_c, 0, 76, 0
2, 182054, Note_on_c, 0, 76, 111
2, 182057, Note_on_c, 0, 64, 104
2, 182210, Note_on_c, 0, 49, 104
2, 182211, Note_on_c, 0, 37, 101
2, 182226, Note_on_c, 0, 83, 0
2, 182227, Note_on_c, 0, 59, 0
2, 182227, Note_on_c, 0, 71, 0
2, 182231, Note_on_c, 0, 80, 0
2, 182515, Note_on_c, 0, 76, 0
2, 182520, Note_on_c, 0, 76, 110
2, 182522, Note_on_c, 0, 64, 0
2, 182527, Note_on_c, 0, 64, 100
2, 182758, Control_c, 0, 64, 0
2, 182762, Note_on_c, 0, 64, 0
2, 182762, Note_on_c, 0, 37, 0
2, 182763, Note_on_c, 0, 76, 0
2, 182768, Note_on_c, 0, 44, 0
2, 182776, Note_on_c, 0, 49, 0
2, 182776, Note_on_c, 0, 52, 0
2, 182823, Note_on_c, 0, 73, 112
2, 182825, Note_on_c, 0, 78, 111
2, 182825, Note_on_c, 0, 69, 105
2, 182826, Note_on_c, 0, 51, 106
2, 182830, Note_on_c, 0, 39, 96
2, 182853, Control_c, 0, 64, 127
2, 183157, Note_on_c, 0, 80, 106
2, 183173, Control_c, 0, 64, 0
2, 183176, Note_on_c, 0, 39, 0
2, 183176, Note_on_c, 0, 73, 0
2, 183177, Note_on_c, 0, 69, 0
2, 183178, Note_on_c, 0, 78, 0
2, 183183, Note_on_c, 0, 51, 0
2, 183298, Note_on_c, 0, 80, 0
2, 183311, Note_on_c, 0, 81, 112
2, 183314, Note_on_c, 0, 72, 107
2, 183317, Note_on_c, 0, 75, 101
2, 183325, Note_on_c, 0, 44, 93
2, 183326, Note_on_c, 0, 32, 92
2, 183344, Control_c, 0, 64, 127
2, 183621, Note_on_c, 0, 44, 0
2, 183631, Note_on_c, 0, 44, 72
2, 183637, Note_on_c, 0, 80, 110
2, 183774, Note_on_c, 0, 72, 0
2, 183784, Control_c, 0, 64, 0
2, 183787, Note_on_c, 0, 81, 0
2, 183787, Note_on_c, 0, 44, 0
2, 183792, Note_on_c, 0, 75, 0
2, 183797, Note_on_c, 0, 32, 0
2, 183797, Note_on_c, 0, 80, 0
2, 183801, Note_on_c, 0, 80, 105
2, 183803, Note_on_c, 0, 37, 95
2, 183804, Note_on_c, 0, 71, 97
2, 183806, Note_on_c, 0, 49, 101
2, 183817, Note_on_c, 0, 76, 81
2, 184081, Control_c, 0, 64, 127
2, 184248, Note_on_c, 0, 56, 92
2, 184411, Note_on_c, 0, 59, 92
2, 184559, Note_on_c, 0, 64, 101
2, 184717, Note_on_c, 0, 68, 106
2, 184723, Note_on_c, 0, 47, 95
2, 184725, Note_on_c, 0, 35, 90
2, 184727, Note_on_c, 0, 59, 0
2, 184731, Note_on_c, 0, 59, 87
2, 184739, Control_c, 0, 64, 0
2, 184741, Note_on_c, 0, 49, 0
2, 184743, Note_on_c, 0, 80, 0
2, 184745, Note_on_c, 0, 56, 0
2, 184745, Note_on_c, 0, 76, 0
2, 184746, Note_on_c, 0, 64, 0
2, 184746, Note_on_c, 0, 37, 0
2, 184746, Note_on_c, 0, 71, 0
2, 184803, Control_c, 0, 64, 127
2, 185017, Note_on_c, 0, 66, 101
2, 185314, Note_on_c, 0, 68, 0
2, 185314, Note_on_c, 0, 66, 0
2, 185320, Control_c, 0, 64, 0
2, 185329, Note_on_c, 0, 64, 103
2, 185330, Note_on_c, 0, 61, 102
2, 185333, Note_on_c, 0, 45, 102
2, 185333, Note_on_c, 0, 35, 0
2, 185333, Note_on_c, 0, 59, 0
2, 185335, Note_on_c, 0, 33, 93
2, 185341, Note_on_c, 0, 47, 0
2, 185395, Control_c, 0, 64, 127
2, 185464, Note_on_c, 0, 33, 0
2, 185650, Note_on_c, 0, 85, 105
2, 185651, Note_on_c, 0, 73, 105
2, 185660, Note_on_c, 0, 76, 93
2, 185940, Note_on_c, 0, 61, 0
2, 185941, Note_on_c, 0, 83, 104
2, 185942, Note_on_c, 0, 71, 104
2, 185947, Note_on_c, 0, 61, 101
2, 185948, Note_on_c, 0, 76, 0
2, 185951, Note_on_c, 0, 52, 92
2, 185957, Note_on_c, 0, 76, 93
2, 185958, Control_c, 0, 64, 0
2, 185971, Control_c, 0, 64, 127
2, 186240, Note_on_c, 0, 45, 0
2, 186246, Note_on_c, 0, 45, 86
2, 186258, Note_on_c, 0, 69, 102
2, 186258, Note_on_c, 0, 81, 106
2, 186544, Control_c, 0, 64, 0
2, 186550, Note_on_c, 0, 81, 0
2, 186550, Note_on_c, 0, 45, 0
2, 186550, Note_on_c, 0, 73, 0
2, 186550, Note_on_c, 0, 85, 0
2, 186550, Note_on_c, 0, 64, 0
2, 186551, Note_on_c, 0, 69, 0
2, 186554, Note_on_c, 0, 71, 0
2, 186554, Note_on_c, 0, 83, 0
2, 186556, Note_on_c, 0, 59, 101
2, 186559, Note_on_c, 0, 83, 106
2, 186561, Note_on_c, 0, 71, 106
2, 186562, Note_on_c, 0, 52, 0
2, 186562, Note_on_c, 0, 76, 0
2, 186565, Note_on_c, 0, 44, 96
2, 186567, Note_on_c, 0, 52, 90
2, 186570, Note_on_c, 0, 61, 0
2, 186573, Note_on_c, 0, 76, 98
2, 186616, Control_c, 0, 64, 127
2, 186862, Note_on_c, 0, 76, 0
2, 186867, Note_on_c, 0, 76, 95
2, 187015, Note_on_c, 0, 76, 0
2, 187024, Note_on_c, 0, 76, 101
2, 187176, Note_on_c, 0, 59, 0
2, 187179, Note_on_c, 0, 64, 105
2, 187181, Note_on_c, 0, 59, 97
2, 187192, Note_on_c, 0, 71, 0
2, 187199, Note_on_c, 0, 71, 72
2, 187480, Note_on_c, 0, 56, 98
2, 187484, Note_on_c, 0, 76, 0
2, 187494, Note_on_c, 0, 76, 106
2, 187762, Control_c, 0, 64, 0
2, 187763, Note_on_c, 0, 52, 0
2, 187763, Note_on_c, 0, 71, 0
2, 187764, Note_on_c, 0, 64, 0
2, 187764, Note_on_c, 0, 83, 0
2, 187764, Note_on_c, 0, 76, 0
2, 187783, Note_on_c, 0, 44, 0
2, 187783, Note_on_c, 0, 59, 0
2, 187791, Note_on_c, 0, 56, 0
2, 187793, Note_on_c, 0, 78, 107
2, 187794, Note_on_c, 0, 72, 98
2, 187794, Note_on_c, 0, 44, 98
2, 187795, Note_on_c, 0, 68, 104
2, 187796, Note_on_c, 0, 54, 95
2, 187800, Note_on_c, 0, 56, 99
2, 187829, Control_c, 0, 64, 127
2, 188093, Note_on_c, 0, 80, 104
2, 188257, Note_on_c, 0, 60, 102
2, 188259, Note_on_c, 0, 54, 0
2, 188259, Note_on_c, 0, 56, 0
2, 188259, Note_on_c, 0, 72, 0
2, 188259, Note_on_c, 0, 78, 0
2, 188263, Note_on_c, 0, 54, 95
2, 188264, Note_on_c, 0, 56, 94
2, 188265, Note_on_c, 0, 48, 79
2, 188267, Note_on_c, 0, 68, 0
2, 188267, Note_on_c, 0, 72, 83
2, 188270, Note_on_c, 0, 78, 99
2, 188272, Note_on_c, 0, 68, 96
2, 188567, Note_on_c, 0, 76, 104
2, 188674, Note_on_c, 0, 48, 0
2, 188736, Note_on_c, 0, 80, 0
2, 188736, Control_c, 0, 64, 0
2, 188738, Note_on_c, 0, 56, 0
2, 188738, Note_on_c, 0, 54, 0
2, 188738, Note_on_c, 0, 72, 0
2, 188739, Note_on_c, 0, 60, 0
2, 188739, Note_on_c, 0, 37, 97
2, 188739, Note_on_c, 0, 78, 0
2, 188741, Note_on_c, 0, 49, 100
2, 188743, Note_on_c, 0, 68, 0
2, 188743, Note_on_c, 0, 76, 0
2, 188746, Note_on_c, 0, 80, 109
2, 188749, Note_on_c, 0, 76, 79
2, 188750, Note_on_c, 0, 68, 108
2, 188755, Note_on_c, 0, 71, 84
2, 188759, Note_on_c, 0, 44, 0
2, 188812, Control_c, 0, 64, 127
2, 189188, Note_on_c, 0, 52, 73
2, 189353, Note_on_c, 0, 56, 89
2, 189493, Note_on_c, 0, 64, 97
2, 189645, Note_on_c, 0, 47, 92
2, 189645, Note_on_c, 0, 63, 94
2, 189647, Note_on_c, 0, 35, 84
2, 189648, Control_c, 0, 64, 0
2, 189657, Note_on_c, 0, 37, 0
2, 189659, Note_on_c, 0, 68, 0
2, 189659, Note_on_c, 0, 49, 0
2, 189659, Note_on_c, 0, 80, 0
2, 189660, Note_on_c, 0, 52, 0
2, 189660, Note_on_c, 0, 56, 0
2, 189661, Note_on_c, 0, 71, 0
2, 189662, Note_on_c, 0, 76, 0
2, 189662, Note_on_c, 0, 64, 0
2, 189726, Control_c, 0, 64, 127
2, 189809, Note_on_c, 0, 64, 89
2, 189941, Note_on_c, 0, 63, 0
2, 189953, Note_on_c, 0, 63, 93
2, 190106, Note_on_c, 0, 59, 85
2, 190225, Control_c, 0, 64, 0
2, 190260, Note_on_c, 0, 59, 0
2, 190266, Note_on_c, 0, 61, 100
2, 190272, Note_on_c, 0, 35, 0
2, 190272, Note_on_c, 0, 63, 0
2, 190275, Note_on_c, 0, 33, 84
2, 190276, Note_on_c, 0, 45, 85
2, 190279, Note_on_c, 0, 47, 0
2, 190279, Note_on_c, 0, 64, 0
2, 190341, Control_c, 0, 64, 127
2, 190578, Note_on_c, 0, 81, 98
2, 190579, Note_on_c, 0, 73, 97
2, 190863, Note_on_c, 0, 33, 0
2, 190882, Note_on_c, 0, 80, 103
2, 190883, Note_on_c, 0, 71, 94
2, 190886, Note_on_c, 0, 61, 0
2, 190893, Note_on_c, 0, 61, 92
2, 190894, Note_on_c, 0, 45, 0
2, 190899, Note_on_c, 0, 52, 79
2, 190905, Note_on_c, 0, 45, 80
2, 190928, Control_c, 0, 64, 0
2, 190963, Control_c, 0, 64, 127
2, 191178, Note_on_c, 0, 45, 0
2, 191189, Note_on_c, 0, 45, 84
2, 191194, Note_on_c, 0, 78, 95
2, 191500, Note_on_c, 0, 80, 0
2, 191508, Note_on_c, 0, 71, 0
2, 191509, Note_on_c, 0, 59, 92
2, 191511, Note_on_c, 0, 80, 105
2, 191511, Note_on_c, 0, 44, 90
2, 191513, Note_on_c, 0, 71, 84
2, 191516, Note_on_c, 0, 68, 99
2, 191520, Note_on_c, 0, 52, 0
2, 191521, Note_on_c, 0, 78, 0
2, 191524, Control_c, 0, 64, 0
2, 191531, Note_on_c, 0, 73, 0
2, 191539, Note_on_c, 0, 61, 0
2, 191539, Note_on_c, 0, 81, 0
2, 191546, Note_on_c, 0, 45, 0
2, 191600, Control_c, 0, 64, 127
2, 191746, Note_on_c, 0, 71, 0
2, 191818, Note_on_c, 0, 76, 89
2, 191961, Note_on_c, 0, 76, 0
2, 191969, Note_on_c, 0, 76, 93
2, 192130, Note_on_c, 0, 59, 0
2, 192134, Note_on_c, 0, 64, 99
2, 192137, Note_on_c, 0, 59, 93
2, 192153, Note_on_c, 0, 44, 0
2, 192158, Note_on_c, 0, 44, 72
2, 192165, Note_on_c, 0, 56, 76
2, 192167, Control_c, 0, 64, 0
2, 192199, Control_c, 0, 64, 127
2, 192430, Note_on_c, 0, 76, 0
2, 192434, Note_on_c, 0, 52, 79
2, 192441, Note_on_c, 0, 76, 102
2, 192752, Note_on_c, 0, 44, 0
2, 192754, Note_on_c, 0, 78, 107
2, 192758, Note_on_c, 0, 54, 86
2, 192760, Note_on_c, 0, 72, 86
2, 192763, Note_on_c, 0, 66, 93
2, 192763, Note_on_c, 0, 44, 81
2, 192765, Note_on_c, 0, 51, 82
2, 192787, Control_c, 0, 64, 0
2, 192787, Note_on_c, 0, 52, 0
2, 192788, Note_on_c, 0, 64, 0
2, 192794, Note_on_c, 0, 56, 0
2, 192795, Note_on_c, 0, 68, 0
2, 192795, Note_on_c, 0, 80, 0
2, 192798, Note_on_c, 0, 59, 0
2, 192806, Note_on_c, 0, 76, 0
2, 192875, Control_c, 0, 64, 127
2, 193064, Note_on_c, 0, 76, 95
2, 193210, Note_on_c, 0, 60, 86
2, 193217, Note_on_c, 0, 56, 73
2, 193221, Note_on_c, 0, 54, 0
2, 193225, Note_on_c, 0, 54, 63
2, 193355, Note_on_c, 0, 75, 104
2, 193520, Note_on_c, 0, 56, 0
2, 193524, Note_on_c, 0, 56, 57
2, 193681, Note_on_c, 0, 76, 0
2, 193691, Note_on_c, 0, 76, 103
2, 193692, Note_on_c, 0, 49, 84
2, 193694, Note_on_c, 0, 64, 88
2, 193695, Note_on_c, 0, 71, 85
2, 193697, Note_on_c, 0, 59, 84
2, 193698, Note_on_c, 0, 68, 91
2, 193732, Note_on_c, 0, 75, 0
2, 193732, Note_on_c, 0, 72, 0
2, 193733, Note_on_c, 0, 51, 0
2, 193733, Note_on_c, 0, 60, 0
2, 193733, Note_on_c, 0, 56, 0
2, 193734, Control_c, 0, 64, 0
2, 193734, Note_on_c, 0, 78, 0
2, 193737, Note_on_c, 0, 66, 0
2, 193751, Note_on_c, 0, 44, 0
2, 193758, Note_on_c, 0, 54, 0
2, 193850, Control_c, 0, 64, 127
2, 194131, Note_on_c, 0, 56, 58
2, 194288, Note_on_c, 0, 59, 0
2, 194298, Note_on_c, 0, 59, 70
2, 194442, Note_on_c, 0, 47, 80
2, 194600, Note_on_c, 0, 63, 91
2, 194603, Note_on_c, 0, 80, 103
2, 194615, Note_on_c, 0, 54, 62
2, 194763, Note_on_c, 0, 78, 88
2, 194910, Note_on_c, 0, 76, 0
2, 194914, Note_on_c, 0, 76, 104
2, 195237, Note_on_c, 0, 69, 78
2, 195237, Note_on_c, 0, 61, 70
2, 195239, Note_on_c, 0, 45, 70
2, 195282, Control_c, 0, 64, 0
2, 195285, Note_on_c, 0, 71, 0
2, 195286, Note_on_c, 0, 63, 0
2, 195288, Note_on_c, 0, 68, 0
2, 195288, Note_on_c, 0, 80, 0
2, 195288, Note_on_c, 0, 64, 0
2, 195288, Note_on_c, 0, 47, 0
2, 195288, Note_on_c, 0, 56, 0
2, 195288, Note_on_c, 0, 49, 0
2, 195288, Note_on_c, 0, 78, 0
2, 195288, Note_on_c, 0, 54, 0
2, 195310, Note_on_c, 0, 59, 0
2, 195402, Control_c, 0, 64, 127
2, 195552, Note_on_c, 0, 52, 60
2, 195586, Note_on_c, 0, 61, 0
2, 195852, Note_on_c, 0, 61, 83
2, 196162, Note_on_c, 0, 81, 97
2, 196472, Note_on_c, 0, 59, 82
2, 196479, Note_on_c, 0, 47, 75
2, 196480, Note_on_c, 0, 80, 96
2, 196484, Note_on_c, 0, 54, 61
2, 196513, Note_on_c, 0, 69, 0
2, 196514, Note_on_c, 0, 52, 0
2, 196514, Note_on_c, 0, 81, 0
2, 196515, Note_on_c, 0, 61, 0
2, 196518, Note_on_c, 0, 45, 0
2, 196520, Control_c, 0, 64, 0
2, 196538, Note_on_c, 0, 76, 0
2, 196600, Control_c, 0, 64, 127
2, 196795, Note_on_c, 0, 76, 90
2, 197099, Note_on_c, 0, 78, 95
2, 197103, Note_on_c, 0, 63, 74
2, 197112, Note_on_c, 0, 71, 83
2, 197184, Control_c, 0, 64, 0
2, 197268, Control_c, 0, 64, 127
2, 197583, Note_on_c, 0, 80, 0
2, 197593, Note_on_c, 0, 80, 96
2, 197600, Note_on_c, 0, 68, 77
2, 197629, Note_on_c, 0, 71, 0
2, 197629, Note_on_c, 0, 76, 0
2, 197633, Note_on_c, 0, 71, 56
2, 197640, Note_on_c, 0, 76, 59
2, 197660, Control_c, 0, 64, 0
2, 197744, Control_c, 0, 64, 127
2, 197756, Note_on_c, 0, 49, 71
2, 197805, Note_on_c, 0, 47, 0
2, 197809, Note_on_c, 0, 54, 0
2, 197809, Note_on_c, 0, 59, 0
2, 197809, Note_on_c, 0, 63, 0
2, 197821, Control_c, 0, 64, 0
2, 197905, Control_c, 0, 64, 127
2, 197928, Note_on_c, 0, 78, 0
2, 198071, Note_on_c, 0, 56, 61
2, 198385, Note_on_c, 0, 64, 57
2, 198712, Note_on_c, 0, 71, 0
2, 198714, Note_on_c, 0, 47, 74
2, 198715, Note_on_c, 0, 83, 93
2, 198723, Note_on_c, 0, 71, 80
2, 198746, Note_on_c, 0, 75, 67
2, 198760, Control_c, 0, 64, 0
2, 198766, Note_on_c, 0, 80, 0
2, 198767, Note_on_c, 0, 64, 0
2, 198767, Note_on_c, 0, 56, 0
2, 198768, Note_on_c, 0, 68, 0
2, 198769, Note_on_c, 0, 49, 0
2, 198781, Note_on_c, 0, 76, 0
2, 198850, Control_c, 0, 64, 127
2, 199347, Note_on_c, 0, 54, 65
2, 199669, Note_on_c, 0, 63, 61
2, 199973, Note_on_c, 0, 76, 83
2, 200117, Note_on_c, 0, 75, 0
2, 200127, Note_on_c, 0, 75, 87
2, 200286, Note_on_c, 0, 76, 0
2, 200292, Note_on_c, 0, 45, 69
2, 200294, Note_on_c, 0, 76, 95
2, 200306, Note_on_c, 0, 73, 80
2, 200321, Note_on_c, 0, 69, 66
2, 200338, Control_c, 0, 64, 0
2, 200343, Note_on_c, 0, 54, 0
2, 200343, Note_on_c, 0, 63, 0
2, 200343, Note_on_c, 0, 83, 0
2, 200344, Note_on_c, 0, 47, 0
2, 200363, Note_on_c, 0, 71, 0
2, 200409, Note_on_c, 0, 75, 0
2, 200432, Control_c, 0, 64, 127
2, 200596, Note_on_c, 0, 52, 58
2, 200903, Note_on_c, 0, 54, 67
2, 201226, Note_on_c, 0, 56, 70
2, 201244, Note_on_c, 0, 40, 47
2, 201261, Control_c, 0, 64, 0
2, 201262, Note_on_c, 0, 45, 0
2, 201266, Note_on_c, 0, 54, 0
2, 201267, Note_on_c, 0, 52, 0
2, 201308, Control_c, 0, 64, 127
2, 201843, Note_on_c, 0, 47, 51
2, 202160, Note_on_c, 0, 76, 0
2, 202163, Note_on_c, 0, 52, 60
2, 202171, Note_on_c, 0, 76, 84
2, 202479, Note_on_c, 0, 75, 83
2, 202781, Note_on_c, 0, 49, 68
2, 202801, Note_on_c, 0, 64, 67
2, 202802, Note_on_c, 0, 71, 84
2, 202804, Note_on_c, 0, 68, 72
2, 202825, Control_c, 0, 64, 0
2, 202842, Note_on_c, 0, 56, 0
2, 202842, Note_on_c, 0, 73, 0
2, 202842, Note_on_c, 0, 75, 0
2, 202843, Note_on_c, 0, 47, 0
2, 202845, Note_on_c, 0, 52, 0
2, 202846, Note_on_c, 0, 40, 0
2, 202867, Note_on_c, 0, 69, 0
2, 202874, Note_on_c, 0, 76, 0
2, 202936, Control_c, 0, 64, 127
2, 203101, Note_on_c, 0, 56, 51
2, 203412, Note_on_c, 0, 59, 70
2, 203704, Note_on_c, 0, 64, 0
2, 203711, Note_on_c, 0, 64, 70
2, 204033, Note_on_c, 0, 63, 72
2, 204034, Note_on_c, 0, 47, 67
2, 204075, Note_on_c, 0, 49, 0
2, 204076, Control_c, 0, 64, 0
2, 204077, Note_on_c, 0, 56, 0
2, 204180, Control_c, 0, 64, 127
2, 204195, Note_on_c, 0, 64, 0
2, 204495, Note_on_c, 0, 59, 0
2, 204505, Note_on_c, 0, 59, 75
2, 204984, Note_on_c, 0, 54, 64
2, 205303, Note_on_c, 0, 61, 77
2, 205306, Note_on_c, 0, 45, 62
2, 205344, Control_c, 0, 64, 0
2, 205351, Note_on_c, 0, 47, 0
2, 205351, Note_on_c, 0, 54, 0
2, 205351, Note_on_c, 0, 63, 0
2, 205351, Note_on_c, 0, 59, 0
2, 205370, Note_on_c, 0, 68, 0
2, 205378, Note_on_c, 0, 71, 0
2, 205455, Control_c, 0, 64, 127
2, 205635, Note_on_c, 0, 52, 56
2, 205942, Note_on_c, 0, 57, 62
2, 206259, Note_on_c, 0, 59, 63
2, 206274, Note_on_c, 0, 40, 49
2, 206284, Note_on_c, 0, 56, 49
2, 206313, Control_c, 0, 64, 0
2, 206319, Note_on_c, 0, 45, 0
2, 206320, Note_on_c, 0, 57, 0
2, 206321, Note_on_c, 0, 61, 0
2, 206446, Control_c, 0, 64, 127
2, 207260, Note_on_c, 0, 52, 0
2, 207265, Note_on_c, 0, 52, 51
2, 207277, Note_on_c, 0, 64, 40
2, 207928, Note_on_c, 0, 59, 0
2, 207931, Note_on_c, 0, 74, 73
2, 207939, Note_on_c, 0, 59, 57
2, 207940, Note_on_c, 0, 66, 61
2, 207943, Note_on_c, 0, 47, 59
2, 207944, Note_on_c, 0, 62, 56
2, 207986, Control_c, 0, 64, 0
2, 207987, Note_on_c, 0, 56, 0
2, 207987, Note_on_c, 0, 52, 0
2, 207987, Note_on_c, 0, 40, 0
2, 208012, Note_on_c, 0, 64, 0
2, 208051, Control_c, 0, 64, 127
2, 209307, Note_on_c, 0, 73, 70
2, 209314, Note_on_c, 0, 61, 56
2, 209317, Note_on_c, 0, 64, 61
2, 209320, Note_on_c, 0, 45, 57
2, 209321, Note_on_c, 0, 57, 53
2, 209339, Note_on_c, 0, 47, 0
2, 209342, Note_on_c, 0, 74, 0
2, 209343, Note_on_c, 0, 62, 0
2, 209343, Control_c, 0, 64, 0
2, 209344, Note_on_c, 0, 66, 0
2, 209356, Note_on_c, 0, 59, 0
2, 209525, Control_c, 0, 64, 127
2, 210796, Note_on_c, 0, 71, 67
2, 210807, Note_on_c, 0, 62, 46
2, 210810, Note_on_c, 0, 66, 53
2, 210823, Note_on_c, 0, 43, 45
2, 210828, Note_on_c, 0, 50, 48
2, 210829, Note_on_c, 0, 73, 0
2, 210829, Note_on_c, 0, 64, 0
2, 210829, Note_on_c, 0, 61, 0
2, 210830, Note_on_c, 0, 59, 37
2, 210830, Note_on_c, 0, 45, 0
2, 210834, Control_c, 0, 64, 0
2, 210862, Note_on_c, 0, 57, 0
2, 210877, Control_c, 0, 64, 127
2, 210931, Control_c, 0, 64, 0
2, 211115, Control_c, 0, 64, 127
2, 212363, Note_on_c, 0, 69, 67
2, 212411, Control_c, 0, 64, 0
2, 212419, Note_on_c, 0, 50, 0
2, 212421, Note_on_c, 0, 62, 0
2, 212422, Note_on_c, 0, 71, 0
2, 212423, Note_on_c, 0, 59, 0
2, 212423, Note_on_c, 0, 66, 0
2, 212536, Control_c, 0, 64, 127
2, 213211, Note_on_c, 0, 67, 52
2, 213237, Note_on_c, 0, 69, 0
2, 213258, Control_c, 0, 64, 0
2, 213342, Control_c, 0, 64, 127
2, 214635, Note_on_c, 0, 35, 43
2, 214651, Control_c, 0, 64, 0
2, 214699, Note_on_c, 0, 42, 54
2, 214702, Note_on_c, 0, 67, 0
2, 214717, Note_on_c, 0, 43, 0
2, 214725, Control_c, 0, 64, 127
2, 214792, Note_on_c, 0, 50, 55
2, 214829, Note_on_c, 0, 54, 60
2, 214898, Note_on_c, 0, 59, 70
2, 214971, Note_on_c, 0, 62, 64
2, 214993, Control_c, 0, 64, 0
2, 215001, Control_c, 0, 64, 127
2, 215009, Note_on_c, 0, 66, 77
2, 216960, Note_on_c, 0, 50, 0
2, 216960, Note_on_c, 0, 54, 0
2, 216960, Note_on_c, 0, 59, 0
2, 216960, Note_on_c, 0, 62, 0
2, 217351, Note_on_c, 0, 66, 0
2, 217367, Note_on_c, 0, 35, 0
2, 217372, Note_on_c, 0, 35, 43
2, 217414, Note_on_c, 0, 43, 47
2, 217482, Note_on_c, 0, 50, 46
2, 217484, Note_on_c, 0, 55, 51
2, 217501, Control_c, 0, 64, 0
2, 217505, Control_c, 0, 64, 127
2, 217534, Note_on_c, 0, 59, 60
2, 217570, Note_on_c, 0, 61, 58
2, 217613, Note_on_c, 0, 66, 74
2, 217958, Note_on_c, 0, 61, 0
2, 218964, Note_on_c, 0, 55, 0
2, 218969, Note_on_c, 0, 64, 66
2, 218972, Note_on_c, 0, 59, 0
2, 218975, Note_on_c, 0, 55, 49
2, 218978, Note_on_c, 0, 59, 46
2, 219310, Note_on_c, 0, 42, 0
2, 220462, Note_on_c, 0, 35, 0
2, 220472, Note_on_c, 0, 35, 43
2, 220477, Note_on_c, 0, 43, 0
2, 220511, Note_on_c, 0, 42, 44
2, 220589, Note_on_c, 0, 54, 36
2, 220600, Note_on_c, 0, 50, 0
2, 220610, Note_on_c, 0, 50, 45
2, 220677, Note_on_c, 0, 59, 0
2, 220681, Note_on_c, 0, 59, 58
2, 220735, Note_on_c, 0, 62, 59
2, 220761, Note_on_c, 0, 66, 0
2, 220772, Note_on_c, 0, 66, 68
2, 223050, Note_on_c, 0, 62, 0
2, 223061, Note_on_c, 0, 62, 61
2, 223580, Note_on_c, 0, 55, 0
2, 223580, Note_on_c, 0, 64, 0
2, 223756, Note_on_c, 0, 35, 0
2, 223767, Note_on_c, 0, 35, 45
2, 223795, Note_on_c, 0, 54, 0
2, 223807, Note_on_c, 0, 43, 32
2, 223894, Note_on_c, 0, 49, 51
2, 223910, Note_on_c, 0, 66, 0
2, 223939, Note_on_c, 0, 52, 44
2, 223975, Note_on_c, 0, 55, 48
2, 224017, Note_on_c, 0, 59, 0
2, 224024, Note_on_c, 0, 59, 55
2, 224056, Note_on_c, 0, 62, 0
2, 224065, Note_on_c, 0, 62, 68
2, 224094, Note_on_c, 0, 42, 0
2, 224099, Control_c, 0, 64, 0
2, 224125, Control_c, 0, 64, 127
2, 224640, Note_on_c, 0, 50, 0
2, 225543, Note_on_c, 0, 61, 59
2, 225561, Note_on_c, 0, 55, 0
2, 225569, Note_on_c, 0, 52, 0
2, 225572, Note_on_c, 0, 55, 46
2, 225580, Note_on_c, 0, 52, 44
2, 227343, Note_on_c, 0, 35, 0
2, 227352, Note_on_c, 0, 35, 45
2, 227401, Note_on_c, 0, 42, 40
2, 227483, Note_on_c, 0, 47, 41
2, 227493, Note_on_c, 0, 50, 47
2, 227533, Note_on_c, 0, 54, 50
2, 227612, Note_on_c, 0, 59, 0
2, 227621, Note_on_c, 0, 59, 67
2, 227896, Note_on_c, 0, 49, 0
2, 228418, Note_on_c, 0, 43, 0
2, 228480, Note_on_c, 0, 52, 0
2, 228480, Note_on_c, 0, 55, 0
2, 228480, Note_on_c, 0, 61, 0
2, 228480, Note_on_c, 0, 62, 0
2, 228507, Control_c, 0, 64, 0
2, 228520, Note_on_c, 0, 35, 0
2, 228520, Note_on_c, 0, 50, 0
2, 228523, Note_on_c, 0, 42, 0
2, 228524, Note_on_c, 0, 54, 0
2, 228549, Note_on_c, 0, 47, 0
2, 228948, Control_c, 0, 64, 127
2, 229418, Note_on_c, 0, 47, 41
2, 229420, Note_on_c, 0, 50, 49
2, 229428, Note_on_c, 0, 35, 40
2, 229493, Control_c, 0, 64, 0
2, 229578, Control_c, 0, 64, 127
2, 230373, Control_c, 0, 64, 0
2, 230396, Note_on_c, 0, 50, 0
2, 230397, Note_on_c, 0, 35, 0
2, 230399, Note_on_c, 0, 47, 0
2, 231075, Control_c, 0, 64, 127
2, 231298, Note_on_c, 0, 59, 0
2, 231555, Note_on_c, 0, 50, 34
2, 231560, Note_on_c, 0, 35, 39
2, 231574, Note_on_c, 0, 54, 23
2, 236160, Note_on_c, 0, 35, 0
2, 236160, Note_on_c, 0, 50, 0
2, 236160, Note_on_c, 0, 54, 0
2, 236906, Control_c, 0, 64, 0
2, 236907, End_track
0, 0, End_of_file
