0, 0, Header, 1, 2, 384
1, 0, Start_track
1, 0, Tempo, 500000
1, 0, Time_signature, 4, 2, 24, 8
1, 1, End_track
2, 0, Start_track
2, 7, Control_c, 0, 64, 127
2, 2623, Note_on_c, 0, 58, 43
2, 2645, Note_on_c, 0, 62, 17
2, 2649, Note_on_c, 0, 62, 0
2, 2682, Note_on_c, 0, 72, 57
2, 2683, Note_on_c, 0, 65, 36
2, 2724, Note_on_c, 0, 67, 54
2, 2729, Note_on_c, 0, 77, 54
2, 2794, Note_on_c, 0, 84, 79
2, 3153, Note_on_c, 0, 79, 52
2, 3356, Note_on_c, 0, 77, 0
2, 3360, Note_on_c, 0, 77, 70
2, 3732, Note_on_c, 0, 84, 0
2, 3741, Note_on_c, 0, 84, 73
2, 4247, Note_on_c, 0, 72, 0
2, 4250, Control_c, 0, 64, 0
2, 4252, Note_on_c, 0, 72, 53
2, 4254, Note_on_c, 0, 77, 0
2, 4255, Note_on_c, 0, 79, 0
2, 4256, Note_on_c, 0, 58, 0
2, 4260, Note_on_c, 0, 77, 56
2, 4274, Note_on_c, 0, 60, 36
2, 4293, Note_on_c, 0, 65, 0
2, 4297, Note_on_c, 0, 65, 37
2, 4300, Note_on_c, 0, 84, 0
2, 4306, Note_on_c, 0, 84, 73
2, 4316, Note_on_c, 0, 67, 0
2, 4325, Note_on_c, 0, 67, 52
2, 4346, Control_c, 0, 64, 127
2, 4675, Note_on_c, 0, 79, 63
2, 4853, Note_on_c, 0, 77, 0
2, 4858, Note_on_c, 0, 77, 65
2, 5237, Note_on_c, 0, 84, 0
2, 5247, Note_on_c, 0, 84, 65
2, 5760, Note_on_c, 0, 72, 0
2, 5769, Note_on_c, 0, 72, 55
2, 5783, Note_on_c, 0, 77, 0
2, 5791, Note_on_c, 0, 77, 56
2, 5796, Note_on_c, 0, 57, 48
2, 5808, Note_on_c, 0, 79, 0
2, 5821, Note_on_c, 0, 84, 0
2, 5823, Note_on_c, 0, 63, 34
2, 5829, Note_on_c, 0, 63, 0
2, 5829, Note_on_c, 0, 67, 0
2, 5831, Control_c, 0, 64, 0
2, 5832, Note_on_c, 0, 84, 67
2, 5836, Note_on_c, 0, 67, 50
2, 5905, Control_c, 0, 64, 127
2, 6192, Note_on_c, 0, 79, 58
2, 6374, Note_on_c, 0, 77, 0
2, 6384, Note_on_c, 0, 77, 64
2, 6750, Note_on_c, 0, 84, 0
2, 6759, Note_on_c, 0, 84, 65
2, 7219, Note_on_c, 0, 72, 0
2, 7229, Note_on_c, 0, 72, 50
2, 7238, Note_on_c, 0, 53, 35
2, 7272, Note_on_c, 0, 60, 0
2, 7272, Note_on_c, 0, 77, 0
2, 7282, Note_on_c, 0, 76, 44
2, 7282, Note_on_c, 0, 60, 45
2, 7284, Note_on_c, 0, 77, 46
2, 7297, Note_on_c, 0, 57, 0
2, 7308, Note_on_c, 0, 79, 0
2, 7312, Control_c, 0, 64, 0
2, 7319, Note_on_c, 0, 67, 0
2, 7329, Note_on_c, 0, 67, 41
2, 7334, Note_on_c, 0, 84, 0
2, 7345, Note_on_c, 0, 84, 67
2, 7426, Control_c, 0, 64, 127
2, 8048, Note_on_c, 0, 65, 0
2, 8095, Note_on_c, 0, 69, 42
2, 8808, Note_on_c, 0, 60, 0
2, 8808, Note_on_c, 0, 72, 0
2, 8816, Note_on_c, 0, 72, 58
2, 8816, Note_on_c, 0, 60, 50
2, 8819, Note_on_c, 0, 65, 50
2, 8846, Control_c, 0, 64, 0
2, 8852, Note_on_c, 0, 84, 0
2, 8870, Note_on_c, 0, 72, 0
2, 8878, Note_on_c, 0, 53, 0
2, 8878, Note_on_c, 0, 72, 70
2, 8885, Control_c, 0, 64, 127
2, 8888, Note_on_c, 0, 53, 40
2, 8890, Note_on_c, 0, 46, 42
2, 8924, Note_on_c, 0, 77, 0
2, 9231, Note_on_c, 0, 67, 0
2, 9235, Note_on_c, 0, 67, 63
2, 9423, Note_on_c, 0, 65, 0
2, 9428, Note_on_c, 0, 65, 66
2, 9438, Note_on_c, 0, 60, 0
2, 9439, Note_on_c, 0, 58, 50
2, 9446, Note_on_c, 0, 46, 0
2, 9446, Note_on_c, 0, 53, 0
2, 9448, Note_on_c, 0, 60, 55
2, 9451, Note_on_c, 0, 53, 43
2, 9451, Note_on_c, 0, 46, 48
2, 9496, Control_c, 0, 64, 0
2, 9569, Control_c, 0, 64, 127
2, 9600, Note_on_c, 0, 76, 0
2, 9799, Note_on_c, 0, 72, 0
2, 9810, Note_on_c, 0, 72, 63
2, 9984, Note_on_c, 0, 46, 0
2, 9992, Note_on_c, 0, 46, 56
2, 10091, Note_on_c, 0, 69, 0
2, 10268, Note_on_c, 0, 60, 0
2, 10272, Note_on_c, 0, 60, 48
2, 10298, Note_on_c, 0, 65, 0
2, 10303, Note_on_c, 0, 65, 50
2, 10321, Note_on_c, 0, 67, 0
2, 10328, Note_on_c, 0, 48, 36
2, 10333, Note_on_c, 0, 67, 41
2, 10352, Control_c, 0, 64, 0
2, 10355, Note_on_c, 0, 58, 0
2, 10355, Note_on_c, 0, 46, 0
2, 10356, Note_on_c, 0, 41, 46
2, 10360, Note_on_c, 0, 41, 0
2, 10360, Note_on_c, 0, 53, 0
2, 10367, Note_on_c, 0, 53, 50
2, 10368, Note_on_c, 0, 72, 0
2, 10372, Note_on_c, 0, 72, 75
2, 10374, Note_on_c, 0, 55, 52
2, 10475, Control_c, 0, 64, 127
2, 10728, Note_on_c, 0, 67, 0
2, 10733, Note_on_c, 0, 67, 60
2, 10913, Note_on_c, 0, 60, 0
2, 10920, Note_on_c, 0, 55, 0
2, 10920, Note_on_c, 0, 65, 0
2, 10924, Note_on_c, 0, 60, 45
2, 10927, Note_on_c, 0, 55, 48
2, 10927, Note_on_c, 0, 65, 66
2, 11304, Note_on_c, 0, 72, 0
2, 11314, Note_on_c, 0, 72, 70
2, 11489, Note_on_c, 0, 48, 0
2, 11497, Note_on_c, 0, 48, 49
2, 11773, Note_on_c, 0, 60, 0
2, 11781, Note_on_c, 0, 55, 0
2, 11783, Note_on_c, 0, 60, 45
2, 11788, Note_on_c, 0, 55, 29
2, 11811, Note_on_c, 0, 65, 0
2, 11816, Note_on_c, 0, 65, 53
2, 11850, Note_on_c, 0, 67, 0
2, 11854, Note_on_c, 0, 67, 48
2, 11855, Control_c, 0, 64, 0
2, 11857, Note_on_c, 0, 72, 0
2, 11863, Note_on_c, 0, 72, 72
2, 11872, Note_on_c, 0, 50, 42
2, 11880, Note_on_c, 0, 55, 0
2, 11881, Note_on_c, 0, 57, 53
2, 11885, Note_on_c, 0, 48, 0
2, 11885, Note_on_c, 0, 53, 0
2, 11890, Note_on_c, 0, 55, 49
2, 11927, Note_on_c, 0, 67, 0
2, 11965, Control_c, 0, 64, 127
2, 12228, Note_on_c, 0, 67, 60
2, 12410, Note_on_c, 0, 60, 0
2, 12418, Note_on_c, 0, 57, 0
2, 12418, Note_on_c, 0, 65, 0
2, 12421, Note_on_c, 0, 60, 48
2, 12428, Note_on_c, 0, 65, 57
2, 12428, Note_on_c, 0, 57, 46
2, 12787, Note_on_c, 0, 72, 0
2, 12797, Note_on_c, 0, 72, 67
2, 12971, Note_on_c, 0, 50, 0
2, 12979, Note_on_c, 0, 50, 46
2, 13340, Note_on_c, 0, 72, 0
2, 13346, Note_on_c, 0, 72, 67
2, 13347, Note_on_c, 0, 65, 0
2, 13355, Note_on_c, 0, 57, 0
2, 13355, Note_on_c, 0, 60, 0
2, 13356, Note_on_c, 0, 65, 42
2, 13357, Note_on_c, 0, 69, 48
2, 13361, Note_on_c, 0, 60, 44
2, 13363, Note_on_c, 0, 57, 40
2, 13367, Control_c, 0, 64, 0
2, 13370, Note_on_c, 0, 67, 0
2, 13381, Note_on_c, 0, 67, 47
2, 13388, Note_on_c, 0, 55, 0
2, 13478, Control_c, 0, 64, 127
2, 14105, Control_c, 0, 64, 0
2, 14108, Note_on_c, 0, 60, 0
2, 14112, Note_on_c, 0, 48, 44
2, 14115, Note_on_c, 0, 60, 33
2, 14123, Note_on_c, 0, 50, 0
2, 14208, Control_c, 0, 64, 127
2, 14910, Note_on_c, 0, 46, 58
2, 14965, Control_c, 0, 64, 0
2, 14968, Note_on_c, 0, 69, 0
2, 14970, Note_on_c, 0, 57, 0
2, 14971, Note_on_c, 0, 60, 0
2, 14972, Note_on_c, 0, 48, 0
2, 14991, Note_on_c, 0, 72, 0
2, 15006, Note_on_c, 0, 67, 0
2, 15068, Note_on_c, 0, 65, 0
2, 15308, Note_on_c, 0, 57, 47
2, 15492, Note_on_c, 0, 58, 54
2, 15494, Note_on_c, 0, 53, 39
2, 15677, Note_on_c, 0, 60, 71
2, 15744, Control_c, 0, 64, 127
2, 16043, Note_on_c, 0, 46, 0
2, 16047, Note_on_c, 0, 46, 49
2, 16051, Note_on_c, 0, 58, 0
2, 16056, Note_on_c, 0, 58, 55
2, 16235, Note_on_c, 0, 60, 0
2, 16241, Note_on_c, 0, 60, 60
2, 16296, Control_c, 0, 64, 0
2, 16405, Note_on_c, 0, 48, 51
2, 16424, Note_on_c, 0, 46, 0
2, 16430, Note_on_c, 0, 58, 0
2, 16588, Note_on_c, 0, 57, 0
2, 16594, Note_on_c, 0, 57, 62
2, 16619, Control_c, 0, 64, 127
2, 16650, Note_on_c, 0, 53, 0
2, 16657, Control_c, 0, 64, 0
2, 16769, Note_on_c, 0, 57, 0
2, 16784, Note_on_c, 0, 55, 65
2, 16903, Note_on_c, 0, 60, 0
2, 16960, Note_on_c, 0, 55, 0
2, 16976, Note_on_c, 0, 53, 52
2, 17218, Control_c, 0, 64, 127
2, 17541, Note_on_c, 0, 48, 0
2, 17545, Note_on_c, 0, 48, 59
2, 17947, Note_on_c, 0, 45, 56
2, 18012, Control_c, 0, 64, 0
2, 18013, Note_on_c, 0, 48, 0
2, 18013, Note_on_c, 0, 53, 0
2, 18332, Control_c, 0, 64, 127
2, 18351, Note_on_c, 0, 57, 60
2, 18528, Note_on_c, 0, 58, 65
2, 18552, Note_on_c, 0, 52, 43
2, 18559, Note_on_c, 0, 55, 45
2, 18706, Note_on_c, 0, 60, 80
2, 19069, Note_on_c, 0, 58, 0
2, 19077, Note_on_c, 0, 45, 0
2, 19080, Note_on_c, 0, 58, 72
2, 19081, Note_on_c, 0, 45, 59
2, 19261, Note_on_c, 0, 60, 0
2, 19270, Note_on_c, 0, 60, 81
2, 19447, Note_on_c, 0, 41, 63
2, 19453, Note_on_c, 0, 57, 0
2, 19453, Note_on_c, 0, 52, 0
2, 19453, Control_c, 0, 64, 0
2, 19456, Note_on_c, 0, 55, 0
2, 19457, Note_on_c, 0, 45, 0
2, 19484, Note_on_c, 0, 58, 0
2, 19636, Note_on_c, 0, 64, 72
2, 19799, Note_on_c, 0, 64, 0
2, 19804, Note_on_c, 0, 65, 70
2, 19814, Note_on_c, 0, 60, 0
2, 20006, Note_on_c, 0, 64, 68
2, 20028, Note_on_c, 0, 65, 0
2, 20373, Note_on_c, 0, 48, 30
2, 20444, Control_c, 0, 64, 127
2, 20563, Note_on_c, 0, 55, 45
2, 20915, Note_on_c, 0, 46, 59
2, 20957, Control_c, 0, 64, 0
2, 20962, Note_on_c, 0, 48, 0
2, 20962, Note_on_c, 0, 41, 0
2, 20964, Note_on_c, 0, 55, 0
2, 20965, Note_on_c, 0, 64, 0
2, 21050, Control_c, 0, 64, 127
2, 21089, Control_c, 0, 64, 0
2, 21173, Control_c, 0, 64, 127
2, 21308, Note_on_c, 0, 57, 47
2, 21488, Note_on_c, 0, 58, 59
2, 21498, Note_on_c, 0, 53, 47
2, 21527, Control_c, 0, 64, 0
2, 21657, Control_c, 0, 64, 127
2, 21672, Note_on_c, 0, 60, 77
2, 21742, Note_on_c, 0, 57, 0
2, 22049, Note_on_c, 0, 58, 0
2, 22056, Note_on_c, 0, 46, 0
2, 22058, Note_on_c, 0, 58, 64
2, 22062, Note_on_c, 0, 46, 54
2, 22233, Note_on_c, 0, 60, 0
2, 22244, Note_on_c, 0, 60, 71
2, 22417, Control_c, 0, 64, 0
2, 22436, Note_on_c, 0, 48, 58
2, 22491, Note_on_c, 0, 46, 0
2, 22571, Note_on_c, 0, 53, 0
2, 22607, Note_on_c, 0, 57, 64
2, 22663, Note_on_c, 0, 58, 0
2, 22686, Note_on_c, 0, 60, 0
2, 22790, Note_on_c, 0, 55, 66
2, 22800, Note_on_c, 0, 57, 0
2, 22977, Note_on_c, 0, 53, 54
2, 22997, Note_on_c, 0, 55, 0
2, 23162, Control_c, 0, 64, 127
2, 23508, Note_on_c, 0, 48, 0
2, 23518, Note_on_c, 0, 48, 42
2, 23685, Note_on_c, 0, 53, 0
2, 23693, Note_on_c, 0, 53, 58
2, 23882, Note_on_c, 0, 55, 65
2, 23882, Note_on_c, 0, 50, 52
2, 23885, Control_c, 0, 64, 0
2, 23919, Note_on_c, 0, 53, 0
2, 23938, Note_on_c, 0, 48, 0
2, 24445, Note_on_c, 0, 57, 56
2, 24491, Note_on_c, 0, 55, 0
2, 24537, Control_c, 0, 64, 127
2, 24801, Note_on_c, 0, 45, 45
2, 24998, Note_on_c, 0, 57, 0
2, 25006, Note_on_c, 0, 57, 55
2, 25384, Note_on_c, 0, 54, 35
2, 25386, Note_on_c, 0, 38, 34
2, 25396, Note_on_c, 0, 64, 45
2, 25404, Control_c, 0, 64, 0
2, 25411, Note_on_c, 0, 50, 0
2, 25413, Note_on_c, 0, 57, 0
2, 25424, Note_on_c, 0, 57, 26
2, 25559, Control_c, 0, 64, 127
2, 26147, Note_on_c, 0, 66, 42
2, 26173, Note_on_c, 0, 57, 0
2, 26178, Note_on_c, 0, 57, 25
2, 26311, Note_on_c, 0, 57, 0
2, 26317, Note_on_c, 0, 57, 52
2, 26511, Note_on_c, 0, 58, 69
2, 26664, Note_on_c, 0, 57, 0
2, 26670, Note_on_c, 0, 57, 59
2, 26859, Note_on_c, 0, 58, 0
2, 26859, Control_c, 0, 64, 0
2, 26860, Note_on_c, 0, 54, 0
2, 26860, Note_on_c, 0, 64, 0
2, 26861, Note_on_c, 0, 57, 0
2, 26861, Note_on_c, 0, 66, 0
2, 26862, Note_on_c, 0, 38, 0
2, 26872, Note_on_c, 0, 45, 0
2, 26880, Note_on_c, 0, 43, 55
2, 26880, Note_on_c, 0, 60, 65
2, 26892, Note_on_c, 0, 53, 43
2, 26979, Control_c, 0, 64, 127
2, 27223, Note_on_c, 0, 62, 67
2, 27409, Note_on_c, 0, 60, 0
2, 27414, Note_on_c, 0, 60, 70
2, 27429, Note_on_c, 0, 50, 54
2, 27608, Note_on_c, 0, 58, 64
2, 27675, Control_c, 0, 64, 0
2, 27724, Control_c, 0, 64, 127
2, 27804, Note_on_c, 0, 64, 73
2, 27985, Note_on_c, 0, 43, 0
2, 27990, Note_on_c, 0, 43, 67
2, 28165, Note_on_c, 0, 65, 70
2, 28332, Note_on_c, 0, 45, 65
2, 28362, Control_c, 0, 64, 0
2, 28364, Note_on_c, 0, 62, 0
2, 28364, Note_on_c, 0, 58, 0
2, 28365, Note_on_c, 0, 50, 0
2, 28365, Note_on_c, 0, 64, 0
2, 28365, Note_on_c, 0, 60, 0
2, 28365, Note_on_c, 0, 53, 0
2, 28365, Note_on_c, 0, 43, 0
2, 28431, Control_c, 0, 64, 127
2, 28551, Note_on_c, 0, 60, 72
2, 28892, Note_on_c, 0, 65, 0
2, 28903, Note_on_c, 0, 65, 67
2, 28929, Note_on_c, 0, 53, 54
2, 28992, Control_c, 0, 64, 0
2, 29076, Control_c, 0, 64, 127
2, 29103, Note_on_c, 0, 57, 73
2, 29282, Note_on_c, 0, 67, 75
2, 29291, Note_on_c, 0, 60, 0
2, 29295, Note_on_c, 0, 60, 65
2, 29460, Note_on_c, 0, 45, 0
2, 29465, Note_on_c, 0, 45, 64
2, 29663, Note_on_c, 0, 69, 77
2, 29709, Note_on_c, 0, 62, 53
2, 29764, Control_c, 0, 64, 0
2, 29767, Note_on_c, 0, 57, 0
2, 29770, Note_on_c, 0, 45, 0
2, 29772, Note_on_c, 0, 67, 0
2, 29783, Note_on_c, 0, 65, 0
2, 29790, Note_on_c, 0, 53, 0
2, 29813, Note_on_c, 0, 60, 0
2, 29831, Note_on_c, 0, 46, 67
2, 29867, Control_c, 0, 64, 127
2, 30039, Note_on_c, 0, 70, 77
2, 30382, Note_on_c, 0, 69, 0
2, 30391, Note_on_c, 0, 69, 77
2, 30412, Note_on_c, 0, 53, 56
2, 30580, Note_on_c, 0, 60, 64
2, 30585, Note_on_c, 0, 58, 55
2, 30766, Note_on_c, 0, 65, 72
2, 30935, Note_on_c, 0, 46, 0
2, 30944, Note_on_c, 0, 46, 61
2, 31111, Note_on_c, 0, 60, 0
2, 31119, Note_on_c, 0, 60, 72
2, 31284, Control_c, 0, 64, 0
2, 31288, Note_on_c, 0, 65, 0
2, 31288, Note_on_c, 0, 53, 0
2, 31289, Note_on_c, 0, 70, 0
2, 31289, Note_on_c, 0, 46, 0
2, 31289, Note_on_c, 0, 69, 0
2, 31290, Note_on_c, 0, 58, 0
2, 31290, Note_on_c, 0, 62, 0
2, 31292, Note_on_c, 0, 38, 56
2, 31477, Note_on_c, 0, 64, 64
2, 31480, Control_c, 0, 64, 127
2, 31695, Note_on_c, 0, 65, 58
2, 31837, Note_on_c, 0, 45, 57
2, 32002, Note_on_c, 0, 45, 0
2, 32008, Note_on_c, 0, 45, 45
2, 32068, Note_on_c, 0, 53, 47
2, 32235, Note_on_c, 0, 69, 68
2, 32413, Note_on_c, 0, 70, 78
2, 32655, Note_on_c, 0, 60, 0
2, 32665, Note_on_c, 0, 60, 44
2, 32709, Note_on_c, 0, 65, 0
2, 32715, Note_on_c, 0, 65, 56
2, 32777, Note_on_c, 0, 72, 78
2, 32781, Note_on_c, 0, 43, 60
2, 32783, Control_c, 0, 64, 0
2, 32795, Note_on_c, 0, 53, 0
2, 32795, Note_on_c, 0, 45, 0
2, 32797, Note_on_c, 0, 69, 0
2, 32808, Note_on_c, 0, 38, 0
2, 32824, Note_on_c, 0, 64, 0
2, 32893, Control_c, 0, 64, 127
2, 33159, Note_on_c, 0, 67, 67
2, 33338, Note_on_c, 0, 65, 0
2, 33338, Note_on_c, 0, 70, 0
2, 33342, Note_on_c, 0, 50, 54
2, 33345, Note_on_c, 0, 65, 73
2, 33520, Note_on_c, 0, 58, 60
2, 33534, Note_on_c, 0, 53, 47
2, 33706, Note_on_c, 0, 62, 68
2, 33876, Note_on_c, 0, 50, 0
2, 33886, Note_on_c, 0, 50, 58
2, 34053, Note_on_c, 0, 60, 0
2, 34062, Note_on_c, 0, 60, 74
2, 34235, Control_c, 0, 64, 0
2, 34235, Note_on_c, 0, 45, 61
2, 34241, Note_on_c, 0, 53, 0
2, 34241, Note_on_c, 0, 65, 0
2, 34242, Note_on_c, 0, 62, 0
2, 34242, Note_on_c, 0, 67, 0
2, 34243, Note_on_c, 0, 58, 0
2, 34243, Note_on_c, 0, 50, 0
2, 34245, Note_on_c, 0, 43, 0
2, 34260, Note_on_c, 0, 72, 0
2, 34426, Note_on_c, 0, 64, 61
2, 34475, Control_c, 0, 64, 127
2, 34621, Note_on_c, 0, 65, 68
2, 34817, Note_on_c, 0, 52, 40
2, 34967, Note_on_c, 0, 60, 0
2, 34972, Note_on_c, 0, 60, 34
2, 35162, Note_on_c, 0, 69, 71
2, 35176, Note_on_c, 0, 55, 60
2, 35346, Note_on_c, 0, 70, 82
2, 35366, Note_on_c, 0, 52, 0
2, 35377, Note_on_c, 0, 52, 47
2, 35527, Note_on_c, 0, 45, 0
2, 35532, Note_on_c, 0, 45, 50
2, 35642, Note_on_c, 0, 60, 0
2, 35648, Note_on_c, 0, 60, 54
2, 35688, Note_on_c, 0, 65, 0
2, 35697, Note_on_c, 0, 65, 62
2, 35715, Control_c, 0, 64, 0
2, 35727, Note_on_c, 0, 70, 0
2, 35729, Note_on_c, 0, 52, 0
2, 35729, Note_on_c, 0, 69, 0
2, 35729, Note_on_c, 0, 45, 0
2, 35730, Note_on_c, 0, 55, 0
2, 35730, Note_on_c, 0, 64, 0
2, 35731, Note_on_c, 0, 72, 78
2, 35732, Note_on_c, 0, 44, 63
2, 35819, Control_c, 0, 64, 127
2, 35916, Note_on_c, 0, 51, 62
2, 36074, Note_on_c, 0, 67, 70
2, 36093, Note_on_c, 0, 56, 58
2, 36249, Note_on_c, 0, 65, 0
2, 36260, Note_on_c, 0, 65, 72
2, 36267, Note_on_c, 0, 58, 68
2, 36433, Note_on_c, 0, 60, 0
2, 36440, Note_on_c, 0, 60, 81
2, 36625, Note_on_c, 0, 56, 0
2, 36627, Note_on_c, 0, 63, 82
2, 36637, Note_on_c, 0, 56, 62
2, 36787, Note_on_c, 0, 44, 0
2, 36796, Note_on_c, 0, 44, 74
2, 36963, Note_on_c, 0, 65, 0
2, 36975, Note_on_c, 0, 65, 76
2, 36979, Note_on_c, 0, 51, 0
2, 36986, Note_on_c, 0, 51, 65
2, 37150, Control_c, 0, 64, 0
2, 37153, Note_on_c, 0, 58, 0
2, 37154, Note_on_c, 0, 72, 0
2, 37154, Note_on_c, 0, 67, 0
2, 37155, Note_on_c, 0, 56, 0
2, 37155, Note_on_c, 0, 51, 0
2, 37155, Note_on_c, 0, 44, 0
2, 37155, Note_on_c, 0, 60, 0
2, 37156, Note_on_c, 0, 46, 71
2, 37171, Note_on_c, 0, 63, 0
2, 37294, Control_c, 0, 64, 127
2, 37338, Note_on_c, 0, 69, 76
2, 37361, Note_on_c, 0, 60, 64
2, 37529, Note_on_c, 0, 70, 79
2, 37719, Note_on_c, 0, 53, 67
2, 37879, Note_on_c, 0, 48, 80
2, 37895, Control_c, 0, 64, 0
2, 37913, Note_on_c, 0, 69, 0
2, 37915, Note_on_c, 0, 46, 0
2, 37969, Control_c, 0, 64, 127
2, 38061, Note_on_c, 0, 69, 78
2, 38238, Note_on_c, 0, 70, 0
2, 38248, Note_on_c, 0, 70, 85
2, 38451, Note_on_c, 0, 55, 61
2, 38484, Note_on_c, 0, 60, 0
2, 38495, Note_on_c, 0, 60, 61
2, 38545, Note_on_c, 0, 65, 0
2, 38552, Note_on_c, 0, 65, 59
2, 38559, Note_on_c, 0, 67, 69
2, 38584, Control_c, 0, 64, 0
2, 38608, Note_on_c, 0, 48, 0
2, 38615, Note_on_c, 0, 53, 0
2, 38619, Note_on_c, 0, 69, 0
2, 38622, Note_on_c, 0, 70, 0
2, 38631, Note_on_c, 0, 46, 70
2, 38633, Note_on_c, 0, 72, 83
2, 38707, Control_c, 0, 64, 127
2, 39010, Note_on_c, 0, 53, 52
2, 39045, Note_on_c, 0, 55, 0
2, 39167, Note_on_c, 0, 84, 63
2, 39211, Note_on_c, 0, 58, 41
2, 39360, Note_on_c, 0, 60, 0
2, 39364, Note_on_c, 0, 60, 63
2, 39367, Note_on_c, 0, 72, 0
2, 39370, Note_on_c, 0, 81, 67
2, 39371, Note_on_c, 0, 72, 62
2, 39552, Note_on_c, 0, 72, 0
2, 39555, Note_on_c, 0, 82, 59
2, 39561, Note_on_c, 0, 72, 44
2, 39755, Note_on_c, 0, 77, 45
2, 39912, Note_on_c, 0, 72, 0
2, 39919, Note_on_c, 0, 72, 54
2, 39928, Note_on_c, 0, 53, 0
2, 39936, Note_on_c, 0, 53, 40
2, 40089, Note_on_c, 0, 46, 0
2, 40099, Note_on_c, 0, 46, 60
2, 40465, Note_on_c, 0, 53, 0
2, 40476, Note_on_c, 0, 53, 52
2, 40657, Note_on_c, 0, 84, 0
2, 40666, Note_on_c, 0, 84, 54
2, 40842, Note_on_c, 0, 60, 0
2, 40842, Note_on_c, 0, 81, 0
2, 40846, Note_on_c, 0, 81, 66
2, 40846, Note_on_c, 0, 60, 60
2, 40849, Note_on_c, 0, 58, 0
2, 40854, Note_on_c, 0, 58, 50
2, 41018, Note_on_c, 0, 82, 0
2, 41023, Note_on_c, 0, 82, 65
2, 41218, Note_on_c, 0, 77, 0
2, 41223, Note_on_c, 0, 77, 50
2, 41387, Note_on_c, 0, 72, 0
2, 41391, Note_on_c, 0, 72, 52
2, 41418, Note_on_c, 0, 53, 0
2, 41429, Note_on_c, 0, 53, 30
2, 41571, Note_on_c, 0, 46, 0
2, 41576, Note_on_c, 0, 46, 53
2, 41955, Note_on_c, 0, 53, 0
2, 41960, Note_on_c, 0, 53, 51
2, 42132, Note_on_c, 0, 84, 0
2, 42142, Note_on_c, 0, 84, 53
2, 42316, Note_on_c, 0, 58, 0
2, 42324, Note_on_c, 0, 60, 0
2, 42327, Note_on_c, 0, 58, 53
2, 42328, Note_on_c, 0, 60, 53
2, 42332, Note_on_c, 0, 81, 0
2, 42336, Note_on_c, 0, 81, 59
2, 42501, Note_on_c, 0, 82, 0
2, 42505, Note_on_c, 0, 82, 70
2, 42677, Note_on_c, 0, 77, 0
2, 42682, Note_on_c, 0, 77, 59
2, 42854, Note_on_c, 0, 72, 0
2, 42860, Note_on_c, 0, 72, 53
2, 43015, Note_on_c, 0, 77, 0
2, 43020, Note_on_c, 0, 77, 52
2, 43046, Note_on_c, 0, 46, 0
2, 43046, Note_on_c, 0, 84, 0
2, 43054, Note_on_c, 0, 60, 0
2, 43056, Note_on_c, 0, 84, 63
2, 43057, Note_on_c, 0, 46, 51
2, 43059, Note_on_c, 0, 60, 50
2, 43061, Note_on_c, 0, 53, 0
2, 43065, Note_on_c, 0, 53, 46
2, 43161, Note_on_c, 0, 65, 0
2, 43169, Note_on_c, 0, 67, 0
2, 43776, Note_on_c, 0, 48, 62
2, 43803, Note_on_c, 0, 53, 0
2, 43803, Note_on_c, 0, 46, 0
2, 43804, Note_on_c, 0, 82, 0
2, 43804, Note_on_c, 0, 72, 0
2, 43805, Note_on_c, 0, 84, 0
2, 43806, Note_on_c, 0, 81, 0
2, 43808, Note_on_c, 0, 77, 0
2, 43811, Control_c, 0, 64, 0
2, 43812, Note_on_c, 0, 52, 65
2, 43818, Note_on_c, 0, 55, 73
2, 43822, Note_on_c, 0, 58, 0
2, 43837, Note_on_c, 0, 60, 0
2, 43841, Note_on_c, 0, 60, 87
2, 44014, Control_c, 0, 64, 127
2, 44043, Note_on_c, 0, 69, 88
2, 44048, Note_on_c, 0, 60, 0
2, 44052, Note_on_c, 0, 48, 0
2, 44056, Control_c, 0, 64, 0
2, 44060, Note_on_c, 0, 55, 0
2, 44063, Note_on_c, 0, 52, 0
2, 44410, Note_on_c, 0, 68, 82
2, 44434, Note_on_c, 0, 69, 0
2, 44611, Note_on_c, 0, 69, 80
2, 44625, Note_on_c, 0, 42, 66
2, 44627, Note_on_c, 0, 64, 68
2, 44633, Note_on_c, 0, 52, 64
2, 44634, Note_on_c, 0, 61, 63
2, 44643, Note_on_c, 0, 57, 55
2, 44651, Note_on_c, 0, 68, 0
2, 44682, Control_c, 0, 64, 127
2, 44974, Note_on_c, 0, 64, 0
2, 44984, Note_on_c, 0, 64, 74
2, 45033, Control_c, 0, 64, 0
2, 45050, Control_c, 0, 64, 127
2, 45191, Note_on_c, 0, 62, 75
2, 45358, Note_on_c, 0, 52, 0
2, 45358, Note_on_c, 0, 57, 0
2, 45363, Note_on_c, 0, 52, 50
2, 45368, Note_on_c, 0, 49, 57
2, 45369, Note_on_c, 0, 57, 59
2, 45542, Note_on_c, 0, 69, 0
2, 45548, Note_on_c, 0, 69, 80
2, 45550, Note_on_c, 0, 64, 0
2, 45559, Note_on_c, 0, 64, 58
2, 45565, Note_on_c, 0, 52, 0
2, 45565, Note_on_c, 0, 61, 0
2, 45569, Control_c, 0, 64, 0
2, 45571, Note_on_c, 0, 61, 62
2, 45573, Note_on_c, 0, 57, 0
2, 45575, Note_on_c, 0, 52, 48
2, 45578, Note_on_c, 0, 57, 52
2, 45603, Control_c, 0, 64, 127
2, 45726, Note_on_c, 0, 42, 0
2, 45736, Note_on_c, 0, 42, 68
2, 45912, Note_on_c, 0, 71, 81
2, 45925, Note_on_c, 0, 74, 66
2, 45934, Note_on_c, 0, 62, 0
2, 45938, Note_on_c, 0, 66, 66
2, 45939, Note_on_c, 0, 62, 66
2, 46052, Note_on_c, 0, 52, 0
2, 46053, Note_on_c, 0, 69, 0
2, 46053, Note_on_c, 0, 42, 0
2, 46053, Note_on_c, 0, 57, 0
2, 46054, Note_on_c, 0, 49, 0
2, 46054, Control_c, 0, 64, 0
2, 46057, Note_on_c, 0, 61, 0
2, 46072, Note_on_c, 0, 64, 0
2, 46095, Control_c, 0, 64, 127
2, 46106, Note_on_c, 0, 38, 73
2, 46106, Note_on_c, 0, 50, 66
2, 46289, Note_on_c, 0, 73, 86
2, 46302, Note_on_c, 0, 66, 0
2, 46309, Note_on_c, 0, 66, 50
2, 46311, Note_on_c, 0, 69, 56
2, 46335, Control_c, 0, 64, 0
2, 46394, Control_c, 0, 64, 127
2, 46679, Note_on_c, 0, 50, 0
2, 46682, Note_on_c, 0, 50, 64
2, 46873, Note_on_c, 0, 57, 72
2, 46874, Note_on_c, 0, 61, 68
2, 46878, Note_on_c, 0, 54, 63
2, 46886, Note_on_c, 0, 74, 0
2, 47032, Note_on_c, 0, 69, 0
2, 47037, Note_on_c, 0, 69, 85
2, 47224, Note_on_c, 0, 50, 0
2, 47230, Note_on_c, 0, 50, 77
2, 47408, Note_on_c, 0, 68, 83
2, 47592, Note_on_c, 0, 69, 0
2, 47595, Control_c, 0, 64, 0
2, 47596, Note_on_c, 0, 57, 0
2, 47596, Note_on_c, 0, 68, 0
2, 47596, Note_on_c, 0, 50, 0
2, 47596, Note_on_c, 0, 61, 0
2, 47596, Note_on_c, 0, 54, 0
2, 47596, Note_on_c, 0, 73, 0
2, 47598, Note_on_c, 0, 38, 0
2, 47600, Note_on_c, 0, 71, 0
2, 47603, Note_on_c, 0, 69, 75
2, 47608, Note_on_c, 0, 62, 0
2, 47608, Note_on_c, 0, 66, 0
2, 47614, Note_on_c, 0, 40, 73
2, 47616, Note_on_c, 0, 59, 69
2, 47619, Note_on_c, 0, 64, 65
2, 47619, Note_on_c, 0, 52, 70
2, 47746, Control_c, 0, 64, 127
2, 47984, Note_on_c, 0, 64, 0
2, 47992, Note_on_c, 0, 64, 71
2, 48184, Note_on_c, 0, 62, 76
2, 48353, Note_on_c, 0, 59, 0
2, 48357, Note_on_c, 0, 59, 68
2, 48358, Note_on_c, 0, 56, 57
2, 48545, Note_on_c, 0, 69, 0
2, 48554, Note_on_c, 0, 69, 79
2, 48721, Note_on_c, 0, 52, 0
2, 48731, Note_on_c, 0, 52, 64
2, 48932, Note_on_c, 0, 71, 81
2, 48944, Note_on_c, 0, 64, 0
2, 48944, Note_on_c, 0, 69, 0
2, 48949, Note_on_c, 0, 69, 75
2, 48951, Note_on_c, 0, 64, 69
2, 49044, Note_on_c, 0, 40, 0
2, 49102, Note_on_c, 0, 45, 72
2, 49110, Control_c, 0, 64, 0
2, 49136, Note_on_c, 0, 59, 0
2, 49144, Note_on_c, 0, 56, 0
2, 49159, Control_c, 0, 64, 127
2, 49167, Note_on_c, 0, 62, 0
2, 49304, Note_on_c, 0, 73, 78
2, 49482, Note_on_c, 0, 69, 0
2, 49489, Note_on_c, 0, 69, 78
2, 49674, Note_on_c, 0, 52, 0
2, 49681, Note_on_c, 0, 52, 52
2, 49854, Note_on_c, 0, 61, 68
2, 50027, Note_on_c, 0, 45, 0
2, 50027, Note_on_c, 0, 69, 0
2, 50033, Note_on_c, 0, 69, 77
2, 50035, Note_on_c, 0, 61, 0
2, 50038, Note_on_c, 0, 45, 64
2, 50043, Note_on_c, 0, 61, 62
2, 50048, Note_on_c, 0, 57, 63
2, 50074, Note_on_c, 0, 73, 0
2, 50104, Note_on_c, 0, 71, 0
2, 50205, Note_on_c, 0, 44, 73
2, 50393, Note_on_c, 0, 68, 75
2, 50393, Note_on_c, 0, 59, 73
2, 50403, Note_on_c, 0, 45, 0
2, 50408, Note_on_c, 0, 45, 60
2, 50411, Note_on_c, 0, 52, 0
2, 50416, Note_on_c, 0, 52, 58
2, 50580, Note_on_c, 0, 69, 0
2, 50588, Note_on_c, 0, 52, 0
2, 50588, Note_on_c, 0, 57, 0
2, 50591, Note_on_c, 0, 69, 78
2, 50593, Note_on_c, 0, 42, 73
2, 50597, Note_on_c, 0, 57, 75
2, 50598, Control_c, 0, 64, 0
2, 50598, Note_on_c, 0, 52, 54
2, 50608, Note_on_c, 0, 59, 0
2, 50608, Note_on_c, 0, 68, 0
2, 50610, Note_on_c, 0, 44, 0
2, 50611, Note_on_c, 0, 64, 0
2, 50634, Note_on_c, 0, 45, 0
2, 50680, Note_on_c, 0, 61, 0
2, 50718, Control_c, 0, 64, 127
2, 50973, Note_on_c, 0, 64, 72
2, 51155, Note_on_c, 0, 62, 73
2, 51168, Note_on_c, 0, 49, 54
2, 51333, Note_on_c, 0, 52, 0
2, 51333, Note_on_c, 0, 57, 0
2, 51337, Note_on_c, 0, 52, 64
2, 51343, Note_on_c, 0, 57, 69
2, 51509, Note_on_c, 0, 69, 0
2, 51514, Note_on_c, 0, 69, 80
2, 51517, Note_on_c, 0, 64, 0
2, 51522, Note_on_c, 0, 64, 64
2, 51525, Note_on_c, 0, 52, 0
2, 51529, Note_on_c, 0, 52, 49
2, 51532, Note_on_c, 0, 61, 63
2, 51694, Note_on_c, 0, 42, 0
2, 51701, Note_on_c, 0, 57, 0
2, 51703, Note_on_c, 0, 42, 66
2, 51707, Note_on_c, 0, 57, 51
2, 51712, Note_on_c, 0, 54, 41
2, 51717, Note_on_c, 0, 54, 0
2, 51891, Note_on_c, 0, 71, 80
2, 51901, Note_on_c, 0, 57, 0
2, 51901, Note_on_c, 0, 64, 0
2, 51907, Note_on_c, 0, 66, 72
2, 51908, Note_on_c, 0, 64, 67
2, 51911, Note_on_c, 0, 57, 57
2, 51955, Control_c, 0, 64, 0
2, 52025, Note_on_c, 0, 69, 0
2, 52027, Note_on_c, 0, 42, 0
2, 52027, Note_on_c, 0, 52, 0
2, 52028, Note_on_c, 0, 61, 0
2, 52028, Note_on_c, 0, 49, 0
2, 52078, Control_c, 0, 64, 127
2, 52081, Note_on_c, 0, 38, 72
2, 52081, Note_on_c, 0, 50, 66
2, 52264, Note_on_c, 0, 73, 83
2, 52274, Note_on_c, 0, 69, 62
2, 52277, Note_on_c, 0, 66, 0
2, 52289, Note_on_c, 0, 66, 48
2, 52527, Note_on_c, 0, 74, 52
2, 52538, Note_on_c, 0, 74, 0
2, 52615, Note_on_c, 0, 50, 0
2, 52619, Note_on_c, 0, 50, 63
2, 52800, Note_on_c, 0, 69, 0
2, 52809, Note_on_c, 0, 69, 78
2, 52814, Note_on_c, 0, 61, 63
2, 52819, Note_on_c, 0, 54, 61
2, 52823, Note_on_c, 0, 57, 0
2, 52827, Note_on_c, 0, 57, 62
2, 52838, Control_c, 0, 64, 0
2, 52892, Control_c, 0, 64, 127
2, 52992, Note_on_c, 0, 71, 0
2, 52999, Note_on_c, 0, 71, 75
2, 53184, Note_on_c, 0, 50, 0
2, 53189, Note_on_c, 0, 50, 67
2, 53352, Note_on_c, 0, 69, 0
2, 53357, Note_on_c, 0, 69, 81
2, 53376, Note_on_c, 0, 62, 0
2, 53376, Note_on_c, 0, 64, 0
2, 53382, Note_on_c, 0, 64, 68
2, 53384, Note_on_c, 0, 62, 62
2, 53519, Control_c, 0, 64, 0
2, 53526, Note_on_c, 0, 66, 0
2, 53526, Note_on_c, 0, 54, 0
2, 53526, Note_on_c, 0, 71, 0
2, 53526, Note_on_c, 0, 57, 0
2, 53527, Note_on_c, 0, 64, 0
2, 53527, Note_on_c, 0, 61, 0
2, 53527, Note_on_c, 0, 62, 0
2, 53528, Note_on_c, 0, 73, 0
2, 53529, Note_on_c, 0, 38, 0
2, 53544, Note_on_c, 0, 50, 0
2, 53556, Note_on_c, 0, 40, 74
2, 53559, Note_on_c, 0, 52, 70
2, 53644, Control_c, 0, 64, 127
2, 53713, Note_on_c, 0, 52, 0
2, 53716, Note_on_c, 0, 62, 74
2, 53719, Note_on_c, 0, 52, 59
2, 54092, Note_on_c, 0, 61, 75
2, 54255, Note_on_c, 0, 59, 68
2, 54268, Note_on_c, 0, 56, 54
2, 54458, Note_on_c, 0, 59, 0
2, 54463, Note_on_c, 0, 59, 68
2, 54650, Note_on_c, 0, 40, 0
2, 54656, Note_on_c, 0, 40, 63
2, 54819, Note_on_c, 0, 59, 0
2, 54830, Note_on_c, 0, 59, 65
2, 55011, Note_on_c, 0, 45, 74
2, 55021, Control_c, 0, 64, 0
2, 55027, Note_on_c, 0, 56, 0
2, 55028, Note_on_c, 0, 61, 0
2, 55029, Note_on_c, 0, 62, 0
2, 55029, Note_on_c, 0, 52, 0
2, 55030, Note_on_c, 0, 40, 0
2, 55034, Note_on_c, 0, 69, 0
2, 55157, Control_c, 0, 64, 127
2, 55199, Note_on_c, 0, 57, 75
2, 55372, Note_on_c, 0, 57, 0
2, 55380, Note_on_c, 0, 57, 72
2, 55559, Note_on_c, 0, 52, 63
2, 55733, Note_on_c, 0, 57, 0
2, 55737, Note_on_c, 0, 57, 79
2, 55906, Note_on_c, 0, 69, 91
2, 55918, Note_on_c, 0, 52, 0
2, 55923, Note_on_c, 0, 61, 80
2, 55925, Note_on_c, 0, 45, 0
2, 55928, Note_on_c, 0, 52, 77
2, 55933, Note_on_c, 0, 45, 68
2, 56079, Note_on_c, 0, 45, 0
2, 56086, Note_on_c, 0, 45, 81
2, 56263, Note_on_c, 0, 52, 0
2, 56263, Note_on_c, 0, 59, 0
2, 56271, Note_on_c, 0, 68, 92
2, 56271, Note_on_c, 0, 52, 79
2, 56274, Note_on_c, 0, 59, 81
2, 56478, Note_on_c, 0, 69, 0
2, 56489, Note_on_c, 0, 69, 90
2, 56489, Note_on_c, 0, 45, 0
2, 56489, Control_c, 0, 64, 0
2, 56490, Note_on_c, 0, 68, 0
2, 56490, Note_on_c, 0, 52, 0
2, 56490, Note_on_c, 0, 59, 0
2, 56491, Note_on_c, 0, 30, 83
2, 56491, Note_on_c, 0, 42, 84
2, 56494, Note_on_c, 0, 57, 0
2, 56494, Note_on_c, 0, 61, 0
2, 56500, Note_on_c, 0, 57, 84
2, 56500, Note_on_c, 0, 61, 79
2, 56616, Control_c, 0, 64, 127
2, 56863, Note_on_c, 0, 64, 75
2, 57039, Note_on_c, 0, 30, 0
2, 57039, Note_on_c, 0, 42, 0
2, 57044, Note_on_c, 0, 62, 83
2, 57047, Note_on_c, 0, 30, 69
2, 57049, Note_on_c, 0, 42, 74
2, 57223, Note_on_c, 0, 57, 0
2, 57234, Note_on_c, 0, 57, 78
2, 57239, Note_on_c, 0, 52, 64
2, 57241, Note_on_c, 0, 49, 70
2, 57408, Note_on_c, 0, 64, 0
2, 57408, Note_on_c, 0, 69, 0
2, 57413, Note_on_c, 0, 69, 88
2, 57416, Note_on_c, 0, 64, 82
2, 57431, Note_on_c, 0, 61, 0
2, 57441, Note_on_c, 0, 61, 62
2, 57592, Note_on_c, 0, 30, 0
2, 57592, Note_on_c, 0, 42, 0
2, 57598, Note_on_c, 0, 42, 78
2, 57600, Note_on_c, 0, 30, 68
2, 57771, Note_on_c, 0, 71, 92
2, 57776, Note_on_c, 0, 62, 0
2, 57779, Note_on_c, 0, 74, 78
2, 57782, Note_on_c, 0, 62, 80
2, 57785, Note_on_c, 0, 66, 76
2, 57931, Note_on_c, 0, 49, 0
2, 57933, Note_on_c, 0, 42, 0
2, 57933, Note_on_c, 0, 61, 0
2, 57935, Note_on_c, 0, 69, 0
2, 57936, Note_on_c, 0, 30, 0
2, 57937, Note_on_c, 0, 52, 0
2, 57939, Control_c, 0, 64, 0
2, 57945, Note_on_c, 0, 57, 0
2, 57951, Note_on_c, 0, 26, 83
2, 57953, Note_on_c, 0, 64, 0
2, 57954, Note_on_c, 0, 38, 83
2, 57984, Control_c, 0, 64, 127
2, 58170, Note_on_c, 0, 73, 95
2, 58176, Note_on_c, 0, 69, 74
2, 58191, Control_c, 0, 64, 0
2, 58275, Control_c, 0, 64, 127
2, 58535, Note_on_c, 0, 50, 69
2, 58632, Note_on_c, 0, 54, 72
2, 58714, Note_on_c, 0, 61, 88
2, 58717, Note_on_c, 0, 57, 82
2, 58890, Note_on_c, 0, 69, 0
2, 58901, Note_on_c, 0, 69, 91
2, 59059, Note_on_c, 0, 38, 0
2, 59068, Note_on_c, 0, 38, 76
2, 59256, Note_on_c, 0, 68, 89
2, 59260, Note_on_c, 0, 45, 81
2, 59266, Note_on_c, 0, 61, 0
2, 59276, Note_on_c, 0, 61, 59
2, 59439, Control_c, 0, 64, 0
2, 59445, Note_on_c, 0, 45, 0
2, 59446, Note_on_c, 0, 68, 0
2, 59446, Note_on_c, 0, 61, 0
2, 59446, Note_on_c, 0, 54, 0
2, 59446, Note_on_c, 0, 57, 0
2, 59446, Note_on_c, 0, 38, 0
2, 59446, Note_on_c, 0, 26, 0
2, 59447, Note_on_c, 0, 50, 0
2, 59447, Note_on_c, 0, 73, 0
2, 59458, Note_on_c, 0, 69, 0
2, 59465, Note_on_c, 0, 69, 83
2, 59466, Note_on_c, 0, 62, 0
2, 59466, Note_on_c, 0, 66, 0
2, 59466, Note_on_c, 0, 71, 0
2, 59466, Note_on_c, 0, 74, 0
2, 59469, Note_on_c, 0, 40, 86
2, 59471, Note_on_c, 0, 28, 82
2, 59477, Note_on_c, 0, 59, 82
2, 59477, Note_on_c, 0, 64, 70
2, 59604, Control_c, 0, 64, 127
2, 59673, Note_on_c, 0, 28, 0
2, 59834, Note_on_c, 0, 64, 0
2, 59839, Note_on_c, 0, 64, 71
2, 60032, Note_on_c, 0, 62, 82
2, 60036, Note_on_c, 0, 52, 69
2, 60195, Note_on_c, 0, 59, 0
2, 60206, Note_on_c, 0, 56, 79
2, 60206, Note_on_c, 0, 59, 85
2, 60387, Note_on_c, 0, 69, 0
2, 60392, Note_on_c, 0, 69, 83
2, 60403, Note_on_c, 0, 64, 0
2, 60411, Note_on_c, 0, 64, 73
2, 60572, Note_on_c, 0, 40, 0
2, 60578, Note_on_c, 0, 40, 81
2, 60759, Note_on_c, 0, 71, 86
2, 60764, Note_on_c, 0, 64, 0
2, 60764, Note_on_c, 0, 69, 0
2, 60769, Note_on_c, 0, 69, 85
2, 60774, Note_on_c, 0, 64, 78
2, 60874, Control_c, 0, 64, 0
2, 60875, Note_on_c, 0, 40, 0
2, 60875, Note_on_c, 0, 62, 0
2, 60875, Note_on_c, 0, 56, 0
2, 60876, Note_on_c, 0, 52, 0
2, 60894, Note_on_c, 0, 59, 0
2, 60935, Note_on_c, 0, 45, 81
2, 60935, Note_on_c, 0, 33, 80
2, 60994, Control_c, 0, 64, 127
2, 61123, Note_on_c, 0, 73, 90
2, 61301, Note_on_c, 0, 33, 0
2, 61301, Note_on_c, 0, 69, 0
2, 61309, Note_on_c, 0, 69, 88
2, 61312, Note_on_c, 0, 33, 71
2, 61478, Note_on_c, 0, 45, 0
2, 61482, Note_on_c, 0, 45, 75
2, 61666, Note_on_c, 0, 61, 84
2, 61847, Note_on_c, 0, 45, 0
2, 61847, Note_on_c, 0, 69, 0
2, 61850, Note_on_c, 0, 45, 76
2, 61855, Note_on_c, 0, 69, 91
2, 62025, Note_on_c, 0, 44, 86
2, 62209, Note_on_c, 0, 68, 90
2, 62229, Note_on_c, 0, 52, 71
2, 62407, Note_on_c, 0, 69, 0
2, 62411, Note_on_c, 0, 42, 83
2, 62412, Note_on_c, 0, 69, 85
2, 62415, Note_on_c, 0, 61, 0
2, 62418, Note_on_c, 0, 57, 84
2, 62425, Note_on_c, 0, 61, 77
2, 62429, Control_c, 0, 64, 0
2, 62434, Note_on_c, 0, 33, 0
2, 62434, Note_on_c, 0, 68, 0
2, 62435, Note_on_c, 0, 45, 0
2, 62435, Note_on_c, 0, 73, 0
2, 62442, Note_on_c, 0, 44, 0
2, 62461, Note_on_c, 0, 52, 0
2, 62461, Note_on_c, 0, 64, 0
2, 62461, Note_on_c, 0, 71, 0
2, 62576, Control_c, 0, 64, 127
2, 62783, Note_on_c, 0, 64, 80
2, 62970, Note_on_c, 0, 62, 83
2, 62972, Note_on_c, 0, 49, 66
2, 63144, Note_on_c, 0, 57, 0
2, 63156, Note_on_c, 0, 57, 75
2, 63163, Note_on_c, 0, 52, 65
2, 63313, Note_on_c, 0, 69, 0
2, 63321, Note_on_c, 0, 64, 0
2, 63322, Note_on_c, 0, 69, 85
2, 63327, Note_on_c, 0, 64, 76
2, 63336, Note_on_c, 0, 61, 0
2, 63341, Note_on_c, 0, 61, 74
2, 63505, Note_on_c, 0, 42, 0
2, 63505, Note_on_c, 0, 57, 0
2, 63513, Note_on_c, 0, 42, 75
2, 63514, Note_on_c, 0, 57, 59
2, 63692, Note_on_c, 0, 71, 86
2, 63705, Note_on_c, 0, 62, 0
2, 63711, Note_on_c, 0, 62, 77
2, 63712, Note_on_c, 0, 66, 70
2, 63787, Note_on_c, 0, 61, 0
2, 63788, Note_on_c, 0, 57, 0
2, 63790, Note_on_c, 0, 64, 0
2, 63791, Note_on_c, 0, 69, 0
2, 63793, Note_on_c, 0, 52, 0
2, 63793, Note_on_c, 0, 42, 0
2, 63793, Note_on_c, 0, 49, 0
2, 63866, Control_c, 0, 64, 0
2, 63896, Note_on_c, 0, 50, 71
2, 63897, Note_on_c, 0, 38, 75
2, 63974, Control_c, 0, 64, 127
2, 64085, Note_on_c, 0, 73, 89
2, 64094, Note_on_c, 0, 69, 70
2, 64450, Note_on_c, 0, 50, 0
2, 64456, Note_on_c, 0, 50, 73
2, 64642, Note_on_c, 0, 69, 0
2, 64653, Note_on_c, 0, 69, 88
2, 64654, Note_on_c, 0, 61, 73
2, 64674, Note_on_c, 0, 54, 66
2, 64677, Note_on_c, 0, 57, 60
2, 64691, Control_c, 0, 64, 0
2, 64750, Note_on_c, 0, 71, 0
2, 64765, Control_c, 0, 64, 127
2, 64844, Note_on_c, 0, 71, 75
2, 64865, Note_on_c, 0, 57, 0
2, 64870, Note_on_c, 0, 57, 46
2, 64880, Note_on_c, 0, 38, 0
2, 65018, Note_on_c, 0, 50, 0
2, 65023, Note_on_c, 0, 50, 71
2, 65210, Note_on_c, 0, 69, 0
2, 65216, Note_on_c, 0, 69, 75
2, 65226, Note_on_c, 0, 62, 0
2, 65232, Note_on_c, 0, 62, 67
2, 65239, Note_on_c, 0, 64, 66
2, 65377, Control_c, 0, 64, 0
2, 65379, Note_on_c, 0, 66, 0
2, 65382, Note_on_c, 0, 40, 74
2, 65383, Note_on_c, 0, 52, 70
2, 65388, Note_on_c, 0, 62, 0
2, 65388, Note_on_c, 0, 57, 0
2, 65388, Note_on_c, 0, 71, 0
2, 65389, Note_on_c, 0, 64, 0
2, 65389, Note_on_c, 0, 61, 0
2, 65390, Note_on_c, 0, 50, 0
2, 65390, Note_on_c, 0, 54, 0
2, 65391, Note_on_c, 0, 73, 0
2, 65533, Control_c, 0, 64, 127
2, 65604, Note_on_c, 0, 62, 71
2, 65986, Note_on_c, 0, 61, 65
2, 66155, Note_on_c, 0, 47, 53
2, 66158, Note_on_c, 0, 56, 49
2, 66197, Control_c, 0, 64, 0
2, 66201, Note_on_c, 0, 69, 0
2, 66209, Note_on_c, 0, 52, 0
2, 66212, Note_on_c, 0, 62, 0
2, 66324, Control_c, 0, 64, 127
2, 66350, Note_on_c, 0, 59, 64
2, 66716, Note_on_c, 0, 59, 0
2, 66720, Note_on_c, 0, 59, 60
2, 66909, Control_c, 0, 64, 0
2, 66916, Note_on_c, 0, 45, 56
2, 66925, Note_on_c, 0, 61, 0
2, 66926, Note_on_c, 0, 40, 0
2, 66926, Note_on_c, 0, 47, 0
2, 66927, Note_on_c, 0, 56, 0
2, 67077, Control_c, 0, 64, 127
2, 67107, Note_on_c, 0, 57, 55
2, 67299, Note_on_c, 0, 57, 0
2, 67307, Note_on_c, 0, 57, 48
2, 67510, Note_on_c, 0, 52, 36
2, 67642, Control_c, 0, 64, 0
2, 67653, Control_c, 0, 64, 127
2, 68636, Note_on_c, 0, 59, 0
2, 68643, Note_on_c, 0, 46, 36
2, 68679, Note_on_c, 0, 53, 34
2, 68687, Note_on_c, 0, 58, 46
2, 68739, Note_on_c, 0, 45, 0
2, 68740, Note_on_c, 0, 57, 0
2, 68740, Note_on_c, 0, 52, 0
2, 68741, Note_on_c, 0, 60, 52
2, 68773, Control_c, 0, 64, 0
2, 68773, Note_on_c, 0, 77, 59
2, 68807, Note_on_c, 0, 84, 72
2, 68889, Control_c, 0, 64, 127
2, 69169, Note_on_c, 0, 79, 60
2, 69175, Note_on_c, 0, 72, 44
2, 69356, Note_on_c, 0, 65, 54
2, 69358, Note_on_c, 0, 72, 0
2, 69358, Note_on_c, 0, 77, 0
2, 69361, Note_on_c, 0, 67, 60
2, 69362, Note_on_c, 0, 72, 68
2, 69369, Note_on_c, 0, 77, 67
2, 69726, Note_on_c, 0, 84, 0
2, 69736, Note_on_c, 0, 84, 82
2, 69903, Note_on_c, 0, 58, 0
2, 69912, Note_on_c, 0, 58, 63
2, 69926, Note_on_c, 0, 53, 0
2, 69937, Note_on_c, 0, 53, 46
2, 70087, Note_on_c, 0, 46, 0
2, 70094, Note_on_c, 0, 46, 51
2, 70225, Note_on_c, 0, 72, 0
2, 70235, Note_on_c, 0, 72, 58
2, 70248, Note_on_c, 0, 77, 0
2, 70254, Note_on_c, 0, 75, 50
2, 70255, Note_on_c, 0, 77, 59
2, 70264, Note_on_c, 0, 75, 0
2, 70281, Note_on_c, 0, 48, 52
2, 70287, Note_on_c, 0, 60, 0
2, 70292, Note_on_c, 0, 60, 54
2, 70297, Note_on_c, 0, 67, 0
2, 70302, Note_on_c, 0, 84, 0
2, 70306, Control_c, 0, 64, 0
2, 70306, Note_on_c, 0, 84, 74
2, 70307, Note_on_c, 0, 46, 0
2, 70307, Note_on_c, 0, 55, 48
2, 70309, Note_on_c, 0, 53, 0
2, 70310, Note_on_c, 0, 72, 0
2, 70314, Note_on_c, 0, 72, 57
2, 70318, Note_on_c, 0, 65, 0
2, 70325, Note_on_c, 0, 58, 0
2, 70387, Control_c, 0, 64, 127
2, 70663, Note_on_c, 0, 77, 0
2, 70671, Note_on_c, 0, 72, 0
2, 70671, Note_on_c, 0, 79, 0
2, 70678, Note_on_c, 0, 79, 62
2, 70682, Note_on_c, 0, 72, 47
2, 70868, Note_on_c, 0, 65, 55
2, 70871, Note_on_c, 0, 72, 0
2, 70871, Note_on_c, 0, 77, 64
2, 70879, Note_on_c, 0, 72, 63
2, 70880, Note_on_c, 0, 67, 62
2, 70901, Control_c, 0, 64, 0
2, 70924, Control_c, 0, 64, 127
2, 71239, Note_on_c, 0, 84, 0
2, 71245, Note_on_c, 0, 84, 80
2, 71439, Note_on_c, 0, 55, 0
2, 71445, Note_on_c, 0, 55, 63
2, 71616, Note_on_c, 0, 48, 0
2, 71621, Note_on_c, 0, 48, 57
2, 71738, Note_on_c, 0, 72, 0
2, 71749, Note_on_c, 0, 72, 64
2, 71769, Note_on_c, 0, 77, 0
2, 71780, Note_on_c, 0, 77, 64
2, 71792, Note_on_c, 0, 55, 0
2, 71799, Note_on_c, 0, 55, 50
2, 71802, Note_on_c, 0, 48, 0
2, 71803, Note_on_c, 0, 65, 0
2, 71808, Note_on_c, 0, 84, 0
2, 71808, Note_on_c, 0, 45, 61
2, 71818, Note_on_c, 0, 84, 76
2, 71823, Note_on_c, 0, 60, 0
2, 71833, Control_c, 0, 64, 0
2, 71877, Control_c, 0, 64, 127
2, 72199, Note_on_c, 0, 72, 0
2, 72199, Note_on_c, 0, 79, 0
2, 72206, Note_on_c, 0, 79, 60
2, 72209, Note_on_c, 0, 72, 43
2, 72222, Note_on_c, 0, 67, 0
2, 72376, Note_on_c, 0, 77, 0
2, 72379, Note_on_c, 0, 67, 63
2, 72381, Note_on_c, 0, 77, 70
2, 72384, Note_on_c, 0, 72, 0
2, 72388, Note_on_c, 0, 72, 67
2, 72395, Note_on_c, 0, 64, 51
2, 72400, Note_on_c, 0, 60, 58
2, 72760, Note_on_c, 0, 84, 0
2, 72764, Note_on_c, 0, 84, 81
2, 72945, Note_on_c, 0, 52, 57
2, 73090, Note_on_c, 0, 45, 0
2, 73098, Note_on_c, 0, 45, 67
2, 73282, Note_on_c, 0, 72, 0
2, 73290, Note_on_c, 0, 77, 0
2, 73290, Note_on_c, 0, 72, 67
2, 73294, Note_on_c, 0, 77, 65
2, 73297, Control_c, 0, 64, 0
2, 73297, Note_on_c, 0, 84, 0
2, 73300, Note_on_c, 0, 64, 0
2, 73300, Note_on_c, 0, 52, 0
2, 73300, Note_on_c, 0, 67, 0
2, 73300, Note_on_c, 0, 60, 0
2, 73301, Note_on_c, 0, 41, 60
2, 73301, Note_on_c, 0, 45, 0
2, 73301, Note_on_c, 0, 79, 0
2, 73302, Note_on_c, 0, 84, 78
2, 73303, Note_on_c, 0, 55, 0
2, 73390, Control_c, 0, 64, 127
2, 73482, Note_on_c, 0, 48, 60
2, 73672, Note_on_c, 0, 53, 53
2, 73827, Note_on_c, 0, 77, 0
2, 73830, Note_on_c, 0, 55, 62
2, 73835, Note_on_c, 0, 77, 70
2, 74026, Note_on_c, 0, 76, 78
2, 74039, Note_on_c, 0, 60, 55
2, 74204, Note_on_c, 0, 72, 0
2, 74209, Note_on_c, 0, 72, 72
2, 74387, Note_on_c, 0, 67, 65
2, 74575, Note_on_c, 0, 65, 58
2, 74757, Note_on_c, 0, 72, 0
2, 74765, Note_on_c, 0, 72, 66
2, 74765, Note_on_c, 0, 46, 63
2, 74772, Note_on_c, 0, 60, 0
2, 74778, Note_on_c, 0, 60, 58
2, 74787, Note_on_c, 0, 84, 0
2, 74788, Control_c, 0, 64, 0
2, 74790, Note_on_c, 0, 41, 0
2, 74791, Note_on_c, 0, 67, 0
2, 74792, Note_on_c, 0, 53, 0
2, 74792, Note_on_c, 0, 65, 0
2, 74792, Note_on_c, 0, 48, 0
2, 74793, Note_on_c, 0, 76, 0
2, 74794, Note_on_c, 0, 55, 0
2, 74795, Note_on_c, 0, 77, 0
2, 74798, Note_on_c, 0, 84, 79
2, 74799, Note_on_c, 0, 77, 66
2, 74856, Control_c, 0, 64, 127
2, 74962, Note_on_c, 0, 53, 56
2, 75139, Note_on_c, 0, 79, 59
2, 75139, Note_on_c, 0, 58, 57
2, 75325, Note_on_c, 0, 72, 0
2, 75325, Note_on_c, 0, 77, 0
2, 75329, Note_on_c, 0, 62, 61
2, 75332, Note_on_c, 0, 65, 58
2, 75332, Note_on_c, 0, 77, 68
2, 75333, Note_on_c, 0, 72, 69
2, 75709, Note_on_c, 0, 84, 0
2, 75713, Note_on_c, 0, 84, 79
2, 75878, Note_on_c, 0, 58, 0
2, 75878, Note_on_c, 0, 60, 0
2, 75884, Note_on_c, 0, 58, 57
2, 75889, Note_on_c, 0, 60, 51
2, 76039, Note_on_c, 0, 46, 0
2, 76049, Note_on_c, 0, 46, 69
2, 76228, Note_on_c, 0, 48, 70
2, 76231, Note_on_c, 0, 77, 0
2, 76242, Note_on_c, 0, 77, 65
2, 76247, Note_on_c, 0, 84, 0
2, 76254, Note_on_c, 0, 72, 0
2, 76257, Note_on_c, 0, 84, 77
2, 76258, Note_on_c, 0, 46, 0
2, 76258, Control_c, 0, 64, 0
2, 76258, Note_on_c, 0, 53, 0
2, 76258, Note_on_c, 0, 72, 58
2, 76259, Note_on_c, 0, 58, 0
2, 76259, Note_on_c, 0, 65, 0
2, 76259, Note_on_c, 0, 79, 0
2, 76259, Note_on_c, 0, 62, 0
2, 76260, Note_on_c, 0, 60, 0
2, 76331, Control_c, 0, 64, 127
2, 76414, Note_on_c, 0, 55, 62
2, 76599, Note_on_c, 0, 60, 60
2, 76600, Note_on_c, 0, 72, 0
2, 76600, Note_on_c, 0, 79, 60
2, 76609, Note_on_c, 0, 72, 60
2, 76792, Note_on_c, 0, 72, 0
2, 76792, Note_on_c, 0, 77, 0
2, 76797, Note_on_c, 0, 77, 68
2, 76801, Note_on_c, 0, 62, 57
2, 76801, Note_on_c, 0, 72, 66
2, 76803, Note_on_c, 0, 65, 59
2, 77168, Note_on_c, 0, 72, 0
2, 77168, Note_on_c, 0, 84, 0
2, 77176, Note_on_c, 0, 84, 79
2, 77179, Note_on_c, 0, 72, 50
2, 77360, Note_on_c, 0, 55, 0
2, 77364, Note_on_c, 0, 55, 51
2, 77521, Note_on_c, 0, 48, 0
2, 77533, Note_on_c, 0, 48, 60
2, 77690, Note_on_c, 0, 72, 0
2, 77701, Note_on_c, 0, 72, 66
2, 77706, Note_on_c, 0, 77, 0
2, 77706, Note_on_c, 0, 84, 0
2, 77710, Note_on_c, 0, 77, 65
2, 77717, Note_on_c, 0, 84, 72
2, 77720, Note_on_c, 0, 50, 56
2, 77723, Control_c, 0, 64, 0
2, 77726, Note_on_c, 0, 65, 0
2, 77727, Note_on_c, 0, 79, 0
2, 77728, Note_on_c, 0, 62, 0
2, 77728, Note_on_c, 0, 48, 0
2, 77731, Note_on_c, 0, 55, 0
2, 77736, Note_on_c, 0, 60, 0
2, 77806, Control_c, 0, 64, 127
2, 77893, Note_on_c, 0, 57, 57
2, 78077, Note_on_c, 0, 60, 61
2, 78079, Note_on_c, 0, 79, 53
2, 78090, Note_on_c, 0, 79, 0
2, 78248, Note_on_c, 0, 65, 60
2, 78253, Note_on_c, 0, 62, 53
2, 78259, Note_on_c, 0, 72, 0
2, 78259, Note_on_c, 0, 77, 0
2, 78265, Note_on_c, 0, 77, 67
2, 78265, Note_on_c, 0, 72, 64
2, 78319, Control_c, 0, 64, 0
2, 78320, Note_on_c, 0, 50, 0
2, 78359, Control_c, 0, 64, 127
2, 78635, Note_on_c, 0, 84, 0
2, 78640, Note_on_c, 0, 84, 75
2, 78819, Note_on_c, 0, 57, 0
2, 78828, Note_on_c, 0, 57, 58
2, 79111, Note_on_c, 0, 72, 0
2, 79117, Note_on_c, 0, 72, 48
2, 79150, Note_on_c, 0, 77, 0
2, 79159, Note_on_c, 0, 77, 49
2, 79196, Note_on_c, 0, 65, 0
2, 79196, Note_on_c, 0, 84, 0
2, 79197, Note_on_c, 0, 50, 40
2, 79201, Note_on_c, 0, 84, 75
2, 79202, Note_on_c, 0, 65, 31
2, 79230, Note_on_c, 0, 53, 26
2, 79232, Note_on_c, 0, 62, 0
2, 79233, Note_on_c, 0, 60, 0
2, 79234, Note_on_c, 0, 53, 0
2, 79236, Control_c, 0, 64, 0
2, 79349, Control_c, 0, 64, 127
2, 79964, Note_on_c, 0, 72, 0
2, 79969, Note_on_c, 0, 48, 38
2, 79970, Note_on_c, 0, 72, 30
2, 79979, Note_on_c, 0, 50, 0
2, 79989, Control_c, 0, 64, 0
2, 80071, Control_c, 0, 64, 127
2, 80156, Note_on_c, 0, 84, 0
2, 80171, Note_on_c, 0, 48, 0
2, 80202, Note_on_c, 0, 57, 0
2, 80769, Control_c, 0, 64, 0
2, 80784, Note_on_c, 0, 46, 49
2, 80808, Note_on_c, 0, 77, 0
2, 80847, Control_c, 0, 64, 127
2, 80995, Note_on_c, 0, 53, 38
2, 81180, Note_on_c, 0, 58, 52
2, 81185, Note_on_c, 0, 69, 45
2, 81339, Note_on_c, 0, 70, 64
2, 81356, Note_on_c, 0, 60, 57
2, 81515, Note_on_c, 0, 72, 0
2, 81524, Note_on_c, 0, 72, 68
2, 81526, Note_on_c, 0, 62, 54
2, 81538, Note_on_c, 0, 65, 0
2, 81543, Note_on_c, 0, 65, 48
2, 81715, Note_on_c, 0, 60, 0
2, 81723, Note_on_c, 0, 60, 39
2, 81884, Note_on_c, 0, 70, 0
2, 81889, Note_on_c, 0, 70, 56
2, 81891, Note_on_c, 0, 58, 0
2, 81897, Note_on_c, 0, 58, 41
2, 82053, Note_on_c, 0, 72, 0
2, 82064, Note_on_c, 0, 72, 75
2, 82083, Note_on_c, 0, 53, 0
2, 82083, Note_on_c, 0, 62, 0
2, 82088, Note_on_c, 0, 53, 35
2, 82094, Note_on_c, 0, 62, 27
2, 82252, Note_on_c, 0, 72, 0
2, 82257, Note_on_c, 0, 69, 0
2, 82258, Note_on_c, 0, 58, 0
2, 82259, Note_on_c, 0, 72, 53
2, 82260, Note_on_c, 0, 46, 0
2, 82263, Note_on_c, 0, 48, 54
2, 82263, Control_c, 0, 64, 0
2, 82321, Control_c, 0, 64, 127
2, 82417, Note_on_c, 0, 55, 54
2, 82444, Note_on_c, 0, 69, 61
2, 82583, Note_on_c, 0, 60, 0
2, 82592, Note_on_c, 0, 60, 53
2, 82629, Note_on_c, 0, 67, 61
2, 82790, Note_on_c, 0, 65, 0
2, 82796, Note_on_c, 0, 65, 58
2, 82805, Note_on_c, 0, 62, 0
2, 82811, Note_on_c, 0, 62, 47
2, 82812, Note_on_c, 0, 69, 0
2, 82813, Note_on_c, 0, 70, 0
2, 82813, Note_on_c, 0, 67, 0
2, 82814, Note_on_c, 0, 72, 0
2, 82814, Note_on_c, 0, 55, 0
2, 82814, Note_on_c, 0, 60, 0
2, 82814, Control_c, 0, 64, 0
2, 82844, Note_on_c, 0, 53, 0
2, 82890, Control_c, 0, 64, 127
2, 83209, Note_on_c, 0, 55, 41
2, 83384, Note_on_c, 0, 64, 43
2, 83761, Note_on_c, 0, 45, 53
2, 83773, Control_c, 0, 64, 0
2, 83787, Note_on_c, 0, 62, 0
2, 83842, Control_c, 0, 64, 127
2, 83948, Note_on_c, 0, 52, 52
2, 84134, Note_on_c, 0, 55, 0
2, 84141, Note_on_c, 0, 69, 64
2, 84145, Note_on_c, 0, 55, 56
2, 84292, Note_on_c, 0, 60, 68
2, 84321, Note_on_c, 0, 70, 67
2, 84480, Note_on_c, 0, 64, 0
2, 84491, Note_on_c, 0, 64, 57
2, 84499, Note_on_c, 0, 72, 79
2, 84656, Note_on_c, 0, 60, 0
2, 84667, Note_on_c, 0, 60, 57
2, 84848, Note_on_c, 0, 55, 0
2, 84848, Note_on_c, 0, 70, 0
2, 84857, Note_on_c, 0, 55, 53
2, 84859, Note_on_c, 0, 70, 71
2, 85017, Note_on_c, 0, 52, 0
2, 85025, Note_on_c, 0, 72, 0
2, 85026, Note_on_c, 0, 52, 50
2, 85029, Note_on_c, 0, 72, 81
2, 85202, Note_on_c, 0, 41, 65
2, 85393, Note_on_c, 0, 48, 0
2, 85397, Note_on_c, 0, 48, 62
2, 85402, Note_on_c, 0, 76, 75
2, 85489, Control_c, 0, 64, 0
2, 85497, Note_on_c, 0, 52, 0
2, 85498, Note_on_c, 0, 55, 0
2, 85498, Note_on_c, 0, 69, 0
2, 85500, Note_on_c, 0, 45, 0
2, 85516, Control_c, 0, 64, 127
2, 85524, Note_on_c, 0, 64, 0
2, 85532, Note_on_c, 0, 65, 0
2, 85570, Note_on_c, 0, 70, 0
2, 85574, Note_on_c, 0, 77, 81
2, 85577, Note_on_c, 0, 53, 57
2, 85754, Note_on_c, 0, 76, 0
2, 85759, Note_on_c, 0, 76, 83
2, 85760, Note_on_c, 0, 55, 66
2, 86146, Note_on_c, 0, 60, 0
2, 86151, Note_on_c, 0, 60, 48
2, 86343, Note_on_c, 0, 67, 53
2, 86733, Note_on_c, 0, 46, 63
2, 86739, Control_c, 0, 64, 0
2, 86753, Note_on_c, 0, 72, 0
2, 86754, Note_on_c, 0, 41, 0
2, 86755, Note_on_c, 0, 60, 0
2, 86756, Note_on_c, 0, 53, 0
2, 86756, Note_on_c, 0, 55, 0
2, 86757, Note_on_c, 0, 76, 0
2, 86757, Note_on_c, 0, 48, 0
2, 86757, Note_on_c, 0, 77, 0
2, 86860, Control_c, 0, 64, 127
2, 86909, Note_on_c, 0, 53, 54
2, 87093, Note_on_c, 0, 69, 57
2, 87110, Note_on_c, 0, 58, 49
2, 87266, Note_on_c, 0, 70, 70
2, 87284, Note_on_c, 0, 60, 58
2, 87440, Note_on_c, 0, 72, 78
2, 87449, Note_on_c, 0, 62, 60
2, 87456, Note_on_c, 0, 65, 53
2, 87628, Note_on_c, 0, 60, 0
2, 87637, Note_on_c, 0, 60, 54
2, 87813, Note_on_c, 0, 58, 0
2, 87813, Note_on_c, 0, 70, 0
2, 87817, Note_on_c, 0, 70, 70
2, 87823, Note_on_c, 0, 58, 56
2, 87997, Note_on_c, 0, 53, 0
2, 87997, Note_on_c, 0, 72, 0
2, 88001, Note_on_c, 0, 72, 77
2, 88002, Note_on_c, 0, 53, 49
2, 88181, Note_on_c, 0, 72, 0
2, 88185, Note_on_c, 0, 48, 62
2, 88186, Note_on_c, 0, 72, 57
2, 88191, Control_c, 0, 64, 0
2, 88193, Note_on_c, 0, 65, 0
2, 88194, Note_on_c, 0, 69, 0
2, 88194, Note_on_c, 0, 62, 0
2, 88194, Note_on_c, 0, 46, 0
2, 88195, Note_on_c, 0, 70, 0
2, 88197, Note_on_c, 0, 67, 0
2, 88197, Note_on_c, 0, 60, 0
2, 88212, Note_on_c, 0, 58, 0
2, 88220, Note_on_c, 0, 53, 0
2, 88289, Control_c, 0, 64, 127
2, 88354, Note_on_c, 0, 69, 66
2, 88372, Note_on_c, 0, 55, 59
2, 88536, Note_on_c, 0, 60, 64
2, 88555, Note_on_c, 0, 67, 58
2, 88721, Note_on_c, 0, 65, 64
2, 88727, Note_on_c, 0, 62, 59
2, 88728, Control_c, 0, 64, 0
2, 88745, Note_on_c, 0, 69, 0
2, 88746, Note_on_c, 0, 55, 0
2, 88748, Note_on_c, 0, 67, 0
2, 88754, Note_on_c, 0, 60, 0
2, 88834, Control_c, 0, 64, 127
2, 88842, Note_on_c, 0, 72, 0
2, 89108, Note_on_c, 0, 60, 44
2, 89297, Note_on_c, 0, 55, 61
2, 89472, Note_on_c, 0, 65, 0
2, 89479, Note_on_c, 0, 62, 0
2, 89481, Note_on_c, 0, 65, 68
2, 89488, Note_on_c, 0, 62, 40
2, 89648, Note_on_c, 0, 62, 0
2, 89658, Note_on_c, 0, 62, 50
2, 89659, Note_on_c, 0, 50, 55
2, 89659, Note_on_c, 0, 67, 71
2, 89684, Control_c, 0, 64, 0
2, 89693, Note_on_c, 0, 60, 0
2, 89694, Note_on_c, 0, 55, 0
2, 89702, Note_on_c, 0, 48, 0
2, 89710, Note_on_c, 0, 65, 0
2, 89894, Control_c, 0, 64, 127
2, 90026, Note_on_c, 0, 57, 50
2, 90228, Note_on_c, 0, 69, 69
2, 90247, Note_on_c, 0, 57, 0
2, 90257, Note_on_c, 0, 57, 33
2, 90613, Note_on_c, 0, 60, 24
2, 90785, Note_on_c, 0, 69, 0
2, 90789, Note_on_c, 0, 69, 67
2, 90969, Note_on_c, 0, 57, 0
2, 90975, Note_on_c, 0, 57, 33
2, 90978, Note_on_c, 0, 45, 39
2, 91153, Note_on_c, 0, 57, 0
2, 91162, Note_on_c, 0, 57, 44
2, 91176, Note_on_c, 0, 38, 36
2, 91182, Note_on_c, 0, 64, 42
2, 91198, Note_on_c, 0, 61, 43
2, 91213, Note_on_c, 0, 67, 0
2, 91214, Note_on_c, 0, 69, 0
2, 91214, Note_on_c, 0, 50, 0
2, 91223, Note_on_c, 0, 62, 0
2, 91225, Control_c, 0, 64, 0
2, 91230, Note_on_c, 0, 60, 0
2, 91745, Control_c, 0, 64, 127
2, 91964, Note_on_c, 0, 66, 41
2, 92025, Control_c, 0, 64, 0
2, 92083, Control_c, 0, 64, 127
2, 92148, Note_on_c, 0, 69, 45
2, 92341, Note_on_c, 0, 70, 70
2, 92513, Note_on_c, 0, 69, 0
2, 92521, Note_on_c, 0, 69, 67
2, 92574, Note_on_c, 0, 45, 0
2, 92700, Control_c, 0, 64, 0
2, 92706, Note_on_c, 0, 43, 55
2, 92708, Note_on_c, 0, 69, 0
2, 92708, Note_on_c, 0, 61, 0
2, 92708, Note_on_c, 0, 64, 0
2, 92708, Note_on_c, 0, 70, 0
2, 92709, Note_on_c, 0, 66, 0
2, 92716, Note_on_c, 0, 72, 70
2, 92720, Note_on_c, 0, 57, 0
2, 92725, Note_on_c, 0, 65, 51
2, 92728, Note_on_c, 0, 38, 0
2, 92774, Control_c, 0, 64, 127
2, 93057, Note_on_c, 0, 74, 75
2, 93265, Note_on_c, 0, 72, 0
2, 93270, Note_on_c, 0, 72, 78
2, 93282, Note_on_c, 0, 41, 49
2, 93442, Note_on_c, 0, 74, 0
2, 93450, Note_on_c, 0, 74, 66
2, 93450, Note_on_c, 0, 62, 71
2, 93458, Note_on_c, 0, 58, 67
2, 93470, Note_on_c, 0, 70, 48
2, 93643, Note_on_c, 0, 76, 86
2, 93826, Note_on_c, 0, 43, 0
2, 93831, Note_on_c, 0, 43, 63
2, 94016, Note_on_c, 0, 77, 89
2, 94036, Note_on_c, 0, 69, 67
2, 94046, Control_c, 0, 64, 0
2, 94073, Note_on_c, 0, 72, 0
2, 94073, Note_on_c, 0, 58, 0
2, 94074, Note_on_c, 0, 62, 0
2, 94075, Note_on_c, 0, 74, 0
2, 94075, Note_on_c, 0, 65, 0
2, 94076, Note_on_c, 0, 76, 0
2, 94095, Control_c, 0, 64, 127
2, 94103, Note_on_c, 0, 70, 0
2, 94199, Note_on_c, 0, 45, 65
2, 94202, Note_on_c, 0, 57, 65
2, 94234, Control_c, 0, 64, 0
2, 94272, Note_on_c, 0, 41, 0
2, 94272, Control_c, 0, 64, 127
2, 94341, Note_on_c, 0, 43, 0
2, 94407, Note_on_c, 0, 72, 83
2, 94755, Note_on_c, 0, 77, 0
2, 94763, Note_on_c, 0, 53, 68
2, 94766, Note_on_c, 0, 77, 89
2, 94940, Note_on_c, 0, 57, 0
2, 94947, Note_on_c, 0, 69, 0
2, 94951, Note_on_c, 0, 57, 63
2, 94951, Note_on_c, 0, 60, 81
2, 94953, Note_on_c, 0, 69, 64
2, 95145, Note_on_c, 0, 79, 88
2, 95316, Note_on_c, 0, 45, 0
2, 95327, Note_on_c, 0, 45, 72
2, 95514, Note_on_c, 0, 81, 90
2, 95516, Note_on_c, 0, 72, 0
2, 95523, Note_on_c, 0, 77, 0
2, 95524, Note_on_c, 0, 72, 80
2, 95528, Note_on_c, 0, 77, 77
2, 95689, Control_c, 0, 64, 0
2, 95695, Note_on_c, 0, 69, 0
2, 95696, Note_on_c, 0, 53, 0
2, 95696, Note_on_c, 0, 79, 0
2, 95696, Note_on_c, 0, 60, 0
2, 95698, Note_on_c, 0, 57, 0
2, 95699, Note_on_c, 0, 46, 79
2, 95702, Note_on_c, 0, 58, 78
2, 95723, Note_on_c, 0, 45, 0
2, 95777, Control_c, 0, 64, 127
2, 95900, Note_on_c, 0, 82, 94
2, 96245, Note_on_c, 0, 81, 0
2, 96253, Note_on_c, 0, 81, 87
2, 96261, Note_on_c, 0, 72, 0
2, 96266, Note_on_c, 0, 72, 67
2, 96272, Note_on_c, 0, 53, 57
2, 96436, Note_on_c, 0, 62, 63
2, 96460, Note_on_c, 0, 58, 0
2, 96470, Note_on_c, 0, 58, 52
2, 96637, Note_on_c, 0, 77, 0
2, 96647, Note_on_c, 0, 77, 76
2, 96821, Note_on_c, 0, 46, 0
2, 96825, Note_on_c, 0, 46, 60
2, 96998, Note_on_c, 0, 72, 0
2, 97004, Note_on_c, 0, 72, 72
2, 97015, Note_on_c, 0, 69, 68
2, 97017, Note_on_c, 0, 65, 57
2, 97139, Control_c, 0, 64, 0
2, 97183, Note_on_c, 0, 82, 0
2, 97184, Note_on_c, 0, 50, 54
2, 97185, Note_on_c, 0, 81, 0
2, 97186, Note_on_c, 0, 53, 0
2, 97186, Note_on_c, 0, 46, 0
2, 97186, Note_on_c, 0, 62, 0
2, 97187, Note_on_c, 0, 60, 53
2, 97187, Note_on_c, 0, 58, 0
2, 97198, Note_on_c, 0, 77, 0
2, 97236, Control_c, 0, 64, 127
2, 97364, Note_on_c, 0, 76, 72
2, 97557, Note_on_c, 0, 77, 78
2, 97734, Note_on_c, 0, 57, 58
2, 97914, Note_on_c, 0, 64, 67
2, 97943, Note_on_c, 0, 60, 0
2, 97952, Note_on_c, 0, 60, 26
2, 98092, Note_on_c, 0, 81, 84
2, 98273, Note_on_c, 0, 50, 0
2, 98281, Note_on_c, 0, 50, 61
2, 98293, Note_on_c, 0, 82, 89
2, 98457, Note_on_c, 0, 72, 0
2, 98466, Note_on_c, 0, 72, 64
2, 98534, Note_on_c, 0, 77, 0
2, 98543, Note_on_c, 0, 77, 68
2, 98643, Note_on_c, 0, 43, 77
2, 98644, Note_on_c, 0, 84, 91
2, 98667, Control_c, 0, 64, 0
2, 98676, Note_on_c, 0, 82, 0
2, 98677, Note_on_c, 0, 64, 0
2, 98677, Note_on_c, 0, 69, 0
2, 98678, Note_on_c, 0, 65, 0
2, 98679, Note_on_c, 0, 60, 0
2, 98679, Note_on_c, 0, 50, 0
2, 98680, Note_on_c, 0, 76, 0
2, 98681, Note_on_c, 0, 81, 0
2, 98681, Note_on_c, 0, 57, 0
2, 98726, Control_c, 0, 64, 127
2, 98818, Note_on_c, 0, 50, 66
2, 99015, Note_on_c, 0, 79, 74
2, 99022, Note_on_c, 0, 53, 57
2, 99202, Note_on_c, 0, 77, 0
2, 99207, Note_on_c, 0, 77, 85
2, 99211, Note_on_c, 0, 57, 68
2, 99390, Note_on_c, 0, 58, 68
2, 99391, Note_on_c, 0, 62, 63
2, 99574, Note_on_c, 0, 74, 78
2, 99747, Note_on_c, 0, 43, 0
2, 99751, Note_on_c, 0, 43, 68
2, 99939, Note_on_c, 0, 72, 0
2, 99943, Note_on_c, 0, 72, 80
2, 100110, Note_on_c, 0, 45, 71
2, 100141, Control_c, 0, 64, 0
2, 100142, Note_on_c, 0, 53, 0
2, 100143, Note_on_c, 0, 50, 0
2, 100143, Note_on_c, 0, 57, 0
2, 100143, Note_on_c, 0, 58, 0
2, 100143, Note_on_c, 0, 77, 0
2, 100144, Note_on_c, 0, 62, 0
2, 100144, Note_on_c, 0, 43, 0
2, 100144, Note_on_c, 0, 79, 0
2, 100144, Note_on_c, 0, 74, 0
2, 100185, Control_c, 0, 64, 127
2, 100299, Note_on_c, 0, 76, 78
2, 100484, Note_on_c, 0, 77, 82
2, 100677, Note_on_c, 0, 57, 62
2, 100686, Note_on_c, 0, 60, 59
2, 101029, Note_on_c, 0, 81, 85
2, 101214, Note_on_c, 0, 45, 0
2, 101218, Note_on_c, 0, 45, 68
2, 101226, Note_on_c, 0, 82, 84
2, 101452, Note_on_c, 0, 72, 0
2, 101462, Note_on_c, 0, 72, 49
2, 101545, Note_on_c, 0, 75, 67
2, 101546, Note_on_c, 0, 79, 54
2, 101579, Note_on_c, 0, 44, 65
2, 101582, Note_on_c, 0, 72, 0
2, 101583, Note_on_c, 0, 84, 0
2, 101584, Note_on_c, 0, 82, 0
2, 101584, Note_on_c, 0, 60, 0
2, 101585, Note_on_c, 0, 76, 0
2, 101585, Note_on_c, 0, 77, 0
2, 101585, Note_on_c, 0, 45, 0
2, 101586, Note_on_c, 0, 57, 0
2, 101586, Note_on_c, 0, 81, 0
2, 101590, Control_c, 0, 64, 0
2, 101591, Note_on_c, 0, 84, 82
2, 101683, Control_c, 0, 64, 127
2, 101765, Note_on_c, 0, 51, 60
2, 101936, Note_on_c, 0, 79, 0
2, 101940, Note_on_c, 0, 56, 64
2, 101942, Note_on_c, 0, 79, 73
2, 101959, Note_on_c, 0, 75, 0
2, 102111, Note_on_c, 0, 58, 76
2, 102134, Note_on_c, 0, 77, 86
2, 102306, Note_on_c, 0, 75, 69
2, 102308, Note_on_c, 0, 67, 71
2, 102310, Note_on_c, 0, 63, 72
2, 102339, Note_on_c, 0, 60, 57
2, 102474, Note_on_c, 0, 75, 0
2, 102483, Note_on_c, 0, 75, 85
2, 102497, Note_on_c, 0, 56, 0
2, 102501, Note_on_c, 0, 56, 57
2, 102666, Note_on_c, 0, 44, 0
2, 102677, Note_on_c, 0, 44, 61
2, 102827, Note_on_c, 0, 77, 0
2, 102838, Note_on_c, 0, 77, 86
2, 102865, Note_on_c, 0, 51, 0
2, 102877, Note_on_c, 0, 51, 65
2, 103022, Control_c, 0, 64, 0
2, 103023, Note_on_c, 0, 63, 0
2, 103023, Note_on_c, 0, 51, 0
2, 103024, Note_on_c, 0, 67, 0
2, 103024, Note_on_c, 0, 56, 0
2, 103024, Note_on_c, 0, 46, 82
2, 103024, Note_on_c, 0, 75, 0
2, 103024, Note_on_c, 0, 79, 0
2, 103025, Note_on_c, 0, 84, 0
2, 103025, Note_on_c, 0, 60, 0
2, 103025, Note_on_c, 0, 58, 0
2, 103057, Note_on_c, 0, 44, 0
2, 103080, Control_c, 0, 64, 127
2, 103222, Note_on_c, 0, 81, 91
2, 103224, Note_on_c, 0, 53, 66
2, 103230, Note_on_c, 0, 74, 72
2, 103394, Note_on_c, 0, 82, 88
2, 103437, Note_on_c, 0, 70, 69
2, 103585, Note_on_c, 0, 58, 81
2, 103710, Control_c, 0, 64, 0
2, 103712, Note_on_c, 0, 46, 0
2, 103713, Note_on_c, 0, 58, 0
2, 103713, Note_on_c, 0, 53, 0
2, 103713, Note_on_c, 0, 81, 0
2, 103714, Note_on_c, 0, 70, 0
2, 103733, Note_on_c, 0, 77, 0
2, 103763, Note_on_c, 0, 48, 83
2, 103772, Control_c, 0, 64, 127
2, 103945, Note_on_c, 0, 81, 90
2, 103949, Note_on_c, 0, 69, 83
2, 103951, Note_on_c, 0, 55, 71
2, 104125, Note_on_c, 0, 82, 0
2, 104129, Note_on_c, 0, 82, 90
2, 104150, Note_on_c, 0, 70, 65
2, 104323, Note_on_c, 0, 72, 72
2, 104398, Note_on_c, 0, 75, 58
2, 104398, Note_on_c, 0, 77, 73
2, 104449, Note_on_c, 0, 79, 75
2, 104500, Control_c, 0, 64, 0
2, 104502, Note_on_c, 0, 55, 0
2, 104502, Note_on_c, 0, 72, 0
2, 104503, Note_on_c, 0, 70, 0
2, 104503, Note_on_c, 0, 82, 0
2, 104503, Note_on_c, 0, 77, 0
2, 104503, Note_on_c, 0, 69, 0
2, 104504, Note_on_c, 0, 81, 0
2, 104505, Note_on_c, 0, 46, 75
2, 104505, Note_on_c, 0, 84, 94
2, 104509, Note_on_c, 0, 74, 0
2, 104517, Note_on_c, 0, 48, 0
2, 104586, Note_on_c, 0, 75, 0
2, 104593, Control_c, 0, 64, 127
2, 104682, Note_on_c, 0, 53, 63
2, 104878, Note_on_c, 0, 58, 62
2, 105046, Note_on_c, 0, 60, 63
2, 105050, Note_on_c, 0, 72, 63
2, 105228, Note_on_c, 0, 62, 63
2, 105233, Note_on_c, 0, 69, 72
2, 105331, Note_on_c, 0, 79, 0
2, 105408, Note_on_c, 0, 70, 65
2, 105603, Note_on_c, 0, 65, 59
2, 105761, Note_on_c, 0, 60, 0
2, 105767, Note_on_c, 0, 60, 58
2, 105768, Note_on_c, 0, 62, 0
2, 105776, Note_on_c, 0, 62, 55
2, 105792, Note_on_c, 0, 53, 0
2, 105801, Note_on_c, 0, 53, 43
2, 105960, Note_on_c, 0, 46, 0
2, 105964, Note_on_c, 0, 46, 61
2, 105965, Note_on_c, 0, 74, 52
2, 105968, Note_on_c, 0, 84, 0
2, 105970, Control_c, 0, 64, 0
2, 105973, Note_on_c, 0, 53, 0
2, 105973, Note_on_c, 0, 58, 0
2, 105974, Note_on_c, 0, 60, 0
2, 105975, Note_on_c, 0, 69, 0
2, 105975, Note_on_c, 0, 72, 0
2, 105978, Note_on_c, 0, 70, 0
2, 106045, Control_c, 0, 64, 127
2, 106140, Note_on_c, 0, 53, 55
2, 106329, Note_on_c, 0, 58, 61
2, 106337, Note_on_c, 0, 74, 0
2, 106503, Note_on_c, 0, 72, 64
2, 106508, Note_on_c, 0, 60, 64
2, 106552, Note_on_c, 0, 62, 0
2, 106683, Note_on_c, 0, 74, 55
2, 106687, Note_on_c, 0, 69, 67
2, 106687, Note_on_c, 0, 62, 55
2, 106865, Note_on_c, 0, 70, 65
2, 107036, Note_on_c, 0, 65, 0
2, 107045, Note_on_c, 0, 65, 55
2, 107220, Note_on_c, 0, 62, 0
2, 107225, Note_on_c, 0, 62, 55
2, 107243, Note_on_c, 0, 53, 0
2, 107254, Note_on_c, 0, 53, 46
2, 107412, Note_on_c, 0, 46, 0
2, 107422, Note_on_c, 0, 46, 67
2, 107449, Control_c, 0, 64, 0
2, 107458, Note_on_c, 0, 74, 0
2, 107459, Note_on_c, 0, 72, 0
2, 107459, Note_on_c, 0, 60, 0
2, 107459, Note_on_c, 0, 69, 0
2, 107460, Note_on_c, 0, 53, 0
2, 107512, Control_c, 0, 64, 127
2, 107609, Note_on_c, 0, 53, 57
2, 107773, Note_on_c, 0, 58, 0
2, 107780, Note_on_c, 0, 58, 58
2, 107960, Note_on_c, 0, 60, 62
2, 107960, Note_on_c, 0, 72, 60
2, 108126, Note_on_c, 0, 62, 0
2, 108132, Note_on_c, 0, 62, 60
2, 108132, Note_on_c, 0, 69, 67
2, 108303, Note_on_c, 0, 70, 0
2, 108312, Note_on_c, 0, 70, 65
2, 108487, Note_on_c, 0, 65, 0
2, 108491, Note_on_c, 0, 65, 66
2, 108664, Note_on_c, 0, 62, 0
2, 108668, Note_on_c, 0, 74, 60
2, 108668, Note_on_c, 0, 62, 66
2, 108840, Note_on_c, 0, 65, 0
2, 108848, Note_on_c, 0, 46, 0
2, 108848, Note_on_c, 0, 60, 0
2, 108849, Note_on_c, 0, 65, 64
2, 108852, Note_on_c, 0, 60, 66
2, 108855, Note_on_c, 0, 46, 68
2, 108856, Note_on_c, 0, 72, 0
2, 108862, Note_on_c, 0, 72, 79
2, 108891, Note_on_c, 0, 58, 0
2, 108892, Note_on_c, 0, 62, 0
2, 108892, Control_c, 0, 64, 0
2, 108892, Note_on_c, 0, 70, 0
2, 108892, Note_on_c, 0, 69, 0
2, 108893, Note_on_c, 0, 74, 0
2, 108893, Note_on_c, 0, 53, 0
2, 109002, Control_c, 0, 64, 127
2, 109589, Note_on_c, 0, 48, 75
2, 109611, Note_on_c, 0, 55, 70
2, 109627, Control_c, 0, 64, 0
2, 109652, Note_on_c, 0, 64, 87
2, 109655, Note_on_c, 0, 46, 0
2, 109655, Note_on_c, 0, 65, 0
2, 109662, Note_on_c, 0, 60, 0
2, 109685, Control_c, 0, 64, 127
2, 109800, Note_on_c, 0, 72, 0
2, 109862, Note_on_c, 0, 48, 0
2, 109865, Note_on_c, 0, 81, 99
2, 109866, Note_on_c, 0, 73, 95
2, 109875, Note_on_c, 0, 64, 0
2, 109879, Control_c, 0, 64, 0
2, 109880, Note_on_c, 0, 55, 0
2, 110123, Note_on_c, 0, 73, 0
2, 110129, Note_on_c, 0, 73, 60
2, 110222, Note_on_c, 0, 71, 86
2, 110224, Note_on_c, 0, 80, 90
2, 110231, Control_c, 0, 64, 127
2, 110423, Note_on_c, 0, 73, 0
2, 110423, Note_on_c, 0, 81, 0
2, 110428, Note_on_c, 0, 57, 85
2, 110431, Note_on_c, 0, 42, 85
2, 110431, Note_on_c, 0, 81, 99
2, 110433, Note_on_c, 0, 52, 82
2, 110434, Note_on_c, 0, 73, 94
2, 110435, Note_on_c, 0, 69, 92
2, 110441, Control_c, 0, 64, 0
2, 110515, Control_c, 0, 64, 127
2, 110825, Note_on_c, 0, 76, 87
2, 111009, Note_on_c, 0, 74, 92
2, 111032, Note_on_c, 0, 54, 69
2, 111193, Note_on_c, 0, 64, 80
2, 111194, Note_on_c, 0, 61, 79
2, 111198, Note_on_c, 0, 57, 0
2, 111203, Note_on_c, 0, 57, 74
2, 111367, Note_on_c, 0, 81, 0
2, 111375, Note_on_c, 0, 69, 0
2, 111375, Note_on_c, 0, 73, 0
2, 111375, Note_on_c, 0, 76, 0
2, 111378, Note_on_c, 0, 81, 93
2, 111380, Note_on_c, 0, 69, 84
2, 111382, Note_on_c, 0, 73, 87
2, 111385, Note_on_c, 0, 76, 82
2, 111644, Note_on_c, 0, 76, 0
2, 111648, Note_on_c, 0, 76, 55
2, 111751, Note_on_c, 0, 71, 0
2, 111751, Note_on_c, 0, 74, 0
2, 111755, Note_on_c, 0, 83, 95
2, 111759, Note_on_c, 0, 71, 83
2, 111762, Note_on_c, 0, 45, 77
2, 111763, Note_on_c, 0, 74, 83
2, 111769, Note_on_c, 0, 78, 79
2, 111819, Note_on_c, 0, 57, 0
2, 111819, Note_on_c, 0, 73, 0
2, 111820, Note_on_c, 0, 64, 0
2, 111820, Note_on_c, 0, 52, 0
2, 111821, Note_on_c, 0, 76, 0
2, 111821, Note_on_c, 0, 54, 0
2, 111821, Note_on_c, 0, 61, 0
2, 111821, Note_on_c, 0, 69, 0
2, 111822, Note_on_c, 0, 81, 0
2, 111823, Note_on_c, 0, 42, 0
2, 111826, Control_c, 0, 64, 0
2, 111836, Note_on_c, 0, 80, 0
2, 111905, Control_c, 0, 64, 127
2, 111941, Note_on_c, 0, 38, 84
2, 112130, Note_on_c, 0, 85, 96
2, 112135, Note_on_c, 0, 78, 0
2, 112137, Note_on_c, 0, 73, 86
2, 112146, Note_on_c, 0, 78, 70
2, 112513, Note_on_c, 0, 50, 69
2, 112693, Note_on_c, 0, 61, 84
2, 112699, Note_on_c, 0, 57, 77
2, 112700, Note_on_c, 0, 54, 79
2, 112746, Note_on_c, 0, 50, 0
2, 112748, Note_on_c, 0, 83, 0
2, 112752, Note_on_c, 0, 71, 0
2, 112757, Note_on_c, 0, 45, 0
2, 112773, Note_on_c, 0, 74, 0
2, 112888, Note_on_c, 0, 73, 0
2, 112889, Note_on_c, 0, 81, 93
2, 112892, Note_on_c, 0, 69, 80
2, 112894, Note_on_c, 0, 73, 83
2, 112908, Note_on_c, 0, 76, 53
2, 113249, Note_on_c, 0, 38, 0
2, 113250, Note_on_c, 0, 80, 85
2, 113251, Note_on_c, 0, 50, 67
2, 113253, Note_on_c, 0, 68, 84
2, 113253, Note_on_c, 0, 38, 72
2, 113425, Note_on_c, 0, 81, 0
2, 113425, Note_on_c, 0, 85, 0
2, 113427, Control_c, 0, 64, 0
2, 113431, Note_on_c, 0, 81, 94
2, 113433, Note_on_c, 0, 61, 0
2, 113433, Note_on_c, 0, 69, 0
2, 113433, Note_on_c, 0, 73, 0
2, 113433, Note_on_c, 0, 76, 0
2, 113437, Note_on_c, 0, 80, 0
2, 113437, Note_on_c, 0, 69, 85
2, 113438, Note_on_c, 0, 57, 0
2, 113438, Note_on_c, 0, 68, 0
2, 113439, Note_on_c, 0, 54, 0
2, 113439, Note_on_c, 0, 73, 86
2, 113439, Note_on_c, 0, 50, 0
2, 113440, Note_on_c, 0, 76, 73
2, 113441, Note_on_c, 0, 78, 0
2, 113443, Note_on_c, 0, 52, 84
2, 113443, Note_on_c, 0, 40, 86
2, 113448, Note_on_c, 0, 38, 0
2, 113518, Control_c, 0, 64, 127
2, 113817, Note_on_c, 0, 76, 0
2, 113823, Note_on_c, 0, 76, 86
2, 114003, Note_on_c, 0, 74, 86
2, 114009, Note_on_c, 0, 52, 0
2, 114017, Note_on_c, 0, 52, 71
2, 114196, Note_on_c, 0, 64, 84
2, 114200, Note_on_c, 0, 59, 78
2, 114201, Note_on_c, 0, 56, 74
2, 114370, Note_on_c, 0, 81, 0
2, 114378, Note_on_c, 0, 69, 0
2, 114378, Note_on_c, 0, 76, 0
2, 114380, Note_on_c, 0, 81, 92
2, 114384, Note_on_c, 0, 69, 83
2, 114385, Note_on_c, 0, 74, 0
2, 114388, Note_on_c, 0, 76, 84
2, 114395, Note_on_c, 0, 74, 74
2, 114554, Note_on_c, 0, 40, 0
2, 114564, Note_on_c, 0, 40, 81
2, 114754, Note_on_c, 0, 74, 0
2, 114759, Note_on_c, 0, 83, 94
2, 114759, Note_on_c, 0, 74, 87
2, 114761, Note_on_c, 0, 71, 81
2, 114850, Control_c, 0, 64, 0
2, 114852, Note_on_c, 0, 69, 0
2, 114853, Note_on_c, 0, 81, 0
2, 114854, Note_on_c, 0, 73, 0
2, 114854, Note_on_c, 0, 52, 0
2, 114855, Note_on_c, 0, 76, 0
2, 114855, Note_on_c, 0, 64, 0
2, 114855, Note_on_c, 0, 59, 0
2, 114855, Note_on_c, 0, 56, 0
2, 114885, Note_on_c, 0, 40, 0
2, 114919, Note_on_c, 0, 45, 88
2, 114938, Control_c, 0, 64, 127
2, 115113, Note_on_c, 0, 85, 91
2, 115117, Note_on_c, 0, 73, 87
2, 115307, Note_on_c, 0, 81, 93
2, 115307, Note_on_c, 0, 73, 0
2, 115316, Note_on_c, 0, 69, 80
2, 115317, Note_on_c, 0, 73, 82
2, 115511, Note_on_c, 0, 52, 70
2, 115675, Note_on_c, 0, 59, 91
2, 115852, Note_on_c, 0, 52, 0
2, 115860, Note_on_c, 0, 81, 0
2, 115862, Note_on_c, 0, 52, 86
2, 115867, Note_on_c, 0, 81, 94
2, 115868, Note_on_c, 0, 69, 0
2, 115874, Note_on_c, 0, 69, 82
2, 116035, Note_on_c, 0, 44, 80
2, 116213, Note_on_c, 0, 52, 0
2, 116213, Note_on_c, 0, 71, 0
2, 116215, Note_on_c, 0, 80, 87
2, 116219, Note_on_c, 0, 71, 69
2, 116220, Note_on_c, 0, 52, 66
2, 116410, Control_c, 0, 64, 0
2, 116412, Note_on_c, 0, 42, 86
2, 116413, Note_on_c, 0, 45, 0
2, 116413, Note_on_c, 0, 69, 0
2, 116413, Note_on_c, 0, 73, 0
2, 116413, Note_on_c, 0, 81, 0
2, 116413, Note_on_c, 0, 80, 0
2, 116414, Note_on_c, 0, 85, 0
2, 116414, Note_on_c, 0, 52, 0
2, 116415, Note_on_c, 0, 83, 0
2, 116415, Note_on_c, 0, 44, 0
2, 116415, Note_on_c, 0, 71, 0
2, 116415, Note_on_c, 0, 59, 0
2, 116417, Note_on_c, 0, 81, 92
2, 116418, Note_on_c, 0, 57, 85
2, 116421, Note_on_c, 0, 74, 0
2, 116423, Note_on_c, 0, 69, 83
2, 116424, Note_on_c, 0, 73, 87
2, 116520, Control_c, 0, 64, 127
2, 116794, Note_on_c, 0, 76, 92
2, 116972, Note_on_c, 0, 74, 89
2, 116991, Note_on_c, 0, 54, 78
2, 117156, Note_on_c, 0, 61, 79
2, 117157, Note_on_c, 0, 64, 84
2, 117158, Note_on_c, 0, 57, 0
2, 117169, Note_on_c, 0, 57, 74
2, 117335, Note_on_c, 0, 81, 0
2, 117342, Note_on_c, 0, 69, 0
2, 117342, Note_on_c, 0, 73, 0
2, 117342, Note_on_c, 0, 76, 0
2, 117346, Note_on_c, 0, 81, 93
2, 117347, Note_on_c, 0, 73, 87
2, 117350, Note_on_c, 0, 76, 80
2, 117353, Note_on_c, 0, 69, 82
2, 117511, Note_on_c, 0, 42, 0
2, 117519, Note_on_c, 0, 42, 81
2, 117720, Note_on_c, 0, 83, 97
2, 117725, Note_on_c, 0, 71, 84
2, 117726, Note_on_c, 0, 74, 0
2, 117730, Note_on_c, 0, 74, 82
2, 117733, Note_on_c, 0, 78, 75
2, 117802, Note_on_c, 0, 69, 0
2, 117803, Note_on_c, 0, 57, 0
2, 117804, Note_on_c, 0, 64, 0
2, 117805, Note_on_c, 0, 42, 0
2, 117805, Note_on_c, 0, 54, 0
2, 117805, Note_on_c, 0, 76, 0
2, 117805, Note_on_c, 0, 61, 0
2, 117806, Note_on_c, 0, 73, 0
2, 117806, Note_on_c, 0, 81, 0
2, 117807, Control_c, 0, 64, 0
2, 117899, Note_on_c, 0, 50, 77
2, 117900, Note_on_c, 0, 38, 83
2, 117941, Control_c, 0, 64, 127
2, 118116, Note_on_c, 0, 85, 94
2, 118121, Note_on_c, 0, 73, 90
2, 118122, Note_on_c, 0, 81, 66
2, 118126, Note_on_c, 0, 78, 0
2, 118130, Note_on_c, 0, 78, 69
2, 118471, Note_on_c, 0, 50, 0
2, 118480, Note_on_c, 0, 50, 75
2, 118656, Note_on_c, 0, 81, 0
2, 118661, Note_on_c, 0, 81, 90
2, 118666, Note_on_c, 0, 69, 86
2, 118668, Note_on_c, 0, 61, 75
2, 118683, Note_on_c, 0, 57, 68
2, 118683, Note_on_c, 0, 54, 69
2, 118848, Note_on_c, 0, 71, 0
2, 118848, Note_on_c, 0, 83, 0
2, 118856, Note_on_c, 0, 83, 93
2, 118859, Note_on_c, 0, 71, 83
2, 119032, Note_on_c, 0, 38, 0
2, 119036, Note_on_c, 0, 38, 72
2, 119208, Note_on_c, 0, 81, 0
2, 119216, Note_on_c, 0, 81, 94
2, 119216, Note_on_c, 0, 74, 0
2, 119220, Note_on_c, 0, 76, 86
2, 119223, Note_on_c, 0, 74, 84
2, 119224, Note_on_c, 0, 69, 0
2, 119230, Note_on_c, 0, 69, 77
2, 119322, Note_on_c, 0, 85, 0
2, 119322, Note_on_c, 0, 83, 0
2, 119322, Note_on_c, 0, 57, 0
2, 119323, Note_on_c, 0, 54, 0
2, 119323, Note_on_c, 0, 38, 0
2, 119323, Note_on_c, 0, 50, 0
2, 119325, Note_on_c, 0, 78, 0
2, 119325, Note_on_c, 0, 73, 0
2, 119325, Note_on_c, 0, 61, 0
2, 119335, Control_c, 0, 64, 0
2, 119339, Note_on_c, 0, 71, 0
2, 119396, Note_on_c, 0, 52, 76
2, 119396, Note_on_c, 0, 40, 83
2, 119439, Control_c, 0, 64, 127
2, 119569, Note_on_c, 0, 74, 0
2, 119581, Note_on_c, 0, 74, 87
2, 119940, Note_on_c, 0, 73, 92
2, 120137, Note_on_c, 0, 62, 72
2, 120143, Note_on_c, 0, 56, 63
2, 120145, Note_on_c, 0, 59, 69
2, 120316, Note_on_c, 0, 71, 81
2, 120499, Note_on_c, 0, 40, 0
2, 120506, Note_on_c, 0, 40, 60
2, 120675, Note_on_c, 0, 71, 0
2, 120681, Note_on_c, 0, 71, 84
2, 120698, Note_on_c, 0, 62, 0
2, 120706, Note_on_c, 0, 40, 0
2, 120710, Note_on_c, 0, 62, 70
2, 120710, Note_on_c, 0, 64, 67
2, 120711, Note_on_c, 0, 40, 61
2, 120846, Control_c, 0, 64, 0
2, 120854, Note_on_c, 0, 56, 0
2, 120855, Note_on_c, 0, 59, 0
2, 120856, Note_on_c, 0, 52, 0
2, 120856, Note_on_c, 0, 40, 0
2, 120857, Note_on_c, 0, 76, 0
2, 120857, Note_on_c, 0, 74, 0
2, 120858, Note_on_c, 0, 73, 0
2, 120858, Note_on_c, 0, 45, 82
2, 120860, Note_on_c, 0, 81, 0
2, 120883, Control_c, 0, 64, 127
2, 120929, Note_on_c, 0, 69, 0
2, 121063, Note_on_c, 0, 69, 73
2, 121221, Note_on_c, 0, 69, 0
2, 121232, Note_on_c, 0, 69, 87
2, 121245, Note_on_c, 0, 61, 72
2, 121407, Note_on_c, 0, 52, 83
2, 121593, Note_on_c, 0, 57, 92
2, 121779, Note_on_c, 0, 81, 98
2, 121781, Note_on_c, 0, 52, 0
2, 121786, Note_on_c, 0, 52, 85
2, 121789, Note_on_c, 0, 73, 90
2, 121789, Note_on_c, 0, 69, 0
2, 121793, Note_on_c, 0, 69, 82
2, 121796, Note_on_c, 0, 61, 0
2, 121935, Note_on_c, 0, 45, 0
2, 121940, Note_on_c, 0, 45, 87
2, 122096, Note_on_c, 0, 52, 0
2, 122102, Note_on_c, 0, 52, 81
2, 122132, Note_on_c, 0, 80, 85
2, 122134, Note_on_c, 0, 68, 93
2, 122284, Control_c, 0, 64, 0
2, 122287, Note_on_c, 0, 45, 0
2, 122288, Note_on_c, 0, 62, 0
2, 122288, Note_on_c, 0, 80, 0
2, 122289, Note_on_c, 0, 57, 0
2, 122289, Note_on_c, 0, 68, 0
2, 122289, Note_on_c, 0, 52, 0
2, 122296, Note_on_c, 0, 71, 0
2, 122296, Note_on_c, 0, 81, 0
2, 122304, Note_on_c, 0, 64, 0
2, 122304, Note_on_c, 0, 69, 0
2, 122304, Note_on_c, 0, 73, 0
2, 122307, Note_on_c, 0, 81, 98
2, 122307, Note_on_c, 0, 30, 98
2, 122308, Note_on_c, 0, 42, 95
2, 122310, Note_on_c, 0, 69, 87
2, 122311, Note_on_c, 0, 73, 89
2, 122365, Control_c, 0, 64, 127
2, 122373, Note_on_c, 0, 42, 0
2, 122637, Note_on_c, 0, 49, 70
2, 122671, Note_on_c, 0, 76, 99
2, 122826, Note_on_c, 0, 52, 73
2, 122849, Note_on_c, 0, 69, 0
2, 122855, Note_on_c, 0, 69, 70
2, 122859, Note_on_c, 0, 74, 90
2, 122866, Note_on_c, 0, 57, 76
2, 123031, Note_on_c, 0, 64, 86
2, 123035, Note_on_c, 0, 61, 82
2, 123202, Note_on_c, 0, 73, 0
2, 123202, Note_on_c, 0, 81, 0
2, 123209, Note_on_c, 0, 81, 95
2, 123210, Note_on_c, 0, 69, 0
2, 123214, Note_on_c, 0, 73, 87
2, 123216, Note_on_c, 0, 69, 80
2, 123217, Note_on_c, 0, 76, 0
2, 123222, Note_on_c, 0, 76, 71
2, 123372, Note_on_c, 0, 42, 86
2, 123581, Note_on_c, 0, 83, 98
2, 123583, Note_on_c, 0, 71, 86
2, 123589, Note_on_c, 0, 78, 82
2, 123689, Note_on_c, 0, 76, 0
2, 123689, Note_on_c, 0, 81, 0
2, 123689, Note_on_c, 0, 52, 0
2, 123689, Note_on_c, 0, 57, 0
2, 123689, Note_on_c, 0, 69, 0
2, 123689, Note_on_c, 0, 30, 0
2, 123690, Note_on_c, 0, 74, 0
2, 123690, Note_on_c, 0, 73, 0
2, 123690, Note_on_c, 0, 42, 0
2, 123690, Note_on_c, 0, 64, 0
2, 123690, Note_on_c, 0, 61, 0
2, 123692, Note_on_c, 0, 49, 0
2, 123695, Control_c, 0, 64, 0
2, 123756, Note_on_c, 0, 38, 90
2, 123758, Note_on_c, 0, 50, 87
2, 123793, Control_c, 0, 64, 127
2, 123941, Note_on_c, 0, 85, 99
2, 123943, Note_on_c, 0, 73, 93
2, 124085, Note_on_c, 0, 50, 0
2, 124093, Note_on_c, 0, 50, 87
2, 124196, Note_on_c, 0, 54, 75
2, 124273, Note_on_c, 0, 57, 87
2, 124466, Note_on_c, 0, 64, 97
2, 124469, Note_on_c, 0, 61, 91
2, 124712, Note_on_c, 0, 83, 0
2, 124712, Note_on_c, 0, 64, 0
2, 124712, Note_on_c, 0, 71, 0
2, 124712, Note_on_c, 0, 73, 0
2, 124712, Note_on_c, 0, 61, 0
2, 124712, Note_on_c, 0, 50, 0
2, 124712, Note_on_c, 0, 57, 0
2, 124713, Control_c, 0, 64, 0
2, 124713, Note_on_c, 0, 85, 0
2, 124713, Note_on_c, 0, 54, 0
2, 124713, Note_on_c, 0, 78, 0
2, 124723, Note_on_c, 0, 38, 0
2, 124736, Note_on_c, 0, 81, 100
2, 124736, Note_on_c, 0, 62, 88
2, 124740, Note_on_c, 0, 74, 84
2, 124741, Note_on_c, 0, 69, 88
2, 124742, Note_on_c, 0, 59, 89
2, 124800, Control_c, 0, 64, 127
2, 125007, Note_on_c, 0, 69, 0
2, 125011, Note_on_c, 0, 61, 86
2, 125016, Note_on_c, 0, 73, 80
2, 125017, Note_on_c, 0, 69, 79
2, 125017, Note_on_c, 0, 80, 86
2, 125019, Note_on_c, 0, 57, 84
2, 125020, Note_on_c, 0, 68, 86
2, 125184, Note_on_c, 0, 62, 0
2, 125194, Control_c, 0, 64, 0
2, 125200, Note_on_c, 0, 80, 0
2, 125202, Note_on_c, 0, 68, 0
2, 125202, Note_on_c, 0, 59, 0
2, 125202, Note_on_c, 0, 61, 0
2, 125202, Note_on_c, 0, 57, 0
2, 125203, Note_on_c, 0, 74, 0
2, 125203, Note_on_c, 0, 73, 0
2, 125207, Note_on_c, 0, 81, 0
2, 125214, Note_on_c, 0, 69, 0
2, 125217, Note_on_c, 0, 40, 91
2, 125217, Note_on_c, 0, 81, 98
2, 125217, Note_on_c, 0, 52, 93
2, 125218, Note_on_c, 0, 71, 91
2, 125218, Note_on_c, 0, 69, 89
2, 125219, Note_on_c, 0, 76, 77
2, 125268, Control_c, 0, 64, 127
2, 125422, Note_on_c, 0, 40, 0
2, 125427, Note_on_c, 0, 40, 78
2, 125538, Note_on_c, 0, 47, 78
2, 125575, Note_on_c, 0, 76, 0
2, 125587, Note_on_c, 0, 76, 93
2, 125606, Note_on_c, 0, 52, 0
2, 125606, Note_on_c, 0, 71, 0
2, 125610, Note_on_c, 0, 71, 69
2, 125610, Note_on_c, 0, 64, 65
2, 125613, Note_on_c, 0, 52, 75
2, 125713, Note_on_c, 0, 52, 0
2, 125720, Note_on_c, 0, 52, 74
2, 125778, Note_on_c, 0, 74, 92
2, 125809, Note_on_c, 0, 56, 81
2, 125936, Note_on_c, 0, 74, 0
2, 125939, Note_on_c, 0, 59, 92
2, 125940, Note_on_c, 0, 62, 93
2, 125940, Note_on_c, 0, 74, 88
2, 126128, Note_on_c, 0, 69, 0
2, 126128, Note_on_c, 0, 81, 0
2, 126134, Note_on_c, 0, 81, 100
2, 126138, Note_on_c, 0, 69, 94
2, 126328, Note_on_c, 0, 40, 0
2, 126331, Note_on_c, 0, 52, 0
2, 126332, Note_on_c, 0, 40, 86
2, 126497, Note_on_c, 0, 71, 0
2, 126497, Note_on_c, 0, 74, 0
2, 126503, Note_on_c, 0, 83, 100
2, 126505, Note_on_c, 0, 74, 96
2, 126508, Note_on_c, 0, 71, 88
2, 126599, Note_on_c, 0, 69, 0
2, 126604, Note_on_c, 0, 64, 0
2, 126612, Note_on_c, 0, 47, 0
2, 126612, Note_on_c, 0, 56, 0
2, 126615, Note_on_c, 0, 59, 0
2, 126617, Control_c, 0, 64, 0
2, 126618, Note_on_c, 0, 62, 0
2, 126620, Note_on_c, 0, 76, 0
2, 126622, Note_on_c, 0, 40, 0
2, 126680, Note_on_c, 0, 45, 86
2, 126681, Note_on_c, 0, 33, 83
2, 126696, Control_c, 0, 64, 127
2, 126850, Note_on_c, 0, 33, 0
2, 126850, Note_on_c, 0, 45, 0
2, 126854, Note_on_c, 0, 85, 94
2, 126855, Note_on_c, 0, 73, 95
2, 126860, Note_on_c, 0, 45, 82
2, 126860, Note_on_c, 0, 33, 79
2, 127019, Note_on_c, 0, 45, 0
2, 127019, Note_on_c, 0, 81, 0
2, 127027, Note_on_c, 0, 73, 0
2, 127030, Note_on_c, 0, 45, 75
2, 127030, Note_on_c, 0, 81, 91
2, 127033, Note_on_c, 0, 73, 82
2, 127035, Note_on_c, 0, 69, 83
2, 127039, Note_on_c, 0, 52, 71
2, 127203, Note_on_c, 0, 74, 0
2, 127207, Note_on_c, 0, 74, 71
2, 127208, Note_on_c, 0, 62, 77
2, 127288, Note_on_c, 0, 73, 0
2, 127296, Note_on_c, 0, 61, 81
2, 127296, Note_on_c, 0, 73, 74
2, 127399, Note_on_c, 0, 57, 96
2, 127580, Note_on_c, 0, 33, 0
2, 127580, Note_on_c, 0, 45, 0
2, 127580, Note_on_c, 0, 81, 0
2, 127587, Note_on_c, 0, 69, 0
2, 127588, Note_on_c, 0, 45, 90
2, 127591, Note_on_c, 0, 81, 100
2, 127591, Note_on_c, 0, 33, 84
2, 127592, Note_on_c, 0, 69, 90
2, 127741, Note_on_c, 0, 52, 0
2, 127751, Note_on_c, 0, 52, 85
2, 127933, Note_on_c, 0, 56, 83
2, 127933, Note_on_c, 0, 73, 0
2, 127936, Note_on_c, 0, 44, 87
2, 127936, Note_on_c, 0, 80, 91
2, 127938, Note_on_c, 0, 68, 89
2, 127941, Note_on_c, 0, 73, 74
2, 128106, Control_c, 0, 64, 0
2, 128109, Note_on_c, 0, 80, 0
2, 128110, Note_on_c, 0, 61, 0
2, 128110, Note_on_c, 0, 45, 0
2, 128110, Note_on_c, 0, 44, 0
2, 128110, Note_on_c, 0, 33, 0
2, 128110, Note_on_c, 0, 56, 0
2, 128110, Note_on_c, 0, 68, 0
2, 128110, Note_on_c, 0, 62, 0
2, 128111, Note_on_c, 0, 57, 0
2, 128111, Note_on_c, 0, 74, 0
2, 128112, Note_on_c, 0, 85, 0
2, 128112, Note_on_c, 0, 83, 0
2, 128117, Note_on_c, 0, 69, 0
2, 128117, Note_on_c, 0, 81, 0
2, 128124, Note_on_c, 0, 81, 102
2, 128125, Note_on_c, 0, 52, 0
2, 128125, Note_on_c, 0, 71, 0
2, 128125, Note_on_c, 0, 73, 0
2, 128129, Note_on_c, 0, 69, 94
2, 128130, Note_on_c, 0, 73, 94
2, 128131, Note_on_c, 0, 76, 84
2, 128134, Note_on_c, 0, 30, 97
2, 128134, Note_on_c, 0, 42, 93
2, 128194, Note_on_c, 0, 42, 0
2, 128202, Control_c, 0, 64, 127
2, 128336, Note_on_c, 0, 42, 69
2, 128459, Note_on_c, 0, 49, 67
2, 128478, Note_on_c, 0, 76, 0
2, 128489, Note_on_c, 0, 76, 94
2, 128529, Note_on_c, 0, 52, 72
2, 128657, Note_on_c, 0, 57, 89
2, 128670, Note_on_c, 0, 69, 0
2, 128675, Note_on_c, 0, 74, 94
2, 128679, Note_on_c, 0, 69, 71
2, 128854, Note_on_c, 0, 61, 86
2, 128854, Note_on_c, 0, 64, 91
2, 129039, Note_on_c, 0, 81, 0
2, 129045, Note_on_c, 0, 81, 97
2, 129047, Note_on_c, 0, 69, 0
2, 129047, Note_on_c, 0, 73, 0
2, 129047, Note_on_c, 0, 76, 0
2, 129051, Note_on_c, 0, 69, 89
2, 129051, Note_on_c, 0, 76, 83
2, 129052, Note_on_c, 0, 73, 88
2, 129208, Note_on_c, 0, 42, 0
2, 129214, Note_on_c, 0, 42, 89
2, 129423, Note_on_c, 0, 74, 0
2, 129433, Note_on_c, 0, 83, 97
2, 129434, Note_on_c, 0, 74, 91
2, 129435, Note_on_c, 0, 71, 87
2, 129468, Note_on_c, 0, 69, 0
2, 129469, Note_on_c, 0, 30, 0
2, 129469, Note_on_c, 0, 73, 0
2, 129469, Note_on_c, 0, 64, 0
2, 129470, Note_on_c, 0, 42, 0
2, 129470, Note_on_c, 0, 76, 0
2, 129470, Note_on_c, 0, 52, 0
2, 129471, Note_on_c, 0, 61, 0
2, 129472, Note_on_c, 0, 81, 0
2, 129473, Note_on_c, 0, 49, 0
2, 129477, Note_on_c, 0, 57, 0
2, 129481, Control_c, 0, 64, 0
2, 129561, Control_c, 0, 64, 127
2, 129587, Note_on_c, 0, 38, 87
2, 129587, Note_on_c, 0, 50, 81
2, 129788, Note_on_c, 0, 85, 99
2, 129789, Note_on_c, 0, 73, 95
2, 129945, Note_on_c, 0, 50, 0
2, 129950, Note_on_c, 0, 50, 67
2, 129994, Note_on_c, 0, 54, 58
2, 130137, Note_on_c, 0, 64, 83
2, 130137, Note_on_c, 0, 61, 83
2, 130324, Note_on_c, 0, 81, 93
2, 130326, Note_on_c, 0, 69, 86
2, 130326, Note_on_c, 0, 57, 63
2, 130513, Note_on_c, 0, 50, 0
2, 130513, Note_on_c, 0, 71, 0
2, 130513, Note_on_c, 0, 83, 0
2, 130518, Note_on_c, 0, 83, 95
2, 130520, Note_on_c, 0, 50, 69
2, 130525, Note_on_c, 0, 71, 86
2, 130596, Control_c, 0, 64, 0
2, 130606, Control_c, 0, 64, 127
2, 130698, Note_on_c, 0, 74, 0
2, 130703, Note_on_c, 0, 74, 69
2, 130705, Note_on_c, 0, 62, 67
2, 130725, Note_on_c, 0, 59, 62
2, 130867, Note_on_c, 0, 69, 0
2, 130867, Note_on_c, 0, 81, 0
2, 130874, Note_on_c, 0, 81, 98
2, 130877, Note_on_c, 0, 69, 91
2, 130995, Control_c, 0, 64, 0
2, 130996, Note_on_c, 0, 62, 0
2, 130997, Note_on_c, 0, 57, 0
2, 130997, Note_on_c, 0, 85, 0
2, 130997, Note_on_c, 0, 54, 0
2, 130997, Note_on_c, 0, 74, 0
2, 130997, Note_on_c, 0, 61, 0
2, 130997, Note_on_c, 0, 83, 0
2, 130998, Note_on_c, 0, 73, 0
2, 130998, Note_on_c, 0, 64, 0
2, 130998, Note_on_c, 0, 50, 0
2, 130999, Note_on_c, 0, 38, 0
2, 130999, Note_on_c, 0, 59, 0
2, 131013, Note_on_c, 0, 71, 0
2, 131052, Note_on_c, 0, 40, 83
2, 131054, Note_on_c, 0, 52, 75
2, 131089, Control_c, 0, 64, 127
2, 131222, Note_on_c, 0, 74, 91
2, 131573, Note_on_c, 0, 52, 0
2, 131584, Note_on_c, 0, 73, 91
2, 131585, Note_on_c, 0, 52, 67
2, 131762, Note_on_c, 0, 62, 73
2, 131771, Note_on_c, 0, 59, 70
2, 131773, Note_on_c, 0, 56, 65
2, 131948, Note_on_c, 0, 71, 83
2, 132126, Note_on_c, 0, 52, 0
2, 132137, Note_on_c, 0, 52, 64
2, 132311, Note_on_c, 0, 71, 0
2, 132322, Note_on_c, 0, 71, 81
2, 132326, Note_on_c, 0, 62, 0
2, 132330, Note_on_c, 0, 64, 68
2, 132337, Note_on_c, 0, 62, 71
2, 132340, Note_on_c, 0, 57, 53
2, 132349, Note_on_c, 0, 81, 0
2, 132467, Note_on_c, 0, 52, 0
2, 132468, Note_on_c, 0, 56, 0
2, 132468, Note_on_c, 0, 59, 0
2, 132468, Control_c, 0, 64, 0
2, 132468, Note_on_c, 0, 74, 0
2, 132469, Note_on_c, 0, 40, 0
2, 132473, Note_on_c, 0, 73, 0
2, 132480, Note_on_c, 0, 57, 0
2, 132493, Note_on_c, 0, 45, 73
2, 132495, Note_on_c, 0, 69, 0
2, 132595, Control_c, 0, 64, 127
2, 132681, Note_on_c, 0, 69, 76
2, 132840, Note_on_c, 0, 69, 0
2, 132852, Note_on_c, 0, 69, 81
2, 132883, Note_on_c, 0, 61, 62
2, 132887, Control_c, 0, 64, 0
2, 132925, Note_on_c, 0, 71, 0
2, 133002, Note_on_c, 0, 62, 0
2, 133044, Note_on_c, 0, 52, 49
2, 133220, Note_on_c, 0, 57, 58
2, 133271, Control_c, 0, 64, 127
2, 133390, Note_on_c, 0, 59, 62
2, 133613, Note_on_c, 0, 62, 61
2, 133777, Note_on_c, 0, 52, 0
2, 133785, Note_on_c, 0, 52, 49
2, 133970, Note_on_c, 0, 42, 55
2, 133977, Note_on_c, 0, 61, 0
2, 133987, Note_on_c, 0, 61, 60
2, 133996, Control_c, 0, 64, 0
2, 134003, Note_on_c, 0, 57, 0
2, 134003, Note_on_c, 0, 59, 0
2, 134004, Note_on_c, 0, 52, 0
2, 134004, Note_on_c, 0, 45, 0
2, 134004, Note_on_c, 0, 62, 0
2, 134016, Note_on_c, 0, 64, 0
2, 134154, Note_on_c, 0, 69, 0
2, 134161, Control_c, 0, 64, 127
2, 134387, Note_on_c, 0, 49, 38
2, 134565, Note_on_c, 0, 57, 47
2, 134655, Note_on_c, 0, 59, 56
2, 134709, Note_on_c, 0, 52, 49
2, 134730, Note_on_c, 0, 61, 0
2, 134741, Note_on_c, 0, 61, 61
2, 134914, Note_on_c, 0, 59, 0
2, 134921, Note_on_c, 0, 59, 62
2, 135083, Note_on_c, 0, 57, 0
2, 135094, Note_on_c, 0, 57, 58
2, 135278, Note_on_c, 0, 64, 62
2, 135302, Note_on_c, 0, 45, 46
2, 135448, Note_on_c, 0, 38, 60
2, 135453, Control_c, 0, 64, 0
2, 135457, Note_on_c, 0, 49, 0
2, 135457, Note_on_c, 0, 42, 0
2, 135457, Note_on_c, 0, 52, 0
2, 135457, Note_on_c, 0, 59, 0
2, 135458, Note_on_c, 0, 61, 0
2, 135459, Note_on_c, 0, 45, 0
2, 135459, Note_on_c, 0, 64, 0
2, 135475, Note_on_c, 0, 57, 0
2, 135598, Control_c, 0, 64, 127
2, 135646, Note_on_c, 0, 62, 64
2, 135830, Note_on_c, 0, 57, 55
2, 136007, Note_on_c, 0, 45, 53
2, 136008, Note_on_c, 0, 69, 74
2, 136200, Note_on_c, 0, 54, 53
2, 136377, Note_on_c, 0, 68, 66
2, 136458, Note_on_c, 0, 69, 0
2, 136466, Note_on_c, 0, 69, 72
2, 136535, Note_on_c, 0, 38, 0
2, 136541, Note_on_c, 0, 38, 52
2, 136545, Note_on_c, 0, 71, 69
2, 136708, Note_on_c, 0, 64, 68
2, 136885, Note_on_c, 0, 40, 72
2, 136886, Note_on_c, 0, 45, 0
2, 136886, Note_on_c, 0, 68, 0
2, 136887, Note_on_c, 0, 57, 0
2, 136889, Note_on_c, 0, 69, 0
2, 136889, Note_on_c, 0, 71, 0
2, 136889, Note_on_c, 0, 38, 0
2, 136889, Note_on_c, 0, 62, 0
2, 136890, Note_on_c, 0, 54, 0
2, 136891, Note_on_c, 0, 64, 0
2, 136898, Control_c, 0, 64, 0
2, 136911, Note_on_c, 0, 76, 83
2, 137003, Control_c, 0, 64, 127
2, 137188, Note_on_c, 0, 74, 82
2, 137321, Note_on_c, 0, 47, 61
2, 137469, Note_on_c, 0, 73, 78
2, 137647, Note_on_c, 0, 59, 68
2, 137656, Note_on_c, 0, 74, 0
2, 137662, Note_on_c, 0, 56, 59
2, 137667, Note_on_c, 0, 74, 77
2, 137860, Note_on_c, 0, 68, 68
2, 137956, Note_on_c, 0, 69, 64
2, 138001, Note_on_c, 0, 47, 0
2, 138013, Note_on_c, 0, 71, 75
2, 138193, Note_on_c, 0, 74, 0
2, 138204, Note_on_c, 0, 74, 83
2, 138209, Note_on_c, 0, 71, 0
2, 138217, Note_on_c, 0, 71, 68
2, 138221, Note_on_c, 0, 64, 59
2, 138227, Note_on_c, 0, 52, 57
2, 138238, Note_on_c, 0, 59, 0
2, 138387, Note_on_c, 0, 45, 77
2, 138419, Note_on_c, 0, 56, 0
2, 138420, Note_on_c, 0, 74, 0
2, 138420, Note_on_c, 0, 69, 0
2, 138420, Note_on_c, 0, 76, 0
2, 138420, Note_on_c, 0, 68, 0
2, 138420, Control_c, 0, 64, 0
2, 138420, Note_on_c, 0, 40, 0
2, 138420, Note_on_c, 0, 73, 0
2, 138531, Control_c, 0, 64, 127
2, 138573, Note_on_c, 0, 73, 82
2, 138593, Note_on_c, 0, 52, 0
2, 138598, Note_on_c, 0, 52, 62
2, 138746, Note_on_c, 0, 57, 61
2, 138925, Note_on_c, 0, 69, 73
2, 139103, Note_on_c, 0, 44, 70
2, 139118, Control_c, 0, 64, 0
2, 139120, Note_on_c, 0, 45, 0
2, 139120, Note_on_c, 0, 52, 0
2, 139121, Note_on_c, 0, 57, 0
2, 139122, Note_on_c, 0, 73, 0
2, 139130, Note_on_c, 0, 71, 0
2, 139146, Note_on_c, 0, 64, 0
2, 139230, Control_c, 0, 64, 127
2, 139303, Note_on_c, 0, 59, 65
2, 139326, Note_on_c, 0, 52, 47
2, 139471, Note_on_c, 0, 57, 60
2, 139480, Note_on_c, 0, 62, 56
2, 139657, Note_on_c, 0, 61, 65
2, 139837, Note_on_c, 0, 61, 0
2, 139840, Note_on_c, 0, 42, 63
2, 139843, Note_on_c, 0, 61, 67
2, 139848, Note_on_c, 0, 44, 0
2, 139848, Note_on_c, 0, 52, 0
2, 139849, Note_on_c, 0, 69, 0
2, 139849, Note_on_c, 0, 59, 0
2, 139849, Note_on_c, 0, 57, 0
2, 139849, Control_c, 0, 64, 0
2, 139849, Note_on_c, 0, 62, 0
2, 139968, Control_c, 0, 64, 127
2, 140202, Note_on_c, 0, 49, 45
2, 140408, Note_on_c, 0, 57, 61
2, 140409, Note_on_c, 0, 52, 56
2, 140497, Note_on_c, 0, 59, 67
2, 140597, Note_on_c, 0, 61, 0
2, 140603, Note_on_c, 0, 61, 70
2, 140682, Note_on_c, 0, 59, 0
2, 140691, Note_on_c, 0, 59, 72
2, 140766, Note_on_c, 0, 57, 0
2, 140773, Note_on_c, 0, 57, 75
2, 140782, Note_on_c, 0, 42, 0
2, 140786, Note_on_c, 0, 42, 59
2, 140843, Note_on_c, 0, 59, 0
2, 140853, Note_on_c, 0, 59, 67
2, 140943, Note_on_c, 0, 49, 0
2, 140943, Note_on_c, 0, 61, 0
2, 140949, Note_on_c, 0, 61, 77
2, 140952, Note_on_c, 0, 49, 56
2, 141043, Note_on_c, 0, 52, 0
2, 141051, Note_on_c, 0, 62, 79
2, 141051, Note_on_c, 0, 52, 60
2, 141149, Note_on_c, 0, 64, 83
2, 141173, Note_on_c, 0, 61, 0
2, 141179, Note_on_c, 0, 61, 55
2, 141239, Note_on_c, 0, 52, 0
2, 141239, Note_on_c, 0, 62, 0
2, 141239, Note_on_c, 0, 61, 0
2, 141239, Note_on_c, 0, 57, 0
2, 141239, Note_on_c, 0, 49, 0
2, 141239, Note_on_c, 0, 64, 0
2, 141240, Note_on_c, 0, 59, 0
2, 141240, Control_c, 0, 64, 0
2, 141240, Note_on_c, 0, 42, 0
2, 141300, Note_on_c, 0, 38, 71
2, 141342, Control_c, 0, 64, 127
2, 141500, Note_on_c, 0, 81, 85
2, 141500, Note_on_c, 0, 45, 67
2, 141505, Note_on_c, 0, 69, 75
2, 141675, Note_on_c, 0, 50, 66
2, 141765, Note_on_c, 0, 81, 0
2, 141769, Note_on_c, 0, 81, 87
2, 141787, Note_on_c, 0, 76, 78
2, 141792, Note_on_c, 0, 74, 67
2, 141874, Note_on_c, 0, 54, 73
2, 142018, Note_on_c, 0, 74, 0
2, 142018, Note_on_c, 0, 81, 0
2, 142025, Note_on_c, 0, 81, 94
2, 142026, Note_on_c, 0, 69, 0
2, 142029, Note_on_c, 0, 74, 87
2, 142035, Note_on_c, 0, 69, 71
2, 142036, Note_on_c, 0, 62, 86
2, 142042, Note_on_c, 0, 57, 72
2, 142279, Note_on_c, 0, 76, 0
2, 142287, Note_on_c, 0, 76, 101
2, 142410, Note_on_c, 0, 38, 0
2, 142420, Note_on_c, 0, 38, 70
2, 142556, Note_on_c, 0, 74, 0
2, 142563, Note_on_c, 0, 74, 91
2, 142586, Note_on_c, 0, 50, 0
2, 142586, Note_on_c, 0, 69, 0
2, 142591, Note_on_c, 0, 69, 63
2, 142594, Note_on_c, 0, 50, 72
2, 142729, Control_c, 0, 64, 0
2, 142733, Note_on_c, 0, 45, 0
2, 142734, Note_on_c, 0, 69, 0
2, 142734, Note_on_c, 0, 62, 0
2, 142734, Note_on_c, 0, 54, 0
2, 142734, Note_on_c, 0, 57, 0
2, 142734, Note_on_c, 0, 81, 0
2, 142735, Note_on_c, 0, 74, 0
2, 142735, Note_on_c, 0, 50, 0
2, 142748, Note_on_c, 0, 38, 0
2, 142755, Note_on_c, 0, 76, 0
2, 142766, Note_on_c, 0, 76, 91
2, 142767, Note_on_c, 0, 40, 78
2, 142770, Note_on_c, 0, 69, 82
2, 142809, Control_c, 0, 64, 127
2, 142966, Note_on_c, 0, 68, 73
2, 142974, Note_on_c, 0, 47, 57
2, 142991, Note_on_c, 0, 56, 47
2, 143040, Note_on_c, 0, 69, 0
2, 143045, Note_on_c, 0, 69, 75
2, 143128, Note_on_c, 0, 71, 76
2, 143146, Note_on_c, 0, 52, 66
2, 143312, Note_on_c, 0, 64, 74
2, 143334, Note_on_c, 0, 59, 62
2, 143485, Note_on_c, 0, 71, 0
2, 143496, Note_on_c, 0, 71, 84
2, 143505, Note_on_c, 0, 62, 74
2, 143516, Note_on_c, 0, 69, 0
2, 143523, Note_on_c, 0, 69, 60
2, 143692, Note_on_c, 0, 64, 0
2, 143702, Note_on_c, 0, 64, 60
2, 143797, Note_on_c, 0, 74, 86
2, 143808, Note_on_c, 0, 62, 0
2, 143813, Note_on_c, 0, 62, 54
2, 143900, Note_on_c, 0, 52, 0
2, 143906, Note_on_c, 0, 52, 64
2, 144000, Note_on_c, 0, 64, 0
2, 144007, Note_on_c, 0, 68, 0
2, 144010, Note_on_c, 0, 64, 54
2, 144012, Note_on_c, 0, 68, 59
2, 144015, Note_on_c, 0, 47, 0
2, 144019, Note_on_c, 0, 47, 59
2, 144024, Note_on_c, 0, 74, 0
2, 144024, Note_on_c, 0, 59, 0
2, 144024, Note_on_c, 0, 71, 0
2, 144025, Note_on_c, 0, 62, 0
2, 144025, Control_c, 0, 64, 0
2, 144025, Note_on_c, 0, 76, 0
2, 144030, Note_on_c, 0, 56, 0
2, 144046, Note_on_c, 0, 68, 0
2, 144046, Note_on_c, 0, 73, 88
2, 144061, Note_on_c, 0, 69, 0
2, 144084, Control_c, 0, 64, 127
2, 144207, Note_on_c, 0, 45, 68
2, 144215, Note_on_c, 0, 47, 0
2, 144219, Control_c, 0, 64, 0
2, 144222, Note_on_c, 0, 40, 0
2, 144230, Note_on_c, 0, 52, 0
2, 144268, Control_c, 0, 64, 127
2, 144389, Note_on_c, 0, 69, 73
2, 144414, Note_on_c, 0, 45, 0
2, 144418, Note_on_c, 0, 52, 57
2, 144424, Note_on_c, 0, 45, 52
2, 144573, Note_on_c, 0, 57, 64
2, 144737, Note_on_c, 0, 64, 0
2, 144747, Note_on_c, 0, 64, 70
2, 144926, Note_on_c, 0, 44, 61
2, 144927, Control_c, 0, 64, 0
2, 144933, Note_on_c, 0, 45, 0
2, 144934, Note_on_c, 0, 57, 0
2, 144935, Note_on_c, 0, 69, 0
2, 144940, Note_on_c, 0, 73, 0
2, 145006, Control_c, 0, 64, 127
2, 145113, Note_on_c, 0, 52, 0
2, 145114, Note_on_c, 0, 59, 68
2, 145117, Note_on_c, 0, 52, 46
2, 145281, Note_on_c, 0, 57, 60
2, 145293, Note_on_c, 0, 74, 58
2, 145294, Note_on_c, 0, 62, 62
2, 145297, Note_on_c, 0, 74, 0
2, 145468, Note_on_c, 0, 61, 64
2, 145643, Note_on_c, 0, 42, 64
2, 145658, Note_on_c, 0, 61, 0
2, 145663, Note_on_c, 0, 61, 67
2, 145689, Control_c, 0, 64, 0
2, 145693, Note_on_c, 0, 62, 0
2, 145693, Note_on_c, 0, 57, 0
2, 145693, Note_on_c, 0, 52, 0
2, 145693, Note_on_c, 0, 59, 0
2, 145694, Note_on_c, 0, 44, 0
2, 145712, Note_on_c, 0, 64, 0
2, 145797, Control_c, 0, 64, 127
2, 146037, Note_on_c, 0, 49, 54
2, 146219, Note_on_c, 0, 57, 58
2, 146243, Note_on_c, 0, 52, 47
2, 146314, Note_on_c, 0, 59, 64
2, 146396, Note_on_c, 0, 61, 0
2, 146405, Note_on_c, 0, 61, 65
2, 146457, Note_on_c, 0, 59, 0
2, 146467, Note_on_c, 0, 59, 60
2, 146542, Note_on_c, 0, 42, 0
2, 146551, Note_on_c, 0, 42, 62
2, 146565, Note_on_c, 0, 57, 0
2, 146575, Note_on_c, 0, 57, 70
2, 146664, Note_on_c, 0, 59, 0
2, 146669, Note_on_c, 0, 59, 73
2, 146764, Note_on_c, 0, 49, 0
2, 146764, Note_on_c, 0, 61, 0
2, 146769, Note_on_c, 0, 61, 75
2, 146770, Note_on_c, 0, 49, 58
2, 146867, Note_on_c, 0, 62, 72
2, 146889, Note_on_c, 0, 50, 50
2, 146941, Note_on_c, 0, 52, 0
2, 146946, Note_on_c, 0, 52, 67
2, 146958, Note_on_c, 0, 64, 74
2, 147059, Note_on_c, 0, 66, 69
2, 147131, Note_on_c, 0, 69, 84
2, 147136, Note_on_c, 0, 38, 69
2, 147142, Note_on_c, 0, 49, 0
2, 147143, Note_on_c, 0, 64, 0
2, 147144, Control_c, 0, 64, 0
2, 147144, Note_on_c, 0, 61, 0
2, 147144, Note_on_c, 0, 62, 0
2, 147144, Note_on_c, 0, 57, 0
2, 147144, Note_on_c, 0, 42, 0
2, 147144, Note_on_c, 0, 66, 0
2, 147156, Note_on_c, 0, 52, 0
2, 147164, Note_on_c, 0, 50, 0
2, 147164, Note_on_c, 0, 59, 0
2, 147210, Control_c, 0, 64, 127
2, 147228, Note_on_c, 0, 68, 76
2, 147301, Note_on_c, 0, 66, 72
2, 147318, Note_on_c, 0, 45, 66
2, 147386, Note_on_c, 0, 68, 0
2, 147395, Note_on_c, 0, 68, 59
2, 147486, Note_on_c, 0, 64, 73
2, 147490, Note_on_c, 0, 50, 68
2, 147519, Control_c, 0, 64, 0
2, 147571, Note_on_c, 0, 66, 0
2, 147571, Control_c, 0, 64, 127
2, 147581, Note_on_c, 0, 66, 68
2, 147648, Note_on_c, 0, 68, 0
2, 147654, Note_on_c, 0, 68, 76
2, 147688, Note_on_c, 0, 54, 70
2, 147740, Note_on_c, 0, 69, 0
2, 147751, Note_on_c, 0, 69, 84
2, 147857, Note_on_c, 0, 74, 82
2, 147862, Note_on_c, 0, 61, 69
2, 147870, Note_on_c, 0, 57, 66
2, 147942, Note_on_c, 0, 73, 79
2, 148024, Note_on_c, 0, 71, 78
2, 148124, Note_on_c, 0, 73, 0
2, 148135, Note_on_c, 0, 73, 92
2, 148185, Note_on_c, 0, 50, 0
2, 148195, Note_on_c, 0, 50, 74
2, 148208, Note_on_c, 0, 74, 0
2, 148220, Note_on_c, 0, 74, 86
2, 148302, Note_on_c, 0, 76, 86
2, 148383, Note_on_c, 0, 78, 82
2, 148465, Note_on_c, 0, 80, 84
2, 148556, Note_on_c, 0, 81, 99
2, 148556, Note_on_c, 0, 40, 90
2, 148577, Note_on_c, 0, 45, 0
2, 148579, Control_c, 0, 64, 0
2, 148581, Note_on_c, 0, 66, 0
2, 148581, Note_on_c, 0, 54, 0
2, 148581, Note_on_c, 0, 71, 0
2, 148581, Note_on_c, 0, 68, 0
2, 148581, Note_on_c, 0, 57, 0
2, 148581, Note_on_c, 0, 61, 0
2, 148581, Note_on_c, 0, 76, 0
2, 148582, Note_on_c, 0, 74, 0
2, 148582, Note_on_c, 0, 78, 0
2, 148584, Note_on_c, 0, 80, 0
2, 148592, Note_on_c, 0, 38, 0
2, 148592, Note_on_c, 0, 50, 0
2, 148592, Note_on_c, 0, 64, 0
2, 148600, Note_on_c, 0, 69, 0
2, 148600, Note_on_c, 0, 73, 0
2, 148654, Control_c, 0, 64, 127
2, 148662, Note_on_c, 0, 80, 84
2, 148753, Note_on_c, 0, 81, 0
2, 148758, Note_on_c, 0, 81, 82
2, 148763, Note_on_c, 0, 47, 70
2, 148830, Note_on_c, 0, 80, 0
2, 148841, Note_on_c, 0, 80, 78
2, 148929, Note_on_c, 0, 76, 81
2, 148929, Note_on_c, 0, 52, 67
2, 149011, Note_on_c, 0, 78, 81
2, 149084, Note_on_c, 0, 80, 0
2, 149094, Note_on_c, 0, 80, 75
2, 149145, Note_on_c, 0, 52, 0
2, 149153, Note_on_c, 0, 52, 63
2, 149153, Note_on_c, 0, 81, 0
2, 149164, Note_on_c, 0, 81, 98
2, 149262, Note_on_c, 0, 86, 97
2, 149265, Note_on_c, 0, 64, 84
2, 149286, Note_on_c, 0, 59, 80
2, 149287, Control_c, 0, 64, 0
2, 149329, Control_c, 0, 64, 127
2, 149342, Note_on_c, 0, 85, 87
2, 149427, Note_on_c, 0, 83, 91
2, 149514, Note_on_c, 0, 85, 0
2, 149520, Note_on_c, 0, 85, 90
2, 149583, Note_on_c, 0, 86, 0
2, 149588, Note_on_c, 0, 86, 93
2, 149618, Note_on_c, 0, 56, 75
2, 149656, Note_on_c, 0, 88, 93
2, 149703, Note_on_c, 0, 90, 91
2, 149787, Note_on_c, 0, 92, 95
2, 149834, Note_on_c, 0, 93, 86
2, 149859, Note_on_c, 0, 76, 0
2, 149948, Note_on_c, 0, 95, 102
2, 149952, Note_on_c, 0, 83, 0
2, 149952, Note_on_c, 0, 88, 0
2, 149952, Note_on_c, 0, 45, 92
2, 149956, Note_on_c, 0, 83, 90
2, 149963, Note_on_c, 0, 88, 87
2, 149979, Note_on_c, 0, 86, 0
2, 149979, Note_on_c, 0, 85, 0
2, 149979, Note_on_c, 0, 56, 0
2, 149979, Note_on_c, 0, 92, 0
2, 149979, Note_on_c, 0, 59, 0
2, 149979, Note_on_c, 0, 47, 0
2, 149980, Note_on_c, 0, 90, 0
2, 149981, Note_on_c, 0, 81, 0
2, 149982, Note_on_c, 0, 78, 0
2, 149982, Note_on_c, 0, 80, 0
2, 149983, Note_on_c, 0, 64, 0
2, 149984, Control_c, 0, 64, 0
2, 149990, Note_on_c, 0, 40, 0
2, 149990, Note_on_c, 0, 52, 0
2, 150082, Control_c, 0, 64, 127
2, 150125, Note_on_c, 0, 52, 75
2, 150248, Note_on_c, 0, 98, 103
2, 150253, Note_on_c, 0, 86, 96
2, 150332, Note_on_c, 0, 59, 67
2, 150512, Note_on_c, 0, 97, 102
2, 150517, Note_on_c, 0, 61, 80
2, 150520, Note_on_c, 0, 52, 0
2, 150520, Note_on_c, 0, 88, 0
2, 150523, Note_on_c, 0, 85, 94
2, 150524, Note_on_c, 0, 52, 68
2, 150524, Note_on_c, 0, 88, 77
2, 150639, Control_c, 0, 64, 0
2, 150641, Note_on_c, 0, 86, 0
2, 150642, Note_on_c, 0, 45, 0
2, 150642, Note_on_c, 0, 59, 0
2, 150643, Note_on_c, 0, 95, 0
2, 150644, Note_on_c, 0, 52, 0
2, 150645, Note_on_c, 0, 61, 0
2, 150650, Note_on_c, 0, 83, 0
2, 150658, Note_on_c, 0, 93, 0
2, 150673, Note_on_c, 0, 98, 0
2, 150691, Note_on_c, 0, 44, 91
2, 150696, Control_c, 0, 64, 127
2, 150876, Note_on_c, 0, 93, 100
2, 150880, Note_on_c, 0, 81, 85
2, 151057, Note_on_c, 0, 59, 84
2, 151070, Note_on_c, 0, 52, 76
2, 151230, Note_on_c, 0, 92, 90
2, 151234, Note_on_c, 0, 80, 86
2, 151393, Note_on_c, 0, 44, 0
2, 151393, Note_on_c, 0, 92, 0
2, 151393, Note_on_c, 0, 80, 0
2, 151393, Control_c, 0, 64, 0
2, 151395, Note_on_c, 0, 52, 0
2, 151395, Note_on_c, 0, 97, 0
2, 151396, Note_on_c, 0, 59, 0
2, 151403, Note_on_c, 0, 85, 0
2, 151403, Note_on_c, 0, 93, 0
2, 151411, Note_on_c, 0, 81, 0
2, 151411, Note_on_c, 0, 88, 0
2, 151413, Note_on_c, 0, 93, 107
2, 151414, Note_on_c, 0, 42, 94
2, 151420, Note_on_c, 0, 81, 93
2, 151472, Control_c, 0, 64, 127
2, 151529, Note_on_c, 0, 92, 90
2, 151610, Note_on_c, 0, 93, 0
2, 151616, Note_on_c, 0, 93, 93
2, 151621, Note_on_c, 0, 49, 64
2, 151706, Note_on_c, 0, 88, 88
2, 151798, Note_on_c, 0, 86, 80
2, 151820, Note_on_c, 0, 52, 64
2, 151881, Note_on_c, 0, 85, 82
2, 151886, Note_on_c, 0, 76, 55
2, 151967, Note_on_c, 0, 83, 81
2, 151983, Note_on_c, 0, 57, 70
2, 152048, Note_on_c, 0, 81, 0
2, 152058, Note_on_c, 0, 81, 82
2, 152125, Note_on_c, 0, 88, 0
2, 152136, Note_on_c, 0, 88, 95
2, 152139, Note_on_c, 0, 64, 76
2, 152150, Note_on_c, 0, 61, 71
2, 152217, Note_on_c, 0, 86, 0
2, 152226, Note_on_c, 0, 86, 84
2, 152302, Note_on_c, 0, 52, 0
2, 152302, Note_on_c, 0, 88, 0
2, 152308, Note_on_c, 0, 52, 59
2, 152310, Note_on_c, 0, 88, 94
2, 152394, Note_on_c, 0, 85, 0
2, 152399, Note_on_c, 0, 85, 83
2, 152471, Note_on_c, 0, 83, 0
2, 152480, Note_on_c, 0, 83, 78
2, 152501, Note_on_c, 0, 57, 0
2, 152510, Note_on_c, 0, 54, 67
2, 152513, Note_on_c, 0, 57, 70
2, 152555, Note_on_c, 0, 81, 0
2, 152560, Note_on_c, 0, 81, 74
2, 152657, Note_on_c, 0, 80, 69
2, 152737, Note_on_c, 0, 78, 72
2, 152832, Note_on_c, 0, 81, 0
2, 152842, Note_on_c, 0, 81, 94
2, 152843, Note_on_c, 0, 38, 79
2, 152862, Note_on_c, 0, 49, 0
2, 152866, Control_c, 0, 64, 0
2, 152866, Note_on_c, 0, 92, 0
2, 152867, Note_on_c, 0, 86, 0
2, 152867, Note_on_c, 0, 88, 0
2, 152867, Note_on_c, 0, 93, 0
2, 152867, Note_on_c, 0, 52, 0
2, 152867, Note_on_c, 0, 54, 0
2, 152867, Note_on_c, 0, 61, 0
2, 152867, Note_on_c, 0, 85, 0
2, 152867, Note_on_c, 0, 64, 0
2, 152868, Note_on_c, 0, 78, 0
2, 152868, Note_on_c, 0, 83, 0
2, 152868, Note_on_c, 0, 80, 0
2, 152871, Note_on_c, 0, 76, 0
2, 152871, Note_on_c, 0, 42, 0
2, 152885, Note_on_c, 0, 57, 0
2, 152929, Note_on_c, 0, 80, 86
2, 152962, Note_on_c, 0, 81, 0
2, 152970, Control_c, 0, 64, 127
2, 153019, Note_on_c, 0, 81, 89
2, 153022, Note_on_c, 0, 45, 68
2, 153130, Note_on_c, 0, 78, 76
2, 153210, Note_on_c, 0, 76, 74
2, 153216, Note_on_c, 0, 50, 65
2, 153288, Note_on_c, 0, 74, 76
2, 153373, Note_on_c, 0, 73, 77
2, 153391, Note_on_c, 0, 54, 64
2, 153453, Note_on_c, 0, 71, 71
2, 153511, Note_on_c, 0, 69, 69
2, 153553, Note_on_c, 0, 76, 0
2, 153559, Note_on_c, 0, 57, 79
2, 153563, Note_on_c, 0, 76, 89
2, 153661, Note_on_c, 0, 73, 0
2, 153669, Note_on_c, 0, 73, 72
2, 153730, Note_on_c, 0, 76, 0
2, 153739, Note_on_c, 0, 76, 77
2, 153830, Note_on_c, 0, 71, 0
2, 153841, Note_on_c, 0, 71, 71
2, 153907, Note_on_c, 0, 69, 0
2, 153911, Note_on_c, 0, 62, 65
2, 153918, Note_on_c, 0, 69, 69
2, 154017, Note_on_c, 0, 68, 66
2, 154102, Note_on_c, 0, 66, 68
2, 154163, Note_on_c, 0, 64, 72
2, 154245, Note_on_c, 0, 62, 0
2, 154249, Note_on_c, 0, 68, 0
2, 154250, Note_on_c, 0, 71, 0
2, 154250, Note_on_c, 0, 81, 0
2, 154250, Note_on_c, 0, 66, 0
2, 154250, Note_on_c, 0, 45, 0
2, 154250, Note_on_c, 0, 78, 0
2, 154250, Note_on_c, 0, 64, 0
2, 154250, Note_on_c, 0, 54, 0
2, 154250, Note_on_c, 0, 80, 0
2, 154250, Note_on_c, 0, 57, 0
2, 154251, Note_on_c, 0, 62, 67
2, 154251, Note_on_c, 0, 76, 0
2, 154251, Note_on_c, 0, 74, 0
2, 154251, Control_c, 0, 64, 0
2, 154254, Note_on_c, 0, 38, 0
2, 154255, Note_on_c, 0, 50, 0
2, 154260, Note_on_c, 0, 69, 0
2, 154265, Note_on_c, 0, 40, 79
2, 154265, Note_on_c, 0, 69, 82
2, 154275, Note_on_c, 0, 62, 0
2, 154275, Note_on_c, 0, 73, 0
2, 154337, Control_c, 0, 64, 127
2, 154429, Note_on_c, 0, 69, 0
2, 154440, Note_on_c, 0, 69, 57
2, 154441, Note_on_c, 0, 64, 63
2, 154464, Note_on_c, 0, 47, 64
2, 154629, Note_on_c, 0, 69, 0
2, 154635, Note_on_c, 0, 69, 71
2, 154641, Note_on_c, 0, 52, 58
2, 154813, Note_on_c, 0, 69, 0
2, 154816, Note_on_c, 0, 71, 84
2, 154818, Note_on_c, 0, 69, 74
2, 154820, Note_on_c, 0, 59, 68
2, 154990, Note_on_c, 0, 64, 0
2, 154995, Note_on_c, 0, 64, 67
2, 155174, Note_on_c, 0, 71, 0
2, 155182, Note_on_c, 0, 69, 0
2, 155184, Note_on_c, 0, 74, 89
2, 155184, Note_on_c, 0, 71, 78
2, 155187, Note_on_c, 0, 62, 80
2, 155187, Note_on_c, 0, 69, 75
2, 155343, Note_on_c, 0, 64, 0
2, 155354, Note_on_c, 0, 64, 76
2, 155527, Note_on_c, 0, 52, 0
2, 155527, Note_on_c, 0, 69, 0
2, 155533, Note_on_c, 0, 76, 87
2, 155535, Note_on_c, 0, 69, 79
2, 155538, Note_on_c, 0, 52, 64
2, 155763, Note_on_c, 0, 45, 71
2, 155927, Note_on_c, 0, 52, 0
2, 155934, Note_on_c, 0, 71, 0
2, 155934, Note_on_c, 0, 81, 86
2, 155936, Note_on_c, 0, 52, 70
2, 155939, Note_on_c, 0, 71, 76
2, 155965, Note_on_c, 0, 76, 0
2, 155969, Note_on_c, 0, 76, 48
2, 156119, Note_on_c, 0, 81, 0
2, 156124, Note_on_c, 0, 81, 91
2, 156130, Note_on_c, 0, 73, 82
2, 156146, Control_c, 0, 64, 0
2, 156152, Note_on_c, 0, 74, 0
2, 156153, Note_on_c, 0, 76, 0
2, 156155, Note_on_c, 0, 71, 0
2, 156158, Note_on_c, 0, 47, 0
2, 156162, Note_on_c, 0, 59, 0
2, 156203, Note_on_c, 0, 64, 0
2, 156218, Control_c, 0, 64, 127
2, 156303, Note_on_c, 0, 59, 65
2, 156372, Note_on_c, 0, 62, 0
2, 156380, Note_on_c, 0, 40, 0
2, 156491, Note_on_c, 0, 61, 57
2, 156672, Note_on_c, 0, 69, 0
2, 156678, Note_on_c, 0, 69, 71
2, 156860, Note_on_c, 0, 44, 53
2, 157032, Note_on_c, 0, 52, 0
2, 157044, Note_on_c, 0, 52, 45
2, 157044, Note_on_c, 0, 71, 55
2, 157045, Note_on_c, 0, 68, 63
2, 157051, Note_on_c, 0, 56, 43
2, 157229, Control_c, 0, 64, 0
2, 157234, Note_on_c, 0, 68, 0
2, 157234, Note_on_c, 0, 71, 0
2, 157234, Note_on_c, 0, 73, 0
2, 157235, Note_on_c, 0, 61, 0
2, 157235, Note_on_c, 0, 59, 0
2, 157236, Note_on_c, 0, 44, 0
2, 157248, Note_on_c, 0, 45, 0
2, 157248, Note_on_c, 0, 56, 0
2, 157248, Note_on_c, 0, 69, 0
2, 157248, Note_on_c, 0, 81, 0
2, 157250, Note_on_c, 0, 42, 50
2, 157252, Note_on_c, 0, 69, 66
2, 157266, Note_on_c, 0, 57, 53
2, 157386, Control_c, 0, 64, 127
2, 157640, Note_on_c, 0, 64, 58
2, 157843, Note_on_c, 0, 62, 55
2, 158184, Note_on_c, 0, 69, 0
2, 158196, Note_on_c, 0, 69, 60
2, 158578, Note_on_c, 0, 71, 60
2, 158763, Note_on_c, 0, 45, 46
2, 158765, Note_on_c, 0, 38, 46
2, 158785, Control_c, 0, 64, 0
2, 158795, Note_on_c, 0, 64, 0
2, 158795, Note_on_c, 0, 57, 0
2, 158796, Note_on_c, 0, 42, 0
2, 158814, Note_on_c, 0, 52, 0
2, 158899, Control_c, 0, 64, 127
2, 158977, Note_on_c, 0, 73, 68
2, 159524, Note_on_c, 0, 57, 43
2, 159535, Note_on_c, 0, 42, 42
2, 159539, Note_on_c, 0, 54, 37
2, 159544, Note_on_c, 0, 42, 0
2, 159544, Note_on_c, 0, 61, 45
2, 159720, Note_on_c, 0, 69, 0
2, 159729, Note_on_c, 0, 69, 68
2, 159751, Control_c, 0, 64, 0
2, 159767, Control_c, 0, 64, 127
2, 160113, Note_on_c, 0, 68, 65
2, 160135, Note_on_c, 0, 38, 0
2, 160266, Note_on_c, 0, 62, 0
2, 160312, Note_on_c, 0, 69, 0
2, 160318, Note_on_c, 0, 69, 60
2, 160321, Note_on_c, 0, 28, 53
2, 160323, Note_on_c, 0, 40, 51
2, 160327, Note_on_c, 0, 28, 0
2, 160370, Control_c, 0, 64, 0
2, 160375, Note_on_c, 0, 45, 0
2, 160376, Note_on_c, 0, 54, 0
2, 160376, Note_on_c, 0, 57, 0
2, 160376, Note_on_c, 0, 61, 0
2, 160378, Note_on_c, 0, 68, 0
2, 160389, Note_on_c, 0, 71, 0
2, 160389, Note_on_c, 0, 73, 0
2, 160611, Control_c, 0, 64, 127
2, 160703, Note_on_c, 0, 64, 52
2, 160887, Note_on_c, 0, 62, 58
2, 161256, Note_on_c, 0, 69, 0
2, 161261, Note_on_c, 0, 69, 61
2, 161622, Note_on_c, 0, 71, 58
2, 161806, Note_on_c, 0, 45, 51
2, 161807, Note_on_c, 0, 52, 42
2, 161843, Control_c, 0, 64, 0
2, 161847, Note_on_c, 0, 40, 0
2, 161849, Note_on_c, 0, 62, 0
2, 161849, Note_on_c, 0, 64, 0
2, 161963, Control_c, 0, 64, 127
2, 161989, Note_on_c, 0, 73, 70
2, 162009, Note_on_c, 0, 45, 0
2, 162019, Note_on_c, 0, 45, 36
2, 162163, Note_on_c, 0, 69, 0
2, 162173, Note_on_c, 0, 69, 60
2, 162567, Note_on_c, 0, 59, 46
2, 162572, Note_on_c, 0, 61, 47
2, 162746, Note_on_c, 0, 69, 0
2, 162757, Note_on_c, 0, 69, 75
2, 162944, Note_on_c, 0, 44, 54
2, 163126, Note_on_c, 0, 68, 73
2, 163143, Note_on_c, 0, 56, 36
2, 163153, Note_on_c, 0, 56, 0
2, 163322, Note_on_c, 0, 69, 0
2, 163327, Note_on_c, 0, 42, 47
2, 163329, Note_on_c, 0, 69, 68
2, 163357, Note_on_c, 0, 57, 49
2, 163365, Control_c, 0, 64, 0
2, 163368, Note_on_c, 0, 71, 0
2, 163371, Note_on_c, 0, 59, 0
2, 163371, Note_on_c, 0, 45, 0
2, 163371, Note_on_c, 0, 61, 0
2, 163371, Note_on_c, 0, 68, 0
2, 163373, Note_on_c, 0, 73, 0
2, 163373, Note_on_c, 0, 44, 0
2, 163599, Control_c, 0, 64, 127
2, 163713, Note_on_c, 0, 64, 56
2, 163911, Note_on_c, 0, 62, 67
2, 164206, Note_on_c, 0, 52, 0
2, 164298, Note_on_c, 0, 69, 0
2, 164302, Note_on_c, 0, 69, 70
2, 164382, Control_c, 0, 64, 0
2, 164467, Control_c, 0, 64, 127
2, 164672, Note_on_c, 0, 71, 66
2, 164865, Note_on_c, 0, 45, 50
2, 164868, Note_on_c, 0, 54, 34
2, 164891, Control_c, 0, 64, 0
2, 164901, Note_on_c, 0, 62, 0
2, 164901, Note_on_c, 0, 64, 0
2, 164902, Note_on_c, 0, 69, 0
2, 164902, Note_on_c, 0, 42, 0
2, 165027, Control_c, 0, 64, 127
2, 165075, Note_on_c, 0, 73, 71
2, 165135, Note_on_c, 0, 71, 0
2, 165650, Note_on_c, 0, 69, 62
2, 165665, Note_on_c, 0, 54, 0
2, 165671, Note_on_c, 0, 54, 41
2, 165671, Note_on_c, 0, 61, 41
2, 165855, Note_on_c, 0, 71, 62
2, 166218, Note_on_c, 0, 69, 0
2, 166224, Note_on_c, 0, 69, 65
2, 166413, Note_on_c, 0, 40, 52
2, 166429, Note_on_c, 0, 52, 39
2, 166453, Control_c, 0, 64, 0
2, 166453, Note_on_c, 0, 45, 0
2, 166453, Note_on_c, 0, 71, 0
2, 166455, Note_on_c, 0, 54, 0
2, 166456, Note_on_c, 0, 73, 0
2, 166456, Note_on_c, 0, 61, 0
2, 166471, Note_on_c, 0, 57, 0
2, 166609, Note_on_c, 0, 62, 61
2, 166656, Control_c, 0, 64, 127
2, 166977, Control_c, 0, 64, 0
2, 167001, Note_on_c, 0, 61, 56
2, 167015, Note_on_c, 0, 62, 0
2, 167377, Control_c, 0, 64, 127
2, 167379, Note_on_c, 0, 59, 55
2, 167761, Note_on_c, 0, 59, 0
2, 167765, Note_on_c, 0, 59, 52
2, 167943, Control_c, 0, 64, 0
2, 167951, Note_on_c, 0, 61, 0
2, 167953, Note_on_c, 0, 40, 0
2, 167953, Note_on_c, 0, 59, 0
2, 167961, Note_on_c, 0, 52, 0
2, 167969, Note_on_c, 0, 45, 38
2, 167972, Note_on_c, 0, 52, 34
2, 168092, Control_c, 0, 64, 127
2, 168187, Note_on_c, 0, 57, 48
2, 168391, Note_on_c, 0, 57, 0
2, 168395, Note_on_c, 0, 57, 38
2, 168706, Control_c, 0, 64, 0
2, 169297, Control_c, 0, 64, 127
2, 170833, Note_on_c, 0, 69, 0
2, 170880, Note_on_c, 0, 45, 0
2, 170880, Note_on_c, 0, 52, 0
2, 170880, Note_on_c, 0, 57, 0
2, 171157, Note_on_c, 0, 38, 75
2, 171161, Control_c, 0, 64, 0
2, 171199, Note_on_c, 0, 45, 92
2, 171233, Control_c, 0, 64, 127
2, 171249, Note_on_c, 0, 50, 99
2, 171394, Note_on_c, 0, 50, 0
2, 171403, Note_on_c, 0, 50, 88
2, 171475, Note_on_c, 0, 52, 81
2, 171513, Note_on_c, 0, 54, 83
2, 171553, Note_on_c, 0, 55, 74
2, 171602, Note_on_c, 0, 62, 81
2, 171605, Note_on_c, 0, 57, 82
2, 171655, Note_on_c, 0, 64, 76
2, 171690, Note_on_c, 0, 66, 79
2, 171753, Note_on_c, 0, 67, 79
2, 171765, Note_on_c, 0, 69, 63
2, 171778, Note_on_c, 0, 55, 0
2, 171783, Note_on_c, 0, 55, 71
2, 171875, Note_on_c, 0, 74, 92
2, 171922, Note_on_c, 0, 76, 87
2, 171978, Note_on_c, 0, 74, 0
2, 171982, Note_on_c, 0, 81, 109
2, 171985, Note_on_c, 0, 62, 0
2, 171989, Note_on_c, 0, 74, 94
2, 171993, Note_on_c, 0, 57, 0
2, 171997, Note_on_c, 0, 62, 100
2, 172004, Note_on_c, 0, 57, 82
2, 172007, Note_on_c, 0, 71, 73
2, 172024, Note_on_c, 0, 54, 0
2, 172032, Note_on_c, 0, 54, 56
2, 172193, Note_on_c, 0, 50, 0
2, 172197, Note_on_c, 0, 50, 90
2, 172204, Note_on_c, 0, 82, 110
2, 172212, Note_on_c, 0, 70, 103
2, 172392, Note_on_c, 0, 38, 0
2, 172403, Note_on_c, 0, 38, 106
2, 172608, Note_on_c, 0, 45, 0
2, 172608, Note_on_c, 0, 69, 0
2, 172608, Note_on_c, 0, 81, 0
2, 172614, Note_on_c, 0, 81, 106
2, 172615, Note_on_c, 0, 45, 92
2, 172617, Note_on_c, 0, 69, 100
2, 172899, Note_on_c, 0, 70, 0
2, 172899, Note_on_c, 0, 74, 0
2, 172899, Note_on_c, 0, 82, 0
2, 172903, Control_c, 0, 64, 0
2, 172905, Note_on_c, 0, 82, 106
2, 172907, Note_on_c, 0, 74, 97
2, 172909, Note_on_c, 0, 70, 100
2, 172911, Note_on_c, 0, 71, 0
2, 172912, Note_on_c, 0, 43, 100
2, 172912, Note_on_c, 0, 54, 0
2, 172912, Note_on_c, 0, 45, 0
2, 172912, Note_on_c, 0, 50, 0
2, 172913, Note_on_c, 0, 81, 0
2, 172913, Note_on_c, 0, 38, 0
2, 172915, Note_on_c, 0, 52, 0
2, 172916, Note_on_c, 0, 31, 99
2, 172922, Note_on_c, 0, 64, 0
2, 172922, Note_on_c, 0, 76, 0
2, 172930, Note_on_c, 0, 57, 0
2, 172930, Note_on_c, 0, 62, 0
2, 172930, Note_on_c, 0, 66, 0
2, 172930, Note_on_c, 0, 67, 0
2, 172930, Note_on_c, 0, 69, 0
2, 172961, Note_on_c, 0, 55, 0
2, 172968, Control_c, 0, 64, 127
2, 173137, Note_on_c, 0, 43, 0
2, 173148, Note_on_c, 0, 43, 85
2, 173249, Note_on_c, 0, 50, 77
2, 173301, Note_on_c, 0, 77, 101
2, 173325, Note_on_c, 0, 53, 83
2, 173439, Note_on_c, 0, 55, 90
2, 173490, Note_on_c, 0, 75, 105
2, 173515, Note_on_c, 0, 58, 89
2, 173531, Note_on_c, 0, 76, 62
2, 173611, Note_on_c, 0, 62, 66
2, 173678, Note_on_c, 0, 65, 103
2, 173844, Note_on_c, 0, 55, 0
2, 173844, Note_on_c, 0, 70, 0
2, 173844, Note_on_c, 0, 74, 0
2, 173844, Note_on_c, 0, 82, 0
2, 173853, Note_on_c, 0, 55, 101
2, 173853, Note_on_c, 0, 82, 111
2, 173855, Note_on_c, 0, 70, 100
2, 173855, Note_on_c, 0, 74, 89
2, 174028, Note_on_c, 0, 43, 0
2, 174037, Note_on_c, 0, 43, 98
2, 174197, Note_on_c, 0, 50, 0
2, 174208, Note_on_c, 0, 50, 87
2, 174215, Note_on_c, 0, 84, 108
2, 174216, Note_on_c, 0, 72, 104
2, 174386, Control_c, 0, 64, 0
2, 174386, Note_on_c, 0, 82, 0
2, 174386, Note_on_c, 0, 65, 0
2, 174386, Note_on_c, 0, 53, 0
2, 174386, Note_on_c, 0, 62, 0
2, 174387, Note_on_c, 0, 75, 0
2, 174387, Note_on_c, 0, 74, 0
2, 174387, Note_on_c, 0, 43, 0
2, 174387, Note_on_c, 0, 77, 0
2, 174388, Note_on_c, 0, 84, 0
2, 174389, Note_on_c, 0, 72, 0
2, 174393, Note_on_c, 0, 27, 100
2, 174394, Note_on_c, 0, 39, 89
2, 174397, Note_on_c, 0, 31, 0
2, 174397, Note_on_c, 0, 55, 0
2, 174397, Note_on_c, 0, 76, 0
2, 174405, Note_on_c, 0, 50, 0
2, 174405, Note_on_c, 0, 58, 0
2, 174405, Note_on_c, 0, 70, 0
2, 174451, Control_c, 0, 64, 127
2, 174607, Note_on_c, 0, 86, 108
2, 174608, Note_on_c, 0, 74, 107
2, 174608, Note_on_c, 0, 82, 98
2, 174609, Note_on_c, 0, 79, 82
2, 174766, Note_on_c, 0, 27, 0
2, 174766, Note_on_c, 0, 39, 0
2, 174773, Note_on_c, 0, 39, 70
2, 174776, Note_on_c, 0, 27, 84
2, 174850, Note_on_c, 0, 46, 83
2, 174856, Note_on_c, 0, 51, 79
2, 174950, Note_on_c, 0, 51, 0
2, 174957, Note_on_c, 0, 51, 79
2, 175030, Note_on_c, 0, 55, 85
2, 175145, Note_on_c, 0, 58, 88
2, 175146, Note_on_c, 0, 65, 97
2, 175149, Note_on_c, 0, 62, 95
2, 175319, Note_on_c, 0, 51, 0
2, 175319, Note_on_c, 0, 58, 0
2, 175319, Note_on_c, 0, 82, 0
2, 175325, Note_on_c, 0, 82, 108
2, 175327, Note_on_c, 0, 51, 88
2, 175327, Note_on_c, 0, 70, 103
2, 175328, Note_on_c, 0, 58, 88
2, 175503, Note_on_c, 0, 39, 0
2, 175507, Note_on_c, 0, 39, 82
2, 175680, Note_on_c, 0, 46, 0
2, 175684, Note_on_c, 0, 46, 87
2, 175685, Note_on_c, 0, 81, 106
2, 175691, Note_on_c, 0, 69, 96
2, 175865, Note_on_c, 0, 39, 0
2, 175866, Control_c, 0, 64, 0
2, 175866, Note_on_c, 0, 79, 0
2, 175867, Note_on_c, 0, 65, 0
2, 175867, Note_on_c, 0, 58, 0
2, 175867, Note_on_c, 0, 46, 0
2, 175867, Note_on_c, 0, 62, 0
2, 175867, Note_on_c, 0, 86, 0
2, 175867, Note_on_c, 0, 55, 0
2, 175867, Note_on_c, 0, 74, 0
2, 175868, Note_on_c, 0, 81, 0
2, 175869, Note_on_c, 0, 69, 0
2, 175872, Note_on_c, 0, 70, 0
2, 175872, Note_on_c, 0, 82, 0
2, 175877, Note_on_c, 0, 41, 98
2, 175879, Note_on_c, 0, 27, 0
2, 175880, Note_on_c, 0, 72, 100
2, 175880, Note_on_c, 0, 29, 98
2, 175883, Note_on_c, 0, 82, 108
2, 175883, Note_on_c, 0, 70, 99
2, 175887, Note_on_c, 0, 51, 0
2, 175933, Control_c, 0, 64, 127
2, 176071, Note_on_c, 0, 41, 0
2, 176082, Note_on_c, 0, 41, 78
2, 176153, Note_on_c, 0, 48, 80
2, 176217, Note_on_c, 0, 41, 0
2, 176223, Note_on_c, 0, 41, 80
2, 176268, Note_on_c, 0, 77, 106
2, 176351, Note_on_c, 0, 53, 79
2, 176443, Note_on_c, 0, 57, 90
2, 176444, Note_on_c, 0, 75, 101
2, 176455, Note_on_c, 0, 48, 0
2, 176465, Note_on_c, 0, 48, 61
2, 176534, Note_on_c, 0, 60, 89
2, 176619, Note_on_c, 0, 65, 103
2, 176793, Note_on_c, 0, 41, 0
2, 176793, Note_on_c, 0, 53, 0
2, 176800, Note_on_c, 0, 41, 93
2, 176801, Note_on_c, 0, 70, 0
2, 176801, Note_on_c, 0, 82, 0
2, 176801, Note_on_c, 0, 53, 99
2, 176806, Note_on_c, 0, 82, 107
2, 176809, Note_on_c, 0, 70, 98
2, 176962, Note_on_c, 0, 41, 0
2, 176971, Note_on_c, 0, 41, 94
2, 177162, Note_on_c, 0, 48, 0
2, 177162, Note_on_c, 0, 72, 0
2, 177166, Note_on_c, 0, 48, 88
2, 177167, Note_on_c, 0, 84, 103
2, 177169, Note_on_c, 0, 72, 101
2, 177171, Note_on_c, 0, 36, 82
2, 177207, Control_c, 0, 64, 0
2, 177225, Note_on_c, 0, 65, 0
2, 177232, Note_on_c, 0, 82, 0
2, 177237, Note_on_c, 0, 60, 0
2, 177237, Note_on_c, 0, 53, 0
2, 177240, Note_on_c, 0, 70, 0
2, 177240, Note_on_c, 0, 77, 0
2, 177240, Note_on_c, 0, 41, 0
2, 177241, Note_on_c, 0, 75, 0
2, 177242, Note_on_c, 0, 48, 0
2, 177243, Note_on_c, 0, 57, 0
2, 177254, Note_on_c, 0, 36, 0
2, 177262, Note_on_c, 0, 29, 0
2, 177315, Control_c, 0, 64, 127
2, 177322, Note_on_c, 0, 46, 97
2, 177322, Note_on_c, 0, 34, 97
2, 177507, Note_on_c, 0, 46, 0
2, 177517, Note_on_c, 0, 46, 91
2, 177523, Note_on_c, 0, 86, 100
2, 177526, Note_on_c, 0, 74, 95
2, 177699, Note_on_c, 0, 74, 0
2, 177703, Note_on_c, 0, 82, 107
2, 177705, Note_on_c, 0, 58, 90
2, 177706, Note_on_c, 0, 74, 95
2, 177711, Note_on_c, 0, 77, 86
2, 177875, Note_on_c, 0, 65, 87
2, 177980, Note_on_c, 0, 63, 90
2, 178058, Note_on_c, 0, 62, 102
2, 178229, Note_on_c, 0, 58, 0
2, 178237, Note_on_c, 0, 82, 0
2, 178238, Note_on_c, 0, 58, 98
2, 178247, Note_on_c, 0, 82, 108
2, 178248, Note_on_c, 0, 70, 97
2, 178398, Note_on_c, 0, 34, 0
2, 178404, Note_on_c, 0, 34, 105
2, 178592, Note_on_c, 0, 45, 90
2, 178592, Note_on_c, 0, 81, 99
2, 178594, Note_on_c, 0, 33, 90
2, 178595, Note_on_c, 0, 69, 93
2, 178765, Note_on_c, 0, 33, 0
2, 178765, Note_on_c, 0, 45, 0
2, 178766, Note_on_c, 0, 65, 0
2, 178766, Note_on_c, 0, 34, 0
2, 178766, Note_on_c, 0, 84, 0
2, 178767, Note_on_c, 0, 46, 0
2, 178767, Note_on_c, 0, 86, 0
2, 178768, Note_on_c, 0, 77, 0
2, 178768, Note_on_c, 0, 69, 0
2, 178768, Note_on_c, 0, 62, 0
2, 178768, Note_on_c, 0, 63, 0
2, 178769, Note_on_c, 0, 81, 0
2, 178771, Control_c, 0, 64, 0
2, 178782, Note_on_c, 0, 72, 0
2, 178790, Note_on_c, 0, 58, 0
2, 178790, Note_on_c, 0, 70, 0
2, 178790, Note_on_c, 0, 74, 0
2, 178790, Note_on_c, 0, 82, 0
2, 178794, Note_on_c, 0, 82, 106
2, 178797, Note_on_c, 0, 74, 96
2, 178797, Note_on_c, 0, 70, 100
2, 178799, Note_on_c, 0, 43, 101
2, 178801, Note_on_c, 0, 31, 100
2, 178836, Control_c, 0, 64, 127
2, 179089, Note_on_c, 0, 50, 73
2, 179089, Note_on_c, 0, 70, 0
2, 179095, Note_on_c, 0, 70, 66
2, 179171, Note_on_c, 0, 77, 100
2, 179172, Note_on_c, 0, 41, 74
2, 179174, Note_on_c, 0, 53, 74
2, 179182, Note_on_c, 0, 41, 0
2, 179278, Note_on_c, 0, 55, 82
2, 179347, Note_on_c, 0, 75, 103
2, 179363, Note_on_c, 0, 58, 85
2, 179481, Note_on_c, 0, 74, 0
2, 179487, Note_on_c, 0, 74, 81
2, 179491, Note_on_c, 0, 62, 82
2, 179523, Note_on_c, 0, 65, 105
2, 179696, Note_on_c, 0, 55, 0
2, 179696, Note_on_c, 0, 82, 0
2, 179704, Note_on_c, 0, 70, 0
2, 179706, Note_on_c, 0, 82, 109
2, 179706, Note_on_c, 0, 55, 97
2, 179709, Note_on_c, 0, 70, 97
2, 179873, Note_on_c, 0, 43, 0
2, 179878, Note_on_c, 0, 43, 99
2, 179880, Note_on_c, 0, 31, 0
2, 179885, Note_on_c, 0, 31, 81
2, 180049, Note_on_c, 0, 31, 0
2, 180055, Note_on_c, 0, 31, 81
2, 180057, Note_on_c, 0, 38, 81
2, 180057, Note_on_c, 0, 84, 105
2, 180058, Note_on_c, 0, 26, 98
2, 180059, Note_on_c, 0, 72, 101
2, 180065, Note_on_c, 0, 26, 0
2, 180230, Note_on_c, 0, 27, 101
2, 180231, Note_on_c, 0, 39, 89
2, 180272, Control_c, 0, 64, 0
2, 180288, Control_c, 0, 64, 127
2, 180418, Note_on_c, 0, 74, 0
2, 180418, Note_on_c, 0, 82, 0
2, 180423, Note_on_c, 0, 86, 103
2, 180423, Note_on_c, 0, 74, 107
2, 180426, Note_on_c, 0, 82, 97
2, 180594, Note_on_c, 0, 51, 64
2, 180687, Note_on_c, 0, 55, 0
2, 180698, Note_on_c, 0, 55, 77
2, 180764, Note_on_c, 0, 58, 0
2, 180773, Note_on_c, 0, 58, 83
2, 180779, Note_on_c, 0, 62, 0
2, 180779, Note_on_c, 0, 65, 0
2, 180788, Note_on_c, 0, 62, 88
2, 180790, Note_on_c, 0, 65, 89
2, 180971, Note_on_c, 0, 58, 0
2, 180971, Note_on_c, 0, 70, 0
2, 180971, Note_on_c, 0, 82, 0
2, 180977, Note_on_c, 0, 70, 105
2, 180978, Note_on_c, 0, 58, 80
2, 180978, Note_on_c, 0, 82, 109
2, 181140, Note_on_c, 0, 51, 0
2, 181145, Note_on_c, 0, 51, 88
2, 181148, Note_on_c, 0, 38, 0
2, 181148, Note_on_c, 0, 39, 0
2, 181156, Note_on_c, 0, 39, 82
2, 181159, Control_c, 0, 64, 0
2, 181166, Note_on_c, 0, 75, 0
2, 181167, Note_on_c, 0, 74, 0
2, 181171, Note_on_c, 0, 43, 0
2, 181171, Note_on_c, 0, 72, 0
2, 181171, Note_on_c, 0, 84, 0
2, 181175, Note_on_c, 0, 72, 97
2, 181175, Note_on_c, 0, 84, 102
2, 181194, Note_on_c, 0, 53, 0
2, 181201, Note_on_c, 0, 50, 0
2, 181201, Note_on_c, 0, 65, 0
2, 181201, Control_c, 0, 64, 127
2, 181209, Note_on_c, 0, 62, 0
2, 181248, Note_on_c, 0, 31, 0
2, 181340, Note_on_c, 0, 27, 0
2, 181340, Note_on_c, 0, 39, 0
2, 181340, Note_on_c, 0, 77, 0
2, 181344, Note_on_c, 0, 39, 82
2, 181345, Note_on_c, 0, 27, 83
2, 181501, Note_on_c, 0, 27, 0
2, 181504, Control_c, 0, 64, 0
2, 181509, Note_on_c, 0, 39, 0
2, 181512, Note_on_c, 0, 27, 87
2, 181513, Note_on_c, 0, 39, 86
2, 181524, Note_on_c, 0, 86, 0
2, 181532, Note_on_c, 0, 70, 0
2, 181532, Note_on_c, 0, 82, 0
2, 181537, Note_on_c, 0, 82, 107
2, 181537, Note_on_c, 0, 70, 96
2, 181541, Note_on_c, 0, 75, 104
2, 181593, Control_c, 0, 64, 127
2, 181616, Note_on_c, 0, 58, 0
2, 181639, Note_on_c, 0, 51, 0
2, 181639, Note_on_c, 0, 72, 0
2, 181643, Note_on_c, 0, 55, 0
2, 181643, Note_on_c, 0, 39, 0
2, 181644, Note_on_c, 0, 84, 0
2, 181644, Note_on_c, 0, 27, 0
2, 181644, Control_c, 0, 64, 0
2, 181655, Control_c, 0, 64, 127
2, 181720, Note_on_c, 0, 41, 85
2, 181725, Note_on_c, 0, 29, 96
2, 181893, Note_on_c, 0, 75, 0
2, 181900, Note_on_c, 0, 70, 0
2, 181904, Note_on_c, 0, 75, 99
2, 181906, Note_on_c, 0, 70, 79
2, 181913, Note_on_c, 0, 67, 76
2, 181921, Control_c, 0, 64, 0
2, 181946, Control_c, 0, 64, 127
2, 182077, Note_on_c, 0, 41, 0
2, 182088, Note_on_c, 0, 41, 76
2, 182261, Note_on_c, 0, 70, 0
2, 182263, Note_on_c, 0, 74, 97
2, 182266, Note_on_c, 0, 55, 90
2, 182266, Note_on_c, 0, 65, 87
2, 182266, Note_on_c, 0, 70, 87
2, 182446, Note_on_c, 0, 41, 0
2, 182456, Note_on_c, 0, 41, 76
2, 182631, Note_on_c, 0, 57, 89
2, 182634, Note_on_c, 0, 72, 97
2, 182638, Note_on_c, 0, 82, 0
2, 182643, Note_on_c, 0, 69, 88
2, 182654, Note_on_c, 0, 63, 85
2, 182664, Note_on_c, 0, 65, 0
2, 182664, Note_on_c, 0, 55, 0
2, 182665, Control_c, 0, 64, 0
2, 182665, Note_on_c, 0, 70, 0
2, 182666, Note_on_c, 0, 74, 0
2, 182666, Note_on_c, 0, 67, 0
2, 182666, Note_on_c, 0, 75, 0
2, 182691, Note_on_c, 0, 41, 0
2, 182699, Note_on_c, 0, 29, 0
2, 182737, Control_c, 0, 64, 127
2, 182817, Note_on_c, 0, 41, 74
2, 182991, Note_on_c, 0, 63, 0
2, 182991, Note_on_c, 0, 72, 0
2, 182999, Note_on_c, 0, 69, 0
2, 182999, Note_on_c, 0, 72, 95
2, 183002, Note_on_c, 0, 63, 92
2, 183010, Note_on_c, 0, 69, 75
2, 183012, Note_on_c, 0, 48, 69
2, 183018, Control_c, 0, 64, 0
2, 183068, Control_c, 0, 64, 127
2, 183152, Note_on_c, 0, 57, 0
2, 183185, Note_on_c, 0, 34, 85
2, 183186, Note_on_c, 0, 46, 90
2, 183201, Control_c, 0, 64, 0
2, 183202, Note_on_c, 0, 48, 0
2, 183205, Note_on_c, 0, 41, 0
2, 183260, Control_c, 0, 64, 127
2, 183374, Note_on_c, 0, 70, 85
2, 183544, Note_on_c, 0, 70, 0
2, 183552, Note_on_c, 0, 70, 98
2, 183571, Note_on_c, 0, 65, 81
2, 183573, Note_on_c, 0, 62, 77
2, 183720, Note_on_c, 0, 46, 0
2, 183729, Note_on_c, 0, 46, 75
2, 183903, Note_on_c, 0, 53, 77
2, 184095, Note_on_c, 0, 58, 106
2, 184263, Note_on_c, 0, 45, 73
2, 184445, Note_on_c, 0, 57, 101
2, 184612, Control_c, 0, 64, 0
2, 184614, Note_on_c, 0, 34, 0
2, 184614, Note_on_c, 0, 46, 0
2, 184614, Note_on_c, 0, 65, 0
2, 184615, Note_on_c, 0, 53, 0
2, 184615, Note_on_c, 0, 62, 0
2, 184615, Note_on_c, 0, 70, 0
2, 184615, Note_on_c, 0, 45, 0
2, 184616, Note_on_c, 0, 57, 0
2, 184619, Note_on_c, 0, 72, 0
2, 184627, Note_on_c, 0, 69, 0
2, 184634, Note_on_c, 0, 58, 0
2, 184634, Note_on_c, 0, 63, 0
2, 184640, Note_on_c, 0, 58, 105
2, 184659, Note_on_c, 0, 43, 90
2, 184661, Note_on_c, 0, 31, 90
2, 184665, Control_c, 0, 64, 127
2, 184758, Note_on_c, 0, 60, 85
2, 184840, Note_on_c, 0, 62, 78
2, 184891, Note_on_c, 0, 64, 75
2, 184962, Note_on_c, 0, 65, 79
2, 185016, Note_on_c, 0, 67, 68
2, 185017, Note_on_c, 0, 53, 85
2, 185054, Note_on_c, 0, 69, 84
2, 185095, Note_on_c, 0, 58, 0
2, 185106, Note_on_c, 0, 58, 72
2, 185143, Note_on_c, 0, 72, 81
2, 185191, Note_on_c, 0, 51, 84
2, 185196, Note_on_c, 0, 74, 86
2, 185243, Note_on_c, 0, 75, 78
2, 185329, Note_on_c, 0, 77, 72
2, 185384, Note_on_c, 0, 82, 108
2, 185541, Note_on_c, 0, 58, 0
2, 185552, Note_on_c, 0, 58, 96
2, 185717, Note_on_c, 0, 51, 0
2, 185723, Note_on_c, 0, 51, 82
2, 185886, Note_on_c, 0, 60, 0
2, 185897, Note_on_c, 0, 60, 108
2, 186075, Note_on_c, 0, 77, 0
2, 186076, Note_on_c, 0, 75, 0
2, 186076, Note_on_c, 0, 69, 0
2, 186076, Note_on_c, 0, 65, 0
2, 186076, Note_on_c, 0, 82, 0
2, 186076, Note_on_c, 0, 58, 0
2, 186076, Note_on_c, 0, 64, 0
2, 186076, Note_on_c, 0, 53, 0
2, 186076, Note_on_c, 0, 62, 0
2, 186077, Note_on_c, 0, 43, 0
2, 186077, Note_on_c, 0, 74, 0
2, 186078, Note_on_c, 0, 60, 0
2, 186078, Note_on_c, 0, 72, 0
2, 186078, Note_on_c, 0, 31, 0
2, 186078, Note_on_c, 0, 51, 0
2, 186080, Control_c, 0, 64, 0
2, 186082, Note_on_c, 0, 39, 83
2, 186083, Note_on_c, 0, 51, 82
2, 186094, Note_on_c, 0, 67, 0
2, 186216, Control_c, 0, 64, 127
2, 186261, Note_on_c, 0, 62, 97
2, 186261, Note_on_c, 0, 58, 98
2, 186479, Note_on_c, 0, 77, 77
2, 186572, Note_on_c, 0, 82, 79
2, 186632, Note_on_c, 0, 89, 98
2, 186639, Note_on_c, 0, 51, 0
2, 186648, Note_on_c, 0, 51, 74
2, 186820, Note_on_c, 0, 55, 94
2, 186992, Note_on_c, 0, 58, 0
2, 186997, Note_on_c, 0, 58, 103
2, 187161, Note_on_c, 0, 39, 0
2, 187170, Note_on_c, 0, 39, 78
2, 187351, Note_on_c, 0, 57, 101
2, 187524, Control_c, 0, 64, 0
2, 187527, Note_on_c, 0, 55, 0
2, 187528, Note_on_c, 0, 51, 0
2, 187529, Note_on_c, 0, 77, 0
2, 187530, Note_on_c, 0, 82, 0
2, 187531, Note_on_c, 0, 62, 0
2, 187531, Note_on_c, 0, 39, 0
2, 187533, Note_on_c, 0, 89, 0
2, 187537, Note_on_c, 0, 58, 0
2, 187542, Note_on_c, 0, 57, 0
2, 187545, Note_on_c, 0, 58, 105
2, 187553, Note_on_c, 0, 41, 91
2, 187553, Note_on_c, 0, 29, 96
2, 187614, Control_c, 0, 64, 127
2, 187662, Note_on_c, 0, 60, 89
2, 187726, Note_on_c, 0, 62, 82
2, 187773, Note_on_c, 0, 64, 80
2, 187851, Note_on_c, 0, 65, 81
2, 187904, Note_on_c, 0, 53, 83
2, 187905, Note_on_c, 0, 67, 75
2, 187941, Note_on_c, 0, 69, 87
2, 187980, Note_on_c, 0, 70, 60
2, 188032, Note_on_c, 0, 72, 79
2, 188087, Note_on_c, 0, 74, 85
2, 188093, Note_on_c, 0, 51, 81
2, 188139, Note_on_c, 0, 76, 75
2, 188213, Note_on_c, 0, 77, 77
2, 188269, Note_on_c, 0, 82, 110
2, 188444, Note_on_c, 0, 58, 0
2, 188448, Note_on_c, 0, 58, 98
2, 188620, Note_on_c, 0, 51, 0
2, 188630, Note_on_c, 0, 51, 73
2, 188782, Note_on_c, 0, 60, 0
2, 188792, Note_on_c, 0, 60, 104
2, 188967, Note_on_c, 0, 51, 0
2, 188967, Control_c, 0, 64, 0
2, 188968, Note_on_c, 0, 62, 0
2, 188968, Note_on_c, 0, 77, 0
2, 188968, Note_on_c, 0, 74, 0
2, 188969, Note_on_c, 0, 29, 0
2, 188969, Note_on_c, 0, 53, 0
2, 188969, Note_on_c, 0, 76, 0
2, 188969, Note_on_c, 0, 41, 0
2, 188969, Note_on_c, 0, 82, 0
2, 188969, Note_on_c, 0, 58, 0
2, 188969, Note_on_c, 0, 65, 0
2, 188969, Note_on_c, 0, 69, 0
2, 188970, Note_on_c, 0, 64, 0
2, 188970, Note_on_c, 0, 67, 0
2, 188970, Note_on_c, 0, 72, 0
2, 188970, Note_on_c, 0, 70, 0
2, 188977, Note_on_c, 0, 46, 92
2, 188978, Note_on_c, 0, 34, 94
2, 189035, Control_c, 0, 64, 127
2, 189168, Note_on_c, 0, 62, 95
2, 189355, Note_on_c, 0, 58, 98
2, 189530, Note_on_c, 0, 89, 97
2, 189609, Note_on_c, 0, 87, 81
2, 189693, Note_on_c, 0, 86, 96
2, 189703, Note_on_c, 0, 46, 0
2, 189703, Note_on_c, 0, 58, 0
2, 189708, Note_on_c, 0, 46, 83
2, 189713, Note_on_c, 0, 58, 79
2, 189888, Note_on_c, 0, 58, 0
2, 189898, Note_on_c, 0, 58, 99
2, 190056, Note_on_c, 0, 34, 0
2, 190065, Note_on_c, 0, 34, 86
2, 190080, Note_on_c, 0, 60, 0
2, 190244, Note_on_c, 0, 57, 100
2, 190251, Note_on_c, 0, 33, 81
2, 190253, Note_on_c, 0, 45, 78
2, 190397, Control_c, 0, 64, 0
2, 190398, Note_on_c, 0, 87, 0
2, 190398, Note_on_c, 0, 34, 0
2, 190398, Note_on_c, 0, 86, 0
2, 190399, Note_on_c, 0, 46, 0
2, 190399, Note_on_c, 0, 89, 0
2, 190399, Note_on_c, 0, 45, 0
2, 190399, Note_on_c, 0, 62, 0
2, 190400, Note_on_c, 0, 57, 0
2, 190425, Note_on_c, 0, 33, 0
2, 190425, Note_on_c, 0, 58, 0
2, 190436, Note_on_c, 0, 58, 104
2, 190438, Note_on_c, 0, 43, 93
2, 190439, Note_on_c, 0, 31, 91
2, 190464, Control_c, 0, 64, 127
2, 190546, Note_on_c, 0, 60, 85
2, 190619, Note_on_c, 0, 62, 69
2, 190672, Note_on_c, 0, 64, 82
2, 190716, Note_on_c, 0, 67, 61
2, 190753, Note_on_c, 0, 65, 78
2, 190794, Note_on_c, 0, 67, 0
2, 190798, Note_on_c, 0, 53, 88
2, 190805, Note_on_c, 0, 67, 79
2, 190831, Note_on_c, 0, 69, 81
2, 190863, Note_on_c, 0, 58, 0
2, 190863, Note_on_c, 0, 70, 74
2, 190871, Note_on_c, 0, 58, 85
2, 190925, Note_on_c, 0, 72, 81
2, 190975, Note_on_c, 0, 51, 85
2, 190976, Note_on_c, 0, 74, 86
2, 191021, Note_on_c, 0, 75, 89
2, 191096, Note_on_c, 0, 77, 83
2, 191166, Note_on_c, 0, 82, 104
2, 191339, Note_on_c, 0, 58, 0
2, 191343, Note_on_c, 0, 58, 100
2, 191508, Note_on_c, 0, 51, 0
2, 191519, Note_on_c, 0, 51, 76
2, 191592, Note_on_c, 0, 51, 0
2, 191602, Note_on_c, 0, 51, 73
2, 191685, Note_on_c, 0, 60, 0
2, 191691, Note_on_c, 0, 60, 103
2, 191848, Note_on_c, 0, 75, 0
2, 191848, Note_on_c, 0, 62, 0
2, 191848, Note_on_c, 0, 31, 0
2, 191848, Note_on_c, 0, 77, 0
2, 191848, Note_on_c, 0, 65, 0
2, 191848, Note_on_c, 0, 64, 0
2, 191849, Control_c, 0, 64, 0
2, 191849, Note_on_c, 0, 58, 0
2, 191849, Note_on_c, 0, 74, 0
2, 191849, Note_on_c, 0, 69, 0
2, 191849, Note_on_c, 0, 67, 0
2, 191849, Note_on_c, 0, 43, 0
2, 191849, Note_on_c, 0, 72, 0
2, 191849, Note_on_c, 0, 53, 0
2, 191849, Note_on_c, 0, 70, 0
2, 191850, Note_on_c, 0, 82, 0
2, 191861, Note_on_c, 0, 51, 0
2, 191866, Note_on_c, 0, 39, 86
2, 191868, Note_on_c, 0, 51, 85
2, 191930, Control_c, 0, 64, 127
2, 192048, Note_on_c, 0, 62, 92
2, 192049, Note_on_c, 0, 58, 82
2, 192255, Note_on_c, 0, 77, 73
2, 192357, Note_on_c, 0, 82, 82
2, 192416, Note_on_c, 0, 89, 90
2, 192430, Note_on_c, 0, 51, 0
2, 192434, Note_on_c, 0, 51, 69
2, 192576, Note_on_c, 0, 58, 0
2, 192580, Note_on_c, 0, 58, 92
2, 192584, Note_on_c, 0, 55, 90
2, 192752, Note_on_c, 0, 60, 0
2, 192757, Note_on_c, 0, 60, 99
2, 192936, Note_on_c, 0, 39, 0
2, 192942, Note_on_c, 0, 39, 76
2, 193128, Note_on_c, 0, 58, 0
2, 193136, Note_on_c, 0, 58, 97
2, 193225, Note_on_c, 0, 82, 0
2, 193226, Note_on_c, 0, 89, 0
2, 193226, Note_on_c, 0, 60, 0
2, 193226, Control_c, 0, 64, 0
2, 193226, Note_on_c, 0, 55, 0
2, 193226, Note_on_c, 0, 62, 0
2, 193226, Note_on_c, 0, 51, 0
2, 193227, Note_on_c, 0, 39, 0
2, 193227, Note_on_c, 0, 77, 0
2, 193308, Note_on_c, 0, 29, 88
2, 193309, Note_on_c, 0, 41, 82
2, 193328, Control_c, 0, 64, 127
2, 193501, Note_on_c, 0, 51, 85
2, 193506, Note_on_c, 0, 79, 71
2, 193508, Note_on_c, 0, 75, 76
2, 193509, Note_on_c, 0, 70, 72
2, 193856, Note_on_c, 0, 50, 84
2, 193866, Note_on_c, 0, 70, 0
2, 193869, Note_on_c, 0, 77, 82
2, 193875, Note_on_c, 0, 70, 72
2, 193876, Note_on_c, 0, 74, 73
2, 194035, Note_on_c, 0, 41, 0
2, 194044, Note_on_c, 0, 41, 82
2, 194046, Note_on_c, 0, 65, 69
2, 194227, Note_on_c, 0, 75, 0
2, 194230, Note_on_c, 0, 48, 83
2, 194237, Note_on_c, 0, 75, 84
2, 194242, Note_on_c, 0, 70, 0
2, 194246, Control_c, 0, 64, 0
2, 194250, Note_on_c, 0, 70, 57
2, 194254, Note_on_c, 0, 51, 0
2, 194254, Note_on_c, 0, 65, 0
2, 194254, Note_on_c, 0, 79, 0
2, 194255, Note_on_c, 0, 77, 0
2, 194256, Note_on_c, 0, 69, 59
2, 194256, Note_on_c, 0, 74, 0
2, 194257, Note_on_c, 0, 50, 0
2, 194280, Note_on_c, 0, 58, 0
2, 194342, Control_c, 0, 64, 127
2, 194357, Note_on_c, 0, 29, 0
2, 194580, Note_on_c, 0, 48, 0
2, 194585, Note_on_c, 0, 48, 73
2, 194595, Note_on_c, 0, 70, 0
2, 194603, Note_on_c, 0, 75, 0
2, 194606, Note_on_c, 0, 70, 55
2, 194607, Note_on_c, 0, 75, 80
2, 194775, Note_on_c, 0, 34, 64
2, 194953, Control_c, 0, 64, 0
2, 194954, Note_on_c, 0, 46, 71
2, 194964, Note_on_c, 0, 70, 0
2, 194967, Note_on_c, 0, 74, 74
2, 194967, Note_on_c, 0, 75, 0
2, 194968, Note_on_c, 0, 48, 0
2, 194970, Note_on_c, 0, 70, 60
2, 194995, Note_on_c, 0, 69, 0
2, 194999, Note_on_c, 0, 46, 0
2, 195002, Note_on_c, 0, 41, 0
2, 195014, Note_on_c, 0, 74, 0
2, 195048, Note_on_c, 0, 34, 0
2, 195141, Note_on_c, 0, 70, 0
2, 195145, Note_on_c, 0, 74, 80
2, 195147, Note_on_c, 0, 46, 63
2, 195152, Note_on_c, 0, 70, 62
2, 195157, Note_on_c, 0, 65, 58
2, 195233, Control_c, 0, 64, 127
2, 195336, Note_on_c, 0, 48, 58
2, 195505, Note_on_c, 0, 53, 44
2, 195686, Note_on_c, 0, 70, 0
2, 195694, Note_on_c, 0, 70, 74
2, 195696, Note_on_c, 0, 58, 72
2, 195874, Note_on_c, 0, 60, 72
2, 196061, Note_on_c, 0, 69, 76
2, 196064, Note_on_c, 0, 62, 56
2, 196231, Note_on_c, 0, 70, 0
2, 196239, Note_on_c, 0, 65, 0
2, 196243, Note_on_c, 0, 70, 75
2, 196246, Note_on_c, 0, 65, 62
2, 196247, Note_on_c, 0, 53, 0
2, 196247, Note_on_c, 0, 62, 0
2, 196254, Note_on_c, 0, 58, 0
2, 196257, Note_on_c, 0, 53, 55
2, 196258, Note_on_c, 0, 62, 60
2, 196260, Note_on_c, 0, 58, 49
2, 196260, Note_on_c, 0, 43, 53
2, 196265, Note_on_c, 0, 50, 53
2, 196281, Control_c, 0, 64, 0
2, 196282, Note_on_c, 0, 46, 0
2, 196283, Note_on_c, 0, 69, 0
2, 196284, Note_on_c, 0, 60, 0
2, 196285, Note_on_c, 0, 48, 0
2, 196288, Note_on_c, 0, 74, 0
2, 196439, Control_c, 0, 64, 127
2, 196623, Note_on_c, 0, 65, 0
2, 196633, Note_on_c, 0, 65, 57
2, 196811, Note_on_c, 0, 63, 63
2, 197168, Note_on_c, 0, 70, 0
2, 197176, Note_on_c, 0, 70, 65
2, 197537, Note_on_c, 0, 72, 68
2, 197552, Note_on_c, 0, 62, 0
2, 197722, Note_on_c, 0, 39, 47
2, 197744, Note_on_c, 0, 70, 0
2, 197754, Note_on_c, 0, 46, 41
2, 197755, Note_on_c, 0, 70, 44
2, 197762, Control_c, 0, 64, 0
2, 197770, Note_on_c, 0, 50, 0
2, 197783, Note_on_c, 0, 43, 0
2, 197783, Note_on_c, 0, 53, 0
2, 197798, Note_on_c, 0, 65, 0
2, 197821, Note_on_c, 0, 58, 0
2, 197867, Control_c, 0, 64, 127
2, 197931, Note_on_c, 0, 74, 64
2, 198305, Note_on_c, 0, 63, 0
2, 198312, Note_on_c, 0, 51, 51
2, 198316, Note_on_c, 0, 63, 46
2, 198500, Note_on_c, 0, 58, 63
2, 198507, Note_on_c, 0, 55, 54
2, 198673, Note_on_c, 0, 70, 0
2, 198677, Note_on_c, 0, 70, 62
2, 199027, Note_on_c, 0, 69, 65
2, 199226, Note_on_c, 0, 70, 0
2, 199231, Note_on_c, 0, 70, 75
2, 199246, Note_on_c, 0, 41, 49
2, 199251, Note_on_c, 0, 48, 46
2, 199252, Note_on_c, 0, 57, 52
2, 199258, Note_on_c, 0, 60, 55
2, 199268, Control_c, 0, 64, 0
2, 199272, Note_on_c, 0, 51, 0
2, 199272, Note_on_c, 0, 58, 0
2, 199273, Note_on_c, 0, 63, 0
2, 199273, Note_on_c, 0, 46, 0
2, 199273, Note_on_c, 0, 55, 0
2, 199274, Note_on_c, 0, 69, 0
2, 199275, Note_on_c, 0, 74, 0
2, 199275, Note_on_c, 0, 39, 0
2, 199296, Note_on_c, 0, 72, 0
2, 199395, Control_c, 0, 64, 127
2, 199620, Note_on_c, 0, 65, 59
2, 199795, Note_on_c, 0, 63, 63
2, 200171, Note_on_c, 0, 70, 0
2, 200175, Note_on_c, 0, 70, 63
2, 200567, Note_on_c, 0, 72, 68
2, 200743, Note_on_c, 0, 53, 49
2, 200747, Note_on_c, 0, 41, 0
2, 200747, Note_on_c, 0, 60, 0
2, 200750, Note_on_c, 0, 46, 51
2, 200751, Note_on_c, 0, 41, 41
2, 200752, Note_on_c, 0, 60, 51
2, 200782, Control_c, 0, 64, 0
2, 200787, Note_on_c, 0, 63, 0
2, 200787, Note_on_c, 0, 65, 0
2, 200787, Note_on_c, 0, 57, 0
2, 200788, Note_on_c, 0, 48, 0
2, 200788, Note_on_c, 0, 70, 0
2, 200901, Control_c, 0, 64, 127
2, 200963, Note_on_c, 0, 74, 65
2, 201158, Note_on_c, 0, 70, 63
2, 201315, Note_on_c, 0, 53, 0
2, 201320, Note_on_c, 0, 53, 48
2, 201507, Note_on_c, 0, 58, 61
2, 201509, Note_on_c, 0, 62, 60
2, 201676, Note_on_c, 0, 70, 0
2, 201683, Note_on_c, 0, 70, 65
2, 201871, Note_on_c, 0, 45, 63
2, 202050, Note_on_c, 0, 69, 68
2, 202252, Note_on_c, 0, 70, 0
2, 202255, Note_on_c, 0, 43, 54
2, 202260, Note_on_c, 0, 58, 0
2, 202262, Note_on_c, 0, 50, 49
2, 202263, Note_on_c, 0, 70, 71
2, 202266, Note_on_c, 0, 58, 57
2, 202275, Note_on_c, 0, 60, 0
2, 202279, Note_on_c, 0, 60, 52
2, 202287, Control_c, 0, 64, 0
2, 202292, Note_on_c, 0, 74, 0
2, 202293, Note_on_c, 0, 46, 0
2, 202293, Note_on_c, 0, 45, 0
2, 202294, Note_on_c, 0, 53, 0
2, 202296, Note_on_c, 0, 69, 0
2, 202298, Note_on_c, 0, 41, 0
2, 202298, Note_on_c, 0, 72, 0
2, 202406, Control_c, 0, 64, 127
2, 202634, Note_on_c, 0, 65, 59
2, 202818, Note_on_c, 0, 63, 69
2, 203182, Note_on_c, 0, 70, 0
2, 203187, Note_on_c, 0, 70, 68
2, 203558, Note_on_c, 0, 62, 0
2, 203563, Note_on_c, 0, 72, 73
2, 203740, Note_on_c, 0, 39, 45
2, 203758, Note_on_c, 0, 63, 0
2, 203761, Note_on_c, 0, 46, 46
2, 203762, Note_on_c, 0, 63, 45
2, 203782, Note_on_c, 0, 51, 43
2, 203785, Control_c, 0, 64, 0
2, 203792, Note_on_c, 0, 65, 0
2, 203792, Note_on_c, 0, 50, 0
2, 203793, Note_on_c, 0, 70, 0
2, 203794, Note_on_c, 0, 43, 0
2, 203804, Note_on_c, 0, 60, 0
2, 203857, Note_on_c, 0, 58, 0
2, 203880, Control_c, 0, 64, 127
2, 203946, Note_on_c, 0, 74, 70
2, 204311, Note_on_c, 0, 51, 0
2, 204318, Note_on_c, 0, 51, 49
2, 204318, Note_on_c, 0, 63, 0
2, 204327, Note_on_c, 0, 63, 45
2, 204513, Note_on_c, 0, 58, 66
2, 204519, Note_on_c, 0, 70, 71
2, 204539, Control_c, 0, 64, 0
2, 204544, Note_on_c, 0, 55, 33
2, 204595, Control_c, 0, 64, 127
2, 204695, Note_on_c, 0, 72, 0
2, 204705, Note_on_c, 0, 72, 74
2, 204887, Note_on_c, 0, 51, 0
2, 204897, Note_on_c, 0, 51, 55
2, 205071, Note_on_c, 0, 70, 0
2, 205077, Note_on_c, 0, 70, 69
2, 205263, Note_on_c, 0, 55, 0
2, 205266, Note_on_c, 0, 48, 43
2, 205267, Note_on_c, 0, 41, 45
2, 205270, Note_on_c, 0, 55, 51
2, 205316, Note_on_c, 0, 51, 0
2, 205318, Note_on_c, 0, 58, 0
2, 205318, Note_on_c, 0, 74, 0
2, 205318, Note_on_c, 0, 72, 0
2, 205318, Note_on_c, 0, 63, 0
2, 205318, Control_c, 0, 64, 0
2, 205319, Note_on_c, 0, 46, 0
2, 205319, Note_on_c, 0, 39, 0
2, 205449, Note_on_c, 0, 63, 63
2, 205478, Control_c, 0, 64, 127
2, 205820, Note_on_c, 0, 62, 66
2, 206005, Note_on_c, 0, 57, 52
2, 206051, Control_c, 0, 64, 0
2, 206061, Note_on_c, 0, 63, 0
2, 206146, Control_c, 0, 64, 127
2, 206208, Note_on_c, 0, 55, 0
2, 206209, Note_on_c, 0, 60, 58
2, 206346, Note_on_c, 0, 70, 0
2, 206584, Note_on_c, 0, 60, 0
2, 206589, Note_on_c, 0, 60, 55
2, 206751, Note_on_c, 0, 46, 51
2, 206804, Note_on_c, 0, 62, 0
2, 206804, Control_c, 0, 64, 0
2, 206804, Note_on_c, 0, 57, 0
2, 206804, Note_on_c, 0, 41, 0
2, 206822, Note_on_c, 0, 48, 0
2, 206957, Note_on_c, 0, 58, 56
2, 206991, Control_c, 0, 64, 127
2, 207129, Note_on_c, 0, 58, 0
2, 207135, Note_on_c, 0, 58, 50
2, 207332, Note_on_c, 0, 53, 42
2, 207421, Note_on_c, 0, 60, 0
2, 207498, Note_on_c, 0, 58, 0
2, 207509, Note_on_c, 0, 58, 51
2, 207678, Note_on_c, 0, 82, 75
2, 207702, Note_on_c, 0, 60, 44
2, 207870, Note_on_c, 0, 62, 46
2, 208054, Note_on_c, 0, 81, 69
2, 208054, Note_on_c, 0, 65, 44
2, 208059, Note_on_c, 0, 53, 0
2, 208258, Note_on_c, 0, 82, 0
2, 208267, Note_on_c, 0, 82, 73
2, 208273, Note_on_c, 0, 58, 0
2, 208277, Note_on_c, 0, 55, 39
2, 208281, Note_on_c, 0, 58, 38
2, 208281, Note_on_c, 0, 62, 0
2, 208284, Control_c, 0, 64, 0
2, 208284, Note_on_c, 0, 60, 0
2, 208284, Note_on_c, 0, 46, 0
2, 208285, Note_on_c, 0, 81, 0
2, 208285, Note_on_c, 0, 62, 37
2, 208286, Note_on_c, 0, 70, 46
2, 208450, Control_c, 0, 64, 127
2, 208621, Note_on_c, 0, 77, 57
2, 208815, Note_on_c, 0, 75, 67
2, 209157, Note_on_c, 0, 82, 0
2, 209167, Note_on_c, 0, 82, 73
2, 209531, Note_on_c, 0, 84, 73
2, 209727, Note_on_c, 0, 51, 44
2, 209733, Note_on_c, 0, 58, 0
2, 209735, Note_on_c, 0, 63, 48
2, 209737, Control_c, 0, 64, 0
2, 209740, Note_on_c, 0, 58, 51
2, 209741, Note_on_c, 0, 62, 0
2, 209741, Note_on_c, 0, 65, 0
2, 209742, Note_on_c, 0, 82, 0
2, 209742, Note_on_c, 0, 55, 0
2, 209743, Note_on_c, 0, 84, 0
2, 209744, Note_on_c, 0, 77, 0
2, 209744, Note_on_c, 0, 75, 0
2, 209779, Note_on_c, 0, 70, 0
2, 209840, Control_c, 0, 64, 127
2, 209912, Note_on_c, 0, 86, 71
2, 210293, Note_on_c, 0, 58, 0
2, 210305, Note_on_c, 0, 58, 54
2, 210316, Note_on_c, 0, 63, 0
2, 210324, Note_on_c, 0, 51, 0
2, 210324, Note_on_c, 0, 63, 26
2, 210333, Note_on_c, 0, 51, 29
2, 210485, Note_on_c, 0, 63, 0
2, 210491, Note_on_c, 0, 63, 32
2, 210514, Note_on_c, 0, 67, 40
2, 210704, Note_on_c, 0, 82, 78
2, 211084, Note_on_c, 0, 81, 71
2, 211271, Note_on_c, 0, 53, 41
2, 211276, Note_on_c, 0, 82, 0
2, 211282, Note_on_c, 0, 82, 70
2, 211284, Note_on_c, 0, 72, 60
2, 211289, Note_on_c, 0, 60, 45
2, 211294, Note_on_c, 0, 67, 0
2, 211294, Note_on_c, 0, 69, 51
2, 211296, Note_on_c, 0, 51, 0
2, 211297, Note_on_c, 0, 63, 0
2, 211304, Control_c, 0, 64, 0
2, 211315, Note_on_c, 0, 58, 0
2, 211415, Note_on_c, 0, 86, 0
2, 211415, Control_c, 0, 64, 127
2, 211643, Note_on_c, 0, 77, 58
2, 211829, Note_on_c, 0, 75, 68
2, 212206, Note_on_c, 0, 82, 0
2, 212210, Note_on_c, 0, 82, 75
2, 212584, Note_on_c, 0, 84, 73
2, 212763, Note_on_c, 0, 70, 53
2, 212766, Note_on_c, 0, 69, 0
2, 212768, Note_on_c, 0, 81, 0
2, 212768, Note_on_c, 0, 60, 0
2, 212768, Note_on_c, 0, 77, 0
2, 212768, Note_on_c, 0, 53, 0
2, 212768, Note_on_c, 0, 75, 0
2, 212769, Note_on_c, 0, 72, 0
2, 212770, Control_c, 0, 64, 0
2, 212775, Note_on_c, 0, 58, 48
2, 212777, Note_on_c, 0, 65, 47
2, 212851, Control_c, 0, 64, 127
2, 212962, Note_on_c, 0, 86, 69
2, 212997, Note_on_c, 0, 70, 0
2, 213006, Note_on_c, 0, 70, 37
2, 213120, Note_on_c, 0, 84, 0
2, 213143, Note_on_c, 0, 82, 0
2, 213151, Note_on_c, 0, 82, 72
2, 213327, Note_on_c, 0, 65, 0
2, 213337, Note_on_c, 0, 65, 53
2, 213504, Note_on_c, 0, 72, 59
2, 213696, Note_on_c, 0, 82, 0
2, 213704, Note_on_c, 0, 82, 71
2, 213899, Note_on_c, 0, 57, 53
2, 214077, Note_on_c, 0, 81, 73
2, 214272, Note_on_c, 0, 82, 0
2, 214279, Note_on_c, 0, 70, 0
2, 214279, Note_on_c, 0, 82, 70
2, 214284, Note_on_c, 0, 55, 47
2, 214285, Note_on_c, 0, 70, 60
2, 214287, Note_on_c, 0, 65, 0
2, 214292, Note_on_c, 0, 65, 48
2, 214296, Note_on_c, 0, 72, 0
2, 214297, Note_on_c, 0, 86, 0
2, 214297, Note_on_c, 0, 57, 0
2, 214298, Note_on_c, 0, 81, 0
2, 214299, Control_c, 0, 64, 0
2, 214300, Note_on_c, 0, 62, 47
2, 214302, Note_on_c, 0, 58, 0
2, 214307, Note_on_c, 0, 58, 33
2, 214410, Control_c, 0, 64, 127
2, 214662, Note_on_c, 0, 77, 61
2, 214854, Note_on_c, 0, 75, 69
2, 215201, Note_on_c, 0, 82, 0
2, 215212, Note_on_c, 0, 82, 69
2, 215587, Note_on_c, 0, 84, 73
2, 215761, Note_on_c, 0, 58, 0
2, 215773, Note_on_c, 0, 58, 53
2, 215776, Note_on_c, 0, 63, 48
2, 215777, Note_on_c, 0, 65, 0
2, 215788, Note_on_c, 0, 65, 38
2, 215793, Note_on_c, 0, 51, 40
2, 215797, Control_c, 0, 64, 0
2, 215798, Note_on_c, 0, 82, 0
2, 215799, Note_on_c, 0, 62, 0
2, 215800, Note_on_c, 0, 55, 0
2, 215801, Note_on_c, 0, 77, 0
2, 215802, Note_on_c, 0, 84, 0
2, 215802, Note_on_c, 0, 75, 0
2, 215815, Note_on_c, 0, 70, 0
2, 215892, Control_c, 0, 64, 127
2, 215978, Note_on_c, 0, 86, 69
2, 216322, Note_on_c, 0, 58, 0
2, 216329, Note_on_c, 0, 58, 51
2, 216533, Note_on_c, 0, 82, 73
2, 216537, Note_on_c, 0, 63, 0
2, 216544, Note_on_c, 0, 67, 44
2, 216548, Note_on_c, 0, 63, 52
2, 216551, Note_on_c, 0, 70, 41
2, 216560, Note_on_c, 0, 70, 0
2, 216711, Note_on_c, 0, 84, 73
2, 217098, Note_on_c, 0, 82, 0
2, 217106, Note_on_c, 0, 82, 74
2, 217301, Note_on_c, 0, 60, 45
2, 217302, Note_on_c, 0, 53, 37
2, 217322, Note_on_c, 0, 69, 43
2, 217413, Control_c, 0, 64, 0
2, 217420, Note_on_c, 0, 67, 0
2, 217420, Note_on_c, 0, 86, 0
2, 217436, Note_on_c, 0, 51, 0
2, 217443, Note_on_c, 0, 58, 0
2, 217451, Note_on_c, 0, 82, 0
2, 217451, Note_on_c, 0, 84, 0
2, 217474, Note_on_c, 0, 65, 0
2, 217503, Note_on_c, 0, 75, 65
2, 217589, Control_c, 0, 64, 127
2, 217620, Note_on_c, 0, 63, 0
2, 217872, Note_on_c, 0, 74, 61
2, 218078, Note_on_c, 0, 65, 40
2, 218266, Note_on_c, 0, 72, 55
2, 218649, Note_on_c, 0, 72, 0
2, 218654, Note_on_c, 0, 72, 52
2, 218830, Control_c, 0, 64, 0
2, 218835, Note_on_c, 0, 58, 48
2, 218837, Note_on_c, 0, 74, 0
2, 218837, Note_on_c, 0, 53, 0
2, 218837, Note_on_c, 0, 75, 0
2, 218838, Note_on_c, 0, 69, 0
2, 218838, Note_on_c, 0, 60, 0
2, 219005, Note_on_c, 0, 70, 50
2, 219010, Control_c, 0, 64, 127
2, 219194, Note_on_c, 0, 70, 0
2, 219200, Note_on_c, 0, 70, 53
2, 219555, Note_on_c, 0, 65, 0
2, 219563, Note_on_c, 0, 65, 35
2, 219578, Note_on_c, 0, 70, 0
2, 219584, Note_on_c, 0, 70, 25
2, 219754, Note_on_c, 0, 94, 68
2, 219762, Note_on_c, 0, 82, 67
2, 219778, Note_on_c, 0, 72, 0
2, 219782, Note_on_c, 0, 72, 35
2, 219916, Note_on_c, 0, 70, 0
2, 219927, Note_on_c, 0, 70, 55
2, 220116, Note_on_c, 0, 93, 64
2, 220135, Note_on_c, 0, 81, 45
2, 220314, Control_c, 0, 64, 0
2, 220316, Note_on_c, 0, 94, 0
2, 220316, Note_on_c, 0, 81, 0
2, 220317, Note_on_c, 0, 72, 0
2, 220317, Note_on_c, 0, 93, 0
2, 220324, Note_on_c, 0, 94, 74
2, 220331, Note_on_c, 0, 65, 0
2, 220336, Note_on_c, 0, 62, 44
2, 220339, Note_on_c, 0, 58, 0
2, 220339, Note_on_c, 0, 82, 0
2, 220343, Note_on_c, 0, 82, 62
2, 220344, Note_on_c, 0, 58, 35
2, 220346, Note_on_c, 0, 70, 0
2, 220350, Note_on_c, 0, 55, 36
2, 220385, Control_c, 0, 64, 127
2, 220704, Note_on_c, 0, 89, 62
2, 220713, Note_on_c, 0, 77, 44
2, 220723, Note_on_c, 0, 58, 0
2, 220733, Note_on_c, 0, 58, 28
2, 220896, Note_on_c, 0, 87, 58
2, 221245, Note_on_c, 0, 94, 0
2, 221253, Note_on_c, 0, 82, 0
2, 221256, Note_on_c, 0, 94, 57
2, 221257, Note_on_c, 0, 82, 65
2, 221647, Note_on_c, 0, 96, 59
2, 221650, Note_on_c, 0, 84, 55
2, 221855, Note_on_c, 0, 70, 40
2, 221858, Note_on_c, 0, 63, 40
2, 221858, Note_on_c, 0, 67, 32
2, 221873, Note_on_c, 0, 89, 0
2, 221874, Note_on_c, 0, 77, 0
2, 221875, Note_on_c, 0, 58, 0
2, 221876, Note_on_c, 0, 82, 0
2, 221885, Note_on_c, 0, 58, 23
2, 221890, Note_on_c, 0, 62, 0
2, 221905, Note_on_c, 0, 55, 0
2, 222028, Note_on_c, 0, 87, 0
2, 222039, Note_on_c, 0, 98, 65
2, 222045, Note_on_c, 0, 86, 54
2, 222059, Note_on_c, 0, 84, 0
2, 222073, Control_c, 0, 64, 0
2, 222097, Note_on_c, 0, 94, 0
2, 222128, Note_on_c, 0, 96, 0
2, 222213, Control_c, 0, 64, 127
2, 222837, Note_on_c, 0, 94, 67
2, 222847, Note_on_c, 0, 82, 63
2, 222965, Note_on_c, 0, 58, 0
2, 223198, Note_on_c, 0, 93, 59
2, 223199, Note_on_c, 0, 81, 55
2, 223203, Note_on_c, 0, 98, 0
2, 223207, Note_on_c, 0, 58, 30
2, 223326, Note_on_c, 0, 70, 0
2, 223388, Note_on_c, 0, 94, 0
2, 223394, Note_on_c, 0, 94, 69
2, 223395, Note_on_c, 0, 58, 0
2, 223403, Note_on_c, 0, 82, 0
2, 223408, Note_on_c, 0, 81, 0
2, 223408, Control_c, 0, 64, 0
2, 223411, Note_on_c, 0, 63, 0
2, 223413, Note_on_c, 0, 82, 58
2, 223415, Note_on_c, 0, 65, 29
2, 223422, Note_on_c, 0, 58, 34
2, 223425, Note_on_c, 0, 70, 41
2, 223426, Note_on_c, 0, 67, 0
2, 223434, Note_on_c, 0, 86, 0
2, 223472, Note_on_c, 0, 93, 0
2, 223511, Control_c, 0, 64, 127
2, 223603, Note_on_c, 0, 70, 0
2, 223807, Note_on_c, 0, 89, 60
2, 223814, Note_on_c, 0, 77, 41
2, 224002, Note_on_c, 0, 87, 57
2, 224011, Note_on_c, 0, 75, 52
2, 224378, Note_on_c, 0, 82, 0
2, 224378, Note_on_c, 0, 94, 0
2, 224382, Note_on_c, 0, 94, 63
2, 224387, Note_on_c, 0, 82, 61
2, 224640, Note_on_c, 0, 58, 0
2, 224766, Note_on_c, 0, 96, 59
2, 224772, Note_on_c, 0, 84, 58
2, 224954, Note_on_c, 0, 65, 0
2, 224959, Note_on_c, 0, 65, 37
2, 224989, Control_c, 0, 64, 0
2, 224990, Note_on_c, 0, 70, 36
2, 224991, Note_on_c, 0, 94, 0
2, 224992, Note_on_c, 0, 58, 36
2, 224995, Note_on_c, 0, 84, 0
2, 224995, Note_on_c, 0, 87, 0
2, 224995, Note_on_c, 0, 77, 0
2, 224995, Note_on_c, 0, 89, 0
2, 224996, Note_on_c, 0, 75, 0
2, 225008, Note_on_c, 0, 96, 0
2, 225077, Control_c, 0, 64, 127
2, 225134, Note_on_c, 0, 98, 59
2, 225139, Note_on_c, 0, 82, 0
2, 225142, Note_on_c, 0, 86, 42
2, 225339, Note_on_c, 0, 94, 61
2, 225348, Note_on_c, 0, 82, 59
2, 225914, Note_on_c, 0, 94, 0
2, 225919, Note_on_c, 0, 94, 63
2, 225930, Note_on_c, 0, 82, 0
2, 225939, Note_on_c, 0, 82, 56
2, 226307, Note_on_c, 0, 93, 57
2, 226315, Note_on_c, 0, 81, 44
2, 226321, Note_on_c, 0, 58, 0
2, 226327, Note_on_c, 0, 58, 30
2, 226339, Note_on_c, 0, 62, 19
2, 226506, Note_on_c, 0, 94, 0
2, 226516, Note_on_c, 0, 94, 64
2, 226521, Note_on_c, 0, 82, 0
2, 226525, Note_on_c, 0, 82, 62
2, 226527, Control_c, 0, 64, 0
2, 226536, Note_on_c, 0, 70, 0
2, 226537, Note_on_c, 0, 74, 42
2, 226539, Note_on_c, 0, 81, 0
2, 226541, Note_on_c, 0, 93, 0
2, 226544, Note_on_c, 0, 70, 33
2, 226550, Note_on_c, 0, 67, 25
2, 226552, Note_on_c, 0, 58, 0
2, 226552, Note_on_c, 0, 65, 0
2, 226560, Note_on_c, 0, 62, 0
2, 226560, Note_on_c, 0, 98, 0
2, 226567, Note_on_c, 0, 86, 0
2, 226613, Control_c, 0, 64, 127
2, 226915, Note_on_c, 0, 89, 59
2, 226916, Note_on_c, 0, 77, 50
2, 227112, Note_on_c, 0, 87, 58
2, 227142, Note_on_c, 0, 75, 30
2, 227481, Note_on_c, 0, 94, 0
2, 227492, Note_on_c, 0, 94, 62
2, 227496, Note_on_c, 0, 82, 0
2, 227501, Note_on_c, 0, 82, 60
2, 227891, Note_on_c, 0, 96, 57
2, 227901, Note_on_c, 0, 84, 50
2, 228088, Note_on_c, 0, 70, 0
2, 228099, Note_on_c, 0, 70, 34
2, 228100, Note_on_c, 0, 63, 36
2, 228103, Note_on_c, 0, 67, 0
2, 228115, Note_on_c, 0, 67, 28
2, 228115, Control_c, 0, 64, 0
2, 228126, Note_on_c, 0, 74, 0
2, 228127, Note_on_c, 0, 82, 0
2, 228127, Note_on_c, 0, 87, 0
2, 228128, Note_on_c, 0, 75, 0
2, 228128, Note_on_c, 0, 77, 0
2, 228129, Note_on_c, 0, 89, 0
2, 228272, Note_on_c, 0, 94, 0
2, 228300, Note_on_c, 0, 86, 49
2, 228311, Control_c, 0, 64, 127
2, 228322, Note_on_c, 0, 98, 54
2, 228387, Note_on_c, 0, 84, 0
2, 228387, Control_c, 0, 64, 0
2, 228472, Control_c, 0, 64, 127
2, 228925, Note_on_c, 0, 94, 55
2, 228936, Note_on_c, 0, 82, 47
2, 229125, Note_on_c, 0, 96, 0
2, 229134, Note_on_c, 0, 96, 63
2, 229139, Note_on_c, 0, 84, 62
2, 229547, Note_on_c, 0, 94, 0
2, 229555, Note_on_c, 0, 82, 0
2, 229557, Note_on_c, 0, 94, 62
2, 229559, Note_on_c, 0, 82, 62
2, 229562, Note_on_c, 0, 98, 0
2, 229616, Note_on_c, 0, 70, 0
2, 229624, Note_on_c, 0, 67, 0
2, 229632, Note_on_c, 0, 86, 0
2, 229693, Note_on_c, 0, 63, 0
2, 229747, Note_on_c, 0, 84, 0
2, 229761, Note_on_c, 0, 65, 33
2, 229766, Note_on_c, 0, 69, 35
2, 229766, Note_on_c, 0, 72, 37
2, 229847, Note_on_c, 0, 96, 0
2, 229988, Note_on_c, 0, 87, 55
2, 229989, Note_on_c, 0, 75, 64
2, 230012, Note_on_c, 0, 58, 26
2, 230021, Note_on_c, 0, 70, 27
2, 230023, Note_on_c, 0, 58, 0
2, 230411, Note_on_c, 0, 86, 59
2, 230414, Note_on_c, 0, 74, 55
2, 230434, Note_on_c, 0, 58, 28
2, 230830, Note_on_c, 0, 72, 0
2, 230835, Note_on_c, 0, 84, 47
2, 230840, Note_on_c, 0, 72, 46
2, 231244, Note_on_c, 0, 70, 0
2, 231260, Note_on_c, 0, 72, 0
2, 231260, Note_on_c, 0, 84, 0
2, 231268, Note_on_c, 0, 72, 48
2, 231270, Note_on_c, 0, 84, 54
2, 231490, Note_on_c, 0, 65, 0
2, 231494, Note_on_c, 0, 65, 41
2, 231497, Note_on_c, 0, 62, 27
2, 231498, Note_on_c, 0, 58, 0
2, 231498, Note_on_c, 0, 94, 0
2, 231503, Note_on_c, 0, 58, 41
2, 231713, Note_on_c, 0, 82, 0
2, 231719, Note_on_c, 0, 82, 47
2, 231744, Note_on_c, 0, 70, 26
2, 232005, Note_on_c, 0, 82, 0
2, 232014, Note_on_c, 0, 82, 55
2, 232035, Note_on_c, 0, 70, 0
2, 232039, Note_on_c, 0, 70, 28
2, 232320, Note_on_c, 0, 69, 0
2, 232320, Note_on_c, 0, 75, 0
2, 232320, Note_on_c, 0, 87, 0
2, 232350, Note_on_c, 0, 74, 0
2, 232350, Note_on_c, 0, 86, 0
2, 232394, Control_c, 0, 64, 0
2, 232404, Control_c, 0, 64, 127
2, 232435, Control_c, 0, 64, 0
2, 232573, Control_c, 0, 64, 127
2, 233502, Note_on_c, 0, 84, 0
2, 233506, Note_on_c, 0, 96, 56
2, 233513, Note_on_c, 0, 84, 48
2, 234128, Note_on_c, 0, 94, 60
2, 234132, Note_on_c, 0, 82, 0
2, 234136, Note_on_c, 0, 82, 48
2, 234147, Note_on_c, 0, 62, 0
2, 234155, Note_on_c, 0, 72, 0
2, 234162, Note_on_c, 0, 69, 31
2, 234163, Note_on_c, 0, 65, 0
2, 234163, Note_on_c, 0, 72, 33
2, 234169, Note_on_c, 0, 65, 32
2, 234172, Note_on_c, 0, 75, 41
2, 234198, Note_on_c, 0, 58, 0
2, 234200, Control_c, 0, 64, 0
2, 234209, Note_on_c, 0, 96, 0
2, 234316, Control_c, 0, 64, 127
2, 234370, Note_on_c, 0, 70, 0
2, 234877, Note_on_c, 0, 75, 0
2, 234882, Note_on_c, 0, 75, 49
2, 234883, Note_on_c, 0, 87, 47
2, 235373, Note_on_c, 0, 86, 54
2, 235382, Note_on_c, 0, 74, 47
2, 235476, Note_on_c, 0, 84, 0
2, 235499, Note_on_c, 0, 94, 0
2, 235560, Note_on_c, 0, 72, 0
2, 235881, Note_on_c, 0, 84, 50
2, 235885, Note_on_c, 0, 72, 44
2, 235901, Note_on_c, 0, 58, 25
2, 236160, Note_on_c, 0, 58, 0
2, 236160, Note_on_c, 0, 69, 0
2, 236160, Note_on_c, 0, 82, 0
2, 236167, Note_on_c, 0, 65, 0
2, 236172, Note_on_c, 0, 65, 35
2, 236191, Note_on_c, 0, 62, 19
2, 236196, Note_on_c, 0, 58, 36
2, 236267, Control_c, 0, 64, 0
2, 236352, Control_c, 0, 64, 127
2, 236460, Note_on_c, 0, 82, 49
2, 236483, Note_on_c, 0, 70, 36
2, 236490, Note_on_c, 0, 58, 0
2, 236501, Note_on_c, 0, 58, 27
2, 236828, Note_on_c, 0, 70, 0
2, 236828, Note_on_c, 0, 82, 0
2, 236832, Note_on_c, 0, 82, 47
2, 236839, Note_on_c, 0, 70, 28
2, 236843, Note_on_c, 0, 87, 0
2, 236920, Note_on_c, 0, 86, 0
2, 237050, Control_c, 0, 64, 0
2, 237150, Control_c, 0, 64, 127
2, 237411, Control_c, 0, 64, 0
2, 237841, Control_c, 0, 64, 127
2, 238871, Note_on_c, 0, 84, 0
2, 238881, Note_on_c, 0, 84, 93
2, 238911, Note_on_c, 0, 72, 0
2, 238915, Note_on_c, 0, 65, 0
2, 238917, Note_on_c, 0, 58, 0
2, 238919, Note_on_c, 0, 74, 0
2, 238919, Note_on_c, 0, 82, 0
2, 238940, Note_on_c, 0, 75, 0
2, 239600, Note_on_c, 0, 62, 0
2, 239758, Note_on_c, 0, 53, 48
2, 239850, Note_on_c, 0, 63, 62
2, 239889, Control_c, 0, 64, 0
2, 239914, Note_on_c, 0, 67, 50
2, 239946, Note_on_c, 0, 70, 0
2, 239955, Note_on_c, 0, 70, 59
2, 239961, Control_c, 0, 64, 127
2, 240000, Note_on_c, 0, 84, 0
2, 240026, Note_on_c, 0, 75, 73
2, 240091, Note_on_c, 0, 79, 71
2, 240126, Control_c, 0, 64, 0
2, 240150, Note_on_c, 0, 82, 86
2, 240307, Control_c, 0, 64, 127
2, 242142, Note_on_c, 0, 75, 0
2, 242147, Note_on_c, 0, 75, 58
2, 242165, Note_on_c, 0, 67, 0
2, 242165, Note_on_c, 0, 70, 0
2, 242170, Note_on_c, 0, 70, 34
2, 242171, Note_on_c, 0, 67, 32
2, 242172, Note_on_c, 0, 58, 27
2, 242186, Control_c, 0, 64, 0
2, 242204, Control_c, 0, 64, 127
2, 243186, Note_on_c, 0, 74, 52
2, 243196, Note_on_c, 0, 65, 34
2, 243198, Note_on_c, 0, 69, 36
2, 243223, Note_on_c, 0, 67, 0
2, 243224, Note_on_c, 0, 82, 0
2, 243224, Note_on_c, 0, 70, 0
2, 243224, Note_on_c, 0, 63, 0
2, 243233, Note_on_c, 0, 79, 0
2, 243248, Note_on_c, 0, 58, 0
2, 243264, Note_on_c, 0, 75, 0
2, 243268, Control_c, 0, 64, 0
2, 243287, Note_on_c, 0, 53, 0
2, 243479, Control_c, 0, 64, 127
2, 244362, Note_on_c, 0, 69, 0
2, 244367, Note_on_c, 0, 72, 38
2, 244370, Note_on_c, 0, 69, 35
2, 244400, Note_on_c, 0, 65, 0
2, 244403, Note_on_c, 0, 63, 30
2, 244405, Note_on_c, 0, 65, 14
2, 244406, Control_c, 0, 64, 0
2, 244417, Note_on_c, 0, 74, 0
2, 244753, Note_on_c, 0, 65, 0
2, 244776, Control_c, 0, 64, 127
2, 246197, Note_on_c, 0, 72, 0
2, 246201, Note_on_c, 0, 46, 38
2, 246201, Note_on_c, 0, 72, 51
2, 246213, Note_on_c, 0, 69, 0
2, 246220, Note_on_c, 0, 69, 38
2, 246230, Control_c, 0, 64, 0
2, 246236, Note_on_c, 0, 63, 0
2, 246245, Note_on_c, 0, 63, 25
2, 246328, Control_c, 0, 64, 127
2, 246672, Note_on_c, 0, 53, 32
2, 246904, Note_on_c, 0, 70, 54
2, 246914, Note_on_c, 0, 62, 38
2, 246930, Note_on_c, 0, 58, 38
2, 246933, Control_c, 0, 64, 0
2, 246935, Note_on_c, 0, 65, 37
2, 246951, Note_on_c, 0, 63, 0
2, 246973, Note_on_c, 0, 69, 0
2, 246973, Note_on_c, 0, 72, 0
2, 247057, Control_c, 0, 64, 127
2, 247623, Note_on_c, 0, 45, 50
2, 248080, Note_on_c, 0, 43, 50
2, 248108, Control_c, 0, 64, 0
2, 248114, Note_on_c, 0, 45, 0
2, 248115, Note_on_c, 0, 53, 0
2, 248125, Note_on_c, 0, 46, 0
2, 248140, Note_on_c, 0, 65, 0
2, 248202, Control_c, 0, 64, 127
2, 248513, Note_on_c, 0, 50, 31
2, 248778, Note_on_c, 0, 58, 0
2, 248782, Note_on_c, 0, 58, 50
2, 248828, Control_c, 0, 64, 0
2, 248855, Control_c, 0, 64, 127
2, 249458, Note_on_c, 0, 41, 44
2, 249944, Note_on_c, 0, 39, 43
2, 249949, Note_on_c, 0, 63, 38
2, 249959, Control_c, 0, 64, 0
2, 249962, Note_on_c, 0, 50, 0
2, 249963, Note_on_c, 0, 43, 0
2, 249968, Note_on_c, 0, 62, 0
2, 250022, Control_c, 0, 64, 127
2, 250187, Note_on_c, 0, 46, 49
2, 250410, Note_on_c, 0, 51, 49
2, 250603, Note_on_c, 0, 82, 72
2, 250632, Note_on_c, 0, 53, 48
2, 250836, Note_on_c, 0, 58, 0
2, 250841, Note_on_c, 0, 58, 56
2, 250841, Note_on_c, 0, 81, 79
2, 251059, Note_on_c, 0, 82, 0
2, 251064, Note_on_c, 0, 82, 85
2, 251097, Note_on_c, 0, 63, 0
2, 251103, Note_on_c, 0, 63, 55
2, 251294, Note_on_c, 0, 77, 81
2, 251307, Note_on_c, 0, 65, 55
2, 251512, Note_on_c, 0, 70, 0
2, 251520, Note_on_c, 0, 41, 0
2, 251531, Note_on_c, 0, 72, 76
2, 251766, Note_on_c, 0, 41, 57
2, 251768, Control_c, 0, 64, 0
2, 251768, Note_on_c, 0, 75, 84
2, 251771, Note_on_c, 0, 51, 0
2, 251772, Note_on_c, 0, 63, 0
2, 251773, Note_on_c, 0, 58, 0
2, 251773, Note_on_c, 0, 53, 0
2, 251773, Note_on_c, 0, 65, 0
2, 251774, Note_on_c, 0, 82, 0
2, 251775, Note_on_c, 0, 46, 0
2, 251776, Note_on_c, 0, 81, 0
2, 251776, Note_on_c, 0, 77, 0
2, 251777, Note_on_c, 0, 72, 0
2, 251788, Note_on_c, 0, 39, 0
2, 251880, Control_c, 0, 64, 127
2, 252006, Control_c, 0, 64, 0
2, 252038, Note_on_c, 0, 74, 75
2, 252044, Note_on_c, 0, 48, 52
2, 252057, Control_c, 0, 64, 127
2, 252291, Note_on_c, 0, 70, 69
2, 252292, Note_on_c, 0, 55, 50
2, 252570, Note_on_c, 0, 72, 73
2, 252842, Note_on_c, 0, 69, 65
2, 252843, Note_on_c, 0, 57, 46
2, 252852, Control_c, 0, 64, 0
2, 252867, Note_on_c, 0, 55, 0
2, 252871, Note_on_c, 0, 75, 0
2, 252871, Note_on_c, 0, 74, 0
2, 252872, Note_on_c, 0, 70, 0
2, 252872, Note_on_c, 0, 72, 0
2, 253002, Control_c, 0, 64, 127
2, 253148, Note_on_c, 0, 69, 0
2, 253159, Note_on_c, 0, 69, 46
2, 253159, Note_on_c, 0, 65, 57
2, 253524, Note_on_c, 0, 41, 0
2, 253527, Note_on_c, 0, 60, 56
2, 253534, Note_on_c, 0, 41, 39
2, 253574, Control_c, 0, 64, 0
2, 253585, Note_on_c, 0, 65, 0
2, 253587, Note_on_c, 0, 69, 0
2, 253588, Note_on_c, 0, 57, 0
2, 253608, Note_on_c, 0, 48, 0
2, 253785, Control_c, 0, 64, 127
2, 254012, Note_on_c, 0, 63, 59
2, 254031, Note_on_c, 0, 41, 0
2, 254036, Note_on_c, 0, 41, 25
2, 254773, Note_on_c, 0, 34, 41
2, 254902, Note_on_c, 0, 46, 42
2, 254937, Note_on_c, 0, 60, 0
2, 254943, Note_on_c, 0, 53, 40
2, 255002, Control_c, 0, 64, 0
2, 255041, Note_on_c, 0, 57, 42
2, 255045, Control_c, 0, 64, 127
2, 255102, Note_on_c, 0, 60, 56
2, 255206, Note_on_c, 0, 63, 0
2, 255210, Note_on_c, 0, 63, 65
2, 255267, Control_c, 0, 64, 0
2, 256465, Control_c, 0, 64, 127
2, 257687, Note_on_c, 0, 62, 57
2, 257737, Control_c, 0, 64, 0
2, 257779, Control_c, 0, 64, 127
2, 257817, Note_on_c, 0, 63, 0
2, 257822, Note_on_c, 0, 63, 42
2, 257964, Note_on_c, 0, 65, 51
2, 257986, Note_on_c, 0, 60, 0
2, 258055, Note_on_c, 0, 62, 0
2, 258078, Control_c, 0, 64, 0
2, 258301, Note_on_c, 0, 63, 0
2, 258324, Note_on_c, 0, 57, 0
2, 258583, Note_on_c, 0, 60, 38
2, 258605, Note_on_c, 0, 65, 0
2, 258647, Note_on_c, 0, 41, 0
2, 258647, Note_on_c, 0, 53, 0
2, 258785, Control_c, 0, 64, 127
2, 259200, Note_on_c, 0, 34, 0
2, 259200, Note_on_c, 0, 46, 0
2, 259567, Note_on_c, 0, 22, 33
2, 259569, Note_on_c, 0, 34, 32
2, 259729, Note_on_c, 0, 34, 0
2, 259734, Note_on_c, 0, 34, 35
2, 259752, Note_on_c, 0, 60, 0
2, 259763, Note_on_c, 0, 50, 34
2, 259887, Note_on_c, 0, 53, 38
2, 259975, Note_on_c, 0, 58, 47
2, 260093, Note_on_c, 0, 62, 46
2, 260098, Note_on_c, 0, 50, 0
2, 260109, Note_on_c, 0, 50, 32
2, 263040, Note_on_c, 0, 22, 0
2, 263040, Note_on_c, 0, 34, 0
2, 263040, Note_on_c, 0, 50, 0
2, 263040, Note_on_c, 0, 53, 0
2, 263040, Note_on_c, 0, 58, 0
2, 263040, Note_on_c, 0, 62, 0
2, 263040, Control_c, 0, 64, 0
2, 264837, Control_c, 0, 64, 127
2, 266972, Control_c, 0, 64, 0
2, 266973, End_track
0, 0, End_of_file
