0, 0, Header, 1, 2, 384
1, 0, Start_track
1, 0, Tempo, 500000
1, 0, Time_signature, 4, 2, 24, 8
1, 1, End_track
2, 0, Start_track
2, 61, Control_c, 0, 64, 127
2, 1339, Note_on_c, 0, 77, 76
2, 1482, Note_on_c, 0, 79, 82
2, 1629, Note_on_c, 0, 81, 89
2, 1640, Note_on_c, 0, 52, 51
2, 1644, Control_c, 0, 64, 0
2, 1646, Note_on_c, 0, 79, 0
2, 1647, Note_on_c, 0, 77, 0
2, 1649, Note_on_c, 0, 74, 59
2, 1653, Note_on_c, 0, 70, 68
2, 1758, Control_c, 0, 64, 127
2, 1924, Note_on_c, 0, 58, 57
2, 2223, Note_on_c, 0, 62, 62
2, 2503, Note_on_c, 0, 82, 83
2, 2634, Note_on_c, 0, 81, 0
2, 2642, Note_on_c, 0, 81, 89
2, 2646, Note_on_c, 0, 45, 48
2, 2656, Note_on_c, 0, 69, 66
2, 2668, Note_on_c, 0, 73, 67
2, 2740, Note_on_c, 0, 52, 0
2, 2741, Note_on_c, 0, 82, 0
2, 2741, Note_on_c, 0, 74, 0
2, 2741, Note_on_c, 0, 58, 0
2, 2741, Note_on_c, 0, 45, 0
2, 2741, Note_on_c, 0, 62, 0
2, 2743, Control_c, 0, 64, 0
2, 2744, Note_on_c, 0, 70, 0
2, 2800, Note_on_c, 0, 57, 64
2, 2880, Control_c, 0, 64, 127
2, 3082, Note_on_c, 0, 79, 89
2, 3103, Note_on_c, 0, 61, 59
2, 3382, Note_on_c, 0, 77, 87
2, 3383, Note_on_c, 0, 67, 66
2, 3675, Note_on_c, 0, 76, 78
2, 3962, Note_on_c, 0, 77, 0
2, 3967, Note_on_c, 0, 77, 84
2, 3978, Note_on_c, 0, 69, 0
2, 3982, Note_on_c, 0, 74, 70
2, 3982, Note_on_c, 0, 57, 0
2, 3982, Note_on_c, 0, 69, 69
2, 3982, Note_on_c, 0, 62, 61
2, 3982, Note_on_c, 0, 73, 0
2, 3982, Note_on_c, 0, 61, 0
2, 3983, Note_on_c, 0, 79, 0
2, 3983, Note_on_c, 0, 67, 0
2, 3984, Note_on_c, 0, 50, 66
2, 3985, Note_on_c, 0, 76, 0
2, 3990, Control_c, 0, 64, 0
2, 4001, Note_on_c, 0, 81, 0
2, 4089, Note_on_c, 0, 50, 0
2, 4101, Control_c, 0, 64, 127
2, 4556, Note_on_c, 0, 79, 91
2, 4564, Note_on_c, 0, 60, 66
2, 4565, Note_on_c, 0, 67, 74
2, 4565, Note_on_c, 0, 72, 78
2, 4566, Note_on_c, 0, 52, 65
2, 4584, Note_on_c, 0, 62, 0
2, 4585, Control_c, 0, 64, 0
2, 4589, Note_on_c, 0, 74, 0
2, 4590, Note_on_c, 0, 69, 0
2, 4608, Note_on_c, 0, 77, 0
2, 4692, Control_c, 0, 64, 127
2, 5143, Note_on_c, 0, 81, 91
2, 5153, Note_on_c, 0, 60, 0
2, 5153, Note_on_c, 0, 72, 0
2, 5158, Note_on_c, 0, 53, 61
2, 5159, Note_on_c, 0, 72, 74
2, 5159, Note_on_c, 0, 60, 64
2, 5161, Note_on_c, 0, 52, 0
2, 5162, Note_on_c, 0, 69, 75
2, 5165, Note_on_c, 0, 79, 0
2, 5165, Note_on_c, 0, 67, 0
2, 5167, Control_c, 0, 64, 0
2, 5260, Control_c, 0, 64, 127
2, 5733, Note_on_c, 0, 84, 94
2, 5736, Note_on_c, 0, 60, 0
2, 5736, Note_on_c, 0, 72, 0
2, 5739, Note_on_c, 0, 77, 85
2, 5744, Note_on_c, 0, 57, 70
2, 5744, Note_on_c, 0, 60, 70
2, 5744, Note_on_c, 0, 72, 82
2, 5759, Control_c, 0, 64, 0
2, 5760, Note_on_c, 0, 69, 0
2, 5764, Note_on_c, 0, 81, 0
2, 5765, Note_on_c, 0, 53, 0
2, 5844, Control_c, 0, 64, 127
2, 6270, Note_on_c, 0, 74, 56
2, 6282, Note_on_c, 0, 77, 0
2, 6293, Note_on_c, 0, 77, 72
2, 6332, Note_on_c, 0, 81, 83
2, 6338, Note_on_c, 0, 86, 103
2, 6358, Control_c, 0, 64, 0
2, 6361, Note_on_c, 0, 84, 0
2, 6362, Note_on_c, 0, 57, 0
2, 6362, Note_on_c, 0, 46, 64
2, 6365, Note_on_c, 0, 58, 58
2, 6374, Note_on_c, 0, 72, 0
2, 6382, Note_on_c, 0, 60, 0
2, 6451, Control_c, 0, 64, 127
2, 6535, Note_on_c, 0, 58, 0
2, 6631, Note_on_c, 0, 53, 61
2, 6907, Note_on_c, 0, 58, 60
2, 7215, Note_on_c, 0, 65, 71
2, 7769, Note_on_c, 0, 69, 71
2, 8065, Note_on_c, 0, 70, 93
2, 8342, Note_on_c, 0, 72, 89
2, 8626, Note_on_c, 0, 73, 90
2, 8640, Note_on_c, 0, 46, 0
2, 8640, Note_on_c, 0, 65, 0
2, 8640, Note_on_c, 0, 70, 0
2, 8647, Note_on_c, 0, 65, 68
2, 8649, Note_on_c, 0, 70, 78
2, 8650, Note_on_c, 0, 46, 68
2, 8651, Note_on_c, 0, 67, 59
2, 8666, Note_on_c, 0, 81, 0
2, 8666, Note_on_c, 0, 58, 0
2, 8667, Note_on_c, 0, 86, 0
2, 8667, Note_on_c, 0, 69, 0
2, 8667, Note_on_c, 0, 53, 0
2, 8669, Note_on_c, 0, 74, 0
2, 8673, Note_on_c, 0, 72, 0
2, 8677, Control_c, 0, 64, 0
2, 8678, Note_on_c, 0, 77, 0
2, 8755, Control_c, 0, 64, 127
2, 8943, Note_on_c, 0, 58, 56
2, 9192, Note_on_c, 0, 67, 0
2, 9201, Note_on_c, 0, 67, 68
2, 9500, Note_on_c, 0, 46, 0
2, 9511, Note_on_c, 0, 46, 58
2, 9799, Note_on_c, 0, 70, 0
2, 9809, Note_on_c, 0, 70, 83
2, 9811, Note_on_c, 0, 61, 66
2, 9815, Note_on_c, 0, 65, 0
2, 9826, Note_on_c, 0, 65, 61
2, 9851, Control_c, 0, 64, 0
2, 9856, Note_on_c, 0, 67, 0
2, 9856, Note_on_c, 0, 58, 0
2, 9857, Note_on_c, 0, 46, 0
2, 9858, Note_on_c, 0, 73, 0
2, 9930, Control_c, 0, 64, 127
2, 10402, Note_on_c, 0, 46, 57
2, 11000, Note_on_c, 0, 69, 76
2, 11013, Note_on_c, 0, 65, 0
2, 11017, Note_on_c, 0, 65, 59
2, 11024, Note_on_c, 0, 41, 56
2, 11027, Note_on_c, 0, 60, 57
2, 11048, Control_c, 0, 64, 0
2, 11050, Note_on_c, 0, 61, 0
2, 11050, Note_on_c, 0, 46, 0
2, 11066, Note_on_c, 0, 70, 0
2, 11151, Control_c, 0, 64, 127
2, 11573, Note_on_c, 0, 69, 0
2, 11581, Note_on_c, 0, 65, 0
2, 11584, Note_on_c, 0, 69, 67
2, 11589, Note_on_c, 0, 60, 0
2, 11589, Note_on_c, 0, 65, 51
2, 11600, Note_on_c, 0, 60, 50
2, 12165, Note_on_c, 0, 69, 0
2, 12172, Note_on_c, 0, 65, 0
2, 12173, Note_on_c, 0, 69, 58
2, 12177, Note_on_c, 0, 65, 49
2, 12180, Note_on_c, 0, 60, 0
2, 12184, Note_on_c, 0, 60, 49
2, 12748, Note_on_c, 0, 69, 0
2, 12756, Note_on_c, 0, 60, 0
2, 12756, Note_on_c, 0, 65, 0
2, 12759, Note_on_c, 0, 69, 59
2, 12764, Note_on_c, 0, 60, 53
2, 12766, Note_on_c, 0, 65, 56
2, 13060, Note_on_c, 0, 36, 41
2, 13340, Note_on_c, 0, 69, 0
2, 13344, Note_on_c, 0, 69, 60
2, 13347, Note_on_c, 0, 60, 0
2, 13347, Note_on_c, 0, 65, 0
2, 13354, Note_on_c, 0, 60, 48
2, 13355, Note_on_c, 0, 65, 53
2, 13362, Note_on_c, 0, 57, 43
2, 13365, Note_on_c, 0, 29, 45
2, 13383, Control_c, 0, 64, 0
2, 13401, Note_on_c, 0, 36, 0
2, 13478, Control_c, 0, 64, 127
2, 13939, Note_on_c, 0, 65, 0
2, 13939, Note_on_c, 0, 69, 0
2, 13943, Note_on_c, 0, 69, 59
2, 13949, Note_on_c, 0, 65, 52
2, 13954, Note_on_c, 0, 60, 0
2, 13965, Note_on_c, 0, 60, 44
2, 14515, Note_on_c, 0, 60, 0
2, 14515, Note_on_c, 0, 65, 0
2, 14515, Note_on_c, 0, 69, 0
2, 14519, Note_on_c, 0, 69, 53
2, 14519, Note_on_c, 0, 65, 56
2, 14526, Note_on_c, 0, 60, 50
2, 15106, Note_on_c, 0, 60, 0
2, 15106, Note_on_c, 0, 65, 0
2, 15106, Note_on_c, 0, 69, 0
2, 15110, Note_on_c, 0, 69, 64
2, 15117, Note_on_c, 0, 65, 56
2, 15118, Note_on_c, 0, 60, 51
2, 15134, Control_c, 0, 64, 0
2, 15175, Control_c, 0, 64, 127
2, 15404, Note_on_c, 0, 48, 44
2, 15628, Note_on_c, 0, 41, 0
2, 15684, Note_on_c, 0, 69, 0
2, 15687, Note_on_c, 0, 48, 0
2, 15688, Control_c, 0, 64, 0
2, 15690, Note_on_c, 0, 29, 0
2, 15690, Note_on_c, 0, 65, 0
2, 15694, Note_on_c, 0, 41, 50
2, 15694, Note_on_c, 0, 65, 51
2, 15694, Note_on_c, 0, 29, 47
2, 15697, Note_on_c, 0, 57, 0
2, 15697, Note_on_c, 0, 60, 0
2, 15703, Note_on_c, 0, 53, 53
2, 15703, Note_on_c, 0, 57, 48
2, 15704, Note_on_c, 0, 60, 45
2, 15744, Note_on_c, 0, 29, 0
2, 15751, Control_c, 0, 64, 127
2, 16011, Note_on_c, 0, 77, 82
2, 16296, Note_on_c, 0, 53, 0
2, 16296, Note_on_c, 0, 77, 0
2, 16303, Note_on_c, 0, 77, 82
2, 16304, Note_on_c, 0, 57, 0
2, 16304, Note_on_c, 0, 60, 0
2, 16304, Note_on_c, 0, 65, 0
2, 16308, Note_on_c, 0, 53, 45
2, 16312, Note_on_c, 0, 60, 46
2, 16312, Note_on_c, 0, 65, 51
2, 16314, Note_on_c, 0, 57, 55
2, 16315, Note_on_c, 0, 69, 55
2, 16597, Note_on_c, 0, 76, 79
2, 16742, Note_on_c, 0, 77, 0
2, 16748, Note_on_c, 0, 77, 93
2, 16880, Note_on_c, 0, 57, 0
2, 16880, Note_on_c, 0, 60, 0
2, 16880, Note_on_c, 0, 65, 0
2, 16880, Note_on_c, 0, 69, 0
2, 16884, Note_on_c, 0, 57, 49
2, 16885, Note_on_c, 0, 60, 52
2, 16885, Note_on_c, 0, 65, 59
2, 16892, Note_on_c, 0, 69, 54
2, 17172, Note_on_c, 0, 76, 0
2, 17177, Note_on_c, 0, 76, 85
2, 17310, Note_on_c, 0, 77, 0
2, 17317, Note_on_c, 0, 77, 95
2, 17464, Note_on_c, 0, 60, 0
2, 17464, Note_on_c, 0, 65, 0
2, 17472, Note_on_c, 0, 57, 0
2, 17474, Note_on_c, 0, 65, 66
2, 17475, Note_on_c, 0, 60, 61
2, 17481, Note_on_c, 0, 57, 60
2, 17613, Note_on_c, 0, 79, 92
2, 17886, Note_on_c, 0, 76, 0
2, 17896, Note_on_c, 0, 76, 83
2, 18058, Note_on_c, 0, 41, 0
2, 18058, Note_on_c, 0, 79, 0
2, 18058, Note_on_c, 0, 65, 0
2, 18058, Note_on_c, 0, 57, 0
2, 18058, Note_on_c, 0, 53, 0
2, 18059, Note_on_c, 0, 77, 0
2, 18059, Control_c, 0, 64, 0
2, 18061, Note_on_c, 0, 76, 0
2, 18063, Note_on_c, 0, 60, 0
2, 18070, Note_on_c, 0, 45, 58
2, 18072, Note_on_c, 0, 60, 58
2, 18074, Note_on_c, 0, 64, 71
2, 18075, Note_on_c, 0, 55, 49
2, 18170, Control_c, 0, 64, 127
2, 18647, Note_on_c, 0, 55, 0
2, 18647, Note_on_c, 0, 64, 0
2, 18654, Note_on_c, 0, 60, 0
2, 18657, Note_on_c, 0, 64, 61
2, 18658, Note_on_c, 0, 55, 50
2, 18659, Note_on_c, 0, 60, 56
2, 18956, Note_on_c, 0, 74, 75
2, 19095, Note_on_c, 0, 72, 77
2, 19246, Note_on_c, 0, 55, 0
2, 19246, Note_on_c, 0, 64, 0
2, 19250, Note_on_c, 0, 64, 63
2, 19250, Note_on_c, 0, 55, 52
2, 19253, Note_on_c, 0, 60, 0
2, 19264, Note_on_c, 0, 60, 55
2, 19822, Note_on_c, 0, 55, 0
2, 19829, Note_on_c, 0, 60, 0
2, 19829, Note_on_c, 0, 64, 0
2, 19830, Note_on_c, 0, 55, 56
2, 19834, Note_on_c, 0, 64, 51
2, 19838, Note_on_c, 0, 60, 57
2, 19860, Note_on_c, 0, 69, 0
2, 20106, Note_on_c, 0, 45, 0
2, 20116, Note_on_c, 0, 45, 61
2, 20131, Note_on_c, 0, 70, 72
2, 20252, Note_on_c, 0, 72, 0
2, 20263, Note_on_c, 0, 72, 74
2, 20402, Control_c, 0, 64, 0
2, 20403, Note_on_c, 0, 45, 0
2, 20403, Note_on_c, 0, 60, 0
2, 20403, Note_on_c, 0, 55, 0
2, 20404, Note_on_c, 0, 70, 0
2, 20404, Note_on_c, 0, 72, 0
2, 20404, Note_on_c, 0, 64, 0
2, 20405, Note_on_c, 0, 74, 0
2, 20409, Note_on_c, 0, 74, 81
2, 20421, Note_on_c, 0, 65, 66
2, 20423, Note_on_c, 0, 57, 64
2, 20426, Note_on_c, 0, 62, 60
2, 20430, Note_on_c, 0, 46, 63
2, 20497, Control_c, 0, 64, 127
2, 20705, Note_on_c, 0, 74, 0
2, 20714, Note_on_c, 0, 74, 70
2, 20835, Note_on_c, 0, 74, 0
2, 20846, Note_on_c, 0, 74, 81
2, 20989, Note_on_c, 0, 65, 0
2, 20997, Note_on_c, 0, 57, 0
2, 20997, Note_on_c, 0, 62, 0
2, 20999, Note_on_c, 0, 65, 69
2, 21003, Note_on_c, 0, 45, 51
2, 21007, Note_on_c, 0, 62, 60
2, 21008, Note_on_c, 0, 57, 59
2, 21012, Note_on_c, 0, 45, 0
2, 21304, Note_on_c, 0, 74, 0
2, 21314, Note_on_c, 0, 74, 91
2, 21457, Note_on_c, 0, 74, 0
2, 21464, Note_on_c, 0, 74, 93
2, 21577, Control_c, 0, 64, 0
2, 21578, Note_on_c, 0, 46, 0
2, 21579, Note_on_c, 0, 57, 0
2, 21579, Note_on_c, 0, 62, 0
2, 21579, Note_on_c, 0, 65, 0
2, 21605, Note_on_c, 0, 48, 65
2, 21607, Note_on_c, 0, 55, 58
2, 21609, Note_on_c, 0, 64, 79
2, 21657, Control_c, 0, 64, 127
2, 21880, Note_on_c, 0, 74, 0
2, 21889, Note_on_c, 0, 74, 81
2, 22024, Note_on_c, 0, 72, 87
2, 22164, Note_on_c, 0, 55, 0
2, 22164, Note_on_c, 0, 64, 0
2, 22172, Note_on_c, 0, 48, 0
2, 22173, Note_on_c, 0, 55, 59
2, 22173, Note_on_c, 0, 64, 70
2, 22179, Note_on_c, 0, 48, 50
2, 22182, Note_on_c, 0, 60, 57
2, 22449, Note_on_c, 0, 70, 89
2, 22586, Note_on_c, 0, 72, 0
2, 22591, Note_on_c, 0, 72, 87
2, 22728, Control_c, 0, 64, 0
2, 22728, Note_on_c, 0, 74, 0
2, 22728, Note_on_c, 0, 48, 0
2, 22729, Note_on_c, 0, 72, 0
2, 22729, Note_on_c, 0, 64, 0
2, 22729, Note_on_c, 0, 70, 0
2, 22740, Note_on_c, 0, 55, 0
2, 22755, Note_on_c, 0, 60, 0
2, 22759, Note_on_c, 0, 41, 47
2, 22760, Note_on_c, 0, 65, 65
2, 22763, Note_on_c, 0, 57, 51
2, 22765, Note_on_c, 0, 60, 51
2, 22840, Control_c, 0, 64, 127
2, 23339, Note_on_c, 0, 41, 0
2, 23339, Note_on_c, 0, 57, 0
2, 23339, Note_on_c, 0, 60, 0
2, 23339, Note_on_c, 0, 65, 0
2, 23345, Note_on_c, 0, 65, 54
2, 23349, Note_on_c, 0, 41, 37
2, 23349, Note_on_c, 0, 60, 52
2, 23350, Note_on_c, 0, 57, 45
2, 23910, Note_on_c, 0, 67, 66
2, 23915, Note_on_c, 0, 60, 0
2, 23926, Note_on_c, 0, 60, 56
2, 23926, Note_on_c, 0, 64, 54
2, 23933, Note_on_c, 0, 40, 50
2, 23933, Note_on_c, 0, 52, 53
2, 23956, Control_c, 0, 64, 0
2, 23956, Note_on_c, 0, 65, 0
2, 23956, Note_on_c, 0, 57, 0
2, 23957, Note_on_c, 0, 41, 0
2, 24038, Control_c, 0, 64, 127
2, 24491, Note_on_c, 0, 67, 0
2, 24502, Note_on_c, 0, 67, 65
2, 24506, Note_on_c, 0, 60, 0
2, 24514, Note_on_c, 0, 52, 0
2, 24514, Note_on_c, 0, 64, 0
2, 24514, Note_on_c, 0, 60, 51
2, 24518, Note_on_c, 0, 52, 37
2, 24524, Note_on_c, 0, 64, 36
2, 24775, Note_on_c, 0, 40, 0
2, 24781, Note_on_c, 0, 40, 48
2, 25073, Note_on_c, 0, 40, 0
2, 25074, Note_on_c, 0, 52, 0
2, 25076, Note_on_c, 0, 64, 0
2, 25077, Control_c, 0, 64, 0
2, 25079, Note_on_c, 0, 65, 59
2, 25082, Note_on_c, 0, 60, 0
2, 25088, Note_on_c, 0, 50, 60
2, 25090, Note_on_c, 0, 67, 0
2, 25092, Note_on_c, 0, 38, 59
2, 25092, Note_on_c, 0, 57, 51
2, 25093, Note_on_c, 0, 60, 52
2, 25098, Note_on_c, 0, 57, 0
2, 25159, Control_c, 0, 64, 127
2, 25386, Note_on_c, 0, 77, 81
2, 25506, Note_on_c, 0, 76, 80
2, 25651, Note_on_c, 0, 60, 0
2, 25651, Note_on_c, 0, 77, 0
2, 25658, Note_on_c, 0, 65, 0
2, 25662, Note_on_c, 0, 77, 93
2, 25662, Note_on_c, 0, 60, 67
2, 25664, Note_on_c, 0, 65, 66
2, 25677, Note_on_c, 0, 57, 63
2, 25927, Note_on_c, 0, 76, 0
2, 25937, Note_on_c, 0, 76, 92
2, 26081, Note_on_c, 0, 77, 0
2, 26089, Note_on_c, 0, 77, 95
2, 26204, Note_on_c, 0, 60, 0
2, 26204, Note_on_c, 0, 65, 0
2, 26212, Note_on_c, 0, 60, 73
2, 26213, Note_on_c, 0, 65, 65
2, 26214, Note_on_c, 0, 72, 76
2, 26234, Note_on_c, 0, 57, 0
2, 26239, Note_on_c, 0, 57, 60
2, 26243, Note_on_c, 0, 69, 54
2, 26496, Note_on_c, 0, 76, 0
2, 26500, Note_on_c, 0, 76, 84
2, 26641, Note_on_c, 0, 77, 0
2, 26646, Note_on_c, 0, 77, 94
2, 26780, Note_on_c, 0, 60, 0
2, 26780, Note_on_c, 0, 65, 0
2, 26780, Note_on_c, 0, 72, 0
2, 26787, Note_on_c, 0, 60, 75
2, 26789, Note_on_c, 0, 65, 66
2, 26791, Note_on_c, 0, 72, 75
2, 26795, Note_on_c, 0, 57, 0
2, 26801, Note_on_c, 0, 57, 63
2, 26810, Note_on_c, 0, 38, 0
2, 26810, Note_on_c, 0, 69, 0
2, 26818, Note_on_c, 0, 69, 48
2, 27099, Note_on_c, 0, 79, 96
2, 27235, Note_on_c, 0, 81, 98
2, 27386, Note_on_c, 0, 65, 0
2, 27392, Control_c, 0, 64, 0
2, 27393, Note_on_c, 0, 79, 0
2, 27393, Note_on_c, 0, 60, 0
2, 27395, Note_on_c, 0, 77, 0
2, 27395, Note_on_c, 0, 57, 0
2, 27396, Note_on_c, 0, 76, 0
2, 27396, Note_on_c, 0, 72, 0
2, 27397, Note_on_c, 0, 81, 0
2, 27398, Note_on_c, 0, 65, 64
2, 27405, Note_on_c, 0, 58, 63
2, 27409, Note_on_c, 0, 50, 0
2, 27411, Note_on_c, 0, 43, 52
2, 27413, Note_on_c, 0, 50, 63
2, 27525, Control_c, 0, 64, 127
2, 27970, Note_on_c, 0, 65, 0
2, 27981, Note_on_c, 0, 65, 59
2, 27983, Note_on_c, 0, 62, 57
2, 27985, Note_on_c, 0, 58, 0
2, 27997, Note_on_c, 0, 58, 55
2, 28255, Note_on_c, 0, 74, 75
2, 28377, Note_on_c, 0, 74, 0
2, 28383, Note_on_c, 0, 74, 67
2, 28531, Note_on_c, 0, 65, 0
2, 28542, Note_on_c, 0, 65, 68
2, 28546, Note_on_c, 0, 58, 0
2, 28552, Note_on_c, 0, 58, 64
2, 28569, Note_on_c, 0, 62, 0
2, 28574, Note_on_c, 0, 62, 22
2, 28800, Note_on_c, 0, 69, 0
2, 28838, Note_on_c, 0, 58, 0
2, 28844, Note_on_c, 0, 58, 53
2, 28846, Note_on_c, 0, 43, 0
2, 28850, Note_on_c, 0, 43, 46
2, 29107, Note_on_c, 0, 62, 0
2, 29111, Note_on_c, 0, 62, 76
2, 29397, Note_on_c, 0, 64, 85
2, 29399, Note_on_c, 0, 43, 0
2, 29402, Note_on_c, 0, 43, 54
2, 29414, Note_on_c, 0, 62, 0
2, 29418, Note_on_c, 0, 62, 48
2, 29663, Control_c, 0, 64, 0
2, 29663, Note_on_c, 0, 74, 0
2, 29663, Note_on_c, 0, 50, 0
2, 29664, Note_on_c, 0, 43, 0
2, 29667, Note_on_c, 0, 64, 0
2, 29675, Note_on_c, 0, 65, 0
2, 29686, Note_on_c, 0, 65, 74
2, 29690, Note_on_c, 0, 62, 0
2, 29694, Note_on_c, 0, 48, 62
2, 29698, Note_on_c, 0, 58, 0
2, 29701, Note_on_c, 0, 62, 57
2, 29708, Note_on_c, 0, 58, 67
2, 29775, Control_c, 0, 64, 127
2, 29969, Note_on_c, 0, 81, 88
2, 30259, Note_on_c, 0, 81, 0
2, 30266, Note_on_c, 0, 58, 0
2, 30266, Note_on_c, 0, 62, 0
2, 30266, Note_on_c, 0, 65, 0
2, 30269, Note_on_c, 0, 81, 94
2, 30270, Note_on_c, 0, 65, 70
2, 30274, Note_on_c, 0, 58, 71
2, 30278, Note_on_c, 0, 62, 65
2, 30305, Control_c, 0, 64, 0
2, 30389, Control_c, 0, 64, 127
2, 30549, Note_on_c, 0, 79, 93
2, 30689, Note_on_c, 0, 79, 0
2, 30693, Note_on_c, 0, 79, 86
2, 30842, Note_on_c, 0, 48, 0
2, 30842, Note_on_c, 0, 58, 0
2, 30842, Note_on_c, 0, 65, 0
2, 30847, Note_on_c, 0, 65, 71
2, 30848, Note_on_c, 0, 58, 65
2, 30850, Note_on_c, 0, 48, 62
2, 30853, Control_c, 0, 64, 0
2, 30855, Note_on_c, 0, 62, 0
2, 30856, Note_on_c, 0, 61, 61
2, 30861, Note_on_c, 0, 81, 0
2, 30927, Control_c, 0, 64, 127
2, 31148, Note_on_c, 0, 77, 91
2, 31423, Note_on_c, 0, 76, 83
2, 31426, Note_on_c, 0, 58, 0
2, 31432, Note_on_c, 0, 64, 75
2, 31436, Note_on_c, 0, 58, 61
2, 31437, Note_on_c, 0, 60, 61
2, 31442, Control_c, 0, 64, 0
2, 31445, Note_on_c, 0, 61, 0
2, 31446, Note_on_c, 0, 79, 0
2, 31447, Note_on_c, 0, 65, 0
2, 31452, Note_on_c, 0, 77, 0
2, 31511, Control_c, 0, 64, 127
2, 31711, Note_on_c, 0, 77, 89
2, 31856, Note_on_c, 0, 77, 0
2, 31862, Note_on_c, 0, 77, 86
2, 32013, Note_on_c, 0, 60, 0
2, 32013, Note_on_c, 0, 64, 0
2, 32015, Note_on_c, 0, 76, 0
2, 32016, Control_c, 0, 64, 0
2, 32025, Note_on_c, 0, 48, 0
2, 32025, Note_on_c, 0, 58, 0
2, 32027, Note_on_c, 0, 41, 44
2, 32029, Note_on_c, 0, 65, 56
2, 32030, Note_on_c, 0, 57, 45
2, 32117, Control_c, 0, 64, 127
2, 32616, Note_on_c, 0, 65, 0
2, 32624, Note_on_c, 0, 57, 0
2, 32625, Note_on_c, 0, 65, 54
2, 32626, Note_on_c, 0, 60, 49
2, 32630, Note_on_c, 0, 57, 44
2, 32913, Note_on_c, 0, 53, 55
2, 33054, Note_on_c, 0, 77, 0
2, 33061, Note_on_c, 0, 77, 69
2, 33119, Note_on_c, 0, 81, 76
2, 33164, Note_on_c, 0, 84, 74
2, 33205, Note_on_c, 0, 89, 93
2, 33418, Note_on_c, 0, 41, 0
2, 33419, Note_on_c, 0, 53, 0
2, 33419, Note_on_c, 0, 81, 0
2, 33419, Note_on_c, 0, 65, 0
2, 33419, Note_on_c, 0, 84, 0
2, 33419, Note_on_c, 0, 57, 0
2, 33419, Note_on_c, 0, 77, 0
2, 33419, Note_on_c, 0, 60, 0
2, 33428, Control_c, 0, 64, 0
2, 33498, Note_on_c, 0, 77, 91
2, 33699, Note_on_c, 0, 89, 0
2, 33789, Note_on_c, 0, 76, 93
2, 33817, Note_on_c, 0, 77, 0
2, 34079, Note_on_c, 0, 77, 98
2, 34106, Control_c, 0, 64, 127
2, 34356, Note_on_c, 0, 76, 0
2, 34357, Control_c, 0, 64, 0
2, 34372, Note_on_c, 0, 84, 100
2, 34375, Note_on_c, 0, 77, 0
2, 34381, Note_on_c, 0, 77, 87
2, 34383, Note_on_c, 0, 38, 66
2, 34386, Note_on_c, 0, 50, 72
2, 34386, Note_on_c, 0, 74, 80
2, 34429, Control_c, 0, 64, 127
2, 34475, Note_on_c, 0, 38, 0
2, 34659, Note_on_c, 0, 50, 0
2, 34664, Note_on_c, 0, 50, 70
2, 34803, Note_on_c, 0, 53, 70
2, 34951, Note_on_c, 0, 57, 68
2, 35085, Note_on_c, 0, 62, 70
2, 35226, Note_on_c, 0, 65, 77
2, 35228, Note_on_c, 0, 79, 97
2, 35366, Note_on_c, 0, 79, 0
2, 35370, Note_on_c, 0, 79, 100
2, 35481, Note_on_c, 0, 57, 0
2, 35481, Note_on_c, 0, 74, 0
2, 35482, Note_on_c, 0, 53, 0
2, 35482, Control_c, 0, 64, 0
2, 35482, Note_on_c, 0, 62, 0
2, 35483, Note_on_c, 0, 50, 0
2, 35483, Note_on_c, 0, 65, 0
2, 35484, Note_on_c, 0, 77, 0
2, 35484, Note_on_c, 0, 84, 0
2, 35525, Note_on_c, 0, 45, 69
2, 35525, Note_on_c, 0, 57, 73
2, 35530, Note_on_c, 0, 72, 70
2, 35531, Note_on_c, 0, 76, 78
2, 35558, Control_c, 0, 64, 127
2, 35809, Note_on_c, 0, 67, 84
2, 35939, Note_on_c, 0, 64, 81
2, 36079, Note_on_c, 0, 60, 83
2, 36216, Note_on_c, 0, 55, 68
2, 36364, Note_on_c, 0, 79, 0
2, 36368, Note_on_c, 0, 79, 94
2, 36369, Note_on_c, 0, 52, 78
2, 36507, Note_on_c, 0, 81, 95
2, 36653, Note_on_c, 0, 82, 101
2, 36660, Note_on_c, 0, 57, 0
2, 36660, Note_on_c, 0, 64, 0
2, 36660, Note_on_c, 0, 52, 0
2, 36660, Note_on_c, 0, 72, 0
2, 36660, Note_on_c, 0, 60, 0
2, 36660, Note_on_c, 0, 67, 0
2, 36660, Control_c, 0, 64, 0
2, 36660, Note_on_c, 0, 76, 0
2, 36660, Note_on_c, 0, 55, 0
2, 36660, Note_on_c, 0, 81, 0
2, 36661, Note_on_c, 0, 79, 0
2, 36661, Note_on_c, 0, 45, 0
2, 36667, Note_on_c, 0, 77, 86
2, 36668, Note_on_c, 0, 74, 78
2, 36671, Note_on_c, 0, 46, 74
2, 36756, Control_c, 0, 64, 127
2, 36810, Note_on_c, 0, 53, 66
2, 36955, Note_on_c, 0, 81, 98
2, 36981, Note_on_c, 0, 58, 69
2, 37088, Note_on_c, 0, 79, 93
2, 37227, Note_on_c, 0, 48, 80
2, 37236, Control_c, 0, 64, 0
2, 37239, Note_on_c, 0, 74, 0
2, 37239, Note_on_c, 0, 81, 0
2, 37241, Note_on_c, 0, 53, 0
2, 37241, Note_on_c, 0, 82, 0
2, 37242, Note_on_c, 0, 58, 0
2, 37242, Note_on_c, 0, 46, 0
2, 37243, Note_on_c, 0, 77, 0
2, 37317, Control_c, 0, 64, 127
2, 37358, Note_on_c, 0, 55, 71
2, 37516, Note_on_c, 0, 60, 67
2, 37521, Note_on_c, 0, 77, 91
2, 37653, Note_on_c, 0, 81, 102
2, 37773, Note_on_c, 0, 55, 0
2, 37773, Control_c, 0, 64, 0
2, 37773, Note_on_c, 0, 79, 0
2, 37774, Note_on_c, 0, 77, 0
2, 37777, Note_on_c, 0, 48, 0
2, 37787, Note_on_c, 0, 41, 72
2, 37793, Note_on_c, 0, 60, 0
2, 37862, Control_c, 0, 64, 127
2, 37934, Note_on_c, 0, 53, 71
2, 38059, Note_on_c, 0, 57, 67
2, 38200, Note_on_c, 0, 41, 0
2, 38208, Note_on_c, 0, 60, 67
2, 38209, Note_on_c, 0, 41, 51
2, 38351, Note_on_c, 0, 65, 74
2, 38630, Note_on_c, 0, 41, 0
2, 38635, Note_on_c, 0, 41, 66
2, 38645, Note_on_c, 0, 74, 80
2, 38788, Note_on_c, 0, 76, 72
2, 38893, Note_on_c, 0, 41, 0
2, 38893, Note_on_c, 0, 53, 0
2, 38893, Note_on_c, 0, 57, 0
2, 38894, Note_on_c, 0, 60, 0
2, 38894, Note_on_c, 0, 65, 0
2, 38894, Note_on_c, 0, 74, 0
2, 38894, Note_on_c, 0, 76, 0
2, 38895, Control_c, 0, 64, 0
2, 38914, Note_on_c, 0, 81, 0
2, 38926, Note_on_c, 0, 77, 89
2, 38932, Note_on_c, 0, 43, 71
2, 38933, Note_on_c, 0, 74, 78
2, 38933, Note_on_c, 0, 70, 77
2, 38934, Note_on_c, 0, 55, 73
2, 39006, Note_on_c, 0, 43, 0
2, 39006, Control_c, 0, 64, 127
2, 39206, Note_on_c, 0, 55, 0
2, 39213, Note_on_c, 0, 62, 61
2, 39214, Note_on_c, 0, 77, 0
2, 39214, Note_on_c, 0, 55, 51
2, 39224, Note_on_c, 0, 77, 75
2, 39360, Note_on_c, 0, 77, 0
2, 39362, Note_on_c, 0, 64, 63
2, 39364, Note_on_c, 0, 77, 82
2, 39498, Note_on_c, 0, 62, 0
2, 39507, Note_on_c, 0, 62, 66
2, 39507, Note_on_c, 0, 65, 72
2, 39509, Note_on_c, 0, 58, 73
2, 39790, Note_on_c, 0, 55, 0
2, 39790, Note_on_c, 0, 74, 0
2, 39795, Note_on_c, 0, 55, 68
2, 39795, Note_on_c, 0, 74, 83
2, 39936, Note_on_c, 0, 76, 83
2, 40023, Control_c, 0, 64, 0
2, 40024, Note_on_c, 0, 58, 0
2, 40024, Note_on_c, 0, 62, 0
2, 40024, Note_on_c, 0, 70, 0
2, 40024, Note_on_c, 0, 74, 0
2, 40024, Note_on_c, 0, 65, 0
2, 40025, Note_on_c, 0, 77, 0
2, 40043, Note_on_c, 0, 55, 0
2, 40051, Note_on_c, 0, 64, 0
2, 40079, Note_on_c, 0, 77, 91
2, 40082, Note_on_c, 0, 74, 81
2, 40084, Note_on_c, 0, 43, 73
2, 40085, Note_on_c, 0, 55, 76
2, 40085, Note_on_c, 0, 70, 79
2, 40135, Control_c, 0, 64, 127
2, 40197, Note_on_c, 0, 76, 0
2, 40350, Note_on_c, 0, 77, 0
2, 40361, Note_on_c, 0, 62, 68
2, 40361, Note_on_c, 0, 77, 88
2, 40488, Note_on_c, 0, 77, 0
2, 40498, Note_on_c, 0, 77, 84
2, 40514, Note_on_c, 0, 64, 70
2, 40650, Note_on_c, 0, 62, 0
2, 40654, Note_on_c, 0, 65, 70
2, 40657, Note_on_c, 0, 70, 0
2, 40659, Note_on_c, 0, 58, 77
2, 40661, Note_on_c, 0, 62, 67
2, 40667, Note_on_c, 0, 70, 68
2, 40942, Note_on_c, 0, 55, 0
2, 40949, Note_on_c, 0, 74, 0
2, 40953, Note_on_c, 0, 55, 67
2, 40957, Note_on_c, 0, 74, 87
2, 41089, Note_on_c, 0, 76, 82
2, 41205, Control_c, 0, 64, 0
2, 41206, Note_on_c, 0, 58, 0
2, 41206, Note_on_c, 0, 65, 0
2, 41206, Note_on_c, 0, 70, 0
2, 41206, Note_on_c, 0, 62, 0
2, 41206, Note_on_c, 0, 64, 0
2, 41206, Note_on_c, 0, 76, 0
2, 41210, Note_on_c, 0, 43, 0
2, 41218, Note_on_c, 0, 74, 0
2, 41226, Note_on_c, 0, 55, 0
2, 41233, Note_on_c, 0, 77, 0
2, 41237, Note_on_c, 0, 46, 70
2, 41238, Note_on_c, 0, 77, 93
2, 41244, Note_on_c, 0, 74, 81
2, 41244, Note_on_c, 0, 70, 84
2, 41287, Control_c, 0, 64, 127
2, 41518, Note_on_c, 0, 77, 0
2, 41521, Note_on_c, 0, 53, 73
2, 41524, Note_on_c, 0, 77, 86
2, 41664, Note_on_c, 0, 77, 0
2, 41669, Note_on_c, 0, 77, 91
2, 41810, Note_on_c, 0, 65, 72
2, 41814, Note_on_c, 0, 57, 70
2, 41817, Note_on_c, 0, 46, 0
2, 41821, Note_on_c, 0, 46, 54
2, 41830, Note_on_c, 0, 62, 54
2, 42101, Note_on_c, 0, 77, 0
2, 42109, Note_on_c, 0, 53, 0
2, 42110, Note_on_c, 0, 77, 81
2, 42114, Note_on_c, 0, 53, 67
2, 42232, Note_on_c, 0, 77, 0
2, 42240, Note_on_c, 0, 77, 86
2, 42385, Note_on_c, 0, 77, 0
2, 42390, Note_on_c, 0, 77, 99
2, 42393, Note_on_c, 0, 53, 0
2, 42393, Note_on_c, 0, 57, 0
2, 42393, Note_on_c, 0, 65, 0
2, 42401, Note_on_c, 0, 62, 0
2, 42403, Note_on_c, 0, 65, 66
2, 42403, Note_on_c, 0, 53, 64
2, 42403, Note_on_c, 0, 69, 71
2, 42404, Note_on_c, 0, 57, 72
2, 42408, Note_on_c, 0, 62, 59
2, 42672, Note_on_c, 0, 79, 100
2, 42685, Note_on_c, 0, 53, 0
2, 42693, Note_on_c, 0, 57, 0
2, 42696, Note_on_c, 0, 53, 74
2, 42697, Note_on_c, 0, 57, 63
2, 42957, Note_on_c, 0, 81, 101
2, 42969, Note_on_c, 0, 53, 0
2, 42969, Note_on_c, 0, 57, 0
2, 42969, Note_on_c, 0, 65, 0
2, 42977, Note_on_c, 0, 62, 0
2, 42977, Note_on_c, 0, 69, 0
2, 42980, Note_on_c, 0, 65, 75
2, 42980, Note_on_c, 0, 53, 66
2, 42980, Note_on_c, 0, 57, 77
2, 42984, Note_on_c, 0, 62, 65
2, 42984, Note_on_c, 0, 69, 65
2, 43230, Note_on_c, 0, 53, 0
2, 43240, Note_on_c, 0, 82, 99
2, 43241, Note_on_c, 0, 53, 79
2, 43522, Note_on_c, 0, 81, 0
2, 43533, Note_on_c, 0, 81, 98
2, 43537, Note_on_c, 0, 77, 0
2, 43540, Note_on_c, 0, 69, 0
2, 43541, Note_on_c, 0, 82, 0
2, 43541, Note_on_c, 0, 46, 0
2, 43541, Control_c, 0, 64, 0
2, 43541, Note_on_c, 0, 77, 81
2, 43542, Note_on_c, 0, 57, 0
2, 43542, Note_on_c, 0, 62, 0
2, 43542, Note_on_c, 0, 48, 74
2, 43542, Note_on_c, 0, 70, 0
2, 43542, Note_on_c, 0, 79, 0
2, 43542, Note_on_c, 0, 65, 0
2, 43542, Note_on_c, 0, 74, 0
2, 43543, Note_on_c, 0, 53, 0
2, 43545, Note_on_c, 0, 72, 79
2, 43653, Control_c, 0, 64, 127
2, 43823, Note_on_c, 0, 55, 62
2, 44105, Note_on_c, 0, 65, 74
2, 44108, Note_on_c, 0, 60, 69
2, 44382, Note_on_c, 0, 55, 0
2, 44388, Note_on_c, 0, 79, 87
2, 44392, Note_on_c, 0, 55, 64
2, 44528, Note_on_c, 0, 79, 0
2, 44533, Note_on_c, 0, 79, 88
2, 44544, Note_on_c, 0, 72, 0
2, 44544, Note_on_c, 0, 76, 79
2, 44550, Note_on_c, 0, 72, 71
2, 44678, Control_c, 0, 64, 0
2, 44680, Note_on_c, 0, 64, 76
2, 44682, Note_on_c, 0, 48, 0
2, 44682, Note_on_c, 0, 60, 0
2, 44683, Note_on_c, 0, 65, 0
2, 44686, Note_on_c, 0, 77, 0
2, 44691, Note_on_c, 0, 48, 56
2, 44693, Note_on_c, 0, 60, 62
2, 44712, Note_on_c, 0, 81, 0
2, 44736, Note_on_c, 0, 55, 0
2, 44789, Control_c, 0, 64, 127
2, 44978, Note_on_c, 0, 55, 64
2, 45258, Note_on_c, 0, 64, 0
2, 45265, Note_on_c, 0, 60, 0
2, 45268, Note_on_c, 0, 64, 71
2, 45271, Note_on_c, 0, 60, 70
2, 45550, Note_on_c, 0, 55, 0
2, 45554, Note_on_c, 0, 55, 62
2, 45843, Note_on_c, 0, 45, 84
2, 45851, Control_c, 0, 64, 0
2, 45853, Note_on_c, 0, 48, 0
2, 45853, Note_on_c, 0, 72, 0
2, 45853, Note_on_c, 0, 60, 0
2, 45854, Note_on_c, 0, 55, 0
2, 45872, Note_on_c, 0, 64, 0
2, 45941, Control_c, 0, 64, 127
2, 46065, Note_on_c, 0, 52, 81
2, 46256, Note_on_c, 0, 69, 71
2, 46257, Note_on_c, 0, 57, 81
2, 46411, Note_on_c, 0, 61, 87
2, 46490, Note_on_c, 0, 64, 84
2, 46548, Note_on_c, 0, 69, 0
2, 46552, Note_on_c, 0, 69, 77
2, 46617, Note_on_c, 0, 73, 78
2, 46648, Note_on_c, 0, 76, 0
2, 46655, Note_on_c, 0, 76, 86
2, 46743, Note_on_c, 0, 81, 89
2, 46816, Note_on_c, 0, 85, 90
2, 46890, Note_on_c, 0, 88, 101
2, 46964, Note_on_c, 0, 93, 110
2, 47224, Note_on_c, 0, 93, 0
2, 47225, Note_on_c, 0, 85, 0
2, 47225, Note_on_c, 0, 52, 0
2, 47225, Note_on_c, 0, 81, 0
2, 47226, Note_on_c, 0, 69, 0
2, 47226, Control_c, 0, 64, 0
2, 47226, Note_on_c, 0, 73, 0
2, 47226, Note_on_c, 0, 64, 0
2, 47226, Note_on_c, 0, 45, 0
2, 47226, Note_on_c, 0, 61, 0
2, 47227, Note_on_c, 0, 57, 0
2, 47227, Note_on_c, 0, 76, 0
2, 47227, Note_on_c, 0, 88, 0
2, 47232, Note_on_c, 0, 79, 0
2, 47270, Note_on_c, 0, 77, 103
2, 47272, Note_on_c, 0, 65, 92
2, 47324, Control_c, 0, 64, 127
2, 47564, Note_on_c, 0, 76, 104
2, 47565, Note_on_c, 0, 64, 97
2, 47576, Control_c, 0, 64, 0
2, 47577, Note_on_c, 0, 65, 0
2, 47580, Note_on_c, 0, 77, 0
2, 47639, Control_c, 0, 64, 127
2, 47831, Note_on_c, 0, 64, 0
2, 47836, Control_c, 0, 64, 0
2, 47850, Note_on_c, 0, 76, 0
2, 47863, Note_on_c, 0, 77, 106
2, 47863, Note_on_c, 0, 65, 97
2, 47892, Control_c, 0, 64, 127
2, 47907, Note_on_c, 0, 65, 0
2, 48122, Control_c, 0, 64, 0
2, 48138, Note_on_c, 0, 77, 0
2, 48139, Note_on_c, 0, 84, 105
2, 48146, Note_on_c, 0, 46, 92
2, 48147, Note_on_c, 0, 74, 98
2, 48148, Note_on_c, 0, 77, 97
2, 48151, Note_on_c, 0, 34, 85
2, 48168, Control_c, 0, 64, 127
2, 48276, Note_on_c, 0, 84, 0
2, 48285, Note_on_c, 0, 84, 88
2, 48414, Note_on_c, 0, 84, 0
2, 48422, Note_on_c, 0, 84, 98
2, 48423, Note_on_c, 0, 53, 74
2, 48552, Note_on_c, 0, 84, 0
2, 48561, Note_on_c, 0, 84, 104
2, 48701, Control_c, 0, 64, 0
2, 48706, Note_on_c, 0, 84, 0
2, 48712, Note_on_c, 0, 84, 104
2, 48714, Note_on_c, 0, 46, 0
2, 48714, Note_on_c, 0, 74, 0
2, 48714, Note_on_c, 0, 77, 0
2, 48719, Note_on_c, 0, 74, 95
2, 48720, Note_on_c, 0, 77, 94
2, 48721, Note_on_c, 0, 46, 83
2, 48721, Note_on_c, 0, 58, 89
2, 48723, Note_on_c, 0, 62, 83
2, 48744, Control_c, 0, 64, 127
2, 48998, Note_on_c, 0, 53, 0
2, 48998, Note_on_c, 0, 84, 0
2, 49003, Note_on_c, 0, 53, 79
2, 49004, Note_on_c, 0, 84, 104
2, 49136, Note_on_c, 0, 34, 0
2, 49149, Note_on_c, 0, 82, 102
2, 49261, Note_on_c, 0, 53, 0
2, 49262, Note_on_c, 0, 84, 0
2, 49262, Note_on_c, 0, 62, 0
2, 49262, Control_c, 0, 64, 0
2, 49262, Note_on_c, 0, 58, 0
2, 49274, Note_on_c, 0, 46, 0
2, 49274, Note_on_c, 0, 74, 0
2, 49282, Note_on_c, 0, 77, 0
2, 49306, Note_on_c, 0, 48, 86
2, 49308, Note_on_c, 0, 36, 77
2, 49309, Note_on_c, 0, 72, 89
2, 49309, Note_on_c, 0, 76, 89
2, 49328, Control_c, 0, 64, 127
2, 49589, Note_on_c, 0, 48, 0
2, 49595, Note_on_c, 0, 81, 102
2, 49597, Note_on_c, 0, 55, 75
2, 49600, Note_on_c, 0, 43, 58
2, 49600, Note_on_c, 0, 48, 62
2, 49889, Note_on_c, 0, 55, 0
2, 49889, Note_on_c, 0, 72, 0
2, 49889, Note_on_c, 0, 76, 0
2, 49891, Note_on_c, 0, 79, 100
2, 49894, Note_on_c, 0, 76, 94
2, 49894, Note_on_c, 0, 64, 90
2, 49896, Note_on_c, 0, 72, 89
2, 49899, Note_on_c, 0, 60, 78
2, 49899, Note_on_c, 0, 55, 67
2, 50173, Note_on_c, 0, 55, 0
2, 50182, Note_on_c, 0, 55, 84
2, 50183, Note_on_c, 0, 77, 98
2, 50446, Note_on_c, 0, 48, 0
2, 50446, Control_c, 0, 64, 0
2, 50446, Note_on_c, 0, 82, 0
2, 50447, Note_on_c, 0, 81, 0
2, 50447, Note_on_c, 0, 60, 0
2, 50447, Note_on_c, 0, 79, 0
2, 50447, Note_on_c, 0, 55, 0
2, 50448, Note_on_c, 0, 77, 0
2, 50448, Note_on_c, 0, 64, 0
2, 50449, Note_on_c, 0, 43, 0
2, 50457, Note_on_c, 0, 36, 0
2, 50472, Note_on_c, 0, 72, 0
2, 50472, Note_on_c, 0, 76, 0
2, 50477, Note_on_c, 0, 84, 103
2, 50478, Note_on_c, 0, 72, 96
2, 50480, Note_on_c, 0, 76, 92
2, 50483, Note_on_c, 0, 33, 77
2, 50484, Note_on_c, 0, 45, 83
2, 50519, Control_c, 0, 64, 127
2, 50618, Note_on_c, 0, 84, 0
2, 50623, Note_on_c, 0, 84, 90
2, 50749, Note_on_c, 0, 84, 0
2, 50759, Note_on_c, 0, 84, 99
2, 50762, Note_on_c, 0, 52, 78
2, 50887, Note_on_c, 0, 84, 0
2, 50897, Note_on_c, 0, 84, 95
2, 51041, Note_on_c, 0, 84, 0
2, 51046, Note_on_c, 0, 84, 105
2, 51048, Note_on_c, 0, 72, 0
2, 51048, Note_on_c, 0, 76, 0
2, 51052, Note_on_c, 0, 72, 97
2, 51054, Note_on_c, 0, 76, 92
2, 51054, Note_on_c, 0, 60, 84
2, 51058, Note_on_c, 0, 57, 83
2, 51325, Note_on_c, 0, 52, 0
2, 51325, Note_on_c, 0, 84, 0
2, 51330, Note_on_c, 0, 52, 86
2, 51335, Note_on_c, 0, 84, 96
2, 51417, Note_on_c, 0, 33, 0
2, 51474, Note_on_c, 0, 82, 103
2, 51580, Note_on_c, 0, 82, 0
2, 51581, Note_on_c, 0, 57, 0
2, 51581, Note_on_c, 0, 76, 0
2, 51581, Note_on_c, 0, 60, 0
2, 51581, Note_on_c, 0, 52, 0
2, 51582, Note_on_c, 0, 72, 0
2, 51582, Note_on_c, 0, 84, 0
2, 51583, Control_c, 0, 64, 0
2, 51594, Note_on_c, 0, 45, 0
2, 51627, Note_on_c, 0, 77, 97
2, 51627, Note_on_c, 0, 50, 88
2, 51627, Note_on_c, 0, 38, 82
2, 51627, Note_on_c, 0, 74, 93
2, 51655, Control_c, 0, 64, 127
2, 51901, Note_on_c, 0, 38, 0
2, 51909, Note_on_c, 0, 50, 0
2, 51914, Note_on_c, 0, 53, 78
2, 51915, Note_on_c, 0, 81, 101
2, 51918, Note_on_c, 0, 50, 68
2, 52196, Note_on_c, 0, 79, 102
2, 52200, Note_on_c, 0, 50, 0
2, 52200, Note_on_c, 0, 74, 0
2, 52200, Note_on_c, 0, 77, 0
2, 52206, Note_on_c, 0, 62, 77
2, 52207, Note_on_c, 0, 74, 86
2, 52210, Note_on_c, 0, 77, 91
2, 52211, Note_on_c, 0, 50, 69
2, 52211, Note_on_c, 0, 57, 83
2, 52492, Note_on_c, 0, 53, 0
2, 52492, Note_on_c, 0, 77, 0
2, 52498, Note_on_c, 0, 53, 80
2, 52504, Note_on_c, 0, 77, 91
2, 52758, Control_c, 0, 64, 0
2, 52759, Note_on_c, 0, 62, 0
2, 52759, Note_on_c, 0, 53, 0
2, 52760, Note_on_c, 0, 77, 0
2, 52760, Note_on_c, 0, 50, 0
2, 52760, Note_on_c, 0, 74, 0
2, 52760, Note_on_c, 0, 79, 0
2, 52761, Note_on_c, 0, 57, 0
2, 52784, Note_on_c, 0, 81, 0
2, 52788, Note_on_c, 0, 81, 108
2, 52795, Note_on_c, 0, 74, 94
2, 52796, Note_on_c, 0, 70, 92
2, 52798, Note_on_c, 0, 40, 79
2, 52802, Note_on_c, 0, 52, 77
2, 52830, Control_c, 0, 64, 127
2, 53084, Note_on_c, 0, 81, 0
2, 53091, Note_on_c, 0, 81, 94
2, 53099, Note_on_c, 0, 52, 0
2, 53104, Note_on_c, 0, 52, 63
2, 53230, Note_on_c, 0, 81, 0
2, 53238, Note_on_c, 0, 81, 94
2, 53383, Note_on_c, 0, 70, 0
2, 53383, Note_on_c, 0, 74, 0
2, 53390, Note_on_c, 0, 74, 92
2, 53391, Note_on_c, 0, 52, 0
2, 53393, Note_on_c, 0, 70, 86
2, 53394, Note_on_c, 0, 58, 78
2, 53395, Note_on_c, 0, 62, 77
2, 53395, Note_on_c, 0, 52, 60
2, 53396, Note_on_c, 0, 55, 69
2, 53667, Note_on_c, 0, 40, 0
2, 53667, Note_on_c, 0, 52, 0
2, 53674, Note_on_c, 0, 55, 0
2, 53675, Note_on_c, 0, 52, 83
2, 53675, Note_on_c, 0, 74, 0
2, 53675, Note_on_c, 0, 58, 0
2, 53678, Note_on_c, 0, 82, 102
2, 53678, Note_on_c, 0, 40, 72
2, 53680, Note_on_c, 0, 74, 64
2, 53806, Note_on_c, 0, 81, 0
2, 53816, Note_on_c, 0, 81, 110
2, 53910, Note_on_c, 0, 40, 0
2, 53910, Note_on_c, 0, 82, 0
2, 53910, Note_on_c, 0, 52, 0
2, 53911, Note_on_c, 0, 74, 0
2, 53911, Note_on_c, 0, 62, 0
2, 53912, Note_on_c, 0, 70, 0
2, 53915, Control_c, 0, 64, 0
2, 53963, Note_on_c, 0, 33, 80
2, 53963, Note_on_c, 0, 45, 82
2, 53966, Note_on_c, 0, 73, 95
2, 53966, Note_on_c, 0, 69, 84
2, 53990, Control_c, 0, 64, 127
2, 54254, Note_on_c, 0, 61, 82
2, 54256, Note_on_c, 0, 79, 98
2, 54261, Note_on_c, 0, 52, 85
2, 54262, Note_on_c, 0, 57, 74
2, 54394, Note_on_c, 0, 77, 97
2, 54513, Note_on_c, 0, 52, 0
2, 54514, Note_on_c, 0, 57, 0
2, 54514, Control_c, 0, 64, 0
2, 54514, Note_on_c, 0, 79, 0
2, 54514, Note_on_c, 0, 61, 0
2, 54515, Note_on_c, 0, 69, 0
2, 54516, Note_on_c, 0, 77, 0
2, 54520, Note_on_c, 0, 45, 0
2, 54528, Note_on_c, 0, 33, 0
2, 54528, Note_on_c, 0, 81, 0
2, 54543, Note_on_c, 0, 73, 0
2, 54547, Note_on_c, 0, 73, 93
2, 54549, Note_on_c, 0, 69, 85
2, 54550, Note_on_c, 0, 37, 80
2, 54552, Note_on_c, 0, 49, 81
2, 54574, Control_c, 0, 64, 127
2, 54839, Note_on_c, 0, 79, 98
2, 54842, Note_on_c, 0, 61, 79
2, 54847, Note_on_c, 0, 57, 77
2, 54851, Note_on_c, 0, 52, 77
2, 54973, Note_on_c, 0, 79, 0
2, 54982, Note_on_c, 0, 79, 98
2, 55098, Control_c, 0, 64, 0
2, 55098, Note_on_c, 0, 52, 0
2, 55099, Note_on_c, 0, 57, 0
2, 55099, Note_on_c, 0, 49, 0
2, 55099, Note_on_c, 0, 73, 0
2, 55099, Note_on_c, 0, 61, 0
2, 55104, Note_on_c, 0, 37, 0
2, 55119, Note_on_c, 0, 69, 0
2, 55144, Note_on_c, 0, 69, 88
2, 55145, Note_on_c, 0, 74, 84
2, 55145, Note_on_c, 0, 38, 73
2, 55146, Note_on_c, 0, 50, 81
2, 55165, Control_c, 0, 64, 127
2, 55439, Note_on_c, 0, 77, 91
2, 55441, Note_on_c, 0, 53, 78
2, 55572, Note_on_c, 0, 79, 0
2, 55582, Note_on_c, 0, 79, 103
2, 55710, Note_on_c, 0, 69, 0
2, 55710, Note_on_c, 0, 74, 0
2, 55721, Note_on_c, 0, 74, 89
2, 55721, Note_on_c, 0, 69, 84
2, 55726, Note_on_c, 0, 53, 0
2, 55729, Note_on_c, 0, 62, 74
2, 55736, Note_on_c, 0, 53, 54
2, 55741, Note_on_c, 0, 57, 66
2, 56002, Note_on_c, 0, 53, 0
2, 56007, Note_on_c, 0, 81, 102
2, 56008, Note_on_c, 0, 53, 71
2, 56133, Note_on_c, 0, 81, 0
2, 56141, Note_on_c, 0, 81, 102
2, 56265, Note_on_c, 0, 62, 0
2, 56266, Note_on_c, 0, 74, 0
2, 56266, Note_on_c, 0, 53, 0
2, 56266, Control_c, 0, 64, 0
2, 56266, Note_on_c, 0, 69, 0
2, 56266, Note_on_c, 0, 79, 0
2, 56266, Note_on_c, 0, 57, 0
2, 56266, Note_on_c, 0, 77, 0
2, 56267, Note_on_c, 0, 50, 0
2, 56279, Note_on_c, 0, 38, 0
2, 56307, Note_on_c, 0, 67, 80
2, 56308, Note_on_c, 0, 75, 89
2, 56310, Note_on_c, 0, 63, 83
2, 56311, Note_on_c, 0, 55, 78
2, 56312, Note_on_c, 0, 48, 81
2, 56355, Control_c, 0, 64, 127
2, 56606, Note_on_c, 0, 77, 104
2, 56892, Note_on_c, 0, 76, 96
2, 56893, Note_on_c, 0, 48, 0
2, 56898, Note_on_c, 0, 41, 75
2, 56899, Note_on_c, 0, 48, 75
2, 56900, Note_on_c, 0, 57, 84
2, 56901, Note_on_c, 0, 72, 90
2, 56902, Note_on_c, 0, 69, 87
2, 56906, Note_on_c, 0, 55, 0
2, 56908, Control_c, 0, 64, 0
2, 56911, Note_on_c, 0, 63, 0
2, 56911, Note_on_c, 0, 75, 0
2, 56912, Note_on_c, 0, 77, 0
2, 56912, Note_on_c, 0, 67, 0
2, 56924, Note_on_c, 0, 81, 0
2, 56970, Control_c, 0, 64, 127
2, 57169, Note_on_c, 0, 69, 0
2, 57180, Note_on_c, 0, 77, 103
2, 57180, Note_on_c, 0, 69, 74
2, 57437, Note_on_c, 0, 69, 0
2, 57437, Control_c, 0, 64, 0
2, 57437, Note_on_c, 0, 57, 0
2, 57438, Note_on_c, 0, 72, 0
2, 57439, Note_on_c, 0, 76, 0
2, 57446, Note_on_c, 0, 41, 0
2, 57446, Note_on_c, 0, 48, 0
2, 57458, Note_on_c, 0, 84, 103
2, 57461, Note_on_c, 0, 77, 0
2, 57466, Note_on_c, 0, 77, 93
2, 57468, Note_on_c, 0, 74, 92
2, 57473, Note_on_c, 0, 34, 82
2, 57507, Control_c, 0, 64, 127
2, 57600, Note_on_c, 0, 84, 0
2, 57611, Note_on_c, 0, 84, 97
2, 57612, Note_on_c, 0, 46, 73
2, 57738, Note_on_c, 0, 84, 0
2, 57743, Note_on_c, 0, 53, 65
2, 57745, Note_on_c, 0, 84, 91
2, 57876, Note_on_c, 0, 84, 0
2, 57886, Note_on_c, 0, 84, 93
2, 57887, Note_on_c, 0, 58, 86
2, 58030, Note_on_c, 0, 84, 0
2, 58035, Note_on_c, 0, 62, 81
2, 58036, Note_on_c, 0, 84, 98
2, 58159, Note_on_c, 0, 65, 77
2, 58306, Note_on_c, 0, 84, 0
2, 58312, Note_on_c, 0, 84, 106
2, 58316, Note_on_c, 0, 70, 104
2, 58452, Note_on_c, 0, 58, 0
2, 58460, Note_on_c, 0, 82, 108
2, 58460, Note_on_c, 0, 58, 72
2, 58583, Note_on_c, 0, 34, 0
2, 58591, Note_on_c, 0, 53, 0
2, 58591, Note_on_c, 0, 46, 0
2, 58591, Note_on_c, 0, 65, 0
2, 58592, Note_on_c, 0, 62, 0
2, 58592, Note_on_c, 0, 77, 0
2, 58592, Note_on_c, 0, 84, 0
2, 58592, Note_on_c, 0, 74, 0
2, 58592, Note_on_c, 0, 58, 0
2, 58592, Note_on_c, 0, 82, 0
2, 58592, Control_c, 0, 64, 0
2, 58593, Note_on_c, 0, 70, 0
2, 58609, Note_on_c, 0, 36, 73
2, 58609, Note_on_c, 0, 76, 86
2, 58610, Note_on_c, 0, 72, 84
2, 58652, Control_c, 0, 64, 127
2, 58754, Note_on_c, 0, 48, 74
2, 58886, Note_on_c, 0, 81, 99
2, 58892, Note_on_c, 0, 55, 72
2, 58894, Note_on_c, 0, 43, 60
2, 59024, Note_on_c, 0, 79, 101
2, 59030, Note_on_c, 0, 60, 84
2, 59172, Note_on_c, 0, 64, 89
2, 59294, Note_on_c, 0, 77, 99
2, 59295, Note_on_c, 0, 67, 83
2, 59443, Note_on_c, 0, 72, 0
2, 59451, Note_on_c, 0, 72, 92
2, 59596, Note_on_c, 0, 76, 0
2, 59601, Note_on_c, 0, 76, 95
2, 59725, Note_on_c, 0, 48, 0
2, 59726, Control_c, 0, 64, 0
2, 59726, Note_on_c, 0, 72, 0
2, 59726, Note_on_c, 0, 55, 0
2, 59726, Note_on_c, 0, 60, 0
2, 59727, Note_on_c, 0, 77, 0
2, 59727, Note_on_c, 0, 64, 0
2, 59727, Note_on_c, 0, 79, 0
2, 59727, Note_on_c, 0, 67, 0
2, 59727, Note_on_c, 0, 81, 0
2, 59727, Note_on_c, 0, 43, 0
2, 59735, Note_on_c, 0, 36, 0
2, 59749, Note_on_c, 0, 84, 103
2, 59750, Note_on_c, 0, 76, 0
2, 59754, Note_on_c, 0, 33, 70
2, 59758, Note_on_c, 0, 45, 74
2, 59758, Note_on_c, 0, 76, 84
2, 59761, Note_on_c, 0, 72, 91
2, 59796, Control_c, 0, 64, 127
2, 59799, Note_on_c, 0, 33, 0
2, 59880, Note_on_c, 0, 45, 0
2, 59880, Note_on_c, 0, 84, 0
2, 59888, Note_on_c, 0, 45, 66
2, 59892, Note_on_c, 0, 84, 98
2, 60011, Note_on_c, 0, 84, 0
2, 60018, Note_on_c, 0, 84, 97
2, 60023, Note_on_c, 0, 52, 74
2, 60149, Note_on_c, 0, 84, 0
2, 60161, Note_on_c, 0, 84, 98
2, 60165, Note_on_c, 0, 45, 0
2, 60168, Note_on_c, 0, 57, 77
2, 60170, Note_on_c, 0, 45, 69
2, 60303, Note_on_c, 0, 84, 0
2, 60308, Note_on_c, 0, 84, 100
2, 60314, Note_on_c, 0, 72, 0
2, 60316, Note_on_c, 0, 60, 82
2, 60454, Note_on_c, 0, 64, 68
2, 60457, Note_on_c, 0, 62, 55
2, 60587, Note_on_c, 0, 84, 0
2, 60591, Note_on_c, 0, 84, 106
2, 60598, Note_on_c, 0, 69, 92
2, 60723, Note_on_c, 0, 82, 104
2, 60843, Control_c, 0, 64, 0
2, 60844, Note_on_c, 0, 52, 0
2, 60844, Note_on_c, 0, 69, 0
2, 60844, Note_on_c, 0, 76, 0
2, 60844, Note_on_c, 0, 45, 0
2, 60844, Note_on_c, 0, 57, 0
2, 60844, Note_on_c, 0, 60, 0
2, 60844, Note_on_c, 0, 82, 0
2, 60844, Note_on_c, 0, 62, 0
2, 60844, Note_on_c, 0, 64, 0
2, 60845, Note_on_c, 0, 84, 0
2, 60882, Note_on_c, 0, 77, 99
2, 60884, Note_on_c, 0, 74, 91
2, 60886, Note_on_c, 0, 50, 90
2, 60888, Note_on_c, 0, 38, 81
2, 60917, Control_c, 0, 64, 127
2, 61168, Note_on_c, 0, 81, 101
2, 61171, Note_on_c, 0, 50, 0
2, 61173, Note_on_c, 0, 65, 84
2, 61173, Note_on_c, 0, 69, 79
2, 61174, Note_on_c, 0, 57, 90
2, 61181, Note_on_c, 0, 50, 76
2, 61306, Note_on_c, 0, 79, 101
2, 61425, Note_on_c, 0, 74, 0
2, 61425, Note_on_c, 0, 81, 0
2, 61426, Note_on_c, 0, 57, 0
2, 61426, Note_on_c, 0, 50, 0
2, 61426, Control_c, 0, 64, 0
2, 61426, Note_on_c, 0, 77, 0
2, 61426, Note_on_c, 0, 65, 0
2, 61432, Note_on_c, 0, 38, 0
2, 61432, Note_on_c, 0, 69, 0
2, 61459, Note_on_c, 0, 48, 84
2, 61460, Note_on_c, 0, 36, 78
2, 61493, Control_c, 0, 64, 127
2, 61578, Note_on_c, 0, 48, 0
2, 61604, Note_on_c, 0, 77, 98
2, 61743, Note_on_c, 0, 64, 86
2, 61745, Note_on_c, 0, 55, 72
2, 61745, Note_on_c, 0, 60, 68
2, 61749, Note_on_c, 0, 48, 71
2, 61890, Note_on_c, 0, 72, 87
2, 62039, Note_on_c, 0, 36, 0
2, 62046, Note_on_c, 0, 77, 0
2, 62050, Note_on_c, 0, 81, 104
2, 62056, Note_on_c, 0, 46, 81
2, 62056, Note_on_c, 0, 77, 89
2, 62059, Note_on_c, 0, 74, 84
2, 62065, Note_on_c, 0, 64, 0
2, 62065, Control_c, 0, 64, 0
2, 62066, Note_on_c, 0, 79, 0
2, 62066, Note_on_c, 0, 72, 0
2, 62066, Note_on_c, 0, 60, 0
2, 62066, Note_on_c, 0, 55, 0
2, 62067, Note_on_c, 0, 48, 0
2, 62138, Control_c, 0, 64, 127
2, 62330, Note_on_c, 0, 81, 0
2, 62339, Note_on_c, 0, 53, 68
2, 62342, Note_on_c, 0, 41, 55
2, 62342, Note_on_c, 0, 81, 92
2, 62361, Note_on_c, 0, 77, 0
2, 62476, Note_on_c, 0, 81, 0
2, 62481, Note_on_c, 0, 81, 101
2, 62633, Note_on_c, 0, 58, 78
2, 62634, Note_on_c, 0, 62, 75
2, 62914, Note_on_c, 0, 53, 0
2, 62925, Note_on_c, 0, 53, 70
2, 62926, Note_on_c, 0, 82, 98
2, 63072, Note_on_c, 0, 79, 95
2, 63081, Note_on_c, 0, 76, 85
2, 63082, Note_on_c, 0, 72, 80
2, 63201, Note_on_c, 0, 48, 67
2, 63221, Note_on_c, 0, 41, 0
2, 63233, Note_on_c, 0, 81, 0
2, 63233, Note_on_c, 0, 46, 0
2, 63233, Note_on_c, 0, 74, 0
2, 63233, Note_on_c, 0, 82, 0
2, 63234, Note_on_c, 0, 58, 0
2, 63234, Note_on_c, 0, 62, 0
2, 63236, Control_c, 0, 64, 0
2, 63240, Note_on_c, 0, 55, 61
2, 63244, Note_on_c, 0, 53, 0
2, 63250, Note_on_c, 0, 64, 74
2, 63467, Control_c, 0, 64, 127
2, 63860, Note_on_c, 0, 81, 99
2, 64058, Note_on_c, 0, 79, 0
2, 64069, Note_on_c, 0, 79, 94
2, 64263, Note_on_c, 0, 77, 93
2, 64442, Note_on_c, 0, 77, 0
2, 64454, Note_on_c, 0, 77, 93
2, 64456, Note_on_c, 0, 41, 68
2, 64473, Note_on_c, 0, 69, 79
2, 64473, Note_on_c, 0, 72, 0
2, 64480, Note_on_c, 0, 72, 71
2, 64486, Note_on_c, 0, 81, 0
2, 64486, Note_on_c, 0, 55, 0
2, 64486, Note_on_c, 0, 48, 0
2, 64487, Note_on_c, 0, 64, 0
2, 64489, Note_on_c, 0, 76, 0
2, 64491, Control_c, 0, 64, 0
2, 64504, Note_on_c, 0, 79, 0
2, 64734, Control_c, 0, 64, 127
2, 64753, Note_on_c, 0, 48, 61
2, 65039, Note_on_c, 0, 53, 69
2, 65330, Note_on_c, 0, 57, 64
2, 65638, Note_on_c, 0, 58, 72
2, 66258, Note_on_c, 0, 65, 66
2, 66270, Note_on_c, 0, 57, 0
2, 66281, Note_on_c, 0, 57, 57
2, 66308, Control_c, 0, 64, 0
2, 66350, Note_on_c, 0, 67, 66
2, 66393, Note_on_c, 0, 69, 0
2, 66397, Note_on_c, 0, 48, 0
2, 66398, Note_on_c, 0, 53, 0
2, 66398, Note_on_c, 0, 58, 0
2, 66398, Note_on_c, 0, 69, 75
2, 66416, Note_on_c, 0, 41, 0
2, 66416, Note_on_c, 0, 72, 0
2, 66424, Control_c, 0, 64, 127
2, 66486, Note_on_c, 0, 70, 73
2, 66544, Note_on_c, 0, 72, 83
2, 66604, Note_on_c, 0, 74, 71
2, 66639, Note_on_c, 0, 77, 0
2, 66648, Note_on_c, 0, 76, 73
2, 66649, Note_on_c, 0, 77, 79
2, 66731, Note_on_c, 0, 77, 0
2, 66736, Note_on_c, 0, 77, 69
2, 66792, Note_on_c, 0, 79, 87
2, 66906, Note_on_c, 0, 81, 85
2, 66908, Note_on_c, 0, 65, 0
2, 66908, Note_on_c, 0, 74, 0
2, 66915, Note_on_c, 0, 65, 58
2, 66915, Note_on_c, 0, 70, 0
2, 66916, Note_on_c, 0, 74, 65
2, 66921, Note_on_c, 0, 70, 63
2, 66929, Control_c, 0, 64, 0
2, 66930, Note_on_c, 0, 67, 0
2, 66932, Note_on_c, 0, 72, 0
2, 66932, Note_on_c, 0, 69, 0
2, 66934, Note_on_c, 0, 79, 0
2, 66934, Note_on_c, 0, 76, 0
2, 66935, Note_on_c, 0, 77, 0
2, 66954, Note_on_c, 0, 57, 0
2, 67223, Note_on_c, 0, 81, 0
2, 67223, Control_c, 0, 64, 127
2, 67234, Note_on_c, 0, 81, 88
2, 67392, Note_on_c, 0, 81, 0
2, 67397, Note_on_c, 0, 81, 83
2, 67891, Note_on_c, 0, 82, 87
2, 68044, Note_on_c, 0, 79, 88
2, 68208, Note_on_c, 0, 72, 65
2, 68209, Note_on_c, 0, 76, 61
2, 68210, Note_on_c, 0, 67, 62
2, 68257, Control_c, 0, 64, 0
2, 68258, Note_on_c, 0, 81, 0
2, 68258, Note_on_c, 0, 82, 0
2, 68260, Note_on_c, 0, 65, 0
2, 68275, Note_on_c, 0, 74, 0
2, 68282, Note_on_c, 0, 70, 0
2, 68855, Note_on_c, 0, 81, 81
2, 68912, Control_c, 0, 64, 127
2, 68989, Note_on_c, 0, 79, 0
2, 69082, Note_on_c, 0, 79, 87
2, 69284, Note_on_c, 0, 77, 86
2, 69504, Note_on_c, 0, 77, 0
2, 69510, Note_on_c, 0, 77, 79
2, 69515, Note_on_c, 0, 53, 62
2, 69522, Note_on_c, 0, 65, 58
2, 69532, Note_on_c, 0, 70, 69
2, 69544, Control_c, 0, 64, 0
2, 69546, Note_on_c, 0, 81, 0
2, 69547, Note_on_c, 0, 72, 0
2, 69547, Note_on_c, 0, 67, 0
2, 69547, Note_on_c, 0, 76, 0
2, 69565, Note_on_c, 0, 79, 0
2, 69688, Control_c, 0, 64, 127
2, 69831, Note_on_c, 0, 60, 64
2, 70126, Note_on_c, 0, 89, 74
2, 70149, Note_on_c, 0, 65, 0
2, 70149, Note_on_c, 0, 77, 0
2, 70151, Note_on_c, 0, 82, 68
2, 70153, Note_on_c, 0, 77, 58
2, 70153, Note_on_c, 0, 65, 54
2, 70448, Note_on_c, 0, 60, 0
2, 70459, Note_on_c, 0, 72, 66
2, 70460, Note_on_c, 0, 60, 68
2, 70836, Note_on_c, 0, 101, 86
2, 70848, Note_on_c, 0, 65, 0
2, 70848, Note_on_c, 0, 89, 0
2, 70851, Note_on_c, 0, 69, 63
2, 70851, Note_on_c, 0, 89, 69
2, 70852, Note_on_c, 0, 93, 63
2, 70854, Note_on_c, 0, 65, 64
2, 70863, Note_on_c, 0, 93, 0
2, 70924, Note_on_c, 0, 70, 0
2, 70927, Note_on_c, 0, 82, 0
2, 70928, Note_on_c, 0, 77, 0
2, 70949, Control_c, 0, 64, 0
2, 70955, Note_on_c, 0, 60, 0
2, 71139, Note_on_c, 0, 72, 0
2, 71554, Control_c, 0, 64, 127
2, 71640, Note_on_c, 0, 41, 19
2, 71646, Note_on_c, 0, 41, 0
2, 72232, Note_on_c, 0, 72, 58
2, 72334, Note_on_c, 0, 77, 74
2, 72456, Note_on_c, 0, 46, 57
2, 72456, Note_on_c, 0, 84, 91
2, 72490, Control_c, 0, 64, 0
2, 72496, Note_on_c, 0, 53, 0
2, 72537, Control_c, 0, 64, 127
2, 72614, Note_on_c, 0, 65, 0
2, 72668, Note_on_c, 0, 77, 0
2, 72844, Note_on_c, 0, 72, 0
2, 72849, Note_on_c, 0, 53, 52
2, 72850, Note_on_c, 0, 72, 50
2, 73134, Note_on_c, 0, 77, 68
2, 73148, Note_on_c, 0, 58, 49
2, 73413, Note_on_c, 0, 53, 0
2, 73417, Note_on_c, 0, 53, 56
2, 73436, Note_on_c, 0, 72, 0
2, 73441, Note_on_c, 0, 72, 57
2, 73712, Note_on_c, 0, 84, 0
2, 73716, Note_on_c, 0, 96, 96
2, 73719, Note_on_c, 0, 84, 89
2, 73756, Note_on_c, 0, 62, 52
2, 74019, Note_on_c, 0, 53, 0
2, 74019, Note_on_c, 0, 72, 0
2, 74025, Note_on_c, 0, 53, 65
2, 74029, Note_on_c, 0, 72, 58
2, 74319, Note_on_c, 0, 77, 0
2, 74326, Note_on_c, 0, 77, 71
2, 74334, Note_on_c, 0, 58, 0
2, 74346, Note_on_c, 0, 58, 58
2, 74380, Note_on_c, 0, 69, 0
2, 74626, Note_on_c, 0, 53, 0
2, 74633, Note_on_c, 0, 53, 50
2, 74634, Note_on_c, 0, 72, 0
2, 74638, Note_on_c, 0, 72, 51
2, 74764, Note_on_c, 0, 72, 0
2, 74771, Note_on_c, 0, 72, 59
2, 74833, Note_on_c, 0, 77, 0
2, 74845, Note_on_c, 0, 77, 75
2, 74880, Note_on_c, 0, 89, 0
2, 74880, Note_on_c, 0, 101, 0
2, 74918, Note_on_c, 0, 84, 0
2, 74922, Note_on_c, 0, 84, 89
2, 74923, Note_on_c, 0, 96, 0
2, 74925, Control_c, 0, 64, 0
2, 74926, Note_on_c, 0, 46, 0
2, 74928, Note_on_c, 0, 58, 0
2, 74928, Note_on_c, 0, 62, 0
2, 74929, Note_on_c, 0, 72, 0
2, 74929, Note_on_c, 0, 53, 0
2, 74929, Note_on_c, 0, 45, 61
2, 75033, Control_c, 0, 64, 127
2, 75095, Note_on_c, 0, 77, 0
2, 75196, Note_on_c, 0, 53, 60
2, 75223, Note_on_c, 0, 72, 59
2, 75498, Note_on_c, 0, 77, 77
2, 75504, Note_on_c, 0, 57, 55
2, 75786, Note_on_c, 0, 53, 0
2, 75786, Note_on_c, 0, 72, 0
2, 75791, Note_on_c, 0, 53, 65
2, 75795, Note_on_c, 0, 72, 77
2, 76078, Note_on_c, 0, 84, 0
2, 76081, Note_on_c, 0, 96, 99
2, 76083, Note_on_c, 0, 84, 89
2, 76116, Note_on_c, 0, 72, 0
2, 76121, Note_on_c, 0, 72, 61
2, 76125, Note_on_c, 0, 60, 57
2, 76400, Note_on_c, 0, 53, 0
2, 76400, Note_on_c, 0, 84, 0
2, 76410, Note_on_c, 0, 53, 56
2, 76411, Note_on_c, 0, 84, 91
2, 76416, Note_on_c, 0, 72, 0
2, 76420, Note_on_c, 0, 72, 81
2, 76700, Note_on_c, 0, 77, 0
2, 76705, Note_on_c, 0, 89, 99
2, 76711, Note_on_c, 0, 77, 92
2, 76723, Note_on_c, 0, 57, 0
2, 76727, Note_on_c, 0, 57, 66
2, 76998, Note_on_c, 0, 91, 103
2, 76999, Note_on_c, 0, 53, 0
2, 77003, Note_on_c, 0, 79, 95
2, 77009, Note_on_c, 0, 53, 70
2, 77281, Note_on_c, 0, 57, 0
2, 77281, Control_c, 0, 64, 0
2, 77281, Note_on_c, 0, 91, 0
2, 77281, Note_on_c, 0, 96, 0
2, 77281, Note_on_c, 0, 84, 0
2, 77282, Note_on_c, 0, 72, 0
2, 77282, Note_on_c, 0, 89, 0
2, 77282, Note_on_c, 0, 79, 0
2, 77282, Note_on_c, 0, 60, 0
2, 77282, Note_on_c, 0, 77, 0
2, 77291, Note_on_c, 0, 45, 0
2, 77299, Note_on_c, 0, 53, 0
2, 77305, Note_on_c, 0, 93, 104
2, 77310, Note_on_c, 0, 81, 92
2, 77325, Note_on_c, 0, 86, 92
2, 77325, Note_on_c, 0, 94, 95
2, 77325, Note_on_c, 0, 43, 65
2, 77327, Note_on_c, 0, 82, 89
2, 77368, Note_on_c, 0, 93, 0
2, 77376, Control_c, 0, 64, 127
2, 77631, Note_on_c, 0, 89, 92
2, 77637, Note_on_c, 0, 77, 84
2, 77655, Note_on_c, 0, 50, 74
2, 77936, Note_on_c, 0, 89, 0
2, 77942, Note_on_c, 0, 89, 90
2, 77944, Note_on_c, 0, 86, 0
2, 77952, Note_on_c, 0, 77, 0
2, 77952, Note_on_c, 0, 82, 0
2, 77954, Note_on_c, 0, 86, 89
2, 77956, Note_on_c, 0, 77, 86
2, 77957, Note_on_c, 0, 53, 68
2, 77958, Note_on_c, 0, 82, 80
2, 78282, Note_on_c, 0, 86, 0
2, 78292, Note_on_c, 0, 86, 95
2, 78306, Note_on_c, 0, 74, 76
2, 78308, Note_on_c, 0, 58, 61
2, 78648, Note_on_c, 0, 85, 85
2, 78650, Note_on_c, 0, 58, 0
2, 78650, Note_on_c, 0, 77, 0
2, 78650, Note_on_c, 0, 81, 0
2, 78654, Note_on_c, 0, 77, 72
2, 78655, Control_c, 0, 64, 0
2, 78661, Note_on_c, 0, 73, 66
2, 78661, Note_on_c, 0, 58, 57
2, 78662, Note_on_c, 0, 53, 0
2, 78662, Note_on_c, 0, 43, 0
2, 78662, Note_on_c, 0, 48, 54
2, 78662, Note_on_c, 0, 94, 0
2, 78662, Note_on_c, 0, 50, 0
2, 78662, Note_on_c, 0, 89, 0
2, 78662, Note_on_c, 0, 86, 0
2, 78663, Note_on_c, 0, 82, 0
2, 78663, Note_on_c, 0, 74, 0
2, 78743, Control_c, 0, 64, 127
2, 79054, Note_on_c, 0, 82, 86
2, 79064, Note_on_c, 0, 70, 77
2, 79464, Note_on_c, 0, 70, 0
2, 79468, Note_on_c, 0, 81, 83
2, 79475, Note_on_c, 0, 70, 66
2, 79475, Note_on_c, 0, 69, 65
2, 79494, Control_c, 0, 64, 0
2, 79495, Note_on_c, 0, 48, 0
2, 79496, Note_on_c, 0, 77, 0
2, 79497, Note_on_c, 0, 82, 0
2, 79497, Note_on_c, 0, 85, 0
2, 79498, Note_on_c, 0, 60, 53
2, 79500, Note_on_c, 0, 73, 0
2, 79500, Note_on_c, 0, 48, 47
2, 79595, Control_c, 0, 64, 127
2, 80022, Note_on_c, 0, 79, 82
2, 80024, Note_on_c, 0, 67, 69
2, 80059, Note_on_c, 0, 69, 0
2, 80060, Control_c, 0, 64, 0
2, 80061, Note_on_c, 0, 81, 0
2, 80171, Control_c, 0, 64, 127
2, 80248, Note_on_c, 0, 58, 0
2, 80640, Note_on_c, 0, 70, 0
2, 80793, Note_on_c, 0, 41, 31
2, 80839, Note_on_c, 0, 48, 0
2, 80839, Note_on_c, 0, 60, 0
2, 80848, Note_on_c, 0, 48, 43
2, 80848, Note_on_c, 0, 60, 33
2, 80944, Note_on_c, 0, 57, 48
2, 80977, Note_on_c, 0, 67, 0
2, 81020, Note_on_c, 0, 69, 52
2, 81069, Note_on_c, 0, 72, 67
2, 81104, Control_c, 0, 64, 0
2, 81144, Note_on_c, 0, 77, 75
2, 81169, Control_c, 0, 64, 127
2, 81185, Control_c, 0, 64, 0
2, 81200, Note_on_c, 0, 79, 0
2, 81234, Note_on_c, 0, 81, 86
2, 81553, Control_c, 0, 64, 127
2, 82416, Note_on_c, 0, 29, 40
2, 82444, Note_on_c, 0, 60, 0
2, 82844, Note_on_c, 0, 29, 0
2, 82844, Note_on_c, 0, 41, 0
2, 82848, Note_on_c, 0, 41, 35
2, 82850, Note_on_c, 0, 29, 34
2, 83074, Note_on_c, 0, 48, 0
2, 83084, Note_on_c, 0, 48, 52
2, 83286, Note_on_c, 0, 53, 46
2, 83479, Note_on_c, 0, 55, 53
2, 83650, Note_on_c, 0, 57, 0
2, 83659, Note_on_c, 0, 57, 57
2, 83817, Note_on_c, 0, 60, 57
2, 84046, Note_on_c, 0, 65, 40
2, 84221, Note_on_c, 0, 67, 52
2, 84456, Note_on_c, 0, 69, 0
2, 84463, Note_on_c, 0, 69, 53
2, 84718, Note_on_c, 0, 72, 0
2, 84729, Note_on_c, 0, 72, 52
2, 85002, Note_on_c, 0, 77, 0
2, 85012, Note_on_c, 0, 77, 68
2, 85350, Note_on_c, 0, 79, 62
2, 85839, Note_on_c, 0, 81, 0
2, 85874, Note_on_c, 0, 84, 57
2, 86400, Note_on_c, 0, 29, 0
2, 86400, Note_on_c, 0, 41, 0
2, 86400, Note_on_c, 0, 48, 0
2, 86400, Note_on_c, 0, 53, 0
2, 86400, Note_on_c, 0, 55, 0
2, 86400, Note_on_c, 0, 57, 0
2, 86400, Note_on_c, 0, 60, 0
2, 86400, Note_on_c, 0, 65, 0
2, 86400, Note_on_c, 0, 67, 0
2, 86819, Note_on_c, 0, 96, 71
2, 86820, Note_on_c, 0, 89, 67
2, 89072, Note_on_c, 0, 69, 0
2, 89333, Note_on_c, 0, 72, 0
2, 89617, Note_on_c, 0, 77, 0
2, 89955, Note_on_c, 0, 79, 0
2, 90240, Note_on_c, 0, 84, 0
2, 90240, Note_on_c, 0, 89, 0
2, 90240, Note_on_c, 0, 96, 0
2, 91261, Control_c, 0, 64, 0
2, 91262, End_track
0, 0, End_of_file
