0, 0, Header, 1, 2, 384
1, 0, Start_track
1, 0, Tempo, 500000
1, 0, Time_signature, 4, 2, 24, 8
1, 1, End_track
2, 0, Start_track
2, 6710, Note_on_c, 0, 55, 93
2, 6711, Note_on_c, 0, 67, 93
2, 6712, Control_c, 0, 64, 127
2, 6810, Note_on_c, 0, 72, 89
2, 6814, Note_on_c, 0, 60, 80
2, 6877, Note_on_c, 0, 62, 87
2, 6901, Note_on_c, 0, 74, 94
2, 7004, Note_on_c, 0, 72, 0
2, 7011, Note_on_c, 0, 67, 0
2, 7014, Note_on_c, 0, 76, 109
2, 7015, Note_on_c, 0, 72, 98
2, 7015, Note_on_c, 0, 67, 89
2, 7015, Note_on_c, 0, 64, 100
2, 7019, Note_on_c, 0, 55, 0
2, 7021, Control_c, 0, 64, 0
2, 7023, Note_on_c, 0, 60, 0
2, 7024, Note_on_c, 0, 62, 0
2, 7025, Note_on_c, 0, 48, 92
2, 7026, Note_on_c, 0, 74, 0
2, 7034, Note_on_c, 0, 36, 85
2, 7219, Control_c, 0, 64, 127
2, 7645, Control_c, 0, 64, 0
2, 7648, Note_on_c, 0, 64, 0
2, 7649, Note_on_c, 0, 67, 0
2, 7652, Note_on_c, 0, 76, 0
2, 7652, Note_on_c, 0, 36, 0
2, 7652, Note_on_c, 0, 48, 0
2, 7655, Note_on_c, 0, 79, 102
2, 7656, Note_on_c, 0, 72, 0
2, 7659, Note_on_c, 0, 67, 90
2, 7660, Note_on_c, 0, 35, 82
2, 7660, Note_on_c, 0, 47, 86
2, 7661, Note_on_c, 0, 74, 92
2, 7662, Note_on_c, 0, 71, 90
2, 7741, Control_c, 0, 64, 127
2, 8302, Note_on_c, 0, 47, 0
2, 8303, Note_on_c, 0, 35, 0
2, 8304, Note_on_c, 0, 74, 0
2, 8305, Note_on_c, 0, 79, 0
2, 8305, Note_on_c, 0, 71, 0
2, 8305, Note_on_c, 0, 67, 0
2, 8305, Control_c, 0, 64, 0
2, 8313, Note_on_c, 0, 72, 101
2, 8314, Note_on_c, 0, 64, 92
2, 8319, Note_on_c, 0, 60, 93
2, 8319, Note_on_c, 0, 69, 86
2, 8323, Note_on_c, 0, 33, 84
2, 8323, Note_on_c, 0, 45, 89
2, 8394, Control_c, 0, 64, 127
2, 8821, Note_on_c, 0, 74, 90
2, 8827, Note_on_c, 0, 62, 77
2, 8904, Control_c, 0, 64, 0
2, 8905, Note_on_c, 0, 60, 0
2, 8905, Note_on_c, 0, 45, 0
2, 8905, Note_on_c, 0, 72, 0
2, 8905, Note_on_c, 0, 74, 0
2, 8905, Note_on_c, 0, 62, 0
2, 8906, Note_on_c, 0, 69, 0
2, 8916, Note_on_c, 0, 33, 0
2, 8924, Note_on_c, 0, 64, 0
2, 8929, Note_on_c, 0, 76, 102
2, 8935, Note_on_c, 0, 64, 95
2, 8943, Note_on_c, 0, 71, 88
2, 8943, Note_on_c, 0, 67, 80
2, 8943, Note_on_c, 0, 43, 89
2, 8944, Note_on_c, 0, 31, 86
2, 9016, Control_c, 0, 64, 127
2, 9239, Note_on_c, 0, 43, 0
2, 9243, Note_on_c, 0, 43, 83
2, 9354, Note_on_c, 0, 31, 0
2, 9359, Note_on_c, 0, 31, 80
2, 9438, Note_on_c, 0, 43, 0
2, 9443, Note_on_c, 0, 43, 74
2, 9526, Note_on_c, 0, 31, 0
2, 9527, Note_on_c, 0, 67, 0
2, 9528, Note_on_c, 0, 64, 0
2, 9528, Note_on_c, 0, 71, 0
2, 9528, Note_on_c, 0, 43, 0
2, 9529, Note_on_c, 0, 76, 0
2, 9533, Control_c, 0, 64, 0
2, 9557, Note_on_c, 0, 77, 106
2, 9565, Note_on_c, 0, 69, 88
2, 9565, Note_on_c, 0, 72, 86
2, 9565, Note_on_c, 0, 65, 92
2, 9571, Note_on_c, 0, 41, 92
2, 9572, Note_on_c, 0, 29, 94
2, 9630, Control_c, 0, 64, 127
2, 9880, Note_on_c, 0, 76, 104
2, 9885, Note_on_c, 0, 64, 97
2, 10156, Note_on_c, 0, 29, 0
2, 10157, Control_c, 0, 64, 0
2, 10157, Note_on_c, 0, 41, 0
2, 10160, Note_on_c, 0, 77, 0
2, 10161, Note_on_c, 0, 65, 0
2, 10161, Note_on_c, 0, 64, 0
2, 10161, Note_on_c, 0, 69, 0
2, 10161, Note_on_c, 0, 72, 0
2, 10162, Note_on_c, 0, 76, 0
2, 10194, Note_on_c, 0, 74, 105
2, 10195, Note_on_c, 0, 62, 94
2, 10199, Note_on_c, 0, 66, 89
2, 10199, Note_on_c, 0, 69, 86
2, 10200, Note_on_c, 0, 38, 71
2, 10203, Note_on_c, 0, 42, 80
2, 10204, Note_on_c, 0, 30, 75
2, 10260, Control_c, 0, 64, 127
2, 10437, Note_on_c, 0, 38, 0
2, 10503, Note_on_c, 0, 72, 99
2, 10504, Note_on_c, 0, 60, 90
2, 10721, Note_on_c, 0, 60, 0
2, 10721, Note_on_c, 0, 72, 0
2, 10727, Note_on_c, 0, 72, 95
2, 10731, Note_on_c, 0, 60, 75
2, 10805, Note_on_c, 0, 69, 0
2, 10805, Note_on_c, 0, 72, 0
2, 10809, Control_c, 0, 64, 0
2, 10809, Note_on_c, 0, 42, 0
2, 10810, Note_on_c, 0, 66, 0
2, 10810, Note_on_c, 0, 30, 0
2, 10811, Note_on_c, 0, 74, 0
2, 10813, Note_on_c, 0, 60, 0
2, 10816, Note_on_c, 0, 72, 94
2, 10817, Note_on_c, 0, 60, 86
2, 10821, Note_on_c, 0, 62, 0
2, 10828, Note_on_c, 0, 67, 75
2, 10828, Note_on_c, 0, 43, 88
2, 10829, Note_on_c, 0, 31, 81
2, 10830, Note_on_c, 0, 62, 88
2, 10913, Control_c, 0, 64, 127
2, 11332, Note_on_c, 0, 71, 94
2, 11334, Note_on_c, 0, 59, 82
2, 11412, Note_on_c, 0, 72, 0
2, 11412, Note_on_c, 0, 67, 0
2, 11413, Note_on_c, 0, 62, 0
2, 11414, Note_on_c, 0, 43, 0
2, 11414, Note_on_c, 0, 59, 0
2, 11417, Control_c, 0, 64, 0
2, 11420, Note_on_c, 0, 60, 0
2, 11427, Note_on_c, 0, 31, 0
2, 11443, Note_on_c, 0, 71, 0
2, 11454, Note_on_c, 0, 71, 95
2, 11458, Note_on_c, 0, 62, 87
2, 11460, Note_on_c, 0, 59, 88
2, 11460, Note_on_c, 0, 67, 83
2, 11461, Note_on_c, 0, 31, 83
2, 11462, Note_on_c, 0, 43, 87
2, 11489, Control_c, 0, 64, 127
2, 11735, Note_on_c, 0, 67, 0
2, 11741, Note_on_c, 0, 67, 90
2, 11742, Note_on_c, 0, 43, 0
2, 11743, Note_on_c, 0, 91, 100
2, 11744, Note_on_c, 0, 55, 81
2, 11744, Note_on_c, 0, 79, 109
2, 11750, Note_on_c, 0, 91, 0
2, 11753, Note_on_c, 0, 43, 77
2, 11837, Note_on_c, 0, 72, 98
2, 11839, Note_on_c, 0, 84, 90
2, 11937, Note_on_c, 0, 86, 88
2, 11938, Note_on_c, 0, 74, 89
2, 11942, Note_on_c, 0, 43, 0
2, 11952, Note_on_c, 0, 43, 83
2, 12042, Note_on_c, 0, 79, 0
2, 12042, Note_on_c, 0, 84, 0
2, 12045, Note_on_c, 0, 62, 0
2, 12045, Control_c, 0, 64, 0
2, 12046, Note_on_c, 0, 71, 0
2, 12046, Note_on_c, 0, 88, 106
2, 12047, Note_on_c, 0, 67, 0
2, 12047, Note_on_c, 0, 76, 107
2, 12048, Note_on_c, 0, 36, 101
2, 12048, Note_on_c, 0, 79, 107
2, 12050, Note_on_c, 0, 24, 98
2, 12052, Note_on_c, 0, 84, 95
2, 12065, Note_on_c, 0, 59, 0
2, 12072, Note_on_c, 0, 31, 0
2, 12103, Control_c, 0, 64, 127
2, 12203, Note_on_c, 0, 74, 0
2, 12349, Note_on_c, 0, 24, 0
2, 12368, Control_c, 0, 64, 0
2, 12372, Note_on_c, 0, 79, 0
2, 12372, Note_on_c, 0, 84, 0
2, 12372, Note_on_c, 0, 88, 0
2, 12377, Note_on_c, 0, 36, 0
2, 12380, Note_on_c, 0, 76, 0
2, 12380, Note_on_c, 0, 84, 107
2, 12381, Note_on_c, 0, 79, 110
2, 12381, Note_on_c, 0, 91, 104
2, 12382, Note_on_c, 0, 88, 103
2, 12387, Note_on_c, 0, 76, 104
2, 12387, Note_on_c, 0, 72, 0
2, 12392, Note_on_c, 0, 48, 90
2, 12397, Note_on_c, 0, 72, 102
2, 12418, Control_c, 0, 64, 127
2, 12618, Note_on_c, 0, 84, 0
2, 12625, Note_on_c, 0, 72, 0
2, 12625, Note_on_c, 0, 76, 0
2, 12629, Note_on_c, 0, 84, 94
2, 12630, Note_on_c, 0, 72, 89
2, 12633, Note_on_c, 0, 48, 0
2, 12634, Note_on_c, 0, 76, 89
2, 12638, Note_on_c, 0, 48, 65
2, 12656, Note_on_c, 0, 86, 0
2, 12674, Control_c, 0, 64, 0
2, 12677, Note_on_c, 0, 48, 0
2, 12681, Note_on_c, 0, 72, 0
2, 12687, Note_on_c, 0, 43, 0
2, 12687, Note_on_c, 0, 55, 0
2, 12702, Note_on_c, 0, 76, 0
2, 12702, Note_on_c, 0, 79, 0
2, 12702, Note_on_c, 0, 84, 0
2, 12702, Note_on_c, 0, 91, 0
2, 12709, Note_on_c, 0, 91, 101
2, 12710, Note_on_c, 0, 79, 106
2, 12713, Note_on_c, 0, 83, 94
2, 12714, Note_on_c, 0, 86, 97
2, 12714, Note_on_c, 0, 47, 101
2, 12714, Note_on_c, 0, 35, 94
2, 12748, Control_c, 0, 64, 127
2, 13017, Control_c, 0, 64, 0
2, 13017, Note_on_c, 0, 91, 0
2, 13025, Note_on_c, 0, 79, 0
2, 13025, Note_on_c, 0, 83, 0
2, 13025, Note_on_c, 0, 86, 0
2, 13028, Note_on_c, 0, 91, 105
2, 13030, Note_on_c, 0, 83, 105
2, 13032, Note_on_c, 0, 47, 0
2, 13033, Note_on_c, 0, 86, 100
2, 13036, Note_on_c, 0, 79, 106
2, 13037, Note_on_c, 0, 59, 93
2, 13039, Note_on_c, 0, 71, 99
2, 13040, Note_on_c, 0, 88, 0
2, 13040, Note_on_c, 0, 67, 94
2, 13041, Note_on_c, 0, 47, 93
2, 13042, Note_on_c, 0, 74, 96
2, 13045, Note_on_c, 0, 50, 83
2, 13048, Control_c, 0, 64, 127
2, 13255, Note_on_c, 0, 71, 0
2, 13255, Note_on_c, 0, 74, 0
2, 13255, Note_on_c, 0, 79, 0
2, 13255, Note_on_c, 0, 83, 0
2, 13262, Note_on_c, 0, 71, 84
2, 13262, Note_on_c, 0, 83, 80
2, 13262, Note_on_c, 0, 74, 73
2, 13267, Note_on_c, 0, 79, 69
2, 13312, Control_c, 0, 64, 0
2, 13317, Note_on_c, 0, 59, 0
2, 13319, Note_on_c, 0, 91, 0
2, 13320, Note_on_c, 0, 47, 0
2, 13320, Note_on_c, 0, 71, 0
2, 13320, Note_on_c, 0, 83, 0
2, 13320, Note_on_c, 0, 86, 0
2, 13320, Note_on_c, 0, 74, 0
2, 13321, Note_on_c, 0, 50, 0
2, 13324, Note_on_c, 0, 67, 0
2, 13340, Note_on_c, 0, 35, 0
2, 13340, Note_on_c, 0, 79, 0
2, 13346, Note_on_c, 0, 84, 96
2, 13347, Note_on_c, 0, 72, 100
2, 13349, Note_on_c, 0, 79, 107
2, 13351, Note_on_c, 0, 46, 98
2, 13352, Note_on_c, 0, 82, 93
2, 13353, Note_on_c, 0, 34, 99
2, 13386, Control_c, 0, 64, 127
2, 13659, Control_c, 0, 64, 0
2, 13685, Note_on_c, 0, 34, 0
2, 13685, Note_on_c, 0, 46, 0
2, 13692, Note_on_c, 0, 46, 87
2, 13693, Note_on_c, 0, 79, 0
2, 13693, Note_on_c, 0, 82, 0
2, 13696, Note_on_c, 0, 34, 90
2, 13697, Note_on_c, 0, 82, 96
2, 13697, Note_on_c, 0, 70, 92
2, 13698, Note_on_c, 0, 76, 85
2, 13703, Note_on_c, 0, 79, 84
2, 13708, Control_c, 0, 64, 127
2, 13908, Note_on_c, 0, 70, 0
2, 13908, Note_on_c, 0, 82, 0
2, 13913, Note_on_c, 0, 86, 95
2, 13915, Note_on_c, 0, 74, 94
2, 13915, Note_on_c, 0, 82, 95
2, 13919, Note_on_c, 0, 70, 85
2, 13960, Note_on_c, 0, 34, 0
2, 13962, Note_on_c, 0, 79, 0
2, 13962, Note_on_c, 0, 76, 0
2, 13965, Note_on_c, 0, 46, 0
2, 13966, Note_on_c, 0, 70, 0
2, 13969, Note_on_c, 0, 82, 0
2, 13969, Note_on_c, 0, 72, 0
2, 13969, Note_on_c, 0, 84, 0
2, 13972, Control_c, 0, 64, 0
2, 13975, Note_on_c, 0, 74, 0
2, 13993, Note_on_c, 0, 86, 0
2, 14012, Note_on_c, 0, 83, 98
2, 14012, Note_on_c, 0, 88, 104
2, 14012, Note_on_c, 0, 32, 98
2, 14012, Note_on_c, 0, 80, 102
2, 14012, Note_on_c, 0, 76, 101
2, 14012, Note_on_c, 0, 44, 104
2, 14069, Control_c, 0, 64, 127
2, 14319, Note_on_c, 0, 68, 99
2, 14323, Note_on_c, 0, 32, 0
2, 14323, Note_on_c, 0, 44, 0
2, 14323, Note_on_c, 0, 76, 0
2, 14323, Note_on_c, 0, 80, 0
2, 14327, Note_on_c, 0, 44, 85
2, 14327, Note_on_c, 0, 80, 96
2, 14328, Note_on_c, 0, 71, 86
2, 14330, Note_on_c, 0, 32, 80
2, 14334, Note_on_c, 0, 76, 85
2, 14522, Note_on_c, 0, 68, 0
2, 14522, Note_on_c, 0, 80, 0
2, 14528, Note_on_c, 0, 80, 89
2, 14532, Note_on_c, 0, 68, 67
2, 14555, Control_c, 0, 64, 0
2, 14606, Note_on_c, 0, 68, 0
2, 14607, Note_on_c, 0, 32, 0
2, 14607, Note_on_c, 0, 83, 0
2, 14607, Note_on_c, 0, 71, 0
2, 14608, Note_on_c, 0, 44, 0
2, 14608, Note_on_c, 0, 80, 0
2, 14609, Note_on_c, 0, 76, 0
2, 14611, Note_on_c, 0, 88, 0
2, 14619, Note_on_c, 0, 89, 110
2, 14625, Note_on_c, 0, 77, 107
2, 14627, Note_on_c, 0, 84, 95
2, 14627, Note_on_c, 0, 41, 99
2, 14631, Note_on_c, 0, 81, 103
2, 14633, Note_on_c, 0, 29, 97
2, 14691, Control_c, 0, 64, 127
2, 14964, Note_on_c, 0, 89, 0
2, 14964, Note_on_c, 0, 77, 0
2, 14965, Note_on_c, 0, 41, 0
2, 14967, Control_c, 0, 64, 0
2, 14969, Note_on_c, 0, 88, 98
2, 14972, Note_on_c, 0, 76, 96
2, 14976, Note_on_c, 0, 60, 76
2, 14979, Note_on_c, 0, 57, 82
2, 14999, Control_c, 0, 64, 127
2, 15294, Control_c, 0, 64, 0
2, 15297, Note_on_c, 0, 57, 0
2, 15297, Note_on_c, 0, 74, 105
2, 15299, Note_on_c, 0, 83, 107
2, 15299, Note_on_c, 0, 29, 0
2, 15299, Note_on_c, 0, 86, 103
2, 15301, Note_on_c, 0, 76, 0
2, 15301, Note_on_c, 0, 31, 93
2, 15301, Note_on_c, 0, 88, 0
2, 15301, Note_on_c, 0, 43, 100
2, 15301, Note_on_c, 0, 79, 108
2, 15306, Note_on_c, 0, 60, 0
2, 15313, Note_on_c, 0, 84, 0
2, 15336, Note_on_c, 0, 81, 0
2, 15375, Control_c, 0, 64, 127
2, 15537, Note_on_c, 0, 50, 66
2, 15544, Note_on_c, 0, 50, 0
2, 15654, Note_on_c, 0, 84, 94
2, 15655, Note_on_c, 0, 72, 101
2, 15656, Note_on_c, 0, 59, 87
2, 15657, Note_on_c, 0, 62, 91
2, 15936, Note_on_c, 0, 43, 0
2, 15940, Note_on_c, 0, 43, 65
2, 16007, Note_on_c, 0, 62, 0
2, 16008, Note_on_c, 0, 74, 0
2, 16008, Note_on_c, 0, 72, 0
2, 16008, Note_on_c, 0, 86, 0
2, 16009, Note_on_c, 0, 59, 0
2, 16009, Note_on_c, 0, 83, 0
2, 16009, Note_on_c, 0, 43, 0
2, 16009, Control_c, 0, 64, 0
2, 16009, Note_on_c, 0, 79, 0
2, 16009, Note_on_c, 0, 84, 0
2, 16012, Note_on_c, 0, 31, 0
2, 16046, Note_on_c, 0, 45, 101
2, 16047, Note_on_c, 0, 81, 106
2, 16047, Note_on_c, 0, 64, 99
2, 16047, Note_on_c, 0, 33, 99
2, 16050, Note_on_c, 0, 76, 98
2, 16050, Note_on_c, 0, 69, 94
2, 16051, Note_on_c, 0, 72, 95
2, 16074, Control_c, 0, 64, 127
2, 16184, Note_on_c, 0, 81, 0
2, 16184, Control_c, 0, 64, 0
2, 16185, Note_on_c, 0, 69, 0
2, 16187, Note_on_c, 0, 84, 98
2, 16189, Note_on_c, 0, 33, 0
2, 16189, Note_on_c, 0, 45, 0
2, 16189, Note_on_c, 0, 64, 0
2, 16189, Note_on_c, 0, 72, 0
2, 16189, Note_on_c, 0, 76, 0
2, 16191, Note_on_c, 0, 60, 70
2, 16193, Note_on_c, 0, 57, 75
2, 16194, Note_on_c, 0, 72, 83
2, 16196, Note_on_c, 0, 48, 73
2, 16197, Note_on_c, 0, 60, 0
2, 16199, Note_on_c, 0, 76, 82
2, 16200, Note_on_c, 0, 45, 82
2, 16201, Note_on_c, 0, 52, 58
2, 16243, Control_c, 0, 64, 127
2, 16331, Note_on_c, 0, 83, 92
2, 16333, Note_on_c, 0, 74, 82
2, 16334, Note_on_c, 0, 60, 66
2, 16335, Note_on_c, 0, 71, 78
2, 16335, Note_on_c, 0, 48, 0
2, 16340, Note_on_c, 0, 48, 71
2, 16350, Note_on_c, 0, 52, 0
2, 16350, Note_on_c, 0, 76, 0
2, 16355, Note_on_c, 0, 64, 73
2, 16356, Note_on_c, 0, 52, 65
2, 16361, Note_on_c, 0, 76, 62
2, 16465, Note_on_c, 0, 45, 0
2, 16465, Note_on_c, 0, 57, 0
2, 16465, Note_on_c, 0, 84, 0
2, 16473, Note_on_c, 0, 48, 0
2, 16473, Note_on_c, 0, 52, 0
2, 16473, Note_on_c, 0, 72, 0
2, 16473, Note_on_c, 0, 76, 0
2, 16474, Note_on_c, 0, 57, 72
2, 16476, Note_on_c, 0, 84, 97
2, 16478, Note_on_c, 0, 48, 67
2, 16480, Note_on_c, 0, 72, 85
2, 16482, Note_on_c, 0, 52, 67
2, 16484, Note_on_c, 0, 76, 83
2, 16611, Note_on_c, 0, 74, 0
2, 16618, Note_on_c, 0, 86, 98
2, 16619, Note_on_c, 0, 48, 0
2, 16622, Note_on_c, 0, 74, 87
2, 16623, Note_on_c, 0, 77, 76
2, 16627, Note_on_c, 0, 64, 0
2, 16627, Note_on_c, 0, 76, 0
2, 16627, Note_on_c, 0, 77, 0
2, 16628, Note_on_c, 0, 33, 85
2, 16628, Note_on_c, 0, 45, 78
2, 16630, Note_on_c, 0, 36, 75
2, 16630, Note_on_c, 0, 48, 74
2, 16633, Note_on_c, 0, 64, 81
2, 16634, Note_on_c, 0, 60, 0
2, 16634, Note_on_c, 0, 33, 0
2, 16634, Note_on_c, 0, 36, 0
2, 16638, Note_on_c, 0, 76, 78
2, 16742, Note_on_c, 0, 84, 0
2, 16744, Note_on_c, 0, 86, 0
2, 16745, Note_on_c, 0, 74, 0
2, 16747, Control_c, 0, 64, 0
2, 16750, Note_on_c, 0, 57, 0
2, 16750, Note_on_c, 0, 71, 0
2, 16750, Note_on_c, 0, 72, 0
2, 16750, Note_on_c, 0, 76, 0
2, 16752, Note_on_c, 0, 84, 92
2, 16757, Note_on_c, 0, 76, 85
2, 16757, Note_on_c, 0, 45, 0
2, 16757, Note_on_c, 0, 48, 0
2, 16757, Note_on_c, 0, 52, 0
2, 16758, Note_on_c, 0, 72, 84
2, 16760, Note_on_c, 0, 57, 75
2, 16762, Note_on_c, 0, 52, 72
2, 16763, Note_on_c, 0, 45, 74
2, 16765, Note_on_c, 0, 64, 0
2, 16768, Note_on_c, 0, 48, 69
2, 16800, Note_on_c, 0, 57, 0
2, 16811, Control_c, 0, 64, 127
2, 16857, Note_on_c, 0, 45, 0
2, 16896, Note_on_c, 0, 83, 0
2, 16901, Note_on_c, 0, 83, 91
2, 16907, Note_on_c, 0, 74, 81
2, 16908, Note_on_c, 0, 45, 81
2, 16908, Note_on_c, 0, 71, 78
2, 16909, Note_on_c, 0, 33, 85
2, 16926, Note_on_c, 0, 52, 0
2, 17004, Control_c, 0, 64, 0
2, 17038, Note_on_c, 0, 83, 0
2, 17041, Note_on_c, 0, 33, 0
2, 17041, Note_on_c, 0, 71, 0
2, 17044, Note_on_c, 0, 74, 0
2, 17049, Note_on_c, 0, 45, 0
2, 17049, Note_on_c, 0, 79, 91
2, 17052, Note_on_c, 0, 67, 80
2, 17052, Note_on_c, 0, 71, 80
2, 17053, Note_on_c, 0, 57, 75
2, 17054, Note_on_c, 0, 69, 73
2, 17058, Note_on_c, 0, 45, 67
2, 17064, Note_on_c, 0, 48, 0
2, 17072, Note_on_c, 0, 72, 0
2, 17088, Note_on_c, 0, 84, 0
2, 17116, Note_on_c, 0, 67, 0
2, 17117, Note_on_c, 0, 71, 0
2, 17118, Note_on_c, 0, 57, 0
2, 17121, Note_on_c, 0, 79, 0
2, 17121, Note_on_c, 0, 45, 0
2, 17126, Note_on_c, 0, 69, 0
2, 17126, Note_on_c, 0, 76, 0
2, 17182, Note_on_c, 0, 64, 86
2, 17184, Note_on_c, 0, 33, 89
2, 17187, Note_on_c, 0, 64, 0
2, 17189, Note_on_c, 0, 45, 83
2, 17192, Note_on_c, 0, 74, 90
2, 17193, Note_on_c, 0, 77, 87
2, 17194, Note_on_c, 0, 86, 102
2, 17203, Control_c, 0, 64, 127
2, 17337, Note_on_c, 0, 84, 94
2, 17340, Note_on_c, 0, 57, 78
2, 17341, Note_on_c, 0, 45, 0
2, 17342, Note_on_c, 0, 48, 76
2, 17343, Note_on_c, 0, 72, 86
2, 17344, Note_on_c, 0, 52, 68
2, 17344, Note_on_c, 0, 76, 83
2, 17350, Note_on_c, 0, 45, 74
2, 17448, Note_on_c, 0, 33, 0
2, 17457, Note_on_c, 0, 33, 89
2, 17464, Note_on_c, 0, 45, 0
2, 17465, Note_on_c, 0, 40, 76
2, 17468, Note_on_c, 0, 45, 80
2, 17472, Note_on_c, 0, 74, 0
2, 17479, Note_on_c, 0, 74, 85
2, 17481, Note_on_c, 0, 83, 85
2, 17482, Note_on_c, 0, 71, 85
2, 17583, Control_c, 0, 64, 0
2, 17617, Note_on_c, 0, 48, 0
2, 17617, Note_on_c, 0, 57, 0
2, 17617, Control_c, 0, 64, 127
2, 17625, Note_on_c, 0, 48, 72
2, 17625, Note_on_c, 0, 79, 90
2, 17627, Note_on_c, 0, 57, 77
2, 17630, Note_on_c, 0, 69, 71
2, 17733, Note_on_c, 0, 33, 0
2, 17733, Note_on_c, 0, 45, 0
2, 17739, Note_on_c, 0, 45, 73
2, 17741, Note_on_c, 0, 33, 86
2, 17756, Note_on_c, 0, 86, 0
2, 17763, Note_on_c, 0, 74, 0
2, 17763, Note_on_c, 0, 77, 0
2, 17766, Note_on_c, 0, 86, 98
2, 17767, Note_on_c, 0, 74, 80
2, 17770, Note_on_c, 0, 77, 75
2, 17869, Control_c, 0, 64, 0
2, 17894, Note_on_c, 0, 84, 0
2, 17894, Control_c, 0, 64, 127
2, 17902, Note_on_c, 0, 52, 0
2, 17902, Note_on_c, 0, 57, 0
2, 17902, Note_on_c, 0, 72, 0
2, 17902, Note_on_c, 0, 76, 0
2, 17905, Note_on_c, 0, 84, 93
2, 17906, Note_on_c, 0, 57, 81
2, 17907, Note_on_c, 0, 72, 87
2, 17909, Note_on_c, 0, 48, 0
2, 17912, Note_on_c, 0, 52, 68
2, 17912, Note_on_c, 0, 76, 81
2, 17913, Note_on_c, 0, 48, 67
2, 18032, Note_on_c, 0, 33, 0
2, 18040, Note_on_c, 0, 45, 0
2, 18040, Note_on_c, 0, 71, 0
2, 18040, Note_on_c, 0, 74, 0
2, 18041, Note_on_c, 0, 33, 90
2, 18044, Note_on_c, 0, 45, 86
2, 18048, Note_on_c, 0, 76, 0
2, 18048, Note_on_c, 0, 83, 0
2, 18049, Note_on_c, 0, 74, 87
2, 18049, Note_on_c, 0, 64, 90
2, 18051, Note_on_c, 0, 71, 89
2, 18051, Note_on_c, 0, 83, 87
2, 18051, Note_on_c, 0, 76, 80
2, 18143, Note_on_c, 0, 33, 0
2, 18144, Note_on_c, 0, 77, 0
2, 18144, Note_on_c, 0, 84, 0
2, 18144, Note_on_c, 0, 45, 0
2, 18144, Note_on_c, 0, 64, 0
2, 18144, Note_on_c, 0, 72, 0
2, 18144, Note_on_c, 0, 74, 0
2, 18144, Note_on_c, 0, 76, 0
2, 18145, Note_on_c, 0, 86, 0
2, 18149, Control_c, 0, 64, 0
2, 18163, Note_on_c, 0, 40, 0
2, 18178, Note_on_c, 0, 69, 0
2, 18186, Note_on_c, 0, 57, 0
2, 18193, Note_on_c, 0, 48, 0
2, 18193, Note_on_c, 0, 52, 0
2, 18193, Note_on_c, 0, 79, 0
2, 18196, Note_on_c, 0, 57, 84
2, 18197, Note_on_c, 0, 79, 93
2, 18198, Note_on_c, 0, 48, 83
2, 18199, Note_on_c, 0, 52, 79
2, 18200, Note_on_c, 0, 67, 88
2, 18202, Note_on_c, 0, 69, 81
2, 18241, Note_on_c, 0, 57, 0
2, 18241, Note_on_c, 0, 83, 0
2, 18243, Note_on_c, 0, 52, 0
2, 18243, Note_on_c, 0, 67, 0
2, 18245, Note_on_c, 0, 79, 0
2, 18247, Note_on_c, 0, 48, 0
2, 18247, Note_on_c, 0, 71, 0
2, 18255, Note_on_c, 0, 69, 0
2, 18320, Note_on_c, 0, 33, 93
2, 18329, Note_on_c, 0, 45, 86
2, 18334, Note_on_c, 0, 81, 100
2, 18339, Control_c, 0, 64, 127
2, 18340, Note_on_c, 0, 72, 93
2, 18340, Note_on_c, 0, 69, 81
2, 18470, Note_on_c, 0, 69, 0
2, 18473, Note_on_c, 0, 84, 93
2, 18479, Note_on_c, 0, 57, 88
2, 18481, Note_on_c, 0, 69, 79
2, 18490, Note_on_c, 0, 48, 70
2, 18496, Note_on_c, 0, 52, 65
2, 18593, Note_on_c, 0, 33, 0
2, 18597, Note_on_c, 0, 33, 94
2, 18600, Note_on_c, 0, 45, 0
2, 18610, Note_on_c, 0, 45, 91
2, 18619, Note_on_c, 0, 76, 84
2, 18619, Note_on_c, 0, 74, 82
2, 18619, Note_on_c, 0, 83, 91
2, 18620, Note_on_c, 0, 71, 88
2, 18727, Control_c, 0, 64, 0
2, 18731, Note_on_c, 0, 45, 0
2, 18740, Note_on_c, 0, 45, 79
2, 18742, Note_on_c, 0, 33, 0
2, 18742, Note_on_c, 0, 81, 0
2, 18742, Note_on_c, 0, 69, 0
2, 18744, Note_on_c, 0, 71, 0
2, 18754, Note_on_c, 0, 52, 0
2, 18754, Note_on_c, 0, 57, 0
2, 18754, Note_on_c, 0, 72, 0
2, 18754, Note_on_c, 0, 76, 0
2, 18754, Note_on_c, 0, 84, 0
2, 18759, Note_on_c, 0, 57, 81
2, 18762, Note_on_c, 0, 48, 0
2, 18763, Note_on_c, 0, 84, 91
2, 18764, Note_on_c, 0, 72, 87
2, 18766, Note_on_c, 0, 76, 83
2, 18767, Note_on_c, 0, 48, 64
2, 18769, Note_on_c, 0, 74, 0
2, 18777, Control_c, 0, 64, 127
2, 18879, Note_on_c, 0, 33, 89
2, 18892, Note_on_c, 0, 76, 0
2, 18897, Note_on_c, 0, 86, 101
2, 18898, Note_on_c, 0, 74, 82
2, 18899, Note_on_c, 0, 76, 78
2, 19000, Note_on_c, 0, 57, 0
2, 19007, Note_on_c, 0, 57, 81
2, 19038, Note_on_c, 0, 48, 0
2, 19038, Note_on_c, 0, 72, 0
2, 19038, Note_on_c, 0, 76, 0
2, 19038, Note_on_c, 0, 84, 0
2, 19043, Note_on_c, 0, 52, 74
2, 19044, Note_on_c, 0, 84, 87
2, 19044, Note_on_c, 0, 48, 72
2, 19045, Note_on_c, 0, 76, 84
2, 19049, Note_on_c, 0, 72, 85
2, 19153, Note_on_c, 0, 33, 0
2, 19157, Note_on_c, 0, 33, 91
2, 19161, Note_on_c, 0, 45, 0
2, 19165, Note_on_c, 0, 45, 85
2, 19169, Note_on_c, 0, 74, 0
2, 19176, Note_on_c, 0, 83, 0
2, 19180, Note_on_c, 0, 74, 84
2, 19181, Note_on_c, 0, 83, 91
2, 19186, Note_on_c, 0, 71, 80
2, 19269, Note_on_c, 0, 45, 0
2, 19276, Note_on_c, 0, 45, 80
2, 19276, Note_on_c, 0, 57, 0
2, 19281, Note_on_c, 0, 57, 77
2, 19322, Note_on_c, 0, 48, 0
2, 19330, Note_on_c, 0, 72, 0
2, 19332, Note_on_c, 0, 48, 77
2, 19334, Note_on_c, 0, 60, 74
2, 19335, Note_on_c, 0, 72, 74
2, 19340, Note_on_c, 0, 81, 72
2, 19393, Note_on_c, 0, 71, 0
2, 19393, Note_on_c, 0, 86, 0
2, 19394, Note_on_c, 0, 81, 0
2, 19394, Note_on_c, 0, 83, 0
2, 19394, Note_on_c, 0, 72, 0
2, 19394, Note_on_c, 0, 84, 0
2, 19394, Note_on_c, 0, 52, 0
2, 19395, Note_on_c, 0, 48, 0
2, 19395, Note_on_c, 0, 57, 0
2, 19395, Note_on_c, 0, 60, 0
2, 19397, Control_c, 0, 64, 0
2, 19407, Note_on_c, 0, 74, 0
2, 19407, Note_on_c, 0, 76, 0
2, 19415, Note_on_c, 0, 45, 0
2, 19422, Note_on_c, 0, 33, 0
2, 19439, Note_on_c, 0, 29, 98
2, 19450, Note_on_c, 0, 65, 84
2, 19453, Note_on_c, 0, 72, 80
2, 19455, Note_on_c, 0, 77, 86
2, 19462, Note_on_c, 0, 74, 82
2, 19462, Note_on_c, 0, 86, 93
2, 19484, Control_c, 0, 64, 127
2, 19597, Note_on_c, 0, 41, 80
2, 19599, Note_on_c, 0, 72, 0
2, 19604, Note_on_c, 0, 84, 89
2, 19608, Note_on_c, 0, 72, 80
2, 19722, Note_on_c, 0, 41, 0
2, 19729, Note_on_c, 0, 29, 0
2, 19733, Note_on_c, 0, 41, 92
2, 19735, Note_on_c, 0, 89, 105
2, 19735, Note_on_c, 0, 29, 92
2, 19744, Note_on_c, 0, 83, 88
2, 19776, Note_on_c, 0, 84, 0
2, 19781, Note_on_c, 0, 84, 53
2, 19842, Note_on_c, 0, 81, 82
2, 19886, Note_on_c, 0, 79, 90
2, 19894, Note_on_c, 0, 67, 74
2, 19933, Note_on_c, 0, 57, 62
2, 19968, Note_on_c, 0, 74, 0
2, 19968, Note_on_c, 0, 86, 0
2, 19969, Note_on_c, 0, 29, 0
2, 19970, Note_on_c, 0, 72, 0
2, 19971, Note_on_c, 0, 84, 0
2, 19971, Note_on_c, 0, 89, 0
2, 19971, Note_on_c, 0, 83, 0
2, 19972, Note_on_c, 0, 79, 0
2, 19972, Note_on_c, 0, 81, 0
2, 19974, Control_c, 0, 64, 0
2, 19975, Note_on_c, 0, 65, 0
2, 19983, Note_on_c, 0, 77, 0
2, 19998, Note_on_c, 0, 67, 0
2, 20006, Note_on_c, 0, 41, 0
2, 20006, Note_on_c, 0, 57, 0
2, 20017, Note_on_c, 0, 62, 93
2, 20024, Note_on_c, 0, 31, 94
2, 20024, Note_on_c, 0, 74, 88
2, 20025, Note_on_c, 0, 86, 99
2, 20025, Note_on_c, 0, 67, 89
2, 20027, Note_on_c, 0, 59, 88
2, 20060, Control_c, 0, 64, 127
2, 20157, Note_on_c, 0, 84, 93
2, 20162, Note_on_c, 0, 72, 82
2, 20167, Note_on_c, 0, 62, 0
2, 20169, Note_on_c, 0, 43, 74
2, 20171, Note_on_c, 0, 55, 45
2, 20275, Note_on_c, 0, 62, 87
2, 20290, Note_on_c, 0, 59, 0
2, 20290, Note_on_c, 0, 86, 0
2, 20294, Note_on_c, 0, 83, 92
2, 20299, Note_on_c, 0, 91, 96
2, 20300, Note_on_c, 0, 86, 83
2, 20301, Note_on_c, 0, 59, 82
2, 20305, Note_on_c, 0, 31, 0
2, 20305, Note_on_c, 0, 43, 0
2, 20311, Note_on_c, 0, 31, 91
2, 20311, Note_on_c, 0, 43, 80
2, 20352, Note_on_c, 0, 86, 0
2, 20361, Note_on_c, 0, 86, 69
2, 20421, Note_on_c, 0, 55, 0
2, 20428, Note_on_c, 0, 43, 0
2, 20428, Note_on_c, 0, 67, 0
2, 20432, Note_on_c, 0, 55, 83
2, 20432, Note_on_c, 0, 79, 92
2, 20433, Note_on_c, 0, 43, 81
2, 20435, Note_on_c, 0, 67, 80
2, 20519, Note_on_c, 0, 43, 0
2, 20520, Note_on_c, 0, 86, 0
2, 20523, Note_on_c, 0, 91, 0
2, 20544, Note_on_c, 0, 74, 0
2, 20550, Note_on_c, 0, 79, 0
2, 20551, Note_on_c, 0, 31, 0
2, 20551, Note_on_c, 0, 62, 0
2, 20555, Control_c, 0, 64, 0
2, 20559, Note_on_c, 0, 55, 0
2, 20559, Note_on_c, 0, 59, 0
2, 20559, Note_on_c, 0, 67, 0
2, 20559, Note_on_c, 0, 83, 0
2, 20559, Note_on_c, 0, 84, 0
2, 20573, Note_on_c, 0, 81, 106
2, 20574, Note_on_c, 0, 72, 0
2, 20578, Note_on_c, 0, 69, 100
2, 20578, Note_on_c, 0, 33, 100
2, 20579, Note_on_c, 0, 45, 95
2, 20579, Note_on_c, 0, 76, 88
2, 20581, Note_on_c, 0, 72, 90
2, 20628, Control_c, 0, 64, 127
2, 20712, Note_on_c, 0, 45, 0
2, 20712, Note_on_c, 0, 72, 0
2, 20712, Note_on_c, 0, 76, 0
2, 20713, Note_on_c, 0, 84, 91
2, 20716, Note_on_c, 0, 57, 77
2, 20721, Note_on_c, 0, 45, 81
2, 20721, Note_on_c, 0, 76, 73
2, 20721, Note_on_c, 0, 72, 71
2, 20851, Note_on_c, 0, 45, 0
2, 20851, Note_on_c, 0, 81, 0
2, 20852, Note_on_c, 0, 93, 102
2, 20856, Note_on_c, 0, 81, 84
2, 20856, Note_on_c, 0, 74, 92
2, 20857, Note_on_c, 0, 86, 80
2, 20858, Note_on_c, 0, 33, 0
2, 20859, Note_on_c, 0, 45, 91
2, 20859, Note_on_c, 0, 83, 84
2, 20861, Note_on_c, 0, 71, 85
2, 20862, Note_on_c, 0, 33, 90
2, 20910, Note_on_c, 0, 88, 67
2, 20989, Note_on_c, 0, 72, 0
2, 20989, Note_on_c, 0, 84, 0
2, 20997, Note_on_c, 0, 57, 0
2, 20997, Note_on_c, 0, 76, 0
2, 20999, Note_on_c, 0, 84, 95
2, 21000, Note_on_c, 0, 72, 90
2, 21002, Note_on_c, 0, 60, 71
2, 21002, Note_on_c, 0, 57, 78
2, 21006, Note_on_c, 0, 76, 80
2, 21127, Note_on_c, 0, 45, 0
2, 21127, Note_on_c, 0, 69, 0
2, 21127, Note_on_c, 0, 74, 0
2, 21127, Note_on_c, 0, 81, 0
2, 21127, Note_on_c, 0, 86, 0
2, 21132, Note_on_c, 0, 81, 98
2, 21133, Note_on_c, 0, 69, 95
2, 21135, Note_on_c, 0, 33, 0
2, 21135, Note_on_c, 0, 72, 0
2, 21135, Note_on_c, 0, 76, 0
2, 21136, Note_on_c, 0, 45, 93
2, 21137, Note_on_c, 0, 74, 95
2, 21138, Note_on_c, 0, 86, 94
2, 21139, Note_on_c, 0, 33, 94
2, 21140, Note_on_c, 0, 77, 84
2, 21140, Note_on_c, 0, 72, 86
2, 21146, Note_on_c, 0, 76, 81
2, 21150, Note_on_c, 0, 77, 0
2, 21258, Note_on_c, 0, 45, 0
2, 21264, Note_on_c, 0, 45, 90
2, 21265, Note_on_c, 0, 57, 0
2, 21271, Note_on_c, 0, 57, 79
2, 21273, Note_on_c, 0, 72, 0
2, 21273, Note_on_c, 0, 84, 0
2, 21279, Note_on_c, 0, 84, 92
2, 21279, Note_on_c, 0, 72, 86
2, 21281, Note_on_c, 0, 76, 0
2, 21286, Note_on_c, 0, 76, 75
2, 21404, Note_on_c, 0, 33, 0
2, 21404, Note_on_c, 0, 45, 0
2, 21404, Note_on_c, 0, 93, 0
2, 21408, Note_on_c, 0, 93, 100
2, 21411, Note_on_c, 0, 76, 0
2, 21411, Note_on_c, 0, 81, 0
2, 21411, Note_on_c, 0, 83, 0
2, 21411, Note_on_c, 0, 86, 0
2, 21411, Note_on_c, 0, 88, 0
2, 21413, Note_on_c, 0, 45, 100
2, 21415, Note_on_c, 0, 33, 95
2, 21417, Note_on_c, 0, 81, 87
2, 21418, Note_on_c, 0, 86, 86
2, 21419, Note_on_c, 0, 74, 0
2, 21419, Note_on_c, 0, 88, 86
2, 21422, Note_on_c, 0, 83, 86
2, 21422, Note_on_c, 0, 76, 90
2, 21423, Note_on_c, 0, 74, 91
2, 21469, Control_c, 0, 64, 0
2, 21476, Note_on_c, 0, 33, 0
2, 21476, Note_on_c, 0, 71, 0
2, 21477, Note_on_c, 0, 69, 0
2, 21477, Note_on_c, 0, 74, 0
2, 21477, Note_on_c, 0, 45, 0
2, 21477, Note_on_c, 0, 76, 0
2, 21477, Note_on_c, 0, 84, 0
2, 21477, Note_on_c, 0, 72, 0
2, 21477, Note_on_c, 0, 81, 0
2, 21477, Note_on_c, 0, 93, 0
2, 21477, Note_on_c, 0, 86, 0
2, 21477, Note_on_c, 0, 83, 0
2, 21479, Note_on_c, 0, 88, 0
2, 21480, Note_on_c, 0, 60, 0
2, 21496, Note_on_c, 0, 57, 0
2, 21553, Note_on_c, 0, 84, 84
2, 21556, Note_on_c, 0, 43, 92
2, 21559, Note_on_c, 0, 55, 86
2, 21559, Note_on_c, 0, 79, 93
2, 21559, Note_on_c, 0, 69, 77
2, 21561, Note_on_c, 0, 67, 80
2, 21562, Note_on_c, 0, 57, 74
2, 21626, Note_on_c, 0, 55, 0
2, 21629, Note_on_c, 0, 43, 0
2, 21632, Note_on_c, 0, 84, 0
2, 21633, Note_on_c, 0, 79, 0
2, 21642, Note_on_c, 0, 57, 0
2, 21642, Note_on_c, 0, 67, 0
2, 21642, Note_on_c, 0, 69, 0
2, 21701, Note_on_c, 0, 86, 103
2, 21701, Note_on_c, 0, 45, 88
2, 21701, Note_on_c, 0, 81, 90
2, 21702, Note_on_c, 0, 33, 96
2, 21705, Note_on_c, 0, 74, 95
2, 21707, Note_on_c, 0, 77, 88
2, 21713, Note_on_c, 0, 76, 85
2, 21719, Note_on_c, 0, 76, 0
2, 21719, Control_c, 0, 64, 127
2, 21776, Note_on_c, 0, 72, 75
2, 21777, Note_on_c, 0, 60, 80
2, 21840, Note_on_c, 0, 57, 81
2, 21841, Note_on_c, 0, 33, 0
2, 21841, Note_on_c, 0, 45, 0
2, 21841, Note_on_c, 0, 72, 0
2, 21845, Note_on_c, 0, 69, 76
2, 21845, Note_on_c, 0, 84, 95
2, 21847, Note_on_c, 0, 45, 78
2, 21849, Note_on_c, 0, 72, 85
2, 21851, Note_on_c, 0, 33, 77
2, 21852, Note_on_c, 0, 76, 76
2, 21968, Note_on_c, 0, 93, 103
2, 21972, Note_on_c, 0, 33, 0
2, 21972, Note_on_c, 0, 45, 0
2, 21972, Note_on_c, 0, 74, 0
2, 21972, Note_on_c, 0, 86, 0
2, 21981, Note_on_c, 0, 45, 93
2, 21983, Note_on_c, 0, 86, 82
2, 21983, Note_on_c, 0, 33, 93
2, 21983, Note_on_c, 0, 83, 87
2, 21983, Note_on_c, 0, 74, 96
2, 21988, Note_on_c, 0, 71, 85
2, 22022, Note_on_c, 0, 88, 73
2, 22110, Note_on_c, 0, 84, 0
2, 22118, Note_on_c, 0, 45, 0
2, 22118, Note_on_c, 0, 57, 0
2, 22119, Note_on_c, 0, 84, 80
2, 22125, Note_on_c, 0, 45, 84
2, 22125, Note_on_c, 0, 57, 78
2, 22128, Note_on_c, 0, 79, 87
2, 22256, Note_on_c, 0, 33, 0
2, 22256, Note_on_c, 0, 45, 0
2, 22256, Note_on_c, 0, 74, 0
2, 22256, Note_on_c, 0, 77, 0
2, 22256, Note_on_c, 0, 81, 0
2, 22256, Note_on_c, 0, 86, 0
2, 22264, Note_on_c, 0, 72, 0
2, 22264, Note_on_c, 0, 76, 0
2, 22264, Note_on_c, 0, 45, 90
2, 22264, Note_on_c, 0, 86, 94
2, 22265, Note_on_c, 0, 77, 93
2, 22266, Note_on_c, 0, 33, 95
2, 22267, Note_on_c, 0, 74, 89
2, 22267, Note_on_c, 0, 81, 88
2, 22270, Note_on_c, 0, 72, 84
2, 22274, Note_on_c, 0, 76, 82
2, 22394, Note_on_c, 0, 57, 0
2, 22394, Note_on_c, 0, 84, 0
2, 22402, Note_on_c, 0, 45, 0
2, 22402, Note_on_c, 0, 72, 0
2, 22402, Note_on_c, 0, 76, 0
2, 22405, Note_on_c, 0, 57, 85
2, 22405, Note_on_c, 0, 84, 90
2, 22406, Note_on_c, 0, 45, 86
2, 22407, Note_on_c, 0, 72, 87
2, 22412, Note_on_c, 0, 76, 81
2, 22525, Note_on_c, 0, 93, 0
2, 22534, Note_on_c, 0, 93, 103
2, 22540, Note_on_c, 0, 33, 0
2, 22540, Note_on_c, 0, 45, 0
2, 22540, Note_on_c, 0, 81, 0
2, 22540, Note_on_c, 0, 83, 0
2, 22540, Note_on_c, 0, 86, 0
2, 22540, Note_on_c, 0, 88, 0
2, 22544, Note_on_c, 0, 81, 87
2, 22545, Note_on_c, 0, 86, 87
2, 22545, Note_on_c, 0, 33, 95
2, 22545, Note_on_c, 0, 45, 101
2, 22545, Note_on_c, 0, 83, 88
2, 22545, Note_on_c, 0, 88, 86
2, 22546, Note_on_c, 0, 74, 0
2, 22555, Note_on_c, 0, 90, 76
2, 22594, Note_on_c, 0, 90, 0
2, 22599, Note_on_c, 0, 90, 61
2, 22630, Control_c, 0, 64, 0
2, 22632, Note_on_c, 0, 69, 0
2, 22635, Note_on_c, 0, 33, 0
2, 22636, Note_on_c, 0, 77, 0
2, 22636, Note_on_c, 0, 57, 0
2, 22636, Note_on_c, 0, 81, 0
2, 22637, Note_on_c, 0, 86, 0
2, 22637, Note_on_c, 0, 45, 0
2, 22637, Note_on_c, 0, 88, 0
2, 22637, Note_on_c, 0, 71, 0
2, 22637, Note_on_c, 0, 76, 0
2, 22637, Note_on_c, 0, 79, 0
2, 22638, Note_on_c, 0, 83, 0
2, 22638, Note_on_c, 0, 60, 0
2, 22639, Note_on_c, 0, 72, 0
2, 22656, Note_on_c, 0, 90, 0
2, 22656, Note_on_c, 0, 93, 0
2, 22679, Note_on_c, 0, 84, 0
2, 22683, Note_on_c, 0, 84, 69
2, 22691, Note_on_c, 0, 69, 77
2, 22693, Note_on_c, 0, 79, 90
2, 22693, Note_on_c, 0, 55, 84
2, 22695, Note_on_c, 0, 72, 71
2, 22696, Note_on_c, 0, 43, 88
2, 22702, Note_on_c, 0, 69, 0
2, 22737, Note_on_c, 0, 55, 0
2, 22742, Note_on_c, 0, 79, 0
2, 22771, Note_on_c, 0, 43, 0
2, 22771, Note_on_c, 0, 72, 0
2, 22771, Note_on_c, 0, 84, 0
2, 22817, Control_c, 0, 64, 127
2, 22833, Note_on_c, 0, 93, 98
2, 22834, Note_on_c, 0, 81, 104
2, 22834, Note_on_c, 0, 76, 93
2, 22836, Note_on_c, 0, 33, 98
2, 22837, Note_on_c, 0, 72, 91
2, 22840, Note_on_c, 0, 93, 0
2, 22970, Note_on_c, 0, 76, 0
2, 22973, Note_on_c, 0, 84, 91
2, 22974, Note_on_c, 0, 57, 81
2, 22976, Note_on_c, 0, 45, 82
2, 22980, Note_on_c, 0, 76, 71
2, 23098, Note_on_c, 0, 93, 104
2, 23109, Note_on_c, 0, 33, 0
2, 23113, Note_on_c, 0, 33, 95
2, 23120, Note_on_c, 0, 64, 84
2, 23123, Note_on_c, 0, 88, 76
2, 23211, Note_on_c, 0, 60, 46
2, 23216, Note_on_c, 0, 60, 0
2, 23239, Note_on_c, 0, 84, 0
2, 23245, Note_on_c, 0, 84, 98
2, 23247, Note_on_c, 0, 57, 0
2, 23247, Note_on_c, 0, 72, 0
2, 23255, Note_on_c, 0, 76, 0
2, 23256, Note_on_c, 0, 57, 77
2, 23257, Note_on_c, 0, 72, 89
2, 23259, Note_on_c, 0, 76, 81
2, 23377, Note_on_c, 0, 81, 0
2, 23383, Note_on_c, 0, 81, 87
2, 23385, Note_on_c, 0, 33, 0
2, 23385, Note_on_c, 0, 45, 0
2, 23394, Note_on_c, 0, 33, 89
2, 23395, Note_on_c, 0, 45, 81
2, 23395, Note_on_c, 0, 86, 103
2, 23398, Note_on_c, 0, 77, 84
2, 23403, Note_on_c, 0, 74, 95
2, 23477, Note_on_c, 0, 45, 0
2, 23485, Note_on_c, 0, 57, 0
2, 23486, Note_on_c, 0, 45, 82
2, 23495, Note_on_c, 0, 57, 74
2, 23539, Note_on_c, 0, 45, 0
2, 23539, Note_on_c, 0, 57, 0
2, 23539, Note_on_c, 0, 72, 0
2, 23539, Note_on_c, 0, 76, 0
2, 23539, Note_on_c, 0, 84, 0
2, 23543, Note_on_c, 0, 84, 88
2, 23543, Note_on_c, 0, 57, 85
2, 23543, Note_on_c, 0, 76, 87
2, 23544, Note_on_c, 0, 72, 88
2, 23548, Note_on_c, 0, 45, 84
2, 23646, Note_on_c, 0, 93, 0
2, 23652, Note_on_c, 0, 93, 102
2, 23654, Note_on_c, 0, 33, 0
2, 23659, Note_on_c, 0, 33, 96
2, 23662, Note_on_c, 0, 64, 0
2, 23662, Note_on_c, 0, 74, 0
2, 23662, Note_on_c, 0, 86, 0
2, 23669, Note_on_c, 0, 74, 91
2, 23669, Note_on_c, 0, 76, 0
2, 23672, Note_on_c, 0, 64, 89
2, 23673, Note_on_c, 0, 86, 81
2, 23676, Note_on_c, 0, 76, 78
2, 23677, Note_on_c, 0, 88, 0
2, 23681, Note_on_c, 0, 88, 82
2, 23723, Note_on_c, 0, 72, 0
2, 23728, Note_on_c, 0, 72, 58
2, 23738, Note_on_c, 0, 84, 0
2, 23743, Note_on_c, 0, 84, 86
2, 23800, Note_on_c, 0, 45, 0
2, 23800, Note_on_c, 0, 57, 0
2, 23804, Note_on_c, 0, 57, 89
2, 23805, Note_on_c, 0, 45, 88
2, 23805, Note_on_c, 0, 79, 96
2, 23807, Note_on_c, 0, 67, 80
2, 23812, Note_on_c, 0, 71, 77
2, 23880, Note_on_c, 0, 84, 0
2, 23880, Note_on_c, 0, 86, 0
2, 23880, Note_on_c, 0, 71, 0
2, 23881, Note_on_c, 0, 88, 0
2, 23881, Note_on_c, 0, 72, 0
2, 23881, Note_on_c, 0, 33, 0
2, 23881, Note_on_c, 0, 79, 0
2, 23881, Note_on_c, 0, 93, 0
2, 23881, Note_on_c, 0, 81, 0
2, 23881, Note_on_c, 0, 77, 0
2, 23881, Note_on_c, 0, 76, 0
2, 23881, Note_on_c, 0, 45, 0
2, 23881, Note_on_c, 0, 57, 0
2, 23884, Control_c, 0, 64, 0
2, 23892, Note_on_c, 0, 67, 0
2, 23900, Note_on_c, 0, 64, 0
2, 23900, Note_on_c, 0, 74, 0
2, 23935, Note_on_c, 0, 70, 106
2, 23942, Note_on_c, 0, 82, 95
2, 23942, Note_on_c, 0, 34, 95
2, 23943, Note_on_c, 0, 86, 99
2, 23947, Note_on_c, 0, 74, 95
2, 23976, Control_c, 0, 64, 127
2, 24077, Note_on_c, 0, 58, 79
2, 24091, Note_on_c, 0, 84, 91
2, 24093, Note_on_c, 0, 72, 86
2, 24122, Note_on_c, 0, 74, 0
2, 24129, Note_on_c, 0, 74, 76
2, 24134, Note_on_c, 0, 62, 86
2, 24205, Note_on_c, 0, 94, 98
2, 24207, Note_on_c, 0, 34, 0
2, 24214, Note_on_c, 0, 34, 100
2, 24262, Note_on_c, 0, 89, 86
2, 24307, Note_on_c, 0, 86, 0
2, 24318, Note_on_c, 0, 86, 87
2, 24330, Note_on_c, 0, 82, 0
2, 24337, Note_on_c, 0, 58, 0
2, 24340, Note_on_c, 0, 82, 81
2, 24346, Note_on_c, 0, 58, 69
2, 24360, Note_on_c, 0, 62, 0
2, 24372, Note_on_c, 0, 91, 92
2, 24372, Note_on_c, 0, 62, 74
2, 24372, Note_on_c, 0, 79, 97
2, 24379, Note_on_c, 0, 67, 77
2, 24458, Note_on_c, 0, 72, 0
2, 24459, Note_on_c, 0, 34, 0
2, 24459, Note_on_c, 0, 84, 0
2, 24462, Note_on_c, 0, 79, 0
2, 24463, Note_on_c, 0, 82, 0
2, 24463, Note_on_c, 0, 70, 0
2, 24463, Note_on_c, 0, 89, 0
2, 24463, Note_on_c, 0, 62, 0
2, 24463, Note_on_c, 0, 94, 0
2, 24464, Note_on_c, 0, 91, 0
2, 24476, Note_on_c, 0, 67, 0
2, 24476, Note_on_c, 0, 74, 0
2, 24481, Control_c, 0, 64, 0
2, 24483, Note_on_c, 0, 58, 0
2, 24499, Note_on_c, 0, 86, 0
2, 24502, Note_on_c, 0, 40, 92
2, 24502, Note_on_c, 0, 28, 102
2, 24507, Note_on_c, 0, 76, 92
2, 24508, Note_on_c, 0, 86, 106
2, 24509, Note_on_c, 0, 74, 102
2, 24509, Note_on_c, 0, 80, 88
2, 24552, Control_c, 0, 64, 127
2, 24644, Note_on_c, 0, 56, 77
2, 24649, Note_on_c, 0, 84, 97
2, 24650, Note_on_c, 0, 72, 91
2, 24744, Note_on_c, 0, 76, 0
2, 24753, Note_on_c, 0, 76, 95
2, 24760, Note_on_c, 0, 28, 0
2, 24760, Note_on_c, 0, 40, 0
2, 24760, Note_on_c, 0, 74, 0
2, 24763, Note_on_c, 0, 32, 90
2, 24764, Note_on_c, 0, 92, 106
2, 24764, Note_on_c, 0, 40, 88
2, 24765, Note_on_c, 0, 28, 96
2, 24766, Note_on_c, 0, 74, 91
2, 24776, Note_on_c, 0, 83, 95
2, 24785, Note_on_c, 0, 71, 80
2, 24913, Note_on_c, 0, 80, 0
2, 24917, Note_on_c, 0, 68, 86
2, 24917, Note_on_c, 0, 80, 94
2, 25009, Note_on_c, 0, 86, 0
2, 25010, Note_on_c, 0, 28, 0
2, 25010, Note_on_c, 0, 84, 0
2, 25011, Note_on_c, 0, 68, 0
2, 25012, Control_c, 0, 64, 0
2, 25012, Note_on_c, 0, 71, 0
2, 25013, Note_on_c, 0, 80, 0
2, 25013, Note_on_c, 0, 83, 0
2, 25013, Note_on_c, 0, 32, 0
2, 25014, Note_on_c, 0, 76, 0
2, 25021, Note_on_c, 0, 56, 0
2, 25021, Note_on_c, 0, 74, 0
2, 25021, Note_on_c, 0, 92, 0
2, 25029, Note_on_c, 0, 72, 0
2, 25034, Note_on_c, 0, 69, 104
2, 25036, Note_on_c, 0, 72, 102
2, 25036, Note_on_c, 0, 40, 0
2, 25038, Note_on_c, 0, 81, 105
2, 25049, Note_on_c, 0, 33, 95
2, 25050, Note_on_c, 0, 45, 99
2, 25098, Control_c, 0, 64, 127
2, 25140, Note_on_c, 0, 76, 97
2, 25202, Note_on_c, 0, 84, 93
2, 25267, Note_on_c, 0, 76, 0
2, 25274, Note_on_c, 0, 76, 86
2, 25313, Note_on_c, 0, 45, 0
2, 25323, Note_on_c, 0, 45, 74
2, 25325, Note_on_c, 0, 83, 100
2, 25374, Note_on_c, 0, 45, 0
2, 25383, Note_on_c, 0, 45, 71
2, 25397, Note_on_c, 0, 76, 0
2, 25408, Note_on_c, 0, 76, 83
2, 25451, Note_on_c, 0, 84, 0
2, 25461, Note_on_c, 0, 84, 98
2, 25528, Note_on_c, 0, 76, 0
2, 25539, Note_on_c, 0, 76, 84
2, 25551, Note_on_c, 0, 45, 0
2, 25562, Note_on_c, 0, 45, 51
2, 25590, Note_on_c, 0, 33, 0
2, 25592, Note_on_c, 0, 69, 0
2, 25592, Note_on_c, 0, 76, 0
2, 25593, Note_on_c, 0, 84, 0
2, 25593, Note_on_c, 0, 45, 0
2, 25593, Control_c, 0, 64, 0
2, 25593, Note_on_c, 0, 83, 0
2, 25593, Note_on_c, 0, 86, 106
2, 25597, Note_on_c, 0, 72, 0
2, 25597, Note_on_c, 0, 81, 0
2, 25671, Note_on_c, 0, 76, 91
2, 25676, Note_on_c, 0, 45, 53
2, 25681, Note_on_c, 0, 45, 0
2, 25737, Note_on_c, 0, 84, 98
2, 25743, Control_c, 0, 64, 127
2, 25797, Note_on_c, 0, 76, 0
2, 25806, Note_on_c, 0, 76, 92
2, 25863, Note_on_c, 0, 83, 97
2, 25927, Note_on_c, 0, 76, 0
2, 25938, Note_on_c, 0, 76, 83
2, 25998, Note_on_c, 0, 79, 88
2, 26064, Note_on_c, 0, 84, 0
2, 26065, Note_on_c, 0, 76, 0
2, 26067, Note_on_c, 0, 79, 0
2, 26067, Note_on_c, 0, 86, 0
2, 26067, Note_on_c, 0, 83, 0
2, 26073, Control_c, 0, 64, 0
2, 26073, Note_on_c, 0, 76, 87
2, 26108, Note_on_c, 0, 30, 99
2, 26157, Note_on_c, 0, 78, 99
2, 26159, Note_on_c, 0, 42, 60
2, 26280, Control_c, 0, 64, 127
2, 26288, Note_on_c, 0, 42, 0
2, 26298, Note_on_c, 0, 49, 52
2, 26299, Note_on_c, 0, 42, 64
2, 26304, Note_on_c, 0, 49, 0
2, 26307, Note_on_c, 0, 45, 69
2, 26411, Note_on_c, 0, 30, 0
2, 26415, Note_on_c, 0, 30, 90
2, 26453, Note_on_c, 0, 45, 0
2, 26456, Control_c, 0, 64, 0
2, 26456, Note_on_c, 0, 30, 0
2, 26465, Note_on_c, 0, 76, 0
2, 26472, Note_on_c, 0, 42, 0
2, 26555, Note_on_c, 0, 42, 67
2, 26593, Note_on_c, 0, 45, 61
2, 26600, Note_on_c, 0, 57, 56
2, 26644, Note_on_c, 0, 49, 55
2, 26644, Note_on_c, 0, 54, 43
2, 26649, Note_on_c, 0, 42, 0
2, 26680, Note_on_c, 0, 45, 0
2, 26695, Note_on_c, 0, 30, 98
2, 26711, Note_on_c, 0, 57, 0
2, 26751, Note_on_c, 0, 30, 0
2, 26757, Note_on_c, 0, 49, 0
2, 26757, Note_on_c, 0, 54, 0
2, 26757, Note_on_c, 0, 78, 0
2, 26847, Note_on_c, 0, 42, 64
2, 26865, Note_on_c, 0, 37, 63
2, 26875, Note_on_c, 0, 45, 62
2, 26896, Note_on_c, 0, 42, 0
2, 26902, Note_on_c, 0, 37, 0
2, 26906, Note_on_c, 0, 45, 0
2, 26981, Note_on_c, 0, 30, 93
2, 27036, Note_on_c, 0, 30, 0
2, 27119, Note_on_c, 0, 42, 82
2, 27131, Note_on_c, 0, 37, 60
2, 27144, Note_on_c, 0, 45, 61
2, 27253, Note_on_c, 0, 30, 97
2, 27272, Note_on_c, 0, 73, 91
2, 27274, Note_on_c, 0, 66, 78
2, 27302, Note_on_c, 0, 45, 0
2, 27310, Note_on_c, 0, 37, 0
2, 27471, Control_c, 0, 64, 127
2, 27548, Note_on_c, 0, 30, 0
2, 27553, Note_on_c, 0, 30, 73
2, 27686, Note_on_c, 0, 42, 0
2, 27689, Note_on_c, 0, 54, 85
2, 27694, Note_on_c, 0, 42, 72
2, 27713, Note_on_c, 0, 78, 96
2, 27727, Note_on_c, 0, 69, 77
2, 27832, Note_on_c, 0, 30, 0
2, 27839, Note_on_c, 0, 30, 91
2, 28018, Note_on_c, 0, 45, 59
2, 28116, Note_on_c, 0, 30, 0
2, 28116, Note_on_c, 0, 42, 0
2, 28116, Note_on_c, 0, 73, 0
2, 28121, Note_on_c, 0, 30, 99
2, 28124, Note_on_c, 0, 73, 93
2, 28126, Note_on_c, 0, 42, 92
2, 28247, Note_on_c, 0, 30, 0
2, 28247, Note_on_c, 0, 42, 0
2, 28253, Note_on_c, 0, 42, 78
2, 28258, Note_on_c, 0, 30, 81
2, 28339, Note_on_c, 0, 42, 0
2, 28343, Note_on_c, 0, 42, 76
2, 28396, Note_on_c, 0, 31, 89
2, 28405, Note_on_c, 0, 45, 0
2, 28406, Note_on_c, 0, 78, 0
2, 28406, Note_on_c, 0, 54, 0
2, 28407, Note_on_c, 0, 69, 0
2, 28409, Note_on_c, 0, 42, 0
2, 28409, Note_on_c, 0, 73, 0
2, 28409, Note_on_c, 0, 30, 0
2, 28410, Control_c, 0, 64, 0
2, 28411, Note_on_c, 0, 76, 96
2, 28413, Note_on_c, 0, 64, 82
2, 28416, Note_on_c, 0, 66, 0
2, 28418, Note_on_c, 0, 67, 76
2, 28419, Note_on_c, 0, 71, 79
2, 28581, Note_on_c, 0, 43, 61
2, 28677, Note_on_c, 0, 31, 0
2, 28684, Control_c, 0, 64, 127
2, 28686, Note_on_c, 0, 31, 75
2, 28800, Control_c, 0, 64, 0
2, 28815, Note_on_c, 0, 43, 0
2, 28819, Note_on_c, 0, 43, 68
2, 28824, Note_on_c, 0, 74, 91
2, 28834, Note_on_c, 0, 55, 64
2, 28847, Note_on_c, 0, 50, 63
2, 28864, Note_on_c, 0, 47, 59
2, 28884, Control_c, 0, 64, 127
2, 28889, Note_on_c, 0, 73, 86
2, 28895, Note_on_c, 0, 59, 55
2, 28899, Note_on_c, 0, 59, 0
2, 28927, Note_on_c, 0, 62, 81
2, 28945, Note_on_c, 0, 31, 0
2, 28949, Note_on_c, 0, 71, 0
2, 28954, Note_on_c, 0, 31, 102
2, 28961, Note_on_c, 0, 67, 0
2, 28968, Note_on_c, 0, 55, 0
2, 28972, Note_on_c, 0, 67, 83
2, 29114, Note_on_c, 0, 43, 0
2, 29125, Note_on_c, 0, 43, 64
2, 29230, Note_on_c, 0, 31, 0
2, 29238, Note_on_c, 0, 31, 84
2, 29331, Control_c, 0, 64, 0
2, 29333, Note_on_c, 0, 31, 0
2, 29335, Note_on_c, 0, 74, 0
2, 29335, Note_on_c, 0, 43, 0
2, 29336, Note_on_c, 0, 67, 0
2, 29336, Note_on_c, 0, 73, 0
2, 29337, Note_on_c, 0, 76, 0
2, 29338, Note_on_c, 0, 64, 0
2, 29345, Note_on_c, 0, 50, 0
2, 29360, Note_on_c, 0, 47, 0
2, 29376, Note_on_c, 0, 62, 0
2, 29381, Note_on_c, 0, 38, 65
2, 29386, Note_on_c, 0, 43, 70
2, 29397, Note_on_c, 0, 69, 78
2, 29401, Note_on_c, 0, 57, 76
2, 29452, Note_on_c, 0, 43, 0
2, 29503, Note_on_c, 0, 31, 102
2, 29509, Note_on_c, 0, 57, 0
2, 29527, Note_on_c, 0, 69, 0
2, 29544, Note_on_c, 0, 38, 0
2, 29550, Note_on_c, 0, 71, 83
2, 29553, Note_on_c, 0, 67, 54
2, 29555, Note_on_c, 0, 62, 75
2, 29556, Note_on_c, 0, 59, 81
2, 29598, Control_c, 0, 64, 127
2, 29693, Note_on_c, 0, 38, 47
2, 29713, Note_on_c, 0, 43, 61
2, 29798, Note_on_c, 0, 31, 0
2, 29805, Note_on_c, 0, 31, 78
2, 29952, Note_on_c, 0, 43, 0
2, 29960, Note_on_c, 0, 55, 75
2, 29963, Note_on_c, 0, 43, 70
2, 30028, Note_on_c, 0, 59, 0
2, 30034, Note_on_c, 0, 59, 73
2, 30051, Note_on_c, 0, 62, 0
2, 30060, Note_on_c, 0, 62, 82
2, 30090, Note_on_c, 0, 31, 0
2, 30095, Note_on_c, 0, 31, 93
2, 30261, Note_on_c, 0, 73, 94
2, 30262, Note_on_c, 0, 61, 86
2, 30366, Note_on_c, 0, 31, 0
2, 30377, Note_on_c, 0, 31, 88
2, 30497, Note_on_c, 0, 62, 0
2, 30498, Note_on_c, 0, 74, 93
2, 30504, Note_on_c, 0, 62, 80
2, 30504, Note_on_c, 0, 31, 0
2, 30510, Note_on_c, 0, 31, 73
2, 30593, Control_c, 0, 64, 0
2, 30593, Note_on_c, 0, 55, 0
2, 30593, Note_on_c, 0, 73, 0
2, 30593, Note_on_c, 0, 74, 0
2, 30593, Note_on_c, 0, 71, 0
2, 30594, Note_on_c, 0, 61, 0
2, 30594, Note_on_c, 0, 67, 0
2, 30595, Note_on_c, 0, 31, 0
2, 30604, Note_on_c, 0, 38, 0
2, 30612, Note_on_c, 0, 43, 0
2, 30620, Note_on_c, 0, 59, 0
2, 30620, Note_on_c, 0, 62, 0
2, 30654, Note_on_c, 0, 30, 103
2, 30655, Note_on_c, 0, 73, 97
2, 30655, Note_on_c, 0, 61, 91
2, 30656, Note_on_c, 0, 66, 90
2, 30759, Note_on_c, 0, 30, 0
2, 30834, Note_on_c, 0, 57, 55
2, 30855, Note_on_c, 0, 54, 70
2, 30942, Note_on_c, 0, 54, 0
2, 30942, Note_on_c, 0, 57, 0
2, 30946, Note_on_c, 0, 30, 88
2, 30947, Note_on_c, 0, 54, 69
2, 30948, Note_on_c, 0, 42, 78
2, 30985, Note_on_c, 0, 42, 0
2, 31004, Note_on_c, 0, 54, 0
2, 31065, Note_on_c, 0, 30, 0
2, 31071, Note_on_c, 0, 42, 65
2, 31075, Note_on_c, 0, 30, 61
2, 31081, Note_on_c, 0, 57, 54
2, 31119, Control_c, 0, 64, 127
2, 31173, Note_on_c, 0, 61, 0
2, 31177, Note_on_c, 0, 61, 79
2, 31211, Note_on_c, 0, 30, 0
2, 31217, Note_on_c, 0, 30, 90
2, 31225, Note_on_c, 0, 54, 73
2, 31326, Note_on_c, 0, 42, 0
2, 31335, Note_on_c, 0, 42, 69
2, 31380, Note_on_c, 0, 73, 0
2, 31388, Note_on_c, 0, 61, 0
2, 31391, Note_on_c, 0, 73, 99
2, 31395, Note_on_c, 0, 66, 0
2, 31397, Note_on_c, 0, 61, 76
2, 31400, Note_on_c, 0, 66, 68
2, 31488, Note_on_c, 0, 30, 0
2, 31492, Note_on_c, 0, 30, 74
2, 31610, Note_on_c, 0, 42, 0
2, 31617, Note_on_c, 0, 42, 57
2, 31641, Note_on_c, 0, 30, 0
2, 31641, Note_on_c, 0, 42, 0
2, 31645, Note_on_c, 0, 42, 74
2, 31651, Note_on_c, 0, 30, 75
2, 31652, Note_on_c, 0, 74, 89
2, 31668, Note_on_c, 0, 62, 77
2, 31736, Note_on_c, 0, 73, 0
2, 31736, Note_on_c, 0, 62, 0
2, 31737, Note_on_c, 0, 66, 0
2, 31737, Note_on_c, 0, 74, 0
2, 31740, Control_c, 0, 64, 0
2, 31749, Note_on_c, 0, 57, 0
2, 31756, Note_on_c, 0, 30, 0
2, 31756, Note_on_c, 0, 54, 0
2, 31756, Note_on_c, 0, 61, 0
2, 31767, Note_on_c, 0, 30, 95
2, 31779, Note_on_c, 0, 42, 0
2, 31788, Note_on_c, 0, 42, 79
2, 31791, Note_on_c, 0, 73, 95
2, 31808, Note_on_c, 0, 66, 61
2, 31848, Note_on_c, 0, 42, 0
2, 32056, Control_c, 0, 64, 127
2, 32060, Note_on_c, 0, 71, 87
2, 32065, Note_on_c, 0, 59, 77
2, 32066, Note_on_c, 0, 69, 57
2, 32071, Note_on_c, 0, 69, 0
2, 32202, Note_on_c, 0, 42, 75
2, 32207, Note_on_c, 0, 54, 78
2, 32209, Note_on_c, 0, 73, 0
2, 32213, Note_on_c, 0, 76, 93
2, 32215, Note_on_c, 0, 66, 0
2, 32219, Note_on_c, 0, 64, 75
2, 32220, Note_on_c, 0, 73, 81
2, 32221, Note_on_c, 0, 69, 81
2, 32222, Note_on_c, 0, 71, 0
2, 32317, Note_on_c, 0, 30, 0
2, 32328, Note_on_c, 0, 30, 93
2, 32601, Note_on_c, 0, 30, 0
2, 32609, Note_on_c, 0, 30, 82
2, 32622, Note_on_c, 0, 74, 97
2, 32628, Note_on_c, 0, 62, 78
2, 32632, Note_on_c, 0, 42, 0
2, 32725, Note_on_c, 0, 42, 78
2, 32747, Note_on_c, 0, 30, 0
2, 32752, Note_on_c, 0, 30, 72
2, 32765, Note_on_c, 0, 29, 74
2, 32770, Note_on_c, 0, 28, 74
2, 32870, Note_on_c, 0, 28, 0
2, 32876, Note_on_c, 0, 28, 96
2, 32898, Note_on_c, 0, 62, 0
2, 32898, Note_on_c, 0, 42, 0
2, 32898, Control_c, 0, 64, 0
2, 32898, Note_on_c, 0, 30, 0
2, 32899, Note_on_c, 0, 74, 0
2, 32908, Note_on_c, 0, 54, 0
2, 32908, Note_on_c, 0, 59, 0
2, 32916, Note_on_c, 0, 69, 0
2, 32916, Note_on_c, 0, 73, 0
2, 32916, Note_on_c, 0, 76, 0
2, 32924, Note_on_c, 0, 64, 0
2, 32927, Note_on_c, 0, 76, 104
2, 32929, Note_on_c, 0, 64, 87
2, 32930, Note_on_c, 0, 71, 69
2, 32935, Note_on_c, 0, 68, 82
2, 33016, Note_on_c, 0, 29, 0
2, 33031, Control_c, 0, 64, 127
2, 33162, Note_on_c, 0, 28, 0
2, 33166, Note_on_c, 0, 28, 73
2, 33166, Note_on_c, 0, 40, 67
2, 33324, Note_on_c, 0, 52, 77
2, 33410, Note_on_c, 0, 56, 73
2, 33412, Note_on_c, 0, 59, 75
2, 33438, Note_on_c, 0, 28, 0
2, 33438, Note_on_c, 0, 40, 0
2, 33448, Note_on_c, 0, 40, 82
2, 33449, Note_on_c, 0, 28, 88
2, 33592, Note_on_c, 0, 28, 0
2, 33592, Note_on_c, 0, 40, 0
2, 33596, Note_on_c, 0, 40, 59
2, 33599, Note_on_c, 0, 28, 67
2, 33715, Note_on_c, 0, 28, 0
2, 33719, Note_on_c, 0, 28, 91
2, 33722, Note_on_c, 0, 40, 0
2, 33727, Note_on_c, 0, 40, 84
2, 33730, Note_on_c, 0, 68, 0
2, 33730, Note_on_c, 0, 71, 0
2, 33736, Note_on_c, 0, 68, 76
2, 33738, Note_on_c, 0, 71, 94
2, 33738, Note_on_c, 0, 59, 0
2, 33742, Note_on_c, 0, 59, 85
2, 33876, Note_on_c, 0, 28, 0
2, 33884, Note_on_c, 0, 40, 0
2, 33887, Note_on_c, 0, 28, 83
2, 33893, Note_on_c, 0, 40, 66
2, 33981, Control_c, 0, 64, 0
2, 33984, Note_on_c, 0, 28, 0
2, 33990, Note_on_c, 0, 28, 100
2, 33991, Note_on_c, 0, 40, 0
2, 33997, Note_on_c, 0, 40, 87
2, 34030, Note_on_c, 0, 64, 0
2, 34034, Note_on_c, 0, 64, 85
2, 34037, Note_on_c, 0, 68, 0
2, 34037, Note_on_c, 0, 71, 0
2, 34037, Note_on_c, 0, 76, 0
2, 34041, Note_on_c, 0, 76, 93
2, 34044, Note_on_c, 0, 71, 75
2, 34047, Note_on_c, 0, 68, 87
2, 34091, Control_c, 0, 64, 127
2, 34152, Note_on_c, 0, 28, 0
2, 34160, Note_on_c, 0, 28, 71
2, 34275, Note_on_c, 0, 28, 0
2, 34286, Note_on_c, 0, 28, 90
2, 34414, Note_on_c, 0, 52, 0
2, 34423, Note_on_c, 0, 52, 70
2, 34529, Note_on_c, 0, 59, 0
2, 34534, Note_on_c, 0, 59, 74
2, 34590, Note_on_c, 0, 68, 0
2, 34590, Note_on_c, 0, 71, 0
2, 34590, Note_on_c, 0, 76, 0
2, 34591, Note_on_c, 0, 80, 100
2, 34598, Note_on_c, 0, 68, 87
2, 34601, Note_on_c, 0, 76, 87
2, 34602, Note_on_c, 0, 71, 84
2, 34705, Note_on_c, 0, 28, 0
2, 34705, Note_on_c, 0, 40, 0
2, 34710, Note_on_c, 0, 28, 79
2, 34710, Note_on_c, 0, 40, 75
2, 34851, Note_on_c, 0, 28, 0
2, 34851, Note_on_c, 0, 40, 0
2, 34857, Note_on_c, 0, 40, 76
2, 34858, Note_on_c, 0, 28, 87
2, 35130, Control_c, 0, 64, 0
2, 35153, Note_on_c, 0, 28, 0
2, 35158, Note_on_c, 0, 71, 0
2, 35159, Note_on_c, 0, 68, 0
2, 35159, Note_on_c, 0, 52, 0
2, 35160, Note_on_c, 0, 49, 105
2, 35160, Note_on_c, 0, 76, 0
2, 35160, Note_on_c, 0, 64, 0
2, 35160, Note_on_c, 0, 40, 0
2, 35161, Note_on_c, 0, 80, 0
2, 35162, Note_on_c, 0, 56, 0
2, 35162, Note_on_c, 0, 37, 93
2, 35163, Note_on_c, 0, 68, 100
2, 35165, Note_on_c, 0, 44, 71
2, 35166, Note_on_c, 0, 61, 98
2, 35169, Note_on_c, 0, 73, 98
2, 35174, Note_on_c, 0, 59, 0
2, 35220, Control_c, 0, 64, 127
2, 35297, Note_on_c, 0, 49, 0
2, 35297, Note_on_c, 0, 68, 0
2, 35304, Note_on_c, 0, 37, 0
2, 35306, Note_on_c, 0, 49, 87
2, 35306, Note_on_c, 0, 68, 85
2, 35309, Note_on_c, 0, 37, 80
2, 35427, Note_on_c, 0, 49, 0
2, 35435, Note_on_c, 0, 37, 0
2, 35435, Note_on_c, 0, 61, 0
2, 35435, Note_on_c, 0, 73, 0
2, 35439, Note_on_c, 0, 49, 77
2, 35439, Note_on_c, 0, 73, 74
2, 35440, Note_on_c, 0, 61, 76
2, 35441, Note_on_c, 0, 37, 76
2, 35504, Note_on_c, 0, 44, 0
2, 35507, Control_c, 0, 64, 0
2, 35509, Note_on_c, 0, 37, 0
2, 35510, Note_on_c, 0, 68, 0
2, 35514, Note_on_c, 0, 73, 0
2, 35535, Note_on_c, 0, 49, 0
2, 35535, Note_on_c, 0, 61, 0
2, 35590, Note_on_c, 0, 74, 102
2, 35593, Note_on_c, 0, 62, 92
2, 35593, Note_on_c, 0, 69, 86
2, 35595, Note_on_c, 0, 50, 95
2, 35599, Note_on_c, 0, 66, 76
2, 35599, Note_on_c, 0, 38, 92
2, 35604, Note_on_c, 0, 45, 71
2, 35619, Control_c, 0, 64, 127
2, 35775, Control_c, 0, 64, 0
2, 35775, Note_on_c, 0, 62, 0
2, 35775, Note_on_c, 0, 74, 0
2, 35776, Note_on_c, 0, 50, 0
2, 35776, Note_on_c, 0, 69, 0
2, 35777, Note_on_c, 0, 38, 0
2, 35781, Note_on_c, 0, 45, 0
2, 35788, Note_on_c, 0, 66, 0
2, 35878, Note_on_c, 0, 71, 98
2, 35879, Note_on_c, 0, 66, 87
2, 35884, Note_on_c, 0, 59, 84
2, 35886, Note_on_c, 0, 47, 85
2, 35893, Note_on_c, 0, 42, 74
2, 35899, Note_on_c, 0, 35, 77
2, 35911, Control_c, 0, 64, 127
2, 36086, Control_c, 0, 64, 0
2, 36088, Note_on_c, 0, 59, 0
2, 36091, Note_on_c, 0, 66, 0
2, 36096, Note_on_c, 0, 71, 0
2, 36103, Note_on_c, 0, 35, 0
2, 36103, Note_on_c, 0, 42, 0
2, 36103, Note_on_c, 0, 47, 0
2, 36178, Note_on_c, 0, 73, 101
2, 36181, Note_on_c, 0, 68, 96
2, 36183, Note_on_c, 0, 61, 93
2, 36184, Note_on_c, 0, 49, 92
2, 36185, Note_on_c, 0, 37, 83
2, 36186, Note_on_c, 0, 59, 82
2, 36188, Note_on_c, 0, 44, 74
2, 36195, Note_on_c, 0, 59, 0
2, 36211, Control_c, 0, 64, 127
2, 36377, Control_c, 0, 64, 0
2, 36382, Note_on_c, 0, 73, 0
2, 36383, Note_on_c, 0, 44, 0
2, 36383, Note_on_c, 0, 49, 0
2, 36383, Note_on_c, 0, 61, 0
2, 36383, Note_on_c, 0, 68, 0
2, 36395, Note_on_c, 0, 37, 0
2, 36464, Note_on_c, 0, 63, 93
2, 36465, Note_on_c, 0, 68, 99
2, 36465, Note_on_c, 0, 56, 90
2, 36469, Note_on_c, 0, 44, 80
2, 36473, Note_on_c, 0, 32, 75
2, 36475, Note_on_c, 0, 39, 73
2, 36495, Control_c, 0, 64, 127
2, 36725, Note_on_c, 0, 32, 0
2, 36725, Note_on_c, 0, 39, 0
2, 36725, Note_on_c, 0, 44, 0
2, 36725, Note_on_c, 0, 56, 0
2, 36725, Note_on_c, 0, 63, 0
2, 36725, Note_on_c, 0, 68, 0
2, 36729, Note_on_c, 0, 63, 74
2, 36731, Note_on_c, 0, 68, 84
2, 36731, Note_on_c, 0, 56, 81
2, 36733, Note_on_c, 0, 44, 78
2, 36735, Note_on_c, 0, 39, 66
2, 36737, Note_on_c, 0, 32, 72
2, 36822, Control_c, 0, 64, 0
2, 36822, Note_on_c, 0, 68, 0
2, 36823, Note_on_c, 0, 44, 0
2, 36823, Note_on_c, 0, 56, 0
2, 36823, Note_on_c, 0, 63, 0
2, 36823, Note_on_c, 0, 39, 0
2, 36824, Note_on_c, 0, 32, 0
2, 36879, Note_on_c, 0, 69, 92
2, 36880, Note_on_c, 0, 64, 89
2, 36882, Note_on_c, 0, 45, 88
2, 36883, Note_on_c, 0, 40, 89
2, 36883, Note_on_c, 0, 33, 87
2, 36910, Control_c, 0, 64, 127
2, 37113, Control_c, 0, 64, 0
2, 37117, Note_on_c, 0, 33, 0
2, 37118, Note_on_c, 0, 45, 0
2, 37119, Note_on_c, 0, 69, 0
2, 37119, Note_on_c, 0, 40, 0
2, 37119, Note_on_c, 0, 64, 0
2, 37159, Note_on_c, 0, 71, 97
2, 37160, Note_on_c, 0, 66, 88
2, 37161, Note_on_c, 0, 59, 87
2, 37162, Note_on_c, 0, 47, 91
2, 37167, Note_on_c, 0, 42, 81
2, 37167, Note_on_c, 0, 35, 85
2, 37194, Control_c, 0, 64, 127
2, 37428, Control_c, 0, 64, 0
2, 37430, Note_on_c, 0, 71, 0
2, 37431, Note_on_c, 0, 66, 0
2, 37432, Note_on_c, 0, 35, 0
2, 37435, Note_on_c, 0, 61, 103
2, 37437, Note_on_c, 0, 37, 94
2, 37440, Note_on_c, 0, 42, 0
2, 37440, Note_on_c, 0, 61, 0
2, 37440, Note_on_c, 0, 49, 100
2, 37441, Note_on_c, 0, 25, 93
2, 37443, Note_on_c, 0, 85, 101
2, 37443, Note_on_c, 0, 80, 101
2, 37444, Note_on_c, 0, 73, 96
2, 37447, Note_on_c, 0, 77, 87
2, 37447, Note_on_c, 0, 47, 0
2, 37447, Note_on_c, 0, 59, 0
2, 37493, Control_c, 0, 64, 127
2, 37578, Note_on_c, 0, 49, 0
2, 37578, Note_on_c, 0, 73, 0
2, 37582, Note_on_c, 0, 73, 82
2, 37583, Note_on_c, 0, 49, 84
2, 37583, Note_on_c, 0, 61, 82
2, 37716, Note_on_c, 0, 37, 0
2, 37724, Note_on_c, 0, 49, 0
2, 37724, Note_on_c, 0, 61, 0
2, 37724, Note_on_c, 0, 73, 0
2, 37724, Note_on_c, 0, 85, 0
2, 37724, Note_on_c, 0, 37, 85
2, 37728, Note_on_c, 0, 49, 80
2, 37728, Note_on_c, 0, 61, 81
2, 37728, Note_on_c, 0, 85, 89
2, 37730, Note_on_c, 0, 73, 83
2, 37731, Note_on_c, 0, 80, 0
2, 37857, Control_c, 0, 64, 0
2, 37858, Note_on_c, 0, 25, 0
2, 37859, Note_on_c, 0, 49, 0
2, 37860, Note_on_c, 0, 73, 0
2, 37860, Note_on_c, 0, 85, 0
2, 37862, Note_on_c, 0, 61, 0
2, 37870, Note_on_c, 0, 37, 0
2, 37870, Note_on_c, 0, 77, 0
2, 37872, Note_on_c, 0, 38, 94
2, 37874, Note_on_c, 0, 86, 98
2, 37874, Note_on_c, 0, 26, 89
2, 37875, Note_on_c, 0, 81, 95
2, 37875, Note_on_c, 0, 74, 104
2, 37875, Note_on_c, 0, 62, 101
2, 37916, Control_c, 0, 64, 127
2, 38016, Note_on_c, 0, 81, 0
2, 38016, Note_on_c, 0, 62, 0
2, 38016, Note_on_c, 0, 26, 0
2, 38018, Note_on_c, 0, 74, 0
2, 38018, Note_on_c, 0, 86, 0
2, 38019, Control_c, 0, 64, 0
2, 38019, Note_on_c, 0, 38, 0
2, 38163, Note_on_c, 0, 83, 94
2, 38165, Note_on_c, 0, 78, 98
2, 38165, Note_on_c, 0, 71, 94
2, 38166, Note_on_c, 0, 59, 98
2, 38166, Note_on_c, 0, 35, 94
2, 38168, Note_on_c, 0, 47, 94
2, 38184, Control_c, 0, 64, 127
2, 38284, Note_on_c, 0, 71, 0
2, 38289, Note_on_c, 0, 71, 74
2, 38297, Note_on_c, 0, 66, 60
2, 38376, Control_c, 0, 64, 0
2, 38379, Note_on_c, 0, 47, 0
2, 38379, Note_on_c, 0, 35, 0
2, 38379, Note_on_c, 0, 71, 0
2, 38379, Note_on_c, 0, 59, 0
2, 38380, Note_on_c, 0, 66, 0
2, 38380, Note_on_c, 0, 78, 0
2, 38400, Note_on_c, 0, 83, 0
2, 38438, Note_on_c, 0, 85, 101
2, 38442, Note_on_c, 0, 80, 98
2, 38443, Note_on_c, 0, 61, 103
2, 38444, Note_on_c, 0, 73, 102
2, 38444, Note_on_c, 0, 25, 97
2, 38446, Note_on_c, 0, 49, 102
2, 38447, Note_on_c, 0, 68, 96
2, 38449, Note_on_c, 0, 37, 101
2, 38476, Control_c, 0, 64, 127
2, 38653, Note_on_c, 0, 25, 0
2, 38677, Note_on_c, 0, 80, 0
2, 38677, Note_on_c, 0, 85, 0
2, 38678, Note_on_c, 0, 37, 0
2, 38678, Note_on_c, 0, 49, 0
2, 38678, Note_on_c, 0, 73, 0
2, 38679, Control_c, 0, 64, 0
2, 38679, Note_on_c, 0, 61, 0
2, 38714, Note_on_c, 0, 68, 0
2, 38719, Note_on_c, 0, 56, 101
2, 38719, Note_on_c, 0, 32, 96
2, 38720, Note_on_c, 0, 75, 99
2, 38720, Note_on_c, 0, 68, 103
2, 38720, Note_on_c, 0, 44, 101
2, 38720, Note_on_c, 0, 80, 97
2, 38760, Control_c, 0, 64, 127
2, 38983, Note_on_c, 0, 32, 0
2, 38983, Note_on_c, 0, 44, 0
2, 38983, Note_on_c, 0, 56, 0
2, 38983, Note_on_c, 0, 68, 0
2, 38983, Note_on_c, 0, 80, 0
2, 38987, Note_on_c, 0, 32, 95
2, 38988, Note_on_c, 0, 44, 99
2, 38988, Note_on_c, 0, 56, 92
2, 38988, Note_on_c, 0, 68, 96
2, 38989, Note_on_c, 0, 80, 92
2, 39103, Control_c, 0, 64, 0
2, 39115, Note_on_c, 0, 68, 0
2, 39116, Note_on_c, 0, 56, 0
2, 39116, Note_on_c, 0, 44, 0
2, 39116, Note_on_c, 0, 75, 0
2, 39117, Note_on_c, 0, 32, 0
2, 39132, Note_on_c, 0, 33, 104
2, 39132, Note_on_c, 0, 45, 102
2, 39133, Note_on_c, 0, 81, 101
2, 39134, Note_on_c, 0, 69, 105
2, 39135, Note_on_c, 0, 57, 98
2, 39143, Note_on_c, 0, 66, 76
2, 39168, Note_on_c, 0, 80, 0
2, 39198, Control_c, 0, 64, 127
2, 39206, Note_on_c, 0, 66, 0
2, 39382, Control_c, 0, 64, 0
2, 39390, Control_c, 0, 64, 127
2, 39406, Note_on_c, 0, 33, 0
2, 39413, Note_on_c, 0, 78, 103
2, 39413, Control_c, 0, 64, 0
2, 39414, Note_on_c, 0, 35, 102
2, 39414, Note_on_c, 0, 47, 99
2, 39415, Note_on_c, 0, 33, 99
2, 39416, Note_on_c, 0, 71, 102
2, 39436, Note_on_c, 0, 57, 0
2, 39498, Control_c, 0, 64, 127
2, 39690, Note_on_c, 0, 78, 0
2, 39690, Note_on_c, 0, 81, 0
2, 39691, Note_on_c, 0, 85, 109
2, 39695, Control_c, 0, 64, 0
2, 39697, Note_on_c, 0, 81, 93
2, 39697, Note_on_c, 0, 47, 0
2, 39697, Note_on_c, 0, 69, 0
2, 39698, Note_on_c, 0, 73, 103
2, 39700, Note_on_c, 0, 78, 91
2, 39702, Note_on_c, 0, 35, 0
2, 39702, Note_on_c, 0, 71, 0
2, 39703, Note_on_c, 0, 69, 97
2, 39703, Note_on_c, 0, 45, 0
2, 39704, Note_on_c, 0, 33, 0
2, 39708, Note_on_c, 0, 30, 98
2, 39709, Note_on_c, 0, 42, 95
2, 39820, Control_c, 0, 64, 127
2, 39843, Note_on_c, 0, 42, 0
2, 39854, Note_on_c, 0, 42, 78
2, 39936, Note_on_c, 0, 81, 0
2, 39943, Note_on_c, 0, 81, 79
2, 39966, Note_on_c, 0, 30, 0
2, 39974, Note_on_c, 0, 30, 93
2, 40008, Note_on_c, 0, 90, 86
2, 40090, Note_on_c, 0, 93, 91
2, 40115, Control_c, 0, 64, 0
2, 40120, Note_on_c, 0, 90, 0
2, 40128, Note_on_c, 0, 78, 0
2, 40128, Note_on_c, 0, 85, 0
2, 40129, Note_on_c, 0, 90, 107
2, 40134, Note_on_c, 0, 57, 84
2, 40135, Note_on_c, 0, 81, 0
2, 40136, Note_on_c, 0, 85, 104
2, 40138, Note_on_c, 0, 78, 104
2, 40139, Note_on_c, 0, 81, 93
2, 40140, Note_on_c, 0, 66, 94
2, 40142, Note_on_c, 0, 61, 86
2, 40144, Note_on_c, 0, 54, 82
2, 40166, Control_c, 0, 64, 127
2, 40243, Note_on_c, 0, 93, 0
2, 40250, Note_on_c, 0, 30, 0
2, 40253, Note_on_c, 0, 93, 100
2, 40254, Note_on_c, 0, 30, 94
2, 40382, Note_on_c, 0, 97, 83
2, 40550, Note_on_c, 0, 30, 0
2, 40550, Note_on_c, 0, 90, 0
2, 40554, Note_on_c, 0, 90, 105
2, 40558, Note_on_c, 0, 42, 0
2, 40558, Note_on_c, 0, 93, 0
2, 40561, Note_on_c, 0, 30, 96
2, 40565, Note_on_c, 0, 81, 0
2, 40565, Note_on_c, 0, 85, 0
2, 40568, Note_on_c, 0, 42, 93
2, 40569, Note_on_c, 0, 93, 111
2, 40576, Note_on_c, 0, 81, 103
2, 40577, Note_on_c, 0, 85, 96
2, 40836, Note_on_c, 0, 81, 0
2, 40836, Note_on_c, 0, 97, 0
2, 40837, Note_on_c, 0, 42, 0
2, 40837, Note_on_c, 0, 61, 0
2, 40837, Note_on_c, 0, 26, 84
2, 40837, Note_on_c, 0, 69, 0
2, 40838, Note_on_c, 0, 73, 0
2, 40839, Control_c, 0, 64, 0
2, 40842, Note_on_c, 0, 26, 0
2, 40842, Note_on_c, 0, 30, 0
2, 40842, Note_on_c, 0, 57, 0
2, 40847, Note_on_c, 0, 57, 79
2, 40849, Note_on_c, 0, 85, 0
2, 40849, Note_on_c, 0, 93, 0
2, 40854, Note_on_c, 0, 92, 112
2, 40857, Note_on_c, 0, 66, 0
2, 40857, Note_on_c, 0, 78, 0
2, 40857, Note_on_c, 0, 90, 0
2, 40858, Note_on_c, 0, 62, 86
2, 40860, Note_on_c, 0, 74, 103
2, 40861, Note_on_c, 0, 80, 100
2, 40862, Note_on_c, 0, 66, 83
2, 40862, Note_on_c, 0, 90, 89
2, 40862, Note_on_c, 0, 83, 94
2, 40863, Note_on_c, 0, 78, 90
2, 40866, Note_on_c, 0, 86, 93
2, 40926, Control_c, 0, 64, 127
2, 41124, Note_on_c, 0, 26, 91
2, 41149, Note_on_c, 0, 78, 0
2, 41149, Note_on_c, 0, 90, 0
2, 41158, Note_on_c, 0, 90, 91
2, 41159, Note_on_c, 0, 78, 93
2, 41295, Note_on_c, 0, 66, 0
2, 41301, Note_on_c, 0, 88, 100
2, 41303, Note_on_c, 0, 76, 97
2, 41303, Note_on_c, 0, 81, 93
2, 41305, Note_on_c, 0, 85, 98
2, 41305, Note_on_c, 0, 93, 95
2, 41306, Note_on_c, 0, 66, 86
2, 41313, Note_on_c, 0, 97, 92
2, 41355, Note_on_c, 0, 102, 72
2, 41423, Note_on_c, 0, 103, 95
2, 41433, Note_on_c, 0, 103, 0
2, 41479, Note_on_c, 0, 102, 0
2, 41488, Note_on_c, 0, 102, 92
2, 41548, Note_on_c, 0, 97, 0
2, 41553, Note_on_c, 0, 97, 80
2, 41571, Note_on_c, 0, 93, 0
2, 41583, Note_on_c, 0, 93, 75
2, 41702, Note_on_c, 0, 26, 0
2, 41706, Note_on_c, 0, 26, 91
2, 41710, Note_on_c, 0, 66, 0
2, 41710, Note_on_c, 0, 74, 0
2, 41710, Note_on_c, 0, 86, 0
2, 41710, Note_on_c, 0, 90, 0
2, 41714, Note_on_c, 0, 90, 98
2, 41715, Note_on_c, 0, 86, 93
2, 41716, Note_on_c, 0, 66, 90
2, 41717, Note_on_c, 0, 74, 96
2, 41717, Note_on_c, 0, 62, 0
2, 41717, Note_on_c, 0, 98, 93
2, 41817, Note_on_c, 0, 38, 72
2, 41856, Note_on_c, 0, 76, 0
2, 41856, Note_on_c, 0, 81, 0
2, 41856, Note_on_c, 0, 85, 0
2, 41863, Note_on_c, 0, 85, 104
2, 41866, Note_on_c, 0, 76, 82
2, 41867, Note_on_c, 0, 73, 97
2, 41867, Note_on_c, 0, 81, 76
2, 41998, Note_on_c, 0, 69, 83
2, 41999, Note_on_c, 0, 64, 83
2, 42004, Note_on_c, 0, 61, 78
2, 42060, Control_c, 0, 64, 0
2, 42072, Note_on_c, 0, 102, 0
2, 42073, Note_on_c, 0, 98, 0
2, 42073, Note_on_c, 0, 38, 0
2, 42073, Note_on_c, 0, 80, 0
2, 42073, Note_on_c, 0, 83, 0
2, 42074, Note_on_c, 0, 86, 0
2, 42074, Note_on_c, 0, 92, 0
2, 42074, Note_on_c, 0, 93, 0
2, 42075, Note_on_c, 0, 90, 0
2, 42075, Note_on_c, 0, 97, 0
2, 42075, Note_on_c, 0, 78, 0
2, 42075, Note_on_c, 0, 66, 0
2, 42075, Note_on_c, 0, 88, 0
2, 42075, Note_on_c, 0, 85, 0
2, 42076, Note_on_c, 0, 73, 0
2, 42078, Note_on_c, 0, 54, 0
2, 42086, Note_on_c, 0, 26, 0
2, 42086, Note_on_c, 0, 74, 0
2, 42086, Note_on_c, 0, 76, 0
2, 42094, Note_on_c, 0, 81, 0
2, 42101, Note_on_c, 0, 57, 0
2, 42170, Control_c, 0, 64, 127
2, 42288, Note_on_c, 0, 33, 82
2, 42413, Note_on_c, 0, 45, 83
2, 42416, Note_on_c, 0, 69, 0
2, 42421, Note_on_c, 0, 69, 79
2, 42422, Note_on_c, 0, 73, 89
2, 42423, Note_on_c, 0, 85, 91
2, 42435, Note_on_c, 0, 93, 87
2, 42481, Note_on_c, 0, 97, 76
2, 42503, Note_on_c, 0, 100, 84
2, 42554, Note_on_c, 0, 45, 0
2, 42554, Note_on_c, 0, 73, 0
2, 42554, Note_on_c, 0, 85, 0
2, 42559, Note_on_c, 0, 85, 107
2, 42562, Note_on_c, 0, 33, 0
2, 42562, Note_on_c, 0, 97, 0
2, 42564, Note_on_c, 0, 45, 96
2, 42565, Note_on_c, 0, 73, 98
2, 42566, Note_on_c, 0, 76, 93
2, 42566, Note_on_c, 0, 33, 96
2, 42567, Note_on_c, 0, 97, 100
2, 42647, Note_on_c, 0, 93, 0
2, 42654, Note_on_c, 0, 100, 0
2, 42658, Note_on_c, 0, 93, 76
2, 42664, Note_on_c, 0, 100, 67
2, 42693, Note_on_c, 0, 97, 0
2, 42702, Note_on_c, 0, 97, 80
2, 42731, Note_on_c, 0, 45, 0
2, 42731, Note_on_c, 0, 93, 0
2, 42735, Note_on_c, 0, 45, 64
2, 42737, Note_on_c, 0, 93, 72
2, 42739, Note_on_c, 0, 33, 0
2, 42750, Note_on_c, 0, 33, 64
2, 42769, Note_on_c, 0, 86, 101
2, 42772, Note_on_c, 0, 74, 89
2, 42831, Note_on_c, 0, 33, 0
2, 42839, Note_on_c, 0, 45, 0
2, 42839, Note_on_c, 0, 73, 0
2, 42842, Note_on_c, 0, 88, 83
2, 42842, Note_on_c, 0, 33, 90
2, 42844, Note_on_c, 0, 45, 88
2, 42850, Note_on_c, 0, 73, 93
2, 42892, Note_on_c, 0, 85, 0
2, 42897, Note_on_c, 0, 85, 90
2, 42946, Note_on_c, 0, 45, 0
2, 42954, Note_on_c, 0, 81, 74
2, 42957, Note_on_c, 0, 45, 86
2, 42957, Note_on_c, 0, 57, 79
2, 42965, Note_on_c, 0, 52, 71
2, 42984, Note_on_c, 0, 73, 0
2, 42984, Note_on_c, 0, 85, 0
2, 42988, Note_on_c, 0, 85, 101
2, 42994, Note_on_c, 0, 73, 91
2, 43038, Note_on_c, 0, 52, 0
2, 43049, Note_on_c, 0, 52, 57
2, 43124, Control_c, 0, 64, 0
2, 43125, Note_on_c, 0, 71, 91
2, 43127, Note_on_c, 0, 97, 0
2, 43128, Note_on_c, 0, 74, 0
2, 43128, Note_on_c, 0, 93, 0
2, 43131, Note_on_c, 0, 86, 0
2, 43132, Note_on_c, 0, 69, 0
2, 43132, Note_on_c, 0, 100, 0
2, 43134, Note_on_c, 0, 61, 0
2, 43134, Note_on_c, 0, 88, 0
2, 43138, Note_on_c, 0, 45, 0
2, 43138, Note_on_c, 0, 64, 0
2, 43143, Note_on_c, 0, 64, 74
2, 43146, Note_on_c, 0, 33, 0
2, 43146, Note_on_c, 0, 57, 0
2, 43146, Note_on_c, 0, 73, 0
2, 43146, Note_on_c, 0, 81, 0
2, 43146, Note_on_c, 0, 85, 0
2, 43149, Note_on_c, 0, 68, 88
2, 43151, Note_on_c, 0, 59, 83
2, 43152, Note_on_c, 0, 85, 100
2, 43153, Note_on_c, 0, 52, 0
2, 43153, Note_on_c, 0, 76, 0
2, 43155, Note_on_c, 0, 73, 98
2, 43157, Note_on_c, 0, 80, 92
2, 43158, Note_on_c, 0, 76, 88
2, 43207, Control_c, 0, 64, 127
2, 43292, Note_on_c, 0, 80, 0
2, 43296, Note_on_c, 0, 80, 71
2, 43395, Note_on_c, 0, 83, 77
2, 43406, Note_on_c, 0, 40, 74
2, 43406, Note_on_c, 0, 28, 92
2, 43522, Note_on_c, 0, 28, 0
2, 43522, Note_on_c, 0, 40, 0
2, 43533, Note_on_c, 0, 28, 83
2, 43533, Note_on_c, 0, 40, 73
2, 43549, Note_on_c, 0, 95, 95
2, 43560, Note_on_c, 0, 83, 0
2, 43565, Note_on_c, 0, 83, 89
2, 43568, Note_on_c, 0, 71, 0
2, 43577, Note_on_c, 0, 71, 82
2, 43619, Note_on_c, 0, 100, 70
2, 43691, Note_on_c, 0, 28, 0
2, 43695, Note_on_c, 0, 28, 95
2, 43699, Note_on_c, 0, 83, 0
2, 43706, Note_on_c, 0, 76, 0
2, 43707, Note_on_c, 0, 92, 101
2, 43709, Note_on_c, 0, 83, 90
2, 43714, Note_on_c, 0, 80, 0
2, 43717, Note_on_c, 0, 76, 90
2, 43718, Note_on_c, 0, 88, 90
2, 43719, Note_on_c, 0, 80, 85
2, 43791, Note_on_c, 0, 100, 0
2, 43802, Note_on_c, 0, 100, 97
2, 43806, Note_on_c, 0, 85, 0
2, 43822, Note_on_c, 0, 95, 0
2, 43829, Note_on_c, 0, 95, 90
2, 43829, Note_on_c, 0, 40, 0
2, 43835, Note_on_c, 0, 40, 60
2, 43975, Note_on_c, 0, 92, 0
2, 43983, Note_on_c, 0, 28, 0
2, 43983, Note_on_c, 0, 40, 0
2, 43983, Note_on_c, 0, 73, 0
2, 43983, Note_on_c, 0, 92, 96
2, 43988, Note_on_c, 0, 28, 95
2, 43989, Note_on_c, 0, 40, 84
2, 43995, Note_on_c, 0, 64, 0
2, 44052, Note_on_c, 0, 83, 0
2, 44061, Note_on_c, 0, 83, 88
2, 44090, Note_on_c, 0, 40, 0
2, 44099, Note_on_c, 0, 40, 54
2, 44264, Control_c, 0, 64, 0
2, 44265, Note_on_c, 0, 69, 97
2, 44269, Note_on_c, 0, 68, 0
2, 44269, Note_on_c, 0, 92, 0
2, 44269, Note_on_c, 0, 80, 0
2, 44269, Note_on_c, 0, 95, 0
2, 44269, Note_on_c, 0, 40, 0
2, 44270, Note_on_c, 0, 100, 0
2, 44270, Note_on_c, 0, 76, 0
2, 44270, Note_on_c, 0, 59, 0
2, 44270, Note_on_c, 0, 83, 0
2, 44271, Note_on_c, 0, 30, 99
2, 44275, Note_on_c, 0, 88, 0
2, 44280, Note_on_c, 0, 42, 93
2, 44282, Note_on_c, 0, 28, 0
2, 44282, Note_on_c, 0, 71, 0
2, 44284, Note_on_c, 0, 81, 92
2, 44284, Note_on_c, 0, 85, 105
2, 44285, Note_on_c, 0, 73, 99
2, 44287, Note_on_c, 0, 78, 85
2, 44352, Control_c, 0, 64, 127
2, 44398, Note_on_c, 0, 42, 0
2, 44536, Note_on_c, 0, 30, 0
2, 44547, Note_on_c, 0, 30, 88
2, 44549, Note_on_c, 0, 42, 79
2, 44693, Note_on_c, 0, 93, 94
2, 44705, Note_on_c, 0, 42, 0
2, 44705, Note_on_c, 0, 78, 0
2, 44705, Note_on_c, 0, 81, 0
2, 44705, Note_on_c, 0, 85, 0
2, 44709, Note_on_c, 0, 81, 94
2, 44709, Note_on_c, 0, 90, 105
2, 44710, Note_on_c, 0, 85, 100
2, 44712, Note_on_c, 0, 78, 104
2, 44714, Note_on_c, 0, 42, 83
2, 44717, Note_on_c, 0, 54, 75
2, 44835, Note_on_c, 0, 30, 0
2, 44835, Note_on_c, 0, 93, 0
2, 44843, Note_on_c, 0, 30, 94
2, 44844, Note_on_c, 0, 93, 96
2, 44845, Note_on_c, 0, 97, 87
2, 44847, Note_on_c, 0, 102, 85
2, 44935, Note_on_c, 0, 97, 0
2, 44940, Note_on_c, 0, 97, 89
2, 45127, Note_on_c, 0, 30, 0
2, 45127, Note_on_c, 0, 81, 0
2, 45127, Note_on_c, 0, 93, 0
2, 45132, Note_on_c, 0, 93, 110
2, 45135, Note_on_c, 0, 85, 0
2, 45135, Note_on_c, 0, 90, 0
2, 45136, Note_on_c, 0, 30, 97
2, 45136, Note_on_c, 0, 81, 102
2, 45139, Note_on_c, 0, 90, 96
2, 45139, Note_on_c, 0, 73, 0
2, 45145, Note_on_c, 0, 85, 93
2, 45312, Note_on_c, 0, 85, 0
2, 45323, Note_on_c, 0, 85, 57
2, 45411, Note_on_c, 0, 69, 0
2, 45415, Note_on_c, 0, 102, 0
2, 45416, Note_on_c, 0, 30, 0
2, 45417, Note_on_c, 0, 97, 0
2, 45417, Note_on_c, 0, 42, 0
2, 45418, Note_on_c, 0, 78, 0
2, 45418, Note_on_c, 0, 54, 0
2, 45420, Note_on_c, 0, 85, 0
2, 45422, Note_on_c, 0, 69, 93
2, 45423, Note_on_c, 0, 57, 75
2, 45424, Control_c, 0, 64, 0
2, 45425, Note_on_c, 0, 95, 109
2, 45427, Note_on_c, 0, 90, 0
2, 45428, Note_on_c, 0, 62, 89
2, 45429, Note_on_c, 0, 66, 84
2, 45429, Note_on_c, 0, 86, 100
2, 45430, Note_on_c, 0, 83, 101
2, 45431, Note_on_c, 0, 74, 96
2, 45433, Note_on_c, 0, 90, 91
2, 45434, Note_on_c, 0, 81, 0
2, 45457, Note_on_c, 0, 57, 0
2, 45504, Control_c, 0, 64, 127
2, 45696, Note_on_c, 0, 93, 0
2, 45700, Note_on_c, 0, 26, 87
2, 45701, Note_on_c, 0, 38, 84
2, 45703, Note_on_c, 0, 90, 0
2, 45705, Note_on_c, 0, 93, 101
2, 45706, Note_on_c, 0, 81, 97
2, 45711, Note_on_c, 0, 38, 0
2, 45713, Note_on_c, 0, 90, 86
2, 45857, Note_on_c, 0, 69, 0
2, 45857, Note_on_c, 0, 74, 0
2, 45863, Note_on_c, 0, 92, 108
2, 45864, Note_on_c, 0, 62, 0
2, 45864, Note_on_c, 0, 66, 0
2, 45864, Note_on_c, 0, 83, 0
2, 45864, Note_on_c, 0, 86, 0
2, 45865, Note_on_c, 0, 80, 103
2, 45865, Note_on_c, 0, 69, 81
2, 45866, Note_on_c, 0, 57, 67
2, 45866, Note_on_c, 0, 74, 92
2, 45869, Note_on_c, 0, 86, 85
2, 45869, Note_on_c, 0, 62, 76
2, 45869, Note_on_c, 0, 66, 75
2, 45873, Note_on_c, 0, 83, 87
2, 45980, Note_on_c, 0, 93, 0
2, 45983, Note_on_c, 0, 103, 86
2, 45985, Note_on_c, 0, 105, 103
2, 45986, Note_on_c, 0, 93, 90
2, 46098, Note_on_c, 0, 97, 84
2, 46118, Note_on_c, 0, 90, 0
2, 46118, Note_on_c, 0, 93, 0
2, 46120, Note_on_c, 0, 78, 92
2, 46129, Note_on_c, 0, 90, 75
2, 46129, Note_on_c, 0, 93, 83
2, 46248, Note_on_c, 0, 103, 0
2, 46256, Note_on_c, 0, 78, 0
2, 46256, Note_on_c, 0, 90, 0
2, 46264, Note_on_c, 0, 66, 0
2, 46264, Note_on_c, 0, 81, 0
2, 46266, Note_on_c, 0, 78, 101
2, 46267, Note_on_c, 0, 90, 100
2, 46271, Note_on_c, 0, 66, 89
2, 46271, Note_on_c, 0, 50, 85
2, 46272, Note_on_c, 0, 81, 87
2, 46273, Note_on_c, 0, 38, 89
2, 46275, Note_on_c, 0, 85, 90
2, 46276, Note_on_c, 0, 54, 80
2, 46412, Note_on_c, 0, 88, 91
2, 46413, Note_on_c, 0, 76, 83
2, 46517, Note_on_c, 0, 105, 0
2, 46533, Note_on_c, 0, 69, 0
2, 46537, Note_on_c, 0, 69, 93
2, 46540, Note_on_c, 0, 50, 0
2, 46540, Note_on_c, 0, 57, 0
2, 46540, Note_on_c, 0, 78, 0
2, 46540, Note_on_c, 0, 85, 0
2, 46543, Note_on_c, 0, 95, 0
2, 46544, Note_on_c, 0, 93, 0
2, 46544, Note_on_c, 0, 86, 0
2, 46544, Note_on_c, 0, 80, 0
2, 46544, Note_on_c, 0, 38, 0
2, 46545, Note_on_c, 0, 62, 0
2, 46545, Note_on_c, 0, 83, 0
2, 46546, Note_on_c, 0, 81, 0
2, 46546, Note_on_c, 0, 97, 0
2, 46546, Note_on_c, 0, 66, 0
2, 46546, Note_on_c, 0, 74, 0
2, 46546, Note_on_c, 0, 88, 0
2, 46546, Control_c, 0, 64, 0
2, 46547, Note_on_c, 0, 64, 76
2, 46548, Note_on_c, 0, 78, 97
2, 46548, Note_on_c, 0, 26, 0
2, 46548, Note_on_c, 0, 90, 0
2, 46548, Note_on_c, 0, 85, 99
2, 46549, Note_on_c, 0, 76, 0
2, 46550, Note_on_c, 0, 73, 93
2, 46551, Note_on_c, 0, 57, 79
2, 46552, Note_on_c, 0, 61, 87
2, 46554, Note_on_c, 0, 90, 98
2, 46556, Note_on_c, 0, 54, 0
2, 46556, Note_on_c, 0, 92, 0
2, 46557, Note_on_c, 0, 52, 76
2, 46586, Note_on_c, 0, 69, 0
2, 46586, Note_on_c, 0, 73, 0
2, 46609, Control_c, 0, 64, 127
2, 46693, Note_on_c, 0, 88, 95
2, 46698, Note_on_c, 0, 76, 86
2, 46709, Note_on_c, 0, 57, 0
2, 46808, Note_on_c, 0, 81, 78
2, 46813, Note_on_c, 0, 33, 87
2, 46813, Note_on_c, 0, 45, 74
2, 46909, Note_on_c, 0, 64, 0
2, 46961, Note_on_c, 0, 93, 87
2, 46961, Note_on_c, 0, 57, 83
2, 46961, Note_on_c, 0, 69, 83
2, 46963, Note_on_c, 0, 61, 0
2, 46963, Note_on_c, 0, 81, 0
2, 46967, Note_on_c, 0, 81, 74
2, 46967, Note_on_c, 0, 61, 75
2, 46968, Note_on_c, 0, 64, 70
2, 47028, Note_on_c, 0, 97, 83
2, 47051, Note_on_c, 0, 100, 82
2, 47093, Note_on_c, 0, 33, 0
2, 47093, Note_on_c, 0, 45, 0
2, 47098, Note_on_c, 0, 33, 89
2, 47098, Note_on_c, 0, 103, 89
2, 47099, Note_on_c, 0, 45, 80
2, 47208, Note_on_c, 0, 97, 0
2, 47219, Note_on_c, 0, 97, 89
2, 47232, Note_on_c, 0, 69, 0
2, 47239, Note_on_c, 0, 45, 0
2, 47239, Note_on_c, 0, 57, 0
2, 47240, Note_on_c, 0, 69, 88
2, 47245, Note_on_c, 0, 45, 76
2, 47246, Note_on_c, 0, 57, 78
2, 47267, Note_on_c, 0, 91, 71
2, 47362, Note_on_c, 0, 33, 0
2, 47370, Note_on_c, 0, 88, 0
2, 47370, Note_on_c, 0, 100, 0
2, 47373, Note_on_c, 0, 33, 77
2, 47377, Note_on_c, 0, 45, 0
2, 47378, Note_on_c, 0, 88, 84
2, 47380, Note_on_c, 0, 100, 80
2, 47381, Note_on_c, 0, 71, 90
2, 47382, Note_on_c, 0, 35, 72
2, 47382, Note_on_c, 0, 45, 77
2, 47386, Note_on_c, 0, 59, 77
2, 47388, Note_on_c, 0, 47, 78
2, 47454, Note_on_c, 0, 81, 0
2, 47462, Note_on_c, 0, 93, 0
2, 47464, Note_on_c, 0, 81, 79
2, 47473, Note_on_c, 0, 93, 68
2, 47505, Note_on_c, 0, 36, 75
2, 47513, Note_on_c, 0, 72, 98
2, 47514, Note_on_c, 0, 48, 75
2, 47517, Note_on_c, 0, 60, 91
2, 47614, Note_on_c, 0, 35, 0
2, 47614, Note_on_c, 0, 33, 0
2, 47616, Note_on_c, 0, 47, 0
2, 47617, Note_on_c, 0, 48, 0
2, 47617, Note_on_c, 0, 100, 0
2, 47617, Control_c, 0, 64, 0
2, 47618, Note_on_c, 0, 97, 0
2, 47618, Note_on_c, 0, 93, 0
2, 47618, Note_on_c, 0, 59, 0
2, 47618, Note_on_c, 0, 69, 0
2, 47618, Note_on_c, 0, 60, 0
2, 47618, Note_on_c, 0, 61, 0
2, 47618, Note_on_c, 0, 85, 0
2, 47618, Note_on_c, 0, 52, 0
2, 47618, Note_on_c, 0, 78, 0
2, 47618, Note_on_c, 0, 90, 0
2, 47618, Note_on_c, 0, 72, 0
2, 47618, Note_on_c, 0, 71, 0
2, 47618, Note_on_c, 0, 64, 0
2, 47618, Note_on_c, 0, 76, 0
2, 47619, Note_on_c, 0, 88, 0
2, 47619, Note_on_c, 0, 45, 0
2, 47619, Note_on_c, 0, 57, 0
2, 47623, Note_on_c, 0, 91, 0
2, 47623, Note_on_c, 0, 103, 0
2, 47631, Note_on_c, 0, 36, 0
2, 47631, Note_on_c, 0, 81, 0
2, 47655, Note_on_c, 0, 73, 99
2, 47656, Note_on_c, 0, 68, 101
2, 47658, Note_on_c, 0, 49, 105
2, 47658, Note_on_c, 0, 61, 101
2, 47658, Note_on_c, 0, 37, 93
2, 47659, Note_on_c, 0, 44, 71
2, 47663, Note_on_c, 0, 65, 71
2, 47669, Note_on_c, 0, 65, 0
2, 47700, Control_c, 0, 64, 127
2, 47784, Note_on_c, 0, 68, 0
2, 47784, Note_on_c, 0, 73, 0
2, 47789, Note_on_c, 0, 68, 92
2, 47792, Note_on_c, 0, 37, 0
2, 47792, Note_on_c, 0, 44, 0
2, 47792, Note_on_c, 0, 49, 0
2, 47792, Note_on_c, 0, 61, 0
2, 47796, Note_on_c, 0, 73, 76
2, 47796, Note_on_c, 0, 37, 87
2, 47797, Note_on_c, 0, 61, 80
2, 47797, Note_on_c, 0, 49, 86
2, 47800, Note_on_c, 0, 44, 68
2, 47915, Note_on_c, 0, 49, 0
2, 47915, Note_on_c, 0, 61, 0
2, 47915, Note_on_c, 0, 73, 0
2, 47923, Note_on_c, 0, 37, 0
2, 47923, Note_on_c, 0, 68, 0
2, 47925, Note_on_c, 0, 49, 80
2, 47926, Note_on_c, 0, 73, 73
2, 47926, Note_on_c, 0, 61, 77
2, 47927, Note_on_c, 0, 50, 76
2, 47927, Note_on_c, 0, 37, 76
2, 47930, Note_on_c, 0, 38, 71
2, 47930, Note_on_c, 0, 68, 70
2, 47938, Note_on_c, 0, 50, 0
2, 47980, Note_on_c, 0, 49, 0
2, 47982, Note_on_c, 0, 61, 0
2, 47982, Note_on_c, 0, 37, 0
2, 47982, Note_on_c, 0, 68, 0
2, 47983, Note_on_c, 0, 73, 0
2, 47983, Note_on_c, 0, 44, 0
2, 47986, Control_c, 0, 64, 0
2, 48015, Note_on_c, 0, 38, 0
2, 48072, Note_on_c, 0, 86, 97
2, 48074, Note_on_c, 0, 74, 106
2, 48075, Note_on_c, 0, 50, 94
2, 48075, Note_on_c, 0, 62, 90
2, 48076, Note_on_c, 0, 86, 0
2, 48076, Control_c, 0, 64, 127
2, 48082, Note_on_c, 0, 38, 89
2, 48091, Note_on_c, 0, 45, 61
2, 48220, Control_c, 0, 64, 0
2, 48226, Note_on_c, 0, 74, 0
2, 48226, Note_on_c, 0, 50, 0
2, 48227, Note_on_c, 0, 38, 0
2, 48230, Note_on_c, 0, 45, 0
2, 48238, Note_on_c, 0, 62, 0
2, 48343, Note_on_c, 0, 71, 99
2, 48348, Note_on_c, 0, 66, 92
2, 48349, Note_on_c, 0, 59, 88
2, 48349, Note_on_c, 0, 47, 93
2, 48353, Note_on_c, 0, 42, 81
2, 48354, Note_on_c, 0, 35, 86
2, 48453, Control_c, 0, 64, 127
2, 48618, Note_on_c, 0, 61, 90
2, 48618, Note_on_c, 0, 73, 98
2, 48619, Note_on_c, 0, 37, 75
2, 48619, Note_on_c, 0, 49, 84
2, 48624, Note_on_c, 0, 44, 56
2, 48712, Control_c, 0, 64, 0
2, 48716, Note_on_c, 0, 54, 100
2, 48721, Note_on_c, 0, 35, 0
2, 48721, Note_on_c, 0, 59, 0
2, 48721, Note_on_c, 0, 66, 0
2, 48721, Note_on_c, 0, 73, 0
2, 48725, Note_on_c, 0, 42, 0
2, 48726, Note_on_c, 0, 49, 0
2, 48726, Note_on_c, 0, 66, 107
2, 48727, Note_on_c, 0, 37, 0
2, 48728, Note_on_c, 0, 69, 92
2, 48729, Note_on_c, 0, 44, 0
2, 48729, Note_on_c, 0, 47, 0
2, 48729, Note_on_c, 0, 71, 0
2, 48730, Note_on_c, 0, 57, 81
2, 48730, Note_on_c, 0, 73, 103
2, 48732, Note_on_c, 0, 81, 97
2, 48733, Note_on_c, 0, 85, 101
2, 48734, Note_on_c, 0, 78, 95
2, 48768, Control_c, 0, 64, 127
2, 48867, Note_on_c, 0, 69, 0
2, 48872, Note_on_c, 0, 69, 65
2, 48921, Note_on_c, 0, 73, 0
2, 48933, Note_on_c, 0, 73, 69
2, 48975, Note_on_c, 0, 78, 0
2, 48980, Note_on_c, 0, 78, 70
2, 49059, Note_on_c, 0, 73, 0
2, 49065, Note_on_c, 0, 73, 74
2, 49076, Note_on_c, 0, 42, 71
2, 49076, Note_on_c, 0, 30, 62
2, 49128, Note_on_c, 0, 57, 0
2, 49138, Note_on_c, 0, 57, 76
2, 49167, Note_on_c, 0, 61, 0
2, 49167, Note_on_c, 0, 66, 0
2, 49167, Note_on_c, 0, 69, 0
2, 49167, Note_on_c, 0, 78, 0
2, 49167, Note_on_c, 0, 85, 0
2, 49170, Note_on_c, 0, 90, 105
2, 49171, Note_on_c, 0, 69, 106
2, 49173, Note_on_c, 0, 78, 103
2, 49175, Note_on_c, 0, 54, 0
2, 49176, Note_on_c, 0, 66, 100
2, 49177, Note_on_c, 0, 85, 98
2, 49177, Note_on_c, 0, 61, 80
2, 49186, Note_on_c, 0, 54, 78
2, 49251, Note_on_c, 0, 85, 0
2, 49256, Note_on_c, 0, 85, 91
2, 49336, Note_on_c, 0, 42, 0
2, 49336, Note_on_c, 0, 78, 0
2, 49341, Note_on_c, 0, 42, 63
2, 49344, Note_on_c, 0, 78, 83
2, 49413, Note_on_c, 0, 81, 0
2, 49417, Note_on_c, 0, 81, 77
2, 49451, Note_on_c, 0, 85, 0
2, 49459, Note_on_c, 0, 85, 84
2, 49528, Note_on_c, 0, 90, 0
2, 49534, Note_on_c, 0, 90, 79
2, 49605, Note_on_c, 0, 42, 0
2, 49605, Note_on_c, 0, 73, 0
2, 49605, Note_on_c, 0, 81, 0
2, 49605, Note_on_c, 0, 85, 0
2, 49609, Note_on_c, 0, 93, 108
2, 49610, Note_on_c, 0, 73, 105
2, 49612, Note_on_c, 0, 90, 0
2, 49613, Note_on_c, 0, 42, 78
2, 49615, Note_on_c, 0, 81, 107
2, 49615, Note_on_c, 0, 85, 103
2, 49621, Note_on_c, 0, 90, 87
2, 49743, Note_on_c, 0, 93, 0
2, 49753, Note_on_c, 0, 93, 80
2, 49800, Note_on_c, 0, 97, 86
2, 49890, Note_on_c, 0, 93, 0
2, 49890, Note_on_c, 0, 73, 0
2, 49891, Control_c, 0, 64, 0
2, 49891, Note_on_c, 0, 42, 0
2, 49891, Note_on_c, 0, 85, 0
2, 49891, Note_on_c, 0, 30, 0
2, 49891, Note_on_c, 0, 81, 0
2, 49891, Note_on_c, 0, 90, 0
2, 49891, Note_on_c, 0, 61, 0
2, 49892, Note_on_c, 0, 66, 0
2, 49892, Note_on_c, 0, 97, 0
2, 49892, Note_on_c, 0, 54, 0
2, 49892, Note_on_c, 0, 78, 0
2, 49903, Note_on_c, 0, 98, 104
2, 49904, Note_on_c, 0, 69, 0
2, 49909, Note_on_c, 0, 69, 80
2, 49910, Note_on_c, 0, 74, 104
2, 49913, Note_on_c, 0, 80, 109
2, 49915, Note_on_c, 0, 83, 99
2, 49920, Note_on_c, 0, 92, 109
2, 49920, Note_on_c, 0, 95, 83
2, 49950, Control_c, 0, 64, 127
2, 49968, Note_on_c, 0, 93, 56
2, 50039, Note_on_c, 0, 90, 75
2, 50045, Note_on_c, 0, 38, 49
2, 50050, Note_on_c, 0, 38, 0
2, 50101, Note_on_c, 0, 86, 74
2, 50165, Note_on_c, 0, 93, 0
2, 50176, Note_on_c, 0, 93, 107
2, 50181, Note_on_c, 0, 90, 0
2, 50189, Note_on_c, 0, 78, 105
2, 50190, Note_on_c, 0, 90, 101
2, 50296, Note_on_c, 0, 86, 0
2, 50307, Note_on_c, 0, 86, 91
2, 50311, Note_on_c, 0, 69, 0
2, 50312, Note_on_c, 0, 62, 83
2, 50317, Note_on_c, 0, 69, 100
2, 50317, Note_on_c, 0, 66, 92
2, 50317, Note_on_c, 0, 76, 106
2, 50319, Note_on_c, 0, 88, 104
2, 50377, Note_on_c, 0, 81, 67
2, 50449, Note_on_c, 0, 86, 0
2, 50454, Note_on_c, 0, 86, 87
2, 50511, Note_on_c, 0, 81, 0
2, 50522, Note_on_c, 0, 81, 74
2, 50580, Note_on_c, 0, 78, 0
2, 50590, Note_on_c, 0, 78, 76
2, 50633, Note_on_c, 0, 38, 57
2, 50634, Note_on_c, 0, 74, 0
2, 50639, Note_on_c, 0, 74, 77
2, 50711, Note_on_c, 0, 74, 0
2, 50711, Note_on_c, 0, 86, 0
2, 50718, Note_on_c, 0, 81, 0
2, 50720, Note_on_c, 0, 86, 101
2, 50722, Note_on_c, 0, 74, 102
2, 50723, Note_on_c, 0, 81, 89
2, 50726, Note_on_c, 0, 33, 63
2, 50726, Note_on_c, 0, 78, 0
2, 50734, Note_on_c, 0, 33, 0
2, 50737, Note_on_c, 0, 78, 78
2, 50787, Note_on_c, 0, 78, 0
2, 50797, Note_on_c, 0, 78, 63
2, 50849, Note_on_c, 0, 76, 0
2, 50856, Note_on_c, 0, 81, 0
2, 50860, Note_on_c, 0, 76, 75
2, 50861, Note_on_c, 0, 73, 87
2, 50861, Note_on_c, 0, 81, 77
2, 50863, Note_on_c, 0, 85, 84
2, 50887, Note_on_c, 0, 38, 0
2, 50891, Note_on_c, 0, 38, 53
2, 50987, Note_on_c, 0, 69, 0
2, 50993, Note_on_c, 0, 69, 98
2, 50998, Note_on_c, 0, 64, 87
2, 50999, Note_on_c, 0, 45, 78
2, 51001, Note_on_c, 0, 61, 82
2, 51002, Note_on_c, 0, 95, 0
2, 51005, Note_on_c, 0, 33, 76
2, 51010, Note_on_c, 0, 92, 0
2, 51010, Note_on_c, 0, 98, 0
2, 51015, Note_on_c, 0, 76, 0
2, 51015, Note_on_c, 0, 88, 0
2, 51015, Note_on_c, 0, 62, 0
2, 51015, Note_on_c, 0, 93, 0
2, 51016, Note_on_c, 0, 38, 0
2, 51016, Note_on_c, 0, 83, 0
2, 51017, Note_on_c, 0, 66, 0
2, 51017, Note_on_c, 0, 81, 0
2, 51017, Note_on_c, 0, 86, 0
2, 51017, Note_on_c, 0, 85, 0
2, 51017, Note_on_c, 0, 74, 0
2, 51018, Note_on_c, 0, 73, 0
2, 51018, Note_on_c, 0, 90, 0
2, 51019, Note_on_c, 0, 78, 0
2, 51019, Note_on_c, 0, 80, 0
2, 51020, Control_c, 0, 64, 0
2, 51033, Note_on_c, 0, 57, 0
2, 51102, Control_c, 0, 64, 127
2, 51148, Note_on_c, 0, 45, 0
2, 51157, Note_on_c, 0, 45, 65
2, 51158, Note_on_c, 0, 73, 73
2, 51214, Note_on_c, 0, 76, 78
2, 51294, Note_on_c, 0, 64, 0
2, 51294, Note_on_c, 0, 69, 0
2, 51294, Note_on_c, 0, 73, 0
2, 51305, Note_on_c, 0, 64, 60
2, 51305, Note_on_c, 0, 69, 61
2, 51305, Note_on_c, 0, 73, 82
2, 51402, Note_on_c, 0, 64, 0
2, 51402, Note_on_c, 0, 69, 0
2, 51402, Note_on_c, 0, 73, 0
2, 51402, Note_on_c, 0, 76, 0
2, 51407, Note_on_c, 0, 76, 85
2, 51408, Note_on_c, 0, 69, 101
2, 51409, Note_on_c, 0, 73, 90
2, 51409, Note_on_c, 0, 61, 0
2, 51411, Note_on_c, 0, 64, 78
2, 51413, Note_on_c, 0, 81, 88
2, 51414, Note_on_c, 0, 61, 73
2, 51414, Note_on_c, 0, 57, 74
2, 51463, Note_on_c, 0, 81, 0
2, 51472, Note_on_c, 0, 81, 66
2, 51548, Note_on_c, 0, 61, 0
2, 51548, Note_on_c, 0, 73, 0
2, 51548, Note_on_c, 0, 76, 0
2, 51551, Note_on_c, 0, 85, 95
2, 51553, Note_on_c, 0, 73, 106
2, 51559, Note_on_c, 0, 61, 98
2, 51559, Note_on_c, 0, 88, 101
2, 51559, Note_on_c, 0, 76, 105
2, 51655, Note_on_c, 0, 81, 0
2, 51662, Note_on_c, 0, 81, 79
2, 51709, Note_on_c, 0, 33, 0
2, 51709, Note_on_c, 0, 85, 0
2, 51714, Note_on_c, 0, 85, 83
2, 51770, Note_on_c, 0, 64, 0
2, 51770, Note_on_c, 0, 76, 0
2, 51778, Note_on_c, 0, 81, 0
2, 51780, Note_on_c, 0, 76, 106
2, 51781, Note_on_c, 0, 93, 108
2, 51781, Note_on_c, 0, 64, 88
2, 51785, Note_on_c, 0, 81, 98
2, 51855, Note_on_c, 0, 85, 0
2, 51858, Note_on_c, 0, 33, 72
2, 51860, Note_on_c, 0, 85, 97
2, 51932, Note_on_c, 0, 88, 0
2, 51940, Note_on_c, 0, 88, 88
2, 51978, Note_on_c, 0, 69, 0
2, 51978, Note_on_c, 0, 81, 0
2, 51978, Note_on_c, 0, 85, 0
2, 51978, Note_on_c, 0, 93, 0
2, 51981, Note_on_c, 0, 97, 115
2, 51983, Note_on_c, 0, 85, 107
2, 51986, Note_on_c, 0, 69, 95
2, 51988, Note_on_c, 0, 93, 100
2, 51989, Note_on_c, 0, 81, 107
2, 52070, Note_on_c, 0, 88, 0
2, 52074, Note_on_c, 0, 88, 69
2, 52095, Control_c, 0, 64, 0
2, 52124, Note_on_c, 0, 76, 0
2, 52124, Note_on_c, 0, 85, 0
2, 52124, Note_on_c, 0, 97, 0
2, 52127, Note_on_c, 0, 33, 0
2, 52127, Note_on_c, 0, 73, 0
2, 52129, Note_on_c, 0, 45, 0
2, 52129, Note_on_c, 0, 97, 114
2, 52130, Note_on_c, 0, 57, 0
2, 52134, Note_on_c, 0, 85, 110
2, 52134, Note_on_c, 0, 76, 104
2, 52139, Note_on_c, 0, 61, 0
2, 52139, Note_on_c, 0, 81, 0
2, 52139, Note_on_c, 0, 93, 0
2, 52139, Control_c, 0, 64, 127
2, 52145, Note_on_c, 0, 71, 73
2, 52154, Note_on_c, 0, 69, 0
2, 52216, Note_on_c, 0, 88, 0
2, 52224, Note_on_c, 0, 95, 98
2, 52226, Note_on_c, 0, 88, 76
2, 52284, Note_on_c, 0, 92, 81
2, 52286, Note_on_c, 0, 40, 59
2, 52346, Note_on_c, 0, 88, 0
2, 52354, Note_on_c, 0, 95, 0
2, 52357, Note_on_c, 0, 88, 78
2, 52365, Note_on_c, 0, 83, 101
2, 52365, Note_on_c, 0, 95, 112
2, 52416, Note_on_c, 0, 40, 0
2, 52420, Note_on_c, 0, 28, 69
2, 52420, Note_on_c, 0, 40, 61
2, 52485, Note_on_c, 0, 92, 0
2, 52490, Note_on_c, 0, 92, 74
2, 52538, Note_on_c, 0, 88, 0
2, 52542, Note_on_c, 0, 88, 85
2, 52549, Note_on_c, 0, 93, 99
2, 52549, Note_on_c, 0, 81, 103
2, 52623, Note_on_c, 0, 64, 0
2, 52629, Note_on_c, 0, 64, 78
2, 52692, Note_on_c, 0, 83, 0
2, 52692, Note_on_c, 0, 88, 0
2, 52692, Note_on_c, 0, 92, 0
2, 52696, Control_c, 0, 64, 0
2, 52697, Note_on_c, 0, 83, 104
2, 52700, Note_on_c, 0, 71, 0
2, 52700, Note_on_c, 0, 76, 0
2, 52701, Note_on_c, 0, 92, 110
2, 52702, Note_on_c, 0, 88, 105
2, 52703, Note_on_c, 0, 80, 110
2, 52705, Note_on_c, 0, 76, 107
2, 52705, Note_on_c, 0, 68, 101
2, 52708, Note_on_c, 0, 71, 97
2, 52730, Control_c, 0, 64, 127
2, 52846, Note_on_c, 0, 40, 0
2, 52853, Note_on_c, 0, 28, 0
2, 52854, Note_on_c, 0, 40, 59
2, 52861, Note_on_c, 0, 76, 0
2, 52865, Note_on_c, 0, 28, 61
2, 52872, Note_on_c, 0, 76, 77
2, 52953, Note_on_c, 0, 83, 0
2, 52962, Note_on_c, 0, 83, 86
2, 53030, Note_on_c, 0, 80, 0
2, 53041, Note_on_c, 0, 80, 67
2, 53068, Note_on_c, 0, 76, 0
2, 53073, Note_on_c, 0, 76, 71
2, 53114, Note_on_c, 0, 40, 0
2, 53118, Note_on_c, 0, 40, 61
2, 53137, Note_on_c, 0, 71, 0
2, 53141, Note_on_c, 0, 71, 69
2, 53211, Note_on_c, 0, 54, 87
2, 53226, Note_on_c, 0, 80, 0
2, 53226, Note_on_c, 0, 68, 0
2, 53226, Note_on_c, 0, 71, 0
2, 53226, Note_on_c, 0, 76, 0
2, 53226, Note_on_c, 0, 40, 0
2, 53230, Note_on_c, 0, 93, 0
2, 53230, Note_on_c, 0, 97, 0
2, 53233, Control_c, 0, 64, 0
2, 53237, Note_on_c, 0, 28, 0
2, 53237, Note_on_c, 0, 92, 0
2, 53237, Note_on_c, 0, 95, 0
2, 53245, Note_on_c, 0, 64, 0
2, 53245, Note_on_c, 0, 83, 0
2, 53245, Note_on_c, 0, 88, 0
2, 53253, Note_on_c, 0, 54, 0
2, 53253, Note_on_c, 0, 85, 0
2, 53257, Note_on_c, 0, 73, 109
2, 53258, Note_on_c, 0, 85, 105
2, 53260, Note_on_c, 0, 81, 0
2, 53262, Note_on_c, 0, 54, 93
2, 53262, Note_on_c, 0, 69, 95
2, 53264, Note_on_c, 0, 66, 107
2, 53266, Note_on_c, 0, 61, 87
2, 53266, Note_on_c, 0, 81, 86
2, 53299, Control_c, 0, 64, 127
2, 53391, Note_on_c, 0, 73, 0
2, 53402, Note_on_c, 0, 73, 75
2, 53465, Note_on_c, 0, 78, 78
2, 53529, Note_on_c, 0, 73, 0
2, 53536, Note_on_c, 0, 73, 74
2, 53540, Note_on_c, 0, 30, 64
2, 53544, Note_on_c, 0, 42, 69
2, 53598, Note_on_c, 0, 78, 0
2, 53604, Note_on_c, 0, 78, 75
2, 53667, Note_on_c, 0, 61, 0
2, 53667, Note_on_c, 0, 69, 0
2, 53667, Note_on_c, 0, 78, 0
2, 53667, Note_on_c, 0, 81, 0
2, 53671, Note_on_c, 0, 90, 107
2, 53673, Note_on_c, 0, 78, 104
2, 53675, Note_on_c, 0, 66, 0
2, 53675, Note_on_c, 0, 85, 0
2, 53676, Note_on_c, 0, 69, 100
2, 53678, Note_on_c, 0, 81, 98
2, 53679, Note_on_c, 0, 61, 79
2, 53679, Note_on_c, 0, 66, 96
2, 53680, Note_on_c, 0, 85, 93
2, 53721, Note_on_c, 0, 85, 0
2, 53732, Note_on_c, 0, 85, 94
2, 53798, Note_on_c, 0, 30, 0
2, 53798, Note_on_c, 0, 42, 0
2, 53798, Note_on_c, 0, 78, 0
2, 53802, Note_on_c, 0, 78, 99
2, 53802, Note_on_c, 0, 30, 68
2, 53803, Note_on_c, 0, 42, 77
2, 53867, Note_on_c, 0, 81, 0
2, 53878, Note_on_c, 0, 81, 87
2, 53921, Note_on_c, 0, 85, 0
2, 53925, Note_on_c, 0, 85, 88
2, 53990, Note_on_c, 0, 90, 0
2, 53995, Note_on_c, 0, 90, 92
2, 54021, Note_on_c, 0, 61, 0
2, 54027, Note_on_c, 0, 61, 67
2, 54067, Note_on_c, 0, 90, 0
2, 54072, Note_on_c, 0, 93, 108
2, 54074, Note_on_c, 0, 73, 0
2, 54074, Note_on_c, 0, 81, 0
2, 54074, Note_on_c, 0, 85, 0
2, 54077, Note_on_c, 0, 90, 97
2, 54078, Note_on_c, 0, 73, 103
2, 54079, Note_on_c, 0, 85, 101
2, 54079, Note_on_c, 0, 81, 101
2, 54205, Note_on_c, 0, 90, 0
2, 54205, Note_on_c, 0, 93, 0
2, 54211, Note_on_c, 0, 90, 69
2, 54214, Note_on_c, 0, 93, 72
2, 54266, Note_on_c, 0, 97, 89
2, 54338, Note_on_c, 0, 93, 0
2, 54338, Note_on_c, 0, 30, 0
2, 54339, Note_on_c, 0, 81, 0
2, 54340, Note_on_c, 0, 61, 0
2, 54340, Note_on_c, 0, 42, 0
2, 54340, Note_on_c, 0, 73, 0
2, 54340, Note_on_c, 0, 97, 0
2, 54340, Note_on_c, 0, 54, 0
2, 54340, Note_on_c, 0, 85, 0
2, 54341, Control_c, 0, 64, 0
2, 54345, Note_on_c, 0, 95, 108
2, 54351, Note_on_c, 0, 83, 102
2, 54351, Note_on_c, 0, 69, 0
2, 54351, Note_on_c, 0, 90, 0
2, 54355, Note_on_c, 0, 69, 79
2, 54356, Note_on_c, 0, 74, 104
2, 54358, Note_on_c, 0, 86, 101
2, 54360, Note_on_c, 0, 90, 96
2, 54363, Note_on_c, 0, 98, 93
2, 54374, Control_c, 0, 64, 127
2, 54433, Note_on_c, 0, 93, 87
2, 54489, Note_on_c, 0, 90, 0
2, 54491, Note_on_c, 0, 102, 86
2, 54494, Note_on_c, 0, 90, 78
2, 54551, Note_on_c, 0, 86, 0
2, 54559, Note_on_c, 0, 86, 78
2, 54627, Note_on_c, 0, 93, 0
2, 54638, Note_on_c, 0, 93, 107
2, 54644, Note_on_c, 0, 81, 86
2, 54658, Note_on_c, 0, 90, 0
2, 54668, Note_on_c, 0, 90, 62
2, 54741, Note_on_c, 0, 62, 73
2, 54773, Note_on_c, 0, 66, 0
2, 54773, Note_on_c, 0, 69, 0
2, 54779, Note_on_c, 0, 69, 81
2, 54781, Note_on_c, 0, 74, 0
2, 54781, Note_on_c, 0, 80, 110
2, 54782, Note_on_c, 0, 66, 78
2, 54782, Note_on_c, 0, 92, 112
2, 54790, Note_on_c, 0, 74, 91
2, 54919, Note_on_c, 0, 86, 0
2, 54919, Note_on_c, 0, 98, 0
2, 54924, Note_on_c, 0, 86, 94
2, 54925, Note_on_c, 0, 98, 79
2, 54946, Note_on_c, 0, 88, 40
2, 55050, Note_on_c, 0, 90, 0
2, 55057, Note_on_c, 0, 78, 0
2, 55061, Note_on_c, 0, 90, 103
2, 55063, Note_on_c, 0, 78, 99
2, 55087, Note_on_c, 0, 38, 58
2, 55111, Note_on_c, 0, 74, 0
2, 55121, Note_on_c, 0, 74, 75
2, 55188, Note_on_c, 0, 66, 0
2, 55188, Note_on_c, 0, 69, 0
2, 55196, Note_on_c, 0, 62, 0
2, 55196, Note_on_c, 0, 78, 0
2, 55196, Note_on_c, 0, 81, 0
2, 55196, Note_on_c, 0, 90, 0
2, 55197, Note_on_c, 0, 69, 91
2, 55199, Note_on_c, 0, 66, 93
2, 55200, Note_on_c, 0, 62, 80
2, 55202, Note_on_c, 0, 90, 106
2, 55202, Note_on_c, 0, 81, 93
2, 55202, Note_on_c, 0, 78, 101
2, 55272, Note_on_c, 0, 78, 0
2, 55277, Note_on_c, 0, 78, 80
2, 55334, Note_on_c, 0, 88, 0
2, 55341, Note_on_c, 0, 88, 91
2, 55343, Note_on_c, 0, 76, 94
2, 55357, Note_on_c, 0, 38, 0
2, 55365, Note_on_c, 0, 38, 62
2, 55466, Note_on_c, 0, 92, 0
2, 55467, Note_on_c, 0, 80, 0
2, 55468, Control_c, 0, 64, 0
2, 55468, Note_on_c, 0, 38, 0
2, 55470, Note_on_c, 0, 95, 0
2, 55471, Note_on_c, 0, 88, 0
2, 55471, Note_on_c, 0, 57, 87
2, 55472, Note_on_c, 0, 69, 0
2, 55473, Note_on_c, 0, 62, 0
2, 55473, Note_on_c, 0, 81, 0
2, 55475, Note_on_c, 0, 76, 0
2, 55475, Note_on_c, 0, 66, 0
2, 55475, Note_on_c, 0, 83, 0
2, 55480, Note_on_c, 0, 78, 0
2, 55480, Note_on_c, 0, 98, 0
2, 55483, Note_on_c, 0, 69, 100
2, 55484, Note_on_c, 0, 61, 85
2, 55485, Note_on_c, 0, 64, 82
2, 55488, Note_on_c, 0, 74, 0
2, 55488, Note_on_c, 0, 86, 0
2, 55488, Note_on_c, 0, 90, 0
2, 55491, Note_on_c, 0, 78, 102
2, 55491, Note_on_c, 0, 90, 104
2, 55511, Note_on_c, 0, 102, 0
2, 55518, Control_c, 0, 64, 127
2, 55603, Note_on_c, 0, 93, 0
2, 55626, Note_on_c, 0, 88, 104
2, 55628, Note_on_c, 0, 76, 105
2, 55628, Note_on_c, 0, 73, 91
2, 55756, Note_on_c, 0, 73, 0
2, 55767, Note_on_c, 0, 73, 93
2, 55848, Note_on_c, 0, 76, 0
2, 55860, Note_on_c, 0, 76, 76
2, 55924, Note_on_c, 0, 81, 78
2, 56006, Note_on_c, 0, 85, 82
2, 56056, Note_on_c, 0, 76, 0
2, 56060, Note_on_c, 0, 33, 78
2, 56061, Note_on_c, 0, 76, 84
2, 56117, Note_on_c, 0, 81, 0
2, 56123, Note_on_c, 0, 81, 93
2, 56179, Note_on_c, 0, 85, 0
2, 56183, Note_on_c, 0, 85, 88
2, 56194, Note_on_c, 0, 33, 0
2, 56199, Note_on_c, 0, 33, 71
2, 56206, Note_on_c, 0, 45, 98
2, 56247, Note_on_c, 0, 69, 0
2, 56248, Note_on_c, 0, 88, 0
2, 56252, Note_on_c, 0, 88, 85
2, 56309, Note_on_c, 0, 85, 0
2, 56316, Note_on_c, 0, 85, 102
2, 56329, Note_on_c, 0, 47, 95
2, 56341, Note_on_c, 0, 83, 77
2, 56342, Note_on_c, 0, 59, 95
2, 56386, Note_on_c, 0, 88, 0
2, 56395, Note_on_c, 0, 88, 86
2, 56478, Note_on_c, 0, 93, 85
2, 56530, Note_on_c, 0, 97, 98
2, 56580, Control_c, 0, 64, 0
2, 56597, Note_on_c, 0, 45, 0
2, 56597, Note_on_c, 0, 33, 0
2, 56597, Note_on_c, 0, 93, 0
2, 56597, Note_on_c, 0, 85, 0
2, 56597, Note_on_c, 0, 97, 0
2, 56597, Note_on_c, 0, 90, 0
2, 56598, Note_on_c, 0, 81, 0
2, 56598, Note_on_c, 0, 47, 0
2, 56598, Note_on_c, 0, 57, 0
2, 56598, Note_on_c, 0, 88, 0
2, 56598, Note_on_c, 0, 64, 0
2, 56598, Note_on_c, 0, 59, 0
2, 56599, Note_on_c, 0, 76, 0
2, 56599, Note_on_c, 0, 78, 0
2, 56601, Note_on_c, 0, 61, 0
2, 56607, Note_on_c, 0, 49, 111
2, 56609, Note_on_c, 0, 73, 0
2, 56609, Note_on_c, 0, 83, 0
2, 56611, Note_on_c, 0, 37, 100
2, 56612, Note_on_c, 0, 61, 104
2, 56612, Note_on_c, 0, 25, 92
2, 56615, Note_on_c, 0, 83, 87
2, 56616, Note_on_c, 0, 25, 0
2, 56623, Note_on_c, 0, 82, 75
2, 56640, Control_c, 0, 64, 127
2, 56862, Note_on_c, 0, 82, 0
2, 56893, Note_on_c, 0, 37, 0
2, 56893, Note_on_c, 0, 49, 0
2, 56893, Note_on_c, 0, 61, 0
2, 56902, Note_on_c, 0, 49, 90
2, 56904, Note_on_c, 0, 37, 88
2, 56904, Note_on_c, 0, 61, 81
2, 56964, Note_on_c, 0, 37, 0
2, 56965, Note_on_c, 0, 49, 0
2, 56969, Control_c, 0, 64, 0
2, 56970, Note_on_c, 0, 83, 0
2, 56985, Note_on_c, 0, 61, 0
2, 57028, Note_on_c, 0, 50, 110
2, 57029, Note_on_c, 0, 38, 104
2, 57029, Note_on_c, 0, 62, 103
2, 57031, Note_on_c, 0, 69, 99
2, 57034, Note_on_c, 0, 74, 95
2, 57039, Note_on_c, 0, 74, 0
2, 57047, Control_c, 0, 64, 127
2, 57254, Control_c, 0, 64, 0
2, 57256, Note_on_c, 0, 38, 0
2, 57257, Note_on_c, 0, 62, 0
2, 57269, Note_on_c, 0, 50, 0
2, 57312, Note_on_c, 0, 47, 101
2, 57313, Note_on_c, 0, 35, 91
2, 57314, Note_on_c, 0, 71, 97
2, 57318, Note_on_c, 0, 59, 101
2, 57319, Note_on_c, 0, 66, 90
2, 57331, Control_c, 0, 64, 127
2, 57340, Note_on_c, 0, 68, 54
2, 57357, Note_on_c, 0, 37, 38
2, 57553, Note_on_c, 0, 37, 0
2, 57563, Note_on_c, 0, 49, 109
2, 57564, Note_on_c, 0, 37, 96
2, 57564, Note_on_c, 0, 61, 106
2, 57688, Control_c, 0, 64, 0
2, 57689, Note_on_c, 0, 85, 102
2, 57692, Note_on_c, 0, 59, 0
2, 57693, Note_on_c, 0, 73, 96
2, 57693, Note_on_c, 0, 35, 0
2, 57694, Note_on_c, 0, 37, 0
2, 57694, Note_on_c, 0, 71, 0
2, 57694, Note_on_c, 0, 68, 0
2, 57694, Note_on_c, 0, 66, 0
2, 57694, Note_on_c, 0, 78, 90
2, 57694, Note_on_c, 0, 47, 0
2, 57695, Note_on_c, 0, 81, 86
2, 57695, Note_on_c, 0, 49, 0
2, 57696, Note_on_c, 0, 61, 0
2, 57699, Note_on_c, 0, 69, 0
2, 57709, Note_on_c, 0, 50, 106
2, 57711, Note_on_c, 0, 38, 102
2, 57753, Control_c, 0, 64, 127
2, 57868, Note_on_c, 0, 50, 0
2, 57872, Note_on_c, 0, 69, 86
2, 57874, Note_on_c, 0, 50, 89
2, 57875, Note_on_c, 0, 62, 82
2, 57876, Note_on_c, 0, 74, 80
2, 57996, Note_on_c, 0, 66, 62
2, 57999, Note_on_c, 0, 50, 0
2, 58007, Note_on_c, 0, 74, 0
2, 58009, Note_on_c, 0, 50, 79
2, 58016, Note_on_c, 0, 74, 75
2, 58114, Note_on_c, 0, 38, 0
2, 58114, Note_on_c, 0, 50, 0
2, 58119, Note_on_c, 0, 38, 103
2, 58120, Note_on_c, 0, 50, 105
2, 58122, Note_on_c, 0, 78, 0
2, 58122, Note_on_c, 0, 81, 0
2, 58122, Note_on_c, 0, 85, 0
2, 58132, Note_on_c, 0, 78, 99
2, 58133, Note_on_c, 0, 90, 97
2, 58133, Note_on_c, 0, 81, 95
2, 58133, Note_on_c, 0, 85, 95
2, 58134, Note_on_c, 0, 86, 85
2, 58245, Note_on_c, 0, 62, 0
2, 58245, Note_on_c, 0, 66, 0
2, 58249, Note_on_c, 0, 66, 89
2, 58253, Note_on_c, 0, 62, 75
2, 58254, Note_on_c, 0, 54, 80
2, 58343, Note_on_c, 0, 57, 54
2, 58398, Note_on_c, 0, 66, 0
2, 58398, Note_on_c, 0, 78, 0
2, 58405, Note_on_c, 0, 66, 89
2, 58406, Note_on_c, 0, 50, 0
2, 58406, Note_on_c, 0, 74, 0
2, 58408, Note_on_c, 0, 78, 84
2, 58410, Note_on_c, 0, 74, 73
2, 58410, Note_on_c, 0, 50, 82
2, 58421, Note_on_c, 0, 62, 0
2, 58429, Note_on_c, 0, 62, 58
2, 58521, Note_on_c, 0, 81, 0
2, 58527, Note_on_c, 0, 93, 108
2, 58529, Note_on_c, 0, 50, 0
2, 58530, Note_on_c, 0, 81, 103
2, 58536, Note_on_c, 0, 38, 0
2, 58536, Note_on_c, 0, 90, 0
2, 58539, Note_on_c, 0, 50, 104
2, 58541, Note_on_c, 0, 38, 102
2, 58541, Note_on_c, 0, 90, 76
2, 58555, Note_on_c, 0, 42, 66
2, 58636, Note_on_c, 0, 66, 0
2, 58645, Note_on_c, 0, 66, 77
2, 58659, Note_on_c, 0, 69, 0
2, 58659, Note_on_c, 0, 81, 0
2, 58663, Note_on_c, 0, 69, 90
2, 58664, Note_on_c, 0, 82, 78
2, 58666, Note_on_c, 0, 81, 86
2, 58786, Control_c, 0, 64, 0
2, 58790, Note_on_c, 0, 93, 0
2, 58790, Note_on_c, 0, 86, 0
2, 58791, Note_on_c, 0, 81, 0
2, 58792, Note_on_c, 0, 69, 0
2, 58792, Note_on_c, 0, 90, 0
2, 58792, Note_on_c, 0, 66, 0
2, 58792, Note_on_c, 0, 54, 0
2, 58793, Note_on_c, 0, 42, 0
2, 58793, Note_on_c, 0, 50, 0
2, 58793, Note_on_c, 0, 74, 0
2, 58793, Note_on_c, 0, 73, 0
2, 58793, Note_on_c, 0, 85, 0
2, 58798, Note_on_c, 0, 78, 0
2, 58805, Note_on_c, 0, 57, 0
2, 58805, Note_on_c, 0, 62, 0
2, 58805, Note_on_c, 0, 82, 0
2, 58809, Note_on_c, 0, 92, 110
2, 58810, Note_on_c, 0, 71, 104
2, 58810, Note_on_c, 0, 52, 110
2, 58813, Note_on_c, 0, 80, 109
2, 58814, Note_on_c, 0, 44, 80
2, 58814, Note_on_c, 0, 83, 110
2, 58815, Note_on_c, 0, 40, 94
2, 58817, Note_on_c, 0, 88, 95
2, 58817, Note_on_c, 0, 47, 86
2, 58820, Note_on_c, 0, 50, 96
2, 58832, Note_on_c, 0, 90, 67
2, 58836, Note_on_c, 0, 90, 0
2, 58844, Control_c, 0, 64, 127
2, 58905, Note_on_c, 0, 71, 0
2, 59074, Note_on_c, 0, 88, 0
2, 59089, Note_on_c, 0, 38, 0
2, 59091, Control_c, 0, 64, 0
2, 59094, Note_on_c, 0, 40, 0
2, 59095, Note_on_c, 0, 52, 0
2, 59096, Note_on_c, 0, 80, 0
2, 59096, Note_on_c, 0, 83, 0
2, 59097, Note_on_c, 0, 47, 0
2, 59097, Note_on_c, 0, 50, 0
2, 59105, Note_on_c, 0, 44, 0
2, 59189, Note_on_c, 0, 92, 0
2, 59245, Note_on_c, 0, 93, 110
2, 59247, Note_on_c, 0, 81, 100
2, 59297, Control_c, 0, 64, 127
2, 59381, Note_on_c, 0, 81, 0
2, 59381, Note_on_c, 0, 93, 0
2, 59385, Note_on_c, 0, 93, 104
2, 59386, Note_on_c, 0, 81, 103
2, 59525, Note_on_c, 0, 92, 105
2, 59529, Note_on_c, 0, 80, 84
2, 59662, Note_on_c, 0, 78, 104
2, 59665, Note_on_c, 0, 90, 93
2, 59788, Note_on_c, 0, 80, 0
2, 59788, Note_on_c, 0, 92, 0
2, 59795, Note_on_c, 0, 80, 105
2, 59795, Note_on_c, 0, 92, 106
2, 59811, Note_on_c, 0, 90, 0
2, 59821, Note_on_c, 0, 90, 55
2, 59884, Note_on_c, 0, 93, 0
2, 59885, Note_on_c, 0, 81, 0
2, 59885, Note_on_c, 0, 90, 0
2, 59885, Note_on_c, 0, 78, 0
2, 59885, Note_on_c, 0, 80, 0
2, 59887, Control_c, 0, 64, 0
2, 59912, Note_on_c, 0, 30, 98
2, 59923, Note_on_c, 0, 42, 88
2, 59927, Note_on_c, 0, 92, 0
2, 59929, Note_on_c, 0, 95, 96
2, 59931, Note_on_c, 0, 32, 63
2, 59933, Note_on_c, 0, 92, 106
2, 59937, Note_on_c, 0, 83, 93
2, 59938, Note_on_c, 0, 86, 90
2, 59938, Note_on_c, 0, 80, 93
2, 59950, Control_c, 0, 64, 127
2, 60011, Note_on_c, 0, 32, 0
2, 60094, Note_on_c, 0, 49, 73
2, 60195, Note_on_c, 0, 30, 0
2, 60206, Note_on_c, 0, 30, 87
2, 60341, Note_on_c, 0, 49, 0
2, 60350, Note_on_c, 0, 90, 98
2, 60351, Note_on_c, 0, 78, 92
2, 60353, Note_on_c, 0, 49, 86
2, 60354, Note_on_c, 0, 37, 73
2, 60364, Note_on_c, 0, 37, 0
2, 60479, Note_on_c, 0, 80, 0
2, 60479, Note_on_c, 0, 86, 0
2, 60480, Note_on_c, 0, 42, 0
2, 60480, Note_on_c, 0, 95, 0
2, 60487, Note_on_c, 0, 30, 0
2, 60487, Note_on_c, 0, 78, 0
2, 60487, Note_on_c, 0, 90, 0
2, 60491, Note_on_c, 0, 42, 98
2, 60491, Note_on_c, 0, 30, 98
2, 60492, Note_on_c, 0, 78, 102
2, 60493, Note_on_c, 0, 85, 102
2, 60496, Note_on_c, 0, 81, 94
2, 60497, Note_on_c, 0, 90, 101
2, 60579, Note_on_c, 0, 83, 0
2, 60641, Note_on_c, 0, 42, 0
2, 60641, Note_on_c, 0, 49, 0
2, 60646, Note_on_c, 0, 49, 78
2, 60648, Note_on_c, 0, 42, 86
2, 60771, Note_on_c, 0, 30, 0
2, 60775, Note_on_c, 0, 30, 93
2, 60887, Note_on_c, 0, 30, 0
2, 60887, Note_on_c, 0, 42, 0
2, 60897, Note_on_c, 0, 30, 79
2, 60897, Note_on_c, 0, 42, 80
2, 60994, Note_on_c, 0, 69, 50
2, 61002, Note_on_c, 0, 69, 0
2, 61032, Note_on_c, 0, 92, 0
2, 61037, Note_on_c, 0, 49, 0
2, 61037, Note_on_c, 0, 85, 0
2, 61039, Note_on_c, 0, 90, 0
2, 61040, Note_on_c, 0, 30, 0
2, 61040, Control_c, 0, 64, 0
2, 61045, Note_on_c, 0, 83, 96
2, 61048, Note_on_c, 0, 42, 0
2, 61049, Note_on_c, 0, 74, 91
2, 61050, Note_on_c, 0, 30, 92
2, 61052, Note_on_c, 0, 42, 85
2, 61054, Note_on_c, 0, 71, 87
2, 61125, Control_c, 0, 64, 127
2, 61178, Note_on_c, 0, 42, 0
2, 61178, Note_on_c, 0, 81, 0
2, 61182, Note_on_c, 0, 42, 74
2, 61183, Note_on_c, 0, 81, 91
2, 61183, Note_on_c, 0, 69, 81
2, 61184, Note_on_c, 0, 73, 78
2, 61194, Note_on_c, 0, 73, 0
2, 61324, Note_on_c, 0, 30, 0
2, 61325, Note_on_c, 0, 61, 83
2, 61330, Note_on_c, 0, 30, 90
2, 61455, Note_on_c, 0, 42, 0
2, 61460, Note_on_c, 0, 76, 87
2, 61461, Note_on_c, 0, 64, 81
2, 61463, Note_on_c, 0, 69, 0
2, 61465, Note_on_c, 0, 42, 77
2, 61467, Note_on_c, 0, 69, 72
2, 61468, Note_on_c, 0, 73, 70
2, 61601, Note_on_c, 0, 30, 0
2, 61601, Note_on_c, 0, 61, 0
2, 61605, Note_on_c, 0, 61, 90
2, 61605, Note_on_c, 0, 30, 99
2, 61608, Note_on_c, 0, 69, 0
2, 61608, Note_on_c, 0, 74, 0
2, 61613, Note_on_c, 0, 69, 79
2, 61616, Note_on_c, 0, 71, 0
2, 61619, Note_on_c, 0, 74, 83
2, 61621, Note_on_c, 0, 71, 84
2, 61731, Note_on_c, 0, 42, 0
2, 61731, Note_on_c, 0, 69, 0
2, 61731, Note_on_c, 0, 81, 0
2, 61735, Note_on_c, 0, 42, 79
2, 61736, Note_on_c, 0, 54, 75
2, 61738, Note_on_c, 0, 69, 83
2, 61741, Note_on_c, 0, 81, 95
2, 61870, Note_on_c, 0, 73, 0
2, 61877, Note_on_c, 0, 30, 0
2, 61877, Note_on_c, 0, 42, 0
2, 61877, Note_on_c, 0, 61, 0
2, 61877, Note_on_c, 0, 69, 0
2, 61880, Note_on_c, 0, 73, 79
2, 61882, Note_on_c, 0, 61, 85
2, 61884, Note_on_c, 0, 42, 86
2, 61886, Note_on_c, 0, 30, 94
2, 61887, Note_on_c, 0, 69, 76
2, 61890, Note_on_c, 0, 68, 79
2, 61900, Note_on_c, 0, 68, 0
2, 62008, Note_on_c, 0, 42, 0
2, 62016, Note_on_c, 0, 64, 0
2, 62016, Note_on_c, 0, 69, 0
2, 62016, Note_on_c, 0, 76, 0
2, 62019, Note_on_c, 0, 42, 82
2, 62020, Note_on_c, 0, 49, 76
2, 62021, Note_on_c, 0, 76, 88
2, 62021, Note_on_c, 0, 64, 74
2, 62024, Note_on_c, 0, 69, 76
2, 62097, Control_c, 0, 64, 0
2, 62098, Note_on_c, 0, 71, 0
2, 62098, Note_on_c, 0, 49, 0
2, 62098, Note_on_c, 0, 83, 0
2, 62098, Note_on_c, 0, 81, 0
2, 62098, Note_on_c, 0, 69, 0
2, 62098, Note_on_c, 0, 54, 0
2, 62098, Note_on_c, 0, 78, 0
2, 62099, Note_on_c, 0, 42, 0
2, 62099, Note_on_c, 0, 76, 0
2, 62100, Note_on_c, 0, 64, 0
2, 62108, Note_on_c, 0, 74, 0
2, 62123, Note_on_c, 0, 30, 0
2, 62138, Note_on_c, 0, 61, 0
2, 62154, Note_on_c, 0, 73, 0
2, 62170, Note_on_c, 0, 78, 99
2, 62172, Note_on_c, 0, 30, 105
2, 62172, Note_on_c, 0, 42, 107
2, 62175, Note_on_c, 0, 69, 82
2, 62184, Control_c, 0, 64, 127
2, 62300, Note_on_c, 0, 69, 0
2, 62307, Note_on_c, 0, 73, 77
2, 62309, Note_on_c, 0, 49, 76
2, 62309, Note_on_c, 0, 81, 85
2, 62310, Note_on_c, 0, 69, 68
2, 62438, Note_on_c, 0, 30, 0
2, 62446, Note_on_c, 0, 42, 0
2, 62446, Note_on_c, 0, 69, 0
2, 62448, Note_on_c, 0, 80, 86
2, 62449, Note_on_c, 0, 30, 100
2, 62450, Note_on_c, 0, 42, 90
2, 62454, Note_on_c, 0, 69, 77
2, 62576, Note_on_c, 0, 49, 0
2, 62576, Note_on_c, 0, 69, 0
2, 62576, Note_on_c, 0, 81, 0
2, 62580, Note_on_c, 0, 81, 92
2, 62582, Note_on_c, 0, 49, 70
2, 62582, Note_on_c, 0, 69, 66
2, 62714, Note_on_c, 0, 30, 0
2, 62722, Note_on_c, 0, 69, 0
2, 62724, Note_on_c, 0, 61, 92
2, 62726, Note_on_c, 0, 30, 98
2, 62728, Note_on_c, 0, 69, 75
2, 62734, Note_on_c, 0, 71, 79
2, 62745, Note_on_c, 0, 71, 0
2, 62868, Note_on_c, 0, 49, 0
2, 62868, Note_on_c, 0, 69, 0
2, 62868, Note_on_c, 0, 81, 0
2, 62872, Note_on_c, 0, 49, 58
2, 62873, Note_on_c, 0, 81, 88
2, 62873, Note_on_c, 0, 69, 70
2, 62991, Note_on_c, 0, 30, 0
2, 62991, Note_on_c, 0, 49, 0
2, 62998, Note_on_c, 0, 49, 89
2, 63001, Note_on_c, 0, 30, 99
2, 63147, Note_on_c, 0, 76, 88
2, 63149, Note_on_c, 0, 64, 83
2, 63149, Note_on_c, 0, 49, 0
2, 63152, Note_on_c, 0, 68, 73
2, 63260, Note_on_c, 0, 68, 0
2, 63260, Control_c, 0, 64, 0
2, 63264, Note_on_c, 0, 42, 0
2, 63265, Note_on_c, 0, 73, 0
2, 63265, Note_on_c, 0, 80, 0
2, 63266, Note_on_c, 0, 81, 0
2, 63267, Note_on_c, 0, 78, 0
2, 63267, Note_on_c, 0, 69, 0
2, 63269, Note_on_c, 0, 64, 0
2, 63273, Note_on_c, 0, 62, 103
2, 63277, Note_on_c, 0, 69, 102
2, 63278, Note_on_c, 0, 74, 106
2, 63278, Note_on_c, 0, 38, 98
2, 63279, Note_on_c, 0, 26, 101
2, 63279, Note_on_c, 0, 66, 94
2, 63283, Note_on_c, 0, 61, 0
2, 63321, Control_c, 0, 64, 127
2, 63444, Note_on_c, 0, 69, 0
2, 63447, Note_on_c, 0, 81, 96
2, 63451, Note_on_c, 0, 69, 75
2, 63559, Note_on_c, 0, 81, 0
2, 63560, Note_on_c, 0, 86, 103
2, 63567, Note_on_c, 0, 69, 0
2, 63567, Note_on_c, 0, 81, 86
2, 63572, Note_on_c, 0, 69, 85
2, 63575, Note_on_c, 0, 38, 0
2, 63578, Note_on_c, 0, 50, 89
2, 63579, Note_on_c, 0, 38, 88
2, 63580, Note_on_c, 0, 80, 76
2, 63628, Note_on_c, 0, 81, 0
2, 63633, Note_on_c, 0, 81, 84
2, 63713, Note_on_c, 0, 50, 0
2, 63713, Note_on_c, 0, 76, 0
2, 63722, Note_on_c, 0, 76, 97
2, 63723, Note_on_c, 0, 50, 78
2, 63727, Note_on_c, 0, 64, 82
2, 63731, Note_on_c, 0, 52, 79
2, 63833, Control_c, 0, 64, 0
2, 63836, Note_on_c, 0, 30, 0
2, 63840, Note_on_c, 0, 38, 0
2, 63841, Note_on_c, 0, 62, 0
2, 63841, Note_on_c, 0, 69, 0
2, 63841, Note_on_c, 0, 52, 0
2, 63841, Note_on_c, 0, 50, 0
2, 63841, Note_on_c, 0, 66, 0
2, 63841, Note_on_c, 0, 81, 0
2, 63842, Note_on_c, 0, 26, 0
2, 63842, Note_on_c, 0, 64, 0
2, 63843, Note_on_c, 0, 86, 0
2, 63843, Note_on_c, 0, 74, 0
2, 63843, Note_on_c, 0, 76, 0
2, 63850, Note_on_c, 0, 28, 102
2, 63850, Note_on_c, 0, 40, 93
2, 63852, Note_on_c, 0, 74, 96
2, 63852, Note_on_c, 0, 76, 98
2, 63853, Note_on_c, 0, 71, 99
2, 63905, Control_c, 0, 64, 127
2, 63997, Note_on_c, 0, 81, 95
2, 63999, Note_on_c, 0, 52, 76
2, 64001, Note_on_c, 0, 69, 57
2, 64128, Note_on_c, 0, 52, 0
2, 64128, Note_on_c, 0, 76, 0
2, 64128, Note_on_c, 0, 80, 0
2, 64131, Note_on_c, 0, 88, 103
2, 64132, Note_on_c, 0, 52, 85
2, 64135, Note_on_c, 0, 74, 0
2, 64137, Note_on_c, 0, 76, 95
2, 64139, Note_on_c, 0, 80, 94
2, 64140, Note_on_c, 0, 56, 87
2, 64146, Note_on_c, 0, 74, 82
2, 64179, Note_on_c, 0, 83, 64
2, 64258, Note_on_c, 0, 52, 0
2, 64258, Note_on_c, 0, 76, 0
2, 64266, Note_on_c, 0, 76, 99
2, 64267, Note_on_c, 0, 52, 78
2, 64273, Note_on_c, 0, 56, 0
2, 64280, Note_on_c, 0, 56, 65
2, 64366, Control_c, 0, 64, 0
2, 64367, Note_on_c, 0, 40, 0
2, 64368, Note_on_c, 0, 52, 0
2, 64369, Note_on_c, 0, 71, 0
2, 64369, Note_on_c, 0, 83, 0
2, 64369, Note_on_c, 0, 81, 0
2, 64369, Note_on_c, 0, 88, 0
2, 64370, Note_on_c, 0, 56, 0
2, 64370, Note_on_c, 0, 80, 0
2, 64370, Note_on_c, 0, 76, 0
2, 64373, Note_on_c, 0, 28, 0
2, 64373, Note_on_c, 0, 69, 0
2, 64381, Note_on_c, 0, 74, 0
2, 64411, Note_on_c, 0, 81, 106
2, 64415, Note_on_c, 0, 69, 97
2, 64416, Note_on_c, 0, 33, 93
2, 64417, Note_on_c, 0, 45, 91
2, 64420, Note_on_c, 0, 72, 97
2, 64450, Control_c, 0, 64, 127
2, 64546, Note_on_c, 0, 84, 99
2, 64547, Note_on_c, 0, 57, 78
2, 64553, Note_on_c, 0, 76, 86
2, 64688, Note_on_c, 0, 33, 0
2, 64688, Note_on_c, 0, 45, 0
2, 64688, Note_on_c, 0, 76, 0
2, 64691, Note_on_c, 0, 95, 92
2, 64692, Note_on_c, 0, 93, 101
2, 64692, Note_on_c, 0, 83, 96
2, 64693, Note_on_c, 0, 74, 98
2, 64693, Note_on_c, 0, 45, 92
2, 64696, Note_on_c, 0, 64, 87
2, 64697, Note_on_c, 0, 76, 86
2, 64699, Note_on_c, 0, 33, 93
2, 64704, Note_on_c, 0, 64, 0
2, 64826, Note_on_c, 0, 57, 0
2, 64826, Note_on_c, 0, 72, 0
2, 64826, Note_on_c, 0, 76, 0
2, 64826, Note_on_c, 0, 84, 0
2, 64834, Note_on_c, 0, 84, 91
2, 64835, Note_on_c, 0, 60, 79
2, 64837, Note_on_c, 0, 72, 90
2, 64837, Note_on_c, 0, 57, 73
2, 64838, Note_on_c, 0, 76, 81
2, 64903, Note_on_c, 0, 95, 0
2, 64965, Note_on_c, 0, 33, 0
2, 64965, Note_on_c, 0, 45, 0
2, 64965, Note_on_c, 0, 74, 0
2, 64965, Note_on_c, 0, 93, 0
2, 64970, Note_on_c, 0, 86, 102
2, 64971, Note_on_c, 0, 74, 94
2, 64972, Control_c, 0, 64, 0
2, 64973, Note_on_c, 0, 45, 92
2, 64976, Note_on_c, 0, 33, 96
2, 64976, Note_on_c, 0, 77, 85
2, 64980, Note_on_c, 0, 76, 0
2, 64989, Note_on_c, 0, 76, 71
2, 64995, Control_c, 0, 64, 127
2, 65103, Note_on_c, 0, 57, 0
2, 65103, Note_on_c, 0, 72, 0
2, 65103, Note_on_c, 0, 84, 0
2, 65111, Note_on_c, 0, 76, 0
2, 65112, Note_on_c, 0, 84, 92
2, 65113, Note_on_c, 0, 57, 84
2, 65113, Note_on_c, 0, 72, 92
2, 65115, Note_on_c, 0, 76, 88
2, 65241, Note_on_c, 0, 45, 0
2, 65241, Note_on_c, 0, 74, 0
2, 65241, Note_on_c, 0, 86, 0
2, 65246, Note_on_c, 0, 74, 97
2, 65249, Note_on_c, 0, 33, 0
2, 65249, Note_on_c, 0, 81, 0
2, 65251, Note_on_c, 0, 93, 101
2, 65251, Note_on_c, 0, 86, 88
2, 65252, Note_on_c, 0, 45, 102
2, 65253, Note_on_c, 0, 33, 93
2, 65255, Note_on_c, 0, 81, 88
2, 65267, Control_c, 0, 64, 0
2, 65268, Note_on_c, 0, 69, 0
2, 65269, Note_on_c, 0, 83, 0
2, 65269, Note_on_c, 0, 72, 0
2, 65272, Note_on_c, 0, 76, 0
2, 65273, Note_on_c, 0, 84, 0
2, 65275, Note_on_c, 0, 60, 0
2, 65276, Note_on_c, 0, 77, 0
2, 65277, Note_on_c, 0, 57, 0
2, 65291, Note_on_c, 0, 93, 0
2, 65292, Note_on_c, 0, 45, 0
2, 65310, Note_on_c, 0, 74, 0
2, 65310, Note_on_c, 0, 81, 0
2, 65318, Note_on_c, 0, 86, 0
2, 65326, Note_on_c, 0, 33, 0
2, 65374, Note_on_c, 0, 84, 78
2, 65384, Note_on_c, 0, 43, 79
2, 65391, Note_on_c, 0, 69, 74
2, 65391, Note_on_c, 0, 79, 90
2, 65392, Note_on_c, 0, 67, 76
2, 65396, Note_on_c, 0, 57, 73
2, 65398, Note_on_c, 0, 45, 72
2, 65402, Note_on_c, 0, 69, 0
2, 65428, Note_on_c, 0, 43, 0
2, 65429, Note_on_c, 0, 84, 0
2, 65441, Note_on_c, 0, 45, 0
2, 65443, Note_on_c, 0, 79, 0
2, 65456, Note_on_c, 0, 57, 0
2, 65456, Note_on_c, 0, 67, 0
2, 65525, Control_c, 0, 64, 127
2, 65532, Note_on_c, 0, 86, 104
2, 65536, Note_on_c, 0, 45, 82
2, 65536, Note_on_c, 0, 74, 95
2, 65536, Note_on_c, 0, 33, 92
2, 65537, Note_on_c, 0, 69, 87
2, 65537, Note_on_c, 0, 81, 89
2, 65539, Note_on_c, 0, 64, 80
2, 65539, Note_on_c, 0, 76, 84
2, 65540, Note_on_c, 0, 77, 81
2, 65664, Note_on_c, 0, 45, 0
2, 65664, Note_on_c, 0, 76, 0
2, 65667, Note_on_c, 0, 84, 99
2, 65668, Note_on_c, 0, 57, 82
2, 65669, Note_on_c, 0, 45, 85
2, 65669, Note_on_c, 0, 72, 94
2, 65674, Note_on_c, 0, 76, 83
2, 65802, Note_on_c, 0, 45, 0
2, 65807, Note_on_c, 0, 95, 89
2, 65809, Note_on_c, 0, 33, 0
2, 65809, Note_on_c, 0, 64, 0
2, 65811, Note_on_c, 0, 83, 88
2, 65812, Note_on_c, 0, 93, 101
2, 65812, Note_on_c, 0, 45, 86
2, 65814, Note_on_c, 0, 71, 90
2, 65816, Note_on_c, 0, 64, 83
2, 65817, Note_on_c, 0, 33, 89
2, 65885, Note_on_c, 0, 88, 86
2, 65948, Note_on_c, 0, 45, 0
2, 65948, Note_on_c, 0, 57, 0
2, 65952, Note_on_c, 0, 79, 91
2, 65956, Note_on_c, 0, 59, 67
2, 65957, Note_on_c, 0, 57, 70
2, 65959, Note_on_c, 0, 45, 70
2, 66086, Note_on_c, 0, 74, 0
2, 66086, Note_on_c, 0, 86, 0
2, 66094, Note_on_c, 0, 45, 0
2, 66094, Note_on_c, 0, 64, 0
2, 66094, Note_on_c, 0, 77, 0
2, 66094, Note_on_c, 0, 83, 0
2, 66094, Note_on_c, 0, 86, 103
2, 66095, Note_on_c, 0, 74, 91
2, 66098, Note_on_c, 0, 64, 73
2, 66098, Note_on_c, 0, 77, 81
2, 66101, Note_on_c, 0, 57, 0
2, 66102, Note_on_c, 0, 83, 81
2, 66103, Note_on_c, 0, 45, 75
2, 66108, Note_on_c, 0, 57, 71
2, 66224, Note_on_c, 0, 57, 0
2, 66224, Note_on_c, 0, 72, 0
2, 66224, Note_on_c, 0, 84, 0
2, 66228, Note_on_c, 0, 84, 89
2, 66232, Note_on_c, 0, 45, 0
2, 66232, Note_on_c, 0, 76, 0
2, 66234, Note_on_c, 0, 72, 84
2, 66235, Note_on_c, 0, 57, 78
2, 66236, Note_on_c, 0, 76, 75
2, 66242, Note_on_c, 0, 45, 68
2, 66313, Note_on_c, 0, 60, 75
2, 66362, Note_on_c, 0, 74, 0
2, 66362, Note_on_c, 0, 93, 0
2, 66370, Note_on_c, 0, 33, 0
2, 66370, Note_on_c, 0, 45, 0
2, 66370, Note_on_c, 0, 76, 0
2, 66370, Note_on_c, 0, 81, 0
2, 66370, Note_on_c, 0, 83, 0
2, 66370, Note_on_c, 0, 86, 0
2, 66372, Note_on_c, 0, 93, 105
2, 66373, Note_on_c, 0, 74, 97
2, 66375, Note_on_c, 0, 86, 87
2, 66376, Note_on_c, 0, 83, 87
2, 66377, Note_on_c, 0, 45, 97
2, 66378, Note_on_c, 0, 76, 89
2, 66379, Note_on_c, 0, 33, 94
2, 66379, Note_on_c, 0, 81, 87
2, 66427, Control_c, 0, 64, 0
2, 66442, Note_on_c, 0, 93, 0
2, 66455, Note_on_c, 0, 95, 0
2, 66462, Note_on_c, 0, 59, 0
2, 66462, Note_on_c, 0, 69, 0
2, 66478, Note_on_c, 0, 33, 0
2, 66478, Note_on_c, 0, 64, 0
2, 66493, Note_on_c, 0, 60, 0
2, 66508, Note_on_c, 0, 57, 0
2, 66508, Note_on_c, 0, 79, 0
2, 66508, Note_on_c, 0, 84, 0
2, 66511, Note_on_c, 0, 43, 86
2, 66512, Note_on_c, 0, 55, 84
2, 66513, Note_on_c, 0, 79, 93
2, 66515, Note_on_c, 0, 91, 88
2, 66517, Note_on_c, 0, 57, 73
2, 66517, Note_on_c, 0, 84, 78
2, 66524, Note_on_c, 0, 88, 0
2, 66554, Note_on_c, 0, 71, 0
2, 66554, Note_on_c, 0, 74, 0
2, 66554, Note_on_c, 0, 77, 0
2, 66566, Note_on_c, 0, 55, 0
2, 66567, Note_on_c, 0, 43, 0
2, 66567, Note_on_c, 0, 72, 0
2, 66569, Note_on_c, 0, 86, 0
2, 66569, Note_on_c, 0, 57, 0
2, 66570, Note_on_c, 0, 91, 0
2, 66570, Note_on_c, 0, 84, 0
2, 66571, Note_on_c, 0, 79, 0
2, 66577, Note_on_c, 0, 76, 0
2, 66577, Note_on_c, 0, 81, 0
2, 66577, Note_on_c, 0, 83, 0
2, 66585, Note_on_c, 0, 45, 0
2, 66639, Control_c, 0, 64, 127
2, 66646, Note_on_c, 0, 81, 101
2, 66650, Note_on_c, 0, 45, 74
2, 66650, Note_on_c, 0, 33, 81
2, 66652, Note_on_c, 0, 64, 89
2, 66652, Note_on_c, 0, 69, 88
2, 66652, Note_on_c, 0, 76, 86
2, 66652, Note_on_c, 0, 72, 87
2, 66785, Note_on_c, 0, 72, 0
2, 66785, Note_on_c, 0, 76, 0
2, 66789, Note_on_c, 0, 84, 93
2, 66792, Note_on_c, 0, 69, 0
2, 66794, Note_on_c, 0, 57, 67
2, 66794, Note_on_c, 0, 72, 72
2, 66796, Note_on_c, 0, 76, 78
2, 66797, Note_on_c, 0, 69, 70
2, 66800, Note_on_c, 0, 45, 0
2, 66807, Note_on_c, 0, 45, 59
2, 66915, Note_on_c, 0, 45, 0
2, 66920, Note_on_c, 0, 93, 102
2, 66923, Note_on_c, 0, 33, 0
2, 66923, Note_on_c, 0, 76, 0
2, 66923, Note_on_c, 0, 81, 0
2, 66925, Note_on_c, 0, 45, 90
2, 66927, Note_on_c, 0, 86, 83
2, 66927, Note_on_c, 0, 81, 83
2, 66928, Note_on_c, 0, 33, 92
2, 66929, Note_on_c, 0, 88, 89
2, 66929, Note_on_c, 0, 83, 87
2, 66934, Note_on_c, 0, 76, 88
2, 66934, Note_on_c, 0, 31, 88
2, 66934, Note_on_c, 0, 71, 87
2, 66935, Note_on_c, 0, 74, 91
2, 66938, Note_on_c, 0, 31, 0
2, 67061, Note_on_c, 0, 57, 0
2, 67061, Note_on_c, 0, 76, 0
2, 67061, Note_on_c, 0, 84, 0
2, 67069, Note_on_c, 0, 45, 0
2, 67069, Note_on_c, 0, 72, 0
2, 67070, Note_on_c, 0, 84, 88
2, 67072, Note_on_c, 0, 57, 77
2, 67073, Note_on_c, 0, 76, 77
2, 67075, Note_on_c, 0, 72, 75
2, 67078, Note_on_c, 0, 45, 76
2, 67156, Note_on_c, 0, 60, 69
2, 67200, Note_on_c, 0, 74, 0
2, 67200, Note_on_c, 0, 86, 0
2, 67207, Note_on_c, 0, 64, 0
2, 67207, Note_on_c, 0, 69, 0
2, 67207, Note_on_c, 0, 76, 0
2, 67210, Note_on_c, 0, 86, 102
2, 67211, Note_on_c, 0, 74, 85
2, 67211, Note_on_c, 0, 69, 78
2, 67213, Note_on_c, 0, 64, 75
2, 67215, Note_on_c, 0, 60, 0
2, 67216, Note_on_c, 0, 76, 86
2, 67218, Note_on_c, 0, 77, 81
2, 67221, Note_on_c, 0, 60, 69
2, 67269, Note_on_c, 0, 60, 0
2, 67278, Note_on_c, 0, 60, 57
2, 67338, Note_on_c, 0, 57, 0
2, 67345, Note_on_c, 0, 45, 0
2, 67345, Note_on_c, 0, 72, 0
2, 67345, Note_on_c, 0, 84, 0
2, 67349, Note_on_c, 0, 57, 80
2, 67351, Note_on_c, 0, 84, 87
2, 67353, Note_on_c, 0, 76, 0
2, 67356, Note_on_c, 0, 72, 79
2, 67356, Note_on_c, 0, 45, 77
2, 67358, Note_on_c, 0, 76, 72
2, 67461, Note_on_c, 0, 64, 0
2, 67471, Note_on_c, 0, 64, 92
2, 67476, Note_on_c, 0, 33, 0
2, 67476, Note_on_c, 0, 45, 0
2, 67476, Note_on_c, 0, 74, 0
2, 67476, Note_on_c, 0, 83, 0
2, 67482, Note_on_c, 0, 74, 92
2, 67483, Note_on_c, 0, 33, 99
2, 67484, Note_on_c, 0, 93, 0
2, 67486, Note_on_c, 0, 45, 93
2, 67486, Note_on_c, 0, 95, 91
2, 67487, Note_on_c, 0, 83, 90
2, 67488, Note_on_c, 0, 93, 96
2, 67599, Note_on_c, 0, 84, 0
2, 67603, Note_on_c, 0, 84, 78
2, 67607, Note_on_c, 0, 45, 0
2, 67607, Note_on_c, 0, 57, 0
2, 67613, Note_on_c, 0, 57, 73
2, 67615, Note_on_c, 0, 45, 77
2, 67623, Note_on_c, 0, 79, 87
2, 67703, Control_c, 0, 64, 0
2, 67703, Note_on_c, 0, 95, 0
2, 67704, Note_on_c, 0, 74, 0
2, 67704, Note_on_c, 0, 86, 0
2, 67704, Note_on_c, 0, 33, 0
2, 67705, Note_on_c, 0, 88, 0
2, 67705, Note_on_c, 0, 72, 0
2, 67705, Note_on_c, 0, 71, 0
2, 67705, Note_on_c, 0, 83, 0
2, 67705, Note_on_c, 0, 76, 0
2, 67705, Note_on_c, 0, 81, 0
2, 67705, Note_on_c, 0, 77, 0
2, 67706, Note_on_c, 0, 64, 0
2, 67706, Note_on_c, 0, 69, 0
2, 67706, Note_on_c, 0, 45, 0
2, 67706, Note_on_c, 0, 57, 0
2, 67707, Note_on_c, 0, 79, 0
2, 67708, Note_on_c, 0, 60, 0
2, 67722, Note_on_c, 0, 84, 0
2, 67722, Note_on_c, 0, 93, 0
2, 67756, Note_on_c, 0, 34, 97
2, 67761, Note_on_c, 0, 86, 93
2, 67763, Note_on_c, 0, 82, 94
2, 67764, Note_on_c, 0, 46, 94
2, 67791, Control_c, 0, 64, 127
2, 67900, Note_on_c, 0, 58, 67
2, 67904, Note_on_c, 0, 84, 92
2, 67908, Note_on_c, 0, 72, 77
2, 67909, Note_on_c, 0, 62, 68
2, 67914, Note_on_c, 0, 62, 0
2, 68028, Note_on_c, 0, 94, 99
2, 68037, Note_on_c, 0, 34, 0
2, 68037, Note_on_c, 0, 46, 0
2, 68041, Note_on_c, 0, 34, 92
2, 68041, Note_on_c, 0, 46, 83
2, 68044, Note_on_c, 0, 82, 0
2, 68049, Note_on_c, 0, 82, 65
2, 68129, Note_on_c, 0, 82, 0
2, 68129, Note_on_c, 0, 86, 0
2, 68136, Note_on_c, 0, 58, 0
2, 68138, Note_on_c, 0, 62, 67
2, 68140, Note_on_c, 0, 86, 72
2, 68140, Note_on_c, 0, 82, 94
2, 68148, Note_on_c, 0, 58, 82
2, 68185, Note_on_c, 0, 79, 91
2, 68305, Note_on_c, 0, 64, 92
2, 68305, Note_on_c, 0, 86, 0
2, 68308, Note_on_c, 0, 84, 0
2, 68308, Note_on_c, 0, 72, 0
2, 68309, Note_on_c, 0, 46, 0
2, 68309, Note_on_c, 0, 79, 0
2, 68309, Note_on_c, 0, 82, 0
2, 68309, Note_on_c, 0, 58, 0
2, 68310, Note_on_c, 0, 76, 92
2, 68317, Note_on_c, 0, 40, 89
2, 68317, Note_on_c, 0, 28, 100
2, 68317, Note_on_c, 0, 86, 105
2, 68317, Control_c, 0, 64, 0
2, 68321, Note_on_c, 0, 74, 93
2, 68321, Note_on_c, 0, 62, 0
2, 68321, Note_on_c, 0, 94, 0
2, 68327, Note_on_c, 0, 80, 85
2, 68344, Note_on_c, 0, 34, 0
2, 68382, Control_c, 0, 64, 127
2, 68439, Note_on_c, 0, 56, 86
2, 68460, Note_on_c, 0, 84, 91
2, 68462, Note_on_c, 0, 72, 82
2, 68582, Note_on_c, 0, 28, 0
2, 68582, Note_on_c, 0, 86, 0
2, 68589, Note_on_c, 0, 86, 92
2, 68590, Note_on_c, 0, 40, 0
2, 68592, Note_on_c, 0, 28, 94
2, 68593, Note_on_c, 0, 95, 96
2, 68593, Note_on_c, 0, 83, 98
2, 68593, Note_on_c, 0, 40, 80
2, 68594, Note_on_c, 0, 92, 95
2, 68636, Note_on_c, 0, 64, 0
2, 68674, Note_on_c, 0, 40, 0
2, 68681, Note_on_c, 0, 40, 87
2, 68728, Note_on_c, 0, 80, 0
2, 68733, Note_on_c, 0, 80, 83
2, 68843, Note_on_c, 0, 28, 0
2, 68843, Note_on_c, 0, 76, 0
2, 68846, Note_on_c, 0, 86, 0
2, 68846, Note_on_c, 0, 95, 0
2, 68846, Note_on_c, 0, 74, 0
2, 68846, Note_on_c, 0, 92, 0
2, 68847, Note_on_c, 0, 84, 0
2, 68847, Note_on_c, 0, 80, 0
2, 68848, Control_c, 0, 64, 0
2, 68848, Note_on_c, 0, 56, 0
2, 68858, Note_on_c, 0, 72, 0
2, 68858, Note_on_c, 0, 83, 0
2, 68864, Note_on_c, 0, 81, 103
2, 68866, Note_on_c, 0, 40, 0
2, 68867, Note_on_c, 0, 69, 102
2, 68868, Note_on_c, 0, 45, 99
2, 68869, Note_on_c, 0, 72, 93
2, 68869, Note_on_c, 0, 76, 94
2, 68870, Note_on_c, 0, 33, 95
2, 68912, Control_c, 0, 64, 127
2, 69073, Note_on_c, 0, 76, 0
2, 69078, Note_on_c, 0, 76, 83
2, 69136, Note_on_c, 0, 84, 98
2, 69200, Note_on_c, 0, 33, 0
2, 69203, Note_on_c, 0, 72, 0
2, 69204, Note_on_c, 0, 81, 0
2, 69204, Note_on_c, 0, 45, 0
2, 69204, Note_on_c, 0, 69, 0
2, 69204, Note_on_c, 0, 76, 0
2, 69204, Control_c, 0, 64, 0
2, 69210, Note_on_c, 0, 76, 81
2, 69280, Note_on_c, 0, 81, 90
2, 69358, Note_on_c, 0, 76, 0
2, 69366, Note_on_c, 0, 76, 82
2, 69388, Note_on_c, 0, 84, 0
2, 69408, Note_on_c, 0, 81, 0
2, 69410, Note_on_c, 0, 76, 0
2, 69423, Note_on_c, 0, 83, 99
2, 69423, Note_on_c, 0, 75, 97
2, 69428, Note_on_c, 0, 47, 96
2, 69428, Note_on_c, 0, 35, 92
2, 69429, Note_on_c, 0, 71, 97
2, 69457, Control_c, 0, 64, 127
2, 69500, Note_on_c, 0, 78, 93
2, 69562, Note_on_c, 0, 85, 92
2, 69588, Note_on_c, 0, 35, 0
2, 69626, Note_on_c, 0, 78, 0
2, 69631, Note_on_c, 0, 78, 91
2, 69691, Note_on_c, 0, 87, 95
2, 69742, Note_on_c, 0, 78, 0
2, 69750, Note_on_c, 0, 78, 79
2, 69788, Control_c, 0, 64, 0
2, 69792, Note_on_c, 0, 85, 0
2, 69794, Note_on_c, 0, 47, 0
2, 69796, Note_on_c, 0, 75, 0
2, 69798, Note_on_c, 0, 71, 0
2, 69803, Note_on_c, 0, 83, 0
2, 69814, Note_on_c, 0, 83, 86
2, 69888, Note_on_c, 0, 78, 0
2, 69898, Note_on_c, 0, 78, 74
2, 69926, Note_on_c, 0, 87, 0
2, 69943, Note_on_c, 0, 52, 59
2, 69944, Note_on_c, 0, 83, 0
2, 69948, Note_on_c, 0, 78, 0
2, 69977, Note_on_c, 0, 79, 92
2, 69982, Note_on_c, 0, 67, 81
2, 69983, Note_on_c, 0, 59, 67
2, 69992, Note_on_c, 0, 76, 76
2, 70041, Control_c, 0, 64, 127
2, 70126, Note_on_c, 0, 59, 0
2, 70131, Note_on_c, 0, 59, 51
2, 70248, Note_on_c, 0, 67, 0
2, 70258, Note_on_c, 0, 64, 43
2, 70259, Note_on_c, 0, 67, 56
2, 70287, Note_on_c, 0, 79, 0
2, 70291, Note_on_c, 0, 71, 52
2, 70292, Note_on_c, 0, 79, 62
2, 70401, Note_on_c, 0, 88, 74
2, 70402, Note_on_c, 0, 78, 89
2, 70405, Note_on_c, 0, 90, 82
2, 70413, Note_on_c, 0, 66, 68
2, 70552, Note_on_c, 0, 91, 68
2, 70679, Note_on_c, 0, 59, 0
2, 70679, Note_on_c, 0, 79, 0
2, 70685, Note_on_c, 0, 59, 47
2, 70687, Note_on_c, 0, 79, 60
2, 70817, Note_on_c, 0, 52, 0
2, 70824, Note_on_c, 0, 64, 0
2, 70824, Note_on_c, 0, 76, 0
2, 70827, Note_on_c, 0, 83, 59
2, 70828, Note_on_c, 0, 52, 47
2, 70832, Note_on_c, 0, 64, 58
2, 70832, Note_on_c, 0, 83, 0
2, 70833, Note_on_c, 0, 76, 72
2, 70955, Note_on_c, 0, 59, 0
2, 70955, Note_on_c, 0, 91, 0
2, 70963, Note_on_c, 0, 50, 57
2, 70963, Note_on_c, 0, 59, 45
2, 70965, Note_on_c, 0, 91, 69
2, 71086, Note_on_c, 0, 50, 0
2, 71093, Note_on_c, 0, 59, 0
2, 71093, Note_on_c, 0, 64, 0
2, 71093, Note_on_c, 0, 76, 0
2, 71097, Note_on_c, 0, 50, 65
2, 71099, Note_on_c, 0, 88, 0
2, 71100, Note_on_c, 0, 52, 0
2, 71101, Note_on_c, 0, 76, 82
2, 71102, Note_on_c, 0, 71, 0
2, 71103, Note_on_c, 0, 79, 0
2, 71103, Note_on_c, 0, 64, 77
2, 71104, Note_on_c, 0, 78, 0
2, 71105, Note_on_c, 0, 59, 65
2, 71105, Control_c, 0, 64, 0
2, 71124, Note_on_c, 0, 67, 0
2, 71155, Note_on_c, 0, 66, 0
2, 71162, Control_c, 0, 64, 127
2, 71239, Note_on_c, 0, 59, 0
2, 71245, Note_on_c, 0, 78, 76
2, 71245, Note_on_c, 0, 59, 59
2, 71333, Note_on_c, 0, 62, 76
2, 71334, Note_on_c, 0, 74, 80
2, 71385, Note_on_c, 0, 83, 57
2, 71516, Note_on_c, 0, 59, 0
2, 71517, Note_on_c, 0, 86, 74
2, 71520, Note_on_c, 0, 59, 54
2, 71551, Note_on_c, 0, 71, 68
2, 71656, Note_on_c, 0, 95, 87
2, 71662, Note_on_c, 0, 50, 0
2, 71670, Note_on_c, 0, 50, 58
2, 71677, Note_on_c, 0, 62, 0
2, 71677, Note_on_c, 0, 74, 0
2, 71688, Note_on_c, 0, 74, 84
2, 71688, Note_on_c, 0, 62, 63
2, 71792, Note_on_c, 0, 83, 0
2, 71799, Note_on_c, 0, 83, 63
2, 71808, Note_on_c, 0, 59, 0
2, 71812, Note_on_c, 0, 59, 52
2, 71938, Note_on_c, 0, 62, 0
2, 71938, Note_on_c, 0, 86, 0
2, 71942, Note_on_c, 0, 50, 0
2, 71942, Note_on_c, 0, 62, 50
2, 71947, Note_on_c, 0, 86, 67
2, 72069, Note_on_c, 0, 90, 0
2, 72075, Note_on_c, 0, 90, 74
2, 72111, Note_on_c, 0, 48, 56
2, 72153, Note_on_c, 0, 64, 0
2, 72159, Note_on_c, 0, 64, 48
2, 72164, Note_on_c, 0, 55, 36
2, 72168, Note_on_c, 0, 55, 0
2, 72198, Note_on_c, 0, 95, 0
2, 72200, Note_on_c, 0, 71, 0
2, 72200, Note_on_c, 0, 86, 0
2, 72201, Note_on_c, 0, 83, 0
2, 72201, Note_on_c, 0, 59, 0
2, 72201, Note_on_c, 0, 74, 0
2, 72202, Note_on_c, 0, 64, 0
2, 72202, Note_on_c, 0, 78, 0
2, 72202, Note_on_c, 0, 62, 0
2, 72203, Control_c, 0, 64, 0
2, 72207, Note_on_c, 0, 48, 0
2, 72207, Note_on_c, 0, 91, 0
2, 72212, Note_on_c, 0, 88, 90
2, 72214, Note_on_c, 0, 72, 72
2, 72215, Note_on_c, 0, 76, 0
2, 72215, Note_on_c, 0, 90, 0
2, 72218, Note_on_c, 0, 48, 67
2, 72219, Note_on_c, 0, 76, 84
2, 72261, Control_c, 0, 64, 127
2, 72345, Note_on_c, 0, 55, 51
2, 72353, Note_on_c, 0, 76, 0
2, 72358, Note_on_c, 0, 76, 58
2, 72368, Note_on_c, 0, 72, 0
2, 72373, Note_on_c, 0, 72, 36
2, 72483, Note_on_c, 0, 72, 0
2, 72491, Note_on_c, 0, 64, 65
2, 72491, Note_on_c, 0, 55, 0
2, 72491, Note_on_c, 0, 76, 0
2, 72494, Note_on_c, 0, 72, 65
2, 72500, Note_on_c, 0, 76, 63
2, 72502, Note_on_c, 0, 79, 62
2, 72502, Note_on_c, 0, 55, 51
2, 72506, Note_on_c, 0, 79, 0
2, 72614, Note_on_c, 0, 55, 0
2, 72624, Note_on_c, 0, 55, 50
2, 72624, Note_on_c, 0, 83, 64
2, 72629, Note_on_c, 0, 83, 0
2, 72648, Note_on_c, 0, 74, 90
2, 72650, Note_on_c, 0, 62, 66
2, 72768, Note_on_c, 0, 48, 0
2, 72768, Note_on_c, 0, 76, 0
2, 72768, Note_on_c, 0, 88, 0
2, 72773, Note_on_c, 0, 88, 79
2, 72776, Note_on_c, 0, 48, 50
2, 72776, Note_on_c, 0, 76, 62
2, 72890, Note_on_c, 0, 55, 0
2, 72898, Note_on_c, 0, 55, 57
2, 72898, Note_on_c, 0, 76, 0
2, 72908, Note_on_c, 0, 76, 61
2, 73044, Note_on_c, 0, 72, 0
2, 73049, Note_on_c, 0, 60, 76
2, 73051, Note_on_c, 0, 79, 69
2, 73051, Note_on_c, 0, 72, 79
2, 73170, Note_on_c, 0, 47, 69
2, 73173, Note_on_c, 0, 59, 64
2, 73175, Note_on_c, 0, 88, 0
2, 73182, Note_on_c, 0, 55, 0
2, 73185, Note_on_c, 0, 88, 87
2, 73189, Note_on_c, 0, 55, 55
2, 73320, Note_on_c, 0, 55, 0
2, 73320, Note_on_c, 0, 60, 0
2, 73320, Note_on_c, 0, 72, 0
2, 73327, Note_on_c, 0, 86, 89
2, 73328, Note_on_c, 0, 47, 0
2, 73328, Note_on_c, 0, 72, 90
2, 73330, Note_on_c, 0, 60, 82
2, 73331, Note_on_c, 0, 55, 72
2, 73332, Control_c, 0, 64, 0
2, 73332, Note_on_c, 0, 48, 0
2, 73332, Note_on_c, 0, 74, 0
2, 73333, Note_on_c, 0, 62, 0
2, 73333, Note_on_c, 0, 76, 0
2, 73333, Note_on_c, 0, 59, 0
2, 73333, Note_on_c, 0, 64, 0
2, 73333, Note_on_c, 0, 88, 0
2, 73336, Note_on_c, 0, 47, 72
2, 73367, Control_c, 0, 64, 127
2, 73466, Note_on_c, 0, 55, 0
2, 73469, Note_on_c, 0, 74, 70
2, 73475, Note_on_c, 0, 55, 63
2, 73558, Note_on_c, 0, 71, 84
2, 73559, Note_on_c, 0, 59, 84
2, 73605, Note_on_c, 0, 79, 0
2, 73609, Note_on_c, 0, 79, 72
2, 73619, Control_c, 0, 64, 0
2, 73666, Control_c, 0, 64, 127
2, 73728, Note_on_c, 0, 71, 0
2, 73735, Note_on_c, 0, 74, 0
2, 73738, Note_on_c, 0, 71, 57
2, 73739, Note_on_c, 0, 83, 64
2, 73743, Note_on_c, 0, 74, 56
2, 73774, Note_on_c, 0, 55, 0
2, 73779, Note_on_c, 0, 55, 84
2, 73781, Note_on_c, 0, 67, 88
2, 73873, Note_on_c, 0, 79, 0
2, 73881, Note_on_c, 0, 47, 0
2, 73881, Note_on_c, 0, 59, 0
2, 73883, Note_on_c, 0, 91, 83
2, 73885, Note_on_c, 0, 79, 69
2, 73887, Note_on_c, 0, 59, 60
2, 73888, Note_on_c, 0, 47, 64
2, 74019, Note_on_c, 0, 55, 0
2, 74019, Note_on_c, 0, 79, 0
2, 74024, Note_on_c, 0, 79, 66
2, 74031, Note_on_c, 0, 55, 48
2, 74150, Note_on_c, 0, 83, 0
2, 74158, Note_on_c, 0, 59, 0
2, 74158, Note_on_c, 0, 60, 0
2, 74161, Note_on_c, 0, 83, 67
2, 74167, Note_on_c, 0, 60, 54
2, 74167, Note_on_c, 0, 59, 61
2, 74296, Note_on_c, 0, 86, 0
2, 74305, Note_on_c, 0, 86, 76
2, 74317, Note_on_c, 0, 45, 58
2, 74413, Note_on_c, 0, 52, 61
2, 74423, Note_on_c, 0, 64, 71
2, 74426, Note_on_c, 0, 67, 0
2, 74430, Note_on_c, 0, 45, 0
2, 74430, Note_on_c, 0, 74, 0
2, 74431, Note_on_c, 0, 71, 0
2, 74431, Note_on_c, 0, 83, 0
2, 74431, Note_on_c, 0, 86, 0
2, 74432, Note_on_c, 0, 59, 0
2, 74432, Note_on_c, 0, 91, 0
2, 74432, Note_on_c, 0, 79, 0
2, 74432, Note_on_c, 0, 47, 0
2, 74434, Note_on_c, 0, 60, 0
2, 74438, Note_on_c, 0, 67, 76
2, 74438, Control_c, 0, 64, 0
2, 74441, Note_on_c, 0, 84, 85
2, 74449, Note_on_c, 0, 55, 0
2, 74449, Note_on_c, 0, 72, 0
2, 74457, Note_on_c, 0, 72, 84
2, 74459, Note_on_c, 0, 55, 60
2, 74511, Control_c, 0, 64, 127
2, 74557, Note_on_c, 0, 52, 0
2, 74567, Note_on_c, 0, 52, 61
2, 74575, Note_on_c, 0, 45, 53
2, 74588, Note_on_c, 0, 72, 0
2, 74597, Note_on_c, 0, 72, 56
2, 74711, Note_on_c, 0, 45, 0
2, 74720, Note_on_c, 0, 45, 59
2, 74721, Note_on_c, 0, 57, 60
2, 74722, Note_on_c, 0, 60, 71
2, 74725, Note_on_c, 0, 76, 61
2, 74856, Note_on_c, 0, 52, 0
2, 74858, Note_on_c, 0, 79, 78
2, 74861, Note_on_c, 0, 52, 63
2, 74861, Note_on_c, 0, 71, 87
2, 74862, Note_on_c, 0, 59, 85
2, 74979, Note_on_c, 0, 52, 0
2, 74979, Note_on_c, 0, 84, 0
2, 74987, Note_on_c, 0, 45, 0
2, 74989, Note_on_c, 0, 84, 79
2, 74991, Note_on_c, 0, 52, 57
2, 74992, Note_on_c, 0, 45, 59
2, 75125, Note_on_c, 0, 72, 0
2, 75133, Note_on_c, 0, 52, 0
2, 75135, Note_on_c, 0, 72, 68
2, 75140, Note_on_c, 0, 52, 58
2, 75264, Note_on_c, 0, 57, 0
2, 75273, Note_on_c, 0, 69, 90
2, 75274, Note_on_c, 0, 57, 79
2, 75394, Note_on_c, 0, 52, 0
2, 75394, Note_on_c, 0, 84, 0
2, 75395, Note_on_c, 0, 43, 66
2, 75399, Note_on_c, 0, 52, 63
2, 75404, Note_on_c, 0, 84, 83
2, 75532, Note_on_c, 0, 59, 0
2, 75535, Note_on_c, 0, 60, 0
2, 75535, Note_on_c, 0, 84, 0
2, 75535, Note_on_c, 0, 71, 0
2, 75536, Note_on_c, 0, 72, 0
2, 75536, Note_on_c, 0, 79, 0
2, 75536, Note_on_c, 0, 67, 0
2, 75537, Control_c, 0, 64, 0
2, 75540, Note_on_c, 0, 45, 0
2, 75540, Note_on_c, 0, 52, 0
2, 75540, Note_on_c, 0, 57, 0
2, 75540, Note_on_c, 0, 69, 0
2, 75546, Note_on_c, 0, 57, 85
2, 75547, Note_on_c, 0, 69, 90
2, 75548, Note_on_c, 0, 43, 0
2, 75550, Note_on_c, 0, 52, 77
2, 75551, Note_on_c, 0, 45, 71
2, 75555, Note_on_c, 0, 76, 0
2, 75556, Note_on_c, 0, 43, 71
2, 75578, Note_on_c, 0, 45, 0
2, 75578, Note_on_c, 0, 55, 0
2, 75594, Control_c, 0, 64, 127
2, 75678, Note_on_c, 0, 52, 0
2, 75687, Note_on_c, 0, 71, 72
2, 75688, Note_on_c, 0, 52, 63
2, 75782, Note_on_c, 0, 55, 74
2, 75782, Note_on_c, 0, 67, 75
2, 75823, Note_on_c, 0, 76, 64
2, 75955, Note_on_c, 0, 52, 0
2, 75962, Note_on_c, 0, 64, 0
2, 75962, Note_on_c, 0, 76, 0
2, 75966, Note_on_c, 0, 52, 72
2, 75966, Note_on_c, 0, 79, 69
2, 75972, Note_on_c, 0, 76, 67
2, 75974, Note_on_c, 0, 64, 69
2, 76085, Note_on_c, 0, 43, 0
2, 76093, Note_on_c, 0, 43, 76
2, 76096, Note_on_c, 0, 88, 92
2, 76124, Note_on_c, 0, 55, 0
2, 76124, Note_on_c, 0, 67, 0
2, 76128, Note_on_c, 0, 55, 86
2, 76128, Note_on_c, 0, 67, 96
2, 76224, Note_on_c, 0, 76, 0
2, 76231, Note_on_c, 0, 76, 72
2, 76254, Note_on_c, 0, 52, 0
2, 76266, Note_on_c, 0, 52, 57
2, 76369, Note_on_c, 0, 79, 0
2, 76379, Note_on_c, 0, 79, 73
2, 76500, Note_on_c, 0, 52, 0
2, 76510, Note_on_c, 0, 52, 61
2, 76512, Note_on_c, 0, 83, 75
2, 76596, Note_on_c, 0, 42, 58
2, 76655, Note_on_c, 0, 64, 0
2, 76655, Note_on_c, 0, 76, 0
2, 76655, Note_on_c, 0, 67, 0
2, 76655, Note_on_c, 0, 55, 0
2, 76655, Note_on_c, 0, 52, 0
2, 76656, Note_on_c, 0, 43, 0
2, 76656, Note_on_c, 0, 83, 0
2, 76656, Note_on_c, 0, 57, 0
2, 76656, Note_on_c, 0, 79, 0
2, 76656, Note_on_c, 0, 88, 0
2, 76658, Note_on_c, 0, 85, 95
2, 76659, Control_c, 0, 64, 0
2, 76660, Note_on_c, 0, 58, 95
2, 76661, Note_on_c, 0, 69, 0
2, 76661, Note_on_c, 0, 71, 0
2, 76664, Note_on_c, 0, 61, 84
2, 76665, Note_on_c, 0, 73, 86
2, 76675, Note_on_c, 0, 54, 73
2, 76675, Note_on_c, 0, 49, 84
2, 76680, Note_on_c, 0, 66, 94
2, 76680, Note_on_c, 0, 78, 71
2, 76700, Note_on_c, 0, 42, 0
2, 76723, Control_c, 0, 64, 127
2, 76776, Note_on_c, 0, 73, 0
2, 76783, Note_on_c, 0, 73, 68
2, 76915, Note_on_c, 0, 78, 0
2, 76922, Note_on_c, 0, 54, 0
2, 76926, Note_on_c, 0, 78, 67
2, 76927, Note_on_c, 0, 54, 43
2, 77018, Note_on_c, 0, 42, 57
2, 77068, Note_on_c, 0, 49, 0
2, 77068, Note_on_c, 0, 61, 0
2, 77068, Note_on_c, 0, 73, 0
2, 77072, Note_on_c, 0, 61, 87
2, 77076, Note_on_c, 0, 58, 0
2, 77079, Note_on_c, 0, 49, 78
2, 77080, Note_on_c, 0, 73, 88
2, 77080, Note_on_c, 0, 70, 87
2, 77084, Note_on_c, 0, 54, 0
2, 77084, Note_on_c, 0, 58, 70
2, 77088, Note_on_c, 0, 54, 72
2, 77204, Note_on_c, 0, 90, 81
2, 77322, Note_on_c, 0, 78, 0
2, 77328, Note_on_c, 0, 78, 66
2, 77329, Note_on_c, 0, 49, 0
2, 77329, Note_on_c, 0, 73, 0
2, 77337, Note_on_c, 0, 73, 51
2, 77339, Note_on_c, 0, 49, 59
2, 77411, Note_on_c, 0, 46, 65
2, 77460, Note_on_c, 0, 58, 0
2, 77460, Note_on_c, 0, 70, 0
2, 77468, Note_on_c, 0, 54, 0
2, 77468, Note_on_c, 0, 73, 0
2, 77470, Note_on_c, 0, 58, 90
2, 77472, Note_on_c, 0, 70, 88
2, 77472, Note_on_c, 0, 54, 76
2, 77475, Note_on_c, 0, 73, 84
2, 77475, Note_on_c, 0, 49, 0
2, 77475, Note_on_c, 0, 78, 0
2, 77475, Note_on_c, 0, 90, 0
2, 77480, Note_on_c, 0, 90, 83
2, 77484, Note_on_c, 0, 78, 94
2, 77487, Note_on_c, 0, 49, 65
2, 77614, Note_on_c, 0, 85, 0
2, 77620, Note_on_c, 0, 85, 85
2, 77621, Note_on_c, 0, 49, 0
2, 77629, Note_on_c, 0, 54, 0
2, 77631, Note_on_c, 0, 49, 66
2, 77640, Note_on_c, 0, 54, 60
2, 77744, Note_on_c, 0, 54, 0
2, 77745, Note_on_c, 0, 76, 103
2, 77748, Note_on_c, 0, 83, 82
2, 77748, Note_on_c, 0, 59, 95
2, 77748, Control_c, 0, 64, 0
2, 77749, Note_on_c, 0, 47, 88
2, 77750, Note_on_c, 0, 54, 79
2, 77754, Note_on_c, 0, 46, 0
2, 77755, Note_on_c, 0, 88, 90
2, 77756, Note_on_c, 0, 58, 0
2, 77756, Note_on_c, 0, 49, 0
2, 77756, Note_on_c, 0, 61, 0
2, 77757, Note_on_c, 0, 78, 0
2, 77757, Note_on_c, 0, 73, 0
2, 77757, Note_on_c, 0, 85, 0
2, 77757, Note_on_c, 0, 90, 0
2, 77757, Note_on_c, 0, 70, 0
2, 77760, Note_on_c, 0, 42, 0
2, 77775, Note_on_c, 0, 66, 0
2, 77806, Control_c, 0, 64, 127
2, 77882, Note_on_c, 0, 76, 0
2, 77889, Note_on_c, 0, 76, 71
2, 78013, Note_on_c, 0, 47, 0
2, 78023, Note_on_c, 0, 78, 76
2, 78024, Note_on_c, 0, 47, 62
2, 78154, Note_on_c, 0, 63, 88
2, 78155, Note_on_c, 0, 75, 80
2, 78282, Note_on_c, 0, 54, 0
2, 78289, Note_on_c, 0, 47, 0
2, 78289, Note_on_c, 0, 59, 0
2, 78289, Note_on_c, 0, 63, 0
2, 78289, Note_on_c, 0, 75, 0
2, 78293, Note_on_c, 0, 54, 95
2, 78293, Note_on_c, 0, 63, 94
2, 78294, Note_on_c, 0, 59, 90
2, 78294, Note_on_c, 0, 75, 97
2, 78294, Note_on_c, 0, 47, 84
2, 78297, Note_on_c, 0, 71, 86
2, 78305, Note_on_c, 0, 71, 0
2, 78311, Control_c, 0, 64, 0
2, 78328, Control_c, 0, 64, 127
2, 78435, Note_on_c, 0, 75, 0
2, 78441, Note_on_c, 0, 75, 81
2, 78581, Note_on_c, 0, 78, 0
2, 78589, Note_on_c, 0, 47, 0
2, 78589, Note_on_c, 0, 78, 67
2, 78592, Note_on_c, 0, 71, 50
2, 78594, Note_on_c, 0, 59, 0
2, 78594, Note_on_c, 0, 47, 52
2, 78704, Note_on_c, 0, 83, 0
2, 78710, Note_on_c, 0, 83, 69
2, 78766, Note_on_c, 0, 47, 0
2, 78776, Note_on_c, 0, 47, 56
2, 78850, Note_on_c, 0, 76, 0
2, 78853, Note_on_c, 0, 79, 92
2, 78855, Note_on_c, 0, 67, 89
2, 78855, Note_on_c, 0, 83, 0
2, 78855, Note_on_c, 0, 78, 0
2, 78855, Note_on_c, 0, 47, 0
2, 78856, Note_on_c, 0, 40, 75
2, 78856, Note_on_c, 0, 75, 0
2, 78858, Note_on_c, 0, 71, 0
2, 78859, Note_on_c, 0, 63, 0
2, 78859, Note_on_c, 0, 52, 83
2, 78860, Control_c, 0, 64, 0
2, 78860, Note_on_c, 0, 76, 87
2, 78864, Note_on_c, 0, 71, 82
2, 78865, Note_on_c, 0, 88, 0
2, 78873, Note_on_c, 0, 54, 0
2, 78904, Control_c, 0, 64, 127
2, 78973, Note_on_c, 0, 67, 0
2, 78981, Note_on_c, 0, 52, 0
2, 78981, Note_on_c, 0, 71, 0
2, 78981, Note_on_c, 0, 76, 0
2, 78984, Note_on_c, 0, 67, 60
2, 78987, Note_on_c, 0, 71, 68
2, 78987, Note_on_c, 0, 76, 64
2, 78990, Note_on_c, 0, 52, 67
2, 78990, Note_on_c, 0, 59, 66
2, 79119, Note_on_c, 0, 79, 0
2, 79127, Note_on_c, 0, 67, 0
2, 79127, Note_on_c, 0, 79, 102
2, 79131, Note_on_c, 0, 67, 76
2, 79157, Note_on_c, 0, 40, 0
2, 79166, Note_on_c, 0, 40, 58
2, 79268, Note_on_c, 0, 88, 90
2, 79278, Note_on_c, 0, 90, 92
2, 79280, Note_on_c, 0, 52, 0
2, 79280, Note_on_c, 0, 59, 0
2, 79283, Note_on_c, 0, 78, 99
2, 79286, Note_on_c, 0, 52, 78
2, 79287, Note_on_c, 0, 59, 84
2, 79287, Note_on_c, 0, 83, 80
2, 79290, Note_on_c, 0, 55, 76
2, 79290, Note_on_c, 0, 66, 89
2, 79411, Note_on_c, 0, 55, 0
2, 79411, Note_on_c, 0, 67, 0
2, 79414, Note_on_c, 0, 91, 91
2, 79415, Note_on_c, 0, 67, 87
2, 79420, Note_on_c, 0, 55, 68
2, 79549, Note_on_c, 0, 88, 0
2, 79557, Note_on_c, 0, 88, 75
2, 79572, Note_on_c, 0, 79, 0
2, 79572, Note_on_c, 0, 83, 0
2, 79576, Note_on_c, 0, 79, 58
2, 79580, Note_on_c, 0, 52, 0
2, 79580, Note_on_c, 0, 59, 0
2, 79582, Note_on_c, 0, 83, 63
2, 79584, Note_on_c, 0, 52, 47
2, 79586, Note_on_c, 0, 59, 59
2, 79590, Note_on_c, 0, 47, 52
2, 79680, Note_on_c, 0, 79, 0
2, 79684, Note_on_c, 0, 79, 83
2, 79699, Note_on_c, 0, 64, 85
2, 79718, Note_on_c, 0, 40, 0
2, 79718, Note_on_c, 0, 52, 0
2, 79718, Note_on_c, 0, 76, 0
2, 79724, Note_on_c, 0, 76, 93
2, 79727, Note_on_c, 0, 52, 83
2, 79729, Note_on_c, 0, 40, 84
2, 79818, Note_on_c, 0, 47, 0
2, 79825, Note_on_c, 0, 67, 0
2, 79829, Note_on_c, 0, 47, 48
2, 79833, Note_on_c, 0, 67, 57
2, 79938, Note_on_c, 0, 67, 0
2, 79938, Note_on_c, 0, 52, 0
2, 79938, Note_on_c, 0, 71, 0
2, 79938, Note_on_c, 0, 55, 0
2, 79938, Note_on_c, 0, 79, 0
2, 79938, Note_on_c, 0, 91, 0
2, 79938, Note_on_c, 0, 76, 0
2, 79938, Note_on_c, 0, 83, 0
2, 79938, Note_on_c, 0, 88, 0
2, 79938, Note_on_c, 0, 59, 0
2, 79938, Control_c, 0, 64, 0
2, 79938, Note_on_c, 0, 90, 0
2, 79938, Note_on_c, 0, 78, 0
2, 79939, Note_on_c, 0, 64, 0
2, 79939, Note_on_c, 0, 66, 0
2, 79940, Note_on_c, 0, 40, 0
2, 79964, Note_on_c, 0, 47, 0
2, 79987, Control_c, 0, 64, 127
2, 79991, Note_on_c, 0, 66, 99
2, 79992, Note_on_c, 0, 50, 89
2, 79997, Note_on_c, 0, 38, 87
2, 79999, Note_on_c, 0, 76, 92
2, 80007, Note_on_c, 0, 64, 77
2, 80137, Note_on_c, 0, 59, 67
2, 80153, Note_on_c, 0, 74, 61
2, 80209, Note_on_c, 0, 74, 0
2, 80213, Note_on_c, 0, 74, 79
2, 80215, Note_on_c, 0, 62, 76
2, 80294, Note_on_c, 0, 64, 0
2, 80294, Note_on_c, 0, 66, 0
2, 80299, Note_on_c, 0, 66, 64
2, 80300, Note_on_c, 0, 64, 62
2, 80332, Note_on_c, 0, 50, 0
2, 80340, Note_on_c, 0, 50, 65
2, 80409, Note_on_c, 0, 59, 0
2, 80413, Note_on_c, 0, 71, 85
2, 80417, Note_on_c, 0, 42, 69
2, 80418, Note_on_c, 0, 54, 69
2, 80418, Note_on_c, 0, 59, 76
2, 80424, Note_on_c, 0, 42, 0
2, 80532, Note_on_c, 0, 74, 0
2, 80540, Note_on_c, 0, 62, 0
2, 80543, Note_on_c, 0, 74, 94
2, 80547, Note_on_c, 0, 66, 0
2, 80550, Note_on_c, 0, 62, 80
2, 80551, Note_on_c, 0, 90, 88
2, 80558, Note_on_c, 0, 66, 78
2, 80663, Note_on_c, 0, 62, 0
2, 80663, Note_on_c, 0, 74, 0
2, 80667, Note_on_c, 0, 62, 84
2, 80668, Note_on_c, 0, 74, 77
2, 80716, Note_on_c, 0, 64, 0
2, 80723, Note_on_c, 0, 83, 74
2, 80726, Note_on_c, 0, 64, 77
2, 80755, Note_on_c, 0, 66, 0
2, 80761, Note_on_c, 0, 66, 79
2, 80778, Note_on_c, 0, 38, 0
2, 80778, Note_on_c, 0, 50, 0
2, 80784, Note_on_c, 0, 50, 63
2, 80785, Note_on_c, 0, 38, 70
2, 80824, Note_on_c, 0, 74, 0
2, 80828, Note_on_c, 0, 74, 67
2, 80833, Note_on_c, 0, 67, 79
2, 80833, Note_on_c, 0, 79, 76
2, 80868, Note_on_c, 0, 69, 64
2, 80916, Note_on_c, 0, 71, 0
2, 80925, Note_on_c, 0, 71, 75
2, 80930, Note_on_c, 0, 72, 85
2, 80962, Note_on_c, 0, 74, 0
2, 80962, Note_on_c, 0, 76, 0
2, 80968, Note_on_c, 0, 74, 72
2, 80968, Note_on_c, 0, 76, 69
2, 81028, Note_on_c, 0, 74, 0
2, 81028, Note_on_c, 0, 62, 0
2, 81028, Note_on_c, 0, 50, 0
2, 81028, Note_on_c, 0, 69, 0
2, 81028, Note_on_c, 0, 66, 0
2, 81028, Note_on_c, 0, 54, 0
2, 81028, Control_c, 0, 64, 0
2, 81028, Note_on_c, 0, 83, 0
2, 81029, Note_on_c, 0, 67, 0
2, 81029, Note_on_c, 0, 38, 0
2, 81029, Note_on_c, 0, 71, 0
2, 81029, Note_on_c, 0, 79, 0
2, 81029, Note_on_c, 0, 64, 0
2, 81029, Note_on_c, 0, 59, 0
2, 81029, Note_on_c, 0, 90, 0
2, 81032, Note_on_c, 0, 72, 0
2, 81062, Note_on_c, 0, 76, 0
2, 81069, Note_on_c, 0, 76, 90
2, 81072, Note_on_c, 0, 64, 91
2, 81073, Note_on_c, 0, 48, 80
2, 81074, Note_on_c, 0, 36, 81
2, 81075, Note_on_c, 0, 67, 77
2, 81075, Note_on_c, 0, 72, 78
2, 81100, Control_c, 0, 64, 127
2, 81231, Note_on_c, 0, 48, 0
2, 81235, Note_on_c, 0, 71, 52
2, 81235, Note_on_c, 0, 55, 50
2, 81239, Note_on_c, 0, 48, 60
2, 81338, Note_on_c, 0, 76, 0
2, 81346, Note_on_c, 0, 64, 0
2, 81349, Note_on_c, 0, 76, 89
2, 81354, Note_on_c, 0, 48, 0
2, 81357, Note_on_c, 0, 64, 67
2, 81359, Note_on_c, 0, 48, 66
2, 81360, Note_on_c, 0, 60, 60
2, 81492, Note_on_c, 0, 55, 0
2, 81496, Note_on_c, 0, 83, 81
2, 81500, Note_on_c, 0, 48, 0
2, 81502, Note_on_c, 0, 55, 78
2, 81504, Note_on_c, 0, 52, 73
2, 81504, Note_on_c, 0, 74, 91
2, 81506, Note_on_c, 0, 48, 76
2, 81510, Note_on_c, 0, 62, 78
2, 81513, Note_on_c, 0, 43, 67
2, 81630, Note_on_c, 0, 64, 0
2, 81638, Note_on_c, 0, 76, 0
2, 81640, Note_on_c, 0, 88, 83
2, 81641, Note_on_c, 0, 64, 82
2, 81642, Note_on_c, 0, 76, 70
2, 81761, Note_on_c, 0, 72, 0
2, 81768, Note_on_c, 0, 60, 0
2, 81771, Note_on_c, 0, 72, 87
2, 81774, Note_on_c, 0, 84, 72
2, 81775, Note_on_c, 0, 60, 76
2, 81784, Note_on_c, 0, 83, 0
2, 81795, Note_on_c, 0, 83, 60
2, 81799, Note_on_c, 0, 55, 0
2, 81804, Note_on_c, 0, 79, 63
2, 81811, Note_on_c, 0, 55, 53
2, 81907, Note_on_c, 0, 48, 0
2, 81907, Note_on_c, 0, 60, 0
2, 81907, Note_on_c, 0, 72, 0
2, 81907, Note_on_c, 0, 76, 0
2, 81911, Note_on_c, 0, 72, 96
2, 81912, Note_on_c, 0, 60, 89
2, 81915, Note_on_c, 0, 76, 81
2, 81917, Note_on_c, 0, 48, 78
2, 82045, Note_on_c, 0, 36, 0
2, 82054, Note_on_c, 0, 48, 0
2, 82056, Note_on_c, 0, 36, 59
2, 82153, Control_c, 0, 64, 0
2, 82155, Note_on_c, 0, 84, 0
2, 82155, Note_on_c, 0, 74, 0
2, 82155, Note_on_c, 0, 88, 0
2, 82155, Note_on_c, 0, 36, 0
2, 82156, Note_on_c, 0, 76, 0
2, 82156, Note_on_c, 0, 79, 0
2, 82156, Note_on_c, 0, 52, 0
2, 82156, Note_on_c, 0, 67, 0
2, 82168, Note_on_c, 0, 43, 0
2, 82168, Note_on_c, 0, 83, 0
2, 82176, Note_on_c, 0, 55, 0
2, 82176, Note_on_c, 0, 60, 0
2, 82176, Note_on_c, 0, 64, 0
2, 82176, Note_on_c, 0, 71, 0
2, 82176, Note_on_c, 0, 72, 0
2, 82180, Note_on_c, 0, 72, 90
2, 82180, Note_on_c, 0, 60, 88
2, 82183, Note_on_c, 0, 62, 0
2, 82189, Note_on_c, 0, 62, 90
2, 82191, Note_on_c, 0, 47, 89
2, 82195, Note_on_c, 0, 35, 76
2, 82200, Note_on_c, 0, 71, 78
2, 82214, Control_c, 0, 64, 127
2, 82337, Note_on_c, 0, 67, 62
2, 82339, Note_on_c, 0, 55, 65
2, 82375, Note_on_c, 0, 47, 0
2, 82375, Note_on_c, 0, 71, 0
2, 82385, Note_on_c, 0, 71, 88
2, 82387, Note_on_c, 0, 47, 69
2, 82389, Note_on_c, 0, 59, 79
2, 82467, Note_on_c, 0, 59, 0
2, 82471, Note_on_c, 0, 74, 82
2, 82473, Note_on_c, 0, 59, 65
2, 82590, Note_on_c, 0, 67, 0
2, 82590, Note_on_c, 0, 71, 0
2, 82596, Note_on_c, 0, 79, 98
2, 82598, Note_on_c, 0, 55, 0
2, 82599, Note_on_c, 0, 83, 82
2, 82601, Note_on_c, 0, 67, 84
2, 82601, Note_on_c, 0, 71, 81
2, 82603, Note_on_c, 0, 55, 83
2, 82606, Note_on_c, 0, 47, 0
2, 82606, Note_on_c, 0, 83, 0
2, 82611, Note_on_c, 0, 50, 79
2, 82616, Note_on_c, 0, 47, 71
2, 82721, Note_on_c, 0, 62, 0
2, 82721, Note_on_c, 0, 74, 0
2, 82726, Note_on_c, 0, 86, 90
2, 82729, Note_on_c, 0, 74, 85
2, 82729, Note_on_c, 0, 62, 83
2, 82836, Note_on_c, 0, 79, 0
2, 82842, Note_on_c, 0, 91, 93
2, 82847, Note_on_c, 0, 79, 82
2, 82855, Note_on_c, 0, 83, 66
2, 82867, Note_on_c, 0, 59, 0
2, 82874, Note_on_c, 0, 47, 0
2, 82876, Note_on_c, 0, 59, 62
2, 82879, Note_on_c, 0, 47, 52
2, 82897, Note_on_c, 0, 86, 0
2, 82907, Note_on_c, 0, 86, 88
2, 82944, Note_on_c, 0, 83, 0
2, 82953, Note_on_c, 0, 95, 82
2, 82954, Note_on_c, 0, 83, 87
2, 82959, Note_on_c, 0, 95, 0
2, 82982, Note_on_c, 0, 91, 0
2, 82990, Note_on_c, 0, 74, 0
2, 82990, Note_on_c, 0, 79, 0
2, 82992, Note_on_c, 0, 91, 60
2, 82997, Note_on_c, 0, 74, 76
2, 82997, Note_on_c, 0, 47, 0
2, 82997, Note_on_c, 0, 59, 0
2, 82999, Note_on_c, 0, 79, 77
2, 83003, Note_on_c, 0, 59, 88
2, 83006, Note_on_c, 0, 47, 76
2, 83066, Note_on_c, 0, 76, 76
2, 83120, Note_on_c, 0, 72, 0
2, 83129, Note_on_c, 0, 72, 58
2, 83209, Control_c, 0, 64, 0
2, 83251, Note_on_c, 0, 60, 0
2, 83251, Note_on_c, 0, 72, 0
2, 83254, Note_on_c, 0, 47, 0
2, 83255, Note_on_c, 0, 74, 0
2, 83255, Note_on_c, 0, 72, 91
2, 83256, Note_on_c, 0, 59, 0
2, 83257, Note_on_c, 0, 60, 97
2, 83259, Note_on_c, 0, 71, 0
2, 83262, Note_on_c, 0, 62, 0
2, 83262, Note_on_c, 0, 76, 0
2, 83262, Note_on_c, 0, 50, 0
2, 83262, Note_on_c, 0, 86, 0
2, 83263, Note_on_c, 0, 91, 0
2, 83263, Note_on_c, 0, 79, 0
2, 83265, Note_on_c, 0, 33, 81
2, 83266, Note_on_c, 0, 67, 0
2, 83266, Note_on_c, 0, 83, 0
2, 83268, Note_on_c, 0, 64, 82
2, 83269, Note_on_c, 0, 69, 79
2, 83270, Note_on_c, 0, 45, 87
2, 83274, Note_on_c, 0, 55, 0
2, 83275, Note_on_c, 0, 67, 65
2, 83281, Note_on_c, 0, 35, 0
2, 83297, Control_c, 0, 64, 127
2, 83427, Note_on_c, 0, 33, 0
2, 83435, Note_on_c, 0, 64, 0
2, 83437, Note_on_c, 0, 52, 63
2, 83441, Note_on_c, 0, 64, 46
2, 83535, Note_on_c, 0, 72, 0
2, 83546, Note_on_c, 0, 72, 86
2, 83558, Note_on_c, 0, 60, 0
2, 83561, Note_on_c, 0, 57, 64
2, 83562, Note_on_c, 0, 60, 70
2, 83673, Note_on_c, 0, 64, 0
2, 83679, Note_on_c, 0, 64, 73
2, 83688, Note_on_c, 0, 45, 0
2, 83688, Note_on_c, 0, 52, 0
2, 83690, Note_on_c, 0, 71, 97
2, 83691, Note_on_c, 0, 79, 80
2, 83692, Note_on_c, 0, 76, 83
2, 83692, Note_on_c, 0, 59, 81
2, 83695, Note_on_c, 0, 47, 70
2, 83698, Note_on_c, 0, 52, 71
2, 83699, Note_on_c, 0, 45, 78
2, 83804, Note_on_c, 0, 60, 0
2, 83814, Note_on_c, 0, 60, 83
2, 83816, Note_on_c, 0, 84, 78
2, 83827, Note_on_c, 0, 72, 0
2, 83831, Note_on_c, 0, 72, 70
2, 83831, Note_on_c, 0, 48, 64
2, 83965, Note_on_c, 0, 79, 0
2, 83973, Note_on_c, 0, 45, 0
2, 83973, Note_on_c, 0, 52, 0
2, 83973, Note_on_c, 0, 76, 0
2, 83976, Note_on_c, 0, 79, 73
2, 83978, Note_on_c, 0, 52, 57
2, 83979, Note_on_c, 0, 76, 62
2, 83980, Note_on_c, 0, 67, 0
2, 83981, Note_on_c, 0, 45, 62
2, 83984, Note_on_c, 0, 67, 40
2, 84080, Note_on_c, 0, 72, 0
2, 84091, Note_on_c, 0, 72, 78
2, 84103, Note_on_c, 0, 45, 0
2, 84103, Note_on_c, 0, 57, 0
2, 84111, Note_on_c, 0, 69, 0
2, 84113, Note_on_c, 0, 45, 75
2, 84114, Note_on_c, 0, 57, 81
2, 84115, Note_on_c, 0, 69, 89
2, 84226, Note_on_c, 0, 52, 0
2, 84231, Note_on_c, 0, 52, 65
2, 84311, Note_on_c, 0, 57, 0
2, 84311, Note_on_c, 0, 69, 0
2, 84320, Note_on_c, 0, 69, 65
2, 84321, Note_on_c, 0, 57, 63
2, 84325, Control_c, 0, 64, 0
2, 84380, Note_on_c, 0, 59, 0
2, 84380, Note_on_c, 0, 71, 0
2, 84385, Note_on_c, 0, 71, 81
2, 84386, Note_on_c, 0, 59, 89
2, 84387, Note_on_c, 0, 69, 0
2, 84389, Note_on_c, 0, 43, 83
2, 84392, Note_on_c, 0, 31, 71
2, 84392, Note_on_c, 0, 45, 0
2, 84393, Note_on_c, 0, 79, 0
2, 84394, Note_on_c, 0, 69, 79
2, 84395, Note_on_c, 0, 84, 0
2, 84395, Note_on_c, 0, 57, 0
2, 84403, Note_on_c, 0, 48, 0
2, 84403, Note_on_c, 0, 76, 0
2, 84418, Note_on_c, 0, 47, 0
2, 84418, Note_on_c, 0, 60, 0
2, 84418, Note_on_c, 0, 67, 0
2, 84426, Note_on_c, 0, 72, 0
2, 84433, Note_on_c, 0, 52, 0
2, 84472, Control_c, 0, 64, 127
2, 84538, Note_on_c, 0, 67, 66
2, 84540, Note_on_c, 0, 52, 68
2, 84556, Note_on_c, 0, 31, 0
2, 84595, Note_on_c, 0, 67, 0
2, 84604, Note_on_c, 0, 67, 80
2, 84605, Note_on_c, 0, 55, 78
2, 84664, Note_on_c, 0, 59, 0
2, 84664, Note_on_c, 0, 71, 0
2, 84668, Note_on_c, 0, 71, 78
2, 84671, Note_on_c, 0, 59, 71
2, 84794, Note_on_c, 0, 52, 0
2, 84794, Note_on_c, 0, 64, 0
2, 84803, Note_on_c, 0, 79, 78
2, 84805, Note_on_c, 0, 64, 88
2, 84805, Note_on_c, 0, 52, 78
2, 84805, Note_on_c, 0, 76, 78
2, 84808, Note_on_c, 0, 47, 73
2, 84810, Note_on_c, 0, 71, 0
2, 84820, Note_on_c, 0, 71, 61
2, 84925, Note_on_c, 0, 59, 0
2, 84933, Note_on_c, 0, 55, 0
2, 84933, Note_on_c, 0, 67, 0
2, 84933, Note_on_c, 0, 71, 0
2, 84933, Note_on_c, 0, 79, 0
2, 84935, Note_on_c, 0, 59, 87
2, 84936, Note_on_c, 0, 83, 86
2, 84936, Note_on_c, 0, 71, 82
2, 84937, Note_on_c, 0, 67, 89
2, 84939, Note_on_c, 0, 55, 74
2, 84939, Note_on_c, 0, 79, 79
2, 84940, Note_on_c, 0, 47, 0
2, 84944, Note_on_c, 0, 47, 65
2, 85079, Note_on_c, 0, 76, 0
2, 85079, Note_on_c, 0, 79, 0
2, 85084, Note_on_c, 0, 79, 74
2, 85086, Note_on_c, 0, 55, 0
2, 85086, Note_on_c, 0, 67, 0
2, 85088, Note_on_c, 0, 76, 82
2, 85090, Note_on_c, 0, 67, 68
2, 85092, Note_on_c, 0, 55, 62
2, 85102, Note_on_c, 0, 52, 0
2, 85106, Note_on_c, 0, 52, 55
2, 85145, Note_on_c, 0, 74, 87
2, 85186, Note_on_c, 0, 47, 0
2, 85194, Note_on_c, 0, 43, 0
2, 85194, Note_on_c, 0, 55, 0
2, 85194, Note_on_c, 0, 71, 0
2, 85194, Note_on_c, 0, 83, 0
2, 85196, Note_on_c, 0, 47, 70
2, 85198, Note_on_c, 0, 72, 85
2, 85200, Note_on_c, 0, 83, 84
2, 85201, Note_on_c, 0, 43, 74
2, 85203, Note_on_c, 0, 55, 81
2, 85205, Note_on_c, 0, 71, 89
2, 85240, Note_on_c, 0, 71, 0
2, 85249, Note_on_c, 0, 71, 72
2, 85309, Note_on_c, 0, 69, 0
2, 85309, Note_on_c, 0, 83, 0
2, 85316, Note_on_c, 0, 69, 78
2, 85317, Note_on_c, 0, 71, 0
2, 85318, Note_on_c, 0, 81, 72
2, 85319, Note_on_c, 0, 83, 71
2, 85320, Note_on_c, 0, 57, 64
2, 85323, Note_on_c, 0, 71, 69
2, 85334, Note_on_c, 0, 52, 0
2, 85347, Note_on_c, 0, 67, 0
2, 85347, Note_on_c, 0, 79, 0
2, 85353, Note_on_c, 0, 67, 80
2, 85355, Note_on_c, 0, 79, 69
2, 85452, Control_c, 0, 64, 0
2, 85458, Note_on_c, 0, 59, 0
2, 85459, Note_on_c, 0, 64, 0
2, 85459, Note_on_c, 0, 83, 0
2, 85459, Note_on_c, 0, 71, 0
2, 85459, Note_on_c, 0, 72, 0
2, 85460, Note_on_c, 0, 69, 0
2, 85460, Note_on_c, 0, 47, 0
2, 85460, Note_on_c, 0, 67, 0
2, 85460, Note_on_c, 0, 81, 0
2, 85460, Note_on_c, 0, 79, 0
2, 85461, Note_on_c, 0, 76, 0
2, 85461, Note_on_c, 0, 43, 0
2, 85464, Note_on_c, 0, 74, 0
2, 85467, Note_on_c, 0, 61, 108
2, 85470, Note_on_c, 0, 57, 0
2, 85472, Note_on_c, 0, 42, 100
2, 85473, Note_on_c, 0, 54, 102
2, 85473, Note_on_c, 0, 73, 97
2, 85474, Note_on_c, 0, 66, 97
2, 85478, Note_on_c, 0, 55, 0
2, 85487, Note_on_c, 0, 58, 85
2, 85547, Control_c, 0, 64, 127
2, 85618, Note_on_c, 0, 70, 72
2, 85627, Note_on_c, 0, 49, 68
2, 85754, Note_on_c, 0, 73, 0
2, 85760, Note_on_c, 0, 73, 81
2, 85762, Note_on_c, 0, 54, 0
2, 85762, Note_on_c, 0, 66, 0
2, 85766, Note_on_c, 0, 66, 96
2, 85766, Note_on_c, 0, 54, 88
2, 85908, Note_on_c, 0, 42, 0
2, 85908, Note_on_c, 0, 49, 0
2, 85908, Note_on_c, 0, 61, 0
2, 85908, Note_on_c, 0, 73, 0
2, 85912, Note_on_c, 0, 73, 101
2, 85912, Note_on_c, 0, 49, 83
2, 85912, Note_on_c, 0, 61, 89
2, 85919, Note_on_c, 0, 42, 79
2, 86023, Note_on_c, 0, 66, 0
2, 86034, Note_on_c, 0, 46, 100
2, 86034, Note_on_c, 0, 66, 98
2, 86161, Note_on_c, 0, 73, 0
2, 86172, Note_on_c, 0, 73, 83
2, 86307, Note_on_c, 0, 58, 0
2, 86312, Note_on_c, 0, 58, 99
2, 86319, Note_on_c, 0, 78, 102
2, 86321, Note_on_c, 0, 46, 0
2, 86323, Note_on_c, 0, 42, 0
2, 86323, Note_on_c, 0, 66, 0
2, 86331, Note_on_c, 0, 66, 87
2, 86333, Note_on_c, 0, 42, 80
2, 86334, Note_on_c, 0, 30, 75
2, 86574, Control_c, 0, 64, 0
2, 86577, Note_on_c, 0, 73, 0
2, 86578, Note_on_c, 0, 49, 0
2, 86578, Note_on_c, 0, 78, 0
2, 86578, Note_on_c, 0, 58, 0
2, 86579, Note_on_c, 0, 61, 0
2, 86592, Note_on_c, 0, 30, 0
2, 86599, Note_on_c, 0, 54, 0
2, 86607, Note_on_c, 0, 66, 0
2, 86607, Note_on_c, 0, 70, 0
2, 86612, Note_on_c, 0, 64, 108
2, 86616, Note_on_c, 0, 76, 107
2, 86618, Note_on_c, 0, 66, 100
2, 86619, Note_on_c, 0, 71, 91
2, 86622, Note_on_c, 0, 47, 98
2, 86625, Note_on_c, 0, 35, 78
2, 86661, Control_c, 0, 64, 127
2, 86737, Note_on_c, 0, 71, 0
2, 86749, Note_on_c, 0, 71, 70
2, 86899, Note_on_c, 0, 76, 0
2, 86906, Note_on_c, 0, 71, 0
2, 86909, Note_on_c, 0, 59, 83
2, 86910, Note_on_c, 0, 76, 101
2, 86910, Note_on_c, 0, 71, 79
2, 87030, Note_on_c, 0, 75, 92
2, 87031, Note_on_c, 0, 83, 79
2, 87037, Note_on_c, 0, 83, 0
2, 87045, Note_on_c, 0, 47, 0
2, 87052, Note_on_c, 0, 47, 79
2, 87055, Note_on_c, 0, 54, 62
2, 87056, Note_on_c, 0, 51, 73
2, 87075, Note_on_c, 0, 76, 0
2, 87086, Note_on_c, 0, 76, 68
2, 87160, Note_on_c, 0, 54, 0
2, 87160, Note_on_c, 0, 59, 0
2, 87160, Note_on_c, 0, 71, 0
2, 87161, Note_on_c, 0, 78, 107
2, 87164, Note_on_c, 0, 63, 100
2, 87165, Note_on_c, 0, 90, 107
2, 87167, Note_on_c, 0, 71, 98
2, 87169, Note_on_c, 0, 54, 86
2, 87170, Note_on_c, 0, 59, 86
2, 87177, Note_on_c, 0, 87, 86
2, 87301, Note_on_c, 0, 83, 78
2, 87306, Note_on_c, 0, 71, 0
2, 87311, Note_on_c, 0, 71, 79
2, 87352, Note_on_c, 0, 75, 0
2, 87363, Note_on_c, 0, 75, 86
2, 87398, Note_on_c, 0, 78, 0
2, 87402, Note_on_c, 0, 78, 105
2, 87406, Note_on_c, 0, 47, 0
2, 87417, Note_on_c, 0, 47, 65
2, 87444, Note_on_c, 0, 59, 0
2, 87453, Note_on_c, 0, 59, 84
2, 87467, Note_on_c, 0, 83, 0
2, 87472, Note_on_c, 0, 83, 87
2, 87473, Note_on_c, 0, 95, 86
2, 87521, Note_on_c, 0, 87, 0
2, 87529, Note_on_c, 0, 87, 95
2, 87559, Note_on_c, 0, 90, 0
2, 87563, Note_on_c, 0, 90, 90
2, 87598, Note_on_c, 0, 95, 0
2, 87602, Note_on_c, 0, 95, 106
2, 87711, Note_on_c, 0, 95, 0
2, 87714, Note_on_c, 0, 76, 0
2, 87715, Note_on_c, 0, 54, 0
2, 87715, Note_on_c, 0, 64, 0
2, 87715, Note_on_c, 0, 66, 0
2, 87716, Note_on_c, 0, 51, 0
2, 87716, Note_on_c, 0, 83, 0
2, 87716, Note_on_c, 0, 47, 0
2, 87716, Note_on_c, 0, 75, 0
2, 87716, Note_on_c, 0, 78, 0
2, 87717, Note_on_c, 0, 90, 0
2, 87717, Note_on_c, 0, 87, 0
2, 87717, Note_on_c, 0, 91, 107
2, 87721, Note_on_c, 0, 79, 105
2, 87724, Note_on_c, 0, 52, 106
2, 87724, Note_on_c, 0, 88, 96
2, 87725, Note_on_c, 0, 40, 95
2, 87726, Control_c, 0, 64, 0
2, 87728, Note_on_c, 0, 35, 0
2, 87728, Note_on_c, 0, 42, 0
2, 87728, Note_on_c, 0, 59, 0
2, 87728, Note_on_c, 0, 63, 0
2, 87728, Note_on_c, 0, 71, 0
2, 87813, Control_c, 0, 64, 127
2, 88005, Note_on_c, 0, 79, 0
2, 88009, Note_on_c, 0, 79, 95
2, 88011, Note_on_c, 0, 76, 94
2, 88011, Note_on_c, 0, 55, 77
2, 88011, Note_on_c, 0, 64, 80
2, 88014, Note_on_c, 0, 67, 85
2, 88016, Note_on_c, 0, 71, 86
2, 88290, Control_c, 0, 64, 0
2, 88293, Note_on_c, 0, 78, 109
2, 88293, Note_on_c, 0, 90, 105
2, 88294, Note_on_c, 0, 50, 99
2, 88296, Note_on_c, 0, 38, 100
2, 88298, Note_on_c, 0, 66, 100
2, 88299, Note_on_c, 0, 71, 0
2, 88301, Note_on_c, 0, 79, 0
2, 88301, Note_on_c, 0, 91, 0
2, 88302, Note_on_c, 0, 52, 0
2, 88302, Note_on_c, 0, 67, 0
2, 88302, Note_on_c, 0, 55, 0
2, 88305, Note_on_c, 0, 76, 0
2, 88307, Note_on_c, 0, 88, 0
2, 88335, Note_on_c, 0, 64, 0
2, 88366, Control_c, 0, 64, 127
2, 88579, Note_on_c, 0, 74, 98
2, 88581, Note_on_c, 0, 66, 0
2, 88585, Note_on_c, 0, 62, 86
2, 88585, Note_on_c, 0, 71, 73
2, 88587, Note_on_c, 0, 66, 78
2, 88590, Note_on_c, 0, 59, 79
2, 88591, Note_on_c, 0, 54, 84
2, 88834, Note_on_c, 0, 40, 0
2, 88865, Control_c, 0, 64, 0
2, 88866, Note_on_c, 0, 71, 0
2, 88867, Note_on_c, 0, 66, 0
2, 88867, Note_on_c, 0, 59, 0
2, 88867, Note_on_c, 0, 62, 0
2, 88868, Note_on_c, 0, 54, 0
2, 88868, Note_on_c, 0, 90, 0
2, 88868, Note_on_c, 0, 50, 0
2, 88868, Note_on_c, 0, 74, 0
2, 88868, Note_on_c, 0, 78, 0
2, 88868, Note_on_c, 0, 38, 0
2, 88878, Note_on_c, 0, 48, 104
2, 88880, Note_on_c, 0, 36, 96
2, 88882, Note_on_c, 0, 88, 103
2, 88882, Note_on_c, 0, 84, 95
2, 88886, Note_on_c, 0, 76, 99
2, 88887, Note_on_c, 0, 79, 95
2, 88942, Control_c, 0, 64, 127
2, 89157, Note_on_c, 0, 76, 0
2, 89161, Note_on_c, 0, 76, 99
2, 89162, Note_on_c, 0, 64, 93
2, 89184, Note_on_c, 0, 52, 80
2, 89184, Note_on_c, 0, 55, 60
2, 89416, Control_c, 0, 64, 0
2, 89420, Note_on_c, 0, 84, 0
2, 89421, Note_on_c, 0, 52, 0
2, 89421, Note_on_c, 0, 48, 0
2, 89421, Note_on_c, 0, 76, 0
2, 89421, Note_on_c, 0, 64, 0
2, 89421, Note_on_c, 0, 88, 0
2, 89422, Note_on_c, 0, 55, 0
2, 89422, Note_on_c, 0, 36, 0
2, 89444, Note_on_c, 0, 47, 97
2, 89445, Note_on_c, 0, 74, 108
2, 89445, Note_on_c, 0, 86, 100
2, 89446, Note_on_c, 0, 35, 94
2, 89448, Note_on_c, 0, 79, 0
2, 89452, Note_on_c, 0, 83, 95
2, 89452, Note_on_c, 0, 79, 100
2, 89495, Control_c, 0, 64, 127
2, 89715, Note_on_c, 0, 67, 87
2, 89722, Note_on_c, 0, 55, 78
2, 89725, Note_on_c, 0, 47, 0
2, 89729, Note_on_c, 0, 47, 66
2, 90008, Control_c, 0, 64, 0
2, 90010, Note_on_c, 0, 47, 0
2, 90012, Note_on_c, 0, 83, 0
2, 90012, Note_on_c, 0, 74, 0
2, 90012, Note_on_c, 0, 86, 0
2, 90012, Note_on_c, 0, 45, 89
2, 90012, Note_on_c, 0, 67, 0
2, 90012, Note_on_c, 0, 79, 0
2, 90012, Note_on_c, 0, 55, 0
2, 90013, Note_on_c, 0, 33, 87
2, 90016, Note_on_c, 0, 84, 88
2, 90016, Note_on_c, 0, 81, 82
2, 90017, Note_on_c, 0, 35, 0
2, 90019, Note_on_c, 0, 72, 86
2, 90020, Note_on_c, 0, 69, 81
2, 90078, Control_c, 0, 64, 127
2, 90286, Note_on_c, 0, 72, 0
2, 90295, Note_on_c, 0, 72, 93
2, 90297, Note_on_c, 0, 60, 80
2, 90301, Note_on_c, 0, 45, 0
2, 90301, Note_on_c, 0, 64, 70
2, 90308, Note_on_c, 0, 57, 73
2, 90311, Note_on_c, 0, 45, 76
2, 90547, Note_on_c, 0, 33, 0
2, 90551, Note_on_c, 0, 84, 0
2, 90551, Note_on_c, 0, 72, 0
2, 90551, Note_on_c, 0, 64, 0
2, 90551, Control_c, 0, 64, 0
2, 90552, Note_on_c, 0, 69, 0
2, 90552, Note_on_c, 0, 60, 0
2, 90552, Note_on_c, 0, 45, 0
2, 90552, Note_on_c, 0, 57, 0
2, 90553, Note_on_c, 0, 81, 0
2, 90577, Note_on_c, 0, 71, 95
2, 90580, Note_on_c, 0, 83, 94
2, 90582, Note_on_c, 0, 66, 80
2, 90582, Note_on_c, 0, 50, 89
2, 90582, Note_on_c, 0, 62, 84
2, 90582, Note_on_c, 0, 59, 87
2, 90583, Note_on_c, 0, 38, 87
2, 90586, Note_on_c, 0, 78, 80
2, 90588, Note_on_c, 0, 74, 80
2, 90647, Control_c, 0, 64, 127
2, 90854, Note_on_c, 0, 50, 0
2, 90854, Note_on_c, 0, 59, 0
2, 90858, Note_on_c, 0, 67, 90
2, 90860, Note_on_c, 0, 55, 82
2, 90863, Note_on_c, 0, 59, 69
2, 90863, Note_on_c, 0, 50, 77
2, 91096, Control_c, 0, 64, 0
2, 91096, Note_on_c, 0, 74, 0
2, 91096, Note_on_c, 0, 50, 0
2, 91096, Note_on_c, 0, 83, 0
2, 91096, Note_on_c, 0, 66, 0
2, 91096, Note_on_c, 0, 55, 0
2, 91096, Note_on_c, 0, 71, 0
2, 91096, Note_on_c, 0, 67, 0
2, 91097, Note_on_c, 0, 78, 0
2, 91097, Note_on_c, 0, 38, 0
2, 91097, Note_on_c, 0, 59, 0
2, 91100, Note_on_c, 0, 62, 0
2, 91131, Note_on_c, 0, 31, 83
2, 91133, Note_on_c, 0, 81, 95
2, 91133, Note_on_c, 0, 69, 99
2, 91134, Note_on_c, 0, 43, 91
2, 91134, Note_on_c, 0, 57, 86
2, 91139, Note_on_c, 0, 66, 80
2, 91141, Note_on_c, 0, 74, 86
2, 91146, Note_on_c, 0, 57, 0
2, 91200, Control_c, 0, 64, 127
2, 91215, Note_on_c, 0, 31, 0
2, 91433, Note_on_c, 0, 59, 74
2, 91438, Note_on_c, 0, 55, 56
2, 91441, Note_on_c, 0, 50, 65
2, 91568, Note_on_c, 0, 59, 0
2, 91577, Note_on_c, 0, 71, 94
2, 91579, Note_on_c, 0, 59, 83
2, 91691, Note_on_c, 0, 71, 0
2, 91698, Note_on_c, 0, 83, 96
2, 91702, Note_on_c, 0, 47, 94
2, 91702, Note_on_c, 0, 71, 98
2, 91702, Note_on_c, 0, 35, 90
2, 91703, Note_on_c, 0, 74, 0
2, 91703, Note_on_c, 0, 75, 96
2, 91708, Note_on_c, 0, 78, 88
2, 91729, Note_on_c, 0, 66, 0
2, 91752, Note_on_c, 0, 50, 0
2, 91980, Note_on_c, 0, 51, 90
2, 91980, Note_on_c, 0, 54, 76
2, 91983, Note_on_c, 0, 43, 0
2, 92258, Control_c, 0, 64, 0
2, 92259, Note_on_c, 0, 55, 0
2, 92260, Note_on_c, 0, 83, 0
2, 92261, Note_on_c, 0, 71, 0
2, 92262, Note_on_c, 0, 47, 0
2, 92262, Note_on_c, 0, 35, 0
2, 92262, Note_on_c, 0, 75, 0
2, 92262, Note_on_c, 0, 51, 0
2, 92263, Note_on_c, 0, 78, 0
2, 92267, Note_on_c, 0, 69, 0
2, 92267, Note_on_c, 0, 81, 0
2, 92272, Note_on_c, 0, 52, 109
2, 92274, Note_on_c, 0, 40, 98
2, 92275, Note_on_c, 0, 59, 0
2, 92305, Note_on_c, 0, 54, 0
2, 92336, Control_c, 0, 64, 127
2, 92367, Note_on_c, 0, 40, 0
2, 92394, Note_on_c, 0, 83, 90
2, 92395, Note_on_c, 0, 71, 89
2, 92538, Note_on_c, 0, 88, 99
2, 92540, Note_on_c, 0, 76, 98
2, 92541, Note_on_c, 0, 67, 97
2, 92543, Note_on_c, 0, 79, 103
2, 92543, Note_on_c, 0, 59, 75
2, 92544, Note_on_c, 0, 71, 0
2, 92547, Note_on_c, 0, 91, 101
2, 92547, Note_on_c, 0, 55, 81
2, 92547, Note_on_c, 0, 64, 78
2, 92548, Note_on_c, 0, 71, 87
2, 92587, Note_on_c, 0, 74, 50
2, 92659, Note_on_c, 0, 91, 0
2, 92666, Note_on_c, 0, 79, 0
2, 92670, Note_on_c, 0, 91, 95
2, 92672, Note_on_c, 0, 79, 88
2, 92817, Note_on_c, 0, 50, 103
2, 92820, Note_on_c, 0, 71, 0
2, 92820, Note_on_c, 0, 74, 0
2, 92822, Note_on_c, 0, 38, 98
2, 92826, Note_on_c, 0, 66, 105
2, 92828, Note_on_c, 0, 74, 92
2, 92830, Note_on_c, 0, 78, 98
2, 92830, Note_on_c, 0, 71, 85
2, 92943, Note_on_c, 0, 71, 0
2, 92943, Note_on_c, 0, 83, 0
2, 92947, Note_on_c, 0, 83, 88
2, 92948, Note_on_c, 0, 71, 83
2, 93089, Note_on_c, 0, 59, 0
2, 93089, Note_on_c, 0, 74, 0
2, 93095, Note_on_c, 0, 86, 95
2, 93096, Note_on_c, 0, 50, 0
2, 93099, Note_on_c, 0, 74, 89
2, 93100, Note_on_c, 0, 59, 79
2, 93100, Note_on_c, 0, 62, 90
2, 93101, Note_on_c, 0, 50, 84
2, 93109, Note_on_c, 0, 54, 68
2, 93219, Note_on_c, 0, 78, 0
2, 93226, Note_on_c, 0, 90, 101
2, 93226, Note_on_c, 0, 78, 94
2, 93353, Control_c, 0, 64, 0
2, 93358, Note_on_c, 0, 64, 0
2, 93360, Note_on_c, 0, 83, 0
2, 93360, Note_on_c, 0, 90, 0
2, 93360, Note_on_c, 0, 62, 0
2, 93360, Note_on_c, 0, 71, 0
2, 93360, Note_on_c, 0, 59, 0
2, 93360, Note_on_c, 0, 86, 0
2, 93361, Note_on_c, 0, 38, 0
2, 93361, Note_on_c, 0, 66, 0
2, 93361, Note_on_c, 0, 50, 0
2, 93361, Note_on_c, 0, 74, 0
2, 93361, Note_on_c, 0, 52, 0
2, 93361, Note_on_c, 0, 88, 0
2, 93361, Note_on_c, 0, 91, 0
2, 93361, Note_on_c, 0, 78, 0
2, 93362, Note_on_c, 0, 79, 0
2, 93362, Note_on_c, 0, 76, 0
2, 93373, Note_on_c, 0, 54, 0
2, 93373, Note_on_c, 0, 55, 0
2, 93373, Note_on_c, 0, 67, 0
2, 93377, Note_on_c, 0, 48, 95
2, 93378, Note_on_c, 0, 36, 92
2, 93379, Note_on_c, 0, 67, 85
2, 93381, Note_on_c, 0, 55, 87
2, 93419, Control_c, 0, 64, 127
2, 93508, Note_on_c, 0, 79, 91
2, 93509, Note_on_c, 0, 91, 85
2, 93649, Note_on_c, 0, 55, 0
2, 93650, Note_on_c, 0, 76, 104
2, 93651, Note_on_c, 0, 64, 100
2, 93652, Note_on_c, 0, 84, 95
2, 93653, Note_on_c, 0, 72, 96
2, 93655, Note_on_c, 0, 55, 77
2, 93656, Note_on_c, 0, 52, 81
2, 93688, Note_on_c, 0, 91, 0
2, 93788, Note_on_c, 0, 76, 0
2, 93792, Note_on_c, 0, 88, 95
2, 93792, Note_on_c, 0, 48, 0
2, 93794, Note_on_c, 0, 76, 90
2, 93905, Note_on_c, 0, 84, 0
2, 93905, Note_on_c, 0, 72, 0
2, 93906, Note_on_c, 0, 52, 0
2, 93906, Note_on_c, 0, 88, 0
2, 93906, Note_on_c, 0, 79, 0
2, 93906, Note_on_c, 0, 76, 0
2, 93907, Note_on_c, 0, 64, 0
2, 93907, Control_c, 0, 64, 0
2, 93907, Note_on_c, 0, 55, 0
2, 93911, Note_on_c, 0, 36, 0
2, 93931, Note_on_c, 0, 47, 102
2, 93934, Note_on_c, 0, 67, 0
2, 93936, Note_on_c, 0, 35, 93
2, 93937, Note_on_c, 0, 83, 95
2, 93938, Note_on_c, 0, 71, 91
2, 93938, Note_on_c, 0, 67, 88
2, 93938, Note_on_c, 0, 74, 98
2, 93938, Note_on_c, 0, 62, 97
2, 93941, Note_on_c, 0, 83, 0
2, 93972, Control_c, 0, 64, 127
2, 94062, Note_on_c, 0, 79, 85
2, 94202, Note_on_c, 0, 67, 0
2, 94210, Note_on_c, 0, 71, 0
2, 94212, Note_on_c, 0, 83, 90
2, 94213, Note_on_c, 0, 67, 82
2, 94213, Note_on_c, 0, 55, 87
2, 94214, Note_on_c, 0, 50, 83
2, 94215, Note_on_c, 0, 71, 87
2, 94341, Note_on_c, 0, 74, 0
2, 94344, Note_on_c, 0, 86, 101
2, 94346, Note_on_c, 0, 74, 87
2, 94467, Note_on_c, 0, 86, 0
2, 94467, Note_on_c, 0, 71, 0
2, 94467, Note_on_c, 0, 67, 0
2, 94467, Note_on_c, 0, 47, 0
2, 94467, Note_on_c, 0, 83, 0
2, 94467, Note_on_c, 0, 74, 0
2, 94468, Note_on_c, 0, 79, 0
2, 94468, Note_on_c, 0, 62, 0
2, 94468, Note_on_c, 0, 50, 0
2, 94468, Note_on_c, 0, 55, 0
2, 94470, Control_c, 0, 64, 0
2, 94479, Note_on_c, 0, 35, 0
2, 94492, Note_on_c, 0, 33, 100
2, 94492, Note_on_c, 0, 45, 108
2, 94497, Note_on_c, 0, 57, 98
2, 94498, Note_on_c, 0, 69, 98
2, 94498, Note_on_c, 0, 64, 95
2, 94499, Note_on_c, 0, 76, 92
2, 94525, Control_c, 0, 64, 127
2, 94627, Note_on_c, 0, 81, 97
2, 94632, Note_on_c, 0, 69, 0
2, 94637, Note_on_c, 0, 69, 87
2, 94640, Note_on_c, 0, 45, 0
2, 94640, Note_on_c, 0, 57, 0
2, 94640, Note_on_c, 0, 64, 0
2, 94648, Note_on_c, 0, 45, 72
2, 94651, Note_on_c, 0, 64, 75
2, 94652, Note_on_c, 0, 57, 88
2, 94764, Note_on_c, 0, 52, 82
2, 94764, Note_on_c, 0, 48, 85
2, 94765, Note_on_c, 0, 84, 103
2, 94766, Note_on_c, 0, 60, 84
2, 94768, Note_on_c, 0, 72, 92
2, 94901, Note_on_c, 0, 76, 0
2, 94901, Note_on_c, 0, 81, 0
2, 94905, Note_on_c, 0, 88, 98
2, 94907, Note_on_c, 0, 76, 92
2, 94909, Note_on_c, 0, 57, 0
2, 94911, Note_on_c, 0, 81, 74
2, 94917, Note_on_c, 0, 45, 0
2, 94918, Note_on_c, 0, 57, 75
2, 94920, Note_on_c, 0, 69, 0
2, 94926, Note_on_c, 0, 45, 74
2, 95019, Note_on_c, 0, 84, 0
2, 95020, Note_on_c, 0, 72, 0
2, 95020, Note_on_c, 0, 52, 0
2, 95020, Note_on_c, 0, 48, 0
2, 95020, Note_on_c, 0, 81, 0
2, 95020, Note_on_c, 0, 88, 0
2, 95020, Note_on_c, 0, 60, 0
2, 95020, Note_on_c, 0, 45, 0
2, 95021, Note_on_c, 0, 57, 0
2, 95021, Note_on_c, 0, 76, 0
2, 95021, Note_on_c, 0, 64, 0
2, 95021, Control_c, 0, 64, 0
2, 95024, Note_on_c, 0, 33, 0
2, 95045, Note_on_c, 0, 47, 107
2, 95047, Note_on_c, 0, 35, 99
2, 95051, Note_on_c, 0, 59, 103
2, 95051, Note_on_c, 0, 71, 98
2, 95083, Note_on_c, 0, 47, 0
2, 95088, Note_on_c, 0, 59, 0
2, 95093, Control_c, 0, 64, 127
2, 95124, Note_on_c, 0, 35, 0
2, 95170, Note_on_c, 0, 71, 0
2, 95174, Note_on_c, 0, 71, 79
2, 95174, Note_on_c, 0, 83, 82
2, 95178, Note_on_c, 0, 59, 75
2, 95180, Note_on_c, 0, 35, 57
2, 95181, Note_on_c, 0, 47, 71
2, 95185, Note_on_c, 0, 63, 70
2, 95305, Note_on_c, 0, 87, 101
2, 95316, Note_on_c, 0, 59, 0
2, 95316, Note_on_c, 0, 63, 0
2, 95316, Note_on_c, 0, 75, 94
2, 95320, Note_on_c, 0, 63, 82
2, 95324, Note_on_c, 0, 59, 82
2, 95324, Note_on_c, 0, 81, 103
2, 95325, Note_on_c, 0, 69, 101
2, 95326, Note_on_c, 0, 57, 82
2, 95326, Note_on_c, 0, 51, 80
2, 95457, Note_on_c, 0, 92, 96
2, 95460, Note_on_c, 0, 80, 76
2, 95570, Control_c, 0, 64, 0
2, 95571, Note_on_c, 0, 87, 0
2, 95572, Note_on_c, 0, 83, 0
2, 95573, Note_on_c, 0, 92, 0
2, 95573, Note_on_c, 0, 75, 0
2, 95573, Note_on_c, 0, 71, 0
2, 95573, Note_on_c, 0, 63, 0
2, 95573, Note_on_c, 0, 81, 0
2, 95573, Note_on_c, 0, 80, 0
2, 95573, Note_on_c, 0, 47, 0
2, 95574, Note_on_c, 0, 35, 0
2, 95575, Note_on_c, 0, 59, 0
2, 95577, Note_on_c, 0, 57, 0
2, 95585, Note_on_c, 0, 51, 0
2, 95600, Note_on_c, 0, 69, 0
2, 95602, Note_on_c, 0, 52, 107
2, 95604, Note_on_c, 0, 78, 101
2, 95604, Note_on_c, 0, 69, 92
2, 95604, Note_on_c, 0, 40, 93
2, 95608, Note_on_c, 0, 66, 98
2, 95639, Control_c, 0, 64, 127
2, 95715, Note_on_c, 0, 52, 0
2, 95718, Note_on_c, 0, 83, 93
2, 95720, Note_on_c, 0, 52, 77
2, 95725, Note_on_c, 0, 71, 80
2, 95860, Note_on_c, 0, 88, 102
2, 95861, Note_on_c, 0, 52, 0
2, 95865, Note_on_c, 0, 76, 98
2, 95867, Note_on_c, 0, 57, 77
2, 95870, Note_on_c, 0, 52, 83
2, 95871, Note_on_c, 0, 59, 77
2, 95882, Note_on_c, 0, 47, 58
2, 95998, Note_on_c, 0, 93, 103
2, 96005, Note_on_c, 0, 81, 92
2, 96007, Note_on_c, 0, 76, 0
2, 96012, Note_on_c, 0, 64, 82
2, 96014, Note_on_c, 0, 76, 83
2, 96125, Note_on_c, 0, 92, 100
2, 96138, Note_on_c, 0, 40, 0
2, 96138, Note_on_c, 0, 64, 0
2, 96142, Note_on_c, 0, 83, 0
2, 96143, Note_on_c, 0, 59, 0
2, 96144, Note_on_c, 0, 93, 0
2, 96145, Note_on_c, 0, 64, 99
2, 96145, Note_on_c, 0, 52, 0
2, 96145, Note_on_c, 0, 76, 0
2, 96146, Note_on_c, 0, 57, 0
2, 96147, Note_on_c, 0, 88, 0
2, 96147, Note_on_c, 0, 81, 0
2, 96147, Control_c, 0, 64, 0
2, 96148, Note_on_c, 0, 69, 0
2, 96148, Note_on_c, 0, 40, 92
2, 96149, Note_on_c, 0, 78, 0
2, 96149, Note_on_c, 0, 80, 81
2, 96150, Note_on_c, 0, 52, 102
2, 96150, Note_on_c, 0, 76, 95
2, 96150, Note_on_c, 0, 68, 90
2, 96153, Note_on_c, 0, 66, 0
2, 96168, Note_on_c, 0, 47, 0
2, 96176, Control_c, 0, 64, 127
2, 96215, Note_on_c, 0, 68, 0
2, 96261, Note_on_c, 0, 76, 0
2, 96264, Note_on_c, 0, 88, 106
2, 96265, Note_on_c, 0, 76, 97
2, 96399, Note_on_c, 0, 71, 0
2, 96405, Note_on_c, 0, 71, 99
2, 96406, Note_on_c, 0, 47, 73
2, 96407, Note_on_c, 0, 56, 84
2, 96408, Note_on_c, 0, 83, 87
2, 96408, Note_on_c, 0, 59, 84
2, 96445, Note_on_c, 0, 92, 0
2, 96664, Note_on_c, 0, 52, 0
2, 96665, Note_on_c, 0, 56, 0
2, 96665, Note_on_c, 0, 64, 0
2, 96667, Note_on_c, 0, 59, 0
2, 96667, Note_on_c, 0, 71, 0
2, 96667, Note_on_c, 0, 88, 0
2, 96667, Note_on_c, 0, 83, 0
2, 96668, Note_on_c, 0, 40, 0
2, 96668, Note_on_c, 0, 76, 0
2, 96669, Control_c, 0, 64, 0
2, 96675, Note_on_c, 0, 80, 0
2, 96678, Note_on_c, 0, 76, 80
2, 96683, Note_on_c, 0, 47, 0
2, 96706, Note_on_c, 0, 76, 0
2, 96716, Note_on_c, 0, 76, 98
2, 96718, Note_on_c, 0, 72, 104
2, 96719, Note_on_c, 0, 84, 103
2, 96720, Note_on_c, 0, 45, 106
2, 96720, Note_on_c, 0, 33, 96
2, 96729, Control_c, 0, 64, 127
2, 96731, Note_on_c, 0, 81, 95
2, 96783, Note_on_c, 0, 33, 0
2, 96871, Note_on_c, 0, 83, 87
2, 96878, Note_on_c, 0, 71, 78
2, 96897, Note_on_c, 0, 52, 40
2, 96904, Note_on_c, 0, 48, 39
2, 96975, Note_on_c, 0, 72, 0
2, 96979, Note_on_c, 0, 72, 82
2, 97008, Note_on_c, 0, 69, 80
2, 97013, Note_on_c, 0, 81, 0
2, 97018, Note_on_c, 0, 81, 79
2, 97021, Note_on_c, 0, 48, 0
2, 97025, Note_on_c, 0, 48, 71
2, 97029, Note_on_c, 0, 52, 0
2, 97034, Note_on_c, 0, 52, 55
2, 97128, Note_on_c, 0, 45, 0
2, 97133, Note_on_c, 0, 45, 62
2, 97144, Note_on_c, 0, 71, 0
2, 97144, Note_on_c, 0, 83, 0
2, 97153, Note_on_c, 0, 71, 74
2, 97154, Note_on_c, 0, 83, 68
2, 97213, Note_on_c, 0, 48, 0
2, 97213, Note_on_c, 0, 72, 0
2, 97213, Note_on_c, 0, 76, 0
2, 97213, Note_on_c, 0, 84, 0
2, 97217, Note_on_c, 0, 84, 94
2, 97219, Note_on_c, 0, 72, 100
2, 97221, Note_on_c, 0, 52, 0
2, 97223, Note_on_c, 0, 76, 85
2, 97224, Note_on_c, 0, 48, 84
2, 97226, Note_on_c, 0, 52, 86
2, 97397, Note_on_c, 0, 48, 0
2, 97405, Note_on_c, 0, 45, 0
2, 97405, Note_on_c, 0, 52, 0
2, 97405, Note_on_c, 0, 76, 0
2, 97408, Note_on_c, 0, 48, 78
2, 97409, Note_on_c, 0, 57, 73
2, 97409, Note_on_c, 0, 52, 73
2, 97409, Note_on_c, 0, 45, 77
2, 97410, Note_on_c, 0, 88, 97
2, 97416, Note_on_c, 0, 76, 75
2, 97466, Note_on_c, 0, 52, 0
2, 97471, Note_on_c, 0, 52, 53
2, 97500, Control_c, 0, 64, 0
2, 97501, Note_on_c, 0, 81, 0
2, 97502, Note_on_c, 0, 45, 0
2, 97502, Note_on_c, 0, 83, 0
2, 97503, Note_on_c, 0, 76, 0
2, 97503, Note_on_c, 0, 84, 0
2, 97504, Note_on_c, 0, 71, 0
2, 97506, Note_on_c, 0, 69, 0
2, 97506, Note_on_c, 0, 88, 0
2, 97520, Note_on_c, 0, 48, 0
2, 97520, Note_on_c, 0, 57, 0
2, 97528, Note_on_c, 0, 52, 0
2, 97528, Note_on_c, 0, 72, 0
2, 97530, Note_on_c, 0, 57, 63
2, 97532, Note_on_c, 0, 52, 74
2, 97534, Note_on_c, 0, 72, 74
2, 97538, Note_on_c, 0, 48, 64
2, 97570, Note_on_c, 0, 57, 0
2, 97574, Note_on_c, 0, 52, 0
2, 97600, Note_on_c, 0, 76, 61
2, 97600, Note_on_c, 0, 64, 64
2, 97651, Note_on_c, 0, 48, 0
2, 97676, Note_on_c, 0, 69, 71
2, 97678, Note_on_c, 0, 57, 63
2, 97684, Note_on_c, 0, 45, 61
2, 97704, Note_on_c, 0, 72, 0
2, 97724, Note_on_c, 0, 69, 0
2, 97725, Note_on_c, 0, 45, 0
2, 97735, Note_on_c, 0, 64, 0
2, 97735, Note_on_c, 0, 76, 0
2, 97737, Note_on_c, 0, 48, 54
2, 97741, Note_on_c, 0, 76, 60
2, 97741, Note_on_c, 0, 64, 69
2, 97743, Note_on_c, 0, 57, 0
2, 97774, Note_on_c, 0, 48, 0
2, 97789, Note_on_c, 0, 64, 0
2, 97804, Note_on_c, 0, 76, 0
2, 97804, Control_c, 0, 64, 127
2, 97811, Note_on_c, 0, 45, 93
2, 97814, Note_on_c, 0, 72, 102
2, 97815, Note_on_c, 0, 76, 97
2, 97815, Note_on_c, 0, 84, 94
2, 97816, Note_on_c, 0, 33, 75
2, 97822, Note_on_c, 0, 81, 90
2, 97827, Note_on_c, 0, 33, 0
2, 97961, Note_on_c, 0, 83, 84
2, 97961, Note_on_c, 0, 71, 87
2, 98041, Note_on_c, 0, 64, 62
2, 98043, Note_on_c, 0, 48, 49
2, 98047, Note_on_c, 0, 52, 50
2, 98096, Note_on_c, 0, 48, 0
2, 98096, Note_on_c, 0, 52, 0
2, 98096, Note_on_c, 0, 81, 0
2, 98102, Note_on_c, 0, 52, 89
2, 98103, Note_on_c, 0, 48, 85
2, 98103, Note_on_c, 0, 69, 102
2, 98105, Note_on_c, 0, 81, 95
2, 98234, Note_on_c, 0, 45, 0
2, 98234, Note_on_c, 0, 52, 0
2, 98234, Note_on_c, 0, 71, 0
2, 98234, Note_on_c, 0, 83, 0
2, 98239, Note_on_c, 0, 45, 72
2, 98239, Note_on_c, 0, 83, 96
2, 98239, Note_on_c, 0, 71, 99
2, 98241, Note_on_c, 0, 52, 70
2, 98304, Note_on_c, 0, 52, 0
2, 98315, Note_on_c, 0, 52, 83
2, 98319, Note_on_c, 0, 48, 0
2, 98319, Note_on_c, 0, 72, 0
2, 98324, Note_on_c, 0, 48, 88
2, 98327, Note_on_c, 0, 84, 0
2, 98330, Note_on_c, 0, 72, 99
2, 98338, Note_on_c, 0, 84, 90
2, 98357, Note_on_c, 0, 76, 0
2, 98362, Note_on_c, 0, 76, 70
2, 98511, Note_on_c, 0, 83, 0
2, 98515, Note_on_c, 0, 83, 83
2, 98519, Note_on_c, 0, 45, 0
2, 98519, Note_on_c, 0, 71, 0
2, 98522, Note_on_c, 0, 69, 0
2, 98523, Note_on_c, 0, 71, 70
2, 98528, Note_on_c, 0, 57, 54
2, 98528, Note_on_c, 0, 45, 46
2, 98580, Note_on_c, 0, 48, 0
2, 98580, Note_on_c, 0, 76, 0
2, 98586, Note_on_c, 0, 76, 57
2, 98586, Note_on_c, 0, 48, 53
2, 98608, Control_c, 0, 64, 0
2, 98623, Note_on_c, 0, 48, 0
2, 98623, Note_on_c, 0, 84, 0
2, 98624, Note_on_c, 0, 72, 0
2, 98625, Note_on_c, 0, 76, 0
2, 98626, Note_on_c, 0, 64, 0
2, 98626, Note_on_c, 0, 71, 0
2, 98627, Note_on_c, 0, 83, 0
2, 98628, Note_on_c, 0, 45, 0
2, 98641, Note_on_c, 0, 52, 0
2, 98649, Note_on_c, 0, 81, 0
2, 98649, Note_on_c, 0, 52, 66
2, 98660, Note_on_c, 0, 81, 95
2, 98668, Note_on_c, 0, 69, 77
2, 98672, Note_on_c, 0, 45, 56
2, 98696, Note_on_c, 0, 69, 0
2, 98703, Note_on_c, 0, 57, 0
2, 98726, Note_on_c, 0, 45, 0
2, 98769, Note_on_c, 0, 69, 71
2, 98781, Note_on_c, 0, 57, 66
2, 98797, Note_on_c, 0, 45, 60
2, 98799, Note_on_c, 0, 79, 93
2, 98801, Note_on_c, 0, 67, 67
2, 98841, Note_on_c, 0, 52, 0
2, 98847, Note_on_c, 0, 57, 0
2, 98848, Note_on_c, 0, 69, 0
2, 98849, Note_on_c, 0, 81, 0
2, 98852, Note_on_c, 0, 48, 58
2, 98852, Note_on_c, 0, 45, 0
2, 98853, Note_on_c, 0, 67, 0
2, 98853, Note_on_c, 0, 64, 50
2, 98860, Note_on_c, 0, 79, 0
2, 98895, Note_on_c, 0, 48, 0
2, 98903, Note_on_c, 0, 64, 0
2, 98921, Note_on_c, 0, 77, 104
2, 98924, Note_on_c, 0, 58, 92
2, 98929, Note_on_c, 0, 46, 93
2, 98930, Note_on_c, 0, 65, 94
2, 98935, Note_on_c, 0, 74, 85
2, 98938, Note_on_c, 0, 70, 77
2, 98949, Note_on_c, 0, 58, 0
2, 98956, Control_c, 0, 64, 127
2, 98984, Note_on_c, 0, 62, 50
2, 99064, Note_on_c, 0, 70, 0
2, 99071, Note_on_c, 0, 70, 67
2, 99072, Note_on_c, 0, 46, 0
2, 99082, Note_on_c, 0, 46, 64
2, 99125, Note_on_c, 0, 62, 0
2, 99136, Note_on_c, 0, 62, 42
2, 99141, Note_on_c, 0, 65, 0
2, 99150, Note_on_c, 0, 53, 40
2, 99151, Note_on_c, 0, 65, 62
2, 99173, Note_on_c, 0, 58, 52
2, 99202, Note_on_c, 0, 74, 0
2, 99206, Note_on_c, 0, 74, 68
2, 99233, Note_on_c, 0, 46, 0
2, 99240, Note_on_c, 0, 53, 0
2, 99243, Note_on_c, 0, 46, 50
2, 99247, Note_on_c, 0, 50, 51
2, 99248, Note_on_c, 0, 53, 50
2, 99256, Note_on_c, 0, 62, 0
2, 99264, Note_on_c, 0, 65, 0
2, 99266, Note_on_c, 0, 62, 49
2, 99268, Note_on_c, 0, 65, 54
2, 99321, Control_c, 0, 64, 0
2, 99325, Note_on_c, 0, 62, 0
2, 99325, Note_on_c, 0, 70, 0
2, 99325, Note_on_c, 0, 74, 0
2, 99333, Note_on_c, 0, 46, 0
2, 99333, Note_on_c, 0, 74, 101
2, 99336, Note_on_c, 0, 62, 96
2, 99336, Note_on_c, 0, 70, 98
2, 99338, Note_on_c, 0, 46, 81
2, 99379, Control_c, 0, 64, 127
2, 99471, Note_on_c, 0, 77, 0
2, 99476, Note_on_c, 0, 77, 69
2, 99479, Note_on_c, 0, 58, 0
2, 99486, Note_on_c, 0, 50, 0
2, 99488, Note_on_c, 0, 58, 67
2, 99494, Note_on_c, 0, 50, 73
2, 99494, Note_on_c, 0, 53, 0
2, 99498, Note_on_c, 0, 53, 62
2, 99532, Note_on_c, 0, 65, 0
2, 99541, Note_on_c, 0, 65, 49
2, 99601, Note_on_c, 0, 58, 0
2, 99609, Note_on_c, 0, 46, 0
2, 99609, Note_on_c, 0, 70, 0
2, 99611, Note_on_c, 0, 58, 67
2, 99618, Note_on_c, 0, 70, 75
2, 99619, Note_on_c, 0, 46, 60
2, 99671, Note_on_c, 0, 62, 0
2, 99677, Note_on_c, 0, 62, 51
2, 99694, Note_on_c, 0, 58, 0
2, 99694, Note_on_c, 0, 65, 0
2, 99701, Note_on_c, 0, 58, 52
2, 99701, Note_on_c, 0, 65, 47
2, 99701, Note_on_c, 0, 77, 0
2, 99705, Note_on_c, 0, 77, 52
2, 99740, Note_on_c, 0, 74, 0
2, 99749, Note_on_c, 0, 74, 74
2, 99778, Note_on_c, 0, 46, 0
2, 99778, Note_on_c, 0, 50, 0
2, 99787, Note_on_c, 0, 46, 63
2, 99788, Note_on_c, 0, 50, 63
2, 99791, Note_on_c, 0, 53, 0
2, 99801, Note_on_c, 0, 58, 0
2, 99801, Note_on_c, 0, 65, 0
2, 99808, Note_on_c, 0, 58, 54
2, 99811, Note_on_c, 0, 65, 61
2, 99870, Note_on_c, 0, 70, 0
2, 99878, Note_on_c, 0, 58, 0
2, 99882, Note_on_c, 0, 70, 81
2, 99884, Note_on_c, 0, 58, 65
2, 99939, Note_on_c, 0, 62, 0
2, 99949, Note_on_c, 0, 62, 57
2, 100008, Note_on_c, 0, 58, 0
2, 100008, Note_on_c, 0, 62, 0
2, 100008, Note_on_c, 0, 65, 0
2, 100008, Note_on_c, 0, 70, 0
2, 100008, Note_on_c, 0, 77, 0
2, 100013, Note_on_c, 0, 77, 89
2, 100015, Note_on_c, 0, 65, 82
2, 100015, Note_on_c, 0, 70, 103
2, 100015, Note_on_c, 0, 62, 91
2, 100016, Note_on_c, 0, 46, 0
2, 100018, Note_on_c, 0, 58, 84
2, 100019, Control_c, 0, 64, 0
2, 100023, Note_on_c, 0, 46, 79
2, 100055, Note_on_c, 0, 50, 0
2, 100055, Control_c, 0, 64, 127
2, 100147, Note_on_c, 0, 46, 0
2, 100147, Note_on_c, 0, 58, 0
2, 100151, Note_on_c, 0, 58, 74
2, 100152, Note_on_c, 0, 46, 61
2, 100193, Note_on_c, 0, 74, 0
2, 100197, Note_on_c, 0, 74, 84
2, 100200, Note_on_c, 0, 70, 0
2, 100205, Note_on_c, 0, 70, 65
2, 100208, Note_on_c, 0, 62, 0
2, 100219, Note_on_c, 0, 62, 55
2, 100277, Note_on_c, 0, 58, 0
2, 100277, Note_on_c, 0, 77, 0
2, 100282, Note_on_c, 0, 77, 81
2, 100284, Note_on_c, 0, 58, 68
2, 100333, Note_on_c, 0, 82, 80
2, 100336, Note_on_c, 0, 53, 40
2, 100346, Note_on_c, 0, 62, 0
2, 100356, Note_on_c, 0, 62, 46
2, 100372, Note_on_c, 0, 86, 78
2, 100416, Note_on_c, 0, 58, 0
2, 100421, Note_on_c, 0, 58, 73
2, 100431, Note_on_c, 0, 65, 0
2, 100431, Note_on_c, 0, 74, 0
2, 100437, Note_on_c, 0, 89, 91
2, 100437, Note_on_c, 0, 74, 78
2, 100440, Note_on_c, 0, 65, 60
2, 100446, Note_on_c, 0, 70, 0
2, 100452, Note_on_c, 0, 70, 73
2, 100477, Note_on_c, 0, 62, 0
2, 100479, Note_on_c, 0, 94, 92
2, 100488, Note_on_c, 0, 62, 66
2, 100567, Note_on_c, 0, 101, 103
2, 100569, Note_on_c, 0, 46, 0
2, 100569, Note_on_c, 0, 53, 0
2, 100569, Note_on_c, 0, 58, 0
2, 100573, Note_on_c, 0, 46, 75
2, 100573, Note_on_c, 0, 58, 71
2, 100580, Note_on_c, 0, 53, 64
2, 100630, Note_on_c, 0, 98, 84
2, 100638, Note_on_c, 0, 62, 0
2, 100643, Note_on_c, 0, 62, 45
2, 100669, Note_on_c, 0, 94, 0
2, 100678, Note_on_c, 0, 94, 76
2, 100692, Note_on_c, 0, 46, 0
2, 100696, Note_on_c, 0, 46, 75
2, 100700, Note_on_c, 0, 58, 0
2, 100700, Note_on_c, 0, 89, 0
2, 100707, Note_on_c, 0, 58, 74
2, 100711, Note_on_c, 0, 89, 76
2, 100776, Note_on_c, 0, 62, 0
2, 100776, Note_on_c, 0, 86, 0
2, 100780, Note_on_c, 0, 62, 71
2, 100783, Note_on_c, 0, 86, 78
2, 100830, Note_on_c, 0, 58, 0
2, 100840, Note_on_c, 0, 58, 72
2, 100846, Note_on_c, 0, 82, 0
2, 100853, Note_on_c, 0, 53, 0
2, 100853, Note_on_c, 0, 65, 0
2, 100855, Note_on_c, 0, 82, 71
2, 100858, Note_on_c, 0, 65, 65
2, 100864, Note_on_c, 0, 53, 73
2, 100866, Note_on_c, 0, 50, 69
2, 100876, Note_on_c, 0, 77, 0
2, 100887, Note_on_c, 0, 77, 70
2, 100898, Note_on_c, 0, 81, 58
2, 100953, Note_on_c, 0, 58, 0
2, 100953, Note_on_c, 0, 74, 0
2, 100953, Note_on_c, 0, 82, 0
2, 100961, Note_on_c, 0, 46, 0
2, 100962, Note_on_c, 0, 82, 74
2, 100963, Note_on_c, 0, 74, 70
2, 100963, Note_on_c, 0, 58, 73
2, 101007, Note_on_c, 0, 70, 0
2, 101012, Note_on_c, 0, 70, 73
2, 101045, Note_on_c, 0, 62, 0
2, 101055, Note_on_c, 0, 62, 66
2, 101061, Note_on_c, 0, 65, 0
2, 101069, Note_on_c, 0, 65, 63
2, 101099, Note_on_c, 0, 81, 0
2, 101102, Control_c, 0, 64, 0
2, 101110, Note_on_c, 0, 101, 0
2, 101111, Note_on_c, 0, 98, 0
2, 101111, Note_on_c, 0, 86, 0
2, 101111, Note_on_c, 0, 94, 0
2, 101112, Note_on_c, 0, 89, 0
2, 101112, Note_on_c, 0, 62, 0
2, 101113, Note_on_c, 0, 74, 0
2, 101113, Note_on_c, 0, 58, 0
2, 101114, Note_on_c, 0, 70, 0
2, 101114, Note_on_c, 0, 82, 0
2, 101114, Note_on_c, 0, 65, 0
2, 101116, Note_on_c, 0, 50, 0
2, 101117, Note_on_c, 0, 53, 0
2, 101130, Note_on_c, 0, 77, 0
2, 101135, Note_on_c, 0, 76, 95
2, 101136, Note_on_c, 0, 45, 107
2, 101139, Note_on_c, 0, 33, 96
2, 101139, Note_on_c, 0, 72, 102
2, 101140, Note_on_c, 0, 84, 101
2, 101160, Control_c, 0, 64, 127
2, 101290, Note_on_c, 0, 83, 90
2, 101292, Note_on_c, 0, 71, 89
2, 101358, Note_on_c, 0, 64, 70
2, 101391, Note_on_c, 0, 72, 0
2, 101395, Note_on_c, 0, 72, 75
2, 101441, Note_on_c, 0, 69, 95
2, 101443, Note_on_c, 0, 81, 97
2, 101444, Note_on_c, 0, 57, 73
2, 101447, Note_on_c, 0, 48, 79
2, 101543, Note_on_c, 0, 60, 74
2, 101543, Note_on_c, 0, 53, 63
2, 101552, Note_on_c, 0, 53, 0
2, 101552, Note_on_c, 0, 69, 0
2, 101556, Note_on_c, 0, 69, 68
2, 101583, Note_on_c, 0, 60, 0
2, 101583, Note_on_c, 0, 71, 0
2, 101590, Note_on_c, 0, 71, 77
2, 101593, Note_on_c, 0, 60, 60
2, 101598, Note_on_c, 0, 64, 0
2, 101609, Note_on_c, 0, 64, 66
2, 101652, Note_on_c, 0, 60, 0
2, 101652, Note_on_c, 0, 72, 0
2, 101652, Note_on_c, 0, 84, 0
2, 101659, Note_on_c, 0, 72, 103
2, 101659, Note_on_c, 0, 84, 100
2, 101663, Control_c, 0, 64, 0
2, 101663, Note_on_c, 0, 60, 84
2, 101667, Note_on_c, 0, 76, 0
2, 101672, Note_on_c, 0, 45, 0
2, 101675, Note_on_c, 0, 48, 0
2, 101677, Note_on_c, 0, 76, 78
2, 101679, Note_on_c, 0, 48, 77
2, 101680, Note_on_c, 0, 52, 89
2, 101690, Control_c, 0, 64, 127
2, 101867, Note_on_c, 0, 57, 0
2, 101872, Note_on_c, 0, 57, 63
2, 101873, Note_on_c, 0, 88, 86
2, 101875, Note_on_c, 0, 64, 0
2, 101882, Note_on_c, 0, 76, 0
2, 101886, Note_on_c, 0, 64, 62
2, 101887, Note_on_c, 0, 76, 50
2, 101959, Note_on_c, 0, 72, 0
2, 101965, Note_on_c, 0, 72, 78
2, 101985, Control_c, 0, 64, 0
2, 101987, Note_on_c, 0, 71, 0
2, 101990, Note_on_c, 0, 83, 0
2, 101990, Note_on_c, 0, 84, 0
2, 101990, Note_on_c, 0, 48, 0
2, 101990, Note_on_c, 0, 60, 0
2, 101991, Note_on_c, 0, 76, 0
2, 101992, Note_on_c, 0, 52, 0
2, 101992, Note_on_c, 0, 69, 0
2, 101992, Note_on_c, 0, 88, 0
2, 101992, Note_on_c, 0, 57, 0
2, 102005, Note_on_c, 0, 53, 65
2, 102005, Note_on_c, 0, 33, 0
2, 102005, Note_on_c, 0, 81, 0
2, 102021, Note_on_c, 0, 64, 0
2, 102021, Note_on_c, 0, 72, 0
2, 102030, Note_on_c, 0, 64, 49
2, 102051, Note_on_c, 0, 53, 0
2, 102110, Note_on_c, 0, 57, 60
2, 102111, Note_on_c, 0, 69, 64
2, 102136, Note_on_c, 0, 64, 0
2, 102154, Note_on_c, 0, 69, 0
2, 102165, Note_on_c, 0, 60, 49
2, 102169, Note_on_c, 0, 64, 67
2, 102174, Note_on_c, 0, 57, 0
2, 102194, Note_on_c, 0, 64, 0
2, 102197, Note_on_c, 0, 60, 0
2, 102236, Control_c, 0, 64, 127
2, 102238, Note_on_c, 0, 45, 95
2, 102239, Note_on_c, 0, 72, 103
2, 102239, Note_on_c, 0, 84, 100
2, 102240, Note_on_c, 0, 33, 85
2, 102243, Note_on_c, 0, 76, 92
2, 102250, Note_on_c, 0, 81, 80
2, 102387, Note_on_c, 0, 71, 83
2, 102388, Note_on_c, 0, 83, 85
2, 102447, Note_on_c, 0, 64, 73
2, 102527, Note_on_c, 0, 52, 72
2, 102528, Note_on_c, 0, 81, 0
2, 102532, Note_on_c, 0, 69, 86
2, 102532, Note_on_c, 0, 81, 94
2, 102551, Note_on_c, 0, 33, 0
2, 102575, Note_on_c, 0, 48, 54
2, 102658, Note_on_c, 0, 45, 0
2, 102658, Note_on_c, 0, 71, 0
2, 102658, Note_on_c, 0, 83, 0
2, 102663, Note_on_c, 0, 83, 97
2, 102663, Note_on_c, 0, 71, 91
2, 102668, Note_on_c, 0, 45, 71
2, 102735, Note_on_c, 0, 52, 0
2, 102735, Note_on_c, 0, 72, 0
2, 102735, Note_on_c, 0, 84, 0
2, 102739, Note_on_c, 0, 64, 0
2, 102743, Note_on_c, 0, 48, 0
2, 102743, Note_on_c, 0, 76, 0
2, 102745, Note_on_c, 0, 84, 99
2, 102746, Note_on_c, 0, 52, 90
2, 102746, Note_on_c, 0, 72, 102
2, 102749, Note_on_c, 0, 48, 86
2, 102751, Note_on_c, 0, 76, 82
2, 102835, Note_on_c, 0, 45, 0
2, 102843, Note_on_c, 0, 45, 64
2, 102942, Note_on_c, 0, 45, 0
2, 102942, Note_on_c, 0, 71, 0
2, 102942, Note_on_c, 0, 83, 0
2, 102949, Note_on_c, 0, 45, 58
2, 102950, Note_on_c, 0, 83, 80
2, 102953, Note_on_c, 0, 71, 72
2, 103000, Note_on_c, 0, 69, 0
2, 103000, Note_on_c, 0, 45, 0
2, 103000, Note_on_c, 0, 71, 0
2, 103000, Note_on_c, 0, 84, 0
2, 103000, Note_on_c, 0, 72, 0
2, 103000, Note_on_c, 0, 76, 0
2, 103000, Control_c, 0, 64, 0
2, 103001, Note_on_c, 0, 81, 0
2, 103011, Note_on_c, 0, 52, 0
2, 103019, Note_on_c, 0, 48, 0
2, 103019, Note_on_c, 0, 83, 0
2, 103055, Note_on_c, 0, 57, 63
2, 103067, Note_on_c, 0, 52, 67
2, 103070, Note_on_c, 0, 72, 80
2, 103079, Note_on_c, 0, 48, 61
2, 103082, Note_on_c, 0, 76, 65
2, 103084, Note_on_c, 0, 84, 74
2, 103104, Note_on_c, 0, 57, 0
2, 103165, Note_on_c, 0, 72, 0
2, 103168, Note_on_c, 0, 84, 0
2, 103173, Note_on_c, 0, 69, 76
2, 103174, Note_on_c, 0, 48, 0
2, 103175, Note_on_c, 0, 52, 0
2, 103188, Note_on_c, 0, 76, 0
2, 103195, Note_on_c, 0, 57, 70
2, 103204, Note_on_c, 0, 45, 72
2, 103214, Note_on_c, 0, 88, 94
2, 103215, Note_on_c, 0, 76, 89
2, 103244, Note_on_c, 0, 64, 71
2, 103247, Note_on_c, 0, 48, 60
2, 103249, Note_on_c, 0, 88, 0
2, 103253, Note_on_c, 0, 45, 0
2, 103257, Note_on_c, 0, 69, 0
2, 103272, Note_on_c, 0, 57, 0
2, 103280, Note_on_c, 0, 76, 0
2, 103296, Note_on_c, 0, 64, 0
2, 103303, Note_on_c, 0, 48, 0
2, 103336, Note_on_c, 0, 77, 98
2, 103338, Note_on_c, 0, 46, 84
2, 103338, Note_on_c, 0, 74, 104
2, 103339, Note_on_c, 0, 86, 93
2, 103340, Note_on_c, 0, 82, 100
2, 103365, Control_c, 0, 64, 127
2, 103380, Note_on_c, 0, 65, 61
2, 103388, Note_on_c, 0, 65, 0
2, 103472, Note_on_c, 0, 70, 73
2, 103488, Note_on_c, 0, 46, 0
2, 103493, Note_on_c, 0, 46, 70
2, 103530, Note_on_c, 0, 62, 56
2, 103540, Note_on_c, 0, 65, 59
2, 103595, Note_on_c, 0, 74, 0
2, 103599, Note_on_c, 0, 74, 80
2, 103630, Note_on_c, 0, 53, 63
2, 103656, Note_on_c, 0, 50, 52
2, 103664, Note_on_c, 0, 62, 0
2, 103664, Note_on_c, 0, 65, 0
2, 103669, Note_on_c, 0, 65, 53
2, 103670, Note_on_c, 0, 62, 64
2, 103733, Note_on_c, 0, 70, 0
2, 103739, Note_on_c, 0, 58, 68
2, 103740, Note_on_c, 0, 70, 77
2, 103741, Note_on_c, 0, 46, 0
2, 103751, Note_on_c, 0, 46, 64
2, 103802, Note_on_c, 0, 53, 0
2, 103810, Note_on_c, 0, 62, 0
2, 103810, Note_on_c, 0, 65, 0
2, 103814, Note_on_c, 0, 53, 58
2, 103814, Note_on_c, 0, 62, 58
2, 103815, Note_on_c, 0, 65, 55
2, 103856, Note_on_c, 0, 77, 0
2, 103864, Note_on_c, 0, 58, 0
2, 103866, Note_on_c, 0, 77, 81
2, 103872, Note_on_c, 0, 58, 64
2, 103902, Note_on_c, 0, 46, 0
2, 103910, Note_on_c, 0, 50, 0
2, 103910, Note_on_c, 0, 53, 0
2, 103911, Note_on_c, 0, 46, 60
2, 103916, Note_on_c, 0, 53, 65
2, 103918, Note_on_c, 0, 65, 0
2, 103918, Note_on_c, 0, 74, 0
2, 103918, Note_on_c, 0, 50, 68
2, 103922, Note_on_c, 0, 74, 62
2, 103929, Note_on_c, 0, 65, 63
2, 104002, Note_on_c, 0, 58, 0
2, 104002, Note_on_c, 0, 70, 0
2, 104010, Note_on_c, 0, 58, 67
2, 104012, Note_on_c, 0, 70, 79
2, 104079, Note_on_c, 0, 62, 0
2, 104079, Note_on_c, 0, 65, 0
2, 104085, Note_on_c, 0, 62, 59
2, 104087, Note_on_c, 0, 65, 65
2, 104140, Note_on_c, 0, 58, 0
2, 104140, Note_on_c, 0, 74, 0
2, 104146, Note_on_c, 0, 74, 77
2, 104148, Note_on_c, 0, 58, 57
2, 104171, Note_on_c, 0, 50, 0
2, 104171, Note_on_c, 0, 53, 0
2, 104177, Note_on_c, 0, 53, 55
2, 104182, Note_on_c, 0, 50, 57
2, 104202, Note_on_c, 0, 65, 0
2, 104202, Note_on_c, 0, 86, 0
2, 104211, Note_on_c, 0, 65, 62
2, 104279, Note_on_c, 0, 58, 0
2, 104279, Note_on_c, 0, 70, 0
2, 104283, Note_on_c, 0, 58, 70
2, 104284, Note_on_c, 0, 70, 81
2, 104348, Note_on_c, 0, 62, 0
2, 104352, Note_on_c, 0, 62, 56
2, 104394, Note_on_c, 0, 77, 0
2, 104400, Note_on_c, 0, 77, 99
2, 104409, Note_on_c, 0, 70, 0
2, 104417, Note_on_c, 0, 46, 0
2, 104420, Note_on_c, 0, 70, 86
2, 104425, Note_on_c, 0, 46, 78
2, 104428, Note_on_c, 0, 34, 73
2, 104471, Note_on_c, 0, 62, 0
2, 104471, Note_on_c, 0, 65, 0
2, 104478, Note_on_c, 0, 62, 61
2, 104478, Note_on_c, 0, 65, 53
2, 104524, Note_on_c, 0, 70, 0
2, 104531, Note_on_c, 0, 70, 81
2, 104540, Note_on_c, 0, 58, 0
2, 104549, Note_on_c, 0, 58, 80
2, 104563, Note_on_c, 0, 46, 0
2, 104563, Note_on_c, 0, 74, 0
2, 104567, Note_on_c, 0, 74, 89
2, 104571, Note_on_c, 0, 46, 70
2, 104624, Note_on_c, 0, 62, 0
2, 104632, Note_on_c, 0, 77, 0
2, 104633, Note_on_c, 0, 62, 59
2, 104636, Note_on_c, 0, 77, 92
2, 104678, Note_on_c, 0, 58, 0
2, 104678, Note_on_c, 0, 70, 0
2, 104678, Note_on_c, 0, 82, 0
2, 104682, Note_on_c, 0, 70, 74
2, 104683, Note_on_c, 0, 58, 74
2, 104688, Note_on_c, 0, 82, 82
2, 104716, Note_on_c, 0, 53, 0
2, 104724, Note_on_c, 0, 62, 0
2, 104727, Note_on_c, 0, 53, 50
2, 104728, Note_on_c, 0, 86, 75
2, 104733, Note_on_c, 0, 62, 65
2, 104739, Note_on_c, 0, 50, 0
2, 104745, Note_on_c, 0, 50, 64
2, 104788, Note_on_c, 0, 89, 90
2, 104793, Note_on_c, 0, 74, 0
2, 104801, Note_on_c, 0, 65, 0
2, 104804, Note_on_c, 0, 74, 84
2, 104807, Note_on_c, 0, 65, 72
2, 104808, Note_on_c, 0, 58, 0
2, 104816, Note_on_c, 0, 46, 0
2, 104820, Note_on_c, 0, 58, 80
2, 104826, Note_on_c, 0, 46, 79
2, 104838, Note_on_c, 0, 94, 91
2, 104878, Note_on_c, 0, 62, 0
2, 104882, Note_on_c, 0, 98, 73
2, 104883, Note_on_c, 0, 62, 76
2, 104927, Note_on_c, 0, 101, 99
2, 104939, Note_on_c, 0, 53, 0
2, 104948, Note_on_c, 0, 53, 62
2, 104970, Note_on_c, 0, 98, 0
2, 104975, Note_on_c, 0, 98, 79
2, 105016, Note_on_c, 0, 62, 0
2, 105016, Note_on_c, 0, 94, 0
2, 105022, Note_on_c, 0, 62, 72
2, 105024, Note_on_c, 0, 50, 0
2, 105026, Note_on_c, 0, 94, 83
2, 105027, Note_on_c, 0, 50, 69
2, 105031, Note_on_c, 0, 89, 0
2, 105040, Note_on_c, 0, 89, 90
2, 105085, Note_on_c, 0, 58, 0
2, 105091, Note_on_c, 0, 58, 79
2, 105146, Note_on_c, 0, 62, 0
2, 105157, Note_on_c, 0, 62, 82
2, 105186, Note_on_c, 0, 86, 0
2, 105192, Note_on_c, 0, 70, 0
2, 105192, Note_on_c, 0, 77, 0
2, 105192, Note_on_c, 0, 82, 0
2, 105200, Note_on_c, 0, 82, 96
2, 105200, Note_on_c, 0, 65, 0
2, 105202, Note_on_c, 0, 70, 96
2, 105203, Note_on_c, 0, 77, 107
2, 105205, Note_on_c, 0, 65, 91
2, 105208, Note_on_c, 0, 50, 0
2, 105208, Note_on_c, 0, 53, 0
2, 105208, Note_on_c, 0, 58, 0
2, 105212, Note_on_c, 0, 58, 93
2, 105213, Note_on_c, 0, 50, 85
2, 105214, Note_on_c, 0, 53, 81
2, 105446, Control_c, 0, 64, 0
2, 105450, Note_on_c, 0, 98, 0
2, 105451, Note_on_c, 0, 82, 0
2, 105456, Note_on_c, 0, 34, 0
2, 105457, Note_on_c, 0, 70, 0
2, 105468, Note_on_c, 0, 50, 0
2, 105469, Note_on_c, 0, 101, 0
2, 105473, Note_on_c, 0, 58, 0
2, 105475, Note_on_c, 0, 69, 94
2, 105477, Note_on_c, 0, 62, 0
2, 105477, Note_on_c, 0, 94, 0
2, 105480, Note_on_c, 0, 53, 0
2, 105481, Note_on_c, 0, 45, 88
2, 105481, Note_on_c, 0, 84, 102
2, 105481, Note_on_c, 0, 65, 0
2, 105482, Note_on_c, 0, 72, 101
2, 105482, Note_on_c, 0, 33, 81
2, 105483, Note_on_c, 0, 81, 98
2, 105484, Note_on_c, 0, 46, 0
2, 105484, Note_on_c, 0, 89, 0
2, 105486, Note_on_c, 0, 76, 95
2, 105492, Note_on_c, 0, 74, 0
2, 105500, Note_on_c, 0, 77, 0
2, 105530, Note_on_c, 0, 69, 0
2, 105535, Note_on_c, 0, 45, 0
2, 105538, Note_on_c, 0, 33, 0
2, 105553, Control_c, 0, 64, 127
2, 105633, Note_on_c, 0, 83, 99
2, 105639, Note_on_c, 0, 71, 87
2, 105640, Note_on_c, 0, 45, 75
2, 105642, Note_on_c, 0, 52, 73
2, 105761, Note_on_c, 0, 81, 0
2, 105768, Note_on_c, 0, 52, 0
2, 105769, Note_on_c, 0, 69, 92
2, 105772, Note_on_c, 0, 57, 80
2, 105772, Note_on_c, 0, 81, 98
2, 105774, Note_on_c, 0, 52, 73
2, 105776, Note_on_c, 0, 57, 0
2, 105784, Note_on_c, 0, 45, 0
2, 105790, Note_on_c, 0, 45, 68
2, 105795, Note_on_c, 0, 48, 67
2, 105899, Note_on_c, 0, 71, 0
2, 105899, Note_on_c, 0, 83, 0
2, 105906, Note_on_c, 0, 83, 94
2, 105910, Note_on_c, 0, 71, 78
2, 105922, Note_on_c, 0, 45, 0
2, 105922, Note_on_c, 0, 52, 0
2, 105928, Note_on_c, 0, 52, 59
2, 105930, Note_on_c, 0, 48, 0
2, 105931, Note_on_c, 0, 45, 65
2, 105940, Note_on_c, 0, 48, 62
2, 105984, Note_on_c, 0, 52, 0
2, 105984, Note_on_c, 0, 84, 0
2, 105991, Note_on_c, 0, 72, 0
2, 105993, Note_on_c, 0, 52, 66
2, 105995, Note_on_c, 0, 84, 104
2, 105995, Note_on_c, 0, 72, 99
2, 106037, Note_on_c, 0, 69, 0
2, 106048, Note_on_c, 0, 69, 81
2, 106056, Note_on_c, 0, 57, 71
2, 106083, Note_on_c, 0, 52, 0
2, 106087, Note_on_c, 0, 52, 75
2, 106106, Note_on_c, 0, 45, 0
2, 106106, Note_on_c, 0, 48, 0
2, 106112, Note_on_c, 0, 45, 62
2, 106112, Note_on_c, 0, 48, 71
2, 106214, Note_on_c, 0, 45, 0
2, 106214, Note_on_c, 0, 52, 0
2, 106214, Note_on_c, 0, 76, 0
2, 106217, Note_on_c, 0, 88, 102
2, 106219, Note_on_c, 0, 76, 97
2, 106224, Note_on_c, 0, 52, 68
2, 106225, Note_on_c, 0, 45, 70
2, 106337, Note_on_c, 0, 69, 0
2, 106343, Note_on_c, 0, 69, 81
2, 106360, Note_on_c, 0, 45, 0
2, 106360, Note_on_c, 0, 48, 0
2, 106360, Note_on_c, 0, 52, 0
2, 106364, Note_on_c, 0, 52, 80
2, 106365, Note_on_c, 0, 48, 76
2, 106369, Note_on_c, 0, 45, 72
2, 106483, Note_on_c, 0, 57, 0
2, 106488, Note_on_c, 0, 64, 69
2, 106490, Note_on_c, 0, 45, 0
2, 106490, Note_on_c, 0, 69, 0
2, 106492, Note_on_c, 0, 57, 68
2, 106496, Note_on_c, 0, 69, 63
2, 106496, Note_on_c, 0, 45, 76
2, 106498, Note_on_c, 0, 48, 0
2, 106498, Note_on_c, 0, 52, 0
2, 106502, Note_on_c, 0, 48, 62
2, 106508, Note_on_c, 0, 52, 62
2, 106558, Note_on_c, 0, 81, 0
2, 106558, Note_on_c, 0, 83, 0
2, 106558, Note_on_c, 0, 57, 0
2, 106558, Note_on_c, 0, 69, 0
2, 106558, Note_on_c, 0, 84, 0
2, 106558, Note_on_c, 0, 52, 0
2, 106559, Note_on_c, 0, 45, 0
2, 106559, Note_on_c, 0, 48, 0
2, 106560, Note_on_c, 0, 64, 0
2, 106560, Note_on_c, 0, 76, 0
2, 106560, Note_on_c, 0, 72, 0
2, 106560, Note_on_c, 0, 88, 0
2, 106561, Control_c, 0, 64, 0
2, 106575, Note_on_c, 0, 71, 0
2, 106625, Note_on_c, 0, 84, 103
2, 106632, Note_on_c, 0, 72, 94
2, 106633, Note_on_c, 0, 45, 85
2, 106633, Note_on_c, 0, 76, 90
2, 106634, Note_on_c, 0, 69, 88
2, 106636, Note_on_c, 0, 33, 80
2, 106659, Control_c, 0, 64, 127
2, 106682, Note_on_c, 0, 69, 0
2, 106759, Note_on_c, 0, 33, 0
2, 106774, Note_on_c, 0, 83, 94
2, 106775, Note_on_c, 0, 45, 0
2, 106781, Note_on_c, 0, 45, 71
2, 106781, Note_on_c, 0, 71, 85
2, 106784, Note_on_c, 0, 52, 72
2, 106785, Note_on_c, 0, 48, 67
2, 106790, Note_on_c, 0, 52, 0
2, 106920, Note_on_c, 0, 45, 0
2, 106920, Note_on_c, 0, 48, 0
2, 106922, Note_on_c, 0, 81, 94
2, 106922, Note_on_c, 0, 69, 91
2, 106925, Note_on_c, 0, 45, 74
2, 106926, Note_on_c, 0, 52, 67
2, 106930, Note_on_c, 0, 48, 73
2, 107036, Note_on_c, 0, 71, 0
2, 107036, Note_on_c, 0, 83, 0
2, 107042, Note_on_c, 0, 83, 88
2, 107047, Note_on_c, 0, 71, 71
2, 107059, Note_on_c, 0, 45, 0
2, 107059, Note_on_c, 0, 52, 0
2, 107063, Note_on_c, 0, 45, 65
2, 107070, Note_on_c, 0, 52, 59
2, 107128, Note_on_c, 0, 72, 0
2, 107128, Note_on_c, 0, 84, 0
2, 107132, Note_on_c, 0, 84, 99
2, 107134, Note_on_c, 0, 72, 91
2, 107189, Note_on_c, 0, 69, 0
2, 107197, Note_on_c, 0, 45, 0
2, 107199, Note_on_c, 0, 69, 86
2, 107200, Note_on_c, 0, 57, 77
2, 107201, Note_on_c, 0, 45, 75
2, 107205, Note_on_c, 0, 52, 0
2, 107210, Note_on_c, 0, 52, 63
2, 107220, Note_on_c, 0, 48, 0
2, 107227, Note_on_c, 0, 48, 62
2, 107351, Note_on_c, 0, 45, 0
2, 107351, Note_on_c, 0, 83, 0
2, 107358, Note_on_c, 0, 52, 0
2, 107358, Note_on_c, 0, 71, 0
2, 107362, Note_on_c, 0, 45, 70
2, 107362, Note_on_c, 0, 83, 100
2, 107362, Note_on_c, 0, 52, 70
2, 107369, Note_on_c, 0, 71, 88
2, 107473, Note_on_c, 0, 69, 0
2, 107481, Note_on_c, 0, 45, 0
2, 107481, Note_on_c, 0, 48, 0
2, 107481, Note_on_c, 0, 57, 0
2, 107483, Note_on_c, 0, 69, 92
2, 107486, Note_on_c, 0, 45, 74
2, 107487, Note_on_c, 0, 57, 77
2, 107489, Note_on_c, 0, 52, 0
2, 107489, Note_on_c, 0, 81, 0
2, 107492, Note_on_c, 0, 48, 71
2, 107493, Note_on_c, 0, 52, 67
2, 107493, Note_on_c, 0, 81, 99
2, 107612, Note_on_c, 0, 45, 0
2, 107622, Note_on_c, 0, 45, 71
2, 107637, Note_on_c, 0, 79, 81
2, 107638, Note_on_c, 0, 67, 82
2, 107655, Note_on_c, 0, 77, 49
2, 107693, Note_on_c, 0, 84, 0
2, 107693, Note_on_c, 0, 69, 0
2, 107693, Note_on_c, 0, 81, 0
2, 107694, Note_on_c, 0, 45, 0
2, 107694, Note_on_c, 0, 76, 0
2, 107694, Note_on_c, 0, 72, 0
2, 107695, Note_on_c, 0, 67, 0
2, 107695, Control_c, 0, 64, 0
2, 107696, Note_on_c, 0, 57, 0
2, 107697, Note_on_c, 0, 79, 0
2, 107704, Note_on_c, 0, 48, 0
2, 107704, Note_on_c, 0, 71, 0
2, 107704, Note_on_c, 0, 83, 0
2, 107712, Note_on_c, 0, 52, 0
2, 107712, Note_on_c, 0, 77, 0
2, 107750, Note_on_c, 0, 70, 98
2, 107751, Note_on_c, 0, 46, 97
2, 107760, Note_on_c, 0, 77, 99
2, 107760, Note_on_c, 0, 34, 83
2, 107769, Note_on_c, 0, 74, 87
2, 107771, Note_on_c, 0, 65, 87
2, 107781, Control_c, 0, 64, 127
2, 107896, Note_on_c, 0, 46, 0
2, 107903, Note_on_c, 0, 62, 69
2, 107904, Note_on_c, 0, 70, 0
2, 107905, Note_on_c, 0, 58, 74
2, 107906, Note_on_c, 0, 46, 78
2, 107913, Note_on_c, 0, 70, 71
2, 108049, Note_on_c, 0, 46, 0
2, 108049, Note_on_c, 0, 58, 0
2, 108057, Note_on_c, 0, 62, 0
2, 108057, Note_on_c, 0, 74, 0
2, 108058, Note_on_c, 0, 58, 76
2, 108059, Note_on_c, 0, 50, 72
2, 108060, Note_on_c, 0, 46, 77
2, 108061, Note_on_c, 0, 53, 72
2, 108061, Note_on_c, 0, 74, 87
2, 108062, Note_on_c, 0, 62, 70
2, 108188, Note_on_c, 0, 74, 0
2, 108195, Note_on_c, 0, 46, 0
2, 108195, Note_on_c, 0, 62, 0
2, 108195, Note_on_c, 0, 70, 0
2, 108198, Note_on_c, 0, 74, 91
2, 108200, Note_on_c, 0, 62, 78
2, 108202, Note_on_c, 0, 70, 81
2, 108207, Note_on_c, 0, 46, 80
2, 108334, Note_on_c, 0, 46, 0
2, 108334, Note_on_c, 0, 50, 0
2, 108334, Note_on_c, 0, 58, 0
2, 108334, Note_on_c, 0, 65, 0
2, 108334, Note_on_c, 0, 77, 0
2, 108339, Note_on_c, 0, 77, 95
2, 108340, Note_on_c, 0, 46, 87
2, 108341, Note_on_c, 0, 70, 0
2, 108342, Note_on_c, 0, 58, 85
2, 108343, Note_on_c, 0, 65, 75
2, 108345, Note_on_c, 0, 50, 71
2, 108350, Note_on_c, 0, 70, 72
2, 108449, Note_on_c, 0, 70, 0
2, 108459, Note_on_c, 0, 70, 96
2, 108480, Note_on_c, 0, 58, 0
2, 108486, Note_on_c, 0, 58, 73
2, 108487, Note_on_c, 0, 46, 0
2, 108487, Note_on_c, 0, 53, 0
2, 108491, Note_on_c, 0, 46, 78
2, 108493, Note_on_c, 0, 53, 66
2, 108618, Note_on_c, 0, 46, 0
2, 108625, Note_on_c, 0, 34, 0
2, 108625, Note_on_c, 0, 53, 0
2, 108629, Note_on_c, 0, 46, 90
2, 108631, Note_on_c, 0, 82, 98
2, 108631, Note_on_c, 0, 53, 75
2, 108634, Note_on_c, 0, 34, 74
2, 108756, Note_on_c, 0, 46, 0
2, 108764, Note_on_c, 0, 34, 0
2, 108764, Note_on_c, 0, 70, 0
2, 108764, Note_on_c, 0, 74, 0
2, 108766, Note_on_c, 0, 46, 86
2, 108768, Note_on_c, 0, 34, 71
2, 108773, Note_on_c, 0, 70, 74
2, 108773, Note_on_c, 0, 74, 75
2, 108840, Note_on_c, 0, 77, 0
2, 108845, Note_on_c, 0, 77, 75
2, 108853, Note_on_c, 0, 74, 0
2, 108853, Note_on_c, 0, 46, 0
2, 108853, Note_on_c, 0, 53, 0
2, 108853, Note_on_c, 0, 65, 0
2, 108853, Note_on_c, 0, 62, 0
2, 108853, Note_on_c, 0, 82, 0
2, 108854, Control_c, 0, 64, 0
2, 108856, Note_on_c, 0, 34, 0
2, 108871, Note_on_c, 0, 50, 0
2, 108871, Note_on_c, 0, 58, 0
2, 108894, Note_on_c, 0, 70, 0
2, 108900, Note_on_c, 0, 70, 98
2, 108904, Note_on_c, 0, 62, 86
2, 108909, Note_on_c, 0, 46, 98
2, 108910, Note_on_c, 0, 82, 100
2, 108912, Note_on_c, 0, 34, 82
2, 108917, Note_on_c, 0, 34, 0
2, 108933, Control_c, 0, 64, 127
2, 108971, Note_on_c, 0, 77, 0
2, 108980, Note_on_c, 0, 77, 48
2, 109056, Note_on_c, 0, 46, 0
2, 109059, Note_on_c, 0, 74, 79
2, 109060, Note_on_c, 0, 46, 70
2, 109186, Note_on_c, 0, 46, 0
2, 109194, Note_on_c, 0, 82, 0
2, 109197, Note_on_c, 0, 46, 92
2, 109197, Note_on_c, 0, 38, 78
2, 109198, Note_on_c, 0, 86, 92
2, 109198, Note_on_c, 0, 82, 87
2, 109278, Note_on_c, 0, 82, 0
2, 109288, Note_on_c, 0, 82, 79
2, 109317, Note_on_c, 0, 74, 0
2, 109324, Note_on_c, 0, 77, 0
2, 109328, Note_on_c, 0, 74, 102
2, 109331, Note_on_c, 0, 77, 99
2, 109332, Note_on_c, 0, 46, 0
2, 109337, Note_on_c, 0, 46, 86
2, 109486, Note_on_c, 0, 38, 0
2, 109486, Note_on_c, 0, 46, 0
2, 109486, Note_on_c, 0, 86, 0
2, 109488, Note_on_c, 0, 89, 102
2, 109488, Note_on_c, 0, 50, 73
2, 109490, Note_on_c, 0, 46, 90
2, 109490, Note_on_c, 0, 38, 64
2, 109496, Note_on_c, 0, 86, 79
2, 109555, Note_on_c, 0, 86, 0
2, 109561, Note_on_c, 0, 86, 81
2, 109585, Note_on_c, 0, 82, 0
2, 109593, Note_on_c, 0, 46, 0
2, 109595, Note_on_c, 0, 53, 54
2, 109596, Note_on_c, 0, 82, 86
2, 109599, Note_on_c, 0, 46, 75
2, 109632, Note_on_c, 0, 53, 0
2, 109642, Note_on_c, 0, 53, 33
2, 109670, Note_on_c, 0, 46, 0
2, 109678, Note_on_c, 0, 46, 69
2, 109739, Note_on_c, 0, 74, 0
2, 109739, Note_on_c, 0, 77, 0
2, 109746, Note_on_c, 0, 74, 91
2, 109748, Note_on_c, 0, 77, 101
2, 109754, Note_on_c, 0, 46, 0
2, 109754, Note_on_c, 0, 50, 0
2, 109754, Note_on_c, 0, 82, 0
2, 109758, Note_on_c, 0, 70, 0
2, 109760, Note_on_c, 0, 82, 87
2, 109764, Note_on_c, 0, 46, 90
2, 109764, Note_on_c, 0, 94, 97
2, 109765, Note_on_c, 0, 50, 79
2, 109900, Note_on_c, 0, 46, 0
2, 109900, Note_on_c, 0, 82, 0
2, 109905, Note_on_c, 0, 46, 75
2, 109911, Note_on_c, 0, 82, 70
2, 109916, Note_on_c, 0, 86, 0
2, 109921, Note_on_c, 0, 86, 73
2, 109953, Control_c, 0, 64, 0
2, 109954, Note_on_c, 0, 62, 0
2, 109955, Note_on_c, 0, 89, 0
2, 109955, Note_on_c, 0, 82, 0
2, 109956, Note_on_c, 0, 77, 0
2, 109956, Note_on_c, 0, 46, 0
2, 109956, Note_on_c, 0, 94, 0
2, 109957, Note_on_c, 0, 50, 0
2, 109957, Note_on_c, 0, 86, 0
2, 109958, Note_on_c, 0, 38, 0
2, 109969, Note_on_c, 0, 74, 0
2, 109977, Note_on_c, 0, 53, 0
2, 110022, Note_on_c, 0, 72, 94
2, 110022, Note_on_c, 0, 84, 105
2, 110027, Note_on_c, 0, 76, 94
2, 110031, Control_c, 0, 64, 127
2, 110033, Note_on_c, 0, 93, 102
2, 110035, Note_on_c, 0, 81, 93
2, 110035, Note_on_c, 0, 45, 96
2, 110041, Note_on_c, 0, 33, 86
2, 110108, Note_on_c, 0, 93, 0
2, 110115, Note_on_c, 0, 84, 0
2, 110123, Note_on_c, 0, 84, 78
2, 110146, Note_on_c, 0, 45, 0
2, 110157, Note_on_c, 0, 45, 59
2, 110159, Note_on_c, 0, 83, 98
2, 110166, Note_on_c, 0, 71, 92
2, 110203, Note_on_c, 0, 88, 75
2, 110205, Note_on_c, 0, 52, 39
2, 110300, Note_on_c, 0, 45, 0
2, 110300, Note_on_c, 0, 52, 0
2, 110300, Note_on_c, 0, 81, 0
2, 110304, Note_on_c, 0, 81, 101
2, 110304, Note_on_c, 0, 93, 102
2, 110305, Note_on_c, 0, 52, 79
2, 110306, Note_on_c, 0, 45, 87
2, 110311, Note_on_c, 0, 48, 82
2, 110376, Note_on_c, 0, 84, 0
2, 110382, Note_on_c, 0, 84, 83
2, 110423, Note_on_c, 0, 45, 0
2, 110423, Note_on_c, 0, 71, 0
2, 110423, Note_on_c, 0, 83, 0
2, 110427, Note_on_c, 0, 83, 93
2, 110430, Note_on_c, 0, 48, 0
2, 110430, Note_on_c, 0, 52, 0
2, 110431, Control_c, 0, 64, 0
2, 110433, Note_on_c, 0, 71, 91
2, 110434, Note_on_c, 0, 45, 70
2, 110435, Note_on_c, 0, 52, 72
2, 110440, Note_on_c, 0, 48, 76
2, 110469, Control_c, 0, 64, 127
2, 110507, Note_on_c, 0, 52, 0
2, 110507, Note_on_c, 0, 72, 0
2, 110507, Note_on_c, 0, 84, 0
2, 110512, Note_on_c, 0, 84, 107
2, 110516, Note_on_c, 0, 52, 67
2, 110517, Note_on_c, 0, 72, 98
2, 110592, Note_on_c, 0, 45, 0
2, 110599, Note_on_c, 0, 52, 0
2, 110599, Note_on_c, 0, 93, 0
2, 110601, Note_on_c, 0, 45, 90
2, 110603, Note_on_c, 0, 93, 90
2, 110604, Note_on_c, 0, 52, 73
2, 110619, Note_on_c, 0, 40, 54
2, 110638, Note_on_c, 0, 84, 0
2, 110645, Note_on_c, 0, 48, 0
2, 110649, Note_on_c, 0, 84, 78
2, 110657, Note_on_c, 0, 48, 39
2, 110699, Note_on_c, 0, 45, 0
2, 110704, Note_on_c, 0, 45, 71
2, 110753, Note_on_c, 0, 45, 0
2, 110753, Note_on_c, 0, 48, 0
2, 110753, Note_on_c, 0, 52, 0
2, 110753, Note_on_c, 0, 76, 0
2, 110753, Note_on_c, 0, 88, 0
2, 110758, Note_on_c, 0, 88, 103
2, 110759, Note_on_c, 0, 48, 73
2, 110761, Note_on_c, 0, 52, 73
2, 110764, Note_on_c, 0, 76, 95
2, 110764, Note_on_c, 0, 45, 79
2, 110830, Note_on_c, 0, 84, 0
2, 110839, Note_on_c, 0, 84, 73
2, 110860, Note_on_c, 0, 45, 0
2, 110867, Note_on_c, 0, 45, 97
2, 110868, Note_on_c, 0, 84, 0
2, 110868, Note_on_c, 0, 93, 0
2, 110872, Note_on_c, 0, 93, 100
2, 110873, Note_on_c, 0, 84, 79
2, 110891, Note_on_c, 0, 52, 0
2, 110899, Note_on_c, 0, 48, 0
2, 110899, Note_on_c, 0, 81, 0
2, 110902, Note_on_c, 0, 52, 70
2, 110903, Note_on_c, 0, 81, 59
2, 110908, Note_on_c, 0, 48, 68
2, 110922, Note_on_c, 0, 84, 0
2, 110929, Note_on_c, 0, 84, 74
2, 111014, Note_on_c, 0, 45, 0
2, 111014, Note_on_c, 0, 52, 0
2, 111014, Note_on_c, 0, 81, 0
2, 111019, Note_on_c, 0, 45, 75
2, 111022, Note_on_c, 0, 52, 64
2, 111024, Note_on_c, 0, 81, 65
2, 111083, Note_on_c, 0, 40, 0
2, 111083, Note_on_c, 0, 84, 0
2, 111089, Note_on_c, 0, 33, 0
2, 111089, Note_on_c, 0, 52, 0
2, 111089, Note_on_c, 0, 76, 0
2, 111090, Note_on_c, 0, 48, 0
2, 111090, Note_on_c, 0, 93, 0
2, 111090, Note_on_c, 0, 81, 0
2, 111091, Note_on_c, 0, 88, 0
2, 111092, Note_on_c, 0, 72, 0
2, 111092, Control_c, 0, 64, 0
2, 111092, Note_on_c, 0, 45, 0
2, 111094, Note_on_c, 0, 84, 68
2, 111106, Note_on_c, 0, 71, 0
2, 111106, Note_on_c, 0, 83, 0
2, 111152, Note_on_c, 0, 84, 0
2, 111161, Note_on_c, 0, 93, 108
2, 111164, Note_on_c, 0, 84, 105
2, 111168, Control_c, 0, 64, 127
2, 111169, Note_on_c, 0, 45, 95
2, 111170, Note_on_c, 0, 76, 94
2, 111170, Note_on_c, 0, 72, 94
2, 111172, Note_on_c, 0, 33, 81
2, 111206, Note_on_c, 0, 33, 0
2, 111275, Note_on_c, 0, 45, 0
2, 111285, Note_on_c, 0, 45, 37
2, 111310, Note_on_c, 0, 48, 73
2, 111316, Note_on_c, 0, 83, 96
2, 111317, Note_on_c, 0, 71, 89
2, 111325, Note_on_c, 0, 88, 76
2, 111444, Note_on_c, 0, 45, 0
2, 111444, Note_on_c, 0, 48, 0
2, 111444, Note_on_c, 0, 93, 0
2, 111447, Note_on_c, 0, 52, 78
2, 111448, Note_on_c, 0, 45, 88
2, 111449, Note_on_c, 0, 93, 101
2, 111451, Note_on_c, 0, 81, 98
2, 111453, Note_on_c, 0, 48, 85
2, 111513, Note_on_c, 0, 84, 0
2, 111519, Note_on_c, 0, 84, 83
2, 111567, Note_on_c, 0, 45, 0
2, 111567, Note_on_c, 0, 71, 0
2, 111567, Note_on_c, 0, 83, 0
2, 111571, Note_on_c, 0, 83, 91
2, 111575, Note_on_c, 0, 48, 0
2, 111575, Note_on_c, 0, 71, 88
2, 111577, Note_on_c, 0, 47, 73
2, 111578, Note_on_c, 0, 45, 76
2, 111581, Note_on_c, 0, 48, 74
2, 111582, Control_c, 0, 64, 0
2, 111593, Note_on_c, 0, 84, 0
2, 111594, Note_on_c, 0, 93, 0
2, 111596, Note_on_c, 0, 81, 0
2, 111600, Note_on_c, 0, 76, 0
2, 111606, Note_on_c, 0, 88, 0
2, 111613, Note_on_c, 0, 72, 0
2, 111621, Note_on_c, 0, 52, 0
2, 111644, Note_on_c, 0, 71, 0
2, 111651, Note_on_c, 0, 48, 0
2, 111651, Control_c, 0, 64, 127
2, 111659, Note_on_c, 0, 47, 0
2, 111663, Note_on_c, 0, 84, 107
2, 111665, Note_on_c, 0, 72, 97
2, 111677, Note_on_c, 0, 52, 69
2, 111720, Note_on_c, 0, 45, 0
2, 111728, Note_on_c, 0, 45, 94
2, 111736, Note_on_c, 0, 52, 0
2, 111740, Note_on_c, 0, 52, 74
2, 111742, Note_on_c, 0, 93, 98
2, 111797, Note_on_c, 0, 84, 0
2, 111803, Note_on_c, 0, 84, 77
2, 111827, Note_on_c, 0, 48, 47
2, 111836, Note_on_c, 0, 45, 0
2, 111841, Note_on_c, 0, 45, 55
2, 111855, Control_c, 0, 64, 0
2, 111882, Note_on_c, 0, 83, 0
2, 111882, Control_c, 0, 64, 127
2, 111886, Note_on_c, 0, 83, 94
2, 111889, Note_on_c, 0, 48, 0
2, 111892, Note_on_c, 0, 71, 96
2, 111895, Note_on_c, 0, 48, 80
2, 111989, Note_on_c, 0, 45, 0
2, 111997, Note_on_c, 0, 84, 0
2, 112000, Note_on_c, 0, 45, 96
2, 112005, Note_on_c, 0, 52, 0
2, 112006, Note_on_c, 0, 84, 100
2, 112012, Note_on_c, 0, 72, 0
2, 112016, Note_on_c, 0, 52, 69
2, 112019, Note_on_c, 0, 72, 96
2, 112093, Note_on_c, 0, 57, 84
2, 112149, Note_on_c, 0, 88, 101
2, 112153, Note_on_c, 0, 76, 97
2, 112154, Note_on_c, 0, 79, 70
2, 112205, Note_on_c, 0, 47, 83
2, 112214, Control_c, 0, 64, 0
2, 112216, Note_on_c, 0, 72, 0
2, 112216, Note_on_c, 0, 83, 0
2, 112216, Note_on_c, 0, 71, 0
2, 112216, Note_on_c, 0, 57, 0
2, 112217, Note_on_c, 0, 48, 0
2, 112217, Note_on_c, 0, 52, 0
2, 112218, Note_on_c, 0, 76, 0
2, 112218, Note_on_c, 0, 88, 0
2, 112219, Note_on_c, 0, 93, 0
2, 112227, Note_on_c, 0, 79, 0
2, 112235, Note_on_c, 0, 45, 0
2, 112235, Note_on_c, 0, 84, 0
2, 112266, Control_c, 0, 64, 127
2, 112280, Note_on_c, 0, 86, 111
2, 112290, Note_on_c, 0, 79, 95
2, 112291, Note_on_c, 0, 83, 101
2, 112292, Note_on_c, 0, 74, 105
2, 112293, Note_on_c, 0, 35, 86
2, 112296, Note_on_c, 0, 43, 85
2, 112297, Note_on_c, 0, 36, 86
2, 112300, Note_on_c, 0, 38, 78
2, 112427, Note_on_c, 0, 35, 0
2, 112431, Note_on_c, 0, 35, 74
2, 112435, Note_on_c, 0, 47, 0
2, 112446, Note_on_c, 0, 47, 68
2, 112565, Note_on_c, 0, 79, 0
2, 112568, Note_on_c, 0, 89, 98
2, 112568, Note_on_c, 0, 91, 84
2, 112575, Note_on_c, 0, 79, 66
2, 112619, Note_on_c, 0, 86, 0
2, 112624, Note_on_c, 0, 86, 75
2, 112629, Note_on_c, 0, 50, 64
2, 112630, Note_on_c, 0, 62, 65
2, 112634, Note_on_c, 0, 62, 0
2, 112680, Note_on_c, 0, 47, 0
2, 112688, Note_on_c, 0, 84, 105
2, 112691, Note_on_c, 0, 47, 69
2, 112695, Note_on_c, 0, 72, 95
2, 112701, Note_on_c, 0, 48, 68
2, 112711, Note_on_c, 0, 83, 0
2, 112721, Note_on_c, 0, 83, 66
2, 112742, Note_on_c, 0, 48, 0
2, 112750, Note_on_c, 0, 48, 67
2, 112773, Note_on_c, 0, 74, 0
2, 112773, Note_on_c, 0, 86, 0
2, 112773, Note_on_c, 0, 91, 0
2, 112777, Note_on_c, 0, 86, 101
2, 112779, Note_on_c, 0, 74, 76
2, 112834, Note_on_c, 0, 36, 0
2, 112837, Note_on_c, 0, 64, 96
2, 112841, Note_on_c, 0, 36, 89
2, 112842, Note_on_c, 0, 48, 0
2, 112842, Note_on_c, 0, 64, 0
2, 112844, Note_on_c, 0, 88, 111
2, 112852, Note_on_c, 0, 48, 91
2, 112861, Note_on_c, 0, 76, 106
2, 112862, Note_on_c, 0, 89, 0
2, 112862, Note_on_c, 0, 38, 0
2, 112862, Control_c, 0, 64, 0
2, 112862, Note_on_c, 0, 83, 0
2, 112863, Note_on_c, 0, 47, 0
2, 112863, Note_on_c, 0, 35, 0
2, 112863, Note_on_c, 0, 72, 0
2, 112864, Note_on_c, 0, 74, 0
2, 112865, Note_on_c, 0, 79, 0
2, 112865, Note_on_c, 0, 84, 0
2, 112865, Note_on_c, 0, 86, 0
2, 112867, Note_on_c, 0, 50, 0
2, 112867, Note_on_c, 0, 43, 0
2, 112871, Note_on_c, 0, 79, 92
2, 112874, Note_on_c, 0, 84, 90
2, 112942, Control_c, 0, 64, 127
2, 113145, Note_on_c, 0, 91, 101
2, 113187, Note_on_c, 0, 88, 0
2, 113192, Note_on_c, 0, 88, 68
2, 113287, Note_on_c, 0, 76, 0
2, 113287, Note_on_c, 0, 88, 0
2, 113293, Note_on_c, 0, 76, 101
2, 113297, Note_on_c, 0, 88, 100
2, 113335, Note_on_c, 0, 49, 80
2, 113383, Note_on_c, 0, 57, 81
2, 113394, Note_on_c, 0, 84, 0
2, 113398, Note_on_c, 0, 91, 0
2, 113401, Control_c, 0, 64, 0
2, 113410, Note_on_c, 0, 36, 0
2, 113410, Note_on_c, 0, 88, 0
2, 113421, Note_on_c, 0, 64, 89
2, 113421, Note_on_c, 0, 88, 111
2, 113422, Note_on_c, 0, 52, 81
2, 113425, Note_on_c, 0, 48, 0
2, 113425, Note_on_c, 0, 76, 0
2, 113425, Note_on_c, 0, 79, 0
2, 113429, Note_on_c, 0, 76, 107
2, 113433, Note_on_c, 0, 85, 102
2, 113435, Note_on_c, 0, 81, 96
2, 113456, Control_c, 0, 64, 127
2, 113707, Note_on_c, 0, 91, 98
2, 113708, Note_on_c, 0, 69, 66
2, 113710, Note_on_c, 0, 57, 0
2, 113713, Note_on_c, 0, 57, 56
2, 113717, Note_on_c, 0, 69, 0
2, 113733, Note_on_c, 0, 64, 0
2, 113743, Note_on_c, 0, 64, 66
2, 113759, Note_on_c, 0, 61, 61
2, 113777, Note_on_c, 0, 90, 65
2, 113817, Note_on_c, 0, 57, 0
2, 113823, Note_on_c, 0, 86, 106
2, 113826, Note_on_c, 0, 57, 64
2, 113827, Note_on_c, 0, 74, 95
2, 113828, Note_on_c, 0, 69, 71
2, 113909, Note_on_c, 0, 88, 0
2, 113914, Note_on_c, 0, 62, 64
2, 113915, Note_on_c, 0, 88, 97
2, 113917, Note_on_c, 0, 76, 0
2, 113919, Note_on_c, 0, 50, 71
2, 113922, Note_on_c, 0, 76, 83
2, 113978, Note_on_c, 0, 86, 0
2, 113986, Note_on_c, 0, 50, 0
2, 113986, Note_on_c, 0, 81, 0
2, 113987, Note_on_c, 0, 89, 107
2, 113989, Note_on_c, 0, 77, 107
2, 113989, Note_on_c, 0, 86, 97
2, 113991, Control_c, 0, 64, 0
2, 113993, Note_on_c, 0, 81, 100
2, 113996, Note_on_c, 0, 50, 101
2, 113996, Note_on_c, 0, 69, 0
2, 113997, Note_on_c, 0, 74, 0
2, 113997, Note_on_c, 0, 88, 0
2, 113998, Note_on_c, 0, 85, 0
2, 113998, Note_on_c, 0, 65, 92
2, 113998, Note_on_c, 0, 90, 0
2, 113998, Note_on_c, 0, 76, 0
2, 113998, Note_on_c, 0, 64, 0
2, 113998, Note_on_c, 0, 91, 0
2, 113999, Note_on_c, 0, 61, 0
2, 114001, Note_on_c, 0, 52, 0
2, 114004, Note_on_c, 0, 38, 98
2, 114009, Note_on_c, 0, 62, 0
2, 114017, Note_on_c, 0, 49, 0
2, 114032, Control_c, 0, 64, 127
2, 114048, Note_on_c, 0, 57, 0
2, 114282, Note_on_c, 0, 93, 102
2, 114316, Note_on_c, 0, 89, 0
2, 114321, Note_on_c, 0, 89, 75
2, 114416, Note_on_c, 0, 77, 0
2, 114416, Note_on_c, 0, 89, 0
2, 114423, Note_on_c, 0, 89, 104
2, 114423, Note_on_c, 0, 77, 102
2, 114432, Note_on_c, 0, 84, 72
2, 114489, Note_on_c, 0, 51, 84
2, 114498, Note_on_c, 0, 39, 58
2, 114520, Note_on_c, 0, 47, 37
2, 114540, Control_c, 0, 64, 0
2, 114543, Note_on_c, 0, 93, 0
2, 114543, Note_on_c, 0, 81, 0
2, 114543, Note_on_c, 0, 89, 0
2, 114545, Note_on_c, 0, 77, 0
2, 114546, Note_on_c, 0, 38, 0
2, 114547, Note_on_c, 0, 65, 0
2, 114547, Note_on_c, 0, 50, 0
2, 114554, Note_on_c, 0, 86, 0
2, 114562, Note_on_c, 0, 39, 0
2, 114566, Note_on_c, 0, 95, 113
2, 114570, Note_on_c, 0, 84, 0
2, 114570, Note_on_c, 0, 39, 83
2, 114573, Note_on_c, 0, 102, 107
2, 114574, Note_on_c, 0, 78, 105
2, 114574, Note_on_c, 0, 27, 80
2, 114576, Note_on_c, 0, 87, 96
2, 114576, Note_on_c, 0, 83, 95
2, 114577, Note_on_c, 0, 66, 92
2, 114577, Note_on_c, 0, 102, 0
2, 114579, Note_on_c, 0, 90, 107
2, 114593, Control_c, 0, 64, 127
2, 114839, Note_on_c, 0, 90, 0
2, 114845, Note_on_c, 0, 71, 92
2, 114846, Note_on_c, 0, 90, 103
2, 114892, Note_on_c, 0, 63, 66
2, 114908, Note_on_c, 0, 87, 0
2, 114917, Note_on_c, 0, 87, 81
2, 114938, Note_on_c, 0, 59, 69
2, 114954, Note_on_c, 0, 90, 0
2, 114961, Note_on_c, 0, 78, 0
2, 114965, Note_on_c, 0, 90, 96
2, 114965, Note_on_c, 0, 78, 88
2, 114969, Note_on_c, 0, 83, 0
2, 114979, Note_on_c, 0, 83, 76
2, 115023, Note_on_c, 0, 87, 0
2, 115023, Note_on_c, 0, 90, 0
2, 115032, Note_on_c, 0, 90, 97
2, 115034, Note_on_c, 0, 87, 75
2, 115100, Note_on_c, 0, 27, 0
2, 115102, Control_c, 0, 64, 0
2, 115103, Note_on_c, 0, 71, 0
2, 115103, Note_on_c, 0, 47, 0
2, 115103, Note_on_c, 0, 78, 0
2, 115104, Note_on_c, 0, 66, 0
2, 115105, Note_on_c, 0, 63, 0
2, 115107, Note_on_c, 0, 59, 0
2, 115115, Note_on_c, 0, 39, 0
2, 115115, Note_on_c, 0, 87, 0
2, 115115, Note_on_c, 0, 95, 0
2, 115120, Note_on_c, 0, 95, 109
2, 115122, Note_on_c, 0, 87, 109
2, 115123, Note_on_c, 0, 83, 0
2, 115126, Note_on_c, 0, 39, 96
2, 115126, Note_on_c, 0, 27, 93
2, 115127, Note_on_c, 0, 83, 100
2, 115153, Control_c, 0, 64, 127
2, 115331, Note_on_c, 0, 75, 65
2, 115392, Note_on_c, 0, 51, 0
2, 115395, Control_c, 0, 64, 0
2, 115401, Note_on_c, 0, 95, 0
2, 115404, Note_on_c, 0, 75, 0
2, 115415, Note_on_c, 0, 27, 0
2, 115415, Note_on_c, 0, 83, 0
2, 115415, Note_on_c, 0, 87, 0
2, 115415, Note_on_c, 0, 90, 0
2, 115419, Note_on_c, 0, 78, 109
2, 115420, Note_on_c, 0, 90, 111
2, 115421, Note_on_c, 0, 35, 80
2, 115421, Note_on_c, 0, 83, 91
2, 115425, Note_on_c, 0, 27, 70
2, 115426, Note_on_c, 0, 87, 90
2, 115445, Control_c, 0, 64, 127
2, 115679, Control_c, 0, 64, 0
2, 115691, Note_on_c, 0, 27, 0
2, 115702, Note_on_c, 0, 93, 114
2, 115702, Note_on_c, 0, 81, 111
2, 115702, Note_on_c, 0, 64, 97
2, 115703, Note_on_c, 0, 52, 102
2, 115706, Note_on_c, 0, 83, 0
2, 115710, Note_on_c, 0, 88, 103
2, 115711, Note_on_c, 0, 40, 89
2, 115714, Control_c, 0, 64, 127
2, 115716, Note_on_c, 0, 83, 95
2, 115717, Note_on_c, 0, 28, 94
2, 115722, Note_on_c, 0, 39, 0
2, 115752, Note_on_c, 0, 35, 0
2, 115983, Note_on_c, 0, 81, 0
2, 115991, Note_on_c, 0, 93, 0
2, 115993, Note_on_c, 0, 81, 100
2, 115994, Note_on_c, 0, 93, 88
2, 116021, Note_on_c, 0, 78, 0
2, 116136, Note_on_c, 0, 88, 0
2, 116141, Note_on_c, 0, 88, 74
2, 116142, Note_on_c, 0, 56, 55
2, 116143, Note_on_c, 0, 80, 98
2, 116144, Note_on_c, 0, 92, 96
2, 116259, Note_on_c, 0, 80, 0
2, 116264, Control_c, 0, 64, 0
2, 116267, Note_on_c, 0, 40, 0
2, 116267, Note_on_c, 0, 52, 0
2, 116267, Note_on_c, 0, 88, 0
2, 116267, Note_on_c, 0, 92, 0
2, 116271, Note_on_c, 0, 80, 111
2, 116271, Note_on_c, 0, 52, 109
2, 116272, Note_on_c, 0, 92, 108
2, 116277, Note_on_c, 0, 88, 101
2, 116277, Note_on_c, 0, 40, 96
2, 116298, Control_c, 0, 64, 127
2, 116428, Note_on_c, 0, 56, 0
2, 116432, Note_on_c, 0, 56, 76
2, 116486, Note_on_c, 0, 57, 45
2, 116547, Note_on_c, 0, 59, 73
2, 116559, Note_on_c, 0, 80, 0
2, 116559, Note_on_c, 0, 92, 0
2, 116566, Note_on_c, 0, 80, 109
2, 116570, Note_on_c, 0, 92, 101
2, 116597, Note_on_c, 0, 87, 0
2, 116602, Note_on_c, 0, 61, 74
2, 116604, Note_on_c, 0, 87, 43
2, 116678, Note_on_c, 0, 63, 76
2, 116728, Note_on_c, 0, 64, 0
2, 116732, Note_on_c, 0, 64, 73
2, 116829, Control_c, 0, 64, 0
2, 116831, Note_on_c, 0, 93, 0
2, 116831, Note_on_c, 0, 92, 0
2, 116831, Note_on_c, 0, 56, 0
2, 116831, Note_on_c, 0, 90, 0
2, 116831, Note_on_c, 0, 83, 0
2, 116832, Note_on_c, 0, 64, 0
2, 116832, Note_on_c, 0, 80, 0
2, 116832, Note_on_c, 0, 63, 0
2, 116832, Note_on_c, 0, 88, 0
2, 116832, Note_on_c, 0, 81, 0
2, 116832, Note_on_c, 0, 59, 0
2, 116832, Note_on_c, 0, 40, 0
2, 116833, Note_on_c, 0, 28, 0
2, 116835, Note_on_c, 0, 87, 0
2, 116843, Note_on_c, 0, 52, 0
2, 116843, Note_on_c, 0, 61, 0
2, 116853, Note_on_c, 0, 61, 94
2, 116853, Note_on_c, 0, 66, 101
2, 116854, Note_on_c, 0, 30, 108
2, 116855, Note_on_c, 0, 69, 92
2, 116855, Note_on_c, 0, 42, 108
2, 116881, Control_c, 0, 64, 127
2, 117081, Note_on_c, 0, 69, 0
2, 117088, Note_on_c, 0, 69, 81
2, 117089, Note_on_c, 0, 81, 105
2, 117090, Note_on_c, 0, 78, 97
2, 117091, Note_on_c, 0, 73, 93
2, 117258, Note_on_c, 0, 69, 0
2, 117265, Note_on_c, 0, 81, 0
2, 117267, Note_on_c, 0, 69, 94
2, 117271, Note_on_c, 0, 81, 105
2, 117277, Note_on_c, 0, 93, 101
2, 117408, Control_c, 0, 64, 0
2, 117411, Note_on_c, 0, 30, 0
2, 117412, Note_on_c, 0, 42, 0
2, 117414, Note_on_c, 0, 93, 0
2, 117414, Note_on_c, 0, 66, 0
2, 117414, Note_on_c, 0, 81, 0
2, 117415, Note_on_c, 0, 69, 0
2, 117415, Note_on_c, 0, 73, 0
2, 117415, Note_on_c, 0, 61, 0
2, 117416, Note_on_c, 0, 78, 0
2, 117417, Note_on_c, 0, 80, 107
2, 117419, Note_on_c, 0, 57, 0
2, 117419, Note_on_c, 0, 85, 99
2, 117420, Note_on_c, 0, 92, 108
2, 117422, Note_on_c, 0, 40, 100
2, 117423, Note_on_c, 0, 28, 99
2, 117426, Note_on_c, 0, 88, 82
2, 117465, Control_c, 0, 64, 127
2, 117661, Note_on_c, 0, 73, 90
2, 117667, Note_on_c, 0, 52, 82
2, 117669, Note_on_c, 0, 68, 93
2, 117669, Note_on_c, 0, 76, 102
2, 117671, Note_on_c, 0, 64, 91
2, 117846, Note_on_c, 0, 56, 80
2, 117846, Note_on_c, 0, 68, 0
2, 117849, Note_on_c, 0, 52, 0
2, 117857, Note_on_c, 0, 52, 77
2, 117972, Note_on_c, 0, 28, 0
2, 117979, Note_on_c, 0, 52, 0
2, 117980, Note_on_c, 0, 40, 0
2, 117982, Note_on_c, 0, 56, 0
2, 117983, Note_on_c, 0, 92, 0
2, 117983, Note_on_c, 0, 80, 0
2, 117984, Note_on_c, 0, 73, 0
2, 117984, Note_on_c, 0, 64, 0
2, 117984, Note_on_c, 0, 88, 0
2, 117985, Note_on_c, 0, 76, 0
2, 117986, Note_on_c, 0, 78, 102
2, 117987, Note_on_c, 0, 85, 0
2, 117988, Control_c, 0, 64, 0
2, 117991, Note_on_c, 0, 38, 106
2, 117991, Note_on_c, 0, 81, 99
2, 117991, Note_on_c, 0, 90, 92
2, 117992, Note_on_c, 0, 85, 98
2, 117992, Note_on_c, 0, 93, 106
2, 117993, Note_on_c, 0, 26, 98
2, 117999, Note_on_c, 0, 66, 98
2, 118041, Note_on_c, 0, 66, 0
2, 118041, Note_on_c, 0, 93, 0
2, 118041, Control_c, 0, 64, 127
2, 118195, Note_on_c, 0, 78, 0
2, 118205, Note_on_c, 0, 78, 99
2, 118207, Note_on_c, 0, 66, 98
2, 118223, Note_on_c, 0, 71, 89
2, 118224, Note_on_c, 0, 83, 96
2, 118410, Note_on_c, 0, 90, 0
2, 118415, Note_on_c, 0, 90, 100
2, 118417, Note_on_c, 0, 78, 0
2, 118417, Note_on_c, 0, 81, 0
2, 118423, Note_on_c, 0, 78, 95
2, 118424, Note_on_c, 0, 69, 89
2, 118427, Note_on_c, 0, 81, 101
2, 118540, Note_on_c, 0, 26, 0
2, 118546, Note_on_c, 0, 78, 0
2, 118547, Note_on_c, 0, 83, 0
2, 118549, Note_on_c, 0, 71, 0
2, 118549, Note_on_c, 0, 66, 0
2, 118549, Note_on_c, 0, 90, 0
2, 118551, Note_on_c, 0, 69, 0
2, 118553, Control_c, 0, 64, 0
2, 118556, Note_on_c, 0, 38, 0
2, 118563, Note_on_c, 0, 88, 105
2, 118563, Note_on_c, 0, 81, 0
2, 118563, Note_on_c, 0, 85, 0
2, 118565, Note_on_c, 0, 76, 105
2, 118565, Note_on_c, 0, 80, 101
2, 118566, Note_on_c, 0, 37, 101
2, 118567, Note_on_c, 0, 25, 95
2, 118568, Note_on_c, 0, 85, 94
2, 118570, Note_on_c, 0, 81, 94
2, 118602, Control_c, 0, 64, 127
2, 118771, Note_on_c, 0, 76, 0
2, 118771, Note_on_c, 0, 78, 102
2, 118773, Note_on_c, 0, 66, 103
2, 118774, Note_on_c, 0, 64, 84
2, 118775, Note_on_c, 0, 73, 82
2, 118776, Note_on_c, 0, 76, 91
2, 118970, Note_on_c, 0, 64, 0
2, 118975, Note_on_c, 0, 64, 82
2, 118978, Note_on_c, 0, 52, 75
2, 118978, Note_on_c, 0, 76, 0
2, 118985, Note_on_c, 0, 76, 82
2, 119112, Control_c, 0, 64, 0
2, 119124, Note_on_c, 0, 66, 0
2, 119128, Note_on_c, 0, 85, 0
2, 119128, Note_on_c, 0, 23, 96
2, 119128, Note_on_c, 0, 37, 0
2, 119129, Note_on_c, 0, 80, 0
2, 119129, Note_on_c, 0, 88, 0
2, 119129, Note_on_c, 0, 64, 0
2, 119132, Note_on_c, 0, 35, 101
2, 119134, Note_on_c, 0, 76, 0
2, 119135, Note_on_c, 0, 66, 103
2, 119139, Note_on_c, 0, 23, 0
2, 119139, Note_on_c, 0, 25, 0
2, 119139, Note_on_c, 0, 81, 0
2, 119140, Note_on_c, 0, 62, 86
2, 119141, Note_on_c, 0, 74, 93
2, 119170, Control_c, 0, 64, 127
2, 119178, Note_on_c, 0, 73, 0
2, 119308, Note_on_c, 0, 52, 0
2, 119354, Note_on_c, 0, 62, 0
2, 119354, Note_on_c, 0, 74, 0
2, 119356, Note_on_c, 0, 64, 94
2, 119357, Note_on_c, 0, 76, 101
2, 119361, Note_on_c, 0, 71, 79
2, 119364, Note_on_c, 0, 62, 86
2, 119364, Note_on_c, 0, 74, 91
2, 119562, Note_on_c, 0, 62, 0
2, 119562, Note_on_c, 0, 74, 0
2, 119567, Note_on_c, 0, 74, 89
2, 119568, Note_on_c, 0, 50, 73
2, 119568, Note_on_c, 0, 62, 81
2, 119679, Control_c, 0, 64, 0
2, 119684, Note_on_c, 0, 62, 0
2, 119685, Note_on_c, 0, 66, 0
2, 119685, Note_on_c, 0, 50, 0
2, 119700, Note_on_c, 0, 78, 0
2, 119708, Note_on_c, 0, 64, 0
2, 119708, Note_on_c, 0, 76, 0
2, 119713, Note_on_c, 0, 61, 98
2, 119719, Note_on_c, 0, 64, 90
2, 119719, Note_on_c, 0, 28, 105
2, 119719, Note_on_c, 0, 40, 103
2, 119719, Note_on_c, 0, 76, 96
2, 119719, Note_on_c, 0, 68, 95
2, 119746, Note_on_c, 0, 35, 0
2, 119754, Control_c, 0, 64, 127
2, 119930, Note_on_c, 0, 71, 0
2, 119934, Note_on_c, 0, 59, 94
2, 119938, Note_on_c, 0, 68, 0
2, 119938, Note_on_c, 0, 76, 0
2, 119939, Note_on_c, 0, 47, 80
2, 119941, Note_on_c, 0, 71, 85
2, 119945, Note_on_c, 0, 68, 79
2, 119948, Note_on_c, 0, 76, 87
2, 119957, Note_on_c, 0, 77, 64
2, 120122, Note_on_c, 0, 61, 0
2, 120122, Note_on_c, 0, 68, 0
2, 120132, Note_on_c, 0, 61, 97
2, 120133, Note_on_c, 0, 68, 67
2, 120133, Note_on_c, 0, 73, 84
2, 120141, Note_on_c, 0, 52, 74
2, 120253, Note_on_c, 0, 28, 0
2, 120308, Control_c, 0, 64, 0
2, 120322, Note_on_c, 0, 73, 0
2, 120324, Note_on_c, 0, 40, 0
2, 120324, Note_on_c, 0, 71, 0
2, 120325, Note_on_c, 0, 64, 0
2, 120325, Note_on_c, 0, 59, 0
2, 120325, Note_on_c, 0, 81, 104
2, 120325, Note_on_c, 0, 68, 0
2, 120325, Note_on_c, 0, 45, 108
2, 120326, Note_on_c, 0, 33, 101
2, 120326, Note_on_c, 0, 61, 0
2, 120326, Note_on_c, 0, 52, 0
2, 120326, Note_on_c, 0, 69, 104
2, 120327, Note_on_c, 0, 76, 0
2, 120327, Note_on_c, 0, 74, 0
2, 120330, Note_on_c, 0, 47, 0
2, 120330, Note_on_c, 0, 73, 92
2, 120353, Note_on_c, 0, 77, 0
2, 120360, Control_c, 0, 64, 127
2, 120514, Note_on_c, 0, 81, 0
2, 120518, Note_on_c, 0, 81, 108
2, 120522, Note_on_c, 0, 73, 0
2, 120526, Note_on_c, 0, 76, 95
2, 120532, Note_on_c, 0, 73, 96
2, 120543, Note_on_c, 0, 68, 105
2, 120545, Note_on_c, 0, 80, 111
2, 120729, Note_on_c, 0, 81, 0
2, 120734, Note_on_c, 0, 81, 104
2, 120752, Note_on_c, 0, 73, 0
2, 120763, Note_on_c, 0, 66, 94
2, 120763, Note_on_c, 0, 73, 70
2, 120766, Note_on_c, 0, 78, 83
2, 120876, Control_c, 0, 64, 0
2, 120882, Note_on_c, 0, 33, 0
2, 120882, Note_on_c, 0, 81, 0
2, 120883, Note_on_c, 0, 80, 0
2, 120884, Note_on_c, 0, 45, 0
2, 120885, Note_on_c, 0, 66, 0
2, 120885, Note_on_c, 0, 69, 0
2, 120885, Note_on_c, 0, 68, 0
2, 120885, Note_on_c, 0, 78, 0
2, 120885, Note_on_c, 0, 76, 0
2, 120887, Note_on_c, 0, 97, 109
2, 120891, Note_on_c, 0, 80, 90
2, 120894, Note_on_c, 0, 85, 102
2, 120895, Note_on_c, 0, 77, 97
2, 120896, Note_on_c, 0, 49, 104
2, 120896, Note_on_c, 0, 37, 100
2, 120898, Note_on_c, 0, 92, 83
2, 120936, Control_c, 0, 64, 127
2, 121082, Note_on_c, 0, 49, 0
2, 121082, Note_on_c, 0, 85, 0
2, 121090, Note_on_c, 0, 73, 0
2, 121090, Note_on_c, 0, 77, 0
2, 121090, Note_on_c, 0, 80, 0
2, 121091, Note_on_c, 0, 85, 104
2, 121093, Note_on_c, 0, 49, 90
2, 121094, Note_on_c, 0, 80, 86
2, 121094, Note_on_c, 0, 73, 95
2, 121096, Note_on_c, 0, 77, 92
2, 121282, Note_on_c, 0, 49, 0
2, 121282, Note_on_c, 0, 73, 0
2, 121288, Note_on_c, 0, 61, 84
2, 121291, Note_on_c, 0, 73, 96
2, 121292, Note_on_c, 0, 49, 84
2, 121390, Note_on_c, 0, 92, 0
2, 121403, Note_on_c, 0, 80, 0
2, 121406, Note_on_c, 0, 49, 0
2, 121406, Note_on_c, 0, 37, 0
2, 121406, Note_on_c, 0, 77, 0
2, 121407, Note_on_c, 0, 85, 0
2, 121407, Note_on_c, 0, 61, 0
2, 121413, Note_on_c, 0, 97, 0
2, 121425, Control_c, 0, 64, 0
2, 121443, Note_on_c, 0, 73, 0
2, 121447, Note_on_c, 0, 69, 106
2, 121447, Note_on_c, 0, 42, 100
2, 121448, Note_on_c, 0, 81, 104
2, 121448, Note_on_c, 0, 66, 102
2, 121448, Note_on_c, 0, 30, 88
2, 121452, Note_on_c, 0, 78, 99
2, 121453, Note_on_c, 0, 73, 95
2, 121459, Note_on_c, 0, 30, 0
2, 121497, Control_c, 0, 64, 127
2, 121511, Note_on_c, 0, 80, 28
2, 121598, Note_on_c, 0, 49, 86
2, 121643, Note_on_c, 0, 73, 0
2, 121647, Note_on_c, 0, 73, 100
2, 121728, Note_on_c, 0, 78, 0
2, 121733, Note_on_c, 0, 54, 100
2, 121736, Note_on_c, 0, 78, 97
2, 121781, Note_on_c, 0, 80, 0
2, 121788, Note_on_c, 0, 80, 98
2, 121858, Note_on_c, 0, 81, 0
2, 121866, Note_on_c, 0, 81, 92
2, 121870, Note_on_c, 0, 57, 88
2, 121921, Note_on_c, 0, 85, 102
2, 122002, Note_on_c, 0, 69, 0
2, 122002, Note_on_c, 0, 66, 0
2, 122003, Note_on_c, 0, 56, 109
2, 122004, Note_on_c, 0, 80, 0
2, 122004, Control_c, 0, 64, 0
2, 122004, Note_on_c, 0, 42, 0
2, 122005, Note_on_c, 0, 57, 0
2, 122006, Note_on_c, 0, 81, 0
2, 122006, Note_on_c, 0, 54, 0
2, 122007, Note_on_c, 0, 73, 0
2, 122007, Note_on_c, 0, 78, 0
2, 122009, Note_on_c, 0, 92, 108
2, 122010, Note_on_c, 0, 80, 105
2, 122014, Note_on_c, 0, 52, 98
2, 122015, Note_on_c, 0, 40, 83
2, 122016, Note_on_c, 0, 76, 97
2, 122050, Control_c, 0, 64, 127
2, 122090, Note_on_c, 0, 88, 83
2, 122158, Note_on_c, 0, 85, 0
2, 122162, Note_on_c, 0, 85, 72
2, 122165, Note_on_c, 0, 49, 0
2, 122174, Note_on_c, 0, 49, 80
2, 122181, Note_on_c, 0, 80, 0
2, 122191, Note_on_c, 0, 80, 76
2, 122296, Note_on_c, 0, 49, 0
2, 122296, Note_on_c, 0, 56, 0
2, 122296, Note_on_c, 0, 80, 0
2, 122299, Note_on_c, 0, 68, 92
2, 122300, Note_on_c, 0, 80, 98
2, 122300, Note_on_c, 0, 56, 95
2, 122300, Note_on_c, 0, 92, 0
2, 122301, Note_on_c, 0, 61, 69
2, 122301, Note_on_c, 0, 49, 82
2, 122304, Note_on_c, 0, 75, 85
2, 122311, Note_on_c, 0, 75, 0
2, 122434, Note_on_c, 0, 52, 0
2, 122439, Note_on_c, 0, 52, 85
2, 122567, Note_on_c, 0, 52, 0
2, 122567, Note_on_c, 0, 85, 0
2, 122568, Note_on_c, 0, 40, 0
2, 122568, Note_on_c, 0, 88, 0
2, 122568, Note_on_c, 0, 49, 0
2, 122568, Note_on_c, 0, 68, 0
2, 122568, Control_c, 0, 64, 0
2, 122568, Note_on_c, 0, 80, 0
2, 122568, Note_on_c, 0, 56, 0
2, 122572, Note_on_c, 0, 76, 0
2, 122580, Note_on_c, 0, 61, 0
2, 122580, Note_on_c, 0, 38, 102
2, 122584, Note_on_c, 0, 50, 96
2, 122589, Note_on_c, 0, 66, 107
2, 122591, Note_on_c, 0, 74, 100
2, 122592, Note_on_c, 0, 78, 97
2, 122592, Note_on_c, 0, 69, 90
2, 122618, Control_c, 0, 64, 127
2, 122674, Note_on_c, 0, 64, 87
2, 122726, Note_on_c, 0, 66, 0
2, 122737, Note_on_c, 0, 66, 80
2, 122787, Note_on_c, 0, 69, 0
2, 122795, Note_on_c, 0, 69, 77
2, 122849, Note_on_c, 0, 50, 0
2, 122860, Note_on_c, 0, 50, 82
2, 122872, Note_on_c, 0, 74, 0
2, 122876, Note_on_c, 0, 74, 87
2, 122922, Note_on_c, 0, 76, 82
2, 122983, Note_on_c, 0, 54, 100
2, 122987, Note_on_c, 0, 78, 0
2, 122991, Note_on_c, 0, 78, 93
2, 123067, Note_on_c, 0, 81, 97
2, 123132, Control_c, 0, 64, 0
2, 123137, Note_on_c, 0, 88, 104
2, 123139, Note_on_c, 0, 52, 104
2, 123141, Note_on_c, 0, 76, 0
2, 123141, Note_on_c, 0, 64, 0
2, 123141, Note_on_c, 0, 66, 0
2, 123142, Note_on_c, 0, 49, 108
2, 123142, Note_on_c, 0, 74, 0
2, 123143, Note_on_c, 0, 45, 98
2, 123143, Note_on_c, 0, 54, 0
2, 123143, Note_on_c, 0, 78, 0
2, 123147, Note_on_c, 0, 76, 102
2, 123152, Note_on_c, 0, 85, 85
2, 123171, Note_on_c, 0, 50, 0
2, 123179, Control_c, 0, 64, 127
2, 123202, Note_on_c, 0, 85, 0
2, 123211, Note_on_c, 0, 85, 77
2, 123440, Note_on_c, 0, 76, 0
2, 123448, Note_on_c, 0, 52, 0
2, 123451, Note_on_c, 0, 76, 74
2, 123453, Note_on_c, 0, 52, 78
2, 123586, Note_on_c, 0, 49, 0
2, 123590, Note_on_c, 0, 49, 73
2, 123634, Note_on_c, 0, 82, 63
2, 123701, Note_on_c, 0, 69, 0
2, 123714, Note_on_c, 0, 52, 0
2, 123715, Note_on_c, 0, 85, 0
2, 123715, Note_on_c, 0, 49, 0
2, 123717, Note_on_c, 0, 81, 0
2, 123718, Note_on_c, 0, 38, 0
2, 123718, Note_on_c, 0, 88, 0
2, 123719, Note_on_c, 0, 47, 103
2, 123719, Note_on_c, 0, 76, 0
2, 123720, Note_on_c, 0, 45, 0
2, 123721, Control_c, 0, 64, 0
2, 123721, Note_on_c, 0, 86, 103
2, 123722, Note_on_c, 0, 74, 108
2, 123722, Note_on_c, 0, 35, 92
2, 123727, Note_on_c, 0, 81, 97
2, 123730, Note_on_c, 0, 78, 93
2, 123755, Note_on_c, 0, 82, 0
2, 123770, Control_c, 0, 64, 127
2, 123823, Note_on_c, 0, 76, 84
2, 123863, Note_on_c, 0, 78, 0
2, 123873, Note_on_c, 0, 78, 87
2, 123924, Note_on_c, 0, 81, 0
2, 123932, Note_on_c, 0, 81, 92
2, 124008, Note_on_c, 0, 86, 0
2, 124016, Note_on_c, 0, 47, 0
2, 124019, Note_on_c, 0, 86, 101
2, 124021, Note_on_c, 0, 47, 78
2, 124037, Note_on_c, 0, 50, 59
2, 124047, Note_on_c, 0, 50, 0
2, 124076, Note_on_c, 0, 88, 96
2, 124122, Note_on_c, 0, 38, 61
2, 124128, Note_on_c, 0, 90, 98
2, 124211, Note_on_c, 0, 93, 91
2, 124287, Control_c, 0, 64, 0
2, 124293, Note_on_c, 0, 38, 0
2, 124293, Note_on_c, 0, 88, 0
2, 124295, Note_on_c, 0, 90, 0
2, 124295, Note_on_c, 0, 86, 0
2, 124296, Note_on_c, 0, 47, 0
2, 124296, Note_on_c, 0, 74, 0
2, 124296, Note_on_c, 0, 78, 0
2, 124300, Note_on_c, 0, 76, 0
2, 124301, Note_on_c, 0, 49, 111
2, 124302, Note_on_c, 0, 80, 100
2, 124304, Note_on_c, 0, 37, 98
2, 124304, Note_on_c, 0, 88, 99
2, 124305, Note_on_c, 0, 76, 104
2, 124316, Note_on_c, 0, 35, 0
2, 124316, Note_on_c, 0, 93, 0
2, 124323, Note_on_c, 0, 81, 0
2, 124333, Note_on_c, 0, 79, 55
2, 124339, Control_c, 0, 64, 127
2, 124348, Note_on_c, 0, 39, 17
2, 124592, Note_on_c, 0, 37, 0
2, 124592, Note_on_c, 0, 49, 0
2, 124592, Note_on_c, 0, 80, 0
2, 124592, Note_on_c, 0, 88, 0
2, 124600, Note_on_c, 0, 76, 0
2, 124602, Note_on_c, 0, 49, 93
2, 124603, Note_on_c, 0, 88, 104
2, 124603, Note_on_c, 0, 80, 102
2, 124603, Note_on_c, 0, 37, 72
2, 124605, Note_on_c, 0, 76, 97
2, 124610, Note_on_c, 0, 83, 89
2, 124627, Note_on_c, 0, 78, 63
2, 124728, Note_on_c, 0, 52, 77
2, 124824, Note_on_c, 0, 88, 0
2, 124825, Note_on_c, 0, 76, 0
2, 124825, Note_on_c, 0, 37, 0
2, 124826, Note_on_c, 0, 83, 0
2, 124826, Note_on_c, 0, 79, 0
2, 124826, Note_on_c, 0, 49, 0
2, 124826, Note_on_c, 0, 52, 0
2, 124830, Note_on_c, 0, 78, 0
2, 124831, Control_c, 0, 64, 0
2, 124838, Note_on_c, 0, 39, 0
2, 124846, Note_on_c, 0, 80, 0
2, 124876, Note_on_c, 0, 90, 108
2, 124878, Note_on_c, 0, 30, 107
2, 124879, Note_on_c, 0, 83, 95
2, 124879, Note_on_c, 0, 42, 112
2, 124879, Note_on_c, 0, 78, 100
2, 124882, Note_on_c, 0, 82, 88
2, 124897, Note_on_c, 0, 32, 48
2, 124907, Control_c, 0, 64, 127
2, 125022, Note_on_c, 0, 42, 0
2, 125033, Note_on_c, 0, 42, 70
2, 125099, Note_on_c, 0, 90, 0
2, 125107, Note_on_c, 0, 42, 0
2, 125107, Note_on_c, 0, 78, 0
2, 125109, Note_on_c, 0, 90, 106
2, 125111, Note_on_c, 0, 78, 97
2, 125112, Note_on_c, 0, 42, 109
2, 125113, Note_on_c, 0, 85, 92
2, 125114, Note_on_c, 0, 82, 0
2, 125114, Note_on_c, 0, 83, 0
2, 125118, Note_on_c, 0, 83, 85
2, 125118, Note_on_c, 0, 82, 83
2, 125214, Note_on_c, 0, 42, 0
2, 125220, Note_on_c, 0, 42, 93
2, 125283, Note_on_c, 0, 78, 0
2, 125289, Note_on_c, 0, 78, 109
2, 125295, Note_on_c, 0, 73, 92
2, 125296, Note_on_c, 0, 71, 96
2, 125299, Note_on_c, 0, 82, 0
2, 125299, Note_on_c, 0, 90, 0
2, 125304, Note_on_c, 0, 90, 100
2, 125306, Note_on_c, 0, 71, 0
2, 125310, Note_on_c, 0, 82, 80
2, 125314, Note_on_c, 0, 42, 0
2, 125322, Note_on_c, 0, 30, 0
2, 125325, Note_on_c, 0, 42, 106
2, 125327, Note_on_c, 0, 30, 104
2, 125437, Note_on_c, 0, 85, 0
2, 125445, Note_on_c, 0, 30, 0
2, 125445, Note_on_c, 0, 42, 0
2, 125445, Note_on_c, 0, 78, 0
2, 125445, Note_on_c, 0, 82, 0
2, 125445, Note_on_c, 0, 90, 0
2, 125448, Note_on_c, 0, 85, 107
2, 125449, Note_on_c, 0, 78, 106
2, 125449, Note_on_c, 0, 90, 108
2, 125452, Note_on_c, 0, 42, 112
2, 125453, Note_on_c, 0, 30, 107
2, 125455, Note_on_c, 0, 82, 108
2, 125456, Note_on_c, 0, 94, 109
2, 125652, Note_on_c, 0, 78, 0
2, 125659, Note_on_c, 0, 78, 111
2, 125667, Note_on_c, 0, 30, 0
2, 125667, Note_on_c, 0, 42, 0
2, 125667, Note_on_c, 0, 82, 0
2, 125667, Note_on_c, 0, 90, 0
2, 125674, Note_on_c, 0, 90, 106
2, 125675, Note_on_c, 0, 82, 101
2, 125677, Note_on_c, 0, 42, 109
2, 125678, Note_on_c, 0, 30, 107
2, 125844, Note_on_c, 0, 30, 0
2, 125844, Note_on_c, 0, 42, 0
2, 125844, Note_on_c, 0, 78, 0
2, 125844, Note_on_c, 0, 82, 0
2, 125844, Note_on_c, 0, 90, 0
2, 125848, Note_on_c, 0, 90, 109
2, 125848, Note_on_c, 0, 78, 104
2, 125850, Note_on_c, 0, 94, 0
2, 125854, Note_on_c, 0, 82, 106
2, 125854, Note_on_c, 0, 42, 110
2, 125855, Note_on_c, 0, 30, 103
2, 126059, Note_on_c, 0, 73, 0
2, 126063, Control_c, 0, 64, 0
2, 126064, Note_on_c, 0, 30, 0
2, 126065, Note_on_c, 0, 42, 0
2, 126065, Note_on_c, 0, 82, 0
2, 126065, Note_on_c, 0, 90, 0
2, 126066, Note_on_c, 0, 78, 0
2, 126074, Note_on_c, 0, 32, 0
2, 126074, Note_on_c, 0, 83, 0
2, 126074, Note_on_c, 0, 85, 0
2, 127388, Note_on_c, 0, 26, 57
2, 127389, Note_on_c, 0, 38, 70
2, 127390, Note_on_c, 0, 98, 93
2, 127418, Control_c, 0, 64, 127
2, 127534, Note_on_c, 0, 93, 79
2, 127536, Note_on_c, 0, 45, 52
2, 127685, Note_on_c, 0, 50, 49
2, 127691, Note_on_c, 0, 86, 82
2, 127815, Note_on_c, 0, 52, 55
2, 127818, Note_on_c, 0, 93, 0
2, 127827, Note_on_c, 0, 93, 82
2, 127946, Note_on_c, 0, 53, 57
2, 127971, Note_on_c, 0, 98, 0
2, 127978, Note_on_c, 0, 98, 95
2, 128097, Note_on_c, 0, 57, 58
2, 128117, Note_on_c, 0, 93, 0
2, 128129, Note_on_c, 0, 93, 80
2, 128251, Note_on_c, 0, 62, 59
2, 128279, Note_on_c, 0, 86, 0
2, 128284, Note_on_c, 0, 86, 79
2, 128383, Note_on_c, 0, 64, 66
2, 128386, Note_on_c, 0, 52, 0
2, 128390, Note_on_c, 0, 52, 55
2, 128409, Note_on_c, 0, 62, 0
2, 128409, Note_on_c, 0, 93, 0
2, 128419, Note_on_c, 0, 62, 53
2, 128421, Note_on_c, 0, 93, 72
2, 128532, Note_on_c, 0, 98, 0
2, 128533, Note_on_c, 0, 65, 61
2, 128537, Note_on_c, 0, 98, 85
2, 128663, Note_on_c, 0, 93, 0
2, 128671, Note_on_c, 0, 93, 70
2, 128671, Note_on_c, 0, 69, 52
2, 128792, Note_on_c, 0, 74, 70
2, 128808, Note_on_c, 0, 86, 0
2, 128813, Note_on_c, 0, 86, 71
2, 128939, Note_on_c, 0, 65, 0
2, 128939, Note_on_c, 0, 93, 0
2, 128943, Note_on_c, 0, 76, 60
2, 128944, Note_on_c, 0, 93, 70
2, 128949, Note_on_c, 0, 65, 53
2, 129016, Note_on_c, 0, 67, 61
2, 129076, Note_on_c, 0, 77, 71
2, 129077, Note_on_c, 0, 98, 0
2, 129085, Note_on_c, 0, 69, 0
2, 129088, Note_on_c, 0, 98, 91
2, 129095, Note_on_c, 0, 69, 76
2, 129225, Note_on_c, 0, 81, 65
2, 129231, Note_on_c, 0, 93, 0
2, 129235, Note_on_c, 0, 93, 75
2, 129354, Note_on_c, 0, 86, 0
2, 129358, Note_on_c, 0, 86, 80
2, 129377, Note_on_c, 0, 69, 0
2, 129388, Note_on_c, 0, 69, 40
2, 129500, Note_on_c, 0, 93, 0
2, 129508, Note_on_c, 0, 93, 83
2, 129646, Note_on_c, 0, 26, 0
2, 129650, Note_on_c, 0, 36, 69
2, 129659, Control_c, 0, 64, 0
2, 129661, Note_on_c, 0, 50, 0
2, 129661, Note_on_c, 0, 45, 0
2, 129661, Note_on_c, 0, 93, 0
2, 129663, Note_on_c, 0, 65, 0
2, 129663, Note_on_c, 0, 38, 0
2, 129663, Note_on_c, 0, 81, 0
2, 129663, Note_on_c, 0, 64, 0
2, 129664, Note_on_c, 0, 76, 0
2, 129664, Note_on_c, 0, 57, 0
2, 129664, Note_on_c, 0, 69, 0
2, 129665, Note_on_c, 0, 53, 0
2, 129665, Note_on_c, 0, 86, 0
2, 129665, Note_on_c, 0, 74, 0
2, 129665, Note_on_c, 0, 67, 0
2, 129676, Note_on_c, 0, 52, 0
2, 129676, Note_on_c, 0, 62, 0
2, 129676, Note_on_c, 0, 98, 0
2, 129680, Note_on_c, 0, 96, 82
2, 129684, Note_on_c, 0, 77, 0
2, 129730, Control_c, 0, 64, 127
2, 129795, Note_on_c, 0, 43, 48
2, 129825, Note_on_c, 0, 91, 75
2, 129943, Note_on_c, 0, 48, 52
2, 129997, Note_on_c, 0, 84, 63
2, 130083, Note_on_c, 0, 50, 61
2, 130129, Note_on_c, 0, 91, 0
2, 130136, Note_on_c, 0, 91, 70
2, 130216, Note_on_c, 0, 52, 64
2, 130272, Note_on_c, 0, 69, 82
2, 130275, Note_on_c, 0, 96, 0
2, 130281, Note_on_c, 0, 96, 86
2, 130358, Note_on_c, 0, 55, 58
2, 130421, Note_on_c, 0, 91, 0
2, 130429, Note_on_c, 0, 91, 65
2, 130501, Note_on_c, 0, 60, 62
2, 130560, Note_on_c, 0, 84, 0
2, 130567, Note_on_c, 0, 84, 63
2, 130641, Note_on_c, 0, 62, 64
2, 130698, Note_on_c, 0, 91, 0
2, 130703, Note_on_c, 0, 91, 66
2, 130709, Note_on_c, 0, 67, 48
2, 130713, Note_on_c, 0, 67, 0
2, 130733, Note_on_c, 0, 65, 58
2, 130778, Note_on_c, 0, 64, 80
2, 130805, Note_on_c, 0, 96, 0
2, 130813, Note_on_c, 0, 96, 83
2, 130924, Note_on_c, 0, 67, 65
2, 130967, Note_on_c, 0, 91, 0
2, 130971, Note_on_c, 0, 91, 68
2, 131055, Note_on_c, 0, 72, 73
2, 131074, Note_on_c, 0, 84, 0
2, 131084, Note_on_c, 0, 84, 65
2, 131189, Note_on_c, 0, 91, 0
2, 131195, Note_on_c, 0, 74, 63
2, 131200, Note_on_c, 0, 91, 66
2, 131316, Note_on_c, 0, 76, 70
2, 131320, Note_on_c, 0, 96, 0
2, 131326, Note_on_c, 0, 96, 92
2, 131328, Note_on_c, 0, 60, 0
2, 131333, Note_on_c, 0, 60, 83
2, 131346, Control_c, 0, 64, 0
2, 131366, Control_c, 0, 64, 127
2, 131473, Note_on_c, 0, 91, 0
2, 131480, Note_on_c, 0, 79, 77
2, 131483, Note_on_c, 0, 91, 72
2, 131604, Note_on_c, 0, 62, 0
2, 131608, Note_on_c, 0, 62, 84
2, 131619, Note_on_c, 0, 84, 0
2, 131631, Note_on_c, 0, 84, 72
2, 131750, Note_on_c, 0, 91, 0
2, 131760, Note_on_c, 0, 91, 78
2, 131909, Note_on_c, 0, 34, 81
2, 131919, Note_on_c, 0, 34, 0
2, 131926, Note_on_c, 0, 98, 92
2, 131930, Note_on_c, 0, 79, 0
2, 131931, Note_on_c, 0, 84, 0
2, 131931, Note_on_c, 0, 62, 0
2, 131931, Note_on_c, 0, 50, 0
2, 131933, Note_on_c, 0, 55, 0
2, 131935, Note_on_c, 0, 43, 0
2, 131938, Control_c, 0, 64, 0
2, 131940, Note_on_c, 0, 57, 58
2, 131942, Note_on_c, 0, 60, 0
2, 131942, Note_on_c, 0, 64, 0
2, 131942, Note_on_c, 0, 67, 0
2, 131942, Note_on_c, 0, 76, 0
2, 131950, Note_on_c, 0, 48, 0
2, 131950, Note_on_c, 0, 57, 0
2, 131950, Note_on_c, 0, 65, 0
2, 131950, Note_on_c, 0, 69, 0
2, 131950, Note_on_c, 0, 72, 0
2, 131957, Note_on_c, 0, 36, 0
2, 131965, Note_on_c, 0, 91, 0
2, 131965, Note_on_c, 0, 96, 0
2, 131972, Note_on_c, 0, 98, 0
2, 131973, Note_on_c, 0, 52, 0
2, 131988, Note_on_c, 0, 74, 0
2, 131999, Note_on_c, 0, 60, 71
2, 132011, Control_c, 0, 64, 127
2, 132074, Note_on_c, 0, 69, 71
2, 132078, Note_on_c, 0, 41, 55
2, 132088, Note_on_c, 0, 41, 0
2, 132093, Note_on_c, 0, 93, 70
2, 132228, Note_on_c, 0, 86, 75
2, 132229, Note_on_c, 0, 58, 52
2, 132349, Note_on_c, 0, 93, 0
2, 132359, Note_on_c, 0, 93, 79
2, 132477, Note_on_c, 0, 50, 65
2, 132499, Note_on_c, 0, 98, 91
2, 132625, Note_on_c, 0, 53, 49
2, 132648, Note_on_c, 0, 93, 0
2, 132654, Note_on_c, 0, 93, 78
2, 132764, Note_on_c, 0, 58, 0
2, 132769, Note_on_c, 0, 58, 63
2, 132794, Note_on_c, 0, 86, 0
2, 132800, Note_on_c, 0, 86, 74
2, 132887, Note_on_c, 0, 60, 0
2, 132897, Note_on_c, 0, 60, 58
2, 132933, Note_on_c, 0, 93, 0
2, 132937, Note_on_c, 0, 62, 55
2, 132943, Note_on_c, 0, 93, 70
2, 133032, Note_on_c, 0, 98, 0
2, 133038, Note_on_c, 0, 98, 82
2, 133040, Note_on_c, 0, 62, 0
2, 133051, Note_on_c, 0, 62, 59
2, 133190, Note_on_c, 0, 65, 60
2, 133194, Note_on_c, 0, 93, 0
2, 133201, Note_on_c, 0, 93, 66
2, 133274, Note_on_c, 0, 88, 43
2, 133312, Note_on_c, 0, 70, 67
2, 133340, Note_on_c, 0, 86, 0
2, 133345, Note_on_c, 0, 86, 69
2, 133455, Note_on_c, 0, 93, 0
2, 133463, Note_on_c, 0, 62, 0
2, 133466, Note_on_c, 0, 93, 73
2, 133467, Note_on_c, 0, 72, 66
2, 133474, Note_on_c, 0, 62, 57
2, 133537, Note_on_c, 0, 67, 54
2, 133542, Note_on_c, 0, 55, 55
2, 133585, Note_on_c, 0, 98, 0
2, 133591, Note_on_c, 0, 98, 88
2, 133601, Note_on_c, 0, 69, 0
2, 133604, Note_on_c, 0, 74, 80
2, 133606, Note_on_c, 0, 69, 78
2, 133725, Note_on_c, 0, 77, 74
2, 133754, Note_on_c, 0, 93, 0
2, 133759, Note_on_c, 0, 93, 67
2, 133870, Note_on_c, 0, 70, 0
2, 133874, Note_on_c, 0, 94, 52
2, 133876, Note_on_c, 0, 70, 49
2, 133880, Note_on_c, 0, 82, 59
2, 133908, Note_on_c, 0, 86, 0
2, 133916, Note_on_c, 0, 86, 69
2, 134019, Note_on_c, 0, 89, 77
2, 134023, Note_on_c, 0, 93, 0
2, 134032, Note_on_c, 0, 93, 70
2, 134160, Note_on_c, 0, 33, 84
2, 134161, Note_on_c, 0, 88, 0
2, 134167, Note_on_c, 0, 88, 69
2, 134179, Note_on_c, 0, 77, 0
2, 134179, Note_on_c, 0, 58, 0
2, 134179, Note_on_c, 0, 67, 0
2, 134180, Control_c, 0, 64, 0
2, 134180, Note_on_c, 0, 98, 0
2, 134180, Note_on_c, 0, 70, 0
2, 134180, Note_on_c, 0, 72, 0
2, 134180, Note_on_c, 0, 94, 0
2, 134180, Note_on_c, 0, 69, 0
2, 134180, Note_on_c, 0, 86, 0
2, 134180, Note_on_c, 0, 62, 0
2, 134180, Note_on_c, 0, 82, 0
2, 134180, Note_on_c, 0, 74, 0
2, 134181, Note_on_c, 0, 89, 0
2, 134181, Note_on_c, 0, 53, 0
2, 134182, Note_on_c, 0, 50, 0
2, 134182, Note_on_c, 0, 60, 0
2, 134184, Note_on_c, 0, 55, 0
2, 134186, Note_on_c, 0, 97, 94
2, 134192, Note_on_c, 0, 65, 0
2, 134215, Control_c, 0, 64, 127
2, 134323, Note_on_c, 0, 93, 0
2, 134326, Note_on_c, 0, 40, 60
2, 134327, Note_on_c, 0, 93, 72
2, 134446, Note_on_c, 0, 33, 0
2, 134450, Note_on_c, 0, 33, 58
2, 134472, Note_on_c, 0, 45, 58
2, 134473, Note_on_c, 0, 85, 75
2, 134615, Note_on_c, 0, 93, 0
2, 134615, Note_on_c, 0, 47, 48
2, 134622, Note_on_c, 0, 47, 0
2, 134624, Note_on_c, 0, 93, 69
2, 134735, Note_on_c, 0, 49, 65
2, 134760, Note_on_c, 0, 93, 0
2, 134760, Note_on_c, 0, 97, 0
2, 134768, Note_on_c, 0, 93, 79
2, 134772, Note_on_c, 0, 97, 99
2, 134772, Note_on_c, 0, 69, 85
2, 134878, Note_on_c, 0, 52, 66
2, 134945, Note_on_c, 0, 93, 0
2, 134950, Note_on_c, 0, 93, 71
2, 135022, Note_on_c, 0, 45, 0
2, 135031, Note_on_c, 0, 57, 70
2, 135033, Note_on_c, 0, 45, 58
2, 135068, Note_on_c, 0, 85, 0
2, 135073, Note_on_c, 0, 85, 74
2, 135165, Note_on_c, 0, 59, 71
2, 135170, Note_on_c, 0, 71, 61
2, 135237, Note_on_c, 0, 93, 0
2, 135241, Note_on_c, 0, 93, 71
2, 135283, Note_on_c, 0, 65, 63
2, 135294, Note_on_c, 0, 61, 69
2, 135312, Note_on_c, 0, 81, 89
2, 135336, Note_on_c, 0, 97, 0
2, 135337, Note_on_c, 0, 64, 72
2, 135346, Note_on_c, 0, 97, 98
2, 135396, Note_on_c, 0, 94, 67
2, 135401, Note_on_c, 0, 82, 75
2, 135429, Note_on_c, 0, 64, 0
2, 135438, Note_on_c, 0, 64, 75
2, 135467, Note_on_c, 0, 81, 0
2, 135467, Note_on_c, 0, 93, 0
2, 135472, Note_on_c, 0, 93, 73
2, 135472, Note_on_c, 0, 81, 81
2, 135513, Note_on_c, 0, 94, 0
2, 135521, Note_on_c, 0, 82, 0
2, 135524, Note_on_c, 0, 94, 69
2, 135526, Note_on_c, 0, 82, 72
2, 135575, Note_on_c, 0, 81, 0
2, 135582, Note_on_c, 0, 69, 0
2, 135585, Note_on_c, 0, 81, 77
2, 135586, Note_on_c, 0, 69, 71
2, 135621, Note_on_c, 0, 85, 0
2, 135630, Note_on_c, 0, 85, 76
2, 135644, Note_on_c, 0, 94, 0
2, 135655, Note_on_c, 0, 94, 64
2, 135713, Note_on_c, 0, 71, 0
2, 135713, Note_on_c, 0, 81, 0
2, 135723, Note_on_c, 0, 81, 82
2, 135724, Note_on_c, 0, 71, 74
2, 135767, Note_on_c, 0, 93, 0
2, 135771, Note_on_c, 0, 93, 76
2, 135774, Note_on_c, 0, 94, 0
2, 135786, Note_on_c, 0, 94, 68
2, 135843, Note_on_c, 0, 81, 0
2, 135852, Note_on_c, 0, 81, 73
2, 135854, Note_on_c, 0, 73, 86
2, 135897, Note_on_c, 0, 97, 0
2, 135903, Note_on_c, 0, 97, 96
2, 135955, Note_on_c, 0, 76, 73
2, 135974, Note_on_c, 0, 81, 0
2, 135979, Note_on_c, 0, 81, 84
2, 135997, Note_on_c, 0, 93, 0
2, 136004, Note_on_c, 0, 93, 62
2, 136043, Note_on_c, 0, 82, 0
2, 136043, Note_on_c, 0, 94, 0
2, 136047, Note_on_c, 0, 94, 75
2, 136049, Note_on_c, 0, 82, 84
2, 136112, Note_on_c, 0, 81, 0
2, 136112, Note_on_c, 0, 93, 0
2, 136122, Note_on_c, 0, 81, 97
2, 136124, Note_on_c, 0, 93, 78
2, 136151, Note_on_c, 0, 85, 0
2, 136156, Note_on_c, 0, 85, 65
2, 136243, Note_on_c, 0, 69, 0
2, 136253, Note_on_c, 0, 69, 82
2, 136375, Note_on_c, 0, 33, 0
2, 136375, Note_on_c, 0, 40, 0
2, 136376, Note_on_c, 0, 69, 0
2, 136376, Note_on_c, 0, 71, 0
2, 136376, Note_on_c, 0, 97, 0
2, 136376, Note_on_c, 0, 94, 0
2, 136377, Note_on_c, 0, 52, 0
2, 136377, Note_on_c, 0, 93, 0
2, 136377, Note_on_c, 0, 45, 0
2, 136377, Note_on_c, 0, 81, 0
2, 136377, Note_on_c, 0, 64, 0
2, 136377, Note_on_c, 0, 61, 0
2, 136377, Note_on_c, 0, 49, 0
2, 136377, Note_on_c, 0, 85, 0
2, 136377, Note_on_c, 0, 82, 0
2, 136377, Control_c, 0, 64, 0
2, 136378, Note_on_c, 0, 59, 0
2, 136381, Note_on_c, 0, 88, 0
2, 136389, Note_on_c, 0, 57, 0
2, 136389, Note_on_c, 0, 73, 0
2, 136389, Note_on_c, 0, 76, 0
2, 136396, Note_on_c, 0, 65, 0
2, 136401, Note_on_c, 0, 74, 100
2, 136402, Note_on_c, 0, 34, 83
2, 136404, Note_on_c, 0, 65, 87
2, 136405, Note_on_c, 0, 70, 90
2, 136435, Control_c, 0, 64, 127
2, 136535, Note_on_c, 0, 74, 0
2, 136542, Note_on_c, 0, 34, 0
2, 136542, Note_on_c, 0, 65, 0
2, 136542, Note_on_c, 0, 70, 0
2, 136545, Note_on_c, 0, 74, 75
2, 136546, Note_on_c, 0, 70, 76
2, 136553, Note_on_c, 0, 65, 59
2, 136571, Note_on_c, 0, 53, 33
2, 136680, Note_on_c, 0, 46, 72
2, 136681, Note_on_c, 0, 77, 94
2, 136682, Note_on_c, 0, 86, 87
2, 136687, Note_on_c, 0, 58, 70
2, 136694, Note_on_c, 0, 82, 77
2, 136696, Note_on_c, 0, 74, 0
2, 136701, Note_on_c, 0, 74, 60
2, 136826, Note_on_c, 0, 65, 0
2, 136826, Note_on_c, 0, 70, 0
2, 136835, Note_on_c, 0, 76, 84
2, 136835, Note_on_c, 0, 70, 86
2, 136836, Note_on_c, 0, 65, 80
2, 136919, Note_on_c, 0, 74, 0
2, 136926, Note_on_c, 0, 74, 71
2, 136926, Note_on_c, 0, 53, 0
2, 136938, Note_on_c, 0, 53, 43
2, 136946, Note_on_c, 0, 93, 74
2, 136957, Note_on_c, 0, 93, 0
2, 136972, Note_on_c, 0, 94, 84
2, 136972, Note_on_c, 0, 58, 0
2, 136972, Note_on_c, 0, 82, 0
2, 136972, Note_on_c, 0, 86, 0
2, 136977, Note_on_c, 0, 82, 93
2, 136983, Note_on_c, 0, 58, 72
2, 136983, Note_on_c, 0, 86, 93
2, 137118, Note_on_c, 0, 65, 0
2, 137126, Note_on_c, 0, 70, 0
2, 137127, Note_on_c, 0, 72, 80
2, 137130, Note_on_c, 0, 65, 75
2, 137134, Note_on_c, 0, 53, 0
2, 137136, Note_on_c, 0, 70, 73
2, 137138, Note_on_c, 0, 53, 58
2, 137264, Note_on_c, 0, 86, 0
2, 137273, Note_on_c, 0, 86, 76
2, 137282, Note_on_c, 0, 50, 54
2, 137293, Note_on_c, 0, 84, 40
2, 137389, Control_c, 0, 64, 0
2, 137395, Note_on_c, 0, 72, 0
2, 137395, Note_on_c, 0, 74, 0
2, 137399, Note_on_c, 0, 86, 0
2, 137400, Note_on_c, 0, 94, 0
2, 137400, Note_on_c, 0, 84, 0
2, 137400, Note_on_c, 0, 76, 0
2, 137400, Note_on_c, 0, 58, 0
2, 137400, Note_on_c, 0, 50, 0
2, 137400, Note_on_c, 0, 46, 0
2, 137400, Note_on_c, 0, 65, 0
2, 137402, Note_on_c, 0, 74, 95
2, 137402, Note_on_c, 0, 82, 0
2, 137402, Note_on_c, 0, 72, 89
2, 137405, Note_on_c, 0, 67, 83
2, 137407, Note_on_c, 0, 82, 83
2, 137418, Note_on_c, 0, 77, 0
2, 137441, Control_c, 0, 64, 127
2, 137556, Note_on_c, 0, 67, 0
2, 137558, Note_on_c, 0, 64, 80
2, 137560, Note_on_c, 0, 55, 76
2, 137560, Note_on_c, 0, 67, 69
2, 137566, Note_on_c, 0, 60, 61
2, 137567, Note_on_c, 0, 36, 71
2, 137679, Note_on_c, 0, 74, 0
2, 137687, Note_on_c, 0, 67, 0
2, 137687, Note_on_c, 0, 72, 0
2, 137688, Note_on_c, 0, 74, 84
2, 137694, Note_on_c, 0, 70, 0
2, 137695, Note_on_c, 0, 67, 70
2, 137696, Note_on_c, 0, 72, 76
2, 137699, Note_on_c, 0, 79, 70
2, 137702, Note_on_c, 0, 53, 0
2, 137829, Note_on_c, 0, 48, 73
2, 137839, Note_on_c, 0, 84, 86
2, 137844, Note_on_c, 0, 77, 88
2, 137848, Note_on_c, 0, 72, 0
2, 137852, Note_on_c, 0, 72, 85
2, 137956, Note_on_c, 0, 52, 52
2, 137978, Note_on_c, 0, 67, 0
2, 137978, Note_on_c, 0, 79, 0
2, 137983, Note_on_c, 0, 79, 80
2, 137986, Note_on_c, 0, 48, 0
2, 137986, Note_on_c, 0, 72, 0
2, 137987, Note_on_c, 0, 67, 73
2, 137987, Note_on_c, 0, 76, 87
2, 137990, Note_on_c, 0, 72, 82
2, 137992, Note_on_c, 0, 48, 61
2, 137993, Control_c, 0, 64, 0
2, 137993, Note_on_c, 0, 43, 52
2, 138024, Control_c, 0, 64, 127
2, 138109, Note_on_c, 0, 60, 0
2, 138115, Note_on_c, 0, 60, 63
2, 138117, Note_on_c, 0, 84, 0
2, 138121, Note_on_c, 0, 84, 89
2, 138132, Note_on_c, 0, 79, 0
2, 138134, Note_on_c, 0, 88, 94
2, 138137, Note_on_c, 0, 79, 76
2, 138142, Note_on_c, 0, 91, 78
2, 138147, Note_on_c, 0, 91, 0
2, 138270, Note_on_c, 0, 55, 0
2, 138270, Note_on_c, 0, 67, 0
2, 138278, Note_on_c, 0, 72, 0
2, 138278, Note_on_c, 0, 79, 0
2, 138280, Note_on_c, 0, 55, 65
2, 138281, Note_on_c, 0, 67, 75
2, 138285, Note_on_c, 0, 72, 79
2, 138286, Note_on_c, 0, 79, 69
2, 138408, Note_on_c, 0, 52, 0
2, 138408, Note_on_c, 0, 64, 0
2, 138414, Note_on_c, 0, 64, 57
2, 138414, Note_on_c, 0, 52, 62
2, 138424, Note_on_c, 0, 84, 0
2, 138434, Note_on_c, 0, 84, 65
2, 138570, Note_on_c, 0, 43, 0
2, 138570, Note_on_c, 0, 79, 0
2, 138575, Note_on_c, 0, 43, 41
2, 138578, Note_on_c, 0, 79, 72
2, 138693, Note_on_c, 0, 64, 0
2, 138701, Note_on_c, 0, 64, 80
2, 138716, Note_on_c, 0, 74, 0
2, 138723, Note_on_c, 0, 33, 76
2, 138723, Note_on_c, 0, 67, 0
2, 138723, Note_on_c, 0, 72, 0
2, 138727, Note_on_c, 0, 74, 94
2, 138728, Note_on_c, 0, 67, 85
2, 138733, Note_on_c, 0, 72, 91
2, 138737, Control_c, 0, 64, 0
2, 138746, Note_on_c, 0, 82, 0
2, 138749, Note_on_c, 0, 43, 0
2, 138750, Note_on_c, 0, 84, 0
2, 138750, Note_on_c, 0, 48, 0
2, 138751, Note_on_c, 0, 36, 0
2, 138751, Note_on_c, 0, 52, 0
2, 138751, Note_on_c, 0, 60, 0
2, 138752, Note_on_c, 0, 55, 0
2, 138753, Note_on_c, 0, 64, 0
2, 138757, Note_on_c, 0, 88, 0
2, 138762, Note_on_c, 0, 77, 0
2, 138769, Note_on_c, 0, 76, 0
2, 138792, Note_on_c, 0, 33, 0
2, 138792, Control_c, 0, 64, 127
2, 138862, Note_on_c, 0, 74, 0
2, 138869, Note_on_c, 0, 67, 0
2, 138870, Note_on_c, 0, 74, 83
2, 138874, Note_on_c, 0, 67, 79
2, 138876, Note_on_c, 0, 40, 58
2, 138877, Note_on_c, 0, 72, 0
2, 138881, Note_on_c, 0, 52, 62
2, 138881, Note_on_c, 0, 72, 79
2, 138885, Note_on_c, 0, 52, 0
2, 138987, Note_on_c, 0, 45, 77
2, 139015, Note_on_c, 0, 77, 93
2, 139015, Note_on_c, 0, 72, 0
2, 139021, Note_on_c, 0, 72, 85
2, 139023, Note_on_c, 0, 67, 0
2, 139031, Note_on_c, 0, 67, 72
2, 139151, Note_on_c, 0, 48, 74
2, 139159, Control_c, 0, 64, 0
2, 139161, Note_on_c, 0, 72, 0
2, 139163, Note_on_c, 0, 76, 87
2, 139163, Note_on_c, 0, 74, 0
2, 139164, Note_on_c, 0, 77, 0
2, 139169, Note_on_c, 0, 72, 75
2, 139176, Note_on_c, 0, 67, 0
2, 139176, Note_on_c, 0, 79, 0
2, 139188, Note_on_c, 0, 67, 42
2, 139192, Note_on_c, 0, 40, 0
2, 139207, Control_c, 0, 64, 127
2, 139306, Note_on_c, 0, 84, 83
2, 139308, Note_on_c, 0, 91, 87
2, 139309, Note_on_c, 0, 79, 83
2, 139310, Note_on_c, 0, 88, 91
2, 139315, Note_on_c, 0, 45, 0
2, 139318, Note_on_c, 0, 57, 59
2, 139325, Note_on_c, 0, 45, 53
2, 139453, Note_on_c, 0, 67, 0
2, 139453, Note_on_c, 0, 72, 0
2, 139453, Note_on_c, 0, 79, 0
2, 139458, Note_on_c, 0, 74, 84
2, 139459, Note_on_c, 0, 79, 80
2, 139459, Note_on_c, 0, 72, 82
2, 139462, Note_on_c, 0, 52, 69
2, 139462, Note_on_c, 0, 67, 77
2, 139584, Note_on_c, 0, 84, 0
2, 139595, Note_on_c, 0, 84, 80
2, 139599, Note_on_c, 0, 48, 0
2, 139610, Note_on_c, 0, 48, 55
2, 139729, Note_on_c, 0, 79, 0
2, 139737, Note_on_c, 0, 74, 0
2, 139738, Note_on_c, 0, 79, 85
2, 139739, Note_on_c, 0, 86, 90
2, 139741, Note_on_c, 0, 74, 93
2, 139743, Control_c, 0, 64, 0
2, 139746, Note_on_c, 0, 69, 73
2, 139755, Note_on_c, 0, 65, 75
2, 139760, Control_c, 0, 64, 127
2, 139768, Note_on_c, 0, 45, 0
2, 139773, Note_on_c, 0, 45, 52
2, 139887, Note_on_c, 0, 93, 87
2, 139890, Note_on_c, 0, 89, 81
2, 139914, Note_on_c, 0, 65, 0
2, 139918, Note_on_c, 0, 65, 65
2, 139924, Note_on_c, 0, 38, 66
2, 139925, Note_on_c, 0, 50, 65
2, 139937, Note_on_c, 0, 52, 0
2, 139937, Note_on_c, 0, 76, 0
2, 139968, Note_on_c, 0, 67, 0
2, 140025, Note_on_c, 0, 81, 71
2, 140037, Note_on_c, 0, 57, 0
2, 140067, Note_on_c, 0, 45, 0
2, 140072, Note_on_c, 0, 45, 58
2, 140160, Note_on_c, 0, 72, 0
2, 140160, Note_on_c, 0, 86, 0
2, 140166, Note_on_c, 0, 72, 90
2, 140166, Note_on_c, 0, 86, 88
2, 140167, Note_on_c, 0, 65, 0
2, 140167, Note_on_c, 0, 69, 0
2, 140172, Note_on_c, 0, 69, 70
2, 140178, Note_on_c, 0, 65, 66
2, 140183, Note_on_c, 0, 77, 66
2, 140206, Note_on_c, 0, 50, 0
2, 140210, Note_on_c, 0, 50, 62
2, 140290, Note_on_c, 0, 74, 0
2, 140290, Note_on_c, 0, 81, 0
2, 140291, Control_c, 0, 64, 0
2, 140292, Note_on_c, 0, 38, 0
2, 140293, Note_on_c, 0, 93, 0
2, 140302, Note_on_c, 0, 81, 78
2, 140313, Note_on_c, 0, 65, 0
2, 140313, Note_on_c, 0, 69, 0
2, 140313, Note_on_c, 0, 91, 0
2, 140323, Note_on_c, 0, 65, 65
2, 140324, Note_on_c, 0, 69, 80
2, 140326, Note_on_c, 0, 60, 70
2, 140336, Control_c, 0, 64, 127
2, 140459, Note_on_c, 0, 88, 0
2, 140463, Note_on_c, 0, 91, 80
2, 140467, Note_on_c, 0, 79, 0
2, 140470, Note_on_c, 0, 88, 72
2, 140471, Note_on_c, 0, 79, 63
2, 140471, Note_on_c, 0, 64, 70
2, 140484, Note_on_c, 0, 36, 65
2, 140490, Note_on_c, 0, 86, 0
2, 140590, Note_on_c, 0, 50, 0
2, 140597, Note_on_c, 0, 64, 0
2, 140597, Note_on_c, 0, 72, 0
2, 140597, Control_c, 0, 64, 0
2, 140605, Note_on_c, 0, 79, 0
2, 140606, Note_on_c, 0, 72, 85
2, 140607, Note_on_c, 0, 64, 82
2, 140609, Note_on_c, 0, 67, 78
2, 140612, Note_on_c, 0, 79, 70
2, 140620, Control_c, 0, 64, 127
2, 140628, Note_on_c, 0, 45, 0
2, 140629, Note_on_c, 0, 57, 63
2, 140633, Note_on_c, 0, 45, 61
2, 140636, Note_on_c, 0, 57, 0
2, 140751, Note_on_c, 0, 48, 0
2, 140751, Note_on_c, 0, 77, 0
2, 140757, Note_on_c, 0, 48, 83
2, 140759, Note_on_c, 0, 60, 0
2, 140759, Note_on_c, 0, 84, 0
2, 140764, Note_on_c, 0, 84, 84
2, 140769, Note_on_c, 0, 60, 65
2, 140897, Note_on_c, 0, 79, 0
2, 140902, Note_on_c, 0, 79, 67
2, 140904, Note_on_c, 0, 45, 0
2, 140908, Note_on_c, 0, 57, 62
2, 140909, Note_on_c, 0, 45, 67
2, 140912, Note_on_c, 0, 76, 48
2, 140920, Note_on_c, 0, 64, 0
2, 140925, Note_on_c, 0, 64, 43
2, 140928, Note_on_c, 0, 48, 0
2, 140939, Note_on_c, 0, 48, 47
2, 141034, Note_on_c, 0, 74, 94
2, 141035, Note_on_c, 0, 65, 0
2, 141038, Note_on_c, 0, 70, 83
2, 141041, Note_on_c, 0, 65, 81
2, 141043, Note_on_c, 0, 82, 82
2, 141045, Note_on_c, 0, 53, 79
2, 141055, Control_c, 0, 64, 0
2, 141069, Note_on_c, 0, 67, 0
2, 141070, Note_on_c, 0, 84, 0
2, 141070, Note_on_c, 0, 91, 0
2, 141070, Note_on_c, 0, 72, 0
2, 141070, Note_on_c, 0, 64, 0
2, 141071, Note_on_c, 0, 48, 0
2, 141072, Note_on_c, 0, 76, 0
2, 141074, Note_on_c, 0, 88, 0
2, 141075, Note_on_c, 0, 34, 88
2, 141084, Note_on_c, 0, 46, 74
2, 141096, Note_on_c, 0, 89, 0
2, 141104, Note_on_c, 0, 81, 0
2, 141104, Control_c, 0, 64, 127
2, 141127, Note_on_c, 0, 36, 0
2, 141127, Note_on_c, 0, 69, 0
2, 141166, Note_on_c, 0, 65, 0
2, 141166, Note_on_c, 0, 70, 0
2, 141170, Note_on_c, 0, 58, 73
2, 141172, Note_on_c, 0, 65, 53
2, 141173, Note_on_c, 0, 70, 73
2, 141212, Note_on_c, 0, 53, 0
2, 141222, Note_on_c, 0, 53, 56
2, 141230, Note_on_c, 0, 41, 55
2, 141250, Note_on_c, 0, 57, 0
2, 141319, Note_on_c, 0, 58, 0
2, 141319, Note_on_c, 0, 65, 0
2, 141320, Note_on_c, 0, 77, 92
2, 141325, Note_on_c, 0, 86, 86
2, 141325, Note_on_c, 0, 65, 65
2, 141327, Note_on_c, 0, 53, 0
2, 141331, Note_on_c, 0, 58, 75
2, 141332, Note_on_c, 0, 53, 56
2, 141457, Note_on_c, 0, 53, 0
2, 141457, Note_on_c, 0, 65, 0
2, 141457, Note_on_c, 0, 70, 0
2, 141464, Note_on_c, 0, 76, 82
2, 141467, Note_on_c, 0, 65, 63
2, 141468, Note_on_c, 0, 53, 58
2, 141469, Note_on_c, 0, 70, 72
2, 141551, Note_on_c, 0, 50, 46
2, 141565, Note_on_c, 0, 45, 0
2, 141625, Control_c, 0, 64, 0
2, 141626, Note_on_c, 0, 65, 0
2, 141626, Note_on_c, 0, 70, 0
2, 141626, Note_on_c, 0, 77, 0
2, 141626, Note_on_c, 0, 82, 0
2, 141626, Note_on_c, 0, 86, 0
2, 141630, Note_on_c, 0, 94, 92
2, 141632, Note_on_c, 0, 70, 85
2, 141633, Note_on_c, 0, 82, 100
2, 141633, Note_on_c, 0, 65, 65
2, 141634, Note_on_c, 0, 58, 0
2, 141634, Note_on_c, 0, 94, 0
2, 141635, Note_on_c, 0, 77, 94
2, 141638, Note_on_c, 0, 86, 100
2, 141639, Note_on_c, 0, 58, 79
2, 141649, Control_c, 0, 64, 127
2, 141757, Note_on_c, 0, 65, 0
2, 141760, Note_on_c, 0, 72, 83
2, 141764, Note_on_c, 0, 65, 67
2, 141765, Note_on_c, 0, 70, 0
2, 141775, Note_on_c, 0, 70, 68
2, 141776, Note_on_c, 0, 62, 46
2, 141780, Note_on_c, 0, 53, 0
2, 141791, Note_on_c, 0, 53, 71
2, 141918, Note_on_c, 0, 50, 0
2, 141918, Note_on_c, 0, 86, 0
2, 141923, Note_on_c, 0, 50, 71
2, 141924, Note_on_c, 0, 86, 82
2, 142029, Control_c, 0, 64, 0
2, 142033, Note_on_c, 0, 72, 0
2, 142033, Note_on_c, 0, 74, 0
2, 142037, Note_on_c, 0, 53, 0
2, 142037, Note_on_c, 0, 86, 0
2, 142037, Note_on_c, 0, 82, 0
2, 142038, Note_on_c, 0, 65, 0
2, 142038, Note_on_c, 0, 70, 0
2, 142040, Note_on_c, 0, 62, 0
2, 142041, Note_on_c, 0, 41, 0
2, 142041, Note_on_c, 0, 46, 0
2, 142041, Note_on_c, 0, 58, 0
2, 142042, Note_on_c, 0, 67, 89
2, 142044, Note_on_c, 0, 74, 99
2, 142044, Note_on_c, 0, 72, 88
2, 142045, Note_on_c, 0, 58, 78
2, 142047, Note_on_c, 0, 46, 76
2, 142072, Note_on_c, 0, 60, 0
2, 142072, Control_c, 0, 64, 127
2, 142080, Note_on_c, 0, 34, 0
2, 142080, Note_on_c, 0, 76, 0
2, 142080, Note_on_c, 0, 77, 0
2, 142202, Note_on_c, 0, 79, 0
2, 142207, Note_on_c, 0, 88, 81
2, 142213, Note_on_c, 0, 91, 86
2, 142214, Note_on_c, 0, 79, 74
2, 142214, Note_on_c, 0, 55, 89
2, 142216, Note_on_c, 0, 60, 80
2, 142218, Note_on_c, 0, 91, 0
2, 142218, Note_on_c, 0, 64, 90
2, 142220, Note_on_c, 0, 36, 85
2, 142233, Note_on_c, 0, 50, 0
2, 142256, Note_on_c, 0, 58, 0
2, 142256, Note_on_c, 0, 88, 0
2, 142318, Note_on_c, 0, 74, 0
2, 142325, Note_on_c, 0, 72, 0
2, 142325, Note_on_c, 0, 79, 0
2, 142329, Note_on_c, 0, 74, 83
2, 142336, Note_on_c, 0, 72, 74
2, 142336, Note_on_c, 0, 79, 76
2, 142383, Note_on_c, 0, 43, 56
2, 142479, Note_on_c, 0, 72, 0
2, 142482, Note_on_c, 0, 77, 92
2, 142483, Note_on_c, 0, 84, 86
2, 142483, Note_on_c, 0, 72, 87
2, 142491, Note_on_c, 0, 48, 76
2, 142602, Note_on_c, 0, 46, 0
2, 142617, Note_on_c, 0, 72, 0
2, 142617, Note_on_c, 0, 79, 0
2, 142621, Note_on_c, 0, 79, 82
2, 142625, Note_on_c, 0, 76, 89
2, 142625, Note_on_c, 0, 48, 0
2, 142626, Note_on_c, 0, 72, 79
2, 142629, Note_on_c, 0, 52, 63
2, 142636, Note_on_c, 0, 48, 65
2, 142763, Note_on_c, 0, 60, 0
2, 142763, Note_on_c, 0, 84, 0
2, 142771, Note_on_c, 0, 48, 0
2, 142771, Note_on_c, 0, 79, 0
2, 142774, Note_on_c, 0, 91, 103
2, 142774, Note_on_c, 0, 60, 91
2, 142774, Note_on_c, 0, 84, 92
2, 142775, Note_on_c, 0, 79, 107
2, 142776, Note_on_c, 0, 48, 75
2, 142776, Note_on_c, 0, 88, 100
2, 142901, Note_on_c, 0, 48, 0
2, 142901, Note_on_c, 0, 52, 0
2, 142901, Note_on_c, 0, 67, 0
2, 142901, Note_on_c, 0, 72, 0
2, 142901, Note_on_c, 0, 79, 0
2, 142907, Note_on_c, 0, 72, 89
2, 142907, Note_on_c, 0, 67, 76
2, 142907, Note_on_c, 0, 48, 70
2, 142911, Note_on_c, 0, 79, 82
2, 142912, Note_on_c, 0, 52, 63
2, 143063, Note_on_c, 0, 52, 0
2, 143063, Note_on_c, 0, 84, 0
2, 143068, Note_on_c, 0, 52, 74
2, 143070, Note_on_c, 0, 60, 0
2, 143071, Note_on_c, 0, 84, 72
2, 143075, Note_on_c, 0, 60, 58
2, 143193, Note_on_c, 0, 60, 0
2, 143199, Note_on_c, 0, 60, 56
2, 143201, Note_on_c, 0, 48, 0
2, 143201, Note_on_c, 0, 79, 0
2, 143207, Note_on_c, 0, 79, 74
2, 143212, Note_on_c, 0, 48, 56
2, 143216, Note_on_c, 0, 67, 0
2, 143220, Note_on_c, 0, 67, 51
2, 143224, Note_on_c, 0, 52, 0
2, 143229, Note_on_c, 0, 52, 49
2, 143347, Note_on_c, 0, 74, 0
2, 143355, Note_on_c, 0, 74, 102
2, 143357, Control_c, 0, 64, 0
2, 143362, Note_on_c, 0, 77, 0
2, 143362, Note_on_c, 0, 52, 0
2, 143363, Note_on_c, 0, 84, 0
2, 143363, Note_on_c, 0, 72, 0
2, 143363, Note_on_c, 0, 67, 0
2, 143363, Note_on_c, 0, 79, 0
2, 143364, Note_on_c, 0, 91, 0
2, 143364, Note_on_c, 0, 60, 0
2, 143365, Note_on_c, 0, 65, 97
2, 143365, Note_on_c, 0, 26, 89
2, 143365, Note_on_c, 0, 88, 0
2, 143366, Note_on_c, 0, 38, 95
2, 143367, Note_on_c, 0, 77, 96
2, 143370, Note_on_c, 0, 55, 0
2, 143377, Note_on_c, 0, 43, 0
2, 143385, Note_on_c, 0, 36, 0
2, 143385, Note_on_c, 0, 48, 0
2, 143385, Note_on_c, 0, 64, 0
2, 143385, Note_on_c, 0, 76, 0
2, 143408, Control_c, 0, 64, 127
2, 143424, Note_on_c, 0, 26, 0
2, 143477, Note_on_c, 0, 74, 0
2, 143485, Note_on_c, 0, 65, 0
2, 143488, Note_on_c, 0, 74, 86
2, 143493, Note_on_c, 0, 81, 78
2, 143495, Note_on_c, 0, 65, 77
2, 143496, Note_on_c, 0, 67, 65
2, 143500, Note_on_c, 0, 67, 0
2, 143631, Note_on_c, 0, 77, 0
2, 143631, Note_on_c, 0, 86, 94
2, 143635, Note_on_c, 0, 77, 92
2, 143636, Note_on_c, 0, 69, 79
2, 143641, Note_on_c, 0, 53, 69
2, 143643, Note_on_c, 0, 50, 79
2, 143769, Note_on_c, 0, 53, 0
2, 143769, Note_on_c, 0, 81, 0
2, 143773, Note_on_c, 0, 84, 81
2, 143774, Note_on_c, 0, 72, 91
2, 143774, Note_on_c, 0, 76, 91
2, 143777, Control_c, 0, 64, 0
2, 143777, Note_on_c, 0, 67, 83
2, 143777, Note_on_c, 0, 81, 83
2, 143778, Note_on_c, 0, 53, 81
2, 143861, Control_c, 0, 64, 127
2, 143930, Note_on_c, 0, 67, 0
2, 143934, Note_on_c, 0, 91, 99
2, 143934, Note_on_c, 0, 79, 104
2, 143934, Note_on_c, 0, 40, 97
2, 143936, Note_on_c, 0, 67, 94
2, 143939, Note_on_c, 0, 28, 95
2, 143976, Note_on_c, 0, 69, 0
2, 143992, Note_on_c, 0, 38, 0
2, 144053, Note_on_c, 0, 91, 0
2, 144061, Note_on_c, 0, 67, 0
2, 144061, Note_on_c, 0, 72, 0
2, 144061, Note_on_c, 0, 77, 0
2, 144061, Note_on_c, 0, 79, 0
2, 144065, Note_on_c, 0, 91, 91
2, 144065, Note_on_c, 0, 72, 93
2, 144066, Note_on_c, 0, 77, 93
2, 144067, Note_on_c, 0, 79, 89
2, 144067, Note_on_c, 0, 67, 85
2, 144069, Note_on_c, 0, 89, 85
2, 144199, Note_on_c, 0, 72, 0
2, 144199, Note_on_c, 0, 79, 0
2, 144199, Note_on_c, 0, 84, 0
2, 144205, Note_on_c, 0, 84, 83
2, 144208, Note_on_c, 0, 52, 88
2, 144209, Note_on_c, 0, 72, 82
2, 144209, Note_on_c, 0, 79, 84
2, 144337, Note_on_c, 0, 72, 0
2, 144345, Note_on_c, 0, 65, 0
2, 144345, Note_on_c, 0, 79, 0
2, 144346, Note_on_c, 0, 55, 80
2, 144348, Note_on_c, 0, 72, 89
2, 144349, Note_on_c, 0, 79, 87
2, 144350, Note_on_c, 0, 64, 71
2, 144355, Note_on_c, 0, 65, 77
2, 144499, Note_on_c, 0, 72, 0
2, 144499, Note_on_c, 0, 77, 0
2, 144499, Note_on_c, 0, 81, 0
2, 144503, Note_on_c, 0, 81, 98
2, 144504, Note_on_c, 0, 69, 101
2, 144505, Note_on_c, 0, 77, 96
2, 144506, Note_on_c, 0, 41, 98
2, 144508, Note_on_c, 0, 72, 86
2, 144509, Note_on_c, 0, 29, 95
2, 144537, Note_on_c, 0, 74, 0
2, 144545, Note_on_c, 0, 86, 0
2, 144552, Note_on_c, 0, 76, 0
2, 144560, Note_on_c, 0, 84, 0
2, 144614, Note_on_c, 0, 50, 0
2, 144629, Note_on_c, 0, 72, 0
2, 144629, Note_on_c, 0, 77, 0
2, 144629, Note_on_c, 0, 81, 0
2, 144637, Note_on_c, 0, 89, 0
2, 144639, Note_on_c, 0, 81, 106
2, 144639, Note_on_c, 0, 72, 93
2, 144639, Note_on_c, 0, 77, 105
2, 144642, Note_on_c, 0, 93, 102
2, 144644, Note_on_c, 0, 89, 96
2, 144775, Note_on_c, 0, 53, 0
2, 144786, Note_on_c, 0, 53, 90
2, 144913, Note_on_c, 0, 93, 0
2, 144922, Note_on_c, 0, 93, 78
2, 144923, Note_on_c, 0, 57, 73
2, 144944, Note_on_c, 0, 91, 0
2, 144948, Note_on_c, 0, 91, 42
2, 145036, Note_on_c, 0, 64, 0
2, 145052, Note_on_c, 0, 28, 0
2, 145052, Note_on_c, 0, 52, 0
2, 145056, Note_on_c, 0, 72, 0
2, 145058, Note_on_c, 0, 76, 102
2, 145059, Note_on_c, 0, 29, 0
2, 145059, Note_on_c, 0, 79, 0
2, 145059, Note_on_c, 0, 91, 0
2, 145060, Control_c, 0, 64, 0
2, 145062, Note_on_c, 0, 57, 0
2, 145063, Note_on_c, 0, 53, 0
2, 145064, Note_on_c, 0, 88, 99
2, 145064, Note_on_c, 0, 79, 107
2, 145064, Note_on_c, 0, 73, 108
2, 145067, Note_on_c, 0, 65, 0
2, 145069, Note_on_c, 0, 91, 104
2, 145069, Note_on_c, 0, 85, 101
2, 145075, Note_on_c, 0, 45, 107
2, 145075, Note_on_c, 0, 40, 0
2, 145075, Note_on_c, 0, 41, 0
2, 145075, Note_on_c, 0, 55, 0
2, 145075, Note_on_c, 0, 67, 0
2, 145075, Note_on_c, 0, 69, 0
2, 145075, Note_on_c, 0, 81, 0
2, 145078, Note_on_c, 0, 33, 94
2, 145082, Note_on_c, 0, 93, 0
2, 145113, Control_c, 0, 64, 127
2, 145121, Note_on_c, 0, 77, 0
2, 145209, Note_on_c, 0, 81, 92
2, 145305, Note_on_c, 0, 85, 0
2, 145316, Note_on_c, 0, 85, 85
2, 145386, Note_on_c, 0, 86, 86
2, 145428, Note_on_c, 0, 88, 0
2, 145439, Note_on_c, 0, 88, 93
2, 145487, Note_on_c, 0, 57, 69
2, 145489, Note_on_c, 0, 45, 0
2, 145496, Note_on_c, 0, 45, 76
2, 145497, Note_on_c, 0, 57, 0
2, 145505, Note_on_c, 0, 89, 0
2, 145505, Note_on_c, 0, 91, 0
2, 145509, Note_on_c, 0, 89, 83
2, 145509, Note_on_c, 0, 91, 92
2, 145630, Note_on_c, 0, 69, 98
2, 145631, Note_on_c, 0, 62, 98
2, 145631, Note_on_c, 0, 58, 102
2, 145633, Note_on_c, 0, 46, 100
2, 145634, Note_on_c, 0, 65, 90
2, 145635, Note_on_c, 0, 73, 0
2, 145639, Note_on_c, 0, 81, 0
2, 145639, Note_on_c, 0, 85, 0
2, 145640, Note_on_c, 0, 86, 0
2, 145640, Note_on_c, 0, 45, 0
2, 145640, Note_on_c, 0, 91, 0
2, 145640, Note_on_c, 0, 89, 0
2, 145642, Note_on_c, 0, 76, 0
2, 145642, Note_on_c, 0, 79, 0
2, 145643, Note_on_c, 0, 33, 0
2, 145654, Control_c, 0, 64, 0
2, 145658, Note_on_c, 0, 88, 0
2, 145728, Control_c, 0, 64, 127
2, 145758, Note_on_c, 0, 62, 0
2, 145766, Note_on_c, 0, 65, 0
2, 145769, Note_on_c, 0, 62, 75
2, 145770, Note_on_c, 0, 65, 71
2, 145777, Note_on_c, 0, 50, 64
2, 145781, Note_on_c, 0, 50, 0
2, 145782, Note_on_c, 0, 70, 73
2, 145789, Note_on_c, 0, 58, 0
2, 145789, Note_on_c, 0, 70, 0
2, 145794, Note_on_c, 0, 58, 78
2, 145912, Note_on_c, 0, 65, 0
2, 145922, Note_on_c, 0, 65, 87
2, 145923, Note_on_c, 0, 77, 107
2, 145926, Note_on_c, 0, 86, 91
2, 146065, Note_on_c, 0, 65, 0
2, 146072, Note_on_c, 0, 64, 108
2, 146074, Note_on_c, 0, 76, 108
2, 146077, Note_on_c, 0, 65, 85
2, 146204, Note_on_c, 0, 46, 0
2, 146204, Note_on_c, 0, 58, 0
2, 146214, Note_on_c, 0, 50, 66
2, 146214, Note_on_c, 0, 58, 72
2, 146214, Note_on_c, 0, 46, 72
2, 146214, Note_on_c, 0, 93, 82
2, 146376, Note_on_c, 0, 72, 96
2, 146376, Note_on_c, 0, 60, 95
2, 146496, Note_on_c, 0, 86, 0
2, 146500, Note_on_c, 0, 86, 80
2, 146611, Note_on_c, 0, 93, 0
2, 146622, Note_on_c, 0, 93, 84
2, 146649, Note_on_c, 0, 67, 80
2, 146649, Note_on_c, 0, 62, 0
2, 146649, Note_on_c, 0, 64, 0
2, 146650, Note_on_c, 0, 74, 103
2, 146654, Note_on_c, 0, 62, 101
2, 146654, Note_on_c, 0, 64, 89
2, 146777, Note_on_c, 0, 91, 90
2, 146781, Note_on_c, 0, 88, 87
2, 146787, Control_c, 0, 64, 0
2, 146806, Note_on_c, 0, 55, 92
2, 146813, Note_on_c, 0, 52, 90
2, 146817, Note_on_c, 0, 36, 72
2, 146826, Note_on_c, 0, 36, 0
2, 146826, Note_on_c, 0, 93, 0
2, 146872, Control_c, 0, 64, 127
2, 146922, Note_on_c, 0, 79, 75
2, 146926, Note_on_c, 0, 64, 0
2, 146926, Note_on_c, 0, 67, 0
2, 146926, Note_on_c, 0, 74, 0
2, 146934, Note_on_c, 0, 67, 79
2, 146937, Note_on_c, 0, 64, 74
2, 146937, Note_on_c, 0, 74, 83
2, 147064, Note_on_c, 0, 65, 0
2, 147064, Note_on_c, 0, 77, 0
2, 147067, Note_on_c, 0, 84, 87
2, 147074, Note_on_c, 0, 77, 105
2, 147075, Note_on_c, 0, 65, 105
2, 147194, Note_on_c, 0, 91, 0
2, 147200, Note_on_c, 0, 91, 86
2, 147202, Note_on_c, 0, 79, 0
2, 147210, Note_on_c, 0, 64, 0
2, 147210, Note_on_c, 0, 76, 0
2, 147210, Note_on_c, 0, 88, 0
2, 147212, Note_on_c, 0, 79, 77
2, 147215, Note_on_c, 0, 88, 81
2, 147215, Note_on_c, 0, 64, 106
2, 147215, Note_on_c, 0, 76, 106
2, 147217, Note_on_c, 0, 52, 0
2, 147224, Note_on_c, 0, 52, 86
2, 147340, Note_on_c, 0, 60, 0
2, 147340, Note_on_c, 0, 72, 0
2, 147340, Note_on_c, 0, 84, 0
2, 147340, Note_on_c, 0, 88, 0
2, 147345, Note_on_c, 0, 60, 71
2, 147348, Note_on_c, 0, 55, 0
2, 147348, Note_on_c, 0, 76, 0
2, 147351, Note_on_c, 0, 72, 79
2, 147351, Note_on_c, 0, 88, 88
2, 147351, Note_on_c, 0, 84, 84
2, 147352, Note_on_c, 0, 76, 78
2, 147357, Note_on_c, 0, 55, 62
2, 147486, Note_on_c, 0, 60, 0
2, 147486, Note_on_c, 0, 64, 0
2, 147486, Note_on_c, 0, 72, 0
2, 147495, Note_on_c, 0, 64, 62
2, 147495, Note_on_c, 0, 60, 94
2, 147497, Note_on_c, 0, 72, 102
2, 147624, Note_on_c, 0, 72, 0
2, 147624, Note_on_c, 0, 84, 0
2, 147632, Note_on_c, 0, 76, 0
2, 147634, Note_on_c, 0, 72, 73
2, 147635, Note_on_c, 0, 84, 81
2, 147637, Note_on_c, 0, 76, 63
2, 147755, Note_on_c, 0, 88, 0
2, 147763, Note_on_c, 0, 88, 93
2, 147840, Note_on_c, 0, 69, 0
2, 147893, Note_on_c, 0, 52, 0
2, 147893, Note_on_c, 0, 55, 0
2, 147893, Note_on_c, 0, 62, 0
2, 147893, Note_on_c, 0, 64, 0
2, 147893, Note_on_c, 0, 88, 0
2, 147897, Control_c, 0, 64, 0
2, 147901, Note_on_c, 0, 86, 0
2, 147901, Note_on_c, 0, 52, 99
2, 147903, Note_on_c, 0, 64, 103
2, 147904, Note_on_c, 0, 88, 93
2, 147904, Note_on_c, 0, 62, 102
2, 147905, Note_on_c, 0, 55, 101
2, 147909, Note_on_c, 0, 86, 87
2, 147912, Note_on_c, 0, 82, 86
2, 147916, Note_on_c, 0, 91, 0
2, 147932, Note_on_c, 0, 46, 0
2, 147932, Note_on_c, 0, 58, 0
2, 147978, Control_c, 0, 64, 127
2, 148039, Note_on_c, 0, 55, 0
2, 148039, Note_on_c, 0, 67, 0
2, 148039, Note_on_c, 0, 74, 0
2, 148047, Note_on_c, 0, 62, 0
2, 148047, Note_on_c, 0, 55, 80
2, 148048, Note_on_c, 0, 67, 80
2, 148050, Note_on_c, 0, 74, 86
2, 148051, Note_on_c, 0, 62, 81
2, 148193, Note_on_c, 0, 65, 0
2, 148193, Note_on_c, 0, 77, 0
2, 148200, Note_on_c, 0, 79, 0
2, 148203, Note_on_c, 0, 77, 104
2, 148204, Note_on_c, 0, 65, 96
2, 148207, Note_on_c, 0, 79, 89
2, 148339, Note_on_c, 0, 64, 0
2, 148339, Note_on_c, 0, 76, 0
2, 148344, Note_on_c, 0, 64, 105
2, 148346, Note_on_c, 0, 84, 0
2, 148349, Note_on_c, 0, 76, 108
2, 148354, Note_on_c, 0, 84, 78
2, 148485, Note_on_c, 0, 52, 0
2, 148485, Note_on_c, 0, 60, 0
2, 148485, Note_on_c, 0, 88, 0
2, 148491, Note_on_c, 0, 60, 74
2, 148494, Note_on_c, 0, 48, 73
2, 148494, Note_on_c, 0, 88, 85
2, 148495, Note_on_c, 0, 57, 67
2, 148496, Note_on_c, 0, 52, 72
2, 148608, Note_on_c, 0, 76, 0
2, 148614, Note_on_c, 0, 76, 73
2, 148631, Note_on_c, 0, 64, 0
2, 148638, Note_on_c, 0, 64, 70
2, 148638, Note_on_c, 0, 52, 0
2, 148638, Note_on_c, 0, 57, 0
2, 148638, Note_on_c, 0, 62, 0
2, 148638, Note_on_c, 0, 72, 0
2, 148638, Note_on_c, 0, 74, 0
2, 148642, Note_on_c, 0, 74, 85
2, 148645, Note_on_c, 0, 62, 85
2, 148649, Note_on_c, 0, 72, 67
2, 148649, Note_on_c, 0, 57, 57
2, 148649, Note_on_c, 0, 52, 67
2, 148746, Note_on_c, 0, 76, 0
2, 148746, Note_on_c, 0, 79, 0
2, 148756, Note_on_c, 0, 79, 72
2, 148757, Note_on_c, 0, 76, 64
2, 148892, Note_on_c, 0, 62, 0
2, 148892, Note_on_c, 0, 65, 0
2, 148892, Note_on_c, 0, 74, 0
2, 148897, Note_on_c, 0, 69, 97
2, 148901, Note_on_c, 0, 62, 99
2, 148901, Note_on_c, 0, 65, 89
2, 148902, Note_on_c, 0, 74, 91
2, 149045, Note_on_c, 0, 86, 0
2, 149053, Note_on_c, 0, 50, 0
2, 149053, Note_on_c, 0, 57, 0
2, 149056, Note_on_c, 0, 53, 91
2, 149057, Note_on_c, 0, 86, 90
2, 149057, Note_on_c, 0, 57, 89
2, 149057, Note_on_c, 0, 38, 78
2, 149057, Note_on_c, 0, 50, 85
2, 149058, Note_on_c, 0, 89, 81
2, 149064, Note_on_c, 0, 41, 76
2, 149070, Note_on_c, 0, 65, 0
2, 149071, Note_on_c, 0, 55, 0
2, 149071, Note_on_c, 0, 69, 0
2, 149071, Note_on_c, 0, 52, 0
2, 149071, Note_on_c, 0, 76, 0
2, 149071, Note_on_c, 0, 62, 0
2, 149071, Note_on_c, 0, 64, 0
2, 149072, Note_on_c, 0, 84, 0
2, 149072, Note_on_c, 0, 74, 0
2, 149072, Note_on_c, 0, 48, 0
2, 149075, Note_on_c, 0, 82, 0
2, 149076, Note_on_c, 0, 67, 0
2, 149077, Control_c, 0, 64, 0
2, 149084, Note_on_c, 0, 60, 0
2, 149091, Note_on_c, 0, 72, 0
2, 149099, Note_on_c, 0, 77, 0
2, 149099, Note_on_c, 0, 79, 0
2, 149099, Note_on_c, 0, 89, 0
2, 149122, Note_on_c, 0, 41, 0
2, 149137, Control_c, 0, 64, 127
2, 149190, Note_on_c, 0, 81, 70
2, 149329, Note_on_c, 0, 86, 0
2, 149333, Note_on_c, 0, 60, 103
2, 149335, Note_on_c, 0, 72, 95
2, 149336, Note_on_c, 0, 86, 88
2, 149475, Note_on_c, 0, 57, 0
2, 149476, Note_on_c, 0, 89, 83
2, 149479, Note_on_c, 0, 69, 99
2, 149480, Note_on_c, 0, 57, 95
2, 149480, Note_on_c, 0, 81, 0
2, 149625, Note_on_c, 0, 52, 88
2, 149625, Note_on_c, 0, 55, 91
2, 149626, Note_on_c, 0, 48, 94
2, 149626, Note_on_c, 0, 36, 81
2, 149651, Control_c, 0, 64, 0
2, 149662, Note_on_c, 0, 86, 0
2, 149662, Note_on_c, 0, 53, 0
2, 149663, Note_on_c, 0, 89, 0
2, 149663, Note_on_c, 0, 57, 0
2, 149663, Note_on_c, 0, 38, 0
2, 149663, Note_on_c, 0, 69, 0
2, 149664, Note_on_c, 0, 60, 0
2, 149667, Note_on_c, 0, 72, 0
2, 149683, Note_on_c, 0, 50, 0
2, 149683, Note_on_c, 0, 88, 0
2, 149721, Note_on_c, 0, 48, 0
2, 149729, Control_c, 0, 64, 127
2, 149771, Note_on_c, 0, 84, 79
2, 149774, Note_on_c, 0, 60, 88
2, 149777, Note_on_c, 0, 72, 77
2, 149906, Note_on_c, 0, 88, 88
2, 150038, Note_on_c, 0, 91, 84
2, 150067, Note_on_c, 0, 60, 0
2, 150074, Note_on_c, 0, 48, 59
2, 150078, Note_on_c, 0, 60, 79
2, 150167, Note_on_c, 0, 52, 0
2, 150184, Note_on_c, 0, 93, 115
2, 150189, Note_on_c, 0, 81, 105
2, 150191, Note_on_c, 0, 86, 106
2, 150192, Note_on_c, 0, 89, 95
2, 150202, Note_on_c, 0, 88, 0
2, 150202, Note_on_c, 0, 46, 90
2, 150203, Note_on_c, 0, 53, 99
2, 150205, Note_on_c, 0, 41, 91
2, 150205, Note_on_c, 0, 38, 89
2, 150210, Note_on_c, 0, 50, 88
2, 150213, Note_on_c, 0, 72, 0
2, 150328, Note_on_c, 0, 81, 0
2, 150328, Note_on_c, 0, 93, 0
2, 150334, Note_on_c, 0, 81, 104
2, 150334, Note_on_c, 0, 93, 100
2, 150336, Note_on_c, 0, 46, 0
2, 150336, Note_on_c, 0, 50, 0
2, 150336, Note_on_c, 0, 53, 0
2, 150336, Note_on_c, 0, 55, 0
2, 150336, Note_on_c, 0, 86, 0
2, 150336, Note_on_c, 0, 89, 0
2, 150343, Note_on_c, 0, 38, 0
2, 150343, Note_on_c, 0, 41, 0
2, 150344, Note_on_c, 0, 46, 87
2, 150345, Note_on_c, 0, 89, 90
2, 150345, Note_on_c, 0, 86, 88
2, 150346, Note_on_c, 0, 50, 90
2, 150346, Note_on_c, 0, 53, 88
2, 150348, Note_on_c, 0, 41, 80
2, 150349, Note_on_c, 0, 38, 82
2, 150374, Note_on_c, 0, 60, 0
2, 150458, Note_on_c, 0, 36, 0
2, 150466, Control_c, 0, 64, 0
2, 150473, Note_on_c, 0, 38, 0
2, 150475, Note_on_c, 0, 93, 0
2, 150476, Note_on_c, 0, 86, 0
2, 150477, Note_on_c, 0, 89, 0
2, 150477, Note_on_c, 0, 53, 0
2, 150479, Note_on_c, 0, 46, 0
2, 150481, Note_on_c, 0, 41, 0
2, 150481, Note_on_c, 0, 48, 0
2, 150481, Note_on_c, 0, 81, 0
2, 150481, Note_on_c, 0, 84, 0
2, 150481, Note_on_c, 0, 91, 0
2, 150488, Note_on_c, 0, 77, 105
2, 150489, Note_on_c, 0, 50, 0
2, 150490, Note_on_c, 0, 65, 88
2, 150623, Note_on_c, 0, 76, 110
2, 150624, Note_on_c, 0, 64, 108
2, 150673, Control_c, 0, 64, 127
2, 150850, Note_on_c, 0, 77, 0
2, 150881, Note_on_c, 0, 65, 0
2, 150908, Note_on_c, 0, 60, 105
2, 150909, Note_on_c, 0, 72, 100
2, 151163, Note_on_c, 0, 96, 111
2, 151168, Note_on_c, 0, 84, 103
2, 151169, Note_on_c, 0, 88, 101
2, 151173, Note_on_c, 0, 91, 94
2, 151177, Note_on_c, 0, 48, 100
2, 151187, Note_on_c, 0, 36, 91
2, 151188, Note_on_c, 0, 55, 101
2, 151191, Note_on_c, 0, 64, 0
2, 151191, Note_on_c, 0, 52, 96
2, 151192, Note_on_c, 0, 76, 0
2, 151203, Control_c, 0, 64, 0
2, 151288, Control_c, 0, 64, 127
2, 151434, Note_on_c, 0, 48, 0
2, 151434, Note_on_c, 0, 55, 0
2, 151441, Note_on_c, 0, 52, 0
2, 151443, Note_on_c, 0, 55, 96
2, 151445, Note_on_c, 0, 36, 0
2, 151445, Note_on_c, 0, 48, 91
2, 151446, Note_on_c, 0, 52, 90
2, 151449, Note_on_c, 0, 84, 0
2, 151457, Note_on_c, 0, 91, 0
2, 151457, Note_on_c, 0, 96, 0
2, 151460, Note_on_c, 0, 84, 99
2, 151461, Note_on_c, 0, 96, 95
2, 151463, Note_on_c, 0, 91, 86
2, 151566, Note_on_c, 0, 96, 0
2, 151567, Note_on_c, 0, 91, 0
2, 151568, Control_c, 0, 64, 0
2, 151568, Note_on_c, 0, 52, 0
2, 151572, Note_on_c, 0, 72, 0
2, 151580, Note_on_c, 0, 88, 0
2, 151587, Note_on_c, 0, 60, 0
2, 151591, Note_on_c, 0, 65, 102
2, 151592, Note_on_c, 0, 77, 106
2, 151618, Note_on_c, 0, 48, 0
2, 151618, Note_on_c, 0, 84, 0
2, 151656, Control_c, 0, 64, 127
2, 151672, Note_on_c, 0, 65, 0
2, 151719, Note_on_c, 0, 64, 110
2, 151719, Note_on_c, 0, 76, 110
2, 151993, Note_on_c, 0, 62, 106
2, 151994, Note_on_c, 0, 74, 102
2, 152105, Note_on_c, 0, 60, 93
2, 152133, Note_on_c, 0, 64, 0
2, 152135, Note_on_c, 0, 72, 101
2, 152139, Note_on_c, 0, 64, 80
2, 152256, Note_on_c, 0, 62, 0
2, 152256, Note_on_c, 0, 74, 0
2, 152261, Note_on_c, 0, 74, 106
2, 152264, Note_on_c, 0, 62, 105
2, 152286, Note_on_c, 0, 76, 0
2, 152291, Note_on_c, 0, 76, 68
2, 152292, Note_on_c, 0, 79, 89
2, 152332, Note_on_c, 0, 55, 0
2, 152344, Note_on_c, 0, 60, 0
2, 152344, Note_on_c, 0, 62, 0
2, 152345, Note_on_c, 0, 64, 0
2, 152345, Note_on_c, 0, 72, 0
2, 152345, Note_on_c, 0, 77, 0
2, 152345, Note_on_c, 0, 76, 0
2, 152347, Note_on_c, 0, 79, 0
2, 152353, Control_c, 0, 64, 0
2, 152394, Note_on_c, 0, 74, 0
2, 152398, Note_on_c, 0, 47, 92
2, 152398, Note_on_c, 0, 59, 96
2, 152398, Note_on_c, 0, 78, 103
2, 152404, Note_on_c, 0, 74, 95
2, 152424, Control_c, 0, 64, 127
2, 152448, Note_on_c, 0, 59, 0
2, 152546, Note_on_c, 0, 71, 75
2, 152641, Control_c, 0, 64, 0
2, 152643, Note_on_c, 0, 78, 0
2, 152643, Note_on_c, 0, 47, 0
2, 152644, Note_on_c, 0, 74, 0
2, 152678, Note_on_c, 0, 71, 0
2, 152681, Note_on_c, 0, 76, 94
2, 152681, Note_on_c, 0, 79, 94
2, 152682, Note_on_c, 0, 52, 88
2, 152683, Note_on_c, 0, 40, 86
2, 152684, Note_on_c, 0, 71, 89
2, 152716, Control_c, 0, 64, 127
2, 152931, Note_on_c, 0, 52, 0
2, 152940, Control_c, 0, 64, 0
2, 152940, Note_on_c, 0, 71, 0
2, 152941, Note_on_c, 0, 79, 0
2, 152947, Note_on_c, 0, 40, 0
2, 152947, Note_on_c, 0, 76, 0
2, 152966, Note_on_c, 0, 76, 99
2, 152973, Note_on_c, 0, 57, 93
2, 152973, Note_on_c, 0, 45, 88
2, 152974, Note_on_c, 0, 69, 86
2, 152974, Note_on_c, 0, 73, 86
2, 152977, Note_on_c, 0, 52, 65
2, 153002, Note_on_c, 0, 57, 0
2, 153016, Control_c, 0, 64, 127
2, 153093, Note_on_c, 0, 69, 0
2, 153100, Note_on_c, 0, 69, 75
2, 153213, Control_c, 0, 64, 0
2, 153219, Note_on_c, 0, 73, 0
2, 153219, Note_on_c, 0, 76, 0
2, 153219, Note_on_c, 0, 69, 0
2, 153220, Note_on_c, 0, 45, 0
2, 153231, Note_on_c, 0, 52, 0
2, 153252, Note_on_c, 0, 78, 102
2, 153254, Note_on_c, 0, 74, 92
2, 153256, Note_on_c, 0, 71, 84
2, 153257, Note_on_c, 0, 50, 90
2, 153258, Note_on_c, 0, 38, 91
2, 153285, Control_c, 0, 64, 127
2, 153510, Control_c, 0, 64, 0
2, 153511, Note_on_c, 0, 78, 0
2, 153523, Note_on_c, 0, 50, 0
2, 153530, Note_on_c, 0, 38, 0
2, 153530, Note_on_c, 0, 71, 0
2, 153530, Note_on_c, 0, 74, 0
2, 153541, Note_on_c, 0, 74, 101
2, 153542, Note_on_c, 0, 43, 84
2, 153542, Note_on_c, 0, 71, 96
2, 153543, Note_on_c, 0, 55, 91
2, 153579, Note_on_c, 0, 55, 0
2, 153592, Control_c, 0, 64, 127
2, 153678, Note_on_c, 0, 67, 62
2, 153679, Note_on_c, 0, 55, 71
2, 153807, Note_on_c, 0, 67, 0
2, 153812, Note_on_c, 0, 76, 95
2, 153817, Note_on_c, 0, 67, 88
2, 153821, Note_on_c, 0, 49, 82
2, 153826, Note_on_c, 0, 37, 87
2, 153843, Note_on_c, 0, 55, 0
2, 153858, Note_on_c, 0, 67, 0
2, 153861, Note_on_c, 0, 74, 0
2, 153861, Control_c, 0, 64, 0
2, 153864, Note_on_c, 0, 76, 0
2, 153867, Note_on_c, 0, 49, 0
2, 153870, Note_on_c, 0, 37, 0
2, 153876, Note_on_c, 0, 43, 0
2, 153876, Note_on_c, 0, 71, 0
2, 153956, Note_on_c, 0, 78, 104
2, 153956, Note_on_c, 0, 66, 99
2, 153956, Note_on_c, 0, 73, 99
2, 153959, Note_on_c, 0, 54, 95
2, 153959, Note_on_c, 0, 42, 92
2, 154007, Control_c, 0, 64, 127
2, 154237, Note_on_c, 0, 42, 0
2, 154237, Note_on_c, 0, 78, 0
2, 154243, Note_on_c, 0, 78, 88
2, 154244, Note_on_c, 0, 73, 0
2, 154245, Note_on_c, 0, 54, 0
2, 154246, Note_on_c, 0, 66, 0
2, 154246, Note_on_c, 0, 30, 90
2, 154247, Note_on_c, 0, 42, 80
2, 154248, Control_c, 0, 64, 0
2, 154304, Note_on_c, 0, 30, 0
2, 154314, Note_on_c, 0, 42, 0
2, 154317, Note_on_c, 0, 78, 0
2, 154386, Note_on_c, 0, 30, 91
2, 154387, Note_on_c, 0, 42, 90
2, 154387, Note_on_c, 0, 85, 101
2, 154391, Note_on_c, 0, 78, 86
2, 154391, Note_on_c, 0, 83, 93
2, 154395, Note_on_c, 0, 90, 91
2, 154437, Control_c, 0, 64, 127
2, 154513, Note_on_c, 0, 78, 0
2, 154518, Note_on_c, 0, 78, 81
2, 154575, Note_on_c, 0, 85, 0
2, 154576, Note_on_c, 0, 30, 0
2, 154576, Note_on_c, 0, 42, 0
2, 154577, Note_on_c, 0, 83, 0
2, 154577, Control_c, 0, 64, 0
2, 154578, Note_on_c, 0, 90, 0
2, 154578, Note_on_c, 0, 78, 0
2, 154672, Note_on_c, 0, 47, 94
2, 154672, Note_on_c, 0, 59, 103
2, 154675, Note_on_c, 0, 78, 101
2, 154676, Note_on_c, 0, 71, 94
2, 154677, Note_on_c, 0, 74, 95
2, 154690, Control_c, 0, 64, 127
2, 154804, Note_on_c, 0, 54, 72
2, 154805, Note_on_c, 0, 47, 0
2, 154805, Note_on_c, 0, 59, 0
2, 154805, Note_on_c, 0, 78, 0
2, 154809, Note_on_c, 0, 78, 97
2, 154815, Note_on_c, 0, 47, 74
2, 154817, Note_on_c, 0, 59, 74
2, 154817, Note_on_c, 0, 86, 74
2, 154943, Note_on_c, 0, 91, 113
2, 154945, Note_on_c, 0, 88, 100
2, 154946, Note_on_c, 0, 79, 107
2, 154946, Note_on_c, 0, 71, 0
2, 154947, Control_c, 0, 64, 0
2, 154947, Note_on_c, 0, 59, 0
2, 154948, Note_on_c, 0, 47, 0
2, 154948, Note_on_c, 0, 76, 106
2, 154948, Note_on_c, 0, 74, 0
2, 154948, Note_on_c, 0, 83, 92
2, 154952, Note_on_c, 0, 52, 105
2, 154952, Note_on_c, 0, 78, 0
2, 154955, Note_on_c, 0, 40, 90
2, 154967, Note_on_c, 0, 54, 0
2, 155013, Control_c, 0, 64, 127
2, 155074, Note_on_c, 0, 40, 0
2, 155085, Note_on_c, 0, 40, 33
2, 155201, Control_c, 0, 64, 0
2, 155212, Note_on_c, 0, 76, 0
2, 155217, Note_on_c, 0, 57, 104
2, 155219, Note_on_c, 0, 45, 99
2, 155221, Note_on_c, 0, 76, 102
2, 155223, Note_on_c, 0, 33, 91
2, 155226, Note_on_c, 0, 69, 88
2, 155235, Note_on_c, 0, 69, 0
2, 155238, Note_on_c, 0, 79, 0
2, 155245, Note_on_c, 0, 67, 45
2, 155251, Note_on_c, 0, 67, 0
2, 155274, Control_c, 0, 64, 127
2, 155351, Note_on_c, 0, 76, 0
2, 155351, Note_on_c, 0, 88, 0
2, 155355, Note_on_c, 0, 88, 98
2, 155355, Note_on_c, 0, 64, 85
2, 155355, Note_on_c, 0, 76, 97
2, 155358, Note_on_c, 0, 52, 0
2, 155361, Note_on_c, 0, 81, 85
2, 155369, Note_on_c, 0, 52, 80
2, 155489, Note_on_c, 0, 81, 0
2, 155489, Note_on_c, 0, 86, 0
2, 155489, Note_on_c, 0, 91, 0
2, 155491, Control_c, 0, 64, 0
2, 155496, Note_on_c, 0, 40, 0
2, 155499, Note_on_c, 0, 86, 101
2, 155500, Note_on_c, 0, 81, 97
2, 155502, Note_on_c, 0, 50, 107
2, 155502, Note_on_c, 0, 33, 0
2, 155502, Note_on_c, 0, 78, 106
2, 155503, Note_on_c, 0, 83, 0
2, 155503, Note_on_c, 0, 52, 0
2, 155505, Note_on_c, 0, 45, 0
2, 155505, Note_on_c, 0, 88, 0
2, 155506, Note_on_c, 0, 38, 102
2, 155506, Note_on_c, 0, 57, 0
2, 155506, Note_on_c, 0, 76, 0
2, 155527, Note_on_c, 0, 64, 0
2, 155573, Control_c, 0, 64, 127
2, 155636, Note_on_c, 0, 66, 50
2, 155754, Control_c, 0, 64, 0
2, 155776, Note_on_c, 0, 38, 0
2, 155777, Note_on_c, 0, 78, 0
2, 155778, Note_on_c, 0, 86, 0
2, 155785, Note_on_c, 0, 83, 97
2, 155785, Note_on_c, 0, 43, 100
2, 155786, Note_on_c, 0, 55, 108
2, 155786, Note_on_c, 0, 74, 99
2, 155786, Note_on_c, 0, 31, 91
2, 155786, Note_on_c, 0, 71, 102
2, 155788, Note_on_c, 0, 79, 95
2, 155788, Note_on_c, 0, 50, 0
2, 155788, Note_on_c, 0, 81, 0
2, 155789, Note_on_c, 0, 67, 98
2, 155796, Note_on_c, 0, 66, 0
2, 155819, Note_on_c, 0, 31, 0
2, 155842, Control_c, 0, 64, 127
2, 155911, Note_on_c, 0, 74, 0
2, 155911, Note_on_c, 0, 79, 0
2, 155920, Note_on_c, 0, 74, 95
2, 155920, Note_on_c, 0, 86, 103
2, 155922, Note_on_c, 0, 79, 81
2, 155980, Control_c, 0, 64, 0
2, 155984, Note_on_c, 0, 67, 0
2, 155984, Note_on_c, 0, 74, 0
2, 155984, Note_on_c, 0, 55, 0
2, 155984, Note_on_c, 0, 71, 0
2, 155985, Note_on_c, 0, 86, 0
2, 155985, Note_on_c, 0, 43, 0
2, 155985, Note_on_c, 0, 79, 0
2, 155986, Note_on_c, 0, 83, 0
2, 156047, Note_on_c, 0, 49, 106
2, 156053, Note_on_c, 0, 76, 109
2, 156053, Note_on_c, 0, 88, 103
2, 156053, Note_on_c, 0, 25, 94
2, 156053, Note_on_c, 0, 37, 98
2, 156053, Note_on_c, 0, 85, 92
2, 156054, Note_on_c, 0, 79, 94
2, 156057, Note_on_c, 0, 25, 0
2, 156058, Note_on_c, 0, 83, 96
2, 156063, Note_on_c, 0, 82, 75
2, 156078, Note_on_c, 0, 49, 0
2, 156085, Note_on_c, 0, 76, 0
2, 156087, Note_on_c, 0, 79, 0
2, 156088, Note_on_c, 0, 88, 0
2, 156097, Note_on_c, 0, 83, 0
2, 156111, Note_on_c, 0, 37, 0
2, 156111, Note_on_c, 0, 85, 0
2, 156126, Note_on_c, 0, 82, 0
2, 156188, Control_c, 0, 64, 127
2, 156199, Note_on_c, 0, 54, 115
2, 156199, Note_on_c, 0, 90, 115
2, 156199, Note_on_c, 0, 42, 112
2, 156199, Note_on_c, 0, 78, 110
2, 156202, Note_on_c, 0, 82, 96
2, 156203, Note_on_c, 0, 85, 98
2, 156464, Note_on_c, 0, 42, 0
2, 156464, Note_on_c, 0, 54, 0
2, 156472, Note_on_c, 0, 42, 88
2, 156472, Note_on_c, 0, 78, 0
2, 156472, Note_on_c, 0, 90, 0
2, 156476, Note_on_c, 0, 54, 90
2, 156480, Note_on_c, 0, 85, 0
2, 156483, Note_on_c, 0, 90, 102
2, 156483, Note_on_c, 0, 78, 100
2, 156486, Note_on_c, 0, 85, 99
2, 156487, Note_on_c, 0, 82, 0
2, 156493, Note_on_c, 0, 82, 86
2, 156610, Note_on_c, 0, 85, 0
2, 156617, Control_c, 0, 64, 0
2, 156619, Note_on_c, 0, 85, 112
2, 156620, Note_on_c, 0, 97, 113
2, 156622, Note_on_c, 0, 89, 95
2, 156623, Note_on_c, 0, 77, 99
2, 156623, Note_on_c, 0, 49, 108
2, 156628, Note_on_c, 0, 37, 100
2, 156629, Note_on_c, 0, 42, 0
2, 156630, Note_on_c, 0, 82, 0
2, 156631, Note_on_c, 0, 92, 82
2, 156632, Note_on_c, 0, 54, 0
2, 156648, Note_on_c, 0, 90, 0
2, 156656, Note_on_c, 0, 78, 0
2, 156679, Control_c, 0, 64, 127
2, 156856, Note_on_c, 0, 77, 0
2, 156858, Control_c, 0, 64, 0
2, 156860, Note_on_c, 0, 97, 0
2, 156861, Note_on_c, 0, 37, 0
2, 156861, Note_on_c, 0, 89, 0
2, 156864, Note_on_c, 0, 92, 0
2, 156871, Note_on_c, 0, 49, 0
2, 156871, Note_on_c, 0, 85, 0
2, 156921, Note_on_c, 0, 69, 103
2, 156922, Note_on_c, 0, 97, 102
2, 156923, Note_on_c, 0, 81, 96
2, 156923, Note_on_c, 0, 85, 109
2, 156923, Note_on_c, 0, 66, 108
2, 156923, Note_on_c, 0, 61, 101
2, 156926, Note_on_c, 0, 93, 106
2, 156926, Note_on_c, 0, 30, 106
2, 156927, Note_on_c, 0, 42, 110
2, 156933, Note_on_c, 0, 97, 0
2, 156963, Note_on_c, 0, 93, 0
2, 156971, Control_c, 0, 64, 127
2, 157063, Note_on_c, 0, 30, 0
2, 157063, Note_on_c, 0, 42, 0
2, 157063, Note_on_c, 0, 61, 0
2, 157063, Note_on_c, 0, 66, 0
2, 157068, Note_on_c, 0, 30, 100
2, 157068, Note_on_c, 0, 42, 106
2, 157068, Note_on_c, 0, 66, 91
2, 157069, Note_on_c, 0, 61, 93
2, 157195, Note_on_c, 0, 30, 0
2, 157197, Note_on_c, 0, 81, 0
2, 157197, Note_on_c, 0, 66, 0
2, 157197, Note_on_c, 0, 42, 0
2, 157198, Note_on_c, 0, 85, 0
2, 157199, Control_c, 0, 64, 0
2, 157209, Note_on_c, 0, 69, 0
2, 157217, Note_on_c, 0, 61, 0
2, 157335, Note_on_c, 0, 90, 107
2, 157337, Note_on_c, 0, 78, 98
2, 157337, Note_on_c, 0, 97, 87
2, 157338, Note_on_c, 0, 85, 98
2, 157342, Note_on_c, 0, 81, 83
2, 157344, Note_on_c, 0, 54, 61
2, 157347, Note_on_c, 0, 97, 0
2, 157355, Control_c, 0, 64, 127
2, 157421, Note_on_c, 0, 69, 53
2, 157425, Note_on_c, 0, 57, 64
2, 157508, Note_on_c, 0, 61, 71
2, 157570, Note_on_c, 0, 57, 0
2, 157576, Note_on_c, 0, 57, 53
2, 157639, Note_on_c, 0, 54, 0
2, 157644, Note_on_c, 0, 54, 63
2, 157754, Note_on_c, 0, 81, 0
2, 157754, Note_on_c, 0, 85, 0
2, 157754, Note_on_c, 0, 90, 0
2, 157758, Note_on_c, 0, 93, 110
2, 157761, Control_c, 0, 64, 0
2, 157762, Note_on_c, 0, 81, 100
2, 157766, Note_on_c, 0, 30, 107
2, 157766, Note_on_c, 0, 85, 94
2, 157766, Note_on_c, 0, 90, 101
2, 157767, Note_on_c, 0, 42, 109
2, 157778, Note_on_c, 0, 78, 0
2, 157778, Note_on_c, 0, 61, 0
2, 157779, Note_on_c, 0, 57, 0
2, 157781, Note_on_c, 0, 54, 0
2, 157793, Note_on_c, 0, 69, 0
2, 157816, Control_c, 0, 64, 127
2, 158041, Note_on_c, 0, 92, 114
2, 158042, Note_on_c, 0, 80, 101
2, 158046, Note_on_c, 0, 83, 101
2, 158048, Note_on_c, 0, 86, 94
2, 158050, Note_on_c, 0, 26, 83
2, 158050, Note_on_c, 0, 74, 103
2, 158050, Note_on_c, 0, 38, 99
2, 158055, Note_on_c, 0, 78, 96
2, 158192, Note_on_c, 0, 74, 0
2, 158200, Note_on_c, 0, 26, 0
2, 158200, Note_on_c, 0, 38, 0
2, 158200, Note_on_c, 0, 78, 0
2, 158204, Note_on_c, 0, 74, 88
2, 158204, Note_on_c, 0, 38, 88
2, 158205, Note_on_c, 0, 78, 94
2, 158206, Note_on_c, 0, 69, 87
2, 158207, Note_on_c, 0, 66, 90
2, 158207, Note_on_c, 0, 26, 80
2, 158307, Note_on_c, 0, 30, 0
2, 158323, Note_on_c, 0, 42, 0
2, 158329, Control_c, 0, 64, 0
2, 158330, Note_on_c, 0, 83, 0
2, 158330, Note_on_c, 0, 80, 0
2, 158330, Note_on_c, 0, 92, 0
2, 158330, Note_on_c, 0, 38, 0
2, 158330, Note_on_c, 0, 26, 0
2, 158330, Note_on_c, 0, 85, 0
2, 158330, Note_on_c, 0, 90, 0
2, 158330, Note_on_c, 0, 86, 0
2, 158331, Note_on_c, 0, 66, 0
2, 158338, Note_on_c, 0, 78, 0
2, 158338, Note_on_c, 0, 81, 0
2, 158339, Note_on_c, 0, 90, 96
2, 158342, Note_on_c, 0, 78, 89
2, 158346, Note_on_c, 0, 93, 0
2, 158361, Note_on_c, 0, 62, 72
2, 158400, Note_on_c, 0, 74, 0
2, 158461, Control_c, 0, 64, 127
2, 158469, Note_on_c, 0, 90, 0
2, 158473, Note_on_c, 0, 88, 101
2, 158479, Note_on_c, 0, 76, 96
2, 158480, Note_on_c, 0, 85, 95
2, 158481, Note_on_c, 0, 57, 69
2, 158481, Note_on_c, 0, 54, 65
2, 158481, Note_on_c, 0, 81, 78
2, 158561, Note_on_c, 0, 57, 0
2, 158565, Note_on_c, 0, 57, 63
2, 158622, Note_on_c, 0, 62, 0
2, 158628, Note_on_c, 0, 62, 66
2, 158668, Note_on_c, 0, 57, 0
2, 158673, Note_on_c, 0, 57, 73
2, 158760, Note_on_c, 0, 54, 0
2, 158765, Note_on_c, 0, 54, 67
2, 158814, Note_on_c, 0, 57, 0
2, 158820, Note_on_c, 0, 57, 71
2, 158891, Note_on_c, 0, 62, 0
2, 158897, Note_on_c, 0, 38, 98
2, 158898, Note_on_c, 0, 33, 89
2, 158901, Note_on_c, 0, 26, 95
2, 158901, Note_on_c, 0, 62, 93
2, 158929, Note_on_c, 0, 69, 0
2, 159045, Note_on_c, 0, 76, 0
2, 159045, Note_on_c, 0, 81, 0
2, 159045, Note_on_c, 0, 85, 0
2, 159049, Note_on_c, 0, 85, 104
2, 159053, Note_on_c, 0, 76, 88
2, 159055, Note_on_c, 0, 73, 95
2, 159055, Note_on_c, 0, 81, 82
2, 159098, Note_on_c, 0, 57, 0
2, 159109, Note_on_c, 0, 57, 77
2, 159183, Note_on_c, 0, 33, 0
2, 159191, Note_on_c, 0, 26, 0
2, 159192, Note_on_c, 0, 33, 102
2, 159193, Note_on_c, 0, 45, 96
2, 159194, Note_on_c, 0, 69, 92
2, 159195, Note_on_c, 0, 62, 0
2, 159195, Note_on_c, 0, 64, 91
2, 159195, Note_on_c, 0, 54, 0
2, 159197, Note_on_c, 0, 38, 0
2, 159198, Note_on_c, 0, 85, 0
2, 159206, Note_on_c, 0, 78, 0
2, 159214, Note_on_c, 0, 88, 0
2, 159336, Note_on_c, 0, 45, 0
2, 159336, Note_on_c, 0, 57, 0
2, 159336, Note_on_c, 0, 64, 0
2, 159341, Note_on_c, 0, 52, 79
2, 159341, Note_on_c, 0, 57, 81
2, 159342, Note_on_c, 0, 45, 87
2, 159344, Note_on_c, 0, 64, 79
2, 159360, Note_on_c, 0, 81, 0
2, 159429, Note_on_c, 0, 57, 0
2, 159429, Note_on_c, 0, 64, 0
2, 159435, Note_on_c, 0, 57, 78
2, 159435, Note_on_c, 0, 64, 80
2, 159452, Note_on_c, 0, 73, 0
2, 159457, Note_on_c, 0, 45, 0
2, 159457, Note_on_c, 0, 76, 0
2, 159459, Control_c, 0, 64, 0
2, 159467, Note_on_c, 0, 33, 0
2, 159467, Note_on_c, 0, 69, 0
2, 159475, Note_on_c, 0, 52, 0
2, 159482, Note_on_c, 0, 64, 0
2, 159494, Note_on_c, 0, 61, 67
2, 159544, Note_on_c, 0, 57, 0
2, 159551, Note_on_c, 0, 57, 58
2, 159613, Note_on_c, 0, 85, 91
2, 159613, Control_c, 0, 64, 127
2, 159615, Note_on_c, 0, 73, 90
2, 159617, Note_on_c, 0, 76, 66
2, 159618, Note_on_c, 0, 52, 75
2, 159690, Note_on_c, 0, 57, 0
2, 159695, Note_on_c, 0, 57, 76
2, 159744, Note_on_c, 0, 76, 0
2, 159744, Note_on_c, 0, 85, 0
2, 159751, Note_on_c, 0, 73, 0
2, 159753, Note_on_c, 0, 85, 102
2, 159754, Note_on_c, 0, 76, 85
2, 159755, Note_on_c, 0, 73, 101
2, 159759, Note_on_c, 0, 61, 0
2, 159764, Note_on_c, 0, 61, 79
2, 159777, Note_on_c, 0, 81, 60
2, 159820, Note_on_c, 0, 57, 0
2, 159826, Note_on_c, 0, 57, 72
2, 159897, Note_on_c, 0, 52, 0
2, 159906, Note_on_c, 0, 52, 68
2, 159967, Note_on_c, 0, 86, 99
2, 159969, Note_on_c, 0, 74, 83
2, 160031, Note_on_c, 0, 33, 98
2, 160166, Note_on_c, 0, 73, 0
2, 160166, Note_on_c, 0, 85, 0
2, 160174, Note_on_c, 0, 61, 0
2, 160174, Note_on_c, 0, 73, 90
2, 160175, Note_on_c, 0, 85, 91
2, 160184, Note_on_c, 0, 61, 74
2, 160235, Note_on_c, 0, 57, 0
2, 160239, Note_on_c, 0, 57, 65
2, 160286, Note_on_c, 0, 33, 0
2, 160287, Note_on_c, 0, 74, 0
2, 160287, Note_on_c, 0, 81, 0
2, 160287, Note_on_c, 0, 86, 0
2, 160287, Note_on_c, 0, 52, 0
2, 160287, Control_c, 0, 64, 0
2, 160287, Note_on_c, 0, 73, 0
2, 160288, Note_on_c, 0, 57, 0
2, 160288, Note_on_c, 0, 61, 0
2, 160288, Note_on_c, 0, 85, 0
2, 160312, Note_on_c, 0, 76, 0
2, 160317, Note_on_c, 0, 40, 101
2, 160319, Note_on_c, 0, 68, 103
2, 160320, Note_on_c, 0, 71, 100
2, 160320, Note_on_c, 0, 85, 100
2, 160321, Note_on_c, 0, 28, 104
2, 160322, Note_on_c, 0, 83, 98
2, 160322, Note_on_c, 0, 76, 105
2, 160323, Note_on_c, 0, 80, 96
2, 160343, Control_c, 0, 64, 127
2, 160396, Note_on_c, 0, 85, 0
2, 160621, Note_on_c, 0, 59, 64
2, 160623, Note_on_c, 0, 56, 67
2, 160734, Note_on_c, 0, 71, 0
2, 160734, Note_on_c, 0, 83, 0
2, 160738, Note_on_c, 0, 83, 92
2, 160741, Note_on_c, 0, 71, 90
2, 160745, Note_on_c, 0, 52, 80
2, 160872, Note_on_c, 0, 83, 0
2, 160880, Note_on_c, 0, 71, 0
2, 160882, Note_on_c, 0, 83, 103
2, 160888, Note_on_c, 0, 28, 0
2, 160888, Note_on_c, 0, 40, 0
2, 160888, Note_on_c, 0, 76, 0
2, 160888, Note_on_c, 0, 80, 0
2, 160890, Note_on_c, 0, 68, 0
2, 160890, Note_on_c, 0, 71, 90
2, 160892, Note_on_c, 0, 76, 87
2, 160892, Note_on_c, 0, 80, 89
2, 160894, Note_on_c, 0, 40, 94
2, 160894, Note_on_c, 0, 28, 98
2, 161011, Note_on_c, 0, 28, 0
2, 161018, Note_on_c, 0, 40, 0
2, 161020, Note_on_c, 0, 28, 58
2, 161027, Note_on_c, 0, 40, 63
2, 161095, Note_on_c, 0, 56, 0
2, 161105, Note_on_c, 0, 56, 72
2, 161164, Note_on_c, 0, 52, 0
2, 161172, Note_on_c, 0, 64, 90
2, 161172, Note_on_c, 0, 59, 0
2, 161175, Note_on_c, 0, 52, 77
2, 161177, Note_on_c, 0, 59, 84
2, 161303, Note_on_c, 0, 56, 0
2, 161308, Note_on_c, 0, 56, 52
2, 161446, Note_on_c, 0, 28, 0
2, 161448, Control_c, 0, 64, 0
2, 161448, Note_on_c, 0, 40, 0
2, 161448, Note_on_c, 0, 52, 0
2, 161449, Note_on_c, 0, 56, 0
2, 161449, Note_on_c, 0, 59, 0
2, 161449, Note_on_c, 0, 80, 0
2, 161449, Note_on_c, 0, 71, 0
2, 161449, Note_on_c, 0, 64, 0
2, 161450, Note_on_c, 0, 76, 0
2, 161450, Note_on_c, 0, 83, 0
2, 161468, Note_on_c, 0, 30, 103
2, 161468, Note_on_c, 0, 85, 110
2, 161469, Note_on_c, 0, 42, 110
2, 161469, Note_on_c, 0, 78, 98
2, 161474, Note_on_c, 0, 93, 104
2, 161474, Note_on_c, 0, 81, 95
2, 161479, Note_on_c, 0, 93, 0
2, 161510, Control_c, 0, 64, 127
2, 161731, Control_c, 0, 64, 0
2, 161748, Note_on_c, 0, 42, 0
2, 161756, Note_on_c, 0, 30, 0
2, 161759, Note_on_c, 0, 42, 95
2, 161761, Note_on_c, 0, 30, 89
2, 161766, Note_on_c, 0, 97, 90
2, 161766, Note_on_c, 0, 93, 87
2, 161771, Note_on_c, 0, 97, 0
2, 161789, Note_on_c, 0, 78, 0
2, 161790, Note_on_c, 0, 85, 0
2, 161790, Note_on_c, 0, 81, 0
2, 161794, Note_on_c, 0, 30, 0
2, 161809, Note_on_c, 0, 42, 0
2, 161904, Note_on_c, 0, 90, 110
2, 161905, Note_on_c, 0, 85, 108
2, 161905, Note_on_c, 0, 69, 97
2, 161905, Note_on_c, 0, 78, 107
2, 161906, Note_on_c, 0, 81, 95
2, 161910, Note_on_c, 0, 57, 94
2, 161911, Note_on_c, 0, 61, 92
2, 161912, Note_on_c, 0, 66, 95
2, 161948, Control_c, 0, 64, 127
2, 162060, Note_on_c, 0, 42, 86
2, 162061, Note_on_c, 0, 30, 84
2, 162209, Note_on_c, 0, 30, 0
2, 162324, Note_on_c, 0, 81, 0
2, 162324, Note_on_c, 0, 85, 0
2, 162324, Note_on_c, 0, 93, 0
2, 162329, Note_on_c, 0, 93, 113
2, 162330, Note_on_c, 0, 73, 104
2, 162332, Note_on_c, 0, 42, 0
2, 162332, Note_on_c, 0, 90, 0
2, 162332, Note_on_c, 0, 81, 105
2, 162334, Note_on_c, 0, 30, 94
2, 162335, Note_on_c, 0, 97, 96
2, 162335, Note_on_c, 0, 85, 102
2, 162336, Note_on_c, 0, 42, 94
2, 162341, Note_on_c, 0, 69, 0
2, 162341, Note_on_c, 0, 57, 0
2, 162342, Note_on_c, 0, 61, 0
2, 162343, Note_on_c, 0, 90, 96
2, 162343, Note_on_c, 0, 66, 0
2, 162343, Note_on_c, 0, 78, 0
2, 162370, Control_c, 0, 64, 0
2, 162378, Note_on_c, 0, 30, 0
2, 162378, Note_on_c, 0, 97, 0
2, 162401, Note_on_c, 0, 42, 0
2, 162474, Note_on_c, 0, 57, 68
2, 162581, Note_on_c, 0, 73, 0
2, 162581, Note_on_c, 0, 57, 0
2, 162585, Note_on_c, 0, 81, 0
2, 162593, Note_on_c, 0, 85, 0
2, 162593, Note_on_c, 0, 93, 0
2, 162616, Note_on_c, 0, 90, 0
2, 162618, Note_on_c, 0, 95, 109
2, 162619, Note_on_c, 0, 74, 101
2, 162620, Note_on_c, 0, 86, 102
2, 162623, Note_on_c, 0, 62, 94
2, 162624, Note_on_c, 0, 74, 0
2, 162624, Control_c, 0, 64, 127
2, 162626, Note_on_c, 0, 38, 100
2, 162626, Note_on_c, 0, 66, 92
2, 162626, Note_on_c, 0, 98, 93
2, 162627, Note_on_c, 0, 90, 97
2, 162629, Note_on_c, 0, 26, 83
2, 162831, Note_on_c, 0, 26, 0
2, 162904, Control_c, 0, 64, 0
2, 162908, Note_on_c, 0, 38, 0
2, 162912, Note_on_c, 0, 38, 85
2, 162912, Note_on_c, 0, 93, 101
2, 162914, Note_on_c, 0, 81, 99
2, 162931, Note_on_c, 0, 98, 0
2, 162992, Note_on_c, 0, 38, 0
2, 163051, Note_on_c, 0, 92, 111
2, 163051, Note_on_c, 0, 57, 77
2, 163054, Note_on_c, 0, 86, 0
2, 163060, Note_on_c, 0, 69, 83
2, 163061, Note_on_c, 0, 62, 0
2, 163061, Note_on_c, 0, 66, 0
2, 163061, Note_on_c, 0, 90, 0
2, 163062, Note_on_c, 0, 83, 96
2, 163063, Note_on_c, 0, 80, 100
2, 163065, Note_on_c, 0, 86, 92
2, 163067, Note_on_c, 0, 62, 81
2, 163067, Note_on_c, 0, 90, 73
2, 163069, Note_on_c, 0, 66, 77
2, 163092, Note_on_c, 0, 95, 0
2, 163092, Control_c, 0, 64, 127
2, 163194, Note_on_c, 0, 38, 97
2, 163195, Note_on_c, 0, 26, 93
2, 163290, Control_c, 0, 64, 0
2, 163299, Control_c, 0, 64, 127
2, 163330, Note_on_c, 0, 69, 0
2, 163338, Note_on_c, 0, 90, 0
2, 163341, Note_on_c, 0, 78, 99
2, 163341, Note_on_c, 0, 69, 59
2, 163344, Note_on_c, 0, 90, 91
2, 163468, Note_on_c, 0, 26, 0
2, 163468, Note_on_c, 0, 38, 0
2, 163474, Note_on_c, 0, 38, 97
2, 163476, Note_on_c, 0, 78, 0
2, 163476, Note_on_c, 0, 81, 0
2, 163476, Note_on_c, 0, 90, 0
2, 163477, Note_on_c, 0, 26, 95
2, 163481, Note_on_c, 0, 78, 101
2, 163484, Note_on_c, 0, 90, 97
2, 163487, Note_on_c, 0, 81, 98
2, 163488, Note_on_c, 0, 85, 98
2, 163622, Note_on_c, 0, 85, 0
2, 163623, Note_on_c, 0, 88, 96
2, 163624, Note_on_c, 0, 76, 92
2, 163626, Note_on_c, 0, 85, 67
2, 163665, Control_c, 0, 64, 0
2, 163672, Note_on_c, 0, 62, 0
2, 163673, Note_on_c, 0, 57, 0
2, 163673, Note_on_c, 0, 86, 0
2, 163673, Note_on_c, 0, 66, 0
2, 163673, Note_on_c, 0, 38, 0
2, 163674, Note_on_c, 0, 81, 0
2, 163674, Note_on_c, 0, 93, 0
2, 163674, Note_on_c, 0, 80, 0
2, 163674, Note_on_c, 0, 78, 0
2, 163675, Note_on_c, 0, 76, 0
2, 163675, Note_on_c, 0, 92, 0
2, 163676, Note_on_c, 0, 85, 0
2, 163676, Note_on_c, 0, 88, 0
2, 163683, Note_on_c, 0, 26, 0
2, 163683, Note_on_c, 0, 69, 0
2, 163683, Note_on_c, 0, 83, 0
2, 163691, Note_on_c, 0, 90, 0
2, 163751, Note_on_c, 0, 64, 97
2, 163757, Note_on_c, 0, 78, 101
2, 163758, Note_on_c, 0, 85, 92
2, 163763, Note_on_c, 0, 81, 85
2, 163764, Note_on_c, 0, 90, 100
2, 163764, Note_on_c, 0, 33, 105
2, 163768, Control_c, 0, 64, 127
2, 163903, Note_on_c, 0, 88, 97
2, 163907, Note_on_c, 0, 76, 93
2, 164029, Note_on_c, 0, 90, 0
2, 164037, Note_on_c, 0, 33, 0
2, 164037, Note_on_c, 0, 88, 0
2, 164044, Note_on_c, 0, 76, 0
2, 164044, Note_on_c, 0, 85, 0
2, 164048, Note_on_c, 0, 33, 98
2, 164048, Note_on_c, 0, 88, 95
2, 164048, Note_on_c, 0, 89, 99
2, 164050, Note_on_c, 0, 85, 89
2, 164051, Note_on_c, 0, 77, 94
2, 164054, Note_on_c, 0, 76, 92
2, 164060, Note_on_c, 0, 89, 0
2, 164067, Note_on_c, 0, 64, 0
2, 164088, Control_c, 0, 64, 0
2, 164098, Note_on_c, 0, 78, 0
2, 164098, Note_on_c, 0, 81, 0
2, 164106, Note_on_c, 0, 76, 0
2, 164106, Note_on_c, 0, 77, 0
2, 164106, Note_on_c, 0, 85, 0
2, 164121, Note_on_c, 0, 88, 0
2, 164160, Note_on_c, 0, 33, 0
2, 164178, Note_on_c, 0, 57, 87
2, 164178, Note_on_c, 0, 69, 84
2, 164179, Note_on_c, 0, 64, 76
2, 164179, Note_on_c, 0, 61, 82
2, 164244, Control_c, 0, 64, 127
2, 164325, Note_on_c, 0, 33, 99
2, 164376, Note_on_c, 0, 33, 0
2, 164380, Note_on_c, 0, 69, 0
2, 164384, Note_on_c, 0, 64, 0
2, 164391, Control_c, 0, 64, 0
2, 164398, Note_on_c, 0, 57, 0
2, 164405, Note_on_c, 0, 61, 0
2, 164454, Note_on_c, 0, 69, 92
2, 164455, Note_on_c, 0, 57, 88
2, 164461, Note_on_c, 0, 45, 79
2, 164474, Note_on_c, 0, 43, 50
2, 164497, Control_c, 0, 64, 127
2, 164596, Note_on_c, 0, 71, 95
2, 164597, Note_on_c, 0, 45, 0
2, 164601, Note_on_c, 0, 59, 89
2, 164607, Note_on_c, 0, 45, 92
2, 164609, Note_on_c, 0, 33, 91
2, 164609, Note_on_c, 0, 35, 80
2, 164661, Note_on_c, 0, 33, 0
2, 164662, Note_on_c, 0, 45, 0
2, 164666, Note_on_c, 0, 43, 0
2, 164670, Control_c, 0, 64, 0
2, 164674, Note_on_c, 0, 35, 0
2, 164674, Note_on_c, 0, 57, 0
2, 164682, Note_on_c, 0, 69, 0
2, 164689, Control_c, 0, 64, 127
2, 164723, Note_on_c, 0, 72, 99
2, 164724, Note_on_c, 0, 48, 87
2, 164724, Note_on_c, 0, 60, 93
2, 164820, Note_on_c, 0, 59, 0
2, 164828, Control_c, 0, 64, 0
2, 164830, Note_on_c, 0, 48, 0
2, 164831, Note_on_c, 0, 72, 0
2, 164831, Note_on_c, 0, 60, 0
2, 164835, Note_on_c, 0, 71, 0
2, 164868, Note_on_c, 0, 49, 111
2, 164868, Note_on_c, 0, 73, 106
2, 164868, Note_on_c, 0, 61, 102
2, 164870, Note_on_c, 0, 37, 103
2, 164872, Note_on_c, 0, 68, 88
2, 164912, Control_c, 0, 64, 127
2, 164997, Note_on_c, 0, 68, 0
2, 164997, Note_on_c, 0, 73, 0
2, 165004, Note_on_c, 0, 61, 0
2, 165005, Note_on_c, 0, 68, 85
2, 165008, Note_on_c, 0, 73, 76
2, 165012, Note_on_c, 0, 37, 0
2, 165012, Note_on_c, 0, 49, 0
2, 165015, Note_on_c, 0, 61, 85
2, 165017, Note_on_c, 0, 37, 78
2, 165017, Note_on_c, 0, 49, 88
2, 165135, Note_on_c, 0, 37, 0
2, 165135, Note_on_c, 0, 49, 0
2, 165135, Note_on_c, 0, 61, 0
2, 165135, Note_on_c, 0, 73, 0
2, 165139, Note_on_c, 0, 73, 81
2, 165139, Note_on_c, 0, 61, 81
2, 165140, Note_on_c, 0, 49, 84
2, 165141, Note_on_c, 0, 37, 83
2, 165207, Note_on_c, 0, 61, 0
2, 165207, Note_on_c, 0, 49, 0
2, 165207, Note_on_c, 0, 73, 0
2, 165208, Note_on_c, 0, 37, 0
2, 165209, Control_c, 0, 64, 0
2, 165250, Note_on_c, 0, 68, 0
2, 165288, Control_c, 0, 64, 127
2, 165291, Note_on_c, 0, 74, 106
2, 165293, Note_on_c, 0, 62, 92
2, 165296, Note_on_c, 0, 50, 99
2, 165299, Note_on_c, 0, 38, 96
2, 165299, Note_on_c, 0, 69, 88
2, 165300, Note_on_c, 0, 45, 81
2, 165304, Note_on_c, 0, 66, 76
2, 165312, Note_on_c, 0, 66, 0
2, 165475, Note_on_c, 0, 62, 0
2, 165475, Note_on_c, 0, 45, 0
2, 165475, Control_c, 0, 64, 0
2, 165476, Note_on_c, 0, 74, 0
2, 165476, Note_on_c, 0, 69, 0
2, 165476, Note_on_c, 0, 50, 0
2, 165477, Note_on_c, 0, 38, 0
2, 165572, Note_on_c, 0, 71, 98
2, 165573, Note_on_c, 0, 66, 97
2, 165575, Note_on_c, 0, 59, 91
2, 165576, Note_on_c, 0, 47, 94
2, 165578, Note_on_c, 0, 42, 86
2, 165580, Note_on_c, 0, 35, 86
2, 165603, Control_c, 0, 64, 127
2, 165854, Note_on_c, 0, 61, 91
2, 165854, Note_on_c, 0, 73, 98
2, 165859, Note_on_c, 0, 49, 75
2, 165861, Note_on_c, 0, 44, 75
2, 165862, Note_on_c, 0, 68, 60
2, 165872, Note_on_c, 0, 68, 0
2, 165941, Note_on_c, 0, 47, 0
2, 165941, Note_on_c, 0, 59, 0
2, 165951, Note_on_c, 0, 66, 0
2, 165952, Note_on_c, 0, 73, 0
2, 165952, Note_on_c, 0, 49, 0
2, 165952, Note_on_c, 0, 44, 0
2, 165952, Note_on_c, 0, 61, 0
2, 165953, Control_c, 0, 64, 0
2, 165957, Note_on_c, 0, 35, 0
2, 165957, Note_on_c, 0, 71, 0
2, 165964, Note_on_c, 0, 42, 0
2, 165990, Note_on_c, 0, 73, 112
2, 165991, Note_on_c, 0, 78, 107
2, 165991, Note_on_c, 0, 81, 99
2, 165992, Note_on_c, 0, 85, 110
2, 165993, Note_on_c, 0, 42, 102
2, 165994, Note_on_c, 0, 90, 102
2, 165995, Note_on_c, 0, 30, 98
2, 166026, Control_c, 0, 64, 127
2, 166041, Note_on_c, 0, 90, 0
2, 166117, Note_on_c, 0, 49, 81
2, 166213, Note_on_c, 0, 57, 65
2, 166272, Note_on_c, 0, 30, 0
2, 166272, Note_on_c, 0, 49, 0
2, 166279, Note_on_c, 0, 49, 82
2, 166279, Note_on_c, 0, 42, 0
2, 166282, Note_on_c, 0, 30, 98
2, 166284, Note_on_c, 0, 42, 89
2, 166410, Note_on_c, 0, 42, 0
2, 166410, Note_on_c, 0, 78, 0
2, 166410, Note_on_c, 0, 85, 0
2, 166414, Note_on_c, 0, 42, 97
2, 166416, Note_on_c, 0, 90, 110
2, 166417, Note_on_c, 0, 81, 0
2, 166421, Note_on_c, 0, 78, 105
2, 166421, Note_on_c, 0, 85, 99
2, 166422, Note_on_c, 0, 61, 88
2, 166423, Note_on_c, 0, 81, 96
2, 166430, Note_on_c, 0, 54, 82
2, 166433, Note_on_c, 0, 61, 0
2, 166556, Note_on_c, 0, 30, 0
2, 166556, Note_on_c, 0, 42, 0
2, 166564, Note_on_c, 0, 42, 102
2, 166566, Note_on_c, 0, 30, 100
2, 166579, Note_on_c, 0, 90, 0
2, 166586, Note_on_c, 0, 90, 74
2, 166663, Note_on_c, 0, 42, 0
2, 166670, Note_on_c, 0, 42, 82
2, 166717, Note_on_c, 0, 78, 0
2, 166717, Note_on_c, 0, 90, 0
2, 166721, Note_on_c, 0, 90, 82
2, 166724, Note_on_c, 0, 78, 96
2, 166740, Note_on_c, 0, 81, 0
2, 166751, Note_on_c, 0, 81, 78
2, 166824, Note_on_c, 0, 54, 0
2, 166833, Note_on_c, 0, 54, 96
2, 166840, Note_on_c, 0, 30, 0
2, 166840, Note_on_c, 0, 42, 0
2, 166844, Note_on_c, 0, 42, 99
2, 166848, Note_on_c, 0, 81, 0
2, 166848, Note_on_c, 0, 30, 99
2, 166853, Note_on_c, 0, 81, 107
2, 166857, Note_on_c, 0, 93, 114
2, 167016, Note_on_c, 0, 81, 0
2, 167016, Note_on_c, 0, 93, 0
2, 167021, Note_on_c, 0, 81, 68
2, 167027, Note_on_c, 0, 93, 84
2, 167116, Note_on_c, 0, 73, 0
2, 167120, Control_c, 0, 64, 0
2, 167120, Note_on_c, 0, 78, 0
2, 167121, Note_on_c, 0, 30, 0
2, 167121, Note_on_c, 0, 81, 0
2, 167124, Note_on_c, 0, 57, 0
2, 167132, Note_on_c, 0, 49, 0
2, 167132, Note_on_c, 0, 54, 0
2, 167136, Note_on_c, 0, 92, 119
2, 167139, Note_on_c, 0, 50, 95
2, 167139, Note_on_c, 0, 42, 0
2, 167139, Note_on_c, 0, 85, 0
2, 167141, Note_on_c, 0, 80, 116
2, 167142, Note_on_c, 0, 38, 102
2, 167143, Note_on_c, 0, 83, 102
2, 167144, Note_on_c, 0, 42, 82
2, 167147, Note_on_c, 0, 90, 0
2, 167157, Note_on_c, 0, 90, 84
2, 167158, Note_on_c, 0, 45, 86
2, 167193, Control_c, 0, 64, 127
2, 167291, Note_on_c, 0, 62, 71
2, 167350, Note_on_c, 0, 66, 82
2, 167398, Note_on_c, 0, 57, 73
2, 167408, Note_on_c, 0, 90, 0
2, 167413, Note_on_c, 0, 69, 68
2, 167417, Note_on_c, 0, 78, 107
2, 167418, Note_on_c, 0, 90, 110
2, 167461, Note_on_c, 0, 74, 54
2, 167556, Note_on_c, 0, 76, 110
2, 167556, Note_on_c, 0, 88, 108
2, 167562, Note_on_c, 0, 74, 0
2, 167566, Note_on_c, 0, 74, 89
2, 167623, Note_on_c, 0, 78, 0
2, 167634, Note_on_c, 0, 78, 96
2, 167677, Note_on_c, 0, 62, 0
2, 167685, Note_on_c, 0, 38, 0
2, 167687, Note_on_c, 0, 62, 94
2, 167690, Note_on_c, 0, 38, 93
2, 167746, Note_on_c, 0, 74, 0
2, 167752, Note_on_c, 0, 74, 90
2, 167801, Note_on_c, 0, 81, 78
2, 167849, Note_on_c, 0, 86, 93
2, 167900, Note_on_c, 0, 90, 0
2, 167906, Note_on_c, 0, 90, 94
2, 167953, Note_on_c, 0, 38, 0
2, 167953, Note_on_c, 0, 74, 0
2, 167953, Note_on_c, 0, 86, 0
2, 167953, Note_on_c, 0, 93, 0
2, 167957, Note_on_c, 0, 38, 89
2, 167959, Note_on_c, 0, 98, 107
2, 167961, Note_on_c, 0, 42, 0
2, 167961, Note_on_c, 0, 81, 0
2, 167963, Note_on_c, 0, 86, 107
2, 167963, Note_on_c, 0, 74, 111
2, 167964, Note_on_c, 0, 93, 111
2, 167969, Note_on_c, 0, 98, 0
2, 167972, Note_on_c, 0, 81, 104
2, 168099, Note_on_c, 0, 76, 0
2, 168107, Note_on_c, 0, 81, 0
2, 168108, Note_on_c, 0, 73, 107
2, 168110, Note_on_c, 0, 76, 83
2, 168111, Note_on_c, 0, 81, 97
2, 168112, Note_on_c, 0, 85, 95
2, 168156, Note_on_c, 0, 102, 69
2, 168161, Note_on_c, 0, 102, 0
2, 168241, Control_c, 0, 64, 0
2, 168253, Note_on_c, 0, 50, 0
2, 168262, Note_on_c, 0, 62, 0
2, 168262, Note_on_c, 0, 33, 100
2, 168264, Note_on_c, 0, 90, 0
2, 168264, Note_on_c, 0, 74, 0
2, 168264, Note_on_c, 0, 66, 0
2, 168264, Note_on_c, 0, 86, 0
2, 168264, Note_on_c, 0, 88, 0
2, 168264, Note_on_c, 0, 38, 0
2, 168265, Note_on_c, 0, 40, 85
2, 168265, Note_on_c, 0, 93, 0
2, 168266, Note_on_c, 0, 80, 0
2, 168267, Note_on_c, 0, 92, 0
2, 168268, Note_on_c, 0, 83, 0
2, 168270, Note_on_c, 0, 85, 0
2, 168291, Note_on_c, 0, 69, 0
2, 168299, Note_on_c, 0, 78, 0
2, 168307, Control_c, 0, 64, 127
2, 168399, Note_on_c, 0, 45, 0
2, 168404, Note_on_c, 0, 45, 79
2, 168478, Note_on_c, 0, 61, 63
2, 168522, Note_on_c, 0, 73, 0
2, 168537, Note_on_c, 0, 33, 0
2, 168537, Note_on_c, 0, 45, 0
2, 168544, Note_on_c, 0, 33, 103
2, 168548, Note_on_c, 0, 45, 96
2, 168599, Note_on_c, 0, 57, 0
2, 168610, Note_on_c, 0, 57, 85
2, 168611, Note_on_c, 0, 69, 79
2, 168668, Note_on_c, 0, 45, 0
2, 168675, Note_on_c, 0, 81, 0
2, 168677, Note_on_c, 0, 45, 90
2, 168679, Note_on_c, 0, 73, 104
2, 168680, Note_on_c, 0, 85, 98
2, 168685, Note_on_c, 0, 81, 88
2, 168768, Note_on_c, 0, 61, 0
2, 168821, Note_on_c, 0, 76, 0
2, 168829, Note_on_c, 0, 33, 0
2, 168829, Note_on_c, 0, 57, 0
2, 168832, Note_on_c, 0, 88, 110
2, 168833, Note_on_c, 0, 76, 111
2, 168837, Note_on_c, 0, 45, 0
2, 168839, Note_on_c, 0, 57, 98
2, 168840, Note_on_c, 0, 64, 100
2, 168840, Note_on_c, 0, 33, 96
2, 168842, Note_on_c, 0, 45, 101
2, 168960, Note_on_c, 0, 45, 0
2, 168970, Note_on_c, 0, 45, 85
2, 168990, Note_on_c, 0, 81, 0
2, 168995, Note_on_c, 0, 81, 88
2, 169055, Note_on_c, 0, 95, 113
2, 169057, Note_on_c, 0, 83, 102
2, 169059, Note_on_c, 0, 93, 108
2, 169098, Note_on_c, 0, 40, 0
2, 169105, Note_on_c, 0, 33, 0
2, 169115, Note_on_c, 0, 33, 93
2, 169121, Note_on_c, 0, 76, 0
2, 169121, Note_on_c, 0, 81, 0
2, 169125, Note_on_c, 0, 76, 91
2, 169126, Note_on_c, 0, 81, 90
2, 169182, Note_on_c, 0, 88, 0
2, 169187, Note_on_c, 0, 88, 90
2, 169244, Note_on_c, 0, 85, 0
2, 169251, Note_on_c, 0, 93, 0
2, 169253, Note_on_c, 0, 85, 110
2, 169253, Note_on_c, 0, 97, 113
2, 169262, Note_on_c, 0, 93, 89
2, 169382, Note_on_c, 0, 85, 0
2, 169382, Note_on_c, 0, 97, 0
2, 169392, Note_on_c, 0, 85, 109
2, 169392, Note_on_c, 0, 97, 114
2, 169394, Note_on_c, 0, 40, 100
2, 169394, Note_on_c, 0, 28, 102
2, 169402, Note_on_c, 0, 33, 0
2, 169402, Note_on_c, 0, 45, 0
2, 169402, Note_on_c, 0, 81, 0
2, 169402, Note_on_c, 0, 88, 0
2, 169408, Control_c, 0, 64, 0
2, 169413, Note_on_c, 0, 73, 0
2, 169420, Note_on_c, 0, 69, 0
2, 169428, Note_on_c, 0, 57, 0
2, 169459, Control_c, 0, 64, 127
2, 169520, Note_on_c, 0, 40, 0
2, 169527, Note_on_c, 0, 40, 78
2, 169620, Note_on_c, 0, 83, 0
2, 169620, Note_on_c, 0, 95, 0
2, 169627, Note_on_c, 0, 95, 116
2, 169630, Note_on_c, 0, 83, 110
2, 169651, Note_on_c, 0, 28, 0
2, 169658, Note_on_c, 0, 40, 0
2, 169662, Note_on_c, 0, 28, 100
2, 169664, Note_on_c, 0, 40, 79
2, 169812, Note_on_c, 0, 40, 0
2, 169819, Note_on_c, 0, 40, 94
2, 169835, Note_on_c, 0, 93, 0
2, 169837, Note_on_c, 0, 81, 104
2, 169843, Note_on_c, 0, 93, 99
2, 169858, Note_on_c, 0, 76, 0
2, 169864, Note_on_c, 0, 76, 70
2, 169958, Note_on_c, 0, 83, 0
2, 169969, Note_on_c, 0, 80, 115
2, 169969, Note_on_c, 0, 83, 107
2, 169970, Note_on_c, 0, 92, 114
2, 169978, Control_c, 0, 64, 0
2, 169981, Note_on_c, 0, 64, 0
2, 169996, Note_on_c, 0, 85, 0
2, 170027, Control_c, 0, 64, 127
2, 170042, Note_on_c, 0, 97, 0
2, 170119, Note_on_c, 0, 40, 0
2, 170127, Note_on_c, 0, 28, 0
2, 170129, Note_on_c, 0, 40, 80
2, 170132, Note_on_c, 0, 28, 78
2, 170140, Note_on_c, 0, 88, 94
2, 170188, Note_on_c, 0, 92, 0
2, 170197, Note_on_c, 0, 92, 95
2, 170250, Note_on_c, 0, 76, 0
2, 170257, Note_on_c, 0, 28, 0
2, 170257, Note_on_c, 0, 83, 0
2, 170260, Note_on_c, 0, 76, 94
2, 170265, Note_on_c, 0, 28, 97
2, 170268, Note_on_c, 0, 83, 94
2, 170275, Note_on_c, 0, 86, 86
2, 170400, Note_on_c, 0, 100, 91
2, 170421, Note_on_c, 0, 103, 96
2, 170422, Note_on_c, 0, 104, 104
2, 170519, Note_on_c, 0, 104, 0
2, 170526, Note_on_c, 0, 103, 0
2, 170542, Note_on_c, 0, 81, 0
2, 170542, Note_on_c, 0, 86, 0
2, 170542, Note_on_c, 0, 80, 0
2, 170542, Note_on_c, 0, 100, 0
2, 170543, Note_on_c, 0, 28, 0
2, 170543, Note_on_c, 0, 83, 0
2, 170544, Note_on_c, 0, 40, 0
2, 170544, Note_on_c, 0, 76, 0
2, 170546, Control_c, 0, 64, 0
2, 170547, Note_on_c, 0, 81, 103
2, 170547, Note_on_c, 0, 73, 111
2, 170549, Note_on_c, 0, 85, 108
2, 170549, Note_on_c, 0, 88, 0
2, 170549, Note_on_c, 0, 92, 0
2, 170549, Note_on_c, 0, 95, 0
2, 170550, Note_on_c, 0, 78, 108
2, 170552, Note_on_c, 0, 30, 104
2, 170552, Note_on_c, 0, 42, 106
2, 170565, Note_on_c, 0, 93, 0
2, 170603, Control_c, 0, 64, 127
2, 170606, Note_on_c, 0, 32, 24
2, 170657, Note_on_c, 0, 30, 0
2, 170661, Note_on_c, 0, 30, 67
2, 170664, Note_on_c, 0, 42, 0
2, 170672, Note_on_c, 0, 42, 90
2, 170841, Note_on_c, 0, 30, 0
2, 170841, Note_on_c, 0, 42, 0
2, 170852, Note_on_c, 0, 30, 106
2, 170853, Note_on_c, 0, 42, 101
2, 170956, Note_on_c, 0, 32, 0
2, 170972, Note_on_c, 0, 42, 0
2, 170972, Note_on_c, 0, 78, 0
2, 170972, Note_on_c, 0, 85, 0
2, 170979, Note_on_c, 0, 81, 0
2, 170981, Note_on_c, 0, 90, 110
2, 170982, Note_on_c, 0, 42, 92
2, 170983, Note_on_c, 0, 85, 103
2, 170983, Note_on_c, 0, 78, 107
2, 170983, Note_on_c, 0, 81, 100
2, 171125, Note_on_c, 0, 30, 0
2, 171125, Note_on_c, 0, 42, 0
2, 171132, Note_on_c, 0, 30, 102
2, 171137, Note_on_c, 0, 42, 104
2, 171264, Note_on_c, 0, 78, 0
2, 171272, Note_on_c, 0, 78, 93
2, 171317, Note_on_c, 0, 81, 0
2, 171323, Note_on_c, 0, 81, 93
2, 171348, Note_on_c, 0, 85, 0
2, 171356, Note_on_c, 0, 85, 50
2, 171417, Note_on_c, 0, 30, 0
2, 171417, Note_on_c, 0, 81, 0
2, 171417, Note_on_c, 0, 90, 0
2, 171421, Note_on_c, 0, 90, 102
2, 171423, Note_on_c, 0, 30, 99
2, 171424, Note_on_c, 0, 81, 109
2, 171427, Note_on_c, 0, 93, 111
2, 171427, Note_on_c, 0, 86, 95
2, 171463, Note_on_c, 0, 85, 0
2, 171474, Note_on_c, 0, 85, 56
2, 171563, Note_on_c, 0, 90, 0
2, 171563, Note_on_c, 0, 93, 0
2, 171568, Note_on_c, 0, 93, 89
2, 171574, Note_on_c, 0, 90, 78
2, 171701, Note_on_c, 0, 86, 0
2, 171702, Note_on_c, 0, 30, 0
2, 171704, Note_on_c, 0, 73, 0
2, 171704, Note_on_c, 0, 42, 0
2, 171704, Note_on_c, 0, 85, 0
2, 171706, Note_on_c, 0, 38, 98
2, 171707, Control_c, 0, 64, 0
2, 171709, Note_on_c, 0, 78, 0
2, 171709, Note_on_c, 0, 90, 0
2, 171710, Note_on_c, 0, 95, 113
2, 171713, Note_on_c, 0, 86, 103
2, 171713, Note_on_c, 0, 90, 105
2, 171714, Note_on_c, 0, 83, 112
2, 171763, Control_c, 0, 64, 127
2, 171910, Note_on_c, 0, 66, 88
2, 171966, Note_on_c, 0, 50, 95
2, 171975, Note_on_c, 0, 54, 74
2, 171978, Note_on_c, 0, 81, 0
2, 171978, Note_on_c, 0, 93, 0
2, 171979, Note_on_c, 0, 62, 84
2, 171987, Note_on_c, 0, 81, 111
2, 171988, Note_on_c, 0, 93, 113
2, 172008, Note_on_c, 0, 90, 0
2, 172016, Note_on_c, 0, 90, 66
2, 172026, Note_on_c, 0, 92, 55
2, 172124, Note_on_c, 0, 92, 0
2, 172129, Note_on_c, 0, 92, 117
2, 172131, Note_on_c, 0, 80, 117
2, 172132, Note_on_c, 0, 74, 88
2, 172170, Note_on_c, 0, 90, 0
2, 172181, Note_on_c, 0, 90, 43
2, 172196, Note_on_c, 0, 78, 76
2, 172254, Note_on_c, 0, 62, 0
2, 172260, Note_on_c, 0, 62, 91
2, 172277, Note_on_c, 0, 74, 0
2, 172282, Note_on_c, 0, 74, 88
2, 172377, Note_on_c, 0, 38, 0
2, 172385, Note_on_c, 0, 78, 0
2, 172385, Note_on_c, 0, 90, 0
2, 172389, Note_on_c, 0, 38, 87
2, 172392, Note_on_c, 0, 86, 0
2, 172395, Note_on_c, 0, 90, 113
2, 172396, Note_on_c, 0, 78, 106
2, 172401, Note_on_c, 0, 86, 102
2, 172523, Note_on_c, 0, 50, 0
2, 172531, Note_on_c, 0, 78, 0
2, 172531, Note_on_c, 0, 86, 0
2, 172531, Note_on_c, 0, 90, 0
2, 172531, Note_on_c, 0, 50, 90
2, 172535, Note_on_c, 0, 90, 108
2, 172538, Note_on_c, 0, 78, 105
2, 172538, Note_on_c, 0, 81, 0
2, 172542, Note_on_c, 0, 86, 94
2, 172543, Note_on_c, 0, 81, 99
2, 172546, Note_on_c, 0, 93, 0
2, 172555, Note_on_c, 0, 93, 102
2, 172665, Note_on_c, 0, 98, 91
2, 172674, Note_on_c, 0, 76, 100
2, 172676, Note_on_c, 0, 88, 99
2, 172681, Note_on_c, 0, 100, 93
2, 172693, Note_on_c, 0, 102, 98
2, 172807, Note_on_c, 0, 78, 0
2, 172807, Note_on_c, 0, 90, 0
2, 172811, Note_on_c, 0, 98, 0
2, 172811, Note_on_c, 0, 102, 0
2, 172812, Note_on_c, 0, 95, 0
2, 172813, Note_on_c, 0, 33, 100
2, 172813, Note_on_c, 0, 93, 0
2, 172813, Note_on_c, 0, 81, 0
2, 172813, Note_on_c, 0, 50, 0
2, 172814, Note_on_c, 0, 66, 0
2, 172814, Note_on_c, 0, 80, 0
2, 172814, Note_on_c, 0, 38, 0
2, 172814, Note_on_c, 0, 86, 0
2, 172814, Note_on_c, 0, 62, 0
2, 172814, Note_on_c, 0, 92, 0
2, 172814, Note_on_c, 0, 83, 0
2, 172815, Note_on_c, 0, 54, 0
2, 172816, Note_on_c, 0, 76, 0
2, 172817, Note_on_c, 0, 88, 0
2, 172818, Note_on_c, 0, 90, 112
2, 172818, Note_on_c, 0, 78, 108
2, 172821, Control_c, 0, 64, 0
2, 172823, Note_on_c, 0, 74, 0
2, 172824, Note_on_c, 0, 40, 85
2, 172830, Note_on_c, 0, 100, 0
2, 172846, Control_c, 0, 64, 127
2, 172942, Note_on_c, 0, 45, 98
2, 172951, Note_on_c, 0, 76, 106
2, 172952, Note_on_c, 0, 88, 108
2, 173091, Note_on_c, 0, 33, 0
2, 173099, Note_on_c, 0, 45, 0
2, 173100, Note_on_c, 0, 33, 99
2, 173106, Note_on_c, 0, 45, 98
2, 173199, Note_on_c, 0, 45, 0
2, 173209, Note_on_c, 0, 45, 95
2, 173213, Note_on_c, 0, 64, 69
2, 173222, Note_on_c, 0, 64, 0
2, 173262, Note_on_c, 0, 69, 68
2, 173311, Note_on_c, 0, 73, 77
2, 173352, Note_on_c, 0, 33, 0
2, 173352, Note_on_c, 0, 45, 0
2, 173358, Note_on_c, 0, 33, 90
2, 173360, Note_on_c, 0, 45, 93
2, 173383, Note_on_c, 0, 90, 0
2, 173390, Note_on_c, 0, 64, 68
2, 173395, Control_c, 0, 64, 0
2, 173406, Note_on_c, 0, 69, 0
2, 173406, Control_c, 0, 64, 127
2, 173411, Note_on_c, 0, 69, 74
2, 173460, Note_on_c, 0, 76, 0
2, 173470, Note_on_c, 0, 76, 71
2, 173483, Note_on_c, 0, 45, 0
2, 173489, Note_on_c, 0, 45, 86
2, 173528, Note_on_c, 0, 81, 92
2, 173579, Note_on_c, 0, 85, 92
2, 173621, Note_on_c, 0, 33, 0
2, 173627, Note_on_c, 0, 33, 94
2, 173652, Note_on_c, 0, 76, 0
2, 173658, Note_on_c, 0, 76, 91
2, 173660, Note_on_c, 0, 81, 0
2, 173664, Note_on_c, 0, 81, 85
2, 173713, Note_on_c, 0, 88, 0
2, 173724, Note_on_c, 0, 88, 93
2, 173783, Note_on_c, 0, 45, 0
2, 173792, Note_on_c, 0, 45, 79
2, 173796, Note_on_c, 0, 93, 87
2, 173840, Note_on_c, 0, 97, 100
2, 173898, Note_on_c, 0, 40, 0
2, 173905, Note_on_c, 0, 78, 0
2, 173907, Control_c, 0, 64, 0
2, 173914, Note_on_c, 0, 97, 0
2, 173916, Note_on_c, 0, 93, 0
2, 173916, Note_on_c, 0, 88, 0
2, 173917, Note_on_c, 0, 81, 0
2, 173917, Note_on_c, 0, 85, 0
2, 173919, Note_on_c, 0, 76, 0
2, 173919, Note_on_c, 0, 69, 0
2, 173921, Note_on_c, 0, 64, 0
2, 173921, Note_on_c, 0, 73, 0
2, 173921, Note_on_c, 0, 49, 110
2, 173923, Note_on_c, 0, 37, 98
2, 173923, Note_on_c, 0, 61, 104
2, 173924, Note_on_c, 0, 25, 90
2, 173925, Note_on_c, 0, 73, 95
2, 173936, Note_on_c, 0, 45, 0
2, 173944, Control_c, 0, 64, 127
2, 174044, Note_on_c, 0, 25, 0
2, 174059, Note_on_c, 0, 49, 0
2, 174059, Note_on_c, 0, 61, 0
2, 174070, Note_on_c, 0, 49, 88
2, 174070, Note_on_c, 0, 61, 86
2, 174190, Note_on_c, 0, 49, 0
2, 174197, Note_on_c, 0, 37, 0
2, 174200, Note_on_c, 0, 49, 86
2, 174201, Note_on_c, 0, 37, 81
2, 174315, Control_c, 0, 64, 0
2, 174316, Note_on_c, 0, 37, 0
2, 174319, Note_on_c, 0, 73, 0
2, 174320, Note_on_c, 0, 33, 0
2, 174336, Note_on_c, 0, 61, 0
2, 174343, Note_on_c, 0, 49, 0
2, 174360, Note_on_c, 0, 50, 108
2, 174363, Note_on_c, 0, 38, 102
2, 174363, Note_on_c, 0, 62, 102
2, 174367, Note_on_c, 0, 74, 101
2, 174397, Control_c, 0, 64, 127
2, 174610, Control_c, 0, 64, 0
2, 174620, Note_on_c, 0, 62, 0
2, 174627, Note_on_c, 0, 50, 0
2, 174629, Note_on_c, 0, 35, 95
2, 174630, Note_on_c, 0, 47, 99
2, 174632, Note_on_c, 0, 71, 102
2, 174632, Note_on_c, 0, 59, 106
2, 174650, Control_c, 0, 64, 127
2, 174894, Note_on_c, 0, 49, 106
2, 174896, Note_on_c, 0, 37, 94
2, 174897, Note_on_c, 0, 61, 100
2, 174898, Note_on_c, 0, 73, 97
2, 175034, Note_on_c, 0, 38, 0
2, 175040, Control_c, 0, 64, 0
2, 175042, Note_on_c, 0, 74, 0
2, 175043, Note_on_c, 0, 59, 0
2, 175044, Note_on_c, 0, 37, 0
2, 175044, Note_on_c, 0, 35, 0
2, 175044, Note_on_c, 0, 71, 0
2, 175045, Note_on_c, 0, 47, 0
2, 175045, Note_on_c, 0, 49, 0
2, 175045, Note_on_c, 0, 61, 0
2, 175045, Note_on_c, 0, 50, 107
2, 175046, Note_on_c, 0, 38, 104
2, 175050, Note_on_c, 0, 73, 0
2, 175052, Note_on_c, 0, 85, 104
2, 175053, Note_on_c, 0, 81, 96
2, 175054, Note_on_c, 0, 78, 98
2, 175054, Note_on_c, 0, 73, 99
2, 175104, Control_c, 0, 64, 127
2, 175185, Control_c, 0, 64, 0
2, 175196, Note_on_c, 0, 50, 0
2, 175200, Note_on_c, 0, 69, 76
2, 175201, Note_on_c, 0, 74, 73
2, 175202, Note_on_c, 0, 62, 74
2, 175203, Note_on_c, 0, 50, 85
2, 175203, Control_c, 0, 64, 127
2, 175349, Note_on_c, 0, 50, 0
2, 175349, Note_on_c, 0, 62, 0
2, 175349, Note_on_c, 0, 74, 0
2, 175356, Note_on_c, 0, 50, 72
2, 175358, Note_on_c, 0, 74, 69
2, 175359, Note_on_c, 0, 62, 64
2, 175396, Note_on_c, 0, 45, 49
2, 175464, Note_on_c, 0, 38, 0
2, 175464, Note_on_c, 0, 50, 0
2, 175469, Note_on_c, 0, 50, 112
2, 175475, Note_on_c, 0, 38, 110
2, 175480, Note_on_c, 0, 78, 0
2, 175480, Note_on_c, 0, 81, 0
2, 175480, Note_on_c, 0, 85, 0
2, 175485, Note_on_c, 0, 78, 105
2, 175487, Note_on_c, 0, 81, 102
2, 175491, Note_on_c, 0, 85, 102
2, 175491, Note_on_c, 0, 90, 100
2, 175618, Note_on_c, 0, 62, 0
2, 175622, Note_on_c, 0, 62, 69
2, 175628, Note_on_c, 0, 66, 90
2, 175629, Note_on_c, 0, 54, 73
2, 175733, Note_on_c, 0, 54, 0
2, 175733, Note_on_c, 0, 69, 0
2, 175740, Note_on_c, 0, 58, 78
2, 175741, Note_on_c, 0, 66, 0
2, 175744, Note_on_c, 0, 54, 62
2, 175744, Note_on_c, 0, 69, 81
2, 175746, Note_on_c, 0, 66, 65
2, 175768, Note_on_c, 0, 57, 63
2, 175818, Note_on_c, 0, 62, 0
2, 175825, Note_on_c, 0, 62, 77
2, 175872, Note_on_c, 0, 38, 0
2, 175872, Note_on_c, 0, 50, 0
2, 175878, Note_on_c, 0, 50, 111
2, 175882, Note_on_c, 0, 38, 107
2, 175895, Note_on_c, 0, 45, 0
2, 175899, Note_on_c, 0, 73, 0
2, 175902, Note_on_c, 0, 81, 0
2, 175902, Note_on_c, 0, 90, 0
2, 175906, Note_on_c, 0, 74, 0
2, 175910, Note_on_c, 0, 85, 0
2, 175911, Note_on_c, 0, 93, 106
2, 175913, Note_on_c, 0, 81, 106
2, 175913, Note_on_c, 0, 86, 95
2, 175914, Note_on_c, 0, 90, 85
2, 175920, Note_on_c, 0, 85, 98
2, 175948, Note_on_c, 0, 58, 0
2, 176017, Note_on_c, 0, 69, 0
2, 176017, Note_on_c, 0, 81, 0
2, 176022, Note_on_c, 0, 69, 100
2, 176025, Note_on_c, 0, 66, 0
2, 176027, Note_on_c, 0, 81, 94
2, 176028, Note_on_c, 0, 74, 78
2, 176034, Note_on_c, 0, 66, 89
2, 176038, Control_c, 0, 64, 0
2, 176040, Note_on_c, 0, 78, 0
2, 176046, Note_on_c, 0, 78, 56
2, 176079, Control_c, 0, 64, 127
2, 176185, Note_on_c, 0, 93, 0
2, 176185, Note_on_c, 0, 81, 0
2, 176187, Note_on_c, 0, 69, 0
2, 176188, Note_on_c, 0, 90, 0
2, 176188, Note_on_c, 0, 66, 0
2, 176189, Note_on_c, 0, 85, 0
2, 176189, Note_on_c, 0, 74, 0
2, 176189, Note_on_c, 0, 78, 0
2, 176194, Note_on_c, 0, 50, 0
2, 176194, Note_on_c, 0, 54, 0
2, 176194, Note_on_c, 0, 57, 0
2, 176194, Note_on_c, 0, 62, 0
2, 176194, Note_on_c, 0, 86, 0
2, 176194, Control_c, 0, 64, 0
2, 176195, Note_on_c, 0, 52, 118
2, 176198, Note_on_c, 0, 40, 109
2, 176201, Note_on_c, 0, 86, 104
2, 176201, Note_on_c, 0, 83, 105
2, 176204, Note_on_c, 0, 95, 100
2, 176204, Note_on_c, 0, 80, 105
2, 176205, Note_on_c, 0, 44, 85
2, 176205, Note_on_c, 0, 92, 110
2, 176209, Note_on_c, 0, 95, 0
2, 176212, Note_on_c, 0, 42, 81
2, 176217, Note_on_c, 0, 38, 0
2, 176217, Note_on_c, 0, 42, 0
2, 176219, Note_on_c, 0, 90, 67
2, 176279, Control_c, 0, 64, 127
2, 176540, Note_on_c, 0, 44, 0
2, 176540, Control_c, 0, 64, 0
2, 176543, Note_on_c, 0, 52, 0
2, 176544, Note_on_c, 0, 86, 0
2, 176544, Note_on_c, 0, 80, 0
2, 176544, Note_on_c, 0, 83, 0
2, 176546, Note_on_c, 0, 92, 0
2, 176547, Note_on_c, 0, 40, 0
2, 176547, Note_on_c, 0, 90, 0
2, 176627, Note_on_c, 0, 93, 112
2, 176629, Note_on_c, 0, 81, 103
2, 176670, Note_on_c, 0, 81, 0
2, 176739, Control_c, 0, 64, 127
2, 176762, Note_on_c, 0, 93, 0
2, 176767, Note_on_c, 0, 93, 109
2, 176768, Note_on_c, 0, 81, 103
2, 176903, Note_on_c, 0, 92, 107
2, 176903, Note_on_c, 0, 80, 96
2, 177043, Note_on_c, 0, 78, 111
2, 177044, Note_on_c, 0, 102, 103
2, 177049, Note_on_c, 0, 90, 103
2, 177054, Note_on_c, 0, 102, 0
2, 177169, Note_on_c, 0, 80, 0
2, 177169, Note_on_c, 0, 92, 0
2, 177180, Note_on_c, 0, 92, 109
2, 177181, Note_on_c, 0, 80, 103
2, 177192, Note_on_c, 0, 90, 0
2, 177199, Note_on_c, 0, 90, 60
2, 177260, Note_on_c, 0, 81, 0
2, 177260, Note_on_c, 0, 78, 0
2, 177261, Note_on_c, 0, 93, 0
2, 177263, Note_on_c, 0, 90, 0
2, 177265, Control_c, 0, 64, 0
2, 177277, Note_on_c, 0, 80, 0
2, 177300, Note_on_c, 0, 92, 0
2, 177306, Note_on_c, 0, 80, 108
2, 177311, Note_on_c, 0, 92, 116
2, 177314, Note_on_c, 0, 86, 97
2, 177316, Note_on_c, 0, 83, 104
2, 177322, Note_on_c, 0, 30, 91
2, 177331, Control_c, 0, 64, 127
2, 177335, Note_on_c, 0, 42, 70
2, 177473, Note_on_c, 0, 45, 76
2, 177607, Note_on_c, 0, 30, 0
2, 177611, Note_on_c, 0, 30, 90
2, 177673, Control_c, 0, 64, 0
2, 177691, Note_on_c, 0, 92, 0
2, 177692, Note_on_c, 0, 45, 0
2, 177715, Note_on_c, 0, 80, 0
2, 177734, Note_on_c, 0, 90, 97
2, 177738, Note_on_c, 0, 86, 0
2, 177740, Note_on_c, 0, 78, 93
2, 177753, Note_on_c, 0, 83, 0
2, 177756, Note_on_c, 0, 49, 67
2, 177822, Control_c, 0, 64, 127
2, 177884, Note_on_c, 0, 30, 0
2, 177884, Note_on_c, 0, 42, 0
2, 177884, Note_on_c, 0, 78, 0
2, 177884, Note_on_c, 0, 90, 0
2, 177888, Note_on_c, 0, 78, 106
2, 177888, Note_on_c, 0, 85, 104
2, 177890, Note_on_c, 0, 90, 104
2, 177891, Note_on_c, 0, 81, 91
2, 177893, Note_on_c, 0, 30, 104
2, 177894, Note_on_c, 0, 42, 99
2, 178022, Note_on_c, 0, 42, 0
2, 178030, Note_on_c, 0, 49, 0
2, 178031, Note_on_c, 0, 42, 82
2, 178036, Note_on_c, 0, 49, 77
2, 178128, Note_on_c, 0, 57, 69
2, 178176, Note_on_c, 0, 30, 0
2, 178181, Note_on_c, 0, 30, 86
2, 178186, Note_on_c, 0, 61, 71
2, 178191, Note_on_c, 0, 61, 0
2, 178314, Note_on_c, 0, 30, 0
2, 178314, Note_on_c, 0, 42, 0
2, 178314, Note_on_c, 0, 57, 0
2, 178318, Note_on_c, 0, 42, 73
2, 178319, Note_on_c, 0, 30, 70
2, 178320, Note_on_c, 0, 57, 69
2, 178417, Control_c, 0, 64, 0
2, 178437, Note_on_c, 0, 81, 0
2, 178443, Note_on_c, 0, 83, 94
2, 178444, Note_on_c, 0, 30, 0
2, 178447, Note_on_c, 0, 81, 77
2, 178448, Note_on_c, 0, 74, 89
2, 178451, Note_on_c, 0, 71, 88
2, 178452, Note_on_c, 0, 42, 0
2, 178455, Note_on_c, 0, 30, 99
2, 178459, Note_on_c, 0, 42, 94
2, 178460, Note_on_c, 0, 85, 0
2, 178460, Control_c, 0, 64, 127
2, 178467, Note_on_c, 0, 90, 0
2, 178583, Note_on_c, 0, 81, 0
2, 178587, Note_on_c, 0, 81, 90
2, 178591, Note_on_c, 0, 73, 82
2, 178592, Note_on_c, 0, 69, 72
2, 178730, Note_on_c, 0, 68, 82
2, 178736, Note_on_c, 0, 30, 0
2, 178736, Note_on_c, 0, 68, 0
2, 178737, Note_on_c, 0, 61, 80
2, 178742, Note_on_c, 0, 71, 0
2, 178743, Note_on_c, 0, 30, 95
2, 178744, Note_on_c, 0, 61, 0
2, 178759, Note_on_c, 0, 49, 0
2, 178782, Note_on_c, 0, 57, 0
2, 178859, Note_on_c, 0, 69, 0
2, 178864, Note_on_c, 0, 76, 92
2, 178866, Note_on_c, 0, 64, 88
2, 178866, Note_on_c, 0, 68, 80
2, 178867, Note_on_c, 0, 42, 0
2, 178867, Note_on_c, 0, 73, 0
2, 178868, Note_on_c, 0, 69, 74
2, 178871, Note_on_c, 0, 73, 68
2, 178872, Note_on_c, 0, 42, 77
2, 178874, Note_on_c, 0, 83, 0
2, 179005, Note_on_c, 0, 74, 0
2, 179005, Note_on_c, 0, 83, 94
2, 179014, Note_on_c, 0, 71, 89
2, 179016, Note_on_c, 0, 74, 85
2, 179020, Note_on_c, 0, 30, 0
2, 179031, Note_on_c, 0, 30, 98
2, 179151, Note_on_c, 0, 30, 0
2, 179151, Note_on_c, 0, 69, 0
2, 179151, Note_on_c, 0, 81, 0
2, 179155, Note_on_c, 0, 81, 93
2, 179158, Note_on_c, 0, 69, 80
2, 179159, Note_on_c, 0, 73, 0
2, 179161, Note_on_c, 0, 30, 78
2, 179167, Note_on_c, 0, 73, 71
2, 179288, Note_on_c, 0, 80, 90
2, 179289, Note_on_c, 0, 69, 0
2, 179295, Note_on_c, 0, 69, 83
2, 179297, Note_on_c, 0, 30, 0
2, 179301, Note_on_c, 0, 61, 91
2, 179304, Note_on_c, 0, 42, 0
2, 179308, Note_on_c, 0, 30, 102
2, 179311, Note_on_c, 0, 42, 95
2, 179427, Note_on_c, 0, 64, 0
2, 179427, Note_on_c, 0, 76, 0
2, 179432, Note_on_c, 0, 76, 91
2, 179437, Note_on_c, 0, 64, 92
2, 179573, Note_on_c, 0, 78, 0
2, 179579, Note_on_c, 0, 78, 103
2, 179581, Note_on_c, 0, 30, 0
2, 179581, Note_on_c, 0, 42, 0
2, 179581, Note_on_c, 0, 61, 0
2, 179581, Note_on_c, 0, 69, 0
2, 179585, Note_on_c, 0, 66, 100
2, 179589, Note_on_c, 0, 73, 0
2, 179590, Note_on_c, 0, 61, 102
2, 179592, Note_on_c, 0, 30, 106
2, 179592, Note_on_c, 0, 69, 85
2, 179592, Note_on_c, 0, 42, 109
2, 179593, Note_on_c, 0, 73, 92
2, 179712, Note_on_c, 0, 69, 0
2, 179712, Note_on_c, 0, 73, 0
2, 179712, Note_on_c, 0, 81, 0
2, 179716, Note_on_c, 0, 81, 92
2, 179716, Note_on_c, 0, 73, 87
2, 179717, Note_on_c, 0, 69, 75
2, 179850, Note_on_c, 0, 80, 0
2, 179860, Note_on_c, 0, 80, 90
2, 179865, Note_on_c, 0, 30, 0
2, 179865, Note_on_c, 0, 42, 0
2, 179873, Note_on_c, 0, 69, 0
2, 179876, Note_on_c, 0, 30, 105
2, 179876, Note_on_c, 0, 42, 103
2, 179877, Note_on_c, 0, 69, 85
2, 179980, Note_on_c, 0, 73, 0
2, 179980, Note_on_c, 0, 81, 0
2, 179988, Note_on_c, 0, 30, 0
2, 179988, Note_on_c, 0, 42, 0
2, 179988, Note_on_c, 0, 69, 0
2, 179990, Note_on_c, 0, 57, 84
2, 179991, Note_on_c, 0, 81, 101
2, 179992, Note_on_c, 0, 73, 95
2, 179992, Note_on_c, 0, 69, 82
2, 179996, Note_on_c, 0, 42, 78
2, 179998, Note_on_c, 0, 30, 76
2, 179999, Note_on_c, 0, 54, 83
2, 180126, Note_on_c, 0, 83, 0
2, 180134, Note_on_c, 0, 30, 0
2, 180134, Note_on_c, 0, 61, 0
2, 180136, Note_on_c, 0, 83, 104
2, 180141, Note_on_c, 0, 61, 98
2, 180142, Note_on_c, 0, 71, 0
2, 180142, Note_on_c, 0, 73, 0
2, 180145, Note_on_c, 0, 30, 109
2, 180147, Note_on_c, 0, 73, 93
2, 180148, Note_on_c, 0, 71, 96
2, 180272, Note_on_c, 0, 42, 0
2, 180272, Note_on_c, 0, 54, 0
2, 180272, Note_on_c, 0, 69, 0
2, 180272, Note_on_c, 0, 81, 0
2, 180279, Note_on_c, 0, 54, 81
2, 180280, Note_on_c, 0, 42, 78
2, 180280, Note_on_c, 0, 73, 0
2, 180281, Note_on_c, 0, 49, 68
2, 180282, Note_on_c, 0, 81, 95
2, 180283, Note_on_c, 0, 69, 87
2, 180285, Note_on_c, 0, 73, 81
2, 180410, Note_on_c, 0, 30, 0
2, 180418, Note_on_c, 0, 61, 0
2, 180418, Note_on_c, 0, 69, 0
2, 180418, Note_on_c, 0, 76, 0
2, 180421, Note_on_c, 0, 30, 109
2, 180424, Note_on_c, 0, 61, 98
2, 180425, Note_on_c, 0, 69, 90
2, 180429, Note_on_c, 0, 76, 101
2, 180541, Note_on_c, 0, 76, 0
2, 180549, Note_on_c, 0, 64, 0
2, 180551, Note_on_c, 0, 76, 92
2, 180553, Note_on_c, 0, 64, 86
2, 180692, Control_c, 0, 64, 0
2, 180695, Note_on_c, 0, 66, 0
2, 180695, Note_on_c, 0, 69, 0
2, 180695, Note_on_c, 0, 74, 0
2, 180696, Note_on_c, 0, 49, 0
2, 180698, Note_on_c, 0, 61, 0
2, 180698, Note_on_c, 0, 83, 0
2, 180699, Note_on_c, 0, 81, 0
2, 180699, Note_on_c, 0, 57, 0
2, 180700, Note_on_c, 0, 64, 0
2, 180702, Note_on_c, 0, 62, 105
2, 180702, Note_on_c, 0, 38, 94
2, 180702, Note_on_c, 0, 71, 0
2, 180703, Note_on_c, 0, 76, 0
2, 180704, Note_on_c, 0, 69, 102
2, 180705, Note_on_c, 0, 74, 108
2, 180705, Note_on_c, 0, 66, 101
2, 180706, Note_on_c, 0, 26, 85
2, 180710, Note_on_c, 0, 42, 0
2, 180718, Note_on_c, 0, 68, 0
2, 180718, Note_on_c, 0, 73, 0
2, 180733, Note_on_c, 0, 54, 0
2, 180741, Note_on_c, 0, 30, 0
2, 180748, Control_c, 0, 64, 127
2, 180825, Note_on_c, 0, 69, 0
2, 180836, Note_on_c, 0, 81, 98
2, 180836, Note_on_c, 0, 69, 84
2, 180971, Note_on_c, 0, 80, 0
2, 180976, Note_on_c, 0, 80, 99
2, 180986, Note_on_c, 0, 26, 0
2, 180986, Note_on_c, 0, 38, 0
2, 180991, Note_on_c, 0, 26, 100
2, 180997, Note_on_c, 0, 38, 95
2, 181005, Note_on_c, 0, 86, 105
2, 181115, Note_on_c, 0, 76, 98
2, 181115, Note_on_c, 0, 30, 80
2, 181140, Note_on_c, 0, 78, 0
2, 181146, Note_on_c, 0, 78, 71
2, 181251, Note_on_c, 0, 71, 103
2, 181254, Control_c, 0, 64, 0
2, 181255, Note_on_c, 0, 83, 106
2, 181256, Note_on_c, 0, 26, 0
2, 181257, Note_on_c, 0, 62, 0
2, 181257, Note_on_c, 0, 86, 0
2, 181259, Note_on_c, 0, 38, 0
2, 181259, Note_on_c, 0, 81, 0
2, 181260, Note_on_c, 0, 69, 0
2, 181260, Note_on_c, 0, 66, 0
2, 181261, Note_on_c, 0, 78, 0
2, 181263, Note_on_c, 0, 74, 0
2, 181268, Note_on_c, 0, 74, 104
2, 181271, Note_on_c, 0, 30, 0
2, 181271, Note_on_c, 0, 76, 0
2, 181271, Note_on_c, 0, 40, 93
2, 181274, Note_on_c, 0, 28, 104
2, 181281, Note_on_c, 0, 76, 104
2, 181317, Control_c, 0, 64, 127
2, 181393, Note_on_c, 0, 28, 0
2, 181393, Note_on_c, 0, 40, 0
2, 181398, Note_on_c, 0, 81, 101
2, 181400, Note_on_c, 0, 40, 83
2, 181404, Note_on_c, 0, 28, 87
2, 181454, Note_on_c, 0, 82, 68
2, 181532, Note_on_c, 0, 80, 0
2, 181537, Note_on_c, 0, 80, 93
2, 181547, Note_on_c, 0, 28, 0
2, 181547, Note_on_c, 0, 40, 0
2, 181551, Note_on_c, 0, 40, 95
2, 181553, Note_on_c, 0, 88, 102
2, 181553, Note_on_c, 0, 28, 101
2, 181662, Note_on_c, 0, 76, 0
2, 181670, Note_on_c, 0, 28, 0
2, 181670, Note_on_c, 0, 40, 0
2, 181671, Note_on_c, 0, 76, 96
2, 181675, Note_on_c, 0, 40, 94
2, 181675, Note_on_c, 0, 28, 94
2, 181808, Note_on_c, 0, 81, 0
2, 181814, Note_on_c, 0, 81, 109
2, 181822, Note_on_c, 0, 69, 99
2, 181824, Note_on_c, 0, 76, 0
2, 181824, Note_on_c, 0, 72, 100
2, 181826, Note_on_c, 0, 33, 103
2, 181828, Control_c, 0, 64, 0
2, 181828, Note_on_c, 0, 76, 89
2, 181831, Note_on_c, 0, 74, 0
2, 181837, Note_on_c, 0, 28, 0
2, 181839, Note_on_c, 0, 82, 0
2, 181842, Note_on_c, 0, 88, 0
2, 181842, Note_on_c, 0, 71, 0
2, 181843, Note_on_c, 0, 80, 0
2, 181843, Note_on_c, 0, 40, 0
2, 181843, Note_on_c, 0, 83, 0
2, 181893, Control_c, 0, 64, 127
2, 181948, Note_on_c, 0, 84, 98
2, 181949, Note_on_c, 0, 45, 90
2, 181952, Note_on_c, 0, 57, 78
2, 182086, Note_on_c, 0, 83, 103
2, 182092, Note_on_c, 0, 81, 0
2, 182096, Note_on_c, 0, 95, 97
2, 182097, Note_on_c, 0, 81, 88
2, 182100, Note_on_c, 0, 33, 0
2, 182100, Note_on_c, 0, 45, 0
2, 182100, Note_on_c, 0, 95, 0
2, 182104, Note_on_c, 0, 93, 100
2, 182104, Note_on_c, 0, 45, 102
2, 182106, Note_on_c, 0, 33, 103
2, 182223, Note_on_c, 0, 84, 0
2, 182231, Note_on_c, 0, 57, 0
2, 182231, Note_on_c, 0, 69, 0
2, 182231, Note_on_c, 0, 72, 0
2, 182231, Note_on_c, 0, 76, 0
2, 182231, Note_on_c, 0, 84, 99
2, 182235, Note_on_c, 0, 72, 77
2, 182237, Note_on_c, 0, 57, 69
2, 182239, Note_on_c, 0, 76, 76
2, 182239, Note_on_c, 0, 69, 63
2, 182369, Note_on_c, 0, 33, 0
2, 182369, Note_on_c, 0, 45, 0
2, 182369, Note_on_c, 0, 69, 0
2, 182369, Note_on_c, 0, 81, 0
2, 182371, Note_on_c, 0, 86, 101
2, 182373, Note_on_c, 0, 81, 97
2, 182374, Note_on_c, 0, 33, 101
2, 182375, Note_on_c, 0, 45, 99
2, 182375, Note_on_c, 0, 74, 96
2, 182378, Note_on_c, 0, 77, 86
2, 182379, Note_on_c, 0, 69, 95
2, 182384, Note_on_c, 0, 77, 0
2, 182492, Note_on_c, 0, 45, 0
2, 182492, Note_on_c, 0, 72, 0
2, 182492, Note_on_c, 0, 84, 0
2, 182499, Note_on_c, 0, 84, 96
2, 182499, Note_on_c, 0, 57, 0
2, 182499, Note_on_c, 0, 76, 0
2, 182501, Note_on_c, 0, 72, 89
2, 182502, Note_on_c, 0, 45, 95
2, 182504, Note_on_c, 0, 57, 80
2, 182504, Note_on_c, 0, 76, 69
2, 182645, Note_on_c, 0, 33, 0
2, 182645, Note_on_c, 0, 45, 0
2, 182645, Note_on_c, 0, 76, 0
2, 182645, Note_on_c, 0, 81, 0
2, 182652, Note_on_c, 0, 45, 107
2, 182655, Note_on_c, 0, 33, 102
2, 182656, Note_on_c, 0, 81, 100
2, 182657, Note_on_c, 0, 76, 96
2, 182658, Note_on_c, 0, 88, 95
2, 182718, Control_c, 0, 64, 0
2, 182719, Note_on_c, 0, 74, 0
2, 182719, Note_on_c, 0, 33, 0
2, 182720, Note_on_c, 0, 84, 0
2, 182720, Note_on_c, 0, 86, 0
2, 182720, Note_on_c, 0, 83, 0
2, 182720, Note_on_c, 0, 72, 0
2, 182720, Note_on_c, 0, 45, 0
2, 182721, Note_on_c, 0, 57, 0
2, 182721, Note_on_c, 0, 93, 0
2, 182721, Note_on_c, 0, 76, 0
2, 182721, Note_on_c, 0, 88, 0
2, 182722, Note_on_c, 0, 81, 0
2, 182722, Note_on_c, 0, 69, 0
2, 182789, Note_on_c, 0, 43, 101
2, 182792, Note_on_c, 0, 31, 92
2, 182795, Note_on_c, 0, 79, 96
2, 182823, Note_on_c, 0, 43, 0
2, 182825, Note_on_c, 0, 31, 0
2, 182868, Note_on_c, 0, 79, 0
2, 182926, Note_on_c, 0, 86, 105
2, 182935, Note_on_c, 0, 74, 100
2, 182941, Note_on_c, 0, 77, 94
2, 182942, Note_on_c, 0, 45, 101
2, 182942, Note_on_c, 0, 69, 97
2, 182942, Note_on_c, 0, 33, 103
2, 182943, Note_on_c, 0, 81, 98
2, 182991, Control_c, 0, 64, 127
2, 183060, Note_on_c, 0, 45, 0
2, 183061, Note_on_c, 0, 84, 102
2, 183064, Note_on_c, 0, 72, 91
2, 183071, Note_on_c, 0, 57, 77
2, 183071, Note_on_c, 0, 45, 77
2, 183072, Note_on_c, 0, 76, 72
2, 183214, Note_on_c, 0, 76, 0
2, 183214, Note_on_c, 0, 81, 0
2, 183218, Note_on_c, 0, 93, 105
2, 183220, Note_on_c, 0, 76, 90
2, 183220, Note_on_c, 0, 83, 87
2, 183220, Note_on_c, 0, 81, 88
2, 183221, Note_on_c, 0, 33, 0
2, 183221, Note_on_c, 0, 45, 0
2, 183221, Note_on_c, 0, 84, 0
2, 183225, Note_on_c, 0, 88, 91
2, 183228, Note_on_c, 0, 45, 93
2, 183229, Note_on_c, 0, 33, 96
2, 183230, Note_on_c, 0, 84, 84
2, 183252, Note_on_c, 0, 69, 0
2, 183344, Note_on_c, 0, 45, 0
2, 183344, Note_on_c, 0, 84, 0
2, 183351, Note_on_c, 0, 84, 85
2, 183353, Note_on_c, 0, 79, 90
2, 183353, Note_on_c, 0, 45, 85
2, 183354, Note_on_c, 0, 67, 73
2, 183490, Note_on_c, 0, 33, 0
2, 183490, Note_on_c, 0, 45, 0
2, 183490, Note_on_c, 0, 74, 0
2, 183490, Note_on_c, 0, 81, 0
2, 183490, Note_on_c, 0, 86, 0
2, 183494, Note_on_c, 0, 86, 98
2, 183495, Note_on_c, 0, 45, 98
2, 183496, Note_on_c, 0, 81, 95
2, 183496, Note_on_c, 0, 74, 96
2, 183496, Note_on_c, 0, 33, 99
2, 183621, Note_on_c, 0, 57, 0
2, 183621, Note_on_c, 0, 72, 0
2, 183621, Note_on_c, 0, 84, 0
2, 183628, Note_on_c, 0, 45, 0
2, 183628, Note_on_c, 0, 76, 0
2, 183630, Note_on_c, 0, 84, 99
2, 183631, Note_on_c, 0, 57, 79
2, 183632, Note_on_c, 0, 72, 85
2, 183632, Note_on_c, 0, 45, 88
2, 183637, Note_on_c, 0, 76, 76
2, 183774, Note_on_c, 0, 33, 0
2, 183774, Note_on_c, 0, 45, 0
2, 183774, Note_on_c, 0, 77, 0
2, 183774, Note_on_c, 0, 81, 0
2, 183774, Note_on_c, 0, 86, 0
2, 183779, Note_on_c, 0, 86, 90
2, 183781, Note_on_c, 0, 81, 99
2, 183782, Note_on_c, 0, 76, 0
2, 183783, Note_on_c, 0, 45, 107
2, 183783, Note_on_c, 0, 77, 94
2, 183785, Note_on_c, 0, 33, 101
2, 183791, Note_on_c, 0, 76, 91
2, 183843, Control_c, 0, 64, 0
2, 183848, Note_on_c, 0, 81, 0
2, 183848, Note_on_c, 0, 77, 0
2, 183848, Note_on_c, 0, 93, 0
2, 183848, Note_on_c, 0, 86, 0
2, 183849, Note_on_c, 0, 76, 0
2, 183849, Note_on_c, 0, 72, 0
2, 183850, Note_on_c, 0, 88, 0
2, 183850, Note_on_c, 0, 79, 0
2, 183866, Note_on_c, 0, 74, 0
2, 183874, Note_on_c, 0, 57, 0
2, 183874, Note_on_c, 0, 83, 0
2, 183882, Note_on_c, 0, 67, 0
2, 183882, Note_on_c, 0, 84, 0
2, 183905, Note_on_c, 0, 45, 0
2, 183909, Note_on_c, 0, 43, 99
2, 183915, Note_on_c, 0, 79, 97
2, 183915, Note_on_c, 0, 31, 97
2, 183915, Note_on_c, 0, 84, 88
2, 183916, Note_on_c, 0, 55, 92
2, 183917, Note_on_c, 0, 72, 87
2, 183920, Note_on_c, 0, 55, 0
2, 183936, Note_on_c, 0, 33, 0
2, 183950, Note_on_c, 0, 43, 0
2, 183954, Note_on_c, 0, 79, 0
2, 183955, Note_on_c, 0, 31, 0
2, 183974, Note_on_c, 0, 72, 0
2, 183974, Note_on_c, 0, 84, 0
2, 184055, Note_on_c, 0, 81, 104
2, 184061, Note_on_c, 0, 76, 90
2, 184062, Note_on_c, 0, 69, 87
2, 184063, Note_on_c, 0, 45, 99
2, 184063, Note_on_c, 0, 33, 105
2, 184066, Note_on_c, 0, 72, 90
2, 184097, Control_c, 0, 64, 127
2, 184189, Note_on_c, 0, 45, 0
2, 184189, Note_on_c, 0, 72, 0
2, 184193, Note_on_c, 0, 84, 97
2, 184195, Note_on_c, 0, 72, 81
2, 184199, Note_on_c, 0, 57, 74
2, 184200, Note_on_c, 0, 45, 79
2, 184266, Note_on_c, 0, 69, 0
2, 184335, Note_on_c, 0, 33, 0
2, 184335, Note_on_c, 0, 45, 0
2, 184335, Note_on_c, 0, 76, 0
2, 184340, Note_on_c, 0, 45, 98
2, 184340, Note_on_c, 0, 93, 105
2, 184342, Note_on_c, 0, 76, 89
2, 184345, Note_on_c, 0, 33, 102
2, 184346, Note_on_c, 0, 88, 93
2, 184458, Note_on_c, 0, 84, 0
2, 184465, Note_on_c, 0, 45, 0
2, 184465, Note_on_c, 0, 57, 0
2, 184465, Note_on_c, 0, 72, 0
2, 184465, Note_on_c, 0, 76, 0
2, 184469, Note_on_c, 0, 84, 98
2, 184472, Note_on_c, 0, 72, 84
2, 184474, Note_on_c, 0, 57, 86
2, 184476, Note_on_c, 0, 76, 80
2, 184477, Note_on_c, 0, 45, 90
2, 184609, Note_on_c, 0, 86, 103
2, 184611, Note_on_c, 0, 33, 0
2, 184611, Note_on_c, 0, 45, 0
2, 184615, Note_on_c, 0, 74, 90
2, 184619, Note_on_c, 0, 76, 0
2, 184620, Note_on_c, 0, 77, 85
2, 184621, Note_on_c, 0, 33, 100
2, 184622, Note_on_c, 0, 45, 91
2, 184623, Note_on_c, 0, 76, 84
2, 184626, Note_on_c, 0, 81, 0
2, 184627, Note_on_c, 0, 77, 0
2, 184742, Note_on_c, 0, 45, 0
2, 184742, Note_on_c, 0, 57, 0
2, 184742, Note_on_c, 0, 72, 0
2, 184742, Note_on_c, 0, 84, 0
2, 184750, Note_on_c, 0, 76, 0
2, 184750, Note_on_c, 0, 84, 100
2, 184752, Note_on_c, 0, 57, 91
2, 184752, Note_on_c, 0, 72, 94
2, 184753, Note_on_c, 0, 45, 92
2, 184754, Note_on_c, 0, 76, 88
2, 184880, Note_on_c, 0, 74, 0
2, 184880, Note_on_c, 0, 86, 0
2, 184888, Note_on_c, 0, 33, 0
2, 184888, Note_on_c, 0, 45, 0
2, 184888, Note_on_c, 0, 93, 0
2, 184890, Note_on_c, 0, 74, 95
2, 184890, Note_on_c, 0, 86, 90
2, 184892, Note_on_c, 0, 83, 92
2, 184893, Note_on_c, 0, 45, 102
2, 184893, Note_on_c, 0, 33, 102
2, 184896, Note_on_c, 0, 88, 0
2, 184896, Note_on_c, 0, 93, 101
2, 184902, Note_on_c, 0, 88, 86
2, 184995, Note_on_c, 0, 84, 0
2, 185004, Note_on_c, 0, 84, 90
2, 185011, Note_on_c, 0, 45, 0
2, 185011, Note_on_c, 0, 57, 0
2, 185019, Note_on_c, 0, 57, 88
2, 185021, Note_on_c, 0, 45, 94
2, 185025, Note_on_c, 0, 79, 89
2, 185073, Note_on_c, 0, 74, 0
2, 185074, Note_on_c, 0, 57, 0
2, 185075, Note_on_c, 0, 86, 0
2, 185075, Note_on_c, 0, 33, 0
2, 185076, Note_on_c, 0, 83, 0
2, 185076, Note_on_c, 0, 88, 0
2, 185076, Note_on_c, 0, 76, 0
2, 185076, Note_on_c, 0, 84, 0
2, 185077, Note_on_c, 0, 79, 0
2, 185078, Control_c, 0, 64, 0
2, 185088, Note_on_c, 0, 72, 0
2, 185095, Note_on_c, 0, 93, 0
2, 185141, Note_on_c, 0, 45, 0
2, 185168, Note_on_c, 0, 86, 103
2, 185171, Note_on_c, 0, 34, 110
2, 185174, Note_on_c, 0, 82, 102
2, 185175, Note_on_c, 0, 74, 96
2, 185203, Control_c, 0, 64, 127
2, 185221, Note_on_c, 0, 80, 34
2, 185299, Note_on_c, 0, 58, 88
2, 185302, Note_on_c, 0, 84, 80
2, 185304, Note_on_c, 0, 72, 79
2, 185448, Note_on_c, 0, 34, 0
2, 185448, Note_on_c, 0, 82, 0
2, 185451, Note_on_c, 0, 79, 94
2, 185452, Note_on_c, 0, 82, 82
2, 185453, Note_on_c, 0, 34, 102
2, 185454, Note_on_c, 0, 91, 89
2, 185455, Note_on_c, 0, 94, 96
2, 185553, Note_on_c, 0, 46, 88
2, 185571, Note_on_c, 0, 79, 0
2, 185582, Note_on_c, 0, 79, 92
2, 185594, Note_on_c, 0, 34, 0
2, 185604, Note_on_c, 0, 34, 82
2, 185605, Note_on_c, 0, 62, 62
2, 185710, Note_on_c, 0, 86, 0
2, 185711, Note_on_c, 0, 46, 0
2, 185712, Note_on_c, 0, 82, 0
2, 185713, Control_c, 0, 64, 0
2, 185713, Note_on_c, 0, 62, 0
2, 185716, Note_on_c, 0, 86, 110
2, 185717, Note_on_c, 0, 74, 0
2, 185717, Note_on_c, 0, 94, 0
2, 185721, Note_on_c, 0, 76, 100
2, 185723, Note_on_c, 0, 74, 105
2, 185725, Note_on_c, 0, 80, 0
2, 185726, Note_on_c, 0, 40, 102
2, 185727, Note_on_c, 0, 28, 107
2, 185728, Note_on_c, 0, 68, 107
2, 185731, Note_on_c, 0, 80, 106
2, 185733, Note_on_c, 0, 58, 0
2, 185733, Note_on_c, 0, 91, 0
2, 185740, Control_c, 0, 64, 127
2, 185848, Note_on_c, 0, 40, 0
2, 185848, Note_on_c, 0, 72, 0
2, 185848, Note_on_c, 0, 84, 0
2, 185852, Note_on_c, 0, 84, 85
2, 185856, Note_on_c, 0, 40, 81
2, 185858, Note_on_c, 0, 72, 77
2, 185940, Note_on_c, 0, 76, 0
2, 185943, Note_on_c, 0, 64, 83
2, 185947, Note_on_c, 0, 76, 69
2, 185978, Note_on_c, 0, 28, 0
2, 185986, Note_on_c, 0, 40, 0
2, 185989, Note_on_c, 0, 28, 97
2, 185990, Note_on_c, 0, 40, 90
2, 185990, Note_on_c, 0, 83, 93
2, 185994, Note_on_c, 0, 79, 0
2, 186005, Note_on_c, 0, 71, 88
2, 186009, Note_on_c, 0, 80, 0
2, 186020, Note_on_c, 0, 80, 99
2, 186078, Note_on_c, 0, 28, 0
2, 186078, Note_on_c, 0, 40, 0
2, 186084, Note_on_c, 0, 40, 81
2, 186089, Note_on_c, 0, 28, 87
2, 186170, Note_on_c, 0, 28, 0
2, 186178, Note_on_c, 0, 40, 0
2, 186179, Note_on_c, 0, 28, 84
2, 186184, Note_on_c, 0, 40, 77
2, 186204, Control_c, 0, 64, 0
2, 186213, Note_on_c, 0, 28, 0
2, 186213, Note_on_c, 0, 74, 0
2, 186214, Note_on_c, 0, 86, 0
2, 186215, Note_on_c, 0, 71, 0
2, 186216, Note_on_c, 0, 83, 0
2, 186217, Note_on_c, 0, 84, 0
2, 186217, Note_on_c, 0, 80, 0
2, 186218, Note_on_c, 0, 76, 0
2, 186219, Note_on_c, 0, 64, 0
2, 186224, Note_on_c, 0, 34, 0
2, 186224, Note_on_c, 0, 72, 0
2, 186232, Note_on_c, 0, 68, 0
2, 186266, Note_on_c, 0, 81, 109
2, 186270, Note_on_c, 0, 76, 99
2, 186271, Note_on_c, 0, 69, 105
2, 186273, Note_on_c, 0, 72, 96
2, 186278, Note_on_c, 0, 45, 104
2, 186278, Note_on_c, 0, 33, 104
2, 186286, Control_c, 0, 64, 127
2, 186393, Note_on_c, 0, 81, 0
2, 186401, Note_on_c, 0, 69, 0
2, 186401, Note_on_c, 0, 76, 0
2, 186403, Note_on_c, 0, 81, 106
2, 186405, Note_on_c, 0, 76, 95
2, 186406, Note_on_c, 0, 69, 95
2, 186531, Note_on_c, 0, 33, 0
2, 186531, Note_on_c, 0, 81, 0
2, 186536, Note_on_c, 0, 33, 81
2, 186536, Note_on_c, 0, 81, 93
2, 186539, Note_on_c, 0, 40, 0
2, 186539, Note_on_c, 0, 76, 0
2, 186543, Note_on_c, 0, 76, 81
2, 186544, Note_on_c, 0, 40, 67
2, 186591, Control_c, 0, 64, 0
2, 186597, Note_on_c, 0, 81, 0
2, 186597, Note_on_c, 0, 33, 0
2, 186597, Note_on_c, 0, 72, 0
2, 186598, Note_on_c, 0, 45, 0
2, 186598, Note_on_c, 0, 69, 0
2, 186599, Note_on_c, 0, 76, 0
2, 186602, Note_on_c, 0, 40, 0
2, 186681, Note_on_c, 0, 70, 105
2, 186681, Note_on_c, 0, 77, 98
2, 186681, Note_on_c, 0, 89, 92
2, 186682, Note_on_c, 0, 46, 105
2, 186683, Note_on_c, 0, 82, 103
2, 186683, Note_on_c, 0, 34, 102
2, 186700, Control_c, 0, 64, 127
2, 186746, Note_on_c, 0, 89, 0
2, 186838, Control_c, 0, 64, 0
2, 186841, Note_on_c, 0, 77, 0
2, 186841, Note_on_c, 0, 46, 0
2, 186841, Note_on_c, 0, 34, 0
2, 186842, Note_on_c, 0, 82, 0
2, 186842, Note_on_c, 0, 70, 0
2, 186957, Note_on_c, 0, 79, 107
2, 186958, Note_on_c, 0, 91, 101
2, 186959, Note_on_c, 0, 74, 102
2, 186962, Note_on_c, 0, 43, 93
2, 186963, Note_on_c, 0, 31, 86
2, 186964, Note_on_c, 0, 38, 96
2, 186972, Note_on_c, 0, 86, 88
2, 186977, Note_on_c, 0, 91, 0
2, 186977, Control_c, 0, 64, 127
2, 187132, Control_c, 0, 64, 0
2, 187134, Note_on_c, 0, 74, 0
2, 187135, Note_on_c, 0, 43, 0
2, 187135, Note_on_c, 0, 38, 0
2, 187136, Note_on_c, 0, 79, 0
2, 187146, Note_on_c, 0, 86, 0
2, 187153, Note_on_c, 0, 31, 0
2, 187250, Note_on_c, 0, 45, 95
2, 187253, Note_on_c, 0, 33, 97
2, 187256, Note_on_c, 0, 81, 108
2, 187257, Note_on_c, 0, 69, 97
2, 187257, Note_on_c, 0, 40, 88
2, 187276, Control_c, 0, 64, 127
2, 187496, Note_on_c, 0, 33, 0
2, 187497, Note_on_c, 0, 45, 0
2, 187499, Control_c, 0, 64, 0
2, 187500, Note_on_c, 0, 81, 0
2, 187500, Note_on_c, 0, 69, 0
2, 187502, Note_on_c, 0, 40, 0
2, 187537, Note_on_c, 0, 76, 101
2, 187539, Note_on_c, 0, 64, 94
2, 187541, Note_on_c, 0, 40, 94
2, 187541, Note_on_c, 0, 28, 97
2, 187560, Control_c, 0, 64, 127
2, 187742, Control_c, 0, 64, 0
2, 187748, Note_on_c, 0, 76, 0
2, 187749, Note_on_c, 0, 40, 0
2, 187752, Note_on_c, 0, 64, 0
2, 187806, Note_on_c, 0, 28, 0
2, 187810, Note_on_c, 0, 76, 97
2, 187812, Note_on_c, 0, 64, 90
2, 187816, Note_on_c, 0, 40, 85
2, 187817, Note_on_c, 0, 28, 91
2, 187829, Control_c, 0, 64, 127
2, 187859, Note_on_c, 0, 76, 0
2, 187859, Note_on_c, 0, 64, 0
2, 187883, Control_c, 0, 64, 0
2, 187906, Note_on_c, 0, 40, 0
2, 187929, Note_on_c, 0, 28, 0
2, 187949, Note_on_c, 0, 77, 101
2, 187950, Note_on_c, 0, 65, 93
2, 187953, Note_on_c, 0, 72, 86
2, 187954, Note_on_c, 0, 41, 98
2, 187956, Note_on_c, 0, 29, 97
2, 187956, Note_on_c, 0, 36, 79
2, 187968, Control_c, 0, 64, 127
2, 188179, Control_c, 0, 64, 0
2, 188180, Note_on_c, 0, 65, 0
2, 188180, Note_on_c, 0, 36, 0
2, 188181, Note_on_c, 0, 29, 0
2, 188182, Note_on_c, 0, 41, 0
2, 188183, Note_on_c, 0, 77, 0
2, 188198, Note_on_c, 0, 72, 0
2, 188235, Note_on_c, 0, 79, 106
2, 188240, Note_on_c, 0, 74, 101
2, 188240, Note_on_c, 0, 67, 96
2, 188241, Note_on_c, 0, 38, 96
2, 188242, Note_on_c, 0, 43, 94
2, 188242, Note_on_c, 0, 31, 83
2, 188267, Control_c, 0, 64, 127
2, 188480, Control_c, 0, 64, 0
2, 188482, Note_on_c, 0, 31, 0
2, 188483, Note_on_c, 0, 38, 0
2, 188484, Note_on_c, 0, 74, 0
2, 188485, Note_on_c, 0, 43, 0
2, 188485, Note_on_c, 0, 79, 0
2, 188490, Note_on_c, 0, 67, 0
2, 188518, Note_on_c, 0, 81, 111
2, 188523, Note_on_c, 0, 45, 107
2, 188523, Note_on_c, 0, 76, 108
2, 188523, Note_on_c, 0, 69, 109
2, 188524, Note_on_c, 0, 33, 101
2, 188551, Control_c, 0, 64, 127
2, 188659, Note_on_c, 0, 45, 0
2, 188659, Note_on_c, 0, 76, 0
2, 188666, Note_on_c, 0, 33, 0
2, 188666, Note_on_c, 0, 69, 0
2, 188666, Note_on_c, 0, 81, 0
2, 188668, Note_on_c, 0, 45, 89
2, 188670, Note_on_c, 0, 76, 94
2, 188670, Note_on_c, 0, 40, 85
2, 188671, Note_on_c, 0, 33, 77
2, 188671, Note_on_c, 0, 69, 84
2, 188671, Note_on_c, 0, 81, 87
2, 188782, Note_on_c, 0, 81, 0
2, 188789, Note_on_c, 0, 33, 0
2, 188789, Note_on_c, 0, 45, 0
2, 188789, Note_on_c, 0, 69, 0
2, 188789, Note_on_c, 0, 76, 0
2, 188792, Note_on_c, 0, 81, 101
2, 188793, Note_on_c, 0, 33, 91
2, 188794, Note_on_c, 0, 45, 90
2, 188796, Note_on_c, 0, 69, 92
2, 188799, Note_on_c, 0, 76, 95
2, 188925, Control_c, 0, 64, 0
2, 188928, Note_on_c, 0, 40, 0
2, 188928, Note_on_c, 0, 69, 0
2, 188930, Note_on_c, 0, 76, 0
2, 188930, Note_on_c, 0, 45, 0
2, 188935, Note_on_c, 0, 77, 106
2, 188943, Note_on_c, 0, 81, 0
2, 188952, Note_on_c, 0, 70, 112
2, 188953, Note_on_c, 0, 82, 108
2, 188953, Note_on_c, 0, 58, 111
2, 188955, Note_on_c, 0, 46, 103
2, 188966, Control_c, 0, 64, 127
2, 189173, Note_on_c, 0, 33, 0
2, 189183, Control_c, 0, 64, 0
2, 189184, Note_on_c, 0, 82, 0
2, 189184, Note_on_c, 0, 77, 0
2, 189184, Note_on_c, 0, 46, 0
2, 189185, Note_on_c, 0, 58, 0
2, 189185, Note_on_c, 0, 70, 0
2, 189223, Note_on_c, 0, 74, 111
2, 189224, Note_on_c, 0, 79, 112
2, 189224, Note_on_c, 0, 55, 108
2, 189225, Note_on_c, 0, 86, 101
2, 189227, Note_on_c, 0, 67, 106
2, 189230, Note_on_c, 0, 50, 95
2, 189230, Note_on_c, 0, 43, 104
2, 189235, Note_on_c, 0, 86, 0
2, 189250, Control_c, 0, 64, 127
2, 189462, Control_c, 0, 64, 0
2, 189500, Note_on_c, 0, 79, 0
2, 189504, Note_on_c, 0, 50, 0
2, 189511, Note_on_c, 0, 67, 0
2, 189516, Note_on_c, 0, 81, 108
2, 189519, Note_on_c, 0, 55, 0
2, 189519, Note_on_c, 0, 76, 110
2, 189523, Note_on_c, 0, 88, 97
2, 189527, Note_on_c, 0, 74, 0
2, 189528, Note_on_c, 0, 24, 110
2, 189529, Note_on_c, 0, 33, 112
2, 189529, Note_on_c, 0, 36, 107
2, 189534, Note_on_c, 0, 24, 0
2, 189550, Control_c, 0, 64, 127
2, 190080, Note_on_c, 0, 88, 0
2, 190417, Note_on_c, 0, 43, 0
2, 190422, Note_on_c, 0, 31, 84
2, 190422, Note_on_c, 0, 55, 78
2, 190422, Note_on_c, 0, 43, 85
2, 190433, Note_on_c, 0, 55, 0
2, 190755, Note_on_c, 0, 43, 0
2, 190761, Note_on_c, 0, 43, 76
2, 191187, Note_on_c, 0, 36, 0
2, 191193, Control_c, 0, 64, 0
2, 191324, Control_c, 0, 64, 127
2, 193920, Note_on_c, 0, 31, 0
2, 193920, Note_on_c, 0, 33, 0
2, 193920, Note_on_c, 0, 43, 0
2, 193920, Note_on_c, 0, 76, 0
2, 193920, Note_on_c, 0, 81, 0
2, 194511, Control_c, 0, 64, 0
2, 194512, End_track
0, 0, End_of_file
