0, 0, Header, 1, 2, 384
1, 0, Start_track
1, 0, Tempo, 500000
1, 0, Time_signature, 4, 2, 24, 8
1, 1, End_track
2, 0, Start_track
2, 192, Control_c, 0, 64, 127
2, 486, Note_on_c, 0, 92, 92
2, 526, Note_on_c, 0, 87, 81
2, 555, Note_on_c, 0, 84, 80
2, 600, Note_on_c, 0, 80, 67
2, 614, Note_on_c, 0, 75, 72
2, 642, Note_on_c, 0, 72, 71
2, 673, Note_on_c, 0, 63, 67
2, 677, Note_on_c, 0, 68, 78
2, 777, Note_on_c, 0, 60, 65
2, 779, Note_on_c, 0, 62, 59
2, 821, Note_on_c, 0, 56, 68
2, 855, Note_on_c, 0, 51, 77
2, 909, Note_on_c, 0, 48, 66
2, 1008, Note_on_c, 0, 44, 75
2, 1024, Control_c, 0, 64, 0
2, 1028, Note_on_c, 0, 60, 0
2, 1029, Note_on_c, 0, 87, 0
2, 1029, Note_on_c, 0, 84, 0
2, 1029, Note_on_c, 0, 62, 0
2, 1029, Note_on_c, 0, 48, 0
2, 1030, Note_on_c, 0, 56, 0
2, 1030, Note_on_c, 0, 63, 0
2, 1030, Note_on_c, 0, 75, 0
2, 1031, Note_on_c, 0, 80, 0
2, 1031, Note_on_c, 0, 72, 0
2, 1032, Note_on_c, 0, 68, 0
2, 1032, Note_on_c, 0, 51, 0
2, 1033, Note_on_c, 0, 92, 0
2, 1051, Note_on_c, 0, 44, 0
2, 1186, Note_on_c, 0, 72, 86
2, 1241, Note_on_c, 0, 73, 85
2, 1291, Note_on_c, 0, 75, 103
2, 1297, Note_on_c, 0, 72, 0
2, 1318, Note_on_c, 0, 67, 77
2, 1322, Note_on_c, 0, 49, 86
2, 1327, Note_on_c, 0, 37, 82
2, 1382, Control_c, 0, 64, 127
2, 1570, Note_on_c, 0, 53, 70
2, 1714, Note_on_c, 0, 56, 76
2, 1716, Note_on_c, 0, 68, 87
2, 1843, Note_on_c, 0, 53, 0
2, 1854, Note_on_c, 0, 53, 72
2, 1976, Note_on_c, 0, 61, 73
2, 2088, Note_on_c, 0, 53, 0
2, 2094, Note_on_c, 0, 53, 68
2, 2224, Control_c, 0, 64, 0
2, 2231, Note_on_c, 0, 56, 0
2, 2232, Note_on_c, 0, 67, 0
2, 2232, Note_on_c, 0, 49, 0
2, 2233, Note_on_c, 0, 68, 0
2, 2233, Note_on_c, 0, 61, 0
2, 2236, Note_on_c, 0, 53, 0
2, 2240, Note_on_c, 0, 63, 86
2, 2241, Note_on_c, 0, 75, 0
2, 2242, Note_on_c, 0, 37, 0
2, 2247, Note_on_c, 0, 51, 80
2, 2251, Note_on_c, 0, 39, 74
2, 2257, Note_on_c, 0, 73, 0
2, 2342, Control_c, 0, 64, 127
2, 2493, Note_on_c, 0, 67, 70
2, 2495, Note_on_c, 0, 55, 74
2, 2635, Note_on_c, 0, 58, 75
2, 2741, Note_on_c, 0, 55, 0
2, 2752, Note_on_c, 0, 55, 77
2, 2872, Note_on_c, 0, 63, 0
2, 2883, Note_on_c, 0, 63, 75
2, 3002, Note_on_c, 0, 55, 0
2, 3012, Note_on_c, 0, 55, 70
2, 3125, Note_on_c, 0, 58, 0
2, 3130, Note_on_c, 0, 72, 96
2, 3137, Note_on_c, 0, 58, 81
2, 3160, Note_on_c, 0, 70, 60
2, 3171, Note_on_c, 0, 70, 0
2, 3225, Note_on_c, 0, 55, 0
2, 3231, Note_on_c, 0, 55, 76
2, 3253, Note_on_c, 0, 73, 97
2, 3382, Note_on_c, 0, 75, 102
2, 3389, Control_c, 0, 64, 0
2, 3390, Note_on_c, 0, 63, 0
2, 3391, Note_on_c, 0, 51, 0
2, 3391, Note_on_c, 0, 72, 0
2, 3391, Note_on_c, 0, 55, 0
2, 3397, Note_on_c, 0, 73, 0
2, 3402, Note_on_c, 0, 39, 0
2, 3402, Note_on_c, 0, 67, 0
2, 3406, Note_on_c, 0, 48, 82
2, 3406, Note_on_c, 0, 36, 80
2, 3407, Note_on_c, 0, 67, 82
2, 3409, Note_on_c, 0, 58, 0
2, 3517, Control_c, 0, 64, 127
2, 3653, Note_on_c, 0, 51, 77
2, 3782, Note_on_c, 0, 56, 77
2, 3785, Note_on_c, 0, 68, 85
2, 3909, Note_on_c, 0, 51, 0
2, 3919, Note_on_c, 0, 51, 76
2, 4037, Note_on_c, 0, 60, 74
2, 4154, Note_on_c, 0, 51, 0
2, 4159, Note_on_c, 0, 51, 82
2, 4296, Control_c, 0, 64, 0
2, 4296, Note_on_c, 0, 51, 0
2, 4296, Note_on_c, 0, 56, 0
2, 4296, Note_on_c, 0, 67, 0
2, 4297, Note_on_c, 0, 60, 0
2, 4297, Note_on_c, 0, 48, 0
2, 4297, Note_on_c, 0, 68, 0
2, 4304, Note_on_c, 0, 63, 82
2, 4308, Note_on_c, 0, 36, 0
2, 4310, Note_on_c, 0, 49, 76
2, 4314, Note_on_c, 0, 37, 74
2, 4374, Note_on_c, 0, 37, 0
2, 4431, Control_c, 0, 64, 127
2, 4557, Note_on_c, 0, 53, 69
2, 4695, Note_on_c, 0, 56, 69
2, 4792, Note_on_c, 0, 53, 0
2, 4797, Note_on_c, 0, 53, 71
2, 4936, Note_on_c, 0, 61, 82
2, 5063, Note_on_c, 0, 72, 93
2, 5068, Note_on_c, 0, 53, 0
2, 5073, Note_on_c, 0, 53, 83
2, 5184, Note_on_c, 0, 56, 0
2, 5190, Note_on_c, 0, 73, 96
2, 5193, Note_on_c, 0, 56, 84
2, 5197, Note_on_c, 0, 61, 0
2, 5260, Note_on_c, 0, 53, 0
2, 5265, Note_on_c, 0, 53, 76
2, 5299, Note_on_c, 0, 75, 0
2, 5310, Note_on_c, 0, 75, 96
2, 5416, Control_c, 0, 64, 0
2, 5423, Note_on_c, 0, 49, 0
2, 5423, Note_on_c, 0, 72, 0
2, 5423, Note_on_c, 0, 73, 0
2, 5424, Note_on_c, 0, 63, 0
2, 5425, Note_on_c, 0, 53, 0
2, 5425, Note_on_c, 0, 56, 0
2, 5426, Note_on_c, 0, 75, 0
2, 5439, Note_on_c, 0, 77, 102
2, 5458, Note_on_c, 0, 67, 83
2, 5458, Note_on_c, 0, 46, 80
2, 5459, Note_on_c, 0, 34, 79
2, 5529, Control_c, 0, 64, 127
2, 5698, Note_on_c, 0, 53, 64
2, 5847, Note_on_c, 0, 58, 76
2, 5848, Note_on_c, 0, 68, 84
2, 5967, Note_on_c, 0, 53, 0
2, 5978, Note_on_c, 0, 53, 70
2, 6109, Note_on_c, 0, 61, 77
2, 6213, Note_on_c, 0, 53, 0
2, 6223, Note_on_c, 0, 53, 63
2, 6359, Control_c, 0, 64, 0
2, 6370, Note_on_c, 0, 67, 0
2, 6370, Note_on_c, 0, 53, 0
2, 6370, Note_on_c, 0, 68, 0
2, 6370, Note_on_c, 0, 61, 0
2, 6371, Note_on_c, 0, 58, 0
2, 6372, Note_on_c, 0, 46, 0
2, 6373, Note_on_c, 0, 77, 0
2, 6376, Note_on_c, 0, 75, 96
2, 6376, Note_on_c, 0, 34, 0
2, 6385, Note_on_c, 0, 63, 79
2, 6391, Note_on_c, 0, 48, 74
2, 6489, Control_c, 0, 64, 127
2, 6632, Note_on_c, 0, 51, 75
2, 6757, Note_on_c, 0, 56, 67
2, 6873, Note_on_c, 0, 51, 0
2, 6877, Note_on_c, 0, 51, 70
2, 6993, Note_on_c, 0, 60, 70
2, 7127, Note_on_c, 0, 51, 0
2, 7133, Note_on_c, 0, 73, 95
2, 7137, Note_on_c, 0, 51, 75
2, 7249, Note_on_c, 0, 56, 0
2, 7257, Note_on_c, 0, 56, 69
2, 7262, Note_on_c, 0, 72, 83
2, 7383, Note_on_c, 0, 68, 90
2, 7506, Control_c, 0, 64, 0
2, 7511, Note_on_c, 0, 63, 0
2, 7516, Note_on_c, 0, 72, 0
2, 7517, Note_on_c, 0, 48, 0
2, 7517, Note_on_c, 0, 75, 0
2, 7517, Note_on_c, 0, 60, 0
2, 7518, Note_on_c, 0, 63, 86
2, 7520, Note_on_c, 0, 73, 0
2, 7530, Note_on_c, 0, 37, 71
2, 7531, Note_on_c, 0, 49, 70
2, 7534, Note_on_c, 0, 51, 0
2, 7541, Note_on_c, 0, 56, 0
2, 7633, Control_c, 0, 64, 127
2, 7772, Note_on_c, 0, 49, 0
2, 7783, Note_on_c, 0, 49, 66
2, 7911, Note_on_c, 0, 51, 75
2, 7911, Note_on_c, 0, 61, 85
2, 8028, Note_on_c, 0, 53, 80
2, 8162, Note_on_c, 0, 55, 87
2, 8167, Note_on_c, 0, 67, 91
2, 8194, Note_on_c, 0, 37, 0
2, 8267, Note_on_c, 0, 56, 76
2, 8298, Note_on_c, 0, 65, 80
2, 8388, Control_c, 0, 64, 0
2, 8389, Note_on_c, 0, 49, 0
2, 8389, Note_on_c, 0, 61, 0
2, 8389, Note_on_c, 0, 67, 0
2, 8390, Note_on_c, 0, 65, 0
2, 8390, Note_on_c, 0, 53, 0
2, 8394, Note_on_c, 0, 68, 0
2, 8409, Note_on_c, 0, 56, 0
2, 8417, Note_on_c, 0, 63, 0
2, 8424, Note_on_c, 0, 51, 0
2, 8424, Note_on_c, 0, 55, 0
2, 8427, Note_on_c, 0, 63, 100
2, 8429, Note_on_c, 0, 58, 89
2, 8430, Note_on_c, 0, 55, 88
2, 8431, Note_on_c, 0, 51, 87
2, 8593, Note_on_c, 0, 55, 0
2, 8596, Note_on_c, 0, 51, 0
2, 8597, Note_on_c, 0, 63, 0
2, 8597, Note_on_c, 0, 58, 0
2, 8690, Note_on_c, 0, 75, 93
2, 8696, Note_on_c, 0, 63, 81
2, 8712, Note_on_c, 0, 51, 73
2, 8740, Note_on_c, 0, 75, 0
2, 8778, Note_on_c, 0, 63, 0
2, 8808, Note_on_c, 0, 51, 0
2, 8821, Note_on_c, 0, 73, 94
2, 8834, Note_on_c, 0, 61, 77
2, 8834, Note_on_c, 0, 49, 75
2, 8859, Note_on_c, 0, 73, 0
2, 8865, Note_on_c, 0, 61, 0
2, 8893, Note_on_c, 0, 49, 0
2, 8937, Note_on_c, 0, 72, 95
2, 8957, Note_on_c, 0, 60, 76
2, 8959, Note_on_c, 0, 48, 68
2, 8975, Note_on_c, 0, 72, 0
2, 8990, Note_on_c, 0, 60, 0
2, 8997, Note_on_c, 0, 48, 0
2, 9066, Note_on_c, 0, 70, 92
2, 9079, Note_on_c, 0, 58, 83
2, 9085, Note_on_c, 0, 46, 76
2, 9105, Note_on_c, 0, 58, 0
2, 9105, Note_on_c, 0, 70, 0
2, 9139, Note_on_c, 0, 46, 0
2, 9187, Note_on_c, 0, 68, 84
2, 9208, Note_on_c, 0, 56, 73
2, 9214, Note_on_c, 0, 44, 67
2, 9244, Note_on_c, 0, 68, 0
2, 9247, Note_on_c, 0, 56, 0
2, 9252, Note_on_c, 0, 44, 0
2, 9331, Note_on_c, 0, 67, 91
2, 9342, Note_on_c, 0, 55, 81
2, 9345, Note_on_c, 0, 43, 72
2, 9392, Control_c, 0, 64, 127
2, 9546, Note_on_c, 0, 55, 0
2, 9550, Control_c, 0, 64, 0
2, 9553, Note_on_c, 0, 43, 0
2, 9557, Note_on_c, 0, 67, 0
2, 9608, Note_on_c, 0, 68, 86
2, 9613, Note_on_c, 0, 63, 70
2, 9620, Note_on_c, 0, 56, 66
2, 9625, Note_on_c, 0, 60, 63
2, 9632, Note_on_c, 0, 44, 60
2, 9637, Note_on_c, 0, 51, 55
2, 9738, Control_c, 0, 64, 127
2, 9884, Note_on_c, 0, 48, 51
2, 10007, Note_on_c, 0, 51, 0
2, 10015, Note_on_c, 0, 51, 56
2, 10129, Note_on_c, 0, 60, 0
2, 10137, Note_on_c, 0, 56, 0
2, 10138, Note_on_c, 0, 60, 52
2, 10143, Note_on_c, 0, 56, 69
2, 10260, Note_on_c, 0, 48, 0
2, 10269, Note_on_c, 0, 48, 67
2, 10398, Note_on_c, 0, 51, 0
2, 10410, Note_on_c, 0, 51, 64
2, 10536, Note_on_c, 0, 48, 0
2, 10541, Note_on_c, 0, 48, 50
2, 10644, Note_on_c, 0, 63, 0
2, 10654, Note_on_c, 0, 63, 76
2, 10659, Note_on_c, 0, 56, 0
2, 10663, Note_on_c, 0, 56, 52
2, 10805, Note_on_c, 0, 48, 0
2, 10809, Note_on_c, 0, 48, 55
2, 10913, Note_on_c, 0, 51, 0
2, 10920, Note_on_c, 0, 51, 60
2, 11020, Note_on_c, 0, 48, 0
2, 11029, Note_on_c, 0, 48, 49
2, 11166, Note_on_c, 0, 60, 0
2, 11171, Note_on_c, 0, 60, 75
2, 11297, Note_on_c, 0, 48, 0
2, 11301, Note_on_c, 0, 48, 57
2, 11412, Note_on_c, 0, 51, 0
2, 11423, Note_on_c, 0, 51, 66
2, 11527, Note_on_c, 0, 48, 0
2, 11538, Note_on_c, 0, 48, 51
2, 11677, Note_on_c, 0, 48, 0
2, 11677, Note_on_c, 0, 51, 0
2, 11677, Note_on_c, 0, 60, 0
2, 11677, Note_on_c, 0, 63, 0
2, 11678, Control_c, 0, 64, 0
2, 11681, Note_on_c, 0, 68, 0
2, 11688, Note_on_c, 0, 68, 78
2, 11708, Note_on_c, 0, 64, 67
2, 11712, Note_on_c, 0, 56, 0
2, 11716, Note_on_c, 0, 56, 58
2, 11719, Note_on_c, 0, 61, 57
2, 11827, Control_c, 0, 64, 127
2, 11968, Note_on_c, 0, 49, 52
2, 12086, Note_on_c, 0, 52, 55
2, 12218, Note_on_c, 0, 56, 0
2, 12226, Note_on_c, 0, 56, 68
2, 12357, Note_on_c, 0, 49, 0
2, 12361, Note_on_c, 0, 49, 54
2, 12480, Note_on_c, 0, 52, 0
2, 12484, Note_on_c, 0, 52, 55
2, 12587, Note_on_c, 0, 49, 0
2, 12596, Note_on_c, 0, 49, 50
2, 12725, Note_on_c, 0, 64, 0
2, 12736, Note_on_c, 0, 64, 70
2, 12748, Note_on_c, 0, 52, 0
2, 12753, Note_on_c, 0, 52, 43
2, 12871, Note_on_c, 0, 49, 0
2, 12882, Note_on_c, 0, 49, 59
2, 13017, Note_on_c, 0, 52, 0
2, 13028, Note_on_c, 0, 52, 51
2, 13148, Note_on_c, 0, 49, 0
2, 13154, Note_on_c, 0, 49, 46
2, 13271, Note_on_c, 0, 61, 0
2, 13282, Note_on_c, 0, 61, 63
2, 13432, Note_on_c, 0, 49, 0
2, 13438, Note_on_c, 0, 49, 51
2, 13547, Note_on_c, 0, 52, 0
2, 13556, Note_on_c, 0, 52, 52
2, 13647, Note_on_c, 0, 49, 0
2, 13656, Note_on_c, 0, 49, 52
2, 13772, Control_c, 0, 64, 0
2, 13773, Note_on_c, 0, 68, 0
2, 13774, Note_on_c, 0, 52, 0
2, 13774, Note_on_c, 0, 64, 0
2, 13774, Note_on_c, 0, 56, 0
2, 13774, Note_on_c, 0, 49, 0
2, 13777, Note_on_c, 0, 44, 0
2, 13785, Note_on_c, 0, 61, 0
2, 13815, Note_on_c, 0, 44, 55
2, 13819, Note_on_c, 0, 75, 68
2, 13831, Note_on_c, 0, 72, 65
2, 13923, Control_c, 0, 64, 127
2, 14077, Note_on_c, 0, 75, 0
2, 14087, Note_on_c, 0, 75, 71
2, 14096, Note_on_c, 0, 60, 55
2, 14211, Note_on_c, 0, 63, 55
2, 14330, Note_on_c, 0, 75, 0
2, 14338, Note_on_c, 0, 60, 0
2, 14341, Note_on_c, 0, 75, 78
2, 14344, Note_on_c, 0, 60, 63
2, 14476, Note_on_c, 0, 63, 0
2, 14487, Note_on_c, 0, 63, 48
2, 14584, Note_on_c, 0, 60, 0
2, 14592, Note_on_c, 0, 75, 0
2, 14595, Note_on_c, 0, 60, 61
2, 14596, Note_on_c, 0, 75, 76
2, 14722, Note_on_c, 0, 75, 0
2, 14731, Note_on_c, 0, 75, 81
2, 14753, Note_on_c, 0, 72, 0
2, 14759, Note_on_c, 0, 72, 64
2, 14853, Note_on_c, 0, 44, 0
2, 14857, Control_c, 0, 64, 0
2, 14857, Note_on_c, 0, 63, 0
2, 14859, Note_on_c, 0, 44, 56
2, 14876, Note_on_c, 0, 60, 0
2, 14945, Control_c, 0, 64, 127
2, 14987, Note_on_c, 0, 76, 83
2, 15009, Note_on_c, 0, 56, 60
2, 15141, Note_on_c, 0, 60, 51
2, 15244, Note_on_c, 0, 75, 0
2, 15254, Note_on_c, 0, 75, 83
2, 15262, Note_on_c, 0, 64, 62
2, 15390, Note_on_c, 0, 60, 0
2, 15395, Note_on_c, 0, 60, 60
2, 15504, Note_on_c, 0, 73, 90
2, 15528, Note_on_c, 0, 64, 0
2, 15535, Note_on_c, 0, 64, 67
2, 15644, Note_on_c, 0, 60, 0
2, 15644, Note_on_c, 0, 72, 0
2, 15648, Note_on_c, 0, 60, 62
2, 15773, Note_on_c, 0, 72, 79
2, 15871, Note_on_c, 0, 64, 0
2, 15871, Note_on_c, 0, 56, 0
2, 15871, Note_on_c, 0, 75, 0
2, 15871, Note_on_c, 0, 73, 0
2, 15871, Note_on_c, 0, 60, 0
2, 15871, Note_on_c, 0, 76, 0
2, 15874, Control_c, 0, 64, 0
2, 15897, Note_on_c, 0, 72, 0
2, 15904, Note_on_c, 0, 72, 83
2, 15905, Note_on_c, 0, 44, 0
2, 15914, Note_on_c, 0, 44, 56
2, 15924, Note_on_c, 0, 56, 54
2, 15982, Control_c, 0, 64, 127
2, 16170, Note_on_c, 0, 60, 58
2, 16286, Note_on_c, 0, 73, 78
2, 16298, Note_on_c, 0, 63, 60
2, 16404, Note_on_c, 0, 44, 0
2, 16410, Note_on_c, 0, 75, 83
2, 16419, Note_on_c, 0, 60, 0
2, 16426, Note_on_c, 0, 60, 63
2, 16558, Note_on_c, 0, 63, 0
2, 16566, Note_on_c, 0, 63, 59
2, 16680, Note_on_c, 0, 60, 0
2, 16688, Note_on_c, 0, 60, 62
2, 16796, Note_on_c, 0, 63, 0
2, 16800, Note_on_c, 0, 63, 58
2, 16938, Note_on_c, 0, 84, 84
2, 16942, Note_on_c, 0, 75, 0
2, 16947, Control_c, 0, 64, 0
2, 16948, Note_on_c, 0, 44, 57
2, 16951, Note_on_c, 0, 75, 68
2, 16964, Note_on_c, 0, 63, 0
2, 16965, Note_on_c, 0, 72, 0
2, 16965, Note_on_c, 0, 60, 0
2, 16965, Note_on_c, 0, 73, 0
2, 16965, Note_on_c, 0, 56, 0
2, 17026, Control_c, 0, 64, 127
2, 17083, Note_on_c, 0, 56, 59
2, 17212, Note_on_c, 0, 87, 91
2, 17222, Note_on_c, 0, 60, 65
2, 17233, Note_on_c, 0, 44, 0
2, 17330, Note_on_c, 0, 63, 70
2, 17464, Note_on_c, 0, 75, 0
2, 17468, Note_on_c, 0, 82, 88
2, 17474, Note_on_c, 0, 75, 81
2, 17480, Control_c, 0, 64, 0
2, 17487, Note_on_c, 0, 43, 60
2, 17510, Note_on_c, 0, 60, 0
2, 17518, Note_on_c, 0, 56, 0
2, 17533, Control_c, 0, 64, 127
2, 17587, Note_on_c, 0, 55, 68
2, 17702, Note_on_c, 0, 87, 0
2, 17708, Note_on_c, 0, 87, 89
2, 17722, Note_on_c, 0, 58, 71
2, 17840, Note_on_c, 0, 63, 0
2, 17846, Note_on_c, 0, 63, 56
2, 17987, Note_on_c, 0, 80, 96
2, 17992, Control_c, 0, 64, 0
2, 17994, Note_on_c, 0, 75, 0
2, 17999, Note_on_c, 0, 55, 0
2, 17999, Note_on_c, 0, 87, 0
2, 17999, Note_on_c, 0, 63, 0
2, 17999, Note_on_c, 0, 58, 0
2, 17999, Note_on_c, 0, 75, 81
2, 17999, Note_on_c, 0, 72, 78
2, 18003, Note_on_c, 0, 82, 0
2, 18007, Note_on_c, 0, 53, 65
2, 18009, Note_on_c, 0, 43, 0
2, 18009, Note_on_c, 0, 84, 0
2, 18101, Control_c, 0, 64, 127
2, 18247, Note_on_c, 0, 75, 0
2, 18252, Note_on_c, 0, 75, 88
2, 18261, Note_on_c, 0, 56, 62
2, 18263, Note_on_c, 0, 72, 0
2, 18268, Note_on_c, 0, 68, 61
2, 18273, Note_on_c, 0, 72, 65
2, 18278, Note_on_c, 0, 68, 0
2, 18396, Note_on_c, 0, 60, 54
2, 18508, Note_on_c, 0, 75, 0
2, 18513, Note_on_c, 0, 75, 89
2, 18524, Note_on_c, 0, 56, 0
2, 18524, Note_on_c, 0, 72, 0
2, 18528, Note_on_c, 0, 56, 63
2, 18532, Note_on_c, 0, 68, 66
2, 18535, Note_on_c, 0, 72, 65
2, 18577, Note_on_c, 0, 53, 0
2, 18577, Control_c, 0, 64, 0
2, 18654, Note_on_c, 0, 60, 0
2, 18659, Note_on_c, 0, 60, 60
2, 18662, Control_c, 0, 64, 127
2, 18769, Note_on_c, 0, 75, 0
2, 18774, Note_on_c, 0, 75, 89
2, 18777, Note_on_c, 0, 72, 0
2, 18785, Note_on_c, 0, 56, 0
2, 18789, Note_on_c, 0, 72, 77
2, 18792, Note_on_c, 0, 56, 69
2, 18869, Note_on_c, 0, 60, 0
2, 18881, Note_on_c, 0, 60, 60
2, 19016, Control_c, 0, 64, 0
2, 19023, Note_on_c, 0, 75, 0
2, 19026, Note_on_c, 0, 56, 0
2, 19026, Note_on_c, 0, 60, 0
2, 19027, Note_on_c, 0, 72, 0
2, 19031, Note_on_c, 0, 68, 0
2, 19032, Note_on_c, 0, 75, 95
2, 19034, Note_on_c, 0, 40, 76
2, 19036, Note_on_c, 0, 71, 83
2, 19100, Control_c, 0, 64, 127
2, 19161, Note_on_c, 0, 80, 0
2, 19171, Note_on_c, 0, 80, 98
2, 19172, Note_on_c, 0, 52, 75
2, 19288, Note_on_c, 0, 56, 71
2, 19407, Note_on_c, 0, 40, 0
2, 19420, Note_on_c, 0, 82, 101
2, 19423, Note_on_c, 0, 59, 85
2, 19553, Note_on_c, 0, 56, 0
2, 19558, Note_on_c, 0, 56, 76
2, 19676, Note_on_c, 0, 59, 0
2, 19676, Note_on_c, 0, 80, 0
2, 19680, Note_on_c, 0, 80, 92
2, 19681, Note_on_c, 0, 59, 93
2, 19799, Note_on_c, 0, 56, 0
2, 19805, Note_on_c, 0, 56, 74
2, 19914, Note_on_c, 0, 59, 0
2, 19920, Note_on_c, 0, 59, 69
2, 20009, Note_on_c, 0, 52, 0
2, 20009, Note_on_c, 0, 82, 0
2, 20010, Note_on_c, 0, 71, 0
2, 20010, Note_on_c, 0, 59, 0
2, 20010, Note_on_c, 0, 80, 0
2, 20010, Note_on_c, 0, 56, 0
2, 20011, Note_on_c, 0, 75, 0
2, 20014, Control_c, 0, 64, 0
2, 20061, Note_on_c, 0, 49, 89
2, 20063, Note_on_c, 0, 37, 86
2, 20190, Note_on_c, 0, 49, 0
2, 20198, Note_on_c, 0, 76, 88
2, 20200, Note_on_c, 0, 49, 54
2, 20313, Note_on_c, 0, 49, 0
2, 20319, Note_on_c, 0, 78, 98
2, 20324, Note_on_c, 0, 49, 84
2, 20364, Note_on_c, 0, 76, 0
2, 20367, Note_on_c, 0, 37, 0
2, 20370, Note_on_c, 0, 78, 0
2, 20421, Note_on_c, 0, 49, 0
2, 20455, Note_on_c, 0, 80, 108
2, 20463, Note_on_c, 0, 68, 95
2, 20464, Note_on_c, 0, 73, 81
2, 20470, Note_on_c, 0, 51, 89
2, 20486, Note_on_c, 0, 76, 63
2, 20505, Control_c, 0, 64, 127
2, 20728, Note_on_c, 0, 51, 0
2, 20728, Note_on_c, 0, 78, 103
2, 20737, Note_on_c, 0, 51, 85
2, 20748, Control_c, 0, 64, 0
2, 20749, Note_on_c, 0, 73, 0
2, 20749, Note_on_c, 0, 76, 0
2, 20752, Note_on_c, 0, 80, 0
2, 20759, Note_on_c, 0, 68, 0
2, 20775, Note_on_c, 0, 78, 0
2, 20789, Note_on_c, 0, 51, 0
2, 20854, Note_on_c, 0, 51, 89
2, 20857, Note_on_c, 0, 78, 102
2, 20916, Note_on_c, 0, 51, 0
2, 20966, Note_on_c, 0, 78, 0
2, 20993, Note_on_c, 0, 80, 104
2, 21000, Note_on_c, 0, 68, 97
2, 21001, Note_on_c, 0, 52, 87
2, 21001, Note_on_c, 0, 71, 88
2, 21005, Note_on_c, 0, 76, 81
2, 21043, Control_c, 0, 64, 127
2, 21262, Note_on_c, 0, 78, 100
2, 21273, Note_on_c, 0, 52, 0
2, 21276, Note_on_c, 0, 64, 78
2, 21282, Note_on_c, 0, 52, 78
2, 21365, Note_on_c, 0, 68, 0
2, 21381, Note_on_c, 0, 52, 0
2, 21381, Note_on_c, 0, 78, 0
2, 21390, Note_on_c, 0, 52, 81
2, 21390, Note_on_c, 0, 78, 101
2, 21426, Note_on_c, 0, 76, 0
2, 21431, Control_c, 0, 64, 0
2, 21450, Note_on_c, 0, 71, 0
2, 21457, Note_on_c, 0, 64, 0
2, 21465, Note_on_c, 0, 52, 0
2, 21480, Note_on_c, 0, 80, 0
2, 21488, Note_on_c, 0, 78, 0
2, 21526, Note_on_c, 0, 83, 108
2, 21535, Note_on_c, 0, 73, 94
2, 21535, Note_on_c, 0, 78, 91
2, 21537, Note_on_c, 0, 71, 94
2, 21538, Note_on_c, 0, 61, 85
2, 21544, Note_on_c, 0, 54, 90
2, 21696, Control_c, 0, 64, 127
2, 21780, Note_on_c, 0, 54, 0
2, 21789, Note_on_c, 0, 54, 75
2, 21790, Note_on_c, 0, 82, 102
2, 21918, Note_on_c, 0, 61, 0
2, 21928, Note_on_c, 0, 66, 73
2, 21929, Note_on_c, 0, 61, 64
2, 21930, Note_on_c, 0, 58, 71
2, 22147, Control_c, 0, 64, 0
2, 22149, Note_on_c, 0, 71, 0
2, 22156, Note_on_c, 0, 83, 0
2, 22157, Note_on_c, 0, 78, 0
2, 22158, Note_on_c, 0, 61, 0
2, 22158, Note_on_c, 0, 82, 0
2, 22159, Note_on_c, 0, 58, 0
2, 22159, Note_on_c, 0, 54, 0
2, 22172, Note_on_c, 0, 73, 0
2, 22179, Note_on_c, 0, 66, 0
2, 22205, Note_on_c, 0, 75, 79
2, 22207, Note_on_c, 0, 44, 62
2, 22226, Note_on_c, 0, 72, 61
2, 22231, Note_on_c, 0, 68, 47
2, 22287, Note_on_c, 0, 68, 0
2, 22318, Control_c, 0, 64, 127
2, 22456, Note_on_c, 0, 75, 0
2, 22466, Note_on_c, 0, 75, 80
2, 22468, Note_on_c, 0, 60, 64
2, 22590, Note_on_c, 0, 63, 62
2, 22717, Note_on_c, 0, 60, 0
2, 22717, Note_on_c, 0, 75, 0
2, 22721, Note_on_c, 0, 60, 66
2, 22725, Note_on_c, 0, 75, 77
2, 22840, Note_on_c, 0, 63, 0
2, 22851, Note_on_c, 0, 63, 58
2, 22963, Note_on_c, 0, 60, 0
2, 22970, Note_on_c, 0, 75, 0
2, 22972, Note_on_c, 0, 60, 65
2, 22974, Note_on_c, 0, 75, 82
2, 23093, Note_on_c, 0, 75, 0
2, 23102, Note_on_c, 0, 75, 76
2, 23124, Note_on_c, 0, 72, 0
2, 23132, Note_on_c, 0, 72, 67
2, 23162, Note_on_c, 0, 44, 0
2, 23174, Note_on_c, 0, 60, 0
2, 23175, Control_c, 0, 64, 0
2, 23193, Note_on_c, 0, 63, 0
2, 23228, Note_on_c, 0, 44, 64
2, 23285, Control_c, 0, 64, 127
2, 23365, Note_on_c, 0, 76, 81
2, 23377, Note_on_c, 0, 68, 60
2, 23498, Note_on_c, 0, 60, 52
2, 23608, Note_on_c, 0, 75, 0
2, 23611, Note_on_c, 0, 64, 70
2, 23618, Note_on_c, 0, 75, 75
2, 23761, Note_on_c, 0, 60, 0
2, 23766, Note_on_c, 0, 60, 57
2, 23877, Note_on_c, 0, 64, 0
2, 23881, Note_on_c, 0, 73, 78
2, 23887, Note_on_c, 0, 64, 64
2, 24000, Note_on_c, 0, 60, 0
2, 24005, Note_on_c, 0, 60, 58
2, 24084, Note_on_c, 0, 64, 0
2, 24095, Note_on_c, 0, 64, 64
2, 24130, Note_on_c, 0, 72, 0
2, 24137, Note_on_c, 0, 72, 74
2, 24234, Note_on_c, 0, 75, 0
2, 24234, Note_on_c, 0, 73, 0
2, 24234, Note_on_c, 0, 60, 0
2, 24235, Control_c, 0, 64, 0
2, 24245, Note_on_c, 0, 64, 0
2, 24245, Note_on_c, 0, 68, 0
2, 24245, Note_on_c, 0, 76, 0
2, 24268, Note_on_c, 0, 44, 0
2, 24268, Note_on_c, 0, 72, 0
2, 24274, Note_on_c, 0, 72, 80
2, 24278, Note_on_c, 0, 44, 61
2, 24287, Note_on_c, 0, 56, 60
2, 24368, Control_c, 0, 64, 127
2, 24534, Note_on_c, 0, 60, 55
2, 24641, Note_on_c, 0, 73, 66
2, 24664, Note_on_c, 0, 63, 60
2, 24783, Note_on_c, 0, 75, 79
2, 24791, Note_on_c, 0, 60, 0
2, 24796, Note_on_c, 0, 60, 67
2, 24921, Note_on_c, 0, 63, 0
2, 24930, Note_on_c, 0, 63, 63
2, 25052, Note_on_c, 0, 60, 0
2, 25059, Note_on_c, 0, 60, 66
2, 25167, Note_on_c, 0, 63, 0
2, 25171, Note_on_c, 0, 63, 67
2, 25305, Note_on_c, 0, 44, 0
2, 25305, Control_c, 0, 64, 0
2, 25309, Note_on_c, 0, 72, 0
2, 25309, Note_on_c, 0, 75, 0
2, 25309, Note_on_c, 0, 56, 0
2, 25309, Note_on_c, 0, 63, 0
2, 25309, Note_on_c, 0, 60, 0
2, 25309, Note_on_c, 0, 73, 0
2, 25311, Note_on_c, 0, 84, 85
2, 25311, Note_on_c, 0, 44, 69
2, 25318, Note_on_c, 0, 80, 79
2, 25397, Control_c, 0, 64, 127
2, 25429, Note_on_c, 0, 56, 64
2, 25466, Note_on_c, 0, 44, 0
2, 25556, Note_on_c, 0, 85, 89
2, 25590, Note_on_c, 0, 72, 58
2, 25594, Note_on_c, 0, 60, 62
2, 25597, Note_on_c, 0, 72, 0
2, 25612, Note_on_c, 0, 56, 0
2, 25619, Note_on_c, 0, 56, 48
2, 25694, Note_on_c, 0, 63, 68
2, 25829, Control_c, 0, 64, 0
2, 25829, Note_on_c, 0, 56, 0
2, 25829, Note_on_c, 0, 60, 0
2, 25830, Note_on_c, 0, 63, 0
2, 25830, Note_on_c, 0, 87, 95
2, 25830, Note_on_c, 0, 80, 0
2, 25830, Note_on_c, 0, 85, 0
2, 25830, Note_on_c, 0, 84, 0
2, 25839, Note_on_c, 0, 82, 82
2, 25845, Note_on_c, 0, 43, 68
2, 25920, Control_c, 0, 64, 127
2, 25950, Note_on_c, 0, 43, 0
2, 25950, Note_on_c, 0, 55, 70
2, 26068, Note_on_c, 0, 58, 72
2, 26087, Note_on_c, 0, 92, 99
2, 26193, Note_on_c, 0, 63, 60
2, 26308, Note_on_c, 0, 63, 0
2, 26308, Note_on_c, 0, 58, 0
2, 26308, Note_on_c, 0, 82, 0
2, 26308, Note_on_c, 0, 55, 0
2, 26308, Note_on_c, 0, 92, 0
2, 26314, Control_c, 0, 64, 0
2, 26327, Note_on_c, 0, 87, 0
2, 26337, Note_on_c, 0, 87, 94
2, 26343, Note_on_c, 0, 84, 88
2, 26345, Note_on_c, 0, 53, 73
2, 26347, Note_on_c, 0, 41, 73
2, 26419, Control_c, 0, 64, 127
2, 26580, Note_on_c, 0, 41, 0
2, 26599, Note_on_c, 0, 75, 87
2, 26605, Note_on_c, 0, 56, 66
2, 26718, Note_on_c, 0, 75, 0
2, 26718, Note_on_c, 0, 87, 0
2, 26726, Note_on_c, 0, 75, 79
2, 26728, Note_on_c, 0, 87, 76
2, 26728, Note_on_c, 0, 60, 68
2, 26841, Note_on_c, 0, 75, 0
2, 26847, Note_on_c, 0, 75, 95
2, 26849, Note_on_c, 0, 56, 0
2, 26859, Note_on_c, 0, 56, 76
2, 26987, Note_on_c, 0, 60, 0
2, 26991, Note_on_c, 0, 60, 70
2, 27102, Note_on_c, 0, 60, 0
2, 27102, Note_on_c, 0, 75, 0
2, 27110, Note_on_c, 0, 56, 0
2, 27111, Note_on_c, 0, 75, 92
2, 27111, Note_on_c, 0, 60, 60
2, 27116, Note_on_c, 0, 56, 67
2, 27210, Note_on_c, 0, 60, 0
2, 27214, Note_on_c, 0, 60, 77
2, 27233, Note_on_c, 0, 75, 0
2, 27237, Note_on_c, 0, 75, 96
2, 27240, Note_on_c, 0, 56, 0
2, 27243, Note_on_c, 0, 72, 89
2, 27246, Note_on_c, 0, 56, 76
2, 27248, Note_on_c, 0, 72, 0
2, 27308, Note_on_c, 0, 84, 0
2, 27309, Note_on_c, 0, 87, 0
2, 27309, Note_on_c, 0, 60, 0
2, 27309, Note_on_c, 0, 53, 0
2, 27310, Note_on_c, 0, 56, 0
2, 27323, Control_c, 0, 64, 0
2, 27355, Note_on_c, 0, 39, 72
2, 27379, Control_c, 0, 64, 127
2, 27479, Note_on_c, 0, 39, 0
2, 27483, Note_on_c, 0, 51, 81
2, 27485, Note_on_c, 0, 80, 102
2, 27489, Note_on_c, 0, 39, 78
2, 27628, Note_on_c, 0, 56, 68
2, 27744, Note_on_c, 0, 60, 84
2, 27750, Note_on_c, 0, 82, 100
2, 27870, Note_on_c, 0, 56, 0
2, 27877, Note_on_c, 0, 56, 75
2, 27993, Note_on_c, 0, 80, 0
2, 28001, Note_on_c, 0, 60, 0
2, 28004, Note_on_c, 0, 80, 107
2, 28006, Note_on_c, 0, 60, 83
2, 28139, Note_on_c, 0, 56, 0
2, 28146, Note_on_c, 0, 56, 75
2, 28224, Note_on_c, 0, 60, 0
2, 28231, Note_on_c, 0, 80, 0
2, 28233, Note_on_c, 0, 60, 81
2, 28236, Note_on_c, 0, 80, 100
2, 28267, Note_on_c, 0, 78, 57
2, 28343, Note_on_c, 0, 56, 0
2, 28344, Note_on_c, 0, 51, 0
2, 28345, Note_on_c, 0, 82, 0
2, 28347, Note_on_c, 0, 60, 0
2, 28348, Control_c, 0, 64, 0
2, 28348, Note_on_c, 0, 80, 0
2, 28354, Note_on_c, 0, 78, 0
2, 28369, Note_on_c, 0, 39, 0
2, 28369, Note_on_c, 0, 75, 0
2, 28374, Note_on_c, 0, 84, 109
2, 28379, Note_on_c, 0, 77, 100
2, 28380, Note_on_c, 0, 72, 104
2, 28381, Note_on_c, 0, 49, 98
2, 28391, Note_on_c, 0, 37, 95
2, 28430, Note_on_c, 0, 37, 0
2, 28477, Control_c, 0, 64, 127
2, 28623, Note_on_c, 0, 72, 0
2, 28627, Note_on_c, 0, 85, 101
2, 28637, Note_on_c, 0, 73, 98
2, 28638, Note_on_c, 0, 49, 0
2, 28643, Note_on_c, 0, 56, 78
2, 28649, Note_on_c, 0, 49, 81
2, 28725, Note_on_c, 0, 77, 0
2, 28726, Note_on_c, 0, 73, 0
2, 28726, Note_on_c, 0, 84, 0
2, 28726, Note_on_c, 0, 85, 0
2, 28726, Note_on_c, 0, 56, 0
2, 28726, Note_on_c, 0, 49, 0
2, 28726, Control_c, 0, 64, 0
2, 28775, Note_on_c, 0, 82, 108
2, 28782, Note_on_c, 0, 75, 103
2, 28786, Note_on_c, 0, 79, 95
2, 28789, Note_on_c, 0, 51, 99
2, 28793, Note_on_c, 0, 39, 94
2, 28825, Note_on_c, 0, 83, 52
2, 28876, Control_c, 0, 64, 127
2, 28892, Note_on_c, 0, 39, 0
2, 29036, Note_on_c, 0, 80, 100
2, 29041, Note_on_c, 0, 55, 90
2, 29041, Note_on_c, 0, 68, 98
2, 29167, Note_on_c, 0, 58, 87
2, 29268, Note_on_c, 0, 83, 0
2, 29269, Control_c, 0, 64, 0
2, 29269, Note_on_c, 0, 68, 0
2, 29270, Note_on_c, 0, 75, 0
2, 29270, Note_on_c, 0, 55, 0
2, 29270, Note_on_c, 0, 51, 0
2, 29270, Note_on_c, 0, 79, 0
2, 29271, Note_on_c, 0, 82, 0
2, 29271, Note_on_c, 0, 58, 0
2, 29287, Note_on_c, 0, 84, 108
2, 29291, Note_on_c, 0, 80, 0
2, 29294, Note_on_c, 0, 72, 100
2, 29295, Note_on_c, 0, 77, 97
2, 29301, Note_on_c, 0, 80, 92
2, 29303, Note_on_c, 0, 49, 84
2, 29309, Note_on_c, 0, 37, 87
2, 29352, Note_on_c, 0, 37, 0
2, 29391, Control_c, 0, 64, 127
2, 29538, Note_on_c, 0, 85, 105
2, 29550, Note_on_c, 0, 73, 101
2, 29551, Note_on_c, 0, 41, 80
2, 29553, Note_on_c, 0, 53, 87
2, 29560, Note_on_c, 0, 41, 0
2, 29667, Note_on_c, 0, 49, 0
2, 29675, Note_on_c, 0, 56, 81
2, 29675, Note_on_c, 0, 49, 68
2, 29761, Note_on_c, 0, 72, 0
2, 29762, Control_c, 0, 64, 0
2, 29763, Note_on_c, 0, 85, 0
2, 29763, Note_on_c, 0, 73, 0
2, 29763, Note_on_c, 0, 80, 0
2, 29763, Note_on_c, 0, 84, 0
2, 29763, Note_on_c, 0, 49, 0
2, 29763, Note_on_c, 0, 77, 0
2, 29763, Note_on_c, 0, 56, 0
2, 29763, Note_on_c, 0, 53, 0
2, 29795, Note_on_c, 0, 82, 110
2, 29800, Note_on_c, 0, 70, 107
2, 29801, Note_on_c, 0, 75, 104
2, 29811, Note_on_c, 0, 79, 84
2, 29815, Note_on_c, 0, 51, 97
2, 29817, Note_on_c, 0, 39, 90
2, 29875, Control_c, 0, 64, 127
2, 30050, Note_on_c, 0, 80, 101
2, 30054, Note_on_c, 0, 68, 93
2, 30057, Note_on_c, 0, 55, 75
2, 30167, Note_on_c, 0, 79, 0
2, 30175, Note_on_c, 0, 79, 101
2, 30178, Note_on_c, 0, 67, 86
2, 30181, Note_on_c, 0, 58, 76
2, 30289, Note_on_c, 0, 75, 0
2, 30289, Note_on_c, 0, 82, 0
2, 30297, Note_on_c, 0, 70, 0
2, 30299, Note_on_c, 0, 82, 109
2, 30300, Note_on_c, 0, 75, 103
2, 30304, Note_on_c, 0, 70, 99
2, 30305, Note_on_c, 0, 79, 0
2, 30310, Note_on_c, 0, 79, 96
2, 30323, Control_c, 0, 64, 0
2, 30363, Note_on_c, 0, 68, 0
2, 30363, Note_on_c, 0, 55, 0
2, 30363, Note_on_c, 0, 67, 0
2, 30363, Note_on_c, 0, 51, 0
2, 30364, Note_on_c, 0, 58, 0
2, 30365, Note_on_c, 0, 80, 0
2, 30397, Note_on_c, 0, 39, 0
2, 30430, Note_on_c, 0, 32, 68
2, 30430, Note_on_c, 0, 44, 69
2, 30543, Control_c, 0, 64, 127
2, 30551, Note_on_c, 0, 44, 0
2, 30561, Note_on_c, 0, 44, 67
2, 30685, Note_on_c, 0, 51, 87
2, 30815, Note_on_c, 0, 56, 73
2, 30924, Note_on_c, 0, 58, 85
2, 31064, Note_on_c, 0, 60, 73
2, 31180, Note_on_c, 0, 80, 96
2, 31180, Note_on_c, 0, 75, 0
2, 31183, Note_on_c, 0, 63, 78
2, 31189, Note_on_c, 0, 75, 79
2, 31311, Note_on_c, 0, 75, 0
2, 31311, Note_on_c, 0, 80, 0
2, 31319, Note_on_c, 0, 60, 0
2, 31322, Note_on_c, 0, 75, 97
2, 31322, Note_on_c, 0, 80, 97
2, 31323, Note_on_c, 0, 68, 87
2, 31324, Note_on_c, 0, 60, 68
2, 31518, Note_on_c, 0, 32, 0
2, 31564, Note_on_c, 0, 63, 0
2, 31564, Note_on_c, 0, 82, 0
2, 31575, Note_on_c, 0, 63, 77
2, 31576, Note_on_c, 0, 82, 84
2, 31580, Note_on_c, 0, 75, 0
2, 31585, Note_on_c, 0, 75, 77
2, 31695, Note_on_c, 0, 60, 0
2, 31699, Note_on_c, 0, 84, 91
2, 31699, Note_on_c, 0, 60, 69
2, 31802, Note_on_c, 0, 56, 0
2, 31806, Note_on_c, 0, 56, 66
2, 31828, Note_on_c, 0, 87, 86
2, 31948, Note_on_c, 0, 51, 0
2, 31953, Note_on_c, 0, 92, 104
2, 31955, Note_on_c, 0, 51, 71
2, 32209, Note_on_c, 0, 68, 0
2, 32221, Note_on_c, 0, 68, 82
2, 32237, Note_on_c, 0, 56, 0
2, 32245, Note_on_c, 0, 51, 0
2, 32249, Note_on_c, 0, 42, 51
2, 32250, Note_on_c, 0, 61, 48
2, 32256, Note_on_c, 0, 42, 0
2, 32358, Note_on_c, 0, 67, 74
2, 32486, Note_on_c, 0, 68, 0
2, 32489, Control_c, 0, 64, 0
2, 32489, Note_on_c, 0, 44, 0
2, 32490, Note_on_c, 0, 67, 0
2, 32490, Note_on_c, 0, 58, 0
2, 32490, Note_on_c, 0, 87, 0
2, 32490, Note_on_c, 0, 84, 0
2, 32490, Note_on_c, 0, 75, 0
2, 32491, Note_on_c, 0, 60, 0
2, 32492, Note_on_c, 0, 68, 84
2, 32501, Note_on_c, 0, 80, 0
2, 32501, Note_on_c, 0, 82, 0
2, 32507, Note_on_c, 0, 49, 68
2, 32509, Note_on_c, 0, 63, 0
2, 32509, Note_on_c, 0, 70, 0
2, 32509, Note_on_c, 0, 79, 0
2, 32509, Note_on_c, 0, 92, 0
2, 32570, Note_on_c, 0, 61, 0
2, 32739, Control_c, 0, 64, 127
2, 32753, Note_on_c, 0, 56, 62
2, 32881, Note_on_c, 0, 61, 66
2, 33019, Note_on_c, 0, 65, 72
2, 33027, Note_on_c, 0, 92, 96
2, 33269, Note_on_c, 0, 61, 0
2, 33276, Note_on_c, 0, 61, 65
2, 33276, Note_on_c, 0, 91, 87
2, 33400, Note_on_c, 0, 92, 0
2, 33409, Note_on_c, 0, 92, 97
2, 33504, Control_c, 0, 64, 0
2, 33506, Note_on_c, 0, 49, 0
2, 33506, Note_on_c, 0, 68, 0
2, 33507, Note_on_c, 0, 61, 0
2, 33507, Note_on_c, 0, 65, 0
2, 33510, Note_on_c, 0, 56, 0
2, 33535, Note_on_c, 0, 51, 70
2, 33623, Control_c, 0, 64, 127
2, 33692, Note_on_c, 0, 91, 0
2, 33789, Note_on_c, 0, 55, 66
2, 33803, Note_on_c, 0, 63, 68
2, 33934, Note_on_c, 0, 58, 62
2, 34049, Note_on_c, 0, 67, 79
2, 34057, Control_c, 0, 64, 0
2, 34058, Note_on_c, 0, 55, 0
2, 34062, Note_on_c, 0, 51, 0
2, 34062, Note_on_c, 0, 63, 0
2, 34063, Note_on_c, 0, 58, 0
2, 34064, Note_on_c, 0, 49, 71
2, 34106, Note_on_c, 0, 92, 0
2, 34176, Control_c, 0, 64, 127
2, 34306, Note_on_c, 0, 67, 0
2, 34309, Note_on_c, 0, 55, 71
2, 34316, Note_on_c, 0, 67, 84
2, 34423, Note_on_c, 0, 58, 69
2, 34560, Note_on_c, 0, 67, 0
2, 34571, Note_on_c, 0, 67, 91
2, 34577, Note_on_c, 0, 48, 76
2, 34580, Control_c, 0, 64, 0
2, 34580, Note_on_c, 0, 55, 0
2, 34583, Note_on_c, 0, 58, 0
2, 34586, Note_on_c, 0, 49, 0
2, 34690, Control_c, 0, 64, 127
2, 34848, Note_on_c, 0, 55, 70
2, 34976, Note_on_c, 0, 60, 66
2, 35074, Note_on_c, 0, 67, 0
2, 35083, Note_on_c, 0, 92, 101
2, 35097, Note_on_c, 0, 64, 73
2, 35211, Note_on_c, 0, 91, 94
2, 35328, Note_on_c, 0, 92, 0
2, 35339, Note_on_c, 0, 92, 101
2, 35351, Note_on_c, 0, 60, 0
2, 35351, Note_on_c, 0, 64, 0
2, 35354, Note_on_c, 0, 60, 70
2, 35359, Note_on_c, 0, 64, 63
2, 35471, Note_on_c, 0, 94, 107
2, 35578, Control_c, 0, 64, 0
2, 35584, Note_on_c, 0, 60, 0
2, 35584, Note_on_c, 0, 55, 0
2, 35584, Note_on_c, 0, 48, 0
2, 35585, Note_on_c, 0, 91, 0
2, 35585, Note_on_c, 0, 64, 0
2, 35600, Note_on_c, 0, 53, 71
2, 35688, Control_c, 0, 64, 127
2, 35834, Note_on_c, 0, 92, 0
2, 35843, Note_on_c, 0, 68, 65
2, 35845, Note_on_c, 0, 92, 91
2, 35850, Note_on_c, 0, 68, 0
2, 35868, Note_on_c, 0, 56, 67
2, 35999, Note_on_c, 0, 60, 53
2, 36052, Note_on_c, 0, 63, 67
2, 36104, Note_on_c, 0, 68, 86
2, 36112, Note_on_c, 0, 51, 79
2, 36114, Note_on_c, 0, 92, 0
2, 36114, Control_c, 0, 64, 0
2, 36115, Note_on_c, 0, 53, 0
2, 36115, Note_on_c, 0, 60, 0
2, 36115, Note_on_c, 0, 56, 0
2, 36142, Note_on_c, 0, 94, 0
2, 36195, Control_c, 0, 64, 127
2, 36272, Note_on_c, 0, 63, 0
2, 36281, Note_on_c, 0, 67, 82
2, 36375, Note_on_c, 0, 56, 61
2, 36472, Note_on_c, 0, 68, 0
2, 36480, Note_on_c, 0, 68, 80
2, 36492, Note_on_c, 0, 60, 64
2, 36624, Control_c, 0, 64, 0
2, 36625, Note_on_c, 0, 68, 0
2, 36628, Note_on_c, 0, 56, 0
2, 36629, Note_on_c, 0, 51, 0
2, 36629, Note_on_c, 0, 60, 0
2, 36630, Note_on_c, 0, 67, 0
2, 36630, Note_on_c, 0, 68, 87
2, 36639, Note_on_c, 0, 46, 75
2, 36642, Note_on_c, 0, 65, 78
2, 36756, Control_c, 0, 64, 127
2, 36778, Note_on_c, 0, 53, 63
2, 36806, Note_on_c, 0, 65, 0
2, 36902, Note_on_c, 0, 60, 75
2, 36905, Note_on_c, 0, 58, 70
2, 36953, Note_on_c, 0, 53, 0
2, 36967, Control_c, 0, 64, 0
2, 36980, Note_on_c, 0, 68, 0
2, 37037, Note_on_c, 0, 61, 82
2, 37075, Note_on_c, 0, 60, 0
2, 37255, Control_c, 0, 64, 127
2, 37282, Note_on_c, 0, 53, 69
2, 37418, Note_on_c, 0, 63, 82
2, 37532, Note_on_c, 0, 46, 0
2, 37540, Note_on_c, 0, 46, 69
2, 37657, Note_on_c, 0, 53, 0
2, 37658, Note_on_c, 0, 58, 0
2, 37658, Note_on_c, 0, 46, 0
2, 37659, Note_on_c, 0, 61, 0
2, 37660, Control_c, 0, 64, 0
2, 37672, Note_on_c, 0, 68, 88
2, 37678, Note_on_c, 0, 63, 0
2, 37688, Note_on_c, 0, 63, 63
2, 37692, Note_on_c, 0, 48, 66
2, 37785, Control_c, 0, 64, 127
2, 37827, Note_on_c, 0, 51, 64
2, 37943, Note_on_c, 0, 56, 64
2, 38053, Control_c, 0, 64, 0
2, 38054, Note_on_c, 0, 63, 0
2, 38059, Note_on_c, 0, 63, 84
2, 38074, Note_on_c, 0, 60, 67
2, 38104, Note_on_c, 0, 51, 0
2, 38105, Note_on_c, 0, 68, 0
2, 38107, Note_on_c, 0, 56, 0
2, 38205, Note_on_c, 0, 67, 86
2, 38277, Control_c, 0, 64, 127
2, 38392, Note_on_c, 0, 67, 0
2, 38399, Note_on_c, 0, 67, 86
2, 38499, Note_on_c, 0, 51, 71
2, 38577, Note_on_c, 0, 68, 88
2, 38713, Note_on_c, 0, 48, 0
2, 38714, Note_on_c, 0, 60, 0
2, 38715, Note_on_c, 0, 51, 0
2, 38721, Control_c, 0, 64, 0
2, 38722, Note_on_c, 0, 68, 0
2, 38728, Note_on_c, 0, 68, 92
2, 38730, Note_on_c, 0, 63, 0
2, 38736, Note_on_c, 0, 49, 73
2, 38737, Note_on_c, 0, 67, 0
2, 38742, Note_on_c, 0, 65, 69
2, 38837, Control_c, 0, 64, 127
2, 38885, Note_on_c, 0, 53, 61
2, 38995, Note_on_c, 0, 61, 81
2, 39004, Note_on_c, 0, 56, 66
2, 39043, Note_on_c, 0, 53, 0
2, 39043, Note_on_c, 0, 65, 0
2, 39050, Control_c, 0, 64, 0
2, 39054, Note_on_c, 0, 68, 0
2, 39132, Note_on_c, 0, 63, 89
2, 39229, Control_c, 0, 64, 127
2, 39367, Note_on_c, 0, 56, 0
2, 39377, Note_on_c, 0, 56, 67
2, 39475, Control_c, 0, 64, 0
2, 39507, Note_on_c, 0, 65, 93
2, 39559, Control_c, 0, 64, 127
2, 39632, Note_on_c, 0, 53, 71
2, 39765, Control_c, 0, 64, 0
2, 39767, Note_on_c, 0, 56, 0
2, 39768, Note_on_c, 0, 68, 96
2, 39768, Note_on_c, 0, 65, 0
2, 39772, Note_on_c, 0, 63, 0
2, 39782, Note_on_c, 0, 49, 0
2, 39782, Note_on_c, 0, 61, 0
2, 39787, Note_on_c, 0, 49, 72
2, 39787, Note_on_c, 0, 64, 83
2, 39813, Note_on_c, 0, 53, 0
2, 39923, Note_on_c, 0, 52, 67
2, 39959, Control_c, 0, 64, 127
2, 40056, Note_on_c, 0, 56, 69
2, 40154, Control_c, 0, 64, 0
2, 40188, Note_on_c, 0, 61, 69
2, 40220, Control_c, 0, 64, 127
2, 40320, Note_on_c, 0, 64, 0
2, 40328, Note_on_c, 0, 64, 94
2, 40516, Note_on_c, 0, 66, 88
2, 40581, Note_on_c, 0, 49, 0
2, 40590, Note_on_c, 0, 49, 61
2, 40704, Note_on_c, 0, 68, 0
2, 40710, Note_on_c, 0, 68, 84
2, 40727, Note_on_c, 0, 56, 0
2, 40732, Note_on_c, 0, 56, 35
2, 40806, Note_on_c, 0, 66, 0
2, 40806, Note_on_c, 0, 52, 0
2, 40806, Note_on_c, 0, 61, 0
2, 40806, Note_on_c, 0, 64, 0
2, 40806, Note_on_c, 0, 49, 0
2, 40806, Note_on_c, 0, 56, 0
2, 40810, Control_c, 0, 64, 0
2, 40842, Note_on_c, 0, 68, 0
2, 40851, Note_on_c, 0, 68, 82
2, 40862, Note_on_c, 0, 39, 66
2, 40926, Control_c, 0, 64, 127
2, 40991, Note_on_c, 0, 51, 64
2, 40992, Note_on_c, 0, 75, 68
2, 41111, Note_on_c, 0, 75, 0
2, 41115, Note_on_c, 0, 75, 78
2, 41121, Note_on_c, 0, 58, 63
2, 41226, Note_on_c, 0, 75, 0
2, 41234, Note_on_c, 0, 75, 77
2, 41241, Note_on_c, 0, 51, 0
2, 41252, Note_on_c, 0, 51, 61
2, 41356, Note_on_c, 0, 75, 0
2, 41362, Note_on_c, 0, 75, 88
2, 41376, Note_on_c, 0, 63, 73
2, 41502, Note_on_c, 0, 51, 0
2, 41506, Note_on_c, 0, 51, 70
2, 41610, Note_on_c, 0, 75, 0
2, 41621, Note_on_c, 0, 75, 90
2, 41633, Note_on_c, 0, 58, 0
2, 41641, Note_on_c, 0, 58, 73
2, 41733, Note_on_c, 0, 51, 0
2, 41737, Note_on_c, 0, 51, 66
2, 41739, Note_on_c, 0, 77, 94
2, 41859, Control_c, 0, 64, 0
2, 41860, Note_on_c, 0, 68, 0
2, 41860, Note_on_c, 0, 51, 0
2, 41860, Note_on_c, 0, 63, 0
2, 41860, Note_on_c, 0, 58, 0
2, 41862, Note_on_c, 0, 77, 0
2, 41863, Note_on_c, 0, 39, 0
2, 41863, Note_on_c, 0, 75, 0
2, 41872, Note_on_c, 0, 75, 89
2, 41874, Note_on_c, 0, 79, 99
2, 41884, Note_on_c, 0, 70, 91
2, 41886, Note_on_c, 0, 39, 69
2, 41948, Control_c, 0, 64, 127
2, 42016, Note_on_c, 0, 77, 81
2, 42022, Note_on_c, 0, 51, 63
2, 42124, Note_on_c, 0, 39, 0
2, 42132, Note_on_c, 0, 75, 0
2, 42140, Note_on_c, 0, 75, 84
2, 42145, Note_on_c, 0, 58, 73
2, 42255, Note_on_c, 0, 79, 0
2, 42259, Note_on_c, 0, 79, 101
2, 42263, Note_on_c, 0, 51, 0
2, 42263, Note_on_c, 0, 70, 0
2, 42269, Note_on_c, 0, 70, 86
2, 42270, Note_on_c, 0, 75, 0
2, 42271, Note_on_c, 0, 51, 80
2, 42274, Note_on_c, 0, 75, 85
2, 42401, Note_on_c, 0, 58, 0
2, 42405, Note_on_c, 0, 63, 83
2, 42412, Note_on_c, 0, 58, 55
2, 42524, Note_on_c, 0, 51, 0
2, 42528, Note_on_c, 0, 51, 80
2, 42654, Note_on_c, 0, 58, 0
2, 42659, Note_on_c, 0, 58, 80
2, 42762, Note_on_c, 0, 51, 0
2, 42770, Note_on_c, 0, 51, 82
2, 42895, Note_on_c, 0, 77, 0
2, 42895, Control_c, 0, 64, 0
2, 42896, Note_on_c, 0, 63, 0
2, 42896, Note_on_c, 0, 51, 0
2, 42896, Note_on_c, 0, 58, 0
2, 42896, Note_on_c, 0, 75, 0
2, 42896, Note_on_c, 0, 70, 0
2, 42896, Note_on_c, 0, 79, 0
2, 42898, Note_on_c, 0, 39, 82
2, 42902, Note_on_c, 0, 85, 89
2, 42908, Note_on_c, 0, 85, 0
2, 42977, Note_on_c, 0, 39, 0
2, 42977, Control_c, 0, 64, 127
2, 43027, Note_on_c, 0, 80, 102
2, 43027, Note_on_c, 0, 51, 78
2, 43031, Note_on_c, 0, 75, 96
2, 43035, Note_on_c, 0, 68, 85
2, 43153, Note_on_c, 0, 51, 0
2, 43153, Note_on_c, 0, 68, 0
2, 43153, Note_on_c, 0, 75, 0
2, 43153, Note_on_c, 0, 80, 0
2, 43156, Note_on_c, 0, 58, 76
2, 43158, Note_on_c, 0, 80, 100
2, 43159, Note_on_c, 0, 51, 68
2, 43162, Note_on_c, 0, 75, 88
2, 43162, Note_on_c, 0, 68, 91
2, 43261, Note_on_c, 0, 51, 0
2, 43266, Note_on_c, 0, 51, 86
2, 43269, Note_on_c, 0, 68, 0
2, 43269, Note_on_c, 0, 75, 0
2, 43269, Note_on_c, 0, 80, 0
2, 43273, Note_on_c, 0, 75, 90
2, 43274, Note_on_c, 0, 80, 95
2, 43276, Note_on_c, 0, 68, 88
2, 43303, Control_c, 0, 64, 0
2, 43338, Note_on_c, 0, 68, 0
2, 43345, Control_c, 0, 64, 127
2, 43353, Note_on_c, 0, 80, 0
2, 43361, Note_on_c, 0, 58, 0
2, 43392, Note_on_c, 0, 75, 0
2, 43392, Note_on_c, 0, 80, 104
2, 43394, Note_on_c, 0, 39, 89
2, 43394, Note_on_c, 0, 68, 95
2, 43396, Note_on_c, 0, 75, 98
2, 43399, Control_c, 0, 64, 0
2, 43476, Note_on_c, 0, 75, 0
2, 43484, Control_c, 0, 64, 127
2, 43527, Note_on_c, 0, 79, 96
2, 43528, Note_on_c, 0, 67, 93
2, 43533, Note_on_c, 0, 75, 88
2, 43637, Note_on_c, 0, 68, 0
2, 43642, Note_on_c, 0, 68, 96
2, 43645, Note_on_c, 0, 75, 0
2, 43645, Note_on_c, 0, 80, 0
2, 43652, Note_on_c, 0, 75, 85
2, 43654, Note_on_c, 0, 80, 92
2, 43658, Note_on_c, 0, 81, 84
2, 43737, Note_on_c, 0, 39, 0
2, 43745, Note_on_c, 0, 80, 0
2, 43745, Note_on_c, 0, 67, 0
2, 43748, Note_on_c, 0, 81, 0
2, 43748, Note_on_c, 0, 51, 0
2, 43750, Control_c, 0, 64, 0
2, 43752, Note_on_c, 0, 68, 0
2, 43768, Note_on_c, 0, 75, 0
2, 43777, Note_on_c, 0, 82, 111
2, 43778, Note_on_c, 0, 75, 104
2, 43781, Note_on_c, 0, 70, 104
2, 43795, Note_on_c, 0, 51, 96
2, 43796, Note_on_c, 0, 39, 94
2, 43883, Control_c, 0, 64, 127
2, 44029, Note_on_c, 0, 39, 0
2, 44040, Note_on_c, 0, 85, 92
2, 44040, Note_on_c, 0, 39, 91
2, 44041, Note_on_c, 0, 27, 100
2, 44044, Note_on_c, 0, 85, 0
2, 44046, Note_on_c, 0, 73, 85
2, 44052, Note_on_c, 0, 73, 0
2, 44119, Note_on_c, 0, 51, 0
2, 44122, Note_on_c, 0, 39, 0
2, 44123, Control_c, 0, 64, 0
2, 44136, Note_on_c, 0, 27, 0
2, 44136, Note_on_c, 0, 79, 0
2, 44144, Control_c, 0, 64, 127
2, 44152, Note_on_c, 0, 70, 0
2, 44174, Note_on_c, 0, 39, 89
2, 44175, Note_on_c, 0, 27, 97
2, 44382, Note_on_c, 0, 27, 0
2, 44428, Note_on_c, 0, 75, 0
2, 44443, Note_on_c, 0, 85, 111
2, 44444, Note_on_c, 0, 73, 111
2, 44467, Note_on_c, 0, 39, 0
2, 44467, Control_c, 0, 64, 0
2, 44490, Note_on_c, 0, 82, 0
2, 44513, Note_on_c, 0, 73, 0
2, 44551, Control_c, 0, 64, 127
2, 44582, Note_on_c, 0, 85, 0
2, 44639, Note_on_c, 0, 84, 114
2, 44640, Note_on_c, 0, 72, 109
2, 44807, Note_on_c, 0, 67, 106
2, 44807, Note_on_c, 0, 79, 107
2, 44946, Note_on_c, 0, 84, 0
2, 44947, Control_c, 0, 64, 0
2, 44947, Note_on_c, 0, 79, 0
2, 44947, Note_on_c, 0, 67, 0
2, 44963, Note_on_c, 0, 82, 114
2, 44964, Note_on_c, 0, 75, 109
2, 44970, Note_on_c, 0, 70, 107
2, 44977, Note_on_c, 0, 44, 101
2, 44978, Note_on_c, 0, 32, 94
2, 44982, Note_on_c, 0, 80, 83
2, 45233, Note_on_c, 0, 51, 81
2, 45242, Note_on_c, 0, 32, 0
2, 45250, Control_c, 0, 64, 127
2, 45373, Note_on_c, 0, 56, 76
2, 45497, Note_on_c, 0, 60, 77
2, 45622, Note_on_c, 0, 63, 74
2, 45734, Note_on_c, 0, 80, 0
2, 45738, Note_on_c, 0, 80, 104
2, 45743, Note_on_c, 0, 68, 88
2, 45872, Note_on_c, 0, 75, 0
2, 45872, Note_on_c, 0, 80, 0
2, 45877, Note_on_c, 0, 80, 101
2, 45880, Note_on_c, 0, 72, 0
2, 45882, Note_on_c, 0, 75, 101
2, 45884, Note_on_c, 0, 72, 88
2, 45987, Note_on_c, 0, 68, 0
2, 45994, Note_on_c, 0, 68, 85
2, 46118, Note_on_c, 0, 63, 0
2, 46127, Note_on_c, 0, 63, 79
2, 46248, Note_on_c, 0, 60, 0
2, 46257, Note_on_c, 0, 60, 82
2, 46348, Note_on_c, 0, 56, 0
2, 46359, Note_on_c, 0, 56, 77
2, 46464, Control_c, 0, 64, 0
2, 46465, Note_on_c, 0, 56, 0
2, 46465, Note_on_c, 0, 51, 0
2, 46465, Note_on_c, 0, 80, 0
2, 46465, Note_on_c, 0, 68, 0
2, 46466, Note_on_c, 0, 75, 0
2, 46466, Note_on_c, 0, 82, 0
2, 46466, Note_on_c, 0, 44, 0
2, 46466, Note_on_c, 0, 72, 0
2, 46467, Note_on_c, 0, 70, 0
2, 46479, Note_on_c, 0, 60, 0
2, 46479, Note_on_c, 0, 63, 0
2, 46499, Note_on_c, 0, 32, 83
2, 46499, Note_on_c, 0, 85, 108
2, 46505, Note_on_c, 0, 73, 106
2, 46525, Control_c, 0, 64, 127
2, 46613, Note_on_c, 0, 44, 87
2, 46704, Note_on_c, 0, 84, 112
2, 46705, Note_on_c, 0, 72, 109
2, 46738, Note_on_c, 0, 34, 86
2, 46855, Note_on_c, 0, 34, 0
2, 46858, Note_on_c, 0, 79, 108
2, 46859, Note_on_c, 0, 67, 103
2, 46860, Note_on_c, 0, 34, 81
2, 46863, Note_on_c, 0, 46, 86
2, 46981, Note_on_c, 0, 84, 0
2, 46981, Note_on_c, 0, 73, 0
2, 46981, Note_on_c, 0, 32, 0
2, 46982, Note_on_c, 0, 34, 0
2, 46982, Note_on_c, 0, 67, 0
2, 46982, Note_on_c, 0, 44, 0
2, 46982, Note_on_c, 0, 85, 0
2, 46982, Note_on_c, 0, 46, 0
2, 46982, Note_on_c, 0, 79, 0
2, 46982, Control_c, 0, 64, 0
2, 46993, Note_on_c, 0, 72, 0
2, 47004, Note_on_c, 0, 72, 103
2, 47005, Note_on_c, 0, 82, 113
2, 47012, Note_on_c, 0, 77, 101
2, 47019, Note_on_c, 0, 76, 89
2, 47155, Control_c, 0, 64, 127
2, 47167, Note_on_c, 0, 48, 85
2, 47282, Note_on_c, 0, 52, 84
2, 47426, Note_on_c, 0, 55, 79
2, 47544, Note_on_c, 0, 60, 83
2, 47654, Note_on_c, 0, 64, 86
2, 47777, Note_on_c, 0, 82, 0
2, 47781, Note_on_c, 0, 82, 103
2, 47788, Note_on_c, 0, 67, 80
2, 47915, Note_on_c, 0, 72, 0
2, 47920, Note_on_c, 0, 84, 108
2, 47923, Note_on_c, 0, 72, 100
2, 47930, Note_on_c, 0, 76, 0
2, 47931, Note_on_c, 0, 79, 98
2, 47935, Note_on_c, 0, 76, 91
2, 48023, Note_on_c, 0, 67, 0
2, 48027, Note_on_c, 0, 67, 78
2, 48145, Note_on_c, 0, 64, 0
2, 48152, Note_on_c, 0, 64, 83
2, 48284, Note_on_c, 0, 60, 0
2, 48293, Note_on_c, 0, 60, 89
2, 48407, Note_on_c, 0, 55, 0
2, 48411, Note_on_c, 0, 55, 88
2, 48495, Note_on_c, 0, 82, 0
2, 48496, Note_on_c, 0, 48, 0
2, 48496, Note_on_c, 0, 76, 0
2, 48496, Note_on_c, 0, 64, 0
2, 48496, Note_on_c, 0, 52, 0
2, 48496, Note_on_c, 0, 55, 0
2, 48496, Note_on_c, 0, 60, 0
2, 48496, Note_on_c, 0, 84, 0
2, 48497, Note_on_c, 0, 67, 0
2, 48497, Note_on_c, 0, 72, 0
2, 48497, Note_on_c, 0, 79, 0
2, 48503, Control_c, 0, 64, 0
2, 48514, Note_on_c, 0, 77, 0
2, 48542, Note_on_c, 0, 85, 108
2, 48548, Note_on_c, 0, 73, 107
2, 48549, Note_on_c, 0, 50, 81
2, 48576, Control_c, 0, 64, 127
2, 48660, Note_on_c, 0, 50, 0
2, 48671, Note_on_c, 0, 50, 84
2, 48732, Note_on_c, 0, 84, 108
2, 48732, Note_on_c, 0, 72, 105
2, 48735, Note_on_c, 0, 76, 83
2, 48805, Note_on_c, 0, 48, 74
2, 48808, Note_on_c, 0, 47, 69
2, 48898, Note_on_c, 0, 79, 103
2, 48901, Note_on_c, 0, 67, 97
2, 48907, Note_on_c, 0, 52, 91
2, 49059, Note_on_c, 0, 72, 0
2, 49061, Note_on_c, 0, 82, 110
2, 49067, Note_on_c, 0, 72, 99
2, 49069, Control_c, 0, 64, 0
2, 49070, Note_on_c, 0, 77, 95
2, 49071, Note_on_c, 0, 41, 91
2, 49079, Note_on_c, 0, 85, 0
2, 49080, Note_on_c, 0, 73, 0
2, 49080, Note_on_c, 0, 67, 0
2, 49082, Note_on_c, 0, 76, 0
2, 49082, Note_on_c, 0, 47, 0
2, 49083, Note_on_c, 0, 52, 0
2, 49083, Note_on_c, 0, 50, 0
2, 49083, Note_on_c, 0, 79, 0
2, 49085, Note_on_c, 0, 48, 0
2, 49205, Control_c, 0, 64, 127
2, 49230, Note_on_c, 0, 48, 72
2, 49318, Note_on_c, 0, 53, 81
2, 49445, Note_on_c, 0, 80, 105
2, 49462, Note_on_c, 0, 65, 90
2, 49581, Note_on_c, 0, 60, 78
2, 49697, Note_on_c, 0, 80, 0
2, 49701, Note_on_c, 0, 80, 95
2, 49708, Note_on_c, 0, 56, 80
2, 49820, Note_on_c, 0, 80, 0
2, 49825, Note_on_c, 0, 80, 95
2, 49850, Note_on_c, 0, 53, 0
2, 49852, Note_on_c, 0, 65, 0
2, 49855, Note_on_c, 0, 53, 76
2, 49935, Note_on_c, 0, 82, 0
2, 49942, Note_on_c, 0, 82, 99
2, 50065, Note_on_c, 0, 80, 0
2, 50076, Note_on_c, 0, 80, 105
2, 50078, Note_on_c, 0, 39, 87
2, 50083, Note_on_c, 0, 68, 97
2, 50102, Control_c, 0, 64, 0
2, 50107, Note_on_c, 0, 82, 0
2, 50107, Note_on_c, 0, 53, 0
2, 50108, Note_on_c, 0, 60, 0
2, 50108, Note_on_c, 0, 48, 0
2, 50108, Note_on_c, 0, 56, 0
2, 50108, Note_on_c, 0, 77, 0
2, 50108, Note_on_c, 0, 84, 0
2, 50112, Note_on_c, 0, 41, 0
2, 50127, Note_on_c, 0, 72, 0
2, 50196, Control_c, 0, 64, 127
2, 50223, Note_on_c, 0, 48, 74
2, 50285, Note_on_c, 0, 79, 93
2, 50332, Note_on_c, 0, 51, 88
2, 50461, Note_on_c, 0, 75, 96
2, 50467, Note_on_c, 0, 63, 93
2, 50593, Note_on_c, 0, 60, 80
2, 50595, Note_on_c, 0, 80, 0
2, 50604, Note_on_c, 0, 80, 99
2, 50734, Note_on_c, 0, 56, 73
2, 50764, Note_on_c, 0, 79, 0
2, 50771, Note_on_c, 0, 79, 94
2, 50856, Note_on_c, 0, 51, 0
2, 50862, Note_on_c, 0, 51, 85
2, 50964, Note_on_c, 0, 56, 0
2, 50964, Note_on_c, 0, 75, 0
2, 50974, Note_on_c, 0, 56, 82
2, 50975, Note_on_c, 0, 75, 94
2, 50995, Note_on_c, 0, 68, 0
2, 51005, Note_on_c, 0, 68, 61
2, 51102, Note_on_c, 0, 80, 0
2, 51110, Note_on_c, 0, 37, 79
2, 51113, Note_on_c, 0, 80, 105
2, 51118, Note_on_c, 0, 37, 0
2, 51142, Control_c, 0, 64, 0
2, 51162, Note_on_c, 0, 79, 0
2, 51164, Note_on_c, 0, 63, 0
2, 51164, Note_on_c, 0, 68, 0
2, 51164, Note_on_c, 0, 56, 0
2, 51164, Note_on_c, 0, 60, 0
2, 51165, Note_on_c, 0, 51, 0
2, 51165, Note_on_c, 0, 75, 0
2, 51171, Note_on_c, 0, 39, 0
2, 51179, Note_on_c, 0, 48, 0
2, 51210, Control_c, 0, 64, 127
2, 51250, Note_on_c, 0, 44, 77
2, 51318, Note_on_c, 0, 79, 93
2, 51353, Note_on_c, 0, 49, 84
2, 51483, Note_on_c, 0, 75, 104
2, 51494, Note_on_c, 0, 49, 0
2, 51501, Note_on_c, 0, 49, 75
2, 51503, Note_on_c, 0, 61, 85
2, 51624, Note_on_c, 0, 56, 78
2, 51721, Note_on_c, 0, 53, 76
2, 51840, Note_on_c, 0, 49, 0
2, 51851, Note_on_c, 0, 49, 79
2, 51853, Note_on_c, 0, 96, 107
2, 51860, Note_on_c, 0, 61, 0
2, 51947, Note_on_c, 0, 53, 0
2, 51958, Note_on_c, 0, 53, 77
2, 52092, Note_on_c, 0, 94, 114
2, 52101, Note_on_c, 0, 91, 96
2, 52104, Note_on_c, 0, 39, 77
2, 52113, Note_on_c, 0, 87, 100
2, 52117, Control_c, 0, 64, 0
2, 52142, Note_on_c, 0, 75, 0
2, 52142, Note_on_c, 0, 49, 0
2, 52143, Note_on_c, 0, 56, 0
2, 52143, Note_on_c, 0, 44, 0
2, 52146, Note_on_c, 0, 79, 0
2, 52154, Note_on_c, 0, 80, 0
2, 52162, Note_on_c, 0, 53, 0
2, 52224, Note_on_c, 0, 96, 0
2, 52231, Control_c, 0, 64, 127
2, 52252, Note_on_c, 0, 46, 72
2, 52339, Note_on_c, 0, 51, 81
2, 52439, Note_on_c, 0, 91, 0
2, 52446, Note_on_c, 0, 51, 0
2, 52449, Note_on_c, 0, 91, 103
2, 52456, Note_on_c, 0, 63, 77
2, 52458, Note_on_c, 0, 51, 72
2, 52474, Note_on_c, 0, 86, 50
2, 52485, Note_on_c, 0, 86, 0
2, 52577, Note_on_c, 0, 63, 0
2, 52587, Note_on_c, 0, 63, 87
2, 52588, Note_on_c, 0, 75, 94
2, 52588, Note_on_c, 0, 85, 107
2, 52590, Note_on_c, 0, 73, 106
2, 52608, Note_on_c, 0, 39, 0
2, 52608, Note_on_c, 0, 51, 0
2, 52612, Note_on_c, 0, 51, 66
2, 52709, Note_on_c, 0, 58, 88
2, 52788, Note_on_c, 0, 84, 102
2, 52791, Note_on_c, 0, 72, 98
2, 52823, Note_on_c, 0, 51, 0
2, 52832, Note_on_c, 0, 51, 95
2, 52927, Note_on_c, 0, 55, 88
2, 52956, Note_on_c, 0, 79, 104
2, 52975, Note_on_c, 0, 67, 83
2, 53091, Note_on_c, 0, 79, 0
2, 53096, Note_on_c, 0, 82, 111
2, 53099, Note_on_c, 0, 72, 0
2, 53103, Note_on_c, 0, 79, 93
2, 53104, Note_on_c, 0, 36, 88
2, 53104, Note_on_c, 0, 72, 95
2, 53118, Note_on_c, 0, 76, 82
2, 53135, Control_c, 0, 64, 0
2, 53136, Note_on_c, 0, 91, 0
2, 53137, Note_on_c, 0, 73, 0
2, 53137, Note_on_c, 0, 51, 0
2, 53138, Note_on_c, 0, 63, 0
2, 53138, Note_on_c, 0, 67, 0
2, 53138, Note_on_c, 0, 87, 0
2, 53138, Note_on_c, 0, 46, 0
2, 53138, Note_on_c, 0, 58, 0
2, 53138, Note_on_c, 0, 85, 0
2, 53139, Note_on_c, 0, 55, 0
2, 53145, Note_on_c, 0, 75, 0
2, 53153, Note_on_c, 0, 94, 0
2, 53191, Note_on_c, 0, 36, 0
2, 53199, Note_on_c, 0, 79, 0
2, 53240, Note_on_c, 0, 43, 71
2, 53268, Control_c, 0, 64, 127
2, 53367, Note_on_c, 0, 48, 68
2, 53378, Note_on_c, 0, 47, 49
2, 53383, Note_on_c, 0, 47, 0
2, 53499, Note_on_c, 0, 52, 77
2, 53639, Note_on_c, 0, 40, 78
2, 53767, Note_on_c, 0, 48, 0
2, 53772, Note_on_c, 0, 48, 69
2, 53869, Note_on_c, 0, 80, 96
2, 53898, Note_on_c, 0, 52, 0
2, 53903, Note_on_c, 0, 52, 74
2, 53936, Note_on_c, 0, 84, 0
2, 54005, Note_on_c, 0, 80, 0
2, 54011, Note_on_c, 0, 44, 92
2, 54013, Note_on_c, 0, 72, 0
2, 54013, Note_on_c, 0, 80, 106
2, 54021, Note_on_c, 0, 44, 0
2, 54024, Note_on_c, 0, 72, 82
2, 54044, Note_on_c, 0, 76, 0
2, 54055, Note_on_c, 0, 76, 65
2, 54057, Note_on_c, 0, 82, 0
2, 54057, Note_on_c, 0, 40, 0
2, 54057, Note_on_c, 0, 48, 0
2, 54058, Control_c, 0, 64, 0
2, 54059, Note_on_c, 0, 52, 0
2, 54062, Note_on_c, 0, 43, 0
2, 54169, Note_on_c, 0, 48, 80
2, 54182, Control_c, 0, 64, 127
2, 54276, Note_on_c, 0, 52, 73
2, 54372, Control_c, 0, 64, 0
2, 54378, Note_on_c, 0, 48, 0
2, 54381, Note_on_c, 0, 52, 0
2, 54402, Note_on_c, 0, 36, 81
2, 54402, Note_on_c, 0, 24, 84
2, 54412, Note_on_c, 0, 24, 0
2, 54443, Control_c, 0, 64, 127
2, 54474, Note_on_c, 0, 36, 0
2, 54532, Note_on_c, 0, 48, 81
2, 54630, Control_c, 0, 64, 0
2, 54634, Note_on_c, 0, 48, 0
2, 54636, Note_on_c, 0, 72, 0
2, 54666, Note_on_c, 0, 76, 0
2, 54670, Note_on_c, 0, 38, 86
2, 54672, Note_on_c, 0, 85, 108
2, 54678, Note_on_c, 0, 73, 98
2, 54696, Note_on_c, 0, 80, 0
2, 54712, Control_c, 0, 64, 127
2, 54750, Note_on_c, 0, 38, 0
2, 54794, Note_on_c, 0, 50, 82
2, 54869, Note_on_c, 0, 84, 109
2, 54869, Note_on_c, 0, 72, 106
2, 54919, Note_on_c, 0, 40, 75
2, 55038, Note_on_c, 0, 79, 105
2, 55040, Note_on_c, 0, 52, 86
2, 55040, Note_on_c, 0, 67, 96
2, 55182, Note_on_c, 0, 82, 109
2, 55184, Control_c, 0, 64, 0
2, 55184, Note_on_c, 0, 41, 85
2, 55188, Note_on_c, 0, 72, 0
2, 55192, Note_on_c, 0, 77, 92
2, 55198, Note_on_c, 0, 72, 93
2, 55200, Note_on_c, 0, 73, 0
2, 55200, Note_on_c, 0, 85, 0
2, 55201, Note_on_c, 0, 50, 0
2, 55201, Note_on_c, 0, 67, 0
2, 55202, Note_on_c, 0, 84, 0
2, 55202, Note_on_c, 0, 52, 0
2, 55203, Note_on_c, 0, 79, 0
2, 55206, Note_on_c, 0, 40, 0
2, 55329, Note_on_c, 0, 48, 82
2, 55357, Note_on_c, 0, 41, 0
2, 55372, Control_c, 0, 64, 127
2, 55456, Note_on_c, 0, 53, 80
2, 55588, Note_on_c, 0, 56, 84
2, 55719, Note_on_c, 0, 53, 0
2, 55720, Note_on_c, 0, 40, 76
2, 55720, Note_on_c, 0, 56, 0
2, 55721, Note_on_c, 0, 77, 0
2, 55722, Control_c, 0, 64, 0
2, 55741, Note_on_c, 0, 48, 0
2, 55825, Control_c, 0, 64, 127
2, 55843, Note_on_c, 0, 80, 104
2, 55844, Note_on_c, 0, 48, 82
2, 55948, Note_on_c, 0, 82, 0
2, 55952, Note_on_c, 0, 56, 84
2, 55956, Note_on_c, 0, 82, 103
2, 56062, Note_on_c, 0, 80, 0
2, 56063, Note_on_c, 0, 48, 0
2, 56064, Note_on_c, 0, 72, 0
2, 56064, Control_c, 0, 64, 0
2, 56065, Note_on_c, 0, 56, 0
2, 56071, Note_on_c, 0, 40, 0
2, 56087, Note_on_c, 0, 82, 0
2, 56098, Note_on_c, 0, 84, 109
2, 56099, Note_on_c, 0, 75, 106
2, 56102, Note_on_c, 0, 72, 101
2, 56105, Note_on_c, 0, 32, 95
2, 56106, Note_on_c, 0, 44, 94
2, 56110, Note_on_c, 0, 44, 0
2, 56111, Note_on_c, 0, 39, 96
2, 56113, Note_on_c, 0, 80, 85
2, 56140, Note_on_c, 0, 32, 0
2, 56163, Control_c, 0, 64, 127
2, 56313, Note_on_c, 0, 39, 0
2, 56313, Control_c, 0, 64, 0
2, 56314, Note_on_c, 0, 75, 0
2, 56316, Note_on_c, 0, 84, 0
2, 56317, Note_on_c, 0, 72, 0
2, 56332, Note_on_c, 0, 80, 0
2, 56358, Note_on_c, 0, 85, 106
2, 56358, Note_on_c, 0, 82, 93
2, 56367, Note_on_c, 0, 73, 100
2, 56381, Note_on_c, 0, 32, 89
2, 56382, Note_on_c, 0, 44, 93
2, 56409, Control_c, 0, 64, 127
2, 56563, Note_on_c, 0, 73, 0
2, 56575, Note_on_c, 0, 82, 0
2, 56575, Note_on_c, 0, 32, 0
2, 56575, Note_on_c, 0, 44, 0
2, 56576, Note_on_c, 0, 85, 0
2, 56578, Control_c, 0, 64, 0
2, 56628, Note_on_c, 0, 87, 106
2, 56634, Note_on_c, 0, 84, 91
2, 56634, Note_on_c, 0, 75, 100
2, 56638, Note_on_c, 0, 46, 90
2, 56640, Note_on_c, 0, 34, 87
2, 56686, Control_c, 0, 64, 127
2, 56878, Note_on_c, 0, 75, 0
2, 56882, Note_on_c, 0, 80, 104
2, 56884, Control_c, 0, 64, 0
2, 56887, Note_on_c, 0, 75, 94
2, 56888, Note_on_c, 0, 68, 93
2, 56888, Note_on_c, 0, 72, 89
2, 56888, Note_on_c, 0, 32, 84
2, 56889, Note_on_c, 0, 44, 83
2, 56889, Note_on_c, 0, 46, 0
2, 56892, Note_on_c, 0, 34, 0
2, 56893, Note_on_c, 0, 84, 0
2, 56897, Note_on_c, 0, 36, 83
2, 56897, Note_on_c, 0, 87, 0
2, 56901, Note_on_c, 0, 36, 0
2, 56927, Note_on_c, 0, 32, 0
2, 56993, Control_c, 0, 64, 127
2, 57034, Note_on_c, 0, 48, 82
2, 57070, Note_on_c, 0, 44, 0
2, 57249, Note_on_c, 0, 48, 0
2, 57249, Control_c, 0, 64, 0
2, 57295, Note_on_c, 0, 46, 86
2, 57296, Note_on_c, 0, 34, 79
2, 57384, Control_c, 0, 64, 127
2, 57431, Note_on_c, 0, 80, 0
2, 57442, Note_on_c, 0, 80, 92
2, 57558, Note_on_c, 0, 79, 85
2, 57676, Note_on_c, 0, 75, 0
2, 57678, Note_on_c, 0, 56, 70
2, 57688, Note_on_c, 0, 75, 81
2, 57798, Note_on_c, 0, 55, 73
2, 57807, Note_on_c, 0, 80, 0
2, 57815, Note_on_c, 0, 80, 91
2, 57950, Note_on_c, 0, 51, 75
2, 57984, Note_on_c, 0, 79, 0
2, 57992, Note_on_c, 0, 79, 84
2, 58076, Note_on_c, 0, 34, 0
2, 58083, Note_on_c, 0, 56, 0
2, 58088, Note_on_c, 0, 56, 68
2, 58176, Note_on_c, 0, 55, 0
2, 58182, Note_on_c, 0, 55, 72
2, 58309, Note_on_c, 0, 46, 0
2, 58310, Note_on_c, 0, 51, 0
2, 58310, Note_on_c, 0, 80, 0
2, 58310, Note_on_c, 0, 79, 0
2, 58310, Note_on_c, 0, 56, 0
2, 58310, Note_on_c, 0, 55, 0
2, 58311, Note_on_c, 0, 75, 0
2, 58311, Control_c, 0, 64, 0
2, 58314, Note_on_c, 0, 68, 0
2, 58321, Note_on_c, 0, 72, 0
2, 58342, Note_on_c, 0, 48, 84
2, 58346, Note_on_c, 0, 36, 81
2, 58452, Control_c, 0, 64, 127
2, 58466, Note_on_c, 0, 80, 92
2, 58592, Note_on_c, 0, 79, 87
2, 58716, Note_on_c, 0, 56, 80
2, 58716, Note_on_c, 0, 75, 90
2, 58836, Note_on_c, 0, 80, 0
2, 58837, Note_on_c, 0, 55, 80
2, 58845, Note_on_c, 0, 80, 92
2, 58961, Note_on_c, 0, 51, 88
2, 58963, Note_on_c, 0, 82, 100
2, 59082, Note_on_c, 0, 56, 0
2, 59090, Note_on_c, 0, 56, 79
2, 59223, Note_on_c, 0, 58, 80
2, 59228, Note_on_c, 0, 36, 0
2, 59316, Control_c, 0, 64, 0
2, 59324, Note_on_c, 0, 55, 0
2, 59325, Note_on_c, 0, 48, 0
2, 59325, Note_on_c, 0, 56, 0
2, 59325, Note_on_c, 0, 79, 0
2, 59325, Note_on_c, 0, 75, 0
2, 59325, Note_on_c, 0, 51, 0
2, 59330, Note_on_c, 0, 58, 0
2, 59363, Note_on_c, 0, 49, 84
2, 59450, Control_c, 0, 64, 127
2, 59489, Note_on_c, 0, 80, 0
2, 59499, Note_on_c, 0, 80, 94
2, 59630, Note_on_c, 0, 79, 92
2, 59738, Note_on_c, 0, 56, 82
2, 59748, Note_on_c, 0, 75, 87
2, 59865, Note_on_c, 0, 55, 77
2, 59865, Note_on_c, 0, 80, 0
2, 59871, Note_on_c, 0, 80, 98
2, 59988, Note_on_c, 0, 82, 0
2, 59992, Note_on_c, 0, 51, 89
2, 59995, Note_on_c, 0, 82, 98
2, 60111, Note_on_c, 0, 56, 0
2, 60120, Note_on_c, 0, 56, 80
2, 60244, Note_on_c, 0, 58, 86
2, 60244, Note_on_c, 0, 85, 102
2, 60340, Note_on_c, 0, 79, 0
2, 60341, Note_on_c, 0, 75, 0
2, 60342, Note_on_c, 0, 82, 0
2, 60342, Note_on_c, 0, 80, 0
2, 60342, Note_on_c, 0, 49, 0
2, 60343, Note_on_c, 0, 56, 0
2, 60343, Note_on_c, 0, 51, 0
2, 60344, Control_c, 0, 64, 0
2, 60344, Note_on_c, 0, 55, 0
2, 60345, Note_on_c, 0, 58, 0
2, 60369, Note_on_c, 0, 39, 77
2, 60449, Control_c, 0, 64, 127
2, 60464, Note_on_c, 0, 39, 0
2, 60497, Note_on_c, 0, 51, 81
2, 60631, Note_on_c, 0, 84, 100
2, 60642, Note_on_c, 0, 60, 82
2, 60779, Note_on_c, 0, 51, 0
2, 60784, Note_on_c, 0, 51, 74
2, 60893, Note_on_c, 0, 82, 100
2, 60904, Note_on_c, 0, 61, 80
2, 61032, Note_on_c, 0, 51, 0
2, 61039, Note_on_c, 0, 51, 81
2, 61144, Note_on_c, 0, 80, 105
2, 61155, Note_on_c, 0, 51, 0
2, 61155, Note_on_c, 0, 61, 0
2, 61165, Note_on_c, 0, 61, 66
2, 61166, Note_on_c, 0, 51, 70
2, 61166, Note_on_c, 0, 75, 83
2, 61263, Note_on_c, 0, 51, 0
2, 61272, Note_on_c, 0, 51, 75
2, 61404, Note_on_c, 0, 46, 93
2, 61411, Control_c, 0, 64, 0
2, 61412, Note_on_c, 0, 85, 0
2, 61412, Note_on_c, 0, 60, 0
2, 61413, Note_on_c, 0, 82, 0
2, 61413, Note_on_c, 0, 80, 0
2, 61413, Note_on_c, 0, 84, 0
2, 61424, Note_on_c, 0, 51, 0
2, 61424, Note_on_c, 0, 61, 0
2, 61424, Note_on_c, 0, 75, 0
2, 61493, Control_c, 0, 64, 127
2, 61533, Note_on_c, 0, 92, 106
2, 61542, Note_on_c, 0, 53, 80
2, 61543, Note_on_c, 0, 80, 87
2, 61656, Note_on_c, 0, 91, 104
2, 61666, Note_on_c, 0, 58, 81
2, 61668, Note_on_c, 0, 79, 79
2, 61780, Note_on_c, 0, 75, 94
2, 61787, Note_on_c, 0, 87, 97
2, 61796, Note_on_c, 0, 68, 91
2, 61900, Note_on_c, 0, 92, 0
2, 61908, Note_on_c, 0, 80, 0
2, 61911, Note_on_c, 0, 92, 111
2, 61912, Note_on_c, 0, 67, 80
2, 61919, Note_on_c, 0, 80, 91
2, 62023, Note_on_c, 0, 91, 0
2, 62031, Note_on_c, 0, 79, 0
2, 62033, Note_on_c, 0, 91, 110
2, 62038, Note_on_c, 0, 63, 86
2, 62042, Note_on_c, 0, 79, 94
2, 62169, Note_on_c, 0, 68, 0
2, 62177, Note_on_c, 0, 68, 85
2, 62277, Note_on_c, 0, 67, 0
2, 62285, Note_on_c, 0, 67, 85
2, 62426, Note_on_c, 0, 48, 89
2, 62430, Note_on_c, 0, 46, 0
2, 62433, Control_c, 0, 64, 0
2, 62436, Note_on_c, 0, 63, 0
2, 62437, Note_on_c, 0, 58, 0
2, 62437, Note_on_c, 0, 80, 0
2, 62438, Note_on_c, 0, 92, 0
2, 62438, Note_on_c, 0, 53, 0
2, 62438, Note_on_c, 0, 87, 0
2, 62438, Note_on_c, 0, 68, 0
2, 62440, Note_on_c, 0, 79, 0
2, 62453, Note_on_c, 0, 67, 0
2, 62453, Note_on_c, 0, 75, 0
2, 62461, Note_on_c, 0, 91, 0
2, 62511, Note_on_c, 0, 48, 0
2, 62515, Control_c, 0, 64, 127
2, 62557, Note_on_c, 0, 92, 111
2, 62564, Note_on_c, 0, 55, 81
2, 62566, Note_on_c, 0, 80, 88
2, 62589, Note_on_c, 0, 90, 66
2, 62680, Note_on_c, 0, 91, 108
2, 62681, Note_on_c, 0, 60, 78
2, 62684, Note_on_c, 0, 79, 86
2, 62806, Note_on_c, 0, 75, 96
2, 62808, Note_on_c, 0, 68, 95
2, 62808, Note_on_c, 0, 87, 101
2, 62922, Note_on_c, 0, 92, 0
2, 62924, Note_on_c, 0, 67, 87
2, 62927, Note_on_c, 0, 92, 113
2, 62937, Note_on_c, 0, 80, 0
2, 62946, Note_on_c, 0, 80, 86
2, 63052, Note_on_c, 0, 60, 0
2, 63054, Note_on_c, 0, 94, 116
2, 63055, Note_on_c, 0, 63, 77
2, 63056, Note_on_c, 0, 82, 103
2, 63058, Note_on_c, 0, 60, 71
2, 63175, Note_on_c, 0, 68, 0
2, 63180, Note_on_c, 0, 68, 92
2, 63306, Note_on_c, 0, 92, 0
2, 63308, Note_on_c, 0, 96, 112
2, 63310, Note_on_c, 0, 84, 112
2, 63313, Note_on_c, 0, 90, 0
2, 63317, Note_on_c, 0, 92, 103
2, 63319, Note_on_c, 0, 89, 102
2, 63346, Note_on_c, 0, 82, 0
2, 63347, Note_on_c, 0, 94, 0
2, 63348, Note_on_c, 0, 87, 0
2, 63348, Note_on_c, 0, 91, 0
2, 63348, Note_on_c, 0, 80, 0
2, 63348, Note_on_c, 0, 68, 0
2, 63348, Note_on_c, 0, 60, 0
2, 63348, Note_on_c, 0, 75, 0
2, 63348, Note_on_c, 0, 79, 0
2, 63348, Note_on_c, 0, 63, 0
2, 63348, Note_on_c, 0, 55, 0
2, 63352, Note_on_c, 0, 67, 0
2, 63354, Control_c, 0, 64, 0
2, 63449, Note_on_c, 0, 49, 79
2, 63590, Control_c, 0, 64, 127
2, 63595, Note_on_c, 0, 56, 68
2, 63725, Note_on_c, 0, 61, 72
2, 63833, Note_on_c, 0, 63, 70
2, 63948, Note_on_c, 0, 65, 77
2, 64080, Note_on_c, 0, 67, 80
2, 64214, Note_on_c, 0, 68, 86
2, 64338, Note_on_c, 0, 70, 87
2, 64426, Control_c, 0, 64, 0
2, 64433, Note_on_c, 0, 65, 0
2, 64433, Note_on_c, 0, 68, 0
2, 64435, Note_on_c, 0, 92, 0
2, 64435, Note_on_c, 0, 84, 0
2, 64435, Note_on_c, 0, 61, 0
2, 64437, Note_on_c, 0, 49, 0
2, 64437, Note_on_c, 0, 67, 0
2, 64438, Note_on_c, 0, 56, 0
2, 64448, Note_on_c, 0, 70, 0
2, 64450, Note_on_c, 0, 96, 0
2, 64458, Note_on_c, 0, 89, 0
2, 64465, Note_on_c, 0, 63, 0
2, 64470, Note_on_c, 0, 72, 95
2, 64476, Note_on_c, 0, 63, 93
2, 64477, Note_on_c, 0, 51, 88
2, 64527, Control_c, 0, 64, 127
2, 64739, Note_on_c, 0, 51, 0
2, 64739, Note_on_c, 0, 63, 0
2, 64740, Note_on_c, 0, 72, 0
2, 64747, Control_c, 0, 64, 0
2, 64748, Note_on_c, 0, 85, 107
2, 64753, Note_on_c, 0, 73, 104
2, 65019, Note_on_c, 0, 84, 110
2, 65021, Note_on_c, 0, 72, 101
2, 65080, Control_c, 0, 64, 127
2, 65095, Note_on_c, 0, 73, 0
2, 65283, Note_on_c, 0, 79, 100
2, 65287, Note_on_c, 0, 67, 94
2, 65514, Control_c, 0, 64, 0
2, 65515, Note_on_c, 0, 67, 0
2, 65515, Note_on_c, 0, 84, 0
2, 65516, Note_on_c, 0, 79, 0
2, 65516, Note_on_c, 0, 85, 0
2, 65541, Note_on_c, 0, 72, 0
2, 65546, Note_on_c, 0, 80, 104
2, 65549, Note_on_c, 0, 68, 98
2, 65550, Note_on_c, 0, 75, 98
2, 65551, Note_on_c, 0, 72, 93
2, 65558, Note_on_c, 0, 41, 90
2, 65562, Note_on_c, 0, 29, 93
2, 65571, Note_on_c, 0, 29, 0
2, 65640, Control_c, 0, 64, 127
2, 65656, Note_on_c, 0, 41, 0
2, 65710, Note_on_c, 0, 80, 0
2, 65828, Note_on_c, 0, 41, 79
2, 65829, Note_on_c, 0, 53, 78
2, 65832, Note_on_c, 0, 75, 0
2, 65926, Note_on_c, 0, 53, 0
2, 65927, Note_on_c, 0, 41, 0
2, 65928, Note_on_c, 0, 72, 0
2, 65929, Note_on_c, 0, 68, 0
2, 65930, Control_c, 0, 64, 0
2, 65964, Note_on_c, 0, 67, 93
2, 65965, Note_on_c, 0, 55, 94
2, 65967, Note_on_c, 0, 63, 84
2, 65967, Note_on_c, 0, 51, 84
2, 65969, Note_on_c, 0, 39, 82
2, 65978, Note_on_c, 0, 63, 0
2, 66028, Note_on_c, 0, 51, 0
2, 66040, Note_on_c, 0, 55, 0
2, 66055, Note_on_c, 0, 67, 0
2, 66063, Note_on_c, 0, 39, 0
2, 66221, Note_on_c, 0, 67, 97
2, 66228, Note_on_c, 0, 55, 89
2, 66229, Note_on_c, 0, 58, 85
2, 66232, Note_on_c, 0, 63, 88
2, 66241, Note_on_c, 0, 51, 85
2, 66249, Note_on_c, 0, 39, 79
2, 66301, Control_c, 0, 64, 127
2, 66416, Control_c, 0, 64, 0
2, 66420, Note_on_c, 0, 55, 0
2, 66421, Note_on_c, 0, 51, 0
2, 66421, Note_on_c, 0, 67, 0
2, 66422, Note_on_c, 0, 63, 0
2, 66422, Note_on_c, 0, 58, 0
2, 66462, Note_on_c, 0, 39, 0
2, 66489, Note_on_c, 0, 65, 90
2, 66495, Note_on_c, 0, 53, 83
2, 66501, Note_on_c, 0, 49, 82
2, 66504, Note_on_c, 0, 56, 77
2, 66505, Note_on_c, 0, 37, 79
2, 66505, Note_on_c, 0, 61, 76
2, 66584, Note_on_c, 0, 49, 0
2, 66587, Note_on_c, 0, 61, 0
2, 66595, Note_on_c, 0, 65, 0
2, 66600, Note_on_c, 0, 53, 0
2, 66608, Note_on_c, 0, 37, 0
2, 66608, Note_on_c, 0, 56, 0
2, 66762, Note_on_c, 0, 65, 92
2, 66766, Note_on_c, 0, 53, 83
2, 66772, Note_on_c, 0, 56, 78
2, 66772, Note_on_c, 0, 49, 85
2, 66773, Note_on_c, 0, 61, 79
2, 66775, Note_on_c, 0, 37, 81
2, 66807, Note_on_c, 0, 53, 0
2, 66810, Note_on_c, 0, 56, 0
2, 66811, Note_on_c, 0, 49, 0
2, 66839, Note_on_c, 0, 65, 0
2, 66854, Note_on_c, 0, 61, 0
2, 66862, Control_c, 0, 64, 127
2, 66869, Note_on_c, 0, 37, 0
2, 66951, Control_c, 0, 64, 0
2, 67025, Note_on_c, 0, 68, 95
2, 67026, Note_on_c, 0, 63, 86
2, 67028, Note_on_c, 0, 60, 85
2, 67029, Note_on_c, 0, 51, 88
2, 67031, Note_on_c, 0, 39, 83
2, 67035, Note_on_c, 0, 56, 83
2, 67036, Note_on_c, 0, 48, 82
2, 67123, Note_on_c, 0, 48, 0
2, 67176, Note_on_c, 0, 51, 0
2, 67176, Note_on_c, 0, 60, 0
2, 67200, Note_on_c, 0, 56, 0
2, 67200, Note_on_c, 0, 63, 0
2, 67246, Note_on_c, 0, 68, 0
2, 67261, Note_on_c, 0, 39, 0
2, 67289, Note_on_c, 0, 67, 93
2, 67295, Note_on_c, 0, 55, 96
2, 67297, Note_on_c, 0, 49, 82
2, 67297, Note_on_c, 0, 63, 83
2, 67303, Note_on_c, 0, 58, 88
2, 67304, Note_on_c, 0, 46, 82
2, 67305, Note_on_c, 0, 39, 79
2, 67330, Note_on_c, 0, 49, 0
2, 67334, Note_on_c, 0, 55, 0
2, 67334, Note_on_c, 0, 67, 0
2, 67341, Note_on_c, 0, 58, 0
2, 67342, Note_on_c, 0, 46, 0
2, 67376, Note_on_c, 0, 39, 0
2, 67384, Note_on_c, 0, 63, 0
2, 67579, Note_on_c, 0, 68, 101
2, 67580, Note_on_c, 0, 63, 84
2, 67585, Note_on_c, 0, 60, 88
2, 67586, Note_on_c, 0, 56, 90
2, 67587, Note_on_c, 0, 44, 88
2, 67587, Note_on_c, 0, 32, 86
2, 68106, Control_c, 0, 64, 127
2, 68359, Note_on_c, 0, 56, 0
2, 68366, Note_on_c, 0, 56, 74
2, 68507, Note_on_c, 0, 58, 70
2, 68613, Note_on_c, 0, 56, 0
2, 68613, Note_on_c, 0, 60, 0
2, 68617, Note_on_c, 0, 60, 71
2, 68623, Note_on_c, 0, 56, 60
2, 68698, Note_on_c, 0, 61, 67
2, 68751, Note_on_c, 0, 63, 0
2, 68756, Note_on_c, 0, 63, 75
2, 68831, Note_on_c, 0, 65, 77
2, 68895, Note_on_c, 0, 67, 76
2, 68958, Note_on_c, 0, 68, 0
2, 68962, Note_on_c, 0, 68, 77
2, 69028, Note_on_c, 0, 70, 79
2, 69066, Note_on_c, 0, 60, 0
2, 69077, Note_on_c, 0, 60, 77
2, 69093, Note_on_c, 0, 72, 79
2, 69150, Note_on_c, 0, 58, 0
2, 69155, Note_on_c, 0, 58, 71
2, 69157, Note_on_c, 0, 73, 78
2, 69189, Note_on_c, 0, 56, 0
2, 69193, Note_on_c, 0, 56, 76
2, 69201, Note_on_c, 0, 75, 81
2, 69265, Note_on_c, 0, 77, 83
2, 69275, Note_on_c, 0, 55, 76
2, 69321, Note_on_c, 0, 79, 81
2, 69355, Note_on_c, 0, 80, 84
2, 69359, Note_on_c, 0, 51, 78
2, 69384, Note_on_c, 0, 82, 80
2, 69429, Note_on_c, 0, 49, 68
2, 69430, Note_on_c, 0, 84, 95
2, 69499, Note_on_c, 0, 85, 93
2, 69580, Note_on_c, 0, 65, 0
2, 69580, Control_c, 0, 64, 0
2, 69583, Note_on_c, 0, 58, 0
2, 69583, Note_on_c, 0, 67, 0
2, 69583, Note_on_c, 0, 55, 0
2, 69584, Note_on_c, 0, 61, 0
2, 69584, Note_on_c, 0, 80, 0
2, 69584, Note_on_c, 0, 68, 0
2, 69584, Note_on_c, 0, 70, 0
2, 69584, Note_on_c, 0, 77, 0
2, 69584, Note_on_c, 0, 75, 0
2, 69584, Note_on_c, 0, 79, 0
2, 69584, Note_on_c, 0, 56, 0
2, 69584, Note_on_c, 0, 82, 0
2, 69584, Note_on_c, 0, 72, 0
2, 69584, Note_on_c, 0, 73, 0
2, 69585, Note_on_c, 0, 84, 0
2, 69585, Note_on_c, 0, 85, 0
2, 69588, Note_on_c, 0, 32, 0
2, 69588, Note_on_c, 0, 49, 0
2, 69590, Note_on_c, 0, 37, 81
2, 69592, Note_on_c, 0, 49, 83
2, 69595, Note_on_c, 0, 99, 105
2, 69596, Note_on_c, 0, 37, 0
2, 69596, Note_on_c, 0, 63, 0
2, 69598, Note_on_c, 0, 87, 109
2, 69603, Note_on_c, 0, 44, 0
2, 69603, Note_on_c, 0, 49, 0
2, 69603, Note_on_c, 0, 51, 0
2, 69603, Note_on_c, 0, 60, 0
2, 69603, Note_on_c, 0, 99, 0
2, 69741, Note_on_c, 0, 49, 79
2, 69749, Control_c, 0, 64, 127
2, 69875, Note_on_c, 0, 53, 76
2, 69987, Note_on_c, 0, 49, 0
2, 69991, Note_on_c, 0, 67, 86
2, 69994, Note_on_c, 0, 49, 66
2, 69997, Note_on_c, 0, 56, 75
2, 70126, Note_on_c, 0, 53, 0
2, 70134, Note_on_c, 0, 53, 76
2, 70156, Note_on_c, 0, 87, 0
2, 70268, Note_on_c, 0, 61, 79
2, 70272, Note_on_c, 0, 49, 0
2, 70275, Note_on_c, 0, 68, 84
2, 70279, Note_on_c, 0, 49, 67
2, 70348, Note_on_c, 0, 53, 0
2, 70355, Note_on_c, 0, 53, 74
2, 70457, Note_on_c, 0, 49, 0
2, 70457, Note_on_c, 0, 53, 0
2, 70457, Note_on_c, 0, 61, 0
2, 70458, Note_on_c, 0, 67, 0
2, 70458, Note_on_c, 0, 56, 0
2, 70459, Control_c, 0, 64, 0
2, 70504, Note_on_c, 0, 63, 88
2, 70512, Note_on_c, 0, 51, 82
2, 70521, Note_on_c, 0, 39, 73
2, 70609, Control_c, 0, 64, 127
2, 70768, Note_on_c, 0, 55, 80
2, 70913, Note_on_c, 0, 79, 91
2, 70914, Note_on_c, 0, 58, 76
2, 71016, Note_on_c, 0, 55, 0
2, 71019, Note_on_c, 0, 73, 60
2, 71024, Note_on_c, 0, 73, 0
2, 71025, Note_on_c, 0, 55, 80
2, 71155, Note_on_c, 0, 63, 0
2, 71162, Note_on_c, 0, 63, 79
2, 71166, Note_on_c, 0, 80, 97
2, 71285, Note_on_c, 0, 55, 0
2, 71296, Note_on_c, 0, 85, 105
2, 71296, Note_on_c, 0, 55, 79
2, 71304, Note_on_c, 0, 73, 93
2, 71408, Note_on_c, 0, 58, 0
2, 71414, Note_on_c, 0, 58, 73
2, 71417, Note_on_c, 0, 84, 104
2, 71425, Note_on_c, 0, 72, 95
2, 71485, Note_on_c, 0, 55, 0
2, 71495, Note_on_c, 0, 55, 76
2, 71531, Note_on_c, 0, 73, 0
2, 71531, Note_on_c, 0, 85, 0
2, 71535, Note_on_c, 0, 85, 105
2, 71539, Note_on_c, 0, 79, 0
2, 71540, Note_on_c, 0, 73, 89
2, 71544, Note_on_c, 0, 79, 73
2, 71636, Control_c, 0, 64, 0
2, 71639, Note_on_c, 0, 68, 0
2, 71646, Note_on_c, 0, 63, 0
2, 71648, Note_on_c, 0, 84, 0
2, 71648, Note_on_c, 0, 73, 0
2, 71649, Note_on_c, 0, 85, 0
2, 71649, Note_on_c, 0, 79, 0
2, 71649, Note_on_c, 0, 51, 0
2, 71649, Note_on_c, 0, 72, 0
2, 71649, Note_on_c, 0, 80, 0
2, 71649, Note_on_c, 0, 58, 0
2, 71663, Note_on_c, 0, 36, 85
2, 71664, Note_on_c, 0, 87, 110
2, 71664, Note_on_c, 0, 75, 107
2, 71669, Note_on_c, 0, 39, 0
2, 71669, Note_on_c, 0, 55, 0
2, 71746, Control_c, 0, 64, 127
2, 71797, Note_on_c, 0, 48, 71
2, 71915, Note_on_c, 0, 51, 78
2, 72047, Note_on_c, 0, 56, 78
2, 72049, Note_on_c, 0, 67, 87
2, 72176, Note_on_c, 0, 51, 0
2, 72185, Note_on_c, 0, 51, 74
2, 72320, Note_on_c, 0, 68, 88
2, 72325, Note_on_c, 0, 60, 75
2, 72422, Note_on_c, 0, 51, 0
2, 72433, Note_on_c, 0, 51, 80
2, 72518, Control_c, 0, 64, 0
2, 72518, Note_on_c, 0, 60, 0
2, 72519, Note_on_c, 0, 48, 0
2, 72519, Note_on_c, 0, 67, 0
2, 72537, Note_on_c, 0, 36, 0
2, 72545, Note_on_c, 0, 51, 0
2, 72576, Note_on_c, 0, 87, 0
2, 72578, Note_on_c, 0, 63, 86
2, 72588, Note_on_c, 0, 49, 78
2, 72637, Control_c, 0, 64, 127
2, 72831, Note_on_c, 0, 53, 76
2, 72967, Note_on_c, 0, 56, 0
2, 72978, Note_on_c, 0, 56, 80
2, 72988, Note_on_c, 0, 79, 94
2, 73113, Note_on_c, 0, 53, 0
2, 73117, Note_on_c, 0, 53, 62
2, 73232, Note_on_c, 0, 80, 95
2, 73232, Note_on_c, 0, 61, 83
2, 73348, Note_on_c, 0, 84, 105
2, 73351, Note_on_c, 0, 53, 0
2, 73355, Note_on_c, 0, 53, 81
2, 73355, Note_on_c, 0, 72, 89
2, 73466, Note_on_c, 0, 56, 0
2, 73466, Note_on_c, 0, 61, 0
2, 73471, Note_on_c, 0, 61, 73
2, 73472, Note_on_c, 0, 85, 102
2, 73473, Note_on_c, 0, 56, 86
2, 73473, Note_on_c, 0, 73, 95
2, 73536, Note_on_c, 0, 53, 0
2, 73540, Note_on_c, 0, 53, 82
2, 73595, Note_on_c, 0, 87, 106
2, 73597, Note_on_c, 0, 75, 0
2, 73605, Note_on_c, 0, 75, 94
2, 73695, Note_on_c, 0, 79, 0
2, 73698, Note_on_c, 0, 80, 0
2, 73699, Note_on_c, 0, 63, 0
2, 73699, Note_on_c, 0, 75, 0
2, 73699, Note_on_c, 0, 49, 0
2, 73699, Note_on_c, 0, 73, 0
2, 73700, Note_on_c, 0, 85, 0
2, 73700, Note_on_c, 0, 56, 0
2, 73700, Note_on_c, 0, 72, 0
2, 73700, Control_c, 0, 64, 0
2, 73700, Note_on_c, 0, 84, 0
2, 73700, Note_on_c, 0, 53, 0
2, 73700, Note_on_c, 0, 87, 0
2, 73704, Note_on_c, 0, 68, 0
2, 73712, Note_on_c, 0, 61, 0
2, 73723, Note_on_c, 0, 89, 114
2, 73723, Note_on_c, 0, 34, 87
2, 73724, Note_on_c, 0, 46, 86
2, 73725, Note_on_c, 0, 77, 100
2, 73789, Control_c, 0, 64, 127
2, 73843, Note_on_c, 0, 46, 0
2, 73850, Note_on_c, 0, 46, 90
2, 73973, Note_on_c, 0, 53, 76
2, 74094, Note_on_c, 0, 67, 94
2, 74100, Note_on_c, 0, 58, 83
2, 74227, Note_on_c, 0, 53, 0
2, 74235, Note_on_c, 0, 53, 79
2, 74364, Note_on_c, 0, 61, 78
2, 74367, Note_on_c, 0, 68, 89
2, 74449, Note_on_c, 0, 53, 0
2, 74458, Note_on_c, 0, 53, 69
2, 74589, Control_c, 0, 64, 0
2, 74591, Note_on_c, 0, 53, 0
2, 74591, Note_on_c, 0, 68, 0
2, 74591, Note_on_c, 0, 46, 0
2, 74591, Note_on_c, 0, 58, 0
2, 74591, Note_on_c, 0, 61, 0
2, 74591, Note_on_c, 0, 67, 0
2, 74595, Note_on_c, 0, 89, 0
2, 74611, Note_on_c, 0, 34, 0
2, 74611, Note_on_c, 0, 77, 0
2, 74613, Note_on_c, 0, 75, 107
2, 74614, Note_on_c, 0, 87, 111
2, 74630, Note_on_c, 0, 48, 91
2, 74688, Control_c, 0, 64, 127
2, 74845, Note_on_c, 0, 51, 77
2, 74888, Note_on_c, 0, 68, 66
2, 74998, Note_on_c, 0, 56, 66
2, 75003, Note_on_c, 0, 70, 80
2, 75110, Note_on_c, 0, 51, 0
2, 75114, Note_on_c, 0, 51, 72
2, 75116, Note_on_c, 0, 72, 89
2, 75244, Note_on_c, 0, 60, 75
2, 75363, Note_on_c, 0, 51, 0
2, 75366, Note_on_c, 0, 85, 104
2, 75368, Note_on_c, 0, 73, 94
2, 75374, Note_on_c, 0, 51, 83
2, 75479, Note_on_c, 0, 56, 0
2, 75479, Note_on_c, 0, 72, 0
2, 75483, Note_on_c, 0, 84, 107
2, 75483, Note_on_c, 0, 56, 81
2, 75487, Note_on_c, 0, 72, 89
2, 75508, Note_on_c, 0, 60, 0
2, 75548, Note_on_c, 0, 51, 0
2, 75552, Note_on_c, 0, 63, 65
2, 75552, Note_on_c, 0, 51, 69
2, 75617, Note_on_c, 0, 51, 0
2, 75617, Note_on_c, 0, 68, 0
2, 75622, Note_on_c, 0, 80, 105
2, 75623, Note_on_c, 0, 68, 99
2, 75628, Note_on_c, 0, 51, 68
2, 75671, Note_on_c, 0, 48, 0
2, 75676, Note_on_c, 0, 48, 56
2, 75693, Control_c, 0, 64, 0
2, 75701, Note_on_c, 0, 84, 0
2, 75703, Note_on_c, 0, 85, 0
2, 75704, Note_on_c, 0, 72, 0
2, 75704, Note_on_c, 0, 73, 0
2, 75704, Note_on_c, 0, 56, 0
2, 75704, Note_on_c, 0, 87, 0
2, 75705, Note_on_c, 0, 63, 0
2, 75705, Note_on_c, 0, 70, 0
2, 75705, Note_on_c, 0, 75, 0
2, 75732, Note_on_c, 0, 48, 0
2, 75760, Note_on_c, 0, 37, 68
2, 75763, Control_c, 0, 64, 127
2, 75786, Note_on_c, 0, 51, 0
2, 75882, Note_on_c, 0, 65, 85
2, 75883, Note_on_c, 0, 77, 76
2, 75889, Note_on_c, 0, 44, 70
2, 75992, Note_on_c, 0, 49, 78
2, 76021, Note_on_c, 0, 63, 77
2, 76021, Note_on_c, 0, 75, 78
2, 76134, Note_on_c, 0, 61, 89
2, 76135, Note_on_c, 0, 51, 77
2, 76262, Note_on_c, 0, 53, 79
2, 76372, Note_on_c, 0, 55, 89
2, 76373, Note_on_c, 0, 79, 97
2, 76380, Note_on_c, 0, 67, 87
2, 76482, Note_on_c, 0, 58, 83
2, 76485, Note_on_c, 0, 61, 0
2, 76485, Note_on_c, 0, 77, 0
2, 76492, Note_on_c, 0, 65, 0
2, 76495, Note_on_c, 0, 77, 101
2, 76496, Note_on_c, 0, 61, 59
2, 76502, Note_on_c, 0, 65, 88
2, 76551, Control_c, 0, 64, 0
2, 76555, Note_on_c, 0, 61, 0
2, 76556, Note_on_c, 0, 65, 0
2, 76556, Note_on_c, 0, 77, 0
2, 76557, Note_on_c, 0, 67, 0
2, 76557, Note_on_c, 0, 53, 0
2, 76557, Note_on_c, 0, 58, 0
2, 76557, Note_on_c, 0, 55, 0
2, 76557, Note_on_c, 0, 63, 0
2, 76557, Note_on_c, 0, 44, 0
2, 76558, Note_on_c, 0, 79, 0
2, 76561, Note_on_c, 0, 37, 0
2, 76569, Note_on_c, 0, 68, 0
2, 76569, Note_on_c, 0, 75, 0
2, 76569, Note_on_c, 0, 80, 0
2, 76577, Note_on_c, 0, 49, 0
2, 76577, Note_on_c, 0, 51, 0
2, 76642, Note_on_c, 0, 75, 106
2, 76644, Note_on_c, 0, 39, 94
2, 76644, Note_on_c, 0, 51, 96
2, 76648, Note_on_c, 0, 63, 98
2, 76661, Control_c, 0, 64, 127
2, 76668, Note_on_c, 0, 76, 69
2, 76822, Control_c, 0, 64, 0
2, 76823, Note_on_c, 0, 76, 0
2, 76827, Note_on_c, 0, 51, 0
2, 76846, Note_on_c, 0, 39, 0
2, 76846, Note_on_c, 0, 75, 0
2, 76853, Note_on_c, 0, 63, 0
2, 76895, Note_on_c, 0, 73, 91
2, 76900, Note_on_c, 0, 61, 72
2, 76929, Note_on_c, 0, 73, 0
2, 76934, Note_on_c, 0, 61, 0
2, 77026, Note_on_c, 0, 72, 86
2, 77031, Note_on_c, 0, 60, 70
2, 77057, Note_on_c, 0, 72, 0
2, 77066, Note_on_c, 0, 60, 0
2, 77149, Note_on_c, 0, 70, 91
2, 77157, Note_on_c, 0, 58, 79
2, 77182, Note_on_c, 0, 70, 0
2, 77182, Note_on_c, 0, 58, 0
2, 77270, Note_on_c, 0, 68, 85
2, 77288, Note_on_c, 0, 56, 75
2, 77315, Note_on_c, 0, 68, 0
2, 77337, Note_on_c, 0, 56, 0
2, 77393, Note_on_c, 0, 67, 89
2, 77394, Note_on_c, 0, 55, 85
2, 77426, Note_on_c, 0, 67, 0
2, 77428, Note_on_c, 0, 55, 0
2, 77520, Note_on_c, 0, 70, 82
2, 77523, Note_on_c, 0, 58, 80
2, 77553, Note_on_c, 0, 70, 0
2, 77553, Note_on_c, 0, 58, 0
2, 77621, Control_c, 0, 64, 127
2, 77656, Note_on_c, 0, 51, 77
2, 77656, Note_on_c, 0, 63, 88
2, 77823, Note_on_c, 0, 51, 0
2, 77825, Note_on_c, 0, 63, 0
2, 77832, Control_c, 0, 64, 0
2, 77915, Note_on_c, 0, 85, 92
2, 77922, Note_on_c, 0, 73, 75
2, 77948, Note_on_c, 0, 85, 0
2, 77948, Note_on_c, 0, 73, 0
2, 78033, Note_on_c, 0, 84, 82
2, 78066, Note_on_c, 0, 83, 49
2, 78079, Note_on_c, 0, 84, 0
2, 78090, Note_on_c, 0, 83, 0
2, 78163, Note_on_c, 0, 82, 96
2, 78172, Note_on_c, 0, 70, 83
2, 78193, Note_on_c, 0, 82, 0
2, 78193, Note_on_c, 0, 70, 0
2, 78298, Note_on_c, 0, 80, 77
2, 78299, Note_on_c, 0, 68, 69
2, 78326, Note_on_c, 0, 68, 0
2, 78328, Note_on_c, 0, 80, 0
2, 78413, Note_on_c, 0, 79, 89
2, 78416, Note_on_c, 0, 67, 72
2, 78436, Note_on_c, 0, 79, 0
2, 78442, Note_on_c, 0, 67, 0
2, 78538, Note_on_c, 0, 82, 96
2, 78539, Note_on_c, 0, 70, 86
2, 78574, Control_c, 0, 64, 127
2, 78674, Note_on_c, 0, 63, 69
2, 78676, Note_on_c, 0, 75, 85
2, 78874, Note_on_c, 0, 75, 0
2, 78876, Note_on_c, 0, 63, 0
2, 78877, Control_c, 0, 64, 0
2, 78877, Note_on_c, 0, 82, 0
2, 78881, Note_on_c, 0, 70, 0
2, 78909, Note_on_c, 0, 51, 104
2, 78915, Note_on_c, 0, 39, 102
2, 78916, Note_on_c, 0, 27, 89
2, 78958, Note_on_c, 0, 27, 0
2, 78972, Note_on_c, 0, 75, 107
2, 78974, Note_on_c, 0, 63, 99
2, 79004, Note_on_c, 0, 51, 0
2, 79036, Note_on_c, 0, 49, 102
2, 79038, Note_on_c, 0, 37, 93
2, 79050, Note_on_c, 0, 75, 0
2, 79065, Note_on_c, 0, 39, 0
2, 79073, Note_on_c, 0, 63, 0
2, 79083, Note_on_c, 0, 73, 104
2, 79085, Note_on_c, 0, 61, 99
2, 79101, Note_on_c, 0, 49, 0
2, 79107, Note_on_c, 0, 37, 0
2, 79110, Note_on_c, 0, 73, 0
2, 79142, Note_on_c, 0, 61, 0
2, 79161, Note_on_c, 0, 36, 88
2, 79165, Note_on_c, 0, 48, 93
2, 79189, Note_on_c, 0, 60, 84
2, 79190, Note_on_c, 0, 72, 99
2, 79211, Note_on_c, 0, 48, 0
2, 79215, Note_on_c, 0, 60, 0
2, 79217, Note_on_c, 0, 72, 0
2, 79219, Note_on_c, 0, 36, 0
2, 79280, Note_on_c, 0, 46, 100
2, 79282, Note_on_c, 0, 34, 95
2, 79308, Note_on_c, 0, 70, 95
2, 79313, Note_on_c, 0, 58, 86
2, 79322, Note_on_c, 0, 46, 0
2, 79348, Note_on_c, 0, 70, 0
2, 79353, Note_on_c, 0, 58, 0
2, 79357, Note_on_c, 0, 34, 0
2, 79414, Note_on_c, 0, 44, 95
2, 79414, Note_on_c, 0, 32, 90
2, 79420, Note_on_c, 0, 56, 89
2, 79421, Note_on_c, 0, 68, 98
2, 79461, Note_on_c, 0, 68, 0
2, 79462, Note_on_c, 0, 44, 0
2, 79466, Note_on_c, 0, 56, 0
2, 79466, Note_on_c, 0, 32, 0
2, 79540, Note_on_c, 0, 67, 101
2, 79544, Note_on_c, 0, 55, 93
2, 79545, Note_on_c, 0, 31, 92
2, 79546, Note_on_c, 0, 43, 83
2, 79576, Note_on_c, 0, 67, 0
2, 79576, Note_on_c, 0, 55, 0
2, 79576, Note_on_c, 0, 43, 0
2, 79578, Note_on_c, 0, 31, 0
2, 79667, Note_on_c, 0, 68, 108
2, 79669, Note_on_c, 0, 63, 88
2, 79669, Note_on_c, 0, 44, 100
2, 79670, Note_on_c, 0, 56, 99
2, 79670, Note_on_c, 0, 32, 95
2, 79677, Note_on_c, 0, 60, 82
2, 79810, Control_c, 0, 64, 127
2, 79925, Note_on_c, 0, 63, 0
2, 79929, Note_on_c, 0, 63, 73
2, 79956, Note_on_c, 0, 68, 0
2, 79964, Note_on_c, 0, 68, 86
2, 80076, Note_on_c, 0, 72, 86
2, 80079, Note_on_c, 0, 56, 0
2, 80079, Note_on_c, 0, 60, 0
2, 80084, Note_on_c, 0, 60, 84
2, 80088, Note_on_c, 0, 56, 99
2, 80090, Note_on_c, 0, 51, 94
2, 80090, Note_on_c, 0, 48, 88
2, 80130, Note_on_c, 0, 75, 93
2, 80210, Note_on_c, 0, 80, 95
2, 80285, Note_on_c, 0, 84, 87
2, 80325, Note_on_c, 0, 51, 0
2, 80332, Note_on_c, 0, 51, 93
2, 80332, Note_on_c, 0, 44, 0
2, 80340, Note_on_c, 0, 44, 86
2, 80349, Note_on_c, 0, 87, 97
2, 80375, Note_on_c, 0, 92, 98
2, 80460, Note_on_c, 0, 96, 94
2, 80503, Note_on_c, 0, 99, 93
2, 80591, Control_c, 0, 64, 0
2, 80596, Note_on_c, 0, 51, 0
2, 80597, Note_on_c, 0, 48, 0
2, 80597, Note_on_c, 0, 80, 0
2, 80597, Note_on_c, 0, 84, 0
2, 80597, Note_on_c, 0, 87, 0
2, 80597, Note_on_c, 0, 60, 0
2, 80597, Note_on_c, 0, 92, 0
2, 80597, Note_on_c, 0, 63, 0
2, 80597, Note_on_c, 0, 68, 0
2, 80612, Note_on_c, 0, 104, 111
2, 80613, Note_on_c, 0, 103, 111
2, 80616, Note_on_c, 0, 32, 0
2, 80616, Note_on_c, 0, 44, 0
2, 80616, Note_on_c, 0, 56, 0
2, 80616, Note_on_c, 0, 75, 0
2, 80616, Note_on_c, 0, 104, 0
2, 80621, Note_on_c, 0, 44, 102
2, 80623, Note_on_c, 0, 32, 100
2, 80624, Note_on_c, 0, 72, 0
2, 80855, Control_c, 0, 64, 127
2, 81112, Control_c, 0, 64, 0
2, 81123, Note_on_c, 0, 32, 0
2, 81131, Note_on_c, 0, 99, 0
2, 81139, Note_on_c, 0, 96, 0
2, 81154, Note_on_c, 0, 44, 0
2, 81269, Note_on_c, 0, 103, 0
2, 81270, End_track
0, 0, End_of_file
