0, 0, Header, 1, 2, 384
1, 0, Start_track
1, 0, Tempo, 500000
1, 0, Time_signature, 4, 2, 24, 8
1, 1, End_track
2, 0, Start_track
2, 1320, Control_c, 0, 64, 127
2, 1535, Note_on_c, 0, 80, 76
2, 1535, Control_c, 0, 64, 0
2, 1561, Note_on_c, 0, 75, 64
2, 1562, Note_on_c, 0, 56, 58
2, 1567, Note_on_c, 0, 71, 59
2, 1713, Note_on_c, 0, 63, 54
2, 1851, Note_on_c, 0, 68, 60
2, 1996, Note_on_c, 0, 71, 0
2, 2007, Note_on_c, 0, 82, 78
2, 2007, Note_on_c, 0, 71, 61
2, 2288, Note_on_c, 0, 68, 0
2, 2295, Note_on_c, 0, 68, 68
2, 2439, Note_on_c, 0, 83, 76
2, 2503, Control_c, 0, 64, 127
2, 2572, Note_on_c, 0, 63, 0
2, 2578, Note_on_c, 0, 63, 63
2, 2703, Note_on_c, 0, 80, 0
2, 2714, Note_on_c, 0, 80, 84
2, 2721, Note_on_c, 0, 52, 70
2, 2726, Note_on_c, 0, 71, 0
2, 2731, Note_on_c, 0, 71, 69
2, 2732, Note_on_c, 0, 76, 70
2, 2739, Control_c, 0, 64, 0
2, 2749, Note_on_c, 0, 82, 0
2, 2750, Note_on_c, 0, 68, 0
2, 2752, Note_on_c, 0, 83, 0
2, 2752, Note_on_c, 0, 63, 0
2, 2753, Note_on_c, 0, 56, 0
2, 2753, Note_on_c, 0, 75, 0
2, 2880, Note_on_c, 0, 59, 65
2, 3021, Note_on_c, 0, 64, 61
2, 3167, Note_on_c, 0, 82, 81
2, 3168, Note_on_c, 0, 68, 71
2, 3356, Control_c, 0, 64, 127
2, 3440, Note_on_c, 0, 64, 0
2, 3451, Note_on_c, 0, 64, 75
2, 3604, Note_on_c, 0, 83, 86
2, 3724, Note_on_c, 0, 59, 0
2, 3731, Note_on_c, 0, 59, 77
2, 3891, Note_on_c, 0, 87, 97
2, 3893, Note_on_c, 0, 83, 0
2, 3898, Note_on_c, 0, 47, 74
2, 3898, Note_on_c, 0, 75, 90
2, 3900, Note_on_c, 0, 83, 81
2, 3900, Note_on_c, 0, 78, 83
2, 3900, Control_c, 0, 64, 0
2, 3912, Note_on_c, 0, 59, 0
2, 3913, Note_on_c, 0, 52, 0
2, 3913, Note_on_c, 0, 68, 0
2, 3914, Note_on_c, 0, 82, 0
2, 3915, Note_on_c, 0, 76, 0
2, 3916, Note_on_c, 0, 71, 0
2, 3932, Note_on_c, 0, 64, 0
2, 3932, Note_on_c, 0, 80, 0
2, 3993, Control_c, 0, 64, 127
2, 4033, Note_on_c, 0, 59, 67
2, 4184, Note_on_c, 0, 66, 69
2, 4262, Control_c, 0, 64, 0
2, 4335, Note_on_c, 0, 88, 91
2, 4337, Note_on_c, 0, 71, 67
2, 4339, Note_on_c, 0, 76, 80
2, 4462, Control_c, 0, 64, 127
2, 4631, Note_on_c, 0, 66, 0
2, 4631, Note_on_c, 0, 78, 0
2, 4636, Note_on_c, 0, 66, 82
2, 4753, Note_on_c, 0, 87, 0
2, 4761, Note_on_c, 0, 75, 0
2, 4765, Note_on_c, 0, 87, 95
2, 4768, Note_on_c, 0, 75, 85
2, 4916, Note_on_c, 0, 63, 74
2, 5064, Note_on_c, 0, 85, 95
2, 5064, Control_c, 0, 64, 0
2, 5069, Note_on_c, 0, 42, 81
2, 5077, Note_on_c, 0, 73, 83
2, 5077, Note_on_c, 0, 78, 71
2, 5079, Note_on_c, 0, 82, 82
2, 5082, Note_on_c, 0, 88, 0
2, 5084, Note_on_c, 0, 47, 0
2, 5085, Note_on_c, 0, 71, 0
2, 5085, Note_on_c, 0, 76, 0
2, 5085, Note_on_c, 0, 59, 0
2, 5086, Note_on_c, 0, 75, 0
2, 5086, Note_on_c, 0, 66, 0
2, 5087, Note_on_c, 0, 63, 0
2, 5099, Note_on_c, 0, 87, 0
2, 5107, Note_on_c, 0, 83, 0
2, 5153, Control_c, 0, 64, 127
2, 5207, Note_on_c, 0, 54, 70
2, 5360, Note_on_c, 0, 42, 0
2, 5366, Note_on_c, 0, 61, 69
2, 5510, Note_on_c, 0, 83, 92
2, 5511, Note_on_c, 0, 66, 81
2, 5511, Note_on_c, 0, 71, 88
2, 5790, Note_on_c, 0, 61, 0
2, 5801, Note_on_c, 0, 61, 87
2, 5928, Note_on_c, 0, 82, 0
2, 5939, Note_on_c, 0, 82, 94
2, 5944, Note_on_c, 0, 70, 93
2, 6065, Note_on_c, 0, 58, 85
2, 6202, Note_on_c, 0, 61, 0
2, 6202, Note_on_c, 0, 66, 0
2, 6203, Control_c, 0, 64, 0
2, 6203, Note_on_c, 0, 83, 0
2, 6203, Note_on_c, 0, 58, 0
2, 6203, Note_on_c, 0, 73, 0
2, 6203, Note_on_c, 0, 54, 0
2, 6203, Note_on_c, 0, 70, 0
2, 6204, Note_on_c, 0, 82, 0
2, 6213, Note_on_c, 0, 78, 0
2, 6215, Note_on_c, 0, 80, 103
2, 6220, Note_on_c, 0, 71, 0
2, 6220, Note_on_c, 0, 85, 0
2, 6221, Note_on_c, 0, 68, 100
2, 6224, Note_on_c, 0, 44, 99
2, 6226, Note_on_c, 0, 56, 102
2, 6228, Note_on_c, 0, 71, 85
2, 6230, Note_on_c, 0, 75, 89
2, 6251, Control_c, 0, 64, 127
2, 6351, Note_on_c, 0, 56, 0
2, 6351, Note_on_c, 0, 68, 0
2, 6351, Note_on_c, 0, 71, 0
2, 6351, Note_on_c, 0, 75, 0
2, 6351, Note_on_c, 0, 80, 0
2, 6356, Note_on_c, 0, 80, 102
2, 6359, Note_on_c, 0, 44, 0
2, 6360, Note_on_c, 0, 68, 100
2, 6361, Note_on_c, 0, 56, 100
2, 6362, Note_on_c, 0, 71, 85
2, 6362, Note_on_c, 0, 75, 88
2, 6362, Note_on_c, 0, 44, 96
2, 6442, Control_c, 0, 64, 0
2, 6470, Note_on_c, 0, 44, 0
2, 6481, Note_on_c, 0, 75, 0
2, 6489, Note_on_c, 0, 56, 0
2, 6489, Note_on_c, 0, 68, 0
2, 6489, Note_on_c, 0, 71, 0
2, 6489, Note_on_c, 0, 80, 0
2, 6640, Note_on_c, 0, 80, 99
2, 6642, Note_on_c, 0, 71, 90
2, 6643, Note_on_c, 0, 68, 102
2, 6645, Note_on_c, 0, 76, 87
2, 6646, Note_on_c, 0, 40, 93
2, 6647, Note_on_c, 0, 52, 84
2, 6689, Control_c, 0, 64, 127
2, 6704, Note_on_c, 0, 52, 0
2, 6781, Note_on_c, 0, 68, 0
2, 6781, Note_on_c, 0, 71, 0
2, 6781, Note_on_c, 0, 80, 0
2, 6788, Note_on_c, 0, 80, 98
2, 6789, Note_on_c, 0, 40, 0
2, 6789, Note_on_c, 0, 76, 0
2, 6790, Note_on_c, 0, 71, 89
2, 6792, Note_on_c, 0, 52, 87
2, 6792, Note_on_c, 0, 68, 95
2, 6793, Note_on_c, 0, 76, 84
2, 6793, Note_on_c, 0, 40, 87
2, 6876, Control_c, 0, 64, 0
2, 6906, Note_on_c, 0, 71, 0
2, 6906, Note_on_c, 0, 68, 0
2, 6907, Note_on_c, 0, 80, 0
2, 6907, Note_on_c, 0, 76, 0
2, 6908, Note_on_c, 0, 40, 0
2, 6927, Note_on_c, 0, 52, 0
2, 7077, Note_on_c, 0, 54, 83
2, 7077, Note_on_c, 0, 42, 102
2, 7142, Control_c, 0, 64, 127
2, 7219, Note_on_c, 0, 42, 0
2, 7225, Note_on_c, 0, 66, 97
2, 7228, Note_on_c, 0, 78, 94
2, 7229, Note_on_c, 0, 42, 96
2, 7230, Note_on_c, 0, 70, 91
2, 7231, Note_on_c, 0, 73, 88
2, 7283, Control_c, 0, 64, 0
2, 7449, Control_c, 0, 64, 127
2, 7511, Note_on_c, 0, 54, 0
2, 7514, Note_on_c, 0, 95, 84
2, 7586, Note_on_c, 0, 94, 86
2, 7595, Note_on_c, 0, 78, 0
2, 7658, Note_on_c, 0, 90, 84
2, 7715, Note_on_c, 0, 85, 87
2, 7781, Note_on_c, 0, 83, 76
2, 7869, Note_on_c, 0, 82, 78
2, 7938, Note_on_c, 0, 78, 81
2, 7987, Note_on_c, 0, 73, 0
2, 7991, Note_on_c, 0, 73, 74
2, 8067, Note_on_c, 0, 71, 74
2, 8133, Note_on_c, 0, 70, 0
2, 8140, Note_on_c, 0, 70, 82
2, 8202, Note_on_c, 0, 66, 0
2, 8210, Note_on_c, 0, 66, 72
2, 8260, Note_on_c, 0, 61, 81
2, 8353, Note_on_c, 0, 59, 75
2, 8427, Note_on_c, 0, 58, 75
2, 8490, Control_c, 0, 64, 0
2, 8495, Note_on_c, 0, 95, 0
2, 8497, Note_on_c, 0, 94, 0
2, 8497, Note_on_c, 0, 82, 0
2, 8498, Note_on_c, 0, 73, 0
2, 8498, Note_on_c, 0, 70, 0
2, 8498, Note_on_c, 0, 66, 0
2, 8498, Note_on_c, 0, 85, 0
2, 8498, Note_on_c, 0, 83, 0
2, 8498, Note_on_c, 0, 78, 0
2, 8498, Note_on_c, 0, 71, 0
2, 8498, Note_on_c, 0, 90, 0
2, 8499, Note_on_c, 0, 59, 0
2, 8500, Note_on_c, 0, 61, 0
2, 8506, Note_on_c, 0, 58, 0
2, 8509, Note_on_c, 0, 42, 0
2, 8528, Note_on_c, 0, 56, 91
2, 8528, Note_on_c, 0, 44, 86
2, 8693, Control_c, 0, 64, 127
2, 8822, Note_on_c, 0, 51, 63
2, 8974, Note_on_c, 0, 63, 72
2, 9005, Note_on_c, 0, 59, 60
2, 9239, Note_on_c, 0, 51, 0
2, 9249, Note_on_c, 0, 51, 52
2, 9269, Note_on_c, 0, 71, 74
2, 9400, Note_on_c, 0, 56, 0
2, 9404, Note_on_c, 0, 56, 76
2, 9408, Note_on_c, 0, 59, 0
2, 9408, Note_on_c, 0, 71, 0
2, 9415, Note_on_c, 0, 71, 81
2, 9417, Note_on_c, 0, 59, 65
2, 9546, Note_on_c, 0, 71, 0
2, 9557, Note_on_c, 0, 71, 75
2, 9669, Note_on_c, 0, 44, 0
2, 9669, Note_on_c, 0, 56, 0
2, 9669, Note_on_c, 0, 71, 0
2, 9679, Note_on_c, 0, 71, 78
2, 9679, Note_on_c, 0, 44, 80
2, 9680, Note_on_c, 0, 56, 79
2, 9688, Control_c, 0, 64, 0
2, 9761, Control_c, 0, 64, 127
2, 9821, Note_on_c, 0, 70, 85
2, 9953, Note_on_c, 0, 51, 0
2, 9961, Note_on_c, 0, 51, 59
2, 10114, Note_on_c, 0, 71, 0
2, 10122, Note_on_c, 0, 63, 0
2, 10124, Note_on_c, 0, 71, 84
2, 10126, Note_on_c, 0, 63, 79
2, 10129, Note_on_c, 0, 59, 0
2, 10134, Note_on_c, 0, 59, 75
2, 10406, Note_on_c, 0, 51, 0
2, 10408, Note_on_c, 0, 39, 62
2, 10410, Note_on_c, 0, 51, 64
2, 10412, Note_on_c, 0, 73, 86
2, 10414, Note_on_c, 0, 39, 0
2, 10552, Note_on_c, 0, 56, 0
2, 10557, Note_on_c, 0, 56, 80
2, 10560, Note_on_c, 0, 59, 0
2, 10564, Note_on_c, 0, 59, 77
2, 10690, Note_on_c, 0, 71, 0
2, 10701, Note_on_c, 0, 71, 86
2, 10801, Control_c, 0, 64, 0
2, 10812, Note_on_c, 0, 44, 0
2, 10812, Note_on_c, 0, 73, 0
2, 10813, Note_on_c, 0, 70, 0
2, 10813, Note_on_c, 0, 51, 0
2, 10814, Note_on_c, 0, 59, 0
2, 10815, Note_on_c, 0, 63, 0
2, 10842, Note_on_c, 0, 40, 78
2, 10843, Note_on_c, 0, 52, 76
2, 10890, Control_c, 0, 64, 127
2, 11143, Note_on_c, 0, 52, 0
2, 11153, Note_on_c, 0, 52, 66
2, 11303, Note_on_c, 0, 64, 83
2, 11307, Note_on_c, 0, 59, 76
2, 11581, Note_on_c, 0, 52, 0
2, 11586, Note_on_c, 0, 52, 61
2, 11735, Note_on_c, 0, 56, 0
2, 11735, Note_on_c, 0, 59, 0
2, 11742, Note_on_c, 0, 59, 76
2, 11743, Note_on_c, 0, 56, 76
2, 12019, Note_on_c, 0, 40, 0
2, 12019, Note_on_c, 0, 52, 0
2, 12029, Note_on_c, 0, 40, 76
2, 12030, Note_on_c, 0, 52, 73
2, 12295, Note_on_c, 0, 52, 0
2, 12301, Note_on_c, 0, 52, 69
2, 12472, Note_on_c, 0, 64, 0
2, 12480, Note_on_c, 0, 59, 0
2, 12482, Note_on_c, 0, 64, 80
2, 12484, Note_on_c, 0, 59, 78
2, 12733, Note_on_c, 0, 71, 0
2, 12742, Note_on_c, 0, 71, 91
2, 12879, Note_on_c, 0, 56, 0
2, 12879, Note_on_c, 0, 59, 0
2, 12883, Note_on_c, 0, 59, 74
2, 12887, Note_on_c, 0, 56, 79
2, 12892, Note_on_c, 0, 73, 97
2, 13028, Note_on_c, 0, 75, 98
2, 13121, Control_c, 0, 64, 0
2, 13125, Note_on_c, 0, 64, 0
2, 13127, Note_on_c, 0, 56, 0
2, 13127, Note_on_c, 0, 52, 0
2, 13127, Note_on_c, 0, 40, 0
2, 13128, Note_on_c, 0, 59, 0
2, 13128, Note_on_c, 0, 71, 0
2, 13159, Note_on_c, 0, 35, 85
2, 13160, Note_on_c, 0, 47, 77
2, 13232, Control_c, 0, 64, 127
2, 13424, Note_on_c, 0, 47, 0
2, 13434, Note_on_c, 0, 47, 75
2, 13582, Note_on_c, 0, 63, 88
2, 13614, Note_on_c, 0, 54, 61
2, 13862, Note_on_c, 0, 47, 0
2, 13871, Note_on_c, 0, 59, 83
2, 13872, Note_on_c, 0, 47, 76
2, 14016, Note_on_c, 0, 54, 0
2, 14020, Note_on_c, 0, 54, 74
2, 14025, Note_on_c, 0, 61, 86
2, 14154, Note_on_c, 0, 63, 0
2, 14165, Note_on_c, 0, 63, 93
2, 14271, Note_on_c, 0, 59, 0
2, 14272, Control_c, 0, 64, 0
2, 14274, Note_on_c, 0, 61, 0
2, 14275, Note_on_c, 0, 35, 0
2, 14277, Note_on_c, 0, 73, 0
2, 14292, Note_on_c, 0, 47, 0
2, 14297, Note_on_c, 0, 35, 87
2, 14297, Note_on_c, 0, 47, 85
2, 14376, Control_c, 0, 64, 127
2, 14561, Note_on_c, 0, 47, 0
2, 14568, Note_on_c, 0, 47, 76
2, 14722, Note_on_c, 0, 63, 0
2, 14731, Note_on_c, 0, 63, 85
2, 14745, Note_on_c, 0, 54, 0
2, 14751, Note_on_c, 0, 54, 69
2, 15006, Note_on_c, 0, 47, 0
2, 15015, Note_on_c, 0, 47, 66
2, 15029, Note_on_c, 0, 75, 0
2, 15040, Note_on_c, 0, 75, 94
2, 15144, Note_on_c, 0, 54, 0
2, 15155, Note_on_c, 0, 54, 75
2, 15156, Note_on_c, 0, 59, 78
2, 15170, Note_on_c, 0, 76, 89
2, 15298, Note_on_c, 0, 75, 0
2, 15306, Note_on_c, 0, 75, 82
2, 15440, Control_c, 0, 64, 0
2, 15444, Note_on_c, 0, 47, 0
2, 15445, Note_on_c, 0, 35, 0
2, 15446, Note_on_c, 0, 63, 0
2, 15446, Note_on_c, 0, 76, 0
2, 15455, Note_on_c, 0, 73, 97
2, 15459, Note_on_c, 0, 42, 89
2, 15467, Note_on_c, 0, 59, 0
2, 15490, Note_on_c, 0, 54, 0
2, 15605, Control_c, 0, 64, 127
2, 15726, Note_on_c, 0, 49, 67
2, 15874, Note_on_c, 0, 75, 0
2, 15891, Note_on_c, 0, 70, 88
2, 15893, Note_on_c, 0, 61, 75
2, 15901, Note_on_c, 0, 58, 74
2, 16038, Note_on_c, 0, 66, 90
2, 16166, Note_on_c, 0, 49, 0
2, 16170, Note_on_c, 0, 49, 64
2, 16312, Note_on_c, 0, 58, 0
2, 16322, Note_on_c, 0, 58, 78
2, 16323, Note_on_c, 0, 54, 71
2, 16591, Control_c, 0, 64, 0
2, 16596, Note_on_c, 0, 42, 0
2, 16596, Note_on_c, 0, 54, 0
2, 16604, Note_on_c, 0, 49, 0
2, 16605, Note_on_c, 0, 54, 78
2, 16605, Note_on_c, 0, 42, 86
2, 16650, Control_c, 0, 64, 127
2, 16881, Note_on_c, 0, 49, 49
2, 16942, Note_on_c, 0, 66, 0
2, 16950, Note_on_c, 0, 66, 46
2, 17026, Note_on_c, 0, 61, 0
2, 17033, Note_on_c, 0, 61, 73
2, 17034, Note_on_c, 0, 58, 0
2, 17041, Note_on_c, 0, 58, 68
2, 17341, Control_c, 0, 64, 0
2, 17346, Note_on_c, 0, 42, 0
2, 17347, Note_on_c, 0, 54, 0
2, 17348, Note_on_c, 0, 66, 0
2, 17349, Note_on_c, 0, 58, 0
2, 17349, Note_on_c, 0, 49, 0
2, 17349, Note_on_c, 0, 61, 0
2, 17351, Note_on_c, 0, 73, 0
2, 17351, Note_on_c, 0, 70, 0
2, 17351, Note_on_c, 0, 67, 81
2, 17353, Note_on_c, 0, 43, 72
2, 17353, Note_on_c, 0, 58, 74
2, 17354, Note_on_c, 0, 63, 75
2, 17410, Control_c, 0, 64, 127
2, 17492, Note_on_c, 0, 51, 62
2, 17618, Note_on_c, 0, 55, 59
2, 17759, Note_on_c, 0, 55, 0
2, 17760, Note_on_c, 0, 58, 0
2, 17761, Note_on_c, 0, 51, 0
2, 17762, Note_on_c, 0, 43, 0
2, 17762, Note_on_c, 0, 67, 0
2, 17767, Control_c, 0, 64, 0
2, 17772, Note_on_c, 0, 68, 91
2, 17793, Note_on_c, 0, 44, 79
2, 17794, Note_on_c, 0, 63, 0
2, 17800, Note_on_c, 0, 59, 69
2, 17800, Note_on_c, 0, 63, 65
2, 17871, Control_c, 0, 64, 127
2, 18070, Note_on_c, 0, 56, 73
2, 18201, Note_on_c, 0, 68, 0
2, 18206, Note_on_c, 0, 68, 84
2, 18224, Note_on_c, 0, 63, 0
2, 18228, Note_on_c, 0, 63, 67
2, 18232, Note_on_c, 0, 59, 0
2, 18240, Note_on_c, 0, 59, 57
2, 18478, Note_on_c, 0, 56, 0
2, 18483, Note_on_c, 0, 56, 79
2, 18506, Note_on_c, 0, 83, 84
2, 18516, Note_on_c, 0, 44, 0
2, 18516, Note_on_c, 0, 75, 73
2, 18543, Note_on_c, 0, 80, 56
2, 18616, Note_on_c, 0, 63, 0
2, 18626, Note_on_c, 0, 63, 76
2, 18631, Note_on_c, 0, 59, 0
2, 18640, Note_on_c, 0, 59, 75
2, 18647, Note_on_c, 0, 83, 0
2, 18652, Note_on_c, 0, 83, 88
2, 18654, Note_on_c, 0, 75, 0
2, 18654, Note_on_c, 0, 80, 0
2, 18663, Note_on_c, 0, 75, 72
2, 18665, Note_on_c, 0, 80, 72
2, 18777, Note_on_c, 0, 75, 0
2, 18777, Note_on_c, 0, 83, 0
2, 18784, Note_on_c, 0, 83, 90
2, 18785, Note_on_c, 0, 80, 0
2, 18788, Note_on_c, 0, 75, 75
2, 18792, Note_on_c, 0, 80, 67
2, 18906, Control_c, 0, 64, 0
2, 18915, Note_on_c, 0, 75, 0
2, 18915, Note_on_c, 0, 83, 0
2, 18919, Note_on_c, 0, 44, 86
2, 18920, Note_on_c, 0, 75, 89
2, 18921, Note_on_c, 0, 83, 91
2, 18923, Note_on_c, 0, 80, 0
2, 18932, Note_on_c, 0, 80, 78
2, 18938, Control_c, 0, 64, 127
2, 18946, Note_on_c, 0, 56, 0
2, 19008, Note_on_c, 0, 63, 0
2, 19015, Note_on_c, 0, 59, 0
2, 19046, Note_on_c, 0, 75, 0
2, 19052, Note_on_c, 0, 82, 86
2, 19055, Note_on_c, 0, 75, 75
2, 19213, Note_on_c, 0, 56, 65
2, 19345, Note_on_c, 0, 75, 0
2, 19345, Note_on_c, 0, 83, 0
2, 19350, Note_on_c, 0, 83, 93
2, 19353, Note_on_c, 0, 68, 0
2, 19353, Note_on_c, 0, 80, 0
2, 19353, Note_on_c, 0, 75, 90
2, 19359, Note_on_c, 0, 68, 86
2, 19360, Note_on_c, 0, 80, 85
2, 19381, Note_on_c, 0, 63, 62
2, 19382, Note_on_c, 0, 59, 62
2, 19622, Note_on_c, 0, 56, 0
2, 19628, Note_on_c, 0, 56, 80
2, 19637, Note_on_c, 0, 75, 0
2, 19637, Note_on_c, 0, 80, 0
2, 19640, Note_on_c, 0, 85, 95
2, 19645, Note_on_c, 0, 75, 88
2, 19648, Note_on_c, 0, 80, 85
2, 19783, Note_on_c, 0, 59, 0
2, 19783, Note_on_c, 0, 63, 0
2, 19791, Note_on_c, 0, 63, 75
2, 19795, Note_on_c, 0, 59, 79
2, 19929, Note_on_c, 0, 83, 0
2, 19937, Note_on_c, 0, 80, 0
2, 19940, Note_on_c, 0, 83, 95
2, 19942, Note_on_c, 0, 80, 90
2, 19942, Note_on_c, 0, 76, 86
2, 20019, Control_c, 0, 64, 0
2, 20021, Note_on_c, 0, 44, 0
2, 20037, Note_on_c, 0, 56, 0
2, 20044, Note_on_c, 0, 82, 0
2, 20067, Note_on_c, 0, 63, 0
2, 20074, Note_on_c, 0, 40, 83
2, 20121, Control_c, 0, 64, 127
2, 20144, Note_on_c, 0, 85, 0
2, 20167, Note_on_c, 0, 59, 0
2, 20229, Note_on_c, 0, 75, 0
2, 20354, Note_on_c, 0, 52, 59
2, 20519, Note_on_c, 0, 64, 76
2, 20525, Note_on_c, 0, 59, 73
2, 20526, Note_on_c, 0, 56, 72
2, 20805, Note_on_c, 0, 52, 0
2, 20816, Note_on_c, 0, 52, 65
2, 20820, Note_on_c, 0, 68, 0
2, 20966, Note_on_c, 0, 56, 0
2, 20966, Note_on_c, 0, 59, 0
2, 20975, Note_on_c, 0, 56, 79
2, 20977, Note_on_c, 0, 59, 69
2, 21242, Note_on_c, 0, 40, 0
2, 21250, Note_on_c, 0, 52, 0
2, 21253, Note_on_c, 0, 40, 76
2, 21255, Note_on_c, 0, 52, 69
2, 21263, Control_c, 0, 64, 0
2, 21288, Control_c, 0, 64, 127
2, 21550, Note_on_c, 0, 52, 0
2, 21558, Note_on_c, 0, 52, 56
2, 21696, Note_on_c, 0, 64, 0
2, 21706, Note_on_c, 0, 64, 81
2, 21711, Note_on_c, 0, 56, 0
2, 21711, Note_on_c, 0, 59, 0
2, 21715, Note_on_c, 0, 56, 76
2, 21720, Note_on_c, 0, 59, 68
2, 21980, Note_on_c, 0, 52, 0
2, 21980, Note_on_c, 0, 83, 0
2, 21987, Note_on_c, 0, 83, 83
2, 21988, Note_on_c, 0, 75, 85
2, 21991, Note_on_c, 0, 52, 73
2, 22118, Note_on_c, 0, 56, 0
2, 22126, Note_on_c, 0, 59, 0
2, 22126, Note_on_c, 0, 76, 0
2, 22129, Note_on_c, 0, 56, 80
2, 22131, Note_on_c, 0, 85, 92
2, 22131, Note_on_c, 0, 59, 72
2, 22135, Note_on_c, 0, 76, 87
2, 22272, Note_on_c, 0, 83, 0
2, 22278, Note_on_c, 0, 87, 99
2, 22281, Note_on_c, 0, 78, 93
2, 22282, Note_on_c, 0, 83, 82
2, 22370, Control_c, 0, 64, 0
2, 22377, Note_on_c, 0, 64, 0
2, 22377, Note_on_c, 0, 52, 0
2, 22377, Note_on_c, 0, 76, 0
2, 22378, Note_on_c, 0, 85, 0
2, 22378, Note_on_c, 0, 59, 0
2, 22378, Note_on_c, 0, 80, 0
2, 22378, Note_on_c, 0, 40, 0
2, 22379, Note_on_c, 0, 75, 0
2, 22408, Note_on_c, 0, 47, 88
2, 22410, Note_on_c, 0, 35, 89
2, 22440, Control_c, 0, 64, 127
2, 22679, Note_on_c, 0, 47, 0
2, 22683, Note_on_c, 0, 47, 77
2, 22855, Note_on_c, 0, 63, 85
2, 22865, Note_on_c, 0, 54, 73
2, 22872, Note_on_c, 0, 59, 53
2, 23124, Note_on_c, 0, 63, 0
2, 23132, Note_on_c, 0, 47, 0
2, 23132, Note_on_c, 0, 54, 0
2, 23132, Note_on_c, 0, 63, 87
2, 23133, Note_on_c, 0, 75, 80
2, 23137, Note_on_c, 0, 47, 75
2, 23138, Note_on_c, 0, 71, 78
2, 23138, Note_on_c, 0, 54, 75
2, 23139, Note_on_c, 0, 59, 0
2, 23144, Note_on_c, 0, 59, 76
2, 23270, Note_on_c, 0, 54, 0
2, 23270, Note_on_c, 0, 59, 0
2, 23278, Note_on_c, 0, 73, 85
2, 23280, Note_on_c, 0, 54, 78
2, 23281, Note_on_c, 0, 59, 77
2, 23283, Note_on_c, 0, 64, 84
2, 23408, Note_on_c, 0, 75, 0
2, 23416, Note_on_c, 0, 54, 0
2, 23416, Note_on_c, 0, 71, 0
2, 23420, Note_on_c, 0, 75, 99
2, 23424, Note_on_c, 0, 59, 0
2, 23426, Note_on_c, 0, 54, 73
2, 23427, Note_on_c, 0, 71, 76
2, 23427, Note_on_c, 0, 66, 85
2, 23428, Note_on_c, 0, 59, 61
2, 23513, Note_on_c, 0, 56, 0
2, 23514, Note_on_c, 0, 54, 0
2, 23516, Note_on_c, 0, 35, 0
2, 23518, Note_on_c, 0, 59, 0
2, 23518, Note_on_c, 0, 64, 0
2, 23519, Note_on_c, 0, 63, 0
2, 23523, Note_on_c, 0, 78, 0
2, 23528, Control_c, 0, 64, 0
2, 23531, Note_on_c, 0, 73, 0
2, 23539, Note_on_c, 0, 83, 0
2, 23546, Note_on_c, 0, 47, 0
2, 23553, Note_on_c, 0, 47, 77
2, 23554, Control_c, 0, 64, 127
2, 23558, Note_on_c, 0, 35, 76
2, 23562, Note_on_c, 0, 87, 0
2, 23861, Note_on_c, 0, 47, 0
2, 23865, Note_on_c, 0, 45, 49
2, 23868, Note_on_c, 0, 47, 56
2, 23969, Note_on_c, 0, 75, 0
2, 23976, Note_on_c, 0, 75, 93
2, 23979, Note_on_c, 0, 87, 94
2, 23981, Note_on_c, 0, 83, 78
2, 23995, Note_on_c, 0, 63, 77
2, 24001, Note_on_c, 0, 54, 69
2, 24004, Note_on_c, 0, 59, 53
2, 24107, Note_on_c, 0, 75, 0
2, 24107, Note_on_c, 0, 87, 0
2, 24112, Note_on_c, 0, 87, 99
2, 24115, Note_on_c, 0, 83, 0
2, 24118, Note_on_c, 0, 75, 92
2, 24119, Note_on_c, 0, 83, 78
2, 24276, Note_on_c, 0, 47, 0
2, 24281, Note_on_c, 0, 47, 71
2, 24325, Note_on_c, 0, 88, 96
2, 24334, Note_on_c, 0, 85, 89
2, 24335, Note_on_c, 0, 76, 89
2, 24337, Note_on_c, 0, 45, 0
2, 24437, Note_on_c, 0, 54, 0
2, 24437, Note_on_c, 0, 59, 0
2, 24446, Note_on_c, 0, 54, 66
2, 24447, Note_on_c, 0, 59, 81
2, 24545, Note_on_c, 0, 83, 0
2, 24545, Note_on_c, 0, 87, 0
2, 24549, Note_on_c, 0, 87, 95
2, 24555, Note_on_c, 0, 83, 73
2, 24560, Note_on_c, 0, 75, 0
2, 24570, Note_on_c, 0, 75, 82
2, 24691, Note_on_c, 0, 35, 0
2, 24691, Control_c, 0, 64, 0
2, 24692, Note_on_c, 0, 47, 0
2, 24692, Note_on_c, 0, 88, 0
2, 24693, Note_on_c, 0, 54, 0
2, 24693, Note_on_c, 0, 87, 0
2, 24693, Note_on_c, 0, 76, 0
2, 24694, Note_on_c, 0, 75, 0
2, 24694, Note_on_c, 0, 63, 0
2, 24694, Note_on_c, 0, 59, 0
2, 24698, Note_on_c, 0, 71, 0
2, 24698, Note_on_c, 0, 85, 0
2, 24706, Note_on_c, 0, 66, 0
2, 24709, Note_on_c, 0, 85, 102
2, 24710, Note_on_c, 0, 42, 83
2, 24717, Note_on_c, 0, 73, 97
2, 24721, Note_on_c, 0, 83, 0
2, 24740, Note_on_c, 0, 82, 75
2, 24760, Control_c, 0, 64, 127
2, 24976, Note_on_c, 0, 54, 60
2, 25105, Note_on_c, 0, 82, 0
2, 25110, Note_on_c, 0, 82, 93
2, 25120, Note_on_c, 0, 70, 86
2, 25123, Note_on_c, 0, 78, 84
2, 25126, Note_on_c, 0, 66, 88
2, 25148, Note_on_c, 0, 61, 68
2, 25155, Note_on_c, 0, 58, 65
2, 25259, Note_on_c, 0, 66, 0
2, 25259, Note_on_c, 0, 70, 0
2, 25259, Note_on_c, 0, 78, 0
2, 25263, Note_on_c, 0, 78, 91
2, 25264, Note_on_c, 0, 66, 81
2, 25267, Note_on_c, 0, 70, 80
2, 25413, Note_on_c, 0, 54, 0
2, 25417, Note_on_c, 0, 54, 66
2, 25566, Note_on_c, 0, 58, 0
2, 25566, Note_on_c, 0, 61, 0
2, 25571, Note_on_c, 0, 58, 73
2, 25573, Note_on_c, 0, 61, 55
2, 25843, Note_on_c, 0, 42, 0
2, 25843, Note_on_c, 0, 54, 0
2, 25847, Note_on_c, 0, 42, 83
2, 25847, Note_on_c, 0, 54, 72
2, 25862, Control_c, 0, 64, 0
2, 25862, Note_on_c, 0, 73, 0
2, 25862, Note_on_c, 0, 61, 0
2, 25863, Note_on_c, 0, 85, 0
2, 25889, Control_c, 0, 64, 127
2, 26127, Note_on_c, 0, 54, 0
2, 26133, Note_on_c, 0, 54, 53
2, 26280, Note_on_c, 0, 66, 0
2, 26289, Note_on_c, 0, 66, 79
2, 26297, Note_on_c, 0, 61, 68
2, 26311, Note_on_c, 0, 58, 0
2, 26318, Note_on_c, 0, 58, 45
2, 26565, Note_on_c, 0, 54, 0
2, 26571, Note_on_c, 0, 54, 57
2, 26711, Note_on_c, 0, 78, 0
2, 26718, Note_on_c, 0, 58, 0
2, 26722, Note_on_c, 0, 78, 82
2, 26729, Note_on_c, 0, 58, 62
2, 26734, Note_on_c, 0, 61, 0
2, 26738, Note_on_c, 0, 61, 53
2, 26985, Note_on_c, 0, 66, 0
2, 26985, Control_c, 0, 64, 0
2, 26986, Note_on_c, 0, 61, 0
2, 26987, Note_on_c, 0, 54, 0
2, 26995, Note_on_c, 0, 42, 0
2, 27002, Note_on_c, 0, 80, 87
2, 27002, Note_on_c, 0, 58, 0
2, 27002, Note_on_c, 0, 70, 0
2, 27002, Note_on_c, 0, 82, 0
2, 27007, Note_on_c, 0, 52, 71
2, 27008, Note_on_c, 0, 75, 78
2, 27019, Note_on_c, 0, 71, 76
2, 27072, Control_c, 0, 64, 127
2, 27144, Note_on_c, 0, 59, 64
2, 27292, Note_on_c, 0, 64, 71
2, 27297, Note_on_c, 0, 87, 87
2, 27435, Note_on_c, 0, 68, 72
2, 27440, Note_on_c, 0, 80, 0
2, 27452, Note_on_c, 0, 80, 85
2, 27586, Note_on_c, 0, 64, 0
2, 27597, Note_on_c, 0, 64, 56
2, 27717, Note_on_c, 0, 87, 0
2, 27728, Note_on_c, 0, 87, 91
2, 27729, Note_on_c, 0, 76, 73
2, 27870, Note_on_c, 0, 71, 0
2, 27874, Note_on_c, 0, 71, 61
2, 27978, Note_on_c, 0, 68, 0
2, 27989, Note_on_c, 0, 68, 78
2, 28003, Note_on_c, 0, 85, 92
2, 28070, Note_on_c, 0, 78, 0
2, 28151, Note_on_c, 0, 47, 78
2, 28179, Note_on_c, 0, 59, 0
2, 28180, Note_on_c, 0, 52, 0
2, 28180, Note_on_c, 0, 87, 0
2, 28180, Note_on_c, 0, 64, 0
2, 28181, Note_on_c, 0, 71, 0
2, 28181, Note_on_c, 0, 68, 0
2, 28181, Note_on_c, 0, 80, 0
2, 28181, Note_on_c, 0, 76, 0
2, 28182, Note_on_c, 0, 75, 0
2, 28187, Control_c, 0, 64, 0
2, 28239, Control_c, 0, 64, 127
2, 28287, Note_on_c, 0, 83, 78
2, 28297, Note_on_c, 0, 59, 70
2, 28392, Note_on_c, 0, 47, 0
2, 28431, Note_on_c, 0, 85, 0
2, 28435, Note_on_c, 0, 85, 86
2, 28439, Note_on_c, 0, 63, 59
2, 28566, Note_on_c, 0, 87, 94
2, 28570, Note_on_c, 0, 66, 78
2, 28575, Note_on_c, 0, 78, 84
2, 28584, Note_on_c, 0, 75, 74
2, 28723, Note_on_c, 0, 59, 0
2, 28727, Note_on_c, 0, 59, 65
2, 28862, Note_on_c, 0, 71, 75
2, 28976, Note_on_c, 0, 66, 0
2, 28976, Note_on_c, 0, 78, 0
2, 28985, Note_on_c, 0, 66, 80
2, 28987, Note_on_c, 0, 78, 72
2, 29130, Note_on_c, 0, 63, 0
2, 29130, Note_on_c, 0, 87, 0
2, 29134, Note_on_c, 0, 87, 89
2, 29135, Note_on_c, 0, 99, 79
2, 29139, Note_on_c, 0, 63, 67
2, 29145, Note_on_c, 0, 99, 0
2, 29272, Note_on_c, 0, 54, 74
2, 29274, Note_on_c, 0, 88, 91
2, 29283, Note_on_c, 0, 78, 0
2, 29294, Note_on_c, 0, 87, 0
2, 29294, Note_on_c, 0, 78, 79
2, 29294, Note_on_c, 0, 75, 0
2, 29294, Control_c, 0, 64, 0
2, 29295, Note_on_c, 0, 71, 0
2, 29295, Note_on_c, 0, 83, 0
2, 29295, Note_on_c, 0, 82, 80
2, 29295, Note_on_c, 0, 59, 0
2, 29295, Note_on_c, 0, 63, 0
2, 29295, Note_on_c, 0, 66, 0
2, 29345, Control_c, 0, 64, 127
2, 29416, Note_on_c, 0, 87, 86
2, 29417, Note_on_c, 0, 61, 62
2, 29537, Note_on_c, 0, 78, 0
2, 29542, Note_on_c, 0, 78, 68
2, 29543, Note_on_c, 0, 66, 76
2, 29690, Note_on_c, 0, 85, 0
2, 29702, Note_on_c, 0, 70, 65
2, 29702, Note_on_c, 0, 85, 91
2, 29844, Note_on_c, 0, 66, 0
2, 29850, Note_on_c, 0, 66, 67
2, 29983, Note_on_c, 0, 73, 82
2, 29983, Note_on_c, 0, 83, 82
2, 30113, Note_on_c, 0, 70, 0
2, 30119, Note_on_c, 0, 70, 72
2, 30243, Note_on_c, 0, 66, 0
2, 30252, Note_on_c, 0, 66, 79
2, 30259, Note_on_c, 0, 85, 0
2, 30269, Note_on_c, 0, 85, 91
2, 30298, Note_on_c, 0, 75, 75
2, 30298, Note_on_c, 0, 80, 81
2, 30379, Control_c, 0, 64, 0
2, 30383, Note_on_c, 0, 78, 0
2, 30383, Note_on_c, 0, 66, 0
2, 30384, Note_on_c, 0, 83, 0
2, 30384, Note_on_c, 0, 54, 0
2, 30385, Note_on_c, 0, 87, 0
2, 30385, Note_on_c, 0, 73, 0
2, 30385, Note_on_c, 0, 82, 0
2, 30386, Note_on_c, 0, 70, 0
2, 30386, Note_on_c, 0, 61, 0
2, 30389, Note_on_c, 0, 88, 0
2, 30400, Note_on_c, 0, 56, 81
2, 30443, Control_c, 0, 64, 127
2, 30549, Note_on_c, 0, 63, 64
2, 30559, Note_on_c, 0, 83, 79
2, 30678, Note_on_c, 0, 68, 71
2, 30703, Note_on_c, 0, 82, 76
2, 30827, Note_on_c, 0, 80, 0
2, 30837, Note_on_c, 0, 71, 72
2, 30838, Note_on_c, 0, 80, 87
2, 30965, Note_on_c, 0, 68, 0
2, 30972, Note_on_c, 0, 68, 64
2, 31104, Note_on_c, 0, 63, 0
2, 31112, Note_on_c, 0, 63, 79
2, 31253, Note_on_c, 0, 59, 70
2, 31380, Note_on_c, 0, 56, 0
2, 31380, Note_on_c, 0, 68, 0
2, 31385, Note_on_c, 0, 68, 92
2, 31386, Note_on_c, 0, 56, 79
2, 31518, Note_on_c, 0, 68, 0
2, 31524, Note_on_c, 0, 40, 74
2, 31528, Control_c, 0, 64, 0
2, 31529, Note_on_c, 0, 68, 97
2, 31541, Note_on_c, 0, 59, 0
2, 31541, Note_on_c, 0, 63, 0
2, 31545, Note_on_c, 0, 83, 0
2, 31545, Note_on_c, 0, 71, 0
2, 31545, Note_on_c, 0, 56, 0
2, 31546, Note_on_c, 0, 82, 0
2, 31546, Note_on_c, 0, 59, 77
2, 31553, Note_on_c, 0, 63, 72
2, 31564, Note_on_c, 0, 75, 0
2, 31564, Note_on_c, 0, 85, 0
2, 31580, Control_c, 0, 64, 127
2, 31641, Note_on_c, 0, 59, 0
2, 31676, Note_on_c, 0, 47, 70
2, 31826, Note_on_c, 0, 52, 62
2, 31827, Note_on_c, 0, 75, 91
2, 31971, Note_on_c, 0, 68, 0
2, 31974, Note_on_c, 0, 56, 74
2, 31975, Note_on_c, 0, 68, 89
2, 32094, Note_on_c, 0, 52, 0
2, 32106, Note_on_c, 0, 52, 64
2, 32248, Note_on_c, 0, 75, 0
2, 32258, Note_on_c, 0, 75, 94
2, 32259, Note_on_c, 0, 64, 81
2, 32403, Note_on_c, 0, 59, 71
2, 32509, Note_on_c, 0, 80, 0
2, 32517, Note_on_c, 0, 56, 0
2, 32527, Note_on_c, 0, 56, 85
2, 32537, Note_on_c, 0, 73, 93
2, 32681, Note_on_c, 0, 40, 0
2, 32682, Note_on_c, 0, 56, 0
2, 32682, Control_c, 0, 64, 0
2, 32682, Note_on_c, 0, 64, 0
2, 32682, Note_on_c, 0, 52, 0
2, 32682, Note_on_c, 0, 59, 0
2, 32683, Note_on_c, 0, 47, 0
2, 32683, Note_on_c, 0, 75, 0
2, 32683, Note_on_c, 0, 63, 0
2, 32683, Note_on_c, 0, 68, 0
2, 32686, Note_on_c, 0, 35, 78
2, 32716, Control_c, 0, 64, 127
2, 32811, Note_on_c, 0, 47, 70
2, 32822, Note_on_c, 0, 71, 88
2, 32962, Note_on_c, 0, 73, 0
2, 32970, Note_on_c, 0, 35, 0
2, 32971, Note_on_c, 0, 73, 83
2, 32991, Note_on_c, 0, 52, 50
2, 33113, Note_on_c, 0, 75, 96
2, 33115, Note_on_c, 0, 54, 75
2, 33116, Note_on_c, 0, 71, 0
2, 33124, Note_on_c, 0, 66, 83
2, 33127, Note_on_c, 0, 71, 76
2, 33246, Note_on_c, 0, 47, 0
2, 33251, Note_on_c, 0, 47, 78
2, 33390, Note_on_c, 0, 59, 84
2, 33507, Note_on_c, 0, 54, 0
2, 33513, Note_on_c, 0, 54, 82
2, 33657, Note_on_c, 0, 51, 74
2, 33799, Note_on_c, 0, 75, 0
2, 33808, Control_c, 0, 64, 0
2, 33810, Note_on_c, 0, 73, 0
2, 33810, Note_on_c, 0, 54, 0
2, 33810, Note_on_c, 0, 51, 0
2, 33810, Note_on_c, 0, 71, 0
2, 33810, Note_on_c, 0, 52, 0
2, 33810, Note_on_c, 0, 59, 0
2, 33810, Note_on_c, 0, 66, 0
2, 33810, Note_on_c, 0, 75, 104
2, 33810, Note_on_c, 0, 47, 0
2, 33816, Note_on_c, 0, 65, 81
2, 33819, Note_on_c, 0, 70, 89
2, 33835, Note_on_c, 0, 46, 72
2, 33840, Note_on_c, 0, 34, 75
2, 33868, Control_c, 0, 64, 127
2, 33930, Note_on_c, 0, 46, 0
2, 33936, Note_on_c, 0, 46, 78
2, 34083, Note_on_c, 0, 75, 0
2, 34090, Note_on_c, 0, 50, 60
2, 34091, Note_on_c, 0, 75, 94
2, 34237, Note_on_c, 0, 75, 0
2, 34244, Note_on_c, 0, 75, 103
2, 34245, Note_on_c, 0, 46, 0
2, 34245, Note_on_c, 0, 65, 0
2, 34245, Note_on_c, 0, 70, 0
2, 34247, Note_on_c, 0, 58, 89
2, 34249, Note_on_c, 0, 46, 78
2, 34255, Note_on_c, 0, 65, 84
2, 34255, Note_on_c, 0, 70, 90
2, 34264, Control_c, 0, 64, 0
2, 34337, Control_c, 0, 64, 127
2, 34513, Note_on_c, 0, 58, 0
2, 34520, Note_on_c, 0, 58, 87
2, 34533, Note_on_c, 0, 74, 90
2, 34540, Note_on_c, 0, 62, 73
2, 34554, Note_on_c, 0, 60, 68
2, 34659, Note_on_c, 0, 75, 0
2, 34669, Note_on_c, 0, 75, 93
2, 34803, Control_c, 0, 64, 0
2, 34803, Note_on_c, 0, 62, 0
2, 34804, Note_on_c, 0, 75, 0
2, 34804, Note_on_c, 0, 58, 0
2, 34805, Note_on_c, 0, 60, 0
2, 34824, Note_on_c, 0, 77, 105
2, 34828, Note_on_c, 0, 34, 0
2, 34828, Note_on_c, 0, 46, 0
2, 34828, Note_on_c, 0, 50, 0
2, 34828, Note_on_c, 0, 65, 0
2, 34828, Note_on_c, 0, 74, 0
2, 34833, Note_on_c, 0, 46, 96
2, 34835, Note_on_c, 0, 65, 91
2, 34836, Note_on_c, 0, 70, 0
2, 34838, Note_on_c, 0, 74, 91
2, 34839, Note_on_c, 0, 34, 93
2, 34840, Note_on_c, 0, 70, 89
2, 34936, Control_c, 0, 64, 127
2, 35094, Note_on_c, 0, 53, 72
2, 35133, Note_on_c, 0, 58, 71
2, 35204, Note_on_c, 0, 62, 77
2, 35266, Note_on_c, 0, 65, 0
2, 35271, Note_on_c, 0, 65, 79
2, 35304, Note_on_c, 0, 70, 0
2, 35309, Note_on_c, 0, 70, 85
2, 35397, Note_on_c, 0, 74, 0
2, 35401, Note_on_c, 0, 74, 79
2, 35443, Note_on_c, 0, 77, 0
2, 35449, Note_on_c, 0, 77, 80
2, 35475, Note_on_c, 0, 44, 103
2, 35477, Note_on_c, 0, 32, 96
2, 35483, Note_on_c, 0, 82, 83
2, 35585, Note_on_c, 0, 86, 84
2, 35639, Note_on_c, 0, 89, 79
2, 35678, Note_on_c, 0, 94, 77
2, 35739, Note_on_c, 0, 98, 106
2, 35742, Note_on_c, 0, 34, 0
2, 35742, Note_on_c, 0, 46, 0
2, 35746, Note_on_c, 0, 46, 94
2, 35752, Note_on_c, 0, 34, 92
2, 36014, Note_on_c, 0, 98, 0
2, 36015, Control_c, 0, 64, 0
2, 36015, Note_on_c, 0, 94, 0
2, 36015, Note_on_c, 0, 44, 0
2, 36016, Note_on_c, 0, 77, 0
2, 36016, Note_on_c, 0, 86, 0
2, 36016, Note_on_c, 0, 62, 0
2, 36016, Note_on_c, 0, 89, 0
2, 36016, Note_on_c, 0, 58, 0
2, 36017, Note_on_c, 0, 74, 0
2, 36017, Note_on_c, 0, 65, 0
2, 36018, Note_on_c, 0, 53, 0
2, 36018, Note_on_c, 0, 46, 0
2, 36019, Note_on_c, 0, 34, 0
2, 36019, Note_on_c, 0, 32, 0
2, 36026, Note_on_c, 0, 70, 0
2, 36028, Note_on_c, 0, 66, 105
2, 36030, Note_on_c, 0, 78, 106
2, 36032, Note_on_c, 0, 70, 102
2, 36034, Note_on_c, 0, 66, 0
2, 36034, Note_on_c, 0, 82, 0
2, 36037, Note_on_c, 0, 75, 106
2, 36046, Note_on_c, 0, 27, 92
2, 36046, Note_on_c, 0, 39, 96
2, 36111, Control_c, 0, 64, 127
2, 36318, Note_on_c, 0, 27, 0
2, 36326, Note_on_c, 0, 70, 0
2, 36326, Note_on_c, 0, 75, 0
2, 36326, Note_on_c, 0, 78, 0
2, 36330, Note_on_c, 0, 78, 102
2, 36334, Note_on_c, 0, 75, 96
2, 36337, Note_on_c, 0, 66, 96
2, 36337, Note_on_c, 0, 70, 83
2, 36461, Note_on_c, 0, 63, 91
2, 36464, Note_on_c, 0, 54, 77
2, 36464, Note_on_c, 0, 58, 86
2, 36610, Note_on_c, 0, 54, 0
2, 36610, Note_on_c, 0, 66, 0
2, 36610, Note_on_c, 0, 70, 0
2, 36610, Note_on_c, 0, 75, 0
2, 36610, Note_on_c, 0, 78, 0
2, 36615, Note_on_c, 0, 78, 99
2, 36616, Note_on_c, 0, 66, 92
2, 36620, Note_on_c, 0, 70, 82
2, 36621, Note_on_c, 0, 54, 78
2, 36621, Note_on_c, 0, 75, 90
2, 36748, Note_on_c, 0, 58, 0
2, 36753, Note_on_c, 0, 58, 80
2, 36887, Note_on_c, 0, 66, 0
2, 36894, Note_on_c, 0, 54, 0
2, 36894, Note_on_c, 0, 70, 0
2, 36894, Note_on_c, 0, 75, 0
2, 36894, Note_on_c, 0, 78, 0
2, 36898, Note_on_c, 0, 66, 96
2, 36898, Note_on_c, 0, 78, 100
2, 36900, Note_on_c, 0, 54, 81
2, 36900, Note_on_c, 0, 75, 94
2, 36904, Note_on_c, 0, 70, 89
2, 36905, Note_on_c, 0, 56, 77
2, 37014, Note_on_c, 0, 51, 79
2, 37163, Note_on_c, 0, 56, 0
2, 37170, Control_c, 0, 64, 0
2, 37170, Note_on_c, 0, 39, 0
2, 37172, Note_on_c, 0, 70, 0
2, 37172, Note_on_c, 0, 58, 0
2, 37172, Note_on_c, 0, 51, 0
2, 37172, Note_on_c, 0, 54, 0
2, 37173, Note_on_c, 0, 63, 0
2, 37178, Note_on_c, 0, 78, 0
2, 37184, Note_on_c, 0, 47, 101
2, 37186, Note_on_c, 0, 66, 0
2, 37186, Note_on_c, 0, 75, 0
2, 37189, Note_on_c, 0, 78, 103
2, 37190, Note_on_c, 0, 35, 93
2, 37190, Note_on_c, 0, 66, 99
2, 37191, Note_on_c, 0, 75, 90
2, 37200, Note_on_c, 0, 71, 79
2, 37228, Note_on_c, 0, 47, 0
2, 37248, Control_c, 0, 64, 127
2, 37255, Note_on_c, 0, 35, 0
2, 37340, Note_on_c, 0, 71, 0
2, 37340, Note_on_c, 0, 75, 0
2, 37341, Note_on_c, 0, 80, 102
2, 37343, Note_on_c, 0, 68, 100
2, 37344, Note_on_c, 0, 75, 77
2, 37346, Note_on_c, 0, 71, 79
2, 37615, Note_on_c, 0, 63, 91
2, 37616, Note_on_c, 0, 66, 0
2, 37616, Note_on_c, 0, 75, 0
2, 37616, Note_on_c, 0, 78, 0
2, 37620, Note_on_c, 0, 59, 85
2, 37620, Note_on_c, 0, 78, 100
2, 37622, Note_on_c, 0, 66, 96
2, 37624, Note_on_c, 0, 71, 0
2, 37626, Note_on_c, 0, 54, 87
2, 37627, Note_on_c, 0, 75, 95
2, 37634, Note_on_c, 0, 71, 85
2, 37908, Note_on_c, 0, 59, 0
2, 37917, Note_on_c, 0, 59, 96
2, 38046, Note_on_c, 0, 54, 0
2, 38053, Note_on_c, 0, 54, 79
2, 38188, Note_on_c, 0, 51, 78
2, 38326, Note_on_c, 0, 82, 103
2, 38334, Control_c, 0, 64, 0
2, 38335, Note_on_c, 0, 71, 0
2, 38336, Note_on_c, 0, 59, 0
2, 38337, Note_on_c, 0, 73, 94
2, 38337, Note_on_c, 0, 66, 0
2, 38337, Note_on_c, 0, 54, 0
2, 38338, Note_on_c, 0, 70, 98
2, 38338, Note_on_c, 0, 80, 0
2, 38338, Note_on_c, 0, 78, 0
2, 38339, Note_on_c, 0, 75, 0
2, 38339, Note_on_c, 0, 68, 0
2, 38339, Note_on_c, 0, 51, 0
2, 38339, Note_on_c, 0, 63, 0
2, 38346, Note_on_c, 0, 78, 87
2, 38357, Note_on_c, 0, 42, 99
2, 38358, Note_on_c, 0, 30, 98
2, 38438, Control_c, 0, 64, 127
2, 38622, Note_on_c, 0, 82, 0
2, 38630, Note_on_c, 0, 70, 0
2, 38630, Note_on_c, 0, 73, 0
2, 38631, Note_on_c, 0, 82, 99
2, 38635, Note_on_c, 0, 70, 95
2, 38636, Note_on_c, 0, 73, 95
2, 38756, Note_on_c, 0, 66, 97
2, 38765, Note_on_c, 0, 54, 80
2, 38765, Note_on_c, 0, 58, 87
2, 38770, Note_on_c, 0, 61, 84
2, 38914, Note_on_c, 0, 70, 0
2, 38914, Note_on_c, 0, 73, 0
2, 38914, Note_on_c, 0, 82, 0
2, 38919, Note_on_c, 0, 82, 97
2, 38922, Note_on_c, 0, 78, 0
2, 38922, Note_on_c, 0, 73, 97
2, 38925, Note_on_c, 0, 70, 94
2, 38932, Note_on_c, 0, 78, 74
2, 39052, Note_on_c, 0, 61, 0
2, 39060, Note_on_c, 0, 61, 92
2, 39191, Note_on_c, 0, 73, 0
2, 39195, Note_on_c, 0, 83, 98
2, 39198, Note_on_c, 0, 58, 0
2, 39198, Note_on_c, 0, 78, 0
2, 39199, Note_on_c, 0, 71, 93
2, 39201, Note_on_c, 0, 73, 101
2, 39204, Note_on_c, 0, 78, 80
2, 39209, Note_on_c, 0, 58, 83
2, 39321, Note_on_c, 0, 54, 0
2, 39327, Note_on_c, 0, 54, 68
2, 39467, Note_on_c, 0, 70, 0
2, 39467, Note_on_c, 0, 82, 0
2, 39469, Control_c, 0, 64, 0
2, 39470, Note_on_c, 0, 83, 0
2, 39470, Note_on_c, 0, 61, 0
2, 39470, Note_on_c, 0, 42, 0
2, 39470, Note_on_c, 0, 54, 0
2, 39471, Note_on_c, 0, 58, 0
2, 39471, Note_on_c, 0, 66, 0
2, 39471, Note_on_c, 0, 71, 0
2, 39475, Note_on_c, 0, 30, 0
2, 39477, Note_on_c, 0, 82, 99
2, 39478, Note_on_c, 0, 70, 93
2, 39490, Note_on_c, 0, 73, 0
2, 39496, Note_on_c, 0, 73, 90
2, 39498, Note_on_c, 0, 78, 0
2, 39502, Note_on_c, 0, 49, 88
2, 39503, Note_on_c, 0, 37, 92
2, 39508, Note_on_c, 0, 78, 71
2, 39552, Control_c, 0, 64, 127
2, 39636, Note_on_c, 0, 73, 0
2, 39639, Note_on_c, 0, 80, 98
2, 39641, Note_on_c, 0, 68, 93
2, 39645, Note_on_c, 0, 73, 76
2, 39645, Note_on_c, 0, 77, 86
2, 39920, Note_on_c, 0, 68, 0
2, 39920, Note_on_c, 0, 73, 0
2, 39920, Note_on_c, 0, 77, 0
2, 39920, Note_on_c, 0, 80, 0
2, 39922, Note_on_c, 0, 65, 92
2, 39926, Note_on_c, 0, 68, 100
2, 39926, Note_on_c, 0, 80, 97
2, 39927, Note_on_c, 0, 77, 96
2, 39927, Note_on_c, 0, 61, 88
2, 39928, Note_on_c, 0, 56, 84
2, 39930, Note_on_c, 0, 73, 90
2, 39943, Note_on_c, 0, 37, 0
2, 40204, Note_on_c, 0, 61, 0
2, 40213, Note_on_c, 0, 61, 93
2, 40343, Note_on_c, 0, 56, 0
2, 40348, Note_on_c, 0, 56, 81
2, 40476, Note_on_c, 0, 53, 81
2, 40619, Note_on_c, 0, 78, 0
2, 40629, Note_on_c, 0, 78, 108
2, 40632, Note_on_c, 0, 66, 101
2, 40642, Note_on_c, 0, 70, 0
2, 40646, Note_on_c, 0, 82, 0
2, 40646, Note_on_c, 0, 73, 0
2, 40646, Note_on_c, 0, 77, 0
2, 40646, Control_c, 0, 64, 0
2, 40647, Note_on_c, 0, 80, 0
2, 40648, Note_on_c, 0, 65, 0
2, 40648, Note_on_c, 0, 61, 0
2, 40648, Note_on_c, 0, 68, 0
2, 40649, Note_on_c, 0, 56, 0
2, 40651, Note_on_c, 0, 53, 0
2, 40653, Note_on_c, 0, 70, 91
2, 40654, Note_on_c, 0, 27, 88
2, 40654, Note_on_c, 0, 39, 89
2, 40655, Note_on_c, 0, 75, 94
2, 40665, Note_on_c, 0, 49, 0
2, 40719, Control_c, 0, 64, 127
2, 40911, Note_on_c, 0, 66, 0
2, 40911, Note_on_c, 0, 70, 0
2, 40911, Note_on_c, 0, 75, 0
2, 40911, Note_on_c, 0, 78, 0
2, 40918, Note_on_c, 0, 78, 98
2, 40921, Note_on_c, 0, 75, 95
2, 40922, Note_on_c, 0, 66, 91
2, 40922, Note_on_c, 0, 70, 83
2, 41057, Note_on_c, 0, 75, 0
2, 41062, Note_on_c, 0, 75, 83
2, 41063, Note_on_c, 0, 63, 86
2, 41067, Note_on_c, 0, 58, 81
2, 41068, Note_on_c, 0, 54, 82
2, 41210, Note_on_c, 0, 78, 0
2, 41218, Note_on_c, 0, 66, 0
2, 41218, Note_on_c, 0, 70, 0
2, 41218, Note_on_c, 0, 75, 0
2, 41219, Note_on_c, 0, 78, 98
2, 41222, Note_on_c, 0, 75, 93
2, 41223, Note_on_c, 0, 66, 93
2, 41225, Note_on_c, 0, 70, 81
2, 41349, Note_on_c, 0, 58, 0
2, 41353, Note_on_c, 0, 58, 82
2, 41487, Note_on_c, 0, 66, 0
2, 41487, Note_on_c, 0, 78, 0
2, 41495, Note_on_c, 0, 54, 0
2, 41495, Note_on_c, 0, 70, 0
2, 41495, Note_on_c, 0, 75, 0
2, 41498, Note_on_c, 0, 78, 102
2, 41498, Note_on_c, 0, 66, 96
2, 41504, Note_on_c, 0, 75, 95
2, 41504, Note_on_c, 0, 70, 89
2, 41505, Note_on_c, 0, 54, 78
2, 41506, Note_on_c, 0, 42, 70
2, 41510, Note_on_c, 0, 42, 0
2, 41628, Note_on_c, 0, 51, 72
2, 41756, Note_on_c, 0, 27, 0
2, 41761, Control_c, 0, 64, 0
2, 41765, Note_on_c, 0, 54, 0
2, 41765, Note_on_c, 0, 39, 0
2, 41765, Note_on_c, 0, 51, 0
2, 41765, Note_on_c, 0, 58, 0
2, 41766, Note_on_c, 0, 70, 0
2, 41766, Note_on_c, 0, 63, 0
2, 41771, Note_on_c, 0, 78, 0
2, 41779, Note_on_c, 0, 66, 0
2, 41779, Note_on_c, 0, 75, 0
2, 41780, Note_on_c, 0, 78, 101
2, 41784, Note_on_c, 0, 47, 96
2, 41790, Note_on_c, 0, 66, 98
2, 41790, Note_on_c, 0, 35, 87
2, 41790, Note_on_c, 0, 75, 93
2, 41794, Note_on_c, 0, 71, 85
2, 41821, Note_on_c, 0, 35, 0
2, 41840, Control_c, 0, 64, 127
2, 41932, Note_on_c, 0, 71, 0
2, 41938, Note_on_c, 0, 80, 98
2, 41944, Note_on_c, 0, 71, 83
2, 41944, Note_on_c, 0, 68, 95
2, 42209, Note_on_c, 0, 66, 0
2, 42216, Note_on_c, 0, 75, 0
2, 42216, Note_on_c, 0, 78, 0
2, 42219, Note_on_c, 0, 63, 93
2, 42220, Note_on_c, 0, 66, 93
2, 42222, Note_on_c, 0, 75, 94
2, 42223, Note_on_c, 0, 78, 100
2, 42225, Note_on_c, 0, 54, 83
2, 42232, Note_on_c, 0, 71, 0
2, 42238, Note_on_c, 0, 71, 73
2, 42239, Note_on_c, 0, 59, 80
2, 42501, Note_on_c, 0, 54, 0
2, 42501, Note_on_c, 0, 59, 0
2, 42501, Note_on_c, 0, 66, 0
2, 42501, Note_on_c, 0, 78, 0
2, 42509, Note_on_c, 0, 54, 76
2, 42510, Note_on_c, 0, 59, 80
2, 42510, Note_on_c, 0, 78, 100
2, 42511, Note_on_c, 0, 66, 96
2, 42654, Note_on_c, 0, 54, 0
2, 42654, Note_on_c, 0, 68, 0
2, 42654, Note_on_c, 0, 80, 0
2, 42658, Note_on_c, 0, 54, 74
2, 42660, Note_on_c, 0, 68, 97
2, 42665, Note_on_c, 0, 80, 97
2, 42740, Note_on_c, 0, 51, 76
2, 42807, Note_on_c, 0, 82, 100
2, 42811, Note_on_c, 0, 70, 98
2, 42818, Note_on_c, 0, 73, 88
2, 42882, Control_c, 0, 64, 0
2, 42884, Note_on_c, 0, 71, 0
2, 42884, Note_on_c, 0, 80, 0
2, 42884, Note_on_c, 0, 78, 0
2, 42884, Note_on_c, 0, 59, 0
2, 42885, Note_on_c, 0, 66, 0
2, 42886, Note_on_c, 0, 54, 0
2, 42886, Note_on_c, 0, 75, 0
2, 42886, Note_on_c, 0, 63, 0
2, 42886, Note_on_c, 0, 68, 0
2, 42887, Note_on_c, 0, 51, 0
2, 42892, Note_on_c, 0, 47, 0
2, 42931, Control_c, 0, 64, 127
2, 42943, Note_on_c, 0, 42, 95
2, 42943, Note_on_c, 0, 30, 97
2, 43099, Note_on_c, 0, 78, 96
2, 43102, Note_on_c, 0, 90, 87
2, 43242, Note_on_c, 0, 92, 90
2, 43242, Note_on_c, 0, 80, 89
2, 43381, Note_on_c, 0, 66, 93
2, 43384, Note_on_c, 0, 82, 0
2, 43388, Note_on_c, 0, 94, 103
2, 43390, Note_on_c, 0, 82, 97
2, 43390, Note_on_c, 0, 61, 87
2, 43392, Note_on_c, 0, 58, 84
2, 43395, Note_on_c, 0, 54, 78
2, 43406, Note_on_c, 0, 85, 89
2, 43407, Note_on_c, 0, 90, 0
2, 43411, Note_on_c, 0, 90, 77
2, 43668, Note_on_c, 0, 61, 0
2, 43679, Note_on_c, 0, 61, 84
2, 43685, Note_on_c, 0, 83, 96
2, 43686, Note_on_c, 0, 71, 93
2, 43706, Note_on_c, 0, 58, 0
2, 43718, Note_on_c, 0, 58, 53
2, 43822, Note_on_c, 0, 58, 0
2, 43822, Note_on_c, 0, 70, 0
2, 43822, Note_on_c, 0, 82, 0
2, 43827, Note_on_c, 0, 82, 96
2, 43831, Note_on_c, 0, 58, 76
2, 43832, Note_on_c, 0, 70, 97
2, 43914, Note_on_c, 0, 54, 0
2, 43924, Note_on_c, 0, 54, 76
2, 43968, Note_on_c, 0, 80, 0
2, 43972, Note_on_c, 0, 80, 100
2, 43978, Note_on_c, 0, 68, 99
2, 43982, Note_on_c, 0, 77, 89
2, 43983, Note_on_c, 0, 73, 0
2, 43987, Note_on_c, 0, 73, 78
2, 44043, Control_c, 0, 64, 0
2, 44047, Note_on_c, 0, 42, 0
2, 44048, Note_on_c, 0, 71, 0
2, 44048, Note_on_c, 0, 83, 0
2, 44048, Note_on_c, 0, 85, 0
2, 44048, Note_on_c, 0, 54, 0
2, 44049, Note_on_c, 0, 90, 0
2, 44049, Note_on_c, 0, 61, 0
2, 44049, Note_on_c, 0, 66, 0
2, 44049, Note_on_c, 0, 58, 0
2, 44049, Note_on_c, 0, 92, 0
2, 44049, Note_on_c, 0, 70, 0
2, 44049, Note_on_c, 0, 94, 0
2, 44049, Note_on_c, 0, 73, 0
2, 44050, Note_on_c, 0, 78, 0
2, 44050, Note_on_c, 0, 82, 0
2, 44052, Note_on_c, 0, 30, 0
2, 44083, Control_c, 0, 64, 127
2, 44097, Note_on_c, 0, 49, 89
2, 44098, Note_on_c, 0, 37, 97
2, 44255, Note_on_c, 0, 95, 99
2, 44261, Note_on_c, 0, 83, 87
2, 44400, Note_on_c, 0, 82, 91
2, 44400, Note_on_c, 0, 94, 90
2, 44533, Note_on_c, 0, 65, 83
2, 44539, Note_on_c, 0, 61, 78
2, 44540, Note_on_c, 0, 56, 78
2, 44544, Note_on_c, 0, 80, 0
2, 44547, Note_on_c, 0, 92, 95
2, 44548, Note_on_c, 0, 80, 97
2, 44574, Note_on_c, 0, 85, 93
2, 44577, Note_on_c, 0, 89, 82
2, 44812, Note_on_c, 0, 61, 0
2, 44822, Note_on_c, 0, 61, 81
2, 44951, Note_on_c, 0, 56, 0
2, 44961, Note_on_c, 0, 56, 78
2, 45092, Note_on_c, 0, 53, 76
2, 45227, Note_on_c, 0, 90, 103
2, 45230, Note_on_c, 0, 95, 0
2, 45230, Control_c, 0, 64, 0
2, 45231, Note_on_c, 0, 94, 0
2, 45231, Note_on_c, 0, 65, 0
2, 45231, Note_on_c, 0, 82, 0
2, 45231, Note_on_c, 0, 37, 0
2, 45231, Note_on_c, 0, 92, 0
2, 45231, Note_on_c, 0, 85, 0
2, 45231, Note_on_c, 0, 49, 0
2, 45231, Note_on_c, 0, 89, 0
2, 45231, Note_on_c, 0, 80, 0
2, 45231, Note_on_c, 0, 83, 0
2, 45232, Note_on_c, 0, 53, 0
2, 45232, Note_on_c, 0, 56, 0
2, 45233, Note_on_c, 0, 39, 79
2, 45242, Note_on_c, 0, 68, 0
2, 45242, Note_on_c, 0, 77, 0
2, 45250, Note_on_c, 0, 61, 0
2, 45288, Control_c, 0, 64, 127
2, 45289, Note_on_c, 0, 87, 89
2, 45376, Note_on_c, 0, 51, 75
2, 45385, Note_on_c, 0, 82, 78
2, 45450, Note_on_c, 0, 78, 79
2, 45511, Note_on_c, 0, 90, 0
2, 45522, Note_on_c, 0, 90, 90
2, 45529, Note_on_c, 0, 54, 65
2, 45588, Note_on_c, 0, 87, 0
2, 45593, Note_on_c, 0, 87, 87
2, 45657, Note_on_c, 0, 82, 0
2, 45657, Note_on_c, 0, 58, 70
2, 45668, Note_on_c, 0, 82, 75
2, 45726, Note_on_c, 0, 78, 0
2, 45737, Note_on_c, 0, 78, 82
2, 45788, Note_on_c, 0, 51, 0
2, 45795, Note_on_c, 0, 90, 0
2, 45796, Note_on_c, 0, 51, 78
2, 45799, Note_on_c, 0, 90, 92
2, 45864, Note_on_c, 0, 87, 0
2, 45873, Note_on_c, 0, 87, 88
2, 45941, Note_on_c, 0, 82, 0
2, 45943, Note_on_c, 0, 63, 78
2, 45946, Note_on_c, 0, 82, 76
2, 46003, Note_on_c, 0, 78, 0
2, 46014, Note_on_c, 0, 78, 74
2, 46072, Note_on_c, 0, 58, 0
2, 46072, Note_on_c, 0, 90, 0
2, 46081, Note_on_c, 0, 90, 91
2, 46083, Note_on_c, 0, 58, 53
2, 46133, Note_on_c, 0, 87, 0
2, 46143, Note_on_c, 0, 87, 85
2, 46195, Note_on_c, 0, 54, 0
2, 46195, Note_on_c, 0, 82, 0
2, 46199, Note_on_c, 0, 54, 73
2, 46205, Note_on_c, 0, 82, 77
2, 46248, Note_on_c, 0, 78, 0
2, 46254, Note_on_c, 0, 78, 67
2, 46333, Note_on_c, 0, 90, 0
2, 46341, Note_on_c, 0, 78, 0
2, 46343, Note_on_c, 0, 90, 96
2, 46351, Note_on_c, 0, 78, 98
2, 46364, Note_on_c, 0, 87, 0
2, 46367, Note_on_c, 0, 58, 0
2, 46367, Note_on_c, 0, 35, 80
2, 46368, Note_on_c, 0, 82, 0
2, 46368, Note_on_c, 0, 54, 0
2, 46369, Note_on_c, 0, 87, 82
2, 46369, Control_c, 0, 64, 0
2, 46369, Note_on_c, 0, 39, 0
2, 46371, Note_on_c, 0, 51, 0
2, 46371, Note_on_c, 0, 63, 0
2, 46386, Note_on_c, 0, 83, 72
2, 46410, Control_c, 0, 64, 127
2, 46489, Note_on_c, 0, 47, 72
2, 46498, Note_on_c, 0, 80, 90
2, 46498, Note_on_c, 0, 92, 94
2, 46510, Note_on_c, 0, 83, 0
2, 46519, Note_on_c, 0, 83, 68
2, 46608, Note_on_c, 0, 51, 68
2, 46748, Note_on_c, 0, 78, 0
2, 46748, Note_on_c, 0, 90, 0
2, 46754, Note_on_c, 0, 90, 96
2, 46758, Note_on_c, 0, 78, 96
2, 46759, Note_on_c, 0, 54, 69
2, 46771, Note_on_c, 0, 83, 0
2, 46771, Note_on_c, 0, 87, 0
2, 46775, Note_on_c, 0, 87, 73
2, 46777, Note_on_c, 0, 83, 75
2, 46901, Note_on_c, 0, 47, 0
2, 46907, Note_on_c, 0, 47, 77
2, 46913, Note_on_c, 0, 71, 79
2, 46990, Note_on_c, 0, 75, 81
2, 47044, Note_on_c, 0, 59, 75
2, 47047, Note_on_c, 0, 78, 0
2, 47056, Note_on_c, 0, 78, 77
2, 47101, Note_on_c, 0, 83, 0
2, 47112, Note_on_c, 0, 83, 76
2, 47178, Note_on_c, 0, 54, 0
2, 47178, Note_on_c, 0, 83, 0
2, 47185, Note_on_c, 0, 54, 68
2, 47189, Note_on_c, 0, 83, 85
2, 47255, Note_on_c, 0, 87, 0
2, 47265, Note_on_c, 0, 87, 85
2, 47316, Note_on_c, 0, 51, 0
2, 47316, Note_on_c, 0, 90, 0
2, 47320, Note_on_c, 0, 90, 71
2, 47321, Note_on_c, 0, 51, 65
2, 47373, Note_on_c, 0, 95, 88
2, 47474, Note_on_c, 0, 42, 95
2, 47486, Note_on_c, 0, 47, 0
2, 47486, Note_on_c, 0, 59, 0
2, 47487, Control_c, 0, 64, 0
2, 47487, Note_on_c, 0, 94, 98
2, 47487, Note_on_c, 0, 90, 0
2, 47487, Note_on_c, 0, 51, 0
2, 47487, Note_on_c, 0, 87, 0
2, 47487, Note_on_c, 0, 54, 0
2, 47488, Note_on_c, 0, 92, 0
2, 47488, Note_on_c, 0, 78, 0
2, 47488, Note_on_c, 0, 80, 0
2, 47489, Note_on_c, 0, 75, 0
2, 47489, Note_on_c, 0, 95, 0
2, 47493, Note_on_c, 0, 35, 0
2, 47500, Note_on_c, 0, 71, 0
2, 47508, Note_on_c, 0, 83, 0
2, 47537, Note_on_c, 0, 90, 67
2, 47554, Control_c, 0, 64, 127
2, 47621, Note_on_c, 0, 54, 66
2, 47627, Note_on_c, 0, 85, 79
2, 47703, Note_on_c, 0, 82, 75
2, 47765, Note_on_c, 0, 58, 71
2, 47769, Note_on_c, 0, 94, 0
2, 47775, Note_on_c, 0, 94, 95
2, 47831, Note_on_c, 0, 90, 0
2, 47835, Note_on_c, 0, 90, 83
2, 47894, Note_on_c, 0, 61, 65
2, 47907, Note_on_c, 0, 85, 0
2, 47911, Note_on_c, 0, 85, 85
2, 47976, Note_on_c, 0, 82, 0
2, 47981, Note_on_c, 0, 82, 73
2, 48038, Note_on_c, 0, 54, 0
2, 48042, Note_on_c, 0, 54, 78
2, 48046, Note_on_c, 0, 94, 0
2, 48049, Note_on_c, 0, 94, 94
2, 48115, Note_on_c, 0, 90, 0
2, 48124, Note_on_c, 0, 90, 80
2, 48184, Note_on_c, 0, 85, 0
2, 48195, Note_on_c, 0, 85, 82
2, 48200, Note_on_c, 0, 66, 85
2, 48245, Note_on_c, 0, 82, 0
2, 48249, Note_on_c, 0, 82, 72
2, 48326, Note_on_c, 0, 95, 101
2, 48337, Note_on_c, 0, 61, 0
2, 48348, Note_on_c, 0, 61, 75
2, 48391, Note_on_c, 0, 90, 0
2, 48396, Note_on_c, 0, 90, 79
2, 48460, Note_on_c, 0, 58, 0
2, 48460, Note_on_c, 0, 85, 0
2, 48464, Note_on_c, 0, 58, 75
2, 48470, Note_on_c, 0, 85, 82
2, 48500, Note_on_c, 0, 83, 76
2, 48599, Note_on_c, 0, 94, 0
2, 48606, Note_on_c, 0, 85, 0
2, 48609, Note_on_c, 0, 94, 101
2, 48614, Note_on_c, 0, 82, 0
2, 48617, Note_on_c, 0, 85, 93
2, 48617, Note_on_c, 0, 37, 89
2, 48618, Control_c, 0, 64, 0
2, 48619, Note_on_c, 0, 82, 87
2, 48620, Note_on_c, 0, 61, 0
2, 48625, Note_on_c, 0, 83, 0
2, 48625, Note_on_c, 0, 58, 0
2, 48625, Note_on_c, 0, 54, 0
2, 48626, Note_on_c, 0, 66, 0
2, 48626, Note_on_c, 0, 90, 0
2, 48637, Note_on_c, 0, 42, 0
2, 48637, Note_on_c, 0, 95, 0
2, 48660, Control_c, 0, 64, 127
2, 48748, Note_on_c, 0, 49, 82
2, 48756, Note_on_c, 0, 92, 90
2, 48764, Note_on_c, 0, 89, 90
2, 48768, Note_on_c, 0, 85, 0
2, 48770, Note_on_c, 0, 80, 93
2, 48773, Note_on_c, 0, 85, 89
2, 48891, Note_on_c, 0, 53, 68
2, 49013, Note_on_c, 0, 80, 0
2, 49013, Note_on_c, 0, 92, 0
2, 49019, Note_on_c, 0, 92, 93
2, 49025, Note_on_c, 0, 80, 86
2, 49029, Note_on_c, 0, 85, 0
2, 49035, Note_on_c, 0, 85, 85
2, 49044, Note_on_c, 0, 56, 69
2, 49167, Note_on_c, 0, 49, 0
2, 49170, Control_c, 0, 64, 0
2, 49177, Note_on_c, 0, 97, 99
2, 49177, Note_on_c, 0, 49, 75
2, 49190, Control_c, 0, 64, 127
2, 49228, Note_on_c, 0, 92, 0
2, 49239, Note_on_c, 0, 92, 66
2, 49313, Note_on_c, 0, 89, 0
2, 49323, Note_on_c, 0, 89, 79
2, 49325, Note_on_c, 0, 61, 70
2, 49451, Note_on_c, 0, 56, 0
2, 49459, Note_on_c, 0, 85, 0
2, 49461, Note_on_c, 0, 56, 74
2, 49463, Note_on_c, 0, 85, 92
2, 49536, Note_on_c, 0, 80, 0
2, 49542, Note_on_c, 0, 80, 78
2, 49597, Note_on_c, 0, 53, 0
2, 49601, Note_on_c, 0, 53, 69
2, 49601, Note_on_c, 0, 77, 67
2, 49645, Note_on_c, 0, 73, 83
2, 49738, Note_on_c, 0, 39, 82
2, 49740, Control_c, 0, 64, 0
2, 49740, Note_on_c, 0, 94, 0
2, 49741, Note_on_c, 0, 37, 0
2, 49741, Note_on_c, 0, 80, 0
2, 49742, Note_on_c, 0, 85, 0
2, 49742, Note_on_c, 0, 49, 0
2, 49743, Note_on_c, 0, 77, 0
2, 49744, Note_on_c, 0, 61, 0
2, 49744, Note_on_c, 0, 53, 0
2, 49744, Note_on_c, 0, 73, 0
2, 49745, Note_on_c, 0, 90, 91
2, 49751, Note_on_c, 0, 82, 0
2, 49751, Note_on_c, 0, 97, 0
2, 49758, Note_on_c, 0, 56, 0
2, 49766, Note_on_c, 0, 92, 0
2, 49774, Note_on_c, 0, 89, 0
2, 49797, Control_c, 0, 64, 127
2, 49800, Note_on_c, 0, 87, 87
2, 49883, Note_on_c, 0, 51, 71
2, 49887, Note_on_c, 0, 82, 78
2, 49960, Note_on_c, 0, 78, 80
2, 50021, Note_on_c, 0, 54, 62
2, 50027, Note_on_c, 0, 90, 0
2, 50033, Note_on_c, 0, 90, 95
2, 50088, Note_on_c, 0, 87, 0
2, 50098, Note_on_c, 0, 87, 87
2, 50158, Note_on_c, 0, 82, 0
2, 50160, Note_on_c, 0, 58, 56
2, 50163, Note_on_c, 0, 82, 77
2, 50227, Note_on_c, 0, 78, 0
2, 50233, Note_on_c, 0, 78, 84
2, 50304, Note_on_c, 0, 51, 0
2, 50304, Note_on_c, 0, 90, 0
2, 50310, Note_on_c, 0, 90, 94
2, 50315, Note_on_c, 0, 51, 71
2, 50449, Note_on_c, 0, 82, 0
2, 50457, Note_on_c, 0, 82, 75
2, 50467, Note_on_c, 0, 63, 70
2, 50503, Note_on_c, 0, 78, 0
2, 50514, Note_on_c, 0, 78, 76
2, 50588, Note_on_c, 0, 90, 0
2, 50595, Note_on_c, 0, 58, 0
2, 50596, Note_on_c, 0, 90, 91
2, 50603, Note_on_c, 0, 58, 63
2, 50649, Note_on_c, 0, 87, 0
2, 50657, Note_on_c, 0, 87, 83
2, 50711, Note_on_c, 0, 54, 0
2, 50711, Note_on_c, 0, 82, 0
2, 50717, Note_on_c, 0, 54, 71
2, 50721, Note_on_c, 0, 82, 74
2, 50787, Note_on_c, 0, 78, 0
2, 50791, Note_on_c, 0, 78, 61
2, 50868, Note_on_c, 0, 35, 81
2, 50868, Control_c, 0, 64, 0
2, 50872, Note_on_c, 0, 78, 0
2, 50872, Note_on_c, 0, 87, 0
2, 50872, Note_on_c, 0, 90, 0
2, 50875, Note_on_c, 0, 58, 0
2, 50875, Note_on_c, 0, 82, 0
2, 50876, Note_on_c, 0, 54, 0
2, 50876, Note_on_c, 0, 39, 0
2, 50877, Note_on_c, 0, 63, 0
2, 50877, Note_on_c, 0, 78, 98
2, 50877, Note_on_c, 0, 51, 0
2, 50883, Note_on_c, 0, 90, 99
2, 50883, Note_on_c, 0, 87, 93
2, 50887, Note_on_c, 0, 83, 86
2, 50926, Control_c, 0, 64, 127
2, 51013, Note_on_c, 0, 47, 68
2, 51018, Note_on_c, 0, 92, 97
2, 51020, Note_on_c, 0, 80, 94
2, 51041, Note_on_c, 0, 83, 0
2, 51045, Note_on_c, 0, 83, 66
2, 51153, Note_on_c, 0, 51, 56
2, 51287, Note_on_c, 0, 78, 0
2, 51287, Note_on_c, 0, 90, 0
2, 51292, Note_on_c, 0, 54, 69
2, 51294, Note_on_c, 0, 78, 96
2, 51294, Note_on_c, 0, 87, 0
2, 51295, Note_on_c, 0, 90, 98
2, 51302, Note_on_c, 0, 87, 78
2, 51302, Note_on_c, 0, 83, 0
2, 51308, Note_on_c, 0, 83, 78
2, 51425, Note_on_c, 0, 47, 0
2, 51435, Note_on_c, 0, 47, 79
2, 51563, Note_on_c, 0, 78, 0
2, 51567, Note_on_c, 0, 59, 78
2, 51567, Note_on_c, 0, 78, 96
2, 51640, Note_on_c, 0, 90, 0
2, 51646, Note_on_c, 0, 90, 86
2, 51709, Note_on_c, 0, 54, 0
2, 51709, Note_on_c, 0, 80, 0
2, 51714, Note_on_c, 0, 80, 96
2, 51714, Note_on_c, 0, 54, 65
2, 51778, Note_on_c, 0, 92, 0
2, 51783, Note_on_c, 0, 92, 78
2, 51824, Note_on_c, 0, 35, 0
2, 51832, Note_on_c, 0, 51, 0
2, 51842, Note_on_c, 0, 51, 78
2, 51848, Note_on_c, 0, 82, 86
2, 51914, Note_on_c, 0, 94, 97
2, 51983, Control_c, 0, 64, 0
2, 51988, Note_on_c, 0, 59, 0
2, 51990, Note_on_c, 0, 90, 0
2, 51990, Note_on_c, 0, 80, 0
2, 51990, Note_on_c, 0, 78, 0
2, 51990, Note_on_c, 0, 92, 0
2, 51990, Note_on_c, 0, 83, 0
2, 51990, Note_on_c, 0, 54, 0
2, 51991, Note_on_c, 0, 87, 0
2, 51996, Note_on_c, 0, 42, 90
2, 52001, Note_on_c, 0, 51, 0
2, 52008, Note_on_c, 0, 47, 0
2, 52016, Control_c, 0, 64, 127
2, 52132, Note_on_c, 0, 54, 75
2, 52149, Note_on_c, 0, 66, 91
2, 52149, Note_on_c, 0, 78, 83
2, 52216, Note_on_c, 0, 78, 0
2, 52223, Note_on_c, 0, 78, 89
2, 52265, Note_on_c, 0, 58, 72
2, 52292, Note_on_c, 0, 68, 96
2, 52370, Note_on_c, 0, 80, 80
2, 52420, Note_on_c, 0, 70, 89
2, 52421, Note_on_c, 0, 61, 73
2, 52469, Note_on_c, 0, 82, 0
2, 52475, Note_on_c, 0, 82, 89
2, 52577, Note_on_c, 0, 54, 0
2, 52581, Note_on_c, 0, 54, 87
2, 52715, Note_on_c, 0, 66, 0
2, 52715, Note_on_c, 0, 78, 0
2, 52718, Note_on_c, 0, 83, 92
2, 52723, Note_on_c, 0, 66, 95
2, 52725, Note_on_c, 0, 78, 89
2, 52789, Note_on_c, 0, 95, 85
2, 52838, Note_on_c, 0, 61, 0
2, 52846, Note_on_c, 0, 82, 0
2, 52849, Note_on_c, 0, 61, 71
2, 52856, Note_on_c, 0, 82, 89
2, 52922, Note_on_c, 0, 94, 0
2, 52933, Note_on_c, 0, 94, 95
2, 52945, Note_on_c, 0, 58, 0
2, 52956, Note_on_c, 0, 58, 77
2, 53007, Note_on_c, 0, 80, 0
2, 53014, Note_on_c, 0, 80, 92
2, 53076, Note_on_c, 0, 92, 92
2, 53086, Note_on_c, 0, 90, 80
2, 53102, Note_on_c, 0, 42, 0
2, 53102, Note_on_c, 0, 58, 0
2, 53103, Note_on_c, 0, 54, 0
2, 53103, Note_on_c, 0, 83, 0
2, 53103, Note_on_c, 0, 61, 0
2, 53103, Note_on_c, 0, 68, 0
2, 53104, Note_on_c, 0, 78, 0
2, 53104, Note_on_c, 0, 70, 0
2, 53104, Note_on_c, 0, 95, 0
2, 53104, Note_on_c, 0, 66, 0
2, 53105, Note_on_c, 0, 94, 0
2, 53105, Control_c, 0, 64, 0
2, 53132, Note_on_c, 0, 37, 95
2, 53137, Control_c, 0, 64, 127
2, 53271, Note_on_c, 0, 49, 75
2, 53273, Note_on_c, 0, 71, 89
2, 53341, Note_on_c, 0, 83, 81
2, 53394, Note_on_c, 0, 53, 78
2, 53403, Note_on_c, 0, 70, 89
2, 53468, Note_on_c, 0, 82, 0
2, 53478, Note_on_c, 0, 82, 84
2, 53537, Note_on_c, 0, 80, 0
2, 53543, Note_on_c, 0, 56, 77
2, 53543, Note_on_c, 0, 68, 97
2, 53547, Note_on_c, 0, 80, 83
2, 53591, Note_on_c, 0, 80, 0
2, 53595, Note_on_c, 0, 80, 80
2, 53683, Note_on_c, 0, 49, 0
2, 53687, Note_on_c, 0, 49, 87
2, 53829, Note_on_c, 0, 90, 0
2, 53833, Note_on_c, 0, 90, 98
2, 53836, Note_on_c, 0, 82, 0
2, 53836, Note_on_c, 0, 78, 98
2, 53840, Note_on_c, 0, 82, 90
2, 53841, Note_on_c, 0, 61, 89
2, 53952, Note_on_c, 0, 56, 0
2, 53963, Note_on_c, 0, 56, 70
2, 53982, Note_on_c, 0, 80, 0
2, 53984, Note_on_c, 0, 89, 102
2, 53987, Note_on_c, 0, 77, 98
2, 53993, Note_on_c, 0, 80, 92
2, 54067, Note_on_c, 0, 53, 0
2, 54071, Note_on_c, 0, 53, 69
2, 54120, Note_on_c, 0, 78, 0
2, 54124, Note_on_c, 0, 87, 98
2, 54127, Note_on_c, 0, 75, 98
2, 54132, Note_on_c, 0, 78, 96
2, 54224, Control_c, 0, 64, 0
2, 54230, Note_on_c, 0, 37, 0
2, 54231, Note_on_c, 0, 49, 0
2, 54233, Note_on_c, 0, 83, 0
2, 54233, Note_on_c, 0, 68, 0
2, 54233, Note_on_c, 0, 89, 0
2, 54233, Note_on_c, 0, 77, 0
2, 54233, Note_on_c, 0, 53, 0
2, 54233, Note_on_c, 0, 82, 0
2, 54234, Note_on_c, 0, 61, 0
2, 54234, Note_on_c, 0, 70, 0
2, 54234, Note_on_c, 0, 80, 0
2, 54234, Note_on_c, 0, 92, 0
2, 54234, Note_on_c, 0, 71, 0
2, 54235, Note_on_c, 0, 90, 0
2, 54243, Note_on_c, 0, 56, 0
2, 54247, Note_on_c, 0, 35, 90
2, 54297, Control_c, 0, 64, 127
2, 54393, Note_on_c, 0, 47, 83
2, 54522, Note_on_c, 0, 51, 82
2, 54609, Note_on_c, 0, 54, 73
2, 54666, Note_on_c, 0, 59, 77
2, 54753, Note_on_c, 0, 63, 76
2, 54818, Note_on_c, 0, 66, 87
2, 54906, Note_on_c, 0, 71, 80
2, 54958, Note_on_c, 0, 75, 0
2, 54963, Note_on_c, 0, 75, 79
2, 55011, Note_on_c, 0, 78, 0
2, 55015, Note_on_c, 0, 78, 77
2, 55094, Note_on_c, 0, 83, 78
2, 55150, Note_on_c, 0, 87, 0
2, 55156, Note_on_c, 0, 87, 89
2, 55220, Note_on_c, 0, 90, 84
2, 55292, Note_on_c, 0, 95, 95
2, 55384, Control_c, 0, 64, 0
2, 55398, Note_on_c, 0, 37, 95
2, 55398, Note_on_c, 0, 49, 89
2, 55399, Note_on_c, 0, 51, 0
2, 55401, Note_on_c, 0, 54, 0
2, 55401, Note_on_c, 0, 63, 0
2, 55403, Note_on_c, 0, 87, 0
2, 55404, Note_on_c, 0, 47, 0
2, 55404, Note_on_c, 0, 75, 0
2, 55404, Note_on_c, 0, 71, 0
2, 55405, Note_on_c, 0, 59, 0
2, 55406, Note_on_c, 0, 66, 0
2, 55411, Note_on_c, 0, 35, 0
2, 55434, Control_c, 0, 64, 127
2, 55690, Note_on_c, 0, 56, 82
2, 55752, Note_on_c, 0, 61, 79
2, 55814, Note_on_c, 0, 65, 86
2, 55916, Note_on_c, 0, 68, 80
2, 55964, Note_on_c, 0, 90, 0
2, 55974, Note_on_c, 0, 90, 92
2, 55977, Note_on_c, 0, 85, 101
2, 55977, Note_on_c, 0, 89, 84
2, 55978, Note_on_c, 0, 80, 99
2, 55983, Note_on_c, 0, 73, 87
2, 56263, Note_on_c, 0, 89, 0
2, 56271, Note_on_c, 0, 80, 0
2, 56271, Note_on_c, 0, 85, 0
2, 56272, Note_on_c, 0, 89, 105
2, 56275, Note_on_c, 0, 85, 96
2, 56279, Note_on_c, 0, 77, 94
2, 56280, Note_on_c, 0, 80, 91
2, 56540, Note_on_c, 0, 89, 0
2, 56547, Note_on_c, 0, 77, 0
2, 56551, Note_on_c, 0, 89, 101
2, 56555, Note_on_c, 0, 80, 0
2, 56555, Note_on_c, 0, 85, 0
2, 56556, Note_on_c, 0, 77, 91
2, 56559, Note_on_c, 0, 85, 96
2, 56563, Note_on_c, 0, 80, 92
2, 56570, Note_on_c, 0, 95, 0
2, 56571, Note_on_c, 0, 39, 83
2, 56576, Control_c, 0, 64, 0
2, 56609, Control_c, 0, 64, 127
2, 56702, Note_on_c, 0, 51, 90
2, 56851, Note_on_c, 0, 97, 100
2, 56929, Note_on_c, 0, 92, 78
2, 57008, Note_on_c, 0, 89, 0
2, 57013, Note_on_c, 0, 89, 78
2, 57047, Note_on_c, 0, 85, 0
2, 57055, Note_on_c, 0, 85, 79
2, 57198, Note_on_c, 0, 79, 68
2, 57200, Note_on_c, 0, 77, 0
2, 57210, Note_on_c, 0, 77, 76
2, 57269, Note_on_c, 0, 73, 0
2, 57278, Note_on_c, 0, 73, 76
2, 57331, Note_on_c, 0, 68, 0
2, 57337, Note_on_c, 0, 68, 84
2, 57408, Note_on_c, 0, 65, 0
2, 57419, Note_on_c, 0, 65, 76
2, 57461, Note_on_c, 0, 61, 0
2, 57473, Note_on_c, 0, 61, 81
2, 57569, Note_on_c, 0, 56, 0
2, 57574, Note_on_c, 0, 56, 87
2, 57584, Note_on_c, 0, 79, 0
2, 57585, Note_on_c, 0, 87, 101
2, 57588, Note_on_c, 0, 75, 98
2, 57590, Note_on_c, 0, 79, 89
2, 57602, Note_on_c, 0, 82, 77
2, 57609, Note_on_c, 0, 53, 73
2, 57715, Note_on_c, 0, 39, 0
2, 57715, Note_on_c, 0, 87, 0
2, 57718, Control_c, 0, 64, 0
2, 57722, Note_on_c, 0, 75, 0
2, 57722, Note_on_c, 0, 79, 0
2, 57722, Note_on_c, 0, 82, 0
2, 57724, Note_on_c, 0, 39, 87
2, 57725, Note_on_c, 0, 85, 0
2, 57725, Note_on_c, 0, 89, 0
2, 57725, Note_on_c, 0, 87, 102
2, 57725, Note_on_c, 0, 73, 0
2, 57725, Note_on_c, 0, 37, 0
2, 57726, Note_on_c, 0, 92, 0
2, 57726, Note_on_c, 0, 77, 0
2, 57726, Note_on_c, 0, 65, 0
2, 57726, Note_on_c, 0, 80, 0
2, 57726, Note_on_c, 0, 56, 0
2, 57726, Note_on_c, 0, 68, 0
2, 57726, Note_on_c, 0, 61, 0
2, 57726, Note_on_c, 0, 49, 0
2, 57726, Note_on_c, 0, 51, 0
2, 57727, Note_on_c, 0, 53, 0
2, 57728, Note_on_c, 0, 75, 100
2, 57731, Note_on_c, 0, 79, 97
2, 57734, Note_on_c, 0, 82, 92
2, 57738, Note_on_c, 0, 78, 0
2, 57738, Note_on_c, 0, 83, 0
2, 57738, Note_on_c, 0, 90, 0
2, 57738, Note_on_c, 0, 97, 0
2, 57799, Control_c, 0, 64, 127
2, 57833, Note_on_c, 0, 43, 74
2, 57904, Note_on_c, 0, 46, 77
2, 57969, Note_on_c, 0, 51, 71
2, 58051, Note_on_c, 0, 55, 69
2, 58121, Note_on_c, 0, 58, 73
2, 58169, Note_on_c, 0, 63, 78
2, 58241, Note_on_c, 0, 67, 68
2, 58325, Note_on_c, 0, 70, 79
2, 58383, Note_on_c, 0, 75, 0
2, 58393, Note_on_c, 0, 75, 80
2, 58475, Note_on_c, 0, 79, 0
2, 58481, Note_on_c, 0, 79, 76
2, 58536, Note_on_c, 0, 82, 0
2, 58547, Note_on_c, 0, 82, 73
2, 58598, Note_on_c, 0, 87, 0
2, 58606, Note_on_c, 0, 87, 82
2, 58691, Note_on_c, 0, 91, 79
2, 58763, Note_on_c, 0, 94, 85
2, 58835, Note_on_c, 0, 99, 89
2, 58957, Note_on_c, 0, 44, 97
2, 58958, Note_on_c, 0, 32, 92
2, 59058, Control_c, 0, 64, 0
2, 59062, Note_on_c, 0, 58, 0
2, 59062, Note_on_c, 0, 63, 0
2, 59062, Note_on_c, 0, 51, 0
2, 59062, Note_on_c, 0, 99, 0
2, 59063, Note_on_c, 0, 55, 0
2, 59063, Note_on_c, 0, 67, 0
2, 59063, Note_on_c, 0, 75, 0
2, 59063, Note_on_c, 0, 43, 0
2, 59063, Note_on_c, 0, 70, 0
2, 59063, Note_on_c, 0, 79, 0
2, 59063, Note_on_c, 0, 46, 0
2, 59063, Note_on_c, 0, 94, 0
2, 59063, Note_on_c, 0, 82, 0
2, 59063, Note_on_c, 0, 87, 0
2, 59065, Note_on_c, 0, 91, 0
2, 59082, Note_on_c, 0, 39, 0
2, 59381, Control_c, 0, 64, 127
2, 63267, Note_on_c, 0, 32, 0
2, 63267, Note_on_c, 0, 44, 0
2, 63521, Control_c, 0, 64, 0
2, 63522, End_track
0, 0, End_of_file
