0, 0, Header, 1, 2, 384
1, 0, Start_track
1, 0, Tempo, 500000
1, 0, Time_signature, 4, 2, 24, 8
1, 1, End_track
2, 0, Start_track
2, 2280, Control_c, 0, 64, 127
2, 2363, Note_on_c, 0, 76, 48
2, 2517, Note_on_c, 0, 69, 42
2, 2641, Note_on_c, 0, 81, 59
2, 2772, Note_on_c, 0, 69, 0
2, 2781, Note_on_c, 0, 69, 42
2, 2901, Note_on_c, 0, 83, 61
2, 3025, Note_on_c, 0, 69, 0
2, 3036, Note_on_c, 0, 69, 40
2, 3171, Note_on_c, 0, 76, 0
2, 3177, Note_on_c, 0, 76, 58
2, 3287, Note_on_c, 0, 69, 0
2, 3295, Note_on_c, 0, 69, 46
2, 3440, Note_on_c, 0, 81, 0
2, 3444, Note_on_c, 0, 81, 65
2, 3563, Note_on_c, 0, 69, 0
2, 3572, Note_on_c, 0, 69, 43
2, 3694, Note_on_c, 0, 83, 0
2, 3699, Note_on_c, 0, 83, 66
2, 3824, Note_on_c, 0, 69, 0
2, 3834, Note_on_c, 0, 69, 41
2, 3962, Note_on_c, 0, 76, 0
2, 3972, Note_on_c, 0, 76, 57
2, 4085, Note_on_c, 0, 69, 0
2, 4089, Note_on_c, 0, 69, 50
2, 4231, Note_on_c, 0, 81, 0
2, 4238, Note_on_c, 0, 81, 67
2, 4346, Note_on_c, 0, 69, 0
2, 4358, Note_on_c, 0, 69, 33
2, 4492, Note_on_c, 0, 76, 0
2, 4497, Note_on_c, 0, 76, 61
2, 4623, Note_on_c, 0, 69, 0
2, 4632, Note_on_c, 0, 69, 36
2, 4769, Note_on_c, 0, 81, 0
2, 4775, Note_on_c, 0, 81, 62
2, 4884, Note_on_c, 0, 69, 0
2, 4895, Note_on_c, 0, 69, 42
2, 5030, Note_on_c, 0, 83, 0
2, 5041, Note_on_c, 0, 83, 57
2, 5153, Note_on_c, 0, 69, 0
2, 5163, Note_on_c, 0, 69, 44
2, 5306, Note_on_c, 0, 76, 0
2, 5313, Note_on_c, 0, 76, 49
2, 5406, Note_on_c, 0, 69, 0
2, 5416, Note_on_c, 0, 69, 44
2, 5568, Note_on_c, 0, 81, 0
2, 5573, Note_on_c, 0, 81, 56
2, 5698, Note_on_c, 0, 69, 0
2, 5705, Note_on_c, 0, 69, 33
2, 5836, Note_on_c, 0, 83, 0
2, 5840, Note_on_c, 0, 83, 60
2, 5959, Note_on_c, 0, 69, 0
2, 5969, Note_on_c, 0, 69, 46
2, 6113, Note_on_c, 0, 76, 0
2, 6117, Note_on_c, 0, 76, 56
2, 6228, Note_on_c, 0, 69, 0
2, 6234, Note_on_c, 0, 69, 33
2, 6366, Note_on_c, 0, 81, 0
2, 6373, Note_on_c, 0, 81, 56
2, 6489, Note_on_c, 0, 69, 0
2, 6496, Note_on_c, 0, 69, 46
2, 6502, Note_on_c, 0, 49, 56
2, 6579, Note_on_c, 0, 52, 57
2, 6604, Note_on_c, 0, 69, 0
2, 6609, Note_on_c, 0, 69, 59
2, 6611, Note_on_c, 0, 57, 67
2, 6647, Note_on_c, 0, 64, 77
2, 6773, Note_on_c, 0, 64, 0
2, 6773, Note_on_c, 0, 69, 0
2, 6777, Note_on_c, 0, 69, 40
2, 6782, Note_on_c, 0, 64, 66
2, 6888, Note_on_c, 0, 64, 0
2, 6888, Note_on_c, 0, 81, 0
2, 6897, Note_on_c, 0, 81, 65
2, 6899, Note_on_c, 0, 64, 75
2, 7019, Note_on_c, 0, 69, 0
2, 7030, Note_on_c, 0, 69, 47
2, 7042, Note_on_c, 0, 64, 0
2, 7048, Note_on_c, 0, 64, 66
2, 7142, Note_on_c, 0, 83, 0
2, 7153, Note_on_c, 0, 83, 64
2, 7296, Note_on_c, 0, 69, 0
2, 7303, Note_on_c, 0, 64, 0
2, 7306, Note_on_c, 0, 69, 50
2, 7308, Note_on_c, 0, 64, 67
2, 7426, Note_on_c, 0, 64, 0
2, 7434, Note_on_c, 0, 64, 80
2, 7534, Note_on_c, 0, 64, 0
2, 7534, Note_on_c, 0, 69, 0
2, 7543, Note_on_c, 0, 64, 65
2, 7545, Note_on_c, 0, 69, 51
2, 7660, Note_on_c, 0, 52, 0
2, 7660, Note_on_c, 0, 83, 0
2, 7660, Note_on_c, 0, 49, 0
2, 7661, Note_on_c, 0, 76, 0
2, 7664, Control_c, 0, 64, 0
2, 7680, Note_on_c, 0, 57, 0
2, 7680, Note_on_c, 0, 64, 0
2, 7684, Note_on_c, 0, 64, 74
2, 7687, Note_on_c, 0, 81, 0
2, 7690, Note_on_c, 0, 57, 69
2, 7697, Note_on_c, 0, 81, 68
2, 7707, Note_on_c, 0, 50, 57
2, 7711, Note_on_c, 0, 54, 50
2, 7756, Control_c, 0, 64, 127
2, 7810, Note_on_c, 0, 64, 0
2, 7814, Note_on_c, 0, 64, 72
2, 7922, Note_on_c, 0, 64, 0
2, 7922, Control_c, 0, 64, 0
2, 7929, Note_on_c, 0, 54, 0
2, 7929, Note_on_c, 0, 69, 0
2, 7933, Note_on_c, 0, 81, 0
2, 7949, Note_on_c, 0, 62, 81
2, 7962, Note_on_c, 0, 83, 66
2, 8089, Note_on_c, 0, 61, 80
2, 8091, Note_on_c, 0, 62, 0
2, 8101, Note_on_c, 0, 69, 51
2, 8231, Note_on_c, 0, 76, 64
2, 8256, Note_on_c, 0, 50, 0
2, 8348, Control_c, 0, 64, 127
2, 8353, Note_on_c, 0, 59, 76
2, 8363, Note_on_c, 0, 69, 0
2, 8373, Note_on_c, 0, 69, 45
2, 8463, Note_on_c, 0, 83, 0
2, 8488, Note_on_c, 0, 81, 66
2, 8616, Note_on_c, 0, 59, 0
2, 8616, Note_on_c, 0, 69, 0
2, 8624, Note_on_c, 0, 59, 62
2, 8625, Note_on_c, 0, 69, 51
2, 8712, Note_on_c, 0, 61, 0
2, 8712, Note_on_c, 0, 76, 0
2, 8712, Note_on_c, 0, 57, 0
2, 8712, Note_on_c, 0, 81, 0
2, 8714, Control_c, 0, 64, 0
2, 8758, Note_on_c, 0, 64, 82
2, 8771, Note_on_c, 0, 56, 65
2, 8775, Note_on_c, 0, 52, 63
2, 8801, Control_c, 0, 64, 127
2, 8885, Note_on_c, 0, 64, 0
2, 8892, Note_on_c, 0, 64, 77
2, 8893, Note_on_c, 0, 69, 0
2, 8900, Note_on_c, 0, 69, 50
2, 9024, Note_on_c, 0, 64, 0
2, 9028, Note_on_c, 0, 64, 86
2, 9033, Note_on_c, 0, 81, 65
2, 9146, Note_on_c, 0, 64, 0
2, 9157, Note_on_c, 0, 64, 85
2, 9262, Note_on_c, 0, 64, 0
2, 9272, Note_on_c, 0, 64, 76
2, 9273, Note_on_c, 0, 76, 61
2, 9304, Note_on_c, 0, 83, 69
2, 9461, Note_on_c, 0, 69, 0
2, 9472, Note_on_c, 0, 69, 35
2, 9546, Note_on_c, 0, 64, 0
2, 9552, Note_on_c, 0, 64, 79
2, 9592, Note_on_c, 0, 76, 0
2, 9601, Note_on_c, 0, 76, 52
2, 9676, Note_on_c, 0, 64, 0
2, 9681, Note_on_c, 0, 64, 71
2, 9707, Note_on_c, 0, 69, 0
2, 9718, Note_on_c, 0, 69, 31
2, 9771, Note_on_c, 0, 81, 0
2, 9772, Note_on_c, 0, 83, 0
2, 9772, Note_on_c, 0, 56, 0
2, 9772, Note_on_c, 0, 52, 0
2, 9774, Control_c, 0, 64, 0
2, 9784, Note_on_c, 0, 59, 0
2, 9799, Note_on_c, 0, 64, 0
2, 9799, Note_on_c, 0, 76, 0
2, 9808, Note_on_c, 0, 64, 72
2, 9812, Note_on_c, 0, 61, 69
2, 9816, Note_on_c, 0, 54, 59
2, 9818, Note_on_c, 0, 81, 69
2, 9833, Note_on_c, 0, 57, 56
2, 9853, Control_c, 0, 64, 127
2, 9930, Note_on_c, 0, 64, 0
2, 9941, Note_on_c, 0, 64, 67
2, 9976, Note_on_c, 0, 69, 0
2, 9982, Note_on_c, 0, 69, 54
2, 10046, Control_c, 0, 64, 0
2, 10049, Note_on_c, 0, 64, 0
2, 10080, Note_on_c, 0, 62, 83
2, 10089, Note_on_c, 0, 83, 65
2, 10091, Note_on_c, 0, 69, 0
2, 10206, Note_on_c, 0, 81, 0
2, 10214, Note_on_c, 0, 61, 0
2, 10217, Note_on_c, 0, 62, 0
2, 10224, Note_on_c, 0, 61, 79
2, 10227, Note_on_c, 0, 69, 56
2, 10369, Note_on_c, 0, 76, 59
2, 10493, Note_on_c, 0, 59, 77
2, 10513, Note_on_c, 0, 69, 0
2, 10519, Note_on_c, 0, 69, 29
2, 10529, Control_c, 0, 64, 127
2, 10631, Note_on_c, 0, 81, 65
2, 10767, Note_on_c, 0, 69, 0
2, 10775, Note_on_c, 0, 69, 45
2, 10905, Note_on_c, 0, 57, 0
2, 10905, Note_on_c, 0, 69, 0
2, 10905, Note_on_c, 0, 83, 0
2, 10911, Note_on_c, 0, 57, 77
2, 10915, Note_on_c, 0, 61, 0
2, 10915, Note_on_c, 0, 54, 0
2, 10916, Note_on_c, 0, 81, 0
2, 10916, Note_on_c, 0, 69, 65
2, 10916, Note_on_c, 0, 59, 0
2, 10919, Control_c, 0, 64, 0
2, 10920, Note_on_c, 0, 76, 0
2, 10926, Note_on_c, 0, 76, 58
2, 10932, Note_on_c, 0, 52, 66
2, 10939, Note_on_c, 0, 49, 60
2, 11066, Control_c, 0, 64, 127
2, 11166, Note_on_c, 0, 81, 60
2, 11304, Note_on_c, 0, 69, 0
2, 11313, Note_on_c, 0, 69, 40
2, 11445, Note_on_c, 0, 61, 79
2, 11447, Note_on_c, 0, 83, 60
2, 11581, Note_on_c, 0, 69, 0
2, 11588, Note_on_c, 0, 69, 46
2, 11735, Note_on_c, 0, 76, 0
2, 11745, Note_on_c, 0, 76, 57
2, 11865, Note_on_c, 0, 69, 0
2, 11872, Note_on_c, 0, 69, 50
2, 12001, Note_on_c, 0, 59, 74
2, 12003, Note_on_c, 0, 81, 0
2, 12009, Note_on_c, 0, 81, 65
2, 12011, Control_c, 0, 64, 0
2, 12012, Note_on_c, 0, 50, 58
2, 12013, Note_on_c, 0, 54, 59
2, 12015, Note_on_c, 0, 83, 0
2, 12015, Note_on_c, 0, 49, 0
2, 12016, Note_on_c, 0, 76, 0
2, 12016, Note_on_c, 0, 52, 0
2, 12016, Note_on_c, 0, 61, 0
2, 12016, Note_on_c, 0, 57, 0
2, 12049, Note_on_c, 0, 81, 0
2, 12151, Note_on_c, 0, 71, 45
2, 12264, Control_c, 0, 64, 127
2, 12287, Note_on_c, 0, 83, 60
2, 12303, Note_on_c, 0, 50, 0
2, 12313, Note_on_c, 0, 50, 34
2, 12418, Note_on_c, 0, 69, 0
2, 12424, Note_on_c, 0, 69, 39
2, 12551, Note_on_c, 0, 62, 80
2, 12585, Note_on_c, 0, 76, 47
2, 12687, Note_on_c, 0, 69, 0
2, 12694, Note_on_c, 0, 69, 37
2, 12845, Note_on_c, 0, 81, 60
2, 12986, Note_on_c, 0, 69, 0
2, 12994, Note_on_c, 0, 69, 36
2, 13140, Note_on_c, 0, 59, 0
2, 13140, Note_on_c, 0, 76, 0
2, 13147, Note_on_c, 0, 64, 70
2, 13147, Note_on_c, 0, 76, 64
2, 13149, Note_on_c, 0, 83, 0
2, 13150, Note_on_c, 0, 62, 0
2, 13151, Note_on_c, 0, 59, 66
2, 13151, Note_on_c, 0, 81, 0
2, 13151, Note_on_c, 0, 50, 0
2, 13151, Note_on_c, 0, 54, 0
2, 13151, Note_on_c, 0, 69, 0
2, 13152, Note_on_c, 0, 52, 55
2, 13155, Control_c, 0, 64, 0
2, 13158, Note_on_c, 0, 68, 57
2, 13159, Note_on_c, 0, 56, 53
2, 13309, Control_c, 0, 64, 127
2, 13777, Note_on_c, 0, 68, 0
2, 13780, Note_on_c, 0, 80, 97
2, 13785, Note_on_c, 0, 71, 0
2, 13789, Note_on_c, 0, 68, 89
2, 13792, Note_on_c, 0, 71, 81
2, 13793, Note_on_c, 0, 76, 0
2, 13803, Note_on_c, 0, 76, 75
2, 14469, Note_on_c, 0, 52, 0
2, 14469, Note_on_c, 0, 64, 0
2, 14469, Note_on_c, 0, 76, 0
2, 14471, Control_c, 0, 64, 0
2, 14472, Note_on_c, 0, 68, 0
2, 14472, Note_on_c, 0, 80, 0
2, 14473, Note_on_c, 0, 56, 0
2, 14473, Note_on_c, 0, 81, 101
2, 14476, Note_on_c, 0, 59, 0
2, 14476, Note_on_c, 0, 71, 0
2, 14476, Note_on_c, 0, 64, 89
2, 14478, Note_on_c, 0, 52, 88
2, 14480, Note_on_c, 0, 76, 89
2, 14480, Note_on_c, 0, 69, 87
2, 14480, Note_on_c, 0, 71, 91
2, 14481, Note_on_c, 0, 59, 87
2, 14538, Control_c, 0, 64, 127
2, 14788, Note_on_c, 0, 80, 101
2, 14791, Note_on_c, 0, 76, 0
2, 14792, Note_on_c, 0, 68, 108
2, 14798, Note_on_c, 0, 76, 88
2, 15102, Note_on_c, 0, 68, 0
2, 15102, Note_on_c, 0, 80, 0
2, 15103, Note_on_c, 0, 59, 0
2, 15105, Control_c, 0, 64, 0
2, 15106, Note_on_c, 0, 52, 0
2, 15106, Note_on_c, 0, 64, 0
2, 15106, Note_on_c, 0, 69, 0
2, 15106, Note_on_c, 0, 71, 0
2, 15106, Note_on_c, 0, 76, 0
2, 15106, Note_on_c, 0, 81, 0
2, 15110, Note_on_c, 0, 81, 104
2, 15111, Note_on_c, 0, 69, 94
2, 15116, Note_on_c, 0, 76, 96
2, 15117, Note_on_c, 0, 52, 104
2, 15117, Note_on_c, 0, 71, 96
2, 15118, Note_on_c, 0, 40, 99
2, 15168, Control_c, 0, 64, 127
2, 15463, Control_c, 0, 64, 0
2, 15465, Note_on_c, 0, 83, 105
2, 15467, Note_on_c, 0, 40, 0
2, 15467, Note_on_c, 0, 71, 0
2, 15467, Note_on_c, 0, 76, 0
2, 15471, Note_on_c, 0, 69, 0
2, 15471, Note_on_c, 0, 40, 98
2, 15471, Note_on_c, 0, 28, 93
2, 15471, Note_on_c, 0, 71, 93
2, 15471, Note_on_c, 0, 81, 0
2, 15472, Note_on_c, 0, 80, 78
2, 15472, Note_on_c, 0, 76, 91
2, 15482, Note_on_c, 0, 52, 0
2, 15505, Control_c, 0, 64, 127
2, 15559, Note_on_c, 0, 80, 0
2, 15876, Note_on_c, 0, 40, 0
2, 15878, Note_on_c, 0, 71, 0
2, 15878, Note_on_c, 0, 76, 0
2, 15882, Note_on_c, 0, 83, 0
2, 15884, Control_c, 0, 64, 0
2, 15897, Note_on_c, 0, 28, 0
2, 15928, Note_on_c, 0, 81, 110
2, 15932, Note_on_c, 0, 73, 102
2, 15932, Note_on_c, 0, 69, 99
2, 15933, Note_on_c, 0, 38, 105
2, 15936, Note_on_c, 0, 76, 94
2, 15938, Note_on_c, 0, 26, 93
2, 15966, Control_c, 0, 64, 127
2, 16230, Note_on_c, 0, 40, 60
2, 16356, Note_on_c, 0, 50, 63
2, 16473, Note_on_c, 0, 76, 0
2, 16483, Note_on_c, 0, 76, 104
2, 16485, Note_on_c, 0, 57, 80
2, 16485, Note_on_c, 0, 62, 83
2, 16489, Note_on_c, 0, 54, 63
2, 16750, Note_on_c, 0, 54, 0
2, 16750, Note_on_c, 0, 69, 0
2, 16754, Note_on_c, 0, 69, 87
2, 16759, Note_on_c, 0, 54, 79
2, 16872, Note_on_c, 0, 50, 0
2, 16877, Note_on_c, 0, 50, 80
2, 16880, Note_on_c, 0, 62, 0
2, 16976, Control_c, 0, 64, 0
2, 16977, Note_on_c, 0, 73, 0
2, 16977, Note_on_c, 0, 50, 0
2, 16977, Note_on_c, 0, 54, 0
2, 16978, Note_on_c, 0, 38, 0
2, 16980, Note_on_c, 0, 26, 0
2, 16981, Note_on_c, 0, 81, 0
2, 16988, Note_on_c, 0, 57, 0
2, 16995, Note_on_c, 0, 76, 0
2, 17003, Note_on_c, 0, 40, 0
2, 17003, Note_on_c, 0, 69, 0
2, 17007, Note_on_c, 0, 64, 96
2, 17012, Note_on_c, 0, 69, 78
2, 17013, Note_on_c, 0, 73, 102
2, 17013, Note_on_c, 0, 40, 93
2, 17041, Control_c, 0, 64, 127
2, 17172, Note_on_c, 0, 40, 0
2, 17179, Note_on_c, 0, 52, 79
2, 17183, Note_on_c, 0, 40, 71
2, 17280, Note_on_c, 0, 69, 0
2, 17289, Note_on_c, 0, 56, 75
2, 17289, Note_on_c, 0, 69, 88
2, 17290, Note_on_c, 0, 59, 82
2, 17402, Note_on_c, 0, 52, 0
2, 17411, Note_on_c, 0, 52, 82
2, 17548, Note_on_c, 0, 59, 0
2, 17548, Note_on_c, 0, 64, 0
2, 17552, Note_on_c, 0, 64, 93
2, 17553, Note_on_c, 0, 59, 91
2, 17553, Note_on_c, 0, 76, 100
2, 17679, Note_on_c, 0, 52, 0
2, 17690, Note_on_c, 0, 52, 68
2, 17802, Note_on_c, 0, 56, 0
2, 17802, Note_on_c, 0, 69, 0
2, 17809, Note_on_c, 0, 59, 0
2, 17810, Note_on_c, 0, 69, 94
2, 17813, Note_on_c, 0, 56, 80
2, 17821, Note_on_c, 0, 59, 87
2, 17925, Note_on_c, 0, 52, 0
2, 17929, Note_on_c, 0, 52, 78
2, 18019, Note_on_c, 0, 40, 0
2, 18020, Note_on_c, 0, 73, 0
2, 18020, Note_on_c, 0, 52, 0
2, 18020, Note_on_c, 0, 59, 0
2, 18020, Note_on_c, 0, 64, 0
2, 18020, Note_on_c, 0, 56, 0
2, 18020, Note_on_c, 0, 69, 0
2, 18020, Note_on_c, 0, 76, 0
2, 18023, Control_c, 0, 64, 0
2, 18044, Note_on_c, 0, 66, 85
2, 18069, Note_on_c, 0, 42, 89
2, 18075, Note_on_c, 0, 69, 80
2, 18075, Note_on_c, 0, 73, 102
2, 18101, Control_c, 0, 64, 127
2, 18245, Note_on_c, 0, 54, 84
2, 18347, Note_on_c, 0, 69, 0
2, 18358, Note_on_c, 0, 69, 98
2, 18366, Note_on_c, 0, 57, 74
2, 18366, Note_on_c, 0, 61, 80
2, 18485, Note_on_c, 0, 54, 0
2, 18492, Note_on_c, 0, 54, 67
2, 18608, Note_on_c, 0, 54, 0
2, 18616, Note_on_c, 0, 61, 0
2, 18616, Note_on_c, 0, 66, 0
2, 18616, Note_on_c, 0, 73, 0
2, 18619, Note_on_c, 0, 54, 77
2, 18621, Note_on_c, 0, 66, 85
2, 18622, Note_on_c, 0, 76, 105
2, 18622, Note_on_c, 0, 61, 81
2, 18626, Note_on_c, 0, 73, 81
2, 18739, Note_on_c, 0, 54, 0
2, 18744, Note_on_c, 0, 54, 76
2, 18862, Note_on_c, 0, 69, 0
2, 18872, Note_on_c, 0, 69, 98
2, 18877, Note_on_c, 0, 61, 0
2, 18883, Note_on_c, 0, 61, 86
2, 18892, Note_on_c, 0, 57, 0
2, 18901, Note_on_c, 0, 57, 62
2, 18992, Note_on_c, 0, 54, 0
2, 19001, Note_on_c, 0, 54, 68
2, 19103, Control_c, 0, 64, 0
2, 19104, Note_on_c, 0, 54, 0
2, 19104, Note_on_c, 0, 57, 0
2, 19105, Note_on_c, 0, 69, 0
2, 19105, Note_on_c, 0, 73, 0
2, 19105, Note_on_c, 0, 61, 0
2, 19105, Note_on_c, 0, 66, 0
2, 19105, Note_on_c, 0, 42, 0
2, 19130, Note_on_c, 0, 76, 0
2, 19134, Note_on_c, 0, 81, 88
2, 19136, Note_on_c, 0, 76, 97
2, 19137, Note_on_c, 0, 49, 90
2, 19139, Note_on_c, 0, 85, 104
2, 19142, Note_on_c, 0, 37, 91
2, 19161, Control_c, 0, 64, 127
2, 19399, Note_on_c, 0, 86, 106
2, 19404, Note_on_c, 0, 74, 98
2, 19410, Note_on_c, 0, 57, 79
2, 19416, Note_on_c, 0, 61, 71
2, 19516, Note_on_c, 0, 52, 80
2, 19651, Note_on_c, 0, 88, 107
2, 19653, Note_on_c, 0, 52, 0
2, 19653, Note_on_c, 0, 61, 0
2, 19653, Note_on_c, 0, 76, 0
2, 19656, Note_on_c, 0, 64, 92
2, 19657, Note_on_c, 0, 76, 99
2, 19658, Note_on_c, 0, 52, 82
2, 19658, Note_on_c, 0, 61, 83
2, 19776, Note_on_c, 0, 52, 0
2, 19781, Note_on_c, 0, 52, 84
2, 19898, Note_on_c, 0, 81, 0
2, 19909, Note_on_c, 0, 93, 111
2, 19909, Note_on_c, 0, 81, 105
2, 19911, Note_on_c, 0, 69, 91
2, 20021, Note_on_c, 0, 52, 0
2, 20032, Note_on_c, 0, 52, 75
2, 20131, Note_on_c, 0, 93, 0
2, 20131, Note_on_c, 0, 86, 0
2, 20132, Note_on_c, 0, 88, 0
2, 20132, Control_c, 0, 64, 0
2, 20132, Note_on_c, 0, 49, 0
2, 20132, Note_on_c, 0, 74, 0
2, 20132, Note_on_c, 0, 52, 0
2, 20132, Note_on_c, 0, 76, 0
2, 20133, Note_on_c, 0, 69, 0
2, 20133, Note_on_c, 0, 85, 0
2, 20133, Note_on_c, 0, 64, 0
2, 20133, Note_on_c, 0, 61, 0
2, 20136, Note_on_c, 0, 37, 0
2, 20152, Note_on_c, 0, 57, 0
2, 20152, Note_on_c, 0, 81, 0
2, 20154, Note_on_c, 0, 66, 91
2, 20173, Note_on_c, 0, 62, 77
2, 20176, Note_on_c, 0, 38, 88
2, 20176, Note_on_c, 0, 73, 107
2, 20181, Note_on_c, 0, 26, 78
2, 20190, Note_on_c, 0, 26, 0
2, 20198, Control_c, 0, 64, 127
2, 20451, Note_on_c, 0, 38, 0
2, 20453, Note_on_c, 0, 69, 98
2, 20455, Note_on_c, 0, 57, 76
2, 20457, Note_on_c, 0, 54, 75
2, 20461, Note_on_c, 0, 38, 77
2, 20581, Note_on_c, 0, 50, 70
2, 20705, Note_on_c, 0, 54, 0
2, 20705, Note_on_c, 0, 57, 0
2, 20705, Note_on_c, 0, 62, 0
2, 20705, Note_on_c, 0, 69, 0
2, 20712, Note_on_c, 0, 57, 87
2, 20714, Note_on_c, 0, 69, 79
2, 20715, Note_on_c, 0, 76, 102
2, 20716, Note_on_c, 0, 54, 65
2, 20716, Note_on_c, 0, 62, 78
2, 20835, Note_on_c, 0, 50, 0
2, 20847, Note_on_c, 0, 50, 71
2, 20966, Note_on_c, 0, 54, 0
2, 20966, Note_on_c, 0, 69, 0
2, 20970, Note_on_c, 0, 69, 94
2, 20973, Note_on_c, 0, 54, 75
2, 21081, Note_on_c, 0, 50, 0
2, 21086, Note_on_c, 0, 50, 62
2, 21093, Note_on_c, 0, 66, 0
2, 21200, Note_on_c, 0, 54, 0
2, 21200, Note_on_c, 0, 62, 0
2, 21200, Note_on_c, 0, 50, 0
2, 21200, Control_c, 0, 64, 0
2, 21200, Note_on_c, 0, 57, 0
2, 21201, Note_on_c, 0, 76, 0
2, 21203, Note_on_c, 0, 38, 0
2, 21219, Note_on_c, 0, 69, 0
2, 21219, Note_on_c, 0, 73, 0
2, 21228, Note_on_c, 0, 69, 81
2, 21228, Note_on_c, 0, 73, 99
2, 21228, Note_on_c, 0, 64, 93
2, 21231, Note_on_c, 0, 52, 97
2, 21232, Note_on_c, 0, 40, 91
2, 21265, Control_c, 0, 64, 127
2, 21381, Note_on_c, 0, 40, 0
2, 21381, Note_on_c, 0, 52, 0
2, 21386, Note_on_c, 0, 40, 72
2, 21386, Note_on_c, 0, 52, 82
2, 21480, Note_on_c, 0, 69, 0
2, 21489, Note_on_c, 0, 69, 93
2, 21500, Note_on_c, 0, 59, 78
2, 21501, Note_on_c, 0, 56, 73
2, 21522, Note_on_c, 0, 62, 44
2, 21603, Note_on_c, 0, 52, 0
2, 21614, Note_on_c, 0, 52, 77
2, 21709, Note_on_c, 0, 52, 0
2, 21709, Note_on_c, 0, 56, 0
2, 21709, Note_on_c, 0, 64, 0
2, 21709, Note_on_c, 0, 69, 0
2, 21710, Note_on_c, 0, 40, 0
2, 21710, Note_on_c, 0, 59, 0
2, 21712, Control_c, 0, 64, 0
2, 21719, Note_on_c, 0, 62, 0
2, 21742, Note_on_c, 0, 73, 0
2, 21746, Note_on_c, 0, 73, 104
2, 21751, Note_on_c, 0, 53, 97
2, 21751, Note_on_c, 0, 69, 76
2, 21752, Note_on_c, 0, 64, 84
2, 21753, Note_on_c, 0, 61, 89
2, 21753, Note_on_c, 0, 41, 90
2, 21757, Note_on_c, 0, 64, 0
2, 21772, Control_c, 0, 64, 127
2, 21895, Note_on_c, 0, 53, 0
2, 21903, Note_on_c, 0, 53, 72
2, 21903, Note_on_c, 0, 41, 0
2, 21909, Note_on_c, 0, 41, 56
2, 21995, Note_on_c, 0, 61, 0
2, 22000, Note_on_c, 0, 68, 97
2, 22003, Note_on_c, 0, 53, 0
2, 22005, Note_on_c, 0, 61, 83
2, 22006, Note_on_c, 0, 56, 74
2, 22012, Note_on_c, 0, 53, 78
2, 22013, Note_on_c, 0, 65, 68
2, 22118, Note_on_c, 0, 53, 0
2, 22124, Note_on_c, 0, 53, 74
2, 22264, Note_on_c, 0, 69, 0
2, 22269, Note_on_c, 0, 42, 93
2, 22269, Note_on_c, 0, 69, 96
2, 22270, Note_on_c, 0, 54, 102
2, 22273, Control_c, 0, 64, 0
2, 22275, Note_on_c, 0, 66, 95
2, 22281, Note_on_c, 0, 53, 0
2, 22283, Note_on_c, 0, 56, 0
2, 22283, Note_on_c, 0, 65, 0
2, 22284, Note_on_c, 0, 41, 0
2, 22286, Note_on_c, 0, 73, 0
2, 22288, Note_on_c, 0, 61, 0
2, 22291, Note_on_c, 0, 68, 0
2, 22299, Note_on_c, 0, 54, 0
2, 22306, Note_on_c, 0, 42, 0
2, 22307, Note_on_c, 0, 66, 0
2, 22318, Note_on_c, 0, 69, 0
2, 22411, Note_on_c, 0, 49, 73
2, 22446, Note_on_c, 0, 49, 0
2, 22545, Note_on_c, 0, 57, 70
2, 22546, Note_on_c, 0, 69, 78
2, 22551, Note_on_c, 0, 42, 61
2, 22552, Note_on_c, 0, 66, 56
2, 22552, Note_on_c, 0, 49, 58
2, 22556, Note_on_c, 0, 49, 0
2, 22556, Note_on_c, 0, 66, 0
2, 22576, Note_on_c, 0, 69, 0
2, 22576, Note_on_c, 0, 57, 0
2, 22584, Note_on_c, 0, 42, 0
2, 22683, Note_on_c, 0, 71, 99
2, 22684, Note_on_c, 0, 66, 91
2, 22686, Note_on_c, 0, 47, 89
2, 22686, Note_on_c, 0, 63, 92
2, 22687, Note_on_c, 0, 59, 83
2, 22689, Note_on_c, 0, 35, 83
2, 22694, Control_c, 0, 64, 127
2, 22899, Note_on_c, 0, 47, 0
2, 22899, Note_on_c, 0, 35, 0
2, 22900, Note_on_c, 0, 63, 0
2, 22901, Note_on_c, 0, 71, 0
2, 22902, Note_on_c, 0, 59, 0
2, 22903, Note_on_c, 0, 66, 0
2, 22905, Control_c, 0, 64, 0
2, 22943, Note_on_c, 0, 81, 101
2, 22949, Note_on_c, 0, 69, 86
2, 22951, Note_on_c, 0, 51, 82
2, 22954, Note_on_c, 0, 39, 71
2, 22975, Note_on_c, 0, 69, 0
2, 22978, Note_on_c, 0, 81, 0
2, 22982, Note_on_c, 0, 51, 0
2, 23001, Note_on_c, 0, 39, 0
2, 23075, Note_on_c, 0, 83, 101
2, 23081, Note_on_c, 0, 59, 80
2, 23081, Note_on_c, 0, 71, 89
2, 23089, Note_on_c, 0, 54, 80
2, 23089, Note_on_c, 0, 47, 70
2, 23110, Note_on_c, 0, 71, 0
2, 23111, Note_on_c, 0, 59, 0
2, 23113, Note_on_c, 0, 83, 0
2, 23114, Note_on_c, 0, 54, 0
2, 23119, Note_on_c, 0, 47, 0
2, 23220, Note_on_c, 0, 85, 107
2, 23221, Note_on_c, 0, 52, 101
2, 23222, Note_on_c, 0, 80, 81
2, 23225, Note_on_c, 0, 73, 99
2, 23227, Note_on_c, 0, 76, 95
2, 23227, Note_on_c, 0, 40, 101
2, 23239, Control_c, 0, 64, 127
2, 23447, Note_on_c, 0, 80, 0
2, 23450, Control_c, 0, 64, 0
2, 23451, Note_on_c, 0, 85, 0
2, 23451, Note_on_c, 0, 40, 0
2, 23451, Note_on_c, 0, 73, 0
2, 23451, Note_on_c, 0, 76, 0
2, 23480, Note_on_c, 0, 83, 102
2, 23485, Note_on_c, 0, 71, 86
2, 23485, Note_on_c, 0, 52, 0
2, 23495, Note_on_c, 0, 52, 75
2, 23505, Note_on_c, 0, 59, 48
2, 23521, Note_on_c, 0, 71, 0
2, 23526, Note_on_c, 0, 83, 0
2, 23546, Note_on_c, 0, 59, 0
2, 23569, Note_on_c, 0, 52, 0
2, 23612, Note_on_c, 0, 85, 101
2, 23617, Note_on_c, 0, 59, 87
2, 23618, Note_on_c, 0, 73, 87
2, 23618, Note_on_c, 0, 56, 78
2, 23644, Note_on_c, 0, 59, 0
2, 23645, Note_on_c, 0, 56, 0
2, 23646, Note_on_c, 0, 73, 0
2, 23648, Note_on_c, 0, 85, 0
2, 23748, Note_on_c, 0, 86, 105
2, 23748, Note_on_c, 0, 74, 109
2, 23750, Note_on_c, 0, 77, 98
2, 23750, Note_on_c, 0, 81, 88
2, 23751, Note_on_c, 0, 50, 103
2, 23754, Note_on_c, 0, 38, 102
2, 23761, Control_c, 0, 64, 127
2, 23875, Note_on_c, 0, 77, 0
2, 23875, Control_c, 0, 64, 0
2, 23876, Note_on_c, 0, 74, 0
2, 23878, Note_on_c, 0, 86, 0
2, 23878, Note_on_c, 0, 81, 0
2, 23878, Note_on_c, 0, 50, 0
2, 23880, Note_on_c, 0, 38, 0
2, 24020, Note_on_c, 0, 81, 104
2, 24024, Note_on_c, 0, 74, 103
2, 24024, Note_on_c, 0, 69, 97
2, 24025, Note_on_c, 0, 38, 98
2, 24025, Note_on_c, 0, 86, 95
2, 24026, Note_on_c, 0, 77, 95
2, 24027, Note_on_c, 0, 26, 96
2, 24030, Note_on_c, 0, 86, 0
2, 24038, Control_c, 0, 64, 127
2, 24076, Note_on_c, 0, 69, 0
2, 24130, Note_on_c, 0, 74, 0
2, 24153, Note_on_c, 0, 77, 0
2, 24157, Control_c, 0, 64, 0
2, 24161, Note_on_c, 0, 26, 0
2, 24168, Note_on_c, 0, 38, 0
2, 24184, Note_on_c, 0, 81, 0
2, 24531, Note_on_c, 0, 81, 109
2, 24536, Note_on_c, 0, 45, 96
2, 24538, Note_on_c, 0, 33, 90
2, 24539, Note_on_c, 0, 69, 99
2, 24542, Note_on_c, 0, 73, 94
2, 24547, Note_on_c, 0, 76, 94
2, 24552, Control_c, 0, 64, 127
2, 24941, Note_on_c, 0, 52, 35
2, 24952, Note_on_c, 0, 52, 0
2, 25067, Note_on_c, 0, 45, 0
2, 25075, Note_on_c, 0, 45, 65
2, 25075, Note_on_c, 0, 57, 62
2, 25198, Note_on_c, 0, 52, 49
2, 25205, Note_on_c, 0, 52, 0
2, 25367, Note_on_c, 0, 57, 0
2, 25371, Note_on_c, 0, 57, 46
2, 25472, Note_on_c, 0, 52, 50
2, 25562, Note_on_c, 0, 64, 68
2, 25589, Note_on_c, 0, 69, 0
2, 25598, Note_on_c, 0, 69, 73
2, 25611, Note_on_c, 0, 74, 92
2, 25728, Note_on_c, 0, 52, 0
2, 25736, Note_on_c, 0, 52, 44
2, 25850, Note_on_c, 0, 57, 0
2, 25862, Note_on_c, 0, 57, 51
2, 25973, Note_on_c, 0, 52, 0
2, 25984, Note_on_c, 0, 52, 59
2, 26012, Note_on_c, 0, 73, 0
2, 26019, Note_on_c, 0, 73, 90
2, 26027, Note_on_c, 0, 64, 0
2, 26038, Note_on_c, 0, 64, 71
2, 26135, Note_on_c, 0, 45, 0
2, 26146, Note_on_c, 0, 45, 63
2, 26257, Note_on_c, 0, 52, 0
2, 26267, Note_on_c, 0, 52, 56
2, 26406, Note_on_c, 0, 71, 86
2, 26411, Note_on_c, 0, 62, 73
2, 26422, Note_on_c, 0, 68, 70
2, 26542, Note_on_c, 0, 52, 0
2, 26551, Note_on_c, 0, 52, 38
2, 26649, Note_on_c, 0, 73, 0
2, 26660, Note_on_c, 0, 73, 86
2, 26664, Note_on_c, 0, 45, 0
2, 26672, Note_on_c, 0, 45, 65
2, 26672, Note_on_c, 0, 64, 0
2, 26672, Note_on_c, 0, 69, 0
2, 26673, Control_c, 0, 64, 0
2, 26678, Note_on_c, 0, 52, 0
2, 26679, Note_on_c, 0, 62, 0
2, 26679, Note_on_c, 0, 68, 0
2, 26680, Note_on_c, 0, 76, 0
2, 26682, Note_on_c, 0, 74, 0
2, 26682, Note_on_c, 0, 71, 0
2, 26682, Note_on_c, 0, 81, 0
2, 26683, Note_on_c, 0, 69, 61
2, 26683, Note_on_c, 0, 64, 62
2, 26688, Note_on_c, 0, 33, 0
2, 26695, Note_on_c, 0, 57, 0
2, 26813, Note_on_c, 0, 52, 49
2, 26895, Control_c, 0, 64, 127
2, 26932, Note_on_c, 0, 57, 46
2, 27048, Note_on_c, 0, 52, 0
2, 27053, Note_on_c, 0, 52, 52
2, 27179, Note_on_c, 0, 45, 0
2, 27184, Note_on_c, 0, 45, 48
2, 27302, Note_on_c, 0, 52, 0
2, 27307, Note_on_c, 0, 52, 51
2, 27442, Note_on_c, 0, 62, 59
2, 27453, Note_on_c, 0, 71, 42
2, 27456, Note_on_c, 0, 57, 0
2, 27460, Note_on_c, 0, 57, 50
2, 27473, Control_c, 0, 64, 0
2, 27494, Control_c, 0, 64, 127
2, 27549, Control_c, 0, 64, 0
2, 27578, Note_on_c, 0, 52, 0
2, 27580, Note_on_c, 0, 62, 0
2, 27582, Note_on_c, 0, 61, 74
2, 27589, Note_on_c, 0, 52, 52
2, 27601, Note_on_c, 0, 71, 0
2, 27632, Control_c, 0, 64, 127
2, 27663, Note_on_c, 0, 73, 0
2, 27778, Note_on_c, 0, 64, 0
2, 27845, Note_on_c, 0, 64, 62
2, 27863, Note_on_c, 0, 57, 0
2, 27867, Note_on_c, 0, 57, 46
2, 27978, Note_on_c, 0, 69, 0
2, 27982, Note_on_c, 0, 69, 63
2, 27985, Note_on_c, 0, 61, 0
2, 27991, Note_on_c, 0, 61, 53
2, 28108, Note_on_c, 0, 64, 0
2, 28118, Note_on_c, 0, 64, 59
2, 28119, Note_on_c, 0, 73, 69
2, 28231, Note_on_c, 0, 69, 0
2, 28242, Note_on_c, 0, 76, 69
2, 28243, Note_on_c, 0, 69, 52
2, 28354, Note_on_c, 0, 73, 0
2, 28358, Note_on_c, 0, 81, 67
2, 28359, Note_on_c, 0, 73, 59
2, 28508, Note_on_c, 0, 76, 0
2, 28510, Note_on_c, 0, 85, 71
2, 28518, Note_on_c, 0, 76, 52
2, 28747, Note_on_c, 0, 81, 0
2, 28747, Note_on_c, 0, 73, 0
2, 28748, Note_on_c, 0, 61, 0
2, 28748, Note_on_c, 0, 52, 0
2, 28748, Note_on_c, 0, 45, 0
2, 28748, Control_c, 0, 64, 0
2, 28748, Note_on_c, 0, 64, 0
2, 28749, Note_on_c, 0, 85, 0
2, 28761, Note_on_c, 0, 69, 0
2, 28769, Note_on_c, 0, 57, 0
2, 28769, Note_on_c, 0, 76, 0
2, 28777, Note_on_c, 0, 76, 78
2, 28780, Note_on_c, 0, 57, 59
2, 28781, Note_on_c, 0, 69, 55
2, 28787, Note_on_c, 0, 73, 48
2, 28830, Control_c, 0, 64, 127
2, 28846, Note_on_c, 0, 73, 0
2, 28907, Note_on_c, 0, 76, 0
2, 28917, Note_on_c, 0, 76, 68
2, 28918, Note_on_c, 0, 64, 56
2, 29030, Note_on_c, 0, 76, 0
2, 29039, Note_on_c, 0, 76, 68
2, 29045, Note_on_c, 0, 69, 0
2, 29055, Note_on_c, 0, 69, 46
2, 29168, Note_on_c, 0, 76, 0
2, 29176, Note_on_c, 0, 64, 0
2, 29178, Note_on_c, 0, 76, 71
2, 29184, Note_on_c, 0, 64, 49
2, 29299, Note_on_c, 0, 57, 0
2, 29299, Note_on_c, 0, 69, 0
2, 29299, Note_on_c, 0, 76, 0
2, 29303, Note_on_c, 0, 76, 70
2, 29305, Note_on_c, 0, 57, 45
2, 29306, Note_on_c, 0, 69, 47
2, 29445, Note_on_c, 0, 64, 0
2, 29454, Note_on_c, 0, 64, 56
2, 29575, Note_on_c, 0, 76, 0
2, 29579, Note_on_c, 0, 76, 76
2, 29583, Note_on_c, 0, 69, 0
2, 29592, Note_on_c, 0, 69, 54
2, 29713, Note_on_c, 0, 64, 0
2, 29713, Note_on_c, 0, 76, 0
2, 29718, Note_on_c, 0, 64, 65
2, 29718, Note_on_c, 0, 76, 69
2, 29796, Note_on_c, 0, 64, 0
2, 29796, Note_on_c, 0, 69, 0
2, 29797, Note_on_c, 0, 57, 0
2, 29801, Control_c, 0, 64, 0
2, 29829, Note_on_c, 0, 76, 0
2, 29833, Note_on_c, 0, 76, 76
2, 29838, Note_on_c, 0, 68, 75
2, 29841, Note_on_c, 0, 52, 65
2, 29859, Control_c, 0, 64, 127
2, 29952, Note_on_c, 0, 68, 0
2, 29952, Note_on_c, 0, 76, 0
2, 29956, Note_on_c, 0, 76, 72
2, 29957, Note_on_c, 0, 68, 69
2, 29978, Note_on_c, 0, 59, 57
2, 30092, Note_on_c, 0, 74, 77
2, 30095, Note_on_c, 0, 64, 56
2, 30222, Note_on_c, 0, 73, 80
2, 30243, Note_on_c, 0, 59, 0
2, 30253, Note_on_c, 0, 59, 46
2, 30298, Note_on_c, 0, 76, 0
2, 30298, Note_on_c, 0, 64, 0
2, 30300, Note_on_c, 0, 68, 0
2, 30300, Note_on_c, 0, 74, 0
2, 30301, Control_c, 0, 64, 0
2, 30343, Note_on_c, 0, 52, 0
2, 30350, Note_on_c, 0, 52, 56
2, 30405, Control_c, 0, 64, 127
2, 30458, Note_on_c, 0, 59, 0
2, 30496, Note_on_c, 0, 71, 74
2, 30499, Note_on_c, 0, 59, 53
2, 30625, Note_on_c, 0, 64, 53
2, 30743, Note_on_c, 0, 59, 0
2, 30743, Note_on_c, 0, 71, 0
2, 30751, Note_on_c, 0, 59, 58
2, 30754, Note_on_c, 0, 71, 73
2, 30825, Note_on_c, 0, 59, 0
2, 30825, Note_on_c, 0, 64, 0
2, 30826, Control_c, 0, 64, 0
2, 30826, Note_on_c, 0, 71, 0
2, 30827, Note_on_c, 0, 73, 0
2, 30827, Note_on_c, 0, 52, 0
2, 30871, Note_on_c, 0, 73, 86
2, 30877, Note_on_c, 0, 50, 67
2, 30884, Note_on_c, 0, 66, 70
2, 30896, Control_c, 0, 64, 127
2, 31004, Note_on_c, 0, 73, 0
2, 31008, Note_on_c, 0, 73, 71
2, 31024, Note_on_c, 0, 57, 54
2, 31134, Note_on_c, 0, 73, 0
2, 31141, Note_on_c, 0, 62, 59
2, 31144, Note_on_c, 0, 73, 74
2, 31265, Note_on_c, 0, 57, 0
2, 31275, Note_on_c, 0, 57, 49
2, 31395, Note_on_c, 0, 50, 0
2, 31395, Note_on_c, 0, 73, 0
2, 31402, Note_on_c, 0, 50, 49
2, 31402, Note_on_c, 0, 73, 76
2, 31541, Note_on_c, 0, 57, 0
2, 31541, Note_on_c, 0, 73, 0
2, 31546, Note_on_c, 0, 73, 77
2, 31547, Note_on_c, 0, 57, 48
2, 31551, Control_c, 0, 64, 0
2, 31587, Control_c, 0, 64, 127
2, 31664, Note_on_c, 0, 62, 0
2, 31669, Note_on_c, 0, 74, 84
2, 31675, Note_on_c, 0, 62, 59
2, 31779, Note_on_c, 0, 73, 0
2, 31790, Note_on_c, 0, 73, 87
2, 31795, Note_on_c, 0, 57, 0
2, 31806, Note_on_c, 0, 57, 55
2, 31868, Note_on_c, 0, 62, 0
2, 31868, Note_on_c, 0, 50, 0
2, 31868, Note_on_c, 0, 66, 0
2, 31868, Note_on_c, 0, 57, 0
2, 31869, Note_on_c, 0, 74, 0
2, 31870, Control_c, 0, 64, 0
2, 31918, Note_on_c, 0, 45, 71
2, 31921, Note_on_c, 0, 64, 63
2, 31941, Control_c, 0, 64, 127
2, 32048, Note_on_c, 0, 73, 0
2, 32055, Note_on_c, 0, 73, 79
2, 32058, Note_on_c, 0, 52, 59
2, 32181, Note_on_c, 0, 74, 83
2, 32183, Note_on_c, 0, 57, 60
2, 32294, Note_on_c, 0, 73, 0
2, 32298, Note_on_c, 0, 73, 79
2, 32309, Note_on_c, 0, 52, 0
2, 32318, Note_on_c, 0, 52, 60
2, 32396, Note_on_c, 0, 57, 0
2, 32397, Note_on_c, 0, 45, 0
2, 32397, Control_c, 0, 64, 0
2, 32432, Note_on_c, 0, 64, 0
2, 32442, Note_on_c, 0, 64, 52
2, 32444, Note_on_c, 0, 44, 70
2, 32463, Control_c, 0, 64, 127
2, 32517, Note_on_c, 0, 52, 0
2, 32564, Note_on_c, 0, 71, 78
2, 32588, Note_on_c, 0, 52, 60
2, 32712, Note_on_c, 0, 59, 66
2, 32824, Note_on_c, 0, 52, 0
2, 32831, Note_on_c, 0, 52, 56
2, 32921, Note_on_c, 0, 61, 61
2, 32947, Control_c, 0, 64, 0
2, 32952, Note_on_c, 0, 59, 0
2, 32952, Note_on_c, 0, 71, 0
2, 32953, Note_on_c, 0, 52, 0
2, 32954, Note_on_c, 0, 74, 0
2, 32955, Note_on_c, 0, 44, 0
2, 32967, Note_on_c, 0, 66, 75
2, 32968, Note_on_c, 0, 69, 87
2, 32972, Note_on_c, 0, 42, 67
2, 32985, Note_on_c, 0, 64, 0
2, 33008, Note_on_c, 0, 73, 0
2, 33039, Control_c, 0, 64, 127
2, 33077, Note_on_c, 0, 61, 0
2, 33096, Note_on_c, 0, 49, 59
2, 33242, Note_on_c, 0, 54, 64
2, 33367, Note_on_c, 0, 57, 72
2, 33507, Note_on_c, 0, 69, 0
2, 33510, Note_on_c, 0, 81, 97
2, 33517, Note_on_c, 0, 69, 60
2, 33637, Note_on_c, 0, 61, 73
2, 33753, Note_on_c, 0, 66, 0
2, 33764, Note_on_c, 0, 66, 76
2, 33884, Note_on_c, 0, 69, 0
2, 33888, Note_on_c, 0, 69, 70
2, 33999, Note_on_c, 0, 42, 0
2, 34004, Note_on_c, 0, 71, 73
2, 34027, Control_c, 0, 64, 0
2, 34029, Note_on_c, 0, 80, 99
2, 34031, Note_on_c, 0, 69, 0
2, 34031, Note_on_c, 0, 54, 0
2, 34032, Note_on_c, 0, 49, 0
2, 34032, Note_on_c, 0, 61, 0
2, 34032, Note_on_c, 0, 66, 0
2, 34032, Note_on_c, 0, 57, 0
2, 34035, Note_on_c, 0, 81, 0
2, 34035, Note_on_c, 0, 47, 73
2, 34041, Note_on_c, 0, 75, 81
2, 34114, Control_c, 0, 64, 127
2, 34171, Note_on_c, 0, 54, 62
2, 34293, Note_on_c, 0, 59, 71
2, 34424, Note_on_c, 0, 63, 82
2, 34475, Note_on_c, 0, 47, 0
2, 34552, Note_on_c, 0, 81, 101
2, 34687, Note_on_c, 0, 66, 78
2, 34798, Note_on_c, 0, 71, 0
2, 34807, Note_on_c, 0, 71, 81
2, 34920, Note_on_c, 0, 75, 0
2, 34930, Note_on_c, 0, 75, 70
2, 35064, Note_on_c, 0, 63, 0
2, 35064, Note_on_c, 0, 80, 0
2, 35065, Note_on_c, 0, 54, 0
2, 35065, Note_on_c, 0, 66, 0
2, 35065, Note_on_c, 0, 59, 0
2, 35066, Note_on_c, 0, 75, 0
2, 35066, Note_on_c, 0, 81, 0
2, 35068, Control_c, 0, 64, 0
2, 35074, Note_on_c, 0, 81, 101
2, 35082, Note_on_c, 0, 71, 0
2, 35084, Note_on_c, 0, 74, 89
2, 35085, Note_on_c, 0, 50, 65
2, 35086, Note_on_c, 0, 78, 89
2, 35143, Control_c, 0, 64, 127
2, 35218, Note_on_c, 0, 57, 68
2, 35328, Note_on_c, 0, 62, 82
2, 35458, Note_on_c, 0, 66, 76
2, 35596, Note_on_c, 0, 50, 0
2, 35601, Note_on_c, 0, 69, 73
2, 35724, Note_on_c, 0, 80, 95
2, 35842, Note_on_c, 0, 78, 0
2, 35853, Note_on_c, 0, 78, 88
2, 35938, Note_on_c, 0, 69, 0
2, 35938, Note_on_c, 0, 74, 0
2, 35938, Note_on_c, 0, 62, 0
2, 35938, Note_on_c, 0, 57, 0
2, 35938, Note_on_c, 0, 81, 0
2, 35938, Note_on_c, 0, 78, 0
2, 35939, Note_on_c, 0, 66, 0
2, 35939, Note_on_c, 0, 80, 0
2, 35940, Control_c, 0, 64, 0
2, 35984, Note_on_c, 0, 76, 98
2, 35988, Note_on_c, 0, 68, 91
2, 35992, Note_on_c, 0, 52, 85
2, 36019, Control_c, 0, 64, 127
2, 36235, Note_on_c, 0, 64, 77
2, 36266, Note_on_c, 0, 59, 75
2, 36330, Note_on_c, 0, 57, 78
2, 36345, Control_c, 0, 64, 0
2, 36351, Note_on_c, 0, 68, 0
2, 36380, Note_on_c, 0, 52, 0
2, 36465, Note_on_c, 0, 52, 75
2, 36513, Note_on_c, 0, 47, 69
2, 36541, Note_on_c, 0, 76, 0
2, 36543, Note_on_c, 0, 45, 63
2, 36572, Note_on_c, 0, 47, 0
2, 36572, Control_c, 0, 64, 127
2, 36579, Note_on_c, 0, 47, 59
2, 36580, Note_on_c, 0, 44, 59
2, 36662, Note_on_c, 0, 40, 67
2, 36702, Note_on_c, 0, 44, 0
2, 36718, Note_on_c, 0, 45, 0
2, 36730, Note_on_c, 0, 28, 69
2, 36787, Note_on_c, 0, 59, 0
2, 36802, Note_on_c, 0, 57, 0
2, 36810, Note_on_c, 0, 28, 0
2, 36814, Note_on_c, 0, 28, 87
2, 36817, Note_on_c, 0, 47, 0
2, 36819, Note_on_c, 0, 40, 0
2, 36822, Control_c, 0, 64, 0
2, 36848, Note_on_c, 0, 64, 0
2, 36856, Note_on_c, 0, 52, 0
2, 36910, Note_on_c, 0, 28, 0
2, 37083, Note_on_c, 0, 64, 96
2, 37089, Note_on_c, 0, 61, 87
2, 37090, Note_on_c, 0, 57, 86
2, 37094, Control_c, 0, 64, 127
2, 37096, Note_on_c, 0, 33, 80
2, 37201, Note_on_c, 0, 64, 0
2, 37212, Note_on_c, 0, 64, 96
2, 37217, Note_on_c, 0, 57, 0
2, 37222, Note_on_c, 0, 45, 81
2, 37224, Note_on_c, 0, 61, 0
2, 37226, Note_on_c, 0, 57, 76
2, 37228, Note_on_c, 0, 61, 68
2, 37273, Control_c, 0, 64, 0
2, 37273, Note_on_c, 0, 33, 0
2, 37274, Note_on_c, 0, 45, 0
2, 37274, Note_on_c, 0, 57, 0
2, 37274, Note_on_c, 0, 64, 0
2, 37275, Note_on_c, 0, 61, 0
2, 37351, Note_on_c, 0, 64, 89
2, 37351, Note_on_c, 0, 52, 84
2, 37355, Note_on_c, 0, 49, 82
2, 37375, Note_on_c, 0, 64, 0
2, 37376, Note_on_c, 0, 52, 0
2, 37401, Note_on_c, 0, 49, 0
2, 37482, Note_on_c, 0, 64, 98
2, 37497, Note_on_c, 0, 57, 81
2, 37497, Note_on_c, 0, 61, 80
2, 37524, Control_c, 0, 64, 127
2, 37604, Note_on_c, 0, 33, 90
2, 37724, Note_on_c, 0, 64, 0
2, 37731, Note_on_c, 0, 61, 0
2, 37733, Note_on_c, 0, 45, 87
2, 37734, Note_on_c, 0, 64, 88
2, 37742, Note_on_c, 0, 61, 72
2, 37758, Control_c, 0, 64, 0
2, 37763, Note_on_c, 0, 33, 0
2, 37766, Note_on_c, 0, 57, 0
2, 37767, Note_on_c, 0, 64, 0
2, 37768, Note_on_c, 0, 45, 0
2, 37793, Note_on_c, 0, 61, 0
2, 37863, Note_on_c, 0, 64, 90
2, 37865, Note_on_c, 0, 52, 87
2, 37866, Note_on_c, 0, 49, 82
2, 37889, Note_on_c, 0, 52, 0
2, 37890, Note_on_c, 0, 64, 0
2, 37916, Note_on_c, 0, 49, 0
2, 37988, Note_on_c, 0, 64, 94
2, 37998, Note_on_c, 0, 59, 83
2, 38002, Note_on_c, 0, 56, 76
2, 38062, Control_c, 0, 64, 127
2, 38117, Note_on_c, 0, 40, 77
2, 38118, Note_on_c, 0, 28, 87
2, 38223, Note_on_c, 0, 28, 0
2, 38231, Note_on_c, 0, 40, 0
2, 38231, Note_on_c, 0, 64, 0
2, 38234, Note_on_c, 0, 28, 78
2, 38237, Note_on_c, 0, 40, 73
2, 38240, Note_on_c, 0, 64, 85
2, 38281, Control_c, 0, 64, 0
2, 38288, Note_on_c, 0, 59, 0
2, 38289, Note_on_c, 0, 56, 0
2, 38293, Note_on_c, 0, 64, 0
2, 38346, Note_on_c, 0, 28, 0
2, 38368, Note_on_c, 0, 62, 89
2, 38369, Note_on_c, 0, 47, 82
2, 38370, Note_on_c, 0, 52, 83
2, 38397, Note_on_c, 0, 47, 0
2, 38398, Note_on_c, 0, 52, 0
2, 38400, Note_on_c, 0, 40, 0
2, 38403, Note_on_c, 0, 62, 0
2, 38504, Note_on_c, 0, 61, 95
2, 38510, Note_on_c, 0, 56, 84
2, 38513, Note_on_c, 0, 41, 82
2, 38514, Note_on_c, 0, 29, 87
2, 38538, Control_c, 0, 64, 127
2, 38753, Note_on_c, 0, 29, 0
2, 38753, Note_on_c, 0, 41, 0
2, 38762, Note_on_c, 0, 59, 86
2, 38764, Note_on_c, 0, 41, 70
2, 38764, Note_on_c, 0, 29, 70
2, 38818, Note_on_c, 0, 41, 0
2, 38818, Note_on_c, 0, 29, 0
2, 38820, Note_on_c, 0, 61, 0
2, 38826, Note_on_c, 0, 56, 0
2, 38827, Control_c, 0, 64, 0
2, 38898, Note_on_c, 0, 53, 84
2, 38902, Note_on_c, 0, 49, 77
2, 38914, Note_on_c, 0, 59, 0
2, 38920, Note_on_c, 0, 53, 0
2, 38928, Note_on_c, 0, 49, 0
2, 39030, Note_on_c, 0, 59, 82
2, 39085, Note_on_c, 0, 59, 0
2, 39154, Note_on_c, 0, 61, 92
2, 39154, Note_on_c, 0, 57, 87
2, 39154, Note_on_c, 0, 30, 85
2, 39155, Note_on_c, 0, 42, 82
2, 39168, Control_c, 0, 64, 127
2, 39275, Note_on_c, 0, 42, 0
2, 39283, Note_on_c, 0, 57, 0
2, 39283, Note_on_c, 0, 61, 0
2, 39285, Note_on_c, 0, 42, 82
2, 39287, Note_on_c, 0, 61, 88
2, 39290, Note_on_c, 0, 54, 66
2, 39293, Note_on_c, 0, 57, 68
2, 39363, Note_on_c, 0, 42, 0
2, 39367, Note_on_c, 0, 30, 0
2, 39367, Note_on_c, 0, 54, 0
2, 39372, Control_c, 0, 64, 0
2, 39398, Note_on_c, 0, 61, 0
2, 39406, Note_on_c, 0, 57, 0
2, 39408, Note_on_c, 0, 61, 93
2, 39417, Note_on_c, 0, 57, 66
2, 39419, Note_on_c, 0, 54, 78
2, 39431, Note_on_c, 0, 49, 75
2, 39450, Note_on_c, 0, 57, 0
2, 39452, Note_on_c, 0, 61, 0
2, 39457, Note_on_c, 0, 54, 0
2, 39462, Note_on_c, 0, 49, 0
2, 39548, Note_on_c, 0, 61, 94
2, 39560, Note_on_c, 0, 57, 80
2, 39590, Control_c, 0, 64, 127
2, 39663, Note_on_c, 0, 28, 89
2, 39665, Note_on_c, 0, 40, 71
2, 39797, Note_on_c, 0, 40, 0
2, 39797, Note_on_c, 0, 61, 0
2, 39802, Note_on_c, 0, 40, 71
2, 39803, Note_on_c, 0, 61, 86
2, 39805, Note_on_c, 0, 57, 0
2, 39808, Note_on_c, 0, 52, 72
2, 39810, Note_on_c, 0, 57, 61
2, 39813, Note_on_c, 0, 52, 0
2, 39866, Note_on_c, 0, 28, 0
2, 39867, Note_on_c, 0, 40, 0
2, 39868, Note_on_c, 0, 61, 0
2, 39869, Note_on_c, 0, 57, 0
2, 39881, Control_c, 0, 64, 0
2, 39924, Note_on_c, 0, 62, 90
2, 39928, Note_on_c, 0, 47, 87
2, 39929, Note_on_c, 0, 52, 89
2, 39947, Note_on_c, 0, 62, 0
2, 39948, Note_on_c, 0, 52, 0
2, 39974, Note_on_c, 0, 47, 0
2, 40055, Note_on_c, 0, 61, 93
2, 40055, Note_on_c, 0, 54, 82
2, 40128, Control_c, 0, 64, 127
2, 40178, Note_on_c, 0, 28, 85
2, 40185, Note_on_c, 0, 55, 67
2, 40197, Note_on_c, 0, 55, 0
2, 40203, Note_on_c, 0, 57, 44
2, 40304, Note_on_c, 0, 61, 0
2, 40309, Note_on_c, 0, 39, 72
2, 40313, Note_on_c, 0, 61, 86
2, 40369, Note_on_c, 0, 61, 0
2, 40369, Note_on_c, 0, 54, 0
2, 40371, Note_on_c, 0, 39, 0
2, 40378, Control_c, 0, 64, 0
2, 40381, Note_on_c, 0, 28, 0
2, 40389, Note_on_c, 0, 57, 0
2, 40437, Note_on_c, 0, 47, 84
2, 40438, Note_on_c, 0, 59, 90
2, 40438, Note_on_c, 0, 51, 81
2, 40439, Note_on_c, 0, 54, 71
2, 40462, Note_on_c, 0, 59, 0
2, 40463, Note_on_c, 0, 47, 0
2, 40481, Note_on_c, 0, 51, 0
2, 40496, Note_on_c, 0, 54, 0
2, 40576, Note_on_c, 0, 59, 93
2, 40576, Note_on_c, 0, 54, 84
2, 40583, Note_on_c, 0, 39, 85
2, 40584, Note_on_c, 0, 27, 90
2, 40604, Control_c, 0, 64, 127
2, 40819, Note_on_c, 0, 39, 0
2, 40826, Note_on_c, 0, 27, 0
2, 40829, Note_on_c, 0, 57, 89
2, 40830, Note_on_c, 0, 39, 73
2, 40830, Control_c, 0, 64, 0
2, 40831, Note_on_c, 0, 27, 72
2, 40835, Note_on_c, 0, 59, 0
2, 40896, Note_on_c, 0, 54, 0
2, 40903, Control_c, 0, 64, 127
2, 40965, Note_on_c, 0, 57, 0
2, 40968, Note_on_c, 0, 51, 87
2, 40974, Note_on_c, 0, 57, 68
2, 40978, Note_on_c, 0, 47, 72
2, 40993, Note_on_c, 0, 39, 0
2, 41003, Note_on_c, 0, 27, 0
2, 41011, Control_c, 0, 64, 0
2, 41026, Note_on_c, 0, 51, 0
2, 41041, Note_on_c, 0, 47, 0
2, 41072, Note_on_c, 0, 57, 0
2, 41215, Note_on_c, 0, 57, 92
2, 41221, Note_on_c, 0, 54, 88
2, 41224, Note_on_c, 0, 62, 77
2, 41229, Note_on_c, 0, 26, 82
2, 41229, Note_on_c, 0, 38, 94
2, 41249, Control_c, 0, 64, 127
2, 41341, Note_on_c, 0, 38, 0
2, 41349, Note_on_c, 0, 38, 50
2, 41453, Note_on_c, 0, 26, 0
2, 41458, Note_on_c, 0, 38, 0
2, 41472, Note_on_c, 0, 54, 0
2, 41472, Note_on_c, 0, 57, 0
2, 41481, Note_on_c, 0, 50, 70
2, 41482, Note_on_c, 0, 54, 63
2, 41483, Note_on_c, 0, 57, 75
2, 41483, Note_on_c, 0, 45, 76
2, 41510, Note_on_c, 0, 45, 0
2, 41515, Control_c, 0, 64, 0
2, 41606, Note_on_c, 0, 38, 76
2, 41640, Note_on_c, 0, 62, 0
2, 41656, Note_on_c, 0, 57, 0
2, 41664, Note_on_c, 0, 50, 0
2, 41664, Note_on_c, 0, 54, 0
2, 41760, Note_on_c, 0, 61, 93
2, 41825, Control_c, 0, 64, 127
2, 41871, Note_on_c, 0, 38, 0
2, 41878, Note_on_c, 0, 38, 70
2, 42013, Note_on_c, 0, 38, 0
2, 42016, Note_on_c, 0, 45, 81
2, 42016, Note_on_c, 0, 57, 74
2, 42019, Note_on_c, 0, 61, 0
2, 42024, Note_on_c, 0, 57, 0
2, 42029, Control_c, 0, 64, 0
2, 42045, Note_on_c, 0, 45, 0
2, 42134, Note_on_c, 0, 38, 79
2, 42209, Note_on_c, 0, 38, 0
2, 42270, Note_on_c, 0, 64, 98
2, 42272, Note_on_c, 0, 57, 89
2, 42276, Note_on_c, 0, 52, 90
2, 42278, Note_on_c, 0, 37, 89
2, 42332, Control_c, 0, 64, 127
2, 42339, Control_c, 0, 64, 0
2, 42408, Note_on_c, 0, 52, 0
2, 42419, Note_on_c, 0, 52, 57
2, 42531, Note_on_c, 0, 57, 0
2, 42534, Note_on_c, 0, 49, 72
2, 42542, Note_on_c, 0, 57, 80
2, 42548, Note_on_c, 0, 45, 74
2, 42654, Note_on_c, 0, 37, 0
2, 42661, Note_on_c, 0, 37, 79
2, 42777, Note_on_c, 0, 49, 0
2, 42785, Note_on_c, 0, 37, 0
2, 42796, Note_on_c, 0, 61, 91
2, 42800, Note_on_c, 0, 45, 0
2, 42816, Note_on_c, 0, 64, 0
2, 42892, Note_on_c, 0, 57, 0
2, 42927, Note_on_c, 0, 37, 66
2, 43052, Note_on_c, 0, 45, 81
2, 43052, Note_on_c, 0, 57, 74
2, 43052, Note_on_c, 0, 49, 72
2, 43101, Note_on_c, 0, 49, 0
2, 43106, Note_on_c, 0, 45, 0
2, 43115, Note_on_c, 0, 37, 0
2, 43115, Note_on_c, 0, 52, 0
2, 43130, Note_on_c, 0, 57, 0
2, 43169, Note_on_c, 0, 37, 72
2, 43253, Note_on_c, 0, 61, 0
2, 43304, Note_on_c, 0, 59, 90
2, 43312, Note_on_c, 0, 54, 80
2, 43312, Note_on_c, 0, 33, 77
2, 43312, Note_on_c, 0, 26, 86
2, 43314, Note_on_c, 0, 38, 85
2, 43316, Note_on_c, 0, 50, 75
2, 43317, Note_on_c, 0, 57, 75
2, 43318, Note_on_c, 0, 40, 77
2, 43322, Note_on_c, 0, 37, 0
2, 43322, Note_on_c, 0, 40, 0
2, 43322, Note_on_c, 0, 50, 0
2, 43338, Control_c, 0, 64, 127
2, 43560, Note_on_c, 0, 54, 0
2, 43560, Note_on_c, 0, 57, 0
2, 43565, Note_on_c, 0, 57, 76
2, 43570, Note_on_c, 0, 54, 75
2, 43572, Note_on_c, 0, 50, 80
2, 43576, Note_on_c, 0, 45, 80
2, 43593, Note_on_c, 0, 59, 0
2, 43603, Control_c, 0, 64, 0
2, 43622, Note_on_c, 0, 33, 0
2, 43668, Note_on_c, 0, 26, 0
2, 43691, Note_on_c, 0, 38, 0
2, 43696, Note_on_c, 0, 38, 81
2, 43811, Note_on_c, 0, 38, 0
2, 43822, Note_on_c, 0, 50, 0
2, 43837, Note_on_c, 0, 54, 0
2, 43845, Note_on_c, 0, 61, 97
2, 43860, Note_on_c, 0, 45, 0
2, 43868, Note_on_c, 0, 57, 0
2, 43968, Note_on_c, 0, 38, 72
2, 44097, Note_on_c, 0, 45, 84
2, 44099, Note_on_c, 0, 57, 77
2, 44101, Note_on_c, 0, 50, 77
2, 44156, Note_on_c, 0, 38, 0
2, 44157, Note_on_c, 0, 45, 0
2, 44157, Note_on_c, 0, 61, 0
2, 44159, Note_on_c, 0, 50, 0
2, 44198, Note_on_c, 0, 57, 0
2, 44218, Note_on_c, 0, 38, 82
2, 44336, Note_on_c, 0, 38, 0
2, 44356, Note_on_c, 0, 59, 92
2, 44357, Note_on_c, 0, 40, 90
2, 44359, Note_on_c, 0, 28, 94
2, 44362, Note_on_c, 0, 52, 80
2, 44363, Note_on_c, 0, 56, 89
2, 44398, Control_c, 0, 64, 127
2, 44490, Note_on_c, 0, 28, 0
2, 44490, Note_on_c, 0, 40, 0
2, 44498, Note_on_c, 0, 40, 74
2, 44500, Note_on_c, 0, 28, 67
2, 44595, Control_c, 0, 64, 0
2, 44620, Note_on_c, 0, 52, 0
2, 44621, Note_on_c, 0, 47, 81
2, 44624, Note_on_c, 0, 52, 67
2, 44674, Note_on_c, 0, 40, 0
2, 44749, Note_on_c, 0, 40, 75
2, 44893, Note_on_c, 0, 57, 88
2, 44966, Control_c, 0, 64, 127
2, 44981, Note_on_c, 0, 28, 0
2, 45004, Note_on_c, 0, 40, 0
2, 45014, Note_on_c, 0, 40, 69
2, 45127, Note_on_c, 0, 47, 0
2, 45127, Note_on_c, 0, 52, 0
2, 45134, Note_on_c, 0, 47, 79
2, 45138, Note_on_c, 0, 52, 76
2, 45178, Note_on_c, 0, 40, 0
2, 45184, Note_on_c, 0, 57, 0
2, 45189, Note_on_c, 0, 56, 0
2, 45200, Control_c, 0, 64, 0
2, 45263, Note_on_c, 0, 40, 74
2, 45300, Note_on_c, 0, 40, 0
2, 45301, Note_on_c, 0, 47, 0
2, 45304, Note_on_c, 0, 52, 0
2, 45304, Note_on_c, 0, 59, 0
2, 45406, Note_on_c, 0, 57, 92
2, 45407, Note_on_c, 0, 45, 84
2, 45408, Note_on_c, 0, 33, 81
2, 45409, Note_on_c, 0, 52, 80
2, 45442, Control_c, 0, 64, 127
2, 45672, Note_on_c, 0, 45, 0
2, 45679, Note_on_c, 0, 45, 57
2, 45803, Note_on_c, 0, 52, 0
2, 45814, Note_on_c, 0, 52, 53
2, 45944, Note_on_c, 0, 62, 80
2, 45964, Note_on_c, 0, 57, 0
2, 45974, Note_on_c, 0, 57, 42
2, 46072, Note_on_c, 0, 52, 0
2, 46072, Note_on_c, 0, 57, 0
2, 46078, Note_on_c, 0, 52, 37
2, 46079, Note_on_c, 0, 57, 52
2, 46195, Note_on_c, 0, 57, 0
2, 46195, Note_on_c, 0, 62, 0
2, 46203, Note_on_c, 0, 62, 70
2, 46205, Note_on_c, 0, 57, 60
2, 46314, Note_on_c, 0, 62, 0
2, 46319, Note_on_c, 0, 33, 0
2, 46320, Control_c, 0, 64, 0
2, 46325, Note_on_c, 0, 45, 0
2, 46331, Note_on_c, 0, 61, 74
2, 46335, Note_on_c, 0, 45, 57
2, 46487, Control_c, 0, 64, 127
2, 46525, Note_on_c, 0, 57, 0
2, 46626, Note_on_c, 0, 57, 59
2, 46628, Note_on_c, 0, 64, 64
2, 46752, Note_on_c, 0, 69, 65
2, 46763, Note_on_c, 0, 61, 0
2, 46768, Note_on_c, 0, 61, 55
2, 46798, Control_c, 0, 64, 0
2, 46817, Control_c, 0, 64, 127
2, 46870, Note_on_c, 0, 73, 68
2, 46894, Note_on_c, 0, 64, 0
2, 46900, Note_on_c, 0, 64, 58
2, 47009, Note_on_c, 0, 69, 0
2, 47015, Note_on_c, 0, 69, 59
2, 47017, Note_on_c, 0, 76, 69
2, 47269, Control_c, 0, 64, 0
2, 47269, Note_on_c, 0, 57, 0
2, 47270, Note_on_c, 0, 61, 0
2, 47270, Note_on_c, 0, 76, 0
2, 47270, Note_on_c, 0, 64, 0
2, 47271, Note_on_c, 0, 69, 0
2, 47271, Note_on_c, 0, 73, 0
2, 47273, Note_on_c, 0, 45, 0
2, 47279, Note_on_c, 0, 76, 85
2, 47281, Note_on_c, 0, 44, 60
2, 47285, Note_on_c, 0, 52, 0
2, 47354, Control_c, 0, 64, 127
2, 47416, Note_on_c, 0, 56, 59
2, 47528, Note_on_c, 0, 56, 0
2, 47539, Note_on_c, 0, 76, 0
2, 47543, Note_on_c, 0, 81, 97
2, 47550, Note_on_c, 0, 42, 57
2, 47554, Note_on_c, 0, 44, 0
2, 47560, Note_on_c, 0, 69, 70
2, 47560, Note_on_c, 0, 73, 77
2, 47573, Control_c, 0, 64, 0
2, 47654, Control_c, 0, 64, 127
2, 47686, Note_on_c, 0, 54, 54
2, 47812, Note_on_c, 0, 80, 85
2, 47846, Note_on_c, 0, 69, 0
2, 47853, Note_on_c, 0, 69, 32
2, 47953, Note_on_c, 0, 54, 0
2, 47958, Note_on_c, 0, 54, 51
2, 48061, Note_on_c, 0, 81, 0
2, 48065, Note_on_c, 0, 81, 90
2, 48069, Note_on_c, 0, 54, 0
2, 48076, Note_on_c, 0, 69, 0
2, 48076, Note_on_c, 0, 73, 0
2, 48079, Note_on_c, 0, 54, 61
2, 48081, Note_on_c, 0, 73, 72
2, 48082, Note_on_c, 0, 61, 65
2, 48086, Note_on_c, 0, 69, 66
2, 48199, Note_on_c, 0, 54, 0
2, 48210, Note_on_c, 0, 54, 36
2, 48330, Note_on_c, 0, 42, 0
2, 48341, Note_on_c, 0, 42, 61
2, 48341, Note_on_c, 0, 76, 85
2, 48346, Note_on_c, 0, 50, 50
2, 48353, Note_on_c, 0, 50, 0
2, 48460, Note_on_c, 0, 54, 0
2, 48469, Note_on_c, 0, 54, 58
2, 48579, Note_on_c, 0, 42, 0
2, 48580, Note_on_c, 0, 54, 0
2, 48580, Note_on_c, 0, 80, 0
2, 48580, Note_on_c, 0, 61, 0
2, 48581, Note_on_c, 0, 73, 0
2, 48581, Note_on_c, 0, 81, 0
2, 48582, Note_on_c, 0, 76, 0
2, 48585, Control_c, 0, 64, 0
2, 48599, Note_on_c, 0, 69, 0
2, 48608, Note_on_c, 0, 69, 70
2, 48615, Note_on_c, 0, 66, 65
2, 48619, Note_on_c, 0, 38, 59
2, 48721, Control_c, 0, 64, 127
2, 48740, Note_on_c, 0, 50, 59
2, 48871, Note_on_c, 0, 74, 86
2, 48990, Note_on_c, 0, 50, 0
2, 48994, Note_on_c, 0, 50, 66
2, 49136, Note_on_c, 0, 50, 0
2, 49136, Note_on_c, 0, 69, 0
2, 49141, Note_on_c, 0, 50, 64
2, 49144, Note_on_c, 0, 66, 0
2, 49145, Note_on_c, 0, 73, 82
2, 49147, Note_on_c, 0, 69, 72
2, 49149, Note_on_c, 0, 57, 59
2, 49155, Note_on_c, 0, 66, 68
2, 49374, Note_on_c, 0, 50, 0
2, 49374, Note_on_c, 0, 57, 0
2, 49375, Note_on_c, 0, 66, 0
2, 49375, Note_on_c, 0, 69, 0
2, 49377, Note_on_c, 0, 73, 0
2, 49378, Control_c, 0, 64, 0
2, 49397, Note_on_c, 0, 38, 0
2, 49405, Note_on_c, 0, 74, 0
2, 49407, Note_on_c, 0, 38, 58
2, 49411, Note_on_c, 0, 74, 89
2, 49474, Control_c, 0, 64, 127
2, 49539, Note_on_c, 0, 50, 57
2, 49631, Note_on_c, 0, 38, 0
2, 49631, Note_on_c, 0, 74, 0
2, 49631, Note_on_c, 0, 50, 0
2, 49634, Control_c, 0, 64, 0
2, 49678, Note_on_c, 0, 76, 91
2, 49680, Note_on_c, 0, 71, 74
2, 49682, Note_on_c, 0, 40, 64
2, 49686, Note_on_c, 0, 64, 60
2, 49689, Note_on_c, 0, 68, 68
2, 49735, Control_c, 0, 64, 127
2, 49803, Note_on_c, 0, 52, 62
2, 49935, Note_on_c, 0, 71, 0
2, 49944, Note_on_c, 0, 71, 80
2, 50065, Note_on_c, 0, 52, 0
2, 50070, Note_on_c, 0, 52, 60
2, 50196, Note_on_c, 0, 64, 0
2, 50196, Note_on_c, 0, 71, 0
2, 50204, Note_on_c, 0, 71, 81
2, 50204, Note_on_c, 0, 68, 0
2, 50204, Note_on_c, 0, 64, 72
2, 50208, Note_on_c, 0, 68, 74
2, 50210, Note_on_c, 0, 59, 69
2, 50441, Note_on_c, 0, 68, 0
2, 50442, Note_on_c, 0, 59, 0
2, 50443, Note_on_c, 0, 71, 0
2, 50443, Note_on_c, 0, 76, 0
2, 50444, Note_on_c, 0, 64, 0
2, 50446, Control_c, 0, 64, 0
2, 50465, Note_on_c, 0, 40, 0
2, 50470, Note_on_c, 0, 74, 89
2, 50472, Note_on_c, 0, 52, 0
2, 50475, Note_on_c, 0, 40, 63
2, 50519, Control_c, 0, 64, 127
2, 50592, Note_on_c, 0, 52, 63
2, 50707, Note_on_c, 0, 52, 0
2, 50713, Note_on_c, 0, 74, 0
2, 50718, Note_on_c, 0, 40, 0
2, 50720, Control_c, 0, 64, 0
2, 50723, Note_on_c, 0, 69, 72
2, 50732, Note_on_c, 0, 64, 61
2, 50746, Note_on_c, 0, 37, 54
2, 50787, Control_c, 0, 64, 127
2, 50867, Note_on_c, 0, 49, 46
2, 50991, Note_on_c, 0, 73, 80
2, 51233, Note_on_c, 0, 69, 0
2, 51239, Note_on_c, 0, 69, 78
2, 51256, Note_on_c, 0, 64, 0
2, 51258, Note_on_c, 0, 61, 66
2, 51261, Note_on_c, 0, 64, 59
2, 51264, Note_on_c, 0, 49, 0
2, 51269, Note_on_c, 0, 57, 55
2, 51269, Note_on_c, 0, 49, 50
2, 51525, Note_on_c, 0, 37, 0
2, 51528, Note_on_c, 0, 65, 48
2, 51536, Note_on_c, 0, 37, 52
2, 51655, Note_on_c, 0, 49, 0
2, 51662, Note_on_c, 0, 49, 48
2, 51751, Note_on_c, 0, 37, 0
2, 51756, Note_on_c, 0, 61, 0
2, 51757, Note_on_c, 0, 57, 0
2, 51757, Note_on_c, 0, 73, 0
2, 51757, Note_on_c, 0, 49, 0
2, 51758, Note_on_c, 0, 64, 0
2, 51760, Control_c, 0, 64, 0
2, 51763, Note_on_c, 0, 65, 0
2, 51781, Note_on_c, 0, 78, 93
2, 51786, Note_on_c, 0, 69, 0
2, 51790, Note_on_c, 0, 38, 56
2, 51790, Note_on_c, 0, 74, 79
2, 51791, Note_on_c, 0, 69, 63
2, 51798, Note_on_c, 0, 66, 72
2, 51893, Control_c, 0, 64, 127
2, 52048, Note_on_c, 0, 45, 50
2, 52159, Note_on_c, 0, 50, 54
2, 52339, Note_on_c, 0, 54, 41
2, 52464, Note_on_c, 0, 57, 54
2, 52569, Note_on_c, 0, 62, 64
2, 52692, Note_on_c, 0, 66, 0
2, 52702, Note_on_c, 0, 66, 69
2, 52847, Note_on_c, 0, 80, 96
2, 52854, Note_on_c, 0, 62, 0
2, 52855, Note_on_c, 0, 45, 0
2, 52856, Note_on_c, 0, 69, 0
2, 52856, Note_on_c, 0, 74, 0
2, 52856, Note_on_c, 0, 57, 0
2, 52856, Note_on_c, 0, 78, 0
2, 52856, Note_on_c, 0, 66, 0
2, 52856, Note_on_c, 0, 50, 0
2, 52857, Note_on_c, 0, 54, 0
2, 52857, Control_c, 0, 64, 0
2, 52858, Note_on_c, 0, 38, 0
2, 52859, Note_on_c, 0, 40, 64
2, 52859, Note_on_c, 0, 68, 71
2, 52860, Note_on_c, 0, 71, 69
2, 52862, Note_on_c, 0, 76, 69
2, 53015, Control_c, 0, 64, 127
2, 53115, Note_on_c, 0, 47, 62
2, 53257, Note_on_c, 0, 52, 56
2, 53376, Note_on_c, 0, 76, 0
2, 53380, Note_on_c, 0, 76, 90
2, 53383, Note_on_c, 0, 68, 0
2, 53387, Note_on_c, 0, 56, 65
2, 53393, Note_on_c, 0, 68, 64
2, 53523, Note_on_c, 0, 59, 73
2, 53650, Note_on_c, 0, 64, 67
2, 53752, Note_on_c, 0, 68, 0
2, 53760, Note_on_c, 0, 68, 71
2, 53900, Note_on_c, 0, 40, 0
2, 53900, Note_on_c, 0, 47, 0
2, 53900, Note_on_c, 0, 71, 0
2, 53901, Note_on_c, 0, 64, 0
2, 53901, Note_on_c, 0, 52, 0
2, 53901, Note_on_c, 0, 56, 0
2, 53901, Note_on_c, 0, 80, 0
2, 53901, Note_on_c, 0, 68, 0
2, 53901, Note_on_c, 0, 59, 0
2, 53901, Note_on_c, 0, 76, 0
2, 53901, Control_c, 0, 64, 0
2, 53907, Note_on_c, 0, 81, 102
2, 53917, Note_on_c, 0, 42, 69
2, 53919, Note_on_c, 0, 54, 75
2, 53924, Note_on_c, 0, 78, 87
2, 53925, Note_on_c, 0, 69, 78
2, 53926, Note_on_c, 0, 73, 69
2, 54051, Control_c, 0, 64, 127
2, 54453, Note_on_c, 0, 66, 92
2, 54456, Note_on_c, 0, 61, 80
2, 54459, Note_on_c, 0, 57, 77
2, 54712, Note_on_c, 0, 81, 0
2, 54720, Note_on_c, 0, 69, 0
2, 54722, Note_on_c, 0, 81, 104
2, 54724, Note_on_c, 0, 69, 91
2, 54842, Note_on_c, 0, 42, 0
2, 54842, Note_on_c, 0, 54, 0
2, 54847, Note_on_c, 0, 83, 105
2, 54850, Note_on_c, 0, 81, 0
2, 54850, Note_on_c, 0, 54, 92
2, 54852, Note_on_c, 0, 42, 94
2, 54853, Note_on_c, 0, 71, 97
2, 54856, Note_on_c, 0, 81, 77
2, 54884, Note_on_c, 0, 61, 0
2, 54885, Note_on_c, 0, 66, 0
2, 54885, Note_on_c, 0, 69, 0
2, 54886, Note_on_c, 0, 78, 0
2, 54886, Note_on_c, 0, 57, 0
2, 54886, Note_on_c, 0, 81, 0
2, 54887, Note_on_c, 0, 71, 0
2, 54888, Note_on_c, 0, 54, 0
2, 54889, Note_on_c, 0, 83, 0
2, 54889, Note_on_c, 0, 73, 0
2, 54890, Note_on_c, 0, 42, 0
2, 54896, Control_c, 0, 64, 0
2, 54977, Note_on_c, 0, 73, 108
2, 54977, Note_on_c, 0, 85, 109
2, 54984, Note_on_c, 0, 44, 97
2, 54985, Note_on_c, 0, 76, 97
2, 54985, Note_on_c, 0, 56, 98
2, 55019, Control_c, 0, 64, 127
2, 55245, Note_on_c, 0, 83, 103
2, 55247, Note_on_c, 0, 71, 92
2, 55268, Control_c, 0, 64, 0
2, 55269, Note_on_c, 0, 76, 0
2, 55270, Note_on_c, 0, 73, 0
2, 55271, Note_on_c, 0, 85, 0
2, 55274, Note_on_c, 0, 56, 0
2, 55277, Note_on_c, 0, 71, 0
2, 55283, Note_on_c, 0, 83, 0
2, 55288, Note_on_c, 0, 44, 0
2, 55381, Note_on_c, 0, 86, 109
2, 55384, Note_on_c, 0, 74, 109
2, 55386, Note_on_c, 0, 78, 101
2, 55503, Control_c, 0, 64, 127
2, 55638, Note_on_c, 0, 85, 108
2, 55644, Note_on_c, 0, 73, 101
2, 55902, Note_on_c, 0, 73, 0
2, 55906, Note_on_c, 0, 81, 110
2, 55907, Note_on_c, 0, 69, 99
2, 55908, Note_on_c, 0, 73, 104
2, 55911, Note_on_c, 0, 76, 103
2, 55955, Note_on_c, 0, 85, 0
2, 55956, Note_on_c, 0, 74, 0
2, 55956, Note_on_c, 0, 86, 0
2, 55959, Note_on_c, 0, 78, 0
2, 55960, Control_c, 0, 64, 0
2, 56025, Control_c, 0, 64, 127
2, 56036, Note_on_c, 0, 33, 95
2, 56037, Note_on_c, 0, 45, 101
2, 56192, Note_on_c, 0, 40, 62
2, 56302, Note_on_c, 0, 45, 0
2, 56313, Note_on_c, 0, 45, 76
2, 56432, Note_on_c, 0, 64, 91
2, 56435, Note_on_c, 0, 61, 93
2, 56436, Note_on_c, 0, 57, 84
2, 56436, Note_on_c, 0, 52, 85
2, 56570, Note_on_c, 0, 61, 0
2, 56575, Note_on_c, 0, 61, 73
2, 56816, Note_on_c, 0, 76, 0
2, 56824, Note_on_c, 0, 57, 0
2, 56824, Note_on_c, 0, 64, 0
2, 56824, Note_on_c, 0, 69, 0
2, 56824, Note_on_c, 0, 73, 0
2, 56828, Note_on_c, 0, 76, 107
2, 56828, Note_on_c, 0, 64, 99
2, 56830, Note_on_c, 0, 69, 89
2, 56831, Note_on_c, 0, 73, 97
2, 56835, Note_on_c, 0, 57, 87
2, 57085, Note_on_c, 0, 69, 0
2, 57085, Note_on_c, 0, 76, 0
2, 57089, Note_on_c, 0, 86, 111
2, 57089, Note_on_c, 0, 69, 91
2, 57089, Note_on_c, 0, 74, 108
2, 57091, Note_on_c, 0, 76, 104
2, 57208, Note_on_c, 0, 64, 0
2, 57213, Note_on_c, 0, 64, 89
2, 57338, Note_on_c, 0, 61, 0
2, 57344, Note_on_c, 0, 61, 87
2, 57346, Note_on_c, 0, 73, 0
2, 57349, Note_on_c, 0, 85, 99
2, 57354, Note_on_c, 0, 76, 0
2, 57357, Note_on_c, 0, 73, 98
2, 57362, Note_on_c, 0, 76, 84
2, 57469, Note_on_c, 0, 64, 0
2, 57477, Note_on_c, 0, 76, 0
2, 57480, Note_on_c, 0, 64, 87
2, 57480, Note_on_c, 0, 83, 108
2, 57483, Note_on_c, 0, 76, 101
2, 57488, Note_on_c, 0, 71, 91
2, 57600, Note_on_c, 0, 61, 0
2, 57604, Note_on_c, 0, 61, 74
2, 57730, Note_on_c, 0, 57, 0
2, 57730, Note_on_c, 0, 69, 0
2, 57730, Note_on_c, 0, 81, 0
2, 57734, Note_on_c, 0, 81, 110
2, 57736, Note_on_c, 0, 57, 100
2, 57739, Note_on_c, 0, 69, 97
2, 57845, Note_on_c, 0, 52, 0
2, 57856, Note_on_c, 0, 52, 83
2, 57960, Note_on_c, 0, 45, 0
2, 57971, Note_on_c, 0, 45, 74
2, 57991, Note_on_c, 0, 83, 0
2, 57997, Note_on_c, 0, 83, 111
2, 57999, Note_on_c, 0, 71, 0
2, 57999, Note_on_c, 0, 76, 0
2, 58005, Note_on_c, 0, 71, 104
2, 58010, Note_on_c, 0, 80, 102
2, 58010, Note_on_c, 0, 76, 102
2, 58064, Note_on_c, 0, 69, 0
2, 58064, Control_c, 0, 64, 0
2, 58064, Note_on_c, 0, 57, 0
2, 58064, Note_on_c, 0, 74, 0
2, 58064, Note_on_c, 0, 52, 0
2, 58065, Note_on_c, 0, 45, 0
2, 58065, Note_on_c, 0, 86, 0
2, 58065, Note_on_c, 0, 85, 0
2, 58065, Note_on_c, 0, 81, 0
2, 58065, Note_on_c, 0, 61, 0
2, 58065, Note_on_c, 0, 73, 0
2, 58065, Note_on_c, 0, 64, 0
2, 58065, Note_on_c, 0, 40, 0
2, 58083, Note_on_c, 0, 33, 0
2, 58121, Note_on_c, 0, 52, 102
2, 58123, Note_on_c, 0, 40, 97
2, 58145, Control_c, 0, 64, 127
2, 58266, Note_on_c, 0, 47, 82
2, 58383, Note_on_c, 0, 52, 0
2, 58390, Note_on_c, 0, 52, 66
2, 58510, Note_on_c, 0, 64, 92
2, 58513, Note_on_c, 0, 47, 0
2, 58516, Note_on_c, 0, 59, 88
2, 58517, Note_on_c, 0, 56, 82
2, 58518, Note_on_c, 0, 47, 71
2, 58652, Note_on_c, 0, 52, 0
2, 58662, Note_on_c, 0, 52, 49
2, 58775, Note_on_c, 0, 56, 0
2, 58780, Note_on_c, 0, 56, 80
2, 58905, Note_on_c, 0, 52, 0
2, 58905, Note_on_c, 0, 64, 0
2, 58905, Note_on_c, 0, 71, 0
2, 58905, Note_on_c, 0, 76, 0
2, 58913, Note_on_c, 0, 47, 0
2, 58914, Note_on_c, 0, 76, 100
2, 58914, Note_on_c, 0, 68, 96
2, 58916, Note_on_c, 0, 64, 89
2, 58916, Note_on_c, 0, 71, 81
2, 58916, Note_on_c, 0, 52, 73
2, 58917, Note_on_c, 0, 47, 69
2, 59028, Note_on_c, 0, 56, 0
2, 59028, Note_on_c, 0, 59, 0
2, 59036, Note_on_c, 0, 59, 84
2, 59037, Note_on_c, 0, 56, 58
2, 59166, Note_on_c, 0, 68, 0
2, 59172, Note_on_c, 0, 68, 101
2, 59173, Note_on_c, 0, 85, 107
2, 59174, Note_on_c, 0, 76, 0
2, 59175, Note_on_c, 0, 73, 106
2, 59178, Note_on_c, 0, 76, 101
2, 59289, Note_on_c, 0, 64, 0
2, 59300, Note_on_c, 0, 64, 83
2, 59420, Note_on_c, 0, 59, 0
2, 59420, Note_on_c, 0, 71, 0
2, 59420, Note_on_c, 0, 83, 0
2, 59426, Note_on_c, 0, 83, 103
2, 59430, Note_on_c, 0, 59, 84
2, 59430, Note_on_c, 0, 71, 89
2, 59558, Note_on_c, 0, 64, 0
2, 59564, Note_on_c, 0, 81, 109
2, 59566, Note_on_c, 0, 76, 0
2, 59569, Note_on_c, 0, 64, 96
2, 59570, Note_on_c, 0, 69, 95
2, 59572, Note_on_c, 0, 76, 99
2, 59581, Note_on_c, 0, 59, 0
2, 59587, Note_on_c, 0, 59, 79
2, 59681, Note_on_c, 0, 59, 0
2, 59692, Note_on_c, 0, 59, 74
2, 59804, Note_on_c, 0, 80, 0
2, 59811, Note_on_c, 0, 56, 0
2, 59815, Note_on_c, 0, 80, 104
2, 59816, Note_on_c, 0, 56, 91
2, 59819, Note_on_c, 0, 68, 0
2, 59823, Note_on_c, 0, 68, 97
2, 59934, Note_on_c, 0, 52, 0
2, 59939, Note_on_c, 0, 52, 80
2, 60057, Note_on_c, 0, 47, 0
2, 60057, Note_on_c, 0, 81, 0
2, 60065, Note_on_c, 0, 69, 0
2, 60068, Note_on_c, 0, 81, 109
2, 60068, Note_on_c, 0, 47, 86
2, 60073, Note_on_c, 0, 69, 94
2, 60075, Note_on_c, 0, 74, 101
2, 60075, Note_on_c, 0, 78, 101
2, 60144, Note_on_c, 0, 56, 0
2, 60145, Note_on_c, 0, 68, 0
2, 60145, Note_on_c, 0, 85, 0
2, 60145, Note_on_c, 0, 47, 0
2, 60145, Note_on_c, 0, 52, 0
2, 60145, Note_on_c, 0, 40, 0
2, 60145, Note_on_c, 0, 71, 0
2, 60145, Note_on_c, 0, 83, 0
2, 60145, Note_on_c, 0, 80, 0
2, 60145, Note_on_c, 0, 76, 0
2, 60145, Note_on_c, 0, 73, 0
2, 60146, Control_c, 0, 64, 0
2, 60157, Note_on_c, 0, 64, 0
2, 60165, Note_on_c, 0, 59, 0
2, 60200, Note_on_c, 0, 38, 99
2, 60226, Control_c, 0, 64, 127
2, 60338, Note_on_c, 0, 45, 65
2, 60468, Note_on_c, 0, 50, 72
2, 60584, Note_on_c, 0, 62, 89
2, 60584, Note_on_c, 0, 57, 88
2, 60601, Note_on_c, 0, 54, 63
2, 60602, Note_on_c, 0, 45, 0
2, 60607, Note_on_c, 0, 45, 59
2, 60840, Note_on_c, 0, 54, 0
2, 60845, Note_on_c, 0, 54, 69
2, 60971, Note_on_c, 0, 62, 0
2, 60971, Note_on_c, 0, 69, 0
2, 60975, Note_on_c, 0, 69, 98
2, 60980, Note_on_c, 0, 66, 100
2, 60982, Note_on_c, 0, 62, 89
2, 61117, Note_on_c, 0, 57, 0
2, 61121, Note_on_c, 0, 57, 76
2, 61224, Note_on_c, 0, 62, 0
2, 61236, Note_on_c, 0, 62, 83
2, 61370, Note_on_c, 0, 66, 0
2, 61370, Note_on_c, 0, 69, 0
2, 61370, Note_on_c, 0, 74, 0
2, 61370, Note_on_c, 0, 78, 0
2, 61376, Note_on_c, 0, 69, 82
2, 61380, Note_on_c, 0, 78, 104
2, 61381, Note_on_c, 0, 66, 91
2, 61381, Note_on_c, 0, 74, 88
2, 61388, Note_on_c, 0, 76, 89
2, 61493, Note_on_c, 0, 62, 0
2, 61503, Note_on_c, 0, 62, 75
2, 61622, Note_on_c, 0, 59, 90
2, 61722, Note_on_c, 0, 69, 0
2, 61722, Note_on_c, 0, 45, 0
2, 61722, Note_on_c, 0, 74, 0
2, 61722, Note_on_c, 0, 57, 0
2, 61722, Note_on_c, 0, 38, 0
2, 61723, Note_on_c, 0, 66, 0
2, 61723, Note_on_c, 0, 54, 0
2, 61723, Note_on_c, 0, 78, 0
2, 61723, Note_on_c, 0, 76, 0
2, 61723, Control_c, 0, 64, 0
2, 61724, Note_on_c, 0, 59, 0
2, 61731, Note_on_c, 0, 50, 0
2, 61731, Note_on_c, 0, 62, 0
2, 61731, Note_on_c, 0, 81, 0
2, 61766, Note_on_c, 0, 81, 106
2, 61767, Note_on_c, 0, 42, 96
2, 61768, Note_on_c, 0, 54, 102
2, 61768, Note_on_c, 0, 69, 101
2, 61770, Note_on_c, 0, 73, 99
2, 61770, Note_on_c, 0, 78, 98
2, 61793, Control_c, 0, 64, 127
2, 61843, Note_on_c, 0, 54, 0
2, 61843, Note_on_c, 0, 42, 0
2, 61845, Note_on_c, 0, 73, 0
2, 61850, Note_on_c, 0, 81, 0
2, 61852, Note_on_c, 0, 78, 0
2, 61872, Control_c, 0, 64, 0
2, 61890, Note_on_c, 0, 49, 70
2, 61908, Note_on_c, 0, 69, 0
2, 61946, Note_on_c, 0, 49, 0
2, 62018, Note_on_c, 0, 83, 108
2, 62022, Note_on_c, 0, 71, 97
2, 62024, Note_on_c, 0, 80, 92
2, 62026, Note_on_c, 0, 74, 102
2, 62027, Note_on_c, 0, 56, 101
2, 62027, Note_on_c, 0, 44, 95
2, 62031, Control_c, 0, 64, 127
2, 62112, Note_on_c, 0, 71, 0
2, 62112, Note_on_c, 0, 44, 0
2, 62112, Control_c, 0, 64, 0
2, 62112, Note_on_c, 0, 83, 0
2, 62113, Note_on_c, 0, 74, 0
2, 62113, Note_on_c, 0, 80, 0
2, 62113, Note_on_c, 0, 56, 0
2, 62156, Note_on_c, 0, 52, 81
2, 62215, Note_on_c, 0, 52, 0
2, 62280, Note_on_c, 0, 85, 106
2, 62282, Note_on_c, 0, 73, 105
2, 62283, Note_on_c, 0, 81, 96
2, 62288, Note_on_c, 0, 76, 92
2, 62296, Note_on_c, 0, 57, 98
2, 62299, Note_on_c, 0, 45, 86
2, 62315, Control_c, 0, 64, 127
2, 62393, Note_on_c, 0, 52, 76
2, 62536, Note_on_c, 0, 64, 96
2, 62541, Note_on_c, 0, 61, 91
2, 62666, Note_on_c, 0, 83, 103
2, 62672, Note_on_c, 0, 71, 91
2, 62732, Note_on_c, 0, 64, 0
2, 62733, Note_on_c, 0, 52, 0
2, 62734, Note_on_c, 0, 71, 0
2, 62734, Note_on_c, 0, 83, 0
2, 62734, Note_on_c, 0, 57, 0
2, 62734, Note_on_c, 0, 61, 0
2, 62739, Control_c, 0, 64, 0
2, 62745, Note_on_c, 0, 45, 0
2, 62745, Note_on_c, 0, 73, 0
2, 62745, Note_on_c, 0, 76, 0
2, 62745, Note_on_c, 0, 81, 0
2, 62745, Note_on_c, 0, 85, 0
2, 62791, Note_on_c, 0, 83, 109
2, 62795, Note_on_c, 0, 74, 101
2, 62796, Note_on_c, 0, 38, 99
2, 62796, Note_on_c, 0, 71, 97
2, 62797, Note_on_c, 0, 26, 87
2, 62799, Note_on_c, 0, 77, 92
2, 62822, Control_c, 0, 64, 127
2, 62853, Note_on_c, 0, 26, 0
2, 62909, Note_on_c, 0, 45, 74
2, 63056, Note_on_c, 0, 62, 91
2, 63059, Note_on_c, 0, 53, 89
2, 63063, Note_on_c, 0, 57, 81
2, 63168, Note_on_c, 0, 83, 0
2, 63175, Note_on_c, 0, 83, 97
2, 63175, Note_on_c, 0, 71, 0
2, 63179, Note_on_c, 0, 71, 70
2, 63259, Note_on_c, 0, 45, 0
2, 63261, Note_on_c, 0, 77, 0
2, 63261, Note_on_c, 0, 38, 0
2, 63261, Note_on_c, 0, 74, 0
2, 63261, Note_on_c, 0, 53, 0
2, 63261, Note_on_c, 0, 62, 0
2, 63262, Note_on_c, 0, 71, 0
2, 63262, Note_on_c, 0, 83, 0
2, 63262, Note_on_c, 0, 57, 0
2, 63266, Control_c, 0, 64, 0
2, 63309, Note_on_c, 0, 40, 103
2, 63311, Note_on_c, 0, 74, 106
2, 63311, Note_on_c, 0, 86, 100
2, 63313, Note_on_c, 0, 88, 104
2, 63313, Note_on_c, 0, 78, 109
2, 63321, Note_on_c, 0, 88, 0
2, 63336, Control_c, 0, 64, 127
2, 63432, Note_on_c, 0, 47, 88
2, 63559, Note_on_c, 0, 74, 0
2, 63559, Note_on_c, 0, 86, 0
2, 63566, Note_on_c, 0, 86, 97
2, 63567, Note_on_c, 0, 40, 0
2, 63570, Note_on_c, 0, 52, 93
2, 63571, Note_on_c, 0, 74, 90
2, 63571, Note_on_c, 0, 76, 86
2, 63573, Note_on_c, 0, 40, 81
2, 63654, Note_on_c, 0, 78, 0
2, 63654, Note_on_c, 0, 52, 0
2, 63654, Note_on_c, 0, 74, 0
2, 63654, Note_on_c, 0, 40, 0
2, 63654, Note_on_c, 0, 86, 0
2, 63654, Note_on_c, 0, 76, 0
2, 63655, Note_on_c, 0, 47, 0
2, 63656, Control_c, 0, 64, 0
2, 63701, Note_on_c, 0, 85, 109
2, 63707, Note_on_c, 0, 73, 105
2, 63707, Note_on_c, 0, 76, 99
2, 63708, Note_on_c, 0, 52, 98
2, 63709, Note_on_c, 0, 40, 99
2, 63720, Control_c, 0, 64, 127
2, 63951, Note_on_c, 0, 76, 0
2, 63956, Note_on_c, 0, 64, 97
2, 63958, Note_on_c, 0, 83, 106
2, 63959, Note_on_c, 0, 76, 91
2, 63962, Note_on_c, 0, 71, 98
2, 63962, Note_on_c, 0, 68, 90
2, 63962, Note_on_c, 0, 56, 88
2, 64081, Note_on_c, 0, 52, 0
2, 64086, Note_on_c, 0, 52, 86
2, 64157, Note_on_c, 0, 64, 0
2, 64157, Note_on_c, 0, 56, 0
2, 64157, Note_on_c, 0, 40, 0
2, 64158, Note_on_c, 0, 52, 0
2, 64158, Control_c, 0, 64, 0
2, 64158, Note_on_c, 0, 68, 0
2, 64158, Note_on_c, 0, 71, 0
2, 64159, Note_on_c, 0, 85, 0
2, 64159, Note_on_c, 0, 83, 0
2, 64159, Note_on_c, 0, 76, 0
2, 64160, Note_on_c, 0, 73, 0
2, 64222, Note_on_c, 0, 81, 110
2, 64224, Note_on_c, 0, 73, 100
2, 64225, Note_on_c, 0, 69, 96
2, 64227, Note_on_c, 0, 49, 96
2, 64229, Note_on_c, 0, 76, 89
2, 64229, Note_on_c, 0, 37, 98
2, 64250, Control_c, 0, 64, 127
2, 64465, Note_on_c, 0, 49, 0
2, 64474, Note_on_c, 0, 49, 63
2, 64609, Note_on_c, 0, 64, 74
2, 64610, Note_on_c, 0, 52, 63
2, 64610, Note_on_c, 0, 57, 72
2, 64727, Note_on_c, 0, 52, 0
2, 64737, Note_on_c, 0, 52, 71
2, 64872, Note_on_c, 0, 69, 0
2, 64884, Note_on_c, 0, 69, 75
2, 64884, Note_on_c, 0, 61, 79
2, 65003, Note_on_c, 0, 57, 0
2, 65008, Note_on_c, 0, 57, 77
2, 65149, Note_on_c, 0, 64, 0
2, 65149, Note_on_c, 0, 69, 0
2, 65149, Note_on_c, 0, 73, 0
2, 65149, Note_on_c, 0, 76, 0
2, 65153, Note_on_c, 0, 73, 95
2, 65153, Note_on_c, 0, 76, 99
2, 65154, Note_on_c, 0, 64, 91
2, 65157, Note_on_c, 0, 69, 75
2, 65256, Note_on_c, 0, 61, 0
2, 65266, Note_on_c, 0, 61, 78
2, 65376, Note_on_c, 0, 69, 0
2, 65376, Note_on_c, 0, 73, 0
2, 65376, Note_on_c, 0, 64, 0
2, 65377, Note_on_c, 0, 49, 0
2, 65377, Note_on_c, 0, 61, 0
2, 65377, Note_on_c, 0, 81, 0
2, 65377, Note_on_c, 0, 76, 0
2, 65380, Control_c, 0, 64, 0
2, 65387, Note_on_c, 0, 37, 0
2, 65395, Note_on_c, 0, 52, 0
2, 65395, Note_on_c, 0, 57, 0
2, 65412, Note_on_c, 0, 86, 108
2, 65415, Note_on_c, 0, 74, 108
2, 65416, Note_on_c, 0, 38, 96
2, 65416, Note_on_c, 0, 78, 106
2, 65472, Control_c, 0, 64, 127
2, 65514, Note_on_c, 0, 45, 67
2, 65667, Note_on_c, 0, 69, 82
2, 65669, Note_on_c, 0, 85, 97
2, 65671, Note_on_c, 0, 57, 89
2, 65674, Note_on_c, 0, 73, 95
2, 65690, Note_on_c, 0, 54, 68
2, 65800, Note_on_c, 0, 83, 107
2, 65805, Note_on_c, 0, 71, 95
2, 65806, Note_on_c, 0, 50, 74
2, 65932, Note_on_c, 0, 57, 0
2, 65936, Note_on_c, 0, 62, 91
2, 65936, Note_on_c, 0, 57, 84
2, 66063, Note_on_c, 0, 54, 0
2, 66063, Note_on_c, 0, 69, 0
2, 66067, Note_on_c, 0, 81, 106
2, 66068, Note_on_c, 0, 54, 88
2, 66070, Note_on_c, 0, 69, 92
2, 66193, Note_on_c, 0, 62, 0
2, 66195, Note_on_c, 0, 66, 100
2, 66202, Note_on_c, 0, 62, 79
2, 66301, Note_on_c, 0, 57, 0
2, 66312, Note_on_c, 0, 57, 61
2, 66339, Note_on_c, 0, 83, 0
2, 66346, Note_on_c, 0, 83, 110
2, 66347, Note_on_c, 0, 71, 0
2, 66347, Note_on_c, 0, 81, 0
2, 66351, Note_on_c, 0, 71, 100
2, 66352, Note_on_c, 0, 80, 102
2, 66354, Note_on_c, 0, 76, 101
2, 66358, Note_on_c, 0, 81, 94
2, 66402, Note_on_c, 0, 69, 0
2, 66403, Note_on_c, 0, 45, 0
2, 66403, Note_on_c, 0, 50, 0
2, 66403, Note_on_c, 0, 62, 0
2, 66403, Note_on_c, 0, 86, 0
2, 66404, Note_on_c, 0, 78, 0
2, 66404, Note_on_c, 0, 57, 0
2, 66404, Note_on_c, 0, 81, 0
2, 66404, Note_on_c, 0, 38, 0
2, 66404, Note_on_c, 0, 54, 0
2, 66404, Note_on_c, 0, 74, 0
2, 66404, Note_on_c, 0, 66, 0
2, 66405, Note_on_c, 0, 73, 0
2, 66405, Note_on_c, 0, 85, 0
2, 66410, Control_c, 0, 64, 0
2, 66452, Note_on_c, 0, 52, 101
2, 66455, Note_on_c, 0, 40, 100
2, 66516, Control_c, 0, 64, 127
2, 66573, Note_on_c, 0, 47, 88
2, 66723, Note_on_c, 0, 64, 85
2, 66727, Note_on_c, 0, 56, 80
2, 66730, Note_on_c, 0, 59, 63
2, 66839, Note_on_c, 0, 64, 0
2, 66846, Note_on_c, 0, 52, 0
2, 66848, Note_on_c, 0, 64, 76
2, 66850, Note_on_c, 0, 52, 73
2, 66984, Note_on_c, 0, 59, 0
2, 66989, Note_on_c, 0, 59, 87
2, 66989, Note_on_c, 0, 68, 99
2, 67115, Note_on_c, 0, 56, 0
2, 67122, Note_on_c, 0, 56, 69
2, 67246, Note_on_c, 0, 47, 0
2, 67246, Note_on_c, 0, 59, 0
2, 67246, Note_on_c, 0, 64, 0
2, 67246, Note_on_c, 0, 68, 0
2, 67246, Note_on_c, 0, 71, 0
2, 67246, Note_on_c, 0, 76, 0
2, 67250, Note_on_c, 0, 76, 106
2, 67251, Note_on_c, 0, 68, 103
2, 67253, Note_on_c, 0, 56, 0
2, 67254, Note_on_c, 0, 71, 87
2, 67255, Note_on_c, 0, 47, 72
2, 67257, Note_on_c, 0, 59, 78
2, 67257, Note_on_c, 0, 64, 97
2, 67260, Note_on_c, 0, 56, 72
2, 67368, Note_on_c, 0, 59, 0
2, 67368, Note_on_c, 0, 71, 0
2, 67368, Note_on_c, 0, 76, 0
2, 67375, Note_on_c, 0, 76, 103
2, 67377, Note_on_c, 0, 59, 83
2, 67377, Note_on_c, 0, 71, 82
2, 67380, Note_on_c, 0, 68, 0
2, 67466, Note_on_c, 0, 47, 0
2, 67466, Note_on_c, 0, 52, 0
2, 67466, Note_on_c, 0, 71, 0
2, 67466, Note_on_c, 0, 56, 0
2, 67467, Note_on_c, 0, 59, 0
2, 67467, Note_on_c, 0, 80, 0
2, 67468, Note_on_c, 0, 76, 0
2, 67474, Control_c, 0, 64, 0
2, 67476, Note_on_c, 0, 40, 0
2, 67476, Note_on_c, 0, 83, 0
2, 67484, Note_on_c, 0, 64, 0
2, 67511, Note_on_c, 0, 85, 108
2, 67512, Note_on_c, 0, 73, 111
2, 67516, Note_on_c, 0, 53, 99
2, 67517, Note_on_c, 0, 77, 93
2, 67517, Note_on_c, 0, 41, 95
2, 67530, Control_c, 0, 64, 127
2, 67760, Note_on_c, 0, 53, 0
2, 67768, Note_on_c, 0, 53, 84
2, 67769, Note_on_c, 0, 83, 105
2, 67774, Note_on_c, 0, 71, 91
2, 67834, Note_on_c, 0, 85, 0
2, 67834, Note_on_c, 0, 73, 0
2, 67835, Note_on_c, 0, 83, 0
2, 67835, Note_on_c, 0, 41, 0
2, 67835, Note_on_c, 0, 71, 0
2, 67837, Control_c, 0, 64, 0
2, 67837, Note_on_c, 0, 53, 0
2, 67852, Note_on_c, 0, 77, 0
2, 67901, Note_on_c, 0, 81, 109
2, 67902, Note_on_c, 0, 69, 99
2, 67902, Note_on_c, 0, 49, 103
2, 67903, Note_on_c, 0, 37, 99
2, 67904, Note_on_c, 0, 73, 96
2, 67929, Control_c, 0, 64, 127
2, 68152, Note_on_c, 0, 73, 0
2, 68156, Note_on_c, 0, 80, 105
2, 68158, Note_on_c, 0, 68, 101
2, 68161, Note_on_c, 0, 73, 99
2, 68164, Note_on_c, 0, 61, 99
2, 68166, Note_on_c, 0, 53, 89
2, 68168, Note_on_c, 0, 56, 86
2, 68297, Control_c, 0, 64, 0
2, 68342, Note_on_c, 0, 80, 0
2, 68342, Note_on_c, 0, 61, 0
2, 68342, Note_on_c, 0, 81, 0
2, 68342, Note_on_c, 0, 68, 0
2, 68342, Note_on_c, 0, 69, 0
2, 68343, Note_on_c, 0, 56, 0
2, 68344, Note_on_c, 0, 73, 0
2, 68344, Note_on_c, 0, 53, 0
2, 68352, Note_on_c, 0, 37, 0
2, 68352, Note_on_c, 0, 49, 0
2, 68418, Note_on_c, 0, 78, 109
2, 68420, Note_on_c, 0, 69, 94
2, 68423, Note_on_c, 0, 73, 99
2, 68456, Note_on_c, 0, 69, 0
2, 68474, Control_c, 0, 64, 127
2, 68558, Note_on_c, 0, 54, 95
2, 68560, Note_on_c, 0, 42, 95
2, 68697, Note_on_c, 0, 66, 84
2, 68701, Note_on_c, 0, 61, 73
2, 68717, Note_on_c, 0, 57, 49
2, 68958, Note_on_c, 0, 54, 0
2, 68958, Note_on_c, 0, 73, 0
2, 68968, Note_on_c, 0, 54, 61
2, 68970, Note_on_c, 0, 73, 58
2, 69089, Note_on_c, 0, 61, 0
2, 69089, Note_on_c, 0, 66, 0
2, 69096, Note_on_c, 0, 57, 0
2, 69098, Note_on_c, 0, 66, 87
2, 69100, Note_on_c, 0, 61, 83
2, 69101, Note_on_c, 0, 57, 69
2, 69350, Note_on_c, 0, 54, 0
2, 69350, Note_on_c, 0, 73, 0
2, 69354, Note_on_c, 0, 73, 98
2, 69354, Note_on_c, 0, 54, 83
2, 69565, Note_on_c, 0, 42, 0
2, 69565, Note_on_c, 0, 54, 0
2, 69565, Note_on_c, 0, 61, 0
2, 69566, Note_on_c, 0, 66, 0
2, 69566, Note_on_c, 0, 73, 0
2, 69566, Note_on_c, 0, 57, 0
2, 69567, Control_c, 0, 64, 0
2, 69573, Note_on_c, 0, 78, 0
2, 69609, Note_on_c, 0, 80, 108
2, 69616, Note_on_c, 0, 52, 96
2, 69616, Note_on_c, 0, 40, 94
2, 69621, Note_on_c, 0, 73, 95
2, 69622, Note_on_c, 0, 76, 93
2, 69657, Control_c, 0, 64, 127
2, 69769, Note_on_c, 0, 68, 79
2, 69775, Note_on_c, 0, 64, 73
2, 69776, Note_on_c, 0, 61, 77
2, 70025, Note_on_c, 0, 56, 86
2, 70156, Note_on_c, 0, 61, 0
2, 70156, Note_on_c, 0, 64, 0
2, 70156, Note_on_c, 0, 68, 0
2, 70162, Note_on_c, 0, 64, 87
2, 70162, Note_on_c, 0, 68, 92
2, 70162, Note_on_c, 0, 61, 80
2, 70410, Note_on_c, 0, 52, 0
2, 70419, Note_on_c, 0, 52, 96
2, 70420, Note_on_c, 0, 81, 102
2, 70556, Note_on_c, 0, 81, 0
2, 70563, Note_on_c, 0, 81, 105
2, 70567, Note_on_c, 0, 74, 98
2, 70567, Note_on_c, 0, 78, 96
2, 70620, Note_on_c, 0, 68, 0
2, 70620, Note_on_c, 0, 52, 0
2, 70620, Note_on_c, 0, 76, 0
2, 70620, Note_on_c, 0, 61, 0
2, 70620, Control_c, 0, 64, 0
2, 70621, Note_on_c, 0, 64, 0
2, 70621, Note_on_c, 0, 73, 0
2, 70621, Note_on_c, 0, 80, 0
2, 70625, Note_on_c, 0, 56, 0
2, 70640, Note_on_c, 0, 40, 0
2, 70689, Note_on_c, 0, 38, 94
2, 70690, Note_on_c, 0, 50, 96
2, 70709, Control_c, 0, 64, 127
2, 70842, Note_on_c, 0, 69, 73
2, 70846, Note_on_c, 0, 66, 84
2, 70849, Note_on_c, 0, 62, 72
2, 71110, Note_on_c, 0, 57, 81
2, 71224, Note_on_c, 0, 62, 0
2, 71224, Note_on_c, 0, 66, 0
2, 71232, Note_on_c, 0, 62, 83
2, 71235, Note_on_c, 0, 66, 99
2, 71239, Note_on_c, 0, 69, 0
2, 71248, Note_on_c, 0, 69, 83
2, 71493, Note_on_c, 0, 38, 0
2, 71493, Note_on_c, 0, 50, 0
2, 71497, Note_on_c, 0, 50, 88
2, 71500, Note_on_c, 0, 38, 80
2, 71500, Note_on_c, 0, 69, 0
2, 71502, Note_on_c, 0, 76, 105
2, 71505, Note_on_c, 0, 69, 80
2, 71727, Note_on_c, 0, 74, 0
2, 71727, Note_on_c, 0, 69, 0
2, 71728, Note_on_c, 0, 57, 0
2, 71728, Note_on_c, 0, 50, 0
2, 71728, Note_on_c, 0, 76, 0
2, 71729, Control_c, 0, 64, 0
2, 71729, Note_on_c, 0, 38, 0
2, 71729, Note_on_c, 0, 78, 0
2, 71738, Note_on_c, 0, 62, 0
2, 71738, Note_on_c, 0, 66, 0
2, 71746, Note_on_c, 0, 81, 0
2, 71756, Note_on_c, 0, 81, 110
2, 71758, Note_on_c, 0, 49, 90
2, 71758, Note_on_c, 0, 37, 89
2, 71764, Note_on_c, 0, 76, 98
2, 71765, Note_on_c, 0, 73, 98
2, 71815, Control_c, 0, 64, 127
2, 71904, Note_on_c, 0, 69, 79
2, 71904, Note_on_c, 0, 64, 82
2, 71905, Note_on_c, 0, 61, 78
2, 72092, Note_on_c, 0, 49, 0
2, 72096, Note_on_c, 0, 49, 53
2, 72145, Note_on_c, 0, 69, 0
2, 72152, Note_on_c, 0, 69, 59
2, 72173, Note_on_c, 0, 57, 74
2, 72291, Note_on_c, 0, 69, 0
2, 72299, Note_on_c, 0, 61, 0
2, 72299, Note_on_c, 0, 64, 0
2, 72303, Note_on_c, 0, 69, 93
2, 72303, Note_on_c, 0, 64, 84
2, 72309, Note_on_c, 0, 61, 84
2, 72537, Note_on_c, 0, 49, 0
2, 72548, Note_on_c, 0, 49, 86
2, 72550, Note_on_c, 0, 83, 104
2, 72683, Note_on_c, 0, 81, 0
2, 72691, Note_on_c, 0, 73, 0
2, 72693, Note_on_c, 0, 85, 109
2, 72694, Note_on_c, 0, 81, 99
2, 72696, Note_on_c, 0, 73, 106
2, 72700, Note_on_c, 0, 78, 101
2, 72741, Note_on_c, 0, 69, 0
2, 72741, Note_on_c, 0, 76, 0
2, 72741, Note_on_c, 0, 61, 0
2, 72741, Note_on_c, 0, 64, 0
2, 72742, Note_on_c, 0, 37, 0
2, 72742, Note_on_c, 0, 83, 0
2, 72742, Control_c, 0, 64, 0
2, 72752, Note_on_c, 0, 57, 0
2, 72760, Note_on_c, 0, 49, 0
2, 72811, Note_on_c, 0, 47, 89
2, 72816, Note_on_c, 0, 35, 78
2, 72829, Control_c, 0, 64, 127
2, 72968, Note_on_c, 0, 62, 69
2, 73103, Note_on_c, 0, 66, 65
2, 73228, Note_on_c, 0, 73, 0
2, 73234, Note_on_c, 0, 73, 72
2, 73234, Note_on_c, 0, 59, 60
2, 73367, Note_on_c, 0, 62, 0
2, 73376, Note_on_c, 0, 62, 58
2, 73474, Note_on_c, 0, 66, 0
2, 73486, Note_on_c, 0, 66, 66
2, 73620, Note_on_c, 0, 73, 0
2, 73625, Note_on_c, 0, 73, 76
2, 73628, Note_on_c, 0, 59, 0
2, 73638, Note_on_c, 0, 59, 64
2, 73643, Note_on_c, 0, 71, 55
2, 73751, Note_on_c, 0, 62, 0
2, 73758, Note_on_c, 0, 62, 60
2, 73889, Note_on_c, 0, 73, 0
2, 73892, Note_on_c, 0, 71, 0
2, 73892, Control_c, 0, 64, 0
2, 73892, Note_on_c, 0, 85, 0
2, 73893, Note_on_c, 0, 47, 0
2, 73893, Note_on_c, 0, 62, 0
2, 73894, Note_on_c, 0, 35, 0
2, 73894, Note_on_c, 0, 78, 0
2, 73898, Note_on_c, 0, 73, 82
2, 73900, Note_on_c, 0, 49, 72
2, 73904, Note_on_c, 0, 66, 0
2, 73904, Note_on_c, 0, 81, 0
2, 73907, Note_on_c, 0, 37, 67
2, 73912, Note_on_c, 0, 59, 0
2, 73996, Control_c, 0, 64, 127
2, 74028, Note_on_c, 0, 64, 63
2, 74157, Note_on_c, 0, 69, 63
2, 74296, Note_on_c, 0, 73, 0
2, 74306, Note_on_c, 0, 73, 72
2, 74312, Note_on_c, 0, 61, 59
2, 74323, Note_on_c, 0, 52, 59
2, 74326, Note_on_c, 0, 57, 54
2, 74426, Note_on_c, 0, 64, 0
2, 74434, Note_on_c, 0, 64, 63
2, 74557, Note_on_c, 0, 69, 0
2, 74563, Note_on_c, 0, 69, 71
2, 74695, Note_on_c, 0, 57, 0
2, 74695, Note_on_c, 0, 61, 0
2, 74695, Note_on_c, 0, 64, 0
2, 74695, Note_on_c, 0, 73, 0
2, 74700, Note_on_c, 0, 61, 68
2, 74703, Note_on_c, 0, 52, 0
2, 74703, Note_on_c, 0, 73, 79
2, 74705, Note_on_c, 0, 64, 65
2, 74706, Note_on_c, 0, 57, 63
2, 74707, Note_on_c, 0, 52, 58
2, 74826, Note_on_c, 0, 64, 0
2, 74834, Note_on_c, 0, 64, 66
2, 74956, Note_on_c, 0, 73, 0
2, 74958, Note_on_c, 0, 52, 0
2, 74958, Note_on_c, 0, 49, 0
2, 74958, Note_on_c, 0, 64, 0
2, 74958, Note_on_c, 0, 61, 0
2, 74959, Note_on_c, 0, 57, 0
2, 74959, Note_on_c, 0, 69, 0
2, 74959, Control_c, 0, 64, 0
2, 74964, Note_on_c, 0, 37, 0
2, 74967, Note_on_c, 0, 73, 80
2, 74970, Note_on_c, 0, 38, 80
2, 74974, Note_on_c, 0, 50, 74
2, 75056, Control_c, 0, 64, 127
2, 75091, Note_on_c, 0, 62, 74
2, 75222, Note_on_c, 0, 66, 70
2, 75348, Note_on_c, 0, 73, 0
2, 75359, Note_on_c, 0, 73, 89
2, 75367, Note_on_c, 0, 69, 61
2, 75367, Note_on_c, 0, 57, 62
2, 75368, Note_on_c, 0, 61, 71
2, 75368, Note_on_c, 0, 54, 62
2, 75486, Note_on_c, 0, 62, 0
2, 75492, Note_on_c, 0, 62, 69
2, 75601, Note_on_c, 0, 66, 0
2, 75610, Note_on_c, 0, 66, 81
2, 75732, Note_on_c, 0, 61, 0
2, 75742, Note_on_c, 0, 61, 87
2, 75744, Note_on_c, 0, 76, 108
2, 75744, Note_on_c, 0, 64, 100
2, 75878, Note_on_c, 0, 66, 0
2, 75882, Note_on_c, 0, 66, 73
2, 75985, Note_on_c, 0, 69, 0
2, 75988, Note_on_c, 0, 66, 0
2, 75988, Control_c, 0, 64, 0
2, 75989, Note_on_c, 0, 62, 0
2, 75989, Note_on_c, 0, 73, 0
2, 75989, Note_on_c, 0, 64, 0
2, 75989, Note_on_c, 0, 76, 0
2, 75989, Note_on_c, 0, 57, 0
2, 75989, Note_on_c, 0, 61, 0
2, 75989, Note_on_c, 0, 50, 0
2, 75989, Note_on_c, 0, 54, 0
2, 75993, Note_on_c, 0, 38, 0
2, 76005, Note_on_c, 0, 81, 109
2, 76009, Note_on_c, 0, 69, 100
2, 76014, Note_on_c, 0, 52, 99
2, 76017, Note_on_c, 0, 40, 99
2, 76055, Control_c, 0, 64, 127
2, 76155, Note_on_c, 0, 47, 85
2, 76262, Note_on_c, 0, 52, 0
2, 76271, Note_on_c, 0, 80, 99
2, 76272, Note_on_c, 0, 52, 81
2, 76274, Note_on_c, 0, 68, 94
2, 76360, Note_on_c, 0, 52, 0
2, 76360, Note_on_c, 0, 81, 0
2, 76360, Note_on_c, 0, 47, 0
2, 76361, Note_on_c, 0, 68, 0
2, 76361, Note_on_c, 0, 80, 0
2, 76367, Control_c, 0, 64, 0
2, 76369, Note_on_c, 0, 40, 0
2, 76369, Note_on_c, 0, 69, 0
2, 76406, Note_on_c, 0, 81, 107
2, 76410, Note_on_c, 0, 41, 97
2, 76410, Note_on_c, 0, 69, 105
2, 76410, Note_on_c, 0, 77, 90
2, 76412, Note_on_c, 0, 29, 101
2, 76438, Note_on_c, 0, 69, 0
2, 76442, Note_on_c, 0, 41, 0
2, 76445, Note_on_c, 0, 77, 0
2, 76469, Note_on_c, 0, 81, 0
2, 76485, Note_on_c, 0, 29, 0
2, 76667, Note_on_c, 0, 83, 107
2, 76673, Note_on_c, 0, 74, 91
2, 76673, Note_on_c, 0, 71, 96
2, 76673, Note_on_c, 0, 79, 90
2, 76678, Note_on_c, 0, 31, 97
2, 76680, Note_on_c, 0, 43, 94
2, 76761, Note_on_c, 0, 43, 0
2, 76763, Note_on_c, 0, 71, 0
2, 76763, Note_on_c, 0, 31, 0
2, 76766, Note_on_c, 0, 79, 0
2, 76769, Note_on_c, 0, 74, 0
2, 76776, Note_on_c, 0, 83, 0
2, 76943, Note_on_c, 0, 81, 105
2, 76948, Note_on_c, 0, 73, 101
2, 76948, Note_on_c, 0, 69, 96
2, 76949, Note_on_c, 0, 76, 101
2, 77081, Note_on_c, 0, 45, 91
2, 77082, Note_on_c, 0, 33, 90
2, 77122, Control_c, 0, 64, 127
2, 77342, Note_on_c, 0, 57, 50
2, 77479, Note_on_c, 0, 52, 47
2, 77614, Note_on_c, 0, 45, 0
2, 77625, Note_on_c, 0, 45, 62
2, 77660, Note_on_c, 0, 52, 0
2, 77664, Note_on_c, 0, 52, 44
2, 77736, Note_on_c, 0, 52, 0
2, 77742, Note_on_c, 0, 52, 51
2, 77867, Note_on_c, 0, 57, 0
2, 77867, Note_on_c, 0, 69, 0
2, 77873, Note_on_c, 0, 57, 52
2, 77873, Note_on_c, 0, 69, 58
2, 77982, Note_on_c, 0, 52, 0
2, 77993, Note_on_c, 0, 52, 58
2, 78118, Note_on_c, 0, 64, 72
2, 78136, Note_on_c, 0, 45, 0
2, 78140, Note_on_c, 0, 45, 58
2, 78151, Note_on_c, 0, 69, 0
2, 78156, Note_on_c, 0, 74, 98
2, 78158, Note_on_c, 0, 69, 64
2, 78282, Note_on_c, 0, 52, 0
2, 78288, Note_on_c, 0, 52, 35
2, 78389, Note_on_c, 0, 57, 0
2, 78401, Note_on_c, 0, 57, 52
2, 78512, Note_on_c, 0, 52, 0
2, 78520, Note_on_c, 0, 45, 0
2, 78521, Note_on_c, 0, 52, 51
2, 78526, Note_on_c, 0, 45, 51
2, 78551, Note_on_c, 0, 73, 0
2, 78561, Note_on_c, 0, 73, 87
2, 78574, Note_on_c, 0, 64, 0
2, 78578, Note_on_c, 0, 64, 71
2, 78689, Note_on_c, 0, 45, 0
2, 78695, Note_on_c, 0, 45, 52
2, 78804, Note_on_c, 0, 52, 0
2, 78809, Note_on_c, 0, 52, 47
2, 78954, Note_on_c, 0, 71, 81
2, 78958, Note_on_c, 0, 45, 0
2, 78958, Note_on_c, 0, 57, 0
2, 78959, Note_on_c, 0, 62, 66
2, 78962, Note_on_c, 0, 68, 66
2, 78963, Note_on_c, 0, 57, 63
2, 78969, Note_on_c, 0, 45, 63
2, 79073, Note_on_c, 0, 52, 0
2, 79083, Note_on_c, 0, 52, 47
2, 79196, Note_on_c, 0, 73, 0
2, 79207, Note_on_c, 0, 73, 87
2, 79215, Note_on_c, 0, 81, 0
2, 79216, Note_on_c, 0, 62, 0
2, 79216, Note_on_c, 0, 71, 0
2, 79216, Note_on_c, 0, 52, 0
2, 79216, Note_on_c, 0, 76, 0
2, 79216, Note_on_c, 0, 68, 0
2, 79216, Control_c, 0, 64, 0
2, 79216, Note_on_c, 0, 57, 0
2, 79217, Note_on_c, 0, 74, 0
2, 79219, Note_on_c, 0, 45, 0
2, 79219, Note_on_c, 0, 64, 0
2, 79219, Note_on_c, 0, 69, 0
2, 79223, Note_on_c, 0, 45, 62
2, 79223, Note_on_c, 0, 64, 64
2, 79229, Note_on_c, 0, 69, 65
2, 79257, Note_on_c, 0, 33, 0
2, 79354, Note_on_c, 0, 52, 58
2, 79395, Control_c, 0, 64, 127
2, 79445, Note_on_c, 0, 57, 41
2, 79511, Note_on_c, 0, 45, 0
2, 79518, Note_on_c, 0, 45, 47
2, 79595, Note_on_c, 0, 52, 0
2, 79600, Note_on_c, 0, 52, 48
2, 79733, Note_on_c, 0, 45, 0
2, 79745, Note_on_c, 0, 45, 45
2, 79872, Note_on_c, 0, 52, 0
2, 79877, Note_on_c, 0, 52, 49
2, 79994, Note_on_c, 0, 57, 0
2, 79998, Note_on_c, 0, 62, 64
2, 80005, Note_on_c, 0, 57, 50
2, 80142, Note_on_c, 0, 61, 75
2, 80142, Control_c, 0, 64, 0
2, 80145, Note_on_c, 0, 62, 0
2, 80148, Note_on_c, 0, 52, 0
2, 80152, Note_on_c, 0, 52, 56
2, 80240, Control_c, 0, 64, 127
2, 80409, Note_on_c, 0, 57, 0
2, 80409, Note_on_c, 0, 64, 0
2, 80413, Note_on_c, 0, 64, 69
2, 80420, Note_on_c, 0, 57, 51
2, 80540, Note_on_c, 0, 61, 0
2, 80540, Note_on_c, 0, 69, 0
2, 80544, Note_on_c, 0, 69, 62
2, 80550, Note_on_c, 0, 61, 59
2, 80670, Note_on_c, 0, 64, 0
2, 80670, Note_on_c, 0, 73, 0
2, 80681, Note_on_c, 0, 64, 57
2, 80682, Note_on_c, 0, 73, 64
2, 80793, Note_on_c, 0, 69, 0
2, 80800, Note_on_c, 0, 69, 55
2, 80804, Note_on_c, 0, 76, 61
2, 80913, Note_on_c, 0, 81, 66
2, 81054, Note_on_c, 0, 76, 0
2, 81059, Note_on_c, 0, 85, 61
2, 81066, Note_on_c, 0, 76, 43
2, 81305, Note_on_c, 0, 81, 0
2, 81305, Note_on_c, 0, 69, 0
2, 81305, Control_c, 0, 64, 0
2, 81305, Note_on_c, 0, 52, 0
2, 81305, Note_on_c, 0, 73, 0
2, 81306, Note_on_c, 0, 64, 0
2, 81306, Note_on_c, 0, 61, 0
2, 81306, Note_on_c, 0, 76, 0
2, 81307, Note_on_c, 0, 85, 0
2, 81323, Note_on_c, 0, 57, 0
2, 81328, Note_on_c, 0, 88, 75
2, 81331, Note_on_c, 0, 45, 0
2, 81334, Note_on_c, 0, 57, 53
2, 81342, Note_on_c, 0, 81, 41
2, 81342, Note_on_c, 0, 76, 46
2, 81346, Note_on_c, 0, 81, 0
2, 81348, Note_on_c, 0, 85, 46
2, 81408, Control_c, 0, 64, 127
2, 81415, Note_on_c, 0, 76, 0
2, 81423, Note_on_c, 0, 85, 0
2, 81461, Note_on_c, 0, 88, 0
2, 81465, Note_on_c, 0, 88, 60
2, 81472, Note_on_c, 0, 76, 45
2, 81473, Note_on_c, 0, 64, 53
2, 81576, Note_on_c, 0, 88, 0
2, 81588, Note_on_c, 0, 88, 75
2, 81589, Note_on_c, 0, 69, 55
2, 81722, Note_on_c, 0, 88, 0
2, 81731, Note_on_c, 0, 73, 52
2, 81732, Note_on_c, 0, 88, 64
2, 81861, Note_on_c, 0, 88, 0
2, 81865, Note_on_c, 0, 88, 79
2, 81876, Note_on_c, 0, 76, 0
2, 81885, Note_on_c, 0, 76, 46
2, 82268, Note_on_c, 0, 88, 0
2, 82276, Note_on_c, 0, 88, 74
2, 82386, Note_on_c, 0, 69, 0
2, 82387, Control_c, 0, 64, 0
2, 82387, Note_on_c, 0, 57, 0
2, 82387, Note_on_c, 0, 64, 0
2, 82398, Note_on_c, 0, 88, 0
2, 82406, Note_on_c, 0, 73, 0
2, 82406, Note_on_c, 0, 76, 0
2, 82408, Note_on_c, 0, 88, 76
2, 82411, Note_on_c, 0, 52, 52
2, 82413, Note_on_c, 0, 76, 56
2, 82438, Note_on_c, 0, 80, 51
2, 82467, Control_c, 0, 64, 127
2, 82529, Note_on_c, 0, 88, 0
2, 82536, Note_on_c, 0, 88, 72
2, 82536, Note_on_c, 0, 76, 0
2, 82541, Note_on_c, 0, 59, 53
2, 82546, Note_on_c, 0, 76, 53
2, 82671, Note_on_c, 0, 86, 71
2, 82671, Note_on_c, 0, 64, 56
2, 82799, Note_on_c, 0, 85, 74
2, 82801, Note_on_c, 0, 68, 65
2, 83066, Note_on_c, 0, 76, 0
2, 83070, Note_on_c, 0, 83, 73
2, 83071, Note_on_c, 0, 76, 42
2, 83189, Note_on_c, 0, 52, 0
2, 83196, Note_on_c, 0, 52, 56
2, 83320, Note_on_c, 0, 83, 0
2, 83331, Note_on_c, 0, 83, 70
2, 83432, Control_c, 0, 64, 0
2, 83434, Note_on_c, 0, 88, 0
2, 83434, Note_on_c, 0, 68, 0
2, 83436, Note_on_c, 0, 86, 0
2, 83436, Note_on_c, 0, 76, 0
2, 83436, Note_on_c, 0, 59, 0
2, 83436, Note_on_c, 0, 80, 0
2, 83436, Note_on_c, 0, 64, 0
2, 83436, Note_on_c, 0, 52, 0
2, 83450, Note_on_c, 0, 85, 0
2, 83458, Note_on_c, 0, 83, 0
2, 83459, Note_on_c, 0, 85, 80
2, 83468, Note_on_c, 0, 81, 53
2, 83483, Note_on_c, 0, 50, 57
2, 83491, Note_on_c, 0, 78, 45
2, 83543, Control_c, 0, 64, 127
2, 83581, Note_on_c, 0, 85, 0
2, 83590, Note_on_c, 0, 85, 67
2, 83618, Note_on_c, 0, 57, 50
2, 83719, Note_on_c, 0, 85, 0
2, 83729, Note_on_c, 0, 85, 74
2, 83731, Note_on_c, 0, 62, 54
2, 83842, Note_on_c, 0, 85, 0
2, 83847, Note_on_c, 0, 85, 70
2, 83869, Note_on_c, 0, 66, 56
2, 83988, Note_on_c, 0, 85, 0
2, 83992, Note_on_c, 0, 85, 70
2, 84000, Note_on_c, 0, 69, 54
2, 84395, Note_on_c, 0, 85, 0
2, 84403, Note_on_c, 0, 85, 74
2, 84514, Note_on_c, 0, 69, 0
2, 84514, Note_on_c, 0, 78, 0
2, 84514, Note_on_c, 0, 62, 0
2, 84515, Control_c, 0, 64, 0
2, 84515, Note_on_c, 0, 66, 0
2, 84518, Note_on_c, 0, 81, 0
2, 84526, Note_on_c, 0, 50, 0
2, 84526, Note_on_c, 0, 85, 0
2, 84533, Note_on_c, 0, 57, 0
2, 84535, Note_on_c, 0, 85, 82
2, 84542, Note_on_c, 0, 57, 57
2, 84557, Note_on_c, 0, 76, 52
2, 84610, Control_c, 0, 64, 127
2, 84664, Note_on_c, 0, 85, 0
2, 84669, Note_on_c, 0, 85, 76
2, 84673, Note_on_c, 0, 64, 63
2, 84793, Note_on_c, 0, 86, 80
2, 84798, Note_on_c, 0, 69, 61
2, 84917, Note_on_c, 0, 85, 0
2, 84923, Note_on_c, 0, 85, 81
2, 85005, Note_on_c, 0, 69, 0
2, 85005, Note_on_c, 0, 64, 0
2, 85006, Note_on_c, 0, 57, 0
2, 85006, Note_on_c, 0, 76, 0
2, 85007, Control_c, 0, 64, 0
2, 85053, Note_on_c, 0, 56, 67
2, 85102, Control_c, 0, 64, 127
2, 85190, Note_on_c, 0, 83, 72
2, 85191, Note_on_c, 0, 64, 61
2, 85319, Note_on_c, 0, 71, 61
2, 85565, Control_c, 0, 64, 0
2, 85565, Note_on_c, 0, 56, 0
2, 85566, Note_on_c, 0, 64, 0
2, 85566, Note_on_c, 0, 71, 0
2, 85568, Note_on_c, 0, 83, 0
2, 85574, Note_on_c, 0, 81, 77
2, 85578, Note_on_c, 0, 85, 0
2, 85585, Note_on_c, 0, 86, 0
2, 85589, Note_on_c, 0, 54, 51
2, 85651, Note_on_c, 0, 83, 83
2, 85662, Control_c, 0, 64, 127
2, 85708, Note_on_c, 0, 81, 0
2, 85718, Note_on_c, 0, 81, 71
2, 85790, Note_on_c, 0, 80, 73
2, 85831, Note_on_c, 0, 81, 0
2, 85836, Note_on_c, 0, 81, 76
2, 85847, Note_on_c, 0, 61, 67
2, 85900, Note_on_c, 0, 80, 0
2, 85907, Note_on_c, 0, 80, 81
2, 85990, Note_on_c, 0, 69, 68
2, 85995, Note_on_c, 0, 66, 62
2, 86054, Note_on_c, 0, 83, 0
2, 86059, Note_on_c, 0, 83, 83
2, 86127, Note_on_c, 0, 85, 76
2, 86182, Note_on_c, 0, 86, 88
2, 86238, Note_on_c, 0, 61, 0
2, 86238, Note_on_c, 0, 85, 0
2, 86245, Note_on_c, 0, 61, 69
2, 86249, Note_on_c, 0, 85, 66
2, 86307, Note_on_c, 0, 83, 0
2, 86315, Note_on_c, 0, 83, 81
2, 86369, Note_on_c, 0, 85, 0
2, 86373, Note_on_c, 0, 85, 80
2, 86384, Note_on_c, 0, 69, 0
2, 86392, Note_on_c, 0, 66, 0
2, 86394, Note_on_c, 0, 69, 65
2, 86396, Note_on_c, 0, 66, 66
2, 86430, Note_on_c, 0, 83, 0
2, 86440, Note_on_c, 0, 83, 87
2, 86499, Note_on_c, 0, 85, 0
2, 86505, Note_on_c, 0, 85, 76
2, 86553, Note_on_c, 0, 86, 0
2, 86562, Note_on_c, 0, 86, 92
2, 86607, Note_on_c, 0, 54, 0
2, 86613, Control_c, 0, 64, 0
2, 86617, Note_on_c, 0, 69, 0
2, 86617, Note_on_c, 0, 81, 0
2, 86618, Note_on_c, 0, 80, 0
2, 86618, Note_on_c, 0, 66, 0
2, 86618, Note_on_c, 0, 85, 0
2, 86618, Note_on_c, 0, 61, 0
2, 86619, Note_on_c, 0, 86, 0
2, 86632, Note_on_c, 0, 87, 97
2, 86634, Note_on_c, 0, 59, 79
2, 86638, Note_on_c, 0, 83, 0
2, 86707, Note_on_c, 0, 88, 82
2, 86714, Control_c, 0, 64, 127
2, 86768, Note_on_c, 0, 87, 0
2, 86777, Note_on_c, 0, 87, 77
2, 86834, Note_on_c, 0, 85, 82
2, 86899, Note_on_c, 0, 87, 0
2, 86906, Note_on_c, 0, 66, 78
2, 86909, Note_on_c, 0, 87, 89
2, 86960, Note_on_c, 0, 85, 0
2, 86967, Note_on_c, 0, 85, 92
2, 87006, Note_on_c, 0, 87, 0
2, 87010, Note_on_c, 0, 87, 71
2, 87050, Note_on_c, 0, 71, 70
2, 87051, Note_on_c, 0, 75, 73
2, 87075, Note_on_c, 0, 88, 0
2, 87086, Note_on_c, 0, 88, 85
2, 87152, Note_on_c, 0, 90, 99
2, 87213, Note_on_c, 0, 92, 96
2, 87244, Note_on_c, 0, 66, 0
2, 87252, Note_on_c, 0, 66, 72
2, 87283, Note_on_c, 0, 90, 0
2, 87294, Note_on_c, 0, 90, 83
2, 87352, Note_on_c, 0, 88, 0
2, 87360, Note_on_c, 0, 88, 81
2, 87406, Note_on_c, 0, 71, 0
2, 87406, Note_on_c, 0, 90, 0
2, 87413, Note_on_c, 0, 75, 0
2, 87417, Note_on_c, 0, 90, 91
2, 87417, Note_on_c, 0, 71, 81
2, 87422, Note_on_c, 0, 75, 75
2, 87422, Note_on_c, 0, 87, 0
2, 87498, Note_on_c, 0, 88, 0
2, 87506, Note_on_c, 0, 88, 82
2, 87552, Note_on_c, 0, 90, 0
2, 87558, Note_on_c, 0, 90, 90
2, 87605, Note_on_c, 0, 92, 0
2, 87615, Note_on_c, 0, 92, 86
2, 87642, Note_on_c, 0, 90, 0
2, 87643, Control_c, 0, 64, 0
2, 87643, Note_on_c, 0, 85, 0
2, 87643, Note_on_c, 0, 88, 0
2, 87645, Note_on_c, 0, 59, 0
2, 87645, Note_on_c, 0, 66, 0
2, 87647, Note_on_c, 0, 75, 0
2, 87659, Note_on_c, 0, 71, 0
2, 87677, Note_on_c, 0, 93, 101
2, 87677, Note_on_c, 0, 50, 83
2, 87678, Note_on_c, 0, 62, 83
2, 87690, Note_on_c, 0, 92, 0
2, 87712, Note_on_c, 0, 50, 0
2, 87736, Control_c, 0, 64, 127
2, 87745, Note_on_c, 0, 92, 68
2, 87806, Note_on_c, 0, 90, 84
2, 87868, Note_on_c, 0, 88, 88
2, 87936, Note_on_c, 0, 92, 0
2, 87946, Note_on_c, 0, 66, 81
2, 87947, Note_on_c, 0, 92, 93
2, 87997, Note_on_c, 0, 90, 0
2, 88001, Note_on_c, 0, 90, 83
2, 88051, Note_on_c, 0, 88, 0
2, 88056, Note_on_c, 0, 88, 82
2, 88091, Note_on_c, 0, 74, 71
2, 88092, Note_on_c, 0, 69, 65
2, 88125, Note_on_c, 0, 86, 80
2, 88181, Note_on_c, 0, 90, 0
2, 88192, Note_on_c, 0, 90, 91
2, 88243, Note_on_c, 0, 88, 0
2, 88247, Note_on_c, 0, 88, 81
2, 88304, Note_on_c, 0, 86, 0
2, 88308, Note_on_c, 0, 86, 84
2, 88335, Note_on_c, 0, 66, 0
2, 88345, Note_on_c, 0, 66, 74
2, 88377, Note_on_c, 0, 85, 78
2, 88424, Note_on_c, 0, 83, 87
2, 88442, Note_on_c, 0, 69, 0
2, 88442, Note_on_c, 0, 74, 0
2, 88450, Note_on_c, 0, 74, 72
2, 88453, Note_on_c, 0, 69, 62
2, 88485, Note_on_c, 0, 81, 87
2, 88554, Note_on_c, 0, 93, 0
2, 88554, Note_on_c, 0, 92, 0
2, 88554, Note_on_c, 0, 86, 0
2, 88554, Note_on_c, 0, 74, 0
2, 88555, Note_on_c, 0, 83, 0
2, 88555, Note_on_c, 0, 85, 0
2, 88556, Note_on_c, 0, 66, 0
2, 88556, Note_on_c, 0, 81, 0
2, 88557, Control_c, 0, 64, 0
2, 88573, Note_on_c, 0, 62, 0
2, 88573, Note_on_c, 0, 69, 0
2, 88573, Note_on_c, 0, 88, 0
2, 88581, Note_on_c, 0, 90, 0
2, 88584, Note_on_c, 0, 88, 104
2, 88592, Note_on_c, 0, 80, 94
2, 88597, Note_on_c, 0, 76, 91
2, 88599, Note_on_c, 0, 64, 91
2, 88599, Note_on_c, 0, 52, 89
2, 88642, Control_c, 0, 64, 127
2, 88842, Note_on_c, 0, 76, 0
2, 88851, Note_on_c, 0, 76, 84
2, 88882, Note_on_c, 0, 71, 71
2, 88945, Note_on_c, 0, 69, 81
2, 89057, Note_on_c, 0, 64, 0
2, 89067, Note_on_c, 0, 64, 77
2, 89110, Note_on_c, 0, 59, 64
2, 89150, Note_on_c, 0, 57, 68
2, 89197, Note_on_c, 0, 56, 60
2, 89272, Note_on_c, 0, 52, 0
2, 89283, Note_on_c, 0, 52, 59
2, 89346, Note_on_c, 0, 47, 71
2, 89419, Note_on_c, 0, 71, 0
2, 89422, Note_on_c, 0, 64, 0
2, 89422, Note_on_c, 0, 69, 0
2, 89422, Control_c, 0, 64, 0
2, 89422, Note_on_c, 0, 57, 0
2, 89423, Note_on_c, 0, 76, 0
2, 89424, Note_on_c, 0, 56, 0
2, 89424, Note_on_c, 0, 59, 0
2, 89425, Note_on_c, 0, 80, 0
2, 89428, Note_on_c, 0, 40, 82
2, 89430, Note_on_c, 0, 88, 0
2, 89431, Note_on_c, 0, 47, 0
2, 89441, Note_on_c, 0, 52, 0
2, 89548, Note_on_c, 0, 40, 0
2, 89702, Note_on_c, 0, 64, 98
2, 89705, Note_on_c, 0, 45, 80
2, 89740, Control_c, 0, 64, 127
2, 89797, Note_on_c, 0, 52, 58
2, 89886, Note_on_c, 0, 57, 67
2, 89960, Note_on_c, 0, 61, 75
2, 89969, Note_on_c, 0, 88, 73
2, 90020, Note_on_c, 0, 85, 78
2, 90083, Note_on_c, 0, 81, 78
2, 90157, Note_on_c, 0, 76, 56
2, 90221, Note_on_c, 0, 61, 0
2, 90221, Note_on_c, 0, 81, 0
2, 90221, Note_on_c, 0, 57, 0
2, 90221, Note_on_c, 0, 52, 0
2, 90222, Note_on_c, 0, 88, 0
2, 90222, Note_on_c, 0, 85, 0
2, 90223, Note_on_c, 0, 76, 0
2, 90224, Note_on_c, 0, 45, 0
2, 90224, Note_on_c, 0, 64, 0
2, 90226, Control_c, 0, 64, 0
2, 90232, Note_on_c, 0, 64, 100
2, 90233, Note_on_c, 0, 45, 78
2, 90278, Control_c, 0, 64, 127
2, 90309, Note_on_c, 0, 52, 75
2, 90419, Note_on_c, 0, 57, 69
2, 90489, Note_on_c, 0, 88, 82
2, 90490, Note_on_c, 0, 61, 71
2, 90548, Note_on_c, 0, 85, 82
2, 90606, Note_on_c, 0, 81, 77
2, 90666, Note_on_c, 0, 76, 69
2, 90715, Note_on_c, 0, 45, 0
2, 90717, Note_on_c, 0, 61, 0
2, 90718, Note_on_c, 0, 81, 0
2, 90718, Note_on_c, 0, 88, 0
2, 90718, Note_on_c, 0, 57, 0
2, 90718, Note_on_c, 0, 85, 0
2, 90718, Note_on_c, 0, 52, 0
2, 90719, Control_c, 0, 64, 0
2, 90719, Note_on_c, 0, 76, 0
2, 90739, Note_on_c, 0, 64, 0
2, 90743, Note_on_c, 0, 64, 101
2, 90743, Note_on_c, 0, 40, 81
2, 90777, Control_c, 0, 64, 127
2, 90833, Note_on_c, 0, 47, 84
2, 90885, Note_on_c, 0, 47, 0
2, 90896, Note_on_c, 0, 47, 68
2, 90925, Note_on_c, 0, 56, 74
2, 91012, Note_on_c, 0, 88, 91
2, 91012, Note_on_c, 0, 62, 97
2, 91081, Note_on_c, 0, 83, 76
2, 91133, Note_on_c, 0, 80, 78
2, 91204, Note_on_c, 0, 76, 62
2, 91242, Note_on_c, 0, 47, 0
2, 91242, Note_on_c, 0, 62, 0
2, 91242, Note_on_c, 0, 83, 0
2, 91242, Note_on_c, 0, 64, 0
2, 91242, Note_on_c, 0, 56, 0
2, 91242, Note_on_c, 0, 80, 0
2, 91243, Note_on_c, 0, 88, 0
2, 91243, Note_on_c, 0, 76, 0
2, 91247, Control_c, 0, 64, 0
2, 91253, Note_on_c, 0, 40, 0
2, 91270, Note_on_c, 0, 61, 103
2, 91285, Note_on_c, 0, 41, 73
2, 91315, Control_c, 0, 64, 127
2, 91382, Note_on_c, 0, 49, 66
2, 91453, Note_on_c, 0, 53, 68
2, 91527, Note_on_c, 0, 86, 82
2, 91532, Note_on_c, 0, 59, 93
2, 91534, Note_on_c, 0, 83, 76
2, 91591, Note_on_c, 0, 83, 0
2, 91596, Note_on_c, 0, 83, 76
2, 91649, Note_on_c, 0, 80, 65
2, 91692, Note_on_c, 0, 74, 77
2, 91759, Note_on_c, 0, 83, 0
2, 91759, Note_on_c, 0, 49, 0
2, 91759, Note_on_c, 0, 80, 0
2, 91759, Note_on_c, 0, 53, 0
2, 91760, Note_on_c, 0, 61, 0
2, 91760, Note_on_c, 0, 59, 0
2, 91761, Note_on_c, 0, 74, 0
2, 91761, Control_c, 0, 64, 0
2, 91776, Note_on_c, 0, 41, 0
2, 91783, Note_on_c, 0, 86, 0
2, 91789, Note_on_c, 0, 61, 103
2, 91793, Note_on_c, 0, 42, 84
2, 91837, Control_c, 0, 64, 127
2, 91872, Note_on_c, 0, 49, 39
2, 91952, Note_on_c, 0, 42, 0
2, 91961, Note_on_c, 0, 42, 67
2, 91961, Note_on_c, 0, 48, 59
2, 91968, Note_on_c, 0, 48, 0
2, 92041, Note_on_c, 0, 57, 84
2, 92057, Note_on_c, 0, 85, 89
2, 92117, Note_on_c, 0, 81, 67
2, 92156, Note_on_c, 0, 78, 76
2, 92223, Note_on_c, 0, 73, 66
2, 92284, Note_on_c, 0, 49, 0
2, 92286, Note_on_c, 0, 73, 0
2, 92286, Note_on_c, 0, 85, 0
2, 92286, Note_on_c, 0, 42, 0
2, 92286, Note_on_c, 0, 78, 0
2, 92286, Note_on_c, 0, 81, 0
2, 92287, Note_on_c, 0, 57, 0
2, 92290, Control_c, 0, 64, 0
2, 92298, Note_on_c, 0, 61, 0
2, 92307, Note_on_c, 0, 61, 96
2, 92308, Note_on_c, 0, 40, 78
2, 92359, Control_c, 0, 64, 127
2, 92408, Note_on_c, 0, 49, 71
2, 92505, Note_on_c, 0, 52, 62
2, 92569, Note_on_c, 0, 85, 89
2, 92570, Note_on_c, 0, 56, 80
2, 92624, Note_on_c, 0, 80, 70
2, 92636, Note_on_c, 0, 61, 0
2, 92674, Note_on_c, 0, 49, 0
2, 92684, Note_on_c, 0, 49, 57
2, 92695, Note_on_c, 0, 76, 69
2, 92737, Note_on_c, 0, 73, 65
2, 92800, Note_on_c, 0, 80, 0
2, 92800, Note_on_c, 0, 56, 0
2, 92800, Note_on_c, 0, 49, 0
2, 92801, Note_on_c, 0, 85, 0
2, 92801, Note_on_c, 0, 73, 0
2, 92801, Control_c, 0, 64, 0
2, 92801, Note_on_c, 0, 76, 0
2, 92801, Note_on_c, 0, 52, 0
2, 92812, Note_on_c, 0, 40, 0
2, 92832, Note_on_c, 0, 61, 98
2, 92838, Note_on_c, 0, 39, 80
2, 92866, Control_c, 0, 64, 127
2, 92922, Note_on_c, 0, 47, 76
2, 92981, Note_on_c, 0, 47, 0
2, 92985, Note_on_c, 0, 47, 77
2, 92987, Note_on_c, 0, 54, 77
2, 93087, Note_on_c, 0, 85, 86
2, 93090, Note_on_c, 0, 62, 102
2, 93155, Note_on_c, 0, 81, 65
2, 93206, Note_on_c, 0, 78, 72
2, 93235, Note_on_c, 0, 54, 0
2, 93238, Note_on_c, 0, 73, 70
2, 93240, Note_on_c, 0, 54, 53
2, 93321, Note_on_c, 0, 81, 0
2, 93322, Note_on_c, 0, 54, 0
2, 93322, Note_on_c, 0, 47, 0
2, 93322, Note_on_c, 0, 73, 0
2, 93322, Note_on_c, 0, 85, 0
2, 93322, Note_on_c, 0, 78, 0
2, 93322, Note_on_c, 0, 62, 0
2, 93325, Control_c, 0, 64, 0
2, 93342, Note_on_c, 0, 61, 0
2, 93350, Note_on_c, 0, 39, 0
2, 93353, Note_on_c, 0, 61, 94
2, 93357, Note_on_c, 0, 39, 75
2, 93396, Control_c, 0, 64, 127
2, 93433, Note_on_c, 0, 47, 67
2, 93492, Note_on_c, 0, 54, 76
2, 93542, Note_on_c, 0, 54, 0
2, 93553, Note_on_c, 0, 54, 63
2, 93606, Note_on_c, 0, 59, 94
2, 93683, Note_on_c, 0, 47, 0
2, 93730, Note_on_c, 0, 75, 70
2, 93761, Note_on_c, 0, 71, 74
2, 93803, Note_on_c, 0, 54, 0
2, 93808, Note_on_c, 0, 54, 52
2, 93836, Note_on_c, 0, 71, 0
2, 93837, Note_on_c, 0, 39, 0
2, 93837, Control_c, 0, 64, 0
2, 93837, Note_on_c, 0, 59, 0
2, 93837, Note_on_c, 0, 75, 0
2, 93838, Note_on_c, 0, 61, 0
2, 93857, Note_on_c, 0, 54, 0
2, 93867, Note_on_c, 0, 69, 88
2, 93868, Note_on_c, 0, 57, 96
2, 93876, Note_on_c, 0, 38, 70
2, 93911, Control_c, 0, 64, 127
2, 93952, Note_on_c, 0, 45, 66
2, 94046, Note_on_c, 0, 50, 63
2, 94128, Note_on_c, 0, 54, 74
2, 94129, Note_on_c, 0, 81, 87
2, 94199, Note_on_c, 0, 78, 68
2, 94210, Note_on_c, 0, 54, 0
2, 94221, Note_on_c, 0, 54, 59
2, 94234, Note_on_c, 0, 74, 81
2, 94287, Note_on_c, 0, 69, 0
2, 94291, Note_on_c, 0, 69, 73
2, 94318, Note_on_c, 0, 50, 0
2, 94321, Note_on_c, 0, 50, 48
2, 94352, Note_on_c, 0, 81, 0
2, 94352, Control_c, 0, 64, 0
2, 94353, Note_on_c, 0, 57, 0
2, 94353, Note_on_c, 0, 69, 0
2, 94353, Note_on_c, 0, 74, 0
2, 94353, Note_on_c, 0, 45, 0
2, 94353, Note_on_c, 0, 78, 0
2, 94353, Note_on_c, 0, 54, 0
2, 94379, Note_on_c, 0, 38, 0
2, 94385, Note_on_c, 0, 61, 92
2, 94390, Note_on_c, 0, 38, 68
2, 94425, Control_c, 0, 64, 127
2, 94433, Note_on_c, 0, 50, 0
2, 94463, Note_on_c, 0, 45, 69
2, 94557, Note_on_c, 0, 50, 64
2, 94561, Note_on_c, 0, 48, 50
2, 94571, Note_on_c, 0, 48, 0
2, 94641, Note_on_c, 0, 85, 81
2, 94644, Note_on_c, 0, 54, 70
2, 94693, Note_on_c, 0, 81, 72
2, 94758, Note_on_c, 0, 78, 76
2, 94815, Note_on_c, 0, 74, 69
2, 94874, Control_c, 0, 64, 0
2, 94876, Note_on_c, 0, 45, 0
2, 94876, Note_on_c, 0, 81, 0
2, 94876, Note_on_c, 0, 54, 0
2, 94876, Note_on_c, 0, 78, 0
2, 94876, Note_on_c, 0, 85, 0
2, 94877, Note_on_c, 0, 50, 0
2, 94877, Note_on_c, 0, 38, 0
2, 94878, Note_on_c, 0, 74, 0
2, 94878, Note_on_c, 0, 61, 0
2, 94892, Note_on_c, 0, 64, 102
2, 94923, Note_on_c, 0, 37, 69
2, 94932, Control_c, 0, 64, 127
2, 94988, Note_on_c, 0, 45, 79
2, 95074, Note_on_c, 0, 52, 68
2, 95155, Note_on_c, 0, 45, 0
2, 95159, Note_on_c, 0, 45, 65
2, 95165, Note_on_c, 0, 88, 77
2, 95167, Note_on_c, 0, 57, 78
2, 95208, Note_on_c, 0, 85, 80
2, 95224, Note_on_c, 0, 52, 0
2, 95231, Note_on_c, 0, 52, 45
2, 95259, Note_on_c, 0, 81, 84
2, 95321, Note_on_c, 0, 76, 70
2, 95377, Note_on_c, 0, 81, 0
2, 95378, Note_on_c, 0, 52, 0
2, 95379, Note_on_c, 0, 85, 0
2, 95380, Note_on_c, 0, 88, 0
2, 95380, Note_on_c, 0, 45, 0
2, 95380, Note_on_c, 0, 57, 0
2, 95380, Control_c, 0, 64, 0
2, 95380, Note_on_c, 0, 76, 0
2, 95393, Note_on_c, 0, 64, 0
2, 95405, Note_on_c, 0, 61, 100
2, 95431, Note_on_c, 0, 37, 0
2, 95435, Note_on_c, 0, 37, 52
2, 95439, Control_c, 0, 64, 127
2, 95502, Note_on_c, 0, 45, 49
2, 95554, Note_on_c, 0, 45, 0
2, 95560, Note_on_c, 0, 45, 58
2, 95616, Note_on_c, 0, 52, 57
2, 95680, Note_on_c, 0, 85, 82
2, 95682, Note_on_c, 0, 57, 85
2, 95728, Note_on_c, 0, 81, 51
2, 95793, Note_on_c, 0, 76, 74
2, 95831, Note_on_c, 0, 45, 0
2, 95831, Note_on_c, 0, 73, 58
2, 95838, Note_on_c, 0, 45, 44
2, 95911, Note_on_c, 0, 76, 0
2, 95911, Note_on_c, 0, 52, 0
2, 95911, Note_on_c, 0, 45, 0
2, 95911, Note_on_c, 0, 81, 0
2, 95911, Note_on_c, 0, 73, 0
2, 95911, Note_on_c, 0, 85, 0
2, 95911, Note_on_c, 0, 37, 0
2, 95911, Note_on_c, 0, 57, 0
2, 95911, Control_c, 0, 64, 0
2, 95911, Note_on_c, 0, 61, 0
2, 95927, Note_on_c, 0, 59, 95
2, 95934, Note_on_c, 0, 38, 76
2, 95976, Control_c, 0, 64, 127
2, 96008, Note_on_c, 0, 45, 65
2, 96089, Note_on_c, 0, 50, 69
2, 96168, Note_on_c, 0, 45, 0
2, 96173, Note_on_c, 0, 54, 70
2, 96176, Note_on_c, 0, 45, 71
2, 96188, Note_on_c, 0, 83, 84
2, 96253, Note_on_c, 0, 50, 0
2, 96256, Note_on_c, 0, 78, 75
2, 96258, Note_on_c, 0, 50, 54
2, 96304, Note_on_c, 0, 74, 84
2, 96339, Note_on_c, 0, 47, 59
2, 96344, Note_on_c, 0, 71, 74
2, 96401, Note_on_c, 0, 83, 0
2, 96401, Note_on_c, 0, 50, 0
2, 96401, Note_on_c, 0, 45, 0
2, 96401, Note_on_c, 0, 71, 0
2, 96401, Note_on_c, 0, 78, 0
2, 96402, Note_on_c, 0, 47, 0
2, 96402, Note_on_c, 0, 74, 0
2, 96402, Note_on_c, 0, 59, 0
2, 96402, Note_on_c, 0, 54, 0
2, 96404, Control_c, 0, 64, 0
2, 96414, Note_on_c, 0, 38, 0
2, 96433, Note_on_c, 0, 61, 100
2, 96442, Note_on_c, 0, 38, 72
2, 96476, Control_c, 0, 64, 127
2, 96508, Note_on_c, 0, 45, 65
2, 96588, Note_on_c, 0, 50, 71
2, 96590, Note_on_c, 0, 48, 58
2, 96679, Note_on_c, 0, 85, 85
2, 96681, Note_on_c, 0, 42, 59
2, 96734, Note_on_c, 0, 81, 71
2, 96744, Note_on_c, 0, 48, 0
2, 96800, Note_on_c, 0, 78, 72
2, 96855, Note_on_c, 0, 74, 63
2, 96920, Note_on_c, 0, 45, 0
2, 96920, Note_on_c, 0, 81, 0
2, 96921, Note_on_c, 0, 61, 0
2, 96922, Control_c, 0, 64, 0
2, 96922, Note_on_c, 0, 78, 0
2, 96923, Note_on_c, 0, 85, 0
2, 96924, Note_on_c, 0, 38, 0
2, 96924, Note_on_c, 0, 74, 0
2, 96929, Note_on_c, 0, 42, 0
2, 96932, Note_on_c, 0, 71, 87
2, 96933, Note_on_c, 0, 40, 84
2, 96933, Note_on_c, 0, 59, 93
2, 96936, Note_on_c, 0, 50, 0
2, 96990, Control_c, 0, 64, 127
2, 97009, Note_on_c, 0, 47, 78
2, 97098, Note_on_c, 0, 40, 0
2, 97102, Note_on_c, 0, 52, 65
2, 97103, Note_on_c, 0, 40, 66
2, 97176, Note_on_c, 0, 56, 78
2, 97203, Note_on_c, 0, 83, 81
2, 97258, Note_on_c, 0, 80, 80
2, 97312, Note_on_c, 0, 76, 77
2, 97344, Note_on_c, 0, 71, 0
2, 97354, Note_on_c, 0, 71, 76
2, 97415, Note_on_c, 0, 47, 0
2, 97416, Note_on_c, 0, 83, 0
2, 97416, Note_on_c, 0, 80, 0
2, 97416, Note_on_c, 0, 56, 0
2, 97416, Note_on_c, 0, 71, 0
2, 97416, Note_on_c, 0, 52, 0
2, 97416, Note_on_c, 0, 59, 0
2, 97416, Control_c, 0, 64, 0
2, 97417, Note_on_c, 0, 76, 0
2, 97436, Note_on_c, 0, 40, 0
2, 97442, Note_on_c, 0, 40, 72
2, 97442, Note_on_c, 0, 69, 89
2, 97443, Note_on_c, 0, 57, 96
2, 97474, Control_c, 0, 64, 127
2, 97532, Note_on_c, 0, 47, 69
2, 97630, Note_on_c, 0, 52, 68
2, 97702, Note_on_c, 0, 81, 82
2, 97709, Note_on_c, 0, 56, 75
2, 97747, Note_on_c, 0, 80, 74
2, 97840, Note_on_c, 0, 71, 77
2, 97937, Note_on_c, 0, 52, 0
2, 97937, Note_on_c, 0, 81, 0
2, 97938, Note_on_c, 0, 47, 0
2, 97938, Note_on_c, 0, 80, 0
2, 97938, Note_on_c, 0, 71, 0
2, 97938, Note_on_c, 0, 56, 0
2, 97938, Note_on_c, 0, 40, 0
2, 97943, Control_c, 0, 64, 0
2, 97950, Note_on_c, 0, 57, 0
2, 97950, Note_on_c, 0, 69, 0
2, 97959, Note_on_c, 0, 57, 94
2, 97962, Note_on_c, 0, 69, 85
2, 97963, Note_on_c, 0, 45, 80
2, 97967, Note_on_c, 0, 33, 79
2, 98035, Control_c, 0, 64, 127
2, 98150, Note_on_c, 0, 57, 0
2, 98154, Note_on_c, 0, 57, 59
2, 98247, Note_on_c, 0, 61, 67
2, 98334, Note_on_c, 0, 57, 0
2, 98338, Note_on_c, 0, 57, 63
2, 98400, Note_on_c, 0, 52, 51
2, 98485, Note_on_c, 0, 64, 70
2, 98565, Note_on_c, 0, 61, 0
2, 98576, Note_on_c, 0, 61, 69
2, 98649, Note_on_c, 0, 57, 0
2, 98655, Note_on_c, 0, 57, 63
2, 98726, Note_on_c, 0, 69, 0
2, 98733, Note_on_c, 0, 69, 79
2, 98749, Note_on_c, 0, 52, 0
2, 98758, Note_on_c, 0, 52, 66
2, 98833, Note_on_c, 0, 64, 0
2, 98839, Note_on_c, 0, 64, 73
2, 98903, Note_on_c, 0, 61, 0
2, 98903, Note_on_c, 0, 69, 0
2, 98911, Note_on_c, 0, 61, 74
2, 98914, Note_on_c, 0, 69, 52
2, 98995, Note_on_c, 0, 57, 0
2, 99000, Note_on_c, 0, 57, 70
2, 99004, Note_on_c, 0, 73, 79
2, 99064, Note_on_c, 0, 69, 0
2, 99068, Note_on_c, 0, 69, 59
2, 99156, Note_on_c, 0, 64, 0
2, 99165, Note_on_c, 0, 64, 69
2, 99256, Note_on_c, 0, 61, 0
2, 99265, Note_on_c, 0, 61, 77
2, 99266, Note_on_c, 0, 76, 91
2, 99340, Note_on_c, 0, 73, 0
2, 99350, Note_on_c, 0, 73, 65
2, 99417, Note_on_c, 0, 69, 0
2, 99423, Note_on_c, 0, 69, 71
2, 99509, Note_on_c, 0, 64, 0
2, 99514, Note_on_c, 0, 68, 89
2, 99516, Note_on_c, 0, 64, 78
2, 99523, Note_on_c, 0, 59, 74
2, 99531, Note_on_c, 0, 56, 63
2, 99552, Control_c, 0, 64, 0
2, 99560, Note_on_c, 0, 69, 0
2, 99561, Note_on_c, 0, 57, 0
2, 99562, Note_on_c, 0, 61, 0
2, 99562, Note_on_c, 0, 76, 0
2, 99563, Note_on_c, 0, 73, 0
2, 99564, Note_on_c, 0, 45, 0
2, 99594, Note_on_c, 0, 33, 0
2, 99603, Note_on_c, 0, 69, 85
2, 99652, Note_on_c, 0, 69, 0
2, 99655, Note_on_c, 0, 68, 0
2, 99680, Note_on_c, 0, 71, 78
2, 99729, Note_on_c, 0, 73, 87
2, 99735, Note_on_c, 0, 71, 0
2, 99764, Note_on_c, 0, 73, 0
2, 99786, Note_on_c, 0, 52, 0
2, 99788, Note_on_c, 0, 74, 80
2, 99795, Note_on_c, 0, 52, 60
2, 99830, Note_on_c, 0, 74, 0
2, 99855, Note_on_c, 0, 76, 94
2, 99901, Note_on_c, 0, 64, 0
2, 99923, Note_on_c, 0, 78, 86
2, 99990, Note_on_c, 0, 80, 75
2, 100039, Note_on_c, 0, 59, 0
2, 100047, Note_on_c, 0, 78, 0
2, 100052, Note_on_c, 0, 78, 64
2, 100076, Note_on_c, 0, 80, 0
2, 100085, Note_on_c, 0, 76, 0
2, 100090, Note_on_c, 0, 52, 0
2, 100093, Note_on_c, 0, 56, 0
2, 100095, Note_on_c, 0, 81, 84
2, 100104, Note_on_c, 0, 69, 59
2, 100119, Note_on_c, 0, 73, 66
2, 100124, Note_on_c, 0, 54, 50
2, 100231, Note_on_c, 0, 78, 0
2, 100339, Control_c, 0, 64, 127
2, 100366, Note_on_c, 0, 80, 79
2, 100623, Note_on_c, 0, 81, 0
2, 100629, Note_on_c, 0, 81, 80
2, 100646, Note_on_c, 0, 73, 0
2, 100650, Note_on_c, 0, 64, 54
2, 100654, Note_on_c, 0, 69, 0
2, 100657, Note_on_c, 0, 73, 60
2, 100665, Note_on_c, 0, 69, 51
2, 100903, Note_on_c, 0, 76, 71
2, 100925, Note_on_c, 0, 52, 52
2, 101158, Note_on_c, 0, 80, 0
2, 101160, Note_on_c, 0, 64, 0
2, 101160, Note_on_c, 0, 81, 0
2, 101160, Note_on_c, 0, 73, 0
2, 101161, Note_on_c, 0, 52, 0
2, 101162, Note_on_c, 0, 76, 0
2, 101165, Control_c, 0, 64, 0
2, 101168, Note_on_c, 0, 69, 0
2, 101175, Note_on_c, 0, 69, 62
2, 101181, Note_on_c, 0, 50, 55
2, 101184, Note_on_c, 0, 54, 0
2, 101185, Note_on_c, 0, 66, 55
2, 101189, Note_on_c, 0, 62, 46
2, 101422, Control_c, 0, 64, 127
2, 101434, Note_on_c, 0, 74, 72
2, 101705, Note_on_c, 0, 74, 0
2, 101706, Note_on_c, 0, 69, 0
2, 101706, Note_on_c, 0, 50, 0
2, 101707, Control_c, 0, 64, 0
2, 101710, Note_on_c, 0, 73, 71
2, 101712, Note_on_c, 0, 69, 56
2, 101713, Note_on_c, 0, 62, 0
2, 101713, Note_on_c, 0, 66, 0
2, 101718, Note_on_c, 0, 62, 46
2, 101723, Note_on_c, 0, 66, 59
2, 101852, Control_c, 0, 64, 127
2, 101970, Note_on_c, 0, 50, 46
2, 101974, Note_on_c, 0, 62, 0
2, 101983, Note_on_c, 0, 74, 78
2, 102209, Note_on_c, 0, 69, 0
2, 102209, Control_c, 0, 64, 0
2, 102210, Note_on_c, 0, 50, 0
2, 102210, Note_on_c, 0, 66, 0
2, 102210, Note_on_c, 0, 74, 0
2, 102211, Note_on_c, 0, 73, 0
2, 102252, Note_on_c, 0, 76, 71
2, 102260, Note_on_c, 0, 64, 58
2, 102261, Note_on_c, 0, 52, 59
2, 102263, Note_on_c, 0, 71, 61
2, 102277, Note_on_c, 0, 68, 61
2, 102382, Control_c, 0, 64, 127
2, 102520, Note_on_c, 0, 71, 0
2, 102529, Note_on_c, 0, 71, 71
2, 102766, Note_on_c, 0, 71, 0
2, 102777, Note_on_c, 0, 71, 74
2, 102781, Note_on_c, 0, 64, 0
2, 102789, Note_on_c, 0, 68, 0
2, 102792, Note_on_c, 0, 64, 60
2, 102798, Note_on_c, 0, 68, 62
2, 103046, Note_on_c, 0, 74, 80
2, 103062, Note_on_c, 0, 50, 46
2, 103314, Note_on_c, 0, 68, 0
2, 103315, Note_on_c, 0, 52, 0
2, 103315, Note_on_c, 0, 76, 0
2, 103315, Note_on_c, 0, 74, 0
2, 103315, Note_on_c, 0, 50, 0
2, 103319, Note_on_c, 0, 69, 58
2, 103319, Control_c, 0, 64, 0
2, 103326, Note_on_c, 0, 64, 0
2, 103336, Note_on_c, 0, 64, 50
2, 103338, Note_on_c, 0, 49, 45
2, 103339, Note_on_c, 0, 61, 46
2, 103342, Note_on_c, 0, 71, 0
2, 103480, Control_c, 0, 64, 127
2, 103585, Note_on_c, 0, 73, 73
2, 103840, Note_on_c, 0, 73, 0
2, 103841, Control_c, 0, 64, 0
2, 103848, Note_on_c, 0, 69, 0
2, 103858, Note_on_c, 0, 69, 67
2, 103864, Note_on_c, 0, 61, 0
2, 103864, Note_on_c, 0, 64, 0
2, 103868, Note_on_c, 0, 64, 50
2, 103874, Note_on_c, 0, 61, 46
2, 103971, Control_c, 0, 64, 127
2, 104110, Note_on_c, 0, 49, 0
2, 104113, Note_on_c, 0, 49, 48
2, 104401, Note_on_c, 0, 69, 0
2, 104403, Note_on_c, 0, 78, 79
2, 104412, Note_on_c, 0, 69, 57
2, 104413, Note_on_c, 0, 74, 66
2, 104413, Note_on_c, 0, 50, 47
2, 104414, Note_on_c, 0, 49, 0
2, 104415, Note_on_c, 0, 61, 0
2, 104415, Note_on_c, 0, 64, 0
2, 104420, Note_on_c, 0, 66, 57
2, 104422, Control_c, 0, 64, 0
2, 104424, Note_on_c, 0, 62, 46
2, 104693, Note_on_c, 0, 62, 0
2, 104793, Control_c, 0, 64, 127
2, 104969, Note_on_c, 0, 57, 45
2, 105511, Note_on_c, 0, 80, 78
2, 105512, Note_on_c, 0, 52, 50
2, 105527, Note_on_c, 0, 50, 0
2, 105527, Note_on_c, 0, 74, 0
2, 105527, Note_on_c, 0, 78, 0
2, 105527, Note_on_c, 0, 57, 0
2, 105527, Note_on_c, 0, 66, 0
2, 105533, Note_on_c, 0, 76, 59
2, 105534, Control_c, 0, 64, 0
2, 105535, Note_on_c, 0, 68, 48
2, 105536, Note_on_c, 0, 71, 55
2, 105553, Note_on_c, 0, 69, 0
2, 105738, Control_c, 0, 64, 127
2, 106053, Note_on_c, 0, 76, 0
2, 106057, Note_on_c, 0, 76, 65
2, 106069, Note_on_c, 0, 59, 55
2, 106627, Note_on_c, 0, 81, 75
2, 106639, Note_on_c, 0, 78, 62
2, 106644, Note_on_c, 0, 74, 57
2, 106648, Note_on_c, 0, 69, 48
2, 106659, Note_on_c, 0, 66, 45
2, 106660, Note_on_c, 0, 62, 41
2, 106661, Note_on_c, 0, 57, 41
2, 106673, Note_on_c, 0, 71, 0
2, 106673, Note_on_c, 0, 52, 0
2, 106674, Note_on_c, 0, 76, 0
2, 106674, Note_on_c, 0, 68, 0
2, 106675, Note_on_c, 0, 80, 0
2, 106676, Note_on_c, 0, 59, 0
2, 106678, Control_c, 0, 64, 0
2, 107151, Control_c, 0, 64, 127
2, 107520, Note_on_c, 0, 81, 0
2, 107527, Note_on_c, 0, 81, 76
2, 107656, Note_on_c, 0, 83, 71
2, 107793, Note_on_c, 0, 85, 76
2, 107802, Note_on_c, 0, 68, 49
2, 107810, Note_on_c, 0, 59, 42
2, 107812, Control_c, 0, 64, 0
2, 107815, Note_on_c, 0, 78, 0
2, 107816, Note_on_c, 0, 76, 54
2, 107816, Note_on_c, 0, 64, 49
2, 107817, Note_on_c, 0, 57, 0
2, 107820, Note_on_c, 0, 69, 0
2, 107820, Note_on_c, 0, 81, 0
2, 107822, Note_on_c, 0, 74, 0
2, 107824, Note_on_c, 0, 66, 0
2, 107825, Note_on_c, 0, 62, 0
2, 107828, Note_on_c, 0, 83, 0
2, 108066, Note_on_c, 0, 83, 73
2, 108215, Note_on_c, 0, 86, 80
2, 108480, Note_on_c, 0, 85, 0
2, 108485, Note_on_c, 0, 85, 73
2, 108587, Control_c, 0, 64, 127
2, 108760, Note_on_c, 0, 81, 75
2, 108879, Note_on_c, 0, 68, 0
2, 108887, Note_on_c, 0, 76, 0
2, 108893, Control_c, 0, 64, 0
2, 108895, Note_on_c, 0, 64, 0
2, 108896, Note_on_c, 0, 59, 0
2, 108900, Note_on_c, 0, 57, 51
2, 108904, Note_on_c, 0, 69, 41
2, 108910, Note_on_c, 0, 83, 0
2, 109039, Note_on_c, 0, 64, 46
2, 109086, Control_c, 0, 64, 127
2, 109163, Note_on_c, 0, 69, 0
2, 109170, Note_on_c, 0, 69, 42
2, 109301, Note_on_c, 0, 64, 0
2, 109305, Note_on_c, 0, 64, 46
2, 109447, Note_on_c, 0, 69, 0
2, 109452, Note_on_c, 0, 69, 38
2, 109578, Note_on_c, 0, 64, 0
2, 109578, Note_on_c, 0, 86, 0
2, 109583, Note_on_c, 0, 64, 42
2, 109708, Note_on_c, 0, 69, 0
2, 109716, Note_on_c, 0, 76, 57
2, 109717, Note_on_c, 0, 69, 40
2, 109862, Note_on_c, 0, 64, 0
2, 109872, Note_on_c, 0, 64, 47
2, 109985, Note_on_c, 0, 69, 0
2, 109989, Note_on_c, 0, 86, 74
2, 109990, Note_on_c, 0, 69, 45
2, 110131, Note_on_c, 0, 64, 0
2, 110136, Note_on_c, 0, 64, 57
2, 110238, Note_on_c, 0, 85, 0
2, 110243, Note_on_c, 0, 85, 73
2, 110261, Note_on_c, 0, 69, 0
2, 110270, Note_on_c, 0, 69, 49
2, 110384, Note_on_c, 0, 64, 0
2, 110388, Note_on_c, 0, 83, 77
2, 110394, Note_on_c, 0, 64, 60
2, 110515, Note_on_c, 0, 69, 0
2, 110521, Note_on_c, 0, 69, 49
2, 110645, Note_on_c, 0, 64, 0
2, 110645, Note_on_c, 0, 81, 0
2, 110656, Note_on_c, 0, 81, 80
2, 110657, Note_on_c, 0, 64, 52
2, 110791, Note_on_c, 0, 69, 0
2, 110797, Note_on_c, 0, 69, 49
2, 110914, Note_on_c, 0, 64, 0
2, 110914, Note_on_c, 0, 83, 0
2, 110921, Note_on_c, 0, 83, 77
2, 110924, Note_on_c, 0, 64, 55
2, 111018, Note_on_c, 0, 76, 0
2, 111018, Note_on_c, 0, 85, 0
2, 111018, Note_on_c, 0, 69, 0
2, 111019, Note_on_c, 0, 57, 0
2, 111019, Note_on_c, 0, 64, 0
2, 111020, Note_on_c, 0, 86, 0
2, 111020, Note_on_c, 0, 81, 0
2, 111021, Control_c, 0, 64, 0
2, 111051, Note_on_c, 0, 56, 60
2, 111160, Control_c, 0, 64, 127
2, 111193, Note_on_c, 0, 64, 52
2, 111333, Note_on_c, 0, 71, 53
2, 111452, Note_on_c, 0, 64, 0
2, 111457, Note_on_c, 0, 64, 52
2, 111598, Note_on_c, 0, 71, 0
2, 111609, Note_on_c, 0, 71, 53
2, 111736, Note_on_c, 0, 64, 0
2, 111742, Note_on_c, 0, 64, 51
2, 111864, Note_on_c, 0, 76, 73
2, 111866, Note_on_c, 0, 71, 0
2, 111878, Note_on_c, 0, 71, 54
2, 112005, Note_on_c, 0, 64, 0
2, 112012, Note_on_c, 0, 64, 61
2, 112135, Note_on_c, 0, 71, 0
2, 112142, Note_on_c, 0, 85, 82
2, 112147, Note_on_c, 0, 71, 53
2, 112273, Note_on_c, 0, 64, 0
2, 112282, Note_on_c, 0, 64, 57
2, 112396, Note_on_c, 0, 71, 0
2, 112396, Note_on_c, 0, 83, 0
2, 112400, Note_on_c, 0, 83, 79
2, 112407, Note_on_c, 0, 71, 50
2, 112527, Note_on_c, 0, 64, 0
2, 112530, Note_on_c, 0, 81, 83
2, 112531, Note_on_c, 0, 64, 57
2, 112650, Note_on_c, 0, 71, 0
2, 112661, Note_on_c, 0, 71, 59
2, 112788, Note_on_c, 0, 64, 0
2, 112790, Note_on_c, 0, 80, 79
2, 112793, Note_on_c, 0, 64, 57
2, 112911, Note_on_c, 0, 71, 0
2, 112918, Note_on_c, 0, 71, 63
2, 113041, Note_on_c, 0, 64, 0
2, 113041, Note_on_c, 0, 81, 0
2, 113051, Note_on_c, 0, 81, 86
2, 113052, Note_on_c, 0, 64, 49
2, 113144, Note_on_c, 0, 71, 0
2, 113144, Note_on_c, 0, 80, 0
2, 113144, Control_c, 0, 64, 0
2, 113145, Note_on_c, 0, 85, 0
2, 113145, Note_on_c, 0, 76, 0
2, 113145, Note_on_c, 0, 83, 0
2, 113145, Note_on_c, 0, 56, 0
2, 113146, Note_on_c, 0, 64, 0
2, 113176, Note_on_c, 0, 54, 56
2, 113272, Control_c, 0, 64, 127
2, 113318, Note_on_c, 0, 64, 49
2, 113447, Note_on_c, 0, 69, 53
2, 113510, Note_on_c, 0, 54, 0
2, 113564, Note_on_c, 0, 64, 0
2, 113572, Note_on_c, 0, 64, 52
2, 113702, Note_on_c, 0, 69, 0
2, 113707, Note_on_c, 0, 69, 54
2, 113817, Note_on_c, 0, 64, 0
2, 113827, Note_on_c, 0, 64, 56
2, 113963, Note_on_c, 0, 69, 0
2, 113974, Note_on_c, 0, 69, 57
2, 114094, Note_on_c, 0, 64, 0
2, 114103, Note_on_c, 0, 64, 57
2, 114216, Note_on_c, 0, 69, 0
2, 114225, Note_on_c, 0, 69, 54
2, 114355, Note_on_c, 0, 64, 0
2, 114359, Note_on_c, 0, 64, 55
2, 114485, Note_on_c, 0, 69, 0
2, 114490, Note_on_c, 0, 69, 56
2, 114624, Note_on_c, 0, 64, 0
2, 114630, Note_on_c, 0, 64, 56
2, 114731, Note_on_c, 0, 81, 0
2, 114737, Note_on_c, 0, 81, 80
2, 114746, Note_on_c, 0, 69, 0
2, 114749, Control_c, 0, 64, 0
2, 114750, Note_on_c, 0, 64, 0
2, 114751, Note_on_c, 0, 69, 61
2, 114755, Note_on_c, 0, 54, 63
2, 114823, Control_c, 0, 64, 127
2, 114877, Note_on_c, 0, 64, 64
2, 115004, Note_on_c, 0, 83, 86
2, 115004, Note_on_c, 0, 56, 69
2, 115011, Note_on_c, 0, 71, 70
2, 115146, Note_on_c, 0, 64, 0
2, 115156, Note_on_c, 0, 64, 63
2, 115246, Note_on_c, 0, 54, 0
2, 115248, Control_c, 0, 64, 0
2, 115249, Note_on_c, 0, 83, 0
2, 115249, Note_on_c, 0, 71, 0
2, 115249, Note_on_c, 0, 56, 0
2, 115251, Note_on_c, 0, 64, 0
2, 115253, Note_on_c, 0, 69, 0
2, 115272, Note_on_c, 0, 85, 94
2, 115284, Note_on_c, 0, 73, 69
2, 115285, Note_on_c, 0, 57, 69
2, 115285, Note_on_c, 0, 76, 68
2, 115330, Control_c, 0, 64, 127
2, 115422, Note_on_c, 0, 64, 62
2, 115532, Note_on_c, 0, 69, 62
2, 115637, Note_on_c, 0, 64, 0
2, 115648, Note_on_c, 0, 64, 68
2, 115665, Note_on_c, 0, 83, 84
2, 115778, Control_c, 0, 64, 0
2, 115780, Note_on_c, 0, 76, 0
2, 115780, Note_on_c, 0, 85, 0
2, 115780, Note_on_c, 0, 69, 0
2, 115780, Note_on_c, 0, 73, 0
2, 115781, Note_on_c, 0, 57, 0
2, 115783, Note_on_c, 0, 81, 0
2, 115791, Note_on_c, 0, 64, 0
2, 115791, Note_on_c, 0, 83, 0
2, 115798, Note_on_c, 0, 83, 91
2, 115801, Note_on_c, 0, 50, 61
2, 115804, Note_on_c, 0, 74, 82
2, 115812, Note_on_c, 0, 71, 68
2, 115868, Control_c, 0, 64, 127
2, 115942, Note_on_c, 0, 57, 62
2, 116075, Note_on_c, 0, 62, 49
2, 116167, Note_on_c, 0, 57, 0
2, 116179, Note_on_c, 0, 57, 59
2, 116190, Note_on_c, 0, 83, 0
2, 116200, Note_on_c, 0, 83, 79
2, 116298, Note_on_c, 0, 50, 0
2, 116311, Control_c, 0, 64, 0
2, 116311, Note_on_c, 0, 74, 0
2, 116313, Note_on_c, 0, 62, 0
2, 116316, Note_on_c, 0, 83, 0
2, 116328, Note_on_c, 0, 57, 0
2, 116328, Note_on_c, 0, 71, 0
2, 116333, Note_on_c, 0, 86, 91
2, 116342, Note_on_c, 0, 52, 64
2, 116349, Note_on_c, 0, 78, 76
2, 116350, Note_on_c, 0, 74, 68
2, 116421, Control_c, 0, 64, 127
2, 116465, Note_on_c, 0, 59, 68
2, 116588, Note_on_c, 0, 64, 65
2, 116720, Note_on_c, 0, 59, 0
2, 116720, Note_on_c, 0, 86, 0
2, 116725, Note_on_c, 0, 86, 81
2, 116727, Note_on_c, 0, 59, 63
2, 116839, Control_c, 0, 64, 0
2, 116840, Note_on_c, 0, 52, 0
2, 116841, Note_on_c, 0, 78, 0
2, 116841, Note_on_c, 0, 59, 0
2, 116841, Note_on_c, 0, 86, 0
2, 116842, Note_on_c, 0, 74, 0
2, 116843, Note_on_c, 0, 64, 0
2, 116853, Note_on_c, 0, 85, 87
2, 116854, Note_on_c, 0, 64, 66
2, 116863, Note_on_c, 0, 73, 72
2, 116920, Control_c, 0, 64, 127
2, 116983, Note_on_c, 0, 59, 66
2, 117104, Note_on_c, 0, 64, 0
2, 117110, Note_on_c, 0, 83, 83
2, 117112, Note_on_c, 0, 64, 56
2, 117204, Note_on_c, 0, 59, 0
2, 117211, Note_on_c, 0, 59, 71
2, 117242, Note_on_c, 0, 81, 93
2, 117242, Note_on_c, 0, 73, 0
2, 117252, Note_on_c, 0, 69, 67
2, 117252, Note_on_c, 0, 73, 72
2, 117325, Note_on_c, 0, 85, 0
2, 117325, Note_on_c, 0, 83, 0
2, 117326, Note_on_c, 0, 64, 0
2, 117327, Note_on_c, 0, 59, 0
2, 117328, Control_c, 0, 64, 0
2, 117364, Note_on_c, 0, 49, 64
2, 117473, Control_c, 0, 64, 127
2, 117500, Note_on_c, 0, 57, 57
2, 117519, Note_on_c, 0, 49, 0
2, 117627, Note_on_c, 0, 64, 61
2, 117742, Note_on_c, 0, 57, 0
2, 117746, Note_on_c, 0, 57, 61
2, 117880, Note_on_c, 0, 69, 0
2, 117884, Note_on_c, 0, 69, 71
2, 117995, Note_on_c, 0, 57, 0
2, 118003, Note_on_c, 0, 57, 69
2, 118133, Note_on_c, 0, 64, 0
2, 118140, Note_on_c, 0, 64, 65
2, 118145, Note_on_c, 0, 76, 69
2, 118248, Note_on_c, 0, 57, 0
2, 118248, Note_on_c, 0, 69, 0
2, 118254, Note_on_c, 0, 57, 62
2, 118255, Note_on_c, 0, 69, 63
2, 118379, Control_c, 0, 64, 0
2, 118383, Note_on_c, 0, 64, 0
2, 118383, Note_on_c, 0, 69, 0
2, 118383, Note_on_c, 0, 57, 0
2, 118385, Note_on_c, 0, 76, 0
2, 118391, Note_on_c, 0, 86, 92
2, 118399, Note_on_c, 0, 74, 79
2, 118400, Note_on_c, 0, 50, 62
2, 118402, Note_on_c, 0, 73, 0
2, 118404, Note_on_c, 0, 78, 77
2, 118471, Control_c, 0, 64, 127
2, 118514, Note_on_c, 0, 57, 65
2, 118649, Note_on_c, 0, 85, 88
2, 118659, Note_on_c, 0, 64, 70
2, 118778, Note_on_c, 0, 57, 0
2, 118782, Note_on_c, 0, 83, 92
2, 118789, Note_on_c, 0, 57, 65
2, 118913, Note_on_c, 0, 69, 74
2, 119040, Note_on_c, 0, 57, 0
2, 119040, Note_on_c, 0, 81, 0
2, 119045, Note_on_c, 0, 81, 95
2, 119047, Note_on_c, 0, 57, 69
2, 119170, Note_on_c, 0, 64, 0
2, 119177, Note_on_c, 0, 64, 68
2, 119293, Note_on_c, 0, 69, 0
2, 119297, Note_on_c, 0, 69, 63
2, 119301, Note_on_c, 0, 83, 0
2, 119310, Note_on_c, 0, 83, 98
2, 119318, Note_on_c, 0, 71, 79
2, 119319, Note_on_c, 0, 80, 84
2, 119327, Note_on_c, 0, 76, 73
2, 119398, Control_c, 0, 64, 0
2, 119400, Note_on_c, 0, 50, 0
2, 119401, Note_on_c, 0, 74, 0
2, 119401, Note_on_c, 0, 86, 0
2, 119402, Note_on_c, 0, 85, 0
2, 119402, Note_on_c, 0, 69, 0
2, 119403, Note_on_c, 0, 57, 0
2, 119403, Note_on_c, 0, 64, 0
2, 119403, Note_on_c, 0, 78, 0
2, 119404, Note_on_c, 0, 81, 0
2, 119433, Note_on_c, 0, 52, 79
2, 119516, Control_c, 0, 64, 127
2, 119548, Note_on_c, 0, 59, 68
2, 119693, Note_on_c, 0, 64, 71
2, 119823, Note_on_c, 0, 59, 0
2, 119833, Note_on_c, 0, 59, 67
2, 119946, Note_on_c, 0, 71, 0
2, 119951, Note_on_c, 0, 71, 78
2, 120076, Note_on_c, 0, 59, 0
2, 120083, Note_on_c, 0, 59, 74
2, 120199, Note_on_c, 0, 64, 0
2, 120207, Note_on_c, 0, 76, 0
2, 120210, Note_on_c, 0, 64, 68
2, 120211, Note_on_c, 0, 76, 87
2, 120299, Note_on_c, 0, 59, 0
2, 120309, Note_on_c, 0, 59, 71
2, 120330, Note_on_c, 0, 76, 0
2, 120341, Note_on_c, 0, 76, 86
2, 120427, Control_c, 0, 64, 0
2, 120427, Note_on_c, 0, 52, 0
2, 120428, Note_on_c, 0, 64, 0
2, 120428, Note_on_c, 0, 59, 0
2, 120428, Note_on_c, 0, 71, 0
2, 120429, Note_on_c, 0, 80, 0
2, 120429, Note_on_c, 0, 76, 0
2, 120453, Note_on_c, 0, 83, 0
2, 120460, Note_on_c, 0, 85, 100
2, 120464, Note_on_c, 0, 77, 91
2, 120466, Note_on_c, 0, 73, 96
2, 120471, Note_on_c, 0, 53, 73
2, 120506, Control_c, 0, 64, 127
2, 120596, Note_on_c, 0, 61, 83
2, 120706, Note_on_c, 0, 53, 0
2, 120717, Note_on_c, 0, 83, 96
2, 120717, Note_on_c, 0, 53, 73
2, 120793, Note_on_c, 0, 61, 0
2, 120793, Note_on_c, 0, 77, 0
2, 120793, Note_on_c, 0, 73, 0
2, 120794, Note_on_c, 0, 85, 0
2, 120796, Control_c, 0, 64, 0
2, 120800, Note_on_c, 0, 83, 0
2, 120814, Note_on_c, 0, 53, 0
2, 120853, Note_on_c, 0, 49, 80
2, 120856, Note_on_c, 0, 81, 98
2, 120860, Note_on_c, 0, 73, 88
2, 120862, Note_on_c, 0, 77, 85
2, 120883, Control_c, 0, 64, 127
2, 121094, Note_on_c, 0, 80, 98
2, 121107, Note_on_c, 0, 68, 81
2, 121110, Note_on_c, 0, 65, 79
2, 121125, Note_on_c, 0, 61, 78
2, 121351, Note_on_c, 0, 73, 0
2, 121355, Note_on_c, 0, 78, 105
2, 121357, Note_on_c, 0, 69, 77
2, 121357, Note_on_c, 0, 73, 93
2, 121397, Note_on_c, 0, 49, 0
2, 121402, Control_c, 0, 64, 0
2, 121403, Note_on_c, 0, 61, 0
2, 121403, Note_on_c, 0, 77, 0
2, 121403, Note_on_c, 0, 65, 0
2, 121403, Note_on_c, 0, 81, 0
2, 121406, Note_on_c, 0, 80, 0
2, 121413, Note_on_c, 0, 68, 0
2, 121478, Note_on_c, 0, 54, 99
2, 121478, Note_on_c, 0, 42, 97
2, 121482, Control_c, 0, 64, 127
2, 121623, Note_on_c, 0, 66, 78
2, 121628, Note_on_c, 0, 61, 81
2, 121636, Note_on_c, 0, 57, 56
2, 121889, Note_on_c, 0, 54, 0
2, 121895, Note_on_c, 0, 54, 72
2, 122019, Note_on_c, 0, 61, 0
2, 122019, Note_on_c, 0, 66, 0
2, 122027, Note_on_c, 0, 57, 0
2, 122028, Note_on_c, 0, 66, 96
2, 122029, Note_on_c, 0, 61, 88
2, 122031, Note_on_c, 0, 57, 82
2, 122280, Note_on_c, 0, 54, 0
2, 122288, Note_on_c, 0, 73, 0
2, 122290, Note_on_c, 0, 54, 89
2, 122293, Note_on_c, 0, 73, 96
2, 122507, Control_c, 0, 64, 0
2, 122509, Note_on_c, 0, 54, 0
2, 122510, Note_on_c, 0, 66, 0
2, 122510, Note_on_c, 0, 57, 0
2, 122510, Note_on_c, 0, 73, 0
2, 122510, Note_on_c, 0, 42, 0
2, 122510, Note_on_c, 0, 61, 0
2, 122511, Note_on_c, 0, 78, 0
2, 122519, Note_on_c, 0, 69, 0
2, 122545, Note_on_c, 0, 80, 109
2, 122553, Note_on_c, 0, 76, 95
2, 122553, Note_on_c, 0, 52, 99
2, 122554, Note_on_c, 0, 40, 98
2, 122555, Note_on_c, 0, 73, 93
2, 122588, Control_c, 0, 64, 127
2, 122699, Note_on_c, 0, 68, 79
2, 122708, Note_on_c, 0, 64, 71
2, 122713, Note_on_c, 0, 61, 79
2, 122967, Note_on_c, 0, 56, 87
2, 123079, Note_on_c, 0, 61, 0
2, 123079, Note_on_c, 0, 64, 0
2, 123079, Note_on_c, 0, 68, 0
2, 123085, Note_on_c, 0, 64, 98
2, 123087, Note_on_c, 0, 68, 98
2, 123088, Note_on_c, 0, 61, 92
2, 123340, Note_on_c, 0, 52, 0
2, 123351, Note_on_c, 0, 52, 81
2, 123352, Note_on_c, 0, 81, 103
2, 123486, Note_on_c, 0, 81, 0
2, 123490, Note_on_c, 0, 81, 108
2, 123497, Note_on_c, 0, 74, 97
2, 123504, Note_on_c, 0, 78, 94
2, 123545, Note_on_c, 0, 56, 0
2, 123545, Note_on_c, 0, 52, 0
2, 123545, Note_on_c, 0, 61, 0
2, 123545, Note_on_c, 0, 68, 0
2, 123546, Note_on_c, 0, 64, 0
2, 123546, Note_on_c, 0, 76, 0
2, 123547, Note_on_c, 0, 73, 0
2, 123548, Note_on_c, 0, 80, 0
2, 123551, Note_on_c, 0, 40, 0
2, 123552, Control_c, 0, 64, 0
2, 123620, Note_on_c, 0, 50, 101
2, 123621, Note_on_c, 0, 38, 96
2, 123648, Control_c, 0, 64, 127
2, 123768, Note_on_c, 0, 69, 78
2, 123774, Note_on_c, 0, 66, 87
2, 123774, Note_on_c, 0, 62, 81
2, 124032, Note_on_c, 0, 66, 0
2, 124039, Note_on_c, 0, 66, 72
2, 124042, Note_on_c, 0, 57, 80
2, 124154, Note_on_c, 0, 62, 0
2, 124154, Note_on_c, 0, 66, 0
2, 124162, Note_on_c, 0, 69, 0
2, 124165, Note_on_c, 0, 66, 101
2, 124166, Note_on_c, 0, 62, 82
2, 124170, Note_on_c, 0, 69, 83
2, 124416, Note_on_c, 0, 50, 0
2, 124423, Note_on_c, 0, 50, 83
2, 124423, Note_on_c, 0, 69, 0
2, 124427, Note_on_c, 0, 69, 77
2, 124430, Note_on_c, 0, 76, 103
2, 124643, Note_on_c, 0, 74, 0
2, 124644, Note_on_c, 0, 69, 0
2, 124644, Note_on_c, 0, 57, 0
2, 124644, Note_on_c, 0, 62, 0
2, 124644, Note_on_c, 0, 50, 0
2, 124644, Note_on_c, 0, 76, 0
2, 124645, Note_on_c, 0, 78, 0
2, 124645, Note_on_c, 0, 66, 0
2, 124646, Note_on_c, 0, 38, 0
2, 124647, Control_c, 0, 64, 0
2, 124654, Note_on_c, 0, 81, 0
2, 124682, Note_on_c, 0, 49, 94
2, 124686, Note_on_c, 0, 81, 110
2, 124687, Note_on_c, 0, 37, 92
2, 124695, Note_on_c, 0, 73, 98
2, 124698, Note_on_c, 0, 76, 89
2, 124730, Control_c, 0, 64, 127
2, 124833, Note_on_c, 0, 64, 84
2, 124834, Note_on_c, 0, 69, 66
2, 124836, Note_on_c, 0, 61, 77
2, 125097, Note_on_c, 0, 57, 75
2, 125222, Note_on_c, 0, 61, 0
2, 125222, Note_on_c, 0, 64, 0
2, 125222, Note_on_c, 0, 69, 0
2, 125226, Note_on_c, 0, 64, 86
2, 125226, Note_on_c, 0, 69, 88
2, 125229, Note_on_c, 0, 61, 83
2, 125475, Note_on_c, 0, 49, 0
2, 125480, Note_on_c, 0, 49, 82
2, 125489, Note_on_c, 0, 83, 108
2, 125621, Note_on_c, 0, 81, 0
2, 125627, Note_on_c, 0, 85, 104
2, 125629, Note_on_c, 0, 81, 95
2, 125629, Note_on_c, 0, 73, 0
2, 125633, Note_on_c, 0, 73, 100
2, 125634, Note_on_c, 0, 78, 93
2, 125653, Control_c, 0, 64, 0
2, 125657, Note_on_c, 0, 69, 0
2, 125657, Note_on_c, 0, 49, 0
2, 125657, Note_on_c, 0, 61, 0
2, 125657, Note_on_c, 0, 64, 0
2, 125658, Note_on_c, 0, 76, 0
2, 125659, Note_on_c, 0, 83, 0
2, 125659, Note_on_c, 0, 37, 0
2, 125667, Note_on_c, 0, 57, 0
2, 125749, Note_on_c, 0, 47, 90
2, 125755, Note_on_c, 0, 35, 77
2, 125783, Control_c, 0, 64, 127
2, 125912, Note_on_c, 0, 62, 68
2, 126034, Note_on_c, 0, 54, 65
2, 126034, Note_on_c, 0, 66, 68
2, 126151, Note_on_c, 0, 73, 0
2, 126161, Note_on_c, 0, 73, 74
2, 126167, Note_on_c, 0, 71, 57
2, 126170, Note_on_c, 0, 69, 55
2, 126177, Note_on_c, 0, 59, 62
2, 126282, Note_on_c, 0, 62, 0
2, 126287, Note_on_c, 0, 62, 51
2, 126412, Note_on_c, 0, 66, 0
2, 126423, Note_on_c, 0, 66, 63
2, 126528, Note_on_c, 0, 73, 0
2, 126538, Note_on_c, 0, 73, 69
2, 126551, Note_on_c, 0, 69, 0
2, 126558, Note_on_c, 0, 59, 0
2, 126558, Note_on_c, 0, 71, 0
2, 126560, Note_on_c, 0, 69, 56
2, 126563, Note_on_c, 0, 59, 60
2, 126567, Note_on_c, 0, 71, 51
2, 126673, Note_on_c, 0, 62, 0
2, 126679, Note_on_c, 0, 62, 56
2, 126812, Note_on_c, 0, 73, 0
2, 126816, Note_on_c, 0, 71, 0
2, 126817, Note_on_c, 0, 54, 0
2, 126817, Note_on_c, 0, 59, 0
2, 126817, Note_on_c, 0, 85, 0
2, 126818, Note_on_c, 0, 69, 0
2, 126818, Note_on_c, 0, 66, 0
2, 126818, Note_on_c, 0, 47, 0
2, 126821, Note_on_c, 0, 78, 0
2, 126823, Note_on_c, 0, 73, 78
2, 126823, Note_on_c, 0, 49, 76
2, 126823, Control_c, 0, 64, 0
2, 126825, Note_on_c, 0, 37, 66
2, 126827, Note_on_c, 0, 35, 0
2, 126827, Note_on_c, 0, 81, 0
2, 126835, Note_on_c, 0, 62, 0
2, 126950, Control_c, 0, 64, 127
2, 126954, Note_on_c, 0, 64, 57
2, 127079, Note_on_c, 0, 69, 64
2, 127226, Note_on_c, 0, 73, 0
2, 127229, Note_on_c, 0, 61, 67
2, 127231, Note_on_c, 0, 73, 70
2, 127231, Note_on_c, 0, 52, 61
2, 127237, Note_on_c, 0, 57, 64
2, 127349, Note_on_c, 0, 64, 0
2, 127358, Note_on_c, 0, 64, 56
2, 127464, Note_on_c, 0, 57, 0
2, 127464, Note_on_c, 0, 69, 0
2, 127469, Note_on_c, 0, 69, 63
2, 127475, Note_on_c, 0, 57, 54
2, 127610, Note_on_c, 0, 61, 0
2, 127610, Note_on_c, 0, 73, 0
2, 127616, Note_on_c, 0, 73, 75
2, 127617, Note_on_c, 0, 61, 71
2, 127618, Note_on_c, 0, 52, 0
2, 127626, Note_on_c, 0, 57, 0
2, 127629, Note_on_c, 0, 52, 61
2, 127632, Note_on_c, 0, 57, 56
2, 127741, Note_on_c, 0, 64, 0
2, 127746, Note_on_c, 0, 64, 62
2, 127885, Control_c, 0, 64, 0
2, 127887, Note_on_c, 0, 73, 0
2, 127891, Note_on_c, 0, 73, 70
2, 127892, Note_on_c, 0, 49, 0
2, 127892, Note_on_c, 0, 50, 77
2, 127892, Note_on_c, 0, 64, 0
2, 127892, Note_on_c, 0, 37, 0
2, 127892, Note_on_c, 0, 52, 0
2, 127892, Note_on_c, 0, 61, 0
2, 127893, Note_on_c, 0, 57, 0
2, 127893, Note_on_c, 0, 38, 75
2, 127894, Note_on_c, 0, 69, 0
2, 127979, Control_c, 0, 64, 127
2, 128019, Note_on_c, 0, 62, 71
2, 128139, Note_on_c, 0, 66, 71
2, 128279, Note_on_c, 0, 73, 0
2, 128288, Note_on_c, 0, 73, 87
2, 128291, Note_on_c, 0, 57, 72
2, 128293, Note_on_c, 0, 54, 63
2, 128294, Note_on_c, 0, 61, 76
2, 128295, Note_on_c, 0, 69, 62
2, 128401, Note_on_c, 0, 62, 0
2, 128413, Note_on_c, 0, 62, 78
2, 128517, Note_on_c, 0, 66, 0
2, 128526, Note_on_c, 0, 66, 82
2, 128647, Note_on_c, 0, 54, 0
2, 128647, Note_on_c, 0, 61, 0
2, 128651, Note_on_c, 0, 61, 91
2, 128658, Note_on_c, 0, 54, 71
2, 128659, Note_on_c, 0, 76, 104
2, 128662, Note_on_c, 0, 64, 99
2, 128785, Note_on_c, 0, 66, 0
2, 128791, Note_on_c, 0, 66, 73
2, 128904, Control_c, 0, 64, 0
2, 128907, Note_on_c, 0, 64, 0
2, 128908, Note_on_c, 0, 69, 0
2, 128909, Note_on_c, 0, 76, 0
2, 128910, Note_on_c, 0, 66, 0
2, 128912, Note_on_c, 0, 62, 0
2, 128912, Note_on_c, 0, 73, 0
2, 128912, Note_on_c, 0, 57, 0
2, 128912, Note_on_c, 0, 54, 0
2, 128913, Note_on_c, 0, 61, 0
2, 128913, Note_on_c, 0, 81, 110
2, 128918, Note_on_c, 0, 69, 99
2, 128927, Note_on_c, 0, 52, 99
2, 128931, Note_on_c, 0, 50, 0
2, 128935, Note_on_c, 0, 40, 95
2, 128939, Note_on_c, 0, 38, 0
2, 128942, Note_on_c, 0, 50, 81
2, 128946, Note_on_c, 0, 38, 73
2, 128970, Control_c, 0, 64, 127
2, 129062, Note_on_c, 0, 47, 87
2, 129162, Note_on_c, 0, 52, 0
2, 129166, Note_on_c, 0, 52, 84
2, 129177, Note_on_c, 0, 81, 0
2, 129181, Note_on_c, 0, 80, 94
2, 129186, Note_on_c, 0, 68, 91
2, 129188, Note_on_c, 0, 81, 83
2, 129277, Note_on_c, 0, 38, 0
2, 129290, Note_on_c, 0, 80, 0
2, 129290, Note_on_c, 0, 40, 0
2, 129290, Note_on_c, 0, 68, 0
2, 129291, Note_on_c, 0, 52, 0
2, 129291, Note_on_c, 0, 47, 0
2, 129292, Note_on_c, 0, 50, 0
2, 129293, Control_c, 0, 64, 0
2, 129308, Note_on_c, 0, 81, 0
2, 129315, Note_on_c, 0, 69, 0
2, 129319, Note_on_c, 0, 81, 109
2, 129322, Note_on_c, 0, 69, 102
2, 129322, Note_on_c, 0, 41, 95
2, 129325, Note_on_c, 0, 77, 89
2, 129327, Note_on_c, 0, 29, 98
2, 129328, Note_on_c, 0, 72, 93
2, 129330, Note_on_c, 0, 73, 85
2, 129333, Note_on_c, 0, 40, 84
2, 129338, Note_on_c, 0, 40, 0
2, 129338, Note_on_c, 0, 73, 0
2, 129359, Note_on_c, 0, 81, 0
2, 129360, Note_on_c, 0, 69, 0
2, 129363, Note_on_c, 0, 41, 0
2, 129365, Note_on_c, 0, 77, 0
2, 129392, Note_on_c, 0, 72, 0
2, 129408, Note_on_c, 0, 29, 0
2, 129575, Note_on_c, 0, 83, 108
2, 129575, Note_on_c, 0, 31, 98
2, 129576, Note_on_c, 0, 43, 98
2, 129580, Note_on_c, 0, 71, 100
2, 129580, Note_on_c, 0, 79, 90
2, 129676, Note_on_c, 0, 43, 0
2, 129676, Note_on_c, 0, 71, 0
2, 129676, Note_on_c, 0, 83, 0
2, 129692, Note_on_c, 0, 31, 0
2, 129692, Note_on_c, 0, 79, 0
2, 129848, Note_on_c, 0, 81, 108
2, 129852, Note_on_c, 0, 73, 98
2, 129853, Note_on_c, 0, 69, 98
2, 129854, Note_on_c, 0, 76, 98
2, 129962, Note_on_c, 0, 33, 100
2, 129963, Note_on_c, 0, 45, 99
2, 129976, Control_c, 0, 64, 127
2, 130128, Note_on_c, 0, 57, 72
2, 130195, Note_on_c, 0, 52, 54
2, 130237, Note_on_c, 0, 57, 0
2, 130245, Note_on_c, 0, 57, 66
2, 130375, Note_on_c, 0, 33, 0
2, 130375, Note_on_c, 0, 45, 0
2, 130380, Note_on_c, 0, 45, 95
2, 130382, Note_on_c, 0, 65, 100
2, 130384, Note_on_c, 0, 62, 96
2, 130385, Note_on_c, 0, 33, 95
2, 130387, Control_c, 0, 64, 0
2, 130388, Note_on_c, 0, 76, 0
2, 130388, Note_on_c, 0, 73, 0
2, 130389, Note_on_c, 0, 81, 0
2, 130389, Note_on_c, 0, 69, 0
2, 130406, Note_on_c, 0, 52, 0
2, 130437, Control_c, 0, 64, 127
2, 130529, Note_on_c, 0, 57, 0
2, 130538, Note_on_c, 0, 57, 77
2, 130598, Note_on_c, 0, 52, 63
2, 130644, Note_on_c, 0, 57, 0
2, 130649, Note_on_c, 0, 57, 70
2, 130740, Note_on_c, 0, 62, 0
2, 130740, Note_on_c, 0, 57, 0
2, 130740, Note_on_c, 0, 65, 0
2, 130743, Control_c, 0, 64, 0
2, 130759, Note_on_c, 0, 33, 0
2, 130767, Note_on_c, 0, 52, 0
2, 130782, Note_on_c, 0, 47, 86
2, 130785, Note_on_c, 0, 67, 100
2, 130788, Note_on_c, 0, 35, 83
2, 130789, Note_on_c, 0, 59, 88
2, 130792, Note_on_c, 0, 62, 84
2, 130794, Note_on_c, 0, 64, 80
2, 130798, Note_on_c, 0, 35, 0
2, 130798, Note_on_c, 0, 45, 0
2, 130798, Control_c, 0, 64, 127
2, 130924, Note_on_c, 0, 57, 84
2, 130990, Note_on_c, 0, 52, 82
2, 131160, Note_on_c, 0, 52, 0
2, 131160, Note_on_c, 0, 57, 0
2, 131161, Note_on_c, 0, 59, 0
2, 131161, Control_c, 0, 64, 0
2, 131174, Note_on_c, 0, 47, 0
2, 131182, Note_on_c, 0, 62, 0
2, 131184, Note_on_c, 0, 33, 87
2, 131185, Note_on_c, 0, 65, 99
2, 131186, Note_on_c, 0, 62, 91
2, 131228, Control_c, 0, 64, 127
2, 131329, Note_on_c, 0, 57, 84
2, 131343, Note_on_c, 0, 64, 0
2, 131407, Note_on_c, 0, 52, 85
2, 131439, Note_on_c, 0, 45, 87
2, 131531, Control_c, 0, 64, 0
2, 131532, Note_on_c, 0, 45, 0
2, 131532, Note_on_c, 0, 52, 0
2, 131533, Note_on_c, 0, 57, 0
2, 131533, Note_on_c, 0, 65, 0
2, 131543, Note_on_c, 0, 62, 0
2, 131550, Note_on_c, 0, 67, 0
2, 131564, Note_on_c, 0, 64, 104
2, 131566, Note_on_c, 0, 33, 0
2, 131570, Note_on_c, 0, 33, 87
2, 131575, Note_on_c, 0, 61, 87
2, 131589, Control_c, 0, 64, 127
2, 131694, Note_on_c, 0, 40, 66
2, 131766, Note_on_c, 0, 61, 0
2, 131770, Control_c, 0, 64, 0
2, 131804, Control_c, 0, 64, 127
2, 131817, Note_on_c, 0, 62, 94
2, 131819, Note_on_c, 0, 40, 0
2, 131822, Note_on_c, 0, 59, 86
2, 131823, Note_on_c, 0, 32, 79
2, 131823, Note_on_c, 0, 40, 73
2, 132019, Note_on_c, 0, 69, 74
2, 132032, Note_on_c, 0, 59, 0
2, 132032, Note_on_c, 0, 62, 0
2, 132033, Control_c, 0, 64, 0
2, 132033, Note_on_c, 0, 32, 0
2, 132033, Note_on_c, 0, 40, 0
2, 132035, Note_on_c, 0, 64, 0
2, 132042, Note_on_c, 0, 33, 0
2, 132065, Note_on_c, 0, 69, 0
2, 132084, Note_on_c, 0, 73, 101
2, 132085, Note_on_c, 0, 81, 105
2, 132088, Note_on_c, 0, 30, 96
2, 132089, Note_on_c, 0, 78, 101
2, 132090, Note_on_c, 0, 42, 102
2, 132103, Control_c, 0, 64, 127
2, 132226, Note_on_c, 0, 42, 0
2, 132236, Note_on_c, 0, 42, 77
2, 132349, Note_on_c, 0, 73, 0
2, 132349, Note_on_c, 0, 81, 0
2, 132354, Note_on_c, 0, 49, 73
2, 132357, Note_on_c, 0, 78, 0
2, 132359, Note_on_c, 0, 81, 102
2, 132360, Note_on_c, 0, 73, 92
2, 132362, Note_on_c, 0, 78, 92
2, 132440, Note_on_c, 0, 30, 0
2, 132443, Note_on_c, 0, 42, 0
2, 132444, Note_on_c, 0, 73, 0
2, 132445, Note_on_c, 0, 81, 0
2, 132445, Note_on_c, 0, 78, 0
2, 132454, Control_c, 0, 64, 0
2, 132456, Note_on_c, 0, 49, 0
2, 132480, Note_on_c, 0, 44, 100
2, 132483, Note_on_c, 0, 83, 103
2, 132484, Note_on_c, 0, 32, 93
2, 132487, Note_on_c, 0, 80, 94
2, 132488, Note_on_c, 0, 74, 102
2, 132510, Control_c, 0, 64, 127
2, 132526, Note_on_c, 0, 44, 0
2, 132613, Note_on_c, 0, 71, 88
2, 132614, Note_on_c, 0, 56, 93
2, 132614, Note_on_c, 0, 68, 86
2, 132733, Note_on_c, 0, 74, 0
2, 132733, Note_on_c, 0, 80, 0
2, 132733, Note_on_c, 0, 83, 0
2, 132741, Note_on_c, 0, 83, 97
2, 132743, Note_on_c, 0, 52, 87
2, 132743, Note_on_c, 0, 80, 92
2, 132744, Note_on_c, 0, 74, 83
2, 132833, Note_on_c, 0, 32, 0
2, 132833, Note_on_c, 0, 74, 0
2, 132833, Note_on_c, 0, 80, 0
2, 132834, Note_on_c, 0, 52, 0
2, 132834, Note_on_c, 0, 56, 0
2, 132834, Note_on_c, 0, 83, 0
2, 132835, Note_on_c, 0, 71, 0
2, 132838, Control_c, 0, 64, 0
2, 132848, Note_on_c, 0, 68, 0
2, 132869, Note_on_c, 0, 85, 104
2, 132874, Note_on_c, 0, 40, 91
2, 132875, Note_on_c, 0, 81, 96
2, 132876, Note_on_c, 0, 33, 90
2, 132878, Note_on_c, 0, 76, 99
2, 132894, Control_c, 0, 64, 127
2, 133002, Note_on_c, 0, 76, 0
2, 133005, Note_on_c, 0, 73, 94
2, 133007, Note_on_c, 0, 57, 94
2, 133009, Note_on_c, 0, 69, 81
2, 133011, Note_on_c, 0, 76, 75
2, 133011, Note_on_c, 0, 45, 84
2, 133118, Note_on_c, 0, 52, 94
2, 133125, Note_on_c, 0, 76, 0
2, 133125, Note_on_c, 0, 81, 0
2, 133125, Note_on_c, 0, 85, 0
2, 133129, Note_on_c, 0, 81, 62
2, 133129, Note_on_c, 0, 85, 95
2, 133131, Note_on_c, 0, 76, 90
2, 133217, Note_on_c, 0, 33, 0
2, 133217, Note_on_c, 0, 40, 0
2, 133218, Note_on_c, 0, 45, 0
2, 133218, Note_on_c, 0, 73, 0
2, 133218, Note_on_c, 0, 52, 0
2, 133218, Note_on_c, 0, 76, 0
2, 133218, Note_on_c, 0, 81, 0
2, 133219, Note_on_c, 0, 57, 0
2, 133219, Note_on_c, 0, 85, 0
2, 133222, Control_c, 0, 64, 0
2, 133224, Note_on_c, 0, 69, 0
2, 133251, Note_on_c, 0, 86, 109
2, 133251, Note_on_c, 0, 50, 103
2, 133254, Note_on_c, 0, 38, 104
2, 133258, Note_on_c, 0, 81, 104
2, 133259, Note_on_c, 0, 78, 106
2, 133278, Control_c, 0, 64, 127
2, 133395, Note_on_c, 0, 62, 92
2, 133395, Note_on_c, 0, 74, 99
2, 133501, Note_on_c, 0, 78, 0
2, 133501, Note_on_c, 0, 86, 0
2, 133507, Note_on_c, 0, 50, 0
2, 133507, Note_on_c, 0, 78, 98
2, 133507, Note_on_c, 0, 62, 0
2, 133508, Note_on_c, 0, 86, 101
2, 133508, Note_on_c, 0, 74, 0
2, 133510, Note_on_c, 0, 59, 78
2, 133597, Note_on_c, 0, 81, 0
2, 133599, Note_on_c, 0, 78, 0
2, 133599, Note_on_c, 0, 86, 0
2, 133599, Note_on_c, 0, 38, 0
2, 133599, Note_on_c, 0, 59, 0
2, 133599, Control_c, 0, 64, 0
2, 133639, Note_on_c, 0, 88, 112
2, 133642, Note_on_c, 0, 80, 108
2, 133642, Note_on_c, 0, 83, 104
2, 133642, Note_on_c, 0, 52, 107
2, 133642, Note_on_c, 0, 40, 104
2, 133643, Note_on_c, 0, 76, 109
2, 133655, Control_c, 0, 64, 127
2, 133757, Note_on_c, 0, 47, 92
2, 133864, Note_on_c, 0, 52, 0
2, 133865, Note_on_c, 0, 40, 0
2, 133866, Note_on_c, 0, 47, 0
2, 133866, Note_on_c, 0, 80, 0
2, 133866, Note_on_c, 0, 83, 0
2, 133867, Note_on_c, 0, 88, 0
2, 133867, Control_c, 0, 64, 0
2, 133908, Note_on_c, 0, 42, 106
2, 133910, Note_on_c, 0, 54, 104
2, 133931, Control_c, 0, 64, 127
2, 134088, Control_c, 0, 64, 0
2, 134092, Note_on_c, 0, 42, 0
2, 134092, Note_on_c, 0, 54, 0
2, 134092, Note_on_c, 0, 76, 0
2, 134159, Note_on_c, 0, 64, 92
2, 134159, Note_on_c, 0, 40, 99
2, 134160, Note_on_c, 0, 28, 96
2, 134177, Control_c, 0, 64, 127
2, 134292, Note_on_c, 0, 64, 0
2, 134300, Note_on_c, 0, 28, 0
2, 134300, Note_on_c, 0, 40, 0
2, 134303, Note_on_c, 0, 64, 75
2, 134304, Note_on_c, 0, 40, 80
2, 134305, Note_on_c, 0, 28, 74
2, 134309, Note_on_c, 0, 68, 78
2, 134315, Note_on_c, 0, 68, 0
2, 134333, Control_c, 0, 64, 0
2, 134376, Note_on_c, 0, 64, 0
2, 134449, Note_on_c, 0, 68, 88
2, 134452, Note_on_c, 0, 59, 76
2, 134482, Note_on_c, 0, 59, 0
2, 134486, Note_on_c, 0, 68, 0
2, 134538, Note_on_c, 0, 28, 0
2, 134538, Note_on_c, 0, 40, 0
2, 134581, Note_on_c, 0, 66, 78
2, 134597, Note_on_c, 0, 57, 51
2, 134615, Note_on_c, 0, 66, 0
2, 134714, Note_on_c, 0, 57, 0
2, 134717, Note_on_c, 0, 68, 98
2, 134718, Note_on_c, 0, 59, 81
2, 134899, Note_on_c, 0, 68, 0
2, 134914, Note_on_c, 0, 59, 0
2, 134985, Note_on_c, 0, 52, 78
2, 134988, Note_on_c, 0, 68, 80
2, 135000, Note_on_c, 0, 59, 72
2, 135014, Note_on_c, 0, 52, 0
2, 135018, Note_on_c, 0, 68, 0
2, 135045, Note_on_c, 0, 59, 0
2, 135112, Note_on_c, 0, 66, 84
2, 135129, Note_on_c, 0, 57, 59
2, 135143, Note_on_c, 0, 66, 0
2, 135175, Note_on_c, 0, 57, 0
2, 135242, Note_on_c, 0, 68, 85
2, 135247, Note_on_c, 0, 59, 71
2, 135270, Note_on_c, 0, 68, 0
2, 135298, Note_on_c, 0, 59, 0
2, 135372, Note_on_c, 0, 66, 79
2, 135372, Note_on_c, 0, 57, 66
2, 135408, Note_on_c, 0, 66, 0
2, 135409, Note_on_c, 0, 57, 0
2, 135489, Note_on_c, 0, 68, 85
2, 135501, Note_on_c, 0, 52, 78
2, 135501, Note_on_c, 0, 59, 78
2, 135526, Note_on_c, 0, 52, 0
2, 135527, Note_on_c, 0, 68, 0
2, 135559, Note_on_c, 0, 59, 0
2, 135632, Note_on_c, 0, 66, 78
2, 135632, Note_on_c, 0, 57, 71
2, 135663, Note_on_c, 0, 57, 0
2, 135664, Note_on_c, 0, 66, 0
2, 135750, Note_on_c, 0, 69, 86
2, 135755, Note_on_c, 0, 66, 73
2, 135784, Note_on_c, 0, 69, 0
2, 135885, Note_on_c, 0, 52, 83
2, 135915, Note_on_c, 0, 52, 0
2, 135936, Note_on_c, 0, 66, 0
2, 136011, Note_on_c, 0, 69, 91
2, 136016, Note_on_c, 0, 66, 86
2, 136149, Note_on_c, 0, 62, 87
2, 136150, Note_on_c, 0, 38, 103
2, 136151, Note_on_c, 0, 26, 96
2, 136174, Control_c, 0, 64, 127
2, 136396, Note_on_c, 0, 26, 0
2, 136396, Note_on_c, 0, 38, 0
2, 136405, Note_on_c, 0, 38, 92
2, 136407, Note_on_c, 0, 26, 85
2, 136494, Control_c, 0, 64, 0
2, 136519, Note_on_c, 0, 69, 0
2, 136550, Note_on_c, 0, 66, 0
2, 136556, Note_on_c, 0, 69, 89
2, 136560, Note_on_c, 0, 66, 83
2, 136587, Note_on_c, 0, 66, 0
2, 136588, Note_on_c, 0, 62, 0
2, 136589, Note_on_c, 0, 69, 0
2, 136634, Note_on_c, 0, 38, 0
2, 136673, Note_on_c, 0, 26, 0
2, 136684, Note_on_c, 0, 68, 88
2, 136685, Note_on_c, 0, 64, 75
2, 136713, Note_on_c, 0, 68, 0
2, 136714, Note_on_c, 0, 64, 0
2, 136812, Note_on_c, 0, 69, 86
2, 136813, Note_on_c, 0, 66, 80
2, 136896, Control_c, 0, 64, 127
2, 136988, Note_on_c, 0, 69, 0
2, 136995, Note_on_c, 0, 66, 0
2, 137006, Control_c, 0, 64, 0
2, 137070, Note_on_c, 0, 50, 68
2, 137075, Note_on_c, 0, 69, 83
2, 137079, Note_on_c, 0, 66, 75
2, 137101, Note_on_c, 0, 69, 0
2, 137102, Note_on_c, 0, 66, 0
2, 137103, Note_on_c, 0, 50, 0
2, 137200, Note_on_c, 0, 68, 82
2, 137203, Note_on_c, 0, 64, 73
2, 137230, Note_on_c, 0, 68, 0
2, 137231, Note_on_c, 0, 64, 0
2, 137330, Note_on_c, 0, 69, 87
2, 137338, Note_on_c, 0, 66, 68
2, 137360, Note_on_c, 0, 69, 0
2, 137361, Note_on_c, 0, 66, 0
2, 137467, Note_on_c, 0, 68, 80
2, 137468, Note_on_c, 0, 64, 70
2, 137496, Note_on_c, 0, 68, 0
2, 137497, Note_on_c, 0, 64, 0
2, 137593, Note_on_c, 0, 69, 89
2, 137593, Note_on_c, 0, 50, 79
2, 137598, Note_on_c, 0, 66, 76
2, 137621, Note_on_c, 0, 69, 0
2, 137622, Note_on_c, 0, 50, 0
2, 137622, Note_on_c, 0, 66, 0
2, 137720, Note_on_c, 0, 68, 94
2, 137726, Note_on_c, 0, 64, 85
2, 137760, Note_on_c, 0, 64, 0
2, 137761, Note_on_c, 0, 68, 0
2, 137842, Note_on_c, 0, 69, 95
2, 137844, Note_on_c, 0, 66, 93
2, 137876, Note_on_c, 0, 69, 0
2, 137876, Note_on_c, 0, 66, 0
2, 137966, Note_on_c, 0, 68, 97
2, 137975, Note_on_c, 0, 64, 81
2, 137995, Note_on_c, 0, 45, 57
2, 138005, Note_on_c, 0, 68, 0
2, 138013, Note_on_c, 0, 64, 0
2, 138015, Note_on_c, 0, 50, 44
2, 138063, Note_on_c, 0, 45, 0
2, 138066, Note_on_c, 0, 42, 81
2, 138104, Note_on_c, 0, 71, 99
2, 138105, Note_on_c, 0, 68, 101
2, 138133, Note_on_c, 0, 38, 59
2, 138140, Note_on_c, 0, 50, 0
2, 138155, Note_on_c, 0, 42, 0
2, 138216, Note_on_c, 0, 71, 0
2, 138223, Note_on_c, 0, 74, 100
2, 138227, Note_on_c, 0, 71, 77
2, 138249, Note_on_c, 0, 38, 0
2, 138258, Note_on_c, 0, 74, 0
2, 138263, Note_on_c, 0, 68, 0
2, 138286, Note_on_c, 0, 71, 0
2, 138356, Note_on_c, 0, 73, 106
2, 138360, Note_on_c, 0, 61, 104
2, 138361, Note_on_c, 0, 66, 102
2, 138366, Note_on_c, 0, 69, 82
2, 138366, Note_on_c, 0, 30, 88
2, 138439, Control_c, 0, 64, 127
2, 138455, Note_on_c, 0, 30, 0
2, 138459, Note_on_c, 0, 30, 79
2, 138577, Note_on_c, 0, 61, 0
2, 138582, Note_on_c, 0, 61, 84
2, 138631, Note_on_c, 0, 66, 0
2, 138638, Note_on_c, 0, 54, 63
2, 138643, Note_on_c, 0, 66, 71
2, 138731, Note_on_c, 0, 73, 0
2, 138741, Note_on_c, 0, 73, 81
2, 138796, Note_on_c, 0, 78, 78
2, 138839, Note_on_c, 0, 81, 64
2, 138872, Note_on_c, 0, 85, 101
2, 138885, Note_on_c, 0, 61, 0
2, 138885, Note_on_c, 0, 66, 0
2, 138891, Note_on_c, 0, 66, 88
2, 138892, Note_on_c, 0, 54, 0
2, 138894, Note_on_c, 0, 61, 81
2, 138897, Note_on_c, 0, 57, 73
2, 138897, Note_on_c, 0, 54, 76
2, 139008, Note_on_c, 0, 54, 0
2, 139012, Note_on_c, 0, 54, 90
2, 139265, Note_on_c, 0, 42, 77
2, 139378, Control_c, 0, 64, 0
2, 139378, Note_on_c, 0, 69, 0
2, 139378, Note_on_c, 0, 42, 0
2, 139379, Note_on_c, 0, 73, 0
2, 139379, Note_on_c, 0, 54, 0
2, 139379, Note_on_c, 0, 66, 0
2, 139379, Note_on_c, 0, 61, 0
2, 139379, Note_on_c, 0, 85, 0
2, 139380, Note_on_c, 0, 57, 0
2, 139380, Note_on_c, 0, 81, 0
2, 139380, Note_on_c, 0, 78, 0
2, 139392, Note_on_c, 0, 30, 0
2, 139409, Note_on_c, 0, 59, 93
2, 139409, Note_on_c, 0, 68, 108
2, 139410, Note_on_c, 0, 64, 97
2, 139418, Note_on_c, 0, 32, 79
2, 139453, Control_c, 0, 64, 127
2, 139514, Note_on_c, 0, 32, 0
2, 139520, Note_on_c, 0, 32, 71
2, 139653, Note_on_c, 0, 68, 0
2, 139664, Note_on_c, 0, 68, 87
2, 139699, Note_on_c, 0, 59, 0
2, 139699, Note_on_c, 0, 64, 0
2, 139702, Note_on_c, 0, 71, 80
2, 139703, Note_on_c, 0, 64, 50
2, 139707, Note_on_c, 0, 59, 73
2, 139795, Note_on_c, 0, 52, 81
2, 139848, Note_on_c, 0, 80, 77
2, 139926, Note_on_c, 0, 88, 102
2, 139929, Note_on_c, 0, 64, 0
2, 139934, Note_on_c, 0, 64, 90
2, 139937, Note_on_c, 0, 59, 0
2, 139942, Note_on_c, 0, 56, 70
2, 139943, Note_on_c, 0, 59, 82
2, 140067, Note_on_c, 0, 52, 0
2, 140072, Note_on_c, 0, 52, 95
2, 140334, Note_on_c, 0, 66, 103
2, 140342, Note_on_c, 0, 62, 70
2, 140342, Note_on_c, 0, 50, 78
2, 140408, Note_on_c, 0, 32, 0
2, 140408, Note_on_c, 0, 52, 0
2, 140409, Note_on_c, 0, 80, 0
2, 140409, Note_on_c, 0, 88, 0
2, 140409, Note_on_c, 0, 68, 0
2, 140409, Note_on_c, 0, 71, 0
2, 140409, Note_on_c, 0, 59, 0
2, 140410, Control_c, 0, 64, 0
2, 140410, Note_on_c, 0, 64, 0
2, 140410, Note_on_c, 0, 66, 0
2, 140428, Note_on_c, 0, 50, 0
2, 140428, Note_on_c, 0, 56, 0
2, 140428, Note_on_c, 0, 62, 0
2, 140463, Note_on_c, 0, 66, 107
2, 140467, Note_on_c, 0, 62, 91
2, 140470, Note_on_c, 0, 57, 90
2, 140477, Note_on_c, 0, 38, 88
2, 140505, Control_c, 0, 64, 127
2, 140736, Note_on_c, 0, 62, 0
2, 140736, Note_on_c, 0, 69, 70
2, 140740, Note_on_c, 0, 62, 60
2, 140775, Note_on_c, 0, 74, 76
2, 140813, Note_on_c, 0, 78, 85
2, 140895, Note_on_c, 0, 81, 80
2, 140973, Note_on_c, 0, 86, 92
2, 140981, Note_on_c, 0, 69, 0
2, 140985, Note_on_c, 0, 90, 96
2, 140985, Note_on_c, 0, 93, 103
2, 140989, Note_on_c, 0, 62, 0
2, 140989, Note_on_c, 0, 66, 0
2, 140989, Note_on_c, 0, 69, 76
2, 140997, Note_on_c, 0, 62, 84
2, 140997, Note_on_c, 0, 57, 0
2, 140998, Note_on_c, 0, 66, 79
2, 141001, Note_on_c, 0, 57, 74
2, 141227, Note_on_c, 0, 50, 62
2, 141242, Note_on_c, 0, 81, 0
2, 141251, Note_on_c, 0, 81, 84
2, 141353, Control_c, 0, 64, 0
2, 141354, Note_on_c, 0, 81, 0
2, 141355, Note_on_c, 0, 78, 0
2, 141355, Note_on_c, 0, 66, 0
2, 141360, Note_on_c, 0, 86, 0
2, 141365, Note_on_c, 0, 38, 0
2, 141365, Note_on_c, 0, 50, 0
2, 141373, Note_on_c, 0, 57, 0
2, 141373, Note_on_c, 0, 74, 0
2, 141373, Note_on_c, 0, 93, 0
2, 141379, Note_on_c, 0, 93, 99
2, 141381, Note_on_c, 0, 62, 0
2, 141381, Note_on_c, 0, 69, 0
2, 141381, Note_on_c, 0, 90, 0
2, 141384, Note_on_c, 0, 57, 71
2, 141385, Note_on_c, 0, 69, 78
2, 141386, Note_on_c, 0, 62, 80
2, 141387, Note_on_c, 0, 90, 93
2, 141390, Note_on_c, 0, 88, 83
2, 141450, Control_c, 0, 64, 127
2, 141626, Note_on_c, 0, 93, 0
2, 141635, Note_on_c, 0, 93, 94
2, 141642, Note_on_c, 0, 62, 0
2, 141646, Note_on_c, 0, 62, 53
2, 141647, Note_on_c, 0, 74, 77
2, 141665, Note_on_c, 0, 90, 0
2, 141676, Note_on_c, 0, 90, 72
2, 141688, Note_on_c, 0, 88, 0
2, 141697, Note_on_c, 0, 88, 53
2, 141742, Note_on_c, 0, 69, 0
2, 141746, Note_on_c, 0, 86, 70
2, 141749, Note_on_c, 0, 69, 73
2, 141787, Note_on_c, 0, 81, 69
2, 141860, Note_on_c, 0, 66, 68
2, 141867, Note_on_c, 0, 78, 75
2, 141922, Note_on_c, 0, 76, 64
2, 141949, Note_on_c, 0, 74, 0
2, 141958, Note_on_c, 0, 74, 69
2, 141995, Note_on_c, 0, 62, 0
2, 141995, Note_on_c, 0, 66, 0
2, 142003, Note_on_c, 0, 69, 0
2, 142005, Note_on_c, 0, 62, 65
2, 142006, Note_on_c, 0, 66, 52
2, 142007, Note_on_c, 0, 69, 69
2, 142126, Note_on_c, 0, 57, 0
2, 142136, Note_on_c, 0, 57, 47
2, 142236, Control_c, 0, 64, 0
2, 142252, Note_on_c, 0, 81, 0
2, 142252, Note_on_c, 0, 69, 0
2, 142253, Note_on_c, 0, 78, 0
2, 142253, Note_on_c, 0, 93, 0
2, 142253, Note_on_c, 0, 88, 0
2, 142253, Note_on_c, 0, 76, 0
2, 142253, Note_on_c, 0, 74, 0
2, 142253, Note_on_c, 0, 66, 0
2, 142253, Note_on_c, 0, 57, 0
2, 142272, Note_on_c, 0, 86, 0
2, 142272, Note_on_c, 0, 90, 0
2, 142333, Control_c, 0, 64, 127
2, 142407, Note_on_c, 0, 57, 45
2, 142513, Control_c, 0, 64, 0
2, 142514, Note_on_c, 0, 57, 0
2, 142517, Note_on_c, 0, 62, 0
2, 142536, Note_on_c, 0, 49, 60
2, 142625, Control_c, 0, 64, 127
2, 142666, Note_on_c, 0, 57, 44
2, 142794, Note_on_c, 0, 64, 54
2, 142820, Note_on_c, 0, 76, 63
2, 142901, Note_on_c, 0, 57, 0
2, 142908, Note_on_c, 0, 57, 37
2, 142940, Note_on_c, 0, 76, 0
2, 142945, Note_on_c, 0, 76, 54
2, 143047, Note_on_c, 0, 49, 0
2, 143052, Note_on_c, 0, 49, 48
2, 143055, Note_on_c, 0, 76, 0
2, 143066, Note_on_c, 0, 76, 74
2, 143178, Note_on_c, 0, 57, 0
2, 143182, Note_on_c, 0, 57, 49
2, 143201, Note_on_c, 0, 76, 0
2, 143209, Note_on_c, 0, 76, 62
2, 143301, Note_on_c, 0, 64, 0
2, 143310, Note_on_c, 0, 64, 53
2, 143331, Note_on_c, 0, 76, 0
2, 143332, Note_on_c, 0, 61, 33
2, 143339, Note_on_c, 0, 61, 0
2, 143341, Note_on_c, 0, 76, 76
2, 143416, Note_on_c, 0, 57, 0
2, 143426, Note_on_c, 0, 57, 53
2, 143575, Note_on_c, 0, 57, 0
2, 143575, Note_on_c, 0, 64, 0
2, 143575, Control_c, 0, 64, 0
2, 143592, Note_on_c, 0, 49, 0
2, 143592, Note_on_c, 0, 76, 0
2, 143601, Note_on_c, 0, 50, 47
2, 143602, Note_on_c, 0, 76, 68
2, 143662, Control_c, 0, 64, 127
2, 143722, Note_on_c, 0, 57, 51
2, 143723, Note_on_c, 0, 78, 73
2, 143846, Note_on_c, 0, 78, 0
2, 143857, Note_on_c, 0, 78, 85
2, 143865, Note_on_c, 0, 66, 60
2, 143984, Note_on_c, 0, 57, 0
2, 143984, Note_on_c, 0, 78, 0
2, 143989, Note_on_c, 0, 78, 80
2, 143991, Note_on_c, 0, 57, 50
2, 144107, Note_on_c, 0, 78, 0
2, 144118, Note_on_c, 0, 78, 83
2, 144122, Note_on_c, 0, 50, 0
2, 144133, Note_on_c, 0, 50, 50
2, 144230, Note_on_c, 0, 57, 0
2, 144230, Note_on_c, 0, 78, 0
2, 144236, Note_on_c, 0, 78, 75
2, 144240, Note_on_c, 0, 57, 53
2, 144376, Note_on_c, 0, 66, 0
2, 144376, Note_on_c, 0, 78, 0
2, 144384, Note_on_c, 0, 78, 75
2, 144386, Note_on_c, 0, 66, 66
2, 144506, Note_on_c, 0, 57, 0
2, 144517, Note_on_c, 0, 57, 48
2, 144613, Control_c, 0, 64, 0
2, 144613, Note_on_c, 0, 50, 0
2, 144615, Note_on_c, 0, 57, 0
2, 144615, Note_on_c, 0, 78, 0
2, 144616, Note_on_c, 0, 66, 0
2, 144617, Note_on_c, 0, 76, 0
2, 144634, Note_on_c, 0, 52, 70
2, 144714, Control_c, 0, 64, 127
2, 144773, Note_on_c, 0, 59, 63
2, 144888, Note_on_c, 0, 80, 79
2, 144902, Note_on_c, 0, 68, 62
2, 145006, Note_on_c, 0, 59, 0
2, 145006, Note_on_c, 0, 80, 0
2, 145012, Note_on_c, 0, 80, 90
2, 145016, Note_on_c, 0, 59, 65
2, 145128, Note_on_c, 0, 52, 0
2, 145137, Note_on_c, 0, 81, 97
2, 145139, Note_on_c, 0, 52, 59
2, 145267, Note_on_c, 0, 59, 0
2, 145271, Note_on_c, 0, 59, 64
2, 145390, Note_on_c, 0, 68, 0
2, 145397, Note_on_c, 0, 68, 74
2, 145397, Note_on_c, 0, 76, 85
2, 145505, Note_on_c, 0, 59, 0
2, 145512, Note_on_c, 0, 59, 68
2, 145520, Note_on_c, 0, 76, 0
2, 145525, Note_on_c, 0, 76, 77
2, 145628, Note_on_c, 0, 81, 0
2, 145628, Note_on_c, 0, 68, 0
2, 145629, Note_on_c, 0, 80, 0
2, 145630, Note_on_c, 0, 52, 0
2, 145630, Note_on_c, 0, 59, 0
2, 145630, Control_c, 0, 64, 0
2, 145655, Note_on_c, 0, 85, 94
2, 145657, Note_on_c, 0, 54, 62
2, 145704, Control_c, 0, 64, 127
2, 145783, Note_on_c, 0, 61, 63
2, 145785, Note_on_c, 0, 83, 85
2, 145910, Note_on_c, 0, 81, 88
2, 145910, Note_on_c, 0, 69, 69
2, 146027, Note_on_c, 0, 61, 0
2, 146027, Note_on_c, 0, 83, 0
2, 146031, Note_on_c, 0, 61, 55
2, 146035, Note_on_c, 0, 76, 0
2, 146038, Note_on_c, 0, 83, 94
2, 146165, Note_on_c, 0, 54, 0
2, 146169, Note_on_c, 0, 54, 54
2, 146280, Note_on_c, 0, 81, 0
2, 146288, Note_on_c, 0, 61, 0
2, 146289, Note_on_c, 0, 81, 87
2, 146298, Note_on_c, 0, 61, 62
2, 146419, Note_on_c, 0, 69, 0
2, 146419, Note_on_c, 0, 83, 0
2, 146424, Note_on_c, 0, 83, 92
2, 146426, Note_on_c, 0, 54, 0
2, 146430, Note_on_c, 0, 69, 63
2, 146437, Note_on_c, 0, 54, 47
2, 146542, Note_on_c, 0, 61, 0
2, 146549, Note_on_c, 0, 81, 0
2, 146551, Note_on_c, 0, 61, 66
2, 146553, Note_on_c, 0, 81, 90
2, 146650, Note_on_c, 0, 69, 0
2, 146651, Control_c, 0, 64, 0
2, 146651, Note_on_c, 0, 85, 0
2, 146652, Note_on_c, 0, 61, 0
2, 146652, Note_on_c, 0, 81, 0
2, 146652, Note_on_c, 0, 54, 0
2, 146672, Note_on_c, 0, 83, 0
2, 146681, Note_on_c, 0, 83, 96
2, 146683, Note_on_c, 0, 49, 68
2, 146690, Note_on_c, 0, 76, 80
2, 146726, Control_c, 0, 64, 127
2, 146820, Note_on_c, 0, 57, 65
2, 146822, Note_on_c, 0, 69, 67
2, 146932, Note_on_c, 0, 64, 58
2, 146956, Note_on_c, 0, 69, 0
2, 146960, Note_on_c, 0, 69, 43
2, 147048, Note_on_c, 0, 57, 0
2, 147057, Note_on_c, 0, 57, 41
2, 147087, Note_on_c, 0, 49, 0
2, 147087, Note_on_c, 0, 76, 0
2, 147091, Note_on_c, 0, 49, 39
2, 147096, Note_on_c, 0, 76, 62
2, 147194, Note_on_c, 0, 49, 0
2, 147194, Note_on_c, 0, 69, 0
2, 147199, Note_on_c, 0, 49, 55
2, 147205, Note_on_c, 0, 69, 53
2, 147325, Note_on_c, 0, 69, 0
2, 147333, Note_on_c, 0, 49, 0
2, 147333, Note_on_c, 0, 57, 0
2, 147336, Note_on_c, 0, 69, 64
2, 147338, Note_on_c, 0, 49, 45
2, 147339, Note_on_c, 0, 57, 46
2, 147471, Note_on_c, 0, 64, 0
2, 147471, Note_on_c, 0, 76, 0
2, 147474, Note_on_c, 0, 85, 94
2, 147479, Note_on_c, 0, 64, 70
2, 147480, Note_on_c, 0, 76, 78
2, 147594, Note_on_c, 0, 57, 0
2, 147594, Note_on_c, 0, 69, 0
2, 147601, Note_on_c, 0, 69, 59
2, 147602, Note_on_c, 0, 57, 57
2, 147724, Note_on_c, 0, 69, 0
2, 147733, Note_on_c, 0, 69, 66
2, 147735, Note_on_c, 0, 83, 0
2, 147735, Control_c, 0, 64, 0
2, 147735, Note_on_c, 0, 64, 0
2, 147735, Note_on_c, 0, 57, 0
2, 147736, Note_on_c, 0, 49, 0
2, 147741, Note_on_c, 0, 50, 63
2, 147763, Note_on_c, 0, 76, 0
2, 147799, Note_on_c, 0, 50, 0
2, 147816, Control_c, 0, 64, 127
2, 147881, Note_on_c, 0, 57, 62
2, 147881, Note_on_c, 0, 76, 71
2, 147985, Note_on_c, 0, 69, 0
2, 147993, Note_on_c, 0, 69, 68
2, 148001, Note_on_c, 0, 64, 60
2, 148116, Note_on_c, 0, 57, 0
2, 148116, Note_on_c, 0, 69, 0
2, 148122, Note_on_c, 0, 69, 71
2, 148127, Note_on_c, 0, 57, 51
2, 148257, Note_on_c, 0, 81, 99
2, 148262, Note_on_c, 0, 76, 0
2, 148268, Note_on_c, 0, 76, 87
2, 148279, Note_on_c, 0, 50, 47
2, 148377, Note_on_c, 0, 69, 0
2, 148388, Note_on_c, 0, 69, 75
2, 148400, Note_on_c, 0, 57, 0
2, 148410, Note_on_c, 0, 57, 64
2, 148523, Note_on_c, 0, 64, 0
2, 148523, Note_on_c, 0, 76, 0
2, 148527, Note_on_c, 0, 83, 94
2, 148530, Note_on_c, 0, 64, 69
2, 148533, Note_on_c, 0, 76, 88
2, 148661, Note_on_c, 0, 69, 0
2, 148669, Note_on_c, 0, 57, 0
2, 148673, Note_on_c, 0, 69, 64
2, 148673, Note_on_c, 0, 57, 61
2, 148771, Note_on_c, 0, 83, 0
2, 148771, Control_c, 0, 64, 0
2, 148771, Note_on_c, 0, 64, 0
2, 148772, Note_on_c, 0, 57, 0
2, 148772, Note_on_c, 0, 50, 0
2, 148776, Note_on_c, 0, 81, 0
2, 148776, Note_on_c, 0, 85, 0
2, 148782, Note_on_c, 0, 81, 100
2, 148784, Note_on_c, 0, 76, 0
2, 148790, Note_on_c, 0, 52, 74
2, 148792, Note_on_c, 0, 76, 82
2, 148793, Note_on_c, 0, 71, 84
2, 148800, Note_on_c, 0, 69, 0
2, 148861, Control_c, 0, 64, 127
2, 148927, Note_on_c, 0, 69, 56
2, 148933, Note_on_c, 0, 59, 55
2, 149045, Note_on_c, 0, 59, 0
2, 149045, Note_on_c, 0, 69, 0
2, 149055, Note_on_c, 0, 64, 58
2, 149055, Note_on_c, 0, 69, 65
2, 149055, Note_on_c, 0, 59, 56
2, 149184, Note_on_c, 0, 59, 0
2, 149191, Note_on_c, 0, 71, 0
2, 149191, Note_on_c, 0, 76, 0
2, 149194, Note_on_c, 0, 59, 56
2, 149197, Note_on_c, 0, 76, 73
2, 149198, Note_on_c, 0, 71, 61
2, 149322, Note_on_c, 0, 69, 0
2, 149329, Note_on_c, 0, 52, 0
2, 149332, Note_on_c, 0, 69, 50
2, 149334, Note_on_c, 0, 52, 46
2, 149445, Note_on_c, 0, 69, 0
2, 149451, Note_on_c, 0, 69, 54
2, 149452, Note_on_c, 0, 59, 0
2, 149456, Note_on_c, 0, 59, 61
2, 149575, Note_on_c, 0, 76, 0
2, 149583, Note_on_c, 0, 64, 0
2, 149583, Note_on_c, 0, 71, 0
2, 149587, Note_on_c, 0, 76, 78
2, 149588, Note_on_c, 0, 71, 68
2, 149594, Note_on_c, 0, 64, 59
2, 149721, Note_on_c, 0, 59, 0
2, 149721, Note_on_c, 0, 69, 0
2, 149731, Note_on_c, 0, 59, 60
2, 149731, Note_on_c, 0, 69, 41
2, 149829, Note_on_c, 0, 52, 0
2, 149829, Note_on_c, 0, 69, 0
2, 149834, Note_on_c, 0, 69, 69
2, 149837, Note_on_c, 0, 52, 57
2, 149967, Note_on_c, 0, 59, 0
2, 149967, Note_on_c, 0, 71, 0
2, 149971, Note_on_c, 0, 59, 62
2, 149975, Note_on_c, 0, 76, 0
2, 149978, Note_on_c, 0, 71, 78
2, 149981, Note_on_c, 0, 76, 68
2, 150090, Note_on_c, 0, 64, 0
2, 150090, Note_on_c, 0, 69, 0
2, 150100, Note_on_c, 0, 69, 70
2, 150100, Note_on_c, 0, 64, 63
2, 150213, Note_on_c, 0, 69, 0
2, 150218, Note_on_c, 0, 69, 75
2, 150220, Note_on_c, 0, 59, 0
2, 150228, Note_on_c, 0, 59, 57
2, 150351, Note_on_c, 0, 71, 0
2, 150351, Note_on_c, 0, 76, 0
2, 150359, Note_on_c, 0, 52, 0
2, 150359, Note_on_c, 0, 59, 0
2, 150361, Note_on_c, 0, 71, 83
2, 150361, Note_on_c, 0, 76, 83
2, 150363, Note_on_c, 0, 52, 56
2, 150363, Note_on_c, 0, 59, 58
2, 150474, Note_on_c, 0, 69, 0
2, 150481, Note_on_c, 0, 59, 0
2, 150482, Note_on_c, 0, 69, 72
2, 150486, Note_on_c, 0, 59, 69
2, 150604, Note_on_c, 0, 81, 0
2, 150609, Note_on_c, 0, 81, 97
2, 150612, Note_on_c, 0, 64, 0
2, 150612, Note_on_c, 0, 71, 0
2, 150612, Note_on_c, 0, 76, 0
2, 150617, Note_on_c, 0, 64, 78
2, 150619, Note_on_c, 0, 71, 84
2, 150623, Note_on_c, 0, 76, 85
2, 150743, Note_on_c, 0, 59, 0
2, 150743, Note_on_c, 0, 69, 0
2, 150743, Note_on_c, 0, 71, 0
2, 150751, Note_on_c, 0, 69, 74
2, 150753, Note_on_c, 0, 59, 58
2, 150753, Note_on_c, 0, 71, 71
2, 150846, Note_on_c, 0, 71, 0
2, 150846, Note_on_c, 0, 69, 0
2, 150846, Note_on_c, 0, 81, 0
2, 150846, Note_on_c, 0, 64, 0
2, 150846, Note_on_c, 0, 76, 0
2, 150846, Note_on_c, 0, 59, 0
2, 150848, Control_c, 0, 64, 0
2, 150870, Note_on_c, 0, 83, 100
2, 150873, Note_on_c, 0, 52, 0
2, 150879, Note_on_c, 0, 80, 87
2, 150885, Note_on_c, 0, 52, 71
2, 150891, Note_on_c, 0, 71, 70
2, 150893, Note_on_c, 0, 76, 65
2, 150896, Note_on_c, 0, 71, 0
2, 150942, Control_c, 0, 64, 127
2, 151011, Note_on_c, 0, 80, 0
2, 151018, Note_on_c, 0, 80, 70
2, 151019, Note_on_c, 0, 76, 0
2, 151020, Note_on_c, 0, 71, 64
2, 151020, Note_on_c, 0, 59, 62
2, 151026, Note_on_c, 0, 76, 48
2, 151142, Note_on_c, 0, 80, 0
2, 151150, Note_on_c, 0, 52, 0
2, 151150, Note_on_c, 0, 71, 0
2, 151153, Note_on_c, 0, 80, 62
2, 151153, Note_on_c, 0, 52, 48
2, 151157, Note_on_c, 0, 71, 55
2, 151242, Note_on_c, 0, 59, 0
2, 151253, Note_on_c, 0, 59, 59
2, 151272, Note_on_c, 0, 71, 0
2, 151272, Note_on_c, 0, 76, 0
2, 151272, Note_on_c, 0, 80, 0
2, 151278, Note_on_c, 0, 71, 57
2, 151278, Note_on_c, 0, 80, 69
2, 151283, Note_on_c, 0, 76, 50
2, 151403, Note_on_c, 0, 52, 0
2, 151403, Note_on_c, 0, 71, 0
2, 151403, Note_on_c, 0, 80, 0
2, 151407, Note_on_c, 0, 80, 74
2, 151411, Note_on_c, 0, 76, 0
2, 151412, Note_on_c, 0, 71, 61
2, 151413, Note_on_c, 0, 52, 47
2, 151421, Note_on_c, 0, 76, 57
2, 151526, Note_on_c, 0, 59, 0
2, 151526, Note_on_c, 0, 80, 0
2, 151533, Note_on_c, 0, 59, 55
2, 151534, Note_on_c, 0, 71, 0
2, 151534, Note_on_c, 0, 76, 0
2, 151536, Note_on_c, 0, 80, 74
2, 151537, Note_on_c, 0, 71, 66
2, 151544, Note_on_c, 0, 76, 61
2, 151656, Note_on_c, 0, 52, 0
2, 151656, Note_on_c, 0, 80, 0
2, 151664, Note_on_c, 0, 71, 0
2, 151664, Note_on_c, 0, 76, 0
2, 151666, Note_on_c, 0, 80, 71
2, 151666, Note_on_c, 0, 52, 53
2, 151669, Note_on_c, 0, 71, 67
2, 151669, Note_on_c, 0, 76, 69
2, 151779, Note_on_c, 0, 80, 0
2, 151787, Note_on_c, 0, 59, 0
2, 151787, Note_on_c, 0, 71, 0
2, 151787, Note_on_c, 0, 76, 0
2, 151789, Note_on_c, 0, 80, 90
2, 151792, Note_on_c, 0, 71, 76
2, 151793, Note_on_c, 0, 59, 73
2, 151793, Note_on_c, 0, 76, 79
2, 151918, Note_on_c, 0, 52, 0
2, 151918, Note_on_c, 0, 71, 0
2, 151918, Note_on_c, 0, 76, 0
2, 151921, Note_on_c, 0, 81, 94
2, 151927, Note_on_c, 0, 52, 69
2, 151928, Note_on_c, 0, 76, 83
2, 151929, Note_on_c, 0, 71, 81
2, 152048, Note_on_c, 0, 59, 0
2, 152048, Note_on_c, 0, 81, 0
2, 152052, Note_on_c, 0, 81, 96
2, 152056, Note_on_c, 0, 52, 0
2, 152056, Note_on_c, 0, 71, 0
2, 152056, Note_on_c, 0, 76, 0
2, 152057, Note_on_c, 0, 59, 76
2, 152060, Note_on_c, 0, 76, 84
2, 152061, Note_on_c, 0, 71, 80
2, 152064, Note_on_c, 0, 52, 64
2, 152179, Note_on_c, 0, 52, 0
2, 152179, Note_on_c, 0, 76, 0
2, 152179, Note_on_c, 0, 81, 0
2, 152183, Note_on_c, 0, 81, 101
2, 152186, Note_on_c, 0, 71, 0
2, 152189, Note_on_c, 0, 52, 70
2, 152190, Note_on_c, 0, 76, 93
2, 152192, Note_on_c, 0, 71, 81
2, 152302, Note_on_c, 0, 59, 0
2, 152302, Note_on_c, 0, 81, 0
2, 152306, Note_on_c, 0, 81, 99
2, 152309, Note_on_c, 0, 59, 80
2, 152309, Note_on_c, 0, 71, 0
2, 152309, Note_on_c, 0, 76, 0
2, 152313, Note_on_c, 0, 76, 87
2, 152313, Note_on_c, 0, 71, 78
2, 152432, Note_on_c, 0, 83, 0
2, 152438, Note_on_c, 0, 83, 105
2, 152440, Note_on_c, 0, 52, 0
2, 152440, Note_on_c, 0, 59, 0
2, 152440, Note_on_c, 0, 71, 0
2, 152440, Note_on_c, 0, 76, 0
2, 152447, Note_on_c, 0, 52, 71
2, 152447, Note_on_c, 0, 71, 86
2, 152449, Note_on_c, 0, 76, 91
2, 152450, Note_on_c, 0, 59, 80
2, 152555, Note_on_c, 0, 59, 0
2, 152555, Note_on_c, 0, 71, 0
2, 152555, Note_on_c, 0, 76, 0
2, 152555, Note_on_c, 0, 83, 0
2, 152559, Note_on_c, 0, 83, 101
2, 152560, Note_on_c, 0, 59, 76
2, 152564, Note_on_c, 0, 71, 80
2, 152565, Note_on_c, 0, 76, 86
2, 152678, Note_on_c, 0, 83, 0
2, 152683, Note_on_c, 0, 83, 100
2, 152686, Note_on_c, 0, 71, 0
2, 152686, Note_on_c, 0, 76, 0
2, 152693, Note_on_c, 0, 52, 0
2, 152693, Note_on_c, 0, 59, 0
2, 152696, Note_on_c, 0, 71, 82
2, 152696, Note_on_c, 0, 76, 93
2, 152697, Note_on_c, 0, 59, 72
2, 152698, Note_on_c, 0, 52, 68
2, 152808, Note_on_c, 0, 71, 0
2, 152808, Note_on_c, 0, 83, 0
2, 152816, Note_on_c, 0, 83, 100
2, 152816, Note_on_c, 0, 59, 0
2, 152816, Note_on_c, 0, 76, 0
2, 152820, Note_on_c, 0, 71, 93
2, 152820, Note_on_c, 0, 59, 79
2, 152826, Note_on_c, 0, 76, 88
2, 152945, Note_on_c, 0, 88, 94
2, 152982, Note_on_c, 0, 86, 76
2, 152993, Note_on_c, 0, 71, 0
2, 153010, Note_on_c, 0, 85, 82
2, 153047, Note_on_c, 0, 83, 0
2, 153051, Note_on_c, 0, 83, 78
2, 153093, Note_on_c, 0, 81, 0
2, 153099, Note_on_c, 0, 81, 78
2, 153154, Note_on_c, 0, 80, 0
2, 153158, Note_on_c, 0, 80, 80
2, 153204, Note_on_c, 0, 78, 65
2, 153231, Note_on_c, 0, 76, 0
2, 153242, Note_on_c, 0, 76, 65
2, 153274, Note_on_c, 0, 74, 77
2, 153335, Note_on_c, 0, 73, 74
2, 153373, Note_on_c, 0, 71, 76
2, 153410, Note_on_c, 0, 69, 69
2, 153464, Note_on_c, 0, 68, 82
2, 153493, Note_on_c, 0, 66, 73
2, 153523, Note_on_c, 0, 64, 76
2, 153558, Note_on_c, 0, 62, 79
2, 153623, Note_on_c, 0, 59, 0
2, 153626, Note_on_c, 0, 61, 82
2, 153627, Note_on_c, 0, 59, 73
2, 153674, Note_on_c, 0, 56, 80
2, 153708, Note_on_c, 0, 57, 57
2, 153740, Note_on_c, 0, 54, 74
2, 153792, Note_on_c, 0, 52, 0
2, 153802, Note_on_c, 0, 52, 85
2, 153867, Control_c, 0, 64, 0
2, 153870, Note_on_c, 0, 74, 0
2, 153870, Note_on_c, 0, 52, 0
2, 153870, Note_on_c, 0, 69, 0
2, 153870, Note_on_c, 0, 86, 0
2, 153870, Note_on_c, 0, 81, 0
2, 153870, Note_on_c, 0, 62, 0
2, 153871, Note_on_c, 0, 66, 0
2, 153871, Note_on_c, 0, 61, 0
2, 153871, Note_on_c, 0, 57, 0
2, 153871, Note_on_c, 0, 73, 0
2, 153871, Note_on_c, 0, 56, 0
2, 153871, Note_on_c, 0, 83, 0
2, 153871, Note_on_c, 0, 68, 0
2, 153871, Note_on_c, 0, 64, 0
2, 153871, Note_on_c, 0, 54, 0
2, 153871, Note_on_c, 0, 80, 0
2, 153871, Note_on_c, 0, 88, 0
2, 153871, Note_on_c, 0, 78, 0
2, 153871, Note_on_c, 0, 85, 0
2, 153871, Note_on_c, 0, 59, 0
2, 153884, Note_on_c, 0, 71, 0
2, 153884, Note_on_c, 0, 76, 0
2, 153910, Note_on_c, 0, 61, 111
2, 153910, Note_on_c, 0, 73, 112
2, 153913, Note_on_c, 0, 66, 108
2, 153916, Note_on_c, 0, 69, 92
2, 153927, Note_on_c, 0, 38, 88
2, 153937, Note_on_c, 0, 37, 81
2, 153937, Control_c, 0, 64, 127
2, 154016, Note_on_c, 0, 45, 68
2, 154176, Note_on_c, 0, 66, 0
2, 154183, Note_on_c, 0, 78, 108
2, 154183, Note_on_c, 0, 45, 0
2, 154184, Note_on_c, 0, 50, 69
2, 154187, Note_on_c, 0, 66, 96
2, 154189, Note_on_c, 0, 45, 63
2, 154191, Note_on_c, 0, 50, 0
2, 154260, Note_on_c, 0, 45, 0
2, 154266, Note_on_c, 0, 45, 67
2, 154349, Note_on_c, 0, 62, 61
2, 154434, Note_on_c, 0, 80, 107
2, 154440, Note_on_c, 0, 74, 73
2, 154445, Note_on_c, 0, 68, 103
2, 154456, Note_on_c, 0, 50, 73
2, 154553, Note_on_c, 0, 54, 74
2, 154621, Note_on_c, 0, 61, 0
2, 154632, Note_on_c, 0, 61, 85
2, 154698, Note_on_c, 0, 50, 0
2, 154702, Note_on_c, 0, 81, 106
2, 154705, Note_on_c, 0, 69, 0
2, 154709, Note_on_c, 0, 50, 81
2, 154709, Note_on_c, 0, 69, 89
2, 154782, Note_on_c, 0, 54, 0
2, 154788, Note_on_c, 0, 54, 79
2, 154867, Note_on_c, 0, 61, 0
2, 154873, Note_on_c, 0, 61, 80
2, 154967, Note_on_c, 0, 74, 0
2, 154969, Note_on_c, 0, 83, 110
2, 154972, Note_on_c, 0, 74, 101
2, 154974, Note_on_c, 0, 78, 0
2, 154976, Note_on_c, 0, 71, 92
2, 154979, Note_on_c, 0, 78, 95
2, 154980, Note_on_c, 0, 57, 79
2, 155066, Note_on_c, 0, 62, 0
2, 155073, Note_on_c, 0, 62, 80
2, 155136, Note_on_c, 0, 66, 0
2, 155139, Note_on_c, 0, 54, 0
2, 155141, Note_on_c, 0, 66, 85
2, 155205, Note_on_c, 0, 57, 0
2, 155214, Note_on_c, 0, 57, 85
2, 155297, Note_on_c, 0, 62, 0
2, 155305, Note_on_c, 0, 62, 86
2, 155335, Note_on_c, 0, 66, 0
2, 155339, Note_on_c, 0, 66, 88
2, 155369, Note_on_c, 0, 88, 110
2, 155374, Note_on_c, 0, 81, 0
2, 155381, Note_on_c, 0, 78, 0
2, 155384, Note_on_c, 0, 81, 102
2, 155386, Note_on_c, 0, 76, 106
2, 155392, Note_on_c, 0, 78, 103
2, 155453, Note_on_c, 0, 50, 0
2, 155453, Note_on_c, 0, 69, 0
2, 155454, Note_on_c, 0, 45, 0
2, 155454, Note_on_c, 0, 57, 0
2, 155454, Note_on_c, 0, 68, 0
2, 155454, Note_on_c, 0, 66, 0
2, 155454, Control_c, 0, 64, 0
2, 155454, Note_on_c, 0, 71, 0
2, 155454, Note_on_c, 0, 80, 0
2, 155454, Note_on_c, 0, 83, 0
2, 155455, Note_on_c, 0, 61, 0
2, 155466, Note_on_c, 0, 73, 0
2, 155473, Note_on_c, 0, 62, 0
2, 155473, Note_on_c, 0, 74, 0
2, 155481, Note_on_c, 0, 37, 0
2, 155481, Note_on_c, 0, 38, 0
2, 155488, Note_on_c, 0, 38, 85
2, 155512, Control_c, 0, 64, 127
2, 155587, Note_on_c, 0, 45, 80
2, 155663, Note_on_c, 0, 50, 69
2, 155732, Control_c, 0, 64, 0
2, 155733, Note_on_c, 0, 88, 0
2, 155736, Note_on_c, 0, 38, 0
2, 155738, Note_on_c, 0, 76, 0
2, 155742, Note_on_c, 0, 78, 0
2, 155742, Note_on_c, 0, 81, 0
2, 155746, Note_on_c, 0, 86, 104
2, 155753, Note_on_c, 0, 40, 82
2, 155753, Note_on_c, 0, 81, 98
2, 155753, Note_on_c, 0, 78, 101
2, 155754, Note_on_c, 0, 74, 101
2, 155765, Control_c, 0, 64, 127
2, 155841, Note_on_c, 0, 47, 83
2, 155926, Note_on_c, 0, 52, 59
2, 155934, Note_on_c, 0, 52, 0
2, 155942, Note_on_c, 0, 45, 0
2, 155961, Note_on_c, 0, 81, 0
2, 155963, Note_on_c, 0, 74, 0
2, 155963, Note_on_c, 0, 40, 0
2, 155963, Note_on_c, 0, 86, 0
2, 155964, Note_on_c, 0, 78, 0
2, 155964, Note_on_c, 0, 47, 0
2, 155964, Control_c, 0, 64, 0
2, 155973, Note_on_c, 0, 50, 0
2, 156015, Note_on_c, 0, 85, 107
2, 156019, Note_on_c, 0, 42, 88
2, 156020, Note_on_c, 0, 73, 108
2, 156021, Note_on_c, 0, 80, 99
2, 156022, Note_on_c, 0, 81, 97
2, 156042, Control_c, 0, 64, 127
2, 156099, Note_on_c, 0, 49, 71
2, 156178, Note_on_c, 0, 52, 66
2, 156357, Note_on_c, 0, 49, 0
2, 156366, Note_on_c, 0, 49, 57
2, 156410, Note_on_c, 0, 52, 0
2, 156418, Note_on_c, 0, 73, 0
2, 156420, Note_on_c, 0, 52, 86
2, 156422, Note_on_c, 0, 76, 104
2, 156426, Note_on_c, 0, 73, 96
2, 156429, Note_on_c, 0, 71, 93
2, 156533, Note_on_c, 0, 52, 0
2, 156540, Note_on_c, 0, 52, 72
2, 156626, Note_on_c, 0, 54, 69
2, 156683, Note_on_c, 0, 61, 75
2, 156702, Note_on_c, 0, 54, 0
2, 156709, Note_on_c, 0, 54, 65
2, 156787, Note_on_c, 0, 52, 0
2, 156796, Note_on_c, 0, 52, 76
2, 156798, Note_on_c, 0, 69, 89
2, 156802, Note_on_c, 0, 64, 72
2, 156806, Note_on_c, 0, 66, 75
2, 156848, Note_on_c, 0, 54, 0
2, 156854, Note_on_c, 0, 54, 70
2, 156856, Note_on_c, 0, 42, 0
2, 156861, Note_on_c, 0, 42, 66
2, 156917, Note_on_c, 0, 71, 0
2, 156925, Note_on_c, 0, 49, 0
2, 156929, Note_on_c, 0, 71, 95
2, 156930, Note_on_c, 0, 68, 92
2, 156933, Note_on_c, 0, 61, 0
2, 156934, Note_on_c, 0, 49, 75
2, 156943, Note_on_c, 0, 61, 83
2, 156948, Note_on_c, 0, 64, 0
2, 156953, Note_on_c, 0, 64, 51
2, 156994, Note_on_c, 0, 52, 0
2, 157001, Note_on_c, 0, 52, 66
2, 157065, Note_on_c, 0, 57, 85
2, 157163, Note_on_c, 0, 61, 0
2, 157167, Note_on_c, 0, 61, 85
2, 157194, Note_on_c, 0, 73, 0
2, 157198, Note_on_c, 0, 73, 96
2, 157201, Note_on_c, 0, 64, 0
2, 157212, Note_on_c, 0, 64, 75
2, 157286, Note_on_c, 0, 57, 0
2, 157294, Note_on_c, 0, 69, 0
2, 157297, Note_on_c, 0, 57, 89
2, 157298, Note_on_c, 0, 69, 90
2, 157401, Note_on_c, 0, 61, 0
2, 157407, Note_on_c, 0, 61, 81
2, 157416, Note_on_c, 0, 64, 0
2, 157427, Note_on_c, 0, 64, 78
2, 157432, Note_on_c, 0, 68, 0
2, 157440, Note_on_c, 0, 68, 102
2, 157542, Note_on_c, 0, 54, 0
2, 157542, Note_on_c, 0, 69, 0
2, 157542, Note_on_c, 0, 52, 0
2, 157542, Note_on_c, 0, 80, 0
2, 157542, Note_on_c, 0, 76, 0
2, 157542, Note_on_c, 0, 66, 0
2, 157542, Note_on_c, 0, 81, 0
2, 157542, Note_on_c, 0, 49, 0
2, 157543, Note_on_c, 0, 71, 0
2, 157543, Control_c, 0, 64, 0
2, 157543, Note_on_c, 0, 85, 0
2, 157555, Note_on_c, 0, 57, 0
2, 157555, Note_on_c, 0, 61, 0
2, 157562, Note_on_c, 0, 73, 0
2, 157570, Note_on_c, 0, 42, 0
2, 157570, Note_on_c, 0, 64, 0
2, 157570, Note_on_c, 0, 68, 0
2, 157573, Note_on_c, 0, 73, 107
2, 157574, Note_on_c, 0, 42, 84
2, 157577, Note_on_c, 0, 64, 77
2, 157577, Note_on_c, 0, 68, 92
2, 157608, Control_c, 0, 64, 127
2, 157665, Note_on_c, 0, 49, 78
2, 157827, Note_on_c, 0, 40, 71
2, 157923, Note_on_c, 0, 49, 0
2, 157927, Note_on_c, 0, 49, 65
2, 158003, Note_on_c, 0, 52, 55
2, 158072, Note_on_c, 0, 49, 0
2, 158072, Note_on_c, 0, 68, 0
2, 158073, Note_on_c, 0, 73, 0
2, 158073, Note_on_c, 0, 64, 0
2, 158076, Control_c, 0, 64, 0
2, 158085, Note_on_c, 0, 52, 0
2, 158098, Note_on_c, 0, 61, 93
2, 158100, Note_on_c, 0, 40, 0
2, 158100, Note_on_c, 0, 42, 0
2, 158101, Note_on_c, 0, 38, 84
2, 158148, Note_on_c, 0, 59, 70
2, 158154, Control_c, 0, 64, 127
2, 158190, Note_on_c, 0, 45, 68
2, 158234, Note_on_c, 0, 57, 79
2, 158277, Note_on_c, 0, 59, 0
2, 158284, Note_on_c, 0, 59, 82
2, 158330, Note_on_c, 0, 61, 0
2, 158336, Note_on_c, 0, 61, 87
2, 158357, Note_on_c, 0, 49, 74
2, 158413, Note_on_c, 0, 50, 59
2, 158459, Note_on_c, 0, 64, 86
2, 158517, Note_on_c, 0, 66, 81
2, 158572, Note_on_c, 0, 62, 81
2, 158592, Note_on_c, 0, 50, 0
2, 158602, Note_on_c, 0, 50, 69
2, 158622, Note_on_c, 0, 64, 0
2, 158628, Note_on_c, 0, 52, 57
2, 158631, Note_on_c, 0, 64, 84
2, 158676, Note_on_c, 0, 66, 0
2, 158683, Note_on_c, 0, 66, 87
2, 158716, Note_on_c, 0, 68, 80
2, 158760, Note_on_c, 0, 61, 0
2, 158771, Note_on_c, 0, 61, 80
2, 158772, Note_on_c, 0, 69, 87
2, 158827, Note_on_c, 0, 71, 89
2, 158879, Note_on_c, 0, 73, 94
2, 158941, Note_on_c, 0, 54, 67
2, 158983, Note_on_c, 0, 69, 0
2, 158990, Note_on_c, 0, 69, 78
2, 158999, Note_on_c, 0, 61, 0
2, 159004, Note_on_c, 0, 61, 75
2, 159045, Note_on_c, 0, 71, 0
2, 159054, Note_on_c, 0, 71, 83
2, 159091, Note_on_c, 0, 73, 0
2, 159095, Note_on_c, 0, 73, 97
2, 159097, Note_on_c, 0, 45, 0
2, 159114, Note_on_c, 0, 57, 0
2, 159118, Note_on_c, 0, 57, 72
2, 159177, Note_on_c, 0, 74, 82
2, 159220, Note_on_c, 0, 76, 97
2, 159263, Note_on_c, 0, 78, 97
2, 159283, Note_on_c, 0, 54, 0
2, 159283, Note_on_c, 0, 66, 0
2, 159288, Note_on_c, 0, 66, 76
2, 159288, Note_on_c, 0, 54, 72
2, 159321, Note_on_c, 0, 57, 0
2, 159321, Note_on_c, 0, 74, 0
2, 159330, Note_on_c, 0, 57, 70
2, 159330, Note_on_c, 0, 74, 98
2, 159398, Note_on_c, 0, 66, 0
2, 159398, Note_on_c, 0, 76, 0
2, 159402, Note_on_c, 0, 76, 92
2, 159408, Note_on_c, 0, 66, 79
2, 159452, Note_on_c, 0, 78, 0
2, 159457, Note_on_c, 0, 78, 92
2, 159508, Note_on_c, 0, 80, 72
2, 159556, Note_on_c, 0, 81, 109
2, 159565, Note_on_c, 0, 69, 0
2, 159566, Note_on_c, 0, 57, 0
2, 159566, Note_on_c, 0, 66, 0
2, 159566, Note_on_c, 0, 64, 0
2, 159566, Note_on_c, 0, 71, 0
2, 159567, Note_on_c, 0, 50, 0
2, 159567, Note_on_c, 0, 61, 0
2, 159567, Note_on_c, 0, 73, 0
2, 159567, Note_on_c, 0, 49, 0
2, 159567, Control_c, 0, 64, 0
2, 159567, Note_on_c, 0, 74, 0
2, 159567, Note_on_c, 0, 68, 0
2, 159568, Note_on_c, 0, 76, 0
2, 159569, Note_on_c, 0, 78, 0
2, 159569, Note_on_c, 0, 80, 0
2, 159575, Note_on_c, 0, 38, 0
2, 159575, Note_on_c, 0, 52, 0
2, 159575, Note_on_c, 0, 62, 0
2, 159579, Note_on_c, 0, 38, 62
2, 159582, Note_on_c, 0, 54, 0
2, 159582, Note_on_c, 0, 59, 0
2, 159628, Control_c, 0, 64, 127
2, 159633, Note_on_c, 0, 80, 91
2, 159639, Note_on_c, 0, 45, 68
2, 159660, Note_on_c, 0, 47, 55
2, 159693, Note_on_c, 0, 78, 87
2, 159698, Note_on_c, 0, 50, 67
2, 159762, Note_on_c, 0, 76, 97
2, 159801, Note_on_c, 0, 40, 74
2, 159820, Note_on_c, 0, 80, 0
2, 159828, Note_on_c, 0, 78, 0
2, 159832, Note_on_c, 0, 80, 96
2, 159834, Note_on_c, 0, 78, 79
2, 159897, Note_on_c, 0, 47, 0
2, 159901, Note_on_c, 0, 47, 78
2, 159924, Note_on_c, 0, 83, 95
2, 159943, Note_on_c, 0, 81, 0
2, 159953, Note_on_c, 0, 81, 62
2, 159970, Note_on_c, 0, 52, 73
2, 160050, Control_c, 0, 64, 0
2, 160054, Note_on_c, 0, 83, 0
2, 160054, Note_on_c, 0, 80, 0
2, 160054, Note_on_c, 0, 40, 0
2, 160054, Note_on_c, 0, 38, 0
2, 160055, Note_on_c, 0, 52, 0
2, 160055, Note_on_c, 0, 76, 0
2, 160056, Note_on_c, 0, 47, 0
2, 160058, Note_on_c, 0, 45, 0
2, 160058, Note_on_c, 0, 81, 0
2, 160064, Note_on_c, 0, 81, 99
2, 160065, Note_on_c, 0, 85, 104
2, 160066, Note_on_c, 0, 50, 0
2, 160066, Note_on_c, 0, 78, 0
2, 160068, Note_on_c, 0, 73, 105
2, 160071, Note_on_c, 0, 78, 97
2, 160075, Note_on_c, 0, 49, 84
2, 160079, Note_on_c, 0, 42, 76
2, 160081, Note_on_c, 0, 49, 0
2, 160158, Control_c, 0, 64, 127
2, 160168, Note_on_c, 0, 49, 74
2, 160335, Note_on_c, 0, 78, 0
2, 160342, Note_on_c, 0, 78, 73
2, 160343, Note_on_c, 0, 81, 0
2, 160348, Note_on_c, 0, 81, 68
2, 160356, Note_on_c, 0, 76, 69
2, 160412, Note_on_c, 0, 49, 0
2, 160412, Note_on_c, 0, 73, 0
2, 160412, Note_on_c, 0, 85, 0
2, 160417, Note_on_c, 0, 73, 71
2, 160422, Note_on_c, 0, 85, 75
2, 160423, Note_on_c, 0, 49, 52
2, 160462, Note_on_c, 0, 52, 61
2, 160465, Note_on_c, 0, 78, 0
2, 160473, Note_on_c, 0, 78, 76
2, 160542, Note_on_c, 0, 85, 0
2, 160546, Note_on_c, 0, 85, 72
2, 160558, Note_on_c, 0, 52, 0
2, 160569, Note_on_c, 0, 52, 72
2, 160588, Note_on_c, 0, 78, 0
2, 160596, Note_on_c, 0, 76, 0
2, 160598, Note_on_c, 0, 78, 88
2, 160603, Note_on_c, 0, 76, 76
2, 160650, Note_on_c, 0, 85, 0
2, 160661, Note_on_c, 0, 85, 80
2, 160666, Note_on_c, 0, 54, 61
2, 160719, Note_on_c, 0, 54, 0
2, 160719, Note_on_c, 0, 78, 0
2, 160723, Note_on_c, 0, 78, 92
2, 160727, Note_on_c, 0, 76, 0
2, 160729, Note_on_c, 0, 61, 77
2, 160730, Note_on_c, 0, 54, 70
2, 160732, Note_on_c, 0, 76, 81
2, 160780, Note_on_c, 0, 85, 0
2, 160787, Note_on_c, 0, 85, 100
2, 160811, Note_on_c, 0, 52, 0
2, 160820, Note_on_c, 0, 52, 83
2, 160842, Note_on_c, 0, 78, 0
2, 160846, Note_on_c, 0, 78, 93
2, 160896, Note_on_c, 0, 54, 0
2, 160896, Note_on_c, 0, 85, 0
2, 160904, Note_on_c, 0, 54, 57
2, 160906, Note_on_c, 0, 85, 84
2, 160957, Note_on_c, 0, 78, 0
2, 160962, Note_on_c, 0, 78, 79
2, 160965, Note_on_c, 0, 85, 0
2, 160970, Note_on_c, 0, 85, 84
2, 160972, Note_on_c, 0, 54, 0
2, 160972, Note_on_c, 0, 61, 0
2, 160976, Note_on_c, 0, 54, 63
2, 160977, Note_on_c, 0, 61, 90
2, 161095, Note_on_c, 0, 76, 0
2, 161099, Note_on_c, 0, 64, 104
2, 161101, Note_on_c, 0, 83, 106
2, 161103, Note_on_c, 0, 76, 104
2, 161104, Note_on_c, 0, 80, 102
2, 161212, Note_on_c, 0, 42, 0
2, 161213, Note_on_c, 0, 49, 0
2, 161213, Note_on_c, 0, 78, 0
2, 161213, Note_on_c, 0, 85, 0
2, 161214, Note_on_c, 0, 81, 0
2, 161214, Note_on_c, 0, 61, 0
2, 161214, Note_on_c, 0, 54, 0
2, 161214, Control_c, 0, 64, 0
2, 161218, Note_on_c, 0, 73, 0
2, 161233, Note_on_c, 0, 52, 0
2, 161233, Note_on_c, 0, 64, 0
2, 161233, Note_on_c, 0, 76, 0
2, 161233, Note_on_c, 0, 80, 0
2, 161233, Note_on_c, 0, 83, 0
2, 161238, Note_on_c, 0, 83, 108
2, 161240, Note_on_c, 0, 64, 94
2, 161242, Note_on_c, 0, 76, 97
2, 161244, Note_on_c, 0, 80, 93
2, 161275, Note_on_c, 0, 80, 0
2, 161276, Note_on_c, 0, 76, 0
2, 161280, Note_on_c, 0, 83, 0
2, 161283, Note_on_c, 0, 64, 0
2, 161660, Note_on_c, 0, 76, 100
2, 161660, Note_on_c, 0, 81, 90
2, 161660, Note_on_c, 0, 85, 100
2, 161663, Note_on_c, 0, 64, 95
2, 161667, Note_on_c, 0, 61, 88
2, 161670, Note_on_c, 0, 78, 92
2, 161673, Note_on_c, 0, 57, 87
2, 161674, Note_on_c, 0, 54, 85
2, 161706, Note_on_c, 0, 78, 0
2, 161707, Note_on_c, 0, 76, 0
2, 161711, Note_on_c, 0, 64, 0
2, 161712, Note_on_c, 0, 81, 0
2, 161713, Note_on_c, 0, 61, 0
2, 161713, Note_on_c, 0, 85, 0
2, 161720, Note_on_c, 0, 57, 0
2, 161722, Note_on_c, 0, 54, 0
2, 161799, Note_on_c, 0, 85, 98
2, 161803, Note_on_c, 0, 64, 79
2, 161804, Note_on_c, 0, 76, 99
2, 161804, Note_on_c, 0, 61, 81
2, 161805, Note_on_c, 0, 81, 85
2, 161806, Note_on_c, 0, 54, 74
2, 161809, Note_on_c, 0, 57, 77
2, 161845, Note_on_c, 0, 76, 0
2, 161850, Note_on_c, 0, 64, 0
2, 161852, Note_on_c, 0, 81, 0
2, 161853, Note_on_c, 0, 61, 0
2, 161853, Note_on_c, 0, 85, 0
2, 161865, Note_on_c, 0, 57, 0
2, 161871, Note_on_c, 0, 54, 0
2, 162226, Note_on_c, 0, 76, 75
2, 162228, Note_on_c, 0, 49, 50
2, 162263, Control_c, 0, 64, 127
2, 162362, Note_on_c, 0, 49, 0
2, 162363, Note_on_c, 0, 64, 61
2, 162374, Note_on_c, 0, 49, 44
2, 162489, Note_on_c, 0, 52, 57
2, 162490, Note_on_c, 0, 69, 68
2, 162619, Note_on_c, 0, 71, 80
2, 162631, Note_on_c, 0, 61, 62
2, 162643, Note_on_c, 0, 57, 56
2, 162739, Note_on_c, 0, 64, 0
2, 162750, Note_on_c, 0, 64, 61
2, 162862, Note_on_c, 0, 57, 0
2, 162862, Note_on_c, 0, 69, 0
2, 162867, Note_on_c, 0, 57, 42
2, 162869, Note_on_c, 0, 69, 70
2, 163000, Note_on_c, 0, 52, 0
2, 163000, Note_on_c, 0, 76, 0
2, 163011, Note_on_c, 0, 52, 57
2, 163011, Note_on_c, 0, 76, 78
2, 163130, Note_on_c, 0, 64, 0
2, 163139, Note_on_c, 0, 64, 56
2, 163257, Note_on_c, 0, 71, 0
2, 163257, Control_c, 0, 64, 0
2, 163257, Note_on_c, 0, 64, 0
2, 163257, Note_on_c, 0, 49, 0
2, 163258, Note_on_c, 0, 61, 0
2, 163258, Note_on_c, 0, 76, 0
2, 163258, Note_on_c, 0, 52, 0
2, 163258, Note_on_c, 0, 57, 0
2, 163261, Note_on_c, 0, 69, 0
2, 163265, Note_on_c, 0, 69, 68
2, 163271, Note_on_c, 0, 50, 63
2, 163345, Control_c, 0, 64, 127
2, 163401, Note_on_c, 0, 71, 79
2, 163530, Note_on_c, 0, 69, 0
2, 163533, Note_on_c, 0, 64, 65
2, 163536, Note_on_c, 0, 54, 56
2, 163538, Note_on_c, 0, 69, 53
2, 163653, Note_on_c, 0, 69, 0
2, 163660, Note_on_c, 0, 69, 77
2, 163665, Note_on_c, 0, 62, 70
2, 163695, Note_on_c, 0, 57, 47
2, 163794, Note_on_c, 0, 76, 79
2, 163829, Note_on_c, 0, 54, 0
2, 163835, Note_on_c, 0, 54, 29
2, 163918, Note_on_c, 0, 78, 83
2, 164044, Note_on_c, 0, 54, 0
2, 164047, Note_on_c, 0, 80, 89
2, 164048, Note_on_c, 0, 54, 66
2, 164170, Note_on_c, 0, 81, 90
2, 164287, Note_on_c, 0, 62, 0
2, 164287, Note_on_c, 0, 71, 0
2, 164287, Note_on_c, 0, 54, 0
2, 164287, Note_on_c, 0, 69, 0
2, 164288, Note_on_c, 0, 76, 0
2, 164288, Note_on_c, 0, 57, 0
2, 164288, Note_on_c, 0, 64, 0
2, 164288, Note_on_c, 0, 80, 0
2, 164288, Note_on_c, 0, 78, 0
2, 164289, Control_c, 0, 64, 0
2, 164289, Note_on_c, 0, 81, 0
2, 164298, Note_on_c, 0, 50, 0
2, 164311, Note_on_c, 0, 88, 92
2, 164323, Note_on_c, 0, 52, 71
2, 164375, Control_c, 0, 64, 127
2, 164456, Note_on_c, 0, 76, 62
2, 164575, Note_on_c, 0, 81, 76
2, 164577, Note_on_c, 0, 59, 62
2, 164708, Note_on_c, 0, 83, 86
2, 164718, Note_on_c, 0, 68, 80
2, 164724, Note_on_c, 0, 64, 60
2, 164835, Note_on_c, 0, 76, 0
2, 164845, Note_on_c, 0, 76, 69
2, 164958, Note_on_c, 0, 81, 0
2, 164969, Note_on_c, 0, 81, 76
2, 165093, Note_on_c, 0, 86, 94
2, 165096, Note_on_c, 0, 59, 0
2, 165102, Note_on_c, 0, 59, 72
2, 165227, Note_on_c, 0, 76, 0
2, 165233, Note_on_c, 0, 76, 69
2, 165348, Control_c, 0, 64, 0
2, 165350, Note_on_c, 0, 81, 0
2, 165350, Note_on_c, 0, 64, 0
2, 165350, Note_on_c, 0, 68, 0
2, 165351, Note_on_c, 0, 83, 0
2, 165351, Note_on_c, 0, 52, 0
2, 165351, Note_on_c, 0, 88, 0
2, 165351, Note_on_c, 0, 76, 0
2, 165356, Note_on_c, 0, 81, 79
2, 165361, Note_on_c, 0, 54, 61
2, 165365, Note_on_c, 0, 59, 0
2, 165381, Note_on_c, 0, 86, 0
2, 165393, Note_on_c, 0, 66, 41
2, 165434, Control_c, 0, 64, 127
2, 165491, Note_on_c, 0, 85, 90
2, 165624, Note_on_c, 0, 61, 67
2, 165630, Note_on_c, 0, 76, 67
2, 165742, Note_on_c, 0, 81, 0
2, 165749, Note_on_c, 0, 66, 0
2, 165751, Note_on_c, 0, 69, 74
2, 165753, Note_on_c, 0, 81, 74
2, 165757, Note_on_c, 0, 66, 65
2, 165873, Note_on_c, 0, 83, 95
2, 166010, Note_on_c, 0, 76, 0
2, 166021, Note_on_c, 0, 76, 58
2, 166118, Note_on_c, 0, 61, 0
2, 166118, Note_on_c, 0, 81, 0
2, 166123, Note_on_c, 0, 81, 86
2, 166125, Note_on_c, 0, 61, 81
2, 166256, Note_on_c, 0, 76, 0
2, 166261, Note_on_c, 0, 76, 78
2, 166350, Control_c, 0, 64, 0
2, 166350, Note_on_c, 0, 69, 0
2, 166351, Note_on_c, 0, 54, 0
2, 166351, Note_on_c, 0, 66, 0
2, 166351, Note_on_c, 0, 61, 0
2, 166351, Note_on_c, 0, 83, 0
2, 166351, Note_on_c, 0, 81, 0
2, 166352, Note_on_c, 0, 85, 0
2, 166352, Note_on_c, 0, 76, 0
2, 166399, Note_on_c, 0, 76, 104
2, 166400, Note_on_c, 0, 64, 104
2, 166401, Note_on_c, 0, 69, 93
2, 166404, Note_on_c, 0, 49, 93
2, 166405, Note_on_c, 0, 37, 94
2, 166410, Control_c, 0, 64, 127
2, 166533, Note_on_c, 0, 64, 0
2, 166544, Note_on_c, 0, 64, 77
2, 166663, Note_on_c, 0, 49, 0
2, 166663, Note_on_c, 0, 64, 0
2, 166674, Note_on_c, 0, 64, 80
2, 166675, Note_on_c, 0, 49, 59
2, 166794, Note_on_c, 0, 64, 0
2, 166801, Note_on_c, 0, 49, 0
2, 166801, Note_on_c, 0, 69, 0
2, 166801, Note_on_c, 0, 76, 0
2, 166802, Note_on_c, 0, 61, 95
2, 166804, Note_on_c, 0, 64, 95
2, 166806, Note_on_c, 0, 76, 99
2, 166807, Note_on_c, 0, 69, 84
2, 166808, Note_on_c, 0, 49, 82
2, 166810, Note_on_c, 0, 52, 70
2, 166816, Note_on_c, 0, 57, 83
2, 166940, Note_on_c, 0, 57, 0
2, 166940, Note_on_c, 0, 64, 0
2, 166947, Note_on_c, 0, 52, 0
2, 166949, Note_on_c, 0, 64, 86
2, 166950, Note_on_c, 0, 57, 72
2, 166955, Note_on_c, 0, 52, 58
2, 167063, Note_on_c, 0, 49, 0
2, 167070, Note_on_c, 0, 52, 0
2, 167070, Note_on_c, 0, 57, 0
2, 167070, Note_on_c, 0, 64, 0
2, 167074, Note_on_c, 0, 49, 57
2, 167076, Note_on_c, 0, 64, 84
2, 167081, Note_on_c, 0, 52, 65
2, 167081, Note_on_c, 0, 57, 60
2, 167193, Note_on_c, 0, 52, 0
2, 167193, Note_on_c, 0, 57, 0
2, 167193, Note_on_c, 0, 61, 0
2, 167193, Note_on_c, 0, 76, 0
2, 167200, Note_on_c, 0, 61, 88
2, 167201, Note_on_c, 0, 64, 0
2, 167201, Note_on_c, 0, 69, 0
2, 167204, Note_on_c, 0, 52, 68
2, 167204, Note_on_c, 0, 57, 81
2, 167205, Note_on_c, 0, 76, 96
2, 167206, Note_on_c, 0, 64, 88
2, 167206, Note_on_c, 0, 69, 81
2, 167339, Note_on_c, 0, 64, 0
2, 167350, Note_on_c, 0, 64, 86
2, 167416, Note_on_c, 0, 69, 0
2, 167416, Note_on_c, 0, 61, 0
2, 167417, Note_on_c, 0, 49, 0
2, 167417, Note_on_c, 0, 64, 0
2, 167421, Control_c, 0, 64, 0
2, 167424, Note_on_c, 0, 37, 0
2, 167431, Note_on_c, 0, 76, 0
2, 167439, Note_on_c, 0, 52, 0
2, 167439, Note_on_c, 0, 57, 0
2, 167479, Note_on_c, 0, 38, 96
2, 167479, Note_on_c, 0, 69, 97
2, 167480, Note_on_c, 0, 76, 103
2, 167481, Note_on_c, 0, 64, 102
2, 167500, Control_c, 0, 64, 127
2, 167608, Note_on_c, 0, 64, 0
2, 167618, Note_on_c, 0, 64, 82
2, 167723, Note_on_c, 0, 64, 0
2, 167732, Note_on_c, 0, 50, 72
2, 167734, Note_on_c, 0, 64, 77
2, 167877, Note_on_c, 0, 64, 0
2, 167877, Note_on_c, 0, 69, 0
2, 167877, Note_on_c, 0, 76, 0
2, 167881, Note_on_c, 0, 64, 94
2, 167881, Note_on_c, 0, 76, 106
2, 167881, Note_on_c, 0, 69, 90
2, 167882, Note_on_c, 0, 57, 79
2, 167882, Note_on_c, 0, 54, 81
2, 167883, Note_on_c, 0, 62, 86
2, 168015, Note_on_c, 0, 64, 0
2, 168021, Note_on_c, 0, 64, 89
2, 168145, Note_on_c, 0, 64, 0
2, 168153, Note_on_c, 0, 57, 0
2, 168153, Note_on_c, 0, 62, 0
2, 168157, Note_on_c, 0, 64, 78
2, 168158, Note_on_c, 0, 62, 57
2, 168158, Note_on_c, 0, 57, 53
2, 168268, Note_on_c, 0, 54, 0
2, 168268, Note_on_c, 0, 62, 0
2, 168276, Note_on_c, 0, 64, 0
2, 168276, Note_on_c, 0, 69, 0
2, 168276, Note_on_c, 0, 76, 0
2, 168280, Note_on_c, 0, 62, 79
2, 168280, Note_on_c, 0, 54, 77
2, 168281, Note_on_c, 0, 76, 100
2, 168281, Note_on_c, 0, 64, 90
2, 168281, Note_on_c, 0, 69, 85
2, 168414, Note_on_c, 0, 64, 0
2, 168418, Note_on_c, 0, 64, 70
2, 168422, Note_on_c, 0, 62, 0
2, 168427, Note_on_c, 0, 62, 54
2, 168498, Note_on_c, 0, 50, 0
2, 168498, Note_on_c, 0, 62, 0
2, 168499, Note_on_c, 0, 57, 0
2, 168499, Note_on_c, 0, 69, 0
2, 168500, Note_on_c, 0, 64, 0
2, 168500, Note_on_c, 0, 76, 0
2, 168501, Note_on_c, 0, 54, 0
2, 168502, Control_c, 0, 64, 0
2, 168514, Note_on_c, 0, 38, 0
2, 168546, Note_on_c, 0, 52, 105
2, 168549, Note_on_c, 0, 64, 104
2, 168549, Note_on_c, 0, 40, 100
2, 168550, Note_on_c, 0, 76, 107
2, 168550, Note_on_c, 0, 69, 83
2, 168554, Note_on_c, 0, 71, 90
2, 168583, Control_c, 0, 64, 127
2, 168691, Note_on_c, 0, 64, 0
2, 168695, Note_on_c, 0, 64, 83
2, 168806, Note_on_c, 0, 64, 0
2, 168814, Note_on_c, 0, 52, 0
2, 168816, Note_on_c, 0, 64, 73
2, 168818, Note_on_c, 0, 52, 69
2, 168936, Note_on_c, 0, 69, 0
2, 168936, Note_on_c, 0, 71, 0
2, 168936, Note_on_c, 0, 76, 0
2, 168941, Note_on_c, 0, 59, 98
2, 168946, Note_on_c, 0, 71, 89
2, 168947, Note_on_c, 0, 76, 102
2, 168948, Note_on_c, 0, 69, 74
2, 169067, Note_on_c, 0, 52, 0
2, 169075, Note_on_c, 0, 64, 0
2, 169077, Note_on_c, 0, 52, 68
2, 169079, Note_on_c, 0, 64, 79
2, 169205, Note_on_c, 0, 52, 0
2, 169205, Note_on_c, 0, 64, 0
2, 169209, Note_on_c, 0, 64, 74
2, 169211, Note_on_c, 0, 52, 75
2, 169336, Note_on_c, 0, 59, 0
2, 169336, Note_on_c, 0, 69, 0
2, 169336, Note_on_c, 0, 71, 0
2, 169336, Note_on_c, 0, 76, 0
2, 169341, Note_on_c, 0, 76, 95
2, 169341, Note_on_c, 0, 71, 86
2, 169341, Note_on_c, 0, 59, 90
2, 169344, Note_on_c, 0, 69, 80
2, 169474, Note_on_c, 0, 64, 0
2, 169474, Note_on_c, 0, 71, 0
2, 169478, Note_on_c, 0, 64, 68
2, 169484, Note_on_c, 0, 71, 62
2, 169597, Note_on_c, 0, 52, 0
2, 169597, Note_on_c, 0, 64, 0
2, 169601, Note_on_c, 0, 64, 72
2, 169608, Note_on_c, 0, 52, 67
2, 169735, Note_on_c, 0, 59, 0
2, 169735, Note_on_c, 0, 69, 0
2, 169735, Note_on_c, 0, 71, 0
2, 169735, Note_on_c, 0, 76, 0
2, 169742, Note_on_c, 0, 76, 96
2, 169742, Note_on_c, 0, 71, 85
2, 169743, Note_on_c, 0, 59, 86
2, 169746, Note_on_c, 0, 69, 77
2, 169866, Note_on_c, 0, 64, 0
2, 169875, Note_on_c, 0, 64, 73
2, 169981, Note_on_c, 0, 64, 0
2, 169985, Note_on_c, 0, 64, 71
2, 169996, Note_on_c, 0, 52, 0
2, 170000, Note_on_c, 0, 52, 76
2, 170119, Note_on_c, 0, 59, 0
2, 170119, Note_on_c, 0, 69, 0
2, 170119, Note_on_c, 0, 71, 0
2, 170119, Note_on_c, 0, 76, 0
2, 170125, Note_on_c, 0, 71, 91
2, 170125, Note_on_c, 0, 76, 103
2, 170127, Note_on_c, 0, 69, 87
2, 170130, Note_on_c, 0, 59, 80
2, 170135, Control_c, 0, 64, 0
2, 170158, Control_c, 0, 64, 127
2, 170188, Note_on_c, 0, 40, 0
2, 170242, Note_on_c, 0, 64, 0
2, 170251, Note_on_c, 0, 64, 75
2, 170273, Note_on_c, 0, 59, 0
2, 170281, Note_on_c, 0, 59, 66
2, 170373, Note_on_c, 0, 69, 0
2, 170373, Note_on_c, 0, 71, 0
2, 170373, Note_on_c, 0, 76, 0
2, 170380, Note_on_c, 0, 52, 0
2, 170380, Note_on_c, 0, 59, 0
2, 170382, Note_on_c, 0, 76, 100
2, 170382, Note_on_c, 0, 71, 85
2, 170384, Note_on_c, 0, 69, 82
2, 170384, Note_on_c, 0, 52, 78
2, 170389, Note_on_c, 0, 59, 74
2, 170496, Note_on_c, 0, 64, 0
2, 170501, Note_on_c, 0, 64, 82
2, 170627, Note_on_c, 0, 69, 0
2, 170631, Control_c, 0, 64, 0
2, 170641, Note_on_c, 0, 59, 0
2, 170649, Note_on_c, 0, 64, 0
2, 170649, Note_on_c, 0, 71, 0
2, 170649, Note_on_c, 0, 76, 0
2, 170653, Note_on_c, 0, 80, 100
2, 170653, Note_on_c, 0, 59, 83
2, 170653, Note_on_c, 0, 64, 75
2, 170653, Note_on_c, 0, 71, 90
2, 170655, Note_on_c, 0, 76, 79
2, 170695, Control_c, 0, 64, 127
2, 170780, Note_on_c, 0, 80, 0
2, 170787, Note_on_c, 0, 64, 0
2, 170787, Note_on_c, 0, 76, 0
2, 170790, Note_on_c, 0, 80, 78
2, 170793, Note_on_c, 0, 76, 61
2, 170794, Note_on_c, 0, 64, 63
2, 170795, Note_on_c, 0, 71, 0
2, 170802, Note_on_c, 0, 71, 63
2, 170903, Note_on_c, 0, 64, 0
2, 170910, Note_on_c, 0, 64, 65
2, 170910, Note_on_c, 0, 71, 0
2, 170910, Note_on_c, 0, 80, 0
2, 170916, Note_on_c, 0, 71, 60
2, 170920, Note_on_c, 0, 80, 68
2, 171041, Note_on_c, 0, 80, 0
2, 171048, Note_on_c, 0, 80, 75
2, 171048, Note_on_c, 0, 64, 0
2, 171048, Note_on_c, 0, 71, 0
2, 171056, Note_on_c, 0, 64, 51
2, 171060, Note_on_c, 0, 71, 64
2, 171171, Note_on_c, 0, 64, 0
2, 171171, Note_on_c, 0, 71, 0
2, 171171, Note_on_c, 0, 80, 0
2, 171177, Note_on_c, 0, 64, 65
2, 171178, Note_on_c, 0, 80, 66
2, 171179, Note_on_c, 0, 71, 59
2, 171294, Note_on_c, 0, 64, 0
2, 171302, Note_on_c, 0, 80, 0
2, 171304, Note_on_c, 0, 64, 61
2, 171308, Note_on_c, 0, 80, 75
2, 171310, Note_on_c, 0, 71, 0
2, 171321, Note_on_c, 0, 71, 61
2, 171425, Note_on_c, 0, 80, 0
2, 171432, Note_on_c, 0, 64, 0
2, 171432, Note_on_c, 0, 71, 0
2, 171436, Note_on_c, 0, 80, 89
2, 171437, Note_on_c, 0, 64, 80
2, 171439, Note_on_c, 0, 71, 73
2, 171563, Note_on_c, 0, 64, 0
2, 171563, Note_on_c, 0, 71, 0
2, 171563, Note_on_c, 0, 80, 0
2, 171568, Note_on_c, 0, 80, 93
2, 171573, Note_on_c, 0, 64, 72
2, 171574, Note_on_c, 0, 71, 75
2, 171699, Note_on_c, 0, 81, 101
2, 171701, Note_on_c, 0, 64, 0
2, 171701, Note_on_c, 0, 71, 0
2, 171709, Note_on_c, 0, 64, 89
2, 171710, Note_on_c, 0, 71, 84
2, 171824, Note_on_c, 0, 81, 0
2, 171832, Note_on_c, 0, 64, 0
2, 171832, Note_on_c, 0, 71, 0
2, 171836, Note_on_c, 0, 81, 94
2, 171840, Note_on_c, 0, 64, 77
2, 171842, Note_on_c, 0, 71, 82
2, 171955, Note_on_c, 0, 81, 0
2, 171962, Note_on_c, 0, 64, 0
2, 171962, Note_on_c, 0, 71, 0
2, 171966, Note_on_c, 0, 81, 101
2, 171968, Note_on_c, 0, 64, 73
2, 171971, Note_on_c, 0, 71, 76
2, 172093, Note_on_c, 0, 64, 0
2, 172093, Note_on_c, 0, 71, 0
2, 172093, Note_on_c, 0, 81, 0
2, 172097, Note_on_c, 0, 81, 101
2, 172098, Note_on_c, 0, 64, 85
2, 172102, Note_on_c, 0, 71, 84
2, 172219, Control_c, 0, 64, 0
2, 172231, Note_on_c, 0, 64, 0
2, 172231, Note_on_c, 0, 71, 0
2, 172237, Note_on_c, 0, 83, 103
2, 172238, Note_on_c, 0, 64, 94
2, 172239, Control_c, 0, 64, 127
2, 172241, Note_on_c, 0, 71, 93
2, 172362, Note_on_c, 0, 71, 0
2, 172362, Note_on_c, 0, 83, 0
2, 172370, Note_on_c, 0, 83, 98
2, 172373, Note_on_c, 0, 71, 77
2, 172500, Note_on_c, 0, 71, 0
2, 172500, Note_on_c, 0, 83, 0
2, 172510, Note_on_c, 0, 83, 92
2, 172511, Note_on_c, 0, 71, 72
2, 172623, Note_on_c, 0, 71, 0
2, 172631, Note_on_c, 0, 71, 60
2, 172753, Note_on_c, 0, 52, 0
2, 172762, Note_on_c, 0, 80, 0
2, 172763, Note_on_c, 0, 71, 0
2, 172764, Note_on_c, 0, 81, 0
2, 172764, Note_on_c, 0, 83, 0
2, 172765, Control_c, 0, 64, 0
2, 172769, Note_on_c, 0, 59, 0
2, 172781, Note_on_c, 0, 69, 70
2, 172792, Note_on_c, 0, 64, 0
2, 172792, Note_on_c, 0, 76, 0
2, 172796, Note_on_c, 0, 64, 58
2, 172799, Note_on_c, 0, 76, 60
2, 172799, Note_on_c, 0, 61, 55
2, 173080, Note_on_c, 0, 81, 50
2, 173137, Control_c, 0, 64, 127
2, 173230, Note_on_c, 0, 76, 0
2, 173332, Note_on_c, 0, 83, 54
2, 173611, Note_on_c, 0, 76, 60
2, 173721, Note_on_c, 0, 76, 0
2, 173727, Note_on_c, 0, 76, 60
2, 173867, Note_on_c, 0, 81, 0
2, 173875, Note_on_c, 0, 62, 46
2, 173878, Note_on_c, 0, 81, 53
2, 173883, Control_c, 0, 64, 0
2, 173884, Note_on_c, 0, 83, 0
2, 173885, Note_on_c, 0, 61, 0
2, 173885, Note_on_c, 0, 66, 49
2, 173886, Note_on_c, 0, 64, 0
2, 174090, Control_c, 0, 64, 127
2, 174136, Note_on_c, 0, 76, 0
2, 174146, Note_on_c, 0, 83, 44
2, 174417, Note_on_c, 0, 76, 45
2, 174666, Note_on_c, 0, 69, 0
2, 174673, Note_on_c, 0, 81, 0
2, 174677, Note_on_c, 0, 69, 59
2, 174680, Note_on_c, 0, 81, 56
2, 174969, Note_on_c, 0, 71, 56
2, 174981, Note_on_c, 0, 76, 0
2, 174983, Note_on_c, 0, 64, 45
2, 174984, Note_on_c, 0, 76, 48
2, 174985, Note_on_c, 0, 68, 42
2, 174985, Note_on_c, 0, 83, 0
2, 174986, Note_on_c, 0, 62, 0
2, 174989, Note_on_c, 0, 69, 0
2, 174991, Note_on_c, 0, 66, 0
2, 174991, Note_on_c, 0, 81, 0
2, 174991, Control_c, 0, 64, 0
2, 175234, Note_on_c, 0, 81, 51
2, 175522, Note_on_c, 0, 83, 49
2, 175654, Note_on_c, 0, 73, 59
2, 175741, Note_on_c, 0, 76, 0
2, 175787, Note_on_c, 0, 71, 0
2, 175791, Note_on_c, 0, 71, 51
2, 175802, Note_on_c, 0, 73, 0
2, 175813, Note_on_c, 0, 76, 52
2, 175932, Note_on_c, 0, 69, 56
2, 176040, Note_on_c, 0, 81, 0
2, 176050, Note_on_c, 0, 81, 62
2, 176064, Note_on_c, 0, 83, 0
2, 176073, Note_on_c, 0, 66, 53
2, 176094, Note_on_c, 0, 71, 0
2, 176117, Note_on_c, 0, 68, 0
2, 176117, Note_on_c, 0, 76, 0
2, 176314, Note_on_c, 0, 83, 55
2, 176317, Control_c, 0, 64, 127
2, 176593, Note_on_c, 0, 76, 52
2, 176632, Note_on_c, 0, 81, 0
2, 176848, Note_on_c, 0, 81, 62
2, 177116, Note_on_c, 0, 69, 0
2, 177126, Note_on_c, 0, 69, 54
2, 177129, Note_on_c, 0, 66, 0
2, 177130, Note_on_c, 0, 81, 0
2, 177134, Control_c, 0, 64, 0
2, 177139, Note_on_c, 0, 64, 0
2, 177139, Note_on_c, 0, 76, 0
2, 177147, Note_on_c, 0, 76, 50
2, 177149, Note_on_c, 0, 61, 46
2, 177149, Note_on_c, 0, 64, 53
2, 177162, Note_on_c, 0, 83, 0
2, 177338, Control_c, 0, 64, 127
2, 177392, Note_on_c, 0, 81, 53
2, 177515, Note_on_c, 0, 76, 0
2, 177670, Note_on_c, 0, 83, 60
2, 177928, Note_on_c, 0, 76, 61
2, 178068, Note_on_c, 0, 76, 0
2, 178078, Note_on_c, 0, 76, 51
2, 178150, Note_on_c, 0, 83, 0
2, 178150, Note_on_c, 0, 61, 0
2, 178152, Note_on_c, 0, 64, 0
2, 178153, Note_on_c, 0, 81, 0
2, 178154, Control_c, 0, 64, 0
2, 178179, Note_on_c, 0, 66, 50
2, 178186, Note_on_c, 0, 62, 46
2, 178204, Note_on_c, 0, 81, 56
2, 178321, Control_c, 0, 64, 127
2, 178398, Note_on_c, 0, 76, 0
2, 178471, Note_on_c, 0, 83, 50
2, 178734, Note_on_c, 0, 76, 54
2, 178997, Note_on_c, 0, 69, 0
2, 178997, Note_on_c, 0, 81, 0
2, 179003, Note_on_c, 0, 81, 59
2, 179008, Note_on_c, 0, 69, 58
2, 179281, Note_on_c, 0, 76, 0
2, 179282, Note_on_c, 0, 68, 60
2, 179283, Note_on_c, 0, 71, 61
2, 179286, Note_on_c, 0, 76, 52
2, 179287, Note_on_c, 0, 64, 53
2, 179298, Note_on_c, 0, 62, 0
2, 179299, Note_on_c, 0, 66, 0
2, 179299, Note_on_c, 0, 83, 0
2, 179300, Control_c, 0, 64, 0
2, 179300, Note_on_c, 0, 69, 0
2, 179300, Note_on_c, 0, 81, 0
2, 179559, Note_on_c, 0, 81, 54
2, 179658, Control_c, 0, 64, 127
2, 179830, Note_on_c, 0, 83, 53
2, 179934, Note_on_c, 0, 76, 0
2, 179973, Note_on_c, 0, 73, 61
2, 180088, Note_on_c, 0, 71, 0
2, 180092, Note_on_c, 0, 71, 67
2, 180104, Note_on_c, 0, 76, 50
2, 180169, Control_c, 0, 64, 0
2, 180188, Control_c, 0, 64, 127
2, 180223, Note_on_c, 0, 69, 60
2, 180280, Note_on_c, 0, 81, 0
2, 180311, Note_on_c, 0, 73, 0
2, 180311, Note_on_c, 0, 76, 0
2, 180316, Control_c, 0, 64, 0
2, 180329, Note_on_c, 0, 71, 0
2, 180341, Note_on_c, 0, 83, 0
2, 180375, Note_on_c, 0, 81, 59
2, 180376, Note_on_c, 0, 66, 52
2, 180418, Note_on_c, 0, 68, 0
2, 180618, Control_c, 0, 64, 127
2, 180635, Note_on_c, 0, 83, 53
2, 180929, Note_on_c, 0, 76, 52
2, 181163, Note_on_c, 0, 81, 0
2, 181170, Note_on_c, 0, 81, 55
2, 181430, Control_c, 0, 64, 0
2, 181433, Note_on_c, 0, 69, 0
2, 181433, Note_on_c, 0, 66, 0
2, 181433, Note_on_c, 0, 83, 0
2, 181435, Note_on_c, 0, 81, 0
2, 181435, Note_on_c, 0, 88, 73
2, 181436, Note_on_c, 0, 61, 48
2, 181440, Note_on_c, 0, 76, 0
2, 181443, Note_on_c, 0, 76, 52
2, 181516, Control_c, 0, 64, 127
2, 181557, Note_on_c, 0, 69, 52
2, 181716, Note_on_c, 0, 81, 57
2, 181808, Note_on_c, 0, 69, 0
2, 181817, Note_on_c, 0, 69, 47
2, 181981, Note_on_c, 0, 83, 46
2, 182229, Note_on_c, 0, 92, 77
2, 182246, Note_on_c, 0, 76, 0
2, 182250, Note_on_c, 0, 76, 59
2, 182365, Note_on_c, 0, 93, 79
2, 182400, Note_on_c, 0, 64, 0
2, 182480, Note_on_c, 0, 69, 0
2, 182481, Control_c, 0, 64, 0
2, 182481, Note_on_c, 0, 83, 0
2, 182481, Note_on_c, 0, 61, 0
2, 182481, Note_on_c, 0, 76, 0
2, 182482, Note_on_c, 0, 88, 0
2, 182492, Note_on_c, 0, 81, 0
2, 182496, Note_on_c, 0, 81, 62
2, 182522, Note_on_c, 0, 92, 0
2, 182527, Note_on_c, 0, 62, 55
2, 182568, Control_c, 0, 64, 127
2, 182701, Note_on_c, 0, 69, 39
2, 182745, Note_on_c, 0, 93, 0
2, 182757, Note_on_c, 0, 83, 66
2, 183021, Note_on_c, 0, 76, 56
2, 183275, Note_on_c, 0, 81, 0
2, 183285, Note_on_c, 0, 81, 61
2, 183286, Note_on_c, 0, 88, 71
2, 183546, Note_on_c, 0, 69, 0
2, 183547, Note_on_c, 0, 62, 0
2, 183547, Control_c, 0, 64, 0
2, 183547, Note_on_c, 0, 83, 0
2, 183548, Note_on_c, 0, 81, 0
2, 183549, Note_on_c, 0, 88, 0
2, 183559, Note_on_c, 0, 95, 74
2, 183559, Note_on_c, 0, 76, 0
2, 183568, Note_on_c, 0, 76, 68
2, 183569, Note_on_c, 0, 64, 58
2, 183644, Control_c, 0, 64, 127
2, 183707, Note_on_c, 0, 71, 54
2, 183835, Note_on_c, 0, 81, 62
2, 183959, Note_on_c, 0, 71, 0
2, 183969, Control_c, 0, 64, 0
2, 183969, Note_on_c, 0, 71, 33
2, 184005, Control_c, 0, 64, 127
2, 184116, Note_on_c, 0, 83, 53
2, 184254, Note_on_c, 0, 97, 75
2, 184384, Note_on_c, 0, 98, 78
2, 184389, Note_on_c, 0, 76, 0
2, 184389, Note_on_c, 0, 98, 0
2, 184395, Note_on_c, 0, 76, 46
2, 184504, Note_on_c, 0, 97, 0
2, 184513, Note_on_c, 0, 97, 79
2, 184595, Control_c, 0, 64, 0
2, 184597, Note_on_c, 0, 97, 0
2, 184597, Note_on_c, 0, 71, 0
2, 184598, Note_on_c, 0, 83, 0
2, 184598, Note_on_c, 0, 95, 0
2, 184599, Note_on_c, 0, 64, 0
2, 184599, Note_on_c, 0, 76, 0
2, 184619, Note_on_c, 0, 66, 63
2, 184619, Note_on_c, 0, 81, 0
2, 184623, Note_on_c, 0, 81, 65
2, 184688, Control_c, 0, 64, 127
2, 184769, Note_on_c, 0, 69, 48
2, 184897, Note_on_c, 0, 83, 65
2, 185018, Note_on_c, 0, 69, 0
2, 185025, Note_on_c, 0, 69, 45
2, 185184, Note_on_c, 0, 76, 51
2, 185425, Note_on_c, 0, 81, 0
2, 185430, Note_on_c, 0, 81, 54
2, 185717, Note_on_c, 0, 69, 0
2, 185719, Note_on_c, 0, 66, 0
2, 185721, Note_on_c, 0, 83, 0
2, 185721, Note_on_c, 0, 81, 0
2, 185722, Control_c, 0, 64, 0
2, 185725, Note_on_c, 0, 69, 49
2, 185745, Note_on_c, 0, 61, 37
2, 185746, Note_on_c, 0, 64, 47
2, 185763, Note_on_c, 0, 76, 0
2, 185773, Note_on_c, 0, 76, 36
2, 185925, Control_c, 0, 64, 127
2, 186020, Note_on_c, 0, 81, 52
2, 186201, Note_on_c, 0, 76, 0
2, 186307, Note_on_c, 0, 83, 43
2, 186581, Note_on_c, 0, 76, 53
2, 186723, Note_on_c, 0, 76, 0
2, 186728, Note_on_c, 0, 76, 63
2, 186848, Note_on_c, 0, 83, 0
2, 186848, Note_on_c, 0, 61, 0
2, 186848, Control_c, 0, 64, 0
2, 186849, Note_on_c, 0, 64, 0
2, 186864, Note_on_c, 0, 66, 43
2, 186866, Note_on_c, 0, 62, 47
2, 186869, Note_on_c, 0, 81, 0
2, 186877, Note_on_c, 0, 81, 48
2, 187054, Control_c, 0, 64, 127
2, 187084, Note_on_c, 0, 76, 0
2, 187124, Note_on_c, 0, 83, 48
2, 187412, Note_on_c, 0, 76, 41
2, 187676, Note_on_c, 0, 69, 0
2, 187676, Note_on_c, 0, 81, 0
2, 187680, Note_on_c, 0, 69, 55
2, 187685, Note_on_c, 0, 81, 51
2, 187952, Note_on_c, 0, 71, 60
2, 187968, Note_on_c, 0, 64, 52
2, 187974, Note_on_c, 0, 68, 50
2, 187975, Note_on_c, 0, 76, 0
2, 187986, Note_on_c, 0, 76, 45
2, 187992, Control_c, 0, 64, 0
2, 187992, Note_on_c, 0, 83, 0
2, 187993, Note_on_c, 0, 62, 0
2, 187994, Note_on_c, 0, 66, 0
2, 187994, Note_on_c, 0, 69, 0
2, 187994, Note_on_c, 0, 81, 0
2, 188233, Note_on_c, 0, 81, 45
2, 188244, Control_c, 0, 64, 127
2, 188514, Note_on_c, 0, 83, 50
2, 188651, Note_on_c, 0, 73, 61
2, 188766, Note_on_c, 0, 71, 0
2, 188771, Note_on_c, 0, 71, 61
2, 188797, Note_on_c, 0, 76, 0
2, 188803, Note_on_c, 0, 76, 46
2, 188932, Note_on_c, 0, 69, 54
2, 188976, Note_on_c, 0, 68, 0
2, 188976, Note_on_c, 0, 73, 0
2, 188976, Note_on_c, 0, 83, 0
2, 188977, Note_on_c, 0, 71, 0
2, 188977, Note_on_c, 0, 76, 0
2, 188978, Note_on_c, 0, 81, 0
2, 188984, Control_c, 0, 64, 0
2, 189063, Note_on_c, 0, 81, 45
2, 189281, Control_c, 0, 64, 127
2, 189331, Note_on_c, 0, 83, 39
2, 189604, Note_on_c, 0, 76, 46
2, 189872, Note_on_c, 0, 81, 0
2, 189877, Note_on_c, 0, 81, 53
2, 190080, Note_on_c, 0, 64, 0
2, 190210, Note_on_c, 0, 52, 40
2, 190228, Note_on_c, 0, 59, 46
2, 190571, Control_c, 0, 64, 0
2, 190694, Control_c, 0, 64, 127
2, 193087, Note_on_c, 0, 28, 37
2, 193313, Note_on_c, 0, 83, 0
2, 193318, Note_on_c, 0, 40, 32
2, 193413, Note_on_c, 0, 28, 0
2, 193423, Note_on_c, 0, 28, 43
2, 193543, Note_on_c, 0, 40, 0
2, 193543, Note_on_c, 0, 69, 0
2, 193555, Note_on_c, 0, 40, 31
2, 193658, Note_on_c, 0, 28, 0
2, 193666, Note_on_c, 0, 40, 0
2, 193669, Note_on_c, 0, 28, 36
2, 193670, Note_on_c, 0, 40, 33
2, 193720, Note_on_c, 0, 40, 0
2, 193731, Note_on_c, 0, 40, 45
2, 193812, Note_on_c, 0, 28, 0
2, 193817, Note_on_c, 0, 28, 51
2, 193873, Note_on_c, 0, 28, 0
2, 193873, Note_on_c, 0, 40, 0
2, 193880, Note_on_c, 0, 28, 54
2, 193880, Note_on_c, 0, 40, 56
2, 193920, Note_on_c, 0, 52, 0
2, 193920, Note_on_c, 0, 59, 0
2, 193920, Note_on_c, 0, 76, 0
2, 193920, Note_on_c, 0, 81, 0
2, 193958, Note_on_c, 0, 28, 0
2, 193966, Note_on_c, 0, 28, 54
2, 194019, Note_on_c, 0, 28, 0
2, 194019, Note_on_c, 0, 40, 0
2, 194028, Note_on_c, 0, 40, 76
2, 194029, Note_on_c, 0, 28, 75
2, 194088, Note_on_c, 0, 40, 0
2, 194096, Note_on_c, 0, 28, 0
2, 194099, Note_on_c, 0, 40, 65
2, 194101, Note_on_c, 0, 28, 64
2, 194150, Note_on_c, 0, 28, 0
2, 194150, Note_on_c, 0, 40, 0
2, 194157, Note_on_c, 0, 28, 66
2, 194159, Note_on_c, 0, 40, 66
2, 194257, Note_on_c, 0, 28, 0
2, 194257, Note_on_c, 0, 40, 0
2, 194265, Note_on_c, 0, 40, 73
2, 194267, Note_on_c, 0, 28, 74
2, 194327, Note_on_c, 0, 28, 0
2, 194338, Note_on_c, 0, 28, 86
2, 194380, Note_on_c, 0, 40, 0
2, 194384, Note_on_c, 0, 40, 75
2, 194442, Note_on_c, 0, 28, 0
2, 194452, Note_on_c, 0, 28, 95
2, 194480, Note_on_c, 0, 40, 0
2, 194485, Note_on_c, 0, 40, 70
2, 194557, Note_on_c, 0, 28, 0
2, 194563, Note_on_c, 0, 28, 87
2, 194564, Note_on_c, 0, 27, 85
2, 194564, Note_on_c, 0, 30, 84
2, 194572, Note_on_c, 0, 27, 0
2, 194572, Note_on_c, 0, 30, 0
2, 194618, Note_on_c, 0, 28, 0
2, 194618, Note_on_c, 0, 40, 0
2, 194623, Note_on_c, 0, 40, 83
2, 194628, Note_on_c, 0, 28, 82
2, 194672, Note_on_c, 0, 28, 0
2, 194676, Note_on_c, 0, 28, 85
2, 194826, Note_on_c, 0, 40, 0
2, 194833, Note_on_c, 0, 28, 0
2, 194836, Note_on_c, 0, 40, 100
2, 194837, Note_on_c, 0, 28, 104
2, 194885, Control_c, 0, 64, 0
2, 194903, Control_c, 0, 64, 127
2, 194972, Note_on_c, 0, 28, 0
2, 194972, Note_on_c, 0, 40, 0
2, 194976, Note_on_c, 0, 40, 85
2, 194976, Note_on_c, 0, 28, 93
2, 195002, Control_c, 0, 64, 0
2, 195072, Note_on_c, 0, 40, 0
2, 195148, Note_on_c, 0, 28, 0
2, 195426, Note_on_c, 0, 66, 110
2, 195426, Note_on_c, 0, 54, 109
2, 195429, Note_on_c, 0, 42, 111
2, 195429, Note_on_c, 0, 30, 105
2, 195430, Note_on_c, 0, 57, 100
2, 195431, Note_on_c, 0, 49, 96
2, 195434, Note_on_c, 0, 61, 95
2, 195471, Control_c, 0, 64, 127
2, 195594, Note_on_c, 0, 54, 0
2, 195602, Note_on_c, 0, 54, 72
2, 195648, Note_on_c, 0, 54, 0
2, 195648, Note_on_c, 0, 57, 0
2, 195654, Note_on_c, 0, 54, 65
2, 195659, Note_on_c, 0, 57, 82
2, 195694, Note_on_c, 0, 61, 0
2, 195699, Note_on_c, 0, 61, 86
2, 195786, Note_on_c, 0, 66, 0
2, 195790, Note_on_c, 0, 66, 84
2, 195852, Note_on_c, 0, 69, 76
2, 195897, Note_on_c, 0, 73, 65
2, 195901, Note_on_c, 0, 61, 0
2, 195901, Note_on_c, 0, 73, 0
2, 195909, Note_on_c, 0, 49, 0
2, 195909, Note_on_c, 0, 61, 80
2, 195913, Note_on_c, 0, 49, 75
2, 195924, Note_on_c, 0, 57, 0
2, 195935, Note_on_c, 0, 57, 78
2, 195947, Note_on_c, 0, 54, 0
2, 195957, Note_on_c, 0, 54, 80
2, 195959, Note_on_c, 0, 78, 96
2, 196031, Note_on_c, 0, 73, 83
2, 196078, Note_on_c, 0, 57, 0
2, 196078, Note_on_c, 0, 69, 0
2, 196082, Note_on_c, 0, 69, 79
2, 196086, Note_on_c, 0, 57, 78
2, 196116, Note_on_c, 0, 66, 0
2, 196122, Note_on_c, 0, 66, 77
2, 196208, Note_on_c, 0, 54, 0
2, 196217, Note_on_c, 0, 76, 109
2, 196218, Note_on_c, 0, 54, 83
2, 196219, Note_on_c, 0, 64, 104
2, 196293, Note_on_c, 0, 57, 0
2, 196297, Note_on_c, 0, 57, 88
2, 196385, Note_on_c, 0, 61, 0
2, 196389, Note_on_c, 0, 61, 88
2, 196469, Note_on_c, 0, 66, 0
2, 196469, Note_on_c, 0, 78, 0
2, 196473, Note_on_c, 0, 86, 106
2, 196475, Note_on_c, 0, 74, 110
2, 196480, Note_on_c, 0, 66, 106
2, 196480, Note_on_c, 0, 78, 104
2, 196730, Note_on_c, 0, 57, 0
2, 196730, Note_on_c, 0, 73, 0
2, 196732, Note_on_c, 0, 85, 105
2, 196737, Note_on_c, 0, 57, 85
2, 196738, Note_on_c, 0, 73, 100
2, 196869, Note_on_c, 0, 61, 0
2, 196869, Note_on_c, 0, 66, 0
2, 196869, Note_on_c, 0, 78, 0
2, 196872, Note_on_c, 0, 61, 82
2, 196874, Note_on_c, 0, 66, 101
2, 196875, Note_on_c, 0, 83, 110
2, 196879, Note_on_c, 0, 78, 104
2, 196880, Note_on_c, 0, 71, 100
2, 197137, Note_on_c, 0, 69, 0
2, 197142, Note_on_c, 0, 81, 111
2, 197147, Note_on_c, 0, 69, 101
2, 197260, Note_on_c, 0, 54, 0
2, 197271, Note_on_c, 0, 54, 85
2, 197399, Note_on_c, 0, 71, 0
2, 197399, Note_on_c, 0, 83, 0
2, 197405, Note_on_c, 0, 83, 114
2, 197406, Note_on_c, 0, 76, 0
2, 197409, Note_on_c, 0, 71, 110
2, 197410, Note_on_c, 0, 80, 108
2, 197410, Note_on_c, 0, 76, 106
2, 197451, Control_c, 0, 64, 0
2, 197453, Note_on_c, 0, 57, 0
2, 197453, Note_on_c, 0, 61, 0
2, 197453, Note_on_c, 0, 73, 0
2, 197453, Note_on_c, 0, 64, 0
2, 197453, Note_on_c, 0, 85, 0
2, 197454, Note_on_c, 0, 69, 0
2, 197454, Note_on_c, 0, 66, 0
2, 197454, Note_on_c, 0, 86, 0
2, 197455, Note_on_c, 0, 81, 0
2, 197455, Note_on_c, 0, 42, 0
2, 197455, Note_on_c, 0, 74, 0
2, 197455, Note_on_c, 0, 78, 0
2, 197460, Note_on_c, 0, 30, 0
2, 197460, Note_on_c, 0, 49, 0
2, 197468, Note_on_c, 0, 54, 0
2, 197514, Control_c, 0, 64, 127
2, 197524, Note_on_c, 0, 44, 103
2, 197525, Note_on_c, 0, 32, 97
2, 197734, Note_on_c, 0, 56, 84
2, 197790, Note_on_c, 0, 44, 0
2, 197798, Note_on_c, 0, 44, 81
2, 197807, Note_on_c, 0, 52, 78
2, 197810, Note_on_c, 0, 64, 87
2, 197921, Note_on_c, 0, 56, 0
2, 197929, Note_on_c, 0, 68, 85
2, 197930, Note_on_c, 0, 56, 76
2, 197932, Note_on_c, 0, 59, 69
2, 197990, Note_on_c, 0, 71, 0
2, 198000, Note_on_c, 0, 71, 82
2, 198036, Note_on_c, 0, 64, 0
2, 198044, Note_on_c, 0, 52, 0
2, 198044, Note_on_c, 0, 56, 0
2, 198044, Note_on_c, 0, 59, 0
2, 198045, Note_on_c, 0, 64, 86
2, 198050, Note_on_c, 0, 56, 95
2, 198053, Note_on_c, 0, 59, 77
2, 198054, Note_on_c, 0, 52, 89
2, 198067, Note_on_c, 0, 76, 0
2, 198074, Note_on_c, 0, 76, 72
2, 198074, Note_on_c, 0, 80, 0
2, 198078, Note_on_c, 0, 80, 99
2, 198167, Note_on_c, 0, 76, 0
2, 198178, Note_on_c, 0, 76, 71
2, 198197, Note_on_c, 0, 71, 0
2, 198208, Note_on_c, 0, 71, 76
2, 198320, Note_on_c, 0, 52, 0
2, 198320, Note_on_c, 0, 68, 0
2, 198320, Note_on_c, 0, 76, 0
2, 198325, Note_on_c, 0, 68, 87
2, 198325, Note_on_c, 0, 76, 107
2, 198328, Note_on_c, 0, 64, 0
2, 198331, Note_on_c, 0, 52, 80
2, 198334, Note_on_c, 0, 64, 94
2, 198336, Note_on_c, 0, 56, 0
2, 198342, Note_on_c, 0, 56, 60
2, 198389, Note_on_c, 0, 59, 0
2, 198397, Note_on_c, 0, 59, 86
2, 198481, Note_on_c, 0, 64, 0
2, 198490, Note_on_c, 0, 64, 65
2, 198581, Note_on_c, 0, 68, 0
2, 198581, Note_on_c, 0, 76, 0
2, 198586, Note_on_c, 0, 85, 111
2, 198588, Note_on_c, 0, 68, 102
2, 198590, Note_on_c, 0, 73, 110
2, 198591, Note_on_c, 0, 76, 103
2, 198842, Note_on_c, 0, 71, 0
2, 198842, Note_on_c, 0, 83, 0
2, 198847, Note_on_c, 0, 83, 102
2, 198850, Note_on_c, 0, 59, 0
2, 198852, Note_on_c, 0, 71, 94
2, 198854, Note_on_c, 0, 59, 79
2, 198958, Note_on_c, 0, 64, 0
2, 198958, Note_on_c, 0, 68, 0
2, 198964, Note_on_c, 0, 68, 101
2, 198966, Note_on_c, 0, 64, 91
2, 198973, Note_on_c, 0, 81, 110
2, 198981, Note_on_c, 0, 76, 0
2, 198988, Note_on_c, 0, 76, 99
2, 198991, Note_on_c, 0, 69, 99
2, 199226, Note_on_c, 0, 80, 0
2, 199233, Note_on_c, 0, 80, 111
2, 199234, Note_on_c, 0, 68, 0
2, 199239, Note_on_c, 0, 68, 107
2, 199269, Note_on_c, 0, 78, 66
2, 199334, Note_on_c, 0, 56, 0
2, 199345, Note_on_c, 0, 56, 84
2, 199488, Note_on_c, 0, 69, 0
2, 199488, Note_on_c, 0, 78, 0
2, 199493, Note_on_c, 0, 74, 103
2, 199495, Note_on_c, 0, 66, 106
2, 199497, Note_on_c, 0, 69, 86
2, 199498, Note_on_c, 0, 78, 108
2, 199518, Control_c, 0, 64, 0
2, 199522, Note_on_c, 0, 73, 0
2, 199522, Note_on_c, 0, 85, 0
2, 199522, Note_on_c, 0, 59, 0
2, 199523, Note_on_c, 0, 71, 0
2, 199523, Note_on_c, 0, 83, 0
2, 199523, Note_on_c, 0, 68, 0
2, 199523, Note_on_c, 0, 80, 0
2, 199523, Note_on_c, 0, 64, 0
2, 199523, Note_on_c, 0, 76, 0
2, 199523, Note_on_c, 0, 52, 0
2, 199523, Note_on_c, 0, 81, 0
2, 199523, Note_on_c, 0, 56, 0
2, 199524, Note_on_c, 0, 44, 0
2, 199534, Note_on_c, 0, 32, 0
2, 199587, Control_c, 0, 64, 127
2, 199615, Note_on_c, 0, 50, 92
2, 199618, Note_on_c, 0, 38, 95
2, 199863, Note_on_c, 0, 54, 79
2, 200002, Note_on_c, 0, 69, 0
2, 200002, Note_on_c, 0, 74, 0
2, 200010, Note_on_c, 0, 62, 101
2, 200013, Note_on_c, 0, 74, 94
2, 200013, Note_on_c, 0, 69, 75
2, 200017, Note_on_c, 0, 66, 0
2, 200027, Note_on_c, 0, 66, 87
2, 200278, Note_on_c, 0, 57, 82
2, 200409, Note_on_c, 0, 62, 0
2, 200414, Note_on_c, 0, 62, 65
2, 200668, Note_on_c, 0, 69, 0
2, 200668, Note_on_c, 0, 62, 0
2, 200668, Note_on_c, 0, 66, 0
2, 200668, Note_on_c, 0, 74, 0
2, 200668, Note_on_c, 0, 50, 0
2, 200669, Note_on_c, 0, 54, 0
2, 200669, Note_on_c, 0, 57, 0
2, 200670, Note_on_c, 0, 38, 0
2, 200673, Control_c, 0, 64, 0
2, 200677, Note_on_c, 0, 80, 107
2, 200686, Note_on_c, 0, 68, 101
2, 200688, Note_on_c, 0, 71, 93
2, 200688, Note_on_c, 0, 76, 94
2, 200689, Note_on_c, 0, 40, 100
2, 200701, Note_on_c, 0, 78, 0
2, 200739, Control_c, 0, 64, 127
2, 200933, Note_on_c, 0, 56, 83
2, 201085, Note_on_c, 0, 68, 0
2, 201087, Note_on_c, 0, 64, 101
2, 201093, Note_on_c, 0, 71, 0
2, 201095, Note_on_c, 0, 68, 88
2, 201097, Note_on_c, 0, 52, 79
2, 201098, Note_on_c, 0, 71, 76
2, 201363, Note_on_c, 0, 59, 81
2, 201484, Note_on_c, 0, 52, 0
2, 201489, Note_on_c, 0, 52, 99
2, 201490, Note_on_c, 0, 81, 107
2, 201495, Note_on_c, 0, 69, 96
2, 201607, Note_on_c, 0, 81, 0
2, 201615, Note_on_c, 0, 69, 0
2, 201619, Note_on_c, 0, 81, 110
2, 201622, Note_on_c, 0, 69, 102
2, 201626, Note_on_c, 0, 73, 102
2, 201627, Note_on_c, 0, 78, 96
2, 201680, Note_on_c, 0, 59, 0
2, 201681, Note_on_c, 0, 56, 0
2, 201681, Note_on_c, 0, 52, 0
2, 201681, Note_on_c, 0, 71, 0
2, 201681, Note_on_c, 0, 80, 0
2, 201681, Note_on_c, 0, 64, 0
2, 201683, Control_c, 0, 64, 0
2, 201684, Note_on_c, 0, 40, 0
2, 201692, Note_on_c, 0, 68, 0
2, 201692, Note_on_c, 0, 76, 0
2, 201744, Note_on_c, 0, 30, 99
2, 201746, Note_on_c, 0, 42, 99
2, 201753, Control_c, 0, 64, 127
2, 202005, Note_on_c, 0, 54, 75
2, 202007, Note_on_c, 0, 42, 0
2, 202009, Note_on_c, 0, 49, 82
2, 202012, Note_on_c, 0, 42, 74
2, 202014, Note_on_c, 0, 54, 0
2, 202145, Note_on_c, 0, 30, 0
2, 202145, Note_on_c, 0, 42, 0
2, 202150, Note_on_c, 0, 42, 99
2, 202151, Note_on_c, 0, 30, 92
2, 202391, Note_on_c, 0, 49, 0
2, 202398, Note_on_c, 0, 49, 81
2, 202401, Note_on_c, 0, 42, 0
2, 202494, Note_on_c, 0, 30, 0
2, 202496, Note_on_c, 0, 49, 0
2, 202496, Note_on_c, 0, 73, 0
2, 202499, Note_on_c, 0, 78, 0
2, 202501, Control_c, 0, 64, 0
2, 202513, Note_on_c, 0, 69, 0
2, 202513, Note_on_c, 0, 81, 0
2, 202537, Note_on_c, 0, 64, 103
2, 202539, Note_on_c, 0, 68, 107
2, 202539, Note_on_c, 0, 76, 106
2, 202542, Note_on_c, 0, 44, 100
2, 202543, Note_on_c, 0, 32, 93
2, 202544, Note_on_c, 0, 73, 90
2, 202583, Control_c, 0, 64, 127
2, 202782, Note_on_c, 0, 73, 0
2, 202788, Note_on_c, 0, 85, 109
2, 202790, Note_on_c, 0, 76, 0
2, 202793, Note_on_c, 0, 73, 107
2, 202795, Note_on_c, 0, 56, 90
2, 202796, Note_on_c, 0, 76, 97
2, 202801, Note_on_c, 0, 52, 77
2, 202920, Note_on_c, 0, 32, 0
2, 202920, Note_on_c, 0, 44, 0
2, 202931, Note_on_c, 0, 44, 99
2, 202931, Note_on_c, 0, 32, 87
2, 203159, Note_on_c, 0, 52, 0
2, 203159, Note_on_c, 0, 56, 0
2, 203167, Note_on_c, 0, 52, 86
2, 203168, Note_on_c, 0, 64, 0
2, 203170, Note_on_c, 0, 56, 74
2, 203291, Note_on_c, 0, 68, 0
2, 203292, Note_on_c, 0, 56, 0
2, 203292, Note_on_c, 0, 44, 0
2, 203292, Note_on_c, 0, 73, 0
2, 203296, Control_c, 0, 64, 0
2, 203320, Note_on_c, 0, 52, 0
2, 203324, Note_on_c, 0, 52, 105
2, 203325, Note_on_c, 0, 40, 107
2, 203327, Note_on_c, 0, 28, 91
2, 203335, Note_on_c, 0, 28, 0
2, 203335, Control_c, 0, 64, 127
2, 203579, Note_on_c, 0, 64, 92
2, 203583, Note_on_c, 0, 86, 103
2, 203584, Note_on_c, 0, 74, 103
2, 203585, Note_on_c, 0, 56, 73
2, 203673, Note_on_c, 0, 32, 0
2, 203712, Note_on_c, 0, 85, 0
2, 203721, Note_on_c, 0, 85, 110
2, 203723, Note_on_c, 0, 73, 110
2, 203727, Note_on_c, 0, 76, 0
2, 203735, Note_on_c, 0, 76, 100
2, 203781, Note_on_c, 0, 74, 0
2, 203782, Note_on_c, 0, 56, 0
2, 203782, Note_on_c, 0, 64, 0
2, 203782, Note_on_c, 0, 52, 0
2, 203784, Note_on_c, 0, 86, 0
2, 203784, Control_c, 0, 64, 0
2, 203804, Note_on_c, 0, 40, 0
2, 203858, Note_on_c, 0, 33, 91
2, 203859, Note_on_c, 0, 45, 96
2, 203863, Note_on_c, 0, 69, 84
2, 203873, Note_on_c, 0, 69, 0
2, 203919, Control_c, 0, 64, 127
2, 204122, Note_on_c, 0, 69, 65
2, 204241, Note_on_c, 0, 76, 0
2, 204246, Note_on_c, 0, 76, 69
2, 204384, Note_on_c, 0, 81, 76
2, 204518, Note_on_c, 0, 76, 0
2, 204528, Note_on_c, 0, 76, 62
2, 204641, Note_on_c, 0, 69, 0
2, 204644, Note_on_c, 0, 52, 86
2, 204652, Note_on_c, 0, 69, 67
2, 204787, Note_on_c, 0, 76, 0
2, 204791, Note_on_c, 0, 76, 59
2, 204912, Note_on_c, 0, 62, 97
2, 204917, Note_on_c, 0, 81, 0
2, 204922, Note_on_c, 0, 81, 76
2, 205079, Note_on_c, 0, 76, 0
2, 205088, Note_on_c, 0, 76, 63
2, 205178, Note_on_c, 0, 69, 0
2, 205182, Note_on_c, 0, 61, 92
2, 205186, Note_on_c, 0, 69, 70
2, 205310, Note_on_c, 0, 59, 96
2, 205317, Note_on_c, 0, 76, 0
2, 205322, Note_on_c, 0, 76, 73
2, 205447, Note_on_c, 0, 81, 0
2, 205452, Note_on_c, 0, 81, 83
2, 205570, Note_on_c, 0, 69, 0
2, 205575, Note_on_c, 0, 57, 84
2, 205576, Note_on_c, 0, 69, 74
2, 205693, Note_on_c, 0, 69, 0
2, 205697, Note_on_c, 0, 69, 71
2, 205839, Note_on_c, 0, 59, 0
2, 205846, Note_on_c, 0, 59, 90
2, 205956, Note_on_c, 0, 52, 0
2, 205956, Note_on_c, 0, 76, 0
2, 205956, Note_on_c, 0, 81, 0
2, 205956, Note_on_c, 0, 61, 0
2, 205956, Note_on_c, 0, 59, 0
2, 205956, Note_on_c, 0, 69, 0
2, 205956, Note_on_c, 0, 62, 0
2, 205957, Note_on_c, 0, 85, 0
2, 205957, Note_on_c, 0, 45, 0
2, 205957, Note_on_c, 0, 57, 0
2, 205960, Control_c, 0, 64, 0
2, 205969, Note_on_c, 0, 73, 0
2, 205986, Note_on_c, 0, 32, 74
2, 206062, Control_c, 0, 64, 127
2, 206244, Note_on_c, 0, 71, 69
2, 206379, Note_on_c, 0, 76, 71
2, 206511, Note_on_c, 0, 83, 86
2, 206638, Note_on_c, 0, 76, 0
2, 206644, Note_on_c, 0, 76, 70
2, 206737, Note_on_c, 0, 33, 0
2, 206753, Note_on_c, 0, 76, 0
2, 206758, Note_on_c, 0, 52, 92
2, 206760, Note_on_c, 0, 71, 0
2, 206763, Note_on_c, 0, 76, 69
2, 206771, Note_on_c, 0, 71, 70
2, 206899, Note_on_c, 0, 76, 0
2, 206909, Note_on_c, 0, 76, 65
2, 206938, Note_on_c, 0, 59, 57
2, 207029, Note_on_c, 0, 83, 0
2, 207032, Note_on_c, 0, 61, 98
2, 207039, Note_on_c, 0, 83, 77
2, 207160, Note_on_c, 0, 76, 0
2, 207167, Note_on_c, 0, 76, 66
2, 207283, Note_on_c, 0, 59, 0
2, 207283, Note_on_c, 0, 71, 0
2, 207289, Note_on_c, 0, 59, 91
2, 207292, Note_on_c, 0, 71, 81
2, 207422, Note_on_c, 0, 57, 95
2, 207424, Note_on_c, 0, 69, 84
2, 207429, Note_on_c, 0, 76, 0
2, 207439, Note_on_c, 0, 76, 75
2, 207559, Note_on_c, 0, 83, 0
2, 207569, Note_on_c, 0, 83, 88
2, 207684, Note_on_c, 0, 56, 92
2, 207690, Note_on_c, 0, 76, 0
2, 207701, Note_on_c, 0, 76, 75
2, 207813, Note_on_c, 0, 71, 0
2, 207819, Note_on_c, 0, 71, 81
2, 207943, Note_on_c, 0, 57, 0
2, 207943, Note_on_c, 0, 69, 0
2, 207952, Note_on_c, 0, 69, 82
2, 207953, Note_on_c, 0, 57, 87
2, 208017, Note_on_c, 0, 59, 0
2, 208017, Note_on_c, 0, 61, 0
2, 208017, Note_on_c, 0, 76, 0
2, 208017, Note_on_c, 0, 71, 0
2, 208017, Note_on_c, 0, 56, 0
2, 208017, Control_c, 0, 64, 0
2, 208018, Note_on_c, 0, 52, 0
2, 208018, Note_on_c, 0, 83, 0
2, 208035, Note_on_c, 0, 32, 0
2, 208086, Note_on_c, 0, 42, 71
2, 208086, Note_on_c, 0, 30, 74
2, 208197, Control_c, 0, 64, 127
2, 208320, Note_on_c, 0, 69, 0
2, 208328, Note_on_c, 0, 69, 71
2, 208457, Note_on_c, 0, 76, 77
2, 208585, Note_on_c, 0, 81, 87
2, 208711, Note_on_c, 0, 76, 0
2, 208720, Note_on_c, 0, 76, 60
2, 208842, Note_on_c, 0, 69, 0
2, 208850, Note_on_c, 0, 69, 60
2, 208965, Note_on_c, 0, 76, 0
2, 208975, Note_on_c, 0, 76, 65
2, 209095, Note_on_c, 0, 81, 0
2, 209103, Note_on_c, 0, 81, 85
2, 209233, Note_on_c, 0, 76, 0
2, 209242, Note_on_c, 0, 76, 65
2, 209341, Note_on_c, 0, 69, 0
2, 209352, Note_on_c, 0, 69, 68
2, 209456, Note_on_c, 0, 76, 0
2, 209467, Note_on_c, 0, 76, 70
2, 209597, Control_c, 0, 64, 0
2, 209602, Note_on_c, 0, 57, 0
2, 209602, Note_on_c, 0, 81, 0
2, 209607, Note_on_c, 0, 57, 88
2, 209612, Note_on_c, 0, 81, 96
2, 209612, Note_on_c, 0, 52, 82
2, 209613, Note_on_c, 0, 45, 84
2, 209621, Note_on_c, 0, 73, 85
2, 209633, Control_c, 0, 64, 127
2, 209740, Note_on_c, 0, 69, 0
2, 209751, Note_on_c, 0, 69, 60
2, 209863, Note_on_c, 0, 52, 0
2, 209868, Note_on_c, 0, 64, 76
2, 209872, Note_on_c, 0, 83, 100
2, 209874, Note_on_c, 0, 52, 77
2, 209874, Note_on_c, 0, 74, 96
2, 209875, Note_on_c, 0, 59, 90
2, 209879, Note_on_c, 0, 64, 0
2, 209885, Note_on_c, 0, 56, 58
2, 209894, Note_on_c, 0, 56, 0
2, 209998, Note_on_c, 0, 71, 70
2, 210071, Note_on_c, 0, 45, 0
2, 210071, Note_on_c, 0, 57, 0
2, 210075, Note_on_c, 0, 45, 75
2, 210081, Note_on_c, 0, 57, 75
2, 210090, Note_on_c, 0, 73, 0
2, 210090, Note_on_c, 0, 81, 0
2, 210090, Note_on_c, 0, 69, 0
2, 210090, Note_on_c, 0, 52, 0
2, 210091, Note_on_c, 0, 42, 0
2, 210091, Note_on_c, 0, 74, 0
2, 210091, Note_on_c, 0, 59, 0
2, 210091, Note_on_c, 0, 83, 0
2, 210091, Note_on_c, 0, 71, 0
2, 210092, Control_c, 0, 64, 0
2, 210094, Note_on_c, 0, 30, 0
2, 210124, Note_on_c, 0, 57, 0
2, 210132, Note_on_c, 0, 85, 98
2, 210140, Note_on_c, 0, 76, 0
2, 210149, Note_on_c, 0, 76, 91
2, 210152, Note_on_c, 0, 52, 71
2, 210153, Note_on_c, 0, 61, 94
2, 210170, Control_c, 0, 64, 127
2, 210281, Note_on_c, 0, 73, 71
2, 210385, Note_on_c, 0, 76, 0
2, 210393, Note_on_c, 0, 76, 70
2, 210517, Note_on_c, 0, 83, 101
2, 210518, Note_on_c, 0, 71, 90
2, 210634, Control_c, 0, 64, 0
2, 210634, Note_on_c, 0, 61, 0
2, 210635, Note_on_c, 0, 76, 0
2, 210636, Note_on_c, 0, 52, 0
2, 210636, Note_on_c, 0, 85, 0
2, 210636, Note_on_c, 0, 45, 0
2, 210636, Note_on_c, 0, 73, 0
2, 210637, Note_on_c, 0, 71, 0
2, 210639, Note_on_c, 0, 83, 0
2, 210649, Note_on_c, 0, 83, 102
2, 210652, Note_on_c, 0, 38, 83
2, 210655, Note_on_c, 0, 74, 100
2, 210656, Note_on_c, 0, 50, 79
2, 210700, Control_c, 0, 64, 127
2, 210788, Note_on_c, 0, 71, 75
2, 210900, Note_on_c, 0, 74, 0
2, 210905, Note_on_c, 0, 74, 81
2, 211023, Note_on_c, 0, 71, 0
2, 211023, Note_on_c, 0, 83, 0
2, 211030, Note_on_c, 0, 83, 93
2, 211033, Note_on_c, 0, 71, 80
2, 211125, Note_on_c, 0, 71, 0
2, 211125, Note_on_c, 0, 50, 0
2, 211126, Note_on_c, 0, 83, 0
2, 211126, Note_on_c, 0, 74, 0
2, 211126, Note_on_c, 0, 38, 0
2, 211127, Control_c, 0, 64, 0
2, 211164, Note_on_c, 0, 86, 106
2, 211164, Note_on_c, 0, 52, 82
2, 211166, Note_on_c, 0, 40, 77
2, 211174, Note_on_c, 0, 74, 97
2, 211178, Note_on_c, 0, 78, 94
2, 211200, Control_c, 0, 64, 127
2, 211317, Note_on_c, 0, 54, 64
2, 211330, Note_on_c, 0, 40, 0
2, 211336, Note_on_c, 0, 40, 56
2, 211436, Note_on_c, 0, 56, 66
2, 211560, Note_on_c, 0, 74, 0
2, 211560, Note_on_c, 0, 86, 0
2, 211564, Note_on_c, 0, 86, 103
2, 211564, Note_on_c, 0, 57, 82
2, 211567, Note_on_c, 0, 74, 96
2, 211686, Note_on_c, 0, 59, 85
2, 211687, Control_c, 0, 64, 0
2, 211699, Control_c, 0, 64, 127
2, 211710, Note_on_c, 0, 85, 105
2, 211714, Note_on_c, 0, 73, 100
2, 211819, Note_on_c, 0, 61, 77
2, 211950, Note_on_c, 0, 62, 80
2, 211955, Note_on_c, 0, 83, 96
2, 211956, Note_on_c, 0, 71, 83
2, 212056, Note_on_c, 0, 64, 82
2, 212087, Note_on_c, 0, 81, 105
2, 212090, Note_on_c, 0, 73, 0
2, 212101, Note_on_c, 0, 73, 93
2, 212102, Note_on_c, 0, 69, 82
2, 212155, Control_c, 0, 64, 0
2, 212156, Note_on_c, 0, 57, 0
2, 212156, Note_on_c, 0, 83, 0
2, 212156, Note_on_c, 0, 59, 0
2, 212156, Note_on_c, 0, 62, 0
2, 212156, Note_on_c, 0, 85, 0
2, 212156, Note_on_c, 0, 86, 0
2, 212157, Note_on_c, 0, 52, 0
2, 212157, Note_on_c, 0, 61, 0
2, 212157, Note_on_c, 0, 71, 0
2, 212157, Note_on_c, 0, 74, 0
2, 212157, Note_on_c, 0, 56, 0
2, 212157, Note_on_c, 0, 78, 0
2, 212157, Note_on_c, 0, 40, 0
2, 212157, Note_on_c, 0, 64, 0
2, 212158, Note_on_c, 0, 54, 0
2, 212219, Note_on_c, 0, 57, 77
2, 212220, Note_on_c, 0, 45, 74
2, 212282, Control_c, 0, 64, 127
2, 212381, Note_on_c, 0, 64, 65
2, 212497, Note_on_c, 0, 69, 0
2, 212503, Note_on_c, 0, 69, 61
2, 212633, Note_on_c, 0, 68, 67
2, 212759, Note_on_c, 0, 64, 0
2, 212768, Note_on_c, 0, 64, 57
2, 212881, Note_on_c, 0, 69, 0
2, 212887, Note_on_c, 0, 69, 52
2, 212997, Note_on_c, 0, 45, 0
2, 213012, Note_on_c, 0, 68, 0
2, 213022, Note_on_c, 0, 68, 63
2, 213024, Note_on_c, 0, 76, 75
2, 213158, Note_on_c, 0, 64, 0
2, 213167, Note_on_c, 0, 64, 54
2, 213278, Note_on_c, 0, 86, 86
2, 213296, Note_on_c, 0, 69, 0
2, 213303, Note_on_c, 0, 69, 63
2, 213427, Note_on_c, 0, 64, 0
2, 213434, Note_on_c, 0, 64, 61
2, 213532, Note_on_c, 0, 85, 77
2, 213557, Note_on_c, 0, 69, 0
2, 213566, Note_on_c, 0, 69, 62
2, 213665, Note_on_c, 0, 68, 0
2, 213673, Note_on_c, 0, 83, 85
2, 213675, Note_on_c, 0, 68, 72
2, 213803, Note_on_c, 0, 64, 0
2, 213810, Note_on_c, 0, 64, 62
2, 213934, Note_on_c, 0, 69, 0
2, 213934, Note_on_c, 0, 81, 0
2, 213938, Note_on_c, 0, 81, 91
2, 213942, Note_on_c, 0, 69, 70
2, 214056, Note_on_c, 0, 68, 0
2, 214068, Note_on_c, 0, 68, 75
2, 214164, Note_on_c, 0, 64, 0
2, 214169, Note_on_c, 0, 64, 72
2, 214202, Note_on_c, 0, 83, 0
2, 214208, Note_on_c, 0, 83, 95
2, 214218, Note_on_c, 0, 76, 0
2, 214222, Note_on_c, 0, 76, 78
2, 214222, Note_on_c, 0, 71, 76
2, 214248, Note_on_c, 0, 69, 0
2, 214249, Note_on_c, 0, 81, 0
2, 214249, Note_on_c, 0, 64, 0
2, 214249, Note_on_c, 0, 85, 0
2, 214250, Note_on_c, 0, 57, 0
2, 214251, Control_c, 0, 64, 0
2, 214256, Note_on_c, 0, 68, 0
2, 214264, Note_on_c, 0, 73, 0
2, 214333, Control_c, 0, 64, 127
2, 214335, Note_on_c, 0, 56, 75
2, 214337, Note_on_c, 0, 44, 71
2, 214425, Note_on_c, 0, 86, 0
2, 214491, Note_on_c, 0, 64, 66
2, 214525, Note_on_c, 0, 44, 0
2, 214611, Note_on_c, 0, 69, 55
2, 214745, Note_on_c, 0, 68, 70
2, 214863, Note_on_c, 0, 64, 0
2, 214867, Note_on_c, 0, 64, 66
2, 214978, Note_on_c, 0, 69, 0
2, 214989, Note_on_c, 0, 69, 60
2, 215116, Note_on_c, 0, 68, 0
2, 215127, Note_on_c, 0, 68, 65
2, 215132, Note_on_c, 0, 76, 0
2, 215140, Note_on_c, 0, 76, 75
2, 215255, Note_on_c, 0, 64, 0
2, 215260, Note_on_c, 0, 64, 69
2, 215393, Note_on_c, 0, 69, 0
2, 215398, Note_on_c, 0, 85, 87
2, 215404, Note_on_c, 0, 69, 66
2, 215531, Note_on_c, 0, 64, 0
2, 215538, Note_on_c, 0, 64, 68
2, 215654, Note_on_c, 0, 69, 0
2, 215654, Note_on_c, 0, 83, 0
2, 215658, Note_on_c, 0, 83, 84
2, 215665, Note_on_c, 0, 69, 61
2, 215784, Note_on_c, 0, 68, 0
2, 215789, Note_on_c, 0, 81, 89
2, 215790, Note_on_c, 0, 68, 74
2, 215923, Note_on_c, 0, 64, 0
2, 215927, Note_on_c, 0, 64, 68
2, 216038, Note_on_c, 0, 69, 0
2, 216045, Note_on_c, 0, 80, 88
2, 216049, Note_on_c, 0, 69, 74
2, 216168, Note_on_c, 0, 68, 0
2, 216179, Note_on_c, 0, 68, 68
2, 216276, Note_on_c, 0, 64, 0
2, 216280, Note_on_c, 0, 64, 70
2, 216299, Note_on_c, 0, 81, 0
2, 216306, Note_on_c, 0, 81, 98
2, 216314, Note_on_c, 0, 69, 0
2, 216324, Note_on_c, 0, 69, 68
2, 216325, Note_on_c, 0, 73, 79
2, 216366, Note_on_c, 0, 85, 0
2, 216366, Note_on_c, 0, 71, 0
2, 216366, Note_on_c, 0, 83, 0
2, 216367, Note_on_c, 0, 64, 0
2, 216367, Note_on_c, 0, 76, 0
2, 216367, Note_on_c, 0, 68, 0
2, 216368, Note_on_c, 0, 80, 0
2, 216370, Note_on_c, 0, 56, 0
2, 216370, Control_c, 0, 64, 0
2, 216448, Note_on_c, 0, 42, 70
2, 216448, Note_on_c, 0, 54, 69
2, 216449, Note_on_c, 0, 70, 56
2, 216460, Note_on_c, 0, 70, 0
2, 216460, Control_c, 0, 64, 127
2, 216604, Note_on_c, 0, 64, 61
2, 216706, Note_on_c, 0, 69, 0
2, 216715, Note_on_c, 0, 69, 66
2, 216841, Note_on_c, 0, 68, 72
2, 216967, Note_on_c, 0, 64, 0
2, 216977, Note_on_c, 0, 64, 69
2, 217090, Note_on_c, 0, 69, 0
2, 217101, Note_on_c, 0, 69, 67
2, 217236, Note_on_c, 0, 68, 0
2, 217241, Note_on_c, 0, 76, 85
2, 217245, Note_on_c, 0, 68, 67
2, 217359, Note_on_c, 0, 64, 0
2, 217370, Note_on_c, 0, 64, 71
2, 217505, Note_on_c, 0, 69, 0
2, 217510, Note_on_c, 0, 85, 92
2, 217511, Note_on_c, 0, 69, 67
2, 217628, Note_on_c, 0, 64, 0
2, 217636, Note_on_c, 0, 64, 69
2, 217766, Note_on_c, 0, 69, 0
2, 217773, Note_on_c, 0, 83, 84
2, 217777, Note_on_c, 0, 69, 67
2, 217889, Note_on_c, 0, 85, 0
2, 217896, Note_on_c, 0, 68, 0
2, 217896, Note_on_c, 0, 76, 0
2, 217899, Note_on_c, 0, 85, 95
2, 217901, Note_on_c, 0, 76, 60
2, 217901, Note_on_c, 0, 68, 79
2, 218027, Note_on_c, 0, 64, 0
2, 218034, Note_on_c, 0, 64, 73
2, 218158, Note_on_c, 0, 69, 0
2, 218162, Note_on_c, 0, 86, 90
2, 218165, Note_on_c, 0, 69, 77
2, 218288, Note_on_c, 0, 68, 0
2, 218288, Note_on_c, 0, 76, 0
2, 218299, Note_on_c, 0, 68, 81
2, 218300, Note_on_c, 0, 76, 55
2, 218403, Note_on_c, 0, 64, 0
2, 218412, Note_on_c, 0, 64, 60
2, 218426, Note_on_c, 0, 85, 0
2, 218430, Note_on_c, 0, 85, 99
2, 218434, Note_on_c, 0, 73, 0
2, 218442, Note_on_c, 0, 76, 0
2, 218443, Note_on_c, 0, 73, 85
2, 218453, Note_on_c, 0, 76, 87
2, 218480, Note_on_c, 0, 42, 0
2, 218484, Note_on_c, 0, 69, 0
2, 218484, Note_on_c, 0, 64, 0
2, 218484, Note_on_c, 0, 68, 0
2, 218484, Control_c, 0, 64, 0
2, 218485, Note_on_c, 0, 54, 0
2, 218496, Note_on_c, 0, 81, 0
2, 218503, Note_on_c, 0, 83, 0
2, 218503, Note_on_c, 0, 86, 0
2, 218549, Note_on_c, 0, 52, 85
2, 218551, Note_on_c, 0, 40, 79
2, 218565, Control_c, 0, 64, 127
2, 218706, Note_on_c, 0, 64, 65
2, 218808, Note_on_c, 0, 69, 65
2, 218937, Note_on_c, 0, 68, 76
2, 219064, Note_on_c, 0, 64, 0
2, 219070, Note_on_c, 0, 64, 69
2, 219179, Note_on_c, 0, 69, 0
2, 219185, Note_on_c, 0, 69, 69
2, 219317, Note_on_c, 0, 68, 0
2, 219317, Note_on_c, 0, 76, 0
2, 219327, Note_on_c, 0, 68, 70
2, 219328, Note_on_c, 0, 76, 88
2, 219440, Note_on_c, 0, 64, 0
2, 219449, Note_on_c, 0, 64, 74
2, 219578, Note_on_c, 0, 69, 0
2, 219586, Note_on_c, 0, 85, 0
2, 219589, Note_on_c, 0, 69, 74
2, 219594, Note_on_c, 0, 85, 94
2, 219709, Note_on_c, 0, 64, 0
2, 219715, Note_on_c, 0, 64, 79
2, 219847, Note_on_c, 0, 69, 0
2, 219856, Note_on_c, 0, 69, 65
2, 219857, Note_on_c, 0, 83, 87
2, 219970, Note_on_c, 0, 68, 0
2, 219970, Note_on_c, 0, 85, 0
2, 219977, Note_on_c, 0, 85, 95
2, 219980, Note_on_c, 0, 68, 80
2, 220093, Note_on_c, 0, 64, 0
2, 220104, Note_on_c, 0, 64, 74
2, 220231, Note_on_c, 0, 69, 0
2, 220236, Note_on_c, 0, 86, 94
2, 220240, Note_on_c, 0, 69, 77
2, 220362, Note_on_c, 0, 68, 0
2, 220368, Note_on_c, 0, 68, 82
2, 220462, Note_on_c, 0, 64, 0
2, 220471, Note_on_c, 0, 64, 59
2, 220492, Note_on_c, 0, 85, 0
2, 220500, Note_on_c, 0, 73, 0
2, 220502, Note_on_c, 0, 85, 103
2, 220507, Note_on_c, 0, 73, 88
2, 220515, Note_on_c, 0, 76, 0
2, 220523, Note_on_c, 0, 76, 83
2, 220538, Control_c, 0, 64, 0
2, 220538, Note_on_c, 0, 64, 0
2, 220539, Note_on_c, 0, 69, 0
2, 220540, Note_on_c, 0, 52, 0
2, 220540, Note_on_c, 0, 68, 0
2, 220540, Note_on_c, 0, 83, 0
2, 220569, Note_on_c, 0, 86, 0
2, 220584, Note_on_c, 0, 40, 0
2, 220631, Control_c, 0, 64, 127
2, 220633, Note_on_c, 0, 38, 42
2, 220711, Note_on_c, 0, 45, 57
2, 220791, Note_on_c, 0, 54, 56
2, 220791, Note_on_c, 0, 69, 64
2, 220884, Note_on_c, 0, 38, 0
2, 220884, Note_on_c, 0, 76, 0
2, 220889, Note_on_c, 0, 38, 64
2, 220895, Note_on_c, 0, 76, 66
2, 220992, Note_on_c, 0, 45, 0
2, 220997, Note_on_c, 0, 45, 45
2, 221030, Note_on_c, 0, 69, 0
2, 221038, Note_on_c, 0, 54, 0
2, 221041, Note_on_c, 0, 69, 64
2, 221042, Note_on_c, 0, 54, 48
2, 221153, Note_on_c, 0, 38, 0
2, 221163, Note_on_c, 0, 38, 53
2, 221169, Note_on_c, 0, 81, 77
2, 221253, Note_on_c, 0, 45, 0
2, 221264, Note_on_c, 0, 45, 37
2, 221291, Note_on_c, 0, 54, 0
2, 221291, Note_on_c, 0, 69, 0
2, 221297, Note_on_c, 0, 54, 50
2, 221298, Note_on_c, 0, 69, 61
2, 221406, Note_on_c, 0, 38, 0
2, 221412, Note_on_c, 0, 38, 60
2, 221414, Note_on_c, 0, 76, 0
2, 221418, Note_on_c, 0, 76, 88
2, 221529, Note_on_c, 0, 54, 0
2, 221529, Note_on_c, 0, 69, 0
2, 221536, Note_on_c, 0, 69, 71
2, 221540, Note_on_c, 0, 54, 66
2, 221645, Note_on_c, 0, 45, 0
2, 221648, Note_on_c, 0, 81, 0
2, 221649, Note_on_c, 0, 69, 0
2, 221651, Control_c, 0, 64, 0
2, 221652, Note_on_c, 0, 85, 0
2, 221660, Note_on_c, 0, 38, 0
2, 221660, Note_on_c, 0, 54, 0
2, 221663, Note_on_c, 0, 85, 97
2, 221666, Note_on_c, 0, 38, 59
2, 221667, Note_on_c, 0, 73, 0
2, 221667, Note_on_c, 0, 76, 0
2, 221671, Note_on_c, 0, 76, 85
2, 221690, Control_c, 0, 64, 127
2, 221794, Note_on_c, 0, 69, 75
2, 221802, Note_on_c, 0, 45, 55
2, 221827, Note_on_c, 0, 54, 52
2, 221836, Note_on_c, 0, 54, 0
2, 221918, Note_on_c, 0, 83, 92
2, 221921, Note_on_c, 0, 38, 0
2, 221928, Note_on_c, 0, 76, 0
2, 221931, Note_on_c, 0, 38, 60
2, 221935, Note_on_c, 0, 76, 74
2, 222055, Note_on_c, 0, 81, 102
2, 222059, Note_on_c, 0, 76, 0
2, 222070, Note_on_c, 0, 76, 80
2, 222182, Note_on_c, 0, 38, 0
2, 222182, Note_on_c, 0, 69, 0
2, 222186, Note_on_c, 0, 69, 68
2, 222191, Note_on_c, 0, 38, 63
2, 222310, Note_on_c, 0, 80, 100
2, 222312, Note_on_c, 0, 76, 0
2, 222317, Note_on_c, 0, 76, 88
2, 222326, Note_on_c, 0, 54, 52
2, 222428, Note_on_c, 0, 38, 0
2, 222432, Note_on_c, 0, 38, 64
2, 222435, Note_on_c, 0, 69, 0
2, 222440, Note_on_c, 0, 69, 57
2, 222558, Note_on_c, 0, 54, 0
2, 222558, Note_on_c, 0, 81, 0
2, 222568, Note_on_c, 0, 54, 63
2, 222569, Note_on_c, 0, 81, 106
2, 222574, Note_on_c, 0, 76, 0
2, 222579, Note_on_c, 0, 76, 97
2, 222626, Control_c, 0, 64, 0
2, 222628, Note_on_c, 0, 38, 0
2, 222628, Note_on_c, 0, 83, 0
2, 222628, Note_on_c, 0, 85, 0
2, 222630, Note_on_c, 0, 80, 0
2, 222630, Note_on_c, 0, 69, 0
2, 222630, Note_on_c, 0, 54, 0
2, 222643, Note_on_c, 0, 45, 0
2, 222686, Note_on_c, 0, 37, 73
2, 222689, Control_c, 0, 64, 127
2, 222820, Note_on_c, 0, 45, 48
2, 222834, Note_on_c, 0, 69, 60
2, 222888, Note_on_c, 0, 37, 0
2, 222896, Note_on_c, 0, 37, 70
2, 222973, Note_on_c, 0, 76, 0
2, 222977, Note_on_c, 0, 76, 65
2, 223042, Note_on_c, 0, 45, 0
2, 223051, Note_on_c, 0, 45, 54
2, 223080, Note_on_c, 0, 69, 0
2, 223085, Note_on_c, 0, 69, 59
2, 223091, Note_on_c, 0, 52, 46
2, 223219, Note_on_c, 0, 37, 0
2, 223219, Note_on_c, 0, 81, 0
2, 223223, Note_on_c, 0, 81, 82
2, 223224, Note_on_c, 0, 37, 61
2, 223311, Note_on_c, 0, 45, 0
2, 223319, Note_on_c, 0, 45, 57
2, 223349, Note_on_c, 0, 69, 0
2, 223354, Note_on_c, 0, 69, 59
2, 223357, Note_on_c, 0, 52, 0
2, 223361, Note_on_c, 0, 52, 38
2, 223480, Note_on_c, 0, 37, 0
2, 223480, Note_on_c, 0, 76, 0
2, 223487, Note_on_c, 0, 76, 96
2, 223489, Note_on_c, 0, 37, 65
2, 223587, Note_on_c, 0, 45, 0
2, 223587, Note_on_c, 0, 69, 0
2, 223593, Note_on_c, 0, 45, 56
2, 223593, Note_on_c, 0, 69, 80
2, 223699, Control_c, 0, 64, 0
2, 223718, Control_c, 0, 64, 127
2, 223730, Note_on_c, 0, 85, 101
2, 223733, Note_on_c, 0, 37, 0
2, 223733, Note_on_c, 0, 76, 0
2, 223737, Note_on_c, 0, 37, 75
2, 223738, Note_on_c, 0, 76, 92
2, 223833, Note_on_c, 0, 45, 0
2, 223841, Note_on_c, 0, 45, 54
2, 223841, Note_on_c, 0, 69, 0
2, 223848, Note_on_c, 0, 69, 76
2, 223983, Note_on_c, 0, 83, 96
2, 223987, Note_on_c, 0, 76, 0
2, 223997, Note_on_c, 0, 76, 77
2, 224102, Note_on_c, 0, 85, 0
2, 224109, Note_on_c, 0, 85, 103
2, 224110, Note_on_c, 0, 52, 0
2, 224110, Note_on_c, 0, 76, 0
2, 224120, Note_on_c, 0, 52, 65
2, 224120, Note_on_c, 0, 76, 91
2, 224140, Note_on_c, 0, 45, 0
2, 224147, Note_on_c, 0, 45, 46
2, 224217, Note_on_c, 0, 69, 0
2, 224223, Note_on_c, 0, 69, 89
2, 224245, Note_on_c, 0, 57, 62
2, 224248, Note_on_c, 0, 37, 0
2, 224255, Note_on_c, 0, 37, 62
2, 224352, Note_on_c, 0, 86, 106
2, 224363, Note_on_c, 0, 45, 0
2, 224363, Note_on_c, 0, 76, 0
2, 224367, Note_on_c, 0, 45, 62
2, 224370, Note_on_c, 0, 76, 93
2, 224371, Note_on_c, 0, 52, 0
2, 224375, Note_on_c, 0, 52, 70
2, 224478, Note_on_c, 0, 69, 0
2, 224486, Note_on_c, 0, 45, 0
2, 224488, Note_on_c, 0, 69, 70
2, 224492, Note_on_c, 0, 45, 58
2, 224609, Note_on_c, 0, 85, 0
2, 224616, Note_on_c, 0, 52, 0
2, 224618, Note_on_c, 0, 85, 109
2, 224620, Note_on_c, 0, 64, 83
2, 224627, Note_on_c, 0, 52, 67
2, 224632, Note_on_c, 0, 76, 0
2, 224636, Note_on_c, 0, 73, 94
2, 224636, Note_on_c, 0, 76, 93
2, 224643, Control_c, 0, 64, 0
2, 224660, Note_on_c, 0, 57, 0
2, 224661, Note_on_c, 0, 69, 0
2, 224661, Note_on_c, 0, 45, 0
2, 224661, Note_on_c, 0, 52, 0
2, 224663, Note_on_c, 0, 83, 0
2, 224664, Note_on_c, 0, 81, 0
2, 224678, Note_on_c, 0, 86, 0
2, 224686, Note_on_c, 0, 37, 0
2, 224744, Note_on_c, 0, 38, 79
2, 224755, Control_c, 0, 64, 127
2, 224896, Note_on_c, 0, 54, 65
2, 224898, Note_on_c, 0, 69, 58
2, 225016, Note_on_c, 0, 38, 0
2, 225016, Note_on_c, 0, 76, 0
2, 225020, Note_on_c, 0, 38, 63
2, 225022, Note_on_c, 0, 76, 72
2, 225131, Note_on_c, 0, 54, 0
2, 225139, Note_on_c, 0, 69, 0
2, 225141, Note_on_c, 0, 54, 60
2, 225150, Note_on_c, 0, 69, 69
2, 225277, Note_on_c, 0, 38, 0
2, 225282, Note_on_c, 0, 38, 62
2, 225285, Note_on_c, 0, 81, 90
2, 225346, Note_on_c, 0, 85, 0
2, 225400, Note_on_c, 0, 54, 0
2, 225400, Note_on_c, 0, 69, 0
2, 225409, Note_on_c, 0, 69, 72
2, 225410, Note_on_c, 0, 54, 62
2, 225530, Note_on_c, 0, 38, 0
2, 225530, Note_on_c, 0, 76, 0
2, 225535, Note_on_c, 0, 76, 101
2, 225540, Note_on_c, 0, 38, 71
2, 225646, Note_on_c, 0, 69, 0
2, 225650, Note_on_c, 0, 69, 83
2, 225669, Note_on_c, 0, 54, 0
2, 225673, Note_on_c, 0, 54, 55
2, 225768, Note_on_c, 0, 81, 0
2, 225776, Note_on_c, 0, 38, 0
2, 225776, Note_on_c, 0, 76, 0
2, 225780, Note_on_c, 0, 81, 104
2, 225787, Note_on_c, 0, 38, 70
2, 225788, Note_on_c, 0, 76, 98
2, 225899, Note_on_c, 0, 69, 0
2, 225905, Note_on_c, 0, 69, 76
2, 225919, Note_on_c, 0, 45, 47
2, 226045, Note_on_c, 0, 80, 97
2, 226045, Note_on_c, 0, 38, 0
2, 226045, Note_on_c, 0, 76, 0
2, 226054, Note_on_c, 0, 76, 86
2, 226056, Note_on_c, 0, 38, 62
2, 226168, Note_on_c, 0, 76, 0
2, 226168, Note_on_c, 0, 81, 0
2, 226174, Note_on_c, 0, 81, 107
2, 226176, Note_on_c, 0, 45, 0
2, 226178, Note_on_c, 0, 76, 102
2, 226179, Note_on_c, 0, 45, 53
2, 226207, Note_on_c, 0, 73, 0
2, 226209, Note_on_c, 0, 54, 0
2, 226209, Note_on_c, 0, 69, 0
2, 226210, Note_on_c, 0, 80, 0
2, 226213, Control_c, 0, 64, 0
2, 226229, Note_on_c, 0, 64, 0
2, 226260, Note_on_c, 0, 45, 0
2, 226268, Control_c, 0, 64, 127
2, 226298, Note_on_c, 0, 38, 0
2, 226302, Note_on_c, 0, 69, 79
2, 226306, Note_on_c, 0, 38, 70
2, 226429, Note_on_c, 0, 76, 0
2, 226434, Note_on_c, 0, 83, 108
2, 226439, Note_on_c, 0, 76, 100
2, 226552, Note_on_c, 0, 38, 0
2, 226552, Note_on_c, 0, 69, 0
2, 226552, Note_on_c, 0, 81, 0
2, 226556, Note_on_c, 0, 38, 73
2, 226560, Note_on_c, 0, 69, 83
2, 226563, Note_on_c, 0, 81, 76
2, 226682, Note_on_c, 0, 76, 0
2, 226686, Note_on_c, 0, 54, 75
2, 226692, Note_on_c, 0, 76, 84
2, 226771, Note_on_c, 0, 83, 0
2, 226772, Note_on_c, 0, 54, 0
2, 226772, Note_on_c, 0, 81, 0
2, 226772, Note_on_c, 0, 38, 0
2, 226772, Note_on_c, 0, 69, 0
2, 226772, Note_on_c, 0, 76, 0
2, 226774, Control_c, 0, 64, 0
2, 226825, Note_on_c, 0, 85, 107
2, 226831, Note_on_c, 0, 73, 101
2, 226834, Note_on_c, 0, 40, 96
2, 226836, Note_on_c, 0, 76, 91
2, 226859, Control_c, 0, 64, 127
2, 227024, Note_on_c, 0, 47, 54
2, 227083, Note_on_c, 0, 68, 74
2, 227091, Note_on_c, 0, 64, 71
2, 227158, Note_on_c, 0, 71, 68
2, 227159, Note_on_c, 0, 59, 60
2, 227215, Note_on_c, 0, 56, 64
2, 227243, Note_on_c, 0, 76, 0
2, 227247, Note_on_c, 0, 76, 73
2, 227261, Note_on_c, 0, 80, 72
2, 227318, Note_on_c, 0, 73, 0
2, 227318, Control_c, 0, 64, 0
2, 227318, Note_on_c, 0, 68, 0
2, 227319, Note_on_c, 0, 71, 0
2, 227320, Note_on_c, 0, 85, 0
2, 227320, Note_on_c, 0, 76, 0
2, 227320, Note_on_c, 0, 47, 0
2, 227320, Note_on_c, 0, 80, 0
2, 227321, Note_on_c, 0, 40, 0
2, 227321, Note_on_c, 0, 59, 0
2, 227321, Note_on_c, 0, 56, 0
2, 227321, Note_on_c, 0, 64, 0
2, 227349, Note_on_c, 0, 83, 106
2, 227354, Note_on_c, 0, 28, 87
2, 227354, Note_on_c, 0, 71, 96
2, 227356, Note_on_c, 0, 40, 91
2, 227358, Note_on_c, 0, 28, 0
2, 227389, Control_c, 0, 64, 127
2, 227599, Note_on_c, 0, 68, 80
2, 227615, Note_on_c, 0, 64, 69
2, 227681, Note_on_c, 0, 71, 0
2, 227686, Note_on_c, 0, 71, 70
2, 227692, Note_on_c, 0, 59, 58
2, 227733, Note_on_c, 0, 56, 67
2, 227735, Note_on_c, 0, 40, 0
2, 227762, Note_on_c, 0, 80, 77
2, 227838, Note_on_c, 0, 68, 0
2, 227838, Note_on_c, 0, 71, 0
2, 227839, Note_on_c, 0, 80, 0
2, 227839, Note_on_c, 0, 64, 0
2, 227839, Note_on_c, 0, 83, 0
2, 227839, Note_on_c, 0, 56, 0
2, 227839, Note_on_c, 0, 59, 0
2, 227841, Control_c, 0, 64, 0
2, 227868, Note_on_c, 0, 86, 108
2, 227876, Note_on_c, 0, 74, 103
2, 227880, Note_on_c, 0, 52, 82
2, 227882, Note_on_c, 0, 40, 84
2, 227882, Note_on_c, 0, 78, 99
2, 227896, Control_c, 0, 64, 127
2, 228147, Note_on_c, 0, 69, 66
2, 228149, Note_on_c, 0, 52, 0
2, 228151, Note_on_c, 0, 76, 74
2, 228151, Note_on_c, 0, 64, 72
2, 228156, Note_on_c, 0, 52, 47
2, 228199, Note_on_c, 0, 61, 68
2, 228218, Note_on_c, 0, 73, 78
2, 228261, Note_on_c, 0, 57, 74
2, 228306, Note_on_c, 0, 81, 79
2, 228352, Note_on_c, 0, 52, 0
2, 228353, Note_on_c, 0, 73, 0
2, 228353, Note_on_c, 0, 74, 0
2, 228353, Note_on_c, 0, 78, 0
2, 228353, Note_on_c, 0, 86, 0
2, 228353, Note_on_c, 0, 57, 0
2, 228353, Note_on_c, 0, 61, 0
2, 228354, Note_on_c, 0, 69, 0
2, 228354, Note_on_c, 0, 81, 0
2, 228354, Note_on_c, 0, 64, 0
2, 228354, Control_c, 0, 64, 0
2, 228364, Note_on_c, 0, 40, 0
2, 228380, Note_on_c, 0, 76, 0
2, 228389, Note_on_c, 0, 85, 110
2, 228394, Note_on_c, 0, 73, 106
2, 228406, Note_on_c, 0, 52, 83
2, 228410, Control_c, 0, 64, 127
2, 228412, Note_on_c, 0, 40, 89
2, 228641, Note_on_c, 0, 52, 0
2, 228644, Note_on_c, 0, 69, 73
2, 228651, Note_on_c, 0, 52, 61
2, 228670, Note_on_c, 0, 76, 72
2, 228672, Note_on_c, 0, 73, 0
2, 228672, Note_on_c, 0, 64, 77
2, 228676, Note_on_c, 0, 73, 70
2, 228706, Note_on_c, 0, 61, 72
2, 228761, Note_on_c, 0, 81, 80
2, 228766, Note_on_c, 0, 57, 76
2, 228860, Note_on_c, 0, 52, 0
2, 228861, Note_on_c, 0, 69, 0
2, 228861, Note_on_c, 0, 64, 0
2, 228861, Note_on_c, 0, 57, 0
2, 228861, Note_on_c, 0, 76, 0
2, 228862, Note_on_c, 0, 61, 0
2, 228862, Note_on_c, 0, 81, 0
2, 228862, Note_on_c, 0, 85, 0
2, 228862, Control_c, 0, 64, 0
2, 228862, Note_on_c, 0, 40, 0
2, 228871, Note_on_c, 0, 73, 0
2, 228900, Note_on_c, 0, 88, 111
2, 228905, Note_on_c, 0, 76, 111
2, 228911, Note_on_c, 0, 52, 102
2, 228913, Note_on_c, 0, 40, 98
2, 228933, Control_c, 0, 64, 127
2, 229025, Note_on_c, 0, 40, 0
2, 229025, Note_on_c, 0, 88, 0
2, 229030, Note_on_c, 0, 40, 74
2, 229032, Note_on_c, 0, 76, 0
2, 229033, Note_on_c, 0, 88, 100
2, 229037, Note_on_c, 0, 76, 92
2, 229158, Note_on_c, 0, 63, 83
2, 229164, Note_on_c, 0, 75, 81
2, 229175, Note_on_c, 0, 69, 80
2, 229243, Note_on_c, 0, 59, 59
2, 229245, Note_on_c, 0, 71, 72
2, 229281, Note_on_c, 0, 57, 62
2, 229309, Note_on_c, 0, 76, 0
2, 229314, Note_on_c, 0, 76, 78
2, 229317, Note_on_c, 0, 75, 0
2, 229322, Note_on_c, 0, 75, 73
2, 229335, Note_on_c, 0, 78, 80
2, 229380, Note_on_c, 0, 71, 0
2, 229380, Note_on_c, 0, 59, 0
2, 229380, Note_on_c, 0, 63, 0
2, 229381, Note_on_c, 0, 76, 0
2, 229381, Note_on_c, 0, 69, 0
2, 229381, Note_on_c, 0, 52, 0
2, 229381, Note_on_c, 0, 57, 0
2, 229381, Control_c, 0, 64, 0
2, 229381, Note_on_c, 0, 75, 0
2, 229381, Note_on_c, 0, 40, 0
2, 229381, Note_on_c, 0, 78, 0
2, 229382, Note_on_c, 0, 88, 0
2, 229426, Note_on_c, 0, 87, 112
2, 229430, Note_on_c, 0, 75, 109
2, 229430, Note_on_c, 0, 40, 96
2, 229433, Note_on_c, 0, 52, 92
2, 229440, Control_c, 0, 64, 127
2, 229555, Note_on_c, 0, 75, 0
2, 229555, Note_on_c, 0, 87, 0
2, 229559, Note_on_c, 0, 87, 102
2, 229562, Note_on_c, 0, 40, 0
2, 229563, Note_on_c, 0, 75, 102
2, 229573, Note_on_c, 0, 40, 71
2, 229690, Note_on_c, 0, 63, 84
2, 229695, Note_on_c, 0, 69, 90
2, 229711, Note_on_c, 0, 59, 73
2, 229714, Note_on_c, 0, 71, 66
2, 229789, Note_on_c, 0, 57, 78
2, 229793, Note_on_c, 0, 75, 0
2, 229800, Note_on_c, 0, 87, 0
2, 229803, Note_on_c, 0, 75, 83
2, 229807, Note_on_c, 0, 87, 76
2, 229821, Note_on_c, 0, 78, 92
2, 229893, Note_on_c, 0, 71, 0
2, 229894, Note_on_c, 0, 63, 0
2, 229894, Note_on_c, 0, 69, 0
2, 229895, Note_on_c, 0, 57, 0
2, 229895, Note_on_c, 0, 78, 0
2, 229895, Note_on_c, 0, 59, 0
2, 229895, Note_on_c, 0, 87, 0
2, 229895, Note_on_c, 0, 40, 0
2, 229897, Control_c, 0, 64, 0
2, 229908, Note_on_c, 0, 75, 0
2, 229931, Note_on_c, 0, 52, 0
2, 229935, Note_on_c, 0, 90, 113
2, 229935, Note_on_c, 0, 78, 115
2, 229937, Note_on_c, 0, 52, 104
2, 229939, Note_on_c, 0, 40, 104
2, 229962, Control_c, 0, 64, 127
2, 230069, Note_on_c, 0, 78, 0
2, 230069, Note_on_c, 0, 90, 0
2, 230076, Note_on_c, 0, 90, 96
2, 230077, Note_on_c, 0, 78, 106
2, 230197, Note_on_c, 0, 72, 96
2, 230198, Note_on_c, 0, 66, 88
2, 230230, Note_on_c, 0, 63, 70
2, 230251, Note_on_c, 0, 75, 82
2, 230281, Note_on_c, 0, 60, 76
2, 230319, Note_on_c, 0, 81, 96
2, 230406, Note_on_c, 0, 78, 0
2, 230406, Note_on_c, 0, 72, 0
2, 230406, Note_on_c, 0, 63, 0
2, 230407, Note_on_c, 0, 60, 0
2, 230407, Note_on_c, 0, 75, 0
2, 230407, Note_on_c, 0, 66, 0
2, 230407, Note_on_c, 0, 81, 0
2, 230409, Note_on_c, 0, 90, 0
2, 230410, Control_c, 0, 64, 0
2, 230423, Note_on_c, 0, 40, 0
2, 230438, Note_on_c, 0, 52, 0
2, 230445, Note_on_c, 0, 93, 115
2, 230448, Note_on_c, 0, 52, 107
2, 230449, Note_on_c, 0, 81, 110
2, 230454, Note_on_c, 0, 40, 102
2, 230461, Control_c, 0, 64, 127
2, 230568, Note_on_c, 0, 81, 0
2, 230568, Note_on_c, 0, 93, 0
2, 230575, Note_on_c, 0, 81, 110
2, 230578, Note_on_c, 0, 93, 103
2, 230592, Note_on_c, 0, 52, 0
2, 230599, Note_on_c, 0, 40, 0
2, 230600, Note_on_c, 0, 52, 71
2, 230603, Note_on_c, 0, 40, 77
2, 230606, Note_on_c, 0, 47, 61
2, 230695, Note_on_c, 0, 66, 102
2, 230702, Note_on_c, 0, 72, 102
2, 230702, Note_on_c, 0, 60, 75
2, 230725, Note_on_c, 0, 63, 72
2, 230733, Note_on_c, 0, 75, 74
2, 230746, Note_on_c, 0, 87, 68
2, 230881, Note_on_c, 0, 52, 0
2, 230881, Note_on_c, 0, 72, 0
2, 230882, Note_on_c, 0, 40, 0
2, 230882, Note_on_c, 0, 81, 0
2, 230882, Note_on_c, 0, 66, 0
2, 230883, Note_on_c, 0, 87, 0
2, 230883, Note_on_c, 0, 93, 0
2, 230883, Note_on_c, 0, 63, 0
2, 230887, Control_c, 0, 64, 0
2, 230899, Note_on_c, 0, 47, 0
2, 230899, Note_on_c, 0, 60, 0
2, 230899, Note_on_c, 0, 75, 0
2, 230954, Note_on_c, 0, 85, 114
2, 230955, Note_on_c, 0, 97, 114
2, 230960, Control_c, 0, 64, 127
2, 230960, Note_on_c, 0, 52, 100
2, 230962, Note_on_c, 0, 40, 104
2, 230964, Note_on_c, 0, 87, 85
2, 230968, Note_on_c, 0, 87, 0
2, 231096, Note_on_c, 0, 54, 88
2, 231096, Note_on_c, 0, 42, 89
2, 231224, Note_on_c, 0, 56, 92
2, 231226, Note_on_c, 0, 44, 95
2, 231234, Note_on_c, 0, 81, 113
2, 231234, Note_on_c, 0, 93, 112
2, 231353, Note_on_c, 0, 57, 93
2, 231355, Note_on_c, 0, 45, 87
2, 231486, Note_on_c, 0, 100, 116
2, 231492, Note_on_c, 0, 88, 107
2, 231494, Note_on_c, 0, 59, 92
2, 231494, Note_on_c, 0, 47, 89
2, 231623, Note_on_c, 0, 49, 86
2, 231736, Note_on_c, 0, 93, 0
2, 231744, Note_on_c, 0, 81, 0
2, 231747, Note_on_c, 0, 93, 112
2, 231747, Note_on_c, 0, 50, 92
2, 231749, Note_on_c, 0, 62, 97
2, 231749, Note_on_c, 0, 81, 101
2, 231754, Note_on_c, 0, 90, 87
2, 231874, Note_on_c, 0, 52, 0
2, 231878, Note_on_c, 0, 64, 93
2, 231882, Note_on_c, 0, 52, 95
2, 231978, Note_on_c, 0, 100, 0
2, 231978, Note_on_c, 0, 45, 0
2, 231978, Note_on_c, 0, 42, 0
2, 231978, Note_on_c, 0, 47, 0
2, 231978, Note_on_c, 0, 81, 0
2, 231979, Note_on_c, 0, 50, 0
2, 231979, Note_on_c, 0, 49, 0
2, 231979, Note_on_c, 0, 88, 0
2, 231979, Note_on_c, 0, 90, 0
2, 231979, Note_on_c, 0, 59, 0
2, 231979, Note_on_c, 0, 57, 0
2, 231979, Note_on_c, 0, 54, 0
2, 231979, Note_on_c, 0, 62, 0
2, 231980, Note_on_c, 0, 44, 0
2, 231981, Control_c, 0, 64, 0
2, 231989, Note_on_c, 0, 40, 0
2, 231989, Note_on_c, 0, 56, 0
2, 231997, Note_on_c, 0, 93, 0
2, 231997, Note_on_c, 0, 97, 0
2, 232005, Note_on_c, 0, 52, 0
2, 232005, Note_on_c, 0, 64, 0
2, 232005, Note_on_c, 0, 85, 0
2, 232008, Note_on_c, 0, 97, 112
2, 232009, Note_on_c, 0, 85, 112
2, 232010, Note_on_c, 0, 64, 103
2, 232015, Note_on_c, 0, 52, 98
2, 232043, Control_c, 0, 64, 127
2, 232152, Note_on_c, 0, 66, 91
2, 232152, Note_on_c, 0, 54, 87
2, 232285, Note_on_c, 0, 81, 106
2, 232285, Note_on_c, 0, 93, 110
2, 232285, Note_on_c, 0, 56, 87
2, 232290, Note_on_c, 0, 90, 91
2, 232410, Note_on_c, 0, 69, 95
2, 232415, Note_on_c, 0, 57, 95
2, 232546, Note_on_c, 0, 71, 101
2, 232546, Note_on_c, 0, 59, 99
2, 232547, Note_on_c, 0, 86, 108
2, 232551, Note_on_c, 0, 98, 100
2, 232551, Note_on_c, 0, 100, 106
2, 232553, Note_on_c, 0, 88, 91
2, 232557, Note_on_c, 0, 95, 90
2, 232558, Note_on_c, 0, 71, 0
2, 232565, Note_on_c, 0, 95, 0
2, 232685, Note_on_c, 0, 61, 93
2, 232780, Note_on_c, 0, 81, 0
2, 232780, Note_on_c, 0, 93, 0
2, 232786, Note_on_c, 0, 93, 114
2, 232787, Note_on_c, 0, 62, 97
2, 232788, Note_on_c, 0, 81, 103
2, 232919, Note_on_c, 0, 64, 0
2, 232923, Note_on_c, 0, 64, 91
2, 232930, Note_on_c, 0, 65, 79
2, 232932, Note_on_c, 0, 76, 88
2, 233049, Note_on_c, 0, 100, 0
2, 233057, Note_on_c, 0, 97, 0
2, 233061, Note_on_c, 0, 100, 113
2, 233061, Note_on_c, 0, 64, 0
2, 233062, Note_on_c, 0, 93, 0
2, 233062, Note_on_c, 0, 57, 0
2, 233062, Note_on_c, 0, 65, 0
2, 233062, Note_on_c, 0, 85, 0
2, 233062, Note_on_c, 0, 90, 0
2, 233062, Note_on_c, 0, 81, 0
2, 233063, Note_on_c, 0, 69, 0
2, 233063, Note_on_c, 0, 56, 0
2, 233063, Note_on_c, 0, 86, 0
2, 233063, Note_on_c, 0, 61, 0
2, 233064, Note_on_c, 0, 62, 0
2, 233064, Note_on_c, 0, 59, 0
2, 233064, Note_on_c, 0, 88, 0
2, 233064, Control_c, 0, 64, 0
2, 233065, Note_on_c, 0, 54, 0
2, 233065, Note_on_c, 0, 97, 97
2, 233065, Note_on_c, 0, 66, 0
2, 233080, Note_on_c, 0, 52, 0
2, 233080, Note_on_c, 0, 76, 0
2, 233085, Note_on_c, 0, 40, 96
2, 233088, Note_on_c, 0, 98, 0
2, 233089, Note_on_c, 0, 52, 89
2, 233090, Note_on_c, 0, 50, 93
2, 233092, Note_on_c, 0, 38, 84
2, 233096, Note_on_c, 0, 98, 71
2, 233118, Control_c, 0, 64, 127
2, 233252, Note_on_c, 0, 93, 84
2, 233305, Note_on_c, 0, 95, 101
2, 233395, Note_on_c, 0, 93, 0
2, 233402, Note_on_c, 0, 93, 92
2, 233430, Note_on_c, 0, 90, 82
2, 233502, Note_on_c, 0, 100, 0
2, 233507, Note_on_c, 0, 88, 97
2, 233507, Note_on_c, 0, 92, 90
2, 233507, Note_on_c, 0, 100, 91
2, 233571, Note_on_c, 0, 52, 0
2, 233574, Note_on_c, 0, 59, 99
2, 233576, Note_on_c, 0, 52, 95
2, 233580, Note_on_c, 0, 56, 91
2, 233594, Note_on_c, 0, 98, 0
2, 233600, Note_on_c, 0, 98, 81
2, 233610, Note_on_c, 0, 86, 85
2, 233679, Note_on_c, 0, 100, 0
2, 233687, Note_on_c, 0, 88, 0
2, 233687, Note_on_c, 0, 97, 0
2, 233690, Note_on_c, 0, 100, 94
2, 233691, Note_on_c, 0, 88, 98
2, 233693, Note_on_c, 0, 85, 76
2, 233694, Note_on_c, 0, 97, 69
2, 233771, Note_on_c, 0, 86, 0
2, 233775, Note_on_c, 0, 83, 97
2, 233775, Note_on_c, 0, 86, 93
2, 233870, Note_on_c, 0, 81, 77
2, 233909, Note_on_c, 0, 83, 0
2, 233917, Note_on_c, 0, 83, 102
2, 233936, Note_on_c, 0, 80, 94
2, 234024, Note_on_c, 0, 81, 0
2, 234030, Note_on_c, 0, 81, 72
2, 234036, Note_on_c, 0, 78, 90
2, 234109, Note_on_c, 0, 56, 0
2, 234109, Note_on_c, 0, 59, 0
2, 234109, Note_on_c, 0, 80, 0
2, 234110, Control_c, 0, 64, 0
2, 234113, Note_on_c, 0, 64, 104
2, 234114, Note_on_c, 0, 80, 97
2, 234114, Note_on_c, 0, 56, 90
2, 234115, Note_on_c, 0, 59, 94
2, 234116, Note_on_c, 0, 76, 100
2, 234119, Note_on_c, 0, 68, 97
2, 234140, Control_c, 0, 64, 127
2, 234225, Note_on_c, 0, 74, 90
2, 234293, Note_on_c, 0, 76, 0
2, 234303, Note_on_c, 0, 76, 99
2, 234307, Note_on_c, 0, 73, 91
2, 234381, Note_on_c, 0, 71, 90
2, 234393, Note_on_c, 0, 74, 0
2, 234399, Note_on_c, 0, 74, 59
2, 234436, Note_on_c, 0, 69, 69
2, 234470, Note_on_c, 0, 76, 0
2, 234478, Note_on_c, 0, 73, 0
2, 234481, Note_on_c, 0, 76, 59
2, 234482, Note_on_c, 0, 73, 77
2, 234539, Note_on_c, 0, 56, 0
2, 234539, Note_on_c, 0, 68, 0
2, 234539, Note_on_c, 0, 71, 0
2, 234544, Note_on_c, 0, 71, 87
2, 234544, Note_on_c, 0, 68, 90
2, 234546, Note_on_c, 0, 56, 63
2, 234631, Note_on_c, 0, 64, 0
2, 234631, Note_on_c, 0, 76, 0
2, 234636, Note_on_c, 0, 64, 107
2, 234638, Note_on_c, 0, 76, 111
2, 234651, Note_on_c, 0, 62, 86
2, 234677, Note_on_c, 0, 74, 0
2, 234681, Note_on_c, 0, 74, 76
2, 234700, Note_on_c, 0, 73, 0
2, 234711, Note_on_c, 0, 73, 82
2, 234712, Note_on_c, 0, 61, 89
2, 234731, Note_on_c, 0, 71, 0
2, 234742, Note_on_c, 0, 71, 69
2, 234785, Note_on_c, 0, 69, 0
2, 234792, Note_on_c, 0, 69, 68
2, 234792, Note_on_c, 0, 59, 0
2, 234796, Note_on_c, 0, 59, 83
2, 234862, Note_on_c, 0, 56, 0
2, 234862, Note_on_c, 0, 68, 0
2, 234866, Note_on_c, 0, 68, 82
2, 234867, Note_on_c, 0, 57, 81
2, 234873, Note_on_c, 0, 56, 80
2, 234896, Note_on_c, 0, 54, 73
2, 234931, Note_on_c, 0, 64, 0
2, 234942, Note_on_c, 0, 64, 88
2, 234961, Note_on_c, 0, 52, 0
2, 234961, Note_on_c, 0, 68, 0
2, 234972, Note_on_c, 0, 52, 84
2, 234973, Note_on_c, 0, 68, 70
2, 234992, Note_on_c, 0, 62, 0
2, 235003, Note_on_c, 0, 62, 66
2, 235046, Note_on_c, 0, 62, 0
2, 235050, Note_on_c, 0, 62, 69
2, 235051, Note_on_c, 0, 49, 90
2, 235061, Note_on_c, 0, 61, 0
2, 235066, Note_on_c, 0, 61, 78
2, 235084, Note_on_c, 0, 38, 0
2, 235088, Note_on_c, 0, 47, 72
2, 235115, Note_on_c, 0, 59, 0
2, 235119, Note_on_c, 0, 59, 96
2, 235195, Note_on_c, 0, 93, 0
2, 235195, Note_on_c, 0, 98, 0
2, 235195, Note_on_c, 0, 86, 0
2, 235195, Note_on_c, 0, 74, 0
2, 235196, Note_on_c, 0, 81, 0
2, 235196, Note_on_c, 0, 40, 0
2, 235196, Note_on_c, 0, 54, 0
2, 235196, Note_on_c, 0, 52, 0
2, 235196, Note_on_c, 0, 62, 0
2, 235196, Note_on_c, 0, 95, 0
2, 235196, Note_on_c, 0, 61, 0
2, 235196, Note_on_c, 0, 68, 0
2, 235196, Note_on_c, 0, 92, 0
2, 235196, Note_on_c, 0, 59, 0
2, 235196, Note_on_c, 0, 83, 0
2, 235196, Note_on_c, 0, 76, 0
2, 235196, Note_on_c, 0, 78, 0
2, 235196, Note_on_c, 0, 97, 0
2, 235197, Note_on_c, 0, 47, 0
2, 235197, Note_on_c, 0, 85, 0
2, 235197, Note_on_c, 0, 80, 0
2, 235197, Note_on_c, 0, 88, 0
2, 235197, Note_on_c, 0, 100, 0
2, 235197, Note_on_c, 0, 49, 0
2, 235201, Control_c, 0, 64, 0
2, 235207, Note_on_c, 0, 50, 0
2, 235207, Note_on_c, 0, 56, 0
2, 235207, Note_on_c, 0, 57, 0
2, 235207, Note_on_c, 0, 64, 0
2, 235207, Note_on_c, 0, 69, 0
2, 235207, Note_on_c, 0, 71, 0
2, 235207, Note_on_c, 0, 73, 0
2, 235215, Note_on_c, 0, 90, 0
2, 235215, Note_on_c, 0, 69, 103
2, 235216, Note_on_c, 0, 57, 106
2, 235217, Note_on_c, 0, 64, 88
2, 235217, Note_on_c, 0, 45, 103
2, 235219, Note_on_c, 0, 33, 99
2, 235284, Control_c, 0, 64, 127
2, 235434, Note_on_c, 0, 61, 78
2, 235468, Note_on_c, 0, 64, 0
2, 235479, Note_on_c, 0, 64, 73
2, 235568, Note_on_c, 0, 69, 0
2, 235577, Note_on_c, 0, 69, 72
2, 235648, Note_on_c, 0, 73, 70
2, 235705, Note_on_c, 0, 76, 69
2, 235758, Note_on_c, 0, 81, 86
2, 235860, Note_on_c, 0, 69, 0
2, 235866, Note_on_c, 0, 69, 61
2, 235906, Note_on_c, 0, 73, 0
2, 235912, Note_on_c, 0, 73, 73
2, 235944, Note_on_c, 0, 76, 0
2, 235950, Note_on_c, 0, 76, 75
2, 236029, Note_on_c, 0, 81, 0
2, 236038, Note_on_c, 0, 81, 79
2, 236119, Note_on_c, 0, 85, 76
2, 236200, Note_on_c, 0, 88, 74
2, 236275, Note_on_c, 0, 93, 100
2, 236287, Note_on_c, 0, 62, 101
2, 236294, Note_on_c, 0, 52, 102
2, 236328, Note_on_c, 0, 88, 0
2, 236339, Note_on_c, 0, 88, 65
2, 236390, Note_on_c, 0, 85, 0
2, 236395, Note_on_c, 0, 85, 68
2, 236428, Note_on_c, 0, 81, 0
2, 236436, Note_on_c, 0, 81, 64
2, 236497, Note_on_c, 0, 76, 0
2, 236505, Note_on_c, 0, 76, 73
2, 236590, Note_on_c, 0, 73, 0
2, 236598, Note_on_c, 0, 73, 69
2, 236643, Note_on_c, 0, 81, 0
2, 236650, Note_on_c, 0, 81, 78
2, 236674, Note_on_c, 0, 61, 0
2, 236685, Note_on_c, 0, 61, 102
2, 236720, Note_on_c, 0, 76, 0
2, 236731, Note_on_c, 0, 76, 76
2, 236766, Note_on_c, 0, 73, 0
2, 236771, Note_on_c, 0, 73, 78
2, 236820, Note_on_c, 0, 69, 0
2, 236831, Note_on_c, 0, 69, 51
2, 236881, Note_on_c, 0, 64, 0
2, 236885, Note_on_c, 0, 64, 82
2, 236943, Note_on_c, 0, 69, 0
2, 236949, Note_on_c, 0, 69, 45
2, 236989, Note_on_c, 0, 61, 0
2, 236995, Note_on_c, 0, 61, 71
2, 237035, Note_on_c, 0, 69, 0
2, 237045, Note_on_c, 0, 69, 76
2, 237085, Note_on_c, 0, 59, 96
2, 237112, Note_on_c, 0, 64, 0
2, 237118, Note_on_c, 0, 64, 78
2, 237189, Note_on_c, 0, 61, 0
2, 237192, Note_on_c, 0, 61, 77
2, 237316, Note_on_c, 0, 52, 0
2, 237316, Control_c, 0, 64, 0
2, 237316, Note_on_c, 0, 93, 0
2, 237317, Note_on_c, 0, 81, 0
2, 237317, Note_on_c, 0, 73, 0
2, 237317, Note_on_c, 0, 61, 0
2, 237317, Note_on_c, 0, 85, 0
2, 237317, Note_on_c, 0, 64, 0
2, 237317, Note_on_c, 0, 76, 0
2, 237318, Note_on_c, 0, 59, 0
2, 237319, Note_on_c, 0, 88, 0
2, 237319, Note_on_c, 0, 62, 0
2, 237342, Note_on_c, 0, 33, 0
2, 237342, Note_on_c, 0, 45, 0
2, 237342, Note_on_c, 0, 57, 0
2, 237342, Note_on_c, 0, 69, 0
2, 237346, Note_on_c, 0, 69, 96
2, 237348, Note_on_c, 0, 57, 104
2, 237348, Note_on_c, 0, 53, 103
2, 237351, Note_on_c, 0, 45, 98
2, 237351, Note_on_c, 0, 65, 91
2, 237352, Note_on_c, 0, 33, 93
2, 237381, Control_c, 0, 64, 127
2, 237534, Note_on_c, 0, 57, 0
2, 237543, Note_on_c, 0, 57, 74
2, 237593, Note_on_c, 0, 62, 79
2, 237649, Note_on_c, 0, 65, 0
2, 237654, Note_on_c, 0, 65, 71
2, 237726, Note_on_c, 0, 69, 0
2, 237735, Note_on_c, 0, 69, 75
2, 237790, Note_on_c, 0, 74, 70
2, 237857, Note_on_c, 0, 65, 0
2, 237862, Note_on_c, 0, 77, 71
2, 237862, Note_on_c, 0, 65, 71
2, 237900, Note_on_c, 0, 81, 93
2, 237980, Note_on_c, 0, 69, 0
2, 237988, Note_on_c, 0, 69, 71
2, 238041, Note_on_c, 0, 74, 0
2, 238047, Note_on_c, 0, 74, 78
2, 238095, Note_on_c, 0, 77, 0
2, 238101, Note_on_c, 0, 77, 78
2, 238195, Note_on_c, 0, 81, 0
2, 238199, Note_on_c, 0, 81, 80
2, 238268, Note_on_c, 0, 86, 73
2, 238329, Note_on_c, 0, 89, 71
2, 238402, Note_on_c, 0, 62, 0
2, 238405, Note_on_c, 0, 93, 101
2, 238410, Note_on_c, 0, 53, 0
2, 238410, Note_on_c, 0, 93, 0
2, 238411, Note_on_c, 0, 62, 106
2, 238417, Note_on_c, 0, 53, 99
2, 238464, Note_on_c, 0, 89, 0
2, 238469, Note_on_c, 0, 89, 80
2, 238517, Note_on_c, 0, 86, 0
2, 238528, Note_on_c, 0, 86, 73
2, 238632, Note_on_c, 0, 77, 0
2, 238639, Note_on_c, 0, 77, 80
2, 238725, Note_on_c, 0, 74, 0
2, 238735, Note_on_c, 0, 74, 76
2, 238801, Note_on_c, 0, 81, 0
2, 238812, Note_on_c, 0, 81, 80
2, 238813, Note_on_c, 0, 61, 103
2, 238855, Note_on_c, 0, 77, 0
2, 238866, Note_on_c, 0, 77, 78
2, 238901, Note_on_c, 0, 74, 0
2, 238912, Note_on_c, 0, 74, 86
2, 238955, Note_on_c, 0, 69, 0
2, 238966, Note_on_c, 0, 69, 73
2, 239024, Note_on_c, 0, 65, 0
2, 239030, Note_on_c, 0, 65, 82
2, 239132, Note_on_c, 0, 62, 0
2, 239137, Note_on_c, 0, 62, 80
2, 239185, Note_on_c, 0, 69, 0
2, 239195, Note_on_c, 0, 69, 76
2, 239204, Note_on_c, 0, 59, 100
2, 239232, Note_on_c, 0, 65, 0
2, 239243, Note_on_c, 0, 65, 87
2, 239316, Note_on_c, 0, 62, 0
2, 239324, Note_on_c, 0, 62, 85
2, 239449, Note_on_c, 0, 81, 0
2, 239450, Note_on_c, 0, 62, 0
2, 239450, Note_on_c, 0, 53, 0
2, 239450, Note_on_c, 0, 89, 0
2, 239450, Note_on_c, 0, 65, 0
2, 239450, Note_on_c, 0, 74, 0
2, 239450, Note_on_c, 0, 59, 0
2, 239450, Control_c, 0, 64, 0
2, 239462, Note_on_c, 0, 86, 0
2, 239470, Note_on_c, 0, 57, 0
2, 239470, Note_on_c, 0, 61, 0
2, 239470, Note_on_c, 0, 69, 0
2, 239470, Note_on_c, 0, 77, 0
2, 239477, Note_on_c, 0, 33, 0
2, 239477, Note_on_c, 0, 45, 0
2, 239478, Note_on_c, 0, 57, 98
2, 239479, Note_on_c, 0, 61, 105
2, 239481, Note_on_c, 0, 69, 95
2, 239482, Note_on_c, 0, 73, 90
2, 239482, Note_on_c, 0, 45, 95
2, 239483, Note_on_c, 0, 33, 81
2, 239523, Control_c, 0, 64, 127
2, 239677, Note_on_c, 0, 57, 0
2, 239683, Note_on_c, 0, 57, 57
2, 239715, Note_on_c, 0, 61, 0
2, 239719, Note_on_c, 0, 61, 84
2, 239758, Note_on_c, 0, 64, 74
2, 239838, Note_on_c, 0, 69, 0
2, 239850, Note_on_c, 0, 69, 71
2, 239900, Note_on_c, 0, 73, 0
2, 239906, Note_on_c, 0, 73, 69
2, 239973, Note_on_c, 0, 76, 74
2, 240018, Note_on_c, 0, 81, 90
2, 240092, Note_on_c, 0, 69, 0
2, 240103, Note_on_c, 0, 69, 75
2, 240176, Note_on_c, 0, 73, 0
2, 240180, Note_on_c, 0, 73, 75
2, 240215, Note_on_c, 0, 76, 0
2, 240226, Note_on_c, 0, 76, 81
2, 240307, Note_on_c, 0, 81, 0
2, 240318, Note_on_c, 0, 81, 85
2, 240402, Note_on_c, 0, 85, 79
2, 240460, Note_on_c, 0, 88, 79
2, 240541, Note_on_c, 0, 93, 101
2, 240549, Note_on_c, 0, 62, 105
2, 240556, Note_on_c, 0, 52, 102
2, 240660, Note_on_c, 0, 85, 0
2, 240668, Note_on_c, 0, 85, 69
2, 240798, Note_on_c, 0, 76, 0
2, 240804, Note_on_c, 0, 76, 59
2, 240883, Note_on_c, 0, 73, 0
2, 240887, Note_on_c, 0, 73, 67
2, 240944, Note_on_c, 0, 81, 0
2, 240948, Note_on_c, 0, 81, 75
2, 240952, Note_on_c, 0, 61, 0
2, 240956, Note_on_c, 0, 61, 103
2, 241006, Note_on_c, 0, 76, 0
2, 241011, Note_on_c, 0, 76, 74
2, 241044, Note_on_c, 0, 73, 0
2, 241055, Note_on_c, 0, 73, 82
2, 241098, Note_on_c, 0, 69, 0
2, 241103, Note_on_c, 0, 69, 73
2, 241167, Note_on_c, 0, 64, 0
2, 241175, Note_on_c, 0, 64, 78
2, 241267, Note_on_c, 0, 61, 0
2, 241272, Note_on_c, 0, 61, 73
2, 241320, Note_on_c, 0, 69, 0
2, 241330, Note_on_c, 0, 69, 74
2, 241339, Note_on_c, 0, 59, 102
2, 241374, Note_on_c, 0, 64, 0
2, 241385, Note_on_c, 0, 64, 69
2, 241451, Note_on_c, 0, 61, 0
2, 241457, Note_on_c, 0, 61, 93
2, 241573, Note_on_c, 0, 93, 0
2, 241573, Note_on_c, 0, 52, 0
2, 241573, Note_on_c, 0, 81, 0
2, 241575, Note_on_c, 0, 69, 0
2, 241575, Note_on_c, 0, 62, 0
2, 241575, Note_on_c, 0, 59, 0
2, 241575, Note_on_c, 0, 76, 0
2, 241575, Note_on_c, 0, 64, 0
2, 241575, Note_on_c, 0, 61, 0
2, 241575, Note_on_c, 0, 85, 0
2, 241576, Note_on_c, 0, 88, 0
2, 241578, Control_c, 0, 64, 0
2, 241589, Note_on_c, 0, 73, 0
2, 241605, Note_on_c, 0, 57, 0
2, 241612, Note_on_c, 0, 45, 0
2, 241614, Note_on_c, 0, 69, 96
2, 241616, Note_on_c, 0, 57, 105
2, 241620, Note_on_c, 0, 33, 0
2, 241621, Note_on_c, 0, 53, 101
2, 241623, Note_on_c, 0, 65, 88
2, 241623, Note_on_c, 0, 45, 95
2, 241624, Note_on_c, 0, 33, 82
2, 241635, Control_c, 0, 64, 127
2, 241804, Note_on_c, 0, 57, 0
2, 241810, Note_on_c, 0, 57, 81
2, 241856, Note_on_c, 0, 62, 81
2, 241904, Note_on_c, 0, 65, 0
2, 241916, Note_on_c, 0, 65, 74
2, 241981, Note_on_c, 0, 69, 0
2, 241988, Note_on_c, 0, 69, 76
2, 242043, Note_on_c, 0, 74, 83
2, 242114, Note_on_c, 0, 77, 72
2, 242151, Note_on_c, 0, 81, 95
2, 242234, Note_on_c, 0, 69, 0
2, 242243, Note_on_c, 0, 69, 70
2, 242296, Note_on_c, 0, 74, 0
2, 242300, Note_on_c, 0, 74, 76
2, 242350, Note_on_c, 0, 77, 0
2, 242360, Note_on_c, 0, 77, 74
2, 242449, Note_on_c, 0, 81, 0
2, 242456, Note_on_c, 0, 81, 61
2, 242511, Note_on_c, 0, 86, 84
2, 242599, Note_on_c, 0, 89, 57
2, 242649, Note_on_c, 0, 62, 0
2, 242657, Note_on_c, 0, 53, 0
2, 242660, Note_on_c, 0, 93, 98
2, 242661, Note_on_c, 0, 62, 102
2, 242662, Note_on_c, 0, 53, 97
2, 242664, Note_on_c, 0, 93, 0
2, 242718, Note_on_c, 0, 89, 0
2, 242725, Note_on_c, 0, 89, 84
2, 242772, Note_on_c, 0, 86, 0
2, 242777, Note_on_c, 0, 86, 80
2, 242895, Note_on_c, 0, 77, 0
2, 242903, Note_on_c, 0, 77, 72
2, 242972, Note_on_c, 0, 74, 0
2, 242978, Note_on_c, 0, 74, 86
2, 243041, Note_on_c, 0, 81, 0
2, 243052, Note_on_c, 0, 81, 75
2, 243057, Note_on_c, 0, 61, 103
2, 243095, Note_on_c, 0, 77, 0
2, 243104, Note_on_c, 0, 77, 74
2, 243156, Note_on_c, 0, 74, 0
2, 243165, Note_on_c, 0, 74, 78
2, 243217, Note_on_c, 0, 69, 0
2, 243228, Note_on_c, 0, 69, 64
2, 243271, Note_on_c, 0, 65, 0
2, 243276, Note_on_c, 0, 65, 85
2, 243363, Note_on_c, 0, 62, 0
2, 243368, Note_on_c, 0, 62, 85
2, 243417, Note_on_c, 0, 69, 0
2, 243428, Note_on_c, 0, 69, 74
2, 243465, Note_on_c, 0, 59, 98
2, 243471, Note_on_c, 0, 65, 0
2, 243475, Note_on_c, 0, 65, 88
2, 243548, Note_on_c, 0, 62, 0
2, 243555, Note_on_c, 0, 62, 85
2, 243704, Note_on_c, 0, 45, 0
2, 243705, Note_on_c, 0, 57, 0
2, 243705, Note_on_c, 0, 81, 0
2, 243705, Note_on_c, 0, 86, 0
2, 243705, Note_on_c, 0, 53, 0
2, 243705, Note_on_c, 0, 74, 0
2, 243706, Note_on_c, 0, 62, 0
2, 243706, Note_on_c, 0, 77, 0
2, 243706, Note_on_c, 0, 59, 0
2, 243706, Note_on_c, 0, 65, 0
2, 243706, Note_on_c, 0, 89, 0
2, 243707, Control_c, 0, 64, 0
2, 243724, Note_on_c, 0, 69, 0
2, 243732, Note_on_c, 0, 61, 0
2, 243740, Note_on_c, 0, 33, 0
2, 243741, Note_on_c, 0, 61, 106
2, 243744, Note_on_c, 0, 57, 96
2, 243745, Note_on_c, 0, 69, 79
2, 243746, Note_on_c, 0, 45, 93
2, 243746, Note_on_c, 0, 33, 81
2, 243786, Control_c, 0, 64, 127
2, 244041, Note_on_c, 0, 81, 60
2, 244162, Note_on_c, 0, 69, 0
2, 244169, Note_on_c, 0, 69, 52
2, 244280, Note_on_c, 0, 83, 62
2, 244439, Note_on_c, 0, 69, 0
2, 244448, Note_on_c, 0, 69, 43
2, 244557, Note_on_c, 0, 76, 60
2, 244669, Note_on_c, 0, 69, 0
2, 244673, Note_on_c, 0, 69, 52
2, 244761, Note_on_c, 0, 76, 0
2, 244767, Note_on_c, 0, 73, 29
2, 244772, Note_on_c, 0, 76, 25
2, 244807, Note_on_c, 0, 81, 0
2, 244812, Note_on_c, 0, 81, 69
2, 244930, Note_on_c, 0, 69, 0
2, 244939, Note_on_c, 0, 69, 51
2, 245068, Note_on_c, 0, 83, 0
2, 245078, Note_on_c, 0, 83, 61
2, 245207, Note_on_c, 0, 69, 0
2, 245218, Note_on_c, 0, 69, 50
2, 245376, Note_on_c, 0, 76, 0
2, 245380, Note_on_c, 0, 76, 54
2, 245498, Note_on_c, 0, 69, 0
2, 245507, Note_on_c, 0, 69, 53
2, 245637, Note_on_c, 0, 81, 0
2, 245642, Note_on_c, 0, 81, 62
2, 245767, Note_on_c, 0, 69, 0
2, 245775, Note_on_c, 0, 69, 47
2, 245898, Note_on_c, 0, 76, 0
2, 245908, Note_on_c, 0, 76, 60
2, 246021, Note_on_c, 0, 69, 0
2, 246029, Note_on_c, 0, 69, 53
2, 246167, Note_on_c, 0, 81, 0
2, 246174, Note_on_c, 0, 81, 67
2, 246184, Note_on_c, 0, 61, 0
2, 246297, Note_on_c, 0, 69, 0
2, 246301, Note_on_c, 0, 69, 50
2, 246428, Note_on_c, 0, 83, 0
2, 246432, Note_on_c, 0, 83, 59
2, 246543, Note_on_c, 0, 69, 0
2, 246548, Note_on_c, 0, 69, 33
2, 246704, Note_on_c, 0, 76, 0
2, 246709, Note_on_c, 0, 76, 58
2, 246819, Note_on_c, 0, 69, 0
2, 246829, Note_on_c, 0, 69, 48
2, 246973, Note_on_c, 0, 81, 0
2, 246977, Note_on_c, 0, 81, 63
2, 247088, Note_on_c, 0, 69, 0
2, 247095, Note_on_c, 0, 69, 35
2, 247234, Note_on_c, 0, 83, 0
2, 247241, Note_on_c, 0, 83, 53
2, 247365, Note_on_c, 0, 69, 0
2, 247369, Note_on_c, 0, 69, 38
2, 247526, Note_on_c, 0, 76, 0
2, 247530, Note_on_c, 0, 76, 47
2, 247680, Note_on_c, 0, 33, 0
2, 247680, Note_on_c, 0, 57, 0
2, 247779, Note_on_c, 0, 81, 0
2, 247784, Note_on_c, 0, 81, 60
2, 247902, Note_on_c, 0, 69, 0
2, 247913, Note_on_c, 0, 69, 50
2, 248064, Note_on_c, 0, 45, 0
2, 248071, Note_on_c, 0, 88, 66
2, 248072, Note_on_c, 0, 45, 49
2, 248194, Note_on_c, 0, 81, 0
2, 248200, Note_on_c, 0, 81, 44
2, 248337, Note_on_c, 0, 93, 47
2, 248386, Note_on_c, 0, 83, 0
2, 248396, Note_on_c, 0, 83, 17
2, 248494, Note_on_c, 0, 81, 0
2, 248500, Note_on_c, 0, 81, 49
2, 248595, Note_on_c, 0, 95, 69
2, 248747, Note_on_c, 0, 81, 0
2, 248758, Note_on_c, 0, 81, 34
2, 248850, Note_on_c, 0, 52, 60
2, 248862, Note_on_c, 0, 88, 0
2, 248873, Note_on_c, 0, 88, 61
2, 248977, Note_on_c, 0, 52, 0
2, 248981, Note_on_c, 0, 52, 50
2, 249008, Note_on_c, 0, 81, 0
2, 249012, Note_on_c, 0, 81, 47
2, 249131, Note_on_c, 0, 93, 0
2, 249138, Note_on_c, 0, 93, 62
2, 249277, Note_on_c, 0, 81, 0
2, 249283, Note_on_c, 0, 81, 45
2, 249377, Note_on_c, 0, 73, 0
2, 249384, Note_on_c, 0, 95, 0
2, 249394, Note_on_c, 0, 95, 63
2, 249515, Note_on_c, 0, 81, 0
2, 249526, Note_on_c, 0, 81, 43
2, 249661, Note_on_c, 0, 88, 0
2, 249666, Note_on_c, 0, 88, 61
2, 249799, Note_on_c, 0, 81, 0
2, 249807, Note_on_c, 0, 81, 29
2, 249937, Note_on_c, 0, 93, 0
2, 249949, Note_on_c, 0, 93, 52
2, 250060, Note_on_c, 0, 81, 0
2, 250067, Note_on_c, 0, 81, 33
2, 250206, Note_on_c, 0, 88, 0
2, 250211, Note_on_c, 0, 57, 62
2, 250217, Note_on_c, 0, 88, 52
2, 250329, Note_on_c, 0, 81, 0
2, 250333, Note_on_c, 0, 81, 33
2, 250475, Note_on_c, 0, 93, 0
2, 250480, Note_on_c, 0, 93, 58
2, 250606, Note_on_c, 0, 81, 0
2, 250617, Note_on_c, 0, 81, 42
2, 250744, Note_on_c, 0, 95, 0
2, 250754, Note_on_c, 0, 95, 66
2, 250867, Note_on_c, 0, 81, 0
2, 250877, Note_on_c, 0, 81, 49
2, 251009, Note_on_c, 0, 76, 0
2, 251010, Note_on_c, 0, 64, 58
2, 251020, Note_on_c, 0, 88, 0
2, 251030, Note_on_c, 0, 88, 56
2, 251128, Note_on_c, 0, 64, 0
2, 251128, Note_on_c, 0, 81, 0
2, 251128, Note_on_c, 0, 83, 0
2, 251135, Note_on_c, 0, 64, 53
2, 251137, Note_on_c, 0, 83, 46
2, 251139, Note_on_c, 0, 81, 50
2, 251297, Note_on_c, 0, 93, 0
2, 251303, Note_on_c, 0, 93, 62
2, 251427, Note_on_c, 0, 81, 0
2, 251433, Note_on_c, 0, 81, 46
2, 251520, Note_on_c, 0, 45, 0
2, 251520, Note_on_c, 0, 52, 0
2, 251520, Note_on_c, 0, 83, 0
2, 251566, Note_on_c, 0, 95, 0
2, 251576, Note_on_c, 0, 95, 60
2, 251696, Note_on_c, 0, 81, 0
2, 251701, Note_on_c, 0, 81, 40
2, 251811, Note_on_c, 0, 69, 0
2, 251833, Control_c, 0, 64, 0
2, 251842, Note_on_c, 0, 88, 0
2, 251847, Note_on_c, 0, 88, 56
2, 251950, Control_c, 0, 64, 127
2, 251988, Note_on_c, 0, 81, 0
2, 251994, Note_on_c, 0, 81, 39
2, 252134, Note_on_c, 0, 93, 0
2, 252145, Note_on_c, 0, 93, 45
2, 252241, Note_on_c, 0, 81, 0
2, 252253, Note_on_c, 0, 81, 46
2, 252264, Note_on_c, 0, 95, 0
2, 252391, Note_on_c, 0, 69, 60
2, 252395, Note_on_c, 0, 88, 0
2, 252404, Note_on_c, 0, 88, 55
2, 252510, Note_on_c, 0, 81, 0
2, 252520, Note_on_c, 0, 81, 49
2, 252656, Note_on_c, 0, 93, 0
2, 252667, Note_on_c, 0, 93, 59
2, 252794, Note_on_c, 0, 81, 0
2, 252799, Note_on_c, 0, 81, 35
2, 252931, Note_on_c, 0, 95, 59
2, 253063, Note_on_c, 0, 81, 0
2, 253067, Note_on_c, 0, 81, 37
2, 253199, Note_on_c, 0, 76, 54
2, 253201, Note_on_c, 0, 88, 0
2, 253213, Note_on_c, 0, 88, 54
2, 253324, Note_on_c, 0, 76, 0
2, 253332, Note_on_c, 0, 81, 0
2, 253335, Note_on_c, 0, 76, 54
2, 253336, Note_on_c, 0, 81, 40
2, 253478, Note_on_c, 0, 93, 0
2, 253485, Note_on_c, 0, 93, 55
2, 253608, Note_on_c, 0, 81, 0
2, 253617, Note_on_c, 0, 81, 44
2, 253754, Note_on_c, 0, 95, 0
2, 253764, Note_on_c, 0, 95, 45
2, 253877, Note_on_c, 0, 81, 0
2, 253884, Note_on_c, 0, 81, 35
2, 254016, Note_on_c, 0, 88, 0
2, 254026, Note_on_c, 0, 88, 51
2, 254154, Note_on_c, 0, 81, 0
2, 254158, Note_on_c, 0, 81, 39
2, 254300, Note_on_c, 0, 93, 0
2, 254311, Note_on_c, 0, 93, 54
2, 254430, Note_on_c, 0, 81, 0
2, 254434, Note_on_c, 0, 81, 43
2, 254584, Note_on_c, 0, 88, 0
2, 254594, Note_on_c, 0, 88, 49
2, 254730, Note_on_c, 0, 81, 0
2, 254735, Note_on_c, 0, 81, 31
2, 254745, Note_on_c, 0, 57, 0
2, 254876, Note_on_c, 0, 93, 0
2, 254881, Note_on_c, 0, 93, 55
2, 255029, Note_on_c, 0, 81, 0
2, 255037, Note_on_c, 0, 81, 46
2, 255168, Note_on_c, 0, 95, 0
2, 255175, Note_on_c, 0, 95, 51
2, 255313, Note_on_c, 0, 81, 0
2, 255325, Note_on_c, 0, 81, 37
2, 255360, Note_on_c, 0, 64, 0
2, 255360, Note_on_c, 0, 69, 0
2, 255467, Note_on_c, 0, 88, 0
2, 255472, Note_on_c, 0, 88, 57
2, 255636, Note_on_c, 0, 81, 0
2, 255643, Note_on_c, 0, 81, 34
2, 255805, Note_on_c, 0, 93, 0
2, 255810, Note_on_c, 0, 93, 57
2, 256005, Note_on_c, 0, 81, 0
2, 256012, Note_on_c, 0, 81, 44
2, 256204, Note_on_c, 0, 95, 0
2, 256214, Note_on_c, 0, 95, 56
2, 256435, Note_on_c, 0, 81, 0
2, 256444, Note_on_c, 0, 81, 40
2, 256688, Note_on_c, 0, 88, 0
2, 256697, Note_on_c, 0, 88, 54
2, 256995, Note_on_c, 0, 76, 0
2, 256995, Note_on_c, 0, 81, 0
2, 257000, Note_on_c, 0, 81, 31
2, 257441, Note_on_c, 0, 93, 0
2, 257451, Note_on_c, 0, 93, 58
2, 257717, Control_c, 0, 64, 0
2, 258378, Control_c, 0, 64, 127
2, 258908, Note_on_c, 0, 95, 0
2, 258917, Note_on_c, 0, 95, 53
2, 258927, Note_on_c, 0, 74, 34
2, 258927, Note_on_c, 0, 83, 30
2, 258946, Note_on_c, 0, 78, 25
2, 259000, Note_on_c, 0, 88, 0
2, 259200, Note_on_c, 0, 81, 0
2, 262056, Note_on_c, 0, 93, 0
2, 263040, Note_on_c, 0, 74, 0
2, 263040, Note_on_c, 0, 78, 0
2, 263040, Note_on_c, 0, 83, 0
2, 263040, Note_on_c, 0, 95, 0
2, 263477, Control_c, 0, 64, 0
2, 264545, Control_c, 0, 64, 127
2, 264660, Control_c, 0, 64, 0
2, 264806, Control_c, 0, 64, 127
2, 264834, Note_on_c, 0, 40, 91
2, 264880, Note_on_c, 0, 47, 85
2, 264950, Note_on_c, 0, 52, 89
2, 265076, Note_on_c, 0, 80, 113
2, 265078, Note_on_c, 0, 88, 110
2, 265085, Note_on_c, 0, 76, 107
2, 265095, Note_on_c, 0, 59, 85
2, 265095, Note_on_c, 0, 64, 95
2, 265096, Note_on_c, 0, 56, 90
2, 265806, Note_on_c, 0, 47, 0
2, 265806, Note_on_c, 0, 64, 0
2, 265806, Note_on_c, 0, 52, 0
2, 265806, Note_on_c, 0, 88, 0
2, 265807, Note_on_c, 0, 80, 0
2, 265807, Note_on_c, 0, 59, 0
2, 265807, Note_on_c, 0, 76, 0
2, 265807, Note_on_c, 0, 40, 0
2, 265808, Note_on_c, 0, 56, 0
2, 265817, Control_c, 0, 64, 0
2, 266244, Note_on_c, 0, 33, 91
2, 266265, Control_c, 0, 64, 127
2, 266301, Note_on_c, 0, 45, 86
2, 266388, Note_on_c, 0, 45, 0
2, 266395, Note_on_c, 0, 45, 75
2, 266403, Note_on_c, 0, 49, 81
2, 266477, Note_on_c, 0, 52, 85
2, 266523, Note_on_c, 0, 57, 86
2, 266712, Note_on_c, 0, 93, 113
2, 266713, Note_on_c, 0, 85, 110
2, 266714, Note_on_c, 0, 88, 107
2, 266714, Note_on_c, 0, 81, 109
2, 266718, Note_on_c, 0, 57, 0
2, 266719, Note_on_c, 0, 69, 105
2, 266720, Note_on_c, 0, 64, 97
2, 266721, Note_on_c, 0, 61, 101
2, 266722, Note_on_c, 0, 57, 89
2, 270720, Note_on_c, 0, 33, 0
2, 270720, Note_on_c, 0, 45, 0
2, 270720, Note_on_c, 0, 49, 0
2, 270720, Note_on_c, 0, 52, 0
2, 270720, Note_on_c, 0, 57, 0
2, 270720, Note_on_c, 0, 61, 0
2, 270720, Note_on_c, 0, 64, 0
2, 270720, Note_on_c, 0, 69, 0
2, 270720, Note_on_c, 0, 81, 0
2, 270720, Note_on_c, 0, 85, 0
2, 270720, Note_on_c, 0, 88, 0
2, 270720, Note_on_c, 0, 93, 0
2, 271083, Control_c, 0, 64, 0
2, 273315, Control_c, 0, 64, 127
2, 274560, Control_c, 0, 64, 0
2, 274561, End_track
0, 0, End_of_file
