0, 0, Header, 1, 2, 384
1, 0, Start_track
1, 0, Tempo, 500000
1, 0, Time_signature, 4, 2, 24, 8
1, 1, End_track
2, 0, Start_track
2, 1175, Control_c, 0, 64, 127
2, 1614, Note_on_c, 0, 71, 44
2, 2082, Note_on_c, 0, 76, 59
2, 2096, Note_on_c, 0, 71, 0
2, 2101, Note_on_c, 0, 64, 46
2, 2104, Note_on_c, 0, 71, 32
2, 2105, Note_on_c, 0, 68, 36
2, 2132, Control_c, 0, 64, 0
2, 2204, Control_c, 0, 64, 127
2, 2664, Note_on_c, 0, 76, 0
2, 2676, Note_on_c, 0, 76, 62
2, 2880, Note_on_c, 0, 76, 0
2, 2884, Note_on_c, 0, 76, 60
2, 3074, Note_on_c, 0, 78, 73
2, 3267, Note_on_c, 0, 80, 70
2, 3456, Note_on_c, 0, 71, 0
2, 3463, Note_on_c, 0, 71, 63
2, 3702, Note_on_c, 0, 63, 42
2, 3704, Note_on_c, 0, 56, 41
2, 3727, Note_on_c, 0, 68, 0
2, 3728, Control_c, 0, 64, 0
2, 3729, Note_on_c, 0, 64, 0
2, 3731, Note_on_c, 0, 78, 0
2, 3740, Note_on_c, 0, 76, 0
2, 3840, Control_c, 0, 64, 127
2, 5015, Note_on_c, 0, 71, 0
2, 5026, Note_on_c, 0, 71, 63
2, 5383, Note_on_c, 0, 80, 0
2, 5451, Note_on_c, 0, 73, 65
2, 5472, Note_on_c, 0, 57, 42
2, 5472, Control_c, 0, 64, 0
2, 5476, Note_on_c, 0, 64, 45
2, 5476, Note_on_c, 0, 63, 0
2, 5477, Note_on_c, 0, 56, 0
2, 5506, Note_on_c, 0, 71, 0
2, 5591, Control_c, 0, 64, 127
2, 6039, Note_on_c, 0, 76, 70
2, 6255, Note_on_c, 0, 75, 67
2, 6255, Note_on_c, 0, 66, 54
2, 6257, Note_on_c, 0, 59, 55
2, 6276, Control_c, 0, 64, 0
2, 6278, Note_on_c, 0, 73, 0
2, 6281, Note_on_c, 0, 76, 0
2, 6283, Note_on_c, 0, 64, 0
2, 6283, Note_on_c, 0, 57, 0
2, 6351, Control_c, 0, 64, 127
2, 6455, Note_on_c, 0, 76, 80
2, 6631, Note_on_c, 0, 78, 84
2, 6825, Note_on_c, 0, 80, 80
2, 7059, Note_on_c, 0, 64, 54
2, 7062, Note_on_c, 0, 68, 48
2, 7085, Note_on_c, 0, 59, 0
2, 7086, Note_on_c, 0, 78, 0
2, 7086, Note_on_c, 0, 66, 0
2, 7086, Note_on_c, 0, 76, 0
2, 7088, Note_on_c, 0, 75, 0
2, 7089, Control_c, 0, 64, 0
2, 7326, Control_c, 0, 64, 127
2, 7418, Note_on_c, 0, 80, 0
2, 7424, Note_on_c, 0, 80, 30
2, 8294, Note_on_c, 0, 80, 0
2, 8305, Note_on_c, 0, 80, 72
2, 8739, Note_on_c, 0, 69, 52
2, 8742, Note_on_c, 0, 81, 73
2, 8744, Note_on_c, 0, 73, 58
2, 8812, Note_on_c, 0, 64, 0
2, 8812, Note_on_c, 0, 68, 0
2, 8822, Control_c, 0, 64, 0
2, 8847, Note_on_c, 0, 80, 0
2, 8916, Control_c, 0, 64, 127
2, 9331, Note_on_c, 0, 81, 0
2, 9342, Note_on_c, 0, 81, 71
2, 9546, Note_on_c, 0, 81, 0
2, 9557, Note_on_c, 0, 81, 76
2, 9749, Note_on_c, 0, 80, 78
2, 9930, Note_on_c, 0, 78, 82
2, 10111, Note_on_c, 0, 76, 77
2, 10329, Note_on_c, 0, 80, 0
2, 10337, Note_on_c, 0, 76, 0
2, 10340, Note_on_c, 0, 80, 69
2, 10342, Note_on_c, 0, 76, 53
2, 10348, Note_on_c, 0, 71, 50
2, 10363, Note_on_c, 0, 69, 0
2, 10363, Note_on_c, 0, 64, 46
2, 10363, Note_on_c, 0, 73, 0
2, 10364, Note_on_c, 0, 78, 0
2, 10365, Control_c, 0, 64, 0
2, 10375, Note_on_c, 0, 81, 0
2, 10606, Control_c, 0, 64, 127
2, 10744, Note_on_c, 0, 76, 0
2, 11612, Note_on_c, 0, 80, 0
2, 11616, Note_on_c, 0, 80, 72
2, 12046, Note_on_c, 0, 78, 74
2, 12070, Note_on_c, 0, 70, 48
2, 12072, Note_on_c, 0, 66, 43
2, 12099, Control_c, 0, 64, 0
2, 12107, Note_on_c, 0, 64, 0
2, 12107, Note_on_c, 0, 80, 0
2, 12108, Note_on_c, 0, 71, 0
2, 12257, Control_c, 0, 64, 127
2, 12643, Note_on_c, 0, 73, 63
2, 12817, Note_on_c, 0, 78, 0
2, 12825, Note_on_c, 0, 78, 73
2, 13037, Note_on_c, 0, 80, 75
2, 13416, Note_on_c, 0, 78, 0
2, 13427, Note_on_c, 0, 78, 75
2, 13581, Note_on_c, 0, 70, 0
2, 13581, Note_on_c, 0, 66, 0
2, 13582, Note_on_c, 0, 80, 0
2, 13583, Note_on_c, 0, 73, 0
2, 13585, Control_c, 0, 64, 0
2, 13622, Note_on_c, 0, 59, 50
2, 13678, Control_c, 0, 64, 127
2, 13844, Note_on_c, 0, 71, 51
2, 13997, Note_on_c, 0, 69, 54
2, 14185, Note_on_c, 0, 66, 66
2, 14380, Note_on_c, 0, 63, 64
2, 14561, Note_on_c, 0, 66, 0
2, 14566, Note_on_c, 0, 66, 62
2, 14753, Note_on_c, 0, 59, 0
2, 14753, Note_on_c, 0, 71, 0
2, 14759, Note_on_c, 0, 59, 62
2, 14763, Note_on_c, 0, 71, 80
2, 14929, Note_on_c, 0, 66, 0
2, 14939, Note_on_c, 0, 66, 70
2, 15171, Note_on_c, 0, 52, 60
2, 15172, Note_on_c, 0, 80, 86
2, 15179, Note_on_c, 0, 76, 77
2, 15187, Note_on_c, 0, 69, 0
2, 15187, Note_on_c, 0, 63, 0
2, 15188, Note_on_c, 0, 59, 0
2, 15189, Note_on_c, 0, 71, 0
2, 15191, Control_c, 0, 64, 0
2, 15192, Note_on_c, 0, 66, 0
2, 15221, Note_on_c, 0, 78, 0
2, 15290, Control_c, 0, 64, 127
2, 15362, Note_on_c, 0, 59, 66
2, 15531, Note_on_c, 0, 64, 69
2, 15713, Note_on_c, 0, 80, 0
2, 15720, Note_on_c, 0, 76, 0
2, 15721, Note_on_c, 0, 80, 86
2, 15731, Note_on_c, 0, 76, 78
2, 15733, Note_on_c, 0, 68, 64
2, 15905, Note_on_c, 0, 80, 0
2, 15911, Note_on_c, 0, 80, 84
2, 15920, Note_on_c, 0, 76, 0
2, 15926, Note_on_c, 0, 76, 75
2, 16081, Note_on_c, 0, 81, 84
2, 16108, Note_on_c, 0, 78, 81
2, 16266, Note_on_c, 0, 76, 0
2, 16266, Note_on_c, 0, 80, 0
2, 16269, Note_on_c, 0, 83, 86
2, 16275, Note_on_c, 0, 76, 60
2, 16276, Note_on_c, 0, 80, 70
2, 16473, Note_on_c, 0, 83, 0
2, 16481, Note_on_c, 0, 83, 85
2, 16484, Note_on_c, 0, 71, 72
2, 16664, Note_on_c, 0, 56, 56
2, 16665, Note_on_c, 0, 52, 0
2, 16667, Note_on_c, 0, 68, 0
2, 16667, Note_on_c, 0, 59, 0
2, 16667, Note_on_c, 0, 64, 0
2, 16668, Note_on_c, 0, 76, 0
2, 16668, Note_on_c, 0, 78, 0
2, 16668, Note_on_c, 0, 81, 0
2, 16671, Control_c, 0, 64, 0
2, 16673, Note_on_c, 0, 80, 0
2, 16750, Control_c, 0, 64, 127
2, 16855, Note_on_c, 0, 63, 55
2, 17031, Note_on_c, 0, 68, 52
2, 17226, Note_on_c, 0, 71, 0
2, 17235, Note_on_c, 0, 71, 53
2, 17610, Note_on_c, 0, 68, 0
2, 17616, Note_on_c, 0, 68, 51
2, 17786, Note_on_c, 0, 71, 0
2, 17786, Note_on_c, 0, 83, 0
2, 17790, Note_on_c, 0, 83, 84
2, 17797, Note_on_c, 0, 71, 70
2, 18180, Note_on_c, 0, 81, 91
2, 18192, Note_on_c, 0, 57, 63
2, 18205, Note_on_c, 0, 73, 66
2, 18211, Note_on_c, 0, 69, 51
2, 18222, Control_c, 0, 64, 0
2, 18227, Note_on_c, 0, 56, 0
2, 18227, Note_on_c, 0, 83, 0
2, 18227, Note_on_c, 0, 63, 0
2, 18227, Note_on_c, 0, 68, 0
2, 18247, Note_on_c, 0, 71, 0
2, 18316, Control_c, 0, 64, 127
2, 18382, Note_on_c, 0, 64, 56
2, 18424, Note_on_c, 0, 69, 0
2, 18550, Note_on_c, 0, 69, 63
2, 18721, Note_on_c, 0, 85, 90
2, 18748, Note_on_c, 0, 76, 74
2, 18896, Control_c, 0, 64, 0
2, 18905, Note_on_c, 0, 81, 0
2, 18905, Note_on_c, 0, 73, 0
2, 18905, Note_on_c, 0, 57, 0
2, 18905, Note_on_c, 0, 83, 83
2, 18905, Note_on_c, 0, 64, 0
2, 18906, Note_on_c, 0, 85, 0
2, 18907, Note_on_c, 0, 76, 0
2, 18907, Note_on_c, 0, 75, 87
2, 18907, Note_on_c, 0, 69, 0
2, 18924, Note_on_c, 0, 71, 66
2, 18934, Note_on_c, 0, 59, 66
2, 18961, Control_c, 0, 64, 127
2, 19084, Note_on_c, 0, 83, 0
2, 19092, Note_on_c, 0, 83, 87
2, 19103, Note_on_c, 0, 76, 83
2, 19104, Note_on_c, 0, 66, 62
2, 19269, Note_on_c, 0, 59, 0
2, 19269, Note_on_c, 0, 71, 0
2, 19273, Note_on_c, 0, 81, 91
2, 19274, Note_on_c, 0, 59, 66
2, 19279, Note_on_c, 0, 71, 73
2, 19280, Note_on_c, 0, 78, 88
2, 19453, Note_on_c, 0, 83, 0
2, 19464, Note_on_c, 0, 83, 91
2, 19477, Note_on_c, 0, 80, 83
2, 19667, Note_on_c, 0, 52, 68
2, 19687, Control_c, 0, 64, 0
2, 19694, Note_on_c, 0, 59, 0
2, 19694, Note_on_c, 0, 75, 0
2, 19694, Note_on_c, 0, 66, 0
2, 19695, Note_on_c, 0, 81, 0
2, 19695, Note_on_c, 0, 78, 0
2, 19714, Note_on_c, 0, 71, 0
2, 19783, Control_c, 0, 64, 127
2, 19857, Note_on_c, 0, 59, 61
2, 20028, Note_on_c, 0, 64, 52
2, 20236, Note_on_c, 0, 68, 57
2, 20620, Note_on_c, 0, 64, 0
2, 20624, Note_on_c, 0, 64, 50
2, 20797, Note_on_c, 0, 80, 0
2, 20801, Note_on_c, 0, 80, 84
2, 20812, Note_on_c, 0, 76, 0
2, 20823, Note_on_c, 0, 76, 76
2, 20986, Note_on_c, 0, 81, 86
2, 20998, Note_on_c, 0, 78, 86
2, 21173, Note_on_c, 0, 83, 0
2, 21184, Note_on_c, 0, 83, 86
2, 21188, Note_on_c, 0, 56, 62
2, 21189, Note_on_c, 0, 80, 0
2, 21192, Note_on_c, 0, 80, 80
2, 21207, Control_c, 0, 64, 0
2, 21209, Note_on_c, 0, 59, 0
2, 21210, Note_on_c, 0, 52, 0
2, 21210, Note_on_c, 0, 68, 0
2, 21210, Note_on_c, 0, 64, 0
2, 21214, Note_on_c, 0, 78, 0
2, 21214, Note_on_c, 0, 81, 0
2, 21227, Note_on_c, 0, 76, 0
2, 21312, Control_c, 0, 64, 127
2, 21374, Note_on_c, 0, 63, 57
2, 21540, Note_on_c, 0, 68, 63
2, 21719, Note_on_c, 0, 80, 0
2, 21719, Note_on_c, 0, 83, 0
2, 21724, Note_on_c, 0, 71, 67
2, 21727, Note_on_c, 0, 83, 79
2, 21728, Note_on_c, 0, 80, 76
2, 21911, Note_on_c, 0, 80, 0
2, 21911, Note_on_c, 0, 83, 0
2, 21915, Note_on_c, 0, 83, 86
2, 21918, Note_on_c, 0, 80, 75
2, 22090, Note_on_c, 0, 85, 92
2, 22093, Note_on_c, 0, 81, 80
2, 22264, Note_on_c, 0, 80, 0
2, 22264, Note_on_c, 0, 83, 0
2, 22270, Note_on_c, 0, 83, 78
2, 22273, Note_on_c, 0, 80, 77
2, 22473, Note_on_c, 0, 76, 87
2, 22474, Note_on_c, 0, 73, 77
2, 22605, Note_on_c, 0, 68, 0
2, 22605, Note_on_c, 0, 56, 0
2, 22606, Note_on_c, 0, 63, 0
2, 22606, Note_on_c, 0, 85, 0
2, 22606, Note_on_c, 0, 71, 0
2, 22606, Note_on_c, 0, 81, 0
2, 22607, Note_on_c, 0, 83, 0
2, 22614, Control_c, 0, 64, 0
2, 22632, Note_on_c, 0, 80, 0
2, 22652, Note_on_c, 0, 49, 57
2, 22679, Control_c, 0, 64, 127
2, 22839, Note_on_c, 0, 78, 80
2, 22843, Note_on_c, 0, 75, 72
2, 22850, Note_on_c, 0, 56, 59
2, 23020, Note_on_c, 0, 80, 80
2, 23024, Note_on_c, 0, 76, 0
2, 23034, Note_on_c, 0, 61, 60
2, 23035, Note_on_c, 0, 76, 70
2, 23227, Note_on_c, 0, 64, 57
2, 23608, Note_on_c, 0, 64, 0
2, 23612, Note_on_c, 0, 64, 63
2, 23613, Note_on_c, 0, 56, 0
2, 23795, Note_on_c, 0, 66, 75
2, 23982, Note_on_c, 0, 68, 71
2, 24172, Note_on_c, 0, 85, 93
2, 24180, Note_on_c, 0, 81, 78
2, 24184, Note_on_c, 0, 76, 0
2, 24189, Note_on_c, 0, 69, 66
2, 24191, Note_on_c, 0, 75, 0
2, 24191, Note_on_c, 0, 49, 0
2, 24192, Note_on_c, 0, 64, 0
2, 24193, Note_on_c, 0, 68, 0
2, 24193, Note_on_c, 0, 80, 0
2, 24193, Note_on_c, 0, 78, 0
2, 24194, Note_on_c, 0, 61, 0
2, 24194, Note_on_c, 0, 66, 0
2, 24195, Note_on_c, 0, 54, 60
2, 24195, Note_on_c, 0, 76, 66
2, 24199, Control_c, 0, 64, 0
2, 24200, Note_on_c, 0, 64, 57
2, 24207, Note_on_c, 0, 73, 0
2, 24368, Control_c, 0, 64, 127
2, 24745, Note_on_c, 0, 83, 84
2, 24751, Note_on_c, 0, 80, 75
2, 24929, Note_on_c, 0, 81, 0
2, 24935, Note_on_c, 0, 81, 85
2, 24957, Note_on_c, 0, 78, 75
2, 24964, Note_on_c, 0, 59, 59
2, 24967, Note_on_c, 0, 71, 57
2, 24968, Note_on_c, 0, 66, 58
2, 24969, Control_c, 0, 64, 0
2, 24971, Note_on_c, 0, 54, 0
2, 24976, Note_on_c, 0, 83, 0
2, 24977, Note_on_c, 0, 69, 0
2, 24977, Note_on_c, 0, 80, 0
2, 24977, Note_on_c, 0, 76, 0
2, 24977, Note_on_c, 0, 85, 0
2, 24978, Note_on_c, 0, 64, 0
2, 25113, Control_c, 0, 64, 127
2, 25132, Note_on_c, 0, 80, 82
2, 25140, Note_on_c, 0, 76, 72
2, 25159, Note_on_c, 0, 59, 0
2, 25163, Note_on_c, 0, 59, 46
2, 25520, Note_on_c, 0, 80, 0
2, 25526, Note_on_c, 0, 80, 80
2, 25543, Note_on_c, 0, 76, 0
2, 25547, Note_on_c, 0, 76, 68
2, 25674, Note_on_c, 0, 78, 0
2, 25712, Note_on_c, 0, 81, 0
2, 25713, Note_on_c, 0, 52, 60
2, 25740, Control_c, 0, 64, 0
2, 25742, Note_on_c, 0, 59, 0
2, 25746, Note_on_c, 0, 71, 0
2, 25746, Note_on_c, 0, 66, 0
2, 25827, Control_c, 0, 64, 127
2, 25911, Note_on_c, 0, 59, 44
2, 26083, Note_on_c, 0, 64, 55
2, 26276, Note_on_c, 0, 68, 54
2, 26641, Note_on_c, 0, 64, 0
2, 26646, Note_on_c, 0, 64, 58
2, 26803, Note_on_c, 0, 68, 0
2, 26813, Note_on_c, 0, 68, 68
2, 26999, Note_on_c, 0, 71, 79
2, 27187, Note_on_c, 0, 76, 0
2, 27197, Note_on_c, 0, 76, 69
2, 27202, Note_on_c, 0, 52, 0
2, 27202, Note_on_c, 0, 68, 0
2, 27206, Control_c, 0, 64, 0
2, 27206, Note_on_c, 0, 68, 56
2, 27207, Note_on_c, 0, 52, 40
2, 27208, Note_on_c, 0, 64, 0
2, 27210, Note_on_c, 0, 59, 0
2, 27212, Note_on_c, 0, 71, 0
2, 27215, Note_on_c, 0, 59, 46
2, 27233, Note_on_c, 0, 80, 0
2, 27310, Control_c, 0, 64, 127
2, 27375, Note_on_c, 0, 75, 69
2, 27542, Note_on_c, 0, 71, 68
2, 27747, Note_on_c, 0, 68, 0
2, 27758, Note_on_c, 0, 68, 62
2, 27766, Note_on_c, 0, 75, 0
2, 27767, Note_on_c, 0, 71, 0
2, 27770, Control_c, 0, 64, 0
2, 27770, Note_on_c, 0, 59, 0
2, 27775, Note_on_c, 0, 64, 48
2, 27778, Note_on_c, 0, 52, 0
2, 27778, Note_on_c, 0, 76, 0
2, 27780, Note_on_c, 0, 59, 37
2, 27782, Note_on_c, 0, 52, 36
2, 27886, Control_c, 0, 64, 127
2, 28138, Note_on_c, 0, 71, 60
2, 28317, Control_c, 0, 64, 0
2, 28327, Note_on_c, 0, 66, 61
2, 28327, Note_on_c, 0, 51, 51
2, 28346, Control_c, 0, 64, 127
2, 28674, Note_on_c, 0, 51, 0
2, 28675, Note_on_c, 0, 71, 0
2, 28677, Note_on_c, 0, 66, 0
2, 28680, Control_c, 0, 64, 0
2, 28684, Note_on_c, 0, 59, 0
2, 28684, Note_on_c, 0, 68, 0
2, 28692, Note_on_c, 0, 52, 0
2, 28692, Note_on_c, 0, 64, 0
2, 28716, Note_on_c, 0, 64, 59
2, 28717, Note_on_c, 0, 49, 48
2, 28815, Control_c, 0, 64, 127
2, 28918, Note_on_c, 0, 56, 52
2, 29081, Note_on_c, 0, 80, 78
2, 29094, Note_on_c, 0, 61, 54
2, 29260, Note_on_c, 0, 64, 0
2, 29267, Note_on_c, 0, 64, 63
2, 29437, Note_on_c, 0, 80, 0
2, 29446, Note_on_c, 0, 80, 79
2, 29637, Note_on_c, 0, 61, 0
2, 29639, Note_on_c, 0, 78, 84
2, 29642, Note_on_c, 0, 61, 62
2, 29819, Note_on_c, 0, 76, 84
2, 29829, Note_on_c, 0, 56, 0
2, 29833, Note_on_c, 0, 56, 58
2, 29990, Note_on_c, 0, 61, 0
2, 29990, Note_on_c, 0, 78, 0
2, 29998, Note_on_c, 0, 61, 64
2, 29998, Note_on_c, 0, 78, 86
2, 30182, Note_on_c, 0, 80, 0
2, 30193, Note_on_c, 0, 80, 89
2, 30202, Note_on_c, 0, 61, 0
2, 30203, Note_on_c, 0, 56, 0
2, 30203, Note_on_c, 0, 64, 0
2, 30203, Note_on_c, 0, 49, 0
2, 30204, Note_on_c, 0, 71, 70
2, 30204, Control_c, 0, 64, 0
2, 30204, Note_on_c, 0, 76, 0
2, 30206, Note_on_c, 0, 78, 0
2, 30208, Note_on_c, 0, 44, 61
2, 30320, Control_c, 0, 64, 127
2, 30379, Note_on_c, 0, 51, 62
2, 30561, Note_on_c, 0, 56, 54
2, 30744, Note_on_c, 0, 75, 74
2, 30744, Note_on_c, 0, 59, 62
2, 30935, Note_on_c, 0, 75, 0
2, 30939, Note_on_c, 0, 75, 67
2, 31119, Note_on_c, 0, 56, 0
2, 31127, Note_on_c, 0, 56, 57
2, 31296, Note_on_c, 0, 51, 0
2, 31302, Note_on_c, 0, 51, 55
2, 31449, Note_on_c, 0, 56, 0
2, 31458, Note_on_c, 0, 56, 50
2, 31663, Note_on_c, 0, 75, 0
2, 31663, Note_on_c, 0, 71, 0
2, 31663, Control_c, 0, 64, 0
2, 31664, Note_on_c, 0, 51, 0
2, 31666, Note_on_c, 0, 59, 0
2, 31666, Note_on_c, 0, 44, 0
2, 31675, Note_on_c, 0, 76, 75
2, 31680, Note_on_c, 0, 56, 0
2, 31686, Note_on_c, 0, 45, 52
2, 31687, Note_on_c, 0, 80, 0
2, 31690, Note_on_c, 0, 73, 57
2, 31764, Control_c, 0, 64, 127
2, 31869, Note_on_c, 0, 52, 60
2, 32025, Note_on_c, 0, 76, 0
2, 32034, Note_on_c, 0, 76, 81
2, 32065, Note_on_c, 0, 57, 36
2, 32110, Note_on_c, 0, 45, 0
2, 32208, Note_on_c, 0, 78, 87
2, 32209, Note_on_c, 0, 57, 0
2, 32214, Note_on_c, 0, 57, 69
2, 32395, Note_on_c, 0, 75, 83
2, 32400, Control_c, 0, 64, 0
2, 32403, Note_on_c, 0, 52, 0
2, 32404, Note_on_c, 0, 73, 0
2, 32404, Note_on_c, 0, 78, 0
2, 32404, Note_on_c, 0, 76, 0
2, 32404, Note_on_c, 0, 57, 0
2, 32421, Note_on_c, 0, 47, 59
2, 32423, Note_on_c, 0, 71, 50
2, 32424, Note_on_c, 0, 59, 58
2, 32494, Control_c, 0, 64, 127
2, 32582, Note_on_c, 0, 73, 77
2, 32583, Note_on_c, 0, 54, 60
2, 32593, Note_on_c, 0, 59, 0
2, 32747, Note_on_c, 0, 71, 0
2, 32757, Note_on_c, 0, 71, 85
2, 32758, Note_on_c, 0, 59, 54
2, 32939, Note_on_c, 0, 71, 0
2, 32944, Note_on_c, 0, 71, 79
2, 32947, Note_on_c, 0, 59, 0
2, 32950, Note_on_c, 0, 47, 0
2, 32952, Note_on_c, 0, 59, 61
2, 33128, Note_on_c, 0, 69, 64
2, 33128, Note_on_c, 0, 54, 0
2, 33129, Note_on_c, 0, 73, 0
2, 33131, Control_c, 0, 64, 0
2, 33131, Note_on_c, 0, 75, 0
2, 33133, Note_on_c, 0, 71, 0
2, 33134, Note_on_c, 0, 59, 0
2, 33135, Note_on_c, 0, 40, 45
2, 33277, Control_c, 0, 64, 127
2, 33322, Note_on_c, 0, 47, 47
2, 33490, Note_on_c, 0, 52, 55
2, 33674, Note_on_c, 0, 68, 71
2, 33691, Note_on_c, 0, 56, 48
2, 33953, Note_on_c, 0, 47, 0
2, 33959, Note_on_c, 0, 47, 27
2, 34060, Note_on_c, 0, 47, 0
2, 34067, Note_on_c, 0, 47, 50
2, 34242, Note_on_c, 0, 73, 76
2, 34242, Note_on_c, 0, 39, 68
2, 34243, Note_on_c, 0, 52, 0
2, 34244, Note_on_c, 0, 56, 0
2, 34244, Note_on_c, 0, 69, 0
2, 34245, Note_on_c, 0, 47, 0
2, 34245, Note_on_c, 0, 68, 0
2, 34246, Control_c, 0, 64, 0
2, 34252, Note_on_c, 0, 40, 0
2, 34329, Control_c, 0, 64, 127
2, 34424, Note_on_c, 0, 75, 81
2, 34622, Note_on_c, 0, 37, 63
2, 34625, Note_on_c, 0, 76, 89
2, 34629, Note_on_c, 0, 39, 0
2, 34632, Note_on_c, 0, 68, 68
2, 34632, Note_on_c, 0, 73, 0
2, 34634, Note_on_c, 0, 75, 0
2, 34634, Control_c, 0, 64, 0
2, 34675, Control_c, 0, 64, 127
2, 34799, Note_on_c, 0, 49, 65
2, 34984, Note_on_c, 0, 52, 55
2, 35020, Note_on_c, 0, 37, 0
2, 35159, Note_on_c, 0, 76, 0
2, 35166, Note_on_c, 0, 68, 0
2, 35170, Note_on_c, 0, 76, 77
2, 35171, Note_on_c, 0, 68, 58
2, 35176, Note_on_c, 0, 56, 62
2, 35343, Note_on_c, 0, 76, 0
2, 35352, Note_on_c, 0, 76, 88
2, 35529, Note_on_c, 0, 75, 86
2, 35535, Note_on_c, 0, 52, 0
2, 35545, Note_on_c, 0, 52, 54
2, 35704, Note_on_c, 0, 49, 0
2, 35704, Note_on_c, 0, 76, 0
2, 35709, Note_on_c, 0, 49, 65
2, 35710, Note_on_c, 0, 76, 88
2, 35875, Note_on_c, 0, 85, 98
2, 36071, Note_on_c, 0, 83, 88
2, 36076, Control_c, 0, 64, 0
2, 36079, Note_on_c, 0, 56, 0
2, 36080, Note_on_c, 0, 75, 0
2, 36081, Note_on_c, 0, 49, 0
2, 36082, Note_on_c, 0, 68, 0
2, 36083, Note_on_c, 0, 52, 0
2, 36083, Note_on_c, 0, 44, 63
2, 36084, Note_on_c, 0, 76, 0
2, 36084, Note_on_c, 0, 75, 76
2, 36086, Note_on_c, 0, 85, 0
2, 36195, Control_c, 0, 64, 127
2, 36257, Note_on_c, 0, 51, 64
2, 36447, Note_on_c, 0, 56, 59
2, 36640, Note_on_c, 0, 59, 64
2, 36994, Note_on_c, 0, 56, 0
2, 37005, Note_on_c, 0, 56, 55
2, 37008, Note_on_c, 0, 76, 73
2, 37186, Note_on_c, 0, 51, 0
2, 37188, Note_on_c, 0, 78, 88
2, 37191, Note_on_c, 0, 51, 68
2, 37365, Note_on_c, 0, 80, 90
2, 37527, Note_on_c, 0, 75, 0
2, 37528, Note_on_c, 0, 51, 0
2, 37528, Note_on_c, 0, 76, 0
2, 37529, Control_c, 0, 64, 0
2, 37530, Note_on_c, 0, 83, 0
2, 37539, Note_on_c, 0, 44, 0
2, 37547, Note_on_c, 0, 56, 0
2, 37547, Note_on_c, 0, 59, 0
2, 37551, Note_on_c, 0, 81, 92
2, 37555, Note_on_c, 0, 78, 0
2, 37555, Note_on_c, 0, 62, 67
2, 37557, Note_on_c, 0, 50, 69
2, 37559, Note_on_c, 0, 78, 86
2, 37562, Note_on_c, 0, 62, 0
2, 37647, Control_c, 0, 64, 127
2, 37747, Note_on_c, 0, 57, 67
2, 37916, Note_on_c, 0, 81, 0
2, 37923, Note_on_c, 0, 78, 0
2, 37924, Note_on_c, 0, 81, 88
2, 37928, Note_on_c, 0, 62, 47
2, 37934, Note_on_c, 0, 78, 83
2, 37954, Note_on_c, 0, 80, 0
2, 38104, Note_on_c, 0, 83, 85
2, 38108, Note_on_c, 0, 57, 0
2, 38113, Note_on_c, 0, 80, 83
2, 38113, Note_on_c, 0, 57, 60
2, 38250, Note_on_c, 0, 50, 0
2, 38251, Note_on_c, 0, 57, 0
2, 38252, Note_on_c, 0, 81, 0
2, 38252, Note_on_c, 0, 83, 0
2, 38256, Control_c, 0, 64, 0
2, 38261, Note_on_c, 0, 62, 0
2, 38269, Note_on_c, 0, 78, 0
2, 38277, Note_on_c, 0, 80, 0
2, 38288, Note_on_c, 0, 80, 89
2, 38294, Note_on_c, 0, 49, 68
2, 38294, Note_on_c, 0, 76, 83
2, 38295, Note_on_c, 0, 61, 69
2, 38346, Control_c, 0, 64, 127
2, 38469, Note_on_c, 0, 76, 0
2, 38474, Note_on_c, 0, 56, 66
2, 38475, Note_on_c, 0, 73, 77
2, 38477, Note_on_c, 0, 76, 79
2, 38645, Note_on_c, 0, 76, 0
2, 38645, Note_on_c, 0, 80, 0
2, 38654, Note_on_c, 0, 80, 87
2, 38657, Note_on_c, 0, 76, 83
2, 38842, Control_c, 0, 64, 0
2, 38843, Note_on_c, 0, 61, 0
2, 38844, Note_on_c, 0, 49, 0
2, 38844, Note_on_c, 0, 80, 0
2, 38845, Note_on_c, 0, 56, 0
2, 38845, Note_on_c, 0, 73, 0
2, 38852, Note_on_c, 0, 78, 95
2, 38856, Note_on_c, 0, 43, 69
2, 38857, Note_on_c, 0, 59, 73
2, 38858, Note_on_c, 0, 74, 82
2, 38860, Note_on_c, 0, 76, 0
2, 38968, Control_c, 0, 64, 127
2, 39205, Note_on_c, 0, 50, 62
2, 39398, Note_on_c, 0, 59, 0
2, 39403, Note_on_c, 0, 55, 67
2, 39408, Note_on_c, 0, 59, 46
2, 39767, Note_on_c, 0, 43, 0
2, 39768, Note_on_c, 0, 78, 0
2, 39768, Note_on_c, 0, 50, 0
2, 39769, Note_on_c, 0, 74, 0
2, 39770, Note_on_c, 0, 55, 0
2, 39770, Note_on_c, 0, 59, 0
2, 39770, Control_c, 0, 64, 0
2, 39788, Note_on_c, 0, 80, 92
2, 39793, Note_on_c, 0, 57, 73
2, 39794, Note_on_c, 0, 76, 85
2, 39796, Note_on_c, 0, 47, 69
2, 39798, Note_on_c, 0, 54, 76
2, 39836, Control_c, 0, 64, 127
2, 40195, Control_c, 0, 64, 0
2, 40196, Note_on_c, 0, 81, 96
2, 40197, Note_on_c, 0, 47, 0
2, 40203, Note_on_c, 0, 78, 93
2, 40205, Note_on_c, 0, 47, 73
2, 40206, Note_on_c, 0, 35, 67
2, 40208, Note_on_c, 0, 57, 0
2, 40208, Note_on_c, 0, 80, 0
2, 40208, Note_on_c, 0, 76, 0
2, 40210, Note_on_c, 0, 54, 0
2, 40227, Control_c, 0, 64, 127
2, 40550, Note_on_c, 0, 35, 0
2, 40584, Control_c, 0, 64, 0
2, 40589, Note_on_c, 0, 81, 0
2, 40590, Note_on_c, 0, 78, 0
2, 40602, Note_on_c, 0, 83, 96
2, 40604, Note_on_c, 0, 47, 0
2, 40606, Note_on_c, 0, 52, 83
2, 40607, Note_on_c, 0, 80, 89
2, 40608, Note_on_c, 0, 40, 67
2, 40654, Note_on_c, 0, 40, 0
2, 40657, Control_c, 0, 64, 127
2, 40992, Note_on_c, 0, 76, 89
2, 40994, Note_on_c, 0, 71, 76
2, 41180, Note_on_c, 0, 71, 0
2, 41180, Note_on_c, 0, 76, 0
2, 41184, Note_on_c, 0, 76, 89
2, 41187, Note_on_c, 0, 71, 83
2, 41190, Note_on_c, 0, 59, 69
2, 41191, Note_on_c, 0, 64, 73
2, 41191, Note_on_c, 0, 56, 62
2, 41548, Note_on_c, 0, 52, 0
2, 41559, Note_on_c, 0, 52, 58
2, 41725, Note_on_c, 0, 56, 0
2, 41730, Note_on_c, 0, 85, 94
2, 41733, Note_on_c, 0, 52, 0
2, 41733, Note_on_c, 0, 59, 0
2, 41733, Note_on_c, 0, 76, 0
2, 41735, Note_on_c, 0, 56, 76
2, 41737, Note_on_c, 0, 76, 89
2, 41737, Note_on_c, 0, 52, 51
2, 41737, Control_c, 0, 64, 0
2, 41743, Note_on_c, 0, 47, 57
2, 41743, Note_on_c, 0, 59, 61
2, 41748, Note_on_c, 0, 47, 0
2, 41763, Control_c, 0, 64, 127
2, 41917, Note_on_c, 0, 83, 0
2, 41928, Note_on_c, 0, 83, 91
2, 41934, Note_on_c, 0, 75, 89
2, 42066, Note_on_c, 0, 76, 0
2, 42066, Note_on_c, 0, 52, 0
2, 42067, Note_on_c, 0, 85, 0
2, 42071, Note_on_c, 0, 71, 0
2, 42072, Control_c, 0, 64, 0
2, 42078, Note_on_c, 0, 56, 0
2, 42078, Note_on_c, 0, 59, 0
2, 42086, Note_on_c, 0, 64, 0
2, 42101, Note_on_c, 0, 51, 78
2, 42102, Note_on_c, 0, 39, 76
2, 42140, Note_on_c, 0, 80, 0
2, 42155, Control_c, 0, 64, 127
2, 42277, Note_on_c, 0, 85, 89
2, 42281, Note_on_c, 0, 76, 80
2, 42447, Note_on_c, 0, 51, 0
2, 42447, Note_on_c, 0, 83, 0
2, 42452, Note_on_c, 0, 51, 67
2, 42455, Note_on_c, 0, 75, 0
2, 42456, Note_on_c, 0, 83, 84
2, 42465, Note_on_c, 0, 75, 91
2, 42654, Note_on_c, 0, 51, 0
2, 42657, Note_on_c, 0, 63, 74
2, 42659, Note_on_c, 0, 59, 74
2, 42664, Note_on_c, 0, 51, 67
2, 42666, Note_on_c, 0, 54, 63
2, 43008, Note_on_c, 0, 51, 0
2, 43012, Note_on_c, 0, 51, 66
2, 43200, Note_on_c, 0, 54, 0
2, 43200, Note_on_c, 0, 59, 0
2, 43200, Note_on_c, 0, 76, 0
2, 43202, Note_on_c, 0, 80, 95
2, 43205, Note_on_c, 0, 54, 77
2, 43205, Note_on_c, 0, 59, 72
2, 43205, Note_on_c, 0, 76, 85
2, 43379, Note_on_c, 0, 81, 98
2, 43390, Note_on_c, 0, 78, 89
2, 43526, Control_c, 0, 64, 0
2, 43527, Note_on_c, 0, 76, 0
2, 43527, Note_on_c, 0, 63, 0
2, 43527, Note_on_c, 0, 85, 0
2, 43528, Note_on_c, 0, 80, 0
2, 43528, Note_on_c, 0, 51, 0
2, 43528, Note_on_c, 0, 59, 0
2, 43528, Note_on_c, 0, 75, 0
2, 43528, Note_on_c, 0, 78, 0
2, 43529, Note_on_c, 0, 54, 0
2, 43537, Note_on_c, 0, 39, 0
2, 43568, Note_on_c, 0, 83, 0
2, 43572, Note_on_c, 0, 83, 97
2, 43575, Note_on_c, 0, 80, 91
2, 43579, Note_on_c, 0, 49, 78
2, 43579, Note_on_c, 0, 37, 72
2, 43622, Note_on_c, 0, 81, 0
2, 43622, Control_c, 0, 64, 127
2, 43931, Note_on_c, 0, 52, 59
2, 44106, Note_on_c, 0, 83, 0
2, 44113, Note_on_c, 0, 52, 0
2, 44113, Note_on_c, 0, 80, 0
2, 44114, Note_on_c, 0, 83, 90
2, 44117, Note_on_c, 0, 61, 66
2, 44117, Note_on_c, 0, 80, 85
2, 44118, Note_on_c, 0, 52, 62
2, 44119, Note_on_c, 0, 76, 73
2, 44119, Note_on_c, 0, 56, 62
2, 44276, Note_on_c, 0, 81, 81
2, 44303, Note_on_c, 0, 78, 85
2, 44451, Note_on_c, 0, 80, 0
2, 44462, Note_on_c, 0, 80, 89
2, 44474, Note_on_c, 0, 76, 0
2, 44479, Note_on_c, 0, 76, 85
2, 44482, Note_on_c, 0, 52, 0
2, 44489, Note_on_c, 0, 52, 74
2, 44636, Note_on_c, 0, 78, 0
2, 44642, Note_on_c, 0, 78, 95
2, 44651, Note_on_c, 0, 56, 0
2, 44651, Note_on_c, 0, 61, 0
2, 44662, Note_on_c, 0, 61, 68
2, 44662, Note_on_c, 0, 56, 68
2, 44663, Note_on_c, 0, 75, 74
2, 44835, Note_on_c, 0, 76, 0
2, 44840, Note_on_c, 0, 76, 93
2, 44845, Note_on_c, 0, 71, 81
2, 44964, Note_on_c, 0, 49, 0
2, 44965, Note_on_c, 0, 81, 0
2, 44966, Note_on_c, 0, 75, 0
2, 44967, Note_on_c, 0, 61, 0
2, 44967, Note_on_c, 0, 78, 0
2, 44968, Note_on_c, 0, 52, 0
2, 44968, Note_on_c, 0, 56, 0
2, 44968, Note_on_c, 0, 80, 0
2, 44969, Note_on_c, 0, 83, 0
2, 44970, Control_c, 0, 64, 0
2, 44974, Note_on_c, 0, 37, 0
2, 45025, Note_on_c, 0, 35, 68
2, 45025, Note_on_c, 0, 47, 72
2, 45058, Control_c, 0, 64, 127
2, 45143, Note_on_c, 0, 35, 0
2, 45374, Note_on_c, 0, 52, 57
2, 45565, Note_on_c, 0, 71, 0
2, 45565, Note_on_c, 0, 76, 0
2, 45575, Note_on_c, 0, 76, 65
2, 45576, Note_on_c, 0, 64, 62
2, 45576, Note_on_c, 0, 71, 58
2, 45576, Note_on_c, 0, 68, 63
2, 45576, Note_on_c, 0, 59, 64
2, 45577, Note_on_c, 0, 56, 58
2, 45941, Note_on_c, 0, 52, 0
2, 45945, Note_on_c, 0, 52, 56
2, 46103, Note_on_c, 0, 71, 0
2, 46110, Note_on_c, 0, 71, 84
2, 46118, Note_on_c, 0, 56, 0
2, 46118, Note_on_c, 0, 68, 0
2, 46123, Note_on_c, 0, 56, 71
2, 46123, Note_on_c, 0, 68, 67
2, 46466, Control_c, 0, 64, 0
2, 46468, Note_on_c, 0, 68, 0
2, 46468, Note_on_c, 0, 56, 0
2, 46469, Note_on_c, 0, 64, 0
2, 46469, Note_on_c, 0, 52, 0
2, 46469, Note_on_c, 0, 76, 0
2, 46469, Note_on_c, 0, 59, 0
2, 46469, Note_on_c, 0, 47, 0
2, 46470, Note_on_c, 0, 71, 0
2, 46490, Note_on_c, 0, 73, 85
2, 46492, Note_on_c, 0, 45, 63
2, 46498, Note_on_c, 0, 69, 73
2, 46499, Note_on_c, 0, 57, 66
2, 46579, Control_c, 0, 64, 127
2, 46859, Note_on_c, 0, 52, 62
2, 47016, Note_on_c, 0, 57, 0
2, 47021, Note_on_c, 0, 57, 59
2, 47047, Note_on_c, 0, 69, 0
2, 47047, Note_on_c, 0, 73, 0
2, 47053, Note_on_c, 0, 73, 74
2, 47057, Note_on_c, 0, 69, 48
2, 47124, Note_on_c, 0, 45, 0
2, 47204, Note_on_c, 0, 52, 0
2, 47205, Note_on_c, 0, 69, 0
2, 47206, Note_on_c, 0, 73, 0
2, 47206, Control_c, 0, 64, 0
2, 47224, Note_on_c, 0, 57, 0
2, 47235, Note_on_c, 0, 75, 82
2, 47242, Note_on_c, 0, 71, 74
2, 47243, Note_on_c, 0, 45, 62
2, 47244, Note_on_c, 0, 59, 64
2, 47301, Control_c, 0, 64, 127
2, 47416, Note_on_c, 0, 59, 0
2, 47419, Note_on_c, 0, 76, 79
2, 47426, Note_on_c, 0, 59, 48
2, 47586, Note_on_c, 0, 78, 90
2, 47596, Note_on_c, 0, 54, 61
2, 47754, Note_on_c, 0, 59, 0
2, 47754, Note_on_c, 0, 75, 0
2, 47761, Note_on_c, 0, 75, 84
2, 47764, Note_on_c, 0, 59, 62
2, 47892, Note_on_c, 0, 54, 0
2, 47892, Note_on_c, 0, 71, 0
2, 47893, Note_on_c, 0, 59, 0
2, 47894, Note_on_c, 0, 76, 0
2, 47895, Note_on_c, 0, 45, 0
2, 47895, Note_on_c, 0, 78, 0
2, 47895, Note_on_c, 0, 75, 0
2, 47898, Control_c, 0, 64, 0
2, 47940, Note_on_c, 0, 71, 88
2, 47955, Note_on_c, 0, 68, 78
2, 47956, Note_on_c, 0, 63, 59
2, 47958, Note_on_c, 0, 44, 67
2, 47961, Note_on_c, 0, 63, 0
2, 47992, Control_c, 0, 64, 127
2, 48140, Note_on_c, 0, 51, 57
2, 48291, Note_on_c, 0, 68, 0
2, 48291, Note_on_c, 0, 71, 0
2, 48298, Note_on_c, 0, 56, 61
2, 48302, Note_on_c, 0, 68, 60
2, 48302, Note_on_c, 0, 71, 84
2, 48493, Note_on_c, 0, 44, 0
2, 48494, Control_c, 0, 64, 0
2, 48494, Note_on_c, 0, 51, 0
2, 48495, Note_on_c, 0, 68, 0
2, 48495, Note_on_c, 0, 56, 0
2, 48502, Note_on_c, 0, 80, 91
2, 48508, Note_on_c, 0, 49, 67
2, 48510, Note_on_c, 0, 61, 65
2, 48511, Note_on_c, 0, 73, 75
2, 48511, Note_on_c, 0, 76, 80
2, 48514, Note_on_c, 0, 71, 0
2, 48606, Control_c, 0, 64, 127
2, 48870, Note_on_c, 0, 52, 63
2, 49042, Note_on_c, 0, 56, 71
2, 49043, Note_on_c, 0, 68, 56
2, 49213, Note_on_c, 0, 61, 0
2, 49217, Note_on_c, 0, 61, 69
2, 49377, Note_on_c, 0, 80, 0
2, 49378, Control_c, 0, 64, 0
2, 49378, Note_on_c, 0, 49, 0
2, 49378, Note_on_c, 0, 68, 0
2, 49378, Note_on_c, 0, 52, 0
2, 49378, Note_on_c, 0, 56, 0
2, 49379, Note_on_c, 0, 61, 0
2, 49379, Note_on_c, 0, 76, 0
2, 49397, Note_on_c, 0, 73, 0
2, 49406, Note_on_c, 0, 81, 92
2, 49407, Note_on_c, 0, 57, 63
2, 49409, Note_on_c, 0, 73, 85
2, 49409, Note_on_c, 0, 42, 60
2, 49459, Control_c, 0, 64, 127
2, 49593, Note_on_c, 0, 52, 63
2, 49735, Note_on_c, 0, 73, 0
2, 49735, Note_on_c, 0, 81, 0
2, 49746, Note_on_c, 0, 81, 80
2, 49747, Note_on_c, 0, 73, 83
2, 49766, Note_on_c, 0, 57, 0
2, 49774, Note_on_c, 0, 57, 69
2, 49930, Note_on_c, 0, 83, 84
2, 49939, Note_on_c, 0, 61, 62
2, 49947, Note_on_c, 0, 76, 73
2, 50119, Note_on_c, 0, 76, 0
2, 50123, Note_on_c, 0, 80, 85
2, 50123, Note_on_c, 0, 76, 70
2, 50128, Note_on_c, 0, 64, 65
2, 50291, Note_on_c, 0, 78, 92
2, 50297, Note_on_c, 0, 69, 68
2, 50465, Note_on_c, 0, 73, 0
2, 50472, Note_on_c, 0, 73, 70
2, 50496, Note_on_c, 0, 52, 0
2, 50506, Note_on_c, 0, 52, 41
2, 50655, Control_c, 0, 64, 0
2, 50657, Note_on_c, 0, 78, 0
2, 50661, Note_on_c, 0, 78, 90
2, 50664, Note_on_c, 0, 42, 0
2, 50667, Note_on_c, 0, 83, 0
2, 50667, Note_on_c, 0, 52, 0
2, 50667, Note_on_c, 0, 61, 0
2, 50667, Note_on_c, 0, 73, 0
2, 50668, Note_on_c, 0, 57, 0
2, 50668, Note_on_c, 0, 80, 0
2, 50668, Note_on_c, 0, 76, 0
2, 50668, Note_on_c, 0, 64, 0
2, 50668, Note_on_c, 0, 69, 0
2, 50668, Note_on_c, 0, 75, 80
2, 50673, Note_on_c, 0, 71, 68
2, 50680, Note_on_c, 0, 81, 0
2, 50691, Note_on_c, 0, 47, 67
2, 50696, Note_on_c, 0, 59, 67
2, 50749, Control_c, 0, 64, 127
2, 51025, Note_on_c, 0, 59, 0
2, 51025, Note_on_c, 0, 71, 0
2, 51030, Note_on_c, 0, 71, 68
2, 51035, Note_on_c, 0, 59, 54
2, 51211, Note_on_c, 0, 69, 75
2, 51395, Note_on_c, 0, 66, 80
2, 51563, Note_on_c, 0, 59, 0
2, 51565, Note_on_c, 0, 80, 94
2, 51572, Note_on_c, 0, 59, 61
2, 51572, Note_on_c, 0, 63, 67
2, 51573, Note_on_c, 0, 76, 89
2, 51574, Note_on_c, 0, 75, 0
2, 51747, Note_on_c, 0, 59, 0
2, 51755, Note_on_c, 0, 59, 79
2, 51939, Note_on_c, 0, 59, 0
2, 51939, Note_on_c, 0, 78, 0
2, 51944, Note_on_c, 0, 81, 94
2, 51949, Note_on_c, 0, 78, 92
2, 51950, Note_on_c, 0, 59, 73
2, 51951, Note_on_c, 0, 54, 74
2, 52124, Note_on_c, 0, 47, 0
2, 52128, Note_on_c, 0, 47, 71
2, 52323, Control_c, 0, 64, 0
2, 52323, Note_on_c, 0, 80, 0
2, 52326, Note_on_c, 0, 83, 96
2, 52329, Note_on_c, 0, 52, 73
2, 52331, Note_on_c, 0, 76, 0
2, 52332, Note_on_c, 0, 40, 69
2, 52333, Note_on_c, 0, 80, 89
2, 52335, Note_on_c, 0, 54, 0
2, 52336, Note_on_c, 0, 59, 0
2, 52336, Note_on_c, 0, 63, 0
2, 52336, Note_on_c, 0, 71, 0
2, 52337, Note_on_c, 0, 76, 67
2, 52337, Note_on_c, 0, 78, 0
2, 52338, Note_on_c, 0, 47, 0
2, 52338, Note_on_c, 0, 69, 0
2, 52340, Note_on_c, 0, 81, 0
2, 52346, Note_on_c, 0, 66, 0
2, 52400, Control_c, 0, 64, 127
2, 52404, Note_on_c, 0, 40, 0
2, 52439, Note_on_c, 0, 52, 0
2, 52512, Note_on_c, 0, 52, 69
2, 52684, Note_on_c, 0, 76, 0
2, 52689, Note_on_c, 0, 56, 65
2, 52691, Note_on_c, 0, 76, 84
2, 52693, Note_on_c, 0, 71, 77
2, 52876, Note_on_c, 0, 71, 0
2, 52876, Note_on_c, 0, 76, 0
2, 52883, Note_on_c, 0, 76, 93
2, 52886, Note_on_c, 0, 71, 82
2, 52888, Note_on_c, 0, 64, 72
2, 52889, Note_on_c, 0, 59, 70
2, 53230, Note_on_c, 0, 52, 0
2, 53237, Note_on_c, 0, 71, 0
2, 53237, Note_on_c, 0, 76, 0
2, 53240, Note_on_c, 0, 52, 63
2, 53242, Note_on_c, 0, 76, 85
2, 53242, Note_on_c, 0, 71, 82
2, 53422, Note_on_c, 0, 56, 0
2, 53426, Note_on_c, 0, 85, 95
2, 53429, Note_on_c, 0, 68, 75
2, 53429, Note_on_c, 0, 56, 80
2, 53429, Note_on_c, 0, 59, 0
2, 53429, Note_on_c, 0, 76, 0
2, 53433, Note_on_c, 0, 76, 90
2, 53435, Note_on_c, 0, 59, 69
2, 53437, Note_on_c, 0, 68, 0
2, 53606, Note_on_c, 0, 56, 0
2, 53606, Note_on_c, 0, 83, 0
2, 53610, Note_on_c, 0, 83, 93
2, 53613, Note_on_c, 0, 56, 61
2, 53617, Note_on_c, 0, 75, 91
2, 53766, Note_on_c, 0, 59, 0
2, 53767, Note_on_c, 0, 64, 0
2, 53767, Note_on_c, 0, 56, 0
2, 53767, Note_on_c, 0, 80, 0
2, 53769, Note_on_c, 0, 71, 0
2, 53769, Note_on_c, 0, 85, 0
2, 53769, Note_on_c, 0, 76, 0
2, 53776, Control_c, 0, 64, 0
2, 53783, Note_on_c, 0, 52, 0
2, 53793, Note_on_c, 0, 39, 74
2, 53844, Control_c, 0, 64, 127
2, 53944, Note_on_c, 0, 39, 0
2, 53951, Note_on_c, 0, 85, 90
2, 53959, Note_on_c, 0, 51, 73
2, 53964, Note_on_c, 0, 76, 74
2, 54128, Note_on_c, 0, 83, 0
2, 54133, Note_on_c, 0, 83, 85
2, 54136, Note_on_c, 0, 75, 0
2, 54139, Note_on_c, 0, 54, 69
2, 54141, Note_on_c, 0, 75, 86
2, 54335, Note_on_c, 0, 63, 75
2, 54337, Note_on_c, 0, 59, 72
2, 54673, Note_on_c, 0, 51, 0
2, 54678, Note_on_c, 0, 51, 81
2, 54842, Note_on_c, 0, 85, 0
2, 54850, Note_on_c, 0, 76, 0
2, 54854, Note_on_c, 0, 85, 98
2, 54858, Note_on_c, 0, 54, 0
2, 54858, Note_on_c, 0, 59, 0
2, 54859, Note_on_c, 0, 76, 89
2, 54864, Note_on_c, 0, 54, 73
2, 54866, Note_on_c, 0, 59, 70
2, 55031, Note_on_c, 0, 87, 98
2, 55039, Note_on_c, 0, 78, 94
2, 55231, Note_on_c, 0, 88, 103
2, 55231, Note_on_c, 0, 37, 73
2, 55236, Note_on_c, 0, 80, 93
2, 55242, Control_c, 0, 64, 0
2, 55245, Note_on_c, 0, 63, 0
2, 55246, Note_on_c, 0, 59, 0
2, 55246, Note_on_c, 0, 85, 0
2, 55246, Note_on_c, 0, 83, 0
2, 55246, Note_on_c, 0, 51, 0
2, 55247, Note_on_c, 0, 54, 0
2, 55247, Note_on_c, 0, 87, 0
2, 55247, Note_on_c, 0, 76, 0
2, 55250, Note_on_c, 0, 75, 0
2, 55250, Note_on_c, 0, 78, 0
2, 55326, Control_c, 0, 64, 127
2, 55414, Note_on_c, 0, 49, 71
2, 55580, Note_on_c, 0, 37, 0
2, 55588, Note_on_c, 0, 52, 62
2, 55756, Note_on_c, 0, 80, 0
2, 55764, Note_on_c, 0, 52, 0
2, 55767, Note_on_c, 0, 80, 95
2, 55773, Note_on_c, 0, 56, 68
2, 55775, Note_on_c, 0, 61, 70
2, 55775, Note_on_c, 0, 52, 68
2, 55776, Note_on_c, 0, 76, 85
2, 55948, Note_on_c, 0, 80, 0
2, 55956, Note_on_c, 0, 52, 0
2, 55956, Note_on_c, 0, 76, 0
2, 55957, Note_on_c, 0, 80, 91
2, 55961, Note_on_c, 0, 76, 86
2, 55963, Note_on_c, 0, 52, 59
2, 56125, Note_on_c, 0, 52, 0
2, 56128, Note_on_c, 0, 49, 0
2, 56133, Note_on_c, 0, 78, 95
2, 56136, Note_on_c, 0, 52, 72
2, 56138, Note_on_c, 0, 75, 84
2, 56294, Note_on_c, 0, 80, 0
2, 56302, Note_on_c, 0, 76, 0
2, 56305, Note_on_c, 0, 80, 93
2, 56313, Note_on_c, 0, 76, 88
2, 56317, Note_on_c, 0, 61, 0
2, 56325, Note_on_c, 0, 56, 0
2, 56325, Note_on_c, 0, 61, 73
2, 56335, Note_on_c, 0, 56, 72
2, 56486, Note_on_c, 0, 52, 0
2, 56486, Note_on_c, 0, 80, 0
2, 56493, Note_on_c, 0, 83, 96
2, 56496, Note_on_c, 0, 80, 97
2, 56497, Note_on_c, 0, 52, 62
2, 56642, Note_on_c, 0, 61, 0
2, 56642, Note_on_c, 0, 88, 0
2, 56642, Note_on_c, 0, 56, 0
2, 56642, Note_on_c, 0, 52, 0
2, 56642, Note_on_c, 0, 75, 0
2, 56643, Note_on_c, 0, 78, 0
2, 56643, Note_on_c, 0, 76, 0
2, 56645, Control_c, 0, 64, 0
2, 56669, Note_on_c, 0, 35, 67
2, 56732, Control_c, 0, 64, 127
2, 56755, Note_on_c, 0, 35, 0
2, 56847, Note_on_c, 0, 47, 65
2, 57031, Note_on_c, 0, 52, 71
2, 57227, Note_on_c, 0, 64, 66
2, 57234, Note_on_c, 0, 56, 62
2, 57238, Note_on_c, 0, 59, 61
2, 57584, Note_on_c, 0, 52, 0
2, 57589, Note_on_c, 0, 52, 58
2, 57784, Note_on_c, 0, 56, 0
2, 57784, Note_on_c, 0, 59, 0
2, 57784, Note_on_c, 0, 71, 87
2, 57793, Note_on_c, 0, 59, 70
2, 57793, Note_on_c, 0, 56, 68
2, 58155, Control_c, 0, 64, 0
2, 58160, Note_on_c, 0, 59, 0
2, 58160, Note_on_c, 0, 64, 0
2, 58160, Note_on_c, 0, 47, 0
2, 58160, Note_on_c, 0, 73, 84
2, 58161, Note_on_c, 0, 56, 0
2, 58161, Note_on_c, 0, 52, 0
2, 58162, Note_on_c, 0, 71, 0
2, 58162, Note_on_c, 0, 45, 72
2, 58183, Note_on_c, 0, 83, 0
2, 58260, Control_c, 0, 64, 127
2, 58283, Note_on_c, 0, 80, 0
2, 58347, Note_on_c, 0, 52, 70
2, 58475, Note_on_c, 0, 45, 0
2, 58511, Note_on_c, 0, 57, 67
2, 58682, Note_on_c, 0, 73, 0
2, 58687, Note_on_c, 0, 73, 85
2, 58688, Note_on_c, 0, 61, 72
2, 58859, Note_on_c, 0, 73, 0
2, 58869, Note_on_c, 0, 73, 84
2, 59045, Note_on_c, 0, 75, 82
2, 59059, Note_on_c, 0, 52, 0
2, 59063, Note_on_c, 0, 52, 64
2, 59228, Note_on_c, 0, 57, 0
2, 59234, Note_on_c, 0, 57, 73
2, 59238, Note_on_c, 0, 76, 83
2, 59425, Note_on_c, 0, 80, 92
2, 59584, Note_on_c, 0, 75, 0
2, 59584, Note_on_c, 0, 76, 0
2, 59585, Note_on_c, 0, 52, 0
2, 59585, Note_on_c, 0, 61, 0
2, 59585, Note_on_c, 0, 57, 0
2, 59587, Control_c, 0, 64, 0
2, 59604, Note_on_c, 0, 73, 0
2, 59608, Note_on_c, 0, 46, 64
2, 59704, Control_c, 0, 64, 127
2, 59773, Note_on_c, 0, 78, 87
2, 59794, Note_on_c, 0, 54, 64
2, 59962, Note_on_c, 0, 58, 60
2, 60156, Note_on_c, 0, 61, 62
2, 60518, Note_on_c, 0, 54, 0
2, 60527, Note_on_c, 0, 54, 53
2, 60718, Note_on_c, 0, 58, 0
2, 60725, Note_on_c, 0, 58, 48
2, 60925, Note_on_c, 0, 80, 0
2, 60933, Note_on_c, 0, 80, 77
2, 60940, Note_on_c, 0, 54, 0
2, 61168, Note_on_c, 0, 47, 55
2, 61171, Note_on_c, 0, 83, 76
2, 61190, Control_c, 0, 64, 0
2, 61193, Note_on_c, 0, 46, 0
2, 61196, Note_on_c, 0, 58, 0
2, 61197, Note_on_c, 0, 80, 0
2, 61197, Note_on_c, 0, 61, 0
2, 61197, Note_on_c, 0, 78, 0
2, 61294, Control_c, 0, 64, 127
2, 61380, Note_on_c, 0, 52, 54
2, 61561, Note_on_c, 0, 56, 53
2, 61728, Note_on_c, 0, 80, 80
2, 61762, Note_on_c, 0, 59, 54
2, 61926, Note_on_c, 0, 47, 0
2, 61927, Note_on_c, 0, 52, 0
2, 61927, Note_on_c, 0, 56, 0
2, 61927, Note_on_c, 0, 49, 57
2, 61928, Note_on_c, 0, 76, 75
2, 61928, Control_c, 0, 64, 0
2, 61929, Note_on_c, 0, 83, 0
2, 61930, Note_on_c, 0, 59, 0
2, 61933, Note_on_c, 0, 80, 0
2, 62031, Control_c, 0, 64, 127
2, 62106, Note_on_c, 0, 52, 59
2, 62296, Note_on_c, 0, 56, 58
2, 62468, Note_on_c, 0, 71, 75
2, 62471, Note_on_c, 0, 61, 63
2, 62672, Note_on_c, 0, 73, 80
2, 62672, Note_on_c, 0, 42, 54
2, 62678, Note_on_c, 0, 69, 70
2, 62680, Note_on_c, 0, 49, 0
2, 62680, Note_on_c, 0, 76, 0
2, 62680, Note_on_c, 0, 61, 0
2, 62680, Note_on_c, 0, 56, 0
2, 62681, Note_on_c, 0, 52, 0
2, 62682, Note_on_c, 0, 71, 0
2, 62685, Control_c, 0, 64, 0
2, 62768, Control_c, 0, 64, 127
2, 62868, Note_on_c, 0, 73, 0
2, 62875, Note_on_c, 0, 49, 61
2, 62876, Note_on_c, 0, 76, 75
2, 62879, Note_on_c, 0, 73, 61
2, 62968, Note_on_c, 0, 73, 0
2, 62978, Note_on_c, 0, 73, 85
2, 63081, Note_on_c, 0, 52, 59
2, 63244, Note_on_c, 0, 73, 0
2, 63252, Note_on_c, 0, 73, 84
2, 63280, Note_on_c, 0, 57, 57
2, 63413, Note_on_c, 0, 42, 0
2, 63428, Note_on_c, 0, 49, 0
2, 63429, Note_on_c, 0, 52, 0
2, 63430, Control_c, 0, 64, 0
2, 63430, Note_on_c, 0, 69, 0
2, 63430, Note_on_c, 0, 57, 0
2, 63431, Note_on_c, 0, 76, 0
2, 63448, Note_on_c, 0, 81, 83
2, 63452, Note_on_c, 0, 73, 0
2, 63455, Note_on_c, 0, 47, 61
2, 63460, Note_on_c, 0, 73, 67
2, 63513, Control_c, 0, 64, 127
2, 63640, Note_on_c, 0, 80, 82
2, 63656, Note_on_c, 0, 54, 53
2, 63657, Note_on_c, 0, 71, 68
2, 63836, Note_on_c, 0, 59, 62
2, 63838, Note_on_c, 0, 78, 82
2, 63841, Note_on_c, 0, 69, 71
2, 64017, Note_on_c, 0, 63, 53
2, 64028, Note_on_c, 0, 80, 0
2, 64035, Note_on_c, 0, 80, 76
2, 64035, Note_on_c, 0, 71, 0
2, 64040, Note_on_c, 0, 71, 64
2, 64256, Control_c, 0, 64, 0
2, 64257, Note_on_c, 0, 73, 0
2, 64257, Note_on_c, 0, 54, 0
2, 64257, Note_on_c, 0, 47, 0
2, 64257, Note_on_c, 0, 71, 0
2, 64258, Note_on_c, 0, 59, 0
2, 64258, Note_on_c, 0, 63, 0
2, 64258, Note_on_c, 0, 81, 0
2, 64258, Note_on_c, 0, 78, 0
2, 64260, Note_on_c, 0, 80, 0
2, 64264, Note_on_c, 0, 78, 81
2, 64266, Note_on_c, 0, 69, 0
2, 64270, Note_on_c, 0, 40, 55
2, 64271, Note_on_c, 0, 69, 62
2, 64335, Control_c, 0, 64, 127
2, 64460, Note_on_c, 0, 52, 61
2, 64655, Note_on_c, 0, 56, 50
2, 64823, Note_on_c, 0, 76, 74
2, 64841, Note_on_c, 0, 68, 59
2, 64854, Note_on_c, 0, 59, 46
2, 65018, Note_on_c, 0, 76, 0
2, 65026, Note_on_c, 0, 68, 0
2, 65028, Note_on_c, 0, 76, 77
2, 65037, Note_on_c, 0, 68, 57
2, 65228, Note_on_c, 0, 64, 54
2, 65379, Note_on_c, 0, 59, 0
2, 65384, Note_on_c, 0, 59, 58
2, 65579, Note_on_c, 0, 56, 0
2, 65587, Note_on_c, 0, 56, 43
2, 65777, Note_on_c, 0, 49, 51
2, 65799, Control_c, 0, 64, 0
2, 65801, Note_on_c, 0, 69, 0
2, 65801, Note_on_c, 0, 52, 0
2, 65801, Note_on_c, 0, 64, 0
2, 65801, Note_on_c, 0, 59, 0
2, 65801, Note_on_c, 0, 56, 0
2, 65803, Note_on_c, 0, 78, 0
2, 65817, Note_on_c, 0, 40, 0
2, 65917, Control_c, 0, 64, 127
2, 65961, Note_on_c, 0, 52, 53
2, 66151, Note_on_c, 0, 56, 52
2, 66163, Note_on_c, 0, 49, 0
2, 66346, Note_on_c, 0, 61, 56
2, 66716, Note_on_c, 0, 64, 54
2, 66900, Note_on_c, 0, 61, 0
2, 66911, Note_on_c, 0, 61, 55
2, 67069, Note_on_c, 0, 56, 0
2, 67079, Note_on_c, 0, 56, 49
2, 67200, Note_on_c, 0, 68, 0
2, 67200, Note_on_c, 0, 76, 0
2, 67300, Note_on_c, 0, 45, 56
2, 67339, Note_on_c, 0, 61, 0
2, 67339, Control_c, 0, 64, 0
2, 67340, Note_on_c, 0, 56, 0
2, 67340, Note_on_c, 0, 52, 0
2, 67453, Control_c, 0, 64, 127
2, 67487, Note_on_c, 0, 52, 51
2, 67664, Note_on_c, 0, 57, 51
2, 67852, Note_on_c, 0, 69, 66
2, 67857, Note_on_c, 0, 61, 54
2, 68206, Note_on_c, 0, 64, 0
2, 68214, Note_on_c, 0, 64, 47
2, 68382, Note_on_c, 0, 61, 0
2, 68386, Note_on_c, 0, 61, 55
2, 68405, Note_on_c, 0, 45, 0
2, 68559, Note_on_c, 0, 57, 0
2, 68565, Note_on_c, 0, 57, 51
2, 68762, Note_on_c, 0, 47, 48
2, 68762, Note_on_c, 0, 66, 64
2, 68774, Control_c, 0, 64, 0
2, 68776, Note_on_c, 0, 57, 0
2, 68776, Note_on_c, 0, 61, 0
2, 68776, Note_on_c, 0, 52, 0
2, 68776, Note_on_c, 0, 69, 0
2, 68777, Note_on_c, 0, 64, 0
2, 68851, Control_c, 0, 64, 127
2, 68954, Note_on_c, 0, 54, 53
2, 69121, Note_on_c, 0, 59, 60
2, 69307, Note_on_c, 0, 63, 57
2, 69481, Note_on_c, 0, 68, 77
2, 69657, Note_on_c, 0, 59, 0
2, 69668, Note_on_c, 0, 59, 60
2, 69841, Note_on_c, 0, 54, 0
2, 69845, Note_on_c, 0, 69, 80
2, 69853, Note_on_c, 0, 54, 58
2, 70026, Note_on_c, 0, 47, 0
2, 70026, Note_on_c, 0, 68, 0
2, 70031, Note_on_c, 0, 47, 60
2, 70035, Note_on_c, 0, 68, 53
2, 70222, Note_on_c, 0, 47, 0
2, 70222, Note_on_c, 0, 63, 0
2, 70222, Note_on_c, 0, 54, 0
2, 70222, Note_on_c, 0, 66, 0
2, 70223, Note_on_c, 0, 59, 0
2, 70223, Note_on_c, 0, 69, 0
2, 70224, Control_c, 0, 64, 0
2, 70225, Note_on_c, 0, 68, 0
2, 70226, Note_on_c, 0, 71, 82
2, 70236, Note_on_c, 0, 68, 71
2, 70237, Note_on_c, 0, 40, 54
2, 70302, Control_c, 0, 64, 127
2, 70412, Note_on_c, 0, 52, 55
2, 70479, Note_on_c, 0, 40, 0
2, 70589, Note_on_c, 0, 56, 53
2, 70764, Note_on_c, 0, 59, 60
2, 71145, Note_on_c, 0, 64, 62
2, 71308, Note_on_c, 0, 59, 0
2, 71318, Note_on_c, 0, 59, 63
2, 71470, Note_on_c, 0, 56, 0
2, 71481, Note_on_c, 0, 56, 64
2, 71669, Note_on_c, 0, 71, 0
2, 71680, Note_on_c, 0, 71, 82
2, 71681, Note_on_c, 0, 44, 68
2, 71705, Control_c, 0, 64, 0
2, 71716, Note_on_c, 0, 68, 0
2, 71717, Note_on_c, 0, 52, 0
2, 71717, Note_on_c, 0, 64, 0
2, 71731, Note_on_c, 0, 56, 0
2, 71731, Note_on_c, 0, 59, 0
2, 71784, Control_c, 0, 64, 127
2, 71849, Note_on_c, 0, 51, 65
2, 72039, Note_on_c, 0, 73, 86
2, 72056, Note_on_c, 0, 68, 65
2, 72058, Note_on_c, 0, 56, 66
2, 72215, Note_on_c, 0, 71, 0
2, 72218, Note_on_c, 0, 59, 74
2, 72218, Note_on_c, 0, 71, 64
2, 72400, Note_on_c, 0, 75, 91
2, 72407, Note_on_c, 0, 71, 0
2, 72417, Note_on_c, 0, 71, 75
2, 72583, Note_on_c, 0, 59, 0
2, 72586, Note_on_c, 0, 63, 69
2, 72592, Note_on_c, 0, 59, 55
2, 72737, Note_on_c, 0, 75, 0
2, 72747, Note_on_c, 0, 78, 96
2, 72748, Note_on_c, 0, 75, 87
2, 72760, Note_on_c, 0, 59, 0
2, 72764, Note_on_c, 0, 59, 65
2, 72906, Note_on_c, 0, 56, 0
2, 72913, Note_on_c, 0, 56, 62
2, 73121, Note_on_c, 0, 73, 0
2, 73123, Note_on_c, 0, 76, 93
2, 73126, Note_on_c, 0, 45, 70
2, 73127, Note_on_c, 0, 73, 78
2, 73134, Note_on_c, 0, 68, 0
2, 73134, Note_on_c, 0, 59, 0
2, 73134, Note_on_c, 0, 56, 0
2, 73134, Note_on_c, 0, 63, 0
2, 73134, Note_on_c, 0, 51, 0
2, 73135, Note_on_c, 0, 44, 0
2, 73135, Note_on_c, 0, 71, 0
2, 73135, Note_on_c, 0, 78, 0
2, 73136, Control_c, 0, 64, 0
2, 73137, Note_on_c, 0, 75, 0
2, 73228, Control_c, 0, 64, 127
2, 73297, Note_on_c, 0, 52, 64
2, 73477, Note_on_c, 0, 57, 64
2, 73653, Note_on_c, 0, 61, 60
2, 73833, Note_on_c, 0, 64, 63
2, 74025, Note_on_c, 0, 75, 72
2, 74028, Note_on_c, 0, 69, 59
2, 74211, Note_on_c, 0, 76, 0
2, 74216, Note_on_c, 0, 76, 81
2, 74219, Note_on_c, 0, 73, 0
2, 74225, Note_on_c, 0, 73, 62
2, 74419, Note_on_c, 0, 45, 0
2, 74423, Control_c, 0, 64, 0
2, 74423, Note_on_c, 0, 64, 0
2, 74424, Note_on_c, 0, 52, 0
2, 74424, Note_on_c, 0, 69, 0
2, 74424, Note_on_c, 0, 57, 0
2, 74424, Note_on_c, 0, 61, 0
2, 74425, Note_on_c, 0, 76, 0
2, 74428, Note_on_c, 0, 78, 80
2, 74439, Note_on_c, 0, 47, 55
2, 74442, Note_on_c, 0, 73, 0
2, 74442, Note_on_c, 0, 75, 0
2, 74445, Note_on_c, 0, 59, 56
2, 74446, Note_on_c, 0, 75, 65
2, 74526, Control_c, 0, 64, 127
2, 74626, Note_on_c, 0, 47, 0
2, 74634, Note_on_c, 0, 59, 0
2, 74843, Note_on_c, 0, 66, 49
2, 75071, Note_on_c, 0, 71, 54
2, 75083, Note_on_c, 0, 59, 38
2, 75487, Note_on_c, 0, 80, 70
2, 75514, Note_on_c, 0, 76, 54
2, 75993, Note_on_c, 0, 78, 0
2, 75995, Note_on_c, 0, 81, 70
2, 76004, Note_on_c, 0, 78, 66
2, 76021, Control_c, 0, 64, 0
2, 76027, Note_on_c, 0, 71, 0
2, 76028, Note_on_c, 0, 59, 0
2, 76029, Note_on_c, 0, 76, 0
2, 76029, Note_on_c, 0, 66, 0
2, 76032, Note_on_c, 0, 75, 0
2, 76108, Control_c, 0, 64, 127
2, 76642, Note_on_c, 0, 83, 69
2, 76654, Note_on_c, 0, 80, 0
2, 76656, Note_on_c, 0, 52, 43
2, 76663, Note_on_c, 0, 80, 60
2, 76690, Control_c, 0, 64, 0
2, 76714, Note_on_c, 0, 81, 0
2, 76730, Note_on_c, 0, 78, 0
2, 76776, Control_c, 0, 64, 127
2, 76915, Note_on_c, 0, 59, 42
2, 77114, Note_on_c, 0, 59, 0
2, 77118, Note_on_c, 0, 76, 59
2, 77125, Note_on_c, 0, 64, 43
2, 77125, Note_on_c, 0, 59, 39
2, 77126, Note_on_c, 0, 71, 45
2, 77314, Note_on_c, 0, 76, 0
2, 77323, Note_on_c, 0, 76, 68
2, 77329, Note_on_c, 0, 59, 0
2, 77334, Note_on_c, 0, 59, 47
2, 77337, Note_on_c, 0, 71, 0
2, 77345, Note_on_c, 0, 71, 51
2, 77518, Note_on_c, 0, 68, 59
2, 77698, Note_on_c, 0, 59, 0
2, 77706, Note_on_c, 0, 59, 51
2, 77883, Note_on_c, 0, 85, 77
2, 77898, Note_on_c, 0, 64, 0
2, 77898, Note_on_c, 0, 76, 0
2, 77903, Note_on_c, 0, 76, 66
2, 77905, Note_on_c, 0, 64, 54
2, 78074, Note_on_c, 0, 59, 0
2, 78074, Note_on_c, 0, 83, 0
2, 78081, Note_on_c, 0, 83, 78
2, 78083, Note_on_c, 0, 59, 49
2, 78102, Note_on_c, 0, 75, 64
2, 78249, Note_on_c, 0, 64, 0
2, 78249, Control_c, 0, 64, 0
2, 78249, Note_on_c, 0, 59, 0
2, 78250, Note_on_c, 0, 68, 0
2, 78251, Note_on_c, 0, 52, 0
2, 78251, Note_on_c, 0, 76, 0
2, 78252, Note_on_c, 0, 71, 0
2, 78259, Note_on_c, 0, 85, 0
2, 78266, Note_on_c, 0, 80, 0
2, 78277, Note_on_c, 0, 51, 54
2, 78351, Control_c, 0, 64, 127
2, 78465, Note_on_c, 0, 85, 72
2, 78467, Note_on_c, 0, 59, 55
2, 78491, Note_on_c, 0, 76, 55
2, 78635, Note_on_c, 0, 83, 0
2, 78646, Note_on_c, 0, 83, 76
2, 78666, Note_on_c, 0, 75, 0
2, 78676, Note_on_c, 0, 63, 53
2, 78677, Note_on_c, 0, 75, 64
2, 78835, Note_on_c, 0, 59, 0
2, 78846, Note_on_c, 0, 59, 51
2, 79035, Note_on_c, 0, 66, 54
2, 79054, Note_on_c, 0, 70, 26
2, 79065, Note_on_c, 0, 70, 0
2, 79196, Note_on_c, 0, 59, 0
2, 79202, Note_on_c, 0, 59, 51
2, 79394, Note_on_c, 0, 80, 73
2, 79395, Note_on_c, 0, 63, 0
2, 79404, Note_on_c, 0, 63, 47
2, 79411, Note_on_c, 0, 76, 0
2, 79415, Note_on_c, 0, 76, 62
2, 79580, Note_on_c, 0, 59, 0
2, 79591, Note_on_c, 0, 59, 69
2, 79596, Note_on_c, 0, 81, 80
2, 79607, Note_on_c, 0, 78, 78
2, 79833, Note_on_c, 0, 83, 0
2, 79844, Note_on_c, 0, 83, 77
2, 79846, Note_on_c, 0, 49, 58
2, 79848, Note_on_c, 0, 80, 0
2, 79856, Note_on_c, 0, 80, 70
2, 79874, Note_on_c, 0, 85, 0
2, 79874, Note_on_c, 0, 63, 0
2, 79874, Note_on_c, 0, 66, 0
2, 79875, Note_on_c, 0, 76, 0
2, 79875, Note_on_c, 0, 75, 0
2, 79876, Note_on_c, 0, 51, 0
2, 79876, Control_c, 0, 64, 0
2, 79877, Note_on_c, 0, 78, 0
2, 79895, Note_on_c, 0, 59, 0
2, 79902, Note_on_c, 0, 81, 0
2, 80002, Control_c, 0, 64, 127
2, 80061, Note_on_c, 0, 56, 58
2, 80239, Note_on_c, 0, 61, 59
2, 80394, Note_on_c, 0, 80, 0
2, 80394, Note_on_c, 0, 83, 0
2, 80398, Note_on_c, 0, 83, 74
2, 80401, Note_on_c, 0, 56, 0
2, 80402, Note_on_c, 0, 80, 75
2, 80406, Note_on_c, 0, 56, 47
2, 80580, Note_on_c, 0, 81, 79
2, 80582, Note_on_c, 0, 64, 61
2, 80606, Note_on_c, 0, 78, 71
2, 80747, Note_on_c, 0, 80, 0
2, 80758, Note_on_c, 0, 80, 76
2, 80762, Note_on_c, 0, 56, 0
2, 80769, Note_on_c, 0, 56, 52
2, 80790, Note_on_c, 0, 76, 72
2, 80947, Note_on_c, 0, 61, 0
2, 80947, Note_on_c, 0, 78, 0
2, 80951, Note_on_c, 0, 78, 79
2, 80953, Note_on_c, 0, 61, 59
2, 80988, Note_on_c, 0, 75, 57
2, 81131, Note_on_c, 0, 76, 0
2, 81141, Note_on_c, 0, 76, 76
2, 81154, Note_on_c, 0, 56, 0
2, 81159, Note_on_c, 0, 71, 58
2, 81159, Note_on_c, 0, 56, 50
2, 81347, Note_on_c, 0, 49, 0
2, 81350, Note_on_c, 0, 75, 0
2, 81350, Note_on_c, 0, 61, 0
2, 81350, Note_on_c, 0, 56, 0
2, 81350, Note_on_c, 0, 64, 0
2, 81351, Note_on_c, 0, 47, 50
2, 81351, Note_on_c, 0, 78, 0
2, 81352, Control_c, 0, 64, 0
2, 81352, Note_on_c, 0, 71, 0
2, 81352, Note_on_c, 0, 80, 0
2, 81353, Note_on_c, 0, 83, 0
2, 81369, Note_on_c, 0, 81, 0
2, 81477, Control_c, 0, 64, 127
2, 81580, Note_on_c, 0, 56, 52
2, 81750, Note_on_c, 0, 59, 45
2, 81922, Note_on_c, 0, 56, 0
2, 81926, Note_on_c, 0, 56, 41
2, 82101, Note_on_c, 0, 64, 57
2, 82298, Note_on_c, 0, 56, 0
2, 82304, Note_on_c, 0, 56, 46
2, 82475, Note_on_c, 0, 59, 0
2, 82481, Note_on_c, 0, 71, 70
2, 82486, Note_on_c, 0, 59, 58
2, 82652, Note_on_c, 0, 56, 0
2, 82659, Note_on_c, 0, 56, 49
2, 82868, Note_on_c, 0, 73, 76
2, 82881, Note_on_c, 0, 69, 47
2, 82885, Note_on_c, 0, 45, 54
2, 82889, Note_on_c, 0, 64, 0
2, 82890, Note_on_c, 0, 59, 0
2, 82891, Note_on_c, 0, 47, 0
2, 82891, Note_on_c, 0, 56, 0
2, 82891, Note_on_c, 0, 71, 0
2, 82894, Control_c, 0, 64, 0
2, 82913, Note_on_c, 0, 76, 0
2, 82990, Control_c, 0, 64, 127
2, 83065, Note_on_c, 0, 52, 66
2, 83237, Note_on_c, 0, 57, 58
2, 83389, Note_on_c, 0, 52, 0
2, 83389, Note_on_c, 0, 73, 0
2, 83396, Note_on_c, 0, 73, 82
2, 83399, Note_on_c, 0, 52, 58
2, 83473, Note_on_c, 0, 45, 0
2, 83607, Note_on_c, 0, 45, 58
2, 83608, Note_on_c, 0, 57, 0
2, 83609, Note_on_c, 0, 52, 0
2, 83609, Control_c, 0, 64, 0
2, 83610, Note_on_c, 0, 75, 79
2, 83611, Note_on_c, 0, 73, 0
2, 83615, Note_on_c, 0, 59, 59
2, 83627, Note_on_c, 0, 69, 0
2, 83696, Control_c, 0, 64, 127
2, 83775, Note_on_c, 0, 76, 85
2, 83801, Note_on_c, 0, 54, 64
2, 83959, Note_on_c, 0, 78, 90
2, 83965, Note_on_c, 0, 59, 0
2, 83975, Note_on_c, 0, 59, 60
2, 84126, Note_on_c, 0, 54, 0
2, 84126, Note_on_c, 0, 75, 0
2, 84134, Note_on_c, 0, 54, 68
2, 84136, Note_on_c, 0, 75, 79
2, 84319, Control_c, 0, 64, 0
2, 84319, Note_on_c, 0, 54, 0
2, 84320, Note_on_c, 0, 45, 0
2, 84321, Note_on_c, 0, 59, 0
2, 84321, Note_on_c, 0, 76, 0
2, 84321, Note_on_c, 0, 78, 0
2, 84321, Note_on_c, 0, 75, 0
2, 84332, Note_on_c, 0, 71, 80
2, 84341, Note_on_c, 0, 44, 56
2, 84433, Control_c, 0, 64, 127
2, 84517, Note_on_c, 0, 51, 61
2, 84687, Note_on_c, 0, 71, 0
2, 84698, Note_on_c, 0, 71, 85
2, 84699, Note_on_c, 0, 56, 60
2, 84864, Note_on_c, 0, 51, 0
2, 84875, Note_on_c, 0, 51, 66
2, 84876, Note_on_c, 0, 80, 88
2, 85059, Note_on_c, 0, 51, 0
2, 85059, Note_on_c, 0, 56, 0
2, 85060, Note_on_c, 0, 44, 0
2, 85060, Note_on_c, 0, 71, 0
2, 85062, Control_c, 0, 64, 0
2, 85074, Note_on_c, 0, 49, 65
2, 85081, Note_on_c, 0, 73, 57
2, 85082, Note_on_c, 0, 61, 61
2, 85178, Control_c, 0, 64, 127
2, 85267, Note_on_c, 0, 56, 68
2, 85269, Note_on_c, 0, 68, 53
2, 85278, Note_on_c, 0, 49, 0
2, 85447, Note_on_c, 0, 61, 0
2, 85447, Note_on_c, 0, 73, 0
2, 85452, Note_on_c, 0, 61, 66
2, 85453, Note_on_c, 0, 73, 55
2, 85608, Note_on_c, 0, 56, 0
2, 85608, Note_on_c, 0, 68, 0
2, 85619, Note_on_c, 0, 56, 57
2, 85620, Note_on_c, 0, 68, 51
2, 85804, Note_on_c, 0, 61, 0
2, 85804, Control_c, 0, 64, 0
2, 85804, Note_on_c, 0, 80, 0
2, 85805, Note_on_c, 0, 56, 0
2, 85824, Note_on_c, 0, 73, 0
2, 85829, Note_on_c, 0, 81, 87
2, 85834, Note_on_c, 0, 73, 74
2, 85834, Note_on_c, 0, 57, 52
2, 85862, Note_on_c, 0, 68, 0
2, 85893, Control_c, 0, 64, 127
2, 86011, Note_on_c, 0, 52, 58
2, 86169, Note_on_c, 0, 73, 0
2, 86169, Note_on_c, 0, 81, 0
2, 86174, Note_on_c, 0, 81, 82
2, 86176, Note_on_c, 0, 73, 80
2, 86200, Note_on_c, 0, 57, 0
2, 86209, Note_on_c, 0, 57, 62
2, 86349, Note_on_c, 0, 83, 81
2, 86353, Note_on_c, 0, 52, 0
2, 86364, Note_on_c, 0, 52, 54
2, 86394, Note_on_c, 0, 75, 64
2, 86528, Note_on_c, 0, 80, 86
2, 86538, Note_on_c, 0, 57, 0
2, 86543, Note_on_c, 0, 57, 60
2, 86550, Note_on_c, 0, 76, 76
2, 86711, Note_on_c, 0, 78, 90
2, 86714, Note_on_c, 0, 52, 0
2, 86719, Note_on_c, 0, 52, 69
2, 86745, Note_on_c, 0, 75, 0
2, 86751, Note_on_c, 0, 75, 66
2, 86906, Note_on_c, 0, 57, 0
2, 86910, Note_on_c, 0, 57, 61
2, 87077, Control_c, 0, 64, 0
2, 87078, Note_on_c, 0, 52, 0
2, 87079, Note_on_c, 0, 83, 0
2, 87079, Note_on_c, 0, 80, 0
2, 87080, Note_on_c, 0, 81, 0
2, 87080, Note_on_c, 0, 57, 0
2, 87081, Note_on_c, 0, 76, 0
2, 87091, Note_on_c, 0, 78, 0
2, 87098, Note_on_c, 0, 73, 0
2, 87098, Note_on_c, 0, 75, 0
2, 87101, Note_on_c, 0, 78, 91
2, 87102, Note_on_c, 0, 47, 64
2, 87102, Note_on_c, 0, 59, 72
2, 87106, Note_on_c, 0, 75, 87
2, 87168, Control_c, 0, 64, 127
2, 87260, Note_on_c, 0, 59, 0
2, 87487, Note_on_c, 0, 83, 79
2, 87676, Note_on_c, 0, 90, 99
2, 87828, Note_on_c, 0, 47, 0
2, 87843, Note_on_c, 0, 95, 100
2, 88053, Note_on_c, 0, 80, 103
2, 88061, Note_on_c, 0, 76, 93
2, 88473, Note_on_c, 0, 78, 0
2, 88478, Note_on_c, 0, 81, 100
2, 88480, Note_on_c, 0, 78, 101
2, 88888, Note_on_c, 0, 83, 0
2, 88896, Note_on_c, 0, 80, 0
2, 88897, Control_c, 0, 64, 0
2, 88898, Note_on_c, 0, 90, 0
2, 88898, Note_on_c, 0, 83, 102
2, 88899, Note_on_c, 0, 76, 0
2, 88899, Note_on_c, 0, 95, 0
2, 88899, Note_on_c, 0, 75, 0
2, 88902, Note_on_c, 0, 52, 84
2, 88904, Note_on_c, 0, 80, 93
2, 88905, Note_on_c, 0, 40, 73
2, 88911, Note_on_c, 0, 78, 0
2, 88919, Note_on_c, 0, 81, 0
2, 88980, Control_c, 0, 64, 127
2, 89138, Note_on_c, 0, 56, 62
2, 89164, Note_on_c, 0, 40, 0
2, 89323, Note_on_c, 0, 76, 95
2, 89326, Note_on_c, 0, 71, 84
2, 89328, Note_on_c, 0, 59, 74
2, 89329, Note_on_c, 0, 64, 74
2, 89510, Note_on_c, 0, 56, 0
2, 89510, Note_on_c, 0, 71, 0
2, 89510, Note_on_c, 0, 76, 0
2, 89515, Note_on_c, 0, 76, 91
2, 89517, Note_on_c, 0, 68, 71
2, 89518, Note_on_c, 0, 71, 85
2, 89519, Note_on_c, 0, 56, 68
2, 89525, Note_on_c, 0, 68, 0
2, 89694, Note_on_c, 0, 59, 0
2, 89701, Note_on_c, 0, 59, 76
2, 89702, Note_on_c, 0, 64, 0
2, 89712, Note_on_c, 0, 64, 66
2, 89879, Note_on_c, 0, 56, 0
2, 89879, Note_on_c, 0, 71, 0
2, 89879, Note_on_c, 0, 76, 0
2, 89885, Note_on_c, 0, 71, 86
2, 89887, Note_on_c, 0, 76, 90
2, 89890, Note_on_c, 0, 56, 73
2, 89891, Note_on_c, 0, 68, 72
2, 90059, Note_on_c, 0, 85, 98
2, 90063, Note_on_c, 0, 76, 0
2, 90070, Note_on_c, 0, 76, 92
2, 90071, Note_on_c, 0, 64, 0
2, 90078, Note_on_c, 0, 59, 0
2, 90081, Note_on_c, 0, 64, 82
2, 90084, Note_on_c, 0, 59, 77
2, 90240, Note_on_c, 0, 56, 0
2, 90240, Note_on_c, 0, 83, 0
2, 90244, Note_on_c, 0, 56, 81
2, 90250, Note_on_c, 0, 83, 98
2, 90259, Note_on_c, 0, 75, 95
2, 90407, Note_on_c, 0, 68, 0
2, 90408, Note_on_c, 0, 56, 0
2, 90408, Note_on_c, 0, 76, 0
2, 90408, Note_on_c, 0, 71, 0
2, 90410, Note_on_c, 0, 85, 0
2, 90414, Control_c, 0, 64, 0
2, 90416, Note_on_c, 0, 52, 0
2, 90424, Note_on_c, 0, 59, 0
2, 90424, Note_on_c, 0, 64, 0
2, 90439, Note_on_c, 0, 80, 0
2, 90448, Note_on_c, 0, 51, 91
2, 90449, Note_on_c, 0, 39, 84
2, 90493, Control_c, 0, 64, 127
2, 90633, Note_on_c, 0, 85, 93
2, 90642, Note_on_c, 0, 76, 84
2, 90672, Note_on_c, 0, 54, 57
2, 90808, Note_on_c, 0, 83, 0
2, 90816, Note_on_c, 0, 75, 0
2, 90817, Note_on_c, 0, 83, 99
2, 90825, Note_on_c, 0, 63, 74
2, 90825, Note_on_c, 0, 75, 95
2, 90827, Note_on_c, 0, 78, 77
2, 90827, Note_on_c, 0, 59, 79
2, 91000, Note_on_c, 0, 54, 0
2, 91011, Note_on_c, 0, 54, 73
2, 91184, Note_on_c, 0, 59, 0
2, 91184, Note_on_c, 0, 63, 0
2, 91189, Note_on_c, 0, 63, 79
2, 91192, Note_on_c, 0, 59, 77
2, 91361, Note_on_c, 0, 54, 0
2, 91366, Note_on_c, 0, 54, 74
2, 91476, Note_on_c, 0, 51, 0
2, 91483, Note_on_c, 0, 51, 52
2, 91545, Note_on_c, 0, 85, 0
2, 91550, Note_on_c, 0, 85, 100
2, 91553, Note_on_c, 0, 76, 0
2, 91557, Note_on_c, 0, 76, 91
2, 91560, Note_on_c, 0, 59, 0
2, 91560, Note_on_c, 0, 63, 0
2, 91567, Note_on_c, 0, 63, 82
2, 91572, Note_on_c, 0, 59, 86
2, 91726, Note_on_c, 0, 87, 101
2, 91729, Note_on_c, 0, 54, 0
2, 91729, Note_on_c, 0, 78, 0
2, 91734, Note_on_c, 0, 54, 75
2, 91741, Note_on_c, 0, 78, 96
2, 91939, Control_c, 0, 64, 0
2, 91940, Note_on_c, 0, 76, 0
2, 91941, Note_on_c, 0, 63, 0
2, 91941, Note_on_c, 0, 51, 0
2, 91941, Note_on_c, 0, 54, 0
2, 91942, Note_on_c, 0, 78, 0
2, 91942, Note_on_c, 0, 75, 0
2, 91942, Note_on_c, 0, 87, 0
2, 91942, Note_on_c, 0, 83, 0
2, 91942, Note_on_c, 0, 85, 0
2, 91944, Note_on_c, 0, 39, 0
2, 91947, Note_on_c, 0, 88, 105
2, 91949, Note_on_c, 0, 80, 98
2, 91956, Note_on_c, 0, 49, 77
2, 91957, Note_on_c, 0, 37, 75
2, 91960, Note_on_c, 0, 59, 0
2, 92010, Note_on_c, 0, 37, 0
2, 92014, Control_c, 0, 64, 127
2, 92180, Note_on_c, 0, 56, 69
2, 92335, Note_on_c, 0, 76, 63
2, 92337, Note_on_c, 0, 61, 66
2, 92339, Note_on_c, 0, 64, 65
2, 92482, Note_on_c, 0, 80, 0
2, 92493, Note_on_c, 0, 80, 94
2, 92497, Note_on_c, 0, 56, 0
2, 92505, Note_on_c, 0, 76, 0
2, 92509, Note_on_c, 0, 56, 69
2, 92509, Note_on_c, 0, 68, 63
2, 92509, Note_on_c, 0, 76, 71
2, 92674, Note_on_c, 0, 80, 0
2, 92682, Note_on_c, 0, 61, 0
2, 92682, Note_on_c, 0, 76, 0
2, 92685, Note_on_c, 0, 80, 92
2, 92689, Note_on_c, 0, 64, 0
2, 92691, Note_on_c, 0, 61, 75
2, 92692, Note_on_c, 0, 76, 85
2, 92698, Note_on_c, 0, 64, 70
2, 92858, Note_on_c, 0, 56, 0
2, 92858, Note_on_c, 0, 68, 0
2, 92864, Note_on_c, 0, 78, 86
2, 92869, Note_on_c, 0, 75, 77
2, 92869, Note_on_c, 0, 68, 72
2, 92869, Note_on_c, 0, 56, 70
2, 93027, Note_on_c, 0, 80, 0
2, 93035, Note_on_c, 0, 76, 0
2, 93039, Note_on_c, 0, 80, 93
2, 93043, Note_on_c, 0, 61, 0
2, 93045, Note_on_c, 0, 76, 89
2, 93047, Note_on_c, 0, 61, 76
2, 93050, Note_on_c, 0, 64, 0
2, 93062, Note_on_c, 0, 64, 71
2, 93219, Note_on_c, 0, 80, 0
2, 93224, Note_on_c, 0, 83, 91
2, 93225, Note_on_c, 0, 80, 95
2, 93376, Note_on_c, 0, 49, 0
2, 93377, Note_on_c, 0, 61, 0
2, 93377, Note_on_c, 0, 88, 0
2, 93378, Note_on_c, 0, 76, 0
2, 93378, Note_on_c, 0, 64, 0
2, 93379, Note_on_c, 0, 78, 0
2, 93379, Control_c, 0, 64, 0
2, 93396, Note_on_c, 0, 56, 0
2, 93416, Note_on_c, 0, 47, 73
2, 93417, Note_on_c, 0, 35, 69
2, 93457, Control_c, 0, 64, 127
2, 93573, Note_on_c, 0, 35, 0
2, 93611, Note_on_c, 0, 68, 0
2, 93613, Note_on_c, 0, 54, 71
2, 93789, Note_on_c, 0, 63, 67
2, 93799, Note_on_c, 0, 59, 69
2, 93995, Note_on_c, 0, 54, 0
2, 94002, Note_on_c, 0, 54, 66
2, 94172, Note_on_c, 0, 59, 0
2, 94172, Note_on_c, 0, 63, 0
2, 94179, Note_on_c, 0, 59, 73
2, 94180, Note_on_c, 0, 71, 63
2, 94181, Note_on_c, 0, 63, 64
2, 94356, Note_on_c, 0, 54, 0
2, 94366, Note_on_c, 0, 54, 59
2, 94556, Note_on_c, 0, 71, 0
2, 94561, Note_on_c, 0, 71, 88
2, 94563, Note_on_c, 0, 63, 0
2, 94571, Note_on_c, 0, 59, 0
2, 94572, Note_on_c, 0, 63, 69
2, 94577, Note_on_c, 0, 59, 72
2, 94717, Note_on_c, 0, 54, 0
2, 94728, Note_on_c, 0, 54, 65
2, 94927, Control_c, 0, 64, 0
2, 94932, Note_on_c, 0, 54, 0
2, 94932, Note_on_c, 0, 47, 0
2, 94933, Note_on_c, 0, 59, 0
2, 94934, Note_on_c, 0, 63, 0
2, 94935, Note_on_c, 0, 71, 0
2, 94941, Note_on_c, 0, 73, 87
2, 94945, Note_on_c, 0, 45, 72
2, 94947, Note_on_c, 0, 80, 0
2, 94947, Note_on_c, 0, 83, 0
2, 94948, Note_on_c, 0, 57, 73
2, 94948, Note_on_c, 0, 69, 66
2, 94955, Note_on_c, 0, 75, 0
2, 95009, Control_c, 0, 64, 127
2, 95130, Note_on_c, 0, 52, 70
2, 95301, Note_on_c, 0, 57, 0
2, 95309, Note_on_c, 0, 61, 67
2, 95312, Note_on_c, 0, 57, 58
2, 95424, Note_on_c, 0, 69, 0
2, 95429, Note_on_c, 0, 69, 45
2, 95485, Note_on_c, 0, 73, 0
2, 95490, Note_on_c, 0, 73, 84
2, 95493, Note_on_c, 0, 52, 0
2, 95499, Note_on_c, 0, 52, 64
2, 95669, Note_on_c, 0, 73, 0
2, 95675, Note_on_c, 0, 73, 83
2, 95677, Note_on_c, 0, 57, 0
2, 95677, Note_on_c, 0, 61, 0
2, 95682, Note_on_c, 0, 61, 73
2, 95688, Note_on_c, 0, 57, 59
2, 95854, Note_on_c, 0, 52, 0
2, 95857, Note_on_c, 0, 75, 87
2, 95865, Note_on_c, 0, 52, 63
2, 96038, Note_on_c, 0, 61, 0
2, 96039, Note_on_c, 0, 76, 90
2, 96043, Note_on_c, 0, 61, 75
2, 96046, Note_on_c, 0, 57, 0
2, 96051, Note_on_c, 0, 57, 76
2, 96207, Note_on_c, 0, 52, 0
2, 96212, Note_on_c, 0, 52, 72
2, 96220, Note_on_c, 0, 80, 91
2, 96366, Note_on_c, 0, 75, 0
2, 96366, Note_on_c, 0, 73, 0
2, 96366, Note_on_c, 0, 61, 0
2, 96367, Note_on_c, 0, 76, 0
2, 96367, Note_on_c, 0, 52, 0
2, 96368, Note_on_c, 0, 57, 0
2, 96368, Control_c, 0, 64, 0
2, 96376, Note_on_c, 0, 45, 0
2, 96376, Note_on_c, 0, 69, 0
2, 96410, Note_on_c, 0, 46, 71
2, 96483, Control_c, 0, 64, 127
2, 96576, Note_on_c, 0, 78, 93
2, 96595, Note_on_c, 0, 54, 71
2, 96779, Note_on_c, 0, 61, 62
2, 96779, Note_on_c, 0, 58, 60
2, 96967, Note_on_c, 0, 54, 0
2, 96978, Note_on_c, 0, 54, 57
2, 97152, Note_on_c, 0, 58, 0
2, 97161, Note_on_c, 0, 58, 56
2, 97175, Note_on_c, 0, 61, 0
2, 97185, Note_on_c, 0, 61, 50
2, 97367, Note_on_c, 0, 54, 0
2, 97375, Note_on_c, 0, 54, 54
2, 97589, Note_on_c, 0, 61, 0
2, 97595, Note_on_c, 0, 61, 49
2, 97597, Note_on_c, 0, 58, 0
2, 97603, Note_on_c, 0, 58, 55
2, 97643, Note_on_c, 0, 54, 0
2, 97648, Note_on_c, 0, 54, 33
2, 97812, Note_on_c, 0, 54, 0
2, 97812, Note_on_c, 0, 80, 0
2, 97816, Note_on_c, 0, 80, 78
2, 97818, Note_on_c, 0, 54, 56
2, 98024, Note_on_c, 0, 58, 0
2, 98130, Control_c, 0, 64, 0
2, 98132, Note_on_c, 0, 54, 0
2, 98134, Note_on_c, 0, 46, 0
2, 98136, Note_on_c, 0, 61, 0
2, 98137, Note_on_c, 0, 80, 0
2, 98137, Note_on_c, 0, 78, 0
2, 98139, Note_on_c, 0, 83, 81
2, 98145, Note_on_c, 0, 47, 57
2, 98234, Control_c, 0, 64, 127
2, 98389, Note_on_c, 0, 56, 47
2, 98467, Note_on_c, 0, 59, 41
2, 98574, Note_on_c, 0, 64, 57
2, 98588, Note_on_c, 0, 59, 0
2, 98597, Note_on_c, 0, 59, 52
2, 98749, Note_on_c, 0, 56, 0
2, 98754, Note_on_c, 0, 80, 79
2, 98756, Note_on_c, 0, 56, 51
2, 98948, Note_on_c, 0, 47, 0
2, 98948, Note_on_c, 0, 64, 0
2, 98948, Control_c, 0, 64, 0
2, 98949, Note_on_c, 0, 56, 0
2, 98949, Note_on_c, 0, 59, 0
2, 98950, Note_on_c, 0, 76, 77
2, 98951, Note_on_c, 0, 83, 0
2, 98974, Note_on_c, 0, 49, 51
2, 98976, Note_on_c, 0, 61, 54
2, 99048, Control_c, 0, 64, 127
2, 99153, Note_on_c, 0, 56, 54
2, 99363, Note_on_c, 0, 61, 0
2, 99367, Note_on_c, 0, 61, 50
2, 99368, Note_on_c, 0, 64, 58
2, 99540, Note_on_c, 0, 56, 0
2, 99546, Note_on_c, 0, 71, 73
2, 99551, Note_on_c, 0, 56, 57
2, 99752, Note_on_c, 0, 61, 0
2, 99752, Note_on_c, 0, 56, 0
2, 99752, Note_on_c, 0, 64, 0
2, 99753, Note_on_c, 0, 49, 0
2, 99753, Note_on_c, 0, 76, 0
2, 99753, Note_on_c, 0, 71, 0
2, 99755, Note_on_c, 0, 80, 0
2, 99756, Control_c, 0, 64, 0
2, 99775, Note_on_c, 0, 42, 56
2, 99781, Note_on_c, 0, 73, 76
2, 99804, Note_on_c, 0, 57, 46
2, 99840, Control_c, 0, 64, 127
2, 99972, Note_on_c, 0, 76, 79
2, 99998, Note_on_c, 0, 54, 50
2, 100078, Note_on_c, 0, 73, 0
2, 100082, Note_on_c, 0, 73, 84
2, 100208, Note_on_c, 0, 57, 0
2, 100214, Note_on_c, 0, 61, 60
2, 100218, Note_on_c, 0, 57, 51
2, 100385, Note_on_c, 0, 54, 0
2, 100385, Note_on_c, 0, 73, 0
2, 100392, Note_on_c, 0, 73, 83
2, 100395, Note_on_c, 0, 54, 56
2, 100576, Note_on_c, 0, 42, 0
2, 100580, Note_on_c, 0, 57, 0
2, 100580, Note_on_c, 0, 61, 0
2, 100581, Note_on_c, 0, 73, 0
2, 100581, Note_on_c, 0, 76, 0
2, 100582, Control_c, 0, 64, 0
2, 100594, Note_on_c, 0, 81, 85
2, 100600, Note_on_c, 0, 54, 0
2, 100605, Note_on_c, 0, 59, 58
2, 100608, Note_on_c, 0, 47, 57
2, 100661, Control_c, 0, 64, 127
2, 100798, Note_on_c, 0, 80, 79
2, 100811, Note_on_c, 0, 54, 55
2, 101031, Note_on_c, 0, 78, 77
2, 101045, Note_on_c, 0, 59, 0
2, 101050, Note_on_c, 0, 59, 55
2, 101062, Note_on_c, 0, 63, 38
2, 101306, Note_on_c, 0, 80, 0
2, 101312, Note_on_c, 0, 80, 71
2, 101314, Note_on_c, 0, 54, 0
2, 101323, Note_on_c, 0, 54, 52
2, 101675, Note_on_c, 0, 78, 0
2, 101685, Note_on_c, 0, 49, 50
2, 101686, Note_on_c, 0, 78, 71
2, 101694, Control_c, 0, 64, 0
2, 101700, Note_on_c, 0, 54, 0
2, 101700, Note_on_c, 0, 59, 0
2, 101700, Note_on_c, 0, 63, 0
2, 101701, Note_on_c, 0, 81, 0
2, 101702, Note_on_c, 0, 47, 0
2, 101702, Note_on_c, 0, 80, 0
2, 101836, Control_c, 0, 64, 127
2, 101937, Note_on_c, 0, 56, 50
2, 101941, Note_on_c, 0, 68, 35
2, 102123, Note_on_c, 0, 61, 45
2, 102310, Note_on_c, 0, 76, 69
2, 102336, Note_on_c, 0, 64, 48
2, 102720, Note_on_c, 0, 68, 0
2, 102731, Note_on_c, 0, 68, 54
2, 102938, Note_on_c, 0, 73, 60
2, 103148, Note_on_c, 0, 71, 57
2, 103365, Note_on_c, 0, 70, 61
2, 103366, Note_on_c, 0, 54, 39
2, 103367, Note_on_c, 0, 61, 0
2, 103367, Note_on_c, 0, 68, 0
2, 103368, Note_on_c, 0, 64, 0
2, 103368, Note_on_c, 0, 56, 0
2, 103368, Note_on_c, 0, 76, 0
2, 103368, Note_on_c, 0, 49, 0
2, 103369, Control_c, 0, 64, 0
2, 103370, Note_on_c, 0, 73, 0
2, 103370, Note_on_c, 0, 71, 0
2, 103380, Note_on_c, 0, 78, 0
2, 103511, Control_c, 0, 64, 127
2, 103587, Note_on_c, 0, 61, 44
2, 103815, Note_on_c, 0, 66, 46
2, 104071, Note_on_c, 0, 70, 0
2, 104078, Note_on_c, 0, 73, 45
2, 104082, Note_on_c, 0, 70, 30
2, 104457, Note_on_c, 0, 78, 48
2, 105600, Note_on_c, 0, 54, 0
2, 105600, Note_on_c, 0, 61, 0
2, 105805, Note_on_c, 0, 80, 60
2, 106380, Note_on_c, 0, 83, 58
2, 106386, Note_on_c, 0, 68, 47
2, 106408, Note_on_c, 0, 59, 44
2, 106417, Note_on_c, 0, 76, 42
2, 106417, Note_on_c, 0, 64, 43
2, 106445, Control_c, 0, 64, 0
2, 106457, Note_on_c, 0, 70, 0
2, 106457, Note_on_c, 0, 66, 0
2, 106457, Note_on_c, 0, 73, 0
2, 106458, Note_on_c, 0, 78, 0
2, 106460, Note_on_c, 0, 80, 0
2, 106590, Control_c, 0, 64, 127
2, 107170, Note_on_c, 0, 80, 62
2, 107412, Note_on_c, 0, 76, 0
2, 107416, Note_on_c, 0, 76, 63
2, 107443, Note_on_c, 0, 64, 0
2, 107443, Note_on_c, 0, 68, 0
2, 107451, Note_on_c, 0, 68, 32
2, 107453, Note_on_c, 0, 61, 32
2, 107454, Note_on_c, 0, 64, 39
2, 107483, Control_c, 0, 64, 0
2, 107488, Note_on_c, 0, 59, 0
2, 107490, Note_on_c, 0, 83, 0
2, 107550, Control_c, 0, 64, 127
2, 107873, Note_on_c, 0, 80, 0
2, 108114, Note_on_c, 0, 71, 66
2, 108402, Note_on_c, 0, 73, 63
2, 108410, Note_on_c, 0, 61, 0
2, 108410, Note_on_c, 0, 64, 0
2, 108415, Note_on_c, 0, 69, 50
2, 108415, Note_on_c, 0, 61, 50
2, 108417, Note_on_c, 0, 64, 46
2, 108422, Note_on_c, 0, 57, 39
2, 108422, Note_on_c, 0, 54, 40
2, 108436, Note_on_c, 0, 71, 0
2, 108436, Control_c, 0, 64, 0
2, 108464, Note_on_c, 0, 68, 0
2, 108464, Note_on_c, 0, 76, 0
2, 108518, Control_c, 0, 64, 127
2, 108613, Note_on_c, 0, 76, 63
2, 108718, Note_on_c, 0, 73, 0
2, 108728, Note_on_c, 0, 73, 73
2, 109086, Note_on_c, 0, 73, 0
2, 109097, Note_on_c, 0, 73, 80
2, 109438, Note_on_c, 0, 81, 82
2, 109440, Note_on_c, 0, 57, 0
2, 109463, Note_on_c, 0, 69, 0
2, 109463, Note_on_c, 0, 73, 0
2, 109467, Note_on_c, 0, 73, 56
2, 109471, Note_on_c, 0, 66, 45
2, 109473, Note_on_c, 0, 69, 42
2, 109474, Control_c, 0, 64, 0
2, 109478, Note_on_c, 0, 59, 43
2, 109480, Note_on_c, 0, 54, 0
2, 109482, Note_on_c, 0, 76, 0
2, 109501, Note_on_c, 0, 64, 0
2, 109516, Note_on_c, 0, 61, 0
2, 109585, Control_c, 0, 64, 127
2, 109763, Note_on_c, 0, 80, 74
2, 109795, Note_on_c, 0, 71, 56
2, 110143, Note_on_c, 0, 78, 69
2, 110154, Note_on_c, 0, 69, 0
2, 110165, Note_on_c, 0, 69, 49
2, 110174, Note_on_c, 0, 81, 0
2, 110176, Note_on_c, 0, 71, 0
2, 110180, Control_c, 0, 64, 0
2, 110184, Note_on_c, 0, 73, 0
2, 110246, Control_c, 0, 64, 127
2, 110638, Note_on_c, 0, 80, 0
2, 110645, Note_on_c, 0, 80, 61
2, 110650, Note_on_c, 0, 71, 46
2, 111221, Note_on_c, 0, 69, 0
2, 111528, Note_on_c, 0, 78, 0
2, 111539, Note_on_c, 0, 78, 61
2, 111569, Note_on_c, 0, 69, 37
2, 111569, Note_on_c, 0, 52, 41
2, 111574, Note_on_c, 0, 66, 0
2, 111577, Note_on_c, 0, 71, 0
2, 111578, Note_on_c, 0, 80, 0
2, 111579, Control_c, 0, 64, 0
2, 111590, Note_on_c, 0, 59, 0
2, 111651, Control_c, 0, 64, 127
2, 111978, Note_on_c, 0, 59, 40
2, 112184, Note_on_c, 0, 76, 65
2, 112195, Note_on_c, 0, 68, 51
2, 112212, Note_on_c, 0, 52, 0
2, 112218, Note_on_c, 0, 52, 31
2, 112222, Control_c, 0, 64, 0
2, 112226, Note_on_c, 0, 64, 41
2, 112246, Note_on_c, 0, 59, 0
2, 112250, Note_on_c, 0, 69, 0
2, 112258, Note_on_c, 0, 78, 0
2, 112304, Control_c, 0, 64, 127
2, 112584, Note_on_c, 0, 59, 50
2, 112797, Note_on_c, 0, 56, 46
2, 112972, Note_on_c, 0, 59, 0
2, 112977, Note_on_c, 0, 59, 54
2, 113198, Note_on_c, 0, 49, 53
2, 113244, Note_on_c, 0, 64, 0
2, 113244, Note_on_c, 0, 56, 0
2, 113245, Note_on_c, 0, 52, 0
2, 113245, Note_on_c, 0, 59, 0
2, 113245, Control_c, 0, 64, 0
2, 113356, Control_c, 0, 64, 127
2, 113577, Note_on_c, 0, 56, 51
2, 113794, Note_on_c, 0, 61, 55
2, 114178, Note_on_c, 0, 56, 0
2, 114183, Note_on_c, 0, 56, 47
2, 114391, Note_on_c, 0, 52, 46
2, 114600, Note_on_c, 0, 56, 0
2, 114605, Note_on_c, 0, 56, 55
2, 114840, Note_on_c, 0, 45, 56
2, 114865, Note_on_c, 0, 57, 39
2, 114877, Control_c, 0, 64, 0
2, 114879, Note_on_c, 0, 49, 0
2, 114879, Note_on_c, 0, 61, 0
2, 114879, Note_on_c, 0, 52, 0
2, 114880, Note_on_c, 0, 56, 0
2, 114892, Note_on_c, 0, 68, 0
2, 114892, Note_on_c, 0, 76, 0
2, 114984, Control_c, 0, 64, 127
2, 115232, Note_on_c, 0, 52, 52
2, 115484, Note_on_c, 0, 57, 0
2, 115495, Note_on_c, 0, 57, 48
2, 115906, Note_on_c, 0, 52, 0
2, 115917, Note_on_c, 0, 52, 48
2, 116163, Note_on_c, 0, 49, 48
2, 116413, Note_on_c, 0, 52, 0
2, 116418, Note_on_c, 0, 52, 43
2, 116685, Control_c, 0, 64, 0
2, 116685, Note_on_c, 0, 47, 50
2, 116685, Note_on_c, 0, 49, 0
2, 116685, Note_on_c, 0, 52, 0
2, 116686, Note_on_c, 0, 45, 0
2, 116687, Note_on_c, 0, 57, 0
2, 116789, Control_c, 0, 64, 127
2, 117177, Note_on_c, 0, 69, 56
2, 117186, Note_on_c, 0, 54, 42
2, 117471, Note_on_c, 0, 59, 53
2, 117821, Note_on_c, 0, 68, 60
2, 118164, Note_on_c, 0, 66, 63
2, 118591, Note_on_c, 0, 64, 59
2, 119170, Note_on_c, 0, 66, 0
2, 119175, Note_on_c, 0, 66, 54
2, 120268, Note_on_c, 0, 68, 0
2, 120274, Note_on_c, 0, 68, 60
2, 120300, Note_on_c, 0, 40, 33
2, 120302, Note_on_c, 0, 52, 32
2, 120340, Control_c, 0, 64, 0
2, 120347, Note_on_c, 0, 64, 0
2, 120348, Note_on_c, 0, 66, 0
2, 120349, Note_on_c, 0, 59, 0
2, 120349, Note_on_c, 0, 47, 0
2, 120349, Note_on_c, 0, 54, 0
2, 120353, Note_on_c, 0, 69, 0
2, 120437, Control_c, 0, 64, 127
2, 120798, Note_on_c, 0, 68, 0
2, 120803, Note_on_c, 0, 47, 39
2, 120806, Note_on_c, 0, 68, 38
2, 121159, Note_on_c, 0, 52, 0
2, 121164, Note_on_c, 0, 52, 51
2, 121447, Note_on_c, 0, 54, 40
2, 121752, Note_on_c, 0, 59, 45
2, 122156, Note_on_c, 0, 64, 44
2, 122579, Note_on_c, 0, 66, 49
2, 123175, Note_on_c, 0, 71, 48
2, 124473, Note_on_c, 0, 83, 60
2, 124490, Note_on_c, 0, 76, 52
2, 124491, Note_on_c, 0, 80, 53
2, 124800, Note_on_c, 0, 40, 0
2, 124800, Note_on_c, 0, 47, 0
2, 124800, Note_on_c, 0, 54, 0
2, 124800, Note_on_c, 0, 59, 0
2, 124800, Note_on_c, 0, 64, 0
2, 124800, Note_on_c, 0, 66, 0
2, 124800, Note_on_c, 0, 68, 0
2, 125775, Note_on_c, 0, 52, 0
2, 127779, Note_on_c, 0, 71, 0
2, 128640, Note_on_c, 0, 76, 0
2, 128640, Note_on_c, 0, 80, 0
2, 128640, Note_on_c, 0, 83, 0
2, 129425, Control_c, 0, 64, 0
2, 129426, End_track
0, 0, End_of_file
