0, 0, Header, 1, 2, 384
1, 0, Start_track
1, 0, Tempo, 500000
1, 0, Time_signature, 4, 2, 24, 8
1, 1, End_track
2, 0, Start_track
2, 3456, Control_c, 0, 64, 127
2, 3998, Note_on_c, 0, 40, 82
2, 4150, Note_on_c, 0, 47, 61
2, 4289, Note_on_c, 0, 71, 89
2, 4304, Note_on_c, 0, 52, 68
2, 4306, Note_on_c, 0, 67, 76
2, 4310, Note_on_c, 0, 64, 63
2, 4427, Note_on_c, 0, 54, 68
2, 4577, Note_on_c, 0, 71, 0
2, 4581, Note_on_c, 0, 55, 69
2, 4583, Note_on_c, 0, 71, 90
2, 4608, Note_on_c, 0, 67, 0
2, 4618, Note_on_c, 0, 67, 72
2, 4723, Note_on_c, 0, 52, 0
2, 4730, Note_on_c, 0, 52, 65
2, 4869, Note_on_c, 0, 64, 0
2, 4869, Note_on_c, 0, 71, 0
2, 4873, Note_on_c, 0, 79, 96
2, 4876, Note_on_c, 0, 67, 0
2, 4878, Note_on_c, 0, 71, 85
2, 4880, Note_on_c, 0, 64, 65
2, 4881, Note_on_c, 0, 67, 80
2, 5009, Note_on_c, 0, 59, 59
2, 5160, Note_on_c, 0, 79, 0
2, 5168, Note_on_c, 0, 67, 0
2, 5171, Control_c, 0, 64, 0
2, 5171, Note_on_c, 0, 79, 97
2, 5172, Note_on_c, 0, 72, 95
2, 5173, Note_on_c, 0, 36, 75
2, 5174, Note_on_c, 0, 67, 85
2, 5179, Note_on_c, 0, 52, 0
2, 5179, Note_on_c, 0, 71, 0
2, 5179, Note_on_c, 0, 59, 0
2, 5179, Note_on_c, 0, 64, 0
2, 5179, Note_on_c, 0, 55, 0
2, 5180, Note_on_c, 0, 47, 0
2, 5180, Note_on_c, 0, 54, 0
2, 5181, Note_on_c, 0, 40, 0
2, 5253, Control_c, 0, 64, 127
2, 5320, Note_on_c, 0, 43, 51
2, 5460, Note_on_c, 0, 48, 60
2, 5460, Note_on_c, 0, 67, 0
2, 5460, Note_on_c, 0, 78, 90
2, 5468, Note_on_c, 0, 72, 0
2, 5471, Note_on_c, 0, 67, 72
2, 5479, Note_on_c, 0, 72, 52
2, 5609, Note_on_c, 0, 50, 46
2, 5742, Note_on_c, 0, 76, 98
2, 5744, Note_on_c, 0, 67, 0
2, 5744, Note_on_c, 0, 72, 0
2, 5748, Note_on_c, 0, 52, 80
2, 5748, Note_on_c, 0, 72, 77
2, 5748, Note_on_c, 0, 67, 83
2, 5882, Note_on_c, 0, 48, 0
2, 5894, Note_on_c, 0, 48, 61
2, 6025, Note_on_c, 0, 60, 73
2, 6169, Note_on_c, 0, 55, 62
2, 6332, Control_c, 0, 64, 0
2, 6332, Note_on_c, 0, 38, 93
2, 6339, Note_on_c, 0, 74, 101
2, 6340, Note_on_c, 0, 69, 85
2, 6342, Note_on_c, 0, 43, 0
2, 6342, Note_on_c, 0, 66, 78
2, 6345, Note_on_c, 0, 60, 0
2, 6346, Note_on_c, 0, 72, 0
2, 6346, Note_on_c, 0, 78, 0
2, 6346, Note_on_c, 0, 50, 0
2, 6347, Note_on_c, 0, 52, 0
2, 6347, Note_on_c, 0, 67, 0
2, 6347, Note_on_c, 0, 76, 0
2, 6347, Note_on_c, 0, 48, 0
2, 6348, Note_on_c, 0, 55, 0
2, 6359, Note_on_c, 0, 79, 0
2, 6374, Note_on_c, 0, 36, 0
2, 6428, Control_c, 0, 64, 127
2, 6476, Note_on_c, 0, 45, 56
2, 6611, Note_on_c, 0, 50, 66
2, 6623, Note_on_c, 0, 76, 93
2, 6761, Note_on_c, 0, 54, 62
2, 6888, Note_on_c, 0, 50, 0
2, 6888, Note_on_c, 0, 66, 0
2, 6888, Note_on_c, 0, 69, 0
2, 6888, Note_on_c, 0, 74, 0
2, 6895, Note_on_c, 0, 74, 94
2, 6899, Note_on_c, 0, 50, 72
2, 6899, Note_on_c, 0, 69, 70
2, 6900, Note_on_c, 0, 66, 77
2, 7046, Note_on_c, 0, 62, 73
2, 7196, Note_on_c, 0, 66, 0
2, 7196, Note_on_c, 0, 69, 0
2, 7200, Note_on_c, 0, 69, 79
2, 7200, Note_on_c, 0, 66, 86
2, 7207, Note_on_c, 0, 57, 78
2, 7334, Note_on_c, 0, 54, 0
2, 7339, Note_on_c, 0, 54, 60
2, 7469, Control_c, 0, 64, 0
2, 7475, Note_on_c, 0, 45, 0
2, 7476, Note_on_c, 0, 76, 0
2, 7476, Note_on_c, 0, 54, 0
2, 7476, Note_on_c, 0, 57, 0
2, 7476, Note_on_c, 0, 69, 0
2, 7476, Note_on_c, 0, 66, 0
2, 7476, Note_on_c, 0, 74, 0
2, 7488, Note_on_c, 0, 38, 0
2, 7488, Note_on_c, 0, 62, 0
2, 7490, Note_on_c, 0, 43, 83
2, 7490, Note_on_c, 0, 71, 93
2, 7493, Note_on_c, 0, 62, 80
2, 7493, Note_on_c, 0, 67, 86
2, 7503, Note_on_c, 0, 50, 0
2, 7564, Control_c, 0, 64, 127
2, 7639, Note_on_c, 0, 55, 65
2, 7764, Note_on_c, 0, 43, 0
2, 7772, Note_on_c, 0, 55, 0
2, 7774, Note_on_c, 0, 43, 51
2, 7775, Note_on_c, 0, 72, 95
2, 7780, Note_on_c, 0, 55, 48
2, 7921, Note_on_c, 0, 50, 63
2, 8032, Control_c, 0, 64, 0
2, 8043, Note_on_c, 0, 71, 0
2, 8043, Note_on_c, 0, 67, 0
2, 8044, Note_on_c, 0, 50, 0
2, 8045, Note_on_c, 0, 43, 0
2, 8048, Note_on_c, 0, 72, 0
2, 8056, Note_on_c, 0, 62, 0
2, 8060, Note_on_c, 0, 69, 81
2, 8061, Note_on_c, 0, 42, 66
2, 8064, Note_on_c, 0, 66, 76
2, 8065, Note_on_c, 0, 62, 69
2, 8133, Note_on_c, 0, 55, 0
2, 8133, Control_c, 0, 64, 127
2, 8199, Note_on_c, 0, 57, 74
2, 8345, Note_on_c, 0, 71, 90
2, 8601, Note_on_c, 0, 42, 0
2, 8605, Note_on_c, 0, 69, 0
2, 8606, Note_on_c, 0, 62, 0
2, 8606, Note_on_c, 0, 57, 0
2, 8606, Note_on_c, 0, 66, 0
2, 8607, Control_c, 0, 64, 0
2, 8643, Note_on_c, 0, 40, 83
2, 8644, Note_on_c, 0, 67, 78
2, 8646, Note_on_c, 0, 59, 73
2, 8650, Note_on_c, 0, 64, 65
2, 8709, Control_c, 0, 64, 127
2, 8791, Note_on_c, 0, 47, 72
2, 8936, Note_on_c, 0, 52, 75
2, 9200, Note_on_c, 0, 71, 0
2, 9205, Note_on_c, 0, 55, 70
2, 9210, Note_on_c, 0, 71, 88
2, 9223, Note_on_c, 0, 59, 0
2, 9223, Note_on_c, 0, 64, 0
2, 9223, Note_on_c, 0, 67, 0
2, 9227, Note_on_c, 0, 67, 73
2, 9228, Note_on_c, 0, 59, 59
2, 9230, Note_on_c, 0, 64, 67
2, 9346, Note_on_c, 0, 52, 0
2, 9351, Note_on_c, 0, 52, 69
2, 9484, Note_on_c, 0, 59, 0
2, 9496, Note_on_c, 0, 59, 70
2, 9615, Note_on_c, 0, 55, 0
2, 9620, Note_on_c, 0, 55, 42
2, 9776, Note_on_c, 0, 40, 0
2, 9776, Note_on_c, 0, 64, 0
2, 9776, Note_on_c, 0, 67, 0
2, 9780, Note_on_c, 0, 59, 0
2, 9780, Note_on_c, 0, 52, 0
2, 9780, Note_on_c, 0, 47, 0
2, 9780, Control_c, 0, 64, 0
2, 9780, Note_on_c, 0, 55, 0
2, 9781, Note_on_c, 0, 36, 65
2, 9781, Note_on_c, 0, 67, 68
2, 9786, Note_on_c, 0, 64, 60
2, 9788, Note_on_c, 0, 62, 53
2, 9861, Control_c, 0, 64, 127
2, 9927, Note_on_c, 0, 43, 47
2, 10049, Note_on_c, 0, 48, 59
2, 10192, Note_on_c, 0, 50, 60
2, 10337, Note_on_c, 0, 67, 0
2, 10341, Note_on_c, 0, 76, 96
2, 10344, Note_on_c, 0, 64, 0
2, 10348, Note_on_c, 0, 67, 79
2, 10348, Note_on_c, 0, 52, 76
2, 10354, Note_on_c, 0, 64, 80
2, 10494, Note_on_c, 0, 55, 52
2, 10918, Note_on_c, 0, 74, 86
2, 10919, Control_c, 0, 64, 0
2, 10920, Note_on_c, 0, 38, 54
2, 10925, Note_on_c, 0, 43, 0
2, 10927, Note_on_c, 0, 50, 0
2, 10927, Note_on_c, 0, 62, 0
2, 10928, Note_on_c, 0, 48, 0
2, 10929, Note_on_c, 0, 64, 0
2, 10929, Note_on_c, 0, 55, 0
2, 10929, Note_on_c, 0, 52, 0
2, 10930, Note_on_c, 0, 76, 0
2, 10936, Note_on_c, 0, 36, 0
2, 10936, Note_on_c, 0, 67, 0
2, 10936, Note_on_c, 0, 71, 0
2, 10941, Note_on_c, 0, 67, 53
2, 11051, Control_c, 0, 64, 127
2, 11190, Note_on_c, 0, 45, 44
2, 11334, Note_on_c, 0, 50, 55
2, 11637, Note_on_c, 0, 55, 48
2, 11786, Note_on_c, 0, 57, 52
2, 11942, Note_on_c, 0, 50, 0
2, 11948, Note_on_c, 0, 50, 34
2, 12080, Note_on_c, 0, 38, 0
2, 12096, Note_on_c, 0, 50, 0
2, 12099, Control_c, 0, 64, 0
2, 12106, Note_on_c, 0, 50, 32
2, 12107, Note_on_c, 0, 55, 0
2, 12113, Note_on_c, 0, 45, 0
2, 12226, Control_c, 0, 64, 127
2, 13294, Note_on_c, 0, 74, 0
2, 13298, Note_on_c, 0, 74, 49
2, 13301, Note_on_c, 0, 67, 0
2, 13303, Note_on_c, 0, 71, 48
2, 13306, Note_on_c, 0, 67, 39
2, 13310, Note_on_c, 0, 52, 37
2, 13345, Control_c, 0, 64, 0
2, 13350, Note_on_c, 0, 57, 0
2, 13440, Control_c, 0, 64, 127
2, 13547, Note_on_c, 0, 50, 0
2, 13629, Note_on_c, 0, 79, 56
2, 13658, Note_on_c, 0, 69, 36
2, 13758, Note_on_c, 0, 78, 57
2, 14046, Note_on_c, 0, 74, 0
2, 14050, Note_on_c, 0, 74, 57
2, 14323, Note_on_c, 0, 74, 0
2, 14333, Note_on_c, 0, 74, 57
2, 14353, Note_on_c, 0, 69, 0
2, 14362, Note_on_c, 0, 69, 43
2, 14469, Note_on_c, 0, 67, 0
2, 14477, Note_on_c, 0, 59, 50
2, 14480, Note_on_c, 0, 67, 43
2, 14619, Note_on_c, 0, 62, 48
2, 14753, Note_on_c, 0, 79, 0
2, 14757, Note_on_c, 0, 79, 67
2, 14776, Note_on_c, 0, 71, 0
2, 14784, Note_on_c, 0, 71, 54
2, 14899, Note_on_c, 0, 67, 0
2, 14899, Note_on_c, 0, 78, 0
2, 14906, Note_on_c, 0, 78, 61
2, 14908, Note_on_c, 0, 67, 49
2, 15168, Note_on_c, 0, 74, 0
2, 15177, Note_on_c, 0, 74, 63
2, 15298, Note_on_c, 0, 62, 0
2, 15304, Note_on_c, 0, 62, 53
2, 15452, Note_on_c, 0, 74, 0
2, 15460, Note_on_c, 0, 74, 65
2, 15608, Note_on_c, 0, 60, 48
2, 15617, Note_on_c, 0, 69, 0
2, 15617, Note_on_c, 0, 59, 0
2, 15617, Note_on_c, 0, 71, 0
2, 15617, Note_on_c, 0, 78, 0
2, 15618, Note_on_c, 0, 55, 34
2, 15618, Note_on_c, 0, 79, 0
2, 15619, Control_c, 0, 64, 0
2, 15636, Note_on_c, 0, 52, 0
2, 15642, Note_on_c, 0, 52, 35
2, 15728, Control_c, 0, 64, 127
2, 15886, Note_on_c, 0, 79, 69
2, 15989, Note_on_c, 0, 62, 0
2, 16052, Note_on_c, 0, 78, 68
2, 16458, Note_on_c, 0, 74, 0
2, 16464, Note_on_c, 0, 74, 59
2, 16588, Note_on_c, 0, 74, 0
2, 16597, Note_on_c, 0, 74, 60
2, 16727, Note_on_c, 0, 60, 0
2, 16736, Note_on_c, 0, 60, 50
2, 16768, Note_on_c, 0, 66, 43
2, 16907, Note_on_c, 0, 72, 52
2, 17080, Note_on_c, 0, 72, 0
2, 17086, Note_on_c, 0, 72, 62
2, 17210, Note_on_c, 0, 74, 0
2, 17215, Note_on_c, 0, 74, 60
2, 17472, Note_on_c, 0, 66, 0
2, 17477, Note_on_c, 0, 66, 51
2, 17594, Note_on_c, 0, 60, 0
2, 17602, Note_on_c, 0, 60, 53
2, 17768, Note_on_c, 0, 57, 55
2, 17879, Note_on_c, 0, 67, 0
2, 17894, Note_on_c, 0, 52, 0
2, 17894, Note_on_c, 0, 74, 0
2, 17902, Note_on_c, 0, 74, 64
2, 17903, Note_on_c, 0, 52, 47
2, 17911, Note_on_c, 0, 66, 0
2, 17911, Note_on_c, 0, 79, 0
2, 17912, Note_on_c, 0, 78, 0
2, 17912, Note_on_c, 0, 57, 0
2, 17912, Note_on_c, 0, 55, 0
2, 17913, Note_on_c, 0, 60, 0
2, 17913, Control_c, 0, 64, 0
2, 17917, Note_on_c, 0, 72, 0
2, 17923, Note_on_c, 0, 67, 50
2, 17923, Note_on_c, 0, 72, 60
2, 17927, Note_on_c, 0, 64, 47
2, 18009, Control_c, 0, 64, 127
2, 18201, Note_on_c, 0, 79, 82
2, 18349, Note_on_c, 0, 78, 72
2, 18616, Note_on_c, 0, 74, 0
2, 18622, Note_on_c, 0, 74, 76
2, 18757, Note_on_c, 0, 59, 55
2, 18892, Note_on_c, 0, 74, 0
2, 18897, Note_on_c, 0, 74, 68
2, 18923, Note_on_c, 0, 72, 0
2, 18929, Note_on_c, 0, 72, 28
2, 19038, Note_on_c, 0, 67, 0
2, 19048, Note_on_c, 0, 67, 67
2, 19074, Note_on_c, 0, 71, 58
2, 19175, Note_on_c, 0, 62, 60
2, 19192, Note_on_c, 0, 64, 0
2, 19276, Note_on_c, 0, 79, 0
2, 19288, Note_on_c, 0, 79, 80
2, 19438, Note_on_c, 0, 78, 0
2, 19449, Note_on_c, 0, 78, 77
2, 19568, Note_on_c, 0, 62, 0
2, 19579, Note_on_c, 0, 62, 67
2, 19722, Note_on_c, 0, 79, 0
2, 19731, Note_on_c, 0, 79, 84
2, 19865, Note_on_c, 0, 55, 51
2, 20012, Note_on_c, 0, 81, 80
2, 20021, Note_on_c, 0, 72, 0
2, 20031, Note_on_c, 0, 72, 67
2, 20037, Note_on_c, 0, 76, 60
2, 20075, Note_on_c, 0, 67, 0
2, 20075, Note_on_c, 0, 71, 0
2, 20076, Note_on_c, 0, 62, 0
2, 20077, Note_on_c, 0, 78, 0
2, 20077, Note_on_c, 0, 59, 0
2, 20077, Note_on_c, 0, 79, 0
2, 20077, Note_on_c, 0, 55, 0
2, 20078, Note_on_c, 0, 74, 0
2, 20081, Control_c, 0, 64, 0
2, 20090, Note_on_c, 0, 52, 0
2, 20144, Control_c, 0, 64, 127
2, 20160, Note_on_c, 0, 64, 55
2, 20161, Note_on_c, 0, 48, 50
2, 20428, Note_on_c, 0, 55, 57
2, 20497, Note_on_c, 0, 48, 0
2, 20498, Note_on_c, 0, 64, 0
2, 20500, Note_on_c, 0, 55, 0
2, 20501, Note_on_c, 0, 76, 0
2, 20501, Control_c, 0, 64, 0
2, 20520, Note_on_c, 0, 72, 0
2, 20577, Note_on_c, 0, 50, 76
2, 20578, Note_on_c, 0, 74, 85
2, 20596, Note_on_c, 0, 69, 59
2, 20705, Note_on_c, 0, 74, 0
2, 20711, Note_on_c, 0, 74, 80
2, 20841, Note_on_c, 0, 72, 82
2, 20848, Note_on_c, 0, 57, 65
2, 20928, Note_on_c, 0, 50, 0
2, 20961, Note_on_c, 0, 57, 0
2, 20962, Note_on_c, 0, 72, 0
2, 20974, Note_on_c, 0, 69, 0
2, 20983, Note_on_c, 0, 71, 77
2, 20985, Note_on_c, 0, 62, 55
2, 21012, Note_on_c, 0, 74, 0
2, 21025, Note_on_c, 0, 71, 0
2, 21027, Note_on_c, 0, 81, 0
2, 21043, Note_on_c, 0, 62, 0
2, 21118, Note_on_c, 0, 71, 82
2, 21120, Note_on_c, 0, 52, 83
2, 21140, Note_on_c, 0, 69, 62
2, 21143, Control_c, 0, 64, 127
2, 21401, Note_on_c, 0, 76, 83
2, 21534, Note_on_c, 0, 76, 0
2, 21539, Note_on_c, 0, 76, 77
2, 21665, Note_on_c, 0, 52, 0
2, 21672, Note_on_c, 0, 52, 70
2, 21800, Note_on_c, 0, 64, 77
2, 21939, Note_on_c, 0, 59, 75
2, 22065, Note_on_c, 0, 55, 61
2, 22114, Note_on_c, 0, 47, 67
2, 22182, Note_on_c, 0, 71, 0
2, 22182, Note_on_c, 0, 69, 0
2, 22182, Note_on_c, 0, 52, 0
2, 22182, Note_on_c, 0, 64, 0
2, 22182, Note_on_c, 0, 59, 0
2, 22183, Note_on_c, 0, 76, 0
2, 22183, Note_on_c, 0, 47, 0
2, 22183, Note_on_c, 0, 55, 0
2, 22183, Control_c, 0, 64, 0
2, 22221, Note_on_c, 0, 62, 99
2, 22223, Note_on_c, 0, 59, 87
2, 22225, Note_on_c, 0, 64, 86
2, 22225, Note_on_c, 0, 40, 87
2, 22226, Note_on_c, 0, 52, 94
2, 22256, Control_c, 0, 64, 127
2, 22497, Note_on_c, 0, 47, 70
2, 22544, Note_on_c, 0, 62, 0
2, 22545, Note_on_c, 0, 52, 0
2, 22545, Control_c, 0, 64, 0
2, 22545, Note_on_c, 0, 47, 0
2, 22556, Note_on_c, 0, 40, 0
2, 22563, Note_on_c, 0, 59, 0
2, 22571, Note_on_c, 0, 64, 0
2, 22613, Note_on_c, 0, 67, 94
2, 22615, Note_on_c, 0, 59, 88
2, 22616, Note_on_c, 0, 62, 83
2, 22620, Note_on_c, 0, 52, 83
2, 22672, Note_on_c, 0, 62, 0
2, 22674, Note_on_c, 0, 59, 0
2, 22675, Note_on_c, 0, 52, 0
2, 22727, Note_on_c, 0, 67, 0
2, 22750, Note_on_c, 0, 66, 92
2, 22757, Note_on_c, 0, 40, 78
2, 22792, Note_on_c, 0, 40, 0
2, 22799, Note_on_c, 0, 66, 0
2, 22874, Note_on_c, 0, 55, 87
2, 22925, Note_on_c, 0, 55, 0
2, 23009, Note_on_c, 0, 40, 79
2, 23012, Note_on_c, 0, 62, 97
2, 23015, Note_on_c, 0, 59, 84
2, 23053, Note_on_c, 0, 59, 0
2, 23059, Note_on_c, 0, 62, 0
2, 23143, Note_on_c, 0, 47, 78
2, 23166, Note_on_c, 0, 40, 0
2, 23181, Note_on_c, 0, 47, 0
2, 23296, Note_on_c, 0, 62, 100
2, 23298, Note_on_c, 0, 60, 89
2, 23300, Note_on_c, 0, 48, 84
2, 23308, Note_on_c, 0, 36, 77
2, 23309, Note_on_c, 0, 55, 75
2, 23314, Note_on_c, 0, 38, 64
2, 23314, Note_on_c, 0, 50, 65
2, 23331, Control_c, 0, 64, 127
2, 23569, Note_on_c, 0, 48, 0
2, 23576, Note_on_c, 0, 48, 65
2, 23608, Note_on_c, 0, 50, 0
2, 23712, Note_on_c, 0, 52, 87
2, 23714, Note_on_c, 0, 67, 95
2, 23723, Note_on_c, 0, 60, 0
2, 23723, Note_on_c, 0, 62, 0
2, 23732, Note_on_c, 0, 62, 68
2, 23734, Note_on_c, 0, 60, 78
2, 23751, Note_on_c, 0, 36, 0
2, 23751, Note_on_c, 0, 55, 0
2, 23755, Note_on_c, 0, 48, 0
2, 23760, Note_on_c, 0, 62, 0
2, 23761, Note_on_c, 0, 38, 0
2, 23763, Note_on_c, 0, 52, 0
2, 23764, Note_on_c, 0, 67, 0
2, 23765, Control_c, 0, 64, 0
2, 23792, Note_on_c, 0, 60, 0
2, 23848, Note_on_c, 0, 48, 79
2, 23850, Note_on_c, 0, 66, 91
2, 23907, Control_c, 0, 64, 127
2, 23979, Note_on_c, 0, 52, 90
2, 23979, Note_on_c, 0, 55, 90
2, 23992, Note_on_c, 0, 48, 0
2, 24125, Note_on_c, 0, 62, 87
2, 24125, Note_on_c, 0, 36, 82
2, 24234, Control_c, 0, 64, 0
2, 24235, Note_on_c, 0, 55, 0
2, 24235, Note_on_c, 0, 66, 0
2, 24237, Note_on_c, 0, 52, 0
2, 24239, Note_on_c, 0, 62, 0
2, 24242, Note_on_c, 0, 36, 0
2, 24246, Note_on_c, 0, 48, 67
2, 24299, Note_on_c, 0, 48, 0
2, 24412, Note_on_c, 0, 62, 99
2, 24418, Note_on_c, 0, 59, 93
2, 24418, Note_on_c, 0, 31, 85
2, 24421, Note_on_c, 0, 43, 82
2, 24445, Control_c, 0, 64, 127
2, 24455, Note_on_c, 0, 43, 0
2, 24693, Note_on_c, 0, 43, 70
2, 24770, Control_c, 0, 64, 0
2, 24791, Note_on_c, 0, 59, 0
2, 24806, Note_on_c, 0, 31, 0
2, 24814, Note_on_c, 0, 62, 0
2, 24816, Note_on_c, 0, 67, 99
2, 24820, Note_on_c, 0, 59, 88
2, 24821, Note_on_c, 0, 62, 85
2, 24824, Note_on_c, 0, 55, 81
2, 24863, Note_on_c, 0, 67, 0
2, 24863, Note_on_c, 0, 62, 0
2, 24863, Note_on_c, 0, 59, 0
2, 24890, Note_on_c, 0, 43, 0
2, 24936, Control_c, 0, 64, 127
2, 24953, Note_on_c, 0, 66, 96
2, 24954, Note_on_c, 0, 50, 76
2, 24975, Note_on_c, 0, 55, 0
2, 25079, Note_on_c, 0, 59, 86
2, 25134, Note_on_c, 0, 50, 0
2, 25135, Control_c, 0, 64, 0
2, 25139, Note_on_c, 0, 59, 0
2, 25139, Note_on_c, 0, 66, 0
2, 25222, Note_on_c, 0, 69, 91
2, 25222, Note_on_c, 0, 43, 81
2, 25297, Control_c, 0, 64, 127
2, 25352, Note_on_c, 0, 43, 0
2, 25352, Control_c, 0, 64, 0
2, 25354, Note_on_c, 0, 50, 74
2, 25386, Note_on_c, 0, 50, 0
2, 25420, Note_on_c, 0, 69, 0
2, 25493, Note_on_c, 0, 62, 99
2, 25494, Note_on_c, 0, 57, 93
2, 25496, Note_on_c, 0, 50, 87
2, 25499, Note_on_c, 0, 38, 91
2, 25543, Control_c, 0, 64, 127
2, 25773, Note_on_c, 0, 45, 62
2, 25774, Note_on_c, 0, 59, 86
2, 25904, Note_on_c, 0, 50, 0
2, 25909, Note_on_c, 0, 60, 86
2, 25913, Note_on_c, 0, 50, 77
2, 26019, Note_on_c, 0, 62, 0
2, 26031, Note_on_c, 0, 62, 94
2, 26050, Note_on_c, 0, 50, 0
2, 26055, Note_on_c, 0, 50, 59
2, 26158, Note_on_c, 0, 57, 0
2, 26164, Note_on_c, 0, 57, 91
2, 26307, Note_on_c, 0, 54, 74
2, 26419, Note_on_c, 0, 50, 0
2, 26428, Note_on_c, 0, 50, 67
2, 26490, Note_on_c, 0, 45, 0
2, 26491, Note_on_c, 0, 54, 0
2, 26491, Note_on_c, 0, 60, 0
2, 26492, Note_on_c, 0, 50, 0
2, 26492, Note_on_c, 0, 38, 0
2, 26492, Note_on_c, 0, 57, 0
2, 26493, Control_c, 0, 64, 0
2, 26511, Note_on_c, 0, 59, 0
2, 26511, Note_on_c, 0, 62, 0
2, 26585, Note_on_c, 0, 62, 99
2, 26587, Note_on_c, 0, 52, 94
2, 26590, Note_on_c, 0, 59, 92
2, 26590, Note_on_c, 0, 40, 85
2, 26618, Control_c, 0, 64, 127
2, 26872, Note_on_c, 0, 40, 0
2, 26872, Note_on_c, 0, 52, 0
2, 26876, Note_on_c, 0, 40, 68
2, 26879, Note_on_c, 0, 52, 69
2, 26918, Note_on_c, 0, 59, 0
2, 26925, Note_on_c, 0, 59, 69
2, 26941, Note_on_c, 0, 62, 0
2, 26949, Note_on_c, 0, 62, 71
2, 26987, Note_on_c, 0, 52, 0
2, 26991, Note_on_c, 0, 52, 83
2, 26991, Note_on_c, 0, 67, 96
2, 27021, Control_c, 0, 64, 0
2, 27021, Note_on_c, 0, 40, 0
2, 27024, Note_on_c, 0, 62, 0
2, 27031, Note_on_c, 0, 52, 0
2, 27038, Note_on_c, 0, 67, 0
2, 27041, Note_on_c, 0, 59, 0
2, 27129, Note_on_c, 0, 66, 98
2, 27132, Note_on_c, 0, 47, 81
2, 27135, Note_on_c, 0, 57, 88
2, 27181, Note_on_c, 0, 57, 0
2, 27192, Note_on_c, 0, 47, 0
2, 27213, Note_on_c, 0, 66, 0
2, 27262, Note_on_c, 0, 55, 87
2, 27304, Note_on_c, 0, 55, 0
2, 27400, Note_on_c, 0, 62, 97
2, 27404, Note_on_c, 0, 40, 85
2, 27428, Note_on_c, 0, 57, 54
2, 27442, Note_on_c, 0, 62, 0
2, 27538, Note_on_c, 0, 47, 81
2, 27552, Note_on_c, 0, 40, 0
2, 27580, Note_on_c, 0, 47, 0
2, 27594, Note_on_c, 0, 57, 0
2, 27690, Note_on_c, 0, 62, 102
2, 27694, Note_on_c, 0, 57, 90
2, 27696, Note_on_c, 0, 55, 88
2, 27696, Note_on_c, 0, 48, 87
2, 27697, Note_on_c, 0, 36, 92
2, 27732, Control_c, 0, 64, 127
2, 27870, Note_on_c, 0, 36, 0
2, 27876, Note_on_c, 0, 36, 46
2, 27988, Note_on_c, 0, 43, 56
2, 28108, Note_on_c, 0, 62, 0
2, 28113, Note_on_c, 0, 67, 98
2, 28116, Note_on_c, 0, 55, 0
2, 28120, Note_on_c, 0, 62, 84
2, 28120, Note_on_c, 0, 60, 79
2, 28122, Note_on_c, 0, 55, 70
2, 28148, Note_on_c, 0, 57, 0
2, 28150, Note_on_c, 0, 43, 0
2, 28150, Note_on_c, 0, 36, 0
2, 28151, Note_on_c, 0, 62, 0
2, 28153, Note_on_c, 0, 48, 0
2, 28162, Control_c, 0, 64, 0
2, 28193, Note_on_c, 0, 55, 0
2, 28216, Note_on_c, 0, 60, 0
2, 28256, Note_on_c, 0, 48, 81
2, 28257, Note_on_c, 0, 66, 99
2, 28258, Note_on_c, 0, 60, 86
2, 28262, Control_c, 0, 64, 127
2, 28368, Note_on_c, 0, 55, 88
2, 28373, Note_on_c, 0, 52, 94
2, 28515, Note_on_c, 0, 67, 0
2, 28519, Note_on_c, 0, 67, 100
2, 28646, Note_on_c, 0, 48, 0
2, 28656, Note_on_c, 0, 48, 94
2, 28657, Note_on_c, 0, 36, 89
2, 28796, Note_on_c, 0, 69, 99
2, 28807, Note_on_c, 0, 66, 0
2, 28811, Note_on_c, 0, 66, 83
2, 28812, Note_on_c, 0, 62, 78
2, 28813, Note_on_c, 0, 57, 86
2, 28840, Control_c, 0, 64, 0
2, 28842, Note_on_c, 0, 36, 0
2, 28843, Note_on_c, 0, 67, 0
2, 28843, Note_on_c, 0, 48, 0
2, 28843, Note_on_c, 0, 55, 0
2, 28843, Note_on_c, 0, 52, 0
2, 28869, Note_on_c, 0, 60, 0
2, 28942, Note_on_c, 0, 38, 89
2, 28942, Note_on_c, 0, 50, 90
2, 28999, Control_c, 0, 64, 127
2, 29202, Note_on_c, 0, 45, 70
2, 29360, Note_on_c, 0, 50, 0
2, 29370, Note_on_c, 0, 50, 73
2, 29379, Note_on_c, 0, 59, 76
2, 29430, Note_on_c, 0, 60, 87
2, 29483, Note_on_c, 0, 62, 0
2, 29492, Note_on_c, 0, 62, 93
2, 29614, Note_on_c, 0, 60, 0
2, 29622, Note_on_c, 0, 60, 84
2, 29736, Note_on_c, 0, 59, 0
2, 29743, Note_on_c, 0, 59, 85
2, 29869, Control_c, 0, 64, 0
2, 29871, Note_on_c, 0, 45, 0
2, 29871, Note_on_c, 0, 62, 0
2, 29872, Note_on_c, 0, 38, 0
2, 29872, Note_on_c, 0, 69, 0
2, 29872, Note_on_c, 0, 50, 0
2, 29874, Note_on_c, 0, 59, 0
2, 29890, Note_on_c, 0, 57, 0
2, 29890, Note_on_c, 0, 60, 0
2, 29890, Note_on_c, 0, 66, 0
2, 29893, Note_on_c, 0, 72, 103
2, 29900, Note_on_c, 0, 60, 95
2, 29982, Control_c, 0, 64, 127
2, 30048, Note_on_c, 0, 38, 73
2, 30049, Note_on_c, 0, 50, 74
2, 30176, Note_on_c, 0, 71, 95
2, 30305, Note_on_c, 0, 72, 0
2, 30309, Note_on_c, 0, 72, 95
2, 30425, Note_on_c, 0, 38, 0
2, 30425, Note_on_c, 0, 50, 0
2, 30425, Note_on_c, 0, 72, 0
2, 30426, Note_on_c, 0, 71, 0
2, 30431, Control_c, 0, 64, 0
2, 30450, Note_on_c, 0, 69, 93
2, 30458, Note_on_c, 0, 60, 0
2, 30462, Note_on_c, 0, 57, 74
2, 30463, Note_on_c, 0, 60, 77
2, 30466, Note_on_c, 0, 62, 69
2, 30468, Note_on_c, 0, 66, 82
2, 30470, Note_on_c, 0, 54, 63
2, 30551, Control_c, 0, 64, 127
2, 30738, Note_on_c, 0, 50, 55
2, 30865, Note_on_c, 0, 60, 0
2, 30871, Note_on_c, 0, 60, 56
2, 31143, Note_on_c, 0, 48, 55
2, 31145, Note_on_c, 0, 64, 56
2, 31146, Control_c, 0, 64, 0
2, 31151, Note_on_c, 0, 66, 0
2, 31151, Note_on_c, 0, 62, 0
2, 31151, Note_on_c, 0, 69, 0
2, 31151, Note_on_c, 0, 57, 0
2, 31151, Note_on_c, 0, 54, 0
2, 31152, Note_on_c, 0, 50, 0
2, 31152, Note_on_c, 0, 60, 0
2, 31242, Control_c, 0, 64, 127
2, 31291, Note_on_c, 0, 55, 48
2, 31398, Note_on_c, 0, 60, 38
2, 31438, Note_on_c, 0, 78, 82
2, 31468, Note_on_c, 0, 72, 57
2, 31541, Note_on_c, 0, 64, 0
2, 31551, Note_on_c, 0, 64, 63
2, 31710, Note_on_c, 0, 72, 0
2, 31718, Note_on_c, 0, 79, 89
2, 31720, Note_on_c, 0, 72, 81
2, 31738, Note_on_c, 0, 76, 48
2, 31864, Note_on_c, 0, 55, 0
2, 31869, Note_on_c, 0, 55, 50
2, 31987, Note_on_c, 0, 60, 0
2, 31990, Note_on_c, 0, 62, 71
2, 31997, Note_on_c, 0, 60, 56
2, 32125, Note_on_c, 0, 48, 0
2, 32125, Note_on_c, 0, 62, 0
2, 32128, Control_c, 0, 64, 0
2, 32131, Note_on_c, 0, 66, 86
2, 32131, Note_on_c, 0, 64, 0
2, 32133, Note_on_c, 0, 55, 0
2, 32135, Note_on_c, 0, 48, 63
2, 32135, Note_on_c, 0, 62, 67
2, 32156, Note_on_c, 0, 72, 0
2, 32240, Control_c, 0, 64, 127
2, 32419, Note_on_c, 0, 67, 88
2, 32567, Note_on_c, 0, 55, 59
2, 32703, Note_on_c, 0, 74, 70
2, 32824, Note_on_c, 0, 78, 0
2, 32832, Note_on_c, 0, 78, 91
2, 32855, Note_on_c, 0, 74, 0
2, 32864, Note_on_c, 0, 74, 65
2, 32954, Note_on_c, 0, 48, 0
2, 32964, Note_on_c, 0, 48, 74
2, 33077, Note_on_c, 0, 48, 0
2, 33085, Note_on_c, 0, 76, 0
2, 33085, Note_on_c, 0, 79, 0
2, 33087, Note_on_c, 0, 48, 77
2, 33092, Note_on_c, 0, 79, 96
2, 33096, Note_on_c, 0, 76, 63
2, 33225, Note_on_c, 0, 50, 73
2, 33373, Note_on_c, 0, 40, 83
2, 33373, Note_on_c, 0, 52, 86
2, 33377, Note_on_c, 0, 60, 0
2, 33377, Note_on_c, 0, 66, 0
2, 33382, Control_c, 0, 64, 0
2, 33384, Note_on_c, 0, 50, 0
2, 33384, Note_on_c, 0, 74, 0
2, 33386, Note_on_c, 0, 67, 0
2, 33387, Note_on_c, 0, 78, 0
2, 33387, Note_on_c, 0, 48, 0
2, 33387, Note_on_c, 0, 55, 0
2, 33408, Note_on_c, 0, 62, 0
2, 33592, Control_c, 0, 64, 127
2, 33669, Note_on_c, 0, 66, 90
2, 33690, Note_on_c, 0, 62, 67
2, 33799, Note_on_c, 0, 52, 0
2, 33806, Note_on_c, 0, 52, 75
2, 33938, Note_on_c, 0, 67, 94
2, 34053, Note_on_c, 0, 79, 0
2, 34076, Note_on_c, 0, 59, 77
2, 34091, Note_on_c, 0, 76, 0
2, 34211, Note_on_c, 0, 74, 86
2, 34346, Control_c, 0, 64, 0
2, 34347, Note_on_c, 0, 62, 0
2, 34348, Note_on_c, 0, 66, 0
2, 34348, Note_on_c, 0, 67, 0
2, 34348, Note_on_c, 0, 59, 0
2, 34360, Note_on_c, 0, 40, 0
2, 34360, Note_on_c, 0, 52, 0
2, 34360, Note_on_c, 0, 74, 0
2, 34365, Note_on_c, 0, 78, 96
2, 34370, Note_on_c, 0, 69, 75
2, 34370, Note_on_c, 0, 52, 83
2, 34370, Note_on_c, 0, 74, 78
2, 34371, Note_on_c, 0, 40, 81
2, 34452, Control_c, 0, 64, 127
2, 34649, Note_on_c, 0, 79, 101
2, 34787, Note_on_c, 0, 47, 75
2, 34913, Note_on_c, 0, 52, 0
2, 34919, Note_on_c, 0, 62, 85
2, 34922, Note_on_c, 0, 52, 69
2, 35036, Note_on_c, 0, 69, 0
2, 35047, Note_on_c, 0, 69, 97
2, 35189, Note_on_c, 0, 52, 0
2, 35194, Note_on_c, 0, 52, 89
2, 35322, Note_on_c, 0, 67, 101
2, 35335, Note_on_c, 0, 59, 93
2, 35441, Note_on_c, 0, 55, 79
2, 35562, Control_c, 0, 64, 0
2, 35563, Note_on_c, 0, 69, 0
2, 35563, Note_on_c, 0, 78, 0
2, 35563, Note_on_c, 0, 74, 0
2, 35563, Note_on_c, 0, 79, 0
2, 35563, Note_on_c, 0, 62, 0
2, 35563, Note_on_c, 0, 47, 0
2, 35564, Note_on_c, 0, 59, 0
2, 35564, Note_on_c, 0, 52, 0
2, 35564, Note_on_c, 0, 55, 0
2, 35565, Note_on_c, 0, 40, 0
2, 35601, Note_on_c, 0, 57, 99
2, 35602, Note_on_c, 0, 45, 93
2, 35650, Control_c, 0, 64, 127
2, 35692, Note_on_c, 0, 62, 96
2, 35735, Note_on_c, 0, 45, 0
2, 35747, Note_on_c, 0, 64, 103
2, 35857, Note_on_c, 0, 62, 0
2, 35864, Note_on_c, 0, 62, 101
2, 35876, Control_c, 0, 64, 0
2, 35880, Note_on_c, 0, 57, 0
2, 35881, Note_on_c, 0, 64, 0
2, 35927, Note_on_c, 0, 62, 0
2, 36000, Note_on_c, 0, 71, 107
2, 36021, Note_on_c, 0, 64, 92
2, 36042, Control_c, 0, 64, 127
2, 36170, Note_on_c, 0, 64, 0
2, 36175, Control_c, 0, 64, 0
2, 36257, Note_on_c, 0, 67, 0
2, 36282, Note_on_c, 0, 64, 103
2, 36287, Note_on_c, 0, 45, 92
2, 36415, Note_on_c, 0, 52, 80
2, 36454, Note_on_c, 0, 45, 0
2, 36460, Note_on_c, 0, 52, 0
2, 36487, Note_on_c, 0, 64, 0
2, 36561, Note_on_c, 0, 66, 102
2, 36564, Note_on_c, 0, 47, 92
2, 36567, Note_on_c, 0, 62, 91
2, 36568, Note_on_c, 0, 57, 95
2, 36579, Note_on_c, 0, 71, 0
2, 36825, Control_c, 0, 64, 127
2, 36829, Note_on_c, 0, 67, 94
2, 36902, Control_c, 0, 64, 0
2, 36958, Note_on_c, 0, 69, 93
2, 36986, Control_c, 0, 64, 127
2, 37086, Note_on_c, 0, 62, 0
2, 37091, Note_on_c, 0, 62, 95
2, 37201, Note_on_c, 0, 57, 0
2, 37213, Note_on_c, 0, 57, 97
2, 37352, Note_on_c, 0, 54, 87
2, 37478, Note_on_c, 0, 47, 0
2, 37482, Note_on_c, 0, 47, 82
2, 37593, Note_on_c, 0, 54, 0
2, 37593, Note_on_c, 0, 62, 0
2, 37598, Note_on_c, 0, 54, 81
2, 37602, Note_on_c, 0, 62, 78
2, 37714, Note_on_c, 0, 66, 0
2, 37714, Note_on_c, 0, 67, 0
2, 37714, Note_on_c, 0, 47, 0
2, 37715, Note_on_c, 0, 69, 0
2, 37715, Note_on_c, 0, 54, 0
2, 37715, Control_c, 0, 64, 0
2, 37715, Note_on_c, 0, 62, 0
2, 37731, Note_on_c, 0, 57, 0
2, 37757, Note_on_c, 0, 74, 105
2, 37760, Note_on_c, 0, 64, 102
2, 37761, Note_on_c, 0, 67, 94
2, 37762, Note_on_c, 0, 48, 104
2, 37765, Note_on_c, 0, 36, 98
2, 37808, Control_c, 0, 64, 127
2, 37985, Note_on_c, 0, 72, 98
2, 38047, Note_on_c, 0, 43, 53
2, 38185, Note_on_c, 0, 43, 0
2, 38189, Control_c, 0, 64, 0
2, 38189, Note_on_c, 0, 74, 0
2, 38189, Note_on_c, 0, 67, 0
2, 38190, Note_on_c, 0, 72, 0
2, 38190, Note_on_c, 0, 64, 0
2, 38190, Note_on_c, 0, 48, 0
2, 38200, Note_on_c, 0, 36, 0
2, 38200, Note_on_c, 0, 71, 100
2, 38205, Note_on_c, 0, 61, 101
2, 38218, Note_on_c, 0, 37, 93
2, 38218, Note_on_c, 0, 49, 92
2, 38284, Control_c, 0, 64, 127
2, 38465, Note_on_c, 0, 69, 86
2, 38602, Note_on_c, 0, 67, 100
2, 38701, Note_on_c, 0, 61, 0
2, 38701, Note_on_c, 0, 71, 0
2, 38702, Note_on_c, 0, 67, 0
2, 38702, Control_c, 0, 64, 0
2, 38702, Note_on_c, 0, 49, 0
2, 38707, Note_on_c, 0, 37, 0
2, 38730, Note_on_c, 0, 69, 0
2, 38739, Note_on_c, 0, 69, 99
2, 38744, Note_on_c, 0, 62, 89
2, 38744, Note_on_c, 0, 66, 89
2, 38749, Note_on_c, 0, 38, 91
2, 38807, Control_c, 0, 64, 127
2, 39024, Note_on_c, 0, 45, 84
2, 39162, Note_on_c, 0, 50, 84
2, 39293, Note_on_c, 0, 54, 91
2, 39424, Note_on_c, 0, 57, 103
2, 39559, Note_on_c, 0, 38, 0
2, 39565, Note_on_c, 0, 38, 88
2, 39674, Note_on_c, 0, 50, 0
2, 39685, Note_on_c, 0, 50, 89
2, 39692, Note_on_c, 0, 59, 97
2, 39784, Note_on_c, 0, 50, 0
2, 39785, Note_on_c, 0, 69, 0
2, 39785, Note_on_c, 0, 62, 0
2, 39785, Note_on_c, 0, 45, 0
2, 39785, Note_on_c, 0, 66, 0
2, 39785, Note_on_c, 0, 54, 0
2, 39785, Note_on_c, 0, 57, 0
2, 39785, Note_on_c, 0, 38, 0
2, 39786, Note_on_c, 0, 59, 0
2, 39787, Control_c, 0, 64, 0
2, 39834, Note_on_c, 0, 71, 107
2, 39835, Note_on_c, 0, 59, 104
2, 39837, Note_on_c, 0, 47, 108
2, 39839, Note_on_c, 0, 35, 102
2, 39839, Note_on_c, 0, 66, 97
2, 39840, Note_on_c, 0, 63, 97
2, 39874, Note_on_c, 0, 59, 0
2, 39882, Control_c, 0, 64, 127
2, 40027, Note_on_c, 0, 59, 77
2, 40081, Note_on_c, 0, 63, 0
2, 40089, Note_on_c, 0, 63, 33
2, 40120, Note_on_c, 0, 66, 0
2, 40129, Note_on_c, 0, 66, 83
2, 40204, Note_on_c, 0, 71, 0
2, 40210, Note_on_c, 0, 71, 84
2, 40248, Note_on_c, 0, 75, 90
2, 40255, Note_on_c, 0, 78, 87
2, 40333, Note_on_c, 0, 83, 80
2, 40370, Note_on_c, 0, 87, 83
2, 40400, Note_on_c, 0, 90, 92
2, 40462, Note_on_c, 0, 95, 109
2, 40481, Note_on_c, 0, 59, 0
2, 40492, Note_on_c, 0, 59, 105
2, 40496, Note_on_c, 0, 63, 0
2, 40498, Note_on_c, 0, 51, 98
2, 40498, Note_on_c, 0, 54, 103
2, 40735, Note_on_c, 0, 47, 0
2, 40736, Note_on_c, 0, 54, 0
2, 40736, Note_on_c, 0, 78, 0
2, 40736, Control_c, 0, 64, 0
2, 40737, Note_on_c, 0, 51, 0
2, 40737, Note_on_c, 0, 75, 0
2, 40737, Note_on_c, 0, 71, 0
2, 40737, Note_on_c, 0, 87, 0
2, 40737, Note_on_c, 0, 59, 0
2, 40737, Note_on_c, 0, 66, 0
2, 40737, Note_on_c, 0, 90, 0
2, 40738, Note_on_c, 0, 83, 0
2, 40739, Note_on_c, 0, 95, 0
2, 40750, Note_on_c, 0, 35, 0
2, 40819, Control_c, 0, 64, 127
2, 40901, Note_on_c, 0, 78, 92
2, 41012, Control_c, 0, 64, 0
2, 41018, Note_on_c, 0, 78, 0
2, 41030, Note_on_c, 0, 61, 103
2, 41030, Note_on_c, 0, 54, 108
2, 41032, Note_on_c, 0, 42, 108
2, 41035, Note_on_c, 0, 49, 101
2, 41036, Note_on_c, 0, 69, 106
2, 41037, Note_on_c, 0, 81, 108
2, 41039, Note_on_c, 0, 73, 95
2, 41045, Note_on_c, 0, 78, 92
2, 41057, Control_c, 0, 64, 127
2, 41176, Note_on_c, 0, 80, 100
2, 41303, Note_on_c, 0, 69, 0
2, 41303, Note_on_c, 0, 81, 0
2, 41308, Note_on_c, 0, 69, 96
2, 41308, Note_on_c, 0, 81, 100
2, 41318, Note_on_c, 0, 78, 0
2, 41325, Note_on_c, 0, 78, 71
2, 41358, Note_on_c, 0, 73, 0
2, 41359, Note_on_c, 0, 80, 0
2, 41359, Note_on_c, 0, 42, 0
2, 41359, Note_on_c, 0, 49, 0
2, 41360, Note_on_c, 0, 81, 0
2, 41360, Control_c, 0, 64, 0
2, 41360, Note_on_c, 0, 54, 0
2, 41360, Note_on_c, 0, 78, 0
2, 41364, Note_on_c, 0, 61, 0
2, 41372, Note_on_c, 0, 69, 0
2, 41446, Note_on_c, 0, 66, 97
2, 41446, Note_on_c, 0, 61, 96
2, 41451, Note_on_c, 0, 83, 102
2, 41451, Note_on_c, 0, 57, 95
2, 41452, Note_on_c, 0, 71, 103
2, 41479, Control_c, 0, 64, 127
2, 41716, Note_on_c, 0, 85, 104
2, 41721, Note_on_c, 0, 73, 105
2, 41725, Note_on_c, 0, 42, 98
2, 41991, Note_on_c, 0, 78, 81
2, 42041, Note_on_c, 0, 80, 89
2, 42094, Control_c, 0, 64, 0
2, 42095, Note_on_c, 0, 42, 0
2, 42095, Note_on_c, 0, 66, 0
2, 42096, Note_on_c, 0, 71, 0
2, 42096, Note_on_c, 0, 85, 0
2, 42096, Note_on_c, 0, 83, 0
2, 42096, Note_on_c, 0, 73, 0
2, 42097, Note_on_c, 0, 78, 0
2, 42101, Note_on_c, 0, 57, 0
2, 42101, Note_on_c, 0, 61, 0
2, 42133, Note_on_c, 0, 50, 106
2, 42134, Note_on_c, 0, 38, 101
2, 42136, Note_on_c, 0, 81, 99
2, 42137, Note_on_c, 0, 69, 100
2, 42138, Note_on_c, 0, 74, 93
2, 42193, Control_c, 0, 64, 127
2, 42270, Note_on_c, 0, 80, 0
2, 42274, Note_on_c, 0, 68, 98
2, 42275, Note_on_c, 0, 80, 94
2, 42401, Note_on_c, 0, 81, 0
2, 42408, Note_on_c, 0, 69, 0
2, 42411, Note_on_c, 0, 81, 93
2, 42412, Note_on_c, 0, 69, 96
2, 42557, Note_on_c, 0, 83, 102
2, 42558, Note_on_c, 0, 62, 95
2, 42559, Note_on_c, 0, 71, 98
2, 42562, Note_on_c, 0, 50, 0
2, 42562, Note_on_c, 0, 80, 0
2, 42563, Note_on_c, 0, 76, 90
2, 42565, Note_on_c, 0, 54, 94
2, 42568, Note_on_c, 0, 50, 81
2, 42573, Note_on_c, 0, 80, 82
2, 42840, Note_on_c, 0, 85, 101
2, 42862, Note_on_c, 0, 38, 0
2, 42873, Note_on_c, 0, 38, 75
2, 42977, Note_on_c, 0, 50, 0
2, 42984, Note_on_c, 0, 50, 71
2, 43061, Note_on_c, 0, 76, 0
2, 43066, Note_on_c, 0, 45, 84
2, 43071, Note_on_c, 0, 76, 82
2, 43100, Note_on_c, 0, 80, 0
2, 43111, Note_on_c, 0, 80, 87
2, 43151, Note_on_c, 0, 45, 0
2, 43152, Note_on_c, 0, 68, 0
2, 43152, Note_on_c, 0, 69, 0
2, 43152, Note_on_c, 0, 62, 0
2, 43152, Note_on_c, 0, 71, 0
2, 43152, Note_on_c, 0, 81, 0
2, 43152, Note_on_c, 0, 54, 0
2, 43153, Note_on_c, 0, 74, 0
2, 43153, Note_on_c, 0, 83, 0
2, 43154, Note_on_c, 0, 38, 0
2, 43154, Note_on_c, 0, 85, 0
2, 43155, Note_on_c, 0, 76, 0
2, 43155, Note_on_c, 0, 80, 0
2, 43156, Control_c, 0, 64, 0
2, 43169, Note_on_c, 0, 50, 0
2, 43221, Note_on_c, 0, 85, 101
2, 43226, Note_on_c, 0, 40, 106
2, 43226, Note_on_c, 0, 52, 106
2, 43227, Note_on_c, 0, 76, 100
2, 43253, Control_c, 0, 64, 127
2, 43365, Note_on_c, 0, 83, 83
2, 43370, Note_on_c, 0, 81, 68
2, 43499, Note_on_c, 0, 83, 0
2, 43504, Note_on_c, 0, 83, 92
2, 43513, Note_on_c, 0, 71, 79
2, 43514, Note_on_c, 0, 76, 0
2, 43523, Note_on_c, 0, 76, 56
2, 43637, Note_on_c, 0, 71, 0
2, 43637, Note_on_c, 0, 76, 0
2, 43637, Note_on_c, 0, 83, 0
2, 43642, Note_on_c, 0, 64, 100
2, 43643, Note_on_c, 0, 71, 96
2, 43644, Note_on_c, 0, 83, 100
2, 43646, Note_on_c, 0, 76, 95
2, 43648, Note_on_c, 0, 59, 90
2, 43650, Note_on_c, 0, 56, 84
2, 43906, Note_on_c, 0, 40, 0
2, 43906, Note_on_c, 0, 81, 0
2, 43911, Note_on_c, 0, 40, 90
2, 43914, Note_on_c, 0, 81, 97
2, 44044, Note_on_c, 0, 52, 0
2, 44055, Note_on_c, 0, 52, 72
2, 44056, Note_on_c, 0, 80, 99
2, 44136, Note_on_c, 0, 47, 64
2, 44183, Note_on_c, 0, 76, 0
2, 44193, Note_on_c, 0, 76, 106
2, 44198, Note_on_c, 0, 71, 0
2, 44203, Note_on_c, 0, 71, 86
2, 44231, Note_on_c, 0, 85, 0
2, 44231, Note_on_c, 0, 40, 0
2, 44232, Note_on_c, 0, 52, 0
2, 44232, Note_on_c, 0, 56, 0
2, 44232, Note_on_c, 0, 64, 0
2, 44232, Note_on_c, 0, 59, 0
2, 44232, Note_on_c, 0, 83, 0
2, 44232, Note_on_c, 0, 80, 0
2, 44233, Note_on_c, 0, 81, 0
2, 44237, Control_c, 0, 64, 0
2, 44267, Note_on_c, 0, 47, 0
2, 44321, Control_c, 0, 64, 127
2, 44324, Note_on_c, 0, 57, 106
2, 44324, Note_on_c, 0, 45, 100
2, 44594, Note_on_c, 0, 86, 104
2, 44596, Note_on_c, 0, 74, 104
2, 44731, Note_on_c, 0, 52, 92
2, 44813, Note_on_c, 0, 74, 0
2, 44813, Note_on_c, 0, 86, 0
2, 44813, Note_on_c, 0, 57, 0
2, 44814, Note_on_c, 0, 52, 0
2, 44814, Note_on_c, 0, 45, 0
2, 44816, Control_c, 0, 64, 0
2, 44828, Note_on_c, 0, 71, 0
2, 44828, Note_on_c, 0, 76, 0
2, 44876, Note_on_c, 0, 85, 100
2, 44878, Note_on_c, 0, 73, 99
2, 44878, Note_on_c, 0, 76, 100
2, 44880, Note_on_c, 0, 44, 95
2, 44882, Note_on_c, 0, 56, 97
2, 44889, Control_c, 0, 64, 127
2, 45025, Note_on_c, 0, 52, 92
2, 45143, Note_on_c, 0, 56, 0
2, 45152, Note_on_c, 0, 56, 82
2, 45157, Note_on_c, 0, 83, 95
2, 45160, Note_on_c, 0, 71, 89
2, 45375, Control_c, 0, 64, 0
2, 45376, Note_on_c, 0, 44, 0
2, 45376, Note_on_c, 0, 85, 0
2, 45377, Note_on_c, 0, 52, 0
2, 45377, Note_on_c, 0, 76, 0
2, 45377, Note_on_c, 0, 83, 0
2, 45377, Note_on_c, 0, 71, 0
2, 45377, Note_on_c, 0, 56, 0
2, 45377, Note_on_c, 0, 73, 0
2, 45429, Note_on_c, 0, 50, 104
2, 45431, Note_on_c, 0, 38, 103
2, 45437, Note_on_c, 0, 69, 99
2, 45438, Note_on_c, 0, 78, 105
2, 45450, Control_c, 0, 64, 127
2, 45696, Note_on_c, 0, 78, 0
2, 45705, Note_on_c, 0, 78, 86
2, 45707, Note_on_c, 0, 85, 93
2, 45708, Note_on_c, 0, 73, 87
2, 45709, Note_on_c, 0, 54, 82
2, 45821, Control_c, 0, 64, 0
2, 45821, Note_on_c, 0, 38, 0
2, 45821, Note_on_c, 0, 50, 0
2, 45822, Note_on_c, 0, 73, 0
2, 45822, Note_on_c, 0, 85, 0
2, 45822, Note_on_c, 0, 78, 0
2, 45822, Note_on_c, 0, 54, 0
2, 45826, Note_on_c, 0, 69, 0
2, 45855, Note_on_c, 0, 83, 105
2, 45857, Note_on_c, 0, 52, 109
2, 45857, Note_on_c, 0, 71, 102
2, 45857, Note_on_c, 0, 76, 100
2, 45859, Note_on_c, 0, 40, 102
2, 45863, Note_on_c, 0, 80, 88
2, 45895, Control_c, 0, 64, 127
2, 46122, Note_on_c, 0, 81, 95
2, 46125, Note_on_c, 0, 69, 88
2, 46248, Note_on_c, 0, 80, 0
2, 46257, Note_on_c, 0, 80, 90
2, 46261, Note_on_c, 0, 68, 85
2, 46394, Note_on_c, 0, 77, 105
2, 46398, Note_on_c, 0, 65, 95
2, 46494, Note_on_c, 0, 40, 0
2, 46500, Note_on_c, 0, 52, 0
2, 46500, Control_c, 0, 64, 0
2, 46501, Note_on_c, 0, 83, 0
2, 46501, Note_on_c, 0, 81, 0
2, 46501, Note_on_c, 0, 71, 0
2, 46502, Note_on_c, 0, 69, 0
2, 46502, Note_on_c, 0, 68, 0
2, 46502, Note_on_c, 0, 65, 0
2, 46503, Note_on_c, 0, 76, 0
2, 46503, Note_on_c, 0, 80, 0
2, 46504, Note_on_c, 0, 77, 0
2, 46543, Note_on_c, 0, 53, 106
2, 46543, Note_on_c, 0, 41, 101
2, 46586, Control_c, 0, 64, 127
2, 46672, Note_on_c, 0, 80, 100
2, 46674, Note_on_c, 0, 68, 93
2, 46797, Note_on_c, 0, 49, 97
2, 46798, Note_on_c, 0, 37, 98
2, 46799, Note_on_c, 0, 83, 91
2, 46800, Note_on_c, 0, 71, 85
2, 46896, Note_on_c, 0, 41, 0
2, 46896, Note_on_c, 0, 80, 0
2, 46897, Note_on_c, 0, 68, 0
2, 46898, Note_on_c, 0, 37, 0
2, 46898, Note_on_c, 0, 53, 0
2, 46898, Note_on_c, 0, 49, 0
2, 46898, Note_on_c, 0, 71, 0
2, 46899, Control_c, 0, 64, 0
2, 46901, Note_on_c, 0, 83, 0
2, 46945, Note_on_c, 0, 81, 106
2, 46948, Note_on_c, 0, 42, 97
2, 46950, Note_on_c, 0, 54, 102
2, 46951, Note_on_c, 0, 69, 98
2, 46951, Note_on_c, 0, 73, 93
2, 46953, Note_on_c, 0, 78, 93
2, 46986, Control_c, 0, 64, 127
2, 47216, Note_on_c, 0, 54, 0
2, 47223, Note_on_c, 0, 54, 89
2, 47358, Note_on_c, 0, 66, 98
2, 47358, Note_on_c, 0, 61, 92
2, 47359, Note_on_c, 0, 57, 91
2, 47477, Note_on_c, 0, 73, 0
2, 47485, Note_on_c, 0, 73, 77
2, 47516, Note_on_c, 0, 78, 0
2, 47526, Note_on_c, 0, 78, 87
2, 47554, Note_on_c, 0, 81, 0
2, 47559, Note_on_c, 0, 81, 70
2, 47597, Note_on_c, 0, 42, 0
2, 47598, Note_on_c, 0, 73, 0
2, 47598, Note_on_c, 0, 69, 0
2, 47598, Note_on_c, 0, 54, 0
2, 47598, Note_on_c, 0, 66, 0
2, 47599, Note_on_c, 0, 81, 0
2, 47599, Note_on_c, 0, 78, 0
2, 47599, Note_on_c, 0, 57, 0
2, 47599, Note_on_c, 0, 61, 0
2, 47601, Control_c, 0, 64, 0
2, 47636, Note_on_c, 0, 47, 104
2, 47637, Note_on_c, 0, 35, 98
2, 47638, Note_on_c, 0, 85, 99
2, 47641, Note_on_c, 0, 78, 101
2, 47642, Note_on_c, 0, 74, 102
2, 47669, Control_c, 0, 64, 127
2, 47700, Note_on_c, 0, 35, 0
2, 47779, Note_on_c, 0, 83, 92
2, 47915, Note_on_c, 0, 74, 0
2, 47915, Note_on_c, 0, 78, 0
2, 47915, Note_on_c, 0, 85, 0
2, 47919, Note_on_c, 0, 85, 95
2, 47922, Note_on_c, 0, 74, 91
2, 47926, Note_on_c, 0, 81, 79
2, 47926, Note_on_c, 0, 78, 77
2, 48046, Note_on_c, 0, 83, 0
2, 48056, Note_on_c, 0, 83, 84
2, 48130, Note_on_c, 0, 47, 0
2, 48140, Note_on_c, 0, 47, 92
2, 48161, Note_on_c, 0, 74, 0
2, 48161, Note_on_c, 0, 78, 0
2, 48161, Note_on_c, 0, 85, 0
2, 48171, Note_on_c, 0, 85, 94
2, 48172, Note_on_c, 0, 78, 89
2, 48172, Note_on_c, 0, 74, 75
2, 48185, Note_on_c, 0, 86, 74
2, 48211, Note_on_c, 0, 59, 97
2, 48307, Note_on_c, 0, 74, 0
2, 48307, Note_on_c, 0, 86, 0
2, 48317, Note_on_c, 0, 86, 97
2, 48317, Note_on_c, 0, 74, 97
2, 48433, Note_on_c, 0, 50, 82
2, 48565, Note_on_c, 0, 81, 0
2, 48566, Control_c, 0, 64, 0
2, 48566, Note_on_c, 0, 47, 0
2, 48566, Note_on_c, 0, 50, 0
2, 48567, Note_on_c, 0, 59, 0
2, 48567, Note_on_c, 0, 86, 0
2, 48567, Note_on_c, 0, 85, 0
2, 48567, Note_on_c, 0, 78, 0
2, 48568, Note_on_c, 0, 74, 0
2, 48576, Note_on_c, 0, 83, 0
2, 48585, Note_on_c, 0, 83, 106
2, 48587, Note_on_c, 0, 49, 105
2, 48587, Note_on_c, 0, 71, 102
2, 48590, Note_on_c, 0, 80, 92
2, 48590, Note_on_c, 0, 77, 90
2, 48592, Note_on_c, 0, 37, 103
2, 48660, Control_c, 0, 64, 127
2, 48791, Note_on_c, 0, 37, 0
2, 48844, Note_on_c, 0, 49, 0
2, 48848, Note_on_c, 0, 49, 85
2, 48970, Note_on_c, 0, 53, 95
2, 49108, Note_on_c, 0, 56, 102
2, 49236, Note_on_c, 0, 59, 107
2, 49367, Note_on_c, 0, 49, 0
2, 49377, Note_on_c, 0, 49, 99
2, 49497, Note_on_c, 0, 53, 0
2, 49502, Note_on_c, 0, 53, 94
2, 49636, Note_on_c, 0, 78, 90
2, 49674, Note_on_c, 0, 80, 0
2, 49685, Note_on_c, 0, 80, 86
2, 49711, Note_on_c, 0, 71, 0
2, 49711, Note_on_c, 0, 83, 0
2, 49711, Note_on_c, 0, 56, 0
2, 49712, Note_on_c, 0, 59, 0
2, 49712, Note_on_c, 0, 53, 0
2, 49712, Note_on_c, 0, 49, 0
2, 49713, Note_on_c, 0, 77, 0
2, 49714, Control_c, 0, 64, 0
2, 49714, Note_on_c, 0, 78, 0
2, 49743, Note_on_c, 0, 80, 0
2, 49778, Note_on_c, 0, 42, 106
2, 49781, Note_on_c, 0, 81, 105
2, 49782, Note_on_c, 0, 54, 104
2, 49784, Note_on_c, 0, 69, 107
2, 49785, Note_on_c, 0, 73, 98
2, 49812, Control_c, 0, 64, 127
2, 49924, Note_on_c, 0, 80, 94
2, 49954, Note_on_c, 0, 78, 73
2, 50050, Note_on_c, 0, 81, 0
2, 50059, Note_on_c, 0, 81, 101
2, 50067, Note_on_c, 0, 57, 85
2, 50195, Note_on_c, 0, 61, 98
2, 50196, Note_on_c, 0, 54, 0
2, 50199, Note_on_c, 0, 66, 92
2, 50200, Note_on_c, 0, 83, 99
2, 50201, Note_on_c, 0, 71, 97
2, 50203, Note_on_c, 0, 54, 93
2, 50342, Note_on_c, 0, 42, 0
2, 50349, Note_on_c, 0, 42, 83
2, 50411, Note_on_c, 0, 83, 0
2, 50415, Note_on_c, 0, 83, 68
2, 50457, Note_on_c, 0, 54, 0
2, 50465, Note_on_c, 0, 42, 0
2, 50465, Note_on_c, 0, 73, 0
2, 50466, Note_on_c, 0, 54, 87
2, 50471, Note_on_c, 0, 42, 75
2, 50472, Note_on_c, 0, 81, 0
2, 50476, Note_on_c, 0, 73, 99
2, 50476, Note_on_c, 0, 85, 96
2, 50478, Note_on_c, 0, 81, 85
2, 50480, Note_on_c, 0, 78, 0
2, 50487, Note_on_c, 0, 78, 87
2, 50608, Note_on_c, 0, 40, 91
2, 50741, Note_on_c, 0, 78, 0
2, 50750, Note_on_c, 0, 78, 93
2, 50787, Note_on_c, 0, 80, 0
2, 50793, Note_on_c, 0, 80, 88
2, 50816, Note_on_c, 0, 42, 0
2, 50816, Note_on_c, 0, 71, 0
2, 50816, Note_on_c, 0, 54, 0
2, 50816, Note_on_c, 0, 83, 0
2, 50817, Note_on_c, 0, 61, 0
2, 50817, Note_on_c, 0, 81, 0
2, 50817, Note_on_c, 0, 73, 0
2, 50817, Note_on_c, 0, 66, 0
2, 50817, Note_on_c, 0, 57, 0
2, 50817, Note_on_c, 0, 85, 0
2, 50817, Note_on_c, 0, 40, 0
2, 50817, Note_on_c, 0, 78, 0
2, 50821, Control_c, 0, 64, 0
2, 50826, Note_on_c, 0, 69, 0
2, 50849, Note_on_c, 0, 80, 0
2, 50882, Note_on_c, 0, 81, 101
2, 50884, Note_on_c, 0, 50, 103
2, 50884, Note_on_c, 0, 38, 98
2, 50887, Note_on_c, 0, 78, 90
2, 50895, Note_on_c, 0, 76, 73
2, 50933, Control_c, 0, 64, 127
2, 51028, Note_on_c, 0, 80, 96
2, 51156, Note_on_c, 0, 50, 0
2, 51156, Note_on_c, 0, 81, 0
2, 51161, Note_on_c, 0, 50, 86
2, 51163, Note_on_c, 0, 62, 81
2, 51166, Note_on_c, 0, 81, 102
2, 51167, Note_on_c, 0, 54, 74
2, 51171, Note_on_c, 0, 62, 0
2, 51294, Note_on_c, 0, 54, 0
2, 51298, Note_on_c, 0, 83, 103
2, 51300, Note_on_c, 0, 74, 90
2, 51302, Note_on_c, 0, 78, 0
2, 51305, Note_on_c, 0, 62, 83
2, 51305, Note_on_c, 0, 54, 85
2, 51305, Note_on_c, 0, 57, 78
2, 51306, Note_on_c, 0, 78, 81
2, 51558, Note_on_c, 0, 85, 99
2, 51563, Note_on_c, 0, 38, 0
2, 51563, Note_on_c, 0, 78, 0
2, 51568, Note_on_c, 0, 38, 93
2, 51571, Note_on_c, 0, 74, 0
2, 51574, Note_on_c, 0, 78, 91
2, 51578, Note_on_c, 0, 74, 75
2, 51694, Note_on_c, 0, 50, 0
2, 51704, Note_on_c, 0, 50, 85
2, 51770, Note_on_c, 0, 76, 0
2, 51781, Note_on_c, 0, 76, 74
2, 51816, Note_on_c, 0, 80, 0
2, 51820, Note_on_c, 0, 45, 87
2, 51827, Note_on_c, 0, 80, 85
2, 51891, Note_on_c, 0, 45, 0
2, 51892, Note_on_c, 0, 54, 0
2, 51892, Note_on_c, 0, 38, 0
2, 51892, Note_on_c, 0, 50, 0
2, 51893, Note_on_c, 0, 62, 0
2, 51893, Note_on_c, 0, 74, 0
2, 51893, Note_on_c, 0, 57, 0
2, 51893, Note_on_c, 0, 83, 0
2, 51894, Note_on_c, 0, 78, 0
2, 51894, Note_on_c, 0, 80, 0
2, 51894, Note_on_c, 0, 85, 0
2, 51894, Control_c, 0, 64, 0
2, 51897, Note_on_c, 0, 76, 0
2, 51916, Note_on_c, 0, 81, 0
2, 51950, Note_on_c, 0, 85, 96
2, 51954, Note_on_c, 0, 40, 102
2, 51955, Note_on_c, 0, 52, 104
2, 51958, Note_on_c, 0, 76, 94
2, 51985, Control_c, 0, 64, 127
2, 52083, Note_on_c, 0, 83, 91
2, 52216, Note_on_c, 0, 83, 0
2, 52223, Note_on_c, 0, 83, 99
2, 52243, Note_on_c, 0, 71, 70
2, 52362, Note_on_c, 0, 76, 0
2, 52362, Note_on_c, 0, 83, 0
2, 52363, Note_on_c, 0, 64, 99
2, 52364, Note_on_c, 0, 59, 88
2, 52366, Note_on_c, 0, 83, 99
2, 52372, Note_on_c, 0, 76, 93
2, 52373, Note_on_c, 0, 56, 84
2, 52380, Note_on_c, 0, 80, 82
2, 52623, Note_on_c, 0, 40, 0
2, 52623, Note_on_c, 0, 52, 0
2, 52631, Note_on_c, 0, 71, 0
2, 52631, Note_on_c, 0, 81, 94
2, 52632, Note_on_c, 0, 52, 97
2, 52634, Note_on_c, 0, 40, 89
2, 52637, Note_on_c, 0, 71, 83
2, 52761, Note_on_c, 0, 80, 0
2, 52769, Note_on_c, 0, 56, 0
2, 52769, Note_on_c, 0, 71, 0
2, 52772, Note_on_c, 0, 80, 101
2, 52773, Note_on_c, 0, 44, 87
2, 52775, Note_on_c, 0, 56, 92
2, 52780, Note_on_c, 0, 71, 80
2, 52899, Note_on_c, 0, 71, 0
2, 52899, Note_on_c, 0, 76, 0
2, 52905, Note_on_c, 0, 76, 97
2, 52908, Note_on_c, 0, 71, 89
2, 52936, Note_on_c, 0, 40, 0
2, 52936, Note_on_c, 0, 85, 0
2, 52936, Note_on_c, 0, 64, 0
2, 52937, Note_on_c, 0, 52, 0
2, 52938, Note_on_c, 0, 56, 0
2, 52938, Note_on_c, 0, 44, 0
2, 52938, Note_on_c, 0, 59, 0
2, 52939, Note_on_c, 0, 83, 0
2, 52939, Note_on_c, 0, 81, 0
2, 52940, Control_c, 0, 64, 0
2, 52961, Note_on_c, 0, 80, 0
2, 53030, Control_c, 0, 64, 127
2, 53047, Note_on_c, 0, 45, 104
2, 53047, Note_on_c, 0, 57, 107
2, 53337, Note_on_c, 0, 76, 0
2, 53339, Note_on_c, 0, 61, 96
2, 53341, Note_on_c, 0, 86, 102
2, 53342, Note_on_c, 0, 74, 101
2, 53343, Note_on_c, 0, 76, 102
2, 53343, Note_on_c, 0, 88, 95
2, 53344, Note_on_c, 0, 52, 86
2, 53562, Control_c, 0, 64, 0
2, 53563, Note_on_c, 0, 52, 0
2, 53564, Note_on_c, 0, 76, 0
2, 53564, Note_on_c, 0, 74, 0
2, 53564, Note_on_c, 0, 57, 0
2, 53564, Note_on_c, 0, 45, 0
2, 53565, Note_on_c, 0, 86, 0
2, 53565, Note_on_c, 0, 61, 0
2, 53575, Note_on_c, 0, 88, 0
2, 53583, Note_on_c, 0, 71, 0
2, 53610, Note_on_c, 0, 56, 102
2, 53612, Note_on_c, 0, 44, 100
2, 53615, Note_on_c, 0, 85, 95
2, 53616, Note_on_c, 0, 73, 100
2, 53618, Note_on_c, 0, 76, 98
2, 53644, Control_c, 0, 64, 127
2, 53882, Note_on_c, 0, 64, 90
2, 53887, Note_on_c, 0, 59, 89
2, 53887, Note_on_c, 0, 83, 98
2, 53893, Note_on_c, 0, 71, 91
2, 54130, Control_c, 0, 64, 0
2, 54131, Note_on_c, 0, 56, 0
2, 54131, Note_on_c, 0, 64, 0
2, 54132, Note_on_c, 0, 73, 0
2, 54132, Note_on_c, 0, 85, 0
2, 54132, Note_on_c, 0, 71, 0
2, 54132, Note_on_c, 0, 76, 0
2, 54132, Note_on_c, 0, 59, 0
2, 54132, Note_on_c, 0, 83, 0
2, 54144, Note_on_c, 0, 44, 0
2, 54176, Note_on_c, 0, 38, 104
2, 54176, Note_on_c, 0, 50, 106
2, 54177, Note_on_c, 0, 78, 107
2, 54177, Note_on_c, 0, 69, 101
2, 54220, Control_c, 0, 64, 127
2, 54309, Note_on_c, 0, 45, 81
2, 54443, Note_on_c, 0, 50, 0
2, 54445, Note_on_c, 0, 85, 91
2, 54447, Note_on_c, 0, 73, 86
2, 54449, Note_on_c, 0, 50, 76
2, 54451, Note_on_c, 0, 38, 0
2, 54455, Note_on_c, 0, 38, 69
2, 54545, Note_on_c, 0, 50, 0
2, 54545, Note_on_c, 0, 45, 0
2, 54545, Note_on_c, 0, 38, 0
2, 54545, Note_on_c, 0, 85, 0
2, 54546, Note_on_c, 0, 78, 0
2, 54546, Note_on_c, 0, 73, 0
2, 54547, Control_c, 0, 64, 0
2, 54551, Note_on_c, 0, 69, 0
2, 54600, Note_on_c, 0, 83, 104
2, 54603, Note_on_c, 0, 71, 96
2, 54603, Note_on_c, 0, 80, 89
2, 54605, Note_on_c, 0, 52, 102
2, 54606, Note_on_c, 0, 77, 83
2, 54607, Note_on_c, 0, 40, 98
2, 54635, Control_c, 0, 64, 127
2, 54862, Note_on_c, 0, 47, 85
2, 54864, Note_on_c, 0, 81, 92
2, 54868, Note_on_c, 0, 69, 82
2, 54973, Note_on_c, 0, 52, 0
2, 54984, Note_on_c, 0, 52, 78
2, 55004, Note_on_c, 0, 80, 0
2, 55008, Note_on_c, 0, 80, 92
2, 55009, Note_on_c, 0, 68, 85
2, 55100, Control_c, 0, 64, 0
2, 55102, Note_on_c, 0, 47, 0
2, 55103, Note_on_c, 0, 68, 0
2, 55103, Note_on_c, 0, 71, 0
2, 55103, Note_on_c, 0, 69, 0
2, 55103, Note_on_c, 0, 81, 0
2, 55103, Note_on_c, 0, 80, 0
2, 55104, Note_on_c, 0, 83, 0
2, 55111, Note_on_c, 0, 40, 0
2, 55119, Note_on_c, 0, 52, 0
2, 55134, Note_on_c, 0, 77, 0
2, 55143, Note_on_c, 0, 77, 107
2, 55144, Note_on_c, 0, 68, 96
2, 55146, Note_on_c, 0, 41, 94
2, 55146, Note_on_c, 0, 53, 97
2, 55146, Note_on_c, 0, 65, 93
2, 55196, Control_c, 0, 64, 127
2, 55203, Note_on_c, 0, 65, 0
2, 55269, Note_on_c, 0, 49, 83
2, 55411, Note_on_c, 0, 49, 0
2, 55415, Note_on_c, 0, 37, 86
2, 55418, Note_on_c, 0, 68, 0
2, 55419, Note_on_c, 0, 49, 85
2, 55422, Note_on_c, 0, 80, 94
2, 55424, Note_on_c, 0, 68, 86
2, 55549, Note_on_c, 0, 49, 0
2, 55558, Note_on_c, 0, 49, 86
2, 55559, Note_on_c, 0, 83, 98
2, 55562, Note_on_c, 0, 71, 90
2, 55635, Note_on_c, 0, 41, 0
2, 55636, Note_on_c, 0, 68, 0
2, 55636, Note_on_c, 0, 77, 0
2, 55636, Note_on_c, 0, 37, 0
2, 55636, Note_on_c, 0, 71, 0
2, 55636, Note_on_c, 0, 80, 0
2, 55636, Note_on_c, 0, 49, 0
2, 55637, Control_c, 0, 64, 0
2, 55637, Note_on_c, 0, 83, 0
2, 55641, Note_on_c, 0, 53, 0
2, 55691, Note_on_c, 0, 81, 102
2, 55691, Note_on_c, 0, 42, 92
2, 55697, Note_on_c, 0, 69, 98
2, 55699, Note_on_c, 0, 54, 90
2, 55699, Note_on_c, 0, 73, 85
2, 55706, Note_on_c, 0, 78, 86
2, 55733, Control_c, 0, 64, 127
2, 55941, Note_on_c, 0, 54, 0
2, 55948, Note_on_c, 0, 81, 0
2, 55952, Note_on_c, 0, 54, 79
2, 55953, Note_on_c, 0, 81, 75
2, 56082, Note_on_c, 0, 83, 94
2, 56086, Note_on_c, 0, 57, 76
2, 56098, Note_on_c, 0, 61, 54
2, 56209, Note_on_c, 0, 73, 0
2, 56209, Note_on_c, 0, 81, 0
2, 56213, Note_on_c, 0, 85, 95
2, 56216, Note_on_c, 0, 81, 93
2, 56217, Note_on_c, 0, 78, 0
2, 56219, Note_on_c, 0, 73, 97
2, 56224, Note_on_c, 0, 78, 84
2, 56300, Note_on_c, 0, 42, 0
2, 56301, Note_on_c, 0, 61, 0
2, 56301, Note_on_c, 0, 78, 0
2, 56301, Note_on_c, 0, 83, 0
2, 56302, Note_on_c, 0, 69, 0
2, 56302, Note_on_c, 0, 57, 0
2, 56302, Control_c, 0, 64, 0
2, 56302, Note_on_c, 0, 85, 0
2, 56317, Note_on_c, 0, 54, 0
2, 56317, Note_on_c, 0, 73, 0
2, 56317, Note_on_c, 0, 81, 0
2, 56358, Note_on_c, 0, 47, 94
2, 56359, Note_on_c, 0, 85, 95
2, 56359, Note_on_c, 0, 73, 99
2, 56359, Note_on_c, 0, 35, 92
2, 56361, Note_on_c, 0, 81, 89
2, 56366, Note_on_c, 0, 78, 92
2, 56401, Control_c, 0, 64, 127
2, 56620, Note_on_c, 0, 50, 78
2, 56761, Note_on_c, 0, 54, 69
2, 56907, Note_on_c, 0, 57, 83
2, 56907, Note_on_c, 0, 61, 88
2, 57041, Note_on_c, 0, 62, 79
2, 57047, Note_on_c, 0, 54, 0
2, 57053, Note_on_c, 0, 54, 59
2, 57174, Note_on_c, 0, 66, 79
2, 57297, Note_on_c, 0, 69, 81
2, 57430, Control_c, 0, 64, 0
2, 57431, Note_on_c, 0, 35, 0
2, 57434, Note_on_c, 0, 61, 0
2, 57434, Note_on_c, 0, 54, 0
2, 57434, Note_on_c, 0, 85, 0
2, 57434, Note_on_c, 0, 69, 0
2, 57434, Note_on_c, 0, 50, 0
2, 57434, Note_on_c, 0, 78, 0
2, 57434, Note_on_c, 0, 57, 0
2, 57434, Note_on_c, 0, 47, 0
2, 57434, Note_on_c, 0, 81, 0
2, 57434, Note_on_c, 0, 62, 0
2, 57434, Note_on_c, 0, 66, 0
2, 57454, Note_on_c, 0, 73, 0
2, 57458, Note_on_c, 0, 37, 80
2, 57459, Note_on_c, 0, 49, 84
2, 57462, Note_on_c, 0, 73, 89
2, 57465, Note_on_c, 0, 68, 70
2, 57530, Control_c, 0, 64, 127
2, 57561, Note_on_c, 0, 37, 0
2, 57734, Note_on_c, 0, 53, 77
2, 57887, Note_on_c, 0, 71, 82
2, 57909, Note_on_c, 0, 80, 74
2, 57959, Note_on_c, 0, 83, 99
2, 57995, Note_on_c, 0, 59, 89
2, 57997, Note_on_c, 0, 56, 86
2, 58157, Note_on_c, 0, 81, 93
2, 58306, Note_on_c, 0, 49, 0
2, 58306, Note_on_c, 0, 80, 0
2, 58313, Note_on_c, 0, 80, 89
2, 58433, Note_on_c, 0, 76, 85
2, 58575, Note_on_c, 0, 80, 0
2, 58579, Note_on_c, 0, 38, 91
2, 58579, Note_on_c, 0, 80, 94
2, 58586, Note_on_c, 0, 59, 0
2, 58586, Note_on_c, 0, 53, 0
2, 58586, Control_c, 0, 64, 0
2, 58586, Note_on_c, 0, 68, 0
2, 58587, Note_on_c, 0, 56, 0
2, 58587, Note_on_c, 0, 73, 0
2, 58587, Note_on_c, 0, 71, 0
2, 58587, Note_on_c, 0, 81, 0
2, 58587, Note_on_c, 0, 83, 0
2, 58728, Control_c, 0, 64, 127
2, 58848, Note_on_c, 0, 45, 72
2, 58988, Note_on_c, 0, 50, 64
2, 59123, Note_on_c, 0, 40, 90
2, 59146, Note_on_c, 0, 38, 0
2, 59147, Note_on_c, 0, 50, 0
2, 59147, Note_on_c, 0, 45, 0
2, 59148, Control_c, 0, 64, 0
2, 59212, Control_c, 0, 64, 127
2, 59261, Note_on_c, 0, 47, 76
2, 59394, Note_on_c, 0, 52, 74
2, 59527, Note_on_c, 0, 76, 0
2, 59533, Control_c, 0, 64, 0
2, 59533, Note_on_c, 0, 52, 0
2, 59533, Note_on_c, 0, 40, 0
2, 59533, Note_on_c, 0, 42, 85
2, 59534, Note_on_c, 0, 47, 0
2, 59562, Note_on_c, 0, 78, 96
2, 59566, Note_on_c, 0, 80, 0
2, 59575, Note_on_c, 0, 73, 74
2, 59577, Note_on_c, 0, 71, 80
2, 59635, Control_c, 0, 64, 127
2, 59828, Note_on_c, 0, 49, 67
2, 59987, Note_on_c, 0, 59, 68
2, 60260, Note_on_c, 0, 61, 61
2, 60267, Note_on_c, 0, 58, 63
2, 60268, Note_on_c, 0, 49, 0
2, 60269, Control_c, 0, 64, 0
2, 60273, Note_on_c, 0, 54, 56
2, 60275, Note_on_c, 0, 59, 0
2, 60275, Note_on_c, 0, 71, 0
2, 60357, Control_c, 0, 64, 127
2, 60773, Note_on_c, 0, 61, 0
2, 60774, Note_on_c, 0, 58, 0
2, 60774, Note_on_c, 0, 54, 0
2, 60774, Note_on_c, 0, 42, 0
2, 60775, Control_c, 0, 64, 0
2, 60787, Note_on_c, 0, 78, 0
2, 60794, Note_on_c, 0, 73, 0
2, 60812, Note_on_c, 0, 47, 69
2, 60814, Note_on_c, 0, 54, 69
2, 60814, Note_on_c, 0, 66, 70
2, 60815, Note_on_c, 0, 57, 69
2, 60815, Note_on_c, 0, 59, 65
2, 60821, Note_on_c, 0, 62, 65
2, 60825, Note_on_c, 0, 59, 0
2, 60846, Note_on_c, 0, 47, 0
2, 60850, Note_on_c, 0, 54, 0
2, 60851, Note_on_c, 0, 57, 0
2, 60859, Note_on_c, 0, 66, 0
2, 60864, Note_on_c, 0, 62, 0
2, 60953, Note_on_c, 0, 68, 71
2, 60998, Note_on_c, 0, 68, 0
2, 61089, Note_on_c, 0, 69, 66
2, 61122, Note_on_c, 0, 69, 0
2, 61219, Note_on_c, 0, 68, 89
2, 61221, Note_on_c, 0, 49, 68
2, 61221, Note_on_c, 0, 59, 77
2, 61223, Note_on_c, 0, 64, 67
2, 61263, Control_c, 0, 64, 127
2, 61501, Note_on_c, 0, 64, 0
2, 61512, Note_on_c, 0, 56, 75
2, 61512, Note_on_c, 0, 64, 82
2, 61555, Note_on_c, 0, 68, 0
2, 61563, Note_on_c, 0, 68, 33
2, 61639, Note_on_c, 0, 59, 0
2, 61649, Note_on_c, 0, 59, 71
2, 61798, Note_on_c, 0, 66, 64
2, 61835, Note_on_c, 0, 69, 63
2, 61840, Note_on_c, 0, 56, 0
2, 61841, Note_on_c, 0, 68, 0
2, 61841, Note_on_c, 0, 49, 0
2, 61842, Note_on_c, 0, 59, 0
2, 61844, Control_c, 0, 64, 0
2, 61862, Note_on_c, 0, 64, 0
2, 61894, Note_on_c, 0, 73, 98
2, 61903, Note_on_c, 0, 62, 93
2, 61911, Note_on_c, 0, 50, 82
2, 61912, Note_on_c, 0, 57, 87
2, 61913, Note_on_c, 0, 54, 74
2, 61936, Note_on_c, 0, 66, 0
2, 61943, Note_on_c, 0, 69, 0
2, 61945, Note_on_c, 0, 57, 0
2, 61949, Note_on_c, 0, 62, 0
2, 61949, Note_on_c, 0, 54, 0
2, 61950, Note_on_c, 0, 50, 0
2, 62008, Note_on_c, 0, 73, 0
2, 62041, Note_on_c, 0, 71, 85
2, 62093, Note_on_c, 0, 71, 0
2, 62174, Note_on_c, 0, 69, 72
2, 62238, Note_on_c, 0, 69, 0
2, 62299, Note_on_c, 0, 71, 98
2, 62305, Note_on_c, 0, 59, 89
2, 62307, Note_on_c, 0, 52, 79
2, 62308, Note_on_c, 0, 56, 79
2, 62361, Control_c, 0, 64, 127
2, 62558, Note_on_c, 0, 69, 81
2, 62690, Note_on_c, 0, 68, 90
2, 62845, Note_on_c, 0, 66, 85
2, 62956, Note_on_c, 0, 68, 0
2, 62956, Note_on_c, 0, 69, 0
2, 62956, Note_on_c, 0, 71, 0
2, 62957, Note_on_c, 0, 52, 0
2, 62957, Note_on_c, 0, 56, 0
2, 62957, Note_on_c, 0, 59, 0
2, 62958, Control_c, 0, 64, 0
2, 62960, Note_on_c, 0, 66, 0
2, 62965, Note_on_c, 0, 42, 77
2, 62971, Note_on_c, 0, 66, 74
2, 63168, Control_c, 0, 64, 127
2, 63264, Note_on_c, 0, 49, 61
2, 63395, Note_on_c, 0, 54, 49
2, 63525, Note_on_c, 0, 59, 58
2, 63640, Note_on_c, 0, 61, 57
2, 63782, Note_on_c, 0, 54, 0
2, 63788, Note_on_c, 0, 54, 53
2, 63927, Note_on_c, 0, 73, 73
2, 64197, Note_on_c, 0, 66, 0
2, 64207, Note_on_c, 0, 66, 60
2, 64339, Note_on_c, 0, 71, 72
2, 64611, Note_on_c, 0, 73, 0
2, 64617, Note_on_c, 0, 73, 75
2, 65169, Note_on_c, 0, 76, 79
2, 65170, Note_on_c, 0, 40, 60
2, 65212, Note_on_c, 0, 59, 0
2, 65212, Note_on_c, 0, 73, 0
2, 65213, Note_on_c, 0, 61, 0
2, 65213, Note_on_c, 0, 49, 0
2, 65213, Note_on_c, 0, 71, 0
2, 65213, Note_on_c, 0, 66, 0
2, 65214, Note_on_c, 0, 54, 0
2, 65214, Note_on_c, 0, 42, 0
2, 65214, Control_c, 0, 64, 0
2, 65287, Control_c, 0, 64, 127
2, 65330, Note_on_c, 0, 47, 61
2, 65461, Note_on_c, 0, 52, 68
2, 65584, Note_on_c, 0, 54, 61
2, 65731, Note_on_c, 0, 71, 79
2, 65733, Note_on_c, 0, 55, 65
2, 65875, Note_on_c, 0, 59, 70
2, 65996, Note_on_c, 0, 67, 71
2, 66134, Note_on_c, 0, 79, 82
2, 66263, Note_on_c, 0, 79, 0
2, 66272, Note_on_c, 0, 79, 84
2, 66274, Note_on_c, 0, 48, 62
2, 66285, Note_on_c, 0, 52, 0
2, 66285, Note_on_c, 0, 59, 0
2, 66286, Note_on_c, 0, 40, 0
2, 66286, Note_on_c, 0, 76, 0
2, 66286, Note_on_c, 0, 71, 0
2, 66286, Note_on_c, 0, 55, 0
2, 66286, Note_on_c, 0, 67, 0
2, 66287, Note_on_c, 0, 47, 0
2, 66288, Note_on_c, 0, 54, 0
2, 66290, Control_c, 0, 64, 0
2, 66370, Control_c, 0, 64, 127
2, 66420, Note_on_c, 0, 55, 62
2, 66542, Note_on_c, 0, 60, 67
2, 66659, Note_on_c, 0, 62, 70
2, 66794, Note_on_c, 0, 64, 68
2, 66807, Note_on_c, 0, 78, 76
2, 66808, Note_on_c, 0, 48, 0
2, 66946, Note_on_c, 0, 79, 0
2, 66951, Note_on_c, 0, 79, 86
2, 66951, Note_on_c, 0, 67, 64
2, 67084, Note_on_c, 0, 78, 0
2, 67088, Note_on_c, 0, 78, 84
2, 67202, Note_on_c, 0, 76, 78
2, 67332, Note_on_c, 0, 60, 0
2, 67332, Control_c, 0, 64, 0
2, 67333, Note_on_c, 0, 62, 0
2, 67333, Note_on_c, 0, 64, 0
2, 67333, Note_on_c, 0, 55, 0
2, 67333, Note_on_c, 0, 76, 0
2, 67333, Note_on_c, 0, 79, 0
2, 67334, Note_on_c, 0, 78, 0
2, 67334, Note_on_c, 0, 67, 0
2, 67337, Note_on_c, 0, 74, 77
2, 67346, Note_on_c, 0, 50, 64
2, 67461, Control_c, 0, 64, 127
2, 67492, Note_on_c, 0, 57, 63
2, 67617, Note_on_c, 0, 62, 68
2, 67735, Note_on_c, 0, 66, 65
2, 67885, Note_on_c, 0, 69, 70
2, 68094, Note_on_c, 0, 72, 67
2, 68113, Note_on_c, 0, 74, 0
2, 68122, Note_on_c, 0, 74, 50
2, 68275, Note_on_c, 0, 69, 0
2, 68279, Note_on_c, 0, 69, 65
2, 68438, Note_on_c, 0, 43, 60
2, 68438, Note_on_c, 0, 71, 82
2, 68457, Control_c, 0, 64, 0
2, 68467, Note_on_c, 0, 72, 0
2, 68467, Note_on_c, 0, 62, 0
2, 68468, Note_on_c, 0, 69, 0
2, 68469, Note_on_c, 0, 74, 0
2, 68469, Note_on_c, 0, 57, 0
2, 68469, Note_on_c, 0, 66, 0
2, 68469, Note_on_c, 0, 50, 0
2, 68544, Control_c, 0, 64, 127
2, 68579, Note_on_c, 0, 50, 58
2, 68702, Note_on_c, 0, 55, 62
2, 68838, Note_on_c, 0, 74, 71
2, 68951, Control_c, 0, 64, 0
2, 68952, Note_on_c, 0, 55, 0
2, 68953, Note_on_c, 0, 71, 0
2, 68953, Note_on_c, 0, 50, 0
2, 68954, Note_on_c, 0, 43, 0
2, 68968, Note_on_c, 0, 42, 68
2, 68970, Note_on_c, 0, 69, 71
2, 69035, Control_c, 0, 64, 127
2, 69086, Note_on_c, 0, 50, 62
2, 69247, Note_on_c, 0, 71, 84
2, 69249, Note_on_c, 0, 57, 55
2, 69499, Note_on_c, 0, 69, 0
2, 69499, Note_on_c, 0, 42, 0
2, 69499, Note_on_c, 0, 71, 0
2, 69500, Note_on_c, 0, 57, 0
2, 69500, Note_on_c, 0, 50, 0
2, 69501, Control_c, 0, 64, 0
2, 69504, Note_on_c, 0, 74, 0
2, 69517, Note_on_c, 0, 67, 67
2, 69521, Note_on_c, 0, 40, 57
2, 69634, Control_c, 0, 64, 127
2, 69669, Note_on_c, 0, 47, 60
2, 69820, Note_on_c, 0, 52, 56
2, 69946, Note_on_c, 0, 54, 59
2, 70063, Note_on_c, 0, 55, 59
2, 70214, Note_on_c, 0, 59, 59
2, 70276, Note_on_c, 0, 64, 62
2, 70415, Note_on_c, 0, 66, 72
2, 70540, Note_on_c, 0, 67, 0
2, 70545, Note_on_c, 0, 67, 69
2, 70667, Note_on_c, 0, 48, 63
2, 70671, Control_c, 0, 64, 0
2, 70671, Note_on_c, 0, 40, 0
2, 70673, Note_on_c, 0, 64, 0
2, 70673, Note_on_c, 0, 66, 0
2, 70673, Note_on_c, 0, 55, 0
2, 70674, Note_on_c, 0, 54, 0
2, 70674, Note_on_c, 0, 47, 0
2, 70674, Note_on_c, 0, 67, 0
2, 70674, Note_on_c, 0, 59, 0
2, 70674, Note_on_c, 0, 52, 0
2, 70675, Note_on_c, 0, 69, 65
2, 70755, Control_c, 0, 64, 127
2, 70806, Note_on_c, 0, 55, 53
2, 70951, Note_on_c, 0, 60, 63
2, 70952, Note_on_c, 0, 71, 78
2, 71095, Note_on_c, 0, 64, 43
2, 71211, Note_on_c, 0, 76, 86
2, 71470, Note_on_c, 0, 48, 0
2, 71476, Note_on_c, 0, 48, 47
2, 71477, Note_on_c, 0, 69, 0
2, 71482, Note_on_c, 0, 69, 63
2, 71493, Note_on_c, 0, 60, 0
2, 71498, Note_on_c, 0, 60, 52
2, 71758, Note_on_c, 0, 60, 0
2, 71758, Note_on_c, 0, 48, 0
2, 71758, Note_on_c, 0, 64, 0
2, 71758, Note_on_c, 0, 55, 0
2, 71758, Control_c, 0, 64, 0
2, 71758, Note_on_c, 0, 71, 0
2, 71759, Note_on_c, 0, 76, 0
2, 71759, Note_on_c, 0, 69, 0
2, 71766, Note_on_c, 0, 74, 70
2, 71766, Note_on_c, 0, 50, 61
2, 71900, Control_c, 0, 64, 127
2, 71925, Note_on_c, 0, 57, 56
2, 72049, Note_on_c, 0, 62, 56
2, 72197, Note_on_c, 0, 69, 45
2, 72326, Note_on_c, 0, 81, 55
2, 72460, Note_on_c, 0, 74, 0
2, 72472, Note_on_c, 0, 74, 42
2, 72591, Note_on_c, 0, 69, 0
2, 72598, Note_on_c, 0, 69, 47
2, 72737, Note_on_c, 0, 81, 0
2, 72745, Note_on_c, 0, 81, 51
2, 72875, Note_on_c, 0, 74, 0
2, 72886, Note_on_c, 0, 74, 48
2, 72998, Note_on_c, 0, 69, 0
2, 73006, Note_on_c, 0, 69, 40
2, 73128, Note_on_c, 0, 81, 0
2, 73134, Note_on_c, 0, 81, 50
2, 73274, Note_on_c, 0, 74, 0
2, 73283, Note_on_c, 0, 74, 43
2, 73405, Note_on_c, 0, 69, 0
2, 73409, Note_on_c, 0, 69, 38
2, 73536, Note_on_c, 0, 81, 0
2, 73541, Note_on_c, 0, 81, 54
2, 73666, Note_on_c, 0, 74, 0
2, 73674, Note_on_c, 0, 74, 53
2, 73820, Note_on_c, 0, 69, 0
2, 73829, Note_on_c, 0, 69, 44
2, 73946, Note_on_c, 0, 51, 46
2, 73950, Note_on_c, 0, 58, 47
2, 73958, Note_on_c, 0, 81, 0
2, 73961, Note_on_c, 0, 63, 41
2, 73964, Note_on_c, 0, 81, 48
2, 73973, Note_on_c, 0, 50, 0
2, 73979, Note_on_c, 0, 69, 0
2, 73981, Note_on_c, 0, 62, 0
2, 73982, Note_on_c, 0, 57, 0
2, 73983, Note_on_c, 0, 74, 0
2, 73985, Control_c, 0, 64, 0
2, 74104, Control_c, 0, 64, 127
2, 74116, Note_on_c, 0, 75, 44
2, 74261, Note_on_c, 0, 70, 41
2, 74373, Note_on_c, 0, 75, 0
2, 74377, Note_on_c, 0, 75, 43
2, 74512, Note_on_c, 0, 79, 55
2, 74641, Note_on_c, 0, 75, 0
2, 74651, Note_on_c, 0, 75, 46
2, 74780, Note_on_c, 0, 70, 0
2, 74784, Note_on_c, 0, 70, 42
2, 74895, Note_on_c, 0, 79, 0
2, 74902, Note_on_c, 0, 79, 52
2, 75033, Note_on_c, 0, 75, 0
2, 75044, Note_on_c, 0, 75, 52
2, 75187, Note_on_c, 0, 70, 0
2, 75192, Note_on_c, 0, 70, 34
2, 75294, Note_on_c, 0, 79, 0
2, 75301, Note_on_c, 0, 79, 59
2, 75432, Note_on_c, 0, 75, 0
2, 75438, Note_on_c, 0, 75, 43
2, 75594, Note_on_c, 0, 70, 0
2, 75601, Note_on_c, 0, 70, 41
2, 75694, Note_on_c, 0, 79, 0
2, 75702, Note_on_c, 0, 79, 49
2, 75840, Note_on_c, 0, 75, 0
2, 75845, Note_on_c, 0, 75, 48
2, 75985, Note_on_c, 0, 70, 0
2, 75994, Note_on_c, 0, 70, 45
2, 76108, Note_on_c, 0, 63, 0
2, 76116, Note_on_c, 0, 63, 35
2, 76118, Note_on_c, 0, 75, 0
2, 76119, Note_on_c, 0, 81, 0
2, 76120, Note_on_c, 0, 79, 0
2, 76120, Note_on_c, 0, 82, 47
2, 76123, Control_c, 0, 64, 0
2, 76231, Control_c, 0, 64, 127
2, 76264, Note_on_c, 0, 75, 45
2, 76408, Note_on_c, 0, 70, 0
2, 76417, Note_on_c, 0, 70, 37
2, 76508, Note_on_c, 0, 75, 0
2, 76518, Note_on_c, 0, 75, 38
2, 76654, Note_on_c, 0, 82, 0
2, 76660, Note_on_c, 0, 82, 42
2, 76761, Note_on_c, 0, 75, 0
2, 76769, Note_on_c, 0, 75, 45
2, 76922, Note_on_c, 0, 70, 0
2, 76927, Note_on_c, 0, 70, 37
2, 77061, Note_on_c, 0, 82, 0
2, 77068, Note_on_c, 0, 82, 41
2, 77191, Note_on_c, 0, 75, 0
2, 77198, Note_on_c, 0, 75, 46
2, 77352, Note_on_c, 0, 70, 0
2, 77357, Note_on_c, 0, 70, 36
2, 77483, Note_on_c, 0, 82, 0
2, 77489, Note_on_c, 0, 82, 41
2, 77621, Note_on_c, 0, 75, 0
2, 77630, Note_on_c, 0, 75, 42
2, 77790, Note_on_c, 0, 70, 0
2, 77800, Note_on_c, 0, 70, 32
2, 77913, Note_on_c, 0, 82, 0
2, 77923, Note_on_c, 0, 82, 45
2, 78059, Note_on_c, 0, 75, 0
2, 78069, Note_on_c, 0, 75, 42
2, 78220, Note_on_c, 0, 70, 0
2, 78232, Note_on_c, 0, 70, 28
2, 78343, Note_on_c, 0, 63, 0
2, 78347, Note_on_c, 0, 84, 44
2, 78349, Note_on_c, 0, 63, 33
2, 78492, Note_on_c, 0, 79, 43
2, 78551, Note_on_c, 0, 51, 0
2, 78558, Note_on_c, 0, 58, 0
2, 78640, Note_on_c, 0, 72, 44
2, 78773, Note_on_c, 0, 79, 0
2, 78784, Note_on_c, 0, 79, 48
2, 78935, Note_on_c, 0, 86, 55
2, 79057, Note_on_c, 0, 79, 0
2, 79068, Note_on_c, 0, 79, 43
2, 79213, Note_on_c, 0, 74, 46
2, 79349, Note_on_c, 0, 86, 0
2, 79355, Note_on_c, 0, 86, 36
2, 79503, Note_on_c, 0, 79, 0
2, 79514, Note_on_c, 0, 79, 38
2, 79649, Note_on_c, 0, 74, 0
2, 79658, Note_on_c, 0, 74, 44
2, 79812, Note_on_c, 0, 87, 43
2, 79979, Note_on_c, 0, 79, 0
2, 79984, Note_on_c, 0, 79, 36
2, 80140, Note_on_c, 0, 75, 0
2, 80145, Note_on_c, 0, 75, 25
2, 80294, Note_on_c, 0, 87, 0
2, 80305, Note_on_c, 0, 87, 43
2, 80494, Note_on_c, 0, 79, 0
2, 80498, Note_on_c, 0, 79, 43
2, 80640, Note_on_c, 0, 75, 0
2, 80650, Note_on_c, 0, 75, 41
2, 80853, Note_on_c, 0, 89, 53
2, 81177, Note_on_c, 0, 87, 0
2, 81183, Note_on_c, 0, 87, 48
2, 81515, Note_on_c, 0, 86, 0
2, 81523, Note_on_c, 0, 86, 54
2, 81884, Note_on_c, 0, 87, 0
2, 81889, Note_on_c, 0, 87, 55
2, 82264, Note_on_c, 0, 91, 59
2, 82529, Note_on_c, 0, 82, 0
2, 82560, Note_on_c, 0, 63, 0
2, 82560, Note_on_c, 0, 70, 0
2, 82560, Note_on_c, 0, 72, 0
2, 82560, Note_on_c, 0, 74, 0
2, 82560, Note_on_c, 0, 79, 0
2, 82560, Note_on_c, 0, 84, 0
2, 82631, Note_on_c, 0, 84, 46
2, 83028, Note_on_c, 0, 86, 0
2, 83039, Note_on_c, 0, 86, 58
2, 83581, Note_on_c, 0, 84, 0
2, 83591, Note_on_c, 0, 84, 49
2, 84136, Note_on_c, 0, 49, 34
2, 84211, Note_on_c, 0, 53, 28
2, 84261, Note_on_c, 0, 56, 39
2, 84323, Note_on_c, 0, 60, 41
2, 84386, Note_on_c, 0, 72, 38
2, 84475, Note_on_c, 0, 77, 44
2, 84572, Note_on_c, 0, 84, 0
2, 84576, Note_on_c, 0, 84, 52
2, 85255, Note_on_c, 0, 75, 0
2, 85463, Note_on_c, 0, 89, 0
2, 86313, Note_on_c, 0, 80, 57
2, 86400, Note_on_c, 0, 49, 0
2, 86400, Note_on_c, 0, 53, 0
2, 86400, Note_on_c, 0, 60, 0
2, 86400, Note_on_c, 0, 72, 0
2, 86400, Note_on_c, 0, 77, 0
2, 86400, Note_on_c, 0, 86, 0
2, 86400, Note_on_c, 0, 87, 0
2, 86400, Note_on_c, 0, 91, 0
2, 86441, Note_on_c, 0, 79, 61
2, 86545, Note_on_c, 0, 80, 0
2, 86557, Note_on_c, 0, 80, 62
2, 86626, Note_on_c, 0, 48, 27
2, 86678, Note_on_c, 0, 52, 49
2, 86715, Note_on_c, 0, 84, 0
2, 86715, Note_on_c, 0, 56, 0
2, 86788, Note_on_c, 0, 58, 50
2, 86827, Note_on_c, 0, 70, 58
2, 86835, Note_on_c, 0, 60, 33
2, 86841, Note_on_c, 0, 80, 0
2, 86860, Note_on_c, 0, 79, 0
2, 86866, Note_on_c, 0, 76, 60
2, 86938, Note_on_c, 0, 82, 69
2, 87737, Note_on_c, 0, 85, 69
2, 88071, Note_on_c, 0, 84, 64
2, 88227, Note_on_c, 0, 85, 0
2, 88236, Note_on_c, 0, 85, 67
2, 88342, Note_on_c, 0, 89, 81
2, 88421, Note_on_c, 0, 88, 77
2, 88496, Note_on_c, 0, 85, 0
2, 88505, Note_on_c, 0, 85, 70
2, 88565, Note_on_c, 0, 84, 0
2, 88573, Note_on_c, 0, 84, 68
2, 88650, Note_on_c, 0, 82, 0
2, 88659, Note_on_c, 0, 82, 68
2, 88748, Note_on_c, 0, 79, 77
2, 88878, Note_on_c, 0, 80, 64
2, 89003, Note_on_c, 0, 82, 0
2, 89007, Note_on_c, 0, 82, 64
2, 89218, Note_on_c, 0, 82, 0
2, 89223, Note_on_c, 0, 82, 73
2, 89292, Note_on_c, 0, 53, 39
2, 89372, Note_on_c, 0, 60, 0
2, 89372, Note_on_c, 0, 70, 0
2, 89377, Note_on_c, 0, 60, 51
2, 89383, Note_on_c, 0, 76, 0
2, 89384, Note_on_c, 0, 84, 0
2, 89384, Note_on_c, 0, 52, 0
2, 89386, Note_on_c, 0, 82, 0
2, 89386, Note_on_c, 0, 80, 0
2, 89386, Control_c, 0, 64, 0
2, 89389, Note_on_c, 0, 79, 0
2, 89390, Note_on_c, 0, 88, 0
2, 89395, Note_on_c, 0, 89, 0
2, 89402, Note_on_c, 0, 85, 0
2, 89410, Note_on_c, 0, 48, 0
2, 89428, Note_on_c, 0, 72, 57
2, 89433, Note_on_c, 0, 58, 0
2, 89473, Note_on_c, 0, 67, 40
2, 89536, Note_on_c, 0, 82, 70
2, 89579, Control_c, 0, 64, 127
2, 89855, Note_on_c, 0, 68, 44
2, 90042, Note_on_c, 0, 80, 47
2, 90078, Note_on_c, 0, 82, 0
2, 90082, Note_on_c, 0, 82, 73
2, 90147, Note_on_c, 0, 80, 0
2, 90156, Note_on_c, 0, 80, 54
2, 90312, Note_on_c, 0, 79, 65
2, 90416, Note_on_c, 0, 80, 0
2, 90427, Note_on_c, 0, 80, 57
2, 90553, Note_on_c, 0, 84, 58
2, 90662, Note_on_c, 0, 80, 0
2, 90668, Note_on_c, 0, 80, 58
2, 90777, Note_on_c, 0, 79, 0
2, 90781, Note_on_c, 0, 79, 61
2, 90869, Note_on_c, 0, 80, 0
2, 90873, Note_on_c, 0, 80, 61
2, 90974, Note_on_c, 0, 77, 61
2, 91077, Note_on_c, 0, 79, 0
2, 91081, Note_on_c, 0, 79, 61
2, 91215, Note_on_c, 0, 72, 0
2, 91223, Note_on_c, 0, 72, 41
2, 91376, Note_on_c, 0, 77, 0
2, 91383, Note_on_c, 0, 77, 56
2, 91615, Note_on_c, 0, 75, 57
2, 91861, Note_on_c, 0, 46, 30
2, 91898, Note_on_c, 0, 53, 0
2, 91906, Note_on_c, 0, 65, 43
2, 91910, Note_on_c, 0, 53, 42
2, 91952, Note_on_c, 0, 75, 0
2, 91963, Note_on_c, 0, 75, 53
2, 91967, Note_on_c, 0, 77, 0
2, 91968, Control_c, 0, 64, 0
2, 91969, Note_on_c, 0, 72, 0
2, 91969, Note_on_c, 0, 84, 0
2, 91970, Note_on_c, 0, 68, 0
2, 91970, Note_on_c, 0, 67, 0
2, 91971, Note_on_c, 0, 79, 0
2, 91971, Note_on_c, 0, 80, 0
2, 91971, Note_on_c, 0, 60, 0
2, 91972, Note_on_c, 0, 82, 0
2, 92075, Control_c, 0, 64, 127
2, 92344, Note_on_c, 0, 65, 0
2, 92350, Note_on_c, 0, 65, 40
2, 92363, Note_on_c, 0, 74, 56
2, 92376, Control_c, 0, 64, 0
2, 92387, Note_on_c, 0, 70, 46
2, 92405, Note_on_c, 0, 75, 0
2, 92490, Control_c, 0, 64, 127
2, 92851, Note_on_c, 0, 70, 0
2, 92862, Note_on_c, 0, 70, 42
2, 92878, Note_on_c, 0, 62, 30
2, 92881, Note_on_c, 0, 58, 29
2, 92881, Note_on_c, 0, 65, 0
2, 92886, Note_on_c, 0, 65, 21
2, 93934, Note_on_c, 0, 65, 0
2, 93941, Note_on_c, 0, 65, 72
2, 94080, Note_on_c, 0, 46, 0
2, 94084, Note_on_c, 0, 67, 71
2, 94248, Note_on_c, 0, 65, 0
2, 94253, Note_on_c, 0, 65, 52
2, 94253, Note_on_c, 0, 68, 77
2, 94260, Note_on_c, 0, 46, 45
2, 94261, Control_c, 0, 64, 0
2, 94269, Note_on_c, 0, 67, 0
2, 94269, Note_on_c, 0, 61, 54
2, 94270, Note_on_c, 0, 58, 0
2, 94271, Note_on_c, 0, 62, 0
2, 94275, Note_on_c, 0, 56, 48
2, 94287, Note_on_c, 0, 53, 0
2, 94287, Note_on_c, 0, 70, 0
2, 94287, Note_on_c, 0, 74, 0
2, 94379, Control_c, 0, 64, 127
2, 94533, Note_on_c, 0, 56, 0
2, 94542, Note_on_c, 0, 56, 35
2, 94714, Control_c, 0, 64, 0
2, 94721, Note_on_c, 0, 60, 61
2, 94732, Note_on_c, 0, 65, 0
2, 94755, Note_on_c, 0, 61, 0
2, 94786, Control_c, 0, 64, 127
2, 95176, Note_on_c, 0, 61, 43
2, 95275, Note_on_c, 0, 53, 42
2, 95362, Note_on_c, 0, 56, 0
2, 95372, Note_on_c, 0, 56, 49
2, 95424, Note_on_c, 0, 60, 0
2, 95433, Note_on_c, 0, 60, 56
2, 95477, Note_on_c, 0, 61, 0
2, 95482, Note_on_c, 0, 61, 56
2, 95576, Note_on_c, 0, 65, 72
2, 95663, Note_on_c, 0, 70, 68
2, 95715, Note_on_c, 0, 68, 0
2, 95722, Note_on_c, 0, 68, 74
2, 95777, Note_on_c, 0, 70, 0
2, 95785, Note_on_c, 0, 70, 81
2, 95866, Note_on_c, 0, 72, 73
2, 95922, Note_on_c, 0, 75, 77
2, 96017, Note_on_c, 0, 77, 73
2, 96112, Note_on_c, 0, 80, 83
2, 96219, Note_on_c, 0, 82, 82
2, 96326, Note_on_c, 0, 84, 77
2, 96462, Note_on_c, 0, 48, 51
2, 96514, Note_on_c, 0, 84, 0
2, 96518, Note_on_c, 0, 84, 69
2, 96527, Note_on_c, 0, 58, 53
2, 96531, Note_on_c, 0, 61, 0
2, 96532, Note_on_c, 0, 68, 0
2, 96532, Note_on_c, 0, 82, 0
2, 96533, Note_on_c, 0, 77, 0
2, 96534, Note_on_c, 0, 72, 0
2, 96537, Note_on_c, 0, 60, 0
2, 96537, Note_on_c, 0, 80, 0
2, 96538, Note_on_c, 0, 46, 0
2, 96540, Note_on_c, 0, 53, 0
2, 96540, Note_on_c, 0, 75, 0
2, 96540, Note_on_c, 0, 65, 0
2, 96542, Note_on_c, 0, 60, 46
2, 96542, Note_on_c, 0, 56, 0
2, 96542, Control_c, 0, 64, 0
2, 96545, Note_on_c, 0, 70, 0
2, 96547, Note_on_c, 0, 80, 71
2, 96935, Note_on_c, 0, 82, 77
2, 96954, Note_on_c, 0, 75, 58
2, 97006, Control_c, 0, 64, 127
2, 97241, Note_on_c, 0, 56, 53
2, 97372, Note_on_c, 0, 87, 74
2, 97670, Note_on_c, 0, 63, 40
2, 97807, Note_on_c, 0, 91, 81
2, 98004, Note_on_c, 0, 87, 0
2, 98009, Note_on_c, 0, 87, 71
2, 98088, Note_on_c, 0, 91, 0
2, 98097, Note_on_c, 0, 91, 61
2, 98127, Note_on_c, 0, 87, 0
2, 98133, Note_on_c, 0, 87, 58
2, 98188, Note_on_c, 0, 84, 0
2, 98197, Note_on_c, 0, 84, 58
2, 98265, Note_on_c, 0, 82, 0
2, 98273, Note_on_c, 0, 82, 61
2, 98311, Note_on_c, 0, 84, 0
2, 98318, Note_on_c, 0, 84, 65
2, 98388, Note_on_c, 0, 82, 0
2, 98398, Note_on_c, 0, 82, 67
2, 98496, Note_on_c, 0, 80, 0
2, 98503, Note_on_c, 0, 80, 61
2, 98587, Note_on_c, 0, 77, 68
2, 98680, Note_on_c, 0, 80, 0
2, 98684, Note_on_c, 0, 80, 60
2, 98822, Note_on_c, 0, 49, 49
2, 98887, Note_on_c, 0, 60, 0
2, 98887, Note_on_c, 0, 84, 0
2, 98893, Note_on_c, 0, 60, 48
2, 98893, Note_on_c, 0, 48, 0
2, 98894, Note_on_c, 0, 63, 0
2, 98894, Note_on_c, 0, 87, 0
2, 98895, Note_on_c, 0, 82, 0
2, 98895, Note_on_c, 0, 80, 0
2, 98896, Note_on_c, 0, 84, 60
2, 98896, Note_on_c, 0, 58, 0
2, 98897, Note_on_c, 0, 56, 0
2, 98897, Note_on_c, 0, 75, 0
2, 98898, Note_on_c, 0, 77, 0
2, 98901, Control_c, 0, 64, 0
2, 99025, Control_c, 0, 64, 127
2, 99056, Note_on_c, 0, 49, 0
2, 99071, Note_on_c, 0, 72, 69
2, 99175, Note_on_c, 0, 75, 60
2, 99247, Note_on_c, 0, 77, 70
2, 99357, Note_on_c, 0, 73, 62
2, 99371, Note_on_c, 0, 91, 0
2, 99456, Note_on_c, 0, 75, 0
2, 99461, Note_on_c, 0, 75, 59
2, 99555, Note_on_c, 0, 72, 0
2, 99562, Note_on_c, 0, 72, 67
2, 99688, Note_on_c, 0, 70, 56
2, 99786, Note_on_c, 0, 72, 0
2, 99795, Note_on_c, 0, 72, 49
2, 99913, Note_on_c, 0, 67, 46
2, 100055, Note_on_c, 0, 70, 0
2, 100066, Note_on_c, 0, 70, 51
2, 100660, Note_on_c, 0, 65, 39
2, 101000, Note_on_c, 0, 68, 56
2, 101391, Note_on_c, 0, 72, 0
2, 101397, Note_on_c, 0, 72, 56
2, 101402, Note_on_c, 0, 51, 42
2, 101403, Note_on_c, 0, 63, 40
2, 101447, Note_on_c, 0, 67, 0
2, 101449, Note_on_c, 0, 65, 0
2, 101449, Note_on_c, 0, 73, 0
2, 101450, Control_c, 0, 64, 0
2, 101450, Note_on_c, 0, 75, 0
2, 101450, Note_on_c, 0, 84, 0
2, 101450, Note_on_c, 0, 68, 0
2, 101451, Note_on_c, 0, 60, 0
2, 101453, Note_on_c, 0, 77, 0
2, 101483, Note_on_c, 0, 70, 0
2, 101637, Control_c, 0, 64, 127
2, 101865, Note_on_c, 0, 64, 53
2, 102919, Note_on_c, 0, 64, 0
2, 102929, Note_on_c, 0, 64, 35
2, 103103, Note_on_c, 0, 68, 50
2, 103224, Note_on_c, 0, 70, 49
2, 103336, Note_on_c, 0, 76, 58
2, 103471, Note_on_c, 0, 80, 68
2, 103637, Note_on_c, 0, 82, 64
2, 103824, Note_on_c, 0, 58, 39
2, 103948, Note_on_c, 0, 63, 0
2, 103959, Note_on_c, 0, 63, 31
2, 103967, Note_on_c, 0, 75, 47
2, 103971, Note_on_c, 0, 68, 0
2, 103976, Note_on_c, 0, 68, 26
2, 104103, Note_on_c, 0, 79, 45
2, 104159, Control_c, 0, 64, 0
2, 104163, Note_on_c, 0, 51, 0
2, 104163, Note_on_c, 0, 72, 0
2, 104167, Note_on_c, 0, 80, 0
2, 104167, Note_on_c, 0, 68, 0
2, 104167, Note_on_c, 0, 70, 0
2, 104167, Note_on_c, 0, 64, 0
2, 104169, Note_on_c, 0, 82, 0
2, 104170, Note_on_c, 0, 76, 0
2, 104190, Note_on_c, 0, 87, 57
2, 104509, Control_c, 0, 64, 127
2, 107184, Note_on_c, 0, 44, 33
2, 107245, Note_on_c, 0, 51, 40
2, 107325, Note_on_c, 0, 56, 43
2, 107520, Note_on_c, 0, 79, 0
2, 107558, Note_on_c, 0, 87, 0
2, 107696, Note_on_c, 0, 63, 0
2, 107705, Note_on_c, 0, 63, 54
2, 107834, Note_on_c, 0, 63, 0
2, 107845, Note_on_c, 0, 63, 59
2, 107973, Note_on_c, 0, 63, 0
2, 107979, Note_on_c, 0, 63, 65
2, 108288, Note_on_c, 0, 63, 0
2, 108298, Note_on_c, 0, 63, 61
2, 108433, Note_on_c, 0, 58, 0
2, 108456, Note_on_c, 0, 63, 0
2, 108467, Note_on_c, 0, 63, 57
2, 108572, Note_on_c, 0, 75, 0
2, 108610, Note_on_c, 0, 63, 0
2, 108618, Note_on_c, 0, 56, 0
2, 108618, Note_on_c, 0, 63, 62
2, 108628, Note_on_c, 0, 49, 47
2, 108629, Note_on_c, 0, 56, 48
2, 108630, Note_on_c, 0, 53, 49
2, 108661, Note_on_c, 0, 51, 0
2, 108665, Control_c, 0, 64, 0
2, 108667, Note_on_c, 0, 44, 0
2, 108921, Note_on_c, 0, 61, 67
2, 109017, Note_on_c, 0, 63, 0
2, 109082, Note_on_c, 0, 61, 0
2, 109085, Note_on_c, 0, 60, 70
2, 109378, Note_on_c, 0, 56, 0
2, 109389, Note_on_c, 0, 56, 64
2, 109407, Note_on_c, 0, 60, 0
2, 109501, Control_c, 0, 64, 127
2, 109701, Note_on_c, 0, 58, 69
2, 109865, Note_on_c, 0, 51, 51
2, 109866, Note_on_c, 0, 55, 46
2, 109870, Control_c, 0, 64, 0
2, 109874, Note_on_c, 0, 56, 0
2, 109880, Note_on_c, 0, 53, 0
2, 109916, Note_on_c, 0, 49, 0
2, 110177, Control_c, 0, 64, 127
2, 110658, Note_on_c, 0, 56, 49
2, 110799, Note_on_c, 0, 58, 0
2, 110805, Note_on_c, 0, 58, 66
2, 110922, Note_on_c, 0, 56, 0
2, 110928, Note_on_c, 0, 56, 62
2, 111072, Control_c, 0, 64, 0
2, 111073, Note_on_c, 0, 56, 0
2, 111074, Note_on_c, 0, 58, 0
2, 111074, Note_on_c, 0, 51, 0
2, 111083, Note_on_c, 0, 52, 58
2, 111083, Note_on_c, 0, 55, 0
2, 111085, Note_on_c, 0, 60, 72
2, 111088, Note_on_c, 0, 55, 57
2, 111389, Note_on_c, 0, 61, 67
2, 111394, Note_on_c, 0, 60, 0
2, 111531, Note_on_c, 0, 60, 64
2, 111552, Note_on_c, 0, 61, 0
2, 111636, Control_c, 0, 64, 127
2, 111710, Note_on_c, 0, 48, 45
2, 111855, Note_on_c, 0, 58, 66
2, 111874, Note_on_c, 0, 48, 0
2, 111885, Note_on_c, 0, 48, 29
2, 112166, Note_on_c, 0, 60, 0
2, 112170, Note_on_c, 0, 60, 56
2, 112250, Note_on_c, 0, 58, 0
2, 112260, Note_on_c, 0, 58, 55
2, 112338, Note_on_c, 0, 56, 54
2, 112345, Note_on_c, 0, 53, 44
2, 112346, Note_on_c, 0, 41, 41
2, 112353, Note_on_c, 0, 48, 0
2, 112353, Note_on_c, 0, 52, 0
2, 112353, Note_on_c, 0, 55, 0
2, 112354, Note_on_c, 0, 58, 0
2, 112358, Control_c, 0, 64, 0
2, 112550, Control_c, 0, 64, 127
2, 112814, Note_on_c, 0, 48, 53
2, 112972, Note_on_c, 0, 56, 0
2, 112980, Note_on_c, 0, 56, 80
2, 112980, Note_on_c, 0, 48, 0
2, 112991, Note_on_c, 0, 48, 34
2, 113280, Note_on_c, 0, 60, 0
2, 113286, Note_on_c, 0, 68, 83
2, 113291, Note_on_c, 0, 60, 70
2, 113590, Control_c, 0, 64, 0
2, 113594, Note_on_c, 0, 67, 82
2, 113598, Note_on_c, 0, 56, 0
2, 113598, Note_on_c, 0, 68, 0
2, 113599, Note_on_c, 0, 48, 0
2, 113600, Note_on_c, 0, 41, 0
2, 113601, Note_on_c, 0, 53, 0
2, 113605, Note_on_c, 0, 60, 0
2, 113616, Note_on_c, 0, 58, 62
2, 113620, Note_on_c, 0, 63, 49
2, 113621, Note_on_c, 0, 39, 51
2, 113621, Note_on_c, 0, 51, 47
2, 113740, Control_c, 0, 64, 127
2, 113840, Note_on_c, 0, 63, 0
2, 113913, Note_on_c, 0, 63, 77
2, 113977, Note_on_c, 0, 67, 0
2, 113983, Note_on_c, 0, 58, 0
2, 113984, Control_c, 0, 64, 0
2, 113991, Note_on_c, 0, 63, 0
2, 114071, Control_c, 0, 64, 127
2, 114074, Note_on_c, 0, 46, 46
2, 114189, Note_on_c, 0, 63, 73
2, 114214, Note_on_c, 0, 55, 50
2, 114222, Note_on_c, 0, 58, 46
2, 114514, Note_on_c, 0, 60, 68
2, 114662, Note_on_c, 0, 58, 0
2, 114664, Note_on_c, 0, 46, 0
2, 114665, Note_on_c, 0, 63, 0
2, 114665, Note_on_c, 0, 39, 0
2, 114665, Note_on_c, 0, 51, 0
2, 114666, Note_on_c, 0, 55, 0
2, 114666, Note_on_c, 0, 60, 0
2, 114667, Note_on_c, 0, 37, 47
2, 114668, Control_c, 0, 64, 0
2, 114673, Note_on_c, 0, 58, 61
2, 114915, Control_c, 0, 64, 127
2, 114993, Note_on_c, 0, 44, 46
2, 115143, Note_on_c, 0, 49, 41
2, 115306, Note_on_c, 0, 60, 58
2, 115752, Note_on_c, 0, 49, 0
2, 115763, Note_on_c, 0, 49, 40
2, 116067, Note_on_c, 0, 58, 0
2, 116078, Note_on_c, 0, 72, 60
2, 116078, Note_on_c, 0, 58, 45
2, 116089, Note_on_c, 0, 65, 43
2, 116710, Note_on_c, 0, 70, 56
2, 116759, Note_on_c, 0, 65, 0
2, 116769, Note_on_c, 0, 65, 34
2, 117120, Note_on_c, 0, 37, 0
2, 117120, Note_on_c, 0, 44, 0
2, 118103, Note_on_c, 0, 70, 0
2, 118111, Note_on_c, 0, 70, 42
2, 118248, Note_on_c, 0, 72, 0
2, 118256, Note_on_c, 0, 72, 64
2, 118404, Note_on_c, 0, 73, 70
2, 118571, Note_on_c, 0, 72, 0
2, 118582, Note_on_c, 0, 72, 63
2, 118748, Note_on_c, 0, 49, 0
2, 118755, Note_on_c, 0, 60, 0
2, 118757, Note_on_c, 0, 49, 44
2, 118759, Note_on_c, 0, 60, 49
2, 118768, Note_on_c, 0, 53, 40
2, 118775, Note_on_c, 0, 56, 47
2, 118834, Note_on_c, 0, 70, 0
2, 118835, Note_on_c, 0, 65, 0
2, 118835, Control_c, 0, 64, 0
2, 118835, Note_on_c, 0, 73, 0
2, 118855, Note_on_c, 0, 72, 0
2, 118932, Control_c, 0, 64, 127
2, 119040, Note_on_c, 0, 58, 0
2, 119067, Note_on_c, 0, 70, 56
2, 119201, Note_on_c, 0, 70, 0
2, 119207, Note_on_c, 0, 70, 61
2, 119523, Note_on_c, 0, 60, 0
2, 119530, Note_on_c, 0, 60, 54
2, 119654, Note_on_c, 0, 70, 0
2, 119660, Note_on_c, 0, 70, 58
2, 119984, Note_on_c, 0, 49, 0
2, 119995, Note_on_c, 0, 49, 61
2, 120291, Note_on_c, 0, 52, 70
2, 120591, Note_on_c, 0, 56, 0
2, 120596, Note_on_c, 0, 58, 63
2, 120600, Note_on_c, 0, 56, 64
2, 120905, Note_on_c, 0, 72, 72
2, 120960, Note_on_c, 0, 53, 0
2, 121026, Note_on_c, 0, 73, 72
2, 121190, Note_on_c, 0, 58, 0
2, 121192, Note_on_c, 0, 60, 0
2, 121192, Note_on_c, 0, 72, 0
2, 121192, Note_on_c, 0, 52, 0
2, 121192, Note_on_c, 0, 56, 0
2, 121193, Control_c, 0, 64, 0
2, 121194, Note_on_c, 0, 73, 0
2, 121194, Note_on_c, 0, 70, 0
2, 121195, Note_on_c, 0, 58, 59
2, 121195, Note_on_c, 0, 75, 83
2, 121202, Note_on_c, 0, 48, 53
2, 121213, Note_on_c, 0, 49, 0
2, 121274, Control_c, 0, 64, 127
2, 121497, Note_on_c, 0, 75, 0
2, 121502, Note_on_c, 0, 56, 54
2, 121507, Note_on_c, 0, 75, 71
2, 121643, Note_on_c, 0, 58, 0
2, 121651, Note_on_c, 0, 80, 82
2, 121652, Note_on_c, 0, 58, 53
2, 121677, Note_on_c, 0, 68, 62
2, 121927, Note_on_c, 0, 56, 0
2, 121933, Note_on_c, 0, 56, 54
2, 122090, Note_on_c, 0, 79, 74
2, 122234, Note_on_c, 0, 80, 0
2, 122245, Note_on_c, 0, 80, 83
2, 122280, Note_on_c, 0, 75, 0
2, 122291, Note_on_c, 0, 75, 50
2, 122292, Note_on_c, 0, 72, 54
2, 122346, Note_on_c, 0, 48, 0
2, 122346, Note_on_c, 0, 68, 0
2, 122346, Note_on_c, 0, 56, 0
2, 122347, Note_on_c, 0, 79, 0
2, 122348, Control_c, 0, 64, 0
2, 122365, Note_on_c, 0, 58, 0
2, 122394, Note_on_c, 0, 53, 62
2, 122442, Control_c, 0, 64, 127
2, 122686, Note_on_c, 0, 70, 60
2, 122718, Note_on_c, 0, 72, 0
2, 122722, Note_on_c, 0, 72, 83
2, 122847, Note_on_c, 0, 60, 57
2, 122995, Note_on_c, 0, 70, 0
2, 123002, Note_on_c, 0, 70, 88
2, 123153, Note_on_c, 0, 65, 55
2, 123291, Note_on_c, 0, 68, 88
2, 123565, Note_on_c, 0, 70, 0
2, 123565, Note_on_c, 0, 53, 0
2, 123566, Note_on_c, 0, 72, 0
2, 123566, Note_on_c, 0, 60, 0
2, 123566, Control_c, 0, 64, 0
2, 123571, Note_on_c, 0, 80, 0
2, 123578, Note_on_c, 0, 75, 0
2, 123585, Note_on_c, 0, 75, 85
2, 123594, Note_on_c, 0, 65, 0
2, 123594, Note_on_c, 0, 68, 0
2, 123600, Note_on_c, 0, 65, 59
2, 123601, Note_on_c, 0, 46, 60
2, 123601, Note_on_c, 0, 68, 67
2, 123604, Note_on_c, 0, 56, 60
2, 123645, Note_on_c, 0, 46, 0
2, 123678, Control_c, 0, 64, 127
2, 123884, Note_on_c, 0, 53, 53
2, 124039, Note_on_c, 0, 68, 0
2, 124043, Note_on_c, 0, 68, 79
2, 124055, Note_on_c, 0, 56, 0
2, 124059, Note_on_c, 0, 56, 51
2, 124203, Note_on_c, 0, 53, 0
2, 124204, Control_c, 0, 64, 0
2, 124216, Note_on_c, 0, 65, 0
2, 124277, Note_on_c, 0, 75, 0
2, 124392, Note_on_c, 0, 68, 0
2, 124506, Note_on_c, 0, 68, 67
2, 124511, Note_on_c, 0, 39, 48
2, 124528, Note_on_c, 0, 58, 45
2, 124531, Note_on_c, 0, 63, 44
2, 124538, Note_on_c, 0, 56, 0
2, 124646, Control_c, 0, 64, 127
2, 124968, Note_on_c, 0, 46, 42
2, 125121, Note_on_c, 0, 61, 63
2, 125418, Note_on_c, 0, 70, 77
2, 125686, Note_on_c, 0, 51, 51
2, 125836, Note_on_c, 0, 68, 0
2, 125848, Note_on_c, 0, 68, 58
2, 125928, Note_on_c, 0, 70, 0
2, 125934, Note_on_c, 0, 70, 62
2, 125982, Note_on_c, 0, 68, 0
2, 125990, Control_c, 0, 64, 0
2, 125993, Note_on_c, 0, 68, 68
2, 125993, Note_on_c, 0, 44, 49
2, 125995, Note_on_c, 0, 70, 0
2, 125996, Note_on_c, 0, 61, 0
2, 125996, Note_on_c, 0, 46, 0
2, 125996, Note_on_c, 0, 51, 0
2, 125997, Note_on_c, 0, 63, 0
2, 126000, Note_on_c, 0, 39, 0
2, 126028, Note_on_c, 0, 58, 0
2, 126197, Control_c, 0, 64, 127
2, 126280, Note_on_c, 0, 51, 41
2, 126455, Note_on_c, 0, 58, 48
2, 126907, Note_on_c, 0, 60, 47
2, 126936, Note_on_c, 0, 58, 0
2, 126940, Control_c, 0, 64, 0
2, 126981, Control_c, 0, 64, 127
2, 127223, Note_on_c, 0, 56, 36
2, 127398, Note_on_c, 0, 63, 38
2, 127833, Note_on_c, 0, 68, 0
2, 127842, Note_on_c, 0, 68, 43
2, 128524, Note_on_c, 0, 56, 0
2, 128531, Note_on_c, 0, 49, 33
2, 128532, Note_on_c, 0, 61, 36
2, 128536, Note_on_c, 0, 56, 21
2, 128542, Control_c, 0, 64, 0
2, 128544, Note_on_c, 0, 60, 0
2, 128563, Note_on_c, 0, 44, 0
2, 128601, Control_c, 0, 64, 127
2, 128640, Note_on_c, 0, 51, 0
2, 128647, Note_on_c, 0, 63, 0
2, 128830, Note_on_c, 0, 80, 61
2, 129000, Note_on_c, 0, 80, 0
2, 129005, Note_on_c, 0, 80, 54
2, 129139, Note_on_c, 0, 61, 0
2, 129139, Note_on_c, 0, 80, 0
2, 129144, Note_on_c, 0, 61, 57
2, 129149, Note_on_c, 0, 80, 58
2, 129163, Note_on_c, 0, 65, 51
2, 129174, Note_on_c, 0, 77, 57
2, 129178, Note_on_c, 0, 73, 49
2, 129446, Note_on_c, 0, 80, 0
2, 129451, Note_on_c, 0, 80, 74
2, 129469, Note_on_c, 0, 77, 0
2, 129473, Note_on_c, 0, 77, 36
2, 129592, Note_on_c, 0, 80, 0
2, 129603, Note_on_c, 0, 80, 63
2, 129735, Note_on_c, 0, 55, 52
2, 129755, Note_on_c, 0, 58, 56
2, 129757, Note_on_c, 0, 79, 68
2, 129757, Note_on_c, 0, 51, 55
2, 129764, Note_on_c, 0, 75, 60
2, 129768, Note_on_c, 0, 63, 49
2, 129780, Control_c, 0, 64, 0
2, 129780, Note_on_c, 0, 77, 0
2, 129786, Note_on_c, 0, 65, 0
2, 129786, Note_on_c, 0, 73, 0
2, 129786, Note_on_c, 0, 61, 0
2, 129786, Note_on_c, 0, 49, 0
2, 129787, Note_on_c, 0, 68, 0
2, 129807, Note_on_c, 0, 56, 0
2, 129807, Control_c, 0, 64, 127
2, 129822, Note_on_c, 0, 80, 0
2, 129911, Note_on_c, 0, 82, 68
2, 130045, Note_on_c, 0, 82, 0
2, 130051, Note_on_c, 0, 82, 77
2, 130191, Note_on_c, 0, 82, 0
2, 130196, Note_on_c, 0, 70, 47
2, 130199, Note_on_c, 0, 75, 0
2, 130199, Note_on_c, 0, 82, 59
2, 130206, Note_on_c, 0, 75, 58
2, 130237, Note_on_c, 0, 80, 61
2, 130337, Note_on_c, 0, 82, 0
2, 130347, Note_on_c, 0, 82, 75
2, 130360, Note_on_c, 0, 63, 0
2, 130360, Note_on_c, 0, 75, 0
2, 130364, Note_on_c, 0, 75, 55
2, 130365, Note_on_c, 0, 67, 63
2, 130368, Note_on_c, 0, 63, 68
2, 130644, Note_on_c, 0, 80, 0
2, 130655, Note_on_c, 0, 80, 81
2, 130675, Note_on_c, 0, 75, 0
2, 130680, Note_on_c, 0, 75, 41
2, 130782, Note_on_c, 0, 82, 0
2, 130790, Note_on_c, 0, 82, 81
2, 130935, Note_on_c, 0, 48, 70
2, 130936, Note_on_c, 0, 58, 0
2, 130936, Note_on_c, 0, 82, 0
2, 130946, Note_on_c, 0, 58, 73
2, 130947, Note_on_c, 0, 82, 84
2, 130953, Note_on_c, 0, 72, 79
2, 130955, Control_c, 0, 64, 0
2, 130956, Note_on_c, 0, 67, 0
2, 130956, Note_on_c, 0, 51, 0
2, 130956, Note_on_c, 0, 55, 0
2, 130956, Note_on_c, 0, 63, 0
2, 130957, Note_on_c, 0, 79, 0
2, 130959, Note_on_c, 0, 70, 0
2, 130967, Note_on_c, 0, 75, 0
2, 130971, Note_on_c, 0, 75, 46
2, 130974, Note_on_c, 0, 80, 0
2, 131013, Control_c, 0, 64, 127
2, 131093, Note_on_c, 0, 84, 76
2, 131243, Note_on_c, 0, 72, 0
2, 131243, Note_on_c, 0, 84, 0
2, 131247, Note_on_c, 0, 84, 81
2, 131251, Note_on_c, 0, 72, 73
2, 131352, Note_on_c, 0, 55, 74
2, 131442, Note_on_c, 0, 48, 0
2, 131442, Note_on_c, 0, 75, 0
2, 131443, Note_on_c, 0, 72, 0
2, 131443, Note_on_c, 0, 84, 0
2, 131445, Note_on_c, 0, 55, 0
2, 131448, Control_c, 0, 64, 0
2, 131450, Note_on_c, 0, 58, 0
2, 131450, Note_on_c, 0, 82, 0
2, 131516, Note_on_c, 0, 85, 88
2, 131520, Control_c, 0, 64, 127
2, 131524, Note_on_c, 0, 73, 78
2, 131524, Note_on_c, 0, 64, 83
2, 131525, Note_on_c, 0, 52, 85
2, 131526, Note_on_c, 0, 79, 71
2, 131647, Note_on_c, 0, 73, 0
2, 131648, Note_on_c, 0, 52, 0
2, 131648, Control_c, 0, 64, 0
2, 131650, Note_on_c, 0, 85, 0
2, 131651, Note_on_c, 0, 79, 0
2, 131665, Note_on_c, 0, 64, 0
2, 131828, Note_on_c, 0, 84, 84
2, 131829, Note_on_c, 0, 65, 70
2, 131830, Note_on_c, 0, 53, 72
2, 131840, Note_on_c, 0, 72, 77
2, 131842, Note_on_c, 0, 77, 69
2, 131845, Note_on_c, 0, 80, 73
2, 131873, Control_c, 0, 64, 127
2, 132220, Note_on_c, 0, 60, 64
2, 132234, Note_on_c, 0, 65, 0
2, 132349, Note_on_c, 0, 80, 0
2, 132354, Note_on_c, 0, 80, 62
2, 132356, Note_on_c, 0, 82, 63
2, 132372, Note_on_c, 0, 72, 0
2, 132377, Note_on_c, 0, 72, 68
2, 132380, Note_on_c, 0, 77, 0
2, 132388, Note_on_c, 0, 77, 49
2, 132403, Note_on_c, 0, 84, 0
2, 132410, Note_on_c, 0, 84, 90
2, 132567, Note_on_c, 0, 67, 89
2, 132695, Note_on_c, 0, 82, 0
2, 132702, Note_on_c, 0, 82, 96
2, 132871, Note_on_c, 0, 68, 86
2, 132994, Note_on_c, 0, 80, 0
2, 133001, Note_on_c, 0, 80, 95
2, 133025, Note_on_c, 0, 60, 0
2, 133029, Note_on_c, 0, 60, 69
2, 133298, Control_c, 0, 64, 0
2, 133301, Note_on_c, 0, 53, 0
2, 133302, Note_on_c, 0, 68, 0
2, 133303, Note_on_c, 0, 82, 0
2, 133304, Note_on_c, 0, 72, 0
2, 133304, Note_on_c, 0, 67, 0
2, 133304, Note_on_c, 0, 60, 0
2, 133304, Note_on_c, 0, 84, 0
2, 133305, Note_on_c, 0, 77, 0
2, 133312, Note_on_c, 0, 87, 95
2, 133317, Note_on_c, 0, 80, 0
2, 133321, Note_on_c, 0, 58, 75
2, 133321, Note_on_c, 0, 46, 71
2, 133322, Note_on_c, 0, 56, 75
2, 133322, Note_on_c, 0, 80, 83
2, 133326, Note_on_c, 0, 75, 86
2, 133378, Control_c, 0, 64, 127
2, 133393, Note_on_c, 0, 58, 0
2, 133612, Note_on_c, 0, 53, 64
2, 133747, Note_on_c, 0, 80, 0
2, 133753, Note_on_c, 0, 80, 91
2, 133756, Note_on_c, 0, 68, 87
2, 133777, Note_on_c, 0, 56, 0
2, 133786, Note_on_c, 0, 56, 68
2, 134008, Note_on_c, 0, 53, 0
2, 134013, Note_on_c, 0, 53, 69
2, 134200, Note_on_c, 0, 80, 0
2, 134210, Note_on_c, 0, 80, 96
2, 134215, Note_on_c, 0, 48, 75
2, 134215, Note_on_c, 0, 75, 0
2, 134218, Note_on_c, 0, 58, 87
2, 134219, Note_on_c, 0, 70, 89
2, 134224, Note_on_c, 0, 75, 88
2, 134245, Note_on_c, 0, 87, 0
2, 134247, Note_on_c, 0, 46, 0
2, 134248, Note_on_c, 0, 53, 0
2, 134249, Note_on_c, 0, 56, 0
2, 134250, Control_c, 0, 64, 0
2, 134376, Control_c, 0, 64, 127
2, 134675, Note_on_c, 0, 56, 67
2, 134784, Note_on_c, 0, 68, 0
2, 134807, Note_on_c, 0, 58, 0
2, 134817, Note_on_c, 0, 58, 74
2, 134954, Note_on_c, 0, 63, 87
2, 135091, Note_on_c, 0, 70, 0
2, 135099, Note_on_c, 0, 70, 86
2, 135101, Note_on_c, 0, 68, 79
2, 135229, Note_on_c, 0, 56, 0
2, 135236, Note_on_c, 0, 56, 81
2, 135375, Note_on_c, 0, 75, 0
2, 135383, Note_on_c, 0, 63, 0
2, 135386, Note_on_c, 0, 75, 96
2, 135391, Note_on_c, 0, 63, 90
2, 135528, Note_on_c, 0, 58, 0
2, 135536, Note_on_c, 0, 58, 53
2, 135668, Note_on_c, 0, 48, 0
2, 135668, Note_on_c, 0, 58, 0
2, 135668, Note_on_c, 0, 75, 0
2, 135669, Note_on_c, 0, 68, 0
2, 135669, Note_on_c, 0, 56, 0
2, 135669, Note_on_c, 0, 63, 0
2, 135669, Note_on_c, 0, 70, 0
2, 135671, Control_c, 0, 64, 0
2, 135686, Note_on_c, 0, 49, 92
2, 135689, Note_on_c, 0, 87, 100
2, 135690, Note_on_c, 0, 80, 0
2, 135695, Note_on_c, 0, 80, 93
2, 135759, Control_c, 0, 64, 127
2, 135790, Note_on_c, 0, 49, 0
2, 135988, Note_on_c, 0, 85, 72
2, 136135, Note_on_c, 0, 80, 0
2, 136144, Note_on_c, 0, 84, 81
2, 136144, Note_on_c, 0, 60, 79
2, 136145, Note_on_c, 0, 80, 82
2, 136147, Note_on_c, 0, 56, 79
2, 136153, Note_on_c, 0, 76, 77
2, 136155, Note_on_c, 0, 49, 66
2, 136335, Note_on_c, 0, 84, 0
2, 136341, Note_on_c, 0, 84, 52
2, 136427, Note_on_c, 0, 80, 0
2, 136433, Note_on_c, 0, 80, 89
2, 136590, Note_on_c, 0, 82, 89
2, 136727, Note_on_c, 0, 82, 0
2, 136730, Note_on_c, 0, 51, 85
2, 136731, Note_on_c, 0, 58, 88
2, 136734, Note_on_c, 0, 82, 97
2, 136742, Note_on_c, 0, 73, 85
2, 136754, Control_c, 0, 64, 0
2, 136756, Note_on_c, 0, 84, 0
2, 136757, Note_on_c, 0, 85, 0
2, 136759, Note_on_c, 0, 76, 0
2, 136759, Note_on_c, 0, 87, 0
2, 136759, Note_on_c, 0, 49, 0
2, 136760, Note_on_c, 0, 60, 0
2, 136760, Note_on_c, 0, 80, 0
2, 136761, Note_on_c, 0, 56, 0
2, 136778, Note_on_c, 0, 75, 61
2, 136880, Control_c, 0, 64, 127
2, 137050, Note_on_c, 0, 56, 74
2, 137187, Note_on_c, 0, 58, 0
2, 137192, Note_on_c, 0, 58, 79
2, 137350, Note_on_c, 0, 63, 91
2, 137508, Note_on_c, 0, 70, 95
2, 137593, Note_on_c, 0, 68, 86
2, 137648, Note_on_c, 0, 63, 0
2, 137656, Note_on_c, 0, 63, 84
2, 137710, Note_on_c, 0, 68, 0
2, 137720, Note_on_c, 0, 68, 86
2, 137771, Note_on_c, 0, 70, 0
2, 137775, Note_on_c, 0, 70, 75
2, 137840, Note_on_c, 0, 75, 0
2, 137849, Note_on_c, 0, 75, 84
2, 137903, Note_on_c, 0, 80, 94
2, 137978, Note_on_c, 0, 82, 0
2, 137989, Note_on_c, 0, 82, 92
2, 138063, Note_on_c, 0, 68, 0
2, 138064, Note_on_c, 0, 63, 0
2, 138064, Note_on_c, 0, 58, 0
2, 138064, Note_on_c, 0, 73, 0
2, 138065, Note_on_c, 0, 51, 0
2, 138065, Note_on_c, 0, 80, 0
2, 138065, Note_on_c, 0, 75, 0
2, 138065, Note_on_c, 0, 70, 0
2, 138066, Note_on_c, 0, 56, 0
2, 138066, Note_on_c, 0, 82, 0
2, 138067, Control_c, 0, 64, 0
2, 138092, Note_on_c, 0, 87, 108
2, 138097, Note_on_c, 0, 79, 84
2, 138099, Note_on_c, 0, 51, 93
2, 138101, Note_on_c, 0, 75, 100
2, 138101, Note_on_c, 0, 79, 0
2, 138102, Note_on_c, 0, 39, 89
2, 138105, Note_on_c, 0, 46, 97
2, 138124, Control_c, 0, 64, 127
2, 138263, Note_on_c, 0, 46, 0
2, 138263, Note_on_c, 0, 51, 0
2, 138267, Note_on_c, 0, 51, 90
2, 138271, Note_on_c, 0, 46, 75
2, 138312, Control_c, 0, 64, 0
2, 138320, Note_on_c, 0, 46, 0
2, 138321, Note_on_c, 0, 51, 0
2, 138322, Note_on_c, 0, 87, 0
2, 138323, Note_on_c, 0, 39, 0
2, 138323, Note_on_c, 0, 75, 0
2, 138404, Note_on_c, 0, 84, 103
2, 138405, Note_on_c, 0, 72, 102
2, 138409, Note_on_c, 0, 75, 101
2, 138410, Note_on_c, 0, 80, 93
2, 138531, Control_c, 0, 64, 127
2, 138692, Note_on_c, 0, 82, 103
2, 138694, Note_on_c, 0, 70, 110
2, 138839, Note_on_c, 0, 84, 0
2, 138846, Note_on_c, 0, 72, 0
2, 138848, Note_on_c, 0, 84, 94
2, 138851, Note_on_c, 0, 72, 90
2, 138977, Note_on_c, 0, 70, 0
2, 138977, Note_on_c, 0, 82, 0
2, 138987, Note_on_c, 0, 82, 100
2, 138987, Note_on_c, 0, 70, 97
2, 139123, Note_on_c, 0, 80, 0
2, 139132, Note_on_c, 0, 80, 103
2, 139134, Note_on_c, 0, 68, 99
2, 139271, Note_on_c, 0, 72, 0
2, 139271, Note_on_c, 0, 75, 0
2, 139272, Note_on_c, 0, 80, 0
2, 139272, Note_on_c, 0, 84, 0
2, 139274, Control_c, 0, 64, 0
2, 139284, Note_on_c, 0, 70, 0
2, 139284, Note_on_c, 0, 82, 0
2, 139298, Note_on_c, 0, 49, 96
2, 139299, Note_on_c, 0, 68, 0
2, 139302, Note_on_c, 0, 37, 90
2, 139302, Note_on_c, 0, 77, 106
2, 139302, Note_on_c, 0, 65, 95
2, 139303, Note_on_c, 0, 68, 97
2, 139304, Note_on_c, 0, 44, 93
2, 139368, Control_c, 0, 64, 127
2, 139752, Note_on_c, 0, 49, 0
2, 139761, Note_on_c, 0, 49, 81
2, 139926, Note_on_c, 0, 60, 90
2, 139928, Note_on_c, 0, 53, 82
2, 139928, Note_on_c, 0, 56, 86
2, 139929, Note_on_c, 0, 77, 0
2, 139930, Note_on_c, 0, 84, 96
2, 139935, Note_on_c, 0, 72, 89
2, 139936, Note_on_c, 0, 77, 83
2, 139939, Note_on_c, 0, 80, 90
2, 140359, Note_on_c, 0, 37, 0
2, 140359, Note_on_c, 0, 49, 0
2, 140365, Note_on_c, 0, 37, 78
2, 140367, Note_on_c, 0, 49, 76
2, 140511, Note_on_c, 0, 37, 0
2, 140511, Note_on_c, 0, 68, 0
2, 140512, Note_on_c, 0, 72, 0
2, 140513, Note_on_c, 0, 80, 0
2, 140513, Note_on_c, 0, 65, 0
2, 140513, Control_c, 0, 64, 0
2, 140513, Note_on_c, 0, 49, 0
2, 140514, Note_on_c, 0, 77, 0
2, 140514, Note_on_c, 0, 56, 0
2, 140514, Note_on_c, 0, 44, 0
2, 140514, Note_on_c, 0, 84, 0
2, 140514, Note_on_c, 0, 53, 0
2, 140515, Note_on_c, 0, 60, 0
2, 140538, Note_on_c, 0, 82, 101
2, 140540, Note_on_c, 0, 79, 99
2, 140540, Note_on_c, 0, 39, 91
2, 140543, Note_on_c, 0, 51, 93
2, 140546, Note_on_c, 0, 75, 99
2, 140620, Control_c, 0, 64, 127
2, 140835, Note_on_c, 0, 51, 0
2, 140844, Note_on_c, 0, 51, 73
2, 141131, Note_on_c, 0, 89, 101
2, 141135, Note_on_c, 0, 82, 0
2, 141139, Note_on_c, 0, 63, 85
2, 141139, Note_on_c, 0, 82, 85
2, 141140, Note_on_c, 0, 77, 92
2, 141142, Note_on_c, 0, 55, 77
2, 141143, Note_on_c, 0, 58, 86
2, 141592, Note_on_c, 0, 87, 75
2, 141634, Note_on_c, 0, 89, 0
2, 141643, Note_on_c, 0, 89, 90
2, 141716, Note_on_c, 0, 51, 0
2, 141716, Note_on_c, 0, 55, 0
2, 141717, Note_on_c, 0, 39, 0
2, 141717, Note_on_c, 0, 75, 0
2, 141718, Note_on_c, 0, 63, 0
2, 141718, Note_on_c, 0, 77, 0
2, 141718, Note_on_c, 0, 89, 0
2, 141719, Note_on_c, 0, 79, 0
2, 141720, Note_on_c, 0, 58, 0
2, 141720, Control_c, 0, 64, 0
2, 141734, Note_on_c, 0, 87, 0
2, 141744, Note_on_c, 0, 87, 98
2, 141745, Note_on_c, 0, 48, 96
2, 141747, Note_on_c, 0, 36, 92
2, 141749, Note_on_c, 0, 82, 0
2, 141752, Note_on_c, 0, 79, 75
2, 141754, Note_on_c, 0, 82, 81
2, 141790, Note_on_c, 0, 48, 0
2, 141791, Note_on_c, 0, 36, 0
2, 141818, Control_c, 0, 64, 127
2, 142069, Note_on_c, 0, 48, 74
2, 142361, Note_on_c, 0, 63, 93
2, 142365, Note_on_c, 0, 58, 87
2, 142365, Note_on_c, 0, 55, 83
2, 142510, Note_on_c, 0, 79, 0
2, 142513, Note_on_c, 0, 84, 88
2, 142516, Note_on_c, 0, 79, 88
2, 142520, Note_on_c, 0, 72, 88
2, 142640, Note_on_c, 0, 82, 0
2, 142650, Note_on_c, 0, 82, 87
2, 142803, Note_on_c, 0, 80, 102
2, 142809, Note_on_c, 0, 72, 0
2, 142813, Note_on_c, 0, 72, 83
2, 142902, Note_on_c, 0, 87, 0
2, 142904, Note_on_c, 0, 84, 0
2, 142904, Control_c, 0, 64, 0
2, 142904, Note_on_c, 0, 55, 0
2, 142904, Note_on_c, 0, 63, 0
2, 142904, Note_on_c, 0, 58, 0
2, 142904, Note_on_c, 0, 79, 0
2, 142924, Note_on_c, 0, 48, 0
2, 142924, Note_on_c, 0, 82, 0
2, 142951, Note_on_c, 0, 41, 90
2, 142951, Note_on_c, 0, 53, 89
2, 143001, Control_c, 0, 64, 127
2, 143251, Note_on_c, 0, 48, 79
2, 143386, Note_on_c, 0, 56, 88
2, 143513, Note_on_c, 0, 68, 97
2, 143671, Note_on_c, 0, 70, 98
2, 143723, Note_on_c, 0, 41, 0
2, 143728, Note_on_c, 0, 41, 59
2, 143808, Note_on_c, 0, 72, 0
2, 143813, Note_on_c, 0, 72, 91
2, 143838, Note_on_c, 0, 48, 0
2, 143843, Note_on_c, 0, 48, 49
2, 143946, Note_on_c, 0, 68, 0
2, 143955, Note_on_c, 0, 68, 90
2, 144078, Control_c, 0, 64, 0
2, 144079, Note_on_c, 0, 41, 0
2, 144079, Note_on_c, 0, 53, 0
2, 144079, Note_on_c, 0, 48, 0
2, 144080, Note_on_c, 0, 80, 0
2, 144080, Note_on_c, 0, 70, 0
2, 144080, Note_on_c, 0, 56, 0
2, 144080, Note_on_c, 0, 68, 0
2, 144107, Note_on_c, 0, 72, 0
2, 144118, Note_on_c, 0, 46, 92
2, 144118, Note_on_c, 0, 72, 100
2, 144123, Note_on_c, 0, 34, 80
2, 144125, Note_on_c, 0, 65, 85
2, 144127, Note_on_c, 0, 68, 92
2, 144176, Control_c, 0, 64, 127
2, 144199, Note_on_c, 0, 34, 0
2, 144410, Note_on_c, 0, 73, 87
2, 144560, Note_on_c, 0, 72, 0
2, 144564, Note_on_c, 0, 72, 97
2, 144568, Note_on_c, 0, 46, 0
2, 144576, Note_on_c, 0, 68, 0
2, 144577, Note_on_c, 0, 46, 81
2, 144579, Note_on_c, 0, 68, 82
2, 144703, Note_on_c, 0, 56, 95
2, 144703, Note_on_c, 0, 53, 87
2, 144998, Note_on_c, 0, 46, 0
2, 144998, Note_on_c, 0, 73, 0
2, 145004, Note_on_c, 0, 46, 86
2, 145005, Note_on_c, 0, 73, 90
2, 145152, Note_on_c, 0, 72, 0
2, 145163, Note_on_c, 0, 72, 103
2, 145169, Note_on_c, 0, 67, 91
2, 145169, Note_on_c, 0, 64, 94
2, 145237, Note_on_c, 0, 65, 0
2, 145237, Note_on_c, 0, 73, 0
2, 145237, Note_on_c, 0, 68, 0
2, 145238, Note_on_c, 0, 56, 0
2, 145239, Note_on_c, 0, 53, 0
2, 145239, Note_on_c, 0, 46, 0
2, 145241, Control_c, 0, 64, 0
2, 145321, Note_on_c, 0, 48, 95
2, 145324, Note_on_c, 0, 36, 92
2, 145374, Control_c, 0, 64, 127
2, 145602, Note_on_c, 0, 43, 70
2, 145611, Note_on_c, 0, 70, 97
2, 145763, Note_on_c, 0, 68, 95
2, 145766, Note_on_c, 0, 48, 0
2, 145766, Note_on_c, 0, 67, 0
2, 145770, Note_on_c, 0, 48, 72
2, 145774, Note_on_c, 0, 64, 0
2, 145777, Note_on_c, 0, 67, 85
2, 145778, Note_on_c, 0, 64, 74
2, 145889, Control_c, 0, 64, 0
2, 145891, Note_on_c, 0, 70, 0
2, 145891, Note_on_c, 0, 43, 0
2, 145891, Note_on_c, 0, 48, 0
2, 145896, Note_on_c, 0, 36, 0
2, 145909, Note_on_c, 0, 52, 103
2, 145913, Note_on_c, 0, 40, 90
2, 145989, Note_on_c, 0, 72, 0
2, 146004, Control_c, 0, 64, 127
2, 146219, Note_on_c, 0, 70, 90
2, 146224, Note_on_c, 0, 48, 78
2, 146375, Note_on_c, 0, 72, 99
2, 146380, Note_on_c, 0, 68, 0
2, 146382, Note_on_c, 0, 60, 92
2, 146384, Note_on_c, 0, 65, 78
2, 146385, Note_on_c, 0, 68, 83
2, 146434, Note_on_c, 0, 40, 0
2, 146443, Note_on_c, 0, 70, 0
2, 146445, Note_on_c, 0, 48, 0
2, 146446, Control_c, 0, 64, 0
2, 146449, Note_on_c, 0, 52, 0
2, 146449, Note_on_c, 0, 64, 0
2, 146449, Note_on_c, 0, 67, 0
2, 146500, Note_on_c, 0, 41, 96
2, 146572, Control_c, 0, 64, 127
2, 146814, Note_on_c, 0, 48, 80
2, 146972, Note_on_c, 0, 48, 0
2, 146976, Note_on_c, 0, 56, 98
2, 146978, Note_on_c, 0, 48, 63
2, 147102, Note_on_c, 0, 41, 0
2, 147114, Note_on_c, 0, 41, 94
2, 147248, Note_on_c, 0, 48, 0
2, 147248, Note_on_c, 0, 60, 0
2, 147258, Note_on_c, 0, 48, 87
2, 147258, Note_on_c, 0, 60, 92
2, 147386, Note_on_c, 0, 61, 98
2, 147506, Control_c, 0, 64, 0
2, 147508, Note_on_c, 0, 48, 0
2, 147509, Note_on_c, 0, 56, 0
2, 147509, Note_on_c, 0, 60, 0
2, 147509, Note_on_c, 0, 41, 0
2, 147510, Note_on_c, 0, 65, 0
2, 147510, Note_on_c, 0, 72, 0
2, 147532, Note_on_c, 0, 61, 0
2, 147532, Note_on_c, 0, 68, 0
2, 147543, Note_on_c, 0, 61, 104
2, 147551, Note_on_c, 0, 58, 96
2, 147552, Note_on_c, 0, 39, 93
2, 147552, Note_on_c, 0, 51, 95
2, 147624, Control_c, 0, 64, 127
2, 147812, Note_on_c, 0, 46, 71
2, 147957, Control_c, 0, 64, 0
2, 147959, Note_on_c, 0, 39, 0
2, 147960, Note_on_c, 0, 46, 0
2, 147962, Note_on_c, 0, 51, 0
2, 147963, Note_on_c, 0, 58, 0
2, 147965, Note_on_c, 0, 61, 0
2, 147967, Note_on_c, 0, 63, 100
2, 147970, Note_on_c, 0, 60, 89
2, 147971, Note_on_c, 0, 51, 81
2, 147971, Note_on_c, 0, 56, 88
2, 148047, Control_c, 0, 64, 127
2, 148097, Note_on_c, 0, 44, 98
2, 148098, Note_on_c, 0, 32, 85
2, 148124, Note_on_c, 0, 56, 0
2, 148257, Note_on_c, 0, 82, 95
2, 148257, Note_on_c, 0, 70, 97
2, 148405, Note_on_c, 0, 84, 93
2, 148419, Note_on_c, 0, 72, 88
2, 148423, Note_on_c, 0, 60, 0
2, 148430, Note_on_c, 0, 56, 72
2, 148435, Note_on_c, 0, 60, 74
2, 148538, Note_on_c, 0, 82, 0
2, 148546, Note_on_c, 0, 70, 0
2, 148548, Note_on_c, 0, 82, 96
2, 148550, Note_on_c, 0, 70, 92
2, 148686, Note_on_c, 0, 80, 86
2, 148690, Note_on_c, 0, 68, 82
2, 148825, Note_on_c, 0, 51, 0
2, 148825, Note_on_c, 0, 70, 0
2, 148826, Note_on_c, 0, 72, 0
2, 148826, Note_on_c, 0, 60, 0
2, 148826, Note_on_c, 0, 63, 0
2, 148826, Control_c, 0, 64, 0
2, 148826, Note_on_c, 0, 44, 0
2, 148826, Note_on_c, 0, 56, 0
2, 148826, Note_on_c, 0, 84, 0
2, 148826, Note_on_c, 0, 82, 0
2, 148826, Note_on_c, 0, 80, 0
2, 148838, Note_on_c, 0, 32, 0
2, 148844, Note_on_c, 0, 50, 97
2, 148846, Note_on_c, 0, 68, 0
2, 148849, Note_on_c, 0, 38, 91
2, 148849, Note_on_c, 0, 77, 102
2, 148850, Note_on_c, 0, 65, 86
2, 148853, Note_on_c, 0, 68, 87
2, 148945, Control_c, 0, 64, 127
2, 149160, Note_on_c, 0, 65, 0
2, 149268, Note_on_c, 0, 38, 0
2, 149291, Note_on_c, 0, 50, 0
2, 149297, Note_on_c, 0, 50, 78
2, 149460, Note_on_c, 0, 77, 0
2, 149465, Note_on_c, 0, 68, 0
2, 149465, Note_on_c, 0, 84, 95
2, 149466, Note_on_c, 0, 60, 85
2, 149467, Note_on_c, 0, 72, 94
2, 149469, Note_on_c, 0, 77, 85
2, 149472, Note_on_c, 0, 53, 76
2, 149475, Note_on_c, 0, 80, 88
2, 149476, Note_on_c, 0, 56, 78
2, 149752, Note_on_c, 0, 50, 0
2, 149760, Note_on_c, 0, 50, 86
2, 149763, Note_on_c, 0, 38, 77
2, 149918, Note_on_c, 0, 82, 88
2, 149975, Note_on_c, 0, 84, 0
2, 149981, Note_on_c, 0, 84, 82
2, 150035, Control_c, 0, 64, 0
2, 150035, Note_on_c, 0, 56, 0
2, 150036, Note_on_c, 0, 53, 0
2, 150036, Note_on_c, 0, 60, 0
2, 150037, Note_on_c, 0, 72, 0
2, 150037, Note_on_c, 0, 80, 0
2, 150037, Note_on_c, 0, 50, 0
2, 150038, Note_on_c, 0, 84, 0
2, 150039, Note_on_c, 0, 38, 0
2, 150051, Note_on_c, 0, 77, 0
2, 150059, Note_on_c, 0, 82, 0
2, 150065, Note_on_c, 0, 49, 91
2, 150070, Note_on_c, 0, 82, 100
2, 150070, Note_on_c, 0, 37, 91
2, 150073, Note_on_c, 0, 77, 91
2, 150076, Note_on_c, 0, 73, 88
2, 150151, Control_c, 0, 64, 127
2, 150205, Note_on_c, 0, 73, 0
2, 150504, Note_on_c, 0, 37, 0
2, 150520, Note_on_c, 0, 49, 0
2, 150528, Note_on_c, 0, 49, 79
2, 150673, Note_on_c, 0, 77, 0
2, 150674, Note_on_c, 0, 89, 106
2, 150679, Note_on_c, 0, 61, 95
2, 150681, Note_on_c, 0, 82, 0
2, 150683, Note_on_c, 0, 77, 95
2, 150685, Note_on_c, 0, 85, 79
2, 150685, Note_on_c, 0, 82, 82
2, 150688, Note_on_c, 0, 53, 81
2, 150688, Note_on_c, 0, 58, 91
2, 150958, Note_on_c, 0, 49, 0
2, 150962, Note_on_c, 0, 49, 71
2, 150966, Note_on_c, 0, 37, 70
2, 151123, Note_on_c, 0, 87, 77
2, 151165, Note_on_c, 0, 89, 0
2, 151170, Note_on_c, 0, 89, 90
2, 151224, Note_on_c, 0, 58, 0
2, 151225, Note_on_c, 0, 53, 0
2, 151225, Note_on_c, 0, 61, 0
2, 151226, Note_on_c, 0, 85, 0
2, 151226, Note_on_c, 0, 49, 0
2, 151226, Note_on_c, 0, 77, 0
2, 151226, Note_on_c, 0, 89, 0
2, 151226, Note_on_c, 0, 87, 0
2, 151226, Note_on_c, 0, 82, 0
2, 151229, Control_c, 0, 64, 0
2, 151229, Note_on_c, 0, 37, 0
2, 151276, Note_on_c, 0, 87, 99
2, 151277, Note_on_c, 0, 48, 93
2, 151279, Note_on_c, 0, 36, 92
2, 151283, Note_on_c, 0, 75, 96
2, 151283, Note_on_c, 0, 80, 85
2, 151319, Control_c, 0, 64, 127
2, 151576, Note_on_c, 0, 60, 64
2, 151578, Note_on_c, 0, 56, 75
2, 151595, Note_on_c, 0, 36, 0
2, 151881, Note_on_c, 0, 52, 102
2, 151882, Note_on_c, 0, 40, 93
2, 151884, Control_c, 0, 64, 0
2, 151891, Note_on_c, 0, 80, 0
2, 151891, Note_on_c, 0, 75, 0
2, 151892, Note_on_c, 0, 48, 0
2, 151892, Note_on_c, 0, 87, 0
2, 151892, Note_on_c, 0, 56, 0
2, 151918, Note_on_c, 0, 60, 0
2, 151964, Control_c, 0, 64, 127
2, 152022, Note_on_c, 0, 92, 94
2, 152030, Note_on_c, 0, 80, 86
2, 152036, Note_on_c, 0, 84, 61
2, 152184, Note_on_c, 0, 79, 83
2, 152184, Note_on_c, 0, 91, 79
2, 152185, Note_on_c, 0, 93, 87
2, 152249, Note_on_c, 0, 40, 0
2, 152249, Note_on_c, 0, 80, 0
2, 152249, Control_c, 0, 64, 0
2, 152250, Note_on_c, 0, 79, 0
2, 152250, Note_on_c, 0, 93, 0
2, 152250, Note_on_c, 0, 52, 0
2, 152251, Note_on_c, 0, 92, 0
2, 152251, Note_on_c, 0, 84, 0
2, 152251, Note_on_c, 0, 91, 0
2, 152319, Note_on_c, 0, 53, 85
2, 152319, Note_on_c, 0, 41, 85
2, 152322, Note_on_c, 0, 92, 97
2, 152331, Note_on_c, 0, 80, 88
2, 152353, Note_on_c, 0, 90, 54
2, 152355, Control_c, 0, 64, 127
2, 152363, Note_on_c, 0, 90, 0
2, 152632, Note_on_c, 0, 53, 0
2, 152641, Note_on_c, 0, 53, 58
2, 152771, Note_on_c, 0, 72, 88
2, 152775, Note_on_c, 0, 65, 67
2, 152781, Note_on_c, 0, 68, 78
2, 152920, Note_on_c, 0, 55, 62
2, 152925, Note_on_c, 0, 57, 54
2, 152931, Note_on_c, 0, 57, 0
2, 153070, Note_on_c, 0, 70, 89
2, 153221, Note_on_c, 0, 56, 63
2, 153361, Note_on_c, 0, 68, 0
2, 153366, Note_on_c, 0, 68, 87
2, 153434, Note_on_c, 0, 60, 59
2, 153661, Control_c, 0, 64, 0
2, 153667, Note_on_c, 0, 70, 0
2, 153669, Note_on_c, 0, 41, 0
2, 153669, Note_on_c, 0, 65, 0
2, 153669, Note_on_c, 0, 68, 0
2, 153670, Note_on_c, 0, 75, 100
2, 153670, Note_on_c, 0, 72, 0
2, 153670, Note_on_c, 0, 92, 0
2, 153670, Note_on_c, 0, 53, 0
2, 153672, Note_on_c, 0, 55, 0
2, 153672, Note_on_c, 0, 60, 0
2, 153672, Note_on_c, 0, 80, 0
2, 153673, Note_on_c, 0, 58, 76
2, 153675, Note_on_c, 0, 65, 75
2, 153676, Note_on_c, 0, 56, 0
2, 153680, Note_on_c, 0, 68, 86
2, 153682, Note_on_c, 0, 46, 75
2, 153684, Note_on_c, 0, 56, 77
2, 153776, Control_c, 0, 64, 127
2, 153976, Note_on_c, 0, 53, 65
2, 154122, Note_on_c, 0, 68, 0
2, 154129, Note_on_c, 0, 65, 0
2, 154131, Note_on_c, 0, 68, 93
2, 154137, Note_on_c, 0, 56, 0
2, 154141, Note_on_c, 0, 65, 71
2, 154141, Note_on_c, 0, 61, 67
2, 154148, Note_on_c, 0, 56, 70
2, 154452, Note_on_c, 0, 58, 0
2, 154540, Note_on_c, 0, 68, 0
2, 154541, Note_on_c, 0, 65, 0
2, 154541, Note_on_c, 0, 61, 0
2, 154541, Note_on_c, 0, 46, 0
2, 154541, Note_on_c, 0, 75, 0
2, 154541, Note_on_c, 0, 53, 0
2, 154541, Control_c, 0, 64, 0
2, 154541, Note_on_c, 0, 56, 0
2, 154595, Note_on_c, 0, 68, 93
2, 154603, Note_on_c, 0, 58, 74
2, 154605, Note_on_c, 0, 48, 60
2, 154605, Note_on_c, 0, 63, 76
2, 154813, Control_c, 0, 64, 127
2, 155040, Note_on_c, 0, 56, 61
2, 155166, Note_on_c, 0, 58, 0
2, 155171, Note_on_c, 0, 58, 60
2, 155312, Note_on_c, 0, 63, 0
2, 155322, Note_on_c, 0, 63, 56
2, 155473, Note_on_c, 0, 68, 0
2, 155481, Note_on_c, 0, 68, 64
2, 155596, Note_on_c, 0, 58, 0
2, 155602, Note_on_c, 0, 58, 69
2, 155742, Note_on_c, 0, 56, 0
2, 155748, Note_on_c, 0, 56, 65
2, 155888, Note_on_c, 0, 63, 0
2, 155896, Note_on_c, 0, 63, 79
2, 156061, Note_on_c, 0, 75, 92
2, 156065, Note_on_c, 0, 56, 0
2, 156065, Note_on_c, 0, 68, 0
2, 156067, Note_on_c, 0, 49, 73
2, 156069, Note_on_c, 0, 68, 83
2, 156069, Note_on_c, 0, 64, 74
2, 156070, Note_on_c, 0, 56, 74
2, 156086, Control_c, 0, 64, 0
2, 156088, Note_on_c, 0, 63, 0
2, 156088, Note_on_c, 0, 48, 0
2, 156088, Note_on_c, 0, 58, 0
2, 156203, Control_c, 0, 64, 127
2, 156353, Note_on_c, 0, 73, 79
2, 156506, Note_on_c, 0, 72, 87
2, 156794, Note_on_c, 0, 68, 0
2, 156805, Note_on_c, 0, 68, 77
2, 156961, Note_on_c, 0, 70, 88
2, 156986, Note_on_c, 0, 68, 0
2, 156991, Note_on_c, 0, 68, 62
2, 156998, Note_on_c, 0, 63, 54
2, 157248, Note_on_c, 0, 56, 0
2, 157251, Note_on_c, 0, 49, 0
2, 157251, Note_on_c, 0, 64, 0
2, 157253, Note_on_c, 0, 58, 67
2, 157254, Control_c, 0, 64, 0
2, 157255, Note_on_c, 0, 51, 63
2, 157258, Note_on_c, 0, 56, 63
2, 157271, Note_on_c, 0, 73, 0
2, 157278, Note_on_c, 0, 72, 0
2, 157340, Note_on_c, 0, 75, 0
2, 157378, Control_c, 0, 64, 127
2, 157739, Note_on_c, 0, 55, 66
2, 158031, Note_on_c, 0, 58, 0
2, 158035, Note_on_c, 0, 58, 70
2, 158177, Note_on_c, 0, 63, 0
2, 158188, Note_on_c, 0, 63, 69
2, 158479, Note_on_c, 0, 87, 86
2, 158492, Note_on_c, 0, 56, 0
2, 158496, Note_on_c, 0, 80, 68
2, 158497, Control_c, 0, 64, 0
2, 158500, Note_on_c, 0, 46, 52
2, 158500, Note_on_c, 0, 58, 0
2, 158500, Note_on_c, 0, 75, 69
2, 158502, Note_on_c, 0, 55, 0
2, 158502, Note_on_c, 0, 51, 0
2, 158502, Note_on_c, 0, 56, 58
2, 158507, Note_on_c, 0, 63, 0
2, 158507, Note_on_c, 0, 68, 0
2, 158515, Note_on_c, 0, 70, 0
2, 158584, Control_c, 0, 64, 127
2, 158797, Note_on_c, 0, 53, 48
2, 158937, Note_on_c, 0, 80, 0
2, 158942, Note_on_c, 0, 80, 81
2, 158948, Note_on_c, 0, 61, 60
2, 159290, Note_on_c, 0, 87, 0
2, 159390, Note_on_c, 0, 80, 0
2, 159398, Note_on_c, 0, 75, 0
2, 159400, Note_on_c, 0, 80, 76
2, 159404, Note_on_c, 0, 75, 79
2, 159405, Note_on_c, 0, 72, 69
2, 159407, Note_on_c, 0, 60, 66
2, 159411, Note_on_c, 0, 48, 55
2, 159419, Note_on_c, 0, 58, 61
2, 159438, Note_on_c, 0, 46, 0
2, 159439, Control_c, 0, 64, 0
2, 159439, Note_on_c, 0, 61, 0
2, 159440, Note_on_c, 0, 56, 0
2, 159440, Note_on_c, 0, 53, 0
2, 159544, Control_c, 0, 64, 127
2, 159736, Note_on_c, 0, 60, 0
2, 159827, Note_on_c, 0, 56, 53
2, 159966, Note_on_c, 0, 58, 0
2, 159972, Note_on_c, 0, 58, 55
2, 160112, Note_on_c, 0, 56, 0
2, 160118, Note_on_c, 0, 56, 57
2, 160278, Note_on_c, 0, 63, 70
2, 160581, Note_on_c, 0, 75, 0
2, 160585, Note_on_c, 0, 75, 82
2, 160588, Note_on_c, 0, 56, 0
2, 160598, Note_on_c, 0, 56, 53
2, 160897, Note_on_c, 0, 49, 62
2, 160919, Note_on_c, 0, 56, 0
2, 160921, Note_on_c, 0, 76, 75
2, 160926, Note_on_c, 0, 56, 59
2, 160934, Note_on_c, 0, 80, 0
2, 160938, Note_on_c, 0, 80, 70
2, 160939, Note_on_c, 0, 87, 78
2, 160979, Note_on_c, 0, 72, 0
2, 160979, Note_on_c, 0, 58, 0
2, 160980, Note_on_c, 0, 63, 0
2, 160980, Note_on_c, 0, 75, 0
2, 160982, Note_on_c, 0, 48, 0
2, 160991, Control_c, 0, 64, 0
2, 161126, Control_c, 0, 64, 127
2, 161432, Note_on_c, 0, 85, 74
2, 161902, Note_on_c, 0, 76, 0
2, 161902, Note_on_c, 0, 84, 69
2, 161909, Note_on_c, 0, 80, 0
2, 161913, Note_on_c, 0, 76, 62
2, 161920, Note_on_c, 0, 80, 57
2, 161959, Control_c, 0, 64, 0
2, 162040, Control_c, 0, 64, 127
2, 162380, Note_on_c, 0, 82, 70
2, 162808, Note_on_c, 0, 80, 0
2, 162819, Note_on_c, 0, 80, 76
2, 163123, Note_on_c, 0, 82, 0
2, 163128, Note_on_c, 0, 82, 75
2, 163200, Note_on_c, 0, 49, 0
2, 163200, Note_on_c, 0, 56, 0
2, 163200, Note_on_c, 0, 87, 0
2, 163430, Note_on_c, 0, 82, 0
2, 163435, Note_on_c, 0, 51, 52
2, 163438, Note_on_c, 0, 82, 65
2, 163445, Note_on_c, 0, 80, 0
2, 163449, Note_on_c, 0, 70, 56
2, 163454, Note_on_c, 0, 80, 50
2, 163457, Note_on_c, 0, 75, 49
2, 163473, Control_c, 0, 64, 0
2, 163474, Note_on_c, 0, 76, 0
2, 163474, Note_on_c, 0, 85, 0
2, 163476, Note_on_c, 0, 84, 0
2, 163553, Control_c, 0, 64, 127
2, 163733, Note_on_c, 0, 58, 47
2, 163883, Note_on_c, 0, 51, 0
2, 163894, Note_on_c, 0, 63, 52
2, 164206, Note_on_c, 0, 58, 0
2, 164216, Note_on_c, 0, 58, 45
2, 164340, Note_on_c, 0, 65, 41
2, 164677, Note_on_c, 0, 67, 43
2, 166412, Note_on_c, 0, 84, 62
2, 166551, Note_on_c, 0, 85, 81
2, 166671, Note_on_c, 0, 84, 0
2, 166675, Note_on_c, 0, 84, 77
2, 166817, Note_on_c, 0, 82, 0
2, 166821, Note_on_c, 0, 82, 80
2, 166963, Note_on_c, 0, 80, 0
2, 166967, Note_on_c, 0, 80, 68
2, 167040, Note_on_c, 0, 58, 0
2, 167040, Note_on_c, 0, 63, 0
2, 167040, Note_on_c, 0, 65, 0
2, 167040, Note_on_c, 0, 67, 0
2, 167040, Note_on_c, 0, 70, 0
2, 167040, Note_on_c, 0, 75, 0
2, 167124, Note_on_c, 0, 84, 0
2, 167129, Note_on_c, 0, 84, 80
2, 167129, Note_on_c, 0, 49, 57
2, 167129, Note_on_c, 0, 85, 0
2, 167134, Note_on_c, 0, 82, 0
2, 167134, Control_c, 0, 64, 0
2, 167134, Note_on_c, 0, 80, 0
2, 167216, Control_c, 0, 64, 127
2, 167316, Note_on_c, 0, 84, 0
2, 167325, Note_on_c, 0, 84, 42
2, 167573, Note_on_c, 0, 65, 43
2, 168070, Note_on_c, 0, 64, 44
2, 168079, Note_on_c, 0, 48, 39
2, 168090, Note_on_c, 0, 58, 40
2, 168278, Note_on_c, 0, 65, 0
2, 168278, Note_on_c, 0, 49, 0
2, 168281, Control_c, 0, 64, 0
2, 168770, Note_on_c, 0, 55, 35
2, 168924, Note_on_c, 0, 70, 64
2, 168944, Note_on_c, 0, 84, 0
2, 168944, Control_c, 0, 64, 127
2, 169213, Note_on_c, 0, 58, 0
2, 169223, Note_on_c, 0, 58, 46
2, 169534, Note_on_c, 0, 68, 61
2, 169539, Note_on_c, 0, 53, 47
2, 169543, Note_on_c, 0, 60, 47
2, 169546, Control_c, 0, 64, 0
2, 169561, Note_on_c, 0, 48, 0
2, 169562, Note_on_c, 0, 58, 0
2, 169562, Note_on_c, 0, 64, 0
2, 169563, Note_on_c, 0, 55, 0
2, 169564, Note_on_c, 0, 70, 0
2, 169651, Control_c, 0, 64, 127
2, 170007, Note_on_c, 0, 75, 62
2, 170022, Note_on_c, 0, 56, 43
2, 170446, Note_on_c, 0, 74, 60
2, 170476, Note_on_c, 0, 68, 0
2, 170476, Note_on_c, 0, 46, 40
2, 170476, Note_on_c, 0, 58, 42
2, 170477, Note_on_c, 0, 60, 0
2, 170477, Note_on_c, 0, 53, 0
2, 170478, Control_c, 0, 64, 0
2, 170478, Note_on_c, 0, 75, 0
2, 170611, Control_c, 0, 64, 127
2, 170907, Note_on_c, 0, 53, 43
2, 171062, Note_on_c, 0, 77, 50
2, 171363, Note_on_c, 0, 62, 45
2, 171367, Note_on_c, 0, 82, 54
2, 171973, Note_on_c, 0, 53, 0
2, 171973, Note_on_c, 0, 82, 0
2, 171973, Note_on_c, 0, 74, 0
2, 171973, Control_c, 0, 64, 0
2, 171974, Note_on_c, 0, 62, 0
2, 171978, Note_on_c, 0, 46, 0
2, 171981, Note_on_c, 0, 80, 64
2, 171985, Note_on_c, 0, 56, 0
2, 171987, Note_on_c, 0, 46, 41
2, 171990, Note_on_c, 0, 56, 50
2, 172070, Control_c, 0, 64, 127
2, 172270, Note_on_c, 0, 56, 0
2, 172276, Note_on_c, 0, 56, 31
2, 172279, Note_on_c, 0, 82, 66
2, 172425, Note_on_c, 0, 53, 48
2, 172573, Note_on_c, 0, 84, 66
2, 172584, Note_on_c, 0, 77, 0
2, 172591, Note_on_c, 0, 77, 60
2, 172596, Note_on_c, 0, 73, 56
2, 172869, Note_on_c, 0, 56, 0
2, 172880, Note_on_c, 0, 56, 46
2, 173015, Note_on_c, 0, 82, 0
2, 173019, Note_on_c, 0, 82, 59
2, 173061, Note_on_c, 0, 84, 0
2, 173070, Note_on_c, 0, 84, 58
2, 173153, Note_on_c, 0, 82, 0
2, 173156, Note_on_c, 0, 73, 0
2, 173157, Control_c, 0, 64, 0
2, 173157, Note_on_c, 0, 46, 0
2, 173157, Note_on_c, 0, 77, 0
2, 173157, Note_on_c, 0, 80, 0
2, 173157, Note_on_c, 0, 82, 72
2, 173157, Note_on_c, 0, 53, 0
2, 173168, Note_on_c, 0, 58, 0
2, 173171, Note_on_c, 0, 48, 47
2, 173173, Note_on_c, 0, 58, 52
2, 173176, Note_on_c, 0, 56, 0
2, 173180, Note_on_c, 0, 75, 62
2, 173207, Note_on_c, 0, 84, 0
2, 173253, Control_c, 0, 64, 127
2, 173482, Note_on_c, 0, 56, 51
2, 173775, Note_on_c, 0, 56, 0
2, 173780, Note_on_c, 0, 89, 82
2, 173784, Note_on_c, 0, 56, 37
2, 173815, Note_on_c, 0, 77, 64
2, 174082, Note_on_c, 0, 56, 0
2, 174092, Note_on_c, 0, 56, 50
2, 174424, Note_on_c, 0, 87, 66
2, 174431, Note_on_c, 0, 49, 50
2, 174459, Note_on_c, 0, 82, 0
2, 174460, Control_c, 0, 64, 0
2, 174460, Note_on_c, 0, 58, 0
2, 174462, Note_on_c, 0, 48, 0
2, 174463, Note_on_c, 0, 75, 0
2, 174463, Note_on_c, 0, 56, 0
2, 174681, Control_c, 0, 64, 127
2, 174755, Note_on_c, 0, 56, 44
2, 175108, Note_on_c, 0, 60, 41
2, 175501, Note_on_c, 0, 64, 46
2, 175511, Note_on_c, 0, 89, 0
2, 175526, Note_on_c, 0, 77, 0
2, 175901, Note_on_c, 0, 68, 45
2, 176918, Note_on_c, 0, 85, 55
2, 177070, Note_on_c, 0, 84, 52
2, 177250, Note_on_c, 0, 51, 37
2, 177251, Note_on_c, 0, 82, 58
2, 177273, Note_on_c, 0, 58, 30
2, 177289, Note_on_c, 0, 64, 0
2, 177290, Note_on_c, 0, 49, 0
2, 177290, Note_on_c, 0, 56, 0
2, 177291, Control_c, 0, 64, 0
2, 177291, Note_on_c, 0, 60, 0
2, 177292, Note_on_c, 0, 85, 0
2, 177293, Note_on_c, 0, 84, 0
2, 177308, Note_on_c, 0, 68, 0
2, 177323, Note_on_c, 0, 87, 0
2, 177507, Control_c, 0, 64, 127
2, 178616, Note_on_c, 0, 80, 56
2, 179427, Note_on_c, 0, 79, 53
2, 179512, Note_on_c, 0, 82, 0
2, 181021, Note_on_c, 0, 77, 54
2, 181042, Note_on_c, 0, 53, 32
2, 181854, Note_on_c, 0, 51, 0
2, 181885, Note_on_c, 0, 58, 0
2, 182400, Note_on_c, 0, 79, 0
2, 182400, Note_on_c, 0, 80, 0
2, 182422, Note_on_c, 0, 72, 33
2, 182668, Note_on_c, 0, 75, 45
2, 182859, Note_on_c, 0, 70, 47
2, 183045, Note_on_c, 0, 72, 0
2, 183050, Note_on_c, 0, 72, 48
2, 183232, Note_on_c, 0, 68, 47
2, 183383, Note_on_c, 0, 70, 0
2, 183388, Note_on_c, 0, 70, 50
2, 183544, Note_on_c, 0, 72, 0
2, 183553, Note_on_c, 0, 72, 53
2, 183705, Note_on_c, 0, 77, 0
2, 183715, Note_on_c, 0, 77, 59
2, 183851, Note_on_c, 0, 72, 0
2, 183862, Note_on_c, 0, 72, 56
2, 184005, Note_on_c, 0, 75, 0
2, 184016, Note_on_c, 0, 75, 51
2, 184143, Note_on_c, 0, 70, 0
2, 184152, Note_on_c, 0, 70, 54
2, 184289, Note_on_c, 0, 72, 0
2, 184300, Note_on_c, 0, 72, 53
2, 184419, Note_on_c, 0, 68, 0
2, 184429, Note_on_c, 0, 68, 45
2, 184558, Note_on_c, 0, 70, 0
2, 184567, Note_on_c, 0, 70, 50
2, 184696, Note_on_c, 0, 72, 0
2, 184701, Note_on_c, 0, 72, 57
2, 184834, Note_on_c, 0, 77, 0
2, 184845, Note_on_c, 0, 77, 59
2, 184965, Note_on_c, 0, 72, 0
2, 184974, Note_on_c, 0, 72, 64
2, 185095, Note_on_c, 0, 75, 0
2, 185105, Note_on_c, 0, 75, 66
2, 185233, Note_on_c, 0, 70, 0
2, 185240, Note_on_c, 0, 70, 62
2, 185372, Note_on_c, 0, 72, 0
2, 185379, Note_on_c, 0, 72, 63
2, 185495, Note_on_c, 0, 68, 0
2, 185506, Note_on_c, 0, 68, 57
2, 185640, Note_on_c, 0, 70, 0
2, 185646, Note_on_c, 0, 70, 62
2, 185648, Note_on_c, 0, 53, 0
2, 185763, Note_on_c, 0, 72, 0
2, 185767, Note_on_c, 0, 72, 68
2, 185894, Note_on_c, 0, 77, 0
2, 185898, Note_on_c, 0, 77, 65
2, 186032, Note_on_c, 0, 72, 0
2, 186041, Note_on_c, 0, 72, 64
2, 186147, Note_on_c, 0, 75, 0
2, 186152, Note_on_c, 0, 75, 66
2, 186278, Note_on_c, 0, 70, 0
2, 186286, Note_on_c, 0, 70, 59
2, 186393, Note_on_c, 0, 72, 0
2, 186402, Note_on_c, 0, 72, 63
2, 186508, Note_on_c, 0, 68, 0
2, 186518, Note_on_c, 0, 68, 62
2, 186647, Note_on_c, 0, 70, 0
2, 186651, Note_on_c, 0, 70, 61
2, 186765, Note_on_c, 0, 65, 57
2, 186892, Note_on_c, 0, 72, 0
2, 186898, Note_on_c, 0, 72, 65
2, 186902, Note_on_c, 0, 53, 39
2, 187000, Note_on_c, 0, 68, 0
2, 187009, Note_on_c, 0, 60, 58
2, 187011, Note_on_c, 0, 68, 61
2, 187123, Note_on_c, 0, 70, 0
2, 187131, Note_on_c, 0, 70, 65
2, 187148, Note_on_c, 0, 63, 55
2, 187276, Note_on_c, 0, 65, 0
2, 187281, Note_on_c, 0, 65, 33
2, 187376, Note_on_c, 0, 75, 0
2, 187382, Note_on_c, 0, 75, 56
2, 187468, Note_on_c, 0, 72, 0
2, 187473, Note_on_c, 0, 72, 66
2, 187491, Note_on_c, 0, 65, 0
2, 187496, Note_on_c, 0, 65, 47
2, 187599, Note_on_c, 0, 70, 0
2, 187599, Note_on_c, 0, 75, 0
2, 187604, Note_on_c, 0, 75, 66
2, 187610, Note_on_c, 0, 70, 62
2, 187714, Note_on_c, 0, 72, 0
2, 187714, Note_on_c, 0, 77, 0
2, 187722, Note_on_c, 0, 72, 68
2, 187725, Note_on_c, 0, 77, 64
2, 187837, Note_on_c, 0, 65, 0
2, 187842, Note_on_c, 0, 65, 51
2, 187845, Note_on_c, 0, 68, 0
2, 187855, Note_on_c, 0, 68, 49
2, 187857, Note_on_c, 0, 80, 53
2, 187952, Note_on_c, 0, 77, 0
2, 187957, Note_on_c, 0, 77, 63
2, 187983, Note_on_c, 0, 75, 0
2, 187987, Note_on_c, 0, 75, 60
2, 188063, Note_on_c, 0, 82, 68
2, 188067, Note_on_c, 0, 72, 0
2, 188074, Note_on_c, 0, 72, 68
2, 188183, Note_on_c, 0, 80, 0
2, 188187, Note_on_c, 0, 80, 70
2, 188213, Note_on_c, 0, 65, 0
2, 188218, Note_on_c, 0, 65, 49
2, 188313, Note_on_c, 0, 75, 0
2, 188313, Note_on_c, 0, 77, 0
2, 188320, Note_on_c, 0, 77, 66
2, 188323, Note_on_c, 0, 75, 69
2, 188421, Note_on_c, 0, 72, 0
2, 188425, Note_on_c, 0, 84, 62
2, 188432, Note_on_c, 0, 72, 64
2, 188544, Note_on_c, 0, 80, 0
2, 188552, Note_on_c, 0, 80, 73
2, 188605, Note_on_c, 0, 84, 0
2, 188610, Note_on_c, 0, 84, 38
2, 188651, Note_on_c, 0, 65, 0
2, 188658, Note_on_c, 0, 65, 60
2, 188666, Note_on_c, 0, 77, 0
2, 188676, Note_on_c, 0, 77, 72
2, 188774, Note_on_c, 0, 53, 0
2, 188783, Note_on_c, 0, 53, 68
2, 188791, Note_on_c, 0, 87, 74
2, 188912, Note_on_c, 0, 63, 0
2, 188912, Note_on_c, 0, 82, 0
2, 188921, Note_on_c, 0, 82, 68
2, 188922, Note_on_c, 0, 63, 64
2, 189027, Note_on_c, 0, 65, 0
2, 189027, Note_on_c, 0, 84, 0
2, 189037, Note_on_c, 0, 65, 59
2, 189039, Note_on_c, 0, 84, 63
2, 189143, Note_on_c, 0, 70, 0
2, 189143, Note_on_c, 0, 80, 0
2, 189151, Note_on_c, 0, 70, 71
2, 189152, Note_on_c, 0, 80, 73
2, 189173, Note_on_c, 0, 60, 0
2, 189177, Note_on_c, 0, 60, 30
2, 189235, Note_on_c, 0, 84, 0
2, 189239, Note_on_c, 0, 84, 39
2, 189265, Note_on_c, 0, 65, 0
2, 189276, Note_on_c, 0, 65, 58
2, 189312, Note_on_c, 0, 77, 0
2, 189321, Note_on_c, 0, 77, 77
2, 189373, Note_on_c, 0, 72, 0
2, 189383, Note_on_c, 0, 72, 74
2, 189411, Note_on_c, 0, 82, 0
2, 189416, Note_on_c, 0, 82, 74
2, 189488, Note_on_c, 0, 70, 0
2, 189493, Note_on_c, 0, 70, 67
2, 189519, Note_on_c, 0, 75, 0
2, 189524, Note_on_c, 0, 75, 73
2, 189603, Note_on_c, 0, 65, 0
2, 189608, Note_on_c, 0, 65, 51
2, 189626, Note_on_c, 0, 72, 0
2, 189633, Note_on_c, 0, 72, 69
2, 189726, Note_on_c, 0, 70, 0
2, 189726, Note_on_c, 0, 77, 0
2, 189731, Note_on_c, 0, 70, 61
2, 189732, Note_on_c, 0, 77, 75
2, 189841, Note_on_c, 0, 65, 0
2, 189841, Note_on_c, 0, 75, 0
2, 189850, Note_on_c, 0, 65, 57
2, 189851, Note_on_c, 0, 75, 66
2, 189964, Note_on_c, 0, 70, 0
2, 189971, Note_on_c, 0, 70, 69
2, 189987, Note_on_c, 0, 53, 0
2, 189992, Note_on_c, 0, 53, 52
2, 190080, Note_on_c, 0, 68, 0
2, 190087, Note_on_c, 0, 75, 0
2, 190094, Note_on_c, 0, 75, 82
2, 190095, Note_on_c, 0, 65, 0
2, 190100, Note_on_c, 0, 65, 51
2, 190195, Note_on_c, 0, 63, 0
2, 190195, Note_on_c, 0, 70, 0
2, 190204, Note_on_c, 0, 63, 55
2, 190204, Note_on_c, 0, 70, 71
2, 190310, Note_on_c, 0, 60, 0
2, 190314, Note_on_c, 0, 67, 73
2, 190316, Note_on_c, 0, 60, 65
2, 190433, Note_on_c, 0, 70, 0
2, 190437, Note_on_c, 0, 70, 70
2, 190440, Note_on_c, 0, 63, 0
2, 190451, Note_on_c, 0, 63, 51
2, 190533, Note_on_c, 0, 65, 0
2, 190538, Note_on_c, 0, 65, 73
2, 190646, Note_on_c, 0, 70, 0
2, 190648, Note_on_c, 0, 67, 0
2, 190648, Note_on_c, 0, 72, 0
2, 190649, Control_c, 0, 64, 0
2, 190649, Note_on_c, 0, 75, 0
2, 190649, Note_on_c, 0, 63, 0
2, 190649, Note_on_c, 0, 60, 0
2, 190649, Note_on_c, 0, 65, 0
2, 190650, Note_on_c, 0, 82, 0
2, 190650, Note_on_c, 0, 80, 0
2, 190650, Note_on_c, 0, 77, 0
2, 190650, Note_on_c, 0, 84, 0
2, 190651, Note_on_c, 0, 87, 0
2, 190656, Note_on_c, 0, 53, 0
2, 190662, Note_on_c, 0, 53, 79
2, 190665, Note_on_c, 0, 68, 77
2, 190702, Control_c, 0, 64, 127
2, 190792, Note_on_c, 0, 70, 77
2, 190800, Note_on_c, 0, 63, 70
2, 190901, Note_on_c, 0, 72, 82
2, 191009, Note_on_c, 0, 70, 0
2, 191014, Note_on_c, 0, 70, 86
2, 191025, Note_on_c, 0, 75, 82
2, 191124, Note_on_c, 0, 72, 0
2, 191131, Note_on_c, 0, 72, 78
2, 191143, Note_on_c, 0, 65, 59
2, 191216, Note_on_c, 0, 75, 0
2, 191221, Note_on_c, 0, 75, 74
2, 191247, Note_on_c, 0, 70, 0
2, 191254, Note_on_c, 0, 70, 71
2, 191347, Note_on_c, 0, 75, 0
2, 191351, Note_on_c, 0, 77, 85
2, 191356, Note_on_c, 0, 75, 72
2, 191485, Note_on_c, 0, 65, 0
2, 191485, Note_on_c, 0, 70, 0
2, 191490, Note_on_c, 0, 65, 70
2, 191494, Note_on_c, 0, 70, 58
2, 191554, Note_on_c, 0, 77, 0
2, 191559, Note_on_c, 0, 77, 87
2, 191592, Note_on_c, 0, 72, 0
2, 191598, Note_on_c, 0, 72, 77
2, 191680, Note_on_c, 0, 80, 87
2, 191715, Note_on_c, 0, 70, 0
2, 191720, Note_on_c, 0, 70, 71
2, 191731, Note_on_c, 0, 53, 0
2, 191735, Note_on_c, 0, 53, 43
2, 191806, Note_on_c, 0, 82, 89
2, 191823, Note_on_c, 0, 65, 0
2, 191831, Note_on_c, 0, 65, 72
2, 191922, Note_on_c, 0, 84, 85
2, 191946, Note_on_c, 0, 63, 0
2, 191955, Note_on_c, 0, 63, 71
2, 192030, Note_on_c, 0, 53, 0
2, 192037, Note_on_c, 0, 53, 84
2, 192037, Note_on_c, 0, 87, 91
2, 192138, Note_on_c, 0, 65, 0
2, 192148, Note_on_c, 0, 65, 83
2, 192149, Note_on_c, 0, 89, 100
2, 192261, Note_on_c, 0, 63, 0
2, 192261, Note_on_c, 0, 84, 0
2, 192266, Note_on_c, 0, 84, 81
2, 192270, Note_on_c, 0, 63, 81
2, 192368, Note_on_c, 0, 89, 0
2, 192375, Note_on_c, 0, 89, 96
2, 192379, Note_on_c, 0, 60, 85
2, 192488, Note_on_c, 0, 96, 103
2, 192491, Note_on_c, 0, 53, 0
2, 192496, Note_on_c, 0, 53, 81
2, 192599, Note_on_c, 0, 65, 0
2, 192602, Note_on_c, 0, 94, 95
2, 192607, Note_on_c, 0, 65, 69
2, 192714, Note_on_c, 0, 89, 0
2, 192718, Note_on_c, 0, 89, 91
2, 192721, Note_on_c, 0, 63, 0
2, 192726, Note_on_c, 0, 63, 72
2, 192806, Note_on_c, 0, 84, 0
2, 192817, Note_on_c, 0, 84, 84
2, 192829, Note_on_c, 0, 60, 0
2, 192836, Note_on_c, 0, 60, 79
2, 192936, Note_on_c, 0, 82, 0
2, 192940, Note_on_c, 0, 82, 81
2, 192960, Note_on_c, 0, 65, 0
2, 192968, Note_on_c, 0, 65, 66
2, 193059, Note_on_c, 0, 60, 0
2, 193059, Note_on_c, 0, 84, 0
2, 193064, Note_on_c, 0, 84, 71
2, 193065, Note_on_c, 0, 86, 72
2, 193070, Note_on_c, 0, 60, 55
2, 193075, Note_on_c, 0, 63, 0
2, 193082, Note_on_c, 0, 63, 64
2, 193167, Note_on_c, 0, 82, 0
2, 193175, Note_on_c, 0, 53, 0
2, 193175, Note_on_c, 0, 65, 0
2, 193178, Note_on_c, 0, 82, 85
2, 193183, Note_on_c, 0, 65, 69
2, 193186, Note_on_c, 0, 53, 64
2, 193274, Note_on_c, 0, 65, 0
2, 193282, Note_on_c, 0, 77, 0
2, 193285, Note_on_c, 0, 65, 74
2, 193293, Note_on_c, 0, 77, 71
2, 193309, Note_on_c, 0, 76, 57
2, 193405, Note_on_c, 0, 53, 0
2, 193405, Note_on_c, 0, 77, 0
2, 193409, Note_on_c, 0, 53, 74
2, 193410, Note_on_c, 0, 77, 94
2, 193520, Note_on_c, 0, 53, 0
2, 193520, Note_on_c, 0, 65, 0
2, 193520, Note_on_c, 0, 77, 0
2, 193525, Note_on_c, 0, 77, 78
2, 193526, Note_on_c, 0, 53, 72
2, 193527, Note_on_c, 0, 65, 73
2, 193724, Note_on_c, 0, 86, 0
2, 193724, Note_on_c, 0, 96, 0
2, 193724, Note_on_c, 0, 94, 0
2, 193724, Note_on_c, 0, 82, 0
2, 193725, Note_on_c, 0, 84, 0
2, 193725, Note_on_c, 0, 70, 0
2, 193725, Note_on_c, 0, 72, 0
2, 193725, Note_on_c, 0, 76, 0
2, 193725, Note_on_c, 0, 87, 0
2, 193725, Note_on_c, 0, 65, 0
2, 193725, Note_on_c, 0, 53, 0
2, 193725, Note_on_c, 0, 80, 0
2, 193725, Note_on_c, 0, 77, 0
2, 193725, Note_on_c, 0, 68, 0
2, 193726, Note_on_c, 0, 89, 0
2, 193726, Note_on_c, 0, 75, 0
2, 193726, Note_on_c, 0, 63, 0
2, 193728, Control_c, 0, 64, 0
2, 193743, Note_on_c, 0, 60, 0
2, 194230, Note_on_c, 0, 65, 87
2, 194230, Note_on_c, 0, 72, 97
2, 194231, Note_on_c, 0, 60, 87
2, 194232, Note_on_c, 0, 68, 84
2, 194261, Note_on_c, 0, 65, 0
2, 194262, Note_on_c, 0, 68, 0
2, 194263, Note_on_c, 0, 72, 0
2, 194280, Note_on_c, 0, 60, 0
2, 194310, Note_on_c, 0, 72, 106
2, 194311, Note_on_c, 0, 60, 106
2, 194314, Note_on_c, 0, 46, 107
2, 194315, Note_on_c, 0, 68, 103
2, 194315, Note_on_c, 0, 34, 100
2, 194342, Control_c, 0, 64, 127
2, 194439, Note_on_c, 0, 53, 81
2, 194472, Note_on_c, 0, 56, 76
2, 194542, Note_on_c, 0, 72, 0
2, 194549, Note_on_c, 0, 60, 0
2, 194549, Note_on_c, 0, 68, 0
2, 194552, Note_on_c, 0, 72, 87
2, 194553, Note_on_c, 0, 65, 103
2, 194553, Note_on_c, 0, 60, 88
2, 194554, Note_on_c, 0, 68, 91
2, 194568, Control_c, 0, 64, 0
2, 194577, Note_on_c, 0, 72, 0
2, 194577, Note_on_c, 0, 56, 0
2, 194581, Note_on_c, 0, 53, 0
2, 194584, Note_on_c, 0, 46, 0
2, 194588, Note_on_c, 0, 65, 0
2, 194595, Note_on_c, 0, 34, 0
2, 194603, Note_on_c, 0, 60, 0
2, 194611, Note_on_c, 0, 68, 0
2, 194669, Note_on_c, 0, 60, 100
2, 194670, Note_on_c, 0, 46, 110
2, 194672, Note_on_c, 0, 65, 106
2, 194675, Note_on_c, 0, 34, 100
2, 194675, Note_on_c, 0, 56, 93
2, 194703, Control_c, 0, 64, 127
2, 194895, Note_on_c, 0, 65, 0
2, 194903, Note_on_c, 0, 56, 0
2, 194903, Note_on_c, 0, 60, 0
2, 194903, Note_on_c, 0, 72, 109
2, 194904, Note_on_c, 0, 65, 97
2, 194905, Note_on_c, 0, 68, 100
2, 194906, Note_on_c, 0, 53, 92
2, 194907, Note_on_c, 0, 60, 83
2, 194910, Note_on_c, 0, 56, 83
2, 195069, Control_c, 0, 64, 0
2, 195073, Note_on_c, 0, 56, 0
2, 195073, Note_on_c, 0, 72, 0
2, 195074, Note_on_c, 0, 68, 0
2, 195074, Note_on_c, 0, 60, 0
2, 195074, Note_on_c, 0, 53, 0
2, 195075, Note_on_c, 0, 65, 0
2, 195079, Note_on_c, 0, 34, 0
2, 195079, Note_on_c, 0, 46, 0
2, 195159, Note_on_c, 0, 70, 112
2, 195160, Note_on_c, 0, 39, 108
2, 195160, Note_on_c, 0, 51, 108
2, 195162, Note_on_c, 0, 63, 103
2, 195163, Note_on_c, 0, 67, 101
2, 195166, Note_on_c, 0, 46, 98
2, 195194, Control_c, 0, 64, 127
2, 195373, Control_c, 0, 64, 0
2, 195380, Note_on_c, 0, 39, 0
2, 195381, Note_on_c, 0, 63, 0
2, 195381, Note_on_c, 0, 67, 0
2, 195384, Note_on_c, 0, 51, 0
2, 195386, Note_on_c, 0, 46, 0
2, 195389, Note_on_c, 0, 70, 0
2, 195391, Note_on_c, 0, 68, 102
2, 195405, Note_on_c, 0, 65, 63
2, 195429, Note_on_c, 0, 68, 0
2, 195448, Note_on_c, 0, 65, 0
2, 195630, Note_on_c, 0, 67, 106
2, 195634, Note_on_c, 0, 63, 104
2, 195667, Note_on_c, 0, 67, 0
2, 195675, Note_on_c, 0, 63, 0
2, 195880, Note_on_c, 0, 63, 109
2, 195901, Control_c, 0, 64, 127
2, 196127, Note_on_c, 0, 53, 48
2, 196166, Note_on_c, 0, 60, 82
2, 196216, Note_on_c, 0, 63, 0
2, 196224, Note_on_c, 0, 41, 87
2, 196227, Note_on_c, 0, 63, 73
2, 196234, Note_on_c, 0, 48, 78
2, 196239, Control_c, 0, 64, 0
2, 196254, Note_on_c, 0, 53, 0
2, 196264, Note_on_c, 0, 53, 95
2, 196265, Note_on_c, 0, 65, 106
2, 196323, Control_c, 0, 64, 127
2, 196501, Note_on_c, 0, 58, 72
2, 196615, Note_on_c, 0, 53, 0
2, 196620, Note_on_c, 0, 53, 73
2, 196730, Note_on_c, 0, 60, 0
2, 196740, Note_on_c, 0, 60, 70
2, 196830, Note_on_c, 0, 53, 0
2, 196840, Note_on_c, 0, 53, 68
2, 196976, Note_on_c, 0, 63, 0
2, 196985, Note_on_c, 0, 63, 65
2, 197084, Note_on_c, 0, 65, 0
2, 197090, Note_on_c, 0, 65, 81
2, 197095, Note_on_c, 0, 49, 76
2, 197095, Note_on_c, 0, 37, 72
2, 197133, Note_on_c, 0, 41, 0
2, 197134, Note_on_c, 0, 48, 0
2, 197134, Note_on_c, 0, 53, 0
2, 197135, Control_c, 0, 64, 0
2, 197135, Note_on_c, 0, 58, 0
2, 197136, Note_on_c, 0, 63, 0
2, 197160, Note_on_c, 0, 60, 0
2, 197237, Control_c, 0, 64, 127
2, 197321, Note_on_c, 0, 53, 68
2, 197448, Note_on_c, 0, 58, 67
2, 197573, Note_on_c, 0, 56, 67
2, 197679, Note_on_c, 0, 37, 0
2, 197679, Note_on_c, 0, 49, 0
2, 197679, Note_on_c, 0, 58, 0
2, 197680, Note_on_c, 0, 56, 0
2, 197680, Note_on_c, 0, 53, 0
2, 197681, Control_c, 0, 64, 0
2, 197693, Note_on_c, 0, 39, 77
2, 197694, Note_on_c, 0, 51, 76
2, 197696, Note_on_c, 0, 60, 73
2, 197706, Note_on_c, 0, 65, 0
2, 197760, Control_c, 0, 64, 127
2, 197812, Note_on_c, 0, 55, 73
2, 197933, Note_on_c, 0, 58, 71
2, 198050, Note_on_c, 0, 63, 74
2, 198169, Note_on_c, 0, 65, 78
2, 198179, Control_c, 0, 64, 0
2, 198180, Note_on_c, 0, 53, 81
2, 198182, Note_on_c, 0, 41, 79
2, 198184, Note_on_c, 0, 58, 0
2, 198185, Note_on_c, 0, 55, 0
2, 198186, Note_on_c, 0, 39, 0
2, 198186, Note_on_c, 0, 51, 0
2, 198186, Note_on_c, 0, 60, 0
2, 198236, Note_on_c, 0, 63, 0
2, 198259, Control_c, 0, 64, 127
2, 198301, Note_on_c, 0, 55, 77
2, 198417, Note_on_c, 0, 58, 75
2, 198537, Note_on_c, 0, 56, 75
2, 198643, Note_on_c, 0, 60, 87
2, 198750, Note_on_c, 0, 58, 0
2, 198756, Note_on_c, 0, 58, 91
2, 198878, Note_on_c, 0, 63, 89
2, 198912, Note_on_c, 0, 60, 0
2, 198917, Note_on_c, 0, 60, 52
2, 198968, Note_on_c, 0, 41, 0
2, 198969, Note_on_c, 0, 58, 0
2, 198969, Note_on_c, 0, 56, 0
2, 198969, Note_on_c, 0, 53, 0
2, 198970, Note_on_c, 0, 55, 0
2, 198970, Note_on_c, 0, 60, 0
2, 198970, Note_on_c, 0, 63, 0
2, 198975, Control_c, 0, 64, 0
2, 198988, Note_on_c, 0, 65, 0
2, 198998, Note_on_c, 0, 65, 98
2, 198999, Note_on_c, 0, 49, 102
2, 199000, Note_on_c, 0, 37, 96
2, 199057, Control_c, 0, 64, 127
2, 199222, Note_on_c, 0, 53, 92
2, 199235, Note_on_c, 0, 44, 84
2, 199342, Note_on_c, 0, 49, 0
2, 199352, Note_on_c, 0, 49, 83
2, 199352, Note_on_c, 0, 58, 91
2, 199418, Note_on_c, 0, 44, 0
2, 199421, Note_on_c, 0, 63, 94
2, 199426, Note_on_c, 0, 44, 99
2, 199489, Note_on_c, 0, 58, 0
2, 199490, Note_on_c, 0, 65, 0
2, 199490, Note_on_c, 0, 53, 0
2, 199491, Note_on_c, 0, 44, 0
2, 199491, Note_on_c, 0, 37, 0
2, 199491, Note_on_c, 0, 63, 0
2, 199491, Note_on_c, 0, 49, 0
2, 199494, Control_c, 0, 64, 0
2, 199552, Note_on_c, 0, 51, 110
2, 199552, Note_on_c, 0, 80, 112
2, 199553, Note_on_c, 0, 39, 107
2, 199553, Note_on_c, 0, 70, 105
2, 199557, Control_c, 0, 64, 127
2, 199661, Note_on_c, 0, 79, 98
2, 199719, Note_on_c, 0, 80, 0
2, 199720, Control_c, 0, 64, 0
2, 199720, Note_on_c, 0, 39, 0
2, 199721, Note_on_c, 0, 51, 0
2, 199722, Note_on_c, 0, 79, 0
2, 199741, Note_on_c, 0, 70, 0
2, 199786, Note_on_c, 0, 75, 110
2, 199787, Control_c, 0, 64, 127
2, 199787, Note_on_c, 0, 51, 94
2, 199790, Note_on_c, 0, 46, 96
2, 199792, Note_on_c, 0, 63, 96
2, 199943, Note_on_c, 0, 51, 0
2, 199944, Note_on_c, 0, 46, 0
2, 199945, Control_c, 0, 64, 0
2, 199946, Note_on_c, 0, 75, 0
2, 199956, Note_on_c, 0, 63, 0
2, 200032, Note_on_c, 0, 53, 111
2, 200034, Note_on_c, 0, 41, 106
2, 200037, Note_on_c, 0, 77, 105
2, 200056, Control_c, 0, 64, 127
2, 200152, Note_on_c, 0, 67, 99
2, 200268, Note_on_c, 0, 70, 105
2, 200370, Note_on_c, 0, 65, 83
2, 200386, Note_on_c, 0, 41, 0
2, 200396, Note_on_c, 0, 41, 74
2, 200409, Note_on_c, 0, 69, 79
2, 200524, Note_on_c, 0, 41, 0
2, 200526, Note_on_c, 0, 72, 99
2, 200530, Note_on_c, 0, 41, 88
2, 200640, Note_on_c, 0, 53, 0
2, 200640, Note_on_c, 0, 70, 0
2, 200644, Note_on_c, 0, 70, 87
2, 200645, Note_on_c, 0, 53, 87
2, 200652, Note_on_c, 0, 65, 0
2, 200734, Note_on_c, 0, 48, 77
2, 200762, Note_on_c, 0, 75, 101
2, 200825, Note_on_c, 0, 67, 0
2, 200826, Note_on_c, 0, 77, 0
2, 200827, Note_on_c, 0, 48, 0
2, 200827, Note_on_c, 0, 70, 0
2, 200827, Note_on_c, 0, 69, 0
2, 200827, Note_on_c, 0, 72, 0
2, 200827, Note_on_c, 0, 53, 0
2, 200828, Note_on_c, 0, 75, 0
2, 200829, Control_c, 0, 64, 0
2, 200847, Note_on_c, 0, 41, 0
2, 200882, Note_on_c, 0, 49, 105
2, 200886, Note_on_c, 0, 65, 101
2, 200887, Note_on_c, 0, 37, 98
2, 200887, Note_on_c, 0, 77, 108
2, 200889, Note_on_c, 0, 68, 100
2, 200908, Control_c, 0, 64, 127
2, 201039, Note_on_c, 0, 37, 0
2, 201043, Note_on_c, 0, 37, 29
2, 201108, Note_on_c, 0, 49, 0
2, 201116, Note_on_c, 0, 65, 0
2, 201118, Note_on_c, 0, 49, 100
2, 201124, Note_on_c, 0, 65, 93
2, 201242, Note_on_c, 0, 70, 93
2, 201243, Note_on_c, 0, 60, 87
2, 201268, Note_on_c, 0, 53, 34
2, 201277, Note_on_c, 0, 53, 0
2, 201338, Note_on_c, 0, 68, 0
2, 201343, Note_on_c, 0, 56, 83
2, 201346, Note_on_c, 0, 65, 0
2, 201347, Note_on_c, 0, 68, 90
2, 201356, Note_on_c, 0, 65, 61
2, 201426, Note_on_c, 0, 37, 0
2, 201426, Note_on_c, 0, 77, 0
2, 201427, Note_on_c, 0, 70, 0
2, 201427, Note_on_c, 0, 56, 0
2, 201427, Note_on_c, 0, 49, 0
2, 201427, Note_on_c, 0, 60, 0
2, 201427, Note_on_c, 0, 68, 0
2, 201427, Note_on_c, 0, 65, 0
2, 201427, Control_c, 0, 64, 0
2, 201466, Note_on_c, 0, 39, 101
2, 201467, Note_on_c, 0, 51, 107
2, 201467, Note_on_c, 0, 72, 108
2, 201500, Control_c, 0, 64, 127
2, 201594, Note_on_c, 0, 67, 100
2, 201699, Note_on_c, 0, 51, 0
2, 201699, Note_on_c, 0, 67, 0
2, 201704, Note_on_c, 0, 63, 85
2, 201704, Note_on_c, 0, 70, 100
2, 201706, Note_on_c, 0, 51, 78
2, 201708, Note_on_c, 0, 58, 92
2, 201710, Note_on_c, 0, 67, 81
2, 201830, Note_on_c, 0, 75, 96
2, 201888, Note_on_c, 0, 72, 0
2, 201889, Note_on_c, 0, 67, 0
2, 201889, Note_on_c, 0, 63, 0
2, 201889, Note_on_c, 0, 58, 0
2, 201889, Note_on_c, 0, 51, 0
2, 201890, Note_on_c, 0, 70, 0
2, 201890, Note_on_c, 0, 39, 0
2, 201893, Control_c, 0, 64, 0
2, 201927, Note_on_c, 0, 53, 103
2, 201927, Note_on_c, 0, 41, 101
2, 201932, Note_on_c, 0, 77, 100
2, 201960, Control_c, 0, 64, 127
2, 202062, Note_on_c, 0, 65, 87
2, 202163, Note_on_c, 0, 60, 90
2, 202170, Note_on_c, 0, 58, 88
2, 202171, Note_on_c, 0, 70, 98
2, 202283, Note_on_c, 0, 41, 0
2, 202290, Note_on_c, 0, 68, 87
2, 202291, Note_on_c, 0, 53, 0
2, 202292, Note_on_c, 0, 41, 79
2, 202295, Note_on_c, 0, 53, 79
2, 202295, Note_on_c, 0, 44, 71
2, 202295, Note_on_c, 0, 56, 77
2, 202391, Note_on_c, 0, 41, 0
2, 202391, Note_on_c, 0, 53, 0
2, 202394, Note_on_c, 0, 72, 102
2, 202396, Note_on_c, 0, 53, 93
2, 202402, Note_on_c, 0, 41, 72
2, 202513, Note_on_c, 0, 70, 0
2, 202515, Note_on_c, 0, 48, 87
2, 202519, Note_on_c, 0, 70, 93
2, 202621, Note_on_c, 0, 75, 0
2, 202630, Note_on_c, 0, 75, 106
2, 202652, Note_on_c, 0, 73, 61
2, 202708, Note_on_c, 0, 48, 0
2, 202710, Note_on_c, 0, 65, 0
2, 202710, Note_on_c, 0, 41, 0
2, 202710, Note_on_c, 0, 44, 0
2, 202710, Note_on_c, 0, 56, 0
2, 202710, Note_on_c, 0, 68, 0
2, 202710, Note_on_c, 0, 70, 0
2, 202710, Note_on_c, 0, 60, 0
2, 202710, Note_on_c, 0, 72, 0
2, 202711, Control_c, 0, 64, 0
2, 202721, Note_on_c, 0, 58, 0
2, 202728, Note_on_c, 0, 53, 0
2, 202728, Note_on_c, 0, 73, 0
2, 202728, Note_on_c, 0, 75, 0
2, 202736, Note_on_c, 0, 77, 0
2, 202747, Note_on_c, 0, 77, 112
2, 202748, Note_on_c, 0, 49, 100
2, 202750, Note_on_c, 0, 37, 95
2, 202752, Note_on_c, 0, 65, 94
2, 202780, Note_on_c, 0, 39, 59
2, 202782, Control_c, 0, 64, 127
2, 202971, Note_on_c, 0, 72, 93
2, 202972, Note_on_c, 0, 53, 87
2, 202975, Note_on_c, 0, 61, 86
2, 203074, Note_on_c, 0, 80, 92
2, 203162, Note_on_c, 0, 77, 0
2, 203162, Note_on_c, 0, 61, 0
2, 203162, Note_on_c, 0, 65, 0
2, 203162, Note_on_c, 0, 49, 0
2, 203163, Note_on_c, 0, 72, 0
2, 203163, Note_on_c, 0, 53, 0
2, 203163, Note_on_c, 0, 80, 0
2, 203164, Control_c, 0, 64, 0
2, 203165, Note_on_c, 0, 39, 0
2, 203182, Note_on_c, 0, 37, 0
2, 203208, Note_on_c, 0, 79, 94
2, 203236, Note_on_c, 0, 78, 54
2, 203243, Control_c, 0, 64, 127
2, 203301, Note_on_c, 0, 75, 110
2, 203302, Note_on_c, 0, 46, 100
2, 203303, Note_on_c, 0, 39, 95
2, 203305, Note_on_c, 0, 51, 95
2, 203412, Note_on_c, 0, 79, 0
2, 203417, Note_on_c, 0, 78, 0
2, 203418, Control_c, 0, 64, 0
2, 203421, Note_on_c, 0, 75, 0
2, 203423, Note_on_c, 0, 51, 0
2, 203423, Note_on_c, 0, 39, 0
2, 203423, Note_on_c, 0, 46, 0
2, 203437, Note_on_c, 0, 60, 85
2, 203478, Note_on_c, 0, 60, 0
2, 203562, Note_on_c, 0, 68, 80
2, 203589, Note_on_c, 0, 68, 0
2, 203680, Note_on_c, 0, 67, 77
2, 203715, Note_on_c, 0, 67, 0
2, 203812, Note_on_c, 0, 68, 93
2, 203815, Note_on_c, 0, 56, 75
2, 203816, Note_on_c, 0, 60, 72
2, 203816, Note_on_c, 0, 53, 75
2, 203853, Note_on_c, 0, 56, 0
2, 203854, Note_on_c, 0, 53, 0
2, 203922, Note_on_c, 0, 56, 76
2, 203934, Note_on_c, 0, 53, 69
2, 203965, Note_on_c, 0, 53, 0
2, 203967, Note_on_c, 0, 56, 0
2, 204034, Note_on_c, 0, 53, 74
2, 204039, Note_on_c, 0, 56, 59
2, 204073, Note_on_c, 0, 53, 0
2, 204078, Note_on_c, 0, 56, 0
2, 204088, Note_on_c, 0, 60, 0
2, 204103, Note_on_c, 0, 68, 0
2, 204143, Note_on_c, 0, 53, 65
2, 204153, Note_on_c, 0, 56, 64
2, 204153, Note_on_c, 0, 60, 54
2, 204162, Note_on_c, 0, 67, 77
2, 204186, Note_on_c, 0, 53, 0
2, 204189, Note_on_c, 0, 60, 0
2, 204192, Note_on_c, 0, 56, 0
2, 204211, Note_on_c, 0, 67, 0
2, 204266, Note_on_c, 0, 56, 70
2, 204284, Note_on_c, 0, 68, 88
2, 204286, Note_on_c, 0, 53, 59
2, 204293, Note_on_c, 0, 60, 62
2, 204308, Note_on_c, 0, 56, 0
2, 204319, Note_on_c, 0, 53, 0
2, 204398, Note_on_c, 0, 53, 64
2, 204405, Note_on_c, 0, 56, 55
2, 204438, Note_on_c, 0, 53, 0
2, 204449, Note_on_c, 0, 56, 0
2, 204523, Note_on_c, 0, 53, 62
2, 204527, Note_on_c, 0, 56, 57
2, 204554, Note_on_c, 0, 68, 0
2, 204560, Note_on_c, 0, 53, 0
2, 204565, Note_on_c, 0, 56, 0
2, 204572, Note_on_c, 0, 60, 0
2, 204630, Note_on_c, 0, 67, 82
2, 204638, Note_on_c, 0, 56, 64
2, 204638, Note_on_c, 0, 53, 61
2, 204674, Note_on_c, 0, 67, 0
2, 204677, Note_on_c, 0, 53, 0
2, 204680, Note_on_c, 0, 56, 0
2, 204752, Note_on_c, 0, 68, 92
2, 204757, Note_on_c, 0, 49, 62
2, 204759, Note_on_c, 0, 53, 69
2, 204760, Note_on_c, 0, 56, 69
2, 204791, Note_on_c, 0, 56, 0
2, 204793, Note_on_c, 0, 53, 0
2, 204793, Note_on_c, 0, 49, 0
2, 204884, Note_on_c, 0, 53, 65
2, 204885, Note_on_c, 0, 56, 56
2, 204922, Note_on_c, 0, 53, 0
2, 204923, Note_on_c, 0, 68, 0
2, 204924, Note_on_c, 0, 56, 0
2, 204991, Note_on_c, 0, 67, 78
2, 204991, Note_on_c, 0, 56, 66
2, 205003, Note_on_c, 0, 53, 60
2, 205031, Note_on_c, 0, 67, 0
2, 205035, Note_on_c, 0, 56, 0
2, 205036, Note_on_c, 0, 53, 0
2, 205108, Note_on_c, 0, 56, 70
2, 205111, Note_on_c, 0, 65, 83
2, 205113, Note_on_c, 0, 53, 62
2, 205133, Note_on_c, 0, 61, 64
2, 205149, Note_on_c, 0, 56, 0
2, 205178, Note_on_c, 0, 53, 0
2, 205201, Note_on_c, 0, 61, 0
2, 205219, Note_on_c, 0, 56, 70
2, 205254, Note_on_c, 0, 53, 43
2, 205258, Note_on_c, 0, 56, 0
2, 205336, Note_on_c, 0, 63, 86
2, 205340, Note_on_c, 0, 53, 0
2, 205343, Note_on_c, 0, 56, 69
2, 205346, Note_on_c, 0, 49, 59
2, 205347, Note_on_c, 0, 53, 56
2, 205355, Note_on_c, 0, 65, 0
2, 205389, Note_on_c, 0, 56, 0
2, 205389, Note_on_c, 0, 53, 0
2, 205389, Note_on_c, 0, 49, 0
2, 205390, Note_on_c, 0, 63, 0
2, 205459, Note_on_c, 0, 56, 66
2, 205487, Note_on_c, 0, 53, 43
2, 205505, Note_on_c, 0, 56, 0
2, 205506, Note_on_c, 0, 53, 0
2, 205570, Note_on_c, 0, 56, 77
2, 205573, Note_on_c, 0, 63, 91
2, 205574, Note_on_c, 0, 49, 64
2, 205612, Note_on_c, 0, 49, 0
2, 205616, Note_on_c, 0, 56, 0
2, 205617, Note_on_c, 0, 63, 0
2, 205690, Note_on_c, 0, 51, 89
2, 205696, Note_on_c, 0, 55, 82
2, 205696, Note_on_c, 0, 63, 88
2, 205729, Note_on_c, 0, 51, 0
2, 205729, Note_on_c, 0, 55, 0
2, 205812, Note_on_c, 0, 51, 80
2, 205845, Note_on_c, 0, 51, 0
2, 205853, Note_on_c, 0, 63, 0
2, 205922, Note_on_c, 0, 58, 82
2, 205927, Note_on_c, 0, 51, 74
2, 205927, Note_on_c, 0, 55, 55
2, 205958, Note_on_c, 0, 51, 0
2, 205962, Note_on_c, 0, 58, 0
2, 205992, Note_on_c, 0, 55, 0
2, 206041, Note_on_c, 0, 51, 74
2, 206043, Note_on_c, 0, 63, 88
2, 206049, Note_on_c, 0, 58, 64
2, 206050, Note_on_c, 0, 55, 53
2, 206081, Note_on_c, 0, 51, 0
2, 206086, Note_on_c, 0, 55, 0
2, 206089, Note_on_c, 0, 58, 0
2, 206171, Note_on_c, 0, 51, 69
2, 206172, Note_on_c, 0, 58, 64
2, 206181, Note_on_c, 0, 55, 62
2, 206198, Note_on_c, 0, 51, 0
2, 206231, Note_on_c, 0, 55, 0
2, 206261, Note_on_c, 0, 58, 0
2, 206280, Note_on_c, 0, 61, 91
2, 206281, Note_on_c, 0, 51, 71
2, 206286, Note_on_c, 0, 55, 70
2, 206319, Note_on_c, 0, 51, 0
2, 206321, Note_on_c, 0, 55, 0
2, 206324, Note_on_c, 0, 61, 0
2, 206330, Note_on_c, 0, 63, 0
2, 206392, Note_on_c, 0, 51, 81
2, 206411, Note_on_c, 0, 58, 45
2, 206416, Note_on_c, 0, 55, 49
2, 206427, Note_on_c, 0, 51, 0
2, 206453, Note_on_c, 0, 58, 0
2, 206461, Note_on_c, 0, 55, 0
2, 206511, Note_on_c, 0, 61, 95
2, 206527, Note_on_c, 0, 51, 63
2, 206530, Note_on_c, 0, 55, 49
2, 206547, Note_on_c, 0, 61, 0
2, 206561, Note_on_c, 0, 51, 0
2, 206576, Note_on_c, 0, 55, 0
2, 206619, Note_on_c, 0, 51, 80
2, 206625, Note_on_c, 0, 61, 96
2, 206626, Note_on_c, 0, 58, 77
2, 206628, Note_on_c, 0, 44, 78
2, 206664, Note_on_c, 0, 51, 0
2, 206665, Note_on_c, 0, 44, 0
2, 206748, Note_on_c, 0, 51, 71
2, 206752, Note_on_c, 0, 44, 59
2, 206765, Note_on_c, 0, 56, 54
2, 206766, Note_on_c, 0, 60, 78
2, 206786, Note_on_c, 0, 51, 0
2, 206799, Note_on_c, 0, 58, 0
2, 206805, Note_on_c, 0, 44, 0
2, 206830, Note_on_c, 0, 56, 0
2, 206837, Note_on_c, 0, 60, 0
2, 206850, Note_on_c, 0, 61, 0
2, 206857, Note_on_c, 0, 51, 65
2, 206863, Note_on_c, 0, 56, 55
2, 206876, Note_on_c, 0, 44, 47
2, 206891, Note_on_c, 0, 51, 0
2, 206922, Note_on_c, 0, 56, 0
2, 206929, Note_on_c, 0, 44, 0
2, 206971, Note_on_c, 0, 51, 84
2, 206973, Note_on_c, 0, 60, 91
2, 206988, Note_on_c, 0, 56, 75
2, 207002, Note_on_c, 0, 44, 66
2, 207003, Note_on_c, 0, 51, 0
2, 207052, Note_on_c, 0, 44, 0
2, 207096, Note_on_c, 0, 44, 86
2, 207110, Note_on_c, 0, 51, 73
2, 207138, Note_on_c, 0, 44, 0
2, 207160, Note_on_c, 0, 51, 0
2, 207212, Note_on_c, 0, 51, 87
2, 207213, Note_on_c, 0, 44, 84
2, 207248, Note_on_c, 0, 44, 0
2, 207250, Note_on_c, 0, 51, 0
2, 207298, Control_c, 0, 64, 127
2, 207333, Note_on_c, 0, 51, 82
2, 207333, Note_on_c, 0, 44, 66
2, 207406, Note_on_c, 0, 51, 0
2, 207416, Note_on_c, 0, 51, 72
2, 207479, Control_c, 0, 64, 0
2, 207479, Note_on_c, 0, 44, 0
2, 207480, Note_on_c, 0, 56, 0
2, 207480, Note_on_c, 0, 51, 0
2, 207498, Note_on_c, 0, 60, 0
2, 207557, Note_on_c, 0, 46, 103
2, 207562, Note_on_c, 0, 34, 97
2, 207562, Note_on_c, 0, 61, 99
2, 207563, Note_on_c, 0, 58, 95
2, 207563, Note_on_c, 0, 53, 88
2, 207575, Control_c, 0, 64, 127
2, 207744, Note_on_c, 0, 34, 0
2, 207795, Control_c, 0, 64, 0
2, 207805, Note_on_c, 0, 53, 0
2, 207808, Note_on_c, 0, 46, 0
2, 207810, Note_on_c, 0, 49, 76
2, 207812, Note_on_c, 0, 53, 60
2, 207813, Note_on_c, 0, 61, 0
2, 207819, Note_on_c, 0, 63, 82
2, 207855, Note_on_c, 0, 49, 0
2, 207866, Note_on_c, 0, 53, 0
2, 207874, Note_on_c, 0, 58, 0
2, 207917, Note_on_c, 0, 49, 81
2, 207921, Note_on_c, 0, 53, 65
2, 207922, Note_on_c, 0, 46, 71
2, 207955, Note_on_c, 0, 49, 0
2, 207955, Note_on_c, 0, 53, 0
2, 207960, Note_on_c, 0, 46, 0
2, 208041, Note_on_c, 0, 63, 0
2, 208047, Note_on_c, 0, 49, 77
2, 208049, Note_on_c, 0, 53, 74
2, 208050, Note_on_c, 0, 46, 79
2, 208051, Note_on_c, 0, 65, 90
2, 208084, Note_on_c, 0, 53, 0
2, 208086, Note_on_c, 0, 49, 0
2, 208090, Note_on_c, 0, 46, 0
2, 208148, Note_on_c, 0, 46, 80
2, 208150, Note_on_c, 0, 49, 82
2, 208154, Note_on_c, 0, 53, 69
2, 208194, Note_on_c, 0, 46, 0
2, 208194, Note_on_c, 0, 49, 0
2, 208200, Note_on_c, 0, 53, 0
2, 208220, Note_on_c, 0, 65, 0
2, 208278, Note_on_c, 0, 49, 78
2, 208279, Note_on_c, 0, 67, 97
2, 208282, Note_on_c, 0, 53, 67
2, 208304, Control_c, 0, 64, 127
2, 208381, Note_on_c, 0, 49, 0
2, 208386, Note_on_c, 0, 49, 78
2, 208389, Note_on_c, 0, 46, 60
2, 208424, Note_on_c, 0, 53, 0
2, 208428, Note_on_c, 0, 49, 0
2, 208429, Control_c, 0, 64, 0
2, 208429, Note_on_c, 0, 67, 0
2, 208458, Note_on_c, 0, 46, 0
2, 208507, Note_on_c, 0, 68, 99
2, 208515, Note_on_c, 0, 48, 102
2, 208515, Note_on_c, 0, 60, 85
2, 208518, Note_on_c, 0, 36, 96
2, 208542, Control_c, 0, 64, 127
2, 208547, Note_on_c, 0, 48, 0
2, 208635, Note_on_c, 0, 67, 87
2, 208638, Note_on_c, 0, 48, 80
2, 208719, Note_on_c, 0, 60, 0
2, 208721, Note_on_c, 0, 67, 0
2, 208721, Control_c, 0, 64, 0
2, 208742, Note_on_c, 0, 36, 0
2, 208742, Note_on_c, 0, 68, 0
2, 208752, Note_on_c, 0, 65, 90
2, 208757, Note_on_c, 0, 48, 0
2, 208768, Note_on_c, 0, 48, 80
2, 208768, Note_on_c, 0, 51, 76
2, 208799, Note_on_c, 0, 48, 0
2, 208801, Note_on_c, 0, 65, 0
2, 208806, Note_on_c, 0, 51, 0
2, 208868, Note_on_c, 0, 63, 96
2, 208868, Note_on_c, 0, 51, 79
2, 208869, Note_on_c, 0, 48, 76
2, 208904, Note_on_c, 0, 51, 0
2, 208905, Note_on_c, 0, 48, 0
2, 208965, Note_on_c, 0, 63, 0
2, 208975, Note_on_c, 0, 51, 87
2, 208976, Note_on_c, 0, 48, 86
2, 208976, Note_on_c, 0, 63, 79
2, 209017, Note_on_c, 0, 48, 0
2, 209019, Note_on_c, 0, 51, 0
2, 209057, Note_on_c, 0, 63, 0
2, 209084, Note_on_c, 0, 48, 88
2, 209097, Note_on_c, 0, 51, 81
2, 209098, Note_on_c, 0, 63, 84
2, 209128, Note_on_c, 0, 48, 0
2, 209128, Note_on_c, 0, 51, 0
2, 209201, Note_on_c, 0, 51, 90
2, 209211, Note_on_c, 0, 65, 84
2, 209264, Note_on_c, 0, 63, 0
2, 209327, Note_on_c, 0, 67, 96
2, 209336, Note_on_c, 0, 51, 0
2, 209402, Note_on_c, 0, 65, 0
2, 209443, Note_on_c, 0, 68, 107
2, 209444, Note_on_c, 0, 49, 105
2, 209446, Note_on_c, 0, 61, 97
2, 209447, Note_on_c, 0, 37, 93
2, 209449, Note_on_c, 0, 65, 71
2, 209487, Note_on_c, 0, 49, 0
2, 209488, Note_on_c, 0, 37, 0
2, 209510, Control_c, 0, 64, 127
2, 209564, Note_on_c, 0, 61, 0
2, 209569, Note_on_c, 0, 61, 84
2, 209569, Note_on_c, 0, 49, 74
2, 209669, Note_on_c, 0, 53, 83
2, 209771, Note_on_c, 0, 49, 0
2, 209779, Note_on_c, 0, 68, 0
2, 209782, Note_on_c, 0, 49, 84
2, 209789, Note_on_c, 0, 68, 94
2, 209794, Note_on_c, 0, 65, 0
2, 209802, Note_on_c, 0, 61, 0
2, 209804, Note_on_c, 0, 65, 77
2, 209806, Note_on_c, 0, 61, 84
2, 209882, Control_c, 0, 64, 0
2, 209889, Note_on_c, 0, 67, 0
2, 209892, Note_on_c, 0, 53, 0
2, 209894, Note_on_c, 0, 61, 0
2, 209895, Note_on_c, 0, 65, 0
2, 209909, Note_on_c, 0, 49, 0
2, 209917, Note_on_c, 0, 68, 0
2, 209921, Note_on_c, 0, 70, 108
2, 209922, Note_on_c, 0, 47, 102
2, 209923, Note_on_c, 0, 59, 101
2, 209923, Note_on_c, 0, 35, 96
2, 209965, Note_on_c, 0, 47, 0
2, 209986, Note_on_c, 0, 59, 0
2, 209994, Control_c, 0, 64, 127
2, 210114, Note_on_c, 0, 47, 69
2, 210120, Note_on_c, 0, 59, 75
2, 210138, Note_on_c, 0, 68, 92
2, 210192, Note_on_c, 0, 47, 0
2, 210192, Control_c, 0, 64, 0
2, 210194, Note_on_c, 0, 59, 0
2, 210196, Note_on_c, 0, 70, 0
2, 210198, Note_on_c, 0, 68, 0
2, 210201, Note_on_c, 0, 35, 0
2, 210278, Note_on_c, 0, 67, 108
2, 210280, Note_on_c, 0, 48, 107
2, 210281, Note_on_c, 0, 60, 98
2, 210281, Note_on_c, 0, 36, 99
2, 210309, Control_c, 0, 64, 127
2, 210467, Note_on_c, 0, 36, 0
2, 210469, Note_on_c, 0, 48, 0
2, 210481, Control_c, 0, 64, 0
2, 210502, Note_on_c, 0, 49, 92
2, 210529, Note_on_c, 0, 36, 45
2, 210539, Note_on_c, 0, 36, 0
2, 210544, Note_on_c, 0, 49, 0
2, 210608, Note_on_c, 0, 60, 0
2, 210614, Note_on_c, 0, 48, 75
2, 210619, Note_on_c, 0, 60, 77
2, 210645, Note_on_c, 0, 59, 51
2, 210659, Note_on_c, 0, 48, 0
2, 210662, Note_on_c, 0, 67, 0
2, 210665, Note_on_c, 0, 60, 0
2, 210693, Note_on_c, 0, 59, 0
2, 210728, Note_on_c, 0, 46, 94
2, 210781, Note_on_c, 0, 46, 0
2, 210824, Note_on_c, 0, 48, 102
2, 210868, Note_on_c, 0, 48, 0
2, 210885, Control_c, 0, 64, 127
2, 210938, Note_on_c, 0, 36, 98
2, 210938, Note_on_c, 0, 48, 92
2, 210940, Note_on_c, 0, 60, 94
2, 211042, Note_on_c, 0, 36, 0
2, 211047, Note_on_c, 0, 60, 0
2, 211051, Note_on_c, 0, 70, 104
2, 211061, Note_on_c, 0, 48, 0
2, 211080, Control_c, 0, 64, 0
2, 211111, Note_on_c, 0, 70, 0
2, 211174, Note_on_c, 0, 68, 107
2, 211175, Note_on_c, 0, 41, 103
2, 211177, Note_on_c, 0, 29, 98
2, 211178, Note_on_c, 0, 60, 101
2, 211180, Note_on_c, 0, 57, 95
2, 211184, Note_on_c, 0, 57, 0
2, 211215, Control_c, 0, 64, 127
2, 211415, Note_on_c, 0, 29, 0
2, 211415, Note_on_c, 0, 41, 0
2, 211419, Note_on_c, 0, 41, 80
2, 211419, Note_on_c, 0, 29, 73
2, 211519, Control_c, 0, 64, 0
2, 211528, Note_on_c, 0, 56, 97
2, 211532, Note_on_c, 0, 48, 82
2, 211571, Note_on_c, 0, 48, 0
2, 211572, Note_on_c, 0, 60, 0
2, 211573, Note_on_c, 0, 68, 0
2, 211575, Note_on_c, 0, 56, 0
2, 211576, Note_on_c, 0, 41, 0
2, 211584, Note_on_c, 0, 29, 0
2, 211657, Note_on_c, 0, 67, 96
2, 211659, Note_on_c, 0, 41, 80
2, 211661, Note_on_c, 0, 29, 70
2, 211694, Note_on_c, 0, 67, 0
2, 211695, Note_on_c, 0, 41, 0
2, 211705, Note_on_c, 0, 29, 0
2, 211781, Note_on_c, 0, 68, 104
2, 211785, Note_on_c, 0, 56, 78
2, 211786, Note_on_c, 0, 60, 79
2, 211829, Control_c, 0, 64, 127
2, 211901, Note_on_c, 0, 41, 93
2, 212006, Note_on_c, 0, 56, 0
2, 212013, Note_on_c, 0, 56, 98
2, 212029, Note_on_c, 0, 41, 0
2, 212040, Note_on_c, 0, 41, 57
2, 212048, Note_on_c, 0, 43, 53
2, 212048, Note_on_c, 0, 44, 64
2, 212052, Note_on_c, 0, 43, 0
2, 212126, Note_on_c, 0, 67, 92
2, 212131, Note_on_c, 0, 48, 74
2, 212134, Control_c, 0, 64, 0
2, 212142, Note_on_c, 0, 41, 0
2, 212144, Note_on_c, 0, 56, 0
2, 212152, Note_on_c, 0, 68, 0
2, 212160, Note_on_c, 0, 60, 0
2, 212167, Note_on_c, 0, 44, 0
2, 212173, Note_on_c, 0, 67, 0
2, 212183, Note_on_c, 0, 48, 0
2, 212255, Note_on_c, 0, 68, 108
2, 212256, Note_on_c, 0, 49, 102
2, 212256, Note_on_c, 0, 37, 94
2, 212257, Note_on_c, 0, 65, 86
2, 212260, Note_on_c, 0, 56, 85
2, 212260, Note_on_c, 0, 61, 93
2, 212293, Note_on_c, 0, 49, 0
2, 212313, Control_c, 0, 64, 127
2, 212482, Note_on_c, 0, 37, 0
2, 212488, Control_c, 0, 64, 0
2, 212490, Note_on_c, 0, 61, 0
2, 212494, Note_on_c, 0, 49, 83
2, 212496, Note_on_c, 0, 53, 83
2, 212497, Note_on_c, 0, 65, 0
2, 212499, Note_on_c, 0, 61, 84
2, 212501, Note_on_c, 0, 67, 91
2, 212501, Note_on_c, 0, 55, 79
2, 212508, Note_on_c, 0, 65, 78
2, 212533, Note_on_c, 0, 65, 0
2, 212533, Note_on_c, 0, 53, 0
2, 212536, Note_on_c, 0, 68, 0
2, 212538, Note_on_c, 0, 61, 0
2, 212539, Note_on_c, 0, 56, 0
2, 212539, Note_on_c, 0, 49, 0
2, 212544, Note_on_c, 0, 67, 0
2, 212551, Note_on_c, 0, 55, 0
2, 212621, Note_on_c, 0, 65, 97
2, 212628, Note_on_c, 0, 61, 77
2, 212640, Note_on_c, 0, 49, 68
2, 212645, Note_on_c, 0, 51, 58
2, 212646, Note_on_c, 0, 56, 52
2, 212648, Note_on_c, 0, 58, 54
2, 212651, Note_on_c, 0, 39, 59
2, 212669, Note_on_c, 0, 65, 0
2, 212669, Note_on_c, 0, 61, 0
2, 212676, Note_on_c, 0, 58, 0
2, 212682, Note_on_c, 0, 56, 0
2, 212685, Note_on_c, 0, 39, 0
2, 212686, Note_on_c, 0, 49, 0
2, 212689, Note_on_c, 0, 51, 0
2, 212865, Note_on_c, 0, 63, 102
2, 212869, Note_on_c, 0, 37, 71
2, 212872, Note_on_c, 0, 49, 63
2, 212904, Control_c, 0, 64, 127
2, 212984, Note_on_c, 0, 53, 83
2, 212992, Note_on_c, 0, 50, 70
2, 213081, Note_on_c, 0, 63, 0
2, 213091, Note_on_c, 0, 63, 101
2, 213114, Control_c, 0, 64, 0
2, 213115, Note_on_c, 0, 37, 0
2, 213116, Note_on_c, 0, 49, 0
2, 213116, Note_on_c, 0, 50, 0
2, 213117, Note_on_c, 0, 53, 0
2, 213121, Note_on_c, 0, 63, 0
2, 213220, Note_on_c, 0, 63, 105
2, 213223, Note_on_c, 0, 39, 91
2, 213225, Note_on_c, 0, 55, 87
2, 213226, Note_on_c, 0, 58, 82
2, 213242, Control_c, 0, 64, 127
2, 213442, Note_on_c, 0, 55, 0
2, 213442, Note_on_c, 0, 58, 0
2, 213446, Note_on_c, 0, 58, 94
2, 213447, Note_on_c, 0, 46, 77
2, 213450, Note_on_c, 0, 55, 69
2, 213482, Control_c, 0, 64, 0
2, 213483, Note_on_c, 0, 63, 0
2, 213484, Note_on_c, 0, 58, 0
2, 213485, Note_on_c, 0, 39, 0
2, 213485, Note_on_c, 0, 46, 0
2, 213511, Note_on_c, 0, 55, 0
2, 213568, Note_on_c, 0, 39, 86
2, 213569, Note_on_c, 0, 63, 98
2, 213658, Note_on_c, 0, 39, 0
2, 213711, Control_c, 0, 64, 127
2, 213797, Note_on_c, 0, 39, 77
2, 213801, Note_on_c, 0, 61, 102
2, 213926, Note_on_c, 0, 55, 72
2, 213959, Note_on_c, 0, 57, 46
2, 213961, Note_on_c, 0, 50, 43
2, 214033, Note_on_c, 0, 55, 0
2, 214033, Note_on_c, 0, 61, 0
2, 214040, Note_on_c, 0, 55, 48
2, 214041, Note_on_c, 0, 61, 104
2, 214093, Control_c, 0, 64, 0
2, 214097, Note_on_c, 0, 50, 0
2, 214098, Note_on_c, 0, 63, 0
2, 214098, Note_on_c, 0, 55, 0
2, 214099, Note_on_c, 0, 39, 0
2, 214110, Note_on_c, 0, 57, 0
2, 214149, Note_on_c, 0, 44, 95
2, 214253, Note_on_c, 0, 60, 98
2, 214287, Note_on_c, 0, 61, 0
2, 214295, Control_c, 0, 64, 127
2, 214327, Note_on_c, 0, 51, 93
2, 214450, Note_on_c, 0, 56, 84
2, 214487, Note_on_c, 0, 60, 0
2, 214497, Note_on_c, 0, 60, 98
2, 214556, Note_on_c, 0, 51, 0
2, 214561, Note_on_c, 0, 51, 92
2, 214663, Note_on_c, 0, 44, 0
2, 214674, Note_on_c, 0, 44, 84
2, 214725, Note_on_c, 0, 56, 0
2, 214736, Note_on_c, 0, 56, 81
2, 214848, Note_on_c, 0, 43, 81
2, 214955, Note_on_c, 0, 51, 0
2, 214966, Note_on_c, 0, 51, 76
2, 215025, Note_on_c, 0, 56, 0
2, 215025, Note_on_c, 0, 51, 0
2, 215025, Control_c, 0, 64, 0
2, 215026, Note_on_c, 0, 43, 0
2, 215040, Note_on_c, 0, 44, 0
2, 215047, Note_on_c, 0, 60, 0
2, 215082, Note_on_c, 0, 46, 97
2, 215082, Note_on_c, 0, 61, 102
2, 215082, Note_on_c, 0, 34, 94
2, 215083, Note_on_c, 0, 58, 97
2, 215118, Note_on_c, 0, 46, 0
2, 215139, Control_c, 0, 64, 127
2, 215326, Note_on_c, 0, 56, 89
2, 215326, Note_on_c, 0, 53, 76
2, 215333, Note_on_c, 0, 63, 86
2, 215448, Note_on_c, 0, 46, 86
2, 215547, Control_c, 0, 64, 0
2, 215551, Note_on_c, 0, 63, 0
2, 215551, Note_on_c, 0, 58, 0
2, 215562, Note_on_c, 0, 34, 0
2, 215562, Note_on_c, 0, 53, 0
2, 215562, Note_on_c, 0, 56, 0
2, 215568, Note_on_c, 0, 65, 94
2, 215569, Note_on_c, 0, 53, 79
2, 215569, Note_on_c, 0, 61, 0
2, 215570, Note_on_c, 0, 56, 90
2, 215574, Note_on_c, 0, 61, 92
2, 215585, Note_on_c, 0, 46, 0
2, 215606, Note_on_c, 0, 53, 0
2, 215611, Note_on_c, 0, 56, 0
2, 215687, Note_on_c, 0, 46, 94
2, 215700, Control_c, 0, 64, 127
2, 215795, Note_on_c, 0, 56, 98
2, 215796, Note_on_c, 0, 67, 97
2, 215796, Note_on_c, 0, 53, 84
2, 215808, Note_on_c, 0, 65, 0
2, 215816, Note_on_c, 0, 65, 60
2, 215861, Note_on_c, 0, 46, 0
2, 215872, Note_on_c, 0, 46, 97
2, 215952, Note_on_c, 0, 60, 81
2, 215996, Note_on_c, 0, 46, 0
2, 215997, Note_on_c, 0, 67, 0
2, 215997, Note_on_c, 0, 53, 0
2, 215998, Control_c, 0, 64, 0
2, 215999, Note_on_c, 0, 65, 0
2, 216000, Note_on_c, 0, 61, 0
2, 216015, Note_on_c, 0, 56, 0
2, 216021, Note_on_c, 0, 63, 96
2, 216026, Note_on_c, 0, 56, 90
2, 216034, Note_on_c, 0, 68, 95
2, 216037, Note_on_c, 0, 48, 100
2, 216040, Note_on_c, 0, 36, 99
2, 216076, Control_c, 0, 64, 127
2, 216152, Note_on_c, 0, 67, 93
2, 216169, Note_on_c, 0, 55, 76
2, 216274, Control_c, 0, 64, 0
2, 216280, Note_on_c, 0, 65, 99
2, 216287, Note_on_c, 0, 63, 0
2, 216291, Note_on_c, 0, 68, 0
2, 216291, Note_on_c, 0, 56, 0
2, 216291, Note_on_c, 0, 60, 0
2, 216294, Note_on_c, 0, 48, 0
2, 216297, Note_on_c, 0, 67, 0
2, 216298, Note_on_c, 0, 60, 71
2, 216299, Note_on_c, 0, 36, 0
2, 216300, Note_on_c, 0, 56, 83
2, 216305, Note_on_c, 0, 51, 80
2, 216314, Note_on_c, 0, 55, 0
2, 216326, Note_on_c, 0, 65, 0
2, 216333, Note_on_c, 0, 56, 0
2, 216341, Note_on_c, 0, 51, 0
2, 216396, Note_on_c, 0, 63, 102
2, 216396, Note_on_c, 0, 48, 84
2, 216402, Note_on_c, 0, 56, 80
2, 216447, Note_on_c, 0, 48, 0
2, 216506, Note_on_c, 0, 56, 0
2, 216511, Note_on_c, 0, 51, 93
2, 216512, Note_on_c, 0, 56, 84
2, 216557, Note_on_c, 0, 56, 0
2, 216559, Note_on_c, 0, 51, 0
2, 216563, Note_on_c, 0, 63, 0
2, 216568, Note_on_c, 0, 60, 0
2, 216633, Note_on_c, 0, 63, 94
2, 216633, Note_on_c, 0, 48, 91
2, 216637, Note_on_c, 0, 53, 74
2, 216637, Control_c, 0, 64, 127
2, 216641, Note_on_c, 0, 56, 73
2, 216740, Note_on_c, 0, 65, 93
2, 216760, Note_on_c, 0, 56, 0
2, 216764, Note_on_c, 0, 56, 60
2, 216774, Note_on_c, 0, 51, 60
2, 216851, Note_on_c, 0, 67, 101
2, 216933, Control_c, 0, 64, 0
2, 216936, Note_on_c, 0, 63, 0
2, 216936, Note_on_c, 0, 67, 0
2, 216936, Note_on_c, 0, 65, 0
2, 216938, Note_on_c, 0, 51, 0
2, 216944, Note_on_c, 0, 53, 0
2, 216952, Note_on_c, 0, 48, 0
2, 216952, Note_on_c, 0, 56, 0
2, 216977, Note_on_c, 0, 68, 108
2, 216985, Note_on_c, 0, 62, 93
2, 216986, Note_on_c, 0, 65, 88
2, 216987, Note_on_c, 0, 50, 101
2, 216989, Note_on_c, 0, 38, 100
2, 217029, Control_c, 0, 64, 127
2, 217104, Note_on_c, 0, 46, 82
2, 217213, Note_on_c, 0, 50, 0
2, 217218, Note_on_c, 0, 50, 86
2, 217328, Note_on_c, 0, 46, 0
2, 217328, Note_on_c, 0, 62, 0
2, 217328, Note_on_c, 0, 65, 0
2, 217328, Note_on_c, 0, 68, 0
2, 217333, Note_on_c, 0, 68, 102
2, 217337, Note_on_c, 0, 65, 81
2, 217339, Note_on_c, 0, 46, 84
2, 217339, Note_on_c, 0, 62, 83
2, 217433, Control_c, 0, 64, 0
2, 217437, Note_on_c, 0, 38, 0
2, 217439, Note_on_c, 0, 50, 0
2, 217439, Note_on_c, 0, 46, 0
2, 217440, Note_on_c, 0, 68, 0
2, 217443, Note_on_c, 0, 62, 0
2, 217443, Note_on_c, 0, 65, 0
2, 217447, Note_on_c, 0, 70, 108
2, 217448, Note_on_c, 0, 58, 90
2, 217449, Note_on_c, 0, 65, 85
2, 217451, Note_on_c, 0, 62, 99
2, 217512, Control_c, 0, 64, 127
2, 217565, Note_on_c, 0, 31, 96
2, 217677, Note_on_c, 0, 68, 97
2, 217681, Note_on_c, 0, 43, 85
2, 217684, Note_on_c, 0, 59, 79
2, 217689, Note_on_c, 0, 59, 0
2, 217751, Note_on_c, 0, 58, 0
2, 217753, Note_on_c, 0, 31, 0
2, 217754, Note_on_c, 0, 62, 0
2, 217755, Note_on_c, 0, 70, 0
2, 217755, Note_on_c, 0, 68, 0
2, 217758, Control_c, 0, 64, 0
2, 217774, Note_on_c, 0, 65, 0
2, 217789, Note_on_c, 0, 43, 0
2, 217807, Note_on_c, 0, 67, 107
2, 217814, Note_on_c, 0, 60, 102
2, 217815, Note_on_c, 0, 48, 109
2, 217816, Note_on_c, 0, 36, 102
2, 217817, Note_on_c, 0, 65, 90
2, 217881, Control_c, 0, 64, 127
2, 218042, Note_on_c, 0, 48, 0
2, 218048, Note_on_c, 0, 48, 81
2, 218156, Note_on_c, 0, 53, 92
2, 218261, Note_on_c, 0, 55, 91
2, 218365, Note_on_c, 0, 36, 0
2, 218365, Note_on_c, 0, 48, 0
2, 218374, Note_on_c, 0, 48, 111
2, 218376, Note_on_c, 0, 36, 107
2, 218380, Note_on_c, 0, 50, 91
2, 218388, Note_on_c, 0, 50, 0
2, 218480, Note_on_c, 0, 60, 0
2, 218488, Note_on_c, 0, 72, 107
2, 218489, Note_on_c, 0, 60, 103
2, 218601, Note_on_c, 0, 82, 107
2, 218604, Note_on_c, 0, 70, 104
2, 218661, Note_on_c, 0, 65, 0
2, 218661, Note_on_c, 0, 67, 0
2, 218661, Note_on_c, 0, 82, 0
2, 218662, Note_on_c, 0, 55, 0
2, 218662, Note_on_c, 0, 70, 0
2, 218662, Note_on_c, 0, 48, 0
2, 218662, Note_on_c, 0, 36, 0
2, 218662, Note_on_c, 0, 72, 0
2, 218663, Note_on_c, 0, 53, 0
2, 218663, Control_c, 0, 64, 0
2, 218680, Note_on_c, 0, 60, 0
2, 218721, Note_on_c, 0, 68, 105
2, 218721, Note_on_c, 0, 80, 101
2, 218754, Note_on_c, 0, 68, 0
2, 218761, Note_on_c, 0, 80, 0
2, 218837, Note_on_c, 0, 41, 110
2, 218840, Note_on_c, 0, 29, 102
2, 218842, Note_on_c, 0, 80, 105
2, 218842, Note_on_c, 0, 68, 108
2, 218843, Note_on_c, 0, 72, 101
2, 218856, Control_c, 0, 64, 127
2, 219041, Note_on_c, 0, 29, 0
2, 219048, Note_on_c, 0, 41, 0
2, 219052, Note_on_c, 0, 29, 86
2, 219052, Note_on_c, 0, 41, 91
2, 219179, Note_on_c, 0, 29, 0
2, 219179, Note_on_c, 0, 41, 0
2, 219185, Note_on_c, 0, 41, 82
2, 219188, Note_on_c, 0, 29, 76
2, 219188, Note_on_c, 0, 65, 73
2, 219196, Note_on_c, 0, 68, 0
2, 219226, Control_c, 0, 64, 0
2, 219240, Note_on_c, 0, 80, 0
2, 219248, Note_on_c, 0, 41, 0
2, 219264, Note_on_c, 0, 29, 0
2, 219264, Note_on_c, 0, 65, 0
2, 219302, Control_c, 0, 64, 127
2, 219321, Note_on_c, 0, 32, 97
2, 219322, Note_on_c, 0, 44, 100
2, 219432, Control_c, 0, 64, 0
2, 219432, Note_on_c, 0, 32, 0
2, 219432, Note_on_c, 0, 72, 0
2, 219437, Note_on_c, 0, 60, 98
2, 219437, Note_on_c, 0, 72, 103
2, 219441, Note_on_c, 0, 32, 81
2, 219540, Note_on_c, 0, 72, 0
2, 219548, Note_on_c, 0, 60, 0
2, 219550, Note_on_c, 0, 72, 104
2, 219552, Note_on_c, 0, 36, 78
2, 219553, Note_on_c, 0, 60, 94
2, 219555, Control_c, 0, 64, 127
2, 219563, Note_on_c, 0, 36, 0
2, 219624, Note_on_c, 0, 32, 0
2, 219640, Note_on_c, 0, 44, 0
2, 219651, Note_on_c, 0, 44, 85
2, 219666, Note_on_c, 0, 32, 68
2, 219668, Note_on_c, 0, 70, 103
2, 219671, Note_on_c, 0, 60, 0
2, 219680, Control_c, 0, 64, 0
2, 219680, Note_on_c, 0, 60, 80
2, 219689, Note_on_c, 0, 44, 0
2, 219690, Note_on_c, 0, 32, 0
2, 219694, Note_on_c, 0, 72, 0
2, 219719, Note_on_c, 0, 70, 0
2, 219732, Note_on_c, 0, 60, 0
2, 219775, Note_on_c, 0, 34, 107
2, 219788, Note_on_c, 0, 46, 107
2, 219790, Note_on_c, 0, 72, 101
2, 219795, Note_on_c, 0, 60, 102
2, 219797, Note_on_c, 0, 65, 89
2, 219818, Note_on_c, 0, 34, 0
2, 219819, Note_on_c, 0, 46, 0
2, 219833, Note_on_c, 0, 60, 0
2, 219850, Note_on_c, 0, 72, 0
2, 219878, Note_on_c, 0, 65, 0
2, 219905, Note_on_c, 0, 34, 99
2, 219974, Note_on_c, 0, 60, 98
2, 219975, Note_on_c, 0, 65, 103
2, 219980, Note_on_c, 0, 46, 86
2, 220005, Note_on_c, 0, 60, 0
2, 220039, Control_c, 0, 64, 127
2, 220047, Note_on_c, 0, 34, 0
2, 220057, Note_on_c, 0, 34, 50
2, 220101, Note_on_c, 0, 46, 0
2, 220110, Note_on_c, 0, 46, 92
2, 220135, Note_on_c, 0, 63, 103
2, 220138, Note_on_c, 0, 60, 90
2, 220189, Control_c, 0, 64, 0
2, 220190, Note_on_c, 0, 46, 0
2, 220191, Note_on_c, 0, 34, 0
2, 220191, Note_on_c, 0, 60, 0
2, 220191, Note_on_c, 0, 63, 0
2, 220193, Note_on_c, 0, 65, 0
2, 220258, Note_on_c, 0, 48, 106
2, 220264, Note_on_c, 0, 36, 102
2, 220266, Note_on_c, 0, 72, 110
2, 220266, Note_on_c, 0, 60, 101
2, 220272, Note_on_c, 0, 65, 92
2, 220273, Note_on_c, 0, 69, 85
2, 220277, Note_on_c, 0, 69, 0
2, 220285, Control_c, 0, 64, 127
2, 220321, Note_on_c, 0, 48, 0
2, 220344, Control_c, 0, 64, 0
2, 220354, Note_on_c, 0, 60, 0
2, 220354, Note_on_c, 0, 72, 0
2, 220362, Note_on_c, 0, 65, 0
2, 220369, Note_on_c, 0, 36, 0
2, 220380, Note_on_c, 0, 36, 88
2, 220448, Note_on_c, 0, 48, 94
2, 220450, Note_on_c, 0, 60, 99
2, 220451, Note_on_c, 0, 68, 83
2, 220457, Note_on_c, 0, 69, 84
2, 220515, Control_c, 0, 64, 127
2, 220550, Note_on_c, 0, 43, 95
2, 220608, Note_on_c, 0, 60, 0
2, 220608, Note_on_c, 0, 68, 0
2, 220612, Note_on_c, 0, 60, 104
2, 220612, Note_on_c, 0, 72, 93
2, 220614, Note_on_c, 0, 68, 88
2, 220614, Note_on_c, 0, 63, 103
2, 220635, Control_c, 0, 64, 0
2, 220653, Note_on_c, 0, 48, 0
2, 220654, Note_on_c, 0, 36, 0
2, 220659, Note_on_c, 0, 63, 0
2, 220661, Note_on_c, 0, 43, 0
2, 220661, Note_on_c, 0, 72, 0
2, 220669, Note_on_c, 0, 69, 0
2, 220677, Note_on_c, 0, 60, 0
2, 220718, Note_on_c, 0, 41, 113
2, 220719, Note_on_c, 0, 29, 100
2, 220753, Control_c, 0, 64, 127
2, 220846, Note_on_c, 0, 29, 0
2, 220846, Note_on_c, 0, 41, 0
2, 220850, Note_on_c, 0, 29, 78
2, 220850, Note_on_c, 0, 41, 94
2, 220956, Note_on_c, 0, 53, 101
2, 221076, Note_on_c, 0, 41, 0
2, 221095, Note_on_c, 0, 44, 112
2, 221097, Note_on_c, 0, 32, 96
2, 221101, Note_on_c, 0, 34, 86
2, 221145, Note_on_c, 0, 68, 0
2, 221268, Control_c, 0, 64, 0
2, 221271, Note_on_c, 0, 34, 0
2, 221276, Note_on_c, 0, 53, 0
2, 221283, Note_on_c, 0, 29, 0
2, 221306, Note_on_c, 0, 32, 0
2, 221306, Note_on_c, 0, 44, 0
2, 221311, Note_on_c, 0, 84, 104
2, 221311, Note_on_c, 0, 72, 104
2, 221316, Note_on_c, 0, 32, 81
2, 221316, Note_on_c, 0, 44, 88
2, 221337, Control_c, 0, 64, 127
2, 221399, Note_on_c, 0, 44, 0
2, 221404, Note_on_c, 0, 44, 85
2, 221422, Note_on_c, 0, 72, 0
2, 221422, Note_on_c, 0, 84, 0
2, 221427, Note_on_c, 0, 84, 104
2, 221429, Note_on_c, 0, 72, 101
2, 221517, Note_on_c, 0, 39, 88
2, 221533, Note_on_c, 0, 82, 100
2, 221537, Note_on_c, 0, 72, 0
2, 221547, Note_on_c, 0, 72, 98
2, 221561, Note_on_c, 0, 84, 0
2, 221563, Control_c, 0, 64, 0
2, 221564, Note_on_c, 0, 44, 0
2, 221564, Note_on_c, 0, 39, 0
2, 221564, Note_on_c, 0, 32, 0
2, 221568, Note_on_c, 0, 82, 0
2, 221583, Note_on_c, 0, 72, 0
2, 221629, Control_c, 0, 64, 127
2, 221631, Note_on_c, 0, 46, 108
2, 221632, Note_on_c, 0, 34, 98
2, 221634, Note_on_c, 0, 72, 109
2, 221638, Note_on_c, 0, 84, 102
2, 221641, Note_on_c, 0, 77, 101
2, 221744, Note_on_c, 0, 84, 0
2, 221752, Note_on_c, 0, 72, 0
2, 221752, Note_on_c, 0, 77, 0
2, 221755, Note_on_c, 0, 84, 90
2, 221757, Note_on_c, 0, 72, 95
2, 221757, Note_on_c, 0, 77, 86
2, 221763, Note_on_c, 0, 41, 86
2, 221836, Note_on_c, 0, 34, 0
2, 221836, Note_on_c, 0, 46, 0
2, 221842, Note_on_c, 0, 46, 100
2, 221848, Note_on_c, 0, 34, 87
2, 221854, Note_on_c, 0, 70, 97
2, 221856, Note_on_c, 0, 82, 93
2, 221896, Control_c, 0, 64, 0
2, 221900, Note_on_c, 0, 46, 0
2, 221900, Note_on_c, 0, 72, 0
2, 221901, Note_on_c, 0, 77, 0
2, 221901, Note_on_c, 0, 41, 0
2, 221901, Note_on_c, 0, 34, 0
2, 221906, Note_on_c, 0, 82, 0
2, 221913, Note_on_c, 0, 84, 0
2, 221921, Note_on_c, 0, 70, 0
2, 221972, Note_on_c, 0, 48, 109
2, 221976, Note_on_c, 0, 72, 107
2, 221977, Note_on_c, 0, 36, 103
2, 221977, Note_on_c, 0, 84, 105
2, 221979, Note_on_c, 0, 77, 96
2, 221982, Control_c, 0, 64, 127
2, 222002, Note_on_c, 0, 78, 61
2, 222197, Note_on_c, 0, 72, 0
2, 222207, Control_c, 0, 64, 0
2, 222209, Note_on_c, 0, 72, 104
2, 222209, Note_on_c, 0, 60, 107
2, 222210, Note_on_c, 0, 65, 88
2, 222210, Note_on_c, 0, 67, 98
2, 222213, Note_on_c, 0, 78, 0
2, 222232, Note_on_c, 0, 36, 0
2, 222232, Note_on_c, 0, 77, 0
2, 222243, Note_on_c, 0, 84, 0
2, 222248, Note_on_c, 0, 48, 0
2, 222254, Note_on_c, 0, 72, 0
2, 222255, Note_on_c, 0, 65, 0
2, 222256, Note_on_c, 0, 60, 0
2, 222257, Note_on_c, 0, 67, 0
2, 222321, Note_on_c, 0, 48, 106
2, 222336, Control_c, 0, 64, 127
2, 222371, Note_on_c, 0, 43, 82
2, 222424, Note_on_c, 0, 35, 85
2, 222492, Note_on_c, 0, 35, 0
2, 222493, Note_on_c, 0, 48, 0
2, 222493, Note_on_c, 0, 43, 0
2, 222497, Control_c, 0, 64, 0
2, 222537, Note_on_c, 0, 41, 110
2, 222538, Note_on_c, 0, 29, 106
2, 222574, Control_c, 0, 64, 127
2, 222658, Note_on_c, 0, 29, 0
2, 222658, Note_on_c, 0, 41, 0
2, 222664, Note_on_c, 0, 29, 85
2, 222664, Note_on_c, 0, 41, 89
2, 222701, Control_c, 0, 64, 0
2, 222784, Note_on_c, 0, 36, 88
2, 222789, Control_c, 0, 64, 127
2, 222881, Note_on_c, 0, 29, 0
2, 222881, Note_on_c, 0, 41, 0
2, 222886, Note_on_c, 0, 41, 81
2, 222886, Note_on_c, 0, 29, 88
2, 222962, Note_on_c, 0, 36, 0
2, 222962, Note_on_c, 0, 29, 0
2, 222962, Note_on_c, 0, 41, 0
2, 222969, Control_c, 0, 64, 0
2, 223009, Note_on_c, 0, 32, 97
2, 223009, Note_on_c, 0, 44, 112
2, 223050, Control_c, 0, 64, 127
2, 223122, Note_on_c, 0, 72, 105
2, 223126, Note_on_c, 0, 60, 103
2, 223126, Note_on_c, 0, 39, 91
2, 223184, Control_c, 0, 64, 0
2, 223184, Note_on_c, 0, 44, 0
2, 223184, Note_on_c, 0, 60, 0
2, 223185, Note_on_c, 0, 72, 0
2, 223185, Note_on_c, 0, 39, 0
2, 223185, Note_on_c, 0, 32, 0
2, 223243, Note_on_c, 0, 72, 106
2, 223244, Note_on_c, 0, 32, 88
2, 223245, Note_on_c, 0, 44, 94
2, 223245, Note_on_c, 0, 60, 99
2, 223342, Control_c, 0, 64, 127
2, 223361, Note_on_c, 0, 70, 107
2, 223364, Note_on_c, 0, 58, 92
2, 223364, Note_on_c, 0, 39, 81
2, 223369, Note_on_c, 0, 72, 0
2, 223372, Note_on_c, 0, 60, 0
2, 223380, Control_c, 0, 64, 0
2, 223401, Note_on_c, 0, 70, 0
2, 223403, Note_on_c, 0, 58, 0
2, 223405, Note_on_c, 0, 39, 0
2, 223406, Note_on_c, 0, 44, 0
2, 223418, Note_on_c, 0, 32, 0
2, 223476, Note_on_c, 0, 46, 109
2, 223476, Note_on_c, 0, 34, 102
2, 223476, Note_on_c, 0, 72, 108
2, 223478, Note_on_c, 0, 60, 102
2, 223483, Note_on_c, 0, 65, 98
2, 223513, Note_on_c, 0, 65, 0
2, 223513, Note_on_c, 0, 60, 0
2, 223517, Note_on_c, 0, 72, 0
2, 223518, Note_on_c, 0, 34, 0
2, 223519, Note_on_c, 0, 46, 0
2, 223598, Note_on_c, 0, 34, 96
2, 223603, Control_c, 0, 64, 127
2, 223667, Note_on_c, 0, 60, 97
2, 223668, Note_on_c, 0, 72, 78
2, 223668, Note_on_c, 0, 65, 96
2, 223675, Note_on_c, 0, 46, 94
2, 223691, Control_c, 0, 64, 0
2, 223702, Note_on_c, 0, 60, 0
2, 223704, Note_on_c, 0, 34, 0
2, 223707, Note_on_c, 0, 46, 0
2, 223707, Note_on_c, 0, 65, 0
2, 223749, Note_on_c, 0, 72, 0
2, 223759, Note_on_c, 0, 34, 89
2, 223779, Control_c, 0, 64, 127
2, 223818, Note_on_c, 0, 34, 0
2, 223821, Note_on_c, 0, 63, 108
2, 223822, Note_on_c, 0, 60, 92
2, 223822, Note_on_c, 0, 46, 93
2, 223823, Note_on_c, 0, 34, 88
2, 223860, Note_on_c, 0, 60, 0
2, 223860, Note_on_c, 0, 34, 0
2, 223862, Note_on_c, 0, 46, 0
2, 223866, Note_on_c, 0, 63, 0
2, 223867, Control_c, 0, 64, 0
2, 223945, Note_on_c, 0, 48, 110
2, 223949, Note_on_c, 0, 36, 105
2, 223951, Note_on_c, 0, 72, 111
2, 223951, Note_on_c, 0, 60, 110
2, 223959, Note_on_c, 0, 71, 90
2, 223964, Control_c, 0, 64, 127
2, 223983, Note_on_c, 0, 60, 0
2, 223997, Note_on_c, 0, 72, 0
2, 224017, Note_on_c, 0, 48, 0
2, 224022, Control_c, 0, 64, 0
2, 224064, Note_on_c, 0, 36, 0
2, 224064, Control_c, 0, 64, 127
2, 224074, Note_on_c, 0, 36, 85
2, 224122, Note_on_c, 0, 65, 102
2, 224122, Note_on_c, 0, 60, 94
2, 224271, Note_on_c, 0, 60, 0
2, 224275, Note_on_c, 0, 60, 97
2, 224279, Note_on_c, 0, 63, 100
2, 224323, Note_on_c, 0, 65, 0
2, 224323, Control_c, 0, 64, 0
2, 224323, Note_on_c, 0, 60, 0
2, 224325, Note_on_c, 0, 71, 0
2, 224327, Note_on_c, 0, 63, 0
2, 224348, Note_on_c, 0, 36, 0
2, 224414, Note_on_c, 0, 37, 97
2, 224415, Note_on_c, 0, 49, 102
2, 224448, Control_c, 0, 64, 127
2, 224536, Note_on_c, 0, 77, 91
2, 224647, Note_on_c, 0, 49, 0
2, 224655, Note_on_c, 0, 49, 76
2, 224661, Note_on_c, 0, 79, 96
2, 224789, Note_on_c, 0, 80, 105
2, 224791, Note_on_c, 0, 60, 96
2, 224798, Note_on_c, 0, 53, 80
2, 224801, Note_on_c, 0, 49, 0
2, 224803, Note_on_c, 0, 56, 85
2, 224807, Note_on_c, 0, 49, 71
2, 225016, Note_on_c, 0, 49, 0
2, 225024, Note_on_c, 0, 56, 0
2, 225024, Note_on_c, 0, 77, 0
2, 225027, Note_on_c, 0, 49, 76
2, 225029, Note_on_c, 0, 77, 99
2, 225032, Note_on_c, 0, 56, 73
2, 225100, Note_on_c, 0, 56, 0
2, 225104, Note_on_c, 0, 56, 78
2, 225146, Note_on_c, 0, 79, 0
2, 225151, Note_on_c, 0, 79, 101
2, 225254, Note_on_c, 0, 80, 0
2, 225265, Note_on_c, 0, 80, 99
2, 225265, Note_on_c, 0, 61, 62
2, 225292, Note_on_c, 0, 55, 40
2, 225313, Note_on_c, 0, 49, 0
2, 225313, Note_on_c, 0, 80, 0
2, 225314, Note_on_c, 0, 60, 0
2, 225314, Note_on_c, 0, 56, 0
2, 225314, Note_on_c, 0, 53, 0
2, 225314, Note_on_c, 0, 79, 0
2, 225315, Note_on_c, 0, 77, 0
2, 225315, Note_on_c, 0, 37, 0
2, 225315, Note_on_c, 0, 55, 0
2, 225317, Control_c, 0, 64, 0
2, 225323, Note_on_c, 0, 61, 0
2, 225365, Note_on_c, 0, 51, 105
2, 225365, Note_on_c, 0, 39, 95
2, 225367, Note_on_c, 0, 82, 102
2, 225423, Control_c, 0, 64, 127
2, 225479, Note_on_c, 0, 84, 95
2, 225592, Note_on_c, 0, 82, 0
2, 225600, Note_on_c, 0, 51, 0
2, 225600, Note_on_c, 0, 82, 97
2, 225604, Note_on_c, 0, 51, 70
2, 225604, Note_on_c, 0, 58, 67
2, 225712, Note_on_c, 0, 55, 59
2, 225718, Note_on_c, 0, 80, 87
2, 225845, Note_on_c, 0, 82, 0
2, 225854, Note_on_c, 0, 82, 88
2, 225856, Note_on_c, 0, 63, 77
2, 225861, Note_on_c, 0, 51, 0
2, 225866, Note_on_c, 0, 51, 62
2, 225876, Note_on_c, 0, 58, 0
2, 225880, Note_on_c, 0, 58, 55
2, 226091, Note_on_c, 0, 58, 0
2, 226099, Note_on_c, 0, 51, 0
2, 226102, Note_on_c, 0, 58, 62
2, 226105, Note_on_c, 0, 51, 61
2, 226226, Note_on_c, 0, 67, 76
2, 226249, Note_on_c, 0, 61, 29
2, 226352, Note_on_c, 0, 67, 0
2, 226358, Note_on_c, 0, 48, 56
2, 226363, Note_on_c, 0, 67, 63
2, 226365, Control_c, 0, 64, 0
2, 226370, Note_on_c, 0, 80, 0
2, 226371, Note_on_c, 0, 82, 0
2, 226372, Note_on_c, 0, 63, 0
2, 226373, Note_on_c, 0, 84, 0
2, 226375, Note_on_c, 0, 61, 0
2, 226378, Note_on_c, 0, 39, 0
2, 226383, Note_on_c, 0, 58, 0
2, 226391, Note_on_c, 0, 55, 0
2, 226394, Note_on_c, 0, 58, 47
2, 226605, Note_on_c, 0, 58, 0
2, 226627, Note_on_c, 0, 56, 47
2, 226667, Control_c, 0, 64, 127
2, 226727, Note_on_c, 0, 68, 71
2, 226732, Note_on_c, 0, 58, 59
2, 226851, Note_on_c, 0, 68, 0
2, 226856, Note_on_c, 0, 68, 66
2, 226874, Note_on_c, 0, 56, 0
2, 226879, Note_on_c, 0, 56, 43
2, 226990, Note_on_c, 0, 56, 0
2, 226999, Note_on_c, 0, 56, 52
2, 227097, Note_on_c, 0, 67, 0
2, 227105, Note_on_c, 0, 58, 0
2, 227111, Note_on_c, 0, 58, 56
2, 227228, Note_on_c, 0, 56, 0
2, 227228, Note_on_c, 0, 68, 0
2, 227231, Note_on_c, 0, 63, 51
2, 227232, Note_on_c, 0, 68, 62
2, 227238, Note_on_c, 0, 56, 42
2, 227362, Note_on_c, 0, 70, 74
2, 227473, Note_on_c, 0, 56, 0
2, 227482, Note_on_c, 0, 56, 57
2, 227581, Note_on_c, 0, 68, 0
2, 227586, Note_on_c, 0, 68, 73
2, 227619, Note_on_c, 0, 58, 0
2, 227624, Note_on_c, 0, 58, 42
2, 227735, Note_on_c, 0, 56, 0
2, 227735, Note_on_c, 0, 63, 0
2, 227742, Note_on_c, 0, 56, 46
2, 227743, Note_on_c, 0, 63, 56
2, 227830, Note_on_c, 0, 67, 78
2, 227942, Note_on_c, 0, 58, 0
2, 227951, Note_on_c, 0, 58, 65
2, 228057, Note_on_c, 0, 68, 0
2, 228065, Note_on_c, 0, 56, 0
2, 228068, Note_on_c, 0, 68, 78
2, 228076, Note_on_c, 0, 56, 55
2, 228172, Note_on_c, 0, 58, 0
2, 228182, Note_on_c, 0, 58, 55
2, 228318, Note_on_c, 0, 63, 0
2, 228321, Note_on_c, 0, 49, 66
2, 228325, Note_on_c, 0, 63, 75
2, 228328, Note_on_c, 0, 48, 0
2, 228328, Note_on_c, 0, 56, 0
2, 228328, Note_on_c, 0, 58, 0
2, 228328, Control_c, 0, 64, 0
2, 228329, Note_on_c, 0, 67, 0
2, 228329, Note_on_c, 0, 70, 0
2, 228349, Note_on_c, 0, 68, 0
2, 228472, Control_c, 0, 64, 127
2, 228480, Note_on_c, 0, 51, 0
2, 228480, Control_c, 0, 64, 0
2, 228564, Control_c, 0, 64, 127
2, 228570, Note_on_c, 0, 56, 62
2, 228692, Note_on_c, 0, 68, 78
2, 228810, Note_on_c, 0, 56, 0
2, 228810, Note_on_c, 0, 68, 0
2, 228820, Note_on_c, 0, 68, 78
2, 228821, Note_on_c, 0, 56, 52
2, 228933, Note_on_c, 0, 56, 0
2, 228940, Note_on_c, 0, 56, 58
2, 229045, Note_on_c, 0, 58, 63
2, 229148, Note_on_c, 0, 68, 0
2, 229155, Note_on_c, 0, 56, 0
2, 229155, Note_on_c, 0, 63, 0
2, 229159, Note_on_c, 0, 68, 74
2, 229161, Note_on_c, 0, 63, 54
2, 229166, Note_on_c, 0, 56, 50
2, 229287, Note_on_c, 0, 70, 79
2, 229386, Note_on_c, 0, 56, 0
2, 229390, Note_on_c, 0, 56, 63
2, 229509, Note_on_c, 0, 58, 0
2, 229509, Note_on_c, 0, 68, 0
2, 229513, Note_on_c, 0, 58, 70
2, 229515, Note_on_c, 0, 68, 91
2, 229632, Note_on_c, 0, 63, 0
2, 229641, Note_on_c, 0, 63, 64
2, 229747, Note_on_c, 0, 70, 0
2, 229754, Note_on_c, 0, 68, 0
2, 229757, Note_on_c, 0, 70, 93
2, 229760, Note_on_c, 0, 68, 62
2, 229885, Note_on_c, 0, 56, 0
2, 229889, Note_on_c, 0, 56, 71
2, 229985, Note_on_c, 0, 68, 0
2, 229992, Note_on_c, 0, 58, 0
2, 229995, Note_on_c, 0, 68, 90
2, 229998, Note_on_c, 0, 58, 72
2, 230077, Note_on_c, 0, 56, 0
2, 230084, Note_on_c, 0, 56, 71
2, 230231, Note_on_c, 0, 70, 0
2, 230233, Note_on_c, 0, 49, 0
2, 230234, Control_c, 0, 64, 0
2, 230235, Note_on_c, 0, 58, 0
2, 230242, Note_on_c, 0, 70, 92
2, 230243, Note_on_c, 0, 44, 72
2, 230261, Note_on_c, 0, 63, 0
2, 230266, Note_on_c, 0, 63, 70
2, 230269, Note_on_c, 0, 68, 0
2, 230279, Note_on_c, 0, 68, 57
2, 230338, Control_c, 0, 64, 127
2, 230469, Note_on_c, 0, 56, 0
2, 230484, Note_on_c, 0, 44, 0
2, 230487, Note_on_c, 0, 51, 58
2, 230490, Note_on_c, 0, 44, 52
2, 230602, Note_on_c, 0, 72, 84
2, 230605, Note_on_c, 0, 60, 69
2, 230622, Note_on_c, 0, 63, 0
2, 230622, Note_on_c, 0, 68, 0
2, 230631, Note_on_c, 0, 68, 55
2, 230634, Note_on_c, 0, 63, 59
2, 230634, Note_on_c, 0, 56, 45
2, 230722, Note_on_c, 0, 72, 0
2, 230728, Note_on_c, 0, 72, 90
2, 230730, Note_on_c, 0, 63, 0
2, 230730, Note_on_c, 0, 68, 0
2, 230735, Note_on_c, 0, 68, 72
2, 230737, Note_on_c, 0, 63, 61
2, 230737, Note_on_c, 0, 60, 0
2, 230744, Note_on_c, 0, 60, 56
2, 230837, Note_on_c, 0, 51, 0
2, 230842, Note_on_c, 0, 51, 76
2, 230960, Note_on_c, 0, 60, 0
2, 230971, Note_on_c, 0, 60, 80
2, 231052, Note_on_c, 0, 51, 0
2, 231064, Note_on_c, 0, 51, 79
2, 231083, Note_on_c, 0, 72, 0
2, 231088, Note_on_c, 0, 72, 85
2, 231091, Note_on_c, 0, 68, 0
2, 231101, Note_on_c, 0, 68, 57
2, 231176, Note_on_c, 0, 56, 0
2, 231177, Note_on_c, 0, 51, 0
2, 231177, Note_on_c, 0, 63, 0
2, 231177, Note_on_c, 0, 44, 0
2, 231177, Note_on_c, 0, 68, 0
2, 231177, Note_on_c, 0, 72, 0
2, 231177, Note_on_c, 0, 70, 0
2, 231178, Control_c, 0, 64, 0
2, 231198, Note_on_c, 0, 60, 0
2, 231211, Note_on_c, 0, 73, 95
2, 231215, Note_on_c, 0, 42, 88
2, 231219, Note_on_c, 0, 70, 87
2, 231223, Note_on_c, 0, 66, 81
2, 231283, Control_c, 0, 64, 127
2, 231470, Note_on_c, 0, 72, 90
2, 231584, Note_on_c, 0, 58, 79
2, 231585, Note_on_c, 0, 61, 73
2, 231705, Note_on_c, 0, 70, 0
2, 231715, Note_on_c, 0, 70, 99
2, 231820, Note_on_c, 0, 42, 0
2, 231832, Note_on_c, 0, 42, 85
2, 231939, Note_on_c, 0, 68, 92
2, 231939, Note_on_c, 0, 54, 67
2, 231947, Note_on_c, 0, 61, 0
2, 232020, Note_on_c, 0, 49, 70
2, 232111, Note_on_c, 0, 73, 0
2, 232113, Note_on_c, 0, 54, 0
2, 232113, Note_on_c, 0, 72, 0
2, 232114, Note_on_c, 0, 66, 0
2, 232114, Note_on_c, 0, 70, 0
2, 232114, Note_on_c, 0, 49, 0
2, 232114, Note_on_c, 0, 58, 0
2, 232114, Note_on_c, 0, 68, 0
2, 232115, Control_c, 0, 64, 0
2, 232135, Note_on_c, 0, 42, 0
2, 232177, Note_on_c, 0, 41, 78
2, 232178, Note_on_c, 0, 53, 83
2, 232181, Note_on_c, 0, 70, 99
2, 232184, Note_on_c, 0, 60, 83
2, 232186, Note_on_c, 0, 65, 75
2, 232243, Control_c, 0, 64, 127
2, 232437, Note_on_c, 0, 58, 53
2, 232450, Note_on_c, 0, 60, 0
2, 232454, Note_on_c, 0, 60, 55
2, 232538, Note_on_c, 0, 72, 90
2, 232588, Note_on_c, 0, 41, 0
2, 232665, Note_on_c, 0, 65, 0
2, 232665, Note_on_c, 0, 72, 0
2, 232670, Note_on_c, 0, 72, 100
2, 232676, Note_on_c, 0, 65, 75
2, 232677, Note_on_c, 0, 69, 81
2, 232773, Note_on_c, 0, 53, 0
2, 232782, Note_on_c, 0, 53, 74
2, 232880, Note_on_c, 0, 60, 0
2, 232884, Note_on_c, 0, 60, 77
2, 232999, Note_on_c, 0, 57, 70
2, 233018, Note_on_c, 0, 72, 0
2, 233029, Note_on_c, 0, 72, 95
2, 233115, Control_c, 0, 64, 0
2, 233115, Note_on_c, 0, 69, 0
2, 233116, Note_on_c, 0, 58, 0
2, 233116, Note_on_c, 0, 60, 0
2, 233116, Note_on_c, 0, 70, 0
2, 233116, Note_on_c, 0, 72, 0
2, 233134, Note_on_c, 0, 65, 0
2, 233142, Note_on_c, 0, 65, 84
2, 233144, Note_on_c, 0, 73, 100
2, 233203, Control_c, 0, 64, 127
2, 233255, Note_on_c, 0, 60, 71
2, 233376, Note_on_c, 0, 72, 95
2, 233510, Note_on_c, 0, 65, 0
2, 233515, Note_on_c, 0, 65, 67
2, 233624, Note_on_c, 0, 70, 93
2, 233633, Note_on_c, 0, 60, 0
2, 233643, Note_on_c, 0, 60, 71
2, 233878, Note_on_c, 0, 68, 92
2, 234128, Note_on_c, 0, 58, 69
2, 234131, Note_on_c, 0, 46, 58
2, 234134, Note_on_c, 0, 73, 0
2, 234135, Note_on_c, 0, 70, 0
2, 234135, Note_on_c, 0, 65, 0
2, 234135, Note_on_c, 0, 68, 0
2, 234135, Note_on_c, 0, 60, 0
2, 234135, Note_on_c, 0, 72, 0
2, 234136, Control_c, 0, 64, 0
2, 234147, Note_on_c, 0, 53, 0
2, 234147, Note_on_c, 0, 57, 0
2, 234229, Note_on_c, 0, 72, 65
2, 234247, Control_c, 0, 64, 127
2, 234356, Note_on_c, 0, 77, 66
2, 234495, Note_on_c, 0, 79, 64
2, 234585, Note_on_c, 0, 72, 0
2, 234589, Note_on_c, 0, 72, 71
2, 234700, Note_on_c, 0, 65, 83
2, 234819, Note_on_c, 0, 67, 80
2, 234917, Note_on_c, 0, 68, 90
2, 235014, Note_on_c, 0, 72, 0
2, 235014, Note_on_c, 0, 58, 0
2, 235015, Note_on_c, 0, 65, 0
2, 235015, Note_on_c, 0, 67, 0
2, 235018, Note_on_c, 0, 77, 0
2, 235018, Note_on_c, 0, 79, 0
2, 235018, Control_c, 0, 64, 0
2, 235038, Note_on_c, 0, 46, 0
2, 235046, Note_on_c, 0, 48, 76
2, 235047, Note_on_c, 0, 60, 77
2, 235130, Control_c, 0, 64, 127
2, 235165, Note_on_c, 0, 72, 80
2, 235288, Note_on_c, 0, 77, 82
2, 235410, Note_on_c, 0, 79, 85
2, 235644, Note_on_c, 0, 65, 96
2, 235760, Note_on_c, 0, 67, 102
2, 235860, Note_on_c, 0, 68, 0
2, 235866, Note_on_c, 0, 68, 95
2, 235908, Control_c, 0, 64, 0
2, 235909, Note_on_c, 0, 65, 0
2, 235910, Note_on_c, 0, 60, 0
2, 235910, Note_on_c, 0, 77, 0
2, 235911, Note_on_c, 0, 68, 0
2, 235911, Note_on_c, 0, 72, 0
2, 235911, Note_on_c, 0, 48, 0
2, 235911, Note_on_c, 0, 79, 0
2, 235913, Note_on_c, 0, 67, 0
2, 235975, Control_c, 0, 64, 127
2, 235978, Note_on_c, 0, 49, 95
2, 235979, Note_on_c, 0, 60, 104
2, 235980, Note_on_c, 0, 72, 103
2, 235980, Note_on_c, 0, 65, 89
2, 236104, Note_on_c, 0, 73, 96
2, 236127, Note_on_c, 0, 56, 74
2, 236197, Control_c, 0, 64, 0
2, 236199, Note_on_c, 0, 72, 0
2, 236199, Note_on_c, 0, 60, 0
2, 236199, Note_on_c, 0, 56, 0
2, 236200, Note_on_c, 0, 49, 0
2, 236200, Note_on_c, 0, 65, 0
2, 236200, Note_on_c, 0, 73, 0
2, 236346, Note_on_c, 0, 70, 108
2, 236349, Note_on_c, 0, 61, 100
2, 236350, Note_on_c, 0, 53, 99
2, 236351, Note_on_c, 0, 65, 94
2, 236355, Note_on_c, 0, 43, 98
2, 236359, Control_c, 0, 64, 127
2, 236551, Note_on_c, 0, 43, 0
2, 236557, Note_on_c, 0, 68, 89
2, 236559, Note_on_c, 0, 65, 0
2, 236559, Note_on_c, 0, 43, 78
2, 236561, Note_on_c, 0, 55, 81
2, 236565, Note_on_c, 0, 65, 71
2, 236567, Note_on_c, 0, 55, 0
2, 236674, Note_on_c, 0, 43, 0
2, 236674, Note_on_c, 0, 53, 0
2, 236674, Note_on_c, 0, 65, 0
2, 236674, Note_on_c, 0, 70, 0
2, 236680, Note_on_c, 0, 49, 73
2, 236681, Note_on_c, 0, 70, 89
2, 236683, Note_on_c, 0, 53, 77
2, 236684, Note_on_c, 0, 65, 72
2, 236684, Note_on_c, 0, 68, 0
2, 236685, Note_on_c, 0, 43, 64
2, 236748, Note_on_c, 0, 43, 0
2, 236748, Note_on_c, 0, 53, 0
2, 236749, Note_on_c, 0, 70, 0
2, 236749, Note_on_c, 0, 65, 0
2, 236750, Control_c, 0, 64, 0
2, 236766, Note_on_c, 0, 61, 0
2, 236774, Note_on_c, 0, 49, 0
2, 236809, Note_on_c, 0, 72, 106
2, 236809, Note_on_c, 0, 48, 94
2, 236810, Note_on_c, 0, 60, 102
2, 236812, Note_on_c, 0, 67, 92
2, 236813, Note_on_c, 0, 55, 100
2, 236816, Note_on_c, 0, 65, 79
2, 236828, Control_c, 0, 64, 127
2, 236904, Note_on_c, 0, 55, 0
2, 237043, Note_on_c, 0, 48, 0
2, 237043, Note_on_c, 0, 60, 0
2, 237043, Note_on_c, 0, 65, 0
2, 237047, Note_on_c, 0, 48, 92
2, 237047, Note_on_c, 0, 36, 89
2, 237049, Note_on_c, 0, 65, 90
2, 237050, Note_on_c, 0, 60, 90
2, 237112, Note_on_c, 0, 48, 0
2, 237116, Note_on_c, 0, 48, 48
2, 237166, Note_on_c, 0, 36, 0
2, 237166, Note_on_c, 0, 48, 0
2, 237166, Note_on_c, 0, 60, 0
2, 237166, Note_on_c, 0, 65, 0
2, 237166, Note_on_c, 0, 67, 0
2, 237171, Note_on_c, 0, 48, 75
2, 237171, Note_on_c, 0, 60, 82
2, 237173, Note_on_c, 0, 36, 74
2, 237174, Note_on_c, 0, 65, 79
2, 237175, Note_on_c, 0, 67, 89
2, 237265, Note_on_c, 0, 60, 0
2, 237265, Note_on_c, 0, 67, 0
2, 237273, Note_on_c, 0, 65, 0
2, 237275, Note_on_c, 0, 60, 97
2, 237277, Note_on_c, 0, 67, 84
2, 237278, Note_on_c, 0, 65, 64
2, 237297, Control_c, 0, 64, 0
2, 237313, Note_on_c, 0, 48, 0
2, 237316, Note_on_c, 0, 36, 0
2, 237316, Note_on_c, 0, 60, 0
2, 237317, Note_on_c, 0, 72, 0
2, 237320, Note_on_c, 0, 65, 0
2, 237350, Note_on_c, 0, 67, 0
2, 237373, Control_c, 0, 64, 127
2, 237380, Note_on_c, 0, 48, 93
2, 237383, Note_on_c, 0, 36, 98
2, 237384, Note_on_c, 0, 24, 100
2, 237465, Note_on_c, 0, 48, 0
2, 237476, Control_c, 0, 64, 0
2, 237510, Note_on_c, 0, 79, 109
2, 237511, Note_on_c, 0, 67, 105
2, 237534, Control_c, 0, 64, 127
2, 237619, Note_on_c, 0, 24, 0
2, 237624, Note_on_c, 0, 70, 99
2, 237629, Note_on_c, 0, 82, 89
2, 237642, Note_on_c, 0, 36, 0
2, 237734, Note_on_c, 0, 82, 0
2, 237744, Note_on_c, 0, 82, 97
2, 237771, Control_c, 0, 64, 0
2, 237777, Note_on_c, 0, 70, 0
2, 237780, Note_on_c, 0, 67, 0
2, 237803, Note_on_c, 0, 79, 0
2, 237847, Note_on_c, 0, 49, 109
2, 237851, Note_on_c, 0, 37, 110
2, 237853, Note_on_c, 0, 77, 106
2, 237855, Note_on_c, 0, 72, 108
2, 237861, Note_on_c, 0, 80, 102
2, 237888, Control_c, 0, 64, 127
2, 238091, Note_on_c, 0, 53, 84
2, 238091, Note_on_c, 0, 60, 84
2, 238094, Note_on_c, 0, 65, 77
2, 238099, Note_on_c, 0, 56, 72
2, 238172, Control_c, 0, 64, 0
2, 238174, Note_on_c, 0, 80, 0
2, 238175, Note_on_c, 0, 60, 0
2, 238175, Note_on_c, 0, 49, 0
2, 238175, Note_on_c, 0, 56, 0
2, 238175, Note_on_c, 0, 72, 0
2, 238175, Note_on_c, 0, 77, 0
2, 238175, Note_on_c, 0, 53, 0
2, 238179, Note_on_c, 0, 82, 0
2, 238202, Note_on_c, 0, 37, 0
2, 238210, Note_on_c, 0, 65, 0
2, 238211, Note_on_c, 0, 70, 104
2, 238213, Note_on_c, 0, 82, 95
2, 238238, Note_on_c, 0, 49, 67
2, 238251, Note_on_c, 0, 70, 0
2, 238254, Note_on_c, 0, 82, 0
2, 238279, Note_on_c, 0, 49, 0
2, 238327, Note_on_c, 0, 84, 104
2, 238329, Note_on_c, 0, 72, 105
2, 238331, Note_on_c, 0, 80, 82
2, 238332, Note_on_c, 0, 77, 93
2, 238364, Control_c, 0, 64, 127
2, 238451, Note_on_c, 0, 37, 96
2, 238574, Note_on_c, 0, 60, 98
2, 238575, Note_on_c, 0, 53, 93
2, 238575, Note_on_c, 0, 56, 91
2, 238690, Note_on_c, 0, 70, 104
2, 238690, Note_on_c, 0, 82, 100
2, 238758, Control_c, 0, 64, 0
2, 238758, Note_on_c, 0, 77, 0
2, 238759, Note_on_c, 0, 80, 0
2, 238759, Note_on_c, 0, 72, 0
2, 238759, Note_on_c, 0, 53, 0
2, 238759, Note_on_c, 0, 60, 0
2, 238759, Note_on_c, 0, 84, 0
2, 238759, Note_on_c, 0, 37, 0
2, 238759, Note_on_c, 0, 56, 0
2, 238759, Note_on_c, 0, 70, 0
2, 238760, Note_on_c, 0, 82, 0
2, 238813, Note_on_c, 0, 49, 104
2, 238815, Note_on_c, 0, 37, 106
2, 238818, Note_on_c, 0, 72, 109
2, 238819, Note_on_c, 0, 77, 105
2, 238820, Note_on_c, 0, 84, 103
2, 238840, Control_c, 0, 64, 127
2, 239020, Note_on_c, 0, 60, 87
2, 239034, Note_on_c, 0, 53, 76
2, 239035, Note_on_c, 0, 56, 68
2, 239038, Note_on_c, 0, 73, 98
2, 239042, Note_on_c, 0, 85, 91
2, 239106, Note_on_c, 0, 77, 0
2, 239107, Note_on_c, 0, 72, 0
2, 239107, Note_on_c, 0, 73, 0
2, 239107, Note_on_c, 0, 49, 0
2, 239107, Note_on_c, 0, 60, 0
2, 239107, Note_on_c, 0, 85, 0
2, 239108, Note_on_c, 0, 84, 0
2, 239108, Note_on_c, 0, 53, 0
2, 239109, Note_on_c, 0, 56, 0
2, 239112, Control_c, 0, 64, 0
2, 239116, Note_on_c, 0, 37, 0
2, 239164, Note_on_c, 0, 37, 104
2, 239164, Note_on_c, 0, 70, 112
2, 239166, Note_on_c, 0, 82, 108
2, 239168, Note_on_c, 0, 75, 105
2, 239193, Control_c, 0, 64, 127
2, 239400, Note_on_c, 0, 37, 0
2, 239409, Note_on_c, 0, 80, 103
2, 239409, Note_on_c, 0, 68, 100
2, 239410, Note_on_c, 0, 37, 85
2, 239411, Note_on_c, 0, 49, 82
2, 239528, Note_on_c, 0, 53, 79
2, 239528, Note_on_c, 0, 60, 83
2, 239534, Note_on_c, 0, 65, 70
2, 239535, Note_on_c, 0, 56, 78
2, 239631, Note_on_c, 0, 68, 0
2, 239631, Note_on_c, 0, 80, 0
2, 239635, Note_on_c, 0, 80, 99
2, 239640, Note_on_c, 0, 68, 89
2, 239672, Note_on_c, 0, 82, 0
2, 239672, Note_on_c, 0, 49, 0
2, 239672, Note_on_c, 0, 70, 0
2, 239672, Control_c, 0, 64, 0
2, 239672, Note_on_c, 0, 60, 0
2, 239672, Note_on_c, 0, 37, 0
2, 239673, Note_on_c, 0, 56, 0
2, 239673, Note_on_c, 0, 80, 0
2, 239673, Note_on_c, 0, 75, 0
2, 239673, Note_on_c, 0, 68, 0
2, 239673, Note_on_c, 0, 53, 0
2, 239685, Note_on_c, 0, 65, 0
2, 239759, Note_on_c, 0, 39, 104
2, 239763, Note_on_c, 0, 51, 106
2, 239765, Note_on_c, 0, 70, 110
2, 239765, Note_on_c, 0, 79, 100
2, 239765, Note_on_c, 0, 82, 108
2, 239768, Note_on_c, 0, 75, 108
2, 239769, Control_c, 0, 64, 127
2, 239973, Note_on_c, 0, 55, 82
2, 239973, Note_on_c, 0, 58, 86
2, 240075, Note_on_c, 0, 82, 0
2, 240077, Note_on_c, 0, 55, 0
2, 240077, Note_on_c, 0, 79, 0
2, 240078, Control_c, 0, 64, 0
2, 240078, Note_on_c, 0, 51, 0
2, 240078, Note_on_c, 0, 75, 0
2, 240078, Note_on_c, 0, 70, 0
2, 240079, Note_on_c, 0, 58, 0
2, 240079, Note_on_c, 0, 39, 0
2, 240120, Note_on_c, 0, 39, 90
2, 240121, Note_on_c, 0, 51, 89
2, 240126, Note_on_c, 0, 68, 96
2, 240126, Note_on_c, 0, 80, 96
2, 240156, Note_on_c, 0, 68, 0
2, 240158, Note_on_c, 0, 39, 0
2, 240158, Note_on_c, 0, 51, 0
2, 240162, Note_on_c, 0, 80, 0
2, 240240, Note_on_c, 0, 82, 106
2, 240243, Note_on_c, 0, 70, 101
2, 240253, Note_on_c, 0, 75, 93
2, 240299, Control_c, 0, 64, 127
2, 240357, Note_on_c, 0, 39, 102
2, 240468, Note_on_c, 0, 58, 100
2, 240472, Note_on_c, 0, 55, 93
2, 240586, Note_on_c, 0, 68, 96
2, 240587, Note_on_c, 0, 80, 93
2, 240642, Note_on_c, 0, 55, 0
2, 240644, Note_on_c, 0, 58, 0
2, 240644, Note_on_c, 0, 68, 0
2, 240644, Note_on_c, 0, 70, 0
2, 240645, Note_on_c, 0, 82, 0
2, 240645, Note_on_c, 0, 39, 0
2, 240646, Note_on_c, 0, 75, 0
2, 240646, Note_on_c, 0, 80, 0
2, 240647, Control_c, 0, 64, 0
2, 240711, Note_on_c, 0, 37, 105
2, 240711, Note_on_c, 0, 49, 102
2, 240715, Note_on_c, 0, 70, 109
2, 240716, Note_on_c, 0, 82, 100
2, 240744, Control_c, 0, 64, 127
2, 240768, Note_on_c, 0, 49, 0
2, 240926, Note_on_c, 0, 54, 92
2, 240934, Note_on_c, 0, 58, 84
2, 240936, Note_on_c, 0, 60, 79
2, 240941, Note_on_c, 0, 72, 94
2, 240941, Note_on_c, 0, 84, 87
2, 240944, Note_on_c, 0, 60, 0
2, 240952, Note_on_c, 0, 82, 0
2, 240957, Note_on_c, 0, 82, 61
2, 240990, Note_on_c, 0, 54, 0
2, 240991, Note_on_c, 0, 70, 0
2, 240991, Note_on_c, 0, 37, 0
2, 240991, Note_on_c, 0, 72, 0
2, 240992, Note_on_c, 0, 58, 0
2, 240992, Note_on_c, 0, 84, 0
2, 240992, Note_on_c, 0, 82, 0
2, 240992, Control_c, 0, 64, 0
2, 241064, Note_on_c, 0, 49, 102
2, 241065, Note_on_c, 0, 37, 101
2, 241069, Note_on_c, 0, 85, 101
2, 241069, Note_on_c, 0, 73, 107
2, 241071, Note_on_c, 0, 77, 95
2, 241105, Control_c, 0, 64, 127
2, 241244, Note_on_c, 0, 85, 0
2, 241255, Note_on_c, 0, 85, 55
2, 241301, Note_on_c, 0, 84, 93
2, 241303, Note_on_c, 0, 72, 102
2, 241305, Note_on_c, 0, 49, 0
2, 241313, Note_on_c, 0, 37, 0
2, 241315, Note_on_c, 0, 49, 86
2, 241317, Note_on_c, 0, 37, 96
2, 241439, Note_on_c, 0, 58, 92
2, 241440, Note_on_c, 0, 53, 89
2, 241534, Note_on_c, 0, 82, 100
2, 241540, Note_on_c, 0, 70, 99
2, 241601, Note_on_c, 0, 85, 0
2, 241601, Note_on_c, 0, 77, 0
2, 241602, Note_on_c, 0, 73, 0
2, 241602, Note_on_c, 0, 49, 0
2, 241602, Note_on_c, 0, 53, 0
2, 241602, Note_on_c, 0, 58, 0
2, 241602, Note_on_c, 0, 72, 0
2, 241602, Note_on_c, 0, 84, 0
2, 241602, Control_c, 0, 64, 0
2, 241603, Note_on_c, 0, 37, 0
2, 241603, Note_on_c, 0, 82, 0
2, 241604, Note_on_c, 0, 70, 0
2, 241661, Note_on_c, 0, 48, 105
2, 241661, Note_on_c, 0, 70, 106
2, 241661, Note_on_c, 0, 82, 106
2, 241661, Note_on_c, 0, 36, 105
2, 241712, Control_c, 0, 64, 127
2, 241894, Note_on_c, 0, 51, 91
2, 241895, Note_on_c, 0, 58, 93
2, 241897, Note_on_c, 0, 75, 108
2, 241897, Note_on_c, 0, 63, 101
2, 242012, Note_on_c, 0, 36, 0
2, 242012, Note_on_c, 0, 48, 0
2, 242019, Note_on_c, 0, 48, 98
2, 242022, Note_on_c, 0, 36, 78
2, 242135, Note_on_c, 0, 48, 0
2, 242139, Note_on_c, 0, 79, 106
2, 242143, Note_on_c, 0, 67, 96
2, 242144, Note_on_c, 0, 48, 86
2, 242165, Note_on_c, 0, 75, 0
2, 242169, Note_on_c, 0, 75, 53
2, 242227, Note_on_c, 0, 48, 0
2, 242238, Note_on_c, 0, 48, 82
2, 242357, Note_on_c, 0, 70, 0
2, 242357, Note_on_c, 0, 82, 0
2, 242360, Note_on_c, 0, 43, 96
2, 242361, Note_on_c, 0, 82, 106
2, 242366, Note_on_c, 0, 31, 83
2, 242366, Note_on_c, 0, 70, 102
2, 242373, Note_on_c, 0, 31, 0
2, 242524, Note_on_c, 0, 48, 0
2, 242525, Note_on_c, 0, 36, 0
2, 242525, Note_on_c, 0, 82, 0
2, 242525, Note_on_c, 0, 67, 0
2, 242525, Note_on_c, 0, 63, 0
2, 242526, Note_on_c, 0, 51, 0
2, 242526, Note_on_c, 0, 43, 0
2, 242526, Control_c, 0, 64, 0
2, 242527, Note_on_c, 0, 79, 0
2, 242527, Note_on_c, 0, 70, 0
2, 242527, Note_on_c, 0, 75, 0
2, 242542, Note_on_c, 0, 58, 0
2, 242592, Note_on_c, 0, 85, 105
2, 242595, Note_on_c, 0, 73, 109
2, 242599, Note_on_c, 0, 48, 97
2, 242599, Note_on_c, 0, 76, 100
2, 242600, Note_on_c, 0, 79, 84
2, 242600, Note_on_c, 0, 36, 97
2, 242611, Control_c, 0, 64, 127
2, 242846, Note_on_c, 0, 84, 91
2, 242850, Note_on_c, 0, 72, 89
2, 242935, Note_on_c, 0, 36, 0
2, 242936, Note_on_c, 0, 48, 0
2, 242937, Note_on_c, 0, 85, 0
2, 242937, Note_on_c, 0, 76, 0
2, 242937, Note_on_c, 0, 73, 0
2, 242937, Note_on_c, 0, 84, 0
2, 242941, Control_c, 0, 64, 0
2, 242964, Note_on_c, 0, 72, 0
2, 242967, Note_on_c, 0, 82, 107
2, 242968, Note_on_c, 0, 40, 105
2, 242969, Note_on_c, 0, 52, 110
2, 242974, Note_on_c, 0, 72, 106
2, 242975, Note_on_c, 0, 77, 93
2, 243041, Control_c, 0, 64, 127
2, 243191, Note_on_c, 0, 48, 85
2, 243204, Note_on_c, 0, 80, 98
2, 243204, Note_on_c, 0, 68, 87
2, 243310, Note_on_c, 0, 79, 0
2, 243314, Note_on_c, 0, 79, 102
2, 243318, Note_on_c, 0, 53, 71
2, 243320, Note_on_c, 0, 67, 77
2, 243325, Note_on_c, 0, 67, 0
2, 243379, Note_on_c, 0, 40, 0
2, 243389, Note_on_c, 0, 52, 0
2, 243390, Note_on_c, 0, 80, 0
2, 243390, Control_c, 0, 64, 0
2, 243390, Note_on_c, 0, 82, 0
2, 243391, Note_on_c, 0, 72, 0
2, 243391, Note_on_c, 0, 79, 0
2, 243392, Note_on_c, 0, 48, 0
2, 243402, Note_on_c, 0, 77, 0
2, 243417, Note_on_c, 0, 68, 0
2, 243425, Note_on_c, 0, 53, 0
2, 243429, Note_on_c, 0, 53, 108
2, 243430, Note_on_c, 0, 41, 106
2, 243431, Note_on_c, 0, 82, 105
2, 243433, Note_on_c, 0, 70, 96
2, 243440, Note_on_c, 0, 70, 0
2, 243486, Control_c, 0, 64, 127
2, 243668, Note_on_c, 0, 80, 101
2, 243681, Note_on_c, 0, 72, 89
2, 243686, Note_on_c, 0, 41, 0
2, 243686, Note_on_c, 0, 53, 0
2, 243690, Note_on_c, 0, 53, 83
2, 243691, Note_on_c, 0, 41, 73
2, 243778, Note_on_c, 0, 72, 0
2, 243778, Note_on_c, 0, 80, 0
2, 243782, Note_on_c, 0, 80, 107
2, 243786, Note_on_c, 0, 72, 101
2, 243790, Note_on_c, 0, 68, 97
2, 243791, Note_on_c, 0, 56, 89
2, 243819, Note_on_c, 0, 78, 40
2, 243824, Note_on_c, 0, 78, 0
2, 243901, Note_on_c, 0, 41, 0
2, 243908, Note_on_c, 0, 60, 79
2, 243911, Note_on_c, 0, 41, 56
2, 243979, Note_on_c, 0, 65, 93
2, 244085, Note_on_c, 0, 41, 0
2, 244096, Note_on_c, 0, 41, 91
2, 244239, Note_on_c, 0, 53, 0
2, 244242, Note_on_c, 0, 48, 78
2, 244244, Note_on_c, 0, 53, 78
2, 244308, Note_on_c, 0, 68, 0
2, 244309, Note_on_c, 0, 48, 0
2, 244310, Note_on_c, 0, 82, 0
2, 244310, Note_on_c, 0, 56, 0
2, 244310, Note_on_c, 0, 53, 0
2, 244311, Note_on_c, 0, 72, 0
2, 244311, Note_on_c, 0, 80, 0
2, 244311, Note_on_c, 0, 41, 0
2, 244311, Note_on_c, 0, 65, 0
2, 244313, Control_c, 0, 64, 0
2, 244323, Note_on_c, 0, 60, 0
2, 244334, Note_on_c, 0, 70, 105
2, 244339, Note_on_c, 0, 58, 100
2, 244339, Note_on_c, 0, 61, 92
2, 244350, Note_on_c, 0, 54, 100
2, 244351, Note_on_c, 0, 42, 104
2, 244400, Control_c, 0, 64, 127
2, 244568, Note_on_c, 0, 68, 93
2, 244572, Note_on_c, 0, 56, 82
2, 244677, Note_on_c, 0, 70, 0
2, 244684, Note_on_c, 0, 56, 0
2, 244684, Note_on_c, 0, 68, 0
2, 244686, Note_on_c, 0, 70, 96
2, 244692, Note_on_c, 0, 68, 81
2, 244692, Note_on_c, 0, 58, 0
2, 244695, Note_on_c, 0, 56, 64
2, 244700, Note_on_c, 0, 58, 70
2, 244800, Note_on_c, 0, 56, 0
2, 244807, Note_on_c, 0, 68, 0
2, 244808, Note_on_c, 0, 60, 106
2, 244808, Note_on_c, 0, 72, 108
2, 244811, Note_on_c, 0, 56, 81
2, 244811, Note_on_c, 0, 63, 95
2, 244816, Note_on_c, 0, 68, 91
2, 244847, Note_on_c, 0, 61, 0
2, 244849, Note_on_c, 0, 58, 0
2, 244849, Note_on_c, 0, 42, 0
2, 244850, Note_on_c, 0, 54, 0
2, 244850, Note_on_c, 0, 56, 0
2, 244855, Control_c, 0, 64, 0
2, 244884, Note_on_c, 0, 70, 0
2, 244915, Note_on_c, 0, 60, 0
2, 244922, Control_c, 0, 64, 127
2, 244926, Note_on_c, 0, 44, 110
2, 244928, Note_on_c, 0, 56, 111
2, 245048, Note_on_c, 0, 79, 108
2, 245049, Note_on_c, 0, 67, 105
2, 245089, Note_on_c, 0, 51, 63
2, 245153, Note_on_c, 0, 44, 0
2, 245153, Note_on_c, 0, 68, 0
2, 245163, Note_on_c, 0, 68, 103
2, 245163, Note_on_c, 0, 80, 109
2, 245163, Note_on_c, 0, 44, 75
2, 245170, Note_on_c, 0, 56, 0
2, 245280, Note_on_c, 0, 82, 106
2, 245281, Note_on_c, 0, 70, 101
2, 245333, Control_c, 0, 64, 0
2, 245335, Note_on_c, 0, 79, 0
2, 245335, Note_on_c, 0, 80, 0
2, 245335, Note_on_c, 0, 70, 0
2, 245335, Note_on_c, 0, 67, 0
2, 245336, Note_on_c, 0, 51, 0
2, 245337, Note_on_c, 0, 82, 0
2, 245345, Note_on_c, 0, 63, 0
2, 245345, Note_on_c, 0, 72, 0
2, 245352, Note_on_c, 0, 68, 0
2, 245368, Note_on_c, 0, 44, 0
2, 245390, Note_on_c, 0, 49, 106
2, 245397, Note_on_c, 0, 37, 105
2, 245402, Note_on_c, 0, 84, 100
2, 245402, Note_on_c, 0, 76, 104
2, 245403, Note_on_c, 0, 72, 108
2, 245406, Control_c, 0, 64, 127
2, 245640, Note_on_c, 0, 53, 90
2, 245641, Note_on_c, 0, 60, 83
2, 245641, Note_on_c, 0, 68, 88
2, 245642, Note_on_c, 0, 56, 75
2, 245645, Note_on_c, 0, 65, 77
2, 245652, Note_on_c, 0, 65, 0
2, 245652, Note_on_c, 0, 68, 0
2, 245727, Note_on_c, 0, 76, 0
2, 245728, Note_on_c, 0, 49, 0
2, 245728, Note_on_c, 0, 84, 0
2, 245729, Note_on_c, 0, 37, 0
2, 245730, Note_on_c, 0, 53, 0
2, 245730, Note_on_c, 0, 60, 0
2, 245730, Note_on_c, 0, 72, 0
2, 245732, Note_on_c, 0, 56, 0
2, 245732, Control_c, 0, 64, 0
2, 245778, Note_on_c, 0, 37, 85
2, 245781, Note_on_c, 0, 49, 70
2, 245785, Note_on_c, 0, 70, 99
2, 245786, Note_on_c, 0, 82, 88
2, 245790, Note_on_c, 0, 49, 0
2, 245818, Note_on_c, 0, 70, 0
2, 245822, Note_on_c, 0, 37, 0
2, 245824, Note_on_c, 0, 82, 0
2, 245900, Note_on_c, 0, 84, 104
2, 245900, Note_on_c, 0, 72, 105
2, 245901, Note_on_c, 0, 77, 105
2, 245902, Note_on_c, 0, 56, 80
2, 245903, Note_on_c, 0, 80, 82
2, 245928, Control_c, 0, 64, 127
2, 246009, Note_on_c, 0, 37, 90
2, 246120, Note_on_c, 0, 60, 102
2, 246124, Note_on_c, 0, 53, 93
2, 246126, Note_on_c, 0, 54, 77
2, 246147, Note_on_c, 0, 57, 73
2, 246243, Note_on_c, 0, 77, 0
2, 246244, Note_on_c, 0, 82, 100
2, 246246, Note_on_c, 0, 70, 97
2, 246249, Note_on_c, 0, 77, 64
2, 246304, Note_on_c, 0, 77, 0
2, 246307, Note_on_c, 0, 54, 0
2, 246307, Note_on_c, 0, 60, 0
2, 246307, Note_on_c, 0, 72, 0
2, 246307, Note_on_c, 0, 53, 0
2, 246308, Note_on_c, 0, 57, 0
2, 246308, Note_on_c, 0, 56, 0
2, 246308, Note_on_c, 0, 37, 0
2, 246308, Note_on_c, 0, 84, 0
2, 246308, Note_on_c, 0, 70, 0
2, 246309, Note_on_c, 0, 82, 0
2, 246313, Control_c, 0, 64, 0
2, 246320, Note_on_c, 0, 80, 0
2, 246359, Note_on_c, 0, 49, 110
2, 246362, Note_on_c, 0, 37, 112
2, 246363, Note_on_c, 0, 77, 107
2, 246364, Note_on_c, 0, 72, 110
2, 246365, Note_on_c, 0, 84, 103
2, 246394, Note_on_c, 0, 49, 0
2, 246395, Note_on_c, 0, 37, 0
2, 246420, Control_c, 0, 64, 127
2, 246575, Note_on_c, 0, 53, 84
2, 246585, Note_on_c, 0, 56, 67
2, 246586, Note_on_c, 0, 61, 84
2, 246587, Note_on_c, 0, 68, 83
2, 246594, Note_on_c, 0, 73, 102
2, 246597, Note_on_c, 0, 68, 0
2, 246598, Note_on_c, 0, 85, 92
2, 246638, Note_on_c, 0, 72, 0
2, 246639, Note_on_c, 0, 77, 0
2, 246639, Note_on_c, 0, 56, 0
2, 246640, Note_on_c, 0, 84, 0
2, 246640, Note_on_c, 0, 53, 0
2, 246641, Note_on_c, 0, 73, 0
2, 246644, Note_on_c, 0, 85, 0
2, 246645, Control_c, 0, 64, 0
2, 246646, Note_on_c, 0, 61, 0
2, 246723, Note_on_c, 0, 37, 100
2, 246728, Note_on_c, 0, 49, 87
2, 246732, Note_on_c, 0, 75, 107
2, 246733, Note_on_c, 0, 82, 100
2, 246743, Note_on_c, 0, 70, 100
2, 246750, Control_c, 0, 64, 127
2, 246968, Note_on_c, 0, 80, 102
2, 246970, Note_on_c, 0, 68, 99
2, 246972, Note_on_c, 0, 53, 57
2, 246975, Note_on_c, 0, 58, 70
2, 246976, Note_on_c, 0, 56, 78
2, 247088, Note_on_c, 0, 53, 0
2, 247088, Note_on_c, 0, 56, 0
2, 247088, Note_on_c, 0, 68, 0
2, 247092, Note_on_c, 0, 59, 87
2, 247092, Note_on_c, 0, 68, 86
2, 247094, Note_on_c, 0, 53, 81
2, 247097, Note_on_c, 0, 56, 81
2, 247099, Note_on_c, 0, 65, 75
2, 247196, Note_on_c, 0, 68, 0
2, 247196, Note_on_c, 0, 80, 0
2, 247201, Note_on_c, 0, 80, 98
2, 247207, Note_on_c, 0, 68, 82
2, 247284, Note_on_c, 0, 58, 0
2, 247284, Note_on_c, 0, 65, 0
2, 247284, Note_on_c, 0, 49, 0
2, 247284, Note_on_c, 0, 70, 0
2, 247284, Note_on_c, 0, 68, 0
2, 247284, Note_on_c, 0, 80, 0
2, 247285, Note_on_c, 0, 75, 0
2, 247285, Note_on_c, 0, 53, 0
2, 247285, Note_on_c, 0, 82, 0
2, 247285, Note_on_c, 0, 59, 0
2, 247287, Control_c, 0, 64, 0
2, 247303, Note_on_c, 0, 37, 0
2, 247303, Note_on_c, 0, 56, 0
2, 247332, Note_on_c, 0, 82, 112
2, 247335, Note_on_c, 0, 70, 111
2, 247337, Note_on_c, 0, 75, 107
2, 247338, Note_on_c, 0, 79, 96
2, 247344, Note_on_c, 0, 49, 101
2, 247347, Note_on_c, 0, 37, 94
2, 247365, Control_c, 0, 64, 127
2, 247551, Note_on_c, 0, 56, 91
2, 247680, Note_on_c, 0, 37, 0
2, 247680, Note_on_c, 0, 49, 0
2, 247685, Note_on_c, 0, 80, 100
2, 247686, Note_on_c, 0, 68, 98
2, 247689, Note_on_c, 0, 37, 92
2, 247690, Note_on_c, 0, 49, 94
2, 247754, Note_on_c, 0, 56, 0
2, 247754, Note_on_c, 0, 70, 0
2, 247754, Note_on_c, 0, 75, 0
2, 247754, Note_on_c, 0, 82, 0
2, 247754, Note_on_c, 0, 68, 0
2, 247754, Note_on_c, 0, 80, 0
2, 247756, Note_on_c, 0, 79, 0
2, 247759, Control_c, 0, 64, 0
2, 247799, Note_on_c, 0, 82, 108
2, 247801, Note_on_c, 0, 79, 100
2, 247802, Note_on_c, 0, 70, 106
2, 247805, Note_on_c, 0, 75, 93
2, 247833, Note_on_c, 0, 49, 0
2, 247841, Control_c, 0, 64, 127
2, 247848, Note_on_c, 0, 37, 0
2, 247927, Note_on_c, 0, 49, 105
2, 247928, Note_on_c, 0, 37, 93
2, 248038, Note_on_c, 0, 54, 90
2, 248044, Note_on_c, 0, 58, 93
2, 248045, Note_on_c, 0, 55, 99
2, 248160, Note_on_c, 0, 68, 93
2, 248160, Note_on_c, 0, 80, 94
2, 248237, Note_on_c, 0, 75, 0
2, 248237, Note_on_c, 0, 79, 0
2, 248237, Note_on_c, 0, 55, 0
2, 248238, Note_on_c, 0, 54, 0
2, 248238, Note_on_c, 0, 49, 0
2, 248238, Note_on_c, 0, 80, 0
2, 248238, Note_on_c, 0, 68, 0
2, 248239, Note_on_c, 0, 70, 0
2, 248239, Note_on_c, 0, 58, 0
2, 248239, Note_on_c, 0, 82, 0
2, 248241, Control_c, 0, 64, 0
2, 248256, Note_on_c, 0, 37, 0
2, 248284, Note_on_c, 0, 51, 108
2, 248284, Note_on_c, 0, 39, 106
2, 248287, Note_on_c, 0, 70, 111
2, 248288, Note_on_c, 0, 79, 92
2, 248289, Note_on_c, 0, 82, 108
2, 248289, Note_on_c, 0, 75, 106
2, 248317, Control_c, 0, 64, 127
2, 248508, Note_on_c, 0, 58, 84
2, 248508, Note_on_c, 0, 63, 88
2, 248509, Note_on_c, 0, 75, 0
2, 248510, Note_on_c, 0, 55, 74
2, 248511, Note_on_c, 0, 72, 97
2, 248511, Note_on_c, 0, 84, 92
2, 248516, Note_on_c, 0, 75, 86
2, 248624, Note_on_c, 0, 75, 0
2, 248628, Note_on_c, 0, 85, 107
2, 248628, Note_on_c, 0, 73, 106
2, 248630, Note_on_c, 0, 75, 91
2, 248752, Note_on_c, 0, 49, 108
2, 248754, Note_on_c, 0, 37, 106
2, 248840, Note_on_c, 0, 82, 0
2, 248842, Note_on_c, 0, 55, 0
2, 248842, Note_on_c, 0, 73, 0
2, 248842, Note_on_c, 0, 85, 0
2, 248842, Note_on_c, 0, 75, 0
2, 248842, Note_on_c, 0, 58, 0
2, 248842, Note_on_c, 0, 70, 0
2, 248843, Note_on_c, 0, 39, 0
2, 248843, Note_on_c, 0, 51, 0
2, 248843, Note_on_c, 0, 63, 0
2, 248844, Control_c, 0, 64, 0
2, 248878, Note_on_c, 0, 72, 0
2, 248878, Note_on_c, 0, 84, 0
2, 248883, Note_on_c, 0, 72, 104
2, 248885, Note_on_c, 0, 84, 101
2, 248893, Control_c, 0, 64, 127
2, 248970, Note_on_c, 0, 79, 0
2, 249012, Note_on_c, 0, 44, 91
2, 249016, Note_on_c, 0, 32, 71
2, 249024, Note_on_c, 0, 32, 0
2, 249131, Note_on_c, 0, 72, 0
2, 249135, Note_on_c, 0, 82, 108
2, 249136, Note_on_c, 0, 72, 104
2, 249140, Note_on_c, 0, 77, 103
2, 249189, Note_on_c, 0, 44, 0
2, 249189, Note_on_c, 0, 49, 0
2, 249191, Control_c, 0, 64, 0
2, 249195, Note_on_c, 0, 37, 0
2, 249208, Note_on_c, 0, 84, 0
2, 249235, Note_on_c, 0, 48, 107
2, 249237, Note_on_c, 0, 36, 101
2, 249246, Control_c, 0, 64, 127
2, 249371, Note_on_c, 0, 80, 106
2, 249477, Note_on_c, 0, 82, 0
2, 249488, Note_on_c, 0, 82, 105
2, 249499, Note_on_c, 0, 59, 86
2, 249500, Note_on_c, 0, 53, 72
2, 249592, Note_on_c, 0, 80, 0
2, 249598, Note_on_c, 0, 80, 107
2, 249600, Note_on_c, 0, 48, 0
2, 249601, Note_on_c, 0, 92, 100
2, 249607, Note_on_c, 0, 48, 86
2, 249607, Note_on_c, 0, 92, 0
2, 249607, Note_on_c, 0, 60, 90
2, 249707, Note_on_c, 0, 60, 0
2, 249707, Note_on_c, 0, 72, 0
2, 249707, Note_on_c, 0, 82, 0
2, 249716, Note_on_c, 0, 72, 102
2, 249716, Note_on_c, 0, 82, 105
2, 249718, Note_on_c, 0, 60, 98
2, 249757, Note_on_c, 0, 55, 61
2, 249822, Note_on_c, 0, 82, 0
2, 249826, Note_on_c, 0, 82, 98
2, 249830, Note_on_c, 0, 48, 0
2, 249839, Note_on_c, 0, 48, 80
2, 249860, Note_on_c, 0, 52, 83
2, 249937, Note_on_c, 0, 72, 0
2, 249939, Note_on_c, 0, 84, 97
2, 249942, Note_on_c, 0, 72, 83
2, 250049, Note_on_c, 0, 53, 0
2, 250049, Note_on_c, 0, 48, 0
2, 250050, Control_c, 0, 64, 0
2, 250050, Note_on_c, 0, 80, 0
2, 250050, Note_on_c, 0, 82, 0
2, 250050, Note_on_c, 0, 55, 0
2, 250050, Note_on_c, 0, 77, 0
2, 250050, Note_on_c, 0, 72, 0
2, 250052, Note_on_c, 0, 59, 0
2, 250052, Note_on_c, 0, 84, 0
2, 250053, Note_on_c, 0, 36, 0
2, 250060, Note_on_c, 0, 52, 0
2, 250060, Note_on_c, 0, 60, 0
2, 250070, Note_on_c, 0, 85, 108
2, 250070, Note_on_c, 0, 40, 110
2, 250071, Note_on_c, 0, 52, 102
2, 250074, Note_on_c, 0, 79, 94
2, 250074, Note_on_c, 0, 76, 107
2, 250122, Control_c, 0, 64, 127
2, 250284, Note_on_c, 0, 60, 86
2, 250294, Note_on_c, 0, 48, 84
2, 250303, Note_on_c, 0, 84, 86
2, 250308, Note_on_c, 0, 72, 73
2, 250314, Note_on_c, 0, 40, 0
2, 250319, Note_on_c, 0, 46, 48
2, 250322, Note_on_c, 0, 40, 56
2, 250391, Note_on_c, 0, 40, 0
2, 250391, Note_on_c, 0, 52, 0
2, 250397, Note_on_c, 0, 52, 92
2, 250402, Note_on_c, 0, 40, 77
2, 250406, Note_on_c, 0, 48, 0
2, 250410, Note_on_c, 0, 48, 70
2, 250467, Note_on_c, 0, 60, 0
2, 250484, Note_on_c, 0, 84, 0
2, 250485, Note_on_c, 0, 85, 0
2, 250486, Note_on_c, 0, 48, 0
2, 250486, Note_on_c, 0, 52, 0
2, 250486, Note_on_c, 0, 76, 0
2, 250487, Note_on_c, 0, 79, 0
2, 250487, Note_on_c, 0, 40, 0
2, 250489, Control_c, 0, 64, 0
2, 250490, Note_on_c, 0, 46, 0
2, 250521, Note_on_c, 0, 72, 0
2, 250528, Note_on_c, 0, 82, 105
2, 250530, Note_on_c, 0, 48, 103
2, 250530, Note_on_c, 0, 36, 104
2, 250531, Note_on_c, 0, 72, 108
2, 250560, Control_c, 0, 64, 127
2, 250769, Note_on_c, 0, 43, 87
2, 250771, Note_on_c, 0, 80, 101
2, 250775, Note_on_c, 0, 68, 87
2, 250782, Note_on_c, 0, 68, 0
2, 250882, Note_on_c, 0, 36, 0
2, 250882, Note_on_c, 0, 48, 0
2, 250886, Note_on_c, 0, 48, 83
2, 250890, Note_on_c, 0, 79, 101
2, 250891, Note_on_c, 0, 36, 76
2, 250897, Note_on_c, 0, 76, 73
2, 251013, Note_on_c, 0, 82, 0
2, 251020, Note_on_c, 0, 72, 0
2, 251023, Note_on_c, 0, 82, 111
2, 251026, Note_on_c, 0, 72, 105
2, 251031, Note_on_c, 0, 60, 91
2, 251034, Note_on_c, 0, 77, 94
2, 251036, Note_on_c, 0, 48, 0
2, 251044, Note_on_c, 0, 48, 76
2, 251045, Note_on_c, 0, 36, 0
2, 251046, Note_on_c, 0, 43, 0
2, 251047, Note_on_c, 0, 80, 0
2, 251047, Control_c, 0, 64, 0
2, 251048, Note_on_c, 0, 79, 0
2, 251059, Note_on_c, 0, 76, 0
2, 251097, Note_on_c, 0, 48, 0
2, 251120, Control_c, 0, 64, 127
2, 251123, Note_on_c, 0, 53, 100
2, 251124, Note_on_c, 0, 41, 98
2, 251281, Note_on_c, 0, 60, 0
2, 251351, Note_on_c, 0, 53, 0
2, 251358, Note_on_c, 0, 53, 82
2, 251489, Note_on_c, 0, 72, 0
2, 251489, Note_on_c, 0, 77, 0
2, 251492, Note_on_c, 0, 80, 106
2, 251493, Note_on_c, 0, 65, 85
2, 251493, Note_on_c, 0, 77, 85
2, 251496, Note_on_c, 0, 72, 85
2, 251496, Note_on_c, 0, 53, 0
2, 251499, Note_on_c, 0, 56, 83
2, 251500, Note_on_c, 0, 53, 73
2, 251712, Note_on_c, 0, 41, 0
2, 251722, Note_on_c, 0, 41, 77
2, 251850, Note_on_c, 0, 53, 0
2, 251854, Note_on_c, 0, 53, 79
2, 251861, Note_on_c, 0, 68, 95
2, 251862, Note_on_c, 0, 60, 67
2, 252058, Note_on_c, 0, 41, 0
2, 252060, Note_on_c, 0, 53, 0
2, 252060, Note_on_c, 0, 65, 0
2, 252060, Note_on_c, 0, 80, 0
2, 252060, Note_on_c, 0, 68, 0
2, 252060, Note_on_c, 0, 77, 0
2, 252060, Note_on_c, 0, 72, 0
2, 252061, Control_c, 0, 64, 0
2, 252072, Note_on_c, 0, 56, 0
2, 252072, Note_on_c, 0, 82, 0
2, 252080, Note_on_c, 0, 60, 0
2, 252105, Note_on_c, 0, 70, 103
2, 252109, Note_on_c, 0, 39, 83
2, 252109, Note_on_c, 0, 63, 83
2, 252111, Note_on_c, 0, 51, 87
2, 252157, Control_c, 0, 64, 127
2, 252343, Note_on_c, 0, 68, 87
2, 252347, Note_on_c, 0, 58, 78
2, 252347, Note_on_c, 0, 55, 70
2, 252464, Note_on_c, 0, 55, 0
2, 252472, Note_on_c, 0, 51, 0
2, 252475, Note_on_c, 0, 55, 58
2, 252477, Note_on_c, 0, 51, 61
2, 252572, Note_on_c, 0, 55, 0
2, 252572, Note_on_c, 0, 58, 0
2, 252577, Note_on_c, 0, 67, 94
2, 252581, Note_on_c, 0, 58, 80
2, 252583, Note_on_c, 0, 55, 78
2, 252687, Note_on_c, 0, 51, 0
2, 252698, Note_on_c, 0, 51, 85
2, 252810, Note_on_c, 0, 55, 0
2, 252810, Note_on_c, 0, 58, 0
2, 252812, Note_on_c, 0, 65, 88
2, 252815, Note_on_c, 0, 58, 83
2, 252818, Note_on_c, 0, 55, 61
2, 253007, Note_on_c, 0, 55, 0
2, 253008, Note_on_c, 0, 58, 0
2, 253008, Note_on_c, 0, 51, 0
2, 253008, Note_on_c, 0, 67, 0
2, 253008, Note_on_c, 0, 68, 0
2, 253008, Note_on_c, 0, 70, 0
2, 253008, Note_on_c, 0, 63, 0
2, 253009, Note_on_c, 0, 65, 0
2, 253009, Note_on_c, 0, 39, 0
2, 253009, Control_c, 0, 64, 0
2, 253045, Note_on_c, 0, 68, 95
2, 253057, Note_on_c, 0, 34, 84
2, 253057, Note_on_c, 0, 46, 84
2, 253058, Note_on_c, 0, 61, 67
2, 253086, Control_c, 0, 64, 127
2, 253214, Control_c, 0, 64, 0
2, 253224, Note_on_c, 0, 34, 0
2, 253224, Note_on_c, 0, 46, 0
2, 253263, Note_on_c, 0, 61, 0
2, 253286, Note_on_c, 0, 68, 0
2, 253290, Note_on_c, 0, 68, 78
2, 253292, Note_on_c, 0, 61, 75
2, 253294, Note_on_c, 0, 53, 68
2, 253296, Note_on_c, 0, 65, 71
2, 253296, Note_on_c, 0, 56, 69
2, 253329, Note_on_c, 0, 68, 0
2, 253329, Note_on_c, 0, 61, 0
2, 253330, Note_on_c, 0, 53, 0
2, 253331, Note_on_c, 0, 65, 0
2, 253332, Note_on_c, 0, 56, 0
2, 253412, Note_on_c, 0, 46, 69
2, 253439, Note_on_c, 0, 46, 0
2, 253539, Note_on_c, 0, 65, 64
2, 253542, Note_on_c, 0, 61, 65
2, 253544, Note_on_c, 0, 56, 50
2, 253544, Note_on_c, 0, 53, 56
2, 253577, Note_on_c, 0, 65, 0
2, 253579, Note_on_c, 0, 53, 0
2, 253579, Note_on_c, 0, 61, 0
2, 253580, Note_on_c, 0, 56, 0
2, 253652, Note_on_c, 0, 46, 66
2, 253693, Note_on_c, 0, 46, 0
2, 253770, Note_on_c, 0, 61, 84
2, 253772, Note_on_c, 0, 53, 78
2, 253772, Note_on_c, 0, 65, 75
2, 253773, Note_on_c, 0, 68, 87
2, 253777, Note_on_c, 0, 56, 76
2, 253811, Note_on_c, 0, 65, 0
2, 253811, Note_on_c, 0, 61, 0
2, 253812, Note_on_c, 0, 68, 0
2, 253813, Note_on_c, 0, 53, 0
2, 253815, Note_on_c, 0, 56, 0
2, 253843, Note_on_c, 0, 46, 67
2, 253885, Note_on_c, 0, 46, 0
2, 254007, Note_on_c, 0, 70, 99
2, 254010, Note_on_c, 0, 39, 88
2, 254013, Note_on_c, 0, 51, 88
2, 254014, Note_on_c, 0, 67, 86
2, 254015, Note_on_c, 0, 58, 84
2, 254017, Note_on_c, 0, 63, 84
2, 254046, Control_c, 0, 64, 127
2, 254219, Control_c, 0, 64, 0
2, 254236, Note_on_c, 0, 68, 98
2, 254238, Note_on_c, 0, 63, 0
2, 254246, Note_on_c, 0, 63, 80
2, 254248, Note_on_c, 0, 46, 77
2, 254251, Note_on_c, 0, 55, 74
2, 254268, Note_on_c, 0, 70, 0
2, 254273, Note_on_c, 0, 67, 0
2, 254286, Note_on_c, 0, 68, 0
2, 254313, Note_on_c, 0, 63, 0
2, 254315, Note_on_c, 0, 51, 0
2, 254330, Note_on_c, 0, 39, 0
2, 254346, Note_on_c, 0, 55, 0
2, 254346, Note_on_c, 0, 58, 0
2, 254372, Note_on_c, 0, 46, 0
2, 254483, Note_on_c, 0, 67, 96
2, 254487, Note_on_c, 0, 49, 98
2, 254487, Note_on_c, 0, 58, 81
2, 254488, Note_on_c, 0, 37, 95
2, 254489, Note_on_c, 0, 61, 82
2, 254561, Control_c, 0, 64, 127
2, 254699, Note_on_c, 0, 37, 0
2, 254718, Note_on_c, 0, 65, 85
2, 254743, Note_on_c, 0, 53, 78
2, 254873, Note_on_c, 0, 67, 0
2, 254877, Note_on_c, 0, 53, 0
2, 254878, Note_on_c, 0, 61, 0
2, 254878, Note_on_c, 0, 65, 0
2, 254881, Note_on_c, 0, 49, 0
2, 254883, Note_on_c, 0, 58, 0
2, 254885, Control_c, 0, 64, 0
2, 254965, Note_on_c, 0, 63, 104
2, 254969, Note_on_c, 0, 36, 94
2, 254970, Note_on_c, 0, 51, 81
2, 254972, Note_on_c, 0, 55, 85
2, 254973, Note_on_c, 0, 58, 84
2, 254976, Note_on_c, 0, 51, 0
2, 255045, Control_c, 0, 64, 127
2, 255165, Note_on_c, 0, 55, 0
2, 255171, Control_c, 0, 64, 0
2, 255171, Note_on_c, 0, 63, 0
2, 255198, Note_on_c, 0, 58, 0
2, 255206, Note_on_c, 0, 58, 95
2, 255208, Note_on_c, 0, 51, 87
2, 255210, Note_on_c, 0, 55, 78
2, 255212, Note_on_c, 0, 39, 71
2, 255221, Note_on_c, 0, 36, 0
2, 255241, Note_on_c, 0, 51, 0
2, 255245, Note_on_c, 0, 55, 0
2, 255246, Note_on_c, 0, 58, 0
2, 255260, Note_on_c, 0, 39, 0
2, 255328, Note_on_c, 0, 36, 85
2, 255368, Note_on_c, 0, 36, 0
2, 255448, Note_on_c, 0, 51, 91
2, 255450, Note_on_c, 0, 63, 110
2, 255453, Note_on_c, 0, 55, 96
2, 255457, Note_on_c, 0, 58, 87
2, 255463, Note_on_c, 0, 43, 74
2, 255505, Control_c, 0, 64, 127
2, 255513, Note_on_c, 0, 55, 0
2, 255579, Note_on_c, 0, 36, 77
2, 255682, Note_on_c, 0, 58, 0
2, 255690, Note_on_c, 0, 58, 86
2, 255693, Note_on_c, 0, 55, 58
2, 255695, Note_on_c, 0, 61, 68
2, 255751, Note_on_c, 0, 36, 0
2, 255751, Note_on_c, 0, 58, 0
2, 255752, Note_on_c, 0, 55, 0
2, 255752, Note_on_c, 0, 61, 0
2, 255753, Note_on_c, 0, 43, 0
2, 255755, Note_on_c, 0, 63, 0
2, 255758, Control_c, 0, 64, 0
2, 255767, Note_on_c, 0, 51, 0
2, 255829, Note_on_c, 0, 70, 100
2, 255830, Note_on_c, 0, 41, 95
2, 255830, Note_on_c, 0, 53, 96
2, 255830, Note_on_c, 0, 63, 94
2, 255832, Note_on_c, 0, 60, 82
2, 255835, Note_on_c, 0, 58, 87
2, 255851, Control_c, 0, 64, 127
2, 256051, Note_on_c, 0, 60, 0
2, 256062, Note_on_c, 0, 60, 92
2, 256062, Note_on_c, 0, 72, 94
2, 256078, Note_on_c, 0, 29, 79
2, 256091, Note_on_c, 0, 41, 0
2, 256091, Note_on_c, 0, 58, 0
2, 256092, Note_on_c, 0, 70, 0
2, 256093, Note_on_c, 0, 63, 0
2, 256093, Note_on_c, 0, 60, 0
2, 256097, Control_c, 0, 64, 0
2, 256099, Note_on_c, 0, 72, 0
2, 256112, Note_on_c, 0, 53, 0
2, 256158, Note_on_c, 0, 29, 0
2, 256158, Control_c, 0, 64, 127
2, 256164, Note_on_c, 0, 73, 102
2, 256167, Note_on_c, 0, 41, 79
2, 256168, Note_on_c, 0, 29, 75
2, 256169, Note_on_c, 0, 61, 103
2, 256288, Note_on_c, 0, 72, 105
2, 256289, Note_on_c, 0, 41, 0
2, 256293, Note_on_c, 0, 65, 96
2, 256294, Note_on_c, 0, 60, 95
2, 256298, Note_on_c, 0, 41, 77
2, 256401, Note_on_c, 0, 53, 101
2, 256519, Note_on_c, 0, 29, 0
2, 256519, Note_on_c, 0, 41, 0
2, 256524, Note_on_c, 0, 41, 101
2, 256528, Note_on_c, 0, 29, 71
2, 256627, Note_on_c, 0, 41, 0
2, 256627, Note_on_c, 0, 53, 0
2, 256631, Note_on_c, 0, 53, 96
2, 256632, Note_on_c, 0, 41, 89
2, 256636, Note_on_c, 0, 48, 83
2, 256658, Note_on_c, 0, 46, 69
2, 256734, Note_on_c, 0, 72, 0
2, 256741, Note_on_c, 0, 77, 105
2, 256743, Note_on_c, 0, 72, 105
2, 256744, Note_on_c, 0, 84, 97
2, 256745, Note_on_c, 0, 80, 92
2, 256789, Note_on_c, 0, 61, 0
2, 256790, Note_on_c, 0, 53, 0
2, 256790, Note_on_c, 0, 65, 0
2, 256790, Note_on_c, 0, 73, 0
2, 256790, Note_on_c, 0, 60, 0
2, 256790, Note_on_c, 0, 41, 0
2, 256791, Note_on_c, 0, 46, 0
2, 256791, Note_on_c, 0, 72, 0
2, 256792, Note_on_c, 0, 77, 0
2, 256793, Control_c, 0, 64, 0
2, 256803, Note_on_c, 0, 29, 0
2, 256803, Note_on_c, 0, 84, 0
2, 256811, Note_on_c, 0, 48, 0
2, 256811, Note_on_c, 0, 80, 0
2, 256849, Note_on_c, 0, 46, 110
2, 256850, Note_on_c, 0, 72, 109
2, 256852, Note_on_c, 0, 84, 105
2, 256853, Note_on_c, 0, 34, 100
2, 256853, Note_on_c, 0, 80, 104
2, 256872, Control_c, 0, 64, 127
2, 256963, Note_on_c, 0, 53, 91
2, 257018, Note_on_c, 0, 56, 89
2, 257083, Note_on_c, 0, 65, 101
2, 257084, Note_on_c, 0, 61, 102
2, 257137, Control_c, 0, 64, 0
2, 257139, Note_on_c, 0, 72, 0
2, 257139, Note_on_c, 0, 80, 0
2, 257139, Note_on_c, 0, 84, 0
2, 257139, Note_on_c, 0, 46, 0
2, 257139, Note_on_c, 0, 56, 0
2, 257140, Note_on_c, 0, 53, 0
2, 257141, Note_on_c, 0, 65, 0
2, 257141, Note_on_c, 0, 61, 0
2, 257149, Note_on_c, 0, 34, 0
2, 257208, Note_on_c, 0, 46, 111
2, 257210, Note_on_c, 0, 34, 102
2, 257211, Note_on_c, 0, 65, 100
2, 257213, Note_on_c, 0, 58, 102
2, 257218, Note_on_c, 0, 61, 86
2, 257221, Note_on_c, 0, 56, 88
2, 257233, Control_c, 0, 64, 127
2, 257448, Note_on_c, 0, 72, 105
2, 257450, Note_on_c, 0, 84, 99
2, 257454, Note_on_c, 0, 80, 94
2, 257456, Note_on_c, 0, 53, 86
2, 257458, Note_on_c, 0, 77, 84
2, 257518, Note_on_c, 0, 56, 0
2, 257525, Note_on_c, 0, 56, 94
2, 257610, Note_on_c, 0, 58, 0
2, 257613, Note_on_c, 0, 61, 0
2, 257613, Note_on_c, 0, 72, 0
2, 257613, Note_on_c, 0, 65, 0
2, 257613, Note_on_c, 0, 84, 0
2, 257613, Note_on_c, 0, 53, 0
2, 257613, Note_on_c, 0, 80, 0
2, 257614, Control_c, 0, 64, 0
2, 257617, Note_on_c, 0, 34, 0
2, 257617, Note_on_c, 0, 46, 0
2, 257633, Note_on_c, 0, 56, 0
2, 257633, Note_on_c, 0, 77, 0
2, 257685, Note_on_c, 0, 39, 106
2, 257686, Note_on_c, 0, 70, 111
2, 257687, Note_on_c, 0, 82, 108
2, 257689, Note_on_c, 0, 79, 98
2, 257690, Note_on_c, 0, 51, 107
2, 257690, Note_on_c, 0, 75, 107
2, 257694, Note_on_c, 0, 78, 90
2, 257717, Control_c, 0, 64, 127
2, 257932, Note_on_c, 0, 75, 0
2, 257936, Note_on_c, 0, 80, 107
2, 257937, Note_on_c, 0, 68, 105
2, 257941, Note_on_c, 0, 75, 73
2, 257976, Control_c, 0, 64, 0
2, 257980, Note_on_c, 0, 79, 0
2, 257981, Note_on_c, 0, 82, 0
2, 257981, Note_on_c, 0, 75, 0
2, 257981, Note_on_c, 0, 51, 0
2, 257982, Note_on_c, 0, 70, 0
2, 257982, Note_on_c, 0, 39, 0
2, 257983, Note_on_c, 0, 68, 0
2, 257983, Note_on_c, 0, 80, 0
2, 257986, Note_on_c, 0, 78, 0
2, 258170, Control_c, 0, 64, 127
2, 258176, Note_on_c, 0, 79, 107
2, 258183, Note_on_c, 0, 70, 94
2, 258184, Note_on_c, 0, 67, 100
2, 258198, Note_on_c, 0, 75, 69
2, 258424, Note_on_c, 0, 70, 0
2, 258424, Note_on_c, 0, 75, 0
2, 258431, Note_on_c, 0, 75, 106
2, 258432, Note_on_c, 0, 70, 90
2, 258434, Note_on_c, 0, 63, 102
2, 258437, Note_on_c, 0, 79, 0
2, 258440, Note_on_c, 0, 67, 0
2, 258443, Control_c, 0, 64, 0
2, 258470, Control_c, 0, 64, 127
2, 258480, Note_on_c, 0, 70, 0
2, 258560, Note_on_c, 0, 46, 93
2, 258560, Note_on_c, 0, 51, 89
2, 258560, Note_on_c, 0, 39, 88
2, 258630, Note_on_c, 0, 65, 85
2, 258681, Note_on_c, 0, 70, 94
2, 258728, Note_on_c, 0, 72, 81
2, 258741, Control_c, 0, 64, 0
2, 258743, Note_on_c, 0, 46, 0
2, 258743, Note_on_c, 0, 63, 0
2, 258744, Note_on_c, 0, 39, 0
2, 258744, Note_on_c, 0, 51, 0
2, 258745, Note_on_c, 0, 70, 0
2, 258754, Note_on_c, 0, 75, 0
2, 258777, Note_on_c, 0, 65, 0
2, 258781, Note_on_c, 0, 77, 108
2, 258785, Note_on_c, 0, 53, 101
2, 258786, Note_on_c, 0, 65, 97
2, 258787, Note_on_c, 0, 41, 94
2, 258831, Control_c, 0, 64, 127
2, 259044, Note_on_c, 0, 48, 76
2, 259130, Note_on_c, 0, 72, 0
2, 259146, Note_on_c, 0, 53, 0
2, 259155, Note_on_c, 0, 53, 76
2, 259257, Control_c, 0, 64, 0
2, 259260, Note_on_c, 0, 65, 0
2, 259262, Note_on_c, 0, 53, 0
2, 259262, Note_on_c, 0, 48, 0
2, 259264, Note_on_c, 0, 77, 0
2, 259264, Note_on_c, 0, 41, 0
2, 259267, Note_on_c, 0, 63, 99
2, 259273, Note_on_c, 0, 39, 87
2, 259274, Note_on_c, 0, 55, 87
2, 259274, Note_on_c, 0, 58, 87
2, 259322, Control_c, 0, 64, 127
2, 259506, Note_on_c, 0, 51, 56
2, 259510, Note_on_c, 0, 55, 0
2, 259603, Control_c, 0, 64, 0
2, 259603, Note_on_c, 0, 58, 0
2, 259604, Note_on_c, 0, 51, 0
2, 259604, Note_on_c, 0, 63, 0
2, 259604, Note_on_c, 0, 39, 0
2, 259641, Note_on_c, 0, 38, 93
2, 259641, Note_on_c, 0, 50, 89
2, 259642, Note_on_c, 0, 62, 98
2, 259647, Note_on_c, 0, 58, 92
2, 259648, Note_on_c, 0, 53, 85
2, 259706, Control_c, 0, 64, 127
2, 259898, Note_on_c, 0, 46, 84
2, 259998, Note_on_c, 0, 50, 0
2, 260003, Note_on_c, 0, 50, 76
2, 260129, Note_on_c, 0, 53, 0
2, 260134, Note_on_c, 0, 53, 75
2, 260135, Note_on_c, 0, 52, 80
2, 260244, Note_on_c, 0, 58, 0
2, 260253, Note_on_c, 0, 58, 105
2, 260467, Note_on_c, 0, 50, 0
2, 260471, Note_on_c, 0, 50, 92
2, 260598, Note_on_c, 0, 77, 104
2, 260600, Note_on_c, 0, 72, 103
2, 260600, Note_on_c, 0, 84, 98
2, 260601, Note_on_c, 0, 80, 90
2, 260632, Note_on_c, 0, 52, 0
2, 260632, Note_on_c, 0, 53, 0
2, 260632, Note_on_c, 0, 38, 0
2, 260632, Note_on_c, 0, 50, 0
2, 260632, Note_on_c, 0, 62, 0
2, 260632, Note_on_c, 0, 58, 0
2, 260632, Note_on_c, 0, 46, 0
2, 260634, Control_c, 0, 64, 0
2, 260637, Note_on_c, 0, 77, 0
2, 260638, Note_on_c, 0, 72, 0
2, 260638, Note_on_c, 0, 84, 0
2, 260638, Note_on_c, 0, 80, 0
2, 260704, Note_on_c, 0, 34, 100
2, 260705, Control_c, 0, 64, 127
2, 260708, Note_on_c, 0, 46, 100
2, 260709, Note_on_c, 0, 72, 105
2, 260709, Note_on_c, 0, 84, 98
2, 260712, Note_on_c, 0, 80, 101
2, 260915, Note_on_c, 0, 53, 87
2, 260921, Note_on_c, 0, 56, 91
2, 260939, Note_on_c, 0, 65, 99
2, 260945, Note_on_c, 0, 61, 91
2, 261005, Note_on_c, 0, 80, 0
2, 261005, Note_on_c, 0, 84, 0
2, 261005, Note_on_c, 0, 72, 0
2, 261006, Control_c, 0, 64, 0
2, 261007, Note_on_c, 0, 53, 0
2, 261007, Note_on_c, 0, 56, 0
2, 261007, Note_on_c, 0, 61, 0
2, 261007, Note_on_c, 0, 65, 0
2, 261020, Note_on_c, 0, 34, 0
2, 261020, Note_on_c, 0, 46, 0
2, 261069, Note_on_c, 0, 65, 102
2, 261070, Note_on_c, 0, 58, 99
2, 261070, Note_on_c, 0, 61, 102
2, 261071, Note_on_c, 0, 46, 107
2, 261071, Note_on_c, 0, 34, 101
2, 261089, Control_c, 0, 64, 127
2, 261319, Note_on_c, 0, 65, 0
2, 261320, Note_on_c, 0, 84, 100
2, 261323, Note_on_c, 0, 72, 102
2, 261325, Note_on_c, 0, 65, 88
2, 261328, Note_on_c, 0, 53, 98
2, 261331, Note_on_c, 0, 56, 96
2, 261492, Note_on_c, 0, 34, 0
2, 261493, Note_on_c, 0, 46, 0
2, 261493, Note_on_c, 0, 84, 0
2, 261493, Note_on_c, 0, 72, 0
2, 261493, Note_on_c, 0, 61, 0
2, 261494, Note_on_c, 0, 56, 0
2, 261494, Note_on_c, 0, 53, 0
2, 261496, Note_on_c, 0, 58, 0
2, 261499, Control_c, 0, 64, 0
2, 261511, Note_on_c, 0, 65, 0
2, 261554, Note_on_c, 0, 79, 106
2, 261555, Note_on_c, 0, 70, 110
2, 261556, Note_on_c, 0, 82, 109
2, 261556, Note_on_c, 0, 51, 111
2, 261556, Note_on_c, 0, 39, 107
2, 261558, Note_on_c, 0, 75, 111
2, 261573, Control_c, 0, 64, 127
2, 261794, Note_on_c, 0, 39, 0
2, 261794, Note_on_c, 0, 51, 0
2, 261794, Note_on_c, 0, 82, 0
2, 261795, Note_on_c, 0, 75, 0
2, 261795, Note_on_c, 0, 79, 0
2, 261797, Note_on_c, 0, 70, 0
2, 261798, Control_c, 0, 64, 0
2, 261807, Note_on_c, 0, 80, 105
2, 261807, Note_on_c, 0, 68, 109
2, 261847, Note_on_c, 0, 68, 0
2, 261861, Note_on_c, 0, 80, 0
2, 262038, Note_on_c, 0, 75, 108
2, 262038, Note_on_c, 0, 70, 112
2, 262039, Note_on_c, 0, 82, 110
2, 262041, Note_on_c, 0, 79, 91
2, 262087, Control_c, 0, 64, 127
2, 262248, Note_on_c, 0, 75, 0
2, 262257, Note_on_c, 0, 87, 109
2, 262259, Note_on_c, 0, 75, 109
2, 262379, Note_on_c, 0, 75, 0
2, 262379, Note_on_c, 0, 79, 0
2, 262379, Note_on_c, 0, 82, 0
2, 262379, Note_on_c, 0, 87, 0
2, 262384, Note_on_c, 0, 87, 113
2, 262387, Note_on_c, 0, 75, 109
2, 262387, Note_on_c, 0, 79, 102
2, 262390, Note_on_c, 0, 82, 90
2, 262666, Note_on_c, 0, 25, 85
2, 262667, Note_on_c, 0, 37, 75
2, 262741, Note_on_c, 0, 39, 81
2, 262817, Note_on_c, 0, 51, 102
2, 262823, Note_on_c, 0, 47, 76
2, 262825, Note_on_c, 0, 59, 77
2, 262884, Note_on_c, 0, 56, 85
2, 262913, Note_on_c, 0, 58, 86
2, 262955, Note_on_c, 0, 51, 0
2, 262966, Note_on_c, 0, 51, 104
2, 262978, Note_on_c, 0, 39, 0
2, 262989, Note_on_c, 0, 39, 87
2, 262990, Note_on_c, 0, 46, 104
2, 262993, Note_on_c, 0, 25, 0
2, 262993, Note_on_c, 0, 56, 0
2, 263002, Note_on_c, 0, 56, 67
2, 263116, Note_on_c, 0, 51, 0
2, 263120, Note_on_c, 0, 51, 64
2, 263176, Note_on_c, 0, 71, 74
2, 263208, Note_on_c, 0, 75, 0
2, 263220, Note_on_c, 0, 75, 97
2, 263278, Note_on_c, 0, 82, 0
2, 263285, Note_on_c, 0, 80, 91
2, 263288, Note_on_c, 0, 82, 85
2, 263354, Note_on_c, 0, 87, 0
2, 263364, Note_on_c, 0, 87, 112
2, 263470, Note_on_c, 0, 82, 0
2, 263478, Note_on_c, 0, 82, 90
2, 263531, Note_on_c, 0, 80, 0
2, 263540, Note_on_c, 0, 80, 86
2, 263600, Note_on_c, 0, 75, 0
2, 263606, Note_on_c, 0, 75, 88
2, 263685, Note_on_c, 0, 70, 0
2, 263696, Note_on_c, 0, 70, 86
2, 263743, Note_on_c, 0, 68, 86
2, 263787, Note_on_c, 0, 63, 65
2, 263815, Note_on_c, 0, 75, 0
2, 263826, Note_on_c, 0, 75, 105
2, 263869, Note_on_c, 0, 70, 0
2, 263873, Note_on_c, 0, 70, 85
2, 263915, Note_on_c, 0, 68, 0
2, 263926, Note_on_c, 0, 68, 90
2, 263961, Note_on_c, 0, 63, 0
2, 263971, Note_on_c, 0, 63, 83
2, 264015, Note_on_c, 0, 39, 0
2, 264020, Note_on_c, 0, 39, 96
2, 264076, Note_on_c, 0, 51, 0
2, 264081, Note_on_c, 0, 51, 84
2, 264122, Note_on_c, 0, 46, 0
2, 264132, Note_on_c, 0, 46, 78
2, 264276, Note_on_c, 0, 37, 0
2, 264296, Control_c, 0, 64, 0
2, 264298, Note_on_c, 0, 58, 0
2, 264299, Note_on_c, 0, 47, 0
2, 264299, Note_on_c, 0, 80, 0
2, 264299, Note_on_c, 0, 82, 0
2, 264299, Note_on_c, 0, 63, 0
2, 264299, Note_on_c, 0, 56, 0
2, 264300, Note_on_c, 0, 71, 0
2, 264300, Note_on_c, 0, 79, 0
2, 264300, Note_on_c, 0, 39, 0
2, 264300, Note_on_c, 0, 51, 0
2, 264300, Note_on_c, 0, 75, 0
2, 264300, Note_on_c, 0, 46, 0
2, 264301, Note_on_c, 0, 70, 0
2, 264301, Note_on_c, 0, 87, 0
2, 264301, Note_on_c, 0, 59, 0
2, 264301, Note_on_c, 0, 89, 109
2, 264304, Note_on_c, 0, 80, 99
2, 264304, Note_on_c, 0, 84, 87
2, 264306, Note_on_c, 0, 77, 101
2, 264307, Note_on_c, 0, 53, 101
2, 264311, Note_on_c, 0, 41, 98
2, 264314, Note_on_c, 0, 68, 0
2, 264407, Control_c, 0, 64, 127
2, 264673, Note_on_c, 0, 67, 72
2, 264794, Note_on_c, 0, 70, 76
2, 264922, Note_on_c, 0, 68, 72
2, 265062, Note_on_c, 0, 75, 77
2, 265167, Note_on_c, 0, 77, 0
2, 265177, Note_on_c, 0, 77, 84
2, 265183, Note_on_c, 0, 49, 74
2, 265193, Note_on_c, 0, 37, 65
2, 265394, Note_on_c, 0, 65, 72
2, 265413, Note_on_c, 0, 68, 0
2, 265421, Note_on_c, 0, 68, 55
2, 265528, Note_on_c, 0, 70, 0
2, 265538, Note_on_c, 0, 70, 75
2, 265651, Note_on_c, 0, 68, 0
2, 265655, Note_on_c, 0, 68, 67
2, 265763, Note_on_c, 0, 51, 80
2, 265767, Note_on_c, 0, 39, 76
2, 265768, Note_on_c, 0, 72, 84
2, 265889, Note_on_c, 0, 67, 0
2, 265896, Note_on_c, 0, 67, 73
2, 265996, Note_on_c, 0, 70, 0
2, 266008, Note_on_c, 0, 70, 86
2, 266119, Note_on_c, 0, 75, 0
2, 266125, Note_on_c, 0, 75, 89
2, 266242, Note_on_c, 0, 77, 0
2, 266252, Note_on_c, 0, 77, 87
2, 266257, Note_on_c, 0, 41, 0
2, 266257, Note_on_c, 0, 53, 0
2, 266264, Note_on_c, 0, 53, 83
2, 266269, Note_on_c, 0, 41, 68
2, 266276, Control_c, 0, 64, 0
2, 266279, Note_on_c, 0, 37, 0
2, 266282, Note_on_c, 0, 67, 0
2, 266282, Note_on_c, 0, 65, 0
2, 266282, Note_on_c, 0, 49, 0
2, 266282, Note_on_c, 0, 39, 0
2, 266283, Note_on_c, 0, 72, 0
2, 266284, Note_on_c, 0, 51, 0
2, 266284, Note_on_c, 0, 68, 0
2, 266284, Note_on_c, 0, 70, 0
2, 266284, Note_on_c, 0, 89, 0
2, 266285, Note_on_c, 0, 75, 0
2, 266285, Note_on_c, 0, 80, 0
2, 266288, Note_on_c, 0, 84, 0
2, 266386, Note_on_c, 0, 65, 74
2, 266388, Control_c, 0, 64, 127
2, 266494, Note_on_c, 0, 70, 75
2, 266620, Note_on_c, 0, 68, 74
2, 266744, Note_on_c, 0, 72, 80
2, 266849, Note_on_c, 0, 70, 0
2, 266859, Note_on_c, 0, 70, 79
2, 266983, Note_on_c, 0, 75, 85
2, 267087, Note_on_c, 0, 77, 0
2, 267090, Note_on_c, 0, 49, 89
2, 267091, Note_on_c, 0, 37, 76
2, 267096, Note_on_c, 0, 77, 88
2, 267294, Note_on_c, 0, 65, 0
2, 267299, Note_on_c, 0, 65, 87
2, 267409, Note_on_c, 0, 70, 0
2, 267418, Note_on_c, 0, 70, 84
2, 267525, Note_on_c, 0, 75, 0
2, 267534, Note_on_c, 0, 75, 92
2, 267639, Note_on_c, 0, 41, 0
2, 267640, Note_on_c, 0, 49, 0
2, 267640, Note_on_c, 0, 37, 0
2, 267641, Note_on_c, 0, 65, 0
2, 267642, Note_on_c, 0, 72, 0
2, 267642, Note_on_c, 0, 70, 0
2, 267642, Note_on_c, 0, 68, 0
2, 267642, Note_on_c, 0, 77, 0
2, 267642, Note_on_c, 0, 75, 0
2, 267643, Control_c, 0, 64, 0
2, 267650, Note_on_c, 0, 51, 94
2, 267651, Note_on_c, 0, 80, 95
2, 267652, Note_on_c, 0, 39, 86
2, 267655, Note_on_c, 0, 53, 0
2, 267709, Control_c, 0, 64, 127
2, 267775, Note_on_c, 0, 79, 89
2, 267880, Note_on_c, 0, 77, 83
2, 268000, Note_on_c, 0, 75, 90
2, 268080, Note_on_c, 0, 80, 0
2, 268080, Note_on_c, 0, 77, 0
2, 268081, Note_on_c, 0, 79, 0
2, 268081, Note_on_c, 0, 51, 0
2, 268081, Note_on_c, 0, 39, 0
2, 268082, Note_on_c, 0, 75, 0
2, 268082, Control_c, 0, 64, 0
2, 268120, Note_on_c, 0, 53, 90
2, 268120, Note_on_c, 0, 41, 84
2, 268122, Note_on_c, 0, 77, 98
2, 268154, Control_c, 0, 64, 127
2, 268239, Note_on_c, 0, 67, 81
2, 268351, Note_on_c, 0, 55, 81
2, 268374, Note_on_c, 0, 70, 90
2, 268461, Note_on_c, 0, 56, 78
2, 268491, Note_on_c, 0, 68, 86
2, 268492, Note_on_c, 0, 67, 0
2, 268497, Note_on_c, 0, 67, 61
2, 268596, Note_on_c, 0, 65, 88
2, 268602, Note_on_c, 0, 72, 97
2, 268700, Note_on_c, 0, 68, 0
2, 268711, Note_on_c, 0, 68, 94
2, 268738, Note_on_c, 0, 41, 0
2, 268743, Note_on_c, 0, 41, 76
2, 268838, Note_on_c, 0, 53, 0
2, 268843, Note_on_c, 0, 75, 98
2, 268843, Note_on_c, 0, 53, 76
2, 268939, Note_on_c, 0, 41, 0
2, 268939, Note_on_c, 0, 67, 0
2, 268939, Note_on_c, 0, 55, 0
2, 268940, Note_on_c, 0, 68, 0
2, 268940, Note_on_c, 0, 70, 0
2, 268940, Note_on_c, 0, 72, 0
2, 268940, Note_on_c, 0, 53, 0
2, 268940, Note_on_c, 0, 56, 0
2, 268941, Note_on_c, 0, 65, 0
2, 268941, Note_on_c, 0, 75, 0
2, 268944, Control_c, 0, 64, 0
2, 268953, Note_on_c, 0, 77, 0
2, 268962, Note_on_c, 0, 77, 107
2, 268964, Note_on_c, 0, 49, 99
2, 268965, Note_on_c, 0, 37, 95
2, 269022, Control_c, 0, 64, 127
2, 269196, Note_on_c, 0, 65, 83
2, 269199, Note_on_c, 0, 53, 77
2, 269312, Note_on_c, 0, 61, 87
2, 269318, Note_on_c, 0, 70, 92
2, 269419, Note_on_c, 0, 56, 80
2, 269426, Note_on_c, 0, 68, 93
2, 269481, Note_on_c, 0, 77, 0
2, 269484, Note_on_c, 0, 61, 0
2, 269484, Note_on_c, 0, 56, 0
2, 269484, Note_on_c, 0, 49, 0
2, 269484, Note_on_c, 0, 70, 0
2, 269484, Note_on_c, 0, 68, 0
2, 269485, Note_on_c, 0, 65, 0
2, 269485, Note_on_c, 0, 53, 0
2, 269487, Control_c, 0, 64, 0
2, 269491, Note_on_c, 0, 37, 0
2, 269525, Note_on_c, 0, 39, 99
2, 269540, Note_on_c, 0, 75, 102
2, 269544, Control_c, 0, 64, 127
2, 269656, Note_on_c, 0, 53, 61
2, 269660, Note_on_c, 0, 67, 90
2, 269662, Note_on_c, 0, 55, 73
2, 269767, Note_on_c, 0, 70, 95
2, 269776, Note_on_c, 0, 58, 89
2, 269875, Note_on_c, 0, 75, 0
2, 269885, Note_on_c, 0, 75, 94
2, 269913, Note_on_c, 0, 53, 0
2, 269978, Note_on_c, 0, 70, 0
2, 269978, Note_on_c, 0, 67, 0
2, 269978, Note_on_c, 0, 58, 0
2, 269978, Note_on_c, 0, 75, 0
2, 269979, Control_c, 0, 64, 0
2, 269982, Note_on_c, 0, 39, 0
2, 269998, Note_on_c, 0, 55, 0
2, 270001, Note_on_c, 0, 41, 97
2, 270006, Note_on_c, 0, 77, 104
2, 270051, Control_c, 0, 64, 127
2, 270111, Note_on_c, 0, 65, 85
2, 270116, Note_on_c, 0, 53, 86
2, 270232, Note_on_c, 0, 70, 93
2, 270247, Note_on_c, 0, 56, 78
2, 270345, Note_on_c, 0, 68, 90
2, 270348, Note_on_c, 0, 58, 75
2, 270451, Note_on_c, 0, 53, 0
2, 270456, Note_on_c, 0, 72, 100
2, 270456, Note_on_c, 0, 53, 95
2, 270458, Note_on_c, 0, 56, 0
2, 270469, Note_on_c, 0, 56, 76
2, 270558, Note_on_c, 0, 65, 0
2, 270563, Note_on_c, 0, 65, 83
2, 270566, Note_on_c, 0, 70, 0
2, 270571, Note_on_c, 0, 70, 96
2, 270689, Note_on_c, 0, 75, 108
2, 270789, Note_on_c, 0, 68, 0
2, 270789, Note_on_c, 0, 65, 0
2, 270789, Note_on_c, 0, 75, 0
2, 270789, Note_on_c, 0, 41, 0
2, 270789, Note_on_c, 0, 58, 0
2, 270789, Note_on_c, 0, 72, 0
2, 270789, Note_on_c, 0, 70, 0
2, 270789, Note_on_c, 0, 56, 0
2, 270790, Note_on_c, 0, 53, 0
2, 270793, Control_c, 0, 64, 0
2, 270804, Note_on_c, 0, 77, 0
2, 270808, Note_on_c, 0, 77, 111
2, 270832, Note_on_c, 0, 49, 100
2, 270833, Note_on_c, 0, 37, 94
2, 270838, Note_on_c, 0, 39, 84
2, 270850, Control_c, 0, 64, 127
2, 271045, Note_on_c, 0, 72, 97
2, 271051, Note_on_c, 0, 56, 86
2, 271057, Note_on_c, 0, 56, 0
2, 271058, Note_on_c, 0, 44, 87
2, 271157, Note_on_c, 0, 49, 0
2, 271167, Note_on_c, 0, 75, 104
2, 271168, Note_on_c, 0, 49, 93
2, 271257, Note_on_c, 0, 44, 0
2, 271257, Note_on_c, 0, 77, 0
2, 271267, Note_on_c, 0, 44, 75
2, 271267, Note_on_c, 0, 56, 69
2, 271267, Note_on_c, 0, 77, 104
2, 271302, Note_on_c, 0, 37, 0
2, 271306, Note_on_c, 0, 44, 0
2, 271307, Note_on_c, 0, 72, 0
2, 271307, Note_on_c, 0, 39, 0
2, 271307, Note_on_c, 0, 75, 0
2, 271308, Note_on_c, 0, 77, 0
2, 271313, Control_c, 0, 64, 0
2, 271319, Note_on_c, 0, 49, 0
2, 271326, Note_on_c, 0, 56, 0
2, 271372, Control_c, 0, 64, 127
2, 271381, Note_on_c, 0, 80, 110
2, 271382, Note_on_c, 0, 39, 107
2, 271383, Note_on_c, 0, 51, 110
2, 271497, Note_on_c, 0, 79, 105
2, 271621, Note_on_c, 0, 58, 86
2, 271622, Note_on_c, 0, 46, 84
2, 271622, Note_on_c, 0, 77, 91
2, 271729, Note_on_c, 0, 75, 97
2, 271804, Note_on_c, 0, 80, 0
2, 271804, Note_on_c, 0, 77, 0
2, 271804, Note_on_c, 0, 79, 0
2, 271804, Note_on_c, 0, 51, 0
2, 271805, Note_on_c, 0, 39, 0
2, 271805, Note_on_c, 0, 46, 0
2, 271805, Note_on_c, 0, 75, 0
2, 271808, Control_c, 0, 64, 0
2, 271833, Note_on_c, 0, 58, 0
2, 271849, Note_on_c, 0, 53, 111
2, 271850, Note_on_c, 0, 41, 108
2, 271850, Note_on_c, 0, 89, 112
2, 271851, Note_on_c, 0, 77, 110
2, 271864, Control_c, 0, 64, 127
2, 271976, Note_on_c, 0, 84, 87
2, 272071, Note_on_c, 0, 41, 0
2, 272071, Note_on_c, 0, 53, 0
2, 272075, Note_on_c, 0, 53, 97
2, 272077, Note_on_c, 0, 41, 81
2, 272082, Note_on_c, 0, 87, 101
2, 272197, Note_on_c, 0, 65, 93
2, 272216, Note_on_c, 0, 82, 96
2, 272309, Note_on_c, 0, 84, 0
2, 272316, Note_on_c, 0, 84, 97
2, 272325, Note_on_c, 0, 41, 0
2, 272325, Note_on_c, 0, 53, 0
2, 272329, Note_on_c, 0, 53, 86
2, 272329, Note_on_c, 0, 41, 93
2, 272424, Note_on_c, 0, 53, 0
2, 272424, Note_on_c, 0, 77, 0
2, 272430, Note_on_c, 0, 77, 103
2, 272432, Note_on_c, 0, 41, 0
2, 272436, Note_on_c, 0, 53, 94
2, 272437, Note_on_c, 0, 41, 87
2, 272540, Note_on_c, 0, 87, 0
2, 272550, Note_on_c, 0, 87, 105
2, 272644, Note_on_c, 0, 41, 0
2, 272644, Note_on_c, 0, 87, 0
2, 272645, Note_on_c, 0, 77, 0
2, 272645, Note_on_c, 0, 53, 0
2, 272645, Note_on_c, 0, 82, 0
2, 272646, Note_on_c, 0, 84, 0
2, 272648, Control_c, 0, 64, 0
2, 272663, Note_on_c, 0, 65, 0
2, 272663, Note_on_c, 0, 89, 0
2, 272672, Note_on_c, 0, 89, 110
2, 272674, Note_on_c, 0, 49, 112
2, 272678, Note_on_c, 0, 37, 105
2, 272709, Control_c, 0, 64, 127
2, 272904, Note_on_c, 0, 77, 101
2, 272906, Note_on_c, 0, 53, 92
2, 273004, Note_on_c, 0, 61, 93
2, 273013, Note_on_c, 0, 82, 102
2, 273112, Note_on_c, 0, 56, 94
2, 273121, Note_on_c, 0, 80, 105
2, 273188, Note_on_c, 0, 77, 0
2, 273189, Note_on_c, 0, 61, 0
2, 273189, Note_on_c, 0, 89, 0
2, 273189, Note_on_c, 0, 56, 0
2, 273189, Note_on_c, 0, 82, 0
2, 273189, Note_on_c, 0, 49, 0
2, 273189, Note_on_c, 0, 53, 0
2, 273189, Note_on_c, 0, 80, 0
2, 273190, Control_c, 0, 64, 0
2, 273200, Note_on_c, 0, 37, 0
2, 273237, Note_on_c, 0, 51, 113
2, 273238, Note_on_c, 0, 39, 110
2, 273239, Note_on_c, 0, 84, 107
2, 273254, Control_c, 0, 64, 127
2, 273363, Note_on_c, 0, 79, 107
2, 273464, Note_on_c, 0, 58, 97
2, 273468, Note_on_c, 0, 82, 107
2, 273586, Note_on_c, 0, 87, 104
2, 273657, Control_c, 0, 64, 0
2, 273657, Note_on_c, 0, 51, 0
2, 273657, Note_on_c, 0, 87, 0
2, 273657, Note_on_c, 0, 82, 0
2, 273658, Note_on_c, 0, 58, 0
2, 273658, Note_on_c, 0, 79, 0
2, 273658, Note_on_c, 0, 84, 0
2, 273669, Note_on_c, 0, 39, 0
2, 273695, Note_on_c, 0, 53, 111
2, 273696, Note_on_c, 0, 41, 109
2, 273696, Note_on_c, 0, 89, 111
2, 273722, Control_c, 0, 64, 127
2, 273826, Note_on_c, 0, 77, 107
2, 273934, Note_on_c, 0, 58, 103
2, 273939, Note_on_c, 0, 82, 106
2, 274048, Note_on_c, 0, 65, 99
2, 274057, Note_on_c, 0, 80, 97
2, 274155, Note_on_c, 0, 60, 95
2, 274158, Note_on_c, 0, 84, 99
2, 274260, Note_on_c, 0, 41, 0
2, 274260, Note_on_c, 0, 77, 0
2, 274270, Note_on_c, 0, 53, 0
2, 274271, Note_on_c, 0, 77, 103
2, 274271, Note_on_c, 0, 41, 90
2, 274380, Note_on_c, 0, 48, 97
2, 274383, Note_on_c, 0, 87, 105
2, 274463, Note_on_c, 0, 41, 0
2, 274464, Note_on_c, 0, 77, 0
2, 274464, Note_on_c, 0, 82, 0
2, 274464, Note_on_c, 0, 65, 0
2, 274464, Note_on_c, 0, 80, 0
2, 274465, Note_on_c, 0, 60, 0
2, 274465, Note_on_c, 0, 58, 0
2, 274465, Note_on_c, 0, 48, 0
2, 274465, Note_on_c, 0, 84, 0
2, 274466, Note_on_c, 0, 87, 0
2, 274468, Control_c, 0, 64, 0
2, 274498, Note_on_c, 0, 89, 0
2, 274502, Note_on_c, 0, 89, 113
2, 274505, Note_on_c, 0, 49, 112
2, 274509, Note_on_c, 0, 37, 106
2, 274510, Note_on_c, 0, 77, 106
2, 274544, Control_c, 0, 64, 127
2, 274713, Note_on_c, 0, 77, 0
2, 274722, Note_on_c, 0, 77, 104
2, 274732, Note_on_c, 0, 53, 88
2, 274757, Note_on_c, 0, 82, 65
2, 274758, Note_on_c, 0, 48, 68
2, 274767, Note_on_c, 0, 48, 0
2, 274846, Note_on_c, 0, 84, 92
2, 274944, Note_on_c, 0, 89, 0
2, 274948, Note_on_c, 0, 89, 108
2, 275008, Note_on_c, 0, 77, 0
2, 275009, Note_on_c, 0, 89, 0
2, 275009, Note_on_c, 0, 53, 0
2, 275010, Note_on_c, 0, 82, 0
2, 275010, Note_on_c, 0, 84, 0
2, 275012, Control_c, 0, 64, 0
2, 275013, Note_on_c, 0, 37, 0
2, 275020, Note_on_c, 0, 49, 0
2, 275063, Note_on_c, 0, 92, 111
2, 275067, Note_on_c, 0, 39, 107
2, 275068, Note_on_c, 0, 51, 111
2, 275071, Note_on_c, 0, 82, 100
2, 275074, Control_c, 0, 64, 127
2, 275192, Note_on_c, 0, 91, 110
2, 275277, Note_on_c, 0, 46, 77
2, 275285, Note_on_c, 0, 89, 108
2, 275406, Note_on_c, 0, 87, 107
2, 275490, Note_on_c, 0, 92, 0
2, 275490, Note_on_c, 0, 82, 0
2, 275491, Note_on_c, 0, 91, 0
2, 275491, Note_on_c, 0, 87, 0
2, 275491, Note_on_c, 0, 39, 0
2, 275491, Note_on_c, 0, 51, 0
2, 275491, Note_on_c, 0, 46, 0
2, 275492, Control_c, 0, 64, 0
2, 275520, Note_on_c, 0, 89, 0
2, 275523, Note_on_c, 0, 53, 110
2, 275524, Note_on_c, 0, 41, 107
2, 275526, Note_on_c, 0, 89, 111
2, 275529, Note_on_c, 0, 77, 111
2, 275543, Control_c, 0, 64, 127
2, 275639, Note_on_c, 0, 84, 95
2, 275742, Note_on_c, 0, 53, 0
2, 275748, Note_on_c, 0, 53, 94
2, 275752, Note_on_c, 0, 87, 107
2, 275865, Note_on_c, 0, 53, 0
2, 275869, Note_on_c, 0, 65, 101
2, 275870, Note_on_c, 0, 82, 104
2, 275875, Note_on_c, 0, 53, 93
2, 275980, Note_on_c, 0, 84, 0
2, 275985, Note_on_c, 0, 60, 96
2, 275988, Note_on_c, 0, 84, 99
2, 276101, Note_on_c, 0, 80, 109
2, 276103, Note_on_c, 0, 53, 0
2, 276110, Note_on_c, 0, 43, 74
2, 276111, Note_on_c, 0, 53, 77
2, 276203, Note_on_c, 0, 87, 0
2, 276213, Note_on_c, 0, 87, 107
2, 276214, Note_on_c, 0, 48, 71
2, 276237, Note_on_c, 0, 75, 99
2, 276314, Note_on_c, 0, 53, 0
2, 276315, Note_on_c, 0, 80, 0
2, 276316, Note_on_c, 0, 43, 0
2, 276316, Note_on_c, 0, 82, 0
2, 276316, Note_on_c, 0, 75, 0
2, 276316, Note_on_c, 0, 84, 0
2, 276317, Note_on_c, 0, 60, 0
2, 276318, Note_on_c, 0, 48, 0
2, 276320, Control_c, 0, 64, 0
2, 276326, Note_on_c, 0, 41, 0
2, 276326, Note_on_c, 0, 89, 0
2, 276330, Note_on_c, 0, 49, 115
2, 276334, Note_on_c, 0, 77, 0
2, 276335, Note_on_c, 0, 37, 111
2, 276336, Note_on_c, 0, 89, 114
2, 276338, Note_on_c, 0, 77, 113
2, 276341, Note_on_c, 0, 65, 0
2, 276349, Note_on_c, 0, 87, 0
2, 276380, Control_c, 0, 64, 127
2, 276518, Note_on_c, 0, 37, 0
2, 276537, Note_on_c, 0, 72, 99
2, 276575, Note_on_c, 0, 53, 79
2, 276607, Note_on_c, 0, 61, 71
2, 276652, Note_on_c, 0, 82, 102
2, 276768, Note_on_c, 0, 80, 106
2, 276772, Note_on_c, 0, 51, 70
2, 276837, Note_on_c, 0, 61, 0
2, 276837, Note_on_c, 0, 80, 0
2, 276837, Note_on_c, 0, 72, 0
2, 276837, Note_on_c, 0, 53, 0
2, 276837, Note_on_c, 0, 77, 0
2, 276838, Note_on_c, 0, 82, 0
2, 276838, Note_on_c, 0, 89, 0
2, 276843, Control_c, 0, 64, 0
2, 276848, Note_on_c, 0, 49, 0
2, 276871, Note_on_c, 0, 51, 0
2, 276875, Note_on_c, 0, 39, 102
2, 276876, Note_on_c, 0, 51, 105
2, 276881, Note_on_c, 0, 86, 105
2, 276894, Control_c, 0, 64, 127
2, 276985, Note_on_c, 0, 77, 106
2, 277096, Note_on_c, 0, 58, 85
2, 277101, Note_on_c, 0, 82, 100
2, 277109, Note_on_c, 0, 51, 0
2, 277114, Note_on_c, 0, 51, 78
2, 277130, Note_on_c, 0, 83, 58
2, 277222, Note_on_c, 0, 87, 106
2, 277289, Note_on_c, 0, 77, 0
2, 277290, Note_on_c, 0, 82, 0
2, 277290, Note_on_c, 0, 51, 0
2, 277291, Note_on_c, 0, 58, 0
2, 277291, Note_on_c, 0, 87, 0
2, 277293, Control_c, 0, 64, 0
2, 277301, Note_on_c, 0, 39, 0
2, 277301, Note_on_c, 0, 83, 0
2, 277309, Note_on_c, 0, 86, 0
2, 277334, Note_on_c, 0, 53, 114
2, 277336, Note_on_c, 0, 41, 110
2, 277336, Note_on_c, 0, 89, 111
2, 277370, Control_c, 0, 64, 127
2, 277459, Note_on_c, 0, 77, 97
2, 277562, Note_on_c, 0, 53, 0
2, 277567, Note_on_c, 0, 65, 104
2, 277573, Note_on_c, 0, 84, 98
2, 277574, Note_on_c, 0, 53, 90
2, 277683, Note_on_c, 0, 60, 94
2, 277687, Note_on_c, 0, 82, 102
2, 277793, Note_on_c, 0, 41, 0
2, 277800, Note_on_c, 0, 87, 106
2, 277804, Note_on_c, 0, 41, 97
2, 277908, Note_on_c, 0, 41, 0
2, 277908, Note_on_c, 0, 53, 0
2, 277908, Note_on_c, 0, 77, 0
2, 277916, Note_on_c, 0, 41, 89
2, 277917, Note_on_c, 0, 77, 104
2, 277918, Note_on_c, 0, 53, 93
2, 278008, Note_on_c, 0, 87, 0
2, 278018, Note_on_c, 0, 87, 105
2, 278115, Note_on_c, 0, 53, 0
2, 278115, Note_on_c, 0, 41, 0
2, 278115, Note_on_c, 0, 65, 0
2, 278116, Note_on_c, 0, 77, 0
2, 278116, Note_on_c, 0, 60, 0
2, 278117, Note_on_c, 0, 82, 0
2, 278117, Note_on_c, 0, 84, 0
2, 278118, Control_c, 0, 64, 0
2, 278138, Note_on_c, 0, 87, 0
2, 278138, Note_on_c, 0, 89, 0
2, 278149, Note_on_c, 0, 89, 113
2, 278153, Note_on_c, 0, 49, 114
2, 278157, Note_on_c, 0, 37, 105
2, 278184, Control_c, 0, 64, 127
2, 278369, Note_on_c, 0, 77, 97
2, 278371, Note_on_c, 0, 44, 102
2, 278478, Note_on_c, 0, 82, 93
2, 278484, Note_on_c, 0, 49, 0
2, 278489, Note_on_c, 0, 49, 93
2, 278574, Note_on_c, 0, 87, 102
2, 278618, Control_c, 0, 64, 0
2, 278619, Note_on_c, 0, 77, 0
2, 278621, Note_on_c, 0, 82, 0
2, 278623, Note_on_c, 0, 44, 0
2, 278625, Note_on_c, 0, 49, 0
2, 278627, Note_on_c, 0, 87, 0
2, 278638, Note_on_c, 0, 37, 0
2, 278638, Note_on_c, 0, 89, 0
2, 278691, Control_c, 0, 64, 127
2, 278692, Note_on_c, 0, 51, 114
2, 278693, Note_on_c, 0, 39, 105
2, 278695, Note_on_c, 0, 92, 110
2, 278696, Note_on_c, 0, 80, 107
2, 278697, Note_on_c, 0, 90, 102
2, 278811, Note_on_c, 0, 91, 104
2, 278818, Note_on_c, 0, 79, 97
2, 278922, Note_on_c, 0, 89, 110
2, 278931, Note_on_c, 0, 77, 97
2, 279041, Note_on_c, 0, 87, 104
2, 279041, Note_on_c, 0, 75, 105
2, 279097, Note_on_c, 0, 79, 0
2, 279098, Note_on_c, 0, 77, 0
2, 279099, Note_on_c, 0, 51, 0
2, 279099, Note_on_c, 0, 80, 0
2, 279099, Note_on_c, 0, 89, 0
2, 279099, Note_on_c, 0, 91, 0
2, 279100, Note_on_c, 0, 39, 0
2, 279100, Note_on_c, 0, 75, 0
2, 279101, Note_on_c, 0, 87, 0
2, 279101, Control_c, 0, 64, 0
2, 279102, Note_on_c, 0, 92, 0
2, 279106, Note_on_c, 0, 90, 0
2, 279150, Note_on_c, 0, 53, 112
2, 279152, Note_on_c, 0, 41, 104
2, 279153, Note_on_c, 0, 89, 113
2, 279155, Note_on_c, 0, 77, 110
2, 279160, Control_c, 0, 64, 127
2, 279275, Note_on_c, 0, 77, 0
2, 279275, Note_on_c, 0, 89, 0
2, 279282, Note_on_c, 0, 89, 106
2, 279283, Note_on_c, 0, 41, 0
2, 279283, Note_on_c, 0, 53, 0
2, 279284, Note_on_c, 0, 77, 109
2, 279287, Note_on_c, 0, 53, 102
2, 279289, Note_on_c, 0, 41, 93
2, 279311, Note_on_c, 0, 77, 0
2, 279311, Note_on_c, 0, 89, 0
2, 279312, Control_c, 0, 64, 0
2, 279344, Note_on_c, 0, 53, 0
2, 279352, Note_on_c, 0, 41, 0
2, 279527, Note_on_c, 0, 77, 103
2, 279532, Note_on_c, 0, 72, 96
2, 279534, Note_on_c, 0, 65, 92
2, 279534, Note_on_c, 0, 60, 92
2, 279535, Note_on_c, 0, 58, 87
2, 279536, Note_on_c, 0, 70, 89
2, 279539, Note_on_c, 0, 53, 80
2, 279544, Control_c, 0, 64, 127
2, 279636, Note_on_c, 0, 70, 0
2, 279636, Note_on_c, 0, 77, 0
2, 279644, Note_on_c, 0, 58, 0
2, 279644, Note_on_c, 0, 60, 0
2, 279644, Note_on_c, 0, 65, 0
2, 279644, Note_on_c, 0, 77, 103
2, 279647, Note_on_c, 0, 70, 97
2, 279651, Note_on_c, 0, 53, 0
2, 279653, Note_on_c, 0, 58, 93
2, 279653, Note_on_c, 0, 65, 91
2, 279655, Note_on_c, 0, 60, 92
2, 279657, Note_on_c, 0, 53, 81
2, 279679, Note_on_c, 0, 77, 0
2, 279680, Note_on_c, 0, 65, 0
2, 279682, Note_on_c, 0, 58, 0
2, 279684, Control_c, 0, 64, 0
2, 279684, Note_on_c, 0, 72, 0
2, 279686, Note_on_c, 0, 53, 0
2, 279686, Note_on_c, 0, 70, 0
2, 279713, Note_on_c, 0, 60, 0
2, 279899, Note_on_c, 0, 29, 82
2, 279940, Note_on_c, 0, 41, 100
2, 279966, Control_c, 0, 64, 127
2, 280005, Note_on_c, 0, 29, 0
2, 280005, Note_on_c, 0, 41, 0
2, 280006, Note_on_c, 0, 65, 101
2, 280008, Note_on_c, 0, 58, 101
2, 280009, Note_on_c, 0, 53, 103
2, 280009, Note_on_c, 0, 41, 99
2, 280009, Note_on_c, 0, 29, 99
2, 281524, Note_on_c, 0, 32, 49
2, 281610, Note_on_c, 0, 29, 0
2, 281614, Note_on_c, 0, 31, 56
2, 281620, Note_on_c, 0, 29, 66
2, 281696, Control_c, 0, 64, 0
2, 282009, Note_on_c, 0, 41, 0
2, 282055, Note_on_c, 0, 31, 0
2, 282086, Note_on_c, 0, 32, 0
2, 282094, Note_on_c, 0, 58, 0
2, 282240, Note_on_c, 0, 29, 0
2, 282240, Note_on_c, 0, 53, 0
2, 282240, Note_on_c, 0, 65, 0
2, 282241, End_track
0, 0, End_of_file
