0, 0, Header, 1, 2, 384
1, 0, Start_track
1, 0, Tempo, 500000
1, 0, Time_signature, 4, 2, 24, 8
1, 1, End_track
2, 0, Start_track
2, 2125, Note_on_c, 0, 72, 79
2, 2148, Note_on_c, 0, 69, 76
2, 2150, Control_c, 0, 64, 127
2, 2153, Note_on_c, 0, 62, 71
2, 2155, Note_on_c, 0, 65, 71
2, 3955, Note_on_c, 0, 62, 0
2, 3966, Note_on_c, 0, 62, 77
2, 4554, Note_on_c, 0, 65, 0
2, 4554, Note_on_c, 0, 69, 0
2, 4554, Note_on_c, 0, 72, 0
2, 4558, Note_on_c, 0, 72, 84
2, 4561, Note_on_c, 0, 62, 0
2, 4563, Note_on_c, 0, 69, 81
2, 4565, Note_on_c, 0, 65, 71
2, 4567, Note_on_c, 0, 62, 75
2, 4588, Control_c, 0, 64, 0
2, 4884, Control_c, 0, 64, 127
2, 6343, Note_on_c, 0, 62, 0
2, 6349, Note_on_c, 0, 62, 81
2, 6935, Note_on_c, 0, 69, 0
2, 6940, Note_on_c, 0, 69, 74
2, 6940, Note_on_c, 0, 84, 90
2, 6942, Note_on_c, 0, 65, 0
2, 6942, Note_on_c, 0, 72, 0
2, 6950, Note_on_c, 0, 62, 0
2, 6951, Note_on_c, 0, 72, 77
2, 6952, Note_on_c, 0, 65, 67
2, 6954, Note_on_c, 0, 62, 68
2, 6961, Note_on_c, 0, 74, 74
2, 7000, Control_c, 0, 64, 0
2, 7111, Control_c, 0, 64, 127
2, 7153, Note_on_c, 0, 79, 77
2, 7343, Note_on_c, 0, 81, 86
2, 7518, Note_on_c, 0, 84, 0
2, 7528, Note_on_c, 0, 84, 93
2, 7656, Note_on_c, 0, 79, 0
2, 7726, Note_on_c, 0, 79, 89
2, 7902, Note_on_c, 0, 81, 0
2, 7907, Note_on_c, 0, 81, 92
2, 8102, Note_on_c, 0, 84, 0
2, 8106, Note_on_c, 0, 84, 95
2, 8279, Note_on_c, 0, 79, 0
2, 8288, Note_on_c, 0, 79, 93
2, 8307, Control_c, 0, 64, 0
2, 8348, Control_c, 0, 64, 127
2, 8409, Note_on_c, 0, 74, 0
2, 8463, Note_on_c, 0, 81, 0
2, 8468, Note_on_c, 0, 81, 98
2, 8640, Note_on_c, 0, 62, 0
2, 8649, Note_on_c, 0, 62, 87
2, 8655, Note_on_c, 0, 84, 0
2, 8662, Note_on_c, 0, 84, 99
2, 8663, Control_c, 0, 64, 0
2, 8716, Control_c, 0, 64, 127
2, 8778, Note_on_c, 0, 69, 0
2, 8847, Note_on_c, 0, 79, 0
2, 8853, Note_on_c, 0, 79, 93
2, 9031, Note_on_c, 0, 81, 0
2, 9035, Note_on_c, 0, 81, 96
2, 9223, Note_on_c, 0, 72, 0
2, 9223, Note_on_c, 0, 84, 0
2, 9229, Note_on_c, 0, 84, 101
2, 9231, Note_on_c, 0, 62, 0
2, 9231, Note_on_c, 0, 65, 0
2, 9231, Note_on_c, 0, 72, 97
2, 9232, Note_on_c, 0, 69, 89
2, 9235, Note_on_c, 0, 62, 84
2, 9236, Note_on_c, 0, 65, 82
2, 9238, Note_on_c, 0, 74, 95
2, 9260, Note_on_c, 0, 79, 0
2, 9261, Control_c, 0, 64, 0
2, 9263, Note_on_c, 0, 81, 0
2, 9323, Control_c, 0, 64, 127
2, 9425, Note_on_c, 0, 79, 96
2, 9601, Note_on_c, 0, 81, 101
2, 9776, Note_on_c, 0, 84, 0
2, 9784, Note_on_c, 0, 62, 0
2, 9784, Note_on_c, 0, 65, 0
2, 9784, Note_on_c, 0, 72, 0
2, 9787, Note_on_c, 0, 84, 101
2, 9788, Note_on_c, 0, 65, 90
2, 9789, Note_on_c, 0, 72, 97
2, 9792, Note_on_c, 0, 62, 91
2, 9960, Note_on_c, 0, 79, 0
2, 9970, Note_on_c, 0, 79, 103
2, 9972, Note_on_c, 0, 67, 95
2, 10145, Note_on_c, 0, 69, 0
2, 10145, Note_on_c, 0, 81, 0
2, 10149, Note_on_c, 0, 81, 104
2, 10154, Note_on_c, 0, 69, 100
2, 10329, Note_on_c, 0, 62, 0
2, 10329, Note_on_c, 0, 65, 0
2, 10329, Note_on_c, 0, 72, 0
2, 10329, Note_on_c, 0, 84, 0
2, 10333, Note_on_c, 0, 65, 98
2, 10335, Note_on_c, 0, 62, 94
2, 10336, Note_on_c, 0, 84, 103
2, 10336, Note_on_c, 0, 72, 103
2, 10513, Note_on_c, 0, 67, 0
2, 10513, Note_on_c, 0, 79, 0
2, 10520, Note_on_c, 0, 79, 107
2, 10523, Note_on_c, 0, 67, 102
2, 10682, Note_on_c, 0, 69, 0
2, 10682, Note_on_c, 0, 81, 0
2, 10689, Note_on_c, 0, 81, 106
2, 10692, Note_on_c, 0, 69, 106
2, 10881, Note_on_c, 0, 62, 0
2, 10881, Note_on_c, 0, 84, 0
2, 10881, Control_c, 0, 64, 0
2, 10882, Note_on_c, 0, 74, 0
2, 10882, Note_on_c, 0, 69, 0
2, 10882, Note_on_c, 0, 72, 0
2, 10884, Note_on_c, 0, 65, 0
2, 10884, Note_on_c, 0, 79, 0
2, 10884, Note_on_c, 0, 81, 0
2, 10884, Note_on_c, 0, 67, 0
2, 10887, Note_on_c, 0, 69, 104
2, 10890, Note_on_c, 0, 57, 106
2, 10932, Note_on_c, 0, 57, 0
2, 10944, Note_on_c, 0, 69, 0
2, 11072, Note_on_c, 0, 72, 108
2, 11076, Note_on_c, 0, 60, 104
2, 11106, Note_on_c, 0, 60, 0
2, 11110, Note_on_c, 0, 72, 0
2, 11254, Note_on_c, 0, 77, 107
2, 11255, Note_on_c, 0, 65, 100
2, 11278, Note_on_c, 0, 77, 0
2, 11279, Note_on_c, 0, 69, 49
2, 11297, Note_on_c, 0, 65, 0
2, 11381, Note_on_c, 0, 69, 0
2, 11445, Note_on_c, 0, 38, 103
2, 11446, Note_on_c, 0, 69, 98
2, 11446, Note_on_c, 0, 76, 109
2, 11447, Note_on_c, 0, 72, 104
2, 11449, Note_on_c, 0, 26, 96
2, 11481, Control_c, 0, 64, 127
2, 11596, Note_on_c, 0, 26, 0
2, 11602, Note_on_c, 0, 26, 82
2, 11727, Note_on_c, 0, 38, 0
2, 11731, Note_on_c, 0, 38, 78
2, 11996, Note_on_c, 0, 38, 0
2, 12004, Note_on_c, 0, 50, 97
2, 12006, Note_on_c, 0, 38, 95
2, 12006, Note_on_c, 0, 45, 90
2, 12186, Note_on_c, 0, 64, 103
2, 12188, Note_on_c, 0, 60, 98
2, 12364, Note_on_c, 0, 64, 0
2, 12369, Note_on_c, 0, 64, 98
2, 12376, Note_on_c, 0, 58, 94
2, 12376, Note_on_c, 0, 33, 87
2, 12377, Note_on_c, 0, 38, 0
2, 12447, Control_c, 0, 64, 0
2, 12459, Note_on_c, 0, 58, 0
2, 12461, Note_on_c, 0, 69, 0
2, 12461, Note_on_c, 0, 50, 0
2, 12462, Note_on_c, 0, 60, 0
2, 12462, Note_on_c, 0, 72, 0
2, 12463, Note_on_c, 0, 64, 0
2, 12464, Note_on_c, 0, 33, 0
2, 12472, Note_on_c, 0, 26, 0
2, 12480, Note_on_c, 0, 45, 0
2, 12487, Note_on_c, 0, 76, 0
2, 12549, Note_on_c, 0, 64, 104
2, 12557, Note_on_c, 0, 57, 101
2, 12559, Note_on_c, 0, 60, 96
2, 12561, Note_on_c, 0, 38, 102
2, 12567, Note_on_c, 0, 26, 96
2, 12610, Control_c, 0, 64, 127
2, 12825, Note_on_c, 0, 38, 0
2, 12833, Note_on_c, 0, 38, 88
2, 12929, Note_on_c, 0, 45, 71
2, 12930, Note_on_c, 0, 47, 67
2, 12940, Note_on_c, 0, 47, 0
2, 13109, Note_on_c, 0, 38, 0
2, 13109, Note_on_c, 0, 45, 0
2, 13115, Note_on_c, 0, 50, 103
2, 13116, Note_on_c, 0, 45, 98
2, 13117, Note_on_c, 0, 38, 101
2, 13286, Note_on_c, 0, 64, 0
2, 13294, Note_on_c, 0, 57, 0
2, 13297, Note_on_c, 0, 64, 104
2, 13298, Note_on_c, 0, 76, 106
2, 13299, Note_on_c, 0, 57, 86
2, 13301, Note_on_c, 0, 72, 97
2, 13304, Note_on_c, 0, 69, 87
2, 13388, Note_on_c, 0, 36, 91
2, 13413, Note_on_c, 0, 26, 0
2, 13414, Note_on_c, 0, 60, 0
2, 13415, Control_c, 0, 64, 0
2, 13418, Note_on_c, 0, 45, 0
2, 13418, Note_on_c, 0, 72, 0
2, 13418, Note_on_c, 0, 38, 0
2, 13418, Note_on_c, 0, 76, 0
2, 13419, Note_on_c, 0, 50, 0
2, 13425, Note_on_c, 0, 36, 0
2, 13432, Note_on_c, 0, 64, 0
2, 13432, Note_on_c, 0, 69, 0
2, 13440, Note_on_c, 0, 57, 0
2, 13472, Note_on_c, 0, 65, 104
2, 13473, Note_on_c, 0, 77, 101
2, 13474, Note_on_c, 0, 48, 98
2, 13475, Note_on_c, 0, 69, 85
2, 13477, Note_on_c, 0, 36, 88
2, 13501, Note_on_c, 0, 77, 0
2, 13505, Note_on_c, 0, 36, 0
2, 13516, Note_on_c, 0, 65, 0
2, 13524, Note_on_c, 0, 48, 0
2, 13608, Note_on_c, 0, 69, 0
2, 13670, Note_on_c, 0, 79, 110
2, 13673, Note_on_c, 0, 74, 101
2, 13674, Note_on_c, 0, 70, 103
2, 13675, Note_on_c, 0, 46, 104
2, 13678, Note_on_c, 0, 34, 99
2, 13708, Control_c, 0, 64, 127
2, 13747, Note_on_c, 0, 46, 0
2, 13754, Note_on_c, 0, 46, 30
2, 13831, Note_on_c, 0, 34, 0
2, 13843, Note_on_c, 0, 34, 77
2, 13908, Note_on_c, 0, 46, 0
2, 13914, Note_on_c, 0, 46, 93
2, 14046, Note_on_c, 0, 34, 0
2, 14046, Note_on_c, 0, 46, 0
2, 14046, Note_on_c, 0, 70, 0
2, 14046, Note_on_c, 0, 74, 0
2, 14049, Note_on_c, 0, 77, 104
2, 14050, Note_on_c, 0, 65, 101
2, 14052, Note_on_c, 0, 46, 88
2, 14052, Note_on_c, 0, 74, 96
2, 14053, Note_on_c, 0, 70, 99
2, 14056, Note_on_c, 0, 34, 81
2, 14215, Note_on_c, 0, 46, 0
2, 14219, Note_on_c, 0, 53, 99
2, 14223, Note_on_c, 0, 34, 0
2, 14225, Note_on_c, 0, 46, 99
2, 14226, Note_on_c, 0, 50, 96
2, 14227, Note_on_c, 0, 34, 90
2, 14392, Note_on_c, 0, 65, 0
2, 14392, Note_on_c, 0, 74, 0
2, 14398, Note_on_c, 0, 62, 102
2, 14399, Note_on_c, 0, 65, 97
2, 14399, Note_on_c, 0, 74, 91
2, 14576, Note_on_c, 0, 53, 0
2, 14576, Note_on_c, 0, 65, 0
2, 14582, Note_on_c, 0, 53, 99
2, 14583, Note_on_c, 0, 65, 98
2, 14583, Note_on_c, 0, 60, 100
2, 14584, Note_on_c, 0, 41, 99
2, 14663, Note_on_c, 0, 77, 0
2, 14663, Note_on_c, 0, 79, 0
2, 14664, Note_on_c, 0, 60, 0
2, 14664, Note_on_c, 0, 74, 0
2, 14664, Note_on_c, 0, 41, 0
2, 14664, Control_c, 0, 64, 0
2, 14664, Note_on_c, 0, 62, 0
2, 14664, Note_on_c, 0, 50, 0
2, 14665, Note_on_c, 0, 70, 0
2, 14665, Note_on_c, 0, 53, 0
2, 14665, Note_on_c, 0, 34, 0
2, 14665, Note_on_c, 0, 65, 0
2, 14666, Note_on_c, 0, 46, 0
2, 14758, Note_on_c, 0, 65, 102
2, 14764, Note_on_c, 0, 62, 100
2, 14764, Note_on_c, 0, 58, 102
2, 14765, Note_on_c, 0, 46, 107
2, 14769, Note_on_c, 0, 34, 99
2, 14822, Control_c, 0, 64, 127
2, 14929, Note_on_c, 0, 34, 0
2, 14934, Note_on_c, 0, 34, 94
2, 15037, Note_on_c, 0, 46, 0
2, 15041, Note_on_c, 0, 46, 89
2, 15129, Note_on_c, 0, 34, 0
2, 15137, Note_on_c, 0, 34, 93
2, 15309, Note_on_c, 0, 53, 101
2, 15313, Note_on_c, 0, 46, 0
2, 15315, Note_on_c, 0, 50, 95
2, 15319, Note_on_c, 0, 46, 98
2, 15475, Note_on_c, 0, 65, 0
2, 15482, Note_on_c, 0, 34, 0
2, 15484, Note_on_c, 0, 77, 101
2, 15486, Note_on_c, 0, 74, 100
2, 15486, Note_on_c, 0, 65, 103
2, 15487, Note_on_c, 0, 70, 100
2, 15489, Note_on_c, 0, 34, 81
2, 15575, Note_on_c, 0, 34, 0
2, 15579, Note_on_c, 0, 34, 85
2, 15644, Note_on_c, 0, 46, 0
2, 15654, Note_on_c, 0, 46, 101
2, 15686, Note_on_c, 0, 79, 106
2, 15686, Note_on_c, 0, 67, 103
2, 15691, Note_on_c, 0, 58, 0
2, 15694, Note_on_c, 0, 53, 0
2, 15695, Note_on_c, 0, 65, 0
2, 15695, Note_on_c, 0, 50, 0
2, 15695, Note_on_c, 0, 34, 0
2, 15698, Note_on_c, 0, 74, 0
2, 15699, Note_on_c, 0, 77, 0
2, 15699, Control_c, 0, 64, 0
2, 15700, Note_on_c, 0, 70, 0
2, 15705, Note_on_c, 0, 62, 0
2, 15713, Note_on_c, 0, 46, 0
2, 15736, Note_on_c, 0, 67, 0
2, 15736, Note_on_c, 0, 79, 0
2, 15862, Note_on_c, 0, 77, 105
2, 15866, Note_on_c, 0, 65, 102
2, 15868, Note_on_c, 0, 72, 103
2, 15868, Note_on_c, 0, 41, 101
2, 15869, Note_on_c, 0, 29, 98
2, 15870, Note_on_c, 0, 70, 101
2, 15897, Control_c, 0, 64, 127
2, 16020, Note_on_c, 0, 29, 0
2, 16025, Note_on_c, 0, 29, 88
2, 16097, Note_on_c, 0, 41, 0
2, 16102, Note_on_c, 0, 41, 88
2, 16220, Note_on_c, 0, 41, 0
2, 16220, Note_on_c, 0, 72, 0
2, 16227, Note_on_c, 0, 29, 0
2, 16230, Note_on_c, 0, 72, 106
2, 16231, Note_on_c, 0, 41, 91
2, 16231, Note_on_c, 0, 60, 99
2, 16232, Note_on_c, 0, 29, 90
2, 16235, Note_on_c, 0, 65, 0
2, 16235, Note_on_c, 0, 70, 0
2, 16240, Note_on_c, 0, 70, 97
2, 16240, Note_on_c, 0, 65, 86
2, 16404, Note_on_c, 0, 41, 0
2, 16409, Note_on_c, 0, 48, 103
2, 16410, Note_on_c, 0, 53, 97
2, 16412, Note_on_c, 0, 41, 94
2, 16427, Note_on_c, 0, 77, 0
2, 16573, Note_on_c, 0, 48, 0
2, 16573, Note_on_c, 0, 60, 0
2, 16579, Note_on_c, 0, 72, 0
2, 16580, Note_on_c, 0, 60, 102
2, 16581, Note_on_c, 0, 48, 87
2, 16757, Note_on_c, 0, 60, 0
2, 16766, Note_on_c, 0, 60, 102
2, 16769, Note_on_c, 0, 58, 98
2, 16770, Note_on_c, 0, 36, 92
2, 16830, Note_on_c, 0, 41, 0
2, 16830, Note_on_c, 0, 65, 0
2, 16830, Note_on_c, 0, 60, 0
2, 16830, Note_on_c, 0, 29, 0
2, 16830, Note_on_c, 0, 48, 0
2, 16830, Note_on_c, 0, 53, 0
2, 16831, Note_on_c, 0, 70, 0
2, 16831, Note_on_c, 0, 58, 0
2, 16831, Note_on_c, 0, 36, 0
2, 16832, Control_c, 0, 64, 0
2, 16947, Note_on_c, 0, 60, 104
2, 16950, Note_on_c, 0, 41, 99
2, 16953, Note_on_c, 0, 29, 96
2, 16955, Note_on_c, 0, 57, 101
2, 17011, Control_c, 0, 64, 127
2, 17118, Note_on_c, 0, 29, 0
2, 17122, Note_on_c, 0, 29, 88
2, 17210, Note_on_c, 0, 41, 0
2, 17220, Note_on_c, 0, 41, 84
2, 17303, Note_on_c, 0, 29, 0
2, 17311, Note_on_c, 0, 29, 92
2, 17502, Note_on_c, 0, 41, 0
2, 17509, Note_on_c, 0, 53, 103
2, 17510, Note_on_c, 0, 48, 100
2, 17512, Note_on_c, 0, 41, 104
2, 17679, Note_on_c, 0, 41, 0
2, 17683, Note_on_c, 0, 77, 103
2, 17683, Note_on_c, 0, 41, 89
2, 17685, Note_on_c, 0, 65, 104
2, 17740, Note_on_c, 0, 41, 0
2, 17752, Note_on_c, 0, 41, 93
2, 17863, Note_on_c, 0, 48, 0
2, 17868, Note_on_c, 0, 48, 96
2, 17869, Note_on_c, 0, 79, 108
2, 17875, Note_on_c, 0, 67, 104
2, 17880, Control_c, 0, 64, 0
2, 17886, Note_on_c, 0, 57, 0
2, 17886, Note_on_c, 0, 29, 0
2, 17890, Note_on_c, 0, 53, 0
2, 17890, Note_on_c, 0, 41, 0
2, 17890, Note_on_c, 0, 65, 0
2, 17891, Note_on_c, 0, 60, 0
2, 17891, Note_on_c, 0, 77, 0
2, 17905, Note_on_c, 0, 67, 0
2, 17917, Note_on_c, 0, 48, 0
2, 17932, Note_on_c, 0, 79, 0
2, 18056, Note_on_c, 0, 76, 108
2, 18057, Note_on_c, 0, 64, 111
2, 18058, Note_on_c, 0, 48, 103
2, 18060, Note_on_c, 0, 67, 100
2, 18060, Note_on_c, 0, 36, 95
2, 18071, Control_c, 0, 64, 127
2, 18209, Note_on_c, 0, 36, 0
2, 18216, Note_on_c, 0, 36, 89
2, 18309, Note_on_c, 0, 48, 0
2, 18314, Note_on_c, 0, 48, 84
2, 18408, Note_on_c, 0, 36, 0
2, 18408, Note_on_c, 0, 64, 0
2, 18412, Note_on_c, 0, 72, 107
2, 18412, Note_on_c, 0, 60, 100
2, 18413, Note_on_c, 0, 64, 100
2, 18420, Note_on_c, 0, 36, 94
2, 18493, Note_on_c, 0, 76, 0
2, 18593, Note_on_c, 0, 48, 0
2, 18600, Note_on_c, 0, 48, 94
2, 18600, Note_on_c, 0, 52, 98
2, 18601, Note_on_c, 0, 43, 91
2, 18769, Note_on_c, 0, 60, 0
2, 18774, Note_on_c, 0, 60, 99
2, 18778, Note_on_c, 0, 55, 101
2, 18954, Note_on_c, 0, 43, 0
2, 18954, Note_on_c, 0, 60, 0
2, 18959, Note_on_c, 0, 60, 89
2, 18961, Note_on_c, 0, 43, 92
2, 18964, Note_on_c, 0, 53, 102
2, 19101, Note_on_c, 0, 43, 0
2, 19103, Note_on_c, 0, 72, 0
2, 19104, Note_on_c, 0, 53, 0
2, 19105, Control_c, 0, 64, 0
2, 19115, Note_on_c, 0, 67, 0
2, 19123, Note_on_c, 0, 36, 0
2, 19123, Note_on_c, 0, 48, 0
2, 19123, Note_on_c, 0, 52, 0
2, 19123, Note_on_c, 0, 55, 0
2, 19123, Note_on_c, 0, 60, 0
2, 19123, Note_on_c, 0, 64, 0
2, 19129, Note_on_c, 0, 60, 102
2, 19134, Note_on_c, 0, 52, 98
2, 19134, Note_on_c, 0, 48, 99
2, 19134, Note_on_c, 0, 36, 93
2, 19134, Note_on_c, 0, 55, 96
2, 19238, Note_on_c, 0, 48, 0
2, 19307, Note_on_c, 0, 36, 0
2, 19307, Control_c, 0, 64, 127
2, 19316, Note_on_c, 0, 36, 86
2, 19397, Note_on_c, 0, 48, 95
2, 19477, Note_on_c, 0, 43, 95
2, 19580, Note_on_c, 0, 45, 98
2, 19674, Note_on_c, 0, 33, 92
2, 19685, Control_c, 0, 64, 0
2, 19685, Note_on_c, 0, 36, 0
2, 19685, Note_on_c, 0, 43, 0
2, 19686, Note_on_c, 0, 48, 0
2, 19686, Note_on_c, 0, 52, 0
2, 19687, Note_on_c, 0, 60, 0
2, 19737, Note_on_c, 0, 55, 0
2, 19837, Note_on_c, 0, 33, 0
2, 19838, Note_on_c, 0, 45, 0
2, 19869, Note_on_c, 0, 53, 95
2, 20004, Note_on_c, 0, 53, 0
2, 20058, Note_on_c, 0, 55, 90
2, 20105, Note_on_c, 0, 55, 0
2, 20248, Note_on_c, 0, 38, 80
2, 20248, Note_on_c, 0, 57, 87
2, 20352, Control_c, 0, 64, 127
2, 20613, Note_on_c, 0, 57, 0
2, 20620, Note_on_c, 0, 57, 85
2, 20621, Note_on_c, 0, 45, 69
2, 20826, Note_on_c, 0, 50, 65
2, 20974, Note_on_c, 0, 57, 0
2, 20985, Note_on_c, 0, 57, 84
2, 21182, Note_on_c, 0, 53, 86
2, 21363, Note_on_c, 0, 58, 93
2, 21394, Note_on_c, 0, 57, 0
2, 21400, Note_on_c, 0, 45, 0
2, 21527, Note_on_c, 0, 38, 0
2, 21538, Note_on_c, 0, 38, 65
2, 21733, Note_on_c, 0, 57, 93
2, 21734, Note_on_c, 0, 45, 74
2, 21744, Note_on_c, 0, 58, 0
2, 21765, Note_on_c, 0, 50, 0
2, 21910, Note_on_c, 0, 50, 80
2, 22080, Note_on_c, 0, 57, 0
2, 22083, Note_on_c, 0, 57, 96
2, 22253, Note_on_c, 0, 58, 92
2, 22444, Control_c, 0, 64, 0
2, 22445, Note_on_c, 0, 45, 0
2, 22446, Note_on_c, 0, 38, 0
2, 22446, Note_on_c, 0, 50, 0
2, 22446, Note_on_c, 0, 57, 0
2, 22447, Note_on_c, 0, 34, 76
2, 22450, Note_on_c, 0, 53, 0
2, 22451, Note_on_c, 0, 58, 0
2, 22452, Note_on_c, 0, 60, 95
2, 22594, Control_c, 0, 64, 127
2, 22805, Note_on_c, 0, 41, 66
2, 22817, Note_on_c, 0, 60, 0
2, 22822, Note_on_c, 0, 60, 88
2, 23023, Note_on_c, 0, 48, 80
2, 23201, Note_on_c, 0, 60, 0
2, 23211, Note_on_c, 0, 60, 89
2, 23385, Note_on_c, 0, 60, 0
2, 23391, Note_on_c, 0, 60, 94
2, 23400, Note_on_c, 0, 34, 0
2, 23567, Note_on_c, 0, 58, 96
2, 23751, Note_on_c, 0, 34, 72
2, 23853, Control_c, 0, 64, 0
2, 23923, Note_on_c, 0, 41, 0
2, 23926, Note_on_c, 0, 57, 97
2, 23927, Note_on_c, 0, 41, 61
2, 23965, Note_on_c, 0, 34, 0
2, 23974, Note_on_c, 0, 58, 0
2, 23992, Note_on_c, 0, 48, 0
2, 24000, Note_on_c, 0, 60, 0
2, 24069, Control_c, 0, 64, 127
2, 24120, Note_on_c, 0, 48, 88
2, 24291, Note_on_c, 0, 57, 0
2, 24296, Note_on_c, 0, 57, 97
2, 24470, Note_on_c, 0, 58, 96
2, 24652, Note_on_c, 0, 41, 0
2, 24660, Note_on_c, 0, 41, 75
2, 24664, Note_on_c, 0, 60, 100
2, 24664, Control_c, 0, 64, 0
2, 24672, Note_on_c, 0, 48, 0
2, 24675, Note_on_c, 0, 57, 0
2, 24676, Note_on_c, 0, 58, 0
2, 24952, Control_c, 0, 64, 127
2, 25036, Note_on_c, 0, 60, 0
2, 25048, Note_on_c, 0, 60, 92
2, 25054, Note_on_c, 0, 48, 77
2, 25245, Note_on_c, 0, 55, 81
2, 25413, Note_on_c, 0, 60, 0
2, 25417, Note_on_c, 0, 60, 92
2, 25597, Note_on_c, 0, 60, 0
2, 25603, Note_on_c, 0, 60, 95
2, 25775, Note_on_c, 0, 58, 97
2, 25811, Control_c, 0, 64, 0
2, 25818, Note_on_c, 0, 48, 0
2, 25820, Note_on_c, 0, 55, 0
2, 25973, Note_on_c, 0, 41, 0
2, 25979, Note_on_c, 0, 41, 79
2, 26019, Control_c, 0, 64, 127
2, 26065, Note_on_c, 0, 60, 0
2, 26136, Note_on_c, 0, 57, 95
2, 26141, Note_on_c, 0, 48, 66
2, 26189, Note_on_c, 0, 58, 0
2, 26330, Note_on_c, 0, 55, 87
2, 26488, Note_on_c, 0, 57, 0
2, 26498, Note_on_c, 0, 57, 95
2, 26676, Note_on_c, 0, 58, 92
2, 26856, Note_on_c, 0, 57, 0
2, 26860, Control_c, 0, 64, 0
2, 26866, Note_on_c, 0, 36, 76
2, 26867, Note_on_c, 0, 57, 92
2, 26880, Note_on_c, 0, 48, 0
2, 26883, Note_on_c, 0, 41, 0
2, 26885, Note_on_c, 0, 58, 0
2, 26886, Note_on_c, 0, 55, 0
2, 27205, Note_on_c, 0, 43, 67
2, 27230, Note_on_c, 0, 55, 90
2, 27363, Note_on_c, 0, 57, 0
2, 27409, Note_on_c, 0, 55, 0
2, 27415, Note_on_c, 0, 50, 78
2, 27416, Note_on_c, 0, 55, 91
2, 27588, Note_on_c, 0, 53, 93
2, 27622, Note_on_c, 0, 55, 0
2, 27771, Note_on_c, 0, 55, 93
2, 27793, Note_on_c, 0, 53, 0
2, 27801, Note_on_c, 0, 50, 0
2, 27961, Note_on_c, 0, 52, 76
2, 28529, Note_on_c, 0, 48, 75
2, 28704, Note_on_c, 0, 65, 93
2, 28715, Control_c, 0, 64, 127
2, 28884, Note_on_c, 0, 67, 92
2, 29074, Note_on_c, 0, 69, 95
2, 29076, Note_on_c, 0, 65, 0
2, 29080, Note_on_c, 0, 60, 88
2, 29081, Note_on_c, 0, 65, 85
2, 29087, Note_on_c, 0, 38, 81
2, 29111, Control_c, 0, 64, 0
2, 29116, Note_on_c, 0, 52, 0
2, 29116, Note_on_c, 0, 48, 0
2, 29116, Note_on_c, 0, 55, 0
2, 29116, Note_on_c, 0, 67, 0
2, 29122, Note_on_c, 0, 36, 0
2, 29122, Note_on_c, 0, 43, 0
2, 29266, Note_on_c, 0, 45, 75
2, 29322, Control_c, 0, 64, 127
2, 29429, Note_on_c, 0, 45, 0
2, 29437, Note_on_c, 0, 69, 0
2, 29440, Note_on_c, 0, 50, 83
2, 29440, Note_on_c, 0, 45, 69
2, 29444, Note_on_c, 0, 69, 96
2, 29621, Note_on_c, 0, 60, 0
2, 29632, Note_on_c, 0, 60, 88
2, 29643, Note_on_c, 0, 57, 90
2, 29653, Note_on_c, 0, 53, 83
2, 29813, Note_on_c, 0, 69, 0
2, 29821, Note_on_c, 0, 69, 98
2, 30005, Note_on_c, 0, 65, 0
2, 30013, Note_on_c, 0, 65, 98
2, 30186, Note_on_c, 0, 70, 103
2, 30197, Note_on_c, 0, 60, 0
2, 30197, Note_on_c, 0, 65, 0
2, 30205, Note_on_c, 0, 60, 89
2, 30205, Note_on_c, 0, 53, 0
2, 30207, Note_on_c, 0, 65, 90
2, 30215, Note_on_c, 0, 53, 68
2, 30245, Control_c, 0, 64, 0
2, 30247, Note_on_c, 0, 57, 0
2, 30247, Note_on_c, 0, 69, 0
2, 30247, Note_on_c, 0, 45, 0
2, 30248, Note_on_c, 0, 38, 0
2, 30357, Note_on_c, 0, 38, 86
2, 30382, Control_c, 0, 64, 127
2, 30541, Note_on_c, 0, 45, 92
2, 30559, Note_on_c, 0, 69, 99
2, 30727, Note_on_c, 0, 60, 0
2, 30734, Note_on_c, 0, 60, 93
2, 30735, Note_on_c, 0, 53, 0
2, 30742, Note_on_c, 0, 53, 87
2, 30744, Note_on_c, 0, 57, 88
2, 30919, Note_on_c, 0, 69, 0
2, 30923, Note_on_c, 0, 69, 100
2, 31096, Note_on_c, 0, 70, 0
2, 31102, Note_on_c, 0, 70, 100
2, 31294, Note_on_c, 0, 72, 107
2, 31301, Note_on_c, 0, 67, 88
2, 31307, Note_on_c, 0, 34, 83
2, 31308, Note_on_c, 0, 46, 87
2, 31308, Control_c, 0, 64, 0
2, 31311, Note_on_c, 0, 50, 0
2, 31315, Note_on_c, 0, 53, 0
2, 31315, Note_on_c, 0, 38, 0
2, 31316, Note_on_c, 0, 60, 0
2, 31316, Note_on_c, 0, 57, 0
2, 31316, Note_on_c, 0, 45, 0
2, 31317, Note_on_c, 0, 69, 0
2, 31318, Note_on_c, 0, 70, 0
2, 31334, Note_on_c, 0, 65, 0
2, 31434, Control_c, 0, 64, 127
2, 31494, Note_on_c, 0, 41, 77
2, 31641, Note_on_c, 0, 46, 0
2, 31652, Note_on_c, 0, 46, 92
2, 31656, Note_on_c, 0, 72, 0
2, 31662, Note_on_c, 0, 72, 102
2, 31850, Note_on_c, 0, 60, 91
2, 31869, Note_on_c, 0, 53, 86
2, 31873, Note_on_c, 0, 58, 86
2, 32010, Note_on_c, 0, 72, 0
2, 32019, Note_on_c, 0, 72, 97
2, 32194, Note_on_c, 0, 72, 0
2, 32205, Note_on_c, 0, 72, 99
2, 32383, Note_on_c, 0, 70, 105
2, 32401, Note_on_c, 0, 58, 0
2, 32404, Note_on_c, 0, 65, 87
2, 32406, Note_on_c, 0, 62, 90
2, 32407, Note_on_c, 0, 58, 72
2, 32544, Control_c, 0, 64, 0
2, 32550, Note_on_c, 0, 41, 0
2, 32552, Note_on_c, 0, 72, 0
2, 32555, Note_on_c, 0, 34, 0
2, 32560, Note_on_c, 0, 34, 77
2, 32570, Note_on_c, 0, 67, 0
2, 32586, Note_on_c, 0, 60, 0
2, 32624, Control_c, 0, 64, 127
2, 32647, Note_on_c, 0, 53, 0
2, 32732, Note_on_c, 0, 41, 86
2, 32754, Note_on_c, 0, 69, 99
2, 32923, Note_on_c, 0, 60, 93
2, 32931, Note_on_c, 0, 58, 0
2, 32935, Note_on_c, 0, 53, 92
2, 32935, Note_on_c, 0, 58, 90
2, 33100, Note_on_c, 0, 69, 0
2, 33109, Note_on_c, 0, 69, 101
2, 33285, Note_on_c, 0, 70, 0
2, 33295, Note_on_c, 0, 70, 98
2, 33460, Note_on_c, 0, 53, 0
2, 33463, Note_on_c, 0, 58, 0
2, 33463, Control_c, 0, 64, 0
2, 33465, Note_on_c, 0, 70, 0
2, 33465, Note_on_c, 0, 62, 0
2, 33467, Note_on_c, 0, 69, 0
2, 33469, Note_on_c, 0, 34, 0
2, 33469, Note_on_c, 0, 46, 0
2, 33481, Note_on_c, 0, 72, 103
2, 33484, Note_on_c, 0, 41, 0
2, 33492, Note_on_c, 0, 60, 0
2, 33492, Note_on_c, 0, 65, 0
2, 33494, Note_on_c, 0, 41, 86
2, 33497, Note_on_c, 0, 67, 85
2, 33497, Note_on_c, 0, 60, 93
2, 33503, Note_on_c, 0, 65, 87
2, 33674, Note_on_c, 0, 48, 81
2, 33745, Control_c, 0, 64, 127
2, 33853, Note_on_c, 0, 72, 0
2, 33857, Note_on_c, 0, 53, 85
2, 33860, Note_on_c, 0, 72, 99
2, 34053, Note_on_c, 0, 60, 0
2, 34060, Note_on_c, 0, 53, 0
2, 34062, Note_on_c, 0, 60, 89
2, 34064, Note_on_c, 0, 53, 76
2, 34066, Note_on_c, 0, 55, 77
2, 34214, Note_on_c, 0, 72, 0
2, 34223, Note_on_c, 0, 72, 94
2, 34398, Note_on_c, 0, 72, 0
2, 34409, Note_on_c, 0, 72, 97
2, 34592, Note_on_c, 0, 70, 101
2, 34598, Note_on_c, 0, 65, 0
2, 34602, Note_on_c, 0, 65, 89
2, 34613, Note_on_c, 0, 67, 0
2, 34618, Note_on_c, 0, 67, 76
2, 34644, Control_c, 0, 64, 0
2, 34752, Note_on_c, 0, 41, 0
2, 34756, Note_on_c, 0, 41, 84
2, 34758, Note_on_c, 0, 48, 0
2, 34759, Note_on_c, 0, 55, 0
2, 34767, Control_c, 0, 64, 127
2, 34941, Note_on_c, 0, 69, 97
2, 34941, Note_on_c, 0, 48, 81
2, 35120, Note_on_c, 0, 53, 0
2, 35120, Note_on_c, 0, 60, 0
2, 35125, Note_on_c, 0, 60, 88
2, 35129, Note_on_c, 0, 53, 90
2, 35130, Note_on_c, 0, 55, 80
2, 35289, Note_on_c, 0, 69, 0
2, 35296, Note_on_c, 0, 69, 99
2, 35481, Note_on_c, 0, 70, 0
2, 35485, Note_on_c, 0, 70, 97
2, 35658, Note_on_c, 0, 69, 0
2, 35658, Note_on_c, 0, 72, 0
2, 35664, Note_on_c, 0, 69, 100
2, 35665, Note_on_c, 0, 60, 0
2, 35670, Note_on_c, 0, 60, 85
2, 35674, Control_c, 0, 64, 0
2, 35678, Note_on_c, 0, 48, 0
2, 35678, Note_on_c, 0, 41, 0
2, 35679, Note_on_c, 0, 55, 0
2, 35679, Note_on_c, 0, 53, 0
2, 35679, Note_on_c, 0, 70, 0
2, 35681, Note_on_c, 0, 67, 0
2, 35682, Note_on_c, 0, 36, 77
2, 35685, Note_on_c, 0, 62, 76
2, 35688, Note_on_c, 0, 65, 0
2, 35842, Control_c, 0, 64, 127
2, 35848, Note_on_c, 0, 43, 70
2, 36036, Note_on_c, 0, 48, 79
2, 36038, Note_on_c, 0, 67, 94
2, 36203, Note_on_c, 0, 60, 0
2, 36216, Control_c, 0, 64, 0
2, 36229, Note_on_c, 0, 50, 74
2, 36234, Note_on_c, 0, 50, 0
2, 36234, Note_on_c, 0, 67, 0
2, 36243, Note_on_c, 0, 67, 87
2, 36264, Note_on_c, 0, 62, 0
2, 36272, Control_c, 0, 64, 127
2, 36326, Note_on_c, 0, 69, 0
2, 36404, Note_on_c, 0, 65, 93
2, 36587, Note_on_c, 0, 67, 0
2, 36596, Note_on_c, 0, 67, 91
2, 36802, Note_on_c, 0, 52, 71
2, 37324, Note_on_c, 0, 48, 0
2, 37331, Note_on_c, 0, 48, 75
2, 37501, Note_on_c, 0, 65, 0
2, 37712, Note_on_c, 0, 65, 105
2, 37918, Note_on_c, 0, 46, 86
2, 37922, Note_on_c, 0, 76, 100
2, 37932, Note_on_c, 0, 72, 91
2, 37934, Note_on_c, 0, 43, 0
2, 37935, Note_on_c, 0, 67, 0
2, 37935, Note_on_c, 0, 48, 0
2, 37935, Note_on_c, 0, 52, 0
2, 37935, Note_on_c, 0, 65, 0
2, 37939, Note_on_c, 0, 36, 0
2, 37943, Control_c, 0, 64, 0
2, 38114, Note_on_c, 0, 53, 74
2, 38161, Control_c, 0, 64, 127
2, 38289, Note_on_c, 0, 58, 75
2, 38495, Note_on_c, 0, 64, 103
2, 38499, Note_on_c, 0, 60, 89
2, 38861, Note_on_c, 0, 77, 95
2, 38922, Control_c, 0, 64, 0
2, 38952, Control_c, 0, 64, 127
2, 39052, Note_on_c, 0, 77, 0
2, 39064, Note_on_c, 0, 77, 97
2, 39071, Note_on_c, 0, 74, 97
2, 39129, Control_c, 0, 64, 0
2, 39214, Control_c, 0, 64, 127
2, 39244, Note_on_c, 0, 46, 0
2, 39248, Note_on_c, 0, 46, 83
2, 39252, Note_on_c, 0, 72, 0
2, 39260, Note_on_c, 0, 58, 0
2, 39262, Note_on_c, 0, 64, 0
2, 39264, Note_on_c, 0, 60, 0
2, 39266, Control_c, 0, 64, 0
2, 39275, Note_on_c, 0, 53, 0
2, 39283, Note_on_c, 0, 76, 0
2, 39344, Control_c, 0, 64, 127
2, 39425, Note_on_c, 0, 53, 78
2, 39617, Note_on_c, 0, 62, 82
2, 39618, Note_on_c, 0, 65, 87
2, 39618, Note_on_c, 0, 58, 83
2, 39974, Note_on_c, 0, 65, 0
2, 39983, Note_on_c, 0, 65, 101
2, 40184, Note_on_c, 0, 76, 103
2, 40184, Note_on_c, 0, 41, 92
2, 40193, Note_on_c, 0, 67, 93
2, 40214, Control_c, 0, 64, 0
2, 40217, Note_on_c, 0, 58, 0
2, 40217, Note_on_c, 0, 53, 0
2, 40217, Note_on_c, 0, 74, 0
2, 40218, Note_on_c, 0, 62, 0
2, 40218, Note_on_c, 0, 77, 0
2, 40219, Note_on_c, 0, 46, 0
2, 40219, Note_on_c, 0, 65, 0
2, 40367, Note_on_c, 0, 48, 74
2, 40519, Control_c, 0, 64, 127
2, 40563, Note_on_c, 0, 53, 77
2, 40758, Note_on_c, 0, 64, 102
2, 40760, Note_on_c, 0, 55, 88
2, 41108, Note_on_c, 0, 77, 96
2, 41310, Note_on_c, 0, 77, 0
2, 41316, Note_on_c, 0, 77, 98
2, 41322, Note_on_c, 0, 69, 97
2, 41495, Note_on_c, 0, 41, 0
2, 41504, Note_on_c, 0, 41, 79
2, 41620, Control_c, 0, 64, 0
2, 41664, Note_on_c, 0, 48, 0
2, 41670, Note_on_c, 0, 48, 81
2, 41710, Note_on_c, 0, 67, 0
2, 41740, Control_c, 0, 64, 127
2, 41866, Note_on_c, 0, 65, 87
2, 41877, Note_on_c, 0, 57, 77
2, 41971, Note_on_c, 0, 76, 0
2, 41994, Control_c, 0, 64, 0
2, 42009, Note_on_c, 0, 55, 0
2, 42078, Control_c, 0, 64, 127
2, 42216, Note_on_c, 0, 65, 0
2, 42223, Note_on_c, 0, 65, 91
2, 42424, Note_on_c, 0, 48, 0
2, 42427, Note_on_c, 0, 76, 102
2, 42433, Note_on_c, 0, 72, 97
2, 42435, Note_on_c, 0, 48, 86
2, 42440, Note_on_c, 0, 69, 0
2, 42441, Note_on_c, 0, 64, 0
2, 42441, Note_on_c, 0, 57, 0
2, 42441, Control_c, 0, 64, 0
2, 42442, Note_on_c, 0, 65, 0
2, 42442, Note_on_c, 0, 41, 0
2, 42442, Note_on_c, 0, 53, 0
2, 42443, Note_on_c, 0, 77, 0
2, 42577, Control_c, 0, 64, 127
2, 42611, Note_on_c, 0, 55, 84
2, 42775, Note_on_c, 0, 60, 84
2, 42805, Note_on_c, 0, 77, 95
2, 42807, Note_on_c, 0, 74, 101
2, 42946, Note_on_c, 0, 72, 0
2, 42984, Note_on_c, 0, 62, 93
2, 43149, Note_on_c, 0, 79, 104
2, 43161, Note_on_c, 0, 76, 0
2, 43172, Note_on_c, 0, 76, 94
2, 43330, Note_on_c, 0, 55, 0
2, 43341, Note_on_c, 0, 55, 90
2, 43507, Note_on_c, 0, 76, 0
2, 43507, Note_on_c, 0, 79, 0
2, 43518, Note_on_c, 0, 79, 103
2, 43518, Note_on_c, 0, 76, 99
2, 43707, Note_on_c, 0, 64, 96
2, 43892, Note_on_c, 0, 81, 104
2, 43906, Note_on_c, 0, 55, 0
2, 43910, Note_on_c, 0, 55, 85
2, 44078, Note_on_c, 0, 49, 88
2, 44111, Control_c, 0, 64, 0
2, 44116, Note_on_c, 0, 62, 0
2, 44117, Note_on_c, 0, 60, 0
2, 44117, Note_on_c, 0, 74, 0
2, 44117, Note_on_c, 0, 64, 0
2, 44117, Note_on_c, 0, 76, 0
2, 44117, Note_on_c, 0, 48, 0
2, 44118, Note_on_c, 0, 77, 0
2, 44119, Note_on_c, 0, 79, 0
2, 44121, Note_on_c, 0, 55, 0
2, 44206, Control_c, 0, 64, 127
2, 44262, Note_on_c, 0, 77, 95
2, 44266, Note_on_c, 0, 73, 95
2, 44272, Note_on_c, 0, 57, 89
2, 44438, Note_on_c, 0, 64, 95
2, 44609, Control_c, 0, 64, 0
2, 44613, Note_on_c, 0, 81, 0
2, 44614, Note_on_c, 0, 64, 0
2, 44615, Note_on_c, 0, 77, 0
2, 44616, Note_on_c, 0, 57, 0
2, 44616, Note_on_c, 0, 73, 0
2, 44617, Note_on_c, 0, 49, 0
2, 44636, Note_on_c, 0, 76, 102
2, 44639, Note_on_c, 0, 50, 83
2, 44640, Note_on_c, 0, 72, 93
2, 44825, Note_on_c, 0, 57, 74
2, 45008, Note_on_c, 0, 60, 83
2, 45050, Control_c, 0, 64, 127
2, 45205, Note_on_c, 0, 64, 92
2, 45212, Control_c, 0, 64, 0
2, 45350, Control_c, 0, 64, 127
2, 45565, Note_on_c, 0, 57, 0
2, 45569, Note_on_c, 0, 77, 93
2, 45574, Note_on_c, 0, 57, 77
2, 45583, Control_c, 0, 64, 0
2, 45596, Control_c, 0, 64, 127
2, 45765, Note_on_c, 0, 77, 0
2, 45772, Note_on_c, 0, 77, 89
2, 45776, Note_on_c, 0, 74, 86
2, 45777, Note_on_c, 0, 62, 79
2, 45781, Note_on_c, 0, 65, 74
2, 45804, Note_on_c, 0, 64, 0
2, 45805, Note_on_c, 0, 76, 0
2, 45806, Note_on_c, 0, 72, 0
2, 45807, Note_on_c, 0, 60, 0
2, 45814, Control_c, 0, 64, 0
2, 45941, Control_c, 0, 64, 127
2, 46352, Note_on_c, 0, 72, 97
2, 46369, Control_c, 0, 64, 0
2, 46371, Note_on_c, 0, 50, 0
2, 46377, Note_on_c, 0, 50, 69
2, 46379, Note_on_c, 0, 65, 0
2, 46440, Note_on_c, 0, 57, 0
2, 46440, Control_c, 0, 64, 127
2, 46448, Note_on_c, 0, 77, 0
2, 46555, Note_on_c, 0, 70, 95
2, 46717, Note_on_c, 0, 74, 0
2, 46730, Note_on_c, 0, 69, 95
2, 46913, Note_on_c, 0, 70, 0
2, 46913, Control_c, 0, 64, 0
2, 46917, Note_on_c, 0, 72, 0
2, 46924, Note_on_c, 0, 50, 0
2, 46924, Note_on_c, 0, 69, 0
2, 46929, Note_on_c, 0, 42, 73
2, 46930, Note_on_c, 0, 69, 97
2, 46930, Note_on_c, 0, 50, 71
2, 46935, Note_on_c, 0, 57, 83
2, 46940, Control_c, 0, 64, 127
2, 47208, Control_c, 0, 64, 0
2, 47462, Note_on_c, 0, 62, 0
2, 47505, Note_on_c, 0, 66, 97
2, 47516, Control_c, 0, 64, 127
2, 47694, Note_on_c, 0, 74, 83
2, 47884, Note_on_c, 0, 81, 84
2, 48060, Note_on_c, 0, 67, 100
2, 48082, Note_on_c, 0, 86, 95
2, 48253, Note_on_c, 0, 74, 0
2, 48261, Note_on_c, 0, 74, 85
2, 48437, Note_on_c, 0, 81, 0
2, 48442, Note_on_c, 0, 81, 88
2, 48614, Note_on_c, 0, 69, 0
2, 48618, Note_on_c, 0, 69, 99
2, 48637, Note_on_c, 0, 86, 0
2, 48648, Note_on_c, 0, 86, 99
2, 48814, Note_on_c, 0, 74, 0
2, 48821, Note_on_c, 0, 74, 84
2, 48998, Note_on_c, 0, 81, 0
2, 49003, Note_on_c, 0, 43, 78
2, 49009, Note_on_c, 0, 81, 93
2, 49196, Note_on_c, 0, 72, 103
2, 49198, Note_on_c, 0, 50, 0
2, 49198, Note_on_c, 0, 67, 0
2, 49205, Note_on_c, 0, 55, 89
2, 49205, Note_on_c, 0, 43, 0
2, 49206, Note_on_c, 0, 50, 89
2, 49207, Note_on_c, 0, 62, 94
2, 49208, Note_on_c, 0, 67, 90
2, 49211, Note_on_c, 0, 43, 83
2, 49219, Control_c, 0, 64, 0
2, 49227, Note_on_c, 0, 69, 0
2, 49228, Note_on_c, 0, 81, 0
2, 49229, Note_on_c, 0, 57, 0
2, 49230, Note_on_c, 0, 42, 0
2, 49231, Note_on_c, 0, 74, 0
2, 49231, Note_on_c, 0, 66, 0
2, 49233, Note_on_c, 0, 86, 0
2, 49282, Control_c, 0, 64, 127
2, 49399, Note_on_c, 0, 74, 91
2, 49401, Note_on_c, 0, 69, 62
2, 49405, Note_on_c, 0, 69, 0
2, 49593, Note_on_c, 0, 81, 93
2, 49766, Note_on_c, 0, 62, 0
2, 49766, Note_on_c, 0, 67, 0
2, 49769, Note_on_c, 0, 71, 103
2, 49776, Note_on_c, 0, 62, 94
2, 49776, Note_on_c, 0, 67, 94
2, 49778, Note_on_c, 0, 86, 99
2, 49804, Note_on_c, 0, 50, 0
2, 49804, Note_on_c, 0, 72, 0
2, 49920, Note_on_c, 0, 43, 0
2, 49950, Note_on_c, 0, 74, 0
2, 49955, Note_on_c, 0, 74, 84
2, 50119, Note_on_c, 0, 81, 0
2, 50126, Note_on_c, 0, 81, 92
2, 50311, Note_on_c, 0, 67, 0
2, 50319, Note_on_c, 0, 62, 0
2, 50321, Note_on_c, 0, 72, 106
2, 50322, Note_on_c, 0, 67, 100
2, 50323, Note_on_c, 0, 62, 96
2, 50327, Note_on_c, 0, 86, 0
2, 50332, Note_on_c, 0, 86, 99
2, 50342, Control_c, 0, 64, 0
2, 50426, Control_c, 0, 64, 127
2, 50480, Note_on_c, 0, 74, 0
2, 50489, Note_on_c, 0, 74, 91
2, 50680, Note_on_c, 0, 81, 0
2, 50685, Note_on_c, 0, 81, 96
2, 50880, Note_on_c, 0, 74, 0
2, 50880, Note_on_c, 0, 81, 0
2, 50888, Note_on_c, 0, 81, 104
2, 50890, Note_on_c, 0, 69, 102
2, 50891, Note_on_c, 0, 74, 102
2, 51072, Note_on_c, 0, 62, 0
2, 51072, Note_on_c, 0, 67, 0
2, 51081, Note_on_c, 0, 67, 96
2, 51082, Note_on_c, 0, 62, 90
2, 51256, Note_on_c, 0, 69, 0
2, 51256, Note_on_c, 0, 81, 0
2, 51264, Note_on_c, 0, 74, 0
2, 51265, Note_on_c, 0, 81, 105
2, 51267, Note_on_c, 0, 69, 102
2, 51268, Note_on_c, 0, 74, 99
2, 51269, Control_c, 0, 64, 0
2, 51273, Note_on_c, 0, 62, 0
2, 51273, Note_on_c, 0, 86, 0
2, 51273, Note_on_c, 0, 71, 0
2, 51274, Note_on_c, 0, 72, 0
2, 51275, Note_on_c, 0, 67, 0
2, 51279, Note_on_c, 0, 55, 0
2, 51363, Control_c, 0, 64, 127
2, 51640, Note_on_c, 0, 74, 0
2, 51686, Note_on_c, 0, 69, 0
2, 51687, Note_on_c, 0, 74, 84
2, 51687, Note_on_c, 0, 67, 81
2, 51697, Note_on_c, 0, 69, 81
2, 51697, Note_on_c, 0, 50, 84
2, 51703, Note_on_c, 0, 38, 82
2, 51704, Note_on_c, 0, 45, 74
2, 51878, Note_on_c, 0, 67, 0
2, 51878, Note_on_c, 0, 74, 0
2, 51886, Note_on_c, 0, 38, 0
2, 51886, Note_on_c, 0, 45, 0
2, 51886, Note_on_c, 0, 50, 0
2, 51886, Note_on_c, 0, 69, 0
2, 51886, Note_on_c, 0, 74, 88
2, 51887, Note_on_c, 0, 67, 84
2, 51890, Note_on_c, 0, 50, 90
2, 51890, Note_on_c, 0, 69, 84
2, 51895, Note_on_c, 0, 38, 85
2, 51896, Note_on_c, 0, 45, 83
2, 52062, Note_on_c, 0, 50, 0
2, 52062, Note_on_c, 0, 67, 0
2, 52062, Note_on_c, 0, 69, 0
2, 52062, Note_on_c, 0, 74, 0
2, 52070, Note_on_c, 0, 74, 94
2, 52070, Note_on_c, 0, 38, 0
2, 52070, Note_on_c, 0, 45, 0
2, 52072, Note_on_c, 0, 67, 86
2, 52073, Note_on_c, 0, 69, 91
2, 52074, Note_on_c, 0, 50, 96
2, 52080, Note_on_c, 0, 38, 87
2, 52080, Note_on_c, 0, 45, 87
2, 52247, Note_on_c, 0, 38, 0
2, 52247, Note_on_c, 0, 45, 0
2, 52247, Note_on_c, 0, 50, 0
2, 52247, Note_on_c, 0, 69, 0
2, 52247, Note_on_c, 0, 74, 0
2, 52251, Note_on_c, 0, 74, 99
2, 52253, Note_on_c, 0, 50, 96
2, 52253, Note_on_c, 0, 45, 93
2, 52254, Note_on_c, 0, 69, 94
2, 52257, Note_on_c, 0, 38, 91
2, 52423, Note_on_c, 0, 67, 0
2, 52423, Note_on_c, 0, 74, 0
2, 52431, Note_on_c, 0, 38, 0
2, 52431, Note_on_c, 0, 45, 0
2, 52431, Note_on_c, 0, 50, 0
2, 52431, Note_on_c, 0, 69, 0
2, 52434, Note_on_c, 0, 67, 97
2, 52435, Note_on_c, 0, 74, 104
2, 52436, Note_on_c, 0, 50, 101
2, 52438, Note_on_c, 0, 69, 92
2, 52441, Note_on_c, 0, 45, 92
2, 52442, Note_on_c, 0, 38, 92
2, 52582, Control_c, 0, 64, 0
2, 52600, Note_on_c, 0, 74, 0
2, 52608, Note_on_c, 0, 38, 0
2, 52608, Note_on_c, 0, 45, 0
2, 52608, Note_on_c, 0, 50, 0
2, 52608, Note_on_c, 0, 69, 0
2, 52611, Note_on_c, 0, 74, 106
2, 52613, Note_on_c, 0, 50, 105
2, 52617, Note_on_c, 0, 69, 97
2, 52619, Note_on_c, 0, 66, 100
2, 52619, Note_on_c, 0, 45, 90
2, 52619, Note_on_c, 0, 38, 99
2, 52661, Note_on_c, 0, 81, 0
2, 52715, Control_c, 0, 64, 127
2, 52907, Note_on_c, 0, 38, 0
2, 52907, Note_on_c, 0, 50, 0
2, 52915, Note_on_c, 0, 38, 92
2, 52916, Note_on_c, 0, 50, 87
2, 52968, Note_on_c, 0, 45, 0
2, 52968, Note_on_c, 0, 50, 0
2, 52972, Note_on_c, 0, 45, 97
2, 52980, Note_on_c, 0, 50, 99
2, 53153, Note_on_c, 0, 67, 0
2, 53160, Note_on_c, 0, 74, 0
2, 53161, Note_on_c, 0, 45, 0
2, 53162, Control_c, 0, 64, 0
2, 53164, Note_on_c, 0, 50, 0
2, 53164, Note_on_c, 0, 66, 0
2, 53169, Note_on_c, 0, 74, 111
2, 53171, Note_on_c, 0, 72, 107
2, 53184, Note_on_c, 0, 38, 0
2, 53184, Note_on_c, 0, 69, 0
2, 53276, Note_on_c, 0, 72, 0
2, 53276, Note_on_c, 0, 74, 0
2, 53358, Note_on_c, 0, 77, 104
2, 53359, Note_on_c, 0, 72, 108
2, 53403, Note_on_c, 0, 72, 0
2, 53483, Note_on_c, 0, 77, 0
2, 53532, Note_on_c, 0, 44, 68
2, 53535, Note_on_c, 0, 74, 108
2, 53537, Note_on_c, 0, 44, 0
2, 53552, Note_on_c, 0, 72, 97
2, 53579, Note_on_c, 0, 74, 0
2, 53652, Note_on_c, 0, 72, 0
2, 53732, Note_on_c, 0, 81, 110
2, 53733, Note_on_c, 0, 72, 105
2, 53735, Note_on_c, 0, 74, 106
2, 53735, Note_on_c, 0, 46, 107
2, 53739, Note_on_c, 0, 34, 101
2, 53739, Note_on_c, 0, 77, 99
2, 53767, Control_c, 0, 64, 127
2, 53905, Note_on_c, 0, 34, 0
2, 53916, Note_on_c, 0, 34, 92
2, 54021, Note_on_c, 0, 46, 0
2, 54031, Note_on_c, 0, 46, 71
2, 54097, Note_on_c, 0, 34, 0
2, 54104, Note_on_c, 0, 34, 89
2, 54289, Note_on_c, 0, 46, 0
2, 54294, Note_on_c, 0, 62, 102
2, 54299, Note_on_c, 0, 58, 99
2, 54301, Note_on_c, 0, 46, 92
2, 54451, Note_on_c, 0, 34, 0
2, 54462, Note_on_c, 0, 34, 89
2, 54543, Note_on_c, 0, 46, 0
2, 54551, Note_on_c, 0, 46, 90
2, 54650, Note_on_c, 0, 34, 0
2, 54650, Note_on_c, 0, 74, 0
2, 54657, Note_on_c, 0, 34, 82
2, 54659, Note_on_c, 0, 74, 109
2, 54730, Note_on_c, 0, 77, 0
2, 54731, Note_on_c, 0, 72, 0
2, 54731, Note_on_c, 0, 81, 0
2, 54731, Note_on_c, 0, 62, 0
2, 54731, Note_on_c, 0, 34, 0
2, 54731, Note_on_c, 0, 74, 0
2, 54732, Note_on_c, 0, 46, 0
2, 54736, Control_c, 0, 64, 0
2, 54758, Note_on_c, 0, 58, 0
2, 54846, Note_on_c, 0, 79, 106
2, 54851, Note_on_c, 0, 72, 103
2, 54853, Note_on_c, 0, 76, 101
2, 54859, Note_on_c, 0, 48, 105
2, 54862, Note_on_c, 0, 36, 98
2, 54912, Control_c, 0, 64, 127
2, 55019, Note_on_c, 0, 36, 0
2, 55023, Note_on_c, 0, 36, 83
2, 55119, Note_on_c, 0, 48, 0
2, 55123, Note_on_c, 0, 48, 87
2, 55211, Note_on_c, 0, 36, 0
2, 55222, Note_on_c, 0, 36, 94
2, 55395, Note_on_c, 0, 36, 0
2, 55402, Note_on_c, 0, 52, 101
2, 55403, Note_on_c, 0, 60, 105
2, 55406, Note_on_c, 0, 55, 102
2, 55407, Note_on_c, 0, 36, 92
2, 55575, Note_on_c, 0, 77, 97
2, 55577, Note_on_c, 0, 74, 105
2, 55664, Note_on_c, 0, 36, 0
2, 55674, Note_on_c, 0, 36, 88
2, 55756, Note_on_c, 0, 36, 0
2, 55756, Note_on_c, 0, 48, 0
2, 55756, Note_on_c, 0, 72, 0
2, 55756, Note_on_c, 0, 76, 0
2, 55761, Note_on_c, 0, 48, 100
2, 55765, Note_on_c, 0, 72, 103
2, 55767, Note_on_c, 0, 76, 104
2, 55767, Note_on_c, 0, 36, 91
2, 55774, Control_c, 0, 64, 0
2, 55777, Note_on_c, 0, 74, 0
2, 55777, Note_on_c, 0, 52, 0
2, 55778, Note_on_c, 0, 55, 0
2, 55778, Note_on_c, 0, 60, 0
2, 55781, Note_on_c, 0, 77, 0
2, 55782, Note_on_c, 0, 79, 0
2, 55818, Note_on_c, 0, 36, 0
2, 55818, Note_on_c, 0, 48, 0
2, 55825, Note_on_c, 0, 72, 0
2, 55841, Note_on_c, 0, 76, 0
2, 55955, Note_on_c, 0, 67, 100
2, 55955, Note_on_c, 0, 72, 106
2, 55959, Note_on_c, 0, 33, 95
2, 55959, Note_on_c, 0, 45, 104
2, 56010, Control_c, 0, 64, 127
2, 56117, Note_on_c, 0, 33, 0
2, 56125, Note_on_c, 0, 33, 88
2, 56225, Note_on_c, 0, 45, 0
2, 56232, Note_on_c, 0, 45, 78
2, 56317, Note_on_c, 0, 33, 0
2, 56317, Note_on_c, 0, 72, 0
2, 56324, Note_on_c, 0, 79, 105
2, 56325, Note_on_c, 0, 45, 0
2, 56328, Note_on_c, 0, 72, 102
2, 56328, Note_on_c, 0, 33, 85
2, 56329, Note_on_c, 0, 76, 98
2, 56329, Note_on_c, 0, 45, 83
2, 56501, Note_on_c, 0, 79, 0
2, 56508, Note_on_c, 0, 60, 100
2, 56509, Note_on_c, 0, 72, 0
2, 56509, Note_on_c, 0, 76, 0
2, 56512, Note_on_c, 0, 79, 106
2, 56512, Note_on_c, 0, 52, 94
2, 56513, Note_on_c, 0, 55, 94
2, 56514, Note_on_c, 0, 72, 101
2, 56516, Note_on_c, 0, 76, 100
2, 56691, Note_on_c, 0, 77, 96
2, 56694, Note_on_c, 0, 74, 103
2, 56785, Note_on_c, 0, 33, 0
2, 56789, Note_on_c, 0, 33, 88
2, 56870, Note_on_c, 0, 45, 0
2, 56870, Note_on_c, 0, 72, 0
2, 56870, Note_on_c, 0, 76, 0
2, 56874, Note_on_c, 0, 72, 101
2, 56875, Note_on_c, 0, 76, 103
2, 56875, Note_on_c, 0, 45, 102
2, 56960, Control_c, 0, 64, 0
2, 56960, Note_on_c, 0, 67, 0
2, 56960, Note_on_c, 0, 60, 0
2, 56961, Note_on_c, 0, 33, 0
2, 56961, Note_on_c, 0, 79, 0
2, 56961, Note_on_c, 0, 52, 0
2, 56961, Note_on_c, 0, 77, 0
2, 56962, Note_on_c, 0, 72, 0
2, 56962, Note_on_c, 0, 74, 0
2, 56962, Note_on_c, 0, 55, 0
2, 56964, Note_on_c, 0, 45, 0
2, 56965, Note_on_c, 0, 76, 0
2, 57057, Note_on_c, 0, 50, 107
2, 57057, Note_on_c, 0, 74, 107
2, 57058, Note_on_c, 0, 77, 103
2, 57058, Note_on_c, 0, 38, 101
2, 57093, Control_c, 0, 64, 127
2, 57223, Note_on_c, 0, 50, 0
2, 57234, Note_on_c, 0, 50, 89
2, 57330, Note_on_c, 0, 57, 103
2, 57331, Note_on_c, 0, 53, 98
2, 57392, Note_on_c, 0, 50, 0
2, 57396, Note_on_c, 0, 50, 91
2, 57535, Control_c, 0, 64, 0
2, 57538, Note_on_c, 0, 77, 0
2, 57538, Note_on_c, 0, 53, 0
2, 57539, Note_on_c, 0, 50, 0
2, 57541, Note_on_c, 0, 57, 0
2, 57546, Note_on_c, 0, 74, 0
2, 57553, Note_on_c, 0, 38, 0
2, 57589, Note_on_c, 0, 48, 102
2, 57590, Note_on_c, 0, 74, 107
2, 57594, Note_on_c, 0, 36, 96
2, 57594, Note_on_c, 0, 72, 105
2, 57596, Note_on_c, 0, 81, 98
2, 57630, Control_c, 0, 64, 127
2, 57768, Note_on_c, 0, 72, 0
2, 57775, Note_on_c, 0, 60, 102
2, 57776, Note_on_c, 0, 72, 104
2, 57778, Note_on_c, 0, 77, 94
2, 57780, Note_on_c, 0, 55, 87
2, 57780, Note_on_c, 0, 52, 91
2, 57951, Note_on_c, 0, 60, 0
2, 57953, Note_on_c, 0, 52, 0
2, 57953, Note_on_c, 0, 36, 0
2, 57953, Note_on_c, 0, 48, 0
2, 57953, Note_on_c, 0, 72, 0
2, 57953, Note_on_c, 0, 74, 0
2, 57954, Note_on_c, 0, 55, 0
2, 57954, Note_on_c, 0, 81, 0
2, 57955, Note_on_c, 0, 77, 0
2, 57957, Control_c, 0, 64, 0
2, 57957, Note_on_c, 0, 74, 106
2, 57958, Note_on_c, 0, 48, 97
2, 57960, Note_on_c, 0, 72, 100
2, 57961, Note_on_c, 0, 36, 98
2, 58007, Note_on_c, 0, 36, 0
2, 58007, Note_on_c, 0, 48, 0
2, 58014, Note_on_c, 0, 72, 0
2, 58014, Note_on_c, 0, 74, 0
2, 58158, Note_on_c, 0, 81, 106
2, 58161, Note_on_c, 0, 72, 104
2, 58163, Note_on_c, 0, 74, 105
2, 58164, Note_on_c, 0, 46, 106
2, 58165, Note_on_c, 0, 34, 94
2, 58165, Note_on_c, 0, 77, 93
2, 58191, Control_c, 0, 64, 127
2, 58321, Note_on_c, 0, 34, 0
2, 58333, Note_on_c, 0, 34, 89
2, 58406, Note_on_c, 0, 46, 0
2, 58415, Note_on_c, 0, 46, 94
2, 58521, Note_on_c, 0, 34, 0
2, 58526, Note_on_c, 0, 34, 89
2, 58705, Note_on_c, 0, 46, 0
2, 58710, Note_on_c, 0, 62, 101
2, 58713, Note_on_c, 0, 58, 95
2, 58713, Note_on_c, 0, 34, 0
2, 58714, Note_on_c, 0, 53, 93
2, 58714, Note_on_c, 0, 46, 94
2, 58722, Note_on_c, 0, 34, 83
2, 58882, Note_on_c, 0, 34, 0
2, 58889, Note_on_c, 0, 34, 90
2, 58967, Note_on_c, 0, 46, 0
2, 58976, Note_on_c, 0, 46, 93
2, 59066, Note_on_c, 0, 34, 0
2, 59074, Note_on_c, 0, 74, 0
2, 59075, Note_on_c, 0, 34, 86
2, 59078, Note_on_c, 0, 74, 107
2, 59147, Control_c, 0, 64, 0
2, 59156, Note_on_c, 0, 62, 0
2, 59157, Note_on_c, 0, 58, 0
2, 59157, Note_on_c, 0, 72, 0
2, 59157, Note_on_c, 0, 74, 0
2, 59158, Note_on_c, 0, 34, 0
2, 59160, Note_on_c, 0, 53, 0
2, 59161, Note_on_c, 0, 81, 0
2, 59161, Note_on_c, 0, 46, 0
2, 59174, Note_on_c, 0, 77, 0
2, 59267, Note_on_c, 0, 79, 105
2, 59269, Note_on_c, 0, 72, 103
2, 59270, Note_on_c, 0, 76, 102
2, 59276, Note_on_c, 0, 48, 104
2, 59278, Note_on_c, 0, 36, 98
2, 59320, Control_c, 0, 64, 127
2, 59435, Note_on_c, 0, 36, 0
2, 59446, Note_on_c, 0, 36, 88
2, 59527, Note_on_c, 0, 48, 0
2, 59537, Note_on_c, 0, 48, 94
2, 59619, Note_on_c, 0, 36, 0
2, 59630, Note_on_c, 0, 36, 92
2, 59819, Note_on_c, 0, 79, 0
2, 59827, Note_on_c, 0, 48, 0
2, 59829, Note_on_c, 0, 60, 100
2, 59830, Note_on_c, 0, 52, 97
2, 59830, Note_on_c, 0, 79, 103
2, 59831, Note_on_c, 0, 55, 96
2, 59833, Note_on_c, 0, 67, 100
2, 59837, Note_on_c, 0, 48, 90
2, 60003, Note_on_c, 0, 36, 0
2, 60014, Note_on_c, 0, 81, 104
2, 60015, Note_on_c, 0, 36, 89
2, 60015, Note_on_c, 0, 69, 103
2, 60111, Note_on_c, 0, 48, 0
2, 60115, Note_on_c, 0, 48, 82
2, 60176, Note_on_c, 0, 36, 0
2, 60193, Note_on_c, 0, 82, 104
2, 60195, Note_on_c, 0, 70, 103
2, 60278, Control_c, 0, 64, 0
2, 60281, Note_on_c, 0, 60, 0
2, 60282, Note_on_c, 0, 81, 0
2, 60282, Note_on_c, 0, 69, 0
2, 60283, Note_on_c, 0, 82, 0
2, 60283, Note_on_c, 0, 67, 0
2, 60283, Note_on_c, 0, 48, 0
2, 60283, Note_on_c, 0, 76, 0
2, 60283, Note_on_c, 0, 72, 0
2, 60283, Note_on_c, 0, 55, 0
2, 60283, Note_on_c, 0, 79, 0
2, 60284, Note_on_c, 0, 52, 0
2, 60284, Note_on_c, 0, 70, 0
2, 60389, Note_on_c, 0, 73, 110
2, 60389, Note_on_c, 0, 85, 107
2, 60392, Note_on_c, 0, 49, 103
2, 60393, Note_on_c, 0, 37, 97
2, 60394, Note_on_c, 0, 76, 95
2, 60426, Control_c, 0, 64, 127
2, 60564, Note_on_c, 0, 49, 0
2, 60573, Note_on_c, 0, 49, 88
2, 60659, Note_on_c, 0, 57, 99
2, 60662, Note_on_c, 0, 52, 85
2, 60741, Note_on_c, 0, 37, 0
2, 60741, Note_on_c, 0, 49, 0
2, 60747, Note_on_c, 0, 49, 88
2, 60748, Note_on_c, 0, 37, 81
2, 60864, Note_on_c, 0, 37, 0
2, 60869, Note_on_c, 0, 37, 60
2, 60907, Note_on_c, 0, 73, 0
2, 60908, Note_on_c, 0, 85, 0
2, 60909, Note_on_c, 0, 49, 0
2, 60909, Note_on_c, 0, 37, 0
2, 60910, Note_on_c, 0, 52, 0
2, 60911, Control_c, 0, 64, 0
2, 60912, Note_on_c, 0, 57, 0
2, 60938, Note_on_c, 0, 33, 92
2, 60941, Note_on_c, 0, 45, 101
2, 60948, Note_on_c, 0, 76, 0
2, 60950, Note_on_c, 0, 82, 101
2, 60951, Note_on_c, 0, 73, 105
2, 60952, Note_on_c, 0, 76, 95
2, 60953, Note_on_c, 0, 70, 101
2, 60986, Note_on_c, 0, 33, 0
2, 60986, Control_c, 0, 64, 127
2, 61140, Note_on_c, 0, 45, 0
2, 61142, Note_on_c, 0, 57, 101
2, 61143, Note_on_c, 0, 49, 94
2, 61146, Note_on_c, 0, 45, 88
2, 61286, Note_on_c, 0, 45, 0
2, 61295, Note_on_c, 0, 45, 92
2, 61305, Note_on_c, 0, 81, 101
2, 61452, Control_c, 0, 64, 0
2, 61454, Note_on_c, 0, 82, 0
2, 61457, Note_on_c, 0, 81, 0
2, 61458, Note_on_c, 0, 49, 0
2, 61458, Note_on_c, 0, 57, 0
2, 61458, Note_on_c, 0, 76, 0
2, 61458, Note_on_c, 0, 73, 0
2, 61458, Note_on_c, 0, 70, 0
2, 61478, Note_on_c, 0, 45, 0
2, 61493, Note_on_c, 0, 79, 107
2, 61498, Note_on_c, 0, 69, 102
2, 61499, Note_on_c, 0, 74, 101
2, 61502, Note_on_c, 0, 38, 98
2, 61503, Note_on_c, 0, 50, 105
2, 61547, Control_c, 0, 64, 127
2, 61683, Note_on_c, 0, 53, 92
2, 61794, Note_on_c, 0, 57, 98
2, 61867, Note_on_c, 0, 62, 101
2, 61885, Note_on_c, 0, 77, 101
2, 62046, Note_on_c, 0, 69, 0
2, 62046, Note_on_c, 0, 74, 0
2, 62055, Note_on_c, 0, 69, 101
2, 62056, Note_on_c, 0, 74, 107
2, 62056, Note_on_c, 0, 60, 102
2, 62073, Control_c, 0, 64, 0
2, 62077, Note_on_c, 0, 38, 0
2, 62077, Note_on_c, 0, 57, 0
2, 62077, Note_on_c, 0, 53, 0
2, 62077, Note_on_c, 0, 77, 0
2, 62078, Note_on_c, 0, 79, 0
2, 62078, Note_on_c, 0, 62, 0
2, 62079, Note_on_c, 0, 50, 0
2, 62146, Control_c, 0, 64, 127
2, 62154, Note_on_c, 0, 60, 0
2, 62160, Note_on_c, 0, 55, 93
2, 62238, Note_on_c, 0, 77, 97
2, 62258, Note_on_c, 0, 48, 97
2, 62341, Note_on_c, 0, 43, 93
2, 62405, Note_on_c, 0, 36, 90
2, 62415, Note_on_c, 0, 74, 0
2, 62420, Note_on_c, 0, 74, 107
2, 62549, Control_c, 0, 64, 0
2, 62557, Note_on_c, 0, 36, 0
2, 62558, Note_on_c, 0, 77, 0
2, 62559, Note_on_c, 0, 48, 0
2, 62559, Note_on_c, 0, 74, 0
2, 62560, Note_on_c, 0, 55, 0
2, 62576, Note_on_c, 0, 69, 0
2, 62584, Note_on_c, 0, 43, 0
2, 62618, Note_on_c, 0, 81, 107
2, 62620, Note_on_c, 0, 72, 105
2, 62626, Note_on_c, 0, 74, 100
2, 62627, Note_on_c, 0, 77, 88
2, 62627, Note_on_c, 0, 46, 101
2, 62627, Note_on_c, 0, 34, 95
2, 62661, Note_on_c, 0, 34, 0
2, 62676, Control_c, 0, 64, 127
2, 62820, Note_on_c, 0, 53, 87
2, 62979, Note_on_c, 0, 58, 89
2, 63160, Note_on_c, 0, 74, 0
2, 63165, Note_on_c, 0, 74, 106
2, 63183, Note_on_c, 0, 77, 0
2, 63187, Note_on_c, 0, 77, 98
2, 63192, Note_on_c, 0, 86, 107
2, 63193, Note_on_c, 0, 82, 101
2, 63194, Note_on_c, 0, 81, 0
2, 63195, Control_c, 0, 64, 0
2, 63196, Note_on_c, 0, 46, 0
2, 63197, Note_on_c, 0, 62, 97
2, 63201, Note_on_c, 0, 65, 100
2, 63229, Note_on_c, 0, 72, 0
2, 63244, Control_c, 0, 64, 127
2, 63383, Note_on_c, 0, 58, 0
2, 63388, Note_on_c, 0, 58, 76
2, 63536, Note_on_c, 0, 53, 0
2, 63547, Note_on_c, 0, 53, 88
2, 63575, Note_on_c, 0, 84, 103
2, 63727, Note_on_c, 0, 62, 0
2, 63728, Note_on_c, 0, 58, 0
2, 63729, Note_on_c, 0, 86, 0
2, 63729, Note_on_c, 0, 65, 0
2, 63729, Note_on_c, 0, 82, 0
2, 63730, Control_c, 0, 64, 0
2, 63744, Note_on_c, 0, 53, 0
2, 63751, Note_on_c, 0, 74, 0
2, 63751, Note_on_c, 0, 77, 0
2, 63757, Note_on_c, 0, 48, 102
2, 63759, Note_on_c, 0, 84, 0
2, 63764, Note_on_c, 0, 36, 95
2, 63768, Note_on_c, 0, 84, 104
2, 63769, Note_on_c, 0, 72, 106
2, 63771, Note_on_c, 0, 79, 95
2, 63773, Note_on_c, 0, 76, 97
2, 63816, Note_on_c, 0, 36, 0
2, 63820, Control_c, 0, 64, 127
2, 63956, Note_on_c, 0, 55, 88
2, 64122, Note_on_c, 0, 60, 93
2, 64335, Note_on_c, 0, 72, 0
2, 64335, Note_on_c, 0, 76, 0
2, 64340, Note_on_c, 0, 76, 98
2, 64340, Note_on_c, 0, 72, 98
2, 64343, Note_on_c, 0, 79, 0
2, 64348, Note_on_c, 0, 79, 102
2, 64354, Note_on_c, 0, 64, 100
2, 64356, Note_on_c, 0, 67, 95
2, 64358, Control_c, 0, 64, 0
2, 64442, Control_c, 0, 64, 127
2, 64519, Note_on_c, 0, 60, 0
2, 64526, Note_on_c, 0, 60, 85
2, 64688, Note_on_c, 0, 55, 0
2, 64693, Note_on_c, 0, 55, 94
2, 64699, Note_on_c, 0, 77, 98
2, 64868, Note_on_c, 0, 48, 0
2, 64868, Note_on_c, 0, 84, 0
2, 64869, Note_on_c, 0, 72, 0
2, 64869, Note_on_c, 0, 60, 0
2, 64869, Note_on_c, 0, 64, 0
2, 64869, Note_on_c, 0, 67, 0
2, 64869, Control_c, 0, 64, 0
2, 64870, Note_on_c, 0, 79, 0
2, 64870, Note_on_c, 0, 77, 0
2, 64870, Note_on_c, 0, 55, 0
2, 64888, Note_on_c, 0, 76, 0
2, 64894, Note_on_c, 0, 76, 99
2, 64898, Note_on_c, 0, 73, 103
2, 64899, Note_on_c, 0, 49, 98
2, 64899, Note_on_c, 0, 37, 94
2, 64900, Note_on_c, 0, 69, 93
2, 64965, Control_c, 0, 64, 127
2, 65092, Note_on_c, 0, 52, 82
2, 65276, Note_on_c, 0, 57, 96
2, 65464, Note_on_c, 0, 73, 0
2, 65464, Note_on_c, 0, 76, 0
2, 65466, Note_on_c, 0, 82, 102
2, 65468, Control_c, 0, 64, 0
2, 65468, Note_on_c, 0, 76, 99
2, 65469, Note_on_c, 0, 70, 100
2, 65471, Note_on_c, 0, 73, 103
2, 65473, Note_on_c, 0, 61, 91
2, 65474, Note_on_c, 0, 64, 96
2, 65481, Note_on_c, 0, 57, 0
2, 65483, Note_on_c, 0, 49, 0
2, 65495, Note_on_c, 0, 37, 0
2, 65518, Control_c, 0, 64, 127
2, 65533, Note_on_c, 0, 69, 0
2, 65633, Note_on_c, 0, 57, 91
2, 65786, Note_on_c, 0, 52, 0
2, 65797, Note_on_c, 0, 52, 85
2, 65829, Note_on_c, 0, 81, 103
2, 65991, Note_on_c, 0, 64, 0
2, 65991, Note_on_c, 0, 61, 0
2, 65991, Note_on_c, 0, 57, 0
2, 65993, Note_on_c, 0, 70, 0
2, 65993, Note_on_c, 0, 76, 0
2, 65994, Control_c, 0, 64, 0
2, 66009, Note_on_c, 0, 52, 0
2, 66009, Note_on_c, 0, 73, 0
2, 66009, Note_on_c, 0, 81, 0
2, 66009, Note_on_c, 0, 82, 0
2, 66014, Note_on_c, 0, 38, 88
2, 66015, Note_on_c, 0, 50, 97
2, 66017, Note_on_c, 0, 81, 101
2, 66021, Note_on_c, 0, 69, 99
2, 66024, Note_on_c, 0, 74, 98
2, 66026, Note_on_c, 0, 77, 89
2, 66094, Note_on_c, 0, 38, 0
2, 66094, Control_c, 0, 64, 127
2, 66224, Note_on_c, 0, 53, 76
2, 66396, Note_on_c, 0, 57, 98
2, 66562, Note_on_c, 0, 77, 0
2, 66573, Note_on_c, 0, 77, 103
2, 66577, Note_on_c, 0, 69, 0
2, 66577, Note_on_c, 0, 74, 0
2, 66581, Note_on_c, 0, 69, 93
2, 66581, Note_on_c, 0, 74, 99
2, 66583, Note_on_c, 0, 62, 98
2, 66584, Note_on_c, 0, 65, 96
2, 66754, Note_on_c, 0, 57, 0
2, 66760, Note_on_c, 0, 57, 97
2, 66938, Note_on_c, 0, 53, 0
2, 66943, Note_on_c, 0, 53, 94
2, 66946, Note_on_c, 0, 76, 98
2, 67145, Note_on_c, 0, 69, 0
2, 67146, Note_on_c, 0, 53, 0
2, 67147, Note_on_c, 0, 57, 0
2, 67147, Control_c, 0, 64, 0
2, 67148, Note_on_c, 0, 50, 0
2, 67148, Note_on_c, 0, 76, 0
2, 67149, Note_on_c, 0, 81, 0
2, 67153, Note_on_c, 0, 62, 0
2, 67153, Note_on_c, 0, 65, 0
2, 67153, Note_on_c, 0, 74, 0
2, 67158, Note_on_c, 0, 74, 105
2, 67161, Note_on_c, 0, 43, 96
2, 67161, Note_on_c, 0, 77, 0
2, 67162, Note_on_c, 0, 31, 93
2, 67163, Note_on_c, 0, 62, 97
2, 67164, Note_on_c, 0, 70, 98
2, 67164, Note_on_c, 0, 65, 98
2, 67202, Note_on_c, 0, 31, 0
2, 67210, Note_on_c, 0, 43, 0
2, 67345, Note_on_c, 0, 43, 99
2, 67347, Note_on_c, 0, 31, 88
2, 67499, Note_on_c, 0, 62, 0
2, 67522, Note_on_c, 0, 31, 0
2, 67522, Note_on_c, 0, 43, 0
2, 67532, Note_on_c, 0, 43, 100
2, 67533, Note_on_c, 0, 31, 87
2, 67545, Control_c, 0, 64, 127
2, 67699, Control_c, 0, 64, 0
2, 67713, Note_on_c, 0, 77, 100
2, 67714, Note_on_c, 0, 70, 0
2, 67714, Note_on_c, 0, 74, 0
2, 67718, Note_on_c, 0, 62, 99
2, 67719, Note_on_c, 0, 70, 101
2, 67719, Note_on_c, 0, 74, 107
2, 67719, Note_on_c, 0, 58, 102
2, 67783, Control_c, 0, 64, 127
2, 67988, Note_on_c, 0, 55, 95
2, 68067, Note_on_c, 0, 58, 0
2, 68067, Note_on_c, 0, 62, 0
2, 68072, Note_on_c, 0, 76, 105
2, 68073, Note_on_c, 0, 62, 101
2, 68075, Note_on_c, 0, 58, 93
2, 68181, Note_on_c, 0, 62, 0
2, 68184, Note_on_c, 0, 31, 0
2, 68184, Control_c, 0, 64, 0
2, 68185, Note_on_c, 0, 74, 0
2, 68185, Note_on_c, 0, 55, 0
2, 68185, Note_on_c, 0, 70, 0
2, 68185, Note_on_c, 0, 43, 0
2, 68187, Note_on_c, 0, 76, 0
2, 68190, Note_on_c, 0, 65, 0
2, 68190, Note_on_c, 0, 77, 0
2, 68198, Note_on_c, 0, 58, 0
2, 68288, Note_on_c, 0, 74, 110
2, 68289, Note_on_c, 0, 48, 100
2, 68294, Note_on_c, 0, 72, 107
2, 68294, Note_on_c, 0, 36, 94
2, 68294, Note_on_c, 0, 67, 101
2, 68328, Note_on_c, 0, 48, 0
2, 68329, Note_on_c, 0, 36, 0
2, 68479, Note_on_c, 0, 48, 102
2, 68480, Note_on_c, 0, 36, 94
2, 68519, Note_on_c, 0, 36, 0
2, 68521, Note_on_c, 0, 48, 0
2, 68643, Note_on_c, 0, 67, 0
2, 68660, Note_on_c, 0, 48, 101
2, 68660, Note_on_c, 0, 36, 95
2, 68682, Control_c, 0, 64, 127
2, 68843, Note_on_c, 0, 72, 0
2, 68846, Note_on_c, 0, 60, 105
2, 68846, Note_on_c, 0, 64, 107
2, 68847, Note_on_c, 0, 55, 105
2, 68847, Note_on_c, 0, 72, 104
2, 68848, Note_on_c, 0, 67, 104
2, 68848, Note_on_c, 0, 76, 102
2, 69120, Note_on_c, 0, 55, 0
2, 69124, Note_on_c, 0, 55, 97
2, 69196, Note_on_c, 0, 60, 0
2, 69196, Note_on_c, 0, 64, 0
2, 69204, Note_on_c, 0, 72, 0
2, 69204, Note_on_c, 0, 76, 0
2, 69207, Note_on_c, 0, 60, 101
2, 69207, Note_on_c, 0, 64, 105
2, 69208, Note_on_c, 0, 76, 104
2, 69209, Note_on_c, 0, 72, 93
2, 69209, Note_on_c, 0, 67, 0
2, 69212, Note_on_c, 0, 48, 0
2, 69364, Note_on_c, 0, 36, 0
2, 69364, Note_on_c, 0, 74, 0
2, 69365, Note_on_c, 0, 60, 0
2, 69366, Control_c, 0, 64, 0
2, 69366, Note_on_c, 0, 55, 0
2, 69367, Note_on_c, 0, 72, 0
2, 69367, Note_on_c, 0, 76, 0
2, 69381, Note_on_c, 0, 64, 0
2, 69408, Note_on_c, 0, 50, 107
2, 69409, Note_on_c, 0, 74, 108
2, 69409, Note_on_c, 0, 38, 99
2, 69412, Note_on_c, 0, 62, 105
2, 69415, Note_on_c, 0, 66, 89
2, 69427, Note_on_c, 0, 66, 0
2, 69450, Control_c, 0, 64, 127
2, 69588, Note_on_c, 0, 26, 85
2, 69765, Note_on_c, 0, 38, 0
2, 69765, Note_on_c, 0, 50, 0
2, 69771, Note_on_c, 0, 50, 91
2, 69774, Note_on_c, 0, 38, 78
2, 69957, Control_c, 0, 64, 0
2, 69958, Note_on_c, 0, 62, 0
2, 69959, Note_on_c, 0, 38, 0
2, 69959, Note_on_c, 0, 50, 0
2, 69964, Note_on_c, 0, 26, 0
2, 69970, Note_on_c, 0, 52, 100
2, 69971, Note_on_c, 0, 40, 101
2, 70041, Control_c, 0, 64, 127
2, 70145, Note_on_c, 0, 28, 87
2, 70318, Note_on_c, 0, 52, 0
2, 70327, Note_on_c, 0, 52, 97
2, 70474, Note_on_c, 0, 28, 0
2, 70481, Note_on_c, 0, 52, 0
2, 70481, Control_c, 0, 64, 0
2, 70494, Note_on_c, 0, 40, 0
2, 70513, Note_on_c, 0, 53, 104
2, 70514, Note_on_c, 0, 41, 103
2, 70586, Control_c, 0, 64, 127
2, 70688, Note_on_c, 0, 29, 92
2, 70717, Note_on_c, 0, 74, 0
2, 70863, Note_on_c, 0, 41, 0
2, 70863, Note_on_c, 0, 53, 0
2, 70873, Note_on_c, 0, 53, 101
2, 70874, Note_on_c, 0, 41, 82
2, 71018, Note_on_c, 0, 29, 0
2, 71019, Note_on_c, 0, 41, 0
2, 71019, Note_on_c, 0, 53, 0
2, 71029, Control_c, 0, 64, 0
2, 71052, Note_on_c, 0, 55, 105
2, 71057, Note_on_c, 0, 43, 103
2, 71061, Note_on_c, 0, 69, 107
2, 71062, Note_on_c, 0, 65, 100
2, 71063, Note_on_c, 0, 77, 102
2, 71116, Control_c, 0, 64, 127
2, 71234, Note_on_c, 0, 31, 90
2, 71434, Note_on_c, 0, 76, 107
2, 71435, Note_on_c, 0, 64, 109
2, 71437, Note_on_c, 0, 45, 100
2, 71439, Note_on_c, 0, 33, 84
2, 71588, Note_on_c, 0, 31, 0
2, 71589, Note_on_c, 0, 55, 0
2, 71589, Note_on_c, 0, 77, 0
2, 71589, Note_on_c, 0, 33, 0
2, 71589, Note_on_c, 0, 69, 0
2, 71590, Control_c, 0, 64, 0
2, 71590, Note_on_c, 0, 64, 0
2, 71590, Note_on_c, 0, 76, 0
2, 71591, Note_on_c, 0, 45, 0
2, 71600, Note_on_c, 0, 65, 0
2, 71608, Note_on_c, 0, 43, 0
2, 71629, Note_on_c, 0, 74, 111
2, 71632, Note_on_c, 0, 62, 106
2, 71633, Note_on_c, 0, 46, 104
2, 71635, Note_on_c, 0, 70, 102
2, 71635, Note_on_c, 0, 34, 94
2, 71635, Note_on_c, 0, 65, 100
2, 71675, Note_on_c, 0, 34, 0
2, 71678, Note_on_c, 0, 46, 0
2, 71708, Control_c, 0, 64, 127
2, 72000, Note_on_c, 0, 62, 0
2, 72000, Note_on_c, 0, 74, 0
2, 72005, Note_on_c, 0, 74, 109
2, 72007, Note_on_c, 0, 62, 101
2, 72137, Note_on_c, 0, 62, 0
2, 72137, Note_on_c, 0, 70, 0
2, 72138, Note_on_c, 0, 74, 0
2, 72142, Control_c, 0, 64, 0
2, 72145, Note_on_c, 0, 65, 0
2, 72187, Note_on_c, 0, 77, 106
2, 72190, Note_on_c, 0, 65, 105
2, 72330, Note_on_c, 0, 65, 0
2, 72549, Note_on_c, 0, 81, 109
2, 72550, Note_on_c, 0, 69, 107
2, 72551, Note_on_c, 0, 46, 100
2, 72552, Note_on_c, 0, 34, 94
2, 72568, Control_c, 0, 64, 127
2, 72599, Note_on_c, 0, 77, 0
2, 72648, Note_on_c, 0, 34, 0
2, 72650, Control_c, 0, 64, 0
2, 72651, Note_on_c, 0, 46, 0
2, 72660, Note_on_c, 0, 69, 0
2, 72691, Note_on_c, 0, 81, 0
2, 72754, Note_on_c, 0, 79, 112
2, 72757, Note_on_c, 0, 76, 106
2, 72757, Note_on_c, 0, 67, 104
2, 72757, Note_on_c, 0, 48, 106
2, 72758, Note_on_c, 0, 72, 106
2, 72763, Note_on_c, 0, 36, 98
2, 72806, Control_c, 0, 64, 127
2, 73112, Note_on_c, 0, 36, 0
2, 73115, Note_on_c, 0, 48, 0
2, 73116, Note_on_c, 0, 79, 0
2, 73116, Note_on_c, 0, 72, 0
2, 73116, Control_c, 0, 64, 0
2, 73117, Note_on_c, 0, 76, 0
2, 73121, Note_on_c, 0, 67, 0
2, 73370, Note_on_c, 0, 84, 109
2, 73370, Note_on_c, 0, 79, 108
2, 73370, Note_on_c, 0, 72, 108
2, 73371, Note_on_c, 0, 76, 106
2, 73405, Control_c, 0, 64, 127
2, 73512, Note_on_c, 0, 72, 0
2, 73658, Note_on_c, 0, 76, 0
2, 73737, Note_on_c, 0, 81, 107
2, 73738, Note_on_c, 0, 69, 110
2, 73930, Control_c, 0, 64, 0
2, 73934, Note_on_c, 0, 84, 0
2, 73935, Note_on_c, 0, 81, 0
2, 73936, Note_on_c, 0, 69, 0
2, 73937, Note_on_c, 0, 79, 0
2, 73938, Note_on_c, 0, 86, 109
2, 73939, Note_on_c, 0, 74, 109
2, 73939, Note_on_c, 0, 81, 102
2, 73941, Note_on_c, 0, 77, 99
2, 73941, Note_on_c, 0, 50, 103
2, 73944, Note_on_c, 0, 38, 96
2, 74081, Note_on_c, 0, 74, 0
2, 74160, Note_on_c, 0, 91, 92
2, 74334, Control_c, 0, 64, 127
2, 74343, Note_on_c, 0, 93, 82
2, 74516, Note_on_c, 0, 96, 91
2, 74704, Note_on_c, 0, 98, 96
2, 74895, Note_on_c, 0, 91, 0
2, 74904, Note_on_c, 0, 91, 92
2, 75067, Note_on_c, 0, 72, 90
2, 75082, Note_on_c, 0, 69, 79
2, 75084, Note_on_c, 0, 65, 77
2, 75098, Note_on_c, 0, 62, 74
2, 75256, Note_on_c, 0, 91, 0
2, 75263, Note_on_c, 0, 91, 88
2, 75448, Note_on_c, 0, 93, 0
2, 75457, Note_on_c, 0, 93, 83
2, 75635, Note_on_c, 0, 84, 100
2, 75640, Note_on_c, 0, 77, 0
2, 75640, Note_on_c, 0, 96, 0
2, 75645, Note_on_c, 0, 96, 91
2, 75648, Note_on_c, 0, 81, 0
2, 75649, Note_on_c, 0, 77, 83
2, 75653, Note_on_c, 0, 81, 83
2, 75816, Note_on_c, 0, 98, 0
2, 75821, Note_on_c, 0, 98, 96
2, 76008, Note_on_c, 0, 91, 0
2, 76017, Note_on_c, 0, 91, 87
2, 76197, Note_on_c, 0, 46, 91
2, 76199, Note_on_c, 0, 34, 84
2, 76392, Note_on_c, 0, 91, 0
2, 76398, Note_on_c, 0, 91, 91
2, 76561, Note_on_c, 0, 93, 0
2, 76571, Note_on_c, 0, 93, 86
2, 76753, Note_on_c, 0, 96, 0
2, 76764, Note_on_c, 0, 96, 91
2, 76930, Note_on_c, 0, 98, 0
2, 76941, Note_on_c, 0, 98, 97
2, 77122, Note_on_c, 0, 91, 0
2, 77126, Note_on_c, 0, 91, 90
2, 77306, Note_on_c, 0, 65, 0
2, 77306, Note_on_c, 0, 72, 0
2, 77315, Note_on_c, 0, 65, 81
2, 77317, Note_on_c, 0, 72, 85
2, 77319, Note_on_c, 0, 70, 92
2, 77321, Note_on_c, 0, 58, 81
2, 77498, Note_on_c, 0, 91, 0
2, 77509, Note_on_c, 0, 91, 91
2, 77698, Note_on_c, 0, 93, 0
2, 77710, Note_on_c, 0, 93, 85
2, 77867, Note_on_c, 0, 84, 0
2, 77871, Note_on_c, 0, 88, 106
2, 77876, Note_on_c, 0, 79, 101
2, 77878, Note_on_c, 0, 84, 103
2, 77883, Note_on_c, 0, 76, 96
2, 77898, Note_on_c, 0, 96, 0
2, 77909, Note_on_c, 0, 96, 91
2, 77909, Control_c, 0, 64, 0
2, 77959, Control_c, 0, 64, 127
2, 78044, Note_on_c, 0, 98, 0
2, 78055, Note_on_c, 0, 98, 98
2, 78236, Note_on_c, 0, 91, 0
2, 78244, Note_on_c, 0, 91, 101
2, 78435, Note_on_c, 0, 72, 0
2, 78435, Note_on_c, 0, 84, 0
2, 78440, Note_on_c, 0, 57, 94
2, 78442, Note_on_c, 0, 41, 86
2, 78443, Note_on_c, 0, 48, 92
2, 78444, Note_on_c, 0, 84, 108
2, 78446, Note_on_c, 0, 72, 103
2, 78463, Control_c, 0, 64, 0
2, 78466, Note_on_c, 0, 50, 0
2, 78466, Note_on_c, 0, 34, 0
2, 78467, Note_on_c, 0, 58, 0
2, 78468, Note_on_c, 0, 65, 0
2, 78469, Note_on_c, 0, 91, 0
2, 78469, Note_on_c, 0, 79, 0
2, 78469, Note_on_c, 0, 70, 0
2, 78469, Note_on_c, 0, 96, 0
2, 78469, Note_on_c, 0, 76, 0
2, 78469, Note_on_c, 0, 88, 0
2, 78470, Note_on_c, 0, 46, 0
2, 78470, Note_on_c, 0, 98, 0
2, 78474, Note_on_c, 0, 81, 0
2, 78481, Note_on_c, 0, 38, 0
2, 78481, Note_on_c, 0, 62, 0
2, 78481, Note_on_c, 0, 69, 0
2, 78481, Note_on_c, 0, 77, 0
2, 78489, Note_on_c, 0, 86, 0
2, 78589, Control_c, 0, 64, 127
2, 78669, Note_on_c, 0, 89, 91
2, 78720, Note_on_c, 0, 93, 0
2, 78816, Note_on_c, 0, 91, 89
2, 79008, Note_on_c, 0, 96, 101
2, 79201, Note_on_c, 0, 98, 104
2, 79380, Note_on_c, 0, 89, 0
2, 79385, Note_on_c, 0, 89, 92
2, 79556, Note_on_c, 0, 60, 84
2, 79559, Note_on_c, 0, 67, 85
2, 79578, Note_on_c, 0, 65, 84
2, 79741, Note_on_c, 0, 89, 0
2, 79751, Note_on_c, 0, 89, 87
2, 79925, Note_on_c, 0, 91, 0
2, 79932, Note_on_c, 0, 91, 88
2, 80102, Note_on_c, 0, 72, 0
2, 80109, Note_on_c, 0, 79, 94
2, 80112, Note_on_c, 0, 72, 88
2, 80122, Note_on_c, 0, 77, 83
2, 80140, Note_on_c, 0, 96, 0
2, 80144, Note_on_c, 0, 96, 99
2, 80317, Note_on_c, 0, 98, 0
2, 80321, Note_on_c, 0, 98, 101
2, 80501, Note_on_c, 0, 89, 0
2, 80512, Note_on_c, 0, 89, 91
2, 80686, Note_on_c, 0, 65, 0
2, 80687, Note_on_c, 0, 52, 83
2, 80688, Note_on_c, 0, 48, 0
2, 80689, Note_on_c, 0, 43, 81
2, 80689, Note_on_c, 0, 57, 0
2, 80692, Note_on_c, 0, 36, 80
2, 80893, Note_on_c, 0, 89, 0
2, 80897, Note_on_c, 0, 89, 93
2, 81062, Note_on_c, 0, 41, 0
2, 81062, Note_on_c, 0, 91, 0
2, 81067, Note_on_c, 0, 91, 84
2, 81239, Note_on_c, 0, 67, 0
2, 81245, Note_on_c, 0, 67, 88
2, 81262, Note_on_c, 0, 96, 0
2, 81269, Note_on_c, 0, 60, 0
2, 81271, Note_on_c, 0, 96, 97
2, 81275, Note_on_c, 0, 60, 70
2, 81278, Note_on_c, 0, 65, 72
2, 81431, Note_on_c, 0, 98, 0
2, 81440, Note_on_c, 0, 98, 97
2, 81623, Note_on_c, 0, 89, 0
2, 81629, Note_on_c, 0, 89, 90
2, 81830, Note_on_c, 0, 67, 0
2, 81830, Note_on_c, 0, 77, 0
2, 81830, Note_on_c, 0, 84, 0
2, 81840, Note_on_c, 0, 67, 75
2, 81840, Note_on_c, 0, 88, 94
2, 81840, Note_on_c, 0, 64, 80
2, 81841, Note_on_c, 0, 84, 93
2, 81853, Note_on_c, 0, 72, 0
2, 81907, Note_on_c, 0, 79, 0
2, 81920, Control_c, 0, 64, 0
2, 81930, Control_c, 0, 64, 127
2, 81937, Note_on_c, 0, 36, 0
2, 82137, Note_on_c, 0, 98, 0
2, 82560, Note_on_c, 0, 65, 0
2, 82701, Note_on_c, 0, 65, 94
2, 82882, Note_on_c, 0, 67, 0
2, 82886, Note_on_c, 0, 67, 87
2, 83043, Note_on_c, 0, 52, 0
2, 83059, Note_on_c, 0, 43, 0
2, 83059, Note_on_c, 0, 96, 0
2, 83074, Note_on_c, 0, 91, 0
2, 83077, Note_on_c, 0, 64, 0
2, 83078, Note_on_c, 0, 88, 0
2, 83082, Note_on_c, 0, 89, 0
2, 83083, Note_on_c, 0, 50, 75
2, 83083, Note_on_c, 0, 69, 95
2, 83091, Note_on_c, 0, 62, 70
2, 83097, Note_on_c, 0, 60, 0
2, 83097, Note_on_c, 0, 84, 0
2, 83108, Note_on_c, 0, 57, 65
2, 83276, Note_on_c, 0, 77, 77
2, 83297, Note_on_c, 0, 67, 0
2, 83450, Note_on_c, 0, 69, 0
2, 83455, Note_on_c, 0, 79, 90
2, 83456, Note_on_c, 0, 69, 88
2, 83642, Note_on_c, 0, 62, 0
2, 83652, Note_on_c, 0, 84, 92
2, 83653, Note_on_c, 0, 62, 80
2, 83827, Note_on_c, 0, 69, 0
2, 83827, Note_on_c, 0, 77, 0
2, 83833, Note_on_c, 0, 69, 90
2, 83837, Note_on_c, 0, 77, 78
2, 84003, Note_on_c, 0, 65, 0
2, 84003, Note_on_c, 0, 79, 0
2, 84010, Note_on_c, 0, 79, 84
2, 84010, Note_on_c, 0, 65, 81
2, 84191, Note_on_c, 0, 70, 99
2, 84203, Note_on_c, 0, 84, 0
2, 84213, Note_on_c, 0, 84, 88
2, 84364, Note_on_c, 0, 77, 0
2, 84375, Note_on_c, 0, 77, 74
2, 84556, Note_on_c, 0, 79, 0
2, 84564, Note_on_c, 0, 69, 0
2, 84568, Note_on_c, 0, 79, 84
2, 84568, Note_on_c, 0, 69, 93
2, 84756, Note_on_c, 0, 84, 0
2, 84764, Note_on_c, 0, 62, 0
2, 84766, Note_on_c, 0, 84, 88
2, 84768, Note_on_c, 0, 62, 80
2, 84933, Note_on_c, 0, 69, 0
2, 84940, Note_on_c, 0, 69, 95
2, 85117, Note_on_c, 0, 70, 0
2, 85122, Note_on_c, 0, 70, 95
2, 85309, Note_on_c, 0, 65, 0
2, 85311, Note_on_c, 0, 60, 82
2, 85314, Note_on_c, 0, 72, 100
2, 85315, Note_on_c, 0, 53, 79
2, 85317, Note_on_c, 0, 46, 87
2, 85317, Note_on_c, 0, 65, 94
2, 85321, Control_c, 0, 64, 0
2, 85324, Note_on_c, 0, 84, 0
2, 85327, Note_on_c, 0, 79, 0
2, 85327, Note_on_c, 0, 69, 0
2, 85327, Note_on_c, 0, 70, 0
2, 85327, Note_on_c, 0, 62, 0
2, 85327, Note_on_c, 0, 50, 0
2, 85327, Note_on_c, 0, 77, 0
2, 85328, Note_on_c, 0, 57, 0
2, 85378, Control_c, 0, 64, 127
2, 85507, Note_on_c, 0, 77, 69
2, 85670, Note_on_c, 0, 72, 0
2, 85680, Note_on_c, 0, 72, 97
2, 85681, Note_on_c, 0, 79, 89
2, 85873, Note_on_c, 0, 84, 90
2, 85874, Note_on_c, 0, 58, 79
2, 86046, Note_on_c, 0, 72, 0
2, 86052, Note_on_c, 0, 72, 94
2, 86054, Note_on_c, 0, 77, 0
2, 86059, Note_on_c, 0, 77, 82
2, 86231, Note_on_c, 0, 72, 0
2, 86231, Note_on_c, 0, 79, 0
2, 86239, Note_on_c, 0, 72, 92
2, 86239, Note_on_c, 0, 79, 91
2, 86400, Note_on_c, 0, 60, 0
2, 86415, Note_on_c, 0, 65, 0
2, 86418, Note_on_c, 0, 70, 98
2, 86423, Note_on_c, 0, 58, 0
2, 86423, Note_on_c, 0, 84, 0
2, 86426, Note_on_c, 0, 65, 91
2, 86428, Note_on_c, 0, 58, 87
2, 86433, Note_on_c, 0, 84, 91
2, 86492, Control_c, 0, 64, 0
2, 86576, Control_c, 0, 64, 127
2, 86607, Note_on_c, 0, 77, 0
2, 86611, Note_on_c, 0, 77, 72
2, 86784, Note_on_c, 0, 79, 0
2, 86793, Note_on_c, 0, 79, 87
2, 86794, Note_on_c, 0, 69, 94
2, 86976, Note_on_c, 0, 58, 0
2, 86976, Note_on_c, 0, 84, 0
2, 86986, Note_on_c, 0, 84, 93
2, 86987, Note_on_c, 0, 58, 81
2, 87160, Note_on_c, 0, 69, 0
2, 87167, Note_on_c, 0, 69, 94
2, 87344, Note_on_c, 0, 70, 0
2, 87351, Note_on_c, 0, 70, 97
2, 87451, Control_c, 0, 64, 0
2, 87464, Note_on_c, 0, 72, 0
2, 87465, Note_on_c, 0, 79, 0
2, 87465, Note_on_c, 0, 53, 0
2, 87466, Note_on_c, 0, 65, 0
2, 87466, Note_on_c, 0, 69, 0
2, 87466, Note_on_c, 0, 46, 0
2, 87467, Note_on_c, 0, 77, 0
2, 87468, Note_on_c, 0, 84, 0
2, 87527, Note_on_c, 0, 72, 98
2, 87528, Note_on_c, 0, 41, 77
2, 87529, Note_on_c, 0, 48, 78
2, 87531, Note_on_c, 0, 65, 89
2, 87532, Note_on_c, 0, 55, 82
2, 87544, Note_on_c, 0, 58, 0
2, 87582, Control_c, 0, 64, 127
2, 87690, Note_on_c, 0, 70, 0
2, 87728, Note_on_c, 0, 77, 73
2, 87905, Note_on_c, 0, 72, 0
2, 87910, Note_on_c, 0, 79, 93
2, 87912, Note_on_c, 0, 72, 93
2, 88094, Note_on_c, 0, 60, 84
2, 88110, Note_on_c, 0, 84, 85
2, 88273, Note_on_c, 0, 72, 0
2, 88280, Note_on_c, 0, 72, 94
2, 88289, Note_on_c, 0, 77, 0
2, 88294, Note_on_c, 0, 77, 80
2, 88450, Note_on_c, 0, 72, 0
2, 88450, Note_on_c, 0, 79, 0
2, 88456, Note_on_c, 0, 72, 94
2, 88460, Note_on_c, 0, 79, 90
2, 88642, Note_on_c, 0, 65, 0
2, 88642, Note_on_c, 0, 84, 0
2, 88646, Note_on_c, 0, 70, 99
2, 88652, Note_on_c, 0, 65, 83
2, 88652, Note_on_c, 0, 84, 93
2, 88803, Note_on_c, 0, 77, 0
2, 88813, Note_on_c, 0, 77, 78
2, 88995, Note_on_c, 0, 79, 0
2, 89003, Note_on_c, 0, 69, 95
2, 89006, Note_on_c, 0, 79, 92
2, 89195, Note_on_c, 0, 60, 0
2, 89195, Note_on_c, 0, 72, 0
2, 89195, Note_on_c, 0, 84, 0
2, 89201, Note_on_c, 0, 60, 85
2, 89205, Note_on_c, 0, 84, 89
2, 89206, Note_on_c, 0, 72, 78
2, 89372, Note_on_c, 0, 69, 0
2, 89377, Note_on_c, 0, 69, 94
2, 89564, Note_on_c, 0, 70, 0
2, 89569, Note_on_c, 0, 70, 93
2, 89643, Control_c, 0, 64, 0
2, 89648, Note_on_c, 0, 79, 0
2, 89649, Note_on_c, 0, 48, 0
2, 89649, Note_on_c, 0, 41, 0
2, 89649, Note_on_c, 0, 72, 0
2, 89650, Note_on_c, 0, 65, 0
2, 89650, Note_on_c, 0, 77, 0
2, 89650, Note_on_c, 0, 84, 0
2, 89651, Note_on_c, 0, 69, 0
2, 89651, Note_on_c, 0, 55, 0
2, 89652, Note_on_c, 0, 60, 0
2, 89730, Note_on_c, 0, 62, 85
2, 89730, Note_on_c, 0, 69, 93
2, 89734, Note_on_c, 0, 48, 81
2, 89737, Note_on_c, 0, 55, 78
2, 89825, Note_on_c, 0, 70, 0
2, 89917, Control_c, 0, 64, 127
2, 89921, Note_on_c, 0, 77, 80
2, 90113, Note_on_c, 0, 67, 89
2, 90113, Note_on_c, 0, 79, 91
2, 90117, Note_on_c, 0, 62, 0
2, 90293, Note_on_c, 0, 67, 0
2, 90297, Note_on_c, 0, 67, 87
2, 90299, Note_on_c, 0, 60, 81
2, 90304, Note_on_c, 0, 84, 93
2, 90462, Note_on_c, 0, 77, 0
2, 90473, Note_on_c, 0, 77, 79
2, 90490, Note_on_c, 0, 65, 76
2, 90654, Note_on_c, 0, 67, 0
2, 90654, Note_on_c, 0, 79, 0
2, 90660, Note_on_c, 0, 67, 84
2, 90664, Note_on_c, 0, 79, 91
2, 90866, Note_on_c, 0, 64, 90
2, 90872, Note_on_c, 0, 88, 90
2, 91422, Note_on_c, 0, 60, 0
2, 91432, Note_on_c, 0, 60, 66
2, 91791, Note_on_c, 0, 65, 0
2, 91799, Note_on_c, 0, 65, 93
2, 91994, Note_on_c, 0, 76, 98
2, 91997, Control_c, 0, 64, 0
2, 91997, Note_on_c, 0, 46, 83
2, 92001, Note_on_c, 0, 55, 0
2, 92001, Note_on_c, 0, 48, 0
2, 92002, Note_on_c, 0, 72, 90
2, 92002, Note_on_c, 0, 77, 0
2, 92002, Note_on_c, 0, 69, 0
2, 92002, Note_on_c, 0, 84, 0
2, 92002, Note_on_c, 0, 88, 0
2, 92002, Note_on_c, 0, 60, 0
2, 92002, Note_on_c, 0, 67, 0
2, 92002, Note_on_c, 0, 64, 0
2, 92002, Note_on_c, 0, 79, 0
2, 92003, Note_on_c, 0, 65, 0
2, 92098, Control_c, 0, 64, 127
2, 92174, Note_on_c, 0, 53, 75
2, 92365, Note_on_c, 0, 58, 68
2, 92366, Note_on_c, 0, 77, 71
2, 92462, Note_on_c, 0, 82, 84
2, 92544, Note_on_c, 0, 88, 97
2, 92552, Note_on_c, 0, 60, 78
2, 92912, Note_on_c, 0, 77, 0
2, 92923, Note_on_c, 0, 77, 93
2, 93104, Note_on_c, 0, 77, 0
2, 93115, Note_on_c, 0, 74, 102
2, 93115, Note_on_c, 0, 77, 94
2, 93118, Note_on_c, 0, 70, 92
2, 93281, Note_on_c, 0, 46, 0
2, 93286, Note_on_c, 0, 46, 86
2, 93473, Note_on_c, 0, 53, 0
2, 93473, Note_on_c, 0, 77, 0
2, 93477, Note_on_c, 0, 77, 85
2, 93478, Note_on_c, 0, 53, 79
2, 93580, Note_on_c, 0, 82, 0
2, 93591, Note_on_c, 0, 82, 90
2, 93648, Note_on_c, 0, 89, 100
2, 93654, Note_on_c, 0, 62, 89
2, 93657, Note_on_c, 0, 58, 0
2, 93662, Note_on_c, 0, 58, 80
2, 94027, Note_on_c, 0, 48, 89
2, 94029, Note_on_c, 0, 65, 94
2, 94080, Note_on_c, 0, 72, 0
2, 94080, Note_on_c, 0, 76, 0
2, 94216, Note_on_c, 0, 76, 101
2, 94225, Note_on_c, 0, 65, 0
2, 94229, Control_c, 0, 64, 0
2, 94231, Note_on_c, 0, 50, 86
2, 94231, Note_on_c, 0, 69, 92
2, 94232, Note_on_c, 0, 65, 84
2, 94238, Note_on_c, 0, 89, 0
2, 94239, Note_on_c, 0, 82, 0
2, 94242, Note_on_c, 0, 88, 0
2, 94242, Note_on_c, 0, 77, 0
2, 94243, Note_on_c, 0, 60, 0
2, 94244, Note_on_c, 0, 70, 0
2, 94244, Note_on_c, 0, 53, 0
2, 94244, Note_on_c, 0, 74, 0
2, 94244, Note_on_c, 0, 48, 0
2, 94245, Note_on_c, 0, 58, 0
2, 94245, Note_on_c, 0, 46, 0
2, 94246, Note_on_c, 0, 62, 0
2, 94302, Control_c, 0, 64, 127
2, 94407, Note_on_c, 0, 57, 76
2, 94440, Note_on_c, 0, 50, 0
2, 94579, Note_on_c, 0, 76, 0
2, 94580, Note_on_c, 0, 60, 76
2, 94585, Note_on_c, 0, 76, 87
2, 94696, Note_on_c, 0, 81, 86
2, 94756, Note_on_c, 0, 88, 102
2, 94775, Note_on_c, 0, 64, 88
2, 95150, Note_on_c, 0, 77, 94
2, 95347, Note_on_c, 0, 77, 0
2, 95354, Note_on_c, 0, 65, 0
2, 95354, Note_on_c, 0, 69, 0
2, 95358, Note_on_c, 0, 77, 98
2, 95363, Note_on_c, 0, 65, 86
2, 95364, Note_on_c, 0, 69, 92
2, 95406, Control_c, 0, 64, 0
2, 95462, Control_c, 0, 64, 127
2, 95533, Note_on_c, 0, 50, 82
2, 95700, Note_on_c, 0, 57, 0
2, 95700, Note_on_c, 0, 77, 0
2, 95707, Note_on_c, 0, 77, 87
2, 95711, Note_on_c, 0, 57, 81
2, 95784, Note_on_c, 0, 81, 0
2, 95789, Note_on_c, 0, 81, 93
2, 95888, Note_on_c, 0, 89, 101
2, 95900, Note_on_c, 0, 65, 0
2, 95909, Note_on_c, 0, 65, 90
2, 96238, Note_on_c, 0, 65, 0
2, 96247, Note_on_c, 0, 65, 102
2, 96446, Note_on_c, 0, 88, 0
2, 96448, Note_on_c, 0, 69, 0
2, 96448, Note_on_c, 0, 81, 0
2, 96448, Note_on_c, 0, 64, 0
2, 96449, Note_on_c, 0, 77, 0
2, 96449, Note_on_c, 0, 65, 0
2, 96449, Note_on_c, 0, 60, 0
2, 96450, Note_on_c, 0, 50, 0
2, 96451, Control_c, 0, 64, 0
2, 96453, Note_on_c, 0, 46, 92
2, 96460, Note_on_c, 0, 76, 0
2, 96468, Note_on_c, 0, 57, 0
2, 96468, Note_on_c, 0, 89, 0
2, 96470, Note_on_c, 0, 76, 101
2, 96506, Control_c, 0, 64, 127
2, 96555, Note_on_c, 0, 65, 96
2, 96652, Note_on_c, 0, 53, 83
2, 96670, Note_on_c, 0, 70, 90
2, 96729, Note_on_c, 0, 76, 0
2, 96734, Note_on_c, 0, 76, 85
2, 96829, Note_on_c, 0, 76, 0
2, 96833, Note_on_c, 0, 76, 93
2, 96841, Note_on_c, 0, 60, 82
2, 96915, Note_on_c, 0, 82, 91
2, 97000, Note_on_c, 0, 89, 106
2, 97002, Note_on_c, 0, 62, 96
2, 97075, Note_on_c, 0, 82, 0
2, 97086, Note_on_c, 0, 82, 95
2, 97179, Note_on_c, 0, 77, 92
2, 97267, Note_on_c, 0, 77, 0
2, 97277, Note_on_c, 0, 77, 86
2, 97351, Note_on_c, 0, 70, 0
2, 97356, Note_on_c, 0, 70, 93
2, 97372, Note_on_c, 0, 58, 86
2, 97428, Note_on_c, 0, 65, 0
2, 97437, Note_on_c, 0, 65, 88
2, 97546, Note_on_c, 0, 60, 0
2, 97547, Note_on_c, 0, 62, 0
2, 97547, Note_on_c, 0, 79, 102
2, 97547, Note_on_c, 0, 70, 0
2, 97547, Note_on_c, 0, 58, 0
2, 97547, Note_on_c, 0, 77, 0
2, 97547, Note_on_c, 0, 76, 0
2, 97548, Note_on_c, 0, 53, 0
2, 97548, Note_on_c, 0, 65, 0
2, 97549, Note_on_c, 0, 48, 91
2, 97549, Control_c, 0, 64, 0
2, 97549, Note_on_c, 0, 89, 0
2, 97550, Note_on_c, 0, 46, 0
2, 97566, Note_on_c, 0, 82, 0
2, 97597, Control_c, 0, 64, 127
2, 97631, Note_on_c, 0, 67, 98
2, 97732, Note_on_c, 0, 72, 95
2, 97740, Note_on_c, 0, 55, 87
2, 97804, Note_on_c, 0, 79, 0
2, 97809, Note_on_c, 0, 79, 93
2, 97904, Note_on_c, 0, 79, 0
2, 97909, Note_on_c, 0, 79, 88
2, 97915, Note_on_c, 0, 64, 97
2, 97986, Note_on_c, 0, 84, 97
2, 98074, Note_on_c, 0, 93, 103
2, 98089, Note_on_c, 0, 48, 0
2, 98091, Note_on_c, 0, 55, 0
2, 98092, Note_on_c, 0, 79, 0
2, 98092, Note_on_c, 0, 67, 0
2, 98092, Note_on_c, 0, 64, 0
2, 98092, Note_on_c, 0, 84, 0
2, 98092, Note_on_c, 0, 72, 0
2, 98092, Note_on_c, 0, 49, 87
2, 98093, Control_c, 0, 64, 0
2, 98142, Control_c, 0, 64, 127
2, 98160, Note_on_c, 0, 85, 98
2, 98242, Note_on_c, 0, 81, 96
2, 98277, Note_on_c, 0, 57, 87
2, 98334, Note_on_c, 0, 81, 0
2, 98343, Note_on_c, 0, 81, 85
2, 98432, Note_on_c, 0, 69, 92
2, 98446, Note_on_c, 0, 64, 86
2, 98522, Note_on_c, 0, 67, 84
2, 98588, Note_on_c, 0, 93, 0
2, 98596, Note_on_c, 0, 76, 100
2, 98600, Note_on_c, 0, 64, 0
2, 98604, Note_on_c, 0, 49, 0
2, 98605, Note_on_c, 0, 81, 0
2, 98605, Note_on_c, 0, 69, 0
2, 98606, Note_on_c, 0, 67, 0
2, 98606, Note_on_c, 0, 57, 0
2, 98606, Note_on_c, 0, 85, 0
2, 98606, Control_c, 0, 64, 0
2, 98614, Note_on_c, 0, 50, 89
2, 98680, Control_c, 0, 64, 127
2, 98707, Note_on_c, 0, 65, 88
2, 98811, Note_on_c, 0, 69, 90
2, 98812, Note_on_c, 0, 57, 84
2, 98887, Note_on_c, 0, 76, 0
2, 98894, Note_on_c, 0, 76, 82
2, 98954, Note_on_c, 0, 64, 87
2, 98972, Note_on_c, 0, 76, 0
2, 98983, Note_on_c, 0, 76, 68
2, 99062, Note_on_c, 0, 81, 88
2, 99137, Note_on_c, 0, 88, 100
2, 99141, Note_on_c, 0, 65, 0
2, 99150, Note_on_c, 0, 65, 78
2, 99496, Note_on_c, 0, 77, 89
2, 99509, Note_on_c, 0, 57, 0
2, 99518, Note_on_c, 0, 57, 76
2, 99701, Note_on_c, 0, 65, 0
2, 99701, Note_on_c, 0, 77, 0
2, 99707, Note_on_c, 0, 77, 91
2, 99708, Note_on_c, 0, 89, 101
2, 99709, Note_on_c, 0, 81, 0
2, 99711, Note_on_c, 0, 65, 74
2, 99718, Note_on_c, 0, 81, 92
2, 99737, Note_on_c, 0, 62, 70
2, 100262, Note_on_c, 0, 57, 0
2, 100273, Note_on_c, 0, 57, 81
2, 100287, Note_on_c, 0, 72, 94
2, 100471, Note_on_c, 0, 70, 93
2, 100638, Note_on_c, 0, 69, 0
2, 100648, Note_on_c, 0, 69, 96
2, 100767, Note_on_c, 0, 88, 0
2, 100768, Note_on_c, 0, 64, 0
2, 100769, Note_on_c, 0, 89, 0
2, 100770, Note_on_c, 0, 65, 0
2, 100771, Note_on_c, 0, 77, 0
2, 100771, Note_on_c, 0, 72, 0
2, 100771, Note_on_c, 0, 81, 0
2, 100772, Note_on_c, 0, 62, 0
2, 100772, Note_on_c, 0, 70, 0
2, 100772, Control_c, 0, 64, 0
2, 100773, Note_on_c, 0, 69, 0
2, 100784, Note_on_c, 0, 50, 0
2, 100792, Note_on_c, 0, 57, 0
2, 100800, Note_on_c, 0, 76, 0
2, 100834, Note_on_c, 0, 69, 98
2, 100837, Note_on_c, 0, 57, 88
2, 100839, Note_on_c, 0, 42, 80
2, 100840, Note_on_c, 0, 50, 75
2, 101036, Note_on_c, 0, 74, 78
2, 101128, Note_on_c, 0, 81, 78
2, 101137, Control_c, 0, 64, 127
2, 101207, Note_on_c, 0, 74, 0
2, 101212, Note_on_c, 0, 74, 84
2, 101291, Note_on_c, 0, 81, 0
2, 101299, Note_on_c, 0, 81, 78
2, 101388, Note_on_c, 0, 66, 94
2, 101391, Note_on_c, 0, 86, 96
2, 101498, Note_on_c, 0, 81, 0
2, 101503, Note_on_c, 0, 81, 81
2, 101583, Note_on_c, 0, 74, 0
2, 101587, Note_on_c, 0, 74, 78
2, 101675, Note_on_c, 0, 81, 0
2, 101683, Note_on_c, 0, 81, 82
2, 101767, Note_on_c, 0, 74, 0
2, 101771, Note_on_c, 0, 74, 77
2, 101859, Note_on_c, 0, 81, 0
2, 101869, Note_on_c, 0, 81, 80
2, 101943, Note_on_c, 0, 67, 99
2, 101959, Note_on_c, 0, 86, 0
2, 101965, Note_on_c, 0, 86, 92
2, 102044, Note_on_c, 0, 81, 0
2, 102049, Note_on_c, 0, 81, 79
2, 102120, Note_on_c, 0, 74, 0
2, 102132, Note_on_c, 0, 74, 82
2, 102213, Note_on_c, 0, 81, 0
2, 102218, Note_on_c, 0, 81, 77
2, 102297, Note_on_c, 0, 74, 0
2, 102302, Note_on_c, 0, 74, 84
2, 102389, Note_on_c, 0, 81, 0
2, 102398, Note_on_c, 0, 81, 82
2, 102489, Note_on_c, 0, 69, 0
2, 102494, Note_on_c, 0, 69, 98
2, 102512, Note_on_c, 0, 86, 0
2, 102520, Note_on_c, 0, 86, 93
2, 102589, Note_on_c, 0, 81, 0
2, 102600, Note_on_c, 0, 81, 83
2, 102673, Note_on_c, 0, 74, 0
2, 102681, Note_on_c, 0, 74, 80
2, 102773, Note_on_c, 0, 81, 0
2, 102778, Note_on_c, 0, 81, 78
2, 102850, Note_on_c, 0, 74, 0
2, 102855, Note_on_c, 0, 74, 81
2, 102897, Note_on_c, 0, 43, 89
2, 102919, Note_on_c, 0, 81, 0
2, 102931, Note_on_c, 0, 81, 81
2, 103065, Note_on_c, 0, 50, 0
2, 103065, Note_on_c, 0, 67, 0
2, 103069, Note_on_c, 0, 72, 102
2, 103070, Control_c, 0, 64, 0
2, 103073, Note_on_c, 0, 55, 95
2, 103073, Note_on_c, 0, 67, 91
2, 103073, Note_on_c, 0, 62, 99
2, 103075, Note_on_c, 0, 50, 94
2, 103087, Note_on_c, 0, 74, 0
2, 103088, Note_on_c, 0, 81, 0
2, 103090, Note_on_c, 0, 57, 0
2, 103091, Note_on_c, 0, 69, 0
2, 103091, Note_on_c, 0, 42, 0
2, 103091, Note_on_c, 0, 86, 0
2, 103093, Note_on_c, 0, 66, 0
2, 103127, Note_on_c, 0, 43, 0
2, 103142, Control_c, 0, 64, 127
2, 103267, Note_on_c, 0, 74, 89
2, 103354, Note_on_c, 0, 81, 92
2, 103441, Note_on_c, 0, 74, 0
2, 103447, Note_on_c, 0, 74, 91
2, 103526, Note_on_c, 0, 81, 0
2, 103533, Note_on_c, 0, 81, 90
2, 103626, Note_on_c, 0, 55, 0
2, 103626, Note_on_c, 0, 62, 0
2, 103626, Note_on_c, 0, 67, 0
2, 103630, Note_on_c, 0, 71, 101
2, 103633, Note_on_c, 0, 62, 92
2, 103635, Note_on_c, 0, 67, 97
2, 103635, Note_on_c, 0, 86, 97
2, 103636, Note_on_c, 0, 55, 81
2, 103726, Note_on_c, 0, 72, 0
2, 103733, Note_on_c, 0, 81, 0
2, 103741, Note_on_c, 0, 81, 92
2, 103825, Note_on_c, 0, 74, 0
2, 103832, Note_on_c, 0, 74, 89
2, 103918, Note_on_c, 0, 81, 0
2, 103926, Note_on_c, 0, 81, 92
2, 103987, Note_on_c, 0, 74, 0
2, 103997, Note_on_c, 0, 74, 91
2, 104079, Note_on_c, 0, 81, 0
2, 104088, Note_on_c, 0, 81, 92
2, 104179, Note_on_c, 0, 62, 0
2, 104179, Note_on_c, 0, 67, 0
2, 104179, Note_on_c, 0, 86, 0
2, 104184, Note_on_c, 0, 72, 103
2, 104186, Note_on_c, 0, 62, 97
2, 104186, Note_on_c, 0, 50, 0
2, 104187, Note_on_c, 0, 67, 101
2, 104188, Note_on_c, 0, 86, 99
2, 104279, Note_on_c, 0, 81, 0
2, 104287, Note_on_c, 0, 81, 95
2, 104363, Note_on_c, 0, 74, 0
2, 104371, Note_on_c, 0, 74, 92
2, 104455, Note_on_c, 0, 81, 0
2, 104465, Note_on_c, 0, 81, 84
2, 104540, Note_on_c, 0, 74, 0
2, 104551, Note_on_c, 0, 74, 89
2, 104593, Note_on_c, 0, 81, 0
2, 104598, Note_on_c, 0, 81, 88
2, 104747, Note_on_c, 0, 74, 0
2, 104747, Note_on_c, 0, 81, 0
2, 104751, Note_on_c, 0, 81, 103
2, 104752, Note_on_c, 0, 69, 100
2, 104755, Note_on_c, 0, 74, 98
2, 104931, Note_on_c, 0, 67, 0
2, 104937, Note_on_c, 0, 67, 96
2, 104939, Note_on_c, 0, 62, 0
2, 104943, Note_on_c, 0, 62, 89
2, 105108, Note_on_c, 0, 69, 0
2, 105108, Note_on_c, 0, 74, 0
2, 105108, Note_on_c, 0, 81, 0
2, 105113, Note_on_c, 0, 81, 106
2, 105115, Note_on_c, 0, 69, 101
2, 105118, Note_on_c, 0, 74, 100
2, 105135, Control_c, 0, 64, 0
2, 105138, Note_on_c, 0, 86, 0
2, 105140, Note_on_c, 0, 62, 0
2, 105140, Note_on_c, 0, 72, 0
2, 105141, Note_on_c, 0, 67, 0
2, 105154, Note_on_c, 0, 55, 0
2, 105154, Note_on_c, 0, 71, 0
2, 105208, Control_c, 0, 64, 127
2, 105507, Note_on_c, 0, 74, 0
2, 105519, Note_on_c, 0, 74, 85
2, 105520, Note_on_c, 0, 50, 90
2, 105525, Note_on_c, 0, 38, 85
2, 105526, Note_on_c, 0, 45, 82
2, 105584, Note_on_c, 0, 81, 0
2, 105589, Note_on_c, 0, 81, 88
2, 105684, Note_on_c, 0, 74, 0
2, 105690, Note_on_c, 0, 74, 92
2, 105707, Note_on_c, 0, 38, 0
2, 105707, Note_on_c, 0, 45, 0
2, 105707, Note_on_c, 0, 50, 0
2, 105711, Note_on_c, 0, 50, 91
2, 105711, Note_on_c, 0, 45, 85
2, 105712, Note_on_c, 0, 38, 88
2, 105776, Note_on_c, 0, 81, 0
2, 105787, Note_on_c, 0, 81, 93
2, 105868, Note_on_c, 0, 50, 0
2, 105876, Note_on_c, 0, 38, 0
2, 105876, Note_on_c, 0, 45, 0
2, 105879, Note_on_c, 0, 50, 99
2, 105880, Note_on_c, 0, 45, 88
2, 105880, Note_on_c, 0, 38, 92
2, 105886, Note_on_c, 0, 86, 102
2, 105984, Note_on_c, 0, 81, 0
2, 105991, Note_on_c, 0, 69, 0
2, 105992, Note_on_c, 0, 81, 98
2, 106053, Note_on_c, 0, 38, 0
2, 106053, Note_on_c, 0, 45, 0
2, 106053, Note_on_c, 0, 50, 0
2, 106060, Note_on_c, 0, 74, 0
2, 106062, Note_on_c, 0, 45, 98
2, 106063, Note_on_c, 0, 50, 100
2, 106064, Note_on_c, 0, 38, 91
2, 106068, Note_on_c, 0, 74, 95
2, 106145, Note_on_c, 0, 81, 0
2, 106152, Note_on_c, 0, 81, 100
2, 106229, Note_on_c, 0, 74, 0
2, 106237, Note_on_c, 0, 74, 102
2, 106237, Note_on_c, 0, 38, 0
2, 106237, Note_on_c, 0, 45, 0
2, 106237, Note_on_c, 0, 50, 0
2, 106244, Note_on_c, 0, 45, 95
2, 106247, Note_on_c, 0, 50, 102
2, 106247, Note_on_c, 0, 38, 99
2, 106283, Note_on_c, 0, 81, 0
2, 106290, Note_on_c, 0, 81, 93
2, 106414, Note_on_c, 0, 38, 0
2, 106414, Note_on_c, 0, 45, 0
2, 106414, Note_on_c, 0, 50, 0
2, 106418, Note_on_c, 0, 50, 99
2, 106419, Note_on_c, 0, 38, 103
2, 106420, Note_on_c, 0, 45, 88
2, 106464, Note_on_c, 0, 101, 106
2, 106475, Note_on_c, 0, 100, 99
2, 106493, Note_on_c, 0, 98, 98
2, 106511, Note_on_c, 0, 96, 99
2, 106538, Note_on_c, 0, 95, 89
2, 106548, Note_on_c, 0, 93, 92
2, 106562, Note_on_c, 0, 91, 96
2, 106582, Note_on_c, 0, 89, 90
2, 106590, Note_on_c, 0, 86, 0
2, 106594, Note_on_c, 0, 88, 83
2, 106601, Note_on_c, 0, 86, 92
2, 106621, Note_on_c, 0, 84, 83
2, 106636, Note_on_c, 0, 81, 0
2, 106640, Note_on_c, 0, 81, 99
2, 106640, Note_on_c, 0, 83, 91
2, 106649, Note_on_c, 0, 79, 96
2, 106665, Note_on_c, 0, 77, 87
2, 106678, Note_on_c, 0, 76, 96
2, 106690, Note_on_c, 0, 74, 0
2, 106699, Note_on_c, 0, 74, 97
2, 106706, Note_on_c, 0, 72, 99
2, 106735, Note_on_c, 0, 71, 87
2, 106739, Note_on_c, 0, 69, 89
2, 106756, Note_on_c, 0, 67, 87
2, 106770, Note_on_c, 0, 65, 87
2, 106779, Note_on_c, 0, 64, 92
2, 106795, Note_on_c, 0, 62, 99
2, 106813, Note_on_c, 0, 60, 87
2, 106840, Note_on_c, 0, 59, 90
2, 106920, Note_on_c, 0, 38, 0
2, 106928, Note_on_c, 0, 45, 0
2, 106930, Note_on_c, 0, 38, 102
2, 106935, Note_on_c, 0, 45, 84
2, 106990, Note_on_c, 0, 62, 0
2, 106990, Note_on_c, 0, 74, 0
2, 106997, Note_on_c, 0, 50, 0
2, 106999, Note_on_c, 0, 74, 110
2, 107000, Note_on_c, 0, 62, 109
2, 107001, Note_on_c, 0, 50, 98
2, 107151, Note_on_c, 0, 77, 0
2, 107159, Note_on_c, 0, 65, 0
2, 107159, Note_on_c, 0, 67, 0
2, 107161, Note_on_c, 0, 77, 103
2, 107163, Note_on_c, 0, 65, 101
2, 107170, Note_on_c, 0, 67, 70
2, 107258, Note_on_c, 0, 36, 88
2, 107266, Note_on_c, 0, 36, 0
2, 107279, Note_on_c, 0, 100, 0
2, 107280, Note_on_c, 0, 59, 0
2, 107280, Note_on_c, 0, 95, 0
2, 107280, Note_on_c, 0, 67, 0
2, 107280, Note_on_c, 0, 91, 0
2, 107281, Note_on_c, 0, 98, 0
2, 107281, Note_on_c, 0, 86, 0
2, 107281, Note_on_c, 0, 93, 0
2, 107282, Note_on_c, 0, 83, 0
2, 107282, Note_on_c, 0, 88, 0
2, 107282, Note_on_c, 0, 69, 0
2, 107282, Note_on_c, 0, 74, 0
2, 107282, Note_on_c, 0, 96, 0
2, 107282, Note_on_c, 0, 76, 0
2, 107282, Note_on_c, 0, 71, 0
2, 107283, Note_on_c, 0, 60, 0
2, 107283, Note_on_c, 0, 84, 0
2, 107283, Note_on_c, 0, 72, 0
2, 107283, Note_on_c, 0, 81, 0
2, 107283, Note_on_c, 0, 65, 0
2, 107283, Note_on_c, 0, 38, 0
2, 107283, Note_on_c, 0, 89, 0
2, 107284, Note_on_c, 0, 77, 0
2, 107284, Note_on_c, 0, 79, 0
2, 107284, Note_on_c, 0, 50, 0
2, 107284, Control_c, 0, 64, 0
2, 107289, Note_on_c, 0, 45, 0
2, 107289, Note_on_c, 0, 101, 0
2, 107297, Note_on_c, 0, 62, 0
2, 107297, Note_on_c, 0, 64, 0
2, 107332, Note_on_c, 0, 48, 95
2, 107340, Note_on_c, 0, 62, 101
2, 107340, Note_on_c, 0, 74, 109
2, 107369, Note_on_c, 0, 62, 0
2, 107369, Note_on_c, 0, 48, 0
2, 107389, Note_on_c, 0, 74, 0
2, 107547, Note_on_c, 0, 81, 108
2, 107550, Note_on_c, 0, 69, 106
2, 107550, Note_on_c, 0, 46, 103
2, 107554, Note_on_c, 0, 74, 103
2, 107554, Note_on_c, 0, 34, 97
2, 107573, Control_c, 0, 64, 127
2, 107712, Note_on_c, 0, 34, 0
2, 107717, Note_on_c, 0, 34, 90
2, 107811, Note_on_c, 0, 46, 0
2, 107815, Note_on_c, 0, 46, 86
2, 107911, Note_on_c, 0, 34, 0
2, 107911, Note_on_c, 0, 46, 0
2, 107915, Note_on_c, 0, 34, 82
2, 107918, Note_on_c, 0, 46, 83
2, 108098, Note_on_c, 0, 62, 102
2, 108098, Note_on_c, 0, 53, 92
2, 108099, Note_on_c, 0, 58, 93
2, 108264, Note_on_c, 0, 34, 0
2, 108274, Note_on_c, 0, 34, 94
2, 108349, Note_on_c, 0, 46, 0
2, 108355, Note_on_c, 0, 46, 96
2, 108456, Note_on_c, 0, 62, 0
2, 108456, Note_on_c, 0, 74, 0
2, 108464, Note_on_c, 0, 34, 0
2, 108468, Note_on_c, 0, 62, 104
2, 108468, Note_on_c, 0, 74, 107
2, 108468, Note_on_c, 0, 34, 80
2, 108519, Control_c, 0, 64, 0
2, 108519, Note_on_c, 0, 58, 0
2, 108521, Note_on_c, 0, 62, 0
2, 108522, Note_on_c, 0, 69, 0
2, 108522, Note_on_c, 0, 81, 0
2, 108522, Note_on_c, 0, 53, 0
2, 108522, Note_on_c, 0, 46, 0
2, 108523, Note_on_c, 0, 74, 0
2, 108523, Note_on_c, 0, 34, 0
2, 108667, Note_on_c, 0, 79, 109
2, 108669, Note_on_c, 0, 67, 105
2, 108670, Note_on_c, 0, 76, 102
2, 108671, Note_on_c, 0, 72, 99
2, 108675, Note_on_c, 0, 48, 105
2, 108679, Note_on_c, 0, 36, 94
2, 108710, Control_c, 0, 64, 127
2, 108825, Note_on_c, 0, 36, 0
2, 108837, Note_on_c, 0, 36, 80
2, 108917, Note_on_c, 0, 48, 0
2, 108923, Note_on_c, 0, 48, 87
2, 109025, Note_on_c, 0, 36, 0
2, 109030, Note_on_c, 0, 36, 90
2, 109209, Note_on_c, 0, 36, 0
2, 109211, Note_on_c, 0, 52, 99
2, 109211, Note_on_c, 0, 60, 103
2, 109213, Note_on_c, 0, 55, 100
2, 109218, Note_on_c, 0, 36, 91
2, 109386, Note_on_c, 0, 77, 102
2, 109389, Note_on_c, 0, 65, 103
2, 109455, Note_on_c, 0, 36, 0
2, 109463, Note_on_c, 0, 36, 96
2, 109547, Note_on_c, 0, 48, 0
2, 109551, Note_on_c, 0, 48, 100
2, 109561, Note_on_c, 0, 67, 0
2, 109562, Note_on_c, 0, 76, 0
2, 109565, Note_on_c, 0, 60, 0
2, 109566, Note_on_c, 0, 52, 0
2, 109566, Note_on_c, 0, 72, 0
2, 109566, Note_on_c, 0, 65, 0
2, 109567, Note_on_c, 0, 55, 0
2, 109567, Note_on_c, 0, 79, 0
2, 109568, Note_on_c, 0, 76, 104
2, 109569, Control_c, 0, 64, 0
2, 109570, Note_on_c, 0, 64, 108
2, 109570, Note_on_c, 0, 36, 0
2, 109572, Note_on_c, 0, 77, 0
2, 109597, Note_on_c, 0, 64, 0
2, 109608, Note_on_c, 0, 48, 0
2, 109616, Note_on_c, 0, 76, 0
2, 109767, Note_on_c, 0, 72, 109
2, 109769, Note_on_c, 0, 60, 104
2, 109771, Note_on_c, 0, 64, 103
2, 109775, Note_on_c, 0, 45, 108
2, 109776, Note_on_c, 0, 33, 100
2, 109800, Control_c, 0, 64, 127
2, 109931, Note_on_c, 0, 33, 0
2, 109939, Note_on_c, 0, 33, 89
2, 110031, Note_on_c, 0, 45, 0
2, 110037, Note_on_c, 0, 45, 89
2, 110131, Note_on_c, 0, 33, 0
2, 110140, Note_on_c, 0, 79, 106
2, 110142, Note_on_c, 0, 33, 92
2, 110143, Note_on_c, 0, 67, 101
2, 110315, Note_on_c, 0, 60, 0
2, 110318, Note_on_c, 0, 52, 97
2, 110319, Note_on_c, 0, 60, 101
2, 110323, Note_on_c, 0, 33, 0
2, 110323, Note_on_c, 0, 67, 0
2, 110323, Note_on_c, 0, 72, 0
2, 110323, Note_on_c, 0, 79, 0
2, 110326, Note_on_c, 0, 55, 93
2, 110327, Note_on_c, 0, 79, 104
2, 110329, Note_on_c, 0, 72, 99
2, 110329, Note_on_c, 0, 67, 103
2, 110330, Note_on_c, 0, 33, 88
2, 110332, Note_on_c, 0, 76, 101
2, 110499, Note_on_c, 0, 45, 0
2, 110509, Note_on_c, 0, 45, 78
2, 110510, Note_on_c, 0, 77, 104
2, 110511, Note_on_c, 0, 65, 103
2, 110584, Note_on_c, 0, 33, 0
2, 110592, Note_on_c, 0, 33, 88
2, 110676, Note_on_c, 0, 45, 0
2, 110676, Note_on_c, 0, 64, 0
2, 110676, Note_on_c, 0, 76, 0
2, 110681, Note_on_c, 0, 64, 105
2, 110681, Note_on_c, 0, 76, 102
2, 110683, Note_on_c, 0, 45, 98
2, 110684, Note_on_c, 0, 52, 0
2, 110750, Note_on_c, 0, 67, 0
2, 110750, Note_on_c, 0, 60, 0
2, 110751, Note_on_c, 0, 77, 0
2, 110751, Note_on_c, 0, 33, 0
2, 110751, Note_on_c, 0, 55, 0
2, 110752, Note_on_c, 0, 79, 0
2, 110752, Note_on_c, 0, 72, 0
2, 110753, Note_on_c, 0, 64, 0
2, 110753, Note_on_c, 0, 65, 0
2, 110753, Note_on_c, 0, 45, 0
2, 110753, Note_on_c, 0, 76, 0
2, 110755, Control_c, 0, 64, 0
2, 110865, Note_on_c, 0, 77, 105
2, 110865, Note_on_c, 0, 65, 105
2, 110866, Note_on_c, 0, 74, 103
2, 110870, Note_on_c, 0, 50, 105
2, 110870, Note_on_c, 0, 69, 100
2, 110872, Note_on_c, 0, 38, 97
2, 110899, Control_c, 0, 64, 127
2, 111022, Note_on_c, 0, 65, 0
2, 111052, Note_on_c, 0, 50, 0
2, 111058, Note_on_c, 0, 50, 92
2, 111137, Note_on_c, 0, 69, 0
2, 111147, Note_on_c, 0, 69, 84
2, 111147, Note_on_c, 0, 57, 105
2, 111153, Note_on_c, 0, 53, 92
2, 111229, Note_on_c, 0, 50, 0
2, 111233, Note_on_c, 0, 50, 97
2, 111363, Note_on_c, 0, 77, 0
2, 111363, Note_on_c, 0, 53, 0
2, 111363, Note_on_c, 0, 69, 0
2, 111364, Note_on_c, 0, 74, 0
2, 111365, Note_on_c, 0, 57, 0
2, 111365, Note_on_c, 0, 50, 0
2, 111371, Control_c, 0, 64, 0
2, 111383, Note_on_c, 0, 38, 0
2, 111416, Note_on_c, 0, 48, 102
2, 111417, Note_on_c, 0, 62, 106
2, 111417, Note_on_c, 0, 74, 110
2, 111418, Note_on_c, 0, 36, 96
2, 111459, Control_c, 0, 64, 127
2, 111598, Note_on_c, 0, 67, 98
2, 111599, Note_on_c, 0, 60, 101
2, 111599, Note_on_c, 0, 77, 102
2, 111600, Note_on_c, 0, 55, 99
2, 111602, Note_on_c, 0, 65, 101
2, 111674, Note_on_c, 0, 62, 0
2, 111740, Note_on_c, 0, 60, 0
2, 111740, Note_on_c, 0, 55, 0
2, 111741, Note_on_c, 0, 65, 0
2, 111741, Note_on_c, 0, 77, 0
2, 111744, Control_c, 0, 64, 0
2, 111751, Note_on_c, 0, 36, 0
2, 111751, Note_on_c, 0, 48, 0
2, 111751, Note_on_c, 0, 74, 0
2, 111759, Note_on_c, 0, 67, 0
2, 111777, Note_on_c, 0, 48, 100
2, 111778, Note_on_c, 0, 36, 94
2, 111779, Note_on_c, 0, 62, 105
2, 111779, Note_on_c, 0, 74, 108
2, 111806, Note_on_c, 0, 48, 0
2, 111809, Note_on_c, 0, 62, 0
2, 111810, Note_on_c, 0, 36, 0
2, 111811, Note_on_c, 0, 74, 0
2, 111973, Note_on_c, 0, 81, 107
2, 111977, Note_on_c, 0, 69, 106
2, 111978, Note_on_c, 0, 46, 103
2, 111979, Note_on_c, 0, 74, 102
2, 111982, Note_on_c, 0, 34, 98
2, 112012, Control_c, 0, 64, 127
2, 112135, Note_on_c, 0, 34, 0
2, 112140, Note_on_c, 0, 34, 90
2, 112227, Note_on_c, 0, 46, 0
2, 112233, Note_on_c, 0, 46, 94
2, 112335, Note_on_c, 0, 34, 0
2, 112339, Note_on_c, 0, 34, 94
2, 112525, Note_on_c, 0, 62, 104
2, 112527, Note_on_c, 0, 46, 0
2, 112530, Note_on_c, 0, 58, 97
2, 112530, Note_on_c, 0, 53, 95
2, 112532, Note_on_c, 0, 46, 93
2, 112711, Note_on_c, 0, 34, 0
2, 112716, Note_on_c, 0, 34, 88
2, 112788, Note_on_c, 0, 46, 0
2, 112797, Note_on_c, 0, 46, 92
2, 112896, Note_on_c, 0, 34, 0
2, 112896, Note_on_c, 0, 62, 0
2, 112896, Note_on_c, 0, 74, 0
2, 112902, Note_on_c, 0, 34, 82
2, 112903, Note_on_c, 0, 74, 109
2, 112905, Note_on_c, 0, 62, 101
2, 112967, Note_on_c, 0, 58, 0
2, 112967, Control_c, 0, 64, 0
2, 112968, Note_on_c, 0, 81, 0
2, 112968, Note_on_c, 0, 62, 0
2, 112968, Note_on_c, 0, 69, 0
2, 112969, Note_on_c, 0, 34, 0
2, 112969, Note_on_c, 0, 53, 0
2, 112969, Note_on_c, 0, 46, 0
2, 112970, Note_on_c, 0, 74, 0
2, 113091, Note_on_c, 0, 79, 109
2, 113093, Note_on_c, 0, 67, 105
2, 113094, Note_on_c, 0, 72, 103
2, 113095, Note_on_c, 0, 48, 104
2, 113096, Note_on_c, 0, 76, 104
2, 113100, Note_on_c, 0, 36, 95
2, 113141, Control_c, 0, 64, 127
2, 113256, Note_on_c, 0, 36, 0
2, 113261, Note_on_c, 0, 36, 85
2, 113356, Note_on_c, 0, 48, 0
2, 113361, Note_on_c, 0, 48, 89
2, 113441, Note_on_c, 0, 36, 0
2, 113445, Note_on_c, 0, 36, 88
2, 113617, Note_on_c, 0, 79, 0
2, 113625, Note_on_c, 0, 48, 0
2, 113625, Note_on_c, 0, 67, 0
2, 113627, Note_on_c, 0, 79, 105
2, 113630, Note_on_c, 0, 60, 94
2, 113630, Note_on_c, 0, 52, 96
2, 113631, Note_on_c, 0, 67, 102
2, 113631, Note_on_c, 0, 48, 93
2, 113633, Note_on_c, 0, 55, 94
2, 113809, Note_on_c, 0, 36, 0
2, 113814, Note_on_c, 0, 36, 86
2, 113815, Note_on_c, 0, 81, 106
2, 113817, Note_on_c, 0, 69, 104
2, 113917, Note_on_c, 0, 36, 0
2, 113917, Note_on_c, 0, 48, 0
2, 113924, Note_on_c, 0, 48, 90
2, 113927, Note_on_c, 0, 36, 81
2, 113994, Note_on_c, 0, 82, 104
2, 113995, Note_on_c, 0, 70, 104
2, 114098, Note_on_c, 0, 81, 0
2, 114098, Note_on_c, 0, 82, 0
2, 114098, Note_on_c, 0, 36, 0
2, 114099, Note_on_c, 0, 69, 0
2, 114099, Control_c, 0, 64, 0
2, 114099, Note_on_c, 0, 48, 0
2, 114099, Note_on_c, 0, 76, 0
2, 114100, Note_on_c, 0, 67, 0
2, 114100, Note_on_c, 0, 79, 0
2, 114100, Note_on_c, 0, 72, 0
2, 114100, Note_on_c, 0, 52, 0
2, 114100, Note_on_c, 0, 70, 0
2, 114101, Note_on_c, 0, 55, 0
2, 114101, Note_on_c, 0, 60, 0
2, 114184, Note_on_c, 0, 73, 110
2, 114184, Note_on_c, 0, 85, 107
2, 114187, Note_on_c, 0, 49, 104
2, 114188, Note_on_c, 0, 37, 99
2, 114190, Note_on_c, 0, 76, 99
2, 114201, Control_c, 0, 64, 127
2, 114370, Note_on_c, 0, 49, 0
2, 114375, Note_on_c, 0, 49, 93
2, 114459, Note_on_c, 0, 57, 99
2, 114482, Note_on_c, 0, 52, 80
2, 114562, Note_on_c, 0, 49, 0
2, 114567, Note_on_c, 0, 49, 87
2, 114712, Note_on_c, 0, 52, 0
2, 114712, Note_on_c, 0, 73, 0
2, 114712, Note_on_c, 0, 85, 0
2, 114713, Note_on_c, 0, 49, 0
2, 114713, Note_on_c, 0, 57, 0
2, 114714, Control_c, 0, 64, 0
2, 114723, Note_on_c, 0, 37, 0
2, 114739, Note_on_c, 0, 76, 0
2, 114740, Note_on_c, 0, 82, 105
2, 114742, Note_on_c, 0, 33, 89
2, 114743, Note_on_c, 0, 45, 95
2, 114745, Note_on_c, 0, 70, 105
2, 114746, Note_on_c, 0, 76, 94
2, 114747, Note_on_c, 0, 73, 105
2, 114785, Note_on_c, 0, 33, 0
2, 114792, Control_c, 0, 64, 127
2, 114929, Note_on_c, 0, 57, 101
2, 114934, Note_on_c, 0, 49, 97
2, 115084, Note_on_c, 0, 45, 0
2, 115088, Note_on_c, 0, 45, 90
2, 115096, Note_on_c, 0, 81, 105
2, 115248, Note_on_c, 0, 82, 0
2, 115250, Note_on_c, 0, 76, 0
2, 115250, Note_on_c, 0, 49, 0
2, 115250, Note_on_c, 0, 81, 0
2, 115250, Note_on_c, 0, 73, 0
2, 115251, Note_on_c, 0, 45, 0
2, 115251, Control_c, 0, 64, 0
2, 115251, Note_on_c, 0, 57, 0
2, 115251, Note_on_c, 0, 70, 0
2, 115285, Note_on_c, 0, 79, 106
2, 115289, Note_on_c, 0, 69, 101
2, 115293, Note_on_c, 0, 74, 100
2, 115293, Note_on_c, 0, 50, 103
2, 115295, Note_on_c, 0, 38, 97
2, 115338, Control_c, 0, 64, 127
2, 115470, Note_on_c, 0, 53, 95
2, 115569, Note_on_c, 0, 57, 97
2, 115653, Note_on_c, 0, 62, 101
2, 115660, Note_on_c, 0, 74, 0
2, 115666, Note_on_c, 0, 77, 98
2, 115671, Note_on_c, 0, 74, 87
2, 115837, Note_on_c, 0, 69, 0
2, 115837, Note_on_c, 0, 74, 0
2, 115847, Note_on_c, 0, 74, 110
2, 115847, Note_on_c, 0, 69, 103
2, 115848, Note_on_c, 0, 60, 103
2, 115852, Control_c, 0, 64, 0
2, 115854, Note_on_c, 0, 62, 0
2, 115855, Note_on_c, 0, 53, 0
2, 115855, Note_on_c, 0, 57, 0
2, 115856, Note_on_c, 0, 77, 0
2, 115856, Note_on_c, 0, 79, 0
2, 115860, Note_on_c, 0, 38, 0
2, 115860, Note_on_c, 0, 50, 0
2, 115929, Control_c, 0, 64, 127
2, 115948, Note_on_c, 0, 55, 96
2, 116029, Note_on_c, 0, 60, 0
2, 116042, Note_on_c, 0, 77, 97
2, 116050, Note_on_c, 0, 48, 100
2, 116128, Note_on_c, 0, 43, 97
2, 116206, Note_on_c, 0, 36, 86
2, 116213, Note_on_c, 0, 74, 0
2, 116219, Note_on_c, 0, 74, 106
2, 116357, Note_on_c, 0, 36, 0
2, 116357, Note_on_c, 0, 43, 0
2, 116357, Note_on_c, 0, 77, 0
2, 116358, Control_c, 0, 64, 0
2, 116358, Note_on_c, 0, 48, 0
2, 116358, Note_on_c, 0, 74, 0
2, 116359, Note_on_c, 0, 55, 0
2, 116375, Note_on_c, 0, 69, 0
2, 116418, Note_on_c, 0, 81, 106
2, 116424, Note_on_c, 0, 69, 105
2, 116424, Note_on_c, 0, 74, 101
2, 116425, Note_on_c, 0, 46, 100
2, 116428, Note_on_c, 0, 77, 88
2, 116429, Note_on_c, 0, 34, 94
2, 116451, Control_c, 0, 64, 127
2, 116469, Note_on_c, 0, 34, 0
2, 116490, Note_on_c, 0, 46, 0
2, 116619, Note_on_c, 0, 53, 86
2, 116778, Note_on_c, 0, 58, 90
2, 116951, Note_on_c, 0, 74, 0
2, 116955, Note_on_c, 0, 74, 94
2, 116981, Note_on_c, 0, 77, 0
2, 116987, Note_on_c, 0, 77, 98
2, 116990, Control_c, 0, 64, 0
2, 116991, Note_on_c, 0, 82, 101
2, 116993, Note_on_c, 0, 81, 0
2, 116995, Note_on_c, 0, 86, 106
2, 117003, Note_on_c, 0, 62, 94
2, 117004, Note_on_c, 0, 65, 99
2, 117027, Control_c, 0, 64, 127
2, 117173, Note_on_c, 0, 58, 0
2, 117184, Note_on_c, 0, 58, 83
2, 117327, Note_on_c, 0, 53, 0
2, 117333, Note_on_c, 0, 53, 92
2, 117359, Note_on_c, 0, 84, 101
2, 117527, Note_on_c, 0, 69, 0
2, 117529, Note_on_c, 0, 86, 0
2, 117529, Note_on_c, 0, 77, 0
2, 117529, Note_on_c, 0, 82, 0
2, 117530, Note_on_c, 0, 65, 0
2, 117530, Note_on_c, 0, 62, 0
2, 117530, Note_on_c, 0, 53, 0
2, 117533, Control_c, 0, 64, 0
2, 117542, Note_on_c, 0, 58, 0
2, 117542, Note_on_c, 0, 74, 0
2, 117550, Note_on_c, 0, 84, 0
2, 117551, Note_on_c, 0, 48, 102
2, 117554, Note_on_c, 0, 36, 94
2, 117555, Note_on_c, 0, 84, 104
2, 117559, Note_on_c, 0, 72, 107
2, 117559, Note_on_c, 0, 79, 93
2, 117560, Note_on_c, 0, 76, 95
2, 117603, Control_c, 0, 64, 127
2, 117604, Note_on_c, 0, 36, 0
2, 117753, Note_on_c, 0, 55, 89
2, 117923, Note_on_c, 0, 60, 87
2, 118095, Note_on_c, 0, 72, 0
2, 118095, Note_on_c, 0, 76, 0
2, 118100, Note_on_c, 0, 76, 95
2, 118102, Note_on_c, 0, 74, 98
2, 118103, Note_on_c, 0, 79, 0
2, 118106, Note_on_c, 0, 72, 97
2, 118110, Note_on_c, 0, 64, 98
2, 118114, Note_on_c, 0, 79, 102
2, 118121, Note_on_c, 0, 67, 97
2, 118279, Note_on_c, 0, 60, 0
2, 118284, Note_on_c, 0, 60, 89
2, 118456, Note_on_c, 0, 55, 0
2, 118461, Note_on_c, 0, 55, 95
2, 118475, Note_on_c, 0, 77, 95
2, 118607, Control_c, 0, 64, 0
2, 118607, Note_on_c, 0, 84, 0
2, 118608, Note_on_c, 0, 48, 0
2, 118608, Note_on_c, 0, 67, 0
2, 118609, Note_on_c, 0, 72, 0
2, 118609, Note_on_c, 0, 74, 0
2, 118609, Note_on_c, 0, 79, 0
2, 118609, Note_on_c, 0, 76, 0
2, 118609, Note_on_c, 0, 60, 0
2, 118610, Note_on_c, 0, 64, 0
2, 118610, Note_on_c, 0, 77, 0
2, 118611, Note_on_c, 0, 55, 0
2, 118670, Note_on_c, 0, 76, 103
2, 118675, Note_on_c, 0, 37, 92
2, 118675, Note_on_c, 0, 49, 95
2, 118679, Note_on_c, 0, 73, 100
2, 118681, Note_on_c, 0, 69, 92
2, 118709, Control_c, 0, 64, 127
2, 118885, Note_on_c, 0, 52, 70
2, 119038, Note_on_c, 0, 57, 98
2, 119231, Control_c, 0, 64, 0
2, 119232, Note_on_c, 0, 73, 0
2, 119232, Note_on_c, 0, 76, 0
2, 119236, Note_on_c, 0, 82, 100
2, 119237, Note_on_c, 0, 76, 95
2, 119240, Note_on_c, 0, 70, 100
2, 119240, Note_on_c, 0, 73, 102
2, 119240, Note_on_c, 0, 61, 94
2, 119242, Note_on_c, 0, 64, 94
2, 119245, Note_on_c, 0, 69, 0
2, 119248, Note_on_c, 0, 49, 0
2, 119249, Note_on_c, 0, 57, 0
2, 119278, Note_on_c, 0, 37, 0
2, 119301, Control_c, 0, 64, 127
2, 119403, Note_on_c, 0, 57, 93
2, 119562, Note_on_c, 0, 52, 0
2, 119572, Note_on_c, 0, 52, 83
2, 119604, Note_on_c, 0, 81, 103
2, 119755, Note_on_c, 0, 64, 0
2, 119756, Note_on_c, 0, 52, 0
2, 119757, Note_on_c, 0, 61, 0
2, 119757, Note_on_c, 0, 57, 0
2, 119757, Note_on_c, 0, 70, 0
2, 119758, Control_c, 0, 64, 0
2, 119769, Note_on_c, 0, 76, 0
2, 119769, Note_on_c, 0, 81, 0
2, 119776, Note_on_c, 0, 38, 93
2, 119777, Note_on_c, 0, 73, 0
2, 119777, Note_on_c, 0, 82, 0
2, 119778, Note_on_c, 0, 50, 98
2, 119778, Note_on_c, 0, 81, 101
2, 119782, Note_on_c, 0, 69, 102
2, 119788, Note_on_c, 0, 74, 97
2, 119788, Note_on_c, 0, 77, 91
2, 119854, Control_c, 0, 64, 127
2, 119981, Note_on_c, 0, 53, 85
2, 120150, Note_on_c, 0, 57, 98
2, 120330, Note_on_c, 0, 74, 0
2, 120330, Note_on_c, 0, 77, 0
2, 120334, Note_on_c, 0, 77, 103
2, 120337, Note_on_c, 0, 69, 0
2, 120341, Note_on_c, 0, 74, 100
2, 120342, Note_on_c, 0, 69, 97
2, 120344, Note_on_c, 0, 62, 96
2, 120345, Control_c, 0, 64, 0
2, 120346, Note_on_c, 0, 65, 98
2, 120430, Control_c, 0, 64, 127
2, 120506, Note_on_c, 0, 57, 0
2, 120515, Note_on_c, 0, 57, 93
2, 120675, Note_on_c, 0, 38, 0
2, 120675, Note_on_c, 0, 53, 0
2, 120685, Note_on_c, 0, 53, 97
2, 120707, Note_on_c, 0, 76, 98
2, 120873, Control_c, 0, 64, 0
2, 120874, Note_on_c, 0, 50, 0
2, 120874, Note_on_c, 0, 57, 0
2, 120875, Note_on_c, 0, 53, 0
2, 120875, Note_on_c, 0, 62, 0
2, 120876, Note_on_c, 0, 69, 0
2, 120878, Note_on_c, 0, 76, 0
2, 120878, Note_on_c, 0, 77, 0
2, 120878, Note_on_c, 0, 81, 0
2, 120898, Note_on_c, 0, 74, 0
2, 120900, Note_on_c, 0, 43, 96
2, 120900, Note_on_c, 0, 31, 92
2, 120908, Note_on_c, 0, 74, 108
2, 120913, Note_on_c, 0, 65, 0
2, 120918, Note_on_c, 0, 65, 91
2, 120924, Note_on_c, 0, 70, 93
2, 120947, Note_on_c, 0, 43, 0
2, 120950, Note_on_c, 0, 31, 0
2, 121092, Note_on_c, 0, 43, 101
2, 121093, Note_on_c, 0, 31, 92
2, 121139, Note_on_c, 0, 43, 0
2, 121198, Note_on_c, 0, 31, 0
2, 121259, Control_c, 0, 64, 127
2, 121269, Note_on_c, 0, 43, 100
2, 121270, Note_on_c, 0, 31, 88
2, 121466, Note_on_c, 0, 65, 0
2, 121466, Note_on_c, 0, 70, 0
2, 121466, Note_on_c, 0, 74, 0
2, 121470, Note_on_c, 0, 77, 103
2, 121471, Note_on_c, 0, 62, 103
2, 121472, Note_on_c, 0, 74, 107
2, 121472, Note_on_c, 0, 65, 101
2, 121472, Note_on_c, 0, 58, 99
2, 121473, Note_on_c, 0, 70, 100
2, 121732, Note_on_c, 0, 55, 96
2, 121820, Note_on_c, 0, 62, 0
2, 121827, Note_on_c, 0, 58, 0
2, 121827, Note_on_c, 0, 74, 0
2, 121831, Note_on_c, 0, 62, 103
2, 121831, Note_on_c, 0, 76, 105
2, 121832, Note_on_c, 0, 58, 92
2, 121832, Note_on_c, 0, 74, 98
2, 121947, Control_c, 0, 64, 0
2, 121948, Note_on_c, 0, 31, 0
2, 121949, Note_on_c, 0, 58, 0
2, 121949, Note_on_c, 0, 43, 0
2, 121950, Note_on_c, 0, 65, 0
2, 121950, Note_on_c, 0, 62, 0
2, 121950, Note_on_c, 0, 74, 0
2, 121951, Note_on_c, 0, 55, 0
2, 121951, Note_on_c, 0, 70, 0
2, 121952, Note_on_c, 0, 77, 0
2, 121954, Note_on_c, 0, 76, 0
2, 122041, Note_on_c, 0, 74, 109
2, 122046, Note_on_c, 0, 48, 103
2, 122047, Note_on_c, 0, 36, 95
2, 122047, Note_on_c, 0, 67, 99
2, 122051, Note_on_c, 0, 72, 105
2, 122084, Note_on_c, 0, 36, 0
2, 122084, Note_on_c, 0, 48, 0
2, 122230, Note_on_c, 0, 48, 104
2, 122231, Note_on_c, 0, 36, 96
2, 122273, Note_on_c, 0, 36, 0
2, 122274, Note_on_c, 0, 48, 0
2, 122296, Note_on_c, 0, 67, 0
2, 122350, Note_on_c, 0, 74, 0
2, 122415, Note_on_c, 0, 48, 99
2, 122416, Note_on_c, 0, 36, 95
2, 122442, Control_c, 0, 64, 127
2, 122588, Note_on_c, 0, 72, 0
2, 122598, Note_on_c, 0, 72, 108
2, 122599, Note_on_c, 0, 64, 104
2, 122599, Note_on_c, 0, 74, 107
2, 122599, Note_on_c, 0, 60, 105
2, 122599, Note_on_c, 0, 67, 101
2, 122600, Note_on_c, 0, 55, 104
2, 122864, Note_on_c, 0, 55, 0
2, 122874, Note_on_c, 0, 55, 96
2, 122941, Note_on_c, 0, 60, 0
2, 122941, Note_on_c, 0, 64, 0
2, 122941, Note_on_c, 0, 72, 0
2, 122945, Note_on_c, 0, 64, 104
2, 122947, Note_on_c, 0, 60, 97
2, 122948, Note_on_c, 0, 72, 89
2, 122951, Note_on_c, 0, 76, 103
2, 123099, Control_c, 0, 64, 0
2, 123099, Note_on_c, 0, 48, 0
2, 123100, Note_on_c, 0, 60, 0
2, 123101, Note_on_c, 0, 67, 0
2, 123101, Note_on_c, 0, 74, 0
2, 123102, Note_on_c, 0, 64, 0
2, 123102, Note_on_c, 0, 72, 0
2, 123104, Note_on_c, 0, 55, 0
2, 123104, Note_on_c, 0, 76, 0
2, 123118, Note_on_c, 0, 36, 0
2, 123146, Note_on_c, 0, 50, 108
2, 123149, Note_on_c, 0, 74, 109
2, 123151, Note_on_c, 0, 38, 102
2, 123151, Note_on_c, 0, 62, 106
2, 123202, Control_c, 0, 64, 127
2, 123324, Note_on_c, 0, 26, 90
2, 123517, Note_on_c, 0, 38, 0
2, 123517, Note_on_c, 0, 50, 0
2, 123522, Note_on_c, 0, 50, 92
2, 123528, Note_on_c, 0, 38, 79
2, 123698, Note_on_c, 0, 26, 0
2, 123701, Control_c, 0, 64, 0
2, 123704, Note_on_c, 0, 38, 0
2, 123704, Note_on_c, 0, 50, 0
2, 123704, Note_on_c, 0, 74, 0
2, 123713, Note_on_c, 0, 52, 100
2, 123713, Note_on_c, 0, 40, 99
2, 123724, Note_on_c, 0, 62, 0
2, 123793, Control_c, 0, 64, 127
2, 123889, Note_on_c, 0, 28, 91
2, 124078, Note_on_c, 0, 52, 0
2, 124085, Note_on_c, 0, 40, 0
2, 124086, Note_on_c, 0, 52, 98
2, 124091, Note_on_c, 0, 40, 80
2, 124234, Note_on_c, 0, 28, 0
2, 124234, Control_c, 0, 64, 0
2, 124239, Note_on_c, 0, 40, 0
2, 124241, Note_on_c, 0, 52, 0
2, 124267, Note_on_c, 0, 53, 105
2, 124269, Note_on_c, 0, 41, 104
2, 124339, Control_c, 0, 64, 127
2, 124431, Note_on_c, 0, 41, 0
2, 124439, Note_on_c, 0, 29, 93
2, 124440, Note_on_c, 0, 41, 81
2, 124623, Note_on_c, 0, 53, 0
2, 124630, Note_on_c, 0, 53, 101
2, 124774, Note_on_c, 0, 29, 0
2, 124775, Note_on_c, 0, 41, 0
2, 124775, Note_on_c, 0, 53, 0
2, 124781, Control_c, 0, 64, 0
2, 124813, Note_on_c, 0, 55, 105
2, 124817, Note_on_c, 0, 43, 104
2, 124820, Note_on_c, 0, 69, 105
2, 124823, Note_on_c, 0, 65, 95
2, 124852, Note_on_c, 0, 55, 0
2, 124876, Control_c, 0, 64, 127
2, 124996, Note_on_c, 0, 31, 89
2, 125186, Note_on_c, 0, 76, 105
2, 125188, Note_on_c, 0, 64, 105
2, 125190, Note_on_c, 0, 45, 98
2, 125193, Note_on_c, 0, 33, 85
2, 125338, Note_on_c, 0, 31, 0
2, 125342, Note_on_c, 0, 69, 0
2, 125342, Note_on_c, 0, 33, 0
2, 125342, Note_on_c, 0, 65, 0
2, 125342, Note_on_c, 0, 64, 0
2, 125342, Control_c, 0, 64, 0
2, 125343, Note_on_c, 0, 76, 0
2, 125343, Note_on_c, 0, 45, 0
2, 125352, Note_on_c, 0, 43, 0
2, 125379, Note_on_c, 0, 74, 110
2, 125380, Note_on_c, 0, 62, 104
2, 125384, Note_on_c, 0, 46, 103
2, 125385, Note_on_c, 0, 70, 100
2, 125386, Note_on_c, 0, 65, 99
2, 125387, Note_on_c, 0, 34, 95
2, 125411, Note_on_c, 0, 46, 0
2, 125429, Control_c, 0, 64, 127
2, 125460, Note_on_c, 0, 34, 0
2, 125483, Note_on_c, 0, 62, 0
2, 125706, Note_on_c, 0, 65, 0
2, 125733, Control_c, 0, 64, 0
2, 125744, Note_on_c, 0, 70, 0
2, 125760, Note_on_c, 0, 74, 0
2, 125765, Note_on_c, 0, 74, 109
2, 125768, Note_on_c, 0, 62, 104
2, 125803, Note_on_c, 0, 74, 0
2, 125829, Note_on_c, 0, 62, 0
2, 125947, Note_on_c, 0, 77, 105
2, 125947, Note_on_c, 0, 65, 102
2, 126013, Note_on_c, 0, 65, 0
2, 126051, Control_c, 0, 64, 127
2, 126306, Note_on_c, 0, 81, 109
2, 126309, Note_on_c, 0, 69, 106
2, 126321, Note_on_c, 0, 46, 96
2, 126323, Note_on_c, 0, 34, 90
2, 126366, Note_on_c, 0, 77, 0
2, 126368, Note_on_c, 0, 34, 0
2, 126390, Control_c, 0, 64, 0
2, 126405, Note_on_c, 0, 46, 0
2, 126405, Note_on_c, 0, 69, 0
2, 126435, Note_on_c, 0, 81, 0
2, 126513, Note_on_c, 0, 79, 109
2, 126517, Note_on_c, 0, 72, 104
2, 126517, Note_on_c, 0, 48, 106
2, 126517, Note_on_c, 0, 76, 105
2, 126521, Note_on_c, 0, 36, 98
2, 126551, Control_c, 0, 64, 127
2, 126884, Control_c, 0, 64, 0
2, 126890, Note_on_c, 0, 36, 0
2, 126894, Note_on_c, 0, 48, 0
2, 126895, Note_on_c, 0, 76, 0
2, 126895, Note_on_c, 0, 72, 0
2, 126896, Note_on_c, 0, 79, 0
2, 127107, Note_on_c, 0, 84, 108
2, 127107, Note_on_c, 0, 72, 109
2, 127108, Note_on_c, 0, 79, 105
2, 127109, Note_on_c, 0, 76, 104
2, 127196, Control_c, 0, 64, 127
2, 127326, Note_on_c, 0, 72, 0
2, 127468, Note_on_c, 0, 69, 102
2, 127469, Note_on_c, 0, 81, 102
2, 127687, Note_on_c, 0, 81, 0
2, 127694, Note_on_c, 0, 86, 110
2, 127696, Note_on_c, 0, 77, 98
2, 127697, Note_on_c, 0, 74, 109
2, 127698, Note_on_c, 0, 46, 99
2, 127698, Note_on_c, 0, 81, 104
2, 127699, Note_on_c, 0, 34, 88
2, 127703, Note_on_c, 0, 79, 0
2, 127704, Note_on_c, 0, 84, 0
2, 127718, Control_c, 0, 64, 0
2, 127726, Note_on_c, 0, 76, 0
2, 127749, Note_on_c, 0, 69, 0
2, 128286, Note_on_c, 0, 86, 0
2, 128291, Note_on_c, 0, 86, 92
2, 128474, Note_on_c, 0, 79, 81
2, 128640, Control_c, 0, 64, 127
2, 128647, Note_on_c, 0, 81, 0
2, 128656, Note_on_c, 0, 81, 85
2, 128839, Note_on_c, 0, 86, 0
2, 128845, Note_on_c, 0, 86, 95
2, 129024, Note_on_c, 0, 79, 0
2, 129028, Note_on_c, 0, 79, 81
2, 129208, Note_on_c, 0, 81, 0
2, 129218, Note_on_c, 0, 81, 84
2, 129392, Note_on_c, 0, 86, 0
2, 129397, Note_on_c, 0, 86, 96
2, 129592, Note_on_c, 0, 79, 0
2, 129597, Note_on_c, 0, 79, 83
2, 129768, Note_on_c, 0, 81, 0
2, 129773, Note_on_c, 0, 81, 83
2, 129964, Note_on_c, 0, 52, 80
2, 129968, Note_on_c, 0, 86, 0
2, 129972, Note_on_c, 0, 36, 80
2, 129972, Note_on_c, 0, 43, 81
2, 129972, Note_on_c, 0, 86, 92
2, 129976, Note_on_c, 0, 34, 0
2, 129984, Note_on_c, 0, 77, 0
2, 129992, Note_on_c, 0, 46, 0
2, 129994, Note_on_c, 0, 74, 0
2, 129995, Note_on_c, 0, 81, 0
2, 129995, Note_on_c, 0, 79, 0
2, 129996, Control_c, 0, 64, 0
2, 130068, Control_c, 0, 64, 127
2, 130171, Note_on_c, 0, 79, 78
2, 130349, Note_on_c, 0, 81, 82
2, 130521, Note_on_c, 0, 86, 0
2, 130532, Note_on_c, 0, 86, 93
2, 130721, Note_on_c, 0, 79, 0
2, 130725, Note_on_c, 0, 79, 81
2, 130897, Note_on_c, 0, 81, 0
2, 130907, Note_on_c, 0, 81, 83
2, 131089, Note_on_c, 0, 86, 0
2, 131094, Note_on_c, 0, 67, 92
2, 131095, Note_on_c, 0, 64, 89
2, 131096, Note_on_c, 0, 86, 93
2, 131099, Note_on_c, 0, 60, 84
2, 131108, Note_on_c, 0, 83, 73
2, 131266, Note_on_c, 0, 79, 0
2, 131271, Note_on_c, 0, 79, 79
2, 131450, Note_on_c, 0, 81, 0
2, 131461, Note_on_c, 0, 81, 87
2, 131653, Note_on_c, 0, 88, 105
2, 131654, Note_on_c, 0, 72, 98
2, 131658, Note_on_c, 0, 67, 0
2, 131661, Note_on_c, 0, 76, 102
2, 131665, Note_on_c, 0, 64, 0
2, 131669, Note_on_c, 0, 67, 83
2, 131670, Note_on_c, 0, 64, 92
2, 131680, Control_c, 0, 64, 0
2, 131719, Control_c, 0, 64, 127
2, 131850, Note_on_c, 0, 79, 0
2, 131855, Note_on_c, 0, 79, 89
2, 132042, Note_on_c, 0, 81, 0
2, 132047, Note_on_c, 0, 81, 84
2, 132218, Note_on_c, 0, 52, 0
2, 132218, Note_on_c, 0, 60, 0
2, 132218, Note_on_c, 0, 72, 0
2, 132224, Note_on_c, 0, 84, 104
2, 132226, Note_on_c, 0, 60, 94
2, 132226, Note_on_c, 0, 72, 103
2, 132229, Note_on_c, 0, 52, 87
2, 132229, Note_on_c, 0, 45, 88
2, 132271, Control_c, 0, 64, 0
2, 132278, Note_on_c, 0, 67, 0
2, 132278, Note_on_c, 0, 64, 0
2, 132279, Note_on_c, 0, 86, 0
2, 132279, Note_on_c, 0, 79, 0
2, 132280, Note_on_c, 0, 76, 0
2, 132280, Note_on_c, 0, 81, 0
2, 132280, Note_on_c, 0, 36, 0
2, 132281, Note_on_c, 0, 43, 0
2, 132288, Note_on_c, 0, 83, 0
2, 132303, Control_c, 0, 64, 127
2, 132410, Note_on_c, 0, 79, 85
2, 132410, Note_on_c, 0, 88, 0
2, 132604, Note_on_c, 0, 81, 88
2, 132794, Note_on_c, 0, 84, 0
2, 132803, Note_on_c, 0, 84, 91
2, 132971, Note_on_c, 0, 79, 0
2, 132978, Note_on_c, 0, 79, 86
2, 133155, Note_on_c, 0, 81, 0
2, 133161, Note_on_c, 0, 81, 87
2, 133332, Note_on_c, 0, 84, 0
2, 133339, Note_on_c, 0, 64, 85
2, 133341, Note_on_c, 0, 84, 92
2, 133355, Note_on_c, 0, 60, 0
2, 133365, Note_on_c, 0, 60, 78
2, 133383, Control_c, 0, 64, 0
2, 133409, Control_c, 0, 64, 127
2, 133532, Note_on_c, 0, 79, 0
2, 133538, Note_on_c, 0, 79, 91
2, 133639, Note_on_c, 0, 45, 0
2, 133701, Note_on_c, 0, 81, 0
2, 133707, Note_on_c, 0, 81, 93
2, 133893, Note_on_c, 0, 64, 0
2, 133893, Note_on_c, 0, 84, 0
2, 133896, Note_on_c, 0, 84, 97
2, 133897, Note_on_c, 0, 64, 88
2, 133897, Note_on_c, 0, 67, 85
2, 134069, Note_on_c, 0, 79, 0
2, 134081, Note_on_c, 0, 79, 94
2, 134254, Note_on_c, 0, 81, 0
2, 134258, Note_on_c, 0, 81, 96
2, 134446, Note_on_c, 0, 81, 0
2, 134446, Note_on_c, 0, 84, 0
2, 134452, Note_on_c, 0, 81, 98
2, 134456, Note_on_c, 0, 84, 99
2, 134457, Note_on_c, 0, 65, 87
2, 134459, Note_on_c, 0, 57, 85
2, 134464, Note_on_c, 0, 50, 80
2, 134465, Control_c, 0, 64, 0
2, 134480, Note_on_c, 0, 79, 0
2, 134480, Note_on_c, 0, 64, 0
2, 134480, Note_on_c, 0, 67, 0
2, 134484, Note_on_c, 0, 72, 0
2, 134492, Note_on_c, 0, 52, 0
2, 134515, Note_on_c, 0, 60, 0
2, 134530, Control_c, 0, 64, 127
2, 134631, Note_on_c, 0, 82, 94
2, 134646, Note_on_c, 0, 79, 90
2, 134807, Note_on_c, 0, 81, 0
2, 134811, Note_on_c, 0, 81, 98
2, 134820, Note_on_c, 0, 77, 91
2, 134983, Note_on_c, 0, 79, 0
2, 134993, Note_on_c, 0, 79, 99
2, 135013, Note_on_c, 0, 76, 87
2, 135168, Note_on_c, 0, 77, 0
2, 135172, Note_on_c, 0, 77, 93
2, 135179, Note_on_c, 0, 74, 90
2, 135352, Note_on_c, 0, 76, 0
2, 135362, Note_on_c, 0, 76, 94
2, 135363, Note_on_c, 0, 72, 92
2, 135536, Note_on_c, 0, 81, 0
2, 135542, Note_on_c, 0, 81, 101
2, 135544, Note_on_c, 0, 65, 0
2, 135544, Note_on_c, 0, 77, 0
2, 135549, Note_on_c, 0, 77, 90
2, 135549, Note_on_c, 0, 65, 86
2, 135713, Note_on_c, 0, 79, 0
2, 135724, Note_on_c, 0, 79, 94
2, 135728, Note_on_c, 0, 76, 0
2, 135733, Note_on_c, 0, 76, 87
2, 135897, Note_on_c, 0, 77, 0
2, 135905, Note_on_c, 0, 74, 0
2, 135905, Note_on_c, 0, 77, 93
2, 135909, Note_on_c, 0, 74, 93
2, 136081, Note_on_c, 0, 79, 0
2, 136089, Note_on_c, 0, 76, 0
2, 136092, Note_on_c, 0, 79, 96
2, 136093, Note_on_c, 0, 48, 82
2, 136093, Note_on_c, 0, 64, 88
2, 136094, Note_on_c, 0, 76, 89
2, 136120, Control_c, 0, 64, 0
2, 136123, Note_on_c, 0, 72, 0
2, 136124, Note_on_c, 0, 50, 0
2, 136124, Note_on_c, 0, 82, 0
2, 136124, Note_on_c, 0, 65, 0
2, 136124, Note_on_c, 0, 57, 0
2, 136124, Note_on_c, 0, 74, 0
2, 136124, Note_on_c, 0, 77, 0
2, 136151, Note_on_c, 0, 84, 0
2, 136212, Control_c, 0, 64, 127
2, 136281, Note_on_c, 0, 77, 90
2, 136286, Note_on_c, 0, 74, 89
2, 136450, Note_on_c, 0, 76, 0
2, 136455, Note_on_c, 0, 76, 93
2, 136460, Note_on_c, 0, 72, 90
2, 136650, Note_on_c, 0, 74, 0
2, 136654, Note_on_c, 0, 86, 101
2, 136660, Note_on_c, 0, 74, 95
2, 136661, Note_on_c, 0, 53, 80
2, 136662, Note_on_c, 0, 46, 80
2, 136668, Note_on_c, 0, 58, 86
2, 136669, Note_on_c, 0, 64, 0
2, 136669, Note_on_c, 0, 76, 0
2, 136670, Note_on_c, 0, 72, 0
2, 136670, Note_on_c, 0, 48, 0
2, 136670, Note_on_c, 0, 77, 0
2, 136678, Control_c, 0, 64, 0
2, 136688, Note_on_c, 0, 79, 0
2, 136688, Note_on_c, 0, 81, 0
2, 136750, Control_c, 0, 64, 127
2, 136860, Note_on_c, 0, 79, 85
2, 137024, Note_on_c, 0, 81, 92
2, 137203, Note_on_c, 0, 86, 0
2, 137207, Note_on_c, 0, 86, 96
2, 137387, Note_on_c, 0, 79, 0
2, 137394, Note_on_c, 0, 79, 85
2, 137564, Note_on_c, 0, 81, 0
2, 137575, Note_on_c, 0, 81, 88
2, 137756, Note_on_c, 0, 86, 0
2, 137763, Note_on_c, 0, 58, 0
2, 137766, Note_on_c, 0, 86, 95
2, 137768, Note_on_c, 0, 62, 70
2, 137773, Note_on_c, 0, 58, 69
2, 137948, Note_on_c, 0, 79, 0
2, 137955, Note_on_c, 0, 79, 84
2, 138132, Note_on_c, 0, 81, 0
2, 138143, Note_on_c, 0, 81, 90
2, 138317, Note_on_c, 0, 88, 101
2, 138323, Note_on_c, 0, 76, 92
2, 138516, Note_on_c, 0, 79, 0
2, 138521, Note_on_c, 0, 79, 87
2, 138693, Note_on_c, 0, 81, 0
2, 138698, Note_on_c, 0, 81, 89
2, 138877, Note_on_c, 0, 74, 0
2, 138877, Note_on_c, 0, 86, 0
2, 138887, Note_on_c, 0, 86, 101
2, 138888, Note_on_c, 0, 74, 94
2, 138890, Note_on_c, 0, 48, 79
2, 138892, Note_on_c, 0, 62, 0
2, 138896, Note_on_c, 0, 60, 77
2, 138897, Note_on_c, 0, 62, 80
2, 138898, Note_on_c, 0, 55, 72
2, 138916, Note_on_c, 0, 53, 0
2, 138917, Note_on_c, 0, 79, 0
2, 138918, Note_on_c, 0, 46, 0
2, 138918, Note_on_c, 0, 81, 0
2, 138919, Note_on_c, 0, 76, 0
2, 138921, Control_c, 0, 64, 0
2, 138938, Note_on_c, 0, 88, 0
2, 138946, Note_on_c, 0, 58, 0
2, 139023, Control_c, 0, 64, 127
2, 139054, Note_on_c, 0, 74, 0
2, 139082, Note_on_c, 0, 79, 86
2, 139254, Note_on_c, 0, 81, 84
2, 139438, Note_on_c, 0, 55, 0
2, 139438, Note_on_c, 0, 86, 0
2, 139444, Note_on_c, 0, 55, 70
2, 139447, Note_on_c, 0, 86, 96
2, 139630, Note_on_c, 0, 79, 0
2, 139639, Note_on_c, 0, 79, 87
2, 139814, Note_on_c, 0, 81, 0
2, 139818, Note_on_c, 0, 81, 91
2, 139998, Note_on_c, 0, 60, 0
2, 139998, Note_on_c, 0, 86, 0
2, 140004, Note_on_c, 0, 86, 94
2, 140004, Note_on_c, 0, 64, 80
2, 140009, Note_on_c, 0, 60, 75
2, 140167, Note_on_c, 0, 79, 0
2, 140178, Note_on_c, 0, 79, 79
2, 140352, Note_on_c, 0, 81, 0
2, 140360, Note_on_c, 0, 81, 88
2, 140536, Note_on_c, 0, 62, 0
2, 140556, Note_on_c, 0, 88, 97
2, 140558, Note_on_c, 0, 76, 94
2, 140743, Note_on_c, 0, 79, 0
2, 140751, Note_on_c, 0, 79, 89
2, 140908, Note_on_c, 0, 89, 98
2, 140908, Note_on_c, 0, 77, 88
2, 140997, Note_on_c, 0, 76, 0
2, 140997, Note_on_c, 0, 88, 0
2, 141005, Note_on_c, 0, 88, 94
2, 141007, Note_on_c, 0, 76, 88
2, 141104, Note_on_c, 0, 86, 0
2, 141109, Note_on_c, 0, 86, 99
2, 141115, Note_on_c, 0, 74, 93
2, 141115, Note_on_c, 0, 50, 91
2, 141147, Note_on_c, 0, 60, 0
2, 141147, Note_on_c, 0, 48, 0
2, 141147, Note_on_c, 0, 81, 0
2, 141147, Note_on_c, 0, 79, 0
2, 141148, Note_on_c, 0, 76, 0
2, 141148, Note_on_c, 0, 64, 0
2, 141148, Note_on_c, 0, 88, 0
2, 141148, Note_on_c, 0, 89, 0
2, 141148, Control_c, 0, 64, 0
2, 141148, Note_on_c, 0, 55, 0
2, 141149, Note_on_c, 0, 77, 0
2, 141250, Control_c, 0, 64, 127
2, 141299, Note_on_c, 0, 79, 88
2, 141499, Note_on_c, 0, 81, 80
2, 141678, Note_on_c, 0, 69, 65
2, 141679, Note_on_c, 0, 62, 68
2, 141680, Note_on_c, 0, 86, 0
2, 141684, Note_on_c, 0, 57, 64
2, 141684, Note_on_c, 0, 86, 87
2, 141688, Note_on_c, 0, 69, 0
2, 141872, Note_on_c, 0, 79, 0
2, 141883, Note_on_c, 0, 79, 73
2, 142056, Note_on_c, 0, 81, 0
2, 142061, Note_on_c, 0, 81, 71
2, 142237, Note_on_c, 0, 88, 93
2, 142260, Note_on_c, 0, 64, 71
2, 142260, Note_on_c, 0, 76, 73
2, 142440, Note_on_c, 0, 79, 0
2, 142449, Note_on_c, 0, 79, 69
2, 142625, Note_on_c, 0, 81, 0
2, 142636, Note_on_c, 0, 81, 83
2, 142808, Note_on_c, 0, 67, 61
2, 142809, Note_on_c, 0, 50, 0
2, 142809, Note_on_c, 0, 88, 0
2, 142818, Note_on_c, 0, 88, 81
2, 143001, Note_on_c, 0, 79, 0
2, 143011, Note_on_c, 0, 79, 72
2, 143185, Note_on_c, 0, 81, 0
2, 143197, Note_on_c, 0, 81, 86
2, 143377, Note_on_c, 0, 62, 0
2, 143382, Note_on_c, 0, 62, 69
2, 143408, Note_on_c, 0, 81, 0
2, 143412, Note_on_c, 0, 89, 87
2, 143412, Note_on_c, 0, 77, 73
2, 143419, Note_on_c, 0, 81, 83
2, 143567, Note_on_c, 0, 69, 62
2, 143746, Note_on_c, 0, 67, 0
2, 143755, Note_on_c, 0, 67, 74
2, 143930, Note_on_c, 0, 79, 0
2, 143941, Note_on_c, 0, 72, 79
2, 143941, Note_on_c, 0, 91, 91
2, 143942, Note_on_c, 0, 79, 88
2, 144000, Note_on_c, 0, 74, 0
2, 144099, Note_on_c, 0, 69, 0
2, 144111, Note_on_c, 0, 69, 68
2, 144297, Note_on_c, 0, 74, 73
2, 144483, Note_on_c, 0, 72, 0
2, 144491, Note_on_c, 0, 81, 0
2, 144494, Note_on_c, 0, 72, 73
2, 144496, Note_on_c, 0, 81, 90
2, 144496, Note_on_c, 0, 93, 86
2, 144668, Note_on_c, 0, 76, 0
2, 144679, Note_on_c, 0, 76, 72
2, 144844, Note_on_c, 0, 74, 0
2, 144853, Note_on_c, 0, 74, 78
2, 145029, Note_on_c, 0, 79, 0
2, 145033, Note_on_c, 0, 79, 78
2, 145044, Note_on_c, 0, 88, 0
2, 145047, Note_on_c, 0, 100, 96
2, 145054, Note_on_c, 0, 88, 86
2, 145236, Note_on_c, 0, 76, 0
2, 145240, Note_on_c, 0, 76, 69
2, 145390, Note_on_c, 0, 81, 0
2, 145400, Note_on_c, 0, 81, 85
2, 145586, Note_on_c, 0, 101, 107
2, 145597, Note_on_c, 0, 86, 0
2, 145597, Note_on_c, 0, 89, 0
2, 145602, Note_on_c, 0, 64, 0
2, 145602, Control_c, 0, 64, 0
2, 145602, Note_on_c, 0, 76, 0
2, 145602, Note_on_c, 0, 57, 0
2, 145603, Note_on_c, 0, 62, 0
2, 145603, Note_on_c, 0, 74, 0
2, 145604, Note_on_c, 0, 67, 0
2, 145604, Note_on_c, 0, 69, 0
2, 145605, Note_on_c, 0, 91, 0
2, 145605, Note_on_c, 0, 77, 0
2, 145605, Note_on_c, 0, 79, 0
2, 145607, Note_on_c, 0, 81, 0
2, 145607, Note_on_c, 0, 72, 0
2, 145607, Note_on_c, 0, 89, 89
2, 145609, Note_on_c, 0, 58, 72
2, 145612, Note_on_c, 0, 93, 0
2, 145643, Control_c, 0, 64, 127
2, 145784, Note_on_c, 0, 79, 80
2, 145787, Note_on_c, 0, 65, 64
2, 145982, Note_on_c, 0, 81, 79
2, 145985, Note_on_c, 0, 70, 70
2, 146150, Note_on_c, 0, 72, 81
2, 146152, Note_on_c, 0, 84, 86
2, 146332, Note_on_c, 0, 86, 88
2, 146335, Note_on_c, 0, 74, 73
2, 146496, Note_on_c, 0, 65, 0
2, 146505, Note_on_c, 0, 65, 70
2, 146680, Note_on_c, 0, 81, 0
2, 146690, Note_on_c, 0, 81, 79
2, 146864, Note_on_c, 0, 70, 0
2, 146864, Note_on_c, 0, 79, 0
2, 146871, Note_on_c, 0, 79, 83
2, 146873, Control_c, 0, 64, 0
2, 146873, Note_on_c, 0, 70, 76
2, 146887, Control_c, 0, 64, 127
2, 147048, Note_on_c, 0, 74, 0
2, 147048, Note_on_c, 0, 81, 0
2, 147054, Note_on_c, 0, 81, 89
2, 147056, Note_on_c, 0, 74, 75
2, 147202, Note_on_c, 0, 100, 0
2, 147210, Note_on_c, 0, 84, 0
2, 147210, Note_on_c, 0, 88, 0
2, 147212, Note_on_c, 0, 100, 104
2, 147214, Note_on_c, 0, 88, 96
2, 147221, Note_on_c, 0, 84, 88
2, 147394, Note_on_c, 0, 86, 0
2, 147398, Note_on_c, 0, 86, 95
2, 147555, Note_on_c, 0, 79, 0
2, 147564, Note_on_c, 0, 79, 85
2, 147751, Note_on_c, 0, 81, 0
2, 147751, Control_c, 0, 64, 0
2, 147752, Note_on_c, 0, 65, 0
2, 147752, Note_on_c, 0, 70, 0
2, 147752, Note_on_c, 0, 58, 0
2, 147752, Note_on_c, 0, 86, 0
2, 147752, Note_on_c, 0, 74, 0
2, 147752, Note_on_c, 0, 72, 0
2, 147752, Note_on_c, 0, 88, 0
2, 147753, Note_on_c, 0, 79, 0
2, 147755, Note_on_c, 0, 101, 0
2, 147759, Note_on_c, 0, 101, 108
2, 147763, Note_on_c, 0, 84, 0
2, 147763, Note_on_c, 0, 89, 0
2, 147764, Note_on_c, 0, 60, 81
2, 147770, Note_on_c, 0, 89, 97
2, 147770, Control_c, 0, 64, 127
2, 147840, Note_on_c, 0, 100, 0
2, 147951, Note_on_c, 0, 79, 75
2, 147978, Note_on_c, 0, 101, 0
2, 147985, Note_on_c, 0, 67, 70
2, 148122, Note_on_c, 0, 81, 85
2, 148125, Note_on_c, 0, 72, 78
2, 148311, Note_on_c, 0, 74, 77
2, 148311, Note_on_c, 0, 84, 89
2, 148485, Note_on_c, 0, 76, 77
2, 148487, Note_on_c, 0, 86, 90
2, 148661, Note_on_c, 0, 72, 0
2, 148668, Note_on_c, 0, 72, 81
2, 148670, Note_on_c, 0, 77, 71
2, 148846, Note_on_c, 0, 81, 0
2, 148851, Note_on_c, 0, 81, 88
2, 149007, Note_on_c, 0, 72, 0
2, 149012, Note_on_c, 0, 72, 69
2, 149038, Note_on_c, 0, 79, 0
2, 149045, Note_on_c, 0, 79, 87
2, 149184, Note_on_c, 0, 74, 0
2, 149188, Note_on_c, 0, 74, 81
2, 149214, Note_on_c, 0, 81, 0
2, 149222, Note_on_c, 0, 81, 86
2, 149370, Note_on_c, 0, 100, 104
2, 149374, Note_on_c, 0, 88, 99
2, 149376, Note_on_c, 0, 84, 0
2, 149386, Note_on_c, 0, 84, 89
2, 149552, Note_on_c, 0, 86, 0
2, 149556, Note_on_c, 0, 86, 92
2, 149713, Note_on_c, 0, 79, 0
2, 149721, Note_on_c, 0, 79, 84
2, 149919, Note_on_c, 0, 101, 109
2, 149923, Note_on_c, 0, 62, 80
2, 149928, Note_on_c, 0, 89, 0
2, 149931, Note_on_c, 0, 74, 0
2, 149932, Note_on_c, 0, 86, 0
2, 149933, Note_on_c, 0, 89, 94
2, 149934, Note_on_c, 0, 81, 0
2, 149934, Note_on_c, 0, 88, 0
2, 149934, Note_on_c, 0, 77, 0
2, 149935, Note_on_c, 0, 60, 0
2, 149935, Note_on_c, 0, 76, 0
2, 149935, Note_on_c, 0, 84, 0
2, 149936, Note_on_c, 0, 79, 0
2, 149936, Note_on_c, 0, 67, 0
2, 149937, Note_on_c, 0, 72, 0
2, 149939, Control_c, 0, 64, 0
2, 149967, Note_on_c, 0, 100, 0
2, 150013, Control_c, 0, 64, 127
2, 150120, Note_on_c, 0, 69, 72
2, 150131, Note_on_c, 0, 79, 84
2, 150136, Note_on_c, 0, 62, 0
2, 150277, Note_on_c, 0, 74, 78
2, 150296, Note_on_c, 0, 81, 83
2, 150312, Note_on_c, 0, 101, 0
2, 150475, Note_on_c, 0, 76, 77
2, 150481, Note_on_c, 0, 84, 89
2, 150645, Note_on_c, 0, 77, 71
2, 150647, Note_on_c, 0, 86, 93
2, 150819, Note_on_c, 0, 77, 0
2, 150827, Note_on_c, 0, 74, 0
2, 150828, Note_on_c, 0, 77, 75
2, 150834, Note_on_c, 0, 74, 77
2, 151004, Note_on_c, 0, 81, 0
2, 151011, Note_on_c, 0, 81, 89
2, 151180, Note_on_c, 0, 79, 0
2, 151188, Note_on_c, 0, 74, 0
2, 151191, Note_on_c, 0, 79, 86
2, 151193, Note_on_c, 0, 74, 80
2, 151349, Note_on_c, 0, 76, 0
2, 151349, Note_on_c, 0, 81, 0
2, 151360, Note_on_c, 0, 81, 90
2, 151360, Note_on_c, 0, 76, 82
2, 151538, Note_on_c, 0, 103, 112
2, 151541, Note_on_c, 0, 84, 0
2, 151545, Note_on_c, 0, 91, 100
2, 151553, Note_on_c, 0, 84, 90
2, 151718, Note_on_c, 0, 86, 0
2, 151722, Note_on_c, 0, 86, 92
2, 151879, Note_on_c, 0, 79, 0
2, 151885, Note_on_c, 0, 79, 79
2, 152064, Note_on_c, 0, 89, 0
2, 152066, Note_on_c, 0, 101, 109
2, 152073, Note_on_c, 0, 62, 80
2, 152074, Note_on_c, 0, 89, 98
2, 152263, Note_on_c, 0, 69, 0
2, 152263, Note_on_c, 0, 79, 0
2, 152267, Note_on_c, 0, 79, 70
2, 152273, Note_on_c, 0, 69, 68
2, 152424, Note_on_c, 0, 81, 0
2, 152436, Note_on_c, 0, 81, 84
2, 152448, Note_on_c, 0, 74, 0
2, 152454, Note_on_c, 0, 74, 71
2, 152622, Note_on_c, 0, 100, 101
2, 152624, Note_on_c, 0, 76, 0
2, 152628, Note_on_c, 0, 88, 98
2, 152634, Note_on_c, 0, 76, 79
2, 152808, Note_on_c, 0, 74, 0
2, 152808, Note_on_c, 0, 79, 0
2, 152817, Note_on_c, 0, 79, 81
2, 152820, Note_on_c, 0, 74, 75
2, 152985, Note_on_c, 0, 81, 0
2, 152989, Note_on_c, 0, 81, 80
2, 152993, Note_on_c, 0, 76, 0
2, 152997, Note_on_c, 0, 76, 71
2, 153008, Note_on_c, 0, 74, 0
2, 153014, Note_on_c, 0, 74, 45
2, 153162, Note_on_c, 0, 77, 0
2, 153167, Note_on_c, 0, 77, 75
2, 153177, Note_on_c, 0, 84, 0
2, 153182, Note_on_c, 0, 96, 97
2, 153183, Note_on_c, 0, 84, 99
2, 153338, Note_on_c, 0, 76, 0
2, 153344, Note_on_c, 0, 76, 78
2, 153536, Note_on_c, 0, 72, 81
2, 153722, Note_on_c, 0, 76, 0
2, 153728, Note_on_c, 0, 67, 75
2, 153732, Note_on_c, 0, 76, 96
2, 153905, Note_on_c, 0, 64, 67
2, 154080, Note_on_c, 0, 60, 75
2, 154237, Note_on_c, 0, 103, 0
2, 154272, Note_on_c, 0, 86, 0
2, 154272, Note_on_c, 0, 81, 0
2, 154272, Note_on_c, 0, 96, 0
2, 154273, Control_c, 0, 64, 0
2, 154273, Note_on_c, 0, 69, 0
2, 154273, Note_on_c, 0, 84, 0
2, 154273, Note_on_c, 0, 60, 0
2, 154273, Note_on_c, 0, 88, 0
2, 154273, Note_on_c, 0, 91, 0
2, 154274, Note_on_c, 0, 64, 0
2, 154274, Note_on_c, 0, 72, 0
2, 154274, Note_on_c, 0, 76, 0
2, 154274, Note_on_c, 0, 62, 0
2, 154274, Note_on_c, 0, 67, 0
2, 154274, Note_on_c, 0, 79, 0
2, 154283, Note_on_c, 0, 89, 0
2, 154283, Note_on_c, 0, 100, 0
2, 154283, Note_on_c, 0, 101, 0
2, 154291, Note_on_c, 0, 74, 0
2, 154291, Note_on_c, 0, 77, 0
2, 154295, Note_on_c, 0, 77, 93
2, 154297, Note_on_c, 0, 58, 86
2, 154298, Note_on_c, 0, 74, 96
2, 154344, Control_c, 0, 64, 127
2, 154483, Note_on_c, 0, 65, 76
2, 154503, Note_on_c, 0, 79, 80
2, 154656, Note_on_c, 0, 81, 83
2, 154663, Note_on_c, 0, 70, 77
2, 154832, Note_on_c, 0, 72, 83
2, 154853, Note_on_c, 0, 84, 84
2, 155022, Note_on_c, 0, 86, 90
2, 155028, Note_on_c, 0, 74, 0
2, 155034, Note_on_c, 0, 74, 77
2, 155189, Note_on_c, 0, 77, 0
2, 155197, Note_on_c, 0, 65, 0
2, 155198, Note_on_c, 0, 77, 78
2, 155203, Note_on_c, 0, 65, 77
2, 155381, Note_on_c, 0, 81, 0
2, 155386, Note_on_c, 0, 81, 88
2, 155550, Note_on_c, 0, 79, 0
2, 155558, Note_on_c, 0, 65, 0
2, 155561, Note_on_c, 0, 79, 80
2, 155564, Note_on_c, 0, 65, 67
2, 155727, Note_on_c, 0, 70, 0
2, 155727, Note_on_c, 0, 81, 0
2, 155734, Note_on_c, 0, 81, 90
2, 155736, Note_on_c, 0, 70, 85
2, 155927, Note_on_c, 0, 72, 0
2, 155927, Note_on_c, 0, 84, 0
2, 155935, Note_on_c, 0, 76, 94
2, 155935, Note_on_c, 0, 72, 96
2, 155936, Note_on_c, 0, 84, 98
2, 156103, Note_on_c, 0, 86, 0
2, 156113, Note_on_c, 0, 86, 84
2, 156288, Note_on_c, 0, 79, 0
2, 156299, Note_on_c, 0, 79, 85
2, 156480, Note_on_c, 0, 77, 0
2, 156485, Note_on_c, 0, 58, 0
2, 156486, Note_on_c, 0, 77, 95
2, 156487, Note_on_c, 0, 74, 0
2, 156487, Note_on_c, 0, 81, 0
2, 156488, Note_on_c, 0, 65, 0
2, 156488, Note_on_c, 0, 72, 0
2, 156488, Note_on_c, 0, 84, 0
2, 156489, Note_on_c, 0, 76, 0
2, 156490, Note_on_c, 0, 60, 88
2, 156499, Control_c, 0, 64, 0
2, 156503, Note_on_c, 0, 70, 0
2, 156503, Note_on_c, 0, 79, 0
2, 156503, Note_on_c, 0, 86, 0
2, 156564, Control_c, 0, 64, 127
2, 156664, Note_on_c, 0, 79, 86
2, 156690, Note_on_c, 0, 67, 75
2, 156860, Note_on_c, 0, 72, 74
2, 156862, Note_on_c, 0, 81, 83
2, 157035, Note_on_c, 0, 74, 91
2, 157039, Note_on_c, 0, 84, 90
2, 157220, Note_on_c, 0, 86, 95
2, 157225, Note_on_c, 0, 76, 81
2, 157393, Note_on_c, 0, 67, 0
2, 157393, Note_on_c, 0, 77, 0
2, 157400, Note_on_c, 0, 77, 83
2, 157400, Note_on_c, 0, 67, 79
2, 157570, Note_on_c, 0, 81, 0
2, 157579, Note_on_c, 0, 81, 90
2, 157754, Note_on_c, 0, 67, 0
2, 157754, Note_on_c, 0, 79, 0
2, 157760, Note_on_c, 0, 67, 81
2, 157761, Note_on_c, 0, 79, 84
2, 157931, Note_on_c, 0, 72, 0
2, 157931, Note_on_c, 0, 81, 0
2, 157936, Note_on_c, 0, 81, 87
2, 157943, Note_on_c, 0, 72, 81
2, 158100, Note_on_c, 0, 76, 0
2, 158111, Note_on_c, 0, 76, 96
2, 158131, Note_on_c, 0, 84, 0
2, 158133, Control_c, 0, 64, 0
2, 158136, Note_on_c, 0, 84, 89
2, 158161, Control_c, 0, 64, 127
2, 158315, Note_on_c, 0, 86, 0
2, 158321, Note_on_c, 0, 86, 92
2, 158507, Note_on_c, 0, 77, 0
2, 158511, Note_on_c, 0, 77, 88
2, 158592, Note_on_c, 0, 76, 0
2, 158601, Note_on_c, 0, 76, 88
2, 158656, Note_on_c, 0, 84, 0
2, 158657, Note_on_c, 0, 81, 0
2, 158657, Note_on_c, 0, 79, 0
2, 158664, Note_on_c, 0, 86, 0
2, 158664, Note_on_c, 0, 77, 0
2, 158671, Note_on_c, 0, 60, 0
2, 158673, Note_on_c, 0, 76, 0
2, 158676, Note_on_c, 0, 74, 0
2, 158684, Note_on_c, 0, 72, 0
2, 158685, Note_on_c, 0, 74, 97
2, 158694, Control_c, 0, 64, 0
2, 158698, Note_on_c, 0, 62, 87
2, 158799, Control_c, 0, 64, 127
2, 158885, Note_on_c, 0, 64, 76
2, 158888, Note_on_c, 0, 79, 81
2, 159055, Note_on_c, 0, 65, 70
2, 159079, Note_on_c, 0, 81, 78
2, 159254, Note_on_c, 0, 69, 91
2, 159270, Note_on_c, 0, 84, 92
2, 159440, Note_on_c, 0, 86, 89
2, 159624, Note_on_c, 0, 77, 79
2, 159808, Note_on_c, 0, 76, 96
2, 159866, Note_on_c, 0, 67, 0
2, 159982, Note_on_c, 0, 62, 0
2, 159985, Note_on_c, 0, 62, 75
2, 159989, Note_on_c, 0, 79, 0
2, 159993, Note_on_c, 0, 79, 85
2, 160143, Note_on_c, 0, 64, 0
2, 160151, Note_on_c, 0, 64, 77
2, 160166, Note_on_c, 0, 81, 0
2, 160175, Note_on_c, 0, 81, 90
2, 160343, Note_on_c, 0, 69, 0
2, 160350, Note_on_c, 0, 69, 93
2, 160350, Note_on_c, 0, 65, 0
2, 160350, Note_on_c, 0, 84, 0
2, 160354, Note_on_c, 0, 65, 84
2, 160360, Note_on_c, 0, 84, 88
2, 160527, Note_on_c, 0, 86, 0
2, 160532, Note_on_c, 0, 86, 92
2, 160704, Note_on_c, 0, 79, 0
2, 160709, Note_on_c, 0, 79, 87
2, 160872, Note_on_c, 0, 74, 0
2, 160872, Note_on_c, 0, 77, 0
2, 160880, Note_on_c, 0, 77, 103
2, 160883, Note_on_c, 0, 74, 102
2, 161072, Note_on_c, 0, 62, 0
2, 161082, Note_on_c, 0, 62, 87
2, 161164, Note_on_c, 0, 64, 0
2, 161170, Note_on_c, 0, 64, 92
2, 161249, Note_on_c, 0, 65, 0
2, 161255, Note_on_c, 0, 65, 93
2, 161349, Note_on_c, 0, 69, 0
2, 161353, Note_on_c, 0, 69, 91
2, 161425, Note_on_c, 0, 79, 0
2, 161433, Note_on_c, 0, 74, 0
2, 161433, Note_on_c, 0, 76, 0
2, 161436, Note_on_c, 0, 79, 105
2, 161441, Note_on_c, 0, 76, 99
2, 161443, Note_on_c, 0, 74, 99
2, 161525, Note_on_c, 0, 69, 0
2, 161536, Note_on_c, 0, 69, 92
2, 161602, Note_on_c, 0, 65, 0
2, 161613, Note_on_c, 0, 65, 92
2, 161717, Note_on_c, 0, 69, 0
2, 161724, Note_on_c, 0, 69, 91
2, 161786, Note_on_c, 0, 62, 0
2, 161791, Note_on_c, 0, 62, 90
2, 161879, Note_on_c, 0, 69, 0
2, 161888, Note_on_c, 0, 69, 95
2, 161948, Note_on_c, 0, 77, 0
2, 161948, Note_on_c, 0, 81, 0
2, 161955, Note_on_c, 0, 81, 107
2, 161959, Note_on_c, 0, 77, 91
2, 161963, Note_on_c, 0, 74, 0
2, 161974, Note_on_c, 0, 74, 100
2, 162063, Note_on_c, 0, 69, 0
2, 162070, Note_on_c, 0, 69, 87
2, 162124, Note_on_c, 0, 65, 0
2, 162134, Note_on_c, 0, 65, 94
2, 162240, Note_on_c, 0, 69, 0
2, 162244, Note_on_c, 0, 69, 93
2, 162301, Note_on_c, 0, 62, 0
2, 162311, Note_on_c, 0, 62, 94
2, 162393, Note_on_c, 0, 69, 0
2, 162403, Note_on_c, 0, 69, 87
2, 162462, Note_on_c, 0, 76, 0
2, 162462, Note_on_c, 0, 79, 0
2, 162469, Note_on_c, 0, 79, 106
2, 162469, Note_on_c, 0, 88, 107
2, 162472, Note_on_c, 0, 76, 107
2, 162473, Note_on_c, 0, 72, 104
2, 162584, Note_on_c, 0, 67, 95
2, 162662, Note_on_c, 0, 64, 0
2, 162667, Note_on_c, 0, 64, 92
2, 162740, Note_on_c, 0, 60, 96
2, 162826, Note_on_c, 0, 55, 94
2, 162889, Note_on_c, 0, 48, 92
2, 162987, Note_on_c, 0, 48, 0
2, 162988, Note_on_c, 0, 69, 0
2, 162988, Note_on_c, 0, 81, 0
2, 162988, Note_on_c, 0, 86, 0
2, 162988, Note_on_c, 0, 65, 0
2, 162988, Note_on_c, 0, 60, 0
2, 162988, Note_on_c, 0, 64, 0
2, 162988, Note_on_c, 0, 74, 0
2, 162988, Note_on_c, 0, 76, 0
2, 162988, Note_on_c, 0, 55, 0
2, 162988, Control_c, 0, 64, 0
2, 162988, Note_on_c, 0, 62, 0
2, 162989, Note_on_c, 0, 79, 0
2, 162989, Note_on_c, 0, 67, 0
2, 163000, Note_on_c, 0, 77, 0
2, 163000, Note_on_c, 0, 84, 0
2, 163003, Note_on_c, 0, 89, 108
2, 163004, Note_on_c, 0, 77, 102
2, 163005, Note_on_c, 0, 46, 103
2, 163008, Note_on_c, 0, 72, 0
2, 163061, Control_c, 0, 64, 127
2, 163131, Note_on_c, 0, 82, 97
2, 163197, Note_on_c, 0, 53, 89
2, 163201, Note_on_c, 0, 81, 94
2, 163299, Note_on_c, 0, 82, 0
2, 163309, Note_on_c, 0, 82, 92
2, 163376, Note_on_c, 0, 77, 0
2, 163383, Note_on_c, 0, 77, 86
2, 163385, Note_on_c, 0, 58, 90
2, 163491, Note_on_c, 0, 82, 0
2, 163496, Note_on_c, 0, 82, 87
2, 163558, Note_on_c, 0, 60, 93
2, 163576, Note_on_c, 0, 89, 0
2, 163580, Note_on_c, 0, 89, 101
2, 163683, Note_on_c, 0, 82, 0
2, 163690, Note_on_c, 0, 82, 85
2, 163729, Note_on_c, 0, 53, 0
2, 163729, Note_on_c, 0, 81, 0
2, 163736, Note_on_c, 0, 53, 91
2, 163738, Note_on_c, 0, 81, 94
2, 163822, Note_on_c, 0, 82, 0
2, 163828, Note_on_c, 0, 82, 91
2, 163906, Note_on_c, 0, 77, 0
2, 163916, Note_on_c, 0, 77, 86
2, 163929, Note_on_c, 0, 58, 0
2, 163933, Note_on_c, 0, 58, 87
2, 164014, Note_on_c, 0, 82, 0
2, 164024, Note_on_c, 0, 82, 90
2, 164098, Note_on_c, 0, 89, 0
2, 164103, Note_on_c, 0, 62, 100
2, 164105, Note_on_c, 0, 89, 104
2, 164213, Note_on_c, 0, 82, 0
2, 164223, Note_on_c, 0, 82, 90
2, 164259, Note_on_c, 0, 46, 0
2, 164263, Note_on_c, 0, 46, 89
2, 164267, Note_on_c, 0, 81, 0
2, 164271, Note_on_c, 0, 81, 93
2, 164367, Note_on_c, 0, 82, 0
2, 164377, Note_on_c, 0, 82, 92
2, 164436, Note_on_c, 0, 53, 0
2, 164442, Note_on_c, 0, 53, 80
2, 164444, Note_on_c, 0, 58, 0
2, 164454, Note_on_c, 0, 58, 69
2, 164467, Note_on_c, 0, 77, 0
2, 164471, Note_on_c, 0, 77, 79
2, 164536, Note_on_c, 0, 82, 0
2, 164547, Note_on_c, 0, 82, 94
2, 164620, Note_on_c, 0, 88, 0
2, 164630, Note_on_c, 0, 76, 105
2, 164631, Note_on_c, 0, 88, 106
2, 164636, Note_on_c, 0, 60, 0
2, 164645, Note_on_c, 0, 60, 94
2, 164743, Note_on_c, 0, 82, 0
2, 164748, Note_on_c, 0, 82, 97
2, 164789, Note_on_c, 0, 58, 0
2, 164801, Note_on_c, 0, 58, 84
2, 164851, Note_on_c, 0, 81, 0
2, 164857, Note_on_c, 0, 81, 83
2, 164928, Note_on_c, 0, 82, 0
2, 164934, Note_on_c, 0, 82, 91
2, 164958, Note_on_c, 0, 46, 0
2, 164965, Note_on_c, 0, 46, 86
2, 164997, Note_on_c, 0, 77, 0
2, 165008, Note_on_c, 0, 77, 86
2, 165073, Note_on_c, 0, 82, 0
2, 165078, Note_on_c, 0, 82, 95
2, 165137, Note_on_c, 0, 76, 0
2, 165137, Control_c, 0, 64, 0
2, 165138, Note_on_c, 0, 81, 0
2, 165138, Note_on_c, 0, 88, 0
2, 165138, Note_on_c, 0, 62, 0
2, 165138, Note_on_c, 0, 53, 0
2, 165139, Note_on_c, 0, 58, 0
2, 165139, Note_on_c, 0, 46, 0
2, 165139, Note_on_c, 0, 82, 0
2, 165158, Note_on_c, 0, 60, 0
2, 165166, Note_on_c, 0, 77, 0
2, 165166, Note_on_c, 0, 89, 0
2, 165175, Note_on_c, 0, 89, 111
2, 165175, Note_on_c, 0, 48, 99
2, 165177, Note_on_c, 0, 77, 104
2, 165219, Control_c, 0, 64, 127
2, 165291, Note_on_c, 0, 81, 93
2, 165365, Note_on_c, 0, 55, 90
2, 165382, Note_on_c, 0, 79, 90
2, 165473, Note_on_c, 0, 81, 0
2, 165477, Note_on_c, 0, 81, 88
2, 165530, Note_on_c, 0, 60, 88
2, 165550, Note_on_c, 0, 77, 0
2, 165559, Note_on_c, 0, 77, 87
2, 165703, Note_on_c, 0, 89, 0
2, 165712, Note_on_c, 0, 62, 100
2, 165714, Note_on_c, 0, 89, 102
2, 165788, Note_on_c, 0, 81, 0
2, 165799, Note_on_c, 0, 81, 87
2, 165864, Note_on_c, 0, 79, 0
2, 165872, Note_on_c, 0, 79, 93
2, 165880, Note_on_c, 0, 55, 0
2, 165887, Note_on_c, 0, 55, 84
2, 165964, Note_on_c, 0, 81, 0
2, 165969, Note_on_c, 0, 81, 86
2, 166041, Note_on_c, 0, 77, 0
2, 166048, Note_on_c, 0, 77, 89
2, 166049, Note_on_c, 0, 60, 0
2, 166054, Note_on_c, 0, 60, 96
2, 166141, Note_on_c, 0, 81, 0
2, 166146, Note_on_c, 0, 81, 92
2, 166233, Note_on_c, 0, 89, 0
2, 166243, Note_on_c, 0, 64, 102
2, 166243, Note_on_c, 0, 89, 105
2, 166348, Note_on_c, 0, 81, 0
2, 166358, Note_on_c, 0, 81, 92
2, 166410, Note_on_c, 0, 79, 0
2, 166417, Note_on_c, 0, 48, 0
2, 166421, Note_on_c, 0, 79, 94
2, 166421, Note_on_c, 0, 48, 86
2, 166494, Note_on_c, 0, 81, 0
2, 166505, Note_on_c, 0, 81, 88
2, 166579, Note_on_c, 0, 77, 0
2, 166587, Note_on_c, 0, 77, 89
2, 166609, Note_on_c, 0, 55, 0
2, 166614, Note_on_c, 0, 55, 90
2, 166671, Note_on_c, 0, 81, 0
2, 166675, Note_on_c, 0, 81, 96
2, 166771, Note_on_c, 0, 60, 0
2, 166774, Note_on_c, 0, 88, 106
2, 166781, Note_on_c, 0, 60, 101
2, 166871, Note_on_c, 0, 81, 0
2, 166878, Note_on_c, 0, 81, 93
2, 166940, Note_on_c, 0, 55, 0
2, 166940, Note_on_c, 0, 79, 0
2, 166950, Note_on_c, 0, 55, 86
2, 166951, Note_on_c, 0, 79, 96
2, 167040, Note_on_c, 0, 81, 0
2, 167050, Note_on_c, 0, 81, 94
2, 167116, Note_on_c, 0, 48, 0
2, 167123, Note_on_c, 0, 48, 82
2, 167124, Note_on_c, 0, 77, 0
2, 167132, Note_on_c, 0, 77, 82
2, 167201, Note_on_c, 0, 81, 0
2, 167206, Note_on_c, 0, 81, 96
2, 167283, Note_on_c, 0, 60, 0
2, 167283, Note_on_c, 0, 88, 0
2, 167284, Note_on_c, 0, 55, 0
2, 167285, Note_on_c, 0, 64, 0
2, 167285, Note_on_c, 0, 48, 0
2, 167287, Note_on_c, 0, 62, 0
2, 167287, Note_on_c, 0, 81, 0
2, 167289, Control_c, 0, 64, 0
2, 167301, Note_on_c, 0, 77, 0
2, 167301, Note_on_c, 0, 89, 0
2, 167305, Note_on_c, 0, 89, 110
2, 167310, Note_on_c, 0, 77, 104
2, 167311, Note_on_c, 0, 50, 98
2, 167316, Note_on_c, 0, 79, 0
2, 167354, Control_c, 0, 64, 127
2, 167428, Note_on_c, 0, 81, 94
2, 167496, Note_on_c, 0, 57, 90
2, 167510, Note_on_c, 0, 79, 93
2, 167616, Note_on_c, 0, 81, 0
2, 167622, Note_on_c, 0, 81, 86
2, 167669, Note_on_c, 0, 77, 0
2, 167674, Note_on_c, 0, 77, 87
2, 167677, Note_on_c, 0, 62, 91
2, 167754, Note_on_c, 0, 81, 0
2, 167764, Note_on_c, 0, 81, 93
2, 167854, Note_on_c, 0, 89, 0
2, 167860, Note_on_c, 0, 64, 102
2, 167864, Note_on_c, 0, 89, 104
2, 167969, Note_on_c, 0, 81, 0
2, 167976, Note_on_c, 0, 81, 88
2, 168038, Note_on_c, 0, 57, 0
2, 168038, Note_on_c, 0, 79, 0
2, 168042, Note_on_c, 0, 79, 88
2, 168042, Note_on_c, 0, 57, 86
2, 168122, Note_on_c, 0, 81, 0
2, 168131, Note_on_c, 0, 81, 90
2, 168207, Note_on_c, 0, 62, 0
2, 168207, Note_on_c, 0, 77, 0
2, 168213, Note_on_c, 0, 77, 88
2, 168216, Note_on_c, 0, 62, 94
2, 168291, Note_on_c, 0, 81, 0
2, 168301, Note_on_c, 0, 81, 98
2, 168391, Note_on_c, 0, 89, 0
2, 168394, Note_on_c, 0, 65, 101
2, 168402, Note_on_c, 0, 89, 106
2, 168506, Note_on_c, 0, 81, 0
2, 168513, Note_on_c, 0, 81, 92
2, 168568, Note_on_c, 0, 50, 0
2, 168568, Note_on_c, 0, 79, 0
2, 168572, Note_on_c, 0, 50, 89
2, 168573, Note_on_c, 0, 79, 96
2, 168668, Note_on_c, 0, 81, 0
2, 168673, Note_on_c, 0, 81, 88
2, 168737, Note_on_c, 0, 77, 0
2, 168742, Note_on_c, 0, 77, 89
2, 168744, Note_on_c, 0, 57, 0
2, 168749, Note_on_c, 0, 57, 100
2, 168829, Note_on_c, 0, 81, 0
2, 168834, Note_on_c, 0, 81, 94
2, 168924, Note_on_c, 0, 91, 110
2, 168926, Note_on_c, 0, 67, 100
2, 169021, Note_on_c, 0, 81, 0
2, 169029, Note_on_c, 0, 81, 96
2, 169082, Note_on_c, 0, 79, 0
2, 169090, Note_on_c, 0, 50, 0
2, 169092, Note_on_c, 0, 79, 91
2, 169098, Note_on_c, 0, 50, 85
2, 169175, Note_on_c, 0, 81, 0
2, 169180, Note_on_c, 0, 81, 96
2, 169251, Note_on_c, 0, 77, 0
2, 169260, Note_on_c, 0, 77, 92
2, 169282, Note_on_c, 0, 57, 0
2, 169287, Note_on_c, 0, 57, 93
2, 169336, Note_on_c, 0, 81, 0
2, 169341, Note_on_c, 0, 81, 93
2, 169451, Note_on_c, 0, 50, 0
2, 169451, Note_on_c, 0, 89, 0
2, 169461, Note_on_c, 0, 89, 109
2, 169461, Note_on_c, 0, 65, 0
2, 169462, Note_on_c, 0, 50, 98
2, 169462, Note_on_c, 0, 64, 0
2, 169462, Note_on_c, 0, 62, 0
2, 169463, Control_c, 0, 64, 0
2, 169463, Note_on_c, 0, 81, 0
2, 169463, Note_on_c, 0, 67, 0
2, 169463, Note_on_c, 0, 57, 0
2, 169463, Note_on_c, 0, 79, 0
2, 169463, Note_on_c, 0, 91, 0
2, 169482, Note_on_c, 0, 77, 0
2, 169512, Control_c, 0, 64, 127
2, 169545, Note_on_c, 0, 88, 103
2, 169582, Note_on_c, 0, 50, 0
2, 169633, Note_on_c, 0, 86, 100
2, 169655, Note_on_c, 0, 57, 90
2, 169704, Note_on_c, 0, 88, 0
2, 169715, Note_on_c, 0, 88, 102
2, 169804, Note_on_c, 0, 86, 0
2, 169816, Note_on_c, 0, 86, 104
2, 169827, Note_on_c, 0, 62, 96
2, 169899, Note_on_c, 0, 84, 103
2, 169989, Note_on_c, 0, 86, 0
2, 169998, Note_on_c, 0, 64, 98
2, 169998, Note_on_c, 0, 86, 107
2, 170088, Note_on_c, 0, 84, 0
2, 170095, Note_on_c, 0, 84, 102
2, 170161, Note_on_c, 0, 81, 101
2, 170162, Note_on_c, 0, 65, 88
2, 170242, Note_on_c, 0, 84, 0
2, 170253, Note_on_c, 0, 84, 104
2, 170334, Note_on_c, 0, 62, 0
2, 170342, Note_on_c, 0, 81, 0
2, 170345, Note_on_c, 0, 62, 90
2, 170346, Note_on_c, 0, 81, 100
2, 170427, Note_on_c, 0, 79, 101
2, 170503, Note_on_c, 0, 65, 0
2, 170503, Note_on_c, 0, 81, 0
2, 170508, Note_on_c, 0, 74, 107
2, 170513, Note_on_c, 0, 69, 100
2, 170514, Note_on_c, 0, 65, 96
2, 170514, Note_on_c, 0, 81, 102
2, 170611, Note_on_c, 0, 79, 0
2, 170615, Note_on_c, 0, 79, 98
2, 170692, Note_on_c, 0, 77, 96
2, 170772, Note_on_c, 0, 79, 0
2, 170778, Note_on_c, 0, 79, 103
2, 170856, Note_on_c, 0, 77, 0
2, 170867, Note_on_c, 0, 77, 98
2, 170946, Note_on_c, 0, 76, 100
2, 171033, Note_on_c, 0, 77, 0
2, 171038, Note_on_c, 0, 60, 105
2, 171041, Note_on_c, 0, 77, 97
2, 171043, Note_on_c, 0, 48, 104
2, 171056, Control_c, 0, 64, 0
2, 171057, Note_on_c, 0, 65, 0
2, 171059, Note_on_c, 0, 86, 0
2, 171059, Note_on_c, 0, 69, 0
2, 171060, Note_on_c, 0, 64, 0
2, 171060, Note_on_c, 0, 74, 0
2, 171060, Note_on_c, 0, 81, 0
2, 171060, Note_on_c, 0, 62, 0
2, 171060, Note_on_c, 0, 76, 0
2, 171061, Note_on_c, 0, 57, 0
2, 171062, Note_on_c, 0, 88, 0
2, 171063, Note_on_c, 0, 79, 0
2, 171066, Note_on_c, 0, 89, 0
2, 171079, Note_on_c, 0, 84, 0
2, 171118, Note_on_c, 0, 77, 0
2, 171129, Note_on_c, 0, 76, 100
2, 171148, Control_c, 0, 64, 127
2, 171204, Note_on_c, 0, 74, 108
2, 171287, Note_on_c, 0, 76, 0
2, 171287, Control_c, 0, 64, 0
2, 171294, Note_on_c, 0, 76, 104
2, 171371, Note_on_c, 0, 74, 0
2, 171382, Note_on_c, 0, 74, 105
2, 171447, Note_on_c, 0, 72, 104
2, 171475, Note_on_c, 0, 76, 0
2, 171479, Note_on_c, 0, 74, 0
2, 171483, Note_on_c, 0, 48, 0
2, 171484, Note_on_c, 0, 60, 0
2, 171496, Note_on_c, 0, 72, 0
2, 171577, Note_on_c, 0, 74, 112
2, 171580, Note_on_c, 0, 62, 106
2, 171581, Note_on_c, 0, 65, 97
2, 171582, Note_on_c, 0, 34, 99
2, 171640, Control_c, 0, 64, 127
2, 171770, Note_on_c, 0, 62, 0
2, 171774, Note_on_c, 0, 62, 92
2, 171788, Note_on_c, 0, 53, 81
2, 171873, Note_on_c, 0, 50, 89
2, 171955, Note_on_c, 0, 34, 0
2, 171955, Note_on_c, 0, 53, 0
2, 171955, Note_on_c, 0, 62, 0
2, 171960, Note_on_c, 0, 62, 98
2, 171962, Note_on_c, 0, 34, 85
2, 171964, Note_on_c, 0, 53, 78
2, 172055, Note_on_c, 0, 62, 0
2, 172063, Note_on_c, 0, 62, 95
2, 172104, Note_on_c, 0, 46, 84
2, 172124, Note_on_c, 0, 65, 0
2, 172124, Note_on_c, 0, 74, 0
2, 172131, Note_on_c, 0, 65, 98
2, 172134, Note_on_c, 0, 74, 106
2, 172308, Note_on_c, 0, 77, 96
2, 172317, Note_on_c, 0, 86, 105
2, 172400, Note_on_c, 0, 74, 0
2, 172411, Note_on_c, 0, 74, 103
2, 172462, Note_on_c, 0, 77, 0
2, 172469, Note_on_c, 0, 77, 71
2, 172492, Note_on_c, 0, 86, 0
2, 172497, Note_on_c, 0, 86, 105
2, 172497, Note_on_c, 0, 58, 86
2, 172584, Note_on_c, 0, 86, 0
2, 172590, Note_on_c, 0, 86, 101
2, 172657, Note_on_c, 0, 98, 113
2, 172661, Note_on_c, 0, 62, 0
2, 172661, Note_on_c, 0, 65, 0
2, 172663, Note_on_c, 0, 89, 102
2, 172665, Note_on_c, 0, 70, 102
2, 172665, Note_on_c, 0, 65, 96
2, 172666, Note_on_c, 0, 62, 97
2, 172723, Note_on_c, 0, 86, 0
2, 172734, Note_on_c, 0, 86, 100
2, 172823, Note_on_c, 0, 86, 0
2, 172830, Note_on_c, 0, 77, 0
2, 172832, Note_on_c, 0, 86, 105
2, 172835, Note_on_c, 0, 77, 91
2, 172899, Note_on_c, 0, 74, 0
2, 172908, Note_on_c, 0, 74, 90
2, 172938, Note_on_c, 0, 98, 0
2, 173007, Note_on_c, 0, 62, 0
2, 173007, Note_on_c, 0, 74, 0
2, 173011, Note_on_c, 0, 74, 104
2, 173014, Note_on_c, 0, 62, 100
2, 173038, Note_on_c, 0, 46, 0
2, 173045, Note_on_c, 0, 46, 90
2, 173176, Note_on_c, 0, 58, 0
2, 173176, Note_on_c, 0, 89, 0
2, 173184, Note_on_c, 0, 74, 0
2, 173187, Note_on_c, 0, 58, 100
2, 173188, Note_on_c, 0, 76, 105
2, 173188, Note_on_c, 0, 64, 107
2, 173190, Note_on_c, 0, 74, 95
2, 173222, Note_on_c, 0, 53, 0
2, 173231, Note_on_c, 0, 53, 65
2, 173283, Note_on_c, 0, 50, 0
2, 173291, Note_on_c, 0, 50, 86
2, 173376, Note_on_c, 0, 46, 0
2, 173376, Note_on_c, 0, 64, 0
2, 173380, Note_on_c, 0, 46, 87
2, 173380, Note_on_c, 0, 64, 101
2, 173455, Note_on_c, 0, 41, 87
2, 173459, Note_on_c, 0, 67, 97
2, 173529, Note_on_c, 0, 34, 0
2, 173529, Note_on_c, 0, 76, 0
2, 173535, Note_on_c, 0, 34, 89
2, 173537, Note_on_c, 0, 76, 100
2, 173620, Note_on_c, 0, 34, 0
2, 173623, Note_on_c, 0, 62, 0
2, 173623, Note_on_c, 0, 86, 0
2, 173624, Note_on_c, 0, 77, 0
2, 173624, Note_on_c, 0, 46, 0
2, 173624, Control_c, 0, 64, 0
2, 173624, Note_on_c, 0, 41, 0
2, 173625, Note_on_c, 0, 53, 0
2, 173625, Note_on_c, 0, 74, 0
2, 173625, Note_on_c, 0, 65, 0
2, 173625, Note_on_c, 0, 67, 0
2, 173625, Note_on_c, 0, 76, 0
2, 173625, Note_on_c, 0, 70, 0
2, 173625, Note_on_c, 0, 58, 0
2, 173626, Note_on_c, 0, 64, 0
2, 173644, Note_on_c, 0, 50, 0
2, 173733, Note_on_c, 0, 74, 109
2, 173733, Note_on_c, 0, 67, 101
2, 173734, Note_on_c, 0, 64, 105
2, 173735, Note_on_c, 0, 36, 101
2, 173737, Note_on_c, 0, 24, 93
2, 173798, Control_c, 0, 64, 127
2, 173936, Note_on_c, 0, 24, 0
2, 173939, Note_on_c, 0, 62, 98
2, 173947, Note_on_c, 0, 43, 77
2, 173948, Note_on_c, 0, 55, 85
2, 174030, Note_on_c, 0, 52, 85
2, 174105, Note_on_c, 0, 55, 0
2, 174105, Note_on_c, 0, 62, 0
2, 174111, Note_on_c, 0, 62, 95
2, 174116, Note_on_c, 0, 55, 89
2, 174197, Note_on_c, 0, 52, 0
2, 174197, Note_on_c, 0, 64, 0
2, 174207, Note_on_c, 0, 52, 78
2, 174208, Note_on_c, 0, 64, 104
2, 174274, Note_on_c, 0, 67, 0
2, 174274, Note_on_c, 0, 74, 0
2, 174279, Note_on_c, 0, 48, 96
2, 174280, Note_on_c, 0, 67, 106
2, 174283, Note_on_c, 0, 74, 107
2, 174474, Note_on_c, 0, 52, 0
2, 174477, Note_on_c, 0, 79, 98
2, 174479, Note_on_c, 0, 86, 99
2, 174480, Note_on_c, 0, 52, 73
2, 174493, Note_on_c, 0, 53, 55
2, 174504, Note_on_c, 0, 55, 0
2, 174516, Note_on_c, 0, 55, 65
2, 174556, Note_on_c, 0, 76, 100
2, 174640, Note_on_c, 0, 60, 97
2, 174643, Note_on_c, 0, 79, 0
2, 174650, Note_on_c, 0, 86, 0
2, 174653, Note_on_c, 0, 79, 97
2, 174655, Note_on_c, 0, 86, 100
2, 174741, Note_on_c, 0, 88, 103
2, 174804, Note_on_c, 0, 72, 107
2, 174804, Note_on_c, 0, 64, 0
2, 174804, Note_on_c, 0, 67, 0
2, 174813, Note_on_c, 0, 64, 103
2, 174814, Note_on_c, 0, 67, 98
2, 174814, Note_on_c, 0, 91, 112
2, 174822, Note_on_c, 0, 98, 107
2, 174881, Note_on_c, 0, 88, 0
2, 174888, Note_on_c, 0, 88, 100
2, 174981, Note_on_c, 0, 79, 0
2, 174981, Note_on_c, 0, 86, 0
2, 174986, Note_on_c, 0, 86, 100
2, 174988, Note_on_c, 0, 79, 99
2, 175065, Note_on_c, 0, 76, 0
2, 175074, Note_on_c, 0, 76, 95
2, 175150, Note_on_c, 0, 74, 0
2, 175157, Note_on_c, 0, 67, 0
2, 175161, Note_on_c, 0, 74, 107
2, 175164, Note_on_c, 0, 67, 95
2, 175180, Note_on_c, 0, 48, 0
2, 175190, Note_on_c, 0, 48, 91
2, 175234, Note_on_c, 0, 64, 0
2, 175241, Note_on_c, 0, 64, 96
2, 175334, Note_on_c, 0, 60, 0
2, 175334, Note_on_c, 0, 64, 0
2, 175342, Note_on_c, 0, 76, 0
2, 175343, Note_on_c, 0, 60, 98
2, 175345, Note_on_c, 0, 64, 108
2, 175346, Note_on_c, 0, 76, 105
2, 175411, Note_on_c, 0, 55, 0
2, 175419, Note_on_c, 0, 55, 86
2, 175457, Note_on_c, 0, 52, 0
2, 175465, Note_on_c, 0, 52, 92
2, 175526, Note_on_c, 0, 64, 0
2, 175536, Note_on_c, 0, 64, 103
2, 175549, Note_on_c, 0, 48, 0
2, 175549, Note_on_c, 0, 67, 0
2, 175553, Note_on_c, 0, 48, 89
2, 175555, Note_on_c, 0, 67, 81
2, 175610, Note_on_c, 0, 43, 0
2, 175610, Note_on_c, 0, 67, 0
2, 175615, Note_on_c, 0, 43, 82
2, 175621, Note_on_c, 0, 67, 94
2, 175687, Note_on_c, 0, 76, 0
2, 175695, Note_on_c, 0, 36, 0
2, 175697, Note_on_c, 0, 76, 102
2, 175701, Note_on_c, 0, 36, 88
2, 175756, Note_on_c, 0, 53, 0
2, 175776, Control_c, 0, 64, 0
2, 175777, Note_on_c, 0, 98, 0
2, 175777, Note_on_c, 0, 74, 0
2, 175778, Note_on_c, 0, 86, 0
2, 175778, Note_on_c, 0, 72, 0
2, 175778, Note_on_c, 0, 48, 0
2, 175778, Note_on_c, 0, 88, 0
2, 175778, Note_on_c, 0, 60, 0
2, 175778, Note_on_c, 0, 36, 0
2, 175778, Note_on_c, 0, 52, 0
2, 175778, Note_on_c, 0, 43, 0
2, 175778, Note_on_c, 0, 62, 0
2, 175779, Note_on_c, 0, 76, 0
2, 175780, Note_on_c, 0, 91, 0
2, 175780, Note_on_c, 0, 67, 0
2, 175781, Note_on_c, 0, 55, 0
2, 175781, Note_on_c, 0, 79, 0
2, 175802, Note_on_c, 0, 64, 0
2, 175889, Note_on_c, 0, 74, 110
2, 175890, Note_on_c, 0, 62, 107
2, 176087, Control_c, 0, 64, 127
2, 176097, Note_on_c, 0, 50, 99
2, 176098, Note_on_c, 0, 38, 94
2, 176099, Note_on_c, 0, 69, 98
2, 176106, Note_on_c, 0, 67, 95
2, 176117, Note_on_c, 0, 62, 0
2, 176210, Note_on_c, 0, 62, 91
2, 176279, Note_on_c, 0, 50, 0
2, 176279, Note_on_c, 0, 67, 0
2, 176279, Note_on_c, 0, 69, 0
2, 176286, Note_on_c, 0, 69, 88
2, 176286, Note_on_c, 0, 50, 88
2, 176289, Note_on_c, 0, 67, 80
2, 176363, Note_on_c, 0, 74, 0
2, 176369, Note_on_c, 0, 74, 99
2, 176448, Note_on_c, 0, 62, 0
2, 176457, Note_on_c, 0, 62, 100
2, 176461, Note_on_c, 0, 55, 93
2, 176462, Note_on_c, 0, 86, 100
2, 176465, Note_on_c, 0, 57, 94
2, 176556, Note_on_c, 0, 81, 96
2, 176647, Note_on_c, 0, 50, 0
2, 176651, Note_on_c, 0, 50, 92
2, 176651, Note_on_c, 0, 79, 97
2, 176724, Note_on_c, 0, 74, 0
2, 176731, Note_on_c, 0, 74, 97
2, 176801, Note_on_c, 0, 69, 0
2, 176807, Note_on_c, 0, 69, 94
2, 176824, Note_on_c, 0, 38, 0
2, 176835, Note_on_c, 0, 38, 92
2, 176878, Note_on_c, 0, 67, 0
2, 176885, Note_on_c, 0, 67, 80
2, 176922, Control_c, 0, 64, 0
2, 176985, Note_on_c, 0, 62, 0
2, 176985, Note_on_c, 0, 74, 0
2, 176992, Note_on_c, 0, 74, 109
2, 176995, Note_on_c, 0, 62, 107
2, 177047, Control_c, 0, 64, 127
2, 177169, Note_on_c, 0, 81, 0
2, 177177, Note_on_c, 0, 38, 0
2, 177177, Note_on_c, 0, 50, 0
2, 177177, Note_on_c, 0, 79, 0
2, 177180, Note_on_c, 0, 81, 99
2, 177181, Note_on_c, 0, 50, 97
2, 177184, Note_on_c, 0, 79, 91
2, 177184, Note_on_c, 0, 38, 92
2, 177239, Note_on_c, 0, 57, 0
2, 177262, Note_on_c, 0, 74, 0
2, 177272, Note_on_c, 0, 74, 101
2, 177354, Note_on_c, 0, 50, 0
2, 177354, Note_on_c, 0, 81, 0
2, 177360, Note_on_c, 0, 50, 86
2, 177361, Note_on_c, 0, 81, 90
2, 177361, Note_on_c, 0, 79, 0
2, 177367, Note_on_c, 0, 79, 81
2, 177431, Note_on_c, 0, 86, 0
2, 177441, Note_on_c, 0, 86, 100
2, 177515, Note_on_c, 0, 62, 0
2, 177522, Note_on_c, 0, 98, 109
2, 177523, Note_on_c, 0, 55, 0
2, 177524, Note_on_c, 0, 62, 101
2, 177533, Note_on_c, 0, 57, 93
2, 177534, Note_on_c, 0, 55, 91
2, 177611, Note_on_c, 0, 93, 94
2, 177699, Note_on_c, 0, 50, 0
2, 177708, Note_on_c, 0, 91, 102
2, 177710, Note_on_c, 0, 50, 96
2, 177792, Note_on_c, 0, 86, 0
2, 177800, Note_on_c, 0, 86, 100
2, 177861, Note_on_c, 0, 81, 0
2, 177871, Note_on_c, 0, 81, 95
2, 177876, Note_on_c, 0, 38, 0
2, 177880, Note_on_c, 0, 38, 93
2, 177945, Note_on_c, 0, 79, 0
2, 177947, Control_c, 0, 64, 0
2, 177955, Note_on_c, 0, 79, 98
2, 177957, Note_on_c, 0, 91, 0
2, 177957, Note_on_c, 0, 55, 0
2, 177984, Note_on_c, 0, 93, 0
2, 177984, Control_c, 0, 64, 127
2, 178014, Note_on_c, 0, 69, 0
2, 178037, Note_on_c, 0, 74, 0
2, 178037, Note_on_c, 0, 86, 0
2, 178047, Note_on_c, 0, 86, 109
2, 178048, Note_on_c, 0, 74, 109
2, 178083, Note_on_c, 0, 98, 0
2, 178237, Note_on_c, 0, 38, 0
2, 178243, Note_on_c, 0, 26, 88
2, 178246, Note_on_c, 0, 38, 82
2, 178337, Note_on_c, 0, 38, 0
2, 178346, Note_on_c, 0, 38, 90
2, 178421, Note_on_c, 0, 26, 0
2, 178429, Note_on_c, 0, 38, 0
2, 178432, Note_on_c, 0, 26, 84
2, 178434, Note_on_c, 0, 38, 88
2, 178498, Note_on_c, 0, 38, 0
2, 178502, Note_on_c, 0, 38, 87
2, 178560, Note_on_c, 0, 50, 0
2, 178560, Note_on_c, 0, 57, 0
2, 178560, Note_on_c, 0, 62, 0
2, 178560, Note_on_c, 0, 67, 0
2, 178560, Note_on_c, 0, 79, 0
2, 178560, Note_on_c, 0, 81, 0
2, 178600, Note_on_c, 0, 62, 103
2, 178601, Note_on_c, 0, 50, 104
2, 178782, Note_on_c, 0, 26, 0
2, 178782, Note_on_c, 0, 38, 0
2, 178789, Note_on_c, 0, 38, 80
2, 178789, Note_on_c, 0, 26, 80
2, 178867, Note_on_c, 0, 38, 0
2, 178873, Note_on_c, 0, 38, 84
2, 178951, Note_on_c, 0, 26, 0
2, 178951, Note_on_c, 0, 38, 0
2, 178960, Note_on_c, 0, 26, 89
2, 178962, Note_on_c, 0, 38, 86
2, 179059, Note_on_c, 0, 38, 0
2, 179063, Note_on_c, 0, 38, 89
2, 179097, Note_on_c, 0, 50, 0
2, 179097, Note_on_c, 0, 86, 0
2, 179112, Note_on_c, 0, 74, 0
2, 179114, Control_c, 0, 64, 0
2, 179120, Note_on_c, 0, 62, 0
2, 179128, Note_on_c, 0, 62, 107
2, 179131, Note_on_c, 0, 50, 102
2, 179197, Control_c, 0, 64, 127
2, 179366, Note_on_c, 0, 26, 0
2, 179420, Note_on_c, 0, 38, 0
2, 179431, Note_on_c, 0, 38, 84
2, 179496, Note_on_c, 0, 50, 0
2, 179503, Note_on_c, 0, 50, 96
2, 179526, Control_c, 0, 64, 0
2, 179538, Note_on_c, 0, 62, 0
2, 179539, Note_on_c, 0, 50, 0
2, 179558, Note_on_c, 0, 38, 0
2, 179731, Note_on_c, 0, 62, 90
2, 179945, Note_on_c, 0, 65, 85
2, 179981, Note_on_c, 0, 62, 0
2, 180170, Note_on_c, 0, 62, 87
2, 180192, Note_on_c, 0, 65, 0
2, 180384, Note_on_c, 0, 69, 94
2, 180385, Note_on_c, 0, 58, 78
2, 180392, Note_on_c, 0, 65, 79
2, 180441, Control_c, 0, 64, 127
2, 180611, Note_on_c, 0, 81, 75
2, 180620, Note_on_c, 0, 77, 56
2, 180621, Note_on_c, 0, 74, 70
2, 180817, Note_on_c, 0, 74, 0
2, 180817, Note_on_c, 0, 77, 0
2, 180817, Note_on_c, 0, 81, 0
2, 180822, Note_on_c, 0, 81, 70
2, 180828, Note_on_c, 0, 77, 54
2, 180828, Note_on_c, 0, 74, 69
2, 180994, Note_on_c, 0, 81, 0
2, 181002, Note_on_c, 0, 74, 0
2, 181002, Note_on_c, 0, 77, 0
2, 181004, Note_on_c, 0, 81, 84
2, 181008, Note_on_c, 0, 77, 69
2, 181011, Note_on_c, 0, 74, 76
2, 181194, Note_on_c, 0, 74, 0
2, 181194, Note_on_c, 0, 81, 0
2, 181199, Note_on_c, 0, 81, 86
2, 181201, Note_on_c, 0, 77, 0
2, 181203, Note_on_c, 0, 74, 79
2, 181211, Note_on_c, 0, 77, 64
2, 181378, Note_on_c, 0, 62, 0
2, 181378, Note_on_c, 0, 77, 0
2, 181378, Note_on_c, 0, 81, 0
2, 181383, Note_on_c, 0, 62, 81
2, 181386, Note_on_c, 0, 74, 0
2, 181388, Note_on_c, 0, 81, 87
2, 181389, Note_on_c, 0, 77, 68
2, 181394, Note_on_c, 0, 74, 77
2, 181568, Note_on_c, 0, 64, 86
2, 181573, Note_on_c, 0, 67, 87
2, 181574, Note_on_c, 0, 79, 82
2, 181574, Note_on_c, 0, 60, 81
2, 181580, Note_on_c, 0, 76, 74
2, 181589, Note_on_c, 0, 72, 74
2, 181598, Control_c, 0, 64, 0
2, 181604, Note_on_c, 0, 69, 0
2, 181604, Note_on_c, 0, 81, 0
2, 181605, Note_on_c, 0, 74, 0
2, 181605, Note_on_c, 0, 65, 0
2, 181605, Note_on_c, 0, 58, 0
2, 181607, Note_on_c, 0, 77, 0
2, 181632, Note_on_c, 0, 62, 0
2, 181685, Control_c, 0, 64, 127
2, 181747, Note_on_c, 0, 79, 0
2, 181754, Note_on_c, 0, 72, 0
2, 181754, Note_on_c, 0, 76, 0
2, 181758, Note_on_c, 0, 79, 76
2, 181759, Note_on_c, 0, 76, 68
2, 181759, Note_on_c, 0, 72, 78
2, 181939, Note_on_c, 0, 72, 0
2, 181939, Note_on_c, 0, 76, 0
2, 181939, Note_on_c, 0, 79, 0
2, 181945, Note_on_c, 0, 79, 82
2, 181949, Note_on_c, 0, 72, 72
2, 181950, Note_on_c, 0, 76, 68
2, 182115, Note_on_c, 0, 72, 0
2, 182126, Note_on_c, 0, 72, 71
2, 182138, Note_on_c, 0, 76, 0
2, 182146, Note_on_c, 0, 79, 0
2, 182150, Note_on_c, 0, 76, 54
2, 182150, Note_on_c, 0, 79, 76
2, 182323, Note_on_c, 0, 72, 0
2, 182323, Note_on_c, 0, 79, 0
2, 182330, Note_on_c, 0, 76, 0
2, 182333, Note_on_c, 0, 65, 85
2, 182334, Note_on_c, 0, 77, 72
2, 182334, Note_on_c, 0, 79, 68
2, 182334, Note_on_c, 0, 72, 73
2, 182338, Note_on_c, 0, 77, 0
2, 182341, Note_on_c, 0, 76, 57
2, 182492, Note_on_c, 0, 64, 0
2, 182503, Note_on_c, 0, 64, 87
2, 182522, Note_on_c, 0, 72, 0
2, 182522, Note_on_c, 0, 76, 0
2, 182522, Note_on_c, 0, 79, 0
2, 182526, Note_on_c, 0, 79, 72
2, 182527, Note_on_c, 0, 72, 73
2, 182527, Note_on_c, 0, 76, 64
2, 182691, Note_on_c, 0, 60, 0
2, 182696, Note_on_c, 0, 60, 81
2, 182699, Note_on_c, 0, 72, 0
2, 182699, Note_on_c, 0, 76, 0
2, 182702, Control_c, 0, 64, 0
2, 182702, Note_on_c, 0, 57, 80
2, 182704, Note_on_c, 0, 69, 73
2, 182706, Note_on_c, 0, 76, 69
2, 182706, Note_on_c, 0, 67, 0
2, 182706, Note_on_c, 0, 65, 0
2, 182708, Note_on_c, 0, 72, 72
2, 182791, Control_c, 0, 64, 127
2, 182891, Note_on_c, 0, 76, 0
2, 182899, Note_on_c, 0, 72, 0
2, 182899, Note_on_c, 0, 79, 0
2, 182901, Note_on_c, 0, 76, 68
2, 182903, Note_on_c, 0, 79, 72
2, 182909, Note_on_c, 0, 72, 71
2, 183083, Note_on_c, 0, 72, 0
2, 183083, Note_on_c, 0, 79, 0
2, 183087, Note_on_c, 0, 79, 74
2, 183091, Note_on_c, 0, 76, 0
2, 183092, Note_on_c, 0, 72, 71
2, 183095, Note_on_c, 0, 76, 67
2, 183283, Note_on_c, 0, 72, 0
2, 183283, Note_on_c, 0, 79, 0
2, 183287, Note_on_c, 0, 79, 79
2, 183292, Note_on_c, 0, 72, 72
2, 183306, Note_on_c, 0, 76, 0
2, 183310, Note_on_c, 0, 76, 51
2, 183456, Note_on_c, 0, 67, 78
2, 183467, Note_on_c, 0, 76, 0
2, 183467, Note_on_c, 0, 79, 0
2, 183472, Note_on_c, 0, 79, 80
2, 183475, Note_on_c, 0, 72, 0
2, 183478, Note_on_c, 0, 76, 71
2, 183481, Note_on_c, 0, 72, 71
2, 183490, Note_on_c, 0, 69, 0
2, 183644, Note_on_c, 0, 64, 0
2, 183644, Note_on_c, 0, 79, 0
2, 183651, Note_on_c, 0, 64, 87
2, 183655, Note_on_c, 0, 79, 84
2, 183659, Note_on_c, 0, 72, 0
2, 183665, Note_on_c, 0, 72, 76
2, 183674, Note_on_c, 0, 76, 0
2, 183680, Note_on_c, 0, 76, 57
2, 183832, Note_on_c, 0, 65, 84
2, 183833, Control_c, 0, 64, 0
2, 183836, Note_on_c, 0, 62, 85
2, 183839, Note_on_c, 0, 81, 86
2, 183839, Note_on_c, 0, 77, 73
2, 183844, Note_on_c, 0, 57, 0
2, 183846, Note_on_c, 0, 72, 0
2, 183846, Note_on_c, 0, 76, 0
2, 183846, Note_on_c, 0, 67, 0
2, 183846, Note_on_c, 0, 74, 78
2, 183847, Note_on_c, 0, 64, 0
2, 183866, Note_on_c, 0, 60, 0
2, 183866, Note_on_c, 0, 79, 0
2, 183920, Control_c, 0, 64, 127
2, 184035, Note_on_c, 0, 74, 0
2, 184035, Note_on_c, 0, 77, 0
2, 184035, Note_on_c, 0, 81, 0
2, 184040, Note_on_c, 0, 81, 78
2, 184046, Note_on_c, 0, 77, 55
2, 184047, Note_on_c, 0, 74, 76
2, 184212, Note_on_c, 0, 81, 0
2, 184220, Note_on_c, 0, 74, 0
2, 184220, Note_on_c, 0, 77, 0
2, 184223, Note_on_c, 0, 81, 86
2, 184224, Note_on_c, 0, 74, 79
2, 184227, Note_on_c, 0, 77, 62
2, 184396, Note_on_c, 0, 62, 0
2, 184404, Note_on_c, 0, 81, 0
2, 184405, Note_on_c, 0, 62, 88
2, 184405, Note_on_c, 0, 60, 85
2, 184408, Note_on_c, 0, 81, 82
2, 184412, Note_on_c, 0, 74, 0
2, 184412, Note_on_c, 0, 77, 0
2, 184417, Note_on_c, 0, 77, 65
2, 184419, Note_on_c, 0, 74, 76
2, 184422, Control_c, 0, 64, 0
2, 184450, Note_on_c, 0, 65, 0
2, 184465, Control_c, 0, 64, 127
2, 184586, Note_on_c, 0, 65, 95
2, 184588, Note_on_c, 0, 77, 0
2, 184596, Note_on_c, 0, 74, 0
2, 184596, Note_on_c, 0, 81, 0
2, 184599, Note_on_c, 0, 77, 84
2, 184603, Note_on_c, 0, 74, 91
2, 184605, Note_on_c, 0, 81, 91
2, 184765, Note_on_c, 0, 62, 0
2, 184773, Note_on_c, 0, 81, 0
2, 184775, Note_on_c, 0, 62, 90
2, 184780, Note_on_c, 0, 74, 0
2, 184781, Note_on_c, 0, 81, 89
2, 184788, Note_on_c, 0, 74, 91
2, 184957, Note_on_c, 0, 65, 0
2, 184957, Note_on_c, 0, 74, 0
2, 184957, Note_on_c, 0, 81, 0
2, 184958, Note_on_c, 0, 69, 96
2, 184962, Note_on_c, 0, 65, 87
2, 184965, Note_on_c, 0, 81, 89
2, 184966, Note_on_c, 0, 58, 83
2, 184968, Note_on_c, 0, 74, 87
2, 184973, Note_on_c, 0, 60, 0
2, 184985, Control_c, 0, 64, 0
2, 185041, Note_on_c, 0, 77, 0
2, 185072, Control_c, 0, 64, 127
2, 185164, Note_on_c, 0, 81, 0
2, 185172, Note_on_c, 0, 74, 0
2, 185175, Note_on_c, 0, 81, 92
2, 185176, Note_on_c, 0, 74, 90
2, 185349, Note_on_c, 0, 74, 0
2, 185356, Note_on_c, 0, 81, 0
2, 185359, Note_on_c, 0, 74, 95
2, 185366, Note_on_c, 0, 81, 93
2, 185533, Note_on_c, 0, 81, 0
2, 185536, Note_on_c, 0, 76, 98
2, 185538, Note_on_c, 0, 81, 93
2, 185710, Note_on_c, 0, 76, 0
2, 185717, Note_on_c, 0, 81, 0
2, 185719, Note_on_c, 0, 76, 95
2, 185723, Note_on_c, 0, 81, 90
2, 185894, Note_on_c, 0, 76, 0
2, 185894, Note_on_c, 0, 81, 0
2, 185904, Note_on_c, 0, 76, 96
2, 185904, Note_on_c, 0, 81, 94
2, 186083, Note_on_c, 0, 77, 96
2, 186084, Note_on_c, 0, 64, 95
2, 186086, Note_on_c, 0, 81, 0
2, 186087, Note_on_c, 0, 67, 92
2, 186093, Note_on_c, 0, 81, 93
2, 186096, Note_on_c, 0, 60, 80
2, 186104, Note_on_c, 0, 69, 0
2, 186105, Note_on_c, 0, 58, 0
2, 186106, Note_on_c, 0, 76, 0
2, 186124, Note_on_c, 0, 74, 0
2, 186132, Control_c, 0, 64, 0
2, 186178, Control_c, 0, 64, 127
2, 186247, Note_on_c, 0, 65, 0
2, 186263, Note_on_c, 0, 77, 0
2, 186267, Note_on_c, 0, 77, 93
2, 186278, Note_on_c, 0, 81, 0
2, 186289, Note_on_c, 0, 81, 87
2, 186439, Note_on_c, 0, 77, 0
2, 186450, Note_on_c, 0, 77, 98
2, 186455, Note_on_c, 0, 81, 0
2, 186460, Note_on_c, 0, 81, 96
2, 186624, Note_on_c, 0, 81, 0
2, 186628, Note_on_c, 0, 79, 98
2, 186633, Note_on_c, 0, 81, 100
2, 186800, Note_on_c, 0, 79, 0
2, 186808, Note_on_c, 0, 81, 0
2, 186811, Note_on_c, 0, 79, 99
2, 186814, Note_on_c, 0, 81, 98
2, 186977, Note_on_c, 0, 79, 0
2, 186988, Note_on_c, 0, 79, 100
2, 186992, Note_on_c, 0, 81, 0
2, 186996, Note_on_c, 0, 81, 90
2, 187176, Note_on_c, 0, 64, 0
2, 187176, Note_on_c, 0, 67, 0
2, 187176, Note_on_c, 0, 81, 0
2, 187180, Note_on_c, 0, 67, 90
2, 187181, Note_on_c, 0, 81, 97
2, 187185, Note_on_c, 0, 76, 95
2, 187187, Note_on_c, 0, 64, 96
2, 187187, Note_on_c, 0, 61, 80
2, 187204, Note_on_c, 0, 77, 0
2, 187205, Note_on_c, 0, 60, 0
2, 187206, Note_on_c, 0, 79, 0
2, 187207, Note_on_c, 0, 62, 0
2, 187225, Control_c, 0, 64, 0
2, 187315, Control_c, 0, 64, 127
2, 187368, Note_on_c, 0, 76, 0
2, 187368, Note_on_c, 0, 81, 0
2, 187372, Note_on_c, 0, 81, 97
2, 187378, Note_on_c, 0, 76, 92
2, 187545, Note_on_c, 0, 76, 0
2, 187553, Note_on_c, 0, 81, 0
2, 187554, Note_on_c, 0, 76, 97
2, 187557, Note_on_c, 0, 81, 97
2, 187729, Note_on_c, 0, 67, 0
2, 187729, Note_on_c, 0, 76, 0
2, 187736, Note_on_c, 0, 67, 90
2, 187738, Note_on_c, 0, 76, 95
2, 187739, Note_on_c, 0, 85, 96
2, 187745, Note_on_c, 0, 61, 0
2, 187745, Note_on_c, 0, 64, 0
2, 187749, Note_on_c, 0, 64, 83
2, 187749, Note_on_c, 0, 61, 84
2, 187750, Note_on_c, 0, 57, 85
2, 187787, Note_on_c, 0, 81, 0
2, 187801, Control_c, 0, 64, 0
2, 187921, Note_on_c, 0, 85, 0
2, 187921, Control_c, 0, 64, 127
2, 187929, Note_on_c, 0, 76, 0
2, 187932, Note_on_c, 0, 85, 102
2, 187937, Note_on_c, 0, 76, 89
2, 188098, Note_on_c, 0, 76, 0
2, 188098, Note_on_c, 0, 85, 0
2, 188104, Note_on_c, 0, 85, 101
2, 188107, Note_on_c, 0, 76, 93
2, 188279, Note_on_c, 0, 86, 102
2, 188282, Note_on_c, 0, 69, 91
2, 188284, Note_on_c, 0, 62, 88
2, 188286, Note_on_c, 0, 65, 79
2, 188310, Note_on_c, 0, 57, 0
2, 188310, Note_on_c, 0, 85, 0
2, 188311, Control_c, 0, 64, 0
2, 188311, Note_on_c, 0, 76, 0
2, 188328, Note_on_c, 0, 64, 0
2, 188336, Note_on_c, 0, 61, 0
2, 188336, Note_on_c, 0, 67, 0
2, 188421, Control_c, 0, 64, 127
2, 188459, Note_on_c, 0, 86, 0
2, 188470, Note_on_c, 0, 86, 103
2, 188477, Note_on_c, 0, 77, 88
2, 188643, Note_on_c, 0, 77, 0
2, 188643, Note_on_c, 0, 86, 0
2, 188654, Note_on_c, 0, 77, 92
2, 188655, Note_on_c, 0, 86, 103
2, 188820, Note_on_c, 0, 65, 0
2, 188820, Note_on_c, 0, 69, 0
2, 188831, Note_on_c, 0, 88, 100
2, 188831, Note_on_c, 0, 69, 96
2, 188831, Note_on_c, 0, 65, 82
2, 188835, Note_on_c, 0, 62, 0
2, 188836, Note_on_c, 0, 79, 96
2, 188842, Note_on_c, 0, 60, 84
2, 188842, Note_on_c, 0, 62, 78
2, 188862, Note_on_c, 0, 77, 0
2, 188891, Control_c, 0, 64, 0
2, 188981, Control_c, 0, 64, 127
2, 189012, Note_on_c, 0, 88, 0
2, 189022, Note_on_c, 0, 88, 97
2, 189027, Note_on_c, 0, 79, 0
2, 189032, Note_on_c, 0, 79, 90
2, 189204, Note_on_c, 0, 79, 0
2, 189204, Note_on_c, 0, 88, 0
2, 189210, Note_on_c, 0, 88, 99
2, 189212, Note_on_c, 0, 79, 93
2, 189420, Note_on_c, 0, 89, 104
2, 189422, Note_on_c, 0, 77, 101
2, 189425, Note_on_c, 0, 81, 95
2, 189430, Note_on_c, 0, 58, 83
2, 189457, Control_c, 0, 64, 0
2, 189472, Note_on_c, 0, 88, 0
2, 189472, Note_on_c, 0, 60, 0
2, 189473, Note_on_c, 0, 79, 0
2, 189488, Note_on_c, 0, 62, 0
2, 189488, Note_on_c, 0, 65, 0
2, 189488, Note_on_c, 0, 86, 0
2, 189496, Note_on_c, 0, 69, 0
2, 189580, Control_c, 0, 64, 127
2, 189606, Note_on_c, 0, 65, 75
2, 189782, Note_on_c, 0, 62, 74
2, 189974, Note_on_c, 0, 74, 91
2, 190164, Note_on_c, 0, 65, 0
2, 190169, Note_on_c, 0, 65, 70
2, 190339, Note_on_c, 0, 69, 79
2, 190534, Control_c, 0, 64, 0
2, 190535, Note_on_c, 0, 81, 0
2, 190535, Note_on_c, 0, 69, 0
2, 190537, Note_on_c, 0, 62, 0
2, 190537, Note_on_c, 0, 58, 0
2, 190538, Note_on_c, 0, 74, 0
2, 190538, Note_on_c, 0, 77, 0
2, 190538, Note_on_c, 0, 65, 0
2, 190544, Note_on_c, 0, 72, 86
2, 190563, Note_on_c, 0, 67, 70
2, 190567, Note_on_c, 0, 64, 71
2, 190569, Note_on_c, 0, 60, 66
2, 190571, Note_on_c, 0, 89, 0
2, 190663, Control_c, 0, 64, 127
2, 191120, Note_on_c, 0, 88, 100
2, 191121, Note_on_c, 0, 79, 94
2, 191494, Note_on_c, 0, 77, 87
2, 191495, Note_on_c, 0, 86, 101
2, 191677, Note_on_c, 0, 72, 0
2, 191685, Note_on_c, 0, 79, 0
2, 191685, Note_on_c, 0, 88, 0
2, 191689, Note_on_c, 0, 88, 98
2, 191690, Note_on_c, 0, 79, 90
2, 191690, Note_on_c, 0, 76, 92
2, 191691, Note_on_c, 0, 61, 77
2, 191704, Note_on_c, 0, 64, 0
2, 191706, Note_on_c, 0, 67, 0
2, 191708, Note_on_c, 0, 77, 0
2, 191708, Note_on_c, 0, 86, 0
2, 191709, Note_on_c, 0, 60, 0
2, 191716, Control_c, 0, 64, 0
2, 191900, Control_c, 0, 64, 127
2, 191903, Note_on_c, 0, 67, 67
2, 192076, Note_on_c, 0, 64, 82
2, 192232, Note_on_c, 0, 70, 97
2, 192414, Note_on_c, 0, 64, 0
2, 192426, Note_on_c, 0, 64, 77
2, 192568, Note_on_c, 0, 67, 0
2, 192576, Note_on_c, 0, 67, 75
2, 192774, Control_c, 0, 64, 0
2, 192781, Note_on_c, 0, 76, 0
2, 192781, Note_on_c, 0, 61, 0
2, 192781, Note_on_c, 0, 64, 0
2, 192786, Note_on_c, 0, 70, 0
2, 192787, Note_on_c, 0, 67, 0
2, 192794, Note_on_c, 0, 69, 85
2, 192794, Note_on_c, 0, 62, 68
2, 192795, Note_on_c, 0, 65, 73
2, 193380, Note_on_c, 0, 89, 98
2, 193380, Note_on_c, 0, 77, 90
2, 193420, Note_on_c, 0, 79, 0
2, 193420, Control_c, 0, 64, 127
2, 193758, Note_on_c, 0, 88, 0
2, 193769, Note_on_c, 0, 88, 96
2, 193770, Note_on_c, 0, 76, 87
2, 193808, Control_c, 0, 64, 0
2, 193843, Control_c, 0, 64, 127
2, 193950, Note_on_c, 0, 77, 0
2, 193966, Note_on_c, 0, 69, 0
2, 193973, Note_on_c, 0, 89, 0
2, 193973, Control_c, 0, 64, 0
2, 193976, Note_on_c, 0, 86, 99
2, 193978, Note_on_c, 0, 74, 89
2, 193982, Note_on_c, 0, 88, 0
2, 193985, Note_on_c, 0, 76, 0
2, 194019, Note_on_c, 0, 65, 0
2, 194112, Note_on_c, 0, 62, 0
2, 194181, Control_c, 0, 64, 127
2, 194348, Note_on_c, 0, 58, 78
2, 194533, Note_on_c, 0, 77, 87
2, 194554, Note_on_c, 0, 70, 85
2, 194560, Note_on_c, 0, 62, 74
2, 194561, Note_on_c, 0, 65, 69
2, 194562, Note_on_c, 0, 74, 0
2, 194588, Control_c, 0, 64, 0
2, 194664, Note_on_c, 0, 86, 0
2, 194672, Control_c, 0, 64, 127
2, 194917, Note_on_c, 0, 76, 85
2, 195105, Control_c, 0, 64, 0
2, 195113, Note_on_c, 0, 70, 0
2, 195117, Note_on_c, 0, 58, 0
2, 195119, Note_on_c, 0, 62, 0
2, 195119, Note_on_c, 0, 65, 0
2, 195119, Note_on_c, 0, 77, 0
2, 195122, Note_on_c, 0, 76, 0
2, 195127, Note_on_c, 0, 74, 90
2, 195371, Control_c, 0, 64, 127
2, 195514, Note_on_c, 0, 60, 81
2, 195713, Note_on_c, 0, 89, 100
2, 195713, Note_on_c, 0, 77, 94
2, 195724, Note_on_c, 0, 60, 0
2, 195725, Note_on_c, 0, 74, 0
2, 195728, Note_on_c, 0, 72, 88
2, 195731, Note_on_c, 0, 60, 65
2, 195735, Note_on_c, 0, 64, 73
2, 195737, Note_on_c, 0, 67, 71
2, 195740, Control_c, 0, 64, 0
2, 195870, Control_c, 0, 64, 127
2, 196119, Note_on_c, 0, 88, 98
2, 196121, Note_on_c, 0, 76, 87
2, 196162, Control_c, 0, 64, 0
2, 196193, Control_c, 0, 64, 127
2, 196350, Note_on_c, 0, 86, 101
2, 196353, Note_on_c, 0, 74, 91
2, 196369, Note_on_c, 0, 77, 0
2, 196381, Note_on_c, 0, 72, 0
2, 196381, Note_on_c, 0, 89, 0
2, 196381, Note_on_c, 0, 88, 0
2, 196383, Note_on_c, 0, 76, 0
2, 196392, Control_c, 0, 64, 0
2, 196477, Control_c, 0, 64, 127
2, 197729, Note_on_c, 0, 60, 0
2, 197732, Note_on_c, 0, 74, 0
2, 197733, Note_on_c, 0, 86, 0
2, 197734, Control_c, 0, 64, 0
2, 197736, Note_on_c, 0, 64, 0
2, 197736, Note_on_c, 0, 67, 0
2, 197740, Note_on_c, 0, 50, 104
2, 197742, Note_on_c, 0, 38, 101
2, 197742, Note_on_c, 0, 45, 98
2, 197760, Control_c, 0, 64, 127
2, 197905, Note_on_c, 0, 38, 0
2, 197917, Note_on_c, 0, 38, 97
2, 197917, Note_on_c, 0, 26, 88
2, 197932, Note_on_c, 0, 62, 96
2, 198000, Note_on_c, 0, 69, 98
2, 198059, Note_on_c, 0, 69, 0
2, 198062, Note_on_c, 0, 74, 104
2, 198066, Note_on_c, 0, 69, 81
2, 198074, Note_on_c, 0, 50, 0
2, 198082, Note_on_c, 0, 38, 0
2, 198085, Note_on_c, 0, 50, 91
2, 198086, Note_on_c, 0, 38, 91
2, 198128, Note_on_c, 0, 74, 0
2, 198135, Note_on_c, 0, 74, 98
2, 198182, Note_on_c, 0, 81, 95
2, 198251, Note_on_c, 0, 50, 0
2, 198255, Note_on_c, 0, 86, 104
2, 198259, Note_on_c, 0, 38, 0
2, 198259, Note_on_c, 0, 45, 0
2, 198262, Note_on_c, 0, 50, 102
2, 198263, Note_on_c, 0, 38, 97
2, 198265, Note_on_c, 0, 45, 90
2, 198412, Note_on_c, 0, 38, 0
2, 198412, Note_on_c, 0, 45, 0
2, 198412, Note_on_c, 0, 50, 0
2, 198417, Note_on_c, 0, 38, 107
2, 198417, Note_on_c, 0, 50, 98
2, 198420, Note_on_c, 0, 45, 97
2, 198457, Note_on_c, 0, 103, 92
2, 198466, Note_on_c, 0, 101, 104
2, 198466, Note_on_c, 0, 103, 0
2, 198475, Note_on_c, 0, 100, 98
2, 198500, Note_on_c, 0, 98, 104
2, 198513, Note_on_c, 0, 96, 93
2, 198531, Note_on_c, 0, 95, 87
2, 198540, Note_on_c, 0, 93, 95
2, 198553, Note_on_c, 0, 91, 92
2, 198563, Note_on_c, 0, 89, 91
2, 198574, Note_on_c, 0, 86, 0
2, 198579, Note_on_c, 0, 88, 82
2, 198583, Note_on_c, 0, 86, 89
2, 198597, Note_on_c, 0, 84, 85
2, 198612, Note_on_c, 0, 81, 0
2, 198619, Note_on_c, 0, 81, 100
2, 198620, Note_on_c, 0, 83, 99
2, 198630, Note_on_c, 0, 79, 98
2, 198649, Note_on_c, 0, 77, 94
2, 198656, Note_on_c, 0, 76, 97
2, 198658, Note_on_c, 0, 74, 0
2, 198666, Note_on_c, 0, 74, 99
2, 198678, Note_on_c, 0, 72, 95
2, 198696, Note_on_c, 0, 69, 0
2, 198704, Note_on_c, 0, 71, 96
2, 198707, Note_on_c, 0, 69, 89
2, 198726, Note_on_c, 0, 67, 93
2, 198738, Note_on_c, 0, 65, 94
2, 198739, Note_on_c, 0, 64, 81
2, 198758, Note_on_c, 0, 62, 0
2, 198765, Note_on_c, 0, 62, 84
2, 198772, Note_on_c, 0, 60, 87
2, 198783, Note_on_c, 0, 59, 93
2, 198812, Note_on_c, 0, 57, 96
2, 198825, Note_on_c, 0, 55, 82
2, 198904, Note_on_c, 0, 38, 0
2, 198914, Note_on_c, 0, 38, 101
2, 198930, Note_on_c, 0, 50, 0
2, 198973, Note_on_c, 0, 62, 0
2, 198973, Note_on_c, 0, 74, 0
2, 198982, Note_on_c, 0, 74, 112
2, 198982, Note_on_c, 0, 62, 110
2, 199157, Note_on_c, 0, 65, 0
2, 199157, Note_on_c, 0, 77, 0
2, 199161, Note_on_c, 0, 77, 104
2, 199162, Note_on_c, 0, 65, 106
2, 199254, Note_on_c, 0, 36, 90
2, 199309, Note_on_c, 0, 95, 0
2, 199310, Note_on_c, 0, 59, 0
2, 199310, Note_on_c, 0, 83, 0
2, 199310, Note_on_c, 0, 86, 0
2, 199310, Note_on_c, 0, 100, 0
2, 199311, Note_on_c, 0, 98, 0
2, 199311, Note_on_c, 0, 26, 0
2, 199312, Note_on_c, 0, 57, 0
2, 199312, Note_on_c, 0, 88, 0
2, 199312, Note_on_c, 0, 71, 0
2, 199312, Note_on_c, 0, 84, 0
2, 199312, Note_on_c, 0, 81, 0
2, 199312, Note_on_c, 0, 64, 0
2, 199312, Note_on_c, 0, 93, 0
2, 199312, Note_on_c, 0, 65, 0
2, 199312, Note_on_c, 0, 96, 0
2, 199312, Note_on_c, 0, 55, 0
2, 199312, Note_on_c, 0, 69, 0
2, 199313, Note_on_c, 0, 79, 0
2, 199313, Note_on_c, 0, 72, 0
2, 199313, Note_on_c, 0, 77, 0
2, 199314, Note_on_c, 0, 91, 0
2, 199314, Note_on_c, 0, 76, 0
2, 199314, Note_on_c, 0, 89, 0
2, 199314, Note_on_c, 0, 67, 0
2, 199315, Note_on_c, 0, 60, 0
2, 199319, Note_on_c, 0, 45, 0
2, 199320, Control_c, 0, 64, 0
2, 199323, Note_on_c, 0, 48, 94
2, 199326, Note_on_c, 0, 38, 0
2, 199326, Note_on_c, 0, 62, 0
2, 199326, Note_on_c, 0, 74, 0
2, 199326, Note_on_c, 0, 101, 0
2, 199331, Note_on_c, 0, 62, 102
2, 199332, Note_on_c, 0, 74, 109
2, 199349, Note_on_c, 0, 36, 0
2, 199356, Note_on_c, 0, 48, 0
2, 199373, Note_on_c, 0, 74, 0
2, 199388, Note_on_c, 0, 62, 0
2, 199529, Note_on_c, 0, 81, 109
2, 199530, Note_on_c, 0, 69, 106
2, 199532, Note_on_c, 0, 77, 99
2, 199534, Note_on_c, 0, 74, 107
2, 199564, Control_c, 0, 64, 127
2, 199708, Note_on_c, 0, 34, 91
2, 199710, Note_on_c, 0, 22, 91
2, 199787, Note_on_c, 0, 34, 0
2, 199791, Note_on_c, 0, 34, 93
2, 199895, Note_on_c, 0, 34, 0
2, 199902, Note_on_c, 0, 34, 85
2, 199975, Note_on_c, 0, 46, 98
2, 200067, Note_on_c, 0, 53, 101
2, 200067, Note_on_c, 0, 50, 100
2, 200240, Note_on_c, 0, 34, 0
2, 200248, Note_on_c, 0, 34, 89
2, 200325, Note_on_c, 0, 46, 0
2, 200336, Note_on_c, 0, 46, 96
2, 200424, Note_on_c, 0, 74, 0
2, 200431, Note_on_c, 0, 74, 107
2, 200431, Note_on_c, 0, 62, 104
2, 200492, Control_c, 0, 64, 0
2, 200493, Note_on_c, 0, 62, 0
2, 200494, Note_on_c, 0, 77, 0
2, 200495, Note_on_c, 0, 74, 0
2, 200495, Note_on_c, 0, 34, 0
2, 200495, Note_on_c, 0, 81, 0
2, 200496, Note_on_c, 0, 53, 0
2, 200496, Note_on_c, 0, 50, 0
2, 200496, Note_on_c, 0, 46, 0
2, 200501, Note_on_c, 0, 22, 0
2, 200501, Note_on_c, 0, 69, 0
2, 200620, Note_on_c, 0, 79, 110
2, 200621, Note_on_c, 0, 72, 102
2, 200622, Note_on_c, 0, 67, 102
2, 200624, Note_on_c, 0, 76, 104
2, 200626, Note_on_c, 0, 36, 102
2, 200627, Note_on_c, 0, 24, 100
2, 200632, Control_c, 0, 64, 127
2, 200724, Note_on_c, 0, 24, 0
2, 200801, Note_on_c, 0, 36, 0
2, 200810, Note_on_c, 0, 37, 85
2, 200812, Note_on_c, 0, 36, 88
2, 200877, Note_on_c, 0, 48, 95
2, 200939, Note_on_c, 0, 37, 0
2, 200991, Note_on_c, 0, 55, 100
2, 200995, Note_on_c, 0, 52, 94
2, 201096, Note_on_c, 0, 72, 0
2, 201096, Note_on_c, 0, 36, 0
2, 201097, Note_on_c, 0, 67, 0
2, 201097, Note_on_c, 0, 48, 0
2, 201097, Note_on_c, 0, 76, 0
2, 201097, Note_on_c, 0, 55, 0
2, 201097, Note_on_c, 0, 79, 0
2, 201097, Note_on_c, 0, 52, 0
2, 201104, Control_c, 0, 64, 0
2, 201175, Note_on_c, 0, 79, 108
2, 201177, Note_on_c, 0, 67, 105
2, 201210, Note_on_c, 0, 67, 0
2, 201212, Note_on_c, 0, 79, 0
2, 201355, Note_on_c, 0, 77, 105
2, 201357, Note_on_c, 0, 65, 105
2, 201382, Note_on_c, 0, 65, 0
2, 201535, Note_on_c, 0, 76, 106
2, 201536, Note_on_c, 0, 64, 108
2, 201615, Note_on_c, 0, 77, 0
2, 201621, Note_on_c, 0, 64, 0
2, 201707, Note_on_c, 0, 76, 0
2, 201727, Note_on_c, 0, 72, 108
2, 201731, Note_on_c, 0, 60, 101
2, 201732, Note_on_c, 0, 64, 103
2, 201753, Control_c, 0, 64, 127
2, 201792, Note_on_c, 0, 60, 0
2, 201906, Note_on_c, 0, 33, 94
2, 201989, Note_on_c, 0, 45, 95
2, 202091, Note_on_c, 0, 33, 0
2, 202098, Note_on_c, 0, 33, 90
2, 202101, Note_on_c, 0, 79, 107
2, 202103, Note_on_c, 0, 67, 101
2, 202168, Note_on_c, 0, 45, 0
2, 202174, Note_on_c, 0, 45, 94
2, 202275, Note_on_c, 0, 72, 0
2, 202275, Note_on_c, 0, 79, 0
2, 202283, Note_on_c, 0, 45, 0
2, 202283, Note_on_c, 0, 67, 0
2, 202285, Note_on_c, 0, 79, 109
2, 202286, Note_on_c, 0, 76, 105
2, 202286, Note_on_c, 0, 72, 100
2, 202287, Note_on_c, 0, 55, 102
2, 202287, Note_on_c, 0, 67, 103
2, 202288, Note_on_c, 0, 52, 95
2, 202294, Note_on_c, 0, 45, 96
2, 202452, Note_on_c, 0, 45, 0
2, 202457, Note_on_c, 0, 45, 70
2, 202458, Note_on_c, 0, 77, 101
2, 202460, Note_on_c, 0, 73, 82
2, 202460, Note_on_c, 0, 65, 102
2, 202536, Note_on_c, 0, 33, 0
2, 202546, Note_on_c, 0, 33, 94
2, 202621, Note_on_c, 0, 45, 0
2, 202621, Note_on_c, 0, 64, 0
2, 202621, Note_on_c, 0, 76, 0
2, 202631, Note_on_c, 0, 76, 107
2, 202631, Note_on_c, 0, 64, 106
2, 202632, Note_on_c, 0, 45, 98
2, 202694, Note_on_c, 0, 77, 0
2, 202694, Note_on_c, 0, 65, 0
2, 202694, Note_on_c, 0, 79, 0
2, 202695, Note_on_c, 0, 67, 0
2, 202695, Note_on_c, 0, 52, 0
2, 202696, Note_on_c, 0, 64, 0
2, 202696, Note_on_c, 0, 76, 0
2, 202697, Note_on_c, 0, 45, 0
2, 202697, Note_on_c, 0, 55, 0
2, 202700, Control_c, 0, 64, 0
2, 202705, Note_on_c, 0, 72, 0
2, 202713, Note_on_c, 0, 33, 0
2, 202713, Note_on_c, 0, 73, 0
2, 202804, Note_on_c, 0, 77, 105
2, 202806, Note_on_c, 0, 74, 106
2, 202808, Note_on_c, 0, 50, 108
2, 202808, Note_on_c, 0, 65, 104
2, 202809, Note_on_c, 0, 38, 103
2, 202809, Note_on_c, 0, 69, 97
2, 202844, Control_c, 0, 64, 127
2, 202851, Note_on_c, 0, 65, 0
2, 202990, Note_on_c, 0, 38, 0
2, 202996, Note_on_c, 0, 38, 90
2, 203066, Note_on_c, 0, 50, 0
2, 203072, Note_on_c, 0, 50, 95
2, 203162, Note_on_c, 0, 53, 97
2, 203163, Note_on_c, 0, 57, 106
2, 203330, Note_on_c, 0, 53, 0
2, 203330, Note_on_c, 0, 57, 0
2, 203332, Note_on_c, 0, 50, 0
2, 203332, Control_c, 0, 64, 0
2, 203335, Note_on_c, 0, 69, 0
2, 203335, Note_on_c, 0, 77, 0
2, 203343, Note_on_c, 0, 74, 0
2, 203349, Note_on_c, 0, 74, 108
2, 203351, Note_on_c, 0, 38, 0
2, 203351, Note_on_c, 0, 62, 107
2, 203386, Note_on_c, 0, 62, 0
2, 203386, Note_on_c, 0, 74, 0
2, 203539, Note_on_c, 0, 77, 104
2, 203540, Note_on_c, 0, 65, 105
2, 203562, Note_on_c, 0, 65, 0
2, 203681, Note_on_c, 0, 77, 0
2, 203718, Note_on_c, 0, 74, 109
2, 203718, Note_on_c, 0, 62, 105
2, 203747, Note_on_c, 0, 74, 0
2, 203748, Note_on_c, 0, 62, 0
2, 203913, Note_on_c, 0, 81, 109
2, 203913, Note_on_c, 0, 69, 104
2, 203915, Note_on_c, 0, 77, 98
2, 203917, Note_on_c, 0, 74, 103
2, 203957, Control_c, 0, 64, 127
2, 204086, Note_on_c, 0, 34, 94
2, 204087, Note_on_c, 0, 22, 91
2, 204157, Note_on_c, 0, 34, 0
2, 204162, Note_on_c, 0, 34, 92
2, 204264, Note_on_c, 0, 34, 0
2, 204269, Note_on_c, 0, 34, 92
2, 204342, Note_on_c, 0, 46, 99
2, 204451, Note_on_c, 0, 53, 100
2, 204452, Note_on_c, 0, 50, 99
2, 204633, Note_on_c, 0, 34, 0
2, 204640, Note_on_c, 0, 34, 87
2, 204725, Note_on_c, 0, 46, 0
2, 204736, Note_on_c, 0, 46, 96
2, 204840, Note_on_c, 0, 74, 0
2, 204846, Note_on_c, 0, 74, 106
2, 204852, Note_on_c, 0, 62, 100
2, 204912, Control_c, 0, 64, 0
2, 204917, Note_on_c, 0, 34, 0
2, 204918, Note_on_c, 0, 69, 0
2, 204918, Note_on_c, 0, 81, 0
2, 204919, Note_on_c, 0, 77, 0
2, 204919, Note_on_c, 0, 50, 0
2, 204919, Note_on_c, 0, 53, 0
2, 204920, Note_on_c, 0, 62, 0
2, 204920, Note_on_c, 0, 74, 0
2, 204925, Note_on_c, 0, 22, 0
2, 204933, Note_on_c, 0, 46, 0
2, 205019, Note_on_c, 0, 79, 108
2, 205019, Note_on_c, 0, 72, 102
2, 205020, Note_on_c, 0, 76, 108
2, 205022, Note_on_c, 0, 67, 103
2, 205023, Note_on_c, 0, 36, 104
2, 205025, Note_on_c, 0, 24, 99
2, 205063, Control_c, 0, 64, 127
2, 205155, Note_on_c, 0, 24, 0
2, 205201, Note_on_c, 0, 36, 0
2, 205209, Note_on_c, 0, 36, 89
2, 205295, Note_on_c, 0, 48, 96
2, 205389, Note_on_c, 0, 52, 96
2, 205389, Note_on_c, 0, 55, 101
2, 205506, Note_on_c, 0, 48, 0
2, 205506, Note_on_c, 0, 76, 0
2, 205506, Note_on_c, 0, 36, 0
2, 205507, Note_on_c, 0, 79, 0
2, 205509, Note_on_c, 0, 67, 0
2, 205509, Note_on_c, 0, 72, 0
2, 205511, Note_on_c, 0, 52, 0
2, 205511, Note_on_c, 0, 55, 0
2, 205517, Control_c, 0, 64, 0
2, 205593, Note_on_c, 0, 79, 108
2, 205595, Note_on_c, 0, 67, 107
2, 205629, Note_on_c, 0, 67, 0
2, 205634, Note_on_c, 0, 79, 0
2, 205767, Note_on_c, 0, 81, 109
2, 205771, Note_on_c, 0, 69, 108
2, 205800, Note_on_c, 0, 69, 0
2, 205803, Note_on_c, 0, 81, 0
2, 205955, Note_on_c, 0, 82, 107
2, 205956, Note_on_c, 0, 70, 102
2, 205982, Note_on_c, 0, 70, 0
2, 205983, Note_on_c, 0, 82, 0
2, 206141, Note_on_c, 0, 85, 108
2, 206142, Note_on_c, 0, 73, 112
2, 206143, Note_on_c, 0, 49, 104
2, 206143, Note_on_c, 0, 37, 99
2, 206145, Note_on_c, 0, 76, 98
2, 206192, Control_c, 0, 64, 127
2, 206333, Note_on_c, 0, 57, 101
2, 206427, Note_on_c, 0, 52, 86
2, 206476, Note_on_c, 0, 49, 0
2, 206481, Note_on_c, 0, 49, 85
2, 206578, Note_on_c, 0, 45, 96
2, 206688, Control_c, 0, 64, 0
2, 206691, Note_on_c, 0, 76, 0
2, 206694, Note_on_c, 0, 33, 91
2, 206695, Note_on_c, 0, 52, 0
2, 206696, Note_on_c, 0, 37, 0
2, 206696, Note_on_c, 0, 49, 0
2, 206696, Note_on_c, 0, 88, 108
2, 206696, Note_on_c, 0, 73, 0
2, 206696, Note_on_c, 0, 85, 0
2, 206697, Note_on_c, 0, 57, 0
2, 206698, Note_on_c, 0, 76, 107
2, 206698, Note_on_c, 0, 79, 105
2, 206698, Note_on_c, 0, 45, 0
2, 206745, Note_on_c, 0, 33, 0
2, 206768, Control_c, 0, 64, 127
2, 206769, Note_on_c, 0, 45, 96
2, 206905, Note_on_c, 0, 49, 89
2, 206957, Note_on_c, 0, 86, 104
2, 206959, Note_on_c, 0, 74, 106
2, 206997, Note_on_c, 0, 52, 84
2, 207022, Note_on_c, 0, 74, 0
2, 207022, Note_on_c, 0, 86, 0
2, 207031, Note_on_c, 0, 78, 74
2, 207032, Note_on_c, 0, 86, 98
2, 207033, Note_on_c, 0, 74, 98
2, 207037, Note_on_c, 0, 78, 0
2, 207067, Note_on_c, 0, 57, 96
2, 207229, Note_on_c, 0, 86, 0
2, 207237, Note_on_c, 0, 74, 0
2, 207240, Note_on_c, 0, 86, 104
2, 207241, Note_on_c, 0, 74, 106
2, 207241, Note_on_c, 0, 77, 97
2, 207241, Note_on_c, 0, 38, 96
2, 207242, Note_on_c, 0, 81, 100
2, 207249, Note_on_c, 0, 76, 0
2, 207253, Note_on_c, 0, 57, 0
2, 207253, Note_on_c, 0, 52, 0
2, 207254, Note_on_c, 0, 49, 0
2, 207254, Control_c, 0, 64, 0
2, 207256, Note_on_c, 0, 45, 0
2, 207257, Note_on_c, 0, 79, 0
2, 207267, Note_on_c, 0, 88, 0
2, 207309, Note_on_c, 0, 45, 80
2, 207329, Note_on_c, 0, 74, 0
2, 207336, Control_c, 0, 64, 127
2, 207379, Note_on_c, 0, 50, 90
2, 207479, Note_on_c, 0, 52, 91
2, 207528, Note_on_c, 0, 53, 91
2, 207606, Note_on_c, 0, 57, 103
2, 207790, Note_on_c, 0, 52, 0
2, 207792, Control_c, 0, 64, 0
2, 207793, Note_on_c, 0, 53, 0
2, 207793, Note_on_c, 0, 38, 0
2, 207793, Note_on_c, 0, 81, 0
2, 207801, Note_on_c, 0, 57, 0
2, 207805, Note_on_c, 0, 45, 0
2, 207805, Note_on_c, 0, 86, 0
2, 207811, Note_on_c, 0, 62, 103
2, 207813, Note_on_c, 0, 77, 0
2, 207815, Note_on_c, 0, 48, 102
2, 207816, Note_on_c, 0, 36, 97
2, 207828, Note_on_c, 0, 50, 0
2, 207874, Note_on_c, 0, 62, 0
2, 207882, Control_c, 0, 64, 127
2, 208035, Note_on_c, 0, 65, 104
2, 208112, Note_on_c, 0, 36, 0
2, 208117, Note_on_c, 0, 36, 86
2, 208204, Note_on_c, 0, 48, 0
2, 208211, Note_on_c, 0, 48, 95
2, 208236, Note_on_c, 0, 62, 100
2, 208492, Control_c, 0, 64, 0
2, 208492, Note_on_c, 0, 36, 0
2, 208494, Note_on_c, 0, 48, 0
2, 208527, Note_on_c, 0, 62, 0
2, 208527, Note_on_c, 0, 65, 0
2, 208531, Note_on_c, 0, 69, 108
2, 208535, Note_on_c, 0, 46, 101
2, 208537, Note_on_c, 0, 62, 102
2, 208538, Note_on_c, 0, 65, 96
2, 208538, Note_on_c, 0, 34, 96
2, 208604, Control_c, 0, 64, 127
2, 208766, Note_on_c, 0, 74, 100
2, 208864, Note_on_c, 0, 77, 95
2, 208939, Note_on_c, 0, 81, 98
2, 208965, Note_on_c, 0, 34, 0
2, 209037, Note_on_c, 0, 86, 102
2, 209141, Note_on_c, 0, 65, 0
2, 209141, Note_on_c, 0, 69, 0
2, 209141, Note_on_c, 0, 74, 0
2, 209146, Note_on_c, 0, 98, 109
2, 209149, Note_on_c, 0, 74, 110
2, 209151, Note_on_c, 0, 65, 103
2, 209152, Note_on_c, 0, 69, 101
2, 209160, Control_c, 0, 64, 0
2, 209166, Note_on_c, 0, 77, 0
2, 209172, Note_on_c, 0, 46, 0
2, 209180, Note_on_c, 0, 62, 0
2, 209218, Control_c, 0, 64, 127
2, 209232, Note_on_c, 0, 93, 96
2, 209319, Note_on_c, 0, 89, 99
2, 209418, Note_on_c, 0, 86, 0
2, 209426, Note_on_c, 0, 86, 97
2, 209502, Note_on_c, 0, 81, 0
2, 209507, Note_on_c, 0, 72, 104
2, 209513, Note_on_c, 0, 81, 92
2, 209608, Note_on_c, 0, 77, 80
2, 209702, Note_on_c, 0, 72, 0
2, 209708, Note_on_c, 0, 72, 107
2, 209712, Note_on_c, 0, 48, 101
2, 209714, Note_on_c, 0, 36, 96
2, 209717, Note_on_c, 0, 98, 0
2, 209724, Note_on_c, 0, 86, 0
2, 209724, Note_on_c, 0, 93, 0
2, 209725, Note_on_c, 0, 89, 0
2, 209725, Control_c, 0, 64, 0
2, 209728, Note_on_c, 0, 77, 0
2, 209728, Note_on_c, 0, 81, 0
2, 209740, Note_on_c, 0, 65, 0
2, 209740, Note_on_c, 0, 69, 0
2, 209740, Note_on_c, 0, 74, 0
2, 209817, Control_c, 0, 64, 127
2, 209914, Note_on_c, 0, 76, 96
2, 210021, Note_on_c, 0, 79, 90
2, 210108, Note_on_c, 0, 84, 97
2, 210193, Note_on_c, 0, 88, 103
2, 210285, Note_on_c, 0, 67, 100
2, 210286, Note_on_c, 0, 64, 104
2, 210287, Note_on_c, 0, 96, 105
2, 210288, Note_on_c, 0, 60, 98
2, 210372, Note_on_c, 0, 91, 104
2, 210462, Note_on_c, 0, 88, 0
2, 210467, Note_on_c, 0, 88, 98
2, 210539, Note_on_c, 0, 84, 0
2, 210550, Note_on_c, 0, 84, 100
2, 210631, Note_on_c, 0, 79, 0
2, 210635, Note_on_c, 0, 79, 98
2, 210641, Note_on_c, 0, 65, 98
2, 210716, Note_on_c, 0, 76, 0
2, 210720, Note_on_c, 0, 76, 80
2, 210798, Control_c, 0, 64, 0
2, 210800, Note_on_c, 0, 48, 0
2, 210801, Note_on_c, 0, 60, 0
2, 210801, Note_on_c, 0, 96, 0
2, 210802, Note_on_c, 0, 88, 0
2, 210802, Note_on_c, 0, 76, 0
2, 210802, Note_on_c, 0, 79, 0
2, 210802, Note_on_c, 0, 91, 0
2, 210802, Note_on_c, 0, 67, 0
2, 210803, Note_on_c, 0, 65, 0
2, 210808, Note_on_c, 0, 36, 0
2, 210808, Note_on_c, 0, 72, 0
2, 210816, Note_on_c, 0, 84, 0
2, 210831, Note_on_c, 0, 64, 0
2, 210836, Note_on_c, 0, 64, 102
2, 210842, Note_on_c, 0, 49, 101
2, 210843, Note_on_c, 0, 37, 95
2, 210892, Control_c, 0, 64, 127
2, 211032, Note_on_c, 0, 76, 99
2, 211123, Note_on_c, 0, 79, 96
2, 211216, Note_on_c, 0, 82, 97
2, 211304, Note_on_c, 0, 88, 99
2, 211397, Note_on_c, 0, 94, 101
2, 211399, Note_on_c, 0, 64, 0
2, 211403, Note_on_c, 0, 70, 105
2, 211407, Note_on_c, 0, 61, 101
2, 211408, Note_on_c, 0, 64, 100
2, 211496, Note_on_c, 0, 91, 100
2, 211576, Note_on_c, 0, 88, 0
2, 211580, Note_on_c, 0, 88, 91
2, 211660, Note_on_c, 0, 82, 0
2, 211666, Note_on_c, 0, 82, 98
2, 211745, Note_on_c, 0, 79, 0
2, 211753, Note_on_c, 0, 79, 101
2, 211758, Note_on_c, 0, 69, 102
2, 211837, Note_on_c, 0, 76, 0
2, 211842, Note_on_c, 0, 76, 93
2, 211925, Control_c, 0, 64, 0
2, 211925, Note_on_c, 0, 61, 0
2, 211926, Note_on_c, 0, 49, 0
2, 211926, Note_on_c, 0, 88, 0
2, 211926, Note_on_c, 0, 37, 0
2, 211926, Note_on_c, 0, 94, 0
2, 211926, Note_on_c, 0, 64, 0
2, 211926, Note_on_c, 0, 91, 0
2, 211927, Note_on_c, 0, 79, 0
2, 211927, Note_on_c, 0, 70, 0
2, 211927, Note_on_c, 0, 76, 0
2, 211930, Note_on_c, 0, 82, 0
2, 211944, Note_on_c, 0, 69, 0
2, 211949, Note_on_c, 0, 69, 104
2, 211958, Note_on_c, 0, 50, 104
2, 211964, Note_on_c, 0, 38, 94
2, 212014, Control_c, 0, 64, 127
2, 212163, Note_on_c, 0, 74, 100
2, 212240, Note_on_c, 0, 77, 94
2, 212328, Note_on_c, 0, 81, 97
2, 212415, Note_on_c, 0, 86, 102
2, 212515, Note_on_c, 0, 93, 102
2, 212523, Note_on_c, 0, 65, 105
2, 212525, Note_on_c, 0, 62, 98
2, 212526, Note_on_c, 0, 57, 104
2, 212614, Note_on_c, 0, 89, 102
2, 212636, Note_on_c, 0, 38, 0
2, 212712, Note_on_c, 0, 86, 0
2, 212716, Note_on_c, 0, 86, 104
2, 212797, Note_on_c, 0, 81, 0
2, 212803, Note_on_c, 0, 81, 101
2, 212869, Note_on_c, 0, 64, 105
2, 212889, Note_on_c, 0, 77, 0
2, 212894, Note_on_c, 0, 77, 87
2, 212974, Note_on_c, 0, 74, 0
2, 212983, Note_on_c, 0, 74, 97
2, 213050, Note_on_c, 0, 93, 0
2, 213057, Note_on_c, 0, 64, 0
2, 213057, Note_on_c, 0, 69, 0
2, 213058, Note_on_c, 0, 77, 0
2, 213059, Note_on_c, 0, 89, 0
2, 213059, Note_on_c, 0, 50, 0
2, 213059, Note_on_c, 0, 81, 0
2, 213060, Note_on_c, 0, 86, 0
2, 213060, Note_on_c, 0, 65, 0
2, 213060, Note_on_c, 0, 74, 0
2, 213060, Note_on_c, 0, 57, 0
2, 213063, Control_c, 0, 64, 0
2, 213066, Note_on_c, 0, 62, 0
2, 213070, Note_on_c, 0, 43, 102
2, 213070, Note_on_c, 0, 62, 104
2, 213173, Control_c, 0, 64, 127
2, 213253, Note_on_c, 0, 65, 100
2, 213299, Note_on_c, 0, 50, 86
2, 213348, Note_on_c, 0, 70, 97
2, 213449, Note_on_c, 0, 53, 98
2, 213451, Note_on_c, 0, 74, 103
2, 213540, Note_on_c, 0, 77, 92
2, 213619, Note_on_c, 0, 65, 0
2, 213628, Note_on_c, 0, 65, 107
2, 213633, Note_on_c, 0, 55, 98
2, 213633, Note_on_c, 0, 58, 100
2, 213638, Note_on_c, 0, 86, 102
2, 213841, Note_on_c, 0, 58, 0
2, 213850, Note_on_c, 0, 58, 69
2, 213888, Note_on_c, 0, 55, 0
2, 213891, Note_on_c, 0, 55, 78
2, 213986, Note_on_c, 0, 64, 102
2, 214169, Control_c, 0, 64, 0
2, 214179, Note_on_c, 0, 62, 0
2, 214183, Note_on_c, 0, 55, 0
2, 214184, Note_on_c, 0, 74, 0
2, 214184, Note_on_c, 0, 77, 0
2, 214184, Note_on_c, 0, 70, 0
2, 214184, Note_on_c, 0, 53, 0
2, 214184, Note_on_c, 0, 86, 0
2, 214184, Note_on_c, 0, 43, 0
2, 214184, Note_on_c, 0, 65, 0
2, 214185, Note_on_c, 0, 50, 0
2, 214185, Note_on_c, 0, 62, 104
2, 214185, Note_on_c, 0, 64, 0
2, 214187, Note_on_c, 0, 36, 91
2, 214210, Note_on_c, 0, 58, 0
2, 214248, Control_c, 0, 64, 127
2, 214372, Note_on_c, 0, 64, 104
2, 214379, Note_on_c, 0, 62, 0
2, 214402, Note_on_c, 0, 43, 94
2, 214449, Note_on_c, 0, 67, 90
2, 214544, Note_on_c, 0, 48, 92
2, 214545, Note_on_c, 0, 72, 97
2, 214645, Note_on_c, 0, 76, 93
2, 214732, Note_on_c, 0, 43, 0
2, 214732, Note_on_c, 0, 48, 0
2, 214735, Note_on_c, 0, 60, 104
2, 214737, Note_on_c, 0, 48, 90
2, 214737, Note_on_c, 0, 55, 99
2, 214738, Note_on_c, 0, 43, 92
2, 214738, Note_on_c, 0, 84, 100
2, 214740, Note_on_c, 0, 65, 103
2, 214993, Note_on_c, 0, 43, 0
2, 214993, Note_on_c, 0, 55, 0
2, 215000, Note_on_c, 0, 55, 91
2, 215004, Note_on_c, 0, 43, 74
2, 215078, Note_on_c, 0, 64, 0
2, 215088, Note_on_c, 0, 64, 103
2, 215252, Note_on_c, 0, 60, 0
2, 215253, Note_on_c, 0, 64, 0
2, 215253, Note_on_c, 0, 76, 0
2, 215253, Note_on_c, 0, 36, 0
2, 215253, Note_on_c, 0, 48, 0
2, 215254, Note_on_c, 0, 72, 0
2, 215254, Note_on_c, 0, 65, 0
2, 215254, Note_on_c, 0, 84, 0
2, 215254, Note_on_c, 0, 67, 0
2, 215255, Note_on_c, 0, 43, 0
2, 215256, Note_on_c, 0, 55, 0
2, 215259, Control_c, 0, 64, 0
2, 215288, Note_on_c, 0, 62, 105
2, 215288, Note_on_c, 0, 50, 108
2, 215290, Note_on_c, 0, 38, 97
2, 215331, Control_c, 0, 64, 127
2, 215491, Note_on_c, 0, 74, 103
2, 215577, Note_on_c, 0, 62, 0
2, 215582, Note_on_c, 0, 62, 90
2, 215652, Note_on_c, 0, 33, 71
2, 215662, Note_on_c, 0, 33, 0
2, 215677, Note_on_c, 0, 65, 87
2, 215748, Note_on_c, 0, 69, 95
2, 215836, Control_c, 0, 64, 0
2, 215840, Note_on_c, 0, 62, 0
2, 215841, Note_on_c, 0, 38, 0
2, 215841, Note_on_c, 0, 50, 0
2, 215841, Note_on_c, 0, 65, 0
2, 215842, Note_on_c, 0, 74, 0
2, 215843, Note_on_c, 0, 69, 0
2, 215844, Note_on_c, 0, 40, 94
2, 215845, Note_on_c, 0, 76, 102
2, 215907, Control_c, 0, 64, 127
2, 215933, Note_on_c, 0, 64, 99
2, 216018, Note_on_c, 0, 67, 101
2, 216030, Note_on_c, 0, 28, 85
2, 216116, Note_on_c, 0, 72, 101
2, 216207, Note_on_c, 0, 76, 0
2, 216215, Note_on_c, 0, 40, 0
2, 216218, Note_on_c, 0, 76, 105
2, 216223, Note_on_c, 0, 40, 91
2, 216284, Note_on_c, 0, 64, 0
2, 216289, Note_on_c, 0, 64, 100
2, 216357, Control_c, 0, 64, 0
2, 216358, Note_on_c, 0, 28, 0
2, 216364, Note_on_c, 0, 72, 0
2, 216365, Note_on_c, 0, 64, 0
2, 216365, Note_on_c, 0, 67, 0
2, 216384, Note_on_c, 0, 41, 102
2, 216388, Note_on_c, 0, 77, 103
2, 216391, Note_on_c, 0, 40, 0
2, 216391, Note_on_c, 0, 76, 0
2, 216430, Control_c, 0, 64, 127
2, 216482, Note_on_c, 0, 65, 99
2, 216563, Note_on_c, 0, 69, 98
2, 216572, Note_on_c, 0, 29, 87
2, 216650, Note_on_c, 0, 72, 102
2, 216729, Note_on_c, 0, 41, 0
2, 216729, Note_on_c, 0, 77, 0
2, 216733, Note_on_c, 0, 77, 100
2, 216740, Note_on_c, 0, 41, 97
2, 216806, Note_on_c, 0, 65, 0
2, 216812, Note_on_c, 0, 48, 65
2, 216814, Note_on_c, 0, 65, 98
2, 216821, Note_on_c, 0, 48, 0
2, 216860, Note_on_c, 0, 72, 0
2, 216867, Note_on_c, 0, 72, 70
2, 216873, Note_on_c, 0, 29, 0
2, 216874, Note_on_c, 0, 41, 0
2, 216874, Note_on_c, 0, 69, 0
2, 216875, Control_c, 0, 64, 0
2, 216876, Note_on_c, 0, 77, 0
2, 216876, Note_on_c, 0, 65, 0
2, 216913, Note_on_c, 0, 72, 0
2, 216917, Note_on_c, 0, 43, 101
2, 216921, Note_on_c, 0, 79, 105
2, 216960, Control_c, 0, 64, 127
2, 217008, Note_on_c, 0, 67, 102
2, 217093, Note_on_c, 0, 31, 93
2, 217107, Note_on_c, 0, 72, 100
2, 217178, Note_on_c, 0, 76, 102
2, 217259, Note_on_c, 0, 79, 0
2, 217268, Note_on_c, 0, 79, 106
2, 217282, Note_on_c, 0, 31, 0
2, 217282, Note_on_c, 0, 43, 0
2, 217287, Note_on_c, 0, 43, 95
2, 217288, Note_on_c, 0, 31, 77
2, 217328, Note_on_c, 0, 67, 0
2, 217339, Note_on_c, 0, 67, 96
2, 217412, Note_on_c, 0, 72, 0
2, 217413, Note_on_c, 0, 67, 0
2, 217414, Note_on_c, 0, 31, 0
2, 217415, Note_on_c, 0, 43, 0
2, 217415, Note_on_c, 0, 76, 0
2, 217418, Control_c, 0, 64, 0
2, 217451, Note_on_c, 0, 79, 0
2, 217470, Note_on_c, 0, 46, 104
2, 217470, Note_on_c, 0, 81, 110
2, 217470, Note_on_c, 0, 69, 109
2, 217471, Note_on_c, 0, 34, 99
2, 217474, Note_on_c, 0, 74, 106
2, 217475, Note_on_c, 0, 77, 98
2, 217536, Control_c, 0, 64, 127
2, 217766, Note_on_c, 0, 34, 0
2, 217770, Note_on_c, 0, 34, 90
2, 217835, Note_on_c, 0, 46, 0
2, 217846, Note_on_c, 0, 46, 102
2, 217940, Control_c, 0, 64, 0
2, 217940, Note_on_c, 0, 69, 0
2, 217941, Note_on_c, 0, 74, 0
2, 217941, Note_on_c, 0, 81, 0
2, 217942, Note_on_c, 0, 77, 0
2, 217943, Note_on_c, 0, 34, 0
2, 217945, Note_on_c, 0, 46, 0
2, 218046, Note_on_c, 0, 86, 107
2, 218046, Note_on_c, 0, 74, 107
2, 218048, Note_on_c, 0, 77, 90
2, 218077, Note_on_c, 0, 77, 0
2, 218096, Note_on_c, 0, 74, 0
2, 218165, Note_on_c, 0, 86, 0
2, 218229, Note_on_c, 0, 89, 110
2, 218230, Note_on_c, 0, 77, 103
2, 218255, Note_on_c, 0, 77, 0
2, 218319, Note_on_c, 0, 89, 0
2, 218399, Note_on_c, 0, 46, 100
2, 218400, Note_on_c, 0, 34, 89
2, 218400, Note_on_c, 0, 81, 108
2, 218401, Note_on_c, 0, 93, 109
2, 218426, Control_c, 0, 64, 127
2, 218473, Control_c, 0, 64, 0
2, 218480, Note_on_c, 0, 81, 0
2, 218488, Note_on_c, 0, 34, 0
2, 218496, Note_on_c, 0, 46, 0
2, 218519, Note_on_c, 0, 93, 0
2, 218582, Note_on_c, 0, 48, 108
2, 218585, Note_on_c, 0, 91, 110
2, 218585, Note_on_c, 0, 36, 102
2, 218586, Note_on_c, 0, 79, 108
2, 218589, Note_on_c, 0, 84, 106
2, 218592, Note_on_c, 0, 88, 101
2, 218595, Control_c, 0, 64, 127
2, 218880, Note_on_c, 0, 36, 0
2, 218885, Note_on_c, 0, 36, 87
2, 218956, Note_on_c, 0, 48, 0
2, 218960, Note_on_c, 0, 48, 103
2, 219014, Note_on_c, 0, 36, 0
2, 219023, Note_on_c, 0, 88, 0
2, 219024, Control_c, 0, 64, 0
2, 219025, Note_on_c, 0, 84, 0
2, 219033, Note_on_c, 0, 48, 0
2, 219041, Note_on_c, 0, 79, 0
2, 219056, Note_on_c, 0, 91, 0
2, 219212, Note_on_c, 0, 96, 113
2, 219214, Note_on_c, 0, 91, 106
2, 219216, Note_on_c, 0, 84, 112
2, 219220, Note_on_c, 0, 88, 105
2, 219689, Note_on_c, 0, 81, 110
2, 219689, Note_on_c, 0, 93, 110
2, 219724, Control_c, 0, 64, 127
2, 219881, Note_on_c, 0, 92, 54
2, 220062, Note_on_c, 0, 91, 0
2, 220174, Note_on_c, 0, 84, 0
2, 220174, Note_on_c, 0, 98, 113
2, 220176, Control_c, 0, 64, 0
2, 220177, Note_on_c, 0, 88, 0
2, 220177, Note_on_c, 0, 93, 0
2, 220181, Note_on_c, 0, 86, 109
2, 220181, Note_on_c, 0, 89, 101
2, 220182, Note_on_c, 0, 93, 101
2, 220184, Note_on_c, 0, 34, 100
2, 220193, Note_on_c, 0, 34, 0
2, 220216, Control_c, 0, 64, 127
2, 220270, Note_on_c, 0, 96, 0
2, 220451, Note_on_c, 0, 60, 91
2, 220556, Note_on_c, 0, 62, 96
2, 220660, Note_on_c, 0, 64, 102
2, 220660, Note_on_c, 0, 46, 86
2, 220759, Note_on_c, 0, 65, 97
2, 220838, Note_on_c, 0, 62, 0
2, 220841, Note_on_c, 0, 53, 92
2, 220842, Note_on_c, 0, 62, 99
2, 220844, Note_on_c, 0, 58, 96
2, 220845, Note_on_c, 0, 67, 93
2, 220938, Note_on_c, 0, 69, 96
2, 221018, Note_on_c, 0, 70, 92
2, 221022, Note_on_c, 0, 81, 0
2, 221088, Note_on_c, 0, 72, 102
2, 221191, Note_on_c, 0, 46, 0
2, 221193, Note_on_c, 0, 74, 103
2, 221197, Note_on_c, 0, 46, 87
2, 221264, Note_on_c, 0, 76, 103
2, 221349, Note_on_c, 0, 60, 0
2, 221350, Note_on_c, 0, 62, 0
2, 221350, Note_on_c, 0, 58, 0
2, 221350, Note_on_c, 0, 69, 0
2, 221351, Note_on_c, 0, 86, 0
2, 221351, Note_on_c, 0, 64, 0
2, 221351, Note_on_c, 0, 74, 0
2, 221351, Note_on_c, 0, 65, 0
2, 221351, Note_on_c, 0, 93, 0
2, 221351, Note_on_c, 0, 53, 0
2, 221351, Note_on_c, 0, 70, 0
2, 221351, Note_on_c, 0, 72, 0
2, 221351, Note_on_c, 0, 67, 0
2, 221352, Note_on_c, 0, 98, 0
2, 221353, Note_on_c, 0, 76, 0
2, 221353, Note_on_c, 0, 46, 0
2, 221354, Control_c, 0, 64, 0
2, 221360, Note_on_c, 0, 92, 0
2, 221368, Note_on_c, 0, 89, 0
2, 221410, Note_on_c, 0, 48, 105
2, 221410, Note_on_c, 0, 96, 111
2, 221411, Note_on_c, 0, 84, 109
2, 221411, Note_on_c, 0, 88, 104
2, 221412, Note_on_c, 0, 36, 93
2, 221422, Control_c, 0, 64, 127
2, 221640, Note_on_c, 0, 67, 95
2, 221716, Note_on_c, 0, 69, 92
2, 221798, Note_on_c, 0, 48, 0
2, 221803, Note_on_c, 0, 48, 97
2, 221808, Note_on_c, 0, 70, 97
2, 221905, Note_on_c, 0, 72, 92
2, 221979, Note_on_c, 0, 60, 99
2, 221980, Note_on_c, 0, 52, 97
2, 221984, Note_on_c, 0, 55, 100
2, 221985, Note_on_c, 0, 74, 103
2, 222072, Note_on_c, 0, 76, 101
2, 222166, Note_on_c, 0, 77, 88
2, 222249, Note_on_c, 0, 79, 97
2, 222326, Note_on_c, 0, 81, 98
2, 222351, Note_on_c, 0, 48, 0
2, 222361, Note_on_c, 0, 48, 94
2, 222413, Note_on_c, 0, 82, 99
2, 222420, Note_on_c, 0, 96, 0
2, 222483, Control_c, 0, 64, 0
2, 222486, Note_on_c, 0, 74, 0
2, 222486, Note_on_c, 0, 48, 0
2, 222486, Note_on_c, 0, 69, 0
2, 222486, Note_on_c, 0, 52, 0
2, 222486, Note_on_c, 0, 60, 0
2, 222486, Note_on_c, 0, 72, 0
2, 222486, Note_on_c, 0, 70, 0
2, 222486, Note_on_c, 0, 36, 0
2, 222486, Note_on_c, 0, 67, 0
2, 222486, Note_on_c, 0, 77, 0
2, 222487, Note_on_c, 0, 79, 0
2, 222487, Note_on_c, 0, 84, 0
2, 222487, Note_on_c, 0, 82, 0
2, 222487, Note_on_c, 0, 76, 0
2, 222487, Note_on_c, 0, 81, 0
2, 222487, Note_on_c, 0, 55, 0
2, 222489, Note_on_c, 0, 88, 0
2, 222537, Note_on_c, 0, 33, 94
2, 222537, Note_on_c, 0, 45, 102
2, 222537, Note_on_c, 0, 88, 107
2, 222538, Note_on_c, 0, 84, 109
2, 222538, Note_on_c, 0, 96, 111
2, 222574, Control_c, 0, 64, 127
2, 222746, Note_on_c, 0, 76, 95
2, 222837, Note_on_c, 0, 77, 97
2, 222896, Note_on_c, 0, 33, 0
2, 222896, Note_on_c, 0, 45, 0
2, 222900, Note_on_c, 0, 45, 87
2, 222907, Note_on_c, 0, 33, 72
2, 222917, Note_on_c, 0, 79, 99
2, 222942, Note_on_c, 0, 77, 0
2, 222947, Note_on_c, 0, 77, 54
2, 223017, Note_on_c, 0, 81, 97
2, 223083, Note_on_c, 0, 60, 102
2, 223084, Note_on_c, 0, 55, 100
2, 223084, Note_on_c, 0, 52, 98
2, 223110, Note_on_c, 0, 82, 88
2, 223180, Note_on_c, 0, 84, 0
2, 223187, Note_on_c, 0, 84, 97
2, 223258, Note_on_c, 0, 86, 105
2, 223349, Note_on_c, 0, 88, 0
2, 223360, Note_on_c, 0, 88, 102
2, 223426, Note_on_c, 0, 45, 0
2, 223433, Note_on_c, 0, 89, 104
2, 223433, Note_on_c, 0, 45, 93
2, 223515, Note_on_c, 0, 91, 106
2, 223585, Note_on_c, 0, 82, 0
2, 223585, Note_on_c, 0, 33, 0
2, 223585, Note_on_c, 0, 60, 0
2, 223586, Note_on_c, 0, 84, 0
2, 223586, Note_on_c, 0, 52, 0
2, 223586, Control_c, 0, 64, 0
2, 223587, Note_on_c, 0, 96, 0
2, 223587, Note_on_c, 0, 81, 0
2, 223587, Note_on_c, 0, 76, 0
2, 223587, Note_on_c, 0, 77, 0
2, 223587, Note_on_c, 0, 86, 0
2, 223587, Note_on_c, 0, 45, 0
2, 223588, Note_on_c, 0, 79, 0
2, 223588, Note_on_c, 0, 89, 0
2, 223588, Note_on_c, 0, 91, 0
2, 223589, Note_on_c, 0, 55, 0
2, 223618, Note_on_c, 0, 88, 0
2, 223624, Note_on_c, 0, 50, 97
2, 223627, Note_on_c, 0, 96, 107
2, 223628, Note_on_c, 0, 88, 104
2, 223628, Note_on_c, 0, 38, 94
2, 223672, Control_c, 0, 64, 127
2, 223708, Note_on_c, 0, 84, 96
2, 223796, Note_on_c, 0, 94, 107
2, 223805, Note_on_c, 0, 86, 100
2, 223881, Note_on_c, 0, 82, 94
2, 223964, Note_on_c, 0, 84, 0
2, 223967, Note_on_c, 0, 57, 103
2, 223969, Note_on_c, 0, 93, 103
2, 223969, Note_on_c, 0, 53, 93
2, 223974, Note_on_c, 0, 84, 101
2, 224071, Note_on_c, 0, 81, 94
2, 224096, Control_c, 0, 64, 0
2, 224098, Note_on_c, 0, 94, 0
2, 224099, Note_on_c, 0, 86, 0
2, 224099, Note_on_c, 0, 96, 0
2, 224100, Note_on_c, 0, 88, 0
2, 224100, Note_on_c, 0, 93, 0
2, 224101, Note_on_c, 0, 38, 0
2, 224101, Note_on_c, 0, 84, 0
2, 224101, Note_on_c, 0, 57, 0
2, 224102, Note_on_c, 0, 53, 0
2, 224103, Note_on_c, 0, 82, 0
2, 224104, Note_on_c, 0, 50, 0
2, 224146, Note_on_c, 0, 48, 97
2, 224146, Note_on_c, 0, 91, 109
2, 224151, Note_on_c, 0, 36, 91
2, 224151, Note_on_c, 0, 81, 0
2, 224155, Note_on_c, 0, 82, 99
2, 224171, Control_c, 0, 64, 127
2, 224242, Note_on_c, 0, 79, 101
2, 224333, Note_on_c, 0, 81, 104
2, 224334, Note_on_c, 0, 89, 108
2, 224411, Note_on_c, 0, 77, 91
2, 224488, Note_on_c, 0, 55, 99
2, 224492, Note_on_c, 0, 52, 94
2, 224494, Note_on_c, 0, 79, 0
2, 224497, Note_on_c, 0, 88, 105
2, 224498, Note_on_c, 0, 79, 103
2, 224585, Note_on_c, 0, 76, 96
2, 224605, Note_on_c, 0, 55, 0
2, 224605, Note_on_c, 0, 36, 0
2, 224606, Note_on_c, 0, 82, 0
2, 224607, Note_on_c, 0, 52, 0
2, 224608, Note_on_c, 0, 77, 0
2, 224608, Note_on_c, 0, 89, 0
2, 224608, Note_on_c, 0, 81, 0
2, 224608, Note_on_c, 0, 88, 0
2, 224609, Note_on_c, 0, 91, 0
2, 224610, Note_on_c, 0, 79, 0
2, 224613, Control_c, 0, 64, 0
2, 224616, Note_on_c, 0, 48, 0
2, 224640, Note_on_c, 0, 76, 0
2, 224680, Note_on_c, 0, 46, 104
2, 224682, Note_on_c, 0, 34, 94
2, 224682, Note_on_c, 0, 86, 108
2, 224682, Note_on_c, 0, 74, 109
2, 224684, Note_on_c, 0, 77, 97
2, 224709, Control_c, 0, 64, 127
2, 224713, Note_on_c, 0, 85, 48
2, 224891, Note_on_c, 0, 70, 97
2, 225002, Note_on_c, 0, 69, 88
2, 225039, Note_on_c, 0, 46, 0
2, 225047, Note_on_c, 0, 65, 95
2, 225050, Note_on_c, 0, 46, 85
2, 225139, Note_on_c, 0, 69, 0
2, 225148, Note_on_c, 0, 69, 92
2, 225162, Note_on_c, 0, 46, 0
2, 225166, Note_on_c, 0, 46, 64
2, 225239, Note_on_c, 0, 74, 0
2, 225246, Note_on_c, 0, 62, 100
2, 225246, Note_on_c, 0, 46, 0
2, 225249, Note_on_c, 0, 74, 103
2, 225250, Note_on_c, 0, 53, 88
2, 225250, Note_on_c, 0, 58, 91
2, 225255, Note_on_c, 0, 46, 82
2, 225331, Note_on_c, 0, 70, 0
2, 225338, Note_on_c, 0, 70, 95
2, 225423, Note_on_c, 0, 69, 0
2, 225427, Note_on_c, 0, 69, 91
2, 225507, Note_on_c, 0, 70, 0
2, 225513, Note_on_c, 0, 70, 92
2, 225600, Note_on_c, 0, 46, 0
2, 225600, Note_on_c, 0, 65, 0
2, 225604, Note_on_c, 0, 65, 93
2, 225609, Note_on_c, 0, 46, 89
2, 225676, Note_on_c, 0, 69, 0
2, 225681, Note_on_c, 0, 69, 99
2, 225725, Control_c, 0, 64, 0
2, 225726, Note_on_c, 0, 69, 0
2, 225727, Note_on_c, 0, 58, 0
2, 225727, Note_on_c, 0, 62, 0
2, 225727, Note_on_c, 0, 46, 0
2, 225728, Note_on_c, 0, 53, 0
2, 225728, Note_on_c, 0, 65, 0
2, 225729, Note_on_c, 0, 70, 0
2, 225729, Note_on_c, 0, 86, 0
2, 225730, Note_on_c, 0, 74, 0
2, 225730, Note_on_c, 0, 85, 0
2, 225738, Note_on_c, 0, 34, 0
2, 225738, Note_on_c, 0, 77, 0
2, 225788, Note_on_c, 0, 48, 105
2, 225791, Note_on_c, 0, 36, 96
2, 225793, Note_on_c, 0, 76, 110
2, 225794, Note_on_c, 0, 79, 105
2, 225794, Note_on_c, 0, 88, 109
2, 225830, Control_c, 0, 64, 127
2, 225982, Note_on_c, 0, 72, 100
2, 226068, Note_on_c, 0, 69, 100
2, 226152, Note_on_c, 0, 48, 0
2, 226156, Note_on_c, 0, 67, 95
2, 226156, Note_on_c, 0, 48, 93
2, 226229, Note_on_c, 0, 69, 0
2, 226238, Note_on_c, 0, 69, 99
2, 226321, Note_on_c, 0, 76, 0
2, 226331, Note_on_c, 0, 60, 96
2, 226332, Note_on_c, 0, 52, 96
2, 226333, Note_on_c, 0, 76, 100
2, 226333, Note_on_c, 0, 55, 97
2, 226406, Note_on_c, 0, 72, 0
2, 226414, Note_on_c, 0, 72, 97
2, 226498, Note_on_c, 0, 69, 0
2, 226503, Note_on_c, 0, 69, 100
2, 226575, Note_on_c, 0, 72, 0
2, 226584, Note_on_c, 0, 72, 98
2, 226659, Note_on_c, 0, 48, 0
2, 226659, Note_on_c, 0, 67, 0
2, 226670, Note_on_c, 0, 48, 91
2, 226670, Note_on_c, 0, 67, 98
2, 226767, Note_on_c, 0, 69, 0
2, 226772, Note_on_c, 0, 69, 97
2, 226800, Control_c, 0, 64, 0
2, 226802, Note_on_c, 0, 36, 0
2, 226802, Note_on_c, 0, 48, 0
2, 226803, Note_on_c, 0, 55, 0
2, 226803, Note_on_c, 0, 67, 0
2, 226803, Note_on_c, 0, 52, 0
2, 226803, Note_on_c, 0, 72, 0
2, 226804, Note_on_c, 0, 88, 0
2, 226804, Note_on_c, 0, 79, 0
2, 226821, Note_on_c, 0, 60, 0
2, 226821, Note_on_c, 0, 69, 0
2, 226821, Note_on_c, 0, 76, 0
2, 226849, Note_on_c, 0, 88, 108
2, 226852, Note_on_c, 0, 76, 106
2, 226855, Note_on_c, 0, 49, 101
2, 226858, Note_on_c, 0, 37, 97
2, 226874, Control_c, 0, 64, 127
2, 226935, Note_on_c, 0, 85, 102
2, 227028, Note_on_c, 0, 82, 103
2, 227135, Note_on_c, 0, 79, 97
2, 227205, Note_on_c, 0, 49, 0
2, 227210, Note_on_c, 0, 55, 94
2, 227213, Note_on_c, 0, 49, 91
2, 227215, Note_on_c, 0, 52, 87
2, 227220, Note_on_c, 0, 76, 0
2, 227231, Note_on_c, 0, 76, 100
2, 227320, Note_on_c, 0, 73, 101
2, 227340, Note_on_c, 0, 82, 0
2, 227340, Note_on_c, 0, 85, 0
2, 227341, Note_on_c, 0, 49, 0
2, 227341, Note_on_c, 0, 79, 0
2, 227341, Note_on_c, 0, 55, 0
2, 227341, Note_on_c, 0, 88, 0
2, 227341, Note_on_c, 0, 52, 0
2, 227342, Note_on_c, 0, 76, 0
2, 227345, Note_on_c, 0, 37, 0
2, 227349, Control_c, 0, 64, 0
2, 227384, Note_on_c, 0, 69, 100
2, 227385, Note_on_c, 0, 33, 88
2, 227385, Note_on_c, 0, 45, 96
2, 227427, Control_c, 0, 64, 127
2, 227474, Note_on_c, 0, 70, 101
2, 227566, Note_on_c, 0, 33, 0
2, 227566, Note_on_c, 0, 73, 0
2, 227571, Note_on_c, 0, 73, 105
2, 227577, Note_on_c, 0, 52, 89
2, 227579, Note_on_c, 0, 55, 91
2, 227663, Note_on_c, 0, 74, 103
2, 227754, Note_on_c, 0, 49, 96
2, 227755, Note_on_c, 0, 76, 96
2, 227836, Note_on_c, 0, 81, 98
2, 227891, Note_on_c, 0, 74, 0
2, 227891, Note_on_c, 0, 45, 0
2, 227891, Note_on_c, 0, 55, 0
2, 227892, Note_on_c, 0, 73, 0
2, 227892, Note_on_c, 0, 52, 0
2, 227892, Note_on_c, 0, 76, 0
2, 227892, Note_on_c, 0, 69, 0
2, 227892, Note_on_c, 0, 70, 0
2, 227893, Note_on_c, 0, 49, 0
2, 227902, Control_c, 0, 64, 0
2, 227929, Note_on_c, 0, 50, 104
2, 227930, Note_on_c, 0, 38, 98
2, 227932, Note_on_c, 0, 77, 104
2, 227932, Note_on_c, 0, 89, 106
2, 227965, Control_c, 0, 64, 127
2, 227980, Note_on_c, 0, 81, 0
2, 228017, Note_on_c, 0, 86, 103
2, 228099, Note_on_c, 0, 81, 100
2, 228188, Note_on_c, 0, 86, 0
2, 228197, Note_on_c, 0, 86, 103
2, 228267, Note_on_c, 0, 69, 91
2, 228268, Note_on_c, 0, 57, 105
2, 228268, Note_on_c, 0, 53, 95
2, 228341, Note_on_c, 0, 81, 0
2, 228350, Note_on_c, 0, 81, 95
2, 228411, Note_on_c, 0, 86, 0
2, 228411, Note_on_c, 0, 38, 0
2, 228411, Note_on_c, 0, 89, 0
2, 228412, Note_on_c, 0, 77, 0
2, 228413, Control_c, 0, 64, 0
2, 228413, Note_on_c, 0, 53, 0
2, 228414, Note_on_c, 0, 50, 0
2, 228414, Note_on_c, 0, 81, 0
2, 228414, Note_on_c, 0, 57, 0
2, 228426, Note_on_c, 0, 69, 0
2, 228456, Note_on_c, 0, 48, 103
2, 228459, Note_on_c, 0, 79, 106
2, 228459, Note_on_c, 0, 91, 106
2, 228460, Note_on_c, 0, 36, 97
2, 228495, Control_c, 0, 64, 127
2, 228553, Note_on_c, 0, 88, 104
2, 228628, Note_on_c, 0, 84, 103
2, 228710, Note_on_c, 0, 88, 0
2, 228719, Note_on_c, 0, 88, 106
2, 228787, Note_on_c, 0, 79, 0
2, 228797, Note_on_c, 0, 79, 101
2, 228800, Note_on_c, 0, 55, 97
2, 228807, Note_on_c, 0, 52, 89
2, 228871, Note_on_c, 0, 84, 0
2, 228877, Note_on_c, 0, 84, 104
2, 228960, Note_on_c, 0, 79, 0
2, 228960, Note_on_c, 0, 48, 0
2, 228960, Note_on_c, 0, 84, 0
2, 228960, Note_on_c, 0, 52, 0
2, 228961, Control_c, 0, 64, 0
2, 228961, Note_on_c, 0, 55, 0
2, 228971, Note_on_c, 0, 36, 0
2, 228971, Note_on_c, 0, 91, 0
2, 228979, Note_on_c, 0, 88, 0
2, 229008, Note_on_c, 0, 81, 107
2, 229012, Note_on_c, 0, 89, 101
2, 229013, Note_on_c, 0, 34, 96
2, 229013, Note_on_c, 0, 86, 103
2, 229014, Note_on_c, 0, 46, 103
2, 229033, Note_on_c, 0, 83, 67
2, 229056, Control_c, 0, 64, 127
2, 229191, Note_on_c, 0, 65, 99
2, 229383, Note_on_c, 0, 67, 99
2, 229386, Note_on_c, 0, 46, 0
2, 229393, Note_on_c, 0, 34, 0
2, 229394, Note_on_c, 0, 46, 93
2, 229398, Note_on_c, 0, 34, 80
2, 229558, Note_on_c, 0, 69, 104
2, 229565, Note_on_c, 0, 62, 97
2, 229566, Note_on_c, 0, 53, 92
2, 229567, Note_on_c, 0, 58, 92
2, 229731, Note_on_c, 0, 86, 0
2, 229737, Note_on_c, 0, 86, 107
2, 229737, Note_on_c, 0, 74, 109
2, 229893, Note_on_c, 0, 46, 0
2, 229899, Note_on_c, 0, 46, 84
2, 229900, Note_on_c, 0, 34, 0
2, 229910, Note_on_c, 0, 34, 78
2, 229916, Note_on_c, 0, 86, 0
2, 229920, Note_on_c, 0, 86, 107
2, 229922, Note_on_c, 0, 98, 108
2, 229954, Note_on_c, 0, 89, 0
2, 230031, Note_on_c, 0, 81, 0
2, 230036, Control_c, 0, 64, 0
2, 230037, Note_on_c, 0, 86, 0
2, 230038, Note_on_c, 0, 53, 0
2, 230038, Note_on_c, 0, 69, 0
2, 230038, Note_on_c, 0, 62, 0
2, 230038, Note_on_c, 0, 58, 0
2, 230038, Note_on_c, 0, 74, 0
2, 230039, Note_on_c, 0, 83, 0
2, 230039, Note_on_c, 0, 46, 0
2, 230039, Note_on_c, 0, 98, 0
2, 230042, Note_on_c, 0, 34, 0
2, 230062, Note_on_c, 0, 65, 0
2, 230069, Note_on_c, 0, 67, 0
2, 230101, Note_on_c, 0, 96, 107
2, 230103, Note_on_c, 0, 84, 107
2, 230103, Note_on_c, 0, 48, 101
2, 230103, Note_on_c, 0, 88, 104
2, 230105, Note_on_c, 0, 36, 90
2, 230138, Control_c, 0, 64, 127
2, 230276, Note_on_c, 0, 64, 102
2, 230376, Note_on_c, 0, 65, 96
2, 230446, Note_on_c, 0, 48, 0
2, 230454, Note_on_c, 0, 48, 92
2, 230455, Note_on_c, 0, 67, 101
2, 230638, Note_on_c, 0, 48, 0
2, 230640, Note_on_c, 0, 60, 104
2, 230641, Note_on_c, 0, 52, 95
2, 230641, Note_on_c, 0, 55, 99
2, 230648, Note_on_c, 0, 48, 91
2, 230818, Note_on_c, 0, 79, 106
2, 230818, Note_on_c, 0, 91, 110
2, 230983, Note_on_c, 0, 48, 0
2, 230994, Note_on_c, 0, 48, 88
2, 231005, Note_on_c, 0, 77, 99
2, 231009, Note_on_c, 0, 89, 106
2, 231123, Control_c, 0, 64, 0
2, 231125, Note_on_c, 0, 89, 0
2, 231125, Note_on_c, 0, 52, 0
2, 231125, Note_on_c, 0, 96, 0
2, 231125, Note_on_c, 0, 84, 0
2, 231125, Note_on_c, 0, 48, 0
2, 231126, Note_on_c, 0, 36, 0
2, 231126, Note_on_c, 0, 88, 0
2, 231126, Note_on_c, 0, 60, 0
2, 231126, Note_on_c, 0, 64, 0
2, 231126, Note_on_c, 0, 91, 0
2, 231126, Note_on_c, 0, 67, 0
2, 231127, Note_on_c, 0, 79, 0
2, 231127, Note_on_c, 0, 55, 0
2, 231128, Note_on_c, 0, 65, 0
2, 231144, Note_on_c, 0, 77, 0
2, 231174, Note_on_c, 0, 91, 107
2, 231176, Note_on_c, 0, 79, 107
2, 231177, Note_on_c, 0, 88, 102
2, 231178, Note_on_c, 0, 85, 107
2, 231183, Note_on_c, 0, 37, 100
2, 231187, Note_on_c, 0, 49, 101
2, 231221, Control_c, 0, 64, 127
2, 231367, Note_on_c, 0, 64, 100
2, 231536, Note_on_c, 0, 37, 0
2, 231536, Note_on_c, 0, 49, 0
2, 231544, Note_on_c, 0, 65, 98
2, 231545, Note_on_c, 0, 49, 89
2, 231548, Note_on_c, 0, 37, 78
2, 231724, Note_on_c, 0, 67, 104
2, 231733, Note_on_c, 0, 55, 102
2, 231734, Note_on_c, 0, 52, 92
2, 231738, Note_on_c, 0, 43, 87
2, 231744, Note_on_c, 0, 43, 0
2, 231905, Note_on_c, 0, 79, 0
2, 231905, Note_on_c, 0, 91, 0
2, 231909, Note_on_c, 0, 79, 106
2, 231910, Note_on_c, 0, 91, 109
2, 232074, Note_on_c, 0, 37, 0
2, 232074, Note_on_c, 0, 49, 0
2, 232078, Note_on_c, 0, 49, 91
2, 232079, Note_on_c, 0, 94, 110
2, 232084, Note_on_c, 0, 37, 85
2, 232084, Note_on_c, 0, 82, 103
2, 232247, Note_on_c, 0, 65, 0
2, 232247, Note_on_c, 0, 64, 0
2, 232248, Control_c, 0, 64, 0
2, 232248, Note_on_c, 0, 37, 0
2, 232249, Note_on_c, 0, 49, 0
2, 232250, Note_on_c, 0, 52, 0
2, 232250, Note_on_c, 0, 55, 0
2, 232250, Note_on_c, 0, 82, 0
2, 232250, Note_on_c, 0, 85, 0
2, 232251, Note_on_c, 0, 88, 0
2, 232251, Note_on_c, 0, 67, 0
2, 232251, Note_on_c, 0, 79, 0
2, 232252, Note_on_c, 0, 94, 0
2, 232253, Note_on_c, 0, 91, 0
2, 232255, Note_on_c, 0, 81, 106
2, 232260, Note_on_c, 0, 93, 108
2, 232261, Note_on_c, 0, 50, 103
2, 232263, Note_on_c, 0, 86, 102
2, 232264, Note_on_c, 0, 38, 95
2, 232312, Control_c, 0, 64, 127
2, 232449, Note_on_c, 0, 70, 98
2, 232530, Note_on_c, 0, 67, 97
2, 232624, Note_on_c, 0, 69, 102
2, 232624, Note_on_c, 0, 57, 103
2, 232628, Note_on_c, 0, 53, 89
2, 232768, Control_c, 0, 64, 0
2, 232769, Note_on_c, 0, 67, 0
2, 232769, Note_on_c, 0, 93, 0
2, 232769, Note_on_c, 0, 53, 0
2, 232769, Note_on_c, 0, 70, 0
2, 232769, Note_on_c, 0, 57, 0
2, 232769, Note_on_c, 0, 69, 0
2, 232769, Note_on_c, 0, 50, 0
2, 232770, Note_on_c, 0, 81, 0
2, 232770, Note_on_c, 0, 38, 0
2, 232816, Note_on_c, 0, 48, 102
2, 232817, Note_on_c, 0, 36, 97
2, 232849, Control_c, 0, 64, 127
2, 232983, Note_on_c, 0, 91, 110
2, 232984, Note_on_c, 0, 79, 106
2, 233164, Note_on_c, 0, 86, 0
2, 233175, Note_on_c, 0, 55, 93
2, 233176, Note_on_c, 0, 52, 86
2, 233176, Note_on_c, 0, 89, 102
2, 233179, Note_on_c, 0, 77, 89
2, 233266, Note_on_c, 0, 88, 97
2, 233266, Note_on_c, 0, 76, 99
2, 233311, Note_on_c, 0, 91, 0
2, 233312, Note_on_c, 0, 79, 0
2, 233313, Note_on_c, 0, 77, 0
2, 233313, Note_on_c, 0, 89, 0
2, 233313, Note_on_c, 0, 52, 0
2, 233314, Control_c, 0, 64, 0
2, 233315, Note_on_c, 0, 76, 0
2, 233317, Note_on_c, 0, 48, 0
2, 233318, Note_on_c, 0, 88, 0
2, 233333, Note_on_c, 0, 36, 0
2, 233341, Note_on_c, 0, 55, 0
2, 233345, Note_on_c, 0, 86, 104
2, 233346, Note_on_c, 0, 74, 107
2, 233352, Note_on_c, 0, 43, 103
2, 233355, Note_on_c, 0, 31, 94
2, 233448, Control_c, 0, 64, 127
2, 233525, Note_on_c, 0, 43, 0
2, 233531, Note_on_c, 0, 43, 96
2, 233727, Note_on_c, 0, 50, 89
2, 233806, Note_on_c, 0, 53, 92
2, 233909, Note_on_c, 0, 62, 100
2, 233913, Note_on_c, 0, 58, 99
2, 234082, Note_on_c, 0, 89, 109
2, 234083, Note_on_c, 0, 77, 100
2, 234257, Note_on_c, 0, 88, 105
2, 234257, Note_on_c, 0, 76, 104
2, 234346, Note_on_c, 0, 72, 106
2, 234348, Note_on_c, 0, 84, 104
2, 234406, Note_on_c, 0, 58, 0
2, 234409, Note_on_c, 0, 50, 0
2, 234410, Note_on_c, 0, 62, 0
2, 234410, Note_on_c, 0, 53, 0
2, 234411, Note_on_c, 0, 77, 0
2, 234411, Note_on_c, 0, 43, 0
2, 234411, Note_on_c, 0, 89, 0
2, 234411, Note_on_c, 0, 88, 0
2, 234412, Note_on_c, 0, 76, 0
2, 234417, Control_c, 0, 64, 0
2, 234419, Note_on_c, 0, 72, 0
2, 234419, Note_on_c, 0, 84, 0
2, 234424, Note_on_c, 0, 31, 0
2, 234424, Note_on_c, 0, 74, 0
2, 234432, Note_on_c, 0, 86, 0
2, 234442, Note_on_c, 0, 86, 108
2, 234443, Note_on_c, 0, 74, 108
2, 234445, Note_on_c, 0, 45, 100
2, 234445, Note_on_c, 0, 33, 92
2, 234480, Note_on_c, 0, 45, 0
2, 234508, Note_on_c, 0, 33, 0
2, 234508, Control_c, 0, 64, 127
2, 234623, Note_on_c, 0, 45, 91
2, 234625, Note_on_c, 0, 33, 75
2, 234811, Note_on_c, 0, 52, 86
2, 234900, Note_on_c, 0, 55, 92
2, 234988, Note_on_c, 0, 60, 102
2, 234988, Note_on_c, 0, 64, 103
2, 235170, Note_on_c, 0, 89, 110
2, 235171, Note_on_c, 0, 77, 102
2, 235351, Note_on_c, 0, 88, 104
2, 235351, Note_on_c, 0, 76, 104
2, 235448, Note_on_c, 0, 72, 103
2, 235448, Note_on_c, 0, 84, 102
2, 235521, Control_c, 0, 64, 0
2, 235522, Note_on_c, 0, 86, 0
2, 235526, Note_on_c, 0, 52, 0
2, 235528, Note_on_c, 0, 84, 0
2, 235528, Note_on_c, 0, 64, 0
2, 235528, Note_on_c, 0, 55, 0
2, 235528, Note_on_c, 0, 89, 0
2, 235529, Note_on_c, 0, 77, 0
2, 235529, Note_on_c, 0, 60, 0
2, 235529, Note_on_c, 0, 76, 0
2, 235530, Note_on_c, 0, 74, 0
2, 235530, Note_on_c, 0, 72, 0
2, 235531, Note_on_c, 0, 45, 0
2, 235532, Note_on_c, 0, 88, 0
2, 235532, Note_on_c, 0, 86, 106
2, 235534, Note_on_c, 0, 74, 106
2, 235537, Note_on_c, 0, 33, 0
2, 235539, Note_on_c, 0, 38, 97
2, 235699, Control_c, 0, 64, 127
2, 235716, Note_on_c, 0, 45, 88
2, 235879, Note_on_c, 0, 52, 90
2, 235991, Note_on_c, 0, 53, 91
2, 236072, Note_on_c, 0, 57, 100
2, 236168, Note_on_c, 0, 50, 89
2, 236275, Note_on_c, 0, 57, 0
2, 236279, Note_on_c, 0, 57, 93
2, 236350, Note_on_c, 0, 62, 95
2, 236444, Note_on_c, 0, 64, 101
2, 236519, Note_on_c, 0, 65, 96
2, 236620, Note_on_c, 0, 74, 0
2, 236631, Note_on_c, 0, 74, 103
2, 236632, Note_on_c, 0, 69, 99
2, 237239, Note_on_c, 0, 48, 85
2, 237250, Note_on_c, 0, 86, 0
2, 237411, Note_on_c, 0, 65, 0
2, 237415, Note_on_c, 0, 65, 104
2, 237634, Note_on_c, 0, 64, 0
2, 237644, Note_on_c, 0, 64, 103
2, 237841, Note_on_c, 0, 62, 0
2, 237847, Note_on_c, 0, 46, 94
2, 237847, Note_on_c, 0, 62, 103
2, 237854, Control_c, 0, 64, 0
2, 237864, Note_on_c, 0, 48, 0
2, 237864, Note_on_c, 0, 45, 0
2, 237865, Note_on_c, 0, 38, 0
2, 237866, Note_on_c, 0, 53, 0
2, 237866, Note_on_c, 0, 64, 0
2, 237867, Note_on_c, 0, 52, 0
2, 237867, Note_on_c, 0, 74, 0
2, 237867, Note_on_c, 0, 65, 0
2, 237867, Note_on_c, 0, 57, 0
2, 237867, Note_on_c, 0, 69, 0
2, 237868, Note_on_c, 0, 50, 0
2, 238085, Note_on_c, 0, 53, 72
2, 238126, Control_c, 0, 64, 127
2, 238283, Note_on_c, 0, 58, 73
2, 238496, Note_on_c, 0, 60, 70
2, 238516, Note_on_c, 0, 74, 89
2, 238527, Note_on_c, 0, 70, 73
2, 238727, Note_on_c, 0, 65, 93
2, 238951, Note_on_c, 0, 69, 100
2, 239167, Note_on_c, 0, 67, 104
2, 239185, Note_on_c, 0, 48, 88
2, 239203, Control_c, 0, 64, 0
2, 239205, Note_on_c, 0, 74, 0
2, 239205, Note_on_c, 0, 46, 0
2, 239205, Note_on_c, 0, 58, 0
2, 239205, Note_on_c, 0, 60, 0
2, 239205, Note_on_c, 0, 65, 0
2, 239205, Note_on_c, 0, 53, 0
2, 239206, Note_on_c, 0, 70, 0
2, 239207, Note_on_c, 0, 69, 0
2, 239216, Note_on_c, 0, 62, 0
2, 239400, Control_c, 0, 64, 127
2, 239404, Note_on_c, 0, 55, 83
2, 239647, Note_on_c, 0, 60, 75
2, 239884, Note_on_c, 0, 72, 93
2, 239892, Note_on_c, 0, 67, 0
2, 239896, Note_on_c, 0, 67, 81
2, 239928, Note_on_c, 0, 76, 99
2, 239929, Note_on_c, 0, 64, 92
2, 239969, Control_c, 0, 64, 0
2, 240053, Control_c, 0, 64, 127
2, 240215, Note_on_c, 0, 72, 0
2, 240224, Note_on_c, 0, 72, 99
2, 240257, Control_c, 0, 64, 0
2, 240299, Control_c, 0, 64, 127
2, 240517, Note_on_c, 0, 71, 76
2, 240534, Control_c, 0, 64, 0
2, 240539, Note_on_c, 0, 72, 0
2, 240555, Note_on_c, 0, 71, 0
2, 240563, Note_on_c, 0, 70, 86
2, 240633, Note_on_c, 0, 70, 0
2, 240633, Note_on_c, 0, 69, 92
2, 240791, Control_c, 0, 64, 127
2, 241116, Note_on_c, 0, 65, 73
2, 241190, Note_on_c, 0, 69, 0
2, 241201, Note_on_c, 0, 69, 77
2, 241241, Note_on_c, 0, 74, 98
2, 241242, Note_on_c, 0, 50, 80
2, 241259, Note_on_c, 0, 67, 0
2, 241263, Control_c, 0, 64, 0
2, 241271, Note_on_c, 0, 64, 0
2, 241272, Note_on_c, 0, 60, 0
2, 241272, Note_on_c, 0, 48, 0
2, 241273, Note_on_c, 0, 55, 0
2, 241274, Note_on_c, 0, 76, 0
2, 241397, Control_c, 0, 64, 127
2, 241620, Note_on_c, 0, 57, 71
2, 241882, Note_on_c, 0, 60, 75
2, 242112, Note_on_c, 0, 62, 88
2, 242327, Note_on_c, 0, 57, 0
2, 242331, Note_on_c, 0, 57, 76
2, 242527, Note_on_c, 0, 64, 90
2, 242749, Note_on_c, 0, 65, 0
2, 242757, Note_on_c, 0, 65, 90
2, 242956, Note_on_c, 0, 62, 0
2, 242964, Note_on_c, 0, 62, 81
2, 243173, Note_on_c, 0, 67, 87
2, 243409, Note_on_c, 0, 69, 0
2, 243418, Note_on_c, 0, 69, 92
2, 243609, Note_on_c, 0, 65, 0
2, 243616, Note_on_c, 0, 65, 81
2, 243809, Note_on_c, 0, 67, 0
2, 243818, Note_on_c, 0, 67, 81
2, 243819, Note_on_c, 0, 72, 95
2, 243840, Note_on_c, 0, 50, 0
2, 243840, Note_on_c, 0, 60, 0
2, 243840, Note_on_c, 0, 74, 0
2, 244032, Note_on_c, 0, 69, 0
2, 244042, Note_on_c, 0, 69, 89
2, 244052, Note_on_c, 0, 74, 91
2, 244247, Note_on_c, 0, 67, 0
2, 244257, Note_on_c, 0, 67, 81
2, 244485, Note_on_c, 0, 72, 0
2, 244488, Note_on_c, 0, 76, 91
2, 244495, Note_on_c, 0, 72, 80
2, 244745, Note_on_c, 0, 77, 88
2, 244776, Note_on_c, 0, 74, 0
2, 244781, Note_on_c, 0, 74, 80
2, 245022, Note_on_c, 0, 69, 0
2, 245026, Note_on_c, 0, 69, 73
2, 245329, Note_on_c, 0, 74, 0
2, 245339, Note_on_c, 0, 74, 86
2, 245773, Note_on_c, 0, 86, 93
2, 245773, Note_on_c, 0, 98, 97
2, 246942, Note_on_c, 0, 57, 0
2, 247134, Note_on_c, 0, 64, 0
2, 247342, Note_on_c, 0, 62, 0
2, 247372, Note_on_c, 0, 77, 0
2, 247449, Note_on_c, 0, 65, 0
2, 247449, Note_on_c, 0, 76, 0
2, 247680, Note_on_c, 0, 67, 0
2, 247680, Note_on_c, 0, 69, 0
2, 247680, Note_on_c, 0, 72, 0
2, 247680, Note_on_c, 0, 74, 0
2, 247902, Note_on_c, 0, 98, 0
2, 247956, Note_on_c, 0, 86, 0
2, 248457, Note_on_c, 0, 60, 66
2, 248460, Note_on_c, 0, 62, 66
2, 248511, Note_on_c, 0, 72, 79
2, 248513, Note_on_c, 0, 65, 62
2, 248534, Note_on_c, 0, 69, 75
2, 248550, Note_on_c, 0, 73, 93
2, 248600, Note_on_c, 0, 74, 96
2, 248621, Note_on_c, 0, 72, 0
2, 248627, Control_c, 0, 64, 0
2, 248634, Note_on_c, 0, 73, 0
2, 248847, Control_c, 0, 64, 127
2, 248851, Note_on_c, 0, 77, 99
2, 248947, Note_on_c, 0, 74, 0
2, 249086, Note_on_c, 0, 74, 101
2, 249308, Note_on_c, 0, 72, 82
2, 249346, Note_on_c, 0, 74, 0
2, 249350, Note_on_c, 0, 74, 86
2, 249379, Control_c, 0, 64, 0
2, 249400, Note_on_c, 0, 77, 0
2, 249404, Note_on_c, 0, 77, 77
2, 249408, Control_c, 0, 64, 127
2, 249434, Note_on_c, 0, 81, 101
2, 249459, Note_on_c, 0, 58, 78
2, 250122, Note_on_c, 0, 62, 0
2, 250183, Note_on_c, 0, 65, 0
2, 250183, Note_on_c, 0, 69, 0
2, 250187, Note_on_c, 0, 62, 74
2, 250190, Note_on_c, 0, 65, 66
2, 250191, Note_on_c, 0, 69, 70
2, 250306, Note_on_c, 0, 65, 0
2, 250312, Note_on_c, 0, 65, 50
2, 250698, Note_on_c, 0, 74, 0
2, 250702, Note_on_c, 0, 74, 93
2, 250920, Note_on_c, 0, 60, 0
2, 250928, Note_on_c, 0, 60, 64
2, 250928, Note_on_c, 0, 72, 0
2, 250933, Note_on_c, 0, 72, 81
2, 250959, Note_on_c, 0, 74, 0
2, 250968, Note_on_c, 0, 74, 80
2, 250969, Note_on_c, 0, 67, 65
2, 250994, Note_on_c, 0, 76, 80
2, 251018, Control_c, 0, 64, 0
2, 251025, Note_on_c, 0, 79, 91
2, 251032, Note_on_c, 0, 69, 0
2, 251033, Note_on_c, 0, 65, 0
2, 251033, Note_on_c, 0, 81, 0
2, 251043, Note_on_c, 0, 58, 0
2, 251059, Note_on_c, 0, 77, 0
2, 251082, Control_c, 0, 64, 127
2, 251120, Note_on_c, 0, 62, 0
2, 251964, Note_on_c, 0, 77, 93
2, 251974, Control_c, 0, 64, 0
2, 251976, Note_on_c, 0, 76, 0
2, 252011, Note_on_c, 0, 74, 0
2, 252026, Note_on_c, 0, 79, 0
2, 252065, Control_c, 0, 64, 127
2, 252212, Note_on_c, 0, 76, 88
2, 252280, Note_on_c, 0, 77, 0
2, 252289, Note_on_c, 0, 77, 85
2, 252303, Note_on_c, 0, 72, 0
2, 252341, Note_on_c, 0, 76, 0
2, 252346, Note_on_c, 0, 76, 88
2, 252387, Note_on_c, 0, 60, 0
2, 252495, Note_on_c, 0, 67, 0
2, 252498, Note_on_c, 0, 72, 97
2, 252499, Note_on_c, 0, 67, 73
2, 252502, Note_on_c, 0, 57, 73
2, 252509, Note_on_c, 0, 64, 71
2, 252517, Note_on_c, 0, 76, 0
2, 252526, Note_on_c, 0, 77, 0
2, 252526, Control_c, 0, 64, 0
2, 252702, Control_c, 0, 64, 127
2, 253209, Note_on_c, 0, 64, 0
2, 253220, Note_on_c, 0, 64, 72
2, 253220, Note_on_c, 0, 60, 66
2, 253485, Note_on_c, 0, 76, 91
2, 253532, Note_on_c, 0, 72, 0
2, 253536, Note_on_c, 0, 72, 63
2, 253562, Control_c, 0, 64, 0
2, 253647, Control_c, 0, 64, 127
2, 253759, Note_on_c, 0, 79, 96
2, 254023, Note_on_c, 0, 72, 0
2, 254028, Note_on_c, 0, 72, 83
2, 254028, Note_on_c, 0, 77, 88
2, 254039, Note_on_c, 0, 69, 81
2, 254045, Note_on_c, 0, 65, 68
2, 254046, Note_on_c, 0, 57, 0
2, 254047, Note_on_c, 0, 62, 75
2, 254051, Note_on_c, 0, 60, 0
2, 254052, Note_on_c, 0, 76, 0
2, 254052, Note_on_c, 0, 74, 77
2, 254057, Note_on_c, 0, 79, 0
2, 254069, Note_on_c, 0, 67, 0
2, 254076, Control_c, 0, 64, 0
2, 254085, Note_on_c, 0, 64, 0
2, 254192, Control_c, 0, 64, 127
2, 254987, Note_on_c, 0, 76, 93
2, 254994, Note_on_c, 0, 69, 0
2, 254994, Note_on_c, 0, 62, 0
2, 254995, Note_on_c, 0, 74, 0
2, 254996, Note_on_c, 0, 65, 0
2, 254999, Note_on_c, 0, 72, 0
2, 255029, Note_on_c, 0, 77, 0
2, 255038, Note_on_c, 0, 77, 94
2, 255061, Note_on_c, 0, 76, 0
2, 255070, Control_c, 0, 64, 0
2, 255294, Note_on_c, 0, 74, 98
2, 255329, Control_c, 0, 64, 127
2, 255360, Note_on_c, 0, 77, 0
2, 255535, Note_on_c, 0, 72, 84
2, 255552, Note_on_c, 0, 74, 0
2, 255555, Note_on_c, 0, 74, 74
2, 255585, Note_on_c, 0, 77, 70
2, 255586, Control_c, 0, 64, 0
2, 255603, Note_on_c, 0, 81, 101
2, 255604, Note_on_c, 0, 58, 76
2, 255759, Control_c, 0, 64, 127
2, 256383, Note_on_c, 0, 65, 73
2, 256384, Note_on_c, 0, 62, 75
2, 256384, Note_on_c, 0, 69, 80
2, 256651, Note_on_c, 0, 86, 104
2, 256657, Note_on_c, 0, 77, 0
2, 256667, Note_on_c, 0, 77, 86
2, 256734, Note_on_c, 0, 72, 0
2, 256896, Note_on_c, 0, 77, 0
2, 256896, Note_on_c, 0, 81, 0
2, 256905, Note_on_c, 0, 81, 97
2, 256906, Note_on_c, 0, 77, 87
2, 257003, Note_on_c, 0, 74, 0
2, 257020, Note_on_c, 0, 80, 96
2, 257152, Note_on_c, 0, 60, 68
2, 257185, Note_on_c, 0, 67, 75
2, 257189, Note_on_c, 0, 79, 96
2, 257189, Note_on_c, 0, 76, 85
2, 257192, Control_c, 0, 64, 0
2, 257222, Note_on_c, 0, 80, 0
2, 257222, Note_on_c, 0, 81, 0
2, 257222, Note_on_c, 0, 62, 0
2, 257222, Note_on_c, 0, 69, 0
2, 257222, Note_on_c, 0, 65, 0
2, 257223, Note_on_c, 0, 58, 0
2, 257223, Note_on_c, 0, 86, 0
2, 257223, Note_on_c, 0, 77, 0
2, 257402, Control_c, 0, 64, 127
2, 257993, Note_on_c, 0, 64, 67
2, 258055, Control_c, 0, 64, 0
2, 258344, Note_on_c, 0, 81, 97
2, 258355, Control_c, 0, 64, 127
2, 258720, Control_c, 0, 64, 0
2, 258721, Note_on_c, 0, 82, 98
2, 258728, Note_on_c, 0, 81, 0
2, 258769, Note_on_c, 0, 79, 0
2, 258785, Control_c, 0, 64, 127
2, 258854, Note_on_c, 0, 76, 0
2, 259034, Note_on_c, 0, 61, 74
2, 259054, Note_on_c, 0, 60, 0
2, 259084, Note_on_c, 0, 64, 0
2, 259088, Note_on_c, 0, 64, 72
2, 259146, Note_on_c, 0, 67, 0
2, 259152, Note_on_c, 0, 69, 79
2, 259157, Note_on_c, 0, 67, 57
2, 259177, Note_on_c, 0, 76, 73
2, 259222, Note_on_c, 0, 79, 84
2, 259266, Note_on_c, 0, 85, 97
2, 260559, Note_on_c, 0, 82, 0
2, 260671, Note_on_c, 0, 100, 102
2, 260707, Control_c, 0, 64, 0
2, 260718, Note_on_c, 0, 85, 0
2, 260719, Note_on_c, 0, 76, 0
2, 260720, Note_on_c, 0, 79, 0
2, 260759, Control_c, 0, 64, 127
2, 260928, Note_on_c, 0, 69, 0
2, 260953, Note_on_c, 0, 91, 84
2, 261093, Note_on_c, 0, 98, 104
2, 261209, Note_on_c, 0, 89, 83
2, 261305, Note_on_c, 0, 97, 103
2, 261358, Note_on_c, 0, 100, 0
2, 261404, Note_on_c, 0, 88, 89
2, 261492, Note_on_c, 0, 94, 86
2, 261552, Note_on_c, 0, 86, 93
2, 261628, Note_on_c, 0, 93, 91
2, 261704, Note_on_c, 0, 85, 91
2, 261765, Note_on_c, 0, 64, 0
2, 261765, Note_on_c, 0, 67, 0
2, 261769, Note_on_c, 0, 67, 71
2, 261772, Note_on_c, 0, 64, 74
2, 261772, Note_on_c, 0, 61, 0
2, 261772, Note_on_c, 0, 94, 0
2, 261777, Note_on_c, 0, 94, 94
2, 261779, Note_on_c, 0, 61, 69
2, 261780, Note_on_c, 0, 98, 0
2, 261784, Note_on_c, 0, 57, 67
2, 261849, Note_on_c, 0, 88, 0
2, 261849, Note_on_c, 0, 89, 0
2, 261849, Note_on_c, 0, 97, 0
2, 261859, Note_on_c, 0, 88, 89
2, 261918, Note_on_c, 0, 86, 0
2, 261957, Note_on_c, 0, 91, 0
2, 261961, Note_on_c, 0, 91, 97
2, 262072, Note_on_c, 0, 85, 0
2, 262083, Note_on_c, 0, 85, 91
2, 262210, Note_on_c, 0, 88, 0
2, 262221, Note_on_c, 0, 88, 92
2, 262248, Note_on_c, 0, 94, 0
2, 262390, Note_on_c, 0, 81, 80
2, 262548, Note_on_c, 0, 91, 0
2, 262558, Note_on_c, 0, 91, 95
2, 262778, Note_on_c, 0, 85, 0
2, 262788, Note_on_c, 0, 85, 72
2, 262967, Note_on_c, 0, 62, 66
2, 263011, Note_on_c, 0, 69, 68
2, 263069, Note_on_c, 0, 76, 80
2, 263109, Note_on_c, 0, 79, 73
2, 263116, Note_on_c, 0, 57, 0
2, 263139, Note_on_c, 0, 93, 0
2, 263178, Note_on_c, 0, 85, 0
2, 263183, Note_on_c, 0, 85, 79
2, 263239, Note_on_c, 0, 88, 0
2, 263249, Note_on_c, 0, 88, 85
2, 263255, Note_on_c, 0, 64, 0
2, 263262, Note_on_c, 0, 81, 0
2, 263301, Note_on_c, 0, 61, 0
2, 263324, Note_on_c, 0, 91, 0
2, 263328, Note_on_c, 0, 91, 94
2, 264545, Note_on_c, 0, 93, 88
2, 264602, Control_c, 0, 64, 0
2, 264614, Note_on_c, 0, 91, 0
2, 264623, Note_on_c, 0, 91, 91
2, 264645, Control_c, 0, 64, 127
2, 264682, Note_on_c, 0, 77, 65
2, 264688, Note_on_c, 0, 89, 88
2, 264715, Note_on_c, 0, 86, 73
2, 264719, Note_on_c, 0, 81, 55
2, 264768, Note_on_c, 0, 76, 0
2, 264775, Note_on_c, 0, 88, 0
2, 264783, Note_on_c, 0, 67, 0
2, 264814, Note_on_c, 0, 79, 0
2, 264844, Note_on_c, 0, 85, 0
2, 266083, Control_c, 0, 64, 0
2, 266104, Control_c, 0, 64, 127
2, 266572, Note_on_c, 0, 62, 0
2, 266880, Note_on_c, 0, 69, 0
2, 266880, Note_on_c, 0, 77, 0
2, 266880, Note_on_c, 0, 81, 0
2, 266880, Note_on_c, 0, 86, 0
2, 266880, Note_on_c, 0, 89, 0
2, 266880, Note_on_c, 0, 91, 0
2, 266880, Note_on_c, 0, 93, 0
2, 266880, Control_c, 0, 64, 0
2, 266902, Note_on_c, 0, 48, 65
2, 266970, Note_on_c, 0, 53, 75
2, 266995, Note_on_c, 0, 57, 80
2, 267000, Note_on_c, 0, 60, 77
2, 267056, Note_on_c, 0, 62, 89
2, 267179, Control_c, 0, 64, 127
2, 267296, Note_on_c, 0, 65, 99
2, 267540, Note_on_c, 0, 62, 0
2, 267549, Note_on_c, 0, 62, 97
2, 267740, Note_on_c, 0, 60, 0
2, 267746, Note_on_c, 0, 60, 79
2, 267801, Note_on_c, 0, 62, 0
2, 267807, Note_on_c, 0, 62, 80
2, 267840, Note_on_c, 0, 65, 0
2, 267844, Note_on_c, 0, 65, 81
2, 267874, Note_on_c, 0, 69, 98
2, 267895, Note_on_c, 0, 46, 74
2, 267909, Control_c, 0, 64, 0
2, 267912, Note_on_c, 0, 48, 0
2, 267912, Note_on_c, 0, 53, 0
2, 267912, Note_on_c, 0, 57, 0
2, 268055, Control_c, 0, 64, 127
2, 268673, Note_on_c, 0, 81, 94
2, 268687, Note_on_c, 0, 77, 79
2, 268688, Note_on_c, 0, 74, 80
2, 269184, Note_on_c, 0, 74, 0
2, 269192, Note_on_c, 0, 74, 97
2, 269324, Note_on_c, 0, 48, 66
2, 269380, Note_on_c, 0, 55, 75
2, 269422, Note_on_c, 0, 62, 0
2, 269427, Control_c, 0, 64, 0
2, 269433, Note_on_c, 0, 62, 72
2, 269449, Note_on_c, 0, 64, 79
2, 269450, Note_on_c, 0, 72, 95
2, 269456, Note_on_c, 0, 67, 82
2, 269478, Note_on_c, 0, 69, 0
2, 269481, Note_on_c, 0, 74, 0
2, 269487, Note_on_c, 0, 77, 0
2, 269491, Note_on_c, 0, 60, 0
2, 269498, Note_on_c, 0, 46, 0
2, 269498, Note_on_c, 0, 65, 0
2, 269629, Note_on_c, 0, 62, 0
2, 269660, Note_on_c, 0, 81, 0
2, 269698, Control_c, 0, 64, 127
2, 270255, Note_on_c, 0, 84, 84
2, 270263, Note_on_c, 0, 79, 77
2, 270267, Note_on_c, 0, 76, 72
2, 270773, Note_on_c, 0, 67, 0
2, 270781, Note_on_c, 0, 67, 96
2, 270916, Note_on_c, 0, 65, 93
2, 270958, Note_on_c, 0, 49, 67
2, 271004, Note_on_c, 0, 55, 0
2, 271013, Note_on_c, 0, 55, 73
2, 271034, Note_on_c, 0, 64, 0
2, 271034, Note_on_c, 0, 72, 0
2, 271040, Control_c, 0, 64, 0
2, 271068, Note_on_c, 0, 57, 75
2, 271069, Note_on_c, 0, 64, 83
2, 271076, Note_on_c, 0, 61, 76
2, 271088, Note_on_c, 0, 48, 0
2, 271088, Note_on_c, 0, 67, 0
2, 271088, Note_on_c, 0, 84, 0
2, 271088, Note_on_c, 0, 65, 0
2, 271104, Note_on_c, 0, 79, 0
2, 271326, Control_c, 0, 64, 127
2, 271349, Note_on_c, 0, 76, 0
2, 271868, Note_on_c, 0, 79, 86
2, 271868, Note_on_c, 0, 76, 80
2, 272400, Note_on_c, 0, 70, 96
2, 272577, Note_on_c, 0, 50, 65
2, 272616, Note_on_c, 0, 57, 0
2, 272622, Note_on_c, 0, 57, 71
2, 272632, Control_c, 0, 64, 0
2, 272652, Note_on_c, 0, 76, 0
2, 272652, Note_on_c, 0, 79, 0
2, 272653, Note_on_c, 0, 61, 0
2, 272653, Note_on_c, 0, 55, 0
2, 272656, Note_on_c, 0, 49, 0
2, 272660, Note_on_c, 0, 70, 0
2, 272678, Note_on_c, 0, 64, 0
2, 272686, Note_on_c, 0, 64, 79
2, 272690, Note_on_c, 0, 69, 96
2, 272695, Note_on_c, 0, 65, 82
2, 272862, Control_c, 0, 64, 127
2, 273579, Note_on_c, 0, 81, 89
2, 273580, Note_on_c, 0, 77, 82
2, 273599, Note_on_c, 0, 74, 80
2, 273876, Note_on_c, 0, 65, 0
2, 273887, Note_on_c, 0, 65, 97
2, 274160, Note_on_c, 0, 64, 0
2, 274172, Note_on_c, 0, 64, 97
2, 274484, Note_on_c, 0, 43, 69
2, 274485, Note_on_c, 0, 62, 83
2, 274518, Note_on_c, 0, 50, 0
2, 274518, Note_on_c, 0, 64, 0
2, 274518, Note_on_c, 0, 74, 0
2, 274518, Note_on_c, 0, 77, 0
2, 274519, Note_on_c, 0, 81, 0
2, 274519, Note_on_c, 0, 69, 0
2, 274519, Note_on_c, 0, 65, 0
2, 274520, Control_c, 0, 64, 0
2, 274536, Note_on_c, 0, 57, 0
2, 274824, Note_on_c, 0, 50, 67
2, 274982, Control_c, 0, 64, 127
2, 275145, Note_on_c, 0, 53, 70
2, 275420, Note_on_c, 0, 74, 68
2, 275478, Note_on_c, 0, 82, 77
2, 275484, Note_on_c, 0, 86, 95
2, 275511, Note_on_c, 0, 58, 66
2, 275821, Note_on_c, 0, 65, 94
2, 276182, Note_on_c, 0, 64, 96
2, 276587, Note_on_c, 0, 62, 0
2, 276597, Note_on_c, 0, 62, 89
2, 276598, Note_on_c, 0, 48, 77
2, 276617, Control_c, 0, 64, 0
2, 276623, Note_on_c, 0, 43, 0
2, 276624, Note_on_c, 0, 50, 0
2, 276624, Note_on_c, 0, 58, 0
2, 276625, Note_on_c, 0, 65, 0
2, 276625, Note_on_c, 0, 53, 0
2, 276626, Note_on_c, 0, 64, 0
2, 276627, Note_on_c, 0, 74, 0
2, 276787, Control_c, 0, 64, 127
2, 276894, Note_on_c, 0, 62, 0
2, 277006, Note_on_c, 0, 55, 68
2, 277506, Note_on_c, 0, 60, 75
2, 278272, Note_on_c, 0, 76, 86
2, 278273, Note_on_c, 0, 88, 91
2, 278277, Note_on_c, 0, 79, 81
2, 278285, Note_on_c, 0, 64, 85
2, 278316, Control_c, 0, 64, 0
2, 278400, Note_on_c, 0, 48, 0
2, 278400, Note_on_c, 0, 82, 0
2, 278400, Note_on_c, 0, 86, 0
2, 278407, Control_c, 0, 64, 127
2, 280481, Note_on_c, 0, 60, 0
2, 280492, Note_on_c, 0, 60, 78
2, 281617, Note_on_c, 0, 55, 0
2, 282228, Note_on_c, 0, 79, 0
2, 282229, Note_on_c, 0, 38, 63
2, 282230, Note_on_c, 0, 50, 70
2, 282233, Control_c, 0, 64, 0
2, 282234, Note_on_c, 0, 64, 0
2, 282240, Note_on_c, 0, 76, 0
2, 282240, Note_on_c, 0, 88, 0
2, 282241, Note_on_c, 0, 62, 88
2, 282244, Note_on_c, 0, 60, 0
2, 282247, Control_c, 0, 64, 127
2, 284195, Note_on_c, 0, 86, 88
2, 284195, Note_on_c, 0, 74, 77
2, 284447, Note_on_c, 0, 79, 79
2, 284488, Control_c, 0, 64, 0
2, 284513, Control_c, 0, 64, 127
2, 284639, Note_on_c, 0, 81, 77
2, 284820, Note_on_c, 0, 74, 0
2, 284820, Note_on_c, 0, 86, 0
2, 284824, Note_on_c, 0, 86, 92
2, 284826, Note_on_c, 0, 74, 70
2, 285004, Note_on_c, 0, 79, 0
2, 285010, Note_on_c, 0, 79, 86
2, 285181, Note_on_c, 0, 81, 0
2, 285187, Note_on_c, 0, 81, 90
2, 285373, Note_on_c, 0, 74, 0
2, 285373, Note_on_c, 0, 86, 0
2, 285380, Note_on_c, 0, 74, 81
2, 285384, Note_on_c, 0, 72, 76
2, 285384, Note_on_c, 0, 86, 94
2, 285388, Note_on_c, 0, 62, 0
2, 285390, Note_on_c, 0, 65, 65
2, 285398, Note_on_c, 0, 62, 70
2, 285408, Control_c, 0, 64, 0
2, 285415, Note_on_c, 0, 69, 66
2, 285511, Control_c, 0, 64, 127
2, 285573, Note_on_c, 0, 79, 0
2, 285582, Note_on_c, 0, 79, 88
2, 285765, Note_on_c, 0, 81, 0
2, 285771, Note_on_c, 0, 81, 84
2, 285949, Note_on_c, 0, 74, 0
2, 285949, Note_on_c, 0, 86, 0
2, 285956, Note_on_c, 0, 86, 93
2, 285960, Note_on_c, 0, 74, 69
2, 286080, Note_on_c, 0, 38, 0
2, 286080, Note_on_c, 0, 50, 0
2, 286126, Note_on_c, 0, 79, 0
2, 286131, Note_on_c, 0, 79, 85
2, 286310, Note_on_c, 0, 81, 0
2, 286321, Note_on_c, 0, 81, 80
2, 286494, Note_on_c, 0, 74, 0
2, 286494, Note_on_c, 0, 86, 0
2, 286500, Note_on_c, 0, 86, 93
2, 286502, Note_on_c, 0, 74, 75
2, 286694, Note_on_c, 0, 79, 0
2, 286699, Note_on_c, 0, 79, 77
2, 286878, Note_on_c, 0, 81, 0
2, 286883, Note_on_c, 0, 81, 81
2, 287070, Note_on_c, 0, 74, 0
2, 287070, Note_on_c, 0, 86, 0
2, 287074, Note_on_c, 0, 86, 89
2, 287079, Note_on_c, 0, 74, 74
2, 287247, Note_on_c, 0, 79, 0
2, 287253, Note_on_c, 0, 79, 81
2, 287431, Note_on_c, 0, 81, 0
2, 287440, Note_on_c, 0, 81, 83
2, 287616, Note_on_c, 0, 72, 0
2, 287621, Note_on_c, 0, 72, 86
2, 287623, Note_on_c, 0, 69, 0
2, 287623, Note_on_c, 0, 86, 0
2, 287631, Note_on_c, 0, 62, 0
2, 287631, Note_on_c, 0, 65, 0
2, 287634, Note_on_c, 0, 86, 92
2, 287635, Note_on_c, 0, 69, 78
2, 287635, Note_on_c, 0, 65, 63
2, 287639, Note_on_c, 0, 74, 0
2, 287640, Note_on_c, 0, 62, 73
2, 287643, Note_on_c, 0, 74, 79
2, 287677, Control_c, 0, 64, 0
2, 287738, Control_c, 0, 64, 127
2, 287808, Note_on_c, 0, 79, 0
2, 287818, Note_on_c, 0, 79, 86
2, 288000, Note_on_c, 0, 81, 0
2, 288010, Note_on_c, 0, 81, 86
2, 288184, Note_on_c, 0, 74, 0
2, 288184, Note_on_c, 0, 86, 0
2, 288188, Note_on_c, 0, 86, 97
2, 288195, Note_on_c, 0, 74, 78
2, 288360, Note_on_c, 0, 79, 0
2, 288369, Note_on_c, 0, 79, 92
2, 288545, Note_on_c, 0, 81, 0
2, 288554, Note_on_c, 0, 81, 91
2, 288729, Note_on_c, 0, 65, 0
2, 288734, Note_on_c, 0, 65, 70
2, 288737, Note_on_c, 0, 72, 0
2, 288737, Note_on_c, 0, 86, 0
2, 288743, Note_on_c, 0, 72, 84
2, 288744, Note_on_c, 0, 62, 0
2, 288744, Note_on_c, 0, 69, 0
2, 288745, Note_on_c, 0, 86, 96
2, 288749, Note_on_c, 0, 62, 75
2, 288752, Note_on_c, 0, 74, 0
2, 288753, Note_on_c, 0, 69, 78
2, 288757, Note_on_c, 0, 74, 76
2, 288763, Control_c, 0, 64, 0
2, 288852, Control_c, 0, 64, 127
2, 288921, Note_on_c, 0, 79, 0
2, 288926, Note_on_c, 0, 79, 92
2, 289098, Note_on_c, 0, 81, 0
2, 289107, Note_on_c, 0, 81, 93
2, 289297, Note_on_c, 0, 74, 0
2, 289297, Note_on_c, 0, 86, 0
2, 289304, Note_on_c, 0, 86, 100
2, 289306, Note_on_c, 0, 74, 88
2, 289489, Note_on_c, 0, 79, 0
2, 289493, Note_on_c, 0, 79, 93
2, 289666, Note_on_c, 0, 81, 0
2, 289674, Note_on_c, 0, 81, 93
2, 289843, Note_on_c, 0, 72, 0
2, 289850, Note_on_c, 0, 62, 0
2, 289850, Note_on_c, 0, 65, 0
2, 289850, Note_on_c, 0, 69, 0
2, 289850, Note_on_c, 0, 86, 0
2, 289851, Note_on_c, 0, 72, 89
2, 289855, Note_on_c, 0, 65, 77
2, 289858, Note_on_c, 0, 62, 80
2, 289858, Note_on_c, 0, 74, 0
2, 289858, Note_on_c, 0, 69, 86
2, 289859, Note_on_c, 0, 86, 98
2, 289862, Note_on_c, 0, 74, 88
2, 289908, Control_c, 0, 64, 0
2, 289943, Control_c, 0, 64, 127
2, 290035, Note_on_c, 0, 79, 0
2, 290040, Note_on_c, 0, 79, 92
2, 290219, Note_on_c, 0, 81, 0
2, 290229, Note_on_c, 0, 81, 96
2, 290411, Note_on_c, 0, 72, 0
2, 290411, Note_on_c, 0, 86, 0
2, 290419, Note_on_c, 0, 62, 0
2, 290419, Note_on_c, 0, 65, 0
2, 290419, Note_on_c, 0, 69, 0
2, 290419, Note_on_c, 0, 74, 0
2, 290419, Note_on_c, 0, 86, 103
2, 290422, Note_on_c, 0, 72, 92
2, 290425, Note_on_c, 0, 69, 87
2, 290428, Note_on_c, 0, 74, 95
2, 290429, Note_on_c, 0, 62, 85
2, 290430, Note_on_c, 0, 65, 78
2, 290437, Control_c, 0, 64, 0
2, 290480, Control_c, 0, 64, 127
2, 290626, Note_on_c, 0, 79, 0
2, 290636, Note_on_c, 0, 79, 95
2, 290810, Note_on_c, 0, 81, 0
2, 290816, Note_on_c, 0, 81, 95
2, 291010, Note_on_c, 0, 72, 0
2, 291010, Note_on_c, 0, 86, 0
2, 291018, Note_on_c, 0, 69, 0
2, 291018, Note_on_c, 0, 74, 0
2, 291018, Note_on_c, 0, 86, 104
2, 291020, Note_on_c, 0, 72, 89
2, 291022, Note_on_c, 0, 74, 92
2, 291025, Note_on_c, 0, 62, 0
2, 291025, Note_on_c, 0, 65, 0
2, 291027, Note_on_c, 0, 69, 88
2, 291031, Note_on_c, 0, 62, 81
2, 291032, Note_on_c, 0, 65, 77
2, 291043, Control_c, 0, 64, 0
2, 291110, Control_c, 0, 64, 127
2, 291233, Note_on_c, 0, 79, 0
2, 291243, Note_on_c, 0, 79, 94
2, 291448, Note_on_c, 0, 81, 0
2, 291457, Note_on_c, 0, 81, 102
2, 291663, Note_on_c, 0, 72, 0
2, 291663, Note_on_c, 0, 86, 0
2, 291671, Note_on_c, 0, 69, 0
2, 291674, Note_on_c, 0, 72, 94
2, 291674, Note_on_c, 0, 86, 105
2, 291678, Note_on_c, 0, 62, 0
2, 291678, Note_on_c, 0, 65, 0
2, 291678, Note_on_c, 0, 74, 0
2, 291682, Note_on_c, 0, 69, 90
2, 291682, Control_c, 0, 64, 0
2, 291682, Note_on_c, 0, 74, 98
2, 291683, Note_on_c, 0, 62, 83
2, 291683, Note_on_c, 0, 65, 75
2, 291755, Control_c, 0, 64, 127
2, 291962, Note_on_c, 0, 79, 0
2, 291969, Note_on_c, 0, 79, 96
2, 292369, Note_on_c, 0, 81, 0
2, 292369, Note_on_c, 0, 86, 0
2, 292373, Note_on_c, 0, 86, 105
2, 292374, Control_c, 0, 64, 0
2, 292377, Note_on_c, 0, 69, 0
2, 292377, Note_on_c, 0, 72, 0
2, 292377, Note_on_c, 0, 74, 0
2, 292377, Note_on_c, 0, 79, 0
2, 292379, Note_on_c, 0, 81, 91
2, 292383, Note_on_c, 0, 74, 95
2, 292383, Note_on_c, 0, 69, 89
2, 292383, Note_on_c, 0, 72, 88
2, 292385, Note_on_c, 0, 62, 0
2, 292385, Note_on_c, 0, 65, 0
2, 292387, Note_on_c, 0, 79, 91
2, 292390, Note_on_c, 0, 65, 76
2, 292395, Note_on_c, 0, 62, 81
2, 292500, Control_c, 0, 64, 127
2, 296693, Note_on_c, 0, 74, 0
2, 296985, Note_on_c, 0, 81, 0
2, 296985, Note_on_c, 0, 86, 0
2, 296993, Note_on_c, 0, 69, 0
2, 296993, Note_on_c, 0, 72, 0
2, 296993, Note_on_c, 0, 79, 0
2, 297000, Note_on_c, 0, 62, 0
2, 297000, Note_on_c, 0, 65, 0
2, 298307, Control_c, 0, 64, 0
2, 298314, Control_c, 0, 64, 127
2, 301440, Control_c, 0, 64, 0
2, 301441, End_track
0, 0, End_of_file
