0, 0, Header, 1, 2, 384
1, 0, Start_track
1, 0, Tempo, 500000
1, 0, Time_signature, 4, 2, 24, 8
1, 1, End_track
2, 0, Start_track
2, 1136, Note_on_c, 0, 70, 71
2, 1140, Note_on_c, 0, 58, 51
2, 1141, Note_on_c, 0, 61, 57
2, 1142, Note_on_c, 0, 42, 42
2, 1145, Note_on_c, 0, 49, 44
2, 1344, Control_c, 0, 64, 127
2, 1782, Note_on_c, 0, 66, 65
2, 2409, Note_on_c, 0, 68, 68
2, 2453, Control_c, 0, 64, 0
2, 2480, Note_on_c, 0, 70, 0
2, 2542, Control_c, 0, 64, 127
2, 3018, Note_on_c, 0, 73, 75
2, 3644, Note_on_c, 0, 53, 50
2, 3651, Note_on_c, 0, 46, 51
2, 3669, Note_on_c, 0, 39, 50
2, 3673, Note_on_c, 0, 34, 47
2, 3678, Note_on_c, 0, 34, 0
2, 3696, Note_on_c, 0, 58, 0
2, 3697, Note_on_c, 0, 49, 0
2, 3699, Note_on_c, 0, 42, 0
2, 3704, Control_c, 0, 64, 0
2, 4062, Control_c, 0, 64, 127
2, 4917, Note_on_c, 0, 54, 46
2, 4953, Note_on_c, 0, 53, 0
2, 4981, Control_c, 0, 64, 0
2, 5260, Control_c, 0, 64, 127
2, 5752, Note_on_c, 0, 61, 0
2, 5760, Note_on_c, 0, 39, 0
2, 5760, Note_on_c, 0, 46, 0
2, 5760, Note_on_c, 0, 66, 0
2, 5760, Note_on_c, 0, 68, 0
2, 5760, Note_on_c, 0, 73, 0
2, 6201, Note_on_c, 0, 47, 48
2, 6209, Note_on_c, 0, 70, 71
2, 6211, Note_on_c, 0, 61, 59
2, 6213, Note_on_c, 0, 54, 0
2, 6216, Note_on_c, 0, 58, 55
2, 6219, Note_on_c, 0, 54, 50
2, 6276, Control_c, 0, 64, 0
2, 6489, Control_c, 0, 64, 127
2, 6837, Note_on_c, 0, 66, 65
2, 6919, Note_on_c, 0, 58, 0
2, 7443, Note_on_c, 0, 68, 66
2, 7469, Control_c, 0, 64, 0
2, 7495, Note_on_c, 0, 70, 0
2, 7572, Control_c, 0, 64, 127
2, 8055, Note_on_c, 0, 73, 68
2, 8655, Note_on_c, 0, 54, 0
2, 8665, Note_on_c, 0, 54, 51
2, 8667, Note_on_c, 0, 49, 48
2, 8680, Note_on_c, 0, 56, 49
2, 8717, Note_on_c, 0, 47, 0
2, 8719, Note_on_c, 0, 61, 0
2, 8727, Control_c, 0, 64, 0
2, 9285, Control_c, 0, 64, 127
2, 9600, Note_on_c, 0, 66, 0
2, 9937, Note_on_c, 0, 53, 46
2, 10002, Control_c, 0, 64, 0
2, 10368, Control_c, 0, 64, 127
2, 11046, Note_on_c, 0, 42, 62
2, 11105, Note_on_c, 0, 49, 0
2, 11115, Note_on_c, 0, 49, 62
2, 11157, Note_on_c, 0, 58, 71
2, 11186, Note_on_c, 0, 82, 90
2, 11200, Control_c, 0, 64, 0
2, 11205, Note_on_c, 0, 73, 0
2, 11209, Note_on_c, 0, 73, 61
2, 11209, Note_on_c, 0, 70, 69
2, 11211, Note_on_c, 0, 78, 72
2, 11242, Note_on_c, 0, 56, 0
2, 11242, Note_on_c, 0, 53, 0
2, 11258, Note_on_c, 0, 54, 0
2, 11258, Note_on_c, 0, 68, 0
2, 11281, Control_c, 0, 64, 127
2, 11765, Note_on_c, 0, 78, 0
2, 11775, Note_on_c, 0, 78, 92
2, 11781, Note_on_c, 0, 73, 0
2, 11788, Note_on_c, 0, 70, 0
2, 11791, Note_on_c, 0, 73, 71
2, 11793, Note_on_c, 0, 70, 70
2, 11794, Note_on_c, 0, 66, 66
2, 12372, Note_on_c, 0, 73, 0
2, 12376, Note_on_c, 0, 80, 91
2, 12382, Note_on_c, 0, 73, 82
2, 12387, Note_on_c, 0, 70, 0
2, 12391, Note_on_c, 0, 68, 74
2, 12392, Note_on_c, 0, 70, 75
2, 12406, Control_c, 0, 64, 0
2, 12426, Note_on_c, 0, 58, 0
2, 12427, Note_on_c, 0, 78, 0
2, 12427, Note_on_c, 0, 49, 0
2, 12429, Note_on_c, 0, 66, 0
2, 12433, Note_on_c, 0, 82, 0
2, 12495, Control_c, 0, 64, 127
2, 12980, Note_on_c, 0, 85, 94
2, 12986, Note_on_c, 0, 80, 0
2, 12993, Note_on_c, 0, 80, 80
2, 12994, Note_on_c, 0, 73, 0
2, 13001, Note_on_c, 0, 73, 68
2, 13002, Note_on_c, 0, 78, 79
2, 13355, Note_on_c, 0, 42, 0
2, 13365, Note_on_c, 0, 85, 0
2, 13366, Note_on_c, 0, 68, 0
2, 13366, Note_on_c, 0, 70, 0
2, 13366, Note_on_c, 0, 80, 0
2, 13367, Control_c, 0, 64, 0
2, 13411, Note_on_c, 0, 39, 64
2, 13459, Note_on_c, 0, 46, 74
2, 13510, Note_on_c, 0, 51, 75
2, 13516, Control_c, 0, 64, 127
2, 13590, Note_on_c, 0, 58, 86
2, 14172, Note_on_c, 0, 54, 80
2, 14777, Note_on_c, 0, 56, 80
2, 15375, Note_on_c, 0, 61, 82
2, 15831, Note_on_c, 0, 35, 64
2, 15835, Note_on_c, 0, 51, 0
2, 15835, Note_on_c, 0, 46, 0
2, 15836, Note_on_c, 0, 39, 0
2, 15837, Note_on_c, 0, 78, 0
2, 15837, Note_on_c, 0, 58, 0
2, 15837, Note_on_c, 0, 56, 0
2, 15837, Control_c, 0, 64, 0
2, 15838, Note_on_c, 0, 54, 0
2, 15839, Note_on_c, 0, 61, 0
2, 15843, Note_on_c, 0, 73, 0
2, 15897, Note_on_c, 0, 42, 77
2, 15912, Control_c, 0, 64, 127
2, 15936, Note_on_c, 0, 35, 0
2, 15961, Note_on_c, 0, 82, 94
2, 15964, Note_on_c, 0, 51, 73
2, 15968, Note_on_c, 0, 78, 86
2, 15969, Note_on_c, 0, 73, 80
2, 15969, Note_on_c, 0, 70, 87
2, 16550, Note_on_c, 0, 78, 0
2, 16561, Note_on_c, 0, 78, 93
2, 16565, Note_on_c, 0, 70, 0
2, 16565, Note_on_c, 0, 73, 0
2, 16570, Note_on_c, 0, 73, 70
2, 16573, Note_on_c, 0, 70, 75
2, 16574, Note_on_c, 0, 66, 71
2, 17164, Note_on_c, 0, 73, 0
2, 17169, Note_on_c, 0, 80, 92
2, 17174, Note_on_c, 0, 73, 82
2, 17180, Note_on_c, 0, 70, 0
2, 17181, Note_on_c, 0, 68, 78
2, 17184, Note_on_c, 0, 70, 70
2, 17771, Note_on_c, 0, 73, 0
2, 17771, Note_on_c, 0, 80, 0
2, 17773, Note_on_c, 0, 85, 102
2, 17777, Note_on_c, 0, 80, 87
2, 17779, Note_on_c, 0, 78, 0
2, 17782, Note_on_c, 0, 73, 83
2, 17788, Note_on_c, 0, 78, 81
2, 17794, Note_on_c, 0, 82, 0
2, 17805, Note_on_c, 0, 82, 59
2, 18187, Note_on_c, 0, 37, 64
2, 18187, Note_on_c, 0, 51, 0
2, 18188, Note_on_c, 0, 42, 0
2, 18189, Note_on_c, 0, 68, 0
2, 18189, Note_on_c, 0, 66, 0
2, 18190, Control_c, 0, 64, 0
2, 18240, Control_c, 0, 64, 127
2, 18241, Note_on_c, 0, 44, 70
2, 18278, Note_on_c, 0, 80, 0
2, 18298, Note_on_c, 0, 49, 77
2, 18391, Note_on_c, 0, 58, 88
2, 18961, Note_on_c, 0, 54, 82
2, 19568, Note_on_c, 0, 56, 81
2, 19576, Note_on_c, 0, 70, 0
2, 20184, Note_on_c, 0, 61, 78
2, 20206, Note_on_c, 0, 37, 0
2, 20751, Note_on_c, 0, 82, 0
2, 20775, Note_on_c, 0, 37, 50
2, 20862, Note_on_c, 0, 49, 0
2, 20862, Note_on_c, 0, 58, 0
2, 20863, Note_on_c, 0, 56, 0
2, 20864, Note_on_c, 0, 54, 0
2, 20865, Note_on_c, 0, 44, 0
2, 20874, Control_c, 0, 64, 0
2, 20881, Note_on_c, 0, 73, 0
2, 20904, Note_on_c, 0, 85, 0
2, 21120, Note_on_c, 0, 78, 0
2, 22048, Note_on_c, 0, 25, 37
2, 22417, Control_c, 0, 64, 127
2, 23424, Note_on_c, 0, 37, 0
2, 23428, Note_on_c, 0, 53, 64
2, 23428, Note_on_c, 0, 37, 47
2, 23466, Control_c, 0, 64, 0
2, 23499, Note_on_c, 0, 53, 0
2, 23504, Note_on_c, 0, 51, 71
2, 23531, Note_on_c, 0, 61, 0
2, 23563, Note_on_c, 0, 51, 0
2, 23590, Note_on_c, 0, 49, 64
2, 23665, Note_on_c, 0, 51, 57
2, 23696, Note_on_c, 0, 51, 0
2, 23700, Note_on_c, 0, 49, 0
2, 23712, Note_on_c, 0, 53, 73
2, 23746, Note_on_c, 0, 25, 0
2, 23750, Note_on_c, 0, 53, 0
2, 23797, Note_on_c, 0, 51, 70
2, 23808, Note_on_c, 0, 37, 0
2, 23844, Note_on_c, 0, 51, 0
2, 23863, Note_on_c, 0, 53, 74
2, 23942, Note_on_c, 0, 54, 66
2, 23944, Note_on_c, 0, 53, 0
2, 23981, Note_on_c, 0, 54, 0
2, 23992, Note_on_c, 0, 56, 77
2, 24018, Note_on_c, 0, 44, 61
2, 24069, Note_on_c, 0, 54, 73
2, 24083, Note_on_c, 0, 56, 0
2, 24117, Note_on_c, 0, 54, 0
2, 24146, Note_on_c, 0, 53, 72
2, 24217, Note_on_c, 0, 54, 63
2, 24218, Note_on_c, 0, 53, 0
2, 24249, Note_on_c, 0, 54, 0
2, 24266, Note_on_c, 0, 56, 80
2, 24330, Note_on_c, 0, 56, 0
2, 24344, Note_on_c, 0, 54, 77
2, 24408, Note_on_c, 0, 56, 70
2, 24432, Note_on_c, 0, 54, 0
2, 24469, Note_on_c, 0, 58, 79
2, 24483, Note_on_c, 0, 56, 0
2, 24499, Note_on_c, 0, 44, 0
2, 24501, Note_on_c, 0, 58, 0
2, 24518, Note_on_c, 0, 59, 83
2, 24523, Note_on_c, 0, 37, 66
2, 24593, Note_on_c, 0, 59, 0
2, 24593, Note_on_c, 0, 58, 84
2, 24667, Note_on_c, 0, 58, 0
2, 24677, Note_on_c, 0, 56, 78
2, 24754, Note_on_c, 0, 58, 78
2, 24759, Note_on_c, 0, 56, 0
2, 24792, Note_on_c, 0, 58, 0
2, 24809, Note_on_c, 0, 59, 81
2, 24885, Note_on_c, 0, 59, 0
2, 24888, Note_on_c, 0, 58, 77
2, 24924, Note_on_c, 0, 58, 0
2, 24948, Note_on_c, 0, 59, 77
2, 25025, Note_on_c, 0, 59, 0
2, 25025, Note_on_c, 0, 61, 79
2, 25068, Note_on_c, 0, 61, 0
2, 25079, Note_on_c, 0, 63, 84
2, 25094, Note_on_c, 0, 44, 76
2, 25155, Note_on_c, 0, 61, 85
2, 25209, Note_on_c, 0, 61, 0
2, 25221, Note_on_c, 0, 63, 0
2, 25232, Note_on_c, 0, 59, 81
2, 25302, Note_on_c, 0, 61, 78
2, 25305, Note_on_c, 0, 59, 0
2, 25357, Note_on_c, 0, 61, 0
2, 25357, Note_on_c, 0, 63, 79
2, 25424, Note_on_c, 0, 63, 0
2, 25436, Note_on_c, 0, 61, 76
2, 25495, Note_on_c, 0, 63, 80
2, 25533, Note_on_c, 0, 61, 0
2, 25572, Note_on_c, 0, 65, 74
2, 25572, Note_on_c, 0, 63, 0
2, 25632, Note_on_c, 0, 65, 0
2, 25643, Note_on_c, 0, 66, 81
2, 25654, Note_on_c, 0, 44, 0
2, 25655, Note_on_c, 0, 49, 75
2, 25711, Note_on_c, 0, 65, 71
2, 25726, Note_on_c, 0, 66, 0
2, 25791, Note_on_c, 0, 63, 83
2, 25801, Note_on_c, 0, 65, 0
2, 25854, Note_on_c, 0, 61, 80
2, 25880, Note_on_c, 0, 63, 0
2, 25932, Note_on_c, 0, 68, 85
2, 25958, Note_on_c, 0, 37, 0
2, 25987, Note_on_c, 0, 66, 72
2, 26039, Note_on_c, 0, 68, 0
2, 26050, Note_on_c, 0, 61, 0
2, 26054, Note_on_c, 0, 67, 68
2, 26069, Note_on_c, 0, 56, 66
2, 26094, Note_on_c, 0, 67, 0
2, 26096, Note_on_c, 0, 49, 0
2, 26121, Note_on_c, 0, 66, 0
2, 26144, Note_on_c, 0, 63, 72
2, 26190, Note_on_c, 0, 56, 0
2, 26196, Note_on_c, 0, 49, 75
2, 26208, Note_on_c, 0, 70, 86
2, 26215, Note_on_c, 0, 63, 0
2, 26277, Note_on_c, 0, 68, 81
2, 26341, Note_on_c, 0, 66, 75
2, 26346, Note_on_c, 0, 70, 0
2, 26393, Note_on_c, 0, 68, 0
2, 26423, Note_on_c, 0, 65, 72
2, 26445, Note_on_c, 0, 66, 0
2, 26480, Note_on_c, 0, 71, 82
2, 26499, Note_on_c, 0, 65, 0
2, 26558, Note_on_c, 0, 70, 87
2, 26573, Note_on_c, 0, 71, 0
2, 26609, Note_on_c, 0, 56, 74
2, 26614, Note_on_c, 0, 68, 88
2, 26646, Note_on_c, 0, 49, 0
2, 26685, Note_on_c, 0, 66, 75
2, 26697, Note_on_c, 0, 68, 0
2, 26703, Note_on_c, 0, 70, 0
2, 26751, Note_on_c, 0, 49, 78
2, 26753, Note_on_c, 0, 71, 87
2, 26772, Note_on_c, 0, 56, 0
2, 26782, Note_on_c, 0, 66, 0
2, 26818, Control_c, 0, 64, 127
2, 26827, Note_on_c, 0, 70, 75
2, 26900, Note_on_c, 0, 68, 81
2, 26919, Note_on_c, 0, 56, 71
2, 26970, Note_on_c, 0, 66, 74
2, 27017, Note_on_c, 0, 71, 0
2, 27022, Note_on_c, 0, 70, 0
2, 27023, Note_on_c, 0, 56, 0
2, 27023, Note_on_c, 0, 68, 0
2, 27025, Control_c, 0, 64, 0
2, 27025, Note_on_c, 0, 49, 0
2, 27034, Note_on_c, 0, 73, 93
2, 27034, Note_on_c, 0, 49, 78
2, 27079, Control_c, 0, 64, 127
2, 27099, Note_on_c, 0, 71, 83
2, 27172, Note_on_c, 0, 56, 79
2, 27176, Note_on_c, 0, 70, 84
2, 27252, Note_on_c, 0, 68, 73
2, 27284, Note_on_c, 0, 71, 0
2, 27285, Note_on_c, 0, 73, 0
2, 27286, Control_c, 0, 64, 0
2, 27288, Note_on_c, 0, 66, 0
2, 27289, Note_on_c, 0, 56, 0
2, 27289, Note_on_c, 0, 70, 0
2, 27294, Note_on_c, 0, 49, 0
2, 27305, Note_on_c, 0, 49, 96
2, 27306, Note_on_c, 0, 75, 94
2, 27348, Note_on_c, 0, 68, 0
2, 27363, Control_c, 0, 64, 127
2, 27365, Note_on_c, 0, 73, 83
2, 27434, Note_on_c, 0, 71, 76
2, 27463, Note_on_c, 0, 61, 83
2, 27468, Note_on_c, 0, 56, 80
2, 27491, Note_on_c, 0, 70, 73
2, 27572, Control_c, 0, 64, 0
2, 27574, Note_on_c, 0, 73, 0
2, 27574, Note_on_c, 0, 61, 0
2, 27575, Note_on_c, 0, 56, 0
2, 27575, Note_on_c, 0, 71, 0
2, 27576, Note_on_c, 0, 77, 95
2, 27576, Note_on_c, 0, 70, 0
2, 27578, Note_on_c, 0, 49, 0
2, 27582, Note_on_c, 0, 49, 97
2, 27594, Note_on_c, 0, 75, 0
2, 27638, Note_on_c, 0, 75, 86
2, 27648, Control_c, 0, 64, 127
2, 27681, Note_on_c, 0, 73, 89
2, 27698, Note_on_c, 0, 61, 84
2, 27705, Note_on_c, 0, 56, 79
2, 27775, Note_on_c, 0, 71, 72
2, 27805, Note_on_c, 0, 49, 0
2, 27805, Control_c, 0, 64, 0
2, 27805, Note_on_c, 0, 61, 0
2, 27806, Note_on_c, 0, 56, 0
2, 27806, Note_on_c, 0, 75, 0
2, 27806, Note_on_c, 0, 73, 0
2, 27807, Note_on_c, 0, 71, 0
2, 27816, Note_on_c, 0, 77, 0
2, 27852, Note_on_c, 0, 78, 104
2, 27857, Note_on_c, 0, 75, 85
2, 27859, Note_on_c, 0, 30, 104
2, 27859, Note_on_c, 0, 70, 90
2, 27860, Note_on_c, 0, 42, 102
2, 27863, Note_on_c, 0, 75, 0
2, 27901, Control_c, 0, 64, 127
2, 27950, Note_on_c, 0, 66, 93
2, 27978, Note_on_c, 0, 42, 0
2, 27989, Note_on_c, 0, 42, 92
2, 28008, Note_on_c, 0, 70, 0
2, 28008, Note_on_c, 0, 78, 0
2, 28018, Note_on_c, 0, 73, 89
2, 28019, Note_on_c, 0, 78, 96
2, 28020, Note_on_c, 0, 70, 73
2, 28070, Note_on_c, 0, 42, 0
2, 28070, Note_on_c, 0, 30, 0
2, 28072, Note_on_c, 0, 78, 0
2, 28074, Control_c, 0, 64, 0
2, 28074, Note_on_c, 0, 70, 0
2, 28093, Note_on_c, 0, 66, 0
2, 28103, Note_on_c, 0, 66, 90
2, 28154, Note_on_c, 0, 73, 0
2, 28163, Note_on_c, 0, 70, 83
2, 28164, Note_on_c, 0, 73, 82
2, 28165, Note_on_c, 0, 78, 92
2, 28201, Note_on_c, 0, 70, 0
2, 28203, Note_on_c, 0, 73, 0
2, 28206, Note_on_c, 0, 78, 0
2, 28216, Note_on_c, 0, 66, 0
2, 28236, Note_on_c, 0, 66, 93
2, 28277, Note_on_c, 0, 66, 0
2, 28303, Note_on_c, 0, 70, 86
2, 28303, Note_on_c, 0, 73, 85
2, 28305, Note_on_c, 0, 78, 90
2, 28382, Note_on_c, 0, 66, 95
2, 28392, Note_on_c, 0, 70, 0
2, 28400, Control_c, 0, 64, 127
2, 28431, Note_on_c, 0, 73, 0
2, 28431, Note_on_c, 0, 78, 0
2, 28435, Note_on_c, 0, 70, 80
2, 28435, Note_on_c, 0, 78, 96
2, 28435, Note_on_c, 0, 73, 87
2, 28571, Note_on_c, 0, 80, 97
2, 28572, Control_c, 0, 64, 0
2, 28574, Note_on_c, 0, 68, 96
2, 28579, Note_on_c, 0, 70, 0
2, 28579, Note_on_c, 0, 73, 0
2, 28580, Note_on_c, 0, 66, 0
2, 28581, Note_on_c, 0, 78, 0
2, 28598, Note_on_c, 0, 80, 0
2, 28600, Note_on_c, 0, 68, 0
2, 28716, Note_on_c, 0, 78, 97
2, 28716, Note_on_c, 0, 66, 97
2, 28740, Note_on_c, 0, 66, 0
2, 28741, Note_on_c, 0, 78, 0
2, 28849, Note_on_c, 0, 78, 99
2, 28850, Note_on_c, 0, 66, 91
2, 28879, Note_on_c, 0, 66, 0
2, 28880, Note_on_c, 0, 78, 0
2, 28986, Note_on_c, 0, 70, 94
2, 28987, Note_on_c, 0, 78, 101
2, 28988, Note_on_c, 0, 73, 87
2, 28990, Note_on_c, 0, 46, 98
2, 28992, Note_on_c, 0, 34, 95
2, 29022, Control_c, 0, 64, 127
2, 29064, Note_on_c, 0, 66, 98
2, 29122, Note_on_c, 0, 70, 0
2, 29122, Note_on_c, 0, 73, 0
2, 29130, Note_on_c, 0, 34, 0
2, 29130, Note_on_c, 0, 46, 0
2, 29133, Note_on_c, 0, 73, 87
2, 29133, Note_on_c, 0, 70, 87
2, 29134, Note_on_c, 0, 46, 91
2, 29136, Note_on_c, 0, 34, 79
2, 29136, Note_on_c, 0, 77, 86
2, 29145, Note_on_c, 0, 77, 0
2, 29207, Note_on_c, 0, 66, 0
2, 29211, Note_on_c, 0, 66, 103
2, 29268, Note_on_c, 0, 73, 0
2, 29276, Note_on_c, 0, 70, 0
2, 29276, Note_on_c, 0, 78, 0
2, 29278, Note_on_c, 0, 73, 92
2, 29280, Note_on_c, 0, 70, 69
2, 29281, Note_on_c, 0, 78, 90
2, 29305, Control_c, 0, 64, 0
2, 29312, Note_on_c, 0, 73, 0
2, 29316, Note_on_c, 0, 70, 0
2, 29326, Note_on_c, 0, 34, 0
2, 29331, Note_on_c, 0, 46, 0
2, 29345, Note_on_c, 0, 66, 0
2, 29345, Note_on_c, 0, 78, 0
2, 29353, Note_on_c, 0, 66, 95
2, 29415, Note_on_c, 0, 70, 84
2, 29415, Note_on_c, 0, 66, 0
2, 29416, Note_on_c, 0, 73, 86
2, 29417, Note_on_c, 0, 78, 84
2, 29450, Note_on_c, 0, 70, 0
2, 29492, Note_on_c, 0, 66, 93
2, 29498, Note_on_c, 0, 73, 0
2, 29544, Note_on_c, 0, 78, 0
2, 29554, Note_on_c, 0, 70, 93
2, 29554, Note_on_c, 0, 73, 80
2, 29555, Note_on_c, 0, 78, 101
2, 29575, Control_c, 0, 64, 127
2, 29692, Note_on_c, 0, 80, 103
2, 29693, Note_on_c, 0, 68, 102
2, 29829, Note_on_c, 0, 66, 0
2, 29829, Note_on_c, 0, 78, 0
2, 29833, Note_on_c, 0, 78, 97
2, 29835, Note_on_c, 0, 66, 87
2, 29855, Control_c, 0, 64, 0
2, 29863, Note_on_c, 0, 70, 0
2, 29867, Note_on_c, 0, 68, 0
2, 29868, Note_on_c, 0, 73, 0
2, 29871, Note_on_c, 0, 66, 0
2, 29871, Note_on_c, 0, 80, 0
2, 29872, Note_on_c, 0, 78, 0
2, 29966, Note_on_c, 0, 77, 92
2, 29967, Note_on_c, 0, 65, 90
2, 29990, Note_on_c, 0, 65, 0
2, 29992, Note_on_c, 0, 77, 0
2, 30116, Note_on_c, 0, 63, 103
2, 30118, Note_on_c, 0, 75, 90
2, 30118, Note_on_c, 0, 47, 92
2, 30119, Note_on_c, 0, 42, 91
2, 30122, Note_on_c, 0, 35, 83
2, 30125, Note_on_c, 0, 71, 72
2, 30136, Note_on_c, 0, 71, 0
2, 30151, Control_c, 0, 64, 127
2, 30263, Note_on_c, 0, 47, 0
2, 30264, Note_on_c, 0, 42, 0
2, 30268, Note_on_c, 0, 63, 0
2, 30271, Control_c, 0, 64, 0
2, 30274, Note_on_c, 0, 35, 0
2, 30297, Note_on_c, 0, 75, 0
2, 30397, Note_on_c, 0, 65, 93
2, 30547, Note_on_c, 0, 65, 0
2, 30684, Note_on_c, 0, 66, 101
2, 30687, Note_on_c, 0, 60, 86
2, 30690, Note_on_c, 0, 36, 92
2, 30690, Note_on_c, 0, 48, 94
2, 30692, Note_on_c, 0, 56, 92
2, 30693, Note_on_c, 0, 44, 88
2, 30735, Control_c, 0, 64, 127
2, 30837, Note_on_c, 0, 66, 0
2, 30838, Control_c, 0, 64, 0
2, 30840, Note_on_c, 0, 60, 0
2, 30846, Note_on_c, 0, 48, 0
2, 30847, Note_on_c, 0, 56, 0
2, 30861, Note_on_c, 0, 36, 0
2, 30868, Note_on_c, 0, 44, 0
2, 30972, Note_on_c, 0, 68, 105
2, 31226, Note_on_c, 0, 68, 0
2, 31255, Note_on_c, 0, 70, 100
2, 31261, Note_on_c, 0, 61, 91
2, 31262, Note_on_c, 0, 37, 91
2, 31263, Note_on_c, 0, 66, 92
2, 31288, Control_c, 0, 64, 127
2, 31331, Note_on_c, 0, 49, 67
2, 31380, Note_on_c, 0, 37, 0
2, 31391, Note_on_c, 0, 37, 85
2, 31464, Note_on_c, 0, 49, 0
2, 31470, Note_on_c, 0, 49, 66
2, 31526, Note_on_c, 0, 37, 0
2, 31532, Note_on_c, 0, 37, 72
2, 31580, Note_on_c, 0, 49, 0
2, 31588, Note_on_c, 0, 49, 74
2, 31656, Note_on_c, 0, 37, 0
2, 31665, Note_on_c, 0, 37, 82
2, 31680, Note_on_c, 0, 49, 0
2, 31686, Note_on_c, 0, 68, 100
2, 31688, Note_on_c, 0, 49, 80
2, 31726, Note_on_c, 0, 49, 0
2, 31730, Note_on_c, 0, 49, 59
2, 31774, Note_on_c, 0, 49, 0
2, 31775, Note_on_c, 0, 70, 0
2, 31775, Note_on_c, 0, 61, 0
2, 31776, Note_on_c, 0, 68, 0
2, 31776, Note_on_c, 0, 66, 0
2, 31787, Control_c, 0, 64, 0
2, 31802, Note_on_c, 0, 37, 0
2, 31829, Note_on_c, 0, 68, 99
2, 31830, Note_on_c, 0, 37, 83
2, 31837, Note_on_c, 0, 61, 82
2, 31839, Note_on_c, 0, 65, 73
2, 31887, Control_c, 0, 64, 127
2, 32094, Note_on_c, 0, 37, 0
2, 32098, Note_on_c, 0, 25, 91
2, 32098, Note_on_c, 0, 37, 81
2, 32259, Note_on_c, 0, 66, 89
2, 32368, Note_on_c, 0, 25, 0
2, 32371, Note_on_c, 0, 65, 0
2, 32371, Note_on_c, 0, 68, 0
2, 32371, Note_on_c, 0, 61, 0
2, 32373, Note_on_c, 0, 37, 0
2, 32375, Control_c, 0, 64, 0
2, 32401, Note_on_c, 0, 66, 0
2, 32406, Note_on_c, 0, 78, 105
2, 32412, Note_on_c, 0, 66, 98
2, 32413, Note_on_c, 0, 42, 98
2, 32413, Note_on_c, 0, 70, 94
2, 32413, Note_on_c, 0, 73, 90
2, 32415, Note_on_c, 0, 30, 83
2, 32455, Note_on_c, 0, 30, 0
2, 32463, Control_c, 0, 64, 127
2, 32550, Note_on_c, 0, 58, 81
2, 32678, Note_on_c, 0, 70, 0
2, 32686, Note_on_c, 0, 42, 0
2, 32688, Note_on_c, 0, 70, 94
2, 32689, Note_on_c, 0, 49, 70
2, 32690, Note_on_c, 0, 61, 69
2, 32691, Note_on_c, 0, 42, 72
2, 32808, Note_on_c, 0, 58, 0
2, 32814, Note_on_c, 0, 58, 78
2, 32885, Note_on_c, 0, 68, 87
2, 32954, Note_on_c, 0, 42, 0
2, 32954, Note_on_c, 0, 61, 0
2, 32954, Note_on_c, 0, 68, 0
2, 32956, Note_on_c, 0, 66, 0
2, 32958, Note_on_c, 0, 49, 0
2, 32958, Note_on_c, 0, 58, 0
2, 32958, Note_on_c, 0, 73, 0
2, 32958, Note_on_c, 0, 78, 0
2, 32958, Note_on_c, 0, 70, 0
2, 32959, Note_on_c, 0, 68, 93
2, 32959, Note_on_c, 0, 42, 80
2, 32964, Note_on_c, 0, 61, 66
2, 32966, Control_c, 0, 64, 0
2, 33039, Control_c, 0, 64, 127
2, 33116, Note_on_c, 0, 58, 85
2, 33119, Note_on_c, 0, 70, 85
2, 33246, Note_on_c, 0, 68, 0
2, 33253, Note_on_c, 0, 68, 94
2, 33254, Note_on_c, 0, 61, 0
2, 33256, Note_on_c, 0, 54, 72
2, 33258, Note_on_c, 0, 49, 72
2, 33262, Note_on_c, 0, 61, 65
2, 33384, Note_on_c, 0, 58, 0
2, 33389, Note_on_c, 0, 58, 80
2, 33394, Note_on_c, 0, 66, 85
2, 33486, Note_on_c, 0, 54, 0
2, 33486, Note_on_c, 0, 42, 0
2, 33487, Note_on_c, 0, 49, 0
2, 33487, Note_on_c, 0, 68, 0
2, 33488, Note_on_c, 0, 58, 0
2, 33488, Note_on_c, 0, 70, 0
2, 33488, Note_on_c, 0, 66, 0
2, 33489, Control_c, 0, 64, 0
2, 33507, Note_on_c, 0, 61, 0
2, 33535, Note_on_c, 0, 73, 101
2, 33538, Note_on_c, 0, 35, 85
2, 33561, Control_c, 0, 64, 127
2, 33607, Note_on_c, 0, 35, 0
2, 33675, Note_on_c, 0, 59, 82
2, 33821, Note_on_c, 0, 70, 95
2, 33825, Note_on_c, 0, 54, 72
2, 33826, Note_on_c, 0, 51, 75
2, 33953, Note_on_c, 0, 59, 0
2, 33961, Note_on_c, 0, 59, 74
2, 34027, Note_on_c, 0, 68, 83
2, 34091, Control_c, 0, 64, 0
2, 34092, Note_on_c, 0, 51, 0
2, 34093, Note_on_c, 0, 73, 0
2, 34093, Note_on_c, 0, 54, 0
2, 34093, Note_on_c, 0, 70, 0
2, 34094, Note_on_c, 0, 59, 0
2, 34099, Note_on_c, 0, 68, 0
2, 34101, Note_on_c, 0, 35, 69
2, 34103, Note_on_c, 0, 68, 100
2, 34160, Control_c, 0, 64, 127
2, 34237, Note_on_c, 0, 35, 0
2, 34248, Note_on_c, 0, 59, 78
2, 34248, Note_on_c, 0, 70, 89
2, 34375, Note_on_c, 0, 68, 0
2, 34382, Note_on_c, 0, 68, 93
2, 34387, Note_on_c, 0, 54, 64
2, 34390, Note_on_c, 0, 51, 71
2, 34513, Note_on_c, 0, 59, 0
2, 34524, Note_on_c, 0, 66, 85
2, 34524, Note_on_c, 0, 59, 68
2, 34633, Note_on_c, 0, 51, 0
2, 34633, Note_on_c, 0, 54, 0
2, 34633, Note_on_c, 0, 70, 0
2, 34633, Note_on_c, 0, 68, 0
2, 34634, Note_on_c, 0, 66, 0
2, 34636, Control_c, 0, 64, 0
2, 34652, Note_on_c, 0, 59, 0
2, 34664, Note_on_c, 0, 39, 85
2, 34664, Note_on_c, 0, 27, 79
2, 34664, Note_on_c, 0, 73, 99
2, 34675, Note_on_c, 0, 27, 0
2, 34713, Control_c, 0, 64, 127
2, 34807, Note_on_c, 0, 58, 79
2, 34949, Note_on_c, 0, 70, 93
2, 34964, Note_on_c, 0, 54, 75
2, 34971, Note_on_c, 0, 51, 67
2, 35082, Note_on_c, 0, 58, 0
2, 35093, Note_on_c, 0, 58, 77
2, 35151, Note_on_c, 0, 68, 82
2, 35215, Note_on_c, 0, 54, 0
2, 35215, Note_on_c, 0, 70, 0
2, 35215, Note_on_c, 0, 58, 0
2, 35216, Note_on_c, 0, 73, 0
2, 35218, Control_c, 0, 64, 0
2, 35220, Note_on_c, 0, 68, 0
2, 35228, Note_on_c, 0, 39, 0
2, 35231, Note_on_c, 0, 68, 97
2, 35233, Note_on_c, 0, 39, 75
2, 35266, Control_c, 0, 64, 127
2, 35376, Note_on_c, 0, 58, 82
2, 35376, Note_on_c, 0, 70, 85
2, 35504, Note_on_c, 0, 68, 0
2, 35514, Note_on_c, 0, 68, 95
2, 35515, Note_on_c, 0, 54, 72
2, 35527, Note_on_c, 0, 51, 0
2, 35537, Note_on_c, 0, 51, 63
2, 35642, Note_on_c, 0, 58, 0
2, 35647, Note_on_c, 0, 58, 76
2, 35650, Note_on_c, 0, 66, 89
2, 35652, Note_on_c, 0, 54, 0
2, 35765, Note_on_c, 0, 70, 0
2, 35766, Note_on_c, 0, 51, 0
2, 35766, Control_c, 0, 64, 0
2, 35766, Note_on_c, 0, 58, 0
2, 35767, Note_on_c, 0, 39, 0
2, 35767, Note_on_c, 0, 68, 0
2, 35794, Note_on_c, 0, 41, 85
2, 35834, Control_c, 0, 64, 127
2, 35934, Note_on_c, 0, 66, 0
2, 35937, Note_on_c, 0, 78, 95
2, 35945, Note_on_c, 0, 66, 83
2, 35955, Note_on_c, 0, 56, 73
2, 36068, Note_on_c, 0, 80, 98
2, 36074, Note_on_c, 0, 53, 71
2, 36076, Note_on_c, 0, 68, 88
2, 36085, Note_on_c, 0, 49, 72
2, 36211, Note_on_c, 0, 56, 0
2, 36212, Note_on_c, 0, 82, 97
2, 36214, Note_on_c, 0, 70, 92
2, 36215, Note_on_c, 0, 56, 71
2, 36218, Note_on_c, 0, 49, 0
2, 36229, Note_on_c, 0, 49, 60
2, 36320, Control_c, 0, 64, 0
2, 36321, Note_on_c, 0, 78, 0
2, 36321, Note_on_c, 0, 53, 0
2, 36322, Note_on_c, 0, 56, 0
2, 36322, Note_on_c, 0, 49, 0
2, 36322, Note_on_c, 0, 68, 0
2, 36322, Note_on_c, 0, 66, 0
2, 36322, Note_on_c, 0, 80, 0
2, 36322, Note_on_c, 0, 70, 0
2, 36322, Note_on_c, 0, 82, 0
2, 36323, Note_on_c, 0, 41, 0
2, 36346, Note_on_c, 0, 83, 102
2, 36346, Note_on_c, 0, 37, 89
2, 36349, Note_on_c, 0, 71, 92
2, 36395, Control_c, 0, 64, 127
2, 36484, Note_on_c, 0, 82, 102
2, 36490, Note_on_c, 0, 70, 98
2, 36493, Note_on_c, 0, 49, 66
2, 36497, Note_on_c, 0, 56, 79
2, 36618, Note_on_c, 0, 49, 0
2, 36620, Note_on_c, 0, 53, 74
2, 36621, Note_on_c, 0, 80, 95
2, 36622, Note_on_c, 0, 68, 94
2, 36628, Note_on_c, 0, 49, 75
2, 36754, Note_on_c, 0, 66, 98
2, 36756, Note_on_c, 0, 78, 98
2, 36764, Note_on_c, 0, 56, 0
2, 36768, Note_on_c, 0, 56, 68
2, 36832, Note_on_c, 0, 56, 0
2, 36832, Note_on_c, 0, 70, 0
2, 36832, Note_on_c, 0, 82, 0
2, 36833, Note_on_c, 0, 78, 0
2, 36833, Note_on_c, 0, 71, 0
2, 36833, Note_on_c, 0, 83, 0
2, 36833, Note_on_c, 0, 68, 0
2, 36833, Note_on_c, 0, 49, 0
2, 36834, Note_on_c, 0, 80, 0
2, 36834, Note_on_c, 0, 66, 0
2, 36834, Note_on_c, 0, 53, 0
2, 36836, Control_c, 0, 64, 0
2, 36840, Note_on_c, 0, 37, 0
2, 36897, Note_on_c, 0, 85, 108
2, 36900, Note_on_c, 0, 42, 96
2, 36901, Note_on_c, 0, 78, 97
2, 36903, Note_on_c, 0, 73, 95
2, 36908, Note_on_c, 0, 82, 86
2, 36933, Control_c, 0, 64, 127
2, 37038, Note_on_c, 0, 58, 83
2, 37163, Note_on_c, 0, 82, 0
2, 37166, Note_on_c, 0, 54, 65
2, 37172, Note_on_c, 0, 82, 99
2, 37175, Note_on_c, 0, 49, 72
2, 37175, Note_on_c, 0, 70, 88
2, 37301, Note_on_c, 0, 58, 0
2, 37310, Note_on_c, 0, 58, 79
2, 37379, Note_on_c, 0, 80, 90
2, 37382, Note_on_c, 0, 68, 88
2, 37427, Note_on_c, 0, 85, 0
2, 37427, Note_on_c, 0, 54, 0
2, 37427, Note_on_c, 0, 73, 0
2, 37427, Note_on_c, 0, 70, 0
2, 37428, Note_on_c, 0, 78, 0
2, 37428, Note_on_c, 0, 49, 0
2, 37428, Note_on_c, 0, 58, 0
2, 37428, Note_on_c, 0, 82, 0
2, 37428, Control_c, 0, 64, 0
2, 37447, Note_on_c, 0, 42, 0
2, 37455, Note_on_c, 0, 68, 0
2, 37455, Note_on_c, 0, 80, 0
2, 37456, Note_on_c, 0, 42, 90
2, 37463, Note_on_c, 0, 80, 96
2, 37466, Note_on_c, 0, 68, 96
2, 37501, Control_c, 0, 64, 127
2, 37605, Note_on_c, 0, 82, 99
2, 37607, Note_on_c, 0, 58, 83
2, 37613, Note_on_c, 0, 70, 81
2, 37731, Note_on_c, 0, 68, 0
2, 37731, Note_on_c, 0, 80, 0
2, 37740, Note_on_c, 0, 80, 100
2, 37743, Note_on_c, 0, 68, 91
2, 37749, Note_on_c, 0, 54, 72
2, 37758, Note_on_c, 0, 49, 72
2, 37870, Note_on_c, 0, 58, 0
2, 37874, Note_on_c, 0, 58, 86
2, 37881, Note_on_c, 0, 66, 88
2, 37881, Note_on_c, 0, 78, 94
2, 37960, Note_on_c, 0, 80, 0
2, 37960, Note_on_c, 0, 54, 0
2, 37960, Note_on_c, 0, 68, 0
2, 37960, Note_on_c, 0, 49, 0
2, 37961, Note_on_c, 0, 70, 0
2, 37961, Note_on_c, 0, 66, 0
2, 37961, Note_on_c, 0, 58, 0
2, 37961, Note_on_c, 0, 82, 0
2, 37961, Control_c, 0, 64, 0
2, 37962, Note_on_c, 0, 78, 0
2, 37977, Note_on_c, 0, 42, 0
2, 38013, Note_on_c, 0, 85, 106
2, 38017, Note_on_c, 0, 35, 83
2, 38019, Note_on_c, 0, 78, 90
2, 38019, Note_on_c, 0, 73, 88
2, 38020, Note_on_c, 0, 82, 88
2, 38046, Control_c, 0, 64, 127
2, 38077, Note_on_c, 0, 35, 0
2, 38160, Note_on_c, 0, 47, 63
2, 38160, Note_on_c, 0, 59, 81
2, 38292, Note_on_c, 0, 82, 0
2, 38298, Note_on_c, 0, 82, 100
2, 38302, Note_on_c, 0, 54, 74
2, 38303, Note_on_c, 0, 70, 96
2, 38312, Note_on_c, 0, 51, 75
2, 38430, Note_on_c, 0, 59, 0
2, 38437, Note_on_c, 0, 59, 78
2, 38505, Note_on_c, 0, 80, 90
2, 38508, Note_on_c, 0, 68, 90
2, 38558, Control_c, 0, 64, 0
2, 38559, Note_on_c, 0, 85, 0
2, 38559, Note_on_c, 0, 51, 0
2, 38559, Note_on_c, 0, 82, 0
2, 38560, Note_on_c, 0, 54, 0
2, 38560, Note_on_c, 0, 73, 0
2, 38561, Note_on_c, 0, 59, 0
2, 38561, Note_on_c, 0, 70, 0
2, 38561, Note_on_c, 0, 47, 0
2, 38561, Note_on_c, 0, 78, 0
2, 38579, Note_on_c, 0, 35, 80
2, 38584, Note_on_c, 0, 68, 0
2, 38584, Note_on_c, 0, 80, 0
2, 38588, Note_on_c, 0, 80, 95
2, 38589, Note_on_c, 0, 68, 82
2, 38621, Note_on_c, 0, 35, 0
2, 38630, Control_c, 0, 64, 127
2, 38727, Note_on_c, 0, 82, 100
2, 38729, Note_on_c, 0, 59, 81
2, 38733, Note_on_c, 0, 70, 90
2, 38853, Note_on_c, 0, 80, 0
2, 38860, Note_on_c, 0, 68, 0
2, 38862, Note_on_c, 0, 80, 95
2, 38865, Note_on_c, 0, 54, 66
2, 38865, Note_on_c, 0, 68, 92
2, 38878, Note_on_c, 0, 51, 69
2, 38983, Note_on_c, 0, 59, 0
2, 38994, Note_on_c, 0, 59, 79
2, 38996, Note_on_c, 0, 78, 96
2, 38996, Note_on_c, 0, 66, 91
2, 39017, Note_on_c, 0, 56, 52
2, 39079, Note_on_c, 0, 56, 0
2, 39079, Note_on_c, 0, 80, 0
2, 39079, Note_on_c, 0, 68, 0
2, 39079, Note_on_c, 0, 54, 0
2, 39079, Note_on_c, 0, 82, 0
2, 39080, Note_on_c, 0, 66, 0
2, 39080, Note_on_c, 0, 51, 0
2, 39080, Note_on_c, 0, 59, 0
2, 39080, Note_on_c, 0, 70, 0
2, 39080, Note_on_c, 0, 78, 0
2, 39081, Control_c, 0, 64, 0
2, 39131, Note_on_c, 0, 39, 90
2, 39132, Note_on_c, 0, 85, 107
2, 39136, Note_on_c, 0, 73, 97
2, 39140, Note_on_c, 0, 78, 89
2, 39141, Note_on_c, 0, 82, 88
2, 39175, Control_c, 0, 64, 127
2, 39279, Note_on_c, 0, 58, 81
2, 39406, Note_on_c, 0, 82, 0
2, 39414, Note_on_c, 0, 54, 74
2, 39415, Note_on_c, 0, 82, 98
2, 39418, Note_on_c, 0, 70, 90
2, 39421, Note_on_c, 0, 51, 70
2, 39552, Note_on_c, 0, 58, 0
2, 39556, Note_on_c, 0, 58, 73
2, 39623, Note_on_c, 0, 80, 91
2, 39625, Note_on_c, 0, 68, 84
2, 39654, Note_on_c, 0, 85, 0
2, 39655, Note_on_c, 0, 54, 0
2, 39655, Note_on_c, 0, 70, 0
2, 39655, Note_on_c, 0, 58, 0
2, 39655, Note_on_c, 0, 73, 0
2, 39655, Note_on_c, 0, 78, 0
2, 39655, Note_on_c, 0, 82, 0
2, 39656, Control_c, 0, 64, 0
2, 39656, Note_on_c, 0, 80, 0
2, 39658, Note_on_c, 0, 68, 0
2, 39674, Note_on_c, 0, 39, 0
2, 39694, Note_on_c, 0, 39, 83
2, 39705, Note_on_c, 0, 80, 98
2, 39707, Note_on_c, 0, 68, 87
2, 39728, Control_c, 0, 64, 127
2, 39838, Note_on_c, 0, 58, 89
2, 39846, Note_on_c, 0, 82, 99
2, 39847, Note_on_c, 0, 70, 84
2, 39974, Note_on_c, 0, 80, 0
2, 39981, Note_on_c, 0, 80, 96
2, 39985, Note_on_c, 0, 54, 72
2, 39989, Note_on_c, 0, 58, 0
2, 39989, Note_on_c, 0, 68, 0
2, 39993, Note_on_c, 0, 58, 67
2, 39993, Note_on_c, 0, 68, 79
2, 40120, Note_on_c, 0, 51, 0
2, 40120, Note_on_c, 0, 58, 0
2, 40123, Note_on_c, 0, 78, 101
2, 40128, Note_on_c, 0, 54, 0
2, 40129, Note_on_c, 0, 51, 66
2, 40129, Note_on_c, 0, 66, 94
2, 40130, Note_on_c, 0, 58, 70
2, 40132, Note_on_c, 0, 54, 65
2, 40181, Note_on_c, 0, 39, 0
2, 40183, Note_on_c, 0, 82, 0
2, 40184, Note_on_c, 0, 68, 0
2, 40185, Note_on_c, 0, 80, 0
2, 40185, Note_on_c, 0, 70, 0
2, 40185, Note_on_c, 0, 54, 0
2, 40185, Note_on_c, 0, 58, 0
2, 40186, Note_on_c, 0, 51, 0
2, 40186, Control_c, 0, 64, 0
2, 40255, Note_on_c, 0, 41, 89
2, 40266, Control_c, 0, 64, 127
2, 40396, Note_on_c, 0, 78, 0
2, 40400, Note_on_c, 0, 90, 101
2, 40401, Note_on_c, 0, 56, 85
2, 40402, Note_on_c, 0, 78, 95
2, 40531, Note_on_c, 0, 92, 105
2, 40533, Note_on_c, 0, 53, 74
2, 40537, Note_on_c, 0, 80, 90
2, 40539, Note_on_c, 0, 49, 71
2, 40665, Note_on_c, 0, 56, 0
2, 40674, Note_on_c, 0, 56, 82
2, 40675, Note_on_c, 0, 94, 112
2, 40677, Note_on_c, 0, 82, 96
2, 40773, Note_on_c, 0, 66, 0
2, 40775, Control_c, 0, 64, 0
2, 40775, Note_on_c, 0, 78, 0
2, 40775, Note_on_c, 0, 53, 0
2, 40775, Note_on_c, 0, 56, 0
2, 40776, Note_on_c, 0, 90, 0
2, 40776, Note_on_c, 0, 80, 0
2, 40776, Note_on_c, 0, 49, 0
2, 40776, Note_on_c, 0, 92, 0
2, 40776, Note_on_c, 0, 82, 0
2, 40776, Note_on_c, 0, 94, 0
2, 40778, Note_on_c, 0, 41, 0
2, 40806, Note_on_c, 0, 37, 94
2, 40808, Note_on_c, 0, 95, 109
2, 40811, Note_on_c, 0, 83, 103
2, 40834, Control_c, 0, 64, 127
2, 40949, Note_on_c, 0, 94, 110
2, 40953, Note_on_c, 0, 82, 97
2, 40953, Note_on_c, 0, 56, 84
2, 41088, Note_on_c, 0, 53, 72
2, 41091, Note_on_c, 0, 49, 77
2, 41092, Note_on_c, 0, 92, 105
2, 41093, Note_on_c, 0, 80, 97
2, 41210, Note_on_c, 0, 49, 0
2, 41210, Note_on_c, 0, 56, 0
2, 41221, Note_on_c, 0, 56, 77
2, 41222, Note_on_c, 0, 49, 67
2, 41244, Note_on_c, 0, 90, 105
2, 41250, Note_on_c, 0, 78, 101
2, 41268, Control_c, 0, 64, 0
2, 41274, Note_on_c, 0, 95, 0
2, 41274, Note_on_c, 0, 49, 0
2, 41275, Note_on_c, 0, 94, 0
2, 41275, Note_on_c, 0, 82, 0
2, 41275, Note_on_c, 0, 83, 0
2, 41275, Note_on_c, 0, 56, 0
2, 41275, Note_on_c, 0, 53, 0
2, 41276, Note_on_c, 0, 92, 0
2, 41277, Note_on_c, 0, 80, 0
2, 41287, Note_on_c, 0, 37, 0
2, 41369, Note_on_c, 0, 42, 85
2, 41379, Control_c, 0, 64, 127
2, 41519, Note_on_c, 0, 61, 77
2, 41528, Note_on_c, 0, 54, 63
2, 41594, Note_on_c, 0, 90, 0
2, 41652, Note_on_c, 0, 68, 89
2, 41658, Note_on_c, 0, 37, 75
2, 41725, Note_on_c, 0, 66, 83
2, 41786, Note_on_c, 0, 61, 0
2, 41791, Note_on_c, 0, 61, 81
2, 41793, Note_on_c, 0, 49, 71
2, 41815, Control_c, 0, 64, 0
2, 41820, Note_on_c, 0, 37, 0
2, 41820, Note_on_c, 0, 68, 0
2, 41821, Note_on_c, 0, 78, 0
2, 41823, Note_on_c, 0, 42, 0
2, 41824, Note_on_c, 0, 66, 0
2, 41826, Note_on_c, 0, 54, 0
2, 41866, Note_on_c, 0, 71, 90
2, 41871, Note_on_c, 0, 49, 0
2, 41880, Note_on_c, 0, 61, 0
2, 41953, Note_on_c, 0, 42, 82
2, 42097, Note_on_c, 0, 70, 88
2, 42098, Note_on_c, 0, 54, 69
2, 42129, Note_on_c, 0, 71, 0
2, 42138, Note_on_c, 0, 54, 0
2, 42138, Note_on_c, 0, 42, 0
2, 42166, Note_on_c, 0, 70, 0
2, 42231, Note_on_c, 0, 37, 89
2, 42232, Note_on_c, 0, 66, 87
2, 42302, Note_on_c, 0, 66, 0
2, 42373, Note_on_c, 0, 61, 88
2, 42374, Note_on_c, 0, 49, 78
2, 42428, Note_on_c, 0, 49, 0
2, 42432, Note_on_c, 0, 37, 0
2, 42440, Note_on_c, 0, 61, 0
2, 42514, Note_on_c, 0, 42, 86
2, 42514, Note_on_c, 0, 68, 91
2, 42588, Note_on_c, 0, 66, 82
2, 42637, Note_on_c, 0, 66, 0
2, 42637, Note_on_c, 0, 68, 0
2, 42649, Note_on_c, 0, 61, 82
2, 42649, Note_on_c, 0, 54, 79
2, 42688, Note_on_c, 0, 54, 0
2, 42691, Note_on_c, 0, 42, 0
2, 42735, Note_on_c, 0, 66, 76
2, 42736, Note_on_c, 0, 61, 0
2, 42792, Note_on_c, 0, 37, 88
2, 42794, Note_on_c, 0, 70, 86
2, 42804, Note_on_c, 0, 66, 0
2, 42925, Note_on_c, 0, 49, 81
2, 42927, Note_on_c, 0, 66, 92
2, 42954, Note_on_c, 0, 70, 0
2, 42960, Note_on_c, 0, 49, 0
2, 43000, Control_c, 0, 64, 127
2, 43064, Note_on_c, 0, 42, 94
2, 43192, Note_on_c, 0, 37, 0
2, 43197, Note_on_c, 0, 85, 104
2, 43198, Note_on_c, 0, 73, 101
2, 43202, Note_on_c, 0, 37, 91
2, 43342, Note_on_c, 0, 90, 107
2, 43342, Note_on_c, 0, 78, 106
2, 43343, Note_on_c, 0, 30, 94
2, 43346, Note_on_c, 0, 37, 0
2, 43349, Note_on_c, 0, 73, 0
2, 43349, Note_on_c, 0, 66, 0
2, 43350, Note_on_c, 0, 85, 0
2, 43353, Note_on_c, 0, 42, 0
2, 43353, Control_c, 0, 64, 0
2, 43377, Note_on_c, 0, 78, 0
2, 43380, Note_on_c, 0, 30, 0
2, 43384, Note_on_c, 0, 90, 0
2, 43632, Note_on_c, 0, 66, 100
2, 43634, Note_on_c, 0, 54, 93
2, 43634, Note_on_c, 0, 42, 100
2, 43665, Note_on_c, 0, 42, 0
2, 43683, Note_on_c, 0, 54, 0
2, 43691, Note_on_c, 0, 66, 0
2, 43698, Note_on_c, 0, 66, 77
2, 43776, Note_on_c, 0, 66, 0
2, 43785, Note_on_c, 0, 66, 76
2, 43852, Note_on_c, 0, 66, 0
2, 43858, Note_on_c, 0, 66, 86
2, 43912, Note_on_c, 0, 37, 92
2, 43921, Note_on_c, 0, 66, 0
2, 43926, Note_on_c, 0, 66, 84
2, 43949, Note_on_c, 0, 37, 0
2, 43998, Note_on_c, 0, 66, 0
2, 44057, Note_on_c, 0, 66, 85
2, 44084, Note_on_c, 0, 66, 0
2, 44148, Note_on_c, 0, 66, 93
2, 44203, Note_on_c, 0, 54, 82
2, 44204, Note_on_c, 0, 42, 89
2, 44320, Note_on_c, 0, 54, 0
2, 44324, Note_on_c, 0, 42, 0
2, 44333, Note_on_c, 0, 66, 0
2, 44355, Note_on_c, 0, 68, 97
2, 44402, Note_on_c, 0, 68, 0
2, 44496, Note_on_c, 0, 66, 86
2, 44496, Note_on_c, 0, 37, 85
2, 44547, Note_on_c, 0, 66, 0
2, 44548, Note_on_c, 0, 37, 0
2, 44636, Note_on_c, 0, 66, 90
2, 44679, Note_on_c, 0, 66, 0
2, 44783, Note_on_c, 0, 66, 88
2, 44785, Note_on_c, 0, 54, 84
2, 44785, Note_on_c, 0, 42, 86
2, 44825, Note_on_c, 0, 66, 0
2, 44830, Note_on_c, 0, 54, 0
2, 44838, Note_on_c, 0, 42, 0
2, 44918, Note_on_c, 0, 66, 85
2, 44967, Note_on_c, 0, 66, 0
2, 45060, Note_on_c, 0, 66, 90
2, 45062, Note_on_c, 0, 63, 69
2, 45064, Note_on_c, 0, 37, 90
2, 45073, Note_on_c, 0, 63, 0
2, 45107, Note_on_c, 0, 37, 0
2, 45120, Note_on_c, 0, 66, 0
2, 45130, Note_on_c, 0, 66, 79
2, 45196, Note_on_c, 0, 66, 0
2, 45202, Note_on_c, 0, 66, 73
2, 45242, Note_on_c, 0, 66, 0
2, 45287, Note_on_c, 0, 66, 97
2, 45375, Note_on_c, 0, 54, 77
2, 45376, Note_on_c, 0, 42, 88
2, 45430, Note_on_c, 0, 54, 0
2, 45513, Note_on_c, 0, 68, 88
2, 45534, Control_c, 0, 64, 127
2, 45642, Note_on_c, 0, 66, 0
2, 45645, Note_on_c, 0, 49, 86
2, 45645, Note_on_c, 0, 37, 90
2, 45653, Note_on_c, 0, 66, 79
2, 45749, Note_on_c, 0, 42, 0
2, 45789, Note_on_c, 0, 46, 85
2, 45790, Note_on_c, 0, 65, 81
2, 45791, Note_on_c, 0, 34, 86
2, 45837, Control_c, 0, 64, 0
2, 45838, Note_on_c, 0, 66, 0
2, 45839, Note_on_c, 0, 68, 0
2, 45839, Note_on_c, 0, 34, 0
2, 45839, Note_on_c, 0, 37, 0
2, 45841, Note_on_c, 0, 49, 0
2, 45842, Note_on_c, 0, 46, 0
2, 45903, Note_on_c, 0, 65, 0
2, 45935, Note_on_c, 0, 63, 91
2, 45944, Note_on_c, 0, 47, 81
2, 45946, Note_on_c, 0, 35, 77
2, 45998, Note_on_c, 0, 47, 0
2, 46041, Note_on_c, 0, 35, 0
2, 46060, Note_on_c, 0, 63, 0
2, 46228, Note_on_c, 0, 75, 84
2, 46229, Note_on_c, 0, 63, 76
2, 46237, Note_on_c, 0, 30, 78
2, 46237, Note_on_c, 0, 42, 76
2, 46284, Note_on_c, 0, 75, 0
2, 46292, Note_on_c, 0, 30, 0
2, 46293, Note_on_c, 0, 42, 0
2, 46295, Note_on_c, 0, 63, 0
2, 46519, Note_on_c, 0, 77, 86
2, 46525, Note_on_c, 0, 65, 79
2, 46530, Note_on_c, 0, 47, 75
2, 46535, Note_on_c, 0, 35, 69
2, 46587, Note_on_c, 0, 65, 0
2, 46588, Note_on_c, 0, 35, 0
2, 46599, Note_on_c, 0, 77, 0
2, 46599, Note_on_c, 0, 47, 0
2, 46805, Note_on_c, 0, 78, 91
2, 46811, Note_on_c, 0, 66, 79
2, 46820, Note_on_c, 0, 30, 83
2, 46821, Note_on_c, 0, 42, 78
2, 46858, Note_on_c, 0, 78, 0
2, 46863, Note_on_c, 0, 66, 0
2, 46880, Note_on_c, 0, 30, 0
2, 46882, Note_on_c, 0, 42, 0
2, 47103, Note_on_c, 0, 82, 88
2, 47106, Note_on_c, 0, 78, 80
2, 47111, Note_on_c, 0, 73, 73
2, 47113, Note_on_c, 0, 70, 77
2, 47116, Note_on_c, 0, 49, 77
2, 47118, Note_on_c, 0, 37, 76
2, 47201, Note_on_c, 0, 37, 0
2, 47208, Note_on_c, 0, 49, 0
2, 47397, Note_on_c, 0, 32, 79
2, 47398, Note_on_c, 0, 44, 79
2, 47482, Note_on_c, 0, 44, 0
2, 47495, Note_on_c, 0, 70, 0
2, 47500, Note_on_c, 0, 32, 0
2, 47505, Note_on_c, 0, 78, 0
2, 47530, Note_on_c, 0, 80, 80
2, 47562, Note_on_c, 0, 73, 0
2, 47577, Note_on_c, 0, 82, 0
2, 47601, Note_on_c, 0, 80, 0
2, 47687, Note_on_c, 0, 49, 87
2, 47687, Note_on_c, 0, 80, 90
2, 47688, Note_on_c, 0, 37, 84
2, 47692, Note_on_c, 0, 77, 77
2, 47692, Note_on_c, 0, 68, 84
2, 47693, Note_on_c, 0, 73, 77
2, 47735, Note_on_c, 0, 49, 0
2, 47735, Note_on_c, 0, 37, 0
2, 47884, Control_c, 0, 64, 127
2, 47948, Note_on_c, 0, 32, 86
2, 47948, Note_on_c, 0, 44, 84
2, 48085, Note_on_c, 0, 53, 82
2, 48087, Note_on_c, 0, 41, 86
2, 48211, Note_on_c, 0, 80, 0
2, 48211, Note_on_c, 0, 77, 0
2, 48212, Note_on_c, 0, 68, 0
2, 48212, Control_c, 0, 64, 0
2, 48213, Note_on_c, 0, 53, 0
2, 48213, Note_on_c, 0, 73, 0
2, 48213, Note_on_c, 0, 32, 0
2, 48213, Note_on_c, 0, 41, 0
2, 48216, Note_on_c, 0, 44, 0
2, 48226, Note_on_c, 0, 66, 103
2, 48227, Note_on_c, 0, 42, 94
2, 48227, Note_on_c, 0, 54, 93
2, 48265, Note_on_c, 0, 54, 0
2, 48274, Note_on_c, 0, 42, 0
2, 48299, Note_on_c, 0, 66, 0
2, 48305, Note_on_c, 0, 66, 71
2, 48376, Note_on_c, 0, 66, 0
2, 48384, Note_on_c, 0, 66, 79
2, 48453, Note_on_c, 0, 66, 0
2, 48462, Note_on_c, 0, 66, 89
2, 48512, Note_on_c, 0, 37, 91
2, 48524, Note_on_c, 0, 49, 81
2, 48537, Note_on_c, 0, 66, 0
2, 48548, Note_on_c, 0, 66, 84
2, 48548, Note_on_c, 0, 37, 0
2, 48548, Note_on_c, 0, 49, 0
2, 48614, Note_on_c, 0, 66, 0
2, 48618, Note_on_c, 0, 66, 78
2, 48675, Note_on_c, 0, 66, 0
2, 48680, Note_on_c, 0, 66, 89
2, 48744, Note_on_c, 0, 66, 0
2, 48748, Note_on_c, 0, 66, 94
2, 48811, Note_on_c, 0, 42, 90
2, 48813, Note_on_c, 0, 54, 80
2, 48907, Note_on_c, 0, 54, 0
2, 48915, Note_on_c, 0, 42, 0
2, 48942, Note_on_c, 0, 66, 0
2, 48947, Note_on_c, 0, 68, 100
2, 49009, Note_on_c, 0, 68, 0
2, 49094, Note_on_c, 0, 66, 90
2, 49094, Note_on_c, 0, 37, 86
2, 49095, Note_on_c, 0, 49, 82
2, 49140, Note_on_c, 0, 66, 0
2, 49164, Note_on_c, 0, 37, 0
2, 49175, Note_on_c, 0, 49, 0
2, 49233, Note_on_c, 0, 66, 94
2, 49278, Note_on_c, 0, 66, 0
2, 49378, Note_on_c, 0, 66, 92
2, 49380, Note_on_c, 0, 54, 85
2, 49383, Note_on_c, 0, 42, 87
2, 49422, Note_on_c, 0, 54, 0
2, 49423, Note_on_c, 0, 66, 0
2, 49487, Note_on_c, 0, 42, 0
2, 49516, Note_on_c, 0, 66, 90
2, 49569, Note_on_c, 0, 66, 0
2, 49656, Note_on_c, 0, 66, 95
2, 49664, Note_on_c, 0, 37, 86
2, 49666, Note_on_c, 0, 49, 79
2, 49700, Note_on_c, 0, 37, 0
2, 49701, Note_on_c, 0, 49, 0
2, 49720, Note_on_c, 0, 66, 0
2, 49729, Note_on_c, 0, 66, 75
2, 49774, Note_on_c, 0, 66, 0
2, 49880, Note_on_c, 0, 66, 89
2, 49965, Note_on_c, 0, 42, 87
2, 49966, Note_on_c, 0, 54, 72
2, 50027, Control_c, 0, 64, 127
2, 50100, Note_on_c, 0, 68, 92
2, 50234, Note_on_c, 0, 49, 87
2, 50237, Note_on_c, 0, 37, 89
2, 50250, Note_on_c, 0, 66, 0
2, 50256, Note_on_c, 0, 66, 82
2, 50383, Note_on_c, 0, 65, 79
2, 50384, Note_on_c, 0, 46, 85
2, 50384, Note_on_c, 0, 34, 87
2, 50388, Note_on_c, 0, 66, 0
2, 50389, Note_on_c, 0, 68, 0
2, 50392, Note_on_c, 0, 49, 0
2, 50396, Note_on_c, 0, 37, 0
2, 50398, Note_on_c, 0, 42, 0
2, 50411, Note_on_c, 0, 54, 0
2, 50417, Control_c, 0, 64, 0
2, 50430, Note_on_c, 0, 34, 0
2, 50431, Note_on_c, 0, 46, 0
2, 50493, Note_on_c, 0, 65, 0
2, 50523, Note_on_c, 0, 63, 93
2, 50539, Note_on_c, 0, 47, 86
2, 50542, Note_on_c, 0, 35, 82
2, 50606, Note_on_c, 0, 35, 0
2, 50616, Note_on_c, 0, 47, 0
2, 50653, Note_on_c, 0, 63, 0
2, 50817, Note_on_c, 0, 75, 84
2, 50822, Note_on_c, 0, 63, 73
2, 50823, Note_on_c, 0, 30, 86
2, 50824, Note_on_c, 0, 42, 82
2, 50854, Note_on_c, 0, 75, 0
2, 50854, Note_on_c, 0, 63, 0
2, 50863, Note_on_c, 0, 42, 0
2, 50868, Note_on_c, 0, 30, 0
2, 50953, Note_on_c, 0, 75, 88
2, 50953, Note_on_c, 0, 63, 75
2, 50990, Note_on_c, 0, 75, 0
2, 50991, Note_on_c, 0, 63, 0
2, 51107, Note_on_c, 0, 47, 77
2, 51110, Note_on_c, 0, 77, 88
2, 51112, Note_on_c, 0, 35, 72
2, 51114, Note_on_c, 0, 69, 60
2, 51115, Note_on_c, 0, 65, 84
2, 51116, Note_on_c, 0, 75, 68
2, 51167, Note_on_c, 0, 35, 0
2, 51168, Note_on_c, 0, 47, 0
2, 51202, Note_on_c, 0, 65, 0
2, 51210, Note_on_c, 0, 77, 0
2, 51217, Note_on_c, 0, 75, 0
2, 51233, Note_on_c, 0, 69, 0
2, 51385, Note_on_c, 0, 78, 90
2, 51389, Note_on_c, 0, 66, 87
2, 51396, Note_on_c, 0, 42, 85
2, 51396, Note_on_c, 0, 30, 86
2, 51460, Note_on_c, 0, 66, 0
2, 51467, Note_on_c, 0, 78, 0
2, 51473, Note_on_c, 0, 30, 0
2, 51474, Note_on_c, 0, 42, 0
2, 51667, Note_on_c, 0, 82, 93
2, 51674, Note_on_c, 0, 78, 85
2, 51676, Note_on_c, 0, 73, 75
2, 51679, Note_on_c, 0, 49, 82
2, 51679, Note_on_c, 0, 37, 85
2, 51680, Note_on_c, 0, 70, 84
2, 51737, Note_on_c, 0, 37, 0
2, 51741, Note_on_c, 0, 49, 0
2, 51970, Note_on_c, 0, 42, 81
2, 51972, Note_on_c, 0, 30, 84
2, 52011, Note_on_c, 0, 42, 0
2, 52012, Note_on_c, 0, 70, 0
2, 52012, Note_on_c, 0, 30, 0
2, 52012, Note_on_c, 0, 78, 0
2, 52070, Note_on_c, 0, 73, 0
2, 52092, Note_on_c, 0, 80, 83
2, 52170, Note_on_c, 0, 82, 0
2, 52172, Note_on_c, 0, 80, 0
2, 52256, Note_on_c, 0, 68, 84
2, 52257, Note_on_c, 0, 80, 94
2, 52258, Note_on_c, 0, 37, 86
2, 52258, Note_on_c, 0, 49, 81
2, 52259, Note_on_c, 0, 73, 77
2, 52261, Note_on_c, 0, 77, 72
2, 52270, Control_c, 0, 64, 127
2, 52518, Note_on_c, 0, 97, 109
2, 52523, Note_on_c, 0, 37, 0
2, 52527, Note_on_c, 0, 89, 88
2, 52527, Note_on_c, 0, 85, 94
2, 52528, Note_on_c, 0, 92, 93
2, 52534, Note_on_c, 0, 37, 82
2, 52535, Note_on_c, 0, 25, 85
2, 52588, Control_c, 0, 64, 0
2, 52588, Note_on_c, 0, 80, 0
2, 52589, Note_on_c, 0, 77, 0
2, 52589, Note_on_c, 0, 68, 0
2, 52590, Note_on_c, 0, 73, 0
2, 52591, Note_on_c, 0, 37, 0
2, 52595, Note_on_c, 0, 89, 0
2, 52600, Note_on_c, 0, 25, 0
2, 52600, Note_on_c, 0, 49, 0
2, 52623, Note_on_c, 0, 97, 0
2, 52638, Note_on_c, 0, 85, 0
2, 52661, Note_on_c, 0, 92, 0
2, 52784, Control_c, 0, 64, 127
2, 52812, Note_on_c, 0, 73, 87
2, 52812, Note_on_c, 0, 42, 91
2, 52814, Note_on_c, 0, 70, 86
2, 52814, Note_on_c, 0, 78, 91
2, 52884, Note_on_c, 0, 66, 92
2, 52940, Note_on_c, 0, 58, 79
2, 52953, Note_on_c, 0, 78, 0
2, 52957, Note_on_c, 0, 78, 87
2, 52961, Note_on_c, 0, 70, 0
2, 52961, Note_on_c, 0, 73, 0
2, 52965, Note_on_c, 0, 73, 88
2, 52970, Note_on_c, 0, 70, 69
2, 53091, Note_on_c, 0, 70, 0
2, 53091, Note_on_c, 0, 73, 0
2, 53091, Note_on_c, 0, 78, 0
2, 53101, Note_on_c, 0, 73, 79
2, 53102, Note_on_c, 0, 54, 73
2, 53102, Note_on_c, 0, 70, 85
2, 53103, Note_on_c, 0, 78, 91
2, 53103, Note_on_c, 0, 49, 69
2, 53176, Note_on_c, 0, 66, 0
2, 53180, Note_on_c, 0, 66, 89
2, 53214, Note_on_c, 0, 58, 0
2, 53218, Note_on_c, 0, 58, 86
2, 53245, Note_on_c, 0, 70, 0
2, 53245, Note_on_c, 0, 73, 0
2, 53245, Note_on_c, 0, 78, 0
2, 53249, Note_on_c, 0, 78, 81
2, 53249, Note_on_c, 0, 73, 72
2, 53256, Note_on_c, 0, 70, 64
2, 53309, Note_on_c, 0, 54, 0
2, 53310, Note_on_c, 0, 49, 0
2, 53310, Note_on_c, 0, 66, 0
2, 53310, Note_on_c, 0, 78, 0
2, 53310, Note_on_c, 0, 70, 0
2, 53311, Note_on_c, 0, 73, 0
2, 53312, Control_c, 0, 64, 0
2, 53322, Note_on_c, 0, 58, 0
2, 53329, Note_on_c, 0, 42, 0
2, 53375, Note_on_c, 0, 42, 91
2, 53384, Note_on_c, 0, 70, 87
2, 53384, Note_on_c, 0, 78, 89
2, 53386, Note_on_c, 0, 73, 78
2, 53414, Control_c, 0, 64, 127
2, 53533, Note_on_c, 0, 80, 94
2, 53534, Note_on_c, 0, 58, 81
2, 53535, Note_on_c, 0, 68, 93
2, 53667, Note_on_c, 0, 78, 0
2, 53679, Note_on_c, 0, 78, 95
2, 53679, Note_on_c, 0, 66, 90
2, 53679, Note_on_c, 0, 61, 66
2, 53681, Note_on_c, 0, 49, 66
2, 53686, Note_on_c, 0, 54, 78
2, 53690, Note_on_c, 0, 61, 0
2, 53813, Note_on_c, 0, 78, 0
2, 53821, Note_on_c, 0, 58, 0
2, 53821, Note_on_c, 0, 66, 0
2, 53824, Note_on_c, 0, 78, 88
2, 53825, Note_on_c, 0, 58, 83
2, 53826, Note_on_c, 0, 66, 90
2, 53828, Note_on_c, 0, 68, 0
2, 53829, Note_on_c, 0, 70, 0
2, 53833, Note_on_c, 0, 70, 66
2, 53905, Note_on_c, 0, 54, 0
2, 53907, Note_on_c, 0, 80, 0
2, 53907, Note_on_c, 0, 73, 0
2, 53907, Note_on_c, 0, 66, 0
2, 53908, Note_on_c, 0, 70, 0
2, 53908, Note_on_c, 0, 78, 0
2, 53908, Note_on_c, 0, 58, 0
2, 53909, Control_c, 0, 64, 0
2, 53928, Note_on_c, 0, 42, 0
2, 53928, Note_on_c, 0, 49, 0
2, 53962, Note_on_c, 0, 73, 87
2, 53963, Note_on_c, 0, 78, 94
2, 53964, Note_on_c, 0, 70, 88
2, 53965, Note_on_c, 0, 39, 83
2, 53990, Control_c, 0, 64, 127
2, 54044, Note_on_c, 0, 66, 89
2, 54113, Note_on_c, 0, 70, 0
2, 54113, Note_on_c, 0, 73, 0
2, 54113, Note_on_c, 0, 78, 0
2, 54117, Note_on_c, 0, 78, 90
2, 54117, Note_on_c, 0, 73, 82
2, 54118, Note_on_c, 0, 70, 83
2, 54182, Note_on_c, 0, 66, 0
2, 54191, Note_on_c, 0, 58, 61
2, 54192, Note_on_c, 0, 66, 86
2, 54243, Note_on_c, 0, 70, 0
2, 54243, Note_on_c, 0, 73, 0
2, 54243, Note_on_c, 0, 78, 0
2, 54251, Note_on_c, 0, 70, 81
2, 54251, Note_on_c, 0, 54, 68
2, 54253, Note_on_c, 0, 73, 76
2, 54253, Note_on_c, 0, 51, 66
2, 54255, Note_on_c, 0, 78, 82
2, 54320, Note_on_c, 0, 66, 0
2, 54327, Note_on_c, 0, 66, 84
2, 54374, Note_on_c, 0, 58, 0
2, 54382, Note_on_c, 0, 70, 0
2, 54382, Note_on_c, 0, 73, 0
2, 54382, Note_on_c, 0, 78, 0
2, 54385, Note_on_c, 0, 58, 79
2, 54387, Note_on_c, 0, 73, 81
2, 54389, Note_on_c, 0, 78, 90
2, 54391, Note_on_c, 0, 70, 79
2, 54478, Note_on_c, 0, 54, 0
2, 54478, Control_c, 0, 64, 0
2, 54479, Note_on_c, 0, 73, 0
2, 54479, Note_on_c, 0, 78, 0
2, 54479, Note_on_c, 0, 70, 0
2, 54479, Note_on_c, 0, 58, 0
2, 54481, Note_on_c, 0, 39, 0
2, 54489, Note_on_c, 0, 66, 0
2, 54494, Note_on_c, 0, 66, 78
2, 54497, Note_on_c, 0, 51, 0
2, 54522, Note_on_c, 0, 78, 95
2, 54523, Note_on_c, 0, 39, 84
2, 54527, Note_on_c, 0, 73, 83
2, 54529, Note_on_c, 0, 70, 86
2, 54558, Control_c, 0, 64, 127
2, 54635, Note_on_c, 0, 66, 0
2, 54676, Note_on_c, 0, 80, 100
2, 54678, Note_on_c, 0, 68, 90
2, 54679, Note_on_c, 0, 58, 76
2, 54804, Note_on_c, 0, 78, 0
2, 54811, Note_on_c, 0, 78, 96
2, 54814, Note_on_c, 0, 54, 79
2, 54814, Note_on_c, 0, 66, 83
2, 54816, Note_on_c, 0, 51, 66
2, 54942, Note_on_c, 0, 58, 0
2, 54948, Note_on_c, 0, 77, 87
2, 54948, Note_on_c, 0, 58, 70
2, 54953, Note_on_c, 0, 65, 84
2, 55045, Control_c, 0, 64, 0
2, 55046, Note_on_c, 0, 54, 0
2, 55046, Note_on_c, 0, 73, 0
2, 55046, Note_on_c, 0, 80, 0
2, 55046, Note_on_c, 0, 58, 0
2, 55046, Note_on_c, 0, 70, 0
2, 55046, Note_on_c, 0, 78, 0
2, 55046, Note_on_c, 0, 68, 0
2, 55046, Note_on_c, 0, 66, 0
2, 55047, Note_on_c, 0, 39, 0
2, 55047, Note_on_c, 0, 65, 0
2, 55047, Note_on_c, 0, 77, 0
2, 55065, Note_on_c, 0, 51, 0
2, 55100, Note_on_c, 0, 47, 66
2, 55105, Note_on_c, 0, 63, 81
2, 55107, Note_on_c, 0, 75, 68
2, 55223, Note_on_c, 0, 63, 0
2, 55296, Note_on_c, 0, 75, 0
2, 55382, Note_on_c, 0, 65, 77
2, 55391, Note_on_c, 0, 59, 55
2, 55401, Note_on_c, 0, 51, 51
2, 55401, Note_on_c, 0, 54, 46
2, 55509, Note_on_c, 0, 65, 0
2, 55534, Note_on_c, 0, 59, 0
2, 55541, Note_on_c, 0, 59, 58
2, 55577, Note_on_c, 0, 54, 0
2, 55583, Note_on_c, 0, 51, 0
2, 55610, Note_on_c, 0, 47, 0
2, 55663, Note_on_c, 0, 66, 80
2, 55683, Note_on_c, 0, 47, 65
2, 55695, Note_on_c, 0, 59, 0
2, 55784, Note_on_c, 0, 66, 0
2, 55814, Note_on_c, 0, 59, 56
2, 55944, Note_on_c, 0, 68, 89
2, 55956, Note_on_c, 0, 59, 0
2, 55966, Note_on_c, 0, 59, 50
2, 55968, Note_on_c, 0, 54, 54
2, 55969, Note_on_c, 0, 51, 52
2, 56066, Note_on_c, 0, 68, 0
2, 56084, Note_on_c, 0, 54, 0
2, 56085, Note_on_c, 0, 47, 0
2, 56102, Note_on_c, 0, 59, 0
2, 56112, Note_on_c, 0, 59, 63
2, 56130, Note_on_c, 0, 51, 0
2, 56227, Note_on_c, 0, 70, 84
2, 56231, Note_on_c, 0, 59, 0
2, 56244, Note_on_c, 0, 49, 62
2, 56380, Note_on_c, 0, 61, 63
2, 56526, Note_on_c, 0, 53, 51
2, 56532, Note_on_c, 0, 56, 53
2, 56650, Note_on_c, 0, 68, 83
2, 56663, Note_on_c, 0, 61, 0
2, 56672, Note_on_c, 0, 61, 66
2, 56712, Note_on_c, 0, 70, 0
2, 56713, Note_on_c, 0, 56, 0
2, 56717, Note_on_c, 0, 49, 0
2, 56719, Note_on_c, 0, 53, 0
2, 56722, Note_on_c, 0, 68, 0
2, 56806, Note_on_c, 0, 49, 71
2, 56807, Note_on_c, 0, 68, 78
2, 56824, Note_on_c, 0, 61, 0
2, 56885, Control_c, 0, 64, 127
2, 56946, Note_on_c, 0, 61, 66
2, 57102, Note_on_c, 0, 53, 59
2, 57104, Note_on_c, 0, 56, 69
2, 57216, Note_on_c, 0, 61, 0
2, 57226, Note_on_c, 0, 61, 72
2, 57327, Control_c, 0, 64, 0
2, 57328, Note_on_c, 0, 56, 0
2, 57328, Note_on_c, 0, 61, 0
2, 57329, Note_on_c, 0, 53, 0
2, 57329, Note_on_c, 0, 49, 0
2, 57330, Note_on_c, 0, 68, 0
2, 57369, Note_on_c, 0, 42, 91
2, 57369, Note_on_c, 0, 78, 98
2, 57373, Note_on_c, 0, 70, 95
2, 57374, Note_on_c, 0, 73, 81
2, 57415, Control_c, 0, 64, 127
2, 57450, Note_on_c, 0, 66, 91
2, 57507, Note_on_c, 0, 73, 0
2, 57507, Note_on_c, 0, 78, 0
2, 57514, Note_on_c, 0, 78, 90
2, 57515, Note_on_c, 0, 70, 0
2, 57517, Note_on_c, 0, 61, 74
2, 57518, Note_on_c, 0, 58, 84
2, 57518, Note_on_c, 0, 73, 81
2, 57520, Note_on_c, 0, 70, 83
2, 57523, Note_on_c, 0, 61, 0
2, 57646, Note_on_c, 0, 70, 0
2, 57653, Note_on_c, 0, 73, 0
2, 57653, Note_on_c, 0, 78, 0
2, 57657, Note_on_c, 0, 70, 84
2, 57658, Note_on_c, 0, 73, 80
2, 57658, Note_on_c, 0, 78, 87
2, 57661, Note_on_c, 0, 54, 80
2, 57663, Note_on_c, 0, 49, 74
2, 57722, Note_on_c, 0, 66, 0
2, 57733, Note_on_c, 0, 66, 91
2, 57776, Note_on_c, 0, 58, 0
2, 57786, Note_on_c, 0, 58, 68
2, 57799, Note_on_c, 0, 70, 0
2, 57799, Note_on_c, 0, 73, 0
2, 57799, Note_on_c, 0, 78, 0
2, 57804, Note_on_c, 0, 78, 94
2, 57809, Note_on_c, 0, 73, 87
2, 57809, Note_on_c, 0, 70, 72
2, 57866, Note_on_c, 0, 54, 0
2, 57866, Note_on_c, 0, 66, 0
2, 57867, Note_on_c, 0, 78, 0
2, 57867, Note_on_c, 0, 49, 0
2, 57867, Control_c, 0, 64, 0
2, 57867, Note_on_c, 0, 73, 0
2, 57868, Note_on_c, 0, 70, 0
2, 57884, Note_on_c, 0, 42, 0
2, 57884, Note_on_c, 0, 58, 0
2, 57926, Note_on_c, 0, 42, 87
2, 57933, Note_on_c, 0, 70, 89
2, 57934, Note_on_c, 0, 78, 91
2, 57935, Note_on_c, 0, 73, 78
2, 57968, Control_c, 0, 64, 127
2, 58070, Note_on_c, 0, 80, 101
2, 58072, Note_on_c, 0, 58, 76
2, 58072, Note_on_c, 0, 68, 99
2, 58214, Note_on_c, 0, 78, 0
2, 58219, Note_on_c, 0, 78, 95
2, 58219, Note_on_c, 0, 66, 95
2, 58221, Note_on_c, 0, 49, 74
2, 58221, Note_on_c, 0, 61, 74
2, 58224, Note_on_c, 0, 54, 80
2, 58352, Note_on_c, 0, 58, 0
2, 58352, Note_on_c, 0, 66, 0
2, 58352, Note_on_c, 0, 78, 0
2, 58359, Note_on_c, 0, 58, 82
2, 58361, Note_on_c, 0, 78, 97
2, 58363, Note_on_c, 0, 66, 91
2, 58461, Control_c, 0, 64, 0
2, 58462, Note_on_c, 0, 70, 0
2, 58462, Note_on_c, 0, 54, 0
2, 58462, Note_on_c, 0, 68, 0
2, 58462, Note_on_c, 0, 42, 0
2, 58462, Note_on_c, 0, 49, 0
2, 58462, Note_on_c, 0, 73, 0
2, 58462, Note_on_c, 0, 80, 0
2, 58463, Note_on_c, 0, 58, 0
2, 58475, Note_on_c, 0, 61, 0
2, 58475, Note_on_c, 0, 66, 0
2, 58490, Note_on_c, 0, 78, 0
2, 58496, Note_on_c, 0, 73, 85
2, 58498, Note_on_c, 0, 78, 95
2, 58501, Note_on_c, 0, 70, 88
2, 58503, Note_on_c, 0, 39, 83
2, 58560, Control_c, 0, 64, 127
2, 58580, Note_on_c, 0, 66, 92
2, 58636, Note_on_c, 0, 78, 0
2, 58644, Note_on_c, 0, 70, 0
2, 58644, Note_on_c, 0, 73, 0
2, 58648, Note_on_c, 0, 78, 91
2, 58648, Note_on_c, 0, 58, 77
2, 58650, Note_on_c, 0, 73, 72
2, 58654, Note_on_c, 0, 70, 73
2, 58713, Note_on_c, 0, 66, 0
2, 58724, Note_on_c, 0, 66, 92
2, 58775, Note_on_c, 0, 73, 0
2, 58781, Note_on_c, 0, 73, 85
2, 58782, Note_on_c, 0, 70, 0
2, 58782, Note_on_c, 0, 78, 0
2, 58787, Note_on_c, 0, 78, 80
2, 58792, Note_on_c, 0, 70, 74
2, 58796, Note_on_c, 0, 51, 65
2, 58801, Note_on_c, 0, 54, 64
2, 58851, Note_on_c, 0, 66, 0
2, 58857, Note_on_c, 0, 66, 89
2, 58913, Note_on_c, 0, 58, 0
2, 58913, Note_on_c, 0, 78, 0
2, 58918, Note_on_c, 0, 58, 84
2, 58920, Note_on_c, 0, 70, 0
2, 58920, Note_on_c, 0, 73, 0
2, 58922, Note_on_c, 0, 78, 88
2, 58925, Note_on_c, 0, 73, 79
2, 58926, Note_on_c, 0, 70, 81
2, 59005, Note_on_c, 0, 66, 0
2, 59012, Note_on_c, 0, 66, 84
2, 59019, Control_c, 0, 64, 0
2, 59020, Note_on_c, 0, 54, 0
2, 59021, Note_on_c, 0, 73, 0
2, 59022, Note_on_c, 0, 78, 0
2, 59022, Note_on_c, 0, 51, 0
2, 59022, Note_on_c, 0, 58, 0
2, 59022, Note_on_c, 0, 70, 0
2, 59043, Note_on_c, 0, 39, 0
2, 59056, Note_on_c, 0, 39, 81
2, 59062, Note_on_c, 0, 78, 98
2, 59063, Note_on_c, 0, 73, 85
2, 59063, Note_on_c, 0, 70, 90
2, 59105, Control_c, 0, 64, 127
2, 59193, Note_on_c, 0, 80, 99
2, 59194, Note_on_c, 0, 68, 97
2, 59207, Note_on_c, 0, 58, 73
2, 59335, Note_on_c, 0, 66, 0
2, 59335, Note_on_c, 0, 78, 0
2, 59341, Note_on_c, 0, 78, 96
2, 59346, Note_on_c, 0, 66, 89
2, 59347, Note_on_c, 0, 51, 69
2, 59353, Note_on_c, 0, 54, 76
2, 59473, Note_on_c, 0, 58, 0
2, 59477, Note_on_c, 0, 77, 91
2, 59483, Note_on_c, 0, 58, 83
2, 59485, Note_on_c, 0, 65, 80
2, 59600, Note_on_c, 0, 80, 0
2, 59600, Note_on_c, 0, 70, 0
2, 59600, Note_on_c, 0, 65, 0
2, 59601, Note_on_c, 0, 73, 0
2, 59601, Note_on_c, 0, 68, 0
2, 59601, Note_on_c, 0, 78, 0
2, 59601, Note_on_c, 0, 58, 0
2, 59601, Note_on_c, 0, 77, 0
2, 59601, Note_on_c, 0, 54, 0
2, 59601, Note_on_c, 0, 39, 0
2, 59601, Note_on_c, 0, 66, 0
2, 59601, Control_c, 0, 64, 0
2, 59602, Note_on_c, 0, 51, 0
2, 59623, Note_on_c, 0, 75, 96
2, 59630, Note_on_c, 0, 47, 76
2, 59630, Note_on_c, 0, 63, 85
2, 59765, Note_on_c, 0, 63, 0
2, 59767, Note_on_c, 0, 59, 71
2, 59902, Note_on_c, 0, 63, 83
2, 59923, Note_on_c, 0, 54, 61
2, 59924, Note_on_c, 0, 51, 60
2, 59943, Note_on_c, 0, 63, 0
2, 59965, Note_on_c, 0, 75, 0
2, 60042, Note_on_c, 0, 59, 0
2, 60047, Note_on_c, 0, 63, 83
2, 60052, Note_on_c, 0, 59, 68
2, 60069, Note_on_c, 0, 51, 0
2, 60087, Note_on_c, 0, 63, 0
2, 60088, Note_on_c, 0, 47, 0
2, 60096, Note_on_c, 0, 54, 0
2, 60119, Note_on_c, 0, 59, 0
2, 60184, Note_on_c, 0, 47, 75
2, 60185, Note_on_c, 0, 65, 84
2, 60315, Note_on_c, 0, 65, 0
2, 60337, Note_on_c, 0, 59, 69
2, 60456, Note_on_c, 0, 59, 0
2, 60467, Note_on_c, 0, 59, 61
2, 60468, Note_on_c, 0, 66, 81
2, 60489, Note_on_c, 0, 51, 62
2, 60491, Note_on_c, 0, 54, 68
2, 60577, Note_on_c, 0, 47, 0
2, 60590, Note_on_c, 0, 54, 0
2, 60606, Note_on_c, 0, 66, 0
2, 60610, Note_on_c, 0, 59, 0
2, 60622, Note_on_c, 0, 59, 70
2, 60654, Note_on_c, 0, 51, 0
2, 60676, Note_on_c, 0, 59, 0
2, 60751, Note_on_c, 0, 70, 85
2, 60760, Note_on_c, 0, 49, 70
2, 60900, Note_on_c, 0, 61, 70
2, 61050, Note_on_c, 0, 53, 66
2, 61057, Note_on_c, 0, 56, 69
2, 61066, Note_on_c, 0, 61, 0
2, 61180, Note_on_c, 0, 68, 89
2, 61182, Note_on_c, 0, 61, 80
2, 61205, Note_on_c, 0, 49, 0
2, 61205, Note_on_c, 0, 53, 0
2, 61205, Note_on_c, 0, 56, 0
2, 61240, Note_on_c, 0, 70, 0
2, 61256, Note_on_c, 0, 61, 0
2, 61257, Note_on_c, 0, 68, 0
2, 61320, Note_on_c, 0, 49, 76
2, 61322, Note_on_c, 0, 68, 81
2, 61355, Control_c, 0, 64, 127
2, 61373, Note_on_c, 0, 61, 82
2, 61470, Note_on_c, 0, 65, 75
2, 61547, Note_on_c, 0, 68, 0
2, 61551, Note_on_c, 0, 68, 92
2, 61599, Note_on_c, 0, 85, 96
2, 61599, Note_on_c, 0, 80, 86
2, 61601, Note_on_c, 0, 61, 0
2, 61601, Note_on_c, 0, 77, 71
2, 61603, Note_on_c, 0, 73, 82
2, 61610, Note_on_c, 0, 61, 64
2, 61810, Note_on_c, 0, 65, 0
2, 61811, Note_on_c, 0, 49, 0
2, 61811, Control_c, 0, 64, 0
2, 61811, Note_on_c, 0, 61, 0
2, 61811, Note_on_c, 0, 85, 0
2, 61811, Note_on_c, 0, 80, 0
2, 61811, Note_on_c, 0, 68, 0
2, 61812, Note_on_c, 0, 77, 0
2, 61812, Note_on_c, 0, 73, 0
2, 61895, Note_on_c, 0, 50, 97
2, 61896, Note_on_c, 0, 74, 98
2, 61897, Note_on_c, 0, 38, 96
2, 61897, Note_on_c, 0, 78, 101
2, 61897, Note_on_c, 0, 66, 98
2, 61898, Note_on_c, 0, 69, 93
2, 61936, Note_on_c, 0, 50, 0
2, 61977, Note_on_c, 0, 38, 0
2, 62029, Note_on_c, 0, 45, 72
2, 62066, Note_on_c, 0, 45, 0
2, 62186, Note_on_c, 0, 33, 93
2, 62188, Note_on_c, 0, 45, 90
2, 62286, Note_on_c, 0, 45, 0
2, 62287, Note_on_c, 0, 69, 0
2, 62290, Note_on_c, 0, 33, 0
2, 62305, Note_on_c, 0, 40, 82
2, 62329, Note_on_c, 0, 78, 0
2, 62330, Note_on_c, 0, 74, 0
2, 62338, Note_on_c, 0, 66, 0
2, 62343, Note_on_c, 0, 40, 0
2, 62465, Note_on_c, 0, 81, 100
2, 62468, Note_on_c, 0, 74, 92
2, 62472, Note_on_c, 0, 38, 91
2, 62472, Note_on_c, 0, 50, 94
2, 62473, Note_on_c, 0, 69, 92
2, 62473, Note_on_c, 0, 78, 89
2, 62588, Note_on_c, 0, 50, 0
2, 62595, Note_on_c, 0, 38, 0
2, 62603, Note_on_c, 0, 45, 76
2, 62648, Note_on_c, 0, 45, 0
2, 62661, Note_on_c, 0, 74, 0
2, 62664, Note_on_c, 0, 81, 0
2, 62668, Note_on_c, 0, 69, 0
2, 62699, Note_on_c, 0, 78, 0
2, 62749, Note_on_c, 0, 83, 102
2, 62756, Note_on_c, 0, 71, 91
2, 62757, Note_on_c, 0, 45, 93
2, 62758, Note_on_c, 0, 33, 95
2, 62862, Note_on_c, 0, 45, 0
2, 62887, Note_on_c, 0, 40, 80
2, 62914, Note_on_c, 0, 33, 0
2, 62934, Note_on_c, 0, 83, 0
2, 62940, Note_on_c, 0, 40, 0
2, 62945, Note_on_c, 0, 71, 0
2, 63042, Note_on_c, 0, 81, 102
2, 63047, Note_on_c, 0, 37, 93
2, 63048, Note_on_c, 0, 49, 94
2, 63048, Note_on_c, 0, 76, 95
2, 63048, Note_on_c, 0, 69, 92
2, 63050, Note_on_c, 0, 73, 88
2, 63129, Note_on_c, 0, 49, 0
2, 63152, Note_on_c, 0, 37, 0
2, 63171, Note_on_c, 0, 45, 78
2, 63218, Note_on_c, 0, 45, 0
2, 63332, Note_on_c, 0, 33, 92
2, 63333, Note_on_c, 0, 45, 88
2, 63363, Note_on_c, 0, 76, 0
2, 63365, Note_on_c, 0, 69, 0
2, 63378, Note_on_c, 0, 73, 0
2, 63396, Note_on_c, 0, 45, 0
2, 63436, Note_on_c, 0, 81, 0
2, 63452, Note_on_c, 0, 33, 0
2, 63456, Note_on_c, 0, 40, 79
2, 63462, Note_on_c, 0, 76, 94
2, 63463, Note_on_c, 0, 64, 89
2, 63490, Note_on_c, 0, 64, 0
2, 63493, Note_on_c, 0, 40, 0
2, 63495, Note_on_c, 0, 76, 0
2, 63612, Note_on_c, 0, 76, 99
2, 63614, Note_on_c, 0, 64, 90
2, 63615, Note_on_c, 0, 49, 92
2, 63617, Note_on_c, 0, 69, 84
2, 63618, Note_on_c, 0, 37, 86
2, 63619, Note_on_c, 0, 73, 85
2, 63725, Note_on_c, 0, 49, 0
2, 63733, Note_on_c, 0, 37, 0
2, 63739, Note_on_c, 0, 45, 77
2, 63769, Note_on_c, 0, 45, 0
2, 63896, Note_on_c, 0, 33, 92
2, 63899, Note_on_c, 0, 45, 87
2, 64016, Note_on_c, 0, 40, 83
2, 64019, Note_on_c, 0, 45, 0
2, 64021, Note_on_c, 0, 33, 0
2, 64029, Note_on_c, 0, 76, 0
2, 64031, Note_on_c, 0, 69, 0
2, 64031, Note_on_c, 0, 73, 0
2, 64058, Note_on_c, 0, 64, 0
2, 64062, Note_on_c, 0, 40, 0
2, 64174, Note_on_c, 0, 62, 97
2, 64188, Note_on_c, 0, 47, 83
2, 64191, Note_on_c, 0, 35, 85
2, 64204, Control_c, 0, 64, 127
2, 64303, Note_on_c, 0, 35, 0
2, 64309, Note_on_c, 0, 47, 0
2, 64312, Control_c, 0, 64, 0
2, 64316, Note_on_c, 0, 42, 76
2, 64352, Note_on_c, 0, 42, 0
2, 64447, Note_on_c, 0, 62, 0
2, 64465, Note_on_c, 0, 66, 92
2, 64469, Note_on_c, 0, 40, 87
2, 64470, Note_on_c, 0, 28, 93
2, 64512, Control_c, 0, 64, 127
2, 64597, Note_on_c, 0, 28, 0
2, 64598, Control_c, 0, 64, 0
2, 64600, Note_on_c, 0, 40, 0
2, 64754, Note_on_c, 0, 64, 95
2, 64755, Note_on_c, 0, 47, 86
2, 64760, Note_on_c, 0, 35, 75
2, 64773, Control_c, 0, 64, 127
2, 64788, Note_on_c, 0, 66, 0
2, 64875, Note_on_c, 0, 47, 0
2, 64884, Note_on_c, 0, 42, 63
2, 64888, Note_on_c, 0, 42, 0
2, 64888, Control_c, 0, 64, 0
2, 64896, Note_on_c, 0, 35, 0
2, 65043, Note_on_c, 0, 66, 87
2, 65044, Note_on_c, 0, 40, 89
2, 65045, Note_on_c, 0, 28, 95
2, 65164, Note_on_c, 0, 28, 0
2, 65172, Note_on_c, 0, 40, 0
2, 65185, Note_on_c, 0, 35, 51
2, 65195, Note_on_c, 0, 35, 0
2, 65210, Note_on_c, 0, 64, 0
2, 65331, Note_on_c, 0, 45, 92
2, 65331, Note_on_c, 0, 33, 90
2, 65332, Note_on_c, 0, 64, 92
2, 65334, Note_on_c, 0, 61, 73
2, 65387, Note_on_c, 0, 66, 0
2, 65457, Note_on_c, 0, 40, 81
2, 65479, Note_on_c, 0, 45, 0
2, 65496, Note_on_c, 0, 40, 0
2, 65502, Note_on_c, 0, 33, 0
2, 65556, Note_on_c, 0, 61, 0
2, 65622, Note_on_c, 0, 40, 88
2, 65622, Note_on_c, 0, 28, 94
2, 65730, Note_on_c, 0, 35, 76
2, 65735, Note_on_c, 0, 28, 0
2, 65738, Note_on_c, 0, 40, 0
2, 65772, Note_on_c, 0, 62, 84
2, 65782, Note_on_c, 0, 64, 0
2, 65794, Note_on_c, 0, 35, 0
2, 65863, Note_on_c, 0, 62, 0
2, 65898, Note_on_c, 0, 33, 94
2, 65898, Note_on_c, 0, 45, 94
2, 65898, Note_on_c, 0, 61, 86
2, 65950, Note_on_c, 0, 33, 0
2, 65951, Note_on_c, 0, 45, 0
2, 66050, Note_on_c, 0, 45, 93
2, 66050, Note_on_c, 0, 33, 94
2, 66094, Control_c, 0, 64, 127
2, 66184, Note_on_c, 0, 47, 88
2, 66184, Note_on_c, 0, 35, 90
2, 66193, Control_c, 0, 64, 0
2, 66278, Control_c, 0, 64, 127
2, 66329, Note_on_c, 0, 37, 97
2, 66330, Note_on_c, 0, 49, 92
2, 66341, Control_c, 0, 64, 0
2, 66358, Note_on_c, 0, 47, 0
2, 66360, Note_on_c, 0, 35, 0
2, 66361, Note_on_c, 0, 61, 0
2, 66362, Note_on_c, 0, 33, 0
2, 66362, Note_on_c, 0, 45, 0
2, 66374, Note_on_c, 0, 49, 0
2, 66376, Note_on_c, 0, 37, 0
2, 66483, Note_on_c, 0, 74, 96
2, 66483, Note_on_c, 0, 78, 101
2, 66483, Note_on_c, 0, 66, 97
2, 66487, Note_on_c, 0, 50, 96
2, 66489, Note_on_c, 0, 38, 95
2, 66489, Note_on_c, 0, 69, 90
2, 66593, Note_on_c, 0, 50, 0
2, 66594, Note_on_c, 0, 38, 0
2, 66616, Note_on_c, 0, 45, 74
2, 66654, Note_on_c, 0, 45, 0
2, 66764, Note_on_c, 0, 33, 96
2, 66765, Note_on_c, 0, 45, 95
2, 66885, Control_c, 0, 64, 127
2, 66894, Note_on_c, 0, 40, 78
2, 66896, Note_on_c, 0, 45, 0
2, 66897, Note_on_c, 0, 33, 0
2, 66897, Note_on_c, 0, 69, 0
2, 66900, Control_c, 0, 64, 0
2, 66902, Note_on_c, 0, 66, 0
2, 66904, Note_on_c, 0, 78, 0
2, 66923, Note_on_c, 0, 74, 0
2, 66935, Note_on_c, 0, 40, 0
2, 67041, Note_on_c, 0, 81, 102
2, 67043, Note_on_c, 0, 74, 97
2, 67048, Note_on_c, 0, 78, 93
2, 67049, Note_on_c, 0, 69, 93
2, 67057, Note_on_c, 0, 50, 95
2, 67059, Note_on_c, 0, 38, 87
2, 67146, Note_on_c, 0, 50, 0
2, 67181, Note_on_c, 0, 45, 71
2, 67232, Note_on_c, 0, 45, 0
2, 67242, Note_on_c, 0, 74, 0
2, 67243, Note_on_c, 0, 78, 0
2, 67246, Note_on_c, 0, 38, 0
2, 67253, Note_on_c, 0, 69, 0
2, 67276, Note_on_c, 0, 81, 0
2, 67328, Note_on_c, 0, 83, 103
2, 67332, Note_on_c, 0, 71, 92
2, 67332, Note_on_c, 0, 33, 93
2, 67333, Note_on_c, 0, 45, 91
2, 67392, Control_c, 0, 64, 127
2, 67418, Control_c, 0, 64, 0
2, 67462, Note_on_c, 0, 40, 77
2, 67467, Note_on_c, 0, 45, 0
2, 67467, Note_on_c, 0, 33, 0
2, 67492, Note_on_c, 0, 83, 0
2, 67504, Note_on_c, 0, 40, 0
2, 67507, Note_on_c, 0, 71, 0
2, 67610, Note_on_c, 0, 81, 87
2, 67610, Note_on_c, 0, 85, 103
2, 67612, Note_on_c, 0, 73, 98
2, 67614, Note_on_c, 0, 76, 92
2, 67619, Note_on_c, 0, 49, 100
2, 67625, Note_on_c, 0, 37, 94
2, 67740, Note_on_c, 0, 49, 0
2, 67744, Note_on_c, 0, 37, 0
2, 67758, Note_on_c, 0, 57, 78
2, 67759, Note_on_c, 0, 45, 76
2, 67789, Note_on_c, 0, 45, 0
2, 67822, Note_on_c, 0, 57, 0
2, 67897, Note_on_c, 0, 33, 93
2, 67901, Note_on_c, 0, 45, 89
2, 67944, Note_on_c, 0, 81, 0
2, 67944, Note_on_c, 0, 85, 0
2, 67991, Note_on_c, 0, 73, 0
2, 67998, Control_c, 0, 64, 127
2, 68014, Control_c, 0, 64, 0
2, 68017, Note_on_c, 0, 40, 85
2, 68035, Note_on_c, 0, 81, 96
2, 68039, Note_on_c, 0, 69, 91
2, 68044, Note_on_c, 0, 45, 0
2, 68052, Note_on_c, 0, 76, 0
2, 68058, Note_on_c, 0, 40, 0
2, 68060, Note_on_c, 0, 33, 0
2, 68063, Note_on_c, 0, 69, 0
2, 68063, Note_on_c, 0, 81, 0
2, 68174, Note_on_c, 0, 76, 100
2, 68176, Note_on_c, 0, 49, 94
2, 68178, Note_on_c, 0, 37, 90
2, 68179, Note_on_c, 0, 69, 85
2, 68180, Note_on_c, 0, 64, 88
2, 68183, Note_on_c, 0, 73, 84
2, 68312, Note_on_c, 0, 45, 65
2, 68344, Note_on_c, 0, 37, 0
2, 68344, Note_on_c, 0, 49, 0
2, 68355, Note_on_c, 0, 45, 0
2, 68462, Note_on_c, 0, 33, 93
2, 68462, Note_on_c, 0, 45, 90
2, 68566, Note_on_c, 0, 45, 0
2, 68567, Note_on_c, 0, 33, 0
2, 68571, Note_on_c, 0, 73, 0
2, 68571, Note_on_c, 0, 76, 0
2, 68594, Note_on_c, 0, 40, 74
2, 68613, Note_on_c, 0, 64, 0
2, 68634, Note_on_c, 0, 40, 0
2, 68651, Note_on_c, 0, 69, 0
2, 68743, Note_on_c, 0, 66, 81
2, 68756, Note_on_c, 0, 62, 70
2, 68767, Note_on_c, 0, 47, 69
2, 68770, Note_on_c, 0, 35, 64
2, 68966, Control_c, 0, 64, 127
2, 69034, Note_on_c, 0, 69, 81
2, 69294, Note_on_c, 0, 35, 0
2, 69297, Note_on_c, 0, 47, 0
2, 69297, Note_on_c, 0, 66, 0
2, 69297, Note_on_c, 0, 62, 0
2, 69298, Note_on_c, 0, 69, 0
2, 69299, Control_c, 0, 64, 0
2, 69331, Note_on_c, 0, 68, 88
2, 69340, Note_on_c, 0, 40, 75
2, 69342, Note_on_c, 0, 59, 72
2, 69342, Note_on_c, 0, 52, 76
2, 69450, Control_c, 0, 64, 127
2, 69755, Note_on_c, 0, 52, 0
2, 69756, Note_on_c, 0, 68, 0
2, 69757, Control_c, 0, 64, 0
2, 69757, Note_on_c, 0, 59, 0
2, 69758, Note_on_c, 0, 40, 0
2, 69788, Note_on_c, 0, 69, 80
2, 69793, Note_on_c, 0, 61, 72
2, 69795, Note_on_c, 0, 57, 73
2, 69796, Note_on_c, 0, 33, 76
2, 69799, Note_on_c, 0, 45, 70
2, 69845, Note_on_c, 0, 33, 0
2, 69851, Note_on_c, 0, 45, 0
2, 69888, Control_c, 0, 64, 127
2, 70087, Note_on_c, 0, 61, 0
2, 70087, Note_on_c, 0, 69, 0
2, 70093, Note_on_c, 0, 61, 79
2, 70097, Note_on_c, 0, 69, 83
2, 70169, Note_on_c, 0, 73, 85
2, 70173, Note_on_c, 0, 64, 82
2, 70237, Note_on_c, 0, 74, 87
2, 70252, Note_on_c, 0, 66, 76
2, 70307, Note_on_c, 0, 68, 87
2, 70309, Note_on_c, 0, 76, 90
2, 70356, Note_on_c, 0, 69, 0
2, 70364, Note_on_c, 0, 69, 74
2, 70384, Note_on_c, 0, 78, 86
2, 70444, Note_on_c, 0, 71, 86
2, 70446, Note_on_c, 0, 80, 93
2, 70476, Note_on_c, 0, 66, 0
2, 70477, Note_on_c, 0, 64, 0
2, 70477, Note_on_c, 0, 76, 0
2, 70477, Note_on_c, 0, 74, 0
2, 70477, Note_on_c, 0, 68, 0
2, 70477, Note_on_c, 0, 73, 0
2, 70479, Control_c, 0, 64, 0
2, 70479, Note_on_c, 0, 57, 0
2, 70479, Note_on_c, 0, 61, 0
2, 70481, Note_on_c, 0, 78, 0
2, 70494, Note_on_c, 0, 69, 0
2, 70515, Note_on_c, 0, 71, 0
2, 70529, Note_on_c, 0, 73, 97
2, 70530, Note_on_c, 0, 81, 101
2, 70548, Note_on_c, 0, 80, 0
2, 70586, Control_c, 0, 64, 127
2, 70826, Note_on_c, 0, 45, 91
2, 70890, Note_on_c, 0, 81, 0
2, 70890, Control_c, 0, 64, 0
2, 70891, Note_on_c, 0, 73, 0
2, 70896, Note_on_c, 0, 45, 0
2, 71108, Note_on_c, 0, 80, 103
2, 71110, Note_on_c, 0, 30, 96
2, 71112, Note_on_c, 0, 68, 101
2, 71139, Control_c, 0, 64, 127
2, 71262, Note_on_c, 0, 58, 84
2, 71267, Note_on_c, 0, 70, 81
2, 71269, Note_on_c, 0, 73, 73
2, 71393, Note_on_c, 0, 73, 0
2, 71400, Note_on_c, 0, 70, 0
2, 71403, Note_on_c, 0, 54, 76
2, 71404, Note_on_c, 0, 73, 81
2, 71404, Note_on_c, 0, 70, 76
2, 71531, Note_on_c, 0, 58, 0
2, 71536, Note_on_c, 0, 58, 83
2, 71541, Note_on_c, 0, 61, 61
2, 71547, Note_on_c, 0, 82, 98
2, 71608, Note_on_c, 0, 30, 0
2, 71651, Note_on_c, 0, 80, 0
2, 71651, Note_on_c, 0, 68, 0
2, 71652, Note_on_c, 0, 54, 0
2, 71653, Note_on_c, 0, 61, 0
2, 71653, Note_on_c, 0, 58, 0
2, 71656, Control_c, 0, 64, 0
2, 71669, Note_on_c, 0, 82, 0
2, 71677, Note_on_c, 0, 70, 0
2, 71677, Note_on_c, 0, 73, 0
2, 71680, Note_on_c, 0, 82, 98
2, 71681, Note_on_c, 0, 42, 96
2, 71682, Note_on_c, 0, 70, 96
2, 71683, Note_on_c, 0, 30, 84
2, 71723, Control_c, 0, 64, 127
2, 71731, Note_on_c, 0, 30, 0
2, 71831, Note_on_c, 0, 70, 0
2, 71835, Note_on_c, 0, 58, 84
2, 71837, Note_on_c, 0, 73, 79
2, 71842, Note_on_c, 0, 70, 74
2, 71969, Note_on_c, 0, 58, 0
2, 71969, Note_on_c, 0, 73, 0
2, 71976, Note_on_c, 0, 70, 0
2, 71977, Note_on_c, 0, 73, 92
2, 71977, Note_on_c, 0, 58, 76
2, 71977, Note_on_c, 0, 54, 69
2, 71979, Note_on_c, 0, 61, 75
2, 71981, Note_on_c, 0, 70, 77
2, 72099, Note_on_c, 0, 58, 0
2, 72104, Note_on_c, 0, 58, 82
2, 72111, Note_on_c, 0, 80, 95
2, 72114, Note_on_c, 0, 68, 96
2, 72211, Control_c, 0, 64, 0
2, 72212, Note_on_c, 0, 42, 0
2, 72212, Note_on_c, 0, 73, 0
2, 72213, Note_on_c, 0, 54, 0
2, 72213, Note_on_c, 0, 70, 0
2, 72213, Note_on_c, 0, 68, 0
2, 72213, Note_on_c, 0, 58, 0
2, 72214, Note_on_c, 0, 82, 0
2, 72214, Note_on_c, 0, 61, 0
2, 72238, Note_on_c, 0, 80, 0
2, 72247, Note_on_c, 0, 80, 103
2, 72249, Note_on_c, 0, 68, 107
2, 72250, Note_on_c, 0, 35, 83
2, 72284, Control_c, 0, 64, 127
2, 72396, Note_on_c, 0, 71, 74
2, 72398, Note_on_c, 0, 75, 79
2, 72399, Note_on_c, 0, 59, 78
2, 72537, Note_on_c, 0, 71, 0
2, 72537, Note_on_c, 0, 75, 0
2, 72543, Note_on_c, 0, 75, 85
2, 72544, Note_on_c, 0, 54, 69
2, 72548, Note_on_c, 0, 71, 71
2, 72551, Note_on_c, 0, 51, 66
2, 72660, Note_on_c, 0, 59, 0
2, 72671, Note_on_c, 0, 59, 83
2, 72678, Note_on_c, 0, 78, 93
2, 72679, Note_on_c, 0, 66, 91
2, 72772, Note_on_c, 0, 54, 0
2, 72773, Note_on_c, 0, 71, 0
2, 72773, Note_on_c, 0, 51, 0
2, 72773, Control_c, 0, 64, 0
2, 72774, Note_on_c, 0, 66, 0
2, 72774, Note_on_c, 0, 80, 0
2, 72774, Note_on_c, 0, 78, 0
2, 72774, Note_on_c, 0, 75, 0
2, 72774, Note_on_c, 0, 68, 0
2, 72783, Note_on_c, 0, 35, 0
2, 72791, Note_on_c, 0, 59, 0
2, 72810, Note_on_c, 0, 35, 84
2, 72816, Note_on_c, 0, 78, 105
2, 72817, Note_on_c, 0, 66, 101
2, 72844, Control_c, 0, 64, 127
2, 72850, Note_on_c, 0, 35, 0
2, 72963, Note_on_c, 0, 75, 81
2, 72964, Note_on_c, 0, 59, 81
2, 72964, Note_on_c, 0, 71, 73
2, 73098, Note_on_c, 0, 75, 0
2, 73098, Note_on_c, 0, 54, 66
2, 73109, Note_on_c, 0, 75, 84
2, 73113, Note_on_c, 0, 71, 0
2, 73117, Note_on_c, 0, 71, 64
2, 73117, Note_on_c, 0, 51, 69
2, 73236, Note_on_c, 0, 59, 0
2, 73244, Note_on_c, 0, 59, 86
2, 73369, Control_c, 0, 64, 0
2, 73370, Note_on_c, 0, 51, 0
2, 73370, Note_on_c, 0, 54, 0
2, 73370, Note_on_c, 0, 71, 0
2, 73370, Note_on_c, 0, 59, 0
2, 73382, Note_on_c, 0, 66, 0
2, 73382, Note_on_c, 0, 78, 0
2, 73388, Note_on_c, 0, 78, 108
2, 73390, Note_on_c, 0, 75, 0
2, 73391, Note_on_c, 0, 39, 96
2, 73392, Note_on_c, 0, 66, 105
2, 73443, Control_c, 0, 64, 127
2, 73537, Note_on_c, 0, 58, 81
2, 73664, Note_on_c, 0, 80, 100
2, 73669, Note_on_c, 0, 68, 98
2, 73685, Note_on_c, 0, 54, 69
2, 73685, Note_on_c, 0, 51, 69
2, 73804, Note_on_c, 0, 58, 0
2, 73814, Note_on_c, 0, 58, 86
2, 73816, Note_on_c, 0, 82, 102
2, 73819, Note_on_c, 0, 70, 96
2, 73819, Note_on_c, 0, 61, 61
2, 73827, Note_on_c, 0, 61, 0
2, 73900, Note_on_c, 0, 54, 0
2, 73900, Control_c, 0, 64, 0
2, 73900, Note_on_c, 0, 66, 0
2, 73900, Note_on_c, 0, 68, 0
2, 73900, Note_on_c, 0, 80, 0
2, 73900, Note_on_c, 0, 78, 0
2, 73900, Note_on_c, 0, 58, 0
2, 73904, Note_on_c, 0, 39, 0
2, 73927, Note_on_c, 0, 51, 0
2, 73949, Note_on_c, 0, 39, 92
2, 73981, Control_c, 0, 64, 127
2, 74090, Note_on_c, 0, 58, 84
2, 74096, Note_on_c, 0, 39, 0
2, 74228, Note_on_c, 0, 83, 98
2, 74235, Note_on_c, 0, 71, 88
2, 74237, Note_on_c, 0, 54, 78
2, 74243, Note_on_c, 0, 51, 70
2, 74357, Note_on_c, 0, 51, 0
2, 74357, Note_on_c, 0, 58, 0
2, 74361, Note_on_c, 0, 58, 94
2, 74364, Note_on_c, 0, 51, 71
2, 74365, Note_on_c, 0, 82, 0
2, 74371, Note_on_c, 0, 82, 100
2, 74373, Note_on_c, 0, 70, 0
2, 74378, Note_on_c, 0, 70, 91
2, 74461, Note_on_c, 0, 54, 0
2, 74461, Note_on_c, 0, 71, 0
2, 74461, Note_on_c, 0, 83, 0
2, 74461, Note_on_c, 0, 58, 0
2, 74462, Note_on_c, 0, 51, 0
2, 74466, Control_c, 0, 64, 0
2, 74501, Note_on_c, 0, 41, 85
2, 74549, Control_c, 0, 64, 127
2, 74665, Note_on_c, 0, 56, 75
2, 74667, Note_on_c, 0, 73, 77
2, 74797, Note_on_c, 0, 53, 71
2, 74797, Note_on_c, 0, 78, 102
2, 74799, Note_on_c, 0, 66, 99
2, 74807, Note_on_c, 0, 49, 80
2, 74926, Note_on_c, 0, 56, 0
2, 74937, Note_on_c, 0, 56, 74
2, 74949, Note_on_c, 0, 73, 0
2, 74956, Note_on_c, 0, 73, 83
2, 75043, Note_on_c, 0, 49, 0
2, 75043, Control_c, 0, 64, 0
2, 75043, Note_on_c, 0, 73, 0
2, 75043, Note_on_c, 0, 53, 0
2, 75044, Note_on_c, 0, 66, 0
2, 75044, Note_on_c, 0, 78, 0
2, 75048, Note_on_c, 0, 41, 0
2, 75056, Note_on_c, 0, 56, 0
2, 75056, Note_on_c, 0, 70, 0
2, 75056, Note_on_c, 0, 82, 0
2, 75074, Note_on_c, 0, 80, 99
2, 75075, Note_on_c, 0, 37, 95
2, 75082, Note_on_c, 0, 68, 97
2, 75110, Control_c, 0, 64, 127
2, 75225, Note_on_c, 0, 37, 0
2, 75231, Note_on_c, 0, 73, 91
2, 75234, Note_on_c, 0, 56, 69
2, 75359, Note_on_c, 0, 78, 103
2, 75360, Note_on_c, 0, 66, 100
2, 75360, Note_on_c, 0, 61, 77
2, 75362, Note_on_c, 0, 53, 79
2, 75363, Note_on_c, 0, 49, 83
2, 75494, Note_on_c, 0, 56, 0
2, 75494, Note_on_c, 0, 73, 0
2, 75498, Note_on_c, 0, 73, 84
2, 75498, Note_on_c, 0, 56, 81
2, 75571, Note_on_c, 0, 56, 0
2, 75571, Note_on_c, 0, 49, 0
2, 75571, Note_on_c, 0, 66, 0
2, 75571, Note_on_c, 0, 80, 0
2, 75571, Note_on_c, 0, 73, 0
2, 75572, Note_on_c, 0, 68, 0
2, 75572, Note_on_c, 0, 78, 0
2, 75572, Note_on_c, 0, 53, 0
2, 75575, Control_c, 0, 64, 0
2, 75578, Note_on_c, 0, 61, 0
2, 75634, Note_on_c, 0, 80, 104
2, 75636, Note_on_c, 0, 68, 103
2, 75636, Note_on_c, 0, 30, 100
2, 75648, Control_c, 0, 64, 127
2, 75785, Note_on_c, 0, 73, 86
2, 75788, Note_on_c, 0, 70, 83
2, 75790, Note_on_c, 0, 58, 78
2, 75924, Note_on_c, 0, 70, 0
2, 75924, Note_on_c, 0, 73, 0
2, 75929, Note_on_c, 0, 70, 88
2, 75929, Note_on_c, 0, 54, 70
2, 75934, Note_on_c, 0, 73, 83
2, 75935, Note_on_c, 0, 61, 74
2, 75939, Note_on_c, 0, 61, 0
2, 76055, Note_on_c, 0, 58, 0
2, 76062, Note_on_c, 0, 70, 0
2, 76065, Note_on_c, 0, 58, 86
2, 76067, Note_on_c, 0, 70, 93
2, 76067, Note_on_c, 0, 82, 101
2, 76173, Note_on_c, 0, 68, 0
2, 76173, Note_on_c, 0, 80, 0
2, 76174, Note_on_c, 0, 58, 0
2, 76174, Note_on_c, 0, 73, 0
2, 76178, Control_c, 0, 64, 0
2, 76185, Note_on_c, 0, 82, 0
2, 76193, Note_on_c, 0, 30, 0
2, 76193, Note_on_c, 0, 54, 0
2, 76193, Note_on_c, 0, 70, 0
2, 76197, Note_on_c, 0, 82, 102
2, 76198, Note_on_c, 0, 42, 92
2, 76198, Note_on_c, 0, 70, 96
2, 76201, Note_on_c, 0, 30, 85
2, 76239, Control_c, 0, 64, 127
2, 76285, Note_on_c, 0, 30, 0
2, 76346, Note_on_c, 0, 70, 0
2, 76349, Note_on_c, 0, 73, 85
2, 76350, Note_on_c, 0, 58, 81
2, 76351, Note_on_c, 0, 70, 79
2, 76485, Note_on_c, 0, 73, 0
2, 76492, Note_on_c, 0, 70, 0
2, 76496, Note_on_c, 0, 73, 91
2, 76496, Note_on_c, 0, 49, 75
2, 76497, Note_on_c, 0, 54, 73
2, 76498, Note_on_c, 0, 70, 83
2, 76615, Note_on_c, 0, 54, 0
2, 76615, Note_on_c, 0, 58, 0
2, 76620, Note_on_c, 0, 58, 80
2, 76625, Note_on_c, 0, 54, 73
2, 76625, Note_on_c, 0, 80, 100
2, 76627, Note_on_c, 0, 68, 99
2, 76725, Note_on_c, 0, 49, 0
2, 76725, Note_on_c, 0, 73, 0
2, 76725, Note_on_c, 0, 82, 0
2, 76725, Note_on_c, 0, 54, 0
2, 76725, Note_on_c, 0, 42, 0
2, 76726, Note_on_c, 0, 70, 0
2, 76726, Note_on_c, 0, 68, 0
2, 76726, Note_on_c, 0, 58, 0
2, 76727, Control_c, 0, 64, 0
2, 76753, Note_on_c, 0, 80, 0
2, 76758, Note_on_c, 0, 80, 109
2, 76758, Note_on_c, 0, 47, 83
2, 76760, Note_on_c, 0, 35, 85
2, 76762, Note_on_c, 0, 68, 106
2, 76792, Control_c, 0, 64, 127
2, 76838, Note_on_c, 0, 35, 0
2, 76838, Note_on_c, 0, 47, 0
2, 76911, Note_on_c, 0, 59, 84
2, 76911, Note_on_c, 0, 71, 74
2, 76911, Note_on_c, 0, 75, 74
2, 77045, Note_on_c, 0, 75, 0
2, 77048, Note_on_c, 0, 54, 77
2, 77051, Note_on_c, 0, 51, 75
2, 77052, Note_on_c, 0, 75, 85
2, 77053, Note_on_c, 0, 71, 0
2, 77059, Note_on_c, 0, 71, 73
2, 77184, Note_on_c, 0, 59, 0
2, 77191, Note_on_c, 0, 59, 85
2, 77195, Note_on_c, 0, 78, 95
2, 77196, Note_on_c, 0, 66, 91
2, 77306, Note_on_c, 0, 54, 0
2, 77306, Note_on_c, 0, 71, 0
2, 77307, Note_on_c, 0, 68, 0
2, 77307, Note_on_c, 0, 51, 0
2, 77307, Note_on_c, 0, 59, 0
2, 77307, Note_on_c, 0, 80, 0
2, 77308, Note_on_c, 0, 75, 0
2, 77310, Control_c, 0, 64, 0
2, 77314, Note_on_c, 0, 78, 0
2, 77322, Note_on_c, 0, 66, 0
2, 77323, Note_on_c, 0, 78, 103
2, 77325, Note_on_c, 0, 35, 84
2, 77329, Note_on_c, 0, 66, 96
2, 77329, Note_on_c, 0, 69, 70
2, 77370, Note_on_c, 0, 35, 0
2, 77376, Control_c, 0, 64, 127
2, 77477, Note_on_c, 0, 75, 83
2, 77479, Note_on_c, 0, 71, 72
2, 77479, Note_on_c, 0, 59, 80
2, 77614, Note_on_c, 0, 75, 0
2, 77619, Note_on_c, 0, 54, 79
2, 77619, Note_on_c, 0, 75, 91
2, 77621, Note_on_c, 0, 71, 0
2, 77628, Note_on_c, 0, 51, 68
2, 77632, Note_on_c, 0, 71, 69
2, 77744, Note_on_c, 0, 59, 0
2, 77754, Note_on_c, 0, 59, 77
2, 77859, Note_on_c, 0, 69, 0
2, 77860, Control_c, 0, 64, 0
2, 77860, Note_on_c, 0, 51, 0
2, 77860, Note_on_c, 0, 54, 0
2, 77860, Note_on_c, 0, 66, 0
2, 77861, Note_on_c, 0, 71, 0
2, 77861, Note_on_c, 0, 75, 0
2, 77861, Note_on_c, 0, 59, 0
2, 77862, Note_on_c, 0, 78, 0
2, 77895, Note_on_c, 0, 78, 107
2, 77895, Note_on_c, 0, 39, 90
2, 77898, Note_on_c, 0, 66, 104
2, 77936, Control_c, 0, 64, 127
2, 78046, Note_on_c, 0, 58, 86
2, 78192, Note_on_c, 0, 80, 100
2, 78193, Note_on_c, 0, 54, 73
2, 78198, Note_on_c, 0, 68, 93
2, 78201, Note_on_c, 0, 51, 74
2, 78320, Note_on_c, 0, 58, 0
2, 78328, Note_on_c, 0, 58, 88
2, 78340, Note_on_c, 0, 82, 103
2, 78347, Note_on_c, 0, 70, 95
2, 78406, Control_c, 0, 64, 0
2, 78406, Note_on_c, 0, 54, 0
2, 78406, Note_on_c, 0, 66, 0
2, 78406, Note_on_c, 0, 68, 0
2, 78406, Note_on_c, 0, 80, 0
2, 78406, Note_on_c, 0, 78, 0
2, 78407, Note_on_c, 0, 58, 0
2, 78408, Note_on_c, 0, 51, 0
2, 78412, Note_on_c, 0, 39, 0
2, 78480, Note_on_c, 0, 37, 85
2, 78481, Control_c, 0, 64, 127
2, 78613, Note_on_c, 0, 58, 84
2, 78748, Note_on_c, 0, 83, 98
2, 78755, Note_on_c, 0, 54, 76
2, 78755, Note_on_c, 0, 71, 84
2, 78763, Note_on_c, 0, 51, 73
2, 78873, Note_on_c, 0, 58, 0
2, 78878, Note_on_c, 0, 58, 89
2, 78904, Note_on_c, 0, 70, 0
2, 78904, Note_on_c, 0, 82, 0
2, 78908, Note_on_c, 0, 82, 95
2, 78910, Note_on_c, 0, 70, 87
2, 79001, Note_on_c, 0, 54, 0
2, 79003, Note_on_c, 0, 58, 0
2, 79003, Note_on_c, 0, 71, 0
2, 79004, Note_on_c, 0, 83, 0
2, 79004, Note_on_c, 0, 37, 0
2, 79005, Note_on_c, 0, 82, 0
2, 79007, Control_c, 0, 64, 0
2, 79027, Note_on_c, 0, 51, 0
2, 79027, Note_on_c, 0, 70, 0
2, 79030, Note_on_c, 0, 41, 87
2, 79065, Control_c, 0, 64, 127
2, 79181, Note_on_c, 0, 82, 100
2, 79182, Note_on_c, 0, 70, 97
2, 79183, Note_on_c, 0, 56, 84
2, 79314, Note_on_c, 0, 53, 73
2, 79322, Note_on_c, 0, 49, 82
2, 79322, Note_on_c, 0, 80, 95
2, 79325, Note_on_c, 0, 68, 98
2, 79426, Note_on_c, 0, 56, 0
2, 79436, Note_on_c, 0, 56, 78
2, 79470, Note_on_c, 0, 78, 100
2, 79475, Note_on_c, 0, 66, 99
2, 79530, Note_on_c, 0, 82, 0
2, 79530, Note_on_c, 0, 41, 0
2, 79530, Note_on_c, 0, 49, 0
2, 79530, Control_c, 0, 64, 0
2, 79531, Note_on_c, 0, 70, 0
2, 79531, Note_on_c, 0, 56, 0
2, 79532, Note_on_c, 0, 68, 0
2, 79533, Note_on_c, 0, 80, 0
2, 79534, Note_on_c, 0, 53, 0
2, 79600, Note_on_c, 0, 38, 87
2, 79603, Control_c, 0, 64, 127
2, 79675, Note_on_c, 0, 50, 71
2, 79735, Note_on_c, 0, 54, 79
2, 79799, Note_on_c, 0, 57, 87
2, 79861, Note_on_c, 0, 62, 85
2, 79918, Note_on_c, 0, 66, 0
2, 79929, Note_on_c, 0, 66, 89
2, 80003, Note_on_c, 0, 69, 82
2, 80042, Note_on_c, 0, 74, 85
2, 80125, Note_on_c, 0, 38, 0
2, 80125, Note_on_c, 0, 62, 0
2, 80126, Note_on_c, 0, 69, 0
2, 80126, Note_on_c, 0, 57, 0
2, 80126, Note_on_c, 0, 66, 0
2, 80126, Note_on_c, 0, 54, 0
2, 80127, Note_on_c, 0, 78, 0
2, 80127, Control_c, 0, 64, 0
2, 80127, Note_on_c, 0, 50, 0
2, 80127, Note_on_c, 0, 74, 0
2, 80152, Note_on_c, 0, 43, 94
2, 80152, Note_on_c, 0, 81, 102
2, 80152, Note_on_c, 0, 71, 93
2, 80154, Note_on_c, 0, 69, 95
2, 80157, Note_on_c, 0, 74, 91
2, 80177, Note_on_c, 0, 75, 50
2, 80194, Control_c, 0, 64, 127
2, 80263, Note_on_c, 0, 43, 0
2, 80306, Note_on_c, 0, 59, 84
2, 80307, Note_on_c, 0, 55, 73
2, 80434, Note_on_c, 0, 43, 93
2, 80578, Note_on_c, 0, 55, 0
2, 80578, Note_on_c, 0, 59, 0
2, 80578, Note_on_c, 0, 71, 0
2, 80582, Note_on_c, 0, 83, 101
2, 80583, Note_on_c, 0, 71, 91
2, 80583, Note_on_c, 0, 55, 82
2, 80585, Note_on_c, 0, 59, 84
2, 80587, Note_on_c, 0, 79, 73
2, 80701, Note_on_c, 0, 75, 0
2, 80703, Note_on_c, 0, 59, 0
2, 80703, Note_on_c, 0, 69, 0
2, 80704, Note_on_c, 0, 81, 0
2, 80704, Note_on_c, 0, 55, 0
2, 80707, Control_c, 0, 64, 0
2, 80709, Note_on_c, 0, 71, 0
2, 80709, Note_on_c, 0, 74, 0
2, 80709, Note_on_c, 0, 83, 0
2, 80716, Note_on_c, 0, 43, 0
2, 80716, Note_on_c, 0, 79, 0
2, 80717, Note_on_c, 0, 83, 100
2, 80720, Note_on_c, 0, 74, 96
2, 80720, Note_on_c, 0, 71, 91
2, 80721, Note_on_c, 0, 79, 90
2, 80722, Note_on_c, 0, 43, 84
2, 80755, Control_c, 0, 64, 127
2, 80808, Note_on_c, 0, 43, 0
2, 80866, Note_on_c, 0, 55, 84
2, 80866, Note_on_c, 0, 59, 83
2, 80999, Note_on_c, 0, 43, 88
2, 81139, Note_on_c, 0, 55, 0
2, 81139, Note_on_c, 0, 59, 0
2, 81145, Note_on_c, 0, 59, 77
2, 81147, Note_on_c, 0, 81, 99
2, 81149, Note_on_c, 0, 69, 94
2, 81149, Note_on_c, 0, 55, 76
2, 81243, Note_on_c, 0, 74, 0
2, 81243, Note_on_c, 0, 55, 0
2, 81243, Note_on_c, 0, 83, 0
2, 81243, Note_on_c, 0, 71, 0
2, 81244, Note_on_c, 0, 79, 0
2, 81244, Note_on_c, 0, 43, 0
2, 81244, Note_on_c, 0, 69, 0
2, 81244, Note_on_c, 0, 59, 0
2, 81246, Control_c, 0, 64, 0
2, 81277, Note_on_c, 0, 81, 0
2, 81281, Note_on_c, 0, 81, 101
2, 81282, Note_on_c, 0, 72, 93
2, 81285, Note_on_c, 0, 69, 95
2, 81286, Note_on_c, 0, 36, 88
2, 81287, Note_on_c, 0, 76, 92
2, 81308, Control_c, 0, 64, 127
2, 81433, Note_on_c, 0, 55, 78
2, 81434, Note_on_c, 0, 52, 72
2, 81553, Note_on_c, 0, 36, 0
2, 81563, Note_on_c, 0, 36, 86
2, 81707, Note_on_c, 0, 52, 0
2, 81707, Note_on_c, 0, 55, 0
2, 81713, Note_on_c, 0, 79, 98
2, 81715, Note_on_c, 0, 52, 79
2, 81715, Note_on_c, 0, 55, 83
2, 81717, Note_on_c, 0, 67, 92
2, 81826, Note_on_c, 0, 81, 0
2, 81827, Note_on_c, 0, 52, 0
2, 81827, Note_on_c, 0, 55, 0
2, 81827, Note_on_c, 0, 69, 0
2, 81829, Control_c, 0, 64, 0
2, 81838, Note_on_c, 0, 36, 0
2, 81838, Note_on_c, 0, 67, 0
2, 81838, Note_on_c, 0, 79, 0
2, 81845, Note_on_c, 0, 72, 0
2, 81845, Note_on_c, 0, 76, 0
2, 81847, Note_on_c, 0, 79, 99
2, 81847, Note_on_c, 0, 36, 89
2, 81849, Note_on_c, 0, 67, 101
2, 81849, Note_on_c, 0, 72, 90
2, 81850, Note_on_c, 0, 76, 93
2, 81890, Note_on_c, 0, 36, 0
2, 81891, Control_c, 0, 64, 127
2, 81996, Note_on_c, 0, 55, 80
2, 81997, Note_on_c, 0, 52, 74
2, 82126, Note_on_c, 0, 36, 77
2, 82260, Note_on_c, 0, 52, 0
2, 82260, Note_on_c, 0, 55, 0
2, 82267, Note_on_c, 0, 52, 74
2, 82268, Note_on_c, 0, 55, 79
2, 82370, Note_on_c, 0, 52, 0
2, 82371, Note_on_c, 0, 72, 0
2, 82371, Note_on_c, 0, 67, 0
2, 82371, Note_on_c, 0, 55, 0
2, 82372, Control_c, 0, 64, 0
2, 82375, Note_on_c, 0, 36, 0
2, 82391, Note_on_c, 0, 79, 0
2, 82398, Note_on_c, 0, 76, 0
2, 82402, Note_on_c, 0, 79, 104
2, 82404, Note_on_c, 0, 40, 91
2, 82404, Note_on_c, 0, 67, 98
2, 82405, Note_on_c, 0, 71, 90
2, 82408, Note_on_c, 0, 76, 91
2, 82429, Control_c, 0, 64, 127
2, 82546, Note_on_c, 0, 59, 83
2, 82546, Note_on_c, 0, 55, 82
2, 82682, Note_on_c, 0, 40, 0
2, 82686, Note_on_c, 0, 81, 100
2, 82687, Note_on_c, 0, 40, 82
2, 82692, Note_on_c, 0, 69, 89
2, 82793, Note_on_c, 0, 40, 0
2, 82793, Note_on_c, 0, 76, 0
2, 82793, Note_on_c, 0, 71, 0
2, 82793, Note_on_c, 0, 67, 0
2, 82793, Note_on_c, 0, 79, 0
2, 82793, Note_on_c, 0, 59, 0
2, 82793, Note_on_c, 0, 69, 0
2, 82793, Note_on_c, 0, 81, 0
2, 82798, Control_c, 0, 64, 0
2, 82821, Note_on_c, 0, 55, 0
2, 82827, Note_on_c, 0, 83, 104
2, 82830, Note_on_c, 0, 55, 87
2, 82831, Note_on_c, 0, 59, 90
2, 82831, Note_on_c, 0, 71, 96
2, 82833, Note_on_c, 0, 79, 90
2, 82835, Note_on_c, 0, 76, 88
2, 82836, Control_c, 0, 64, 127
2, 82971, Note_on_c, 0, 40, 87
2, 83097, Note_on_c, 0, 55, 0
2, 83097, Note_on_c, 0, 59, 0
2, 83107, Note_on_c, 0, 55, 89
2, 83107, Note_on_c, 0, 59, 86
2, 83110, Note_on_c, 0, 52, 69
2, 83120, Note_on_c, 0, 52, 0
2, 83235, Note_on_c, 0, 40, 0
2, 83239, Note_on_c, 0, 84, 91
2, 83240, Note_on_c, 0, 40, 85
2, 83244, Note_on_c, 0, 72, 91
2, 83381, Note_on_c, 0, 55, 0
2, 83381, Note_on_c, 0, 59, 0
2, 83381, Note_on_c, 0, 83, 0
2, 83386, Note_on_c, 0, 83, 104
2, 83390, Note_on_c, 0, 59, 92
2, 83391, Note_on_c, 0, 55, 90
2, 83394, Note_on_c, 0, 78, 89
2, 83395, Note_on_c, 0, 74, 92
2, 83474, Note_on_c, 0, 40, 0
2, 83475, Note_on_c, 0, 79, 0
2, 83476, Note_on_c, 0, 76, 0
2, 83476, Control_c, 0, 64, 0
2, 83477, Note_on_c, 0, 59, 0
2, 83477, Note_on_c, 0, 72, 0
2, 83477, Note_on_c, 0, 55, 0
2, 83496, Note_on_c, 0, 71, 0
2, 83496, Note_on_c, 0, 84, 0
2, 83523, Note_on_c, 0, 42, 89
2, 83566, Control_c, 0, 64, 127
2, 83671, Note_on_c, 0, 54, 72
2, 83671, Note_on_c, 0, 57, 76
2, 83788, Note_on_c, 0, 42, 0
2, 83799, Note_on_c, 0, 81, 100
2, 83800, Note_on_c, 0, 42, 85
2, 83804, Note_on_c, 0, 69, 90
2, 83934, Note_on_c, 0, 57, 0
2, 83942, Note_on_c, 0, 54, 0
2, 83945, Note_on_c, 0, 57, 80
2, 83947, Note_on_c, 0, 54, 77
2, 84036, Note_on_c, 0, 54, 0
2, 84037, Note_on_c, 0, 78, 0
2, 84037, Note_on_c, 0, 81, 0
2, 84037, Note_on_c, 0, 74, 0
2, 84037, Note_on_c, 0, 69, 0
2, 84039, Control_c, 0, 64, 0
2, 84049, Note_on_c, 0, 57, 0
2, 84057, Note_on_c, 0, 83, 0
2, 84065, Note_on_c, 0, 42, 0
2, 84076, Note_on_c, 0, 79, 100
2, 84076, Note_on_c, 0, 38, 89
2, 84082, Note_on_c, 0, 67, 97
2, 84103, Control_c, 0, 64, 127
2, 84223, Note_on_c, 0, 54, 72
2, 84223, Note_on_c, 0, 57, 79
2, 84341, Note_on_c, 0, 38, 0
2, 84352, Note_on_c, 0, 38, 83
2, 84352, Note_on_c, 0, 81, 98
2, 84355, Note_on_c, 0, 69, 92
2, 84487, Note_on_c, 0, 54, 0
2, 84487, Note_on_c, 0, 57, 0
2, 84491, Note_on_c, 0, 57, 80
2, 84493, Note_on_c, 0, 54, 71
2, 84605, Note_on_c, 0, 57, 0
2, 84605, Note_on_c, 0, 79, 0
2, 84605, Note_on_c, 0, 67, 0
2, 84605, Note_on_c, 0, 38, 0
2, 84605, Note_on_c, 0, 54, 0
2, 84606, Control_c, 0, 64, 0
2, 84625, Note_on_c, 0, 69, 0
2, 84625, Note_on_c, 0, 81, 0
2, 84634, Note_on_c, 0, 74, 93
2, 84634, Note_on_c, 0, 81, 100
2, 84635, Note_on_c, 0, 71, 91
2, 84636, Note_on_c, 0, 69, 94
2, 84643, Note_on_c, 0, 41, 81
2, 84644, Note_on_c, 0, 43, 80
2, 84644, Note_on_c, 0, 53, 72
2, 84679, Control_c, 0, 64, 127
2, 84787, Note_on_c, 0, 53, 0
2, 84792, Note_on_c, 0, 59, 77
2, 84792, Note_on_c, 0, 55, 70
2, 84795, Note_on_c, 0, 53, 61
2, 84917, Note_on_c, 0, 43, 0
2, 84921, Note_on_c, 0, 43, 85
2, 85071, Note_on_c, 0, 55, 0
2, 85071, Note_on_c, 0, 59, 0
2, 85071, Note_on_c, 0, 71, 0
2, 85074, Note_on_c, 0, 83, 99
2, 85077, Note_on_c, 0, 55, 77
2, 85077, Note_on_c, 0, 59, 83
2, 85081, Note_on_c, 0, 71, 90
2, 85187, Note_on_c, 0, 81, 0
2, 85187, Note_on_c, 0, 59, 0
2, 85188, Note_on_c, 0, 69, 0
2, 85189, Note_on_c, 0, 55, 0
2, 85191, Control_c, 0, 64, 0
2, 85194, Note_on_c, 0, 43, 0
2, 85194, Note_on_c, 0, 53, 0
2, 85194, Note_on_c, 0, 83, 0
2, 85201, Note_on_c, 0, 41, 0
2, 85201, Note_on_c, 0, 71, 0
2, 85201, Note_on_c, 0, 74, 0
2, 85205, Note_on_c, 0, 83, 95
2, 85205, Note_on_c, 0, 43, 85
2, 85207, Note_on_c, 0, 71, 86
2, 85207, Note_on_c, 0, 74, 82
2, 85263, Control_c, 0, 64, 127
2, 85353, Note_on_c, 0, 55, 80
2, 85354, Note_on_c, 0, 59, 79
2, 85486, Note_on_c, 0, 43, 0
2, 85486, Note_on_c, 0, 59, 0
2, 85490, Note_on_c, 0, 59, 74
2, 85491, Note_on_c, 0, 43, 78
2, 85624, Note_on_c, 0, 55, 0
2, 85624, Note_on_c, 0, 59, 0
2, 85628, Note_on_c, 0, 59, 83
2, 85628, Note_on_c, 0, 81, 98
2, 85628, Note_on_c, 0, 43, 0
2, 85629, Note_on_c, 0, 55, 86
2, 85629, Note_on_c, 0, 69, 93
2, 85730, Note_on_c, 0, 55, 0
2, 85730, Note_on_c, 0, 74, 0
2, 85730, Note_on_c, 0, 71, 0
2, 85730, Note_on_c, 0, 83, 0
2, 85731, Note_on_c, 0, 59, 0
2, 85732, Note_on_c, 0, 69, 0
2, 85734, Control_c, 0, 64, 0
2, 85762, Note_on_c, 0, 81, 0
2, 85767, Note_on_c, 0, 81, 96
2, 85770, Note_on_c, 0, 36, 86
2, 85770, Note_on_c, 0, 69, 93
2, 85772, Note_on_c, 0, 72, 93
2, 85773, Note_on_c, 0, 76, 91
2, 85816, Control_c, 0, 64, 127
2, 85911, Note_on_c, 0, 55, 77
2, 85911, Note_on_c, 0, 52, 84
2, 86039, Note_on_c, 0, 36, 0
2, 86049, Note_on_c, 0, 36, 91
2, 86184, Note_on_c, 0, 52, 0
2, 86184, Note_on_c, 0, 55, 0
2, 86184, Note_on_c, 0, 76, 0
2, 86187, Note_on_c, 0, 79, 98
2, 86189, Note_on_c, 0, 55, 82
2, 86189, Note_on_c, 0, 67, 92
2, 86191, Note_on_c, 0, 52, 82
2, 86193, Note_on_c, 0, 76, 74
2, 86288, Note_on_c, 0, 81, 0
2, 86288, Note_on_c, 0, 52, 0
2, 86289, Note_on_c, 0, 72, 0
2, 86289, Note_on_c, 0, 69, 0
2, 86289, Note_on_c, 0, 55, 0
2, 86291, Control_c, 0, 64, 0
2, 86315, Note_on_c, 0, 67, 0
2, 86315, Note_on_c, 0, 76, 0
2, 86315, Note_on_c, 0, 79, 0
2, 86319, Note_on_c, 0, 79, 97
2, 86320, Note_on_c, 0, 67, 97
2, 86322, Note_on_c, 0, 72, 90
2, 86323, Note_on_c, 0, 36, 0
2, 86324, Note_on_c, 0, 76, 90
2, 86332, Note_on_c, 0, 36, 88
2, 86375, Note_on_c, 0, 36, 0
2, 86376, Control_c, 0, 64, 127
2, 86469, Note_on_c, 0, 52, 85
2, 86470, Note_on_c, 0, 55, 82
2, 86603, Note_on_c, 0, 36, 83
2, 86745, Note_on_c, 0, 52, 0
2, 86745, Note_on_c, 0, 55, 0
2, 86756, Note_on_c, 0, 55, 77
2, 86756, Note_on_c, 0, 52, 72
2, 86859, Note_on_c, 0, 52, 0
2, 86860, Note_on_c, 0, 72, 0
2, 86862, Note_on_c, 0, 55, 0
2, 86864, Control_c, 0, 64, 0
2, 86868, Note_on_c, 0, 36, 0
2, 86883, Note_on_c, 0, 67, 0
2, 86883, Note_on_c, 0, 76, 0
2, 86883, Note_on_c, 0, 79, 0
2, 86888, Note_on_c, 0, 79, 102
2, 86892, Note_on_c, 0, 71, 90
2, 86892, Note_on_c, 0, 40, 92
2, 86893, Note_on_c, 0, 67, 97
2, 86895, Note_on_c, 0, 76, 89
2, 86937, Control_c, 0, 64, 127
2, 87019, Note_on_c, 0, 52, 75
2, 87173, Note_on_c, 0, 81, 98
2, 87175, Note_on_c, 0, 52, 0
2, 87179, Note_on_c, 0, 69, 88
2, 87182, Note_on_c, 0, 52, 81
2, 87291, Note_on_c, 0, 52, 0
2, 87291, Note_on_c, 0, 81, 0
2, 87292, Note_on_c, 0, 76, 0
2, 87292, Note_on_c, 0, 71, 0
2, 87292, Note_on_c, 0, 67, 0
2, 87292, Note_on_c, 0, 69, 0
2, 87292, Note_on_c, 0, 79, 0
2, 87293, Control_c, 0, 64, 0
2, 87298, Note_on_c, 0, 40, 0
2, 87326, Note_on_c, 0, 83, 101
2, 87326, Note_on_c, 0, 40, 89
2, 87329, Note_on_c, 0, 71, 93
2, 87332, Note_on_c, 0, 79, 90
2, 87334, Note_on_c, 0, 76, 90
2, 87367, Control_c, 0, 64, 127
2, 87470, Note_on_c, 0, 52, 74
2, 87617, Note_on_c, 0, 84, 96
2, 87621, Note_on_c, 0, 40, 0
2, 87624, Note_on_c, 0, 72, 88
2, 87625, Note_on_c, 0, 40, 80
2, 87744, Note_on_c, 0, 52, 0
2, 87753, Note_on_c, 0, 85, 99
2, 87755, Note_on_c, 0, 73, 92
2, 87755, Note_on_c, 0, 52, 82
2, 87895, Control_c, 0, 64, 0
2, 87895, Note_on_c, 0, 84, 0
2, 87896, Note_on_c, 0, 72, 0
2, 87896, Note_on_c, 0, 52, 0
2, 87896, Note_on_c, 0, 76, 0
2, 87896, Note_on_c, 0, 71, 0
2, 87896, Note_on_c, 0, 85, 0
2, 87896, Note_on_c, 0, 73, 0
2, 87896, Note_on_c, 0, 40, 0
2, 87897, Note_on_c, 0, 83, 0
2, 87897, Note_on_c, 0, 79, 0
2, 87909, Note_on_c, 0, 86, 103
2, 87910, Note_on_c, 0, 38, 90
2, 87915, Note_on_c, 0, 81, 89
2, 87917, Note_on_c, 0, 78, 95
2, 87917, Note_on_c, 0, 74, 94
2, 87989, Control_c, 0, 64, 127
2, 88211, Note_on_c, 0, 50, 72
2, 88344, Note_on_c, 0, 83, 97
2, 88347, Note_on_c, 0, 71, 84
2, 88354, Note_on_c, 0, 57, 78
2, 88481, Note_on_c, 0, 81, 0
2, 88482, Note_on_c, 0, 86, 0
2, 88483, Note_on_c, 0, 83, 0
2, 88483, Note_on_c, 0, 71, 0
2, 88484, Note_on_c, 0, 57, 0
2, 88486, Control_c, 0, 64, 0
2, 88488, Note_on_c, 0, 38, 0
2, 88488, Note_on_c, 0, 74, 0
2, 88488, Note_on_c, 0, 78, 0
2, 88492, Note_on_c, 0, 81, 96
2, 88493, Note_on_c, 0, 62, 76
2, 88494, Note_on_c, 0, 78, 93
2, 88494, Note_on_c, 0, 69, 92
2, 88495, Note_on_c, 0, 74, 84
2, 88573, Control_c, 0, 64, 127
2, 88786, Note_on_c, 0, 79, 98
2, 88788, Note_on_c, 0, 50, 0
2, 88791, Note_on_c, 0, 67, 90
2, 88920, Note_on_c, 0, 50, 82
2, 89049, Note_on_c, 0, 78, 0
2, 89060, Note_on_c, 0, 78, 92
2, 89062, Note_on_c, 0, 66, 84
2, 89177, Note_on_c, 0, 50, 0
2, 89177, Note_on_c, 0, 81, 0
2, 89178, Control_c, 0, 64, 0
2, 89178, Note_on_c, 0, 69, 0
2, 89179, Note_on_c, 0, 62, 0
2, 89181, Note_on_c, 0, 66, 0
2, 89181, Note_on_c, 0, 78, 0
2, 89195, Note_on_c, 0, 67, 0
2, 89195, Note_on_c, 0, 74, 0
2, 89195, Note_on_c, 0, 79, 0
2, 89201, Note_on_c, 0, 79, 102
2, 89205, Note_on_c, 0, 67, 98
2, 89205, Note_on_c, 0, 74, 89
2, 89207, Note_on_c, 0, 71, 86
2, 89213, Note_on_c, 0, 55, 95
2, 89214, Note_on_c, 0, 43, 91
2, 89353, Note_on_c, 0, 50, 70
2, 89385, Note_on_c, 0, 50, 0
2, 89395, Note_on_c, 0, 43, 0
2, 89418, Note_on_c, 0, 55, 0
2, 89494, Note_on_c, 0, 38, 89
2, 89494, Note_on_c, 0, 50, 83
2, 89587, Note_on_c, 0, 50, 0
2, 89636, Note_on_c, 0, 45, 75
2, 89656, Note_on_c, 0, 38, 0
2, 89673, Note_on_c, 0, 45, 0
2, 89788, Note_on_c, 0, 55, 95
2, 89789, Note_on_c, 0, 43, 91
2, 89921, Note_on_c, 0, 55, 0
2, 89921, Note_on_c, 0, 50, 74
2, 89935, Note_on_c, 0, 71, 0
2, 89936, Note_on_c, 0, 43, 0
2, 89937, Note_on_c, 0, 74, 0
2, 89953, Note_on_c, 0, 50, 0
2, 89978, Note_on_c, 0, 79, 0
2, 90075, Note_on_c, 0, 50, 85
2, 90076, Note_on_c, 0, 38, 89
2, 90208, Note_on_c, 0, 50, 0
2, 90210, Note_on_c, 0, 45, 69
2, 90212, Note_on_c, 0, 38, 0
2, 90224, Note_on_c, 0, 67, 0
2, 90270, Note_on_c, 0, 45, 0
2, 90351, Note_on_c, 0, 53, 89
2, 90354, Note_on_c, 0, 41, 86
2, 90486, Note_on_c, 0, 53, 0
2, 90489, Note_on_c, 0, 50, 71
2, 90513, Note_on_c, 0, 41, 0
2, 90521, Note_on_c, 0, 50, 0
2, 90640, Note_on_c, 0, 50, 85
2, 90640, Note_on_c, 0, 38, 91
2, 90735, Note_on_c, 0, 50, 0
2, 90758, Note_on_c, 0, 38, 0
2, 90781, Note_on_c, 0, 45, 72
2, 90817, Note_on_c, 0, 45, 0
2, 90925, Note_on_c, 0, 53, 87
2, 90927, Note_on_c, 0, 41, 83
2, 91056, Note_on_c, 0, 50, 66
2, 91077, Note_on_c, 0, 53, 0
2, 91080, Note_on_c, 0, 41, 0
2, 91086, Note_on_c, 0, 50, 0
2, 91211, Note_on_c, 0, 38, 92
2, 91211, Note_on_c, 0, 50, 86
2, 91332, Note_on_c, 0, 50, 0
2, 91350, Note_on_c, 0, 38, 0
2, 91362, Note_on_c, 0, 45, 64
2, 91397, Note_on_c, 0, 45, 0
2, 91496, Note_on_c, 0, 52, 93
2, 91497, Note_on_c, 0, 40, 88
2, 91628, Note_on_c, 0, 52, 0
2, 91629, Note_on_c, 0, 48, 76
2, 91632, Note_on_c, 0, 40, 0
2, 91670, Note_on_c, 0, 48, 0
2, 91785, Note_on_c, 0, 36, 92
2, 91785, Note_on_c, 0, 48, 84
2, 91911, Note_on_c, 0, 36, 0
2, 91913, Note_on_c, 0, 48, 0
2, 91915, Note_on_c, 0, 43, 74
2, 91958, Note_on_c, 0, 43, 0
2, 92059, Note_on_c, 0, 52, 91
2, 92062, Note_on_c, 0, 40, 87
2, 92187, Note_on_c, 0, 48, 74
2, 92191, Note_on_c, 0, 52, 0
2, 92192, Note_on_c, 0, 40, 0
2, 92222, Note_on_c, 0, 48, 0
2, 92345, Note_on_c, 0, 36, 95
2, 92346, Note_on_c, 0, 48, 87
2, 92466, Note_on_c, 0, 36, 0
2, 92470, Note_on_c, 0, 43, 74
2, 92505, Note_on_c, 0, 48, 0
2, 92523, Note_on_c, 0, 43, 0
2, 92625, Note_on_c, 0, 51, 96
2, 92625, Note_on_c, 0, 39, 86
2, 92754, Note_on_c, 0, 48, 71
2, 92758, Note_on_c, 0, 51, 0
2, 92788, Note_on_c, 0, 48, 0
2, 92805, Note_on_c, 0, 39, 0
2, 92916, Note_on_c, 0, 36, 92
2, 92916, Note_on_c, 0, 48, 84
2, 93032, Note_on_c, 0, 43, 82
2, 93035, Note_on_c, 0, 36, 0
2, 93073, Note_on_c, 0, 48, 0
2, 93097, Note_on_c, 0, 43, 0
2, 93191, Note_on_c, 0, 51, 95
2, 93191, Note_on_c, 0, 39, 88
2, 93316, Note_on_c, 0, 51, 0
2, 93323, Note_on_c, 0, 39, 0
2, 93333, Note_on_c, 0, 48, 68
2, 93367, Note_on_c, 0, 48, 0
2, 93467, Note_on_c, 0, 41, 89
2, 93467, Note_on_c, 0, 53, 85
2, 93593, Note_on_c, 0, 48, 74
2, 93602, Note_on_c, 0, 53, 0
2, 93602, Note_on_c, 0, 41, 0
2, 93680, Note_on_c, 0, 48, 0
2, 93753, Note_on_c, 0, 55, 94
2, 93754, Note_on_c, 0, 43, 90
2, 93755, Note_on_c, 0, 67, 83
2, 93814, Note_on_c, 0, 67, 0
2, 93822, Note_on_c, 0, 69, 77
2, 93869, Note_on_c, 0, 69, 0
2, 93876, Note_on_c, 0, 50, 78
2, 93883, Note_on_c, 0, 55, 0
2, 93886, Note_on_c, 0, 67, 73
2, 93899, Note_on_c, 0, 43, 0
2, 93921, Note_on_c, 0, 50, 0
2, 93943, Note_on_c, 0, 67, 0
2, 93969, Note_on_c, 0, 62, 78
2, 94023, Note_on_c, 0, 38, 88
2, 94024, Note_on_c, 0, 62, 0
2, 94029, Note_on_c, 0, 50, 84
2, 94034, Note_on_c, 0, 67, 80
2, 94075, Note_on_c, 0, 67, 0
2, 94123, Note_on_c, 0, 74, 85
2, 94129, Note_on_c, 0, 57, 77
2, 94133, Note_on_c, 0, 57, 0
2, 94144, Note_on_c, 0, 45, 77
2, 94154, Note_on_c, 0, 38, 0
2, 94179, Note_on_c, 0, 50, 0
2, 94190, Note_on_c, 0, 86, 91
2, 94190, Note_on_c, 0, 45, 0
2, 94255, Note_on_c, 0, 83, 90
2, 94264, Note_on_c, 0, 74, 0
2, 94274, Note_on_c, 0, 86, 0
2, 94297, Note_on_c, 0, 55, 95
2, 94298, Note_on_c, 0, 43, 89
2, 94321, Note_on_c, 0, 79, 86
2, 94323, Note_on_c, 0, 83, 0
2, 94362, Note_on_c, 0, 79, 0
2, 94383, Note_on_c, 0, 74, 71
2, 94407, Note_on_c, 0, 55, 0
2, 94438, Note_on_c, 0, 50, 76
2, 94440, Note_on_c, 0, 38, 68
2, 94444, Note_on_c, 0, 71, 74
2, 94448, Note_on_c, 0, 38, 0
2, 94464, Note_on_c, 0, 43, 0
2, 94483, Note_on_c, 0, 50, 0
2, 94490, Note_on_c, 0, 71, 0
2, 94502, Note_on_c, 0, 74, 0
2, 94511, Note_on_c, 0, 67, 83
2, 94585, Note_on_c, 0, 74, 82
2, 94593, Note_on_c, 0, 50, 85
2, 94595, Note_on_c, 0, 38, 89
2, 94598, Note_on_c, 0, 67, 0
2, 94648, Note_on_c, 0, 71, 74
2, 94663, Note_on_c, 0, 74, 0
2, 94715, Note_on_c, 0, 50, 0
2, 94716, Note_on_c, 0, 57, 74
2, 94720, Note_on_c, 0, 45, 75
2, 94720, Note_on_c, 0, 38, 0
2, 94726, Note_on_c, 0, 71, 0
2, 94730, Note_on_c, 0, 67, 77
2, 94750, Note_on_c, 0, 57, 0
2, 94774, Note_on_c, 0, 45, 0
2, 94781, Note_on_c, 0, 67, 0
2, 94801, Note_on_c, 0, 62, 78
2, 94863, Note_on_c, 0, 53, 92
2, 94866, Note_on_c, 0, 41, 91
2, 94868, Note_on_c, 0, 65, 86
2, 94874, Note_on_c, 0, 62, 0
2, 94943, Note_on_c, 0, 65, 0
2, 94946, Note_on_c, 0, 67, 77
2, 94993, Note_on_c, 0, 53, 0
2, 95004, Note_on_c, 0, 50, 73
2, 95028, Note_on_c, 0, 65, 59
2, 95035, Note_on_c, 0, 67, 0
2, 95035, Note_on_c, 0, 41, 0
2, 95045, Note_on_c, 0, 50, 0
2, 95077, Note_on_c, 0, 62, 74
2, 95086, Note_on_c, 0, 65, 0
2, 95122, Note_on_c, 0, 62, 0
2, 95126, Note_on_c, 0, 65, 79
2, 95148, Note_on_c, 0, 50, 91
2, 95150, Note_on_c, 0, 38, 92
2, 95152, Note_on_c, 0, 65, 0
2, 95215, Note_on_c, 0, 72, 82
2, 95270, Note_on_c, 0, 50, 0
2, 95274, Note_on_c, 0, 84, 92
2, 95274, Note_on_c, 0, 45, 75
2, 95278, Note_on_c, 0, 38, 0
2, 95287, Note_on_c, 0, 72, 0
2, 95324, Note_on_c, 0, 45, 0
2, 95350, Note_on_c, 0, 81, 86
2, 95358, Note_on_c, 0, 84, 0
2, 95411, Note_on_c, 0, 53, 92
2, 95413, Note_on_c, 0, 41, 87
2, 95416, Note_on_c, 0, 77, 83
2, 95432, Note_on_c, 0, 81, 0
2, 95471, Note_on_c, 0, 77, 0
2, 95478, Note_on_c, 0, 72, 79
2, 95516, Note_on_c, 0, 53, 0
2, 95516, Note_on_c, 0, 72, 0
2, 95539, Note_on_c, 0, 41, 0
2, 95548, Note_on_c, 0, 50, 77
2, 95549, Note_on_c, 0, 69, 76
2, 95582, Note_on_c, 0, 50, 0
2, 95592, Note_on_c, 0, 69, 0
2, 95622, Note_on_c, 0, 65, 76
2, 95696, Note_on_c, 0, 65, 0
2, 95706, Note_on_c, 0, 50, 90
2, 95709, Note_on_c, 0, 38, 92
2, 95711, Note_on_c, 0, 72, 82
2, 95761, Note_on_c, 0, 69, 87
2, 95772, Note_on_c, 0, 72, 0
2, 95834, Note_on_c, 0, 45, 72
2, 95841, Note_on_c, 0, 38, 0
2, 95842, Note_on_c, 0, 50, 0
2, 95843, Note_on_c, 0, 69, 0
2, 95858, Note_on_c, 0, 65, 69
2, 95882, Note_on_c, 0, 45, 0
2, 95892, Note_on_c, 0, 65, 0
2, 95925, Note_on_c, 0, 60, 80
2, 95966, Note_on_c, 0, 60, 0
2, 95980, Note_on_c, 0, 52, 98
2, 95983, Note_on_c, 0, 40, 92
2, 95987, Note_on_c, 0, 64, 84
2, 96064, Note_on_c, 0, 65, 81
2, 96089, Note_on_c, 0, 52, 0
2, 96095, Note_on_c, 0, 40, 0
2, 96107, Note_on_c, 0, 48, 81
2, 96130, Note_on_c, 0, 64, 0
2, 96138, Note_on_c, 0, 64, 71
2, 96147, Note_on_c, 0, 48, 0
2, 96184, Note_on_c, 0, 64, 0
2, 96192, Note_on_c, 0, 65, 0
2, 96203, Note_on_c, 0, 60, 78
2, 96240, Note_on_c, 0, 60, 0
2, 96254, Note_on_c, 0, 64, 87
2, 96257, Note_on_c, 0, 36, 93
2, 96257, Note_on_c, 0, 48, 88
2, 96314, Note_on_c, 0, 64, 0
2, 96341, Note_on_c, 0, 72, 81
2, 96380, Note_on_c, 0, 43, 73
2, 96394, Note_on_c, 0, 84, 94
2, 96399, Note_on_c, 0, 48, 0
2, 96430, Note_on_c, 0, 36, 0
2, 96433, Note_on_c, 0, 43, 0
2, 96450, Note_on_c, 0, 72, 0
2, 96470, Note_on_c, 0, 84, 0
2, 96473, Note_on_c, 0, 79, 80
2, 96537, Note_on_c, 0, 52, 93
2, 96540, Note_on_c, 0, 40, 84
2, 96542, Note_on_c, 0, 76, 82
2, 96563, Note_on_c, 0, 79, 0
2, 96579, Note_on_c, 0, 76, 0
2, 96596, Note_on_c, 0, 72, 78
2, 96661, Note_on_c, 0, 48, 81
2, 96665, Note_on_c, 0, 40, 0
2, 96668, Note_on_c, 0, 67, 80
2, 96675, Note_on_c, 0, 52, 0
2, 96691, Note_on_c, 0, 72, 0
2, 96705, Note_on_c, 0, 48, 0
2, 96734, Note_on_c, 0, 64, 76
2, 96749, Note_on_c, 0, 67, 0
2, 96791, Note_on_c, 0, 64, 0
2, 96810, Note_on_c, 0, 72, 90
2, 96813, Note_on_c, 0, 48, 91
2, 96816, Note_on_c, 0, 36, 94
2, 96844, Control_c, 0, 64, 127
2, 96880, Note_on_c, 0, 67, 75
2, 96934, Note_on_c, 0, 64, 85
2, 96949, Note_on_c, 0, 44, 75
2, 97025, Note_on_c, 0, 48, 0
2, 97025, Note_on_c, 0, 67, 0
2, 97025, Note_on_c, 0, 64, 0
2, 97025, Note_on_c, 0, 36, 0
2, 97026, Note_on_c, 0, 72, 0
2, 97026, Note_on_c, 0, 44, 0
2, 97026, Control_c, 0, 64, 0
2, 97086, Note_on_c, 0, 75, 102
2, 97087, Note_on_c, 0, 51, 99
2, 97087, Note_on_c, 0, 39, 91
2, 97088, Note_on_c, 0, 67, 86
2, 97088, Note_on_c, 0, 63, 97
2, 97121, Control_c, 0, 64, 127
2, 97313, Note_on_c, 0, 67, 0
2, 97316, Note_on_c, 0, 79, 104
2, 97316, Note_on_c, 0, 55, 95
2, 97318, Note_on_c, 0, 67, 96
2, 97320, Note_on_c, 0, 51, 0
2, 97322, Note_on_c, 0, 43, 80
2, 97331, Note_on_c, 0, 51, 84
2, 97489, Note_on_c, 0, 51, 0
2, 97494, Note_on_c, 0, 51, 69
2, 97495, Note_on_c, 0, 58, 75
2, 97504, Note_on_c, 0, 82, 96
2, 97515, Note_on_c, 0, 70, 85
2, 97631, Control_c, 0, 64, 0
2, 97632, Note_on_c, 0, 75, 0
2, 97632, Note_on_c, 0, 79, 0
2, 97632, Note_on_c, 0, 67, 0
2, 97632, Note_on_c, 0, 63, 0
2, 97632, Note_on_c, 0, 82, 0
2, 97633, Note_on_c, 0, 51, 0
2, 97633, Note_on_c, 0, 55, 0
2, 97633, Note_on_c, 0, 39, 0
2, 97633, Note_on_c, 0, 70, 0
2, 97633, Note_on_c, 0, 58, 0
2, 97651, Note_on_c, 0, 43, 0
2, 97662, Note_on_c, 0, 81, 105
2, 97665, Note_on_c, 0, 72, 95
2, 97666, Note_on_c, 0, 69, 100
2, 97667, Note_on_c, 0, 53, 91
2, 97668, Note_on_c, 0, 41, 86
2, 97712, Control_c, 0, 64, 127
2, 97751, Note_on_c, 0, 72, 0
2, 97935, Note_on_c, 0, 81, 0
2, 97943, Note_on_c, 0, 53, 0
2, 97945, Note_on_c, 0, 89, 108
2, 97946, Note_on_c, 0, 81, 96
2, 97946, Note_on_c, 0, 57, 90
2, 97950, Note_on_c, 0, 77, 96
2, 97954, Note_on_c, 0, 53, 80
2, 97955, Note_on_c, 0, 48, 73
2, 97981, Note_on_c, 0, 69, 0
2, 98221, Note_on_c, 0, 48, 0
2, 98222, Note_on_c, 0, 41, 0
2, 98222, Note_on_c, 0, 53, 0
2, 98222, Note_on_c, 0, 89, 0
2, 98223, Note_on_c, 0, 57, 0
2, 98223, Note_on_c, 0, 77, 0
2, 98223, Control_c, 0, 64, 0
2, 98234, Note_on_c, 0, 81, 0
2, 98253, Note_on_c, 0, 91, 105
2, 98254, Note_on_c, 0, 83, 96
2, 98255, Note_on_c, 0, 79, 101
2, 98255, Note_on_c, 0, 43, 75
2, 98260, Note_on_c, 0, 50, 67
2, 98262, Note_on_c, 0, 59, 79
2, 98334, Control_c, 0, 64, 127
2, 98542, Note_on_c, 0, 79, 0
2, 98551, Note_on_c, 0, 79, 76
2, 98681, Note_on_c, 0, 74, 69
2, 98738, Control_c, 0, 64, 0
2, 98749, Note_on_c, 0, 79, 0
2, 98760, Note_on_c, 0, 79, 80
2, 98849, Control_c, 0, 64, 127
2, 98989, Note_on_c, 0, 81, 74
2, 99118, Note_on_c, 0, 79, 0
2, 99123, Note_on_c, 0, 79, 65
2, 99256, Note_on_c, 0, 79, 0
2, 99266, Note_on_c, 0, 79, 68
2, 99325, Note_on_c, 0, 91, 0
2, 99394, Note_on_c, 0, 83, 0
2, 99402, Note_on_c, 0, 79, 0
2, 99409, Note_on_c, 0, 59, 0
2, 99412, Note_on_c, 0, 79, 75
2, 99416, Note_on_c, 0, 62, 59
2, 99419, Note_on_c, 0, 59, 54
2, 99420, Note_on_c, 0, 55, 58
2, 99422, Note_on_c, 0, 81, 0
2, 99422, Note_on_c, 0, 43, 0
2, 99423, Note_on_c, 0, 47, 49
2, 99423, Control_c, 0, 64, 0
2, 99425, Note_on_c, 0, 74, 0
2, 99448, Note_on_c, 0, 50, 0
2, 99540, Control_c, 0, 64, 127
2, 99701, Note_on_c, 0, 79, 0
2, 99706, Note_on_c, 0, 79, 76
2, 99839, Note_on_c, 0, 74, 75
2, 99901, Note_on_c, 0, 79, 0
2, 99911, Note_on_c, 0, 79, 74
2, 99915, Control_c, 0, 64, 0
2, 99993, Control_c, 0, 64, 127
2, 100032, Note_on_c, 0, 59, 0
2, 100140, Note_on_c, 0, 81, 76
2, 100270, Note_on_c, 0, 79, 0
2, 100276, Note_on_c, 0, 79, 77
2, 100411, Note_on_c, 0, 78, 64
2, 100549, Note_on_c, 0, 48, 56
2, 100555, Note_on_c, 0, 76, 75
2, 100560, Note_on_c, 0, 81, 0
2, 100561, Control_c, 0, 64, 0
2, 100561, Note_on_c, 0, 55, 0
2, 100562, Note_on_c, 0, 79, 0
2, 100562, Note_on_c, 0, 62, 0
2, 100565, Note_on_c, 0, 78, 0
2, 100569, Note_on_c, 0, 55, 61
2, 100569, Note_on_c, 0, 47, 0
2, 100569, Note_on_c, 0, 64, 67
2, 100584, Note_on_c, 0, 74, 0
2, 100662, Note_on_c, 0, 76, 0
2, 100664, Note_on_c, 0, 64, 0
2, 100692, Note_on_c, 0, 48, 0
2, 100730, Note_on_c, 0, 55, 0
2, 100847, Note_on_c, 0, 64, 76
2, 100958, Note_on_c, 0, 64, 0
2, 101131, Note_on_c, 0, 67, 76
2, 101134, Note_on_c, 0, 64, 63
2, 101148, Note_on_c, 0, 49, 55
2, 101150, Note_on_c, 0, 61, 62
2, 101151, Note_on_c, 0, 57, 58
2, 101265, Note_on_c, 0, 61, 0
2, 101265, Note_on_c, 0, 64, 0
2, 101279, Note_on_c, 0, 49, 0
2, 101282, Note_on_c, 0, 67, 0
2, 101298, Note_on_c, 0, 57, 0
2, 101420, Note_on_c, 0, 69, 77
2, 101583, Note_on_c, 0, 69, 0
2, 101705, Note_on_c, 0, 71, 76
2, 101720, Note_on_c, 0, 67, 58
2, 101728, Note_on_c, 0, 62, 56
2, 101732, Note_on_c, 0, 55, 52
2, 101733, Note_on_c, 0, 50, 45
2, 101898, Control_c, 0, 64, 127
2, 102154, Note_on_c, 0, 69, 65
2, 102270, Note_on_c, 0, 71, 0
2, 102270, Note_on_c, 0, 67, 0
2, 102271, Note_on_c, 0, 62, 0
2, 102271, Note_on_c, 0, 50, 0
2, 102271, Note_on_c, 0, 55, 0
2, 102275, Control_c, 0, 64, 0
2, 102297, Note_on_c, 0, 69, 0
2, 102307, Note_on_c, 0, 69, 64
2, 102309, Note_on_c, 0, 57, 54
2, 102323, Note_on_c, 0, 66, 55
2, 102324, Note_on_c, 0, 62, 41
2, 102435, Control_c, 0, 64, 127
2, 102886, Note_on_c, 0, 69, 0
2, 102886, Note_on_c, 0, 57, 0
2, 102886, Note_on_c, 0, 66, 0
2, 102886, Note_on_c, 0, 62, 0
2, 102887, Control_c, 0, 64, 0
2, 102893, Note_on_c, 0, 55, 70
2, 102893, Note_on_c, 0, 91, 82
2, 102909, Note_on_c, 0, 79, 52
2, 102958, Control_c, 0, 64, 127
2, 102980, Note_on_c, 0, 86, 76
2, 103034, Note_on_c, 0, 79, 0
2, 103045, Note_on_c, 0, 79, 71
2, 103047, Note_on_c, 0, 62, 64
2, 103104, Note_on_c, 0, 86, 0
2, 103114, Note_on_c, 0, 86, 77
2, 103180, Note_on_c, 0, 91, 0
2, 103185, Note_on_c, 0, 91, 78
2, 103194, Note_on_c, 0, 67, 61
2, 103311, Note_on_c, 0, 62, 0
2, 103311, Note_on_c, 0, 86, 0
2, 103316, Note_on_c, 0, 62, 65
2, 103321, Note_on_c, 0, 86, 78
2, 103380, Note_on_c, 0, 91, 0
2, 103391, Note_on_c, 0, 91, 88
2, 103407, Note_on_c, 0, 71, 70
2, 103603, Note_on_c, 0, 62, 0
2, 103609, Note_on_c, 0, 93, 73
2, 103611, Note_on_c, 0, 62, 61
2, 103626, Note_on_c, 0, 55, 0
2, 103741, Note_on_c, 0, 91, 0
2, 103747, Note_on_c, 0, 91, 78
2, 103749, Note_on_c, 0, 67, 0
2, 103754, Note_on_c, 0, 67, 62
2, 103887, Note_on_c, 0, 91, 0
2, 103893, Note_on_c, 0, 91, 72
2, 104019, Note_on_c, 0, 93, 0
2, 104020, Control_c, 0, 64, 0
2, 104020, Note_on_c, 0, 86, 0
2, 104020, Note_on_c, 0, 79, 0
2, 104021, Note_on_c, 0, 71, 0
2, 104021, Note_on_c, 0, 62, 0
2, 104021, Note_on_c, 0, 67, 0
2, 104025, Note_on_c, 0, 91, 0
2, 104031, Note_on_c, 0, 91, 90
2, 104032, Note_on_c, 0, 59, 72
2, 104087, Control_c, 0, 64, 127
2, 104115, Note_on_c, 0, 86, 73
2, 104175, Note_on_c, 0, 62, 67
2, 104176, Note_on_c, 0, 79, 79
2, 104240, Note_on_c, 0, 86, 0
2, 104246, Note_on_c, 0, 86, 76
2, 104302, Note_on_c, 0, 91, 0
2, 104313, Note_on_c, 0, 91, 86
2, 104314, Note_on_c, 0, 67, 66
2, 104448, Note_on_c, 0, 86, 0
2, 104455, Note_on_c, 0, 62, 0
2, 104458, Note_on_c, 0, 86, 75
2, 104460, Note_on_c, 0, 62, 62
2, 104509, Note_on_c, 0, 91, 0
2, 104520, Note_on_c, 0, 91, 86
2, 104537, Note_on_c, 0, 71, 72
2, 104739, Note_on_c, 0, 62, 0
2, 104749, Note_on_c, 0, 62, 69
2, 104750, Note_on_c, 0, 93, 78
2, 104870, Note_on_c, 0, 91, 0
2, 104878, Note_on_c, 0, 67, 0
2, 104881, Note_on_c, 0, 91, 80
2, 104883, Note_on_c, 0, 67, 67
2, 105006, Note_on_c, 0, 90, 73
2, 105008, Note_on_c, 0, 71, 0
2, 105012, Note_on_c, 0, 71, 43
2, 105110, Note_on_c, 0, 93, 0
2, 105111, Note_on_c, 0, 86, 0
2, 105111, Note_on_c, 0, 79, 0
2, 105111, Note_on_c, 0, 90, 0
2, 105111, Note_on_c, 0, 71, 0
2, 105111, Note_on_c, 0, 59, 0
2, 105112, Note_on_c, 0, 91, 0
2, 105112, Note_on_c, 0, 67, 0
2, 105112, Control_c, 0, 64, 0
2, 105123, Note_on_c, 0, 62, 0
2, 105142, Note_on_c, 0, 88, 84
2, 105145, Note_on_c, 0, 60, 72
2, 105267, Note_on_c, 0, 88, 0
2, 105297, Note_on_c, 0, 67, 66
2, 105350, Note_on_c, 0, 67, 0
2, 105436, Note_on_c, 0, 76, 75
2, 105546, Note_on_c, 0, 76, 0
2, 105581, Note_on_c, 0, 60, 0
2, 105589, Note_on_c, 0, 67, 65
2, 105708, Note_on_c, 0, 79, 86
2, 105711, Note_on_c, 0, 76, 70
2, 105733, Note_on_c, 0, 61, 66
2, 105739, Note_on_c, 0, 73, 61
2, 105748, Note_on_c, 0, 67, 0
2, 105850, Note_on_c, 0, 73, 0
2, 105858, Note_on_c, 0, 79, 0
2, 105864, Note_on_c, 0, 76, 0
2, 105882, Note_on_c, 0, 69, 64
2, 105965, Note_on_c, 0, 69, 0
2, 106008, Note_on_c, 0, 81, 86
2, 106155, Note_on_c, 0, 69, 63
2, 106210, Note_on_c, 0, 61, 0
2, 106291, Note_on_c, 0, 83, 87
2, 106301, Note_on_c, 0, 79, 74
2, 106303, Note_on_c, 0, 62, 64
2, 106309, Note_on_c, 0, 74, 65
2, 106355, Note_on_c, 0, 69, 0
2, 106360, Note_on_c, 0, 81, 0
2, 106560, Control_c, 0, 64, 127
2, 106736, Note_on_c, 0, 81, 70
2, 106874, Note_on_c, 0, 81, 0
2, 106881, Note_on_c, 0, 83, 0
2, 106882, Note_on_c, 0, 79, 0
2, 106883, Control_c, 0, 64, 0
2, 106886, Note_on_c, 0, 81, 64
2, 106893, Note_on_c, 0, 69, 51
2, 106905, Note_on_c, 0, 74, 0
2, 106916, Note_on_c, 0, 74, 51
2, 106919, Note_on_c, 0, 78, 50
2, 106997, Control_c, 0, 64, 127
2, 107485, Note_on_c, 0, 71, 72
2, 107496, Note_on_c, 0, 62, 0
2, 107504, Note_on_c, 0, 67, 61
2, 107506, Note_on_c, 0, 62, 57
2, 107509, Note_on_c, 0, 50, 48
2, 107510, Control_c, 0, 64, 0
2, 107516, Note_on_c, 0, 74, 0
2, 107516, Note_on_c, 0, 69, 0
2, 107516, Note_on_c, 0, 78, 0
2, 107518, Note_on_c, 0, 81, 0
2, 107719, Control_c, 0, 64, 127
2, 107949, Note_on_c, 0, 69, 64
2, 108080, Note_on_c, 0, 69, 0
2, 108090, Note_on_c, 0, 69, 61
2, 108092, Control_c, 0, 64, 0
2, 108099, Note_on_c, 0, 71, 0
2, 108100, Note_on_c, 0, 67, 0
2, 108111, Note_on_c, 0, 62, 0
2, 108116, Note_on_c, 0, 66, 49
2, 108119, Note_on_c, 0, 62, 43
2, 108122, Note_on_c, 0, 57, 46
2, 108226, Control_c, 0, 64, 127
2, 108753, Note_on_c, 0, 59, 71
2, 108767, Note_on_c, 0, 55, 55
2, 108771, Note_on_c, 0, 38, 43
2, 108816, Note_on_c, 0, 66, 0
2, 108818, Control_c, 0, 64, 0
2, 108819, Note_on_c, 0, 57, 0
2, 108820, Note_on_c, 0, 62, 0
2, 108840, Note_on_c, 0, 69, 0
2, 109486, Control_c, 0, 64, 127
2, 109709, Note_on_c, 0, 57, 58
2, 110115, Note_on_c, 0, 57, 0
2, 110127, Note_on_c, 0, 57, 49
2, 110127, Note_on_c, 0, 54, 46
2, 110131, Note_on_c, 0, 38, 0
2, 110134, Note_on_c, 0, 26, 41
2, 110135, Note_on_c, 0, 38, 35
2, 110189, Note_on_c, 0, 55, 0
2, 110192, Note_on_c, 0, 59, 0
2, 110205, Control_c, 0, 64, 0
2, 110208, Note_on_c, 0, 50, 0
2, 111813, Control_c, 0, 64, 127
2, 112189, Note_on_c, 0, 55, 63
2, 112465, Note_on_c, 0, 55, 0
2, 112473, Note_on_c, 0, 55, 60
2, 112481, Note_on_c, 0, 26, 0
2, 112482, Note_on_c, 0, 50, 41
2, 112499, Note_on_c, 0, 43, 46
2, 112503, Note_on_c, 0, 31, 47
2, 112504, Note_on_c, 0, 54, 0
2, 112512, Control_c, 0, 64, 0
2, 112519, Note_on_c, 0, 57, 0
2, 112535, Note_on_c, 0, 38, 0
2, 112788, Note_on_c, 0, 59, 71
2, 112900, Note_on_c, 0, 59, 0
2, 113061, Note_on_c, 0, 57, 66
2, 113088, Note_on_c, 0, 50, 0
2, 113198, Note_on_c, 0, 59, 66
2, 113210, Control_c, 0, 64, 127
2, 113233, Note_on_c, 0, 55, 0
2, 113333, Note_on_c, 0, 57, 0
2, 113338, Note_on_c, 0, 57, 58
2, 113482, Note_on_c, 0, 55, 61
2, 113629, Note_on_c, 0, 62, 70
2, 113637, Note_on_c, 0, 31, 0
2, 113637, Note_on_c, 0, 36, 59
2, 113637, Note_on_c, 0, 55, 0
2, 113637, Note_on_c, 0, 59, 0
2, 113638, Note_on_c, 0, 57, 0
2, 113638, Note_on_c, 0, 43, 0
2, 113638, Note_on_c, 0, 52, 65
2, 113639, Control_c, 0, 64, 0
2, 113757, Note_on_c, 0, 62, 0
2, 113930, Note_on_c, 0, 59, 70
2, 114068, Note_on_c, 0, 59, 0
2, 114211, Note_on_c, 0, 57, 68
2, 114342, Note_on_c, 0, 57, 0
2, 114361, Note_on_c, 0, 59, 66
2, 114385, Control_c, 0, 64, 127
2, 114491, Note_on_c, 0, 57, 69
2, 114629, Note_on_c, 0, 55, 68
2, 114747, Note_on_c, 0, 59, 0
2, 114748, Note_on_c, 0, 57, 0
2, 114750, Note_on_c, 0, 55, 0
2, 114752, Control_c, 0, 64, 0
2, 114769, Note_on_c, 0, 62, 71
2, 114769, Note_on_c, 0, 52, 0
2, 114773, Note_on_c, 0, 47, 58
2, 114773, Note_on_c, 0, 40, 63
2, 114775, Note_on_c, 0, 52, 66
2, 114785, Note_on_c, 0, 36, 0
2, 114904, Note_on_c, 0, 62, 0
2, 115064, Note_on_c, 0, 59, 73
2, 115203, Note_on_c, 0, 59, 0
2, 115344, Note_on_c, 0, 57, 67
2, 115484, Note_on_c, 0, 57, 0
2, 115495, Note_on_c, 0, 59, 66
2, 115584, Control_c, 0, 64, 127
2, 115626, Note_on_c, 0, 57, 65
2, 115765, Note_on_c, 0, 55, 71
2, 115832, Note_on_c, 0, 52, 0
2, 115834, Note_on_c, 0, 57, 0
2, 115834, Note_on_c, 0, 59, 0
2, 115835, Note_on_c, 0, 40, 0
2, 115836, Control_c, 0, 64, 0
2, 115860, Note_on_c, 0, 47, 0
2, 115903, Note_on_c, 0, 38, 65
2, 115903, Note_on_c, 0, 50, 60
2, 115906, Control_c, 0, 64, 127
2, 116037, Note_on_c, 0, 55, 0
2, 116041, Note_on_c, 0, 67, 73
2, 116044, Note_on_c, 0, 55, 65
2, 116185, Note_on_c, 0, 57, 74
2, 116186, Note_on_c, 0, 69, 75
2, 116318, Note_on_c, 0, 71, 76
2, 116324, Note_on_c, 0, 59, 66
2, 116424, Control_c, 0, 64, 0
2, 116424, Note_on_c, 0, 57, 0
2, 116424, Note_on_c, 0, 69, 0
2, 116425, Note_on_c, 0, 59, 0
2, 116425, Note_on_c, 0, 55, 0
2, 116425, Note_on_c, 0, 67, 0
2, 116425, Note_on_c, 0, 71, 0
2, 116451, Note_on_c, 0, 38, 0
2, 116451, Note_on_c, 0, 50, 0
2, 116456, Note_on_c, 0, 72, 92
2, 116459, Note_on_c, 0, 50, 72
2, 116461, Note_on_c, 0, 38, 76
2, 116463, Note_on_c, 0, 60, 84
2, 116490, Control_c, 0, 64, 127
2, 116597, Note_on_c, 0, 71, 79
2, 116601, Note_on_c, 0, 59, 79
2, 116731, Note_on_c, 0, 69, 83
2, 116731, Note_on_c, 0, 57, 83
2, 116867, Note_on_c, 0, 55, 80
2, 116868, Note_on_c, 0, 67, 81
2, 116954, Note_on_c, 0, 71, 0
2, 116955, Note_on_c, 0, 72, 0
2, 116955, Note_on_c, 0, 59, 0
2, 116955, Note_on_c, 0, 57, 0
2, 116955, Note_on_c, 0, 55, 0
2, 116955, Note_on_c, 0, 69, 0
2, 116955, Note_on_c, 0, 60, 0
2, 116955, Note_on_c, 0, 50, 0
2, 116955, Note_on_c, 0, 67, 0
2, 116956, Control_c, 0, 64, 0
2, 116956, Note_on_c, 0, 38, 0
2, 117000, Note_on_c, 0, 74, 95
2, 117016, Note_on_c, 0, 43, 76
2, 117043, Control_c, 0, 64, 127
2, 117085, Note_on_c, 0, 62, 84
2, 117165, Note_on_c, 0, 59, 68
2, 117166, Note_on_c, 0, 67, 83
2, 117250, Note_on_c, 0, 62, 0
2, 117255, Note_on_c, 0, 62, 68
2, 117277, Note_on_c, 0, 50, 58
2, 117300, Note_on_c, 0, 71, 87
2, 117358, Note_on_c, 0, 62, 0
2, 117363, Note_on_c, 0, 62, 78
2, 117419, Note_on_c, 0, 59, 0
2, 117426, Note_on_c, 0, 59, 62
2, 117427, Note_on_c, 0, 67, 0
2, 117429, Note_on_c, 0, 50, 0
2, 117438, Note_on_c, 0, 67, 75
2, 117511, Note_on_c, 0, 43, 0
2, 117511, Note_on_c, 0, 62, 0
2, 117521, Note_on_c, 0, 62, 77
2, 117523, Note_on_c, 0, 43, 68
2, 117528, Control_c, 0, 64, 0
2, 117528, Note_on_c, 0, 71, 0
2, 117529, Note_on_c, 0, 59, 0
2, 117529, Note_on_c, 0, 74, 0
2, 117550, Note_on_c, 0, 43, 0
2, 117550, Note_on_c, 0, 67, 0
2, 117554, Note_on_c, 0, 43, 61
2, 117565, Note_on_c, 0, 62, 0
2, 117567, Note_on_c, 0, 69, 84
2, 117603, Control_c, 0, 64, 127
2, 117639, Note_on_c, 0, 62, 87
2, 117698, Note_on_c, 0, 71, 80
2, 117700, Note_on_c, 0, 59, 64
2, 117765, Note_on_c, 0, 62, 0
2, 117774, Note_on_c, 0, 62, 80
2, 117818, Note_on_c, 0, 69, 0
2, 117828, Note_on_c, 0, 69, 81
2, 117834, Note_on_c, 0, 59, 0
2, 117838, Note_on_c, 0, 50, 61
2, 117841, Note_on_c, 0, 59, 60
2, 117895, Note_on_c, 0, 62, 0
2, 117906, Note_on_c, 0, 62, 85
2, 117964, Note_on_c, 0, 59, 0
2, 117971, Note_on_c, 0, 67, 82
2, 117975, Note_on_c, 0, 59, 68
2, 118049, Note_on_c, 0, 62, 0
2, 118056, Note_on_c, 0, 62, 80
2, 118084, Control_c, 0, 64, 0
2, 118084, Note_on_c, 0, 71, 0
2, 118085, Note_on_c, 0, 62, 0
2, 118086, Note_on_c, 0, 67, 0
2, 118103, Note_on_c, 0, 59, 0
2, 118103, Note_on_c, 0, 69, 0
2, 118113, Note_on_c, 0, 36, 85
2, 118114, Note_on_c, 0, 74, 80
2, 118119, Note_on_c, 0, 76, 77
2, 118141, Note_on_c, 0, 43, 0
2, 118164, Control_c, 0, 64, 127
2, 118186, Note_on_c, 0, 62, 83
2, 118210, Note_on_c, 0, 36, 0
2, 118268, Note_on_c, 0, 52, 62
2, 118272, Note_on_c, 0, 67, 81
2, 118348, Note_on_c, 0, 62, 0
2, 118359, Note_on_c, 0, 62, 69
2, 118384, Note_on_c, 0, 71, 84
2, 118385, Note_on_c, 0, 43, 67
2, 118464, Note_on_c, 0, 62, 0
2, 118471, Note_on_c, 0, 62, 77
2, 118525, Note_on_c, 0, 52, 0
2, 118525, Note_on_c, 0, 67, 0
2, 118531, Note_on_c, 0, 67, 85
2, 118532, Note_on_c, 0, 52, 62
2, 118602, Note_on_c, 0, 62, 0
2, 118607, Note_on_c, 0, 62, 78
2, 118636, Control_c, 0, 64, 0
2, 118642, Note_on_c, 0, 43, 0
2, 118643, Note_on_c, 0, 52, 0
2, 118643, Note_on_c, 0, 71, 0
2, 118644, Note_on_c, 0, 67, 0
2, 118644, Note_on_c, 0, 74, 0
2, 118648, Note_on_c, 0, 76, 0
2, 118654, Note_on_c, 0, 36, 69
2, 118659, Note_on_c, 0, 69, 91
2, 118671, Note_on_c, 0, 62, 0
2, 118679, Note_on_c, 0, 50, 0
2, 118686, Control_c, 0, 64, 127
2, 118742, Note_on_c, 0, 62, 85
2, 118796, Note_on_c, 0, 71, 87
2, 118818, Note_on_c, 0, 52, 66
2, 118863, Note_on_c, 0, 62, 0
2, 118868, Note_on_c, 0, 62, 84
2, 118924, Note_on_c, 0, 69, 0
2, 118929, Note_on_c, 0, 69, 90
2, 118950, Note_on_c, 0, 43, 70
2, 119001, Note_on_c, 0, 62, 0
2, 119006, Note_on_c, 0, 62, 87
2, 119063, Note_on_c, 0, 52, 0
2, 119067, Note_on_c, 0, 67, 85
2, 119073, Note_on_c, 0, 52, 66
2, 119147, Note_on_c, 0, 62, 0
2, 119151, Note_on_c, 0, 62, 80
2, 119174, Note_on_c, 0, 69, 0
2, 119174, Note_on_c, 0, 71, 0
2, 119174, Note_on_c, 0, 62, 0
2, 119174, Control_c, 0, 64, 0
2, 119174, Note_on_c, 0, 67, 0
2, 119176, Note_on_c, 0, 43, 0
2, 119178, Note_on_c, 0, 36, 0
2, 119193, Note_on_c, 0, 52, 0
2, 119203, Note_on_c, 0, 74, 101
2, 119204, Note_on_c, 0, 40, 76
2, 119247, Control_c, 0, 64, 127
2, 119280, Note_on_c, 0, 62, 74
2, 119359, Note_on_c, 0, 67, 81
2, 119361, Note_on_c, 0, 55, 65
2, 119416, Note_on_c, 0, 62, 0
2, 119426, Note_on_c, 0, 62, 81
2, 119475, Note_on_c, 0, 71, 94
2, 119481, Note_on_c, 0, 47, 53
2, 119546, Note_on_c, 0, 62, 0
2, 119554, Note_on_c, 0, 62, 87
2, 119616, Note_on_c, 0, 55, 0
2, 119616, Note_on_c, 0, 67, 0
2, 119622, Note_on_c, 0, 67, 93
2, 119623, Note_on_c, 0, 55, 72
2, 119692, Note_on_c, 0, 62, 0
2, 119697, Note_on_c, 0, 62, 81
2, 119712, Note_on_c, 0, 71, 0
2, 119713, Note_on_c, 0, 67, 0
2, 119716, Note_on_c, 0, 47, 0
2, 119718, Note_on_c, 0, 74, 0
2, 119719, Control_c, 0, 64, 0
2, 119720, Note_on_c, 0, 55, 0
2, 119738, Note_on_c, 0, 40, 0
2, 119749, Note_on_c, 0, 69, 93
2, 119749, Note_on_c, 0, 40, 74
2, 119761, Note_on_c, 0, 62, 0
2, 119769, Control_c, 0, 64, 127
2, 119828, Note_on_c, 0, 62, 83
2, 119876, Note_on_c, 0, 71, 89
2, 119897, Note_on_c, 0, 55, 63
2, 119946, Note_on_c, 0, 62, 0
2, 119950, Note_on_c, 0, 62, 86
2, 120000, Note_on_c, 0, 69, 0
2, 120007, Note_on_c, 0, 69, 85
2, 120024, Note_on_c, 0, 47, 69
2, 120076, Note_on_c, 0, 62, 0
2, 120081, Note_on_c, 0, 62, 82
2, 120130, Note_on_c, 0, 55, 0
2, 120134, Note_on_c, 0, 67, 94
2, 120137, Note_on_c, 0, 55, 80
2, 120184, Note_on_c, 0, 62, 0
2, 120192, Note_on_c, 0, 69, 0
2, 120192, Note_on_c, 0, 71, 0
2, 120193, Control_c, 0, 64, 0
2, 120193, Note_on_c, 0, 62, 92
2, 120194, Note_on_c, 0, 47, 0
2, 120194, Note_on_c, 0, 55, 0
2, 120195, Note_on_c, 0, 67, 0
2, 120207, Note_on_c, 0, 40, 0
2, 120245, Control_c, 0, 64, 127
2, 120270, Note_on_c, 0, 38, 85
2, 120291, Note_on_c, 0, 62, 0
2, 120363, Note_on_c, 0, 74, 84
2, 120416, Note_on_c, 0, 54, 62
2, 120433, Note_on_c, 0, 79, 93
2, 120506, Note_on_c, 0, 74, 0
2, 120512, Note_on_c, 0, 74, 80
2, 120559, Note_on_c, 0, 45, 78
2, 120566, Note_on_c, 0, 81, 100
2, 120645, Note_on_c, 0, 74, 0
2, 120650, Note_on_c, 0, 74, 94
2, 120675, Note_on_c, 0, 54, 0
2, 120681, Note_on_c, 0, 54, 77
2, 120702, Note_on_c, 0, 83, 100
2, 120775, Note_on_c, 0, 74, 0
2, 120782, Note_on_c, 0, 74, 84
2, 120821, Note_on_c, 0, 38, 0
2, 120826, Note_on_c, 0, 38, 82
2, 120831, Note_on_c, 0, 84, 105
2, 120906, Note_on_c, 0, 74, 0
2, 120912, Note_on_c, 0, 74, 82
2, 120960, Note_on_c, 0, 54, 0
2, 120964, Note_on_c, 0, 54, 73
2, 120967, Note_on_c, 0, 83, 0
2, 120971, Note_on_c, 0, 83, 98
2, 121067, Note_on_c, 0, 74, 0
2, 121067, Note_on_c, 0, 81, 0
2, 121076, Note_on_c, 0, 81, 96
2, 121078, Note_on_c, 0, 74, 87
2, 121098, Note_on_c, 0, 45, 0
2, 121104, Note_on_c, 0, 45, 82
2, 121190, Note_on_c, 0, 54, 0
2, 121195, Note_on_c, 0, 54, 79
2, 121236, Note_on_c, 0, 79, 0
2, 121247, Note_on_c, 0, 79, 106
2, 121250, Note_on_c, 0, 67, 100
2, 121323, Note_on_c, 0, 84, 0
2, 121323, Note_on_c, 0, 74, 0
2, 121324, Note_on_c, 0, 83, 0
2, 121324, Note_on_c, 0, 81, 0
2, 121324, Note_on_c, 0, 54, 0
2, 121324, Note_on_c, 0, 38, 0
2, 121325, Note_on_c, 0, 45, 0
2, 121325, Control_c, 0, 64, 0
2, 121395, Note_on_c, 0, 43, 87
2, 121396, Note_on_c, 0, 31, 88
2, 121413, Control_c, 0, 64, 127
2, 121534, Note_on_c, 0, 38, 72
2, 121535, Note_on_c, 0, 55, 78
2, 121602, Note_on_c, 0, 59, 79
2, 121628, Note_on_c, 0, 43, 0
2, 121628, Note_on_c, 0, 38, 0
2, 121628, Note_on_c, 0, 79, 0
2, 121629, Note_on_c, 0, 55, 0
2, 121630, Note_on_c, 0, 67, 0
2, 121630, Control_c, 0, 64, 0
2, 121651, Note_on_c, 0, 31, 0
2, 121665, Note_on_c, 0, 62, 87
2, 121670, Note_on_c, 0, 38, 79
2, 121670, Note_on_c, 0, 31, 82
2, 121671, Note_on_c, 0, 26, 87
2, 121674, Note_on_c, 0, 59, 0
2, 121681, Note_on_c, 0, 26, 0
2, 121704, Control_c, 0, 64, 127
2, 121755, Note_on_c, 0, 59, 65
2, 121797, Note_on_c, 0, 31, 0
2, 121808, Note_on_c, 0, 31, 76
2, 121809, Note_on_c, 0, 55, 80
2, 121850, Note_on_c, 0, 59, 0
2, 121850, Note_on_c, 0, 62, 0
2, 121857, Note_on_c, 0, 62, 56
2, 121861, Control_c, 0, 64, 0
2, 121862, Note_on_c, 0, 59, 80
2, 121869, Note_on_c, 0, 55, 0
2, 121873, Note_on_c, 0, 38, 0
2, 121881, Note_on_c, 0, 62, 0
2, 121889, Note_on_c, 0, 31, 0
2, 121912, Note_on_c, 0, 59, 0
2, 121954, Note_on_c, 0, 67, 92
2, 121959, Note_on_c, 0, 31, 93
2, 121961, Note_on_c, 0, 43, 96
2, 121989, Control_c, 0, 64, 127
2, 122017, Note_on_c, 0, 62, 81
2, 122097, Note_on_c, 0, 38, 86
2, 122100, Note_on_c, 0, 59, 76
2, 122142, Note_on_c, 0, 62, 0
2, 122151, Note_on_c, 0, 62, 81
2, 122187, Note_on_c, 0, 43, 0
2, 122188, Note_on_c, 0, 67, 0
2, 122189, Note_on_c, 0, 62, 0
2, 122189, Note_on_c, 0, 31, 0
2, 122190, Note_on_c, 0, 59, 0
2, 122191, Note_on_c, 0, 38, 0
2, 122191, Control_c, 0, 64, 0
2, 122239, Note_on_c, 0, 72, 90
2, 122240, Note_on_c, 0, 38, 93
2, 122240, Note_on_c, 0, 26, 96
2, 122241, Note_on_c, 0, 71, 89
2, 122277, Note_on_c, 0, 26, 0
2, 122280, Control_c, 0, 64, 127
2, 122305, Note_on_c, 0, 67, 80
2, 122377, Note_on_c, 0, 62, 83
2, 122434, Note_on_c, 0, 67, 0
2, 122441, Note_on_c, 0, 67, 73
2, 122445, Note_on_c, 0, 62, 0
2, 122446, Note_on_c, 0, 71, 0
2, 122446, Note_on_c, 0, 72, 0
2, 122447, Control_c, 0, 64, 0
2, 122457, Note_on_c, 0, 38, 0
2, 122488, Note_on_c, 0, 67, 0
2, 122514, Note_on_c, 0, 43, 101
2, 122514, Note_on_c, 0, 31, 97
2, 122515, Note_on_c, 0, 74, 98
2, 122572, Control_c, 0, 64, 127
2, 122586, Note_on_c, 0, 71, 85
2, 122652, Note_on_c, 0, 38, 81
2, 122657, Note_on_c, 0, 67, 84
2, 122736, Note_on_c, 0, 72, 73
2, 122753, Control_c, 0, 64, 0
2, 122754, Note_on_c, 0, 67, 0
2, 122755, Note_on_c, 0, 43, 0
2, 122755, Note_on_c, 0, 38, 0
2, 122755, Note_on_c, 0, 74, 0
2, 122772, Note_on_c, 0, 31, 0
2, 122772, Note_on_c, 0, 71, 0
2, 122791, Note_on_c, 0, 79, 100
2, 122798, Note_on_c, 0, 26, 102
2, 122799, Note_on_c, 0, 38, 97
2, 122841, Control_c, 0, 64, 127
2, 122861, Note_on_c, 0, 74, 84
2, 122922, Note_on_c, 0, 33, 80
2, 122926, Note_on_c, 0, 71, 82
2, 122987, Note_on_c, 0, 74, 0
2, 122991, Note_on_c, 0, 74, 79
2, 123024, Control_c, 0, 64, 0
2, 123024, Note_on_c, 0, 79, 0
2, 123025, Note_on_c, 0, 26, 0
2, 123029, Note_on_c, 0, 71, 0
2, 123041, Note_on_c, 0, 72, 0
2, 123048, Note_on_c, 0, 33, 0
2, 123056, Note_on_c, 0, 74, 0
2, 123060, Note_on_c, 0, 83, 106
2, 123068, Note_on_c, 0, 31, 99
2, 123068, Note_on_c, 0, 43, 101
2, 123102, Control_c, 0, 64, 127
2, 123129, Note_on_c, 0, 79, 87
2, 123187, Note_on_c, 0, 38, 0
2, 123193, Note_on_c, 0, 38, 78
2, 123197, Note_on_c, 0, 74, 91
2, 123205, Note_on_c, 0, 83, 0
2, 123303, Note_on_c, 0, 43, 0
2, 123303, Control_c, 0, 64, 0
2, 123304, Note_on_c, 0, 74, 0
2, 123304, Note_on_c, 0, 31, 0
2, 123305, Note_on_c, 0, 79, 0
2, 123333, Note_on_c, 0, 38, 0
2, 123334, Note_on_c, 0, 86, 105
2, 123344, Note_on_c, 0, 38, 100
2, 123344, Note_on_c, 0, 26, 99
2, 123371, Control_c, 0, 64, 127
2, 123381, Note_on_c, 0, 83, 76
2, 123440, Note_on_c, 0, 26, 0
2, 123457, Note_on_c, 0, 33, 81
2, 123459, Note_on_c, 0, 79, 78
2, 123466, Note_on_c, 0, 76, 67
2, 123509, Note_on_c, 0, 83, 0
2, 123519, Note_on_c, 0, 83, 93
2, 123522, Control_c, 0, 64, 0
2, 123527, Note_on_c, 0, 86, 0
2, 123528, Note_on_c, 0, 38, 0
2, 123529, Note_on_c, 0, 79, 0
2, 123548, Note_on_c, 0, 33, 0
2, 123548, Note_on_c, 0, 76, 0
2, 123578, Note_on_c, 0, 83, 0
2, 123628, Note_on_c, 0, 91, 110
2, 123628, Note_on_c, 0, 86, 98
2, 123631, Note_on_c, 0, 83, 92
2, 123635, Note_on_c, 0, 79, 99
2, 123639, Note_on_c, 0, 31, 96
2, 123641, Note_on_c, 0, 43, 101
2, 123770, Control_c, 0, 64, 127
2, 124055, Note_on_c, 0, 79, 0
2, 124066, Note_on_c, 0, 79, 96
2, 124066, Note_on_c, 0, 67, 86
2, 124066, Note_on_c, 0, 71, 81
2, 124067, Note_on_c, 0, 74, 84
2, 124131, Note_on_c, 0, 71, 0
2, 124131, Note_on_c, 0, 74, 0
2, 124131, Note_on_c, 0, 79, 0
2, 124137, Note_on_c, 0, 91, 0
2, 124139, Note_on_c, 0, 79, 102
2, 124139, Note_on_c, 0, 67, 0
2, 124141, Note_on_c, 0, 74, 91
2, 124141, Note_on_c, 0, 86, 0
2, 124143, Note_on_c, 0, 71, 81
2, 124143, Note_on_c, 0, 67, 86
2, 124185, Note_on_c, 0, 83, 0
2, 124200, Note_on_c, 0, 71, 0
2, 124200, Note_on_c, 0, 74, 0
2, 124200, Note_on_c, 0, 79, 0
2, 124208, Note_on_c, 0, 67, 0
2, 124210, Note_on_c, 0, 79, 101
2, 124211, Note_on_c, 0, 74, 96
2, 124212, Note_on_c, 0, 71, 98
2, 124213, Note_on_c, 0, 67, 97
2, 124684, Note_on_c, 0, 43, 0
2, 124684, Note_on_c, 0, 67, 0
2, 124688, Note_on_c, 0, 67, 92
2, 124689, Note_on_c, 0, 55, 86
2, 124690, Note_on_c, 0, 43, 83
2, 124690, Note_on_c, 0, 59, 83
2, 124693, Note_on_c, 0, 62, 79
2, 124753, Note_on_c, 0, 74, 0
2, 124761, Note_on_c, 0, 31, 0
2, 124761, Note_on_c, 0, 59, 0
2, 124761, Note_on_c, 0, 67, 0
2, 124768, Note_on_c, 0, 67, 95
2, 124769, Note_on_c, 0, 43, 0
2, 124769, Note_on_c, 0, 55, 0
2, 124769, Note_on_c, 0, 62, 0
2, 124772, Note_on_c, 0, 59, 83
2, 124773, Note_on_c, 0, 62, 74
2, 124773, Note_on_c, 0, 55, 83
2, 124774, Note_on_c, 0, 43, 81
2, 124838, Note_on_c, 0, 43, 0
2, 124838, Note_on_c, 0, 59, 0
2, 124838, Note_on_c, 0, 62, 0
2, 124838, Note_on_c, 0, 67, 0
2, 124843, Note_on_c, 0, 67, 95
2, 124846, Note_on_c, 0, 55, 0
2, 124848, Note_on_c, 0, 59, 95
2, 124849, Note_on_c, 0, 43, 92
2, 124849, Note_on_c, 0, 62, 85
2, 124851, Note_on_c, 0, 55, 89
2, 124892, Note_on_c, 0, 71, 0
2, 124896, Control_c, 0, 64, 0
2, 124915, Note_on_c, 0, 79, 0
2, 125391, Control_c, 0, 64, 127
2, 125987, Note_on_c, 0, 31, 103
2, 126136, Note_on_c, 0, 62, 0
2, 126142, Note_on_c, 0, 31, 0
2, 126144, Note_on_c, 0, 55, 0
2, 126144, Note_on_c, 0, 59, 0
2, 126151, Note_on_c, 0, 43, 0
2, 126159, Note_on_c, 0, 67, 0
2, 126159, Control_c, 0, 64, 0
2, 126160, End_track
0, 0, End_of_file
