0, 0, Header, 1, 2, 384
1, 0, Start_track
1, 0, Tempo, 500000
1, 0, Time_signature, 4, 2, 24, 8
1, 1, End_track
2, 0, Start_track
2, 913, Control_c, 0, 64, 127
2, 1478, Note_on_c, 0, 56, 70
2, 1478, Note_on_c, 0, 45, 61
2, 1479, Note_on_c, 0, 52, 63
2, 1620, Note_on_c, 0, 45, 0
2, 1620, Note_on_c, 0, 52, 0
2, 1620, Note_on_c, 0, 56, 0
2, 1629, Note_on_c, 0, 56, 69
2, 1630, Note_on_c, 0, 45, 56
2, 1631, Note_on_c, 0, 52, 65
2, 1688, Note_on_c, 0, 52, 0
2, 1689, Note_on_c, 0, 56, 0
2, 1690, Note_on_c, 0, 45, 0
2, 1695, Control_c, 0, 64, 0
2, 2496, Note_on_c, 0, 56, 76
2, 2498, Note_on_c, 0, 45, 65
2, 2499, Note_on_c, 0, 52, 62
2, 2503, Control_c, 0, 64, 127
2, 2626, Note_on_c, 0, 45, 0
2, 2626, Note_on_c, 0, 56, 0
2, 2632, Note_on_c, 0, 56, 62
2, 2634, Note_on_c, 0, 52, 0
2, 2637, Note_on_c, 0, 45, 61
2, 2638, Note_on_c, 0, 52, 60
2, 2687, Note_on_c, 0, 52, 0
2, 2687, Note_on_c, 0, 56, 0
2, 2690, Note_on_c, 0, 45, 0
2, 2691, Control_c, 0, 64, 0
2, 2772, Note_on_c, 0, 45, 62
2, 2776, Note_on_c, 0, 54, 73
2, 2778, Note_on_c, 0, 52, 63
2, 2818, Control_c, 0, 64, 127
2, 2926, Note_on_c, 0, 45, 0
2, 2926, Note_on_c, 0, 52, 0
2, 2926, Note_on_c, 0, 54, 0
2, 2928, Note_on_c, 0, 57, 65
2, 2932, Note_on_c, 0, 45, 65
2, 2933, Note_on_c, 0, 54, 71
2, 2933, Note_on_c, 0, 57, 0
2, 2935, Note_on_c, 0, 52, 67
2, 2989, Note_on_c, 0, 52, 0
2, 2994, Note_on_c, 0, 45, 0
2, 3003, Note_on_c, 0, 54, 0
2, 3006, Control_c, 0, 64, 0
2, 3259, Note_on_c, 0, 52, 76
2, 3259, Note_on_c, 0, 45, 65
2, 3329, Note_on_c, 0, 45, 0
2, 3353, Note_on_c, 0, 52, 0
2, 3582, Note_on_c, 0, 61, 82
2, 3582, Note_on_c, 0, 45, 59
2, 3584, Note_on_c, 0, 52, 68
2, 3717, Control_c, 0, 64, 127
2, 4012, Note_on_c, 0, 52, 0
2, 4013, Control_c, 0, 64, 0
2, 4013, Note_on_c, 0, 61, 0
2, 4013, Note_on_c, 0, 45, 0
2, 4076, Note_on_c, 0, 45, 70
2, 4080, Note_on_c, 0, 56, 78
2, 4080, Note_on_c, 0, 52, 63
2, 4131, Control_c, 0, 64, 127
2, 4216, Note_on_c, 0, 45, 0
2, 4224, Note_on_c, 0, 52, 0
2, 4224, Note_on_c, 0, 56, 0
2, 4227, Note_on_c, 0, 45, 64
2, 4228, Note_on_c, 0, 56, 66
2, 4234, Note_on_c, 0, 52, 58
2, 4323, Note_on_c, 0, 56, 0
2, 4325, Control_c, 0, 64, 0
2, 4339, Note_on_c, 0, 52, 0
2, 4346, Note_on_c, 0, 45, 0
2, 4379, Note_on_c, 0, 54, 72
2, 4381, Note_on_c, 0, 45, 63
2, 4381, Note_on_c, 0, 52, 63
2, 4423, Note_on_c, 0, 52, 0
2, 4423, Control_c, 0, 64, 127
2, 4523, Note_on_c, 0, 45, 0
2, 4534, Note_on_c, 0, 45, 61
2, 4535, Note_on_c, 0, 52, 63
2, 4578, Control_c, 0, 64, 0
2, 4582, Note_on_c, 0, 45, 0
2, 4589, Note_on_c, 0, 52, 0
2, 4623, Note_on_c, 0, 54, 0
2, 5011, Note_on_c, 0, 45, 71
2, 5012, Note_on_c, 0, 56, 82
2, 5015, Note_on_c, 0, 52, 69
2, 5066, Note_on_c, 0, 52, 0
2, 5067, Note_on_c, 0, 45, 0
2, 5084, Control_c, 0, 64, 127
2, 5145, Note_on_c, 0, 56, 0
2, 5149, Note_on_c, 0, 56, 67
2, 5152, Note_on_c, 0, 45, 64
2, 5155, Note_on_c, 0, 52, 67
2, 5238, Note_on_c, 0, 56, 0
2, 5238, Control_c, 0, 64, 0
2, 5238, Note_on_c, 0, 45, 0
2, 5245, Note_on_c, 0, 52, 0
2, 5302, Note_on_c, 0, 45, 65
2, 5303, Note_on_c, 0, 54, 73
2, 5303, Note_on_c, 0, 52, 67
2, 5343, Note_on_c, 0, 52, 0
2, 5347, Note_on_c, 0, 54, 0
2, 5347, Note_on_c, 0, 45, 0
2, 5368, Control_c, 0, 64, 127
2, 5449, Note_on_c, 0, 54, 67
2, 5449, Note_on_c, 0, 45, 72
2, 5449, Note_on_c, 0, 52, 65
2, 5544, Note_on_c, 0, 52, 0
2, 5545, Note_on_c, 0, 54, 0
2, 5546, Note_on_c, 0, 45, 0
2, 5546, Control_c, 0, 64, 0
2, 5768, Note_on_c, 0, 56, 79
2, 5769, Note_on_c, 0, 52, 70
2, 5769, Note_on_c, 0, 45, 65
2, 5849, Note_on_c, 0, 45, 0
2, 5856, Note_on_c, 0, 52, 0
2, 5861, Note_on_c, 0, 56, 0
2, 6092, Note_on_c, 0, 57, 80
2, 6094, Note_on_c, 0, 52, 70
2, 6094, Note_on_c, 0, 45, 65
2, 6174, Control_c, 0, 64, 127
2, 6516, Control_c, 0, 64, 0
2, 6516, Note_on_c, 0, 52, 0
2, 6517, Note_on_c, 0, 57, 0
2, 6518, Note_on_c, 0, 45, 0
2, 6584, Note_on_c, 0, 68, 88
2, 6591, Note_on_c, 0, 45, 73
2, 6591, Note_on_c, 0, 33, 69
2, 6593, Note_on_c, 0, 57, 75
2, 6598, Note_on_c, 0, 61, 69
2, 6635, Control_c, 0, 64, 127
2, 6727, Note_on_c, 0, 68, 0
2, 6735, Note_on_c, 0, 57, 0
2, 6735, Note_on_c, 0, 61, 0
2, 6738, Note_on_c, 0, 68, 72
2, 6742, Note_on_c, 0, 57, 62
2, 6742, Note_on_c, 0, 61, 70
2, 6838, Control_c, 0, 64, 0
2, 6838, Note_on_c, 0, 61, 0
2, 6838, Note_on_c, 0, 57, 0
2, 6842, Note_on_c, 0, 45, 0
2, 6850, Note_on_c, 0, 68, 0
2, 6858, Note_on_c, 0, 33, 0
2, 6886, Note_on_c, 0, 45, 74
2, 6890, Note_on_c, 0, 57, 68
2, 6891, Note_on_c, 0, 66, 79
2, 6891, Note_on_c, 0, 33, 63
2, 6892, Note_on_c, 0, 61, 69
2, 6919, Control_c, 0, 64, 127
2, 7027, Note_on_c, 0, 61, 0
2, 7027, Note_on_c, 0, 66, 0
2, 7033, Note_on_c, 0, 66, 74
2, 7034, Note_on_c, 0, 57, 0
2, 7038, Note_on_c, 0, 61, 75
2, 7038, Note_on_c, 0, 57, 63
2, 7075, Control_c, 0, 64, 0
2, 7096, Note_on_c, 0, 45, 0
2, 7104, Note_on_c, 0, 33, 0
2, 7109, Note_on_c, 0, 57, 0
2, 7116, Note_on_c, 0, 61, 0
2, 7125, Note_on_c, 0, 66, 0
2, 7530, Note_on_c, 0, 68, 87
2, 7537, Note_on_c, 0, 57, 75
2, 7539, Note_on_c, 0, 45, 69
2, 7545, Note_on_c, 0, 33, 64
2, 7546, Note_on_c, 0, 61, 66
2, 7557, Control_c, 0, 64, 127
2, 7672, Note_on_c, 0, 61, 0
2, 7672, Note_on_c, 0, 68, 0
2, 7679, Note_on_c, 0, 68, 78
2, 7680, Note_on_c, 0, 57, 0
2, 7683, Note_on_c, 0, 61, 74
2, 7685, Note_on_c, 0, 57, 72
2, 7760, Note_on_c, 0, 33, 0
2, 7760, Control_c, 0, 64, 0
2, 7760, Note_on_c, 0, 57, 0
2, 7760, Note_on_c, 0, 68, 0
2, 7761, Note_on_c, 0, 45, 0
2, 7779, Note_on_c, 0, 61, 0
2, 7822, Note_on_c, 0, 45, 78
2, 7822, Note_on_c, 0, 66, 80
2, 7822, Note_on_c, 0, 57, 70
2, 7822, Note_on_c, 0, 61, 72
2, 7823, Note_on_c, 0, 33, 65
2, 7853, Note_on_c, 0, 45, 0
2, 7858, Note_on_c, 0, 57, 0
2, 7864, Control_c, 0, 64, 127
2, 7956, Note_on_c, 0, 66, 0
2, 7964, Note_on_c, 0, 61, 0
2, 7966, Note_on_c, 0, 66, 78
2, 7969, Note_on_c, 0, 57, 67
2, 7975, Note_on_c, 0, 61, 64
2, 7975, Note_on_c, 0, 45, 61
2, 8011, Control_c, 0, 64, 0
2, 8014, Note_on_c, 0, 45, 0
2, 8017, Note_on_c, 0, 33, 0
2, 8021, Note_on_c, 0, 61, 0
2, 8029, Note_on_c, 0, 57, 0
2, 8057, Note_on_c, 0, 66, 0
2, 8295, Note_on_c, 0, 64, 82
2, 8298, Note_on_c, 0, 61, 81
2, 8298, Note_on_c, 0, 57, 77
2, 8300, Note_on_c, 0, 45, 75
2, 8304, Note_on_c, 0, 33, 61
2, 8305, Note_on_c, 0, 69, 71
2, 8309, Note_on_c, 0, 69, 0
2, 8355, Note_on_c, 0, 57, 0
2, 8366, Note_on_c, 0, 61, 0
2, 8367, Note_on_c, 0, 64, 0
2, 8394, Note_on_c, 0, 45, 0
2, 8401, Note_on_c, 0, 33, 0
2, 8604, Note_on_c, 0, 73, 93
2, 8606, Note_on_c, 0, 68, 77
2, 8607, Note_on_c, 0, 64, 72
2, 8612, Note_on_c, 0, 45, 70
2, 8614, Note_on_c, 0, 33, 63
2, 8619, Note_on_c, 0, 61, 58
2, 8709, Control_c, 0, 64, 127
2, 9037, Control_c, 0, 64, 0
2, 9037, Note_on_c, 0, 68, 0
2, 9038, Note_on_c, 0, 45, 0
2, 9038, Note_on_c, 0, 64, 0
2, 9038, Note_on_c, 0, 73, 0
2, 9047, Note_on_c, 0, 33, 0
2, 9054, Note_on_c, 0, 61, 0
2, 9083, Note_on_c, 0, 68, 87
2, 9096, Note_on_c, 0, 57, 74
2, 9097, Note_on_c, 0, 61, 72
2, 9102, Note_on_c, 0, 45, 72
2, 9104, Note_on_c, 0, 33, 66
2, 9154, Control_c, 0, 64, 127
2, 9231, Note_on_c, 0, 68, 0
2, 9237, Note_on_c, 0, 68, 91
2, 9239, Note_on_c, 0, 45, 0
2, 9239, Note_on_c, 0, 57, 0
2, 9239, Note_on_c, 0, 61, 0
2, 9243, Note_on_c, 0, 57, 71
2, 9244, Note_on_c, 0, 61, 75
2, 9248, Note_on_c, 0, 45, 67
2, 9327, Control_c, 0, 64, 0
2, 9327, Note_on_c, 0, 68, 0
2, 9327, Note_on_c, 0, 45, 0
2, 9327, Note_on_c, 0, 57, 0
2, 9327, Note_on_c, 0, 61, 0
2, 9338, Note_on_c, 0, 33, 0
2, 9388, Note_on_c, 0, 66, 81
2, 9389, Note_on_c, 0, 57, 71
2, 9389, Note_on_c, 0, 45, 77
2, 9390, Note_on_c, 0, 61, 76
2, 9393, Note_on_c, 0, 33, 67
2, 9423, Control_c, 0, 64, 127
2, 9530, Note_on_c, 0, 66, 0
2, 9536, Note_on_c, 0, 66, 77
2, 9538, Note_on_c, 0, 57, 0
2, 9538, Note_on_c, 0, 61, 0
2, 9547, Note_on_c, 0, 61, 70
2, 9549, Note_on_c, 0, 57, 77
2, 9584, Control_c, 0, 64, 0
2, 9589, Note_on_c, 0, 45, 0
2, 9592, Note_on_c, 0, 33, 0
2, 9596, Note_on_c, 0, 61, 0
2, 9597, Note_on_c, 0, 57, 0
2, 9629, Note_on_c, 0, 66, 0
2, 10026, Note_on_c, 0, 68, 83
2, 10030, Control_c, 0, 64, 127
2, 10033, Note_on_c, 0, 57, 71
2, 10035, Note_on_c, 0, 45, 72
2, 10038, Note_on_c, 0, 33, 67
2, 10040, Note_on_c, 0, 61, 63
2, 10160, Note_on_c, 0, 57, 0
2, 10160, Note_on_c, 0, 61, 0
2, 10160, Note_on_c, 0, 68, 0
2, 10164, Note_on_c, 0, 68, 85
2, 10165, Note_on_c, 0, 57, 70
2, 10166, Note_on_c, 0, 61, 74
2, 10214, Note_on_c, 0, 45, 0
2, 10214, Note_on_c, 0, 57, 0
2, 10222, Note_on_c, 0, 61, 0
2, 10225, Note_on_c, 0, 68, 0
2, 10225, Note_on_c, 0, 45, 69
2, 10225, Note_on_c, 0, 57, 73
2, 10225, Note_on_c, 0, 33, 0
2, 10226, Note_on_c, 0, 61, 76
2, 10230, Control_c, 0, 64, 0
2, 10268, Note_on_c, 0, 45, 0
2, 10268, Note_on_c, 0, 57, 0
2, 10268, Note_on_c, 0, 61, 0
2, 10312, Note_on_c, 0, 66, 82
2, 10317, Note_on_c, 0, 45, 79
2, 10317, Note_on_c, 0, 61, 73
2, 10318, Note_on_c, 0, 57, 73
2, 10319, Note_on_c, 0, 33, 65
2, 10360, Control_c, 0, 64, 127
2, 10452, Note_on_c, 0, 66, 0
2, 10460, Note_on_c, 0, 57, 0
2, 10460, Note_on_c, 0, 61, 0
2, 10463, Note_on_c, 0, 66, 77
2, 10468, Note_on_c, 0, 61, 69
2, 10469, Note_on_c, 0, 57, 71
2, 10606, Note_on_c, 0, 57, 0
2, 10606, Note_on_c, 0, 61, 0
2, 10606, Note_on_c, 0, 66, 0
2, 10610, Note_on_c, 0, 66, 79
2, 10611, Note_on_c, 0, 57, 65
2, 10612, Note_on_c, 0, 61, 66
2, 10642, Control_c, 0, 64, 0
2, 10659, Note_on_c, 0, 45, 0
2, 10667, Note_on_c, 0, 33, 0
2, 10675, Note_on_c, 0, 57, 0
2, 10682, Note_on_c, 0, 61, 0
2, 10721, Note_on_c, 0, 66, 0
2, 10753, Note_on_c, 0, 68, 97
2, 10763, Note_on_c, 0, 57, 74
2, 10764, Note_on_c, 0, 61, 71
2, 10769, Note_on_c, 0, 45, 80
2, 10771, Note_on_c, 0, 33, 73
2, 10808, Note_on_c, 0, 57, 0
2, 10812, Note_on_c, 0, 33, 0
2, 10816, Note_on_c, 0, 61, 0
2, 10839, Note_on_c, 0, 68, 0
2, 10844, Note_on_c, 0, 45, 0
2, 11070, Note_on_c, 0, 69, 89
2, 11075, Note_on_c, 0, 57, 80
2, 11076, Note_on_c, 0, 64, 78
2, 11076, Note_on_c, 0, 61, 79
2, 11081, Note_on_c, 0, 45, 76
2, 11085, Note_on_c, 0, 33, 62
2, 11089, Control_c, 0, 64, 127
2, 11750, Note_on_c, 0, 45, 0
2, 11756, Note_on_c, 0, 45, 63
2, 11905, Control_c, 0, 64, 0
2, 11907, Note_on_c, 0, 61, 0
2, 11907, Note_on_c, 0, 69, 0
2, 11907, Note_on_c, 0, 57, 0
2, 11908, Note_on_c, 0, 64, 0
2, 11908, Note_on_c, 0, 45, 0
2, 11911, Note_on_c, 0, 33, 0
2, 12186, Note_on_c, 0, 45, 66
2, 12228, Note_on_c, 0, 40, 60
2, 12271, Note_on_c, 0, 33, 68
2, 12311, Note_on_c, 0, 45, 0
2, 12334, Note_on_c, 0, 40, 0
2, 12444, Note_on_c, 0, 40, 60
2, 12558, Note_on_c, 0, 49, 76
2, 12567, Note_on_c, 0, 45, 58
2, 12733, Note_on_c, 0, 45, 0
2, 12743, Note_on_c, 0, 45, 57
2, 12848, Note_on_c, 0, 40, 0
2, 12859, Note_on_c, 0, 40, 49
2, 12887, Control_c, 0, 64, 127
2, 13017, Note_on_c, 0, 45, 0
2, 13024, Note_on_c, 0, 45, 62
2, 13029, Note_on_c, 0, 51, 83
2, 13107, Control_c, 0, 64, 0
2, 13112, Note_on_c, 0, 49, 0
2, 13128, Note_on_c, 0, 40, 0
2, 13163, Note_on_c, 0, 33, 0
2, 13168, Note_on_c, 0, 33, 56
2, 13294, Control_c, 0, 64, 127
2, 13319, Note_on_c, 0, 40, 56
2, 13416, Note_on_c, 0, 45, 0
2, 13421, Note_on_c, 0, 45, 60
2, 13499, Note_on_c, 0, 52, 82
2, 13543, Note_on_c, 0, 51, 0
2, 13639, Note_on_c, 0, 33, 0
2, 13647, Note_on_c, 0, 33, 55
2, 13777, Note_on_c, 0, 40, 0
2, 13788, Note_on_c, 0, 40, 60
2, 13939, Note_on_c, 0, 45, 0
2, 13950, Note_on_c, 0, 45, 62
2, 13964, Note_on_c, 0, 54, 85
2, 14071, Control_c, 0, 64, 0
2, 14085, Note_on_c, 0, 33, 0
2, 14091, Note_on_c, 0, 33, 52
2, 14154, Control_c, 0, 64, 127
2, 14192, Note_on_c, 0, 52, 0
2, 14208, Note_on_c, 0, 40, 0
2, 14214, Note_on_c, 0, 40, 47
2, 14266, Note_on_c, 0, 56, 84
2, 14284, Note_on_c, 0, 45, 0
2, 14295, Note_on_c, 0, 45, 61
2, 14364, Note_on_c, 0, 40, 0
2, 14366, Control_c, 0, 64, 0
2, 14373, Note_on_c, 0, 54, 0
2, 14396, Note_on_c, 0, 45, 0
2, 14397, Note_on_c, 0, 56, 0
2, 14407, Note_on_c, 0, 33, 0
2, 14411, Note_on_c, 0, 57, 84
2, 14412, Note_on_c, 0, 35, 62
2, 14499, Control_c, 0, 64, 127
2, 14551, Note_on_c, 0, 42, 73
2, 14551, Note_on_c, 0, 59, 80
2, 14634, Control_c, 0, 64, 0
2, 14641, Note_on_c, 0, 42, 0
2, 14642, Note_on_c, 0, 57, 0
2, 14643, Note_on_c, 0, 59, 0
2, 14661, Note_on_c, 0, 35, 0
2, 14695, Note_on_c, 0, 37, 72
2, 14807, Control_c, 0, 64, 127
2, 14859, Note_on_c, 0, 44, 73
2, 14963, Note_on_c, 0, 52, 70
2, 15014, Note_on_c, 0, 64, 93
2, 15017, Note_on_c, 0, 56, 83
2, 15168, Note_on_c, 0, 37, 0
2, 15173, Note_on_c, 0, 37, 58
2, 15298, Note_on_c, 0, 44, 0
2, 15304, Note_on_c, 0, 44, 62
2, 15452, Note_on_c, 0, 52, 0
2, 15459, Note_on_c, 0, 52, 76
2, 15465, Note_on_c, 0, 63, 90
2, 15563, Control_c, 0, 64, 0
2, 15564, Note_on_c, 0, 52, 0
2, 15564, Note_on_c, 0, 56, 0
2, 15565, Note_on_c, 0, 64, 0
2, 15613, Note_on_c, 0, 37, 0
2, 15618, Note_on_c, 0, 37, 56
2, 15659, Control_c, 0, 64, 127
2, 15759, Note_on_c, 0, 44, 0
2, 15766, Note_on_c, 0, 44, 75
2, 15863, Note_on_c, 0, 52, 73
2, 15924, Note_on_c, 0, 59, 83
2, 15933, Note_on_c, 0, 56, 79
2, 16081, Note_on_c, 0, 37, 0
2, 16089, Note_on_c, 0, 37, 52
2, 16204, Note_on_c, 0, 44, 0
2, 16216, Note_on_c, 0, 44, 64
2, 16366, Note_on_c, 0, 52, 0
2, 16375, Note_on_c, 0, 52, 68
2, 16384, Note_on_c, 0, 61, 89
2, 16527, Note_on_c, 0, 37, 0
2, 16531, Note_on_c, 0, 37, 63
2, 16642, Note_on_c, 0, 44, 0
2, 16653, Note_on_c, 0, 44, 71
2, 16673, Note_on_c, 0, 63, 0
2, 16679, Note_on_c, 0, 63, 87
2, 16815, Control_c, 0, 64, 0
2, 16815, Note_on_c, 0, 37, 0
2, 16816, Note_on_c, 0, 52, 0
2, 16817, Note_on_c, 0, 61, 0
2, 16817, Note_on_c, 0, 64, 91
2, 16818, Note_on_c, 0, 56, 0
2, 16818, Note_on_c, 0, 59, 0
2, 16818, Note_on_c, 0, 63, 0
2, 16821, Note_on_c, 0, 35, 66
2, 16834, Note_on_c, 0, 44, 0
2, 16880, Control_c, 0, 64, 127
2, 16965, Note_on_c, 0, 42, 82
2, 16968, Note_on_c, 0, 66, 95
2, 17053, Note_on_c, 0, 35, 0
2, 17054, Note_on_c, 0, 64, 0
2, 17054, Note_on_c, 0, 42, 0
2, 17056, Control_c, 0, 64, 0
2, 17098, Note_on_c, 0, 66, 0
2, 17115, Note_on_c, 0, 33, 67
2, 17226, Control_c, 0, 64, 127
2, 17274, Note_on_c, 0, 40, 63
2, 17382, Note_on_c, 0, 45, 72
2, 17418, Note_on_c, 0, 68, 96
2, 17427, Note_on_c, 0, 64, 84
2, 17430, Note_on_c, 0, 61, 79
2, 17710, Note_on_c, 0, 40, 0
2, 17721, Note_on_c, 0, 40, 59
2, 17863, Note_on_c, 0, 45, 0
2, 17871, Note_on_c, 0, 66, 88
2, 17874, Note_on_c, 0, 45, 69
2, 17894, Note_on_c, 0, 61, 0
2, 17902, Note_on_c, 0, 61, 46
2, 18009, Note_on_c, 0, 33, 0
2, 18017, Note_on_c, 0, 33, 67
2, 18163, Note_on_c, 0, 40, 0
2, 18174, Note_on_c, 0, 40, 72
2, 18265, Control_c, 0, 64, 0
2, 18270, Note_on_c, 0, 33, 0
2, 18277, Note_on_c, 0, 33, 66
2, 18309, Note_on_c, 0, 64, 0
2, 18313, Note_on_c, 0, 64, 90
2, 18316, Note_on_c, 0, 61, 0
2, 18316, Control_c, 0, 64, 127
2, 18323, Note_on_c, 0, 61, 88
2, 18329, Note_on_c, 0, 57, 78
2, 18339, Note_on_c, 0, 45, 0
2, 18343, Note_on_c, 0, 45, 67
2, 18439, Note_on_c, 0, 68, 0
2, 18624, Note_on_c, 0, 40, 0
2, 18628, Note_on_c, 0, 40, 63
2, 18746, Note_on_c, 0, 45, 0
2, 18757, Note_on_c, 0, 45, 74
2, 18764, Note_on_c, 0, 71, 89
2, 18900, Note_on_c, 0, 33, 0
2, 18907, Note_on_c, 0, 33, 71
2, 19031, Note_on_c, 0, 40, 0
2, 19042, Note_on_c, 0, 40, 65
2, 19074, Note_on_c, 0, 68, 96
2, 19175, Control_c, 0, 64, 0
2, 19179, Note_on_c, 0, 61, 0
2, 19179, Note_on_c, 0, 71, 0
2, 19179, Note_on_c, 0, 57, 0
2, 19179, Note_on_c, 0, 64, 0
2, 19184, Note_on_c, 0, 33, 0
2, 19184, Note_on_c, 0, 45, 0
2, 19184, Note_on_c, 0, 66, 0
2, 19200, Note_on_c, 0, 40, 0
2, 19214, Note_on_c, 0, 35, 72
2, 19219, Note_on_c, 0, 69, 92
2, 19246, Control_c, 0, 64, 127
2, 19355, Note_on_c, 0, 42, 82
2, 19368, Note_on_c, 0, 69, 0
2, 19372, Note_on_c, 0, 71, 90
2, 19376, Note_on_c, 0, 69, 64
2, 19444, Control_c, 0, 64, 0
2, 19449, Note_on_c, 0, 35, 0
2, 19449, Note_on_c, 0, 69, 0
2, 19450, Note_on_c, 0, 42, 0
2, 19468, Note_on_c, 0, 68, 0
2, 19509, Note_on_c, 0, 37, 78
2, 19537, Note_on_c, 0, 71, 0
2, 19584, Control_c, 0, 64, 127
2, 19673, Note_on_c, 0, 44, 74
2, 19763, Note_on_c, 0, 52, 78
2, 19822, Note_on_c, 0, 44, 0
2, 19825, Note_on_c, 0, 76, 100
2, 19830, Note_on_c, 0, 68, 88
2, 19832, Note_on_c, 0, 44, 67
2, 19833, Note_on_c, 0, 71, 83
2, 19975, Note_on_c, 0, 37, 0
2, 19984, Note_on_c, 0, 37, 72
2, 20106, Note_on_c, 0, 44, 0
2, 20110, Note_on_c, 0, 44, 69
2, 20244, Note_on_c, 0, 52, 0
2, 20248, Note_on_c, 0, 52, 75
2, 20267, Note_on_c, 0, 68, 0
2, 20267, Note_on_c, 0, 71, 0
2, 20271, Note_on_c, 0, 75, 99
2, 20274, Note_on_c, 0, 71, 80
2, 20277, Note_on_c, 0, 68, 89
2, 20278, Note_on_c, 0, 63, 88
2, 20421, Note_on_c, 0, 37, 0
2, 20426, Note_on_c, 0, 37, 70
2, 20582, Note_on_c, 0, 44, 0
2, 20587, Note_on_c, 0, 44, 69
2, 20682, Note_on_c, 0, 52, 0
2, 20689, Note_on_c, 0, 52, 76
2, 20717, Note_on_c, 0, 75, 0
2, 20719, Note_on_c, 0, 37, 0
2, 20719, Note_on_c, 0, 63, 0
2, 20721, Note_on_c, 0, 76, 0
2, 20725, Control_c, 0, 64, 0
2, 20728, Note_on_c, 0, 68, 0
2, 20728, Note_on_c, 0, 71, 0
2, 20734, Note_on_c, 0, 71, 93
2, 20739, Note_on_c, 0, 68, 90
2, 20739, Note_on_c, 0, 64, 87
2, 20739, Note_on_c, 0, 59, 82
2, 20797, Control_c, 0, 64, 127
2, 20893, Note_on_c, 0, 37, 66
2, 21027, Note_on_c, 0, 44, 0
2, 21038, Note_on_c, 0, 44, 63
2, 21120, Note_on_c, 0, 52, 0
2, 21130, Note_on_c, 0, 52, 67
2, 21172, Note_on_c, 0, 73, 103
2, 21176, Note_on_c, 0, 61, 91
2, 21319, Note_on_c, 0, 37, 0
2, 21326, Note_on_c, 0, 37, 69
2, 21450, Note_on_c, 0, 44, 0
2, 21454, Note_on_c, 0, 44, 75
2, 21473, Note_on_c, 0, 52, 0
2, 21476, Note_on_c, 0, 75, 99
2, 21477, Note_on_c, 0, 63, 90
2, 21482, Note_on_c, 0, 52, 76
2, 21619, Note_on_c, 0, 64, 0
2, 21627, Note_on_c, 0, 76, 102
2, 21628, Note_on_c, 0, 35, 67
2, 21630, Note_on_c, 0, 64, 92
2, 21634, Note_on_c, 0, 35, 0
2, 21761, Note_on_c, 0, 42, 80
2, 21762, Note_on_c, 0, 78, 103
2, 21763, Note_on_c, 0, 66, 90
2, 21885, Note_on_c, 0, 75, 0
2, 21885, Note_on_c, 0, 68, 0
2, 21885, Note_on_c, 0, 63, 0
2, 21885, Note_on_c, 0, 66, 0
2, 21886, Control_c, 0, 64, 0
2, 21886, Note_on_c, 0, 73, 0
2, 21886, Note_on_c, 0, 37, 0
2, 21886, Note_on_c, 0, 61, 0
2, 21887, Note_on_c, 0, 78, 0
2, 21889, Note_on_c, 0, 59, 0
2, 21895, Note_on_c, 0, 42, 0
2, 21895, Note_on_c, 0, 44, 0
2, 21895, Note_on_c, 0, 52, 0
2, 21903, Note_on_c, 0, 64, 0
2, 21903, Note_on_c, 0, 76, 0
2, 21907, Note_on_c, 0, 83, 102
2, 21908, Note_on_c, 0, 76, 97
2, 21911, Note_on_c, 0, 71, 0
2, 21914, Note_on_c, 0, 33, 84
2, 21914, Note_on_c, 0, 73, 96
2, 21915, Note_on_c, 0, 71, 92
2, 21953, Note_on_c, 0, 33, 0
2, 21987, Control_c, 0, 64, 127
2, 22076, Note_on_c, 0, 45, 72
2, 22158, Note_on_c, 0, 52, 71
2, 22226, Note_on_c, 0, 56, 96
2, 22364, Note_on_c, 0, 45, 0
2, 22368, Note_on_c, 0, 45, 72
2, 22479, Note_on_c, 0, 52, 0
2, 22483, Note_on_c, 0, 52, 64
2, 22699, Note_on_c, 0, 54, 95
2, 22817, Note_on_c, 0, 45, 0
2, 22823, Note_on_c, 0, 45, 70
2, 22924, Note_on_c, 0, 52, 0
2, 22936, Note_on_c, 0, 52, 64
2, 23001, Note_on_c, 0, 45, 0
2, 23006, Note_on_c, 0, 45, 71
2, 23139, Note_on_c, 0, 52, 0
2, 23146, Note_on_c, 0, 52, 86
2, 23247, Note_on_c, 0, 45, 0
2, 23252, Note_on_c, 0, 45, 73
2, 23362, Note_on_c, 0, 52, 0
2, 23366, Note_on_c, 0, 52, 70
2, 23485, Note_on_c, 0, 45, 0
2, 23493, Note_on_c, 0, 45, 63
2, 23609, Note_on_c, 0, 59, 82
2, 23746, Note_on_c, 0, 45, 0
2, 23746, Note_on_c, 0, 76, 0
2, 23746, Note_on_c, 0, 83, 0
2, 23751, Note_on_c, 0, 45, 84
2, 23752, Note_on_c, 0, 88, 101
2, 23757, Note_on_c, 0, 76, 92
2, 23757, Note_on_c, 0, 83, 86
2, 23757, Note_on_c, 0, 80, 88
2, 23900, Note_on_c, 0, 52, 0
2, 23900, Note_on_c, 0, 80, 0
2, 23900, Note_on_c, 0, 83, 0
2, 23906, Note_on_c, 0, 80, 90
2, 23910, Note_on_c, 0, 52, 78
2, 23910, Note_on_c, 0, 83, 92
2, 23911, Note_on_c, 0, 87, 100
2, 23913, Note_on_c, 0, 75, 87
2, 24012, Note_on_c, 0, 54, 0
2, 24012, Note_on_c, 0, 56, 0
2, 24013, Note_on_c, 0, 52, 0
2, 24013, Note_on_c, 0, 73, 0
2, 24013, Note_on_c, 0, 88, 0
2, 24013, Note_on_c, 0, 45, 0
2, 24013, Note_on_c, 0, 59, 0
2, 24013, Note_on_c, 0, 76, 0
2, 24014, Control_c, 0, 64, 0
2, 24023, Note_on_c, 0, 71, 0
2, 24042, Note_on_c, 0, 47, 85
2, 24076, Control_c, 0, 64, 127
2, 24171, Note_on_c, 0, 54, 89
2, 24192, Note_on_c, 0, 83, 0
2, 24192, Note_on_c, 0, 87, 0
2, 24196, Note_on_c, 0, 76, 92
2, 24197, Note_on_c, 0, 83, 100
2, 24200, Note_on_c, 0, 73, 93
2, 24203, Note_on_c, 0, 71, 87
2, 24303, Note_on_c, 0, 47, 0
2, 24303, Control_c, 0, 64, 0
2, 24305, Note_on_c, 0, 54, 0
2, 24314, Note_on_c, 0, 75, 0
2, 24337, Note_on_c, 0, 37, 82
2, 24368, Control_c, 0, 64, 127
2, 24510, Note_on_c, 0, 49, 66
2, 24588, Note_on_c, 0, 56, 70
2, 24652, Note_on_c, 0, 64, 96
2, 24783, Note_on_c, 0, 49, 0
2, 24787, Note_on_c, 0, 49, 82
2, 24883, Note_on_c, 0, 56, 0
2, 24888, Note_on_c, 0, 56, 77
2, 24952, Note_on_c, 0, 49, 0
2, 24961, Note_on_c, 0, 49, 69
2, 25090, Note_on_c, 0, 80, 0
2, 25097, Note_on_c, 0, 80, 101
2, 25098, Note_on_c, 0, 49, 0
2, 25098, Note_on_c, 0, 64, 0
2, 25098, Note_on_c, 0, 73, 0
2, 25098, Note_on_c, 0, 76, 0
2, 25103, Note_on_c, 0, 73, 92
2, 25106, Note_on_c, 0, 49, 70
2, 25106, Note_on_c, 0, 68, 94
2, 25107, Note_on_c, 0, 76, 81
2, 25108, Note_on_c, 0, 64, 79
2, 25228, Note_on_c, 0, 49, 0
2, 25239, Note_on_c, 0, 49, 66
2, 25336, Note_on_c, 0, 56, 0
2, 25340, Note_on_c, 0, 56, 67
2, 25394, Note_on_c, 0, 81, 97
2, 25397, Note_on_c, 0, 73, 0
2, 25397, Note_on_c, 0, 76, 0
2, 25401, Note_on_c, 0, 69, 83
2, 25402, Note_on_c, 0, 76, 84
2, 25405, Note_on_c, 0, 49, 0
2, 25405, Note_on_c, 0, 73, 87
2, 25410, Note_on_c, 0, 49, 65
2, 25541, Note_on_c, 0, 59, 83
2, 25666, Note_on_c, 0, 49, 0
2, 25671, Note_on_c, 0, 49, 81
2, 25681, Note_on_c, 0, 83, 0
2, 25689, Note_on_c, 0, 71, 0
2, 25689, Note_on_c, 0, 73, 0
2, 25689, Note_on_c, 0, 76, 0
2, 25691, Note_on_c, 0, 83, 100
2, 25697, Note_on_c, 0, 68, 0
2, 25698, Note_on_c, 0, 71, 79
2, 25699, Note_on_c, 0, 76, 80
2, 25700, Note_on_c, 0, 73, 89
2, 25701, Note_on_c, 0, 68, 73
2, 25873, Note_on_c, 0, 49, 0
2, 25880, Note_on_c, 0, 49, 63
2, 25981, Note_on_c, 0, 81, 0
2, 25989, Note_on_c, 0, 69, 0
2, 25989, Note_on_c, 0, 73, 0
2, 25989, Note_on_c, 0, 76, 0
2, 25992, Note_on_c, 0, 81, 99
2, 25997, Note_on_c, 0, 69, 87
2, 25998, Note_on_c, 0, 76, 90
2, 25999, Note_on_c, 0, 73, 97
2, 26000, Note_on_c, 0, 61, 90
2, 26025, Note_on_c, 0, 59, 0
2, 26127, Note_on_c, 0, 49, 0
2, 26137, Note_on_c, 0, 49, 82
2, 26265, Note_on_c, 0, 56, 0
2, 26276, Note_on_c, 0, 56, 76
2, 26296, Note_on_c, 0, 68, 0
2, 26296, Note_on_c, 0, 76, 0
2, 26296, Note_on_c, 0, 80, 0
2, 26301, Note_on_c, 0, 80, 99
2, 26304, Note_on_c, 0, 73, 0
2, 26306, Note_on_c, 0, 68, 97
2, 26307, Note_on_c, 0, 76, 88
2, 26310, Note_on_c, 0, 73, 94
2, 26415, Note_on_c, 0, 81, 0
2, 26415, Note_on_c, 0, 83, 0
2, 26415, Note_on_c, 0, 49, 0
2, 26416, Note_on_c, 0, 69, 0
2, 26416, Note_on_c, 0, 64, 0
2, 26416, Note_on_c, 0, 71, 0
2, 26417, Control_c, 0, 64, 0
2, 26426, Note_on_c, 0, 37, 0
2, 26434, Note_on_c, 0, 61, 0
2, 26440, Note_on_c, 0, 35, 77
2, 26442, Note_on_c, 0, 56, 0
2, 26480, Control_c, 0, 64, 127
2, 26585, Note_on_c, 0, 47, 82
2, 26590, Note_on_c, 0, 78, 98
2, 26591, Note_on_c, 0, 66, 94
2, 26709, Control_c, 0, 64, 0
2, 26711, Note_on_c, 0, 68, 0
2, 26713, Note_on_c, 0, 66, 0
2, 26713, Note_on_c, 0, 47, 0
2, 26714, Note_on_c, 0, 78, 0
2, 26718, Note_on_c, 0, 73, 0
2, 26718, Note_on_c, 0, 76, 0
2, 26726, Note_on_c, 0, 35, 0
2, 26726, Note_on_c, 0, 80, 0
2, 26751, Note_on_c, 0, 80, 104
2, 26753, Note_on_c, 0, 33, 83
2, 26753, Note_on_c, 0, 76, 85
2, 26754, Note_on_c, 0, 73, 94
2, 26756, Note_on_c, 0, 68, 96
2, 26772, Control_c, 0, 64, 127
2, 26893, Note_on_c, 0, 45, 68
2, 26999, Note_on_c, 0, 52, 66
2, 27053, Note_on_c, 0, 56, 87
2, 27187, Note_on_c, 0, 45, 0
2, 27193, Note_on_c, 0, 45, 69
2, 27302, Note_on_c, 0, 52, 0
2, 27307, Note_on_c, 0, 52, 58
2, 27510, Note_on_c, 0, 54, 92
2, 27632, Note_on_c, 0, 45, 0
2, 27636, Note_on_c, 0, 45, 74
2, 27740, Note_on_c, 0, 52, 0
2, 27748, Note_on_c, 0, 52, 71
2, 27809, Note_on_c, 0, 45, 0
2, 27816, Note_on_c, 0, 45, 66
2, 27947, Note_on_c, 0, 52, 0
2, 27958, Note_on_c, 0, 52, 93
2, 28062, Note_on_c, 0, 45, 0
2, 28072, Note_on_c, 0, 45, 85
2, 28200, Note_on_c, 0, 52, 0
2, 28205, Note_on_c, 0, 52, 68
2, 28331, Note_on_c, 0, 45, 0
2, 28342, Note_on_c, 0, 45, 59
2, 28391, Note_on_c, 0, 59, 83
2, 28531, Note_on_c, 0, 73, 0
2, 28531, Note_on_c, 0, 76, 0
2, 28535, Note_on_c, 0, 83, 100
2, 28539, Control_c, 0, 64, 0
2, 28542, Note_on_c, 0, 76, 91
2, 28542, Note_on_c, 0, 73, 95
2, 28547, Note_on_c, 0, 71, 91
2, 28554, Note_on_c, 0, 45, 0
2, 28560, Note_on_c, 0, 45, 83
2, 28569, Control_c, 0, 64, 127
2, 28684, Note_on_c, 0, 56, 0
2, 28693, Note_on_c, 0, 56, 85
2, 28800, Note_on_c, 0, 33, 0
2, 28800, Note_on_c, 0, 68, 0
2, 28800, Note_on_c, 0, 80, 0
2, 28824, Note_on_c, 0, 45, 0
2, 28824, Note_on_c, 0, 59, 0
2, 28825, Note_on_c, 0, 71, 0
2, 28826, Control_c, 0, 64, 0
2, 28830, Note_on_c, 0, 54, 0
2, 28838, Note_on_c, 0, 52, 0
2, 28841, Note_on_c, 0, 57, 94
2, 28842, Note_on_c, 0, 47, 83
2, 28845, Note_on_c, 0, 69, 77
2, 28846, Note_on_c, 0, 56, 0
2, 28853, Note_on_c, 0, 69, 0
2, 28884, Control_c, 0, 64, 127
2, 28899, Note_on_c, 0, 73, 0
2, 28995, Note_on_c, 0, 59, 85
2, 29118, Control_c, 0, 64, 0
2, 29118, Note_on_c, 0, 57, 0
2, 29119, Note_on_c, 0, 47, 0
2, 29119, Note_on_c, 0, 59, 0
2, 29130, Note_on_c, 0, 76, 0
2, 29153, Note_on_c, 0, 83, 0
2, 29153, Note_on_c, 0, 87, 104
2, 29153, Note_on_c, 0, 80, 90
2, 29156, Note_on_c, 0, 75, 90
2, 29158, Note_on_c, 0, 83, 88
2, 29159, Note_on_c, 0, 40, 82
2, 29191, Control_c, 0, 64, 127
2, 29298, Note_on_c, 0, 52, 70
2, 29402, Note_on_c, 0, 59, 68
2, 29460, Note_on_c, 0, 64, 82
2, 29591, Note_on_c, 0, 52, 0
2, 29598, Note_on_c, 0, 80, 0
2, 29598, Note_on_c, 0, 83, 0
2, 29599, Note_on_c, 0, 88, 103
2, 29601, Note_on_c, 0, 52, 86
2, 29602, Note_on_c, 0, 80, 88
2, 29603, Note_on_c, 0, 76, 88
2, 29605, Note_on_c, 0, 83, 80
2, 29706, Note_on_c, 0, 59, 0
2, 29716, Note_on_c, 0, 59, 74
2, 29775, Note_on_c, 0, 52, 0
2, 29782, Note_on_c, 0, 52, 74
2, 29882, Note_on_c, 0, 66, 90
2, 30036, Note_on_c, 0, 52, 0
2, 30036, Note_on_c, 0, 88, 0
2, 30044, Note_on_c, 0, 76, 0
2, 30044, Note_on_c, 0, 80, 0
2, 30044, Note_on_c, 0, 83, 0
2, 30046, Note_on_c, 0, 88, 102
2, 30047, Note_on_c, 0, 52, 78
2, 30048, Note_on_c, 0, 80, 90
2, 30052, Note_on_c, 0, 76, 90
2, 30053, Note_on_c, 0, 83, 84
2, 30120, Note_on_c, 0, 59, 0
2, 30131, Note_on_c, 0, 59, 64
2, 30220, Note_on_c, 0, 52, 0
2, 30229, Note_on_c, 0, 52, 69
2, 30363, Note_on_c, 0, 68, 98
2, 30489, Note_on_c, 0, 52, 0
2, 30499, Note_on_c, 0, 52, 66
2, 30558, Note_on_c, 0, 59, 0
2, 30568, Note_on_c, 0, 59, 69
2, 30658, Note_on_c, 0, 52, 0
2, 30668, Note_on_c, 0, 52, 78
2, 30804, Note_on_c, 0, 64, 0
2, 30814, Note_on_c, 0, 64, 81
2, 30818, Note_on_c, 0, 69, 84
2, 30839, Note_on_c, 0, 66, 0
2, 30839, Control_c, 0, 64, 0
2, 30839, Note_on_c, 0, 40, 0
2, 30840, Note_on_c, 0, 87, 0
2, 30840, Note_on_c, 0, 83, 0
2, 30841, Note_on_c, 0, 80, 0
2, 30841, Note_on_c, 0, 68, 0
2, 30841, Note_on_c, 0, 88, 0
2, 30842, Note_on_c, 0, 76, 0
2, 30842, Note_on_c, 0, 75, 0
2, 30858, Note_on_c, 0, 59, 0
2, 30919, Control_c, 0, 64, 127
2, 30960, Note_on_c, 0, 59, 74
2, 30964, Note_on_c, 0, 71, 80
2, 31104, Note_on_c, 0, 52, 0
2, 31114, Note_on_c, 0, 52, 74
2, 31116, Note_on_c, 0, 73, 87
2, 31261, Note_on_c, 0, 76, 83
2, 31266, Note_on_c, 0, 47, 63
2, 31399, Note_on_c, 0, 40, 54
2, 31404, Note_on_c, 0, 78, 86
2, 31544, Note_on_c, 0, 52, 0
2, 31544, Note_on_c, 0, 64, 0
2, 31544, Note_on_c, 0, 47, 0
2, 31545, Note_on_c, 0, 40, 0
2, 31545, Note_on_c, 0, 59, 0
2, 31545, Note_on_c, 0, 69, 0
2, 31545, Note_on_c, 0, 78, 0
2, 31545, Note_on_c, 0, 73, 0
2, 31546, Control_c, 0, 64, 0
2, 31553, Note_on_c, 0, 83, 93
2, 31557, Note_on_c, 0, 71, 0
2, 31557, Note_on_c, 0, 76, 0
2, 31561, Note_on_c, 0, 45, 69
2, 31561, Note_on_c, 0, 71, 75
2, 31562, Note_on_c, 0, 76, 76
2, 31656, Control_c, 0, 64, 127
2, 31707, Note_on_c, 0, 52, 61
2, 31714, Note_on_c, 0, 73, 66
2, 31841, Note_on_c, 0, 76, 0
2, 31849, Note_on_c, 0, 64, 75
2, 31852, Note_on_c, 0, 76, 79
2, 31868, Note_on_c, 0, 61, 64
2, 32002, Note_on_c, 0, 71, 0
2, 32006, Note_on_c, 0, 71, 67
2, 32007, Note_on_c, 0, 57, 65
2, 32056, Note_on_c, 0, 45, 0
2, 32061, Note_on_c, 0, 61, 0
2, 32075, Control_c, 0, 64, 0
2, 32094, Note_on_c, 0, 73, 0
2, 32113, Note_on_c, 0, 57, 0
2, 32117, Note_on_c, 0, 52, 0
2, 32117, Note_on_c, 0, 83, 0
2, 32148, Note_on_c, 0, 64, 0
2, 32153, Note_on_c, 0, 73, 87
2, 32154, Note_on_c, 0, 63, 69
2, 32183, Note_on_c, 0, 59, 54
2, 32186, Note_on_c, 0, 71, 0
2, 32199, Note_on_c, 0, 63, 0
2, 32227, Note_on_c, 0, 59, 0
2, 32320, Note_on_c, 0, 57, 49
2, 32371, Control_c, 0, 64, 127
2, 32432, Note_on_c, 0, 57, 0
2, 32443, Note_on_c, 0, 57, 61
2, 32482, Note_on_c, 0, 71, 72
2, 32595, Note_on_c, 0, 45, 64
2, 32609, Note_on_c, 0, 76, 0
2, 32620, Note_on_c, 0, 76, 78
2, 32759, Note_on_c, 0, 64, 68
2, 32761, Note_on_c, 0, 78, 89
2, 32763, Note_on_c, 0, 61, 67
2, 32771, Note_on_c, 0, 57, 0
2, 32772, Control_c, 0, 64, 0
2, 32773, Note_on_c, 0, 71, 0
2, 32774, Note_on_c, 0, 73, 0
2, 32774, Note_on_c, 0, 45, 0
2, 32777, Note_on_c, 0, 76, 0
2, 32814, Note_on_c, 0, 61, 0
2, 32885, Note_on_c, 0, 64, 0
2, 32905, Note_on_c, 0, 73, 82
2, 32907, Note_on_c, 0, 57, 67
2, 33054, Note_on_c, 0, 57, 0
2, 33065, Note_on_c, 0, 57, 65
2, 33112, Note_on_c, 0, 73, 0
2, 33114, Note_on_c, 0, 57, 0
2, 33197, Note_on_c, 0, 73, 89
2, 33200, Note_on_c, 0, 63, 74
2, 33224, Note_on_c, 0, 59, 61
2, 33243, Note_on_c, 0, 63, 0
2, 33254, Note_on_c, 0, 73, 0
2, 33262, Note_on_c, 0, 73, 86
2, 33308, Control_c, 0, 64, 127
2, 33343, Note_on_c, 0, 76, 81
2, 33365, Note_on_c, 0, 57, 57
2, 33415, Note_on_c, 0, 59, 0
2, 33477, Note_on_c, 0, 57, 0
2, 33481, Note_on_c, 0, 57, 67
2, 33498, Note_on_c, 0, 71, 81
2, 33500, Note_on_c, 0, 78, 0
2, 33532, Control_c, 0, 64, 0
2, 33640, Note_on_c, 0, 59, 70
2, 33641, Note_on_c, 0, 47, 72
2, 33669, Note_on_c, 0, 57, 0
2, 33781, Note_on_c, 0, 59, 0
2, 33782, Note_on_c, 0, 47, 0
2, 33784, Note_on_c, 0, 71, 0
2, 33788, Note_on_c, 0, 54, 72
2, 33788, Note_on_c, 0, 71, 81
2, 33792, Note_on_c, 0, 73, 0
2, 33893, Note_on_c, 0, 54, 0
2, 33899, Note_on_c, 0, 76, 0
2, 33938, Note_on_c, 0, 49, 71
2, 33943, Note_on_c, 0, 73, 93
2, 34060, Control_c, 0, 64, 127
2, 34074, Note_on_c, 0, 56, 70
2, 34237, Note_on_c, 0, 73, 0
2, 34241, Note_on_c, 0, 73, 87
2, 34241, Note_on_c, 0, 64, 75
2, 34242, Note_on_c, 0, 61, 71
2, 34368, Note_on_c, 0, 71, 0
2, 34377, Note_on_c, 0, 71, 78
2, 34391, Note_on_c, 0, 56, 0
2, 34401, Note_on_c, 0, 56, 60
2, 34529, Note_on_c, 0, 73, 0
2, 34532, Note_on_c, 0, 64, 0
2, 34533, Note_on_c, 0, 56, 0
2, 34533, Note_on_c, 0, 61, 0
2, 34533, Control_c, 0, 64, 0
2, 34533, Note_on_c, 0, 49, 0
2, 34534, Note_on_c, 0, 71, 0
2, 34535, Note_on_c, 0, 73, 86
2, 34539, Note_on_c, 0, 63, 76
2, 34547, Note_on_c, 0, 59, 70
2, 34597, Note_on_c, 0, 63, 0
2, 34635, Note_on_c, 0, 59, 0
2, 34694, Note_on_c, 0, 56, 70
2, 34694, Note_on_c, 0, 75, 83
2, 34730, Note_on_c, 0, 56, 0
2, 34790, Note_on_c, 0, 73, 0
2, 34790, Note_on_c, 0, 75, 0
2, 34794, Note_on_c, 0, 73, 68
2, 34794, Note_on_c, 0, 75, 78
2, 34837, Note_on_c, 0, 56, 69
2, 34916, Note_on_c, 0, 56, 0
2, 34978, Note_on_c, 0, 49, 72
2, 34978, Note_on_c, 0, 68, 85
2, 35036, Control_c, 0, 64, 127
2, 35089, Note_on_c, 0, 75, 0
2, 35122, Note_on_c, 0, 64, 75
2, 35125, Note_on_c, 0, 61, 74
2, 35268, Note_on_c, 0, 71, 79
2, 35271, Note_on_c, 0, 56, 73
2, 35397, Note_on_c, 0, 71, 0
2, 35404, Note_on_c, 0, 71, 74
2, 35420, Note_on_c, 0, 68, 0
2, 35420, Note_on_c, 0, 56, 0
2, 35425, Note_on_c, 0, 56, 69
2, 35565, Note_on_c, 0, 49, 0
2, 35567, Control_c, 0, 64, 0
2, 35568, Note_on_c, 0, 61, 0
2, 35568, Note_on_c, 0, 64, 0
2, 35569, Note_on_c, 0, 56, 0
2, 35577, Note_on_c, 0, 63, 74
2, 35578, Note_on_c, 0, 59, 69
2, 35581, Note_on_c, 0, 73, 0
2, 35655, Note_on_c, 0, 63, 0
2, 35712, Note_on_c, 0, 56, 65
2, 35724, Note_on_c, 0, 59, 0
2, 35775, Note_on_c, 0, 56, 0
2, 35875, Note_on_c, 0, 56, 64
2, 35906, Note_on_c, 0, 56, 0
2, 36021, Note_on_c, 0, 59, 70
2, 36022, Note_on_c, 0, 47, 72
2, 36170, Note_on_c, 0, 54, 70
2, 36195, Note_on_c, 0, 59, 0
2, 36252, Note_on_c, 0, 54, 0
2, 36257, Note_on_c, 0, 47, 0
2, 36280, Note_on_c, 0, 71, 0
2, 36321, Note_on_c, 0, 45, 72
2, 36322, Note_on_c, 0, 71, 78
2, 36418, Control_c, 0, 64, 127
2, 36460, Note_on_c, 0, 52, 69
2, 36465, Note_on_c, 0, 73, 81
2, 36614, Note_on_c, 0, 64, 75
2, 36615, Note_on_c, 0, 76, 82
2, 36616, Note_on_c, 0, 61, 75
2, 36756, Note_on_c, 0, 71, 0
2, 36763, Note_on_c, 0, 57, 70
2, 36764, Note_on_c, 0, 71, 71
2, 36892, Control_c, 0, 64, 0
2, 36892, Note_on_c, 0, 71, 0
2, 36892, Note_on_c, 0, 52, 0
2, 36892, Note_on_c, 0, 64, 0
2, 36893, Note_on_c, 0, 61, 0
2, 36893, Note_on_c, 0, 45, 0
2, 36893, Note_on_c, 0, 76, 0
2, 36893, Note_on_c, 0, 57, 0
2, 36902, Note_on_c, 0, 73, 0
2, 36912, Note_on_c, 0, 73, 93
2, 36913, Note_on_c, 0, 63, 69
2, 36936, Note_on_c, 0, 59, 59
2, 36958, Note_on_c, 0, 63, 0
2, 36994, Note_on_c, 0, 59, 0
2, 37058, Note_on_c, 0, 57, 57
2, 37090, Note_on_c, 0, 57, 0
2, 37201, Note_on_c, 0, 57, 61
2, 37212, Note_on_c, 0, 71, 70
2, 37313, Note_on_c, 0, 57, 0
2, 37351, Note_on_c, 0, 45, 69
2, 37362, Note_on_c, 0, 76, 83
2, 37393, Control_c, 0, 64, 127
2, 37504, Note_on_c, 0, 78, 88
2, 37505, Note_on_c, 0, 64, 71
2, 37507, Note_on_c, 0, 61, 70
2, 37647, Note_on_c, 0, 73, 0
2, 37658, Note_on_c, 0, 73, 81
2, 37658, Note_on_c, 0, 57, 72
2, 37800, Note_on_c, 0, 57, 0
2, 37805, Note_on_c, 0, 57, 67
2, 37942, Note_on_c, 0, 61, 0
2, 37943, Note_on_c, 0, 64, 0
2, 37943, Control_c, 0, 64, 0
2, 37943, Note_on_c, 0, 57, 0
2, 37943, Note_on_c, 0, 45, 0
2, 37943, Note_on_c, 0, 73, 0
2, 37944, Note_on_c, 0, 78, 0
2, 37946, Note_on_c, 0, 76, 0
2, 37951, Note_on_c, 0, 63, 74
2, 37954, Note_on_c, 0, 76, 89
2, 37958, Note_on_c, 0, 59, 74
2, 37962, Note_on_c, 0, 71, 0
2, 38012, Note_on_c, 0, 63, 0
2, 38054, Note_on_c, 0, 59, 0
2, 38099, Note_on_c, 0, 78, 89
2, 38101, Note_on_c, 0, 57, 71
2, 38142, Note_on_c, 0, 57, 0
2, 38242, Note_on_c, 0, 57, 71
2, 38249, Note_on_c, 0, 71, 78
2, 38282, Note_on_c, 0, 57, 0
2, 38384, Note_on_c, 0, 71, 0
2, 38389, Note_on_c, 0, 59, 72
2, 38389, Note_on_c, 0, 71, 72
2, 38394, Note_on_c, 0, 47, 72
2, 38423, Control_c, 0, 64, 127
2, 38446, Note_on_c, 0, 76, 0
2, 38530, Note_on_c, 0, 71, 0
2, 38538, Note_on_c, 0, 71, 79
2, 38542, Note_on_c, 0, 54, 72
2, 38642, Control_c, 0, 64, 0
2, 38643, Note_on_c, 0, 47, 0
2, 38644, Note_on_c, 0, 54, 0
2, 38647, Note_on_c, 0, 59, 0
2, 38694, Note_on_c, 0, 76, 88
2, 38695, Note_on_c, 0, 40, 71
2, 38730, Note_on_c, 0, 78, 0
2, 38768, Control_c, 0, 64, 127
2, 38826, Note_on_c, 0, 52, 65
2, 38991, Note_on_c, 0, 76, 0
2, 38993, Note_on_c, 0, 64, 74
2, 38995, Note_on_c, 0, 59, 67
2, 39001, Note_on_c, 0, 76, 81
2, 39144, Note_on_c, 0, 52, 0
2, 39144, Note_on_c, 0, 71, 0
2, 39149, Note_on_c, 0, 52, 62
2, 39149, Note_on_c, 0, 71, 78
2, 39272, Control_c, 0, 64, 0
2, 39285, Note_on_c, 0, 64, 0
2, 39287, Note_on_c, 0, 52, 0
2, 39288, Note_on_c, 0, 71, 0
2, 39290, Note_on_c, 0, 76, 0
2, 39291, Note_on_c, 0, 63, 68
2, 39294, Note_on_c, 0, 76, 88
2, 39298, Note_on_c, 0, 40, 0
2, 39298, Note_on_c, 0, 59, 0
2, 39309, Note_on_c, 0, 59, 66
2, 39347, Note_on_c, 0, 59, 0
2, 39348, Note_on_c, 0, 63, 0
2, 39348, Note_on_c, 0, 76, 0
2, 39441, Note_on_c, 0, 76, 82
2, 39444, Note_on_c, 0, 52, 66
2, 39487, Note_on_c, 0, 52, 0
2, 39591, Note_on_c, 0, 52, 75
2, 39649, Note_on_c, 0, 52, 0
2, 39728, Note_on_c, 0, 76, 0
2, 39733, Note_on_c, 0, 47, 65
2, 39734, Note_on_c, 0, 76, 86
2, 39774, Control_c, 0, 64, 127
2, 39881, Note_on_c, 0, 64, 74
2, 39884, Note_on_c, 0, 59, 69
2, 40035, Note_on_c, 0, 54, 77
2, 40036, Note_on_c, 0, 78, 90
2, 40181, Note_on_c, 0, 54, 0
2, 40185, Note_on_c, 0, 54, 69
2, 40266, Control_c, 0, 64, 0
2, 40267, Note_on_c, 0, 47, 0
2, 40268, Note_on_c, 0, 54, 0
2, 40268, Note_on_c, 0, 64, 0
2, 40268, Note_on_c, 0, 59, 0
2, 40269, Note_on_c, 0, 76, 0
2, 40323, Note_on_c, 0, 63, 77
2, 40330, Note_on_c, 0, 59, 72
2, 40400, Note_on_c, 0, 63, 0
2, 40430, Note_on_c, 0, 59, 0
2, 40481, Note_on_c, 0, 54, 71
2, 40524, Note_on_c, 0, 54, 0
2, 40573, Control_c, 0, 64, 127
2, 40620, Note_on_c, 0, 54, 77
2, 40730, Note_on_c, 0, 54, 0
2, 40734, Control_c, 0, 64, 0
2, 40757, Note_on_c, 0, 78, 0
2, 40767, Note_on_c, 0, 78, 106
2, 40782, Note_on_c, 0, 71, 69
2, 40784, Note_on_c, 0, 59, 78
2, 40785, Note_on_c, 0, 47, 72
2, 40826, Control_c, 0, 64, 127
2, 40917, Note_on_c, 0, 54, 62
2, 41018, Note_on_c, 0, 59, 0
2, 41036, Control_c, 0, 64, 0
2, 41037, Note_on_c, 0, 78, 0
2, 41037, Note_on_c, 0, 54, 0
2, 41041, Note_on_c, 0, 47, 0
2, 41049, Note_on_c, 0, 71, 0
2, 41063, Note_on_c, 0, 80, 101
2, 41073, Note_on_c, 0, 76, 86
2, 41073, Note_on_c, 0, 69, 92
2, 41075, Note_on_c, 0, 45, 88
2, 41075, Note_on_c, 0, 73, 88
2, 41076, Note_on_c, 0, 33, 85
2, 41149, Note_on_c, 0, 33, 0
2, 41180, Note_on_c, 0, 45, 0
2, 41378, Note_on_c, 0, 47, 87
2, 41383, Note_on_c, 0, 35, 81
2, 41528, Note_on_c, 0, 47, 0
2, 41531, Note_on_c, 0, 35, 0
2, 41667, Note_on_c, 0, 45, 90
2, 41667, Note_on_c, 0, 33, 84
2, 41702, Control_c, 0, 64, 127
2, 41840, Note_on_c, 0, 45, 0
2, 41845, Note_on_c, 0, 45, 66
2, 41963, Note_on_c, 0, 45, 0
2, 41966, Note_on_c, 0, 57, 65
2, 41973, Note_on_c, 0, 45, 54
2, 41982, Note_on_c, 0, 49, 59
2, 42090, Control_c, 0, 64, 0
2, 42094, Note_on_c, 0, 33, 0
2, 42094, Note_on_c, 0, 73, 0
2, 42094, Note_on_c, 0, 69, 0
2, 42095, Note_on_c, 0, 49, 0
2, 42095, Note_on_c, 0, 57, 0
2, 42096, Note_on_c, 0, 45, 0
2, 42143, Note_on_c, 0, 47, 70
2, 42143, Note_on_c, 0, 35, 67
2, 42144, Note_on_c, 0, 71, 86
2, 42178, Control_c, 0, 64, 127
2, 42416, Note_on_c, 0, 47, 0
2, 42425, Note_on_c, 0, 47, 69
2, 42432, Note_on_c, 0, 76, 0
2, 42436, Note_on_c, 0, 76, 80
2, 42577, Note_on_c, 0, 76, 0
2, 42585, Note_on_c, 0, 59, 68
2, 42588, Note_on_c, 0, 76, 78
2, 42593, Note_on_c, 0, 59, 0
2, 42594, Note_on_c, 0, 54, 64
2, 42596, Note_on_c, 0, 51, 69
2, 42670, Control_c, 0, 64, 0
2, 42670, Note_on_c, 0, 71, 0
2, 42672, Note_on_c, 0, 47, 0
2, 42673, Note_on_c, 0, 51, 0
2, 42673, Note_on_c, 0, 54, 0
2, 42677, Note_on_c, 0, 35, 0
2, 42735, Note_on_c, 0, 49, 75
2, 42735, Note_on_c, 0, 37, 77
2, 42735, Note_on_c, 0, 71, 81
2, 42800, Control_c, 0, 64, 127
2, 42877, Note_on_c, 0, 76, 0
2, 42884, Note_on_c, 0, 76, 91
2, 43031, Note_on_c, 0, 49, 0
2, 43035, Note_on_c, 0, 78, 101
2, 43037, Note_on_c, 0, 49, 74
2, 43180, Note_on_c, 0, 61, 82
2, 43193, Note_on_c, 0, 56, 70
2, 43196, Note_on_c, 0, 52, 75
2, 43322, Note_on_c, 0, 80, 0
2, 43330, Note_on_c, 0, 76, 0
2, 43332, Note_on_c, 0, 80, 104
2, 43340, Note_on_c, 0, 76, 93
2, 43340, Note_on_c, 0, 69, 92
2, 43342, Note_on_c, 0, 73, 92
2, 43370, Control_c, 0, 64, 0
2, 43371, Note_on_c, 0, 61, 0
2, 43371, Note_on_c, 0, 56, 0
2, 43371, Note_on_c, 0, 52, 0
2, 43371, Note_on_c, 0, 49, 0
2, 43371, Note_on_c, 0, 78, 0
2, 43373, Note_on_c, 0, 71, 0
2, 43376, Note_on_c, 0, 37, 0
2, 43490, Note_on_c, 0, 33, 83
2, 43491, Note_on_c, 0, 45, 85
2, 43514, Control_c, 0, 64, 127
2, 43634, Note_on_c, 0, 45, 0
2, 43637, Control_c, 0, 64, 0
2, 43653, Note_on_c, 0, 33, 0
2, 43809, Note_on_c, 0, 47, 87
2, 43810, Note_on_c, 0, 35, 79
2, 43941, Note_on_c, 0, 47, 0
2, 43952, Note_on_c, 0, 35, 0
2, 44111, Note_on_c, 0, 45, 89
2, 44111, Note_on_c, 0, 33, 84
2, 44175, Control_c, 0, 64, 127
2, 44275, Note_on_c, 0, 45, 0
2, 44280, Note_on_c, 0, 45, 75
2, 44405, Note_on_c, 0, 45, 0
2, 44409, Note_on_c, 0, 57, 69
2, 44412, Note_on_c, 0, 49, 64
2, 44414, Note_on_c, 0, 45, 58
2, 44562, Note_on_c, 0, 49, 0
2, 44563, Control_c, 0, 64, 0
2, 44563, Note_on_c, 0, 45, 0
2, 44564, Note_on_c, 0, 73, 0
2, 44564, Note_on_c, 0, 57, 0
2, 44564, Note_on_c, 0, 69, 0
2, 44567, Note_on_c, 0, 33, 0
2, 44573, Note_on_c, 0, 47, 85
2, 44577, Note_on_c, 0, 35, 74
2, 44666, Control_c, 0, 64, 127
2, 44722, Note_on_c, 0, 83, 88
2, 44751, Note_on_c, 0, 35, 0
2, 44858, Note_on_c, 0, 47, 0
2, 44865, Note_on_c, 0, 81, 91
2, 44868, Note_on_c, 0, 47, 76
2, 45004, Note_on_c, 0, 80, 0
2, 45015, Note_on_c, 0, 80, 88
2, 45016, Note_on_c, 0, 59, 70
2, 45025, Note_on_c, 0, 51, 69
2, 45126, Control_c, 0, 64, 0
2, 45127, Note_on_c, 0, 83, 0
2, 45130, Note_on_c, 0, 81, 0
2, 45130, Note_on_c, 0, 51, 0
2, 45131, Note_on_c, 0, 59, 0
2, 45143, Note_on_c, 0, 47, 0
2, 45143, Note_on_c, 0, 76, 0
2, 45160, Note_on_c, 0, 78, 95
2, 45170, Note_on_c, 0, 49, 72
2, 45172, Note_on_c, 0, 37, 72
2, 45227, Control_c, 0, 64, 127
2, 45312, Note_on_c, 0, 78, 0
2, 45317, Note_on_c, 0, 78, 100
2, 45450, Note_on_c, 0, 49, 0
2, 45450, Note_on_c, 0, 80, 0
2, 45459, Note_on_c, 0, 80, 95
2, 45461, Note_on_c, 0, 49, 76
2, 45609, Note_on_c, 0, 61, 79
2, 45629, Note_on_c, 0, 56, 65
2, 45633, Note_on_c, 0, 52, 63
2, 45759, Note_on_c, 0, 73, 94
2, 45827, Control_c, 0, 64, 0
2, 45831, Note_on_c, 0, 78, 0
2, 45833, Note_on_c, 0, 80, 0
2, 45835, Note_on_c, 0, 56, 0
2, 45835, Note_on_c, 0, 61, 0
2, 45837, Note_on_c, 0, 52, 0
2, 45841, Note_on_c, 0, 37, 0
2, 45841, Note_on_c, 0, 49, 0
2, 45905, Note_on_c, 0, 46, 71
2, 46033, Control_c, 0, 64, 127
2, 46069, Note_on_c, 0, 54, 61
2, 46212, Note_on_c, 0, 61, 66
2, 46233, Note_on_c, 0, 46, 0
2, 46370, Note_on_c, 0, 64, 79
2, 46656, Note_on_c, 0, 61, 0
2, 46663, Note_on_c, 0, 61, 76
2, 46813, Note_on_c, 0, 58, 63
2, 46947, Note_on_c, 0, 54, 0
2, 46957, Note_on_c, 0, 54, 57
2, 46959, Note_on_c, 0, 68, 81
2, 47090, Note_on_c, 0, 54, 0
2, 47090, Control_c, 0, 64, 0
2, 47090, Note_on_c, 0, 58, 0
2, 47091, Note_on_c, 0, 64, 0
2, 47091, Note_on_c, 0, 61, 0
2, 47101, Note_on_c, 0, 68, 0
2, 47109, Note_on_c, 0, 73, 0
2, 47110, Note_on_c, 0, 68, 77
2, 47111, Note_on_c, 0, 45, 67
2, 47185, Control_c, 0, 64, 127
2, 47205, Note_on_c, 0, 45, 0
2, 47254, Note_on_c, 0, 54, 67
2, 47400, Note_on_c, 0, 80, 86
2, 47402, Note_on_c, 0, 61, 69
2, 47571, Note_on_c, 0, 64, 60
2, 47838, Note_on_c, 0, 61, 0
2, 47845, Note_on_c, 0, 61, 78
2, 48009, Note_on_c, 0, 57, 58
2, 48130, Note_on_c, 0, 54, 0
2, 48130, Note_on_c, 0, 80, 0
2, 48134, Note_on_c, 0, 80, 87
2, 48136, Note_on_c, 0, 54, 62
2, 48265, Note_on_c, 0, 68, 0
2, 48265, Note_on_c, 0, 54, 0
2, 48265, Note_on_c, 0, 80, 0
2, 48265, Note_on_c, 0, 64, 0
2, 48266, Note_on_c, 0, 61, 0
2, 48266, Note_on_c, 0, 57, 0
2, 48268, Control_c, 0, 64, 0
2, 48290, Note_on_c, 0, 42, 80
2, 48295, Note_on_c, 0, 83, 90
2, 48301, Note_on_c, 0, 73, 84
2, 48302, Note_on_c, 0, 76, 76
2, 48353, Control_c, 0, 64, 127
2, 48434, Note_on_c, 0, 54, 72
2, 48526, Note_on_c, 0, 81, 86
2, 48595, Note_on_c, 0, 64, 78
2, 48595, Note_on_c, 0, 61, 71
2, 48721, Note_on_c, 0, 54, 0
2, 48730, Note_on_c, 0, 80, 87
2, 48731, Note_on_c, 0, 54, 63
2, 48863, Note_on_c, 0, 42, 0
2, 48863, Note_on_c, 0, 73, 0
2, 48864, Note_on_c, 0, 83, 0
2, 48864, Note_on_c, 0, 80, 0
2, 48864, Note_on_c, 0, 64, 0
2, 48864, Note_on_c, 0, 61, 0
2, 48864, Control_c, 0, 64, 0
2, 48864, Note_on_c, 0, 76, 0
2, 48867, Note_on_c, 0, 81, 0
2, 48875, Note_on_c, 0, 54, 0
2, 48877, Note_on_c, 0, 81, 96
2, 48885, Note_on_c, 0, 47, 72
2, 48886, Note_on_c, 0, 71, 79
2, 48886, Note_on_c, 0, 75, 81
2, 48936, Control_c, 0, 64, 127
2, 49013, Note_on_c, 0, 47, 0
2, 49026, Note_on_c, 0, 59, 70
2, 49094, Note_on_c, 0, 80, 90
2, 49172, Note_on_c, 0, 66, 79
2, 49193, Note_on_c, 0, 63, 65
2, 49297, Note_on_c, 0, 59, 0
2, 49309, Note_on_c, 0, 59, 82
2, 49316, Note_on_c, 0, 78, 96
2, 49446, Note_on_c, 0, 81, 0
2, 49447, Control_c, 0, 64, 0
2, 49447, Note_on_c, 0, 63, 0
2, 49447, Note_on_c, 0, 66, 0
2, 49447, Note_on_c, 0, 75, 0
2, 49447, Note_on_c, 0, 71, 0
2, 49447, Note_on_c, 0, 80, 0
2, 49451, Note_on_c, 0, 78, 0
2, 49458, Note_on_c, 0, 78, 98
2, 49459, Note_on_c, 0, 59, 0
2, 49460, Note_on_c, 0, 49, 80
2, 49470, Note_on_c, 0, 73, 83
2, 49512, Control_c, 0, 64, 127
2, 49597, Note_on_c, 0, 73, 0
2, 49597, Note_on_c, 0, 78, 0
2, 49602, Note_on_c, 0, 78, 91
2, 49603, Note_on_c, 0, 61, 82
2, 49604, Note_on_c, 0, 73, 83
2, 49756, Note_on_c, 0, 80, 96
2, 49757, Note_on_c, 0, 68, 85
2, 49761, Note_on_c, 0, 65, 65
2, 49896, Note_on_c, 0, 61, 0
2, 49901, Note_on_c, 0, 61, 83
2, 49902, Note_on_c, 0, 77, 97
2, 50042, Note_on_c, 0, 73, 0
2, 50049, Note_on_c, 0, 73, 96
2, 50104, Note_on_c, 0, 68, 0
2, 50109, Note_on_c, 0, 68, 76
2, 50142, Note_on_c, 0, 65, 0
2, 50147, Note_on_c, 0, 65, 80
2, 50196, Note_on_c, 0, 61, 0
2, 50205, Note_on_c, 0, 61, 72
2, 50278, Note_on_c, 0, 56, 85
2, 50316, Note_on_c, 0, 53, 80
2, 50342, Note_on_c, 0, 49, 0
2, 50348, Note_on_c, 0, 49, 54
2, 50416, Note_on_c, 0, 44, 71
2, 50471, Note_on_c, 0, 41, 52
2, 50516, Note_on_c, 0, 37, 70
2, 50593, Note_on_c, 0, 56, 0
2, 50593, Note_on_c, 0, 77, 0
2, 50593, Note_on_c, 0, 49, 0
2, 50593, Note_on_c, 0, 44, 0
2, 50593, Note_on_c, 0, 65, 0
2, 50594, Note_on_c, 0, 53, 0
2, 50594, Note_on_c, 0, 61, 0
2, 50594, Note_on_c, 0, 68, 0
2, 50594, Note_on_c, 0, 78, 0
2, 50594, Note_on_c, 0, 37, 0
2, 50594, Note_on_c, 0, 80, 0
2, 50596, Control_c, 0, 64, 0
2, 50611, Note_on_c, 0, 41, 0
2, 50618, Note_on_c, 0, 73, 0
2, 50630, Note_on_c, 0, 73, 102
2, 50630, Note_on_c, 0, 61, 92
2, 50633, Note_on_c, 0, 66, 90
2, 50635, Note_on_c, 0, 70, 93
2, 50637, Note_on_c, 0, 30, 88
2, 50637, Note_on_c, 0, 42, 90
2, 50668, Note_on_c, 0, 42, 0
2, 50695, Control_c, 0, 64, 127
2, 50787, Note_on_c, 0, 66, 0
2, 50791, Note_on_c, 0, 78, 94
2, 50792, Note_on_c, 0, 66, 90
2, 50792, Note_on_c, 0, 42, 73
2, 50934, Note_on_c, 0, 54, 84
2, 51056, Note_on_c, 0, 66, 0
2, 51064, Note_on_c, 0, 54, 0
2, 51067, Note_on_c, 0, 66, 81
2, 51072, Note_on_c, 0, 61, 0
2, 51073, Note_on_c, 0, 54, 74
2, 51076, Note_on_c, 0, 61, 78
2, 51078, Note_on_c, 0, 82, 96
2, 51079, Note_on_c, 0, 70, 0
2, 51080, Note_on_c, 0, 58, 76
2, 51083, Note_on_c, 0, 70, 92
2, 51235, Note_on_c, 0, 80, 100
2, 51240, Note_on_c, 0, 73, 0
2, 51243, Note_on_c, 0, 68, 94
2, 51244, Note_on_c, 0, 73, 95
2, 51246, Note_on_c, 0, 77, 84
2, 51394, Note_on_c, 0, 30, 0
2, 51402, Note_on_c, 0, 30, 73
2, 51405, Note_on_c, 0, 42, 0
2, 51486, Note_on_c, 0, 54, 0
2, 51486, Note_on_c, 0, 30, 0
2, 51487, Note_on_c, 0, 66, 0
2, 51488, Note_on_c, 0, 73, 0
2, 51488, Note_on_c, 0, 58, 0
2, 51488, Note_on_c, 0, 68, 0
2, 51488, Note_on_c, 0, 70, 0
2, 51488, Note_on_c, 0, 61, 0
2, 51488, Note_on_c, 0, 78, 0
2, 51488, Note_on_c, 0, 82, 0
2, 51488, Note_on_c, 0, 80, 0
2, 51489, Note_on_c, 0, 77, 0
2, 51490, Control_c, 0, 64, 0
2, 51541, Note_on_c, 0, 42, 88
2, 51541, Note_on_c, 0, 73, 97
2, 51542, Note_on_c, 0, 61, 93
2, 51543, Note_on_c, 0, 66, 90
2, 51544, Note_on_c, 0, 70, 88
2, 51571, Control_c, 0, 64, 127
2, 51694, Note_on_c, 0, 66, 0
2, 51698, Note_on_c, 0, 78, 96
2, 51699, Note_on_c, 0, 66, 95
2, 51850, Note_on_c, 0, 54, 80
2, 51978, Note_on_c, 0, 54, 0
2, 51978, Note_on_c, 0, 61, 0
2, 51978, Note_on_c, 0, 66, 0
2, 51978, Note_on_c, 0, 70, 0
2, 51982, Note_on_c, 0, 82, 95
2, 51983, Note_on_c, 0, 66, 78
2, 51988, Note_on_c, 0, 70, 94
2, 51988, Note_on_c, 0, 54, 71
2, 51989, Note_on_c, 0, 61, 74
2, 51989, Note_on_c, 0, 58, 76
2, 52139, Note_on_c, 0, 73, 0
2, 52143, Note_on_c, 0, 80, 100
2, 52147, Note_on_c, 0, 68, 96
2, 52150, Note_on_c, 0, 73, 98
2, 52150, Note_on_c, 0, 77, 85
2, 52311, Note_on_c, 0, 37, 79
2, 52384, Note_on_c, 0, 54, 0
2, 52384, Note_on_c, 0, 68, 0
2, 52384, Note_on_c, 0, 66, 0
2, 52385, Note_on_c, 0, 78, 0
2, 52385, Note_on_c, 0, 73, 0
2, 52385, Note_on_c, 0, 58, 0
2, 52385, Note_on_c, 0, 80, 0
2, 52386, Note_on_c, 0, 61, 0
2, 52386, Note_on_c, 0, 77, 0
2, 52387, Note_on_c, 0, 82, 0
2, 52387, Control_c, 0, 64, 0
2, 52400, Note_on_c, 0, 42, 0
2, 52400, Note_on_c, 0, 70, 0
2, 52440, Note_on_c, 0, 73, 99
2, 52441, Note_on_c, 0, 61, 94
2, 52441, Note_on_c, 0, 68, 84
2, 52442, Note_on_c, 0, 65, 79
2, 52442, Note_on_c, 0, 49, 85
2, 52462, Control_c, 0, 64, 127
2, 52492, Note_on_c, 0, 37, 0
2, 52603, Note_on_c, 0, 78, 101
2, 52605, Note_on_c, 0, 66, 89
2, 52746, Note_on_c, 0, 49, 0
2, 52751, Note_on_c, 0, 49, 78
2, 52884, Note_on_c, 0, 61, 0
2, 52895, Note_on_c, 0, 61, 81
2, 52896, Note_on_c, 0, 82, 94
2, 52900, Note_on_c, 0, 70, 94
2, 52904, Note_on_c, 0, 56, 76
2, 52906, Note_on_c, 0, 53, 71
2, 53053, Note_on_c, 0, 68, 0
2, 53056, Note_on_c, 0, 80, 99
2, 53061, Note_on_c, 0, 53, 0
2, 53061, Note_on_c, 0, 73, 0
2, 53064, Note_on_c, 0, 68, 93
2, 53064, Note_on_c, 0, 77, 84
2, 53065, Note_on_c, 0, 73, 96
2, 53069, Note_on_c, 0, 53, 67
2, 53211, Note_on_c, 0, 37, 80
2, 53303, Control_c, 0, 64, 0
2, 53303, Note_on_c, 0, 56, 0
2, 53304, Note_on_c, 0, 65, 0
2, 53304, Note_on_c, 0, 70, 0
2, 53304, Note_on_c, 0, 77, 0
2, 53304, Note_on_c, 0, 53, 0
2, 53304, Note_on_c, 0, 49, 0
2, 53304, Note_on_c, 0, 78, 0
2, 53304, Note_on_c, 0, 73, 0
2, 53304, Note_on_c, 0, 66, 0
2, 53304, Note_on_c, 0, 80, 0
2, 53305, Note_on_c, 0, 82, 0
2, 53322, Note_on_c, 0, 61, 0
2, 53322, Note_on_c, 0, 68, 0
2, 53364, Note_on_c, 0, 49, 88
2, 53366, Note_on_c, 0, 73, 98
2, 53366, Note_on_c, 0, 61, 93
2, 53372, Note_on_c, 0, 65, 78
2, 53376, Control_c, 0, 64, 127
2, 53399, Note_on_c, 0, 37, 0
2, 53519, Note_on_c, 0, 78, 102
2, 53522, Note_on_c, 0, 66, 91
2, 53660, Note_on_c, 0, 49, 0
2, 53670, Note_on_c, 0, 49, 62
2, 53798, Note_on_c, 0, 61, 0
2, 53802, Note_on_c, 0, 61, 88
2, 53812, Note_on_c, 0, 53, 76
2, 53816, Note_on_c, 0, 56, 80
2, 53817, Note_on_c, 0, 82, 88
2, 53818, Note_on_c, 0, 80, 88
2, 53819, Note_on_c, 0, 70, 97
2, 53959, Note_on_c, 0, 80, 0
2, 53965, Note_on_c, 0, 80, 79
2, 53966, Note_on_c, 0, 68, 98
2, 54095, Note_on_c, 0, 70, 0
2, 54095, Note_on_c, 0, 61, 0
2, 54095, Note_on_c, 0, 53, 0
2, 54096, Note_on_c, 0, 66, 0
2, 54096, Note_on_c, 0, 73, 0
2, 54096, Note_on_c, 0, 56, 0
2, 54096, Note_on_c, 0, 65, 0
2, 54096, Note_on_c, 0, 78, 0
2, 54097, Note_on_c, 0, 82, 0
2, 54097, Control_c, 0, 64, 0
2, 54105, Note_on_c, 0, 68, 0
2, 54105, Note_on_c, 0, 80, 0
2, 54111, Note_on_c, 0, 68, 103
2, 54111, Note_on_c, 0, 80, 92
2, 54113, Note_on_c, 0, 49, 0
2, 54132, Note_on_c, 0, 37, 70
2, 54182, Control_c, 0, 64, 127
2, 54261, Note_on_c, 0, 78, 105
2, 54265, Note_on_c, 0, 66, 95
2, 54271, Note_on_c, 0, 49, 70
2, 54405, Note_on_c, 0, 49, 0
2, 54414, Note_on_c, 0, 49, 71
2, 54560, Note_on_c, 0, 85, 103
2, 54562, Note_on_c, 0, 73, 102
2, 54567, Note_on_c, 0, 61, 82
2, 54579, Note_on_c, 0, 56, 72
2, 54587, Note_on_c, 0, 53, 66
2, 54689, Note_on_c, 0, 49, 0
2, 54695, Note_on_c, 0, 49, 71
2, 54858, Note_on_c, 0, 85, 0
2, 54865, Note_on_c, 0, 85, 103
2, 54865, Note_on_c, 0, 37, 0
2, 54865, Note_on_c, 0, 73, 0
2, 54865, Note_on_c, 0, 78, 0
2, 54867, Note_on_c, 0, 61, 0
2, 54867, Note_on_c, 0, 68, 0
2, 54868, Note_on_c, 0, 66, 0
2, 54868, Note_on_c, 0, 80, 0
2, 54868, Note_on_c, 0, 49, 0
2, 54868, Note_on_c, 0, 56, 0
2, 54869, Note_on_c, 0, 53, 0
2, 54869, Control_c, 0, 64, 0
2, 54869, Note_on_c, 0, 73, 102
2, 54870, Note_on_c, 0, 39, 78
2, 54871, Note_on_c, 0, 78, 91
2, 54873, Note_on_c, 0, 75, 92
2, 54988, Control_c, 0, 64, 127
2, 55015, Note_on_c, 0, 46, 63
2, 55171, Note_on_c, 0, 51, 63
2, 55324, Note_on_c, 0, 54, 67
2, 55493, Note_on_c, 0, 58, 71
2, 55639, Note_on_c, 0, 63, 72
2, 55640, Note_on_c, 0, 83, 86
2, 55641, Note_on_c, 0, 73, 0
2, 55646, Note_on_c, 0, 73, 70
2, 55787, Note_on_c, 0, 82, 87
2, 55792, Note_on_c, 0, 66, 72
2, 55925, Note_on_c, 0, 78, 0
2, 55933, Note_on_c, 0, 58, 0
2, 55934, Note_on_c, 0, 70, 75
2, 55935, Note_on_c, 0, 78, 92
2, 55937, Note_on_c, 0, 58, 66
2, 56071, Note_on_c, 0, 75, 0
2, 56075, Note_on_c, 0, 75, 81
2, 56077, Note_on_c, 0, 80, 93
2, 56217, Note_on_c, 0, 58, 0
2, 56223, Note_on_c, 0, 58, 65
2, 56225, Note_on_c, 0, 70, 0
2, 56225, Note_on_c, 0, 82, 0
2, 56230, Note_on_c, 0, 70, 76
2, 56233, Note_on_c, 0, 82, 94
2, 56363, Note_on_c, 0, 66, 0
2, 56374, Note_on_c, 0, 66, 74
2, 56509, Note_on_c, 0, 63, 0
2, 56517, Note_on_c, 0, 63, 75
2, 56663, Note_on_c, 0, 58, 0
2, 56663, Note_on_c, 0, 78, 0
2, 56667, Note_on_c, 0, 78, 97
2, 56668, Note_on_c, 0, 58, 74
2, 56808, Note_on_c, 0, 54, 0
2, 56818, Note_on_c, 0, 54, 67
2, 56947, Note_on_c, 0, 51, 0
2, 56958, Note_on_c, 0, 51, 70
2, 57100, Note_on_c, 0, 46, 0
2, 57100, Note_on_c, 0, 78, 0
2, 57105, Note_on_c, 0, 46, 74
2, 57109, Note_on_c, 0, 78, 93
2, 57246, Note_on_c, 0, 80, 0
2, 57248, Note_on_c, 0, 46, 0
2, 57251, Note_on_c, 0, 54, 0
2, 57251, Note_on_c, 0, 73, 0
2, 57251, Note_on_c, 0, 58, 0
2, 57251, Note_on_c, 0, 78, 0
2, 57251, Note_on_c, 0, 39, 0
2, 57251, Note_on_c, 0, 85, 0
2, 57252, Note_on_c, 0, 63, 0
2, 57252, Note_on_c, 0, 70, 0
2, 57252, Note_on_c, 0, 82, 0
2, 57252, Control_c, 0, 64, 0
2, 57253, Note_on_c, 0, 83, 0
2, 57257, Note_on_c, 0, 35, 76
2, 57258, Note_on_c, 0, 80, 100
2, 57262, Note_on_c, 0, 66, 0
2, 57262, Note_on_c, 0, 75, 0
2, 57266, Note_on_c, 0, 75, 87
2, 57269, Note_on_c, 0, 51, 0
2, 57271, Note_on_c, 0, 71, 82
2, 57318, Note_on_c, 0, 35, 0
2, 57331, Control_c, 0, 64, 127
2, 57402, Note_on_c, 0, 47, 73
2, 57551, Note_on_c, 0, 51, 77
2, 57696, Note_on_c, 0, 54, 75
2, 57829, Control_c, 0, 64, 0
2, 57830, Note_on_c, 0, 80, 0
2, 57838, Note_on_c, 0, 71, 0
2, 57838, Note_on_c, 0, 75, 0
2, 57841, Note_on_c, 0, 80, 95
2, 57844, Note_on_c, 0, 75, 81
2, 57845, Note_on_c, 0, 71, 80
2, 57849, Note_on_c, 0, 59, 76
2, 57853, Control_c, 0, 64, 127
2, 58001, Note_on_c, 0, 63, 77
2, 58002, Note_on_c, 0, 82, 91
2, 58129, Note_on_c, 0, 80, 0
2, 58141, Note_on_c, 0, 66, 77
2, 58141, Note_on_c, 0, 80, 89
2, 58260, Note_on_c, 0, 71, 0
2, 58270, Note_on_c, 0, 71, 69
2, 58283, Note_on_c, 0, 59, 0
2, 58287, Note_on_c, 0, 59, 63
2, 58289, Note_on_c, 0, 78, 90
2, 58421, Note_on_c, 0, 78, 0
2, 58426, Control_c, 0, 64, 0
2, 58428, Note_on_c, 0, 78, 102
2, 58428, Note_on_c, 0, 47, 0
2, 58429, Note_on_c, 0, 54, 0
2, 58430, Note_on_c, 0, 66, 0
2, 58430, Note_on_c, 0, 59, 0
2, 58430, Note_on_c, 0, 63, 0
2, 58430, Note_on_c, 0, 80, 0
2, 58431, Note_on_c, 0, 71, 0
2, 58431, Note_on_c, 0, 51, 0
2, 58431, Note_on_c, 0, 82, 0
2, 58431, Note_on_c, 0, 75, 0
2, 58438, Note_on_c, 0, 68, 92
2, 58441, Note_on_c, 0, 73, 88
2, 58448, Note_on_c, 0, 37, 67
2, 58513, Control_c, 0, 64, 127
2, 58580, Note_on_c, 0, 49, 65
2, 58671, Note_on_c, 0, 77, 91
2, 58745, Note_on_c, 0, 53, 64
2, 58874, Note_on_c, 0, 73, 0
2, 58885, Note_on_c, 0, 73, 94
2, 58885, Note_on_c, 0, 56, 78
2, 59051, Note_on_c, 0, 61, 74
2, 59051, Note_on_c, 0, 66, 87
2, 59212, Note_on_c, 0, 56, 0
2, 59219, Note_on_c, 0, 56, 78
2, 59277, Note_on_c, 0, 65, 87
2, 59358, Note_on_c, 0, 49, 0
2, 59358, Note_on_c, 0, 53, 0
2, 59358, Note_on_c, 0, 56, 0
2, 59358, Note_on_c, 0, 61, 0
2, 59366, Note_on_c, 0, 61, 68
2, 59367, Note_on_c, 0, 53, 72
2, 59367, Note_on_c, 0, 49, 61
2, 59369, Note_on_c, 0, 56, 71
2, 59473, Note_on_c, 0, 49, 0
2, 59483, Note_on_c, 0, 49, 69
2, 59489, Note_on_c, 0, 61, 0
2, 59493, Note_on_c, 0, 61, 81
2, 59610, Note_on_c, 0, 49, 0
2, 59611, Note_on_c, 0, 78, 0
2, 59611, Note_on_c, 0, 68, 0
2, 59612, Note_on_c, 0, 37, 0
2, 59612, Note_on_c, 0, 56, 0
2, 59612, Note_on_c, 0, 65, 0
2, 59612, Note_on_c, 0, 77, 0
2, 59612, Control_c, 0, 64, 0
2, 59613, Note_on_c, 0, 53, 0
2, 59627, Note_on_c, 0, 61, 0
2, 59635, Note_on_c, 0, 73, 0
2, 59638, Note_on_c, 0, 61, 93
2, 59639, Note_on_c, 0, 73, 98
2, 59642, Note_on_c, 0, 66, 0
2, 59647, Note_on_c, 0, 42, 87
2, 59649, Note_on_c, 0, 66, 86
2, 59651, Note_on_c, 0, 70, 76
2, 59652, Note_on_c, 0, 30, 76
2, 59688, Control_c, 0, 64, 127
2, 59791, Note_on_c, 0, 78, 97
2, 59873, Note_on_c, 0, 66, 0
2, 59882, Note_on_c, 0, 66, 90
2, 59927, Note_on_c, 0, 78, 0
2, 59937, Note_on_c, 0, 78, 84
2, 59942, Note_on_c, 0, 54, 74
2, 60072, Note_on_c, 0, 66, 0
2, 60077, Note_on_c, 0, 66, 88
2, 60080, Note_on_c, 0, 54, 0
2, 60080, Note_on_c, 0, 61, 0
2, 60084, Note_on_c, 0, 54, 72
2, 60086, Note_on_c, 0, 58, 82
2, 60088, Note_on_c, 0, 70, 0
2, 60090, Note_on_c, 0, 82, 98
2, 60091, Note_on_c, 0, 61, 72
2, 60093, Note_on_c, 0, 70, 90
2, 60238, Note_on_c, 0, 80, 95
2, 60241, Note_on_c, 0, 58, 0
2, 60241, Note_on_c, 0, 70, 0
2, 60241, Note_on_c, 0, 73, 0
2, 60242, Note_on_c, 0, 68, 89
2, 60247, Note_on_c, 0, 73, 92
2, 60247, Note_on_c, 0, 58, 70
2, 60248, Note_on_c, 0, 77, 81
2, 60252, Note_on_c, 0, 70, 80
2, 60380, Note_on_c, 0, 30, 0
2, 60390, Note_on_c, 0, 30, 88
2, 60485, Note_on_c, 0, 54, 0
2, 60486, Note_on_c, 0, 73, 0
2, 60486, Note_on_c, 0, 82, 0
2, 60486, Note_on_c, 0, 80, 0
2, 60487, Note_on_c, 0, 58, 0
2, 60487, Note_on_c, 0, 68, 0
2, 60487, Note_on_c, 0, 61, 0
2, 60487, Control_c, 0, 64, 0
2, 60487, Note_on_c, 0, 77, 0
2, 60487, Note_on_c, 0, 66, 0
2, 60487, Note_on_c, 0, 78, 0
2, 60503, Note_on_c, 0, 70, 0
2, 60510, Note_on_c, 0, 42, 0
2, 60529, Note_on_c, 0, 73, 100
2, 60530, Note_on_c, 0, 61, 95
2, 60533, Note_on_c, 0, 42, 87
2, 60536, Note_on_c, 0, 66, 90
2, 60537, Note_on_c, 0, 70, 80
2, 60587, Control_c, 0, 64, 127
2, 60686, Note_on_c, 0, 78, 96
2, 60764, Note_on_c, 0, 66, 0
2, 60768, Note_on_c, 0, 66, 89
2, 60817, Note_on_c, 0, 78, 0
2, 60826, Note_on_c, 0, 78, 90
2, 60831, Note_on_c, 0, 54, 69
2, 60894, Note_on_c, 0, 42, 0
2, 60894, Note_on_c, 0, 78, 0
2, 60900, Note_on_c, 0, 42, 82
2, 60901, Note_on_c, 0, 78, 86
2, 60971, Note_on_c, 0, 66, 0
2, 60976, Note_on_c, 0, 66, 84
2, 60979, Note_on_c, 0, 61, 0
2, 60979, Note_on_c, 0, 70, 0
2, 60983, Note_on_c, 0, 82, 98
2, 60983, Note_on_c, 0, 61, 74
2, 60986, Note_on_c, 0, 58, 74
2, 60988, Note_on_c, 0, 70, 94
2, 61139, Note_on_c, 0, 80, 95
2, 61148, Note_on_c, 0, 68, 91
2, 61148, Note_on_c, 0, 73, 0
2, 61152, Note_on_c, 0, 73, 88
2, 61153, Note_on_c, 0, 77, 79
2, 61292, Note_on_c, 0, 37, 80
2, 61343, Note_on_c, 0, 54, 0
2, 61344, Note_on_c, 0, 58, 0
2, 61344, Note_on_c, 0, 66, 0
2, 61344, Note_on_c, 0, 68, 0
2, 61344, Note_on_c, 0, 70, 0
2, 61345, Note_on_c, 0, 78, 0
2, 61345, Note_on_c, 0, 61, 0
2, 61345, Note_on_c, 0, 73, 0
2, 61345, Note_on_c, 0, 42, 0
2, 61345, Note_on_c, 0, 77, 0
2, 61345, Note_on_c, 0, 80, 0
2, 61347, Control_c, 0, 64, 0
2, 61355, Note_on_c, 0, 30, 0
2, 61370, Note_on_c, 0, 82, 0
2, 61424, Control_c, 0, 64, 127
2, 61429, Note_on_c, 0, 49, 92
2, 61430, Note_on_c, 0, 61, 95
2, 61430, Note_on_c, 0, 73, 96
2, 61433, Note_on_c, 0, 68, 86
2, 61434, Note_on_c, 0, 65, 79
2, 61582, Note_on_c, 0, 78, 95
2, 61674, Note_on_c, 0, 66, 85
2, 61724, Note_on_c, 0, 49, 0
2, 61724, Note_on_c, 0, 68, 0
2, 61724, Note_on_c, 0, 78, 0
2, 61729, Note_on_c, 0, 78, 81
2, 61735, Note_on_c, 0, 49, 58
2, 61735, Note_on_c, 0, 68, 77
2, 61870, Note_on_c, 0, 65, 0
2, 61877, Note_on_c, 0, 61, 0
2, 61881, Note_on_c, 0, 65, 70
2, 61882, Note_on_c, 0, 61, 77
2, 61882, Note_on_c, 0, 82, 93
2, 61885, Note_on_c, 0, 56, 66
2, 61886, Note_on_c, 0, 53, 77
2, 61887, Note_on_c, 0, 70, 93
2, 62031, Note_on_c, 0, 68, 0
2, 62031, Note_on_c, 0, 73, 0
2, 62033, Note_on_c, 0, 80, 97
2, 62035, Note_on_c, 0, 68, 100
2, 62037, Note_on_c, 0, 77, 83
2, 62042, Note_on_c, 0, 73, 91
2, 62184, Note_on_c, 0, 37, 0
2, 62192, Note_on_c, 0, 37, 78
2, 62277, Note_on_c, 0, 53, 0
2, 62277, Note_on_c, 0, 68, 0
2, 62277, Note_on_c, 0, 65, 0
2, 62277, Note_on_c, 0, 49, 0
2, 62278, Note_on_c, 0, 70, 0
2, 62278, Note_on_c, 0, 78, 0
2, 62278, Note_on_c, 0, 56, 0
2, 62278, Note_on_c, 0, 66, 0
2, 62278, Note_on_c, 0, 73, 0
2, 62278, Note_on_c, 0, 37, 0
2, 62278, Note_on_c, 0, 61, 0
2, 62278, Note_on_c, 0, 77, 0
2, 62278, Note_on_c, 0, 82, 0
2, 62278, Note_on_c, 0, 80, 0
2, 62279, Control_c, 0, 64, 0
2, 62327, Note_on_c, 0, 73, 101
2, 62327, Note_on_c, 0, 65, 84
2, 62328, Note_on_c, 0, 68, 89
2, 62328, Note_on_c, 0, 61, 96
2, 62332, Note_on_c, 0, 49, 88
2, 62369, Control_c, 0, 64, 127
2, 62491, Note_on_c, 0, 78, 90
2, 62567, Note_on_c, 0, 66, 89
2, 62622, Note_on_c, 0, 49, 0
2, 62622, Note_on_c, 0, 78, 0
2, 62626, Note_on_c, 0, 78, 88
2, 62632, Note_on_c, 0, 49, 75
2, 62760, Note_on_c, 0, 61, 0
2, 62766, Note_on_c, 0, 82, 97
2, 62768, Note_on_c, 0, 49, 0
2, 62770, Note_on_c, 0, 61, 82
2, 62771, Note_on_c, 0, 70, 98
2, 62773, Note_on_c, 0, 56, 78
2, 62778, Note_on_c, 0, 49, 76
2, 62779, Note_on_c, 0, 53, 74
2, 62914, Note_on_c, 0, 68, 0
2, 62921, Note_on_c, 0, 80, 91
2, 62922, Note_on_c, 0, 68, 100
2, 63052, Note_on_c, 0, 68, 0
2, 63052, Note_on_c, 0, 80, 0
2, 63056, Note_on_c, 0, 49, 0
2, 63056, Note_on_c, 0, 65, 0
2, 63056, Note_on_c, 0, 61, 0
2, 63056, Note_on_c, 0, 70, 0
2, 63056, Note_on_c, 0, 56, 0
2, 63057, Note_on_c, 0, 66, 0
2, 63057, Note_on_c, 0, 53, 0
2, 63057, Note_on_c, 0, 78, 0
2, 63057, Note_on_c, 0, 82, 0
2, 63057, Note_on_c, 0, 73, 0
2, 63058, Control_c, 0, 64, 0
2, 63059, Note_on_c, 0, 80, 89
2, 63060, Note_on_c, 0, 68, 91
2, 63065, Note_on_c, 0, 37, 72
2, 63129, Control_c, 0, 64, 127
2, 63217, Note_on_c, 0, 78, 105
2, 63219, Note_on_c, 0, 66, 95
2, 63223, Note_on_c, 0, 49, 66
2, 63360, Note_on_c, 0, 49, 0
2, 63364, Note_on_c, 0, 73, 78
2, 63366, Note_on_c, 0, 49, 76
2, 63513, Note_on_c, 0, 73, 0
2, 63524, Note_on_c, 0, 73, 103
2, 63525, Note_on_c, 0, 85, 99
2, 63531, Note_on_c, 0, 61, 85
2, 63536, Note_on_c, 0, 56, 79
2, 63536, Note_on_c, 0, 53, 73
2, 63659, Note_on_c, 0, 49, 0
2, 63666, Note_on_c, 0, 49, 71
2, 63828, Note_on_c, 0, 37, 0
2, 63828, Note_on_c, 0, 68, 0
2, 63828, Note_on_c, 0, 85, 0
2, 63831, Note_on_c, 0, 56, 0
2, 63831, Note_on_c, 0, 80, 0
2, 63831, Note_on_c, 0, 61, 0
2, 63831, Note_on_c, 0, 49, 0
2, 63831, Note_on_c, 0, 53, 0
2, 63832, Note_on_c, 0, 66, 0
2, 63833, Control_c, 0, 64, 0
2, 63836, Note_on_c, 0, 73, 0
2, 63836, Note_on_c, 0, 78, 0
2, 63837, Note_on_c, 0, 85, 100
2, 63839, Note_on_c, 0, 75, 91
2, 63840, Note_on_c, 0, 78, 91
2, 63841, Note_on_c, 0, 39, 76
2, 63842, Note_on_c, 0, 73, 93
2, 63984, Note_on_c, 0, 46, 68
2, 64005, Control_c, 0, 64, 127
2, 64132, Note_on_c, 0, 51, 72
2, 64289, Note_on_c, 0, 54, 68
2, 64452, Note_on_c, 0, 58, 75
2, 64588, Note_on_c, 0, 63, 68
2, 64588, Note_on_c, 0, 73, 0
2, 64594, Note_on_c, 0, 73, 70
2, 64599, Note_on_c, 0, 83, 87
2, 64719, Note_on_c, 0, 39, 0
2, 64739, Note_on_c, 0, 66, 75
2, 64739, Note_on_c, 0, 82, 89
2, 64880, Note_on_c, 0, 78, 0
2, 64883, Note_on_c, 0, 70, 75
2, 64884, Note_on_c, 0, 78, 92
2, 65018, Note_on_c, 0, 75, 0
2, 65023, Note_on_c, 0, 75, 80
2, 65030, Note_on_c, 0, 80, 92
2, 65164, Note_on_c, 0, 70, 0
2, 65174, Note_on_c, 0, 70, 80
2, 65187, Note_on_c, 0, 82, 0
2, 65198, Note_on_c, 0, 82, 88
2, 65326, Note_on_c, 0, 66, 0
2, 65333, Note_on_c, 0, 66, 79
2, 65472, Note_on_c, 0, 63, 0
2, 65476, Note_on_c, 0, 63, 78
2, 65625, Note_on_c, 0, 58, 0
2, 65625, Note_on_c, 0, 78, 0
2, 65630, Note_on_c, 0, 58, 76
2, 65632, Note_on_c, 0, 78, 91
2, 65763, Note_on_c, 0, 54, 0
2, 65775, Note_on_c, 0, 54, 77
2, 65917, Note_on_c, 0, 51, 0
2, 65926, Note_on_c, 0, 51, 71
2, 66055, Note_on_c, 0, 46, 0
2, 66064, Note_on_c, 0, 46, 74
2, 66078, Note_on_c, 0, 78, 0
2, 66082, Note_on_c, 0, 78, 91
2, 66195, Note_on_c, 0, 46, 0
2, 66197, Control_c, 0, 64, 0
2, 66197, Note_on_c, 0, 54, 0
2, 66197, Note_on_c, 0, 78, 0
2, 66197, Note_on_c, 0, 73, 0
2, 66197, Note_on_c, 0, 51, 0
2, 66197, Note_on_c, 0, 66, 0
2, 66197, Note_on_c, 0, 58, 0
2, 66197, Note_on_c, 0, 85, 0
2, 66198, Note_on_c, 0, 63, 0
2, 66198, Note_on_c, 0, 82, 0
2, 66198, Note_on_c, 0, 70, 0
2, 66198, Note_on_c, 0, 83, 0
2, 66209, Note_on_c, 0, 80, 0
2, 66215, Note_on_c, 0, 80, 98
2, 66222, Note_on_c, 0, 35, 74
2, 66224, Note_on_c, 0, 75, 0
2, 66229, Note_on_c, 0, 75, 81
2, 66230, Note_on_c, 0, 71, 80
2, 66265, Note_on_c, 0, 35, 0
2, 66278, Control_c, 0, 64, 127
2, 66359, Note_on_c, 0, 47, 71
2, 66508, Note_on_c, 0, 80, 0
2, 66514, Note_on_c, 0, 80, 89
2, 66519, Note_on_c, 0, 51, 74
2, 66662, Note_on_c, 0, 75, 0
2, 66662, Note_on_c, 0, 80, 0
2, 66667, Note_on_c, 0, 80, 88
2, 66670, Note_on_c, 0, 71, 0
2, 66673, Note_on_c, 0, 75, 77
2, 66675, Note_on_c, 0, 54, 72
2, 66678, Note_on_c, 0, 71, 73
2, 66826, Note_on_c, 0, 59, 72
2, 66973, Note_on_c, 0, 63, 78
2, 66973, Note_on_c, 0, 82, 87
2, 67107, Note_on_c, 0, 80, 0
2, 67112, Note_on_c, 0, 66, 76
2, 67117, Note_on_c, 0, 80, 88
2, 67230, Note_on_c, 0, 71, 0
2, 67236, Note_on_c, 0, 71, 76
2, 67258, Note_on_c, 0, 59, 0
2, 67263, Note_on_c, 0, 78, 86
2, 67385, Note_on_c, 0, 47, 0
2, 67385, Control_c, 0, 64, 0
2, 67386, Note_on_c, 0, 54, 0
2, 67386, Note_on_c, 0, 51, 0
2, 67386, Note_on_c, 0, 63, 0
2, 67387, Note_on_c, 0, 66, 0
2, 67387, Note_on_c, 0, 71, 0
2, 67387, Note_on_c, 0, 75, 0
2, 67387, Note_on_c, 0, 82, 0
2, 67387, Note_on_c, 0, 80, 0
2, 67399, Note_on_c, 0, 78, 0
2, 67409, Note_on_c, 0, 78, 97
2, 67412, Note_on_c, 0, 68, 84
2, 67416, Note_on_c, 0, 73, 87
2, 67427, Note_on_c, 0, 37, 62
2, 67468, Control_c, 0, 64, 127
2, 67482, Note_on_c, 0, 37, 0
2, 67559, Note_on_c, 0, 49, 67
2, 67700, Note_on_c, 0, 77, 88
2, 67707, Note_on_c, 0, 53, 70
2, 67837, Note_on_c, 0, 73, 0
2, 67845, Note_on_c, 0, 56, 77
2, 67845, Note_on_c, 0, 73, 91
2, 68000, Note_on_c, 0, 61, 76
2, 68136, Note_on_c, 0, 56, 0
2, 68147, Note_on_c, 0, 56, 64
2, 68282, Note_on_c, 0, 53, 0
2, 68290, Note_on_c, 0, 53, 66
2, 68421, Note_on_c, 0, 49, 0
2, 68425, Note_on_c, 0, 49, 61
2, 68546, Note_on_c, 0, 78, 0
2, 68547, Note_on_c, 0, 53, 0
2, 68547, Note_on_c, 0, 68, 0
2, 68547, Note_on_c, 0, 56, 0
2, 68547, Note_on_c, 0, 49, 0
2, 68548, Control_c, 0, 64, 0
2, 68548, Note_on_c, 0, 73, 0
2, 68548, Note_on_c, 0, 77, 0
2, 68548, Note_on_c, 0, 61, 0
2, 68581, Note_on_c, 0, 66, 86
2, 68583, Note_on_c, 0, 50, 78
2, 68584, Note_on_c, 0, 38, 74
2, 68620, Control_c, 0, 64, 127
2, 68682, Note_on_c, 0, 50, 0
2, 68720, Note_on_c, 0, 38, 0
2, 68740, Note_on_c, 0, 50, 72
2, 68809, Note_on_c, 0, 68, 89
2, 68902, Note_on_c, 0, 57, 62
2, 68904, Note_on_c, 0, 54, 60
2, 69020, Note_on_c, 0, 50, 0
2, 69026, Note_on_c, 0, 69, 85
2, 69030, Note_on_c, 0, 50, 69
2, 69128, Note_on_c, 0, 54, 0
2, 69128, Control_c, 0, 64, 0
2, 69129, Note_on_c, 0, 66, 0
2, 69130, Note_on_c, 0, 50, 0
2, 69130, Note_on_c, 0, 57, 0
2, 69131, Note_on_c, 0, 68, 0
2, 69183, Note_on_c, 0, 62, 81
2, 69184, Note_on_c, 0, 68, 87
2, 69184, Note_on_c, 0, 57, 66
2, 69188, Note_on_c, 0, 54, 73
2, 69223, Note_on_c, 0, 62, 0
2, 69224, Note_on_c, 0, 57, 0
2, 69227, Note_on_c, 0, 54, 0
2, 69227, Note_on_c, 0, 69, 0
2, 69331, Note_on_c, 0, 50, 66
2, 69404, Note_on_c, 0, 66, 82
2, 69423, Note_on_c, 0, 50, 0
2, 69490, Note_on_c, 0, 57, 71
2, 69502, Note_on_c, 0, 54, 67
2, 69548, Note_on_c, 0, 54, 0
2, 69556, Note_on_c, 0, 57, 0
2, 69624, Note_on_c, 0, 64, 81
2, 69648, Note_on_c, 0, 50, 69
2, 69661, Note_on_c, 0, 66, 0
2, 69672, Note_on_c, 0, 68, 0
2, 69692, Note_on_c, 0, 64, 0
2, 69725, Note_on_c, 0, 50, 0
2, 69782, Note_on_c, 0, 64, 85
2, 69783, Note_on_c, 0, 57, 77
2, 69784, Note_on_c, 0, 62, 82
2, 69787, Note_on_c, 0, 54, 77
2, 69825, Note_on_c, 0, 54, 0
2, 69827, Note_on_c, 0, 57, 0
2, 69872, Note_on_c, 0, 62, 0
2, 69932, Note_on_c, 0, 50, 72
2, 70012, Note_on_c, 0, 66, 87
2, 70015, Note_on_c, 0, 50, 0
2, 70037, Note_on_c, 0, 64, 0
2, 70098, Note_on_c, 0, 54, 74
2, 70099, Note_on_c, 0, 57, 63
2, 70147, Note_on_c, 0, 54, 0
2, 70151, Note_on_c, 0, 57, 0
2, 70236, Note_on_c, 0, 61, 85
2, 70243, Note_on_c, 0, 66, 0
2, 70243, Note_on_c, 0, 50, 74
2, 70307, Note_on_c, 0, 50, 0
2, 70382, Note_on_c, 0, 62, 83
2, 70382, Note_on_c, 0, 57, 76
2, 70385, Note_on_c, 0, 54, 76
2, 70423, Note_on_c, 0, 57, 0
2, 70427, Note_on_c, 0, 54, 0
2, 70530, Note_on_c, 0, 50, 72
2, 70605, Note_on_c, 0, 50, 0
2, 70617, Note_on_c, 0, 62, 0
2, 70678, Note_on_c, 0, 57, 71
2, 70680, Note_on_c, 0, 54, 73
2, 70697, Note_on_c, 0, 61, 0
2, 70720, Note_on_c, 0, 54, 0
2, 70720, Note_on_c, 0, 57, 0
2, 70819, Note_on_c, 0, 50, 82
2, 70881, Note_on_c, 0, 50, 0
2, 70967, Note_on_c, 0, 78, 100
2, 70967, Note_on_c, 0, 52, 81
2, 70970, Note_on_c, 0, 40, 78
2, 70973, Note_on_c, 0, 66, 92
2, 71001, Control_c, 0, 64, 127
2, 71078, Note_on_c, 0, 52, 0
2, 71120, Note_on_c, 0, 52, 80
2, 71205, Note_on_c, 0, 80, 90
2, 71209, Note_on_c, 0, 68, 86
2, 71274, Note_on_c, 0, 56, 77
2, 71275, Note_on_c, 0, 59, 67
2, 71408, Note_on_c, 0, 52, 0
2, 71413, Note_on_c, 0, 82, 93
2, 71419, Note_on_c, 0, 52, 75
2, 71420, Note_on_c, 0, 70, 88
2, 71527, Control_c, 0, 64, 0
2, 71528, Note_on_c, 0, 66, 0
2, 71528, Note_on_c, 0, 68, 0
2, 71529, Note_on_c, 0, 56, 0
2, 71529, Note_on_c, 0, 40, 0
2, 71529, Note_on_c, 0, 82, 0
2, 71529, Note_on_c, 0, 52, 0
2, 71529, Note_on_c, 0, 78, 0
2, 71530, Note_on_c, 0, 59, 0
2, 71530, Note_on_c, 0, 70, 0
2, 71554, Note_on_c, 0, 80, 0
2, 71565, Note_on_c, 0, 80, 96
2, 71566, Note_on_c, 0, 64, 78
2, 71566, Note_on_c, 0, 52, 69
2, 71569, Note_on_c, 0, 56, 75
2, 71571, Note_on_c, 0, 68, 91
2, 71572, Note_on_c, 0, 59, 71
2, 71610, Note_on_c, 0, 64, 0
2, 71616, Note_on_c, 0, 59, 0
2, 71617, Note_on_c, 0, 56, 0
2, 71623, Note_on_c, 0, 52, 0
2, 71712, Note_on_c, 0, 52, 69
2, 71765, Note_on_c, 0, 52, 0
2, 71786, Note_on_c, 0, 78, 95
2, 71795, Note_on_c, 0, 66, 85
2, 71815, Control_c, 0, 64, 127
2, 71850, Note_on_c, 0, 56, 72
2, 71856, Note_on_c, 0, 59, 63
2, 71953, Note_on_c, 0, 68, 0
2, 71994, Note_on_c, 0, 76, 90
2, 71997, Note_on_c, 0, 64, 78
2, 71997, Note_on_c, 0, 52, 75
2, 72138, Note_on_c, 0, 56, 0
2, 72139, Control_c, 0, 64, 0
2, 72144, Note_on_c, 0, 83, 100
2, 72145, Note_on_c, 0, 52, 0
2, 72145, Note_on_c, 0, 59, 0
2, 72149, Note_on_c, 0, 56, 75
2, 72150, Note_on_c, 0, 52, 69
2, 72150, Note_on_c, 0, 59, 78
2, 72152, Note_on_c, 0, 71, 87
2, 72155, Note_on_c, 0, 68, 80
2, 72170, Note_on_c, 0, 64, 0
2, 72172, Note_on_c, 0, 66, 0
2, 72172, Note_on_c, 0, 78, 0
2, 72173, Note_on_c, 0, 76, 0
2, 72192, Note_on_c, 0, 80, 0
2, 72215, Note_on_c, 0, 52, 0
2, 72222, Note_on_c, 0, 56, 0
2, 72238, Note_on_c, 0, 59, 0
2, 72301, Note_on_c, 0, 52, 75
2, 72384, Control_c, 0, 64, 127
2, 72444, Note_on_c, 0, 56, 79
2, 72447, Note_on_c, 0, 59, 70
2, 72583, Note_on_c, 0, 52, 0
2, 72593, Note_on_c, 0, 52, 72
2, 72729, Note_on_c, 0, 85, 99
2, 72729, Note_on_c, 0, 52, 0
2, 72735, Note_on_c, 0, 64, 83
2, 72736, Note_on_c, 0, 73, 92
2, 72737, Note_on_c, 0, 56, 0
2, 72737, Note_on_c, 0, 59, 0
2, 72737, Note_on_c, 0, 68, 0
2, 72740, Note_on_c, 0, 52, 77
2, 72741, Note_on_c, 0, 68, 76
2, 72746, Note_on_c, 0, 56, 75
2, 72748, Note_on_c, 0, 59, 72
2, 72860, Note_on_c, 0, 71, 0
2, 72875, Note_on_c, 0, 52, 0
2, 72881, Note_on_c, 0, 52, 71
2, 73029, Note_on_c, 0, 56, 0
2, 73029, Note_on_c, 0, 59, 0
2, 73029, Note_on_c, 0, 68, 0
2, 73033, Note_on_c, 0, 71, 70
2, 73035, Note_on_c, 0, 56, 72
2, 73036, Note_on_c, 0, 68, 66
2, 73036, Note_on_c, 0, 59, 72
2, 73262, Note_on_c, 0, 64, 0
2, 73262, Note_on_c, 0, 52, 0
2, 73262, Note_on_c, 0, 59, 0
2, 73262, Note_on_c, 0, 68, 0
2, 73262, Control_c, 0, 64, 0
2, 73262, Note_on_c, 0, 71, 0
2, 73263, Note_on_c, 0, 56, 0
2, 73263, Note_on_c, 0, 73, 0
2, 73263, Note_on_c, 0, 85, 0
2, 73263, Note_on_c, 0, 83, 0
2, 73319, Note_on_c, 0, 85, 103
2, 73319, Note_on_c, 0, 80, 91
2, 73320, Note_on_c, 0, 73, 101
2, 73324, Note_on_c, 0, 33, 86
2, 73325, Note_on_c, 0, 45, 89
2, 73325, Note_on_c, 0, 76, 89
2, 73351, Control_c, 0, 64, 127
2, 73474, Note_on_c, 0, 45, 0
2, 73480, Note_on_c, 0, 45, 71
2, 73594, Note_on_c, 0, 52, 77
2, 73627, Note_on_c, 0, 61, 88
2, 73774, Note_on_c, 0, 45, 0
2, 73784, Note_on_c, 0, 45, 69
2, 73904, Note_on_c, 0, 52, 0
2, 73915, Note_on_c, 0, 52, 69
2, 74077, Note_on_c, 0, 63, 85
2, 74079, Note_on_c, 0, 57, 67
2, 74211, Note_on_c, 0, 45, 0
2, 74223, Note_on_c, 0, 45, 59
2, 74350, Note_on_c, 0, 45, 0
2, 74355, Note_on_c, 0, 45, 64
2, 74419, Note_on_c, 0, 52, 0
2, 74423, Note_on_c, 0, 52, 66
2, 74519, Note_on_c, 0, 57, 0
2, 74522, Note_on_c, 0, 64, 88
2, 74525, Note_on_c, 0, 57, 67
2, 74657, Note_on_c, 0, 45, 0
2, 74666, Note_on_c, 0, 45, 61
2, 74818, Note_on_c, 0, 52, 0
2, 74826, Note_on_c, 0, 52, 66
2, 74964, Note_on_c, 0, 57, 0
2, 74974, Note_on_c, 0, 66, 84
2, 74974, Note_on_c, 0, 57, 74
2, 75110, Note_on_c, 0, 45, 0
2, 75120, Note_on_c, 0, 45, 68
2, 75194, Note_on_c, 0, 33, 0
2, 75217, Note_on_c, 0, 52, 0
2, 75222, Note_on_c, 0, 52, 61
2, 75266, Note_on_c, 0, 68, 93
2, 75294, Note_on_c, 0, 57, 0
2, 75303, Note_on_c, 0, 57, 73
2, 75368, Note_on_c, 0, 66, 0
2, 75368, Note_on_c, 0, 63, 0
2, 75368, Note_on_c, 0, 52, 0
2, 75369, Note_on_c, 0, 85, 0
2, 75369, Note_on_c, 0, 80, 0
2, 75369, Note_on_c, 0, 76, 0
2, 75369, Note_on_c, 0, 64, 0
2, 75369, Note_on_c, 0, 73, 0
2, 75369, Note_on_c, 0, 45, 0
2, 75369, Note_on_c, 0, 61, 0
2, 75378, Control_c, 0, 64, 0
2, 75383, Note_on_c, 0, 68, 0
2, 75411, Note_on_c, 0, 47, 69
2, 75418, Note_on_c, 0, 69, 83
2, 75456, Control_c, 0, 64, 127
2, 75543, Note_on_c, 0, 54, 79
2, 75582, Note_on_c, 0, 71, 84
2, 75617, Note_on_c, 0, 57, 0
2, 75621, Note_on_c, 0, 69, 0
2, 75621, Note_on_c, 0, 47, 0
2, 75622, Control_c, 0, 64, 0
2, 75623, Note_on_c, 0, 54, 0
2, 75703, Note_on_c, 0, 49, 79
2, 75704, Note_on_c, 0, 37, 73
2, 75724, Control_c, 0, 64, 127
2, 75855, Note_on_c, 0, 49, 0
2, 75859, Note_on_c, 0, 49, 70
2, 75937, Note_on_c, 0, 56, 76
2, 76023, Note_on_c, 0, 76, 93
2, 76024, Note_on_c, 0, 64, 83
2, 76027, Note_on_c, 0, 68, 92
2, 76170, Note_on_c, 0, 49, 0
2, 76174, Note_on_c, 0, 49, 74
2, 76293, Note_on_c, 0, 56, 0
2, 76303, Note_on_c, 0, 56, 78
2, 76462, Note_on_c, 0, 64, 0
2, 76470, Note_on_c, 0, 64, 81
2, 76471, Note_on_c, 0, 75, 88
2, 76608, Note_on_c, 0, 49, 0
2, 76619, Note_on_c, 0, 49, 64
2, 76738, Note_on_c, 0, 49, 0
2, 76744, Note_on_c, 0, 49, 68
2, 76838, Note_on_c, 0, 56, 0
2, 76848, Note_on_c, 0, 56, 73
2, 76899, Note_on_c, 0, 68, 0
2, 76899, Note_on_c, 0, 71, 0
2, 76903, Note_on_c, 0, 71, 88
2, 76907, Note_on_c, 0, 64, 0
2, 76907, Note_on_c, 0, 68, 82
2, 76915, Note_on_c, 0, 64, 76
2, 77053, Note_on_c, 0, 49, 0
2, 77064, Note_on_c, 0, 49, 65
2, 77191, Note_on_c, 0, 56, 0
2, 77199, Note_on_c, 0, 56, 77
2, 77352, Note_on_c, 0, 64, 0
2, 77356, Note_on_c, 0, 73, 93
2, 77358, Note_on_c, 0, 64, 79
2, 77506, Note_on_c, 0, 49, 0
2, 77517, Note_on_c, 0, 49, 67
2, 77644, Note_on_c, 0, 75, 0
2, 77652, Note_on_c, 0, 56, 0
2, 77655, Note_on_c, 0, 75, 90
2, 77662, Note_on_c, 0, 56, 57
2, 77683, Note_on_c, 0, 64, 0
2, 77694, Note_on_c, 0, 64, 70
2, 77806, Note_on_c, 0, 76, 0
2, 77810, Note_on_c, 0, 47, 72
2, 77810, Note_on_c, 0, 76, 91
2, 77941, Note_on_c, 0, 54, 78
2, 77957, Note_on_c, 0, 78, 95
2, 78057, Note_on_c, 0, 56, 0
2, 78057, Control_c, 0, 64, 0
2, 78057, Note_on_c, 0, 68, 0
2, 78057, Note_on_c, 0, 49, 0
2, 78058, Note_on_c, 0, 73, 0
2, 78058, Note_on_c, 0, 37, 0
2, 78058, Note_on_c, 0, 76, 0
2, 78058, Note_on_c, 0, 47, 0
2, 78058, Note_on_c, 0, 54, 0
2, 78059, Note_on_c, 0, 71, 0
2, 78060, Note_on_c, 0, 75, 0
2, 78074, Note_on_c, 0, 64, 0
2, 78090, Note_on_c, 0, 33, 81
2, 78093, Note_on_c, 0, 45, 91
2, 78128, Note_on_c, 0, 33, 0
2, 78151, Control_c, 0, 64, 127
2, 78327, Note_on_c, 0, 52, 72
2, 78406, Note_on_c, 0, 80, 97
2, 78417, Note_on_c, 0, 76, 84
2, 78418, Note_on_c, 0, 69, 83
2, 78422, Note_on_c, 0, 73, 85
2, 78424, Note_on_c, 0, 57, 74
2, 78551, Note_on_c, 0, 45, 0
2, 78556, Note_on_c, 0, 45, 69
2, 78681, Note_on_c, 0, 52, 0
2, 78691, Note_on_c, 0, 52, 69
2, 78835, Note_on_c, 0, 45, 0
2, 78835, Note_on_c, 0, 57, 0
2, 78842, Note_on_c, 0, 78, 0
2, 78844, Note_on_c, 0, 57, 71
2, 78846, Note_on_c, 0, 45, 69
2, 78853, Note_on_c, 0, 78, 88
2, 78981, Note_on_c, 0, 45, 0
2, 78990, Note_on_c, 0, 45, 78
2, 79119, Note_on_c, 0, 45, 0
2, 79130, Note_on_c, 0, 45, 78
2, 79219, Note_on_c, 0, 52, 0
2, 79229, Note_on_c, 0, 52, 70
2, 79288, Note_on_c, 0, 76, 0
2, 79296, Note_on_c, 0, 69, 0
2, 79296, Note_on_c, 0, 73, 0
2, 79298, Note_on_c, 0, 76, 94
2, 79299, Note_on_c, 0, 73, 97
2, 79303, Note_on_c, 0, 57, 0
2, 79304, Note_on_c, 0, 69, 83
2, 79313, Note_on_c, 0, 57, 83
2, 79457, Note_on_c, 0, 45, 0
2, 79468, Note_on_c, 0, 45, 72
2, 79595, Note_on_c, 0, 52, 0
2, 79605, Note_on_c, 0, 52, 70
2, 79756, Note_on_c, 0, 57, 0
2, 79762, Note_on_c, 0, 57, 74
2, 79767, Note_on_c, 0, 83, 99
2, 79774, Note_on_c, 0, 71, 86
2, 79902, Note_on_c, 0, 45, 0
2, 79908, Note_on_c, 0, 45, 71
2, 80017, Note_on_c, 0, 52, 0
2, 80028, Note_on_c, 0, 52, 73
2, 80056, Note_on_c, 0, 80, 0
2, 80064, Note_on_c, 0, 68, 94
2, 80064, Note_on_c, 0, 80, 92
2, 80079, Note_on_c, 0, 57, 0
2, 80085, Note_on_c, 0, 57, 76
2, 80182, Note_on_c, 0, 68, 0
2, 80182, Note_on_c, 0, 83, 0
2, 80182, Note_on_c, 0, 80, 0
2, 80182, Note_on_c, 0, 78, 0
2, 80183, Note_on_c, 0, 73, 0
2, 80183, Note_on_c, 0, 57, 0
2, 80183, Note_on_c, 0, 76, 0
2, 80183, Note_on_c, 0, 45, 0
2, 80183, Control_c, 0, 64, 0
2, 80183, Note_on_c, 0, 71, 0
2, 80202, Note_on_c, 0, 52, 0
2, 80205, Note_on_c, 0, 47, 72
2, 80209, Note_on_c, 0, 69, 0
2, 80213, Note_on_c, 0, 81, 96
2, 80215, Note_on_c, 0, 69, 87
2, 80248, Control_c, 0, 64, 127
2, 80327, Note_on_c, 0, 54, 83
2, 80368, Note_on_c, 0, 83, 99
2, 80374, Note_on_c, 0, 71, 93
2, 80424, Note_on_c, 0, 47, 0
2, 80426, Control_c, 0, 64, 0
2, 80428, Note_on_c, 0, 81, 0
2, 80428, Note_on_c, 0, 69, 0
2, 80431, Note_on_c, 0, 54, 0
2, 80486, Control_c, 0, 64, 127
2, 80500, Note_on_c, 0, 49, 84
2, 80501, Note_on_c, 0, 37, 76
2, 80632, Note_on_c, 0, 49, 0
2, 80642, Note_on_c, 0, 49, 58
2, 80729, Note_on_c, 0, 56, 79
2, 80815, Note_on_c, 0, 64, 84
2, 80816, Note_on_c, 0, 83, 0
2, 80819, Note_on_c, 0, 88, 100
2, 80820, Note_on_c, 0, 76, 84
2, 80822, Note_on_c, 0, 83, 85
2, 80822, Note_on_c, 0, 80, 82
2, 80853, Control_c, 0, 64, 0
2, 80860, Note_on_c, 0, 71, 0
2, 80862, Note_on_c, 0, 49, 0
2, 80862, Note_on_c, 0, 56, 0
2, 80862, Note_on_c, 0, 88, 0
2, 80867, Note_on_c, 0, 88, 98
2, 80867, Note_on_c, 0, 49, 83
2, 80868, Note_on_c, 0, 56, 83
2, 80893, Control_c, 0, 64, 127
2, 80962, Note_on_c, 0, 49, 0
2, 80968, Note_on_c, 0, 49, 76
2, 81100, Note_on_c, 0, 56, 0
2, 81107, Note_on_c, 0, 56, 61
2, 81262, Note_on_c, 0, 64, 0
2, 81262, Note_on_c, 0, 80, 0
2, 81267, Note_on_c, 0, 64, 78
2, 81268, Note_on_c, 0, 61, 63
2, 81269, Note_on_c, 0, 80, 89
2, 81269, Note_on_c, 0, 83, 0
2, 81270, Note_on_c, 0, 75, 85
2, 81271, Note_on_c, 0, 87, 99
2, 81274, Note_on_c, 0, 83, 79
2, 81331, Note_on_c, 0, 76, 0
2, 81408, Note_on_c, 0, 49, 0
2, 81412, Note_on_c, 0, 49, 73
2, 81546, Note_on_c, 0, 49, 0
2, 81550, Note_on_c, 0, 49, 73
2, 81638, Note_on_c, 0, 56, 0
2, 81642, Note_on_c, 0, 56, 61
2, 81715, Note_on_c, 0, 83, 0
2, 81722, Note_on_c, 0, 80, 0
2, 81724, Note_on_c, 0, 83, 98
2, 81728, Note_on_c, 0, 52, 70
2, 81729, Note_on_c, 0, 80, 88
2, 81733, Note_on_c, 0, 76, 83
2, 81734, Note_on_c, 0, 71, 79
2, 81738, Note_on_c, 0, 52, 0
2, 81822, Note_on_c, 0, 37, 0
2, 81829, Note_on_c, 0, 87, 0
2, 81830, Note_on_c, 0, 56, 0
2, 81831, Control_c, 0, 64, 0
2, 81832, Note_on_c, 0, 75, 0
2, 81832, Note_on_c, 0, 88, 0
2, 81833, Note_on_c, 0, 64, 0
2, 81838, Note_on_c, 0, 49, 0
2, 81843, Note_on_c, 0, 49, 73
2, 81861, Note_on_c, 0, 61, 0
2, 81945, Control_c, 0, 64, 127
2, 81989, Note_on_c, 0, 56, 66
2, 81999, Note_on_c, 0, 49, 0
2, 82142, Note_on_c, 0, 85, 84
2, 82149, Note_on_c, 0, 73, 78
2, 82150, Note_on_c, 0, 61, 72
2, 82285, Note_on_c, 0, 64, 78
2, 82300, Note_on_c, 0, 87, 91
2, 82303, Note_on_c, 0, 75, 72
2, 82444, Note_on_c, 0, 76, 0
2, 82448, Note_on_c, 0, 88, 92
2, 82448, Note_on_c, 0, 68, 65
2, 82450, Note_on_c, 0, 76, 75
2, 82590, Note_on_c, 0, 71, 0
2, 82596, Note_on_c, 0, 78, 85
2, 82597, Note_on_c, 0, 90, 100
2, 82601, Note_on_c, 0, 71, 69
2, 82744, Note_on_c, 0, 92, 93
2, 82873, Control_c, 0, 64, 0
2, 82875, Note_on_c, 0, 87, 0
2, 82875, Note_on_c, 0, 85, 0
2, 82875, Note_on_c, 0, 73, 0
2, 82876, Note_on_c, 0, 78, 0
2, 82876, Note_on_c, 0, 61, 0
2, 82876, Note_on_c, 0, 76, 0
2, 82877, Note_on_c, 0, 75, 0
2, 82877, Note_on_c, 0, 56, 0
2, 82882, Note_on_c, 0, 71, 0
2, 82890, Note_on_c, 0, 64, 0
2, 82890, Note_on_c, 0, 80, 0
2, 82892, Note_on_c, 0, 71, 86
2, 82892, Note_on_c, 0, 57, 83
2, 82897, Note_on_c, 0, 68, 0
2, 82897, Note_on_c, 0, 83, 0
2, 82899, Note_on_c, 0, 95, 94
2, 82900, Note_on_c, 0, 64, 83
2, 82903, Note_on_c, 0, 83, 86
2, 82905, Note_on_c, 0, 88, 0
2, 82916, Note_on_c, 0, 88, 76
2, 82959, Control_c, 0, 64, 127
2, 83062, Note_on_c, 0, 73, 75
2, 83087, Note_on_c, 0, 87, 57
2, 83151, Note_on_c, 0, 92, 0
2, 83190, Note_on_c, 0, 76, 77
2, 83212, Note_on_c, 0, 83, 0
2, 83220, Note_on_c, 0, 83, 60
2, 83335, Note_on_c, 0, 71, 0
2, 83342, Note_on_c, 0, 71, 70
2, 83366, Note_on_c, 0, 88, 0
2, 83371, Note_on_c, 0, 88, 67
2, 83489, Note_on_c, 0, 73, 0
2, 83496, Note_on_c, 0, 73, 83
2, 83496, Note_on_c, 0, 87, 0
2, 83501, Note_on_c, 0, 87, 63
2, 83642, Note_on_c, 0, 57, 0
2, 83642, Note_on_c, 0, 83, 0
2, 83647, Note_on_c, 0, 83, 68
2, 83647, Note_on_c, 0, 57, 74
2, 83685, Note_on_c, 0, 71, 0
2, 83685, Note_on_c, 0, 95, 0
2, 83685, Note_on_c, 0, 64, 0
2, 83686, Note_on_c, 0, 87, 0
2, 83689, Control_c, 0, 64, 0
2, 83704, Note_on_c, 0, 90, 0
2, 83758, Control_c, 0, 64, 127
2, 83791, Note_on_c, 0, 64, 75
2, 83794, Note_on_c, 0, 71, 74
2, 83796, Note_on_c, 0, 88, 0
2, 83807, Note_on_c, 0, 88, 70
2, 83942, Note_on_c, 0, 76, 0
2, 83946, Note_on_c, 0, 76, 75
2, 83948, Note_on_c, 0, 87, 71
2, 84088, Note_on_c, 0, 83, 0
2, 84089, Note_on_c, 0, 78, 82
2, 84092, Note_on_c, 0, 83, 73
2, 84241, Note_on_c, 0, 73, 0
2, 84241, Note_on_c, 0, 88, 0
2, 84246, Note_on_c, 0, 73, 69
2, 84247, Note_on_c, 0, 88, 72
2, 84372, Note_on_c, 0, 57, 0
2, 84380, Note_on_c, 0, 87, 0
2, 84382, Note_on_c, 0, 57, 74
2, 84389, Note_on_c, 0, 87, 74
2, 84541, Note_on_c, 0, 64, 0
2, 84541, Note_on_c, 0, 73, 0
2, 84541, Note_on_c, 0, 83, 0
2, 84545, Note_on_c, 0, 83, 71
2, 84546, Note_on_c, 0, 64, 75
2, 84549, Note_on_c, 0, 73, 71
2, 84679, Note_on_c, 0, 76, 0
2, 84687, Note_on_c, 0, 88, 0
2, 84690, Note_on_c, 0, 76, 75
2, 84692, Note_on_c, 0, 88, 70
2, 84817, Note_on_c, 0, 71, 0
2, 84828, Note_on_c, 0, 71, 76
2, 84868, Note_on_c, 0, 90, 92
2, 84984, Note_on_c, 0, 59, 76
2, 84986, Note_on_c, 0, 88, 0
2, 84990, Note_on_c, 0, 66, 76
2, 84991, Note_on_c, 0, 88, 81
2, 84998, Note_on_c, 0, 87, 0
2, 84998, Note_on_c, 0, 78, 0
2, 84999, Note_on_c, 0, 57, 0
2, 84999, Note_on_c, 0, 71, 0
2, 84999, Note_on_c, 0, 64, 0
2, 84999, Note_on_c, 0, 83, 0
2, 85001, Note_on_c, 0, 73, 0
2, 85003, Control_c, 0, 64, 0
2, 85017, Note_on_c, 0, 76, 0
2, 85094, Control_c, 0, 64, 127
2, 85134, Note_on_c, 0, 71, 80
2, 85135, Note_on_c, 0, 83, 80
2, 85194, Note_on_c, 0, 90, 0
2, 85205, Note_on_c, 0, 90, 38
2, 85291, Note_on_c, 0, 61, 85
2, 85292, Note_on_c, 0, 73, 86
2, 85416, Note_on_c, 0, 88, 0
2, 85428, Note_on_c, 0, 88, 76
2, 85436, Note_on_c, 0, 68, 72
2, 85578, Note_on_c, 0, 61, 0
2, 85578, Note_on_c, 0, 73, 0
2, 85584, Note_on_c, 0, 61, 75
2, 85585, Note_on_c, 0, 73, 87
2, 85589, Note_on_c, 0, 59, 0
2, 85589, Note_on_c, 0, 68, 0
2, 85590, Note_on_c, 0, 66, 0
2, 85590, Note_on_c, 0, 83, 0
2, 85590, Note_on_c, 0, 71, 0
2, 85590, Control_c, 0, 64, 0
2, 85616, Note_on_c, 0, 87, 76
2, 85616, Note_on_c, 0, 90, 0
2, 85731, Control_c, 0, 64, 127
2, 85746, Note_on_c, 0, 71, 68
2, 85750, Note_on_c, 0, 83, 74
2, 85870, Note_on_c, 0, 73, 0
2, 85881, Note_on_c, 0, 73, 76
2, 85893, Note_on_c, 0, 88, 0
2, 85897, Note_on_c, 0, 88, 74
2, 86031, Note_on_c, 0, 87, 0
2, 86034, Note_on_c, 0, 75, 78
2, 86036, Note_on_c, 0, 87, 82
2, 86169, Note_on_c, 0, 61, 0
2, 86177, Note_on_c, 0, 83, 0
2, 86180, Note_on_c, 0, 61, 74
2, 86187, Note_on_c, 0, 83, 69
2, 86330, Note_on_c, 0, 88, 0
2, 86335, Note_on_c, 0, 68, 86
2, 86336, Note_on_c, 0, 88, 78
2, 86469, Note_on_c, 0, 61, 0
2, 86477, Note_on_c, 0, 61, 76
2, 86496, Note_on_c, 0, 71, 0
2, 86499, Note_on_c, 0, 87, 0
2, 86501, Note_on_c, 0, 73, 0
2, 86501, Control_c, 0, 64, 0
2, 86503, Note_on_c, 0, 68, 0
2, 86504, Note_on_c, 0, 87, 71
2, 86505, Note_on_c, 0, 75, 0
2, 86515, Note_on_c, 0, 83, 0
2, 86553, Control_c, 0, 64, 127
2, 86634, Note_on_c, 0, 83, 75
2, 86635, Note_on_c, 0, 71, 82
2, 86781, Note_on_c, 0, 90, 88
2, 86784, Note_on_c, 0, 71, 0
2, 86790, Note_on_c, 0, 71, 77
2, 86914, Note_on_c, 0, 88, 0
2, 86922, Note_on_c, 0, 61, 0
2, 86922, Note_on_c, 0, 88, 74
2, 86930, Note_on_c, 0, 61, 74
2, 87060, Note_on_c, 0, 83, 0
2, 87071, Note_on_c, 0, 83, 79
2, 87073, Note_on_c, 0, 64, 72
2, 87077, Note_on_c, 0, 87, 0
2, 87079, Note_on_c, 0, 61, 0
2, 87079, Note_on_c, 0, 71, 0
2, 87080, Control_c, 0, 64, 0
2, 87152, Control_c, 0, 64, 127
2, 87219, Note_on_c, 0, 63, 79
2, 87220, Note_on_c, 0, 95, 88
2, 87237, Note_on_c, 0, 88, 0
2, 87360, Note_on_c, 0, 64, 0
2, 87365, Note_on_c, 0, 88, 75
2, 87365, Note_on_c, 0, 64, 71
2, 87485, Note_on_c, 0, 66, 77
2, 87505, Note_on_c, 0, 83, 0
2, 87517, Note_on_c, 0, 83, 75
2, 87624, Note_on_c, 0, 88, 0
2, 87624, Note_on_c, 0, 63, 0
2, 87624, Note_on_c, 0, 95, 0
2, 87625, Control_c, 0, 64, 0
2, 87625, Note_on_c, 0, 66, 0
2, 87628, Note_on_c, 0, 90, 0
2, 87651, Note_on_c, 0, 64, 0
2, 87651, Note_on_c, 0, 83, 0
2, 87655, Note_on_c, 0, 57, 82
2, 87656, Note_on_c, 0, 71, 79
2, 87656, Note_on_c, 0, 64, 78
2, 87713, Control_c, 0, 64, 127
2, 87799, Note_on_c, 0, 88, 73
2, 87817, Note_on_c, 0, 73, 78
2, 87949, Note_on_c, 0, 87, 73
2, 87960, Note_on_c, 0, 76, 78
2, 87966, Note_on_c, 0, 88, 0
2, 87977, Note_on_c, 0, 88, 55
2, 88104, Note_on_c, 0, 71, 0
2, 88108, Note_on_c, 0, 83, 77
2, 88115, Note_on_c, 0, 71, 68
2, 88243, Note_on_c, 0, 73, 0
2, 88250, Note_on_c, 0, 88, 0
2, 88254, Note_on_c, 0, 73, 79
2, 88256, Note_on_c, 0, 88, 73
2, 88389, Note_on_c, 0, 57, 0
2, 88393, Note_on_c, 0, 57, 69
2, 88396, Note_on_c, 0, 87, 0
2, 88402, Note_on_c, 0, 87, 72
2, 88500, Note_on_c, 0, 57, 0
2, 88500, Note_on_c, 0, 88, 0
2, 88500, Note_on_c, 0, 87, 0
2, 88500, Note_on_c, 0, 64, 0
2, 88501, Note_on_c, 0, 73, 0
2, 88501, Note_on_c, 0, 76, 0
2, 88502, Control_c, 0, 64, 0
2, 88519, Note_on_c, 0, 83, 0
2, 88535, Note_on_c, 0, 71, 0
2, 88544, Note_on_c, 0, 64, 77
2, 88546, Note_on_c, 0, 71, 81
2, 88546, Note_on_c, 0, 83, 76
2, 88581, Control_c, 0, 64, 127
2, 88704, Note_on_c, 0, 76, 73
2, 88706, Note_on_c, 0, 88, 71
2, 88829, Note_on_c, 0, 78, 80
2, 88857, Note_on_c, 0, 87, 74
2, 88970, Note_on_c, 0, 73, 77
2, 88995, Note_on_c, 0, 83, 0
2, 89000, Note_on_c, 0, 83, 68
2, 89114, Note_on_c, 0, 57, 72
2, 89139, Note_on_c, 0, 90, 75
2, 89264, Note_on_c, 0, 64, 0
2, 89264, Note_on_c, 0, 76, 0
2, 89264, Note_on_c, 0, 88, 0
2, 89268, Note_on_c, 0, 64, 84
2, 89269, Note_on_c, 0, 76, 83
2, 89270, Note_on_c, 0, 88, 76
2, 89410, Note_on_c, 0, 78, 0
2, 89410, Note_on_c, 0, 83, 0
2, 89415, Note_on_c, 0, 83, 80
2, 89419, Note_on_c, 0, 78, 94
2, 89440, Note_on_c, 0, 69, 37
2, 89571, Note_on_c, 0, 71, 0
2, 89571, Note_on_c, 0, 90, 0
2, 89578, Note_on_c, 0, 71, 68
2, 89582, Note_on_c, 0, 90, 93
2, 89702, Note_on_c, 0, 88, 0
2, 89710, Note_on_c, 0, 71, 0
2, 89713, Note_on_c, 0, 88, 83
2, 89713, Note_on_c, 0, 59, 82
2, 89715, Note_on_c, 0, 71, 87
2, 89737, Control_c, 0, 64, 0
2, 89748, Note_on_c, 0, 83, 0
2, 89748, Note_on_c, 0, 64, 0
2, 89748, Note_on_c, 0, 73, 0
2, 89748, Note_on_c, 0, 87, 0
2, 89749, Note_on_c, 0, 76, 0
2, 89763, Note_on_c, 0, 57, 0
2, 89771, Note_on_c, 0, 78, 0
2, 89786, Note_on_c, 0, 69, 0
2, 89809, Control_c, 0, 64, 127
2, 89877, Note_on_c, 0, 83, 80
2, 89879, Note_on_c, 0, 66, 82
2, 90001, Note_on_c, 0, 66, 0
2, 90003, Control_c, 0, 64, 0
2, 90003, Note_on_c, 0, 83, 0
2, 90005, Note_on_c, 0, 59, 0
2, 90009, Note_on_c, 0, 88, 0
2, 90009, Note_on_c, 0, 90, 0
2, 90015, Note_on_c, 0, 76, 91
2, 90016, Note_on_c, 0, 88, 80
2, 90017, Note_on_c, 0, 52, 77
2, 90017, Note_on_c, 0, 71, 0
2, 90058, Note_on_c, 0, 52, 0
2, 90071, Control_c, 0, 64, 127
2, 90153, Note_on_c, 0, 64, 77
2, 90178, Note_on_c, 0, 88, 0
2, 90184, Note_on_c, 0, 88, 83
2, 90309, Note_on_c, 0, 64, 0
2, 90316, Note_on_c, 0, 76, 0
2, 90319, Note_on_c, 0, 87, 82
2, 90320, Note_on_c, 0, 64, 77
2, 90320, Note_on_c, 0, 76, 85
2, 90461, Note_on_c, 0, 83, 81
2, 90474, Note_on_c, 0, 71, 77
2, 90543, Note_on_c, 0, 87, 0
2, 90544, Control_c, 0, 64, 0
2, 90544, Note_on_c, 0, 76, 0
2, 90554, Note_on_c, 0, 88, 0
2, 90613, Note_on_c, 0, 76, 83
2, 90613, Note_on_c, 0, 88, 80
2, 90624, Control_c, 0, 64, 127
2, 90762, Note_on_c, 0, 76, 0
2, 90773, Note_on_c, 0, 76, 71
2, 90773, Note_on_c, 0, 87, 80
2, 90908, Note_on_c, 0, 83, 0
2, 90912, Note_on_c, 0, 59, 66
2, 90919, Note_on_c, 0, 83, 70
2, 91054, Note_on_c, 0, 76, 0
2, 91054, Note_on_c, 0, 88, 0
2, 91058, Note_on_c, 0, 76, 79
2, 91063, Note_on_c, 0, 66, 72
2, 91064, Note_on_c, 0, 88, 83
2, 91200, Note_on_c, 0, 71, 0
2, 91207, Note_on_c, 0, 87, 0
2, 91208, Note_on_c, 0, 71, 77
2, 91211, Note_on_c, 0, 87, 80
2, 91363, Note_on_c, 0, 78, 83
2, 91368, Note_on_c, 0, 83, 0
2, 91373, Note_on_c, 0, 83, 77
2, 91484, Note_on_c, 0, 78, 0
2, 91489, Note_on_c, 0, 78, 82
2, 91512, Note_on_c, 0, 90, 92
2, 91637, Note_on_c, 0, 88, 0
2, 91645, Note_on_c, 0, 59, 0
2, 91645, Note_on_c, 0, 71, 0
2, 91648, Note_on_c, 0, 88, 74
2, 91649, Note_on_c, 0, 59, 61
2, 91651, Note_on_c, 0, 71, 56
2, 91799, Note_on_c, 0, 59, 0
2, 91799, Note_on_c, 0, 64, 0
2, 91799, Note_on_c, 0, 83, 0
2, 91803, Note_on_c, 0, 64, 71
2, 91807, Note_on_c, 0, 76, 0
2, 91807, Note_on_c, 0, 71, 0
2, 91807, Note_on_c, 0, 66, 0
2, 91807, Note_on_c, 0, 90, 0
2, 91809, Note_on_c, 0, 59, 47
2, 91809, Note_on_c, 0, 83, 72
2, 91809, Control_c, 0, 64, 0
2, 91810, Note_on_c, 0, 87, 0
2, 91810, Note_on_c, 0, 78, 0
2, 91891, Control_c, 0, 64, 127
2, 91935, Note_on_c, 0, 63, 81
2, 92083, Note_on_c, 0, 64, 0
2, 92087, Note_on_c, 0, 90, 106
2, 92087, Note_on_c, 0, 64, 84
2, 92088, Note_on_c, 0, 78, 88
2, 92215, Note_on_c, 0, 66, 85
2, 92341, Control_c, 0, 64, 0
2, 92342, Note_on_c, 0, 90, 0
2, 92342, Note_on_c, 0, 66, 0
2, 92342, Note_on_c, 0, 78, 0
2, 92343, Note_on_c, 0, 64, 0
2, 92343, Note_on_c, 0, 63, 0
2, 92343, Note_on_c, 0, 88, 0
2, 92352, Note_on_c, 0, 59, 0
2, 92359, Note_on_c, 0, 83, 0
2, 92367, Note_on_c, 0, 68, 90
2, 92368, Note_on_c, 0, 92, 106
2, 92378, Note_on_c, 0, 64, 84
2, 92379, Note_on_c, 0, 61, 77
2, 92394, Note_on_c, 0, 57, 78
2, 92402, Note_on_c, 0, 68, 0
2, 92413, Note_on_c, 0, 64, 0
2, 92423, Note_on_c, 0, 57, 0
2, 92424, Note_on_c, 0, 88, 65
2, 92430, Note_on_c, 0, 61, 0
2, 92451, Control_c, 0, 64, 127
2, 92498, Note_on_c, 0, 85, 76
2, 92548, Note_on_c, 0, 81, 76
2, 92590, Control_c, 0, 64, 0
2, 92613, Note_on_c, 0, 92, 0
2, 92630, Note_on_c, 0, 76, 76
2, 92678, Note_on_c, 0, 57, 76
2, 92680, Note_on_c, 0, 49, 74
2, 92681, Note_on_c, 0, 52, 63
2, 92684, Note_on_c, 0, 73, 67
2, 92738, Note_on_c, 0, 69, 69
2, 92749, Note_on_c, 0, 57, 0
2, 92749, Note_on_c, 0, 49, 0
2, 92750, Note_on_c, 0, 85, 0
2, 92751, Note_on_c, 0, 52, 0
2, 92782, Control_c, 0, 64, 127
2, 92797, Note_on_c, 0, 88, 0
2, 92810, Note_on_c, 0, 64, 73
2, 92864, Note_on_c, 0, 61, 78
2, 92910, Note_on_c, 0, 57, 80
2, 92969, Control_c, 0, 64, 0
2, 92974, Note_on_c, 0, 81, 0
2, 92977, Note_on_c, 0, 61, 0
2, 92978, Note_on_c, 0, 64, 0
2, 92981, Note_on_c, 0, 57, 0
2, 92981, Note_on_c, 0, 73, 0
2, 92982, Note_on_c, 0, 45, 91
2, 92983, Note_on_c, 0, 33, 88
2, 93004, Note_on_c, 0, 76, 0
2, 93020, Note_on_c, 0, 69, 0
2, 93037, Note_on_c, 0, 45, 0
2, 93089, Control_c, 0, 64, 127
2, 93112, Note_on_c, 0, 33, 0
2, 93149, Note_on_c, 0, 81, 84
2, 93216, Note_on_c, 0, 85, 82
2, 93260, Note_on_c, 0, 88, 85
2, 93297, Note_on_c, 0, 92, 94
2, 93402, Control_c, 0, 64, 0
2, 93406, Note_on_c, 0, 81, 0
2, 93406, Note_on_c, 0, 92, 0
2, 93406, Note_on_c, 0, 85, 0
2, 93407, Note_on_c, 0, 88, 0
2, 93439, Note_on_c, 0, 47, 79
2, 93440, Note_on_c, 0, 71, 89
2, 93511, Control_c, 0, 64, 127
2, 93528, Note_on_c, 0, 54, 74
2, 93575, Note_on_c, 0, 59, 76
2, 93708, Note_on_c, 0, 64, 46
2, 93719, Note_on_c, 0, 64, 0
2, 93742, Note_on_c, 0, 76, 84
2, 93746, Note_on_c, 0, 88, 75
2, 93747, Note_on_c, 0, 66, 76
2, 93811, Note_on_c, 0, 71, 0
2, 93821, Note_on_c, 0, 71, 79
2, 93880, Note_on_c, 0, 76, 0
2, 93880, Note_on_c, 0, 88, 0
2, 93886, Note_on_c, 0, 88, 89
2, 93886, Note_on_c, 0, 76, 98
2, 93968, Control_c, 0, 64, 0
2, 93968, Note_on_c, 0, 59, 0
2, 93968, Note_on_c, 0, 66, 0
2, 93968, Note_on_c, 0, 54, 0
2, 93972, Note_on_c, 0, 47, 0
2, 93987, Note_on_c, 0, 71, 0
2, 94003, Note_on_c, 0, 76, 0
2, 94010, Note_on_c, 0, 88, 0
2, 94024, Note_on_c, 0, 49, 79
2, 94025, Note_on_c, 0, 71, 85
2, 94087, Control_c, 0, 64, 127
2, 94137, Note_on_c, 0, 56, 68
2, 94175, Note_on_c, 0, 59, 72
2, 94178, Note_on_c, 0, 76, 84
2, 94182, Note_on_c, 0, 88, 76
2, 94187, Note_on_c, 0, 88, 0
2, 94236, Note_on_c, 0, 64, 79
2, 94317, Note_on_c, 0, 78, 98
2, 94353, Note_on_c, 0, 68, 85
2, 94440, Note_on_c, 0, 71, 0
2, 94450, Note_on_c, 0, 71, 88
2, 94610, Note_on_c, 0, 80, 96
2, 94619, Note_on_c, 0, 68, 0
2, 94619, Note_on_c, 0, 59, 0
2, 94619, Note_on_c, 0, 49, 0
2, 94619, Note_on_c, 0, 56, 0
2, 94620, Control_c, 0, 64, 0
2, 94620, Note_on_c, 0, 64, 0
2, 94620, Note_on_c, 0, 76, 0
2, 94620, Note_on_c, 0, 78, 0
2, 94640, Note_on_c, 0, 71, 0
2, 94758, Note_on_c, 0, 68, 91
2, 94759, Note_on_c, 0, 57, 85
2, 94761, Note_on_c, 0, 92, 105
2, 94764, Note_on_c, 0, 61, 82
2, 94767, Note_on_c, 0, 64, 87
2, 94771, Control_c, 0, 64, 127
2, 94826, Note_on_c, 0, 88, 83
2, 94886, Note_on_c, 0, 85, 78
2, 94937, Note_on_c, 0, 81, 82
2, 95027, Note_on_c, 0, 76, 74
2, 95068, Note_on_c, 0, 49, 68
2, 95072, Note_on_c, 0, 52, 66
2, 95075, Note_on_c, 0, 73, 78
2, 95128, Note_on_c, 0, 69, 71
2, 95193, Note_on_c, 0, 64, 0
2, 95200, Note_on_c, 0, 64, 78
2, 95247, Note_on_c, 0, 61, 0
2, 95251, Note_on_c, 0, 61, 81
2, 95301, Note_on_c, 0, 57, 0
2, 95310, Note_on_c, 0, 57, 85
2, 95329, Note_on_c, 0, 52, 0
2, 95329, Note_on_c, 0, 88, 0
2, 95329, Note_on_c, 0, 92, 0
2, 95329, Note_on_c, 0, 80, 0
2, 95329, Note_on_c, 0, 76, 0
2, 95330, Note_on_c, 0, 64, 0
2, 95330, Note_on_c, 0, 69, 0
2, 95330, Note_on_c, 0, 85, 0
2, 95332, Note_on_c, 0, 81, 0
2, 95332, Note_on_c, 0, 68, 0
2, 95332, Note_on_c, 0, 49, 0
2, 95332, Note_on_c, 0, 73, 0
2, 95333, Note_on_c, 0, 61, 0
2, 95334, Control_c, 0, 64, 0
2, 95354, Note_on_c, 0, 57, 0
2, 95380, Note_on_c, 0, 33, 86
2, 95380, Note_on_c, 0, 45, 92
2, 95416, Control_c, 0, 64, 127
2, 95544, Note_on_c, 0, 81, 85
2, 95605, Note_on_c, 0, 85, 76
2, 95635, Note_on_c, 0, 88, 88
2, 95665, Note_on_c, 0, 92, 98
2, 95760, Note_on_c, 0, 92, 0
2, 95761, Note_on_c, 0, 45, 0
2, 95765, Note_on_c, 0, 81, 0
2, 95765, Note_on_c, 0, 85, 0
2, 95765, Note_on_c, 0, 88, 0
2, 95766, Control_c, 0, 64, 0
2, 95769, Note_on_c, 0, 33, 0
2, 95811, Note_on_c, 0, 47, 77
2, 95812, Note_on_c, 0, 71, 85
2, 95815, Control_c, 0, 64, 127
2, 95879, Note_on_c, 0, 54, 61
2, 95920, Note_on_c, 0, 59, 77
2, 95959, Note_on_c, 0, 83, 92
2, 96050, Note_on_c, 0, 62, 54
2, 96055, Note_on_c, 0, 64, 52
2, 96117, Note_on_c, 0, 81, 94
2, 96126, Note_on_c, 0, 65, 73
2, 96184, Note_on_c, 0, 71, 0
2, 96188, Note_on_c, 0, 71, 69
2, 96259, Note_on_c, 0, 80, 94
2, 96338, Note_on_c, 0, 64, 0
2, 96338, Note_on_c, 0, 62, 0
2, 96340, Note_on_c, 0, 54, 0
2, 96340, Note_on_c, 0, 71, 0
2, 96340, Note_on_c, 0, 65, 0
2, 96340, Note_on_c, 0, 83, 0
2, 96341, Note_on_c, 0, 59, 0
2, 96341, Note_on_c, 0, 81, 0
2, 96342, Control_c, 0, 64, 0
2, 96345, Note_on_c, 0, 47, 0
2, 96382, Note_on_c, 0, 80, 0
2, 96417, Note_on_c, 0, 78, 93
2, 96420, Note_on_c, 0, 49, 79
2, 96460, Control_c, 0, 64, 127
2, 96510, Note_on_c, 0, 56, 70
2, 96552, Note_on_c, 0, 78, 0
2, 96558, Note_on_c, 0, 78, 87
2, 96559, Note_on_c, 0, 59, 68
2, 96604, Note_on_c, 0, 64, 77
2, 96718, Note_on_c, 0, 80, 93
2, 96724, Note_on_c, 0, 68, 80
2, 96835, Note_on_c, 0, 71, 84
2, 96953, Note_on_c, 0, 64, 0
2, 96953, Note_on_c, 0, 59, 0
2, 96953, Note_on_c, 0, 49, 0
2, 96953, Note_on_c, 0, 68, 0
2, 96953, Control_c, 0, 64, 0
2, 96954, Note_on_c, 0, 80, 0
2, 96954, Note_on_c, 0, 56, 0
2, 96955, Note_on_c, 0, 78, 0
2, 97009, Note_on_c, 0, 73, 95
2, 97067, Note_on_c, 0, 71, 0
2, 97171, Note_on_c, 0, 46, 65
2, 97267, Control_c, 0, 64, 127
2, 97323, Note_on_c, 0, 54, 61
2, 97470, Note_on_c, 0, 61, 70
2, 97625, Note_on_c, 0, 64, 80
2, 97912, Note_on_c, 0, 61, 0
2, 97920, Note_on_c, 0, 61, 75
2, 98093, Note_on_c, 0, 58, 63
2, 98219, Note_on_c, 0, 54, 0
2, 98226, Note_on_c, 0, 54, 68
2, 98227, Note_on_c, 0, 68, 82
2, 98370, Note_on_c, 0, 46, 0
2, 98371, Note_on_c, 0, 54, 0
2, 98371, Note_on_c, 0, 73, 0
2, 98371, Note_on_c, 0, 58, 0
2, 98372, Note_on_c, 0, 64, 0
2, 98372, Control_c, 0, 64, 0
2, 98372, Note_on_c, 0, 61, 0
2, 98373, Note_on_c, 0, 68, 0
2, 98384, Note_on_c, 0, 68, 85
2, 98385, Note_on_c, 0, 45, 60
2, 98488, Control_c, 0, 64, 127
2, 98538, Note_on_c, 0, 54, 62
2, 98686, Note_on_c, 0, 80, 91
2, 98686, Note_on_c, 0, 61, 69
2, 98688, Note_on_c, 0, 45, 0
2, 98835, Note_on_c, 0, 64, 75
2, 99125, Note_on_c, 0, 61, 0
2, 99130, Note_on_c, 0, 61, 75
2, 99268, Note_on_c, 0, 57, 65
2, 99386, Note_on_c, 0, 54, 0
2, 99396, Note_on_c, 0, 54, 62
2, 99409, Note_on_c, 0, 80, 0
2, 99417, Note_on_c, 0, 68, 0
2, 99420, Note_on_c, 0, 80, 86
2, 99422, Note_on_c, 0, 68, 79
2, 99581, Note_on_c, 0, 42, 71
2, 99582, Note_on_c, 0, 80, 0
2, 99582, Note_on_c, 0, 54, 0
2, 99582, Note_on_c, 0, 68, 0
2, 99582, Note_on_c, 0, 64, 0
2, 99582, Note_on_c, 0, 83, 93
2, 99582, Note_on_c, 0, 61, 0
2, 99582, Note_on_c, 0, 57, 0
2, 99583, Control_c, 0, 64, 0
2, 99590, Note_on_c, 0, 76, 72
2, 99593, Note_on_c, 0, 73, 82
2, 99596, Note_on_c, 0, 71, 67
2, 99655, Control_c, 0, 64, 127
2, 99724, Note_on_c, 0, 49, 62
2, 99807, Note_on_c, 0, 81, 92
2, 99816, Note_on_c, 0, 73, 0
2, 99816, Note_on_c, 0, 76, 0
2, 99821, Note_on_c, 0, 69, 77
2, 99826, Note_on_c, 0, 73, 77
2, 99828, Note_on_c, 0, 76, 79
2, 99882, Note_on_c, 0, 52, 63
2, 100011, Note_on_c, 0, 80, 89
2, 100012, Note_on_c, 0, 57, 71
2, 100016, Note_on_c, 0, 73, 0
2, 100018, Note_on_c, 0, 68, 82
2, 100020, Note_on_c, 0, 73, 78
2, 100156, Note_on_c, 0, 52, 0
2, 100156, Note_on_c, 0, 80, 0
2, 100156, Note_on_c, 0, 69, 0
2, 100157, Note_on_c, 0, 68, 0
2, 100157, Note_on_c, 0, 49, 0
2, 100157, Note_on_c, 0, 71, 0
2, 100157, Note_on_c, 0, 83, 0
2, 100157, Note_on_c, 0, 57, 0
2, 100158, Control_c, 0, 64, 0
2, 100170, Note_on_c, 0, 42, 0
2, 100177, Note_on_c, 0, 76, 0
2, 100177, Note_on_c, 0, 81, 0
2, 100178, Note_on_c, 0, 47, 72
2, 100181, Note_on_c, 0, 81, 93
2, 100185, Note_on_c, 0, 73, 0
2, 100188, Note_on_c, 0, 69, 79
2, 100189, Note_on_c, 0, 76, 79
2, 100190, Note_on_c, 0, 73, 75
2, 100239, Control_c, 0, 64, 127
2, 100329, Note_on_c, 0, 54, 75
2, 100398, Note_on_c, 0, 80, 89
2, 100400, Note_on_c, 0, 76, 0
2, 100405, Note_on_c, 0, 76, 69
2, 100408, Note_on_c, 0, 73, 0
2, 100411, Note_on_c, 0, 68, 80
2, 100413, Note_on_c, 0, 73, 79
2, 100496, Note_on_c, 0, 59, 71
2, 100620, Note_on_c, 0, 63, 68
2, 100622, Note_on_c, 0, 78, 96
2, 100623, Note_on_c, 0, 73, 0
2, 100627, Note_on_c, 0, 73, 89
2, 100628, Note_on_c, 0, 66, 85
2, 100736, Note_on_c, 0, 69, 0
2, 100736, Note_on_c, 0, 81, 0
2, 100736, Note_on_c, 0, 47, 0
2, 100736, Note_on_c, 0, 54, 0
2, 100736, Note_on_c, 0, 66, 0
2, 100737, Control_c, 0, 64, 0
2, 100737, Note_on_c, 0, 68, 0
2, 100737, Note_on_c, 0, 76, 0
2, 100738, Note_on_c, 0, 80, 0
2, 100738, Note_on_c, 0, 59, 0
2, 100740, Note_on_c, 0, 63, 0
2, 100769, Note_on_c, 0, 78, 0
2, 100771, Note_on_c, 0, 49, 74
2, 100774, Note_on_c, 0, 78, 88
2, 100776, Note_on_c, 0, 73, 0
2, 100778, Note_on_c, 0, 66, 82
2, 100781, Note_on_c, 0, 73, 83
2, 100830, Control_c, 0, 64, 127
2, 100907, Note_on_c, 0, 66, 0
2, 100907, Note_on_c, 0, 78, 0
2, 100915, Note_on_c, 0, 49, 0
2, 100915, Note_on_c, 0, 73, 0
2, 100918, Note_on_c, 0, 66, 80
2, 100919, Note_on_c, 0, 78, 88
2, 100921, Note_on_c, 0, 73, 79
2, 100924, Note_on_c, 0, 49, 61
2, 100925, Note_on_c, 0, 56, 76
2, 101068, Note_on_c, 0, 80, 91
2, 101068, Note_on_c, 0, 49, 0
2, 101068, Note_on_c, 0, 73, 0
2, 101071, Note_on_c, 0, 61, 79
2, 101073, Note_on_c, 0, 49, 66
2, 101077, Note_on_c, 0, 73, 75
2, 101078, Note_on_c, 0, 68, 79
2, 101214, Note_on_c, 0, 68, 0
2, 101214, Note_on_c, 0, 73, 0
2, 101216, Note_on_c, 0, 65, 76
2, 101218, Note_on_c, 0, 77, 94
2, 101224, Note_on_c, 0, 68, 87
2, 101224, Note_on_c, 0, 73, 88
2, 101352, Note_on_c, 0, 73, 0
2, 101364, Note_on_c, 0, 73, 86
2, 101399, Note_on_c, 0, 68, 0
2, 101409, Note_on_c, 0, 68, 90
2, 101460, Note_on_c, 0, 65, 0
2, 101465, Note_on_c, 0, 65, 77
2, 101498, Note_on_c, 0, 49, 0
2, 101498, Note_on_c, 0, 61, 0
2, 101504, Note_on_c, 0, 61, 59
2, 101507, Note_on_c, 0, 49, 53
2, 101621, Note_on_c, 0, 53, 81
2, 101644, Note_on_c, 0, 49, 0
2, 101653, Note_on_c, 0, 49, 41
2, 101726, Note_on_c, 0, 44, 70
2, 101808, Note_on_c, 0, 41, 58
2, 101816, Note_on_c, 0, 29, 49
2, 101821, Note_on_c, 0, 29, 0
2, 101843, Note_on_c, 0, 37, 66
2, 101923, Note_on_c, 0, 80, 0
2, 101923, Note_on_c, 0, 68, 0
2, 101924, Note_on_c, 0, 65, 0
2, 101924, Note_on_c, 0, 56, 0
2, 101924, Note_on_c, 0, 78, 0
2, 101924, Note_on_c, 0, 49, 0
2, 101924, Note_on_c, 0, 77, 0
2, 101924, Note_on_c, 0, 44, 0
2, 101924, Note_on_c, 0, 61, 0
2, 101924, Note_on_c, 0, 37, 0
2, 101924, Note_on_c, 0, 53, 0
2, 101926, Control_c, 0, 64, 0
2, 101944, Note_on_c, 0, 41, 0
2, 101952, Note_on_c, 0, 66, 0
2, 101952, Note_on_c, 0, 73, 0
2, 101956, Note_on_c, 0, 73, 99
2, 101956, Note_on_c, 0, 30, 88
2, 101956, Note_on_c, 0, 66, 91
2, 101956, Note_on_c, 0, 42, 92
2, 101956, Note_on_c, 0, 61, 92
2, 101959, Note_on_c, 0, 70, 89
2, 102005, Control_c, 0, 64, 127
2, 102113, Note_on_c, 0, 66, 0
2, 102113, Note_on_c, 0, 70, 0
2, 102116, Note_on_c, 0, 78, 98
2, 102119, Note_on_c, 0, 70, 80
2, 102123, Note_on_c, 0, 66, 88
2, 102259, Note_on_c, 0, 54, 77
2, 102397, Note_on_c, 0, 54, 0
2, 102397, Note_on_c, 0, 61, 0
2, 102397, Note_on_c, 0, 66, 0
2, 102403, Note_on_c, 0, 66, 71
2, 102405, Note_on_c, 0, 54, 72
2, 102405, Note_on_c, 0, 70, 0
2, 102407, Note_on_c, 0, 61, 72
2, 102409, Note_on_c, 0, 82, 96
2, 102409, Note_on_c, 0, 58, 72
2, 102410, Note_on_c, 0, 70, 95
2, 102562, Note_on_c, 0, 80, 102
2, 102566, Note_on_c, 0, 73, 0
2, 102572, Note_on_c, 0, 68, 94
2, 102573, Note_on_c, 0, 77, 89
2, 102574, Note_on_c, 0, 73, 94
2, 102712, Note_on_c, 0, 30, 0
2, 102722, Note_on_c, 0, 30, 81
2, 102723, Note_on_c, 0, 42, 0
2, 102813, Note_on_c, 0, 54, 0
2, 102814, Note_on_c, 0, 82, 0
2, 102815, Note_on_c, 0, 58, 0
2, 102815, Note_on_c, 0, 68, 0
2, 102815, Note_on_c, 0, 66, 0
2, 102815, Note_on_c, 0, 78, 0
2, 102815, Note_on_c, 0, 80, 0
2, 102815, Note_on_c, 0, 70, 0
2, 102815, Control_c, 0, 64, 0
2, 102815, Note_on_c, 0, 73, 0
2, 102815, Note_on_c, 0, 61, 0
2, 102816, Note_on_c, 0, 77, 0
2, 102858, Note_on_c, 0, 30, 0
2, 102867, Note_on_c, 0, 73, 96
2, 102868, Note_on_c, 0, 61, 89
2, 102868, Note_on_c, 0, 66, 87
2, 102868, Note_on_c, 0, 42, 84
2, 102869, Note_on_c, 0, 30, 78
2, 102870, Note_on_c, 0, 70, 86
2, 102881, Control_c, 0, 64, 127
2, 103011, Note_on_c, 0, 42, 0
2, 103019, Note_on_c, 0, 66, 0
2, 103020, Note_on_c, 0, 78, 97
2, 103022, Note_on_c, 0, 42, 73
2, 103024, Note_on_c, 0, 66, 89
2, 103177, Note_on_c, 0, 54, 73
2, 103303, Note_on_c, 0, 54, 0
2, 103303, Note_on_c, 0, 66, 0
2, 103309, Note_on_c, 0, 66, 80
2, 103311, Note_on_c, 0, 61, 0
2, 103311, Note_on_c, 0, 70, 0
2, 103311, Note_on_c, 0, 54, 70
2, 103314, Note_on_c, 0, 82, 93
2, 103315, Note_on_c, 0, 61, 63
2, 103316, Note_on_c, 0, 58, 76
2, 103319, Note_on_c, 0, 70, 89
2, 103472, Note_on_c, 0, 58, 0
2, 103472, Note_on_c, 0, 73, 0
2, 103474, Note_on_c, 0, 80, 100
2, 103476, Note_on_c, 0, 68, 96
2, 103477, Note_on_c, 0, 77, 86
2, 103478, Note_on_c, 0, 58, 72
2, 103479, Note_on_c, 0, 73, 96
2, 103630, Note_on_c, 0, 37, 86
2, 103681, Note_on_c, 0, 54, 0
2, 103682, Note_on_c, 0, 42, 0
2, 103682, Note_on_c, 0, 66, 0
2, 103682, Note_on_c, 0, 61, 0
2, 103682, Note_on_c, 0, 68, 0
2, 103682, Note_on_c, 0, 80, 0
2, 103682, Note_on_c, 0, 58, 0
2, 103683, Note_on_c, 0, 77, 0
2, 103683, Note_on_c, 0, 73, 0
2, 103683, Note_on_c, 0, 70, 0
2, 103683, Note_on_c, 0, 78, 0
2, 103684, Control_c, 0, 64, 0
2, 103687, Note_on_c, 0, 30, 0
2, 103703, Note_on_c, 0, 82, 0
2, 103772, Control_c, 0, 64, 127
2, 103776, Note_on_c, 0, 65, 85
2, 103777, Note_on_c, 0, 73, 98
2, 103777, Note_on_c, 0, 61, 91
2, 103781, Note_on_c, 0, 68, 87
2, 103781, Note_on_c, 0, 49, 86
2, 103931, Note_on_c, 0, 78, 102
2, 103934, Note_on_c, 0, 66, 92
2, 104079, Note_on_c, 0, 49, 0
2, 104084, Note_on_c, 0, 49, 70
2, 104217, Note_on_c, 0, 61, 0
2, 104227, Note_on_c, 0, 61, 77
2, 104231, Note_on_c, 0, 82, 92
2, 104237, Note_on_c, 0, 53, 71
2, 104241, Note_on_c, 0, 70, 89
2, 104243, Note_on_c, 0, 56, 67
2, 104378, Note_on_c, 0, 68, 0
2, 104385, Note_on_c, 0, 80, 98
2, 104386, Note_on_c, 0, 73, 0
2, 104389, Note_on_c, 0, 68, 97
2, 104390, Note_on_c, 0, 73, 95
2, 104391, Note_on_c, 0, 77, 87
2, 104540, Note_on_c, 0, 37, 0
2, 104544, Note_on_c, 0, 37, 76
2, 104612, Note_on_c, 0, 53, 0
2, 104613, Note_on_c, 0, 65, 0
2, 104613, Note_on_c, 0, 70, 0
2, 104613, Note_on_c, 0, 82, 0
2, 104613, Note_on_c, 0, 56, 0
2, 104613, Note_on_c, 0, 68, 0
2, 104613, Note_on_c, 0, 49, 0
2, 104613, Note_on_c, 0, 78, 0
2, 104613, Note_on_c, 0, 66, 0
2, 104613, Note_on_c, 0, 61, 0
2, 104613, Note_on_c, 0, 80, 0
2, 104613, Control_c, 0, 64, 0
2, 104613, Note_on_c, 0, 73, 0
2, 104640, Note_on_c, 0, 77, 0
2, 104682, Note_on_c, 0, 73, 98
2, 104683, Note_on_c, 0, 61, 91
2, 104684, Note_on_c, 0, 49, 85
2, 104686, Control_c, 0, 64, 127
2, 104687, Note_on_c, 0, 65, 78
2, 104688, Note_on_c, 0, 68, 82
2, 104691, Note_on_c, 0, 56, 74
2, 104701, Note_on_c, 0, 56, 0
2, 104835, Note_on_c, 0, 78, 100
2, 104838, Note_on_c, 0, 66, 88
2, 104970, Note_on_c, 0, 49, 0
2, 104979, Note_on_c, 0, 49, 69
2, 105031, Note_on_c, 0, 37, 0
2, 105116, Note_on_c, 0, 61, 0
2, 105120, Note_on_c, 0, 61, 89
2, 105123, Note_on_c, 0, 49, 0
2, 105126, Note_on_c, 0, 56, 75
2, 105129, Note_on_c, 0, 82, 97
2, 105134, Note_on_c, 0, 49, 74
2, 105134, Note_on_c, 0, 53, 78
2, 105136, Note_on_c, 0, 70, 90
2, 105277, Note_on_c, 0, 68, 0
2, 105282, Note_on_c, 0, 80, 92
2, 105282, Note_on_c, 0, 68, 101
2, 105409, Note_on_c, 0, 53, 0
2, 105409, Note_on_c, 0, 70, 0
2, 105410, Note_on_c, 0, 49, 0
2, 105410, Note_on_c, 0, 73, 0
2, 105410, Note_on_c, 0, 61, 0
2, 105410, Note_on_c, 0, 56, 0
2, 105410, Control_c, 0, 64, 0
2, 105410, Note_on_c, 0, 82, 0
2, 105410, Note_on_c, 0, 78, 0
2, 105411, Note_on_c, 0, 66, 0
2, 105415, Note_on_c, 0, 65, 0
2, 105415, Note_on_c, 0, 68, 0
2, 105415, Note_on_c, 0, 80, 0
2, 105426, Note_on_c, 0, 68, 93
2, 105426, Note_on_c, 0, 80, 99
2, 105441, Note_on_c, 0, 37, 77
2, 105484, Control_c, 0, 64, 127
2, 105573, Note_on_c, 0, 78, 103
2, 105577, Note_on_c, 0, 49, 83
2, 105578, Note_on_c, 0, 66, 97
2, 105715, Note_on_c, 0, 49, 0
2, 105725, Note_on_c, 0, 49, 78
2, 105738, Note_on_c, 0, 37, 0
2, 105879, Note_on_c, 0, 85, 101
2, 105880, Note_on_c, 0, 73, 104
2, 105882, Note_on_c, 0, 61, 84
2, 105883, Note_on_c, 0, 56, 75
2, 105889, Note_on_c, 0, 53, 66
2, 106007, Note_on_c, 0, 49, 0
2, 106016, Note_on_c, 0, 49, 71
2, 106191, Note_on_c, 0, 68, 0
2, 106191, Note_on_c, 0, 73, 0
2, 106191, Note_on_c, 0, 78, 0
2, 106191, Note_on_c, 0, 85, 0
2, 106195, Note_on_c, 0, 85, 98
2, 106199, Note_on_c, 0, 80, 0
2, 106200, Note_on_c, 0, 66, 0
2, 106200, Note_on_c, 0, 56, 0
2, 106200, Note_on_c, 0, 61, 0
2, 106200, Note_on_c, 0, 49, 0
2, 106201, Note_on_c, 0, 73, 95
2, 106201, Note_on_c, 0, 53, 0
2, 106201, Control_c, 0, 64, 0
2, 106201, Note_on_c, 0, 78, 93
2, 106202, Note_on_c, 0, 39, 79
2, 106203, Note_on_c, 0, 75, 88
2, 106356, Note_on_c, 0, 46, 63
2, 106368, Control_c, 0, 64, 127
2, 106499, Note_on_c, 0, 51, 70
2, 106639, Note_on_c, 0, 54, 70
2, 106794, Note_on_c, 0, 58, 71
2, 106953, Note_on_c, 0, 63, 69
2, 106954, Note_on_c, 0, 83, 89
2, 106967, Note_on_c, 0, 51, 0
2, 106967, Note_on_c, 0, 58, 0
2, 106967, Note_on_c, 0, 73, 0
2, 106971, Note_on_c, 0, 73, 75
2, 106971, Note_on_c, 0, 51, 65
2, 106972, Note_on_c, 0, 39, 0
2, 106977, Note_on_c, 0, 58, 63
2, 107099, Note_on_c, 0, 82, 89
2, 107101, Note_on_c, 0, 66, 76
2, 107235, Note_on_c, 0, 78, 0
2, 107243, Note_on_c, 0, 58, 0
2, 107246, Note_on_c, 0, 78, 94
2, 107247, Note_on_c, 0, 58, 67
2, 107247, Note_on_c, 0, 70, 80
2, 107389, Note_on_c, 0, 75, 0
2, 107393, Note_on_c, 0, 80, 92
2, 107394, Note_on_c, 0, 75, 78
2, 107535, Note_on_c, 0, 58, 0
2, 107535, Note_on_c, 0, 70, 0
2, 107541, Note_on_c, 0, 58, 68
2, 107543, Note_on_c, 0, 82, 0
2, 107546, Note_on_c, 0, 70, 80
2, 107549, Note_on_c, 0, 82, 94
2, 107688, Note_on_c, 0, 66, 0
2, 107697, Note_on_c, 0, 66, 81
2, 107834, Note_on_c, 0, 63, 0
2, 107838, Note_on_c, 0, 63, 75
2, 107988, Note_on_c, 0, 58, 0
2, 107988, Note_on_c, 0, 78, 0
2, 107993, Note_on_c, 0, 78, 95
2, 107993, Note_on_c, 0, 58, 77
2, 108126, Note_on_c, 0, 54, 0
2, 108132, Note_on_c, 0, 54, 78
2, 108272, Note_on_c, 0, 51, 0
2, 108282, Note_on_c, 0, 51, 74
2, 108426, Note_on_c, 0, 46, 0
2, 108426, Note_on_c, 0, 78, 0
2, 108431, Note_on_c, 0, 46, 71
2, 108437, Note_on_c, 0, 78, 89
2, 108503, Note_on_c, 0, 46, 0
2, 108503, Note_on_c, 0, 78, 0
2, 108509, Note_on_c, 0, 46, 70
2, 108512, Note_on_c, 0, 78, 80
2, 108570, Note_on_c, 0, 73, 0
2, 108574, Note_on_c, 0, 46, 0
2, 108575, Note_on_c, 0, 63, 0
2, 108575, Note_on_c, 0, 54, 0
2, 108575, Note_on_c, 0, 82, 0
2, 108575, Note_on_c, 0, 70, 0
2, 108576, Control_c, 0, 64, 0
2, 108579, Note_on_c, 0, 80, 0
2, 108579, Note_on_c, 0, 83, 0
2, 108585, Note_on_c, 0, 80, 99
2, 108587, Note_on_c, 0, 75, 0
2, 108587, Note_on_c, 0, 85, 0
2, 108591, Note_on_c, 0, 35, 74
2, 108595, Note_on_c, 0, 51, 0
2, 108595, Note_on_c, 0, 58, 0
2, 108595, Note_on_c, 0, 66, 0
2, 108598, Note_on_c, 0, 75, 83
2, 108599, Note_on_c, 0, 71, 75
2, 108648, Note_on_c, 0, 78, 0
2, 108664, Control_c, 0, 64, 127
2, 108735, Note_on_c, 0, 47, 62
2, 108810, Note_on_c, 0, 35, 0
2, 108882, Note_on_c, 0, 51, 76
2, 109035, Note_on_c, 0, 54, 71
2, 109178, Note_on_c, 0, 71, 0
2, 109178, Note_on_c, 0, 75, 0
2, 109178, Note_on_c, 0, 80, 0
2, 109184, Note_on_c, 0, 80, 92
2, 109186, Note_on_c, 0, 75, 80
2, 109188, Note_on_c, 0, 59, 77
2, 109189, Note_on_c, 0, 71, 80
2, 109336, Note_on_c, 0, 63, 78
2, 109340, Note_on_c, 0, 82, 91
2, 109470, Note_on_c, 0, 80, 0
2, 109481, Note_on_c, 0, 80, 88
2, 109483, Note_on_c, 0, 66, 78
2, 109626, Note_on_c, 0, 78, 89
2, 109752, Control_c, 0, 64, 0
2, 109754, Note_on_c, 0, 78, 0
2, 109757, Note_on_c, 0, 47, 0
2, 109758, Note_on_c, 0, 82, 0
2, 109758, Note_on_c, 0, 51, 0
2, 109758, Note_on_c, 0, 63, 0
2, 109758, Note_on_c, 0, 80, 0
2, 109758, Note_on_c, 0, 54, 0
2, 109758, Note_on_c, 0, 75, 0
2, 109758, Note_on_c, 0, 59, 0
2, 109758, Note_on_c, 0, 71, 0
2, 109758, Note_on_c, 0, 66, 0
2, 109764, Note_on_c, 0, 78, 103
2, 109772, Note_on_c, 0, 68, 92
2, 109781, Note_on_c, 0, 73, 83
2, 109793, Note_on_c, 0, 37, 58
2, 109831, Control_c, 0, 64, 127
2, 109908, Note_on_c, 0, 49, 71
2, 110007, Note_on_c, 0, 77, 94
2, 110063, Note_on_c, 0, 53, 73
2, 110203, Note_on_c, 0, 56, 73
2, 110215, Note_on_c, 0, 73, 0
2, 110225, Note_on_c, 0, 73, 94
2, 110374, Note_on_c, 0, 66, 88
2, 110375, Note_on_c, 0, 61, 71
2, 110530, Note_on_c, 0, 56, 0
2, 110535, Note_on_c, 0, 56, 78
2, 110615, Note_on_c, 0, 65, 92
2, 110676, Note_on_c, 0, 53, 0
2, 110682, Note_on_c, 0, 53, 74
2, 110791, Note_on_c, 0, 49, 0
2, 110796, Note_on_c, 0, 49, 69
2, 110822, Note_on_c, 0, 61, 0
2, 110832, Note_on_c, 0, 61, 82
2, 110931, Note_on_c, 0, 78, 0
2, 110931, Note_on_c, 0, 37, 0
2, 110931, Note_on_c, 0, 77, 0
2, 110931, Note_on_c, 0, 53, 0
2, 110931, Note_on_c, 0, 49, 0
2, 110931, Note_on_c, 0, 65, 0
2, 110932, Note_on_c, 0, 68, 0
2, 110932, Note_on_c, 0, 66, 0
2, 110932, Note_on_c, 0, 56, 0
2, 110932, Note_on_c, 0, 61, 0
2, 110934, Control_c, 0, 64, 0
2, 110960, Note_on_c, 0, 73, 0
2, 110963, Note_on_c, 0, 61, 90
2, 110965, Note_on_c, 0, 73, 98
2, 110978, Note_on_c, 0, 66, 85
2, 110980, Note_on_c, 0, 42, 85
2, 110983, Note_on_c, 0, 70, 81
2, 110986, Note_on_c, 0, 30, 79
2, 111006, Control_c, 0, 64, 127
2, 111116, Note_on_c, 0, 78, 95
2, 111198, Note_on_c, 0, 66, 0
2, 111204, Note_on_c, 0, 66, 89
2, 111252, Note_on_c, 0, 78, 0
2, 111262, Note_on_c, 0, 78, 84
2, 111264, Note_on_c, 0, 54, 78
2, 111390, Note_on_c, 0, 66, 0
2, 111398, Note_on_c, 0, 66, 80
2, 111406, Note_on_c, 0, 61, 0
2, 111411, Note_on_c, 0, 61, 68
2, 111413, Note_on_c, 0, 70, 0
2, 111417, Note_on_c, 0, 58, 76
2, 111418, Note_on_c, 0, 82, 94
2, 111420, Note_on_c, 0, 70, 94
2, 111573, Note_on_c, 0, 80, 98
2, 111575, Note_on_c, 0, 73, 0
2, 111580, Note_on_c, 0, 77, 86
2, 111581, Note_on_c, 0, 68, 95
2, 111585, Note_on_c, 0, 73, 95
2, 111713, Note_on_c, 0, 30, 0
2, 111718, Note_on_c, 0, 30, 79
2, 111807, Note_on_c, 0, 73, 0
2, 111807, Note_on_c, 0, 68, 0
2, 111807, Note_on_c, 0, 58, 0
2, 111807, Control_c, 0, 64, 0
2, 111807, Note_on_c, 0, 61, 0
2, 111807, Note_on_c, 0, 66, 0
2, 111808, Note_on_c, 0, 82, 0
2, 111808, Note_on_c, 0, 80, 0
2, 111808, Note_on_c, 0, 70, 0
2, 111808, Note_on_c, 0, 77, 0
2, 111813, Note_on_c, 0, 42, 0
2, 111820, Note_on_c, 0, 54, 0
2, 111828, Note_on_c, 0, 78, 0
2, 111856, Note_on_c, 0, 61, 93
2, 111856, Note_on_c, 0, 73, 97
2, 111862, Note_on_c, 0, 66, 87
2, 111862, Note_on_c, 0, 42, 85
2, 111866, Note_on_c, 0, 70, 84
2, 111905, Control_c, 0, 64, 127
2, 112022, Note_on_c, 0, 78, 92
2, 112089, Note_on_c, 0, 66, 0
2, 112097, Note_on_c, 0, 66, 85
2, 112150, Note_on_c, 0, 54, 77
2, 112151, Note_on_c, 0, 78, 0
2, 112154, Note_on_c, 0, 78, 90
2, 112289, Note_on_c, 0, 66, 0
2, 112296, Note_on_c, 0, 54, 0
2, 112300, Note_on_c, 0, 66, 76
2, 112303, Note_on_c, 0, 54, 65
2, 112304, Note_on_c, 0, 61, 0
2, 112304, Note_on_c, 0, 70, 0
2, 112308, Note_on_c, 0, 61, 64
2, 112309, Note_on_c, 0, 82, 92
2, 112309, Note_on_c, 0, 58, 73
2, 112313, Note_on_c, 0, 70, 91
2, 112458, Note_on_c, 0, 73, 0
2, 112458, Note_on_c, 0, 80, 99
2, 112462, Note_on_c, 0, 68, 89
2, 112462, Note_on_c, 0, 77, 91
2, 112467, Note_on_c, 0, 73, 92
2, 112614, Note_on_c, 0, 37, 79
2, 112665, Note_on_c, 0, 30, 0
2, 112667, Note_on_c, 0, 54, 0
2, 112669, Note_on_c, 0, 58, 0
2, 112669, Note_on_c, 0, 66, 0
2, 112669, Note_on_c, 0, 61, 0
2, 112669, Note_on_c, 0, 82, 0
2, 112669, Note_on_c, 0, 68, 0
2, 112669, Note_on_c, 0, 70, 0
2, 112669, Note_on_c, 0, 73, 0
2, 112669, Control_c, 0, 64, 0
2, 112670, Note_on_c, 0, 80, 0
2, 112670, Note_on_c, 0, 78, 0
2, 112670, Note_on_c, 0, 77, 0
2, 112680, Note_on_c, 0, 42, 0
2, 112753, Note_on_c, 0, 73, 98
2, 112753, Note_on_c, 0, 61, 96
2, 112754, Note_on_c, 0, 68, 84
2, 112754, Note_on_c, 0, 65, 81
2, 112756, Note_on_c, 0, 49, 83
2, 112773, Control_c, 0, 64, 127
2, 112915, Note_on_c, 0, 78, 91
2, 113001, Note_on_c, 0, 66, 83
2, 113041, Note_on_c, 0, 78, 0
2, 113046, Note_on_c, 0, 78, 96
2, 113049, Note_on_c, 0, 49, 0
2, 113059, Note_on_c, 0, 49, 64
2, 113195, Note_on_c, 0, 61, 0
2, 113200, Note_on_c, 0, 61, 79
2, 113206, Note_on_c, 0, 82, 96
2, 113206, Note_on_c, 0, 53, 67
2, 113210, Note_on_c, 0, 49, 0
2, 113212, Note_on_c, 0, 70, 91
2, 113214, Note_on_c, 0, 56, 65
2, 113215, Note_on_c, 0, 49, 68
2, 113356, Note_on_c, 0, 68, 0
2, 113356, Note_on_c, 0, 73, 0
2, 113361, Note_on_c, 0, 80, 95
2, 113366, Note_on_c, 0, 68, 90
2, 113366, Note_on_c, 0, 77, 87
2, 113367, Note_on_c, 0, 73, 93
2, 113510, Note_on_c, 0, 37, 0
2, 113521, Note_on_c, 0, 37, 75
2, 113599, Note_on_c, 0, 82, 0
2, 113599, Note_on_c, 0, 68, 0
2, 113599, Note_on_c, 0, 66, 0
2, 113599, Note_on_c, 0, 70, 0
2, 113599, Note_on_c, 0, 73, 0
2, 113599, Note_on_c, 0, 78, 0
2, 113600, Note_on_c, 0, 61, 0
2, 113600, Note_on_c, 0, 80, 0
2, 113600, Note_on_c, 0, 56, 0
2, 113600, Note_on_c, 0, 65, 0
2, 113600, Note_on_c, 0, 53, 0
2, 113600, Control_c, 0, 64, 0
2, 113601, Note_on_c, 0, 37, 0
2, 113617, Note_on_c, 0, 49, 0
2, 113617, Note_on_c, 0, 77, 0
2, 113659, Note_on_c, 0, 73, 96
2, 113660, Note_on_c, 0, 61, 86
2, 113662, Note_on_c, 0, 68, 82
2, 113664, Note_on_c, 0, 65, 76
2, 113665, Note_on_c, 0, 49, 82
2, 113679, Control_c, 0, 64, 127
2, 113825, Note_on_c, 0, 78, 93
2, 113905, Note_on_c, 0, 66, 84
2, 113948, Note_on_c, 0, 49, 0
2, 113955, Note_on_c, 0, 78, 0
2, 113959, Note_on_c, 0, 49, 78
2, 113959, Note_on_c, 0, 78, 86
2, 114094, Note_on_c, 0, 61, 0
2, 114098, Note_on_c, 0, 61, 80
2, 114099, Note_on_c, 0, 82, 94
2, 114103, Note_on_c, 0, 56, 72
2, 114104, Note_on_c, 0, 70, 91
2, 114104, Note_on_c, 0, 53, 72
2, 114240, Note_on_c, 0, 68, 0
2, 114250, Note_on_c, 0, 80, 92
2, 114251, Note_on_c, 0, 68, 100
2, 114385, Note_on_c, 0, 80, 0
2, 114386, Note_on_c, 0, 65, 0
2, 114387, Note_on_c, 0, 49, 0
2, 114387, Note_on_c, 0, 70, 0
2, 114387, Note_on_c, 0, 61, 0
2, 114387, Note_on_c, 0, 53, 0
2, 114387, Note_on_c, 0, 56, 0
2, 114388, Note_on_c, 0, 82, 0
2, 114388, Note_on_c, 0, 66, 0
2, 114388, Note_on_c, 0, 73, 0
2, 114388, Note_on_c, 0, 78, 0
2, 114390, Control_c, 0, 64, 0
2, 114393, Note_on_c, 0, 68, 0
2, 114396, Note_on_c, 0, 80, 99
2, 114397, Note_on_c, 0, 68, 88
2, 114399, Note_on_c, 0, 37, 79
2, 114470, Control_c, 0, 64, 127
2, 114547, Note_on_c, 0, 49, 80
2, 114551, Note_on_c, 0, 78, 100
2, 114557, Note_on_c, 0, 66, 92
2, 114685, Note_on_c, 0, 49, 0
2, 114691, Note_on_c, 0, 49, 81
2, 114842, Note_on_c, 0, 85, 102
2, 114847, Note_on_c, 0, 73, 98
2, 114852, Note_on_c, 0, 61, 81
2, 114856, Note_on_c, 0, 56, 66
2, 114865, Note_on_c, 0, 53, 70
2, 114984, Note_on_c, 0, 49, 0
2, 114989, Note_on_c, 0, 49, 72
2, 115138, Note_on_c, 0, 37, 0
2, 115146, Note_on_c, 0, 85, 0
2, 115151, Note_on_c, 0, 68, 0
2, 115152, Note_on_c, 0, 61, 0
2, 115152, Note_on_c, 0, 80, 0
2, 115152, Note_on_c, 0, 66, 0
2, 115153, Note_on_c, 0, 49, 0
2, 115153, Control_c, 0, 64, 0
2, 115153, Note_on_c, 0, 53, 0
2, 115153, Note_on_c, 0, 73, 0
2, 115153, Note_on_c, 0, 78, 0
2, 115156, Note_on_c, 0, 85, 102
2, 115158, Note_on_c, 0, 73, 99
2, 115158, Note_on_c, 0, 39, 81
2, 115158, Note_on_c, 0, 78, 90
2, 115159, Note_on_c, 0, 75, 89
2, 115161, Note_on_c, 0, 56, 0
2, 115304, Note_on_c, 0, 46, 65
2, 115307, Control_c, 0, 64, 127
2, 115315, Note_on_c, 0, 39, 0
2, 115455, Note_on_c, 0, 51, 74
2, 115604, Note_on_c, 0, 54, 70
2, 115764, Note_on_c, 0, 58, 74
2, 115908, Note_on_c, 0, 83, 91
2, 115909, Note_on_c, 0, 63, 69
2, 116054, Note_on_c, 0, 82, 88
2, 116057, Note_on_c, 0, 66, 75
2, 116198, Note_on_c, 0, 58, 0
2, 116198, Note_on_c, 0, 78, 0
2, 116203, Note_on_c, 0, 58, 65
2, 116204, Note_on_c, 0, 70, 74
2, 116204, Note_on_c, 0, 78, 90
2, 116336, Note_on_c, 0, 75, 0
2, 116345, Note_on_c, 0, 75, 77
2, 116347, Note_on_c, 0, 80, 94
2, 116490, Note_on_c, 0, 58, 0
2, 116490, Note_on_c, 0, 70, 0
2, 116495, Note_on_c, 0, 58, 67
2, 116500, Note_on_c, 0, 70, 79
2, 116505, Note_on_c, 0, 82, 0
2, 116512, Note_on_c, 0, 82, 94
2, 116628, Note_on_c, 0, 66, 0
2, 116636, Note_on_c, 0, 66, 78
2, 116774, Note_on_c, 0, 63, 0
2, 116778, Note_on_c, 0, 63, 78
2, 116935, Note_on_c, 0, 58, 0
2, 116935, Note_on_c, 0, 78, 0
2, 116941, Note_on_c, 0, 78, 97
2, 116942, Note_on_c, 0, 58, 73
2, 117073, Note_on_c, 0, 54, 0
2, 117078, Note_on_c, 0, 54, 77
2, 117227, Note_on_c, 0, 51, 0
2, 117231, Note_on_c, 0, 51, 73
2, 117365, Note_on_c, 0, 46, 0
2, 117373, Note_on_c, 0, 78, 0
2, 117376, Note_on_c, 0, 46, 75
2, 117378, Note_on_c, 0, 78, 92
2, 117501, Control_c, 0, 64, 0
2, 117502, Note_on_c, 0, 51, 0
2, 117503, Note_on_c, 0, 54, 0
2, 117504, Note_on_c, 0, 66, 0
2, 117504, Note_on_c, 0, 78, 0
2, 117504, Note_on_c, 0, 58, 0
2, 117504, Note_on_c, 0, 73, 0
2, 117504, Note_on_c, 0, 85, 0
2, 117504, Note_on_c, 0, 63, 0
2, 117504, Note_on_c, 0, 70, 0
2, 117505, Note_on_c, 0, 82, 0
2, 117505, Note_on_c, 0, 83, 0
2, 117511, Note_on_c, 0, 80, 0
2, 117523, Note_on_c, 0, 80, 97
2, 117527, Note_on_c, 0, 46, 0
2, 117527, Note_on_c, 0, 75, 0
2, 117530, Note_on_c, 0, 35, 73
2, 117532, Note_on_c, 0, 75, 82
2, 117535, Note_on_c, 0, 71, 76
2, 117588, Note_on_c, 0, 35, 0
2, 117588, Control_c, 0, 64, 127
2, 117655, Note_on_c, 0, 47, 71
2, 117811, Note_on_c, 0, 80, 0
2, 117821, Note_on_c, 0, 80, 84
2, 117824, Note_on_c, 0, 51, 73
2, 117972, Note_on_c, 0, 75, 0
2, 117972, Note_on_c, 0, 80, 0
2, 117976, Note_on_c, 0, 80, 97
2, 117980, Note_on_c, 0, 71, 0
2, 117981, Note_on_c, 0, 54, 71
2, 117983, Note_on_c, 0, 75, 81
2, 117984, Note_on_c, 0, 71, 72
2, 118122, Note_on_c, 0, 59, 74
2, 118269, Note_on_c, 0, 63, 72
2, 118272, Note_on_c, 0, 82, 89
2, 118410, Note_on_c, 0, 80, 0
2, 118413, Note_on_c, 0, 66, 77
2, 118414, Note_on_c, 0, 80, 88
2, 118533, Note_on_c, 0, 71, 0
2, 118544, Note_on_c, 0, 71, 72
2, 118575, Note_on_c, 0, 78, 88
2, 118709, Note_on_c, 0, 78, 0
2, 118719, Control_c, 0, 64, 0
2, 118720, Note_on_c, 0, 78, 100
2, 118720, Note_on_c, 0, 54, 0
2, 118720, Note_on_c, 0, 47, 0
2, 118721, Note_on_c, 0, 66, 0
2, 118721, Note_on_c, 0, 80, 0
2, 118721, Note_on_c, 0, 59, 0
2, 118721, Note_on_c, 0, 82, 0
2, 118721, Note_on_c, 0, 51, 0
2, 118721, Note_on_c, 0, 63, 0
2, 118721, Note_on_c, 0, 75, 0
2, 118721, Note_on_c, 0, 71, 0
2, 118726, Note_on_c, 0, 37, 77
2, 118726, Note_on_c, 0, 68, 91
2, 118728, Note_on_c, 0, 73, 86
2, 118817, Control_c, 0, 64, 127
2, 118864, Note_on_c, 0, 49, 64
2, 119022, Note_on_c, 0, 53, 74
2, 119024, Note_on_c, 0, 77, 88
2, 119170, Note_on_c, 0, 73, 0
2, 119174, Note_on_c, 0, 56, 62
2, 119174, Note_on_c, 0, 73, 85
2, 119321, Note_on_c, 0, 61, 76
2, 119454, Note_on_c, 0, 56, 0
2, 119465, Note_on_c, 0, 56, 72
2, 119608, Note_on_c, 0, 53, 0
2, 119619, Note_on_c, 0, 53, 63
2, 119723, Note_on_c, 0, 49, 0
2, 119729, Note_on_c, 0, 49, 63
2, 119871, Note_on_c, 0, 78, 0
2, 119872, Note_on_c, 0, 37, 0
2, 119872, Control_c, 0, 64, 0
2, 119873, Note_on_c, 0, 68, 0
2, 119873, Note_on_c, 0, 56, 0
2, 119873, Note_on_c, 0, 49, 0
2, 119873, Note_on_c, 0, 61, 0
2, 119873, Note_on_c, 0, 73, 0
2, 119873, Note_on_c, 0, 77, 0
2, 119892, Note_on_c, 0, 53, 0
2, 119909, Note_on_c, 0, 66, 87
2, 119911, Note_on_c, 0, 50, 79
2, 119912, Note_on_c, 0, 38, 75
2, 119961, Control_c, 0, 64, 127
2, 120076, Note_on_c, 0, 50, 0
2, 120082, Note_on_c, 0, 50, 73
2, 120129, Note_on_c, 0, 68, 85
2, 120234, Note_on_c, 0, 57, 63
2, 120235, Note_on_c, 0, 54, 63
2, 120353, Note_on_c, 0, 50, 0
2, 120357, Note_on_c, 0, 69, 86
2, 120363, Note_on_c, 0, 50, 68
2, 120464, Control_c, 0, 64, 0
2, 120464, Note_on_c, 0, 54, 0
2, 120464, Note_on_c, 0, 50, 0
2, 120464, Note_on_c, 0, 57, 0
2, 120465, Note_on_c, 0, 66, 0
2, 120466, Note_on_c, 0, 68, 0
2, 120476, Note_on_c, 0, 38, 0
2, 120511, Note_on_c, 0, 62, 82
2, 120512, Note_on_c, 0, 68, 89
2, 120518, Note_on_c, 0, 57, 71
2, 120525, Note_on_c, 0, 54, 75
2, 120565, Note_on_c, 0, 54, 0
2, 120591, Note_on_c, 0, 57, 0
2, 120629, Note_on_c, 0, 69, 0
2, 120663, Note_on_c, 0, 50, 69
2, 120746, Note_on_c, 0, 66, 82
2, 120806, Control_c, 0, 64, 127
2, 120823, Note_on_c, 0, 54, 69
2, 120824, Note_on_c, 0, 57, 59
2, 120837, Note_on_c, 0, 50, 0
2, 120948, Note_on_c, 0, 64, 81
2, 120972, Note_on_c, 0, 50, 71
2, 121069, Control_c, 0, 64, 0
2, 121075, Note_on_c, 0, 68, 0
2, 121078, Note_on_c, 0, 50, 0
2, 121090, Note_on_c, 0, 66, 0
2, 121105, Note_on_c, 0, 57, 0
2, 121105, Note_on_c, 0, 62, 0
2, 121105, Note_on_c, 0, 64, 0
2, 121110, Note_on_c, 0, 64, 85
2, 121111, Note_on_c, 0, 57, 75
2, 121111, Note_on_c, 0, 62, 82
2, 121113, Note_on_c, 0, 54, 0
2, 121121, Note_on_c, 0, 54, 80
2, 121163, Note_on_c, 0, 54, 0
2, 121175, Note_on_c, 0, 57, 0
2, 121228, Control_c, 0, 64, 127
2, 121264, Note_on_c, 0, 50, 74
2, 121344, Note_on_c, 0, 66, 85
2, 121378, Note_on_c, 0, 64, 0
2, 121430, Note_on_c, 0, 54, 74
2, 121431, Note_on_c, 0, 57, 68
2, 121536, Note_on_c, 0, 50, 0
2, 121557, Note_on_c, 0, 61, 85
2, 121574, Note_on_c, 0, 57, 0
2, 121579, Note_on_c, 0, 50, 68
2, 121605, Note_on_c, 0, 54, 0
2, 121666, Note_on_c, 0, 50, 0
2, 121666, Control_c, 0, 64, 0
2, 121681, Note_on_c, 0, 62, 0
2, 121709, Note_on_c, 0, 57, 78
2, 121711, Note_on_c, 0, 54, 72
2, 121776, Note_on_c, 0, 54, 0
2, 121854, Note_on_c, 0, 50, 76
2, 121954, Note_on_c, 0, 61, 0
2, 121958, Note_on_c, 0, 57, 0
2, 121989, Control_c, 0, 64, 127
2, 122010, Note_on_c, 0, 54, 75
2, 122011, Note_on_c, 0, 57, 70
2, 122142, Note_on_c, 0, 50, 0
2, 122146, Note_on_c, 0, 50, 75
2, 122230, Control_c, 0, 64, 0
2, 122230, Note_on_c, 0, 57, 0
2, 122231, Note_on_c, 0, 54, 0
2, 122232, Note_on_c, 0, 50, 0
2, 122234, Note_on_c, 0, 66, 0
2, 122299, Note_on_c, 0, 78, 100
2, 122300, Note_on_c, 0, 40, 81
2, 122305, Note_on_c, 0, 66, 91
2, 122350, Control_c, 0, 64, 127
2, 122373, Note_on_c, 0, 40, 0
2, 122458, Note_on_c, 0, 52, 71
2, 122538, Note_on_c, 0, 80, 89
2, 122543, Note_on_c, 0, 68, 86
2, 122601, Note_on_c, 0, 59, 69
2, 122602, Note_on_c, 0, 56, 68
2, 122726, Note_on_c, 0, 52, 0
2, 122737, Note_on_c, 0, 52, 73
2, 122741, Note_on_c, 0, 82, 91
2, 122747, Note_on_c, 0, 70, 83
2, 122861, Control_c, 0, 64, 0
2, 122867, Note_on_c, 0, 78, 0
2, 122867, Note_on_c, 0, 82, 0
2, 122867, Note_on_c, 0, 66, 0
2, 122867, Note_on_c, 0, 52, 0
2, 122868, Note_on_c, 0, 70, 0
2, 122880, Note_on_c, 0, 56, 0
2, 122880, Note_on_c, 0, 59, 0
2, 122880, Note_on_c, 0, 68, 0
2, 122880, Note_on_c, 0, 80, 0
2, 122884, Note_on_c, 0, 80, 97
2, 122886, Note_on_c, 0, 56, 80
2, 122887, Note_on_c, 0, 64, 83
2, 122890, Note_on_c, 0, 59, 73
2, 122891, Note_on_c, 0, 68, 94
2, 122927, Note_on_c, 0, 64, 0
2, 122949, Control_c, 0, 64, 127
2, 123030, Note_on_c, 0, 52, 65
2, 123120, Note_on_c, 0, 78, 89
2, 123122, Note_on_c, 0, 66, 81
2, 123156, Note_on_c, 0, 68, 0
2, 123164, Note_on_c, 0, 56, 0
2, 123164, Note_on_c, 0, 59, 0
2, 123165, Note_on_c, 0, 68, 68
2, 123174, Note_on_c, 0, 56, 74
2, 123174, Note_on_c, 0, 59, 68
2, 123310, Note_on_c, 0, 52, 0
2, 123319, Note_on_c, 0, 76, 89
2, 123321, Note_on_c, 0, 64, 81
2, 123321, Note_on_c, 0, 52, 78
2, 123409, Note_on_c, 0, 66, 0
2, 123410, Note_on_c, 0, 56, 0
2, 123411, Note_on_c, 0, 80, 0
2, 123411, Note_on_c, 0, 78, 0
2, 123411, Note_on_c, 0, 68, 0
2, 123412, Note_on_c, 0, 59, 0
2, 123412, Note_on_c, 0, 76, 0
2, 123412, Control_c, 0, 64, 0
2, 123412, Note_on_c, 0, 64, 0
2, 123425, Note_on_c, 0, 52, 0
2, 123468, Note_on_c, 0, 83, 99
2, 123475, Note_on_c, 0, 64, 82
2, 123479, Note_on_c, 0, 71, 90
2, 123480, Note_on_c, 0, 59, 74
2, 123482, Note_on_c, 0, 56, 79
2, 123494, Control_c, 0, 64, 127
2, 123617, Note_on_c, 0, 52, 80
2, 123763, Note_on_c, 0, 56, 0
2, 123770, Note_on_c, 0, 56, 75
2, 123770, Note_on_c, 0, 59, 0
2, 123780, Note_on_c, 0, 59, 65
2, 123916, Note_on_c, 0, 52, 0
2, 123922, Note_on_c, 0, 52, 76
2, 124062, Note_on_c, 0, 56, 0
2, 124062, Note_on_c, 0, 59, 0
2, 124062, Note_on_c, 0, 64, 0
2, 124064, Note_on_c, 0, 85, 99
2, 124066, Note_on_c, 0, 64, 85
2, 124066, Note_on_c, 0, 73, 96
2, 124069, Note_on_c, 0, 56, 78
2, 124073, Note_on_c, 0, 59, 76
2, 124208, Note_on_c, 0, 52, 0
2, 124213, Note_on_c, 0, 52, 76
2, 124362, Note_on_c, 0, 56, 0
2, 124369, Note_on_c, 0, 59, 0
2, 124370, Note_on_c, 0, 56, 67
2, 124379, Note_on_c, 0, 59, 60
2, 124500, Note_on_c, 0, 52, 0
2, 124506, Note_on_c, 0, 52, 65
2, 124629, Note_on_c, 0, 73, 0
2, 124629, Note_on_c, 0, 71, 0
2, 124629, Note_on_c, 0, 59, 0
2, 124629, Note_on_c, 0, 52, 0
2, 124630, Note_on_c, 0, 56, 0
2, 124630, Control_c, 0, 64, 0
2, 124630, Note_on_c, 0, 64, 0
2, 124630, Note_on_c, 0, 85, 0
2, 124632, Note_on_c, 0, 83, 0
2, 124680, Note_on_c, 0, 73, 101
2, 124681, Note_on_c, 0, 85, 96
2, 124681, Note_on_c, 0, 61, 90
2, 124681, Note_on_c, 0, 80, 85
2, 124685, Note_on_c, 0, 76, 84
2, 124687, Note_on_c, 0, 49, 84
2, 124761, Control_c, 0, 64, 127
2, 124861, Note_on_c, 0, 85, 0
2, 124865, Note_on_c, 0, 85, 71
2, 124949, Note_on_c, 0, 92, 71
2, 125014, Note_on_c, 0, 97, 80
2, 125099, Note_on_c, 0, 92, 0
2, 125104, Note_on_c, 0, 92, 68
2, 125160, Note_on_c, 0, 97, 0
2, 125171, Note_on_c, 0, 97, 71
2, 125230, Note_on_c, 0, 92, 0
2, 125237, Note_on_c, 0, 92, 75
2, 125287, Note_on_c, 0, 68, 91
2, 125306, Note_on_c, 0, 85, 0
2, 125318, Note_on_c, 0, 85, 76
2, 125399, Note_on_c, 0, 92, 0
2, 125408, Note_on_c, 0, 92, 65
2, 125437, Note_on_c, 0, 97, 0
2, 125440, Note_on_c, 0, 71, 73
2, 125446, Note_on_c, 0, 97, 79
2, 125529, Note_on_c, 0, 92, 0
2, 125534, Note_on_c, 0, 92, 75
2, 125575, Note_on_c, 0, 68, 0
2, 125579, Note_on_c, 0, 68, 68
2, 125598, Note_on_c, 0, 97, 0
2, 125602, Note_on_c, 0, 97, 78
2, 125667, Note_on_c, 0, 92, 0
2, 125673, Note_on_c, 0, 92, 74
2, 125729, Note_on_c, 0, 85, 0
2, 125731, Note_on_c, 0, 66, 70
2, 125740, Note_on_c, 0, 85, 74
2, 125844, Note_on_c, 0, 92, 0
2, 125849, Note_on_c, 0, 92, 79
2, 125869, Note_on_c, 0, 45, 72
2, 125905, Note_on_c, 0, 97, 0
2, 125913, Note_on_c, 0, 97, 78
2, 126005, Note_on_c, 0, 92, 0
2, 126009, Note_on_c, 0, 92, 47
2, 126039, Note_on_c, 0, 64, 69
2, 126059, Note_on_c, 0, 97, 0
2, 126067, Note_on_c, 0, 97, 65
2, 126097, Note_on_c, 0, 92, 0
2, 126107, Note_on_c, 0, 92, 75
2, 126182, Note_on_c, 0, 85, 0
2, 126189, Note_on_c, 0, 85, 69
2, 126274, Note_on_c, 0, 92, 0
2, 126285, Note_on_c, 0, 92, 66
2, 126328, Note_on_c, 0, 97, 0
2, 126332, Note_on_c, 0, 97, 84
2, 126336, Note_on_c, 0, 61, 0
2, 126342, Note_on_c, 0, 61, 82
2, 126405, Note_on_c, 0, 92, 0
2, 126416, Note_on_c, 0, 92, 68
2, 126481, Note_on_c, 0, 64, 0
2, 126481, Note_on_c, 0, 97, 0
2, 126485, Note_on_c, 0, 97, 87
2, 126486, Note_on_c, 0, 64, 78
2, 126551, Note_on_c, 0, 92, 0
2, 126556, Note_on_c, 0, 92, 67
2, 126627, Note_on_c, 0, 85, 0
2, 126635, Note_on_c, 0, 85, 72
2, 126635, Note_on_c, 0, 61, 0
2, 126639, Note_on_c, 0, 61, 86
2, 126712, Note_on_c, 0, 92, 0
2, 126716, Note_on_c, 0, 92, 72
2, 126766, Note_on_c, 0, 97, 0
2, 126773, Note_on_c, 0, 97, 81
2, 126842, Note_on_c, 0, 92, 0
2, 126851, Note_on_c, 0, 92, 72
2, 126919, Note_on_c, 0, 97, 0
2, 126930, Note_on_c, 0, 97, 85
2, 126954, Note_on_c, 0, 59, 71
2, 126996, Note_on_c, 0, 92, 0
2, 127005, Note_on_c, 0, 92, 73
2, 127044, Note_on_c, 0, 45, 0
2, 127045, Note_on_c, 0, 97, 0
2, 127045, Note_on_c, 0, 73, 0
2, 127046, Note_on_c, 0, 80, 0
2, 127046, Note_on_c, 0, 61, 0
2, 127046, Note_on_c, 0, 64, 0
2, 127046, Note_on_c, 0, 71, 0
2, 127046, Note_on_c, 0, 68, 0
2, 127046, Note_on_c, 0, 49, 0
2, 127046, Note_on_c, 0, 66, 0
2, 127046, Control_c, 0, 64, 0
2, 127050, Note_on_c, 0, 76, 0
2, 127065, Note_on_c, 0, 59, 0
2, 127073, Note_on_c, 0, 85, 0
2, 127078, Note_on_c, 0, 47, 73
2, 127079, Note_on_c, 0, 85, 70
2, 127104, Control_c, 0, 64, 127
2, 127157, Note_on_c, 0, 92, 0
2, 127167, Note_on_c, 0, 92, 74
2, 127223, Note_on_c, 0, 59, 74
2, 127238, Note_on_c, 0, 97, 80
2, 127311, Note_on_c, 0, 92, 0
2, 127322, Note_on_c, 0, 92, 68
2, 127371, Note_on_c, 0, 54, 82
2, 127380, Note_on_c, 0, 97, 0
2, 127388, Note_on_c, 0, 97, 79
2, 127449, Note_on_c, 0, 92, 0
2, 127454, Note_on_c, 0, 92, 71
2, 127526, Note_on_c, 0, 85, 0
2, 127534, Note_on_c, 0, 85, 66
2, 127610, Note_on_c, 0, 92, 0
2, 127619, Note_on_c, 0, 92, 74
2, 127672, Note_on_c, 0, 97, 0
2, 127677, Note_on_c, 0, 56, 74
2, 127680, Note_on_c, 0, 97, 86
2, 127764, Note_on_c, 0, 92, 0
2, 127770, Note_on_c, 0, 92, 71
2, 127818, Note_on_c, 0, 59, 0
2, 127822, Note_on_c, 0, 59, 72
2, 127848, Note_on_c, 0, 97, 0
2, 127853, Note_on_c, 0, 97, 74
2, 127902, Note_on_c, 0, 92, 0
2, 127908, Note_on_c, 0, 92, 71
2, 127971, Note_on_c, 0, 85, 0
2, 127981, Note_on_c, 0, 85, 67
2, 128056, Note_on_c, 0, 92, 0
2, 128066, Note_on_c, 0, 92, 77
2, 128125, Note_on_c, 0, 97, 0
2, 128133, Note_on_c, 0, 54, 0
2, 128133, Note_on_c, 0, 97, 85
2, 128143, Note_on_c, 0, 54, 67
2, 128217, Note_on_c, 0, 92, 0
2, 128222, Note_on_c, 0, 92, 67
2, 128243, Note_on_c, 0, 56, 0
2, 128243, Control_c, 0, 64, 0
2, 128244, Note_on_c, 0, 59, 0
2, 128244, Note_on_c, 0, 54, 0
2, 128244, Note_on_c, 0, 85, 0
2, 128245, Note_on_c, 0, 47, 0
2, 128270, Note_on_c, 0, 49, 69
2, 128279, Note_on_c, 0, 97, 0
2, 128285, Note_on_c, 0, 97, 80
2, 128317, Control_c, 0, 64, 127
2, 128340, Note_on_c, 0, 92, 0
2, 128350, Note_on_c, 0, 92, 69
2, 128422, Note_on_c, 0, 56, 79
2, 128423, Note_on_c, 0, 85, 74
2, 128501, Note_on_c, 0, 92, 0
2, 128506, Note_on_c, 0, 92, 71
2, 128555, Note_on_c, 0, 97, 0
2, 128566, Note_on_c, 0, 97, 85
2, 128572, Note_on_c, 0, 61, 77
2, 128632, Note_on_c, 0, 92, 0
2, 128642, Note_on_c, 0, 92, 71
2, 128709, Note_on_c, 0, 97, 0
2, 128714, Note_on_c, 0, 97, 76
2, 128729, Note_on_c, 0, 52, 74
2, 128770, Note_on_c, 0, 92, 0
2, 128775, Note_on_c, 0, 92, 69
2, 128839, Note_on_c, 0, 85, 0
2, 128849, Note_on_c, 0, 85, 66
2, 128916, Note_on_c, 0, 92, 0
2, 128927, Note_on_c, 0, 92, 75
2, 128993, Note_on_c, 0, 97, 0
2, 129004, Note_on_c, 0, 97, 80
2, 129011, Note_on_c, 0, 51, 65
2, 129093, Note_on_c, 0, 92, 0
2, 129097, Note_on_c, 0, 92, 60
2, 129154, Note_on_c, 0, 49, 0
2, 129154, Note_on_c, 0, 97, 0
2, 129165, Note_on_c, 0, 49, 64
2, 129165, Note_on_c, 0, 97, 78
2, 129239, Note_on_c, 0, 92, 0
2, 129243, Note_on_c, 0, 92, 64
2, 129292, Note_on_c, 0, 85, 0
2, 129296, Note_on_c, 0, 85, 63
2, 129323, Note_on_c, 0, 50, 73
2, 129369, Note_on_c, 0, 92, 0
2, 129380, Note_on_c, 0, 92, 71
2, 129388, Note_on_c, 0, 52, 0
2, 129388, Note_on_c, 0, 51, 0
2, 129388, Note_on_c, 0, 49, 0
2, 129389, Note_on_c, 0, 56, 0
2, 129390, Note_on_c, 0, 61, 0
2, 129390, Note_on_c, 0, 97, 0
2, 129390, Note_on_c, 0, 85, 0
2, 129391, Note_on_c, 0, 50, 0
2, 129391, Control_c, 0, 64, 0
2, 129401, Note_on_c, 0, 57, 67
2, 129452, Note_on_c, 0, 66, 89
2, 129461, Control_c, 0, 64, 127
2, 129480, Note_on_c, 0, 97, 86
2, 129603, Note_on_c, 0, 90, 73
2, 129605, Note_on_c, 0, 68, 76
2, 129638, Note_on_c, 0, 97, 0
2, 129649, Note_on_c, 0, 97, 78
2, 129715, Note_on_c, 0, 90, 0
2, 129725, Note_on_c, 0, 90, 71
2, 129753, Note_on_c, 0, 66, 0
2, 129758, Note_on_c, 0, 66, 83
2, 129810, Note_on_c, 0, 85, 70
2, 129884, Note_on_c, 0, 90, 0
2, 129895, Note_on_c, 0, 90, 63
2, 129913, Note_on_c, 0, 69, 83
2, 129922, Note_on_c, 0, 97, 0
2, 129926, Note_on_c, 0, 97, 86
2, 129999, Note_on_c, 0, 57, 0
2, 130007, Note_on_c, 0, 90, 0
2, 130008, Note_on_c, 0, 57, 69
2, 130009, Control_c, 0, 64, 0
2, 130011, Note_on_c, 0, 90, 91
2, 130014, Note_on_c, 0, 92, 0
2, 130037, Control_c, 0, 64, 127
2, 130083, Note_on_c, 0, 97, 0
2, 130094, Note_on_c, 0, 97, 75
2, 130160, Note_on_c, 0, 90, 0
2, 130169, Note_on_c, 0, 90, 71
2, 130214, Note_on_c, 0, 68, 0
2, 130224, Note_on_c, 0, 68, 85
2, 130229, Note_on_c, 0, 85, 0
2, 130235, Note_on_c, 0, 85, 70
2, 130298, Note_on_c, 0, 90, 0
2, 130303, Note_on_c, 0, 90, 71
2, 130368, Note_on_c, 0, 97, 0
2, 130372, Note_on_c, 0, 97, 84
2, 130460, Note_on_c, 0, 90, 0
2, 130464, Note_on_c, 0, 90, 66
2, 130529, Note_on_c, 0, 66, 0
2, 130529, Note_on_c, 0, 97, 0
2, 130536, Note_on_c, 0, 97, 85
2, 130537, Note_on_c, 0, 66, 73
2, 130613, Note_on_c, 0, 90, 0
2, 130623, Note_on_c, 0, 90, 82
2, 130647, Note_on_c, 0, 68, 0
2, 130647, Note_on_c, 0, 69, 0
2, 130647, Note_on_c, 0, 57, 0
2, 130649, Control_c, 0, 64, 0
2, 130675, Note_on_c, 0, 66, 0
2, 130675, Note_on_c, 0, 85, 0
2, 130679, Note_on_c, 0, 59, 77
2, 130680, Note_on_c, 0, 66, 82
2, 130683, Note_on_c, 0, 85, 76
2, 130684, Note_on_c, 0, 52, 77
2, 130705, Control_c, 0, 64, 127
2, 130767, Note_on_c, 0, 90, 0
2, 130771, Note_on_c, 0, 90, 81
2, 130828, Note_on_c, 0, 97, 0
2, 130838, Note_on_c, 0, 97, 81
2, 130913, Note_on_c, 0, 90, 0
2, 130923, Note_on_c, 0, 90, 70
2, 130982, Note_on_c, 0, 97, 0
2, 130988, Note_on_c, 0, 97, 77
2, 131059, Note_on_c, 0, 90, 0
2, 131064, Note_on_c, 0, 90, 74
2, 131128, Note_on_c, 0, 85, 0
2, 131132, Note_on_c, 0, 85, 67
2, 131205, Note_on_c, 0, 90, 0
2, 131211, Note_on_c, 0, 90, 72
2, 131270, Note_on_c, 0, 64, 83
2, 131274, Note_on_c, 0, 97, 0
2, 131279, Note_on_c, 0, 97, 85
2, 131358, Note_on_c, 0, 90, 0
2, 131370, Note_on_c, 0, 90, 71
2, 131420, Note_on_c, 0, 97, 0
2, 131427, Note_on_c, 0, 97, 75
2, 131489, Note_on_c, 0, 90, 0
2, 131498, Note_on_c, 0, 90, 75
2, 131566, Note_on_c, 0, 85, 0
2, 131573, Note_on_c, 0, 85, 66
2, 131642, Note_on_c, 0, 90, 0
2, 131653, Note_on_c, 0, 90, 74
2, 131712, Note_on_c, 0, 97, 0
2, 131723, Note_on_c, 0, 97, 76
2, 131788, Note_on_c, 0, 90, 0
2, 131793, Note_on_c, 0, 90, 72
2, 131834, Note_on_c, 0, 59, 0
2, 131837, Note_on_c, 0, 52, 0
2, 131837, Note_on_c, 0, 85, 0
2, 131838, Note_on_c, 0, 64, 0
2, 131839, Control_c, 0, 64, 0
2, 131857, Note_on_c, 0, 66, 0
2, 131857, Note_on_c, 0, 97, 0
2, 131862, Note_on_c, 0, 66, 83
2, 131865, Note_on_c, 0, 97, 90
2, 131869, Note_on_c, 0, 54, 81
2, 131869, Note_on_c, 0, 61, 77
2, 131904, Control_c, 0, 64, 127
2, 131950, Note_on_c, 0, 90, 0
2, 131959, Note_on_c, 0, 90, 75
2, 132031, Note_on_c, 0, 85, 71
2, 132096, Note_on_c, 0, 90, 0
2, 132102, Note_on_c, 0, 90, 76
2, 132172, Note_on_c, 0, 97, 0
2, 132176, Note_on_c, 0, 97, 81
2, 132257, Note_on_c, 0, 90, 0
2, 132266, Note_on_c, 0, 90, 75
2, 132304, Note_on_c, 0, 49, 73
2, 132334, Note_on_c, 0, 97, 0
2, 132339, Note_on_c, 0, 97, 79
2, 132403, Note_on_c, 0, 90, 0
2, 132410, Note_on_c, 0, 90, 77
2, 132480, Note_on_c, 0, 85, 0
2, 132489, Note_on_c, 0, 85, 69
2, 132549, Note_on_c, 0, 90, 0
2, 132558, Note_on_c, 0, 90, 72
2, 132618, Note_on_c, 0, 97, 0
2, 132625, Note_on_c, 0, 97, 74
2, 132702, Note_on_c, 0, 90, 0
2, 132709, Note_on_c, 0, 90, 68
2, 132751, Note_on_c, 0, 42, 64
2, 132764, Note_on_c, 0, 97, 0
2, 132775, Note_on_c, 0, 97, 77
2, 132848, Note_on_c, 0, 90, 0
2, 132853, Note_on_c, 0, 90, 73
2, 132917, Note_on_c, 0, 85, 0
2, 132925, Note_on_c, 0, 85, 69
2, 132994, Note_on_c, 0, 90, 0
2, 133005, Note_on_c, 0, 90, 65
2, 133048, Note_on_c, 0, 97, 0
2, 133053, Note_on_c, 0, 97, 80
2, 133132, Note_on_c, 0, 90, 0
2, 133138, Note_on_c, 0, 90, 68
2, 133201, Note_on_c, 0, 97, 0
2, 133208, Note_on_c, 0, 97, 80
2, 133271, Note_on_c, 0, 90, 0
2, 133275, Note_on_c, 0, 90, 72
2, 133340, Note_on_c, 0, 85, 0
2, 133345, Note_on_c, 0, 85, 73
2, 133416, Note_on_c, 0, 90, 0
2, 133422, Note_on_c, 0, 90, 66
2, 133470, Note_on_c, 0, 97, 0
2, 133480, Note_on_c, 0, 97, 77
2, 133555, Note_on_c, 0, 90, 0
2, 133562, Note_on_c, 0, 90, 74
2, 133624, Note_on_c, 0, 61, 0
2, 133632, Note_on_c, 0, 97, 0
2, 133633, Note_on_c, 0, 73, 96
2, 133634, Note_on_c, 0, 61, 86
2, 133634, Control_c, 0, 64, 0
2, 133642, Note_on_c, 0, 49, 0
2, 133643, Note_on_c, 0, 97, 89
2, 133644, Note_on_c, 0, 42, 0
2, 133655, Note_on_c, 0, 54, 0
2, 133708, Control_c, 0, 64, 127
2, 133716, Note_on_c, 0, 90, 0
2, 133720, Note_on_c, 0, 90, 79
2, 133770, Note_on_c, 0, 85, 0
2, 133779, Note_on_c, 0, 85, 77
2, 133870, Note_on_c, 0, 90, 0
2, 133877, Note_on_c, 0, 90, 75
2, 133916, Note_on_c, 0, 97, 0
2, 133925, Note_on_c, 0, 97, 84
2, 134196, Note_on_c, 0, 97, 0
2, 134196, Note_on_c, 0, 73, 0
2, 134196, Note_on_c, 0, 90, 0
2, 134197, Note_on_c, 0, 85, 0
2, 134197, Control_c, 0, 64, 0
2, 134208, Note_on_c, 0, 61, 0
2, 134208, Note_on_c, 0, 66, 0
2, 134230, Note_on_c, 0, 73, 98
2, 134234, Note_on_c, 0, 64, 80
2, 134236, Note_on_c, 0, 68, 80
2, 134242, Note_on_c, 0, 49, 72
2, 134284, Control_c, 0, 64, 127
2, 134379, Note_on_c, 0, 61, 71
2, 134474, Note_on_c, 0, 56, 54
2, 134515, Note_on_c, 0, 61, 0
2, 134520, Note_on_c, 0, 61, 67
2, 134584, Note_on_c, 0, 56, 0
2, 134592, Note_on_c, 0, 56, 64
2, 134661, Note_on_c, 0, 49, 0
2, 134666, Note_on_c, 0, 49, 49
2, 134730, Note_on_c, 0, 56, 0
2, 134736, Note_on_c, 0, 56, 56
2, 134799, Note_on_c, 0, 61, 0
2, 134810, Note_on_c, 0, 61, 71
2, 134826, Note_on_c, 0, 80, 86
2, 134883, Note_on_c, 0, 56, 0
2, 134893, Note_on_c, 0, 56, 67
2, 134968, Note_on_c, 0, 61, 0
2, 134972, Note_on_c, 0, 61, 67
2, 134973, Note_on_c, 0, 83, 82
2, 135091, Note_on_c, 0, 49, 0
2, 135096, Note_on_c, 0, 49, 67
2, 135114, Note_on_c, 0, 80, 0
2, 135123, Note_on_c, 0, 80, 75
2, 135252, Note_on_c, 0, 61, 0
2, 135263, Note_on_c, 0, 61, 69
2, 135264, Note_on_c, 0, 78, 92
2, 135327, Note_on_c, 0, 57, 50
2, 135336, Note_on_c, 0, 57, 0
2, 135356, Note_on_c, 0, 83, 0
2, 135356, Note_on_c, 0, 80, 0
2, 135356, Note_on_c, 0, 56, 0
2, 135356, Note_on_c, 0, 49, 0
2, 135357, Control_c, 0, 64, 0
2, 135357, Note_on_c, 0, 61, 0
2, 135357, Note_on_c, 0, 73, 0
2, 135358, Note_on_c, 0, 64, 0
2, 135367, Note_on_c, 0, 68, 0
2, 135409, Note_on_c, 0, 45, 69
2, 135436, Control_c, 0, 64, 127
2, 135488, Note_on_c, 0, 52, 63
2, 135582, Note_on_c, 0, 61, 73
2, 135582, Note_on_c, 0, 76, 83
2, 135682, Note_on_c, 0, 52, 0
2, 135686, Note_on_c, 0, 52, 58
2, 135736, Note_on_c, 0, 61, 0
2, 135743, Note_on_c, 0, 61, 70
2, 135813, Note_on_c, 0, 52, 0
2, 135822, Note_on_c, 0, 52, 61
2, 135874, Note_on_c, 0, 45, 0
2, 135884, Note_on_c, 0, 45, 64
2, 135907, Note_on_c, 0, 73, 82
2, 135989, Note_on_c, 0, 52, 0
2, 135997, Note_on_c, 0, 52, 62
2, 136035, Note_on_c, 0, 76, 0
2, 136044, Note_on_c, 0, 76, 85
2, 136051, Note_on_c, 0, 61, 0
2, 136057, Note_on_c, 0, 61, 66
2, 136143, Note_on_c, 0, 52, 0
2, 136151, Note_on_c, 0, 52, 39
2, 136189, Note_on_c, 0, 61, 0
2, 136189, Note_on_c, 0, 73, 0
2, 136197, Note_on_c, 0, 73, 87
2, 136200, Note_on_c, 0, 61, 76
2, 136327, Note_on_c, 0, 45, 0
2, 136333, Note_on_c, 0, 45, 59
2, 136442, Note_on_c, 0, 52, 0
2, 136451, Note_on_c, 0, 52, 55
2, 136501, Note_on_c, 0, 71, 85
2, 136512, Note_on_c, 0, 61, 0
2, 136521, Note_on_c, 0, 61, 72
2, 136603, Note_on_c, 0, 78, 0
2, 136604, Control_c, 0, 64, 0
2, 136605, Note_on_c, 0, 52, 0
2, 136605, Note_on_c, 0, 45, 0
2, 136605, Note_on_c, 0, 61, 0
2, 136605, Note_on_c, 0, 73, 0
2, 136606, Note_on_c, 0, 76, 0
2, 136628, Note_on_c, 0, 47, 66
2, 136688, Control_c, 0, 64, 127
2, 136719, Note_on_c, 0, 54, 70
2, 136788, Note_on_c, 0, 71, 0
2, 136793, Note_on_c, 0, 71, 75
2, 136800, Note_on_c, 0, 61, 71
2, 136903, Note_on_c, 0, 54, 0
2, 136908, Note_on_c, 0, 54, 67
2, 136949, Note_on_c, 0, 61, 0
2, 136959, Note_on_c, 0, 66, 82
2, 136961, Note_on_c, 0, 61, 73
2, 137026, Note_on_c, 0, 54, 0
2, 137036, Note_on_c, 0, 54, 52
2, 137095, Note_on_c, 0, 47, 0
2, 137103, Note_on_c, 0, 47, 63
2, 137172, Note_on_c, 0, 54, 0
2, 137177, Note_on_c, 0, 54, 57
2, 137256, Note_on_c, 0, 61, 0
2, 137264, Note_on_c, 0, 61, 70
2, 137268, Note_on_c, 0, 68, 86
2, 137341, Note_on_c, 0, 54, 0
2, 137349, Note_on_c, 0, 54, 68
2, 137410, Note_on_c, 0, 61, 0
2, 137418, Note_on_c, 0, 71, 0
2, 137421, Note_on_c, 0, 61, 70
2, 137422, Note_on_c, 0, 71, 83
2, 137556, Note_on_c, 0, 47, 0
2, 137560, Note_on_c, 0, 47, 61
2, 137702, Note_on_c, 0, 61, 0
2, 137711, Note_on_c, 0, 61, 71
2, 137717, Note_on_c, 0, 66, 0
2, 137722, Note_on_c, 0, 66, 85
2, 137740, Note_on_c, 0, 54, 0
2, 137749, Note_on_c, 0, 54, 53
2, 137841, Note_on_c, 0, 68, 0
2, 137842, Note_on_c, 0, 54, 0
2, 137842, Note_on_c, 0, 47, 0
2, 137842, Note_on_c, 0, 71, 0
2, 137843, Control_c, 0, 64, 0
2, 137857, Note_on_c, 0, 49, 62
2, 137932, Control_c, 0, 64, 127
2, 137949, Note_on_c, 0, 56, 61
2, 138017, Note_on_c, 0, 61, 0
2, 138021, Note_on_c, 0, 61, 67
2, 138021, Note_on_c, 0, 68, 85
2, 138094, Note_on_c, 0, 56, 0
2, 138105, Note_on_c, 0, 56, 56
2, 138170, Note_on_c, 0, 61, 0
2, 138180, Note_on_c, 0, 73, 93
2, 138182, Note_on_c, 0, 61, 69
2, 138270, Note_on_c, 0, 56, 0
2, 138279, Note_on_c, 0, 56, 43
2, 138316, Note_on_c, 0, 49, 0
2, 138322, Note_on_c, 0, 49, 58
2, 138385, Note_on_c, 0, 56, 0
2, 138390, Note_on_c, 0, 56, 62
2, 138462, Note_on_c, 0, 61, 0
2, 138466, Note_on_c, 0, 61, 69
2, 138554, Note_on_c, 0, 56, 0
2, 138559, Note_on_c, 0, 56, 54
2, 138624, Note_on_c, 0, 61, 0
2, 138633, Note_on_c, 0, 61, 67
2, 138685, Note_on_c, 0, 56, 0
2, 138696, Note_on_c, 0, 56, 47
2, 138746, Note_on_c, 0, 49, 0
2, 138752, Note_on_c, 0, 49, 61
2, 138823, Note_on_c, 0, 56, 0
2, 138828, Note_on_c, 0, 56, 61
2, 138900, Note_on_c, 0, 61, 0
2, 138906, Note_on_c, 0, 61, 74
2, 138992, Note_on_c, 0, 56, 0
2, 138999, Note_on_c, 0, 56, 50
2, 139043, Note_on_c, 0, 56, 0
2, 139044, Note_on_c, 0, 61, 0
2, 139045, Note_on_c, 0, 73, 0
2, 139046, Control_c, 0, 64, 0
2, 139046, Note_on_c, 0, 68, 0
2, 139047, Note_on_c, 0, 49, 0
2, 139054, Note_on_c, 0, 66, 0
2, 139057, Note_on_c, 0, 78, 92
2, 139058, Note_on_c, 0, 50, 71
2, 139060, Note_on_c, 0, 69, 76
2, 139117, Note_on_c, 0, 57, 68
2, 139123, Control_c, 0, 64, 127
2, 139199, Note_on_c, 0, 62, 65
2, 139201, Note_on_c, 0, 80, 85
2, 139284, Note_on_c, 0, 57, 0
2, 139292, Note_on_c, 0, 57, 58
2, 139353, Note_on_c, 0, 78, 0
2, 139361, Note_on_c, 0, 62, 0
2, 139364, Note_on_c, 0, 78, 82
2, 139371, Note_on_c, 0, 62, 58
2, 139415, Note_on_c, 0, 57, 0
2, 139424, Note_on_c, 0, 57, 59
2, 139507, Note_on_c, 0, 50, 0
2, 139512, Note_on_c, 0, 50, 66
2, 139518, Note_on_c, 0, 81, 91
2, 139576, Note_on_c, 0, 57, 0
2, 139585, Note_on_c, 0, 57, 64
2, 139630, Note_on_c, 0, 62, 0
2, 139634, Note_on_c, 0, 62, 60
2, 139706, Note_on_c, 0, 57, 0
2, 139717, Note_on_c, 0, 57, 58
2, 139806, Note_on_c, 0, 62, 0
2, 139806, Note_on_c, 0, 80, 0
2, 139810, Note_on_c, 0, 62, 63
2, 139814, Note_on_c, 0, 80, 89
2, 139883, Note_on_c, 0, 57, 0
2, 139888, Note_on_c, 0, 57, 63
2, 139937, Note_on_c, 0, 50, 0
2, 139944, Note_on_c, 0, 50, 68
2, 139998, Note_on_c, 0, 57, 0
2, 140003, Note_on_c, 0, 57, 64
2, 140098, Note_on_c, 0, 62, 0
2, 140102, Note_on_c, 0, 62, 64
2, 140106, Note_on_c, 0, 78, 0
2, 140110, Note_on_c, 0, 78, 90
2, 140160, Note_on_c, 0, 57, 0
2, 140165, Note_on_c, 0, 57, 59
2, 140225, Note_on_c, 0, 50, 0
2, 140226, Note_on_c, 0, 62, 0
2, 140226, Note_on_c, 0, 69, 0
2, 140226, Control_c, 0, 64, 0
2, 140226, Note_on_c, 0, 57, 0
2, 140244, Note_on_c, 0, 78, 0
2, 140248, Note_on_c, 0, 78, 84
2, 140249, Note_on_c, 0, 52, 68
2, 140271, Note_on_c, 0, 71, 65
2, 140321, Control_c, 0, 64, 127
2, 140327, Note_on_c, 0, 59, 61
2, 140411, Note_on_c, 0, 64, 66
2, 140490, Note_on_c, 0, 59, 0
2, 140494, Note_on_c, 0, 59, 66
2, 140567, Note_on_c, 0, 64, 0
2, 140574, Note_on_c, 0, 64, 68
2, 140643, Note_on_c, 0, 59, 0
2, 140649, Note_on_c, 0, 59, 52
2, 140705, Note_on_c, 0, 52, 0
2, 140712, Note_on_c, 0, 52, 61
2, 140782, Note_on_c, 0, 59, 0
2, 140787, Note_on_c, 0, 59, 53
2, 140858, Note_on_c, 0, 64, 0
2, 140867, Note_on_c, 0, 64, 68
2, 140876, Note_on_c, 0, 76, 89
2, 140928, Note_on_c, 0, 59, 0
2, 140934, Note_on_c, 0, 59, 65
2, 141012, Note_on_c, 0, 64, 0
2, 141017, Note_on_c, 0, 64, 70
2, 141073, Note_on_c, 0, 59, 0
2, 141085, Note_on_c, 0, 59, 49
2, 141089, Note_on_c, 0, 81, 0
2, 141150, Note_on_c, 0, 52, 0
2, 141156, Note_on_c, 0, 52, 57
2, 141227, Note_on_c, 0, 59, 0
2, 141233, Note_on_c, 0, 59, 55
2, 141296, Note_on_c, 0, 64, 0
2, 141307, Note_on_c, 0, 64, 75
2, 141358, Note_on_c, 0, 59, 0
2, 141358, Note_on_c, 0, 80, 0
2, 141364, Note_on_c, 0, 59, 61
2, 141435, Note_on_c, 0, 71, 0
2, 141435, Control_c, 0, 64, 0
2, 141436, Note_on_c, 0, 52, 0
2, 141437, Note_on_c, 0, 59, 0
2, 141437, Note_on_c, 0, 64, 0
2, 141437, Note_on_c, 0, 76, 0
2, 141457, Note_on_c, 0, 78, 0
2, 141464, Note_on_c, 0, 78, 95
2, 141465, Note_on_c, 0, 54, 73
2, 141471, Note_on_c, 0, 73, 83
2, 141534, Control_c, 0, 64, 127
2, 141538, Note_on_c, 0, 61, 64
2, 141624, Note_on_c, 0, 66, 70
2, 141696, Note_on_c, 0, 61, 0
2, 141701, Note_on_c, 0, 61, 64
2, 141765, Note_on_c, 0, 66, 0
2, 141775, Note_on_c, 0, 66, 65
2, 141834, Note_on_c, 0, 61, 0
2, 141840, Note_on_c, 0, 61, 63
2, 141841, Note_on_c, 0, 54, 0
2, 141915, Note_on_c, 0, 54, 61
2, 141918, Note_on_c, 0, 49, 69
2, 141995, Note_on_c, 0, 61, 0
2, 142000, Note_on_c, 0, 61, 56
2, 142064, Note_on_c, 0, 66, 0
2, 142070, Note_on_c, 0, 66, 68
2, 142133, Note_on_c, 0, 61, 0
2, 142143, Note_on_c, 0, 61, 69
2, 142218, Note_on_c, 0, 66, 0
2, 142225, Note_on_c, 0, 66, 65
2, 142287, Note_on_c, 0, 61, 0
2, 142293, Note_on_c, 0, 61, 55
2, 142356, Note_on_c, 0, 54, 0
2, 142367, Note_on_c, 0, 54, 67
2, 142367, Note_on_c, 0, 42, 69
2, 142425, Note_on_c, 0, 61, 0
2, 142435, Note_on_c, 0, 61, 65
2, 142510, Note_on_c, 0, 66, 0
2, 142519, Note_on_c, 0, 66, 65
2, 142586, Note_on_c, 0, 61, 0
2, 142596, Note_on_c, 0, 61, 60
2, 142663, Note_on_c, 0, 66, 0
2, 142672, Note_on_c, 0, 66, 65
2, 142748, Note_on_c, 0, 61, 0
2, 142754, Note_on_c, 0, 61, 58
2, 142809, Note_on_c, 0, 54, 0
2, 142818, Note_on_c, 0, 54, 59
2, 142871, Note_on_c, 0, 61, 0
2, 142875, Note_on_c, 0, 61, 66
2, 142947, Note_on_c, 0, 66, 0
2, 142955, Note_on_c, 0, 66, 70
2, 143063, Note_on_c, 0, 61, 0
2, 143074, Note_on_c, 0, 61, 50
2, 143109, Note_on_c, 0, 66, 0
2, 143115, Note_on_c, 0, 66, 72
2, 143255, Note_on_c, 0, 54, 0
2, 143255, Note_on_c, 0, 73, 0
2, 143258, Note_on_c, 0, 85, 87
2, 143263, Note_on_c, 0, 54, 68
2, 143266, Note_on_c, 0, 73, 78
2, 143273, Note_on_c, 0, 49, 0
2, 143273, Note_on_c, 0, 61, 0
2, 143273, Note_on_c, 0, 42, 0
2, 143274, Note_on_c, 0, 66, 0
2, 143274, Note_on_c, 0, 78, 0
2, 143277, Control_c, 0, 64, 0
2, 143351, Note_on_c, 0, 61, 38
2, 143416, Control_c, 0, 64, 127
2, 143425, Note_on_c, 0, 66, 64
2, 143516, Note_on_c, 0, 61, 0
2, 143520, Note_on_c, 0, 61, 51
2, 143562, Note_on_c, 0, 66, 0
2, 143566, Note_on_c, 0, 66, 65
2, 143895, Note_on_c, 0, 45, 67
2, 143897, Note_on_c, 0, 59, 70
2, 143912, Control_c, 0, 64, 0
2, 143913, Note_on_c, 0, 85, 0
2, 143919, Note_on_c, 0, 66, 0
2, 143919, Note_on_c, 0, 61, 0
2, 143919, Note_on_c, 0, 54, 0
2, 143930, Note_on_c, 0, 73, 0
2, 144046, Control_c, 0, 64, 127
2, 144060, Note_on_c, 0, 64, 70
2, 144064, Note_on_c, 0, 52, 54
2, 144193, Note_on_c, 0, 57, 56
2, 144350, Note_on_c, 0, 68, 75
2, 144383, Note_on_c, 0, 73, 55
2, 144507, Note_on_c, 0, 66, 76
2, 144516, Note_on_c, 0, 76, 63
2, 144644, Note_on_c, 0, 81, 67
2, 144814, Note_on_c, 0, 57, 0
2, 144818, Note_on_c, 0, 57, 68
2, 144819, Note_on_c, 0, 71, 74
2, 144852, Note_on_c, 0, 59, 0
2, 144860, Note_on_c, 0, 52, 0
2, 144860, Note_on_c, 0, 81, 0
2, 144861, Note_on_c, 0, 68, 0
2, 144862, Note_on_c, 0, 76, 0
2, 144862, Note_on_c, 0, 66, 0
2, 144862, Note_on_c, 0, 64, 0
2, 144863, Note_on_c, 0, 73, 0
2, 144864, Control_c, 0, 64, 0
2, 144867, Note_on_c, 0, 45, 0
2, 144936, Control_c, 0, 64, 127
2, 144977, Note_on_c, 0, 76, 77
2, 144978, Note_on_c, 0, 64, 62
2, 145132, Note_on_c, 0, 69, 64
2, 145275, Note_on_c, 0, 85, 80
2, 145287, Note_on_c, 0, 80, 72
2, 145424, Note_on_c, 0, 78, 74
2, 145425, Note_on_c, 0, 88, 73
2, 145580, Note_on_c, 0, 93, 77
2, 145751, Note_on_c, 0, 71, 0
2, 145752, Note_on_c, 0, 76, 0
2, 145752, Note_on_c, 0, 88, 0
2, 145753, Note_on_c, 0, 64, 0
2, 145753, Note_on_c, 0, 85, 0
2, 145753, Note_on_c, 0, 93, 0
2, 145753, Note_on_c, 0, 78, 0
2, 145753, Note_on_c, 0, 80, 0
2, 145753, Note_on_c, 0, 69, 0
2, 145754, Note_on_c, 0, 47, 70
2, 145755, Note_on_c, 0, 71, 68
2, 145756, Note_on_c, 0, 59, 73
2, 145759, Control_c, 0, 64, 0
2, 145766, Note_on_c, 0, 57, 0
2, 145850, Control_c, 0, 64, 127
2, 145905, Note_on_c, 0, 64, 78
2, 145905, Note_on_c, 0, 54, 71
2, 145920, Note_on_c, 0, 47, 0
2, 145927, Note_on_c, 0, 59, 0
2, 146045, Note_on_c, 0, 59, 74
2, 146198, Note_on_c, 0, 68, 78
2, 146222, Note_on_c, 0, 76, 61
2, 146351, Note_on_c, 0, 66, 77
2, 146649, Note_on_c, 0, 59, 0
2, 146649, Note_on_c, 0, 71, 0
2, 146654, Note_on_c, 0, 59, 76
2, 146657, Note_on_c, 0, 71, 83
2, 146693, Control_c, 0, 64, 0
2, 146693, Note_on_c, 0, 68, 0
2, 146694, Note_on_c, 0, 64, 0
2, 146695, Note_on_c, 0, 76, 0
2, 146695, Note_on_c, 0, 54, 0
2, 146696, Note_on_c, 0, 66, 0
2, 146772, Control_c, 0, 64, 127
2, 146798, Note_on_c, 0, 76, 79
2, 146817, Note_on_c, 0, 66, 70
2, 146864, Note_on_c, 0, 59, 0
2, 146903, Note_on_c, 0, 71, 0
2, 146961, Note_on_c, 0, 71, 66
2, 147099, Note_on_c, 0, 88, 74
2, 147107, Note_on_c, 0, 80, 81
2, 147252, Note_on_c, 0, 78, 64
2, 147252, Note_on_c, 0, 90, 79
2, 147410, Note_on_c, 0, 95, 77
2, 147577, Note_on_c, 0, 83, 89
2, 147579, Note_on_c, 0, 57, 69
2, 147594, Note_on_c, 0, 71, 0
2, 147596, Note_on_c, 0, 80, 0
2, 147596, Note_on_c, 0, 95, 0
2, 147596, Note_on_c, 0, 66, 0
2, 147596, Note_on_c, 0, 90, 0
2, 147596, Control_c, 0, 64, 0
2, 147597, Note_on_c, 0, 76, 0
2, 147597, Note_on_c, 0, 88, 0
2, 147597, Note_on_c, 0, 78, 0
2, 147678, Control_c, 0, 64, 127
2, 147736, Note_on_c, 0, 88, 90
2, 147737, Note_on_c, 0, 64, 63
2, 147875, Note_on_c, 0, 69, 69
2, 148014, Note_on_c, 0, 92, 94
2, 148036, Note_on_c, 0, 73, 74
2, 148164, Note_on_c, 0, 90, 91
2, 148188, Note_on_c, 0, 76, 59
2, 148310, Note_on_c, 0, 81, 74
2, 148465, Note_on_c, 0, 71, 80
2, 148469, Note_on_c, 0, 81, 0
2, 148479, Note_on_c, 0, 81, 73
2, 148608, Note_on_c, 0, 76, 0
2, 148608, Note_on_c, 0, 88, 0
2, 148618, Note_on_c, 0, 76, 82
2, 148619, Note_on_c, 0, 88, 75
2, 148767, Note_on_c, 0, 93, 73
2, 148907, Note_on_c, 0, 71, 0
2, 148913, Note_on_c, 0, 97, 82
2, 148918, Note_on_c, 0, 71, 57
2, 148918, Note_on_c, 0, 80, 84
2, 149051, Note_on_c, 0, 78, 74
2, 149071, Note_on_c, 0, 100, 75
2, 149218, Note_on_c, 0, 104, 65
2, 149355, Note_on_c, 0, 100, 0
2, 149355, Note_on_c, 0, 92, 0
2, 149355, Note_on_c, 0, 97, 0
2, 149356, Note_on_c, 0, 93, 0
2, 149356, Note_on_c, 0, 90, 0
2, 149356, Note_on_c, 0, 78, 0
2, 149356, Note_on_c, 0, 80, 0
2, 149357, Note_on_c, 0, 73, 0
2, 149357, Note_on_c, 0, 71, 0
2, 149357, Note_on_c, 0, 81, 0
2, 149357, Note_on_c, 0, 64, 0
2, 149357, Note_on_c, 0, 69, 0
2, 149358, Note_on_c, 0, 57, 0
2, 149358, Control_c, 0, 64, 0
2, 149360, Note_on_c, 0, 104, 0
2, 149368, Note_on_c, 0, 76, 0
2, 149368, Note_on_c, 0, 83, 0
2, 149376, Note_on_c, 0, 88, 0
2, 149378, Note_on_c, 0, 83, 91
2, 149379, Note_on_c, 0, 95, 78
2, 149382, Note_on_c, 0, 59, 71
2, 149437, Control_c, 0, 64, 127
2, 149514, Note_on_c, 0, 95, 0
2, 149530, Note_on_c, 0, 88, 95
2, 149532, Note_on_c, 0, 66, 71
2, 149560, Note_on_c, 0, 59, 0
2, 149681, Note_on_c, 0, 71, 62
2, 149816, Note_on_c, 0, 92, 94
2, 149832, Note_on_c, 0, 76, 62
2, 149964, Note_on_c, 0, 78, 71
2, 149964, Note_on_c, 0, 90, 91
2, 150090, Note_on_c, 0, 83, 0
2, 150098, Note_on_c, 0, 83, 76
2, 150266, Note_on_c, 0, 71, 0
2, 150271, Note_on_c, 0, 71, 87
2, 150282, Note_on_c, 0, 83, 0
2, 150287, Note_on_c, 0, 83, 76
2, 150412, Note_on_c, 0, 76, 0
2, 150412, Note_on_c, 0, 88, 0
2, 150422, Note_on_c, 0, 76, 79
2, 150423, Note_on_c, 0, 88, 75
2, 150569, Note_on_c, 0, 95, 63
2, 150708, Note_on_c, 0, 80, 77
2, 150724, Note_on_c, 0, 100, 75
2, 150881, Note_on_c, 0, 78, 0
2, 150888, Note_on_c, 0, 78, 73
2, 150890, Note_on_c, 0, 102, 81
2, 151680, Note_on_c, 0, 66, 0
2, 151841, Note_on_c, 0, 100, 0
2, 151841, Note_on_c, 0, 88, 0
2, 151842, Note_on_c, 0, 78, 0
2, 151843, Note_on_c, 0, 90, 0
2, 151844, Note_on_c, 0, 76, 0
2, 151844, Note_on_c, 0, 80, 0
2, 151845, Note_on_c, 0, 71, 0
2, 151845, Note_on_c, 0, 92, 0
2, 151845, Note_on_c, 0, 102, 0
2, 151845, Note_on_c, 0, 83, 0
2, 151848, Note_on_c, 0, 95, 0
2, 151857, Control_c, 0, 64, 0
2, 152140, Control_c, 0, 64, 127
2, 152146, Note_on_c, 0, 61, 91
2, 152147, Note_on_c, 0, 66, 91
2, 152149, Note_on_c, 0, 73, 96
2, 152150, Note_on_c, 0, 42, 89
2, 152151, Note_on_c, 0, 30, 85
2, 152152, Note_on_c, 0, 70, 91
2, 152294, Note_on_c, 0, 66, 0
2, 152298, Note_on_c, 0, 78, 93
2, 152303, Note_on_c, 0, 66, 84
2, 152436, Note_on_c, 0, 54, 72
2, 152570, Note_on_c, 0, 66, 0
2, 152581, Note_on_c, 0, 66, 72
2, 152586, Note_on_c, 0, 54, 0
2, 152593, Note_on_c, 0, 61, 0
2, 152593, Note_on_c, 0, 70, 0
2, 152595, Note_on_c, 0, 54, 66
2, 152597, Note_on_c, 0, 58, 80
2, 152598, Note_on_c, 0, 61, 68
2, 152599, Note_on_c, 0, 82, 89
2, 152603, Note_on_c, 0, 70, 96
2, 152759, Note_on_c, 0, 80, 95
2, 152762, Note_on_c, 0, 73, 0
2, 152766, Note_on_c, 0, 68, 94
2, 152767, Note_on_c, 0, 73, 93
2, 152767, Note_on_c, 0, 77, 78
2, 152908, Note_on_c, 0, 30, 0
2, 152916, Note_on_c, 0, 42, 0
2, 152919, Note_on_c, 0, 30, 80
2, 152920, Note_on_c, 0, 42, 76
2, 153041, Control_c, 0, 64, 0
2, 153046, Note_on_c, 0, 80, 0
2, 153046, Note_on_c, 0, 82, 0
2, 153047, Note_on_c, 0, 30, 0
2, 153047, Note_on_c, 0, 42, 0
2, 153047, Note_on_c, 0, 61, 0
2, 153047, Note_on_c, 0, 73, 0
2, 153048, Note_on_c, 0, 77, 0
2, 153048, Note_on_c, 0, 58, 0
2, 153049, Note_on_c, 0, 54, 0
2, 153052, Note_on_c, 0, 73, 98
2, 153052, Note_on_c, 0, 42, 87
2, 153053, Note_on_c, 0, 30, 78
2, 153054, Note_on_c, 0, 66, 0
2, 153054, Note_on_c, 0, 70, 0
2, 153056, Note_on_c, 0, 61, 90
2, 153058, Note_on_c, 0, 66, 86
2, 153059, Note_on_c, 0, 70, 85
2, 153062, Note_on_c, 0, 68, 0
2, 153062, Note_on_c, 0, 78, 0
2, 153100, Control_c, 0, 64, 127
2, 153208, Note_on_c, 0, 66, 0
2, 153218, Note_on_c, 0, 78, 94
2, 153219, Note_on_c, 0, 66, 89
2, 153370, Note_on_c, 0, 54, 78
2, 153507, Note_on_c, 0, 54, 0
2, 153507, Note_on_c, 0, 61, 0
2, 153507, Note_on_c, 0, 66, 0
2, 153513, Note_on_c, 0, 54, 67
2, 153513, Note_on_c, 0, 66, 74
2, 153515, Note_on_c, 0, 70, 0
2, 153516, Note_on_c, 0, 58, 80
2, 153519, Note_on_c, 0, 82, 92
2, 153519, Note_on_c, 0, 61, 70
2, 153520, Note_on_c, 0, 70, 90
2, 153569, Note_on_c, 0, 30, 0
2, 153673, Note_on_c, 0, 80, 92
2, 153676, Note_on_c, 0, 73, 0
2, 153680, Note_on_c, 0, 68, 93
2, 153681, Note_on_c, 0, 77, 77
2, 153681, Note_on_c, 0, 73, 94
2, 153826, Note_on_c, 0, 37, 90
2, 153864, Note_on_c, 0, 68, 0
2, 153864, Note_on_c, 0, 42, 0
2, 153864, Note_on_c, 0, 82, 0
2, 153864, Note_on_c, 0, 58, 0
2, 153864, Note_on_c, 0, 54, 0
2, 153864, Note_on_c, 0, 80, 0
2, 153864, Note_on_c, 0, 73, 0
2, 153865, Note_on_c, 0, 70, 0
2, 153865, Note_on_c, 0, 77, 0
2, 153865, Note_on_c, 0, 78, 0
2, 153865, Note_on_c, 0, 66, 0
2, 153872, Control_c, 0, 64, 0
2, 153884, Note_on_c, 0, 61, 0
2, 153930, Control_c, 0, 64, 127
2, 153975, Note_on_c, 0, 49, 88
2, 153976, Note_on_c, 0, 73, 101
2, 153978, Note_on_c, 0, 61, 92
2, 153980, Note_on_c, 0, 68, 90
2, 153980, Note_on_c, 0, 65, 78
2, 154114, Note_on_c, 0, 37, 0
2, 154133, Note_on_c, 0, 78, 97
2, 154134, Note_on_c, 0, 66, 95
2, 154275, Note_on_c, 0, 49, 0
2, 154281, Note_on_c, 0, 49, 75
2, 154414, Note_on_c, 0, 61, 0
2, 154421, Note_on_c, 0, 61, 85
2, 154431, Note_on_c, 0, 53, 74
2, 154432, Note_on_c, 0, 56, 76
2, 154436, Note_on_c, 0, 82, 91
2, 154442, Note_on_c, 0, 70, 91
2, 154573, Control_c, 0, 64, 0
2, 154575, Note_on_c, 0, 49, 0
2, 154575, Note_on_c, 0, 56, 0
2, 154577, Note_on_c, 0, 70, 0
2, 154578, Note_on_c, 0, 66, 0
2, 154578, Note_on_c, 0, 78, 0
2, 154583, Note_on_c, 0, 53, 0
2, 154583, Note_on_c, 0, 68, 0
2, 154583, Note_on_c, 0, 73, 0
2, 154584, Note_on_c, 0, 80, 103
2, 154584, Note_on_c, 0, 49, 79
2, 154585, Note_on_c, 0, 56, 79
2, 154587, Note_on_c, 0, 68, 87
2, 154587, Note_on_c, 0, 53, 68
2, 154587, Note_on_c, 0, 73, 90
2, 154589, Note_on_c, 0, 77, 90
2, 154590, Note_on_c, 0, 65, 0
2, 154598, Control_c, 0, 64, 127
2, 154636, Note_on_c, 0, 53, 0
2, 154736, Note_on_c, 0, 37, 77
2, 154805, Note_on_c, 0, 82, 0
2, 154810, Control_c, 0, 64, 0
2, 154810, Note_on_c, 0, 49, 0
2, 154811, Note_on_c, 0, 37, 0
2, 154811, Note_on_c, 0, 73, 0
2, 154811, Note_on_c, 0, 80, 0
2, 154811, Note_on_c, 0, 68, 0
2, 154812, Note_on_c, 0, 77, 0
2, 154813, Note_on_c, 0, 61, 0
2, 154821, Note_on_c, 0, 56, 0
2, 154874, Control_c, 0, 64, 127
2, 154885, Note_on_c, 0, 61, 91
2, 154886, Note_on_c, 0, 49, 85
2, 154886, Note_on_c, 0, 73, 97
2, 154887, Note_on_c, 0, 68, 77
2, 154889, Note_on_c, 0, 65, 81
2, 155034, Note_on_c, 0, 78, 102
2, 155038, Note_on_c, 0, 66, 88
2, 155065, Note_on_c, 0, 37, 55
2, 155174, Note_on_c, 0, 49, 0
2, 155183, Note_on_c, 0, 49, 70
2, 155320, Note_on_c, 0, 61, 0
2, 155324, Note_on_c, 0, 61, 79
2, 155333, Note_on_c, 0, 56, 75
2, 155334, Note_on_c, 0, 82, 100
2, 155336, Note_on_c, 0, 53, 80
2, 155340, Note_on_c, 0, 70, 92
2, 155473, Note_on_c, 0, 68, 0
2, 155483, Note_on_c, 0, 80, 96
2, 155485, Note_on_c, 0, 68, 95
2, 155593, Note_on_c, 0, 70, 0
2, 155594, Note_on_c, 0, 82, 0
2, 155594, Note_on_c, 0, 73, 0
2, 155594, Note_on_c, 0, 68, 0
2, 155595, Note_on_c, 0, 53, 0
2, 155595, Note_on_c, 0, 49, 0
2, 155595, Note_on_c, 0, 61, 0
2, 155595, Note_on_c, 0, 65, 0
2, 155595, Note_on_c, 0, 56, 0
2, 155595, Note_on_c, 0, 78, 0
2, 155596, Note_on_c, 0, 66, 0
2, 155597, Control_c, 0, 64, 0
2, 155612, Note_on_c, 0, 37, 0
2, 155619, Note_on_c, 0, 80, 0
2, 155625, Note_on_c, 0, 80, 94
2, 155629, Note_on_c, 0, 37, 79
2, 155630, Note_on_c, 0, 68, 85
2, 155638, Note_on_c, 0, 70, 80
2, 155658, Control_c, 0, 64, 127
2, 155735, Note_on_c, 0, 37, 0
2, 155785, Note_on_c, 0, 78, 104
2, 155785, Note_on_c, 0, 49, 81
2, 155788, Note_on_c, 0, 66, 92
2, 155919, Note_on_c, 0, 49, 0
2, 155930, Note_on_c, 0, 49, 82
2, 156072, Note_on_c, 0, 85, 103
2, 156072, Note_on_c, 0, 73, 105
2, 156084, Note_on_c, 0, 61, 80
2, 156092, Note_on_c, 0, 56, 72
2, 156099, Note_on_c, 0, 53, 64
2, 156203, Note_on_c, 0, 49, 0
2, 156207, Note_on_c, 0, 49, 71
2, 156362, Note_on_c, 0, 68, 0
2, 156362, Note_on_c, 0, 56, 0
2, 156362, Note_on_c, 0, 80, 0
2, 156362, Note_on_c, 0, 49, 0
2, 156363, Note_on_c, 0, 61, 0
2, 156363, Note_on_c, 0, 53, 0
2, 156364, Note_on_c, 0, 66, 0
2, 156364, Control_c, 0, 64, 0
2, 156364, Note_on_c, 0, 70, 0
2, 156380, Note_on_c, 0, 73, 0
2, 156380, Note_on_c, 0, 78, 0
2, 156380, Note_on_c, 0, 85, 0
2, 156384, Note_on_c, 0, 85, 100
2, 156387, Note_on_c, 0, 78, 85
2, 156390, Note_on_c, 0, 73, 98
2, 156390, Note_on_c, 0, 39, 77
2, 156391, Note_on_c, 0, 75, 86
2, 156433, Control_c, 0, 64, 127
2, 156491, Note_on_c, 0, 46, 60
2, 156498, Note_on_c, 0, 51, 85
2, 156609, Note_on_c, 0, 54, 66
2, 156695, Note_on_c, 0, 51, 0
2, 156702, Note_on_c, 0, 51, 71
2, 156779, Note_on_c, 0, 54, 0
2, 156786, Note_on_c, 0, 54, 71
2, 156835, Note_on_c, 0, 58, 68
2, 156920, Note_on_c, 0, 63, 65
2, 156986, Note_on_c, 0, 54, 0
2, 156998, Note_on_c, 0, 54, 84
2, 157071, Note_on_c, 0, 58, 0
2, 157081, Note_on_c, 0, 58, 69
2, 157109, Note_on_c, 0, 63, 0
2, 157118, Note_on_c, 0, 63, 78
2, 157145, Note_on_c, 0, 83, 96
2, 157209, Note_on_c, 0, 54, 0
2, 157217, Note_on_c, 0, 54, 66
2, 157220, Note_on_c, 0, 66, 69
2, 157271, Note_on_c, 0, 58, 0
2, 157279, Note_on_c, 0, 58, 78
2, 157292, Note_on_c, 0, 82, 96
2, 157324, Note_on_c, 0, 63, 0
2, 157332, Note_on_c, 0, 63, 58
2, 157386, Note_on_c, 0, 66, 0
2, 157391, Note_on_c, 0, 66, 72
2, 157432, Note_on_c, 0, 58, 0
2, 157432, Note_on_c, 0, 78, 0
2, 157436, Note_on_c, 0, 58, 71
2, 157437, Note_on_c, 0, 70, 82
2, 157442, Note_on_c, 0, 78, 97
2, 157585, Note_on_c, 0, 75, 0
2, 157589, Note_on_c, 0, 80, 99
2, 157590, Note_on_c, 0, 75, 70
2, 157593, Note_on_c, 0, 70, 0
2, 157602, Note_on_c, 0, 70, 76
2, 157693, Note_on_c, 0, 66, 0
2, 157700, Note_on_c, 0, 66, 75
2, 157731, Note_on_c, 0, 82, 0
2, 157743, Note_on_c, 0, 82, 98
2, 157754, Note_on_c, 0, 58, 0
2, 157754, Note_on_c, 0, 63, 0
2, 157759, Note_on_c, 0, 58, 55
2, 157759, Note_on_c, 0, 63, 62
2, 157862, Note_on_c, 0, 70, 0
2, 157873, Note_on_c, 0, 70, 86
2, 157916, Note_on_c, 0, 66, 0
2, 157926, Note_on_c, 0, 66, 73
2, 157977, Note_on_c, 0, 63, 0
2, 157988, Note_on_c, 0, 63, 73
2, 158062, Note_on_c, 0, 58, 0
2, 158070, Note_on_c, 0, 58, 72
2, 158169, Note_on_c, 0, 66, 0
2, 158174, Note_on_c, 0, 66, 90
2, 158177, Note_on_c, 0, 78, 0
2, 158181, Note_on_c, 0, 78, 103
2, 158215, Note_on_c, 0, 63, 0
2, 158221, Note_on_c, 0, 63, 72
2, 158300, Note_on_c, 0, 58, 0
2, 158307, Note_on_c, 0, 58, 68
2, 158361, Note_on_c, 0, 54, 0
2, 158368, Note_on_c, 0, 54, 68
2, 158469, Note_on_c, 0, 63, 0
2, 158479, Note_on_c, 0, 63, 74
2, 158522, Note_on_c, 0, 58, 0
2, 158530, Note_on_c, 0, 58, 57
2, 158561, Note_on_c, 0, 54, 0
2, 158570, Note_on_c, 0, 54, 64
2, 158630, Note_on_c, 0, 51, 0
2, 158630, Note_on_c, 0, 78, 0
2, 158635, Note_on_c, 0, 51, 64
2, 158636, Note_on_c, 0, 78, 94
2, 158776, Note_on_c, 0, 80, 0
2, 158786, Note_on_c, 0, 46, 0
2, 158787, Note_on_c, 0, 80, 97
2, 158788, Note_on_c, 0, 35, 76
2, 158788, Note_on_c, 0, 54, 0
2, 158788, Note_on_c, 0, 51, 0
2, 158789, Note_on_c, 0, 66, 0
2, 158789, Note_on_c, 0, 78, 0
2, 158789, Note_on_c, 0, 58, 0
2, 158789, Note_on_c, 0, 39, 0
2, 158789, Control_c, 0, 64, 0
2, 158789, Note_on_c, 0, 73, 0
2, 158789, Note_on_c, 0, 85, 0
2, 158790, Note_on_c, 0, 83, 0
2, 158790, Note_on_c, 0, 70, 0
2, 158790, Note_on_c, 0, 63, 0
2, 158791, Note_on_c, 0, 75, 0
2, 158796, Note_on_c, 0, 75, 84
2, 158800, Note_on_c, 0, 71, 83
2, 158814, Note_on_c, 0, 82, 0
2, 158868, Note_on_c, 0, 35, 0
2, 158868, Control_c, 0, 64, 127
2, 158944, Note_on_c, 0, 47, 71
2, 159085, Note_on_c, 0, 51, 74
2, 159236, Note_on_c, 0, 54, 73
2, 159383, Note_on_c, 0, 71, 0
2, 159383, Note_on_c, 0, 75, 0
2, 159383, Note_on_c, 0, 80, 0
2, 159387, Note_on_c, 0, 59, 74
2, 159393, Note_on_c, 0, 80, 89
2, 159394, Note_on_c, 0, 71, 78
2, 159394, Note_on_c, 0, 75, 74
2, 159541, Note_on_c, 0, 63, 71
2, 159543, Note_on_c, 0, 82, 90
2, 159674, Note_on_c, 0, 80, 0
2, 159681, Note_on_c, 0, 66, 79
2, 159684, Note_on_c, 0, 80, 84
2, 159797, Note_on_c, 0, 71, 0
2, 159808, Note_on_c, 0, 71, 64
2, 159828, Note_on_c, 0, 59, 0
2, 159833, Note_on_c, 0, 78, 89
2, 159834, Note_on_c, 0, 59, 62
2, 159974, Note_on_c, 0, 78, 0
2, 159985, Note_on_c, 0, 78, 96
2, 159992, Note_on_c, 0, 68, 84
2, 159993, Note_on_c, 0, 73, 82
2, 159994, Note_on_c, 0, 37, 69
2, 159996, Control_c, 0, 64, 0
2, 160000, Note_on_c, 0, 54, 0
2, 160000, Note_on_c, 0, 66, 0
2, 160000, Note_on_c, 0, 82, 0
2, 160000, Note_on_c, 0, 80, 0
2, 160001, Note_on_c, 0, 47, 0
2, 160001, Note_on_c, 0, 59, 0
2, 160001, Note_on_c, 0, 63, 0
2, 160001, Note_on_c, 0, 75, 0
2, 160001, Note_on_c, 0, 51, 0
2, 160020, Note_on_c, 0, 71, 0
2, 160066, Control_c, 0, 64, 127
2, 160124, Note_on_c, 0, 49, 62
2, 160212, Note_on_c, 0, 77, 93
2, 160270, Note_on_c, 0, 53, 68
2, 160418, Note_on_c, 0, 56, 72
2, 160419, Note_on_c, 0, 73, 0
2, 160429, Note_on_c, 0, 73, 87
2, 160584, Note_on_c, 0, 66, 94
2, 160584, Note_on_c, 0, 61, 76
2, 160742, Note_on_c, 0, 56, 0
2, 160747, Note_on_c, 0, 56, 66
2, 160825, Note_on_c, 0, 65, 89
2, 160888, Note_on_c, 0, 53, 0
2, 160896, Note_on_c, 0, 53, 63
2, 160995, Note_on_c, 0, 49, 0
2, 161004, Note_on_c, 0, 49, 70
2, 161026, Note_on_c, 0, 61, 0
2, 161036, Note_on_c, 0, 61, 86
2, 161138, Note_on_c, 0, 49, 0
2, 161138, Note_on_c, 0, 37, 0
2, 161138, Control_c, 0, 64, 0
2, 161138, Note_on_c, 0, 53, 0
2, 161138, Note_on_c, 0, 68, 0
2, 161138, Note_on_c, 0, 73, 0
2, 161138, Note_on_c, 0, 77, 0
2, 161139, Note_on_c, 0, 66, 0
2, 161139, Note_on_c, 0, 56, 0
2, 161139, Note_on_c, 0, 61, 0
2, 161139, Note_on_c, 0, 65, 0
2, 161157, Note_on_c, 0, 78, 0
2, 161178, Note_on_c, 0, 73, 99
2, 161179, Note_on_c, 0, 61, 89
2, 161188, Note_on_c, 0, 66, 85
2, 161191, Note_on_c, 0, 42, 87
2, 161191, Note_on_c, 0, 70, 79
2, 161192, Note_on_c, 0, 30, 80
2, 161210, Control_c, 0, 64, 127
2, 161330, Note_on_c, 0, 78, 94
2, 161410, Note_on_c, 0, 66, 0
2, 161420, Note_on_c, 0, 66, 87
2, 161464, Note_on_c, 0, 42, 0
2, 161464, Note_on_c, 0, 78, 0
2, 161474, Note_on_c, 0, 54, 78
2, 161475, Note_on_c, 0, 42, 72
2, 161475, Note_on_c, 0, 78, 85
2, 161610, Note_on_c, 0, 66, 0
2, 161617, Note_on_c, 0, 66, 82
2, 161617, Note_on_c, 0, 54, 0
2, 161617, Note_on_c, 0, 61, 0
2, 161623, Note_on_c, 0, 61, 66
2, 161625, Note_on_c, 0, 70, 0
2, 161626, Note_on_c, 0, 58, 79
2, 161626, Note_on_c, 0, 54, 66
2, 161626, Note_on_c, 0, 82, 97
2, 161629, Note_on_c, 0, 70, 93
2, 161782, Note_on_c, 0, 80, 101
2, 161786, Note_on_c, 0, 73, 0
2, 161789, Note_on_c, 0, 68, 95
2, 161791, Note_on_c, 0, 77, 83
2, 161791, Note_on_c, 0, 73, 96
2, 161917, Note_on_c, 0, 30, 0
2, 161917, Note_on_c, 0, 42, 0
2, 161928, Note_on_c, 0, 42, 82
2, 161928, Note_on_c, 0, 30, 82
2, 161992, Control_c, 0, 64, 0
2, 161994, Note_on_c, 0, 42, 0
2, 161994, Note_on_c, 0, 54, 0
2, 161995, Note_on_c, 0, 66, 0
2, 161996, Note_on_c, 0, 82, 0
2, 161996, Note_on_c, 0, 58, 0
2, 161996, Note_on_c, 0, 61, 0
2, 161996, Note_on_c, 0, 73, 0
2, 161996, Note_on_c, 0, 70, 0
2, 161996, Note_on_c, 0, 68, 0
2, 161997, Note_on_c, 0, 80, 0
2, 161997, Note_on_c, 0, 77, 0
2, 162017, Note_on_c, 0, 78, 0
2, 162024, Control_c, 0, 64, 127
2, 162077, Note_on_c, 0, 73, 101
2, 162078, Note_on_c, 0, 30, 0
2, 162080, Note_on_c, 0, 42, 90
2, 162081, Note_on_c, 0, 61, 95
2, 162082, Note_on_c, 0, 30, 77
2, 162084, Note_on_c, 0, 66, 89
2, 162088, Note_on_c, 0, 70, 79
2, 162236, Note_on_c, 0, 78, 94
2, 162309, Note_on_c, 0, 66, 0
2, 162317, Note_on_c, 0, 66, 88
2, 162370, Note_on_c, 0, 78, 0
2, 162375, Note_on_c, 0, 78, 75
2, 162376, Note_on_c, 0, 54, 84
2, 162524, Note_on_c, 0, 61, 0
2, 162524, Note_on_c, 0, 66, 0
2, 162524, Note_on_c, 0, 70, 0
2, 162528, Note_on_c, 0, 66, 83
2, 162529, Note_on_c, 0, 82, 98
2, 162530, Note_on_c, 0, 70, 100
2, 162531, Note_on_c, 0, 61, 71
2, 162533, Note_on_c, 0, 58, 77
2, 162683, Note_on_c, 0, 80, 94
2, 162685, Note_on_c, 0, 73, 0
2, 162688, Note_on_c, 0, 77, 85
2, 162689, Note_on_c, 0, 68, 97
2, 162691, Note_on_c, 0, 73, 95
2, 162833, Note_on_c, 0, 37, 88
2, 162889, Note_on_c, 0, 68, 0
2, 162889, Note_on_c, 0, 66, 0
2, 162889, Note_on_c, 0, 82, 0
2, 162889, Note_on_c, 0, 61, 0
2, 162889, Note_on_c, 0, 70, 0
2, 162889, Note_on_c, 0, 73, 0
2, 162889, Note_on_c, 0, 58, 0
2, 162889, Note_on_c, 0, 78, 0
2, 162889, Note_on_c, 0, 80, 0
2, 162889, Control_c, 0, 64, 0
2, 162890, Note_on_c, 0, 77, 0
2, 162892, Note_on_c, 0, 30, 0
2, 162908, Note_on_c, 0, 42, 0
2, 162908, Note_on_c, 0, 54, 0
2, 162961, Control_c, 0, 64, 127
2, 162974, Note_on_c, 0, 73, 102
2, 162975, Note_on_c, 0, 68, 86
2, 162975, Note_on_c, 0, 61, 95
2, 162977, Note_on_c, 0, 49, 88
2, 162980, Note_on_c, 0, 65, 81
2, 163141, Note_on_c, 0, 78, 90
2, 163224, Note_on_c, 0, 66, 88
2, 163253, Note_on_c, 0, 73, 0
2, 163253, Note_on_c, 0, 78, 0
2, 163259, Note_on_c, 0, 78, 88
2, 163260, Note_on_c, 0, 73, 64
2, 163261, Note_on_c, 0, 49, 0
2, 163272, Note_on_c, 0, 49, 51
2, 163415, Note_on_c, 0, 61, 0
2, 163419, Note_on_c, 0, 61, 83
2, 163424, Note_on_c, 0, 82, 98
2, 163425, Note_on_c, 0, 53, 77
2, 163427, Note_on_c, 0, 70, 94
2, 163433, Note_on_c, 0, 56, 73
2, 163576, Note_on_c, 0, 68, 0
2, 163576, Note_on_c, 0, 73, 0
2, 163580, Note_on_c, 0, 80, 98
2, 163583, Note_on_c, 0, 68, 100
2, 163586, Note_on_c, 0, 77, 86
2, 163587, Note_on_c, 0, 73, 97
2, 163729, Note_on_c, 0, 37, 0
2, 163739, Note_on_c, 0, 37, 80
2, 163826, Control_c, 0, 64, 0
2, 163826, Note_on_c, 0, 68, 0
2, 163826, Note_on_c, 0, 70, 0
2, 163826, Note_on_c, 0, 65, 0
2, 163826, Note_on_c, 0, 61, 0
2, 163826, Note_on_c, 0, 66, 0
2, 163826, Note_on_c, 0, 56, 0
2, 163826, Note_on_c, 0, 80, 0
2, 163827, Note_on_c, 0, 73, 0
2, 163827, Note_on_c, 0, 78, 0
2, 163827, Note_on_c, 0, 82, 0
2, 163845, Note_on_c, 0, 49, 0
2, 163845, Note_on_c, 0, 53, 0
2, 163845, Note_on_c, 0, 77, 0
2, 163875, Note_on_c, 0, 61, 92
2, 163877, Note_on_c, 0, 73, 100
2, 163878, Note_on_c, 0, 68, 87
2, 163879, Note_on_c, 0, 65, 76
2, 163880, Note_on_c, 0, 49, 82
2, 163898, Control_c, 0, 64, 127
2, 164044, Note_on_c, 0, 78, 86
2, 164124, Note_on_c, 0, 66, 83
2, 164160, Note_on_c, 0, 37, 0
2, 164167, Note_on_c, 0, 49, 0
2, 164167, Note_on_c, 0, 78, 0
2, 164173, Note_on_c, 0, 78, 91
2, 164177, Note_on_c, 0, 49, 59
2, 164298, Note_on_c, 0, 61, 0
2, 164306, Note_on_c, 0, 61, 75
2, 164310, Note_on_c, 0, 53, 76
2, 164310, Note_on_c, 0, 82, 96
2, 164316, Note_on_c, 0, 70, 95
2, 164316, Note_on_c, 0, 56, 74
2, 164459, Note_on_c, 0, 68, 0
2, 164468, Note_on_c, 0, 80, 91
2, 164468, Note_on_c, 0, 68, 95
2, 164591, Note_on_c, 0, 70, 0
2, 164591, Note_on_c, 0, 53, 0
2, 164591, Note_on_c, 0, 65, 0
2, 164591, Note_on_c, 0, 61, 0
2, 164592, Note_on_c, 0, 49, 0
2, 164592, Control_c, 0, 64, 0
2, 164592, Note_on_c, 0, 82, 0
2, 164592, Note_on_c, 0, 56, 0
2, 164592, Note_on_c, 0, 73, 0
2, 164593, Note_on_c, 0, 66, 0
2, 164593, Note_on_c, 0, 78, 0
2, 164597, Note_on_c, 0, 68, 0
2, 164597, Note_on_c, 0, 80, 0
2, 164607, Note_on_c, 0, 80, 97
2, 164609, Note_on_c, 0, 68, 87
2, 164610, Note_on_c, 0, 37, 76
2, 164651, Control_c, 0, 64, 127
2, 164764, Note_on_c, 0, 78, 102
2, 164765, Note_on_c, 0, 49, 75
2, 164769, Note_on_c, 0, 66, 93
2, 164904, Note_on_c, 0, 49, 0
2, 164913, Note_on_c, 0, 49, 76
2, 165066, Note_on_c, 0, 85, 101
2, 165067, Note_on_c, 0, 73, 103
2, 165076, Note_on_c, 0, 61, 78
2, 165076, Note_on_c, 0, 56, 68
2, 165091, Note_on_c, 0, 53, 60
2, 165204, Note_on_c, 0, 49, 0
2, 165208, Note_on_c, 0, 49, 75
2, 165350, Note_on_c, 0, 37, 0
2, 165363, Control_c, 0, 64, 0
2, 165365, Note_on_c, 0, 78, 0
2, 165365, Note_on_c, 0, 85, 0
2, 165367, Note_on_c, 0, 68, 0
2, 165368, Note_on_c, 0, 56, 0
2, 165368, Note_on_c, 0, 61, 0
2, 165368, Note_on_c, 0, 49, 0
2, 165368, Note_on_c, 0, 80, 0
2, 165368, Note_on_c, 0, 53, 0
2, 165368, Note_on_c, 0, 66, 0
2, 165373, Note_on_c, 0, 73, 0
2, 165376, Note_on_c, 0, 85, 101
2, 165376, Note_on_c, 0, 78, 90
2, 165377, Note_on_c, 0, 73, 99
2, 165378, Note_on_c, 0, 39, 76
2, 165378, Note_on_c, 0, 75, 89
2, 165434, Control_c, 0, 64, 127
2, 165444, Note_on_c, 0, 46, 71
2, 165500, Note_on_c, 0, 51, 79
2, 165696, Note_on_c, 0, 51, 0
2, 165705, Note_on_c, 0, 51, 70
2, 165797, Note_on_c, 0, 54, 65
2, 165860, Note_on_c, 0, 58, 67
2, 165925, Note_on_c, 0, 63, 60
2, 165987, Note_on_c, 0, 54, 0
2, 165997, Note_on_c, 0, 54, 71
2, 166064, Note_on_c, 0, 58, 0
2, 166069, Note_on_c, 0, 58, 72
2, 166110, Note_on_c, 0, 63, 0
2, 166114, Note_on_c, 0, 63, 77
2, 166158, Note_on_c, 0, 83, 93
2, 166217, Note_on_c, 0, 66, 68
2, 166287, Note_on_c, 0, 58, 0
2, 166291, Note_on_c, 0, 58, 66
2, 166297, Note_on_c, 0, 82, 92
2, 166318, Note_on_c, 0, 63, 0
2, 166322, Note_on_c, 0, 63, 74
2, 166387, Note_on_c, 0, 66, 0
2, 166391, Note_on_c, 0, 66, 68
2, 166437, Note_on_c, 0, 70, 80
2, 166440, Note_on_c, 0, 78, 0
2, 166446, Note_on_c, 0, 78, 92
2, 166594, Note_on_c, 0, 58, 0
2, 166594, Note_on_c, 0, 70, 0
2, 166598, Note_on_c, 0, 80, 99
2, 166599, Note_on_c, 0, 58, 70
2, 166603, Note_on_c, 0, 70, 81
2, 166709, Note_on_c, 0, 66, 0
2, 166714, Note_on_c, 0, 66, 71
2, 166748, Note_on_c, 0, 82, 0
2, 166752, Note_on_c, 0, 82, 93
2, 166755, Note_on_c, 0, 63, 0
2, 166760, Note_on_c, 0, 63, 68
2, 166878, Note_on_c, 0, 70, 0
2, 166890, Note_on_c, 0, 70, 86
2, 166940, Note_on_c, 0, 66, 0
2, 166947, Note_on_c, 0, 66, 76
2, 167009, Note_on_c, 0, 63, 0
2, 167013, Note_on_c, 0, 63, 73
2, 167078, Note_on_c, 0, 58, 0
2, 167085, Note_on_c, 0, 58, 78
2, 167185, Note_on_c, 0, 66, 0
2, 167193, Note_on_c, 0, 78, 0
2, 167197, Note_on_c, 0, 66, 80
2, 167202, Note_on_c, 0, 78, 102
2, 167224, Note_on_c, 0, 63, 0
2, 167228, Note_on_c, 0, 63, 75
2, 167308, Note_on_c, 0, 58, 0
2, 167320, Note_on_c, 0, 58, 65
2, 167377, Note_on_c, 0, 54, 0
2, 167384, Note_on_c, 0, 54, 67
2, 167477, Note_on_c, 0, 63, 0
2, 167489, Note_on_c, 0, 63, 75
2, 167523, Note_on_c, 0, 58, 0
2, 167535, Note_on_c, 0, 58, 80
2, 167569, Note_on_c, 0, 54, 0
2, 167580, Note_on_c, 0, 54, 58
2, 167631, Note_on_c, 0, 51, 0
2, 167642, Note_on_c, 0, 51, 66
2, 167654, Note_on_c, 0, 78, 0
2, 167660, Note_on_c, 0, 78, 97
2, 167789, Control_c, 0, 64, 0
2, 167789, Note_on_c, 0, 46, 0
2, 167791, Note_on_c, 0, 78, 0
2, 167791, Note_on_c, 0, 54, 0
2, 167792, Note_on_c, 0, 73, 0
2, 167792, Note_on_c, 0, 85, 0
2, 167792, Note_on_c, 0, 39, 0
2, 167793, Note_on_c, 0, 66, 0
2, 167793, Note_on_c, 0, 83, 0
2, 167793, Note_on_c, 0, 70, 0
2, 167793, Note_on_c, 0, 82, 0
2, 167800, Note_on_c, 0, 80, 0
2, 167804, Note_on_c, 0, 80, 98
2, 167808, Note_on_c, 0, 51, 0
2, 167808, Note_on_c, 0, 58, 0
2, 167808, Note_on_c, 0, 63, 0
2, 167808, Note_on_c, 0, 75, 0
2, 167811, Note_on_c, 0, 35, 73
2, 167816, Note_on_c, 0, 75, 85
2, 167819, Note_on_c, 0, 71, 84
2, 167854, Control_c, 0, 64, 127
2, 167877, Note_on_c, 0, 35, 0
2, 167956, Note_on_c, 0, 47, 75
2, 168099, Note_on_c, 0, 80, 0
2, 168103, Note_on_c, 0, 51, 75
2, 168110, Note_on_c, 0, 80, 87
2, 168261, Note_on_c, 0, 80, 0
2, 168267, Note_on_c, 0, 80, 98
2, 168268, Note_on_c, 0, 71, 0
2, 168268, Note_on_c, 0, 75, 0
2, 168273, Note_on_c, 0, 75, 81
2, 168275, Note_on_c, 0, 71, 80
2, 168277, Note_on_c, 0, 54, 74
2, 168420, Note_on_c, 0, 59, 75
2, 168558, Note_on_c, 0, 63, 76
2, 168567, Note_on_c, 0, 82, 89
2, 168697, Note_on_c, 0, 66, 76
2, 168714, Note_on_c, 0, 80, 0
2, 168724, Note_on_c, 0, 80, 88
2, 168829, Note_on_c, 0, 71, 0
2, 168837, Note_on_c, 0, 71, 71
2, 168861, Note_on_c, 0, 78, 91
2, 169004, Control_c, 0, 64, 0
2, 169006, Note_on_c, 0, 78, 0
2, 169008, Note_on_c, 0, 47, 0
2, 169008, Note_on_c, 0, 54, 0
2, 169008, Note_on_c, 0, 51, 0
2, 169008, Note_on_c, 0, 63, 0
2, 169008, Note_on_c, 0, 59, 0
2, 169008, Note_on_c, 0, 66, 0
2, 169008, Note_on_c, 0, 80, 0
2, 169008, Note_on_c, 0, 82, 0
2, 169009, Note_on_c, 0, 71, 0
2, 169009, Note_on_c, 0, 75, 0
2, 169011, Note_on_c, 0, 78, 98
2, 169018, Note_on_c, 0, 68, 93
2, 169018, Note_on_c, 0, 37, 69
2, 169021, Note_on_c, 0, 73, 86
2, 169090, Control_c, 0, 64, 127
2, 169156, Note_on_c, 0, 49, 66
2, 169308, Note_on_c, 0, 53, 76
2, 169309, Note_on_c, 0, 77, 89
2, 169451, Note_on_c, 0, 73, 0
2, 169456, Note_on_c, 0, 73, 96
2, 169459, Note_on_c, 0, 56, 81
2, 169608, Note_on_c, 0, 61, 81
2, 169743, Note_on_c, 0, 56, 0
2, 169753, Note_on_c, 0, 56, 69
2, 169889, Note_on_c, 0, 53, 0
2, 169893, Note_on_c, 0, 53, 64
2, 170004, Note_on_c, 0, 49, 0
2, 170008, Note_on_c, 0, 49, 65
2, 170142, Note_on_c, 0, 78, 0
2, 170145, Note_on_c, 0, 53, 0
2, 170145, Note_on_c, 0, 56, 0
2, 170145, Note_on_c, 0, 68, 0
2, 170145, Note_on_c, 0, 77, 0
2, 170145, Control_c, 0, 64, 0
2, 170145, Note_on_c, 0, 49, 0
2, 170145, Note_on_c, 0, 61, 0
2, 170146, Note_on_c, 0, 73, 0
2, 170150, Note_on_c, 0, 37, 0
2, 170191, Note_on_c, 0, 50, 81
2, 170192, Note_on_c, 0, 66, 91
2, 170192, Note_on_c, 0, 38, 78
2, 170193, Note_on_c, 0, 62, 60
2, 170234, Control_c, 0, 64, 127
2, 170350, Note_on_c, 0, 50, 0
2, 170355, Note_on_c, 0, 50, 57
2, 170414, Note_on_c, 0, 68, 91
2, 170510, Note_on_c, 0, 57, 65
2, 170511, Note_on_c, 0, 54, 67
2, 170634, Note_on_c, 0, 50, 0
2, 170639, Note_on_c, 0, 50, 62
2, 170639, Note_on_c, 0, 69, 88
2, 170722, Note_on_c, 0, 66, 0
2, 170722, Note_on_c, 0, 68, 0
2, 170724, Note_on_c, 0, 54, 0
2, 170725, Note_on_c, 0, 50, 0
2, 170726, Note_on_c, 0, 57, 0
2, 170728, Control_c, 0, 64, 0
2, 170734, Note_on_c, 0, 38, 0
2, 170734, Note_on_c, 0, 62, 0
2, 170786, Note_on_c, 0, 68, 92
2, 170788, Note_on_c, 0, 62, 83
2, 170792, Note_on_c, 0, 54, 73
2, 170798, Note_on_c, 0, 57, 64
2, 170822, Note_on_c, 0, 69, 0
2, 170843, Note_on_c, 0, 62, 0
2, 170844, Note_on_c, 0, 54, 0
2, 170852, Note_on_c, 0, 57, 0
2, 170944, Note_on_c, 0, 50, 55
2, 171000, Note_on_c, 0, 66, 82
2, 171037, Note_on_c, 0, 50, 0
2, 171100, Note_on_c, 0, 54, 69
2, 171101, Note_on_c, 0, 57, 62
2, 171159, Note_on_c, 0, 54, 0
2, 171160, Note_on_c, 0, 57, 0
2, 171167, Note_on_c, 0, 68, 0
2, 171218, Note_on_c, 0, 64, 77
2, 171242, Note_on_c, 0, 50, 69
2, 171259, Note_on_c, 0, 66, 0
2, 171283, Note_on_c, 0, 64, 0
2, 171337, Note_on_c, 0, 50, 0
2, 171381, Note_on_c, 0, 64, 88
2, 171382, Note_on_c, 0, 62, 85
2, 171390, Note_on_c, 0, 57, 67
2, 171405, Note_on_c, 0, 54, 66
2, 171444, Note_on_c, 0, 54, 0
2, 171453, Note_on_c, 0, 57, 0
2, 171533, Note_on_c, 0, 50, 71
2, 171591, Note_on_c, 0, 66, 80
2, 171626, Note_on_c, 0, 64, 0
2, 171639, Note_on_c, 0, 50, 0
2, 171698, Note_on_c, 0, 54, 73
2, 171699, Note_on_c, 0, 57, 70
2, 171759, Note_on_c, 0, 57, 0
2, 171759, Note_on_c, 0, 54, 0
2, 171829, Note_on_c, 0, 50, 72
2, 171851, Note_on_c, 0, 61, 85
2, 171868, Note_on_c, 0, 66, 0
2, 171916, Note_on_c, 0, 62, 0
2, 171945, Note_on_c, 0, 50, 0
2, 171992, Note_on_c, 0, 62, 79
2, 171996, Note_on_c, 0, 57, 70
2, 171997, Note_on_c, 0, 54, 72
2, 172040, Note_on_c, 0, 57, 0
2, 172042, Note_on_c, 0, 54, 0
2, 172149, Note_on_c, 0, 50, 77
2, 172212, Note_on_c, 0, 61, 0
2, 172270, Note_on_c, 0, 62, 0
2, 172270, Control_c, 0, 64, 127
2, 172297, Note_on_c, 0, 54, 73
2, 172297, Note_on_c, 0, 57, 62
2, 172416, Note_on_c, 0, 50, 0
2, 172421, Note_on_c, 0, 50, 69
2, 172503, Note_on_c, 0, 57, 0
2, 172503, Note_on_c, 0, 54, 0
2, 172503, Control_c, 0, 64, 0
2, 172505, Note_on_c, 0, 50, 0
2, 172575, Note_on_c, 0, 40, 80
2, 172576, Note_on_c, 0, 78, 101
2, 172580, Note_on_c, 0, 66, 92
2, 172608, Control_c, 0, 64, 127
2, 172731, Note_on_c, 0, 52, 72
2, 172815, Note_on_c, 0, 80, 92
2, 172820, Note_on_c, 0, 68, 86
2, 172893, Note_on_c, 0, 56, 60
2, 172895, Note_on_c, 0, 59, 60
2, 173015, Note_on_c, 0, 52, 0
2, 173025, Note_on_c, 0, 82, 91
2, 173025, Note_on_c, 0, 52, 70
2, 173034, Note_on_c, 0, 70, 83
2, 173136, Control_c, 0, 64, 0
2, 173141, Note_on_c, 0, 66, 0
2, 173141, Note_on_c, 0, 52, 0
2, 173141, Note_on_c, 0, 80, 0
2, 173141, Note_on_c, 0, 68, 0
2, 173141, Note_on_c, 0, 56, 0
2, 173141, Note_on_c, 0, 82, 0
2, 173141, Note_on_c, 0, 59, 0
2, 173141, Note_on_c, 0, 78, 0
2, 173142, Note_on_c, 0, 70, 0
2, 173145, Note_on_c, 0, 40, 0
2, 173178, Note_on_c, 0, 64, 79
2, 173180, Note_on_c, 0, 80, 94
2, 173181, Note_on_c, 0, 52, 70
2, 173187, Note_on_c, 0, 56, 76
2, 173189, Note_on_c, 0, 68, 90
2, 173190, Note_on_c, 0, 59, 70
2, 173223, Note_on_c, 0, 64, 0
2, 173226, Note_on_c, 0, 56, 0
2, 173227, Note_on_c, 0, 59, 0
2, 173237, Note_on_c, 0, 52, 0
2, 173324, Note_on_c, 0, 52, 70
2, 173329, Note_on_c, 0, 68, 0
2, 173408, Note_on_c, 0, 78, 94
2, 173410, Note_on_c, 0, 66, 84
2, 173414, Control_c, 0, 64, 127
2, 173472, Note_on_c, 0, 59, 66
2, 173472, Note_on_c, 0, 56, 73
2, 173608, Note_on_c, 0, 76, 87
2, 173610, Note_on_c, 0, 64, 77
2, 173621, Note_on_c, 0, 52, 0
2, 173631, Note_on_c, 0, 52, 70
2, 173680, Note_on_c, 0, 52, 0
2, 173687, Note_on_c, 0, 64, 0
2, 173692, Note_on_c, 0, 76, 0
2, 173695, Note_on_c, 0, 56, 0
2, 173713, Note_on_c, 0, 66, 0
2, 173716, Control_c, 0, 64, 0
2, 173766, Note_on_c, 0, 64, 84
2, 173767, Note_on_c, 0, 59, 0
2, 173771, Note_on_c, 0, 76, 90
2, 173774, Note_on_c, 0, 56, 70
2, 173776, Note_on_c, 0, 59, 69
2, 173783, Note_on_c, 0, 68, 74
2, 173790, Note_on_c, 0, 80, 0
2, 173806, Control_c, 0, 64, 127
2, 173813, Note_on_c, 0, 78, 0
2, 173919, Note_on_c, 0, 52, 69
2, 173981, Note_on_c, 0, 78, 94
2, 174001, Note_on_c, 0, 66, 80
2, 174082, Note_on_c, 0, 56, 0
2, 174082, Note_on_c, 0, 59, 0
2, 174092, Note_on_c, 0, 59, 71
2, 174093, Note_on_c, 0, 56, 74
2, 174146, Control_c, 0, 64, 0
2, 174152, Note_on_c, 0, 59, 0
2, 174154, Note_on_c, 0, 64, 0
2, 174155, Note_on_c, 0, 76, 0
2, 174155, Note_on_c, 0, 66, 0
2, 174155, Note_on_c, 0, 56, 0
2, 174209, Note_on_c, 0, 73, 89
2, 174214, Note_on_c, 0, 61, 80
2, 174220, Note_on_c, 0, 52, 0
2, 174224, Note_on_c, 0, 52, 72
2, 174305, Note_on_c, 0, 52, 0
2, 174366, Note_on_c, 0, 64, 81
2, 174370, Note_on_c, 0, 59, 73
2, 174370, Note_on_c, 0, 56, 74
2, 174371, Note_on_c, 0, 71, 71
2, 174428, Note_on_c, 0, 78, 0
2, 174434, Note_on_c, 0, 59, 0
2, 174441, Note_on_c, 0, 56, 0
2, 174474, Note_on_c, 0, 61, 0
2, 174474, Note_on_c, 0, 68, 0
2, 174481, Note_on_c, 0, 71, 0
2, 174515, Note_on_c, 0, 52, 74
2, 174543, Note_on_c, 0, 73, 0
2, 174548, Note_on_c, 0, 61, 52
2, 174548, Note_on_c, 0, 73, 69
2, 174612, Control_c, 0, 64, 127
2, 174627, Note_on_c, 0, 64, 0
2, 174655, Note_on_c, 0, 59, 68
2, 174656, Note_on_c, 0, 56, 72
2, 174656, Note_on_c, 0, 68, 64
2, 174658, Note_on_c, 0, 71, 61
2, 174796, Note_on_c, 0, 52, 0
2, 174801, Note_on_c, 0, 52, 63
2, 174886, Note_on_c, 0, 56, 0
2, 174886, Note_on_c, 0, 52, 0
2, 174886, Note_on_c, 0, 73, 0
2, 174886, Note_on_c, 0, 59, 0
2, 174887, Note_on_c, 0, 71, 0
2, 174887, Control_c, 0, 64, 0
2, 174888, Note_on_c, 0, 61, 0
2, 174904, Note_on_c, 0, 68, 0
2, 174947, Note_on_c, 0, 90, 104
2, 174949, Note_on_c, 0, 78, 87
2, 174949, Note_on_c, 0, 50, 86
2, 174952, Note_on_c, 0, 62, 83
2, 174958, Control_c, 0, 64, 127
2, 175104, Note_on_c, 0, 62, 0
2, 175111, Note_on_c, 0, 50, 0
2, 175112, Note_on_c, 0, 62, 70
2, 175176, Note_on_c, 0, 92, 103
2, 175178, Note_on_c, 0, 80, 86
2, 175188, Note_on_c, 0, 90, 0
2, 175199, Note_on_c, 0, 90, 58
2, 175261, Note_on_c, 0, 69, 69
2, 175262, Note_on_c, 0, 66, 74
2, 175388, Note_on_c, 0, 93, 97
2, 175392, Note_on_c, 0, 81, 87
2, 175395, Note_on_c, 0, 62, 0
2, 175405, Note_on_c, 0, 62, 71
2, 175534, Note_on_c, 0, 92, 0
2, 175545, Note_on_c, 0, 92, 103
2, 175546, Note_on_c, 0, 74, 82
2, 175549, Note_on_c, 0, 66, 0
2, 175549, Note_on_c, 0, 69, 0
2, 175549, Note_on_c, 0, 80, 0
2, 175554, Note_on_c, 0, 80, 87
2, 175557, Note_on_c, 0, 69, 73
2, 175558, Note_on_c, 0, 66, 83
2, 175687, Note_on_c, 0, 62, 0
2, 175692, Note_on_c, 0, 62, 75
2, 175764, Note_on_c, 0, 90, 0
2, 175772, Note_on_c, 0, 78, 0
2, 175774, Note_on_c, 0, 90, 100
2, 175783, Note_on_c, 0, 78, 83
2, 175825, Note_on_c, 0, 69, 0
2, 175833, Note_on_c, 0, 66, 0
2, 175833, Note_on_c, 0, 69, 68
2, 175839, Note_on_c, 0, 66, 71
2, 175979, Note_on_c, 0, 62, 0
2, 175983, Note_on_c, 0, 88, 90
2, 175989, Note_on_c, 0, 76, 76
2, 175990, Note_on_c, 0, 62, 72
2, 176133, Note_on_c, 0, 66, 0
2, 176133, Note_on_c, 0, 69, 0
2, 176133, Note_on_c, 0, 88, 0
2, 176138, Note_on_c, 0, 69, 72
2, 176140, Note_on_c, 0, 76, 0
2, 176142, Note_on_c, 0, 88, 90
2, 176143, Note_on_c, 0, 66, 77
2, 176144, Note_on_c, 0, 76, 86
2, 176263, Note_on_c, 0, 62, 0
2, 176271, Note_on_c, 0, 62, 76
2, 176355, Note_on_c, 0, 90, 0
2, 176363, Note_on_c, 0, 74, 0
2, 176363, Note_on_c, 0, 78, 0
2, 176367, Note_on_c, 0, 90, 104
2, 176368, Note_on_c, 0, 78, 83
2, 176374, Note_on_c, 0, 74, 59
2, 176417, Note_on_c, 0, 66, 0
2, 176417, Note_on_c, 0, 69, 0
2, 176421, Note_on_c, 0, 69, 65
2, 176422, Note_on_c, 0, 66, 76
2, 176563, Note_on_c, 0, 62, 0
2, 176570, Note_on_c, 0, 85, 91
2, 176573, Note_on_c, 0, 62, 73
2, 176574, Note_on_c, 0, 73, 86
2, 176709, Note_on_c, 0, 66, 0
2, 176709, Note_on_c, 0, 69, 0
2, 176709, Note_on_c, 0, 74, 0
2, 176713, Note_on_c, 0, 74, 78
2, 176716, Note_on_c, 0, 69, 71
2, 176719, Note_on_c, 0, 66, 74
2, 176847, Note_on_c, 0, 62, 0
2, 176858, Note_on_c, 0, 62, 76
2, 177008, Note_on_c, 0, 66, 0
2, 177008, Note_on_c, 0, 69, 0
2, 177013, Note_on_c, 0, 69, 78
2, 177015, Note_on_c, 0, 66, 79
2, 177139, Note_on_c, 0, 62, 0
2, 177147, Note_on_c, 0, 62, 81
2, 177245, Note_on_c, 0, 66, 0
2, 177245, Note_on_c, 0, 62, 0
2, 177245, Note_on_c, 0, 69, 0
2, 177245, Note_on_c, 0, 81, 0
2, 177245, Note_on_c, 0, 93, 0
2, 177245, Note_on_c, 0, 85, 0
2, 177245, Note_on_c, 0, 73, 0
2, 177246, Note_on_c, 0, 92, 0
2, 177246, Note_on_c, 0, 80, 0
2, 177246, Note_on_c, 0, 78, 0
2, 177246, Note_on_c, 0, 74, 0
2, 177247, Note_on_c, 0, 76, 0
2, 177247, Note_on_c, 0, 88, 0
2, 177248, Control_c, 0, 64, 0
2, 177262, Note_on_c, 0, 90, 0
2, 177298, Note_on_c, 0, 52, 91
2, 177299, Note_on_c, 0, 90, 107
2, 177302, Note_on_c, 0, 64, 91
2, 177303, Note_on_c, 0, 78, 92
2, 177315, Control_c, 0, 64, 127
2, 177446, Note_on_c, 0, 64, 0
2, 177451, Note_on_c, 0, 64, 76
2, 177525, Note_on_c, 0, 92, 102
2, 177526, Note_on_c, 0, 80, 91
2, 177601, Note_on_c, 0, 71, 73
2, 177606, Note_on_c, 0, 68, 70
2, 177730, Note_on_c, 0, 94, 104
2, 177730, Note_on_c, 0, 64, 0
2, 177739, Note_on_c, 0, 64, 84
2, 177745, Note_on_c, 0, 52, 0
2, 177746, Note_on_c, 0, 82, 82
2, 177757, Note_on_c, 0, 52, 69
2, 177876, Note_on_c, 0, 68, 0
2, 177879, Note_on_c, 0, 76, 88
2, 177881, Note_on_c, 0, 88, 84
2, 177884, Note_on_c, 0, 71, 0
2, 177884, Note_on_c, 0, 80, 0
2, 177884, Note_on_c, 0, 92, 0
2, 177884, Note_on_c, 0, 68, 81
2, 177890, Note_on_c, 0, 71, 78
2, 177890, Note_on_c, 0, 92, 103
2, 177893, Note_on_c, 0, 80, 87
2, 178022, Note_on_c, 0, 64, 0
2, 178028, Note_on_c, 0, 64, 79
2, 178091, Note_on_c, 0, 90, 0
2, 178097, Note_on_c, 0, 90, 99
2, 178099, Note_on_c, 0, 78, 0
2, 178103, Note_on_c, 0, 78, 86
2, 178160, Note_on_c, 0, 68, 0
2, 178160, Note_on_c, 0, 71, 0
2, 178169, Note_on_c, 0, 68, 81
2, 178172, Note_on_c, 0, 71, 68
2, 178306, Note_on_c, 0, 88, 0
2, 178314, Note_on_c, 0, 64, 0
2, 178314, Note_on_c, 0, 76, 0
2, 178317, Note_on_c, 0, 88, 97
2, 178318, Note_on_c, 0, 76, 86
2, 178319, Note_on_c, 0, 64, 77
2, 178460, Note_on_c, 0, 76, 0
2, 178464, Note_on_c, 0, 95, 106
2, 178466, Note_on_c, 0, 76, 88
2, 178467, Note_on_c, 0, 68, 0
2, 178467, Note_on_c, 0, 71, 0
2, 178471, Note_on_c, 0, 83, 95
2, 178472, Note_on_c, 0, 71, 82
2, 178473, Note_on_c, 0, 68, 83
2, 178606, Note_on_c, 0, 64, 0
2, 178614, Note_on_c, 0, 64, 85
2, 178752, Note_on_c, 0, 68, 0
2, 178752, Note_on_c, 0, 71, 0
2, 178759, Note_on_c, 0, 68, 89
2, 178762, Note_on_c, 0, 71, 75
2, 178905, Note_on_c, 0, 64, 0
2, 178914, Note_on_c, 0, 64, 77
2, 179051, Note_on_c, 0, 71, 0
2, 179051, Note_on_c, 0, 76, 0
2, 179051, Note_on_c, 0, 88, 0
2, 179056, Note_on_c, 0, 76, 90
2, 179059, Note_on_c, 0, 68, 0
2, 179059, Note_on_c, 0, 88, 90
2, 179061, Note_on_c, 0, 71, 78
2, 179061, Note_on_c, 0, 97, 106
2, 179066, Note_on_c, 0, 85, 103
2, 179067, Note_on_c, 0, 68, 85
2, 179182, Note_on_c, 0, 64, 0
2, 179190, Note_on_c, 0, 64, 78
2, 179343, Note_on_c, 0, 68, 0
2, 179343, Note_on_c, 0, 71, 0
2, 179353, Note_on_c, 0, 68, 88
2, 179354, Note_on_c, 0, 71, 69
2, 179632, Note_on_c, 0, 94, 0
2, 179632, Note_on_c, 0, 95, 0
2, 179633, Control_c, 0, 64, 0
2, 179634, Note_on_c, 0, 64, 0
2, 179634, Note_on_c, 0, 90, 0
2, 179634, Note_on_c, 0, 82, 0
2, 179634, Note_on_c, 0, 52, 0
2, 179635, Note_on_c, 0, 68, 0
2, 179636, Note_on_c, 0, 71, 0
2, 179636, Note_on_c, 0, 80, 0
2, 179636, Note_on_c, 0, 83, 0
2, 179637, Note_on_c, 0, 78, 0
2, 179637, Note_on_c, 0, 76, 0
2, 179642, Note_on_c, 0, 85, 0
2, 179642, Note_on_c, 0, 92, 0
2, 179642, Note_on_c, 0, 97, 0
2, 179647, Note_on_c, 0, 97, 108
2, 179650, Note_on_c, 0, 88, 0
2, 179652, Note_on_c, 0, 85, 104
2, 179653, Note_on_c, 0, 92, 95
2, 179654, Note_on_c, 0, 88, 91
2, 179671, Note_on_c, 0, 33, 64
2, 179696, Control_c, 0, 64, 127
2, 179801, Note_on_c, 0, 40, 67
2, 179960, Note_on_c, 0, 73, 85
2, 179969, Note_on_c, 0, 49, 62
2, 180005, Note_on_c, 0, 69, 65
2, 180090, Note_on_c, 0, 45, 60
2, 180175, Note_on_c, 0, 62, 60
2, 180221, Note_on_c, 0, 57, 80
2, 180241, Note_on_c, 0, 49, 0
2, 180253, Note_on_c, 0, 49, 65
2, 180412, Note_on_c, 0, 75, 74
2, 180420, Note_on_c, 0, 51, 73
2, 180464, Note_on_c, 0, 69, 0
2, 180474, Note_on_c, 0, 69, 71
2, 180543, Note_on_c, 0, 64, 63
2, 180564, Note_on_c, 0, 45, 0
2, 180573, Note_on_c, 0, 45, 62
2, 180640, Note_on_c, 0, 61, 73
2, 180702, Note_on_c, 0, 57, 0
2, 180706, Note_on_c, 0, 57, 79
2, 180710, Note_on_c, 0, 49, 0
2, 180717, Note_on_c, 0, 49, 72
2, 180865, Note_on_c, 0, 52, 85
2, 180865, Note_on_c, 0, 76, 88
2, 181017, Note_on_c, 0, 45, 0
2, 181023, Note_on_c, 0, 45, 62
2, 181086, Note_on_c, 0, 61, 0
2, 181092, Note_on_c, 0, 61, 72
2, 181125, Note_on_c, 0, 57, 0
2, 181135, Note_on_c, 0, 57, 77
2, 181155, Note_on_c, 0, 49, 0
2, 181162, Note_on_c, 0, 49, 75
2, 181305, Note_on_c, 0, 78, 78
2, 181306, Note_on_c, 0, 54, 84
2, 181363, Note_on_c, 0, 73, 0
2, 181373, Note_on_c, 0, 73, 79
2, 181416, Note_on_c, 0, 69, 0
2, 181421, Note_on_c, 0, 69, 71
2, 181432, Note_on_c, 0, 45, 0
2, 181437, Note_on_c, 0, 45, 75
2, 181562, Note_on_c, 0, 49, 0
2, 181567, Note_on_c, 0, 49, 82
2, 181599, Note_on_c, 0, 80, 90
2, 181600, Note_on_c, 0, 68, 91
2, 181739, Note_on_c, 0, 49, 0
2, 181739, Note_on_c, 0, 69, 0
2, 181741, Note_on_c, 0, 81, 98
2, 181743, Note_on_c, 0, 47, 66
2, 181745, Note_on_c, 0, 69, 86
2, 181747, Note_on_c, 0, 47, 0
2, 181748, Note_on_c, 0, 49, 69
2, 181858, Note_on_c, 0, 47, 68
2, 181893, Note_on_c, 0, 83, 96
2, 181897, Note_on_c, 0, 71, 82
2, 181900, Note_on_c, 0, 97, 0
2, 182023, Note_on_c, 0, 47, 0
2, 182023, Control_c, 0, 64, 0
2, 182023, Note_on_c, 0, 54, 0
2, 182023, Note_on_c, 0, 62, 0
2, 182024, Note_on_c, 0, 64, 0
2, 182024, Note_on_c, 0, 52, 0
2, 182024, Note_on_c, 0, 78, 0
2, 182024, Note_on_c, 0, 51, 0
2, 182024, Note_on_c, 0, 69, 0
2, 182024, Note_on_c, 0, 45, 0
2, 182024, Note_on_c, 0, 73, 0
2, 182025, Note_on_c, 0, 61, 0
2, 182025, Note_on_c, 0, 83, 0
2, 182025, Note_on_c, 0, 68, 0
2, 182025, Note_on_c, 0, 40, 0
2, 182025, Note_on_c, 0, 80, 0
2, 182025, Note_on_c, 0, 71, 0
2, 182025, Note_on_c, 0, 75, 0
2, 182025, Note_on_c, 0, 76, 0
2, 182025, Note_on_c, 0, 85, 0
2, 182025, Note_on_c, 0, 92, 0
2, 182025, Note_on_c, 0, 81, 0
2, 182026, Note_on_c, 0, 88, 0
2, 182031, Note_on_c, 0, 33, 0
2, 182033, Note_on_c, 0, 37, 79
2, 182039, Note_on_c, 0, 57, 0
2, 182046, Note_on_c, 0, 49, 0
2, 182123, Control_c, 0, 64, 127
2, 182166, Note_on_c, 0, 44, 79
2, 182320, Note_on_c, 0, 88, 94
2, 182321, Note_on_c, 0, 64, 89
2, 182391, Note_on_c, 0, 80, 80
2, 182441, Note_on_c, 0, 76, 65
2, 182466, Note_on_c, 0, 49, 75
2, 182534, Note_on_c, 0, 71, 61
2, 182592, Note_on_c, 0, 68, 91
2, 182615, Note_on_c, 0, 64, 0
2, 182619, Note_on_c, 0, 64, 76
2, 182631, Note_on_c, 0, 56, 80
2, 182767, Note_on_c, 0, 87, 91
2, 182773, Note_on_c, 0, 63, 86
2, 182791, Note_on_c, 0, 88, 0
2, 182795, Note_on_c, 0, 88, 55
2, 182830, Note_on_c, 0, 80, 0
2, 182841, Note_on_c, 0, 80, 78
2, 182876, Note_on_c, 0, 76, 0
2, 182885, Note_on_c, 0, 76, 66
2, 182914, Note_on_c, 0, 49, 0
2, 182921, Note_on_c, 0, 49, 62
2, 182983, Note_on_c, 0, 71, 0
2, 182990, Note_on_c, 0, 71, 55
2, 182991, Note_on_c, 0, 64, 0
2, 182999, Note_on_c, 0, 64, 46
2, 183022, Note_on_c, 0, 68, 0
2, 183029, Note_on_c, 0, 68, 81
2, 183045, Note_on_c, 0, 64, 0
2, 183050, Note_on_c, 0, 64, 62
2, 183068, Note_on_c, 0, 56, 0
2, 183074, Note_on_c, 0, 56, 82
2, 183206, Note_on_c, 0, 71, 0
2, 183216, Note_on_c, 0, 71, 83
2, 183217, Note_on_c, 0, 59, 83
2, 183217, Note_on_c, 0, 83, 95
2, 183290, Note_on_c, 0, 76, 0
2, 183301, Note_on_c, 0, 76, 71
2, 183360, Note_on_c, 0, 49, 0
2, 183370, Note_on_c, 0, 49, 77
2, 183513, Note_on_c, 0, 56, 0
2, 183520, Note_on_c, 0, 56, 82
2, 183655, Note_on_c, 0, 85, 95
2, 183666, Note_on_c, 0, 61, 81
2, 183667, Note_on_c, 0, 80, 0
2, 183675, Note_on_c, 0, 80, 85
2, 183736, Note_on_c, 0, 76, 0
2, 183744, Note_on_c, 0, 76, 74
2, 183773, Note_on_c, 0, 73, 92
2, 183797, Note_on_c, 0, 49, 0
2, 183807, Note_on_c, 0, 49, 74
2, 183943, Note_on_c, 0, 56, 0
2, 183943, Note_on_c, 0, 87, 0
2, 183944, Note_on_c, 0, 44, 0
2, 183951, Note_on_c, 0, 56, 78
2, 183955, Note_on_c, 0, 87, 103
2, 183958, Note_on_c, 0, 75, 89
2, 184089, Note_on_c, 0, 76, 0
2, 184089, Note_on_c, 0, 88, 0
2, 184089, Note_on_c, 0, 47, 79
2, 184094, Note_on_c, 0, 88, 103
2, 184099, Note_on_c, 0, 76, 91
2, 184227, Note_on_c, 0, 59, 0
2, 184231, Note_on_c, 0, 59, 73
2, 184240, Note_on_c, 0, 90, 105
2, 184242, Note_on_c, 0, 78, 85
2, 184304, Note_on_c, 0, 49, 0
2, 184310, Note_on_c, 0, 49, 49
2, 184381, Note_on_c, 0, 47, 0
2, 184383, Note_on_c, 0, 37, 0
2, 184383, Control_c, 0, 64, 0
2, 184383, Note_on_c, 0, 75, 0
2, 184383, Note_on_c, 0, 49, 0
2, 184383, Note_on_c, 0, 56, 0
2, 184384, Note_on_c, 0, 68, 0
2, 184384, Note_on_c, 0, 73, 0
2, 184384, Note_on_c, 0, 88, 0
2, 184384, Note_on_c, 0, 83, 0
2, 184384, Note_on_c, 0, 85, 0
2, 184384, Note_on_c, 0, 64, 0
2, 184384, Note_on_c, 0, 63, 0
2, 184384, Note_on_c, 0, 71, 0
2, 184384, Note_on_c, 0, 80, 0
2, 184384, Note_on_c, 0, 61, 0
2, 184391, Note_on_c, 0, 45, 95
2, 184396, Note_on_c, 0, 59, 0
2, 184396, Note_on_c, 0, 76, 0
2, 184412, Note_on_c, 0, 87, 0
2, 184465, Control_c, 0, 64, 127
2, 184535, Note_on_c, 0, 52, 84
2, 184679, Note_on_c, 0, 92, 105
2, 184685, Note_on_c, 0, 66, 94
2, 184722, Note_on_c, 0, 85, 84
2, 184790, Note_on_c, 0, 81, 66
2, 184847, Note_on_c, 0, 57, 74
2, 184878, Note_on_c, 0, 76, 75
2, 184932, Note_on_c, 0, 73, 88
2, 184971, Note_on_c, 0, 69, 71
2, 184986, Note_on_c, 0, 61, 86
2, 185118, Note_on_c, 0, 66, 0
2, 185127, Note_on_c, 0, 66, 98
2, 185134, Note_on_c, 0, 90, 0
2, 185134, Note_on_c, 0, 92, 0
2, 185140, Note_on_c, 0, 92, 86
2, 185143, Note_on_c, 0, 90, 89
2, 185233, Note_on_c, 0, 81, 0
2, 185238, Note_on_c, 0, 81, 83
2, 185280, Note_on_c, 0, 57, 0
2, 185286, Note_on_c, 0, 57, 80
2, 185341, Note_on_c, 0, 76, 0
2, 185346, Note_on_c, 0, 76, 70
2, 185402, Note_on_c, 0, 73, 0
2, 185409, Note_on_c, 0, 73, 82
2, 185441, Note_on_c, 0, 61, 0
2, 185441, Note_on_c, 0, 69, 0
2, 185446, Note_on_c, 0, 61, 87
2, 185451, Note_on_c, 0, 69, 69
2, 185583, Note_on_c, 0, 88, 101
2, 185585, Note_on_c, 0, 64, 94
2, 185625, Note_on_c, 0, 85, 0
2, 185631, Note_on_c, 0, 85, 75
2, 185671, Note_on_c, 0, 81, 0
2, 185681, Note_on_c, 0, 81, 81
2, 185725, Note_on_c, 0, 57, 0
2, 185725, Note_on_c, 0, 76, 0
2, 185733, Note_on_c, 0, 76, 70
2, 185736, Note_on_c, 0, 57, 77
2, 185802, Note_on_c, 0, 73, 0
2, 185812, Note_on_c, 0, 73, 85
2, 185840, Note_on_c, 0, 69, 0
2, 185851, Note_on_c, 0, 69, 70
2, 185879, Note_on_c, 0, 61, 0
2, 185889, Note_on_c, 0, 61, 88
2, 186015, Note_on_c, 0, 95, 103
2, 186025, Note_on_c, 0, 71, 89
2, 186094, Note_on_c, 0, 88, 0
2, 186100, Note_on_c, 0, 89, 57
2, 186103, Note_on_c, 0, 88, 75
2, 186109, Note_on_c, 0, 89, 0
2, 186117, Note_on_c, 0, 85, 0
2, 186128, Note_on_c, 0, 85, 84
2, 186155, Note_on_c, 0, 57, 0
2, 186155, Note_on_c, 0, 81, 0
2, 186160, Note_on_c, 0, 81, 72
2, 186164, Note_on_c, 0, 57, 87
2, 186240, Note_on_c, 0, 78, 0
2, 186278, Note_on_c, 0, 61, 0
2, 186289, Note_on_c, 0, 61, 85
2, 186293, Note_on_c, 0, 92, 0
2, 186298, Note_on_c, 0, 80, 96
2, 186301, Note_on_c, 0, 92, 100
2, 186324, Note_on_c, 0, 90, 0
2, 186328, Note_on_c, 0, 90, 63
2, 186385, Note_on_c, 0, 95, 0
2, 186439, Note_on_c, 0, 81, 0
2, 186442, Note_on_c, 0, 93, 105
2, 186443, Note_on_c, 0, 47, 81
2, 186444, Note_on_c, 0, 81, 97
2, 186576, Note_on_c, 0, 59, 76
2, 186589, Note_on_c, 0, 95, 103
2, 186597, Note_on_c, 0, 83, 90
2, 186722, Note_on_c, 0, 93, 0
2, 186722, Note_on_c, 0, 81, 0
2, 186722, Note_on_c, 0, 52, 0
2, 186722, Note_on_c, 0, 92, 0
2, 186722, Note_on_c, 0, 90, 0
2, 186722, Note_on_c, 0, 45, 0
2, 186723, Note_on_c, 0, 59, 0
2, 186723, Note_on_c, 0, 80, 0
2, 186723, Note_on_c, 0, 64, 0
2, 186723, Note_on_c, 0, 71, 0
2, 186723, Note_on_c, 0, 47, 0
2, 186723, Note_on_c, 0, 61, 0
2, 186723, Note_on_c, 0, 66, 0
2, 186724, Note_on_c, 0, 85, 0
2, 186724, Note_on_c, 0, 57, 0
2, 186724, Note_on_c, 0, 76, 0
2, 186726, Control_c, 0, 64, 0
2, 186735, Note_on_c, 0, 49, 95
2, 186739, Note_on_c, 0, 69, 0
2, 186739, Note_on_c, 0, 73, 0
2, 186746, Note_on_c, 0, 88, 0
2, 186808, Control_c, 0, 64, 127
2, 186874, Note_on_c, 0, 56, 89
2, 187015, Note_on_c, 0, 83, 0
2, 187023, Note_on_c, 0, 100, 97
2, 187026, Note_on_c, 0, 76, 94
2, 187027, Note_on_c, 0, 88, 93
2, 187072, Note_on_c, 0, 92, 90
2, 187115, Note_on_c, 0, 88, 0
2, 187126, Note_on_c, 0, 88, 82
2, 187187, Note_on_c, 0, 61, 75
2, 187221, Note_on_c, 0, 83, 72
2, 187277, Note_on_c, 0, 80, 85
2, 187299, Note_on_c, 0, 76, 0
2, 187304, Note_on_c, 0, 76, 62
2, 187333, Note_on_c, 0, 68, 88
2, 187464, Note_on_c, 0, 99, 96
2, 187477, Note_on_c, 0, 75, 89
2, 187482, Note_on_c, 0, 87, 81
2, 187507, Note_on_c, 0, 92, 0
2, 187517, Note_on_c, 0, 92, 88
2, 187560, Note_on_c, 0, 88, 0
2, 187572, Note_on_c, 0, 88, 69
2, 187614, Note_on_c, 0, 61, 0
2, 187618, Note_on_c, 0, 61, 75
2, 187645, Note_on_c, 0, 83, 0
2, 187653, Note_on_c, 0, 83, 77
2, 187699, Note_on_c, 0, 80, 0
2, 187707, Note_on_c, 0, 80, 80
2, 187760, Note_on_c, 0, 68, 0
2, 187767, Note_on_c, 0, 68, 77
2, 187903, Note_on_c, 0, 71, 85
2, 187912, Note_on_c, 0, 96, 92
2, 187921, Note_on_c, 0, 95, 0
2, 187927, Note_on_c, 0, 95, 86
2, 187944, Note_on_c, 0, 92, 0
2, 187949, Note_on_c, 0, 92, 83
2, 187991, Note_on_c, 0, 88, 0
2, 187995, Note_on_c, 0, 88, 85
2, 188037, Note_on_c, 0, 83, 0
2, 188044, Note_on_c, 0, 61, 0
2, 188048, Note_on_c, 0, 83, 75
2, 188055, Note_on_c, 0, 61, 71
2, 188129, Note_on_c, 0, 80, 0
2, 188139, Note_on_c, 0, 80, 76
2, 188198, Note_on_c, 0, 68, 0
2, 188198, Note_on_c, 0, 76, 0
2, 188204, Note_on_c, 0, 68, 82
2, 188209, Note_on_c, 0, 76, 54
2, 188355, Note_on_c, 0, 73, 86
2, 188365, Note_on_c, 0, 97, 86
2, 188394, Note_on_c, 0, 98, 63
2, 188405, Note_on_c, 0, 98, 0
2, 188428, Note_on_c, 0, 95, 0
2, 188439, Note_on_c, 0, 95, 89
2, 188444, Note_on_c, 0, 71, 0
2, 188449, Note_on_c, 0, 71, 72
2, 188513, Note_on_c, 0, 68, 0
2, 188513, Note_on_c, 0, 92, 0
2, 188518, Note_on_c, 0, 68, 73
2, 188519, Note_on_c, 0, 92, 85
2, 188559, Note_on_c, 0, 88, 0
2, 188564, Note_on_c, 0, 88, 77
2, 188605, Note_on_c, 0, 64, 82
2, 188636, Note_on_c, 0, 61, 0
2, 188646, Note_on_c, 0, 61, 75
2, 188705, Note_on_c, 0, 83, 0
2, 188710, Note_on_c, 0, 83, 79
2, 188739, Note_on_c, 0, 59, 67
2, 188774, Note_on_c, 0, 80, 0
2, 188782, Note_on_c, 0, 56, 0
2, 188784, Note_on_c, 0, 80, 73
2, 188787, Note_on_c, 0, 56, 71
2, 188820, Note_on_c, 0, 76, 0
2, 188828, Note_on_c, 0, 76, 72
2, 188861, Note_on_c, 0, 52, 65
2, 188897, Note_on_c, 0, 49, 0
2, 188901, Note_on_c, 0, 49, 67
2, 188958, Note_on_c, 0, 71, 0
2, 188963, Note_on_c, 0, 71, 70
2, 189066, Note_on_c, 0, 96, 0
2, 189096, Note_on_c, 0, 68, 0
2, 189102, Note_on_c, 0, 68, 91
2, 189120, Note_on_c, 0, 61, 0
2, 189120, Note_on_c, 0, 64, 0
2, 189124, Note_on_c, 0, 57, 74
2, 189124, Note_on_c, 0, 64, 65
2, 189125, Note_on_c, 0, 61, 74
2, 189132, Note_on_c, 0, 45, 71
2, 189132, Note_on_c, 0, 33, 62
2, 189168, Note_on_c, 0, 80, 0
2, 189168, Note_on_c, 0, 87, 0
2, 189168, Note_on_c, 0, 88, 0
2, 189169, Note_on_c, 0, 100, 0
2, 189169, Note_on_c, 0, 73, 0
2, 189169, Note_on_c, 0, 76, 0
2, 189169, Note_on_c, 0, 97, 0
2, 189169, Note_on_c, 0, 75, 0
2, 189169, Note_on_c, 0, 92, 0
2, 189169, Note_on_c, 0, 71, 0
2, 189169, Note_on_c, 0, 99, 0
2, 189169, Note_on_c, 0, 59, 0
2, 189169, Note_on_c, 0, 83, 0
2, 189169, Note_on_c, 0, 95, 0
2, 189170, Note_on_c, 0, 49, 0
2, 189172, Control_c, 0, 64, 0
2, 189189, Note_on_c, 0, 56, 0
2, 189834, Control_c, 0, 64, 127
2, 190686, Note_on_c, 0, 52, 0
2, 191370, Note_on_c, 0, 33, 0
2, 191381, Note_on_c, 0, 33, 35
2, 192087, Note_on_c, 0, 40, 48
2, 192560, Note_on_c, 0, 45, 0
2, 192565, Note_on_c, 0, 45, 57
2, 192873, Note_on_c, 0, 52, 67
2, 193105, Note_on_c, 0, 57, 0
2, 193112, Note_on_c, 0, 57, 68
2, 193313, Note_on_c, 0, 61, 0
2, 193323, Note_on_c, 0, 61, 78
2, 193509, Note_on_c, 0, 63, 68
2, 193704, Note_on_c, 0, 64, 0
2, 193712, Note_on_c, 0, 68, 0
2, 193713, Note_on_c, 0, 64, 72
2, 193916, Note_on_c, 0, 69, 72
2, 194139, Note_on_c, 0, 73, 70
2, 194367, Note_on_c, 0, 75, 66
2, 194654, Note_on_c, 0, 76, 69
2, 194955, Note_on_c, 0, 81, 70
2, 195344, Note_on_c, 0, 85, 63
2, 195709, Note_on_c, 0, 33, 0
2, 195819, Note_on_c, 0, 88, 80
2, 196471, Note_on_c, 0, 95, 78
2, 196477, Note_on_c, 0, 95, 0
2, 196692, Note_on_c, 0, 40, 0
2, 197176, Note_on_c, 0, 45, 0
2, 197483, Note_on_c, 0, 52, 0
2, 197721, Note_on_c, 0, 57, 0
2, 197760, Note_on_c, 0, 61, 0
2, 197760, Note_on_c, 0, 63, 0
2, 197760, Note_on_c, 0, 64, 0
2, 197760, Note_on_c, 0, 69, 0
2, 197760, Note_on_c, 0, 73, 0
2, 197760, Note_on_c, 0, 75, 0
2, 197760, Note_on_c, 0, 76, 0
2, 197760, Note_on_c, 0, 81, 0
2, 197760, Note_on_c, 0, 85, 0
2, 197760, Note_on_c, 0, 88, 0
2, 197760, Control_c, 0, 64, 0
2, 201600, Control_c, 0, 64, 127
2, 203737, Control_c, 0, 64, 0
2, 203927, Control_c, 0, 64, 127
2, 203996, Control_c, 0, 64, 0
2, 203997, End_track
0, 0, End_of_file
