0, 0, Header, 1, 2, 384
1, 0, Start_track
1, 0, Tempo, 500000
1, 0, Time_signature, 4, 2, 24, 8
1, 1, End_track
2, 0, Start_track
2, 46, Control_c, 0, 64, 127
2, 353, Control_c, 0, 64, 0
2, 1382, Control_c, 0, 64, 127
2, 1423, Note_on_c, 0, 69, 73
2, 1958, Note_on_c, 0, 69, 0
2, 1967, Note_on_c, 0, 69, 73
2, 2227, Note_on_c, 0, 69, 0
2, 2237, Note_on_c, 0, 69, 68
2, 2498, Note_on_c, 0, 71, 77
2, 3041, Note_on_c, 0, 69, 0
2, 3045, Note_on_c, 0, 69, 68
2, 3287, Note_on_c, 0, 71, 0
2, 3293, Note_on_c, 0, 71, 76
2, 3589, Note_on_c, 0, 73, 80
2, 5760, Note_on_c, 0, 69, 0
2, 5760, Note_on_c, 0, 71, 0
2, 5760, Note_on_c, 0, 73, 0
2, 5958, Note_on_c, 0, 76, 83
2, 5961, Control_c, 0, 64, 0
2, 5970, Note_on_c, 0, 73, 74
2, 5972, Note_on_c, 0, 69, 68
2, 5976, Note_on_c, 0, 66, 57
2, 6182, Control_c, 0, 64, 127
2, 6489, Note_on_c, 0, 73, 0
2, 6496, Note_on_c, 0, 73, 84
2, 6497, Note_on_c, 0, 69, 0
2, 6504, Note_on_c, 0, 69, 72
2, 6512, Note_on_c, 0, 66, 0
2, 6516, Note_on_c, 0, 62, 58
2, 6517, Note_on_c, 0, 66, 65
2, 7033, Note_on_c, 0, 71, 81
2, 7050, Note_on_c, 0, 69, 0
2, 7055, Note_on_c, 0, 64, 64
2, 7056, Note_on_c, 0, 69, 71
2, 7062, Control_c, 0, 64, 0
2, 7063, Note_on_c, 0, 62, 0
2, 7063, Note_on_c, 0, 73, 0
2, 7088, Note_on_c, 0, 66, 0
2, 7096, Note_on_c, 0, 76, 0
2, 7265, Control_c, 0, 64, 127
2, 7588, Note_on_c, 0, 68, 71
2, 7825, Note_on_c, 0, 69, 0
2, 7833, Note_on_c, 0, 69, 78
2, 8102, Note_on_c, 0, 69, 0
2, 8109, Note_on_c, 0, 69, 76
2, 8117, Control_c, 0, 64, 0
2, 8122, Note_on_c, 0, 71, 0
2, 8123, Note_on_c, 0, 68, 0
2, 8133, Note_on_c, 0, 64, 0
2, 8137, Note_on_c, 0, 64, 59
2, 8137, Note_on_c, 0, 62, 51
2, 8286, Control_c, 0, 64, 127
2, 8660, Note_on_c, 0, 61, 63
2, 8931, Note_on_c, 0, 69, 0
2, 8936, Note_on_c, 0, 59, 61
2, 8937, Note_on_c, 0, 69, 46
2, 9200, Note_on_c, 0, 61, 0
2, 9207, Note_on_c, 0, 61, 63
2, 9221, Note_on_c, 0, 62, 0
2, 9226, Control_c, 0, 64, 0
2, 9408, Control_c, 0, 64, 127
2, 10214, Note_on_c, 0, 59, 0
2, 10219, Note_on_c, 0, 59, 57
2, 10245, Note_on_c, 0, 61, 0
2, 10256, Note_on_c, 0, 61, 51
2, 10268, Note_on_c, 0, 64, 0
2, 10272, Control_c, 0, 64, 0
2, 10277, Note_on_c, 0, 64, 59
2, 10291, Note_on_c, 0, 69, 0
2, 10301, Note_on_c, 0, 45, 58
2, 10302, Note_on_c, 0, 69, 80
2, 10368, Control_c, 0, 64, 127
2, 10391, Note_on_c, 0, 59, 0
2, 10566, Note_on_c, 0, 52, 64
2, 10813, Note_on_c, 0, 69, 0
2, 10816, Note_on_c, 0, 57, 61
2, 10821, Note_on_c, 0, 69, 85
2, 10836, Note_on_c, 0, 61, 0
2, 10836, Note_on_c, 0, 64, 0
2, 10841, Note_on_c, 0, 64, 54
2, 10842, Note_on_c, 0, 61, 60
2, 11082, Note_on_c, 0, 69, 0
2, 11091, Note_on_c, 0, 69, 84
2, 11346, Note_on_c, 0, 71, 85
2, 11357, Note_on_c, 0, 38, 61
2, 11358, Control_c, 0, 64, 0
2, 11361, Note_on_c, 0, 66, 69
2, 11362, Note_on_c, 0, 52, 0
2, 11362, Note_on_c, 0, 57, 0
2, 11364, Note_on_c, 0, 69, 0
2, 11366, Note_on_c, 0, 64, 0
2, 11366, Note_on_c, 0, 61, 0
2, 11367, Note_on_c, 0, 45, 0
2, 11368, Note_on_c, 0, 62, 53
2, 11377, Note_on_c, 0, 64, 58
2, 11481, Control_c, 0, 64, 127
2, 11607, Note_on_c, 0, 45, 65
2, 11858, Note_on_c, 0, 69, 81
2, 11863, Note_on_c, 0, 54, 70
2, 12111, Note_on_c, 0, 71, 0
2, 12122, Note_on_c, 0, 71, 85
2, 12364, Note_on_c, 0, 69, 0
2, 12368, Note_on_c, 0, 40, 67
2, 12369, Note_on_c, 0, 73, 87
2, 12372, Note_on_c, 0, 64, 0
2, 12374, Note_on_c, 0, 69, 79
2, 12377, Note_on_c, 0, 64, 74
2, 12399, Control_c, 0, 64, 0
2, 12400, Note_on_c, 0, 62, 0
2, 12401, Note_on_c, 0, 38, 0
2, 12401, Note_on_c, 0, 66, 0
2, 12403, Note_on_c, 0, 54, 0
2, 12403, Note_on_c, 0, 45, 0
2, 12426, Note_on_c, 0, 71, 0
2, 12533, Control_c, 0, 64, 127
2, 12641, Note_on_c, 0, 74, 81
2, 12650, Note_on_c, 0, 47, 60
2, 12879, Note_on_c, 0, 73, 0
2, 12889, Note_on_c, 0, 73, 86
2, 12894, Note_on_c, 0, 64, 0
2, 12898, Note_on_c, 0, 56, 61
2, 12901, Note_on_c, 0, 64, 73
2, 12902, Note_on_c, 0, 68, 74
2, 12907, Control_c, 0, 64, 0
2, 12925, Control_c, 0, 64, 127
2, 13063, Note_on_c, 0, 69, 0
2, 13137, Note_on_c, 0, 71, 86
2, 13286, Note_on_c, 0, 73, 0
2, 13293, Note_on_c, 0, 73, 72
2, 13355, Note_on_c, 0, 71, 0
2, 13360, Note_on_c, 0, 71, 73
2, 13391, Note_on_c, 0, 42, 66
2, 13392, Note_on_c, 0, 40, 0
2, 13393, Control_c, 0, 64, 0
2, 13394, Note_on_c, 0, 47, 0
2, 13397, Note_on_c, 0, 68, 0
2, 13398, Note_on_c, 0, 56, 0
2, 13405, Note_on_c, 0, 74, 0
2, 13409, Note_on_c, 0, 64, 0
2, 13411, Note_on_c, 0, 73, 0
2, 13413, Note_on_c, 0, 69, 81
2, 13417, Note_on_c, 0, 64, 54
2, 13455, Note_on_c, 0, 71, 0
2, 13532, Control_c, 0, 64, 127
2, 13651, Note_on_c, 0, 52, 61
2, 13908, Note_on_c, 0, 64, 0
2, 13911, Note_on_c, 0, 57, 59
2, 13916, Note_on_c, 0, 64, 71
2, 14175, Note_on_c, 0, 66, 79
2, 14361, Note_on_c, 0, 59, 62
2, 14392, Note_on_c, 0, 64, 0
2, 14402, Note_on_c, 0, 64, 64
2, 14412, Note_on_c, 0, 61, 67
2, 14430, Note_on_c, 0, 69, 0
2, 14439, Note_on_c, 0, 69, 84
2, 14441, Note_on_c, 0, 45, 65
2, 14445, Note_on_c, 0, 66, 0
2, 14445, Note_on_c, 0, 57, 0
2, 14445, Note_on_c, 0, 52, 0
2, 14447, Note_on_c, 0, 59, 0
2, 14447, Note_on_c, 0, 42, 0
2, 14450, Control_c, 0, 64, 0
2, 14568, Control_c, 0, 64, 127
2, 14689, Note_on_c, 0, 52, 65
2, 14929, Note_on_c, 0, 69, 0
2, 14936, Note_on_c, 0, 69, 85
2, 14937, Note_on_c, 0, 64, 0
2, 14940, Note_on_c, 0, 59, 72
2, 14942, Note_on_c, 0, 64, 77
2, 15194, Note_on_c, 0, 71, 91
2, 15455, Note_on_c, 0, 76, 90
2, 15457, Note_on_c, 0, 38, 66
2, 15459, Note_on_c, 0, 69, 0
2, 15461, Control_c, 0, 64, 0
2, 15464, Note_on_c, 0, 52, 0
2, 15464, Note_on_c, 0, 59, 0
2, 15464, Note_on_c, 0, 71, 0
2, 15465, Note_on_c, 0, 61, 0
2, 15469, Note_on_c, 0, 45, 0
2, 15469, Note_on_c, 0, 69, 73
2, 15475, Note_on_c, 0, 64, 0
2, 15475, Note_on_c, 0, 66, 64
2, 15479, Note_on_c, 0, 64, 62
2, 15613, Control_c, 0, 64, 127
2, 15724, Note_on_c, 0, 45, 64
2, 15977, Note_on_c, 0, 73, 89
2, 15979, Note_on_c, 0, 54, 75
2, 15982, Note_on_c, 0, 64, 0
2, 15982, Note_on_c, 0, 66, 0
2, 15993, Note_on_c, 0, 66, 76
2, 15993, Note_on_c, 0, 64, 75
2, 16227, Note_on_c, 0, 71, 83
2, 16366, Note_on_c, 0, 73, 0
2, 16372, Note_on_c, 0, 73, 74
2, 16427, Note_on_c, 0, 71, 0
2, 16437, Note_on_c, 0, 71, 71
2, 16496, Note_on_c, 0, 38, 0
2, 16496, Note_on_c, 0, 64, 0
2, 16496, Note_on_c, 0, 69, 0
2, 16502, Note_on_c, 0, 69, 84
2, 16502, Note_on_c, 0, 40, 56
2, 16502, Control_c, 0, 64, 0
2, 16507, Note_on_c, 0, 64, 62
2, 16508, Note_on_c, 0, 54, 0
2, 16510, Note_on_c, 0, 66, 0
2, 16513, Note_on_c, 0, 45, 0
2, 16514, Note_on_c, 0, 76, 0
2, 16515, Note_on_c, 0, 73, 0
2, 16523, Note_on_c, 0, 71, 0
2, 16642, Control_c, 0, 64, 127
2, 16769, Note_on_c, 0, 47, 57
2, 17008, Note_on_c, 0, 68, 83
2, 17012, Note_on_c, 0, 56, 70
2, 17015, Note_on_c, 0, 62, 68
2, 17080, Note_on_c, 0, 69, 0
2, 17269, Note_on_c, 0, 69, 76
2, 17525, Note_on_c, 0, 69, 0
2, 17533, Note_on_c, 0, 69, 77
2, 17538, Note_on_c, 0, 68, 0
2, 17538, Note_on_c, 0, 56, 0
2, 17545, Control_c, 0, 64, 0
2, 17548, Note_on_c, 0, 62, 0
2, 17548, Note_on_c, 0, 64, 0
2, 17554, Note_on_c, 0, 64, 61
2, 17554, Note_on_c, 0, 45, 54
2, 17555, Note_on_c, 0, 62, 54
2, 17556, Note_on_c, 0, 57, 53
2, 17556, Note_on_c, 0, 47, 0
2, 18065, Note_on_c, 0, 62, 0
2, 18091, Note_on_c, 0, 61, 54
2, 18140, Control_c, 0, 64, 127
2, 18584, Note_on_c, 0, 71, 55
2, 18608, Note_on_c, 0, 40, 0
2, 18626, Control_c, 0, 64, 0
2, 18627, Note_on_c, 0, 61, 0
2, 18629, Note_on_c, 0, 45, 0
2, 18631, Note_on_c, 0, 64, 0
2, 18635, Note_on_c, 0, 73, 68
2, 18639, Note_on_c, 0, 69, 0
2, 18642, Note_on_c, 0, 81, 85
2, 18642, Note_on_c, 0, 64, 52
2, 18647, Note_on_c, 0, 57, 0
2, 18648, Note_on_c, 0, 76, 61
2, 18650, Note_on_c, 0, 69, 67
2, 18651, Note_on_c, 0, 57, 51
2, 18769, Control_c, 0, 64, 127
2, 18808, Note_on_c, 0, 71, 0
2, 19176, Note_on_c, 0, 81, 0
2, 19183, Note_on_c, 0, 81, 82
2, 19445, Note_on_c, 0, 69, 0
2, 19445, Note_on_c, 0, 81, 0
2, 19451, Note_on_c, 0, 81, 83
2, 19453, Note_on_c, 0, 73, 0
2, 19454, Note_on_c, 0, 69, 43
2, 19461, Note_on_c, 0, 73, 45
2, 19702, Note_on_c, 0, 83, 86
2, 19722, Note_on_c, 0, 76, 0
2, 19732, Note_on_c, 0, 76, 57
2, 19733, Note_on_c, 0, 80, 61
2, 19733, Note_on_c, 0, 68, 62
2, 20236, Note_on_c, 0, 81, 0
2, 20244, Note_on_c, 0, 81, 82
2, 20490, Note_on_c, 0, 83, 0
2, 20496, Note_on_c, 0, 83, 93
2, 20770, Note_on_c, 0, 85, 83
2, 20774, Note_on_c, 0, 64, 0
2, 20782, Note_on_c, 0, 69, 0
2, 20782, Note_on_c, 0, 76, 0
2, 20782, Note_on_c, 0, 81, 0
2, 20785, Note_on_c, 0, 54, 47
2, 20785, Note_on_c, 0, 64, 53
2, 20788, Note_on_c, 0, 76, 56
2, 20788, Note_on_c, 0, 81, 65
2, 20791, Note_on_c, 0, 69, 59
2, 20801, Control_c, 0, 64, 0
2, 20812, Note_on_c, 0, 68, 0
2, 20815, Note_on_c, 0, 57, 0
2, 20835, Note_on_c, 0, 73, 0
2, 20835, Note_on_c, 0, 83, 0
2, 20858, Note_on_c, 0, 80, 0
2, 21112, Control_c, 0, 64, 127
2, 21808, Note_on_c, 0, 80, 67
2, 21826, Note_on_c, 0, 71, 56
2, 21826, Note_on_c, 0, 64, 0
2, 21828, Note_on_c, 0, 52, 50
2, 21831, Note_on_c, 0, 64, 46
2, 21836, Note_on_c, 0, 85, 0
2, 21836, Note_on_c, 0, 54, 0
2, 21837, Control_c, 0, 64, 0
2, 21849, Note_on_c, 0, 69, 0
2, 21849, Note_on_c, 0, 81, 0
2, 21957, Control_c, 0, 64, 127
2, 22333, Note_on_c, 0, 76, 0
2, 22338, Note_on_c, 0, 68, 63
2, 22341, Note_on_c, 0, 76, 60
2, 22883, Note_on_c, 0, 88, 89
2, 22894, Note_on_c, 0, 76, 0
2, 22898, Note_on_c, 0, 81, 76
2, 22905, Note_on_c, 0, 50, 52
2, 22905, Note_on_c, 0, 66, 56
2, 22905, Note_on_c, 0, 76, 64
2, 22915, Note_on_c, 0, 71, 0
2, 22919, Note_on_c, 0, 64, 0
2, 22919, Note_on_c, 0, 80, 0
2, 22920, Note_on_c, 0, 68, 0
2, 22920, Note_on_c, 0, 52, 0
2, 22926, Control_c, 0, 64, 0
2, 23063, Control_c, 0, 64, 127
2, 23425, Note_on_c, 0, 85, 89
2, 23450, Note_on_c, 0, 78, 69
2, 23454, Note_on_c, 0, 76, 0
2, 23463, Note_on_c, 0, 76, 60
2, 23945, Note_on_c, 0, 83, 83
2, 23957, Note_on_c, 0, 59, 51
2, 23958, Note_on_c, 0, 64, 61
2, 23961, Note_on_c, 0, 76, 0
2, 23963, Note_on_c, 0, 52, 53
2, 23964, Note_on_c, 0, 50, 0
2, 23965, Note_on_c, 0, 78, 0
2, 23966, Note_on_c, 0, 88, 0
2, 23966, Note_on_c, 0, 81, 0
2, 23967, Note_on_c, 0, 66, 0
2, 23967, Note_on_c, 0, 76, 61
2, 23968, Control_c, 0, 64, 0
2, 23969, Note_on_c, 0, 85, 0
2, 23973, Note_on_c, 0, 74, 60
2, 24099, Control_c, 0, 64, 127
2, 24496, Note_on_c, 0, 68, 75
2, 24746, Note_on_c, 0, 81, 80
2, 25021, Note_on_c, 0, 81, 0
2, 25026, Note_on_c, 0, 81, 81
2, 25036, Note_on_c, 0, 76, 0
2, 25043, Note_on_c, 0, 76, 66
2, 25044, Note_on_c, 0, 64, 0
2, 25044, Note_on_c, 0, 74, 0
2, 25045, Note_on_c, 0, 57, 54
2, 25047, Note_on_c, 0, 45, 47
2, 25049, Note_on_c, 0, 69, 66
2, 25052, Note_on_c, 0, 45, 0
2, 25052, Note_on_c, 0, 64, 61
2, 25055, Note_on_c, 0, 74, 62
2, 25086, Note_on_c, 0, 52, 0
2, 25087, Note_on_c, 0, 83, 0
2, 25087, Note_on_c, 0, 68, 0
2, 25088, Note_on_c, 0, 59, 0
2, 25094, Control_c, 0, 64, 0
2, 26139, Note_on_c, 0, 73, 64
2, 26181, Note_on_c, 0, 74, 0
2, 26449, Control_c, 0, 64, 127
2, 27175, Note_on_c, 0, 71, 55
2, 27202, Note_on_c, 0, 73, 0
2, 27206, Note_on_c, 0, 73, 56
2, 27233, Note_on_c, 0, 57, 0
2, 27240, Note_on_c, 0, 69, 0
2, 27240, Note_on_c, 0, 76, 0
2, 27240, Note_on_c, 0, 81, 0
2, 27244, Note_on_c, 0, 57, 58
2, 27247, Note_on_c, 0, 76, 64
2, 27248, Note_on_c, 0, 81, 84
2, 27251, Note_on_c, 0, 69, 64
2, 27260, Control_c, 0, 64, 0
2, 27356, Control_c, 0, 64, 127
2, 27502, Note_on_c, 0, 64, 0
2, 27506, Note_on_c, 0, 64, 70
2, 27755, Note_on_c, 0, 69, 0
2, 27755, Note_on_c, 0, 81, 0
2, 27760, Note_on_c, 0, 81, 85
2, 27766, Note_on_c, 0, 69, 68
2, 28008, Note_on_c, 0, 81, 0
2, 28016, Note_on_c, 0, 64, 0
2, 28019, Note_on_c, 0, 81, 86
2, 28022, Note_on_c, 0, 64, 68
2, 28285, Note_on_c, 0, 83, 92
2, 28292, Note_on_c, 0, 56, 64
2, 28300, Note_on_c, 0, 71, 0
2, 28300, Note_on_c, 0, 76, 0
2, 28305, Note_on_c, 0, 76, 62
2, 28307, Note_on_c, 0, 71, 63
2, 28337, Note_on_c, 0, 64, 0
2, 28337, Note_on_c, 0, 81, 0
2, 28339, Control_c, 0, 64, 0
2, 28346, Note_on_c, 0, 57, 0
2, 28346, Note_on_c, 0, 73, 0
2, 28354, Note_on_c, 0, 69, 0
2, 28454, Control_c, 0, 64, 127
2, 28547, Note_on_c, 0, 64, 72
2, 28795, Note_on_c, 0, 81, 87
2, 28803, Note_on_c, 0, 69, 74
2, 29038, Note_on_c, 0, 83, 0
2, 29049, Note_on_c, 0, 83, 90
2, 29068, Note_on_c, 0, 64, 0
2, 29072, Note_on_c, 0, 64, 68
2, 29314, Note_on_c, 0, 81, 0
2, 29320, Note_on_c, 0, 81, 86
2, 29322, Note_on_c, 0, 54, 67
2, 29329, Note_on_c, 0, 76, 0
2, 29334, Note_on_c, 0, 56, 0
2, 29334, Note_on_c, 0, 64, 0
2, 29334, Note_on_c, 0, 76, 71
2, 29334, Note_on_c, 0, 69, 0
2, 29334, Note_on_c, 0, 83, 0
2, 29338, Note_on_c, 0, 73, 71
2, 29339, Control_c, 0, 64, 0
2, 29345, Note_on_c, 0, 71, 0
2, 29445, Control_c, 0, 64, 127
2, 29581, Note_on_c, 0, 64, 65
2, 29842, Note_on_c, 0, 93, 98
2, 29844, Note_on_c, 0, 81, 0
2, 29851, Note_on_c, 0, 81, 83
2, 29853, Note_on_c, 0, 69, 74
2, 30105, Note_on_c, 0, 64, 0
2, 30116, Note_on_c, 0, 64, 72
2, 30377, Note_on_c, 0, 92, 96
2, 30386, Note_on_c, 0, 83, 80
2, 30387, Note_on_c, 0, 49, 72
2, 30412, Control_c, 0, 64, 0
2, 30414, Note_on_c, 0, 81, 0
2, 30415, Note_on_c, 0, 54, 0
2, 30415, Note_on_c, 0, 73, 0
2, 30415, Note_on_c, 0, 93, 0
2, 30416, Note_on_c, 0, 69, 0
2, 30416, Note_on_c, 0, 76, 0
2, 30428, Note_on_c, 0, 64, 0
2, 30535, Control_c, 0, 64, 127
2, 30644, Note_on_c, 0, 59, 66
2, 30899, Note_on_c, 0, 64, 76
2, 31138, Note_on_c, 0, 88, 88
2, 31154, Note_on_c, 0, 68, 69
2, 31154, Note_on_c, 0, 80, 75
2, 31260, Note_on_c, 0, 85, 80
2, 31275, Note_on_c, 0, 76, 68
2, 31380, Note_on_c, 0, 83, 0
2, 31391, Note_on_c, 0, 83, 90
2, 31400, Note_on_c, 0, 50, 72
2, 31415, Note_on_c, 0, 74, 68
2, 31421, Note_on_c, 0, 78, 64
2, 31430, Note_on_c, 0, 92, 0
2, 31431, Note_on_c, 0, 68, 0
2, 31432, Note_on_c, 0, 80, 0
2, 31432, Note_on_c, 0, 64, 0
2, 31432, Note_on_c, 0, 59, 0
2, 31433, Note_on_c, 0, 49, 0
2, 31434, Note_on_c, 0, 88, 0
2, 31434, Note_on_c, 0, 76, 0
2, 31434, Note_on_c, 0, 85, 0
2, 31436, Control_c, 0, 64, 0
2, 31572, Control_c, 0, 64, 127
2, 31663, Note_on_c, 0, 57, 60
2, 31910, Note_on_c, 0, 83, 0
2, 31916, Note_on_c, 0, 83, 85
2, 31928, Note_on_c, 0, 66, 65
2, 32169, Note_on_c, 0, 85, 84
2, 32186, Note_on_c, 0, 57, 0
2, 32191, Note_on_c, 0, 57, 60
2, 32193, Note_on_c, 0, 69, 63
2, 32417, Note_on_c, 0, 83, 0
2, 32425, Note_on_c, 0, 83, 89
2, 32440, Note_on_c, 0, 74, 0
2, 32446, Note_on_c, 0, 52, 63
2, 32450, Note_on_c, 0, 76, 65
2, 32450, Note_on_c, 0, 74, 63
2, 32463, Note_on_c, 0, 50, 0
2, 32464, Note_on_c, 0, 66, 0
2, 32464, Note_on_c, 0, 57, 0
2, 32464, Note_on_c, 0, 78, 0
2, 32466, Note_on_c, 0, 85, 0
2, 32466, Control_c, 0, 64, 0
2, 32486, Note_on_c, 0, 69, 0
2, 32616, Control_c, 0, 64, 127
2, 32711, Note_on_c, 0, 59, 66
2, 32972, Note_on_c, 0, 81, 82
2, 32972, Note_on_c, 0, 68, 68
2, 33208, Note_on_c, 0, 83, 0
2, 33218, Note_on_c, 0, 83, 83
2, 33231, Note_on_c, 0, 59, 0
2, 33238, Note_on_c, 0, 59, 66
2, 33477, Note_on_c, 0, 81, 0
2, 33480, Note_on_c, 0, 81, 81
2, 33498, Note_on_c, 0, 57, 55
2, 33500, Note_on_c, 0, 74, 0
2, 33500, Note_on_c, 0, 76, 0
2, 33504, Note_on_c, 0, 69, 55
2, 33505, Note_on_c, 0, 76, 57
2, 33507, Note_on_c, 0, 74, 56
2, 33514, Note_on_c, 0, 68, 0
2, 33514, Note_on_c, 0, 83, 0
2, 33514, Note_on_c, 0, 52, 0
2, 33516, Note_on_c, 0, 59, 0
2, 33519, Control_c, 0, 64, 0
2, 33692, Control_c, 0, 64, 127
2, 33752, Note_on_c, 0, 64, 56
2, 34037, Note_on_c, 0, 69, 0
2, 34043, Note_on_c, 0, 69, 44
2, 34275, Note_on_c, 0, 64, 0
2, 34285, Note_on_c, 0, 64, 58
2, 34554, Control_c, 0, 64, 0
2, 34560, Note_on_c, 0, 69, 0
2, 34563, Note_on_c, 0, 73, 61
2, 34564, Note_on_c, 0, 69, 56
2, 34569, Note_on_c, 0, 71, 57
2, 34606, Control_c, 0, 64, 127
2, 35059, Note_on_c, 0, 57, 0
2, 35069, Note_on_c, 0, 57, 56
2, 35266, Note_on_c, 0, 74, 0
2, 35328, Note_on_c, 0, 64, 0
2, 35334, Note_on_c, 0, 64, 93
2, 35540, Note_on_c, 0, 50, 59
2, 35545, Note_on_c, 0, 38, 56
2, 35579, Control_c, 0, 64, 0
2, 35581, Note_on_c, 0, 71, 0
2, 35586, Note_on_c, 0, 64, 0
2, 35587, Note_on_c, 0, 73, 0
2, 35588, Note_on_c, 0, 69, 0
2, 35592, Note_on_c, 0, 71, 77
2, 35596, Note_on_c, 0, 76, 0
2, 35596, Note_on_c, 0, 81, 0
2, 35603, Note_on_c, 0, 81, 91
2, 35606, Note_on_c, 0, 66, 95
2, 35607, Note_on_c, 0, 76, 68
2, 35612, Note_on_c, 0, 38, 0
2, 35681, Control_c, 0, 64, 127
2, 35864, Note_on_c, 0, 64, 86
2, 36119, Note_on_c, 0, 71, 0
2, 36127, Note_on_c, 0, 71, 93
2, 36391, Note_on_c, 0, 69, 86
2, 36579, Note_on_c, 0, 71, 0
2, 36590, Note_on_c, 0, 71, 67
2, 36618, Note_on_c, 0, 76, 0
2, 36618, Note_on_c, 0, 81, 0
2, 36622, Note_on_c, 0, 81, 82
2, 36625, Note_on_c, 0, 69, 0
2, 36628, Note_on_c, 0, 76, 74
2, 36634, Note_on_c, 0, 69, 71
2, 36641, Note_on_c, 0, 57, 0
2, 36641, Note_on_c, 0, 52, 62
2, 36644, Control_c, 0, 64, 0
2, 36644, Note_on_c, 0, 59, 65
2, 36647, Note_on_c, 0, 57, 67
2, 36661, Note_on_c, 0, 64, 0
2, 36662, Note_on_c, 0, 66, 0
2, 36662, Note_on_c, 0, 50, 0
2, 36771, Control_c, 0, 64, 127
2, 36895, Note_on_c, 0, 64, 84
2, 37163, Note_on_c, 0, 71, 0
2, 37168, Note_on_c, 0, 71, 98
2, 37432, Note_on_c, 0, 69, 0
2, 37438, Note_on_c, 0, 69, 85
2, 37655, Note_on_c, 0, 71, 0
2, 37666, Note_on_c, 0, 71, 67
2, 37678, Note_on_c, 0, 81, 0
2, 37688, Note_on_c, 0, 81, 79
2, 37693, Note_on_c, 0, 59, 0
2, 37693, Note_on_c, 0, 76, 0
2, 37698, Note_on_c, 0, 76, 66
2, 37701, Note_on_c, 0, 57, 0
2, 37704, Note_on_c, 0, 59, 62
2, 37705, Note_on_c, 0, 49, 64
2, 37707, Control_c, 0, 64, 0
2, 37710, Note_on_c, 0, 57, 59
2, 37718, Note_on_c, 0, 52, 0
2, 37719, Note_on_c, 0, 69, 0
2, 37831, Control_c, 0, 64, 127
2, 37960, Note_on_c, 0, 69, 82
2, 38215, Note_on_c, 0, 71, 0
2, 38220, Note_on_c, 0, 71, 94
2, 38495, Note_on_c, 0, 73, 88
2, 38753, Note_on_c, 0, 81, 0
2, 38759, Note_on_c, 0, 83, 69
2, 38762, Note_on_c, 0, 81, 63
2, 39014, Note_on_c, 0, 76, 0
2, 39024, Note_on_c, 0, 76, 64
2, 39283, Note_on_c, 0, 83, 0
2, 39287, Note_on_c, 0, 88, 82
2, 39294, Note_on_c, 0, 83, 68
2, 39306, Note_on_c, 0, 81, 0
2, 39317, Note_on_c, 0, 81, 50
2, 39544, Note_on_c, 0, 64, 0
2, 39551, Note_on_c, 0, 64, 87
2, 39739, Note_on_c, 0, 50, 62
2, 39760, Note_on_c, 0, 54, 66
2, 39800, Note_on_c, 0, 49, 0
2, 39801, Note_on_c, 0, 73, 0
2, 39802, Note_on_c, 0, 69, 0
2, 39805, Note_on_c, 0, 71, 0
2, 39805, Note_on_c, 0, 64, 0
2, 39811, Note_on_c, 0, 71, 81
2, 39813, Note_on_c, 0, 76, 0
2, 39813, Note_on_c, 0, 81, 0
2, 39813, Control_c, 0, 64, 0
2, 39815, Note_on_c, 0, 66, 92
2, 39819, Note_on_c, 0, 81, 88
2, 39823, Note_on_c, 0, 76, 70
2, 39836, Note_on_c, 0, 88, 0
2, 39912, Control_c, 0, 64, 127
2, 40084, Note_on_c, 0, 64, 90
2, 40320, Note_on_c, 0, 57, 0
2, 40320, Note_on_c, 0, 59, 0
2, 40320, Note_on_c, 0, 83, 0
2, 40335, Note_on_c, 0, 71, 0
2, 40341, Note_on_c, 0, 71, 93
2, 40599, Note_on_c, 0, 69, 87
2, 40819, Note_on_c, 0, 71, 0
2, 40829, Note_on_c, 0, 71, 68
2, 40849, Note_on_c, 0, 81, 0
2, 40857, Note_on_c, 0, 69, 0
2, 40857, Note_on_c, 0, 76, 0
2, 40861, Note_on_c, 0, 81, 83
2, 40861, Note_on_c, 0, 52, 63
2, 40863, Note_on_c, 0, 59, 64
2, 40863, Control_c, 0, 64, 0
2, 40866, Note_on_c, 0, 76, 71
2, 40867, Note_on_c, 0, 57, 62
2, 40867, Note_on_c, 0, 69, 72
2, 40868, Note_on_c, 0, 54, 0
2, 40869, Note_on_c, 0, 64, 0
2, 40870, Note_on_c, 0, 66, 0
2, 40871, Note_on_c, 0, 50, 0
2, 40972, Control_c, 0, 64, 127
2, 41125, Note_on_c, 0, 64, 78
2, 41372, Note_on_c, 0, 71, 0
2, 41380, Note_on_c, 0, 71, 94
2, 41648, Note_on_c, 0, 69, 0
2, 41656, Note_on_c, 0, 69, 87
2, 41894, Note_on_c, 0, 69, 0
2, 41894, Note_on_c, 0, 71, 0
2, 41894, Note_on_c, 0, 81, 0
2, 41903, Note_on_c, 0, 81, 83
2, 41904, Note_on_c, 0, 71, 80
2, 41905, Note_on_c, 0, 69, 74
2, 41909, Note_on_c, 0, 64, 0
2, 41909, Note_on_c, 0, 76, 0
2, 41913, Note_on_c, 0, 64, 67
2, 41918, Note_on_c, 0, 54, 67
2, 41918, Note_on_c, 0, 76, 66
2, 41919, Note_on_c, 0, 61, 66
2, 41952, Control_c, 0, 64, 0
2, 41953, Note_on_c, 0, 52, 0
2, 41957, Note_on_c, 0, 59, 0
2, 41994, Note_on_c, 0, 57, 0
2, 42071, Control_c, 0, 64, 127
2, 42170, Note_on_c, 0, 69, 0
2, 42180, Note_on_c, 0, 69, 78
2, 42443, Note_on_c, 0, 68, 81
2, 42700, Note_on_c, 0, 64, 0
2, 42706, Note_on_c, 0, 64, 86
2, 42965, Note_on_c, 0, 88, 70
2, 43230, Note_on_c, 0, 83, 64
2, 43484, Note_on_c, 0, 81, 0
2, 43489, Note_on_c, 0, 81, 69
2, 43729, Note_on_c, 0, 76, 0
2, 43737, Note_on_c, 0, 64, 0
2, 43740, Note_on_c, 0, 76, 88
2, 43745, Note_on_c, 0, 64, 76
2, 43969, Note_on_c, 0, 81, 0
2, 43969, Note_on_c, 0, 68, 0
2, 43969, Note_on_c, 0, 54, 0
2, 43969, Note_on_c, 0, 61, 0
2, 43969, Note_on_c, 0, 76, 0
2, 43970, Note_on_c, 0, 88, 0
2, 43970, Note_on_c, 0, 69, 0
2, 43970, Note_on_c, 0, 83, 0
2, 43975, Note_on_c, 0, 50, 60
2, 43991, Note_on_c, 0, 71, 0
2, 43993, Note_on_c, 0, 57, 60
2, 43995, Control_c, 0, 64, 0
2, 43998, Note_on_c, 0, 64, 0
2, 44007, Note_on_c, 0, 59, 72
2, 44009, Note_on_c, 0, 64, 73
2, 44017, Note_on_c, 0, 78, 101
2, 44036, Note_on_c, 0, 66, 83
2, 44083, Control_c, 0, 64, 127
2, 44213, Note_on_c, 0, 66, 0
2, 44279, Note_on_c, 0, 76, 88
2, 44282, Note_on_c, 0, 64, 0
2, 44288, Note_on_c, 0, 64, 74
2, 44550, Note_on_c, 0, 83, 102
2, 44557, Note_on_c, 0, 71, 85
2, 44814, Note_on_c, 0, 81, 91
2, 44823, Note_on_c, 0, 69, 77
2, 45025, Note_on_c, 0, 81, 0
2, 45025, Note_on_c, 0, 76, 0
2, 45025, Note_on_c, 0, 50, 0
2, 45025, Note_on_c, 0, 83, 0
2, 45025, Note_on_c, 0, 71, 0
2, 45025, Note_on_c, 0, 78, 0
2, 45028, Control_c, 0, 64, 0
2, 45039, Note_on_c, 0, 52, 72
2, 45058, Note_on_c, 0, 57, 0
2, 45058, Note_on_c, 0, 59, 0
2, 45058, Note_on_c, 0, 64, 0
2, 45058, Note_on_c, 0, 69, 0
2, 45064, Note_on_c, 0, 69, 71
2, 45066, Note_on_c, 0, 57, 70
2, 45066, Note_on_c, 0, 64, 81
2, 45069, Note_on_c, 0, 59, 75
2, 45127, Control_c, 0, 64, 127
2, 45335, Note_on_c, 0, 64, 0
2, 45340, Note_on_c, 0, 76, 87
2, 45342, Note_on_c, 0, 64, 84
2, 45608, Note_on_c, 0, 83, 99
2, 45613, Note_on_c, 0, 71, 86
2, 45871, Note_on_c, 0, 81, 90
2, 45872, Note_on_c, 0, 69, 0
2, 45879, Note_on_c, 0, 69, 76
2, 46104, Note_on_c, 0, 49, 68
2, 46118, Note_on_c, 0, 57, 0
2, 46126, Note_on_c, 0, 59, 0
2, 46126, Note_on_c, 0, 64, 0
2, 46126, Note_on_c, 0, 69, 0
2, 46129, Note_on_c, 0, 57, 66
2, 46129, Control_c, 0, 64, 0
2, 46131, Note_on_c, 0, 69, 73
2, 46132, Note_on_c, 0, 59, 72
2, 46133, Note_on_c, 0, 64, 72
2, 46145, Note_on_c, 0, 81, 0
2, 46145, Note_on_c, 0, 76, 0
2, 46146, Note_on_c, 0, 83, 0
2, 46148, Note_on_c, 0, 71, 0
2, 46149, Note_on_c, 0, 52, 0
2, 46248, Control_c, 0, 64, 127
2, 46341, Note_on_c, 0, 69, 0
2, 46391, Note_on_c, 0, 81, 86
2, 46397, Note_on_c, 0, 69, 78
2, 46653, Note_on_c, 0, 83, 98
2, 46658, Note_on_c, 0, 71, 87
2, 46916, Note_on_c, 0, 85, 90
2, 46922, Note_on_c, 0, 73, 71
2, 46925, Note_on_c, 0, 76, 72
2, 47185, Note_on_c, 0, 59, 0
2, 47190, Note_on_c, 0, 59, 61
2, 47447, Note_on_c, 0, 57, 0
2, 47447, Note_on_c, 0, 69, 0
2, 47453, Note_on_c, 0, 57, 56
2, 47455, Note_on_c, 0, 69, 58
2, 47708, Note_on_c, 0, 64, 0
2, 47718, Note_on_c, 0, 64, 70
2, 47961, Note_on_c, 0, 57, 0
2, 47961, Note_on_c, 0, 69, 0
2, 47965, Note_on_c, 0, 57, 49
2, 47965, Note_on_c, 0, 69, 52
2, 48215, Note_on_c, 0, 57, 0
2, 48222, Note_on_c, 0, 59, 0
2, 48226, Note_on_c, 0, 57, 52
2, 48226, Note_on_c, 0, 59, 53
2, 48254, Note_on_c, 0, 62, 60
2, 48257, Note_on_c, 0, 47, 62
2, 48284, Note_on_c, 0, 81, 0
2, 48287, Control_c, 0, 64, 0
2, 48289, Note_on_c, 0, 69, 0
2, 48289, Note_on_c, 0, 64, 0
2, 48290, Note_on_c, 0, 59, 0
2, 48290, Note_on_c, 0, 83, 0
2, 48291, Note_on_c, 0, 57, 0
2, 48291, Note_on_c, 0, 73, 0
2, 48291, Note_on_c, 0, 71, 0
2, 48291, Note_on_c, 0, 85, 0
2, 48292, Note_on_c, 0, 76, 0
2, 48293, Note_on_c, 0, 49, 0
2, 48407, Control_c, 0, 64, 127
2, 48525, Note_on_c, 0, 76, 69
2, 48791, Note_on_c, 0, 76, 0
2, 48794, Note_on_c, 0, 76, 67
2, 48800, Note_on_c, 0, 54, 63
2, 48802, Note_on_c, 0, 69, 63
2, 48804, Note_on_c, 0, 66, 58
2, 49052, Note_on_c, 0, 76, 0
2, 49062, Note_on_c, 0, 76, 69
2, 49313, Note_on_c, 0, 76, 0
2, 49320, Note_on_c, 0, 69, 0
2, 49321, Note_on_c, 0, 76, 74
2, 49324, Note_on_c, 0, 57, 59
2, 49327, Note_on_c, 0, 69, 61
2, 49574, Note_on_c, 0, 69, 0
2, 49576, Note_on_c, 0, 74, 76
2, 49585, Note_on_c, 0, 69, 48
2, 49605, Note_on_c, 0, 54, 0
2, 49614, Note_on_c, 0, 54, 36
2, 49835, Note_on_c, 0, 62, 0
2, 49835, Note_on_c, 0, 74, 0
2, 49839, Note_on_c, 0, 74, 78
2, 49844, Note_on_c, 0, 62, 63
2, 50106, Note_on_c, 0, 73, 77
2, 50357, Note_on_c, 0, 73, 0
2, 50362, Note_on_c, 0, 73, 81
2, 50384, Note_on_c, 0, 40, 48
2, 50385, Note_on_c, 0, 52, 51
2, 50388, Note_on_c, 0, 40, 0
2, 50388, Note_on_c, 0, 62, 0
2, 50388, Note_on_c, 0, 66, 0
2, 50394, Note_on_c, 0, 66, 60
2, 50398, Note_on_c, 0, 62, 48
2, 50403, Control_c, 0, 64, 0
2, 50406, Note_on_c, 0, 54, 0
2, 50407, Note_on_c, 0, 57, 0
2, 50407, Note_on_c, 0, 76, 0
2, 50407, Note_on_c, 0, 47, 0
2, 50407, Note_on_c, 0, 69, 0
2, 50407, Note_on_c, 0, 74, 0
2, 50534, Control_c, 0, 64, 127
2, 50644, Note_on_c, 0, 71, 67
2, 50651, Note_on_c, 0, 59, 58
2, 50764, Note_on_c, 0, 71, 0
2, 50773, Note_on_c, 0, 71, 77
2, 50895, Note_on_c, 0, 62, 0
2, 50905, Note_on_c, 0, 62, 54
2, 51156, Note_on_c, 0, 66, 0
2, 51164, Note_on_c, 0, 66, 61
2, 51438, Note_on_c, 0, 73, 0
2, 51439, Note_on_c, 0, 66, 0
2, 51444, Control_c, 0, 64, 0
2, 51452, Note_on_c, 0, 68, 62
2, 51453, Note_on_c, 0, 64, 55
2, 51563, Control_c, 0, 64, 127
2, 51962, Note_on_c, 0, 52, 0
2, 51974, Note_on_c, 0, 52, 42
2, 52513, Note_on_c, 0, 69, 69
2, 52515, Note_on_c, 0, 64, 0
2, 52519, Control_c, 0, 64, 0
2, 52520, Note_on_c, 0, 68, 0
2, 52522, Note_on_c, 0, 64, 57
2, 52528, Note_on_c, 0, 85, 63
2, 52531, Note_on_c, 0, 59, 0
2, 52531, Note_on_c, 0, 62, 0
2, 52531, Note_on_c, 0, 71, 0
2, 52534, Note_on_c, 0, 57, 52
2, 52538, Note_on_c, 0, 52, 0
2, 52646, Control_c, 0, 64, 127
2, 52785, Note_on_c, 0, 76, 60
2, 53045, Note_on_c, 0, 69, 0
2, 53051, Note_on_c, 0, 69, 73
2, 53052, Note_on_c, 0, 81, 73
2, 53299, Note_on_c, 0, 69, 0
2, 53306, Note_on_c, 0, 85, 0
2, 53308, Note_on_c, 0, 69, 74
2, 53318, Note_on_c, 0, 85, 70
2, 53572, Note_on_c, 0, 71, 81
2, 53586, Control_c, 0, 64, 0
2, 53591, Note_on_c, 0, 64, 0
2, 53594, Note_on_c, 0, 85, 0
2, 53595, Note_on_c, 0, 64, 68
2, 53598, Note_on_c, 0, 57, 0
2, 53600, Note_on_c, 0, 56, 52
2, 53602, Note_on_c, 0, 88, 65
2, 53614, Note_on_c, 0, 69, 0
2, 53683, Note_on_c, 0, 81, 0
2, 53690, Note_on_c, 0, 76, 0
2, 53706, Control_c, 0, 64, 127
2, 53721, Note_on_c, 0, 88, 0
2, 53845, Note_on_c, 0, 76, 55
2, 54090, Note_on_c, 0, 69, 81
2, 54096, Note_on_c, 0, 83, 66
2, 54107, Note_on_c, 0, 81, 62
2, 54328, Note_on_c, 0, 71, 0
2, 54339, Note_on_c, 0, 71, 77
2, 54339, Note_on_c, 0, 80, 64
2, 54610, Note_on_c, 0, 69, 0
2, 54612, Note_on_c, 0, 80, 0
2, 54612, Note_on_c, 0, 81, 0
2, 54613, Control_c, 0, 64, 0
2, 54614, Note_on_c, 0, 76, 0
2, 54614, Note_on_c, 0, 56, 0
2, 54620, Note_on_c, 0, 64, 0
2, 54621, Note_on_c, 0, 81, 72
2, 54623, Note_on_c, 0, 73, 79
2, 54627, Note_on_c, 0, 71, 0
2, 54627, Note_on_c, 0, 83, 0
2, 54628, Note_on_c, 0, 64, 69
2, 54644, Note_on_c, 0, 54, 60
2, 54727, Control_c, 0, 64, 127
2, 54896, Note_on_c, 0, 69, 62
2, 55134, Note_on_c, 0, 76, 70
2, 55395, Note_on_c, 0, 81, 0
2, 55399, Note_on_c, 0, 81, 70
2, 55656, Note_on_c, 0, 64, 0
2, 55660, Note_on_c, 0, 80, 69
2, 55662, Note_on_c, 0, 52, 59
2, 55666, Note_on_c, 0, 64, 61
2, 55668, Control_c, 0, 64, 0
2, 55670, Note_on_c, 0, 69, 0
2, 55672, Note_on_c, 0, 73, 0
2, 55672, Note_on_c, 0, 54, 0
2, 55772, Control_c, 0, 64, 127
2, 55933, Note_on_c, 0, 76, 0
2, 55940, Note_on_c, 0, 76, 58
2, 56185, Note_on_c, 0, 85, 73
2, 56693, Note_on_c, 0, 80, 0
2, 56694, Note_on_c, 0, 85, 0
2, 56695, Note_on_c, 0, 52, 0
2, 56696, Control_c, 0, 64, 0
2, 56701, Note_on_c, 0, 81, 0
2, 56709, Note_on_c, 0, 64, 0
2, 56716, Note_on_c, 0, 76, 0
2, 56721, Note_on_c, 0, 76, 83
2, 56730, Note_on_c, 0, 66, 61
2, 56734, Note_on_c, 0, 69, 65
2, 56736, Note_on_c, 0, 50, 59
2, 56736, Note_on_c, 0, 57, 58
2, 56816, Control_c, 0, 64, 127
2, 56901, Note_on_c, 0, 66, 0
2, 56916, Note_on_c, 0, 69, 0
2, 56987, Note_on_c, 0, 69, 61
2, 57259, Note_on_c, 0, 73, 85
2, 57263, Note_on_c, 0, 78, 76
2, 57523, Note_on_c, 0, 81, 71
2, 57796, Control_c, 0, 64, 0
2, 57801, Note_on_c, 0, 71, 77
2, 57801, Note_on_c, 0, 80, 75
2, 57803, Note_on_c, 0, 69, 0
2, 57803, Note_on_c, 0, 76, 0
2, 57804, Note_on_c, 0, 78, 0
2, 57804, Note_on_c, 0, 50, 0
2, 57804, Note_on_c, 0, 73, 0
2, 57804, Note_on_c, 0, 81, 0
2, 57809, Note_on_c, 0, 64, 64
2, 57811, Note_on_c, 0, 59, 57
2, 57811, Note_on_c, 0, 52, 54
2, 57822, Note_on_c, 0, 57, 0
2, 57945, Control_c, 0, 64, 127
2, 58076, Note_on_c, 0, 76, 68
2, 58327, Note_on_c, 0, 83, 79
2, 58590, Note_on_c, 0, 80, 0
2, 58594, Note_on_c, 0, 69, 79
2, 58600, Note_on_c, 0, 80, 64
2, 58859, Note_on_c, 0, 69, 0
2, 58869, Note_on_c, 0, 69, 76
2, 58874, Note_on_c, 0, 81, 69
2, 58874, Note_on_c, 0, 64, 0
2, 58877, Note_on_c, 0, 57, 56
2, 58878, Note_on_c, 0, 64, 66
2, 58895, Note_on_c, 0, 52, 0
2, 58895, Note_on_c, 0, 59, 0
2, 58898, Note_on_c, 0, 80, 0
2, 58898, Note_on_c, 0, 76, 0
2, 58900, Note_on_c, 0, 83, 0
2, 58900, Note_on_c, 0, 71, 0
2, 58902, Control_c, 0, 64, 0
2, 59066, Control_c, 0, 64, 127
2, 59150, Note_on_c, 0, 76, 59
2, 59397, Note_on_c, 0, 81, 0
2, 59404, Note_on_c, 0, 81, 65
2, 59653, Note_on_c, 0, 83, 75
2, 59911, Note_on_c, 0, 57, 0
2, 59912, Note_on_c, 0, 81, 0
2, 59916, Control_c, 0, 64, 0
2, 59918, Note_on_c, 0, 56, 59
2, 59921, Note_on_c, 0, 88, 71
2, 59927, Note_on_c, 0, 69, 0
2, 60034, Control_c, 0, 64, 127
2, 60180, Note_on_c, 0, 83, 0
2, 60188, Note_on_c, 0, 83, 68
2, 60448, Note_on_c, 0, 80, 65
2, 60948, Note_on_c, 0, 64, 0
2, 60948, Note_on_c, 0, 76, 0
2, 60953, Control_c, 0, 64, 0
2, 60957, Note_on_c, 0, 88, 0
2, 60957, Note_on_c, 0, 83, 0
2, 60958, Note_on_c, 0, 80, 0
2, 60959, Note_on_c, 0, 56, 0
2, 60959, Note_on_c, 0, 69, 76
2, 60959, Note_on_c, 0, 64, 60
2, 60960, Note_on_c, 0, 85, 74
2, 60967, Note_on_c, 0, 57, 58
2, 61094, Control_c, 0, 64, 127
2, 61261, Note_on_c, 0, 76, 57
2, 61486, Note_on_c, 0, 69, 0
2, 61491, Note_on_c, 0, 81, 73
2, 61496, Note_on_c, 0, 69, 77
2, 61747, Note_on_c, 0, 69, 0
2, 61753, Note_on_c, 0, 69, 81
2, 61754, Note_on_c, 0, 85, 0
2, 61759, Note_on_c, 0, 85, 73
2, 62013, Note_on_c, 0, 71, 83
2, 62031, Note_on_c, 0, 64, 0
2, 62034, Note_on_c, 0, 88, 70
2, 62036, Note_on_c, 0, 64, 66
2, 62037, Note_on_c, 0, 85, 0
2, 62040, Note_on_c, 0, 56, 52
2, 62041, Control_c, 0, 64, 0
2, 62054, Note_on_c, 0, 57, 0
2, 62069, Note_on_c, 0, 69, 0
2, 62161, Note_on_c, 0, 81, 0
2, 62169, Control_c, 0, 64, 127
2, 62284, Note_on_c, 0, 76, 0
2, 62291, Note_on_c, 0, 76, 66
2, 62550, Note_on_c, 0, 69, 82
2, 62555, Note_on_c, 0, 83, 73
2, 62807, Note_on_c, 0, 71, 0
2, 62815, Note_on_c, 0, 71, 82
2, 62817, Note_on_c, 0, 80, 71
2, 63083, Note_on_c, 0, 64, 0
2, 63083, Note_on_c, 0, 69, 0
2, 63089, Note_on_c, 0, 69, 73
2, 63089, Note_on_c, 0, 81, 75
2, 63094, Note_on_c, 0, 54, 61
2, 63094, Note_on_c, 0, 64, 64
2, 63097, Control_c, 0, 64, 0
2, 63097, Note_on_c, 0, 88, 0
2, 63098, Note_on_c, 0, 80, 0
2, 63099, Note_on_c, 0, 76, 0
2, 63100, Note_on_c, 0, 56, 0
2, 63114, Note_on_c, 0, 71, 0
2, 63114, Note_on_c, 0, 83, 0
2, 63229, Control_c, 0, 64, 127
2, 63364, Note_on_c, 0, 76, 71
2, 63605, Note_on_c, 0, 81, 0
2, 63611, Note_on_c, 0, 81, 95
2, 63878, Note_on_c, 0, 88, 73
2, 64135, Note_on_c, 0, 80, 92
2, 64143, Note_on_c, 0, 64, 0
2, 64147, Note_on_c, 0, 64, 66
2, 64152, Note_on_c, 0, 49, 68
2, 64155, Note_on_c, 0, 59, 61
2, 64187, Control_c, 0, 64, 0
2, 64192, Note_on_c, 0, 81, 0
2, 64192, Note_on_c, 0, 88, 0
2, 64192, Note_on_c, 0, 76, 0
2, 64193, Note_on_c, 0, 54, 0
2, 64204, Note_on_c, 0, 69, 0
2, 64312, Control_c, 0, 64, 127
2, 64402, Note_on_c, 0, 76, 68
2, 64652, Note_on_c, 0, 92, 87
2, 64656, Note_on_c, 0, 83, 79
2, 64903, Note_on_c, 0, 76, 0
2, 64914, Note_on_c, 0, 76, 80
2, 65027, Note_on_c, 0, 73, 79
2, 65150, Note_on_c, 0, 80, 0
2, 65150, Note_on_c, 0, 49, 0
2, 65151, Note_on_c, 0, 83, 0
2, 65151, Note_on_c, 0, 59, 0
2, 65151, Control_c, 0, 64, 0
2, 65151, Note_on_c, 0, 73, 0
2, 65153, Note_on_c, 0, 92, 0
2, 65172, Note_on_c, 0, 71, 82
2, 65172, Note_on_c, 0, 64, 0
2, 65172, Note_on_c, 0, 76, 0
2, 65176, Note_on_c, 0, 64, 71
2, 65176, Note_on_c, 0, 57, 46
2, 65183, Note_on_c, 0, 50, 61
2, 65264, Control_c, 0, 64, 127
2, 65443, Note_on_c, 0, 76, 67
2, 65702, Note_on_c, 0, 71, 0
2, 65709, Note_on_c, 0, 71, 82
2, 65709, Note_on_c, 0, 81, 73
2, 65970, Note_on_c, 0, 73, 77
2, 65971, Note_on_c, 0, 88, 80
2, 66240, Note_on_c, 0, 64, 0
2, 66240, Note_on_c, 0, 71, 0
2, 66244, Note_on_c, 0, 64, 71
2, 66244, Note_on_c, 0, 71, 74
2, 66244, Note_on_c, 0, 83, 75
2, 66247, Note_on_c, 0, 52, 62
2, 66249, Note_on_c, 0, 59, 62
2, 66253, Control_c, 0, 64, 0
2, 66253, Note_on_c, 0, 50, 0
2, 66253, Note_on_c, 0, 81, 0
2, 66253, Note_on_c, 0, 73, 0
2, 66254, Note_on_c, 0, 57, 0
2, 66255, Note_on_c, 0, 76, 0
2, 66257, Note_on_c, 0, 88, 0
2, 66385, Control_c, 0, 64, 127
2, 66503, Note_on_c, 0, 76, 69
2, 66759, Note_on_c, 0, 69, 83
2, 66774, Note_on_c, 0, 88, 73
2, 67015, Note_on_c, 0, 71, 0
2, 67023, Note_on_c, 0, 71, 80
2, 67034, Note_on_c, 0, 80, 64
2, 67292, Note_on_c, 0, 64, 0
2, 67292, Note_on_c, 0, 69, 0
2, 67300, Note_on_c, 0, 69, 77
2, 67302, Note_on_c, 0, 64, 66
2, 67302, Note_on_c, 0, 57, 54
2, 67302, Note_on_c, 0, 81, 72
2, 67311, Note_on_c, 0, 80, 0
2, 67311, Note_on_c, 0, 59, 0
2, 67311, Control_c, 0, 64, 0
2, 67311, Note_on_c, 0, 76, 0
2, 67311, Note_on_c, 0, 88, 0
2, 67311, Note_on_c, 0, 83, 0
2, 67312, Note_on_c, 0, 52, 0
2, 67330, Note_on_c, 0, 71, 0
2, 67430, Control_c, 0, 64, 127
2, 67572, Note_on_c, 0, 76, 59
2, 67622, Note_on_c, 0, 69, 0
2, 67829, Note_on_c, 0, 81, 0
2, 67837, Note_on_c, 0, 81, 67
2, 68093, Note_on_c, 0, 83, 67
2, 68354, Note_on_c, 0, 86, 73
2, 68632, Note_on_c, 0, 85, 71
2, 68874, Note_on_c, 0, 81, 0
2, 68882, Note_on_c, 0, 81, 68
2, 69150, Note_on_c, 0, 76, 0
2, 69155, Note_on_c, 0, 76, 61
2, 69419, Note_on_c, 0, 81, 0
2, 69430, Note_on_c, 0, 81, 71
2, 69431, Note_on_c, 0, 93, 70
2, 70985, Note_on_c, 0, 69, 98
2, 71040, Note_on_c, 0, 57, 0
2, 71040, Note_on_c, 0, 64, 0
2, 71040, Note_on_c, 0, 83, 0
2, 71040, Note_on_c, 0, 85, 0
2, 71040, Note_on_c, 0, 86, 0
2, 71259, Note_on_c, 0, 64, 98
2, 71501, Note_on_c, 0, 62, 89
2, 71649, Note_on_c, 0, 45, 78
2, 71738, Note_on_c, 0, 93, 0
2, 71746, Note_on_c, 0, 76, 0
2, 71761, Note_on_c, 0, 81, 0
2, 71765, Note_on_c, 0, 61, 95
2, 71774, Note_on_c, 0, 38, 78
2, 71782, Note_on_c, 0, 69, 0
2, 71783, Note_on_c, 0, 64, 0
2, 71787, Note_on_c, 0, 62, 0
2, 71811, Control_c, 0, 64, 0
2, 71825, Note_on_c, 0, 45, 0
2, 72023, Control_c, 0, 64, 127
2, 72036, Note_on_c, 0, 45, 59
2, 72173, Note_on_c, 0, 57, 72
2, 72174, Note_on_c, 0, 52, 69
2, 72407, Note_on_c, 0, 45, 0
2, 72411, Note_on_c, 0, 45, 61
2, 72567, Note_on_c, 0, 54, 74
2, 72574, Note_on_c, 0, 64, 80
2, 73003, Note_on_c, 0, 50, 55
2, 73121, Note_on_c, 0, 54, 0
2, 73132, Note_on_c, 0, 54, 66
2, 73251, Note_on_c, 0, 57, 0
2, 73256, Note_on_c, 0, 57, 63
2, 73377, Note_on_c, 0, 59, 72
2, 73490, Note_on_c, 0, 62, 61
2, 73559, Note_on_c, 0, 64, 0
2, 73569, Note_on_c, 0, 64, 76
2, 73648, Note_on_c, 0, 66, 73
2, 73690, Note_on_c, 0, 68, 82
2, 73762, Note_on_c, 0, 69, 84
2, 73866, Note_on_c, 0, 38, 0
2, 73866, Note_on_c, 0, 68, 0
2, 73872, Note_on_c, 0, 68, 94
2, 73873, Note_on_c, 0, 59, 0
2, 73874, Note_on_c, 0, 38, 76
2, 73881, Note_on_c, 0, 59, 74
2, 73907, Note_on_c, 0, 62, 0
2, 73907, Note_on_c, 0, 57, 0
2, 73907, Note_on_c, 0, 50, 0
2, 73907, Note_on_c, 0, 66, 0
2, 73908, Note_on_c, 0, 61, 0
2, 73908, Note_on_c, 0, 64, 0
2, 73908, Note_on_c, 0, 69, 0
2, 73910, Note_on_c, 0, 45, 0
2, 73912, Note_on_c, 0, 52, 0
2, 73915, Control_c, 0, 64, 0
2, 73927, Note_on_c, 0, 54, 0
2, 74104, Control_c, 0, 64, 127
2, 74140, Note_on_c, 0, 47, 64
2, 74282, Note_on_c, 0, 64, 77
2, 74292, Note_on_c, 0, 52, 61
2, 74503, Note_on_c, 0, 47, 0
2, 74508, Note_on_c, 0, 47, 62
2, 74649, Note_on_c, 0, 59, 0
2, 74660, Note_on_c, 0, 59, 84
2, 74661, Note_on_c, 0, 56, 64
2, 75048, Note_on_c, 0, 47, 0
2, 75052, Note_on_c, 0, 47, 38
2, 75106, Note_on_c, 0, 50, 68
2, 75217, Note_on_c, 0, 56, 0
2, 75226, Note_on_c, 0, 56, 75
2, 75346, Note_on_c, 0, 69, 86
2, 75440, Note_on_c, 0, 68, 0
2, 75445, Note_on_c, 0, 68, 90
2, 75463, Note_on_c, 0, 59, 0
2, 75473, Note_on_c, 0, 59, 80
2, 75509, Note_on_c, 0, 69, 0
2, 75520, Note_on_c, 0, 69, 74
2, 75594, Note_on_c, 0, 68, 0
2, 75604, Note_on_c, 0, 68, 83
2, 75654, Note_on_c, 0, 66, 77
2, 75709, Note_on_c, 0, 64, 0
2, 75720, Note_on_c, 0, 64, 85
2, 75778, Note_on_c, 0, 68, 0
2, 75787, Note_on_c, 0, 68, 83
2, 75855, Note_on_c, 0, 69, 0
2, 75860, Note_on_c, 0, 69, 86
2, 75913, Note_on_c, 0, 71, 82
2, 75979, Note_on_c, 0, 76, 101
2, 75982, Note_on_c, 0, 37, 80
2, 76007, Note_on_c, 0, 52, 0
2, 76009, Note_on_c, 0, 50, 0
2, 76010, Note_on_c, 0, 56, 0
2, 76011, Control_c, 0, 64, 0
2, 76011, Note_on_c, 0, 66, 0
2, 76012, Note_on_c, 0, 47, 0
2, 76012, Note_on_c, 0, 59, 0
2, 76016, Note_on_c, 0, 69, 0
2, 76019, Note_on_c, 0, 71, 0
2, 76032, Note_on_c, 0, 38, 0
2, 76032, Note_on_c, 0, 64, 0
2, 76032, Note_on_c, 0, 68, 0
2, 76162, Control_c, 0, 64, 127
2, 76228, Note_on_c, 0, 49, 69
2, 76364, Note_on_c, 0, 71, 81
2, 76381, Note_on_c, 0, 56, 67
2, 76600, Note_on_c, 0, 49, 0
2, 76610, Note_on_c, 0, 49, 64
2, 76749, Note_on_c, 0, 59, 74
2, 76749, Note_on_c, 0, 64, 78
2, 77146, Note_on_c, 0, 74, 68
2, 77207, Note_on_c, 0, 76, 0
2, 77215, Note_on_c, 0, 76, 78
2, 77276, Note_on_c, 0, 49, 0
2, 77276, Note_on_c, 0, 74, 0
2, 77280, Note_on_c, 0, 49, 63
2, 77282, Note_on_c, 0, 74, 85
2, 77337, Note_on_c, 0, 71, 0
2, 77348, Note_on_c, 0, 71, 80
2, 77389, Note_on_c, 0, 69, 82
2, 77452, Note_on_c, 0, 64, 0
2, 77458, Note_on_c, 0, 64, 83
2, 77537, Note_on_c, 0, 59, 0
2, 77544, Note_on_c, 0, 56, 0
2, 77546, Note_on_c, 0, 59, 87
2, 77551, Note_on_c, 0, 56, 76
2, 77621, Note_on_c, 0, 69, 0
2, 77626, Note_on_c, 0, 69, 70
2, 77667, Note_on_c, 0, 71, 0
2, 77672, Note_on_c, 0, 71, 84
2, 77744, Note_on_c, 0, 76, 0
2, 77755, Note_on_c, 0, 76, 93
2, 77818, Note_on_c, 0, 81, 96
2, 77951, Note_on_c, 0, 83, 98
2, 78074, Note_on_c, 0, 76, 0
2, 78074, Note_on_c, 0, 83, 0
2, 78075, Note_on_c, 0, 49, 0
2, 78076, Note_on_c, 0, 56, 0
2, 78076, Note_on_c, 0, 37, 0
2, 78077, Note_on_c, 0, 74, 0
2, 78077, Note_on_c, 0, 81, 0
2, 78077, Note_on_c, 0, 69, 0
2, 78077, Note_on_c, 0, 71, 0
2, 78077, Note_on_c, 0, 64, 0
2, 78077, Control_c, 0, 64, 0
2, 78077, Note_on_c, 0, 59, 0
2, 78079, Note_on_c, 0, 83, 99
2, 78079, Note_on_c, 0, 36, 81
2, 78085, Note_on_c, 0, 76, 94
2, 78289, Control_c, 0, 64, 127
2, 78320, Note_on_c, 0, 48, 64
2, 78462, Note_on_c, 0, 81, 96
2, 78463, Note_on_c, 0, 57, 77
2, 78712, Note_on_c, 0, 48, 0
2, 78723, Note_on_c, 0, 48, 76
2, 78838, Control_c, 0, 64, 0
2, 78842, Note_on_c, 0, 76, 0
2, 78845, Note_on_c, 0, 88, 99
2, 78849, Note_on_c, 0, 76, 94
2, 78850, Note_on_c, 0, 57, 0
2, 78854, Note_on_c, 0, 60, 75
2, 78856, Note_on_c, 0, 57, 65
2, 78888, Note_on_c, 0, 36, 0
2, 78896, Control_c, 0, 64, 127
2, 79111, Note_on_c, 0, 60, 0
2, 79115, Note_on_c, 0, 69, 80
2, 79120, Note_on_c, 0, 64, 71
2, 79122, Note_on_c, 0, 60, 71
2, 79206, Note_on_c, 0, 86, 72
2, 79272, Note_on_c, 0, 88, 0
2, 79277, Note_on_c, 0, 88, 77
2, 79326, Note_on_c, 0, 86, 0
2, 79335, Note_on_c, 0, 86, 82
2, 79372, Note_on_c, 0, 83, 0
2, 79378, Note_on_c, 0, 83, 84
2, 79426, Note_on_c, 0, 81, 0
2, 79436, Note_on_c, 0, 81, 64
2, 79480, Note_on_c, 0, 76, 0
2, 79488, Note_on_c, 0, 76, 57
2, 79543, Note_on_c, 0, 71, 86
2, 79610, Note_on_c, 0, 76, 0
2, 79618, Note_on_c, 0, 76, 85
2, 79669, Note_on_c, 0, 74, 87
2, 79710, Note_on_c, 0, 71, 0
2, 79714, Note_on_c, 0, 71, 82
2, 79756, Note_on_c, 0, 69, 0
2, 79765, Note_on_c, 0, 69, 79
2, 79810, Note_on_c, 0, 64, 0
2, 79817, Note_on_c, 0, 64, 79
2, 79874, Note_on_c, 0, 59, 87
2, 79933, Note_on_c, 0, 57, 0
2, 79940, Note_on_c, 0, 57, 74
2, 79999, Note_on_c, 0, 52, 74
2, 80125, Note_on_c, 0, 76, 0
2, 80135, Note_on_c, 0, 88, 0
2, 80135, Note_on_c, 0, 52, 0
2, 80136, Note_on_c, 0, 59, 0
2, 80136, Note_on_c, 0, 71, 0
2, 80136, Note_on_c, 0, 48, 0
2, 80136, Note_on_c, 0, 74, 0
2, 80136, Note_on_c, 0, 57, 0
2, 80136, Note_on_c, 0, 86, 0
2, 80136, Note_on_c, 0, 83, 0
2, 80136, Control_c, 0, 64, 0
2, 80136, Note_on_c, 0, 76, 98
2, 80140, Note_on_c, 0, 69, 0
2, 80144, Note_on_c, 0, 35, 76
2, 80145, Note_on_c, 0, 69, 82
2, 80148, Note_on_c, 0, 81, 0
2, 80151, Note_on_c, 0, 66, 81
2, 80156, Note_on_c, 0, 60, 0
2, 80156, Note_on_c, 0, 64, 0
2, 80309, Control_c, 0, 64, 127
2, 80397, Note_on_c, 0, 47, 59
2, 80517, Note_on_c, 0, 69, 0
2, 80520, Note_on_c, 0, 74, 87
2, 80523, Note_on_c, 0, 54, 73
2, 80525, Note_on_c, 0, 69, 67
2, 80762, Note_on_c, 0, 47, 0
2, 80769, Note_on_c, 0, 47, 62
2, 80893, Note_on_c, 0, 69, 0
2, 80900, Note_on_c, 0, 69, 86
2, 80901, Note_on_c, 0, 66, 0
2, 80912, Note_on_c, 0, 66, 78
2, 80918, Note_on_c, 0, 57, 67
2, 80922, Note_on_c, 0, 62, 44
2, 80950, Control_c, 0, 64, 0
2, 80993, Control_c, 0, 64, 127
2, 81315, Note_on_c, 0, 47, 0
2, 81321, Note_on_c, 0, 47, 58
2, 81423, Note_on_c, 0, 54, 0
2, 81434, Note_on_c, 0, 54, 66
2, 81561, Note_on_c, 0, 57, 0
2, 81571, Note_on_c, 0, 57, 62
2, 81676, Note_on_c, 0, 47, 0
2, 81685, Note_on_c, 0, 59, 78
2, 81688, Note_on_c, 0, 47, 55
2, 81789, Note_on_c, 0, 61, 75
2, 81853, Note_on_c, 0, 62, 0
2, 81857, Note_on_c, 0, 62, 72
2, 81918, Note_on_c, 0, 64, 77
2, 81968, Note_on_c, 0, 66, 0
2, 81979, Note_on_c, 0, 66, 73
2, 82031, Note_on_c, 0, 68, 78
2, 82091, Note_on_c, 0, 69, 0
2, 82096, Note_on_c, 0, 69, 76
2, 82168, Note_on_c, 0, 74, 0
2, 82174, Note_on_c, 0, 74, 89
2, 82194, Note_on_c, 0, 40, 66
2, 82194, Note_on_c, 0, 71, 59
2, 82203, Note_on_c, 0, 62, 0
2, 82204, Note_on_c, 0, 69, 0
2, 82204, Control_c, 0, 64, 0
2, 82204, Note_on_c, 0, 64, 0
2, 82204, Note_on_c, 0, 59, 0
2, 82204, Note_on_c, 0, 57, 0
2, 82205, Note_on_c, 0, 47, 0
2, 82205, Note_on_c, 0, 61, 0
2, 82206, Note_on_c, 0, 35, 0
2, 82214, Note_on_c, 0, 76, 0
2, 82229, Note_on_c, 0, 54, 0
2, 82237, Note_on_c, 0, 66, 0
2, 82391, Control_c, 0, 64, 127
2, 82435, Note_on_c, 0, 47, 60
2, 82561, Note_on_c, 0, 73, 90
2, 82579, Note_on_c, 0, 54, 67
2, 82583, Note_on_c, 0, 69, 57
2, 82828, Note_on_c, 0, 47, 0
2, 82834, Note_on_c, 0, 47, 60
2, 82951, Note_on_c, 0, 69, 0
2, 82957, Note_on_c, 0, 69, 84
2, 82971, Note_on_c, 0, 62, 61
2, 82977, Note_on_c, 0, 66, 71
2, 83366, Note_on_c, 0, 40, 0
2, 83374, Note_on_c, 0, 40, 52
2, 83489, Note_on_c, 0, 47, 0
2, 83498, Note_on_c, 0, 47, 62
2, 83596, Note_on_c, 0, 54, 0
2, 83604, Note_on_c, 0, 54, 63
2, 83712, Note_on_c, 0, 71, 0
2, 83721, Note_on_c, 0, 71, 87
2, 83750, Note_on_c, 0, 56, 63
2, 83865, Note_on_c, 0, 47, 0
2, 83875, Note_on_c, 0, 47, 70
2, 83973, Note_on_c, 0, 40, 0
2, 83984, Note_on_c, 0, 40, 65
2, 83984, Note_on_c, 0, 28, 65
2, 83996, Note_on_c, 0, 28, 0
2, 84241, Note_on_c, 0, 69, 0
2, 84252, Note_on_c, 0, 69, 87
2, 84253, Note_on_c, 0, 45, 69
2, 84288, Note_on_c, 0, 62, 0
2, 84288, Note_on_c, 0, 68, 0
2, 84288, Note_on_c, 0, 74, 0
2, 84292, Note_on_c, 0, 64, 51
2, 84292, Note_on_c, 0, 40, 0
2, 84292, Note_on_c, 0, 62, 52
2, 84292, Note_on_c, 0, 47, 0
2, 84293, Note_on_c, 0, 54, 0
2, 84293, Note_on_c, 0, 66, 0
2, 84293, Control_c, 0, 64, 0
2, 84293, Note_on_c, 0, 71, 0
2, 84294, Note_on_c, 0, 56, 0
2, 84303, Note_on_c, 0, 73, 0
2, 84495, Control_c, 0, 64, 127
2, 84535, Note_on_c, 0, 52, 62
2, 84794, Note_on_c, 0, 57, 62
2, 85032, Note_on_c, 0, 52, 0
2, 85040, Note_on_c, 0, 52, 60
2, 85171, Note_on_c, 0, 45, 0
2, 85180, Note_on_c, 0, 45, 58
2, 85302, Note_on_c, 0, 56, 73
2, 85585, Note_on_c, 0, 52, 0
2, 85590, Note_on_c, 0, 52, 67
2, 85823, Note_on_c, 0, 59, 84
2, 86085, Note_on_c, 0, 52, 0
2, 86089, Note_on_c, 0, 52, 67
2, 86192, Note_on_c, 0, 45, 0
2, 86203, Note_on_c, 0, 45, 71
2, 86310, Control_c, 0, 64, 0
2, 86311, Note_on_c, 0, 52, 0
2, 86311, Note_on_c, 0, 62, 0
2, 86311, Note_on_c, 0, 56, 0
2, 86312, Note_on_c, 0, 59, 0
2, 86338, Note_on_c, 0, 57, 0
2, 86348, Note_on_c, 0, 57, 72
2, 86400, Note_on_c, 0, 64, 0
2, 86461, Control_c, 0, 64, 127
2, 86604, Note_on_c, 0, 52, 73
2, 86850, Note_on_c, 0, 59, 80
2, 86853, Note_on_c, 0, 56, 70
2, 87098, Note_on_c, 0, 52, 0
2, 87106, Note_on_c, 0, 52, 59
2, 87179, Control_c, 0, 64, 0
2, 87181, Note_on_c, 0, 59, 0
2, 87184, Note_on_c, 0, 56, 0
2, 87191, Note_on_c, 0, 45, 0
2, 87191, Note_on_c, 0, 69, 0
2, 87229, Note_on_c, 0, 57, 0
2, 87235, Note_on_c, 0, 61, 80
2, 87236, Note_on_c, 0, 57, 68
2, 87283, Control_c, 0, 64, 127
2, 87475, Note_on_c, 0, 52, 0
2, 87486, Note_on_c, 0, 52, 77
2, 87622, Note_on_c, 0, 64, 92
2, 87740, Note_on_c, 0, 45, 70
2, 87861, Note_on_c, 0, 69, 96
2, 87992, Note_on_c, 0, 40, 73
2, 88104, Note_on_c, 0, 52, 0
2, 88110, Note_on_c, 0, 76, 97
2, 88113, Note_on_c, 0, 52, 79
2, 88371, Note_on_c, 0, 40, 0
2, 88372, Note_on_c, 0, 61, 0
2, 88372, Note_on_c, 0, 52, 0
2, 88372, Note_on_c, 0, 64, 0
2, 88373, Control_c, 0, 64, 0
2, 88373, Note_on_c, 0, 45, 0
2, 88373, Note_on_c, 0, 57, 0
2, 88373, Note_on_c, 0, 69, 0
2, 88377, Note_on_c, 0, 69, 102
2, 88378, Note_on_c, 0, 45, 85
2, 88380, Note_on_c, 0, 57, 92
2, 88488, Control_c, 0, 64, 127
2, 88635, Note_on_c, 0, 81, 79
2, 88761, Note_on_c, 0, 80, 79
2, 88834, Note_on_c, 0, 76, 0
2, 88846, Control_c, 0, 64, 0
2, 88847, Note_on_c, 0, 80, 0
2, 88847, Note_on_c, 0, 69, 0
2, 88857, Note_on_c, 0, 45, 0
2, 88857, Note_on_c, 0, 57, 0
2, 88872, Note_on_c, 0, 81, 0
2, 88881, Note_on_c, 0, 64, 92
2, 88884, Note_on_c, 0, 81, 98
2, 88884, Note_on_c, 0, 57, 73
2, 88885, Note_on_c, 0, 69, 95
2, 88886, Note_on_c, 0, 61, 79
2, 88915, Note_on_c, 0, 69, 0
2, 88915, Note_on_c, 0, 64, 0
2, 88916, Note_on_c, 0, 57, 0
2, 88919, Note_on_c, 0, 61, 0
2, 89138, Note_on_c, 0, 45, 77
2, 89141, Note_on_c, 0, 69, 96
2, 89176, Note_on_c, 0, 45, 0
2, 89176, Note_on_c, 0, 69, 0
2, 89400, Note_on_c, 0, 44, 79
2, 89402, Note_on_c, 0, 71, 100
2, 89402, Note_on_c, 0, 56, 86
2, 89448, Control_c, 0, 64, 127
2, 89659, Note_on_c, 0, 83, 91
2, 89771, Note_on_c, 0, 81, 0
2, 89781, Note_on_c, 0, 81, 80
2, 89894, Note_on_c, 0, 83, 0
2, 89902, Note_on_c, 0, 56, 0
2, 89905, Note_on_c, 0, 64, 87
2, 89905, Note_on_c, 0, 83, 103
2, 89907, Control_c, 0, 64, 0
2, 89910, Note_on_c, 0, 56, 77
2, 89911, Note_on_c, 0, 69, 90
2, 89914, Note_on_c, 0, 59, 68
2, 89922, Note_on_c, 0, 81, 0
2, 89923, Note_on_c, 0, 71, 0
2, 89925, Note_on_c, 0, 44, 0
2, 89936, Note_on_c, 0, 56, 0
2, 89936, Note_on_c, 0, 64, 0
2, 89940, Note_on_c, 0, 69, 0
2, 89951, Note_on_c, 0, 59, 0
2, 90162, Note_on_c, 0, 44, 70
2, 90163, Note_on_c, 0, 71, 91
2, 90204, Note_on_c, 0, 44, 0
2, 90221, Note_on_c, 0, 71, 0
2, 90247, Note_on_c, 0, 83, 0
2, 90417, Note_on_c, 0, 73, 96
2, 90421, Note_on_c, 0, 42, 84
2, 90421, Note_on_c, 0, 70, 76
2, 90429, Note_on_c, 0, 54, 81
2, 90493, Control_c, 0, 64, 127
2, 90678, Note_on_c, 0, 69, 74
2, 90790, Note_on_c, 0, 76, 84
2, 90915, Note_on_c, 0, 69, 0
2, 90918, Note_on_c, 0, 81, 93
2, 90918, Note_on_c, 0, 64, 81
2, 90921, Note_on_c, 0, 61, 73
2, 90925, Note_on_c, 0, 69, 75
2, 90927, Note_on_c, 0, 57, 62
2, 91161, Note_on_c, 0, 76, 0
2, 91169, Note_on_c, 0, 42, 0
2, 91171, Note_on_c, 0, 76, 84
2, 91173, Note_on_c, 0, 42, 75
2, 91175, Note_on_c, 0, 54, 0
2, 91302, Note_on_c, 0, 88, 96
2, 91386, Note_on_c, 0, 42, 0
2, 91387, Control_c, 0, 64, 0
2, 91388, Note_on_c, 0, 81, 0
2, 91388, Note_on_c, 0, 57, 0
2, 91388, Note_on_c, 0, 69, 0
2, 91388, Note_on_c, 0, 73, 0
2, 91388, Note_on_c, 0, 64, 0
2, 91388, Note_on_c, 0, 61, 0
2, 91399, Note_on_c, 0, 70, 0
2, 91424, Note_on_c, 0, 52, 78
2, 91425, Note_on_c, 0, 40, 79
2, 91522, Control_c, 0, 64, 127
2, 91554, Note_on_c, 0, 86, 79
2, 91674, Note_on_c, 0, 85, 82
2, 91776, Note_on_c, 0, 86, 0
2, 91783, Note_on_c, 0, 86, 86
2, 91898, Note_on_c, 0, 85, 0
2, 91905, Note_on_c, 0, 85, 93
2, 91918, Note_on_c, 0, 64, 76
2, 91921, Note_on_c, 0, 69, 72
2, 91922, Note_on_c, 0, 59, 75
2, 91961, Control_c, 0, 64, 0
2, 91964, Note_on_c, 0, 52, 0
2, 91983, Note_on_c, 0, 40, 0
2, 92014, Note_on_c, 0, 59, 0
2, 92014, Control_c, 0, 64, 127
2, 92021, Note_on_c, 0, 88, 0
2, 92027, Note_on_c, 0, 83, 88
2, 92067, Note_on_c, 0, 85, 0
2, 92113, Note_on_c, 0, 64, 0
2, 92113, Note_on_c, 0, 69, 0
2, 92144, Control_c, 0, 64, 0
2, 92156, Note_on_c, 0, 40, 64
2, 92156, Note_on_c, 0, 81, 88
2, 92156, Note_on_c, 0, 52, 61
2, 92175, Note_on_c, 0, 86, 0
2, 92213, Note_on_c, 0, 76, 0
2, 92244, Control_c, 0, 64, 127
2, 92259, Note_on_c, 0, 83, 0
2, 92385, Control_c, 0, 64, 0
2, 92386, Note_on_c, 0, 40, 0
2, 92387, Note_on_c, 0, 81, 0
2, 92390, Note_on_c, 0, 52, 0
2, 92421, Note_on_c, 0, 76, 101
2, 92442, Note_on_c, 0, 50, 83
2, 92443, Note_on_c, 0, 38, 82
2, 92477, Note_on_c, 0, 50, 0
2, 92480, Note_on_c, 0, 38, 0
2, 92520, Control_c, 0, 64, 127
2, 92687, Note_on_c, 0, 81, 78
2, 92810, Note_on_c, 0, 83, 77
2, 92938, Note_on_c, 0, 85, 98
2, 92939, Note_on_c, 0, 73, 97
2, 92939, Note_on_c, 0, 64, 85
2, 92939, Note_on_c, 0, 81, 0
2, 92939, Note_on_c, 0, 61, 76
2, 92943, Note_on_c, 0, 69, 79
2, 92946, Note_on_c, 0, 83, 0
2, 92947, Note_on_c, 0, 57, 63
2, 92952, Control_c, 0, 64, 0
2, 92954, Note_on_c, 0, 76, 0
2, 92977, Note_on_c, 0, 64, 0
2, 92982, Note_on_c, 0, 61, 0
2, 92998, Note_on_c, 0, 57, 0
2, 93104, Note_on_c, 0, 69, 0
2, 93189, Note_on_c, 0, 38, 75
2, 93226, Note_on_c, 0, 38, 0
2, 93408, Note_on_c, 0, 73, 0
2, 93442, Note_on_c, 0, 85, 0
2, 93457, Note_on_c, 0, 71, 97
2, 93461, Note_on_c, 0, 40, 80
2, 93462, Note_on_c, 0, 52, 78
2, 93534, Control_c, 0, 64, 127
2, 93722, Note_on_c, 0, 76, 76
2, 93837, Note_on_c, 0, 81, 76
2, 93961, Note_on_c, 0, 64, 78
2, 93964, Note_on_c, 0, 59, 75
2, 93964, Note_on_c, 0, 57, 72
2, 93967, Note_on_c, 0, 83, 95
2, 93974, Note_on_c, 0, 71, 0
2, 93978, Note_on_c, 0, 76, 0
2, 93990, Note_on_c, 0, 81, 0
2, 93995, Note_on_c, 0, 40, 0
2, 94001, Control_c, 0, 64, 0
2, 94004, Note_on_c, 0, 52, 0
2, 94005, Note_on_c, 0, 59, 0
2, 94010, Note_on_c, 0, 64, 0
2, 94064, Note_on_c, 0, 57, 0
2, 94220, Note_on_c, 0, 69, 85
2, 94221, Note_on_c, 0, 40, 70
2, 94348, Note_on_c, 0, 69, 0
2, 94364, Note_on_c, 0, 40, 0
2, 94483, Note_on_c, 0, 69, 96
2, 94484, Note_on_c, 0, 57, 84
2, 94486, Note_on_c, 0, 45, 80
2, 94522, Note_on_c, 0, 57, 0
2, 94556, Control_c, 0, 64, 127
2, 94632, Note_on_c, 0, 45, 0
2, 94744, Note_on_c, 0, 76, 75
2, 94870, Note_on_c, 0, 81, 75
2, 94978, Note_on_c, 0, 83, 0
2, 94983, Note_on_c, 0, 64, 73
2, 94988, Note_on_c, 0, 62, 72
2, 94990, Note_on_c, 0, 83, 89
2, 94990, Note_on_c, 0, 57, 73
2, 95255, Note_on_c, 0, 76, 0
2, 95259, Note_on_c, 0, 76, 71
2, 95362, Note_on_c, 0, 69, 0
2, 95370, Note_on_c, 0, 62, 0
2, 95370, Note_on_c, 0, 64, 0
2, 95371, Note_on_c, 0, 86, 95
2, 95373, Note_on_c, 0, 69, 86
2, 95376, Note_on_c, 0, 64, 73
2, 95376, Note_on_c, 0, 62, 73
2, 95639, Note_on_c, 0, 57, 0
2, 95639, Note_on_c, 0, 69, 0
2, 95646, Note_on_c, 0, 57, 68
2, 95649, Note_on_c, 0, 69, 64
2, 95745, Note_on_c, 0, 85, 86
2, 95869, Note_on_c, 0, 64, 0
2, 95876, Note_on_c, 0, 64, 77
2, 95884, Note_on_c, 0, 61, 68
2, 95984, Note_on_c, 0, 81, 0
2, 95988, Note_on_c, 0, 81, 92
2, 96119, Note_on_c, 0, 40, 71
2, 96122, Control_c, 0, 64, 0
2, 96122, Note_on_c, 0, 62, 0
2, 96123, Note_on_c, 0, 61, 0
2, 96123, Note_on_c, 0, 64, 0
2, 96123, Note_on_c, 0, 57, 0
2, 96124, Note_on_c, 0, 86, 0
2, 96124, Note_on_c, 0, 83, 0
2, 96125, Note_on_c, 0, 85, 0
2, 96207, Control_c, 0, 64, 127
2, 96245, Note_on_c, 0, 76, 0
2, 96249, Note_on_c, 0, 76, 89
2, 96254, Note_on_c, 0, 52, 75
2, 96453, Note_on_c, 0, 40, 0
2, 96475, Control_c, 0, 64, 0
2, 96476, Note_on_c, 0, 52, 0
2, 96499, Note_on_c, 0, 69, 0
2, 96505, Note_on_c, 0, 69, 97
2, 96511, Note_on_c, 0, 45, 82
2, 96511, Note_on_c, 0, 57, 87
2, 96541, Note_on_c, 0, 45, 0
2, 96576, Control_c, 0, 64, 127
2, 96752, Note_on_c, 0, 81, 0
2, 96757, Note_on_c, 0, 81, 75
2, 96875, Note_on_c, 0, 80, 77
2, 97005, Control_c, 0, 64, 0
2, 97006, Note_on_c, 0, 57, 0
2, 97006, Note_on_c, 0, 69, 0
2, 97006, Note_on_c, 0, 81, 0
2, 97008, Note_on_c, 0, 64, 86
2, 97010, Note_on_c, 0, 61, 74
2, 97010, Note_on_c, 0, 57, 65
2, 97012, Note_on_c, 0, 81, 92
2, 97014, Note_on_c, 0, 69, 93
2, 97016, Note_on_c, 0, 80, 0
2, 97034, Note_on_c, 0, 64, 0
2, 97036, Note_on_c, 0, 76, 0
2, 97041, Note_on_c, 0, 61, 0
2, 97059, Note_on_c, 0, 57, 0
2, 97059, Note_on_c, 0, 69, 0
2, 97259, Note_on_c, 0, 45, 78
2, 97263, Note_on_c, 0, 69, 91
2, 97293, Note_on_c, 0, 45, 0
2, 97367, Note_on_c, 0, 69, 0
2, 97522, Note_on_c, 0, 56, 86
2, 97523, Note_on_c, 0, 71, 98
2, 97523, Note_on_c, 0, 44, 78
2, 97574, Control_c, 0, 64, 127
2, 97666, Note_on_c, 0, 56, 0
2, 97775, Note_on_c, 0, 83, 86
2, 97889, Note_on_c, 0, 81, 0
2, 97898, Note_on_c, 0, 81, 78
2, 97983, Control_c, 0, 64, 0
2, 97996, Note_on_c, 0, 44, 0
2, 97996, Note_on_c, 0, 71, 0
2, 98011, Note_on_c, 0, 64, 88
2, 98012, Note_on_c, 0, 83, 0
2, 98018, Note_on_c, 0, 83, 101
2, 98020, Note_on_c, 0, 56, 77
2, 98023, Note_on_c, 0, 69, 91
2, 98023, Note_on_c, 0, 59, 66
2, 98046, Note_on_c, 0, 64, 0
2, 98050, Note_on_c, 0, 69, 0
2, 98053, Note_on_c, 0, 56, 0
2, 98056, Note_on_c, 0, 59, 0
2, 98065, Note_on_c, 0, 81, 0
2, 98263, Note_on_c, 0, 44, 69
2, 98274, Note_on_c, 0, 71, 87
2, 98300, Note_on_c, 0, 44, 0
2, 98351, Note_on_c, 0, 71, 0
2, 98354, Note_on_c, 0, 83, 0
2, 98537, Note_on_c, 0, 69, 94
2, 98539, Note_on_c, 0, 42, 76
2, 98543, Note_on_c, 0, 54, 79
2, 98611, Control_c, 0, 64, 127
2, 98789, Note_on_c, 0, 73, 70
2, 98915, Note_on_c, 0, 76, 72
2, 99025, Note_on_c, 0, 69, 0
2, 99029, Note_on_c, 0, 81, 99
2, 99029, Note_on_c, 0, 64, 89
2, 99030, Note_on_c, 0, 69, 86
2, 99031, Note_on_c, 0, 61, 80
2, 99036, Note_on_c, 0, 57, 66
2, 99147, Note_on_c, 0, 85, 86
2, 99279, Note_on_c, 0, 42, 0
2, 99283, Note_on_c, 0, 42, 69
2, 99290, Note_on_c, 0, 88, 80
2, 99403, Note_on_c, 0, 93, 76
2, 99513, Control_c, 0, 64, 0
2, 99513, Note_on_c, 0, 42, 0
2, 99514, Note_on_c, 0, 73, 0
2, 99514, Note_on_c, 0, 93, 0
2, 99514, Note_on_c, 0, 54, 0
2, 99514, Note_on_c, 0, 69, 0
2, 99514, Note_on_c, 0, 85, 0
2, 99515, Note_on_c, 0, 88, 0
2, 99515, Note_on_c, 0, 76, 0
2, 99515, Note_on_c, 0, 61, 0
2, 99515, Note_on_c, 0, 64, 0
2, 99516, Note_on_c, 0, 81, 0
2, 99525, Note_on_c, 0, 57, 0
2, 99539, Note_on_c, 0, 80, 102
2, 99544, Note_on_c, 0, 37, 89
2, 99544, Note_on_c, 0, 49, 86
2, 99617, Control_c, 0, 64, 127
2, 99667, Note_on_c, 0, 76, 82
2, 99694, Note_on_c, 0, 37, 0
2, 99784, Note_on_c, 0, 83, 90
2, 99886, Note_on_c, 0, 80, 0
2, 99896, Note_on_c, 0, 80, 84
2, 99939, Note_on_c, 0, 49, 0
2, 100037, Note_on_c, 0, 92, 99
2, 100042, Note_on_c, 0, 64, 86
2, 100052, Note_on_c, 0, 59, 67
2, 100057, Note_on_c, 0, 56, 69
2, 100285, Note_on_c, 0, 76, 0
2, 100295, Note_on_c, 0, 76, 95
2, 100299, Note_on_c, 0, 49, 61
2, 100304, Note_on_c, 0, 37, 73
2, 100418, Note_on_c, 0, 73, 90
2, 100482, Control_c, 0, 64, 0
2, 100482, Note_on_c, 0, 56, 0
2, 100482, Note_on_c, 0, 92, 0
2, 100482, Note_on_c, 0, 59, 0
2, 100483, Note_on_c, 0, 73, 0
2, 100483, Note_on_c, 0, 80, 0
2, 100483, Note_on_c, 0, 83, 0
2, 100483, Note_on_c, 0, 76, 0
2, 100483, Note_on_c, 0, 64, 0
2, 100483, Note_on_c, 0, 49, 0
2, 100483, Note_on_c, 0, 37, 0
2, 100550, Note_on_c, 0, 71, 97
2, 100551, Note_on_c, 0, 50, 82
2, 100554, Note_on_c, 0, 38, 81
2, 100615, Note_on_c, 0, 50, 0
2, 100638, Note_on_c, 0, 38, 0
2, 100646, Control_c, 0, 64, 127
2, 100796, Note_on_c, 0, 83, 83
2, 100920, Note_on_c, 0, 81, 72
2, 101045, Note_on_c, 0, 83, 0
2, 101047, Note_on_c, 0, 66, 85
2, 101052, Note_on_c, 0, 83, 95
2, 101053, Note_on_c, 0, 71, 0
2, 101054, Note_on_c, 0, 57, 71
2, 101057, Note_on_c, 0, 62, 63
2, 101063, Note_on_c, 0, 71, 85
2, 101074, Control_c, 0, 64, 0
2, 101081, Note_on_c, 0, 81, 0
2, 101088, Note_on_c, 0, 66, 0
2, 101088, Note_on_c, 0, 71, 0
2, 101096, Note_on_c, 0, 57, 0
2, 101130, Note_on_c, 0, 62, 0
2, 101230, Note_on_c, 0, 83, 0
2, 101303, Note_on_c, 0, 38, 67
2, 101304, Note_on_c, 0, 73, 91
2, 101349, Note_on_c, 0, 38, 0
2, 101366, Note_on_c, 0, 73, 0
2, 101558, Note_on_c, 0, 71, 97
2, 101563, Note_on_c, 0, 40, 80
2, 101564, Note_on_c, 0, 52, 80
2, 101621, Control_c, 0, 64, 127
2, 101812, Note_on_c, 0, 76, 75
2, 101922, Note_on_c, 0, 83, 79
2, 102069, Note_on_c, 0, 88, 91
2, 102071, Note_on_c, 0, 69, 86
2, 102071, Note_on_c, 0, 64, 84
2, 102075, Note_on_c, 0, 59, 78
2, 102094, Control_c, 0, 64, 0
2, 102190, Control_c, 0, 64, 127
2, 102312, Note_on_c, 0, 40, 0
2, 102312, Note_on_c, 0, 71, 0
2, 102323, Note_on_c, 0, 71, 84
2, 102324, Note_on_c, 0, 40, 71
2, 102331, Control_c, 0, 64, 0
2, 102345, Note_on_c, 0, 69, 0
2, 102374, Control_c, 0, 64, 127
2, 102528, Control_c, 0, 64, 0
2, 102531, Note_on_c, 0, 88, 0
2, 102531, Note_on_c, 0, 52, 0
2, 102532, Note_on_c, 0, 64, 0
2, 102532, Note_on_c, 0, 83, 0
2, 102532, Note_on_c, 0, 76, 0
2, 102532, Note_on_c, 0, 59, 0
2, 102532, Note_on_c, 0, 40, 0
2, 102551, Note_on_c, 0, 71, 0
2, 102576, Note_on_c, 0, 45, 77
2, 102577, Note_on_c, 0, 69, 93
2, 102577, Note_on_c, 0, 57, 81
2, 102624, Note_on_c, 0, 45, 0
2, 102658, Control_c, 0, 64, 127
2, 102837, Note_on_c, 0, 76, 72
2, 102858, Note_on_c, 0, 57, 0
2, 102960, Note_on_c, 0, 83, 74
2, 103088, Note_on_c, 0, 69, 0
2, 103094, Note_on_c, 0, 86, 83
2, 103099, Note_on_c, 0, 62, 64
2, 103099, Note_on_c, 0, 69, 68
2, 103099, Note_on_c, 0, 64, 62
2, 103099, Note_on_c, 0, 57, 64
2, 103357, Note_on_c, 0, 76, 0
2, 103364, Note_on_c, 0, 76, 66
2, 103488, Note_on_c, 0, 69, 0
2, 103495, Note_on_c, 0, 57, 0
2, 103495, Note_on_c, 0, 64, 0
2, 103498, Note_on_c, 0, 85, 87
2, 103499, Note_on_c, 0, 69, 77
2, 103501, Note_on_c, 0, 64, 65
2, 103502, Note_on_c, 0, 61, 67
2, 103506, Note_on_c, 0, 57, 64
2, 103749, Note_on_c, 0, 76, 0
2, 103760, Note_on_c, 0, 76, 70
2, 103864, Note_on_c, 0, 57, 0
2, 103864, Note_on_c, 0, 69, 0
2, 103869, Note_on_c, 0, 81, 91
2, 103873, Note_on_c, 0, 57, 73
2, 103875, Note_on_c, 0, 69, 72
2, 103979, Note_on_c, 0, 76, 0
2, 103990, Note_on_c, 0, 76, 82
2, 104007, Note_on_c, 0, 52, 66
2, 104110, Note_on_c, 0, 81, 0
2, 104116, Note_on_c, 0, 93, 97
2, 104116, Note_on_c, 0, 45, 80
2, 104119, Note_on_c, 0, 81, 94
2, 104363, Note_on_c, 0, 76, 0
2, 104371, Note_on_c, 0, 52, 0
2, 104371, Note_on_c, 0, 64, 0
2, 104372, Note_on_c, 0, 76, 105
2, 104375, Note_on_c, 0, 64, 97
2, 104377, Note_on_c, 0, 52, 68
2, 104478, Note_on_c, 0, 45, 0
2, 104487, Note_on_c, 0, 45, 79
2, 104606, Control_c, 0, 64, 0
2, 104607, Note_on_c, 0, 52, 0
2, 104608, Note_on_c, 0, 61, 0
2, 104608, Note_on_c, 0, 62, 0
2, 104608, Note_on_c, 0, 83, 0
2, 104609, Note_on_c, 0, 45, 0
2, 104609, Note_on_c, 0, 93, 0
2, 104609, Note_on_c, 0, 85, 0
2, 104609, Note_on_c, 0, 81, 0
2, 104610, Note_on_c, 0, 86, 0
2, 104610, Note_on_c, 0, 64, 0
2, 104611, Note_on_c, 0, 76, 0
2, 104624, Note_on_c, 0, 57, 0
2, 104624, Note_on_c, 0, 69, 0
2, 104627, Note_on_c, 0, 78, 104
2, 104630, Note_on_c, 0, 69, 89
2, 104633, Note_on_c, 0, 38, 89
2, 104634, Note_on_c, 0, 66, 96
2, 104701, Note_on_c, 0, 38, 0
2, 104739, Control_c, 0, 64, 127
2, 104880, Note_on_c, 0, 38, 74
2, 104885, Note_on_c, 0, 69, 0
2, 104889, Note_on_c, 0, 76, 90
2, 104897, Note_on_c, 0, 69, 76
2, 104897, Note_on_c, 0, 64, 73
2, 105131, Note_on_c, 0, 64, 0
2, 105142, Note_on_c, 0, 64, 82
2, 105147, Note_on_c, 0, 83, 105
2, 105150, Note_on_c, 0, 71, 94
2, 105151, Note_on_c, 0, 50, 75
2, 105153, Note_on_c, 0, 54, 80
2, 105216, Note_on_c, 0, 66, 0
2, 105415, Note_on_c, 0, 69, 0
2, 105416, Note_on_c, 0, 81, 97
2, 105420, Note_on_c, 0, 69, 86
2, 105507, Note_on_c, 0, 38, 0
2, 105507, Note_on_c, 0, 50, 0
2, 105515, Note_on_c, 0, 50, 81
2, 105516, Note_on_c, 0, 38, 82
2, 105602, Note_on_c, 0, 76, 0
2, 105603, Note_on_c, 0, 83, 0
2, 105603, Note_on_c, 0, 50, 0
2, 105603, Note_on_c, 0, 54, 0
2, 105603, Note_on_c, 0, 78, 0
2, 105603, Note_on_c, 0, 71, 0
2, 105603, Note_on_c, 0, 38, 0
2, 105604, Control_c, 0, 64, 0
2, 105615, Note_on_c, 0, 64, 0
2, 105665, Note_on_c, 0, 52, 91
2, 105666, Note_on_c, 0, 40, 86
2, 105720, Note_on_c, 0, 52, 0
2, 105745, Control_c, 0, 64, 127
2, 105922, Note_on_c, 0, 40, 0
2, 105924, Note_on_c, 0, 76, 91
2, 105926, Note_on_c, 0, 64, 78
2, 105931, Note_on_c, 0, 52, 80
2, 105933, Note_on_c, 0, 40, 77
2, 106176, Note_on_c, 0, 64, 0
2, 106183, Note_on_c, 0, 52, 0
2, 106183, Note_on_c, 0, 69, 0
2, 106187, Note_on_c, 0, 83, 106
2, 106187, Note_on_c, 0, 64, 87
2, 106188, Note_on_c, 0, 52, 80
2, 106192, Note_on_c, 0, 71, 94
2, 106192, Note_on_c, 0, 69, 83
2, 106193, Note_on_c, 0, 57, 80
2, 106194, Note_on_c, 0, 59, 83
2, 106437, Note_on_c, 0, 69, 0
2, 106437, Note_on_c, 0, 81, 0
2, 106442, Note_on_c, 0, 81, 95
2, 106447, Note_on_c, 0, 69, 85
2, 106536, Note_on_c, 0, 40, 0
2, 106548, Note_on_c, 0, 40, 68
2, 106645, Control_c, 0, 64, 0
2, 106645, Note_on_c, 0, 71, 0
2, 106645, Note_on_c, 0, 83, 0
2, 106646, Note_on_c, 0, 57, 0
2, 106646, Note_on_c, 0, 59, 0
2, 106647, Note_on_c, 0, 76, 0
2, 106647, Note_on_c, 0, 40, 0
2, 106659, Note_on_c, 0, 52, 0
2, 106659, Note_on_c, 0, 64, 0
2, 106694, Note_on_c, 0, 37, 86
2, 106694, Note_on_c, 0, 49, 95
2, 106759, Control_c, 0, 64, 127
2, 106936, Note_on_c, 0, 37, 0
2, 106940, Note_on_c, 0, 37, 77
2, 106944, Note_on_c, 0, 49, 0
2, 106951, Note_on_c, 0, 69, 0
2, 106951, Note_on_c, 0, 81, 0
2, 106952, Note_on_c, 0, 49, 73
2, 106955, Note_on_c, 0, 81, 97
2, 106959, Note_on_c, 0, 69, 93
2, 107218, Note_on_c, 0, 83, 103
2, 107223, Note_on_c, 0, 71, 96
2, 107223, Note_on_c, 0, 64, 72
2, 107224, Note_on_c, 0, 57, 76
2, 107225, Note_on_c, 0, 59, 72
2, 107242, Note_on_c, 0, 69, 0
2, 107243, Note_on_c, 0, 37, 0
2, 107244, Note_on_c, 0, 49, 0
2, 107483, Note_on_c, 0, 85, 99
2, 107487, Note_on_c, 0, 76, 88
2, 107492, Note_on_c, 0, 73, 84
2, 107612, Note_on_c, 0, 64, 0
2, 107618, Note_on_c, 0, 69, 87
2, 107619, Note_on_c, 0, 64, 81
2, 107865, Note_on_c, 0, 76, 0
2, 107873, Note_on_c, 0, 81, 0
2, 107876, Note_on_c, 0, 76, 80
2, 107881, Note_on_c, 0, 81, 59
2, 107988, Note_on_c, 0, 81, 0
2, 107988, Note_on_c, 0, 83, 0
2, 107995, Note_on_c, 0, 83, 90
2, 107998, Note_on_c, 0, 81, 78
2, 108009, Note_on_c, 0, 49, 68
2, 108111, Note_on_c, 0, 49, 0
2, 108121, Note_on_c, 0, 88, 77
2, 108122, Note_on_c, 0, 49, 62
2, 108226, Note_on_c, 0, 59, 0
2, 108233, Note_on_c, 0, 57, 0
2, 108234, Note_on_c, 0, 69, 0
2, 108234, Note_on_c, 0, 59, 85
2, 108241, Note_on_c, 0, 100, 95
2, 108244, Note_on_c, 0, 93, 85
2, 108245, Note_on_c, 0, 69, 69
2, 108247, Note_on_c, 0, 52, 75
2, 108495, Note_on_c, 0, 64, 0
2, 108495, Note_on_c, 0, 76, 0
2, 108500, Note_on_c, 0, 76, 89
2, 108501, Note_on_c, 0, 64, 81
2, 108513, Note_on_c, 0, 62, 53
2, 108518, Note_on_c, 0, 62, 0
2, 108602, Note_on_c, 0, 49, 0
2, 108613, Note_on_c, 0, 37, 82
2, 108613, Note_on_c, 0, 49, 79
2, 108700, Note_on_c, 0, 52, 0
2, 108700, Note_on_c, 0, 85, 0
2, 108700, Note_on_c, 0, 73, 0
2, 108700, Note_on_c, 0, 83, 0
2, 108700, Note_on_c, 0, 93, 0
2, 108700, Note_on_c, 0, 64, 0
2, 108700, Control_c, 0, 64, 0
2, 108700, Note_on_c, 0, 71, 0
2, 108700, Note_on_c, 0, 69, 0
2, 108700, Note_on_c, 0, 37, 0
2, 108700, Note_on_c, 0, 81, 0
2, 108700, Note_on_c, 0, 100, 0
2, 108700, Note_on_c, 0, 88, 0
2, 108701, Note_on_c, 0, 59, 0
2, 108701, Note_on_c, 0, 76, 0
2, 108701, Note_on_c, 0, 49, 0
2, 108751, Note_on_c, 0, 78, 102
2, 108759, Note_on_c, 0, 69, 86
2, 108761, Note_on_c, 0, 50, 93
2, 108761, Note_on_c, 0, 66, 94
2, 108764, Note_on_c, 0, 38, 86
2, 108797, Note_on_c, 0, 50, 0
2, 108825, Note_on_c, 0, 66, 0
2, 108848, Control_c, 0, 64, 127
2, 109017, Note_on_c, 0, 38, 0
2, 109017, Note_on_c, 0, 69, 0
2, 109020, Note_on_c, 0, 76, 95
2, 109021, Note_on_c, 0, 38, 81
2, 109022, Note_on_c, 0, 64, 82
2, 109027, Note_on_c, 0, 69, 73
2, 109278, Note_on_c, 0, 64, 0
2, 109280, Note_on_c, 0, 83, 104
2, 109286, Note_on_c, 0, 64, 78
2, 109289, Note_on_c, 0, 71, 90
2, 109294, Note_on_c, 0, 69, 0
2, 109296, Note_on_c, 0, 50, 74
2, 109299, Note_on_c, 0, 69, 75
2, 109303, Note_on_c, 0, 54, 80
2, 109539, Note_on_c, 0, 69, 0
2, 109545, Note_on_c, 0, 81, 92
2, 109547, Note_on_c, 0, 78, 0
2, 109551, Note_on_c, 0, 69, 85
2, 109557, Note_on_c, 0, 78, 71
2, 109655, Note_on_c, 0, 38, 0
2, 109655, Note_on_c, 0, 50, 0
2, 109661, Note_on_c, 0, 50, 82
2, 109664, Note_on_c, 0, 38, 80
2, 109752, Note_on_c, 0, 83, 0
2, 109752, Note_on_c, 0, 71, 0
2, 109754, Note_on_c, 0, 50, 0
2, 109754, Note_on_c, 0, 54, 0
2, 109754, Note_on_c, 0, 38, 0
2, 109754, Note_on_c, 0, 76, 0
2, 109755, Note_on_c, 0, 78, 0
2, 109757, Note_on_c, 0, 81, 0
2, 109758, Control_c, 0, 64, 0
2, 109770, Note_on_c, 0, 64, 0
2, 109785, Note_on_c, 0, 69, 0
2, 109807, Note_on_c, 0, 52, 92
2, 109809, Note_on_c, 0, 40, 85
2, 109850, Note_on_c, 0, 40, 0
2, 109851, Note_on_c, 0, 52, 0
2, 109893, Control_c, 0, 64, 127
2, 110066, Note_on_c, 0, 76, 96
2, 110067, Note_on_c, 0, 64, 80
2, 110067, Note_on_c, 0, 40, 74
2, 110068, Note_on_c, 0, 52, 77
2, 110315, Note_on_c, 0, 64, 0
2, 110323, Note_on_c, 0, 52, 0
2, 110326, Note_on_c, 0, 64, 92
2, 110327, Note_on_c, 0, 83, 104
2, 110327, Note_on_c, 0, 59, 84
2, 110327, Note_on_c, 0, 57, 81
2, 110329, Note_on_c, 0, 52, 78
2, 110333, Note_on_c, 0, 71, 94
2, 110592, Note_on_c, 0, 81, 99
2, 110595, Note_on_c, 0, 69, 92
2, 110691, Note_on_c, 0, 40, 0
2, 110696, Note_on_c, 0, 40, 73
2, 110696, Note_on_c, 0, 28, 76
2, 110707, Note_on_c, 0, 28, 0
2, 110795, Note_on_c, 0, 71, 0
2, 110795, Note_on_c, 0, 52, 0
2, 110795, Note_on_c, 0, 59, 0
2, 110795, Note_on_c, 0, 64, 0
2, 110795, Note_on_c, 0, 57, 0
2, 110795, Note_on_c, 0, 76, 0
2, 110795, Control_c, 0, 64, 0
2, 110795, Note_on_c, 0, 83, 0
2, 110795, Note_on_c, 0, 40, 0
2, 110830, Note_on_c, 0, 69, 0
2, 110848, Note_on_c, 0, 42, 88
2, 110849, Note_on_c, 0, 54, 88
2, 110929, Control_c, 0, 64, 127
2, 111075, Note_on_c, 0, 42, 0
2, 111087, Note_on_c, 0, 42, 80
2, 111098, Note_on_c, 0, 81, 0
2, 111102, Note_on_c, 0, 81, 92
2, 111109, Note_on_c, 0, 69, 87
2, 111356, Note_on_c, 0, 80, 98
2, 111360, Note_on_c, 0, 69, 0
2, 111362, Note_on_c, 0, 64, 82
2, 111363, Note_on_c, 0, 57, 67
2, 111363, Note_on_c, 0, 68, 87
2, 111363, Note_on_c, 0, 61, 81
2, 111369, Note_on_c, 0, 69, 80
2, 111369, Note_on_c, 0, 73, 77
2, 111622, Note_on_c, 0, 76, 95
2, 111736, Note_on_c, 0, 61, 0
2, 111736, Note_on_c, 0, 64, 0
2, 111744, Note_on_c, 0, 57, 0
2, 111744, Note_on_c, 0, 69, 0
2, 111747, Note_on_c, 0, 61, 80
2, 111747, Note_on_c, 0, 64, 86
2, 111754, Note_on_c, 0, 57, 67
2, 111755, Note_on_c, 0, 69, 72
2, 111887, Note_on_c, 0, 88, 89
2, 112016, Note_on_c, 0, 83, 75
2, 112128, Note_on_c, 0, 81, 0
2, 112135, Note_on_c, 0, 54, 0
2, 112135, Note_on_c, 0, 69, 0
2, 112139, Note_on_c, 0, 81, 76
2, 112140, Note_on_c, 0, 54, 73
2, 112145, Note_on_c, 0, 69, 62
2, 112266, Note_on_c, 0, 80, 0
2, 112273, Note_on_c, 0, 80, 75
2, 112396, Note_on_c, 0, 57, 0
2, 112396, Note_on_c, 0, 69, 0
2, 112396, Note_on_c, 0, 76, 0
2, 112401, Note_on_c, 0, 57, 71
2, 112401, Note_on_c, 0, 76, 88
2, 112404, Note_on_c, 0, 69, 71
2, 112529, Note_on_c, 0, 52, 68
2, 112642, Note_on_c, 0, 64, 0
2, 112642, Note_on_c, 0, 76, 0
2, 112648, Note_on_c, 0, 49, 79
2, 112649, Note_on_c, 0, 76, 98
2, 112652, Note_on_c, 0, 64, 83
2, 112757, Note_on_c, 0, 42, 0
2, 112757, Note_on_c, 0, 69, 0
2, 112766, Note_on_c, 0, 42, 79
2, 112768, Note_on_c, 0, 69, 66
2, 112876, Note_on_c, 0, 68, 0
2, 112876, Note_on_c, 0, 42, 0
2, 112876, Note_on_c, 0, 52, 0
2, 112876, Note_on_c, 0, 80, 0
2, 112877, Note_on_c, 0, 54, 0
2, 112877, Note_on_c, 0, 81, 0
2, 112877, Note_on_c, 0, 61, 0
2, 112877, Note_on_c, 0, 49, 0
2, 112877, Note_on_c, 0, 76, 0
2, 112877, Control_c, 0, 64, 0
2, 112877, Note_on_c, 0, 88, 0
2, 112878, Note_on_c, 0, 83, 0
2, 112880, Note_on_c, 0, 73, 0
2, 112888, Note_on_c, 0, 57, 0
2, 112888, Note_on_c, 0, 64, 0
2, 112903, Note_on_c, 0, 69, 0
2, 112905, Note_on_c, 0, 78, 101
2, 112907, Note_on_c, 0, 50, 90
2, 112908, Note_on_c, 0, 69, 86
2, 112909, Note_on_c, 0, 38, 87
2, 112910, Note_on_c, 0, 66, 95
2, 112955, Note_on_c, 0, 50, 0
2, 112980, Note_on_c, 0, 38, 0
2, 113011, Control_c, 0, 64, 127
2, 113157, Note_on_c, 0, 69, 0
2, 113161, Note_on_c, 0, 38, 75
2, 113161, Note_on_c, 0, 76, 95
2, 113162, Note_on_c, 0, 50, 75
2, 113167, Note_on_c, 0, 64, 81
2, 113168, Note_on_c, 0, 69, 75
2, 113402, Note_on_c, 0, 64, 0
2, 113413, Note_on_c, 0, 64, 88
2, 113415, Note_on_c, 0, 83, 105
2, 113418, Note_on_c, 0, 69, 0
2, 113420, Note_on_c, 0, 57, 78
2, 113423, Note_on_c, 0, 54, 85
2, 113424, Note_on_c, 0, 71, 91
2, 113427, Note_on_c, 0, 69, 80
2, 113461, Note_on_c, 0, 66, 0
2, 113462, Note_on_c, 0, 78, 0
2, 113472, Control_c, 0, 64, 0
2, 113479, Note_on_c, 0, 38, 0
2, 113479, Note_on_c, 0, 50, 0
2, 113556, Control_c, 0, 64, 127
2, 113648, Note_on_c, 0, 69, 0
2, 113689, Note_on_c, 0, 81, 98
2, 113693, Note_on_c, 0, 69, 84
2, 113802, Note_on_c, 0, 50, 80
2, 113803, Note_on_c, 0, 38, 81
2, 113887, Note_on_c, 0, 83, 0
2, 113887, Note_on_c, 0, 71, 0
2, 113889, Note_on_c, 0, 38, 0
2, 113890, Control_c, 0, 64, 0
2, 113894, Note_on_c, 0, 54, 0
2, 113894, Note_on_c, 0, 64, 0
2, 113894, Note_on_c, 0, 76, 0
2, 113909, Note_on_c, 0, 50, 0
2, 113925, Note_on_c, 0, 57, 0
2, 113946, Note_on_c, 0, 52, 94
2, 113947, Note_on_c, 0, 40, 86
2, 114017, Control_c, 0, 64, 127
2, 114201, Note_on_c, 0, 40, 0
2, 114201, Note_on_c, 0, 52, 0
2, 114208, Note_on_c, 0, 76, 94
2, 114211, Note_on_c, 0, 40, 79
2, 114211, Note_on_c, 0, 52, 82
2, 114212, Note_on_c, 0, 64, 85
2, 114462, Note_on_c, 0, 64, 0
2, 114466, Note_on_c, 0, 64, 81
2, 114470, Note_on_c, 0, 69, 0
2, 114473, Note_on_c, 0, 83, 106
2, 114477, Note_on_c, 0, 71, 96
2, 114477, Note_on_c, 0, 59, 79
2, 114479, Note_on_c, 0, 69, 82
2, 114481, Note_on_c, 0, 57, 78
2, 114489, Control_c, 0, 64, 0
2, 114547, Note_on_c, 0, 40, 0
2, 114593, Control_c, 0, 64, 127
2, 114723, Note_on_c, 0, 81, 0
2, 114731, Note_on_c, 0, 69, 0
2, 114735, Note_on_c, 0, 81, 97
2, 114741, Note_on_c, 0, 69, 88
2, 114843, Note_on_c, 0, 40, 72
2, 114936, Note_on_c, 0, 59, 0
2, 114936, Note_on_c, 0, 83, 0
2, 114936, Note_on_c, 0, 69, 0
2, 114937, Note_on_c, 0, 71, 0
2, 114937, Note_on_c, 0, 57, 0
2, 114941, Control_c, 0, 64, 0
2, 114946, Note_on_c, 0, 52, 0
2, 114946, Note_on_c, 0, 76, 0
2, 114954, Note_on_c, 0, 64, 0
2, 114994, Note_on_c, 0, 37, 89
2, 114994, Note_on_c, 0, 49, 96
2, 115038, Note_on_c, 0, 40, 0
2, 115069, Control_c, 0, 64, 127
2, 115230, Note_on_c, 0, 37, 0
2, 115238, Note_on_c, 0, 49, 0
2, 115241, Note_on_c, 0, 37, 76
2, 115245, Note_on_c, 0, 49, 74
2, 115246, Note_on_c, 0, 81, 0
2, 115255, Note_on_c, 0, 81, 99
2, 115261, Note_on_c, 0, 69, 89
2, 115507, Note_on_c, 0, 69, 0
2, 115509, Note_on_c, 0, 83, 105
2, 115509, Note_on_c, 0, 64, 74
2, 115510, Note_on_c, 0, 71, 99
2, 115511, Note_on_c, 0, 69, 83
2, 115516, Note_on_c, 0, 57, 76
2, 115518, Note_on_c, 0, 59, 69
2, 115772, Note_on_c, 0, 85, 102
2, 115780, Note_on_c, 0, 76, 87
2, 115786, Note_on_c, 0, 73, 82
2, 115898, Note_on_c, 0, 64, 0
2, 115898, Note_on_c, 0, 69, 0
2, 115908, Note_on_c, 0, 69, 89
2, 115909, Note_on_c, 0, 64, 79
2, 115929, Note_on_c, 0, 57, 0
2, 115935, Note_on_c, 0, 57, 35
2, 116144, Note_on_c, 0, 76, 0
2, 116155, Note_on_c, 0, 76, 77
2, 116282, Note_on_c, 0, 81, 0
2, 116282, Note_on_c, 0, 83, 0
2, 116289, Note_on_c, 0, 83, 83
2, 116290, Note_on_c, 0, 49, 0
2, 116291, Note_on_c, 0, 81, 70
2, 116298, Note_on_c, 0, 37, 0
2, 116301, Note_on_c, 0, 49, 68
2, 116309, Note_on_c, 0, 37, 56
2, 116402, Note_on_c, 0, 88, 82
2, 116528, Note_on_c, 0, 59, 0
2, 116532, Note_on_c, 0, 100, 98
2, 116536, Note_on_c, 0, 69, 0
2, 116540, Note_on_c, 0, 59, 76
2, 116542, Note_on_c, 0, 95, 79
2, 116542, Note_on_c, 0, 93, 83
2, 116544, Note_on_c, 0, 71, 0
2, 116546, Note_on_c, 0, 69, 68
2, 116546, Note_on_c, 0, 52, 64
2, 116549, Note_on_c, 0, 71, 69
2, 116797, Note_on_c, 0, 76, 0
2, 116804, Note_on_c, 0, 76, 95
2, 116805, Note_on_c, 0, 64, 0
2, 116805, Note_on_c, 0, 69, 0
2, 116812, Note_on_c, 0, 69, 63
2, 116815, Note_on_c, 0, 64, 69
2, 116920, Note_on_c, 0, 37, 0
2, 116920, Note_on_c, 0, 49, 0
2, 116930, Note_on_c, 0, 37, 63
2, 116931, Note_on_c, 0, 49, 66
2, 117023, Control_c, 0, 64, 0
2, 117024, Note_on_c, 0, 73, 0
2, 117024, Note_on_c, 0, 93, 0
2, 117024, Note_on_c, 0, 85, 0
2, 117024, Note_on_c, 0, 100, 0
2, 117025, Note_on_c, 0, 95, 0
2, 117025, Note_on_c, 0, 81, 0
2, 117025, Note_on_c, 0, 71, 0
2, 117025, Note_on_c, 0, 88, 0
2, 117025, Note_on_c, 0, 83, 0
2, 117025, Note_on_c, 0, 52, 0
2, 117025, Note_on_c, 0, 37, 0
2, 117026, Note_on_c, 0, 59, 0
2, 117026, Note_on_c, 0, 64, 0
2, 117026, Note_on_c, 0, 57, 0
2, 117035, Note_on_c, 0, 49, 0
2, 117043, Note_on_c, 0, 69, 0
2, 117058, Note_on_c, 0, 76, 0
2, 117069, Note_on_c, 0, 76, 101
2, 117073, Note_on_c, 0, 64, 92
2, 117075, Note_on_c, 0, 48, 81
2, 117077, Note_on_c, 0, 36, 79
2, 117158, Control_c, 0, 64, 127
2, 117189, Note_on_c, 0, 64, 0
2, 117323, Note_on_c, 0, 83, 97
2, 117328, Note_on_c, 0, 71, 86
2, 117455, Note_on_c, 0, 81, 94
2, 117460, Note_on_c, 0, 69, 85
2, 117588, Note_on_c, 0, 69, 0
2, 117592, Note_on_c, 0, 64, 72
2, 117592, Note_on_c, 0, 69, 72
2, 117593, Note_on_c, 0, 57, 61
2, 117593, Note_on_c, 0, 60, 68
2, 117619, Note_on_c, 0, 36, 0
2, 117849, Note_on_c, 0, 76, 0
2, 117849, Note_on_c, 0, 83, 0
2, 117849, Note_on_c, 0, 88, 81
2, 117858, Note_on_c, 0, 76, 63
2, 117860, Note_on_c, 0, 83, 57
2, 117864, Note_on_c, 0, 81, 0
2, 117873, Note_on_c, 0, 81, 53
2, 118110, Note_on_c, 0, 57, 0
2, 118110, Note_on_c, 0, 76, 0
2, 118110, Note_on_c, 0, 88, 0
2, 118115, Note_on_c, 0, 88, 76
2, 118118, Note_on_c, 0, 60, 0
2, 118118, Note_on_c, 0, 64, 0
2, 118118, Note_on_c, 0, 69, 0
2, 118119, Note_on_c, 0, 57, 53
2, 118119, Note_on_c, 0, 76, 68
2, 118122, Note_on_c, 0, 69, 61
2, 118124, Note_on_c, 0, 64, 57
2, 118125, Note_on_c, 0, 60, 55
2, 118371, Note_on_c, 0, 83, 0
2, 118375, Note_on_c, 0, 95, 78
2, 118378, Note_on_c, 0, 83, 79
2, 118502, Note_on_c, 0, 81, 0
2, 118503, Note_on_c, 0, 93, 89
2, 118507, Note_on_c, 0, 81, 82
2, 118640, Note_on_c, 0, 60, 0
2, 118640, Note_on_c, 0, 64, 0
2, 118647, Note_on_c, 0, 60, 64
2, 118649, Note_on_c, 0, 64, 66
2, 118656, Note_on_c, 0, 57, 0
2, 118666, Note_on_c, 0, 57, 52
2, 118909, Note_on_c, 0, 64, 0
2, 118909, Note_on_c, 0, 76, 0
2, 118914, Note_on_c, 0, 76, 97
2, 118914, Note_on_c, 0, 64, 84
2, 119009, Note_on_c, 0, 48, 0
2, 119016, Note_on_c, 0, 36, 77
2, 119020, Note_on_c, 0, 48, 78
2, 119112, Note_on_c, 0, 57, 0
2, 119112, Note_on_c, 0, 48, 0
2, 119112, Note_on_c, 0, 60, 0
2, 119112, Note_on_c, 0, 69, 0
2, 119112, Note_on_c, 0, 71, 0
2, 119112, Note_on_c, 0, 64, 0
2, 119112, Note_on_c, 0, 76, 0
2, 119112, Note_on_c, 0, 81, 0
2, 119112, Note_on_c, 0, 93, 0
2, 119112, Note_on_c, 0, 88, 0
2, 119113, Note_on_c, 0, 83, 0
2, 119113, Note_on_c, 0, 36, 0
2, 119113, Note_on_c, 0, 95, 0
2, 119114, Control_c, 0, 64, 0
2, 119170, Note_on_c, 0, 76, 103
2, 119170, Note_on_c, 0, 50, 88
2, 119172, Note_on_c, 0, 38, 89
2, 119173, Note_on_c, 0, 64, 93
2, 119173, Note_on_c, 0, 69, 87
2, 119239, Control_c, 0, 64, 127
2, 119414, Note_on_c, 0, 83, 97
2, 119444, Note_on_c, 0, 71, 50
2, 119448, Note_on_c, 0, 72, 54
2, 119554, Note_on_c, 0, 69, 0
2, 119559, Note_on_c, 0, 81, 98
2, 119563, Note_on_c, 0, 69, 89
2, 119679, Note_on_c, 0, 66, 72
2, 119680, Note_on_c, 0, 62, 61
2, 119694, Note_on_c, 0, 57, 63
2, 119935, Note_on_c, 0, 45, 74
2, 120065, Note_on_c, 0, 40, 78
2, 120065, Note_on_c, 0, 28, 75
2, 120076, Note_on_c, 0, 28, 0
2, 120176, Note_on_c, 0, 38, 0
2, 120179, Control_c, 0, 64, 0
2, 120184, Note_on_c, 0, 81, 0
2, 120191, Note_on_c, 0, 81, 99
2, 120192, Note_on_c, 0, 69, 0
2, 120192, Note_on_c, 0, 71, 0
2, 120192, Note_on_c, 0, 76, 0
2, 120196, Note_on_c, 0, 69, 90
2, 120199, Note_on_c, 0, 64, 0
2, 120199, Note_on_c, 0, 76, 90
2, 120202, Note_on_c, 0, 71, 91
2, 120208, Note_on_c, 0, 83, 0
2, 120210, Note_on_c, 0, 72, 0
2, 120211, Note_on_c, 0, 62, 0
2, 120211, Note_on_c, 0, 45, 0
2, 120214, Note_on_c, 0, 66, 0
2, 120215, Note_on_c, 0, 50, 0
2, 120216, Note_on_c, 0, 57, 0
2, 120384, Control_c, 0, 64, 127
2, 120456, Note_on_c, 0, 47, 69
2, 120586, Note_on_c, 0, 52, 73
2, 120713, Note_on_c, 0, 80, 94
2, 120717, Note_on_c, 0, 57, 66
2, 120723, Note_on_c, 0, 68, 85
2, 120843, Note_on_c, 0, 59, 73
2, 120973, Note_on_c, 0, 64, 69
2, 121210, Note_on_c, 0, 80, 0
2, 121210, Note_on_c, 0, 71, 0
2, 121210, Note_on_c, 0, 47, 0
2, 121210, Note_on_c, 0, 68, 0
2, 121210, Note_on_c, 0, 64, 0
2, 121211, Note_on_c, 0, 40, 0
2, 121211, Note_on_c, 0, 59, 0
2, 121215, Control_c, 0, 64, 0
2, 121228, Note_on_c, 0, 57, 0
2, 121228, Note_on_c, 0, 81, 0
2, 121235, Note_on_c, 0, 81, 96
2, 121236, Note_on_c, 0, 52, 0
2, 121236, Note_on_c, 0, 69, 0
2, 121236, Note_on_c, 0, 76, 0
2, 121239, Note_on_c, 0, 57, 67
2, 121242, Note_on_c, 0, 76, 82
2, 121242, Note_on_c, 0, 42, 64
2, 121243, Note_on_c, 0, 69, 86
2, 121245, Note_on_c, 0, 49, 59
2, 121247, Note_on_c, 0, 52, 62
2, 121251, Note_on_c, 0, 49, 0
2, 121374, Control_c, 0, 64, 127
2, 121536, Note_on_c, 0, 81, 0
2, 121541, Note_on_c, 0, 81, 67
2, 121696, Note_on_c, 0, 88, 60
2, 121793, Note_on_c, 0, 93, 61
2, 121912, Note_on_c, 0, 88, 0
2, 121919, Note_on_c, 0, 88, 67
2, 122035, Note_on_c, 0, 81, 0
2, 122040, Note_on_c, 0, 81, 62
2, 122158, Note_on_c, 0, 88, 0
2, 122164, Note_on_c, 0, 88, 66
2, 122276, Note_on_c, 0, 38, 71
2, 122519, Note_on_c, 0, 81, 0
2, 122524, Note_on_c, 0, 81, 60
2, 122664, Note_on_c, 0, 88, 0
2, 122670, Note_on_c, 0, 54, 62
2, 122670, Note_on_c, 0, 88, 70
2, 122671, Note_on_c, 0, 64, 67
2, 122672, Note_on_c, 0, 57, 0
2, 122803, Note_on_c, 0, 93, 0
2, 122807, Note_on_c, 0, 93, 63
2, 122926, Note_on_c, 0, 88, 0
2, 122933, Note_on_c, 0, 88, 61
2, 123033, Note_on_c, 0, 81, 0
2, 123039, Note_on_c, 0, 81, 60
2, 123156, Note_on_c, 0, 88, 0
2, 123161, Note_on_c, 0, 88, 64
2, 123271, Note_on_c, 0, 38, 0
2, 123276, Note_on_c, 0, 52, 0
2, 123277, Control_c, 0, 64, 0
2, 123277, Note_on_c, 0, 69, 0
2, 123278, Note_on_c, 0, 54, 0
2, 123278, Note_on_c, 0, 64, 0
2, 123279, Note_on_c, 0, 93, 0
2, 123282, Note_on_c, 0, 76, 0
2, 123287, Note_on_c, 0, 40, 55
2, 123294, Note_on_c, 0, 42, 0
2, 123386, Control_c, 0, 64, 127
2, 123532, Note_on_c, 0, 88, 0
2, 123540, Note_on_c, 0, 81, 0
2, 123547, Note_on_c, 0, 81, 67
2, 123666, Note_on_c, 0, 88, 72
2, 123668, Note_on_c, 0, 56, 60
2, 123676, Note_on_c, 0, 64, 58
2, 123792, Note_on_c, 0, 93, 75
2, 123909, Note_on_c, 0, 88, 0
2, 123918, Note_on_c, 0, 88, 59
2, 124032, Note_on_c, 0, 81, 0
2, 124037, Note_on_c, 0, 81, 58
2, 124154, Note_on_c, 0, 88, 0
2, 124162, Note_on_c, 0, 88, 72
2, 124266, Note_on_c, 0, 93, 0
2, 124266, Control_c, 0, 64, 0
2, 124266, Note_on_c, 0, 81, 0
2, 124266, Note_on_c, 0, 56, 0
2, 124267, Note_on_c, 0, 64, 0
2, 124289, Note_on_c, 0, 45, 67
2, 124293, Note_on_c, 0, 40, 0
2, 124354, Control_c, 0, 64, 127
2, 124385, Note_on_c, 0, 45, 0
2, 124526, Note_on_c, 0, 81, 67
2, 124646, Note_on_c, 0, 88, 0
2, 124657, Note_on_c, 0, 88, 72
2, 124683, Note_on_c, 0, 61, 55
2, 124684, Note_on_c, 0, 64, 54
2, 124688, Note_on_c, 0, 57, 52
2, 124797, Note_on_c, 0, 93, 71
2, 124907, Note_on_c, 0, 88, 0
2, 124911, Note_on_c, 0, 88, 75
2, 125029, Note_on_c, 0, 90, 78
2, 125057, Note_on_c, 0, 56, 59
2, 125071, Note_on_c, 0, 92, 75
2, 125137, Note_on_c, 0, 93, 0
2, 125146, Note_on_c, 0, 93, 80
2, 125215, Note_on_c, 0, 95, 76
2, 125280, Note_on_c, 0, 93, 0
2, 125280, Note_on_c, 0, 56, 0
2, 125280, Note_on_c, 0, 81, 0
2, 125280, Note_on_c, 0, 90, 0
2, 125281, Note_on_c, 0, 92, 0
2, 125282, Control_c, 0, 64, 0
2, 125282, Note_on_c, 0, 57, 0
2, 125282, Note_on_c, 0, 88, 0
2, 125292, Note_on_c, 0, 98, 95
2, 125299, Note_on_c, 0, 64, 0
2, 125306, Note_on_c, 0, 64, 70
2, 125306, Note_on_c, 0, 61, 0
2, 125309, Note_on_c, 0, 54, 66
2, 125313, Note_on_c, 0, 61, 61
2, 125314, Note_on_c, 0, 95, 0
2, 125376, Control_c, 0, 64, 127
2, 125419, Note_on_c, 0, 88, 73
2, 125475, Note_on_c, 0, 98, 0
2, 125550, Note_on_c, 0, 93, 68
2, 125671, Note_on_c, 0, 97, 91
2, 125675, Note_on_c, 0, 64, 0
2, 125680, Note_on_c, 0, 69, 72
2, 125684, Note_on_c, 0, 64, 64
2, 125775, Note_on_c, 0, 88, 0
2, 125785, Note_on_c, 0, 88, 74
2, 125890, Note_on_c, 0, 93, 0
2, 125895, Note_on_c, 0, 93, 76
2, 126032, Note_on_c, 0, 95, 88
2, 126032, Note_on_c, 0, 86, 86
2, 126144, Note_on_c, 0, 93, 0
2, 126150, Note_on_c, 0, 93, 86
2, 126172, Note_on_c, 0, 85, 83
2, 126226, Note_on_c, 0, 95, 0
2, 126228, Note_on_c, 0, 86, 0
2, 126229, Note_on_c, 0, 54, 0
2, 126229, Note_on_c, 0, 61, 0
2, 126229, Note_on_c, 0, 93, 0
2, 126229, Note_on_c, 0, 64, 0
2, 126229, Note_on_c, 0, 69, 0
2, 126230, Note_on_c, 0, 97, 0
2, 126240, Control_c, 0, 64, 0
2, 126251, Note_on_c, 0, 88, 0
2, 126274, Note_on_c, 0, 57, 58
2, 126274, Note_on_c, 0, 50, 63
2, 126274, Note_on_c, 0, 64, 68
2, 126343, Control_c, 0, 64, 127
2, 126393, Note_on_c, 0, 81, 74
2, 126521, Note_on_c, 0, 88, 85
2, 126643, Note_on_c, 0, 64, 0
2, 126644, Note_on_c, 0, 93, 87
2, 126646, Note_on_c, 0, 69, 74
2, 126653, Note_on_c, 0, 64, 76
2, 126765, Note_on_c, 0, 92, 77
2, 126819, Note_on_c, 0, 93, 0
2, 126829, Note_on_c, 0, 93, 69
2, 126921, Note_on_c, 0, 90, 70
2, 126942, Note_on_c, 0, 88, 0
2, 126953, Note_on_c, 0, 88, 79
2, 126999, Note_on_c, 0, 86, 71
2, 127057, Note_on_c, 0, 85, 0
2, 127068, Note_on_c, 0, 85, 78
2, 127112, Note_on_c, 0, 83, 71
2, 127180, Note_on_c, 0, 81, 0
2, 127185, Note_on_c, 0, 81, 78
2, 127199, Note_on_c, 0, 69, 0
2, 127200, Note_on_c, 0, 93, 0
2, 127200, Note_on_c, 0, 92, 0
2, 127201, Note_on_c, 0, 64, 0
2, 127201, Note_on_c, 0, 90, 0
2, 127201, Note_on_c, 0, 50, 0
2, 127202, Note_on_c, 0, 83, 0
2, 127205, Note_on_c, 0, 85, 0
2, 127208, Control_c, 0, 64, 0
2, 127211, Note_on_c, 0, 57, 0
2, 127219, Note_on_c, 0, 86, 0
2, 127219, Note_on_c, 0, 88, 0
2, 127246, Note_on_c, 0, 64, 75
2, 127246, Note_on_c, 0, 52, 74
2, 127247, Note_on_c, 0, 88, 88
2, 127249, Note_on_c, 0, 59, 70
2, 127296, Control_c, 0, 64, 127
2, 127377, Note_on_c, 0, 86, 69
2, 127434, Note_on_c, 0, 88, 0
2, 127444, Note_on_c, 0, 88, 74
2, 127480, Note_on_c, 0, 86, 0
2, 127484, Note_on_c, 0, 86, 75
2, 127526, Note_on_c, 0, 81, 0
2, 127529, Note_on_c, 0, 85, 79
2, 127575, Note_on_c, 0, 83, 79
2, 127595, Note_on_c, 0, 64, 0
2, 127603, Note_on_c, 0, 69, 74
2, 127604, Note_on_c, 0, 64, 65
2, 127637, Note_on_c, 0, 81, 79
2, 127695, Note_on_c, 0, 83, 0
2, 127702, Note_on_c, 0, 83, 87
2, 127756, Note_on_c, 0, 81, 0
2, 127762, Note_on_c, 0, 81, 74
2, 127854, Note_on_c, 0, 80, 77
2, 127918, Note_on_c, 0, 81, 0
2, 127928, Note_on_c, 0, 81, 69
2, 127979, Note_on_c, 0, 80, 0
2, 127984, Note_on_c, 0, 80, 59
2, 128046, Note_on_c, 0, 78, 68
2, 128094, Note_on_c, 0, 80, 0
2, 128100, Note_on_c, 0, 80, 75
2, 128183, Note_on_c, 0, 76, 69
2, 128232, Note_on_c, 0, 81, 0
2, 128237, Note_on_c, 0, 86, 0
2, 128237, Note_on_c, 0, 80, 0
2, 128237, Note_on_c, 0, 81, 74
2, 128237, Control_c, 0, 64, 0
2, 128237, Note_on_c, 0, 78, 0
2, 128237, Note_on_c, 0, 85, 0
2, 128238, Note_on_c, 0, 83, 0
2, 128240, Note_on_c, 0, 64, 0
2, 128240, Note_on_c, 0, 69, 0
2, 128241, Note_on_c, 0, 52, 0
2, 128242, Note_on_c, 0, 59, 0
2, 128243, Note_on_c, 0, 76, 0
2, 128245, Note_on_c, 0, 69, 66
2, 128251, Note_on_c, 0, 64, 53
2, 128252, Note_on_c, 0, 57, 47
2, 128252, Note_on_c, 0, 62, 48
2, 128256, Note_on_c, 0, 88, 0
2, 128371, Control_c, 0, 64, 127
2, 128747, Control_c, 0, 64, 0
2, 128770, Note_on_c, 0, 62, 0
2, 128782, Note_on_c, 0, 61, 43
2, 128855, Control_c, 0, 64, 127
2, 129029, Note_on_c, 0, 88, 75
2, 129292, Note_on_c, 0, 81, 0
2, 129296, Control_c, 0, 64, 0
2, 129297, Note_on_c, 0, 61, 0
2, 129297, Note_on_c, 0, 93, 73
2, 129300, Note_on_c, 0, 57, 0
2, 129303, Note_on_c, 0, 81, 61
2, 129304, Note_on_c, 0, 76, 56
2, 129308, Note_on_c, 0, 69, 0
2, 129313, Note_on_c, 0, 65, 52
2, 129314, Note_on_c, 0, 84, 54
2, 129315, Note_on_c, 0, 64, 0
2, 129317, Note_on_c, 0, 69, 54
2, 129320, Note_on_c, 0, 72, 50
2, 129334, Note_on_c, 0, 77, 44
2, 129415, Control_c, 0, 64, 127
2, 129569, Note_on_c, 0, 84, 0
2, 129569, Note_on_c, 0, 93, 0
2, 129574, Note_on_c, 0, 93, 59
2, 129580, Note_on_c, 0, 84, 45
2, 129799, Note_on_c, 0, 77, 0
2, 129815, Note_on_c, 0, 93, 0
2, 129822, Note_on_c, 0, 84, 0
2, 129824, Note_on_c, 0, 93, 62
2, 129830, Note_on_c, 0, 84, 47
2, 130068, Note_on_c, 0, 93, 0
2, 130075, Note_on_c, 0, 93, 58
2, 130076, Note_on_c, 0, 84, 0
2, 130081, Note_on_c, 0, 84, 46
2, 130314, Note_on_c, 0, 93, 0
2, 130320, Note_on_c, 0, 93, 74
2, 130321, Note_on_c, 0, 84, 0
2, 130327, Note_on_c, 0, 84, 49
2, 130452, Note_on_c, 0, 69, 0
2, 130463, Note_on_c, 0, 69, 51
2, 130560, Note_on_c, 0, 72, 0
2, 130560, Note_on_c, 0, 88, 0
2, 130563, Note_on_c, 0, 88, 57
2, 130570, Note_on_c, 0, 72, 55
2, 130652, Note_on_c, 0, 76, 0
2, 130662, Note_on_c, 0, 76, 49
2, 130682, Note_on_c, 0, 88, 0
2, 130688, Note_on_c, 0, 88, 69
2, 130836, Note_on_c, 0, 69, 0
2, 130844, Note_on_c, 0, 69, 52
2, 130959, Note_on_c, 0, 72, 0
2, 130963, Note_on_c, 0, 72, 52
2, 131066, Note_on_c, 0, 88, 0
2, 131074, Note_on_c, 0, 88, 78
2, 131074, Note_on_c, 0, 76, 0
2, 131081, Note_on_c, 0, 76, 56
2, 131220, Note_on_c, 0, 69, 0
2, 131230, Note_on_c, 0, 69, 51
2, 131328, Note_on_c, 0, 81, 0
2, 131332, Note_on_c, 0, 86, 76
2, 131334, Note_on_c, 0, 65, 0
2, 131334, Note_on_c, 0, 93, 0
2, 131334, Note_on_c, 0, 84, 0
2, 131335, Note_on_c, 0, 72, 0
2, 131336, Note_on_c, 0, 88, 0
2, 131336, Note_on_c, 0, 69, 0
2, 131336, Note_on_c, 0, 76, 0
2, 131338, Note_on_c, 0, 81, 62
2, 131339, Control_c, 0, 64, 0
2, 131354, Note_on_c, 0, 67, 54
2, 131364, Note_on_c, 0, 74, 39
2, 131364, Note_on_c, 0, 83, 51
2, 131481, Control_c, 0, 64, 127
2, 131614, Note_on_c, 0, 69, 57
2, 131758, Note_on_c, 0, 71, 50
2, 131880, Note_on_c, 0, 74, 0
2, 131885, Note_on_c, 0, 74, 47
2, 132003, Note_on_c, 0, 69, 0
2, 132012, Note_on_c, 0, 69, 57
2, 132126, Note_on_c, 0, 71, 0
2, 132136, Note_on_c, 0, 71, 48
2, 132249, Note_on_c, 0, 74, 0
2, 132257, Note_on_c, 0, 74, 54
2, 132380, Note_on_c, 0, 69, 0
2, 132390, Note_on_c, 0, 69, 60
2, 132510, Note_on_c, 0, 71, 0
2, 132520, Note_on_c, 0, 71, 45
2, 132610, Note_on_c, 0, 74, 0
2, 132622, Note_on_c, 0, 74, 62
2, 132648, Note_on_c, 0, 86, 0
2, 132653, Note_on_c, 0, 86, 78
2, 132771, Note_on_c, 0, 69, 0
2, 132776, Note_on_c, 0, 69, 59
2, 132879, Note_on_c, 0, 71, 0
2, 132887, Note_on_c, 0, 86, 0
2, 132887, Note_on_c, 0, 71, 58
2, 132894, Note_on_c, 0, 86, 81
2, 132910, Note_on_c, 0, 69, 0
2, 132917, Note_on_c, 0, 69, 38
2, 133017, Note_on_c, 0, 74, 0
2, 133023, Note_on_c, 0, 74, 69
2, 133154, Note_on_c, 0, 88, 81
2, 133155, Note_on_c, 0, 69, 0
2, 133160, Note_on_c, 0, 69, 65
2, 133271, Note_on_c, 0, 71, 0
2, 133278, Note_on_c, 0, 71, 68
2, 133393, Note_on_c, 0, 86, 0
2, 133398, Note_on_c, 0, 86, 83
2, 133409, Note_on_c, 0, 69, 0
2, 133420, Note_on_c, 0, 69, 67
2, 133423, Note_on_c, 0, 74, 0
2, 133424, Note_on_c, 0, 71, 0
2, 133424, Note_on_c, 0, 83, 0
2, 133424, Note_on_c, 0, 67, 0
2, 133426, Control_c, 0, 64, 0
2, 133427, Note_on_c, 0, 57, 54
2, 133428, Note_on_c, 0, 83, 58
2, 133516, Note_on_c, 0, 88, 0
2, 133547, Control_c, 0, 64, 127
2, 133663, Note_on_c, 0, 85, 75
2, 133667, Note_on_c, 0, 64, 56
2, 133777, Note_on_c, 0, 81, 0
2, 133777, Note_on_c, 0, 85, 0
2, 133783, Note_on_c, 0, 85, 81
2, 133788, Note_on_c, 0, 81, 60
2, 133800, Note_on_c, 0, 69, 0
2, 133805, Note_on_c, 0, 69, 55
2, 133908, Note_on_c, 0, 71, 62
2, 134023, Note_on_c, 0, 64, 0
2, 134031, Note_on_c, 0, 64, 60
2, 134161, Note_on_c, 0, 69, 0
2, 134167, Note_on_c, 0, 69, 58
2, 134269, Note_on_c, 0, 71, 0
2, 134275, Note_on_c, 0, 71, 59
2, 134292, Note_on_c, 0, 69, 0
2, 134296, Note_on_c, 0, 69, 40
2, 134392, Note_on_c, 0, 64, 0
2, 134398, Note_on_c, 0, 64, 48
2, 134499, Note_on_c, 0, 69, 0
2, 134504, Note_on_c, 0, 69, 56
2, 134645, Note_on_c, 0, 73, 65
2, 134661, Note_on_c, 0, 69, 0
2, 134667, Note_on_c, 0, 69, 40
2, 134760, Note_on_c, 0, 64, 0
2, 134765, Note_on_c, 0, 64, 62
2, 134891, Note_on_c, 0, 69, 0
2, 134895, Note_on_c, 0, 69, 61
2, 135006, Note_on_c, 0, 71, 0
2, 135017, Note_on_c, 0, 71, 72
2, 135137, Note_on_c, 0, 64, 0
2, 135142, Note_on_c, 0, 64, 61
2, 135237, Note_on_c, 0, 69, 0
2, 135248, Note_on_c, 0, 69, 69
2, 135398, Note_on_c, 0, 71, 0
2, 135399, Note_on_c, 0, 74, 80
2, 135406, Note_on_c, 0, 57, 0
2, 135408, Note_on_c, 0, 71, 68
2, 135409, Control_c, 0, 64, 0
2, 135410, Note_on_c, 0, 57, 52
2, 135411, Note_on_c, 0, 83, 0
2, 135411, Note_on_c, 0, 69, 0
2, 135411, Note_on_c, 0, 64, 0
2, 135412, Note_on_c, 0, 85, 0
2, 135412, Note_on_c, 0, 81, 0
2, 135413, Note_on_c, 0, 73, 0
2, 135513, Control_c, 0, 64, 127
2, 135539, Note_on_c, 0, 64, 60
2, 135665, Note_on_c, 0, 69, 62
2, 135795, Note_on_c, 0, 73, 77
2, 135797, Note_on_c, 0, 86, 0
2, 135836, Note_on_c, 0, 57, 0
2, 135842, Note_on_c, 0, 57, 41
2, 135912, Note_on_c, 0, 57, 0
2, 135924, Note_on_c, 0, 57, 60
2, 136020, Note_on_c, 0, 64, 0
2, 136031, Note_on_c, 0, 64, 72
2, 136158, Note_on_c, 0, 69, 0
2, 136165, Note_on_c, 0, 69, 76
2, 136306, Note_on_c, 0, 52, 63
2, 136404, Note_on_c, 0, 57, 0
2, 136412, Note_on_c, 0, 57, 66
2, 136527, Note_on_c, 0, 64, 0
2, 136531, Note_on_c, 0, 64, 76
2, 136657, Note_on_c, 0, 52, 0
2, 136662, Note_on_c, 0, 52, 76
2, 136788, Note_on_c, 0, 57, 0
2, 136793, Note_on_c, 0, 57, 67
2, 136794, Note_on_c, 0, 62, 71
2, 136914, Note_on_c, 0, 61, 83
2, 137040, Note_on_c, 0, 45, 75
2, 137149, Note_on_c, 0, 64, 0
2, 137158, Note_on_c, 0, 76, 96
2, 137160, Note_on_c, 0, 64, 87
2, 137164, Note_on_c, 0, 52, 0
2, 137169, Note_on_c, 0, 52, 75
2, 137256, Note_on_c, 0, 57, 0
2, 137268, Note_on_c, 0, 57, 70
2, 137416, Note_on_c, 0, 64, 0
2, 137416, Note_on_c, 0, 62, 0
2, 137416, Note_on_c, 0, 45, 0
2, 137416, Note_on_c, 0, 52, 0
2, 137417, Note_on_c, 0, 57, 0
2, 137417, Note_on_c, 0, 61, 0
2, 137418, Note_on_c, 0, 74, 0
2, 137418, Note_on_c, 0, 76, 0
2, 137420, Control_c, 0, 64, 0
2, 137425, Note_on_c, 0, 81, 93
2, 137433, Note_on_c, 0, 69, 0
2, 137433, Note_on_c, 0, 71, 0
2, 137437, Note_on_c, 0, 69, 77
2, 137438, Note_on_c, 0, 72, 80
2, 137440, Note_on_c, 0, 41, 75
2, 137441, Note_on_c, 0, 73, 0
2, 137441, Note_on_c, 0, 53, 78
2, 137525, Control_c, 0, 64, 127
2, 137548, Note_on_c, 0, 41, 0
2, 137694, Note_on_c, 0, 69, 0
2, 137694, Note_on_c, 0, 81, 0
2, 137698, Note_on_c, 0, 57, 60
2, 137698, Note_on_c, 0, 81, 79
2, 137704, Note_on_c, 0, 69, 68
2, 137831, Note_on_c, 0, 60, 61
2, 137940, Note_on_c, 0, 81, 0
2, 137949, Note_on_c, 0, 81, 83
2, 137952, Note_on_c, 0, 64, 65
2, 138078, Note_on_c, 0, 57, 0
2, 138088, Note_on_c, 0, 57, 60
2, 138193, Note_on_c, 0, 81, 0
2, 138201, Note_on_c, 0, 60, 0
2, 138201, Note_on_c, 0, 69, 0
2, 138205, Note_on_c, 0, 81, 91
2, 138206, Note_on_c, 0, 60, 70
2, 138210, Note_on_c, 0, 69, 60
2, 138316, Note_on_c, 0, 64, 0
2, 138327, Note_on_c, 0, 64, 69
2, 138447, Note_on_c, 0, 81, 0
2, 138457, Note_on_c, 0, 81, 94
2, 138462, Note_on_c, 0, 57, 0
2, 138462, Note_on_c, 0, 69, 0
2, 138462, Note_on_c, 0, 72, 0
2, 138467, Note_on_c, 0, 57, 65
2, 138473, Note_on_c, 0, 72, 79
2, 138473, Note_on_c, 0, 69, 81
2, 138585, Note_on_c, 0, 60, 0
2, 138590, Note_on_c, 0, 60, 73
2, 138708, Note_on_c, 0, 64, 0
2, 138713, Note_on_c, 0, 76, 80
2, 138719, Note_on_c, 0, 64, 69
2, 138823, Note_on_c, 0, 76, 0
2, 138828, Note_on_c, 0, 76, 86
2, 138839, Note_on_c, 0, 69, 0
2, 138846, Note_on_c, 0, 57, 0
2, 138848, Note_on_c, 0, 69, 64
2, 138854, Note_on_c, 0, 57, 60
2, 138961, Note_on_c, 0, 60, 0
2, 138969, Note_on_c, 0, 60, 74
2, 139092, Note_on_c, 0, 64, 0
2, 139096, Note_on_c, 0, 64, 80
2, 139215, Note_on_c, 0, 57, 0
2, 139215, Note_on_c, 0, 69, 0
2, 139215, Note_on_c, 0, 76, 0
2, 139219, Note_on_c, 0, 57, 69
2, 139221, Note_on_c, 0, 76, 85
2, 139225, Note_on_c, 0, 69, 71
2, 139338, Note_on_c, 0, 60, 0
2, 139346, Note_on_c, 0, 60, 70
2, 139451, Note_on_c, 0, 76, 0
2, 139451, Note_on_c, 0, 64, 0
2, 139452, Note_on_c, 0, 57, 0
2, 139453, Note_on_c, 0, 53, 0
2, 139453, Note_on_c, 0, 60, 0
2, 139455, Control_c, 0, 64, 0
2, 139468, Note_on_c, 0, 69, 0
2, 139468, Note_on_c, 0, 72, 0
2, 139468, Note_on_c, 0, 81, 0
2, 139474, Note_on_c, 0, 81, 95
2, 139480, Note_on_c, 0, 71, 85
2, 139480, Note_on_c, 0, 74, 82
2, 139486, Note_on_c, 0, 43, 78
2, 139486, Note_on_c, 0, 55, 79
2, 139553, Control_c, 0, 64, 127
2, 139731, Note_on_c, 0, 83, 93
2, 139732, Note_on_c, 0, 57, 67
2, 139848, Note_on_c, 0, 59, 76
2, 139852, Note_on_c, 0, 83, 0
2, 139863, Note_on_c, 0, 83, 96
2, 139985, Note_on_c, 0, 62, 67
2, 140113, Note_on_c, 0, 57, 0
2, 140118, Note_on_c, 0, 57, 63
2, 140221, Note_on_c, 0, 59, 0
2, 140232, Note_on_c, 0, 59, 67
2, 140344, Note_on_c, 0, 62, 0
2, 140344, Note_on_c, 0, 71, 0
2, 140349, Note_on_c, 0, 62, 64
2, 140355, Note_on_c, 0, 71, 52
2, 140474, Note_on_c, 0, 57, 0
2, 140479, Note_on_c, 0, 57, 61
2, 140479, Note_on_c, 0, 69, 60
2, 140582, Note_on_c, 0, 59, 0
2, 140590, Note_on_c, 0, 59, 68
2, 140705, Note_on_c, 0, 83, 0
2, 140712, Note_on_c, 0, 62, 0
2, 140712, Note_on_c, 0, 71, 0
2, 140716, Note_on_c, 0, 83, 91
2, 140717, Note_on_c, 0, 71, 84
2, 140717, Note_on_c, 0, 62, 70
2, 140835, Note_on_c, 0, 57, 0
2, 140843, Note_on_c, 0, 57, 65
2, 140951, Note_on_c, 0, 59, 0
2, 140955, Note_on_c, 0, 59, 68
2, 140958, Note_on_c, 0, 83, 0
2, 140969, Note_on_c, 0, 83, 94
2, 140981, Note_on_c, 0, 71, 0
2, 140981, Note_on_c, 0, 74, 0
2, 140987, Note_on_c, 0, 74, 78
2, 140991, Note_on_c, 0, 71, 81
2, 141089, Note_on_c, 0, 62, 0
2, 141093, Note_on_c, 0, 62, 70
2, 141212, Note_on_c, 0, 57, 0
2, 141212, Note_on_c, 0, 81, 0
2, 141219, Note_on_c, 0, 69, 0
2, 141223, Note_on_c, 0, 81, 89
2, 141223, Note_on_c, 0, 57, 63
2, 141230, Note_on_c, 0, 69, 82
2, 141319, Note_on_c, 0, 59, 0
2, 141328, Note_on_c, 0, 59, 69
2, 141475, Note_on_c, 0, 80, 95
2, 141480, Note_on_c, 0, 71, 0
2, 141487, Note_on_c, 0, 68, 85
2, 141488, Note_on_c, 0, 71, 78
2, 141494, Note_on_c, 0, 55, 0
2, 141496, Note_on_c, 0, 52, 78
2, 141497, Note_on_c, 0, 59, 0
2, 141498, Note_on_c, 0, 74, 0
2, 141498, Note_on_c, 0, 69, 0
2, 141499, Note_on_c, 0, 62, 0
2, 141499, Note_on_c, 0, 81, 0
2, 141499, Note_on_c, 0, 40, 75
2, 141499, Control_c, 0, 64, 0
2, 141504, Note_on_c, 0, 43, 0
2, 141519, Note_on_c, 0, 57, 0
2, 141527, Note_on_c, 0, 83, 0
2, 141588, Control_c, 0, 64, 127
2, 141742, Note_on_c, 0, 52, 0
2, 141745, Note_on_c, 0, 81, 89
2, 141745, Note_on_c, 0, 57, 62
2, 141752, Note_on_c, 0, 52, 60
2, 141753, Note_on_c, 0, 69, 76
2, 141876, Note_on_c, 0, 59, 70
2, 142001, Note_on_c, 0, 83, 98
2, 142003, Note_on_c, 0, 68, 0
2, 142003, Note_on_c, 0, 71, 0
2, 142008, Note_on_c, 0, 71, 83
2, 142011, Note_on_c, 0, 74, 78
2, 142012, Note_on_c, 0, 68, 70
2, 142013, Note_on_c, 0, 62, 67
2, 142126, Note_on_c, 0, 57, 0
2, 142130, Note_on_c, 0, 57, 64
2, 142241, Note_on_c, 0, 59, 0
2, 142250, Note_on_c, 0, 59, 69
2, 142379, Note_on_c, 0, 62, 0
2, 142385, Note_on_c, 0, 62, 65
2, 142515, Note_on_c, 0, 64, 88
2, 142625, Note_on_c, 0, 57, 0
2, 142635, Note_on_c, 0, 57, 68
2, 142740, Note_on_c, 0, 59, 0
2, 142751, Note_on_c, 0, 59, 76
2, 142771, Note_on_c, 0, 71, 0
2, 142771, Note_on_c, 0, 80, 0
2, 142775, Note_on_c, 0, 80, 87
2, 142777, Note_on_c, 0, 71, 64
2, 142778, Note_on_c, 0, 68, 0
2, 142783, Note_on_c, 0, 68, 79
2, 142894, Note_on_c, 0, 64, 0
2, 142899, Note_on_c, 0, 64, 80
2, 142932, Note_on_c, 0, 40, 0
2, 143016, Note_on_c, 0, 81, 0
2, 143024, Note_on_c, 0, 69, 0
2, 143026, Note_on_c, 0, 81, 99
2, 143029, Note_on_c, 0, 69, 92
2, 143030, Note_on_c, 0, 66, 90
2, 143147, Note_on_c, 0, 57, 0
2, 143158, Note_on_c, 0, 57, 66
2, 143270, Note_on_c, 0, 83, 0
2, 143278, Note_on_c, 0, 59, 0
2, 143278, Note_on_c, 0, 83, 98
2, 143284, Note_on_c, 0, 59, 77
2, 143285, Note_on_c, 0, 71, 0
2, 143296, Note_on_c, 0, 71, 78
2, 143393, Note_on_c, 0, 66, 0
2, 143399, Note_on_c, 0, 66, 73
2, 143538, Note_on_c, 0, 80, 0
2, 143538, Note_on_c, 0, 62, 0
2, 143538, Note_on_c, 0, 81, 0
2, 143538, Note_on_c, 0, 69, 0
2, 143538, Note_on_c, 0, 71, 0
2, 143539, Note_on_c, 0, 83, 0
2, 143540, Note_on_c, 0, 64, 0
2, 143540, Note_on_c, 0, 66, 0
2, 143543, Control_c, 0, 64, 0
2, 143549, Note_on_c, 0, 83, 103
2, 143554, Note_on_c, 0, 52, 0
2, 143554, Note_on_c, 0, 57, 0
2, 143554, Note_on_c, 0, 68, 0
2, 143554, Note_on_c, 0, 74, 0
2, 143558, Note_on_c, 0, 74, 84
2, 143559, Note_on_c, 0, 68, 91
2, 143562, Note_on_c, 0, 59, 0
2, 143562, Note_on_c, 0, 52, 86
2, 143568, Note_on_c, 0, 59, 80
2, 143623, Control_c, 0, 64, 127
2, 143826, Note_on_c, 0, 69, 66
2, 143829, Note_on_c, 0, 66, 57
2, 143946, Note_on_c, 0, 68, 0
2, 143949, Note_on_c, 0, 71, 74
2, 143955, Note_on_c, 0, 68, 66
2, 144070, Note_on_c, 0, 73, 78
2, 144076, Note_on_c, 0, 69, 0
2, 144087, Note_on_c, 0, 69, 64
2, 144184, Note_on_c, 0, 71, 0
2, 144184, Note_on_c, 0, 74, 0
2, 144189, Note_on_c, 0, 74, 83
2, 144189, Note_on_c, 0, 71, 77
2, 144307, Note_on_c, 0, 73, 0
2, 144315, Note_on_c, 0, 76, 90
2, 144317, Note_on_c, 0, 73, 81
2, 144422, Note_on_c, 0, 74, 0
2, 144427, Note_on_c, 0, 74, 78
2, 144428, Note_on_c, 0, 78, 93
2, 144568, Note_on_c, 0, 52, 0
2, 144568, Note_on_c, 0, 71, 0
2, 144568, Note_on_c, 0, 76, 0
2, 144570, Note_on_c, 0, 80, 104
2, 144573, Note_on_c, 0, 71, 90
2, 144573, Note_on_c, 0, 52, 75
2, 144574, Note_on_c, 0, 76, 93
2, 144576, Note_on_c, 0, 64, 83
2, 145090, Note_on_c, 0, 52, 0
2, 145090, Note_on_c, 0, 71, 0
2, 145090, Note_on_c, 0, 83, 0
2, 145098, Note_on_c, 0, 74, 0
2, 145098, Note_on_c, 0, 83, 109
2, 145100, Note_on_c, 0, 52, 93
2, 145102, Note_on_c, 0, 71, 96
2, 145102, Note_on_c, 0, 74, 96
2, 145217, Note_on_c, 0, 47, 85
2, 145345, Note_on_c, 0, 40, 83
2, 145478, Note_on_c, 0, 64, 0
2, 145479, Note_on_c, 0, 69, 0
2, 145479, Note_on_c, 0, 59, 0
2, 145479, Note_on_c, 0, 71, 0
2, 145479, Note_on_c, 0, 40, 0
2, 145479, Note_on_c, 0, 68, 0
2, 145479, Note_on_c, 0, 52, 0
2, 145479, Note_on_c, 0, 83, 0
2, 145480, Note_on_c, 0, 66, 0
2, 145480, Note_on_c, 0, 76, 0
2, 145480, Note_on_c, 0, 74, 0
2, 145480, Note_on_c, 0, 80, 0
2, 145480, Control_c, 0, 64, 0
2, 145480, Note_on_c, 0, 47, 0
2, 145482, Note_on_c, 0, 78, 0
2, 145497, Note_on_c, 0, 73, 0
2, 145639, Note_on_c, 0, 85, 106
2, 145644, Note_on_c, 0, 73, 100
2, 145646, Note_on_c, 0, 33, 95
2, 145647, Note_on_c, 0, 76, 97
2, 145649, Note_on_c, 0, 45, 95
2, 145681, Control_c, 0, 64, 127
2, 145923, Note_on_c, 0, 69, 72
2, 146058, Note_on_c, 0, 73, 0
2, 146068, Note_on_c, 0, 73, 62
2, 146112, Note_on_c, 0, 76, 0
2, 146119, Note_on_c, 0, 76, 57
2, 146179, Note_on_c, 0, 81, 96
2, 146181, Note_on_c, 0, 57, 89
2, 146181, Note_on_c, 0, 69, 0
2, 146181, Note_on_c, 0, 73, 0
2, 146185, Note_on_c, 0, 73, 89
2, 146186, Note_on_c, 0, 52, 89
2, 146188, Note_on_c, 0, 69, 84
2, 146426, Note_on_c, 0, 57, 0
2, 146426, Note_on_c, 0, 69, 0
2, 146436, Note_on_c, 0, 57, 92
2, 146437, Note_on_c, 0, 69, 84
2, 146680, Note_on_c, 0, 33, 0
2, 146683, Note_on_c, 0, 45, 0
2, 146683, Note_on_c, 0, 52, 0
2, 146683, Note_on_c, 0, 73, 0
2, 146683, Note_on_c, 0, 85, 0
2, 146683, Note_on_c, 0, 81, 0
2, 146683, Note_on_c, 0, 76, 0
2, 146684, Control_c, 0, 64, 0
2, 146703, Note_on_c, 0, 57, 0
2, 146703, Note_on_c, 0, 69, 0
2, 146704, Note_on_c, 0, 59, 97
2, 146707, Note_on_c, 0, 71, 89
2, 146714, Note_on_c, 0, 50, 94
2, 146715, Note_on_c, 0, 38, 85
2, 146719, Note_on_c, 0, 66, 66
2, 146772, Control_c, 0, 64, 127
2, 146838, Note_on_c, 0, 62, 80
2, 146956, Note_on_c, 0, 71, 0
2, 146961, Note_on_c, 0, 71, 88
2, 146964, Note_on_c, 0, 66, 0
2, 146966, Note_on_c, 0, 45, 82
2, 146968, Note_on_c, 0, 66, 74
2, 147095, Note_on_c, 0, 74, 84
2, 147213, Note_on_c, 0, 57, 86
2, 147213, Note_on_c, 0, 83, 98
2, 147214, Note_on_c, 0, 69, 84
2, 147215, Note_on_c, 0, 54, 88
2, 147217, Note_on_c, 0, 78, 85
2, 147463, Note_on_c, 0, 59, 0
2, 147469, Note_on_c, 0, 59, 95
2, 147692, Note_on_c, 0, 69, 0
2, 147692, Note_on_c, 0, 62, 0
2, 147693, Note_on_c, 0, 74, 0
2, 147693, Note_on_c, 0, 45, 0
2, 147693, Note_on_c, 0, 57, 0
2, 147694, Note_on_c, 0, 83, 0
2, 147694, Note_on_c, 0, 54, 0
2, 147695, Note_on_c, 0, 66, 0
2, 147695, Note_on_c, 0, 78, 0
2, 147695, Note_on_c, 0, 59, 0
2, 147697, Control_c, 0, 64, 0
2, 147701, Note_on_c, 0, 50, 0
2, 147709, Note_on_c, 0, 38, 0
2, 147709, Note_on_c, 0, 71, 0
2, 147712, Note_on_c, 0, 61, 97
2, 147720, Note_on_c, 0, 52, 94
2, 147721, Note_on_c, 0, 40, 89
2, 147809, Control_c, 0, 64, 127
2, 147843, Note_on_c, 0, 64, 70
2, 147976, Note_on_c, 0, 73, 85
2, 147976, Note_on_c, 0, 47, 80
2, 147978, Note_on_c, 0, 68, 79
2, 148098, Note_on_c, 0, 76, 85
2, 148217, Note_on_c, 0, 80, 96
2, 148220, Note_on_c, 0, 85, 99
2, 148237, Note_on_c, 0, 56, 76
2, 148239, Note_on_c, 0, 52, 0
2, 148244, Note_on_c, 0, 52, 72
2, 148363, Note_on_c, 0, 62, 85
2, 148469, Note_on_c, 0, 61, 0
2, 148479, Note_on_c, 0, 61, 87
2, 148592, Note_on_c, 0, 47, 0
2, 148598, Note_on_c, 0, 47, 66
2, 148598, Note_on_c, 0, 59, 90
2, 148602, Note_on_c, 0, 71, 78
2, 148706, Note_on_c, 0, 80, 0
2, 148706, Note_on_c, 0, 73, 0
2, 148707, Note_on_c, 0, 62, 0
2, 148707, Note_on_c, 0, 68, 0
2, 148707, Note_on_c, 0, 61, 0
2, 148707, Note_on_c, 0, 52, 0
2, 148707, Note_on_c, 0, 85, 0
2, 148707, Note_on_c, 0, 56, 0
2, 148707, Note_on_c, 0, 71, 0
2, 148708, Control_c, 0, 64, 0
2, 148708, Note_on_c, 0, 64, 0
2, 148708, Note_on_c, 0, 59, 0
2, 148708, Note_on_c, 0, 40, 0
2, 148708, Note_on_c, 0, 76, 0
2, 148708, Note_on_c, 0, 47, 0
2, 148714, Note_on_c, 0, 42, 89
2, 148718, Note_on_c, 0, 57, 89
2, 148718, Note_on_c, 0, 69, 87
2, 148815, Control_c, 0, 64, 127
2, 148866, Note_on_c, 0, 64, 79
2, 148976, Note_on_c, 0, 69, 0
2, 148987, Note_on_c, 0, 49, 79
2, 148987, Note_on_c, 0, 69, 77
2, 149101, Note_on_c, 0, 76, 80
2, 149234, Note_on_c, 0, 81, 97
2, 149240, Note_on_c, 0, 52, 97
2, 149242, Note_on_c, 0, 73, 90
2, 149493, Note_on_c, 0, 54, 98
2, 149738, Note_on_c, 0, 52, 0
2, 149738, Note_on_c, 0, 73, 0
2, 149738, Note_on_c, 0, 49, 0
2, 149739, Note_on_c, 0, 76, 0
2, 149739, Note_on_c, 0, 42, 0
2, 149739, Note_on_c, 0, 64, 0
2, 149739, Note_on_c, 0, 81, 0
2, 149739, Note_on_c, 0, 54, 0
2, 149744, Control_c, 0, 64, 0
2, 149744, Note_on_c, 0, 57, 0
2, 149744, Note_on_c, 0, 69, 0
2, 149752, Note_on_c, 0, 57, 89
2, 149753, Note_on_c, 0, 69, 89
2, 149753, Note_on_c, 0, 33, 88
2, 149756, Note_on_c, 0, 61, 75
2, 149844, Control_c, 0, 64, 127
2, 149879, Note_on_c, 0, 64, 81
2, 149928, Note_on_c, 0, 33, 0
2, 149990, Note_on_c, 0, 71, 85
2, 150005, Note_on_c, 0, 69, 0
2, 150009, Note_on_c, 0, 69, 76
2, 150010, Note_on_c, 0, 45, 74
2, 150118, Note_on_c, 0, 76, 78
2, 150120, Note_on_c, 0, 57, 0
2, 150242, Note_on_c, 0, 57, 92
2, 150243, Note_on_c, 0, 45, 0
2, 150254, Note_on_c, 0, 81, 81
2, 150254, Note_on_c, 0, 45, 80
2, 150255, Note_on_c, 0, 52, 88
2, 150258, Note_on_c, 0, 85, 98
2, 150277, Note_on_c, 0, 83, 78
2, 150515, Note_on_c, 0, 59, 87
2, 150746, Control_c, 0, 64, 0
2, 150747, Note_on_c, 0, 52, 0
2, 150747, Note_on_c, 0, 81, 0
2, 150748, Note_on_c, 0, 57, 0
2, 150748, Note_on_c, 0, 45, 0
2, 150748, Note_on_c, 0, 61, 0
2, 150748, Note_on_c, 0, 76, 0
2, 150748, Note_on_c, 0, 71, 0
2, 150748, Note_on_c, 0, 59, 0
2, 150748, Note_on_c, 0, 83, 0
2, 150749, Note_on_c, 0, 85, 0
2, 150766, Note_on_c, 0, 64, 0
2, 150773, Note_on_c, 0, 69, 0
2, 150776, Note_on_c, 0, 64, 102
2, 150777, Note_on_c, 0, 50, 96
2, 150779, Note_on_c, 0, 38, 92
2, 150812, Note_on_c, 0, 50, 0
2, 150881, Control_c, 0, 64, 127
2, 150921, Note_on_c, 0, 66, 79
2, 151027, Note_on_c, 0, 38, 0
2, 151031, Note_on_c, 0, 45, 82
2, 151034, Note_on_c, 0, 73, 83
2, 151035, Note_on_c, 0, 38, 74
2, 151144, Note_on_c, 0, 76, 92
2, 151277, Note_on_c, 0, 88, 93
2, 151278, Note_on_c, 0, 61, 93
2, 151279, Note_on_c, 0, 54, 92
2, 151282, Note_on_c, 0, 85, 88
2, 151283, Note_on_c, 0, 81, 84
2, 151527, Note_on_c, 0, 59, 85
2, 151603, Note_on_c, 0, 61, 0
2, 151612, Note_on_c, 0, 61, 84
2, 151687, Note_on_c, 0, 59, 0
2, 151693, Note_on_c, 0, 59, 88
2, 151696, Note_on_c, 0, 71, 78
2, 151718, Note_on_c, 0, 38, 0
2, 151766, Note_on_c, 0, 66, 0
2, 151767, Note_on_c, 0, 71, 0
2, 151767, Note_on_c, 0, 85, 0
2, 151768, Note_on_c, 0, 81, 0
2, 151768, Note_on_c, 0, 54, 0
2, 151768, Note_on_c, 0, 59, 0
2, 151769, Note_on_c, 0, 76, 0
2, 151769, Note_on_c, 0, 88, 0
2, 151770, Control_c, 0, 64, 0
2, 151776, Note_on_c, 0, 57, 94
2, 151777, Note_on_c, 0, 52, 93
2, 151778, Note_on_c, 0, 40, 85
2, 151779, Note_on_c, 0, 45, 0
2, 151779, Note_on_c, 0, 64, 0
2, 151779, Note_on_c, 0, 73, 0
2, 151787, Note_on_c, 0, 61, 0
2, 151872, Note_on_c, 0, 52, 0
2, 151879, Control_c, 0, 64, 127
2, 151907, Note_on_c, 0, 64, 82
2, 152018, Note_on_c, 0, 71, 85
2, 152021, Note_on_c, 0, 69, 63
2, 152052, Note_on_c, 0, 47, 78
2, 152150, Note_on_c, 0, 76, 95
2, 152151, Note_on_c, 0, 52, 67
2, 152279, Note_on_c, 0, 52, 0
2, 152281, Note_on_c, 0, 56, 96
2, 152284, Note_on_c, 0, 52, 83
2, 152288, Note_on_c, 0, 83, 96
2, 152289, Note_on_c, 0, 92, 102
2, 152296, Note_on_c, 0, 88, 80
2, 152302, Note_on_c, 0, 57, 0
2, 152532, Note_on_c, 0, 40, 0
2, 152536, Note_on_c, 0, 40, 67
2, 152671, Note_on_c, 0, 57, 83
2, 152674, Note_on_c, 0, 69, 0
2, 152768, Note_on_c, 0, 57, 0
2, 152769, Note_on_c, 0, 47, 0
2, 152769, Note_on_c, 0, 56, 0
2, 152769, Note_on_c, 0, 64, 0
2, 152769, Note_on_c, 0, 71, 0
2, 152770, Note_on_c, 0, 83, 0
2, 152770, Note_on_c, 0, 92, 0
2, 152772, Note_on_c, 0, 88, 0
2, 152772, Note_on_c, 0, 40, 0
2, 152773, Control_c, 0, 64, 0
2, 152778, Note_on_c, 0, 76, 0
2, 152793, Note_on_c, 0, 52, 0
2, 152800, Note_on_c, 0, 52, 83
2, 152800, Note_on_c, 0, 93, 101
2, 152802, Note_on_c, 0, 57, 86
2, 152804, Note_on_c, 0, 45, 85
2, 152843, Note_on_c, 0, 45, 0
2, 152858, Note_on_c, 0, 92, 84
2, 152870, Note_on_c, 0, 52, 0
2, 152893, Control_c, 0, 64, 127
2, 152930, Note_on_c, 0, 90, 79
2, 152973, Note_on_c, 0, 88, 77
2, 153036, Note_on_c, 0, 86, 67
2, 153105, Note_on_c, 0, 85, 80
2, 153172, Note_on_c, 0, 83, 72
2, 153234, Note_on_c, 0, 81, 71
2, 153300, Note_on_c, 0, 88, 0
2, 153310, Note_on_c, 0, 88, 86
2, 153317, Note_on_c, 0, 62, 74
2, 153331, Note_on_c, 0, 57, 0
2, 153333, Note_on_c, 0, 59, 74
2, 153339, Note_on_c, 0, 57, 65
2, 153361, Note_on_c, 0, 86, 0
2, 153372, Note_on_c, 0, 86, 72
2, 153415, Note_on_c, 0, 85, 0
2, 153422, Note_on_c, 0, 85, 72
2, 153454, Note_on_c, 0, 83, 0
2, 153461, Note_on_c, 0, 83, 72
2, 153500, Note_on_c, 0, 81, 0
2, 153505, Note_on_c, 0, 81, 68
2, 153597, Note_on_c, 0, 76, 77
2, 153657, Note_on_c, 0, 74, 64
2, 153718, Note_on_c, 0, 71, 74
2, 153851, Note_on_c, 0, 93, 0
2, 153853, Note_on_c, 0, 90, 0
2, 153853, Note_on_c, 0, 57, 0
2, 153853, Note_on_c, 0, 81, 0
2, 153853, Note_on_c, 0, 62, 0
2, 153854, Note_on_c, 0, 74, 0
2, 153855, Note_on_c, 0, 59, 0
2, 153855, Note_on_c, 0, 86, 0
2, 153855, Note_on_c, 0, 76, 0
2, 153856, Note_on_c, 0, 71, 0
2, 153856, Control_c, 0, 64, 0
2, 153856, Note_on_c, 0, 83, 0
2, 153856, Note_on_c, 0, 85, 0
2, 153857, Note_on_c, 0, 81, 92
2, 153859, Note_on_c, 0, 57, 69
2, 153859, Note_on_c, 0, 73, 83
2, 153860, Note_on_c, 0, 64, 76
2, 153861, Note_on_c, 0, 92, 0
2, 153861, Note_on_c, 0, 69, 86
2, 153868, Note_on_c, 0, 88, 0
2, 154007, Control_c, 0, 64, 127
2, 154383, Note_on_c, 0, 69, 0
2, 154394, Note_on_c, 0, 69, 69
2, 154652, Note_on_c, 0, 69, 0
2, 154658, Note_on_c, 0, 69, 75
2, 154935, Note_on_c, 0, 71, 80
2, 155466, Note_on_c, 0, 69, 0
2, 155475, Note_on_c, 0, 69, 90
2, 155727, Note_on_c, 0, 71, 0
2, 155731, Note_on_c, 0, 71, 99
2, 155732, Note_on_c, 0, 56, 90
2, 155734, Note_on_c, 0, 44, 81
2, 155907, Note_on_c, 0, 73, 0
2, 155908, Note_on_c, 0, 71, 0
2, 155908, Note_on_c, 0, 44, 0
2, 155908, Note_on_c, 0, 64, 0
2, 155908, Note_on_c, 0, 57, 0
2, 155909, Note_on_c, 0, 56, 0
2, 155909, Control_c, 0, 64, 0
2, 155911, Note_on_c, 0, 81, 0
2, 155927, Note_on_c, 0, 69, 0
2, 156007, Note_on_c, 0, 69, 105
2, 156007, Note_on_c, 0, 42, 91
2, 156009, Note_on_c, 0, 54, 96
2, 156010, Note_on_c, 0, 61, 97
2, 156012, Note_on_c, 0, 57, 90
2, 156096, Note_on_c, 0, 57, 0
2, 156119, Control_c, 0, 64, 127
2, 156165, Note_on_c, 0, 61, 0
2, 156310, Note_on_c, 0, 54, 0
2, 156311, Control_c, 0, 64, 0
2, 156313, Note_on_c, 0, 69, 0
2, 156318, Note_on_c, 0, 42, 0
2, 156537, Note_on_c, 0, 81, 105
2, 156538, Note_on_c, 0, 52, 95
2, 156543, Note_on_c, 0, 40, 87
2, 156544, Note_on_c, 0, 69, 97
2, 156545, Note_on_c, 0, 73, 96
2, 156587, Control_c, 0, 64, 127
2, 156602, Note_on_c, 0, 52, 0
2, 156710, Note_on_c, 0, 40, 0
2, 156862, Note_on_c, 0, 81, 0
2, 156863, Note_on_c, 0, 73, 0
2, 156863, Note_on_c, 0, 69, 0
2, 156866, Control_c, 0, 64, 0
2, 157060, Note_on_c, 0, 80, 105
2, 157067, Note_on_c, 0, 39, 89
2, 157067, Note_on_c, 0, 54, 93
2, 157067, Note_on_c, 0, 73, 95
2, 157069, Note_on_c, 0, 69, 86
2, 157079, Control_c, 0, 64, 127
2, 157194, Note_on_c, 0, 69, 0
2, 157200, Note_on_c, 0, 69, 77
2, 157324, Note_on_c, 0, 73, 0
2, 157329, Note_on_c, 0, 78, 82
2, 157330, Note_on_c, 0, 73, 69
2, 157435, Note_on_c, 0, 81, 77
2, 157464, Note_on_c, 0, 51, 74
2, 157580, Note_on_c, 0, 90, 93
2, 157581, Note_on_c, 0, 85, 95
2, 157593, Note_on_c, 0, 66, 96
2, 157596, Note_on_c, 0, 61, 88
2, 157602, Note_on_c, 0, 57, 77
2, 157833, Note_on_c, 0, 76, 98
2, 157946, Note_on_c, 0, 73, 0
2, 157955, Note_on_c, 0, 73, 86
2, 158042, Control_c, 0, 64, 0
2, 158045, Note_on_c, 0, 81, 0
2, 158045, Note_on_c, 0, 66, 0
2, 158046, Note_on_c, 0, 57, 0
2, 158046, Note_on_c, 0, 78, 0
2, 158047, Note_on_c, 0, 85, 0
2, 158047, Note_on_c, 0, 76, 0
2, 158047, Note_on_c, 0, 61, 0
2, 158047, Note_on_c, 0, 73, 0
2, 158047, Note_on_c, 0, 80, 0
2, 158047, Note_on_c, 0, 51, 0
2, 158054, Note_on_c, 0, 39, 0
2, 158054, Note_on_c, 0, 69, 0
2, 158054, Note_on_c, 0, 90, 0
2, 158062, Note_on_c, 0, 54, 0
2, 158096, Note_on_c, 0, 50, 90
2, 158096, Note_on_c, 0, 71, 92
2, 158097, Note_on_c, 0, 38, 87
2, 158100, Note_on_c, 0, 66, 93
2, 158137, Note_on_c, 0, 50, 0
2, 158177, Control_c, 0, 64, 127
2, 158238, Note_on_c, 0, 38, 0
2, 158347, Note_on_c, 0, 50, 62
2, 158599, Note_on_c, 0, 71, 0
2, 158609, Note_on_c, 0, 71, 91
2, 158610, Note_on_c, 0, 59, 77
2, 158613, Note_on_c, 0, 66, 0
2, 158615, Note_on_c, 0, 54, 74
2, 158868, Note_on_c, 0, 50, 0
2, 158874, Note_on_c, 0, 73, 87
2, 158876, Note_on_c, 0, 50, 61
2, 159097, Note_on_c, 0, 54, 0
2, 159097, Note_on_c, 0, 73, 0
2, 159097, Note_on_c, 0, 50, 0
2, 159098, Note_on_c, 0, 59, 0
2, 159100, Control_c, 0, 64, 0
2, 159121, Note_on_c, 0, 71, 0
2, 159125, Note_on_c, 0, 71, 91
2, 159134, Note_on_c, 0, 40, 78
2, 159141, Note_on_c, 0, 64, 77
2, 159141, Note_on_c, 0, 69, 86
2, 159244, Control_c, 0, 64, 127
2, 159406, Note_on_c, 0, 52, 64
2, 159651, Note_on_c, 0, 69, 0
2, 159658, Note_on_c, 0, 69, 84
2, 159662, Note_on_c, 0, 57, 68
2, 159663, Note_on_c, 0, 59, 72
2, 159912, Note_on_c, 0, 52, 0
2, 159912, Note_on_c, 0, 71, 0
2, 159916, Note_on_c, 0, 71, 81
2, 159917, Note_on_c, 0, 52, 66
2, 160174, Note_on_c, 0, 69, 0
2, 160181, Note_on_c, 0, 69, 88
2, 160189, Note_on_c, 0, 40, 0
2, 160189, Note_on_c, 0, 64, 0
2, 160194, Note_on_c, 0, 45, 73
2, 160199, Note_on_c, 0, 64, 69
2, 160200, Note_on_c, 0, 62, 65
2, 160208, Note_on_c, 0, 57, 0
2, 160208, Note_on_c, 0, 59, 0
2, 160208, Note_on_c, 0, 52, 0
2, 160208, Note_on_c, 0, 71, 0
2, 160209, Control_c, 0, 64, 0
2, 160442, Control_c, 0, 64, 127
2, 160469, Note_on_c, 0, 52, 60
2, 160722, Note_on_c, 0, 57, 64
2, 160988, Note_on_c, 0, 52, 0
2, 160994, Note_on_c, 0, 52, 65
2, 161246, Note_on_c, 0, 59, 78
2, 161502, Note_on_c, 0, 52, 0
2, 161507, Note_on_c, 0, 52, 63
2, 161756, Note_on_c, 0, 59, 0
2, 161756, Note_on_c, 0, 62, 0
2, 161761, Note_on_c, 0, 62, 80
2, 161764, Note_on_c, 0, 59, 77
2, 162017, Note_on_c, 0, 52, 0
2, 162028, Note_on_c, 0, 52, 69
2, 162258, Control_c, 0, 64, 0
2, 162259, Note_on_c, 0, 45, 0
2, 162259, Note_on_c, 0, 57, 0
2, 162260, Note_on_c, 0, 62, 0
2, 162260, Note_on_c, 0, 59, 0
2, 162260, Note_on_c, 0, 64, 0
2, 162270, Note_on_c, 0, 52, 0
2, 162278, Note_on_c, 0, 69, 0
2, 162297, Note_on_c, 0, 61, 85
2, 162297, Note_on_c, 0, 45, 84
2, 162301, Note_on_c, 0, 33, 84
2, 162399, Note_on_c, 0, 59, 72
2, 162401, Control_c, 0, 64, 127
2, 162496, Note_on_c, 0, 57, 71
2, 162554, Note_on_c, 0, 33, 0
2, 162560, Note_on_c, 0, 33, 63
2, 162608, Note_on_c, 0, 59, 0
2, 162615, Note_on_c, 0, 59, 65
2, 162639, Note_on_c, 0, 61, 0
2, 162650, Note_on_c, 0, 61, 72
2, 162742, Note_on_c, 0, 62, 67
2, 162792, Note_on_c, 0, 33, 0
2, 162792, Note_on_c, 0, 45, 0
2, 162793, Note_on_c, 0, 64, 88
2, 162797, Note_on_c, 0, 45, 87
2, 162799, Note_on_c, 0, 33, 87
2, 162813, Control_c, 0, 64, 0
2, 162816, Note_on_c, 0, 61, 0
2, 162817, Note_on_c, 0, 57, 0
2, 162839, Note_on_c, 0, 59, 0
2, 162862, Note_on_c, 0, 62, 0
2, 162866, Note_on_c, 0, 62, 79
2, 162931, Control_c, 0, 64, 127
2, 162962, Note_on_c, 0, 61, 74
2, 163015, Note_on_c, 0, 62, 0
2, 163020, Note_on_c, 0, 62, 78
2, 163046, Note_on_c, 0, 33, 0
2, 163046, Note_on_c, 0, 45, 0
2, 163050, Note_on_c, 0, 33, 76
2, 163051, Note_on_c, 0, 45, 70
2, 163100, Note_on_c, 0, 64, 0
2, 163104, Note_on_c, 0, 64, 79
2, 163188, Note_on_c, 0, 66, 80
2, 163232, Note_on_c, 0, 68, 84
2, 163298, Note_on_c, 0, 69, 91
2, 163307, Note_on_c, 0, 33, 0
2, 163307, Note_on_c, 0, 45, 0
2, 163313, Note_on_c, 0, 33, 98
2, 163316, Note_on_c, 0, 45, 92
2, 163322, Control_c, 0, 64, 0
2, 163328, Note_on_c, 0, 64, 0
2, 163330, Note_on_c, 0, 61, 0
2, 163330, Note_on_c, 0, 62, 0
2, 163331, Note_on_c, 0, 66, 0
2, 163361, Note_on_c, 0, 68, 0
2, 163371, Note_on_c, 0, 68, 72
2, 163415, Control_c, 0, 64, 127
2, 163434, Note_on_c, 0, 64, 82
2, 163500, Note_on_c, 0, 66, 88
2, 163522, Note_on_c, 0, 68, 0
2, 163532, Note_on_c, 0, 68, 90
2, 163550, Note_on_c, 0, 66, 0
2, 163550, Note_on_c, 0, 64, 0
2, 163560, Note_on_c, 0, 69, 0
2, 163599, Note_on_c, 0, 69, 82
2, 163642, Note_on_c, 0, 71, 83
2, 163668, Note_on_c, 0, 69, 0
2, 163678, Note_on_c, 0, 69, 70
2, 163680, Note_on_c, 0, 73, 55
2, 163727, Note_on_c, 0, 74, 89
2, 163765, Note_on_c, 0, 76, 85
2, 163806, Note_on_c, 0, 33, 0
2, 163806, Note_on_c, 0, 45, 0
2, 163806, Note_on_c, 0, 69, 0
2, 163812, Note_on_c, 0, 78, 92
2, 163812, Note_on_c, 0, 45, 95
2, 163812, Note_on_c, 0, 33, 98
2, 163817, Note_on_c, 0, 69, 81
2, 163859, Note_on_c, 0, 81, 101
2, 163944, Note_on_c, 0, 33, 0
2, 163944, Note_on_c, 0, 68, 0
2, 163944, Note_on_c, 0, 69, 0
2, 163949, Note_on_c, 0, 33, 97
2, 163954, Note_on_c, 0, 69, 80
2, 163960, Control_c, 0, 64, 0
2, 164044, Control_c, 0, 64, 127
2, 164067, Note_on_c, 0, 76, 0
2, 164075, Note_on_c, 0, 33, 0
2, 164075, Note_on_c, 0, 69, 0
2, 164078, Note_on_c, 0, 76, 108
2, 164079, Note_on_c, 0, 64, 99
2, 164081, Note_on_c, 0, 33, 96
2, 164081, Note_on_c, 0, 69, 87
2, 164321, Note_on_c, 0, 78, 0
2, 164321, Control_c, 0, 64, 0
2, 164328, Note_on_c, 0, 45, 0
2, 164328, Note_on_c, 0, 69, 0
2, 164330, Note_on_c, 0, 78, 107
2, 164333, Note_on_c, 0, 66, 108
2, 164333, Note_on_c, 0, 38, 99
2, 164333, Note_on_c, 0, 33, 0
2, 164334, Note_on_c, 0, 69, 88
2, 164338, Note_on_c, 0, 26, 99
2, 164338, Note_on_c, 0, 64, 0
2, 164352, Note_on_c, 0, 73, 0
2, 164359, Note_on_c, 0, 76, 0
2, 164367, Note_on_c, 0, 71, 0
2, 164375, Note_on_c, 0, 81, 0
2, 164421, Control_c, 0, 64, 127
2, 164436, Note_on_c, 0, 74, 0
2, 164595, Note_on_c, 0, 33, 85
2, 164601, Note_on_c, 0, 76, 107
2, 164603, Note_on_c, 0, 64, 96
2, 164692, Note_on_c, 0, 78, 0
2, 164693, Note_on_c, 0, 66, 0
2, 164693, Note_on_c, 0, 76, 0
2, 164693, Note_on_c, 0, 38, 0
2, 164693, Note_on_c, 0, 64, 0
2, 164697, Note_on_c, 0, 26, 0
2, 164703, Control_c, 0, 64, 0
2, 164712, Note_on_c, 0, 69, 0
2, 164728, Note_on_c, 0, 33, 0
2, 164863, Note_on_c, 0, 83, 108
2, 164865, Note_on_c, 0, 71, 103
2, 164901, Note_on_c, 0, 71, 0
2, 164905, Note_on_c, 0, 83, 0
2, 165116, Note_on_c, 0, 81, 106
2, 165124, Note_on_c, 0, 69, 93
2, 165127, Note_on_c, 0, 73, 95
2, 165240, Note_on_c, 0, 38, 90
2, 165241, Note_on_c, 0, 26, 86
2, 165335, Note_on_c, 0, 26, 0
2, 165350, Note_on_c, 0, 38, 0
2, 165385, Note_on_c, 0, 40, 92
2, 165385, Note_on_c, 0, 28, 99
2, 165404, Control_c, 0, 64, 127
2, 165647, Note_on_c, 0, 76, 101
2, 165649, Note_on_c, 0, 28, 0
2, 165649, Note_on_c, 0, 40, 0
2, 165651, Note_on_c, 0, 64, 94
2, 165653, Note_on_c, 0, 40, 75
2, 165655, Note_on_c, 0, 28, 89
2, 165701, Note_on_c, 0, 28, 0
2, 165706, Note_on_c, 0, 40, 0
2, 165710, Note_on_c, 0, 64, 0
2, 165711, Note_on_c, 0, 81, 0
2, 165711, Note_on_c, 0, 69, 0
2, 165713, Control_c, 0, 64, 0
2, 165714, Note_on_c, 0, 76, 0
2, 165719, Note_on_c, 0, 73, 0
2, 165900, Note_on_c, 0, 83, 107
2, 165903, Note_on_c, 0, 71, 99
2, 165941, Note_on_c, 0, 71, 0
2, 165947, Note_on_c, 0, 83, 0
2, 166168, Note_on_c, 0, 81, 103
2, 166174, Note_on_c, 0, 69, 89
2, 166174, Note_on_c, 0, 73, 94
2, 166202, Control_c, 0, 64, 127
2, 166273, Note_on_c, 0, 40, 75
2, 166273, Note_on_c, 0, 28, 85
2, 166422, Note_on_c, 0, 37, 100
2, 166425, Note_on_c, 0, 25, 99
2, 166630, Control_c, 0, 64, 0
2, 166634, Note_on_c, 0, 73, 0
2, 166648, Note_on_c, 0, 28, 0
2, 166663, Control_c, 0, 64, 127
2, 166671, Note_on_c, 0, 69, 0
2, 166671, Note_on_c, 0, 81, 0
2, 166675, Note_on_c, 0, 81, 104
2, 166678, Note_on_c, 0, 69, 98
2, 166702, Note_on_c, 0, 40, 0
2, 166717, Note_on_c, 0, 25, 0
2, 166938, Note_on_c, 0, 83, 107
2, 166941, Note_on_c, 0, 71, 97
2, 167040, Note_on_c, 0, 69, 0
2, 167205, Note_on_c, 0, 85, 106
2, 167211, Note_on_c, 0, 76, 96
2, 167213, Note_on_c, 0, 73, 95
2, 167322, Note_on_c, 0, 69, 94
2, 167323, Note_on_c, 0, 59, 84
2, 167332, Note_on_c, 0, 64, 75
2, 167342, Note_on_c, 0, 61, 84
2, 167592, Note_on_c, 0, 76, 0
2, 167598, Note_on_c, 0, 76, 86
2, 167708, Note_on_c, 0, 81, 0
2, 167708, Note_on_c, 0, 83, 0
2, 167714, Note_on_c, 0, 83, 101
2, 167718, Note_on_c, 0, 81, 81
2, 167734, Note_on_c, 0, 49, 87
2, 167837, Note_on_c, 0, 88, 87
2, 167938, Note_on_c, 0, 69, 0
2, 167949, Note_on_c, 0, 69, 73
2, 167950, Note_on_c, 0, 40, 75
2, 167955, Note_on_c, 0, 100, 103
2, 167956, Note_on_c, 0, 52, 78
2, 167957, Note_on_c, 0, 93, 91
2, 168084, Note_on_c, 0, 49, 0
2, 168088, Note_on_c, 0, 49, 89
2, 168199, Note_on_c, 0, 37, 0
2, 168199, Note_on_c, 0, 64, 0
2, 168199, Note_on_c, 0, 76, 0
2, 168207, Note_on_c, 0, 69, 0
2, 168209, Note_on_c, 0, 76, 110
2, 168210, Note_on_c, 0, 37, 86
2, 168210, Note_on_c, 0, 64, 98
2, 168215, Note_on_c, 0, 69, 71
2, 168330, Note_on_c, 0, 45, 72
2, 168445, Note_on_c, 0, 40, 0
2, 168446, Note_on_c, 0, 37, 0
2, 168446, Note_on_c, 0, 93, 0
2, 168447, Note_on_c, 0, 100, 0
2, 168447, Note_on_c, 0, 52, 0
2, 168447, Note_on_c, 0, 73, 0
2, 168448, Note_on_c, 0, 45, 0
2, 168448, Note_on_c, 0, 61, 0
2, 168448, Note_on_c, 0, 85, 0
2, 168448, Note_on_c, 0, 71, 0
2, 168448, Note_on_c, 0, 59, 0
2, 168448, Note_on_c, 0, 81, 0
2, 168448, Note_on_c, 0, 83, 0
2, 168449, Note_on_c, 0, 76, 0
2, 168449, Control_c, 0, 64, 0
2, 168449, Note_on_c, 0, 88, 0
2, 168460, Note_on_c, 0, 49, 0
2, 168460, Note_on_c, 0, 64, 0
2, 168464, Note_on_c, 0, 78, 110
2, 168468, Note_on_c, 0, 69, 0
2, 168472, Note_on_c, 0, 66, 104
2, 168473, Note_on_c, 0, 69, 96
2, 168478, Note_on_c, 0, 38, 95
2, 168480, Note_on_c, 0, 26, 92
2, 168537, Control_c, 0, 64, 127
2, 168736, Note_on_c, 0, 64, 89
2, 168737, Note_on_c, 0, 76, 97
2, 168737, Note_on_c, 0, 26, 0
2, 168737, Note_on_c, 0, 38, 0
2, 168737, Note_on_c, 0, 69, 0
2, 168741, Note_on_c, 0, 38, 80
2, 168741, Note_on_c, 0, 69, 77
2, 168742, Note_on_c, 0, 26, 83
2, 168848, Note_on_c, 0, 64, 0
2, 168848, Note_on_c, 0, 69, 0
2, 168848, Note_on_c, 0, 66, 0
2, 168848, Note_on_c, 0, 78, 0
2, 168848, Note_on_c, 0, 76, 0
2, 168851, Control_c, 0, 64, 0
2, 168860, Note_on_c, 0, 26, 0
2, 168867, Note_on_c, 0, 38, 0
2, 169000, Note_on_c, 0, 83, 106
2, 169002, Note_on_c, 0, 71, 98
2, 169040, Note_on_c, 0, 71, 0
2, 169045, Note_on_c, 0, 83, 0
2, 169264, Note_on_c, 0, 81, 104
2, 169270, Note_on_c, 0, 73, 96
2, 169270, Note_on_c, 0, 69, 91
2, 169380, Note_on_c, 0, 26, 85
2, 169380, Note_on_c, 0, 38, 86
2, 169413, Control_c, 0, 64, 127
2, 169522, Note_on_c, 0, 40, 92
2, 169523, Note_on_c, 0, 28, 97
2, 169543, Note_on_c, 0, 38, 0
2, 169772, Note_on_c, 0, 76, 104
2, 169777, Note_on_c, 0, 64, 90
2, 169781, Note_on_c, 0, 26, 0
2, 169781, Note_on_c, 0, 28, 0
2, 169791, Note_on_c, 0, 28, 82
2, 169894, Note_on_c, 0, 28, 0
2, 169899, Note_on_c, 0, 40, 0
2, 169900, Control_c, 0, 64, 0
2, 169900, Note_on_c, 0, 64, 0
2, 169900, Note_on_c, 0, 73, 0
2, 169901, Note_on_c, 0, 81, 0
2, 169901, Note_on_c, 0, 76, 0
2, 169904, Note_on_c, 0, 69, 0
2, 170038, Note_on_c, 0, 83, 104
2, 170041, Note_on_c, 0, 71, 93
2, 170077, Note_on_c, 0, 71, 0
2, 170084, Note_on_c, 0, 83, 0
2, 170300, Note_on_c, 0, 81, 103
2, 170308, Note_on_c, 0, 69, 91
2, 170312, Note_on_c, 0, 73, 93
2, 170373, Control_c, 0, 64, 127
2, 170423, Note_on_c, 0, 28, 87
2, 170424, Note_on_c, 0, 40, 76
2, 170575, Note_on_c, 0, 42, 95
2, 170575, Note_on_c, 0, 30, 93
2, 170626, Note_on_c, 0, 69, 0
2, 170631, Note_on_c, 0, 73, 0
2, 170634, Control_c, 0, 64, 0
2, 170634, Note_on_c, 0, 40, 0
2, 170635, Note_on_c, 0, 81, 0
2, 170657, Note_on_c, 0, 28, 0
2, 170780, Control_c, 0, 64, 127
2, 170828, Note_on_c, 0, 81, 99
2, 170833, Note_on_c, 0, 69, 92
2, 170835, Note_on_c, 0, 73, 91
2, 171064, Note_on_c, 0, 30, 0
2, 171078, Note_on_c, 0, 80, 104
2, 171083, Note_on_c, 0, 64, 82
2, 171084, Note_on_c, 0, 68, 94
2, 171087, Note_on_c, 0, 69, 0
2, 171087, Note_on_c, 0, 57, 73
2, 171088, Note_on_c, 0, 61, 83
2, 171091, Note_on_c, 0, 69, 82
2, 171156, Note_on_c, 0, 42, 0
2, 171354, Note_on_c, 0, 76, 98
2, 171471, Note_on_c, 0, 64, 0
2, 171479, Note_on_c, 0, 57, 0
2, 171479, Note_on_c, 0, 61, 0
2, 171479, Note_on_c, 0, 69, 0
2, 171481, Note_on_c, 0, 64, 85
2, 171483, Note_on_c, 0, 69, 80
2, 171483, Note_on_c, 0, 57, 73
2, 171484, Note_on_c, 0, 61, 82
2, 171596, Note_on_c, 0, 88, 96
2, 171659, Note_on_c, 0, 83, 90
2, 171701, Note_on_c, 0, 81, 0
2, 171711, Note_on_c, 0, 81, 82
2, 171778, Note_on_c, 0, 80, 0
2, 171786, Note_on_c, 0, 80, 77
2, 171809, Note_on_c, 0, 76, 0
2, 171819, Note_on_c, 0, 76, 83
2, 171861, Note_on_c, 0, 42, 70
2, 171862, Note_on_c, 0, 30, 59
2, 171926, Note_on_c, 0, 71, 73
2, 171970, Note_on_c, 0, 69, 0
2, 171975, Note_on_c, 0, 69, 76
2, 172055, Note_on_c, 0, 68, 0
2, 172061, Note_on_c, 0, 68, 80
2, 172093, Note_on_c, 0, 64, 0
2, 172098, Note_on_c, 0, 64, 86
2, 172116, Note_on_c, 0, 57, 0
2, 172127, Note_on_c, 0, 57, 72
2, 172250, Note_on_c, 0, 52, 80
2, 172354, Note_on_c, 0, 64, 0
2, 172354, Note_on_c, 0, 76, 0
2, 172358, Note_on_c, 0, 76, 106
2, 172364, Note_on_c, 0, 49, 86
2, 172364, Note_on_c, 0, 64, 91
2, 172462, Note_on_c, 0, 30, 0
2, 172462, Note_on_c, 0, 42, 0
2, 172471, Note_on_c, 0, 42, 77
2, 172472, Note_on_c, 0, 30, 75
2, 172589, Control_c, 0, 64, 0
2, 172590, Note_on_c, 0, 68, 0
2, 172590, Note_on_c, 0, 73, 0
2, 172590, Note_on_c, 0, 52, 0
2, 172590, Note_on_c, 0, 80, 0
2, 172591, Note_on_c, 0, 30, 0
2, 172591, Note_on_c, 0, 61, 0
2, 172591, Note_on_c, 0, 42, 0
2, 172592, Note_on_c, 0, 81, 0
2, 172592, Note_on_c, 0, 57, 0
2, 172593, Note_on_c, 0, 83, 0
2, 172593, Note_on_c, 0, 71, 0
2, 172593, Note_on_c, 0, 76, 0
2, 172594, Note_on_c, 0, 88, 0
2, 172600, Note_on_c, 0, 49, 0
2, 172608, Note_on_c, 0, 64, 0
2, 172608, Note_on_c, 0, 69, 0
2, 172610, Note_on_c, 0, 78, 108
2, 172618, Note_on_c, 0, 69, 99
2, 172622, Note_on_c, 0, 66, 103
2, 172628, Note_on_c, 0, 38, 92
2, 172634, Note_on_c, 0, 26, 94
2, 172684, Note_on_c, 0, 69, 0
2, 172684, Control_c, 0, 64, 127
2, 172876, Note_on_c, 0, 38, 0
2, 172881, Note_on_c, 0, 76, 102
2, 172884, Note_on_c, 0, 38, 77
2, 172888, Note_on_c, 0, 64, 90
2, 172976, Note_on_c, 0, 66, 0
2, 172983, Note_on_c, 0, 64, 0
2, 172983, Note_on_c, 0, 76, 0
2, 172985, Note_on_c, 0, 78, 0
2, 172986, Control_c, 0, 64, 0
2, 172992, Note_on_c, 0, 26, 0
2, 173007, Note_on_c, 0, 38, 0
2, 173142, Note_on_c, 0, 83, 103
2, 173147, Note_on_c, 0, 71, 95
2, 173180, Note_on_c, 0, 71, 0
2, 173187, Note_on_c, 0, 83, 0
2, 173402, Note_on_c, 0, 81, 106
2, 173407, Note_on_c, 0, 69, 98
2, 173410, Note_on_c, 0, 73, 96
2, 173519, Note_on_c, 0, 38, 85
2, 173520, Note_on_c, 0, 26, 82
2, 173537, Control_c, 0, 64, 127
2, 173614, Note_on_c, 0, 26, 0
2, 173637, Note_on_c, 0, 38, 0
2, 173656, Note_on_c, 0, 40, 87
2, 173656, Note_on_c, 0, 28, 93
2, 173913, Note_on_c, 0, 40, 0
2, 173917, Note_on_c, 0, 76, 100
2, 173919, Note_on_c, 0, 64, 91
2, 173921, Note_on_c, 0, 28, 0
2, 173924, Note_on_c, 0, 40, 80
2, 173925, Note_on_c, 0, 28, 88
2, 174028, Note_on_c, 0, 28, 0
2, 174032, Note_on_c, 0, 40, 0
2, 174032, Control_c, 0, 64, 0
2, 174032, Note_on_c, 0, 64, 0
2, 174033, Note_on_c, 0, 69, 0
2, 174033, Note_on_c, 0, 76, 0
2, 174036, Note_on_c, 0, 73, 0
2, 174036, Note_on_c, 0, 81, 0
2, 174172, Note_on_c, 0, 83, 105
2, 174175, Note_on_c, 0, 71, 97
2, 174209, Note_on_c, 0, 71, 0
2, 174217, Note_on_c, 0, 83, 0
2, 174439, Note_on_c, 0, 81, 104
2, 174446, Note_on_c, 0, 69, 91
2, 174446, Note_on_c, 0, 73, 95
2, 174504, Control_c, 0, 64, 127
2, 174561, Note_on_c, 0, 28, 82
2, 174562, Note_on_c, 0, 40, 69
2, 174707, Note_on_c, 0, 37, 97
2, 174708, Note_on_c, 0, 25, 95
2, 174871, Note_on_c, 0, 40, 0
2, 174872, Note_on_c, 0, 69, 0
2, 174874, Note_on_c, 0, 81, 0
2, 174874, Note_on_c, 0, 73, 0
2, 174878, Control_c, 0, 64, 0
2, 174888, Note_on_c, 0, 28, 0
2, 174958, Note_on_c, 0, 37, 0
2, 174958, Control_c, 0, 64, 127
2, 174968, Note_on_c, 0, 37, 79
2, 174969, Note_on_c, 0, 81, 99
2, 174974, Note_on_c, 0, 69, 95
2, 175224, Note_on_c, 0, 83, 106
2, 175228, Note_on_c, 0, 71, 97
2, 175260, Note_on_c, 0, 49, 56
2, 175476, Note_on_c, 0, 85, 103
2, 175477, Note_on_c, 0, 76, 94
2, 175484, Note_on_c, 0, 73, 93
2, 175603, Note_on_c, 0, 69, 0
2, 175610, Note_on_c, 0, 69, 96
2, 175617, Note_on_c, 0, 59, 85
2, 175618, Note_on_c, 0, 64, 67
2, 175621, Note_on_c, 0, 61, 82
2, 175902, Note_on_c, 0, 76, 0
2, 175907, Note_on_c, 0, 76, 78
2, 176002, Note_on_c, 0, 81, 0
2, 176002, Note_on_c, 0, 83, 0
2, 176010, Note_on_c, 0, 49, 0
2, 176013, Note_on_c, 0, 83, 92
2, 176013, Note_on_c, 0, 81, 77
2, 176021, Note_on_c, 0, 49, 73
2, 176129, Note_on_c, 0, 88, 83
2, 176209, Note_on_c, 0, 59, 0
2, 176217, Note_on_c, 0, 25, 0
2, 176221, Note_on_c, 0, 59, 82
2, 176239, Note_on_c, 0, 45, 69
2, 176239, Note_on_c, 0, 93, 84
2, 176242, Note_on_c, 0, 52, 71
2, 176244, Note_on_c, 0, 100, 98
2, 176378, Note_on_c, 0, 49, 0
2, 176384, Note_on_c, 0, 49, 78
2, 176501, Note_on_c, 0, 37, 0
2, 176501, Note_on_c, 0, 49, 0
2, 176506, Note_on_c, 0, 37, 65
2, 176508, Note_on_c, 0, 49, 64
2, 176609, Note_on_c, 0, 45, 0
2, 176609, Note_on_c, 0, 49, 0
2, 176617, Note_on_c, 0, 45, 79
2, 176619, Note_on_c, 0, 49, 56
2, 176736, Note_on_c, 0, 73, 0
2, 176736, Note_on_c, 0, 93, 0
2, 176736, Note_on_c, 0, 52, 0
2, 176736, Note_on_c, 0, 83, 0
2, 176736, Note_on_c, 0, 100, 0
2, 176737, Note_on_c, 0, 76, 0
2, 176737, Note_on_c, 0, 49, 0
2, 176737, Control_c, 0, 64, 0
2, 176737, Note_on_c, 0, 85, 0
2, 176737, Note_on_c, 0, 88, 0
2, 176738, Note_on_c, 0, 64, 0
2, 176739, Note_on_c, 0, 61, 0
2, 176739, Note_on_c, 0, 59, 0
2, 176747, Note_on_c, 0, 37, 0
2, 176747, Note_on_c, 0, 81, 0
2, 176755, Note_on_c, 0, 45, 0
2, 176755, Note_on_c, 0, 69, 0
2, 176755, Note_on_c, 0, 71, 0
2, 176760, Note_on_c, 0, 47, 85
2, 176765, Note_on_c, 0, 71, 77
2, 176765, Note_on_c, 0, 69, 67
2, 176765, Note_on_c, 0, 35, 76
2, 176893, Control_c, 0, 64, 127
2, 177026, Note_on_c, 0, 76, 86
2, 177070, Note_on_c, 0, 35, 0
2, 177285, Note_on_c, 0, 76, 0
2, 177292, Note_on_c, 0, 69, 0
2, 177294, Note_on_c, 0, 76, 86
2, 177297, Note_on_c, 0, 66, 71
2, 177298, Note_on_c, 0, 69, 75
2, 177298, Note_on_c, 0, 57, 72
2, 177301, Note_on_c, 0, 54, 66
2, 177546, Note_on_c, 0, 47, 0
2, 177546, Note_on_c, 0, 76, 0
2, 177553, Note_on_c, 0, 69, 0
2, 177556, Note_on_c, 0, 76, 83
2, 177557, Note_on_c, 0, 47, 64
2, 177558, Note_on_c, 0, 69, 63
2, 177799, Note_on_c, 0, 76, 0
2, 177807, Note_on_c, 0, 69, 0
2, 177810, Note_on_c, 0, 76, 89
2, 177815, Note_on_c, 0, 47, 0
2, 177815, Note_on_c, 0, 54, 0
2, 177815, Note_on_c, 0, 57, 0
2, 177815, Note_on_c, 0, 66, 0
2, 177818, Note_on_c, 0, 69, 83
2, 177821, Note_on_c, 0, 66, 77
2, 177822, Note_on_c, 0, 54, 74
2, 177822, Note_on_c, 0, 71, 0
2, 177825, Note_on_c, 0, 57, 74
2, 177825, Note_on_c, 0, 47, 60
2, 178071, Note_on_c, 0, 74, 87
2, 178076, Note_on_c, 0, 47, 0
2, 178076, Note_on_c, 0, 54, 0
2, 178082, Note_on_c, 0, 71, 66
2, 178083, Note_on_c, 0, 57, 0
2, 178085, Note_on_c, 0, 54, 60
2, 178085, Note_on_c, 0, 47, 70
2, 178093, Note_on_c, 0, 57, 62
2, 178183, Note_on_c, 0, 69, 0
2, 178183, Note_on_c, 0, 76, 0
2, 178189, Note_on_c, 0, 76, 98
2, 178193, Note_on_c, 0, 69, 73
2, 178321, Note_on_c, 0, 54, 0
2, 178321, Note_on_c, 0, 57, 0
2, 178327, Note_on_c, 0, 57, 69
2, 178327, Note_on_c, 0, 54, 70
2, 178352, Note_on_c, 0, 69, 0
2, 178360, Note_on_c, 0, 66, 0
2, 178361, Note_on_c, 0, 69, 80
2, 178365, Note_on_c, 0, 66, 71
2, 178575, Note_on_c, 0, 47, 0
2, 178582, Note_on_c, 0, 47, 70
2, 178582, Note_on_c, 0, 78, 101
2, 178583, Note_on_c, 0, 69, 0
2, 178591, Note_on_c, 0, 69, 64
2, 178809, Control_c, 0, 64, 0
2, 178809, Note_on_c, 0, 47, 0
2, 178809, Note_on_c, 0, 74, 0
2, 178809, Note_on_c, 0, 69, 0
2, 178809, Note_on_c, 0, 66, 0
2, 178809, Note_on_c, 0, 76, 0
2, 178809, Note_on_c, 0, 71, 0
2, 178828, Note_on_c, 0, 54, 0
2, 178828, Note_on_c, 0, 57, 0
2, 178836, Note_on_c, 0, 78, 0
2, 178847, Note_on_c, 0, 78, 105
2, 178853, Note_on_c, 0, 49, 85
2, 178854, Note_on_c, 0, 66, 87
2, 178855, Note_on_c, 0, 37, 78
2, 178855, Note_on_c, 0, 68, 89
2, 178856, Note_on_c, 0, 73, 88
2, 178903, Note_on_c, 0, 37, 0
2, 178920, Note_on_c, 0, 49, 0
2, 178944, Control_c, 0, 64, 127
2, 179108, Note_on_c, 0, 54, 71
2, 179108, Note_on_c, 0, 61, 73
2, 179115, Note_on_c, 0, 56, 57
2, 179131, Note_on_c, 0, 49, 55
2, 179358, Note_on_c, 0, 56, 0
2, 179366, Note_on_c, 0, 54, 0
2, 179366, Note_on_c, 0, 61, 0
2, 179370, Note_on_c, 0, 56, 75
2, 179370, Note_on_c, 0, 61, 76
2, 179374, Note_on_c, 0, 49, 0
2, 179376, Note_on_c, 0, 54, 73
2, 179383, Note_on_c, 0, 49, 59
2, 179624, Note_on_c, 0, 80, 100
2, 179627, Note_on_c, 0, 54, 0
2, 179627, Note_on_c, 0, 56, 0
2, 179627, Note_on_c, 0, 61, 0
2, 179627, Note_on_c, 0, 68, 0
2, 179632, Note_on_c, 0, 68, 85
2, 179633, Note_on_c, 0, 54, 71
2, 179635, Note_on_c, 0, 49, 0
2, 179637, Note_on_c, 0, 56, 78
2, 179638, Note_on_c, 0, 61, 74
2, 179640, Note_on_c, 0, 49, 68
2, 179873, Note_on_c, 0, 68, 0
2, 179873, Note_on_c, 0, 73, 0
2, 179873, Note_on_c, 0, 80, 0
2, 179877, Note_on_c, 0, 80, 99
2, 179878, Note_on_c, 0, 68, 94
2, 179879, Note_on_c, 0, 73, 92
2, 179880, Note_on_c, 0, 61, 0
2, 179884, Note_on_c, 0, 77, 88
2, 179888, Note_on_c, 0, 61, 86
2, 179888, Note_on_c, 0, 49, 0
2, 179892, Note_on_c, 0, 53, 84
2, 179897, Note_on_c, 0, 49, 75
2, 179922, Note_on_c, 0, 54, 0
2, 179923, Note_on_c, 0, 56, 0
2, 179925, Note_on_c, 0, 78, 0
2, 179927, Note_on_c, 0, 66, 0
2, 179988, Note_on_c, 0, 61, 0
2, 180026, Note_on_c, 0, 73, 0
2, 180037, Note_on_c, 0, 73, 82
2, 180134, Note_on_c, 0, 49, 0
2, 180134, Note_on_c, 0, 77, 0
2, 180134, Note_on_c, 0, 80, 0
2, 180138, Note_on_c, 0, 49, 76
2, 180139, Note_on_c, 0, 77, 88
2, 180141, Note_on_c, 0, 80, 98
2, 180247, Note_on_c, 0, 85, 95
2, 180276, Note_on_c, 0, 44, 69
2, 180372, Note_on_c, 0, 85, 0
2, 180377, Note_on_c, 0, 97, 101
2, 180381, Note_on_c, 0, 92, 98
2, 180383, Note_on_c, 0, 85, 87
2, 180384, Note_on_c, 0, 89, 75
2, 180391, Note_on_c, 0, 37, 89
2, 180503, Note_on_c, 0, 44, 0
2, 180514, Note_on_c, 0, 44, 74
2, 180625, Note_on_c, 0, 49, 0
2, 180629, Note_on_c, 0, 88, 101
2, 180630, Note_on_c, 0, 49, 82
2, 180632, Note_on_c, 0, 76, 103
2, 180771, Note_on_c, 0, 44, 0
2, 180777, Note_on_c, 0, 44, 68
2, 180780, Note_on_c, 0, 32, 65
2, 180787, Note_on_c, 0, 32, 0
2, 180826, Note_on_c, 0, 85, 0
2, 180826, Note_on_c, 0, 89, 0
2, 180827, Note_on_c, 0, 73, 0
2, 180827, Note_on_c, 0, 97, 0
2, 180827, Note_on_c, 0, 68, 0
2, 180827, Note_on_c, 0, 92, 0
2, 180827, Note_on_c, 0, 80, 0
2, 180827, Note_on_c, 0, 49, 0
2, 180827, Note_on_c, 0, 44, 0
2, 180828, Control_c, 0, 64, 0
2, 180828, Note_on_c, 0, 77, 0
2, 180828, Note_on_c, 0, 88, 0
2, 180828, Note_on_c, 0, 76, 0
2, 180840, Note_on_c, 0, 53, 0
2, 180848, Note_on_c, 0, 37, 0
2, 180884, Note_on_c, 0, 90, 102
2, 180890, Note_on_c, 0, 78, 97
2, 180891, Note_on_c, 0, 50, 98
2, 180895, Note_on_c, 0, 81, 84
2, 180897, Note_on_c, 0, 38, 97
2, 180906, Note_on_c, 0, 80, 65
2, 180963, Control_c, 0, 64, 127
2, 181041, Note_on_c, 0, 76, 86
2, 181140, Note_on_c, 0, 38, 0
2, 181147, Note_on_c, 0, 38, 78
2, 181148, Note_on_c, 0, 81, 0
2, 181151, Note_on_c, 0, 88, 96
2, 181158, Note_on_c, 0, 81, 77
2, 181248, Note_on_c, 0, 76, 0
2, 181258, Note_on_c, 0, 76, 84
2, 181386, Note_on_c, 0, 50, 0
2, 181393, Note_on_c, 0, 88, 0
2, 181396, Note_on_c, 0, 64, 89
2, 181397, Note_on_c, 0, 50, 84
2, 181398, Note_on_c, 0, 95, 103
2, 181400, Note_on_c, 0, 54, 85
2, 181401, Note_on_c, 0, 88, 86
2, 181402, Note_on_c, 0, 83, 108
2, 181403, Note_on_c, 0, 57, 81
2, 181516, Note_on_c, 0, 76, 0
2, 181527, Note_on_c, 0, 76, 82
2, 181535, Note_on_c, 0, 77, 68
2, 181632, Note_on_c, 0, 81, 0
2, 181636, Note_on_c, 0, 93, 106
2, 181637, Note_on_c, 0, 81, 107
2, 181762, Note_on_c, 0, 38, 0
2, 181762, Note_on_c, 0, 50, 0
2, 181762, Note_on_c, 0, 76, 0
2, 181768, Note_on_c, 0, 38, 82
2, 181770, Note_on_c, 0, 50, 81
2, 181773, Note_on_c, 0, 76, 77
2, 181874, Note_on_c, 0, 83, 0
2, 181874, Note_on_c, 0, 90, 0
2, 181874, Note_on_c, 0, 81, 0
2, 181874, Note_on_c, 0, 95, 0
2, 181874, Note_on_c, 0, 93, 0
2, 181875, Note_on_c, 0, 54, 0
2, 181875, Note_on_c, 0, 50, 0
2, 181875, Note_on_c, 0, 57, 0
2, 181875, Note_on_c, 0, 64, 0
2, 181875, Note_on_c, 0, 88, 0
2, 181875, Note_on_c, 0, 38, 0
2, 181875, Note_on_c, 0, 76, 0
2, 181876, Note_on_c, 0, 78, 0
2, 181877, Control_c, 0, 64, 0
2, 181877, Note_on_c, 0, 77, 0
2, 181885, Note_on_c, 0, 80, 0
2, 181904, Note_on_c, 0, 52, 99
2, 181904, Note_on_c, 0, 40, 91
2, 181977, Control_c, 0, 64, 127
2, 182025, Note_on_c, 0, 76, 99
2, 182154, Note_on_c, 0, 40, 0
2, 182159, Note_on_c, 0, 40, 81
2, 182160, Note_on_c, 0, 81, 97
2, 182161, Note_on_c, 0, 88, 103
2, 182261, Note_on_c, 0, 76, 0
2, 182272, Note_on_c, 0, 76, 86
2, 182410, Note_on_c, 0, 95, 104
2, 182415, Note_on_c, 0, 64, 90
2, 182420, Note_on_c, 0, 83, 88
2, 182420, Note_on_c, 0, 59, 89
2, 182422, Note_on_c, 0, 57, 84
2, 182538, Note_on_c, 0, 76, 0
2, 182543, Note_on_c, 0, 76, 95
2, 182653, Note_on_c, 0, 81, 0
2, 182657, Note_on_c, 0, 93, 104
2, 182659, Note_on_c, 0, 81, 101
2, 182784, Note_on_c, 0, 76, 0
2, 182791, Note_on_c, 0, 40, 0
2, 182791, Note_on_c, 0, 52, 0
2, 182795, Note_on_c, 0, 76, 86
2, 182795, Note_on_c, 0, 40, 83
2, 182796, Note_on_c, 0, 52, 79
2, 182884, Note_on_c, 0, 52, 0
2, 182884, Note_on_c, 0, 95, 0
2, 182885, Note_on_c, 0, 83, 0
2, 182885, Note_on_c, 0, 93, 0
2, 182885, Note_on_c, 0, 40, 0
2, 182885, Note_on_c, 0, 81, 0
2, 182886, Note_on_c, 0, 64, 0
2, 182886, Note_on_c, 0, 59, 0
2, 182886, Control_c, 0, 64, 0
2, 182886, Note_on_c, 0, 57, 0
2, 182887, Note_on_c, 0, 76, 0
2, 182906, Note_on_c, 0, 88, 0
2, 182923, Note_on_c, 0, 49, 96
2, 182924, Note_on_c, 0, 37, 93
2, 182999, Control_c, 0, 64, 127
2, 183039, Note_on_c, 0, 76, 92
2, 183042, Note_on_c, 0, 88, 72
2, 183163, Note_on_c, 0, 93, 108
2, 183163, Note_on_c, 0, 81, 102
2, 183283, Note_on_c, 0, 76, 0
2, 183293, Note_on_c, 0, 76, 92
2, 183410, Note_on_c, 0, 64, 85
2, 183413, Note_on_c, 0, 88, 0
2, 183416, Note_on_c, 0, 52, 74
2, 183417, Note_on_c, 0, 95, 99
2, 183417, Note_on_c, 0, 83, 106
2, 183418, Note_on_c, 0, 59, 80
2, 183418, Note_on_c, 0, 57, 84
2, 183422, Note_on_c, 0, 88, 83
2, 183429, Note_on_c, 0, 37, 0
2, 183544, Note_on_c, 0, 76, 0
2, 183549, Note_on_c, 0, 76, 70
2, 183667, Note_on_c, 0, 88, 0
2, 183671, Note_on_c, 0, 97, 101
2, 183673, Note_on_c, 0, 85, 105
2, 183678, Note_on_c, 0, 88, 92
2, 183782, Note_on_c, 0, 59, 0
2, 183790, Note_on_c, 0, 57, 0
2, 183792, Note_on_c, 0, 59, 81
2, 183794, Note_on_c, 0, 57, 68
2, 183797, Note_on_c, 0, 52, 0
2, 183804, Note_on_c, 0, 52, 69
2, 183920, Note_on_c, 0, 49, 0
2, 183925, Note_on_c, 0, 49, 76
2, 183997, Note_on_c, 0, 52, 0
2, 184002, Note_on_c, 0, 52, 69
2, 184043, Note_on_c, 0, 57, 0
2, 184054, Note_on_c, 0, 57, 74
2, 184112, Note_on_c, 0, 59, 0
2, 184122, Note_on_c, 0, 59, 68
2, 184158, Note_on_c, 0, 64, 0
2, 184169, Note_on_c, 0, 64, 72
2, 184232, Note_on_c, 0, 69, 81
2, 184314, Note_on_c, 0, 71, 80
2, 184359, Note_on_c, 0, 73, 79
2, 184427, Note_on_c, 0, 64, 0
2, 184427, Note_on_c, 0, 76, 0
2, 184435, Note_on_c, 0, 59, 0
2, 184435, Note_on_c, 0, 76, 104
2, 184437, Note_on_c, 0, 64, 82
2, 184440, Note_on_c, 0, 59, 85
2, 184550, Note_on_c, 0, 57, 0
2, 184559, Note_on_c, 0, 57, 73
2, 184688, Note_on_c, 0, 49, 0
2, 184688, Note_on_c, 0, 76, 0
2, 184688, Note_on_c, 0, 88, 0
2, 184697, Note_on_c, 0, 88, 106
2, 184699, Note_on_c, 0, 76, 100
2, 184700, Note_on_c, 0, 49, 81
2, 184803, Note_on_c, 0, 52, 0
2, 184812, Note_on_c, 0, 52, 69
2, 184896, Note_on_c, 0, 93, 0
2, 184896, Note_on_c, 0, 85, 0
2, 184896, Note_on_c, 0, 69, 0
2, 184897, Note_on_c, 0, 73, 0
2, 184897, Control_c, 0, 64, 0
2, 184897, Note_on_c, 0, 81, 0
2, 184897, Note_on_c, 0, 83, 0
2, 184897, Note_on_c, 0, 95, 0
2, 184897, Note_on_c, 0, 59, 0
2, 184897, Note_on_c, 0, 88, 0
2, 184897, Note_on_c, 0, 71, 0
2, 184898, Note_on_c, 0, 57, 0
2, 184911, Note_on_c, 0, 49, 0
2, 184911, Note_on_c, 0, 64, 0
2, 184911, Note_on_c, 0, 97, 0
2, 184919, Note_on_c, 0, 52, 0
2, 184919, Note_on_c, 0, 76, 0
2, 184935, Note_on_c, 0, 78, 106
2, 184937, Note_on_c, 0, 90, 100
2, 184939, Note_on_c, 0, 50, 98
2, 184940, Note_on_c, 0, 38, 95
2, 184988, Control_c, 0, 64, 127
2, 185018, Note_on_c, 0, 50, 0
2, 185072, Note_on_c, 0, 76, 91
2, 185187, Note_on_c, 0, 38, 0
2, 185197, Note_on_c, 0, 38, 79
2, 185198, Note_on_c, 0, 81, 98
2, 185200, Note_on_c, 0, 88, 102
2, 185303, Note_on_c, 0, 76, 0
2, 185308, Note_on_c, 0, 76, 91
2, 185446, Note_on_c, 0, 64, 92
2, 185451, Note_on_c, 0, 95, 105
2, 185452, Note_on_c, 0, 57, 86
2, 185453, Note_on_c, 0, 54, 85
2, 185453, Note_on_c, 0, 83, 105
2, 185564, Note_on_c, 0, 76, 0
2, 185571, Note_on_c, 0, 76, 93
2, 185687, Note_on_c, 0, 81, 0
2, 185691, Note_on_c, 0, 93, 104
2, 185692, Note_on_c, 0, 81, 104
2, 185817, Note_on_c, 0, 38, 0
2, 185817, Note_on_c, 0, 76, 0
2, 185821, Note_on_c, 0, 38, 78
2, 185821, Note_on_c, 0, 50, 76
2, 185823, Note_on_c, 0, 76, 85
2, 185926, Note_on_c, 0, 83, 0
2, 185926, Note_on_c, 0, 95, 0
2, 185927, Note_on_c, 0, 54, 0
2, 185927, Note_on_c, 0, 90, 0
2, 185927, Note_on_c, 0, 57, 0
2, 185927, Note_on_c, 0, 81, 0
2, 185927, Note_on_c, 0, 50, 0
2, 185927, Note_on_c, 0, 76, 0
2, 185927, Note_on_c, 0, 64, 0
2, 185928, Note_on_c, 0, 78, 0
2, 185928, Control_c, 0, 64, 0
2, 185928, Note_on_c, 0, 38, 0
2, 185940, Note_on_c, 0, 93, 0
2, 185955, Note_on_c, 0, 88, 0
2, 185957, Note_on_c, 0, 52, 97
2, 185959, Note_on_c, 0, 40, 87
2, 186009, Control_c, 0, 64, 127
2, 186084, Note_on_c, 0, 76, 96
2, 186201, Note_on_c, 0, 40, 0
2, 186201, Note_on_c, 0, 52, 0
2, 186206, Note_on_c, 0, 52, 76
2, 186206, Note_on_c, 0, 88, 107
2, 186207, Note_on_c, 0, 40, 74
2, 186208, Note_on_c, 0, 81, 99
2, 186316, Note_on_c, 0, 76, 0
2, 186322, Note_on_c, 0, 76, 88
2, 186451, Note_on_c, 0, 64, 92
2, 186451, Note_on_c, 0, 69, 84
2, 186453, Note_on_c, 0, 95, 106
2, 186457, Note_on_c, 0, 83, 106
2, 186458, Note_on_c, 0, 59, 89
2, 186461, Note_on_c, 0, 57, 87
2, 186494, Note_on_c, 0, 81, 0
2, 186495, Note_on_c, 0, 88, 0
2, 186577, Note_on_c, 0, 76, 0
2, 186585, Note_on_c, 0, 76, 95
2, 186616, Note_on_c, 0, 40, 0
2, 186698, Note_on_c, 0, 93, 97
2, 186698, Note_on_c, 0, 81, 101
2, 186816, Note_on_c, 0, 52, 0
2, 186826, Note_on_c, 0, 52, 72
2, 186827, Note_on_c, 0, 40, 74
2, 186831, Note_on_c, 0, 76, 0
2, 186837, Note_on_c, 0, 76, 82
2, 186838, Note_on_c, 0, 88, 70
2, 186917, Note_on_c, 0, 81, 0
2, 186917, Note_on_c, 0, 59, 0
2, 186918, Note_on_c, 0, 95, 0
2, 186918, Note_on_c, 0, 93, 0
2, 186918, Note_on_c, 0, 88, 0
2, 186918, Note_on_c, 0, 57, 0
2, 186918, Note_on_c, 0, 64, 0
2, 186918, Note_on_c, 0, 76, 0
2, 186919, Control_c, 0, 64, 0
2, 186923, Note_on_c, 0, 69, 0
2, 186931, Note_on_c, 0, 40, 0
2, 186931, Note_on_c, 0, 83, 0
2, 186938, Note_on_c, 0, 52, 0
2, 186958, Note_on_c, 0, 54, 91
2, 186958, Note_on_c, 0, 42, 89
2, 187031, Control_c, 0, 64, 127
2, 187090, Note_on_c, 0, 76, 87
2, 187192, Note_on_c, 0, 42, 0
2, 187192, Note_on_c, 0, 54, 0
2, 187197, Note_on_c, 0, 42, 80
2, 187198, Note_on_c, 0, 54, 76
2, 187198, Note_on_c, 0, 93, 108
2, 187198, Note_on_c, 0, 81, 101
2, 187338, Note_on_c, 0, 76, 0
2, 187348, Note_on_c, 0, 76, 61
2, 187349, Note_on_c, 0, 77, 56
2, 187441, Note_on_c, 0, 92, 105
2, 187441, Note_on_c, 0, 80, 102
2, 187451, Note_on_c, 0, 69, 85
2, 187454, Note_on_c, 0, 64, 89
2, 187454, Note_on_c, 0, 61, 83
2, 187456, Note_on_c, 0, 57, 73
2, 187576, Note_on_c, 0, 76, 0
2, 187582, Note_on_c, 0, 76, 88
2, 187699, Note_on_c, 0, 76, 0
2, 187699, Note_on_c, 0, 80, 0
2, 187702, Note_on_c, 0, 88, 104
2, 187705, Note_on_c, 0, 80, 92
2, 187709, Note_on_c, 0, 76, 81
2, 187729, Note_on_c, 0, 77, 0
2, 187740, Note_on_c, 0, 77, 45
2, 187822, Note_on_c, 0, 57, 0
2, 187822, Note_on_c, 0, 61, 0
2, 187822, Note_on_c, 0, 64, 0
2, 187826, Note_on_c, 0, 64, 74
2, 187828, Note_on_c, 0, 61, 76
2, 187832, Note_on_c, 0, 57, 67
2, 187964, Note_on_c, 0, 83, 99
2, 188006, Note_on_c, 0, 81, 0
2, 188010, Note_on_c, 0, 81, 74
2, 188075, Note_on_c, 0, 80, 0
2, 188085, Note_on_c, 0, 80, 83
2, 188152, Note_on_c, 0, 76, 0
2, 188160, Note_on_c, 0, 76, 84
2, 188198, Note_on_c, 0, 69, 0
2, 188202, Note_on_c, 0, 69, 86
2, 188238, Note_on_c, 0, 68, 75
2, 188282, Note_on_c, 0, 64, 0
2, 188287, Note_on_c, 0, 64, 72
2, 188332, Note_on_c, 0, 71, 88
2, 188367, Note_on_c, 0, 69, 0
2, 188377, Note_on_c, 0, 69, 81
2, 188413, Note_on_c, 0, 68, 0
2, 188424, Note_on_c, 0, 68, 85
2, 188451, Note_on_c, 0, 64, 0
2, 188458, Note_on_c, 0, 64, 72
2, 188467, Note_on_c, 0, 57, 0
2, 188478, Note_on_c, 0, 57, 60
2, 188532, Note_on_c, 0, 56, 62
2, 188613, Note_on_c, 0, 52, 74
2, 188712, Note_on_c, 0, 88, 0
2, 188720, Note_on_c, 0, 76, 0
2, 188723, Note_on_c, 0, 88, 107
2, 188724, Note_on_c, 0, 49, 91
2, 188725, Note_on_c, 0, 76, 100
2, 188835, Note_on_c, 0, 42, 0
2, 188841, Note_on_c, 0, 42, 83
2, 188925, Note_on_c, 0, 42, 0
2, 188925, Control_c, 0, 64, 0
2, 188925, Note_on_c, 0, 81, 0
2, 188926, Note_on_c, 0, 52, 0
2, 188926, Note_on_c, 0, 80, 0
2, 188926, Note_on_c, 0, 61, 0
2, 188926, Note_on_c, 0, 57, 0
2, 188926, Note_on_c, 0, 56, 0
2, 188927, Note_on_c, 0, 71, 0
2, 188927, Note_on_c, 0, 83, 0
2, 188928, Note_on_c, 0, 93, 0
2, 188928, Note_on_c, 0, 88, 0
2, 188928, Note_on_c, 0, 76, 0
2, 188929, Note_on_c, 0, 49, 0
2, 188935, Note_on_c, 0, 54, 0
2, 188935, Note_on_c, 0, 64, 0
2, 188935, Note_on_c, 0, 68, 0
2, 188935, Note_on_c, 0, 77, 0
2, 188935, Note_on_c, 0, 92, 0
2, 188943, Note_on_c, 0, 69, 0
2, 188968, Note_on_c, 0, 90, 103
2, 188969, Note_on_c, 0, 50, 99
2, 188970, Note_on_c, 0, 81, 94
2, 188970, Note_on_c, 0, 38, 94
2, 188970, Note_on_c, 0, 78, 99
2, 189001, Note_on_c, 0, 80, 45
2, 189027, Control_c, 0, 64, 127
2, 189098, Note_on_c, 0, 76, 93
2, 189227, Note_on_c, 0, 38, 0
2, 189227, Note_on_c, 0, 81, 0
2, 189231, Note_on_c, 0, 88, 102
2, 189231, Note_on_c, 0, 81, 97
2, 189233, Note_on_c, 0, 38, 73
2, 189342, Note_on_c, 0, 76, 0
2, 189348, Note_on_c, 0, 76, 79
2, 189483, Note_on_c, 0, 95, 106
2, 189485, Note_on_c, 0, 64, 92
2, 189485, Note_on_c, 0, 83, 106
2, 189488, Note_on_c, 0, 69, 83
2, 189490, Note_on_c, 0, 57, 79
2, 189492, Note_on_c, 0, 54, 83
2, 189611, Note_on_c, 0, 76, 0
2, 189617, Note_on_c, 0, 76, 87
2, 189726, Note_on_c, 0, 81, 0
2, 189737, Note_on_c, 0, 93, 101
2, 189737, Note_on_c, 0, 81, 100
2, 189849, Note_on_c, 0, 38, 0
2, 189849, Note_on_c, 0, 50, 0
2, 189854, Note_on_c, 0, 38, 79
2, 189856, Note_on_c, 0, 50, 76
2, 189864, Note_on_c, 0, 76, 0
2, 189871, Note_on_c, 0, 76, 84
2, 189963, Note_on_c, 0, 83, 0
2, 189963, Note_on_c, 0, 69, 0
2, 189964, Note_on_c, 0, 54, 0
2, 189964, Note_on_c, 0, 50, 0
2, 189964, Note_on_c, 0, 93, 0
2, 189965, Note_on_c, 0, 90, 0
2, 189965, Note_on_c, 0, 64, 0
2, 189965, Note_on_c, 0, 38, 0
2, 189965, Note_on_c, 0, 81, 0
2, 189966, Note_on_c, 0, 76, 0
2, 189967, Note_on_c, 0, 78, 0
2, 189968, Control_c, 0, 64, 0
2, 189972, Note_on_c, 0, 80, 0
2, 189980, Note_on_c, 0, 88, 0
2, 189980, Note_on_c, 0, 95, 0
2, 189987, Note_on_c, 0, 57, 0
2, 189994, Note_on_c, 0, 52, 99
2, 189995, Note_on_c, 0, 40, 87
2, 189998, Note_on_c, 0, 68, 82
2, 190003, Note_on_c, 0, 68, 0
2, 190056, Control_c, 0, 64, 127
2, 190113, Note_on_c, 0, 76, 95
2, 190233, Note_on_c, 0, 40, 0
2, 190240, Note_on_c, 0, 40, 80
2, 190244, Note_on_c, 0, 88, 105
2, 190244, Note_on_c, 0, 81, 98
2, 190341, Note_on_c, 0, 76, 0
2, 190351, Note_on_c, 0, 76, 93
2, 190494, Note_on_c, 0, 88, 0
2, 190495, Note_on_c, 0, 95, 107
2, 190497, Note_on_c, 0, 83, 109
2, 190498, Note_on_c, 0, 64, 92
2, 190500, Note_on_c, 0, 59, 92
2, 190505, Note_on_c, 0, 88, 86
2, 190506, Note_on_c, 0, 57, 86
2, 190625, Note_on_c, 0, 76, 0
2, 190630, Note_on_c, 0, 76, 91
2, 190663, Note_on_c, 0, 40, 0
2, 190725, Note_on_c, 0, 81, 0
2, 190735, Note_on_c, 0, 81, 107
2, 190735, Note_on_c, 0, 93, 106
2, 190863, Note_on_c, 0, 76, 0
2, 190870, Note_on_c, 0, 38, 78
2, 190871, Note_on_c, 0, 52, 0
2, 190871, Note_on_c, 0, 88, 0
2, 190873, Note_on_c, 0, 76, 95
2, 190874, Note_on_c, 0, 50, 73
2, 190874, Note_on_c, 0, 40, 73
2, 190875, Note_on_c, 0, 52, 72
2, 190876, Note_on_c, 0, 88, 75
2, 190978, Note_on_c, 0, 38, 0
2, 190978, Control_c, 0, 64, 0
2, 190980, Note_on_c, 0, 52, 0
2, 190980, Note_on_c, 0, 83, 0
2, 190980, Note_on_c, 0, 57, 0
2, 190980, Note_on_c, 0, 93, 0
2, 190980, Note_on_c, 0, 59, 0
2, 190980, Note_on_c, 0, 76, 0
2, 190980, Note_on_c, 0, 81, 0
2, 190981, Note_on_c, 0, 64, 0
2, 190981, Note_on_c, 0, 88, 0
2, 190982, Note_on_c, 0, 40, 0
2, 190993, Note_on_c, 0, 50, 0
2, 190993, Note_on_c, 0, 95, 0
2, 190996, Note_on_c, 0, 53, 99
2, 190998, Note_on_c, 0, 41, 86
2, 190999, Note_on_c, 0, 49, 90
2, 191086, Control_c, 0, 64, 127
2, 191154, Note_on_c, 0, 83, 92
2, 191266, Note_on_c, 0, 95, 103
2, 191270, Note_on_c, 0, 85, 95
2, 191271, Note_on_c, 0, 89, 86
2, 191385, Note_on_c, 0, 83, 0
2, 191392, Note_on_c, 0, 83, 89
2, 191497, Note_on_c, 0, 53, 0
2, 191499, Control_c, 0, 64, 0
2, 191508, Note_on_c, 0, 41, 0
2, 191516, Note_on_c, 0, 49, 0
2, 191516, Note_on_c, 0, 85, 0
2, 191516, Note_on_c, 0, 89, 0
2, 191516, Note_on_c, 0, 95, 0
2, 191522, Note_on_c, 0, 49, 103
2, 191522, Note_on_c, 0, 95, 99
2, 191522, Note_on_c, 0, 37, 94
2, 191523, Note_on_c, 0, 89, 88
2, 191526, Note_on_c, 0, 85, 96
2, 191585, Control_c, 0, 64, 127
2, 191639, Note_on_c, 0, 83, 0
2, 191649, Note_on_c, 0, 83, 78
2, 191774, Note_on_c, 0, 44, 66
2, 191777, Note_on_c, 0, 32, 67
2, 191777, Note_on_c, 0, 37, 0
2, 191784, Note_on_c, 0, 98, 97
2, 191784, Note_on_c, 0, 32, 0
2, 191785, Note_on_c, 0, 86, 95
2, 191854, Note_on_c, 0, 49, 0
2, 191902, Note_on_c, 0, 44, 0
2, 191904, Note_on_c, 0, 95, 0
2, 191904, Note_on_c, 0, 86, 0
2, 191904, Note_on_c, 0, 89, 0
2, 191904, Note_on_c, 0, 83, 0
2, 191904, Control_c, 0, 64, 0
2, 191907, Note_on_c, 0, 85, 0
2, 191911, Note_on_c, 0, 97, 102
2, 191913, Note_on_c, 0, 93, 86
2, 191916, Note_on_c, 0, 49, 81
2, 191918, Note_on_c, 0, 85, 100
2, 191918, Note_on_c, 0, 42, 89
2, 191919, Note_on_c, 0, 90, 85
2, 191922, Note_on_c, 0, 54, 91
2, 191930, Note_on_c, 0, 98, 0
2, 192069, Control_c, 0, 64, 127
2, 192161, Note_on_c, 0, 49, 0
2, 192167, Note_on_c, 0, 49, 69
2, 192276, Note_on_c, 0, 54, 0
2, 192280, Note_on_c, 0, 54, 75
2, 192406, Note_on_c, 0, 56, 77
2, 192526, Note_on_c, 0, 57, 69
2, 192613, Note_on_c, 0, 61, 77
2, 192687, Note_on_c, 0, 62, 70
2, 192726, Note_on_c, 0, 64, 77
2, 192785, Note_on_c, 0, 66, 74
2, 192840, Note_on_c, 0, 68, 81
2, 192899, Note_on_c, 0, 69, 75
2, 192927, Note_on_c, 0, 73, 80
2, 192970, Note_on_c, 0, 85, 0
2, 192971, Note_on_c, 0, 97, 0
2, 192971, Note_on_c, 0, 62, 0
2, 192971, Note_on_c, 0, 90, 0
2, 192971, Note_on_c, 0, 57, 0
2, 192971, Note_on_c, 0, 61, 0
2, 192971, Note_on_c, 0, 54, 0
2, 192972, Note_on_c, 0, 49, 0
2, 192972, Note_on_c, 0, 66, 0
2, 192972, Note_on_c, 0, 64, 0
2, 192972, Note_on_c, 0, 68, 0
2, 192973, Note_on_c, 0, 69, 0
2, 192974, Note_on_c, 0, 73, 0
2, 192974, Note_on_c, 0, 56, 0
2, 192983, Note_on_c, 0, 42, 0
2, 192983, Note_on_c, 0, 93, 0
2, 192983, Control_c, 0, 64, 0
2, 193003, Note_on_c, 0, 76, 99
2, 193010, Note_on_c, 0, 69, 81
2, 193010, Note_on_c, 0, 35, 77
2, 193010, Note_on_c, 0, 47, 86
2, 193082, Control_c, 0, 64, 127
2, 193251, Note_on_c, 0, 69, 0
2, 193259, Note_on_c, 0, 76, 0
2, 193264, Note_on_c, 0, 88, 90
2, 193267, Note_on_c, 0, 76, 90
2, 193512, Note_on_c, 0, 76, 0
2, 193512, Note_on_c, 0, 88, 0
2, 193517, Note_on_c, 0, 88, 94
2, 193523, Note_on_c, 0, 57, 73
2, 193523, Note_on_c, 0, 76, 87
2, 193524, Note_on_c, 0, 69, 75
2, 193524, Note_on_c, 0, 54, 70
2, 193525, Note_on_c, 0, 78, 85
2, 193529, Note_on_c, 0, 81, 73
2, 193536, Note_on_c, 0, 81, 0
2, 193766, Note_on_c, 0, 47, 0
2, 193774, Note_on_c, 0, 76, 0
2, 193774, Note_on_c, 0, 88, 0
2, 193774, Note_on_c, 0, 47, 60
2, 193779, Note_on_c, 0, 88, 91
2, 193783, Note_on_c, 0, 76, 83
2, 194027, Note_on_c, 0, 76, 0
2, 194027, Note_on_c, 0, 88, 0
2, 194030, Note_on_c, 0, 50, 64
2, 194032, Note_on_c, 0, 88, 96
2, 194034, Note_on_c, 0, 62, 73
2, 194035, Note_on_c, 0, 54, 0
2, 194035, Note_on_c, 0, 78, 0
2, 194036, Note_on_c, 0, 76, 90
2, 194039, Note_on_c, 0, 54, 70
2, 194045, Note_on_c, 0, 78, 86
2, 194045, Note_on_c, 0, 81, 75
2, 194291, Note_on_c, 0, 86, 90
2, 194296, Note_on_c, 0, 47, 0
2, 194296, Note_on_c, 0, 54, 0
2, 194299, Note_on_c, 0, 74, 75
2, 194300, Note_on_c, 0, 47, 69
2, 194307, Note_on_c, 0, 54, 56
2, 194419, Note_on_c, 0, 86, 0
2, 194426, Note_on_c, 0, 74, 0
2, 194426, Note_on_c, 0, 78, 0
2, 194430, Note_on_c, 0, 86, 92
2, 194431, Note_on_c, 0, 78, 84
2, 194432, Note_on_c, 0, 74, 73
2, 194496, Note_on_c, 0, 35, 0
2, 194549, Note_on_c, 0, 54, 0
2, 194549, Note_on_c, 0, 57, 0
2, 194549, Note_on_c, 0, 69, 0
2, 194554, Note_on_c, 0, 57, 71
2, 194557, Note_on_c, 0, 69, 71
2, 194557, Note_on_c, 0, 54, 68
2, 194795, Note_on_c, 0, 47, 0
2, 194801, Note_on_c, 0, 85, 91
2, 194805, Note_on_c, 0, 47, 61
2, 194807, Note_on_c, 0, 73, 79
2, 195036, Note_on_c, 0, 81, 0
2, 195036, Note_on_c, 0, 73, 0
2, 195037, Note_on_c, 0, 54, 0
2, 195037, Control_c, 0, 64, 0
2, 195037, Note_on_c, 0, 74, 0
2, 195037, Note_on_c, 0, 50, 0
2, 195037, Note_on_c, 0, 76, 0
2, 195037, Note_on_c, 0, 62, 0
2, 195037, Note_on_c, 0, 88, 0
2, 195037, Note_on_c, 0, 78, 0
2, 195048, Note_on_c, 0, 69, 0
2, 195056, Note_on_c, 0, 47, 0
2, 195056, Note_on_c, 0, 57, 0
2, 195056, Note_on_c, 0, 86, 0
2, 195064, Note_on_c, 0, 85, 0
2, 195068, Note_on_c, 0, 85, 97
2, 195075, Note_on_c, 0, 76, 82
2, 195075, Note_on_c, 0, 73, 83
2, 195075, Note_on_c, 0, 52, 70
2, 195076, Note_on_c, 0, 40, 64
2, 195148, Control_c, 0, 64, 127
2, 195327, Note_on_c, 0, 83, 92
2, 195329, Note_on_c, 0, 71, 82
2, 195347, Note_on_c, 0, 47, 57
2, 195456, Note_on_c, 0, 71, 0
2, 195456, Note_on_c, 0, 83, 0
2, 195462, Note_on_c, 0, 83, 92
2, 195464, Note_on_c, 0, 71, 78
2, 195466, Note_on_c, 0, 74, 81
2, 195467, Note_on_c, 0, 50, 66
2, 195509, Note_on_c, 0, 85, 0
2, 195597, Note_on_c, 0, 54, 64
2, 195717, Note_on_c, 0, 47, 0
2, 195727, Note_on_c, 0, 47, 57
2, 195847, Note_on_c, 0, 50, 0
2, 195851, Note_on_c, 0, 50, 56
2, 195970, Note_on_c, 0, 54, 0
2, 195974, Note_on_c, 0, 54, 61
2, 196099, Note_on_c, 0, 57, 69
2, 196102, Note_on_c, 0, 69, 65
2, 196216, Note_on_c, 0, 50, 0
2, 196224, Note_on_c, 0, 52, 0
2, 196226, Note_on_c, 0, 50, 53
2, 196230, Note_on_c, 0, 52, 41
2, 196346, Note_on_c, 0, 54, 0
2, 196358, Note_on_c, 0, 54, 61
2, 196477, Note_on_c, 0, 57, 0
2, 196477, Note_on_c, 0, 69, 0
2, 196488, Note_on_c, 0, 69, 55
2, 196488, Note_on_c, 0, 57, 53
2, 196617, Note_on_c, 0, 62, 73
2, 196738, Note_on_c, 0, 54, 0
2, 196746, Note_on_c, 0, 54, 56
2, 196869, Note_on_c, 0, 57, 0
2, 196869, Note_on_c, 0, 69, 0
2, 196876, Note_on_c, 0, 57, 57
2, 196877, Note_on_c, 0, 69, 55
2, 196999, Note_on_c, 0, 62, 0
2, 197003, Note_on_c, 0, 62, 66
2, 197135, Note_on_c, 0, 66, 71
2, 197137, Note_on_c, 0, 40, 0
2, 197137, Note_on_c, 0, 52, 0
2, 197142, Note_on_c, 0, 52, 58
2, 197142, Note_on_c, 0, 40, 61
2, 197153, Control_c, 0, 64, 0
2, 197153, Note_on_c, 0, 54, 0
2, 197154, Note_on_c, 0, 73, 0
2, 197154, Note_on_c, 0, 71, 0
2, 197154, Note_on_c, 0, 57, 0
2, 197155, Note_on_c, 0, 50, 0
2, 197155, Note_on_c, 0, 69, 0
2, 197155, Note_on_c, 0, 83, 0
2, 197155, Note_on_c, 0, 76, 0
2, 197156, Note_on_c, 0, 62, 0
2, 197156, Note_on_c, 0, 74, 0
2, 197176, Note_on_c, 0, 47, 0
2, 197245, Control_c, 0, 64, 127
2, 197265, Note_on_c, 0, 59, 65
2, 197379, Note_on_c, 0, 62, 64
2, 197498, Note_on_c, 0, 66, 0
2, 197508, Note_on_c, 0, 66, 66
2, 197633, Note_on_c, 0, 69, 76
2, 197767, Note_on_c, 0, 62, 0
2, 197774, Note_on_c, 0, 62, 64
2, 197882, Note_on_c, 0, 66, 0
2, 197893, Note_on_c, 0, 66, 75
2, 198013, Note_on_c, 0, 69, 0
2, 198017, Note_on_c, 0, 69, 74
2, 198135, Note_on_c, 0, 74, 86
2, 198251, Note_on_c, 0, 69, 0
2, 198261, Note_on_c, 0, 69, 72
2, 198374, Note_on_c, 0, 74, 0
2, 198380, Note_on_c, 0, 74, 74
2, 198507, Note_on_c, 0, 78, 81
2, 198618, Note_on_c, 0, 81, 89
2, 198689, Note_on_c, 0, 74, 0
2, 198694, Note_on_c, 0, 74, 84
2, 198766, Note_on_c, 0, 78, 0
2, 198776, Note_on_c, 0, 78, 79
2, 198837, Note_on_c, 0, 80, 70
2, 198888, Note_on_c, 0, 81, 0
2, 198900, Note_on_c, 0, 81, 80
2, 198955, Note_on_c, 0, 83, 83
2, 199007, Note_on_c, 0, 85, 79
2, 199080, Note_on_c, 0, 86, 79
2, 199167, Note_on_c, 0, 88, 96
2, 199180, Note_on_c, 0, 52, 0
2, 199183, Note_on_c, 0, 64, 75
2, 199188, Note_on_c, 0, 59, 0
2, 199188, Note_on_c, 0, 80, 0
2, 199192, Note_on_c, 0, 52, 69
2, 199192, Note_on_c, 0, 80, 76
2, 199197, Note_on_c, 0, 59, 65
2, 199215, Note_on_c, 0, 86, 0
2, 199216, Note_on_c, 0, 62, 0
2, 199216, Note_on_c, 0, 74, 0
2, 199216, Note_on_c, 0, 83, 0
2, 199216, Note_on_c, 0, 66, 0
2, 199217, Note_on_c, 0, 78, 0
2, 199219, Note_on_c, 0, 85, 0
2, 199223, Control_c, 0, 64, 0
2, 199226, Note_on_c, 0, 40, 0
2, 199234, Note_on_c, 0, 69, 0
2, 199234, Note_on_c, 0, 81, 0
2, 199460, Note_on_c, 0, 76, 62
2, 199472, Control_c, 0, 64, 127
2, 199730, Note_on_c, 0, 86, 86
2, 199737, Note_on_c, 0, 78, 74
2, 199992, Note_on_c, 0, 74, 58
2, 200268, Note_on_c, 0, 85, 82
2, 200279, Note_on_c, 0, 76, 0
2, 200285, Note_on_c, 0, 76, 62
2, 200552, Note_on_c, 0, 73, 60
2, 200810, Note_on_c, 0, 81, 83
2, 200824, Note_on_c, 0, 76, 0
2, 200829, Note_on_c, 0, 76, 63
2, 200832, Note_on_c, 0, 74, 0
2, 200836, Note_on_c, 0, 74, 58
2, 201100, Note_on_c, 0, 69, 66
2, 201361, Note_on_c, 0, 86, 0
2, 201366, Note_on_c, 0, 86, 79
2, 201369, Note_on_c, 0, 74, 0
2, 201369, Note_on_c, 0, 78, 0
2, 201369, Note_on_c, 0, 81, 0
2, 201372, Control_c, 0, 64, 0
2, 201373, Note_on_c, 0, 73, 0
2, 201374, Note_on_c, 0, 85, 0
2, 201374, Note_on_c, 0, 88, 0
2, 201374, Note_on_c, 0, 69, 0
2, 201374, Note_on_c, 0, 76, 0
2, 201374, Note_on_c, 0, 81, 66
2, 201377, Note_on_c, 0, 52, 0
2, 201378, Note_on_c, 0, 74, 58
2, 201380, Note_on_c, 0, 78, 66
2, 201384, Note_on_c, 0, 80, 0
2, 201387, Note_on_c, 0, 52, 49
2, 201392, Note_on_c, 0, 59, 0
2, 201397, Note_on_c, 0, 59, 57
2, 201415, Note_on_c, 0, 64, 0
2, 201507, Control_c, 0, 64, 127
2, 201515, Note_on_c, 0, 52, 0
2, 201635, Note_on_c, 0, 40, 34
2, 201646, Note_on_c, 0, 40, 0
2, 201686, Note_on_c, 0, 66, 65
2, 201970, Note_on_c, 0, 85, 86
2, 201995, Note_on_c, 0, 80, 74
2, 202003, Note_on_c, 0, 73, 61
2, 202003, Note_on_c, 0, 76, 56
2, 202315, Note_on_c, 0, 68, 73
2, 202622, Note_on_c, 0, 80, 0
2, 202624, Note_on_c, 0, 86, 0
2, 202624, Note_on_c, 0, 68, 0
2, 202624, Note_on_c, 0, 73, 0
2, 202625, Note_on_c, 0, 76, 0
2, 202625, Note_on_c, 0, 66, 0
2, 202625, Note_on_c, 0, 85, 0
2, 202625, Note_on_c, 0, 59, 0
2, 202629, Note_on_c, 0, 81, 0
2, 202633, Control_c, 0, 64, 0
2, 202638, Note_on_c, 0, 81, 80
2, 202644, Note_on_c, 0, 78, 0
2, 202646, Note_on_c, 0, 69, 62
2, 202649, Note_on_c, 0, 78, 67
2, 202652, Note_on_c, 0, 74, 0
2, 202659, Note_on_c, 0, 74, 57
2, 202744, Control_c, 0, 64, 127
2, 203072, Note_on_c, 0, 62, 60
2, 203545, Note_on_c, 0, 83, 78
2, 203554, Note_on_c, 0, 71, 62
2, 203561, Note_on_c, 0, 69, 0
2, 203562, Note_on_c, 0, 78, 0
2, 203562, Note_on_c, 0, 81, 0
2, 203562, Note_on_c, 0, 76, 57
2, 203566, Note_on_c, 0, 74, 0
2, 203575, Note_on_c, 0, 74, 54
2, 203576, Control_c, 0, 64, 0
2, 203704, Control_c, 0, 64, 127
2, 204242, Note_on_c, 0, 64, 49
2, 204433, Note_on_c, 0, 62, 0
2, 205125, Note_on_c, 0, 71, 0
2, 207301, Note_on_c, 0, 81, 70
2, 207313, Note_on_c, 0, 64, 0
2, 207317, Note_on_c, 0, 64, 45
2, 207320, Note_on_c, 0, 57, 39
2, 207326, Note_on_c, 0, 69, 54
2, 207370, Note_on_c, 0, 74, 0
2, 207370, Note_on_c, 0, 83, 0
2, 207371, Note_on_c, 0, 76, 0
2, 207373, Control_c, 0, 64, 0
2, 207521, Control_c, 0, 64, 127
2, 207882, Note_on_c, 0, 81, 0
2, 207889, Note_on_c, 0, 81, 65
2, 208151, Note_on_c, 0, 81, 0
2, 208157, Note_on_c, 0, 81, 69
2, 208453, Note_on_c, 0, 83, 69
2, 208456, Note_on_c, 0, 68, 56
2, 208995, Note_on_c, 0, 81, 0
2, 209002, Note_on_c, 0, 81, 75
2, 209256, Note_on_c, 0, 83, 0
2, 209260, Note_on_c, 0, 83, 77
2, 209280, Note_on_c, 0, 57, 0
2, 209537, Note_on_c, 0, 85, 74
2, 209548, Note_on_c, 0, 64, 0
2, 209548, Note_on_c, 0, 69, 0
2, 209555, Note_on_c, 0, 54, 46
2, 209555, Note_on_c, 0, 73, 60
2, 209557, Note_on_c, 0, 69, 54
2, 209559, Note_on_c, 0, 64, 46
2, 209565, Control_c, 0, 64, 0
2, 209568, Note_on_c, 0, 68, 0
2, 209568, Note_on_c, 0, 83, 0
2, 209568, Note_on_c, 0, 81, 0
2, 209679, Control_c, 0, 64, 127
2, 210094, Note_on_c, 0, 69, 0
2, 210103, Note_on_c, 0, 69, 61
2, 210362, Note_on_c, 0, 69, 0
2, 210368, Note_on_c, 0, 69, 56
2, 210644, Note_on_c, 0, 71, 61
2, 210666, Note_on_c, 0, 52, 44
2, 210680, Note_on_c, 0, 54, 0
2, 210680, Note_on_c, 0, 85, 0
2, 210681, Note_on_c, 0, 73, 0
2, 210687, Control_c, 0, 64, 0
2, 210700, Note_on_c, 0, 69, 0
2, 210808, Control_c, 0, 64, 127
2, 211177, Note_on_c, 0, 69, 61
2, 211430, Note_on_c, 0, 71, 0
2, 211435, Note_on_c, 0, 71, 65
2, 211703, Note_on_c, 0, 88, 80
2, 211727, Note_on_c, 0, 45, 36
2, 211729, Note_on_c, 0, 69, 0
2, 211731, Note_on_c, 0, 73, 59
2, 211733, Note_on_c, 0, 52, 0
2, 211733, Note_on_c, 0, 71, 0
2, 211734, Note_on_c, 0, 69, 53
2, 211737, Note_on_c, 0, 64, 0
2, 211738, Note_on_c, 0, 66, 45
2, 211747, Note_on_c, 0, 78, 43
2, 211748, Control_c, 0, 64, 0
2, 211914, Control_c, 0, 64, 127
2, 211929, Note_on_c, 0, 45, 0
2, 211975, Note_on_c, 0, 78, 0
2, 212255, Note_on_c, 0, 85, 73
2, 212784, Note_on_c, 0, 83, 79
2, 212803, Note_on_c, 0, 81, 66
2, 212805, Note_on_c, 0, 69, 0
2, 212805, Note_on_c, 0, 64, 54
2, 212807, Note_on_c, 0, 76, 50
2, 212808, Note_on_c, 0, 52, 45
2, 212813, Note_on_c, 0, 69, 57
2, 212813, Note_on_c, 0, 88, 0
2, 212816, Note_on_c, 0, 59, 44
2, 212816, Note_on_c, 0, 66, 0
2, 212817, Note_on_c, 0, 73, 0
2, 212817, Note_on_c, 0, 85, 0
2, 212821, Control_c, 0, 64, 0
2, 212951, Control_c, 0, 64, 127
2, 213347, Note_on_c, 0, 68, 54
2, 213588, Note_on_c, 0, 81, 0
2, 213595, Note_on_c, 0, 81, 79
2, 213880, Note_on_c, 0, 64, 0
2, 213880, Note_on_c, 0, 81, 0
2, 213885, Note_on_c, 0, 81, 79
2, 213887, Note_on_c, 0, 64, 54
2, 213888, Note_on_c, 0, 69, 0
2, 213888, Note_on_c, 0, 76, 0
2, 213889, Note_on_c, 0, 57, 50
2, 213893, Note_on_c, 0, 69, 64
2, 213899, Note_on_c, 0, 76, 63
2, 213910, Note_on_c, 0, 74, 56
2, 213921, Note_on_c, 0, 83, 0
2, 213922, Note_on_c, 0, 52, 0
2, 213922, Note_on_c, 0, 68, 0
2, 213923, Note_on_c, 0, 59, 0
2, 213931, Control_c, 0, 64, 0
2, 214457, Note_on_c, 0, 73, 58
2, 214474, Note_on_c, 0, 74, 0
2, 214727, Note_on_c, 0, 71, 62
2, 214749, Note_on_c, 0, 73, 0
2, 214947, Control_c, 0, 64, 127
2, 215000, Note_on_c, 0, 73, 59
2, 215262, Note_on_c, 0, 64, 0
2, 215272, Note_on_c, 0, 64, 24
2, 215523, Note_on_c, 0, 69, 0
2, 215533, Note_on_c, 0, 69, 55
2, 215800, Note_on_c, 0, 76, 0
2, 215805, Note_on_c, 0, 76, 53
2, 216061, Note_on_c, 0, 64, 0
2, 216061, Note_on_c, 0, 69, 0
2, 216067, Note_on_c, 0, 69, 67
2, 216069, Note_on_c, 0, 57, 0
2, 216071, Note_on_c, 0, 64, 51
2, 216078, Note_on_c, 0, 57, 51
2, 216080, Control_c, 0, 64, 0
2, 216086, Note_on_c, 0, 85, 69
2, 216087, Note_on_c, 0, 71, 0
2, 216087, Note_on_c, 0, 73, 0
2, 216090, Note_on_c, 0, 76, 0
2, 216199, Control_c, 0, 64, 127
2, 216361, Note_on_c, 0, 76, 56
2, 216583, Note_on_c, 0, 69, 0
2, 216583, Note_on_c, 0, 81, 0
2, 216594, Note_on_c, 0, 69, 71
2, 216595, Note_on_c, 0, 81, 68
2, 216602, Control_c, 0, 64, 0
2, 216629, Control_c, 0, 64, 127
2, 216860, Note_on_c, 0, 69, 0
2, 216867, Note_on_c, 0, 85, 0
2, 216871, Note_on_c, 0, 69, 82
2, 216871, Note_on_c, 0, 85, 74
2, 217136, Note_on_c, 0, 64, 0
2, 217141, Note_on_c, 0, 71, 80
2, 217148, Note_on_c, 0, 64, 66
2, 217156, Note_on_c, 0, 88, 64
2, 217160, Note_on_c, 0, 76, 0
2, 217160, Note_on_c, 0, 85, 0
2, 217161, Note_on_c, 0, 81, 0
2, 217161, Control_c, 0, 64, 0
2, 217161, Note_on_c, 0, 62, 43
2, 217163, Note_on_c, 0, 56, 50
2, 217182, Note_on_c, 0, 57, 0
2, 217190, Note_on_c, 0, 69, 0
2, 217259, Note_on_c, 0, 88, 0
2, 217282, Control_c, 0, 64, 127
2, 217427, Note_on_c, 0, 76, 60
2, 217676, Note_on_c, 0, 69, 76
2, 217677, Note_on_c, 0, 83, 72
2, 217927, Note_on_c, 0, 71, 0
2, 217936, Note_on_c, 0, 71, 83
2, 217953, Note_on_c, 0, 80, 66
2, 218204, Note_on_c, 0, 69, 0
2, 218211, Note_on_c, 0, 64, 0
2, 218214, Note_on_c, 0, 69, 66
2, 218216, Note_on_c, 0, 81, 67
2, 218217, Note_on_c, 0, 64, 58
2, 218219, Note_on_c, 0, 62, 0
2, 218219, Note_on_c, 0, 54, 57
2, 218220, Note_on_c, 0, 80, 0
2, 218220, Control_c, 0, 64, 0
2, 218221, Note_on_c, 0, 76, 0
2, 218221, Note_on_c, 0, 56, 0
2, 218234, Note_on_c, 0, 71, 0
2, 218242, Note_on_c, 0, 83, 0
2, 218334, Control_c, 0, 64, 127
2, 218480, Note_on_c, 0, 76, 69
2, 218718, Note_on_c, 0, 81, 0
2, 218728, Note_on_c, 0, 81, 98
2, 219001, Note_on_c, 0, 88, 73
2, 219257, Note_on_c, 0, 80, 95
2, 219271, Note_on_c, 0, 64, 0
2, 219281, Note_on_c, 0, 64, 59
2, 219284, Note_on_c, 0, 59, 52
2, 219286, Note_on_c, 0, 49, 56
2, 219297, Control_c, 0, 64, 0
2, 219298, Note_on_c, 0, 81, 0
2, 219298, Note_on_c, 0, 76, 0
2, 219298, Note_on_c, 0, 54, 0
2, 219317, Note_on_c, 0, 69, 0
2, 219425, Control_c, 0, 64, 127
2, 219528, Note_on_c, 0, 76, 74
2, 219795, Note_on_c, 0, 92, 83
2, 219798, Note_on_c, 0, 83, 74
2, 220047, Note_on_c, 0, 76, 0
2, 220056, Note_on_c, 0, 76, 76
2, 220174, Note_on_c, 0, 73, 72
2, 220277, Note_on_c, 0, 49, 0
2, 220285, Note_on_c, 0, 83, 0
2, 220285, Note_on_c, 0, 88, 0
2, 220285, Note_on_c, 0, 59, 0
2, 220286, Note_on_c, 0, 80, 0
2, 220286, Note_on_c, 0, 76, 0
2, 220289, Note_on_c, 0, 73, 0
2, 220289, Control_c, 0, 64, 0
2, 220289, Note_on_c, 0, 92, 0
2, 220316, Note_on_c, 0, 64, 0
2, 220316, Note_on_c, 0, 57, 47
2, 220319, Note_on_c, 0, 50, 57
2, 220320, Note_on_c, 0, 71, 81
2, 220321, Note_on_c, 0, 64, 62
2, 220392, Control_c, 0, 64, 127
2, 220587, Note_on_c, 0, 76, 68
2, 220843, Note_on_c, 0, 81, 74
2, 220846, Note_on_c, 0, 71, 0
2, 220850, Note_on_c, 0, 71, 84
2, 221108, Note_on_c, 0, 73, 79
2, 221119, Note_on_c, 0, 88, 65
2, 221352, Note_on_c, 0, 71, 0
2, 221363, Note_on_c, 0, 71, 79
2, 221380, Note_on_c, 0, 81, 0
2, 221381, Note_on_c, 0, 50, 0
2, 221382, Note_on_c, 0, 57, 0
2, 221382, Note_on_c, 0, 73, 0
2, 221385, Note_on_c, 0, 76, 0
2, 221385, Note_on_c, 0, 88, 0
2, 221387, Control_c, 0, 64, 0
2, 221391, Note_on_c, 0, 64, 0
2, 221395, Note_on_c, 0, 52, 54
2, 221395, Note_on_c, 0, 59, 54
2, 221395, Note_on_c, 0, 64, 59
2, 221498, Control_c, 0, 64, 127
2, 221665, Note_on_c, 0, 76, 65
2, 221922, Note_on_c, 0, 69, 77
2, 221976, Note_on_c, 0, 86, 40
2, 221982, Note_on_c, 0, 86, 0
2, 222167, Note_on_c, 0, 71, 0
2, 222176, Note_on_c, 0, 71, 75
2, 222201, Note_on_c, 0, 80, 58
2, 222466, Note_on_c, 0, 64, 0
2, 222466, Note_on_c, 0, 69, 0
2, 222475, Note_on_c, 0, 81, 71
2, 222477, Note_on_c, 0, 64, 59
2, 222477, Note_on_c, 0, 69, 67
2, 222482, Note_on_c, 0, 59, 0
2, 222482, Note_on_c, 0, 52, 0
2, 222483, Note_on_c, 0, 80, 0
2, 222483, Note_on_c, 0, 76, 0
2, 222483, Note_on_c, 0, 73, 66
2, 222493, Note_on_c, 0, 54, 52
2, 222494, Control_c, 0, 64, 0
2, 222497, Note_on_c, 0, 71, 0
2, 222643, Control_c, 0, 64, 127
2, 222760, Note_on_c, 0, 76, 54
2, 223025, Note_on_c, 0, 83, 68
2, 223303, Note_on_c, 0, 81, 0
2, 223314, Note_on_c, 0, 81, 57
2, 223590, Note_on_c, 0, 93, 53
2, 224478, Note_on_c, 0, 76, 0
2, 224489, Note_on_c, 0, 76, 77
2, 224609, Note_on_c, 0, 73, 0
2, 224614, Note_on_c, 0, 73, 75
2, 224640, Note_on_c, 0, 54, 0
2, 224640, Note_on_c, 0, 69, 0
2, 224756, Note_on_c, 0, 71, 81
2, 224757, Note_on_c, 0, 50, 43
2, 224761, Note_on_c, 0, 57, 42
2, 224762, Note_on_c, 0, 64, 0
2, 224767, Note_on_c, 0, 64, 53
2, 224770, Control_c, 0, 64, 0
2, 224775, Note_on_c, 0, 83, 0
2, 224775, Note_on_c, 0, 81, 0
2, 224777, Note_on_c, 0, 73, 0
2, 224789, Note_on_c, 0, 66, 58
2, 224793, Note_on_c, 0, 93, 0
2, 224801, Note_on_c, 0, 76, 0
2, 224970, Control_c, 0, 64, 127
2, 225580, Note_on_c, 0, 73, 77
2, 225853, Note_on_c, 0, 71, 0
2, 225860, Note_on_c, 0, 71, 72
2, 225863, Note_on_c, 0, 40, 49
2, 225867, Note_on_c, 0, 52, 52
2, 225868, Note_on_c, 0, 40, 0
2, 225874, Note_on_c, 0, 59, 55
2, 225876, Note_on_c, 0, 64, 0
2, 225876, Note_on_c, 0, 73, 0
2, 225877, Note_on_c, 0, 57, 0
2, 225878, Note_on_c, 0, 66, 0
2, 225878, Note_on_c, 0, 50, 0
2, 225879, Control_c, 0, 64, 0
2, 225879, Note_on_c, 0, 69, 67
2, 225882, Note_on_c, 0, 64, 56
2, 225999, Control_c, 0, 64, 127
2, 226417, Note_on_c, 0, 52, 0
2, 226417, Note_on_c, 0, 64, 0
2, 226418, Note_on_c, 0, 53, 56
2, 226418, Note_on_c, 0, 69, 0
2, 226418, Note_on_c, 0, 59, 0
2, 226419, Note_on_c, 0, 61, 53
2, 226421, Control_c, 0, 64, 0
2, 226536, Control_c, 0, 64, 127
2, 226696, Note_on_c, 0, 69, 71
2, 226990, Note_on_c, 0, 69, 0
2, 226999, Note_on_c, 0, 69, 71
2, 227001, Note_on_c, 0, 42, 48
2, 227011, Note_on_c, 0, 54, 54
2, 227020, Note_on_c, 0, 61, 0
2, 227025, Note_on_c, 0, 61, 50
2, 227033, Note_on_c, 0, 64, 57
2, 227034, Note_on_c, 0, 53, 0
2, 227040, Control_c, 0, 64, 0
2, 227043, Note_on_c, 0, 71, 0
2, 227305, Note_on_c, 0, 57, 53
2, 227381, Control_c, 0, 64, 127
2, 227397, Control_c, 0, 64, 0
2, 227612, Control_c, 0, 64, 127
2, 227621, Note_on_c, 0, 59, 59
2, 227965, Note_on_c, 0, 57, 0
2, 227969, Note_on_c, 0, 57, 47
2, 228456, Note_on_c, 0, 54, 0
2, 228461, Note_on_c, 0, 54, 41
2, 228461, Note_on_c, 0, 63, 54
2, 228464, Note_on_c, 0, 57, 0
2, 228468, Note_on_c, 0, 57, 35
2, 228469, Note_on_c, 0, 47, 41
2, 228536, Control_c, 0, 64, 0
2, 228549, Note_on_c, 0, 64, 0
2, 228553, Note_on_c, 0, 59, 0
2, 228579, Note_on_c, 0, 61, 0
2, 228817, Note_on_c, 0, 42, 0
2, 230346, Control_c, 0, 64, 127
2, 230465, Note_on_c, 0, 57, 0
2, 230466, Control_c, 0, 64, 0
2, 230466, Note_on_c, 0, 63, 0
2, 230471, Note_on_c, 0, 47, 0
2, 230484, Note_on_c, 0, 69, 0
2, 230492, Note_on_c, 0, 54, 0
2, 232154, Note_on_c, 0, 64, 75
2, 232288, Note_on_c, 0, 61, 74
2, 232320, Control_c, 0, 64, 127
2, 232443, Note_on_c, 0, 38, 62
2, 232445, Note_on_c, 0, 59, 79
2, 232454, Control_c, 0, 64, 0
2, 232469, Note_on_c, 0, 61, 0
2, 232469, Note_on_c, 0, 64, 0
2, 232721, Note_on_c, 0, 45, 65
2, 232826, Control_c, 0, 64, 127
2, 232988, Note_on_c, 0, 52, 56
2, 233301, Note_on_c, 0, 54, 59
2, 234225, Note_on_c, 0, 61, 77
2, 234662, Note_on_c, 0, 59, 0
2, 234673, Note_on_c, 0, 59, 68
2, 234746, Note_on_c, 0, 61, 0
2, 234756, Note_on_c, 0, 61, 71
2, 234800, Note_on_c, 0, 59, 0
2, 234812, Note_on_c, 0, 59, 68
2, 234813, Control_c, 0, 64, 0
2, 234816, Note_on_c, 0, 45, 0
2, 234816, Note_on_c, 0, 52, 0
2, 234816, Note_on_c, 0, 54, 0
2, 234817, Note_on_c, 0, 61, 0
2, 234818, Note_on_c, 0, 40, 49
2, 234819, Note_on_c, 0, 38, 0
2, 235100, Note_on_c, 0, 47, 58
2, 235207, Control_c, 0, 64, 127
2, 235394, Note_on_c, 0, 52, 50
2, 235706, Note_on_c, 0, 47, 0
2, 235716, Note_on_c, 0, 47, 55
2, 236131, Note_on_c, 0, 57, 62
2, 237550, Note_on_c, 0, 59, 0
2, 237554, Note_on_c, 0, 59, 57
2, 237561, Note_on_c, 0, 56, 35
2, 237614, Control_c, 0, 64, 0
2, 237614, Note_on_c, 0, 57, 0
2, 238632, Control_c, 0, 64, 127
2, 239424, Note_on_c, 0, 40, 0
2, 240000, Note_on_c, 0, 47, 0
2, 240000, Note_on_c, 0, 52, 0
2, 240000, Note_on_c, 0, 56, 0
2, 240000, Note_on_c, 0, 59, 0
2, 240218, Note_on_c, 0, 45, 38
2, 240218, Note_on_c, 0, 52, 34
2, 240218, Note_on_c, 0, 57, 43
2, 240219, Note_on_c, 0, 69, 42
2, 240249, Control_c, 0, 64, 0
2, 240414, Control_c, 0, 64, 127
2, 240522, Note_on_c, 0, 69, 0
2, 240967, Note_on_c, 0, 76, 39
2, 241250, Note_on_c, 0, 81, 58
2, 241523, Note_on_c, 0, 88, 60
2, 241764, Note_on_c, 0, 56, 46
2, 241769, Note_on_c, 0, 83, 65
2, 242042, Note_on_c, 0, 76, 0
2, 242047, Note_on_c, 0, 76, 56
2, 242311, Note_on_c, 0, 45, 0
2, 242319, Note_on_c, 0, 88, 0
2, 242321, Note_on_c, 0, 45, 29
2, 242324, Note_on_c, 0, 88, 66
2, 242575, Note_on_c, 0, 80, 71
2, 242826, Note_on_c, 0, 81, 0
2, 242835, Note_on_c, 0, 81, 71
2, 242849, Note_on_c, 0, 45, 0
2, 242849, Note_on_c, 0, 57, 0
2, 242853, Note_on_c, 0, 69, 51
2, 242855, Note_on_c, 0, 57, 43
2, 242857, Note_on_c, 0, 54, 41
2, 242857, Note_on_c, 0, 45, 49
2, 242885, Control_c, 0, 64, 0
2, 242891, Note_on_c, 0, 88, 0
2, 242891, Note_on_c, 0, 83, 0
2, 242892, Note_on_c, 0, 80, 0
2, 242892, Note_on_c, 0, 56, 0
2, 242894, Note_on_c, 0, 76, 0
2, 242903, Note_on_c, 0, 52, 0
2, 242910, Note_on_c, 0, 69, 0
2, 242995, Control_c, 0, 64, 127
2, 243033, Note_on_c, 0, 57, 0
2, 243130, Note_on_c, 0, 76, 60
2, 243371, Note_on_c, 0, 81, 0
2, 243382, Note_on_c, 0, 81, 65
2, 243643, Note_on_c, 0, 88, 65
2, 243909, Note_on_c, 0, 45, 0
2, 243912, Note_on_c, 0, 83, 71
2, 243912, Note_on_c, 0, 52, 50
2, 243913, Note_on_c, 0, 45, 35
2, 244170, Note_on_c, 0, 76, 0
2, 244179, Note_on_c, 0, 76, 61
2, 244431, Note_on_c, 0, 88, 0
2, 244442, Note_on_c, 0, 88, 75
2, 244689, Note_on_c, 0, 80, 75
2, 244953, Note_on_c, 0, 54, 0
2, 244953, Note_on_c, 0, 81, 0
2, 244959, Note_on_c, 0, 81, 69
2, 244960, Note_on_c, 0, 54, 55
2, 244961, Note_on_c, 0, 45, 0
2, 244962, Note_on_c, 0, 50, 51
2, 244965, Note_on_c, 0, 45, 46
2, 244996, Control_c, 0, 64, 0
2, 245007, Note_on_c, 0, 83, 0
2, 245008, Note_on_c, 0, 80, 0
2, 245009, Note_on_c, 0, 52, 0
2, 245114, Control_c, 0, 64, 127
2, 245199, Note_on_c, 0, 88, 0
2, 245207, Note_on_c, 0, 76, 0
2, 245212, Note_on_c, 0, 76, 56
2, 245483, Note_on_c, 0, 81, 0
2, 245493, Note_on_c, 0, 81, 69
2, 245758, Note_on_c, 0, 88, 77
2, 246029, Note_on_c, 0, 86, 73
2, 246030, Note_on_c, 0, 49, 56
2, 246031, Note_on_c, 0, 52, 52
2, 246086, Note_on_c, 0, 50, 0
2, 246086, Note_on_c, 0, 76, 0
2, 246087, Note_on_c, 0, 88, 0
2, 246094, Control_c, 0, 64, 0
2, 246105, Note_on_c, 0, 54, 0
2, 246190, Control_c, 0, 64, 127
2, 246309, Note_on_c, 0, 85, 74
2, 246565, Note_on_c, 0, 83, 71
2, 246827, Note_on_c, 0, 81, 0
2, 246836, Note_on_c, 0, 81, 74
2, 247080, Note_on_c, 0, 81, 0
2, 247085, Note_on_c, 0, 81, 73
2, 247100, Note_on_c, 0, 57, 49
2, 247100, Note_on_c, 0, 54, 50
2, 247100, Note_on_c, 0, 69, 50
2, 247106, Note_on_c, 0, 47, 51
2, 247129, Control_c, 0, 64, 0
2, 247130, Note_on_c, 0, 86, 0
2, 247131, Note_on_c, 0, 83, 0
2, 247131, Note_on_c, 0, 52, 0
2, 247131, Note_on_c, 0, 85, 0
2, 247132, Note_on_c, 0, 49, 0
2, 247142, Note_on_c, 0, 45, 0
2, 247242, Control_c, 0, 64, 127
2, 247365, Note_on_c, 0, 76, 65
2, 247434, Note_on_c, 0, 69, 0
2, 247611, Note_on_c, 0, 86, 76
2, 247895, Note_on_c, 0, 85, 73
2, 248140, Note_on_c, 0, 81, 0
2, 248150, Note_on_c, 0, 81, 75
2, 248154, Note_on_c, 0, 62, 52
2, 248163, Note_on_c, 0, 57, 0
2, 248167, Note_on_c, 0, 52, 47
2, 248173, Note_on_c, 0, 57, 50
2, 248189, Note_on_c, 0, 86, 0
2, 248190, Note_on_c, 0, 47, 0
2, 248190, Note_on_c, 0, 54, 0
2, 248190, Note_on_c, 0, 76, 0
2, 248190, Note_on_c, 0, 85, 0
2, 248193, Control_c, 0, 64, 0
2, 248286, Control_c, 0, 64, 127
2, 248448, Note_on_c, 0, 76, 67
2, 248685, Control_c, 0, 64, 0
2, 248690, Note_on_c, 0, 76, 0
2, 248691, Note_on_c, 0, 83, 71
2, 248692, Note_on_c, 0, 56, 61
2, 248709, Note_on_c, 0, 52, 0
2, 248709, Note_on_c, 0, 57, 0
2, 248709, Note_on_c, 0, 81, 0
2, 248719, Note_on_c, 0, 52, 22
2, 248762, Control_c, 0, 64, 127
2, 248955, Note_on_c, 0, 76, 58
2, 249223, Note_on_c, 0, 62, 0
2, 249234, Note_on_c, 0, 52, 0
2, 249234, Note_on_c, 0, 69, 61
2, 249234, Note_on_c, 0, 83, 0
2, 249235, Note_on_c, 0, 64, 46
2, 249235, Note_on_c, 0, 85, 71
2, 249237, Note_on_c, 0, 57, 51
2, 249238, Note_on_c, 0, 76, 0
2, 249239, Note_on_c, 0, 56, 0
2, 249239, Control_c, 0, 64, 0
2, 249369, Control_c, 0, 64, 127
2, 249499, Note_on_c, 0, 76, 63
2, 249775, Note_on_c, 0, 81, 76
2, 250014, Note_on_c, 0, 85, 0
2, 250025, Note_on_c, 0, 85, 77
2, 250291, Note_on_c, 0, 64, 0
2, 250293, Note_on_c, 0, 88, 76
2, 250301, Note_on_c, 0, 71, 72
2, 250302, Note_on_c, 0, 64, 62
2, 250308, Note_on_c, 0, 56, 45
2, 250343, Control_c, 0, 64, 0
2, 250344, Note_on_c, 0, 81, 0
2, 250344, Note_on_c, 0, 69, 0
2, 250345, Note_on_c, 0, 76, 0
2, 250346, Note_on_c, 0, 57, 0
2, 250360, Note_on_c, 0, 85, 0
2, 250467, Control_c, 0, 64, 127
2, 250571, Note_on_c, 0, 76, 59
2, 250824, Note_on_c, 0, 83, 78
2, 251091, Note_on_c, 0, 80, 76
2, 251351, Note_on_c, 0, 64, 0
2, 251354, Note_on_c, 0, 81, 82
2, 251355, Note_on_c, 0, 64, 60
2, 251357, Note_on_c, 0, 69, 73
2, 251359, Note_on_c, 0, 54, 61
2, 251399, Note_on_c, 0, 88, 0
2, 251400, Note_on_c, 0, 76, 0
2, 251400, Note_on_c, 0, 83, 0
2, 251400, Note_on_c, 0, 80, 0
2, 251401, Note_on_c, 0, 56, 0
2, 251401, Note_on_c, 0, 71, 0
2, 251403, Control_c, 0, 64, 0
2, 251520, Control_c, 0, 64, 127
2, 251601, Note_on_c, 0, 76, 76
2, 251865, Note_on_c, 0, 81, 0
2, 251871, Note_on_c, 0, 81, 89
2, 252154, Note_on_c, 0, 93, 95
2, 252438, Note_on_c, 0, 92, 89
2, 252441, Note_on_c, 0, 64, 0
2, 252445, Note_on_c, 0, 83, 76
2, 252451, Note_on_c, 0, 64, 68
2, 252452, Note_on_c, 0, 59, 60
2, 252456, Note_on_c, 0, 49, 59
2, 252511, Note_on_c, 0, 81, 0
2, 252511, Note_on_c, 0, 69, 0
2, 252512, Note_on_c, 0, 93, 0
2, 252513, Note_on_c, 0, 76, 0
2, 252514, Note_on_c, 0, 54, 0
2, 252514, Control_c, 0, 64, 0
2, 252708, Note_on_c, 0, 93, 78
2, 252718, Control_c, 0, 64, 127
2, 252993, Note_on_c, 0, 88, 68
2, 253281, Note_on_c, 0, 81, 76
2, 253570, Note_on_c, 0, 88, 0
2, 253581, Note_on_c, 0, 88, 73
2, 253593, Note_on_c, 0, 64, 0
2, 253598, Note_on_c, 0, 50, 54
2, 253599, Note_on_c, 0, 64, 56
2, 253602, Note_on_c, 0, 76, 53
2, 253603, Note_on_c, 0, 78, 65
2, 253613, Note_on_c, 0, 92, 0
2, 253614, Note_on_c, 0, 93, 0
2, 253619, Note_on_c, 0, 81, 0
2, 253619, Note_on_c, 0, 59, 0
2, 253620, Control_c, 0, 64, 0
2, 253620, Note_on_c, 0, 49, 0
2, 253620, Note_on_c, 0, 83, 0
2, 253731, Control_c, 0, 64, 127
2, 253888, Note_on_c, 0, 86, 79
2, 253944, Note_on_c, 0, 57, 27
2, 254196, Note_on_c, 0, 85, 78
2, 254204, Note_on_c, 0, 66, 58
2, 254215, Note_on_c, 0, 76, 0
2, 254224, Note_on_c, 0, 76, 56
2, 254224, Control_c, 0, 64, 0
2, 254238, Note_on_c, 0, 57, 0
2, 254246, Note_on_c, 0, 57, 21
2, 254284, Note_on_c, 0, 88, 0
2, 254307, Control_c, 0, 64, 127
2, 254532, Note_on_c, 0, 81, 83
2, 254876, Note_on_c, 0, 86, 0
2, 254880, Note_on_c, 0, 86, 77
2, 254881, Note_on_c, 0, 52, 50
2, 254897, Note_on_c, 0, 50, 0
2, 254898, Note_on_c, 0, 85, 0
2, 254898, Note_on_c, 0, 81, 0
2, 254899, Note_on_c, 0, 57, 0
2, 254899, Note_on_c, 0, 66, 0
2, 254900, Note_on_c, 0, 76, 0
2, 254903, Control_c, 0, 64, 0
2, 254906, Note_on_c, 0, 78, 0
2, 254911, Note_on_c, 0, 78, 57
2, 254999, Control_c, 0, 64, 127
2, 255022, Note_on_c, 0, 64, 0
2, 255291, Note_on_c, 0, 85, 76
2, 255296, Note_on_c, 0, 59, 58
2, 255302, Note_on_c, 0, 76, 60
2, 255334, Note_on_c, 0, 71, 34
2, 255748, Note_on_c, 0, 81, 76
2, 255777, Note_on_c, 0, 74, 50
2, 255780, Note_on_c, 0, 76, 0
2, 255780, Note_on_c, 0, 78, 0
2, 255780, Note_on_c, 0, 86, 0
2, 255781, Note_on_c, 0, 66, 49
2, 255783, Control_c, 0, 64, 0
2, 255843, Control_c, 0, 64, 127
2, 256499, Note_on_c, 0, 83, 74
2, 256504, Note_on_c, 0, 85, 0
2, 256523, Note_on_c, 0, 76, 46
2, 256531, Note_on_c, 0, 68, 48
2, 256549, Note_on_c, 0, 74, 0
2, 256551, Note_on_c, 0, 66, 0
2, 256552, Note_on_c, 0, 81, 0
2, 256559, Control_c, 0, 64, 0
2, 256734, Control_c, 0, 64, 127
2, 258283, Note_on_c, 0, 45, 68
2, 258336, Note_on_c, 0, 59, 0
2, 258336, Note_on_c, 0, 68, 0
2, 258338, Note_on_c, 0, 83, 0
2, 258338, Note_on_c, 0, 71, 0
2, 258339, Control_c, 0, 64, 0
2, 258340, Note_on_c, 0, 76, 0
2, 258347, Note_on_c, 0, 52, 0
2, 258447, Control_c, 0, 64, 127
2, 258822, Note_on_c, 0, 52, 62
2, 259117, Note_on_c, 0, 59, 63
2, 259389, Note_on_c, 0, 64, 56
2, 259576, Note_on_c, 0, 52, 0
2, 259581, Note_on_c, 0, 52, 62
2, 259768, Note_on_c, 0, 57, 57
2, 259963, Note_on_c, 0, 69, 69
2, 260382, Note_on_c, 0, 64, 0
2, 260390, Note_on_c, 0, 64, 72
2, 260643, Note_on_c, 0, 76, 62
2, 260897, Note_on_c, 0, 45, 0
2, 260908, Note_on_c, 0, 45, 20
2, 260951, Note_on_c, 0, 69, 0
2, 260956, Note_on_c, 0, 69, 61
2, 261324, Note_on_c, 0, 83, 70
2, 261749, Note_on_c, 0, 57, 0
2, 261760, Note_on_c, 0, 57, 35
2, 261803, Note_on_c, 0, 64, 0
2, 261810, Note_on_c, 0, 64, 57
2, 261876, Note_on_c, 0, 71, 59
2, 261918, Note_on_c, 0, 76, 0
2, 261929, Note_on_c, 0, 76, 56
2, 261995, Note_on_c, 0, 81, 60
2, 262064, Note_on_c, 0, 83, 0
2, 262071, Note_on_c, 0, 83, 63
2, 262160, Note_on_c, 0, 85, 76
2, 263040, Note_on_c, 0, 59, 0
2, 264192, Note_on_c, 0, 52, 0
2, 264529, Note_on_c, 0, 69, 0
2, 264538, Note_on_c, 0, 69, 60
2, 265512, Note_on_c, 0, 45, 0
2, 266365, Note_on_c, 0, 57, 0
2, 266419, Note_on_c, 0, 64, 0
2, 266488, Note_on_c, 0, 71, 0
2, 266534, Note_on_c, 0, 76, 0
2, 266603, Note_on_c, 0, 81, 0
2, 266680, Note_on_c, 0, 83, 0
2, 266772, Note_on_c, 0, 85, 0
2, 266880, Note_on_c, 0, 69, 0
2, 268423, Control_c, 0, 64, 0
2, 268424, End_track
0, 0, End_of_file
