0, 0, Header, 1, 2, 384
1, 0, Start_track
1, 0, Tempo, 500000
1, 0, Time_signature, 4, 2, 24, 8
1, 1, End_track
2, 0, Start_track
2, 1021, Control_c, 0, 64, 127
2, 1208, Note_on_c, 0, 92, 86
2, 1271, Note_on_c, 0, 91, 84
2, 1332, Note_on_c, 0, 87, 84
2, 1372, Note_on_c, 0, 82, 72
2, 1440, Note_on_c, 0, 80, 82
2, 1505, Note_on_c, 0, 79, 83
2, 1534, Note_on_c, 0, 75, 81
2, 1577, Note_on_c, 0, 70, 76
2, 1625, Note_on_c, 0, 63, 74
2, 1681, Note_on_c, 0, 56, 79
2, 1748, Note_on_c, 0, 49, 93
2, 2004, Note_on_c, 0, 80, 0
2, 2009, Note_on_c, 0, 80, 91
2, 2031, Note_on_c, 0, 68, 68
2, 2146, Note_on_c, 0, 61, 67
2, 2242, Note_on_c, 0, 63, 0
2, 2242, Note_on_c, 0, 80, 0
2, 2253, Note_on_c, 0, 63, 65
2, 2253, Note_on_c, 0, 80, 87
2, 2357, Note_on_c, 0, 68, 0
2, 2369, Note_on_c, 0, 68, 74
2, 2496, Note_on_c, 0, 61, 0
2, 2496, Note_on_c, 0, 80, 0
2, 2501, Note_on_c, 0, 80, 85
2, 2505, Note_on_c, 0, 61, 70
2, 2603, Note_on_c, 0, 63, 0
2, 2611, Note_on_c, 0, 80, 0
2, 2613, Note_on_c, 0, 63, 65
2, 2615, Note_on_c, 0, 80, 88
2, 2734, Note_on_c, 0, 68, 0
2, 2734, Note_on_c, 0, 80, 0
2, 2740, Note_on_c, 0, 68, 75
2, 2744, Note_on_c, 0, 80, 93
2, 2856, Note_on_c, 0, 61, 0
2, 2867, Note_on_c, 0, 61, 74
2, 2979, Note_on_c, 0, 63, 0
2, 2984, Note_on_c, 0, 63, 65
2, 3095, Note_on_c, 0, 68, 0
2, 3095, Note_on_c, 0, 80, 0
2, 3101, Note_on_c, 0, 80, 90
2, 3103, Note_on_c, 0, 68, 69
2, 3217, Note_on_c, 0, 61, 0
2, 3229, Note_on_c, 0, 61, 80
2, 3348, Note_on_c, 0, 63, 0
2, 3353, Note_on_c, 0, 63, 61
2, 3463, Note_on_c, 0, 82, 0
2, 3471, Note_on_c, 0, 68, 0
2, 3474, Note_on_c, 0, 82, 94
2, 3475, Note_on_c, 0, 68, 81
2, 3586, Note_on_c, 0, 61, 0
2, 3597, Note_on_c, 0, 61, 73
2, 3663, Note_on_c, 0, 91, 0
2, 3709, Note_on_c, 0, 92, 0
2, 3711, Control_c, 0, 64, 0
2, 3713, Note_on_c, 0, 49, 0
2, 3713, Note_on_c, 0, 56, 0
2, 3713, Note_on_c, 0, 61, 0
2, 3713, Note_on_c, 0, 68, 0
2, 3714, Note_on_c, 0, 80, 0
2, 3714, Note_on_c, 0, 63, 0
2, 3715, Note_on_c, 0, 82, 0
2, 3717, Note_on_c, 0, 79, 0
2, 3721, Note_on_c, 0, 79, 96
2, 3722, Note_on_c, 0, 51, 72
2, 3724, Note_on_c, 0, 70, 0
2, 3724, Note_on_c, 0, 87, 0
2, 3732, Note_on_c, 0, 75, 0
2, 3809, Control_c, 0, 64, 127
2, 3862, Note_on_c, 0, 58, 71
2, 3973, Note_on_c, 0, 63, 70
2, 4090, Note_on_c, 0, 77, 91
2, 4090, Note_on_c, 0, 67, 72
2, 4208, Note_on_c, 0, 58, 0
2, 4219, Note_on_c, 0, 58, 58
2, 4331, Note_on_c, 0, 63, 0
2, 4342, Note_on_c, 0, 63, 66
2, 4431, Note_on_c, 0, 67, 0
2, 4436, Note_on_c, 0, 75, 88
2, 4442, Note_on_c, 0, 67, 72
2, 4702, Note_on_c, 0, 72, 68
2, 4824, Note_on_c, 0, 80, 70
2, 4902, Note_on_c, 0, 63, 0
2, 4903, Note_on_c, 0, 51, 0
2, 4903, Control_c, 0, 64, 0
2, 4904, Note_on_c, 0, 58, 0
2, 4904, Note_on_c, 0, 67, 0
2, 4910, Note_on_c, 0, 77, 0
2, 4910, Note_on_c, 0, 75, 0
2, 4911, Note_on_c, 0, 72, 0
2, 4938, Note_on_c, 0, 79, 0
2, 4944, Note_on_c, 0, 79, 74
2, 5059, Note_on_c, 0, 72, 70
2, 5065, Note_on_c, 0, 79, 0
2, 5084, Note_on_c, 0, 80, 0
2, 5168, Note_on_c, 0, 80, 80
2, 5258, Note_on_c, 0, 72, 0
2, 5280, Note_on_c, 0, 80, 0
2, 5292, Note_on_c, 0, 79, 77
2, 5407, Note_on_c, 0, 72, 79
2, 5416, Note_on_c, 0, 79, 0
2, 5527, Note_on_c, 0, 80, 81
2, 5564, Note_on_c, 0, 72, 0
2, 5607, Note_on_c, 0, 80, 0
2, 5640, Note_on_c, 0, 79, 79
2, 5751, Note_on_c, 0, 79, 0
2, 5754, Note_on_c, 0, 72, 85
2, 5871, Note_on_c, 0, 80, 90
2, 5912, Note_on_c, 0, 72, 0
2, 5966, Note_on_c, 0, 79, 93
2, 5994, Note_on_c, 0, 80, 0
2, 6090, Note_on_c, 0, 82, 108
2, 6093, Note_on_c, 0, 70, 102
2, 6120, Note_on_c, 0, 79, 0
2, 6140, Note_on_c, 0, 70, 0
2, 6146, Note_on_c, 0, 82, 0
2, 6202, Note_on_c, 0, 80, 107
2, 6204, Note_on_c, 0, 68, 108
2, 6236, Note_on_c, 0, 68, 0
2, 6282, Note_on_c, 0, 80, 0
2, 6468, Note_on_c, 0, 84, 106
2, 6471, Note_on_c, 0, 77, 102
2, 6471, Note_on_c, 0, 72, 105
2, 6477, Note_on_c, 0, 80, 99
2, 6477, Note_on_c, 0, 25, 104
2, 6478, Note_on_c, 0, 37, 104
2, 6504, Control_c, 0, 64, 127
2, 6733, Note_on_c, 0, 49, 63
2, 6868, Note_on_c, 0, 82, 102
2, 6868, Note_on_c, 0, 56, 83
2, 6875, Note_on_c, 0, 70, 92
2, 6965, Note_on_c, 0, 49, 0
2, 6974, Note_on_c, 0, 49, 91
2, 7096, Note_on_c, 0, 56, 0
2, 7104, Note_on_c, 0, 84, 0
2, 7104, Note_on_c, 0, 56, 83
2, 7109, Note_on_c, 0, 68, 88
2, 7109, Note_on_c, 0, 61, 88
2, 7111, Note_on_c, 0, 77, 0
2, 7114, Note_on_c, 0, 53, 76
2, 7114, Note_on_c, 0, 84, 103
2, 7117, Note_on_c, 0, 77, 96
2, 7119, Note_on_c, 0, 72, 0
2, 7123, Note_on_c, 0, 72, 87
2, 7124, Note_on_c, 0, 73, 75
2, 7134, Note_on_c, 0, 73, 0
2, 7203, Note_on_c, 0, 49, 0
2, 7209, Note_on_c, 0, 49, 81
2, 7326, Note_on_c, 0, 61, 0
2, 7330, Note_on_c, 0, 65, 92
2, 7334, Note_on_c, 0, 56, 0
2, 7336, Note_on_c, 0, 61, 83
2, 7338, Note_on_c, 0, 87, 107
2, 7338, Note_on_c, 0, 56, 83
2, 7342, Note_on_c, 0, 75, 102
2, 7441, Note_on_c, 0, 56, 0
2, 7452, Note_on_c, 0, 56, 80
2, 7557, Note_on_c, 0, 68, 0
2, 7564, Note_on_c, 0, 53, 0
2, 7564, Note_on_c, 0, 61, 0
2, 7564, Note_on_c, 0, 65, 0
2, 7564, Note_on_c, 0, 77, 0
2, 7564, Note_on_c, 0, 80, 0
2, 7567, Note_on_c, 0, 68, 100
2, 7568, Note_on_c, 0, 85, 103
2, 7569, Note_on_c, 0, 73, 98
2, 7570, Note_on_c, 0, 80, 94
2, 7571, Note_on_c, 0, 65, 74
2, 7571, Note_on_c, 0, 77, 82
2, 7574, Note_on_c, 0, 61, 80
2, 7575, Note_on_c, 0, 53, 68
2, 7687, Note_on_c, 0, 56, 0
2, 7692, Note_on_c, 0, 56, 90
2, 7795, Note_on_c, 0, 72, 0
2, 7795, Note_on_c, 0, 84, 0
2, 7803, Note_on_c, 0, 84, 101
2, 7806, Note_on_c, 0, 72, 90
2, 7810, Note_on_c, 0, 65, 0
2, 7818, Note_on_c, 0, 56, 0
2, 7818, Note_on_c, 0, 61, 0
2, 7820, Note_on_c, 0, 65, 83
2, 7822, Note_on_c, 0, 61, 81
2, 7823, Note_on_c, 0, 56, 67
2, 7910, Note_on_c, 0, 56, 0
2, 7910, Note_on_c, 0, 70, 0
2, 7910, Note_on_c, 0, 82, 0
2, 7915, Note_on_c, 0, 56, 90
2, 7915, Note_on_c, 0, 82, 107
2, 7919, Note_on_c, 0, 70, 106
2, 8025, Note_on_c, 0, 25, 0
2, 8048, Note_on_c, 0, 37, 0
2, 8048, Note_on_c, 0, 49, 0
2, 8053, Note_on_c, 0, 49, 102
2, 8056, Note_on_c, 0, 37, 93
2, 8060, Note_on_c, 0, 44, 77
2, 8061, Note_on_c, 0, 56, 0
2, 8061, Note_on_c, 0, 65, 0
2, 8062, Note_on_c, 0, 68, 0
2, 8062, Note_on_c, 0, 87, 0
2, 8062, Note_on_c, 0, 80, 0
2, 8062, Note_on_c, 0, 85, 0
2, 8062, Note_on_c, 0, 72, 0
2, 8062, Note_on_c, 0, 61, 0
2, 8063, Note_on_c, 0, 84, 0
2, 8063, Note_on_c, 0, 75, 0
2, 8063, Note_on_c, 0, 73, 0
2, 8063, Note_on_c, 0, 82, 0
2, 8066, Note_on_c, 0, 70, 0
2, 8079, Note_on_c, 0, 53, 0
2, 8079, Note_on_c, 0, 77, 0
2, 8086, Control_c, 0, 64, 0
2, 8099, Note_on_c, 0, 44, 0
2, 8102, Note_on_c, 0, 49, 0
2, 8110, Note_on_c, 0, 37, 0
2, 8159, Note_on_c, 0, 80, 103
2, 8159, Note_on_c, 0, 37, 92
2, 8160, Note_on_c, 0, 68, 103
2, 8256, Note_on_c, 0, 37, 0
2, 8263, Note_on_c, 0, 68, 0
2, 8264, Note_on_c, 0, 44, 80
2, 8265, Note_on_c, 0, 37, 84
2, 8309, Note_on_c, 0, 37, 0
2, 8309, Note_on_c, 0, 44, 0
2, 8309, Note_on_c, 0, 80, 0
2, 8403, Note_on_c, 0, 82, 112
2, 8405, Note_on_c, 0, 39, 96
2, 8406, Note_on_c, 0, 75, 100
2, 8406, Note_on_c, 0, 27, 90
2, 8406, Note_on_c, 0, 79, 96
2, 8407, Note_on_c, 0, 70, 105
2, 8440, Control_c, 0, 64, 127
2, 8642, Note_on_c, 0, 51, 69
2, 8744, Note_on_c, 0, 63, 83
2, 8745, Note_on_c, 0, 58, 89
2, 8750, Note_on_c, 0, 55, 77
2, 8977, Note_on_c, 0, 51, 0
2, 8988, Note_on_c, 0, 51, 89
2, 9100, Note_on_c, 0, 51, 0
2, 9108, Note_on_c, 0, 58, 0
2, 9111, Note_on_c, 0, 51, 70
2, 9112, Note_on_c, 0, 58, 58
2, 9192, Note_on_c, 0, 58, 0
2, 9192, Note_on_c, 0, 63, 0
2, 9200, Note_on_c, 0, 63, 79
2, 9202, Note_on_c, 0, 58, 69
2, 9218, Note_on_c, 0, 67, 68
2, 9223, Note_on_c, 0, 67, 0
2, 9231, Note_on_c, 0, 70, 0
2, 9231, Note_on_c, 0, 82, 0
2, 9235, Note_on_c, 0, 82, 103
2, 9238, Note_on_c, 0, 70, 93
2, 9312, Note_on_c, 0, 27, 0
2, 9313, Control_c, 0, 64, 0
2, 9316, Note_on_c, 0, 63, 0
2, 9317, Note_on_c, 0, 75, 0
2, 9317, Note_on_c, 0, 79, 0
2, 9317, Note_on_c, 0, 58, 0
2, 9318, Note_on_c, 0, 82, 0
2, 9318, Note_on_c, 0, 70, 0
2, 9331, Note_on_c, 0, 55, 0
2, 9338, Note_on_c, 0, 39, 0
2, 9338, Note_on_c, 0, 51, 0
2, 9343, Note_on_c, 0, 39, 90
2, 9348, Note_on_c, 0, 80, 98
2, 9351, Note_on_c, 0, 68, 89
2, 9369, Control_c, 0, 64, 127
2, 9456, Note_on_c, 0, 79, 101
2, 9461, Note_on_c, 0, 67, 87
2, 9506, Note_on_c, 0, 58, 11
2, 9569, Note_on_c, 0, 68, 0
2, 9569, Note_on_c, 0, 80, 0
2, 9577, Note_on_c, 0, 80, 96
2, 9578, Note_on_c, 0, 68, 100
2, 9666, Note_on_c, 0, 63, 80
2, 9669, Note_on_c, 0, 58, 0
2, 9675, Note_on_c, 0, 58, 72
2, 9680, Note_on_c, 0, 55, 70
2, 9680, Note_on_c, 0, 82, 103
2, 9687, Note_on_c, 0, 70, 87
2, 9799, Note_on_c, 0, 39, 0
2, 9799, Note_on_c, 0, 79, 0
2, 9803, Note_on_c, 0, 87, 108
2, 9804, Note_on_c, 0, 39, 94
2, 9806, Note_on_c, 0, 79, 95
2, 9807, Note_on_c, 0, 75, 100
2, 10027, Note_on_c, 0, 51, 70
2, 10033, Note_on_c, 0, 85, 103
2, 10033, Note_on_c, 0, 73, 99
2, 10114, Note_on_c, 0, 63, 0
2, 10122, Note_on_c, 0, 55, 0
2, 10122, Note_on_c, 0, 58, 0
2, 10124, Note_on_c, 0, 63, 74
2, 10126, Note_on_c, 0, 55, 69
2, 10127, Note_on_c, 0, 58, 78
2, 10258, Control_c, 0, 64, 0
2, 10259, Note_on_c, 0, 68, 0
2, 10260, Note_on_c, 0, 67, 0
2, 10260, Note_on_c, 0, 87, 0
2, 10260, Note_on_c, 0, 58, 0
2, 10260, Note_on_c, 0, 80, 0
2, 10261, Note_on_c, 0, 63, 0
2, 10261, Note_on_c, 0, 82, 0
2, 10261, Note_on_c, 0, 85, 0
2, 10262, Note_on_c, 0, 73, 0
2, 10262, Note_on_c, 0, 55, 0
2, 10262, Note_on_c, 0, 70, 0
2, 10268, Note_on_c, 0, 75, 0
2, 10268, Note_on_c, 0, 79, 0
2, 10277, Note_on_c, 0, 84, 108
2, 10279, Note_on_c, 0, 75, 105
2, 10279, Note_on_c, 0, 79, 95
2, 10279, Note_on_c, 0, 72, 107
2, 10279, Note_on_c, 0, 48, 97
2, 10280, Note_on_c, 0, 36, 95
2, 10283, Note_on_c, 0, 39, 0
2, 10283, Note_on_c, 0, 51, 0
2, 10337, Control_c, 0, 64, 127
2, 10339, Note_on_c, 0, 36, 0
2, 10521, Note_on_c, 0, 48, 0
2, 10526, Note_on_c, 0, 48, 58
2, 10529, Note_on_c, 0, 60, 49
2, 10650, Note_on_c, 0, 82, 103
2, 10655, Note_on_c, 0, 70, 93
2, 10656, Note_on_c, 0, 55, 82
2, 10656, Note_on_c, 0, 51, 83
2, 10767, Note_on_c, 0, 48, 0
2, 10771, Note_on_c, 0, 48, 77
2, 10897, Note_on_c, 0, 48, 0
2, 10897, Note_on_c, 0, 55, 0
2, 10897, Note_on_c, 0, 60, 0
2, 10897, Note_on_c, 0, 72, 0
2, 10897, Note_on_c, 0, 75, 0
2, 10897, Note_on_c, 0, 84, 0
2, 10902, Note_on_c, 0, 55, 75
2, 10902, Note_on_c, 0, 84, 98
2, 10903, Note_on_c, 0, 60, 87
2, 10903, Note_on_c, 0, 48, 85
2, 10906, Note_on_c, 0, 72, 97
2, 10907, Note_on_c, 0, 75, 100
2, 10997, Note_on_c, 0, 48, 0
2, 11002, Note_on_c, 0, 48, 74
2, 11120, Note_on_c, 0, 60, 0
2, 11124, Note_on_c, 0, 63, 98
2, 11131, Note_on_c, 0, 60, 83
2, 11134, Note_on_c, 0, 89, 108
2, 11135, Note_on_c, 0, 77, 104
2, 11251, Note_on_c, 0, 55, 0
2, 11256, Note_on_c, 0, 55, 77
2, 11358, Note_on_c, 0, 63, 0
2, 11366, Note_on_c, 0, 48, 0
2, 11366, Note_on_c, 0, 75, 0
2, 11366, Note_on_c, 0, 79, 0
2, 11366, Note_on_c, 0, 67, 99
2, 11369, Note_on_c, 0, 63, 80
2, 11370, Note_on_c, 0, 87, 110
2, 11371, Note_on_c, 0, 79, 97
2, 11372, Note_on_c, 0, 48, 79
2, 11372, Note_on_c, 0, 75, 102
2, 11473, Note_on_c, 0, 55, 0
2, 11481, Note_on_c, 0, 55, 84
2, 11589, Note_on_c, 0, 60, 0
2, 11589, Note_on_c, 0, 63, 0
2, 11589, Note_on_c, 0, 84, 0
2, 11594, Note_on_c, 0, 63, 87
2, 11596, Note_on_c, 0, 72, 0
2, 11599, Note_on_c, 0, 60, 85
2, 11600, Note_on_c, 0, 84, 102
2, 11606, Note_on_c, 0, 72, 94
2, 11673, Note_on_c, 0, 55, 0
2, 11684, Note_on_c, 0, 55, 76
2, 11712, Note_on_c, 0, 82, 0
2, 11719, Note_on_c, 0, 70, 0
2, 11720, Note_on_c, 0, 82, 109
2, 11724, Note_on_c, 0, 70, 98
2, 11827, Note_on_c, 0, 48, 0
2, 11831, Note_on_c, 0, 43, 78
2, 11835, Note_on_c, 0, 48, 95
2, 11876, Note_on_c, 0, 67, 0
2, 11876, Note_on_c, 0, 77, 0
2, 11876, Note_on_c, 0, 51, 0
2, 11877, Note_on_c, 0, 63, 0
2, 11877, Note_on_c, 0, 82, 0
2, 11877, Note_on_c, 0, 84, 0
2, 11877, Note_on_c, 0, 48, 0
2, 11877, Note_on_c, 0, 75, 0
2, 11877, Note_on_c, 0, 79, 0
2, 11877, Control_c, 0, 64, 0
2, 11877, Note_on_c, 0, 87, 0
2, 11877, Note_on_c, 0, 89, 0
2, 11878, Note_on_c, 0, 70, 0
2, 11896, Note_on_c, 0, 55, 0
2, 11896, Note_on_c, 0, 60, 0
2, 11896, Note_on_c, 0, 72, 0
2, 11911, Note_on_c, 0, 43, 0
2, 11961, Note_on_c, 0, 80, 100
2, 11962, Note_on_c, 0, 68, 99
2, 11963, Note_on_c, 0, 36, 85
2, 12042, Note_on_c, 0, 36, 0
2, 12051, Note_on_c, 0, 48, 76
2, 12051, Note_on_c, 0, 36, 75
2, 12058, Note_on_c, 0, 80, 0
2, 12072, Note_on_c, 0, 68, 0
2, 12089, Note_on_c, 0, 48, 0
2, 12095, Note_on_c, 0, 36, 0
2, 12179, Note_on_c, 0, 82, 111
2, 12186, Note_on_c, 0, 75, 100
2, 12190, Note_on_c, 0, 41, 94
2, 12190, Note_on_c, 0, 70, 103
2, 12192, Note_on_c, 0, 29, 94
2, 12234, Control_c, 0, 64, 127
2, 12410, Note_on_c, 0, 41, 0
2, 12422, Note_on_c, 0, 41, 80
2, 12422, Note_on_c, 0, 53, 86
2, 12422, Note_on_c, 0, 72, 80
2, 12423, Note_on_c, 0, 80, 92
2, 12423, Note_on_c, 0, 68, 92
2, 12530, Note_on_c, 0, 56, 74
2, 12533, Note_on_c, 0, 82, 0
2, 12544, Note_on_c, 0, 82, 104
2, 12549, Note_on_c, 0, 70, 0
2, 12554, Note_on_c, 0, 70, 80
2, 12656, Note_on_c, 0, 41, 0
2, 12656, Note_on_c, 0, 72, 0
2, 12660, Note_on_c, 0, 84, 104
2, 12662, Note_on_c, 0, 41, 87
2, 12664, Note_on_c, 0, 75, 0
2, 12667, Note_on_c, 0, 72, 94
2, 12673, Note_on_c, 0, 75, 92
2, 12756, Note_on_c, 0, 53, 0
2, 12765, Note_on_c, 0, 53, 92
2, 12885, Control_c, 0, 64, 0
2, 12894, Note_on_c, 0, 41, 0
2, 12894, Note_on_c, 0, 75, 0
2, 12900, Note_on_c, 0, 87, 108
2, 12903, Note_on_c, 0, 41, 75
2, 12905, Note_on_c, 0, 75, 102
2, 12917, Control_c, 0, 64, 127
2, 13002, Note_on_c, 0, 56, 0
2, 13002, Note_on_c, 0, 68, 0
2, 13006, Note_on_c, 0, 56, 88
2, 13007, Note_on_c, 0, 60, 90
2, 13008, Note_on_c, 0, 68, 87
2, 13132, Note_on_c, 0, 53, 0
2, 13138, Note_on_c, 0, 53, 91
2, 13138, Note_on_c, 0, 67, 95
2, 13204, Note_on_c, 0, 41, 0
2, 13205, Note_on_c, 0, 53, 0
2, 13205, Note_on_c, 0, 82, 0
2, 13205, Note_on_c, 0, 84, 0
2, 13205, Note_on_c, 0, 72, 0
2, 13205, Note_on_c, 0, 56, 0
2, 13206, Note_on_c, 0, 75, 0
2, 13206, Note_on_c, 0, 68, 0
2, 13206, Note_on_c, 0, 70, 0
2, 13206, Note_on_c, 0, 87, 0
2, 13208, Note_on_c, 0, 67, 0
2, 13208, Control_c, 0, 64, 0
2, 13217, Note_on_c, 0, 29, 0
2, 13224, Note_on_c, 0, 80, 0
2, 13248, Note_on_c, 0, 60, 0
2, 13254, Note_on_c, 0, 68, 95
2, 13256, Note_on_c, 0, 60, 87
2, 13317, Control_c, 0, 64, 127
2, 13332, Note_on_c, 0, 60, 0
2, 13336, Note_on_c, 0, 72, 88
2, 13386, Note_on_c, 0, 63, 78
2, 13389, Note_on_c, 0, 75, 100
2, 13463, Note_on_c, 0, 68, 0
2, 13469, Note_on_c, 0, 68, 84
2, 13475, Note_on_c, 0, 79, 90
2, 13550, Note_on_c, 0, 84, 93
2, 13562, Note_on_c, 0, 72, 0
2, 13571, Note_on_c, 0, 72, 86
2, 13585, Note_on_c, 0, 87, 89
2, 13685, Note_on_c, 0, 75, 0
2, 13685, Note_on_c, 0, 84, 0
2, 13689, Note_on_c, 0, 75, 98
2, 13691, Note_on_c, 0, 91, 101
2, 13693, Note_on_c, 0, 87, 0
2, 13696, Note_on_c, 0, 84, 95
2, 13697, Note_on_c, 0, 87, 88
2, 13800, Note_on_c, 0, 84, 0
2, 13800, Note_on_c, 0, 87, 0
2, 13800, Note_on_c, 0, 91, 0
2, 13807, Note_on_c, 0, 91, 97
2, 13808, Note_on_c, 0, 87, 98
2, 13812, Note_on_c, 0, 84, 84
2, 13874, Note_on_c, 0, 91, 0
2, 13874, Note_on_c, 0, 75, 0
2, 13874, Note_on_c, 0, 68, 0
2, 13874, Note_on_c, 0, 72, 0
2, 13875, Note_on_c, 0, 79, 0
2, 13875, Note_on_c, 0, 84, 0
2, 13876, Note_on_c, 0, 63, 0
2, 13878, Control_c, 0, 64, 0
2, 13944, Note_on_c, 0, 63, 92
2, 13969, Control_c, 0, 64, 127
2, 14000, Note_on_c, 0, 87, 0
2, 14184, Note_on_c, 0, 72, 97
2, 14186, Note_on_c, 0, 60, 78
2, 14187, Note_on_c, 0, 53, 78
2, 14189, Note_on_c, 0, 68, 78
2, 14232, Note_on_c, 0, 60, 0
2, 14234, Note_on_c, 0, 53, 0
2, 14235, Note_on_c, 0, 63, 0
2, 14238, Control_c, 0, 64, 0
2, 14284, Note_on_c, 0, 68, 0
2, 14287, Note_on_c, 0, 53, 77
2, 14288, Note_on_c, 0, 68, 72
2, 14289, Note_on_c, 0, 56, 65
2, 14321, Note_on_c, 0, 53, 0
2, 14322, Note_on_c, 0, 56, 0
2, 14420, Note_on_c, 0, 56, 64
2, 14424, Note_on_c, 0, 70, 82
2, 14426, Note_on_c, 0, 60, 58
2, 14426, Note_on_c, 0, 53, 63
2, 14449, Note_on_c, 0, 70, 0
2, 14454, Note_on_c, 0, 56, 0
2, 14457, Note_on_c, 0, 53, 0
2, 14457, Note_on_c, 0, 60, 0
2, 14461, Note_on_c, 0, 68, 0
2, 14461, Note_on_c, 0, 72, 0
2, 14540, Note_on_c, 0, 70, 90
2, 14541, Note_on_c, 0, 60, 65
2, 14542, Note_on_c, 0, 56, 62
2, 14547, Note_on_c, 0, 53, 65
2, 14573, Note_on_c, 0, 60, 0
2, 14577, Note_on_c, 0, 56, 0
2, 14577, Note_on_c, 0, 53, 0
2, 14664, Note_on_c, 0, 60, 60
2, 14664, Note_on_c, 0, 53, 61
2, 14665, Note_on_c, 0, 56, 60
2, 14665, Note_on_c, 0, 68, 63
2, 14676, Note_on_c, 0, 68, 0
2, 14701, Note_on_c, 0, 56, 0
2, 14701, Note_on_c, 0, 60, 0
2, 14702, Note_on_c, 0, 53, 0
2, 14781, Note_on_c, 0, 70, 0
2, 14786, Note_on_c, 0, 60, 69
2, 14787, Note_on_c, 0, 68, 86
2, 14787, Note_on_c, 0, 56, 68
2, 14789, Note_on_c, 0, 53, 52
2, 14822, Note_on_c, 0, 60, 0
2, 14825, Note_on_c, 0, 56, 0
2, 14832, Note_on_c, 0, 53, 0
2, 14891, Note_on_c, 0, 68, 0
2, 14901, Note_on_c, 0, 53, 56
2, 14902, Note_on_c, 0, 56, 56
2, 14902, Note_on_c, 0, 68, 63
2, 14933, Note_on_c, 0, 56, 0
2, 14934, Note_on_c, 0, 53, 0
2, 14991, Note_on_c, 0, 68, 0
2, 15017, Note_on_c, 0, 53, 69
2, 15018, Note_on_c, 0, 56, 63
2, 15024, Note_on_c, 0, 70, 85
2, 15024, Note_on_c, 0, 60, 56
2, 15054, Note_on_c, 0, 56, 0
2, 15055, Note_on_c, 0, 53, 0
2, 15057, Note_on_c, 0, 60, 0
2, 15141, Note_on_c, 0, 68, 56
2, 15142, Note_on_c, 0, 56, 56
2, 15146, Note_on_c, 0, 60, 58
2, 15146, Note_on_c, 0, 53, 44
2, 15175, Note_on_c, 0, 60, 0
2, 15177, Note_on_c, 0, 56, 0
2, 15183, Note_on_c, 0, 53, 0
2, 15191, Note_on_c, 0, 68, 0
2, 15251, Note_on_c, 0, 53, 71
2, 15253, Note_on_c, 0, 68, 67
2, 15254, Note_on_c, 0, 56, 64
2, 15255, Note_on_c, 0, 60, 66
2, 15286, Note_on_c, 0, 56, 0
2, 15287, Note_on_c, 0, 60, 0
2, 15287, Note_on_c, 0, 53, 0
2, 15367, Note_on_c, 0, 68, 0
2, 15372, Note_on_c, 0, 60, 66
2, 15374, Note_on_c, 0, 53, 66
2, 15375, Note_on_c, 0, 68, 63
2, 15376, Note_on_c, 0, 56, 62
2, 15404, Note_on_c, 0, 60, 0
2, 15407, Note_on_c, 0, 53, 0
2, 15408, Note_on_c, 0, 56, 0
2, 15494, Note_on_c, 0, 56, 66
2, 15494, Note_on_c, 0, 60, 62
2, 15494, Note_on_c, 0, 53, 59
2, 15524, Note_on_c, 0, 56, 0
2, 15524, Note_on_c, 0, 60, 0
2, 15532, Note_on_c, 0, 53, 0
2, 15598, Note_on_c, 0, 68, 0
2, 15607, Note_on_c, 0, 53, 67
2, 15608, Note_on_c, 0, 60, 62
2, 15608, Note_on_c, 0, 68, 67
2, 15608, Note_on_c, 0, 56, 68
2, 15641, Note_on_c, 0, 60, 0
2, 15642, Note_on_c, 0, 56, 0
2, 15645, Note_on_c, 0, 53, 0
2, 15723, Note_on_c, 0, 53, 69
2, 15725, Note_on_c, 0, 60, 62
2, 15725, Note_on_c, 0, 56, 66
2, 15761, Note_on_c, 0, 60, 0
2, 15762, Note_on_c, 0, 56, 0
2, 15763, Note_on_c, 0, 53, 0
2, 15797, Note_on_c, 0, 68, 0
2, 15841, Note_on_c, 0, 63, 81
2, 15845, Note_on_c, 0, 56, 73
2, 15845, Note_on_c, 0, 53, 72
2, 15846, Note_on_c, 0, 60, 67
2, 15878, Note_on_c, 0, 60, 0
2, 15878, Note_on_c, 0, 53, 0
2, 15878, Note_on_c, 0, 56, 0
2, 15947, Note_on_c, 0, 53, 74
2, 15953, Note_on_c, 0, 60, 69
2, 15960, Note_on_c, 0, 56, 55
2, 15983, Note_on_c, 0, 53, 0
2, 16012, Note_on_c, 0, 60, 0
2, 16035, Note_on_c, 0, 56, 0
2, 16035, Note_on_c, 0, 70, 0
2, 16038, Note_on_c, 0, 63, 0
2, 16069, Note_on_c, 0, 60, 83
2, 16072, Note_on_c, 0, 72, 92
2, 16074, Note_on_c, 0, 55, 74
2, 16074, Note_on_c, 0, 51, 76
2, 16108, Note_on_c, 0, 60, 0
2, 16114, Note_on_c, 0, 55, 0
2, 16116, Note_on_c, 0, 51, 0
2, 16186, Note_on_c, 0, 51, 70
2, 16188, Note_on_c, 0, 55, 68
2, 16192, Note_on_c, 0, 60, 66
2, 16193, Note_on_c, 0, 48, 55
2, 16224, Note_on_c, 0, 55, 0
2, 16225, Note_on_c, 0, 51, 0
2, 16230, Note_on_c, 0, 60, 0
2, 16235, Note_on_c, 0, 48, 0
2, 16302, Note_on_c, 0, 70, 77
2, 16308, Note_on_c, 0, 72, 0
2, 16308, Note_on_c, 0, 60, 71
2, 16309, Note_on_c, 0, 55, 66
2, 16313, Note_on_c, 0, 48, 61
2, 16315, Note_on_c, 0, 51, 63
2, 16331, Note_on_c, 0, 60, 0
2, 16340, Note_on_c, 0, 70, 0
2, 16348, Note_on_c, 0, 48, 0
2, 16351, Note_on_c, 0, 51, 0
2, 16358, Note_on_c, 0, 55, 0
2, 16420, Note_on_c, 0, 51, 70
2, 16420, Note_on_c, 0, 60, 75
2, 16422, Note_on_c, 0, 48, 67
2, 16423, Note_on_c, 0, 70, 89
2, 16423, Note_on_c, 0, 55, 64
2, 16453, Note_on_c, 0, 51, 0
2, 16454, Note_on_c, 0, 60, 0
2, 16454, Note_on_c, 0, 55, 0
2, 16458, Note_on_c, 0, 48, 0
2, 16546, Note_on_c, 0, 60, 66
2, 16546, Note_on_c, 0, 48, 56
2, 16546, Note_on_c, 0, 51, 66
2, 16546, Note_on_c, 0, 55, 64
2, 16583, Note_on_c, 0, 51, 0
2, 16585, Note_on_c, 0, 55, 0
2, 16619, Note_on_c, 0, 60, 0
2, 16634, Note_on_c, 0, 48, 0
2, 16664, Note_on_c, 0, 51, 67
2, 16665, Note_on_c, 0, 60, 71
2, 16667, Note_on_c, 0, 55, 67
2, 16669, Note_on_c, 0, 68, 84
2, 16696, Note_on_c, 0, 60, 0
2, 16698, Note_on_c, 0, 51, 0
2, 16701, Note_on_c, 0, 55, 0
2, 16727, Note_on_c, 0, 70, 0
2, 16778, Note_on_c, 0, 60, 70
2, 16784, Note_on_c, 0, 55, 68
2, 16784, Note_on_c, 0, 51, 64
2, 16814, Note_on_c, 0, 60, 0
2, 16815, Note_on_c, 0, 55, 0
2, 16817, Note_on_c, 0, 51, 0
2, 16899, Note_on_c, 0, 70, 85
2, 16901, Note_on_c, 0, 60, 78
2, 16904, Note_on_c, 0, 48, 72
2, 16905, Note_on_c, 0, 51, 74
2, 16906, Note_on_c, 0, 55, 74
2, 16937, Note_on_c, 0, 60, 0
2, 16943, Note_on_c, 0, 51, 0
2, 16943, Note_on_c, 0, 55, 0
2, 16946, Note_on_c, 0, 48, 0
2, 16949, Note_on_c, 0, 68, 0
2, 17029, Note_on_c, 0, 55, 64
2, 17030, Note_on_c, 0, 51, 64
2, 17030, Note_on_c, 0, 60, 69
2, 17063, Note_on_c, 0, 60, 0
2, 17066, Note_on_c, 0, 55, 0
2, 17067, Note_on_c, 0, 51, 0
2, 17145, Note_on_c, 0, 75, 91
2, 17146, Note_on_c, 0, 51, 68
2, 17147, Note_on_c, 0, 60, 72
2, 17147, Note_on_c, 0, 55, 66
2, 17151, Note_on_c, 0, 48, 67
2, 17177, Note_on_c, 0, 60, 0
2, 17180, Note_on_c, 0, 70, 0
2, 17180, Note_on_c, 0, 51, 0
2, 17181, Note_on_c, 0, 55, 0
2, 17183, Note_on_c, 0, 48, 0
2, 17261, Note_on_c, 0, 60, 70
2, 17262, Note_on_c, 0, 55, 67
2, 17266, Note_on_c, 0, 51, 67
2, 17267, Note_on_c, 0, 48, 62
2, 17297, Note_on_c, 0, 60, 0
2, 17298, Note_on_c, 0, 55, 0
2, 17326, Note_on_c, 0, 48, 0
2, 17326, Note_on_c, 0, 51, 0
2, 17352, Note_on_c, 0, 75, 0
2, 17384, Note_on_c, 0, 60, 78
2, 17385, Note_on_c, 0, 55, 75
2, 17385, Note_on_c, 0, 51, 70
2, 17389, Note_on_c, 0, 72, 90
2, 17415, Note_on_c, 0, 60, 0
2, 17419, Note_on_c, 0, 55, 0
2, 17420, Note_on_c, 0, 51, 0
2, 17505, Note_on_c, 0, 60, 73
2, 17506, Note_on_c, 0, 55, 73
2, 17506, Note_on_c, 0, 51, 66
2, 17507, Note_on_c, 0, 48, 61
2, 17518, Note_on_c, 0, 48, 0
2, 17542, Note_on_c, 0, 60, 0
2, 17542, Note_on_c, 0, 51, 0
2, 17543, Note_on_c, 0, 55, 0
2, 17617, Note_on_c, 0, 60, 73
2, 17618, Note_on_c, 0, 55, 74
2, 17619, Note_on_c, 0, 51, 74
2, 17621, Note_on_c, 0, 48, 66
2, 17651, Note_on_c, 0, 60, 0
2, 17655, Note_on_c, 0, 51, 0
2, 17657, Note_on_c, 0, 55, 0
2, 17671, Note_on_c, 0, 48, 0
2, 17743, Note_on_c, 0, 55, 68
2, 17743, Note_on_c, 0, 60, 69
2, 17744, Note_on_c, 0, 51, 70
2, 17744, Note_on_c, 0, 70, 86
2, 17745, Note_on_c, 0, 48, 63
2, 17756, Note_on_c, 0, 72, 0
2, 17775, Note_on_c, 0, 60, 0
2, 17777, Note_on_c, 0, 51, 0
2, 17780, Note_on_c, 0, 55, 0
2, 17791, Note_on_c, 0, 48, 0
2, 17843, Note_on_c, 0, 51, 75
2, 17844, Note_on_c, 0, 60, 74
2, 17859, Note_on_c, 0, 68, 89
2, 17889, Note_on_c, 0, 60, 0
2, 17890, Note_on_c, 0, 51, 0
2, 17940, Note_on_c, 0, 70, 0
2, 17980, Note_on_c, 0, 60, 79
2, 17982, Note_on_c, 0, 49, 77
2, 17983, Note_on_c, 0, 56, 69
2, 17987, Note_on_c, 0, 53, 60
2, 18013, Note_on_c, 0, 60, 0
2, 18016, Note_on_c, 0, 56, 0
2, 18018, Note_on_c, 0, 53, 0
2, 18019, Note_on_c, 0, 49, 0
2, 18103, Note_on_c, 0, 53, 67
2, 18104, Note_on_c, 0, 56, 60
2, 18105, Note_on_c, 0, 60, 64
2, 18112, Note_on_c, 0, 49, 52
2, 18117, Note_on_c, 0, 49, 0
2, 18139, Note_on_c, 0, 56, 0
2, 18139, Note_on_c, 0, 53, 0
2, 18143, Note_on_c, 0, 60, 0
2, 18147, Note_on_c, 0, 68, 0
2, 18213, Note_on_c, 0, 60, 73
2, 18214, Note_on_c, 0, 53, 68
2, 18214, Note_on_c, 0, 56, 69
2, 18215, Note_on_c, 0, 68, 87
2, 18251, Note_on_c, 0, 60, 0
2, 18252, Note_on_c, 0, 56, 0
2, 18253, Note_on_c, 0, 53, 0
2, 18332, Note_on_c, 0, 68, 0
2, 18343, Note_on_c, 0, 60, 56
2, 18346, Note_on_c, 0, 53, 49
2, 18348, Note_on_c, 0, 49, 44
2, 18350, Note_on_c, 0, 56, 38
2, 18376, Note_on_c, 0, 60, 0
2, 18378, Note_on_c, 0, 53, 0
2, 18378, Note_on_c, 0, 49, 0
2, 18380, Note_on_c, 0, 56, 0
2, 18452, Note_on_c, 0, 68, 92
2, 18454, Note_on_c, 0, 60, 73
2, 18454, Note_on_c, 0, 56, 78
2, 18457, Note_on_c, 0, 53, 70
2, 18458, Note_on_c, 0, 49, 70
2, 18496, Note_on_c, 0, 60, 0
2, 18497, Note_on_c, 0, 53, 0
2, 18497, Note_on_c, 0, 56, 0
2, 18498, Note_on_c, 0, 49, 0
2, 18585, Note_on_c, 0, 60, 65
2, 18589, Note_on_c, 0, 56, 63
2, 18589, Note_on_c, 0, 53, 50
2, 18590, Note_on_c, 0, 49, 52
2, 18614, Note_on_c, 0, 60, 0
2, 18616, Note_on_c, 0, 56, 0
2, 18619, Note_on_c, 0, 53, 0
2, 18624, Note_on_c, 0, 49, 0
2, 18631, Note_on_c, 0, 68, 0
2, 18694, Note_on_c, 0, 60, 74
2, 18697, Note_on_c, 0, 68, 83
2, 18699, Note_on_c, 0, 53, 71
2, 18699, Note_on_c, 0, 49, 69
2, 18702, Note_on_c, 0, 56, 64
2, 18731, Note_on_c, 0, 60, 0
2, 18734, Note_on_c, 0, 53, 0
2, 18735, Note_on_c, 0, 56, 0
2, 18735, Note_on_c, 0, 49, 0
2, 18745, Note_on_c, 0, 68, 0
2, 18818, Note_on_c, 0, 60, 71
2, 18819, Note_on_c, 0, 56, 66
2, 18820, Note_on_c, 0, 53, 56
2, 18821, Note_on_c, 0, 49, 62
2, 18823, Note_on_c, 0, 70, 89
2, 18849, Note_on_c, 0, 60, 0
2, 18852, Note_on_c, 0, 53, 0
2, 18852, Note_on_c, 0, 56, 0
2, 18857, Note_on_c, 0, 49, 0
2, 18934, Note_on_c, 0, 60, 67
2, 18935, Note_on_c, 0, 56, 69
2, 18936, Note_on_c, 0, 53, 61
2, 18937, Note_on_c, 0, 49, 62
2, 18967, Note_on_c, 0, 60, 0
2, 18970, Note_on_c, 0, 56, 0
2, 18972, Note_on_c, 0, 53, 0
2, 18975, Note_on_c, 0, 49, 0
2, 19057, Note_on_c, 0, 60, 72
2, 19060, Note_on_c, 0, 68, 92
2, 19061, Note_on_c, 0, 53, 66
2, 19065, Note_on_c, 0, 56, 67
2, 19065, Note_on_c, 0, 49, 65
2, 19088, Note_on_c, 0, 60, 0
2, 19095, Note_on_c, 0, 56, 0
2, 19097, Note_on_c, 0, 53, 0
2, 19100, Note_on_c, 0, 49, 0
2, 19179, Note_on_c, 0, 60, 70
2, 19181, Note_on_c, 0, 56, 64
2, 19184, Note_on_c, 0, 53, 60
2, 19185, Note_on_c, 0, 49, 59
2, 19212, Note_on_c, 0, 60, 0
2, 19212, Note_on_c, 0, 56, 0
2, 19217, Note_on_c, 0, 53, 0
2, 19219, Note_on_c, 0, 49, 0
2, 19223, Note_on_c, 0, 68, 0
2, 19223, Note_on_c, 0, 70, 0
2, 19295, Note_on_c, 0, 60, 73
2, 19296, Note_on_c, 0, 68, 88
2, 19296, Note_on_c, 0, 56, 72
2, 19296, Note_on_c, 0, 53, 68
2, 19301, Note_on_c, 0, 49, 65
2, 19334, Note_on_c, 0, 60, 0
2, 19335, Note_on_c, 0, 53, 0
2, 19336, Note_on_c, 0, 56, 0
2, 19341, Note_on_c, 0, 49, 0
2, 19418, Note_on_c, 0, 60, 73
2, 19424, Note_on_c, 0, 56, 63
2, 19425, Note_on_c, 0, 49, 62
2, 19427, Note_on_c, 0, 53, 60
2, 19453, Note_on_c, 0, 60, 0
2, 19457, Note_on_c, 0, 56, 0
2, 19457, Note_on_c, 0, 53, 0
2, 19458, Note_on_c, 0, 49, 0
2, 19533, Note_on_c, 0, 60, 67
2, 19534, Note_on_c, 0, 53, 63
2, 19534, Note_on_c, 0, 49, 63
2, 19535, Note_on_c, 0, 56, 65
2, 19569, Note_on_c, 0, 56, 0
2, 19571, Note_on_c, 0, 53, 0
2, 19573, Note_on_c, 0, 49, 0
2, 19584, Note_on_c, 0, 60, 0
2, 19649, Note_on_c, 0, 60, 72
2, 19649, Note_on_c, 0, 63, 80
2, 19650, Note_on_c, 0, 56, 66
2, 19652, Note_on_c, 0, 49, 69
2, 19654, Note_on_c, 0, 53, 71
2, 19687, Note_on_c, 0, 60, 0
2, 19688, Note_on_c, 0, 49, 0
2, 19689, Note_on_c, 0, 56, 0
2, 19690, Note_on_c, 0, 53, 0
2, 19725, Note_on_c, 0, 63, 0
2, 19729, Note_on_c, 0, 68, 0
2, 19757, Note_on_c, 0, 49, 73
2, 19764, Note_on_c, 0, 60, 70
2, 19767, Note_on_c, 0, 61, 71
2, 19772, Note_on_c, 0, 56, 62
2, 19774, Note_on_c, 0, 72, 90
2, 19776, Note_on_c, 0, 61, 0
2, 19779, Note_on_c, 0, 53, 68
2, 19796, Note_on_c, 0, 49, 0
2, 19799, Note_on_c, 0, 56, 0
2, 19814, Note_on_c, 0, 60, 0
2, 19822, Note_on_c, 0, 53, 0
2, 19886, Note_on_c, 0, 60, 81
2, 19889, Note_on_c, 0, 58, 78
2, 19893, Note_on_c, 0, 51, 69
2, 19895, Note_on_c, 0, 55, 70
2, 19924, Note_on_c, 0, 60, 0
2, 19925, Note_on_c, 0, 58, 0
2, 19929, Note_on_c, 0, 51, 0
2, 19933, Note_on_c, 0, 55, 0
2, 20010, Note_on_c, 0, 70, 88
2, 20010, Note_on_c, 0, 58, 73
2, 20010, Note_on_c, 0, 60, 73
2, 20010, Note_on_c, 0, 55, 69
2, 20010, Note_on_c, 0, 51, 65
2, 20039, Note_on_c, 0, 58, 0
2, 20041, Note_on_c, 0, 60, 0
2, 20041, Note_on_c, 0, 55, 0
2, 20060, Note_on_c, 0, 51, 0
2, 20121, Note_on_c, 0, 60, 74
2, 20124, Note_on_c, 0, 58, 73
2, 20125, Note_on_c, 0, 55, 72
2, 20125, Note_on_c, 0, 51, 62
2, 20155, Note_on_c, 0, 58, 0
2, 20155, Note_on_c, 0, 60, 0
2, 20156, Note_on_c, 0, 55, 0
2, 20157, Note_on_c, 0, 51, 0
2, 20229, Note_on_c, 0, 70, 0
2, 20235, Note_on_c, 0, 60, 79
2, 20236, Note_on_c, 0, 70, 87
2, 20236, Note_on_c, 0, 58, 78
2, 20236, Note_on_c, 0, 51, 71
2, 20237, Note_on_c, 0, 55, 73
2, 20237, Note_on_c, 0, 48, 73
2, 20271, Note_on_c, 0, 60, 0
2, 20271, Note_on_c, 0, 58, 0
2, 20271, Note_on_c, 0, 51, 0
2, 20272, Note_on_c, 0, 48, 0
2, 20276, Note_on_c, 0, 55, 0
2, 20348, Note_on_c, 0, 60, 74
2, 20352, Note_on_c, 0, 55, 73
2, 20353, Note_on_c, 0, 58, 77
2, 20355, Note_on_c, 0, 51, 69
2, 20388, Note_on_c, 0, 58, 0
2, 20392, Note_on_c, 0, 51, 0
2, 20392, Note_on_c, 0, 60, 0
2, 20392, Note_on_c, 0, 55, 0
2, 20471, Note_on_c, 0, 58, 72
2, 20472, Note_on_c, 0, 60, 73
2, 20472, Note_on_c, 0, 55, 70
2, 20474, Note_on_c, 0, 51, 65
2, 20503, Note_on_c, 0, 58, 0
2, 20505, Note_on_c, 0, 60, 0
2, 20506, Note_on_c, 0, 51, 0
2, 20507, Note_on_c, 0, 55, 0
2, 20525, Note_on_c, 0, 70, 0
2, 20587, Note_on_c, 0, 60, 79
2, 20588, Note_on_c, 0, 58, 77
2, 20591, Note_on_c, 0, 55, 78
2, 20593, Note_on_c, 0, 51, 69
2, 20600, Note_on_c, 0, 63, 85
2, 20682, Note_on_c, 0, 51, 0
2, 20688, Note_on_c, 0, 51, 69
2, 20693, Note_on_c, 0, 60, 0
2, 20696, Note_on_c, 0, 63, 0
2, 20699, Note_on_c, 0, 55, 0
2, 20700, Note_on_c, 0, 58, 0
2, 20712, Note_on_c, 0, 72, 0
2, 20723, Note_on_c, 0, 72, 98
2, 20766, Note_on_c, 0, 51, 0
2, 20846, Note_on_c, 0, 51, 91
2, 20846, Note_on_c, 0, 46, 79
2, 20847, Note_on_c, 0, 39, 86
2, 20847, Note_on_c, 0, 43, 65
2, 20894, Note_on_c, 0, 51, 0
2, 20896, Note_on_c, 0, 46, 0
2, 20899, Note_on_c, 0, 39, 0
2, 20900, Note_on_c, 0, 43, 0
2, 20966, Note_on_c, 0, 72, 0
2, 21028, Note_on_c, 0, 70, 90
2, 21032, Note_on_c, 0, 51, 87
2, 21032, Note_on_c, 0, 46, 77
2, 21038, Note_on_c, 0, 43, 71
2, 21038, Note_on_c, 0, 39, 79
2, 21070, Note_on_c, 0, 51, 0
2, 21072, Note_on_c, 0, 39, 0
2, 21073, Note_on_c, 0, 43, 0
2, 21074, Note_on_c, 0, 46, 0
2, 21084, Note_on_c, 0, 70, 0
2, 21216, Note_on_c, 0, 39, 89
2, 21217, Note_on_c, 0, 46, 84
2, 21219, Note_on_c, 0, 51, 94
2, 21223, Note_on_c, 0, 70, 98
2, 21225, Note_on_c, 0, 43, 71
2, 21262, Note_on_c, 0, 46, 0
2, 21263, Note_on_c, 0, 43, 0
2, 21265, Note_on_c, 0, 39, 0
2, 21265, Note_on_c, 0, 51, 0
2, 21372, Note_on_c, 0, 51, 91
2, 21373, Note_on_c, 0, 46, 84
2, 21375, Note_on_c, 0, 43, 71
2, 21376, Note_on_c, 0, 39, 89
2, 21419, Note_on_c, 0, 51, 0
2, 21420, Note_on_c, 0, 46, 0
2, 21421, Note_on_c, 0, 43, 0
2, 21422, Note_on_c, 0, 39, 0
2, 21457, Note_on_c, 0, 70, 0
2, 21498, Note_on_c, 0, 68, 95
2, 21508, Note_on_c, 0, 46, 87
2, 21510, Note_on_c, 0, 51, 89
2, 21512, Note_on_c, 0, 43, 73
2, 21514, Note_on_c, 0, 39, 84
2, 21600, Note_on_c, 0, 43, 0
2, 21603, Note_on_c, 0, 46, 0
2, 21611, Note_on_c, 0, 70, 89
2, 21611, Note_on_c, 0, 39, 0
2, 21619, Note_on_c, 0, 51, 0
2, 21630, Note_on_c, 0, 68, 0
2, 21672, Note_on_c, 0, 70, 0
2, 21730, Note_on_c, 0, 72, 103
2, 21730, Note_on_c, 0, 60, 97
2, 21733, Note_on_c, 0, 68, 102
2, 21734, Note_on_c, 0, 41, 94
2, 21735, Note_on_c, 0, 29, 100
2, 21737, Note_on_c, 0, 65, 92
2, 21795, Note_on_c, 0, 60, 0
2, 21811, Control_c, 0, 64, 127
2, 21961, Note_on_c, 0, 53, 86
2, 22070, Note_on_c, 0, 56, 88
2, 22072, Note_on_c, 0, 53, 0
2, 22077, Note_on_c, 0, 60, 81
2, 22082, Note_on_c, 0, 53, 72
2, 22087, Note_on_c, 0, 72, 0
2, 22092, Note_on_c, 0, 84, 99
2, 22097, Note_on_c, 0, 72, 94
2, 22098, Note_on_c, 0, 77, 88
2, 22099, Note_on_c, 0, 80, 94
2, 22195, Note_on_c, 0, 53, 0
2, 22195, Note_on_c, 0, 56, 0
2, 22204, Note_on_c, 0, 53, 70
2, 22206, Note_on_c, 0, 56, 75
2, 22318, Note_on_c, 0, 53, 0
2, 22325, Note_on_c, 0, 84, 0
2, 22329, Note_on_c, 0, 53, 87
2, 22333, Note_on_c, 0, 72, 0
2, 22335, Note_on_c, 0, 84, 104
2, 22338, Note_on_c, 0, 72, 95
2, 22433, Note_on_c, 0, 53, 0
2, 22439, Note_on_c, 0, 53, 84
2, 22540, Note_on_c, 0, 56, 0
2, 22540, Note_on_c, 0, 60, 0
2, 22548, Note_on_c, 0, 68, 0
2, 22548, Note_on_c, 0, 84, 0
2, 22550, Note_on_c, 0, 60, 88
2, 22551, Note_on_c, 0, 56, 82
2, 22553, Note_on_c, 0, 68, 91
2, 22556, Note_on_c, 0, 53, 0
2, 22556, Note_on_c, 0, 72, 0
2, 22556, Note_on_c, 0, 77, 0
2, 22559, Note_on_c, 0, 84, 100
2, 22562, Note_on_c, 0, 72, 92
2, 22563, Note_on_c, 0, 80, 0
2, 22564, Note_on_c, 0, 77, 95
2, 22566, Note_on_c, 0, 53, 64
2, 22574, Note_on_c, 0, 80, 86
2, 22578, Control_c, 0, 64, 0
2, 22583, Note_on_c, 0, 56, 0
2, 22584, Note_on_c, 0, 60, 0
2, 22594, Note_on_c, 0, 29, 0
2, 22594, Note_on_c, 0, 65, 0
2, 22602, Note_on_c, 0, 41, 0
2, 22602, Note_on_c, 0, 68, 0
2, 22609, Note_on_c, 0, 72, 0
2, 22617, Note_on_c, 0, 53, 0
2, 22617, Note_on_c, 0, 77, 0
2, 22625, Note_on_c, 0, 84, 0
2, 22640, Note_on_c, 0, 80, 0
2, 22671, Control_c, 0, 64, 127
2, 22676, Note_on_c, 0, 41, 76
2, 22683, Note_on_c, 0, 32, 72
2, 22689, Note_on_c, 0, 87, 107
2, 22697, Note_on_c, 0, 75, 97
2, 22791, Note_on_c, 0, 53, 88
2, 22909, Note_on_c, 0, 53, 0
2, 22920, Note_on_c, 0, 53, 78
2, 22921, Note_on_c, 0, 60, 75
2, 22927, Note_on_c, 0, 84, 100
2, 22931, Note_on_c, 0, 77, 89
2, 22931, Note_on_c, 0, 72, 90
2, 22936, Note_on_c, 0, 80, 86
2, 23016, Note_on_c, 0, 53, 0
2, 23016, Note_on_c, 0, 60, 0
2, 23026, Note_on_c, 0, 60, 84
2, 23027, Note_on_c, 0, 56, 80
2, 23027, Note_on_c, 0, 53, 71
2, 23155, Note_on_c, 0, 41, 0
2, 23160, Note_on_c, 0, 41, 77
2, 23160, Note_on_c, 0, 82, 103
2, 23167, Note_on_c, 0, 70, 88
2, 23170, Note_on_c, 0, 80, 0
2, 23180, Note_on_c, 0, 80, 69
2, 23255, Note_on_c, 0, 53, 0
2, 23262, Note_on_c, 0, 53, 86
2, 23270, Note_on_c, 0, 32, 0
2, 23377, Note_on_c, 0, 53, 0
2, 23377, Note_on_c, 0, 56, 0
2, 23382, Note_on_c, 0, 53, 70
2, 23388, Note_on_c, 0, 56, 70
2, 23393, Note_on_c, 0, 80, 0
2, 23403, Note_on_c, 0, 80, 94
2, 23404, Note_on_c, 0, 68, 92
2, 23493, Note_on_c, 0, 56, 0
2, 23493, Note_on_c, 0, 60, 0
2, 23501, Note_on_c, 0, 56, 86
2, 23501, Note_on_c, 0, 60, 85
2, 23578, Note_on_c, 0, 41, 0
2, 23581, Note_on_c, 0, 53, 0
2, 23581, Note_on_c, 0, 87, 0
2, 23581, Note_on_c, 0, 77, 0
2, 23581, Note_on_c, 0, 68, 0
2, 23581, Control_c, 0, 64, 0
2, 23581, Note_on_c, 0, 75, 0
2, 23581, Note_on_c, 0, 80, 0
2, 23581, Note_on_c, 0, 70, 0
2, 23581, Note_on_c, 0, 60, 0
2, 23581, Note_on_c, 0, 84, 0
2, 23581, Note_on_c, 0, 56, 0
2, 23581, Note_on_c, 0, 72, 0
2, 23616, Note_on_c, 0, 82, 0
2, 23627, Note_on_c, 0, 82, 105
2, 23628, Note_on_c, 0, 39, 93
2, 23630, Note_on_c, 0, 79, 87
2, 23631, Note_on_c, 0, 70, 96
2, 23633, Note_on_c, 0, 75, 89
2, 23669, Control_c, 0, 64, 127
2, 23865, Note_on_c, 0, 51, 79
2, 23871, Note_on_c, 0, 84, 102
2, 23873, Note_on_c, 0, 72, 92
2, 23973, Note_on_c, 0, 60, 77
2, 23973, Note_on_c, 0, 55, 74
2, 23975, Note_on_c, 0, 58, 77
2, 24107, Note_on_c, 0, 39, 0
2, 24111, Note_on_c, 0, 39, 75
2, 24115, Note_on_c, 0, 82, 0
2, 24122, Note_on_c, 0, 70, 0
2, 24122, Note_on_c, 0, 75, 0
2, 24124, Note_on_c, 0, 82, 103
2, 24130, Note_on_c, 0, 75, 85
2, 24133, Note_on_c, 0, 70, 94
2, 24207, Note_on_c, 0, 51, 0
2, 24215, Note_on_c, 0, 58, 0
2, 24218, Note_on_c, 0, 51, 82
2, 24218, Note_on_c, 0, 58, 64
2, 24337, Note_on_c, 0, 39, 0
2, 24341, Note_on_c, 0, 39, 63
2, 24355, Note_on_c, 0, 80, 97
2, 24357, Note_on_c, 0, 68, 92
2, 24445, Note_on_c, 0, 58, 0
2, 24445, Note_on_c, 0, 60, 0
2, 24451, Note_on_c, 0, 60, 89
2, 24453, Note_on_c, 0, 55, 0
2, 24456, Note_on_c, 0, 58, 78
2, 24457, Note_on_c, 0, 55, 72
2, 24463, Note_on_c, 0, 48, 70
2, 24468, Note_on_c, 0, 48, 0
2, 24573, Control_c, 0, 64, 0
2, 24576, Note_on_c, 0, 39, 0
2, 24577, Note_on_c, 0, 68, 0
2, 24577, Note_on_c, 0, 77, 98
2, 24578, Note_on_c, 0, 58, 0
2, 24578, Note_on_c, 0, 51, 0
2, 24578, Note_on_c, 0, 82, 0
2, 24578, Note_on_c, 0, 55, 0
2, 24578, Note_on_c, 0, 80, 0
2, 24578, Note_on_c, 0, 72, 0
2, 24579, Note_on_c, 0, 84, 0
2, 24579, Note_on_c, 0, 60, 0
2, 24579, Note_on_c, 0, 79, 0
2, 24580, Note_on_c, 0, 65, 91
2, 24583, Note_on_c, 0, 70, 0
2, 24583, Note_on_c, 0, 75, 0
2, 24587, Note_on_c, 0, 39, 80
2, 24593, Note_on_c, 0, 75, 83
2, 24594, Note_on_c, 0, 70, 74
2, 24645, Control_c, 0, 64, 127
2, 24689, Note_on_c, 0, 51, 75
2, 24798, Note_on_c, 0, 51, 0
2, 24806, Note_on_c, 0, 51, 63
2, 24932, Note_on_c, 0, 60, 84
2, 24934, Note_on_c, 0, 58, 79
2, 24936, Note_on_c, 0, 51, 0
2, 24938, Note_on_c, 0, 55, 66
2, 24940, Note_on_c, 0, 56, 69
2, 24944, Note_on_c, 0, 55, 0
2, 24947, Note_on_c, 0, 51, 59
2, 25052, Note_on_c, 0, 39, 0
2, 25056, Note_on_c, 0, 39, 77
2, 25144, Note_on_c, 0, 51, 0
2, 25155, Note_on_c, 0, 51, 90
2, 25159, Note_on_c, 0, 77, 0
2, 25167, Note_on_c, 0, 65, 0
2, 25168, Note_on_c, 0, 77, 97
2, 25173, Note_on_c, 0, 65, 83
2, 25274, Note_on_c, 0, 51, 0
2, 25283, Note_on_c, 0, 51, 86
2, 25397, Note_on_c, 0, 58, 0
2, 25397, Note_on_c, 0, 60, 0
2, 25402, Note_on_c, 0, 60, 86
2, 25403, Note_on_c, 0, 58, 85
2, 25404, Note_on_c, 0, 55, 70
2, 25489, Note_on_c, 0, 58, 0
2, 25493, Note_on_c, 0, 58, 66
2, 25594, Control_c, 0, 64, 0
2, 25595, Note_on_c, 0, 70, 0
2, 25595, Note_on_c, 0, 60, 0
2, 25595, Note_on_c, 0, 65, 0
2, 25595, Note_on_c, 0, 56, 0
2, 25595, Note_on_c, 0, 58, 0
2, 25598, Note_on_c, 0, 75, 0
2, 25612, Note_on_c, 0, 39, 0
2, 25612, Note_on_c, 0, 51, 0
2, 25612, Note_on_c, 0, 55, 0
2, 25628, Note_on_c, 0, 77, 0
2, 25631, Note_on_c, 0, 80, 103
2, 25631, Note_on_c, 0, 38, 90
2, 25633, Note_on_c, 0, 68, 103
2, 25638, Note_on_c, 0, 77, 87
2, 25638, Note_on_c, 0, 74, 100
2, 25681, Control_c, 0, 64, 127
2, 25860, Note_on_c, 0, 60, 87
2, 25870, Note_on_c, 0, 58, 74
2, 25875, Note_on_c, 0, 53, 74
2, 25989, Note_on_c, 0, 38, 0
2, 25995, Note_on_c, 0, 38, 81
2, 26104, Note_on_c, 0, 77, 0
2, 26105, Note_on_c, 0, 50, 85
2, 26113, Note_on_c, 0, 77, 96
2, 26117, Note_on_c, 0, 65, 88
2, 26219, Note_on_c, 0, 50, 0
2, 26229, Note_on_c, 0, 50, 75
2, 26319, Note_on_c, 0, 60, 0
2, 26327, Note_on_c, 0, 53, 0
2, 26327, Note_on_c, 0, 58, 0
2, 26330, Note_on_c, 0, 60, 88
2, 26331, Note_on_c, 0, 58, 79
2, 26331, Note_on_c, 0, 53, 67
2, 26465, Note_on_c, 0, 38, 0
2, 26472, Note_on_c, 0, 38, 85
2, 26523, Note_on_c, 0, 74, 0
2, 26523, Note_on_c, 0, 53, 0
2, 26523, Note_on_c, 0, 68, 0
2, 26523, Note_on_c, 0, 58, 0
2, 26523, Note_on_c, 0, 77, 0
2, 26523, Note_on_c, 0, 50, 0
2, 26523, Note_on_c, 0, 65, 0
2, 26524, Control_c, 0, 64, 0
2, 26524, Note_on_c, 0, 60, 0
2, 26525, Note_on_c, 0, 80, 0
2, 26576, Note_on_c, 0, 80, 98
2, 26580, Note_on_c, 0, 68, 96
2, 26583, Note_on_c, 0, 77, 78
2, 26583, Note_on_c, 0, 74, 88
2, 26586, Note_on_c, 0, 50, 82
2, 26611, Control_c, 0, 64, 127
2, 26626, Note_on_c, 0, 38, 0
2, 26695, Note_on_c, 0, 50, 0
2, 26706, Note_on_c, 0, 50, 78
2, 26811, Note_on_c, 0, 60, 90
2, 26814, Note_on_c, 0, 58, 88
2, 26815, Note_on_c, 0, 70, 81
2, 26829, Note_on_c, 0, 53, 65
2, 26944, Note_on_c, 0, 38, 80
2, 27053, Note_on_c, 0, 84, 99
2, 27056, Note_on_c, 0, 48, 76
2, 27059, Note_on_c, 0, 72, 89
2, 27148, Note_on_c, 0, 50, 0
2, 27157, Note_on_c, 0, 50, 90
2, 27271, Note_on_c, 0, 60, 0
2, 27279, Note_on_c, 0, 48, 0
2, 27280, Note_on_c, 0, 60, 89
2, 27284, Note_on_c, 0, 48, 81
2, 27285, Note_on_c, 0, 82, 102
2, 27287, Note_on_c, 0, 70, 0
2, 27289, Note_on_c, 0, 58, 0
2, 27291, Note_on_c, 0, 70, 91
2, 27302, Note_on_c, 0, 53, 0
2, 27308, Note_on_c, 0, 53, 41
2, 27371, Note_on_c, 0, 50, 0
2, 27378, Note_on_c, 0, 50, 90
2, 27487, Control_c, 0, 64, 0
2, 27488, Note_on_c, 0, 53, 0
2, 27488, Note_on_c, 0, 74, 0
2, 27488, Note_on_c, 0, 68, 0
2, 27488, Note_on_c, 0, 50, 0
2, 27488, Note_on_c, 0, 80, 0
2, 27489, Note_on_c, 0, 82, 0
2, 27489, Note_on_c, 0, 38, 0
2, 27489, Note_on_c, 0, 84, 0
2, 27489, Note_on_c, 0, 60, 0
2, 27489, Note_on_c, 0, 72, 0
2, 27489, Note_on_c, 0, 77, 0
2, 27489, Note_on_c, 0, 70, 0
2, 27502, Note_on_c, 0, 48, 0
2, 27529, Note_on_c, 0, 82, 105
2, 27531, Note_on_c, 0, 73, 98
2, 27533, Note_on_c, 0, 37, 93
2, 27533, Note_on_c, 0, 70, 95
2, 27534, Note_on_c, 0, 77, 92
2, 27534, Note_on_c, 0, 49, 94
2, 27563, Control_c, 0, 64, 127
2, 27750, Note_on_c, 0, 60, 81
2, 27752, Note_on_c, 0, 56, 75
2, 27753, Note_on_c, 0, 53, 67
2, 27870, Note_on_c, 0, 37, 0
2, 27876, Note_on_c, 0, 37, 81
2, 27970, Note_on_c, 0, 49, 0
2, 27981, Note_on_c, 0, 49, 71
2, 28193, Note_on_c, 0, 60, 0
2, 28203, Note_on_c, 0, 60, 80
2, 28208, Note_on_c, 0, 53, 0
2, 28208, Note_on_c, 0, 56, 0
2, 28213, Note_on_c, 0, 53, 63
2, 28216, Note_on_c, 0, 82, 0
2, 28218, Note_on_c, 0, 68, 76
2, 28218, Note_on_c, 0, 56, 60
2, 28223, Note_on_c, 0, 82, 95
2, 28224, Note_on_c, 0, 70, 0
2, 28224, Note_on_c, 0, 77, 0
2, 28230, Note_on_c, 0, 77, 63
2, 28230, Note_on_c, 0, 70, 76
2, 28320, Control_c, 0, 64, 0
2, 28320, Note_on_c, 0, 37, 0
2, 28320, Note_on_c, 0, 73, 0
2, 28321, Note_on_c, 0, 68, 0
2, 28321, Note_on_c, 0, 70, 0
2, 28321, Note_on_c, 0, 49, 0
2, 28321, Note_on_c, 0, 60, 0
2, 28322, Note_on_c, 0, 56, 0
2, 28322, Note_on_c, 0, 77, 0
2, 28324, Note_on_c, 0, 53, 0
2, 28339, Note_on_c, 0, 82, 0
2, 28341, Note_on_c, 0, 84, 106
2, 28344, Note_on_c, 0, 72, 94
2, 28344, Note_on_c, 0, 79, 92
2, 28345, Note_on_c, 0, 75, 95
2, 28347, Note_on_c, 0, 39, 80
2, 28416, Control_c, 0, 64, 127
2, 28499, Note_on_c, 0, 56, 35
2, 28584, Note_on_c, 0, 75, 0
2, 28589, Note_on_c, 0, 87, 106
2, 28589, Note_on_c, 0, 51, 77
2, 28596, Note_on_c, 0, 75, 96
2, 28703, Note_on_c, 0, 55, 75
2, 28823, Note_on_c, 0, 72, 0
2, 28823, Note_on_c, 0, 84, 0
2, 28827, Note_on_c, 0, 84, 104
2, 28830, Note_on_c, 0, 58, 76
2, 28833, Note_on_c, 0, 72, 85
2, 28933, Note_on_c, 0, 63, 77
2, 29050, Note_on_c, 0, 67, 77
2, 29050, Note_on_c, 0, 82, 98
2, 29143, Note_on_c, 0, 70, 76
2, 29168, Note_on_c, 0, 80, 99
2, 29283, Note_on_c, 0, 75, 0
2, 29289, Note_on_c, 0, 75, 77
2, 29349, Control_c, 0, 64, 0
2, 29352, Note_on_c, 0, 56, 0
2, 29353, Note_on_c, 0, 55, 0
2, 29353, Note_on_c, 0, 67, 0
2, 29354, Note_on_c, 0, 51, 0
2, 29354, Note_on_c, 0, 72, 0
2, 29354, Note_on_c, 0, 87, 0
2, 29354, Note_on_c, 0, 63, 0
2, 29354, Note_on_c, 0, 79, 0
2, 29354, Note_on_c, 0, 82, 0
2, 29354, Note_on_c, 0, 58, 0
2, 29355, Note_on_c, 0, 84, 0
2, 29360, Note_on_c, 0, 39, 0
2, 29402, Note_on_c, 0, 49, 73
2, 29468, Control_c, 0, 64, 127
2, 29540, Note_on_c, 0, 56, 73
2, 29631, Note_on_c, 0, 61, 75
2, 29648, Note_on_c, 0, 87, 76
2, 29752, Note_on_c, 0, 61, 0
2, 29752, Note_on_c, 0, 80, 0
2, 29760, Note_on_c, 0, 70, 0
2, 29762, Note_on_c, 0, 63, 48
2, 29763, Note_on_c, 0, 61, 57
2, 29763, Note_on_c, 0, 80, 73
2, 29881, Note_on_c, 0, 68, 87
2, 29890, Note_on_c, 0, 92, 86
2, 30005, Note_on_c, 0, 80, 0
2, 30010, Note_on_c, 0, 80, 67
2, 30113, Note_on_c, 0, 63, 0
2, 30120, Note_on_c, 0, 68, 0
2, 30124, Note_on_c, 0, 63, 71
2, 30126, Note_on_c, 0, 68, 74
2, 30128, Note_on_c, 0, 87, 0
2, 30136, Note_on_c, 0, 87, 77
2, 30243, Note_on_c, 0, 80, 0
2, 30252, Note_on_c, 0, 80, 62
2, 30369, Note_on_c, 0, 70, 88
2, 30489, Note_on_c, 0, 80, 0
2, 30500, Note_on_c, 0, 80, 69
2, 30612, Note_on_c, 0, 87, 0
2, 30622, Note_on_c, 0, 87, 74
2, 30720, Note_on_c, 0, 68, 0
2, 30728, Note_on_c, 0, 68, 85
2, 30750, Note_on_c, 0, 80, 0
2, 30756, Note_on_c, 0, 80, 71
2, 30865, Note_on_c, 0, 92, 0
2, 30872, Note_on_c, 0, 92, 82
2, 30973, Note_on_c, 0, 80, 0
2, 30983, Note_on_c, 0, 80, 66
2, 31080, Note_on_c, 0, 63, 0
2, 31080, Note_on_c, 0, 87, 0
2, 31085, Note_on_c, 0, 63, 81
2, 31091, Note_on_c, 0, 87, 82
2, 31196, Note_on_c, 0, 80, 0
2, 31207, Note_on_c, 0, 80, 73
2, 31257, Control_c, 0, 64, 0
2, 31260, Note_on_c, 0, 56, 0
2, 31261, Note_on_c, 0, 68, 0
2, 31261, Note_on_c, 0, 80, 0
2, 31261, Note_on_c, 0, 49, 0
2, 31261, Note_on_c, 0, 92, 0
2, 31261, Note_on_c, 0, 61, 0
2, 31261, Note_on_c, 0, 70, 0
2, 31261, Note_on_c, 0, 87, 0
2, 31261, Note_on_c, 0, 63, 0
2, 31272, Note_on_c, 0, 75, 0
2, 31322, Note_on_c, 0, 70, 92
2, 31334, Control_c, 0, 64, 127
2, 31338, Note_on_c, 0, 58, 76
2, 31338, Note_on_c, 0, 51, 67
2, 31498, Note_on_c, 0, 80, 65
2, 31597, Note_on_c, 0, 87, 77
2, 31684, Note_on_c, 0, 68, 87
2, 31710, Note_on_c, 0, 80, 0
2, 31715, Note_on_c, 0, 82, 49
2, 31716, Note_on_c, 0, 80, 62
2, 31858, Note_on_c, 0, 92, 79
2, 31941, Note_on_c, 0, 80, 0
2, 31946, Note_on_c, 0, 80, 74
2, 32064, Note_on_c, 0, 87, 0
2, 32073, Note_on_c, 0, 63, 74
2, 32073, Note_on_c, 0, 87, 82
2, 32186, Note_on_c, 0, 80, 0
2, 32198, Note_on_c, 0, 80, 68
2, 32302, Note_on_c, 0, 70, 0
2, 32307, Note_on_c, 0, 70, 90
2, 32417, Note_on_c, 0, 80, 0
2, 32428, Note_on_c, 0, 80, 72
2, 32540, Note_on_c, 0, 87, 0
2, 32547, Note_on_c, 0, 87, 77
2, 32640, Note_on_c, 0, 68, 0
2, 32650, Note_on_c, 0, 68, 91
2, 32663, Note_on_c, 0, 80, 0
2, 32673, Note_on_c, 0, 80, 82
2, 32793, Note_on_c, 0, 92, 0
2, 32799, Note_on_c, 0, 92, 79
2, 32870, Note_on_c, 0, 80, 0
2, 32881, Note_on_c, 0, 80, 71
2, 33000, Note_on_c, 0, 63, 0
2, 33000, Note_on_c, 0, 87, 0
2, 33004, Note_on_c, 0, 72, 94
2, 33008, Note_on_c, 0, 87, 84
2, 33009, Note_on_c, 0, 63, 87
2, 33116, Note_on_c, 0, 80, 0
2, 33121, Note_on_c, 0, 80, 77
2, 33228, Control_c, 0, 64, 0
2, 33228, Note_on_c, 0, 92, 0
2, 33228, Note_on_c, 0, 70, 0
2, 33228, Note_on_c, 0, 82, 0
2, 33228, Note_on_c, 0, 80, 0
2, 33228, Note_on_c, 0, 87, 0
2, 33228, Note_on_c, 0, 58, 0
2, 33229, Note_on_c, 0, 72, 0
2, 33230, Note_on_c, 0, 51, 0
2, 33239, Note_on_c, 0, 63, 0
2, 33239, Note_on_c, 0, 68, 0
2, 33252, Note_on_c, 0, 48, 77
2, 33300, Control_c, 0, 64, 127
2, 33377, Note_on_c, 0, 56, 73
2, 33399, Note_on_c, 0, 80, 78
2, 33503, Note_on_c, 0, 58, 76
2, 33516, Note_on_c, 0, 87, 77
2, 33530, Note_on_c, 0, 48, 0
2, 33604, Note_on_c, 0, 63, 71
2, 33615, Note_on_c, 0, 80, 0
2, 33625, Note_on_c, 0, 80, 75
2, 33726, Note_on_c, 0, 68, 79
2, 33746, Note_on_c, 0, 92, 84
2, 33838, Note_on_c, 0, 80, 0
2, 33847, Note_on_c, 0, 80, 72
2, 33968, Note_on_c, 0, 63, 0
2, 33968, Note_on_c, 0, 68, 0
2, 33968, Note_on_c, 0, 87, 0
2, 33973, Note_on_c, 0, 68, 83
2, 33976, Note_on_c, 0, 63, 69
2, 33976, Note_on_c, 0, 87, 80
2, 34083, Note_on_c, 0, 80, 0
2, 34089, Note_on_c, 0, 80, 73
2, 34209, Note_on_c, 0, 70, 92
2, 34329, Note_on_c, 0, 80, 0
2, 34340, Note_on_c, 0, 80, 80
2, 34452, Note_on_c, 0, 87, 0
2, 34459, Note_on_c, 0, 87, 77
2, 34552, Note_on_c, 0, 68, 0
2, 34560, Note_on_c, 0, 80, 0
2, 34561, Note_on_c, 0, 68, 90
2, 34565, Note_on_c, 0, 80, 78
2, 34698, Note_on_c, 0, 92, 0
2, 34709, Note_on_c, 0, 92, 88
2, 34805, Note_on_c, 0, 80, 0
2, 34816, Note_on_c, 0, 80, 66
2, 34913, Note_on_c, 0, 63, 0
2, 34913, Note_on_c, 0, 87, 0
2, 34921, Note_on_c, 0, 63, 83
2, 34923, Note_on_c, 0, 87, 90
2, 35028, Note_on_c, 0, 80, 0
2, 35037, Note_on_c, 0, 80, 77
2, 35114, Note_on_c, 0, 92, 0
2, 35114, Control_c, 0, 64, 0
2, 35114, Note_on_c, 0, 70, 0
2, 35114, Note_on_c, 0, 80, 0
2, 35114, Note_on_c, 0, 68, 0
2, 35115, Note_on_c, 0, 58, 0
2, 35115, Note_on_c, 0, 87, 0
2, 35115, Note_on_c, 0, 56, 0
2, 35115, Note_on_c, 0, 63, 0
2, 35165, Note_on_c, 0, 75, 98
2, 35168, Note_on_c, 0, 68, 85
2, 35171, Note_on_c, 0, 60, 78
2, 35172, Note_on_c, 0, 53, 84
2, 35197, Control_c, 0, 64, 127
2, 35202, Note_on_c, 0, 60, 0
2, 35203, Note_on_c, 0, 53, 0
2, 35322, Note_on_c, 0, 80, 69
2, 35417, Note_on_c, 0, 87, 79
2, 35514, Note_on_c, 0, 73, 93
2, 35535, Note_on_c, 0, 80, 0
2, 35540, Note_on_c, 0, 80, 82
2, 35663, Note_on_c, 0, 92, 93
2, 35765, Note_on_c, 0, 80, 0
2, 35770, Note_on_c, 0, 80, 79
2, 35857, Note_on_c, 0, 87, 0
2, 35867, Note_on_c, 0, 87, 86
2, 35887, Note_on_c, 0, 72, 89
2, 35965, Note_on_c, 0, 80, 0
2, 35970, Note_on_c, 0, 80, 80
2, 36111, Note_on_c, 0, 73, 0
2, 36116, Note_on_c, 0, 73, 98
2, 36119, Note_on_c, 0, 68, 0
2, 36119, Note_on_c, 0, 92, 0
2, 36124, Note_on_c, 0, 68, 95
2, 36129, Note_on_c, 0, 92, 94
2, 36207, Note_on_c, 0, 91, 83
2, 36295, Note_on_c, 0, 87, 0
2, 36306, Note_on_c, 0, 87, 85
2, 36376, Note_on_c, 0, 85, 82
2, 36430, Note_on_c, 0, 84, 67
2, 36464, Note_on_c, 0, 72, 0
2, 36473, Note_on_c, 0, 72, 98
2, 36495, Note_on_c, 0, 80, 0
2, 36503, Note_on_c, 0, 80, 91
2, 36591, Note_on_c, 0, 79, 63
2, 36648, Note_on_c, 0, 75, 0
2, 36655, Note_on_c, 0, 75, 76
2, 36695, Note_on_c, 0, 73, 0
2, 36702, Note_on_c, 0, 73, 83
2, 36756, Note_on_c, 0, 72, 0
2, 36764, Note_on_c, 0, 72, 71
2, 36807, Note_on_c, 0, 63, 83
2, 36817, Note_on_c, 0, 68, 0
2, 36823, Note_on_c, 0, 68, 101
2, 36854, Note_on_c, 0, 61, 67
2, 36891, Note_on_c, 0, 60, 80
2, 36962, Note_on_c, 0, 56, 83
2, 37029, Control_c, 0, 64, 0
2, 37029, Note_on_c, 0, 92, 0
2, 37029, Note_on_c, 0, 80, 0
2, 37030, Note_on_c, 0, 63, 0
2, 37030, Note_on_c, 0, 68, 0
2, 37030, Note_on_c, 0, 60, 0
2, 37030, Note_on_c, 0, 73, 0
2, 37030, Note_on_c, 0, 85, 0
2, 37030, Note_on_c, 0, 72, 0
2, 37030, Note_on_c, 0, 91, 0
2, 37030, Note_on_c, 0, 56, 0
2, 37030, Note_on_c, 0, 87, 0
2, 37030, Note_on_c, 0, 61, 0
2, 37030, Note_on_c, 0, 84, 0
2, 37030, Note_on_c, 0, 75, 0
2, 37040, Note_on_c, 0, 79, 0
2, 37071, Note_on_c, 0, 46, 90
2, 37132, Note_on_c, 0, 46, 0
2, 37198, Note_on_c, 0, 68, 85
2, 37243, Note_on_c, 0, 68, 0
2, 37296, Note_on_c, 0, 65, 79
2, 37303, Note_on_c, 0, 61, 76
2, 37305, Note_on_c, 0, 70, 85
2, 37323, Note_on_c, 0, 65, 0
2, 37347, Note_on_c, 0, 61, 0
2, 37363, Note_on_c, 0, 70, 0
2, 37412, Note_on_c, 0, 58, 81
2, 37414, Note_on_c, 0, 68, 86
2, 37441, Note_on_c, 0, 58, 0
2, 37444, Note_on_c, 0, 68, 0
2, 37522, Note_on_c, 0, 61, 85
2, 37525, Note_on_c, 0, 65, 76
2, 37543, Note_on_c, 0, 72, 96
2, 37555, Control_c, 0, 64, 127
2, 37560, Note_on_c, 0, 65, 0
2, 37767, Note_on_c, 0, 46, 88
2, 37771, Note_on_c, 0, 34, 91
2, 37892, Note_on_c, 0, 68, 83
2, 37893, Note_on_c, 0, 80, 87
2, 37949, Control_c, 0, 64, 0
2, 37953, Note_on_c, 0, 72, 0
2, 37954, Note_on_c, 0, 34, 0
2, 37956, Note_on_c, 0, 68, 0
2, 37956, Note_on_c, 0, 46, 0
2, 37957, Note_on_c, 0, 80, 0
2, 37962, Note_on_c, 0, 61, 0
2, 38012, Note_on_c, 0, 82, 97
2, 38015, Note_on_c, 0, 70, 77
2, 38077, Note_on_c, 0, 70, 0
2, 38077, Note_on_c, 0, 82, 0
2, 38134, Note_on_c, 0, 80, 82
2, 38136, Note_on_c, 0, 58, 81
2, 38171, Note_on_c, 0, 80, 0
2, 38184, Note_on_c, 0, 58, 0
2, 38250, Note_on_c, 0, 84, 102
2, 38250, Note_on_c, 0, 65, 82
2, 38253, Note_on_c, 0, 61, 75
2, 38256, Note_on_c, 0, 72, 90
2, 38283, Note_on_c, 0, 65, 0
2, 38284, Note_on_c, 0, 61, 0
2, 38364, Note_on_c, 0, 58, 80
2, 38393, Note_on_c, 0, 58, 0
2, 38400, Note_on_c, 0, 72, 0
2, 38407, Note_on_c, 0, 84, 0
2, 38476, Note_on_c, 0, 84, 96
2, 38480, Note_on_c, 0, 72, 84
2, 38480, Note_on_c, 0, 65, 79
2, 38481, Note_on_c, 0, 58, 65
2, 38485, Note_on_c, 0, 61, 62
2, 38530, Control_c, 0, 64, 127
2, 38610, Note_on_c, 0, 80, 89
2, 38612, Note_on_c, 0, 68, 81
2, 38707, Note_on_c, 0, 58, 0
2, 38712, Note_on_c, 0, 58, 81
2, 38822, Note_on_c, 0, 80, 0
2, 38828, Note_on_c, 0, 80, 93
2, 38830, Note_on_c, 0, 68, 0
2, 38834, Note_on_c, 0, 68, 88
2, 38867, Note_on_c, 0, 72, 0
2, 38868, Note_on_c, 0, 61, 0
2, 38868, Note_on_c, 0, 58, 0
2, 38869, Note_on_c, 0, 84, 0
2, 38869, Control_c, 0, 64, 0
2, 38871, Note_on_c, 0, 65, 0
2, 38946, Note_on_c, 0, 44, 91
2, 38952, Control_c, 0, 64, 127
2, 39060, Note_on_c, 0, 68, 0
2, 39067, Note_on_c, 0, 68, 85
2, 39161, Control_c, 0, 64, 0
2, 39162, Note_on_c, 0, 44, 0
2, 39163, Note_on_c, 0, 68, 0
2, 39183, Note_on_c, 0, 80, 0
2, 39185, Note_on_c, 0, 63, 86
2, 39187, Note_on_c, 0, 70, 89
2, 39188, Note_on_c, 0, 60, 79
2, 39218, Note_on_c, 0, 63, 0
2, 39219, Note_on_c, 0, 60, 0
2, 39222, Note_on_c, 0, 70, 0
2, 39303, Note_on_c, 0, 68, 85
2, 39304, Note_on_c, 0, 56, 82
2, 39340, Note_on_c, 0, 68, 0
2, 39341, Note_on_c, 0, 56, 0
2, 39417, Note_on_c, 0, 63, 93
2, 39418, Note_on_c, 0, 72, 98
2, 39419, Note_on_c, 0, 60, 84
2, 39459, Control_c, 0, 64, 127
2, 39463, Note_on_c, 0, 60, 0
2, 39498, Control_c, 0, 64, 0
2, 39582, Control_c, 0, 64, 127
2, 39650, Note_on_c, 0, 32, 97
2, 39652, Note_on_c, 0, 44, 97
2, 39765, Note_on_c, 0, 80, 82
2, 39765, Note_on_c, 0, 68, 84
2, 39862, Control_c, 0, 64, 0
2, 39893, Note_on_c, 0, 82, 93
2, 39894, Note_on_c, 0, 70, 79
2, 39997, Note_on_c, 0, 80, 0
2, 40005, Note_on_c, 0, 68, 0
2, 40005, Control_c, 0, 64, 127
2, 40008, Note_on_c, 0, 80, 89
2, 40011, Note_on_c, 0, 68, 82
2, 40012, Note_on_c, 0, 56, 87
2, 40021, Control_c, 0, 64, 0
2, 40032, Note_on_c, 0, 82, 0
2, 40033, Note_on_c, 0, 70, 0
2, 40035, Note_on_c, 0, 32, 0
2, 40037, Note_on_c, 0, 63, 0
2, 40040, Note_on_c, 0, 80, 0
2, 40043, Note_on_c, 0, 44, 0
2, 40046, Note_on_c, 0, 56, 0
2, 40051, Note_on_c, 0, 72, 0
2, 40058, Note_on_c, 0, 68, 0
2, 40129, Note_on_c, 0, 63, 89
2, 40130, Note_on_c, 0, 84, 105
2, 40133, Note_on_c, 0, 72, 92
2, 40134, Note_on_c, 0, 60, 77
2, 40170, Note_on_c, 0, 63, 0
2, 40170, Note_on_c, 0, 60, 0
2, 40220, Control_c, 0, 64, 127
2, 40242, Note_on_c, 0, 56, 83
2, 40350, Note_on_c, 0, 84, 0
2, 40358, Note_on_c, 0, 72, 0
2, 40361, Note_on_c, 0, 84, 102
2, 40362, Note_on_c, 0, 72, 93
2, 40363, Note_on_c, 0, 63, 93
2, 40368, Note_on_c, 0, 60, 80
2, 40489, Note_on_c, 0, 80, 93
2, 40490, Note_on_c, 0, 68, 88
2, 40596, Note_on_c, 0, 56, 0
2, 40600, Note_on_c, 0, 56, 86
2, 40696, Note_on_c, 0, 80, 0
2, 40704, Note_on_c, 0, 68, 0
2, 40704, Note_on_c, 0, 72, 0
2, 40707, Note_on_c, 0, 80, 102
2, 40708, Note_on_c, 0, 68, 91
2, 40714, Note_on_c, 0, 72, 74
2, 40769, Note_on_c, 0, 84, 0
2, 40769, Note_on_c, 0, 63, 0
2, 40769, Note_on_c, 0, 60, 0
2, 40769, Note_on_c, 0, 72, 0
2, 40769, Note_on_c, 0, 68, 0
2, 40770, Note_on_c, 0, 56, 0
2, 40772, Note_on_c, 0, 80, 0
2, 40772, Control_c, 0, 64, 0
2, 40828, Note_on_c, 0, 46, 97
2, 40829, Note_on_c, 0, 34, 95
2, 40849, Control_c, 0, 64, 127
2, 40962, Note_on_c, 0, 84, 102
2, 40965, Note_on_c, 0, 72, 92
2, 40965, Note_on_c, 0, 77, 88
2, 41064, Note_on_c, 0, 84, 0
2, 41068, Note_on_c, 0, 60, 85
2, 41070, Note_on_c, 0, 56, 78
2, 41072, Note_on_c, 0, 53, 78
2, 41072, Note_on_c, 0, 72, 0
2, 41072, Note_on_c, 0, 77, 0
2, 41076, Note_on_c, 0, 84, 102
2, 41078, Note_on_c, 0, 80, 87
2, 41078, Note_on_c, 0, 77, 80
2, 41078, Note_on_c, 0, 72, 95
2, 41187, Note_on_c, 0, 72, 0
2, 41187, Note_on_c, 0, 77, 0
2, 41187, Note_on_c, 0, 84, 0
2, 41195, Note_on_c, 0, 80, 0
2, 41196, Note_on_c, 0, 72, 94
2, 41197, Note_on_c, 0, 84, 95
2, 41197, Note_on_c, 0, 77, 92
2, 41205, Note_on_c, 0, 80, 82
2, 41303, Note_on_c, 0, 60, 0
2, 41303, Note_on_c, 0, 72, 0
2, 41303, Note_on_c, 0, 77, 0
2, 41303, Note_on_c, 0, 84, 0
2, 41310, Note_on_c, 0, 53, 0
2, 41310, Note_on_c, 0, 56, 0
2, 41310, Note_on_c, 0, 80, 0
2, 41312, Note_on_c, 0, 72, 97
2, 41312, Note_on_c, 0, 84, 101
2, 41313, Note_on_c, 0, 77, 100
2, 41313, Note_on_c, 0, 60, 97
2, 41314, Note_on_c, 0, 53, 79
2, 41317, Note_on_c, 0, 80, 89
2, 41317, Note_on_c, 0, 56, 78
2, 41433, Note_on_c, 0, 72, 0
2, 41433, Note_on_c, 0, 77, 0
2, 41438, Note_on_c, 0, 77, 84
2, 41441, Note_on_c, 0, 72, 83
2, 41541, Note_on_c, 0, 72, 0
2, 41541, Note_on_c, 0, 84, 0
2, 41548, Note_on_c, 0, 46, 0
2, 41548, Note_on_c, 0, 53, 0
2, 41548, Note_on_c, 0, 77, 0
2, 41548, Note_on_c, 0, 80, 0
2, 41550, Note_on_c, 0, 84, 93
2, 41552, Note_on_c, 0, 72, 83
2, 41554, Note_on_c, 0, 77, 82
2, 41554, Note_on_c, 0, 46, 81
2, 41555, Note_on_c, 0, 53, 69
2, 41559, Note_on_c, 0, 80, 79
2, 41633, Note_on_c, 0, 34, 0
2, 41633, Note_on_c, 0, 46, 0
2, 41634, Control_c, 0, 64, 0
2, 41656, Note_on_c, 0, 60, 0
2, 41656, Note_on_c, 0, 84, 0
2, 41664, Note_on_c, 0, 53, 0
2, 41664, Note_on_c, 0, 56, 0
2, 41664, Note_on_c, 0, 72, 0
2, 41664, Note_on_c, 0, 77, 0
2, 41664, Note_on_c, 0, 80, 0
2, 41666, Note_on_c, 0, 68, 92
2, 41667, Note_on_c, 0, 84, 103
2, 41667, Note_on_c, 0, 60, 88
2, 41667, Note_on_c, 0, 53, 75
2, 41668, Note_on_c, 0, 72, 98
2, 41669, Note_on_c, 0, 77, 88
2, 41670, Note_on_c, 0, 80, 88
2, 41671, Note_on_c, 0, 56, 79
2, 41710, Control_c, 0, 64, 127
2, 41779, Note_on_c, 0, 72, 0
2, 41779, Note_on_c, 0, 84, 0
2, 41786, Note_on_c, 0, 77, 0
2, 41786, Note_on_c, 0, 80, 0
2, 41789, Note_on_c, 0, 84, 93
2, 41790, Note_on_c, 0, 72, 92
2, 41791, Note_on_c, 0, 77, 79
2, 41794, Note_on_c, 0, 80, 81
2, 41902, Note_on_c, 0, 72, 0
2, 41902, Note_on_c, 0, 77, 0
2, 41902, Note_on_c, 0, 84, 0
2, 41907, Note_on_c, 0, 84, 102
2, 41911, Note_on_c, 0, 72, 88
2, 41912, Note_on_c, 0, 77, 89
2, 41917, Note_on_c, 0, 80, 0
2, 41918, Note_on_c, 0, 46, 73
2, 41921, Note_on_c, 0, 80, 74
2, 42009, Note_on_c, 0, 68, 0
2, 42017, Note_on_c, 0, 77, 0
2, 42017, Note_on_c, 0, 84, 0
2, 42024, Note_on_c, 0, 53, 0
2, 42024, Note_on_c, 0, 60, 0
2, 42024, Note_on_c, 0, 72, 0
2, 42027, Note_on_c, 0, 84, 104
2, 42028, Note_on_c, 0, 77, 104
2, 42029, Note_on_c, 0, 72, 98
2, 42030, Note_on_c, 0, 60, 95
2, 42032, Note_on_c, 0, 56, 0
2, 42032, Note_on_c, 0, 68, 95
2, 42036, Note_on_c, 0, 53, 78
2, 42038, Note_on_c, 0, 56, 80
2, 42132, Note_on_c, 0, 46, 0
2, 42140, Note_on_c, 0, 72, 0
2, 42140, Note_on_c, 0, 80, 0
2, 42140, Note_on_c, 0, 84, 0
2, 42145, Note_on_c, 0, 84, 89
2, 42148, Note_on_c, 0, 72, 91
2, 42148, Note_on_c, 0, 80, 91
2, 42192, Control_c, 0, 64, 0
2, 42197, Note_on_c, 0, 68, 0
2, 42197, Note_on_c, 0, 77, 0
2, 42197, Note_on_c, 0, 84, 0
2, 42198, Note_on_c, 0, 72, 0
2, 42198, Note_on_c, 0, 80, 0
2, 42198, Note_on_c, 0, 60, 0
2, 42199, Note_on_c, 0, 56, 0
2, 42199, Note_on_c, 0, 53, 0
2, 42254, Note_on_c, 0, 87, 107
2, 42259, Note_on_c, 0, 75, 102
2, 42263, Control_c, 0, 64, 127
2, 42268, Note_on_c, 0, 46, 85
2, 42274, Note_on_c, 0, 80, 58
2, 42367, Note_on_c, 0, 84, 106
2, 42374, Note_on_c, 0, 72, 103
2, 42389, Note_on_c, 0, 53, 75
2, 42390, Note_on_c, 0, 60, 83
2, 42398, Note_on_c, 0, 68, 73
2, 42399, Note_on_c, 0, 56, 79
2, 42608, Note_on_c, 0, 75, 0
2, 42609, Note_on_c, 0, 82, 112
2, 42617, Note_on_c, 0, 70, 105
2, 42618, Note_on_c, 0, 79, 97
2, 42619, Note_on_c, 0, 75, 99
2, 42660, Control_c, 0, 64, 0
2, 42660, Note_on_c, 0, 68, 0
2, 42662, Note_on_c, 0, 56, 0
2, 42662, Note_on_c, 0, 72, 0
2, 42662, Note_on_c, 0, 53, 0
2, 42663, Note_on_c, 0, 60, 0
2, 42663, Note_on_c, 0, 84, 0
2, 42664, Note_on_c, 0, 87, 0
2, 42670, Note_on_c, 0, 46, 0
2, 42670, Note_on_c, 0, 80, 0
2, 42736, Note_on_c, 0, 36, 92
2, 42746, Control_c, 0, 64, 127
2, 42954, Note_on_c, 0, 36, 0
2, 42959, Note_on_c, 0, 48, 68
2, 42965, Note_on_c, 0, 36, 57
2, 43041, Note_on_c, 0, 55, 60
2, 43056, Note_on_c, 0, 58, 87
2, 43080, Note_on_c, 0, 72, 65
2, 43084, Note_on_c, 0, 72, 0
2, 43087, Note_on_c, 0, 60, 69
2, 43156, Note_on_c, 0, 67, 80
2, 43184, Note_on_c, 0, 70, 0
2, 43191, Note_on_c, 0, 70, 67
2, 43259, Note_on_c, 0, 72, 90
2, 43322, Note_on_c, 0, 79, 0
2, 43329, Note_on_c, 0, 79, 66
2, 43405, Note_on_c, 0, 84, 73
2, 43458, Note_on_c, 0, 91, 94
2, 43479, Note_on_c, 0, 94, 96
2, 43545, Note_on_c, 0, 84, 0
2, 43549, Note_on_c, 0, 96, 106
2, 43553, Note_on_c, 0, 36, 0
2, 43553, Note_on_c, 0, 84, 99
2, 43562, Note_on_c, 0, 36, 97
2, 43564, Note_on_c, 0, 24, 95
2, 43637, Note_on_c, 0, 75, 0
2, 43652, Note_on_c, 0, 48, 0
2, 43653, Note_on_c, 0, 72, 0
2, 43653, Note_on_c, 0, 94, 0
2, 43653, Note_on_c, 0, 84, 0
2, 43653, Note_on_c, 0, 67, 0
2, 43653, Note_on_c, 0, 70, 0
2, 43654, Note_on_c, 0, 82, 0
2, 43654, Note_on_c, 0, 79, 0
2, 43654, Note_on_c, 0, 55, 0
2, 43656, Note_on_c, 0, 60, 0
2, 43656, Note_on_c, 0, 58, 0
2, 43656, Note_on_c, 0, 91, 0
2, 43656, Control_c, 0, 64, 0
2, 43760, Note_on_c, 0, 96, 0
2, 43979, Note_on_c, 0, 77, 106
2, 43979, Note_on_c, 0, 65, 102
2, 43998, Control_c, 0, 64, 127
2, 44232, Note_on_c, 0, 84, 109
2, 44233, Note_on_c, 0, 72, 104
2, 44354, Note_on_c, 0, 82, 106
2, 44356, Note_on_c, 0, 70, 100
2, 44363, Note_on_c, 0, 48, 91
2, 44431, Note_on_c, 0, 43, 85
2, 44436, Note_on_c, 0, 31, 76
2, 44451, Note_on_c, 0, 36, 0
2, 44462, Control_c, 0, 64, 0
2, 44463, Note_on_c, 0, 36, 81
2, 44465, Note_on_c, 0, 48, 0
2, 44469, Note_on_c, 0, 65, 0
2, 44470, Note_on_c, 0, 77, 0
2, 44471, Note_on_c, 0, 72, 0
2, 44472, Note_on_c, 0, 84, 0
2, 44474, Note_on_c, 0, 82, 0
2, 44478, Note_on_c, 0, 70, 0
2, 44488, Note_on_c, 0, 36, 0
2, 44490, Note_on_c, 0, 24, 0
2, 44490, Note_on_c, 0, 31, 0
2, 44497, Note_on_c, 0, 43, 0
2, 44581, Note_on_c, 0, 82, 104
2, 44583, Note_on_c, 0, 70, 97
2, 44614, Note_on_c, 0, 70, 0
2, 44659, Note_on_c, 0, 82, 0
2, 44690, Note_on_c, 0, 84, 104
2, 44693, Note_on_c, 0, 72, 106
2, 44693, Note_on_c, 0, 77, 97
2, 44693, Note_on_c, 0, 25, 108
2, 44693, Note_on_c, 0, 37, 105
2, 44695, Note_on_c, 0, 80, 94
2, 44697, Note_on_c, 0, 25, 0
2, 44712, Control_c, 0, 64, 127
2, 44901, Note_on_c, 0, 60, 94
2, 44901, Note_on_c, 0, 48, 88
2, 44908, Note_on_c, 0, 56, 75
2, 44917, Note_on_c, 0, 53, 62
2, 44938, Note_on_c, 0, 82, 103
2, 44946, Note_on_c, 0, 70, 80
2, 45043, Note_on_c, 0, 37, 0
2, 45043, Note_on_c, 0, 77, 0
2, 45043, Note_on_c, 0, 84, 0
2, 45048, Note_on_c, 0, 84, 103
2, 45050, Note_on_c, 0, 72, 0
2, 45050, Note_on_c, 0, 80, 0
2, 45052, Note_on_c, 0, 77, 82
2, 45054, Note_on_c, 0, 37, 85
2, 45054, Note_on_c, 0, 72, 95
2, 45062, Note_on_c, 0, 80, 80
2, 45172, Note_on_c, 0, 49, 84
2, 45173, Note_on_c, 0, 53, 0
2, 45184, Note_on_c, 0, 53, 68
2, 45281, Note_on_c, 0, 70, 0
2, 45281, Note_on_c, 0, 82, 0
2, 45288, Note_on_c, 0, 82, 103
2, 45292, Note_on_c, 0, 70, 89
2, 45296, Note_on_c, 0, 49, 0
2, 45306, Note_on_c, 0, 49, 79
2, 45396, Note_on_c, 0, 60, 0
2, 45404, Note_on_c, 0, 53, 0
2, 45404, Note_on_c, 0, 56, 0
2, 45407, Note_on_c, 0, 60, 98
2, 45409, Note_on_c, 0, 56, 83
2, 45414, Note_on_c, 0, 53, 79
2, 45527, Note_on_c, 0, 72, 0
2, 45527, Note_on_c, 0, 84, 0
2, 45530, Note_on_c, 0, 84, 102
2, 45534, Note_on_c, 0, 37, 0
2, 45534, Note_on_c, 0, 77, 0
2, 45534, Note_on_c, 0, 80, 0
2, 45537, Note_on_c, 0, 72, 94
2, 45540, Note_on_c, 0, 77, 89
2, 45545, Note_on_c, 0, 80, 87
2, 45545, Note_on_c, 0, 37, 97
2, 45546, Note_on_c, 0, 73, 76
2, 45546, Note_on_c, 0, 25, 90
2, 45557, Note_on_c, 0, 73, 0
2, 45649, Note_on_c, 0, 37, 0
2, 45654, Note_on_c, 0, 37, 78
2, 45757, Note_on_c, 0, 82, 0
2, 45764, Note_on_c, 0, 82, 103
2, 45765, Note_on_c, 0, 49, 0
2, 45765, Note_on_c, 0, 70, 0
2, 45769, Note_on_c, 0, 70, 97
2, 45776, Note_on_c, 0, 49, 79
2, 45872, Note_on_c, 0, 53, 0
2, 45872, Note_on_c, 0, 60, 0
2, 45878, Note_on_c, 0, 60, 87
2, 45880, Note_on_c, 0, 56, 0
2, 45883, Note_on_c, 0, 53, 78
2, 45884, Note_on_c, 0, 56, 85
2, 45886, Note_on_c, 0, 65, 67
2, 45895, Note_on_c, 0, 65, 0
2, 45980, Note_on_c, 0, 82, 0
2, 45987, Note_on_c, 0, 49, 0
2, 45987, Note_on_c, 0, 70, 0
2, 45991, Note_on_c, 0, 82, 108
2, 45993, Note_on_c, 0, 70, 98
2, 45998, Note_on_c, 0, 49, 87
2, 46103, Note_on_c, 0, 37, 0
2, 46103, Note_on_c, 0, 49, 0
2, 46103, Note_on_c, 0, 53, 0
2, 46103, Note_on_c, 0, 77, 0
2, 46103, Note_on_c, 0, 84, 0
2, 46107, Note_on_c, 0, 53, 69
2, 46108, Note_on_c, 0, 49, 89
2, 46109, Note_on_c, 0, 84, 102
2, 46110, Note_on_c, 0, 72, 0
2, 46110, Note_on_c, 0, 80, 0
2, 46113, Note_on_c, 0, 77, 89
2, 46113, Note_on_c, 0, 37, 82
2, 46114, Note_on_c, 0, 72, 87
2, 46121, Note_on_c, 0, 80, 84
2, 46225, Note_on_c, 0, 87, 109
2, 46225, Note_on_c, 0, 49, 0
2, 46229, Note_on_c, 0, 75, 106
2, 46230, Note_on_c, 0, 49, 90
2, 46233, Note_on_c, 0, 82, 0
2, 46243, Note_on_c, 0, 82, 82
2, 46333, Note_on_c, 0, 60, 0
2, 46340, Note_on_c, 0, 60, 93
2, 46341, Note_on_c, 0, 49, 0
2, 46341, Note_on_c, 0, 53, 0
2, 46341, Note_on_c, 0, 56, 0
2, 46345, Note_on_c, 0, 53, 74
2, 46346, Note_on_c, 0, 49, 80
2, 46346, Note_on_c, 0, 56, 87
2, 46417, Note_on_c, 0, 49, 0
2, 46425, Note_on_c, 0, 56, 0
2, 46428, Note_on_c, 0, 49, 55
2, 46436, Note_on_c, 0, 56, 77
2, 46448, Note_on_c, 0, 75, 0
2, 46448, Note_on_c, 0, 87, 0
2, 46459, Note_on_c, 0, 87, 103
2, 46459, Note_on_c, 0, 75, 102
2, 46512, Note_on_c, 0, 53, 0
2, 46513, Control_c, 0, 64, 0
2, 46513, Note_on_c, 0, 60, 0
2, 46513, Note_on_c, 0, 80, 0
2, 46513, Note_on_c, 0, 49, 0
2, 46513, Note_on_c, 0, 77, 0
2, 46513, Note_on_c, 0, 56, 0
2, 46514, Note_on_c, 0, 75, 0
2, 46514, Note_on_c, 0, 82, 0
2, 46514, Note_on_c, 0, 70, 0
2, 46514, Note_on_c, 0, 72, 0
2, 46514, Note_on_c, 0, 87, 0
2, 46514, Note_on_c, 0, 84, 0
2, 46525, Note_on_c, 0, 25, 0
2, 46533, Note_on_c, 0, 37, 0
2, 46533, Note_on_c, 0, 48, 0
2, 46568, Note_on_c, 0, 34, 92
2, 46574, Note_on_c, 0, 82, 104
2, 46574, Note_on_c, 0, 27, 95
2, 46575, Note_on_c, 0, 87, 112
2, 46575, Note_on_c, 0, 39, 97
2, 46575, Note_on_c, 0, 75, 111
2, 46581, Note_on_c, 0, 79, 100
2, 46594, Control_c, 0, 64, 127
2, 46800, Note_on_c, 0, 51, 74
2, 46803, Note_on_c, 0, 58, 84
2, 46805, Note_on_c, 0, 55, 80
2, 46809, Note_on_c, 0, 82, 0
2, 46809, Note_on_c, 0, 87, 0
2, 46817, Note_on_c, 0, 79, 0
2, 46820, Note_on_c, 0, 87, 97
2, 46820, Note_on_c, 0, 82, 100
2, 46827, Note_on_c, 0, 79, 86
2, 46898, Control_c, 0, 64, 0
2, 46932, Control_c, 0, 64, 127
2, 46940, Note_on_c, 0, 39, 0
2, 46944, Note_on_c, 0, 39, 82
2, 46945, Note_on_c, 0, 85, 103
2, 46949, Note_on_c, 0, 73, 99
2, 47047, Note_on_c, 0, 39, 0
2, 47047, Note_on_c, 0, 51, 0
2, 47057, Note_on_c, 0, 39, 62
2, 47058, Note_on_c, 0, 51, 81
2, 47178, Note_on_c, 0, 51, 0
2, 47180, Note_on_c, 0, 84, 108
2, 47182, Note_on_c, 0, 72, 95
2, 47183, Note_on_c, 0, 63, 72
2, 47186, Note_on_c, 0, 51, 71
2, 47278, Note_on_c, 0, 51, 0
2, 47278, Note_on_c, 0, 55, 0
2, 47278, Note_on_c, 0, 58, 0
2, 47278, Note_on_c, 0, 63, 0
2, 47287, Note_on_c, 0, 63, 84
2, 47288, Note_on_c, 0, 58, 86
2, 47288, Note_on_c, 0, 55, 81
2, 47289, Note_on_c, 0, 51, 76
2, 47416, Note_on_c, 0, 34, 0
2, 47416, Note_on_c, 0, 82, 0
2, 47424, Note_on_c, 0, 75, 0
2, 47427, Note_on_c, 0, 82, 109
2, 47429, Note_on_c, 0, 70, 98
2, 47431, Note_on_c, 0, 39, 0
2, 47431, Note_on_c, 0, 79, 0
2, 47434, Note_on_c, 0, 75, 88
2, 47435, Note_on_c, 0, 79, 86
2, 47437, Note_on_c, 0, 39, 84
2, 47523, Note_on_c, 0, 39, 0
2, 47528, Note_on_c, 0, 39, 71
2, 47761, Note_on_c, 0, 51, 0
2, 47761, Note_on_c, 0, 55, 0
2, 47761, Note_on_c, 0, 58, 0
2, 47761, Note_on_c, 0, 63, 0
2, 47765, Note_on_c, 0, 63, 84
2, 47766, Note_on_c, 0, 58, 68
2, 47767, Note_on_c, 0, 51, 76
2, 47770, Note_on_c, 0, 55, 81
2, 47884, Note_on_c, 0, 39, 0
2, 47889, Note_on_c, 0, 39, 79
2, 48000, Note_on_c, 0, 51, 0
2, 48009, Note_on_c, 0, 80, 99
2, 48011, Note_on_c, 0, 51, 92
2, 48011, Note_on_c, 0, 68, 96
2, 48014, Note_on_c, 0, 60, 60
2, 48130, Note_on_c, 0, 39, 0
2, 48138, Note_on_c, 0, 51, 0
2, 48138, Note_on_c, 0, 55, 0
2, 48138, Note_on_c, 0, 58, 0
2, 48138, Note_on_c, 0, 63, 0
2, 48141, Note_on_c, 0, 39, 55
2, 48142, Note_on_c, 0, 58, 54
2, 48142, Note_on_c, 0, 51, 52
2, 48147, Note_on_c, 0, 63, 41
2, 48148, Note_on_c, 0, 55, 47
2, 48238, Note_on_c, 0, 51, 0
2, 48238, Note_on_c, 0, 63, 0
2, 48238, Note_on_c, 0, 82, 0
2, 48245, Note_on_c, 0, 58, 0
2, 48245, Note_on_c, 0, 70, 0
2, 48245, Note_on_c, 0, 75, 0
2, 48245, Note_on_c, 0, 79, 0
2, 48247, Note_on_c, 0, 63, 92
2, 48247, Note_on_c, 0, 51, 89
2, 48249, Note_on_c, 0, 82, 109
2, 48250, Note_on_c, 0, 58, 82
2, 48250, Note_on_c, 0, 70, 100
2, 48253, Note_on_c, 0, 79, 92
2, 48254, Note_on_c, 0, 75, 91
2, 48322, Note_on_c, 0, 51, 0
2, 48332, Note_on_c, 0, 51, 60
2, 48449, Control_c, 0, 64, 0
2, 48450, Note_on_c, 0, 55, 0
2, 48450, Note_on_c, 0, 51, 0
2, 48450, Note_on_c, 0, 82, 0
2, 48450, Note_on_c, 0, 58, 0
2, 48450, Note_on_c, 0, 79, 0
2, 48450, Note_on_c, 0, 73, 0
2, 48451, Note_on_c, 0, 63, 0
2, 48451, Note_on_c, 0, 72, 0
2, 48451, Note_on_c, 0, 85, 0
2, 48451, Note_on_c, 0, 84, 0
2, 48451, Note_on_c, 0, 70, 0
2, 48451, Note_on_c, 0, 80, 0
2, 48452, Note_on_c, 0, 75, 0
2, 48452, Note_on_c, 0, 68, 0
2, 48453, Note_on_c, 0, 27, 0
2, 48453, Note_on_c, 0, 60, 0
2, 48460, Note_on_c, 0, 87, 0
2, 48476, Note_on_c, 0, 39, 0
2, 48487, Note_on_c, 0, 48, 91
2, 48487, Note_on_c, 0, 36, 86
2, 48514, Control_c, 0, 64, 127
2, 48614, Note_on_c, 0, 82, 98
2, 48614, Note_on_c, 0, 70, 89
2, 48618, Note_on_c, 0, 75, 88
2, 48698, Note_on_c, 0, 48, 0
2, 48703, Note_on_c, 0, 60, 85
2, 48706, Note_on_c, 0, 70, 0
2, 48708, Note_on_c, 0, 48, 87
2, 48708, Note_on_c, 0, 51, 86
2, 48714, Note_on_c, 0, 82, 0
2, 48718, Note_on_c, 0, 70, 85
2, 48719, Note_on_c, 0, 82, 92
2, 48829, Note_on_c, 0, 36, 0
2, 48829, Note_on_c, 0, 48, 0
2, 48829, Note_on_c, 0, 75, 0
2, 48829, Note_on_c, 0, 82, 0
2, 48839, Note_on_c, 0, 36, 77
2, 48839, Note_on_c, 0, 82, 97
2, 48840, Note_on_c, 0, 48, 75
2, 48840, Note_on_c, 0, 75, 96
2, 48841, Note_on_c, 0, 87, 85
2, 48852, Note_on_c, 0, 87, 0
2, 48944, Note_on_c, 0, 36, 0
2, 48944, Note_on_c, 0, 48, 0
2, 48950, Note_on_c, 0, 36, 76
2, 48952, Note_on_c, 0, 70, 0
2, 48952, Note_on_c, 0, 75, 0
2, 48952, Note_on_c, 0, 82, 0
2, 48954, Note_on_c, 0, 48, 84
2, 48956, Note_on_c, 0, 82, 102
2, 48956, Note_on_c, 0, 75, 99
2, 48956, Note_on_c, 0, 87, 85
2, 48963, Note_on_c, 0, 70, 88
2, 49082, Note_on_c, 0, 36, 0
2, 49082, Note_on_c, 0, 48, 0
2, 49087, Note_on_c, 0, 48, 85
2, 49088, Note_on_c, 0, 36, 62
2, 49167, Note_on_c, 0, 60, 0
2, 49172, Note_on_c, 0, 60, 87
2, 49175, Note_on_c, 0, 48, 0
2, 49175, Note_on_c, 0, 51, 0
2, 49178, Note_on_c, 0, 72, 77
2, 49181, Note_on_c, 0, 51, 60
2, 49182, Note_on_c, 0, 72, 0
2, 49184, Note_on_c, 0, 48, 80
2, 49197, Note_on_c, 0, 68, 95
2, 49201, Note_on_c, 0, 80, 99
2, 49313, Note_on_c, 0, 36, 0
2, 49313, Note_on_c, 0, 48, 0
2, 49318, Note_on_c, 0, 36, 76
2, 49318, Note_on_c, 0, 48, 75
2, 49332, Note_on_c, 0, 82, 0
2, 49332, Note_on_c, 0, 70, 0
2, 49332, Note_on_c, 0, 75, 0
2, 49333, Note_on_c, 0, 87, 0
2, 49333, Note_on_c, 0, 60, 0
2, 49334, Control_c, 0, 64, 0
2, 49334, Note_on_c, 0, 80, 0
2, 49334, Note_on_c, 0, 68, 0
2, 49351, Note_on_c, 0, 51, 0
2, 49374, Note_on_c, 0, 48, 0
2, 49397, Note_on_c, 0, 36, 0
2, 49413, Control_c, 0, 64, 127
2, 49428, Note_on_c, 0, 48, 80
2, 49429, Note_on_c, 0, 82, 108
2, 49432, Note_on_c, 0, 70, 94
2, 49435, Note_on_c, 0, 75, 94
2, 49528, Note_on_c, 0, 48, 0
2, 49539, Note_on_c, 0, 48, 72
2, 49539, Note_on_c, 0, 36, 74
2, 49643, Note_on_c, 0, 48, 0
2, 49643, Note_on_c, 0, 60, 88
2, 49649, Note_on_c, 0, 48, 81
2, 49656, Note_on_c, 0, 51, 81
2, 49660, Note_on_c, 0, 80, 95
2, 49660, Note_on_c, 0, 72, 80
2, 49661, Note_on_c, 0, 68, 91
2, 49774, Note_on_c, 0, 36, 0
2, 49774, Note_on_c, 0, 72, 0
2, 49774, Note_on_c, 0, 75, 0
2, 49779, Note_on_c, 0, 84, 104
2, 49781, Note_on_c, 0, 80, 0
2, 49783, Note_on_c, 0, 39, 73
2, 49784, Note_on_c, 0, 36, 83
2, 49784, Note_on_c, 0, 75, 96
2, 49785, Note_on_c, 0, 72, 96
2, 49786, Note_on_c, 0, 80, 82
2, 49873, Note_on_c, 0, 36, 0
2, 49873, Note_on_c, 0, 48, 0
2, 49882, Note_on_c, 0, 48, 89
2, 49884, Note_on_c, 0, 36, 72
2, 49996, Note_on_c, 0, 48, 0
2, 50002, Note_on_c, 0, 48, 75
2, 50104, Note_on_c, 0, 51, 0
2, 50108, Note_on_c, 0, 51, 88
2, 50112, Note_on_c, 0, 48, 0
2, 50123, Note_on_c, 0, 48, 65
2, 50215, Note_on_c, 0, 48, 0
2, 50215, Note_on_c, 0, 51, 0
2, 50215, Note_on_c, 0, 68, 0
2, 50215, Note_on_c, 0, 70, 0
2, 50215, Note_on_c, 0, 60, 0
2, 50215, Note_on_c, 0, 72, 0
2, 50216, Note_on_c, 0, 84, 0
2, 50216, Control_c, 0, 64, 0
2, 50219, Note_on_c, 0, 39, 0
2, 50227, Note_on_c, 0, 36, 0
2, 50227, Note_on_c, 0, 80, 0
2, 50234, Note_on_c, 0, 82, 0
2, 50238, Note_on_c, 0, 82, 110
2, 50242, Note_on_c, 0, 75, 0
2, 50243, Note_on_c, 0, 41, 93
2, 50243, Note_on_c, 0, 29, 97
2, 50246, Note_on_c, 0, 75, 101
2, 50247, Note_on_c, 0, 70, 99
2, 50296, Control_c, 0, 64, 127
2, 50482, Note_on_c, 0, 80, 92
2, 50484, Note_on_c, 0, 53, 78
2, 50484, Note_on_c, 0, 68, 78
2, 50491, Note_on_c, 0, 56, 68
2, 50496, Note_on_c, 0, 56, 0
2, 50592, Note_on_c, 0, 84, 104
2, 50595, Note_on_c, 0, 53, 0
2, 50595, Note_on_c, 0, 68, 0
2, 50595, Note_on_c, 0, 75, 0
2, 50597, Note_on_c, 0, 72, 96
2, 50598, Note_on_c, 0, 60, 84
2, 50599, Note_on_c, 0, 68, 87
2, 50599, Note_on_c, 0, 56, 80
2, 50599, Note_on_c, 0, 75, 95
2, 50600, Note_on_c, 0, 48, 79
2, 50601, Note_on_c, 0, 53, 81
2, 50611, Note_on_c, 0, 29, 0
2, 50628, Note_on_c, 0, 80, 0
2, 50630, Note_on_c, 0, 82, 0
2, 50630, Note_on_c, 0, 70, 0
2, 50630, Control_c, 0, 64, 0
2, 50636, Note_on_c, 0, 75, 0
2, 50637, Note_on_c, 0, 48, 0
2, 50638, Note_on_c, 0, 56, 0
2, 50638, Note_on_c, 0, 60, 0
2, 50638, Note_on_c, 0, 72, 0
2, 50638, Note_on_c, 0, 53, 0
2, 50639, Note_on_c, 0, 84, 0
2, 50641, Note_on_c, 0, 41, 0
2, 50657, Note_on_c, 0, 68, 0
2, 50707, Note_on_c, 0, 53, 72
2, 50835, Note_on_c, 0, 84, 101
2, 50837, Note_on_c, 0, 72, 101
2, 50838, Note_on_c, 0, 56, 90
2, 50838, Note_on_c, 0, 60, 85
2, 50839, Note_on_c, 0, 75, 101
2, 50840, Note_on_c, 0, 48, 77
2, 50849, Control_c, 0, 64, 127
2, 51066, Note_on_c, 0, 82, 95
2, 51068, Note_on_c, 0, 41, 81
2, 51070, Note_on_c, 0, 70, 82
2, 51179, Note_on_c, 0, 53, 0
2, 51179, Note_on_c, 0, 56, 0
2, 51185, Note_on_c, 0, 80, 96
2, 51186, Note_on_c, 0, 53, 80
2, 51188, Note_on_c, 0, 56, 71
2, 51189, Note_on_c, 0, 68, 88
2, 51310, Note_on_c, 0, 75, 0
2, 51310, Note_on_c, 0, 84, 0
2, 51315, Note_on_c, 0, 84, 98
2, 51317, Note_on_c, 0, 53, 0
2, 51317, Note_on_c, 0, 56, 0
2, 51317, Note_on_c, 0, 60, 0
2, 51321, Note_on_c, 0, 75, 97
2, 51322, Note_on_c, 0, 60, 89
2, 51323, Note_on_c, 0, 53, 84
2, 51324, Note_on_c, 0, 56, 82
2, 51359, Note_on_c, 0, 68, 0
2, 51360, Note_on_c, 0, 72, 0
2, 51360, Note_on_c, 0, 75, 0
2, 51360, Note_on_c, 0, 80, 0
2, 51361, Note_on_c, 0, 56, 0
2, 51361, Note_on_c, 0, 84, 0
2, 51362, Note_on_c, 0, 41, 0
2, 51362, Note_on_c, 0, 53, 0
2, 51362, Note_on_c, 0, 82, 0
2, 51364, Note_on_c, 0, 70, 0
2, 51365, Note_on_c, 0, 48, 0
2, 51365, Note_on_c, 0, 60, 0
2, 51369, Control_c, 0, 64, 0
2, 51432, Note_on_c, 0, 53, 68
2, 51548, Control_c, 0, 64, 127
2, 51551, Note_on_c, 0, 72, 104
2, 51551, Note_on_c, 0, 56, 88
2, 51552, Note_on_c, 0, 84, 102
2, 51552, Note_on_c, 0, 68, 92
2, 51552, Note_on_c, 0, 60, 89
2, 51553, Note_on_c, 0, 75, 103
2, 51556, Note_on_c, 0, 80, 83
2, 51791, Note_on_c, 0, 82, 102
2, 51797, Note_on_c, 0, 70, 84
2, 51909, Note_on_c, 0, 80, 0
2, 51916, Note_on_c, 0, 68, 0
2, 51919, Note_on_c, 0, 80, 105
2, 51921, Note_on_c, 0, 68, 105
2, 51932, Note_on_c, 0, 53, 0
2, 51932, Note_on_c, 0, 56, 0
2, 51932, Note_on_c, 0, 60, 0
2, 51936, Note_on_c, 0, 60, 63
2, 51936, Note_on_c, 0, 53, 79
2, 51938, Note_on_c, 0, 56, 74
2, 51942, Note_on_c, 0, 48, 78
2, 52032, Note_on_c, 0, 48, 0
2, 52035, Note_on_c, 0, 41, 86
2, 52036, Note_on_c, 0, 48, 78
2, 52143, Note_on_c, 0, 68, 0
2, 52143, Note_on_c, 0, 82, 0
2, 52143, Note_on_c, 0, 70, 0
2, 52143, Note_on_c, 0, 75, 0
2, 52143, Note_on_c, 0, 84, 0
2, 52143, Note_on_c, 0, 56, 0
2, 52143, Note_on_c, 0, 48, 0
2, 52144, Note_on_c, 0, 72, 0
2, 52144, Note_on_c, 0, 77, 99
2, 52144, Note_on_c, 0, 65, 91
2, 52145, Note_on_c, 0, 80, 0
2, 52145, Note_on_c, 0, 41, 0
2, 52149, Note_on_c, 0, 53, 0
2, 52149, Control_c, 0, 64, 0
2, 52162, Note_on_c, 0, 60, 0
2, 52173, Note_on_c, 0, 65, 0
2, 52181, Note_on_c, 0, 77, 0
2, 52263, Note_on_c, 0, 84, 108
2, 52265, Note_on_c, 0, 25, 105
2, 52266, Note_on_c, 0, 37, 93
2, 52266, Note_on_c, 0, 77, 94
2, 52267, Note_on_c, 0, 72, 101
2, 52270, Note_on_c, 0, 25, 0
2, 52272, Note_on_c, 0, 80, 93
2, 52277, Control_c, 0, 64, 127
2, 52488, Note_on_c, 0, 60, 76
2, 52494, Note_on_c, 0, 56, 59
2, 52498, Note_on_c, 0, 49, 67
2, 52504, Note_on_c, 0, 82, 100
2, 52505, Note_on_c, 0, 53, 61
2, 52511, Note_on_c, 0, 70, 89
2, 52623, Note_on_c, 0, 77, 0
2, 52623, Note_on_c, 0, 84, 0
2, 52631, Note_on_c, 0, 72, 0
2, 52631, Note_on_c, 0, 80, 0
2, 52633, Note_on_c, 0, 84, 97
2, 52634, Note_on_c, 0, 77, 92
2, 52635, Note_on_c, 0, 72, 92
2, 52641, Note_on_c, 0, 80, 84
2, 52730, Note_on_c, 0, 49, 0
2, 52739, Note_on_c, 0, 49, 81
2, 52861, Note_on_c, 0, 53, 0
2, 52861, Note_on_c, 0, 70, 0
2, 52861, Note_on_c, 0, 82, 0
2, 52865, Note_on_c, 0, 82, 103
2, 52867, Note_on_c, 0, 53, 57
2, 52867, Note_on_c, 0, 70, 89
2, 52968, Note_on_c, 0, 60, 0
2, 52976, Note_on_c, 0, 53, 0
2, 52976, Note_on_c, 0, 56, 0
2, 52978, Note_on_c, 0, 60, 91
2, 52984, Note_on_c, 0, 56, 78
2, 52988, Note_on_c, 0, 53, 72
2, 53091, Note_on_c, 0, 84, 0
2, 53099, Note_on_c, 0, 72, 0
2, 53099, Note_on_c, 0, 77, 0
2, 53101, Note_on_c, 0, 84, 101
2, 53104, Note_on_c, 0, 77, 96
2, 53105, Note_on_c, 0, 72, 99
2, 53107, Note_on_c, 0, 37, 0
2, 53113, Note_on_c, 0, 37, 92
2, 53122, Note_on_c, 0, 80, 0
2, 53133, Note_on_c, 0, 80, 70
2, 53207, Note_on_c, 0, 49, 0
2, 53211, Note_on_c, 0, 49, 90
2, 53337, Note_on_c, 0, 70, 0
2, 53337, Note_on_c, 0, 82, 0
2, 53345, Note_on_c, 0, 53, 0
2, 53345, Note_on_c, 0, 82, 102
2, 53348, Note_on_c, 0, 70, 90
2, 53351, Note_on_c, 0, 53, 56
2, 53445, Note_on_c, 0, 60, 0
2, 53452, Note_on_c, 0, 53, 0
2, 53452, Note_on_c, 0, 56, 0
2, 53456, Note_on_c, 0, 60, 82
2, 53456, Note_on_c, 0, 68, 77
2, 53458, Note_on_c, 0, 65, 72
2, 53458, Note_on_c, 0, 53, 75
2, 53462, Note_on_c, 0, 56, 75
2, 53468, Note_on_c, 0, 65, 0
2, 53560, Note_on_c, 0, 37, 0
2, 53560, Note_on_c, 0, 82, 0
2, 53568, Note_on_c, 0, 70, 0
2, 53570, Note_on_c, 0, 82, 103
2, 53571, Note_on_c, 0, 37, 88
2, 53572, Note_on_c, 0, 70, 86
2, 53683, Note_on_c, 0, 49, 0
2, 53683, Note_on_c, 0, 72, 0
2, 53683, Note_on_c, 0, 77, 0
2, 53683, Note_on_c, 0, 84, 0
2, 53688, Note_on_c, 0, 84, 103
2, 53690, Note_on_c, 0, 53, 0
2, 53691, Note_on_c, 0, 49, 84
2, 53693, Note_on_c, 0, 72, 89
2, 53694, Note_on_c, 0, 77, 87
2, 53695, Note_on_c, 0, 53, 77
2, 53806, Note_on_c, 0, 49, 0
2, 53808, Note_on_c, 0, 87, 110
2, 53810, Note_on_c, 0, 49, 81
2, 53811, Note_on_c, 0, 75, 106
2, 53928, Note_on_c, 0, 56, 0
2, 53928, Note_on_c, 0, 60, 0
2, 53932, Note_on_c, 0, 60, 94
2, 53935, Note_on_c, 0, 56, 78
2, 53942, Note_on_c, 0, 48, 69
2, 53944, Note_on_c, 0, 53, 0
2, 53948, Note_on_c, 0, 53, 62
2, 54005, Note_on_c, 0, 49, 0
2, 54010, Note_on_c, 0, 49, 71
2, 54036, Note_on_c, 0, 75, 0
2, 54036, Note_on_c, 0, 87, 0
2, 54043, Note_on_c, 0, 87, 106
2, 54046, Note_on_c, 0, 75, 101
2, 54115, Note_on_c, 0, 49, 0
2, 54116, Note_on_c, 0, 53, 0
2, 54116, Note_on_c, 0, 80, 0
2, 54116, Note_on_c, 0, 82, 0
2, 54116, Note_on_c, 0, 87, 0
2, 54116, Note_on_c, 0, 75, 0
2, 54116, Note_on_c, 0, 56, 0
2, 54117, Note_on_c, 0, 70, 0
2, 54117, Note_on_c, 0, 84, 0
2, 54117, Control_c, 0, 64, 0
2, 54120, Note_on_c, 0, 68, 0
2, 54128, Note_on_c, 0, 48, 0
2, 54136, Note_on_c, 0, 37, 0
2, 54136, Note_on_c, 0, 60, 0
2, 54136, Note_on_c, 0, 72, 0
2, 54136, Note_on_c, 0, 77, 0
2, 54155, Note_on_c, 0, 34, 91
2, 54159, Note_on_c, 0, 34, 0
2, 54162, Note_on_c, 0, 79, 106
2, 54163, Note_on_c, 0, 27, 92
2, 54163, Note_on_c, 0, 82, 103
2, 54164, Note_on_c, 0, 87, 109
2, 54164, Note_on_c, 0, 39, 92
2, 54164, Note_on_c, 0, 75, 111
2, 54205, Control_c, 0, 64, 127
2, 54377, Note_on_c, 0, 63, 82
2, 54378, Note_on_c, 0, 51, 71
2, 54382, Note_on_c, 0, 51, 0
2, 54382, Note_on_c, 0, 63, 0
2, 54382, Note_on_c, 0, 87, 0
2, 54386, Note_on_c, 0, 58, 69
2, 54389, Note_on_c, 0, 75, 0
2, 54389, Note_on_c, 0, 79, 0
2, 54389, Note_on_c, 0, 82, 0
2, 54390, Note_on_c, 0, 55, 77
2, 54393, Note_on_c, 0, 87, 99
2, 54394, Note_on_c, 0, 82, 99
2, 54394, Note_on_c, 0, 75, 99
2, 54395, Note_on_c, 0, 79, 89
2, 54517, Note_on_c, 0, 85, 103
2, 54520, Note_on_c, 0, 73, 99
2, 54625, Note_on_c, 0, 63, 75
2, 54631, Note_on_c, 0, 51, 72
2, 54635, Note_on_c, 0, 63, 0
2, 54735, Note_on_c, 0, 39, 0
2, 54745, Note_on_c, 0, 39, 69
2, 54746, Note_on_c, 0, 84, 107
2, 54747, Note_on_c, 0, 72, 102
2, 54842, Note_on_c, 0, 51, 0
2, 54842, Note_on_c, 0, 55, 0
2, 54842, Note_on_c, 0, 58, 0
2, 54846, Note_on_c, 0, 63, 86
2, 54847, Note_on_c, 0, 55, 77
2, 54847, Note_on_c, 0, 58, 81
2, 54847, Note_on_c, 0, 51, 85
2, 54981, Note_on_c, 0, 82, 0
2, 54985, Note_on_c, 0, 82, 110
2, 54988, Note_on_c, 0, 27, 0
2, 54988, Note_on_c, 0, 39, 0
2, 54988, Note_on_c, 0, 75, 0
2, 54988, Note_on_c, 0, 79, 0
2, 54990, Note_on_c, 0, 70, 100
2, 54993, Note_on_c, 0, 39, 85
2, 54993, Note_on_c, 0, 79, 90
2, 54994, Note_on_c, 0, 27, 84
2, 54998, Note_on_c, 0, 75, 94
2, 55211, Note_on_c, 0, 51, 0
2, 55211, Note_on_c, 0, 58, 0
2, 55217, Note_on_c, 0, 51, 77
2, 55219, Note_on_c, 0, 55, 0
2, 55220, Note_on_c, 0, 58, 52
2, 55223, Note_on_c, 0, 55, 48
2, 55326, Note_on_c, 0, 51, 0
2, 55326, Note_on_c, 0, 55, 0
2, 55326, Note_on_c, 0, 58, 0
2, 55326, Note_on_c, 0, 63, 0
2, 55331, Note_on_c, 0, 63, 87
2, 55331, Note_on_c, 0, 55, 88
2, 55332, Note_on_c, 0, 58, 76
2, 55332, Note_on_c, 0, 51, 82
2, 55457, Note_on_c, 0, 39, 0
2, 55467, Note_on_c, 0, 39, 88
2, 55564, Note_on_c, 0, 58, 0
2, 55565, Note_on_c, 0, 80, 101
2, 55567, Note_on_c, 0, 68, 99
2, 55569, Note_on_c, 0, 58, 73
2, 55687, Note_on_c, 0, 51, 0
2, 55687, Note_on_c, 0, 55, 0
2, 55687, Note_on_c, 0, 58, 0
2, 55687, Note_on_c, 0, 63, 0
2, 55692, Note_on_c, 0, 51, 85
2, 55696, Note_on_c, 0, 63, 76
2, 55697, Note_on_c, 0, 58, 61
2, 55698, Note_on_c, 0, 55, 68
2, 55802, Note_on_c, 0, 51, 0
2, 55802, Note_on_c, 0, 58, 0
2, 55802, Note_on_c, 0, 63, 0
2, 55802, Note_on_c, 0, 70, 0
2, 55802, Note_on_c, 0, 75, 0
2, 55802, Note_on_c, 0, 82, 0
2, 55807, Note_on_c, 0, 63, 95
2, 55810, Note_on_c, 0, 79, 0
2, 55810, Note_on_c, 0, 82, 109
2, 55812, Note_on_c, 0, 51, 90
2, 55812, Note_on_c, 0, 67, 94
2, 55813, Note_on_c, 0, 70, 102
2, 55813, Note_on_c, 0, 58, 82
2, 55814, Note_on_c, 0, 75, 97
2, 55815, Note_on_c, 0, 79, 96
2, 55848, Note_on_c, 0, 67, 0
2, 56001, Note_on_c, 0, 55, 0
2, 56002, Note_on_c, 0, 82, 0
2, 56003, Note_on_c, 0, 39, 0
2, 56003, Note_on_c, 0, 73, 0
2, 56003, Note_on_c, 0, 63, 0
2, 56003, Note_on_c, 0, 58, 0
2, 56003, Note_on_c, 0, 85, 0
2, 56004, Note_on_c, 0, 80, 0
2, 56004, Note_on_c, 0, 79, 0
2, 56004, Note_on_c, 0, 87, 0
2, 56004, Note_on_c, 0, 72, 0
2, 56004, Note_on_c, 0, 70, 0
2, 56004, Note_on_c, 0, 84, 0
2, 56004, Note_on_c, 0, 68, 0
2, 56005, Control_c, 0, 64, 0
2, 56010, Note_on_c, 0, 27, 0
2, 56017, Note_on_c, 0, 51, 0
2, 56043, Note_on_c, 0, 48, 98
2, 56044, Note_on_c, 0, 36, 90
2, 56079, Control_c, 0, 64, 127
2, 56163, Note_on_c, 0, 75, 0
2, 56171, Note_on_c, 0, 82, 100
2, 56171, Note_on_c, 0, 70, 92
2, 56174, Note_on_c, 0, 79, 74
2, 56174, Note_on_c, 0, 75, 91
2, 56256, Note_on_c, 0, 48, 0
2, 56258, Note_on_c, 0, 51, 85
2, 56259, Note_on_c, 0, 60, 83
2, 56260, Note_on_c, 0, 48, 84
2, 56263, Note_on_c, 0, 70, 0
2, 56263, Note_on_c, 0, 82, 0
2, 56271, Note_on_c, 0, 75, 0
2, 56271, Note_on_c, 0, 79, 0
2, 56273, Note_on_c, 0, 82, 99
2, 56274, Note_on_c, 0, 70, 97
2, 56275, Note_on_c, 0, 75, 88
2, 56276, Note_on_c, 0, 79, 79
2, 56394, Note_on_c, 0, 48, 0
2, 56394, Note_on_c, 0, 79, 0
2, 56394, Note_on_c, 0, 82, 0
2, 56400, Note_on_c, 0, 48, 70
2, 56401, Note_on_c, 0, 70, 0
2, 56401, Note_on_c, 0, 75, 0
2, 56403, Note_on_c, 0, 82, 92
2, 56405, Note_on_c, 0, 79, 77
2, 56406, Note_on_c, 0, 75, 85
2, 56407, Note_on_c, 0, 70, 78
2, 56501, Note_on_c, 0, 36, 0
2, 56501, Note_on_c, 0, 48, 0
2, 56501, Note_on_c, 0, 60, 0
2, 56501, Note_on_c, 0, 70, 0
2, 56501, Note_on_c, 0, 75, 0
2, 56501, Note_on_c, 0, 82, 0
2, 56506, Note_on_c, 0, 82, 94
2, 56507, Note_on_c, 0, 48, 87
2, 56508, Note_on_c, 0, 36, 77
2, 56508, Note_on_c, 0, 60, 75
2, 56511, Note_on_c, 0, 70, 90
2, 56512, Note_on_c, 0, 75, 93
2, 56632, Note_on_c, 0, 36, 0
2, 56632, Note_on_c, 0, 48, 0
2, 56636, Note_on_c, 0, 48, 77
2, 56641, Note_on_c, 0, 36, 61
2, 56716, Note_on_c, 0, 60, 0
2, 56724, Note_on_c, 0, 48, 0
2, 56724, Note_on_c, 0, 51, 0
2, 56727, Note_on_c, 0, 60, 93
2, 56730, Note_on_c, 0, 51, 79
2, 56735, Note_on_c, 0, 48, 85
2, 56758, Note_on_c, 0, 68, 95
2, 56758, Note_on_c, 0, 80, 100
2, 56762, Note_on_c, 0, 75, 0
2, 56773, Note_on_c, 0, 75, 63
2, 56870, Note_on_c, 0, 36, 0
2, 56870, Note_on_c, 0, 48, 0
2, 56878, Note_on_c, 0, 82, 0
2, 56880, Note_on_c, 0, 70, 0
2, 56880, Note_on_c, 0, 51, 0
2, 56880, Note_on_c, 0, 75, 0
2, 56880, Note_on_c, 0, 80, 0
2, 56880, Note_on_c, 0, 68, 0
2, 56881, Note_on_c, 0, 36, 83
2, 56881, Note_on_c, 0, 60, 0
2, 56881, Note_on_c, 0, 48, 82
2, 56887, Control_c, 0, 64, 0
2, 56893, Note_on_c, 0, 79, 0
2, 56924, Note_on_c, 0, 48, 0
2, 56947, Note_on_c, 0, 36, 0
2, 56962, Control_c, 0, 64, 127
2, 56981, Note_on_c, 0, 36, 81
2, 56981, Note_on_c, 0, 82, 105
2, 56984, Note_on_c, 0, 48, 85
2, 56985, Note_on_c, 0, 70, 95
2, 56996, Note_on_c, 0, 75, 93
2, 57093, Note_on_c, 0, 36, 0
2, 57093, Note_on_c, 0, 48, 0
2, 57098, Note_on_c, 0, 48, 83
2, 57101, Note_on_c, 0, 36, 68
2, 57200, Note_on_c, 0, 60, 93
2, 57200, Note_on_c, 0, 48, 0
2, 57202, Note_on_c, 0, 51, 80
2, 57204, Note_on_c, 0, 48, 88
2, 57213, Note_on_c, 0, 72, 79
2, 57227, Note_on_c, 0, 68, 88
2, 57228, Note_on_c, 0, 80, 96
2, 57321, Note_on_c, 0, 82, 0
2, 57321, Note_on_c, 0, 68, 0
2, 57321, Note_on_c, 0, 70, 0
2, 57321, Note_on_c, 0, 80, 0
2, 57321, Note_on_c, 0, 60, 0
2, 57322, Note_on_c, 0, 51, 0
2, 57326, Control_c, 0, 64, 0
2, 57331, Note_on_c, 0, 36, 0
2, 57331, Note_on_c, 0, 48, 0
2, 57331, Note_on_c, 0, 72, 0
2, 57338, Note_on_c, 0, 75, 0
2, 57341, Note_on_c, 0, 36, 88
2, 57341, Note_on_c, 0, 48, 89
2, 57342, Note_on_c, 0, 84, 105
2, 57344, Note_on_c, 0, 75, 99
2, 57346, Note_on_c, 0, 72, 95
2, 57346, Note_on_c, 0, 80, 84
2, 57392, Control_c, 0, 64, 127
2, 57400, Note_on_c, 0, 48, 0
2, 57439, Note_on_c, 0, 48, 86
2, 57646, Note_on_c, 0, 72, 0
2, 57656, Note_on_c, 0, 72, 79
2, 57657, Note_on_c, 0, 60, 82
2, 57657, Note_on_c, 0, 51, 89
2, 57765, Note_on_c, 0, 84, 0
2, 57765, Note_on_c, 0, 60, 0
2, 57765, Note_on_c, 0, 72, 0
2, 57765, Note_on_c, 0, 36, 0
2, 57765, Note_on_c, 0, 51, 0
2, 57767, Control_c, 0, 64, 0
2, 57776, Note_on_c, 0, 80, 0
2, 57784, Note_on_c, 0, 48, 0
2, 57792, Note_on_c, 0, 75, 0
2, 57793, Note_on_c, 0, 82, 106
2, 57795, Note_on_c, 0, 41, 90
2, 57796, Note_on_c, 0, 29, 95
2, 57799, Note_on_c, 0, 70, 100
2, 57799, Note_on_c, 0, 75, 98
2, 57838, Control_c, 0, 64, 127
2, 58034, Note_on_c, 0, 80, 90
2, 58038, Note_on_c, 0, 53, 74
2, 58039, Note_on_c, 0, 72, 72
2, 58040, Note_on_c, 0, 68, 81
2, 58145, Note_on_c, 0, 68, 0
2, 58148, Note_on_c, 0, 70, 0
2, 58152, Note_on_c, 0, 56, 81
2, 58152, Note_on_c, 0, 72, 0
2, 58152, Note_on_c, 0, 75, 0
2, 58154, Note_on_c, 0, 84, 103
2, 58154, Note_on_c, 0, 60, 80
2, 58155, Note_on_c, 0, 82, 0
2, 58156, Note_on_c, 0, 68, 87
2, 58156, Note_on_c, 0, 80, 0
2, 58156, Control_c, 0, 64, 0
2, 58157, Note_on_c, 0, 75, 96
2, 58158, Note_on_c, 0, 72, 90
2, 58160, Note_on_c, 0, 29, 0
2, 58183, Note_on_c, 0, 41, 0
2, 58189, Note_on_c, 0, 53, 0
2, 58197, Note_on_c, 0, 60, 0
2, 58198, Note_on_c, 0, 72, 0
2, 58202, Note_on_c, 0, 75, 0
2, 58203, Note_on_c, 0, 56, 0
2, 58205, Note_on_c, 0, 84, 0
2, 58206, Note_on_c, 0, 68, 0
2, 58272, Note_on_c, 0, 53, 74
2, 58394, Note_on_c, 0, 84, 100
2, 58394, Note_on_c, 0, 68, 93
2, 58394, Note_on_c, 0, 56, 92
2, 58395, Note_on_c, 0, 60, 89
2, 58395, Note_on_c, 0, 75, 103
2, 58395, Note_on_c, 0, 72, 100
2, 58421, Control_c, 0, 64, 127
2, 58632, Note_on_c, 0, 82, 93
2, 58641, Note_on_c, 0, 41, 76
2, 58643, Note_on_c, 0, 70, 74
2, 58744, Note_on_c, 0, 68, 0
2, 58752, Note_on_c, 0, 53, 0
2, 58754, Note_on_c, 0, 80, 96
2, 58755, Note_on_c, 0, 68, 84
2, 58757, Note_on_c, 0, 53, 62
2, 58867, Note_on_c, 0, 75, 0
2, 58867, Note_on_c, 0, 84, 0
2, 58874, Note_on_c, 0, 56, 0
2, 58874, Note_on_c, 0, 60, 0
2, 58874, Note_on_c, 0, 68, 0
2, 58876, Note_on_c, 0, 84, 102
2, 58878, Note_on_c, 0, 75, 102
2, 58879, Note_on_c, 0, 68, 90
2, 58879, Note_on_c, 0, 60, 88
2, 58882, Note_on_c, 0, 56, 91
2, 58913, Note_on_c, 0, 68, 0
2, 58916, Note_on_c, 0, 41, 0
2, 58917, Note_on_c, 0, 72, 0
2, 58918, Note_on_c, 0, 56, 0
2, 58918, Note_on_c, 0, 84, 0
2, 58918, Note_on_c, 0, 53, 0
2, 58918, Note_on_c, 0, 70, 0
2, 58919, Note_on_c, 0, 80, 0
2, 58919, Note_on_c, 0, 82, 0
2, 58919, Note_on_c, 0, 60, 0
2, 58920, Note_on_c, 0, 75, 0
2, 58923, Control_c, 0, 64, 0
2, 59007, Note_on_c, 0, 53, 68
2, 59108, Note_on_c, 0, 56, 92
2, 59112, Control_c, 0, 64, 127
2, 59113, Note_on_c, 0, 68, 95
2, 59115, Note_on_c, 0, 72, 103
2, 59115, Note_on_c, 0, 84, 105
2, 59116, Note_on_c, 0, 75, 104
2, 59116, Note_on_c, 0, 60, 85
2, 59340, Note_on_c, 0, 82, 100
2, 59346, Note_on_c, 0, 70, 90
2, 59366, Note_on_c, 0, 48, 48
2, 59466, Note_on_c, 0, 68, 0
2, 59470, Note_on_c, 0, 80, 101
2, 59472, Note_on_c, 0, 68, 100
2, 59473, Note_on_c, 0, 53, 0
2, 59481, Note_on_c, 0, 53, 80
2, 59481, Note_on_c, 0, 48, 0
2, 59485, Note_on_c, 0, 48, 73
2, 59571, Note_on_c, 0, 41, 77
2, 59634, Control_c, 0, 64, 0
2, 59635, Note_on_c, 0, 41, 0
2, 59636, Note_on_c, 0, 56, 0
2, 59636, Note_on_c, 0, 53, 0
2, 59636, Note_on_c, 0, 82, 0
2, 59637, Note_on_c, 0, 48, 0
2, 59637, Note_on_c, 0, 84, 0
2, 59637, Note_on_c, 0, 60, 0
2, 59637, Note_on_c, 0, 75, 0
2, 59638, Note_on_c, 0, 72, 0
2, 59638, Note_on_c, 0, 70, 0
2, 59704, Note_on_c, 0, 68, 0
2, 59705, Note_on_c, 0, 37, 97
2, 59705, Note_on_c, 0, 49, 94
2, 59715, Note_on_c, 0, 68, 76
2, 59735, Control_c, 0, 64, 127
2, 59942, Note_on_c, 0, 49, 0
2, 59942, Note_on_c, 0, 68, 0
2, 59947, Note_on_c, 0, 68, 71
2, 59947, Note_on_c, 0, 49, 70
2, 60049, Note_on_c, 0, 68, 0
2, 60049, Note_on_c, 0, 80, 0
2, 60056, Note_on_c, 0, 56, 79
2, 60060, Note_on_c, 0, 80, 89
2, 60061, Note_on_c, 0, 68, 83
2, 60184, Note_on_c, 0, 61, 71
2, 60303, Note_on_c, 0, 68, 0
2, 60303, Note_on_c, 0, 80, 0
2, 60312, Note_on_c, 0, 80, 90
2, 60314, Note_on_c, 0, 68, 81
2, 60314, Note_on_c, 0, 65, 70
2, 60314, Note_on_c, 0, 77, 79
2, 60316, Note_on_c, 0, 73, 74
2, 60426, Note_on_c, 0, 56, 0
2, 60430, Note_on_c, 0, 56, 70
2, 60533, Note_on_c, 0, 61, 0
2, 60542, Note_on_c, 0, 61, 66
2, 60549, Note_on_c, 0, 68, 0
2, 60549, Note_on_c, 0, 80, 0
2, 60558, Note_on_c, 0, 80, 91
2, 60559, Note_on_c, 0, 68, 80
2, 60656, Note_on_c, 0, 65, 0
2, 60656, Note_on_c, 0, 80, 0
2, 60664, Note_on_c, 0, 68, 0
2, 60666, Note_on_c, 0, 65, 66
2, 60667, Note_on_c, 0, 80, 85
2, 60669, Note_on_c, 0, 68, 69
2, 60794, Note_on_c, 0, 56, 0
2, 60794, Note_on_c, 0, 68, 0
2, 60794, Note_on_c, 0, 80, 0
2, 60798, Note_on_c, 0, 80, 92
2, 60801, Note_on_c, 0, 68, 84
2, 60802, Note_on_c, 0, 73, 0
2, 60802, Note_on_c, 0, 77, 0
2, 60803, Note_on_c, 0, 56, 70
2, 60808, Note_on_c, 0, 77, 73
2, 60810, Note_on_c, 0, 73, 81
2, 60910, Note_on_c, 0, 61, 0
2, 60921, Note_on_c, 0, 61, 72
2, 61032, Note_on_c, 0, 65, 0
2, 61037, Note_on_c, 0, 65, 78
2, 61155, Note_on_c, 0, 56, 0
2, 61155, Note_on_c, 0, 80, 0
2, 61163, Note_on_c, 0, 68, 0
2, 61166, Note_on_c, 0, 56, 74
2, 61166, Note_on_c, 0, 80, 91
2, 61169, Note_on_c, 0, 68, 87
2, 61278, Note_on_c, 0, 61, 0
2, 61286, Note_on_c, 0, 61, 72
2, 61386, Note_on_c, 0, 65, 0
2, 61397, Note_on_c, 0, 65, 79
2, 61516, Note_on_c, 0, 56, 0
2, 61518, Note_on_c, 0, 82, 94
2, 61521, Note_on_c, 0, 68, 0
2, 61525, Note_on_c, 0, 56, 86
2, 61528, Note_on_c, 0, 70, 76
2, 61601, Note_on_c, 0, 65, 0
2, 61612, Note_on_c, 0, 65, 65
2, 61754, Note_on_c, 0, 37, 0
2, 61765, Note_on_c, 0, 79, 98
2, 61769, Note_on_c, 0, 39, 71
2, 61770, Note_on_c, 0, 70, 0
2, 61772, Note_on_c, 0, 67, 86
2, 61773, Note_on_c, 0, 73, 0
2, 61773, Note_on_c, 0, 65, 0
2, 61773, Note_on_c, 0, 56, 0
2, 61773, Note_on_c, 0, 77, 0
2, 61774, Control_c, 0, 64, 0
2, 61774, Note_on_c, 0, 61, 0
2, 61774, Note_on_c, 0, 82, 0
2, 61775, Note_on_c, 0, 75, 81
2, 61780, Note_on_c, 0, 70, 79
2, 61785, Note_on_c, 0, 49, 0
2, 61793, Note_on_c, 0, 80, 0
2, 61870, Control_c, 0, 64, 127
2, 61907, Note_on_c, 0, 46, 55
2, 61990, Note_on_c, 0, 53, 69
2, 62124, Note_on_c, 0, 77, 94
2, 62129, Note_on_c, 0, 65, 80
2, 62135, Note_on_c, 0, 55, 63
2, 62253, Note_on_c, 0, 58, 72
2, 62348, Note_on_c, 0, 63, 78
2, 62461, Note_on_c, 0, 65, 0
2, 62461, Note_on_c, 0, 75, 0
2, 62471, Note_on_c, 0, 75, 97
2, 62471, Note_on_c, 0, 65, 74
2, 62584, Note_on_c, 0, 67, 0
2, 62588, Note_on_c, 0, 67, 78
2, 62724, Note_on_c, 0, 72, 93
2, 62764, Control_c, 0, 64, 0
2, 62765, Note_on_c, 0, 58, 0
2, 62766, Note_on_c, 0, 67, 0
2, 62766, Note_on_c, 0, 55, 0
2, 62766, Note_on_c, 0, 70, 0
2, 62766, Note_on_c, 0, 46, 0
2, 62766, Note_on_c, 0, 77, 0
2, 62766, Note_on_c, 0, 63, 0
2, 62767, Note_on_c, 0, 65, 0
2, 62768, Note_on_c, 0, 39, 0
2, 62769, Note_on_c, 0, 75, 0
2, 62769, Note_on_c, 0, 53, 0
2, 62769, Note_on_c, 0, 79, 0
2, 62846, Note_on_c, 0, 80, 95
2, 62880, Note_on_c, 0, 72, 0
2, 62883, Control_c, 0, 64, 127
2, 62955, Note_on_c, 0, 79, 98
2, 63052, Note_on_c, 0, 80, 0
2, 63072, Note_on_c, 0, 72, 97
2, 63182, Note_on_c, 0, 82, 106
2, 63185, Note_on_c, 0, 70, 96
2, 63302, Note_on_c, 0, 80, 102
2, 63306, Note_on_c, 0, 68, 102
2, 63421, Note_on_c, 0, 79, 0
2, 63429, Note_on_c, 0, 72, 0
2, 63433, Note_on_c, 0, 72, 82
2, 63492, Note_on_c, 0, 70, 0
2, 63492, Note_on_c, 0, 82, 0
2, 63493, Note_on_c, 0, 80, 0
2, 63493, Note_on_c, 0, 68, 0
2, 63493, Note_on_c, 0, 72, 0
2, 63494, Control_c, 0, 64, 0
2, 63546, Note_on_c, 0, 84, 105
2, 63548, Note_on_c, 0, 77, 103
2, 63549, Note_on_c, 0, 80, 99
2, 63550, Note_on_c, 0, 72, 101
2, 63555, Note_on_c, 0, 25, 104
2, 63555, Note_on_c, 0, 37, 102
2, 63575, Control_c, 0, 64, 127
2, 63789, Note_on_c, 0, 49, 58
2, 63797, Note_on_c, 0, 49, 0
2, 63926, Note_on_c, 0, 82, 99
2, 63927, Note_on_c, 0, 49, 68
2, 63927, Note_on_c, 0, 56, 74
2, 63932, Note_on_c, 0, 53, 74
2, 63932, Note_on_c, 0, 70, 91
2, 64035, Note_on_c, 0, 49, 0
2, 64044, Note_on_c, 0, 49, 71
2, 64158, Note_on_c, 0, 56, 0
2, 64158, Note_on_c, 0, 84, 0
2, 64165, Note_on_c, 0, 56, 77
2, 64166, Note_on_c, 0, 49, 0
2, 64166, Note_on_c, 0, 53, 0
2, 64166, Note_on_c, 0, 72, 0
2, 64170, Note_on_c, 0, 84, 101
2, 64170, Note_on_c, 0, 53, 69
2, 64171, Note_on_c, 0, 49, 81
2, 64172, Note_on_c, 0, 61, 85
2, 64174, Note_on_c, 0, 77, 0
2, 64177, Note_on_c, 0, 72, 94
2, 64178, Note_on_c, 0, 77, 87
2, 64181, Note_on_c, 0, 80, 0
2, 64187, Note_on_c, 0, 80, 78
2, 64266, Note_on_c, 0, 49, 0
2, 64275, Note_on_c, 0, 49, 63
2, 64396, Note_on_c, 0, 61, 0
2, 64401, Note_on_c, 0, 87, 107
2, 64402, Note_on_c, 0, 65, 89
2, 64406, Note_on_c, 0, 61, 80
2, 64407, Note_on_c, 0, 75, 102
2, 64535, Note_on_c, 0, 56, 0
2, 64539, Note_on_c, 0, 56, 82
2, 64634, Note_on_c, 0, 65, 0
2, 64642, Note_on_c, 0, 80, 0
2, 64644, Note_on_c, 0, 65, 84
2, 64646, Note_on_c, 0, 68, 90
2, 64647, Note_on_c, 0, 85, 103
2, 64650, Note_on_c, 0, 61, 0
2, 64652, Note_on_c, 0, 73, 100
2, 64652, Note_on_c, 0, 80, 93
2, 64654, Note_on_c, 0, 61, 77
2, 64765, Note_on_c, 0, 56, 0
2, 64770, Note_on_c, 0, 56, 76
2, 64880, Note_on_c, 0, 53, 0
2, 64880, Note_on_c, 0, 84, 0
2, 64888, Note_on_c, 0, 61, 0
2, 64888, Note_on_c, 0, 65, 0
2, 64888, Note_on_c, 0, 72, 0
2, 64890, Note_on_c, 0, 53, 79
2, 64891, Note_on_c, 0, 84, 99
2, 64893, Note_on_c, 0, 72, 87
2, 64894, Note_on_c, 0, 65, 91
2, 64897, Note_on_c, 0, 61, 81
2, 64911, Note_on_c, 0, 25, 0
2, 64995, Note_on_c, 0, 56, 0
2, 64995, Note_on_c, 0, 82, 0
2, 65000, Note_on_c, 0, 56, 81
2, 65003, Note_on_c, 0, 70, 0
2, 65005, Note_on_c, 0, 82, 109
2, 65008, Note_on_c, 0, 70, 99
2, 65014, Note_on_c, 0, 58, 71
2, 65126, Note_on_c, 0, 37, 0
2, 65126, Note_on_c, 0, 49, 0
2, 65131, Note_on_c, 0, 49, 100
2, 65137, Note_on_c, 0, 37, 89
2, 65138, Note_on_c, 0, 44, 77
2, 65153, Note_on_c, 0, 85, 0
2, 65153, Note_on_c, 0, 65, 0
2, 65153, Note_on_c, 0, 61, 0
2, 65154, Note_on_c, 0, 56, 0
2, 65154, Note_on_c, 0, 73, 0
2, 65154, Note_on_c, 0, 87, 0
2, 65155, Note_on_c, 0, 72, 0
2, 65155, Note_on_c, 0, 84, 0
2, 65156, Note_on_c, 0, 68, 0
2, 65156, Note_on_c, 0, 77, 0
2, 65156, Note_on_c, 0, 75, 0
2, 65159, Note_on_c, 0, 82, 0
2, 65160, Note_on_c, 0, 70, 0
2, 65164, Note_on_c, 0, 58, 0
2, 65177, Note_on_c, 0, 44, 0
2, 65180, Note_on_c, 0, 53, 0
2, 65180, Note_on_c, 0, 80, 0
2, 65183, Control_c, 0, 64, 0
2, 65187, Note_on_c, 0, 49, 0
2, 65195, Note_on_c, 0, 37, 0
2, 65244, Note_on_c, 0, 80, 100
2, 65245, Note_on_c, 0, 68, 97
2, 65248, Note_on_c, 0, 37, 93
2, 65349, Note_on_c, 0, 37, 0
2, 65355, Note_on_c, 0, 44, 80
2, 65357, Note_on_c, 0, 37, 81
2, 65376, Note_on_c, 0, 68, 0
2, 65378, Note_on_c, 0, 80, 0
2, 65402, Note_on_c, 0, 37, 0
2, 65402, Note_on_c, 0, 44, 0
2, 65490, Note_on_c, 0, 82, 110
2, 65492, Note_on_c, 0, 70, 102
2, 65493, Note_on_c, 0, 75, 98
2, 65493, Note_on_c, 0, 79, 97
2, 65495, Note_on_c, 0, 39, 96
2, 65496, Note_on_c, 0, 27, 92
2, 65518, Control_c, 0, 64, 127
2, 65750, Note_on_c, 0, 51, 76
2, 65838, Note_on_c, 0, 63, 83
2, 65838, Note_on_c, 0, 58, 80
2, 65838, Note_on_c, 0, 55, 81
2, 65843, Note_on_c, 0, 56, 84
2, 65846, Note_on_c, 0, 68, 82
2, 65963, Note_on_c, 0, 27, 0
2, 65963, Note_on_c, 0, 39, 0
2, 65967, Note_on_c, 0, 39, 90
2, 65968, Note_on_c, 0, 27, 80
2, 66078, Note_on_c, 0, 51, 0
2, 66078, Note_on_c, 0, 58, 0
2, 66083, Note_on_c, 0, 58, 62
2, 66088, Note_on_c, 0, 51, 75
2, 66201, Note_on_c, 0, 51, 0
2, 66201, Note_on_c, 0, 58, 0
2, 66201, Note_on_c, 0, 70, 0
2, 66205, Note_on_c, 0, 58, 60
2, 66207, Note_on_c, 0, 51, 67
2, 66213, Note_on_c, 0, 70, 66
2, 66293, Note_on_c, 0, 51, 0
2, 66293, Note_on_c, 0, 58, 0
2, 66293, Note_on_c, 0, 63, 0
2, 66297, Note_on_c, 0, 58, 78
2, 66298, Note_on_c, 0, 63, 73
2, 66300, Note_on_c, 0, 51, 80
2, 66316, Note_on_c, 0, 82, 0
2, 66319, Note_on_c, 0, 67, 72
2, 66324, Note_on_c, 0, 70, 0
2, 66327, Note_on_c, 0, 82, 106
2, 66329, Note_on_c, 0, 70, 89
2, 66416, Note_on_c, 0, 68, 0
2, 66416, Note_on_c, 0, 75, 0
2, 66417, Note_on_c, 0, 56, 0
2, 66417, Note_on_c, 0, 63, 0
2, 66418, Note_on_c, 0, 51, 0
2, 66418, Note_on_c, 0, 79, 0
2, 66418, Note_on_c, 0, 58, 0
2, 66419, Note_on_c, 0, 70, 0
2, 66424, Note_on_c, 0, 27, 0
2, 66424, Note_on_c, 0, 39, 0
2, 66425, Control_c, 0, 64, 0
2, 66432, Note_on_c, 0, 55, 0
2, 66432, Note_on_c, 0, 67, 0
2, 66432, Note_on_c, 0, 39, 95
2, 66432, Note_on_c, 0, 27, 88
2, 66436, Note_on_c, 0, 80, 102
2, 66441, Note_on_c, 0, 68, 91
2, 66485, Control_c, 0, 64, 127
2, 66508, Note_on_c, 0, 27, 0
2, 66534, Note_on_c, 0, 58, 78
2, 66537, Note_on_c, 0, 63, 73
2, 66556, Note_on_c, 0, 79, 87
2, 66558, Note_on_c, 0, 67, 88
2, 66559, Note_on_c, 0, 81, 90
2, 66662, Note_on_c, 0, 68, 0
2, 66662, Note_on_c, 0, 80, 0
2, 66671, Note_on_c, 0, 80, 95
2, 66672, Note_on_c, 0, 68, 97
2, 66746, Note_on_c, 0, 63, 0
2, 66752, Note_on_c, 0, 63, 71
2, 66752, Note_on_c, 0, 51, 71
2, 66754, Note_on_c, 0, 58, 0
2, 66759, Note_on_c, 0, 58, 70
2, 66764, Note_on_c, 0, 61, 59
2, 66765, Note_on_c, 0, 55, 71
2, 66769, Note_on_c, 0, 67, 0
2, 66769, Note_on_c, 0, 82, 0
2, 66774, Note_on_c, 0, 67, 68
2, 66774, Note_on_c, 0, 82, 105
2, 66781, Note_on_c, 0, 70, 83
2, 66853, Note_on_c, 0, 80, 0
2, 66854, Note_on_c, 0, 81, 0
2, 66855, Note_on_c, 0, 79, 0
2, 66855, Note_on_c, 0, 82, 0
2, 66856, Note_on_c, 0, 51, 0
2, 66856, Note_on_c, 0, 67, 0
2, 66857, Note_on_c, 0, 63, 0
2, 66863, Control_c, 0, 64, 0
2, 66877, Note_on_c, 0, 68, 0
2, 66885, Note_on_c, 0, 61, 0
2, 66885, Note_on_c, 0, 70, 0
2, 66892, Note_on_c, 0, 39, 0
2, 66896, Note_on_c, 0, 87, 108
2, 66896, Note_on_c, 0, 39, 94
2, 66898, Note_on_c, 0, 75, 103
2, 66901, Note_on_c, 0, 79, 92
2, 66908, Note_on_c, 0, 55, 0
2, 66915, Control_c, 0, 64, 127
2, 66961, Note_on_c, 0, 58, 0
2, 67014, Note_on_c, 0, 51, 60
2, 67130, Note_on_c, 0, 79, 0
2, 67133, Note_on_c, 0, 85, 103
2, 67134, Note_on_c, 0, 73, 100
2, 67138, Note_on_c, 0, 58, 69
2, 67142, Note_on_c, 0, 79, 66
2, 67230, Note_on_c, 0, 58, 0
2, 67235, Note_on_c, 0, 58, 80
2, 67236, Note_on_c, 0, 63, 74
2, 67236, Note_on_c, 0, 55, 74
2, 67246, Note_on_c, 0, 63, 0
2, 67347, Control_c, 0, 64, 0
2, 67348, Note_on_c, 0, 87, 0
2, 67348, Note_on_c, 0, 51, 0
2, 67349, Note_on_c, 0, 55, 0
2, 67349, Note_on_c, 0, 39, 0
2, 67349, Note_on_c, 0, 58, 0
2, 67349, Note_on_c, 0, 73, 0
2, 67349, Note_on_c, 0, 85, 0
2, 67361, Note_on_c, 0, 75, 0
2, 67361, Note_on_c, 0, 79, 0
2, 67366, Note_on_c, 0, 84, 108
2, 67371, Note_on_c, 0, 75, 104
2, 67372, Note_on_c, 0, 72, 107
2, 67372, Note_on_c, 0, 79, 91
2, 67372, Note_on_c, 0, 48, 96
2, 67374, Note_on_c, 0, 36, 94
2, 67422, Control_c, 0, 64, 127
2, 67426, Note_on_c, 0, 36, 0
2, 67607, Note_on_c, 0, 48, 0
2, 67613, Note_on_c, 0, 60, 68
2, 67615, Note_on_c, 0, 48, 77
2, 67617, Note_on_c, 0, 55, 61
2, 67618, Note_on_c, 0, 51, 53
2, 67622, Note_on_c, 0, 51, 0
2, 67737, Note_on_c, 0, 48, 0
2, 67737, Note_on_c, 0, 55, 0
2, 67741, Note_on_c, 0, 51, 83
2, 67741, Note_on_c, 0, 82, 102
2, 67742, Note_on_c, 0, 48, 82
2, 67742, Note_on_c, 0, 55, 81
2, 67747, Note_on_c, 0, 70, 97
2, 67852, Note_on_c, 0, 48, 0
2, 67860, Note_on_c, 0, 55, 0
2, 67864, Note_on_c, 0, 48, 64
2, 67866, Note_on_c, 0, 55, 65
2, 67983, Note_on_c, 0, 75, 0
2, 67983, Note_on_c, 0, 84, 0
2, 67989, Note_on_c, 0, 84, 101
2, 67991, Note_on_c, 0, 48, 0
2, 67991, Note_on_c, 0, 60, 0
2, 67991, Note_on_c, 0, 72, 0
2, 67994, Note_on_c, 0, 75, 99
2, 67995, Note_on_c, 0, 72, 98
2, 67996, Note_on_c, 0, 48, 83
2, 67998, Note_on_c, 0, 55, 0
2, 68000, Note_on_c, 0, 60, 85
2, 68005, Note_on_c, 0, 55, 76
2, 68083, Note_on_c, 0, 48, 0
2, 68088, Note_on_c, 0, 48, 72
2, 68221, Note_on_c, 0, 60, 0
2, 68221, Note_on_c, 0, 63, 98
2, 68225, Note_on_c, 0, 89, 105
2, 68226, Note_on_c, 0, 56, 71
2, 68227, Note_on_c, 0, 60, 86
2, 68228, Note_on_c, 0, 77, 97
2, 68236, Note_on_c, 0, 56, 0
2, 68344, Note_on_c, 0, 55, 0
2, 68354, Note_on_c, 0, 55, 86
2, 68451, Note_on_c, 0, 63, 0
2, 68451, Note_on_c, 0, 75, 0
2, 68451, Note_on_c, 0, 79, 0
2, 68455, Note_on_c, 0, 87, 108
2, 68456, Note_on_c, 0, 79, 95
2, 68456, Note_on_c, 0, 67, 97
2, 68456, Note_on_c, 0, 75, 104
2, 68457, Note_on_c, 0, 63, 73
2, 68567, Note_on_c, 0, 55, 0
2, 68574, Note_on_c, 0, 55, 85
2, 68674, Note_on_c, 0, 63, 0
2, 68682, Note_on_c, 0, 60, 0
2, 68682, Note_on_c, 0, 72, 0
2, 68682, Note_on_c, 0, 84, 0
2, 68683, Note_on_c, 0, 63, 82
2, 68689, Note_on_c, 0, 60, 83
2, 68691, Note_on_c, 0, 84, 100
2, 68693, Note_on_c, 0, 72, 101
2, 68728, Note_on_c, 0, 55, 0
2, 68739, Note_on_c, 0, 55, 81
2, 68812, Note_on_c, 0, 82, 0
2, 68820, Note_on_c, 0, 70, 0
2, 68821, Note_on_c, 0, 82, 104
2, 68827, Note_on_c, 0, 70, 92
2, 68920, Note_on_c, 0, 48, 0
2, 68920, Note_on_c, 0, 70, 0
2, 68926, Note_on_c, 0, 48, 98
2, 68928, Note_on_c, 0, 43, 85
2, 68929, Note_on_c, 0, 36, 83
2, 68930, Note_on_c, 0, 70, 90
2, 69043, Note_on_c, 0, 36, 0
2, 69043, Note_on_c, 0, 48, 0
2, 69049, Note_on_c, 0, 80, 100
2, 69051, Note_on_c, 0, 68, 100
2, 69053, Note_on_c, 0, 36, 87
2, 69054, Note_on_c, 0, 48, 90
2, 69135, Note_on_c, 0, 36, 0
2, 69135, Note_on_c, 0, 48, 0
2, 69140, Note_on_c, 0, 48, 89
2, 69143, Note_on_c, 0, 36, 80
2, 69162, Note_on_c, 0, 82, 0
2, 69162, Note_on_c, 0, 55, 0
2, 69162, Note_on_c, 0, 51, 0
2, 69162, Note_on_c, 0, 84, 0
2, 69162, Note_on_c, 0, 67, 0
2, 69163, Note_on_c, 0, 63, 0
2, 69163, Note_on_c, 0, 72, 0
2, 69163, Note_on_c, 0, 43, 0
2, 69163, Note_on_c, 0, 70, 0
2, 69163, Note_on_c, 0, 87, 0
2, 69163, Note_on_c, 0, 89, 0
2, 69163, Note_on_c, 0, 68, 0
2, 69164, Note_on_c, 0, 77, 0
2, 69164, Note_on_c, 0, 80, 0
2, 69164, Note_on_c, 0, 75, 0
2, 69164, Control_c, 0, 64, 0
2, 69164, Note_on_c, 0, 79, 0
2, 69181, Note_on_c, 0, 60, 0
2, 69189, Note_on_c, 0, 36, 0
2, 69196, Note_on_c, 0, 48, 0
2, 69278, Note_on_c, 0, 82, 110
2, 69284, Note_on_c, 0, 75, 104
2, 69284, Note_on_c, 0, 41, 91
2, 69285, Note_on_c, 0, 70, 104
2, 69286, Note_on_c, 0, 29, 90
2, 69294, Note_on_c, 0, 80, 72
2, 69327, Control_c, 0, 64, 127
2, 69527, Note_on_c, 0, 80, 0
2, 69533, Note_on_c, 0, 80, 91
2, 69535, Note_on_c, 0, 68, 90
2, 69538, Note_on_c, 0, 53, 79
2, 69637, Note_on_c, 0, 56, 75
2, 69642, Note_on_c, 0, 82, 0
2, 69649, Note_on_c, 0, 82, 104
2, 69649, Note_on_c, 0, 70, 0
2, 69660, Note_on_c, 0, 70, 79
2, 69757, Note_on_c, 0, 41, 0
2, 69757, Note_on_c, 0, 53, 0
2, 69757, Note_on_c, 0, 75, 0
2, 69760, Note_on_c, 0, 84, 104
2, 69765, Note_on_c, 0, 80, 0
2, 69766, Note_on_c, 0, 41, 85
2, 69768, Note_on_c, 0, 72, 91
2, 69768, Note_on_c, 0, 53, 86
2, 69768, Note_on_c, 0, 75, 93
2, 69771, Note_on_c, 0, 48, 82
2, 69771, Note_on_c, 0, 80, 74
2, 69864, Note_on_c, 0, 53, 0
2, 69871, Note_on_c, 0, 53, 90
2, 69995, Note_on_c, 0, 53, 0
2, 69995, Note_on_c, 0, 75, 0
2, 70001, Note_on_c, 0, 87, 107
2, 70004, Note_on_c, 0, 53, 83
2, 70005, Note_on_c, 0, 75, 103
2, 70103, Note_on_c, 0, 48, 0
2, 70105, Note_on_c, 0, 60, 91
2, 70114, Note_on_c, 0, 48, 66
2, 70233, Note_on_c, 0, 53, 0
2, 70240, Note_on_c, 0, 53, 89
2, 70244, Note_on_c, 0, 67, 94
2, 70294, Note_on_c, 0, 41, 0
2, 70297, Note_on_c, 0, 80, 0
2, 70297, Note_on_c, 0, 56, 0
2, 70298, Note_on_c, 0, 82, 0
2, 70298, Note_on_c, 0, 70, 0
2, 70298, Note_on_c, 0, 68, 0
2, 70298, Note_on_c, 0, 75, 0
2, 70298, Control_c, 0, 64, 0
2, 70298, Note_on_c, 0, 72, 0
2, 70298, Note_on_c, 0, 84, 0
2, 70298, Note_on_c, 0, 87, 0
2, 70318, Note_on_c, 0, 29, 0
2, 70325, Note_on_c, 0, 48, 0
2, 70356, Note_on_c, 0, 68, 94
2, 70364, Note_on_c, 0, 60, 0
2, 70371, Note_on_c, 0, 60, 78
2, 70371, Control_c, 0, 64, 127
2, 70426, Note_on_c, 0, 72, 87
2, 70483, Note_on_c, 0, 75, 94
2, 70489, Note_on_c, 0, 63, 78
2, 70556, Note_on_c, 0, 68, 0
2, 70567, Note_on_c, 0, 68, 86
2, 70567, Note_on_c, 0, 79, 89
2, 70647, Note_on_c, 0, 84, 95
2, 70663, Note_on_c, 0, 72, 0
2, 70669, Note_on_c, 0, 72, 89
2, 70676, Note_on_c, 0, 87, 88
2, 70763, Note_on_c, 0, 75, 0
2, 70768, Note_on_c, 0, 75, 95
2, 70771, Note_on_c, 0, 87, 0
2, 70778, Note_on_c, 0, 84, 0
2, 70781, Note_on_c, 0, 91, 105
2, 70782, Note_on_c, 0, 87, 100
2, 70784, Note_on_c, 0, 84, 91
2, 70894, Note_on_c, 0, 87, 0
2, 70894, Note_on_c, 0, 91, 0
2, 70901, Note_on_c, 0, 84, 0
2, 70902, Note_on_c, 0, 91, 96
2, 70904, Note_on_c, 0, 87, 98
2, 70907, Note_on_c, 0, 84, 81
2, 70969, Control_c, 0, 64, 0
2, 70970, Note_on_c, 0, 91, 0
2, 70971, Note_on_c, 0, 68, 0
2, 70971, Note_on_c, 0, 87, 0
2, 70972, Note_on_c, 0, 63, 0
2, 70972, Note_on_c, 0, 79, 0
2, 70972, Note_on_c, 0, 84, 0
2, 70973, Note_on_c, 0, 75, 0
2, 70978, Note_on_c, 0, 67, 0
2, 70986, Note_on_c, 0, 60, 0
2, 70986, Note_on_c, 0, 72, 0
2, 70993, Note_on_c, 0, 53, 0
2, 71020, Note_on_c, 0, 60, 100
2, 71040, Control_c, 0, 64, 127
2, 71247, Note_on_c, 0, 68, 99
2, 71262, Note_on_c, 0, 60, 0
2, 71272, Note_on_c, 0, 53, 74
2, 71273, Note_on_c, 0, 60, 76
2, 71273, Note_on_c, 0, 56, 73
2, 71276, Note_on_c, 0, 65, 64
2, 71370, Note_on_c, 0, 68, 0
2, 71380, Note_on_c, 0, 80, 92
2, 71381, Note_on_c, 0, 68, 95
2, 71493, Note_on_c, 0, 53, 0
2, 71496, Note_on_c, 0, 79, 86
2, 71497, Note_on_c, 0, 53, 68
2, 71608, Note_on_c, 0, 67, 89
2, 71630, Note_on_c, 0, 72, 84
2, 71723, Note_on_c, 0, 53, 0
2, 71730, Note_on_c, 0, 53, 76
2, 71754, Note_on_c, 0, 80, 0
2, 71764, Note_on_c, 0, 80, 78
2, 71774, Note_on_c, 0, 77, 48
2, 71835, Note_on_c, 0, 63, 91
2, 71861, Note_on_c, 0, 79, 0
2, 71869, Note_on_c, 0, 79, 86
2, 71984, Note_on_c, 0, 53, 0
2, 71984, Note_on_c, 0, 72, 0
2, 71988, Note_on_c, 0, 72, 79
2, 71990, Note_on_c, 0, 53, 63
2, 72069, Note_on_c, 0, 60, 0
2, 72073, Control_c, 0, 64, 0
2, 72074, Note_on_c, 0, 65, 0
2, 72074, Note_on_c, 0, 67, 0
2, 72075, Note_on_c, 0, 63, 0
2, 72076, Note_on_c, 0, 79, 0
2, 72076, Note_on_c, 0, 56, 0
2, 72079, Note_on_c, 0, 60, 88
2, 72081, Note_on_c, 0, 56, 80
2, 72084, Note_on_c, 0, 80, 0
2, 72092, Note_on_c, 0, 77, 0
2, 72095, Note_on_c, 0, 80, 92
2, 72122, Control_c, 0, 64, 127
2, 72207, Note_on_c, 0, 53, 0
2, 72211, Note_on_c, 0, 53, 73
2, 72223, Note_on_c, 0, 79, 74
2, 72253, Note_on_c, 0, 77, 33
2, 72307, Note_on_c, 0, 68, 0
2, 72311, Note_on_c, 0, 68, 99
2, 72330, Note_on_c, 0, 72, 0
2, 72334, Note_on_c, 0, 72, 90
2, 72437, Note_on_c, 0, 53, 0
2, 72441, Note_on_c, 0, 53, 66
2, 72445, Note_on_c, 0, 80, 0
2, 72450, Note_on_c, 0, 80, 77
2, 72552, Note_on_c, 0, 60, 0
2, 72557, Note_on_c, 0, 60, 83
2, 72560, Note_on_c, 0, 79, 0
2, 72565, Note_on_c, 0, 79, 72
2, 72668, Note_on_c, 0, 72, 0
2, 72670, Note_on_c, 0, 67, 89
2, 72674, Note_on_c, 0, 72, 81
2, 72783, Note_on_c, 0, 60, 0
2, 72791, Note_on_c, 0, 80, 0
2, 72794, Note_on_c, 0, 60, 78
2, 72795, Note_on_c, 0, 80, 90
2, 72898, Note_on_c, 0, 68, 0
2, 72898, Note_on_c, 0, 79, 0
2, 72902, Note_on_c, 0, 68, 91
2, 72909, Note_on_c, 0, 79, 87
2, 72990, Note_on_c, 0, 60, 0
2, 73000, Note_on_c, 0, 60, 77
2, 73021, Note_on_c, 0, 72, 0
2, 73028, Note_on_c, 0, 72, 84
2, 73109, Control_c, 0, 64, 0
2, 73109, Note_on_c, 0, 80, 0
2, 73109, Note_on_c, 0, 79, 0
2, 73109, Note_on_c, 0, 67, 0
2, 73110, Note_on_c, 0, 53, 0
2, 73110, Note_on_c, 0, 72, 0
2, 73110, Note_on_c, 0, 68, 0
2, 73110, Note_on_c, 0, 56, 0
2, 73128, Note_on_c, 0, 60, 0
2, 73128, Note_on_c, 0, 77, 0
2, 73150, Note_on_c, 0, 70, 100
2, 73150, Note_on_c, 0, 58, 88
2, 73152, Note_on_c, 0, 55, 83
2, 73154, Note_on_c, 0, 51, 76
2, 73175, Control_c, 0, 64, 127
2, 73283, Note_on_c, 0, 80, 77
2, 73390, Note_on_c, 0, 51, 0
2, 73400, Note_on_c, 0, 51, 85
2, 73404, Note_on_c, 0, 79, 75
2, 73405, Note_on_c, 0, 70, 0
2, 73410, Note_on_c, 0, 70, 65
2, 73502, Note_on_c, 0, 68, 101
2, 73520, Note_on_c, 0, 72, 81
2, 73635, Note_on_c, 0, 80, 0
2, 73643, Note_on_c, 0, 80, 85
2, 73643, Note_on_c, 0, 51, 0
2, 73652, Note_on_c, 0, 51, 68
2, 73734, Note_on_c, 0, 67, 90
2, 73751, Note_on_c, 0, 79, 0
2, 73757, Note_on_c, 0, 79, 76
2, 73858, Note_on_c, 0, 72, 0
2, 73866, Note_on_c, 0, 51, 0
2, 73868, Note_on_c, 0, 72, 80
2, 73871, Note_on_c, 0, 51, 65
2, 73950, Control_c, 0, 64, 0
2, 73954, Note_on_c, 0, 68, 0
2, 73954, Note_on_c, 0, 79, 0
2, 73966, Note_on_c, 0, 55, 0
2, 73966, Note_on_c, 0, 58, 0
2, 73972, Note_on_c, 0, 63, 96
2, 73977, Note_on_c, 0, 58, 82
2, 73977, Note_on_c, 0, 55, 76
2, 73981, Note_on_c, 0, 80, 0
2, 73989, Note_on_c, 0, 80, 94
2, 74004, Control_c, 0, 64, 127
2, 74106, Note_on_c, 0, 79, 77
2, 74219, Note_on_c, 0, 72, 0
2, 74223, Note_on_c, 0, 72, 74
2, 74234, Note_on_c, 0, 51, 0
2, 74244, Note_on_c, 0, 51, 69
2, 74327, Note_on_c, 0, 80, 0
2, 74334, Note_on_c, 0, 55, 0
2, 74338, Note_on_c, 0, 80, 83
2, 74345, Note_on_c, 0, 55, 69
2, 74388, Note_on_c, 0, 67, 0
2, 74442, Note_on_c, 0, 79, 0
2, 74449, Note_on_c, 0, 58, 0
2, 74449, Note_on_c, 0, 70, 0
2, 74452, Note_on_c, 0, 79, 82
2, 74457, Note_on_c, 0, 58, 79
2, 74457, Note_on_c, 0, 70, 76
2, 74549, Note_on_c, 0, 72, 0
2, 74554, Note_on_c, 0, 60, 96
2, 74561, Note_on_c, 0, 72, 93
2, 74688, Note_on_c, 0, 51, 0
2, 74692, Note_on_c, 0, 51, 77
2, 74695, Note_on_c, 0, 80, 0
2, 74700, Note_on_c, 0, 80, 88
2, 74793, Note_on_c, 0, 61, 92
2, 74803, Note_on_c, 0, 79, 0
2, 74810, Note_on_c, 0, 79, 86
2, 74864, Note_on_c, 0, 51, 0
2, 74873, Note_on_c, 0, 51, 70
2, 74910, Note_on_c, 0, 72, 0
2, 74917, Note_on_c, 0, 72, 84
2, 74965, Note_on_c, 0, 80, 0
2, 74966, Note_on_c, 0, 55, 0
2, 74966, Note_on_c, 0, 58, 0
2, 74966, Note_on_c, 0, 61, 0
2, 74966, Note_on_c, 0, 72, 0
2, 74966, Note_on_c, 0, 70, 0
2, 74966, Note_on_c, 0, 63, 0
2, 74967, Note_on_c, 0, 79, 0
2, 74967, Note_on_c, 0, 60, 0
2, 74967, Note_on_c, 0, 51, 0
2, 74968, Control_c, 0, 64, 0
2, 75022, Note_on_c, 0, 49, 89
2, 75024, Note_on_c, 0, 68, 102
2, 75027, Note_on_c, 0, 56, 85
2, 75033, Control_c, 0, 64, 127
2, 75035, Note_on_c, 0, 53, 75
2, 75048, Note_on_c, 0, 65, 57
2, 75141, Note_on_c, 0, 68, 0
2, 75145, Note_on_c, 0, 68, 91
2, 75146, Note_on_c, 0, 80, 93
2, 75256, Note_on_c, 0, 79, 78
2, 75264, Note_on_c, 0, 49, 0
2, 75269, Note_on_c, 0, 49, 64
2, 75382, Note_on_c, 0, 67, 91
2, 75383, Note_on_c, 0, 72, 83
2, 75494, Note_on_c, 0, 49, 0
2, 75494, Note_on_c, 0, 80, 0
2, 75505, Note_on_c, 0, 80, 87
2, 75505, Note_on_c, 0, 49, 85
2, 75533, Note_on_c, 0, 77, 44
2, 75609, Note_on_c, 0, 56, 0
2, 75609, Note_on_c, 0, 79, 0
2, 75614, Note_on_c, 0, 63, 86
2, 75618, Note_on_c, 0, 79, 91
2, 75618, Note_on_c, 0, 56, 52
2, 75724, Note_on_c, 0, 49, 0
2, 75732, Note_on_c, 0, 72, 0
2, 75735, Note_on_c, 0, 49, 80
2, 75737, Note_on_c, 0, 72, 81
2, 75816, Note_on_c, 0, 65, 0
2, 75818, Control_c, 0, 64, 0
2, 75819, Note_on_c, 0, 72, 0
2, 75819, Note_on_c, 0, 79, 0
2, 75819, Note_on_c, 0, 49, 0
2, 75820, Note_on_c, 0, 63, 0
2, 75832, Note_on_c, 0, 67, 0
2, 75832, Note_on_c, 0, 77, 0
2, 75840, Note_on_c, 0, 56, 0
2, 75840, Note_on_c, 0, 68, 0
2, 75844, Note_on_c, 0, 60, 89
2, 75846, Note_on_c, 0, 68, 88
2, 75847, Note_on_c, 0, 53, 0
2, 75847, Note_on_c, 0, 80, 0
2, 75849, Note_on_c, 0, 56, 89
2, 75851, Note_on_c, 0, 53, 75
2, 75852, Note_on_c, 0, 80, 92
2, 75893, Control_c, 0, 64, 127
2, 75909, Note_on_c, 0, 60, 0
2, 75968, Note_on_c, 0, 79, 80
2, 75974, Note_on_c, 0, 49, 91
2, 76070, Note_on_c, 0, 68, 0
2, 76078, Note_on_c, 0, 68, 101
2, 76080, Note_on_c, 0, 72, 87
2, 76193, Note_on_c, 0, 80, 0
2, 76198, Note_on_c, 0, 80, 80
2, 76308, Note_on_c, 0, 79, 0
2, 76315, Note_on_c, 0, 79, 76
2, 76331, Note_on_c, 0, 56, 0
2, 76336, Note_on_c, 0, 56, 70
2, 76423, Note_on_c, 0, 72, 0
2, 76428, Note_on_c, 0, 67, 94
2, 76434, Note_on_c, 0, 72, 91
2, 76546, Note_on_c, 0, 56, 0
2, 76546, Note_on_c, 0, 80, 0
2, 76552, Note_on_c, 0, 56, 70
2, 76553, Note_on_c, 0, 80, 90
2, 76654, Note_on_c, 0, 68, 0
2, 76654, Note_on_c, 0, 79, 0
2, 76661, Note_on_c, 0, 56, 0
2, 76664, Note_on_c, 0, 68, 98
2, 76665, Note_on_c, 0, 79, 89
2, 76666, Note_on_c, 0, 56, 66
2, 76769, Note_on_c, 0, 72, 0
2, 76778, Note_on_c, 0, 72, 91
2, 76784, Note_on_c, 0, 56, 0
2, 76784, Note_on_c, 0, 68, 0
2, 76788, Note_on_c, 0, 68, 80
2, 76789, Note_on_c, 0, 56, 76
2, 76852, Note_on_c, 0, 56, 0
2, 76852, Note_on_c, 0, 67, 0
2, 76852, Note_on_c, 0, 80, 0
2, 76852, Note_on_c, 0, 79, 0
2, 76853, Note_on_c, 0, 68, 0
2, 76854, Note_on_c, 0, 49, 0
2, 76855, Note_on_c, 0, 72, 0
2, 76856, Control_c, 0, 64, 0
2, 76861, Note_on_c, 0, 53, 0
2, 76905, Note_on_c, 0, 70, 97
2, 76906, Note_on_c, 0, 55, 79
2, 76906, Note_on_c, 0, 58, 86
2, 76911, Note_on_c, 0, 51, 78
2, 76930, Control_c, 0, 64, 127
2, 77029, Note_on_c, 0, 80, 83
2, 77137, Note_on_c, 0, 51, 0
2, 77137, Note_on_c, 0, 70, 0
2, 77142, Note_on_c, 0, 51, 72
2, 77146, Note_on_c, 0, 79, 84
2, 77148, Note_on_c, 0, 70, 72
2, 77250, Note_on_c, 0, 68, 97
2, 77256, Note_on_c, 0, 72, 86
2, 77368, Note_on_c, 0, 51, 0
2, 77368, Note_on_c, 0, 80, 0
2, 77374, Note_on_c, 0, 51, 81
2, 77376, Note_on_c, 0, 80, 93
2, 77475, Note_on_c, 0, 79, 0
2, 77485, Note_on_c, 0, 67, 89
2, 77486, Note_on_c, 0, 79, 86
2, 77583, Note_on_c, 0, 72, 0
2, 77593, Note_on_c, 0, 72, 88
2, 77598, Note_on_c, 0, 51, 0
2, 77604, Note_on_c, 0, 51, 80
2, 77706, Note_on_c, 0, 72, 0
2, 77713, Note_on_c, 0, 80, 0
2, 77715, Note_on_c, 0, 72, 100
2, 77717, Note_on_c, 0, 63, 100
2, 77723, Note_on_c, 0, 80, 95
2, 77844, Note_on_c, 0, 79, 0
2, 77849, Note_on_c, 0, 79, 79
2, 77952, Note_on_c, 0, 72, 0
2, 77959, Note_on_c, 0, 51, 0
2, 77962, Note_on_c, 0, 72, 83
2, 77964, Note_on_c, 0, 51, 80
2, 78059, Note_on_c, 0, 80, 0
2, 78069, Note_on_c, 0, 80, 98
2, 78074, Note_on_c, 0, 55, 0
2, 78084, Note_on_c, 0, 55, 70
2, 78174, Note_on_c, 0, 58, 0
2, 78174, Note_on_c, 0, 79, 0
2, 78185, Note_on_c, 0, 79, 92
2, 78185, Note_on_c, 0, 58, 80
2, 78282, Note_on_c, 0, 63, 0
2, 78282, Note_on_c, 0, 72, 0
2, 78286, Note_on_c, 0, 72, 86
2, 78288, Note_on_c, 0, 63, 95
2, 78405, Note_on_c, 0, 68, 0
2, 78405, Note_on_c, 0, 80, 0
2, 78410, Note_on_c, 0, 80, 100
2, 78415, Note_on_c, 0, 68, 90
2, 78432, Note_on_c, 0, 55, 0
2, 78432, Note_on_c, 0, 51, 0
2, 78432, Note_on_c, 0, 63, 0
2, 78432, Control_c, 0, 64, 0
2, 78432, Note_on_c, 0, 67, 0
2, 78433, Note_on_c, 0, 79, 0
2, 78433, Note_on_c, 0, 72, 0
2, 78433, Note_on_c, 0, 70, 0
2, 78443, Note_on_c, 0, 58, 0
2, 78458, Note_on_c, 0, 68, 0
2, 78474, Note_on_c, 0, 80, 0
2, 78520, Note_on_c, 0, 82, 101
2, 78523, Note_on_c, 0, 70, 78
2, 78566, Note_on_c, 0, 70, 0
2, 78584, Note_on_c, 0, 82, 0
2, 78647, Note_on_c, 0, 84, 108
2, 78648, Note_on_c, 0, 77, 100
2, 78648, Note_on_c, 0, 80, 94
2, 78651, Note_on_c, 0, 72, 101
2, 78652, Note_on_c, 0, 41, 97
2, 78655, Note_on_c, 0, 29, 97
2, 78666, Control_c, 0, 64, 127
2, 78906, Note_on_c, 0, 53, 75
2, 79007, Note_on_c, 0, 56, 81
2, 79010, Note_on_c, 0, 60, 75
2, 79011, Note_on_c, 0, 84, 0
2, 79019, Note_on_c, 0, 72, 0
2, 79019, Note_on_c, 0, 77, 0
2, 79021, Note_on_c, 0, 84, 96
2, 79027, Note_on_c, 0, 80, 0
2, 79030, Note_on_c, 0, 77, 91
2, 79030, Note_on_c, 0, 72, 84
2, 79032, Note_on_c, 0, 80, 82
2, 79257, Note_on_c, 0, 53, 0
2, 79257, Note_on_c, 0, 84, 0
2, 79264, Note_on_c, 0, 53, 87
2, 79265, Note_on_c, 0, 84, 105
2, 79265, Note_on_c, 0, 72, 0
2, 79270, Note_on_c, 0, 72, 94
2, 79372, Note_on_c, 0, 53, 0
2, 79383, Note_on_c, 0, 53, 84
2, 79488, Note_on_c, 0, 60, 0
2, 79495, Note_on_c, 0, 56, 0
2, 79495, Note_on_c, 0, 72, 0
2, 79495, Note_on_c, 0, 77, 0
2, 79495, Note_on_c, 0, 84, 0
2, 79498, Note_on_c, 0, 60, 87
2, 79501, Note_on_c, 0, 84, 96
2, 79502, Note_on_c, 0, 72, 94
2, 79502, Note_on_c, 0, 56, 81
2, 79503, Note_on_c, 0, 53, 0
2, 79503, Note_on_c, 0, 80, 0
2, 79505, Note_on_c, 0, 77, 88
2, 79509, Note_on_c, 0, 53, 69
2, 79514, Note_on_c, 0, 80, 86
2, 79626, Note_on_c, 0, 41, 0
2, 79630, Note_on_c, 0, 29, 0
2, 79630, Note_on_c, 0, 53, 0
2, 79630, Note_on_c, 0, 72, 0
2, 79630, Note_on_c, 0, 77, 0
2, 79631, Note_on_c, 0, 84, 0
2, 79631, Note_on_c, 0, 56, 0
2, 79633, Note_on_c, 0, 41, 73
2, 79633, Note_on_c, 0, 80, 0
2, 79635, Control_c, 0, 64, 0
2, 79635, Note_on_c, 0, 87, 108
2, 79637, Note_on_c, 0, 75, 106
2, 79644, Note_on_c, 0, 80, 73
2, 79649, Note_on_c, 0, 60, 0
2, 79710, Control_c, 0, 64, 127
2, 79747, Note_on_c, 0, 53, 85
2, 79755, Note_on_c, 0, 56, 59
2, 79856, Note_on_c, 0, 53, 0
2, 79863, Note_on_c, 0, 53, 85
2, 79868, Note_on_c, 0, 84, 101
2, 79872, Note_on_c, 0, 80, 0
2, 79875, Note_on_c, 0, 77, 91
2, 79876, Note_on_c, 0, 72, 96
2, 79881, Note_on_c, 0, 80, 87
2, 79887, Note_on_c, 0, 75, 0
2, 79896, Note_on_c, 0, 75, 65
2, 79971, Note_on_c, 0, 56, 0
2, 79980, Note_on_c, 0, 56, 82
2, 79980, Note_on_c, 0, 60, 87
2, 80110, Note_on_c, 0, 41, 0
2, 80113, Note_on_c, 0, 82, 102
2, 80116, Note_on_c, 0, 41, 75
2, 80119, Note_on_c, 0, 70, 90
2, 80217, Note_on_c, 0, 53, 0
2, 80226, Note_on_c, 0, 53, 78
2, 80340, Note_on_c, 0, 41, 0
2, 80340, Note_on_c, 0, 80, 0
2, 80345, Note_on_c, 0, 41, 60
2, 80349, Note_on_c, 0, 80, 94
2, 80358, Note_on_c, 0, 68, 86
2, 80378, Note_on_c, 0, 77, 0
2, 80383, Note_on_c, 0, 77, 41
2, 80448, Note_on_c, 0, 53, 0
2, 80448, Note_on_c, 0, 56, 0
2, 80448, Note_on_c, 0, 60, 0
2, 80451, Note_on_c, 0, 60, 81
2, 80454, Note_on_c, 0, 56, 82
2, 80459, Note_on_c, 0, 53, 59
2, 80539, Note_on_c, 0, 41, 0
2, 80543, Note_on_c, 0, 87, 0
2, 80543, Note_on_c, 0, 82, 0
2, 80543, Note_on_c, 0, 53, 0
2, 80543, Note_on_c, 0, 68, 0
2, 80543, Control_c, 0, 64, 0
2, 80543, Note_on_c, 0, 75, 0
2, 80543, Note_on_c, 0, 84, 0
2, 80543, Note_on_c, 0, 70, 0
2, 80543, Note_on_c, 0, 77, 0
2, 80543, Note_on_c, 0, 72, 0
2, 80543, Note_on_c, 0, 60, 0
2, 80543, Note_on_c, 0, 56, 0
2, 80543, Note_on_c, 0, 80, 0
2, 80590, Note_on_c, 0, 82, 102
2, 80594, Note_on_c, 0, 70, 92
2, 80594, Note_on_c, 0, 75, 85
2, 80595, Note_on_c, 0, 39, 89
2, 80595, Note_on_c, 0, 79, 83
2, 80640, Control_c, 0, 64, 127
2, 80832, Note_on_c, 0, 51, 69
2, 80834, Note_on_c, 0, 84, 99
2, 80838, Note_on_c, 0, 72, 91
2, 80939, Note_on_c, 0, 70, 0
2, 80942, Note_on_c, 0, 60, 85
2, 80943, Note_on_c, 0, 58, 86
2, 80944, Note_on_c, 0, 70, 80
2, 80944, Note_on_c, 0, 55, 72
2, 80945, Note_on_c, 0, 48, 73
2, 80954, Note_on_c, 0, 48, 0
2, 81062, Note_on_c, 0, 39, 0
2, 81062, Note_on_c, 0, 82, 0
2, 81066, Note_on_c, 0, 82, 99
2, 81070, Note_on_c, 0, 70, 0
2, 81070, Note_on_c, 0, 75, 0
2, 81072, Note_on_c, 0, 39, 83
2, 81074, Note_on_c, 0, 75, 80
2, 81074, Note_on_c, 0, 70, 85
2, 81169, Note_on_c, 0, 51, 0
2, 81181, Note_on_c, 0, 51, 87
2, 81192, Note_on_c, 0, 55, 0
2, 81199, Note_on_c, 0, 55, 43
2, 81301, Note_on_c, 0, 80, 98
2, 81304, Note_on_c, 0, 68, 90
2, 81408, Note_on_c, 0, 55, 0
2, 81408, Note_on_c, 0, 58, 0
2, 81408, Note_on_c, 0, 60, 0
2, 81415, Note_on_c, 0, 51, 0
2, 81416, Note_on_c, 0, 58, 79
2, 81417, Note_on_c, 0, 60, 86
2, 81418, Note_on_c, 0, 55, 70
2, 81421, Note_on_c, 0, 51, 65
2, 81527, Control_c, 0, 64, 0
2, 81532, Note_on_c, 0, 58, 0
2, 81532, Note_on_c, 0, 68, 0
2, 81532, Note_on_c, 0, 82, 0
2, 81533, Note_on_c, 0, 72, 0
2, 81533, Note_on_c, 0, 51, 0
2, 81533, Note_on_c, 0, 80, 0
2, 81533, Note_on_c, 0, 55, 0
2, 81533, Note_on_c, 0, 84, 0
2, 81534, Note_on_c, 0, 79, 0
2, 81534, Note_on_c, 0, 60, 0
2, 81543, Note_on_c, 0, 77, 97
2, 81546, Note_on_c, 0, 39, 0
2, 81550, Note_on_c, 0, 65, 88
2, 81550, Note_on_c, 0, 39, 81
2, 81553, Note_on_c, 0, 70, 0
2, 81553, Note_on_c, 0, 75, 0
2, 81558, Note_on_c, 0, 75, 84
2, 81558, Note_on_c, 0, 70, 76
2, 81615, Control_c, 0, 64, 127
2, 81673, Note_on_c, 0, 51, 76
2, 81896, Note_on_c, 0, 60, 82
2, 81901, Note_on_c, 0, 58, 80
2, 81903, Note_on_c, 0, 48, 67
2, 81905, Note_on_c, 0, 55, 63
2, 81907, Note_on_c, 0, 51, 0
2, 81914, Note_on_c, 0, 51, 51
2, 82014, Note_on_c, 0, 39, 0
2, 82024, Note_on_c, 0, 39, 79
2, 82106, Note_on_c, 0, 51, 0
2, 82111, Note_on_c, 0, 51, 78
2, 82122, Note_on_c, 0, 77, 0
2, 82129, Note_on_c, 0, 65, 0
2, 82131, Note_on_c, 0, 77, 98
2, 82137, Note_on_c, 0, 65, 87
2, 82375, Note_on_c, 0, 55, 0
2, 82375, Note_on_c, 0, 58, 0
2, 82375, Note_on_c, 0, 60, 0
2, 82379, Note_on_c, 0, 55, 71
2, 82380, Note_on_c, 0, 58, 84
2, 82386, Note_on_c, 0, 60, 85
2, 82460, Note_on_c, 0, 51, 0
2, 82471, Note_on_c, 0, 51, 79
2, 82576, Note_on_c, 0, 51, 0
2, 82576, Control_c, 0, 64, 0
2, 82576, Note_on_c, 0, 70, 0
2, 82577, Note_on_c, 0, 60, 0
2, 82577, Note_on_c, 0, 58, 0
2, 82577, Note_on_c, 0, 65, 0
2, 82577, Note_on_c, 0, 75, 0
2, 82590, Note_on_c, 0, 39, 0
2, 82590, Note_on_c, 0, 55, 0
2, 82598, Note_on_c, 0, 48, 0
2, 82606, Note_on_c, 0, 77, 0
2, 82608, Note_on_c, 0, 80, 102
2, 82611, Note_on_c, 0, 68, 100
2, 82611, Note_on_c, 0, 74, 93
2, 82614, Note_on_c, 0, 38, 87
2, 82615, Note_on_c, 0, 77, 81
2, 82659, Control_c, 0, 64, 127
2, 82713, Note_on_c, 0, 38, 0
2, 82836, Note_on_c, 0, 60, 85
2, 82840, Note_on_c, 0, 53, 86
2, 82847, Note_on_c, 0, 58, 77
2, 82975, Note_on_c, 0, 38, 74
2, 83082, Note_on_c, 0, 77, 0
2, 83084, Note_on_c, 0, 50, 84
2, 83091, Note_on_c, 0, 77, 100
2, 83093, Note_on_c, 0, 65, 90
2, 83205, Note_on_c, 0, 38, 0
2, 83215, Note_on_c, 0, 38, 74
2, 83304, Note_on_c, 0, 60, 0
2, 83312, Note_on_c, 0, 53, 0
2, 83315, Note_on_c, 0, 60, 89
2, 83323, Note_on_c, 0, 53, 81
2, 83328, Note_on_c, 0, 50, 0
2, 83328, Note_on_c, 0, 58, 0
2, 83332, Note_on_c, 0, 58, 70
2, 83338, Note_on_c, 0, 50, 66
2, 83450, Note_on_c, 0, 38, 0
2, 83460, Note_on_c, 0, 38, 85
2, 83523, Note_on_c, 0, 74, 0
2, 83524, Note_on_c, 0, 68, 0
2, 83524, Note_on_c, 0, 58, 0
2, 83524, Note_on_c, 0, 53, 0
2, 83524, Note_on_c, 0, 65, 0
2, 83524, Note_on_c, 0, 50, 0
2, 83524, Control_c, 0, 64, 0
2, 83524, Note_on_c, 0, 60, 0
2, 83550, Note_on_c, 0, 80, 0
2, 83558, Note_on_c, 0, 77, 0
2, 83558, Note_on_c, 0, 80, 98
2, 83563, Note_on_c, 0, 68, 93
2, 83565, Note_on_c, 0, 74, 84
2, 83566, Note_on_c, 0, 77, 77
2, 83604, Control_c, 0, 64, 127
2, 83692, Note_on_c, 0, 50, 83
2, 83799, Note_on_c, 0, 60, 90
2, 83800, Note_on_c, 0, 53, 84
2, 83802, Note_on_c, 0, 58, 82
2, 83919, Note_on_c, 0, 38, 0
2, 83924, Note_on_c, 0, 38, 85
2, 84019, Note_on_c, 0, 50, 0
2, 84028, Note_on_c, 0, 50, 97
2, 84036, Note_on_c, 0, 84, 102
2, 84043, Note_on_c, 0, 72, 101
2, 84157, Note_on_c, 0, 50, 0
2, 84168, Note_on_c, 0, 50, 82
2, 84272, Note_on_c, 0, 60, 0
2, 84279, Note_on_c, 0, 60, 93
2, 84285, Note_on_c, 0, 82, 100
2, 84288, Note_on_c, 0, 50, 0
2, 84292, Note_on_c, 0, 50, 81
2, 84293, Note_on_c, 0, 70, 94
2, 84303, Note_on_c, 0, 53, 0
2, 84307, Note_on_c, 0, 53, 52
2, 84380, Note_on_c, 0, 50, 0
2, 84380, Note_on_c, 0, 58, 0
2, 84384, Note_on_c, 0, 58, 76
2, 84385, Note_on_c, 0, 50, 76
2, 84499, Control_c, 0, 64, 0
2, 84499, Note_on_c, 0, 80, 0
2, 84499, Note_on_c, 0, 74, 0
2, 84499, Note_on_c, 0, 68, 0
2, 84499, Note_on_c, 0, 58, 0
2, 84499, Note_on_c, 0, 53, 0
2, 84500, Note_on_c, 0, 72, 0
2, 84500, Note_on_c, 0, 60, 0
2, 84500, Note_on_c, 0, 84, 0
2, 84500, Note_on_c, 0, 50, 0
2, 84501, Note_on_c, 0, 38, 0
2, 84526, Note_on_c, 0, 82, 0
2, 84533, Note_on_c, 0, 82, 105
2, 84533, Note_on_c, 0, 70, 0
2, 84533, Note_on_c, 0, 77, 0
2, 84537, Note_on_c, 0, 73, 97
2, 84538, Note_on_c, 0, 70, 94
2, 84538, Note_on_c, 0, 37, 87
2, 84538, Note_on_c, 0, 77, 87
2, 84542, Note_on_c, 0, 49, 91
2, 84579, Control_c, 0, 64, 127
2, 84695, Note_on_c, 0, 37, 0
2, 84701, Note_on_c, 0, 37, 52
2, 84780, Note_on_c, 0, 56, 81
2, 84782, Note_on_c, 0, 60, 79
2, 84783, Note_on_c, 0, 53, 64
2, 84910, Note_on_c, 0, 37, 0
2, 84919, Note_on_c, 0, 37, 78
2, 85009, Note_on_c, 0, 49, 0
2, 85014, Note_on_c, 0, 49, 75
2, 85132, Note_on_c, 0, 49, 0
2, 85140, Note_on_c, 0, 49, 83
2, 85140, Note_on_c, 0, 37, 0
2, 85145, Note_on_c, 0, 37, 69
2, 85224, Note_on_c, 0, 60, 0
2, 85232, Note_on_c, 0, 53, 0
2, 85235, Note_on_c, 0, 60, 86
2, 85241, Note_on_c, 0, 53, 79
2, 85248, Note_on_c, 0, 56, 0
2, 85255, Note_on_c, 0, 56, 57
2, 85255, Note_on_c, 0, 82, 0
2, 85263, Note_on_c, 0, 70, 0
2, 85265, Note_on_c, 0, 82, 98
2, 85273, Note_on_c, 0, 70, 82
2, 85353, Control_c, 0, 64, 0
2, 85357, Note_on_c, 0, 73, 0
2, 85358, Note_on_c, 0, 60, 0
2, 85358, Note_on_c, 0, 49, 0
2, 85358, Note_on_c, 0, 37, 0
2, 85358, Note_on_c, 0, 70, 0
2, 85359, Note_on_c, 0, 82, 0
2, 85359, Note_on_c, 0, 77, 0
2, 85359, Note_on_c, 0, 56, 0
2, 85370, Note_on_c, 0, 53, 0
2, 85377, Note_on_c, 0, 84, 107
2, 85382, Note_on_c, 0, 39, 82
2, 85383, Note_on_c, 0, 72, 97
2, 85385, Note_on_c, 0, 79, 87
2, 85386, Note_on_c, 0, 75, 94
2, 85387, Note_on_c, 0, 51, 88
2, 85432, Control_c, 0, 64, 127
2, 85601, Note_on_c, 0, 51, 0
2, 85611, Note_on_c, 0, 51, 71
2, 85624, Note_on_c, 0, 75, 0
2, 85627, Note_on_c, 0, 87, 104
2, 85633, Note_on_c, 0, 75, 93
2, 85725, Note_on_c, 0, 55, 78
2, 85854, Note_on_c, 0, 84, 0
2, 85862, Note_on_c, 0, 72, 0
2, 85863, Note_on_c, 0, 84, 97
2, 85868, Note_on_c, 0, 58, 76
2, 85871, Note_on_c, 0, 72, 83
2, 85881, Control_c, 0, 64, 0
2, 85893, Control_c, 0, 64, 127
2, 85949, Note_on_c, 0, 63, 84
2, 86066, Note_on_c, 0, 68, 89
2, 86072, Note_on_c, 0, 82, 96
2, 86111, Note_on_c, 0, 69, 76
2, 86161, Note_on_c, 0, 39, 0
2, 86190, Note_on_c, 0, 80, 100
2, 86307, Note_on_c, 0, 75, 0
2, 86318, Note_on_c, 0, 75, 83
2, 86366, Control_c, 0, 64, 0
2, 86367, Note_on_c, 0, 55, 0
2, 86367, Note_on_c, 0, 51, 0
2, 86367, Note_on_c, 0, 63, 0
2, 86368, Note_on_c, 0, 69, 0
2, 86368, Note_on_c, 0, 72, 0
2, 86368, Note_on_c, 0, 87, 0
2, 86368, Note_on_c, 0, 82, 0
2, 86368, Note_on_c, 0, 68, 0
2, 86368, Note_on_c, 0, 79, 0
2, 86369, Note_on_c, 0, 58, 0
2, 86369, Note_on_c, 0, 84, 0
2, 86424, Note_on_c, 0, 49, 80
2, 86476, Control_c, 0, 64, 127
2, 86582, Note_on_c, 0, 56, 63
2, 86638, Note_on_c, 0, 75, 0
2, 86645, Note_on_c, 0, 80, 0
2, 86651, Note_on_c, 0, 92, 81
2, 86656, Note_on_c, 0, 80, 67
2, 86672, Note_on_c, 0, 61, 70
2, 86798, Note_on_c, 0, 63, 59
2, 86899, Note_on_c, 0, 80, 0
2, 86899, Note_on_c, 0, 92, 0
2, 86904, Note_on_c, 0, 92, 91
2, 86910, Note_on_c, 0, 80, 82
2, 86910, Note_on_c, 0, 68, 63
2, 87029, Note_on_c, 0, 61, 0
2, 87034, Note_on_c, 0, 61, 64
2, 87137, Note_on_c, 0, 63, 0
2, 87137, Note_on_c, 0, 92, 0
2, 87142, Note_on_c, 0, 63, 61
2, 87144, Note_on_c, 0, 80, 0
2, 87148, Note_on_c, 0, 92, 86
2, 87154, Note_on_c, 0, 80, 73
2, 87244, Note_on_c, 0, 68, 0
2, 87252, Note_on_c, 0, 68, 61
2, 87367, Note_on_c, 0, 61, 0
2, 87379, Note_on_c, 0, 61, 72
2, 87379, Note_on_c, 0, 94, 91
2, 87386, Note_on_c, 0, 82, 81
2, 87482, Note_on_c, 0, 63, 0
2, 87487, Note_on_c, 0, 63, 52
2, 87590, Note_on_c, 0, 68, 0
2, 87599, Note_on_c, 0, 68, 56
2, 87728, Note_on_c, 0, 61, 0
2, 87736, Note_on_c, 0, 92, 0
2, 87738, Note_on_c, 0, 61, 73
2, 87744, Note_on_c, 0, 80, 0
2, 87744, Note_on_c, 0, 92, 89
2, 87748, Note_on_c, 0, 80, 80
2, 87859, Note_on_c, 0, 63, 0
2, 87867, Note_on_c, 0, 63, 63
2, 87966, Note_on_c, 0, 68, 0
2, 87974, Note_on_c, 0, 68, 58
2, 88097, Note_on_c, 0, 61, 0
2, 88104, Note_on_c, 0, 61, 67
2, 88110, Note_on_c, 0, 87, 89
2, 88119, Note_on_c, 0, 75, 64
2, 88212, Note_on_c, 0, 63, 0
2, 88218, Note_on_c, 0, 63, 37
2, 88343, Note_on_c, 0, 94, 0
2, 88350, Note_on_c, 0, 82, 0
2, 88351, Note_on_c, 0, 56, 0
2, 88351, Note_on_c, 0, 51, 63
2, 88351, Note_on_c, 0, 68, 0
2, 88351, Note_on_c, 0, 80, 0
2, 88352, Note_on_c, 0, 61, 0
2, 88352, Note_on_c, 0, 94, 94
2, 88352, Control_c, 0, 64, 0
2, 88353, Note_on_c, 0, 75, 0
2, 88353, Note_on_c, 0, 63, 0
2, 88353, Note_on_c, 0, 87, 0
2, 88354, Note_on_c, 0, 82, 80
2, 88358, Note_on_c, 0, 49, 0
2, 88373, Note_on_c, 0, 92, 0
2, 88435, Control_c, 0, 64, 127
2, 88483, Note_on_c, 0, 58, 68
2, 88584, Note_on_c, 0, 63, 74
2, 88707, Note_on_c, 0, 92, 90
2, 88719, Note_on_c, 0, 80, 74
2, 88726, Note_on_c, 0, 89, 57
2, 88728, Note_on_c, 0, 70, 61
2, 88819, Note_on_c, 0, 63, 0
2, 88827, Note_on_c, 0, 63, 62
2, 88940, Note_on_c, 0, 68, 76
2, 89057, Note_on_c, 0, 70, 0
2, 89066, Note_on_c, 0, 70, 69
2, 89067, Note_on_c, 0, 87, 87
2, 89069, Note_on_c, 0, 75, 70
2, 89164, Note_on_c, 0, 63, 0
2, 89176, Note_on_c, 0, 63, 65
2, 89187, Note_on_c, 0, 51, 0
2, 89287, Note_on_c, 0, 94, 0
2, 89295, Note_on_c, 0, 94, 95
2, 89295, Note_on_c, 0, 70, 0
2, 89295, Note_on_c, 0, 82, 0
2, 89299, Note_on_c, 0, 82, 83
2, 89301, Note_on_c, 0, 70, 72
2, 89410, Note_on_c, 0, 63, 0
2, 89417, Note_on_c, 0, 63, 69
2, 89541, Note_on_c, 0, 68, 0
2, 89552, Note_on_c, 0, 68, 72
2, 89656, Note_on_c, 0, 70, 0
2, 89656, Note_on_c, 0, 92, 0
2, 89663, Note_on_c, 0, 92, 90
2, 89664, Note_on_c, 0, 80, 0
2, 89664, Note_on_c, 0, 89, 0
2, 89666, Note_on_c, 0, 70, 70
2, 89668, Note_on_c, 0, 89, 63
2, 89669, Note_on_c, 0, 80, 77
2, 89771, Note_on_c, 0, 63, 0
2, 89782, Note_on_c, 0, 63, 63
2, 89894, Note_on_c, 0, 68, 0
2, 89898, Note_on_c, 0, 68, 67
2, 90007, Note_on_c, 0, 96, 86
2, 90022, Note_on_c, 0, 84, 77
2, 90024, Note_on_c, 0, 70, 0
2, 90029, Note_on_c, 0, 70, 58
2, 90048, Note_on_c, 0, 89, 0
2, 90117, Note_on_c, 0, 63, 0
2, 90121, Note_on_c, 0, 63, 71
2, 90243, Control_c, 0, 64, 0
2, 90243, Note_on_c, 0, 94, 0
2, 90244, Note_on_c, 0, 70, 0
2, 90244, Note_on_c, 0, 68, 0
2, 90244, Note_on_c, 0, 82, 0
2, 90244, Note_on_c, 0, 63, 0
2, 90244, Note_on_c, 0, 87, 0
2, 90244, Note_on_c, 0, 80, 0
2, 90244, Note_on_c, 0, 92, 0
2, 90245, Note_on_c, 0, 58, 0
2, 90245, Note_on_c, 0, 75, 0
2, 90247, Note_on_c, 0, 96, 0
2, 90247, Note_on_c, 0, 84, 0
2, 90272, Note_on_c, 0, 48, 64
2, 90323, Note_on_c, 0, 48, 0
2, 90324, Control_c, 0, 64, 127
2, 90394, Note_on_c, 0, 55, 66
2, 90497, Note_on_c, 0, 58, 73
2, 90501, Note_on_c, 0, 92, 90
2, 90512, Note_on_c, 0, 80, 75
2, 90603, Note_on_c, 0, 63, 78
2, 90731, Note_on_c, 0, 92, 0
2, 90739, Note_on_c, 0, 80, 0
2, 90740, Note_on_c, 0, 92, 85
2, 90744, Note_on_c, 0, 80, 75
2, 90759, Note_on_c, 0, 70, 67
2, 90846, Note_on_c, 0, 58, 0
2, 90856, Note_on_c, 0, 58, 64
2, 90969, Note_on_c, 0, 92, 0
2, 90977, Note_on_c, 0, 63, 0
2, 90977, Note_on_c, 0, 80, 0
2, 90980, Note_on_c, 0, 92, 89
2, 90981, Note_on_c, 0, 63, 65
2, 90982, Note_on_c, 0, 80, 79
2, 91092, Note_on_c, 0, 70, 0
2, 91097, Note_on_c, 0, 70, 70
2, 91219, Note_on_c, 0, 94, 90
2, 91226, Note_on_c, 0, 82, 83
2, 91230, Note_on_c, 0, 58, 0
2, 91236, Note_on_c, 0, 58, 63
2, 91353, Note_on_c, 0, 63, 0
2, 91359, Note_on_c, 0, 63, 67
2, 91461, Note_on_c, 0, 70, 0
2, 91469, Note_on_c, 0, 70, 60
2, 91584, Note_on_c, 0, 58, 0
2, 91584, Note_on_c, 0, 92, 0
2, 91591, Note_on_c, 0, 80, 0
2, 91593, Note_on_c, 0, 92, 90
2, 91595, Note_on_c, 0, 58, 74
2, 91596, Note_on_c, 0, 80, 78
2, 91722, Note_on_c, 0, 63, 0
2, 91728, Note_on_c, 0, 63, 68
2, 91791, Note_on_c, 0, 70, 0
2, 91795, Note_on_c, 0, 70, 69
2, 91921, Note_on_c, 0, 58, 0
2, 91929, Note_on_c, 0, 70, 0
2, 91931, Note_on_c, 0, 58, 74
2, 91935, Note_on_c, 0, 70, 73
2, 91936, Note_on_c, 0, 87, 92
2, 91939, Note_on_c, 0, 75, 80
2, 92052, Note_on_c, 0, 63, 0
2, 92063, Note_on_c, 0, 63, 70
2, 92175, Note_on_c, 0, 87, 0
2, 92175, Control_c, 0, 64, 0
2, 92179, Note_on_c, 0, 94, 0
2, 92179, Note_on_c, 0, 55, 0
2, 92179, Note_on_c, 0, 92, 0
2, 92179, Note_on_c, 0, 58, 0
2, 92179, Note_on_c, 0, 99, 92
2, 92179, Note_on_c, 0, 70, 0
2, 92179, Note_on_c, 0, 80, 0
2, 92179, Note_on_c, 0, 82, 0
2, 92180, Note_on_c, 0, 75, 0
2, 92180, Note_on_c, 0, 63, 0
2, 92186, Note_on_c, 0, 87, 88
2, 92188, Note_on_c, 0, 53, 72
2, 92252, Control_c, 0, 64, 127
2, 92305, Note_on_c, 0, 60, 71
2, 92416, Note_on_c, 0, 63, 70
2, 92546, Note_on_c, 0, 97, 91
2, 92548, Note_on_c, 0, 68, 75
2, 92549, Note_on_c, 0, 85, 91
2, 92651, Note_on_c, 0, 60, 0
2, 92656, Note_on_c, 0, 60, 71
2, 92774, Note_on_c, 0, 63, 0
2, 92781, Note_on_c, 0, 63, 72
2, 92892, Note_on_c, 0, 96, 93
2, 92897, Note_on_c, 0, 68, 0
2, 92898, Note_on_c, 0, 84, 86
2, 92904, Note_on_c, 0, 68, 73
2, 92989, Note_on_c, 0, 60, 0
2, 92998, Note_on_c, 0, 60, 77
2, 93125, Note_on_c, 0, 75, 98
2, 93127, Note_on_c, 0, 85, 0
2, 93127, Note_on_c, 0, 97, 0
2, 93131, Note_on_c, 0, 97, 91
2, 93138, Note_on_c, 0, 85, 90
2, 93246, Note_on_c, 0, 73, 81
2, 93354, Note_on_c, 0, 72, 81
2, 93465, Note_on_c, 0, 68, 0
2, 93473, Note_on_c, 0, 68, 86
2, 93480, Note_on_c, 0, 84, 0
2, 93480, Note_on_c, 0, 96, 0
2, 93491, Note_on_c, 0, 96, 94
2, 93491, Note_on_c, 0, 84, 89
2, 93596, Note_on_c, 0, 63, 0
2, 93601, Note_on_c, 0, 63, 81
2, 93696, Note_on_c, 0, 61, 82
2, 93826, Note_on_c, 0, 60, 0
2, 93831, Note_on_c, 0, 60, 80
2, 93833, Note_on_c, 0, 92, 89
2, 93835, Note_on_c, 0, 80, 92
2, 93946, Note_on_c, 0, 56, 80
2, 94038, Note_on_c, 0, 96, 0
2, 94038, Note_on_c, 0, 97, 0
2, 94039, Note_on_c, 0, 99, 0
2, 94039, Note_on_c, 0, 87, 0
2, 94039, Control_c, 0, 64, 0
2, 94040, Note_on_c, 0, 92, 0
2, 94040, Note_on_c, 0, 72, 0
2, 94040, Note_on_c, 0, 60, 0
2, 94040, Note_on_c, 0, 73, 0
2, 94040, Note_on_c, 0, 61, 0
2, 94040, Note_on_c, 0, 63, 0
2, 94041, Note_on_c, 0, 84, 0
2, 94041, Note_on_c, 0, 80, 0
2, 94041, Note_on_c, 0, 75, 0
2, 94042, Note_on_c, 0, 68, 0
2, 94044, Note_on_c, 0, 56, 0
2, 94049, Note_on_c, 0, 53, 0
2, 94056, Note_on_c, 0, 85, 0
2, 94069, Note_on_c, 0, 46, 84
2, 94126, Control_c, 0, 64, 127
2, 94181, Note_on_c, 0, 53, 78
2, 94206, Note_on_c, 0, 68, 79
2, 94218, Note_on_c, 0, 46, 0
2, 94261, Note_on_c, 0, 68, 0
2, 94262, Note_on_c, 0, 53, 0
2, 94267, Control_c, 0, 64, 0
2, 94315, Note_on_c, 0, 65, 80
2, 94316, Note_on_c, 0, 70, 85
2, 94323, Note_on_c, 0, 61, 66
2, 94341, Note_on_c, 0, 70, 0
2, 94364, Note_on_c, 0, 65, 0
2, 94371, Note_on_c, 0, 61, 0
2, 94437, Note_on_c, 0, 68, 71
2, 94468, Note_on_c, 0, 68, 0
2, 94549, Note_on_c, 0, 72, 82
2, 94563, Control_c, 0, 64, 127
2, 94671, Note_on_c, 0, 46, 71
2, 94789, Note_on_c, 0, 53, 73
2, 94860, Control_c, 0, 64, 0
2, 94863, Note_on_c, 0, 72, 0
2, 94863, Note_on_c, 0, 46, 0
2, 94865, Note_on_c, 0, 53, 0
2, 94905, Note_on_c, 0, 65, 80
2, 94905, Note_on_c, 0, 68, 85
2, 94930, Note_on_c, 0, 61, 65
2, 94930, Note_on_c, 0, 68, 0
2, 94955, Note_on_c, 0, 65, 0
2, 94970, Note_on_c, 0, 61, 0
2, 95019, Note_on_c, 0, 70, 81
2, 95049, Note_on_c, 0, 70, 0
2, 95133, Note_on_c, 0, 68, 79
2, 95159, Note_on_c, 0, 68, 0
2, 95243, Note_on_c, 0, 72, 89
2, 95285, Control_c, 0, 64, 127
2, 95349, Note_on_c, 0, 46, 80
2, 95477, Note_on_c, 0, 65, 80
2, 95477, Note_on_c, 0, 72, 0
2, 95481, Note_on_c, 0, 61, 79
2, 95483, Note_on_c, 0, 72, 81
2, 95509, Control_c, 0, 64, 0
2, 95513, Note_on_c, 0, 46, 0
2, 95517, Note_on_c, 0, 61, 0
2, 95604, Note_on_c, 0, 68, 87
2, 95608, Note_on_c, 0, 65, 0
2, 95646, Note_on_c, 0, 72, 0
2, 95700, Note_on_c, 0, 68, 0
2, 95733, Note_on_c, 0, 46, 77
2, 95759, Note_on_c, 0, 46, 0
2, 95845, Note_on_c, 0, 68, 92
2, 95953, Control_c, 0, 64, 127
2, 95965, Note_on_c, 0, 44, 82
2, 96084, Note_on_c, 0, 68, 0
2, 96087, Note_on_c, 0, 51, 74
2, 96090, Note_on_c, 0, 68, 80
2, 96210, Note_on_c, 0, 70, 86
2, 96212, Note_on_c, 0, 63, 80
2, 96214, Note_on_c, 0, 56, 58
2, 96218, Note_on_c, 0, 60, 75
2, 96222, Control_c, 0, 64, 0
2, 96228, Note_on_c, 0, 68, 0
2, 96234, Note_on_c, 0, 44, 0
2, 96235, Note_on_c, 0, 51, 0
2, 96242, Note_on_c, 0, 63, 0
2, 96244, Note_on_c, 0, 60, 0
2, 96249, Note_on_c, 0, 70, 0
2, 96253, Note_on_c, 0, 56, 0
2, 96317, Note_on_c, 0, 68, 79
2, 96350, Note_on_c, 0, 68, 0
2, 96436, Note_on_c, 0, 72, 94
2, 96506, Control_c, 0, 64, 127
2, 96572, Note_on_c, 0, 44, 74
2, 96678, Note_on_c, 0, 51, 75
2, 96794, Control_c, 0, 64, 0
2, 96795, Note_on_c, 0, 63, 79
2, 96796, Note_on_c, 0, 68, 84
2, 96801, Note_on_c, 0, 60, 72
2, 96802, Note_on_c, 0, 72, 0
2, 96806, Note_on_c, 0, 51, 0
2, 96809, Note_on_c, 0, 44, 0
2, 96827, Note_on_c, 0, 60, 0
2, 96831, Note_on_c, 0, 68, 0
2, 96844, Note_on_c, 0, 63, 0
2, 96909, Note_on_c, 0, 70, 84
2, 96942, Note_on_c, 0, 70, 0
2, 97020, Note_on_c, 0, 68, 84
2, 97051, Note_on_c, 0, 68, 0
2, 97136, Note_on_c, 0, 72, 90
2, 97198, Control_c, 0, 64, 127
2, 97258, Note_on_c, 0, 44, 74
2, 97367, Note_on_c, 0, 72, 0
2, 97375, Note_on_c, 0, 60, 76
2, 97376, Note_on_c, 0, 63, 79
2, 97377, Note_on_c, 0, 72, 79
2, 97378, Note_on_c, 0, 68, 66
2, 97382, Note_on_c, 0, 68, 0
2, 97494, Note_on_c, 0, 68, 85
2, 97597, Note_on_c, 0, 44, 0
2, 97601, Note_on_c, 0, 44, 75
2, 97720, Note_on_c, 0, 68, 0
2, 97729, Note_on_c, 0, 68, 90
2, 97773, Note_on_c, 0, 44, 0
2, 97775, Note_on_c, 0, 60, 0
2, 97775, Note_on_c, 0, 63, 0
2, 97775, Note_on_c, 0, 72, 0
2, 97776, Control_c, 0, 64, 0
2, 97850, Control_c, 0, 64, 127
2, 97855, Note_on_c, 0, 46, 78
2, 97950, Note_on_c, 0, 68, 0
2, 97959, Note_on_c, 0, 72, 91
2, 97960, Note_on_c, 0, 68, 82
2, 97967, Note_on_c, 0, 65, 55
2, 98073, Note_on_c, 0, 68, 0
2, 98073, Note_on_c, 0, 72, 0
2, 98081, Note_on_c, 0, 65, 0
2, 98081, Note_on_c, 0, 72, 94
2, 98084, Note_on_c, 0, 68, 78
2, 98089, Note_on_c, 0, 65, 73
2, 98091, Note_on_c, 0, 61, 74
2, 98143, Control_c, 0, 64, 0
2, 98150, Note_on_c, 0, 46, 0
2, 98165, Control_c, 0, 64, 127
2, 98205, Note_on_c, 0, 58, 84
2, 98258, Control_c, 0, 64, 0
2, 98261, Note_on_c, 0, 58, 0
2, 98263, Note_on_c, 0, 61, 0
2, 98273, Note_on_c, 0, 65, 0
2, 98273, Note_on_c, 0, 72, 0
2, 98280, Note_on_c, 0, 68, 0
2, 98315, Note_on_c, 0, 65, 84
2, 98315, Note_on_c, 0, 61, 86
2, 98315, Note_on_c, 0, 72, 95
2, 98321, Note_on_c, 0, 68, 84
2, 98347, Note_on_c, 0, 61, 0
2, 98348, Note_on_c, 0, 65, 0
2, 98380, Note_on_c, 0, 72, 0
2, 98380, Control_c, 0, 64, 127
2, 98426, Note_on_c, 0, 68, 0
2, 98435, Note_on_c, 0, 72, 96
2, 98437, Note_on_c, 0, 68, 88
2, 98440, Note_on_c, 0, 61, 68
2, 98441, Note_on_c, 0, 65, 60
2, 98557, Note_on_c, 0, 46, 78
2, 98657, Note_on_c, 0, 72, 0
2, 98664, Note_on_c, 0, 72, 91
2, 98664, Note_on_c, 0, 68, 0
2, 98669, Note_on_c, 0, 68, 84
2, 98680, Note_on_c, 0, 61, 0
2, 98680, Note_on_c, 0, 65, 0
2, 98684, Note_on_c, 0, 65, 76
2, 98688, Note_on_c, 0, 61, 77
2, 98780, Note_on_c, 0, 68, 0
2, 98780, Note_on_c, 0, 72, 0
2, 98788, Note_on_c, 0, 72, 96
2, 98791, Note_on_c, 0, 68, 75
2, 98830, Note_on_c, 0, 46, 0
2, 98830, Note_on_c, 0, 61, 0
2, 98830, Note_on_c, 0, 65, 0
2, 98830, Note_on_c, 0, 68, 0
2, 98831, Control_c, 0, 64, 0
2, 98911, Note_on_c, 0, 72, 0
2, 98920, Note_on_c, 0, 58, 91
2, 98949, Control_c, 0, 64, 127
2, 98956, Note_on_c, 0, 58, 0
2, 99027, Note_on_c, 0, 72, 97
2, 99029, Note_on_c, 0, 68, 91
2, 99035, Note_on_c, 0, 65, 79
2, 99037, Note_on_c, 0, 61, 78
2, 99125, Note_on_c, 0, 72, 0
2, 99133, Note_on_c, 0, 68, 0
2, 99135, Note_on_c, 0, 72, 101
2, 99143, Note_on_c, 0, 68, 86
2, 99257, Note_on_c, 0, 75, 101
2, 99260, Note_on_c, 0, 46, 78
2, 99313, Note_on_c, 0, 61, 0
2, 99314, Note_on_c, 0, 68, 0
2, 99314, Note_on_c, 0, 46, 0
2, 99314, Note_on_c, 0, 65, 0
2, 99315, Note_on_c, 0, 75, 0
2, 99325, Note_on_c, 0, 72, 0
2, 99370, Note_on_c, 0, 72, 103
2, 99382, Note_on_c, 0, 65, 86
2, 99389, Note_on_c, 0, 68, 79
2, 99411, Note_on_c, 0, 61, 68
2, 99508, Note_on_c, 0, 58, 88
2, 99510, Note_on_c, 0, 70, 81
2, 99601, Note_on_c, 0, 70, 0
2, 99607, Note_on_c, 0, 70, 106
2, 99612, Note_on_c, 0, 67, 92
2, 99647, Note_on_c, 0, 72, 0
2, 99648, Note_on_c, 0, 61, 0
2, 99648, Control_c, 0, 64, 0
2, 99648, Note_on_c, 0, 65, 0
2, 99648, Note_on_c, 0, 58, 0
2, 99649, Note_on_c, 0, 68, 0
2, 99737, Note_on_c, 0, 55, 91
2, 99740, Note_on_c, 0, 48, 79
2, 99747, Control_c, 0, 64, 127
2, 99985, Note_on_c, 0, 48, 0
2, 99985, Note_on_c, 0, 55, 0
2, 99994, Note_on_c, 0, 60, 64
2, 99997, Note_on_c, 0, 55, 59
2, 99997, Note_on_c, 0, 48, 59
2, 100093, Note_on_c, 0, 48, 0
2, 100093, Note_on_c, 0, 55, 0
2, 100093, Note_on_c, 0, 60, 0
2, 100100, Note_on_c, 0, 48, 79
2, 100102, Note_on_c, 0, 55, 74
2, 100102, Note_on_c, 0, 60, 78
2, 100208, Note_on_c, 0, 48, 0
2, 100208, Note_on_c, 0, 55, 0
2, 100208, Note_on_c, 0, 60, 0
2, 100217, Note_on_c, 0, 60, 89
2, 100218, Note_on_c, 0, 55, 86
2, 100219, Note_on_c, 0, 48, 82
2, 100316, Note_on_c, 0, 48, 0
2, 100323, Note_on_c, 0, 55, 0
2, 100323, Note_on_c, 0, 60, 0
2, 100327, Note_on_c, 0, 48, 83
2, 100328, Note_on_c, 0, 60, 82
2, 100329, Note_on_c, 0, 55, 73
2, 100423, Note_on_c, 0, 48, 0
2, 100423, Note_on_c, 0, 55, 0
2, 100423, Note_on_c, 0, 60, 0
2, 100431, Note_on_c, 0, 60, 87
2, 100433, Note_on_c, 0, 48, 88
2, 100435, Note_on_c, 0, 55, 77
2, 100561, Note_on_c, 0, 60, 0
2, 100569, Note_on_c, 0, 48, 0
2, 100572, Note_on_c, 0, 72, 109
2, 100572, Note_on_c, 0, 60, 97
2, 100573, Note_on_c, 0, 48, 101
2, 100576, Note_on_c, 0, 36, 95
2, 100693, Note_on_c, 0, 48, 0
2, 100693, Control_c, 0, 64, 0
2, 100697, Note_on_c, 0, 60, 0
2, 100715, Note_on_c, 0, 67, 0
2, 100723, Note_on_c, 0, 36, 0
2, 100723, Note_on_c, 0, 55, 0
2, 100723, Note_on_c, 0, 70, 0
2, 100746, Note_on_c, 0, 72, 0
2, 100954, Note_on_c, 0, 77, 108
2, 100955, Note_on_c, 0, 48, 68
2, 100956, Note_on_c, 0, 65, 104
2, 100961, Note_on_c, 0, 48, 0
2, 100992, Note_on_c, 0, 65, 0
2, 101007, Control_c, 0, 64, 127
2, 101196, Note_on_c, 0, 84, 106
2, 101204, Note_on_c, 0, 48, 90
2, 101209, Note_on_c, 0, 72, 92
2, 101219, Note_on_c, 0, 52, 72
2, 101315, Note_on_c, 0, 82, 110
2, 101317, Note_on_c, 0, 55, 84
2, 101318, Note_on_c, 0, 70, 101
2, 101397, Note_on_c, 0, 58, 98
2, 101406, Note_on_c, 0, 48, 0
2, 101413, Note_on_c, 0, 60, 96
2, 101416, Note_on_c, 0, 48, 77
2, 101529, Note_on_c, 0, 70, 0
2, 101529, Note_on_c, 0, 82, 0
2, 101537, Note_on_c, 0, 48, 0
2, 101538, Note_on_c, 0, 82, 101
2, 101540, Note_on_c, 0, 70, 98
2, 101541, Note_on_c, 0, 48, 79
2, 101549, Note_on_c, 0, 53, 57
2, 101571, Note_on_c, 0, 60, 0
2, 101571, Note_on_c, 0, 72, 0
2, 101571, Note_on_c, 0, 84, 0
2, 101572, Note_on_c, 0, 58, 0
2, 101572, Note_on_c, 0, 82, 0
2, 101572, Note_on_c, 0, 77, 0
2, 101572, Note_on_c, 0, 52, 0
2, 101572, Note_on_c, 0, 55, 0
2, 101572, Control_c, 0, 64, 0
2, 101573, Note_on_c, 0, 70, 0
2, 101583, Note_on_c, 0, 53, 0
2, 101591, Note_on_c, 0, 48, 0
2, 101653, Note_on_c, 0, 84, 106
2, 101656, Note_on_c, 0, 72, 107
2, 101658, Note_on_c, 0, 77, 102
2, 101660, Note_on_c, 0, 80, 102
2, 101662, Note_on_c, 0, 37, 105
2, 101663, Note_on_c, 0, 25, 108
2, 101667, Note_on_c, 0, 25, 0
2, 101690, Control_c, 0, 64, 127
2, 101885, Note_on_c, 0, 60, 87
2, 101887, Note_on_c, 0, 56, 67
2, 101895, Note_on_c, 0, 49, 70
2, 101895, Note_on_c, 0, 82, 99
2, 101902, Note_on_c, 0, 70, 90
2, 101933, Note_on_c, 0, 53, 65
2, 102013, Note_on_c, 0, 72, 0
2, 102013, Note_on_c, 0, 84, 0
2, 102019, Note_on_c, 0, 84, 103
2, 102021, Note_on_c, 0, 37, 0
2, 102021, Note_on_c, 0, 77, 0
2, 102021, Note_on_c, 0, 80, 0
2, 102023, Note_on_c, 0, 72, 97
2, 102024, Note_on_c, 0, 77, 88
2, 102027, Note_on_c, 0, 80, 86
2, 102029, Note_on_c, 0, 37, 89
2, 102120, Note_on_c, 0, 49, 0
2, 102129, Note_on_c, 0, 49, 83
2, 102213, Note_on_c, 0, 53, 0
2, 102217, Note_on_c, 0, 53, 70
2, 102251, Note_on_c, 0, 70, 0
2, 102251, Note_on_c, 0, 82, 0
2, 102256, Note_on_c, 0, 82, 105
2, 102262, Note_on_c, 0, 70, 95
2, 102297, Note_on_c, 0, 80, 0
2, 102303, Note_on_c, 0, 80, 43
2, 102359, Note_on_c, 0, 53, 0
2, 102359, Note_on_c, 0, 56, 0
2, 102359, Note_on_c, 0, 60, 0
2, 102364, Note_on_c, 0, 60, 91
2, 102368, Note_on_c, 0, 56, 87
2, 102369, Note_on_c, 0, 68, 86
2, 102370, Note_on_c, 0, 53, 84
2, 102481, Note_on_c, 0, 84, 0
2, 102489, Note_on_c, 0, 72, 0
2, 102489, Note_on_c, 0, 77, 0
2, 102492, Note_on_c, 0, 84, 105
2, 102497, Note_on_c, 0, 37, 0
2, 102497, Note_on_c, 0, 80, 0
2, 102497, Note_on_c, 0, 72, 99
2, 102500, Note_on_c, 0, 77, 96
2, 102502, Note_on_c, 0, 37, 91
2, 102505, Note_on_c, 0, 80, 91
2, 102589, Note_on_c, 0, 37, 0
2, 102599, Note_on_c, 0, 37, 67
2, 102604, Note_on_c, 0, 49, 0
2, 102610, Note_on_c, 0, 49, 68
2, 102712, Note_on_c, 0, 82, 0
2, 102720, Note_on_c, 0, 49, 0
2, 102720, Note_on_c, 0, 70, 0
2, 102723, Note_on_c, 0, 82, 104
2, 102726, Note_on_c, 0, 70, 96
2, 102729, Note_on_c, 0, 49, 84
2, 102750, Note_on_c, 0, 80, 0
2, 102756, Note_on_c, 0, 80, 54
2, 102819, Note_on_c, 0, 60, 0
2, 102827, Note_on_c, 0, 49, 0
2, 102827, Note_on_c, 0, 53, 0
2, 102827, Note_on_c, 0, 56, 0
2, 102827, Note_on_c, 0, 68, 0
2, 102829, Note_on_c, 0, 60, 92
2, 102831, Note_on_c, 0, 56, 77
2, 102836, Note_on_c, 0, 53, 65
2, 102837, Note_on_c, 0, 68, 80
2, 102838, Note_on_c, 0, 49, 82
2, 102950, Note_on_c, 0, 37, 0
2, 102950, Note_on_c, 0, 70, 0
2, 102950, Note_on_c, 0, 82, 0
2, 102954, Note_on_c, 0, 82, 105
2, 102954, Note_on_c, 0, 70, 90
2, 102956, Note_on_c, 0, 37, 79
2, 102961, Note_on_c, 0, 41, 71
2, 102965, Note_on_c, 0, 41, 0
2, 103057, Note_on_c, 0, 49, 0
2, 103065, Note_on_c, 0, 53, 0
2, 103065, Note_on_c, 0, 72, 0
2, 103065, Note_on_c, 0, 77, 0
2, 103065, Note_on_c, 0, 84, 0
2, 103069, Note_on_c, 0, 49, 89
2, 103070, Note_on_c, 0, 84, 103
2, 103073, Note_on_c, 0, 80, 0
2, 103074, Note_on_c, 0, 53, 76
2, 103076, Note_on_c, 0, 54, 71
2, 103076, Note_on_c, 0, 77, 86
2, 103076, Note_on_c, 0, 72, 92
2, 103080, Note_on_c, 0, 54, 0
2, 103082, Note_on_c, 0, 80, 87
2, 103188, Note_on_c, 0, 49, 0
2, 103195, Note_on_c, 0, 49, 85
2, 103196, Note_on_c, 0, 87, 109
2, 103200, Note_on_c, 0, 75, 107
2, 103311, Note_on_c, 0, 60, 0
2, 103319, Note_on_c, 0, 53, 0
2, 103319, Note_on_c, 0, 56, 0
2, 103321, Note_on_c, 0, 60, 98
2, 103329, Note_on_c, 0, 56, 80
2, 103330, Note_on_c, 0, 53, 73
2, 103395, Note_on_c, 0, 49, 0
2, 103403, Note_on_c, 0, 49, 85
2, 103434, Note_on_c, 0, 75, 0
2, 103434, Note_on_c, 0, 87, 0
2, 103438, Note_on_c, 0, 87, 106
2, 103441, Note_on_c, 0, 75, 102
2, 103511, Note_on_c, 0, 56, 0
2, 103512, Note_on_c, 0, 53, 0
2, 103512, Note_on_c, 0, 72, 0
2, 103512, Note_on_c, 0, 80, 0
2, 103512, Note_on_c, 0, 75, 0
2, 103512, Note_on_c, 0, 82, 0
2, 103512, Note_on_c, 0, 60, 0
2, 103513, Note_on_c, 0, 77, 0
2, 103513, Note_on_c, 0, 84, 0
2, 103513, Note_on_c, 0, 87, 0
2, 103513, Note_on_c, 0, 70, 0
2, 103514, Control_c, 0, 64, 0
2, 103518, Note_on_c, 0, 68, 0
2, 103526, Note_on_c, 0, 37, 0
2, 103526, Note_on_c, 0, 49, 0
2, 103559, Note_on_c, 0, 87, 108
2, 103560, Note_on_c, 0, 82, 107
2, 103560, Note_on_c, 0, 79, 104
2, 103560, Note_on_c, 0, 39, 97
2, 103561, Note_on_c, 0, 27, 91
2, 103561, Note_on_c, 0, 75, 108
2, 103595, Control_c, 0, 64, 127
2, 103783, Note_on_c, 0, 51, 69
2, 103786, Note_on_c, 0, 58, 72
2, 103787, Note_on_c, 0, 82, 0
2, 103787, Note_on_c, 0, 87, 0
2, 103791, Note_on_c, 0, 55, 71
2, 103795, Note_on_c, 0, 87, 100
2, 103795, Note_on_c, 0, 58, 0
2, 103795, Note_on_c, 0, 79, 0
2, 103798, Note_on_c, 0, 82, 100
2, 103800, Note_on_c, 0, 79, 89
2, 103916, Note_on_c, 0, 85, 106
2, 103918, Note_on_c, 0, 39, 0
2, 103920, Note_on_c, 0, 73, 105
2, 103924, Note_on_c, 0, 39, 78
2, 104025, Note_on_c, 0, 51, 0
2, 104025, Note_on_c, 0, 55, 0
2, 104031, Note_on_c, 0, 51, 86
2, 104035, Note_on_c, 0, 58, 57
2, 104035, Note_on_c, 0, 55, 58
2, 104144, Note_on_c, 0, 84, 108
2, 104145, Note_on_c, 0, 72, 102
2, 104171, Note_on_c, 0, 51, 0
2, 104176, Note_on_c, 0, 51, 77
2, 104263, Note_on_c, 0, 51, 0
2, 104263, Note_on_c, 0, 55, 0
2, 104263, Note_on_c, 0, 58, 0
2, 104265, Note_on_c, 0, 63, 79
2, 104268, Note_on_c, 0, 55, 69
2, 104268, Note_on_c, 0, 51, 75
2, 104270, Note_on_c, 0, 58, 81
2, 104386, Note_on_c, 0, 39, 0
2, 104386, Note_on_c, 0, 75, 0
2, 104386, Note_on_c, 0, 79, 0
2, 104386, Note_on_c, 0, 82, 0
2, 104390, Note_on_c, 0, 82, 108
2, 104391, Note_on_c, 0, 46, 80
2, 104392, Note_on_c, 0, 70, 100
2, 104394, Note_on_c, 0, 39, 90
2, 104396, Note_on_c, 0, 79, 91
2, 104396, Note_on_c, 0, 75, 96
2, 104624, Note_on_c, 0, 51, 0
2, 104636, Note_on_c, 0, 51, 83
2, 104640, Note_on_c, 0, 55, 0
2, 104648, Note_on_c, 0, 55, 47
2, 104732, Note_on_c, 0, 63, 0
2, 104739, Note_on_c, 0, 55, 0
2, 104739, Note_on_c, 0, 58, 0
2, 104740, Note_on_c, 0, 63, 88
2, 104744, Note_on_c, 0, 55, 77
2, 104744, Note_on_c, 0, 58, 75
2, 104870, Note_on_c, 0, 39, 0
2, 104875, Note_on_c, 0, 39, 69
2, 104977, Note_on_c, 0, 63, 0
2, 104983, Note_on_c, 0, 80, 99
2, 104985, Note_on_c, 0, 58, 0
2, 104987, Note_on_c, 0, 68, 98
2, 104988, Note_on_c, 0, 63, 56
2, 104989, Note_on_c, 0, 58, 72
2, 105108, Note_on_c, 0, 51, 0
2, 105119, Note_on_c, 0, 51, 84
2, 105208, Note_on_c, 0, 46, 0
2, 105216, Note_on_c, 0, 82, 0
2, 105223, Note_on_c, 0, 51, 0
2, 105223, Note_on_c, 0, 58, 0
2, 105223, Note_on_c, 0, 63, 0
2, 105223, Note_on_c, 0, 70, 0
2, 105223, Note_on_c, 0, 75, 0
2, 105223, Note_on_c, 0, 79, 0
2, 105226, Note_on_c, 0, 82, 108
2, 105228, Note_on_c, 0, 63, 90
2, 105229, Note_on_c, 0, 79, 93
2, 105229, Note_on_c, 0, 75, 92
2, 105230, Note_on_c, 0, 51, 86
2, 105230, Note_on_c, 0, 70, 96
2, 105234, Note_on_c, 0, 58, 75
2, 105346, Note_on_c, 0, 39, 0
2, 105346, Note_on_c, 0, 51, 0
2, 105354, Note_on_c, 0, 51, 74
2, 105357, Note_on_c, 0, 39, 66
2, 105418, Control_c, 0, 64, 0
2, 105419, Note_on_c, 0, 55, 0
2, 105419, Note_on_c, 0, 58, 0
2, 105419, Note_on_c, 0, 73, 0
2, 105419, Note_on_c, 0, 87, 0
2, 105419, Note_on_c, 0, 80, 0
2, 105419, Note_on_c, 0, 39, 0
2, 105419, Note_on_c, 0, 79, 0
2, 105419, Note_on_c, 0, 63, 0
2, 105420, Note_on_c, 0, 51, 0
2, 105420, Note_on_c, 0, 68, 0
2, 105420, Note_on_c, 0, 85, 0
2, 105420, Note_on_c, 0, 72, 0
2, 105420, Note_on_c, 0, 70, 0
2, 105420, Note_on_c, 0, 84, 0
2, 105431, Note_on_c, 0, 27, 0
2, 105465, Note_on_c, 0, 36, 92
2, 105465, Note_on_c, 0, 48, 94
2, 105500, Control_c, 0, 64, 127
2, 105584, Note_on_c, 0, 75, 0
2, 105584, Note_on_c, 0, 82, 0
2, 105591, Note_on_c, 0, 82, 98
2, 105594, Note_on_c, 0, 70, 91
2, 105595, Note_on_c, 0, 51, 74
2, 105596, Note_on_c, 0, 75, 84
2, 105684, Note_on_c, 0, 48, 0
2, 105684, Note_on_c, 0, 51, 0
2, 105687, Note_on_c, 0, 60, 85
2, 105690, Note_on_c, 0, 48, 84
2, 105692, Note_on_c, 0, 60, 0
2, 105692, Note_on_c, 0, 70, 0
2, 105692, Note_on_c, 0, 75, 0
2, 105692, Note_on_c, 0, 82, 0
2, 105695, Note_on_c, 0, 51, 83
2, 105699, Note_on_c, 0, 82, 98
2, 105701, Note_on_c, 0, 75, 83
2, 105702, Note_on_c, 0, 70, 91
2, 105815, Note_on_c, 0, 36, 0
2, 105815, Note_on_c, 0, 75, 0
2, 105815, Note_on_c, 0, 82, 0
2, 105819, Note_on_c, 0, 75, 89
2, 105819, Note_on_c, 0, 82, 96
2, 105821, Note_on_c, 0, 79, 81
2, 105823, Note_on_c, 0, 36, 84
2, 105930, Note_on_c, 0, 36, 0
2, 105930, Note_on_c, 0, 48, 0
2, 105930, Note_on_c, 0, 70, 0
2, 105930, Note_on_c, 0, 75, 0
2, 105930, Note_on_c, 0, 82, 0
2, 105937, Note_on_c, 0, 82, 103
2, 105941, Note_on_c, 0, 36, 79
2, 105941, Note_on_c, 0, 70, 91
2, 105941, Note_on_c, 0, 48, 87
2, 105941, Note_on_c, 0, 75, 92
2, 106068, Note_on_c, 0, 48, 0
2, 106072, Note_on_c, 0, 48, 78
2, 106168, Note_on_c, 0, 48, 0
2, 106168, Note_on_c, 0, 51, 0
2, 106172, Note_on_c, 0, 48, 91
2, 106173, Note_on_c, 0, 60, 80
2, 106177, Note_on_c, 0, 51, 83
2, 106181, Note_on_c, 0, 80, 101
2, 106187, Note_on_c, 0, 68, 95
2, 106279, Note_on_c, 0, 82, 0
2, 106279, Note_on_c, 0, 48, 0
2, 106280, Note_on_c, 0, 51, 0
2, 106280, Note_on_c, 0, 70, 0
2, 106280, Note_on_c, 0, 75, 0
2, 106281, Note_on_c, 0, 79, 0
2, 106283, Note_on_c, 0, 68, 0
2, 106284, Control_c, 0, 64, 0
2, 106298, Note_on_c, 0, 36, 0
2, 106298, Note_on_c, 0, 60, 0
2, 106303, Note_on_c, 0, 36, 83
2, 106383, Control_c, 0, 64, 127
2, 106393, Note_on_c, 0, 48, 82
2, 106418, Note_on_c, 0, 82, 104
2, 106423, Note_on_c, 0, 70, 91
2, 106427, Note_on_c, 0, 75, 90
2, 106529, Note_on_c, 0, 36, 0
2, 106529, Note_on_c, 0, 48, 0
2, 106536, Note_on_c, 0, 48, 86
2, 106537, Note_on_c, 0, 36, 74
2, 106629, Note_on_c, 0, 48, 0
2, 106640, Note_on_c, 0, 48, 85
2, 106641, Note_on_c, 0, 51, 84
2, 106652, Note_on_c, 0, 80, 0
2, 106662, Note_on_c, 0, 80, 91
2, 106665, Note_on_c, 0, 68, 84
2, 106775, Note_on_c, 0, 36, 0
2, 106775, Note_on_c, 0, 48, 0
2, 106775, Note_on_c, 0, 75, 0
2, 106775, Note_on_c, 0, 80, 0
2, 106775, Note_on_c, 0, 84, 105
2, 106780, Note_on_c, 0, 44, 67
2, 106781, Note_on_c, 0, 75, 95
2, 106781, Note_on_c, 0, 48, 84
2, 106783, Note_on_c, 0, 36, 80
2, 106783, Note_on_c, 0, 72, 96
2, 106783, Note_on_c, 0, 80, 84
2, 106790, Note_on_c, 0, 44, 0
2, 106867, Note_on_c, 0, 48, 0
2, 106871, Note_on_c, 0, 48, 81
2, 106990, Note_on_c, 0, 48, 0
2, 106997, Note_on_c, 0, 36, 0
2, 107001, Note_on_c, 0, 48, 79
2, 107003, Note_on_c, 0, 36, 65
2, 107105, Note_on_c, 0, 51, 0
2, 107109, Note_on_c, 0, 60, 78
2, 107110, Note_on_c, 0, 51, 75
2, 107188, Note_on_c, 0, 68, 0
2, 107188, Note_on_c, 0, 70, 0
2, 107188, Note_on_c, 0, 80, 0
2, 107189, Note_on_c, 0, 51, 0
2, 107189, Note_on_c, 0, 72, 0
2, 107190, Note_on_c, 0, 60, 0
2, 107190, Note_on_c, 0, 75, 0
2, 107190, Note_on_c, 0, 84, 0
2, 107193, Control_c, 0, 64, 0
2, 107197, Note_on_c, 0, 36, 0
2, 107197, Note_on_c, 0, 82, 0
2, 107205, Note_on_c, 0, 48, 0
2, 107234, Note_on_c, 0, 82, 108
2, 107239, Note_on_c, 0, 41, 91
2, 107239, Note_on_c, 0, 29, 100
2, 107240, Note_on_c, 0, 70, 98
2, 107240, Note_on_c, 0, 75, 98
2, 107258, Control_c, 0, 64, 127
2, 107469, Note_on_c, 0, 80, 95
2, 107474, Note_on_c, 0, 68, 84
2, 107475, Note_on_c, 0, 53, 73
2, 107588, Note_on_c, 0, 68, 0
2, 107589, Note_on_c, 0, 53, 0
2, 107589, Note_on_c, 0, 75, 0
2, 107592, Note_on_c, 0, 84, 102
2, 107592, Note_on_c, 0, 70, 0
2, 107592, Note_on_c, 0, 80, 0
2, 107592, Note_on_c, 0, 60, 73
2, 107593, Note_on_c, 0, 56, 78
2, 107593, Note_on_c, 0, 82, 0
2, 107593, Note_on_c, 0, 72, 91
2, 107594, Note_on_c, 0, 75, 97
2, 107597, Note_on_c, 0, 53, 79
2, 107598, Control_c, 0, 64, 0
2, 107604, Note_on_c, 0, 29, 0
2, 107627, Note_on_c, 0, 41, 0
2, 107636, Note_on_c, 0, 72, 0
2, 107639, Note_on_c, 0, 56, 0
2, 107642, Note_on_c, 0, 53, 0
2, 107658, Note_on_c, 0, 60, 0
2, 107711, Note_on_c, 0, 53, 79
2, 107735, Note_on_c, 0, 75, 0
2, 107758, Note_on_c, 0, 84, 0
2, 107788, Note_on_c, 0, 53, 0
2, 107831, Note_on_c, 0, 84, 103
2, 107831, Note_on_c, 0, 56, 96
2, 107833, Note_on_c, 0, 75, 101
2, 107833, Note_on_c, 0, 68, 95
2, 107833, Note_on_c, 0, 72, 101
2, 107834, Note_on_c, 0, 60, 90
2, 107857, Control_c, 0, 64, 127
2, 108058, Note_on_c, 0, 82, 98
2, 108069, Note_on_c, 0, 70, 79
2, 108071, Note_on_c, 0, 41, 84
2, 108172, Note_on_c, 0, 68, 0
2, 108172, Note_on_c, 0, 72, 0
2, 108182, Note_on_c, 0, 80, 99
2, 108183, Note_on_c, 0, 72, 78
2, 108183, Note_on_c, 0, 68, 93
2, 108184, Note_on_c, 0, 53, 84
2, 108303, Note_on_c, 0, 53, 0
2, 108303, Note_on_c, 0, 56, 0
2, 108303, Note_on_c, 0, 60, 0
2, 108303, Note_on_c, 0, 68, 0
2, 108303, Note_on_c, 0, 72, 0
2, 108303, Note_on_c, 0, 75, 0
2, 108303, Note_on_c, 0, 84, 0
2, 108307, Note_on_c, 0, 84, 104
2, 108308, Note_on_c, 0, 75, 98
2, 108310, Note_on_c, 0, 72, 95
2, 108310, Note_on_c, 0, 56, 85
2, 108310, Note_on_c, 0, 68, 93
2, 108313, Note_on_c, 0, 53, 84
2, 108314, Note_on_c, 0, 60, 86
2, 108352, Note_on_c, 0, 41, 0
2, 108353, Note_on_c, 0, 68, 0
2, 108353, Note_on_c, 0, 72, 0
2, 108354, Note_on_c, 0, 53, 0
2, 108354, Note_on_c, 0, 80, 0
2, 108355, Note_on_c, 0, 82, 0
2, 108355, Note_on_c, 0, 75, 0
2, 108356, Note_on_c, 0, 84, 0
2, 108356, Note_on_c, 0, 70, 0
2, 108358, Control_c, 0, 64, 0
2, 108359, Note_on_c, 0, 60, 0
2, 108360, Note_on_c, 0, 56, 0
2, 108429, Note_on_c, 0, 53, 73
2, 108518, Note_on_c, 0, 53, 0
2, 108550, Note_on_c, 0, 56, 94
2, 108552, Note_on_c, 0, 68, 94
2, 108552, Note_on_c, 0, 84, 103
2, 108552, Note_on_c, 0, 60, 93
2, 108553, Note_on_c, 0, 75, 100
2, 108554, Note_on_c, 0, 53, 74
2, 108554, Note_on_c, 0, 72, 98
2, 108556, Control_c, 0, 64, 127
2, 108776, Note_on_c, 0, 82, 105
2, 108782, Note_on_c, 0, 70, 91
2, 108894, Note_on_c, 0, 53, 0
2, 108894, Note_on_c, 0, 68, 0
2, 108898, Note_on_c, 0, 80, 107
2, 108903, Note_on_c, 0, 68, 105
2, 108904, Note_on_c, 0, 48, 92
2, 108905, Note_on_c, 0, 53, 90
2, 109002, Note_on_c, 0, 48, 0
2, 109012, Note_on_c, 0, 41, 84
2, 109013, Note_on_c, 0, 48, 83
2, 109120, Note_on_c, 0, 82, 0
2, 109120, Note_on_c, 0, 48, 0
2, 109121, Note_on_c, 0, 68, 0
2, 109121, Note_on_c, 0, 70, 0
2, 109121, Note_on_c, 0, 75, 0
2, 109121, Note_on_c, 0, 84, 0
2, 109121, Note_on_c, 0, 60, 0
2, 109122, Note_on_c, 0, 56, 0
2, 109122, Note_on_c, 0, 72, 0
2, 109122, Note_on_c, 0, 80, 0
2, 109124, Note_on_c, 0, 53, 0
2, 109125, Note_on_c, 0, 41, 0
2, 109129, Note_on_c, 0, 65, 95
2, 109130, Note_on_c, 0, 77, 101
2, 109130, Control_c, 0, 64, 0
2, 109136, Note_on_c, 0, 41, 69
2, 109137, Note_on_c, 0, 69, 68
2, 109154, Note_on_c, 0, 65, 0
2, 109163, Note_on_c, 0, 41, 0
2, 109165, Note_on_c, 0, 77, 0
2, 109171, Note_on_c, 0, 69, 0
2, 109250, Note_on_c, 0, 25, 105
2, 109250, Note_on_c, 0, 84, 104
2, 109251, Note_on_c, 0, 37, 104
2, 109255, Note_on_c, 0, 72, 104
2, 109256, Note_on_c, 0, 80, 99
2, 109278, Control_c, 0, 64, 127
2, 109473, Note_on_c, 0, 48, 81
2, 109474, Note_on_c, 0, 60, 78
2, 109478, Note_on_c, 0, 48, 0
2, 109478, Note_on_c, 0, 56, 67
2, 109483, Note_on_c, 0, 82, 98
2, 109493, Note_on_c, 0, 70, 88
2, 109601, Note_on_c, 0, 84, 0
2, 109608, Note_on_c, 0, 37, 0
2, 109608, Note_on_c, 0, 72, 0
2, 109612, Note_on_c, 0, 84, 103
2, 109613, Note_on_c, 0, 37, 93
2, 109614, Note_on_c, 0, 77, 97
2, 109620, Note_on_c, 0, 72, 92
2, 109624, Note_on_c, 0, 78, 84
2, 109632, Note_on_c, 0, 80, 0
2, 109635, Note_on_c, 0, 80, 68
2, 109716, Note_on_c, 0, 37, 0
2, 109721, Note_on_c, 0, 49, 86
2, 109721, Note_on_c, 0, 37, 90
2, 109847, Note_on_c, 0, 82, 0
2, 109852, Note_on_c, 0, 82, 103
2, 109854, Note_on_c, 0, 49, 0
2, 109854, Note_on_c, 0, 70, 0
2, 109859, Note_on_c, 0, 49, 84
2, 109861, Note_on_c, 0, 70, 95
2, 109962, Note_on_c, 0, 60, 0
2, 109969, Note_on_c, 0, 56, 0
2, 109971, Note_on_c, 0, 60, 88
2, 109974, Note_on_c, 0, 68, 80
2, 109974, Note_on_c, 0, 56, 88
2, 109974, Note_on_c, 0, 48, 80
2, 110085, Note_on_c, 0, 84, 0
2, 110092, Note_on_c, 0, 37, 0
2, 110092, Note_on_c, 0, 72, 0
2, 110092, Note_on_c, 0, 77, 0
2, 110092, Note_on_c, 0, 80, 0
2, 110093, Note_on_c, 0, 84, 103
2, 110096, Note_on_c, 0, 72, 98
2, 110098, Note_on_c, 0, 80, 91
2, 110100, Note_on_c, 0, 77, 93
2, 110103, Note_on_c, 0, 37, 91
2, 110200, Note_on_c, 0, 37, 0
2, 110200, Note_on_c, 0, 49, 0
2, 110204, Note_on_c, 0, 49, 86
2, 110205, Note_on_c, 0, 37, 91
2, 110323, Note_on_c, 0, 82, 0
2, 110330, Note_on_c, 0, 37, 0
2, 110330, Note_on_c, 0, 49, 0
2, 110330, Note_on_c, 0, 70, 0
2, 110334, Note_on_c, 0, 82, 102
2, 110335, Note_on_c, 0, 70, 94
2, 110335, Note_on_c, 0, 49, 78
2, 110338, Note_on_c, 0, 37, 75
2, 110361, Note_on_c, 0, 80, 0
2, 110368, Note_on_c, 0, 80, 52
2, 110430, Note_on_c, 0, 56, 0
2, 110430, Note_on_c, 0, 60, 0
2, 110430, Note_on_c, 0, 68, 0
2, 110436, Note_on_c, 0, 60, 89
2, 110441, Note_on_c, 0, 65, 64
2, 110441, Note_on_c, 0, 56, 78
2, 110442, Note_on_c, 0, 68, 75
2, 110446, Note_on_c, 0, 65, 0
2, 110553, Note_on_c, 0, 82, 0
2, 110561, Note_on_c, 0, 70, 0
2, 110563, Note_on_c, 0, 82, 105
2, 110568, Note_on_c, 0, 37, 0
2, 110570, Note_on_c, 0, 70, 86
2, 110574, Note_on_c, 0, 37, 85
2, 110584, Note_on_c, 0, 80, 0
2, 110591, Note_on_c, 0, 80, 59
2, 110661, Note_on_c, 0, 37, 0
2, 110661, Note_on_c, 0, 49, 0
2, 110665, Note_on_c, 0, 49, 88
2, 110668, Note_on_c, 0, 84, 0
2, 110670, Note_on_c, 0, 37, 86
2, 110676, Note_on_c, 0, 77, 0
2, 110680, Note_on_c, 0, 84, 102
2, 110682, Note_on_c, 0, 77, 87
2, 110684, Note_on_c, 0, 72, 0
2, 110684, Note_on_c, 0, 80, 0
2, 110689, Note_on_c, 0, 72, 87
2, 110689, Note_on_c, 0, 80, 79
2, 110799, Note_on_c, 0, 49, 0
2, 110805, Note_on_c, 0, 49, 88
2, 110808, Note_on_c, 0, 87, 109
2, 110810, Note_on_c, 0, 75, 108
2, 110914, Note_on_c, 0, 60, 0
2, 110922, Note_on_c, 0, 56, 0
2, 110925, Note_on_c, 0, 60, 98
2, 110926, Note_on_c, 0, 56, 87
2, 110932, Note_on_c, 0, 53, 76
2, 110991, Note_on_c, 0, 49, 0
2, 110995, Note_on_c, 0, 49, 31
2, 111029, Note_on_c, 0, 56, 0
2, 111035, Note_on_c, 0, 56, 63
2, 111037, Note_on_c, 0, 75, 0
2, 111037, Note_on_c, 0, 87, 0
2, 111041, Note_on_c, 0, 87, 106
2, 111043, Note_on_c, 0, 75, 98
2, 111108, Note_on_c, 0, 77, 0
2, 111108, Note_on_c, 0, 80, 0
2, 111108, Note_on_c, 0, 70, 0
2, 111108, Note_on_c, 0, 72, 0
2, 111109, Note_on_c, 0, 56, 0
2, 111109, Note_on_c, 0, 37, 0
2, 111109, Note_on_c, 0, 84, 0
2, 111109, Note_on_c, 0, 75, 0
2, 111109, Note_on_c, 0, 87, 0
2, 111110, Control_c, 0, 64, 0
2, 111114, Note_on_c, 0, 25, 0
2, 111114, Note_on_c, 0, 78, 0
2, 111121, Note_on_c, 0, 48, 0
2, 111121, Note_on_c, 0, 49, 0
2, 111121, Note_on_c, 0, 53, 0
2, 111121, Note_on_c, 0, 60, 0
2, 111121, Note_on_c, 0, 68, 0
2, 111129, Note_on_c, 0, 82, 0
2, 111157, Note_on_c, 0, 39, 96
2, 111157, Note_on_c, 0, 27, 95
2, 111157, Note_on_c, 0, 87, 110
2, 111158, Note_on_c, 0, 75, 112
2, 111159, Note_on_c, 0, 82, 104
2, 111162, Note_on_c, 0, 79, 102
2, 111175, Control_c, 0, 64, 127
2, 111372, Note_on_c, 0, 51, 70
2, 111376, Note_on_c, 0, 58, 78
2, 111383, Note_on_c, 0, 75, 0
2, 111383, Note_on_c, 0, 82, 0
2, 111383, Note_on_c, 0, 87, 0
2, 111386, Note_on_c, 0, 55, 78
2, 111386, Note_on_c, 0, 87, 100
2, 111387, Note_on_c, 0, 75, 98
2, 111388, Note_on_c, 0, 82, 103
2, 111510, Note_on_c, 0, 85, 106
2, 111512, Note_on_c, 0, 73, 103
2, 111598, Note_on_c, 0, 51, 0
2, 111609, Note_on_c, 0, 51, 70
2, 111744, Note_on_c, 0, 51, 0
2, 111748, Note_on_c, 0, 84, 106
2, 111749, Note_on_c, 0, 72, 99
2, 111751, Note_on_c, 0, 51, 80
2, 111843, Note_on_c, 0, 51, 0
2, 111843, Note_on_c, 0, 55, 0
2, 111843, Note_on_c, 0, 58, 0
2, 111846, Note_on_c, 0, 63, 89
2, 111848, Note_on_c, 0, 58, 81
2, 111849, Note_on_c, 0, 55, 76
2, 111849, Note_on_c, 0, 51, 82
2, 111982, Note_on_c, 0, 39, 0
2, 111982, Note_on_c, 0, 82, 0
2, 111989, Note_on_c, 0, 75, 0
2, 111989, Note_on_c, 0, 79, 0
2, 111993, Note_on_c, 0, 82, 112
2, 111993, Note_on_c, 0, 39, 79
2, 111996, Note_on_c, 0, 70, 104
2, 111999, Note_on_c, 0, 79, 95
2, 112001, Note_on_c, 0, 75, 97
2, 112074, Note_on_c, 0, 39, 0
2, 112078, Note_on_c, 0, 39, 84
2, 112312, Note_on_c, 0, 55, 0
2, 112312, Note_on_c, 0, 63, 0
2, 112320, Note_on_c, 0, 58, 0
2, 112321, Note_on_c, 0, 63, 77
2, 112322, Note_on_c, 0, 55, 79
2, 112325, Note_on_c, 0, 58, 69
2, 112458, Note_on_c, 0, 39, 0
2, 112462, Note_on_c, 0, 39, 85
2, 112464, Note_on_c, 0, 65, 71
2, 112468, Note_on_c, 0, 67, 79
2, 112473, Note_on_c, 0, 65, 0
2, 112473, Note_on_c, 0, 67, 0
2, 112573, Note_on_c, 0, 39, 0
2, 112577, Note_on_c, 0, 80, 103
2, 112577, Note_on_c, 0, 39, 84
2, 112581, Note_on_c, 0, 68, 98
2, 112704, Note_on_c, 0, 51, 0
2, 112704, Note_on_c, 0, 58, 0
2, 112704, Note_on_c, 0, 63, 0
2, 112710, Note_on_c, 0, 51, 84
2, 112713, Note_on_c, 0, 63, 72
2, 112713, Note_on_c, 0, 58, 65
2, 112714, Note_on_c, 0, 61, 60
2, 112819, Note_on_c, 0, 63, 0
2, 112819, Note_on_c, 0, 82, 0
2, 112826, Note_on_c, 0, 51, 0
2, 112826, Note_on_c, 0, 58, 0
2, 112826, Note_on_c, 0, 70, 0
2, 112826, Note_on_c, 0, 75, 0
2, 112826, Note_on_c, 0, 79, 0
2, 112827, Note_on_c, 0, 63, 91
2, 112828, Note_on_c, 0, 82, 107
2, 112830, Note_on_c, 0, 51, 89
2, 112830, Note_on_c, 0, 70, 101
2, 112831, Note_on_c, 0, 75, 96
2, 112831, Note_on_c, 0, 79, 89
2, 112834, Note_on_c, 0, 58, 82
2, 112903, Note_on_c, 0, 51, 0
2, 112911, Note_on_c, 0, 51, 88
2, 113018, Note_on_c, 0, 61, 0
2, 113020, Note_on_c, 0, 80, 0
2, 113021, Note_on_c, 0, 73, 0
2, 113021, Note_on_c, 0, 51, 0
2, 113021, Note_on_c, 0, 39, 0
2, 113021, Note_on_c, 0, 82, 0
2, 113021, Note_on_c, 0, 63, 0
2, 113021, Note_on_c, 0, 75, 0
2, 113021, Note_on_c, 0, 68, 0
2, 113021, Note_on_c, 0, 87, 0
2, 113021, Note_on_c, 0, 79, 0
2, 113021, Note_on_c, 0, 85, 0
2, 113021, Note_on_c, 0, 72, 0
2, 113021, Note_on_c, 0, 84, 0
2, 113021, Note_on_c, 0, 58, 0
2, 113021, Note_on_c, 0, 70, 0
2, 113023, Control_c, 0, 64, 0
2, 113034, Note_on_c, 0, 27, 0
2, 113034, Note_on_c, 0, 55, 0
2, 113066, Note_on_c, 0, 48, 92
2, 113067, Note_on_c, 0, 36, 90
2, 113111, Control_c, 0, 64, 127
2, 113172, Note_on_c, 0, 48, 0
2, 113183, Note_on_c, 0, 48, 80
2, 113183, Note_on_c, 0, 82, 101
2, 113184, Note_on_c, 0, 70, 87
2, 113185, Note_on_c, 0, 75, 94
2, 113272, Note_on_c, 0, 48, 0
2, 113280, Note_on_c, 0, 82, 0
2, 113282, Note_on_c, 0, 48, 87
2, 113282, Note_on_c, 0, 60, 79
2, 113282, Note_on_c, 0, 51, 85
2, 113287, Note_on_c, 0, 70, 0
2, 113289, Note_on_c, 0, 82, 100
2, 113291, Note_on_c, 0, 70, 93
2, 113402, Note_on_c, 0, 70, 0
2, 113402, Note_on_c, 0, 75, 0
2, 113402, Note_on_c, 0, 82, 0
2, 113410, Note_on_c, 0, 82, 99
2, 113411, Note_on_c, 0, 75, 95
2, 113412, Note_on_c, 0, 70, 82
2, 113518, Note_on_c, 0, 36, 0
2, 113518, Note_on_c, 0, 48, 0
2, 113518, Note_on_c, 0, 82, 0
2, 113522, Note_on_c, 0, 36, 75
2, 113524, Note_on_c, 0, 48, 77
2, 113525, Note_on_c, 0, 70, 0
2, 113525, Note_on_c, 0, 75, 0
2, 113527, Note_on_c, 0, 82, 98
2, 113529, Note_on_c, 0, 70, 92
2, 113530, Note_on_c, 0, 75, 89
2, 113648, Note_on_c, 0, 36, 0
2, 113648, Note_on_c, 0, 48, 0
2, 113652, Note_on_c, 0, 48, 78
2, 113654, Note_on_c, 0, 36, 66
2, 113740, Note_on_c, 0, 60, 0
2, 113746, Note_on_c, 0, 60, 92
2, 113756, Note_on_c, 0, 48, 0
2, 113756, Note_on_c, 0, 51, 0
2, 113764, Note_on_c, 0, 51, 74
2, 113766, Note_on_c, 0, 48, 82
2, 113775, Note_on_c, 0, 80, 100
2, 113775, Note_on_c, 0, 68, 94
2, 113882, Note_on_c, 0, 82, 0
2, 113882, Note_on_c, 0, 48, 0
2, 113883, Note_on_c, 0, 51, 0
2, 113883, Note_on_c, 0, 70, 0
2, 113884, Note_on_c, 0, 75, 0
2, 113884, Note_on_c, 0, 60, 0
2, 113885, Note_on_c, 0, 68, 0
2, 113886, Note_on_c, 0, 80, 0
2, 113886, Note_on_c, 0, 36, 0
2, 113888, Control_c, 0, 64, 0
2, 113892, Note_on_c, 0, 36, 82
2, 113955, Control_c, 0, 64, 127
2, 113999, Note_on_c, 0, 82, 106
2, 114006, Note_on_c, 0, 70, 89
2, 114013, Note_on_c, 0, 48, 80
2, 114014, Note_on_c, 0, 75, 94
2, 114109, Note_on_c, 0, 48, 0
2, 114114, Note_on_c, 0, 48, 72
2, 114201, Note_on_c, 0, 36, 0
2, 114209, Note_on_c, 0, 60, 85
2, 114211, Note_on_c, 0, 51, 72
2, 114224, Note_on_c, 0, 48, 0
2, 114228, Note_on_c, 0, 48, 71
2, 114245, Note_on_c, 0, 80, 93
2, 114245, Note_on_c, 0, 68, 81
2, 114359, Note_on_c, 0, 84, 105
2, 114362, Note_on_c, 0, 48, 0
2, 114362, Note_on_c, 0, 75, 0
2, 114362, Note_on_c, 0, 80, 0
2, 114367, Note_on_c, 0, 36, 76
2, 114367, Note_on_c, 0, 72, 92
2, 114369, Note_on_c, 0, 48, 75
2, 114369, Note_on_c, 0, 80, 76
2, 114370, Note_on_c, 0, 75, 95
2, 114447, Note_on_c, 0, 48, 0
2, 114452, Note_on_c, 0, 48, 79
2, 114570, Note_on_c, 0, 48, 0
2, 114580, Note_on_c, 0, 48, 79
2, 114677, Note_on_c, 0, 51, 0
2, 114681, Note_on_c, 0, 51, 85
2, 114778, Note_on_c, 0, 51, 0
2, 114778, Note_on_c, 0, 75, 0
2, 114779, Note_on_c, 0, 60, 0
2, 114779, Note_on_c, 0, 36, 0
2, 114779, Note_on_c, 0, 80, 0
2, 114779, Note_on_c, 0, 68, 0
2, 114779, Note_on_c, 0, 72, 0
2, 114779, Control_c, 0, 64, 0
2, 114779, Note_on_c, 0, 84, 0
2, 114780, Note_on_c, 0, 70, 0
2, 114800, Note_on_c, 0, 48, 0
2, 114800, Note_on_c, 0, 82, 0
2, 114807, Note_on_c, 0, 82, 108
2, 114815, Note_on_c, 0, 70, 98
2, 114816, Note_on_c, 0, 41, 90
2, 114817, Note_on_c, 0, 75, 100
2, 114818, Note_on_c, 0, 29, 96
2, 114854, Control_c, 0, 64, 127
2, 115037, Note_on_c, 0, 80, 90
2, 115050, Note_on_c, 0, 68, 78
2, 115051, Note_on_c, 0, 53, 77
2, 115115, Note_on_c, 0, 29, 0
2, 115161, Note_on_c, 0, 53, 0
2, 115161, Note_on_c, 0, 68, 0
2, 115161, Note_on_c, 0, 75, 0
2, 115162, Note_on_c, 0, 84, 100
2, 115165, Note_on_c, 0, 56, 79
2, 115165, Note_on_c, 0, 68, 84
2, 115166, Note_on_c, 0, 60, 78
2, 115166, Note_on_c, 0, 75, 93
2, 115166, Note_on_c, 0, 53, 73
2, 115167, Note_on_c, 0, 72, 86
2, 115185, Control_c, 0, 64, 0
2, 115190, Note_on_c, 0, 70, 0
2, 115195, Note_on_c, 0, 82, 0
2, 115195, Note_on_c, 0, 80, 0
2, 115198, Note_on_c, 0, 75, 0
2, 115200, Note_on_c, 0, 41, 0
2, 115201, Note_on_c, 0, 53, 0
2, 115203, Note_on_c, 0, 72, 0
2, 115203, Note_on_c, 0, 60, 0
2, 115204, Note_on_c, 0, 56, 0
2, 115205, Note_on_c, 0, 84, 0
2, 115215, Note_on_c, 0, 68, 0
2, 115288, Note_on_c, 0, 53, 69
2, 115401, Note_on_c, 0, 84, 103
2, 115402, Note_on_c, 0, 60, 89
2, 115403, Note_on_c, 0, 68, 96
2, 115403, Note_on_c, 0, 56, 90
2, 115403, Note_on_c, 0, 72, 100
2, 115403, Note_on_c, 0, 75, 96
2, 115407, Control_c, 0, 64, 127
2, 115628, Note_on_c, 0, 82, 98
2, 115635, Note_on_c, 0, 41, 82
2, 115641, Note_on_c, 0, 70, 79
2, 115737, Note_on_c, 0, 53, 0
2, 115737, Note_on_c, 0, 56, 0
2, 115745, Note_on_c, 0, 68, 0
2, 115748, Note_on_c, 0, 80, 94
2, 115748, Note_on_c, 0, 56, 70
2, 115748, Note_on_c, 0, 53, 77
2, 115754, Note_on_c, 0, 68, 84
2, 115776, Note_on_c, 0, 72, 0
2, 115781, Note_on_c, 0, 72, 47
2, 115868, Note_on_c, 0, 60, 0
2, 115868, Note_on_c, 0, 68, 0
2, 115868, Note_on_c, 0, 72, 0
2, 115868, Note_on_c, 0, 75, 0
2, 115868, Note_on_c, 0, 84, 0
2, 115872, Note_on_c, 0, 84, 101
2, 115875, Note_on_c, 0, 53, 0
2, 115875, Note_on_c, 0, 56, 0
2, 115876, Note_on_c, 0, 72, 94
2, 115878, Note_on_c, 0, 75, 95
2, 115878, Note_on_c, 0, 60, 87
2, 115879, Note_on_c, 0, 68, 90
2, 115879, Note_on_c, 0, 56, 80
2, 115880, Note_on_c, 0, 53, 77
2, 115919, Note_on_c, 0, 68, 0
2, 115919, Note_on_c, 0, 72, 0
2, 115920, Note_on_c, 0, 84, 0
2, 115920, Note_on_c, 0, 75, 0
2, 115921, Note_on_c, 0, 41, 0
2, 115921, Control_c, 0, 64, 0
2, 115922, Note_on_c, 0, 80, 0
2, 115922, Note_on_c, 0, 82, 0
2, 115922, Note_on_c, 0, 53, 0
2, 115923, Note_on_c, 0, 60, 0
2, 115924, Note_on_c, 0, 56, 0
2, 115924, Note_on_c, 0, 70, 0
2, 115996, Note_on_c, 0, 53, 70
2, 116106, Control_c, 0, 64, 127
2, 116109, Note_on_c, 0, 56, 90
2, 116113, Note_on_c, 0, 60, 85
2, 116114, Note_on_c, 0, 68, 94
2, 116115, Note_on_c, 0, 84, 102
2, 116117, Note_on_c, 0, 75, 101
2, 116117, Note_on_c, 0, 72, 97
2, 116121, Note_on_c, 0, 68, 0
2, 116341, Note_on_c, 0, 82, 98
2, 116345, Note_on_c, 0, 70, 88
2, 116467, Note_on_c, 0, 53, 0
2, 116469, Note_on_c, 0, 80, 101
2, 116471, Note_on_c, 0, 68, 96
2, 116478, Note_on_c, 0, 48, 83
2, 116478, Note_on_c, 0, 53, 78
2, 116569, Note_on_c, 0, 41, 73
2, 116620, Note_on_c, 0, 48, 0
2, 116631, Note_on_c, 0, 48, 68
2, 116636, Control_c, 0, 64, 0
2, 116641, Note_on_c, 0, 41, 0
2, 116641, Note_on_c, 0, 82, 0
2, 116642, Note_on_c, 0, 84, 0
2, 116642, Note_on_c, 0, 56, 0
2, 116642, Note_on_c, 0, 53, 0
2, 116643, Note_on_c, 0, 60, 0
2, 116644, Note_on_c, 0, 72, 0
2, 116644, Note_on_c, 0, 75, 0
2, 116644, Note_on_c, 0, 70, 0
2, 116666, Note_on_c, 0, 48, 0
2, 116709, Note_on_c, 0, 37, 93
2, 116710, Note_on_c, 0, 49, 92
2, 116743, Control_c, 0, 64, 127
2, 116935, Note_on_c, 0, 49, 0
2, 116945, Note_on_c, 0, 49, 55
2, 117058, Note_on_c, 0, 68, 0
2, 117058, Note_on_c, 0, 80, 0
2, 117063, Note_on_c, 0, 56, 74
2, 117064, Note_on_c, 0, 80, 88
2, 117067, Note_on_c, 0, 68, 86
2, 117199, Note_on_c, 0, 61, 69
2, 117296, Note_on_c, 0, 68, 0
2, 117296, Note_on_c, 0, 80, 0
2, 117302, Note_on_c, 0, 80, 95
2, 117307, Note_on_c, 0, 68, 93
2, 117307, Note_on_c, 0, 73, 88
2, 117309, Note_on_c, 0, 65, 76
2, 117427, Note_on_c, 0, 56, 0
2, 117433, Note_on_c, 0, 56, 72
2, 117542, Note_on_c, 0, 80, 0
2, 117550, Note_on_c, 0, 61, 0
2, 117550, Note_on_c, 0, 68, 0
2, 117553, Note_on_c, 0, 80, 91
2, 117554, Note_on_c, 0, 61, 71
2, 117555, Note_on_c, 0, 68, 83
2, 117657, Note_on_c, 0, 65, 0
2, 117657, Note_on_c, 0, 68, 0
2, 117665, Note_on_c, 0, 80, 0
2, 117669, Note_on_c, 0, 68, 87
2, 117669, Note_on_c, 0, 65, 69
2, 117670, Note_on_c, 0, 80, 83
2, 117788, Note_on_c, 0, 80, 0
2, 117795, Note_on_c, 0, 56, 0
2, 117795, Note_on_c, 0, 68, 0
2, 117795, Note_on_c, 0, 73, 0
2, 117798, Note_on_c, 0, 80, 93
2, 117799, Note_on_c, 0, 68, 87
2, 117800, Note_on_c, 0, 77, 79
2, 117800, Note_on_c, 0, 56, 80
2, 117800, Note_on_c, 0, 73, 85
2, 117918, Note_on_c, 0, 61, 0
2, 117924, Note_on_c, 0, 61, 72
2, 118033, Note_on_c, 0, 65, 0
2, 118040, Note_on_c, 0, 65, 73
2, 118164, Note_on_c, 0, 56, 0
2, 118164, Note_on_c, 0, 68, 0
2, 118164, Note_on_c, 0, 80, 0
2, 118168, Note_on_c, 0, 80, 97
2, 118171, Note_on_c, 0, 56, 80
2, 118174, Note_on_c, 0, 68, 85
2, 118295, Note_on_c, 0, 61, 0
2, 118302, Note_on_c, 0, 61, 72
2, 118394, Note_on_c, 0, 65, 0
2, 118400, Note_on_c, 0, 65, 76
2, 118532, Note_on_c, 0, 82, 98
2, 118533, Note_on_c, 0, 56, 0
2, 118542, Note_on_c, 0, 56, 80
2, 118551, Note_on_c, 0, 70, 79
2, 118617, Note_on_c, 0, 65, 0
2, 118621, Note_on_c, 0, 65, 65
2, 118763, Note_on_c, 0, 79, 103
2, 118769, Note_on_c, 0, 49, 0
2, 118770, Note_on_c, 0, 77, 0
2, 118770, Note_on_c, 0, 68, 0
2, 118770, Note_on_c, 0, 73, 0
2, 118771, Control_c, 0, 64, 0
2, 118771, Note_on_c, 0, 70, 0
2, 118771, Note_on_c, 0, 80, 0
2, 118771, Note_on_c, 0, 82, 0
2, 118771, Note_on_c, 0, 56, 0
2, 118772, Note_on_c, 0, 65, 0
2, 118772, Note_on_c, 0, 67, 88
2, 118773, Note_on_c, 0, 61, 0
2, 118778, Note_on_c, 0, 37, 0
2, 118781, Note_on_c, 0, 70, 80
2, 118782, Note_on_c, 0, 75, 80
2, 118784, Note_on_c, 0, 39, 68
2, 118863, Control_c, 0, 64, 127
2, 118921, Note_on_c, 0, 46, 45
2, 119012, Note_on_c, 0, 53, 65
2, 119123, Note_on_c, 0, 77, 99
2, 119128, Note_on_c, 0, 65, 90
2, 119142, Note_on_c, 0, 55, 77
2, 119240, Note_on_c, 0, 58, 72
2, 119359, Note_on_c, 0, 63, 77
2, 119447, Note_on_c, 0, 75, 0
2, 119451, Note_on_c, 0, 75, 97
2, 119477, Note_on_c, 0, 65, 0
2, 119489, Note_on_c, 0, 65, 76
2, 119592, Note_on_c, 0, 67, 0
2, 119598, Note_on_c, 0, 67, 83
2, 119722, Note_on_c, 0, 72, 90
2, 119831, Note_on_c, 0, 80, 93
2, 119938, Note_on_c, 0, 79, 0
2, 119943, Note_on_c, 0, 79, 96
2, 120046, Note_on_c, 0, 72, 0
2, 120050, Control_c, 0, 64, 0
2, 120052, Note_on_c, 0, 55, 0
2, 120052, Note_on_c, 0, 67, 0
2, 120054, Note_on_c, 0, 77, 0
2, 120054, Note_on_c, 0, 80, 0
2, 120054, Note_on_c, 0, 58, 0
2, 120055, Note_on_c, 0, 75, 0
2, 120055, Note_on_c, 0, 70, 0
2, 120055, Note_on_c, 0, 63, 0
2, 120055, Note_on_c, 0, 53, 0
2, 120057, Note_on_c, 0, 72, 92
2, 120061, Note_on_c, 0, 39, 0
2, 120084, Note_on_c, 0, 46, 0
2, 120084, Note_on_c, 0, 65, 0
2, 120092, Control_c, 0, 64, 127
2, 120158, Note_on_c, 0, 82, 107
2, 120163, Note_on_c, 0, 70, 86
2, 120282, Note_on_c, 0, 68, 107
2, 120407, Note_on_c, 0, 72, 0
2, 120416, Note_on_c, 0, 72, 77
2, 120514, Note_on_c, 0, 79, 0
2, 120521, Note_on_c, 0, 70, 0
2, 120521, Note_on_c, 0, 68, 0
2, 120523, Control_c, 0, 64, 0
2, 120523, Note_on_c, 0, 82, 0
2, 120537, Note_on_c, 0, 72, 0
2, 120544, Note_on_c, 0, 84, 109
2, 120548, Note_on_c, 0, 77, 104
2, 120549, Note_on_c, 0, 72, 98
2, 120549, Note_on_c, 0, 80, 94
2, 120550, Note_on_c, 0, 41, 96
2, 120556, Note_on_c, 0, 29, 95
2, 120675, Control_c, 0, 64, 127
2, 120806, Note_on_c, 0, 72, 0
2, 120810, Note_on_c, 0, 72, 80
2, 120921, Note_on_c, 0, 80, 0
2, 120933, Note_on_c, 0, 80, 81
2, 121049, Note_on_c, 0, 79, 85
2, 121159, Note_on_c, 0, 72, 0
2, 121170, Note_on_c, 0, 72, 85
2, 121282, Note_on_c, 0, 80, 0
2, 121292, Note_on_c, 0, 80, 90
2, 121397, Note_on_c, 0, 79, 0
2, 121403, Note_on_c, 0, 79, 84
2, 121512, Note_on_c, 0, 72, 0
2, 121523, Note_on_c, 0, 72, 85
2, 121643, Note_on_c, 0, 80, 0
2, 121652, Note_on_c, 0, 80, 89
2, 121674, Note_on_c, 0, 77, 0
2, 121766, Note_on_c, 0, 79, 0
2, 121770, Note_on_c, 0, 79, 80
2, 121889, Note_on_c, 0, 72, 0
2, 121894, Note_on_c, 0, 72, 80
2, 122004, Note_on_c, 0, 80, 0
2, 122010, Note_on_c, 0, 80, 86
2, 122127, Note_on_c, 0, 79, 0
2, 122132, Note_on_c, 0, 79, 79
2, 122242, Note_on_c, 0, 72, 0
2, 122248, Note_on_c, 0, 72, 89
2, 122357, Note_on_c, 0, 80, 0
2, 122366, Note_on_c, 0, 80, 94
2, 122472, Note_on_c, 0, 79, 0
2, 122481, Note_on_c, 0, 79, 91
2, 122482, Note_on_c, 0, 51, 85
2, 122482, Note_on_c, 0, 39, 85
2, 122582, Note_on_c, 0, 72, 0
2, 122582, Note_on_c, 0, 80, 0
2, 122582, Note_on_c, 0, 79, 0
2, 122583, Note_on_c, 0, 84, 0
2, 122588, Note_on_c, 0, 29, 0
2, 122588, Control_c, 0, 64, 0
2, 122595, Note_on_c, 0, 41, 0
2, 122601, Note_on_c, 0, 53, 99
2, 122603, Note_on_c, 0, 51, 0
2, 122605, Note_on_c, 0, 48, 92
2, 122606, Note_on_c, 0, 41, 85
2, 122611, Note_on_c, 0, 39, 0
2, 122680, Control_c, 0, 64, 127
2, 122746, Note_on_c, 0, 72, 84
2, 122862, Note_on_c, 0, 80, 89
2, 122987, Note_on_c, 0, 79, 79
2, 123095, Note_on_c, 0, 72, 0
2, 123105, Note_on_c, 0, 72, 83
2, 123217, Note_on_c, 0, 80, 0
2, 123228, Note_on_c, 0, 80, 89
2, 123340, Note_on_c, 0, 79, 0
2, 123346, Note_on_c, 0, 79, 85
2, 123440, Note_on_c, 0, 72, 0
2, 123442, Note_on_c, 0, 39, 89
2, 123443, Note_on_c, 0, 51, 89
2, 123447, Note_on_c, 0, 72, 94
2, 123532, Note_on_c, 0, 72, 0
2, 123532, Note_on_c, 0, 53, 0
2, 123534, Note_on_c, 0, 80, 0
2, 123534, Note_on_c, 0, 79, 0
2, 123537, Note_on_c, 0, 51, 0
2, 123539, Control_c, 0, 64, 0
2, 123563, Note_on_c, 0, 41, 0
2, 123563, Note_on_c, 0, 48, 0
2, 123570, Note_on_c, 0, 53, 96
2, 123572, Note_on_c, 0, 48, 93
2, 123572, Note_on_c, 0, 41, 86
2, 123624, Control_c, 0, 64, 127
2, 123699, Note_on_c, 0, 72, 88
2, 123778, Note_on_c, 0, 39, 0
2, 123806, Note_on_c, 0, 80, 95
2, 123913, Note_on_c, 0, 79, 88
2, 124024, Note_on_c, 0, 80, 0
2, 124029, Note_on_c, 0, 80, 99
2, 124032, Note_on_c, 0, 41, 0
2, 124032, Note_on_c, 0, 72, 0
2, 124036, Note_on_c, 0, 72, 90
2, 124036, Note_on_c, 0, 41, 91
2, 124039, Note_on_c, 0, 29, 100
2, 124089, Note_on_c, 0, 48, 0
2, 124101, Note_on_c, 0, 53, 0
2, 124144, Note_on_c, 0, 69, 79
2, 124147, Note_on_c, 0, 29, 0
2, 124147, Note_on_c, 0, 41, 0
2, 124152, Note_on_c, 0, 41, 86
2, 124153, Note_on_c, 0, 29, 82
2, 124154, Note_on_c, 0, 69, 0
2, 124162, Control_c, 0, 64, 0
2, 124185, Note_on_c, 0, 79, 0
2, 124239, Note_on_c, 0, 80, 0
2, 124254, Note_on_c, 0, 29, 0
2, 124254, Note_on_c, 0, 41, 0
2, 124258, Note_on_c, 0, 41, 83
2, 124259, Note_on_c, 0, 29, 85
2, 124300, Note_on_c, 0, 72, 0
2, 124310, Note_on_c, 0, 41, 0
2, 124354, Note_on_c, 0, 29, 0
2, 124396, Note_on_c, 0, 65, 92
2, 124440, Note_on_c, 0, 65, 0
2, 124504, Note_on_c, 0, 72, 102
2, 124507, Note_on_c, 0, 41, 85
2, 124508, Note_on_c, 0, 29, 92
2, 124510, Note_on_c, 0, 68, 99
2, 124511, Note_on_c, 0, 65, 91
2, 124512, Note_on_c, 0, 60, 92
2, 124538, Control_c, 0, 64, 127
2, 124634, Note_on_c, 0, 53, 95
2, 124753, Note_on_c, 0, 41, 0
2, 124758, Note_on_c, 0, 53, 0
2, 124760, Note_on_c, 0, 60, 0
2, 124761, Note_on_c, 0, 70, 91
2, 124763, Note_on_c, 0, 68, 0
2, 124765, Note_on_c, 0, 41, 69
2, 124765, Note_on_c, 0, 72, 0
2, 124767, Control_c, 0, 64, 0
2, 124768, Note_on_c, 0, 58, 78
2, 124792, Note_on_c, 0, 65, 0
2, 124802, Note_on_c, 0, 70, 0
2, 124815, Note_on_c, 0, 29, 0
2, 124823, Note_on_c, 0, 41, 0
2, 124830, Note_on_c, 0, 58, 0
2, 124875, Note_on_c, 0, 72, 99
2, 124878, Note_on_c, 0, 51, 85
2, 124879, Note_on_c, 0, 39, 85
2, 124879, Note_on_c, 0, 60, 95
2, 124915, Control_c, 0, 64, 127
2, 124915, Note_on_c, 0, 51, 0
2, 124923, Note_on_c, 0, 39, 0
2, 125011, Note_on_c, 0, 53, 89
2, 125011, Note_on_c, 0, 41, 84
2, 125015, Note_on_c, 0, 60, 0
2, 125044, Note_on_c, 0, 53, 0
2, 125045, Note_on_c, 0, 41, 0
2, 125049, Control_c, 0, 64, 0
2, 125061, Note_on_c, 0, 72, 0
2, 125105, Note_on_c, 0, 70, 91
2, 125107, Note_on_c, 0, 58, 83
2, 125140, Note_on_c, 0, 58, 0
2, 125149, Note_on_c, 0, 70, 0
2, 125218, Note_on_c, 0, 60, 95
2, 125218, Note_on_c, 0, 41, 93
2, 125218, Note_on_c, 0, 72, 94
2, 125221, Note_on_c, 0, 29, 97
2, 125222, Note_on_c, 0, 68, 92
2, 125223, Note_on_c, 0, 65, 85
2, 125250, Note_on_c, 0, 60, 0
2, 125257, Note_on_c, 0, 41, 0
2, 125260, Control_c, 0, 64, 127
2, 125351, Note_on_c, 0, 41, 77
2, 125357, Note_on_c, 0, 53, 89
2, 125460, Note_on_c, 0, 68, 0
2, 125462, Note_on_c, 0, 70, 81
2, 125469, Note_on_c, 0, 68, 73
2, 125470, Note_on_c, 0, 58, 61
2, 125519, Note_on_c, 0, 72, 0
2, 125519, Note_on_c, 0, 41, 0
2, 125520, Note_on_c, 0, 68, 0
2, 125520, Note_on_c, 0, 53, 0
2, 125521, Note_on_c, 0, 65, 0
2, 125521, Note_on_c, 0, 70, 0
2, 125522, Control_c, 0, 64, 0
2, 125537, Note_on_c, 0, 29, 0
2, 125544, Note_on_c, 0, 58, 0
2, 125580, Note_on_c, 0, 72, 99
2, 125583, Note_on_c, 0, 39, 79
2, 125584, Note_on_c, 0, 60, 95
2, 125585, Note_on_c, 0, 65, 77
2, 125586, Note_on_c, 0, 51, 82
2, 125589, Note_on_c, 0, 69, 65
2, 125615, Note_on_c, 0, 60, 0
2, 125618, Note_on_c, 0, 72, 0
2, 125619, Note_on_c, 0, 39, 0
2, 125626, Note_on_c, 0, 51, 0
2, 125706, Note_on_c, 0, 53, 84
2, 125708, Note_on_c, 0, 41, 73
2, 125743, Note_on_c, 0, 69, 0
2, 125747, Note_on_c, 0, 53, 0
2, 125750, Note_on_c, 0, 41, 0
2, 125798, Note_on_c, 0, 65, 0
2, 125814, Note_on_c, 0, 70, 91
2, 125816, Note_on_c, 0, 58, 81
2, 125844, Note_on_c, 0, 58, 0
2, 125854, Note_on_c, 0, 70, 0
2, 125921, Note_on_c, 0, 72, 101
2, 125923, Note_on_c, 0, 51, 95
2, 125924, Note_on_c, 0, 60, 94
2, 125924, Note_on_c, 0, 39, 91
2, 125936, Control_c, 0, 64, 127
2, 125956, Note_on_c, 0, 60, 0
2, 125960, Note_on_c, 0, 51, 0
2, 125960, Note_on_c, 0, 72, 0
2, 125967, Control_c, 0, 64, 0
2, 126013, Note_on_c, 0, 39, 0
2, 126038, Note_on_c, 0, 75, 107
2, 126038, Note_on_c, 0, 51, 98
2, 126040, Note_on_c, 0, 39, 87
2, 126040, Note_on_c, 0, 63, 99
2, 126113, Control_c, 0, 64, 127
2, 126163, Note_on_c, 0, 53, 97
2, 126165, Note_on_c, 0, 41, 90
2, 126203, Note_on_c, 0, 75, 0
2, 126205, Note_on_c, 0, 39, 0
2, 126206, Note_on_c, 0, 53, 0
2, 126208, Note_on_c, 0, 41, 0
2, 126208, Control_c, 0, 64, 0
2, 126213, Note_on_c, 0, 51, 0
2, 126213, Note_on_c, 0, 63, 0
2, 126267, Note_on_c, 0, 63, 92
2, 126268, Note_on_c, 0, 75, 103
2, 126304, Note_on_c, 0, 63, 0
2, 126311, Note_on_c, 0, 75, 0
2, 126384, Note_on_c, 0, 75, 107
2, 126385, Note_on_c, 0, 41, 88
2, 126386, Note_on_c, 0, 63, 91
2, 126386, Note_on_c, 0, 29, 94
2, 126386, Note_on_c, 0, 70, 94
2, 126392, Note_on_c, 0, 67, 89
2, 126405, Note_on_c, 0, 36, 61
2, 126432, Note_on_c, 0, 63, 0
2, 126435, Control_c, 0, 64, 127
2, 126512, Note_on_c, 0, 41, 0
2, 126516, Note_on_c, 0, 68, 90
2, 126517, Note_on_c, 0, 41, 85
2, 126517, Note_on_c, 0, 53, 94
2, 126519, Note_on_c, 0, 63, 80
2, 126520, Note_on_c, 0, 68, 0
2, 126620, Note_on_c, 0, 63, 0
2, 126620, Note_on_c, 0, 70, 0
2, 126620, Note_on_c, 0, 75, 0
2, 126624, Note_on_c, 0, 63, 79
2, 126625, Note_on_c, 0, 75, 79
2, 126627, Note_on_c, 0, 67, 0
2, 126629, Note_on_c, 0, 70, 81
2, 126632, Note_on_c, 0, 67, 66
2, 126635, Note_on_c, 0, 53, 0
2, 126640, Note_on_c, 0, 53, 71
2, 126643, Note_on_c, 0, 36, 0
2, 126643, Note_on_c, 0, 41, 0
2, 126645, Control_c, 0, 64, 0
2, 126673, Note_on_c, 0, 63, 0
2, 126681, Note_on_c, 0, 29, 0
2, 126696, Note_on_c, 0, 67, 0
2, 126696, Note_on_c, 0, 75, 0
2, 126704, Note_on_c, 0, 70, 0
2, 126712, Note_on_c, 0, 53, 0
2, 126751, Note_on_c, 0, 61, 99
2, 126752, Note_on_c, 0, 73, 102
2, 126752, Note_on_c, 0, 39, 82
2, 126753, Note_on_c, 0, 51, 80
2, 126789, Control_c, 0, 64, 127
2, 126858, Note_on_c, 0, 51, 0
2, 126871, Note_on_c, 0, 53, 89
2, 126874, Note_on_c, 0, 41, 86
2, 126888, Note_on_c, 0, 39, 0
2, 126920, Note_on_c, 0, 41, 0
2, 126925, Note_on_c, 0, 73, 0
2, 126933, Control_c, 0, 64, 0
2, 126935, Note_on_c, 0, 61, 0
2, 126950, Note_on_c, 0, 53, 0
2, 126993, Note_on_c, 0, 60, 98
2, 126993, Note_on_c, 0, 72, 99
2, 127024, Note_on_c, 0, 60, 0
2, 127050, Control_c, 0, 64, 127
2, 127100, Note_on_c, 0, 41, 87
2, 127100, Note_on_c, 0, 29, 96
2, 127226, Note_on_c, 0, 41, 0
2, 127230, Note_on_c, 0, 70, 103
2, 127231, Note_on_c, 0, 67, 87
2, 127231, Note_on_c, 0, 63, 81
2, 127234, Note_on_c, 0, 58, 94
2, 127237, Note_on_c, 0, 41, 85
2, 127237, Note_on_c, 0, 53, 95
2, 127403, Note_on_c, 0, 41, 0
2, 127411, Note_on_c, 0, 41, 44
2, 127444, Note_on_c, 0, 29, 0
2, 127455, Control_c, 0, 64, 0
2, 127464, Note_on_c, 0, 72, 0
2, 127485, Note_on_c, 0, 39, 82
2, 127486, Note_on_c, 0, 51, 75
2, 127511, Note_on_c, 0, 41, 0
2, 127587, Note_on_c, 0, 53, 0
2, 127592, Note_on_c, 0, 41, 83
2, 127592, Note_on_c, 0, 53, 90
2, 127595, Note_on_c, 0, 39, 0
2, 127637, Note_on_c, 0, 53, 0
2, 127638, Note_on_c, 0, 41, 0
2, 127695, Note_on_c, 0, 51, 0
2, 127701, Note_on_c, 0, 51, 89
2, 127701, Note_on_c, 0, 39, 90
2, 127764, Note_on_c, 0, 51, 0
2, 127772, Note_on_c, 0, 39, 0
2, 127820, Note_on_c, 0, 53, 95
2, 127821, Note_on_c, 0, 41, 88
2, 127845, Note_on_c, 0, 53, 0
2, 127850, Note_on_c, 0, 41, 0
2, 127856, Note_on_c, 0, 58, 0
2, 127864, Note_on_c, 0, 63, 0
2, 127879, Note_on_c, 0, 67, 0
2, 127930, Note_on_c, 0, 56, 100
2, 127931, Note_on_c, 0, 44, 96
2, 127955, Note_on_c, 0, 56, 0
2, 127979, Note_on_c, 0, 44, 0
2, 128002, Note_on_c, 0, 70, 0
2, 128047, Note_on_c, 0, 58, 98
2, 128049, Note_on_c, 0, 46, 100
2, 128053, Note_on_c, 0, 41, 64
2, 128079, Control_c, 0, 64, 127
2, 128133, Note_on_c, 0, 41, 0
2, 128268, Control_c, 0, 64, 0
2, 128271, Note_on_c, 0, 46, 0
2, 128271, Note_on_c, 0, 58, 0
2, 128298, Note_on_c, 0, 70, 104
2, 128298, Note_on_c, 0, 58, 95
2, 128298, Note_on_c, 0, 29, 94
2, 128299, Note_on_c, 0, 63, 91
2, 128300, Note_on_c, 0, 41, 91
2, 128348, Control_c, 0, 64, 127
2, 128417, Note_on_c, 0, 41, 0
2, 128421, Note_on_c, 0, 53, 87
2, 128421, Note_on_c, 0, 41, 79
2, 128538, Note_on_c, 0, 68, 91
2, 128543, Note_on_c, 0, 56, 81
2, 128593, Note_on_c, 0, 58, 0
2, 128594, Note_on_c, 0, 41, 0
2, 128595, Note_on_c, 0, 56, 0
2, 128595, Note_on_c, 0, 63, 0
2, 128595, Note_on_c, 0, 68, 0
2, 128595, Note_on_c, 0, 70, 0
2, 128598, Control_c, 0, 64, 0
2, 128616, Note_on_c, 0, 29, 0
2, 128616, Note_on_c, 0, 53, 0
2, 128657, Note_on_c, 0, 27, 91
2, 128658, Note_on_c, 0, 39, 89
2, 128662, Note_on_c, 0, 51, 76
2, 128670, Note_on_c, 0, 70, 99
2, 128670, Note_on_c, 0, 51, 0
2, 128671, Note_on_c, 0, 58, 89
2, 128701, Note_on_c, 0, 27, 0
2, 128739, Note_on_c, 0, 39, 0
2, 128780, Note_on_c, 0, 53, 87
2, 128781, Note_on_c, 0, 41, 82
2, 128819, Note_on_c, 0, 53, 0
2, 128819, Note_on_c, 0, 41, 0
2, 128824, Note_on_c, 0, 58, 0
2, 128843, Note_on_c, 0, 70, 0
2, 128905, Note_on_c, 0, 68, 91
2, 128905, Note_on_c, 0, 56, 88
2, 128944, Note_on_c, 0, 56, 0
2, 128949, Note_on_c, 0, 68, 0
2, 129012, Note_on_c, 0, 29, 94
2, 129014, Note_on_c, 0, 41, 88
2, 129018, Note_on_c, 0, 70, 102
2, 129020, Note_on_c, 0, 58, 91
2, 129021, Note_on_c, 0, 63, 80
2, 129027, Note_on_c, 0, 67, 76
2, 129047, Control_c, 0, 64, 127
2, 129139, Note_on_c, 0, 41, 0
2, 129148, Note_on_c, 0, 53, 86
2, 129149, Note_on_c, 0, 41, 81
2, 129252, Note_on_c, 0, 68, 92
2, 129258, Note_on_c, 0, 56, 81
2, 129341, Note_on_c, 0, 29, 0
2, 129343, Note_on_c, 0, 67, 0
2, 129344, Note_on_c, 0, 68, 0
2, 129344, Note_on_c, 0, 56, 0
2, 129351, Control_c, 0, 64, 0
2, 129369, Note_on_c, 0, 41, 0
2, 129369, Note_on_c, 0, 53, 0
2, 129377, Note_on_c, 0, 58, 0
2, 129377, Note_on_c, 0, 63, 0
2, 129377, Note_on_c, 0, 70, 0
2, 129381, Note_on_c, 0, 70, 102
2, 129381, Note_on_c, 0, 39, 86
2, 129381, Note_on_c, 0, 51, 81
2, 129381, Note_on_c, 0, 58, 88
2, 129383, Note_on_c, 0, 63, 66
2, 129424, Note_on_c, 0, 39, 0
2, 129510, Note_on_c, 0, 41, 85
2, 129511, Note_on_c, 0, 53, 88
2, 129530, Note_on_c, 0, 51, 0
2, 129551, Note_on_c, 0, 41, 0
2, 129554, Note_on_c, 0, 53, 0
2, 129592, Note_on_c, 0, 58, 0
2, 129611, Note_on_c, 0, 68, 91
2, 129611, Note_on_c, 0, 56, 88
2, 129630, Note_on_c, 0, 63, 0
2, 129643, Note_on_c, 0, 68, 0
2, 129661, Note_on_c, 0, 56, 0
2, 129661, Note_on_c, 0, 70, 0
2, 129719, Note_on_c, 0, 51, 91
2, 129723, Note_on_c, 0, 39, 89
2, 129725, Note_on_c, 0, 70, 101
2, 129725, Note_on_c, 0, 58, 91
2, 129755, Note_on_c, 0, 58, 0
2, 129784, Note_on_c, 0, 51, 0
2, 129807, Note_on_c, 0, 70, 0
2, 129830, Note_on_c, 0, 39, 0
2, 129832, Note_on_c, 0, 51, 80
2, 129834, Note_on_c, 0, 39, 75
2, 129842, Note_on_c, 0, 72, 99
2, 129844, Note_on_c, 0, 60, 98
2, 129856, Note_on_c, 0, 70, 76
2, 129876, Note_on_c, 0, 60, 0
2, 129887, Note_on_c, 0, 51, 0
2, 129922, Note_on_c, 0, 39, 0
2, 129959, Note_on_c, 0, 41, 90
2, 129960, Note_on_c, 0, 53, 94
2, 129994, Note_on_c, 0, 53, 0
2, 130007, Note_on_c, 0, 72, 0
2, 130014, Note_on_c, 0, 70, 0
2, 130022, Note_on_c, 0, 41, 0
2, 130079, Note_on_c, 0, 72, 102
2, 130081, Note_on_c, 0, 60, 95
2, 130081, Note_on_c, 0, 68, 98
2, 130082, Note_on_c, 0, 65, 91
2, 130112, Note_on_c, 0, 60, 0
2, 130145, Control_c, 0, 64, 127
2, 130180, Note_on_c, 0, 29, 94
2, 130180, Note_on_c, 0, 41, 88
2, 130302, Note_on_c, 0, 53, 92
2, 130417, Note_on_c, 0, 63, 87
2, 130520, Note_on_c, 0, 29, 0
2, 130524, Note_on_c, 0, 53, 0
2, 130526, Note_on_c, 0, 63, 0
2, 130528, Note_on_c, 0, 72, 0
2, 130529, Note_on_c, 0, 65, 0
2, 130530, Control_c, 0, 64, 0
2, 130532, Note_on_c, 0, 39, 80
2, 130532, Note_on_c, 0, 27, 83
2, 130535, Note_on_c, 0, 70, 82
2, 130536, Note_on_c, 0, 41, 0
2, 130536, Note_on_c, 0, 68, 0
2, 130583, Note_on_c, 0, 27, 0
2, 130606, Note_on_c, 0, 39, 0
2, 130648, Note_on_c, 0, 75, 100
2, 130648, Note_on_c, 0, 53, 93
2, 130649, Note_on_c, 0, 41, 87
2, 130675, Note_on_c, 0, 70, 0
2, 130680, Note_on_c, 0, 41, 0
2, 130681, Note_on_c, 0, 75, 0
2, 130681, Note_on_c, 0, 53, 0
2, 130769, Note_on_c, 0, 82, 93
2, 130871, Note_on_c, 0, 81, 80
2, 130877, Note_on_c, 0, 87, 96
2, 130877, Note_on_c, 0, 41, 84
2, 130878, Note_on_c, 0, 29, 94
2, 130890, Control_c, 0, 64, 127
2, 130990, Note_on_c, 0, 41, 0
2, 130997, Note_on_c, 0, 29, 0
2, 130999, Note_on_c, 0, 53, 92
2, 130999, Note_on_c, 0, 41, 83
2, 131002, Note_on_c, 0, 29, 84
2, 131003, Note_on_c, 0, 92, 99
2, 131111, Note_on_c, 0, 91, 92
2, 131217, Note_on_c, 0, 39, 84
2, 131225, Note_on_c, 0, 51, 84
2, 131228, Note_on_c, 0, 87, 0
2, 131232, Note_on_c, 0, 87, 92
2, 131315, Control_c, 0, 64, 0
2, 131343, Note_on_c, 0, 41, 0
2, 131343, Note_on_c, 0, 53, 0
2, 131343, Note_on_c, 0, 82, 0
2, 131347, Note_on_c, 0, 41, 79
2, 131347, Note_on_c, 0, 53, 86
2, 131349, Note_on_c, 0, 82, 100
2, 131352, Note_on_c, 0, 48, 81
2, 131353, Note_on_c, 0, 94, 82
2, 131389, Note_on_c, 0, 53, 0
2, 131390, Note_on_c, 0, 91, 0
2, 131391, Note_on_c, 0, 41, 0
2, 131392, Note_on_c, 0, 87, 0
2, 131392, Note_on_c, 0, 92, 0
2, 131393, Note_on_c, 0, 39, 0
2, 131393, Note_on_c, 0, 82, 0
2, 131393, Note_on_c, 0, 48, 0
2, 131393, Note_on_c, 0, 94, 0
2, 131393, Note_on_c, 0, 51, 0
2, 131404, Note_on_c, 0, 29, 0
2, 131404, Note_on_c, 0, 81, 0
2, 131467, Note_on_c, 0, 80, 96
2, 131467, Note_on_c, 0, 44, 90
2, 131467, Note_on_c, 0, 56, 93
2, 131500, Note_on_c, 0, 56, 0
2, 131535, Note_on_c, 0, 44, 0
2, 131577, Note_on_c, 0, 58, 93
2, 131579, Note_on_c, 0, 79, 91
2, 131579, Note_on_c, 0, 46, 91
2, 131616, Note_on_c, 0, 46, 0
2, 131616, Note_on_c, 0, 58, 0
2, 131627, Note_on_c, 0, 80, 0
2, 131673, Note_on_c, 0, 79, 0
2, 131695, Note_on_c, 0, 75, 92
2, 131699, Note_on_c, 0, 48, 95
2, 131699, Note_on_c, 0, 60, 94
2, 131723, Note_on_c, 0, 60, 0
2, 131726, Note_on_c, 0, 48, 0
2, 131781, Note_on_c, 0, 75, 0
2, 131811, Control_c, 0, 64, 127
2, 131818, Note_on_c, 0, 70, 95
2, 131820, Note_on_c, 0, 63, 99
2, 131821, Note_on_c, 0, 51, 99
2, 131927, Note_on_c, 0, 70, 0
2, 131928, Note_on_c, 0, 65, 93
2, 131935, Note_on_c, 0, 70, 75
2, 131938, Note_on_c, 0, 58, 70
2, 131942, Note_on_c, 0, 58, 0
2, 131961, Note_on_c, 0, 51, 0
2, 131967, Note_on_c, 0, 70, 0
2, 131969, Note_on_c, 0, 63, 0
2, 131970, Note_on_c, 0, 65, 0
2, 131973, Control_c, 0, 64, 0
2, 132038, Note_on_c, 0, 72, 103
2, 132043, Note_on_c, 0, 65, 94
2, 132044, Note_on_c, 0, 68, 101
2, 132044, Note_on_c, 0, 60, 98
2, 132044, Note_on_c, 0, 41, 95
2, 132046, Note_on_c, 0, 29, 96
2, 132065, Control_c, 0, 64, 127
2, 132077, Note_on_c, 0, 41, 0
2, 132103, Note_on_c, 0, 60, 0
2, 132179, Note_on_c, 0, 53, 96
2, 132181, Note_on_c, 0, 41, 84
2, 132292, Note_on_c, 0, 70, 91
2, 132298, Note_on_c, 0, 58, 82
2, 132346, Note_on_c, 0, 41, 0
2, 132347, Note_on_c, 0, 58, 0
2, 132349, Note_on_c, 0, 68, 0
2, 132350, Note_on_c, 0, 72, 0
2, 132352, Note_on_c, 0, 70, 0
2, 132357, Note_on_c, 0, 53, 0
2, 132357, Control_c, 0, 64, 0
2, 132364, Note_on_c, 0, 29, 0
2, 132380, Note_on_c, 0, 65, 0
2, 132402, Note_on_c, 0, 72, 103
2, 132405, Note_on_c, 0, 60, 99
2, 132407, Note_on_c, 0, 48, 74
2, 132408, Note_on_c, 0, 39, 82
2, 132409, Note_on_c, 0, 51, 81
2, 132418, Note_on_c, 0, 48, 0
2, 132441, Control_c, 0, 64, 127
2, 132464, Note_on_c, 0, 60, 0
2, 132503, Note_on_c, 0, 39, 0
2, 132526, Note_on_c, 0, 41, 86
2, 132528, Note_on_c, 0, 53, 92
2, 132556, Note_on_c, 0, 51, 0
2, 132568, Note_on_c, 0, 41, 0
2, 132570, Note_on_c, 0, 53, 0
2, 132618, Note_on_c, 0, 72, 0
2, 132636, Note_on_c, 0, 70, 98
2, 132637, Note_on_c, 0, 58, 88
2, 132656, Control_c, 0, 64, 0
2, 132675, Note_on_c, 0, 70, 0
2, 132687, Note_on_c, 0, 58, 0
2, 132752, Note_on_c, 0, 60, 95
2, 132752, Note_on_c, 0, 72, 97
2, 132753, Note_on_c, 0, 41, 91
2, 132754, Note_on_c, 0, 68, 99
2, 132754, Note_on_c, 0, 29, 97
2, 132758, Note_on_c, 0, 65, 92
2, 132794, Control_c, 0, 64, 127
2, 132833, Note_on_c, 0, 41, 0
2, 132879, Note_on_c, 0, 29, 0
2, 132879, Note_on_c, 0, 65, 0
2, 132886, Note_on_c, 0, 41, 79
2, 132888, Note_on_c, 0, 65, 62
2, 132890, Note_on_c, 0, 29, 83
2, 132996, Note_on_c, 0, 70, 83
2, 132999, Note_on_c, 0, 58, 76
2, 133025, Note_on_c, 0, 60, 0
2, 133026, Note_on_c, 0, 29, 0
2, 133034, Note_on_c, 0, 41, 0
2, 133044, Control_c, 0, 64, 0
2, 133056, Note_on_c, 0, 72, 0
2, 133071, Note_on_c, 0, 65, 0
2, 133079, Note_on_c, 0, 58, 0
2, 133079, Note_on_c, 0, 68, 0
2, 133119, Note_on_c, 0, 48, 79
2, 133120, Note_on_c, 0, 72, 98
2, 133120, Note_on_c, 0, 39, 83
2, 133121, Note_on_c, 0, 60, 94
2, 133121, Note_on_c, 0, 51, 82
2, 133125, Note_on_c, 0, 48, 0
2, 133132, Note_on_c, 0, 70, 0
2, 133148, Control_c, 0, 64, 127
2, 133232, Note_on_c, 0, 41, 84
2, 133233, Note_on_c, 0, 53, 89
2, 133248, Note_on_c, 0, 39, 0
2, 133272, Control_c, 0, 64, 0
2, 133283, Note_on_c, 0, 53, 0
2, 133286, Note_on_c, 0, 60, 0
2, 133294, Note_on_c, 0, 51, 0
2, 133345, Note_on_c, 0, 70, 84
2, 133351, Note_on_c, 0, 58, 78
2, 133363, Note_on_c, 0, 72, 0
2, 133382, Note_on_c, 0, 41, 0
2, 133382, Note_on_c, 0, 70, 0
2, 133401, Note_on_c, 0, 58, 0
2, 133459, Note_on_c, 0, 65, 89
2, 133459, Note_on_c, 0, 72, 97
2, 133459, Note_on_c, 0, 60, 90
2, 133461, Note_on_c, 0, 48, 84
2, 133461, Note_on_c, 0, 41, 82
2, 133462, Note_on_c, 0, 68, 87
2, 133462, Note_on_c, 0, 51, 91
2, 133463, Note_on_c, 0, 39, 91
2, 133491, Note_on_c, 0, 51, 0
2, 133495, Note_on_c, 0, 72, 0
2, 133496, Note_on_c, 0, 68, 0
2, 133509, Note_on_c, 0, 48, 0
2, 133509, Note_on_c, 0, 60, 0
2, 133532, Note_on_c, 0, 65, 0
2, 133539, Note_on_c, 0, 39, 0
2, 133555, Note_on_c, 0, 41, 0
2, 133581, Note_on_c, 0, 51, 84
2, 133582, Note_on_c, 0, 75, 106
2, 133582, Note_on_c, 0, 39, 72
2, 133583, Note_on_c, 0, 63, 99
2, 133608, Control_c, 0, 64, 127
2, 133699, Note_on_c, 0, 53, 100
2, 133702, Note_on_c, 0, 41, 90
2, 133739, Note_on_c, 0, 39, 0
2, 133743, Note_on_c, 0, 53, 0
2, 133745, Note_on_c, 0, 41, 0
2, 133747, Note_on_c, 0, 51, 0
2, 133754, Note_on_c, 0, 63, 0
2, 133754, Note_on_c, 0, 75, 0
2, 133790, Control_c, 0, 64, 0
2, 133811, Note_on_c, 0, 75, 106
2, 133812, Note_on_c, 0, 63, 93
2, 133820, Note_on_c, 0, 70, 56
2, 133848, Note_on_c, 0, 63, 0
2, 133852, Note_on_c, 0, 75, 0
2, 133870, Note_on_c, 0, 70, 0
2, 133921, Note_on_c, 0, 69, 96
2, 133924, Note_on_c, 0, 63, 99
2, 133925, Note_on_c, 0, 75, 107
2, 133927, Note_on_c, 0, 29, 99
2, 133928, Note_on_c, 0, 41, 87
2, 133929, Note_on_c, 0, 70, 96
2, 133936, Note_on_c, 0, 67, 86
2, 133962, Control_c, 0, 64, 127
2, 134046, Note_on_c, 0, 41, 0
2, 134046, Note_on_c, 0, 69, 0
2, 134054, Note_on_c, 0, 53, 88
2, 134055, Note_on_c, 0, 41, 74
2, 134056, Note_on_c, 0, 69, 82
2, 134161, Note_on_c, 0, 63, 0
2, 134161, Note_on_c, 0, 67, 0
2, 134161, Note_on_c, 0, 70, 0
2, 134161, Note_on_c, 0, 75, 0
2, 134166, Note_on_c, 0, 75, 91
2, 134167, Note_on_c, 0, 63, 83
2, 134171, Note_on_c, 0, 70, 84
2, 134172, Note_on_c, 0, 69, 0
2, 134172, Note_on_c, 0, 41, 0
2, 134172, Note_on_c, 0, 67, 80
2, 134184, Control_c, 0, 64, 0
2, 134196, Note_on_c, 0, 63, 0
2, 134203, Note_on_c, 0, 67, 0
2, 134204, Note_on_c, 0, 75, 0
2, 134204, Note_on_c, 0, 70, 0
2, 134215, Note_on_c, 0, 29, 0
2, 134238, Note_on_c, 0, 53, 0
2, 134288, Note_on_c, 0, 73, 101
2, 134292, Note_on_c, 0, 39, 87
2, 134293, Note_on_c, 0, 61, 97
2, 134295, Note_on_c, 0, 51, 84
2, 134304, Note_on_c, 0, 70, 60
2, 134411, Note_on_c, 0, 53, 93
2, 134413, Note_on_c, 0, 41, 85
2, 134469, Note_on_c, 0, 51, 0
2, 134476, Note_on_c, 0, 39, 0
2, 134477, Note_on_c, 0, 73, 0
2, 134515, Note_on_c, 0, 70, 0
2, 134539, Note_on_c, 0, 60, 95
2, 134540, Note_on_c, 0, 72, 96
2, 134545, Note_on_c, 0, 41, 0
2, 134553, Note_on_c, 0, 61, 0
2, 134568, Note_on_c, 0, 53, 0
2, 134584, Note_on_c, 0, 60, 0
2, 134639, Note_on_c, 0, 41, 89
2, 134641, Note_on_c, 0, 29, 97
2, 134668, Control_c, 0, 64, 127
2, 134760, Note_on_c, 0, 29, 0
2, 134768, Note_on_c, 0, 41, 0
2, 134771, Note_on_c, 0, 29, 95
2, 134771, Note_on_c, 0, 70, 106
2, 134772, Note_on_c, 0, 63, 89
2, 134773, Note_on_c, 0, 41, 95
2, 134774, Note_on_c, 0, 58, 96
2, 134778, Note_on_c, 0, 67, 87
2, 134822, Control_c, 0, 64, 0
2, 134837, Note_on_c, 0, 72, 0
2, 134991, Note_on_c, 0, 29, 0
2, 135017, Note_on_c, 0, 39, 83
2, 135018, Note_on_c, 0, 51, 75
2, 135137, Note_on_c, 0, 41, 0
2, 135142, Note_on_c, 0, 53, 86
2, 135143, Note_on_c, 0, 41, 79
2, 135152, Note_on_c, 0, 39, 0
2, 135190, Note_on_c, 0, 53, 0
2, 135192, Note_on_c, 0, 63, 0
2, 135206, Control_c, 0, 64, 127
2, 135237, Note_on_c, 0, 51, 0
2, 135247, Note_on_c, 0, 39, 85
2, 135247, Note_on_c, 0, 51, 82
2, 135352, Note_on_c, 0, 41, 0
2, 135363, Note_on_c, 0, 53, 87
2, 135363, Note_on_c, 0, 41, 82
2, 135407, Note_on_c, 0, 41, 0
2, 135408, Note_on_c, 0, 53, 0
2, 135409, Note_on_c, 0, 39, 0
2, 135410, Note_on_c, 0, 51, 0
2, 135411, Control_c, 0, 64, 0
2, 135480, Note_on_c, 0, 56, 91
2, 135480, Note_on_c, 0, 44, 91
2, 135528, Note_on_c, 0, 44, 0
2, 135528, Note_on_c, 0, 56, 0
2, 135536, Note_on_c, 0, 58, 0
2, 135598, Note_on_c, 0, 58, 102
2, 135599, Note_on_c, 0, 46, 101
2, 135667, Control_c, 0, 64, 127
2, 135749, Control_c, 0, 64, 0
2, 135759, Note_on_c, 0, 58, 0
2, 135767, Note_on_c, 0, 70, 0
2, 135774, Note_on_c, 0, 46, 0
2, 135832, Note_on_c, 0, 29, 99
2, 135833, Note_on_c, 0, 41, 94
2, 135838, Note_on_c, 0, 70, 103
2, 135839, Note_on_c, 0, 58, 96
2, 135840, Note_on_c, 0, 63, 89
2, 135843, Note_on_c, 0, 67, 0
2, 135850, Note_on_c, 0, 67, 82
2, 135874, Control_c, 0, 64, 127
2, 135966, Note_on_c, 0, 41, 0
2, 135969, Note_on_c, 0, 53, 84
2, 135970, Note_on_c, 0, 41, 73
2, 135974, Note_on_c, 0, 46, 74
2, 136025, Note_on_c, 0, 46, 0
2, 136028, Note_on_c, 0, 58, 0
2, 136029, Note_on_c, 0, 63, 0
2, 136039, Control_c, 0, 64, 0
2, 136051, Note_on_c, 0, 53, 0
2, 136066, Note_on_c, 0, 67, 0
2, 136069, Note_on_c, 0, 68, 89
2, 136073, Note_on_c, 0, 56, 82
2, 136110, Note_on_c, 0, 68, 0
2, 136120, Note_on_c, 0, 29, 0
2, 136120, Note_on_c, 0, 41, 0
2, 136128, Note_on_c, 0, 70, 0
2, 136135, Note_on_c, 0, 56, 0
2, 136190, Note_on_c, 0, 27, 91
2, 136190, Note_on_c, 0, 39, 92
2, 136191, Note_on_c, 0, 70, 98
2, 136193, Note_on_c, 0, 58, 89
2, 136243, Note_on_c, 0, 27, 0
2, 136243, Control_c, 0, 64, 127
2, 136258, Note_on_c, 0, 58, 0
2, 136281, Note_on_c, 0, 39, 0
2, 136281, Note_on_c, 0, 70, 0
2, 136317, Note_on_c, 0, 53, 85
2, 136321, Note_on_c, 0, 41, 81
2, 136350, Note_on_c, 0, 53, 0
2, 136358, Control_c, 0, 64, 0
2, 136381, Note_on_c, 0, 41, 0
2, 136429, Note_on_c, 0, 68, 88
2, 136430, Note_on_c, 0, 56, 87
2, 136467, Note_on_c, 0, 56, 0
2, 136474, Note_on_c, 0, 68, 0
2, 136546, Note_on_c, 0, 29, 91
2, 136546, Note_on_c, 0, 41, 87
2, 136547, Note_on_c, 0, 70, 98
2, 136549, Note_on_c, 0, 58, 89
2, 136554, Note_on_c, 0, 63, 84
2, 136581, Control_c, 0, 64, 127
2, 136665, Note_on_c, 0, 41, 0
2, 136675, Note_on_c, 0, 41, 80
2, 136676, Note_on_c, 0, 53, 80
2, 136777, Note_on_c, 0, 68, 87
2, 136787, Note_on_c, 0, 56, 84
2, 136836, Note_on_c, 0, 58, 0
2, 136836, Note_on_c, 0, 41, 0
2, 136837, Note_on_c, 0, 56, 0
2, 136838, Note_on_c, 0, 63, 0
2, 136838, Note_on_c, 0, 70, 0
2, 136839, Note_on_c, 0, 68, 0
2, 136843, Control_c, 0, 64, 0
2, 136849, Note_on_c, 0, 29, 0
2, 136857, Note_on_c, 0, 53, 0
2, 136906, Note_on_c, 0, 70, 99
2, 136907, Note_on_c, 0, 51, 86
2, 136907, Note_on_c, 0, 39, 89
2, 136908, Note_on_c, 0, 58, 86
2, 136972, Note_on_c, 0, 58, 0
2, 137029, Note_on_c, 0, 41, 86
2, 137029, Note_on_c, 0, 53, 90
2, 137072, Note_on_c, 0, 39, 0
2, 137072, Note_on_c, 0, 51, 0
2, 137082, Note_on_c, 0, 53, 0
2, 137087, Note_on_c, 0, 41, 0
2, 137126, Note_on_c, 0, 68, 90
2, 137127, Note_on_c, 0, 56, 85
2, 137141, Note_on_c, 0, 70, 0
2, 137155, Note_on_c, 0, 56, 0
2, 137156, Note_on_c, 0, 68, 0
2, 137244, Note_on_c, 0, 39, 92
2, 137244, Note_on_c, 0, 51, 86
2, 137245, Note_on_c, 0, 70, 97
2, 137246, Note_on_c, 0, 58, 86
2, 137256, Control_c, 0, 64, 127
2, 137323, Note_on_c, 0, 70, 0
2, 137341, Note_on_c, 0, 39, 0
2, 137341, Control_c, 0, 64, 0
2, 137349, Note_on_c, 0, 51, 0
2, 137350, Note_on_c, 0, 39, 82
2, 137353, Note_on_c, 0, 51, 86
2, 137356, Note_on_c, 0, 58, 0
2, 137359, Note_on_c, 0, 72, 99
2, 137361, Note_on_c, 0, 60, 96
2, 137369, Note_on_c, 0, 70, 79
2, 137391, Note_on_c, 0, 60, 0
2, 137399, Note_on_c, 0, 51, 0
2, 137433, Control_c, 0, 64, 127
2, 137456, Note_on_c, 0, 39, 0
2, 137482, Note_on_c, 0, 69, 71
2, 137483, Note_on_c, 0, 41, 89
2, 137483, Note_on_c, 0, 53, 91
2, 137487, Note_on_c, 0, 69, 0
2, 137518, Note_on_c, 0, 72, 0
2, 137525, Control_c, 0, 64, 0
2, 137530, Note_on_c, 0, 41, 0
2, 137531, Note_on_c, 0, 53, 0
2, 137556, Note_on_c, 0, 70, 0
2, 137602, Note_on_c, 0, 72, 98
2, 137604, Note_on_c, 0, 68, 101
2, 137604, Note_on_c, 0, 60, 97
2, 137606, Note_on_c, 0, 65, 86
2, 137635, Note_on_c, 0, 60, 0
2, 137664, Note_on_c, 0, 65, 0
2, 137671, Control_c, 0, 64, 127
2, 137705, Note_on_c, 0, 41, 93
2, 137706, Note_on_c, 0, 29, 100
2, 137825, Note_on_c, 0, 29, 0
2, 137825, Note_on_c, 0, 41, 0
2, 137825, Note_on_c, 0, 68, 0
2, 137832, Note_on_c, 0, 68, 97
2, 137835, Note_on_c, 0, 41, 94
2, 137836, Note_on_c, 0, 65, 85
2, 137836, Note_on_c, 0, 29, 90
2, 137890, Note_on_c, 0, 68, 0
2, 137894, Note_on_c, 0, 72, 0
2, 137913, Control_c, 0, 64, 0
2, 137932, Note_on_c, 0, 65, 0
2, 137956, Note_on_c, 0, 63, 81
2, 137959, Note_on_c, 0, 68, 67
2, 137994, Note_on_c, 0, 29, 0
2, 137994, Note_on_c, 0, 41, 0
2, 138024, Note_on_c, 0, 68, 0
2, 138032, Note_on_c, 0, 63, 0
2, 138062, Note_on_c, 0, 48, 81
2, 138064, Note_on_c, 0, 39, 82
2, 138065, Note_on_c, 0, 68, 93
2, 138071, Note_on_c, 0, 48, 0
2, 138100, Note_on_c, 0, 39, 0
2, 138104, Note_on_c, 0, 68, 0
2, 138186, Note_on_c, 0, 70, 88
2, 138187, Note_on_c, 0, 68, 78
2, 138187, Note_on_c, 0, 41, 81
2, 138190, Note_on_c, 0, 53, 83
2, 138228, Note_on_c, 0, 41, 0
2, 138230, Note_on_c, 0, 53, 0
2, 138237, Note_on_c, 0, 68, 0
2, 138302, Note_on_c, 0, 75, 88
2, 138347, Note_on_c, 0, 70, 0
2, 138405, Note_on_c, 0, 41, 87
2, 138405, Note_on_c, 0, 29, 89
2, 138409, Note_on_c, 0, 79, 97
2, 138424, Control_c, 0, 64, 127
2, 138524, Note_on_c, 0, 41, 0
2, 138530, Note_on_c, 0, 80, 98
2, 138531, Note_on_c, 0, 29, 0
2, 138535, Note_on_c, 0, 41, 86
2, 138535, Note_on_c, 0, 53, 93
2, 138536, Note_on_c, 0, 29, 81
2, 138631, Note_on_c, 0, 79, 0
2, 138638, Note_on_c, 0, 79, 85
2, 138754, Note_on_c, 0, 75, 0
2, 138758, Note_on_c, 0, 39, 87
2, 138759, Note_on_c, 0, 51, 83
2, 138760, Note_on_c, 0, 75, 88
2, 138869, Note_on_c, 0, 41, 0
2, 138869, Note_on_c, 0, 53, 0
2, 138875, Note_on_c, 0, 53, 94
2, 138875, Note_on_c, 0, 69, 81
2, 138876, Note_on_c, 0, 41, 89
2, 138881, Note_on_c, 0, 70, 81
2, 138912, Note_on_c, 0, 41, 0
2, 138913, Note_on_c, 0, 75, 0
2, 138913, Note_on_c, 0, 80, 0
2, 138915, Note_on_c, 0, 53, 0
2, 138915, Note_on_c, 0, 29, 0
2, 138915, Note_on_c, 0, 39, 0
2, 138915, Control_c, 0, 64, 0
2, 138923, Note_on_c, 0, 51, 0
2, 138954, Note_on_c, 0, 79, 0
2, 138988, Note_on_c, 0, 68, 93
2, 138989, Note_on_c, 0, 44, 93
2, 138991, Note_on_c, 0, 56, 97
2, 139015, Note_on_c, 0, 70, 0
2, 139025, Note_on_c, 0, 56, 0
2, 139027, Note_on_c, 0, 44, 0
2, 139031, Note_on_c, 0, 69, 0
2, 139031, Note_on_c, 0, 68, 0
2, 139106, Note_on_c, 0, 58, 96
2, 139106, Note_on_c, 0, 46, 96
2, 139108, Note_on_c, 0, 70, 97
2, 139140, Note_on_c, 0, 58, 0
2, 139141, Note_on_c, 0, 46, 0
2, 139226, Note_on_c, 0, 48, 98
2, 139226, Note_on_c, 0, 75, 90
2, 139226, Note_on_c, 0, 60, 95
2, 139256, Note_on_c, 0, 60, 0
2, 139260, Note_on_c, 0, 48, 0
2, 139322, Control_c, 0, 64, 127
2, 139337, Note_on_c, 0, 63, 95
2, 139340, Note_on_c, 0, 51, 95
2, 139341, Note_on_c, 0, 79, 94
2, 139348, Note_on_c, 0, 48, 86
2, 139464, Note_on_c, 0, 80, 89
2, 139470, Note_on_c, 0, 51, 0
2, 139470, Note_on_c, 0, 63, 0
2, 139471, Note_on_c, 0, 79, 0
2, 139472, Control_c, 0, 64, 0
2, 139473, Note_on_c, 0, 48, 0
2, 139484, Note_on_c, 0, 70, 0
2, 139484, Note_on_c, 0, 75, 0
2, 139574, Note_on_c, 0, 82, 108
2, 139574, Note_on_c, 0, 53, 99
2, 139574, Note_on_c, 0, 41, 88
2, 139575, Note_on_c, 0, 70, 101
2, 139579, Note_on_c, 0, 48, 88
2, 139599, Control_c, 0, 64, 127
2, 139683, Note_on_c, 0, 80, 0
2, 139694, Note_on_c, 0, 80, 97
2, 139695, Note_on_c, 0, 68, 91
2, 139814, Note_on_c, 0, 53, 0
2, 139814, Note_on_c, 0, 68, 0
2, 139819, Note_on_c, 0, 84, 106
2, 139824, Note_on_c, 0, 68, 91
2, 139825, Note_on_c, 0, 53, 85
2, 139825, Note_on_c, 0, 72, 92
2, 139825, Note_on_c, 0, 65, 87
2, 139826, Note_on_c, 0, 77, 88
2, 139828, Note_on_c, 0, 56, 84
2, 139839, Note_on_c, 0, 78, 71
2, 140052, Note_on_c, 0, 65, 0
2, 140052, Note_on_c, 0, 68, 0
2, 140052, Note_on_c, 0, 77, 0
2, 140052, Note_on_c, 0, 84, 0
2, 140055, Note_on_c, 0, 56, 0
2, 140056, Note_on_c, 0, 65, 83
2, 140056, Note_on_c, 0, 68, 91
2, 140060, Note_on_c, 0, 72, 0
2, 140060, Note_on_c, 0, 80, 0
2, 140061, Note_on_c, 0, 60, 70
2, 140063, Note_on_c, 0, 84, 105
2, 140063, Note_on_c, 0, 77, 93
2, 140066, Note_on_c, 0, 72, 96
2, 140071, Note_on_c, 0, 80, 88
2, 140190, Note_on_c, 0, 41, 0
2, 140194, Note_on_c, 0, 41, 77
2, 140230, Note_on_c, 0, 48, 0
2, 140230, Note_on_c, 0, 77, 0
2, 140230, Note_on_c, 0, 65, 0
2, 140230, Note_on_c, 0, 70, 0
2, 140231, Note_on_c, 0, 60, 0
2, 140231, Note_on_c, 0, 82, 0
2, 140231, Note_on_c, 0, 68, 0
2, 140231, Note_on_c, 0, 80, 0
2, 140231, Note_on_c, 0, 72, 0
2, 140231, Note_on_c, 0, 78, 0
2, 140231, Note_on_c, 0, 84, 0
2, 140233, Control_c, 0, 64, 0
2, 140252, Note_on_c, 0, 53, 0
2, 140305, Control_c, 0, 64, 127
2, 140308, Note_on_c, 0, 82, 99
2, 140311, Note_on_c, 0, 48, 77
2, 140311, Note_on_c, 0, 53, 86
2, 140313, Note_on_c, 0, 77, 70
2, 140315, Note_on_c, 0, 70, 83
2, 140419, Note_on_c, 0, 80, 99
2, 140422, Note_on_c, 0, 68, 97
2, 140444, Note_on_c, 0, 48, 0
2, 140455, Note_on_c, 0, 48, 51
2, 140544, Note_on_c, 0, 53, 0
2, 140544, Note_on_c, 0, 77, 0
2, 140544, Note_on_c, 0, 80, 0
2, 140546, Note_on_c, 0, 84, 107
2, 140547, Note_on_c, 0, 65, 94
2, 140548, Note_on_c, 0, 72, 98
2, 140548, Note_on_c, 0, 53, 79
2, 140549, Note_on_c, 0, 60, 81
2, 140550, Note_on_c, 0, 77, 88
2, 140551, Note_on_c, 0, 80, 86
2, 140554, Note_on_c, 0, 56, 81
2, 140774, Note_on_c, 0, 53, 0
2, 140774, Note_on_c, 0, 65, 0
2, 140774, Note_on_c, 0, 68, 0
2, 140774, Note_on_c, 0, 84, 0
2, 140782, Note_on_c, 0, 56, 0
2, 140782, Note_on_c, 0, 65, 83
2, 140782, Note_on_c, 0, 72, 0
2, 140782, Note_on_c, 0, 77, 0
2, 140784, Note_on_c, 0, 84, 103
2, 140785, Note_on_c, 0, 53, 82
2, 140785, Note_on_c, 0, 68, 92
2, 140786, Note_on_c, 0, 56, 82
2, 140788, Note_on_c, 0, 77, 94
2, 140789, Note_on_c, 0, 72, 94
2, 140912, Note_on_c, 0, 41, 0
2, 140912, Note_on_c, 0, 48, 0
2, 140917, Note_on_c, 0, 41, 78
2, 140917, Note_on_c, 0, 48, 81
2, 140933, Note_on_c, 0, 82, 0
2, 140933, Note_on_c, 0, 56, 0
2, 140933, Note_on_c, 0, 60, 0
2, 140934, Note_on_c, 0, 65, 0
2, 140934, Note_on_c, 0, 72, 0
2, 140934, Note_on_c, 0, 68, 0
2, 140934, Note_on_c, 0, 77, 0
2, 140934, Control_c, 0, 64, 0
2, 140935, Note_on_c, 0, 80, 0
2, 140935, Note_on_c, 0, 84, 0
2, 140951, Note_on_c, 0, 53, 0
2, 140951, Note_on_c, 0, 70, 0
2, 141012, Control_c, 0, 64, 127
2, 141020, Note_on_c, 0, 48, 0
2, 141024, Note_on_c, 0, 82, 102
2, 141026, Note_on_c, 0, 48, 84
2, 141030, Note_on_c, 0, 53, 93
2, 141031, Note_on_c, 0, 70, 90
2, 141034, Note_on_c, 0, 68, 81
2, 141037, Note_on_c, 0, 77, 64
2, 141143, Note_on_c, 0, 68, 0
2, 141148, Note_on_c, 0, 80, 101
2, 141151, Note_on_c, 0, 56, 99
2, 141152, Note_on_c, 0, 68, 96
2, 141265, Note_on_c, 0, 48, 0
2, 141270, Note_on_c, 0, 60, 86
2, 141275, Note_on_c, 0, 48, 62
2, 141345, Note_on_c, 0, 65, 79
2, 141450, Note_on_c, 0, 48, 0
2, 141450, Note_on_c, 0, 68, 0
2, 141451, Note_on_c, 0, 56, 0
2, 141451, Note_on_c, 0, 70, 0
2, 141451, Note_on_c, 0, 53, 0
2, 141451, Note_on_c, 0, 80, 0
2, 141451, Note_on_c, 0, 60, 0
2, 141451, Note_on_c, 0, 65, 0
2, 141454, Control_c, 0, 64, 0
2, 141473, Note_on_c, 0, 41, 0
2, 141473, Note_on_c, 0, 77, 0
2, 141480, Note_on_c, 0, 82, 0
2, 141485, Note_on_c, 0, 82, 104
2, 141492, Note_on_c, 0, 70, 94
2, 141496, Note_on_c, 0, 55, 94
2, 141505, Note_on_c, 0, 51, 80
2, 141507, Note_on_c, 0, 48, 66
2, 141534, Control_c, 0, 64, 127
2, 141606, Note_on_c, 0, 80, 94
2, 141608, Note_on_c, 0, 68, 84
2, 141657, Note_on_c, 0, 70, 0
2, 141662, Note_on_c, 0, 70, 31
2, 141739, Note_on_c, 0, 84, 103
2, 141740, Note_on_c, 0, 75, 95
2, 141740, Note_on_c, 0, 67, 95
2, 141742, Note_on_c, 0, 55, 0
2, 141742, Note_on_c, 0, 79, 90
2, 141742, Note_on_c, 0, 72, 97
2, 141743, Note_on_c, 0, 63, 74
2, 141746, Note_on_c, 0, 55, 75
2, 141747, Note_on_c, 0, 58, 68
2, 141864, Note_on_c, 0, 55, 0
2, 141876, Note_on_c, 0, 55, 77
2, 141964, Note_on_c, 0, 58, 0
2, 141964, Note_on_c, 0, 67, 0
2, 141971, Note_on_c, 0, 58, 75
2, 141972, Note_on_c, 0, 72, 0
2, 141972, Note_on_c, 0, 75, 0
2, 141972, Note_on_c, 0, 79, 0
2, 141972, Note_on_c, 0, 84, 0
2, 141975, Note_on_c, 0, 67, 91
2, 141977, Note_on_c, 0, 79, 88
2, 141978, Note_on_c, 0, 84, 100
2, 141980, Note_on_c, 0, 80, 0
2, 141980, Note_on_c, 0, 55, 0
2, 141981, Note_on_c, 0, 72, 94
2, 141983, Note_on_c, 0, 75, 99
2, 141985, Note_on_c, 0, 55, 64
2, 142112, Note_on_c, 0, 41, 79
2, 142120, Note_on_c, 0, 39, 68
2, 142126, Note_on_c, 0, 39, 0
2, 142143, Note_on_c, 0, 68, 0
2, 142143, Note_on_c, 0, 51, 0
2, 142144, Note_on_c, 0, 55, 0
2, 142144, Note_on_c, 0, 70, 0
2, 142144, Note_on_c, 0, 67, 0
2, 142144, Note_on_c, 0, 79, 0
2, 142144, Note_on_c, 0, 82, 0
2, 142145, Note_on_c, 0, 58, 0
2, 142145, Note_on_c, 0, 72, 0
2, 142145, Note_on_c, 0, 75, 0
2, 142145, Note_on_c, 0, 84, 0
2, 142147, Control_c, 0, 64, 0
2, 142164, Note_on_c, 0, 63, 0
2, 142172, Note_on_c, 0, 48, 0
2, 142210, Control_c, 0, 64, 127
2, 142216, Note_on_c, 0, 82, 103
2, 142218, Note_on_c, 0, 41, 0
2, 142219, Note_on_c, 0, 55, 89
2, 142222, Note_on_c, 0, 70, 89
2, 142222, Note_on_c, 0, 51, 82
2, 142329, Note_on_c, 0, 80, 98
2, 142333, Note_on_c, 0, 68, 90
2, 142348, Note_on_c, 0, 55, 0
2, 142359, Note_on_c, 0, 55, 51
2, 142450, Note_on_c, 0, 67, 97
2, 142450, Note_on_c, 0, 63, 89
2, 142451, Note_on_c, 0, 84, 102
2, 142452, Note_on_c, 0, 75, 97
2, 142452, Note_on_c, 0, 79, 86
2, 142453, Note_on_c, 0, 72, 94
2, 142464, Note_on_c, 0, 55, 0
2, 142471, Note_on_c, 0, 55, 57
2, 142479, Note_on_c, 0, 58, 57
2, 142571, Note_on_c, 0, 68, 0
2, 142571, Note_on_c, 0, 72, 0
2, 142571, Note_on_c, 0, 75, 0
2, 142571, Note_on_c, 0, 84, 0
2, 142576, Note_on_c, 0, 84, 101
2, 142579, Note_on_c, 0, 55, 0
2, 142579, Note_on_c, 0, 79, 0
2, 142581, Note_on_c, 0, 75, 96
2, 142582, Note_on_c, 0, 80, 0
2, 142582, Note_on_c, 0, 72, 98
2, 142582, Note_on_c, 0, 68, 89
2, 142583, Note_on_c, 0, 79, 87
2, 142583, Note_on_c, 0, 55, 80
2, 142663, Note_on_c, 0, 58, 0
2, 142663, Note_on_c, 0, 67, 0
2, 142663, Note_on_c, 0, 70, 0
2, 142670, Note_on_c, 0, 70, 79
2, 142674, Note_on_c, 0, 58, 87
2, 142674, Note_on_c, 0, 67, 82
2, 142792, Note_on_c, 0, 51, 0
2, 142792, Note_on_c, 0, 58, 0
2, 142792, Note_on_c, 0, 63, 0
2, 142793, Note_on_c, 0, 79, 0
2, 142793, Note_on_c, 0, 68, 0
2, 142793, Note_on_c, 0, 55, 0
2, 142794, Note_on_c, 0, 67, 0
2, 142795, Note_on_c, 0, 84, 0
2, 142795, Note_on_c, 0, 72, 0
2, 142800, Control_c, 0, 64, 0
2, 142805, Note_on_c, 0, 41, 85
2, 142809, Note_on_c, 0, 70, 0
2, 142809, Note_on_c, 0, 82, 0
2, 142812, Note_on_c, 0, 48, 78
2, 142817, Note_on_c, 0, 75, 0
2, 142819, Note_on_c, 0, 82, 99
2, 142821, Note_on_c, 0, 70, 86
2, 142826, Note_on_c, 0, 75, 77
2, 142844, Note_on_c, 0, 41, 0
2, 142848, Note_on_c, 0, 48, 0
2, 142863, Control_c, 0, 64, 127
2, 142922, Note_on_c, 0, 55, 92
2, 142928, Note_on_c, 0, 51, 85
2, 142928, Note_on_c, 0, 84, 105
2, 142936, Note_on_c, 0, 72, 98
2, 143040, Note_on_c, 0, 70, 0
2, 143047, Note_on_c, 0, 75, 0
2, 143049, Note_on_c, 0, 70, 96
2, 143050, Note_on_c, 0, 87, 108
2, 143051, Note_on_c, 0, 58, 94
2, 143054, Note_on_c, 0, 75, 102
2, 143170, Note_on_c, 0, 58, 0
2, 143176, Note_on_c, 0, 63, 87
2, 143180, Note_on_c, 0, 58, 64
2, 143247, Note_on_c, 0, 55, 0
2, 143253, Note_on_c, 0, 55, 74
2, 143258, Note_on_c, 0, 67, 90
2, 143354, Note_on_c, 0, 51, 0
2, 143355, Note_on_c, 0, 63, 0
2, 143356, Note_on_c, 0, 58, 0
2, 143356, Note_on_c, 0, 55, 0
2, 143356, Note_on_c, 0, 67, 0
2, 143356, Note_on_c, 0, 72, 0
2, 143356, Note_on_c, 0, 75, 0
2, 143356, Note_on_c, 0, 84, 0
2, 143357, Note_on_c, 0, 87, 0
2, 143361, Control_c, 0, 64, 0
2, 143385, Note_on_c, 0, 70, 0
2, 143385, Note_on_c, 0, 82, 0
2, 143389, Note_on_c, 0, 82, 103
2, 143391, Note_on_c, 0, 70, 97
2, 143397, Note_on_c, 0, 49, 90
2, 143400, Note_on_c, 0, 53, 90
2, 143404, Note_on_c, 0, 41, 84
2, 143431, Control_c, 0, 64, 127
2, 143435, Note_on_c, 0, 53, 0
2, 143503, Note_on_c, 0, 80, 97
2, 143506, Note_on_c, 0, 68, 86
2, 143548, Note_on_c, 0, 48, 44
2, 143549, Note_on_c, 0, 53, 53
2, 143554, Note_on_c, 0, 48, 0
2, 143627, Note_on_c, 0, 84, 102
2, 143631, Note_on_c, 0, 53, 0
2, 143631, Note_on_c, 0, 80, 0
2, 143633, Note_on_c, 0, 72, 90
2, 143636, Note_on_c, 0, 80, 80
2, 143636, Note_on_c, 0, 53, 74
2, 143639, Note_on_c, 0, 65, 89
2, 143643, Note_on_c, 0, 61, 84
2, 143738, Note_on_c, 0, 65, 0
2, 143738, Note_on_c, 0, 72, 0
2, 143738, Note_on_c, 0, 80, 0
2, 143738, Note_on_c, 0, 84, 0
2, 143742, Note_on_c, 0, 77, 88
2, 143742, Note_on_c, 0, 80, 84
2, 143742, Note_on_c, 0, 72, 78
2, 143744, Note_on_c, 0, 84, 94
2, 143746, Note_on_c, 0, 53, 0
2, 143750, Note_on_c, 0, 65, 74
2, 143750, Note_on_c, 0, 53, 69
2, 143854, Note_on_c, 0, 53, 0
2, 143854, Note_on_c, 0, 61, 0
2, 143854, Note_on_c, 0, 84, 0
2, 143861, Note_on_c, 0, 65, 0
2, 143861, Note_on_c, 0, 68, 0
2, 143861, Note_on_c, 0, 72, 0
2, 143861, Note_on_c, 0, 77, 0
2, 143862, Note_on_c, 0, 61, 88
2, 143864, Note_on_c, 0, 53, 81
2, 143865, Note_on_c, 0, 84, 104
2, 143866, Note_on_c, 0, 65, 87
2, 143866, Note_on_c, 0, 68, 86
2, 143870, Note_on_c, 0, 77, 93
2, 143872, Note_on_c, 0, 72, 94
2, 143984, Note_on_c, 0, 41, 0
2, 143992, Note_on_c, 0, 77, 0
2, 143992, Note_on_c, 0, 80, 0
2, 143995, Note_on_c, 0, 41, 84
2, 143998, Control_c, 0, 64, 0
2, 143998, Note_on_c, 0, 80, 66
2, 144000, Note_on_c, 0, 70, 0
2, 144001, Note_on_c, 0, 65, 0
2, 144001, Note_on_c, 0, 61, 0
2, 144001, Note_on_c, 0, 72, 0
2, 144002, Note_on_c, 0, 68, 0
2, 144002, Note_on_c, 0, 84, 0
2, 144003, Note_on_c, 0, 77, 71
2, 144023, Note_on_c, 0, 49, 0
2, 144023, Note_on_c, 0, 53, 0
2, 144023, Note_on_c, 0, 82, 0
2, 144030, Note_on_c, 0, 80, 0
2, 144061, Control_c, 0, 64, 127
2, 144103, Note_on_c, 0, 82, 102
2, 144104, Note_on_c, 0, 53, 92
2, 144107, Note_on_c, 0, 49, 88
2, 144107, Note_on_c, 0, 77, 0
2, 144110, Note_on_c, 0, 70, 94
2, 144116, Note_on_c, 0, 77, 68
2, 144227, Note_on_c, 0, 68, 89
2, 144337, Note_on_c, 0, 53, 0
2, 144345, Note_on_c, 0, 77, 0
2, 144345, Note_on_c, 0, 84, 105
2, 144347, Note_on_c, 0, 61, 93
2, 144348, Note_on_c, 0, 53, 87
2, 144348, Note_on_c, 0, 65, 96
2, 144349, Note_on_c, 0, 80, 92
2, 144350, Note_on_c, 0, 77, 91
2, 144352, Note_on_c, 0, 72, 98
2, 144360, Note_on_c, 0, 56, 72
2, 144468, Note_on_c, 0, 53, 0
2, 144472, Note_on_c, 0, 53, 88
2, 144560, Note_on_c, 0, 65, 0
2, 144560, Note_on_c, 0, 68, 0
2, 144567, Note_on_c, 0, 56, 0
2, 144568, Note_on_c, 0, 53, 0
2, 144568, Note_on_c, 0, 61, 0
2, 144568, Note_on_c, 0, 72, 0
2, 144568, Note_on_c, 0, 84, 0
2, 144569, Note_on_c, 0, 65, 86
2, 144571, Note_on_c, 0, 68, 89
2, 144572, Note_on_c, 0, 84, 101
2, 144573, Note_on_c, 0, 53, 74
2, 144575, Note_on_c, 0, 61, 79
2, 144576, Note_on_c, 0, 77, 0
2, 144576, Note_on_c, 0, 80, 0
2, 144579, Note_on_c, 0, 72, 95
2, 144579, Note_on_c, 0, 80, 88
2, 144579, Note_on_c, 0, 77, 88
2, 144698, Note_on_c, 0, 41, 0
2, 144698, Note_on_c, 0, 49, 0
2, 144698, Note_on_c, 0, 80, 0
2, 144701, Note_on_c, 0, 73, 83
2, 144703, Note_on_c, 0, 49, 86
2, 144703, Note_on_c, 0, 80, 79
2, 144706, Note_on_c, 0, 41, 79
2, 144714, Note_on_c, 0, 61, 0
2, 144714, Note_on_c, 0, 53, 0
2, 144715, Note_on_c, 0, 70, 0
2, 144715, Note_on_c, 0, 82, 0
2, 144715, Note_on_c, 0, 72, 0
2, 144716, Note_on_c, 0, 77, 0
2, 144716, Note_on_c, 0, 68, 0
2, 144716, Note_on_c, 0, 84, 0
2, 144717, Note_on_c, 0, 65, 0
2, 144718, Control_c, 0, 64, 0
2, 144737, Note_on_c, 0, 73, 0
2, 144783, Control_c, 0, 64, 127
2, 144798, Note_on_c, 0, 80, 0
2, 144806, Note_on_c, 0, 49, 0
2, 144813, Note_on_c, 0, 49, 93
2, 144814, Note_on_c, 0, 41, 0
2, 144817, Note_on_c, 0, 82, 103
2, 144817, Note_on_c, 0, 53, 94
2, 144819, Note_on_c, 0, 70, 98
2, 144821, Note_on_c, 0, 77, 71
2, 144825, Note_on_c, 0, 41, 78
2, 144829, Note_on_c, 0, 77, 0
2, 144932, Note_on_c, 0, 80, 93
2, 144936, Note_on_c, 0, 53, 0
2, 144940, Note_on_c, 0, 56, 95
2, 144940, Note_on_c, 0, 68, 89
2, 144947, Note_on_c, 0, 53, 69
2, 145060, Note_on_c, 0, 61, 92
2, 145149, Note_on_c, 0, 65, 85
2, 145249, Note_on_c, 0, 61, 0
2, 145249, Note_on_c, 0, 80, 0
2, 145249, Note_on_c, 0, 49, 0
2, 145249, Note_on_c, 0, 65, 0
2, 145249, Note_on_c, 0, 56, 0
2, 145250, Note_on_c, 0, 53, 0
2, 145253, Control_c, 0, 64, 0
2, 145259, Note_on_c, 0, 82, 0
2, 145267, Note_on_c, 0, 68, 0
2, 145267, Note_on_c, 0, 70, 0
2, 145270, Note_on_c, 0, 82, 108
2, 145274, Note_on_c, 0, 41, 0
2, 145278, Note_on_c, 0, 70, 95
2, 145285, Note_on_c, 0, 41, 80
2, 145286, Note_on_c, 0, 55, 92
2, 145288, Note_on_c, 0, 48, 76
2, 145290, Note_on_c, 0, 43, 80
2, 145291, Note_on_c, 0, 80, 76
2, 145305, Control_c, 0, 64, 127
2, 145328, Note_on_c, 0, 48, 0
2, 145382, Note_on_c, 0, 70, 0
2, 145382, Note_on_c, 0, 80, 0
2, 145388, Note_on_c, 0, 80, 94
2, 145389, Note_on_c, 0, 70, 87
2, 145510, Note_on_c, 0, 79, 97
2, 145511, Note_on_c, 0, 67, 94
2, 145512, Note_on_c, 0, 84, 99
2, 145512, Note_on_c, 0, 75, 96
2, 145512, Note_on_c, 0, 55, 0
2, 145513, Note_on_c, 0, 72, 97
2, 145515, Note_on_c, 0, 63, 94
2, 145519, Note_on_c, 0, 55, 76
2, 145526, Note_on_c, 0, 58, 71
2, 145620, Note_on_c, 0, 75, 0
2, 145620, Note_on_c, 0, 84, 0
2, 145628, Note_on_c, 0, 55, 0
2, 145628, Note_on_c, 0, 72, 0
2, 145630, Note_on_c, 0, 84, 95
2, 145631, Note_on_c, 0, 75, 89
2, 145632, Note_on_c, 0, 72, 91
2, 145632, Note_on_c, 0, 55, 83
2, 145728, Note_on_c, 0, 63, 0
2, 145728, Note_on_c, 0, 67, 0
2, 145735, Note_on_c, 0, 67, 99
2, 145735, Note_on_c, 0, 58, 0
2, 145735, Note_on_c, 0, 75, 0
2, 145735, Note_on_c, 0, 84, 0
2, 145736, Note_on_c, 0, 63, 91
2, 145739, Note_on_c, 0, 58, 86
2, 145743, Note_on_c, 0, 79, 0
2, 145747, Note_on_c, 0, 75, 95
2, 145747, Note_on_c, 0, 84, 102
2, 145747, Note_on_c, 0, 79, 86
2, 145850, Note_on_c, 0, 41, 0
2, 145862, Note_on_c, 0, 41, 92
2, 145865, Note_on_c, 0, 48, 80
2, 145866, Note_on_c, 0, 72, 0
2, 145866, Note_on_c, 0, 75, 0
2, 145868, Note_on_c, 0, 45, 79
2, 145869, Note_on_c, 0, 36, 75
2, 145873, Note_on_c, 0, 36, 0
2, 145873, Note_on_c, 0, 45, 0
2, 145875, Note_on_c, 0, 75, 81
2, 145876, Note_on_c, 0, 72, 78
2, 145919, Note_on_c, 0, 55, 0
2, 145920, Note_on_c, 0, 41, 0
2, 145920, Note_on_c, 0, 67, 0
2, 145920, Note_on_c, 0, 70, 0
2, 145920, Note_on_c, 0, 63, 0
2, 145920, Note_on_c, 0, 58, 0
2, 145921, Note_on_c, 0, 80, 0
2, 145921, Note_on_c, 0, 75, 0
2, 145921, Note_on_c, 0, 79, 0
2, 145921, Note_on_c, 0, 84, 0
2, 145921, Note_on_c, 0, 72, 0
2, 145921, Note_on_c, 0, 82, 0
2, 145923, Control_c, 0, 64, 0
2, 145943, Note_on_c, 0, 43, 0
2, 145950, Note_on_c, 0, 48, 0
2, 145978, Note_on_c, 0, 82, 102
2, 145980, Note_on_c, 0, 51, 96
2, 145980, Note_on_c, 0, 55, 90
2, 145981, Control_c, 0, 64, 127
2, 145985, Note_on_c, 0, 70, 90
2, 146099, Note_on_c, 0, 80, 101
2, 146101, Note_on_c, 0, 68, 86
2, 146211, Note_on_c, 0, 55, 0
2, 146215, Note_on_c, 0, 63, 94
2, 146215, Note_on_c, 0, 84, 105
2, 146216, Note_on_c, 0, 67, 102
2, 146216, Note_on_c, 0, 75, 99
2, 146217, Note_on_c, 0, 72, 101
2, 146217, Note_on_c, 0, 79, 98
2, 146221, Note_on_c, 0, 58, 86
2, 146222, Note_on_c, 0, 55, 84
2, 146327, Note_on_c, 0, 55, 0
2, 146332, Note_on_c, 0, 55, 74
2, 146396, Note_on_c, 0, 67, 0
2, 146403, Note_on_c, 0, 58, 0
2, 146405, Note_on_c, 0, 67, 81
2, 146411, Note_on_c, 0, 70, 0
2, 146413, Note_on_c, 0, 58, 82
2, 146416, Note_on_c, 0, 70, 81
2, 146457, Note_on_c, 0, 72, 0
2, 146457, Note_on_c, 0, 75, 0
2, 146457, Note_on_c, 0, 79, 0
2, 146457, Note_on_c, 0, 84, 0
2, 146461, Note_on_c, 0, 84, 103
2, 146461, Note_on_c, 0, 75, 101
2, 146462, Note_on_c, 0, 79, 95
2, 146463, Note_on_c, 0, 72, 98
2, 146557, Note_on_c, 0, 72, 0
2, 146557, Note_on_c, 0, 84, 0
2, 146567, Note_on_c, 0, 84, 104
2, 146568, Note_on_c, 0, 39, 86
2, 146568, Note_on_c, 0, 72, 100
2, 146572, Note_on_c, 0, 51, 0
2, 146572, Note_on_c, 0, 79, 0
2, 146573, Note_on_c, 0, 60, 91
2, 146576, Note_on_c, 0, 41, 90
2, 146576, Note_on_c, 0, 51, 80
2, 146577, Note_on_c, 0, 79, 75
2, 146608, Note_on_c, 0, 67, 0
2, 146609, Note_on_c, 0, 68, 0
2, 146609, Note_on_c, 0, 84, 0
2, 146609, Note_on_c, 0, 79, 0
2, 146609, Note_on_c, 0, 55, 0
2, 146609, Note_on_c, 0, 51, 0
2, 146610, Note_on_c, 0, 72, 0
2, 146610, Note_on_c, 0, 70, 0
2, 146610, Note_on_c, 0, 80, 0
2, 146610, Note_on_c, 0, 82, 0
2, 146610, Note_on_c, 0, 58, 0
2, 146610, Note_on_c, 0, 75, 0
2, 146611, Note_on_c, 0, 63, 0
2, 146611, Note_on_c, 0, 60, 0
2, 146614, Control_c, 0, 64, 0
2, 146618, Note_on_c, 0, 39, 0
2, 146634, Note_on_c, 0, 41, 0
2, 146680, Control_c, 0, 64, 127
2, 146691, Note_on_c, 0, 55, 98
2, 146691, Note_on_c, 0, 72, 101
2, 146692, Note_on_c, 0, 51, 95
2, 146692, Note_on_c, 0, 84, 98
2, 146692, Note_on_c, 0, 75, 102
2, 146696, Note_on_c, 0, 79, 91
2, 146803, Note_on_c, 0, 75, 0
2, 146812, Note_on_c, 0, 87, 111
2, 146814, Note_on_c, 0, 75, 76
2, 146975, Note_on_c, 0, 77, 71
2, 146976, Note_on_c, 0, 65, 81
2, 146981, Note_on_c, 0, 76, 65
2, 147031, Note_on_c, 0, 70, 74
2, 147064, Note_on_c, 0, 75, 0
2, 147070, Note_on_c, 0, 75, 86
2, 147129, Note_on_c, 0, 80, 92
2, 147164, Note_on_c, 0, 87, 0
2, 147168, Note_on_c, 0, 99, 109
2, 147168, Note_on_c, 0, 87, 105
2, 149283, Note_on_c, 0, 51, 0
2, 149284, Note_on_c, 0, 72, 0
2, 149289, Note_on_c, 0, 65, 0
2, 149289, Note_on_c, 0, 75, 0
2, 149293, Note_on_c, 0, 80, 0
2, 149294, Note_on_c, 0, 87, 0
2, 149306, Note_on_c, 0, 55, 0
2, 149306, Note_on_c, 0, 77, 0
2, 149329, Note_on_c, 0, 70, 0
2, 149329, Note_on_c, 0, 79, 0
2, 149329, Note_on_c, 0, 84, 0
2, 149329, Note_on_c, 0, 99, 0
2, 149364, Control_c, 0, 64, 0
2, 149399, Note_on_c, 0, 76, 0
2, 150749, Note_on_c, 0, 80, 63
2, 151211, Control_c, 0, 64, 127
2, 151259, Note_on_c, 0, 82, 71
2, 151624, Note_on_c, 0, 72, 58
2, 151672, Note_on_c, 0, 77, 59
2, 151687, Note_on_c, 0, 80, 0
2, 151691, Note_on_c, 0, 80, 69
2, 151736, Note_on_c, 0, 49, 66
2, 151737, Note_on_c, 0, 84, 80
2, 151892, Note_on_c, 0, 56, 61
2, 151960, Note_on_c, 0, 61, 61
2, 151964, Note_on_c, 0, 82, 0
2, 151975, Note_on_c, 0, 82, 79
2, 152094, Note_on_c, 0, 84, 0
2, 152104, Note_on_c, 0, 84, 86
2, 152105, Note_on_c, 0, 63, 57
2, 152202, Note_on_c, 0, 65, 63
2, 152325, Note_on_c, 0, 61, 0
2, 152332, Note_on_c, 0, 82, 0
2, 152336, Note_on_c, 0, 61, 58
2, 152340, Note_on_c, 0, 82, 82
2, 152446, Note_on_c, 0, 68, 70
2, 152578, Note_on_c, 0, 84, 0
2, 152582, Note_on_c, 0, 73, 71
2, 152582, Note_on_c, 0, 84, 87
2, 152816, Note_on_c, 0, 68, 0
2, 152824, Note_on_c, 0, 82, 0
2, 152827, Note_on_c, 0, 68, 72
2, 152828, Note_on_c, 0, 82, 84
2, 152931, Note_on_c, 0, 73, 0
2, 152935, Note_on_c, 0, 73, 67
2, 153054, Note_on_c, 0, 75, 75
2, 153070, Note_on_c, 0, 82, 0
2, 153077, Note_on_c, 0, 82, 74
2, 153154, Note_on_c, 0, 77, 0
2, 153159, Note_on_c, 0, 77, 62
2, 153185, Note_on_c, 0, 84, 0
2, 153194, Note_on_c, 0, 84, 90
2, 153308, Note_on_c, 0, 68, 0
2, 153315, Note_on_c, 0, 87, 88
2, 153318, Note_on_c, 0, 68, 68
2, 153326, Note_on_c, 0, 56, 0
2, 153423, Note_on_c, 0, 61, 0
2, 153429, Note_on_c, 0, 61, 81
2, 153538, Note_on_c, 0, 87, 0
2, 153548, Note_on_c, 0, 87, 92
2, 153653, Note_on_c, 0, 87, 0
2, 153665, Note_on_c, 0, 87, 90
2, 153665, Control_c, 0, 64, 0
2, 153666, Note_on_c, 0, 65, 0
2, 153666, Note_on_c, 0, 75, 0
2, 153666, Note_on_c, 0, 61, 0
2, 153666, Note_on_c, 0, 63, 0
2, 153666, Note_on_c, 0, 80, 0
2, 153666, Note_on_c, 0, 73, 0
2, 153667, Note_on_c, 0, 49, 0
2, 153667, Note_on_c, 0, 84, 0
2, 153668, Note_on_c, 0, 77, 0
2, 153676, Note_on_c, 0, 68, 0
2, 153676, Note_on_c, 0, 72, 0
2, 153676, Note_on_c, 0, 82, 0
2, 153680, Note_on_c, 0, 82, 85
2, 153680, Note_on_c, 0, 51, 68
2, 153685, Note_on_c, 0, 79, 84
2, 153745, Control_c, 0, 64, 127
2, 153796, Note_on_c, 0, 58, 71
2, 153891, Note_on_c, 0, 87, 0
2, 153895, Note_on_c, 0, 87, 87
2, 153907, Note_on_c, 0, 79, 0
2, 153914, Note_on_c, 0, 63, 57
2, 153916, Note_on_c, 0, 79, 74
2, 154010, Note_on_c, 0, 65, 66
2, 154033, Note_on_c, 0, 85, 92
2, 154124, Note_on_c, 0, 67, 64
2, 154245, Note_on_c, 0, 63, 0
2, 154253, Note_on_c, 0, 63, 59
2, 154269, Note_on_c, 0, 84, 88
2, 154380, Note_on_c, 0, 70, 65
2, 154490, Note_on_c, 0, 82, 0
2, 154497, Note_on_c, 0, 82, 90
2, 154503, Note_on_c, 0, 75, 77
2, 154737, Note_on_c, 0, 80, 80
2, 154828, Note_on_c, 0, 79, 0
2, 154840, Note_on_c, 0, 79, 81
2, 154951, Note_on_c, 0, 75, 0
2, 154962, Note_on_c, 0, 75, 78
2, 155066, Note_on_c, 0, 70, 0
2, 155071, Note_on_c, 0, 70, 80
2, 155184, Note_on_c, 0, 68, 86
2, 155297, Note_on_c, 0, 67, 0
2, 155307, Note_on_c, 0, 67, 80
2, 155397, Note_on_c, 0, 63, 0
2, 155403, Note_on_c, 0, 63, 75
2, 155504, Note_on_c, 0, 70, 0
2, 155511, Note_on_c, 0, 70, 76
2, 155522, Note_on_c, 0, 58, 0
2, 155523, Note_on_c, 0, 79, 0
2, 155523, Note_on_c, 0, 65, 0
2, 155523, Note_on_c, 0, 68, 0
2, 155523, Note_on_c, 0, 63, 0
2, 155523, Note_on_c, 0, 87, 0
2, 155523, Note_on_c, 0, 80, 0
2, 155523, Note_on_c, 0, 67, 0
2, 155523, Note_on_c, 0, 85, 0
2, 155523, Note_on_c, 0, 84, 0
2, 155523, Note_on_c, 0, 51, 0
2, 155524, Control_c, 0, 64, 0
2, 155535, Note_on_c, 0, 82, 0
2, 155543, Note_on_c, 0, 75, 0
2, 155545, Note_on_c, 0, 82, 96
2, 155546, Note_on_c, 0, 48, 60
2, 155546, Note_on_c, 0, 75, 82
2, 155589, Control_c, 0, 64, 127
2, 155678, Note_on_c, 0, 55, 78
2, 155780, Note_on_c, 0, 80, 85
2, 155791, Note_on_c, 0, 58, 74
2, 155888, Note_on_c, 0, 82, 0
2, 155892, Note_on_c, 0, 63, 71
2, 155894, Note_on_c, 0, 82, 94
2, 156012, Note_on_c, 0, 67, 76
2, 156111, Note_on_c, 0, 63, 0
2, 156122, Note_on_c, 0, 63, 68
2, 156134, Note_on_c, 0, 80, 0
2, 156145, Note_on_c, 0, 80, 86
2, 156234, Note_on_c, 0, 70, 0
2, 156243, Note_on_c, 0, 70, 74
2, 156372, Note_on_c, 0, 75, 0
2, 156372, Note_on_c, 0, 82, 0
2, 156376, Note_on_c, 0, 82, 92
2, 156382, Note_on_c, 0, 75, 79
2, 156602, Note_on_c, 0, 70, 0
2, 156602, Note_on_c, 0, 80, 0
2, 156608, Note_on_c, 0, 70, 71
2, 156610, Note_on_c, 0, 80, 88
2, 156712, Note_on_c, 0, 68, 79
2, 156817, Note_on_c, 0, 63, 0
2, 156825, Note_on_c, 0, 80, 0
2, 156828, Note_on_c, 0, 63, 80
2, 156835, Note_on_c, 0, 80, 89
2, 156956, Note_on_c, 0, 82, 0
2, 156960, Note_on_c, 0, 82, 93
2, 157025, Note_on_c, 0, 70, 0
2, 157034, Note_on_c, 0, 70, 75
2, 157091, Note_on_c, 0, 84, 93
2, 157163, Note_on_c, 0, 75, 0
2, 157172, Note_on_c, 0, 75, 83
2, 157301, Note_on_c, 0, 84, 0
2, 157308, Note_on_c, 0, 84, 102
2, 157317, Note_on_c, 0, 80, 0
2, 157321, Note_on_c, 0, 72, 81
2, 157321, Note_on_c, 0, 77, 83
2, 157327, Note_on_c, 0, 80, 81
2, 157408, Note_on_c, 0, 58, 0
2, 157408, Note_on_c, 0, 48, 0
2, 157409, Note_on_c, 0, 82, 0
2, 157409, Note_on_c, 0, 55, 0
2, 157409, Note_on_c, 0, 67, 0
2, 157410, Note_on_c, 0, 63, 0
2, 157410, Note_on_c, 0, 68, 0
2, 157411, Note_on_c, 0, 75, 0
2, 157412, Control_c, 0, 64, 0
2, 157424, Note_on_c, 0, 70, 0
2, 157446, Note_on_c, 0, 53, 79
2, 157509, Control_c, 0, 64, 127
2, 157578, Note_on_c, 0, 53, 0
2, 157578, Note_on_c, 0, 60, 71
2, 157667, Note_on_c, 0, 65, 73
2, 157782, Note_on_c, 0, 70, 75
2, 157900, Note_on_c, 0, 75, 77
2, 158000, Note_on_c, 0, 65, 0
2, 158010, Note_on_c, 0, 65, 76
2, 158123, Note_on_c, 0, 77, 0
2, 158124, Note_on_c, 0, 92, 83
2, 158134, Note_on_c, 0, 77, 75
2, 158234, Note_on_c, 0, 91, 86
2, 158238, Note_on_c, 0, 72, 0
2, 158244, Note_on_c, 0, 72, 75
2, 158350, Note_on_c, 0, 87, 85
2, 158357, Note_on_c, 0, 68, 86
2, 158465, Note_on_c, 0, 82, 80
2, 158472, Note_on_c, 0, 67, 71
2, 158584, Note_on_c, 0, 65, 0
2, 158584, Note_on_c, 0, 80, 0
2, 158593, Note_on_c, 0, 65, 68
2, 158594, Note_on_c, 0, 80, 76
2, 158699, Note_on_c, 0, 60, 0
2, 158704, Note_on_c, 0, 60, 72
2, 158797, Note_on_c, 0, 56, 75
2, 158807, Note_on_c, 0, 75, 0
2, 158811, Note_on_c, 0, 75, 91
2, 158900, Note_on_c, 0, 55, 80
2, 158929, Note_on_c, 0, 70, 0
2, 158936, Note_on_c, 0, 70, 71
2, 159037, Note_on_c, 0, 55, 0
2, 159045, Note_on_c, 0, 65, 0
2, 159045, Note_on_c, 0, 55, 82
2, 159048, Note_on_c, 0, 53, 63
2, 159055, Note_on_c, 0, 65, 58
2, 159137, Note_on_c, 0, 77, 0
2, 159145, Note_on_c, 0, 77, 94
2, 159148, Note_on_c, 0, 48, 74
2, 159260, Note_on_c, 0, 77, 0
2, 159260, Note_on_c, 0, 84, 0
2, 159264, Note_on_c, 0, 84, 107
2, 159267, Note_on_c, 0, 72, 0
2, 159267, Note_on_c, 0, 80, 0
2, 159270, Note_on_c, 0, 77, 92
2, 159271, Note_on_c, 0, 65, 0
2, 159271, Note_on_c, 0, 68, 0
2, 159271, Note_on_c, 0, 82, 0
2, 159272, Note_on_c, 0, 72, 94
2, 159272, Note_on_c, 0, 70, 0
2, 159272, Control_c, 0, 64, 0
2, 159272, Note_on_c, 0, 67, 0
2, 159272, Note_on_c, 0, 56, 0
2, 159272, Note_on_c, 0, 92, 0
2, 159272, Note_on_c, 0, 53, 0
2, 159272, Note_on_c, 0, 75, 0
2, 159273, Note_on_c, 0, 60, 0
2, 159273, Note_on_c, 0, 55, 0
2, 159273, Note_on_c, 0, 37, 83
2, 159275, Note_on_c, 0, 91, 0
2, 159276, Note_on_c, 0, 80, 86
2, 159276, Note_on_c, 0, 48, 0
2, 159298, Note_on_c, 0, 87, 0
2, 159352, Control_c, 0, 64, 127
2, 159417, Note_on_c, 0, 44, 67
2, 159517, Note_on_c, 0, 49, 60
2, 159517, Note_on_c, 0, 82, 91
2, 159518, Note_on_c, 0, 70, 82
2, 159611, Note_on_c, 0, 51, 82
2, 159613, Note_on_c, 0, 84, 0
2, 159621, Note_on_c, 0, 44, 0
2, 159624, Note_on_c, 0, 84, 103
2, 159626, Note_on_c, 0, 44, 71
2, 159628, Note_on_c, 0, 72, 0
2, 159637, Note_on_c, 0, 72, 93
2, 159745, Note_on_c, 0, 53, 84
2, 159859, Note_on_c, 0, 49, 0
2, 159859, Note_on_c, 0, 82, 0
2, 159863, Note_on_c, 0, 49, 62
2, 159866, Note_on_c, 0, 70, 0
2, 159870, Note_on_c, 0, 82, 96
2, 159874, Note_on_c, 0, 70, 84
2, 159969, Note_on_c, 0, 56, 81
2, 160101, Note_on_c, 0, 61, 89
2, 160104, Note_on_c, 0, 72, 0
2, 160104, Note_on_c, 0, 84, 0
2, 160108, Note_on_c, 0, 84, 101
2, 160112, Note_on_c, 0, 72, 96
2, 160343, Note_on_c, 0, 82, 0
2, 160350, Note_on_c, 0, 70, 0
2, 160352, Note_on_c, 0, 82, 98
2, 160355, Note_on_c, 0, 70, 86
2, 160465, Note_on_c, 0, 56, 0
2, 160474, Note_on_c, 0, 56, 81
2, 160565, Note_on_c, 0, 82, 0
2, 160573, Note_on_c, 0, 70, 0
2, 160576, Note_on_c, 0, 82, 97
2, 160577, Note_on_c, 0, 70, 71
2, 160688, Note_on_c, 0, 84, 0
2, 160696, Note_on_c, 0, 61, 0
2, 160696, Note_on_c, 0, 72, 0
2, 160699, Note_on_c, 0, 84, 102
2, 160701, Note_on_c, 0, 72, 83
2, 160701, Note_on_c, 0, 61, 78
2, 160809, Note_on_c, 0, 87, 106
2, 160817, Note_on_c, 0, 75, 94
2, 160939, Note_on_c, 0, 65, 90
2, 161041, Note_on_c, 0, 75, 0
2, 161041, Note_on_c, 0, 87, 0
2, 161046, Note_on_c, 0, 87, 96
2, 161048, Note_on_c, 0, 75, 94
2, 161049, Note_on_c, 0, 56, 0
2, 161054, Note_on_c, 0, 56, 53
2, 161164, Note_on_c, 0, 53, 0
2, 161164, Note_on_c, 0, 56, 0
2, 161165, Note_on_c, 0, 72, 0
2, 161165, Note_on_c, 0, 80, 0
2, 161165, Note_on_c, 0, 51, 0
2, 161166, Note_on_c, 0, 84, 0
2, 161166, Note_on_c, 0, 44, 0
2, 161166, Note_on_c, 0, 61, 0
2, 161166, Note_on_c, 0, 70, 0
2, 161167, Note_on_c, 0, 65, 0
2, 161167, Control_c, 0, 64, 0
2, 161172, Note_on_c, 0, 37, 0
2, 161172, Note_on_c, 0, 49, 0
2, 161172, Note_on_c, 0, 77, 0
2, 161172, Note_on_c, 0, 87, 0
2, 161180, Note_on_c, 0, 75, 0
2, 161180, Note_on_c, 0, 82, 0
2, 161183, Note_on_c, 0, 87, 103
2, 161184, Note_on_c, 0, 79, 94
2, 161185, Note_on_c, 0, 82, 98
2, 161186, Note_on_c, 0, 39, 80
2, 161189, Note_on_c, 0, 75, 98
2, 161241, Control_c, 0, 64, 127
2, 161316, Note_on_c, 0, 46, 69
2, 161418, Note_on_c, 0, 82, 0
2, 161418, Note_on_c, 0, 87, 0
2, 161424, Note_on_c, 0, 87, 94
2, 161425, Note_on_c, 0, 75, 0
2, 161429, Note_on_c, 0, 51, 70
2, 161429, Note_on_c, 0, 82, 86
2, 161430, Note_on_c, 0, 75, 75
2, 161513, Note_on_c, 0, 53, 78
2, 161545, Note_on_c, 0, 73, 95
2, 161545, Note_on_c, 0, 85, 95
2, 161642, Note_on_c, 0, 55, 59
2, 161771, Note_on_c, 0, 51, 0
2, 161775, Note_on_c, 0, 51, 64
2, 161776, Note_on_c, 0, 84, 99
2, 161777, Note_on_c, 0, 72, 87
2, 161882, Note_on_c, 0, 58, 78
2, 162005, Note_on_c, 0, 63, 73
2, 162009, Note_on_c, 0, 82, 0
2, 162018, Note_on_c, 0, 82, 102
2, 162024, Note_on_c, 0, 75, 0
2, 162024, Note_on_c, 0, 79, 0
2, 162026, Note_on_c, 0, 70, 84
2, 162034, Note_on_c, 0, 79, 80
2, 162035, Note_on_c, 0, 75, 76
2, 162255, Note_on_c, 0, 58, 0
2, 162262, Note_on_c, 0, 58, 72
2, 162362, Note_on_c, 0, 63, 0
2, 162369, Note_on_c, 0, 63, 76
2, 162500, Note_on_c, 0, 65, 74
2, 162594, Note_on_c, 0, 67, 73
2, 162705, Note_on_c, 0, 68, 79
2, 162831, Note_on_c, 0, 70, 0
2, 162835, Note_on_c, 0, 70, 83
2, 162923, Note_on_c, 0, 63, 0
2, 162930, Note_on_c, 0, 63, 68
2, 163042, Control_c, 0, 64, 0
2, 163044, Note_on_c, 0, 63, 0
2, 163044, Note_on_c, 0, 39, 0
2, 163044, Note_on_c, 0, 46, 0
2, 163044, Note_on_c, 0, 51, 0
2, 163044, Note_on_c, 0, 68, 0
2, 163044, Note_on_c, 0, 67, 0
2, 163044, Note_on_c, 0, 55, 0
2, 163045, Note_on_c, 0, 87, 0
2, 163045, Note_on_c, 0, 53, 0
2, 163045, Note_on_c, 0, 65, 0
2, 163046, Note_on_c, 0, 85, 0
2, 163046, Note_on_c, 0, 82, 0
2, 163046, Note_on_c, 0, 73, 0
2, 163047, Note_on_c, 0, 84, 0
2, 163047, Note_on_c, 0, 72, 0
2, 163054, Note_on_c, 0, 70, 0
2, 163057, Note_on_c, 0, 82, 105
2, 163061, Note_on_c, 0, 58, 0
2, 163061, Note_on_c, 0, 75, 0
2, 163061, Note_on_c, 0, 79, 0
2, 163062, Note_on_c, 0, 70, 86
2, 163065, Note_on_c, 0, 75, 83
2, 163066, Note_on_c, 0, 48, 74
2, 163115, Control_c, 0, 64, 127
2, 163194, Note_on_c, 0, 55, 74
2, 163302, Note_on_c, 0, 80, 88
2, 163303, Note_on_c, 0, 58, 76
2, 163399, Note_on_c, 0, 82, 0
2, 163406, Note_on_c, 0, 63, 76
2, 163411, Note_on_c, 0, 82, 99
2, 163526, Note_on_c, 0, 67, 78
2, 163622, Note_on_c, 0, 63, 0
2, 163633, Note_on_c, 0, 63, 67
2, 163653, Note_on_c, 0, 80, 0
2, 163664, Note_on_c, 0, 80, 90
2, 163737, Note_on_c, 0, 70, 0
2, 163742, Note_on_c, 0, 70, 74
2, 163883, Note_on_c, 0, 75, 0
2, 163883, Note_on_c, 0, 82, 0
2, 163889, Note_on_c, 0, 82, 95
2, 163890, Note_on_c, 0, 75, 83
2, 164121, Note_on_c, 0, 80, 0
2, 164131, Note_on_c, 0, 80, 90
2, 164244, Note_on_c, 0, 70, 0
2, 164249, Note_on_c, 0, 70, 74
2, 164367, Note_on_c, 0, 80, 0
2, 164371, Note_on_c, 0, 80, 95
2, 164490, Note_on_c, 0, 67, 0
2, 164490, Note_on_c, 0, 82, 0
2, 164496, Note_on_c, 0, 82, 98
2, 164497, Note_on_c, 0, 67, 71
2, 164614, Note_on_c, 0, 87, 100
2, 164712, Note_on_c, 0, 63, 0
2, 164722, Note_on_c, 0, 63, 81
2, 164851, Note_on_c, 0, 87, 0
2, 164859, Note_on_c, 0, 87, 107
2, 164866, Note_on_c, 0, 75, 0
2, 164866, Note_on_c, 0, 82, 0
2, 164870, Note_on_c, 0, 75, 93
2, 164871, Note_on_c, 0, 82, 85
2, 164874, Note_on_c, 0, 80, 0
2, 164881, Note_on_c, 0, 80, 80
2, 164953, Note_on_c, 0, 48, 0
2, 164954, Control_c, 0, 64, 0
2, 164954, Note_on_c, 0, 58, 0
2, 164955, Note_on_c, 0, 55, 0
2, 164955, Note_on_c, 0, 70, 0
2, 164955, Note_on_c, 0, 63, 0
2, 164966, Note_on_c, 0, 67, 0
2, 164986, Note_on_c, 0, 53, 87
2, 165012, Control_c, 0, 64, 127
2, 165217, Note_on_c, 0, 60, 67
2, 165300, Note_on_c, 0, 65, 65
2, 165374, Note_on_c, 0, 67, 74
2, 165414, Note_on_c, 0, 68, 82
2, 165479, Note_on_c, 0, 72, 80
2, 165504, Note_on_c, 0, 75, 0
2, 165509, Note_on_c, 0, 75, 81
2, 165534, Note_on_c, 0, 80, 0
2, 165539, Note_on_c, 0, 80, 61
2, 165557, Note_on_c, 0, 82, 0
2, 165565, Note_on_c, 0, 82, 88
2, 165649, Note_on_c, 0, 87, 0
2, 165654, Note_on_c, 0, 87, 77
2, 165718, Note_on_c, 0, 92, 81
2, 165777, Note_on_c, 0, 94, 76
2, 165814, Note_on_c, 0, 99, 105
2, 165904, Control_c, 0, 64, 0
2, 165904, Note_on_c, 0, 82, 0
2, 165905, Note_on_c, 0, 72, 0
2, 165905, Note_on_c, 0, 94, 0
2, 165905, Note_on_c, 0, 53, 0
2, 165905, Note_on_c, 0, 65, 0
2, 165905, Note_on_c, 0, 92, 0
2, 165905, Note_on_c, 0, 80, 0
2, 165906, Note_on_c, 0, 60, 0
2, 165906, Note_on_c, 0, 67, 0
2, 165906, Note_on_c, 0, 75, 0
2, 165906, Note_on_c, 0, 68, 0
2, 165987, Note_on_c, 0, 99, 0
2, 166149, Note_on_c, 0, 87, 0
2, 166443, Note_on_c, 0, 77, 110
2, 166443, Note_on_c, 0, 65, 106
2, 166479, Control_c, 0, 64, 127
2, 166679, Note_on_c, 0, 65, 0
2, 166684, Note_on_c, 0, 84, 112
2, 166688, Note_on_c, 0, 72, 105
2, 166799, Note_on_c, 0, 82, 109
2, 166802, Note_on_c, 0, 70, 105
2, 166888, Control_c, 0, 64, 0
2, 166894, Note_on_c, 0, 77, 0
2, 166898, Note_on_c, 0, 82, 0
2, 166899, Note_on_c, 0, 70, 0
2, 166917, Note_on_c, 0, 72, 0
2, 166932, Note_on_c, 0, 84, 0
2, 167030, Note_on_c, 0, 82, 105
2, 167034, Note_on_c, 0, 70, 95
2, 167116, Note_on_c, 0, 70, 0
2, 167138, Note_on_c, 0, 37, 110
2, 167143, Note_on_c, 0, 25, 108
2, 167143, Note_on_c, 0, 84, 104
2, 167145, Note_on_c, 0, 72, 104
2, 167148, Note_on_c, 0, 80, 102
2, 167155, Control_c, 0, 64, 127
2, 167385, Note_on_c, 0, 82, 0
2, 167396, Note_on_c, 0, 82, 100
2, 167508, Note_on_c, 0, 72, 0
2, 167508, Note_on_c, 0, 84, 0
2, 167512, Note_on_c, 0, 84, 110
2, 167515, Note_on_c, 0, 72, 98
2, 167516, Note_on_c, 0, 25, 0
2, 167518, Note_on_c, 0, 37, 0
2, 167519, Note_on_c, 0, 82, 0
2, 167519, Note_on_c, 0, 77, 86
2, 167527, Control_c, 0, 64, 0
2, 167738, Control_c, 0, 64, 127
2, 167747, Note_on_c, 0, 82, 106
2, 167749, Note_on_c, 0, 70, 98
2, 167846, Note_on_c, 0, 72, 0
2, 167869, Note_on_c, 0, 84, 0
2, 167871, Note_on_c, 0, 37, 101
2, 167873, Note_on_c, 0, 25, 99
2, 167938, Control_c, 0, 64, 0
2, 167961, Note_on_c, 0, 80, 0
2, 167976, Note_on_c, 0, 77, 0
2, 167986, Note_on_c, 0, 77, 102
2, 167987, Note_on_c, 0, 84, 107
2, 167989, Note_on_c, 0, 72, 101
2, 167992, Note_on_c, 0, 80, 94
2, 168023, Control_c, 0, 64, 127
2, 168084, Note_on_c, 0, 70, 0
2, 168222, Note_on_c, 0, 82, 0
2, 168226, Note_on_c, 0, 82, 104
2, 168227, Note_on_c, 0, 70, 101
2, 168437, Note_on_c, 0, 37, 0
2, 168437, Note_on_c, 0, 82, 0
2, 168443, Note_on_c, 0, 82, 99
2, 168445, Note_on_c, 0, 70, 0
2, 168445, Note_on_c, 0, 77, 0
2, 168447, Note_on_c, 0, 37, 81
2, 168449, Note_on_c, 0, 70, 89
2, 168450, Note_on_c, 0, 77, 77
2, 168552, Note_on_c, 0, 84, 0
2, 168559, Note_on_c, 0, 84, 109
2, 168560, Note_on_c, 0, 72, 0
2, 168564, Note_on_c, 0, 72, 94
2, 168572, Note_on_c, 0, 44, 80
2, 168668, Note_on_c, 0, 37, 0
2, 168675, Note_on_c, 0, 49, 81
2, 168675, Note_on_c, 0, 37, 78
2, 168679, Note_on_c, 0, 87, 110
2, 168685, Note_on_c, 0, 75, 104
2, 168794, Note_on_c, 0, 56, 99
2, 168802, Note_on_c, 0, 53, 82
2, 168898, Note_on_c, 0, 75, 0
2, 168898, Note_on_c, 0, 87, 0
2, 168905, Note_on_c, 0, 87, 102
2, 168906, Note_on_c, 0, 75, 101
2, 168918, Control_c, 0, 64, 0
2, 168923, Note_on_c, 0, 53, 0
2, 168924, Note_on_c, 0, 72, 0
2, 168924, Note_on_c, 0, 37, 0
2, 168924, Note_on_c, 0, 80, 0
2, 168924, Note_on_c, 0, 56, 0
2, 168924, Note_on_c, 0, 84, 0
2, 168924, Note_on_c, 0, 70, 0
2, 168924, Note_on_c, 0, 77, 0
2, 168924, Note_on_c, 0, 44, 0
2, 168925, Note_on_c, 0, 82, 0
2, 168929, Note_on_c, 0, 25, 0
2, 168929, Note_on_c, 0, 49, 0
2, 168952, Note_on_c, 0, 75, 0
2, 168960, Note_on_c, 0, 87, 0
2, 169028, Note_on_c, 0, 79, 104
2, 169032, Note_on_c, 0, 39, 107
2, 169033, Note_on_c, 0, 27, 99
2, 169033, Note_on_c, 0, 82, 104
2, 169033, Note_on_c, 0, 87, 108
2, 169033, Note_on_c, 0, 75, 110
2, 169044, Control_c, 0, 64, 127
2, 169282, Note_on_c, 0, 75, 0
2, 169282, Note_on_c, 0, 82, 0
2, 169282, Note_on_c, 0, 87, 0
2, 169288, Note_on_c, 0, 87, 93
2, 169292, Note_on_c, 0, 75, 82
2, 169293, Note_on_c, 0, 82, 92
2, 169316, Control_c, 0, 64, 0
2, 169374, Note_on_c, 0, 27, 0
2, 169374, Note_on_c, 0, 87, 0
2, 169390, Note_on_c, 0, 75, 0
2, 169397, Note_on_c, 0, 79, 0
2, 169423, Note_on_c, 0, 85, 109
2, 169424, Note_on_c, 0, 73, 100
2, 169436, Note_on_c, 0, 39, 0
2, 169451, Note_on_c, 0, 82, 0
2, 169644, Note_on_c, 0, 84, 106
2, 169646, Note_on_c, 0, 72, 100
2, 169743, Note_on_c, 0, 73, 0
2, 169747, Note_on_c, 0, 39, 101
2, 169747, Note_on_c, 0, 27, 95
2, 169774, Control_c, 0, 64, 127
2, 169827, Note_on_c, 0, 84, 0
2, 169835, Note_on_c, 0, 85, 0
2, 169843, Note_on_c, 0, 39, 0
2, 169854, Note_on_c, 0, 39, 55
2, 169858, Note_on_c, 0, 72, 0
2, 169872, Note_on_c, 0, 82, 111
2, 169874, Note_on_c, 0, 70, 105
2, 169877, Note_on_c, 0, 79, 88
2, 169878, Note_on_c, 0, 75, 96
2, 170132, Note_on_c, 0, 92, 96
2, 170143, Note_on_c, 0, 63, 95
2, 170240, Note_on_c, 0, 91, 100
2, 170253, Note_on_c, 0, 58, 86
2, 170261, Note_on_c, 0, 86, 72
2, 170265, Note_on_c, 0, 86, 0
2, 170346, Note_on_c, 0, 55, 86
2, 170354, Note_on_c, 0, 87, 99
2, 170457, Note_on_c, 0, 82, 0
2, 170463, Note_on_c, 0, 51, 98
2, 170468, Note_on_c, 0, 82, 105
2, 170581, Note_on_c, 0, 46, 79
2, 170582, Note_on_c, 0, 34, 78
2, 170584, Note_on_c, 0, 80, 83
2, 170588, Note_on_c, 0, 34, 0
2, 170599, Note_on_c, 0, 81, 74
2, 170664, Note_on_c, 0, 27, 0
2, 170664, Note_on_c, 0, 39, 0
2, 170670, Note_on_c, 0, 39, 86
2, 170670, Note_on_c, 0, 27, 88
2, 170703, Note_on_c, 0, 79, 0
2, 170707, Note_on_c, 0, 79, 91
2, 170787, Note_on_c, 0, 75, 0
2, 170796, Note_on_c, 0, 75, 97
2, 170837, Note_on_c, 0, 27, 0
2, 170838, Note_on_c, 0, 55, 0
2, 170839, Note_on_c, 0, 81, 0
2, 170840, Note_on_c, 0, 80, 0
2, 170840, Note_on_c, 0, 87, 0
2, 170840, Note_on_c, 0, 58, 0
2, 170841, Note_on_c, 0, 75, 0
2, 170841, Note_on_c, 0, 82, 0
2, 170842, Note_on_c, 0, 63, 0
2, 170842, Note_on_c, 0, 51, 0
2, 170842, Note_on_c, 0, 79, 0
2, 170843, Note_on_c, 0, 92, 0
2, 170843, Note_on_c, 0, 70, 0
2, 170844, Note_on_c, 0, 91, 0
2, 170846, Control_c, 0, 64, 0
2, 170856, Note_on_c, 0, 46, 0
2, 170864, Note_on_c, 0, 39, 0
2, 170909, Note_on_c, 0, 82, 112
2, 170914, Note_on_c, 0, 79, 95
2, 170915, Note_on_c, 0, 75, 95
2, 170915, Note_on_c, 0, 70, 107
2, 170916, Note_on_c, 0, 36, 101
2, 170918, Control_c, 0, 64, 127
2, 170919, Note_on_c, 0, 24, 98
2, 171076, Note_on_c, 0, 79, 0
2, 171090, Control_c, 0, 64, 0
2, 171110, Note_on_c, 0, 24, 0
2, 171163, Note_on_c, 0, 80, 93
2, 171165, Note_on_c, 0, 68, 92
2, 171202, Note_on_c, 0, 82, 0
2, 171217, Note_on_c, 0, 80, 0
2, 171217, Note_on_c, 0, 70, 0
2, 171240, Note_on_c, 0, 68, 0
2, 171271, Note_on_c, 0, 75, 0
2, 171298, Note_on_c, 0, 82, 106
2, 171299, Note_on_c, 0, 70, 91
2, 171299, Note_on_c, 0, 79, 92
2, 171305, Note_on_c, 0, 75, 87
2, 171317, Note_on_c, 0, 36, 0
2, 171340, Control_c, 0, 64, 127
2, 171548, Note_on_c, 0, 80, 95
2, 171550, Note_on_c, 0, 68, 93
2, 171632, Note_on_c, 0, 36, 93
2, 171632, Note_on_c, 0, 24, 90
2, 171671, Control_c, 0, 64, 0
2, 171747, Note_on_c, 0, 36, 0
2, 171747, Note_on_c, 0, 79, 0
2, 171747, Note_on_c, 0, 82, 0
2, 171753, Note_on_c, 0, 82, 111
2, 171755, Note_on_c, 0, 70, 0
2, 171755, Note_on_c, 0, 75, 0
2, 171755, Control_c, 0, 64, 127
2, 171758, Note_on_c, 0, 79, 95
2, 171758, Note_on_c, 0, 36, 99
2, 171759, Note_on_c, 0, 70, 102
2, 171764, Note_on_c, 0, 75, 94
2, 172001, Note_on_c, 0, 68, 0
2, 172001, Note_on_c, 0, 80, 0
2, 172006, Note_on_c, 0, 80, 103
2, 172008, Note_on_c, 0, 68, 103
2, 172177, Note_on_c, 0, 36, 0
2, 172189, Note_on_c, 0, 36, 83
2, 172216, Note_on_c, 0, 68, 0
2, 172222, Note_on_c, 0, 68, 96
2, 172224, Note_on_c, 0, 80, 0
2, 172228, Note_on_c, 0, 80, 94
2, 172310, Note_on_c, 0, 43, 82
2, 172316, Note_on_c, 0, 43, 0
2, 172331, Note_on_c, 0, 82, 0
2, 172338, Note_on_c, 0, 82, 109
2, 172339, Note_on_c, 0, 70, 0
2, 172344, Note_on_c, 0, 70, 88
2, 172463, Note_on_c, 0, 84, 111
2, 172465, Note_on_c, 0, 72, 104
2, 172566, Note_on_c, 0, 55, 98
2, 172570, Note_on_c, 0, 51, 100
2, 172677, Note_on_c, 0, 84, 0
2, 172682, Note_on_c, 0, 70, 0
2, 172682, Note_on_c, 0, 82, 0
2, 172683, Note_on_c, 0, 68, 0
2, 172684, Note_on_c, 0, 79, 0
2, 172684, Note_on_c, 0, 72, 0
2, 172684, Note_on_c, 0, 80, 0
2, 172685, Note_on_c, 0, 75, 0
2, 172685, Note_on_c, 0, 51, 0
2, 172687, Note_on_c, 0, 84, 108
2, 172687, Control_c, 0, 64, 0
2, 172689, Note_on_c, 0, 77, 100
2, 172689, Note_on_c, 0, 72, 102
2, 172690, Note_on_c, 0, 80, 94
2, 172692, Note_on_c, 0, 24, 0
2, 172707, Note_on_c, 0, 36, 0
2, 172707, Note_on_c, 0, 55, 0
2, 172792, Note_on_c, 0, 72, 0
2, 172795, Note_on_c, 0, 41, 95
2, 172796, Note_on_c, 0, 29, 96
2, 172799, Note_on_c, 0, 72, 87
2, 172815, Control_c, 0, 64, 127
2, 172915, Note_on_c, 0, 72, 0
2, 172926, Note_on_c, 0, 72, 92
2, 173030, Note_on_c, 0, 80, 0
2, 173041, Note_on_c, 0, 80, 101
2, 173042, Note_on_c, 0, 68, 84
2, 173045, Note_on_c, 0, 72, 0
2, 173046, Note_on_c, 0, 53, 75
2, 173053, Note_on_c, 0, 68, 0
2, 173054, Note_on_c, 0, 72, 69
2, 173156, Note_on_c, 0, 65, 91
2, 173157, Note_on_c, 0, 60, 59
2, 173160, Note_on_c, 0, 56, 84
2, 173164, Note_on_c, 0, 79, 98
2, 173260, Note_on_c, 0, 72, 0
2, 173271, Note_on_c, 0, 72, 99
2, 173376, Note_on_c, 0, 80, 0
2, 173383, Note_on_c, 0, 53, 0
2, 173383, Note_on_c, 0, 56, 0
2, 173383, Note_on_c, 0, 60, 0
2, 173383, Note_on_c, 0, 72, 0
2, 173385, Note_on_c, 0, 80, 105
2, 173387, Note_on_c, 0, 53, 85
2, 173387, Note_on_c, 0, 60, 58
2, 173391, Note_on_c, 0, 56, 73
2, 173392, Note_on_c, 0, 72, 77
2, 173491, Note_on_c, 0, 79, 0
2, 173502, Note_on_c, 0, 79, 103
2, 173514, Note_on_c, 0, 56, 0
2, 173514, Note_on_c, 0, 60, 0
2, 173514, Note_on_c, 0, 65, 0
2, 173518, Note_on_c, 0, 65, 91
2, 173524, Note_on_c, 0, 68, 87
2, 173525, Note_on_c, 0, 60, 70
2, 173525, Note_on_c, 0, 56, 82
2, 173529, Note_on_c, 0, 68, 0
2, 173614, Note_on_c, 0, 72, 0
2, 173621, Note_on_c, 0, 72, 94
2, 173629, Note_on_c, 0, 60, 0
2, 173640, Note_on_c, 0, 60, 66
2, 173729, Note_on_c, 0, 41, 0
2, 173729, Note_on_c, 0, 53, 0
2, 173729, Note_on_c, 0, 60, 0
2, 173729, Note_on_c, 0, 80, 0
2, 173738, Note_on_c, 0, 80, 104
2, 173739, Note_on_c, 0, 53, 92
2, 173740, Note_on_c, 0, 29, 0
2, 173740, Note_on_c, 0, 41, 83
2, 173740, Note_on_c, 0, 60, 67
2, 173844, Note_on_c, 0, 56, 0
2, 173844, Note_on_c, 0, 65, 0
2, 173844, Note_on_c, 0, 79, 0
2, 173852, Note_on_c, 0, 53, 0
2, 173855, Note_on_c, 0, 56, 88
2, 173855, Note_on_c, 0, 65, 79
2, 173855, Note_on_c, 0, 79, 102
2, 173856, Note_on_c, 0, 53, 77
2, 173959, Note_on_c, 0, 72, 0
2, 173969, Note_on_c, 0, 72, 103
2, 174048, Note_on_c, 0, 41, 0
2, 174048, Note_on_c, 0, 65, 0
2, 174048, Note_on_c, 0, 79, 0
2, 174048, Note_on_c, 0, 53, 0
2, 174048, Note_on_c, 0, 56, 0
2, 174049, Note_on_c, 0, 80, 0
2, 174049, Note_on_c, 0, 60, 0
2, 174049, Note_on_c, 0, 72, 0
2, 174049, Note_on_c, 0, 77, 0
2, 174049, Note_on_c, 0, 84, 0
2, 174050, Control_c, 0, 64, 0
2, 174093, Note_on_c, 0, 53, 94
2, 174093, Note_on_c, 0, 80, 106
2, 174093, Note_on_c, 0, 41, 94
2, 174105, Control_c, 0, 64, 127
2, 174200, Note_on_c, 0, 79, 104
2, 174217, Note_on_c, 0, 44, 95
2, 174217, Note_on_c, 0, 68, 82
2, 174218, Note_on_c, 0, 56, 92
2, 174310, Note_on_c, 0, 72, 95
2, 174324, Note_on_c, 0, 46, 88
2, 174324, Note_on_c, 0, 58, 94
2, 174428, Note_on_c, 0, 56, 0
2, 174428, Note_on_c, 0, 68, 0
2, 174433, Note_on_c, 0, 60, 106
2, 174434, Note_on_c, 0, 48, 104
2, 174436, Note_on_c, 0, 68, 91
2, 174436, Note_on_c, 0, 56, 87
2, 174552, Note_on_c, 0, 77, 100
2, 174552, Note_on_c, 0, 65, 103
2, 174581, Note_on_c, 0, 48, 0
2, 174592, Note_on_c, 0, 48, 65
2, 174593, Note_on_c, 0, 56, 0
2, 174593, Note_on_c, 0, 79, 0
2, 174593, Note_on_c, 0, 80, 0
2, 174593, Note_on_c, 0, 65, 0
2, 174593, Note_on_c, 0, 44, 0
2, 174593, Note_on_c, 0, 46, 0
2, 174594, Note_on_c, 0, 58, 0
2, 174594, Note_on_c, 0, 72, 0
2, 174594, Note_on_c, 0, 60, 0
2, 174595, Note_on_c, 0, 77, 0
2, 174596, Control_c, 0, 64, 0
2, 174597, Note_on_c, 0, 53, 0
2, 174604, Note_on_c, 0, 41, 0
2, 174604, Note_on_c, 0, 68, 0
2, 174620, Note_on_c, 0, 48, 0
2, 174669, Note_on_c, 0, 84, 107
2, 174672, Note_on_c, 0, 25, 106
2, 174674, Note_on_c, 0, 80, 104
2, 174674, Note_on_c, 0, 37, 105
2, 174675, Note_on_c, 0, 72, 108
2, 174696, Control_c, 0, 64, 127
2, 174727, Note_on_c, 0, 25, 0
2, 174890, Note_on_c, 0, 60, 81
2, 174901, Note_on_c, 0, 53, 72
2, 174904, Note_on_c, 0, 56, 67
2, 174909, Note_on_c, 0, 82, 98
2, 174915, Note_on_c, 0, 70, 87
2, 175019, Note_on_c, 0, 84, 0
2, 175027, Note_on_c, 0, 72, 0
2, 175027, Note_on_c, 0, 80, 0
2, 175029, Note_on_c, 0, 84, 109
2, 175031, Note_on_c, 0, 77, 91
2, 175032, Note_on_c, 0, 80, 95
2, 175033, Note_on_c, 0, 72, 92
2, 175036, Note_on_c, 0, 48, 78
2, 175042, Note_on_c, 0, 48, 0
2, 175134, Note_on_c, 0, 37, 0
2, 175142, Note_on_c, 0, 49, 87
2, 175144, Note_on_c, 0, 37, 82
2, 175272, Note_on_c, 0, 49, 0
2, 175272, Note_on_c, 0, 70, 0
2, 175272, Note_on_c, 0, 82, 0
2, 175277, Note_on_c, 0, 82, 103
2, 175280, Note_on_c, 0, 53, 0
2, 175283, Note_on_c, 0, 70, 92
2, 175284, Note_on_c, 0, 49, 84
2, 175287, Note_on_c, 0, 53, 68
2, 175380, Note_on_c, 0, 56, 0
2, 175380, Note_on_c, 0, 60, 0
2, 175388, Note_on_c, 0, 53, 0
2, 175390, Note_on_c, 0, 60, 91
2, 175391, Note_on_c, 0, 56, 81
2, 175391, Note_on_c, 0, 48, 81
2, 175394, Note_on_c, 0, 53, 72
2, 175503, Note_on_c, 0, 60, 0
2, 175503, Note_on_c, 0, 77, 0
2, 175503, Note_on_c, 0, 84, 0
2, 175508, Note_on_c, 0, 84, 105
2, 175511, Note_on_c, 0, 72, 0
2, 175511, Note_on_c, 0, 80, 0
2, 175514, Note_on_c, 0, 60, 81
2, 175514, Note_on_c, 0, 77, 89
2, 175515, Note_on_c, 0, 72, 90
2, 175518, Note_on_c, 0, 37, 0
2, 175522, Note_on_c, 0, 80, 88
2, 175523, Note_on_c, 0, 37, 80
2, 175618, Note_on_c, 0, 37, 0
2, 175624, Note_on_c, 0, 37, 71
2, 175741, Note_on_c, 0, 49, 0
2, 175741, Note_on_c, 0, 70, 0
2, 175741, Note_on_c, 0, 82, 0
2, 175745, Note_on_c, 0, 82, 103
2, 175746, Note_on_c, 0, 49, 88
2, 175749, Note_on_c, 0, 70, 94
2, 175833, Note_on_c, 0, 60, 0
2, 175841, Note_on_c, 0, 53, 0
2, 175841, Note_on_c, 0, 56, 0
2, 175843, Note_on_c, 0, 60, 91
2, 175846, Note_on_c, 0, 56, 83
2, 175849, Note_on_c, 0, 53, 80
2, 175964, Note_on_c, 0, 70, 0
2, 175964, Note_on_c, 0, 82, 0
2, 175971, Note_on_c, 0, 37, 0
2, 175974, Note_on_c, 0, 82, 108
2, 175975, Note_on_c, 0, 70, 91
2, 175977, Note_on_c, 0, 37, 82
2, 176079, Note_on_c, 0, 37, 0
2, 176087, Note_on_c, 0, 72, 0
2, 176087, Note_on_c, 0, 77, 0
2, 176087, Note_on_c, 0, 84, 0
2, 176087, Note_on_c, 0, 37, 76
2, 176090, Note_on_c, 0, 84, 103
2, 176091, Note_on_c, 0, 77, 89
2, 176094, Note_on_c, 0, 80, 0
2, 176096, Note_on_c, 0, 72, 94
2, 176098, Note_on_c, 0, 80, 85
2, 176209, Note_on_c, 0, 37, 0
2, 176209, Note_on_c, 0, 49, 0
2, 176209, Note_on_c, 0, 82, 0
2, 176212, Note_on_c, 0, 87, 111
2, 176216, Note_on_c, 0, 75, 110
2, 176217, Note_on_c, 0, 70, 0
2, 176220, Note_on_c, 0, 82, 79
2, 176220, Note_on_c, 0, 49, 81
2, 176221, Note_on_c, 0, 37, 72
2, 176222, Note_on_c, 0, 70, 88
2, 176332, Note_on_c, 0, 48, 0
2, 176332, Note_on_c, 0, 56, 0
2, 176332, Note_on_c, 0, 60, 0
2, 176338, Note_on_c, 0, 60, 99
2, 176340, Note_on_c, 0, 53, 0
2, 176343, Note_on_c, 0, 56, 89
2, 176343, Note_on_c, 0, 48, 87
2, 176345, Note_on_c, 0, 53, 79
2, 176440, Note_on_c, 0, 75, 0
2, 176440, Note_on_c, 0, 87, 0
2, 176449, Note_on_c, 0, 87, 108
2, 176450, Note_on_c, 0, 75, 103
2, 176514, Note_on_c, 0, 53, 0
2, 176514, Note_on_c, 0, 82, 0
2, 176514, Note_on_c, 0, 56, 0
2, 176514, Note_on_c, 0, 60, 0
2, 176514, Note_on_c, 0, 72, 0
2, 176514, Note_on_c, 0, 80, 0
2, 176515, Note_on_c, 0, 75, 0
2, 176515, Note_on_c, 0, 77, 0
2, 176515, Note_on_c, 0, 84, 0
2, 176515, Note_on_c, 0, 70, 0
2, 176515, Note_on_c, 0, 87, 0
2, 176517, Control_c, 0, 64, 0
2, 176532, Note_on_c, 0, 37, 0
2, 176532, Note_on_c, 0, 48, 0
2, 176532, Note_on_c, 0, 49, 0
2, 176560, Note_on_c, 0, 87, 111
2, 176561, Note_on_c, 0, 39, 90
2, 176564, Note_on_c, 0, 82, 108
2, 176565, Note_on_c, 0, 79, 105
2, 176567, Note_on_c, 0, 75, 106
2, 176593, Control_c, 0, 64, 127
2, 176782, Note_on_c, 0, 55, 71
2, 176785, Note_on_c, 0, 87, 0
2, 176789, Note_on_c, 0, 58, 66
2, 176793, Note_on_c, 0, 75, 0
2, 176795, Note_on_c, 0, 87, 107
2, 176797, Note_on_c, 0, 75, 103
2, 176801, Note_on_c, 0, 82, 0
2, 176806, Note_on_c, 0, 82, 77
2, 176808, Note_on_c, 0, 79, 0
2, 176813, Note_on_c, 0, 79, 64
2, 176901, Note_on_c, 0, 39, 0
2, 176901, Note_on_c, 0, 75, 0
2, 176901, Note_on_c, 0, 79, 0
2, 176901, Note_on_c, 0, 87, 0
2, 176910, Note_on_c, 0, 87, 105
2, 176910, Note_on_c, 0, 75, 100
2, 176912, Note_on_c, 0, 39, 76
2, 176912, Note_on_c, 0, 79, 81
2, 177016, Note_on_c, 0, 39, 0
2, 177016, Note_on_c, 0, 82, 0
2, 177016, Note_on_c, 0, 87, 0
2, 177024, Note_on_c, 0, 79, 0
2, 177026, Note_on_c, 0, 39, 82
2, 177027, Note_on_c, 0, 51, 89
2, 177027, Note_on_c, 0, 82, 98
2, 177027, Note_on_c, 0, 87, 103
2, 177029, Note_on_c, 0, 79, 88
2, 177150, Note_on_c, 0, 89, 105
2, 177151, Note_on_c, 0, 77, 103
2, 177231, Note_on_c, 0, 55, 0
2, 177231, Note_on_c, 0, 58, 0
2, 177239, Note_on_c, 0, 63, 85
2, 177240, Note_on_c, 0, 58, 81
2, 177241, Note_on_c, 0, 55, 80
2, 177369, Note_on_c, 0, 82, 0
2, 177369, Note_on_c, 0, 87, 0
2, 177373, Control_c, 0, 64, 0
2, 177375, Note_on_c, 0, 58, 0
2, 177376, Note_on_c, 0, 55, 0
2, 177377, Note_on_c, 0, 39, 0
2, 177377, Note_on_c, 0, 75, 0
2, 177377, Note_on_c, 0, 79, 0
2, 177377, Note_on_c, 0, 89, 0
2, 177379, Note_on_c, 0, 51, 0
2, 177379, Note_on_c, 0, 77, 0
2, 177379, Note_on_c, 0, 87, 110
2, 177380, Note_on_c, 0, 82, 108
2, 177383, Note_on_c, 0, 75, 103
2, 177384, Note_on_c, 0, 39, 95
2, 177385, Note_on_c, 0, 79, 99
2, 177392, Note_on_c, 0, 63, 0
2, 177431, Control_c, 0, 64, 127
2, 177642, Note_on_c, 0, 51, 77
2, 177726, Note_on_c, 0, 63, 81
2, 177726, Note_on_c, 0, 58, 74
2, 177729, Note_on_c, 0, 55, 67
2, 177735, Note_on_c, 0, 56, 64
2, 177838, Note_on_c, 0, 39, 0
2, 177846, Note_on_c, 0, 39, 86
2, 177953, Note_on_c, 0, 39, 0
2, 177957, Note_on_c, 0, 39, 73
2, 177961, Note_on_c, 0, 80, 108
2, 178076, Note_on_c, 0, 39, 0
2, 178083, Note_on_c, 0, 39, 49
2, 178087, Note_on_c, 0, 43, 35
2, 178099, Note_on_c, 0, 43, 0
2, 178191, Note_on_c, 0, 58, 0
2, 178191, Note_on_c, 0, 63, 0
2, 178191, Note_on_c, 0, 75, 0
2, 178191, Note_on_c, 0, 82, 0
2, 178197, Note_on_c, 0, 63, 93
2, 178198, Note_on_c, 0, 82, 106
2, 178201, Note_on_c, 0, 75, 100
2, 178202, Note_on_c, 0, 58, 78
2, 178206, Note_on_c, 0, 56, 0
2, 178210, Note_on_c, 0, 56, 76
2, 178216, Note_on_c, 0, 54, 68
2, 178222, Note_on_c, 0, 54, 0
2, 178260, Note_on_c, 0, 51, 0
2, 178269, Note_on_c, 0, 51, 74
2, 178393, Control_c, 0, 64, 0
2, 178394, Note_on_c, 0, 39, 0
2, 178394, Note_on_c, 0, 55, 0
2, 178394, Note_on_c, 0, 56, 0
2, 178394, Note_on_c, 0, 87, 0
2, 178394, Note_on_c, 0, 58, 0
2, 178395, Note_on_c, 0, 79, 0
2, 178395, Note_on_c, 0, 80, 0
2, 178406, Note_on_c, 0, 63, 0
2, 178414, Note_on_c, 0, 51, 0
2, 178421, Note_on_c, 0, 75, 0
2, 178433, Note_on_c, 0, 48, 95
2, 178434, Note_on_c, 0, 36, 90
2, 178458, Note_on_c, 0, 39, 52
2, 178460, Control_c, 0, 64, 127
2, 178544, Note_on_c, 0, 82, 0
2, 178554, Note_on_c, 0, 82, 97
2, 178555, Note_on_c, 0, 75, 90
2, 178556, Note_on_c, 0, 70, 82
2, 178556, Note_on_c, 0, 79, 82
2, 178652, Note_on_c, 0, 48, 0
2, 178659, Note_on_c, 0, 39, 0
2, 178659, Note_on_c, 0, 70, 0
2, 178659, Note_on_c, 0, 75, 0
2, 178659, Note_on_c, 0, 82, 0
2, 178660, Note_on_c, 0, 60, 83
2, 178662, Note_on_c, 0, 48, 81
2, 178663, Note_on_c, 0, 51, 88
2, 178664, Note_on_c, 0, 82, 100
2, 178666, Note_on_c, 0, 70, 92
2, 178667, Note_on_c, 0, 75, 87
2, 178669, Note_on_c, 0, 39, 77
2, 178671, Note_on_c, 0, 78, 73
2, 178775, Note_on_c, 0, 70, 0
2, 178775, Note_on_c, 0, 75, 0
2, 178775, Note_on_c, 0, 79, 0
2, 178775, Note_on_c, 0, 82, 0
2, 178781, Note_on_c, 0, 82, 90
2, 178782, Note_on_c, 0, 48, 0
2, 178782, Note_on_c, 0, 79, 81
2, 178785, Note_on_c, 0, 75, 86
2, 178786, Note_on_c, 0, 70, 78
2, 178786, Note_on_c, 0, 48, 74
2, 178798, Note_on_c, 0, 36, 0
2, 178808, Note_on_c, 0, 36, 63
2, 178890, Note_on_c, 0, 48, 0
2, 178890, Note_on_c, 0, 82, 0
2, 178897, Note_on_c, 0, 82, 103
2, 178897, Note_on_c, 0, 36, 0
2, 178897, Note_on_c, 0, 70, 0
2, 178897, Note_on_c, 0, 75, 0
2, 178897, Note_on_c, 0, 79, 0
2, 178901, Note_on_c, 0, 48, 87
2, 178901, Note_on_c, 0, 36, 77
2, 178902, Note_on_c, 0, 79, 84
2, 178904, Note_on_c, 0, 70, 89
2, 178908, Note_on_c, 0, 75, 87
2, 179028, Note_on_c, 0, 36, 0
2, 179028, Note_on_c, 0, 48, 0
2, 179033, Note_on_c, 0, 48, 82
2, 179034, Note_on_c, 0, 36, 64
2, 179120, Note_on_c, 0, 60, 0
2, 179128, Note_on_c, 0, 48, 0
2, 179128, Note_on_c, 0, 51, 0
2, 179129, Note_on_c, 0, 60, 86
2, 179133, Note_on_c, 0, 48, 84
2, 179134, Note_on_c, 0, 51, 84
2, 179137, Note_on_c, 0, 68, 101
2, 179138, Note_on_c, 0, 80, 98
2, 179151, Note_on_c, 0, 78, 0
2, 179155, Note_on_c, 0, 78, 52
2, 179255, Note_on_c, 0, 82, 0
2, 179256, Note_on_c, 0, 51, 0
2, 179257, Note_on_c, 0, 75, 0
2, 179257, Note_on_c, 0, 79, 0
2, 179258, Note_on_c, 0, 36, 0
2, 179258, Note_on_c, 0, 48, 0
2, 179259, Note_on_c, 0, 80, 0
2, 179259, Note_on_c, 0, 60, 0
2, 179260, Note_on_c, 0, 68, 0
2, 179261, Control_c, 0, 64, 0
2, 179266, Note_on_c, 0, 39, 0
2, 179270, Note_on_c, 0, 48, 77
2, 179270, Note_on_c, 0, 36, 81
2, 179274, Note_on_c, 0, 70, 0
2, 179281, Note_on_c, 0, 78, 0
2, 179328, Control_c, 0, 64, 127
2, 179366, Note_on_c, 0, 48, 0
2, 179370, Note_on_c, 0, 82, 103
2, 179375, Note_on_c, 0, 70, 94
2, 179376, Note_on_c, 0, 48, 84
2, 179377, Note_on_c, 0, 75, 89
2, 179383, Note_on_c, 0, 36, 0
2, 179481, Note_on_c, 0, 48, 0
2, 179491, Note_on_c, 0, 36, 68
2, 179492, Note_on_c, 0, 48, 73
2, 179493, Note_on_c, 0, 60, 63
2, 179504, Note_on_c, 0, 60, 0
2, 179591, Note_on_c, 0, 60, 86
2, 179594, Note_on_c, 0, 63, 68
2, 179595, Note_on_c, 0, 51, 73
2, 179604, Note_on_c, 0, 63, 0
2, 179607, Note_on_c, 0, 72, 72
2, 179612, Note_on_c, 0, 72, 0
2, 179615, Note_on_c, 0, 68, 90
2, 179621, Note_on_c, 0, 80, 94
2, 179727, Note_on_c, 0, 36, 0
2, 179727, Note_on_c, 0, 48, 0
2, 179727, Note_on_c, 0, 75, 0
2, 179729, Note_on_c, 0, 84, 101
2, 179732, Note_on_c, 0, 75, 96
2, 179732, Note_on_c, 0, 36, 81
2, 179733, Note_on_c, 0, 48, 80
2, 179735, Note_on_c, 0, 72, 94
2, 179834, Note_on_c, 0, 36, 0
2, 179834, Note_on_c, 0, 48, 0
2, 179839, Note_on_c, 0, 48, 85
2, 179841, Note_on_c, 0, 36, 74
2, 179950, Note_on_c, 0, 48, 0
2, 179961, Note_on_c, 0, 48, 78
2, 180049, Note_on_c, 0, 51, 0
2, 180061, Note_on_c, 0, 51, 89
2, 180170, Note_on_c, 0, 51, 0
2, 180170, Note_on_c, 0, 48, 0
2, 180170, Note_on_c, 0, 60, 0
2, 180171, Control_c, 0, 64, 0
2, 180171, Note_on_c, 0, 68, 0
2, 180171, Note_on_c, 0, 72, 0
2, 180171, Note_on_c, 0, 36, 0
2, 180171, Note_on_c, 0, 84, 0
2, 180180, Note_on_c, 0, 70, 0
2, 180188, Note_on_c, 0, 80, 0
2, 180188, Note_on_c, 0, 82, 0
2, 180195, Note_on_c, 0, 75, 0
2, 180198, Note_on_c, 0, 82, 107
2, 180202, Note_on_c, 0, 41, 93
2, 180203, Note_on_c, 0, 29, 97
2, 180205, Note_on_c, 0, 75, 98
2, 180206, Note_on_c, 0, 70, 98
2, 180257, Control_c, 0, 64, 127
2, 180387, Note_on_c, 0, 29, 0
2, 180431, Note_on_c, 0, 80, 92
2, 180443, Note_on_c, 0, 68, 83
2, 180443, Note_on_c, 0, 53, 77
2, 180549, Note_on_c, 0, 68, 0
2, 180549, Note_on_c, 0, 75, 0
2, 180549, Note_on_c, 0, 80, 0
2, 180552, Note_on_c, 0, 84, 104
2, 180552, Note_on_c, 0, 72, 97
2, 180553, Note_on_c, 0, 75, 97
2, 180554, Note_on_c, 0, 60, 86
2, 180555, Note_on_c, 0, 68, 91
2, 180558, Note_on_c, 0, 80, 82
2, 180559, Note_on_c, 0, 56, 83
2, 180602, Control_c, 0, 64, 0
2, 180606, Note_on_c, 0, 68, 0
2, 180606, Note_on_c, 0, 56, 0
2, 180606, Note_on_c, 0, 72, 0
2, 180606, Note_on_c, 0, 80, 0
2, 180606, Note_on_c, 0, 84, 0
2, 180606, Note_on_c, 0, 75, 0
2, 180606, Note_on_c, 0, 60, 0
2, 180607, Note_on_c, 0, 53, 0
2, 180610, Note_on_c, 0, 82, 0
2, 180612, Note_on_c, 0, 70, 0
2, 180618, Note_on_c, 0, 41, 0
2, 180665, Note_on_c, 0, 53, 76
2, 180797, Note_on_c, 0, 84, 102
2, 180797, Note_on_c, 0, 72, 103
2, 180797, Note_on_c, 0, 60, 94
2, 180798, Note_on_c, 0, 75, 103
2, 180798, Note_on_c, 0, 68, 97
2, 180798, Note_on_c, 0, 56, 93
2, 180825, Note_on_c, 0, 53, 0
2, 180833, Control_c, 0, 64, 127
2, 181023, Note_on_c, 0, 82, 95
2, 181030, Note_on_c, 0, 70, 80
2, 181030, Note_on_c, 0, 41, 83
2, 181132, Note_on_c, 0, 56, 0
2, 181132, Note_on_c, 0, 68, 0
2, 181141, Note_on_c, 0, 80, 95
2, 181142, Note_on_c, 0, 68, 89
2, 181142, Note_on_c, 0, 53, 73
2, 181143, Note_on_c, 0, 56, 77
2, 181263, Note_on_c, 0, 56, 0
2, 181263, Note_on_c, 0, 60, 0
2, 181263, Note_on_c, 0, 68, 0
2, 181263, Note_on_c, 0, 75, 0
2, 181263, Note_on_c, 0, 84, 0
2, 181267, Note_on_c, 0, 84, 102
2, 181268, Note_on_c, 0, 75, 97
2, 181268, Note_on_c, 0, 68, 85
2, 181270, Note_on_c, 0, 56, 77
2, 181270, Note_on_c, 0, 60, 82
2, 181290, Control_c, 0, 64, 0
2, 181292, Note_on_c, 0, 41, 0
2, 181294, Note_on_c, 0, 72, 0
2, 181295, Note_on_c, 0, 82, 0
2, 181296, Note_on_c, 0, 80, 0
2, 181298, Note_on_c, 0, 70, 0
2, 181306, Note_on_c, 0, 56, 0
2, 181307, Note_on_c, 0, 75, 0
2, 181308, Note_on_c, 0, 84, 0
2, 181313, Note_on_c, 0, 60, 0
2, 181317, Note_on_c, 0, 53, 0
2, 181324, Note_on_c, 0, 68, 0
2, 181382, Note_on_c, 0, 53, 79
2, 181501, Control_c, 0, 64, 127
2, 181504, Note_on_c, 0, 60, 93
2, 181504, Note_on_c, 0, 56, 89
2, 181506, Note_on_c, 0, 68, 91
2, 181507, Note_on_c, 0, 84, 98
2, 181509, Note_on_c, 0, 72, 102
2, 181511, Note_on_c, 0, 75, 100
2, 181732, Note_on_c, 0, 82, 98
2, 181735, Note_on_c, 0, 70, 90
2, 181847, Note_on_c, 0, 56, 0
2, 181854, Note_on_c, 0, 53, 0
2, 181854, Note_on_c, 0, 68, 0
2, 181858, Note_on_c, 0, 56, 76
2, 181858, Note_on_c, 0, 80, 100
2, 181860, Note_on_c, 0, 68, 99
2, 181865, Note_on_c, 0, 48, 76
2, 181865, Note_on_c, 0, 53, 70
2, 181939, Note_on_c, 0, 48, 0
2, 181944, Note_on_c, 0, 41, 78
2, 181948, Note_on_c, 0, 48, 74
2, 182020, Note_on_c, 0, 41, 0
2, 182022, Note_on_c, 0, 82, 0
2, 182023, Note_on_c, 0, 84, 0
2, 182023, Note_on_c, 0, 53, 0
2, 182024, Note_on_c, 0, 60, 0
2, 182024, Note_on_c, 0, 48, 0
2, 182025, Note_on_c, 0, 70, 0
2, 182025, Note_on_c, 0, 75, 0
2, 182025, Control_c, 0, 64, 0
2, 182025, Note_on_c, 0, 72, 0
2, 182039, Note_on_c, 0, 56, 0
2, 182087, Note_on_c, 0, 37, 100
2, 182088, Note_on_c, 0, 49, 95
2, 182123, Control_c, 0, 64, 127
2, 182315, Note_on_c, 0, 49, 0
2, 182315, Note_on_c, 0, 68, 0
2, 182326, Note_on_c, 0, 49, 70
2, 182326, Note_on_c, 0, 68, 69
2, 182430, Note_on_c, 0, 68, 0
2, 182430, Note_on_c, 0, 80, 0
2, 182439, Note_on_c, 0, 80, 92
2, 182440, Note_on_c, 0, 56, 79
2, 182441, Note_on_c, 0, 68, 87
2, 182573, Note_on_c, 0, 61, 72
2, 182676, Note_on_c, 0, 68, 0
2, 182676, Note_on_c, 0, 80, 0
2, 182685, Note_on_c, 0, 80, 95
2, 182686, Note_on_c, 0, 68, 87
2, 182687, Note_on_c, 0, 73, 87
2, 182687, Note_on_c, 0, 65, 74
2, 182702, Control_c, 0, 64, 0
2, 182707, Control_c, 0, 64, 127
2, 182784, Note_on_c, 0, 56, 0
2, 182795, Note_on_c, 0, 56, 71
2, 182922, Note_on_c, 0, 61, 0
2, 182922, Note_on_c, 0, 68, 0
2, 182922, Note_on_c, 0, 80, 0
2, 182927, Note_on_c, 0, 61, 74
2, 182930, Note_on_c, 0, 80, 94
2, 182933, Note_on_c, 0, 68, 86
2, 183037, Note_on_c, 0, 65, 0
2, 183037, Note_on_c, 0, 68, 0
2, 183037, Note_on_c, 0, 80, 0
2, 183045, Note_on_c, 0, 80, 89
2, 183045, Note_on_c, 0, 68, 84
2, 183045, Note_on_c, 0, 65, 66
2, 183160, Note_on_c, 0, 80, 0
2, 183168, Note_on_c, 0, 56, 0
2, 183168, Note_on_c, 0, 68, 0
2, 183168, Note_on_c, 0, 73, 0
2, 183169, Note_on_c, 0, 80, 101
2, 183170, Control_c, 0, 64, 0
2, 183172, Note_on_c, 0, 56, 82
2, 183173, Note_on_c, 0, 68, 90
2, 183173, Note_on_c, 0, 77, 81
2, 183174, Note_on_c, 0, 73, 81
2, 183214, Control_c, 0, 64, 127
2, 183244, Note_on_c, 0, 37, 0
2, 183298, Note_on_c, 0, 61, 0
2, 183309, Note_on_c, 0, 61, 67
2, 183413, Note_on_c, 0, 65, 0
2, 183418, Note_on_c, 0, 65, 74
2, 183528, Note_on_c, 0, 80, 0
2, 183536, Note_on_c, 0, 56, 0
2, 183536, Note_on_c, 0, 68, 0
2, 183539, Note_on_c, 0, 80, 97
2, 183542, Note_on_c, 0, 68, 88
2, 183547, Note_on_c, 0, 56, 72
2, 183659, Note_on_c, 0, 61, 0
2, 183670, Note_on_c, 0, 61, 72
2, 183759, Note_on_c, 0, 65, 0
2, 183763, Note_on_c, 0, 65, 77
2, 183888, Note_on_c, 0, 82, 100
2, 183897, Note_on_c, 0, 56, 0
2, 183900, Note_on_c, 0, 70, 91
2, 183901, Note_on_c, 0, 56, 82
2, 183982, Note_on_c, 0, 65, 0
2, 183988, Note_on_c, 0, 65, 71
2, 184124, Note_on_c, 0, 79, 101
2, 184128, Note_on_c, 0, 70, 0
2, 184131, Control_c, 0, 64, 0
2, 184131, Note_on_c, 0, 67, 93
2, 184131, Note_on_c, 0, 39, 75
2, 184133, Note_on_c, 0, 75, 87
2, 184135, Note_on_c, 0, 70, 92
2, 184139, Note_on_c, 0, 68, 0
2, 184139, Note_on_c, 0, 65, 0
2, 184140, Note_on_c, 0, 56, 0
2, 184140, Note_on_c, 0, 80, 0
2, 184140, Note_on_c, 0, 61, 0
2, 184151, Note_on_c, 0, 49, 0
2, 184151, Note_on_c, 0, 73, 0
2, 184158, Note_on_c, 0, 77, 0
2, 184158, Note_on_c, 0, 82, 0
2, 184204, Control_c, 0, 64, 127
2, 184261, Note_on_c, 0, 46, 61
2, 184348, Note_on_c, 0, 53, 74
2, 184490, Note_on_c, 0, 77, 96
2, 184492, Note_on_c, 0, 65, 90
2, 184495, Note_on_c, 0, 55, 74
2, 184610, Note_on_c, 0, 58, 71
2, 184694, Note_on_c, 0, 63, 77
2, 184811, Note_on_c, 0, 75, 0
2, 184820, Note_on_c, 0, 75, 106
2, 184834, Note_on_c, 0, 55, 0
2, 184834, Note_on_c, 0, 65, 0
2, 184839, Note_on_c, 0, 55, 57
2, 184840, Note_on_c, 0, 65, 76
2, 184934, Note_on_c, 0, 67, 0
2, 184941, Note_on_c, 0, 67, 83
2, 185081, Note_on_c, 0, 72, 93
2, 185194, Note_on_c, 0, 80, 96
2, 185303, Note_on_c, 0, 79, 0
2, 185313, Note_on_c, 0, 79, 81
2, 185418, Note_on_c, 0, 72, 0
2, 185423, Note_on_c, 0, 72, 87
2, 185430, Control_c, 0, 64, 0
2, 185449, Note_on_c, 0, 67, 0
2, 185453, Note_on_c, 0, 65, 0
2, 185460, Note_on_c, 0, 79, 0
2, 185462, Note_on_c, 0, 58, 0
2, 185533, Note_on_c, 0, 80, 0
2, 185539, Note_on_c, 0, 80, 92
2, 185556, Note_on_c, 0, 39, 0
2, 185579, Note_on_c, 0, 70, 0
2, 185587, Note_on_c, 0, 63, 0
2, 185587, Note_on_c, 0, 77, 0
2, 185602, Note_on_c, 0, 53, 0
2, 185602, Note_on_c, 0, 55, 0
2, 185602, Note_on_c, 0, 72, 0
2, 185602, Note_on_c, 0, 75, 0
2, 185610, Note_on_c, 0, 46, 0
2, 185654, Note_on_c, 0, 79, 83
2, 185764, Note_on_c, 0, 72, 90
2, 185786, Note_on_c, 0, 80, 0
2, 185880, Note_on_c, 0, 80, 91
2, 185935, Note_on_c, 0, 72, 0
2, 185986, Note_on_c, 0, 79, 0
2, 185994, Note_on_c, 0, 79, 86
2, 186114, Note_on_c, 0, 72, 94
2, 186155, Note_on_c, 0, 80, 0
2, 186228, Note_on_c, 0, 80, 99
2, 186273, Note_on_c, 0, 72, 0
2, 186332, Note_on_c, 0, 79, 0
2, 186336, Note_on_c, 0, 79, 93
2, 186367, Note_on_c, 0, 80, 0
2, 186450, Note_on_c, 0, 82, 112
2, 186451, Note_on_c, 0, 70, 110
2, 186489, Note_on_c, 0, 70, 0
2, 186493, Note_on_c, 0, 79, 0
2, 186498, Note_on_c, 0, 82, 0
2, 186574, Note_on_c, 0, 80, 107
2, 186577, Note_on_c, 0, 68, 103
2, 186623, Note_on_c, 0, 68, 0
2, 186629, Note_on_c, 0, 80, 0
2, 186832, Note_on_c, 0, 84, 107
2, 186835, Note_on_c, 0, 77, 104
2, 186838, Note_on_c, 0, 72, 104
2, 186839, Note_on_c, 0, 37, 102
2, 186840, Note_on_c, 0, 25, 105
2, 186858, Note_on_c, 0, 80, 77
2, 186869, Control_c, 0, 64, 127
2, 187101, Note_on_c, 0, 49, 76
2, 187222, Note_on_c, 0, 53, 84
2, 187233, Note_on_c, 0, 82, 105
2, 187234, Note_on_c, 0, 56, 76
2, 187241, Note_on_c, 0, 70, 98
2, 187338, Note_on_c, 0, 49, 0
2, 187343, Note_on_c, 0, 49, 82
2, 187461, Note_on_c, 0, 56, 0
2, 187468, Note_on_c, 0, 53, 0
2, 187468, Note_on_c, 0, 77, 0
2, 187468, Note_on_c, 0, 84, 0
2, 187471, Note_on_c, 0, 56, 93
2, 187475, Note_on_c, 0, 84, 103
2, 187475, Note_on_c, 0, 61, 89
2, 187476, Note_on_c, 0, 53, 68
2, 187476, Note_on_c, 0, 72, 0
2, 187476, Note_on_c, 0, 80, 0
2, 187479, Note_on_c, 0, 77, 95
2, 187480, Note_on_c, 0, 72, 94
2, 187483, Note_on_c, 0, 80, 87
2, 187560, Note_on_c, 0, 49, 0
2, 187567, Note_on_c, 0, 49, 85
2, 187699, Note_on_c, 0, 61, 0
2, 187700, Note_on_c, 0, 65, 97
2, 187704, Note_on_c, 0, 61, 84
2, 187705, Note_on_c, 0, 87, 108
2, 187710, Note_on_c, 0, 75, 104
2, 187822, Note_on_c, 0, 56, 0
2, 187826, Note_on_c, 0, 56, 72
2, 187921, Note_on_c, 0, 65, 0
2, 187930, Note_on_c, 0, 65, 87
2, 187935, Note_on_c, 0, 68, 98
2, 187937, Note_on_c, 0, 80, 0
2, 187941, Note_on_c, 0, 85, 108
2, 187947, Note_on_c, 0, 73, 100
2, 187947, Note_on_c, 0, 80, 90
2, 188044, Note_on_c, 0, 56, 0
2, 188054, Note_on_c, 0, 56, 87
2, 188167, Note_on_c, 0, 53, 0
2, 188167, Note_on_c, 0, 84, 0
2, 188173, Note_on_c, 0, 77, 0
2, 188175, Note_on_c, 0, 61, 0
2, 188175, Note_on_c, 0, 65, 0
2, 188175, Note_on_c, 0, 72, 0
2, 188176, Note_on_c, 0, 84, 104
2, 188177, Note_on_c, 0, 53, 80
2, 188179, Note_on_c, 0, 65, 88
2, 188180, Note_on_c, 0, 72, 93
2, 188181, Note_on_c, 0, 61, 91
2, 188183, Note_on_c, 0, 56, 0
2, 188192, Note_on_c, 0, 56, 67
2, 188267, Note_on_c, 0, 56, 0
2, 188278, Note_on_c, 0, 56, 65
2, 188282, Note_on_c, 0, 82, 0
2, 188290, Note_on_c, 0, 70, 0
2, 188292, Note_on_c, 0, 82, 108
2, 188298, Note_on_c, 0, 70, 102
2, 188405, Note_on_c, 0, 25, 0
2, 188421, Note_on_c, 0, 37, 0
2, 188421, Note_on_c, 0, 49, 0
2, 188428, Note_on_c, 0, 49, 100
2, 188431, Note_on_c, 0, 37, 95
2, 188433, Note_on_c, 0, 44, 85
2, 188441, Note_on_c, 0, 56, 0
2, 188441, Note_on_c, 0, 65, 0
2, 188442, Note_on_c, 0, 85, 0
2, 188442, Note_on_c, 0, 87, 0
2, 188442, Note_on_c, 0, 61, 0
2, 188443, Note_on_c, 0, 68, 0
2, 188444, Note_on_c, 0, 72, 0
2, 188445, Note_on_c, 0, 75, 0
2, 188445, Note_on_c, 0, 73, 0
2, 188445, Note_on_c, 0, 84, 0
2, 188445, Note_on_c, 0, 82, 0
2, 188446, Note_on_c, 0, 80, 0
2, 188446, Note_on_c, 0, 70, 0
2, 188458, Control_c, 0, 64, 0
2, 188465, Note_on_c, 0, 44, 0
2, 188467, Note_on_c, 0, 53, 0
2, 188482, Note_on_c, 0, 49, 0
2, 188490, Note_on_c, 0, 37, 0
2, 188545, Note_on_c, 0, 37, 90
2, 188546, Note_on_c, 0, 80, 100
2, 188548, Note_on_c, 0, 68, 99
2, 188635, Note_on_c, 0, 44, 80
2, 188675, Note_on_c, 0, 80, 0
2, 188676, Note_on_c, 0, 68, 0
2, 188676, Note_on_c, 0, 44, 0
2, 188678, Note_on_c, 0, 37, 0
2, 188773, Note_on_c, 0, 82, 111
2, 188779, Note_on_c, 0, 27, 90
2, 188779, Note_on_c, 0, 79, 98
2, 188781, Note_on_c, 0, 75, 100
2, 188782, Note_on_c, 0, 70, 102
2, 188785, Note_on_c, 0, 39, 96
2, 188805, Control_c, 0, 64, 127
2, 189012, Note_on_c, 0, 39, 0
2, 189023, Note_on_c, 0, 51, 77
2, 189023, Note_on_c, 0, 39, 70
2, 189111, Note_on_c, 0, 55, 85
2, 189112, Note_on_c, 0, 58, 84
2, 189112, Note_on_c, 0, 63, 86
2, 189145, Note_on_c, 0, 68, 54
2, 189150, Note_on_c, 0, 68, 0
2, 189242, Note_on_c, 0, 39, 0
2, 189247, Note_on_c, 0, 39, 78
2, 189358, Note_on_c, 0, 51, 0
2, 189365, Note_on_c, 0, 55, 0
2, 189369, Note_on_c, 0, 51, 84
2, 189373, Note_on_c, 0, 55, 65
2, 189496, Note_on_c, 0, 51, 0
2, 189501, Note_on_c, 0, 51, 78
2, 189573, Note_on_c, 0, 58, 0
2, 189573, Note_on_c, 0, 63, 0
2, 189578, Note_on_c, 0, 58, 70
2, 189580, Note_on_c, 0, 63, 73
2, 189588, Note_on_c, 0, 55, 0
2, 189592, Note_on_c, 0, 55, 69
2, 189596, Note_on_c, 0, 70, 0
2, 189596, Note_on_c, 0, 82, 0
2, 189601, Note_on_c, 0, 82, 105
2, 189602, Note_on_c, 0, 70, 91
2, 189705, Note_on_c, 0, 82, 0
2, 189706, Note_on_c, 0, 63, 0
2, 189706, Note_on_c, 0, 55, 0
2, 189706, Note_on_c, 0, 58, 0
2, 189706, Note_on_c, 0, 79, 0
2, 189707, Note_on_c, 0, 70, 0
2, 189708, Control_c, 0, 64, 0
2, 189711, Note_on_c, 0, 27, 0
2, 189711, Note_on_c, 0, 39, 0
2, 189716, Note_on_c, 0, 80, 101
2, 189717, Note_on_c, 0, 39, 89
2, 189717, Note_on_c, 0, 27, 84
2, 189721, Note_on_c, 0, 68, 99
2, 189738, Note_on_c, 0, 78, 57
2, 189757, Control_c, 0, 64, 127
2, 189829, Note_on_c, 0, 79, 103
2, 189835, Note_on_c, 0, 67, 89
2, 189941, Note_on_c, 0, 68, 0
2, 189941, Note_on_c, 0, 80, 0
2, 189949, Note_on_c, 0, 80, 99
2, 189952, Note_on_c, 0, 68, 97
2, 189960, Note_on_c, 0, 58, 60
2, 190041, Note_on_c, 0, 58, 0
2, 190048, Note_on_c, 0, 63, 69
2, 190049, Note_on_c, 0, 67, 0
2, 190052, Note_on_c, 0, 58, 80
2, 190054, Note_on_c, 0, 82, 108
2, 190056, Note_on_c, 0, 67, 74
2, 190056, Note_on_c, 0, 70, 86
2, 190172, Note_on_c, 0, 39, 0
2, 190172, Note_on_c, 0, 79, 0
2, 190177, Note_on_c, 0, 87, 107
2, 190179, Note_on_c, 0, 75, 0
2, 190181, Note_on_c, 0, 39, 89
2, 190182, Note_on_c, 0, 79, 95
2, 190184, Note_on_c, 0, 75, 95
2, 190279, Note_on_c, 0, 51, 0
2, 190284, Note_on_c, 0, 51, 68
2, 190341, Note_on_c, 0, 58, 0
2, 190345, Note_on_c, 0, 58, 43
2, 190402, Note_on_c, 0, 58, 0
2, 190408, Note_on_c, 0, 58, 80
2, 190409, Note_on_c, 0, 85, 105
2, 190411, Note_on_c, 0, 73, 101
2, 190420, Note_on_c, 0, 55, 74
2, 190494, Note_on_c, 0, 58, 0
2, 190494, Note_on_c, 0, 63, 0
2, 190502, Note_on_c, 0, 55, 0
2, 190505, Note_on_c, 0, 58, 81
2, 190505, Note_on_c, 0, 63, 80
2, 190506, Note_on_c, 0, 51, 0
2, 190511, Note_on_c, 0, 55, 62
2, 190620, Note_on_c, 0, 80, 0
2, 190621, Note_on_c, 0, 87, 0
2, 190621, Control_c, 0, 64, 0
2, 190621, Note_on_c, 0, 63, 0
2, 190621, Note_on_c, 0, 67, 0
2, 190621, Note_on_c, 0, 73, 0
2, 190621, Note_on_c, 0, 58, 0
2, 190621, Note_on_c, 0, 82, 0
2, 190621, Note_on_c, 0, 70, 0
2, 190621, Note_on_c, 0, 85, 0
2, 190625, Note_on_c, 0, 78, 0
2, 190632, Note_on_c, 0, 27, 0
2, 190632, Note_on_c, 0, 68, 0
2, 190640, Note_on_c, 0, 39, 0
2, 190640, Note_on_c, 0, 55, 0
2, 190640, Note_on_c, 0, 75, 0
2, 190640, Note_on_c, 0, 79, 0
2, 190647, Note_on_c, 0, 84, 108
2, 190650, Note_on_c, 0, 75, 102
2, 190651, Note_on_c, 0, 72, 106
2, 190651, Note_on_c, 0, 79, 90
2, 190652, Note_on_c, 0, 48, 96
2, 190653, Note_on_c, 0, 36, 92
2, 190694, Control_c, 0, 64, 127
2, 190886, Note_on_c, 0, 48, 0
2, 190891, Note_on_c, 0, 48, 72
2, 190891, Note_on_c, 0, 60, 62
2, 190892, Note_on_c, 0, 51, 43
2, 190901, Note_on_c, 0, 51, 0
2, 190901, Note_on_c, 0, 60, 0
2, 191013, Note_on_c, 0, 82, 104
2, 191018, Note_on_c, 0, 70, 98
2, 191020, Note_on_c, 0, 51, 86
2, 191020, Note_on_c, 0, 55, 86
2, 191132, Note_on_c, 0, 48, 0
2, 191137, Note_on_c, 0, 48, 85
2, 191247, Note_on_c, 0, 48, 0
2, 191247, Note_on_c, 0, 72, 0
2, 191247, Note_on_c, 0, 75, 0
2, 191247, Note_on_c, 0, 84, 0
2, 191255, Note_on_c, 0, 84, 102
2, 191255, Note_on_c, 0, 72, 101
2, 191257, Note_on_c, 0, 60, 94
2, 191257, Note_on_c, 0, 48, 91
2, 191258, Note_on_c, 0, 75, 103
2, 191347, Note_on_c, 0, 48, 0
2, 191347, Note_on_c, 0, 55, 0
2, 191352, Note_on_c, 0, 55, 69
2, 191354, Note_on_c, 0, 48, 78
2, 191477, Note_on_c, 0, 55, 0
2, 191481, Note_on_c, 0, 55, 83
2, 191484, Note_on_c, 0, 63, 99
2, 191485, Note_on_c, 0, 84, 0
2, 191488, Note_on_c, 0, 89, 109
2, 191489, Note_on_c, 0, 77, 102
2, 191492, Note_on_c, 0, 84, 83
2, 191600, Note_on_c, 0, 55, 0
2, 191607, Note_on_c, 0, 55, 88
2, 191715, Note_on_c, 0, 63, 0
2, 191722, Note_on_c, 0, 67, 98
2, 191723, Note_on_c, 0, 75, 0
2, 191723, Note_on_c, 0, 79, 0
2, 191724, Note_on_c, 0, 63, 79
2, 191726, Note_on_c, 0, 87, 110
2, 191727, Note_on_c, 0, 75, 101
2, 191730, Note_on_c, 0, 79, 98
2, 191831, Note_on_c, 0, 55, 0
2, 191839, Note_on_c, 0, 55, 92
2, 191869, Note_on_c, 0, 58, 37
2, 191946, Note_on_c, 0, 60, 0
2, 191946, Note_on_c, 0, 63, 0
2, 191946, Note_on_c, 0, 72, 0
2, 191946, Note_on_c, 0, 84, 0
2, 191952, Note_on_c, 0, 63, 92
2, 191955, Note_on_c, 0, 60, 84
2, 191955, Note_on_c, 0, 84, 98
2, 191956, Note_on_c, 0, 72, 93
2, 192061, Note_on_c, 0, 82, 0
2, 192068, Note_on_c, 0, 82, 108
2, 192076, Note_on_c, 0, 70, 0
2, 192080, Note_on_c, 0, 70, 94
2, 192184, Note_on_c, 0, 48, 0
2, 192185, Note_on_c, 0, 55, 0
2, 192192, Note_on_c, 0, 36, 0
2, 192192, Note_on_c, 0, 58, 0
2, 192194, Note_on_c, 0, 43, 79
2, 192194, Note_on_c, 0, 48, 93
2, 192196, Note_on_c, 0, 36, 78
2, 192234, Note_on_c, 0, 82, 0
2, 192234, Note_on_c, 0, 87, 0
2, 192234, Note_on_c, 0, 84, 0
2, 192235, Note_on_c, 0, 89, 0
2, 192236, Note_on_c, 0, 77, 0
2, 192236, Note_on_c, 0, 75, 0
2, 192238, Note_on_c, 0, 79, 0
2, 192239, Note_on_c, 0, 63, 0
2, 192240, Note_on_c, 0, 51, 0
2, 192240, Note_on_c, 0, 70, 0
2, 192240, Note_on_c, 0, 72, 0
2, 192241, Control_c, 0, 64, 0
2, 192242, Note_on_c, 0, 43, 0
2, 192253, Note_on_c, 0, 60, 0
2, 192253, Note_on_c, 0, 67, 0
2, 192309, Note_on_c, 0, 80, 99
2, 192310, Note_on_c, 0, 68, 100
2, 192414, Note_on_c, 0, 48, 0
2, 192418, Note_on_c, 0, 68, 0
2, 192419, Note_on_c, 0, 80, 0
2, 192430, Note_on_c, 0, 36, 0
2, 192536, Note_on_c, 0, 82, 110
2, 192542, Note_on_c, 0, 70, 102
2, 192542, Note_on_c, 0, 79, 89
2, 192542, Note_on_c, 0, 75, 100
2, 192547, Note_on_c, 0, 29, 92
2, 192547, Note_on_c, 0, 41, 91
2, 192583, Control_c, 0, 64, 127
2, 192775, Note_on_c, 0, 41, 0
2, 192779, Note_on_c, 0, 41, 72
2, 192783, Note_on_c, 0, 53, 75
2, 192896, Note_on_c, 0, 60, 83
2, 192897, Note_on_c, 0, 68, 79
2, 192898, Note_on_c, 0, 56, 82
2, 193013, Note_on_c, 0, 29, 0
2, 193013, Note_on_c, 0, 41, 0
2, 193023, Note_on_c, 0, 29, 75
2, 193024, Note_on_c, 0, 41, 77
2, 193128, Note_on_c, 0, 53, 0
2, 193128, Note_on_c, 0, 56, 0
2, 193134, Note_on_c, 0, 53, 78
2, 193139, Note_on_c, 0, 56, 61
2, 193221, Note_on_c, 0, 68, 0
2, 193226, Note_on_c, 0, 68, 89
2, 193227, Note_on_c, 0, 80, 92
2, 193228, Note_on_c, 0, 53, 0
2, 193230, Note_on_c, 0, 72, 70
2, 193235, Note_on_c, 0, 53, 68
2, 193235, Note_on_c, 0, 48, 70
2, 193344, Note_on_c, 0, 60, 0
2, 193344, Note_on_c, 0, 82, 0
2, 193351, Note_on_c, 0, 82, 102
2, 193351, Note_on_c, 0, 56, 0
2, 193351, Note_on_c, 0, 70, 0
2, 193353, Note_on_c, 0, 60, 85
2, 193355, Note_on_c, 0, 56, 77
2, 193356, Note_on_c, 0, 70, 85
2, 193459, Note_on_c, 0, 41, 0
2, 193463, Note_on_c, 0, 84, 106
2, 193466, Note_on_c, 0, 48, 0
2, 193466, Note_on_c, 0, 72, 0
2, 193470, Note_on_c, 0, 41, 82
2, 193472, Note_on_c, 0, 48, 82
2, 193474, Note_on_c, 0, 75, 0
2, 193474, Note_on_c, 0, 80, 0
2, 193475, Note_on_c, 0, 72, 92
2, 193479, Note_on_c, 0, 75, 89
2, 193485, Note_on_c, 0, 80, 69
2, 193494, Control_c, 0, 64, 0
2, 193496, Note_on_c, 0, 53, 0
2, 193499, Note_on_c, 0, 60, 0
2, 193499, Note_on_c, 0, 82, 0
2, 193499, Note_on_c, 0, 56, 0
2, 193501, Note_on_c, 0, 70, 0
2, 193520, Note_on_c, 0, 29, 0
2, 193520, Note_on_c, 0, 68, 0
2, 193520, Control_c, 0, 64, 127
2, 193528, Note_on_c, 0, 79, 0
2, 193528, Note_on_c, 0, 80, 0
2, 193580, Note_on_c, 0, 53, 83
2, 193697, Note_on_c, 0, 53, 0
2, 193700, Note_on_c, 0, 82, 100
2, 193704, Note_on_c, 0, 53, 66
2, 193704, Note_on_c, 0, 70, 82
2, 193797, Note_on_c, 0, 84, 0
2, 193799, Note_on_c, 0, 60, 84
2, 193801, Note_on_c, 0, 56, 74
2, 193804, Note_on_c, 0, 72, 0
2, 193805, Note_on_c, 0, 68, 77
2, 193808, Note_on_c, 0, 84, 102
2, 193814, Note_on_c, 0, 72, 90
2, 193881, Note_on_c, 0, 41, 0
2, 193881, Note_on_c, 0, 48, 0
2, 193882, Note_on_c, 0, 72, 0
2, 193882, Note_on_c, 0, 82, 0
2, 193883, Note_on_c, 0, 56, 0
2, 193883, Note_on_c, 0, 84, 0
2, 193883, Control_c, 0, 64, 0
2, 193883, Note_on_c, 0, 70, 0
2, 193889, Note_on_c, 0, 68, 0
2, 193889, Note_on_c, 0, 75, 0
2, 193896, Note_on_c, 0, 53, 0
2, 193896, Note_on_c, 0, 60, 0
2, 193929, Note_on_c, 0, 87, 107
2, 193929, Note_on_c, 0, 39, 94
2, 193931, Note_on_c, 0, 75, 94
2, 193943, Control_c, 0, 64, 127
2, 194038, Note_on_c, 0, 51, 90
2, 194038, Note_on_c, 0, 89, 112
2, 194038, Note_on_c, 0, 77, 102
2, 194142, Note_on_c, 0, 51, 0
2, 194147, Note_on_c, 0, 51, 81
2, 194153, Note_on_c, 0, 92, 115
2, 194156, Note_on_c, 0, 80, 103
2, 194254, Note_on_c, 0, 55, 73
2, 194262, Note_on_c, 0, 58, 75
2, 194268, Note_on_c, 0, 94, 113
2, 194270, Note_on_c, 0, 82, 102
2, 194369, Note_on_c, 0, 87, 0
2, 194369, Note_on_c, 0, 51, 0
2, 194369, Control_c, 0, 64, 0
2, 194370, Note_on_c, 0, 77, 0
2, 194370, Note_on_c, 0, 94, 0
2, 194370, Note_on_c, 0, 80, 0
2, 194370, Note_on_c, 0, 75, 0
2, 194370, Note_on_c, 0, 82, 0
2, 194371, Note_on_c, 0, 58, 0
2, 194380, Note_on_c, 0, 39, 0
2, 194380, Note_on_c, 0, 55, 0
2, 194385, Note_on_c, 0, 49, 106
2, 194386, Note_on_c, 0, 96, 110
2, 194386, Note_on_c, 0, 37, 106
2, 194388, Note_on_c, 0, 84, 103
2, 194388, Note_on_c, 0, 89, 0
2, 194388, Note_on_c, 0, 92, 0
2, 194397, Note_on_c, 0, 89, 90
2, 194399, Note_on_c, 0, 92, 88
2, 194426, Control_c, 0, 64, 127
2, 194641, Note_on_c, 0, 49, 0
2, 194653, Note_on_c, 0, 49, 24
2, 194756, Note_on_c, 0, 94, 111
2, 194761, Note_on_c, 0, 82, 104
2, 194761, Note_on_c, 0, 53, 78
2, 194769, Note_on_c, 0, 56, 87
2, 194880, Note_on_c, 0, 49, 0
2, 194888, Note_on_c, 0, 49, 76
2, 194987, Note_on_c, 0, 89, 0
2, 194987, Note_on_c, 0, 96, 0
2, 194995, Note_on_c, 0, 84, 0
2, 194998, Note_on_c, 0, 89, 99
2, 194998, Note_on_c, 0, 96, 102
2, 195000, Note_on_c, 0, 84, 100
2, 195002, Note_on_c, 0, 92, 0
2, 195006, Note_on_c, 0, 61, 98
2, 195007, Note_on_c, 0, 92, 79
2, 195095, Note_on_c, 0, 49, 0
2, 195104, Note_on_c, 0, 49, 37
2, 195225, Note_on_c, 0, 61, 0
2, 195229, Note_on_c, 0, 65, 94
2, 195230, Note_on_c, 0, 99, 103
2, 195231, Note_on_c, 0, 61, 88
2, 195231, Note_on_c, 0, 87, 103
2, 195237, Note_on_c, 0, 97, 85
2, 195240, Note_on_c, 0, 49, 0
2, 195252, Note_on_c, 0, 49, 81
2, 195356, Note_on_c, 0, 49, 0
2, 195356, Note_on_c, 0, 56, 0
2, 195360, Note_on_c, 0, 56, 66
2, 195367, Note_on_c, 0, 49, 76
2, 195456, Note_on_c, 0, 65, 0
2, 195466, Note_on_c, 0, 65, 84
2, 195466, Note_on_c, 0, 68, 93
2, 195479, Note_on_c, 0, 89, 0
2, 195479, Note_on_c, 0, 92, 0
2, 195479, Note_on_c, 0, 97, 0
2, 195482, Note_on_c, 0, 85, 109
2, 195483, Note_on_c, 0, 92, 92
2, 195483, Note_on_c, 0, 89, 89
2, 195484, Note_on_c, 0, 97, 102
2, 195571, Note_on_c, 0, 56, 0
2, 195582, Note_on_c, 0, 56, 77
2, 195701, Note_on_c, 0, 96, 0
2, 195709, Note_on_c, 0, 61, 0
2, 195709, Note_on_c, 0, 65, 0
2, 195709, Note_on_c, 0, 84, 0
2, 195711, Note_on_c, 0, 96, 100
2, 195713, Note_on_c, 0, 84, 99
2, 195714, Note_on_c, 0, 65, 94
2, 195715, Note_on_c, 0, 61, 86
2, 195816, Note_on_c, 0, 94, 0
2, 195824, Note_on_c, 0, 56, 0
2, 195824, Note_on_c, 0, 82, 0
2, 195828, Note_on_c, 0, 94, 104
2, 195829, Note_on_c, 0, 56, 62
2, 195830, Note_on_c, 0, 82, 109
2, 195939, Note_on_c, 0, 49, 0
2, 195950, Note_on_c, 0, 49, 106
2, 195957, Note_on_c, 0, 44, 80
2, 196036, Note_on_c, 0, 99, 0
2, 196037, Note_on_c, 0, 49, 0
2, 196037, Note_on_c, 0, 94, 0
2, 196037, Note_on_c, 0, 96, 0
2, 196038, Note_on_c, 0, 61, 0
2, 196038, Note_on_c, 0, 97, 0
2, 196038, Note_on_c, 0, 87, 0
2, 196038, Note_on_c, 0, 89, 0
2, 196039, Note_on_c, 0, 82, 0
2, 196040, Note_on_c, 0, 84, 0
2, 196040, Note_on_c, 0, 56, 0
2, 196040, Note_on_c, 0, 65, 0
2, 196040, Note_on_c, 0, 85, 0
2, 196042, Note_on_c, 0, 68, 0
2, 196042, Note_on_c, 0, 44, 0
2, 196046, Control_c, 0, 64, 0
2, 196047, Note_on_c, 0, 53, 0
2, 196062, Note_on_c, 0, 37, 0
2, 196072, Note_on_c, 0, 37, 88
2, 196078, Note_on_c, 0, 92, 0
2, 196085, Note_on_c, 0, 80, 100
2, 196087, Note_on_c, 0, 92, 99
2, 196176, Note_on_c, 0, 44, 81
2, 196205, Note_on_c, 0, 80, 0
2, 196205, Note_on_c, 0, 44, 0
2, 196208, Note_on_c, 0, 37, 0
2, 196214, Note_on_c, 0, 92, 0
2, 196313, Note_on_c, 0, 94, 115
2, 196315, Note_on_c, 0, 82, 112
2, 196316, Control_c, 0, 64, 127
2, 196316, Note_on_c, 0, 87, 104
2, 196318, Note_on_c, 0, 39, 99
2, 196319, Note_on_c, 0, 91, 91
2, 196319, Note_on_c, 0, 27, 92
2, 196323, Note_on_c, 0, 27, 0
2, 196573, Note_on_c, 0, 51, 61
2, 196663, Note_on_c, 0, 63, 94
2, 196663, Note_on_c, 0, 58, 88
2, 196664, Note_on_c, 0, 55, 90
2, 196792, Note_on_c, 0, 39, 0
2, 196797, Note_on_c, 0, 39, 90
2, 196907, Note_on_c, 0, 51, 0
2, 196912, Note_on_c, 0, 51, 87
2, 197015, Note_on_c, 0, 39, 0
2, 197022, Note_on_c, 0, 51, 0
2, 197022, Note_on_c, 0, 58, 0
2, 197025, Note_on_c, 0, 39, 56
2, 197028, Note_on_c, 0, 51, 70
2, 197030, Note_on_c, 0, 58, 63
2, 197114, Note_on_c, 0, 55, 0
2, 197114, Note_on_c, 0, 58, 0
2, 197114, Note_on_c, 0, 63, 0
2, 197122, Note_on_c, 0, 63, 77
2, 197123, Note_on_c, 0, 58, 79
2, 197125, Note_on_c, 0, 55, 80
2, 197153, Note_on_c, 0, 82, 0
2, 197153, Note_on_c, 0, 94, 0
2, 197157, Note_on_c, 0, 82, 106
2, 197158, Note_on_c, 0, 94, 107
2, 197235, Note_on_c, 0, 94, 0
2, 197235, Note_on_c, 0, 82, 0
2, 197235, Note_on_c, 0, 55, 0
2, 197236, Note_on_c, 0, 91, 0
2, 197236, Note_on_c, 0, 58, 0
2, 197236, Note_on_c, 0, 63, 0
2, 197236, Note_on_c, 0, 87, 0
2, 197240, Control_c, 0, 64, 0
2, 197253, Note_on_c, 0, 39, 0
2, 197260, Note_on_c, 0, 51, 0
2, 197263, Note_on_c, 0, 39, 91
2, 197265, Note_on_c, 0, 92, 107
2, 197272, Note_on_c, 0, 80, 99
2, 197276, Control_c, 0, 64, 127
2, 197362, Note_on_c, 0, 51, 97
2, 197394, Note_on_c, 0, 91, 107
2, 197396, Note_on_c, 0, 79, 100
2, 197420, Note_on_c, 0, 85, 56
2, 197498, Note_on_c, 0, 51, 0
2, 197498, Note_on_c, 0, 80, 0
2, 197498, Note_on_c, 0, 92, 0
2, 197504, Note_on_c, 0, 92, 109
2, 197506, Note_on_c, 0, 80, 105
2, 197507, Note_on_c, 0, 51, 93
2, 197585, Note_on_c, 0, 54, 95
2, 197603, Note_on_c, 0, 58, 79
2, 197615, Note_on_c, 0, 94, 111
2, 197617, Note_on_c, 0, 82, 105
2, 197709, Note_on_c, 0, 79, 0
2, 197710, Note_on_c, 0, 80, 0
2, 197711, Control_c, 0, 64, 0
2, 197712, Note_on_c, 0, 82, 0
2, 197712, Note_on_c, 0, 92, 0
2, 197713, Note_on_c, 0, 85, 0
2, 197714, Note_on_c, 0, 54, 0
2, 197721, Note_on_c, 0, 39, 0
2, 197729, Note_on_c, 0, 91, 0
2, 197730, Note_on_c, 0, 99, 113
2, 197731, Note_on_c, 0, 39, 96
2, 197733, Note_on_c, 0, 87, 113
2, 197734, Note_on_c, 0, 91, 102
2, 197736, Note_on_c, 0, 51, 0
2, 197744, Control_c, 0, 64, 127
2, 197764, Note_on_c, 0, 97, 33
2, 197831, Note_on_c, 0, 51, 103
2, 197952, Note_on_c, 0, 51, 0
2, 197956, Note_on_c, 0, 51, 85
2, 197958, Note_on_c, 0, 96, 108
2, 197959, Note_on_c, 0, 84, 110
2, 197965, Note_on_c, 0, 87, 0
2, 198013, Note_on_c, 0, 58, 0
2, 198024, Note_on_c, 0, 58, 86
2, 198059, Note_on_c, 0, 99, 0
2, 198065, Note_on_c, 0, 99, 100
2, 198082, Note_on_c, 0, 97, 0
2, 198092, Note_on_c, 0, 97, 53
2, 198094, Note_on_c, 0, 85, 57
2, 198162, Note_on_c, 0, 58, 0
2, 198162, Note_on_c, 0, 51, 0
2, 198162, Note_on_c, 0, 91, 0
2, 198162, Note_on_c, 0, 85, 0
2, 198162, Control_c, 0, 64, 0
2, 198162, Note_on_c, 0, 97, 0
2, 198163, Note_on_c, 0, 84, 0
2, 198163, Note_on_c, 0, 39, 0
2, 198174, Note_on_c, 0, 94, 0
2, 198190, Note_on_c, 0, 96, 0
2, 198194, Note_on_c, 0, 101, 113
2, 198196, Note_on_c, 0, 89, 111
2, 198197, Note_on_c, 0, 92, 110
2, 198198, Note_on_c, 0, 96, 99
2, 198199, Note_on_c, 0, 53, 111
2, 198200, Note_on_c, 0, 41, 105
2, 198220, Note_on_c, 0, 99, 0
2, 198228, Control_c, 0, 64, 127
2, 198231, Note_on_c, 0, 99, 45
2, 198447, Note_on_c, 0, 77, 92
2, 198474, Note_on_c, 0, 92, 0
2, 198485, Note_on_c, 0, 92, 107
2, 198493, Note_on_c, 0, 80, 83
2, 198571, Note_on_c, 0, 72, 88
2, 198585, Note_on_c, 0, 91, 112
2, 198587, Note_on_c, 0, 79, 100
2, 198664, Note_on_c, 0, 68, 107
2, 198701, Note_on_c, 0, 87, 106
2, 198703, Note_on_c, 0, 75, 104
2, 198757, Note_on_c, 0, 67, 96
2, 198808, Note_on_c, 0, 85, 104
2, 198810, Note_on_c, 0, 73, 90
2, 198815, Note_on_c, 0, 82, 92
2, 198869, Note_on_c, 0, 65, 99
2, 198904, Note_on_c, 0, 82, 0
2, 198912, Note_on_c, 0, 68, 0
2, 198912, Note_on_c, 0, 80, 0
2, 198915, Note_on_c, 0, 82, 96
2, 198915, Note_on_c, 0, 68, 94
2, 198916, Note_on_c, 0, 80, 97
2, 198988, Note_on_c, 0, 60, 91
2, 199011, Note_on_c, 0, 67, 0
2, 199011, Note_on_c, 0, 79, 0
2, 199017, Note_on_c, 0, 79, 104
2, 199023, Note_on_c, 0, 67, 101
2, 199104, Note_on_c, 0, 56, 106
2, 199127, Note_on_c, 0, 75, 0
2, 199133, Note_on_c, 0, 75, 108
2, 199137, Note_on_c, 0, 63, 88
2, 199208, Note_on_c, 0, 55, 72
2, 199249, Note_on_c, 0, 67, 0
2, 199254, Note_on_c, 0, 70, 98
2, 199261, Note_on_c, 0, 67, 82
2, 199261, Note_on_c, 0, 58, 95
2, 199311, Note_on_c, 0, 53, 0
2, 199317, Note_on_c, 0, 53, 89
2, 199365, Note_on_c, 0, 56, 0
2, 199365, Note_on_c, 0, 68, 0
2, 199373, Note_on_c, 0, 68, 96
2, 199373, Note_on_c, 0, 56, 92
2, 199452, Note_on_c, 0, 48, 80
2, 199472, Note_on_c, 0, 67, 0
2, 199480, Note_on_c, 0, 55, 0
2, 199484, Note_on_c, 0, 67, 102
2, 199484, Note_on_c, 0, 55, 89
2, 199568, Note_on_c, 0, 44, 94
2, 199587, Note_on_c, 0, 63, 0
2, 199596, Note_on_c, 0, 63, 88
2, 199606, Note_on_c, 0, 51, 67
2, 199610, Note_on_c, 0, 65, 0
2, 199620, Note_on_c, 0, 65, 45
2, 199664, Note_on_c, 0, 43, 71
2, 199695, Note_on_c, 0, 58, 0
2, 199695, Note_on_c, 0, 70, 0
2, 199700, Note_on_c, 0, 58, 100
2, 199705, Note_on_c, 0, 70, 100
2, 199706, Note_on_c, 0, 46, 79
2, 199710, Note_on_c, 0, 56, 0
2, 199710, Note_on_c, 0, 68, 0
2, 199720, Note_on_c, 0, 68, 82
2, 199721, Note_on_c, 0, 56, 73
2, 199787, Note_on_c, 0, 41, 0
2, 199796, Note_on_c, 0, 41, 76
2, 199818, Note_on_c, 0, 44, 0
2, 199818, Note_on_c, 0, 56, 0
2, 199824, Note_on_c, 0, 44, 66
2, 199826, Note_on_c, 0, 56, 86
2, 199829, Note_on_c, 0, 92, 0
2, 199830, Note_on_c, 0, 99, 0
2, 199831, Note_on_c, 0, 80, 0
2, 199833, Note_on_c, 0, 77, 0
2, 199833, Note_on_c, 0, 87, 0
2, 199833, Note_on_c, 0, 53, 0
2, 199835, Note_on_c, 0, 51, 0
2, 199835, Note_on_c, 0, 75, 0
2, 199835, Note_on_c, 0, 67, 0
2, 199835, Note_on_c, 0, 65, 0
2, 199835, Note_on_c, 0, 72, 0
2, 199836, Note_on_c, 0, 60, 0
2, 199836, Note_on_c, 0, 63, 0
2, 199836, Note_on_c, 0, 79, 0
2, 199837, Note_on_c, 0, 73, 0
2, 199837, Note_on_c, 0, 58, 0
2, 199837, Note_on_c, 0, 82, 0
2, 199837, Note_on_c, 0, 68, 0
2, 199837, Note_on_c, 0, 70, 0
2, 199837, Note_on_c, 0, 85, 0
2, 199838, Note_on_c, 0, 91, 0
2, 199841, Note_on_c, 0, 46, 0
2, 199842, Control_c, 0, 64, 0
2, 199856, Note_on_c, 0, 96, 0
2, 199856, Note_on_c, 0, 101, 0
2, 199864, Note_on_c, 0, 89, 0
2, 199872, Control_c, 0, 64, 127
2, 199910, Note_on_c, 0, 56, 0
2, 199918, Note_on_c, 0, 43, 0
2, 199918, Note_on_c, 0, 55, 0
2, 199925, Note_on_c, 0, 41, 0
2, 199925, Note_on_c, 0, 44, 0
2, 199925, Note_on_c, 0, 55, 105
2, 199929, Note_on_c, 0, 43, 91
2, 199929, Note_on_c, 0, 36, 92
2, 199948, Note_on_c, 0, 48, 0
2, 199952, Control_c, 0, 64, 0
2, 199964, Note_on_c, 0, 55, 0
2, 199965, Note_on_c, 0, 43, 0
2, 199969, Note_on_c, 0, 36, 0
2, 200055, Note_on_c, 0, 41, 95
2, 200056, Note_on_c, 0, 29, 100
2, 200163, Control_c, 0, 64, 127
2, 200667, Note_on_c, 0, 65, 76
2, 200705, Note_on_c, 0, 68, 93
2, 200737, Note_on_c, 0, 75, 109
2, 200748, Note_on_c, 0, 72, 96
2, 200749, Note_on_c, 0, 87, 109
2, 200750, Note_on_c, 0, 79, 100
2, 200755, Note_on_c, 0, 84, 94
2, 204364, Note_on_c, 0, 41, 0
2, 204365, Note_on_c, 0, 87, 0
2, 204366, Note_on_c, 0, 72, 0
2, 204366, Note_on_c, 0, 68, 0
2, 204367, Note_on_c, 0, 75, 0
2, 204371, Control_c, 0, 64, 0
2, 204541, Note_on_c, 0, 65, 0
2, 204664, Note_on_c, 0, 29, 0
2, 205355, Note_on_c, 0, 79, 0
2, 205363, Note_on_c, 0, 84, 0
2, 206484, Control_c, 0, 64, 127
2, 208381, Control_c, 0, 64, 0
2, 209018, Control_c, 0, 64, 127
2, 209280, Control_c, 0, 64, 0
2, 209281, End_track
0, 0, End_of_file
