0, 0, Header, 1, 2, 384
1, 0, Start_track
1, 0, Tempo, 500000
1, 0, Time_signature, 4, 2, 24, 8
1, 1, End_track
2, 0, Start_track
2, 443, Note_on_c, 0, 60, 50
2, 521, Note_on_c, 0, 67, 41
2, 565, Note_on_c, 0, 71, 60
2, 591, Control_c, 0, 64, 127
2, 611, Note_on_c, 0, 76, 65
2, 699, Note_on_c, 0, 79, 64
2, 735, Note_on_c, 0, 83, 71
2, 815, Note_on_c, 0, 88, 83
2, 2434, Note_on_c, 0, 60, 0
2, 2441, Note_on_c, 0, 60, 51
2, 2487, Note_on_c, 0, 68, 59
2, 2533, Note_on_c, 0, 72, 65
2, 2579, Note_on_c, 0, 77, 60
2, 2612, Note_on_c, 0, 71, 0
2, 2612, Note_on_c, 0, 88, 0
2, 2612, Note_on_c, 0, 83, 0
2, 2613, Note_on_c, 0, 76, 0
2, 2614, Control_c, 0, 64, 0
2, 2614, Note_on_c, 0, 79, 0
2, 2615, Note_on_c, 0, 67, 0
2, 2632, Note_on_c, 0, 80, 67
2, 2670, Note_on_c, 0, 84, 67
2, 2741, Control_c, 0, 64, 127
2, 2752, Note_on_c, 0, 89, 96
2, 3314, Note_on_c, 0, 88, 83
2, 3868, Note_on_c, 0, 86, 74
2, 4300, Note_on_c, 0, 60, 0
2, 4310, Note_on_c, 0, 60, 50
2, 4334, Note_on_c, 0, 67, 42
2, 4398, Note_on_c, 0, 71, 61
2, 4428, Note_on_c, 0, 76, 63
2, 4483, Note_on_c, 0, 88, 0
2, 4484, Note_on_c, 0, 89, 0
2, 4484, Note_on_c, 0, 80, 0
2, 4485, Note_on_c, 0, 86, 0
2, 4486, Note_on_c, 0, 72, 0
2, 4486, Note_on_c, 0, 84, 0
2, 4486, Control_c, 0, 64, 0
2, 4487, Note_on_c, 0, 77, 0
2, 4505, Note_on_c, 0, 79, 59
2, 4531, Note_on_c, 0, 68, 0
2, 4539, Note_on_c, 0, 83, 70
2, 4542, Note_on_c, 0, 63, 29
2, 4610, Note_on_c, 0, 88, 85
2, 5030, Note_on_c, 0, 60, 0
2, 5882, Control_c, 0, 64, 127
2, 6237, Note_on_c, 0, 60, 37
2, 6284, Note_on_c, 0, 68, 58
2, 6317, Note_on_c, 0, 72, 56
2, 6360, Note_on_c, 0, 77, 64
2, 6425, Note_on_c, 0, 80, 71
2, 6446, Note_on_c, 0, 88, 0
2, 6447, Note_on_c, 0, 71, 0
2, 6448, Note_on_c, 0, 83, 0
2, 6448, Note_on_c, 0, 79, 0
2, 6452, Control_c, 0, 64, 0
2, 6460, Note_on_c, 0, 84, 72
2, 6489, Control_c, 0, 64, 127
2, 6497, Note_on_c, 0, 76, 0
2, 6520, Note_on_c, 0, 63, 0
2, 6523, Note_on_c, 0, 89, 89
2, 7071, Note_on_c, 0, 88, 85
2, 7656, Note_on_c, 0, 86, 77
2, 8173, Note_on_c, 0, 53, 39
2, 8263, Note_on_c, 0, 60, 0
2, 8271, Note_on_c, 0, 60, 44
2, 8325, Note_on_c, 0, 67, 0
2, 8331, Note_on_c, 0, 67, 43
2, 8363, Note_on_c, 0, 72, 0
2, 8368, Note_on_c, 0, 72, 61
2, 8417, Note_on_c, 0, 77, 0
2, 8428, Note_on_c, 0, 77, 63
2, 8491, Note_on_c, 0, 79, 70
2, 8570, Note_on_c, 0, 84, 0
2, 8575, Note_on_c, 0, 84, 74
2, 8576, Note_on_c, 0, 63, 31
2, 8597, Note_on_c, 0, 88, 0
2, 8598, Note_on_c, 0, 68, 0
2, 8599, Note_on_c, 0, 89, 0
2, 8604, Note_on_c, 0, 80, 0
2, 8605, Note_on_c, 0, 86, 0
2, 8605, Control_c, 0, 64, 0
2, 9600, Note_on_c, 0, 53, 0
2, 9600, Note_on_c, 0, 63, 0
2, 10045, Control_c, 0, 64, 127
2, 11351, Note_on_c, 0, 77, 0
2, 11369, Note_on_c, 0, 83, 47
2, 11370, Note_on_c, 0, 91, 56
2, 11679, Note_on_c, 0, 95, 65
2, 11709, Note_on_c, 0, 86, 48
2, 11888, Note_on_c, 0, 84, 0
2, 11891, Note_on_c, 0, 93, 79
2, 11899, Note_on_c, 0, 84, 60
2, 12053, Note_on_c, 0, 89, 75
2, 12059, Note_on_c, 0, 81, 68
2, 12203, Note_on_c, 0, 79, 0
2, 12213, Note_on_c, 0, 88, 68
2, 12214, Note_on_c, 0, 79, 68
2, 12334, Note_on_c, 0, 91, 0
2, 12341, Note_on_c, 0, 60, 0
2, 12341, Note_on_c, 0, 83, 0
2, 12345, Note_on_c, 0, 91, 74
2, 12350, Note_on_c, 0, 83, 66
2, 12441, Note_on_c, 0, 81, 0
2, 12450, Note_on_c, 0, 81, 64
2, 12464, Note_on_c, 0, 89, 0
2, 12469, Note_on_c, 0, 89, 85
2, 12556, Note_on_c, 0, 77, 65
2, 12579, Note_on_c, 0, 86, 0
2, 12588, Note_on_c, 0, 86, 76
2, 12683, Note_on_c, 0, 76, 67
2, 12687, Note_on_c, 0, 84, 0
2, 12692, Note_on_c, 0, 62, 40
2, 12697, Note_on_c, 0, 84, 74
2, 12787, Note_on_c, 0, 79, 0
2, 12787, Note_on_c, 0, 88, 0
2, 12792, Note_on_c, 0, 88, 74
2, 12794, Note_on_c, 0, 79, 63
2, 12871, Note_on_c, 0, 77, 0
2, 12876, Note_on_c, 0, 77, 67
2, 12887, Note_on_c, 0, 86, 0
2, 12898, Note_on_c, 0, 86, 71
2, 12940, Note_on_c, 0, 67, 0
2, 12958, Note_on_c, 0, 74, 66
2, 12979, Note_on_c, 0, 72, 0
2, 12979, Note_on_c, 0, 83, 0
2, 12990, Note_on_c, 0, 83, 73
2, 13063, Note_on_c, 0, 81, 0
2, 13068, Note_on_c, 0, 72, 70
2, 13069, Note_on_c, 0, 81, 77
2, 13140, Note_on_c, 0, 84, 0
2, 13151, Note_on_c, 0, 84, 79
2, 13217, Note_on_c, 0, 74, 0
2, 13222, Note_on_c, 0, 74, 76
2, 13224, Note_on_c, 0, 83, 0
2, 13230, Note_on_c, 0, 83, 78
2, 13301, Note_on_c, 0, 79, 0
2, 13307, Note_on_c, 0, 71, 68
2, 13311, Note_on_c, 0, 79, 81
2, 13378, Note_on_c, 0, 77, 0
2, 13388, Note_on_c, 0, 77, 76
2, 13396, Note_on_c, 0, 69, 69
2, 13455, Note_on_c, 0, 72, 0
2, 13455, Note_on_c, 0, 81, 0
2, 13459, Note_on_c, 0, 72, 65
2, 13459, Note_on_c, 0, 81, 79
2, 13524, Note_on_c, 0, 71, 0
2, 13524, Note_on_c, 0, 79, 0
2, 13530, Note_on_c, 0, 71, 79
2, 13535, Note_on_c, 0, 79, 79
2, 13624, Note_on_c, 0, 76, 0
2, 13634, Note_on_c, 0, 76, 75
2, 13724, Note_on_c, 0, 74, 0
2, 13729, Note_on_c, 0, 65, 68
2, 13729, Note_on_c, 0, 74, 74
2, 13831, Note_on_c, 0, 69, 0
2, 13839, Note_on_c, 0, 77, 0
2, 13843, Note_on_c, 0, 69, 69
2, 13843, Note_on_c, 0, 77, 77
2, 13969, Note_on_c, 0, 76, 0
2, 13976, Note_on_c, 0, 76, 71
2, 13990, Note_on_c, 0, 71, 0
2, 14089, Note_on_c, 0, 64, 61
2, 14108, Note_on_c, 0, 72, 0
2, 14118, Note_on_c, 0, 72, 70
2, 14229, Note_on_c, 0, 55, 58
2, 14231, Note_on_c, 0, 62, 0
2, 14276, Note_on_c, 0, 62, 64
2, 14290, Note_on_c, 0, 95, 0
2, 14291, Note_on_c, 0, 64, 0
2, 14291, Note_on_c, 0, 83, 0
2, 14292, Note_on_c, 0, 74, 0
2, 14292, Note_on_c, 0, 91, 0
2, 14292, Note_on_c, 0, 65, 0
2, 14292, Note_on_c, 0, 93, 0
2, 14293, Note_on_c, 0, 84, 0
2, 14293, Note_on_c, 0, 89, 0
2, 14294, Note_on_c, 0, 77, 0
2, 14294, Note_on_c, 0, 81, 0
2, 14294, Control_c, 0, 64, 0
2, 14294, Note_on_c, 0, 72, 0
2, 14307, Note_on_c, 0, 69, 0
2, 14307, Note_on_c, 0, 76, 0
2, 14307, Note_on_c, 0, 79, 0
2, 14307, Note_on_c, 0, 86, 0
2, 14307, Note_on_c, 0, 88, 0
2, 14339, Note_on_c, 0, 71, 74
2, 14340, Note_on_c, 0, 65, 60
2, 14453, Control_c, 0, 64, 127
2, 14585, Note_on_c, 0, 72, 63
2, 14714, Note_on_c, 0, 71, 0
2, 14725, Note_on_c, 0, 71, 52
2, 14830, Note_on_c, 0, 72, 0
2, 14836, Note_on_c, 0, 72, 65
2, 14914, Note_on_c, 0, 71, 0
2, 14919, Note_on_c, 0, 71, 63
2, 14983, Note_on_c, 0, 72, 0
2, 14988, Note_on_c, 0, 72, 64
2, 15045, Note_on_c, 0, 71, 0
2, 15049, Note_on_c, 0, 71, 67
2, 15121, Note_on_c, 0, 72, 0
2, 15132, Note_on_c, 0, 72, 57
2, 15175, Note_on_c, 0, 71, 0
2, 15186, Note_on_c, 0, 71, 69
2, 15244, Note_on_c, 0, 72, 0
2, 15255, Note_on_c, 0, 72, 65
2, 15306, Note_on_c, 0, 71, 0
2, 15314, Note_on_c, 0, 71, 71
2, 15375, Note_on_c, 0, 72, 0
2, 15380, Note_on_c, 0, 72, 67
2, 15413, Note_on_c, 0, 71, 0
2, 15419, Note_on_c, 0, 71, 72
2, 15498, Note_on_c, 0, 72, 0
2, 15503, Note_on_c, 0, 72, 66
2, 15582, Note_on_c, 0, 72, 0
2, 15590, Note_on_c, 0, 72, 69
2, 15621, Note_on_c, 0, 71, 0
2, 15632, Note_on_c, 0, 71, 58
2, 15725, Note_on_c, 0, 69, 71
2, 15813, Note_on_c, 0, 71, 0
2, 15817, Note_on_c, 0, 71, 76
2, 15928, Note_on_c, 0, 72, 0
2, 15937, Note_on_c, 0, 72, 80
2, 15963, Control_c, 0, 64, 0
2, 15969, Note_on_c, 0, 69, 0
2, 15969, Note_on_c, 0, 65, 0
2, 15970, Note_on_c, 0, 62, 0
2, 15971, Note_on_c, 0, 71, 0
2, 15971, Note_on_c, 0, 55, 0
2, 16054, Note_on_c, 0, 74, 76
2, 16089, Control_c, 0, 64, 127
2, 16183, Note_on_c, 0, 76, 66
2, 16281, Note_on_c, 0, 74, 0
2, 16286, Note_on_c, 0, 74, 63
2, 16381, Note_on_c, 0, 76, 0
2, 16392, Note_on_c, 0, 76, 51
2, 16427, Note_on_c, 0, 74, 0
2, 16432, Note_on_c, 0, 74, 65
2, 16496, Note_on_c, 0, 76, 0
2, 16506, Note_on_c, 0, 76, 60
2, 16565, Note_on_c, 0, 74, 0
2, 16576, Note_on_c, 0, 74, 63
2, 16634, Note_on_c, 0, 76, 0
2, 16639, Note_on_c, 0, 76, 63
2, 16688, Note_on_c, 0, 74, 0
2, 16694, Note_on_c, 0, 74, 68
2, 16750, Note_on_c, 0, 76, 0
2, 16757, Note_on_c, 0, 76, 64
2, 16803, Note_on_c, 0, 74, 0
2, 16808, Note_on_c, 0, 74, 68
2, 16857, Note_on_c, 0, 76, 0
2, 16866, Note_on_c, 0, 76, 75
2, 16911, Note_on_c, 0, 74, 0
2, 16917, Note_on_c, 0, 74, 71
2, 16980, Note_on_c, 0, 76, 0
2, 16984, Note_on_c, 0, 76, 70
2, 17034, Note_on_c, 0, 74, 0
2, 17043, Note_on_c, 0, 74, 69
2, 17088, Note_on_c, 0, 76, 0
2, 17096, Note_on_c, 0, 76, 77
2, 17180, Note_on_c, 0, 74, 0
2, 17185, Note_on_c, 0, 74, 77
2, 17292, Note_on_c, 0, 73, 72
2, 17402, Note_on_c, 0, 74, 0
2, 17409, Note_on_c, 0, 74, 77
2, 17548, Note_on_c, 0, 76, 0
2, 17558, Note_on_c, 0, 76, 74
2, 17698, Note_on_c, 0, 73, 0
2, 17704, Note_on_c, 0, 76, 0
2, 17707, Control_c, 0, 64, 0
2, 17710, Note_on_c, 0, 72, 0
2, 17711, Note_on_c, 0, 77, 72
2, 17733, Note_on_c, 0, 74, 0
2, 17744, Note_on_c, 0, 74, 56
2, 17802, Control_c, 0, 64, 127
2, 17908, Note_on_c, 0, 76, 69
2, 17910, Note_on_c, 0, 79, 72
2, 18040, Note_on_c, 0, 74, 0
2, 18040, Note_on_c, 0, 77, 0
2, 18049, Note_on_c, 0, 77, 73
2, 18051, Note_on_c, 0, 74, 65
2, 18178, Note_on_c, 0, 76, 0
2, 18189, Note_on_c, 0, 76, 68
2, 18190, Note_on_c, 0, 73, 72
2, 18293, Note_on_c, 0, 77, 0
2, 18299, Note_on_c, 0, 77, 74
2, 18324, Note_on_c, 0, 74, 0
2, 18329, Note_on_c, 0, 74, 61
2, 18424, Note_on_c, 0, 79, 0
2, 18435, Note_on_c, 0, 79, 80
2, 18447, Note_on_c, 0, 76, 0
2, 18452, Note_on_c, 0, 76, 55
2, 18584, Note_on_c, 0, 81, 68
2, 18593, Note_on_c, 0, 77, 0
2, 18597, Note_on_c, 0, 77, 64
2, 18600, Note_on_c, 0, 73, 0
2, 18601, Note_on_c, 0, 74, 0
2, 18602, Note_on_c, 0, 76, 0
2, 18602, Control_c, 0, 64, 0
2, 18624, Note_on_c, 0, 79, 0
2, 18700, Control_c, 0, 64, 127
2, 18747, Note_on_c, 0, 79, 75
2, 18755, Note_on_c, 0, 83, 71
2, 18756, Note_on_c, 0, 62, 42
2, 18937, Note_on_c, 0, 84, 66
2, 18938, Note_on_c, 0, 81, 0
2, 18944, Note_on_c, 0, 81, 66
2, 18961, Note_on_c, 0, 65, 21
2, 19146, Note_on_c, 0, 83, 0
2, 19149, Note_on_c, 0, 86, 73
2, 19152, Note_on_c, 0, 83, 55
2, 19188, Note_on_c, 0, 43, 25
2, 19192, Note_on_c, 0, 43, 0
2, 19402, Note_on_c, 0, 88, 69
2, 19407, Note_on_c, 0, 62, 0
2, 19415, Note_on_c, 0, 84, 0
2, 19418, Note_on_c, 0, 62, 34
2, 19419, Note_on_c, 0, 84, 48
2, 19691, Note_on_c, 0, 31, 32
2, 19699, Note_on_c, 0, 31, 0
2, 19744, Note_on_c, 0, 89, 75
2, 19745, Note_on_c, 0, 86, 0
2, 19750, Note_on_c, 0, 86, 56
2, 19752, Note_on_c, 0, 65, 0
2, 19779, Note_on_c, 0, 85, 33
2, 19783, Note_on_c, 0, 85, 0
2, 20255, Note_on_c, 0, 91, 72
2, 20267, Note_on_c, 0, 83, 0
2, 20272, Note_on_c, 0, 83, 51
2, 20276, Note_on_c, 0, 74, 53
2, 20282, Note_on_c, 0, 79, 0
2, 20288, Note_on_c, 0, 79, 48
2, 20306, Note_on_c, 0, 84, 0
2, 20307, Note_on_c, 0, 62, 0
2, 20308, Note_on_c, 0, 81, 0
2, 20309, Note_on_c, 0, 77, 0
2, 20309, Note_on_c, 0, 89, 0
2, 20309, Control_c, 0, 64, 0
2, 22080, Control_c, 0, 64, 127
2, 23393, Note_on_c, 0, 74, 0
2, 23393, Note_on_c, 0, 88, 0
2, 23424, Note_on_c, 0, 86, 0
2, 23439, Note_on_c, 0, 79, 0
2, 23439, Note_on_c, 0, 83, 0
2, 23454, Control_c, 0, 64, 0
2, 23508, Note_on_c, 0, 91, 0
2, 24780, Note_on_c, 0, 76, 69
2, 24785, Note_on_c, 0, 71, 63
2, 24786, Note_on_c, 0, 48, 44
2, 24795, Note_on_c, 0, 64, 50
2, 24818, Note_on_c, 0, 67, 31
2, 25551, Control_c, 0, 64, 127
2, 25901, Note_on_c, 0, 55, 46
2, 26038, Control_c, 0, 64, 0
2, 26058, Control_c, 0, 64, 127
2, 26444, Note_on_c, 0, 72, 77
2, 26449, Note_on_c, 0, 48, 0
2, 26454, Note_on_c, 0, 68, 66
2, 26460, Note_on_c, 0, 60, 48
2, 26461, Note_on_c, 0, 48, 46
2, 26461, Note_on_c, 0, 56, 60
2, 26468, Note_on_c, 0, 65, 47
2, 26487, Control_c, 0, 64, 0
2, 26488, Note_on_c, 0, 64, 0
2, 26489, Note_on_c, 0, 71, 0
2, 26490, Note_on_c, 0, 55, 0
2, 26491, Note_on_c, 0, 67, 0
2, 26493, Note_on_c, 0, 76, 0
2, 26672, Control_c, 0, 64, 127
2, 26718, Note_on_c, 0, 60, 0
2, 27016, Note_on_c, 0, 74, 79
2, 27586, Note_on_c, 0, 77, 86
2, 28129, Note_on_c, 0, 76, 79
2, 28158, Note_on_c, 0, 71, 67
2, 28160, Note_on_c, 0, 64, 51
2, 28162, Note_on_c, 0, 48, 0
2, 28166, Note_on_c, 0, 67, 45
2, 28167, Note_on_c, 0, 48, 44
2, 28183, Control_c, 0, 64, 0
2, 28183, Note_on_c, 0, 74, 0
2, 28183, Note_on_c, 0, 68, 0
2, 28186, Note_on_c, 0, 65, 0
2, 28187, Note_on_c, 0, 56, 0
2, 28187, Note_on_c, 0, 72, 0
2, 28187, Note_on_c, 0, 77, 0
2, 28546, Control_c, 0, 64, 127
2, 29266, Note_on_c, 0, 55, 52
2, 29820, Note_on_c, 0, 72, 82
2, 29821, Note_on_c, 0, 48, 0
2, 29825, Note_on_c, 0, 56, 59
2, 29827, Note_on_c, 0, 68, 72
2, 29831, Note_on_c, 0, 48, 45
2, 29836, Note_on_c, 0, 60, 51
2, 29838, Note_on_c, 0, 65, 45
2, 29848, Control_c, 0, 64, 0
2, 29849, Note_on_c, 0, 64, 0
2, 29849, Note_on_c, 0, 67, 0
2, 29850, Note_on_c, 0, 71, 0
2, 29850, Note_on_c, 0, 76, 0
2, 29850, Note_on_c, 0, 55, 0
2, 29998, Control_c, 0, 64, 127
2, 30082, Note_on_c, 0, 60, 0
2, 30372, Note_on_c, 0, 74, 84
2, 30935, Note_on_c, 0, 77, 83
2, 30936, Note_on_c, 0, 44, 43
2, 30942, Note_on_c, 0, 44, 0
2, 31491, Note_on_c, 0, 76, 72
2, 31495, Note_on_c, 0, 72, 0
2, 31505, Note_on_c, 0, 68, 0
2, 31506, Note_on_c, 0, 74, 0
2, 31507, Note_on_c, 0, 72, 66
2, 31507, Note_on_c, 0, 56, 0
2, 31507, Control_c, 0, 64, 0
2, 31508, Note_on_c, 0, 65, 0
2, 31508, Note_on_c, 0, 77, 0
2, 31515, Note_on_c, 0, 45, 53
2, 31515, Note_on_c, 0, 64, 58
2, 31518, Note_on_c, 0, 69, 51
2, 31526, Note_on_c, 0, 48, 0
2, 31825, Control_c, 0, 64, 127
2, 32080, Note_on_c, 0, 52, 63
2, 32623, Note_on_c, 0, 60, 70
2, 33070, Note_on_c, 0, 69, 0
2, 33073, Note_on_c, 0, 43, 45
2, 33081, Note_on_c, 0, 69, 66
2, 33097, Note_on_c, 0, 50, 43
2, 33137, Note_on_c, 0, 70, 72
2, 33159, Note_on_c, 0, 58, 58
2, 33164, Note_on_c, 0, 74, 75
2, 33187, Note_on_c, 0, 45, 0
2, 33188, Control_c, 0, 64, 0
2, 33188, Note_on_c, 0, 52, 0
2, 33188, Note_on_c, 0, 64, 0
2, 33188, Note_on_c, 0, 76, 0
2, 33189, Note_on_c, 0, 60, 0
2, 33200, Note_on_c, 0, 72, 0
2, 33219, Note_on_c, 0, 81, 96
2, 33308, Control_c, 0, 64, 127
2, 33765, Note_on_c, 0, 79, 86
2, 33785, Note_on_c, 0, 67, 57
2, 34343, Note_on_c, 0, 76, 71
2, 34352, Note_on_c, 0, 72, 61
2, 34360, Note_on_c, 0, 58, 0
2, 34364, Control_c, 0, 64, 0
2, 34368, Note_on_c, 0, 69, 0
2, 34371, Note_on_c, 0, 48, 44
2, 34371, Note_on_c, 0, 58, 47
2, 34371, Note_on_c, 0, 62, 47
2, 34373, Note_on_c, 0, 43, 0
2, 34373, Note_on_c, 0, 50, 0
2, 34373, Note_on_c, 0, 79, 0
2, 34373, Note_on_c, 0, 81, 0
2, 34373, Note_on_c, 0, 74, 0
2, 34374, Note_on_c, 0, 64, 46
2, 34375, Note_on_c, 0, 70, 0
2, 34460, Control_c, 0, 64, 127
2, 34928, Note_on_c, 0, 72, 0
2, 34935, Note_on_c, 0, 41, 46
2, 34936, Note_on_c, 0, 72, 69
2, 34962, Control_c, 0, 64, 0
2, 34963, Note_on_c, 0, 64, 0
2, 34963, Note_on_c, 0, 48, 0
2, 34964, Note_on_c, 0, 60, 40
2, 34964, Note_on_c, 0, 62, 0
2, 34966, Note_on_c, 0, 76, 0
2, 34969, Note_on_c, 0, 65, 37
2, 34974, Note_on_c, 0, 58, 0
2, 34974, Note_on_c, 0, 67, 0
2, 35266, Control_c, 0, 64, 127
2, 35504, Note_on_c, 0, 48, 48
2, 36063, Note_on_c, 0, 55, 51
2, 36633, Note_on_c, 0, 60, 0
2, 36642, Note_on_c, 0, 60, 48
2, 36646, Note_on_c, 0, 67, 45
2, 36647, Note_on_c, 0, 53, 39
2, 36648, Note_on_c, 0, 48, 0
2, 36659, Note_on_c, 0, 48, 29
2, 38451, Note_on_c, 0, 91, 81
2, 38460, Note_on_c, 0, 79, 72
2, 38465, Note_on_c, 0, 52, 53
2, 38472, Note_on_c, 0, 86, 64
2, 38487, Note_on_c, 0, 83, 52
2, 38509, Note_on_c, 0, 55, 0
2, 38509, Note_on_c, 0, 60, 0
2, 38510, Control_c, 0, 64, 0
2, 38510, Note_on_c, 0, 53, 0
2, 38510, Note_on_c, 0, 48, 0
2, 38510, Note_on_c, 0, 41, 0
2, 38511, Note_on_c, 0, 67, 0
2, 38512, Note_on_c, 0, 65, 0
2, 38522, Note_on_c, 0, 72, 0
2, 38937, Control_c, 0, 64, 127
2, 39011, Note_on_c, 0, 59, 53
2, 39544, Note_on_c, 0, 62, 58
2, 40089, Note_on_c, 0, 91, 0
2, 40098, Note_on_c, 0, 91, 83
2, 40104, Note_on_c, 0, 79, 0
2, 40108, Note_on_c, 0, 88, 73
2, 40115, Note_on_c, 0, 79, 71
2, 40116, Note_on_c, 0, 69, 51
2, 40122, Note_on_c, 0, 53, 43
2, 40126, Note_on_c, 0, 60, 53
2, 40130, Note_on_c, 0, 84, 54
2, 40140, Control_c, 0, 64, 0
2, 40146, Note_on_c, 0, 62, 0
2, 40147, Note_on_c, 0, 83, 0
2, 40147, Note_on_c, 0, 52, 0
2, 40147, Note_on_c, 0, 59, 0
2, 40148, Note_on_c, 0, 86, 0
2, 40220, Control_c, 0, 64, 127
2, 40661, Note_on_c, 0, 93, 92
2, 40669, Note_on_c, 0, 81, 74
2, 41187, Note_on_c, 0, 84, 0
2, 41197, Note_on_c, 0, 84, 75
2, 41205, Note_on_c, 0, 72, 68
2, 41740, Note_on_c, 0, 91, 0
2, 41748, Note_on_c, 0, 91, 84
2, 41756, Note_on_c, 0, 79, 0
2, 41758, Note_on_c, 0, 52, 56
2, 41764, Note_on_c, 0, 79, 70
2, 41772, Note_on_c, 0, 86, 61
2, 41776, Note_on_c, 0, 83, 52
2, 41781, Note_on_c, 0, 93, 0
2, 41782, Note_on_c, 0, 69, 0
2, 41783, Note_on_c, 0, 60, 0
2, 41783, Note_on_c, 0, 53, 0
2, 41783, Note_on_c, 0, 84, 0
2, 41783, Note_on_c, 0, 72, 0
2, 41789, Control_c, 0, 64, 0
2, 41794, Note_on_c, 0, 88, 0
2, 41809, Note_on_c, 0, 81, 0
2, 41940, Control_c, 0, 64, 127
2, 42313, Note_on_c, 0, 59, 59
2, 42851, Note_on_c, 0, 62, 66
2, 43392, Note_on_c, 0, 91, 0
2, 43401, Note_on_c, 0, 91, 82
2, 43407, Note_on_c, 0, 79, 0
2, 43409, Note_on_c, 0, 69, 59
2, 43410, Note_on_c, 0, 53, 48
2, 43412, Note_on_c, 0, 79, 71
2, 43413, Note_on_c, 0, 60, 59
2, 43416, Note_on_c, 0, 88, 69
2, 43417, Control_c, 0, 64, 0
2, 43429, Note_on_c, 0, 52, 0
2, 43430, Note_on_c, 0, 59, 0
2, 43432, Note_on_c, 0, 62, 0
2, 43432, Note_on_c, 0, 83, 0
2, 43432, Note_on_c, 0, 86, 0
2, 43432, Note_on_c, 0, 84, 49
2, 43484, Control_c, 0, 64, 127
2, 43973, Note_on_c, 0, 96, 85
2, 43983, Note_on_c, 0, 60, 0
2, 43983, Note_on_c, 0, 84, 0
2, 43988, Note_on_c, 0, 60, 37
2, 43990, Note_on_c, 0, 84, 66
2, 44242, Note_on_c, 0, 95, 89
2, 44246, Note_on_c, 0, 63, 40
2, 44247, Note_on_c, 0, 83, 75
2, 44252, Note_on_c, 0, 63, 0
2, 44502, Note_on_c, 0, 93, 99
2, 44506, Note_on_c, 0, 81, 87
2, 44766, Note_on_c, 0, 88, 0
2, 44771, Note_on_c, 0, 88, 91
2, 44774, Note_on_c, 0, 76, 79
2, 44797, Note_on_c, 0, 83, 0
2, 44801, Note_on_c, 0, 83, 41
2, 45043, Note_on_c, 0, 91, 0
2, 45053, Note_on_c, 0, 91, 83
2, 45058, Note_on_c, 0, 79, 0
2, 45066, Note_on_c, 0, 83, 0
2, 45067, Note_on_c, 0, 52, 60
2, 45069, Note_on_c, 0, 79, 76
2, 45069, Note_on_c, 0, 86, 72
2, 45071, Note_on_c, 0, 83, 69
2, 45091, Note_on_c, 0, 95, 0
2, 45092, Note_on_c, 0, 81, 0
2, 45092, Note_on_c, 0, 76, 0
2, 45092, Note_on_c, 0, 60, 0
2, 45092, Note_on_c, 0, 93, 0
2, 45093, Note_on_c, 0, 84, 0
2, 45093, Note_on_c, 0, 88, 0
2, 45093, Note_on_c, 0, 53, 0
2, 45096, Note_on_c, 0, 96, 0
2, 45098, Control_c, 0, 64, 0
2, 45112, Note_on_c, 0, 69, 0
2, 45335, Control_c, 0, 64, 127
2, 45592, Note_on_c, 0, 59, 59
2, 46144, Note_on_c, 0, 62, 60
2, 46663, Note_on_c, 0, 91, 0
2, 46668, Note_on_c, 0, 91, 80
2, 46671, Note_on_c, 0, 88, 72
2, 46671, Note_on_c, 0, 79, 0
2, 46676, Note_on_c, 0, 79, 72
2, 46678, Control_c, 0, 64, 0
2, 46684, Note_on_c, 0, 52, 0
2, 46685, Note_on_c, 0, 62, 0
2, 46686, Note_on_c, 0, 59, 0
2, 46687, Note_on_c, 0, 69, 53
2, 46687, Note_on_c, 0, 86, 0
2, 46689, Note_on_c, 0, 60, 53
2, 46689, Note_on_c, 0, 84, 55
2, 46699, Note_on_c, 0, 53, 40
2, 46702, Note_on_c, 0, 83, 0
2, 46786, Control_c, 0, 64, 127
2, 47229, Note_on_c, 0, 93, 90
2, 47232, Note_on_c, 0, 53, 0
2, 47234, Note_on_c, 0, 81, 72
2, 47239, Note_on_c, 0, 53, 40
2, 47761, Note_on_c, 0, 88, 0
2, 47771, Note_on_c, 0, 88, 83
2, 47785, Note_on_c, 0, 76, 63
2, 47846, Control_c, 0, 64, 0
2, 47930, Control_c, 0, 64, 127
2, 48314, Note_on_c, 0, 93, 0
2, 48319, Note_on_c, 0, 86, 73
2, 48322, Note_on_c, 0, 81, 0
2, 48322, Note_on_c, 0, 91, 0
2, 48327, Note_on_c, 0, 74, 61
2, 48330, Note_on_c, 0, 81, 65
2, 48341, Note_on_c, 0, 77, 53
2, 48342, Note_on_c, 0, 55, 44
2, 48354, Note_on_c, 0, 69, 0
2, 48355, Control_c, 0, 64, 0
2, 48356, Note_on_c, 0, 60, 0
2, 48356, Note_on_c, 0, 88, 0
2, 48356, Note_on_c, 0, 76, 0
2, 48356, Note_on_c, 0, 53, 0
2, 48356, Note_on_c, 0, 84, 0
2, 48360, Note_on_c, 0, 79, 0
2, 48522, Control_c, 0, 64, 127
2, 48916, Note_on_c, 0, 62, 52
2, 49456, Note_on_c, 0, 65, 47
2, 50022, Note_on_c, 0, 67, 42
2, 50115, Control_c, 0, 64, 0
2, 50116, Note_on_c, 0, 86, 0
2, 50117, Note_on_c, 0, 55, 0
2, 50118, Note_on_c, 0, 77, 0
2, 50122, Note_on_c, 0, 65, 0
2, 50135, Note_on_c, 0, 81, 0
2, 50664, Control_c, 0, 64, 127
2, 51067, Control_c, 0, 64, 0
2, 51098, Note_on_c, 0, 43, 9
2, 51125, Control_c, 0, 64, 127
2, 51840, Note_on_c, 0, 62, 0
2, 51840, Note_on_c, 0, 74, 0
2, 51967, Note_on_c, 0, 76, 90
2, 51982, Note_on_c, 0, 36, 52
2, 51985, Note_on_c, 0, 67, 0
2, 51988, Note_on_c, 0, 71, 75
2, 51988, Note_on_c, 0, 64, 63
2, 51994, Note_on_c, 0, 67, 51
2, 52025, Control_c, 0, 64, 0
2, 52030, Note_on_c, 0, 43, 0
2, 52147, Control_c, 0, 64, 127
2, 52259, Note_on_c, 0, 43, 51
2, 52526, Note_on_c, 0, 50, 44
2, 52776, Note_on_c, 0, 36, 0
2, 52787, Note_on_c, 0, 52, 55
2, 53069, Note_on_c, 0, 55, 51
2, 53605, Note_on_c, 0, 72, 92
2, 53619, Note_on_c, 0, 68, 71
2, 53624, Note_on_c, 0, 41, 61
2, 53627, Note_on_c, 0, 60, 65
2, 53633, Control_c, 0, 64, 0
2, 53635, Note_on_c, 0, 50, 0
2, 53636, Note_on_c, 0, 65, 53
2, 53639, Note_on_c, 0, 43, 0
2, 53640, Note_on_c, 0, 76, 0
2, 53640, Note_on_c, 0, 64, 0
2, 53640, Note_on_c, 0, 55, 0
2, 53641, Note_on_c, 0, 71, 0
2, 53641, Note_on_c, 0, 52, 0
2, 53660, Note_on_c, 0, 67, 0
2, 53760, Control_c, 0, 64, 127
2, 53887, Note_on_c, 0, 48, 58
2, 54161, Note_on_c, 0, 74, 94
2, 54174, Note_on_c, 0, 53, 56
2, 54174, Note_on_c, 0, 41, 0
2, 54180, Note_on_c, 0, 62, 70
2, 54180, Note_on_c, 0, 41, 54
2, 54419, Note_on_c, 0, 56, 67
2, 54687, Note_on_c, 0, 77, 91
2, 54689, Note_on_c, 0, 60, 0
2, 54696, Note_on_c, 0, 48, 0
2, 54696, Note_on_c, 0, 65, 0
2, 54696, Note_on_c, 0, 72, 0
2, 54700, Note_on_c, 0, 60, 57
2, 54701, Note_on_c, 0, 48, 47
2, 54704, Note_on_c, 0, 72, 63
2, 54705, Note_on_c, 0, 65, 67
2, 55247, Note_on_c, 0, 76, 89
2, 55261, Note_on_c, 0, 36, 62
2, 55271, Note_on_c, 0, 48, 0
2, 55271, Note_on_c, 0, 56, 0
2, 55272, Note_on_c, 0, 62, 0
2, 55273, Note_on_c, 0, 41, 0
2, 55273, Note_on_c, 0, 74, 0
2, 55273, Note_on_c, 0, 68, 0
2, 55274, Note_on_c, 0, 65, 0
2, 55274, Control_c, 0, 64, 0
2, 55275, Note_on_c, 0, 72, 0
2, 55275, Note_on_c, 0, 77, 0
2, 55275, Note_on_c, 0, 71, 71
2, 55275, Note_on_c, 0, 53, 0
2, 55279, Note_on_c, 0, 67, 52
2, 55282, Note_on_c, 0, 64, 58
2, 55296, Note_on_c, 0, 60, 0
2, 55495, Control_c, 0, 64, 127
2, 55524, Note_on_c, 0, 43, 54
2, 55777, Note_on_c, 0, 50, 57
2, 55818, Note_on_c, 0, 36, 0
2, 56069, Note_on_c, 0, 52, 57
2, 56314, Note_on_c, 0, 55, 58
2, 56880, Note_on_c, 0, 72, 86
2, 56894, Note_on_c, 0, 68, 72
2, 56897, Note_on_c, 0, 41, 60
2, 56905, Control_c, 0, 64, 0
2, 56905, Note_on_c, 0, 50, 0
2, 56909, Note_on_c, 0, 43, 0
2, 56910, Note_on_c, 0, 64, 0
2, 56911, Note_on_c, 0, 55, 0
2, 56911, Note_on_c, 0, 52, 0
2, 56911, Note_on_c, 0, 76, 0
2, 56912, Note_on_c, 0, 71, 0
2, 56912, Note_on_c, 0, 67, 0
2, 56915, Note_on_c, 0, 65, 47
2, 56917, Note_on_c, 0, 60, 50
2, 57031, Control_c, 0, 64, 127
2, 57123, Note_on_c, 0, 60, 0
2, 57147, Note_on_c, 0, 48, 65
2, 57427, Note_on_c, 0, 74, 87
2, 57431, Note_on_c, 0, 48, 0
2, 57436, Note_on_c, 0, 53, 57
2, 57440, Note_on_c, 0, 48, 53
2, 57442, Note_on_c, 0, 62, 64
2, 57695, Note_on_c, 0, 56, 68
2, 57974, Note_on_c, 0, 60, 62
2, 57974, Note_on_c, 0, 77, 89
2, 57984, Note_on_c, 0, 65, 0
2, 57992, Note_on_c, 0, 65, 68
2, 58533, Note_on_c, 0, 76, 89
2, 58536, Note_on_c, 0, 72, 0
2, 58540, Note_on_c, 0, 45, 67
2, 58546, Note_on_c, 0, 72, 76
2, 58548, Note_on_c, 0, 69, 65
2, 58565, Note_on_c, 0, 62, 0
2, 58565, Note_on_c, 0, 48, 0
2, 58565, Note_on_c, 0, 56, 0
2, 58566, Note_on_c, 0, 68, 0
2, 58567, Note_on_c, 0, 53, 0
2, 58567, Note_on_c, 0, 74, 0
2, 58568, Note_on_c, 0, 60, 0
2, 58569, Note_on_c, 0, 65, 0
2, 58569, Note_on_c, 0, 41, 0
2, 58570, Note_on_c, 0, 77, 0
2, 58570, Control_c, 0, 64, 0
2, 58682, Control_c, 0, 64, 127
2, 58779, Note_on_c, 0, 52, 67
2, 59048, Note_on_c, 0, 57, 71
2, 59315, Note_on_c, 0, 59, 76
2, 59574, Note_on_c, 0, 60, 78
2, 59832, Note_on_c, 0, 64, 80
2, 59988, Note_on_c, 0, 69, 0
2, 59997, Note_on_c, 0, 69, 72
2, 60054, Note_on_c, 0, 70, 82
2, 60090, Note_on_c, 0, 62, 66
2, 60098, Note_on_c, 0, 74, 74
2, 60110, Note_on_c, 0, 59, 0
2, 60113, Note_on_c, 0, 57, 0
2, 60114, Note_on_c, 0, 64, 0
2, 60114, Note_on_c, 0, 45, 0
2, 60114, Note_on_c, 0, 52, 0
2, 60114, Note_on_c, 0, 65, 63
2, 60115, Note_on_c, 0, 60, 0
2, 60115, Note_on_c, 0, 76, 0
2, 60116, Control_c, 0, 64, 0
2, 60130, Note_on_c, 0, 81, 98
2, 60134, Note_on_c, 0, 72, 0
2, 60203, Control_c, 0, 64, 127
2, 60226, Note_on_c, 0, 69, 0
2, 60663, Note_on_c, 0, 79, 91
2, 60684, Note_on_c, 0, 67, 64
2, 61223, Note_on_c, 0, 76, 81
2, 61227, Note_on_c, 0, 72, 67
2, 61235, Control_c, 0, 64, 0
2, 61238, Note_on_c, 0, 79, 0
2, 61240, Note_on_c, 0, 74, 0
2, 61240, Note_on_c, 0, 81, 0
2, 61240, Note_on_c, 0, 62, 0
2, 61240, Note_on_c, 0, 67, 0
2, 61240, Note_on_c, 0, 65, 0
2, 61241, Note_on_c, 0, 70, 0
2, 61241, Note_on_c, 0, 64, 55
2, 61245, Note_on_c, 0, 48, 49
2, 61245, Note_on_c, 0, 58, 54
2, 61246, Note_on_c, 0, 62, 49
2, 61324, Control_c, 0, 64, 127
2, 61785, Note_on_c, 0, 72, 0
2, 61793, Note_on_c, 0, 72, 75
2, 61800, Note_on_c, 0, 41, 53
2, 61804, Note_on_c, 0, 60, 51
2, 61809, Note_on_c, 0, 67, 54
2, 61809, Note_on_c, 0, 65, 48
2, 61830, Control_c, 0, 64, 0
2, 61832, Note_on_c, 0, 48, 0
2, 61834, Note_on_c, 0, 58, 0
2, 61834, Note_on_c, 0, 64, 0
2, 61835, Note_on_c, 0, 62, 0
2, 61836, Note_on_c, 0, 76, 0
2, 61954, Control_c, 0, 64, 127
2, 62094, Note_on_c, 0, 48, 48
2, 62357, Note_on_c, 0, 53, 46
2, 62628, Note_on_c, 0, 57, 54
2, 62906, Note_on_c, 0, 60, 0
2, 62911, Note_on_c, 0, 60, 48
2, 63160, Note_on_c, 0, 67, 0
2, 63170, Note_on_c, 0, 67, 45
2, 63452, Note_on_c, 0, 72, 0
2, 63455, Note_on_c, 0, 84, 64
2, 63461, Note_on_c, 0, 72, 61
2, 63478, Note_on_c, 0, 79, 58
2, 63487, Note_on_c, 0, 77, 47
2, 64020, Note_on_c, 0, 67, 0
2, 64025, Note_on_c, 0, 67, 43
2, 64251, Note_on_c, 0, 57, 0
2, 64588, Note_on_c, 0, 60, 0
2, 64600, Note_on_c, 0, 60, 49
2, 65172, Note_on_c, 0, 67, 0
2, 65183, Note_on_c, 0, 67, 69
2, 65183, Note_on_c, 0, 52, 59
2, 65213, Control_c, 0, 64, 0
2, 65214, Note_on_c, 0, 53, 0
2, 65214, Note_on_c, 0, 60, 0
2, 65215, Note_on_c, 0, 77, 0
2, 65215, Note_on_c, 0, 72, 0
2, 65215, Note_on_c, 0, 41, 0
2, 65215, Note_on_c, 0, 48, 0
2, 65216, Note_on_c, 0, 84, 0
2, 65216, Note_on_c, 0, 65, 0
2, 65222, Note_on_c, 0, 91, 72
2, 65295, Control_c, 0, 64, 127
2, 65397, Note_on_c, 0, 86, 52
2, 65548, Note_on_c, 0, 52, 0
2, 65552, Note_on_c, 0, 83, 69
2, 65553, Note_on_c, 0, 52, 37
2, 65725, Note_on_c, 0, 79, 0
2, 65730, Note_on_c, 0, 79, 65
2, 65735, Note_on_c, 0, 71, 54
2, 65740, Note_on_c, 0, 71, 0
2, 65750, Note_on_c, 0, 59, 60
2, 65909, Note_on_c, 0, 74, 58
2, 66077, Note_on_c, 0, 71, 68
2, 66247, Note_on_c, 0, 74, 0
2, 66252, Note_on_c, 0, 74, 68
2, 66254, Note_on_c, 0, 62, 66
2, 66408, Note_on_c, 0, 79, 0
2, 66416, Note_on_c, 0, 79, 71
2, 66585, Note_on_c, 0, 62, 0
2, 66585, Note_on_c, 0, 83, 0
2, 66591, Note_on_c, 0, 83, 73
2, 66595, Note_on_c, 0, 62, 42
2, 66762, Note_on_c, 0, 67, 0
2, 66767, Note_on_c, 0, 67, 81
2, 66772, Note_on_c, 0, 79, 0
2, 66772, Note_on_c, 0, 52, 0
2, 66772, Note_on_c, 0, 74, 0
2, 66773, Control_c, 0, 64, 0
2, 66773, Note_on_c, 0, 59, 0
2, 66773, Note_on_c, 0, 83, 0
2, 66773, Note_on_c, 0, 71, 0
2, 66774, Note_on_c, 0, 53, 63
2, 66785, Note_on_c, 0, 62, 0
2, 66785, Note_on_c, 0, 86, 0
2, 66791, Note_on_c, 0, 86, 67
2, 66792, Note_on_c, 0, 60, 63
2, 66792, Note_on_c, 0, 91, 0
2, 66831, Control_c, 0, 64, 127
2, 66969, Note_on_c, 0, 88, 77
2, 67134, Note_on_c, 0, 84, 64
2, 67298, Note_on_c, 0, 69, 86
2, 67315, Note_on_c, 0, 88, 0
2, 67326, Note_on_c, 0, 88, 76
2, 67491, Note_on_c, 0, 84, 0
2, 67501, Note_on_c, 0, 84, 69
2, 67645, Note_on_c, 0, 88, 0
2, 67650, Note_on_c, 0, 88, 79
2, 67822, Note_on_c, 0, 60, 0
2, 67831, Note_on_c, 0, 96, 87
2, 67832, Note_on_c, 0, 60, 88
2, 68024, Note_on_c, 0, 91, 73
2, 68190, Note_on_c, 0, 88, 0
2, 68195, Note_on_c, 0, 88, 66
2, 68375, Note_on_c, 0, 67, 0
2, 68379, Note_on_c, 0, 67, 82
2, 68379, Note_on_c, 0, 52, 75
2, 68382, Note_on_c, 0, 91, 0
2, 68386, Note_on_c, 0, 60, 0
2, 68386, Note_on_c, 0, 53, 0
2, 68386, Note_on_c, 0, 69, 0
2, 68387, Note_on_c, 0, 88, 0
2, 68387, Note_on_c, 0, 86, 0
2, 68387, Control_c, 0, 64, 0
2, 68391, Note_on_c, 0, 91, 81
2, 68405, Note_on_c, 0, 84, 0
2, 68405, Note_on_c, 0, 96, 0
2, 68467, Control_c, 0, 64, 127
2, 68569, Note_on_c, 0, 86, 63
2, 68755, Note_on_c, 0, 83, 64
2, 68922, Note_on_c, 0, 59, 66
2, 68922, Note_on_c, 0, 71, 54
2, 69093, Note_on_c, 0, 74, 59
2, 69265, Note_on_c, 0, 71, 0
2, 69271, Note_on_c, 0, 71, 71
2, 69419, Note_on_c, 0, 74, 0
2, 69426, Note_on_c, 0, 74, 68
2, 69438, Note_on_c, 0, 62, 68
2, 69609, Note_on_c, 0, 79, 70
2, 69765, Note_on_c, 0, 83, 0
2, 69772, Note_on_c, 0, 62, 0
2, 69776, Note_on_c, 0, 83, 78
2, 69777, Note_on_c, 0, 62, 45
2, 69949, Note_on_c, 0, 67, 0
2, 69955, Note_on_c, 0, 67, 81
2, 69972, Note_on_c, 0, 86, 0
2, 69982, Note_on_c, 0, 86, 77
2, 69982, Note_on_c, 0, 62, 0
2, 69983, Note_on_c, 0, 79, 0
2, 69983, Note_on_c, 0, 59, 0
2, 69983, Control_c, 0, 64, 0
2, 69983, Note_on_c, 0, 52, 0
2, 69983, Note_on_c, 0, 83, 0
2, 69984, Note_on_c, 0, 71, 0
2, 69989, Note_on_c, 0, 53, 53
2, 69990, Note_on_c, 0, 60, 69
2, 69995, Note_on_c, 0, 91, 0
2, 70049, Control_c, 0, 64, 127
2, 70095, Note_on_c, 0, 53, 0
2, 70147, Note_on_c, 0, 88, 82
2, 70311, Note_on_c, 0, 84, 70
2, 70487, Note_on_c, 0, 88, 0
2, 70491, Note_on_c, 0, 72, 82
2, 70494, Note_on_c, 0, 74, 0
2, 70495, Note_on_c, 0, 88, 72
2, 70498, Note_on_c, 0, 74, 78
2, 70663, Note_on_c, 0, 84, 0
2, 70670, Note_on_c, 0, 84, 79
2, 70671, Note_on_c, 0, 63, 46
2, 70679, Note_on_c, 0, 63, 0
2, 70760, Note_on_c, 0, 71, 94
2, 70848, Note_on_c, 0, 88, 0
2, 70857, Note_on_c, 0, 88, 82
2, 71020, Note_on_c, 0, 69, 89
2, 71035, Note_on_c, 0, 96, 92
2, 71213, Note_on_c, 0, 91, 77
2, 71283, Note_on_c, 0, 64, 94
2, 71385, Note_on_c, 0, 88, 0
2, 71394, Note_on_c, 0, 88, 80
2, 71562, Note_on_c, 0, 67, 0
2, 71571, Note_on_c, 0, 67, 81
2, 71576, Note_on_c, 0, 52, 73
2, 71577, Note_on_c, 0, 91, 0
2, 71580, Note_on_c, 0, 74, 0
2, 71581, Note_on_c, 0, 86, 0
2, 71581, Note_on_c, 0, 71, 0
2, 71581, Note_on_c, 0, 88, 0
2, 71581, Note_on_c, 0, 96, 0
2, 71581, Note_on_c, 0, 69, 0
2, 71581, Note_on_c, 0, 60, 0
2, 71581, Note_on_c, 0, 64, 0
2, 71581, Note_on_c, 0, 72, 0
2, 71582, Note_on_c, 0, 91, 88
2, 71582, Note_on_c, 0, 84, 0
2, 71588, Control_c, 0, 64, 0
2, 71669, Control_c, 0, 64, 127
2, 71749, Note_on_c, 0, 86, 71
2, 71928, Note_on_c, 0, 83, 65
2, 72104, Note_on_c, 0, 79, 69
2, 72105, Note_on_c, 0, 59, 72
2, 72280, Note_on_c, 0, 74, 63
2, 72456, Note_on_c, 0, 71, 71
2, 72614, Note_on_c, 0, 74, 0
2, 72624, Note_on_c, 0, 62, 69
2, 72625, Note_on_c, 0, 74, 70
2, 72798, Note_on_c, 0, 79, 0
2, 72803, Note_on_c, 0, 79, 67
2, 72952, Note_on_c, 0, 71, 0
2, 72952, Note_on_c, 0, 83, 0
2, 72960, Note_on_c, 0, 62, 0
2, 72961, Note_on_c, 0, 71, 47
2, 72963, Note_on_c, 0, 83, 68
2, 72964, Note_on_c, 0, 62, 35
2, 73128, Note_on_c, 0, 67, 0
2, 73138, Note_on_c, 0, 67, 88
2, 73140, Note_on_c, 0, 86, 0
2, 73140, Note_on_c, 0, 74, 0
2, 73141, Note_on_c, 0, 62, 0
2, 73141, Note_on_c, 0, 52, 0
2, 73141, Note_on_c, 0, 59, 0
2, 73141, Note_on_c, 0, 71, 0
2, 73144, Note_on_c, 0, 91, 0
2, 73149, Control_c, 0, 64, 0
2, 73167, Note_on_c, 0, 83, 0
2, 73180, Note_on_c, 0, 53, 56
2, 73181, Note_on_c, 0, 60, 58
2, 73221, Control_c, 0, 64, 127
2, 73345, Note_on_c, 0, 88, 74
2, 73489, Note_on_c, 0, 84, 71
2, 73492, Note_on_c, 0, 62, 42
2, 73497, Note_on_c, 0, 62, 0
2, 73662, Note_on_c, 0, 69, 89
2, 73843, Note_on_c, 0, 84, 0
2, 73854, Note_on_c, 0, 84, 68
2, 74004, Note_on_c, 0, 88, 0
2, 74009, Note_on_c, 0, 88, 66
2, 74174, Note_on_c, 0, 64, 89
2, 74181, Note_on_c, 0, 79, 0
2, 74185, Note_on_c, 0, 96, 72
2, 74361, Note_on_c, 0, 91, 68
2, 74534, Note_on_c, 0, 88, 0
2, 74544, Note_on_c, 0, 88, 67
2, 74730, Note_on_c, 0, 62, 76
2, 74734, Note_on_c, 0, 91, 0
2, 74737, Note_on_c, 0, 55, 65
2, 74738, Note_on_c, 0, 91, 77
2, 74743, Note_on_c, 0, 60, 0
2, 74743, Note_on_c, 0, 69, 0
2, 74743, Note_on_c, 0, 64, 0
2, 74744, Note_on_c, 0, 53, 0
2, 74744, Note_on_c, 0, 84, 0
2, 74745, Control_c, 0, 64, 0
2, 74757, Note_on_c, 0, 67, 0
2, 74757, Note_on_c, 0, 96, 0
2, 74772, Note_on_c, 0, 88, 0
2, 74864, Control_c, 0, 64, 127
2, 74922, Note_on_c, 0, 93, 79
2, 75082, Note_on_c, 0, 89, 73
2, 75248, Note_on_c, 0, 91, 0
2, 75258, Note_on_c, 0, 65, 62
2, 75260, Note_on_c, 0, 91, 71
2, 75439, Note_on_c, 0, 88, 68
2, 75601, Note_on_c, 0, 89, 0
2, 75606, Note_on_c, 0, 89, 73
2, 75773, Note_on_c, 0, 72, 66
2, 75783, Note_on_c, 0, 86, 58
2, 75947, Note_on_c, 0, 88, 0
2, 75957, Note_on_c, 0, 88, 63
2, 76136, Note_on_c, 0, 84, 46
2, 76300, Note_on_c, 0, 86, 0
2, 76307, Note_on_c, 0, 74, 62
2, 76308, Note_on_c, 0, 67, 47
2, 76310, Note_on_c, 0, 86, 62
2, 76476, Note_on_c, 0, 83, 54
2, 76646, Note_on_c, 0, 62, 0
2, 76646, Note_on_c, 0, 84, 0
2, 76654, Note_on_c, 0, 84, 63
2, 76656, Note_on_c, 0, 62, 37
2, 76838, Note_on_c, 0, 81, 54
2, 76999, Note_on_c, 0, 83, 0
2, 77007, Note_on_c, 0, 62, 0
2, 77010, Note_on_c, 0, 83, 53
2, 77013, Note_on_c, 0, 62, 27
2, 77218, Note_on_c, 0, 79, 52
2, 77376, Note_on_c, 0, 81, 0
2, 77386, Note_on_c, 0, 81, 56
2, 77574, Note_on_c, 0, 76, 51
2, 77736, Note_on_c, 0, 79, 0
2, 77747, Note_on_c, 0, 79, 65
2, 77967, Note_on_c, 0, 81, 0
2, 77971, Note_on_c, 0, 81, 67
2, 77972, Note_on_c, 0, 60, 44
2, 77977, Note_on_c, 0, 53, 40
2, 77983, Note_on_c, 0, 93, 0
2, 77984, Note_on_c, 0, 72, 0
2, 77986, Note_on_c, 0, 74, 0
2, 77986, Note_on_c, 0, 84, 0
2, 77986, Note_on_c, 0, 86, 0
2, 77986, Note_on_c, 0, 89, 0
2, 77986, Note_on_c, 0, 65, 0
2, 77986, Note_on_c, 0, 69, 47
2, 77986, Note_on_c, 0, 88, 0
2, 77986, Note_on_c, 0, 76, 0
2, 77986, Note_on_c, 0, 55, 0
2, 77986, Note_on_c, 0, 83, 0
2, 77987, Note_on_c, 0, 79, 0
2, 77987, Note_on_c, 0, 67, 0
2, 77994, Control_c, 0, 64, 0
2, 78005, Note_on_c, 0, 62, 0
2, 78005, Note_on_c, 0, 91, 0
2, 78090, Control_c, 0, 64, 127
2, 78162, Note_on_c, 0, 72, 57
2, 78326, Note_on_c, 0, 76, 59
2, 78497, Note_on_c, 0, 81, 0
2, 78505, Note_on_c, 0, 81, 71
2, 78673, Note_on_c, 0, 76, 0
2, 78685, Note_on_c, 0, 76, 45
2, 78838, Note_on_c, 0, 79, 66
2, 79015, Note_on_c, 0, 83, 76
2, 79196, Note_on_c, 0, 76, 0
2, 79202, Note_on_c, 0, 76, 47
2, 79342, Note_on_c, 0, 79, 0
2, 79352, Note_on_c, 0, 79, 72
2, 79534, Note_on_c, 0, 81, 0
2, 79538, Note_on_c, 0, 81, 79
2, 79541, Note_on_c, 0, 69, 0
2, 79541, Note_on_c, 0, 72, 0
2, 79546, Note_on_c, 0, 72, 62
2, 79547, Note_on_c, 0, 65, 47
2, 79548, Note_on_c, 0, 69, 51
2, 79718, Note_on_c, 0, 76, 0
2, 79723, Note_on_c, 0, 76, 49
2, 79887, Note_on_c, 0, 79, 0
2, 79892, Note_on_c, 0, 79, 63
2, 80064, Note_on_c, 0, 81, 0
2, 80074, Note_on_c, 0, 81, 76
2, 80263, Note_on_c, 0, 72, 0
2, 80271, Note_on_c, 0, 72, 55
2, 80417, Note_on_c, 0, 76, 0
2, 80428, Note_on_c, 0, 76, 61
2, 80586, Note_on_c, 0, 83, 0
2, 80597, Note_on_c, 0, 83, 78
2, 80598, Note_on_c, 0, 63, 33
2, 80609, Note_on_c, 0, 63, 0
2, 80755, Note_on_c, 0, 76, 0
2, 80766, Note_on_c, 0, 76, 49
2, 80924, Note_on_c, 0, 79, 0
2, 80933, Note_on_c, 0, 79, 70
2, 81123, Note_on_c, 0, 81, 0
2, 81134, Note_on_c, 0, 81, 80
2, 81142, Note_on_c, 0, 52, 52
2, 81154, Control_c, 0, 64, 0
2, 81155, Note_on_c, 0, 60, 0
2, 81155, Note_on_c, 0, 65, 0
2, 81155, Note_on_c, 0, 69, 0
2, 81156, Note_on_c, 0, 79, 0
2, 81156, Note_on_c, 0, 72, 0
2, 81157, Note_on_c, 0, 76, 0
2, 81160, Note_on_c, 0, 59, 59
2, 81169, Note_on_c, 0, 53, 0
2, 81177, Note_on_c, 0, 83, 0
2, 81246, Control_c, 0, 64, 127
2, 81320, Note_on_c, 0, 71, 63
2, 81465, Note_on_c, 0, 74, 62
2, 81646, Note_on_c, 0, 81, 0
2, 81653, Note_on_c, 0, 81, 73
2, 81822, Note_on_c, 0, 74, 0
2, 81832, Note_on_c, 0, 74, 38
2, 81986, Note_on_c, 0, 79, 68
2, 82181, Note_on_c, 0, 83, 75
2, 82185, Note_on_c, 0, 64, 34
2, 82191, Note_on_c, 0, 64, 0
2, 82344, Note_on_c, 0, 74, 0
2, 82349, Note_on_c, 0, 74, 56
2, 82506, Note_on_c, 0, 79, 0
2, 82514, Note_on_c, 0, 79, 70
2, 82698, Note_on_c, 0, 81, 0
2, 82704, Note_on_c, 0, 81, 79
2, 82710, Note_on_c, 0, 64, 61
2, 82713, Note_on_c, 0, 71, 0
2, 82716, Note_on_c, 0, 67, 55
2, 82723, Note_on_c, 0, 71, 69
2, 82890, Note_on_c, 0, 74, 0
2, 82894, Note_on_c, 0, 74, 60
2, 83051, Note_on_c, 0, 79, 0
2, 83055, Note_on_c, 0, 79, 67
2, 83228, Note_on_c, 0, 64, 0
2, 83228, Note_on_c, 0, 81, 0
2, 83232, Note_on_c, 0, 81, 79
2, 83239, Note_on_c, 0, 64, 41
2, 83404, Note_on_c, 0, 71, 0
2, 83412, Note_on_c, 0, 71, 67
2, 83581, Note_on_c, 0, 74, 0
2, 83591, Note_on_c, 0, 74, 70
2, 83750, Note_on_c, 0, 83, 0
2, 83755, Note_on_c, 0, 83, 84
2, 83934, Note_on_c, 0, 88, 75
2, 84107, Note_on_c, 0, 91, 81
2, 84278, Note_on_c, 0, 81, 0
2, 84278, Note_on_c, 0, 74, 0
2, 84279, Note_on_c, 0, 71, 0
2, 84280, Note_on_c, 0, 59, 0
2, 84280, Note_on_c, 0, 64, 0
2, 84280, Note_on_c, 0, 67, 0
2, 84280, Note_on_c, 0, 83, 0
2, 84280, Control_c, 0, 64, 0
2, 84281, Note_on_c, 0, 79, 0
2, 84282, Note_on_c, 0, 88, 0
2, 84283, Note_on_c, 0, 91, 0
2, 84284, Note_on_c, 0, 69, 67
2, 84288, Note_on_c, 0, 52, 0
2, 84291, Note_on_c, 0, 53, 55
2, 84292, Note_on_c, 0, 93, 84
2, 84299, Note_on_c, 0, 60, 60
2, 84349, Control_c, 0, 64, 127
2, 84395, Note_on_c, 0, 53, 0
2, 84472, Note_on_c, 0, 53, 47
2, 84473, Note_on_c, 0, 84, 52
2, 84643, Note_on_c, 0, 88, 63
2, 84833, Note_on_c, 0, 93, 0
2, 84835, Note_on_c, 0, 72, 79
2, 84837, Note_on_c, 0, 93, 78
2, 85002, Note_on_c, 0, 88, 0
2, 85011, Note_on_c, 0, 88, 65
2, 85190, Note_on_c, 0, 91, 70
2, 85364, Note_on_c, 0, 95, 79
2, 85364, Note_on_c, 0, 79, 86
2, 85370, Note_on_c, 0, 95, 0
2, 85524, Note_on_c, 0, 88, 0
2, 85532, Note_on_c, 0, 88, 66
2, 85693, Note_on_c, 0, 91, 0
2, 85704, Note_on_c, 0, 91, 68
2, 85862, Note_on_c, 0, 84, 0
2, 85872, Note_on_c, 0, 84, 88
2, 85885, Note_on_c, 0, 93, 0
2, 85889, Note_on_c, 0, 77, 66
2, 85893, Note_on_c, 0, 93, 79
2, 85895, Note_on_c, 0, 81, 75
2, 85908, Note_on_c, 0, 60, 0
2, 85939, Note_on_c, 0, 53, 0
2, 86046, Note_on_c, 0, 88, 0
2, 86057, Note_on_c, 0, 88, 55
2, 86215, Note_on_c, 0, 91, 0
2, 86219, Note_on_c, 0, 91, 68
2, 86220, Note_on_c, 0, 64, 28
2, 86231, Note_on_c, 0, 64, 0
2, 86384, Note_on_c, 0, 79, 0
2, 86388, Note_on_c, 0, 79, 79
2, 86392, Note_on_c, 0, 93, 0
2, 86396, Note_on_c, 0, 93, 88
2, 86400, Note_on_c, 0, 69, 0
2, 86576, Note_on_c, 0, 84, 0
2, 86587, Note_on_c, 0, 84, 58
2, 86589, Note_on_c, 0, 62, 37
2, 86599, Note_on_c, 0, 62, 0
2, 86730, Note_on_c, 0, 88, 0
2, 86738, Note_on_c, 0, 88, 64
2, 86906, Note_on_c, 0, 72, 0
2, 86910, Note_on_c, 0, 95, 80
2, 86913, Note_on_c, 0, 72, 76
2, 87075, Note_on_c, 0, 88, 0
2, 87087, Note_on_c, 0, 88, 64
2, 87244, Note_on_c, 0, 91, 0
2, 87255, Note_on_c, 0, 91, 74
2, 87444, Note_on_c, 0, 93, 0
2, 87448, Note_on_c, 0, 93, 94
2, 87450, Note_on_c, 0, 71, 74
2, 87468, Note_on_c, 0, 55, 52
2, 87469, Note_on_c, 0, 62, 53
2, 87478, Note_on_c, 0, 79, 0
2, 87478, Note_on_c, 0, 84, 0
2, 87479, Note_on_c, 0, 88, 0
2, 87479, Note_on_c, 0, 72, 0
2, 87480, Note_on_c, 0, 77, 0
2, 87481, Control_c, 0, 64, 0
2, 87498, Note_on_c, 0, 81, 0
2, 87498, Note_on_c, 0, 91, 0
2, 87582, Control_c, 0, 64, 127
2, 87598, Note_on_c, 0, 95, 0
2, 87631, Note_on_c, 0, 95, 79
2, 87795, Note_on_c, 0, 91, 73
2, 87959, Note_on_c, 0, 93, 0
2, 87970, Note_on_c, 0, 93, 86
2, 88135, Note_on_c, 0, 62, 0
2, 88141, Note_on_c, 0, 89, 79
2, 88144, Note_on_c, 0, 62, 40
2, 88312, Note_on_c, 0, 91, 0
2, 88323, Note_on_c, 0, 91, 79
2, 88500, Note_on_c, 0, 88, 75
2, 88665, Note_on_c, 0, 89, 0
2, 88676, Note_on_c, 0, 89, 82
2, 88851, Note_on_c, 0, 86, 71
2, 89026, Note_on_c, 0, 88, 0
2, 89034, Note_on_c, 0, 71, 0
2, 89035, Note_on_c, 0, 79, 70
2, 89036, Note_on_c, 0, 74, 72
2, 89036, Note_on_c, 0, 88, 76
2, 89041, Note_on_c, 0, 71, 64
2, 89237, Note_on_c, 0, 84, 66
2, 89395, Note_on_c, 0, 86, 0
2, 89399, Note_on_c, 0, 86, 71
2, 89587, Note_on_c, 0, 62, 0
2, 89596, Note_on_c, 0, 83, 64
2, 89596, Note_on_c, 0, 62, 35
2, 89771, Note_on_c, 0, 62, 0
2, 89771, Note_on_c, 0, 84, 0
2, 89780, Note_on_c, 0, 84, 65
2, 89781, Note_on_c, 0, 62, 40
2, 89992, Note_on_c, 0, 81, 62
2, 90209, Note_on_c, 0, 62, 0
2, 90209, Note_on_c, 0, 83, 0
2, 90216, Note_on_c, 0, 83, 68
2, 90216, Note_on_c, 0, 62, 35
2, 90240, Note_on_c, 0, 55, 0
2, 90240, Note_on_c, 0, 93, 0
2, 90240, Note_on_c, 0, 95, 0
2, 90478, Note_on_c, 0, 79, 0
2, 90482, Note_on_c, 0, 79, 63
2, 90796, Note_on_c, 0, 77, 53
2, 91219, Note_on_c, 0, 76, 71
2, 91221, Note_on_c, 0, 57, 58
2, 91258, Note_on_c, 0, 86, 0
2, 91258, Note_on_c, 0, 74, 0
2, 91258, Control_c, 0, 64, 0
2, 91259, Note_on_c, 0, 88, 0
2, 91259, Note_on_c, 0, 81, 0
2, 91259, Note_on_c, 0, 71, 0
2, 91260, Note_on_c, 0, 83, 0
2, 91260, Note_on_c, 0, 79, 0
2, 91263, Note_on_c, 0, 77, 0
2, 91276, Note_on_c, 0, 89, 0
2, 91276, Note_on_c, 0, 91, 0
2, 91284, Note_on_c, 0, 62, 0
2, 91284, Note_on_c, 0, 84, 0
2, 91353, Control_c, 0, 64, 127
2, 91495, Note_on_c, 0, 60, 51
2, 91599, Note_on_c, 0, 57, 0
2, 91703, Note_on_c, 0, 64, 49
2, 91866, Note_on_c, 0, 69, 57
2, 92039, Note_on_c, 0, 71, 68
2, 92204, Note_on_c, 0, 72, 73
2, 92367, Note_on_c, 0, 69, 0
2, 92373, Note_on_c, 0, 69, 59
2, 92536, Note_on_c, 0, 64, 0
2, 92544, Note_on_c, 0, 64, 68
2, 92697, Note_on_c, 0, 60, 0
2, 92708, Note_on_c, 0, 60, 65
2, 92889, Note_on_c, 0, 72, 0
2, 92893, Note_on_c, 0, 56, 64
2, 92894, Note_on_c, 0, 72, 80
2, 92922, Control_c, 0, 64, 0
2, 92922, Note_on_c, 0, 64, 0
2, 92922, Note_on_c, 0, 71, 0
2, 92923, Note_on_c, 0, 69, 0
2, 92924, Note_on_c, 0, 76, 0
2, 92935, Note_on_c, 0, 60, 0
2, 93027, Control_c, 0, 64, 127
2, 93077, Note_on_c, 0, 60, 57
2, 93239, Note_on_c, 0, 64, 65
2, 93401, Note_on_c, 0, 74, 80
2, 93406, Note_on_c, 0, 68, 70
2, 93542, Note_on_c, 0, 64, 0
2, 93551, Note_on_c, 0, 64, 64
2, 93711, Note_on_c, 0, 60, 0
2, 93722, Note_on_c, 0, 60, 70
2, 93903, Note_on_c, 0, 56, 0
2, 93907, Note_on_c, 0, 56, 68
2, 93909, Note_on_c, 0, 76, 86
2, 94080, Note_on_c, 0, 60, 0
2, 94083, Note_on_c, 0, 60, 63
2, 94233, Note_on_c, 0, 64, 0
2, 94245, Note_on_c, 0, 64, 76
2, 94433, Note_on_c, 0, 76, 0
2, 94441, Note_on_c, 0, 76, 87
2, 94446, Note_on_c, 0, 55, 65
2, 94448, Note_on_c, 0, 72, 0
2, 94453, Note_on_c, 0, 72, 72
2, 94463, Control_c, 0, 64, 0
2, 94468, Note_on_c, 0, 74, 0
2, 94469, Note_on_c, 0, 68, 0
2, 94469, Note_on_c, 0, 56, 0
2, 94470, Note_on_c, 0, 60, 0
2, 94502, Note_on_c, 0, 64, 0
2, 94563, Control_c, 0, 64, 127
2, 94616, Note_on_c, 0, 60, 71
2, 94780, Note_on_c, 0, 64, 66
2, 94951, Note_on_c, 0, 67, 72
2, 95117, Note_on_c, 0, 71, 74
2, 95262, Note_on_c, 0, 72, 0
2, 95273, Note_on_c, 0, 72, 77
2, 95439, Note_on_c, 0, 67, 0
2, 95444, Note_on_c, 0, 67, 62
2, 95608, Note_on_c, 0, 64, 0
2, 95618, Note_on_c, 0, 64, 62
2, 95769, Note_on_c, 0, 60, 0
2, 95779, Note_on_c, 0, 60, 67
2, 95938, Note_on_c, 0, 72, 0
2, 95946, Note_on_c, 0, 72, 84
2, 95950, Note_on_c, 0, 54, 58
2, 95960, Note_on_c, 0, 64, 0
2, 95960, Note_on_c, 0, 71, 0
2, 95960, Note_on_c, 0, 67, 0
2, 95960, Note_on_c, 0, 55, 0
2, 95961, Control_c, 0, 64, 0
2, 95969, Note_on_c, 0, 60, 0
2, 95992, Note_on_c, 0, 76, 0
2, 96084, Control_c, 0, 64, 127
2, 96115, Note_on_c, 0, 60, 69
2, 96288, Note_on_c, 0, 64, 71
2, 96314, Note_on_c, 0, 54, 0
2, 96472, Note_on_c, 0, 74, 87
2, 96473, Note_on_c, 0, 69, 72
2, 96637, Note_on_c, 0, 64, 0
2, 96645, Note_on_c, 0, 64, 61
2, 96798, Note_on_c, 0, 60, 0
2, 96804, Note_on_c, 0, 60, 73
2, 96984, Note_on_c, 0, 76, 85
2, 96985, Note_on_c, 0, 54, 69
2, 97136, Note_on_c, 0, 60, 0
2, 97140, Note_on_c, 0, 60, 68
2, 97305, Note_on_c, 0, 64, 0
2, 97316, Note_on_c, 0, 64, 73
2, 97497, Note_on_c, 0, 76, 0
2, 97501, Note_on_c, 0, 76, 86
2, 97505, Note_on_c, 0, 72, 0
2, 97515, Note_on_c, 0, 53, 65
2, 97515, Note_on_c, 0, 72, 72
2, 97521, Note_on_c, 0, 60, 0
2, 97522, Note_on_c, 0, 74, 0
2, 97522, Note_on_c, 0, 69, 0
2, 97524, Control_c, 0, 64, 0
2, 97536, Note_on_c, 0, 54, 0
2, 97543, Note_on_c, 0, 64, 0
2, 97628, Control_c, 0, 64, 127
2, 97678, Note_on_c, 0, 57, 68
2, 97847, Note_on_c, 0, 60, 70
2, 98018, Note_on_c, 0, 64, 74
2, 98193, Note_on_c, 0, 67, 66
2, 98358, Note_on_c, 0, 71, 82
2, 98511, Note_on_c, 0, 67, 0
2, 98521, Note_on_c, 0, 67, 75
2, 98688, Note_on_c, 0, 64, 0
2, 98696, Note_on_c, 0, 64, 67
2, 98849, Note_on_c, 0, 60, 0
2, 98859, Note_on_c, 0, 60, 68
2, 99050, Note_on_c, 0, 81, 88
2, 99052, Note_on_c, 0, 57, 0
2, 99052, Note_on_c, 0, 67, 0
2, 99052, Note_on_c, 0, 64, 0
2, 99052, Note_on_c, 0, 60, 0
2, 99052, Note_on_c, 0, 53, 0
2, 99053, Note_on_c, 0, 71, 0
2, 99055, Control_c, 0, 64, 0
2, 99064, Note_on_c, 0, 72, 0
2, 99064, Note_on_c, 0, 76, 0
2, 99064, Note_on_c, 0, 74, 75
2, 99067, Note_on_c, 0, 52, 62
2, 99074, Note_on_c, 0, 70, 71
2, 99171, Control_c, 0, 64, 127
2, 99253, Note_on_c, 0, 58, 76
2, 99413, Note_on_c, 0, 62, 80
2, 99583, Note_on_c, 0, 79, 93
2, 99586, Note_on_c, 0, 70, 0
2, 99586, Note_on_c, 0, 74, 0
2, 99590, Note_on_c, 0, 67, 75
2, 99594, Note_on_c, 0, 74, 78
2, 99597, Note_on_c, 0, 70, 80
2, 99763, Note_on_c, 0, 62, 0
2, 99773, Note_on_c, 0, 62, 79
2, 99924, Note_on_c, 0, 58, 0
2, 99929, Note_on_c, 0, 58, 76
2, 100120, Note_on_c, 0, 76, 90
2, 100127, Note_on_c, 0, 81, 0
2, 100128, Note_on_c, 0, 52, 0
2, 100128, Note_on_c, 0, 62, 0
2, 100129, Control_c, 0, 64, 0
2, 100129, Note_on_c, 0, 67, 0
2, 100129, Note_on_c, 0, 58, 0
2, 100129, Note_on_c, 0, 74, 0
2, 100129, Note_on_c, 0, 79, 0
2, 100130, Note_on_c, 0, 73, 80
2, 100133, Note_on_c, 0, 45, 69
2, 100134, Note_on_c, 0, 69, 73
2, 100147, Note_on_c, 0, 70, 0
2, 100239, Control_c, 0, 64, 127
2, 100295, Note_on_c, 0, 52, 77
2, 100474, Note_on_c, 0, 61, 85
2, 100702, Note_on_c, 0, 79, 93
2, 100707, Note_on_c, 0, 76, 0
2, 100710, Control_c, 0, 64, 0
2, 100712, Note_on_c, 0, 52, 0
2, 100714, Note_on_c, 0, 45, 0
2, 100714, Note_on_c, 0, 61, 0
2, 100715, Note_on_c, 0, 73, 0
2, 100715, Note_on_c, 0, 69, 0
2, 100715, Note_on_c, 0, 76, 79
2, 100725, Note_on_c, 0, 38, 65
2, 100726, Note_on_c, 0, 73, 71
2, 100726, Note_on_c, 0, 67, 63
2, 100846, Control_c, 0, 64, 127
2, 100924, Note_on_c, 0, 45, 57
2, 101090, Note_on_c, 0, 52, 57
2, 101239, Note_on_c, 0, 77, 87
2, 101256, Note_on_c, 0, 50, 50
2, 101263, Note_on_c, 0, 53, 59
2, 101265, Note_on_c, 0, 74, 70
2, 101271, Note_on_c, 0, 69, 64
2, 101442, Note_on_c, 0, 57, 67
2, 101614, Note_on_c, 0, 62, 66
2, 101795, Note_on_c, 0, 65, 63
2, 101952, Note_on_c, 0, 62, 0
2, 101961, Note_on_c, 0, 62, 52
2, 102136, Note_on_c, 0, 57, 0
2, 102145, Note_on_c, 0, 57, 68
2, 102374, Note_on_c, 0, 79, 0
2, 102378, Note_on_c, 0, 79, 86
2, 102382, Note_on_c, 0, 74, 0
2, 102392, Note_on_c, 0, 40, 61
2, 102393, Note_on_c, 0, 74, 69
2, 102400, Note_on_c, 0, 71, 74
2, 102403, Note_on_c, 0, 38, 0
2, 102404, Note_on_c, 0, 62, 0
2, 102404, Note_on_c, 0, 52, 0
2, 102405, Note_on_c, 0, 76, 0
2, 102406, Note_on_c, 0, 45, 0
2, 102406, Note_on_c, 0, 69, 0
2, 102407, Note_on_c, 0, 53, 0
2, 102407, Control_c, 0, 64, 0
2, 102407, Note_on_c, 0, 65, 0
2, 102407, Note_on_c, 0, 77, 0
2, 102407, Note_on_c, 0, 68, 64
2, 102407, Note_on_c, 0, 57, 0
2, 102408, Note_on_c, 0, 67, 0
2, 102408, Note_on_c, 0, 73, 0
2, 102412, Note_on_c, 0, 50, 0
2, 102504, Control_c, 0, 64, 127
2, 102593, Note_on_c, 0, 47, 59
2, 102744, Note_on_c, 0, 52, 67
2, 102935, Note_on_c, 0, 71, 0
2, 102935, Note_on_c, 0, 74, 0
2, 102938, Note_on_c, 0, 77, 84
2, 102941, Note_on_c, 0, 74, 75
2, 102944, Note_on_c, 0, 71, 80
2, 102962, Note_on_c, 0, 59, 71
2, 103139, Note_on_c, 0, 56, 60
2, 103303, Note_on_c, 0, 52, 0
2, 103313, Note_on_c, 0, 52, 59
2, 103511, Note_on_c, 0, 74, 0
2, 103519, Note_on_c, 0, 74, 89
2, 103534, Note_on_c, 0, 71, 0
2, 103540, Note_on_c, 0, 71, 66
2, 103541, Note_on_c, 0, 68, 0
2, 103545, Note_on_c, 0, 68, 61
2, 103552, Note_on_c, 0, 64, 57
2, 103726, Note_on_c, 0, 59, 0
2, 103735, Note_on_c, 0, 59, 66
2, 103948, Note_on_c, 0, 56, 0
2, 103959, Note_on_c, 0, 56, 68
2, 104258, Note_on_c, 0, 76, 86
2, 104278, Note_on_c, 0, 41, 60
2, 104280, Note_on_c, 0, 72, 68
2, 104283, Note_on_c, 0, 69, 62
2, 104284, Note_on_c, 0, 65, 57
2, 104286, Note_on_c, 0, 79, 0
2, 104292, Note_on_c, 0, 68, 0
2, 104293, Note_on_c, 0, 64, 0
2, 104293, Note_on_c, 0, 56, 0
2, 104293, Note_on_c, 0, 52, 0
2, 104294, Note_on_c, 0, 59, 0
2, 104294, Note_on_c, 0, 71, 0
2, 104294, Note_on_c, 0, 47, 0
2, 104294, Note_on_c, 0, 74, 0
2, 104295, Control_c, 0, 64, 0
2, 104297, Note_on_c, 0, 77, 0
2, 104325, Note_on_c, 0, 40, 0
2, 104394, Control_c, 0, 64, 127
2, 104566, Note_on_c, 0, 48, 54
2, 104749, Note_on_c, 0, 53, 56
2, 104919, Note_on_c, 0, 57, 62
2, 105104, Note_on_c, 0, 60, 71
2, 105272, Note_on_c, 0, 64, 70
2, 105438, Note_on_c, 0, 69, 0
2, 105446, Note_on_c, 0, 72, 0
2, 105449, Note_on_c, 0, 69, 73
2, 105450, Note_on_c, 0, 72, 85
2, 105623, Note_on_c, 0, 64, 0
2, 105631, Note_on_c, 0, 64, 61
2, 105776, Note_on_c, 0, 60, 0
2, 105783, Note_on_c, 0, 60, 73
2, 105960, Note_on_c, 0, 65, 0
2, 105960, Note_on_c, 0, 76, 0
2, 105965, Note_on_c, 0, 42, 66
2, 105970, Note_on_c, 0, 76, 91
2, 105976, Note_on_c, 0, 72, 0
2, 105982, Note_on_c, 0, 72, 77
2, 105984, Note_on_c, 0, 69, 0
2, 105988, Note_on_c, 0, 69, 64
2, 105988, Control_c, 0, 64, 0
2, 105996, Note_on_c, 0, 53, 0
2, 105996, Note_on_c, 0, 64, 0
2, 105996, Note_on_c, 0, 60, 0
2, 105996, Note_on_c, 0, 57, 0
2, 105997, Note_on_c, 0, 48, 0
2, 105997, Note_on_c, 0, 41, 0
2, 106060, Control_c, 0, 64, 127
2, 106174, Note_on_c, 0, 54, 59
2, 106372, Note_on_c, 0, 57, 67
2, 106580, Note_on_c, 0, 81, 94
2, 106583, Note_on_c, 0, 76, 0
2, 106584, Note_on_c, 0, 64, 68
2, 106588, Note_on_c, 0, 76, 77
2, 106590, Note_on_c, 0, 69, 0
2, 106590, Note_on_c, 0, 72, 0
2, 106595, Note_on_c, 0, 69, 59
2, 106595, Note_on_c, 0, 72, 62
2, 106807, Note_on_c, 0, 60, 64
2, 106836, Note_on_c, 0, 42, 0
2, 107043, Note_on_c, 0, 57, 0
2, 107048, Note_on_c, 0, 57, 57
2, 107298, Note_on_c, 0, 84, 81
2, 107304, Note_on_c, 0, 69, 0
2, 107304, Note_on_c, 0, 81, 0
2, 107311, Note_on_c, 0, 81, 64
2, 107312, Note_on_c, 0, 76, 0
2, 107315, Note_on_c, 0, 69, 55
2, 107317, Note_on_c, 0, 76, 51
2, 107573, Note_on_c, 0, 64, 0
2, 107583, Note_on_c, 0, 64, 60
2, 107934, Note_on_c, 0, 60, 0
2, 107941, Note_on_c, 0, 60, 56
2, 108516, Note_on_c, 0, 64, 0
2, 108519, Note_on_c, 0, 57, 0
2, 108519, Note_on_c, 0, 54, 0
2, 108519, Note_on_c, 0, 72, 0
2, 108519, Note_on_c, 0, 60, 0
2, 108520, Note_on_c, 0, 81, 0
2, 108520, Note_on_c, 0, 69, 0
2, 108522, Note_on_c, 0, 88, 91
2, 108522, Control_c, 0, 64, 0
2, 108524, Note_on_c, 0, 43, 55
2, 108526, Note_on_c, 0, 76, 0
2, 108526, Note_on_c, 0, 84, 0
2, 108528, Note_on_c, 0, 79, 69
2, 108532, Note_on_c, 0, 84, 68
2, 108535, Note_on_c, 0, 76, 66
2, 108610, Control_c, 0, 64, 127
2, 108921, Note_on_c, 0, 48, 46
2, 108959, Note_on_c, 0, 64, 52
2, 109134, Note_on_c, 0, 52, 50
2, 109136, Note_on_c, 0, 67, 47
2, 109301, Note_on_c, 0, 72, 67
2, 109309, Note_on_c, 0, 43, 0
2, 109319, Note_on_c, 0, 43, 36
2, 109326, Note_on_c, 0, 55, 37
2, 109455, Note_on_c, 0, 52, 0
2, 109463, Note_on_c, 0, 52, 53
2, 109470, Note_on_c, 0, 67, 0
2, 109476, Note_on_c, 0, 67, 52
2, 109616, Note_on_c, 0, 48, 0
2, 109616, Note_on_c, 0, 64, 0
2, 109622, Note_on_c, 0, 48, 49
2, 109627, Note_on_c, 0, 64, 66
2, 109785, Note_on_c, 0, 76, 0
2, 109794, Note_on_c, 0, 76, 70
2, 109801, Note_on_c, 0, 60, 60
2, 109954, Note_on_c, 0, 55, 0
2, 109954, Note_on_c, 0, 72, 0
2, 109962, Note_on_c, 0, 72, 63
2, 109964, Note_on_c, 0, 55, 50
2, 110115, Note_on_c, 0, 43, 0
2, 110115, Note_on_c, 0, 52, 0
2, 110115, Note_on_c, 0, 67, 0
2, 110121, Note_on_c, 0, 43, 47
2, 110121, Note_on_c, 0, 52, 48
2, 110124, Note_on_c, 0, 64, 0
2, 110126, Note_on_c, 0, 67, 62
2, 110326, Note_on_c, 0, 48, 0
2, 110326, Note_on_c, 0, 52, 0
2, 110326, Note_on_c, 0, 60, 0
2, 110326, Note_on_c, 0, 79, 0
2, 110326, Note_on_c, 0, 84, 0
2, 110326, Note_on_c, 0, 72, 0
2, 110327, Note_on_c, 0, 55, 0
2, 110327, Note_on_c, 0, 67, 0
2, 110327, Control_c, 0, 64, 0
2, 110338, Note_on_c, 0, 88, 0
2, 110342, Note_on_c, 0, 88, 94
2, 110346, Note_on_c, 0, 43, 0
2, 110346, Note_on_c, 0, 76, 0
2, 110350, Note_on_c, 0, 43, 60
2, 110351, Note_on_c, 0, 85, 83
2, 110351, Note_on_c, 0, 76, 76
2, 110369, Control_c, 0, 64, 127
2, 110559, Note_on_c, 0, 49, 58
2, 110580, Note_on_c, 0, 64, 55
2, 110728, Note_on_c, 0, 52, 54
2, 110733, Note_on_c, 0, 67, 47
2, 110873, Note_on_c, 0, 55, 53
2, 110879, Note_on_c, 0, 73, 67
2, 111029, Note_on_c, 0, 52, 0
2, 111029, Note_on_c, 0, 67, 0
2, 111034, Note_on_c, 0, 67, 57
2, 111039, Note_on_c, 0, 52, 58
2, 111175, Note_on_c, 0, 49, 0
2, 111183, Note_on_c, 0, 64, 0
2, 111186, Note_on_c, 0, 49, 64
2, 111188, Note_on_c, 0, 64, 64
2, 111360, Note_on_c, 0, 76, 0
2, 111365, Note_on_c, 0, 76, 74
2, 111369, Note_on_c, 0, 61, 68
2, 111513, Note_on_c, 0, 55, 0
2, 111513, Note_on_c, 0, 73, 0
2, 111520, Note_on_c, 0, 55, 52
2, 111524, Note_on_c, 0, 73, 63
2, 111674, Note_on_c, 0, 52, 0
2, 111674, Note_on_c, 0, 67, 0
2, 111685, Note_on_c, 0, 52, 56
2, 111685, Note_on_c, 0, 67, 58
2, 111850, Control_c, 0, 64, 0
2, 111851, Note_on_c, 0, 49, 0
2, 111851, Note_on_c, 0, 73, 0
2, 111852, Note_on_c, 0, 85, 0
2, 111852, Note_on_c, 0, 55, 0
2, 111852, Note_on_c, 0, 76, 0
2, 111852, Note_on_c, 0, 67, 0
2, 111852, Note_on_c, 0, 64, 0
2, 111853, Note_on_c, 0, 61, 0
2, 111853, Note_on_c, 0, 88, 0
2, 111874, Note_on_c, 0, 52, 0
2, 111878, Note_on_c, 0, 89, 101
2, 111882, Note_on_c, 0, 43, 0
2, 111890, Note_on_c, 0, 81, 79
2, 111893, Note_on_c, 0, 43, 64
2, 111894, Note_on_c, 0, 77, 79
2, 111894, Note_on_c, 0, 86, 73
2, 111905, Control_c, 0, 64, 127
2, 112079, Note_on_c, 0, 50, 61
2, 112083, Note_on_c, 0, 65, 62
2, 112231, Note_on_c, 0, 69, 72
2, 112233, Note_on_c, 0, 53, 57
2, 112391, Note_on_c, 0, 57, 62
2, 112401, Note_on_c, 0, 74, 70
2, 112550, Note_on_c, 0, 53, 0
2, 112554, Note_on_c, 0, 53, 51
2, 112565, Note_on_c, 0, 69, 0
2, 112576, Note_on_c, 0, 69, 64
2, 112711, Note_on_c, 0, 50, 0
2, 112719, Note_on_c, 0, 65, 0
2, 112721, Note_on_c, 0, 50, 57
2, 112723, Note_on_c, 0, 65, 66
2, 112880, Note_on_c, 0, 74, 0
2, 112888, Note_on_c, 0, 77, 0
2, 112889, Note_on_c, 0, 74, 65
2, 112892, Note_on_c, 0, 77, 74
2, 112895, Note_on_c, 0, 62, 69
2, 113034, Note_on_c, 0, 57, 0
2, 113038, Note_on_c, 0, 57, 65
2, 113041, Note_on_c, 0, 74, 0
2, 113046, Note_on_c, 0, 74, 66
2, 113195, Note_on_c, 0, 53, 0
2, 113195, Note_on_c, 0, 69, 0
2, 113201, Note_on_c, 0, 53, 56
2, 113205, Note_on_c, 0, 81, 0
2, 113206, Note_on_c, 0, 69, 69
2, 113382, Note_on_c, 0, 43, 0
2, 113383, Note_on_c, 0, 57, 0
2, 113383, Note_on_c, 0, 53, 0
2, 113383, Note_on_c, 0, 69, 0
2, 113383, Note_on_c, 0, 89, 0
2, 113384, Note_on_c, 0, 74, 0
2, 113384, Note_on_c, 0, 50, 0
2, 113384, Note_on_c, 0, 77, 0
2, 113384, Note_on_c, 0, 62, 0
2, 113384, Note_on_c, 0, 86, 0
2, 113384, Note_on_c, 0, 65, 0
2, 113385, Control_c, 0, 64, 0
2, 113420, Note_on_c, 0, 89, 103
2, 113439, Note_on_c, 0, 86, 68
2, 113441, Control_c, 0, 64, 127
2, 113442, Note_on_c, 0, 77, 83
2, 113445, Note_on_c, 0, 43, 59
2, 113446, Note_on_c, 0, 80, 80
2, 113620, Note_on_c, 0, 50, 59
2, 113626, Note_on_c, 0, 65, 62
2, 113756, Note_on_c, 0, 77, 0
2, 113762, Note_on_c, 0, 68, 69
2, 113764, Note_on_c, 0, 53, 56
2, 113765, Note_on_c, 0, 77, 55
2, 113921, Note_on_c, 0, 72, 74
2, 113927, Note_on_c, 0, 56, 66
2, 114071, Note_on_c, 0, 74, 75
2, 114086, Note_on_c, 0, 53, 0
2, 114096, Note_on_c, 0, 53, 52
2, 114232, Note_on_c, 0, 77, 0
2, 114237, Note_on_c, 0, 77, 75
2, 114240, Note_on_c, 0, 50, 0
2, 114243, Note_on_c, 0, 50, 55
2, 114408, Note_on_c, 0, 89, 0
2, 114415, Note_on_c, 0, 89, 102
2, 114416, Note_on_c, 0, 43, 0
2, 114416, Note_on_c, 0, 77, 0
2, 114416, Note_on_c, 0, 80, 0
2, 114416, Note_on_c, 0, 86, 0
2, 114423, Note_on_c, 0, 43, 64
2, 114425, Note_on_c, 0, 86, 82
2, 114427, Note_on_c, 0, 80, 83
2, 114427, Note_on_c, 0, 77, 80
2, 114445, Note_on_c, 0, 65, 0
2, 114447, Control_c, 0, 64, 0
2, 114449, Note_on_c, 0, 72, 0
2, 114449, Note_on_c, 0, 74, 0
2, 114450, Note_on_c, 0, 56, 0
2, 114450, Note_on_c, 0, 50, 0
2, 114462, Note_on_c, 0, 53, 0
2, 114462, Note_on_c, 0, 68, 0
2, 114516, Control_c, 0, 64, 127
2, 114585, Note_on_c, 0, 50, 62
2, 114737, Note_on_c, 0, 53, 67
2, 114893, Note_on_c, 0, 53, 0
2, 114894, Note_on_c, 0, 50, 0
2, 114894, Control_c, 0, 64, 0
2, 114915, Note_on_c, 0, 77, 0
2, 114915, Note_on_c, 0, 80, 0
2, 114923, Note_on_c, 0, 43, 0
2, 114923, Note_on_c, 0, 89, 0
2, 114928, Note_on_c, 0, 88, 96
2, 114932, Note_on_c, 0, 84, 81
2, 114933, Note_on_c, 0, 43, 61
2, 114935, Note_on_c, 0, 76, 82
2, 114935, Note_on_c, 0, 79, 78
2, 114954, Note_on_c, 0, 86, 0
2, 114954, Control_c, 0, 64, 127
2, 115129, Note_on_c, 0, 48, 57
2, 115273, Note_on_c, 0, 52, 63
2, 115285, Note_on_c, 0, 72, 69
2, 115435, Note_on_c, 0, 55, 62
2, 115445, Note_on_c, 0, 76, 0
2, 115453, Note_on_c, 0, 76, 78
2, 115576, Note_on_c, 0, 52, 0
2, 115585, Note_on_c, 0, 52, 60
2, 115599, Note_on_c, 0, 72, 0
2, 115608, Note_on_c, 0, 72, 73
2, 115745, Note_on_c, 0, 48, 0
2, 115750, Note_on_c, 0, 48, 61
2, 115761, Note_on_c, 0, 67, 69
2, 115929, Note_on_c, 0, 43, 0
2, 115929, Note_on_c, 0, 76, 0
2, 115929, Note_on_c, 0, 88, 0
2, 115934, Note_on_c, 0, 88, 104
2, 115938, Note_on_c, 0, 76, 96
2, 115938, Note_on_c, 0, 43, 66
2, 116090, Note_on_c, 0, 52, 0
2, 116095, Note_on_c, 0, 52, 60
2, 116236, Note_on_c, 0, 67, 0
2, 116244, Note_on_c, 0, 67, 63
2, 116259, Note_on_c, 0, 55, 0
2, 116265, Note_on_c, 0, 55, 61
2, 116410, Control_c, 0, 64, 0
2, 116412, Note_on_c, 0, 84, 0
2, 116412, Note_on_c, 0, 76, 0
2, 116412, Note_on_c, 0, 52, 0
2, 116413, Note_on_c, 0, 79, 0
2, 116413, Note_on_c, 0, 72, 0
2, 116414, Note_on_c, 0, 55, 0
2, 116416, Note_on_c, 0, 67, 0
2, 116428, Note_on_c, 0, 48, 0
2, 116436, Note_on_c, 0, 43, 0
2, 116436, Note_on_c, 0, 88, 0
2, 116439, Note_on_c, 0, 91, 103
2, 116442, Note_on_c, 0, 43, 74
2, 116447, Note_on_c, 0, 79, 101
2, 116447, Note_on_c, 0, 88, 94
2, 116448, Note_on_c, 0, 85, 94
2, 116459, Control_c, 0, 64, 127
2, 116642, Note_on_c, 0, 67, 52
2, 116644, Note_on_c, 0, 49, 59
2, 116793, Note_on_c, 0, 73, 71
2, 116793, Note_on_c, 0, 76, 57
2, 116799, Note_on_c, 0, 52, 61
2, 116958, Note_on_c, 0, 43, 0
2, 116958, Note_on_c, 0, 76, 0
2, 116963, Note_on_c, 0, 43, 55
2, 116966, Note_on_c, 0, 55, 58
2, 116969, Note_on_c, 0, 76, 82
2, 117112, Note_on_c, 0, 52, 0
2, 117112, Note_on_c, 0, 73, 0
2, 117122, Note_on_c, 0, 52, 58
2, 117123, Note_on_c, 0, 73, 73
2, 117128, Note_on_c, 0, 64, 54
2, 117135, Note_on_c, 0, 64, 0
2, 117265, Note_on_c, 0, 49, 0
2, 117265, Note_on_c, 0, 67, 0
2, 117276, Note_on_c, 0, 67, 74
2, 117277, Note_on_c, 0, 49, 63
2, 117442, Note_on_c, 0, 91, 0
2, 117450, Note_on_c, 0, 43, 0
2, 117450, Note_on_c, 0, 79, 0
2, 117453, Note_on_c, 0, 91, 100
2, 117454, Note_on_c, 0, 43, 77
2, 117456, Note_on_c, 0, 79, 95
2, 117611, Note_on_c, 0, 52, 0
2, 117615, Note_on_c, 0, 52, 71
2, 117623, Note_on_c, 0, 75, 67
2, 117772, Note_on_c, 0, 55, 0
2, 117781, Note_on_c, 0, 55, 63
2, 117939, Note_on_c, 0, 85, 0
2, 117939, Note_on_c, 0, 73, 0
2, 117939, Note_on_c, 0, 67, 0
2, 117939, Note_on_c, 0, 91, 0
2, 117939, Note_on_c, 0, 52, 0
2, 117940, Note_on_c, 0, 79, 0
2, 117940, Control_c, 0, 64, 0
2, 117940, Note_on_c, 0, 88, 0
2, 117957, Note_on_c, 0, 43, 0
2, 117957, Note_on_c, 0, 49, 0
2, 117957, Note_on_c, 0, 55, 0
2, 117957, Note_on_c, 0, 75, 0
2, 117957, Note_on_c, 0, 76, 0
2, 117961, Note_on_c, 0, 89, 104
2, 117961, Note_on_c, 0, 81, 82
2, 117961, Note_on_c, 0, 43, 68
2, 117965, Note_on_c, 0, 77, 91
2, 117967, Note_on_c, 0, 86, 87
2, 118003, Control_c, 0, 64, 127
2, 118140, Note_on_c, 0, 69, 64
2, 118146, Note_on_c, 0, 50, 65
2, 118284, Note_on_c, 0, 74, 76
2, 118300, Note_on_c, 0, 53, 67
2, 118458, Note_on_c, 0, 57, 75
2, 118464, Note_on_c, 0, 69, 0
2, 118464, Note_on_c, 0, 77, 0
2, 118469, Note_on_c, 0, 77, 88
2, 118473, Note_on_c, 0, 69, 65
2, 118617, Note_on_c, 0, 53, 0
2, 118617, Note_on_c, 0, 74, 0
2, 118623, Note_on_c, 0, 74, 86
2, 118628, Note_on_c, 0, 53, 65
2, 118771, Note_on_c, 0, 50, 0
2, 118771, Note_on_c, 0, 69, 0
2, 118777, Note_on_c, 0, 69, 80
2, 118778, Note_on_c, 0, 50, 65
2, 118940, Note_on_c, 0, 43, 0
2, 118940, Note_on_c, 0, 89, 0
2, 118947, Note_on_c, 0, 77, 0
2, 118950, Note_on_c, 0, 89, 107
2, 118951, Note_on_c, 0, 43, 74
2, 118952, Note_on_c, 0, 77, 101
2, 119109, Note_on_c, 0, 50, 0
2, 119109, Note_on_c, 0, 74, 0
2, 119119, Note_on_c, 0, 50, 74
2, 119120, Note_on_c, 0, 74, 83
2, 119270, Note_on_c, 0, 69, 0
2, 119278, Note_on_c, 0, 53, 0
2, 119278, Note_on_c, 0, 69, 78
2, 119286, Note_on_c, 0, 53, 77
2, 119461, Note_on_c, 0, 69, 0
2, 119461, Note_on_c, 0, 89, 0
2, 119462, Note_on_c, 0, 57, 0
2, 119462, Note_on_c, 0, 53, 0
2, 119462, Note_on_c, 0, 77, 0
2, 119462, Note_on_c, 0, 74, 0
2, 119467, Control_c, 0, 64, 0
2, 119470, Note_on_c, 0, 43, 0
2, 119470, Note_on_c, 0, 81, 0
2, 119470, Note_on_c, 0, 86, 0
2, 119475, Note_on_c, 0, 90, 112
2, 119477, Note_on_c, 0, 50, 0
2, 119479, Note_on_c, 0, 81, 93
2, 119479, Note_on_c, 0, 43, 90
2, 119481, Note_on_c, 0, 78, 107
2, 119481, Note_on_c, 0, 86, 96
2, 119516, Control_c, 0, 64, 127
2, 119675, Note_on_c, 0, 69, 72
2, 119678, Note_on_c, 0, 50, 74
2, 119829, Note_on_c, 0, 74, 85
2, 119832, Note_on_c, 0, 54, 75
2, 120007, Note_on_c, 0, 78, 0
2, 120013, Note_on_c, 0, 57, 86
2, 120015, Note_on_c, 0, 78, 102
2, 120199, Note_on_c, 0, 54, 0
2, 120199, Note_on_c, 0, 74, 0
2, 120203, Note_on_c, 0, 74, 94
2, 120205, Note_on_c, 0, 54, 82
2, 120376, Note_on_c, 0, 50, 0
2, 120376, Note_on_c, 0, 69, 0
2, 120381, Note_on_c, 0, 50, 76
2, 120385, Note_on_c, 0, 69, 86
2, 120591, Note_on_c, 0, 43, 0
2, 120591, Note_on_c, 0, 81, 0
2, 120594, Note_on_c, 0, 93, 116
2, 120596, Note_on_c, 0, 81, 110
2, 120597, Note_on_c, 0, 43, 80
2, 120806, Note_on_c, 0, 50, 0
2, 120814, Note_on_c, 0, 50, 71
2, 120829, Note_on_c, 0, 74, 0
2, 120839, Note_on_c, 0, 74, 89
2, 121067, Note_on_c, 0, 69, 0
2, 121075, Note_on_c, 0, 54, 0
2, 121076, Note_on_c, 0, 69, 81
2, 121079, Note_on_c, 0, 54, 71
2, 121420, Note_on_c, 0, 43, 0
2, 121420, Note_on_c, 0, 93, 0
2, 121425, Note_on_c, 0, 98, 110
2, 121425, Note_on_c, 0, 43, 85
2, 121426, Note_on_c, 0, 89, 101
2, 121427, Note_on_c, 0, 93, 102
2, 121428, Note_on_c, 0, 86, 0
2, 121432, Note_on_c, 0, 86, 101
2, 121434, Note_on_c, 0, 81, 0
2, 121435, Note_on_c, 0, 74, 0
2, 121435, Note_on_c, 0, 50, 0
2, 121436, Note_on_c, 0, 54, 0
2, 121436, Note_on_c, 0, 57, 0
2, 121437, Note_on_c, 0, 78, 0
2, 121438, Note_on_c, 0, 69, 0
2, 121438, Note_on_c, 0, 90, 0
2, 121439, Control_c, 0, 64, 0
2, 121559, Control_c, 0, 64, 127
2, 121643, Note_on_c, 0, 93, 0
2, 121677, Note_on_c, 0, 88, 81
2, 121699, Note_on_c, 0, 50, 74
2, 121804, Note_on_c, 0, 86, 0
2, 121810, Note_on_c, 0, 86, 78
2, 121912, Note_on_c, 0, 88, 0
2, 121917, Note_on_c, 0, 53, 74
2, 121920, Note_on_c, 0, 88, 78
2, 122004, Note_on_c, 0, 86, 0
2, 122014, Note_on_c, 0, 86, 77
2, 122088, Note_on_c, 0, 88, 0
2, 122099, Note_on_c, 0, 88, 78
2, 122108, Note_on_c, 0, 55, 82
2, 122142, Note_on_c, 0, 86, 0
2, 122153, Note_on_c, 0, 86, 77
2, 122211, Note_on_c, 0, 88, 0
2, 122218, Note_on_c, 0, 88, 70
2, 122250, Note_on_c, 0, 86, 0
2, 122258, Note_on_c, 0, 86, 82
2, 122327, Note_on_c, 0, 88, 0
2, 122336, Note_on_c, 0, 88, 76
2, 122337, Note_on_c, 0, 59, 90
2, 122388, Note_on_c, 0, 86, 0
2, 122393, Note_on_c, 0, 86, 70
2, 122442, Note_on_c, 0, 88, 0
2, 122448, Note_on_c, 0, 88, 69
2, 122488, Note_on_c, 0, 86, 0
2, 122494, Note_on_c, 0, 86, 78
2, 122549, Note_on_c, 0, 88, 0
2, 122560, Note_on_c, 0, 62, 95
2, 122561, Note_on_c, 0, 88, 76
2, 122603, Note_on_c, 0, 86, 0
2, 122611, Note_on_c, 0, 86, 72
2, 122672, Note_on_c, 0, 88, 0
2, 122682, Note_on_c, 0, 88, 68
2, 122718, Note_on_c, 0, 86, 0
2, 122729, Note_on_c, 0, 86, 77
2, 122780, Note_on_c, 0, 88, 0
2, 122786, Note_on_c, 0, 88, 78
2, 122833, Note_on_c, 0, 86, 0
2, 122840, Note_on_c, 0, 86, 80
2, 122876, Note_on_c, 0, 67, 100
2, 122903, Note_on_c, 0, 88, 0
2, 122907, Note_on_c, 0, 88, 78
2, 122964, Note_on_c, 0, 86, 0
2, 122968, Note_on_c, 0, 86, 71
2, 123025, Note_on_c, 0, 88, 0
2, 123030, Note_on_c, 0, 88, 73
2, 123072, Note_on_c, 0, 86, 0
2, 123080, Note_on_c, 0, 86, 82
2, 123141, Note_on_c, 0, 88, 0
2, 123152, Note_on_c, 0, 88, 85
2, 123210, Note_on_c, 0, 86, 0
2, 123220, Note_on_c, 0, 86, 83
2, 123336, Note_on_c, 0, 85, 87
2, 123471, Note_on_c, 0, 86, 0
2, 123478, Note_on_c, 0, 86, 90
2, 123661, Note_on_c, 0, 90, 103
2, 123871, Note_on_c, 0, 91, 98
2, 123893, Note_on_c, 0, 98, 0
2, 124026, Note_on_c, 0, 93, 101
2, 124154, Note_on_c, 0, 91, 0
2, 124163, Note_on_c, 0, 91, 84
2, 124254, Note_on_c, 0, 93, 0
2, 124264, Note_on_c, 0, 93, 100
2, 124277, Note_on_c, 0, 86, 0
2, 124282, Note_on_c, 0, 86, 66
2, 124377, Note_on_c, 0, 59, 0
2, 124377, Note_on_c, 0, 91, 0
2, 124382, Note_on_c, 0, 91, 90
2, 124387, Note_on_c, 0, 59, 43
2, 124454, Note_on_c, 0, 93, 0
2, 124461, Note_on_c, 0, 93, 94
2, 124554, Note_on_c, 0, 91, 0
2, 124558, Note_on_c, 0, 91, 87
2, 124615, Note_on_c, 0, 93, 0
2, 124626, Note_on_c, 0, 93, 90
2, 124700, Note_on_c, 0, 91, 0
2, 124711, Note_on_c, 0, 91, 86
2, 124761, Note_on_c, 0, 93, 0
2, 124770, Note_on_c, 0, 93, 87
2, 124800, Note_on_c, 0, 43, 0
2, 124800, Note_on_c, 0, 50, 0
2, 124800, Note_on_c, 0, 53, 0
2, 124800, Note_on_c, 0, 55, 0
2, 124800, Note_on_c, 0, 59, 0
2, 124800, Note_on_c, 0, 62, 0
2, 124800, Note_on_c, 0, 89, 0
2, 124838, Note_on_c, 0, 91, 0
2, 124843, Note_on_c, 0, 91, 78
2, 124899, Note_on_c, 0, 93, 0
2, 124907, Note_on_c, 0, 93, 84
2, 124976, Note_on_c, 0, 91, 0
2, 124981, Note_on_c, 0, 91, 82
2, 125038, Note_on_c, 0, 93, 0
2, 125043, Note_on_c, 0, 93, 80
2, 125107, Note_on_c, 0, 91, 0
2, 125111, Note_on_c, 0, 91, 78
2, 125184, Note_on_c, 0, 93, 0
2, 125195, Note_on_c, 0, 93, 81
2, 125245, Note_on_c, 0, 91, 0
2, 125252, Note_on_c, 0, 91, 76
2, 125329, Note_on_c, 0, 93, 0
2, 125337, Note_on_c, 0, 93, 81
2, 125383, Note_on_c, 0, 91, 0
2, 125395, Note_on_c, 0, 91, 84
2, 125452, Note_on_c, 0, 93, 0
2, 125463, Note_on_c, 0, 93, 81
2, 125506, Note_on_c, 0, 91, 0
2, 125510, Note_on_c, 0, 91, 80
2, 125568, Note_on_c, 0, 93, 0
2, 125574, Note_on_c, 0, 93, 86
2, 125621, Note_on_c, 0, 91, 0
2, 125626, Note_on_c, 0, 91, 71
2, 125675, Note_on_c, 0, 93, 0
2, 125683, Note_on_c, 0, 93, 77
2, 125721, Note_on_c, 0, 91, 0
2, 125732, Note_on_c, 0, 91, 79
2, 125790, Note_on_c, 0, 93, 0
2, 125799, Note_on_c, 0, 93, 76
2, 125836, Note_on_c, 0, 91, 0
2, 125840, Note_on_c, 0, 91, 79
2, 125898, Note_on_c, 0, 93, 0
2, 125906, Note_on_c, 0, 93, 77
2, 125928, Note_on_c, 0, 91, 0
2, 125940, Note_on_c, 0, 91, 79
2, 125998, Note_on_c, 0, 93, 0
2, 126002, Note_on_c, 0, 93, 87
2, 126044, Note_on_c, 0, 91, 0
2, 126054, Note_on_c, 0, 91, 81
2, 126090, Note_on_c, 0, 93, 0
2, 126099, Note_on_c, 0, 93, 85
2, 126151, Note_on_c, 0, 91, 0
2, 126155, Note_on_c, 0, 91, 84
2, 126213, Note_on_c, 0, 93, 0
2, 126217, Note_on_c, 0, 93, 81
2, 126259, Note_on_c, 0, 91, 0
2, 126266, Note_on_c, 0, 91, 81
2, 126320, Note_on_c, 0, 93, 0
2, 126329, Note_on_c, 0, 93, 77
2, 126359, Note_on_c, 0, 91, 0
2, 126365, Note_on_c, 0, 91, 80
2, 126428, Note_on_c, 0, 93, 0
2, 126439, Note_on_c, 0, 93, 81
2, 126474, Note_on_c, 0, 91, 0
2, 126485, Note_on_c, 0, 91, 75
2, 126543, Note_on_c, 0, 93, 0
2, 126553, Note_on_c, 0, 93, 62
2, 126589, Note_on_c, 0, 91, 0
2, 126598, Note_on_c, 0, 91, 77
2, 126643, Note_on_c, 0, 93, 0
2, 126653, Note_on_c, 0, 93, 71
2, 126689, Note_on_c, 0, 91, 0
2, 126700, Note_on_c, 0, 91, 82
2, 126766, Note_on_c, 0, 93, 0
2, 126771, Note_on_c, 0, 93, 66
2, 126804, Note_on_c, 0, 91, 0
2, 126815, Note_on_c, 0, 91, 77
2, 126873, Note_on_c, 0, 93, 0
2, 126879, Note_on_c, 0, 93, 71
2, 126919, Note_on_c, 0, 91, 0
2, 126928, Note_on_c, 0, 91, 79
2, 126996, Note_on_c, 0, 93, 0
2, 127004, Note_on_c, 0, 93, 74
2, 127050, Note_on_c, 0, 91, 0
2, 127055, Note_on_c, 0, 91, 77
2, 127119, Note_on_c, 0, 93, 0
2, 127128, Note_on_c, 0, 93, 66
2, 127165, Note_on_c, 0, 91, 0
2, 127169, Note_on_c, 0, 91, 76
2, 127219, Note_on_c, 0, 93, 0
2, 127230, Note_on_c, 0, 93, 76
2, 127272, Note_on_c, 0, 91, 0
2, 127280, Note_on_c, 0, 91, 76
2, 127342, Note_on_c, 0, 93, 0
2, 127346, Note_on_c, 0, 93, 76
2, 127388, Note_on_c, 0, 91, 0
2, 127398, Note_on_c, 0, 91, 73
2, 127464, Note_on_c, 0, 93, 0
2, 127475, Note_on_c, 0, 93, 77
2, 127480, Note_on_c, 0, 67, 0
2, 127518, Note_on_c, 0, 91, 0
2, 127523, Note_on_c, 0, 91, 66
2, 127572, Note_on_c, 0, 93, 0
2, 127580, Note_on_c, 0, 93, 88
2, 127641, Note_on_c, 0, 91, 0
2, 127645, Note_on_c, 0, 91, 66
2, 127726, Note_on_c, 0, 88, 0
2, 127730, Note_on_c, 0, 88, 85
2, 127748, Note_on_c, 0, 72, 67
2, 127833, Note_on_c, 0, 91, 0
2, 127842, Note_on_c, 0, 91, 61
2, 127895, Note_on_c, 0, 93, 0
2, 127905, Note_on_c, 0, 93, 67
2, 127941, Note_on_c, 0, 85, 0
2, 127959, Note_on_c, 0, 76, 54
2, 127979, Note_on_c, 0, 91, 0
2, 127988, Note_on_c, 0, 91, 66
2, 128048, Note_on_c, 0, 93, 0
2, 128060, Note_on_c, 0, 93, 59
2, 128094, Note_on_c, 0, 91, 0
2, 128100, Note_on_c, 0, 91, 66
2, 128117, Note_on_c, 0, 72, 0
2, 128123, Note_on_c, 0, 72, 50
2, 128163, Note_on_c, 0, 93, 0
2, 128175, Note_on_c, 0, 93, 70
2, 128240, Note_on_c, 0, 91, 0
2, 128246, Note_on_c, 0, 91, 64
2, 128271, Note_on_c, 0, 90, 0
2, 128294, Note_on_c, 0, 76, 0
2, 128294, Note_on_c, 0, 93, 0
2, 128298, Note_on_c, 0, 76, 56
2, 128304, Note_on_c, 0, 93, 62
2, 128340, Note_on_c, 0, 91, 0
2, 128349, Note_on_c, 0, 91, 69
2, 128417, Note_on_c, 0, 93, 0
2, 128423, Note_on_c, 0, 93, 62
2, 128455, Note_on_c, 0, 72, 0
2, 128459, Note_on_c, 0, 72, 62
2, 128462, Note_on_c, 0, 64, 42
2, 128463, Note_on_c, 0, 91, 0
2, 128471, Note_on_c, 0, 64, 0
2, 128472, Note_on_c, 0, 91, 74
2, 128532, Note_on_c, 0, 93, 0
2, 128539, Note_on_c, 0, 93, 67
2, 128578, Note_on_c, 0, 91, 0
2, 128589, Note_on_c, 0, 91, 71
2, 128624, Note_on_c, 0, 76, 0
2, 128629, Note_on_c, 0, 76, 51
2, 128640, Note_on_c, 0, 86, 0
2, 128647, Note_on_c, 0, 93, 0
2, 128654, Note_on_c, 0, 93, 65
2, 128709, Note_on_c, 0, 91, 0
2, 128713, Note_on_c, 0, 91, 62
2, 128762, Note_on_c, 0, 93, 0
2, 128773, Note_on_c, 0, 93, 68
2, 128801, Note_on_c, 0, 72, 0
2, 128810, Note_on_c, 0, 72, 56
2, 128832, Note_on_c, 0, 91, 0
2, 128836, Note_on_c, 0, 91, 65
2, 128893, Note_on_c, 0, 93, 0
2, 128898, Note_on_c, 0, 93, 68
2, 128947, Note_on_c, 0, 76, 0
2, 128947, Note_on_c, 0, 91, 0
2, 128954, Note_on_c, 0, 91, 63
2, 128956, Note_on_c, 0, 76, 58
2, 129008, Note_on_c, 0, 93, 0
2, 129012, Note_on_c, 0, 93, 70
2, 129047, Note_on_c, 0, 91, 0
2, 129057, Note_on_c, 0, 91, 69
2, 129123, Note_on_c, 0, 72, 0
2, 129123, Note_on_c, 0, 93, 0
2, 129134, Note_on_c, 0, 72, 67
2, 129135, Note_on_c, 0, 93, 72
2, 129200, Note_on_c, 0, 91, 0
2, 129208, Note_on_c, 0, 91, 63
2, 129268, Note_on_c, 0, 84, 85
2, 129271, Note_on_c, 0, 63, 51
2, 129277, Note_on_c, 0, 63, 0
2, 129289, Note_on_c, 0, 77, 59
2, 129346, Note_on_c, 0, 91, 0
2, 129355, Note_on_c, 0, 91, 59
2, 129415, Note_on_c, 0, 93, 0
2, 129422, Note_on_c, 0, 93, 74
2, 129461, Note_on_c, 0, 72, 0
2, 129473, Note_on_c, 0, 72, 58
2, 129492, Note_on_c, 0, 91, 0
2, 129499, Note_on_c, 0, 91, 56
2, 129561, Note_on_c, 0, 93, 0
2, 129566, Note_on_c, 0, 93, 72
2, 129630, Note_on_c, 0, 91, 0
2, 129638, Note_on_c, 0, 77, 0
2, 129640, Note_on_c, 0, 91, 64
2, 129643, Note_on_c, 0, 77, 67
2, 129752, Note_on_c, 0, 86, 86
2, 129792, Note_on_c, 0, 72, 0
2, 129801, Note_on_c, 0, 72, 62
2, 129830, Note_on_c, 0, 91, 0
2, 129835, Note_on_c, 0, 91, 65
2, 129884, Note_on_c, 0, 93, 0
2, 129888, Note_on_c, 0, 93, 82
2, 129945, Note_on_c, 0, 77, 0
2, 129950, Note_on_c, 0, 77, 59
2, 129968, Note_on_c, 0, 91, 0
2, 129978, Note_on_c, 0, 91, 62
2, 130030, Note_on_c, 0, 93, 0
2, 130034, Note_on_c, 0, 93, 77
2, 130106, Note_on_c, 0, 72, 0
2, 130110, Note_on_c, 0, 72, 66
2, 130145, Note_on_c, 0, 91, 0
2, 130151, Note_on_c, 0, 91, 57
2, 130234, Note_on_c, 0, 89, 99
2, 130268, Note_on_c, 0, 77, 0
2, 130272, Note_on_c, 0, 77, 65
2, 130306, Note_on_c, 0, 91, 0
2, 130315, Note_on_c, 0, 91, 70
2, 130368, Note_on_c, 0, 93, 0
2, 130374, Note_on_c, 0, 93, 77
2, 130437, Note_on_c, 0, 72, 0
2, 130437, Note_on_c, 0, 91, 0
2, 130441, Note_on_c, 0, 72, 65
2, 130448, Note_on_c, 0, 91, 55
2, 130483, Note_on_c, 0, 93, 0
2, 130493, Note_on_c, 0, 93, 77
2, 130560, Note_on_c, 0, 77, 0
2, 130571, Note_on_c, 0, 77, 62
2, 130590, Note_on_c, 0, 93, 0
2, 130600, Note_on_c, 0, 93, 84
2, 130690, Note_on_c, 0, 91, 0
2, 130698, Note_on_c, 0, 91, 70
2, 130737, Control_c, 0, 64, 0
2, 130752, Note_on_c, 0, 72, 0
2, 130752, Note_on_c, 0, 88, 0
2, 130756, Note_on_c, 0, 88, 91
2, 130757, Note_on_c, 0, 72, 81
2, 130759, Note_on_c, 0, 77, 0
2, 130759, Note_on_c, 0, 84, 0
2, 130767, Note_on_c, 0, 76, 0
2, 130767, Note_on_c, 0, 93, 0
2, 130775, Note_on_c, 0, 86, 0
2, 130775, Note_on_c, 0, 89, 0
2, 130844, Control_c, 0, 64, 127
2, 130874, Note_on_c, 0, 91, 0
2, 130883, Note_on_c, 0, 91, 63
2, 130925, Note_on_c, 0, 76, 66
2, 130932, Note_on_c, 0, 93, 73
2, 131005, Note_on_c, 0, 91, 0
2, 131010, Note_on_c, 0, 91, 63
2, 131051, Note_on_c, 0, 93, 0
2, 131061, Note_on_c, 0, 93, 75
2, 131097, Note_on_c, 0, 72, 0
2, 131101, Note_on_c, 0, 72, 55
2, 131105, Note_on_c, 0, 91, 0
2, 131116, Note_on_c, 0, 91, 75
2, 131174, Note_on_c, 0, 93, 0
2, 131185, Note_on_c, 0, 93, 34
2, 131212, Note_on_c, 0, 91, 0
2, 131224, Note_on_c, 0, 91, 72
2, 131251, Note_on_c, 0, 76, 0
2, 131257, Note_on_c, 0, 76, 58
2, 131274, Note_on_c, 0, 93, 0
2, 131285, Note_on_c, 0, 93, 60
2, 131358, Note_on_c, 0, 91, 0
2, 131365, Note_on_c, 0, 91, 27
2, 131404, Note_on_c, 0, 72, 0
2, 131404, Note_on_c, 0, 93, 0
2, 131410, Note_on_c, 0, 93, 57
2, 131412, Note_on_c, 0, 72, 61
2, 131450, Note_on_c, 0, 91, 0
2, 131458, Note_on_c, 0, 91, 60
2, 131527, Note_on_c, 0, 93, 0
2, 131532, Note_on_c, 0, 93, 37
2, 131566, Note_on_c, 0, 91, 0
2, 131573, Note_on_c, 0, 91, 59
2, 131596, Note_on_c, 0, 76, 0
2, 131601, Note_on_c, 0, 76, 57
2, 131612, Note_on_c, 0, 93, 0
2, 131617, Note_on_c, 0, 93, 55
2, 131673, Note_on_c, 0, 91, 0
2, 131679, Note_on_c, 0, 91, 68
2, 131727, Note_on_c, 0, 93, 0
2, 131731, Note_on_c, 0, 93, 73
2, 131758, Note_on_c, 0, 72, 0
2, 131769, Note_on_c, 0, 72, 64
2, 131788, Note_on_c, 0, 91, 0
2, 131795, Note_on_c, 0, 91, 66
2, 131834, Note_on_c, 0, 93, 0
2, 131845, Note_on_c, 0, 93, 75
2, 131904, Note_on_c, 0, 91, 0
2, 131908, Note_on_c, 0, 91, 65
2, 131942, Note_on_c, 0, 76, 0
2, 131950, Note_on_c, 0, 76, 54
2, 131957, Note_on_c, 0, 93, 0
2, 131962, Note_on_c, 0, 93, 66
2, 131996, Note_on_c, 0, 91, 0
2, 132002, Note_on_c, 0, 91, 83
2, 132057, Note_on_c, 0, 93, 0
2, 132067, Note_on_c, 0, 93, 91
2, 132080, Note_on_c, 0, 72, 0
2, 132089, Note_on_c, 0, 72, 64
2, 132157, Note_on_c, 0, 91, 0
2, 132168, Note_on_c, 0, 91, 71
2, 132226, Note_on_c, 0, 72, 0
2, 132231, Note_on_c, 0, 72, 66
2, 132236, Note_on_c, 0, 84, 90
2, 132248, Note_on_c, 0, 77, 67
2, 132326, Note_on_c, 0, 91, 0
2, 132334, Note_on_c, 0, 91, 59
2, 132380, Note_on_c, 0, 93, 0
2, 132384, Note_on_c, 0, 93, 76
2, 132410, Note_on_c, 0, 72, 0
2, 132419, Note_on_c, 0, 72, 63
2, 132495, Note_on_c, 0, 93, 0
2, 132503, Note_on_c, 0, 93, 77
2, 132579, Note_on_c, 0, 77, 0
2, 132579, Note_on_c, 0, 91, 0
2, 132584, Note_on_c, 0, 91, 70
2, 132585, Note_on_c, 0, 77, 58
2, 132672, Note_on_c, 0, 93, 0
2, 132676, Note_on_c, 0, 93, 60
2, 132730, Note_on_c, 0, 86, 81
2, 132748, Note_on_c, 0, 72, 0
2, 132758, Note_on_c, 0, 72, 60
2, 132794, Note_on_c, 0, 91, 0
2, 132804, Note_on_c, 0, 91, 69
2, 132864, Note_on_c, 0, 93, 0
2, 132873, Note_on_c, 0, 93, 70
2, 132910, Note_on_c, 0, 77, 0
2, 132919, Note_on_c, 0, 77, 43
2, 132986, Note_on_c, 0, 93, 0
2, 132991, Note_on_c, 0, 93, 75
2, 133040, Note_on_c, 0, 72, 0
2, 133049, Note_on_c, 0, 72, 64
2, 133117, Note_on_c, 0, 93, 0
2, 133127, Note_on_c, 0, 93, 81
2, 133178, Note_on_c, 0, 91, 0
2, 133188, Note_on_c, 0, 91, 62
2, 133228, Note_on_c, 0, 89, 96
2, 133248, Note_on_c, 0, 77, 0
2, 133252, Note_on_c, 0, 77, 68
2, 133317, Note_on_c, 0, 91, 0
2, 133328, Note_on_c, 0, 91, 54
2, 133355, Note_on_c, 0, 93, 0
2, 133365, Note_on_c, 0, 93, 86
2, 133401, Note_on_c, 0, 72, 0
2, 133412, Note_on_c, 0, 72, 65
2, 133440, Note_on_c, 0, 91, 0
2, 133447, Note_on_c, 0, 91, 63
2, 133486, Note_on_c, 0, 93, 0
2, 133496, Note_on_c, 0, 93, 75
2, 133547, Note_on_c, 0, 77, 0
2, 133547, Note_on_c, 0, 91, 0
2, 133552, Note_on_c, 0, 91, 74
2, 133555, Note_on_c, 0, 77, 68
2, 133685, Note_on_c, 0, 88, 0
2, 133695, Note_on_c, 0, 88, 86
2, 133716, Note_on_c, 0, 72, 0
2, 133722, Note_on_c, 0, 72, 77
2, 133770, Note_on_c, 0, 91, 0
2, 133777, Note_on_c, 0, 91, 72
2, 133847, Note_on_c, 0, 93, 0
2, 133854, Note_on_c, 0, 76, 0
2, 133857, Note_on_c, 0, 93, 78
2, 133862, Note_on_c, 0, 76, 65
2, 133923, Note_on_c, 0, 91, 0
2, 133934, Note_on_c, 0, 91, 52
2, 133977, Note_on_c, 0, 93, 0
2, 133984, Note_on_c, 0, 93, 74
2, 134000, Note_on_c, 0, 72, 0
2, 134004, Note_on_c, 0, 84, 0
2, 134010, Note_on_c, 0, 72, 69
2, 134069, Note_on_c, 0, 91, 0
2, 134079, Note_on_c, 0, 91, 63
2, 134169, Note_on_c, 0, 76, 0
2, 134174, Note_on_c, 0, 76, 66
2, 134185, Note_on_c, 0, 96, 77
2, 134307, Note_on_c, 0, 96, 0
2, 134316, Note_on_c, 0, 96, 71
2, 134338, Note_on_c, 0, 72, 0
2, 134345, Note_on_c, 0, 72, 63
2, 134375, Note_on_c, 0, 98, 55
2, 134415, Note_on_c, 0, 96, 0
2, 134426, Note_on_c, 0, 96, 73
2, 134507, Note_on_c, 0, 76, 0
2, 134515, Note_on_c, 0, 98, 0
2, 134515, Note_on_c, 0, 76, 60
2, 134519, Note_on_c, 0, 98, 58
2, 134553, Note_on_c, 0, 96, 0
2, 134558, Note_on_c, 0, 96, 67
2, 134622, Note_on_c, 0, 98, 0
2, 134630, Note_on_c, 0, 98, 77
2, 134661, Note_on_c, 0, 72, 0
2, 134668, Note_on_c, 0, 96, 0
2, 134671, Note_on_c, 0, 72, 68
2, 134672, Note_on_c, 0, 96, 72
2, 134745, Note_on_c, 0, 98, 0
2, 134752, Note_on_c, 0, 98, 51
2, 134784, Note_on_c, 0, 96, 0
2, 134788, Note_on_c, 0, 96, 67
2, 134830, Note_on_c, 0, 76, 0
2, 134835, Note_on_c, 0, 76, 60
2, 134845, Note_on_c, 0, 98, 0
2, 134856, Note_on_c, 0, 98, 76
2, 134906, Note_on_c, 0, 96, 0
2, 134918, Note_on_c, 0, 96, 63
2, 134952, Note_on_c, 0, 98, 0
2, 134962, Note_on_c, 0, 98, 87
2, 134976, Note_on_c, 0, 72, 0
2, 134985, Note_on_c, 0, 72, 74
2, 135060, Note_on_c, 0, 96, 0
2, 135071, Note_on_c, 0, 96, 65
2, 135121, Note_on_c, 0, 93, 0
2, 135127, Note_on_c, 0, 93, 107
2, 135128, Note_on_c, 0, 77, 0
2, 135128, Note_on_c, 0, 86, 0
2, 135131, Note_on_c, 0, 76, 0
2, 135137, Note_on_c, 0, 88, 0
2, 135138, Control_c, 0, 64, 0
2, 135144, Note_on_c, 0, 72, 0
2, 135144, Note_on_c, 0, 89, 0
2, 135147, Note_on_c, 0, 70, 67
2, 135152, Note_on_c, 0, 91, 0
2, 135152, Note_on_c, 0, 98, 0
2, 135191, Note_on_c, 0, 96, 0
2, 135214, Control_c, 0, 64, 127
2, 135225, Note_on_c, 0, 96, 81
2, 135291, Note_on_c, 0, 98, 81
2, 135293, Note_on_c, 0, 72, 72
2, 135352, Note_on_c, 0, 96, 0
2, 135362, Note_on_c, 0, 96, 67
2, 135452, Note_on_c, 0, 70, 0
2, 135460, Note_on_c, 0, 82, 62
2, 135462, Note_on_c, 0, 70, 66
2, 135467, Note_on_c, 0, 82, 0
2, 135528, Note_on_c, 0, 96, 0
2, 135540, Note_on_c, 0, 96, 76
2, 135609, Note_on_c, 0, 91, 90
2, 135628, Note_on_c, 0, 72, 0
2, 135634, Note_on_c, 0, 72, 67
2, 135674, Note_on_c, 0, 96, 0
2, 135685, Note_on_c, 0, 96, 69
2, 135736, Note_on_c, 0, 98, 0
2, 135747, Note_on_c, 0, 98, 78
2, 135782, Note_on_c, 0, 70, 0
2, 135786, Note_on_c, 0, 70, 58
2, 135805, Note_on_c, 0, 96, 0
2, 135811, Note_on_c, 0, 96, 76
2, 135882, Note_on_c, 0, 98, 0
2, 135886, Note_on_c, 0, 98, 56
2, 135928, Note_on_c, 0, 96, 0
2, 135933, Note_on_c, 0, 96, 76
2, 135959, Note_on_c, 0, 72, 0
2, 135962, Note_on_c, 0, 72, 68
2, 135982, Note_on_c, 0, 98, 0
2, 135992, Note_on_c, 0, 98, 74
2, 136058, Note_on_c, 0, 96, 0
2, 136065, Note_on_c, 0, 96, 61
2, 136101, Note_on_c, 0, 88, 95
2, 136104, Note_on_c, 0, 70, 0
2, 136115, Note_on_c, 0, 70, 76
2, 136123, Note_on_c, 0, 82, 67
2, 136181, Note_on_c, 0, 96, 0
2, 136185, Note_on_c, 0, 96, 78
2, 136250, Note_on_c, 0, 98, 0
2, 136261, Note_on_c, 0, 98, 77
2, 136281, Note_on_c, 0, 72, 0
2, 136286, Note_on_c, 0, 72, 62
2, 136289, Note_on_c, 0, 93, 0
2, 136320, Note_on_c, 0, 96, 0
2, 136324, Note_on_c, 0, 96, 73
2, 136419, Note_on_c, 0, 70, 0
2, 136419, Note_on_c, 0, 98, 0
2, 136425, Note_on_c, 0, 98, 62
2, 136431, Note_on_c, 0, 70, 62
2, 136473, Note_on_c, 0, 82, 0
2, 136488, Note_on_c, 0, 96, 0
2, 136499, Note_on_c, 0, 96, 70
2, 136583, Note_on_c, 0, 70, 0
2, 136584, Control_c, 0, 64, 0
2, 136584, Note_on_c, 0, 72, 0
2, 136584, Note_on_c, 0, 98, 0
2, 136585, Note_on_c, 0, 88, 0
2, 136585, Note_on_c, 0, 91, 0
2, 136593, Note_on_c, 0, 84, 76
2, 136597, Note_on_c, 0, 69, 64
2, 136598, Note_on_c, 0, 62, 41
2, 136604, Note_on_c, 0, 62, 0
2, 136619, Note_on_c, 0, 96, 0
2, 136665, Control_c, 0, 64, 127
2, 136703, Note_on_c, 0, 96, 76
2, 136754, Note_on_c, 0, 72, 63
2, 136796, Note_on_c, 0, 98, 62
2, 136849, Note_on_c, 0, 96, 0
2, 136855, Note_on_c, 0, 96, 67
2, 136911, Note_on_c, 0, 69, 0
2, 136911, Note_on_c, 0, 98, 0
2, 136916, Note_on_c, 0, 98, 69
2, 136922, Note_on_c, 0, 69, 53
2, 136972, Note_on_c, 0, 96, 0
2, 136978, Note_on_c, 0, 96, 77
2, 137064, Note_on_c, 0, 72, 0
2, 137076, Note_on_c, 0, 72, 55
2, 137103, Note_on_c, 0, 96, 0
2, 137108, Note_on_c, 0, 96, 67
2, 137218, Note_on_c, 0, 69, 0
2, 137229, Note_on_c, 0, 69, 61
2, 137303, Note_on_c, 0, 98, 0
2, 137310, Note_on_c, 0, 98, 50
2, 137349, Note_on_c, 0, 96, 0
2, 137356, Note_on_c, 0, 96, 52
2, 137387, Note_on_c, 0, 72, 0
2, 137398, Note_on_c, 0, 72, 60
2, 137418, Note_on_c, 0, 98, 0
2, 137426, Note_on_c, 0, 98, 52
2, 137464, Note_on_c, 0, 96, 0
2, 137475, Note_on_c, 0, 96, 65
2, 137533, Note_on_c, 0, 98, 0
2, 137544, Note_on_c, 0, 98, 41
2, 137564, Note_on_c, 0, 69, 0
2, 137569, Note_on_c, 0, 69, 61
2, 137587, Note_on_c, 0, 96, 0
2, 137595, Note_on_c, 0, 96, 65
2, 137664, Note_on_c, 0, 98, 0
2, 137668, Note_on_c, 0, 98, 54
2, 137694, Note_on_c, 0, 96, 0
2, 137700, Note_on_c, 0, 96, 73
2, 137725, Note_on_c, 0, 72, 0
2, 137735, Note_on_c, 0, 72, 61
2, 137763, Note_on_c, 0, 98, 0
2, 137772, Note_on_c, 0, 98, 72
2, 137832, Note_on_c, 0, 96, 0
2, 137837, Note_on_c, 0, 96, 72
2, 137879, Note_on_c, 0, 69, 0
2, 137886, Note_on_c, 0, 98, 0
2, 137890, Note_on_c, 0, 69, 68
2, 137896, Note_on_c, 0, 98, 75
2, 137971, Note_on_c, 0, 96, 0
2, 137982, Note_on_c, 0, 96, 74
2, 138024, Control_c, 0, 64, 0
2, 138024, Note_on_c, 0, 96, 0
2, 138025, Note_on_c, 0, 72, 0
2, 138025, Note_on_c, 0, 69, 0
2, 138032, Note_on_c, 0, 89, 102
2, 138032, Note_on_c, 0, 84, 0
2, 138048, Note_on_c, 0, 98, 0
2, 138058, Note_on_c, 0, 68, 70
2, 138101, Control_c, 0, 64, 127
2, 138143, Note_on_c, 0, 96, 71
2, 138219, Note_on_c, 0, 98, 71
2, 138221, Note_on_c, 0, 72, 64
2, 138286, Note_on_c, 0, 96, 0
2, 138297, Note_on_c, 0, 96, 61
2, 138347, Note_on_c, 0, 68, 0
2, 138355, Note_on_c, 0, 98, 0
2, 138357, Note_on_c, 0, 68, 62
2, 138360, Note_on_c, 0, 98, 63
2, 138455, Note_on_c, 0, 96, 0
2, 138459, Note_on_c, 0, 96, 59
2, 138528, Note_on_c, 0, 88, 89
2, 138531, Note_on_c, 0, 72, 0
2, 138542, Note_on_c, 0, 72, 75
2, 138616, Note_on_c, 0, 96, 0
2, 138621, Note_on_c, 0, 96, 74
2, 138670, Note_on_c, 0, 98, 0
2, 138681, Note_on_c, 0, 98, 80
2, 138708, Note_on_c, 0, 68, 0
2, 138718, Note_on_c, 0, 68, 57
2, 138746, Note_on_c, 0, 96, 0
2, 138751, Note_on_c, 0, 96, 75
2, 138869, Note_on_c, 0, 98, 0
2, 138876, Note_on_c, 0, 98, 80
2, 138877, Note_on_c, 0, 72, 0
2, 138883, Note_on_c, 0, 72, 64
2, 138961, Note_on_c, 0, 96, 0
2, 138971, Note_on_c, 0, 96, 69
2, 139035, Note_on_c, 0, 86, 80
2, 139038, Note_on_c, 0, 68, 0
2, 139044, Note_on_c, 0, 68, 70
2, 139115, Note_on_c, 0, 96, 0
2, 139126, Note_on_c, 0, 96, 68
2, 139176, Note_on_c, 0, 98, 0
2, 139183, Note_on_c, 0, 98, 75
2, 139200, Note_on_c, 0, 72, 0
2, 139210, Note_on_c, 0, 72, 61
2, 139261, Note_on_c, 0, 96, 0
2, 139265, Note_on_c, 0, 96, 65
2, 139330, Note_on_c, 0, 98, 0
2, 139341, Note_on_c, 0, 98, 67
2, 139353, Note_on_c, 0, 68, 0
2, 139359, Note_on_c, 0, 68, 59
2, 139445, Note_on_c, 0, 96, 0
2, 139455, Note_on_c, 0, 96, 65
2, 139503, Note_on_c, 0, 96, 0
2, 139504, Note_on_c, 0, 68, 0
2, 139504, Note_on_c, 0, 86, 0
2, 139505, Note_on_c, 0, 72, 0
2, 139510, Control_c, 0, 64, 0
2, 139522, Note_on_c, 0, 88, 0
2, 139522, Note_on_c, 0, 89, 0
2, 139522, Note_on_c, 0, 98, 0
2, 139533, Note_on_c, 0, 88, 90
2, 139536, Note_on_c, 0, 67, 66
2, 139591, Control_c, 0, 64, 127
2, 139632, Note_on_c, 0, 96, 64
2, 139701, Note_on_c, 0, 72, 68
2, 139702, Note_on_c, 0, 98, 76
2, 139752, Note_on_c, 0, 96, 0
2, 139763, Note_on_c, 0, 96, 76
2, 139822, Note_on_c, 0, 67, 0
2, 139827, Note_on_c, 0, 67, 63
2, 139914, Note_on_c, 0, 96, 0
2, 139922, Note_on_c, 0, 96, 79
2, 139998, Note_on_c, 0, 72, 0
2, 140008, Note_on_c, 0, 72, 65
2, 140030, Note_on_c, 0, 91, 72
2, 140129, Note_on_c, 0, 93, 79
2, 140152, Note_on_c, 0, 67, 0
2, 140157, Note_on_c, 0, 67, 54
2, 140213, Note_on_c, 0, 91, 0
2, 140220, Note_on_c, 0, 91, 65
2, 140275, Note_on_c, 0, 93, 0
2, 140281, Note_on_c, 0, 93, 75
2, 140328, Note_on_c, 0, 72, 0
2, 140328, Note_on_c, 0, 91, 0
2, 140333, Note_on_c, 0, 91, 70
2, 140338, Note_on_c, 0, 72, 65
2, 140421, Note_on_c, 0, 93, 0
2, 140425, Note_on_c, 0, 93, 65
2, 140459, Note_on_c, 0, 91, 0
2, 140463, Note_on_c, 0, 91, 75
2, 140490, Note_on_c, 0, 67, 0
2, 140501, Note_on_c, 0, 67, 60
2, 140520, Note_on_c, 0, 93, 0
2, 140532, Note_on_c, 0, 93, 73
2, 140582, Note_on_c, 0, 91, 0
2, 140593, Note_on_c, 0, 91, 72
2, 140666, Note_on_c, 0, 72, 0
2, 140671, Note_on_c, 0, 72, 59
2, 140674, Note_on_c, 0, 93, 0
2, 140679, Note_on_c, 0, 93, 58
2, 140720, Note_on_c, 0, 91, 0
2, 140731, Note_on_c, 0, 91, 64
2, 140766, Note_on_c, 0, 93, 0
2, 140777, Note_on_c, 0, 93, 86
2, 140805, Note_on_c, 0, 67, 0
2, 140815, Note_on_c, 0, 67, 57
2, 140858, Note_on_c, 0, 91, 0
2, 140866, Note_on_c, 0, 91, 60
2, 140952, Note_on_c, 0, 96, 0
2, 140953, Note_on_c, 0, 72, 0
2, 140954, Note_on_c, 0, 67, 0
2, 140954, Note_on_c, 0, 91, 0
2, 140958, Note_on_c, 0, 98, 0
2, 140959, Control_c, 0, 64, 0
2, 140963, Note_on_c, 0, 86, 87
2, 140974, Note_on_c, 0, 93, 0
2, 140981, Note_on_c, 0, 88, 0
2, 140987, Note_on_c, 0, 66, 62
2, 141035, Control_c, 0, 64, 127
2, 141068, Note_on_c, 0, 91, 72
2, 141073, Note_on_c, 0, 66, 0
2, 141131, Note_on_c, 0, 93, 77
2, 141144, Note_on_c, 0, 72, 65
2, 141204, Note_on_c, 0, 91, 0
2, 141209, Note_on_c, 0, 91, 68
2, 141258, Note_on_c, 0, 93, 0
2, 141269, Note_on_c, 0, 93, 70
2, 141304, Note_on_c, 0, 66, 52
2, 141327, Note_on_c, 0, 91, 0
2, 141334, Note_on_c, 0, 91, 71
2, 141388, Note_on_c, 0, 93, 0
2, 141393, Note_on_c, 0, 93, 73
2, 141457, Note_on_c, 0, 72, 0
2, 141457, Note_on_c, 0, 91, 0
2, 141463, Note_on_c, 0, 91, 73
2, 141463, Note_on_c, 0, 72, 66
2, 141542, Note_on_c, 0, 93, 0
2, 141547, Note_on_c, 0, 93, 59
2, 141588, Note_on_c, 0, 91, 0
2, 141599, Note_on_c, 0, 91, 66
2, 141634, Note_on_c, 0, 66, 0
2, 141638, Note_on_c, 0, 66, 53
2, 141672, Note_on_c, 0, 93, 0
2, 141682, Note_on_c, 0, 93, 74
2, 141711, Note_on_c, 0, 91, 0
2, 141717, Note_on_c, 0, 91, 72
2, 141772, Note_on_c, 0, 72, 0
2, 141780, Note_on_c, 0, 93, 0
2, 141784, Note_on_c, 0, 72, 59
2, 141785, Note_on_c, 0, 93, 80
2, 141929, Note_on_c, 0, 63, 38
2, 141930, Note_on_c, 0, 84, 87
2, 141934, Note_on_c, 0, 63, 0
2, 141957, Note_on_c, 0, 66, 0
2, 141967, Note_on_c, 0, 66, 59
2, 142018, Note_on_c, 0, 91, 0
2, 142027, Note_on_c, 0, 91, 55
2, 142087, Note_on_c, 0, 93, 0
2, 142092, Note_on_c, 0, 93, 77
2, 142118, Note_on_c, 0, 72, 0
2, 142128, Note_on_c, 0, 72, 49
2, 142179, Note_on_c, 0, 91, 0
2, 142184, Note_on_c, 0, 91, 44
2, 142233, Note_on_c, 0, 66, 0
2, 142233, Note_on_c, 0, 93, 0
2, 142245, Note_on_c, 0, 66, 64
2, 142245, Note_on_c, 0, 93, 81
2, 142325, Note_on_c, 0, 91, 0
2, 142330, Note_on_c, 0, 91, 44
2, 142402, Note_on_c, 0, 86, 0
2, 142404, Note_on_c, 0, 72, 0
2, 142405, Note_on_c, 0, 91, 0
2, 142405, Note_on_c, 0, 66, 0
2, 142405, Note_on_c, 0, 84, 0
2, 142408, Note_on_c, 0, 86, 84
2, 142411, Control_c, 0, 64, 0
2, 142413, Note_on_c, 0, 67, 68
2, 142448, Note_on_c, 0, 93, 0
2, 142487, Control_c, 0, 64, 127
2, 142529, Note_on_c, 0, 91, 67
2, 142567, Note_on_c, 0, 71, 71
2, 142594, Note_on_c, 0, 93, 71
2, 142663, Note_on_c, 0, 91, 0
2, 142668, Note_on_c, 0, 91, 70
2, 142709, Note_on_c, 0, 67, 0
2, 142717, Note_on_c, 0, 67, 59
2, 142717, Note_on_c, 0, 93, 0
2, 142722, Note_on_c, 0, 93, 73
2, 142778, Note_on_c, 0, 91, 0
2, 142787, Note_on_c, 0, 91, 67
2, 142855, Note_on_c, 0, 93, 0
2, 142866, Note_on_c, 0, 93, 70
2, 142894, Note_on_c, 0, 91, 0
2, 142897, Note_on_c, 0, 69, 64
2, 142904, Note_on_c, 0, 91, 74
2, 142978, Note_on_c, 0, 93, 0
2, 142988, Note_on_c, 0, 93, 74
2, 143035, Note_on_c, 0, 72, 71
2, 143070, Note_on_c, 0, 91, 0
2, 143079, Note_on_c, 0, 91, 57
2, 143185, Note_on_c, 0, 69, 0
2, 143193, Note_on_c, 0, 91, 0
2, 143196, Note_on_c, 0, 69, 62
2, 143199, Note_on_c, 0, 91, 71
2, 143308, Note_on_c, 0, 93, 0
2, 143319, Note_on_c, 0, 93, 60
2, 143339, Note_on_c, 0, 67, 0
2, 143350, Note_on_c, 0, 67, 61
2, 143354, Note_on_c, 0, 91, 0
2, 143365, Note_on_c, 0, 91, 68
2, 143416, Note_on_c, 0, 93, 0
2, 143421, Note_on_c, 0, 93, 70
2, 143462, Note_on_c, 0, 91, 0
2, 143466, Note_on_c, 0, 91, 79
2, 143493, Note_on_c, 0, 71, 0
2, 143497, Note_on_c, 0, 71, 68
2, 143554, Note_on_c, 0, 93, 0
2, 143559, Note_on_c, 0, 93, 64
2, 143600, Note_on_c, 0, 91, 0
2, 143609, Note_on_c, 0, 91, 68
2, 143669, Note_on_c, 0, 67, 0
2, 143677, Note_on_c, 0, 93, 0
2, 143680, Note_on_c, 0, 67, 53
2, 143682, Note_on_c, 0, 93, 62
2, 143715, Note_on_c, 0, 91, 0
2, 143719, Note_on_c, 0, 91, 72
2, 143800, Note_on_c, 0, 93, 0
2, 143804, Note_on_c, 0, 93, 71
2, 143823, Note_on_c, 0, 86, 0
2, 143832, Note_on_c, 0, 69, 0
2, 143833, Note_on_c, 0, 71, 0
2, 143834, Note_on_c, 0, 67, 0
2, 143836, Note_on_c, 0, 72, 0
2, 143839, Control_c, 0, 64, 0
2, 143843, Note_on_c, 0, 65, 68
2, 143846, Note_on_c, 0, 91, 0
2, 143851, Note_on_c, 0, 91, 72
2, 143892, Control_c, 0, 64, 127
2, 143938, Note_on_c, 0, 93, 0
2, 143949, Note_on_c, 0, 93, 66
2, 143984, Note_on_c, 0, 91, 0
2, 143988, Note_on_c, 0, 91, 71
2, 143989, Note_on_c, 0, 69, 61
2, 144061, Note_on_c, 0, 93, 0
2, 144072, Note_on_c, 0, 93, 65
2, 144115, Note_on_c, 0, 91, 0
2, 144122, Note_on_c, 0, 91, 77
2, 144145, Note_on_c, 0, 65, 0
2, 144152, Note_on_c, 0, 65, 59
2, 144192, Note_on_c, 0, 93, 0
2, 144201, Note_on_c, 0, 93, 71
2, 144261, Note_on_c, 0, 91, 0
2, 144271, Note_on_c, 0, 91, 74
2, 144304, Note_on_c, 0, 64, 63
2, 144304, Note_on_c, 0, 65, 0
2, 144304, Control_c, 0, 64, 0
2, 144306, Note_on_c, 0, 69, 0
2, 144322, Control_c, 0, 64, 127
2, 144368, Note_on_c, 0, 93, 0
2, 144372, Note_on_c, 0, 93, 63
2, 144407, Note_on_c, 0, 91, 0
2, 144417, Note_on_c, 0, 91, 75
2, 144470, Note_on_c, 0, 67, 58
2, 144499, Note_on_c, 0, 93, 0
2, 144503, Note_on_c, 0, 93, 64
2, 144583, Note_on_c, 0, 91, 0
2, 144589, Note_on_c, 0, 91, 60
2, 144622, Note_on_c, 0, 64, 0
2, 144633, Note_on_c, 0, 64, 59
2, 144683, Note_on_c, 0, 93, 0
2, 144692, Note_on_c, 0, 93, 59
2, 144729, Note_on_c, 0, 91, 0
2, 144733, Note_on_c, 0, 91, 71
2, 144795, Note_on_c, 0, 62, 63
2, 144814, Note_on_c, 0, 93, 0
2, 144821, Note_on_c, 0, 93, 72
2, 144883, Note_on_c, 0, 91, 0
2, 144889, Note_on_c, 0, 91, 69
2, 144968, Note_on_c, 0, 65, 59
2, 144975, Note_on_c, 0, 93, 0
2, 144984, Note_on_c, 0, 93, 58
2, 145052, Note_on_c, 0, 91, 0
2, 145058, Note_on_c, 0, 91, 62
2, 145167, Note_on_c, 0, 62, 0
2, 145172, Note_on_c, 0, 62, 65
2, 145444, Control_c, 0, 64, 0
2, 145447, Note_on_c, 0, 91, 0
2, 145447, Note_on_c, 0, 62, 0
2, 145447, Note_on_c, 0, 88, 85
2, 145448, Note_on_c, 0, 93, 0
2, 145454, Note_on_c, 0, 48, 59
2, 145459, Note_on_c, 0, 64, 0
2, 145459, Note_on_c, 0, 65, 0
2, 145466, Note_on_c, 0, 79, 72
2, 145497, Note_on_c, 0, 67, 0
2, 145528, Control_c, 0, 64, 127
2, 145645, Note_on_c, 0, 81, 59
2, 145687, Note_on_c, 0, 64, 52
2, 145728, Note_on_c, 0, 79, 0
2, 145733, Note_on_c, 0, 79, 59
2, 145835, Note_on_c, 0, 81, 0
2, 145845, Note_on_c, 0, 81, 57
2, 145883, Note_on_c, 0, 60, 51
2, 145927, Note_on_c, 0, 79, 0
2, 145939, Note_on_c, 0, 79, 42
2, 145973, Note_on_c, 0, 81, 0
2, 145984, Note_on_c, 0, 81, 65
2, 146027, Note_on_c, 0, 64, 0
2, 146032, Note_on_c, 0, 64, 51
2, 146073, Note_on_c, 0, 79, 0
2, 146081, Note_on_c, 0, 79, 55
2, 146127, Note_on_c, 0, 81, 0
2, 146132, Note_on_c, 0, 81, 62
2, 146188, Note_on_c, 0, 79, 0
2, 146193, Note_on_c, 0, 79, 70
2, 146211, Note_on_c, 0, 60, 0
2, 146219, Note_on_c, 0, 60, 56
2, 146273, Note_on_c, 0, 81, 0
2, 146279, Note_on_c, 0, 81, 61
2, 146334, Note_on_c, 0, 79, 0
2, 146338, Note_on_c, 0, 79, 63
2, 146380, Note_on_c, 0, 64, 0
2, 146385, Note_on_c, 0, 64, 55
2, 146388, Note_on_c, 0, 81, 0
2, 146393, Note_on_c, 0, 81, 64
2, 146449, Note_on_c, 0, 79, 0
2, 146458, Note_on_c, 0, 79, 68
2, 146526, Note_on_c, 0, 60, 0
2, 146526, Note_on_c, 0, 81, 0
2, 146531, Note_on_c, 0, 60, 59
2, 146538, Note_on_c, 0, 81, 62
2, 146595, Note_on_c, 0, 79, 0
2, 146601, Note_on_c, 0, 79, 67
2, 146657, Note_on_c, 0, 81, 0
2, 146665, Note_on_c, 0, 81, 63
2, 146695, Note_on_c, 0, 64, 0
2, 146699, Note_on_c, 0, 64, 56
2, 146718, Note_on_c, 0, 79, 0
2, 146723, Note_on_c, 0, 79, 65
2, 146810, Note_on_c, 0, 60, 0
2, 146822, Note_on_c, 0, 60, 69
2, 146938, Note_on_c, 0, 48, 0
2, 146939, Note_on_c, 0, 79, 0
2, 146939, Control_c, 0, 64, 0
2, 146939, Note_on_c, 0, 81, 0
2, 146940, Note_on_c, 0, 64, 0
2, 146964, Note_on_c, 0, 60, 0
2, 146974, Note_on_c, 0, 84, 89
2, 146979, Note_on_c, 0, 88, 0
2, 146991, Note_on_c, 0, 48, 63
2, 147001, Note_on_c, 0, 79, 66
2, 147010, Control_c, 0, 64, 127
2, 147172, Note_on_c, 0, 65, 47
2, 147217, Note_on_c, 0, 79, 0
2, 147227, Note_on_c, 0, 79, 40
2, 147270, Note_on_c, 0, 81, 61
2, 147329, Note_on_c, 0, 60, 62
2, 147371, Note_on_c, 0, 79, 0
2, 147379, Note_on_c, 0, 79, 58
2, 147440, Note_on_c, 0, 81, 0
2, 147444, Note_on_c, 0, 81, 44
2, 147476, Note_on_c, 0, 86, 85
2, 147502, Note_on_c, 0, 65, 0
2, 147502, Note_on_c, 0, 79, 0
2, 147507, Note_on_c, 0, 65, 55
2, 147509, Note_on_c, 0, 79, 69
2, 147586, Note_on_c, 0, 81, 0
2, 147591, Note_on_c, 0, 81, 60
2, 147655, Note_on_c, 0, 60, 0
2, 147665, Note_on_c, 0, 60, 69
2, 147763, Note_on_c, 0, 81, 0
2, 147773, Note_on_c, 0, 81, 66
2, 147840, Note_on_c, 0, 65, 0
2, 147847, Note_on_c, 0, 79, 0
2, 147851, Note_on_c, 0, 65, 54
2, 147853, Note_on_c, 0, 79, 60
2, 147916, Note_on_c, 0, 81, 0
2, 147926, Note_on_c, 0, 81, 63
2, 147993, Note_on_c, 0, 79, 0
2, 147994, Note_on_c, 0, 89, 97
2, 148004, Note_on_c, 0, 79, 81
2, 148008, Note_on_c, 0, 60, 0
2, 148020, Note_on_c, 0, 60, 65
2, 148108, Note_on_c, 0, 81, 0
2, 148117, Note_on_c, 0, 81, 70
2, 148200, Note_on_c, 0, 65, 0
2, 148200, Note_on_c, 0, 79, 0
2, 148211, Note_on_c, 0, 79, 60
2, 148211, Note_on_c, 0, 65, 52
2, 148254, Note_on_c, 0, 81, 0
2, 148265, Note_on_c, 0, 81, 73
2, 148339, Note_on_c, 0, 79, 0
2, 148346, Note_on_c, 0, 60, 0
2, 148350, Note_on_c, 0, 79, 58
2, 148351, Note_on_c, 0, 60, 64
2, 148454, Note_on_c, 0, 81, 0
2, 148464, Note_on_c, 0, 81, 54
2, 148506, Note_on_c, 0, 86, 0
2, 148506, Note_on_c, 0, 81, 0
2, 148507, Note_on_c, 0, 60, 0
2, 148508, Note_on_c, 0, 84, 0
2, 148509, Note_on_c, 0, 89, 0
2, 148509, Note_on_c, 0, 65, 0
2, 148509, Control_c, 0, 64, 0
2, 148515, Note_on_c, 0, 48, 0
2, 148539, Note_on_c, 0, 88, 89
2, 148548, Note_on_c, 0, 48, 64
2, 148554, Note_on_c, 0, 79, 0
2, 148564, Note_on_c, 0, 79, 74
2, 148577, Control_c, 0, 64, 127
2, 148665, Note_on_c, 0, 81, 72
2, 148729, Note_on_c, 0, 64, 54
2, 148769, Note_on_c, 0, 79, 0
2, 148773, Note_on_c, 0, 79, 64
2, 148838, Note_on_c, 0, 81, 0
2, 148849, Note_on_c, 0, 81, 72
2, 148894, Note_on_c, 0, 60, 57
2, 148899, Note_on_c, 0, 79, 0
2, 148909, Note_on_c, 0, 79, 65
2, 148992, Note_on_c, 0, 81, 0
2, 148999, Note_on_c, 0, 81, 69
2, 149045, Note_on_c, 0, 64, 0
2, 149051, Note_on_c, 0, 64, 52
2, 149053, Note_on_c, 0, 79, 0
2, 149058, Note_on_c, 0, 79, 70
2, 149122, Note_on_c, 0, 81, 0
2, 149128, Note_on_c, 0, 81, 69
2, 149176, Note_on_c, 0, 79, 0
2, 149182, Note_on_c, 0, 79, 77
2, 149222, Note_on_c, 0, 60, 0
2, 149228, Note_on_c, 0, 60, 52
2, 149260, Note_on_c, 0, 81, 0
2, 149271, Note_on_c, 0, 81, 62
2, 149322, Note_on_c, 0, 79, 0
2, 149327, Note_on_c, 0, 79, 63
2, 149383, Note_on_c, 0, 64, 0
2, 149383, Note_on_c, 0, 81, 0
2, 149388, Note_on_c, 0, 64, 51
2, 149389, Note_on_c, 0, 81, 64
2, 149437, Note_on_c, 0, 79, 0
2, 149444, Note_on_c, 0, 79, 63
2, 149506, Note_on_c, 0, 81, 0
2, 149517, Note_on_c, 0, 81, 59
2, 149560, Note_on_c, 0, 60, 0
2, 149560, Note_on_c, 0, 79, 0
2, 149565, Note_on_c, 0, 79, 70
2, 149567, Note_on_c, 0, 60, 59
2, 149629, Note_on_c, 0, 81, 0
2, 149638, Note_on_c, 0, 81, 66
2, 149713, Note_on_c, 0, 79, 0
2, 149721, Note_on_c, 0, 64, 0
2, 149724, Note_on_c, 0, 79, 53
2, 149727, Note_on_c, 0, 64, 61
2, 149767, Note_on_c, 0, 81, 0
2, 149771, Note_on_c, 0, 81, 66
2, 149859, Note_on_c, 0, 79, 0
2, 149865, Note_on_c, 0, 79, 54
2, 149867, Note_on_c, 0, 60, 0
2, 149878, Note_on_c, 0, 60, 62
2, 149898, Note_on_c, 0, 81, 0
2, 149904, Note_on_c, 0, 81, 75
2, 149990, Note_on_c, 0, 79, 0
2, 150001, Note_on_c, 0, 79, 60
2, 150039, Note_on_c, 0, 60, 0
2, 150039, Note_on_c, 0, 81, 0
2, 150039, Note_on_c, 0, 64, 0
2, 150046, Control_c, 0, 64, 0
2, 150067, Note_on_c, 0, 48, 0
2, 150072, Note_on_c, 0, 72, 84
2, 150074, Note_on_c, 0, 79, 0
2, 150076, Note_on_c, 0, 48, 68
2, 150097, Control_c, 0, 64, 127
2, 150105, Note_on_c, 0, 88, 0
2, 150231, Note_on_c, 0, 81, 68
2, 150243, Note_on_c, 0, 65, 50
2, 150374, Note_on_c, 0, 81, 0
2, 150385, Note_on_c, 0, 81, 70
2, 150416, Note_on_c, 0, 60, 60
2, 150479, Note_on_c, 0, 79, 64
2, 150588, Note_on_c, 0, 74, 80
2, 150597, Note_on_c, 0, 65, 0
2, 150608, Note_on_c, 0, 65, 59
2, 150720, Note_on_c, 0, 81, 0
2, 150731, Note_on_c, 0, 81, 72
2, 150796, Note_on_c, 0, 60, 0
2, 150801, Note_on_c, 0, 60, 67
2, 150896, Note_on_c, 0, 81, 0
2, 150900, Note_on_c, 0, 81, 68
2, 150965, Note_on_c, 0, 65, 0
2, 150974, Note_on_c, 0, 65, 57
2, 151004, Note_on_c, 0, 79, 0
2, 151008, Note_on_c, 0, 79, 55
2, 151103, Note_on_c, 0, 77, 86
2, 151127, Note_on_c, 0, 60, 0
2, 151134, Note_on_c, 0, 60, 60
2, 151249, Note_on_c, 0, 81, 0
2, 151255, Note_on_c, 0, 81, 69
2, 151311, Note_on_c, 0, 65, 0
2, 151315, Note_on_c, 0, 65, 60
2, 151395, Note_on_c, 0, 81, 0
2, 151405, Note_on_c, 0, 81, 68
2, 151449, Note_on_c, 0, 60, 0
2, 151459, Note_on_c, 0, 60, 68
2, 151644, Note_on_c, 0, 74, 0
2, 151645, Note_on_c, 0, 72, 0
2, 151645, Control_c, 0, 64, 0
2, 151645, Note_on_c, 0, 81, 0
2, 151645, Note_on_c, 0, 60, 0
2, 151645, Note_on_c, 0, 79, 0
2, 151645, Note_on_c, 0, 65, 0
2, 151645, Note_on_c, 0, 77, 0
2, 151649, Note_on_c, 0, 48, 0
2, 151676, Note_on_c, 0, 76, 90
2, 151681, Note_on_c, 0, 48, 70
2, 151718, Control_c, 0, 64, 127
2, 151811, Note_on_c, 0, 79, 64
2, 151898, Note_on_c, 0, 81, 79
2, 151898, Note_on_c, 0, 52, 64
2, 152002, Note_on_c, 0, 79, 0
2, 152007, Note_on_c, 0, 79, 67
2, 152079, Note_on_c, 0, 48, 0
2, 152079, Note_on_c, 0, 81, 0
2, 152089, Note_on_c, 0, 81, 66
2, 152090, Note_on_c, 0, 48, 52
2, 152194, Note_on_c, 0, 79, 0
2, 152201, Note_on_c, 0, 79, 47
2, 152240, Note_on_c, 0, 52, 0
2, 152240, Note_on_c, 0, 81, 0
2, 152244, Note_on_c, 0, 52, 50
2, 152247, Note_on_c, 0, 81, 73
2, 152325, Note_on_c, 0, 79, 0
2, 152335, Note_on_c, 0, 79, 64
2, 152417, Note_on_c, 0, 48, 0
2, 152424, Note_on_c, 0, 81, 0
2, 152426, Note_on_c, 0, 48, 47
2, 152428, Note_on_c, 0, 81, 61
2, 152547, Note_on_c, 0, 81, 0
2, 152553, Note_on_c, 0, 81, 69
2, 152570, Note_on_c, 0, 52, 0
2, 152576, Note_on_c, 0, 52, 49
2, 152624, Note_on_c, 0, 79, 0
2, 152634, Note_on_c, 0, 79, 62
2, 152724, Note_on_c, 0, 81, 0
2, 152732, Note_on_c, 0, 81, 58
2, 152755, Note_on_c, 0, 48, 0
2, 152759, Note_on_c, 0, 48, 56
2, 152778, Note_on_c, 0, 79, 0
2, 152782, Note_on_c, 0, 79, 52
2, 152862, Note_on_c, 0, 81, 0
2, 152872, Note_on_c, 0, 81, 55
2, 152893, Note_on_c, 0, 79, 0
2, 152903, Note_on_c, 0, 79, 65
2, 152939, Note_on_c, 0, 52, 0
2, 152943, Note_on_c, 0, 52, 58
2, 152993, Note_on_c, 0, 81, 0
2, 153004, Note_on_c, 0, 81, 39
2, 153062, Note_on_c, 0, 79, 0
2, 153068, Note_on_c, 0, 79, 56
2, 153070, Note_on_c, 0, 48, 0
2, 153078, Note_on_c, 0, 48, 67
2, 153273, Note_on_c, 0, 91, 93
2, 153291, Note_on_c, 0, 36, 66
2, 153292, Note_on_c, 0, 79, 0
2, 153303, Note_on_c, 0, 79, 68
2, 153423, Note_on_c, 0, 81, 0
2, 153430, Note_on_c, 0, 81, 80
2, 153461, Note_on_c, 0, 52, 0
2, 153468, Note_on_c, 0, 52, 53
2, 153515, Note_on_c, 0, 79, 0
2, 153526, Note_on_c, 0, 79, 50
2, 153576, Note_on_c, 0, 81, 0
2, 153588, Note_on_c, 0, 81, 80
2, 153592, Note_on_c, 0, 76, 0
2, 153646, Note_on_c, 0, 48, 0
2, 153651, Note_on_c, 0, 48, 53
2, 153653, Note_on_c, 0, 79, 0
2, 153663, Note_on_c, 0, 79, 60
2, 153753, Note_on_c, 0, 81, 0
2, 153763, Note_on_c, 0, 81, 80
2, 153768, Note_on_c, 0, 52, 0
2, 153773, Note_on_c, 0, 52, 52
2, 153815, Note_on_c, 0, 79, 0
2, 153824, Note_on_c, 0, 79, 62
2, 153899, Note_on_c, 0, 81, 0
2, 153907, Note_on_c, 0, 81, 74
2, 153938, Note_on_c, 0, 76, 40
2, 153945, Note_on_c, 0, 76, 0
2, 153960, Note_on_c, 0, 48, 0
2, 153965, Note_on_c, 0, 48, 57
2, 154060, Note_on_c, 0, 81, 0
2, 154071, Note_on_c, 0, 81, 64
2, 154114, Note_on_c, 0, 52, 0
2, 154118, Note_on_c, 0, 52, 48
2, 154176, Note_on_c, 0, 81, 0
2, 154185, Note_on_c, 0, 81, 76
2, 154191, Note_on_c, 0, 48, 0
2, 154200, Note_on_c, 0, 48, 41
2, 154283, Note_on_c, 0, 48, 0
2, 154287, Note_on_c, 0, 48, 61
2, 154293, Note_on_c, 0, 76, 57
2, 154329, Note_on_c, 0, 81, 0
2, 154341, Note_on_c, 0, 81, 74
2, 154344, Note_on_c, 0, 76, 0
2, 154475, Note_on_c, 0, 52, 0
2, 154480, Note_on_c, 0, 52, 52
2, 154621, Note_on_c, 0, 48, 0
2, 154626, Note_on_c, 0, 48, 57
2, 154629, Note_on_c, 0, 81, 0
2, 154636, Note_on_c, 0, 81, 73
2, 154805, Note_on_c, 0, 91, 0
2, 154813, Note_on_c, 0, 91, 90
2, 154813, Note_on_c, 0, 36, 0
2, 154813, Note_on_c, 0, 79, 0
2, 154818, Note_on_c, 0, 79, 80
2, 154823, Note_on_c, 0, 36, 65
2, 154944, Note_on_c, 0, 48, 0
2, 154944, Note_on_c, 0, 81, 0
2, 154948, Note_on_c, 0, 81, 64
2, 154949, Note_on_c, 0, 48, 46
2, 154997, Note_on_c, 0, 52, 0
2, 155004, Note_on_c, 0, 52, 59
2, 155043, Note_on_c, 0, 79, 0
2, 155052, Note_on_c, 0, 79, 42
2, 155105, Note_on_c, 0, 81, 0
2, 155112, Note_on_c, 0, 81, 71
2, 155166, Note_on_c, 0, 48, 0
2, 155166, Note_on_c, 0, 79, 0
2, 155177, Note_on_c, 0, 48, 46
2, 155178, Note_on_c, 0, 79, 46
2, 155228, Note_on_c, 0, 81, 0
2, 155237, Note_on_c, 0, 81, 74
2, 155297, Note_on_c, 0, 79, 0
2, 155307, Note_on_c, 0, 79, 64
2, 155312, Note_on_c, 0, 52, 0
2, 155323, Note_on_c, 0, 52, 54
2, 155381, Note_on_c, 0, 81, 0
2, 155388, Note_on_c, 0, 81, 65
2, 155427, Note_on_c, 0, 79, 0
2, 155432, Note_on_c, 0, 79, 60
2, 155496, Note_on_c, 0, 48, 0
2, 155501, Note_on_c, 0, 48, 49
2, 155535, Note_on_c, 0, 81, 0
2, 155542, Note_on_c, 0, 81, 64
2, 155566, Note_on_c, 0, 79, 0
2, 155576, Note_on_c, 0, 79, 61
2, 155658, Note_on_c, 0, 52, 0
2, 155658, Note_on_c, 0, 81, 0
2, 155667, Note_on_c, 0, 81, 59
2, 155668, Note_on_c, 0, 52, 45
2, 155688, Note_on_c, 0, 79, 0
2, 155696, Note_on_c, 0, 79, 67
2, 155781, Note_on_c, 0, 81, 0
2, 155787, Note_on_c, 0, 81, 66
2, 155850, Note_on_c, 0, 48, 0
2, 155850, Note_on_c, 0, 79, 0
2, 155856, Note_on_c, 0, 79, 58
2, 155861, Note_on_c, 0, 48, 54
2, 155927, Note_on_c, 0, 81, 0
2, 155937, Note_on_c, 0, 81, 62
2, 155965, Note_on_c, 0, 79, 0
2, 155975, Note_on_c, 0, 79, 62
2, 156026, Note_on_c, 0, 52, 0
2, 156033, Note_on_c, 0, 52, 49
2, 156203, Note_on_c, 0, 48, 0
2, 156208, Note_on_c, 0, 48, 59
2, 156403, Note_on_c, 0, 36, 0
2, 156403, Note_on_c, 0, 91, 0
2, 156410, Note_on_c, 0, 79, 0
2, 156413, Note_on_c, 0, 36, 61
2, 156414, Note_on_c, 0, 91, 80
2, 156416, Note_on_c, 0, 79, 72
2, 156579, Note_on_c, 0, 81, 0
2, 156583, Note_on_c, 0, 81, 59
2, 156587, Note_on_c, 0, 52, 0
2, 156591, Note_on_c, 0, 52, 56
2, 156710, Note_on_c, 0, 81, 0
2, 156721, Note_on_c, 0, 81, 66
2, 156779, Note_on_c, 0, 48, 0
2, 156783, Note_on_c, 0, 48, 49
2, 156871, Note_on_c, 0, 81, 0
2, 156881, Note_on_c, 0, 81, 64
2, 156887, Note_on_c, 0, 48, 0
2, 156892, Note_on_c, 0, 48, 44
2, 156986, Note_on_c, 0, 52, 0
2, 156986, Note_on_c, 0, 79, 0
2, 156991, Note_on_c, 0, 52, 41
2, 156992, Note_on_c, 0, 79, 46
2, 157040, Note_on_c, 0, 81, 0
2, 157047, Note_on_c, 0, 81, 61
2, 157148, Note_on_c, 0, 48, 0
2, 157148, Note_on_c, 0, 79, 0
2, 157153, Note_on_c, 0, 79, 52
2, 157157, Note_on_c, 0, 48, 43
2, 157209, Note_on_c, 0, 81, 0
2, 157218, Note_on_c, 0, 81, 59
2, 157278, Note_on_c, 0, 79, 0
2, 157288, Note_on_c, 0, 79, 55
2, 157363, Note_on_c, 0, 52, 0
2, 157368, Note_on_c, 0, 52, 45
2, 157371, Note_on_c, 0, 76, 34
2, 157378, Note_on_c, 0, 76, 0
2, 157416, Note_on_c, 0, 81, 0
2, 157427, Note_on_c, 0, 81, 63
2, 157539, Note_on_c, 0, 79, 0
2, 157544, Note_on_c, 0, 79, 47
2, 157570, Note_on_c, 0, 48, 0
2, 157580, Note_on_c, 0, 48, 49
2, 157655, Note_on_c, 0, 81, 0
2, 157659, Note_on_c, 0, 81, 51
2, 157847, Note_on_c, 0, 48, 0
2, 157847, Note_on_c, 0, 79, 0
2, 157851, Note_on_c, 0, 48, 37
2, 157854, Note_on_c, 0, 52, 0
2, 157856, Note_on_c, 0, 79, 45
2, 157863, Note_on_c, 0, 52, 44
2, 157969, Note_on_c, 0, 81, 0
2, 157979, Note_on_c, 0, 81, 48
2, 158131, Note_on_c, 0, 48, 0
2, 158140, Note_on_c, 0, 48, 46
2, 158338, Note_on_c, 0, 81, 0
2, 158347, Note_on_c, 0, 81, 35
2, 158461, Note_on_c, 0, 81, 0
2, 158471, Note_on_c, 0, 81, 31
2, 158638, Note_on_c, 0, 52, 0
2, 158647, Note_on_c, 0, 52, 45
2, 158668, Note_on_c, 0, 79, 0
2, 158679, Note_on_c, 0, 79, 56
2, 159099, Note_on_c, 0, 53, 44
2, 159360, Note_on_c, 0, 91, 0
2, 159369, Note_on_c, 0, 55, 52
2, 159560, Note_on_c, 0, 57, 58
2, 159740, Note_on_c, 0, 59, 62
2, 159908, Note_on_c, 0, 60, 59
2, 160062, Note_on_c, 0, 62, 61
2, 160245, Note_on_c, 0, 64, 65
2, 160416, Note_on_c, 0, 65, 64
2, 160573, Note_on_c, 0, 59, 0
2, 160583, Note_on_c, 0, 59, 58
2, 160588, Note_on_c, 0, 67, 53
2, 160761, Note_on_c, 0, 69, 67
2, 160780, Note_on_c, 0, 60, 0
2, 160787, Note_on_c, 0, 60, 58
2, 160915, Note_on_c, 0, 71, 74
2, 160934, Note_on_c, 0, 62, 0
2, 160939, Note_on_c, 0, 62, 61
2, 161018, Note_on_c, 0, 36, 0
2, 161088, Note_on_c, 0, 64, 0
2, 161090, Note_on_c, 0, 72, 79
2, 161097, Note_on_c, 0, 64, 64
2, 161264, Note_on_c, 0, 65, 0
2, 161271, Note_on_c, 0, 74, 80
2, 161274, Note_on_c, 0, 65, 62
2, 161425, Note_on_c, 0, 67, 0
2, 161435, Note_on_c, 0, 76, 79
2, 161435, Note_on_c, 0, 67, 60
2, 161610, Note_on_c, 0, 69, 0
2, 161612, Note_on_c, 0, 77, 88
2, 161615, Note_on_c, 0, 69, 61
2, 161786, Note_on_c, 0, 71, 0
2, 161786, Note_on_c, 0, 79, 0
2, 161791, Note_on_c, 0, 79, 84
2, 161791, Note_on_c, 0, 71, 67
2, 161971, Note_on_c, 0, 72, 0
2, 161971, Note_on_c, 0, 81, 0
2, 161978, Note_on_c, 0, 81, 84
2, 161982, Note_on_c, 0, 72, 71
2, 162170, Note_on_c, 0, 74, 0
2, 162172, Note_on_c, 0, 83, 82
2, 162182, Note_on_c, 0, 74, 67
2, 162183, Control_c, 0, 64, 0
2, 162183, Note_on_c, 0, 55, 0
2, 162183, Note_on_c, 0, 71, 0
2, 162183, Note_on_c, 0, 64, 0
2, 162184, Note_on_c, 0, 69, 0
2, 162184, Note_on_c, 0, 60, 0
2, 162184, Note_on_c, 0, 81, 0
2, 162184, Note_on_c, 0, 59, 0
2, 162184, Note_on_c, 0, 57, 0
2, 162184, Note_on_c, 0, 53, 0
2, 162184, Note_on_c, 0, 76, 0
2, 162184, Note_on_c, 0, 62, 0
2, 162186, Note_on_c, 0, 65, 0
2, 162186, Note_on_c, 0, 79, 0
2, 162186, Note_on_c, 0, 67, 0
2, 162187, Note_on_c, 0, 77, 0
2, 162190, Note_on_c, 0, 67, 55
2, 162201, Note_on_c, 0, 48, 0
2, 162201, Note_on_c, 0, 52, 0
2, 162201, Note_on_c, 0, 72, 0
2, 162247, Control_c, 0, 64, 127
2, 162373, Note_on_c, 0, 84, 79
2, 162380, Note_on_c, 0, 69, 57
2, 162388, Note_on_c, 0, 76, 64
2, 162569, Note_on_c, 0, 86, 84
2, 162572, Note_on_c, 0, 71, 68
2, 162579, Note_on_c, 0, 77, 71
2, 162766, Note_on_c, 0, 88, 83
2, 162782, Note_on_c, 0, 72, 74
2, 162783, Note_on_c, 0, 79, 73
2, 163000, Note_on_c, 0, 74, 0
2, 163003, Note_on_c, 0, 89, 89
2, 163011, Note_on_c, 0, 74, 67
2, 163014, Note_on_c, 0, 81, 69
2, 163238, Note_on_c, 0, 76, 0
2, 163246, Note_on_c, 0, 91, 87
2, 163247, Note_on_c, 0, 76, 70
2, 163276, Note_on_c, 0, 83, 0
2, 163281, Note_on_c, 0, 83, 60
2, 163506, Control_c, 0, 64, 0
2, 163508, Note_on_c, 0, 79, 0
2, 163522, Note_on_c, 0, 77, 0
2, 163526, Note_on_c, 0, 93, 86
2, 163528, Note_on_c, 0, 77, 65
2, 163537, Note_on_c, 0, 84, 0
2, 163546, Note_on_c, 0, 84, 53
2, 163584, Control_c, 0, 64, 127
2, 163837, Control_c, 0, 64, 0
2, 163845, Note_on_c, 0, 91, 0
2, 163852, Control_c, 0, 64, 127
2, 163852, Note_on_c, 0, 91, 81
2, 163868, Note_on_c, 0, 83, 0
2, 163872, Note_on_c, 0, 79, 67
2, 163872, Note_on_c, 0, 83, 60
2, 164279, Note_on_c, 0, 43, 32
2, 164282, Note_on_c, 0, 83, 0
2, 164282, Note_on_c, 0, 86, 0
2, 164286, Note_on_c, 0, 95, 81
2, 164287, Note_on_c, 0, 50, 33
2, 164290, Note_on_c, 0, 43, 0
2, 164291, Note_on_c, 0, 83, 65
2, 164294, Note_on_c, 0, 86, 72
2, 164298, Note_on_c, 0, 50, 0
2, 164932, Note_on_c, 0, 96, 81
2, 164943, Note_on_c, 0, 72, 0
2, 164943, Note_on_c, 0, 79, 0
2, 164943, Note_on_c, 0, 84, 0
2, 164943, Note_on_c, 0, 88, 0
2, 164947, Note_on_c, 0, 72, 63
2, 164949, Note_on_c, 0, 88, 67
2, 164951, Note_on_c, 0, 79, 65
2, 164954, Note_on_c, 0, 84, 61
2, 164984, Note_on_c, 0, 93, 0
2, 164985, Note_on_c, 0, 83, 0
2, 164985, Note_on_c, 0, 95, 0
2, 164986, Control_c, 0, 64, 0
2, 164986, Note_on_c, 0, 77, 0
2, 164986, Note_on_c, 0, 89, 0
2, 164989, Note_on_c, 0, 81, 0
2, 164997, Note_on_c, 0, 67, 0
2, 164997, Note_on_c, 0, 71, 0
2, 164997, Note_on_c, 0, 74, 0
2, 165004, Note_on_c, 0, 69, 0
2, 165004, Note_on_c, 0, 76, 0
2, 165012, Note_on_c, 0, 86, 0
2, 166341, Control_c, 0, 64, 127
2, 166955, Note_on_c, 0, 91, 0
2, 166970, Note_on_c, 0, 84, 0
2, 166981, Note_on_c, 0, 84, 64
2, 166993, Note_on_c, 0, 72, 0
2, 167000, Note_on_c, 0, 60, 42
2, 167001, Note_on_c, 0, 76, 53
2, 167004, Note_on_c, 0, 72, 52
2, 167020, Note_on_c, 0, 67, 36
2, 167040, Note_on_c, 0, 79, 0
2, 167040, Note_on_c, 0, 88, 0
2, 167040, Note_on_c, 0, 96, 0
2, 169512, Note_on_c, 0, 60, 0
2, 169517, Note_on_c, 0, 60, 60
2, 169528, Control_c, 0, 64, 0
2, 169540, Note_on_c, 0, 36, 38
2, 169543, Note_on_c, 0, 43, 42
2, 169543, Note_on_c, 0, 52, 51
2, 169566, Control_c, 0, 64, 127
2, 170880, Note_on_c, 0, 67, 0
2, 170880, Note_on_c, 0, 72, 0
2, 170880, Note_on_c, 0, 76, 0
2, 170880, Note_on_c, 0, 84, 0
2, 174128, Note_on_c, 0, 60, 0
2, 174151, Note_on_c, 0, 36, 0
2, 174151, Note_on_c, 0, 43, 0
2, 174151, Note_on_c, 0, 52, 0
2, 174572, Control_c, 0, 64, 0
2, 174573, End_track
0, 0, End_of_file
