0, 0, Header, 1, 2, 384
1, 0, Start_track
1, 0, Tempo, 500000
1, 0, Time_signature, 4, 2, 24, 8
1, 1, End_track
2, 0, Start_track
2, 284, Control_c, 0, 64, 127
2, 856, Control_c, 0, 64, 0
2, 1021, Note_on_c, 0, 43, 98
2, 1023, Note_on_c, 0, 31, 103
2, 1305, Control_c, 0, 64, 127
2, 1516, Note_on_c, 0, 80, 104
2, 1647, Note_on_c, 0, 86, 91
2, 1650, Note_on_c, 0, 89, 85
2, 1716, Note_on_c, 0, 92, 94
2, 1781, Note_on_c, 0, 89, 0
2, 1786, Note_on_c, 0, 89, 89
2, 1804, Note_on_c, 0, 86, 0
2, 1811, Note_on_c, 0, 86, 84
2, 1877, Note_on_c, 0, 77, 101
2, 1943, Note_on_c, 0, 86, 0
2, 1953, Note_on_c, 0, 86, 85
2, 1958, Note_on_c, 0, 83, 72
2, 1979, Note_on_c, 0, 84, 57
2, 1989, Note_on_c, 0, 84, 0
2, 2012, Note_on_c, 0, 89, 0
2, 2016, Note_on_c, 0, 89, 84
2, 2065, Note_on_c, 0, 83, 0
2, 2065, Note_on_c, 0, 86, 0
2, 2075, Note_on_c, 0, 83, 77
2, 2075, Note_on_c, 0, 86, 87
2, 2157, Note_on_c, 0, 74, 98
2, 2219, Note_on_c, 0, 80, 0
2, 2219, Note_on_c, 0, 83, 0
2, 2223, Note_on_c, 0, 80, 73
2, 2227, Note_on_c, 0, 83, 64
2, 2288, Note_on_c, 0, 86, 0
2, 2292, Note_on_c, 0, 86, 92
2, 2350, Note_on_c, 0, 83, 0
2, 2357, Note_on_c, 0, 84, 66
2, 2359, Note_on_c, 0, 83, 81
2, 2380, Note_on_c, 0, 80, 0
2, 2388, Note_on_c, 0, 80, 81
2, 2456, Note_on_c, 0, 68, 100
2, 2526, Note_on_c, 0, 77, 0
2, 2533, Note_on_c, 0, 77, 74
2, 2542, Note_on_c, 0, 74, 0
2, 2547, Note_on_c, 0, 74, 62
2, 2588, Note_on_c, 0, 80, 0
2, 2594, Note_on_c, 0, 80, 87
2, 2641, Note_on_c, 0, 77, 0
2, 2646, Note_on_c, 0, 77, 89
2, 2695, Note_on_c, 0, 74, 0
2, 2703, Note_on_c, 0, 74, 66
2, 2744, Note_on_c, 0, 65, 98
2, 2795, Note_on_c, 0, 74, 0
2, 2805, Note_on_c, 0, 74, 89
2, 2887, Note_on_c, 0, 77, 0
2, 2898, Note_on_c, 0, 77, 80
2, 2949, Note_on_c, 0, 74, 0
2, 2953, Note_on_c, 0, 74, 76
2, 2954, Note_on_c, 0, 71, 76
2, 3044, Note_on_c, 0, 62, 88
2, 3095, Note_on_c, 0, 65, 0
2, 3106, Note_on_c, 0, 65, 47
2, 3110, Note_on_c, 0, 68, 0
2, 3110, Note_on_c, 0, 71, 0
2, 3116, Note_on_c, 0, 71, 61
2, 3121, Note_on_c, 0, 68, 70
2, 3194, Note_on_c, 0, 74, 0
2, 3199, Note_on_c, 0, 74, 77
2, 3233, Note_on_c, 0, 71, 0
2, 3237, Note_on_c, 0, 71, 64
2, 3271, Note_on_c, 0, 68, 0
2, 3276, Note_on_c, 0, 68, 78
2, 3350, Note_on_c, 0, 56, 87
2, 3448, Note_on_c, 0, 65, 0
2, 3455, Note_on_c, 0, 65, 65
2, 3456, Note_on_c, 0, 62, 0
2, 3463, Note_on_c, 0, 62, 51
2, 3517, Note_on_c, 0, 68, 0
2, 3524, Note_on_c, 0, 68, 80
2, 3594, Note_on_c, 0, 65, 0
2, 3599, Note_on_c, 0, 65, 76
2, 3601, Note_on_c, 0, 62, 0
2, 3606, Note_on_c, 0, 62, 65
2, 3686, Note_on_c, 0, 53, 76
2, 3778, Note_on_c, 0, 62, 0
2, 3782, Note_on_c, 0, 62, 68
2, 3789, Note_on_c, 0, 59, 54
2, 3840, Note_on_c, 0, 65, 0
2, 3847, Note_on_c, 0, 65, 81
2, 3916, Note_on_c, 0, 62, 0
2, 3927, Note_on_c, 0, 62, 76
2, 3947, Note_on_c, 0, 59, 0
2, 3953, Note_on_c, 0, 59, 63
2, 4040, Note_on_c, 0, 50, 68
2, 4139, Note_on_c, 0, 56, 0
2, 4145, Note_on_c, 0, 56, 57
2, 4200, Note_on_c, 0, 53, 0
2, 4204, Note_on_c, 0, 53, 44
2, 4254, Note_on_c, 0, 62, 0
2, 4261, Note_on_c, 0, 62, 54
2, 4339, Note_on_c, 0, 59, 0
2, 4346, Note_on_c, 0, 56, 0
2, 4347, Note_on_c, 0, 59, 63
2, 4354, Note_on_c, 0, 56, 55
2, 4485, Note_on_c, 0, 43, 0
2, 4490, Note_on_c, 0, 43, 70
2, 4576, Control_c, 0, 64, 0
2, 4581, Note_on_c, 0, 56, 0
2, 4581, Note_on_c, 0, 59, 0
2, 4581, Note_on_c, 0, 71, 0
2, 4581, Note_on_c, 0, 80, 0
2, 4581, Note_on_c, 0, 68, 0
2, 4581, Note_on_c, 0, 65, 0
2, 4581, Note_on_c, 0, 62, 0
2, 4581, Note_on_c, 0, 89, 0
2, 4581, Note_on_c, 0, 74, 0
2, 4581, Note_on_c, 0, 53, 0
2, 4581, Note_on_c, 0, 77, 0
2, 4582, Note_on_c, 0, 92, 0
2, 4582, Note_on_c, 0, 50, 0
2, 4582, Note_on_c, 0, 86, 0
2, 4592, Note_on_c, 0, 84, 0
2, 4600, Note_on_c, 0, 83, 0
2, 4738, Note_on_c, 0, 50, 68
2, 4871, Note_on_c, 0, 55, 74
2, 4996, Note_on_c, 0, 59, 69
2, 5015, Control_c, 0, 64, 127
2, 5081, Note_on_c, 0, 62, 70
2, 5174, Note_on_c, 0, 65, 63
2, 5226, Note_on_c, 0, 67, 78
2, 5320, Note_on_c, 0, 71, 76
2, 5395, Note_on_c, 0, 74, 75
2, 5471, Note_on_c, 0, 77, 70
2, 5520, Note_on_c, 0, 79, 83
2, 5600, Note_on_c, 0, 83, 87
2, 5629, Note_on_c, 0, 31, 0
2, 5709, Note_on_c, 0, 86, 76
2, 5837, Note_on_c, 0, 89, 75
2, 6056, Note_on_c, 0, 91, 90
2, 8201, Note_on_c, 0, 65, 0
2, 8202, Note_on_c, 0, 67, 0
2, 8203, Note_on_c, 0, 77, 0
2, 8204, Note_on_c, 0, 86, 0
2, 8205, Note_on_c, 0, 55, 0
2, 8207, Note_on_c, 0, 50, 0
2, 8207, Note_on_c, 0, 59, 0
2, 8209, Note_on_c, 0, 74, 0
2, 8209, Note_on_c, 0, 43, 0
2, 8211, Note_on_c, 0, 62, 0
2, 8211, Note_on_c, 0, 79, 0
2, 8212, Note_on_c, 0, 71, 0
2, 8214, Note_on_c, 0, 83, 0
2, 8215, Control_c, 0, 64, 0
2, 8217, Note_on_c, 0, 91, 0
2, 8240, Note_on_c, 0, 89, 0
2, 8847, Note_on_c, 0, 67, 60
2, 9016, Control_c, 0, 64, 127
2, 9066, Note_on_c, 0, 72, 74
2, 9258, Note_on_c, 0, 75, 81
2, 9392, Note_on_c, 0, 67, 0
2, 9454, Note_on_c, 0, 72, 0
2, 9454, Note_on_c, 0, 75, 0
2, 9455, Note_on_c, 0, 79, 93
2, 9463, Note_on_c, 0, 75, 70
2, 9464, Note_on_c, 0, 72, 74
2, 9464, Note_on_c, 0, 60, 70
2, 9464, Note_on_c, 0, 67, 71
2, 9686, Note_on_c, 0, 91, 79
2, 9741, Note_on_c, 0, 92, 89
2, 9799, Note_on_c, 0, 91, 0
2, 9806, Note_on_c, 0, 91, 86
2, 9865, Note_on_c, 0, 90, 86
2, 10030, Note_on_c, 0, 75, 0
2, 10030, Note_on_c, 0, 79, 0
2, 10030, Note_on_c, 0, 91, 0
2, 10034, Note_on_c, 0, 79, 93
2, 10034, Note_on_c, 0, 91, 83
2, 10039, Note_on_c, 0, 75, 74
2, 10241, Note_on_c, 0, 96, 85
2, 10268, Note_on_c, 0, 92, 0
2, 10276, Note_on_c, 0, 92, 33
2, 10429, Note_on_c, 0, 91, 0
2, 10439, Note_on_c, 0, 91, 72
2, 10613, Note_on_c, 0, 75, 0
2, 10621, Note_on_c, 0, 72, 0
2, 10625, Note_on_c, 0, 75, 72
2, 10627, Note_on_c, 0, 72, 76
2, 10634, Note_on_c, 0, 87, 82
2, 10846, Note_on_c, 0, 84, 68
2, 11043, Note_on_c, 0, 67, 0
2, 11046, Note_on_c, 0, 71, 74
2, 11047, Note_on_c, 0, 74, 73
2, 11049, Note_on_c, 0, 67, 62
2, 11051, Note_on_c, 0, 82, 69
2, 11111, Control_c, 0, 64, 0
2, 11114, Note_on_c, 0, 79, 0
2, 11115, Note_on_c, 0, 60, 0
2, 11115, Note_on_c, 0, 84, 0
2, 11115, Note_on_c, 0, 72, 0
2, 11116, Note_on_c, 0, 87, 0
2, 11116, Note_on_c, 0, 90, 0
2, 11116, Note_on_c, 0, 96, 0
2, 11116, Note_on_c, 0, 92, 0
2, 11128, Note_on_c, 0, 75, 0
2, 11136, Note_on_c, 0, 91, 0
2, 11205, Note_on_c, 0, 82, 0
2, 11278, Note_on_c, 0, 83, 69
2, 11508, Note_on_c, 0, 86, 74
2, 11612, Control_c, 0, 64, 127
2, 11804, Note_on_c, 0, 89, 66
2, 12672, Note_on_c, 0, 67, 0
2, 12677, Note_on_c, 0, 67, 69
2, 12840, Note_on_c, 0, 71, 0
2, 12849, Note_on_c, 0, 71, 82
2, 13025, Note_on_c, 0, 74, 0
2, 13036, Note_on_c, 0, 74, 85
2, 13186, Note_on_c, 0, 89, 0
2, 13190, Note_on_c, 0, 86, 0
2, 13190, Note_on_c, 0, 83, 0
2, 13197, Control_c, 0, 64, 0
2, 13214, Note_on_c, 0, 77, 86
2, 13217, Note_on_c, 0, 71, 0
2, 13217, Note_on_c, 0, 74, 0
2, 13224, Note_on_c, 0, 67, 0
2, 13227, Note_on_c, 0, 55, 69
2, 13227, Note_on_c, 0, 74, 73
2, 13227, Note_on_c, 0, 71, 74
2, 13229, Note_on_c, 0, 67, 72
2, 13271, Control_c, 0, 64, 127
2, 13278, Note_on_c, 0, 55, 0
2, 13428, Note_on_c, 0, 89, 75
2, 13495, Note_on_c, 0, 91, 78
2, 13532, Note_on_c, 0, 89, 0
2, 13539, Note_on_c, 0, 89, 88
2, 13607, Note_on_c, 0, 88, 86
2, 13793, Note_on_c, 0, 74, 0
2, 13793, Note_on_c, 0, 77, 0
2, 13793, Note_on_c, 0, 89, 0
2, 13798, Note_on_c, 0, 89, 85
2, 13800, Note_on_c, 0, 77, 90
2, 13802, Note_on_c, 0, 74, 77
2, 13997, Note_on_c, 0, 95, 90
2, 14184, Note_on_c, 0, 89, 0
2, 14193, Note_on_c, 0, 89, 78
2, 14376, Note_on_c, 0, 71, 0
2, 14376, Note_on_c, 0, 74, 0
2, 14385, Note_on_c, 0, 74, 78
2, 14388, Note_on_c, 0, 71, 79
2, 14391, Note_on_c, 0, 86, 78
2, 14392, Note_on_c, 0, 87, 80
2, 14592, Note_on_c, 0, 86, 0
2, 14596, Note_on_c, 0, 86, 73
2, 14816, Note_on_c, 0, 75, 73
2, 14817, Note_on_c, 0, 60, 78
2, 14822, Note_on_c, 0, 67, 0
2, 14826, Note_on_c, 0, 67, 70
2, 14841, Note_on_c, 0, 83, 63
2, 14858, Note_on_c, 0, 91, 0
2, 14858, Note_on_c, 0, 74, 0
2, 14858, Note_on_c, 0, 86, 0
2, 14859, Note_on_c, 0, 88, 0
2, 14859, Note_on_c, 0, 89, 0
2, 14859, Note_on_c, 0, 71, 0
2, 14862, Note_on_c, 0, 77, 0
2, 14862, Note_on_c, 0, 95, 0
2, 14864, Control_c, 0, 64, 0
2, 14883, Note_on_c, 0, 87, 0
2, 15051, Note_on_c, 0, 84, 70
2, 15293, Note_on_c, 0, 87, 73
2, 15498, Control_c, 0, 64, 127
2, 15595, Note_on_c, 0, 91, 62
2, 16512, Note_on_c, 0, 72, 71
2, 16788, Note_on_c, 0, 75, 0
2, 16796, Note_on_c, 0, 75, 75
2, 17009, Note_on_c, 0, 79, 90
2, 17210, Note_on_c, 0, 84, 0
2, 17214, Note_on_c, 0, 96, 87
2, 17218, Note_on_c, 0, 79, 0
2, 17221, Note_on_c, 0, 84, 76
2, 17222, Note_on_c, 0, 79, 75
2, 17226, Note_on_c, 0, 75, 0
2, 17233, Note_on_c, 0, 75, 60
2, 17280, Note_on_c, 0, 60, 0
2, 17280, Note_on_c, 0, 67, 0
2, 17280, Note_on_c, 0, 83, 0
2, 17280, Note_on_c, 0, 87, 0
2, 17425, Note_on_c, 0, 91, 0
2, 17430, Note_on_c, 0, 91, 74
2, 17610, Note_on_c, 0, 84, 0
2, 17614, Note_on_c, 0, 60, 60
2, 17615, Note_on_c, 0, 84, 62
2, 17786, Note_on_c, 0, 96, 0
2, 17797, Note_on_c, 0, 96, 84
2, 17984, Note_on_c, 0, 95, 87
2, 17984, Note_on_c, 0, 83, 88
2, 17986, Note_on_c, 0, 75, 0
2, 17986, Note_on_c, 0, 79, 0
2, 17996, Note_on_c, 0, 79, 80
2, 17996, Note_on_c, 0, 75, 64
2, 18178, Note_on_c, 0, 91, 0
2, 18185, Note_on_c, 0, 91, 77
2, 18355, Note_on_c, 0, 60, 0
2, 18362, Note_on_c, 0, 84, 0
2, 18364, Note_on_c, 0, 60, 69
2, 18370, Note_on_c, 0, 75, 0
2, 18373, Note_on_c, 0, 84, 62
2, 18378, Note_on_c, 0, 75, 42
2, 18531, Note_on_c, 0, 95, 0
2, 18540, Note_on_c, 0, 95, 86
2, 18719, Note_on_c, 0, 95, 0
2, 18719, Control_c, 0, 64, 0
2, 18720, Note_on_c, 0, 60, 0
2, 18720, Note_on_c, 0, 84, 0
2, 18720, Note_on_c, 0, 75, 0
2, 18721, Note_on_c, 0, 83, 0
2, 18731, Note_on_c, 0, 72, 0
2, 18731, Note_on_c, 0, 79, 0
2, 18731, Note_on_c, 0, 91, 0
2, 18737, Note_on_c, 0, 72, 81
2, 18737, Note_on_c, 0, 91, 77
2, 18741, Note_on_c, 0, 79, 85
2, 18742, Note_on_c, 0, 94, 82
2, 18744, Note_on_c, 0, 82, 79
2, 18751, Note_on_c, 0, 77, 66
2, 18800, Control_c, 0, 64, 127
2, 18854, Note_on_c, 0, 96, 0
2, 18925, Note_on_c, 0, 88, 72
2, 19135, Note_on_c, 0, 84, 59
2, 19136, Note_on_c, 0, 53, 55
2, 19299, Note_on_c, 0, 94, 0
2, 19310, Note_on_c, 0, 94, 79
2, 19507, Note_on_c, 0, 72, 0
2, 19507, Note_on_c, 0, 77, 0
2, 19510, Note_on_c, 0, 80, 86
2, 19511, Note_on_c, 0, 77, 81
2, 19511, Note_on_c, 0, 92, 86
2, 19512, Note_on_c, 0, 72, 79
2, 19713, Note_on_c, 0, 89, 72
2, 19929, Note_on_c, 0, 53, 0
2, 19929, Note_on_c, 0, 84, 0
2, 19933, Note_on_c, 0, 53, 61
2, 19937, Note_on_c, 0, 84, 60
2, 20175, Note_on_c, 0, 91, 0
2, 20181, Note_on_c, 0, 91, 83
2, 20439, Note_on_c, 0, 49, 59
2, 20518, Note_on_c, 0, 91, 0
2, 20519, Note_on_c, 0, 94, 0
2, 20519, Note_on_c, 0, 92, 0
2, 20519, Note_on_c, 0, 53, 0
2, 20520, Note_on_c, 0, 72, 0
2, 20520, Note_on_c, 0, 89, 0
2, 20520, Note_on_c, 0, 77, 0
2, 20520, Note_on_c, 0, 80, 0
2, 20520, Note_on_c, 0, 84, 0
2, 20520, Note_on_c, 0, 79, 0
2, 20520, Note_on_c, 0, 88, 0
2, 20521, Note_on_c, 0, 82, 0
2, 20522, Control_c, 0, 64, 0
2, 20554, Note_on_c, 0, 56, 64
2, 20559, Note_on_c, 0, 49, 0
2, 20571, Note_on_c, 0, 77, 68
2, 20582, Note_on_c, 0, 61, 75
2, 20611, Note_on_c, 0, 80, 80
2, 20628, Control_c, 0, 64, 127
2, 20632, Note_on_c, 0, 65, 64
2, 20663, Note_on_c, 0, 89, 96
2, 20955, Note_on_c, 0, 87, 87
2, 20958, Note_on_c, 0, 80, 0
2, 20964, Note_on_c, 0, 80, 70
2, 20969, Note_on_c, 0, 68, 59
2, 21166, Note_on_c, 0, 77, 0
2, 21170, Note_on_c, 0, 77, 73
2, 21170, Note_on_c, 0, 85, 85
2, 21347, Note_on_c, 0, 73, 67
2, 21365, Note_on_c, 0, 80, 0
2, 21375, Note_on_c, 0, 80, 78
2, 21557, Note_on_c, 0, 68, 0
2, 21557, Note_on_c, 0, 77, 0
2, 21565, Note_on_c, 0, 77, 78
2, 21569, Note_on_c, 0, 68, 72
2, 21788, Note_on_c, 0, 65, 0
2, 21792, Note_on_c, 0, 75, 68
2, 21799, Note_on_c, 0, 65, 56
2, 22026, Note_on_c, 0, 61, 0
2, 22026, Note_on_c, 0, 73, 0
2, 22036, Note_on_c, 0, 61, 70
2, 22037, Note_on_c, 0, 73, 71
2, 22325, Note_on_c, 0, 68, 0
2, 22333, Note_on_c, 0, 56, 0
2, 22335, Note_on_c, 0, 68, 69
2, 22340, Note_on_c, 0, 56, 57
2, 22743, Note_on_c, 0, 43, 49
2, 22799, Note_on_c, 0, 62, 53
2, 22840, Note_on_c, 0, 65, 0
2, 22850, Note_on_c, 0, 65, 65
2, 22867, Control_c, 0, 64, 0
2, 22869, Note_on_c, 0, 85, 0
2, 22870, Note_on_c, 0, 73, 0
2, 22872, Note_on_c, 0, 80, 0
2, 22873, Note_on_c, 0, 87, 0
2, 22873, Note_on_c, 0, 61, 0
2, 22873, Note_on_c, 0, 77, 0
2, 22874, Note_on_c, 0, 89, 0
2, 22874, Note_on_c, 0, 75, 0
2, 22875, Note_on_c, 0, 56, 0
2, 22901, Note_on_c, 0, 68, 0
2, 22930, Note_on_c, 0, 68, 68
2, 23007, Note_on_c, 0, 74, 79
2, 23354, Control_c, 0, 64, 127
2, 24011, Note_on_c, 0, 53, 52
2, 24295, Note_on_c, 0, 56, 52
2, 24663, Note_on_c, 0, 60, 53
2, 24960, Note_on_c, 0, 43, 0
2, 24960, Note_on_c, 0, 62, 0
2, 24960, Note_on_c, 0, 65, 0
2, 24960, Note_on_c, 0, 68, 0
2, 24960, Note_on_c, 0, 74, 0
2, 25132, Note_on_c, 0, 43, 35
2, 25153, Note_on_c, 0, 59, 50
2, 25218, Note_on_c, 0, 56, 0
2, 25219, Note_on_c, 0, 53, 0
2, 25219, Note_on_c, 0, 60, 0
2, 25225, Control_c, 0, 64, 0
2, 26058, Control_c, 0, 64, 127
2, 27544, Control_c, 0, 64, 0
2, 27555, Note_on_c, 0, 59, 0
2, 27578, Note_on_c, 0, 43, 0
2, 27863, Note_on_c, 0, 42, 69
2, 27865, Note_on_c, 0, 30, 72
2, 28024, Control_c, 0, 64, 127
2, 28035, Note_on_c, 0, 43, 71
2, 28035, Note_on_c, 0, 31, 75
2, 28047, Note_on_c, 0, 42, 0
2, 28055, Control_c, 0, 64, 0
2, 28062, Note_on_c, 0, 30, 0
2, 28081, Note_on_c, 0, 43, 0
2, 28081, Note_on_c, 0, 31, 0
2, 28544, Note_on_c, 0, 80, 95
2, 28564, Note_on_c, 0, 68, 79
2, 28565, Note_on_c, 0, 72, 79
2, 28566, Note_on_c, 0, 75, 69
2, 28584, Control_c, 0, 64, 127
2, 28717, Note_on_c, 0, 79, 80
2, 28721, Note_on_c, 0, 74, 69
2, 28722, Note_on_c, 0, 67, 66
2, 28722, Note_on_c, 0, 71, 74
2, 28801, Note_on_c, 0, 72, 0
2, 28801, Note_on_c, 0, 75, 0
2, 28801, Note_on_c, 0, 71, 0
2, 28801, Control_c, 0, 64, 0
2, 28803, Note_on_c, 0, 74, 0
2, 28803, Note_on_c, 0, 67, 0
2, 28803, Note_on_c, 0, 80, 0
2, 28805, Note_on_c, 0, 79, 0
2, 28807, Note_on_c, 0, 68, 0
2, 28864, Note_on_c, 0, 51, 75
2, 28865, Note_on_c, 0, 39, 81
2, 28930, Control_c, 0, 64, 127
2, 29013, Note_on_c, 0, 50, 76
2, 29017, Note_on_c, 0, 38, 75
2, 29106, Control_c, 0, 64, 0
2, 29106, Note_on_c, 0, 39, 0
2, 29107, Note_on_c, 0, 38, 0
2, 29107, Note_on_c, 0, 51, 0
2, 29122, Note_on_c, 0, 50, 0
2, 29183, Note_on_c, 0, 46, 81
2, 29184, Note_on_c, 0, 34, 80
2, 29268, Control_c, 0, 64, 127
2, 29345, Note_on_c, 0, 47, 82
2, 29347, Note_on_c, 0, 35, 76
2, 29360, Note_on_c, 0, 46, 0
2, 29386, Note_on_c, 0, 34, 0
2, 29389, Note_on_c, 0, 35, 0
2, 29389, Note_on_c, 0, 47, 0
2, 29393, Control_c, 0, 64, 0
2, 29857, Note_on_c, 0, 84, 86
2, 29857, Note_on_c, 0, 79, 84
2, 29858, Note_on_c, 0, 75, 83
2, 29862, Note_on_c, 0, 72, 89
2, 29890, Control_c, 0, 64, 127
2, 30013, Note_on_c, 0, 79, 0
2, 30016, Note_on_c, 0, 83, 88
2, 30017, Note_on_c, 0, 74, 81
2, 30017, Note_on_c, 0, 79, 80
2, 30019, Note_on_c, 0, 71, 78
2, 30118, Note_on_c, 0, 72, 0
2, 30119, Note_on_c, 0, 84, 0
2, 30120, Note_on_c, 0, 71, 0
2, 30120, Note_on_c, 0, 75, 0
2, 30121, Control_c, 0, 64, 0
2, 30121, Note_on_c, 0, 79, 0
2, 30122, Note_on_c, 0, 74, 0
2, 30123, Note_on_c, 0, 83, 0
2, 30164, Note_on_c, 0, 44, 80
2, 30164, Note_on_c, 0, 56, 83
2, 30246, Note_on_c, 0, 56, 0
2, 30282, Control_c, 0, 64, 127
2, 30310, Note_on_c, 0, 43, 81
2, 30310, Note_on_c, 0, 55, 81
2, 30423, Note_on_c, 0, 44, 0
2, 30424, Control_c, 0, 64, 0
2, 30425, Note_on_c, 0, 43, 0
2, 30426, Note_on_c, 0, 55, 0
2, 30479, Note_on_c, 0, 42, 88
2, 30482, Note_on_c, 0, 54, 85
2, 30566, Control_c, 0, 64, 127
2, 30634, Note_on_c, 0, 43, 83
2, 30636, Note_on_c, 0, 55, 80
2, 30730, Note_on_c, 0, 54, 0
2, 30730, Note_on_c, 0, 42, 0
2, 30731, Note_on_c, 0, 43, 0
2, 30732, Note_on_c, 0, 55, 0
2, 30732, Control_c, 0, 64, 0
2, 30777, Note_on_c, 0, 80, 100
2, 30784, Note_on_c, 0, 75, 89
2, 30784, Note_on_c, 0, 60, 97
2, 30785, Note_on_c, 0, 68, 94
2, 30785, Note_on_c, 0, 72, 89
2, 30785, Note_on_c, 0, 48, 83
2, 30835, Control_c, 0, 64, 127
2, 30943, Note_on_c, 0, 59, 87
2, 30944, Note_on_c, 0, 74, 84
2, 30944, Note_on_c, 0, 47, 86
2, 30945, Note_on_c, 0, 79, 85
2, 30946, Note_on_c, 0, 67, 80
2, 30947, Note_on_c, 0, 71, 79
2, 30965, Note_on_c, 0, 60, 0
2, 31042, Control_c, 0, 64, 0
2, 31045, Note_on_c, 0, 72, 0
2, 31045, Note_on_c, 0, 67, 0
2, 31045, Note_on_c, 0, 74, 0
2, 31045, Note_on_c, 0, 80, 0
2, 31046, Note_on_c, 0, 59, 0
2, 31046, Note_on_c, 0, 71, 0
2, 31046, Note_on_c, 0, 47, 0
2, 31046, Note_on_c, 0, 79, 0
2, 31046, Note_on_c, 0, 75, 0
2, 31057, Note_on_c, 0, 48, 0
2, 31057, Note_on_c, 0, 68, 0
2, 31099, Note_on_c, 0, 46, 86
2, 31100, Note_on_c, 0, 58, 89
2, 31144, Note_on_c, 0, 58, 0
2, 31188, Control_c, 0, 64, 127
2, 31253, Note_on_c, 0, 47, 83
2, 31255, Note_on_c, 0, 59, 90
2, 31367, Control_c, 0, 64, 0
2, 31369, Note_on_c, 0, 46, 0
2, 31370, Note_on_c, 0, 59, 0
2, 31370, Note_on_c, 0, 47, 0
2, 31400, Note_on_c, 0, 79, 100
2, 31401, Note_on_c, 0, 84, 98
2, 31403, Note_on_c, 0, 75, 99
2, 31404, Note_on_c, 0, 72, 103
2, 31406, Note_on_c, 0, 63, 94
2, 31407, Note_on_c, 0, 51, 94
2, 31445, Note_on_c, 0, 72, 0
2, 31457, Control_c, 0, 64, 127
2, 31556, Note_on_c, 0, 50, 90
2, 31557, Note_on_c, 0, 79, 0
2, 31560, Note_on_c, 0, 62, 97
2, 31560, Note_on_c, 0, 74, 97
2, 31561, Note_on_c, 0, 79, 92
2, 31561, Note_on_c, 0, 83, 88
2, 31562, Note_on_c, 0, 71, 90
2, 31675, Note_on_c, 0, 84, 0
2, 31675, Note_on_c, 0, 62, 0
2, 31676, Note_on_c, 0, 75, 0
2, 31676, Control_c, 0, 64, 0
2, 31676, Note_on_c, 0, 74, 0
2, 31676, Note_on_c, 0, 51, 0
2, 31676, Note_on_c, 0, 50, 0
2, 31676, Note_on_c, 0, 71, 0
2, 31677, Note_on_c, 0, 83, 0
2, 31677, Note_on_c, 0, 79, 0
2, 31680, Note_on_c, 0, 63, 0
2, 31708, Note_on_c, 0, 49, 90
2, 31708, Note_on_c, 0, 61, 102
2, 31802, Control_c, 0, 64, 127
2, 31857, Note_on_c, 0, 62, 99
2, 31858, Note_on_c, 0, 50, 89
2, 31960, Note_on_c, 0, 61, 0
2, 31960, Note_on_c, 0, 62, 0
2, 31961, Note_on_c, 0, 50, 0
2, 31961, Control_c, 0, 64, 0
2, 31964, Note_on_c, 0, 49, 0
2, 32017, Note_on_c, 0, 92, 104
2, 32017, Note_on_c, 0, 68, 108
2, 32017, Control_c, 0, 64, 127
2, 32018, Note_on_c, 0, 80, 108
2, 32019, Note_on_c, 0, 84, 92
2, 32021, Note_on_c, 0, 87, 103
2, 32021, Note_on_c, 0, 56, 95
2, 32152, Note_on_c, 0, 84, 0
2, 32152, Note_on_c, 0, 56, 0
2, 32152, Control_c, 0, 64, 0
2, 32153, Note_on_c, 0, 68, 0
2, 32153, Note_on_c, 0, 80, 0
2, 32153, Note_on_c, 0, 87, 0
2, 32154, Note_on_c, 0, 92, 0
2, 32190, Note_on_c, 0, 86, 102
2, 32190, Note_on_c, 0, 91, 108
2, 32192, Note_on_c, 0, 55, 95
2, 32192, Note_on_c, 0, 79, 102
2, 32192, Note_on_c, 0, 43, 89
2, 32193, Note_on_c, 0, 83, 89
2, 32256, Note_on_c, 0, 79, 0
2, 32256, Control_c, 0, 64, 127
2, 32424, Note_on_c, 0, 55, 0
2, 32430, Control_c, 0, 64, 0
2, 32438, Note_on_c, 0, 43, 0
2, 32448, Note_on_c, 0, 86, 0
2, 32448, Note_on_c, 0, 91, 0
2, 32455, Note_on_c, 0, 83, 0
2, 32513, Note_on_c, 0, 79, 102
2, 32514, Note_on_c, 0, 67, 95
2, 32545, Note_on_c, 0, 79, 0
2, 32545, Note_on_c, 0, 67, 0
2, 32668, Note_on_c, 0, 84, 96
2, 32670, Note_on_c, 0, 72, 100
2, 32704, Note_on_c, 0, 72, 0
2, 32705, Note_on_c, 0, 84, 0
2, 32813, Note_on_c, 0, 75, 102
2, 32813, Note_on_c, 0, 87, 103
2, 32869, Note_on_c, 0, 75, 0
2, 32891, Note_on_c, 0, 87, 0
2, 32979, Note_on_c, 0, 36, 87
2, 32980, Note_on_c, 0, 91, 107
2, 32980, Note_on_c, 0, 79, 104
2, 32981, Note_on_c, 0, 84, 86
2, 32984, Note_on_c, 0, 87, 98
2, 33008, Control_c, 0, 64, 127
2, 33125, Note_on_c, 0, 51, 75
2, 33127, Note_on_c, 0, 55, 64
2, 33219, Note_on_c, 0, 60, 72
2, 33285, Note_on_c, 0, 51, 0
2, 33292, Note_on_c, 0, 55, 0
2, 33292, Note_on_c, 0, 79, 0
2, 33292, Note_on_c, 0, 91, 0
2, 33296, Note_on_c, 0, 51, 69
2, 33296, Note_on_c, 0, 55, 68
2, 33297, Note_on_c, 0, 91, 95
2, 33301, Note_on_c, 0, 79, 90
2, 33392, Note_on_c, 0, 87, 0
2, 33393, Control_c, 0, 64, 0
2, 33393, Note_on_c, 0, 84, 0
2, 33394, Note_on_c, 0, 79, 0
2, 33394, Note_on_c, 0, 91, 0
2, 33394, Note_on_c, 0, 51, 0
2, 33394, Note_on_c, 0, 60, 0
2, 33395, Note_on_c, 0, 55, 0
2, 33408, Note_on_c, 0, 36, 0
2, 33452, Note_on_c, 0, 89, 97
2, 33454, Note_on_c, 0, 48, 70
2, 33459, Note_on_c, 0, 77, 90
2, 33530, Control_c, 0, 64, 127
2, 33596, Note_on_c, 0, 51, 65
2, 33603, Note_on_c, 0, 55, 67
2, 33658, Control_c, 0, 64, 0
2, 33665, Note_on_c, 0, 77, 0
2, 33684, Control_c, 0, 64, 127
2, 33710, Note_on_c, 0, 60, 84
2, 33761, Note_on_c, 0, 55, 0
2, 33761, Note_on_c, 0, 89, 0
2, 33765, Note_on_c, 0, 89, 94
2, 33765, Note_on_c, 0, 55, 68
2, 33771, Note_on_c, 0, 77, 96
2, 33891, Note_on_c, 0, 48, 0
2, 33896, Note_on_c, 0, 48, 78
2, 33920, Note_on_c, 0, 87, 100
2, 33924, Note_on_c, 0, 75, 92
2, 34060, Note_on_c, 0, 51, 0
2, 34066, Note_on_c, 0, 51, 76
2, 34160, Control_c, 0, 64, 0
2, 34162, Note_on_c, 0, 89, 0
2, 34162, Note_on_c, 0, 87, 0
2, 34163, Note_on_c, 0, 48, 0
2, 34163, Note_on_c, 0, 55, 0
2, 34163, Note_on_c, 0, 77, 0
2, 34163, Note_on_c, 0, 51, 0
2, 34163, Note_on_c, 0, 60, 0
2, 34164, Note_on_c, 0, 75, 0
2, 34224, Note_on_c, 0, 86, 99
2, 34226, Note_on_c, 0, 43, 77
2, 34227, Note_on_c, 0, 74, 93
2, 34230, Note_on_c, 0, 83, 85
2, 34232, Note_on_c, 0, 55, 82
2, 34260, Control_c, 0, 64, 127
2, 34360, Note_on_c, 0, 55, 0
2, 34366, Note_on_c, 0, 55, 74
2, 34493, Note_on_c, 0, 59, 76
2, 34529, Note_on_c, 0, 86, 0
2, 34536, Note_on_c, 0, 86, 94
2, 34539, Note_on_c, 0, 89, 100
2, 34540, Note_on_c, 0, 77, 96
2, 34547, Note_on_c, 0, 62, 83
2, 34614, Note_on_c, 0, 65, 82
2, 34708, Note_on_c, 0, 71, 86
2, 34782, Note_on_c, 0, 74, 0
2, 34793, Note_on_c, 0, 74, 81
2, 34859, Note_on_c, 0, 77, 0
2, 34865, Note_on_c, 0, 77, 100
2, 34937, Control_c, 0, 64, 0
2, 34938, Note_on_c, 0, 77, 0
2, 34939, Note_on_c, 0, 55, 0
2, 34939, Note_on_c, 0, 71, 0
2, 34939, Note_on_c, 0, 89, 0
2, 34939, Note_on_c, 0, 83, 0
2, 34939, Note_on_c, 0, 59, 0
2, 34939, Note_on_c, 0, 43, 0
2, 34940, Note_on_c, 0, 74, 0
2, 34940, Note_on_c, 0, 65, 0
2, 34940, Note_on_c, 0, 62, 0
2, 34951, Note_on_c, 0, 86, 0
2, 35019, Note_on_c, 0, 83, 99
2, 35041, Note_on_c, 0, 71, 80
2, 35063, Note_on_c, 0, 83, 0
2, 35082, Note_on_c, 0, 71, 0
2, 35176, Note_on_c, 0, 86, 98
2, 35178, Note_on_c, 0, 74, 93
2, 35201, Note_on_c, 0, 86, 0
2, 35220, Note_on_c, 0, 74, 0
2, 35331, Note_on_c, 0, 89, 95
2, 35333, Note_on_c, 0, 77, 95
2, 35366, Note_on_c, 0, 77, 0
2, 35377, Note_on_c, 0, 89, 0
2, 35478, Note_on_c, 0, 92, 105
2, 35480, Note_on_c, 0, 89, 81
2, 35483, Note_on_c, 0, 43, 77
2, 35483, Note_on_c, 0, 86, 89
2, 35485, Note_on_c, 0, 80, 97
2, 35485, Note_on_c, 0, 83, 88
2, 35486, Note_on_c, 0, 55, 76
2, 35504, Control_c, 0, 64, 127
2, 35632, Note_on_c, 0, 62, 86
2, 35633, Note_on_c, 0, 59, 78
2, 35703, Note_on_c, 0, 65, 73
2, 35788, Note_on_c, 0, 59, 0
2, 35788, Note_on_c, 0, 62, 0
2, 35794, Note_on_c, 0, 59, 76
2, 35796, Note_on_c, 0, 80, 0
2, 35796, Note_on_c, 0, 92, 0
2, 35798, Note_on_c, 0, 62, 72
2, 35801, Note_on_c, 0, 86, 0
2, 35801, Note_on_c, 0, 92, 100
2, 35806, Note_on_c, 0, 80, 89
2, 35941, Note_on_c, 0, 80, 0
2, 35942, Control_c, 0, 64, 0
2, 35943, Note_on_c, 0, 92, 0
2, 35943, Note_on_c, 0, 59, 0
2, 35943, Note_on_c, 0, 62, 0
2, 35944, Note_on_c, 0, 83, 0
2, 35944, Note_on_c, 0, 43, 0
2, 35950, Note_on_c, 0, 55, 0
2, 35954, Note_on_c, 0, 55, 77
2, 35957, Note_on_c, 0, 65, 0
2, 35959, Note_on_c, 0, 94, 106
2, 35965, Note_on_c, 0, 89, 0
2, 35968, Note_on_c, 0, 82, 82
2, 36019, Control_c, 0, 64, 127
2, 36115, Note_on_c, 0, 59, 75
2, 36122, Note_on_c, 0, 62, 72
2, 36195, Note_on_c, 0, 65, 84
2, 36264, Note_on_c, 0, 62, 0
2, 36272, Note_on_c, 0, 59, 0
2, 36276, Note_on_c, 0, 62, 72
2, 36281, Note_on_c, 0, 59, 82
2, 36282, Note_on_c, 0, 80, 93
2, 36282, Note_on_c, 0, 92, 100
2, 36396, Note_on_c, 0, 65, 0
2, 36396, Note_on_c, 0, 59, 0
2, 36396, Control_c, 0, 64, 0
2, 36397, Note_on_c, 0, 80, 0
2, 36398, Note_on_c, 0, 92, 0
2, 36410, Note_on_c, 0, 55, 0
2, 36410, Note_on_c, 0, 62, 0
2, 36410, Note_on_c, 0, 82, 0
2, 36418, Note_on_c, 0, 94, 0
2, 36420, Note_on_c, 0, 55, 88
2, 36438, Note_on_c, 0, 91, 102
2, 36438, Note_on_c, 0, 79, 99
2, 36456, Control_c, 0, 64, 127
2, 36568, Note_on_c, 0, 59, 91
2, 36590, Note_on_c, 0, 89, 99
2, 36594, Note_on_c, 0, 77, 97
2, 36668, Note_on_c, 0, 91, 0
2, 36668, Note_on_c, 0, 59, 0
2, 36669, Control_c, 0, 64, 0
2, 36669, Note_on_c, 0, 89, 0
2, 36670, Note_on_c, 0, 77, 0
2, 36679, Note_on_c, 0, 55, 0
2, 36679, Note_on_c, 0, 79, 0
2, 36725, Note_on_c, 0, 79, 98
2, 36727, Note_on_c, 0, 87, 105
2, 36727, Note_on_c, 0, 48, 85
2, 36728, Note_on_c, 0, 36, 82
2, 36729, Note_on_c, 0, 75, 95
2, 36748, Control_c, 0, 64, 127
2, 36891, Note_on_c, 0, 51, 70
2, 36979, Note_on_c, 0, 36, 0
2, 36986, Note_on_c, 0, 55, 77
2, 37040, Note_on_c, 0, 79, 0
2, 37040, Note_on_c, 0, 87, 0
2, 37044, Note_on_c, 0, 60, 93
2, 37044, Note_on_c, 0, 91, 105
2, 37050, Note_on_c, 0, 79, 95
2, 37052, Note_on_c, 0, 87, 100
2, 37052, Note_on_c, 0, 84, 81
2, 37142, Note_on_c, 0, 63, 72
2, 37190, Note_on_c, 0, 67, 90
2, 37292, Note_on_c, 0, 72, 91
2, 37363, Note_on_c, 0, 75, 0
2, 37367, Note_on_c, 0, 75, 94
2, 37506, Note_on_c, 0, 91, 0
2, 37506, Control_c, 0, 64, 0
2, 37506, Note_on_c, 0, 51, 0
2, 37506, Note_on_c, 0, 79, 0
2, 37506, Note_on_c, 0, 48, 0
2, 37507, Note_on_c, 0, 60, 0
2, 37508, Note_on_c, 0, 67, 0
2, 37508, Note_on_c, 0, 75, 0
2, 37508, Note_on_c, 0, 63, 0
2, 37509, Note_on_c, 0, 55, 0
2, 37524, Note_on_c, 0, 87, 0
2, 37532, Note_on_c, 0, 72, 0
2, 37532, Note_on_c, 0, 84, 0
2, 37537, Note_on_c, 0, 84, 92
2, 37538, Note_on_c, 0, 72, 97
2, 37579, Note_on_c, 0, 72, 0
2, 37582, Note_on_c, 0, 84, 0
2, 37695, Note_on_c, 0, 87, 102
2, 37696, Note_on_c, 0, 75, 97
2, 37721, Note_on_c, 0, 75, 0
2, 37721, Note_on_c, 0, 87, 0
2, 37840, Note_on_c, 0, 91, 102
2, 37842, Note_on_c, 0, 79, 99
2, 37874, Note_on_c, 0, 79, 0
2, 37874, Note_on_c, 0, 91, 0
2, 37946, Control_c, 0, 64, 127
2, 37988, Note_on_c, 0, 96, 103
2, 37992, Note_on_c, 0, 72, 101
2, 37994, Note_on_c, 0, 84, 88
2, 38004, Note_on_c, 0, 63, 74
2, 38019, Note_on_c, 0, 95, 52
2, 38089, Note_on_c, 0, 87, 85
2, 38160, Note_on_c, 0, 60, 77
2, 38164, Note_on_c, 0, 86, 76
2, 38238, Note_on_c, 0, 87, 0
2, 38244, Note_on_c, 0, 87, 77
2, 38292, Note_on_c, 0, 95, 0
2, 38300, Note_on_c, 0, 60, 0
2, 38300, Note_on_c, 0, 84, 0
2, 38304, Note_on_c, 0, 48, 71
2, 38304, Note_on_c, 0, 60, 73
2, 38307, Note_on_c, 0, 84, 75
2, 38392, Note_on_c, 0, 87, 0
2, 38403, Note_on_c, 0, 87, 89
2, 38453, Note_on_c, 0, 72, 0
2, 38453, Note_on_c, 0, 96, 0
2, 38464, Note_on_c, 0, 72, 96
2, 38464, Note_on_c, 0, 96, 102
2, 38561, Note_on_c, 0, 87, 0
2, 38569, Note_on_c, 0, 87, 86
2, 38576, Control_c, 0, 64, 0
2, 38579, Note_on_c, 0, 86, 0
2, 38579, Note_on_c, 0, 96, 0
2, 38579, Note_on_c, 0, 60, 0
2, 38580, Note_on_c, 0, 63, 0
2, 38580, Note_on_c, 0, 48, 0
2, 38580, Note_on_c, 0, 84, 0
2, 38580, Note_on_c, 0, 72, 0
2, 38605, Note_on_c, 0, 71, 103
2, 38617, Note_on_c, 0, 63, 82
2, 38619, Note_on_c, 0, 67, 83
2, 38620, Note_on_c, 0, 95, 104
2, 38653, Note_on_c, 0, 87, 0
2, 38653, Control_c, 0, 64, 127
2, 38729, Note_on_c, 0, 88, 69
2, 38764, Note_on_c, 0, 60, 88
2, 38772, Note_on_c, 0, 86, 72
2, 38826, Note_on_c, 0, 87, 77
2, 38899, Note_on_c, 0, 60, 0
2, 38901, Note_on_c, 0, 84, 76
2, 38906, Note_on_c, 0, 60, 75
2, 38910, Note_on_c, 0, 48, 76
2, 38983, Note_on_c, 0, 87, 0
2, 38989, Note_on_c, 0, 87, 81
2, 39037, Note_on_c, 0, 95, 0
2, 39048, Note_on_c, 0, 95, 99
2, 39068, Note_on_c, 0, 71, 0
2, 39074, Note_on_c, 0, 71, 94
2, 39121, Note_on_c, 0, 87, 0
2, 39130, Note_on_c, 0, 87, 98
2, 39203, Note_on_c, 0, 86, 0
2, 39204, Note_on_c, 0, 95, 0
2, 39204, Note_on_c, 0, 88, 0
2, 39205, Note_on_c, 0, 71, 0
2, 39206, Note_on_c, 0, 87, 0
2, 39207, Note_on_c, 0, 84, 0
2, 39208, Note_on_c, 0, 48, 0
2, 39210, Control_c, 0, 64, 0
2, 39214, Note_on_c, 0, 60, 0
2, 39214, Note_on_c, 0, 63, 0
2, 39218, Note_on_c, 0, 70, 106
2, 39220, Note_on_c, 0, 60, 84
2, 39221, Note_on_c, 0, 67, 0
2, 39225, Note_on_c, 0, 65, 75
2, 39226, Note_on_c, 0, 67, 88
2, 39226, Note_on_c, 0, 94, 102
2, 39251, Note_on_c, 0, 70, 0
2, 39283, Control_c, 0, 64, 127
2, 39290, Note_on_c, 0, 67, 0
2, 39321, Note_on_c, 0, 65, 0
2, 39350, Note_on_c, 0, 88, 78
2, 39386, Note_on_c, 0, 84, 68
2, 39444, Note_on_c, 0, 88, 0
2, 39454, Note_on_c, 0, 88, 89
2, 39531, Note_on_c, 0, 60, 0
2, 39532, Note_on_c, 0, 84, 0
2, 39532, Note_on_c, 0, 88, 0
2, 39535, Control_c, 0, 64, 0
2, 39536, Note_on_c, 0, 94, 0
2, 39546, Note_on_c, 0, 92, 108
2, 39556, Note_on_c, 0, 80, 95
2, 39557, Note_on_c, 0, 68, 91
2, 39557, Note_on_c, 0, 53, 77
2, 39561, Note_on_c, 0, 60, 79
2, 39605, Control_c, 0, 64, 127
2, 39713, Note_on_c, 0, 68, 0
2, 39836, Note_on_c, 0, 60, 0
2, 39840, Note_on_c, 0, 53, 0
2, 39842, Note_on_c, 0, 92, 0
2, 39843, Note_on_c, 0, 80, 0
2, 39844, Control_c, 0, 64, 0
2, 40038, Note_on_c, 0, 53, 72
2, 40038, Note_on_c, 0, 41, 76
2, 40038, Note_on_c, 0, 92, 102
2, 40040, Note_on_c, 0, 80, 96
2, 40081, Note_on_c, 0, 53, 0
2, 40082, Note_on_c, 0, 41, 0
2, 40087, Note_on_c, 0, 92, 0
2, 40090, Note_on_c, 0, 80, 0
2, 40197, Note_on_c, 0, 91, 99
2, 40201, Note_on_c, 0, 79, 92
2, 40201, Note_on_c, 0, 43, 74
2, 40201, Note_on_c, 0, 55, 76
2, 40232, Note_on_c, 0, 91, 0
2, 40232, Note_on_c, 0, 55, 0
2, 40233, Note_on_c, 0, 79, 0
2, 40238, Note_on_c, 0, 43, 0
2, 40360, Note_on_c, 0, 89, 97
2, 40361, Note_on_c, 0, 77, 94
2, 40361, Note_on_c, 0, 44, 80
2, 40361, Note_on_c, 0, 56, 82
2, 40400, Note_on_c, 0, 44, 0
2, 40402, Note_on_c, 0, 77, 0
2, 40409, Note_on_c, 0, 89, 0
2, 40427, Note_on_c, 0, 56, 0
2, 40515, Note_on_c, 0, 91, 105
2, 40518, Note_on_c, 0, 79, 100
2, 40518, Note_on_c, 0, 43, 85
2, 40522, Note_on_c, 0, 87, 93
2, 40522, Note_on_c, 0, 84, 81
2, 40522, Note_on_c, 0, 55, 85
2, 40542, Control_c, 0, 64, 127
2, 40701, Control_c, 0, 64, 0
2, 40707, Note_on_c, 0, 43, 0
2, 40707, Note_on_c, 0, 91, 0
2, 40708, Note_on_c, 0, 87, 0
2, 40708, Note_on_c, 0, 79, 0
2, 40719, Note_on_c, 0, 84, 0
2, 40727, Note_on_c, 0, 55, 0
2, 40844, Note_on_c, 0, 89, 100
2, 40845, Note_on_c, 0, 43, 81
2, 40846, Note_on_c, 0, 31, 87
2, 40846, Note_on_c, 0, 86, 95
2, 40848, Note_on_c, 0, 77, 96
2, 40852, Note_on_c, 0, 83, 79
2, 40888, Control_c, 0, 64, 127
2, 41087, Note_on_c, 0, 43, 0
2, 41089, Note_on_c, 0, 31, 0
2, 41090, Note_on_c, 0, 86, 0
2, 41090, Control_c, 0, 64, 0
2, 41091, Note_on_c, 0, 89, 0
2, 41091, Note_on_c, 0, 77, 0
2, 41091, Note_on_c, 0, 83, 0
2, 41152, Note_on_c, 0, 75, 89
2, 41153, Note_on_c, 0, 87, 93
2, 41157, Note_on_c, 0, 84, 78
2, 41160, Note_on_c, 0, 45, 84
2, 41164, Note_on_c, 0, 33, 80
2, 41167, Note_on_c, 0, 79, 78
2, 41200, Note_on_c, 0, 75, 0
2, 41201, Note_on_c, 0, 79, 0
2, 41204, Note_on_c, 0, 87, 0
2, 41204, Note_on_c, 0, 84, 0
2, 41206, Note_on_c, 0, 45, 0
2, 41207, Note_on_c, 0, 33, 0
2, 41328, Note_on_c, 0, 79, 89
2, 41329, Note_on_c, 0, 47, 81
2, 41329, Note_on_c, 0, 86, 97
2, 41330, Note_on_c, 0, 35, 76
2, 41331, Note_on_c, 0, 74, 89
2, 41376, Note_on_c, 0, 35, 0
2, 41379, Note_on_c, 0, 74, 0
2, 41384, Note_on_c, 0, 79, 0
2, 41388, Note_on_c, 0, 86, 0
2, 41402, Note_on_c, 0, 47, 0
2, 41652, Note_on_c, 0, 84, 96
2, 41655, Note_on_c, 0, 72, 96
2, 41655, Note_on_c, 0, 75, 88
2, 41656, Note_on_c, 0, 79, 89
2, 41658, Note_on_c, 0, 48, 79
2, 41658, Note_on_c, 0, 36, 77
2, 41710, Control_c, 0, 64, 127
2, 41967, Note_on_c, 0, 60, 84
2, 42040, Note_on_c, 0, 55, 80
2, 42132, Note_on_c, 0, 48, 0
2, 42143, Note_on_c, 0, 48, 58
2, 42207, Note_on_c, 0, 43, 71
2, 42293, Note_on_c, 0, 36, 0
2, 42302, Note_on_c, 0, 36, 66
2, 42310, Control_c, 0, 64, 0
2, 42314, Note_on_c, 0, 60, 0
2, 42316, Note_on_c, 0, 84, 0
2, 42316, Note_on_c, 0, 72, 0
2, 42317, Note_on_c, 0, 48, 0
2, 42317, Note_on_c, 0, 75, 0
2, 42318, Note_on_c, 0, 79, 0
2, 42320, Note_on_c, 0, 43, 0
2, 42320, Note_on_c, 0, 55, 0
2, 42635, Note_on_c, 0, 55, 74
2, 42671, Note_on_c, 0, 55, 0
2, 42693, Note_on_c, 0, 36, 0
2, 42794, Note_on_c, 0, 60, 86
2, 42826, Note_on_c, 0, 60, 0
2, 42947, Note_on_c, 0, 63, 77
2, 42981, Note_on_c, 0, 63, 0
2, 43092, Note_on_c, 0, 36, 67
2, 43094, Note_on_c, 0, 67, 87
2, 43100, Control_c, 0, 64, 127
2, 43262, Note_on_c, 0, 51, 57
2, 43262, Note_on_c, 0, 55, 61
2, 43392, Note_on_c, 0, 51, 0
2, 43392, Note_on_c, 0, 55, 0
2, 43392, Note_on_c, 0, 67, 0
2, 43400, Note_on_c, 0, 67, 86
2, 43401, Note_on_c, 0, 51, 67
2, 43402, Note_on_c, 0, 55, 68
2, 43472, Note_on_c, 0, 36, 0
2, 43473, Note_on_c, 0, 67, 0
2, 43473, Note_on_c, 0, 55, 0
2, 43473, Control_c, 0, 64, 0
2, 43474, Note_on_c, 0, 51, 0
2, 43564, Note_on_c, 0, 36, 71
2, 43567, Note_on_c, 0, 65, 89
2, 43607, Control_c, 0, 64, 127
2, 43630, Note_on_c, 0, 36, 0
2, 43733, Note_on_c, 0, 55, 68
2, 43733, Note_on_c, 0, 51, 62
2, 43891, Note_on_c, 0, 51, 0
2, 43891, Note_on_c, 0, 65, 0
2, 43895, Note_on_c, 0, 51, 69
2, 43901, Note_on_c, 0, 65, 85
2, 43995, Note_on_c, 0, 51, 0
2, 43996, Note_on_c, 0, 55, 0
2, 43997, Note_on_c, 0, 65, 0
2, 44000, Control_c, 0, 64, 0
2, 44048, Note_on_c, 0, 36, 71
2, 44064, Note_on_c, 0, 63, 84
2, 44083, Note_on_c, 0, 36, 0
2, 44094, Note_on_c, 0, 63, 0
2, 44106, Control_c, 0, 64, 127
2, 44215, Note_on_c, 0, 63, 88
2, 44216, Note_on_c, 0, 55, 63
2, 44217, Note_on_c, 0, 51, 70
2, 44276, Note_on_c, 0, 63, 0
2, 44276, Control_c, 0, 64, 0
2, 44277, Note_on_c, 0, 55, 0
2, 44277, Note_on_c, 0, 51, 0
2, 44374, Note_on_c, 0, 43, 67
2, 44375, Note_on_c, 0, 62, 86
2, 44378, Note_on_c, 0, 59, 79
2, 44398, Control_c, 0, 64, 127
2, 44705, Note_on_c, 0, 59, 0
2, 44705, Note_on_c, 0, 62, 0
2, 44709, Note_on_c, 0, 65, 74
2, 44709, Note_on_c, 0, 62, 75
2, 44709, Note_on_c, 0, 59, 77
2, 44716, Note_on_c, 0, 74, 81
2, 44802, Note_on_c, 0, 79, 85
2, 44877, Note_on_c, 0, 83, 85
2, 44955, Note_on_c, 0, 86, 87
2, 45023, Note_on_c, 0, 89, 98
2, 45188, Note_on_c, 0, 74, 0
2, 45190, Control_c, 0, 64, 0
2, 45190, Note_on_c, 0, 59, 0
2, 45190, Note_on_c, 0, 62, 0
2, 45190, Note_on_c, 0, 86, 0
2, 45191, Note_on_c, 0, 79, 0
2, 45191, Note_on_c, 0, 83, 0
2, 45191, Note_on_c, 0, 65, 0
2, 45196, Note_on_c, 0, 43, 0
2, 45212, Note_on_c, 0, 89, 0
2, 45217, Note_on_c, 0, 55, 48
2, 45220, Note_on_c, 0, 57, 60
2, 45252, Note_on_c, 0, 55, 0
2, 45254, Note_on_c, 0, 57, 0
2, 45354, Note_on_c, 0, 59, 87
2, 45391, Note_on_c, 0, 59, 0
2, 45505, Note_on_c, 0, 62, 83
2, 45541, Note_on_c, 0, 62, 0
2, 45653, Note_on_c, 0, 43, 73
2, 45653, Note_on_c, 0, 31, 69
2, 45659, Note_on_c, 0, 65, 90
2, 45665, Note_on_c, 0, 31, 0
2, 45665, Control_c, 0, 64, 127
2, 45807, Note_on_c, 0, 59, 79
2, 45808, Note_on_c, 0, 55, 67
2, 45964, Note_on_c, 0, 65, 0
2, 45972, Note_on_c, 0, 55, 0
2, 45972, Note_on_c, 0, 59, 0
2, 45974, Note_on_c, 0, 65, 86
2, 45976, Note_on_c, 0, 59, 78
2, 45976, Note_on_c, 0, 55, 69
2, 46046, Control_c, 0, 64, 0
2, 46050, Note_on_c, 0, 55, 0
2, 46050, Note_on_c, 0, 59, 0
2, 46051, Note_on_c, 0, 43, 0
2, 46053, Note_on_c, 0, 65, 0
2, 46138, Note_on_c, 0, 43, 66
2, 46140, Note_on_c, 0, 63, 83
2, 46176, Note_on_c, 0, 43, 0
2, 46202, Control_c, 0, 64, 127
2, 46293, Note_on_c, 0, 43, 60
2, 46293, Note_on_c, 0, 55, 68
2, 46294, Note_on_c, 0, 59, 78
2, 46448, Note_on_c, 0, 43, 0
2, 46448, Note_on_c, 0, 55, 0
2, 46448, Note_on_c, 0, 59, 0
2, 46448, Note_on_c, 0, 63, 0
2, 46452, Note_on_c, 0, 59, 78
2, 46455, Note_on_c, 0, 55, 58
2, 46455, Note_on_c, 0, 43, 52
2, 46456, Note_on_c, 0, 63, 75
2, 46575, Control_c, 0, 64, 0
2, 46575, Note_on_c, 0, 59, 0
2, 46576, Note_on_c, 0, 63, 0
2, 46602, Note_on_c, 0, 43, 0
2, 46606, Note_on_c, 0, 43, 67
2, 46608, Note_on_c, 0, 62, 91
2, 46609, Note_on_c, 0, 55, 0
2, 46663, Control_c, 0, 64, 127
2, 46748, Note_on_c, 0, 59, 79
2, 46878, Control_c, 0, 64, 0
2, 46878, Note_on_c, 0, 43, 0
2, 46880, Note_on_c, 0, 59, 0
2, 46881, Note_on_c, 0, 62, 0
2, 46922, Note_on_c, 0, 36, 71
2, 46927, Note_on_c, 0, 60, 93
2, 46960, Note_on_c, 0, 36, 0
2, 46960, Note_on_c, 0, 60, 0
2, 46963, Control_c, 0, 64, 127
2, 47263, Note_on_c, 0, 72, 92
2, 47265, Note_on_c, 0, 63, 82
2, 47265, Note_on_c, 0, 60, 88
2, 47334, Note_on_c, 0, 75, 77
2, 47396, Note_on_c, 0, 79, 78
2, 47490, Note_on_c, 0, 84, 79
2, 47581, Note_on_c, 0, 87, 99
2, 47742, Note_on_c, 0, 55, 80
2, 47791, Note_on_c, 0, 87, 0
2, 47792, Note_on_c, 0, 60, 0
2, 47795, Note_on_c, 0, 72, 0
2, 47795, Note_on_c, 0, 75, 0
2, 47795, Note_on_c, 0, 79, 0
2, 47795, Note_on_c, 0, 84, 0
2, 47796, Control_c, 0, 64, 0
2, 47796, Note_on_c, 0, 63, 0
2, 47813, Note_on_c, 0, 55, 0
2, 47898, Note_on_c, 0, 60, 93
2, 47929, Note_on_c, 0, 60, 0
2, 48058, Note_on_c, 0, 63, 86
2, 48088, Note_on_c, 0, 63, 0
2, 48206, Note_on_c, 0, 36, 68
2, 48207, Control_c, 0, 64, 127
2, 48207, Note_on_c, 0, 67, 94
2, 48360, Note_on_c, 0, 55, 67
2, 48360, Note_on_c, 0, 51, 67
2, 48443, Note_on_c, 0, 51, 0
2, 48448, Note_on_c, 0, 55, 0
2, 48457, Control_c, 0, 64, 0
2, 48476, Note_on_c, 0, 36, 0
2, 48514, Note_on_c, 0, 67, 0
2, 48524, Note_on_c, 0, 67, 88
2, 48534, Note_on_c, 0, 51, 64
2, 48541, Note_on_c, 0, 55, 56
2, 48572, Note_on_c, 0, 55, 0
2, 48577, Note_on_c, 0, 51, 0
2, 48578, Note_on_c, 0, 67, 0
2, 48689, Note_on_c, 0, 65, 91
2, 48689, Note_on_c, 0, 36, 75
2, 48722, Note_on_c, 0, 36, 0
2, 48760, Control_c, 0, 64, 127
2, 48847, Note_on_c, 0, 55, 72
2, 48847, Note_on_c, 0, 51, 67
2, 48998, Note_on_c, 0, 55, 0
2, 49002, Note_on_c, 0, 51, 0
2, 49002, Note_on_c, 0, 36, 67
2, 49003, Note_on_c, 0, 55, 78
2, 49006, Note_on_c, 0, 65, 0
2, 49013, Note_on_c, 0, 36, 0
2, 49014, Note_on_c, 0, 65, 92
2, 49108, Note_on_c, 0, 55, 0
2, 49109, Note_on_c, 0, 65, 0
2, 49109, Control_c, 0, 64, 0
2, 49162, Note_on_c, 0, 36, 73
2, 49165, Note_on_c, 0, 63, 81
2, 49201, Note_on_c, 0, 63, 0
2, 49221, Control_c, 0, 64, 127
2, 49244, Note_on_c, 0, 36, 0
2, 49314, Note_on_c, 0, 55, 77
2, 49316, Note_on_c, 0, 63, 87
2, 49317, Note_on_c, 0, 51, 71
2, 49388, Note_on_c, 0, 51, 0
2, 49389, Control_c, 0, 64, 0
2, 49390, Note_on_c, 0, 63, 0
2, 49391, Note_on_c, 0, 55, 0
2, 49477, Note_on_c, 0, 43, 74
2, 49479, Note_on_c, 0, 62, 92
2, 49480, Note_on_c, 0, 59, 84
2, 49512, Control_c, 0, 64, 127
2, 49804, Note_on_c, 0, 62, 0
2, 49812, Note_on_c, 0, 59, 0
2, 49815, Note_on_c, 0, 65, 80
2, 49815, Note_on_c, 0, 62, 87
2, 49817, Note_on_c, 0, 59, 77
2, 49824, Note_on_c, 0, 74, 85
2, 49903, Note_on_c, 0, 79, 88
2, 49980, Note_on_c, 0, 83, 78
2, 50054, Note_on_c, 0, 86, 86
2, 50121, Note_on_c, 0, 89, 103
2, 50287, Note_on_c, 0, 55, 82
2, 50331, Note_on_c, 0, 74, 0
2, 50331, Note_on_c, 0, 86, 0
2, 50332, Note_on_c, 0, 43, 0
2, 50333, Note_on_c, 0, 59, 0
2, 50333, Note_on_c, 0, 79, 0
2, 50333, Control_c, 0, 64, 0
2, 50334, Note_on_c, 0, 89, 0
2, 50334, Note_on_c, 0, 83, 0
2, 50335, Note_on_c, 0, 65, 0
2, 50336, Note_on_c, 0, 62, 0
2, 50349, Note_on_c, 0, 55, 0
2, 50446, Note_on_c, 0, 59, 81
2, 50487, Note_on_c, 0, 59, 0
2, 50601, Note_on_c, 0, 62, 86
2, 50636, Note_on_c, 0, 62, 0
2, 50734, Control_c, 0, 64, 127
2, 50737, Note_on_c, 0, 43, 73
2, 50737, Note_on_c, 0, 31, 70
2, 50741, Note_on_c, 0, 31, 0
2, 50742, Note_on_c, 0, 65, 90
2, 50891, Note_on_c, 0, 59, 77
2, 50891, Note_on_c, 0, 55, 66
2, 51048, Note_on_c, 0, 55, 0
2, 51048, Note_on_c, 0, 59, 0
2, 51054, Note_on_c, 0, 59, 73
2, 51057, Note_on_c, 0, 55, 64
2, 51058, Note_on_c, 0, 67, 86
2, 51071, Control_c, 0, 64, 0
2, 51097, Note_on_c, 0, 59, 0
2, 51098, Note_on_c, 0, 55, 0
2, 51100, Note_on_c, 0, 43, 0
2, 51101, Note_on_c, 0, 65, 0
2, 51114, Note_on_c, 0, 67, 0
2, 51211, Note_on_c, 0, 43, 69
2, 51215, Note_on_c, 0, 65, 90
2, 51245, Note_on_c, 0, 43, 0
2, 51287, Control_c, 0, 64, 127
2, 51366, Note_on_c, 0, 59, 83
2, 51367, Note_on_c, 0, 63, 78
2, 51368, Note_on_c, 0, 55, 63
2, 51408, Note_on_c, 0, 59, 0
2, 51529, Note_on_c, 0, 59, 74
2, 51536, Note_on_c, 0, 62, 87
2, 51689, Note_on_c, 0, 43, 67
2, 51847, Note_on_c, 0, 63, 0
2, 51858, Note_on_c, 0, 63, 91
2, 51870, Note_on_c, 0, 60, 82
2, 51919, Control_c, 0, 64, 0
2, 51919, Note_on_c, 0, 59, 0
2, 51919, Note_on_c, 0, 65, 0
2, 51920, Note_on_c, 0, 62, 0
2, 51920, Note_on_c, 0, 43, 0
2, 51932, Note_on_c, 0, 55, 0
2, 52001, Control_c, 0, 64, 127
2, 52017, Note_on_c, 0, 48, 67
2, 52017, Note_on_c, 0, 36, 69
2, 52175, Note_on_c, 0, 42, 79
2, 52175, Note_on_c, 0, 54, 76
2, 52326, Note_on_c, 0, 55, 80
2, 52327, Note_on_c, 0, 43, 82
2, 52355, Control_c, 0, 64, 0
2, 52366, Note_on_c, 0, 54, 0
2, 52366, Note_on_c, 0, 60, 0
2, 52366, Note_on_c, 0, 42, 0
2, 52368, Note_on_c, 0, 43, 0
2, 52369, Note_on_c, 0, 36, 0
2, 52369, Note_on_c, 0, 48, 0
2, 52371, Note_on_c, 0, 55, 0
2, 52385, Note_on_c, 0, 63, 0
2, 52483, Note_on_c, 0, 59, 98
2, 52484, Note_on_c, 0, 47, 86
2, 52642, Note_on_c, 0, 60, 92
2, 52642, Note_on_c, 0, 48, 80
2, 52657, Note_on_c, 0, 47, 0
2, 52657, Note_on_c, 0, 59, 0
2, 52673, Note_on_c, 0, 60, 0
2, 52692, Note_on_c, 0, 48, 0
2, 52803, Note_on_c, 0, 79, 101
2, 52803, Note_on_c, 0, 51, 81
2, 52804, Note_on_c, 0, 67, 92
2, 52815, Control_c, 0, 64, 127
2, 52945, Note_on_c, 0, 67, 0
2, 52957, Note_on_c, 0, 67, 95
2, 52958, Note_on_c, 0, 84, 101
2, 52958, Note_on_c, 0, 55, 80
2, 52958, Note_on_c, 0, 72, 101
2, 53124, Note_on_c, 0, 87, 90
2, 53246, Note_on_c, 0, 87, 0
2, 53246, Note_on_c, 0, 55, 0
2, 53247, Note_on_c, 0, 67, 0
2, 53247, Control_c, 0, 64, 0
2, 53247, Note_on_c, 0, 72, 0
2, 53247, Note_on_c, 0, 51, 0
2, 53248, Note_on_c, 0, 79, 0
2, 53248, Note_on_c, 0, 84, 0
2, 53286, Note_on_c, 0, 60, 94
2, 53286, Note_on_c, 0, 48, 79
2, 53287, Note_on_c, 0, 91, 104
2, 53292, Note_on_c, 0, 79, 96
2, 53317, Note_on_c, 0, 60, 0
2, 53318, Note_on_c, 0, 48, 0
2, 53331, Note_on_c, 0, 81, 44
2, 53337, Control_c, 0, 64, 127
2, 53437, Note_on_c, 0, 60, 75
2, 53446, Note_on_c, 0, 67, 67
2, 53447, Note_on_c, 0, 48, 51
2, 53449, Note_on_c, 0, 63, 53
2, 53583, Note_on_c, 0, 67, 0
2, 53591, Note_on_c, 0, 60, 0
2, 53591, Note_on_c, 0, 63, 0
2, 53591, Note_on_c, 0, 79, 0
2, 53591, Note_on_c, 0, 91, 0
2, 53592, Note_on_c, 0, 67, 77
2, 53595, Note_on_c, 0, 91, 91
2, 53595, Note_on_c, 0, 63, 60
2, 53595, Note_on_c, 0, 60, 76
2, 53596, Note_on_c, 0, 79, 91
2, 53725, Control_c, 0, 64, 0
2, 53725, Note_on_c, 0, 67, 0
2, 53726, Note_on_c, 0, 91, 0
2, 53726, Note_on_c, 0, 63, 0
2, 53726, Note_on_c, 0, 79, 0
2, 53752, Note_on_c, 0, 48, 0
2, 53752, Note_on_c, 0, 60, 0
2, 53752, Note_on_c, 0, 81, 0
2, 53759, Note_on_c, 0, 60, 85
2, 53760, Note_on_c, 0, 48, 77
2, 53763, Note_on_c, 0, 89, 99
2, 53766, Note_on_c, 0, 77, 92
2, 53791, Note_on_c, 0, 48, 0
2, 53806, Control_c, 0, 64, 127
2, 53867, Note_on_c, 0, 60, 0
2, 53918, Note_on_c, 0, 60, 77
2, 53918, Note_on_c, 0, 67, 81
2, 53919, Note_on_c, 0, 63, 61
2, 54044, Note_on_c, 0, 67, 0
2, 54050, Note_on_c, 0, 67, 82
2, 54059, Note_on_c, 0, 60, 0
2, 54059, Note_on_c, 0, 63, 0
2, 54067, Note_on_c, 0, 77, 0
2, 54067, Note_on_c, 0, 89, 0
2, 54067, Note_on_c, 0, 60, 80
2, 54068, Note_on_c, 0, 63, 66
2, 54071, Note_on_c, 0, 89, 86
2, 54071, Note_on_c, 0, 77, 88
2, 54201, Control_c, 0, 64, 0
2, 54203, Note_on_c, 0, 77, 0
2, 54203, Note_on_c, 0, 89, 0
2, 54204, Note_on_c, 0, 67, 0
2, 54205, Note_on_c, 0, 63, 0
2, 54213, Note_on_c, 0, 60, 0
2, 54216, Note_on_c, 0, 48, 78
2, 54217, Note_on_c, 0, 60, 83
2, 54231, Note_on_c, 0, 87, 98
2, 54233, Note_on_c, 0, 75, 87
2, 54257, Note_on_c, 0, 48, 0
2, 54266, Note_on_c, 0, 60, 0
2, 54268, Note_on_c, 0, 75, 0
2, 54274, Control_c, 0, 64, 127
2, 54359, Note_on_c, 0, 87, 0
2, 54368, Note_on_c, 0, 60, 80
2, 54369, Note_on_c, 0, 48, 73
2, 54370, Note_on_c, 0, 87, 96
2, 54370, Note_on_c, 0, 75, 92
2, 54370, Note_on_c, 0, 67, 81
2, 54489, Note_on_c, 0, 48, 0
2, 54494, Control_c, 0, 64, 0
2, 54494, Note_on_c, 0, 60, 0
2, 54495, Note_on_c, 0, 87, 0
2, 54495, Note_on_c, 0, 67, 0
2, 54497, Note_on_c, 0, 75, 0
2, 54532, Note_on_c, 0, 86, 99
2, 54536, Note_on_c, 0, 74, 95
2, 54537, Note_on_c, 0, 55, 80
2, 54538, Note_on_c, 0, 79, 89
2, 54538, Note_on_c, 0, 43, 77
2, 54540, Note_on_c, 0, 83, 82
2, 54574, Control_c, 0, 64, 127
2, 54604, Note_on_c, 0, 74, 0
2, 54666, Note_on_c, 0, 55, 0
2, 54672, Note_on_c, 0, 55, 51
2, 54804, Note_on_c, 0, 59, 76
2, 54857, Note_on_c, 0, 89, 101
2, 54862, Note_on_c, 0, 77, 87
2, 54869, Note_on_c, 0, 62, 76
2, 54922, Note_on_c, 0, 65, 90
2, 55022, Note_on_c, 0, 71, 82
2, 55088, Note_on_c, 0, 43, 0
2, 55094, Note_on_c, 0, 74, 84
2, 55165, Note_on_c, 0, 77, 0
2, 55170, Note_on_c, 0, 77, 93
2, 55261, Note_on_c, 0, 89, 0
2, 55261, Note_on_c, 0, 86, 0
2, 55262, Note_on_c, 0, 71, 0
2, 55262, Control_c, 0, 64, 0
2, 55262, Note_on_c, 0, 74, 0
2, 55262, Note_on_c, 0, 59, 0
2, 55262, Note_on_c, 0, 77, 0
2, 55262, Note_on_c, 0, 62, 0
2, 55262, Note_on_c, 0, 83, 0
2, 55262, Note_on_c, 0, 65, 0
2, 55263, Note_on_c, 0, 79, 0
2, 55280, Note_on_c, 0, 55, 0
2, 55332, Note_on_c, 0, 79, 100
2, 55332, Note_on_c, 0, 91, 84
2, 55335, Note_on_c, 0, 67, 89
2, 55342, Note_on_c, 0, 91, 0
2, 55370, Note_on_c, 0, 79, 0
2, 55376, Note_on_c, 0, 67, 0
2, 55486, Note_on_c, 0, 83, 98
2, 55489, Note_on_c, 0, 71, 95
2, 55515, Note_on_c, 0, 71, 0
2, 55637, Note_on_c, 0, 86, 94
2, 55639, Note_on_c, 0, 74, 90
2, 55660, Note_on_c, 0, 74, 0
2, 55662, Note_on_c, 0, 86, 0
2, 55672, Note_on_c, 0, 83, 0
2, 55782, Note_on_c, 0, 43, 78
2, 55784, Note_on_c, 0, 55, 77
2, 55787, Control_c, 0, 64, 127
2, 55789, Note_on_c, 0, 89, 99
2, 55794, Note_on_c, 0, 77, 94
2, 55951, Note_on_c, 0, 65, 80
2, 55952, Note_on_c, 0, 62, 75
2, 55952, Note_on_c, 0, 59, 76
2, 56079, Note_on_c, 0, 65, 0
2, 56087, Note_on_c, 0, 59, 0
2, 56087, Note_on_c, 0, 62, 0
2, 56088, Note_on_c, 0, 65, 68
2, 56090, Note_on_c, 0, 59, 85
2, 56092, Note_on_c, 0, 62, 69
2, 56094, Note_on_c, 0, 77, 0
2, 56094, Note_on_c, 0, 89, 0
2, 56102, Note_on_c, 0, 89, 95
2, 56105, Note_on_c, 0, 77, 91
2, 56205, Note_on_c, 0, 55, 0
2, 56205, Note_on_c, 0, 77, 0
2, 56205, Note_on_c, 0, 62, 0
2, 56206, Note_on_c, 0, 89, 0
2, 56206, Note_on_c, 0, 59, 0
2, 56206, Note_on_c, 0, 65, 0
2, 56206, Control_c, 0, 64, 0
2, 56248, Note_on_c, 0, 43, 0
2, 56253, Note_on_c, 0, 43, 75
2, 56253, Note_on_c, 0, 55, 77
2, 56259, Note_on_c, 0, 89, 98
2, 56263, Note_on_c, 0, 77, 91
2, 56286, Control_c, 0, 64, 127
2, 56406, Note_on_c, 0, 62, 78
2, 56410, Note_on_c, 0, 59, 82
2, 56411, Note_on_c, 0, 87, 101
2, 56413, Note_on_c, 0, 65, 73
2, 56420, Note_on_c, 0, 75, 90
2, 56540, Note_on_c, 0, 59, 0
2, 56548, Note_on_c, 0, 59, 81
2, 56552, Note_on_c, 0, 55, 0
2, 56555, Note_on_c, 0, 65, 0
2, 56565, Note_on_c, 0, 65, 51
2, 56566, Note_on_c, 0, 86, 98
2, 56569, Note_on_c, 0, 74, 91
2, 56683, Control_c, 0, 64, 0
2, 56684, Note_on_c, 0, 77, 0
2, 56684, Note_on_c, 0, 59, 0
2, 56685, Note_on_c, 0, 89, 0
2, 56685, Note_on_c, 0, 87, 0
2, 56685, Note_on_c, 0, 62, 0
2, 56685, Note_on_c, 0, 65, 0
2, 56686, Note_on_c, 0, 75, 0
2, 56688, Note_on_c, 0, 74, 0
2, 56689, Note_on_c, 0, 86, 0
2, 56693, Note_on_c, 0, 43, 0
2, 56728, Note_on_c, 0, 43, 75
2, 56729, Note_on_c, 0, 55, 79
2, 56755, Control_c, 0, 64, 127
2, 56882, Note_on_c, 0, 84, 95
2, 56882, Note_on_c, 0, 79, 97
2, 56886, Note_on_c, 0, 72, 95
2, 56887, Note_on_c, 0, 75, 85
2, 56954, Note_on_c, 0, 55, 0
2, 56957, Control_c, 0, 64, 0
2, 56960, Note_on_c, 0, 43, 0
2, 57024, Note_on_c, 0, 36, 72
2, 57026, Note_on_c, 0, 48, 66
2, 57031, Control_c, 0, 64, 127
2, 57093, Note_on_c, 0, 36, 0
2, 57192, Note_on_c, 0, 51, 70
2, 57283, Note_on_c, 0, 55, 70
2, 57342, Note_on_c, 0, 60, 88
2, 57346, Note_on_c, 0, 75, 0
2, 57351, Note_on_c, 0, 87, 104
2, 57356, Note_on_c, 0, 75, 93
2, 57486, Note_on_c, 0, 67, 85
2, 57506, Note_on_c, 0, 64, 52
2, 57569, Note_on_c, 0, 72, 0
2, 57577, Note_on_c, 0, 72, 90
2, 57646, Note_on_c, 0, 75, 0
2, 57655, Note_on_c, 0, 75, 95
2, 57797, Control_c, 0, 64, 0
2, 57801, Note_on_c, 0, 64, 0
2, 57801, Note_on_c, 0, 48, 0
2, 57802, Note_on_c, 0, 87, 0
2, 57802, Note_on_c, 0, 51, 0
2, 57802, Note_on_c, 0, 60, 0
2, 57802, Note_on_c, 0, 84, 0
2, 57802, Note_on_c, 0, 55, 0
2, 57802, Note_on_c, 0, 75, 0
2, 57802, Note_on_c, 0, 72, 0
2, 57822, Note_on_c, 0, 67, 0
2, 57822, Note_on_c, 0, 79, 0
2, 57827, Note_on_c, 0, 79, 101
2, 57829, Note_on_c, 0, 67, 85
2, 57857, Note_on_c, 0, 79, 0
2, 57858, Note_on_c, 0, 67, 0
2, 57974, Note_on_c, 0, 84, 99
2, 57977, Note_on_c, 0, 72, 100
2, 58013, Note_on_c, 0, 72, 0
2, 58014, Note_on_c, 0, 84, 0
2, 58125, Note_on_c, 0, 87, 99
2, 58127, Note_on_c, 0, 75, 83
2, 58149, Note_on_c, 0, 87, 0
2, 58153, Note_on_c, 0, 75, 0
2, 58277, Note_on_c, 0, 60, 94
2, 58277, Note_on_c, 0, 48, 79
2, 58278, Note_on_c, 0, 91, 108
2, 58280, Note_on_c, 0, 79, 101
2, 58291, Control_c, 0, 64, 127
2, 58421, Note_on_c, 0, 60, 0
2, 58432, Note_on_c, 0, 60, 72
2, 58434, Note_on_c, 0, 67, 75
2, 58434, Note_on_c, 0, 63, 65
2, 58437, Note_on_c, 0, 48, 0
2, 58575, Note_on_c, 0, 60, 0
2, 58575, Note_on_c, 0, 63, 0
2, 58575, Note_on_c, 0, 67, 0
2, 58575, Note_on_c, 0, 79, 0
2, 58575, Note_on_c, 0, 91, 0
2, 58581, Note_on_c, 0, 67, 81
2, 58583, Note_on_c, 0, 60, 76
2, 58585, Note_on_c, 0, 91, 97
2, 58585, Note_on_c, 0, 63, 54
2, 58586, Note_on_c, 0, 79, 99
2, 58714, Control_c, 0, 64, 0
2, 58715, Note_on_c, 0, 67, 0
2, 58716, Note_on_c, 0, 63, 0
2, 58716, Note_on_c, 0, 91, 0
2, 58716, Note_on_c, 0, 60, 0
2, 58736, Note_on_c, 0, 79, 0
2, 58755, Note_on_c, 0, 48, 77
2, 58756, Note_on_c, 0, 89, 102
2, 58759, Note_on_c, 0, 77, 100
2, 58787, Note_on_c, 0, 48, 0
2, 58790, Control_c, 0, 64, 127
2, 58909, Note_on_c, 0, 60, 73
2, 58909, Note_on_c, 0, 63, 72
2, 58911, Note_on_c, 0, 67, 80
2, 59036, Note_on_c, 0, 67, 0
2, 59043, Note_on_c, 0, 67, 83
2, 59059, Note_on_c, 0, 60, 0
2, 59059, Note_on_c, 0, 77, 0
2, 59059, Note_on_c, 0, 89, 0
2, 59063, Note_on_c, 0, 89, 91
2, 59063, Note_on_c, 0, 63, 0
2, 59064, Note_on_c, 0, 77, 91
2, 59065, Note_on_c, 0, 60, 82
2, 59196, Control_c, 0, 64, 0
2, 59198, Note_on_c, 0, 89, 0
2, 59199, Note_on_c, 0, 77, 0
2, 59205, Note_on_c, 0, 60, 0
2, 59212, Note_on_c, 0, 67, 0
2, 59214, Note_on_c, 0, 48, 79
2, 59214, Note_on_c, 0, 60, 88
2, 59216, Note_on_c, 0, 91, 104
2, 59217, Note_on_c, 0, 79, 101
2, 59246, Note_on_c, 0, 48, 0
2, 59247, Note_on_c, 0, 60, 0
2, 59266, Control_c, 0, 64, 127
2, 59358, Note_on_c, 0, 79, 0
2, 59358, Note_on_c, 0, 91, 0
2, 59369, Note_on_c, 0, 79, 102
2, 59369, Note_on_c, 0, 91, 97
2, 59370, Note_on_c, 0, 60, 75
2, 59370, Note_on_c, 0, 67, 71
2, 59375, Note_on_c, 0, 63, 56
2, 59472, Note_on_c, 0, 67, 0
2, 59472, Note_on_c, 0, 79, 0
2, 59472, Control_c, 0, 64, 0
2, 59474, Note_on_c, 0, 91, 0
2, 59474, Note_on_c, 0, 63, 0
2, 59474, Note_on_c, 0, 60, 0
2, 59509, Note_on_c, 0, 94, 111
2, 59513, Note_on_c, 0, 84, 94
2, 59517, Note_on_c, 0, 82, 97
2, 59519, Note_on_c, 0, 41, 88
2, 59521, Note_on_c, 0, 53, 90
2, 59550, Control_c, 0, 64, 127
2, 59670, Note_on_c, 0, 56, 73
2, 59765, Note_on_c, 0, 60, 87
2, 59831, Note_on_c, 0, 92, 106
2, 59831, Note_on_c, 0, 65, 75
2, 59832, Note_on_c, 0, 80, 98
2, 59946, Note_on_c, 0, 68, 82
2, 59977, Note_on_c, 0, 72, 89
2, 60079, Note_on_c, 0, 77, 88
2, 60149, Note_on_c, 0, 80, 0
2, 60154, Note_on_c, 0, 80, 90
2, 60277, Note_on_c, 0, 94, 0
2, 60279, Note_on_c, 0, 80, 0
2, 60279, Note_on_c, 0, 84, 0
2, 60279, Control_c, 0, 64, 0
2, 60280, Note_on_c, 0, 72, 0
2, 60280, Note_on_c, 0, 68, 0
2, 60280, Note_on_c, 0, 77, 0
2, 60281, Note_on_c, 0, 65, 0
2, 60281, Note_on_c, 0, 60, 0
2, 60282, Note_on_c, 0, 56, 0
2, 60288, Note_on_c, 0, 41, 0
2, 60288, Note_on_c, 0, 82, 0
2, 60295, Note_on_c, 0, 53, 0
2, 60311, Note_on_c, 0, 92, 0
2, 60321, Note_on_c, 0, 92, 102
2, 60322, Note_on_c, 0, 80, 94
2, 60354, Note_on_c, 0, 80, 0
2, 60358, Note_on_c, 0, 92, 0
2, 60470, Note_on_c, 0, 91, 100
2, 60472, Note_on_c, 0, 58, 56
2, 60474, Note_on_c, 0, 79, 95
2, 60505, Note_on_c, 0, 91, 0
2, 60506, Note_on_c, 0, 79, 0
2, 60518, Note_on_c, 0, 58, 0
2, 60618, Note_on_c, 0, 89, 96
2, 60620, Note_on_c, 0, 77, 95
2, 60658, Note_on_c, 0, 77, 0
2, 60669, Note_on_c, 0, 89, 0
2, 60775, Note_on_c, 0, 91, 107
2, 60776, Note_on_c, 0, 43, 87
2, 60777, Note_on_c, 0, 87, 102
2, 60777, Note_on_c, 0, 31, 82
2, 60778, Note_on_c, 0, 79, 105
2, 60783, Note_on_c, 0, 84, 87
2, 60787, Note_on_c, 0, 31, 0
2, 60810, Control_c, 0, 64, 127
2, 60925, Note_on_c, 0, 43, 0
2, 60935, Note_on_c, 0, 43, 84
2, 60936, Note_on_c, 0, 31, 83
2, 60938, Note_on_c, 0, 98, 92
2, 60942, Note_on_c, 0, 86, 89
2, 60948, Note_on_c, 0, 98, 0
2, 60952, Note_on_c, 0, 91, 0
2, 60956, Note_on_c, 0, 84, 0
2, 60956, Note_on_c, 0, 87, 0
2, 60956, Control_c, 0, 64, 0
2, 60986, Note_on_c, 0, 79, 0
2, 60994, Note_on_c, 0, 43, 0
2, 61009, Note_on_c, 0, 31, 0
2, 61086, Note_on_c, 0, 86, 0
2, 61091, Note_on_c, 0, 89, 101
2, 61092, Note_on_c, 0, 86, 99
2, 61095, Note_on_c, 0, 77, 100
2, 61125, Control_c, 0, 64, 127
2, 61237, Note_on_c, 0, 31, 85
2, 61323, Note_on_c, 0, 43, 73
2, 61334, Note_on_c, 0, 31, 0
2, 61336, Note_on_c, 0, 89, 0
2, 61338, Note_on_c, 0, 86, 0
2, 61343, Note_on_c, 0, 77, 0
2, 61343, Control_c, 0, 64, 0
2, 61386, Note_on_c, 0, 43, 0
2, 61405, Note_on_c, 0, 87, 102
2, 61405, Note_on_c, 0, 75, 100
2, 61410, Note_on_c, 0, 79, 91
2, 61411, Note_on_c, 0, 33, 87
2, 61412, Note_on_c, 0, 84, 81
2, 61476, Note_on_c, 0, 45, 76
2, 61512, Note_on_c, 0, 75, 0
2, 61514, Note_on_c, 0, 87, 0
2, 61514, Note_on_c, 0, 33, 0
2, 61518, Note_on_c, 0, 45, 0
2, 61524, Note_on_c, 0, 79, 0
2, 61524, Note_on_c, 0, 84, 0
2, 61567, Note_on_c, 0, 35, 84
2, 61573, Note_on_c, 0, 47, 87
2, 61582, Note_on_c, 0, 79, 96
2, 61583, Note_on_c, 0, 86, 101
2, 61589, Note_on_c, 0, 74, 97
2, 61624, Note_on_c, 0, 47, 0
2, 61632, Note_on_c, 0, 47, 67
2, 61656, Note_on_c, 0, 79, 0
2, 61680, Note_on_c, 0, 47, 0
2, 61680, Note_on_c, 0, 74, 0
2, 61681, Note_on_c, 0, 86, 0
2, 61693, Note_on_c, 0, 35, 0
2, 61896, Note_on_c, 0, 84, 96
2, 61897, Note_on_c, 0, 79, 92
2, 61899, Note_on_c, 0, 72, 99
2, 61904, Note_on_c, 0, 48, 81
2, 61905, Note_on_c, 0, 75, 85
2, 61905, Note_on_c, 0, 36, 79
2, 61939, Control_c, 0, 64, 127
2, 62204, Note_on_c, 0, 60, 88
2, 62272, Note_on_c, 0, 55, 56
2, 62338, Note_on_c, 0, 48, 0
2, 62346, Note_on_c, 0, 48, 65
2, 62368, Control_c, 0, 64, 0
2, 62375, Note_on_c, 0, 60, 0
2, 62376, Note_on_c, 0, 55, 0
2, 62392, Note_on_c, 0, 36, 0
2, 62407, Note_on_c, 0, 48, 0
2, 62420, Note_on_c, 0, 43, 66
2, 62461, Control_c, 0, 64, 127
2, 62502, Note_on_c, 0, 36, 75
2, 62835, Note_on_c, 0, 48, 65
2, 62891, Note_on_c, 0, 36, 0
2, 62894, Note_on_c, 0, 43, 0
2, 62897, Control_c, 0, 64, 0
2, 62899, Note_on_c, 0, 72, 0
2, 62960, Note_on_c, 0, 84, 0
2, 62995, Note_on_c, 0, 72, 101
2, 63002, Note_on_c, 0, 63, 82
2, 63006, Control_c, 0, 64, 127
2, 63010, Note_on_c, 0, 55, 69
2, 63010, Note_on_c, 0, 67, 80
2, 63022, Note_on_c, 0, 75, 0
2, 63298, Note_on_c, 0, 48, 0
2, 63306, Note_on_c, 0, 79, 0
2, 63308, Control_c, 0, 64, 0
2, 63309, Note_on_c, 0, 55, 0
2, 63309, Note_on_c, 0, 63, 0
2, 63311, Note_on_c, 0, 67, 0
2, 63328, Note_on_c, 0, 41, 76
2, 63329, Note_on_c, 0, 72, 0
2, 63331, Note_on_c, 0, 80, 101
2, 63334, Note_on_c, 0, 72, 88
2, 63336, Note_on_c, 0, 68, 89
2, 63421, Control_c, 0, 64, 127
2, 63433, Note_on_c, 0, 48, 57
2, 63512, Note_on_c, 0, 51, 65
2, 63564, Note_on_c, 0, 56, 73
2, 63671, Note_on_c, 0, 60, 75
2, 63738, Note_on_c, 0, 63, 56
2, 63797, Note_on_c, 0, 68, 0
2, 63806, Note_on_c, 0, 68, 74
2, 63874, Note_on_c, 0, 60, 0
2, 63885, Note_on_c, 0, 60, 71
2, 63941, Note_on_c, 0, 41, 0
2, 63942, Note_on_c, 0, 51, 0
2, 63944, Note_on_c, 0, 56, 0
2, 63945, Note_on_c, 0, 63, 0
2, 63945, Note_on_c, 0, 48, 0
2, 63946, Note_on_c, 0, 60, 0
2, 63947, Control_c, 0, 64, 0
2, 63983, Note_on_c, 0, 53, 69
2, 63997, Control_c, 0, 64, 127
2, 64082, Note_on_c, 0, 60, 73
2, 64140, Note_on_c, 0, 63, 71
2, 64197, Note_on_c, 0, 68, 0
2, 64208, Note_on_c, 0, 68, 75
2, 64273, Note_on_c, 0, 72, 0
2, 64279, Note_on_c, 0, 82, 91
2, 64285, Note_on_c, 0, 72, 87
2, 64335, Note_on_c, 0, 68, 0
2, 64341, Note_on_c, 0, 68, 86
2, 64412, Note_on_c, 0, 63, 0
2, 64421, Note_on_c, 0, 63, 58
2, 64422, Note_on_c, 0, 51, 55
2, 64442, Note_on_c, 0, 60, 0
2, 64448, Note_on_c, 0, 84, 98
2, 64454, Note_on_c, 0, 60, 76
2, 64586, Note_on_c, 0, 53, 0
2, 64587, Note_on_c, 0, 68, 0
2, 64587, Note_on_c, 0, 72, 0
2, 64588, Note_on_c, 0, 82, 0
2, 64591, Control_c, 0, 64, 0
2, 64596, Note_on_c, 0, 51, 0
2, 64596, Note_on_c, 0, 63, 0
2, 64596, Note_on_c, 0, 80, 0
2, 64604, Note_on_c, 0, 60, 0
2, 64606, Note_on_c, 0, 41, 67
2, 64665, Control_c, 0, 64, 127
2, 64694, Note_on_c, 0, 48, 67
2, 64792, Note_on_c, 0, 51, 61
2, 64830, Note_on_c, 0, 56, 73
2, 64903, Note_on_c, 0, 84, 0
2, 64911, Note_on_c, 0, 84, 93
2, 64936, Note_on_c, 0, 60, 72
2, 64995, Note_on_c, 0, 51, 0
2, 65005, Note_on_c, 0, 51, 62
2, 65006, Note_on_c, 0, 63, 63
2, 65055, Note_on_c, 0, 68, 82
2, 65134, Note_on_c, 0, 60, 0
2, 65141, Note_on_c, 0, 60, 79
2, 65214, Note_on_c, 0, 53, 82
2, 65228, Note_on_c, 0, 63, 0
2, 65228, Control_c, 0, 64, 0
2, 65228, Note_on_c, 0, 51, 0
2, 65228, Note_on_c, 0, 60, 0
2, 65229, Note_on_c, 0, 56, 0
2, 65229, Note_on_c, 0, 48, 0
2, 65229, Note_on_c, 0, 68, 0
2, 65230, Note_on_c, 0, 82, 89
2, 65232, Note_on_c, 0, 84, 0
2, 65272, Note_on_c, 0, 41, 0
2, 65299, Note_on_c, 0, 53, 0
2, 65303, Control_c, 0, 64, 127
2, 65316, Note_on_c, 0, 60, 76
2, 65381, Note_on_c, 0, 63, 68
2, 65384, Note_on_c, 0, 80, 89
2, 65447, Note_on_c, 0, 68, 73
2, 65533, Note_on_c, 0, 60, 0
2, 65537, Note_on_c, 0, 72, 92
2, 65538, Note_on_c, 0, 60, 66
2, 65564, Note_on_c, 0, 68, 0
2, 65574, Note_on_c, 0, 68, 90
2, 65656, Note_on_c, 0, 63, 0
2, 65661, Note_on_c, 0, 63, 63
2, 65694, Note_on_c, 0, 60, 0
2, 65703, Note_on_c, 0, 60, 90
2, 65837, Note_on_c, 0, 82, 0
2, 65837, Note_on_c, 0, 80, 0
2, 65838, Control_c, 0, 64, 0
2, 65838, Note_on_c, 0, 63, 0
2, 65838, Note_on_c, 0, 68, 0
2, 65851, Note_on_c, 0, 39, 83
2, 65852, Note_on_c, 0, 79, 105
2, 65856, Note_on_c, 0, 60, 0
2, 65856, Note_on_c, 0, 72, 0
2, 65859, Note_on_c, 0, 72, 97
2, 65862, Note_on_c, 0, 67, 86
2, 65911, Note_on_c, 0, 39, 0
2, 65925, Control_c, 0, 64, 127
2, 65943, Note_on_c, 0, 48, 68
2, 66006, Note_on_c, 0, 51, 62
2, 66065, Note_on_c, 0, 55, 70
2, 66166, Note_on_c, 0, 60, 78
2, 66221, Note_on_c, 0, 63, 65
2, 66286, Note_on_c, 0, 67, 0
2, 66291, Note_on_c, 0, 67, 82
2, 66348, Note_on_c, 0, 77, 92
2, 66370, Note_on_c, 0, 60, 0
2, 66375, Note_on_c, 0, 60, 77
2, 66485, Note_on_c, 0, 51, 0
2, 66488, Note_on_c, 0, 60, 0
2, 66488, Note_on_c, 0, 55, 0
2, 66488, Note_on_c, 0, 63, 0
2, 66489, Note_on_c, 0, 67, 0
2, 66489, Note_on_c, 0, 72, 0
2, 66489, Note_on_c, 0, 79, 0
2, 66489, Note_on_c, 0, 48, 0
2, 66490, Control_c, 0, 64, 0
2, 66494, Note_on_c, 0, 51, 75
2, 66496, Note_on_c, 0, 75, 96
2, 66534, Note_on_c, 0, 77, 0
2, 66570, Control_c, 0, 64, 127
2, 66580, Note_on_c, 0, 60, 78
2, 66639, Note_on_c, 0, 51, 0
2, 66645, Note_on_c, 0, 63, 71
2, 66648, Note_on_c, 0, 51, 67
2, 66649, Note_on_c, 0, 77, 97
2, 66705, Note_on_c, 0, 67, 77
2, 66800, Note_on_c, 0, 72, 92
2, 66877, Note_on_c, 0, 67, 0
2, 66887, Note_on_c, 0, 67, 74
2, 66923, Note_on_c, 0, 63, 0
2, 66933, Note_on_c, 0, 63, 60
2, 66957, Note_on_c, 0, 79, 105
2, 66977, Note_on_c, 0, 60, 0
2, 66983, Note_on_c, 0, 60, 76
2, 67117, Note_on_c, 0, 63, 0
2, 67117, Note_on_c, 0, 51, 0
2, 67117, Note_on_c, 0, 67, 0
2, 67118, Note_on_c, 0, 75, 0
2, 67118, Note_on_c, 0, 60, 0
2, 67118, Control_c, 0, 64, 0
2, 67118, Note_on_c, 0, 77, 0
2, 67129, Note_on_c, 0, 39, 71
2, 67197, Note_on_c, 0, 39, 0
2, 67213, Note_on_c, 0, 48, 66
2, 67215, Control_c, 0, 64, 127
2, 67276, Note_on_c, 0, 51, 70
2, 67337, Note_on_c, 0, 55, 71
2, 67445, Note_on_c, 0, 60, 78
2, 67491, Note_on_c, 0, 63, 68
2, 67560, Note_on_c, 0, 67, 82
2, 67645, Note_on_c, 0, 60, 0
2, 67650, Note_on_c, 0, 60, 76
2, 67729, Note_on_c, 0, 51, 0
2, 67738, Note_on_c, 0, 51, 78
2, 67758, Note_on_c, 0, 48, 0
2, 67758, Note_on_c, 0, 63, 0
2, 67759, Note_on_c, 0, 67, 0
2, 67760, Note_on_c, 0, 60, 0
2, 67761, Note_on_c, 0, 55, 0
2, 67761, Control_c, 0, 64, 0
2, 67783, Note_on_c, 0, 79, 0
2, 67831, Note_on_c, 0, 60, 81
2, 67845, Control_c, 0, 64, 127
2, 67895, Note_on_c, 0, 63, 71
2, 67953, Note_on_c, 0, 67, 76
2, 68037, Note_on_c, 0, 72, 0
2, 68045, Note_on_c, 0, 72, 99
2, 68121, Note_on_c, 0, 67, 0
2, 68127, Note_on_c, 0, 67, 76
2, 68183, Note_on_c, 0, 63, 0
2, 68187, Note_on_c, 0, 63, 65
2, 68229, Note_on_c, 0, 60, 0
2, 68237, Note_on_c, 0, 60, 77
2, 68342, Note_on_c, 0, 60, 0
2, 68343, Note_on_c, 0, 67, 0
2, 68346, Control_c, 0, 64, 0
2, 68352, Note_on_c, 0, 51, 0
2, 68352, Note_on_c, 0, 72, 0
2, 68357, Note_on_c, 0, 80, 106
2, 68358, Note_on_c, 0, 41, 79
2, 68359, Note_on_c, 0, 63, 0
2, 68361, Note_on_c, 0, 72, 94
2, 68364, Note_on_c, 0, 68, 97
2, 68436, Control_c, 0, 64, 127
2, 68472, Note_on_c, 0, 48, 63
2, 68529, Note_on_c, 0, 51, 67
2, 68579, Note_on_c, 0, 56, 75
2, 68695, Note_on_c, 0, 60, 72
2, 68777, Note_on_c, 0, 63, 52
2, 68812, Note_on_c, 0, 68, 0
2, 68823, Note_on_c, 0, 68, 73
2, 68904, Note_on_c, 0, 60, 0
2, 68910, Note_on_c, 0, 60, 76
2, 68978, Note_on_c, 0, 41, 0
2, 68978, Note_on_c, 0, 63, 0
2, 68979, Note_on_c, 0, 80, 0
2, 68979, Note_on_c, 0, 51, 0
2, 68980, Note_on_c, 0, 60, 0
2, 68980, Note_on_c, 0, 48, 0
2, 68980, Note_on_c, 0, 56, 0
2, 68982, Control_c, 0, 64, 0
2, 68987, Note_on_c, 0, 53, 81
2, 69004, Note_on_c, 0, 68, 0
2, 69073, Control_c, 0, 64, 127
2, 69099, Note_on_c, 0, 60, 73
2, 69127, Note_on_c, 0, 53, 0
2, 69146, Note_on_c, 0, 63, 72
2, 69205, Note_on_c, 0, 68, 81
2, 69288, Note_on_c, 0, 72, 0
2, 69291, Note_on_c, 0, 82, 91
2, 69295, Note_on_c, 0, 72, 88
2, 69350, Note_on_c, 0, 68, 0
2, 69356, Note_on_c, 0, 68, 73
2, 69419, Note_on_c, 0, 63, 0
2, 69429, Note_on_c, 0, 63, 48
2, 69442, Note_on_c, 0, 60, 0
2, 69453, Note_on_c, 0, 60, 86
2, 69455, Note_on_c, 0, 84, 99
2, 69573, Note_on_c, 0, 63, 0
2, 69573, Note_on_c, 0, 68, 0
2, 69573, Note_on_c, 0, 82, 0
2, 69574, Control_c, 0, 64, 0
2, 69596, Note_on_c, 0, 60, 0
2, 69600, Note_on_c, 0, 44, 79
2, 69665, Control_c, 0, 64, 127
2, 69669, Note_on_c, 0, 51, 71
2, 69753, Note_on_c, 0, 56, 77
2, 69817, Note_on_c, 0, 60, 81
2, 69901, Note_on_c, 0, 63, 89
2, 70049, Note_on_c, 0, 84, 0
2, 70056, Note_on_c, 0, 72, 0
2, 70060, Note_on_c, 0, 84, 100
2, 70065, Note_on_c, 0, 72, 101
2, 70169, Control_c, 0, 64, 0
2, 70171, Note_on_c, 0, 56, 0
2, 70172, Note_on_c, 0, 60, 0
2, 70172, Note_on_c, 0, 63, 0
2, 70172, Note_on_c, 0, 51, 0
2, 70172, Note_on_c, 0, 72, 0
2, 70173, Note_on_c, 0, 84, 0
2, 70179, Note_on_c, 0, 44, 0
2, 70215, Note_on_c, 0, 84, 99
2, 70219, Note_on_c, 0, 72, 104
2, 70221, Note_on_c, 0, 80, 100
2, 70222, Note_on_c, 0, 75, 90
2, 70222, Note_on_c, 0, 44, 97
2, 70228, Note_on_c, 0, 56, 98
2, 70279, Control_c, 0, 64, 127
2, 70287, Note_on_c, 0, 56, 0
2, 70394, Note_on_c, 0, 44, 0
2, 70401, Control_c, 0, 64, 0
2, 70402, Note_on_c, 0, 72, 0
2, 70404, Note_on_c, 0, 80, 0
2, 70405, Note_on_c, 0, 84, 0
2, 70410, Note_on_c, 0, 75, 0
2, 70447, Note_on_c, 0, 82, 99
2, 70451, Note_on_c, 0, 75, 96
2, 70456, Note_on_c, 0, 70, 100
2, 70460, Note_on_c, 0, 58, 95
2, 70460, Note_on_c, 0, 46, 92
2, 70502, Control_c, 0, 64, 127
2, 70594, Note_on_c, 0, 58, 0
2, 70599, Control_c, 0, 64, 0
2, 70599, Note_on_c, 0, 46, 0
2, 70605, Note_on_c, 0, 82, 0
2, 70609, Note_on_c, 0, 70, 0
2, 70617, Note_on_c, 0, 75, 0
2, 70656, Control_c, 0, 64, 127
2, 70679, Note_on_c, 0, 80, 99
2, 70681, Note_on_c, 0, 75, 77
2, 70683, Note_on_c, 0, 68, 101
2, 70687, Note_on_c, 0, 44, 88
2, 70688, Note_on_c, 0, 56, 92
2, 70821, Control_c, 0, 64, 0
2, 70826, Note_on_c, 0, 80, 0
2, 70826, Note_on_c, 0, 68, 0
2, 70827, Note_on_c, 0, 44, 0
2, 70828, Note_on_c, 0, 75, 0
2, 70840, Note_on_c, 0, 56, 0
2, 70863, Note_on_c, 0, 79, 109
2, 70866, Note_on_c, 0, 74, 97
2, 70867, Note_on_c, 0, 67, 97
2, 70867, Note_on_c, 0, 71, 97
2, 70869, Note_on_c, 0, 43, 79
2, 70873, Note_on_c, 0, 31, 81
2, 70878, Note_on_c, 0, 31, 0
2, 70910, Note_on_c, 0, 43, 0
2, 70940, Control_c, 0, 64, 127
2, 71028, Note_on_c, 0, 30, 85
2, 71029, Note_on_c, 0, 42, 80
2, 71191, Note_on_c, 0, 43, 91
2, 71191, Note_on_c, 0, 31, 98
2, 71201, Note_on_c, 0, 42, 0
2, 71209, Note_on_c, 0, 71, 0
2, 71212, Note_on_c, 0, 30, 0
2, 71237, Note_on_c, 0, 31, 0
2, 71244, Control_c, 0, 64, 0
2, 71316, Note_on_c, 0, 43, 0
2, 71503, Note_on_c, 0, 51, 88
2, 71504, Note_on_c, 0, 39, 92
2, 71539, Note_on_c, 0, 67, 0
2, 71566, Note_on_c, 0, 51, 0
2, 71570, Note_on_c, 0, 39, 0
2, 71671, Note_on_c, 0, 50, 90
2, 71671, Note_on_c, 0, 38, 97
2, 71700, Control_c, 0, 64, 127
2, 71796, Control_c, 0, 64, 0
2, 71823, Note_on_c, 0, 38, 0
2, 71861, Note_on_c, 0, 50, 0
2, 71988, Note_on_c, 0, 34, 86
2, 71989, Note_on_c, 0, 46, 91
2, 71994, Note_on_c, 0, 82, 95
2, 71996, Note_on_c, 0, 70, 97
2, 72039, Note_on_c, 0, 34, 0
2, 72040, Note_on_c, 0, 46, 0
2, 72053, Note_on_c, 0, 74, 0
2, 72092, Note_on_c, 0, 79, 0
2, 72115, Note_on_c, 0, 70, 0
2, 72136, Note_on_c, 0, 35, 88
2, 72138, Note_on_c, 0, 47, 93
2, 72143, Note_on_c, 0, 83, 100
2, 72148, Note_on_c, 0, 71, 98
2, 72184, Control_c, 0, 64, 127
2, 72302, Note_on_c, 0, 86, 105
2, 72302, Note_on_c, 0, 38, 87
2, 72303, Note_on_c, 0, 50, 86
2, 72327, Note_on_c, 0, 81, 57
2, 72328, Note_on_c, 0, 84, 53
2, 72332, Note_on_c, 0, 72, 47
2, 72334, Note_on_c, 0, 78, 52
2, 72337, Note_on_c, 0, 72, 0
2, 72353, Note_on_c, 0, 82, 0
2, 72355, Note_on_c, 0, 71, 0
2, 72357, Note_on_c, 0, 83, 0
2, 72360, Note_on_c, 0, 38, 0
2, 72360, Control_c, 0, 64, 0
2, 72361, Note_on_c, 0, 35, 0
2, 72361, Note_on_c, 0, 78, 0
2, 72362, Note_on_c, 0, 86, 0
2, 72362, Note_on_c, 0, 50, 0
2, 72365, Note_on_c, 0, 84, 0
2, 72368, Note_on_c, 0, 47, 0
2, 72399, Note_on_c, 0, 81, 0
2, 72437, Control_c, 0, 64, 127
2, 72448, Note_on_c, 0, 92, 109
2, 72449, Note_on_c, 0, 80, 111
2, 72451, Note_on_c, 0, 56, 95
2, 72452, Note_on_c, 0, 44, 93
2, 72584, Note_on_c, 0, 87, 60
2, 72597, Control_c, 0, 64, 0
2, 72604, Note_on_c, 0, 80, 0
2, 72609, Note_on_c, 0, 44, 0
2, 72610, Note_on_c, 0, 92, 0
2, 72614, Note_on_c, 0, 56, 0
2, 72614, Note_on_c, 0, 87, 0
2, 72625, Note_on_c, 0, 91, 111
2, 72634, Note_on_c, 0, 83, 92
2, 72634, Note_on_c, 0, 79, 105
2, 72635, Note_on_c, 0, 55, 91
2, 72637, Note_on_c, 0, 43, 86
2, 72637, Note_on_c, 0, 86, 104
2, 72744, Control_c, 0, 64, 127
2, 72896, Control_c, 0, 64, 0
2, 72903, Note_on_c, 0, 86, 0
2, 72911, Note_on_c, 0, 43, 0
2, 72929, Note_on_c, 0, 79, 0
2, 72944, Note_on_c, 0, 55, 0
2, 72944, Note_on_c, 0, 83, 0
2, 72952, Note_on_c, 0, 91, 0
2, 72973, Note_on_c, 0, 79, 81
2, 73124, Note_on_c, 0, 84, 77
2, 73246, Note_on_c, 0, 79, 0
2, 73284, Note_on_c, 0, 87, 89
2, 73359, Control_c, 0, 64, 127
2, 73432, Note_on_c, 0, 91, 90
2, 73432, Note_on_c, 0, 48, 62
2, 73512, Note_on_c, 0, 87, 0
2, 73521, Note_on_c, 0, 87, 85
2, 73589, Note_on_c, 0, 84, 0
2, 73598, Note_on_c, 0, 84, 68
2, 73617, Note_on_c, 0, 67, 64
2, 73678, Note_on_c, 0, 79, 72
2, 73751, Note_on_c, 0, 91, 0
2, 73756, Note_on_c, 0, 91, 93
2, 73768, Note_on_c, 0, 63, 56
2, 73900, Note_on_c, 0, 87, 0
2, 73900, Note_on_c, 0, 84, 0
2, 73902, Note_on_c, 0, 67, 0
2, 73902, Note_on_c, 0, 79, 0
2, 73902, Control_c, 0, 64, 0
2, 73903, Note_on_c, 0, 63, 0
2, 73903, Note_on_c, 0, 91, 0
2, 73912, Note_on_c, 0, 48, 0
2, 73917, Note_on_c, 0, 89, 93
2, 73920, Note_on_c, 0, 48, 70
2, 73958, Control_c, 0, 64, 127
2, 74003, Note_on_c, 0, 87, 90
2, 74075, Note_on_c, 0, 84, 71
2, 74087, Note_on_c, 0, 67, 71
2, 74147, Note_on_c, 0, 79, 74
2, 74234, Note_on_c, 0, 89, 0
2, 74238, Note_on_c, 0, 89, 91
2, 74239, Note_on_c, 0, 63, 65
2, 74380, Note_on_c, 0, 87, 0
2, 74391, Note_on_c, 0, 87, 97
2, 74403, Note_on_c, 0, 48, 0
2, 74413, Note_on_c, 0, 48, 69
2, 74419, Note_on_c, 0, 67, 0
2, 74420, Control_c, 0, 64, 0
2, 74420, Note_on_c, 0, 63, 0
2, 74465, Control_c, 0, 64, 127
2, 74480, Note_on_c, 0, 84, 0
2, 74489, Note_on_c, 0, 84, 67
2, 74542, Note_on_c, 0, 79, 0
2, 74548, Note_on_c, 0, 79, 83
2, 74603, Note_on_c, 0, 84, 0
2, 74614, Note_on_c, 0, 84, 78
2, 74680, Note_on_c, 0, 89, 0
2, 74694, Control_c, 0, 64, 0
2, 74696, Note_on_c, 0, 84, 0
2, 74703, Note_on_c, 0, 48, 0
2, 74718, Note_on_c, 0, 85, 97
2, 74722, Note_on_c, 0, 43, 71
2, 74726, Note_on_c, 0, 87, 0
2, 74734, Note_on_c, 0, 79, 0
2, 74738, Note_on_c, 0, 79, 80
2, 74764, Control_c, 0, 64, 127
2, 74810, Note_on_c, 0, 86, 83
2, 74879, Note_on_c, 0, 87, 94
2, 74957, Note_on_c, 0, 88, 90
2, 75033, Note_on_c, 0, 86, 0
2, 75038, Note_on_c, 0, 86, 88
2, 75039, Note_on_c, 0, 59, 90
2, 75039, Note_on_c, 0, 89, 99
2, 75041, Note_on_c, 0, 79, 0
2, 75052, Note_on_c, 0, 79, 83
2, 75068, Note_on_c, 0, 87, 0
2, 75068, Note_on_c, 0, 85, 0
2, 75070, Note_on_c, 0, 88, 0
2, 75077, Control_c, 0, 64, 0
2, 75079, Note_on_c, 0, 43, 0
2, 75121, Note_on_c, 0, 62, 65
2, 75178, Note_on_c, 0, 65, 74
2, 75179, Control_c, 0, 64, 127
2, 75259, Note_on_c, 0, 67, 75
2, 75353, Note_on_c, 0, 71, 90
2, 75509, Note_on_c, 0, 79, 0
2, 75520, Note_on_c, 0, 79, 88
2, 75522, Note_on_c, 0, 67, 0
2, 75635, Note_on_c, 0, 89, 0
2, 75637, Control_c, 0, 64, 0
2, 75638, Note_on_c, 0, 59, 0
2, 75638, Note_on_c, 0, 65, 0
2, 75641, Note_on_c, 0, 71, 0
2, 75642, Note_on_c, 0, 62, 0
2, 75673, Note_on_c, 0, 83, 84
2, 75686, Note_on_c, 0, 86, 0
2, 75733, Note_on_c, 0, 79, 0
2, 75821, Note_on_c, 0, 86, 89
2, 75829, Note_on_c, 0, 83, 0
2, 75935, Note_on_c, 0, 86, 0
2, 75979, Note_on_c, 0, 89, 91
2, 75981, Note_on_c, 0, 43, 67
2, 76001, Control_c, 0, 64, 127
2, 76059, Note_on_c, 0, 86, 79
2, 76122, Note_on_c, 0, 83, 81
2, 76150, Note_on_c, 0, 65, 67
2, 76210, Note_on_c, 0, 79, 79
2, 76285, Note_on_c, 0, 89, 0
2, 76296, Note_on_c, 0, 62, 77
2, 76296, Note_on_c, 0, 89, 91
2, 76428, Note_on_c, 0, 86, 0
2, 76431, Note_on_c, 0, 83, 0
2, 76432, Note_on_c, 0, 79, 0
2, 76432, Note_on_c, 0, 62, 0
2, 76432, Note_on_c, 0, 65, 0
2, 76435, Control_c, 0, 64, 0
2, 76439, Note_on_c, 0, 43, 0
2, 76449, Note_on_c, 0, 43, 77
2, 76451, Note_on_c, 0, 87, 97
2, 76492, Note_on_c, 0, 89, 0
2, 76500, Control_c, 0, 64, 127
2, 76530, Note_on_c, 0, 86, 88
2, 76610, Note_on_c, 0, 83, 78
2, 76612, Note_on_c, 0, 65, 67
2, 76664, Note_on_c, 0, 79, 75
2, 76730, Note_on_c, 0, 87, 0
2, 76734, Note_on_c, 0, 87, 91
2, 76754, Note_on_c, 0, 62, 77
2, 76881, Note_on_c, 0, 87, 0
2, 76883, Note_on_c, 0, 62, 0
2, 76883, Note_on_c, 0, 79, 0
2, 76883, Note_on_c, 0, 65, 0
2, 76884, Note_on_c, 0, 83, 0
2, 76884, Control_c, 0, 64, 0
2, 76899, Note_on_c, 0, 43, 0
2, 76899, Note_on_c, 0, 86, 0
2, 76904, Note_on_c, 0, 86, 91
2, 76905, Note_on_c, 0, 43, 67
2, 76961, Control_c, 0, 64, 127
2, 76981, Note_on_c, 0, 83, 85
2, 77068, Note_on_c, 0, 79, 84
2, 77153, Note_on_c, 0, 86, 0
2, 77161, Note_on_c, 0, 86, 75
2, 77187, Note_on_c, 0, 43, 0
2, 77187, Note_on_c, 0, 83, 0
2, 77187, Control_c, 0, 64, 0
2, 77188, Note_on_c, 0, 79, 0
2, 77215, Note_on_c, 0, 48, 70
2, 77228, Note_on_c, 0, 84, 84
2, 77268, Control_c, 0, 64, 127
2, 77319, Note_on_c, 0, 83, 78
2, 77337, Note_on_c, 0, 86, 0
2, 77383, Note_on_c, 0, 84, 0
2, 77390, Note_on_c, 0, 84, 78
2, 77470, Note_on_c, 0, 86, 82
2, 77539, Note_on_c, 0, 60, 88
2, 77541, Note_on_c, 0, 87, 98
2, 77557, Note_on_c, 0, 84, 0
2, 77558, Note_on_c, 0, 83, 0
2, 77563, Note_on_c, 0, 48, 0
2, 77570, Note_on_c, 0, 86, 0
2, 77571, Control_c, 0, 64, 0
2, 77637, Control_c, 0, 64, 127
2, 77645, Note_on_c, 0, 62, 69
2, 77704, Note_on_c, 0, 63, 71
2, 77784, Note_on_c, 0, 67, 76
2, 77864, Note_on_c, 0, 72, 94
2, 78019, Note_on_c, 0, 79, 88
2, 78133, Note_on_c, 0, 72, 0
2, 78139, Note_on_c, 0, 63, 0
2, 78139, Note_on_c, 0, 87, 0
2, 78140, Note_on_c, 0, 67, 0
2, 78140, Note_on_c, 0, 62, 0
2, 78140, Note_on_c, 0, 60, 0
2, 78153, Control_c, 0, 64, 0
2, 78169, Note_on_c, 0, 84, 80
2, 78312, Note_on_c, 0, 79, 0
2, 78323, Note_on_c, 0, 79, 72
2, 78323, Note_on_c, 0, 87, 93
2, 78443, Note_on_c, 0, 79, 0
2, 78451, Note_on_c, 0, 87, 0
2, 78458, Note_on_c, 0, 84, 0
2, 78477, Note_on_c, 0, 48, 67
2, 78478, Note_on_c, 0, 91, 95
2, 78497, Control_c, 0, 64, 127
2, 78563, Note_on_c, 0, 87, 89
2, 78631, Note_on_c, 0, 67, 76
2, 78633, Note_on_c, 0, 84, 68
2, 78709, Note_on_c, 0, 79, 78
2, 78781, Note_on_c, 0, 91, 0
2, 78783, Note_on_c, 0, 63, 74
2, 78787, Note_on_c, 0, 91, 94
2, 78884, Note_on_c, 0, 48, 0
2, 78885, Note_on_c, 0, 67, 0
2, 78885, Note_on_c, 0, 84, 0
2, 78885, Note_on_c, 0, 79, 0
2, 78885, Note_on_c, 0, 91, 0
2, 78885, Note_on_c, 0, 87, 0
2, 78886, Note_on_c, 0, 63, 0
2, 78887, Control_c, 0, 64, 0
2, 78931, Note_on_c, 0, 48, 70
2, 78932, Note_on_c, 0, 89, 93
2, 78950, Control_c, 0, 64, 127
2, 79007, Note_on_c, 0, 87, 87
2, 79065, Note_on_c, 0, 84, 72
2, 79097, Note_on_c, 0, 67, 73
2, 79139, Note_on_c, 0, 79, 80
2, 79234, Note_on_c, 0, 89, 0
2, 79236, Note_on_c, 0, 63, 70
2, 79239, Note_on_c, 0, 89, 91
2, 79372, Note_on_c, 0, 48, 0
2, 79382, Note_on_c, 0, 91, 103
2, 79383, Note_on_c, 0, 89, 0
2, 79383, Note_on_c, 0, 67, 0
2, 79384, Note_on_c, 0, 87, 0
2, 79384, Note_on_c, 0, 84, 0
2, 79384, Note_on_c, 0, 48, 71
2, 79384, Note_on_c, 0, 63, 0
2, 79391, Control_c, 0, 64, 0
2, 79430, Note_on_c, 0, 48, 0
2, 79449, Control_c, 0, 64, 127
2, 79478, Note_on_c, 0, 87, 91
2, 79533, Note_on_c, 0, 84, 72
2, 79572, Note_on_c, 0, 79, 0
2, 79577, Note_on_c, 0, 79, 85
2, 79655, Note_on_c, 0, 87, 0
2, 79656, Note_on_c, 0, 84, 0
2, 79658, Note_on_c, 0, 91, 0
2, 79659, Note_on_c, 0, 79, 0
2, 79661, Control_c, 0, 64, 0
2, 79679, Note_on_c, 0, 94, 106
2, 79680, Note_on_c, 0, 85, 100
2, 79684, Note_on_c, 0, 41, 71
2, 79726, Control_c, 0, 64, 127
2, 79789, Note_on_c, 0, 86, 95
2, 79890, Note_on_c, 0, 87, 92
2, 80002, Note_on_c, 0, 41, 0
2, 80012, Note_on_c, 0, 53, 81
2, 80013, Note_on_c, 0, 41, 76
2, 80018, Note_on_c, 0, 92, 104
2, 80021, Note_on_c, 0, 86, 0
2, 80023, Note_on_c, 0, 84, 85
2, 80023, Note_on_c, 0, 94, 0
2, 80024, Note_on_c, 0, 85, 0
2, 80026, Note_on_c, 0, 87, 0
2, 80030, Control_c, 0, 64, 0
2, 80094, Note_on_c, 0, 41, 0
2, 80110, Control_c, 0, 64, 127
2, 80112, Note_on_c, 0, 55, 66
2, 80171, Note_on_c, 0, 56, 77
2, 80250, Note_on_c, 0, 60, 84
2, 80316, Control_c, 0, 64, 0
2, 80321, Note_on_c, 0, 65, 84
2, 80321, Note_on_c, 0, 84, 0
2, 80322, Note_on_c, 0, 55, 0
2, 80324, Note_on_c, 0, 56, 0
2, 80324, Note_on_c, 0, 60, 0
2, 80325, Note_on_c, 0, 53, 0
2, 80471, Note_on_c, 0, 92, 0
2, 80475, Note_on_c, 0, 92, 97
2, 80477, Note_on_c, 0, 80, 92
2, 80524, Note_on_c, 0, 65, 0
2, 80529, Note_on_c, 0, 92, 0
2, 80533, Note_on_c, 0, 80, 0
2, 80629, Note_on_c, 0, 91, 96
2, 80635, Note_on_c, 0, 79, 85
2, 80671, Note_on_c, 0, 91, 0
2, 80674, Note_on_c, 0, 79, 0
2, 80788, Note_on_c, 0, 89, 89
2, 80789, Note_on_c, 0, 77, 87
2, 80831, Note_on_c, 0, 77, 0
2, 80837, Note_on_c, 0, 89, 0
2, 80936, Note_on_c, 0, 91, 101
2, 80937, Note_on_c, 0, 43, 77
2, 80937, Note_on_c, 0, 55, 73
2, 80943, Note_on_c, 0, 87, 92
2, 80944, Note_on_c, 0, 79, 89
2, 80947, Note_on_c, 0, 84, 66
2, 80962, Control_c, 0, 64, 127
2, 81102, Note_on_c, 0, 67, 80
2, 81235, Note_on_c, 0, 62, 86
2, 81268, Note_on_c, 0, 89, 101
2, 81273, Note_on_c, 0, 86, 93
2, 81275, Note_on_c, 0, 77, 92
2, 81279, Note_on_c, 0, 83, 78
2, 81400, Note_on_c, 0, 43, 0
2, 81400, Note_on_c, 0, 55, 0
2, 81410, Note_on_c, 0, 55, 84
2, 81410, Note_on_c, 0, 43, 83
2, 81505, Note_on_c, 0, 86, 0
2, 81506, Note_on_c, 0, 67, 0
2, 81507, Note_on_c, 0, 79, 0
2, 81508, Note_on_c, 0, 83, 0
2, 81508, Note_on_c, 0, 91, 0
2, 81508, Note_on_c, 0, 77, 0
2, 81510, Note_on_c, 0, 55, 0
2, 81511, Note_on_c, 0, 87, 0
2, 81511, Note_on_c, 0, 62, 0
2, 81511, Note_on_c, 0, 89, 0
2, 81512, Note_on_c, 0, 43, 0
2, 81515, Note_on_c, 0, 84, 0
2, 81534, Control_c, 0, 64, 0
2, 81565, Note_on_c, 0, 87, 95
2, 81565, Note_on_c, 0, 75, 90
2, 81568, Note_on_c, 0, 84, 80
2, 81570, Note_on_c, 0, 79, 83
2, 81572, Note_on_c, 0, 45, 86
2, 81572, Note_on_c, 0, 57, 84
2, 81617, Note_on_c, 0, 57, 0
2, 81618, Note_on_c, 0, 45, 0
2, 81618, Note_on_c, 0, 84, 0
2, 81620, Note_on_c, 0, 79, 0
2, 81621, Note_on_c, 0, 75, 0
2, 81633, Note_on_c, 0, 87, 0
2, 81731, Note_on_c, 0, 79, 94
2, 81733, Note_on_c, 0, 86, 99
2, 81734, Note_on_c, 0, 59, 94
2, 81734, Note_on_c, 0, 47, 90
2, 81734, Note_on_c, 0, 74, 94
2, 81788, Note_on_c, 0, 79, 0
2, 81818, Note_on_c, 0, 74, 0
2, 81819, Note_on_c, 0, 86, 0
2, 81827, Note_on_c, 0, 47, 0
2, 81853, Note_on_c, 0, 59, 0
2, 82076, Note_on_c, 0, 84, 95
2, 82079, Note_on_c, 0, 79, 91
2, 82080, Note_on_c, 0, 72, 94
2, 82080, Note_on_c, 0, 60, 89
2, 82080, Note_on_c, 0, 75, 87
2, 82082, Note_on_c, 0, 48, 78
2, 82114, Control_c, 0, 64, 127
2, 82391, Note_on_c, 0, 60, 0
2, 82397, Note_on_c, 0, 60, 90
2, 82556, Note_on_c, 0, 55, 72
2, 82612, Control_c, 0, 64, 0
2, 82615, Note_on_c, 0, 55, 0
2, 82617, Note_on_c, 0, 75, 0
2, 82617, Note_on_c, 0, 60, 0
2, 82618, Note_on_c, 0, 48, 0
2, 82618, Note_on_c, 0, 84, 0
2, 82618, Note_on_c, 0, 79, 0
2, 82715, Note_on_c, 0, 36, 78
2, 82715, Note_on_c, 0, 48, 74
2, 83009, Note_on_c, 0, 80, 101
2, 83011, Note_on_c, 0, 68, 95
2, 83043, Note_on_c, 0, 72, 0
2, 83048, Note_on_c, 0, 68, 0
2, 83050, Note_on_c, 0, 48, 0
2, 83055, Note_on_c, 0, 80, 0
2, 83059, Note_on_c, 0, 36, 0
2, 83163, Note_on_c, 0, 79, 101
2, 83167, Note_on_c, 0, 67, 88
2, 83201, Note_on_c, 0, 79, 0
2, 83201, Note_on_c, 0, 67, 0
2, 83320, Note_on_c, 0, 77, 99
2, 83320, Note_on_c, 0, 65, 95
2, 83358, Note_on_c, 0, 65, 0
2, 83365, Note_on_c, 0, 77, 0
2, 83463, Note_on_c, 0, 55, 95
2, 83464, Note_on_c, 0, 43, 88
2, 83465, Note_on_c, 0, 79, 108
2, 83469, Note_on_c, 0, 67, 99
2, 83469, Note_on_c, 0, 72, 100
2, 83470, Note_on_c, 0, 75, 93
2, 83498, Note_on_c, 0, 55, 0
2, 83573, Note_on_c, 0, 43, 0
2, 83596, Note_on_c, 0, 72, 0
2, 83606, Note_on_c, 0, 75, 0
2, 83607, Note_on_c, 0, 79, 0
2, 83627, Note_on_c, 0, 67, 0
2, 83631, Note_on_c, 0, 43, 83
2, 83631, Note_on_c, 0, 31, 87
2, 83662, Note_on_c, 0, 43, 0
2, 83662, Note_on_c, 0, 31, 0
2, 83792, Note_on_c, 0, 77, 106
2, 83793, Note_on_c, 0, 74, 93
2, 83794, Note_on_c, 0, 71, 92
2, 83795, Note_on_c, 0, 65, 93
2, 83938, Note_on_c, 0, 31, 91
2, 84023, Note_on_c, 0, 43, 69
2, 84029, Note_on_c, 0, 71, 0
2, 84030, Note_on_c, 0, 65, 0
2, 84030, Note_on_c, 0, 74, 0
2, 84030, Note_on_c, 0, 77, 0
2, 84031, Note_on_c, 0, 31, 0
2, 84080, Note_on_c, 0, 43, 0
2, 84105, Note_on_c, 0, 75, 99
2, 84108, Note_on_c, 0, 72, 96
2, 84111, Note_on_c, 0, 67, 88
2, 84113, Note_on_c, 0, 33, 87
2, 84113, Note_on_c, 0, 63, 89
2, 84158, Note_on_c, 0, 67, 0
2, 84177, Note_on_c, 0, 45, 79
2, 84195, Note_on_c, 0, 63, 0
2, 84217, Note_on_c, 0, 75, 0
2, 84218, Note_on_c, 0, 72, 0
2, 84224, Note_on_c, 0, 45, 0
2, 84249, Note_on_c, 0, 33, 0
2, 84268, Note_on_c, 0, 47, 91
2, 84280, Note_on_c, 0, 74, 103
2, 84283, Note_on_c, 0, 62, 98
2, 84284, Note_on_c, 0, 67, 96
2, 84286, Note_on_c, 0, 71, 88
2, 84330, Note_on_c, 0, 62, 0
2, 84332, Note_on_c, 0, 67, 0
2, 84332, Note_on_c, 0, 47, 0
2, 84333, Note_on_c, 0, 71, 0
2, 84337, Note_on_c, 0, 74, 0
2, 84599, Note_on_c, 0, 72, 105
2, 84599, Note_on_c, 0, 60, 97
2, 84606, Note_on_c, 0, 67, 92
2, 84606, Note_on_c, 0, 63, 85
2, 84607, Note_on_c, 0, 36, 81
2, 84639, Note_on_c, 0, 60, 0
2, 84664, Control_c, 0, 64, 127
2, 84679, Note_on_c, 0, 63, 0
2, 84922, Note_on_c, 0, 48, 69
2, 84924, Note_on_c, 0, 60, 93
2, 84983, Note_on_c, 0, 55, 79
2, 85071, Note_on_c, 0, 48, 0
2, 85075, Note_on_c, 0, 48, 76
2, 85143, Note_on_c, 0, 48, 0
2, 85143, Note_on_c, 0, 55, 0
2, 85143, Note_on_c, 0, 43, 76
2, 85143, Note_on_c, 0, 60, 0
2, 85144, Note_on_c, 0, 72, 0
2, 85144, Control_c, 0, 64, 0
2, 85155, Note_on_c, 0, 67, 0
2, 85163, Note_on_c, 0, 36, 0
2, 85224, Control_c, 0, 64, 127
2, 85239, Note_on_c, 0, 36, 91
2, 85560, Note_on_c, 0, 92, 110
2, 85562, Note_on_c, 0, 80, 105
2, 85588, Control_c, 0, 64, 0
2, 85592, Note_on_c, 0, 36, 0
2, 85593, Note_on_c, 0, 43, 0
2, 85613, Note_on_c, 0, 80, 0
2, 85701, Note_on_c, 0, 92, 0
2, 85718, Note_on_c, 0, 91, 105
2, 85720, Note_on_c, 0, 79, 104
2, 85755, Note_on_c, 0, 91, 0
2, 85756, Note_on_c, 0, 79, 0
2, 85864, Note_on_c, 0, 89, 104
2, 85865, Note_on_c, 0, 77, 106
2, 85908, Note_on_c, 0, 77, 0
2, 85920, Note_on_c, 0, 89, 0
2, 86021, Note_on_c, 0, 55, 103
2, 86023, Note_on_c, 0, 91, 109
2, 86026, Note_on_c, 0, 79, 109
2, 86026, Note_on_c, 0, 43, 97
2, 86027, Note_on_c, 0, 86, 104
2, 86027, Note_on_c, 0, 83, 94
2, 86039, Control_c, 0, 64, 127
2, 86126, Note_on_c, 0, 55, 0
2, 86127, Control_c, 0, 64, 0
2, 86134, Note_on_c, 0, 43, 0
2, 86135, Note_on_c, 0, 83, 0
2, 86138, Note_on_c, 0, 91, 0
2, 86142, Note_on_c, 0, 79, 0
2, 86142, Note_on_c, 0, 86, 0
2, 86346, Note_on_c, 0, 86, 96
2, 86347, Note_on_c, 0, 92, 108
2, 86349, Note_on_c, 0, 80, 105
2, 86349, Note_on_c, 0, 53, 93
2, 86350, Note_on_c, 0, 41, 89
2, 86352, Note_on_c, 0, 84, 88
2, 86357, Note_on_c, 0, 83, 94
2, 86384, Control_c, 0, 64, 127
2, 86513, Note_on_c, 0, 83, 0
2, 86513, Note_on_c, 0, 80, 0
2, 86514, Control_c, 0, 64, 0
2, 86514, Note_on_c, 0, 86, 0
2, 86515, Note_on_c, 0, 53, 0
2, 86515, Note_on_c, 0, 41, 0
2, 86516, Note_on_c, 0, 92, 0
2, 86530, Note_on_c, 0, 84, 0
2, 86665, Note_on_c, 0, 93, 107
2, 86667, Note_on_c, 0, 81, 98
2, 86668, Note_on_c, 0, 87, 97
2, 86669, Note_on_c, 0, 39, 93
2, 86670, Note_on_c, 0, 84, 85
2, 86718, Note_on_c, 0, 84, 0
2, 86720, Note_on_c, 0, 93, 0
2, 86721, Note_on_c, 0, 81, 0
2, 86727, Note_on_c, 0, 87, 0
2, 86730, Note_on_c, 0, 39, 0
2, 86828, Note_on_c, 0, 95, 110
2, 86831, Note_on_c, 0, 86, 99
2, 86832, Note_on_c, 0, 38, 96
2, 86833, Note_on_c, 0, 83, 104
2, 86834, Note_on_c, 0, 91, 88
2, 86898, Note_on_c, 0, 91, 0
2, 86902, Note_on_c, 0, 95, 0
2, 86902, Note_on_c, 0, 38, 0
2, 86903, Note_on_c, 0, 83, 0
2, 86903, Note_on_c, 0, 86, 0
2, 87158, Note_on_c, 0, 96, 111
2, 87163, Note_on_c, 0, 84, 101
2, 87163, Note_on_c, 0, 91, 97
2, 87163, Note_on_c, 0, 36, 88
2, 87164, Note_on_c, 0, 87, 98
2, 87191, Control_c, 0, 64, 127
2, 87404, Note_on_c, 0, 36, 0
2, 87408, Note_on_c, 0, 96, 0
2, 87409, Control_c, 0, 64, 0
2, 87409, Note_on_c, 0, 84, 0
2, 87482, Note_on_c, 0, 24, 95
2, 87482, Note_on_c, 0, 36, 87
2, 87524, Note_on_c, 0, 36, 0
2, 87559, Note_on_c, 0, 91, 0
2, 87590, Note_on_c, 0, 24, 0
2, 87720, Note_on_c, 0, 87, 0
2, 87801, Note_on_c, 0, 24, 95
2, 87802, Note_on_c, 0, 36, 87
2, 87866, Control_c, 0, 64, 127
2, 88143, Note_on_c, 0, 36, 0
2, 88151, Note_on_c, 0, 24, 0
2, 88151, Control_c, 0, 64, 0
2, 88371, Note_on_c, 0, 36, 75
2, 88396, Control_c, 0, 64, 127
2, 88419, Note_on_c, 0, 36, 0
2, 88483, Note_on_c, 0, 74, 107
2, 88485, Note_on_c, 0, 71, 96
2, 88486, Note_on_c, 0, 62, 100
2, 88491, Note_on_c, 0, 67, 96
2, 88494, Note_on_c, 0, 55, 92
2, 88509, Note_on_c, 0, 51, 81
2, 92087, Control_c, 0, 64, 0
2, 92088, Note_on_c, 0, 62, 0
2, 92089, Note_on_c, 0, 67, 0
2, 92090, Note_on_c, 0, 71, 0
2, 92090, Note_on_c, 0, 51, 0
2, 92092, Note_on_c, 0, 74, 0
2, 92113, Note_on_c, 0, 55, 0
2, 92114, End_track
0, 0, End_of_file
