0, 0, Header, 1, 2, 384
1, 0, Start_track
1, 0, Tempo, 500000
1, 0, Time_signature, 4, 2, 24, 8
1, 1, End_track
2, 0, Start_track
2, 92, Control_c, 0, 64, 127
2, 1780, Note_on_c, 0, 72, 55
2, 1938, Note_on_c, 0, 67, 56
2, 2058, Note_on_c, 0, 72, 0
2, 2062, Note_on_c, 0, 72, 53
2, 2207, Note_on_c, 0, 79, 76
2, 2327, Note_on_c, 0, 72, 0
2, 2336, Note_on_c, 0, 72, 57
2, 2472, Note_on_c, 0, 67, 0
2, 2484, Note_on_c, 0, 67, 55
2, 2603, Note_on_c, 0, 72, 0
2, 2610, Note_on_c, 0, 72, 55
2, 2734, Note_on_c, 0, 79, 0
2, 2739, Note_on_c, 0, 79, 71
2, 2864, Note_on_c, 0, 72, 0
2, 2872, Note_on_c, 0, 72, 60
2, 3002, Note_on_c, 0, 67, 0
2, 3011, Note_on_c, 0, 67, 59
2, 3141, Note_on_c, 0, 72, 0
2, 3144, Note_on_c, 0, 72, 50
2, 3264, Note_on_c, 0, 79, 0
2, 3274, Note_on_c, 0, 79, 76
2, 3409, Note_on_c, 0, 72, 0
2, 3414, Note_on_c, 0, 72, 55
2, 3555, Note_on_c, 0, 67, 0
2, 3563, Note_on_c, 0, 67, 56
2, 3678, Note_on_c, 0, 72, 0
2, 3682, Note_on_c, 0, 72, 52
2, 3809, Note_on_c, 0, 79, 0
2, 3815, Note_on_c, 0, 79, 75
2, 3912, Note_on_c, 0, 67, 0
2, 3913, Note_on_c, 0, 72, 0
2, 3915, Control_c, 0, 64, 0
2, 3958, Note_on_c, 0, 71, 71
2, 3978, Control_c, 0, 64, 127
2, 4082, Note_on_c, 0, 67, 62
2, 4208, Note_on_c, 0, 71, 0
2, 4220, Note_on_c, 0, 71, 66
2, 4339, Note_on_c, 0, 79, 0
2, 4350, Note_on_c, 0, 79, 77
2, 4477, Note_on_c, 0, 71, 0
2, 4483, Note_on_c, 0, 71, 66
2, 4608, Note_on_c, 0, 67, 0
2, 4617, Note_on_c, 0, 67, 56
2, 4730, Note_on_c, 0, 71, 0
2, 4735, Note_on_c, 0, 71, 62
2, 4869, Note_on_c, 0, 79, 0
2, 4873, Note_on_c, 0, 79, 68
2, 5007, Note_on_c, 0, 71, 0
2, 5017, Note_on_c, 0, 71, 63
2, 5145, Note_on_c, 0, 67, 0
2, 5152, Note_on_c, 0, 67, 37
2, 5260, Note_on_c, 0, 71, 0
2, 5269, Note_on_c, 0, 71, 57
2, 5391, Note_on_c, 0, 79, 0
2, 5399, Note_on_c, 0, 79, 71
2, 5537, Note_on_c, 0, 71, 0
2, 5542, Note_on_c, 0, 71, 63
2, 5660, Note_on_c, 0, 67, 0
2, 5665, Note_on_c, 0, 67, 60
2, 5783, Note_on_c, 0, 71, 0
2, 5787, Note_on_c, 0, 71, 66
2, 5921, Note_on_c, 0, 79, 0
2, 5930, Note_on_c, 0, 79, 68
2, 6025, Note_on_c, 0, 67, 0
2, 6026, Note_on_c, 0, 71, 0
2, 6029, Control_c, 0, 64, 0
2, 6057, Note_on_c, 0, 69, 62
2, 6090, Control_c, 0, 64, 127
2, 6190, Note_on_c, 0, 67, 67
2, 6312, Note_on_c, 0, 69, 0
2, 6324, Note_on_c, 0, 69, 59
2, 6443, Note_on_c, 0, 79, 0
2, 6448, Note_on_c, 0, 79, 76
2, 6574, Note_on_c, 0, 69, 0
2, 6582, Note_on_c, 0, 69, 63
2, 6696, Note_on_c, 0, 67, 0
2, 6706, Note_on_c, 0, 67, 64
2, 6827, Note_on_c, 0, 69, 0
2, 6832, Note_on_c, 0, 69, 63
2, 6965, Note_on_c, 0, 79, 0
2, 6976, Note_on_c, 0, 79, 75
2, 7104, Note_on_c, 0, 69, 0
2, 7115, Note_on_c, 0, 69, 60
2, 7234, Note_on_c, 0, 67, 0
2, 7239, Note_on_c, 0, 67, 64
2, 7357, Note_on_c, 0, 69, 0
2, 7365, Note_on_c, 0, 69, 60
2, 7503, Note_on_c, 0, 79, 0
2, 7508, Note_on_c, 0, 79, 70
2, 7633, Note_on_c, 0, 69, 0
2, 7638, Note_on_c, 0, 69, 58
2, 7756, Note_on_c, 0, 67, 0
2, 7764, Note_on_c, 0, 67, 66
2, 7902, Note_on_c, 0, 69, 0
2, 7913, Note_on_c, 0, 69, 57
2, 8048, Note_on_c, 0, 79, 0
2, 8053, Note_on_c, 0, 79, 69
2, 8150, Note_on_c, 0, 69, 0
2, 8151, Note_on_c, 0, 67, 0
2, 8154, Control_c, 0, 64, 0
2, 8166, Note_on_c, 0, 71, 71
2, 8209, Control_c, 0, 64, 127
2, 8297, Note_on_c, 0, 67, 64
2, 8424, Note_on_c, 0, 71, 0
2, 8430, Note_on_c, 0, 71, 63
2, 8555, Note_on_c, 0, 79, 0
2, 8561, Note_on_c, 0, 79, 73
2, 8678, Note_on_c, 0, 71, 0
2, 8685, Note_on_c, 0, 71, 66
2, 8824, Note_on_c, 0, 67, 0
2, 8829, Note_on_c, 0, 67, 58
2, 8947, Note_on_c, 0, 71, 0
2, 8952, Note_on_c, 0, 71, 68
2, 9085, Note_on_c, 0, 79, 0
2, 9095, Note_on_c, 0, 79, 71
2, 9208, Note_on_c, 0, 71, 0
2, 9213, Note_on_c, 0, 71, 65
2, 9354, Note_on_c, 0, 67, 0
2, 9359, Note_on_c, 0, 67, 60
2, 9477, Note_on_c, 0, 71, 0
2, 9487, Note_on_c, 0, 71, 64
2, 9615, Note_on_c, 0, 79, 0
2, 9619, Note_on_c, 0, 79, 62
2, 9745, Note_on_c, 0, 71, 0
2, 9756, Note_on_c, 0, 71, 60
2, 9868, Note_on_c, 0, 67, 0
2, 9876, Note_on_c, 0, 67, 56
2, 10005, Note_on_c, 0, 55, 77
2, 10007, Note_on_c, 0, 71, 0
2, 10011, Note_on_c, 0, 71, 54
2, 10160, Note_on_c, 0, 79, 0
2, 10171, Note_on_c, 0, 79, 46
2, 10271, Control_c, 0, 64, 0
2, 10293, Note_on_c, 0, 60, 82
2, 10296, Note_on_c, 0, 53, 73
2, 10319, Note_on_c, 0, 79, 0
2, 10321, Control_c, 0, 64, 127
2, 10330, Note_on_c, 0, 55, 0
2, 10331, Note_on_c, 0, 67, 0
2, 10337, Note_on_c, 0, 71, 0
2, 10337, Control_c, 0, 64, 0
2, 10429, Control_c, 0, 64, 127
2, 10431, Note_on_c, 0, 67, 48
2, 10547, Note_on_c, 0, 72, 50
2, 10570, Note_on_c, 0, 59, 77
2, 10685, Note_on_c, 0, 79, 67
2, 10694, Note_on_c, 0, 57, 75
2, 10702, Note_on_c, 0, 69, 61
2, 10813, Note_on_c, 0, 72, 0
2, 10819, Note_on_c, 0, 72, 53
2, 10959, Note_on_c, 0, 67, 0
2, 10969, Note_on_c, 0, 55, 76
2, 10970, Note_on_c, 0, 67, 61
2, 11082, Note_on_c, 0, 72, 0
2, 11087, Note_on_c, 0, 72, 56
2, 11212, Note_on_c, 0, 55, 0
2, 11222, Note_on_c, 0, 55, 74
2, 11235, Control_c, 0, 64, 0
2, 11235, Note_on_c, 0, 79, 0
2, 11237, Note_on_c, 0, 67, 0
2, 11237, Note_on_c, 0, 69, 0
2, 11238, Note_on_c, 0, 72, 0
2, 11238, Note_on_c, 0, 57, 0
2, 11238, Note_on_c, 0, 59, 0
2, 11238, Note_on_c, 0, 53, 0
2, 11239, Note_on_c, 0, 60, 0
2, 11239, Note_on_c, 0, 79, 72
2, 11312, Control_c, 0, 64, 127
2, 11361, Note_on_c, 0, 72, 55
2, 11509, Note_on_c, 0, 67, 52
2, 11627, Note_on_c, 0, 72, 0
2, 11632, Note_on_c, 0, 72, 53
2, 11750, Note_on_c, 0, 79, 0
2, 11761, Note_on_c, 0, 79, 69
2, 11880, Note_on_c, 0, 72, 0
2, 11885, Note_on_c, 0, 72, 51
2, 12019, Note_on_c, 0, 67, 0
2, 12028, Note_on_c, 0, 67, 55
2, 12142, Note_on_c, 0, 72, 0
2, 12146, Note_on_c, 0, 72, 59
2, 12272, Note_on_c, 0, 79, 0
2, 12283, Note_on_c, 0, 79, 67
2, 12406, Note_on_c, 0, 74, 65
2, 12407, Note_on_c, 0, 43, 61
2, 12426, Note_on_c, 0, 55, 0
2, 12549, Note_on_c, 0, 67, 0
2, 12553, Note_on_c, 0, 67, 56
2, 12672, Note_on_c, 0, 74, 0
2, 12682, Note_on_c, 0, 74, 53
2, 12810, Note_on_c, 0, 79, 0
2, 12816, Note_on_c, 0, 79, 64
2, 12940, Note_on_c, 0, 72, 0
2, 12950, Note_on_c, 0, 72, 60
2, 13079, Note_on_c, 0, 67, 0
2, 13090, Note_on_c, 0, 67, 48
2, 13194, Note_on_c, 0, 72, 0
2, 13198, Note_on_c, 0, 72, 61
2, 13332, Note_on_c, 0, 79, 0
2, 13343, Note_on_c, 0, 79, 52
2, 13452, Note_on_c, 0, 74, 0
2, 13454, Note_on_c, 0, 72, 0
2, 13454, Note_on_c, 0, 67, 0
2, 13455, Note_on_c, 0, 79, 0
2, 13455, Control_c, 0, 64, 0
2, 13459, Note_on_c, 0, 50, 79
2, 13465, Note_on_c, 0, 71, 64
2, 13539, Control_c, 0, 64, 127
2, 13589, Note_on_c, 0, 67, 58
2, 13685, Note_on_c, 0, 71, 0
2, 13697, Note_on_c, 0, 71, 57
2, 13853, Note_on_c, 0, 52, 79
2, 13856, Note_on_c, 0, 79, 70
2, 14000, Note_on_c, 0, 72, 57
2, 14131, Note_on_c, 0, 67, 0
2, 14142, Note_on_c, 0, 67, 56
2, 14255, Note_on_c, 0, 53, 85
2, 14407, Note_on_c, 0, 79, 0
2, 14418, Note_on_c, 0, 79, 66
2, 14492, Control_c, 0, 64, 0
2, 14502, Note_on_c, 0, 71, 0
2, 14503, Note_on_c, 0, 50, 0
2, 14504, Note_on_c, 0, 67, 0
2, 14510, Note_on_c, 0, 53, 0
2, 14515, Note_on_c, 0, 43, 0
2, 14515, Note_on_c, 0, 52, 0
2, 14522, Note_on_c, 0, 72, 0
2, 14525, Note_on_c, 0, 52, 75
2, 14526, Note_on_c, 0, 45, 70
2, 14530, Note_on_c, 0, 72, 61
2, 14630, Control_c, 0, 64, 127
2, 14673, Note_on_c, 0, 67, 51
2, 14776, Note_on_c, 0, 72, 0
2, 14786, Note_on_c, 0, 72, 63
2, 14802, Note_on_c, 0, 53, 73
2, 14906, Note_on_c, 0, 79, 0
2, 14914, Note_on_c, 0, 52, 0
2, 14917, Note_on_c, 0, 79, 74
2, 14919, Note_on_c, 0, 52, 69
2, 14925, Note_on_c, 0, 67, 0
2, 14927, Control_c, 0, 64, 0
2, 14928, Note_on_c, 0, 53, 0
2, 14945, Note_on_c, 0, 72, 0
2, 15022, Control_c, 0, 64, 127
2, 15059, Note_on_c, 0, 72, 53
2, 15202, Note_on_c, 0, 67, 61
2, 15203, Note_on_c, 0, 53, 75
2, 15321, Note_on_c, 0, 72, 0
2, 15332, Note_on_c, 0, 72, 54
2, 15459, Note_on_c, 0, 79, 0
2, 15462, Note_on_c, 0, 52, 0
2, 15463, Note_on_c, 0, 53, 0
2, 15463, Note_on_c, 0, 72, 0
2, 15464, Note_on_c, 0, 55, 72
2, 15464, Note_on_c, 0, 67, 0
2, 15464, Control_c, 0, 64, 0
2, 15466, Note_on_c, 0, 79, 76
2, 15552, Note_on_c, 0, 45, 0
2, 15559, Control_c, 0, 64, 127
2, 15602, Note_on_c, 0, 72, 56
2, 15753, Note_on_c, 0, 67, 47
2, 15859, Note_on_c, 0, 72, 0
2, 15868, Note_on_c, 0, 72, 49
2, 15974, Note_on_c, 0, 79, 0
2, 15984, Note_on_c, 0, 79, 77
2, 16104, Note_on_c, 0, 72, 0
2, 16113, Note_on_c, 0, 72, 56
2, 16250, Note_on_c, 0, 67, 0
2, 16260, Note_on_c, 0, 67, 51
2, 16373, Note_on_c, 0, 72, 0
2, 16379, Note_on_c, 0, 72, 45
2, 16496, Note_on_c, 0, 79, 0
2, 16501, Note_on_c, 0, 79, 72
2, 16629, Note_on_c, 0, 74, 68
2, 16630, Note_on_c, 0, 40, 54
2, 16641, Note_on_c, 0, 72, 0
2, 16642, Note_on_c, 0, 67, 0
2, 16642, Control_c, 0, 64, 0
2, 16643, Note_on_c, 0, 79, 0
2, 16657, Note_on_c, 0, 55, 0
2, 16727, Control_c, 0, 64, 127
2, 16782, Note_on_c, 0, 67, 61
2, 16888, Note_on_c, 0, 74, 0
2, 16893, Note_on_c, 0, 74, 56
2, 17019, Note_on_c, 0, 79, 68
2, 17166, Note_on_c, 0, 72, 64
2, 17287, Note_on_c, 0, 67, 0
2, 17294, Note_on_c, 0, 67, 56
2, 17410, Note_on_c, 0, 72, 0
2, 17415, Note_on_c, 0, 72, 62
2, 17541, Note_on_c, 0, 79, 0
2, 17550, Note_on_c, 0, 79, 68
2, 17682, Note_on_c, 0, 48, 79
2, 17683, Note_on_c, 0, 71, 76
2, 17809, Note_on_c, 0, 67, 0
2, 17818, Note_on_c, 0, 67, 59
2, 17932, Note_on_c, 0, 71, 0
2, 17939, Note_on_c, 0, 71, 67
2, 17971, Note_on_c, 0, 67, 0
2, 17980, Note_on_c, 0, 67, 27
2, 18084, Note_on_c, 0, 52, 85
2, 18086, Note_on_c, 0, 79, 0
2, 18097, Note_on_c, 0, 79, 73
2, 18240, Note_on_c, 0, 72, 0
2, 18248, Note_on_c, 0, 72, 58
2, 18362, Note_on_c, 0, 67, 0
2, 18373, Note_on_c, 0, 67, 61
2, 18458, Note_on_c, 0, 55, 91
2, 18478, Note_on_c, 0, 72, 0
2, 18485, Note_on_c, 0, 72, 62
2, 18631, Note_on_c, 0, 79, 0
2, 18635, Note_on_c, 0, 79, 68
2, 18733, Control_c, 0, 64, 0
2, 18735, Note_on_c, 0, 74, 0
2, 18735, Note_on_c, 0, 71, 0
2, 18735, Note_on_c, 0, 79, 0
2, 18735, Note_on_c, 0, 55, 0
2, 18735, Note_on_c, 0, 52, 0
2, 18735, Note_on_c, 0, 67, 0
2, 18737, Note_on_c, 0, 48, 0
2, 18738, Note_on_c, 0, 60, 85
2, 18739, Note_on_c, 0, 40, 0
2, 18739, Note_on_c, 0, 72, 0
2, 18740, Note_on_c, 0, 53, 79
2, 18744, Note_on_c, 0, 72, 71
2, 18892, Control_c, 0, 64, 127
2, 18917, Note_on_c, 0, 67, 52
2, 19001, Note_on_c, 0, 62, 80
2, 19015, Note_on_c, 0, 72, 0
2, 19022, Note_on_c, 0, 72, 68
2, 19138, Note_on_c, 0, 60, 0
2, 19142, Note_on_c, 0, 79, 85
2, 19142, Note_on_c, 0, 60, 81
2, 19299, Note_on_c, 0, 72, 0
2, 19305, Note_on_c, 0, 72, 54
2, 19393, Note_on_c, 0, 59, 89
2, 19415, Note_on_c, 0, 67, 0
2, 19425, Note_on_c, 0, 67, 70
2, 19553, Note_on_c, 0, 72, 0
2, 19558, Note_on_c, 0, 72, 55
2, 19668, Note_on_c, 0, 60, 0
2, 19678, Note_on_c, 0, 60, 88
2, 19679, Note_on_c, 0, 67, 0
2, 19679, Note_on_c, 0, 72, 0
2, 19679, Note_on_c, 0, 53, 0
2, 19679, Note_on_c, 0, 62, 0
2, 19680, Note_on_c, 0, 59, 0
2, 19686, Control_c, 0, 64, 0
2, 19691, Note_on_c, 0, 79, 0
2, 19702, Note_on_c, 0, 79, 70
2, 19776, Control_c, 0, 64, 127
2, 19836, Note_on_c, 0, 72, 59
2, 19973, Note_on_c, 0, 67, 54
2, 20075, Note_on_c, 0, 72, 0
2, 20085, Note_on_c, 0, 72, 54
2, 20206, Note_on_c, 0, 79, 0
2, 20213, Note_on_c, 0, 79, 75
2, 20336, Note_on_c, 0, 72, 0
2, 20341, Note_on_c, 0, 72, 52
2, 20474, Note_on_c, 0, 67, 0
2, 20480, Note_on_c, 0, 67, 52
2, 20590, Note_on_c, 0, 72, 0
2, 20597, Note_on_c, 0, 72, 57
2, 20728, Note_on_c, 0, 79, 0
2, 20735, Note_on_c, 0, 79, 73
2, 20857, Note_on_c, 0, 53, 72
2, 20860, Note_on_c, 0, 74, 69
2, 20868, Note_on_c, 0, 38, 61
2, 20869, Note_on_c, 0, 45, 63
2, 20893, Note_on_c, 0, 60, 0
2, 21012, Note_on_c, 0, 67, 0
2, 21017, Note_on_c, 0, 67, 61
2, 21135, Note_on_c, 0, 74, 0
2, 21140, Note_on_c, 0, 74, 53
2, 21265, Note_on_c, 0, 79, 0
2, 21271, Note_on_c, 0, 79, 69
2, 21396, Note_on_c, 0, 72, 0
2, 21404, Note_on_c, 0, 72, 62
2, 21519, Note_on_c, 0, 67, 0
2, 21524, Note_on_c, 0, 67, 67
2, 21649, Note_on_c, 0, 72, 0
2, 21652, Note_on_c, 0, 60, 87
2, 21654, Note_on_c, 0, 72, 75
2, 21770, Note_on_c, 0, 59, 85
2, 21795, Note_on_c, 0, 79, 0
2, 21799, Note_on_c, 0, 79, 74
2, 21900, Note_on_c, 0, 57, 83
2, 21901, Note_on_c, 0, 69, 77
2, 21911, Note_on_c, 0, 53, 0
2, 21911, Note_on_c, 0, 69, 0
2, 21913, Note_on_c, 0, 38, 0
2, 21914, Note_on_c, 0, 74, 0
2, 21914, Note_on_c, 0, 45, 0
2, 21915, Note_on_c, 0, 72, 0
2, 21915, Note_on_c, 0, 79, 0
2, 21915, Note_on_c, 0, 67, 0
2, 21917, Note_on_c, 0, 59, 0
2, 21917, Note_on_c, 0, 50, 76
2, 21918, Note_on_c, 0, 53, 71
2, 21918, Note_on_c, 0, 60, 0
2, 21921, Control_c, 0, 64, 0
2, 21936, Note_on_c, 0, 71, 65
2, 22010, Control_c, 0, 64, 127
2, 22075, Note_on_c, 0, 67, 67
2, 22187, Note_on_c, 0, 71, 0
2, 22192, Note_on_c, 0, 71, 70
2, 22309, Note_on_c, 0, 59, 89
2, 22310, Control_c, 0, 64, 0
2, 22314, Note_on_c, 0, 53, 0
2, 22317, Note_on_c, 0, 67, 0
2, 22317, Note_on_c, 0, 57, 0
2, 22335, Note_on_c, 0, 79, 73
2, 22371, Control_c, 0, 64, 127
2, 22470, Note_on_c, 0, 72, 68
2, 22591, Note_on_c, 0, 67, 63
2, 22694, Note_on_c, 0, 72, 0
2, 22698, Note_on_c, 0, 60, 91
2, 22705, Note_on_c, 0, 72, 78
2, 22855, Note_on_c, 0, 79, 0
2, 22863, Note_on_c, 0, 79, 74
2, 22990, Note_on_c, 0, 64, 93
2, 22993, Note_on_c, 0, 60, 0
2, 22993, Note_on_c, 0, 72, 0
2, 22998, Note_on_c, 0, 60, 73
2, 22998, Note_on_c, 0, 55, 77
2, 22998, Note_on_c, 0, 72, 76
2, 23009, Note_on_c, 0, 50, 0
2, 23011, Control_c, 0, 64, 0
2, 23013, Note_on_c, 0, 79, 0
2, 23013, Note_on_c, 0, 67, 0
2, 23013, Note_on_c, 0, 71, 0
2, 23013, Note_on_c, 0, 59, 0
2, 23109, Control_c, 0, 64, 127
2, 23136, Note_on_c, 0, 67, 40
2, 23247, Note_on_c, 0, 72, 0
2, 23252, Note_on_c, 0, 72, 61
2, 23386, Note_on_c, 0, 79, 73
2, 23523, Note_on_c, 0, 72, 0
2, 23530, Note_on_c, 0, 72, 54
2, 23669, Note_on_c, 0, 67, 0
2, 23679, Note_on_c, 0, 67, 61
2, 23792, Note_on_c, 0, 72, 0
2, 23797, Note_on_c, 0, 72, 55
2, 23915, Note_on_c, 0, 79, 0
2, 23924, Note_on_c, 0, 79, 67
2, 24061, Note_on_c, 0, 72, 0
2, 24065, Note_on_c, 0, 43, 64
2, 24071, Note_on_c, 0, 72, 55
2, 24207, Note_on_c, 0, 67, 0
2, 24211, Note_on_c, 0, 55, 0
2, 24211, Note_on_c, 0, 67, 56
2, 24337, Note_on_c, 0, 72, 0
2, 24343, Note_on_c, 0, 72, 44
2, 24483, Note_on_c, 0, 79, 0
2, 24494, Note_on_c, 0, 79, 68
2, 24645, Note_on_c, 0, 72, 0
2, 24656, Note_on_c, 0, 72, 48
2, 24821, Note_on_c, 0, 67, 0
2, 24828, Note_on_c, 0, 67, 60
2, 24990, Note_on_c, 0, 72, 0
2, 24997, Note_on_c, 0, 72, 48
2, 25198, Note_on_c, 0, 79, 0
2, 25206, Note_on_c, 0, 79, 66
2, 25553, Note_on_c, 0, 91, 83
2, 25559, Note_on_c, 0, 79, 0
2, 25563, Note_on_c, 0, 79, 72
2, 25566, Note_on_c, 0, 67, 0
2, 25570, Note_on_c, 0, 67, 55
2, 25577, Note_on_c, 0, 59, 56
2, 25577, Note_on_c, 0, 55, 51
2, 25578, Note_on_c, 0, 62, 54
2, 25634, Control_c, 0, 64, 0
2, 25640, Note_on_c, 0, 64, 0
2, 25641, Note_on_c, 0, 72, 0
2, 25642, Note_on_c, 0, 43, 0
2, 25651, Note_on_c, 0, 60, 0
2, 26357, Control_c, 0, 64, 127
2, 27639, Note_on_c, 0, 72, 83
2, 27641, Note_on_c, 0, 60, 78
2, 27653, Control_c, 0, 64, 0
2, 27660, Note_on_c, 0, 59, 0
2, 27661, Note_on_c, 0, 62, 0
2, 27661, Note_on_c, 0, 91, 0
2, 27678, Note_on_c, 0, 55, 0
2, 27678, Note_on_c, 0, 79, 0
2, 27686, Note_on_c, 0, 67, 0
2, 27717, Control_c, 0, 64, 127
2, 27937, Note_on_c, 0, 74, 102
2, 27937, Note_on_c, 0, 62, 90
2, 28193, Note_on_c, 0, 72, 0
2, 28200, Note_on_c, 0, 60, 0
2, 28204, Note_on_c, 0, 72, 102
2, 28204, Note_on_c, 0, 60, 94
2, 28477, Note_on_c, 0, 72, 0
2, 28477, Control_c, 0, 64, 0
2, 28478, Note_on_c, 0, 60, 0
2, 28478, Note_on_c, 0, 62, 0
2, 28479, Note_on_c, 0, 74, 0
2, 28480, Note_on_c, 0, 84, 109
2, 28483, Note_on_c, 0, 72, 103
2, 28484, Note_on_c, 0, 76, 99
2, 28486, Note_on_c, 0, 33, 88
2, 28488, Note_on_c, 0, 45, 88
2, 28489, Note_on_c, 0, 81, 98
2, 28546, Control_c, 0, 64, 127
2, 28600, Note_on_c, 0, 45, 0
2, 28605, Note_on_c, 0, 45, 81
2, 28745, Note_on_c, 0, 52, 79
2, 28865, Note_on_c, 0, 57, 76
2, 28876, Note_on_c, 0, 72, 0
2, 28876, Note_on_c, 0, 76, 0
2, 28883, Note_on_c, 0, 64, 84
2, 28885, Note_on_c, 0, 60, 84
2, 28886, Note_on_c, 0, 72, 87
2, 28887, Note_on_c, 0, 76, 76
2, 28889, Note_on_c, 0, 69, 67
2, 28999, Note_on_c, 0, 60, 0
2, 28999, Note_on_c, 0, 64, 0
2, 28999, Note_on_c, 0, 72, 0
2, 29007, Note_on_c, 0, 45, 0
2, 29008, Note_on_c, 0, 60, 88
2, 29009, Note_on_c, 0, 64, 85
2, 29010, Note_on_c, 0, 72, 100
2, 29012, Note_on_c, 0, 45, 79
2, 29145, Note_on_c, 0, 52, 0
2, 29156, Note_on_c, 0, 52, 68
2, 29268, Note_on_c, 0, 57, 0
2, 29268, Note_on_c, 0, 69, 0
2, 29272, Note_on_c, 0, 57, 81
2, 29274, Note_on_c, 0, 69, 72
2, 29399, Note_on_c, 0, 84, 0
2, 29406, Note_on_c, 0, 96, 104
2, 29408, Note_on_c, 0, 88, 104
2, 29408, Note_on_c, 0, 84, 104
2, 29429, Note_on_c, 0, 64, 0
2, 29434, Note_on_c, 0, 64, 80
2, 29483, Note_on_c, 0, 88, 0
2, 29491, Note_on_c, 0, 84, 0
2, 29491, Note_on_c, 0, 96, 0
2, 29494, Note_on_c, 0, 88, 101
2, 29496, Note_on_c, 0, 84, 89
2, 29497, Note_on_c, 0, 96, 92
2, 29544, Note_on_c, 0, 60, 0
2, 29544, Note_on_c, 0, 69, 0
2, 29544, Note_on_c, 0, 84, 0
2, 29544, Note_on_c, 0, 88, 0
2, 29549, Note_on_c, 0, 60, 70
2, 29549, Note_on_c, 0, 69, 89
2, 29550, Note_on_c, 0, 84, 99
2, 29556, Note_on_c, 0, 88, 110
2, 29675, Note_on_c, 0, 64, 0
2, 29680, Note_on_c, 0, 64, 75
2, 29806, Note_on_c, 0, 60, 0
2, 29806, Note_on_c, 0, 69, 0
2, 29806, Note_on_c, 0, 72, 0
2, 29810, Note_on_c, 0, 60, 72
2, 29810, Note_on_c, 0, 69, 67
2, 29816, Note_on_c, 0, 72, 77
2, 29936, Note_on_c, 0, 57, 0
2, 29942, Note_on_c, 0, 57, 85
2, 29943, Note_on_c, 0, 83, 99
2, 29948, Note_on_c, 0, 71, 93
2, 29952, Note_on_c, 0, 76, 0
2, 29952, Note_on_c, 0, 79, 93
2, 29955, Note_on_c, 0, 76, 78
2, 30074, Note_on_c, 0, 45, 0
2, 30084, Note_on_c, 0, 45, 70
2, 30197, Note_on_c, 0, 57, 0
2, 30197, Note_on_c, 0, 69, 0
2, 30201, Note_on_c, 0, 57, 82
2, 30202, Note_on_c, 0, 69, 79
2, 30312, Note_on_c, 0, 60, 0
2, 30320, Note_on_c, 0, 52, 0
2, 30320, Note_on_c, 0, 69, 0
2, 30320, Note_on_c, 0, 81, 0
2, 30324, Note_on_c, 0, 60, 74
2, 30324, Note_on_c, 0, 81, 100
2, 30327, Note_on_c, 0, 69, 95
2, 30329, Note_on_c, 0, 52, 79
2, 30454, Note_on_c, 0, 48, 77
2, 30566, Note_on_c, 0, 48, 0
2, 30568, Note_on_c, 0, 52, 0
2, 30568, Note_on_c, 0, 96, 0
2, 30568, Note_on_c, 0, 69, 0
2, 30568, Note_on_c, 0, 60, 0
2, 30568, Note_on_c, 0, 81, 0
2, 30568, Note_on_c, 0, 57, 0
2, 30569, Note_on_c, 0, 64, 0
2, 30569, Note_on_c, 0, 84, 0
2, 30569, Note_on_c, 0, 71, 0
2, 30569, Note_on_c, 0, 83, 0
2, 30569, Control_c, 0, 64, 0
2, 30574, Note_on_c, 0, 33, 0
2, 30574, Note_on_c, 0, 45, 0
2, 30574, Note_on_c, 0, 79, 0
2, 30581, Note_on_c, 0, 72, 0
2, 30581, Note_on_c, 0, 76, 0
2, 30581, Note_on_c, 0, 88, 0
2, 30585, Note_on_c, 0, 79, 104
2, 30588, Note_on_c, 0, 72, 91
2, 30591, Note_on_c, 0, 67, 98
2, 30592, Note_on_c, 0, 76, 97
2, 30596, Note_on_c, 0, 29, 81
2, 30650, Control_c, 0, 64, 127
2, 30709, Note_on_c, 0, 41, 77
2, 30852, Note_on_c, 0, 48, 73
2, 30973, Note_on_c, 0, 67, 0
2, 30979, Note_on_c, 0, 53, 76
2, 30981, Note_on_c, 0, 67, 82
2, 30984, Note_on_c, 0, 60, 74
2, 30985, Note_on_c, 0, 64, 73
2, 31096, Note_on_c, 0, 64, 0
2, 31096, Note_on_c, 0, 67, 0
2, 31104, Note_on_c, 0, 41, 0
2, 31104, Note_on_c, 0, 60, 0
2, 31106, Note_on_c, 0, 67, 92
2, 31106, Note_on_c, 0, 64, 82
2, 31108, Note_on_c, 0, 41, 77
2, 31108, Note_on_c, 0, 60, 77
2, 31249, Note_on_c, 0, 48, 0
2, 31254, Note_on_c, 0, 48, 73
2, 31365, Note_on_c, 0, 53, 0
2, 31371, Note_on_c, 0, 53, 80
2, 31488, Note_on_c, 0, 79, 0
2, 31497, Note_on_c, 0, 91, 101
2, 31498, Note_on_c, 0, 88, 91
2, 31499, Note_on_c, 0, 79, 100
2, 31499, Note_on_c, 0, 84, 87
2, 31512, Note_on_c, 0, 87, 63
2, 31518, Note_on_c, 0, 60, 0
2, 31518, Note_on_c, 0, 87, 0
2, 31525, Note_on_c, 0, 60, 75
2, 31564, Note_on_c, 0, 79, 0
2, 31564, Note_on_c, 0, 91, 0
2, 31572, Note_on_c, 0, 84, 0
2, 31575, Note_on_c, 0, 91, 97
2, 31576, Note_on_c, 0, 79, 88
2, 31576, Note_on_c, 0, 84, 82
2, 31626, Note_on_c, 0, 79, 0
2, 31626, Note_on_c, 0, 84, 0
2, 31626, Note_on_c, 0, 91, 0
2, 31630, Note_on_c, 0, 91, 105
2, 31636, Note_on_c, 0, 79, 99
2, 31637, Note_on_c, 0, 84, 102
2, 31639, Note_on_c, 0, 65, 97
2, 31764, Note_on_c, 0, 41, 0
2, 31764, Note_on_c, 0, 60, 0
2, 31768, Note_on_c, 0, 60, 72
2, 31769, Note_on_c, 0, 41, 62
2, 31884, Note_on_c, 0, 57, 84
2, 32010, Note_on_c, 0, 53, 0
2, 32017, Note_on_c, 0, 65, 0
2, 32019, Note_on_c, 0, 53, 90
2, 32025, Note_on_c, 0, 77, 104
2, 32029, Note_on_c, 0, 65, 97
2, 32029, Note_on_c, 0, 69, 92
2, 32148, Note_on_c, 0, 41, 0
2, 32153, Note_on_c, 0, 41, 81
2, 32263, Note_on_c, 0, 53, 0
2, 32270, Note_on_c, 0, 53, 77
2, 32401, Note_on_c, 0, 48, 0
2, 32401, Note_on_c, 0, 64, 0
2, 32401, Note_on_c, 0, 76, 0
2, 32407, Note_on_c, 0, 48, 77
2, 32408, Note_on_c, 0, 76, 101
2, 32411, Note_on_c, 0, 64, 89
2, 32520, Note_on_c, 0, 45, 77
2, 32616, Note_on_c, 0, 29, 0
2, 32635, Note_on_c, 0, 72, 0
2, 32638, Note_on_c, 0, 45, 0
2, 32639, Note_on_c, 0, 48, 0
2, 32640, Note_on_c, 0, 53, 0
2, 32640, Note_on_c, 0, 69, 0
2, 32640, Note_on_c, 0, 41, 0
2, 32641, Note_on_c, 0, 64, 0
2, 32641, Note_on_c, 0, 60, 0
2, 32641, Note_on_c, 0, 65, 0
2, 32641, Note_on_c, 0, 91, 0
2, 32642, Note_on_c, 0, 76, 0
2, 32642, Note_on_c, 0, 79, 0
2, 32642, Note_on_c, 0, 77, 0
2, 32643, Note_on_c, 0, 88, 0
2, 32643, Control_c, 0, 64, 0
2, 32655, Note_on_c, 0, 84, 0
2, 32663, Note_on_c, 0, 57, 0
2, 32663, Note_on_c, 0, 67, 0
2, 32667, Note_on_c, 0, 74, 103
2, 32668, Note_on_c, 0, 43, 80
2, 32668, Note_on_c, 0, 31, 80
2, 32670, Note_on_c, 0, 62, 93
2, 32672, Note_on_c, 0, 67, 93
2, 32673, Note_on_c, 0, 71, 93
2, 32724, Control_c, 0, 64, 127
2, 32793, Note_on_c, 0, 43, 0
2, 32798, Note_on_c, 0, 43, 71
2, 32921, Note_on_c, 0, 50, 80
2, 33039, Note_on_c, 0, 62, 0
2, 33043, Note_on_c, 0, 55, 75
2, 33043, Note_on_c, 0, 59, 80
2, 33044, Note_on_c, 0, 62, 72
2, 33162, Note_on_c, 0, 59, 0
2, 33162, Note_on_c, 0, 62, 0
2, 33166, Note_on_c, 0, 62, 82
2, 33169, Note_on_c, 0, 43, 0
2, 33171, Note_on_c, 0, 59, 79
2, 33177, Note_on_c, 0, 43, 77
2, 33185, Note_on_c, 0, 31, 0
2, 33196, Note_on_c, 0, 31, 66
2, 33315, Note_on_c, 0, 50, 0
2, 33319, Note_on_c, 0, 50, 82
2, 33438, Note_on_c, 0, 43, 0
2, 33438, Note_on_c, 0, 55, 0
2, 33443, Note_on_c, 0, 55, 82
2, 33449, Note_on_c, 0, 43, 65
2, 33576, Note_on_c, 0, 62, 0
2, 33576, Note_on_c, 0, 74, 0
2, 33579, Note_on_c, 0, 86, 97
2, 33583, Note_on_c, 0, 74, 87
2, 33586, Note_on_c, 0, 62, 80
2, 33588, Note_on_c, 0, 79, 80
2, 33591, Note_on_c, 0, 83, 76
2, 33592, Note_on_c, 0, 59, 0
2, 33597, Note_on_c, 0, 59, 67
2, 33601, Note_on_c, 0, 82, 62
2, 33646, Note_on_c, 0, 74, 0
2, 33646, Note_on_c, 0, 86, 0
2, 33652, Note_on_c, 0, 86, 94
2, 33657, Note_on_c, 0, 74, 75
2, 33707, Note_on_c, 0, 55, 0
2, 33707, Note_on_c, 0, 67, 0
2, 33707, Note_on_c, 0, 74, 0
2, 33707, Note_on_c, 0, 83, 0
2, 33707, Note_on_c, 0, 86, 0
2, 33711, Note_on_c, 0, 86, 111
2, 33712, Note_on_c, 0, 55, 86
2, 33712, Note_on_c, 0, 67, 95
2, 33718, Note_on_c, 0, 83, 95
2, 33718, Note_on_c, 0, 74, 98
2, 33722, Note_on_c, 0, 79, 0
2, 33726, Note_on_c, 0, 79, 86
2, 33830, Note_on_c, 0, 62, 0
2, 33841, Note_on_c, 0, 62, 80
2, 33953, Note_on_c, 0, 59, 0
2, 33964, Note_on_c, 0, 59, 83
2, 34076, Note_on_c, 0, 55, 0
2, 34082, Note_on_c, 0, 55, 83
2, 34099, Note_on_c, 0, 83, 0
2, 34106, Note_on_c, 0, 67, 0
2, 34108, Note_on_c, 0, 83, 87
2, 34110, Note_on_c, 0, 76, 104
2, 34111, Note_on_c, 0, 64, 97
2, 34112, Note_on_c, 0, 67, 98
2, 34229, Note_on_c, 0, 43, 0
2, 34236, Note_on_c, 0, 43, 85
2, 34237, Note_on_c, 0, 82, 0
2, 34344, Note_on_c, 0, 55, 0
2, 34353, Note_on_c, 0, 55, 79
2, 34475, Note_on_c, 0, 50, 0
2, 34481, Note_on_c, 0, 77, 104
2, 34483, Note_on_c, 0, 74, 0
2, 34485, Note_on_c, 0, 65, 98
2, 34486, Note_on_c, 0, 50, 90
2, 34487, Note_on_c, 0, 69, 84
2, 34488, Note_on_c, 0, 74, 80
2, 34606, Note_on_c, 0, 43, 0
2, 34612, Note_on_c, 0, 47, 82
2, 34615, Note_on_c, 0, 43, 62
2, 34717, Control_c, 0, 64, 0
2, 34718, Note_on_c, 0, 71, 0
2, 34718, Note_on_c, 0, 31, 0
2, 34718, Note_on_c, 0, 55, 0
2, 34718, Note_on_c, 0, 62, 0
2, 34718, Note_on_c, 0, 74, 0
2, 34718, Note_on_c, 0, 86, 0
2, 34718, Note_on_c, 0, 65, 0
2, 34718, Note_on_c, 0, 50, 0
2, 34718, Note_on_c, 0, 43, 0
2, 34719, Note_on_c, 0, 59, 0
2, 34719, Note_on_c, 0, 67, 0
2, 34719, Note_on_c, 0, 77, 0
2, 34719, Note_on_c, 0, 83, 0
2, 34719, Note_on_c, 0, 47, 0
2, 34719, Note_on_c, 0, 79, 0
2, 34728, Note_on_c, 0, 69, 0
2, 34736, Note_on_c, 0, 64, 0
2, 34736, Note_on_c, 0, 76, 0
2, 34743, Note_on_c, 0, 76, 107
2, 34743, Note_on_c, 0, 36, 81
2, 34743, Note_on_c, 0, 64, 103
2, 34747, Note_on_c, 0, 72, 99
2, 34788, Note_on_c, 0, 36, 0
2, 34798, Control_c, 0, 64, 127
2, 34866, Note_on_c, 0, 48, 83
2, 35015, Note_on_c, 0, 55, 68
2, 35128, Note_on_c, 0, 48, 0
2, 35132, Note_on_c, 0, 48, 77
2, 35138, Note_on_c, 0, 60, 79
2, 35141, Note_on_c, 0, 88, 107
2, 35143, Note_on_c, 0, 76, 0
2, 35148, Note_on_c, 0, 84, 87
2, 35151, Note_on_c, 0, 79, 96
2, 35153, Note_on_c, 0, 76, 95
2, 35258, Note_on_c, 0, 79, 0
2, 35258, Note_on_c, 0, 84, 0
2, 35258, Note_on_c, 0, 88, 0
2, 35266, Note_on_c, 0, 48, 0
2, 35266, Note_on_c, 0, 76, 0
2, 35267, Note_on_c, 0, 88, 105
2, 35269, Note_on_c, 0, 84, 93
2, 35270, Note_on_c, 0, 79, 94
2, 35270, Note_on_c, 0, 72, 0
2, 35270, Note_on_c, 0, 48, 85
2, 35270, Note_on_c, 0, 76, 96
2, 35273, Note_on_c, 0, 36, 81
2, 35404, Note_on_c, 0, 64, 0
2, 35411, Note_on_c, 0, 64, 93
2, 35527, Note_on_c, 0, 60, 0
2, 35533, Note_on_c, 0, 60, 84
2, 35635, Note_on_c, 0, 55, 0
2, 35644, Note_on_c, 0, 55, 89
2, 35655, Note_on_c, 0, 74, 98
2, 35657, Note_on_c, 0, 62, 88
2, 35660, Note_on_c, 0, 71, 89
2, 35660, Note_on_c, 0, 67, 92
2, 35762, Control_c, 0, 64, 0
2, 35762, Note_on_c, 0, 64, 0
2, 35762, Note_on_c, 0, 48, 0
2, 35762, Note_on_c, 0, 76, 0
2, 35763, Note_on_c, 0, 84, 0
2, 35763, Note_on_c, 0, 71, 0
2, 35763, Note_on_c, 0, 79, 0
2, 35763, Note_on_c, 0, 60, 0
2, 35764, Note_on_c, 0, 88, 0
2, 35768, Note_on_c, 0, 36, 0
2, 35773, Note_on_c, 0, 74, 0
2, 35781, Note_on_c, 0, 55, 0
2, 35781, Note_on_c, 0, 62, 0
2, 35781, Note_on_c, 0, 67, 0
2, 35784, Note_on_c, 0, 74, 100
2, 35787, Note_on_c, 0, 62, 93
2, 35790, Note_on_c, 0, 67, 87
2, 35791, Note_on_c, 0, 47, 78
2, 35792, Note_on_c, 0, 71, 79
2, 35792, Note_on_c, 0, 35, 77
2, 35842, Control_c, 0, 64, 127
2, 35896, Note_on_c, 0, 35, 0
2, 35896, Note_on_c, 0, 47, 0
2, 35905, Note_on_c, 0, 35, 69
2, 35906, Note_on_c, 0, 47, 74
2, 36038, Note_on_c, 0, 50, 80
2, 36041, Note_on_c, 0, 60, 85
2, 36080, Note_on_c, 0, 62, 0
2, 36090, Note_on_c, 0, 62, 84
2, 36131, Note_on_c, 0, 64, 83
2, 36168, Note_on_c, 0, 55, 83
2, 36199, Note_on_c, 0, 65, 84
2, 36241, Note_on_c, 0, 67, 0
2, 36253, Note_on_c, 0, 67, 88
2, 36299, Note_on_c, 0, 69, 81
2, 36300, Note_on_c, 0, 59, 85
2, 36326, Note_on_c, 0, 71, 0
2, 36330, Note_on_c, 0, 71, 83
2, 36388, Note_on_c, 0, 72, 85
2, 36441, Note_on_c, 0, 55, 0
2, 36441, Note_on_c, 0, 74, 0
2, 36446, Note_on_c, 0, 55, 75
2, 36446, Note_on_c, 0, 74, 83
2, 36484, Note_on_c, 0, 76, 83
2, 36543, Note_on_c, 0, 77, 86
2, 36587, Note_on_c, 0, 50, 0
2, 36597, Note_on_c, 0, 50, 69
2, 36598, Note_on_c, 0, 79, 97
2, 36672, Note_on_c, 0, 47, 0
2, 36674, Note_on_c, 0, 81, 95
2, 36683, Note_on_c, 0, 47, 81
2, 36711, Note_on_c, 0, 83, 98
2, 36804, Control_c, 0, 64, 0
2, 36805, Note_on_c, 0, 47, 0
2, 36806, Note_on_c, 0, 59, 0
2, 36806, Note_on_c, 0, 65, 0
2, 36806, Note_on_c, 0, 74, 0
2, 36806, Note_on_c, 0, 60, 0
2, 36806, Note_on_c, 0, 55, 0
2, 36806, Note_on_c, 0, 64, 0
2, 36806, Note_on_c, 0, 71, 0
2, 36807, Note_on_c, 0, 69, 0
2, 36807, Note_on_c, 0, 77, 0
2, 36807, Note_on_c, 0, 79, 0
2, 36808, Note_on_c, 0, 83, 0
2, 36808, Note_on_c, 0, 81, 0
2, 36810, Note_on_c, 0, 35, 0
2, 36810, Note_on_c, 0, 72, 0
2, 36814, Note_on_c, 0, 84, 111
2, 36814, Note_on_c, 0, 45, 88
2, 36816, Note_on_c, 0, 33, 82
2, 36817, Note_on_c, 0, 50, 0
2, 36817, Note_on_c, 0, 62, 0
2, 36817, Note_on_c, 0, 67, 0
2, 36817, Note_on_c, 0, 76, 0
2, 36819, Note_on_c, 0, 72, 101
2, 36823, Note_on_c, 0, 76, 94
2, 36879, Control_c, 0, 64, 127
2, 36940, Note_on_c, 0, 45, 0
2, 36948, Note_on_c, 0, 45, 74
2, 37074, Note_on_c, 0, 52, 78
2, 37197, Note_on_c, 0, 57, 84
2, 37198, Note_on_c, 0, 60, 89
2, 37198, Note_on_c, 0, 64, 84
2, 37202, Note_on_c, 0, 69, 75
2, 37317, Note_on_c, 0, 33, 0
2, 37317, Note_on_c, 0, 45, 0
2, 37317, Note_on_c, 0, 60, 0
2, 37317, Note_on_c, 0, 64, 0
2, 37317, Note_on_c, 0, 72, 0
2, 37322, Note_on_c, 0, 64, 89
2, 37322, Note_on_c, 0, 72, 103
2, 37326, Note_on_c, 0, 45, 90
2, 37326, Note_on_c, 0, 60, 85
2, 37327, Note_on_c, 0, 33, 87
2, 37463, Note_on_c, 0, 52, 0
2, 37474, Note_on_c, 0, 52, 81
2, 37585, Note_on_c, 0, 57, 0
2, 37590, Note_on_c, 0, 57, 81
2, 37708, Note_on_c, 0, 84, 0
2, 37712, Note_on_c, 0, 96, 104
2, 37716, Note_on_c, 0, 84, 104
2, 37717, Note_on_c, 0, 88, 97
2, 37724, Note_on_c, 0, 64, 0
2, 37731, Note_on_c, 0, 64, 83
2, 37785, Note_on_c, 0, 96, 0
2, 37794, Note_on_c, 0, 96, 91
2, 37831, Note_on_c, 0, 84, 0
2, 37831, Note_on_c, 0, 96, 0
2, 37841, Note_on_c, 0, 96, 96
2, 37843, Note_on_c, 0, 84, 92
2, 37847, Note_on_c, 0, 69, 0
2, 37851, Note_on_c, 0, 69, 91
2, 37962, Note_on_c, 0, 64, 0
2, 37973, Note_on_c, 0, 64, 85
2, 38100, Note_on_c, 0, 60, 0
2, 38107, Note_on_c, 0, 60, 84
2, 38231, Note_on_c, 0, 57, 0
2, 38233, Note_on_c, 0, 83, 101
2, 38238, Note_on_c, 0, 71, 96
2, 38238, Note_on_c, 0, 69, 0
2, 38238, Note_on_c, 0, 76, 0
2, 38241, Note_on_c, 0, 57, 91
2, 38242, Note_on_c, 0, 79, 92
2, 38242, Note_on_c, 0, 69, 87
2, 38243, Note_on_c, 0, 76, 87
2, 38369, Note_on_c, 0, 45, 0
2, 38375, Note_on_c, 0, 45, 75
2, 38484, Note_on_c, 0, 57, 0
2, 38484, Note_on_c, 0, 69, 0
2, 38495, Note_on_c, 0, 57, 84
2, 38495, Note_on_c, 0, 69, 83
2, 38607, Note_on_c, 0, 72, 0
2, 38607, Note_on_c, 0, 84, 0
2, 38611, Note_on_c, 0, 84, 108
2, 38617, Note_on_c, 0, 72, 98
2, 38622, Note_on_c, 0, 52, 0
2, 38622, Note_on_c, 0, 79, 0
2, 38626, Note_on_c, 0, 79, 70
2, 38629, Note_on_c, 0, 52, 86
2, 38740, Note_on_c, 0, 48, 84
2, 38852, Control_c, 0, 64, 0
2, 38853, Note_on_c, 0, 33, 0
2, 38854, Note_on_c, 0, 45, 0
2, 38854, Note_on_c, 0, 48, 0
2, 38854, Note_on_c, 0, 69, 0
2, 38855, Note_on_c, 0, 57, 0
2, 38855, Note_on_c, 0, 64, 0
2, 38855, Note_on_c, 0, 72, 0
2, 38856, Note_on_c, 0, 83, 0
2, 38856, Note_on_c, 0, 71, 0
2, 38856, Note_on_c, 0, 76, 0
2, 38856, Note_on_c, 0, 96, 0
2, 38868, Note_on_c, 0, 60, 0
2, 38868, Note_on_c, 0, 84, 0
2, 38873, Note_on_c, 0, 91, 111
2, 38876, Note_on_c, 0, 52, 0
2, 38876, Note_on_c, 0, 79, 0
2, 38876, Note_on_c, 0, 88, 0
2, 38878, Note_on_c, 0, 40, 74
2, 38879, Note_on_c, 0, 84, 104
2, 38880, Note_on_c, 0, 88, 107
2, 38880, Note_on_c, 0, 79, 102
2, 38886, Note_on_c, 0, 28, 83
2, 38912, Note_on_c, 0, 81, 60
2, 38922, Control_c, 0, 64, 127
2, 38976, Note_on_c, 0, 28, 0
2, 38976, Note_on_c, 0, 40, 0
2, 38982, Note_on_c, 0, 28, 76
2, 38987, Note_on_c, 0, 40, 70
2, 39129, Note_on_c, 0, 48, 72
2, 39232, Note_on_c, 0, 52, 74
2, 39264, Note_on_c, 0, 67, 82
2, 39266, Note_on_c, 0, 64, 77
2, 39268, Note_on_c, 0, 60, 81
2, 39375, Note_on_c, 0, 40, 0
2, 39375, Note_on_c, 0, 60, 0
2, 39375, Note_on_c, 0, 64, 0
2, 39375, Note_on_c, 0, 67, 0
2, 39381, Note_on_c, 0, 40, 78
2, 39384, Note_on_c, 0, 67, 98
2, 39385, Note_on_c, 0, 64, 81
2, 39386, Note_on_c, 0, 60, 78
2, 39521, Note_on_c, 0, 48, 0
2, 39532, Note_on_c, 0, 48, 80
2, 39628, Note_on_c, 0, 52, 0
2, 39637, Note_on_c, 0, 52, 83
2, 39767, Note_on_c, 0, 91, 0
2, 39771, Note_on_c, 0, 103, 108
2, 39773, Note_on_c, 0, 91, 105
2, 39778, Note_on_c, 0, 100, 90
2, 39782, Note_on_c, 0, 81, 0
2, 39786, Note_on_c, 0, 96, 88
2, 39790, Note_on_c, 0, 55, 80
2, 39843, Note_on_c, 0, 91, 0
2, 39843, Note_on_c, 0, 100, 0
2, 39843, Note_on_c, 0, 103, 0
2, 39851, Note_on_c, 0, 100, 91
2, 39851, Note_on_c, 0, 96, 0
2, 39853, Note_on_c, 0, 103, 104
2, 39855, Note_on_c, 0, 91, 91
2, 39856, Note_on_c, 0, 96, 95
2, 39905, Note_on_c, 0, 64, 0
2, 39914, Note_on_c, 0, 64, 97
2, 39920, Note_on_c, 0, 96, 0
2, 39920, Note_on_c, 0, 100, 0
2, 39920, Note_on_c, 0, 103, 0
2, 39929, Note_on_c, 0, 100, 84
2, 39929, Note_on_c, 0, 101, 84
2, 39932, Note_on_c, 0, 103, 72
2, 39932, Note_on_c, 0, 96, 83
2, 40035, Note_on_c, 0, 60, 0
2, 40046, Note_on_c, 0, 60, 83
2, 40151, Note_on_c, 0, 55, 0
2, 40161, Note_on_c, 0, 55, 82
2, 40296, Note_on_c, 0, 52, 0
2, 40303, Note_on_c, 0, 89, 111
2, 40308, Note_on_c, 0, 52, 83
2, 40308, Note_on_c, 0, 77, 106
2, 40308, Note_on_c, 0, 81, 95
2, 40435, Note_on_c, 0, 28, 0
2, 40435, Note_on_c, 0, 40, 0
2, 40442, Note_on_c, 0, 40, 74
2, 40445, Note_on_c, 0, 28, 80
2, 40550, Note_on_c, 0, 52, 0
2, 40561, Note_on_c, 0, 52, 91
2, 40673, Note_on_c, 0, 103, 0
2, 40680, Note_on_c, 0, 88, 0
2, 40688, Note_on_c, 0, 48, 0
2, 40690, Note_on_c, 0, 88, 110
2, 40694, Note_on_c, 0, 48, 83
2, 40697, Note_on_c, 0, 76, 101
2, 40805, Note_on_c, 0, 43, 89
2, 40929, Note_on_c, 0, 96, 0
2, 40930, Note_on_c, 0, 89, 0
2, 40930, Note_on_c, 0, 52, 0
2, 40930, Note_on_c, 0, 100, 0
2, 40930, Note_on_c, 0, 48, 0
2, 40930, Note_on_c, 0, 40, 0
2, 40930, Note_on_c, 0, 76, 0
2, 40930, Note_on_c, 0, 84, 0
2, 40930, Note_on_c, 0, 88, 0
2, 40931, Note_on_c, 0, 60, 0
2, 40931, Note_on_c, 0, 67, 0
2, 40931, Control_c, 0, 64, 0
2, 40931, Note_on_c, 0, 64, 0
2, 40931, Note_on_c, 0, 43, 0
2, 40931, Note_on_c, 0, 91, 0
2, 40931, Note_on_c, 0, 79, 0
2, 40934, Note_on_c, 0, 101, 0
2, 40942, Note_on_c, 0, 28, 0
2, 40942, Note_on_c, 0, 55, 0
2, 40949, Note_on_c, 0, 77, 0
2, 40949, Note_on_c, 0, 81, 0
2, 40951, Note_on_c, 0, 86, 110
2, 40954, Note_on_c, 0, 77, 99
2, 40958, Note_on_c, 0, 74, 104
2, 40960, Note_on_c, 0, 81, 89
2, 40961, Note_on_c, 0, 29, 83
2, 41011, Control_c, 0, 64, 127
2, 41070, Note_on_c, 0, 41, 82
2, 41219, Note_on_c, 0, 48, 68
2, 41335, Note_on_c, 0, 53, 77
2, 41342, Note_on_c, 0, 65, 80
2, 41345, Note_on_c, 0, 62, 72
2, 41448, Note_on_c, 0, 62, 0
2, 41448, Note_on_c, 0, 65, 0
2, 41456, Note_on_c, 0, 41, 0
2, 41456, Note_on_c, 0, 74, 0
2, 41459, Note_on_c, 0, 62, 86
2, 41459, Note_on_c, 0, 65, 84
2, 41460, Note_on_c, 0, 41, 83
2, 41460, Note_on_c, 0, 74, 89
2, 41461, Note_on_c, 0, 69, 78
2, 41602, Note_on_c, 0, 48, 0
2, 41607, Note_on_c, 0, 48, 74
2, 41702, Note_on_c, 0, 53, 0
2, 41706, Note_on_c, 0, 53, 82
2, 41832, Note_on_c, 0, 86, 0
2, 41842, Note_on_c, 0, 98, 98
2, 41843, Note_on_c, 0, 86, 100
2, 41844, Note_on_c, 0, 89, 93
2, 41856, Note_on_c, 0, 57, 69
2, 41861, Note_on_c, 0, 60, 79
2, 41917, Note_on_c, 0, 86, 0
2, 41917, Note_on_c, 0, 89, 0
2, 41917, Note_on_c, 0, 98, 0
2, 41921, Note_on_c, 0, 98, 106
2, 41923, Note_on_c, 0, 86, 96
2, 41925, Note_on_c, 0, 89, 95
2, 41978, Note_on_c, 0, 65, 0
2, 41983, Note_on_c, 0, 65, 98
2, 42101, Note_on_c, 0, 60, 0
2, 42111, Note_on_c, 0, 60, 83
2, 42232, Note_on_c, 0, 57, 0
2, 42232, Note_on_c, 0, 65, 0
2, 42232, Note_on_c, 0, 69, 0
2, 42232, Note_on_c, 0, 77, 0
2, 42236, Note_on_c, 0, 69, 93
2, 42237, Note_on_c, 0, 57, 87
2, 42238, Note_on_c, 0, 77, 99
2, 42240, Note_on_c, 0, 65, 95
2, 42347, Note_on_c, 0, 53, 0
2, 42352, Note_on_c, 0, 53, 77
2, 42501, Note_on_c, 0, 41, 0
2, 42501, Note_on_c, 0, 69, 0
2, 42501, Note_on_c, 0, 81, 0
2, 42506, Note_on_c, 0, 81, 106
2, 42510, Note_on_c, 0, 69, 99
2, 42510, Note_on_c, 0, 41, 77
2, 42624, Note_on_c, 0, 53, 0
2, 42629, Note_on_c, 0, 53, 76
2, 42762, Note_on_c, 0, 48, 0
2, 42766, Note_on_c, 0, 84, 106
2, 42767, Note_on_c, 0, 48, 80
2, 42771, Note_on_c, 0, 72, 95
2, 42887, Note_on_c, 0, 45, 74
2, 43019, Note_on_c, 0, 98, 0
2, 43019, Note_on_c, 0, 45, 0
2, 43019, Note_on_c, 0, 41, 0
2, 43020, Note_on_c, 0, 65, 0
2, 43020, Note_on_c, 0, 62, 0
2, 43020, Note_on_c, 0, 69, 0
2, 43020, Note_on_c, 0, 89, 0
2, 43020, Note_on_c, 0, 57, 0
2, 43020, Note_on_c, 0, 84, 0
2, 43020, Note_on_c, 0, 53, 0
2, 43020, Note_on_c, 0, 48, 0
2, 43021, Note_on_c, 0, 72, 0
2, 43021, Note_on_c, 0, 60, 0
2, 43021, Control_c, 0, 64, 0
2, 43023, Note_on_c, 0, 29, 0
2, 43031, Note_on_c, 0, 77, 0
2, 43031, Note_on_c, 0, 81, 0
2, 43031, Note_on_c, 0, 86, 0
2, 43036, Note_on_c, 0, 86, 108
2, 43038, Note_on_c, 0, 74, 0
2, 43041, Note_on_c, 0, 77, 97
2, 43041, Note_on_c, 0, 43, 87
2, 43042, Note_on_c, 0, 81, 90
2, 43042, Note_on_c, 0, 74, 101
2, 43115, Control_c, 0, 64, 127
2, 43159, Note_on_c, 0, 50, 77
2, 43247, Note_on_c, 0, 53, 73
2, 43350, Note_on_c, 0, 57, 66
2, 43406, Note_on_c, 0, 60, 68
2, 43457, Note_on_c, 0, 62, 62
2, 43495, Note_on_c, 0, 65, 71
2, 43560, Note_on_c, 0, 50, 0
2, 43566, Note_on_c, 0, 50, 81
2, 43637, Note_on_c, 0, 57, 0
2, 43642, Note_on_c, 0, 57, 74
2, 43706, Note_on_c, 0, 60, 0
2, 43714, Note_on_c, 0, 60, 63
2, 43768, Note_on_c, 0, 62, 0
2, 43779, Note_on_c, 0, 62, 62
2, 43837, Note_on_c, 0, 65, 0
2, 43843, Note_on_c, 0, 65, 75
2, 43925, Note_on_c, 0, 69, 70
2, 43989, Note_on_c, 0, 72, 78
2, 44094, Note_on_c, 0, 55, 84
2, 44160, Note_on_c, 0, 62, 0
2, 44166, Note_on_c, 0, 62, 75
2, 44236, Note_on_c, 0, 65, 0
2, 44244, Note_on_c, 0, 65, 79
2, 44305, Note_on_c, 0, 69, 0
2, 44310, Note_on_c, 0, 69, 70
2, 44359, Note_on_c, 0, 72, 0
2, 44371, Note_on_c, 0, 72, 73
2, 44451, Note_on_c, 0, 74, 0
2, 44457, Note_on_c, 0, 74, 76
2, 44505, Note_on_c, 0, 77, 0
2, 44515, Note_on_c, 0, 77, 87
2, 44597, Note_on_c, 0, 62, 0
2, 44604, Note_on_c, 0, 62, 79
2, 44651, Note_on_c, 0, 69, 0
2, 44655, Note_on_c, 0, 69, 78
2, 44720, Note_on_c, 0, 72, 0
2, 44728, Note_on_c, 0, 72, 79
2, 44782, Note_on_c, 0, 74, 0
2, 44793, Note_on_c, 0, 74, 76
2, 44858, Note_on_c, 0, 77, 0
2, 44869, Note_on_c, 0, 77, 87
2, 44935, Note_on_c, 0, 81, 0
2, 44940, Note_on_c, 0, 81, 80
2, 45001, Note_on_c, 0, 84, 91
2, 45217, Note_on_c, 0, 88, 107
2, 45227, Note_on_c, 0, 86, 0
2, 45234, Note_on_c, 0, 67, 82
2, 45235, Note_on_c, 0, 74, 0
2, 45237, Note_on_c, 0, 86, 80
2, 45237, Note_on_c, 0, 71, 80
2, 45239, Note_on_c, 0, 79, 86
2, 45239, Note_on_c, 0, 83, 84
2, 45240, Note_on_c, 0, 74, 77
2, 45293, Control_c, 0, 64, 0
2, 45306, Note_on_c, 0, 57, 0
2, 45307, Note_on_c, 0, 69, 0
2, 45307, Note_on_c, 0, 84, 0
2, 45307, Note_on_c, 0, 53, 0
2, 45307, Note_on_c, 0, 65, 0
2, 45308, Note_on_c, 0, 81, 0
2, 45308, Note_on_c, 0, 72, 0
2, 45308, Note_on_c, 0, 60, 0
2, 45308, Note_on_c, 0, 62, 0
2, 45309, Note_on_c, 0, 77, 0
2, 45309, Note_on_c, 0, 50, 0
2, 45310, Note_on_c, 0, 55, 0
2, 45310, Note_on_c, 0, 43, 0
2, 45626, Control_c, 0, 64, 127
2, 45649, Note_on_c, 0, 86, 0
2, 46243, Note_on_c, 0, 103, 67
2, 46347, Note_on_c, 0, 101, 70
2, 46356, Note_on_c, 0, 88, 0
2, 46439, Note_on_c, 0, 100, 70
2, 46510, Note_on_c, 0, 98, 70
2, 46562, Note_on_c, 0, 96, 80
2, 46634, Note_on_c, 0, 95, 74
2, 46698, Note_on_c, 0, 93, 76
2, 46752, Note_on_c, 0, 91, 77
2, 46823, Note_on_c, 0, 89, 75
2, 46895, Note_on_c, 0, 88, 80
2, 46949, Note_on_c, 0, 86, 82
2, 47007, Note_on_c, 0, 84, 77
2, 47070, Note_on_c, 0, 83, 0
2, 47080, Note_on_c, 0, 83, 76
2, 47154, Note_on_c, 0, 81, 74
2, 47216, Note_on_c, 0, 79, 0
2, 47225, Note_on_c, 0, 79, 70
2, 47312, Note_on_c, 0, 77, 62
2, 47412, Note_on_c, 0, 76, 61
2, 47523, Note_on_c, 0, 74, 0
2, 47529, Note_on_c, 0, 74, 53
2, 47635, Note_on_c, 0, 72, 50
2, 47861, Note_on_c, 0, 76, 0
2, 47870, Note_on_c, 0, 76, 79
2, 47877, Note_on_c, 0, 72, 0
2, 47887, Note_on_c, 0, 72, 60
2, 47888, Note_on_c, 0, 48, 49
2, 47888, Note_on_c, 0, 55, 43
2, 47888, Note_on_c, 0, 60, 51
2, 47900, Note_on_c, 0, 103, 0
2, 47907, Note_on_c, 0, 100, 0
2, 47908, Note_on_c, 0, 93, 0
2, 47908, Note_on_c, 0, 86, 0
2, 47908, Note_on_c, 0, 91, 0
2, 47909, Note_on_c, 0, 84, 0
2, 47909, Control_c, 0, 64, 0
2, 47909, Note_on_c, 0, 74, 0
2, 47909, Note_on_c, 0, 98, 0
2, 47909, Note_on_c, 0, 81, 0
2, 47909, Note_on_c, 0, 71, 0
2, 47910, Note_on_c, 0, 95, 0
2, 47910, Note_on_c, 0, 96, 0
2, 47910, Note_on_c, 0, 83, 0
2, 47910, Note_on_c, 0, 89, 0
2, 47911, Note_on_c, 0, 79, 0
2, 47912, Note_on_c, 0, 77, 0
2, 47923, Note_on_c, 0, 88, 0
2, 47923, Note_on_c, 0, 101, 0
2, 47930, Note_on_c, 0, 67, 0
2, 48000, Control_c, 0, 64, 127
2, 48437, Note_on_c, 0, 55, 0
2, 48448, Note_on_c, 0, 55, 52
2, 48457, Note_on_c, 0, 64, 54
2, 48460, Note_on_c, 0, 60, 0
2, 48465, Note_on_c, 0, 60, 47
2, 49021, Note_on_c, 0, 55, 0
2, 49021, Note_on_c, 0, 64, 0
2, 49026, Note_on_c, 0, 64, 51
2, 49027, Note_on_c, 0, 55, 43
2, 49029, Note_on_c, 0, 60, 0
2, 49033, Note_on_c, 0, 60, 49
2, 49038, Note_on_c, 0, 59, 53
2, 49582, Note_on_c, 0, 55, 0
2, 49582, Note_on_c, 0, 60, 0
2, 49582, Note_on_c, 0, 64, 0
2, 49588, Note_on_c, 0, 64, 62
2, 49589, Note_on_c, 0, 55, 48
2, 49589, Note_on_c, 0, 60, 52
2, 49850, Note_on_c, 0, 72, 0
2, 49860, Note_on_c, 0, 72, 72
2, 49980, Note_on_c, 0, 79, 88
2, 50000, Note_on_c, 0, 40, 54
2, 50063, Note_on_c, 0, 64, 0
2, 50064, Note_on_c, 0, 60, 0
2, 50064, Note_on_c, 0, 55, 0
2, 50064, Note_on_c, 0, 59, 0
2, 50065, Note_on_c, 0, 72, 0
2, 50065, Note_on_c, 0, 76, 0
2, 50066, Note_on_c, 0, 48, 0
2, 50067, Control_c, 0, 64, 0
2, 50104, Control_c, 0, 64, 127
2, 50115, Note_on_c, 0, 47, 60
2, 50116, Note_on_c, 0, 68, 61
2, 50128, Note_on_c, 0, 72, 55
2, 50158, Note_on_c, 0, 79, 0
2, 50166, Note_on_c, 0, 79, 97
2, 50185, Note_on_c, 0, 56, 61
2, 50564, Note_on_c, 0, 77, 89
2, 50672, Note_on_c, 0, 56, 0
2, 50676, Note_on_c, 0, 64, 62
2, 50677, Note_on_c, 0, 56, 57
2, 50694, Note_on_c, 0, 59, 47
2, 50713, Note_on_c, 0, 62, 49
2, 50987, Note_on_c, 0, 76, 79
2, 51233, Note_on_c, 0, 59, 0
2, 51233, Note_on_c, 0, 62, 0
2, 51233, Note_on_c, 0, 64, 0
2, 51240, Note_on_c, 0, 56, 0
2, 51241, Note_on_c, 0, 64, 61
2, 51242, Note_on_c, 0, 62, 50
2, 51242, Note_on_c, 0, 59, 55
2, 51247, Note_on_c, 0, 56, 52
2, 51517, Note_on_c, 0, 72, 0
2, 51524, Note_on_c, 0, 72, 77
2, 51801, Note_on_c, 0, 74, 82
2, 51805, Note_on_c, 0, 44, 59
2, 51809, Note_on_c, 0, 59, 0
2, 51814, Note_on_c, 0, 59, 57
2, 51816, Note_on_c, 0, 62, 0
2, 51816, Note_on_c, 0, 64, 0
2, 51816, Note_on_c, 0, 56, 0
2, 51820, Note_on_c, 0, 52, 57
2, 51825, Note_on_c, 0, 64, 59
2, 51827, Note_on_c, 0, 62, 57
2, 52062, Note_on_c, 0, 72, 0
2, 52071, Note_on_c, 0, 72, 81
2, 52331, Note_on_c, 0, 74, 0
2, 52336, Note_on_c, 0, 74, 80
2, 52340, Note_on_c, 0, 40, 0
2, 52341, Note_on_c, 0, 47, 0
2, 52341, Note_on_c, 0, 62, 0
2, 52341, Note_on_c, 0, 79, 0
2, 52341, Note_on_c, 0, 77, 0
2, 52341, Note_on_c, 0, 72, 0
2, 52342, Note_on_c, 0, 76, 0
2, 52344, Control_c, 0, 64, 0
2, 52346, Note_on_c, 0, 44, 0
2, 52346, Note_on_c, 0, 59, 0
2, 52346, Note_on_c, 0, 68, 0
2, 52353, Note_on_c, 0, 69, 65
2, 52354, Note_on_c, 0, 64, 0
2, 52358, Note_on_c, 0, 60, 54
2, 52358, Note_on_c, 0, 57, 54
2, 52359, Note_on_c, 0, 64, 62
2, 52362, Note_on_c, 0, 52, 0
2, 52362, Note_on_c, 0, 45, 55
2, 52366, Note_on_c, 0, 52, 53
2, 52446, Control_c, 0, 64, 127
2, 52752, Note_on_c, 0, 72, 66
2, 52815, Note_on_c, 0, 74, 0
2, 52821, Note_on_c, 0, 74, 77
2, 52884, Note_on_c, 0, 64, 0
2, 52884, Note_on_c, 0, 72, 0
2, 52889, Note_on_c, 0, 72, 78
2, 52892, Note_on_c, 0, 57, 0
2, 52894, Note_on_c, 0, 64, 67
2, 52899, Note_on_c, 0, 60, 0
2, 52902, Note_on_c, 0, 57, 59
2, 52910, Note_on_c, 0, 60, 54
2, 53452, Note_on_c, 0, 57, 0
2, 53452, Note_on_c, 0, 60, 0
2, 53452, Note_on_c, 0, 64, 0
2, 53457, Note_on_c, 0, 57, 56
2, 53457, Note_on_c, 0, 59, 63
2, 53458, Note_on_c, 0, 64, 55
2, 53461, Note_on_c, 0, 60, 49
2, 54005, Note_on_c, 0, 60, 0
2, 54005, Note_on_c, 0, 64, 0
2, 54013, Note_on_c, 0, 52, 0
2, 54013, Note_on_c, 0, 57, 0
2, 54014, Note_on_c, 0, 64, 65
2, 54016, Note_on_c, 0, 60, 56
2, 54017, Note_on_c, 0, 57, 46
2, 54023, Note_on_c, 0, 52, 38
2, 54280, Note_on_c, 0, 71, 83
2, 54405, Note_on_c, 0, 72, 0
2, 54415, Note_on_c, 0, 72, 77
2, 54535, Note_on_c, 0, 71, 0
2, 54542, Note_on_c, 0, 71, 79
2, 54547, Note_on_c, 0, 74, 0
2, 54547, Note_on_c, 0, 45, 0
2, 54548, Note_on_c, 0, 57, 0
2, 54548, Note_on_c, 0, 72, 0
2, 54549, Note_on_c, 0, 60, 0
2, 54554, Control_c, 0, 64, 0
2, 54558, Note_on_c, 0, 59, 0
2, 54558, Note_on_c, 0, 64, 0
2, 54558, Note_on_c, 0, 69, 0
2, 54564, Note_on_c, 0, 67, 73
2, 54566, Note_on_c, 0, 52, 0
2, 54569, Note_on_c, 0, 59, 63
2, 54569, Note_on_c, 0, 64, 62
2, 54570, Note_on_c, 0, 43, 49
2, 54571, Note_on_c, 0, 52, 58
2, 54650, Control_c, 0, 64, 127
2, 55080, Note_on_c, 0, 64, 0
2, 55085, Note_on_c, 0, 72, 79
2, 55085, Note_on_c, 0, 55, 55
2, 55088, Note_on_c, 0, 59, 0
2, 55091, Note_on_c, 0, 64, 67
2, 55096, Note_on_c, 0, 59, 52
2, 55349, Note_on_c, 0, 71, 0
2, 55355, Note_on_c, 0, 71, 86
2, 55618, Note_on_c, 0, 55, 0
2, 55618, Note_on_c, 0, 59, 0
2, 55626, Note_on_c, 0, 43, 0
2, 55626, Note_on_c, 0, 62, 57
2, 55627, Note_on_c, 0, 59, 57
2, 55628, Note_on_c, 0, 55, 56
2, 55635, Note_on_c, 0, 43, 47
2, 55887, Note_on_c, 0, 67, 0
2, 55894, Note_on_c, 0, 67, 83
2, 56156, Note_on_c, 0, 62, 0
2, 56161, Control_c, 0, 64, 0
2, 56162, Note_on_c, 0, 72, 0
2, 56162, Note_on_c, 0, 52, 0
2, 56163, Note_on_c, 0, 55, 0
2, 56163, Note_on_c, 0, 71, 0
2, 56166, Note_on_c, 0, 62, 52
2, 56169, Note_on_c, 0, 40, 42
2, 56171, Note_on_c, 0, 59, 0
2, 56172, Note_on_c, 0, 47, 47
2, 56174, Note_on_c, 0, 55, 44
2, 56176, Note_on_c, 0, 59, 47
2, 56179, Note_on_c, 0, 64, 0
2, 56186, Note_on_c, 0, 43, 0
2, 56217, Control_c, 0, 64, 127
2, 56440, Note_on_c, 0, 67, 0
2, 56445, Note_on_c, 0, 67, 83
2, 56696, Note_on_c, 0, 62, 0
2, 56696, Note_on_c, 0, 47, 0
2, 56697, Note_on_c, 0, 59, 0
2, 56697, Note_on_c, 0, 55, 0
2, 56698, Control_c, 0, 64, 0
2, 56701, Note_on_c, 0, 40, 0
2, 56701, Note_on_c, 0, 67, 0
2, 56707, Note_on_c, 0, 67, 77
2, 56717, Note_on_c, 0, 64, 61
2, 56722, Note_on_c, 0, 41, 54
2, 56722, Note_on_c, 0, 60, 58
2, 56725, Note_on_c, 0, 57, 59
2, 56727, Note_on_c, 0, 48, 52
2, 56770, Control_c, 0, 64, 127
2, 56981, Note_on_c, 0, 69, 74
2, 57116, Note_on_c, 0, 69, 0
2, 57123, Note_on_c, 0, 69, 69
2, 57254, Note_on_c, 0, 57, 0
2, 57255, Note_on_c, 0, 55, 55
2, 57258, Note_on_c, 0, 53, 60
2, 57258, Note_on_c, 0, 57, 53
2, 57262, Note_on_c, 0, 41, 0
2, 57266, Note_on_c, 0, 41, 48
2, 57822, Note_on_c, 0, 53, 0
2, 57822, Note_on_c, 0, 55, 0
2, 57827, Note_on_c, 0, 55, 53
2, 57832, Note_on_c, 0, 59, 67
2, 57833, Note_on_c, 0, 53, 53
2, 58360, Note_on_c, 0, 55, 0
2, 58360, Note_on_c, 0, 60, 0
2, 58369, Note_on_c, 0, 60, 61
2, 58371, Note_on_c, 0, 55, 57
2, 58398, Note_on_c, 0, 53, 0
2, 58408, Note_on_c, 0, 53, 54
2, 58429, Note_on_c, 0, 48, 0
2, 58637, Note_on_c, 0, 72, 75
2, 58887, Note_on_c, 0, 41, 0
2, 58887, Note_on_c, 0, 53, 0
2, 58887, Note_on_c, 0, 57, 0
2, 58887, Note_on_c, 0, 69, 0
2, 58888, Note_on_c, 0, 72, 0
2, 58889, Note_on_c, 0, 59, 0
2, 58892, Control_c, 0, 64, 0
2, 58897, Note_on_c, 0, 60, 0
2, 58905, Note_on_c, 0, 67, 0
2, 58910, Note_on_c, 0, 67, 77
2, 58913, Note_on_c, 0, 55, 0
2, 58913, Note_on_c, 0, 64, 0
2, 58919, Note_on_c, 0, 64, 64
2, 58923, Note_on_c, 0, 55, 51
2, 58924, Note_on_c, 0, 40, 47
2, 58930, Note_on_c, 0, 48, 46
2, 58931, Note_on_c, 0, 60, 49
2, 58997, Control_c, 0, 64, 127
2, 59435, Note_on_c, 0, 48, 0
2, 59435, Note_on_c, 0, 55, 0
2, 59435, Note_on_c, 0, 60, 0
2, 59439, Note_on_c, 0, 60, 62
2, 59440, Note_on_c, 0, 55, 55
2, 59446, Note_on_c, 0, 48, 39
2, 59448, Note_on_c, 0, 52, 52
2, 59973, Note_on_c, 0, 55, 0
2, 59980, Note_on_c, 0, 52, 0
2, 59984, Note_on_c, 0, 55, 52
2, 59988, Note_on_c, 0, 52, 42
2, 60001, Note_on_c, 0, 62, 63
2, 60021, Control_c, 0, 64, 0
2, 60049, Control_c, 0, 64, 127
2, 60541, Note_on_c, 0, 55, 0
2, 60541, Note_on_c, 0, 64, 0
2, 60546, Note_on_c, 0, 64, 67
2, 60549, Note_on_c, 0, 52, 0
2, 60551, Note_on_c, 0, 55, 60
2, 60553, Note_on_c, 0, 60, 0
2, 60554, Note_on_c, 0, 52, 57
2, 60811, Note_on_c, 0, 74, 79
2, 60937, Note_on_c, 0, 76, 85
2, 61068, Note_on_c, 0, 40, 0
2, 61069, Note_on_c, 0, 74, 0
2, 61069, Note_on_c, 0, 52, 0
2, 61069, Note_on_c, 0, 67, 0
2, 61069, Note_on_c, 0, 62, 0
2, 61069, Note_on_c, 0, 55, 0
2, 61070, Note_on_c, 0, 64, 0
2, 61072, Control_c, 0, 64, 0
2, 61079, Note_on_c, 0, 48, 0
2, 61079, Note_on_c, 0, 76, 0
2, 61082, Note_on_c, 0, 76, 78
2, 61083, Note_on_c, 0, 38, 52
2, 61093, Note_on_c, 0, 50, 54
2, 61094, Note_on_c, 0, 38, 0
2, 61094, Note_on_c, 0, 72, 66
2, 61098, Note_on_c, 0, 53, 58
2, 61100, Note_on_c, 0, 45, 55
2, 61103, Note_on_c, 0, 69, 65
2, 61148, Control_c, 0, 64, 127
2, 61348, Note_on_c, 0, 77, 87
2, 61470, Note_on_c, 0, 77, 0
2, 61481, Note_on_c, 0, 77, 89
2, 61624, Note_on_c, 0, 45, 0
2, 61624, Note_on_c, 0, 53, 0
2, 61627, Note_on_c, 0, 57, 61
2, 61628, Note_on_c, 0, 60, 59
2, 61635, Note_on_c, 0, 53, 59
2, 61635, Note_on_c, 0, 45, 52
2, 62184, Note_on_c, 0, 53, 0
2, 62184, Note_on_c, 0, 72, 0
2, 62192, Note_on_c, 0, 60, 0
2, 62194, Note_on_c, 0, 53, 54
2, 62195, Note_on_c, 0, 65, 57
2, 62196, Note_on_c, 0, 72, 66
2, 62198, Note_on_c, 0, 68, 60
2, 62200, Note_on_c, 0, 50, 0
2, 62203, Note_on_c, 0, 60, 52
2, 62204, Note_on_c, 0, 56, 50
2, 62205, Note_on_c, 0, 50, 48
2, 62209, Control_c, 0, 64, 0
2, 62220, Note_on_c, 0, 45, 0
2, 62221, Note_on_c, 0, 69, 0
2, 62221, Note_on_c, 0, 57, 0
2, 62222, Note_on_c, 0, 77, 0
2, 62222, Note_on_c, 0, 76, 0
2, 62315, Control_c, 0, 64, 127
2, 62730, Note_on_c, 0, 53, 0
2, 62730, Note_on_c, 0, 56, 0
2, 62730, Note_on_c, 0, 60, 0
2, 62736, Note_on_c, 0, 53, 60
2, 62737, Note_on_c, 0, 68, 0
2, 62740, Note_on_c, 0, 56, 63
2, 62740, Note_on_c, 0, 60, 61
2, 62741, Note_on_c, 0, 68, 59
2, 63007, Note_on_c, 0, 76, 82
2, 63264, Note_on_c, 0, 74, 75
2, 63265, Note_on_c, 0, 68, 0
2, 63268, Note_on_c, 0, 76, 0
2, 63269, Control_c, 0, 64, 0
2, 63275, Note_on_c, 0, 50, 0
2, 63275, Note_on_c, 0, 65, 0
2, 63281, Note_on_c, 0, 69, 49
2, 63282, Note_on_c, 0, 43, 56
2, 63283, Note_on_c, 0, 53, 0
2, 63283, Note_on_c, 0, 56, 0
2, 63283, Note_on_c, 0, 60, 0
2, 63283, Note_on_c, 0, 72, 0
2, 63283, Note_on_c, 0, 55, 58
2, 63286, Note_on_c, 0, 65, 52
2, 63360, Control_c, 0, 64, 127
2, 63540, Note_on_c, 0, 50, 61
2, 63682, Note_on_c, 0, 53, 60
2, 63792, Note_on_c, 0, 57, 66
2, 63917, Note_on_c, 0, 60, 74
2, 64061, Note_on_c, 0, 62, 69
2, 64062, Note_on_c, 0, 72, 76
2, 64158, Note_on_c, 0, 53, 0
2, 64158, Note_on_c, 0, 65, 0
2, 64167, Note_on_c, 0, 65, 75
2, 64169, Note_on_c, 0, 53, 53
2, 64320, Note_on_c, 0, 55, 0
2, 64329, Note_on_c, 0, 43, 0
2, 64329, Note_on_c, 0, 60, 0
2, 64330, Note_on_c, 0, 50, 0
2, 64330, Note_on_c, 0, 53, 0
2, 64330, Note_on_c, 0, 74, 0
2, 64330, Note_on_c, 0, 57, 0
2, 64330, Note_on_c, 0, 69, 0
2, 64330, Note_on_c, 0, 65, 0
2, 64331, Note_on_c, 0, 72, 0
2, 64331, Control_c, 0, 64, 0
2, 64335, Note_on_c, 0, 71, 75
2, 64350, Note_on_c, 0, 62, 0
2, 64354, Note_on_c, 0, 55, 50
2, 64355, Note_on_c, 0, 62, 50
2, 64355, Note_on_c, 0, 67, 52
2, 64442, Control_c, 0, 64, 127
2, 64855, Note_on_c, 0, 79, 62
2, 64889, Note_on_c, 0, 91, 83
2, 65423, Control_c, 0, 64, 0
2, 65429, Note_on_c, 0, 67, 0
2, 65430, Note_on_c, 0, 71, 0
2, 65430, Note_on_c, 0, 62, 0
2, 65431, Note_on_c, 0, 91, 0
2, 65431, Note_on_c, 0, 55, 0
2, 65435, Note_on_c, 0, 88, 101
2, 65448, Note_on_c, 0, 79, 0
2, 65453, Note_on_c, 0, 76, 77
2, 65456, Note_on_c, 0, 79, 75
2, 65458, Note_on_c, 0, 36, 60
2, 65459, Note_on_c, 0, 48, 62
2, 65459, Note_on_c, 0, 84, 77
2, 65502, Control_c, 0, 64, 127
2, 65520, Note_on_c, 0, 36, 0
2, 65991, Note_on_c, 0, 64, 65
2, 66019, Note_on_c, 0, 60, 50
2, 66266, Note_on_c, 0, 55, 55
2, 66524, Note_on_c, 0, 60, 0
2, 66524, Note_on_c, 0, 64, 0
2, 66529, Note_on_c, 0, 60, 58
2, 66530, Note_on_c, 0, 64, 72
2, 66792, Note_on_c, 0, 55, 0
2, 66797, Note_on_c, 0, 55, 68
2, 67061, Note_on_c, 0, 60, 0
2, 67061, Note_on_c, 0, 64, 0
2, 67070, Note_on_c, 0, 64, 83
2, 67072, Note_on_c, 0, 60, 74
2, 67192, Note_on_c, 0, 84, 0
2, 67200, Note_on_c, 0, 84, 96
2, 67201, Note_on_c, 0, 72, 80
2, 67299, Note_on_c, 0, 55, 0
2, 67304, Note_on_c, 0, 55, 60
2, 67430, Note_on_c, 0, 79, 0
2, 67435, Note_on_c, 0, 91, 98
2, 67440, Note_on_c, 0, 79, 92
2, 67475, Note_on_c, 0, 88, 0
2, 67475, Note_on_c, 0, 55, 0
2, 67475, Note_on_c, 0, 76, 0
2, 67476, Note_on_c, 0, 64, 0
2, 67476, Note_on_c, 0, 72, 0
2, 67477, Note_on_c, 0, 84, 0
2, 67478, Control_c, 0, 64, 0
2, 67484, Note_on_c, 0, 48, 0
2, 67491, Note_on_c, 0, 60, 0
2, 67511, Note_on_c, 0, 40, 62
2, 67537, Control_c, 0, 64, 127
2, 67579, Note_on_c, 0, 47, 66
2, 67622, Note_on_c, 0, 79, 0
2, 67622, Note_on_c, 0, 91, 0
2, 67627, Note_on_c, 0, 91, 98
2, 67631, Note_on_c, 0, 84, 90
2, 67632, Note_on_c, 0, 56, 80
2, 67632, Note_on_c, 0, 79, 91
2, 67883, Note_on_c, 0, 52, 64
2, 68010, Note_on_c, 0, 89, 97
2, 68020, Note_on_c, 0, 77, 84
2, 68144, Note_on_c, 0, 56, 0
2, 68148, Note_on_c, 0, 64, 69
2, 68150, Note_on_c, 0, 59, 70
2, 68150, Note_on_c, 0, 56, 64
2, 68419, Note_on_c, 0, 88, 103
2, 68426, Note_on_c, 0, 40, 0
2, 68434, Note_on_c, 0, 76, 82
2, 68436, Note_on_c, 0, 52, 0
2, 68446, Note_on_c, 0, 52, 68
2, 68689, Note_on_c, 0, 88, 0
2, 68700, Note_on_c, 0, 88, 105
2, 68705, Note_on_c, 0, 76, 0
2, 68709, Note_on_c, 0, 76, 88
2, 68712, Note_on_c, 0, 64, 0
2, 68716, Note_on_c, 0, 80, 82
2, 68719, Note_on_c, 0, 83, 70
2, 68720, Note_on_c, 0, 52, 0
2, 68720, Note_on_c, 0, 59, 0
2, 68720, Note_on_c, 0, 64, 74
2, 68726, Note_on_c, 0, 52, 65
2, 68728, Note_on_c, 0, 56, 0
2, 68728, Note_on_c, 0, 83, 0
2, 68730, Note_on_c, 0, 59, 68
2, 68733, Note_on_c, 0, 56, 69
2, 68917, Note_on_c, 0, 86, 100
2, 68920, Note_on_c, 0, 77, 0
2, 68925, Note_on_c, 0, 74, 85
2, 68930, Note_on_c, 0, 77, 66
2, 69073, Note_on_c, 0, 84, 0
2, 69078, Note_on_c, 0, 84, 95
2, 69085, Note_on_c, 0, 72, 84
2, 69222, Note_on_c, 0, 47, 0
2, 69222, Note_on_c, 0, 80, 0
2, 69222, Note_on_c, 0, 88, 0
2, 69223, Note_on_c, 0, 64, 0
2, 69223, Note_on_c, 0, 74, 0
2, 69223, Note_on_c, 0, 91, 0
2, 69223, Note_on_c, 0, 72, 0
2, 69223, Note_on_c, 0, 89, 0
2, 69223, Note_on_c, 0, 77, 0
2, 69223, Note_on_c, 0, 79, 0
2, 69223, Note_on_c, 0, 86, 0
2, 69223, Note_on_c, 0, 84, 0
2, 69224, Control_c, 0, 64, 0
2, 69235, Note_on_c, 0, 52, 0
2, 69235, Note_on_c, 0, 56, 0
2, 69235, Note_on_c, 0, 59, 0
2, 69235, Note_on_c, 0, 76, 0
2, 69236, Note_on_c, 0, 83, 93
2, 69242, Note_on_c, 0, 76, 81
2, 69243, Note_on_c, 0, 52, 68
2, 69243, Note_on_c, 0, 59, 75
2, 69244, Note_on_c, 0, 44, 70
2, 69246, Note_on_c, 0, 71, 81
2, 69296, Control_c, 0, 64, 127
2, 69424, Note_on_c, 0, 84, 98
2, 69432, Note_on_c, 0, 72, 74
2, 69527, Note_on_c, 0, 52, 0
2, 69538, Note_on_c, 0, 52, 58
2, 69543, Note_on_c, 0, 64, 51
2, 69550, Note_on_c, 0, 64, 0
2, 69590, Note_on_c, 0, 86, 99
2, 69592, Note_on_c, 0, 74, 80
2, 69746, Note_on_c, 0, 84, 0
2, 69747, Note_on_c, 0, 59, 0
2, 69747, Note_on_c, 0, 72, 0
2, 69747, Note_on_c, 0, 44, 0
2, 69747, Note_on_c, 0, 71, 0
2, 69749, Control_c, 0, 64, 0
2, 69765, Note_on_c, 0, 74, 0
2, 69765, Note_on_c, 0, 83, 0
2, 69765, Note_on_c, 0, 86, 0
2, 69769, Note_on_c, 0, 86, 94
2, 69772, Note_on_c, 0, 76, 0
2, 69774, Note_on_c, 0, 83, 82
2, 69774, Note_on_c, 0, 74, 82
2, 69776, Note_on_c, 0, 45, 72
2, 69776, Note_on_c, 0, 60, 71
2, 69780, Note_on_c, 0, 76, 80
2, 69826, Control_c, 0, 64, 127
2, 69872, Note_on_c, 0, 52, 0
2, 70047, Note_on_c, 0, 57, 65
2, 70154, Note_on_c, 0, 84, 75
2, 70202, Note_on_c, 0, 86, 0
2, 70214, Note_on_c, 0, 86, 88
2, 70295, Note_on_c, 0, 60, 0
2, 70305, Note_on_c, 0, 64, 67
2, 70305, Note_on_c, 0, 60, 64
2, 70325, Note_on_c, 0, 84, 0
2, 70330, Note_on_c, 0, 84, 74
2, 70333, Note_on_c, 0, 76, 0
2, 70341, Note_on_c, 0, 83, 0
2, 70344, Note_on_c, 0, 76, 67
2, 70351, Note_on_c, 0, 83, 59
2, 70571, Note_on_c, 0, 57, 0
2, 70578, Note_on_c, 0, 57, 60
2, 70832, Note_on_c, 0, 60, 0
2, 70832, Note_on_c, 0, 64, 0
2, 70837, Note_on_c, 0, 60, 56
2, 70837, Note_on_c, 0, 64, 62
2, 71101, Note_on_c, 0, 57, 0
2, 71112, Note_on_c, 0, 57, 64
2, 71377, Note_on_c, 0, 64, 0
2, 71385, Note_on_c, 0, 60, 0
2, 71389, Note_on_c, 0, 64, 76
2, 71391, Note_on_c, 0, 60, 63
2, 71631, Note_on_c, 0, 57, 0
2, 71631, Note_on_c, 0, 83, 0
2, 71639, Note_on_c, 0, 57, 71
2, 71642, Note_on_c, 0, 83, 90
2, 71658, Note_on_c, 0, 71, 76
2, 71897, Note_on_c, 0, 74, 0
2, 71898, Note_on_c, 0, 86, 0
2, 71899, Note_on_c, 0, 71, 0
2, 71899, Note_on_c, 0, 57, 0
2, 71899, Note_on_c, 0, 64, 0
2, 71899, Note_on_c, 0, 76, 0
2, 71899, Note_on_c, 0, 83, 0
2, 71900, Note_on_c, 0, 60, 0
2, 71900, Note_on_c, 0, 84, 0
2, 71901, Control_c, 0, 64, 0
2, 71915, Note_on_c, 0, 45, 0
2, 71930, Note_on_c, 0, 81, 91
2, 71943, Note_on_c, 0, 52, 56
2, 71943, Note_on_c, 0, 73, 77
2, 71945, Note_on_c, 0, 69, 73
2, 71950, Note_on_c, 0, 43, 52
2, 71976, Control_c, 0, 64, 127
2, 72199, Note_on_c, 0, 57, 73
2, 72314, Note_on_c, 0, 73, 0
2, 72322, Note_on_c, 0, 85, 92
2, 72326, Note_on_c, 0, 73, 78
2, 72468, Note_on_c, 0, 64, 74
2, 72469, Note_on_c, 0, 61, 69
2, 72609, Note_on_c, 0, 86, 98
2, 72612, Note_on_c, 0, 74, 82
2, 72752, Note_on_c, 0, 57, 0
2, 72756, Note_on_c, 0, 57, 70
2, 72864, Note_on_c, 0, 88, 101
2, 72881, Note_on_c, 0, 76, 79
2, 72998, Note_on_c, 0, 88, 0
2, 73006, Note_on_c, 0, 64, 0
2, 73006, Note_on_c, 0, 76, 0
2, 73009, Note_on_c, 0, 88, 107
2, 73012, Note_on_c, 0, 64, 82
2, 73013, Note_on_c, 0, 61, 0
2, 73013, Note_on_c, 0, 81, 0
2, 73015, Note_on_c, 0, 76, 97
2, 73017, Note_on_c, 0, 61, 73
2, 73017, Note_on_c, 0, 81, 86
2, 73193, Note_on_c, 0, 89, 100
2, 73196, Note_on_c, 0, 77, 90
2, 73267, Note_on_c, 0, 57, 0
2, 73271, Note_on_c, 0, 57, 78
2, 73364, Note_on_c, 0, 91, 99
2, 73370, Note_on_c, 0, 79, 94
2, 73503, Control_c, 0, 64, 0
2, 73503, Note_on_c, 0, 52, 0
2, 73503, Note_on_c, 0, 86, 0
2, 73503, Note_on_c, 0, 64, 0
2, 73503, Note_on_c, 0, 74, 0
2, 73504, Note_on_c, 0, 69, 0
2, 73504, Note_on_c, 0, 61, 0
2, 73504, Note_on_c, 0, 88, 0
2, 73504, Note_on_c, 0, 57, 0
2, 73505, Note_on_c, 0, 73, 0
2, 73505, Note_on_c, 0, 89, 0
2, 73506, Note_on_c, 0, 76, 0
2, 73506, Note_on_c, 0, 77, 0
2, 73507, Note_on_c, 0, 79, 0
2, 73507, Note_on_c, 0, 91, 0
2, 73520, Note_on_c, 0, 43, 0
2, 73528, Note_on_c, 0, 81, 0
2, 73528, Note_on_c, 0, 85, 0
2, 73531, Note_on_c, 0, 93, 108
2, 73532, Note_on_c, 0, 37, 76
2, 73535, Note_on_c, 0, 49, 77
2, 73536, Note_on_c, 0, 81, 99
2, 73537, Note_on_c, 0, 85, 101
2, 73566, Control_c, 0, 64, 127
2, 73717, Note_on_c, 0, 91, 95
2, 73719, Note_on_c, 0, 79, 93
2, 73796, Note_on_c, 0, 57, 78
2, 73877, Note_on_c, 0, 89, 99
2, 73884, Note_on_c, 0, 77, 93
2, 74056, Control_c, 0, 64, 0
2, 74057, Note_on_c, 0, 85, 0
2, 74058, Note_on_c, 0, 93, 0
2, 74059, Note_on_c, 0, 49, 0
2, 74060, Note_on_c, 0, 91, 0
2, 74060, Note_on_c, 0, 57, 0
2, 74060, Note_on_c, 0, 79, 0
2, 74062, Note_on_c, 0, 37, 0
2, 74070, Note_on_c, 0, 50, 81
2, 74071, Note_on_c, 0, 88, 101
2, 74073, Note_on_c, 0, 38, 78
2, 74073, Note_on_c, 0, 77, 0
2, 74073, Note_on_c, 0, 81, 0
2, 74080, Note_on_c, 0, 81, 85
2, 74081, Note_on_c, 0, 77, 87
2, 74119, Control_c, 0, 64, 127
2, 74120, Note_on_c, 0, 82, 48
2, 74280, Note_on_c, 0, 89, 0
2, 74345, Note_on_c, 0, 53, 73
2, 74442, Note_on_c, 0, 89, 85
2, 74457, Note_on_c, 0, 81, 0
2, 74467, Note_on_c, 0, 81, 47
2, 74503, Note_on_c, 0, 88, 0
2, 74509, Note_on_c, 0, 88, 95
2, 74602, Note_on_c, 0, 62, 72
2, 74608, Note_on_c, 0, 57, 64
2, 74611, Note_on_c, 0, 86, 97
2, 74611, Note_on_c, 0, 77, 0
2, 74620, Note_on_c, 0, 77, 80
2, 74622, Note_on_c, 0, 74, 78
2, 74849, Note_on_c, 0, 53, 0
2, 74855, Note_on_c, 0, 53, 64
2, 75148, Note_on_c, 0, 50, 0
2, 75148, Note_on_c, 0, 57, 0
2, 75153, Note_on_c, 0, 61, 57
2, 75156, Note_on_c, 0, 69, 61
2, 75157, Note_on_c, 0, 50, 61
2, 75159, Note_on_c, 0, 57, 52
2, 75161, Note_on_c, 0, 89, 0
2, 75161, Note_on_c, 0, 88, 0
2, 75161, Control_c, 0, 64, 0
2, 75162, Note_on_c, 0, 53, 0
2, 75162, Note_on_c, 0, 38, 0
2, 75163, Note_on_c, 0, 62, 0
2, 75194, Note_on_c, 0, 82, 0
2, 75233, Note_on_c, 0, 61, 0
2, 75271, Control_c, 0, 64, 127
2, 75310, Note_on_c, 0, 69, 0
2, 75429, Note_on_c, 0, 53, 63
2, 75694, Note_on_c, 0, 57, 0
2, 75703, Note_on_c, 0, 57, 62
2, 75704, Note_on_c, 0, 62, 57
2, 75705, Note_on_c, 0, 69, 56
2, 75828, Note_on_c, 0, 84, 86
2, 75947, Note_on_c, 0, 53, 0
2, 75951, Note_on_c, 0, 53, 72
2, 75956, Note_on_c, 0, 83, 81
2, 76070, Note_on_c, 0, 81, 0
2, 76080, Note_on_c, 0, 81, 86
2, 76205, Note_on_c, 0, 74, 0
2, 76205, Note_on_c, 0, 62, 0
2, 76206, Note_on_c, 0, 57, 0
2, 76206, Note_on_c, 0, 53, 0
2, 76206, Note_on_c, 0, 81, 0
2, 76206, Note_on_c, 0, 77, 0
2, 76206, Note_on_c, 0, 84, 0
2, 76206, Control_c, 0, 64, 0
2, 76207, Note_on_c, 0, 83, 0
2, 76208, Note_on_c, 0, 86, 0
2, 76216, Note_on_c, 0, 50, 0
2, 76216, Note_on_c, 0, 69, 0
2, 76231, Note_on_c, 0, 79, 87
2, 76236, Note_on_c, 0, 40, 57
2, 76237, Note_on_c, 0, 52, 55
2, 76238, Note_on_c, 0, 76, 73
2, 76300, Control_c, 0, 64, 127
2, 76535, Note_on_c, 0, 55, 28
2, 76777, Note_on_c, 0, 64, 70
2, 76783, Note_on_c, 0, 60, 59
2, 77030, Note_on_c, 0, 55, 0
2, 77040, Note_on_c, 0, 55, 57
2, 77299, Note_on_c, 0, 52, 0
2, 77304, Note_on_c, 0, 52, 60
2, 77306, Note_on_c, 0, 60, 0
2, 77310, Note_on_c, 0, 63, 65
2, 77311, Control_c, 0, 64, 0
2, 77311, Note_on_c, 0, 60, 55
2, 77314, Note_on_c, 0, 55, 0
2, 77316, Note_on_c, 0, 64, 0
2, 77317, Note_on_c, 0, 79, 0
2, 77399, Control_c, 0, 64, 127
2, 77414, Note_on_c, 0, 40, 0
2, 77483, Note_on_c, 0, 76, 0
2, 77576, Note_on_c, 0, 55, 67
2, 77852, Note_on_c, 0, 60, 0
2, 77856, Note_on_c, 0, 64, 74
2, 77861, Note_on_c, 0, 60, 64
2, 77967, Note_on_c, 0, 84, 92
2, 78082, Note_on_c, 0, 55, 0
2, 78087, Note_on_c, 0, 55, 77
2, 78097, Note_on_c, 0, 86, 91
2, 78222, Note_on_c, 0, 88, 100
2, 78333, Note_on_c, 0, 52, 0
2, 78334, Note_on_c, 0, 60, 0
2, 78334, Note_on_c, 0, 55, 0
2, 78334, Note_on_c, 0, 63, 0
2, 78334, Note_on_c, 0, 86, 0
2, 78335, Note_on_c, 0, 64, 0
2, 78335, Control_c, 0, 64, 0
2, 78351, Note_on_c, 0, 88, 0
2, 78356, Note_on_c, 0, 88, 102
2, 78359, Note_on_c, 0, 84, 0
2, 78364, Note_on_c, 0, 84, 89
2, 78370, Note_on_c, 0, 41, 72
2, 78371, Note_on_c, 0, 53, 69
2, 78372, Note_on_c, 0, 81, 86
2, 78412, Control_c, 0, 64, 127
2, 78624, Note_on_c, 0, 89, 90
2, 78628, Note_on_c, 0, 57, 71
2, 78673, Note_on_c, 0, 41, 0
2, 78750, Note_on_c, 0, 89, 0
2, 78759, Note_on_c, 0, 89, 90
2, 78893, Note_on_c, 0, 65, 77
2, 78920, Note_on_c, 0, 60, 62
2, 79018, Note_on_c, 0, 72, 73
2, 79134, Note_on_c, 0, 57, 0
2, 79144, Note_on_c, 0, 57, 75
2, 79146, Note_on_c, 0, 74, 75
2, 79147, Note_on_c, 0, 69, 65
2, 79273, Note_on_c, 0, 76, 78
2, 79370, Note_on_c, 0, 88, 0
2, 79370, Note_on_c, 0, 74, 0
2, 79370, Note_on_c, 0, 81, 0
2, 79370, Note_on_c, 0, 89, 0
2, 79370, Note_on_c, 0, 53, 0
2, 79371, Note_on_c, 0, 57, 0
2, 79372, Note_on_c, 0, 60, 0
2, 79372, Control_c, 0, 64, 0
2, 79372, Note_on_c, 0, 65, 0
2, 79372, Note_on_c, 0, 72, 0
2, 79372, Note_on_c, 0, 84, 0
2, 79373, Note_on_c, 0, 69, 0
2, 79395, Note_on_c, 0, 76, 0
2, 79402, Note_on_c, 0, 76, 86
2, 79414, Note_on_c, 0, 72, 73
2, 79415, Note_on_c, 0, 68, 79
2, 79416, Note_on_c, 0, 41, 63
2, 79419, Note_on_c, 0, 53, 62
2, 79449, Control_c, 0, 64, 127
2, 79467, Note_on_c, 0, 41, 0
2, 79673, Note_on_c, 0, 77, 84
2, 79692, Note_on_c, 0, 56, 57
2, 79802, Note_on_c, 0, 77, 0
2, 79809, Note_on_c, 0, 77, 93
2, 79948, Note_on_c, 0, 53, 0
2, 79955, Note_on_c, 0, 65, 74
2, 79956, Note_on_c, 0, 53, 59
2, 79956, Note_on_c, 0, 60, 71
2, 80194, Note_on_c, 0, 56, 0
2, 80203, Note_on_c, 0, 89, 88
2, 80205, Note_on_c, 0, 56, 61
2, 80329, Note_on_c, 0, 88, 98
2, 80436, Control_c, 0, 64, 0
2, 80436, Note_on_c, 0, 76, 0
2, 80436, Note_on_c, 0, 60, 0
2, 80436, Note_on_c, 0, 68, 0
2, 80437, Note_on_c, 0, 65, 0
2, 80437, Note_on_c, 0, 72, 0
2, 80440, Note_on_c, 0, 53, 0
2, 80455, Note_on_c, 0, 56, 0
2, 80467, Note_on_c, 0, 86, 95
2, 80475, Note_on_c, 0, 81, 84
2, 80478, Note_on_c, 0, 77, 0
2, 80481, Note_on_c, 0, 43, 70
2, 80482, Note_on_c, 0, 77, 83
2, 80484, Note_on_c, 0, 55, 72
2, 80509, Control_c, 0, 64, 127
2, 80732, Note_on_c, 0, 55, 0
2, 80739, Note_on_c, 0, 43, 0
2, 80739, Note_on_c, 0, 77, 0
2, 80743, Note_on_c, 0, 55, 62
2, 80744, Note_on_c, 0, 77, 85
2, 80745, Note_on_c, 0, 43, 60
2, 80870, Note_on_c, 0, 43, 0
2, 80880, Note_on_c, 0, 43, 50
2, 80881, Note_on_c, 0, 76, 78
2, 81004, Note_on_c, 0, 74, 84
2, 81015, Note_on_c, 0, 65, 69
2, 81019, Note_on_c, 0, 62, 64
2, 81262, Note_on_c, 0, 86, 0
2, 81269, Note_on_c, 0, 55, 0
2, 81272, Note_on_c, 0, 86, 96
2, 81273, Note_on_c, 0, 55, 70
2, 81394, Note_on_c, 0, 84, 89
2, 81492, Note_on_c, 0, 89, 0
2, 81497, Control_c, 0, 64, 0
2, 81497, Note_on_c, 0, 74, 0
2, 81497, Note_on_c, 0, 81, 0
2, 81498, Note_on_c, 0, 65, 0
2, 81498, Note_on_c, 0, 77, 0
2, 81498, Note_on_c, 0, 86, 0
2, 81498, Note_on_c, 0, 62, 0
2, 81498, Note_on_c, 0, 55, 0
2, 81499, Note_on_c, 0, 43, 0
2, 81515, Note_on_c, 0, 76, 0
2, 81515, Note_on_c, 0, 88, 0
2, 81523, Note_on_c, 0, 84, 0
2, 81543, Note_on_c, 0, 83, 91
2, 81555, Note_on_c, 0, 79, 87
2, 81557, Note_on_c, 0, 74, 78
2, 81562, Note_on_c, 0, 43, 63
2, 81584, Control_c, 0, 64, 127
2, 81824, Note_on_c, 0, 72, 95
2, 81826, Note_on_c, 0, 60, 87
2, 82111, Note_on_c, 0, 76, 106
2, 82113, Note_on_c, 0, 64, 97
2, 82368, Note_on_c, 0, 74, 0
2, 82378, Note_on_c, 0, 74, 102
2, 82382, Note_on_c, 0, 62, 88
2, 82613, Note_on_c, 0, 43, 0
2, 82616, Control_c, 0, 64, 0
2, 82619, Note_on_c, 0, 62, 0
2, 82619, Note_on_c, 0, 64, 0
2, 82619, Note_on_c, 0, 74, 0
2, 82619, Note_on_c, 0, 76, 0
2, 82619, Note_on_c, 0, 83, 0
2, 82619, Note_on_c, 0, 79, 0
2, 82629, Note_on_c, 0, 60, 0
2, 82629, Note_on_c, 0, 72, 0
2, 82635, Note_on_c, 0, 72, 100
2, 82640, Note_on_c, 0, 60, 95
2, 82641, Note_on_c, 0, 41, 83
2, 82694, Note_on_c, 0, 41, 0
2, 82698, Control_c, 0, 64, 127
2, 82777, Note_on_c, 0, 53, 76
2, 82905, Note_on_c, 0, 60, 0
2, 82913, Note_on_c, 0, 72, 0
2, 82914, Note_on_c, 0, 60, 81
2, 82916, Note_on_c, 0, 84, 91
2, 82917, Note_on_c, 0, 72, 82
2, 83008, Note_on_c, 0, 59, 72
2, 83036, Note_on_c, 0, 84, 0
2, 83043, Note_on_c, 0, 72, 0
2, 83046, Note_on_c, 0, 84, 101
2, 83052, Note_on_c, 0, 72, 82
2, 83066, Note_on_c, 0, 60, 0
2, 83077, Note_on_c, 0, 79, 71
2, 83078, Note_on_c, 0, 60, 71
2, 83172, Note_on_c, 0, 62, 78
2, 83258, Note_on_c, 0, 60, 0
2, 83269, Note_on_c, 0, 60, 71
2, 83312, Note_on_c, 0, 72, 0
2, 83312, Note_on_c, 0, 84, 0
2, 83318, Note_on_c, 0, 84, 97
2, 83324, Note_on_c, 0, 72, 81
2, 83335, Note_on_c, 0, 62, 0
2, 83346, Note_on_c, 0, 62, 75
2, 83433, Note_on_c, 0, 64, 83
2, 83527, Note_on_c, 0, 62, 0
2, 83531, Note_on_c, 0, 62, 61
2, 83589, Note_on_c, 0, 72, 0
2, 83589, Note_on_c, 0, 84, 0
2, 83596, Note_on_c, 0, 84, 102
2, 83600, Note_on_c, 0, 72, 90
2, 83674, Note_on_c, 0, 59, 0
2, 83675, Note_on_c, 0, 79, 0
2, 83676, Note_on_c, 0, 64, 0
2, 83676, Note_on_c, 0, 53, 0
2, 83676, Note_on_c, 0, 62, 0
2, 83676, Note_on_c, 0, 60, 0
2, 83677, Control_c, 0, 64, 0
2, 83713, Note_on_c, 0, 53, 86
2, 83714, Note_on_c, 0, 65, 81
2, 83735, Control_c, 0, 64, 127
2, 83835, Note_on_c, 0, 64, 86
2, 83857, Note_on_c, 0, 84, 0
2, 83865, Note_on_c, 0, 72, 0
2, 83865, Note_on_c, 0, 84, 97
2, 83872, Note_on_c, 0, 72, 83
2, 83911, Note_on_c, 0, 65, 0
2, 83917, Note_on_c, 0, 65, 82
2, 83989, Note_on_c, 0, 67, 81
2, 84065, Note_on_c, 0, 65, 0
2, 84074, Note_on_c, 0, 65, 78
2, 84119, Note_on_c, 0, 84, 0
2, 84126, Note_on_c, 0, 72, 0
2, 84129, Note_on_c, 0, 84, 100
2, 84132, Note_on_c, 0, 72, 84
2, 84157, Note_on_c, 0, 67, 0
2, 84164, Note_on_c, 0, 67, 74
2, 84241, Note_on_c, 0, 69, 76
2, 84318, Note_on_c, 0, 67, 0
2, 84327, Note_on_c, 0, 67, 74
2, 84380, Note_on_c, 0, 84, 0
2, 84387, Note_on_c, 0, 72, 0
2, 84390, Note_on_c, 0, 84, 99
2, 84395, Note_on_c, 0, 69, 0
2, 84399, Note_on_c, 0, 72, 87
2, 84400, Note_on_c, 0, 69, 82
2, 84487, Note_on_c, 0, 71, 82
2, 84564, Note_on_c, 0, 69, 0
2, 84568, Note_on_c, 0, 69, 75
2, 84633, Note_on_c, 0, 71, 0
2, 84641, Note_on_c, 0, 71, 88
2, 84656, Note_on_c, 0, 69, 0
2, 84656, Note_on_c, 0, 72, 0
2, 84656, Note_on_c, 0, 84, 0
2, 84661, Note_on_c, 0, 84, 98
2, 84661, Note_on_c, 0, 69, 71
2, 84662, Note_on_c, 0, 72, 84
2, 84797, Note_on_c, 0, 67, 0
2, 84797, Note_on_c, 0, 65, 0
2, 84797, Note_on_c, 0, 69, 0
2, 84798, Note_on_c, 0, 71, 0
2, 84798, Note_on_c, 0, 72, 0
2, 84799, Control_c, 0, 64, 0
2, 84802, Note_on_c, 0, 84, 0
2, 84807, Note_on_c, 0, 96, 104
2, 84809, Note_on_c, 0, 43, 79
2, 84810, Note_on_c, 0, 53, 0
2, 84812, Note_on_c, 0, 84, 99
2, 84817, Note_on_c, 0, 64, 0
2, 84856, Control_c, 0, 64, 127
2, 84858, Note_on_c, 0, 43, 0
2, 84924, Note_on_c, 0, 55, 80
2, 85077, Note_on_c, 0, 95, 98
2, 85083, Note_on_c, 0, 83, 90
2, 85173, Note_on_c, 0, 71, 71
2, 85199, Note_on_c, 0, 93, 100
2, 85205, Note_on_c, 0, 81, 95
2, 85227, Note_on_c, 0, 72, 85
2, 85294, Note_on_c, 0, 71, 0
2, 85298, Note_on_c, 0, 71, 66
2, 85382, Note_on_c, 0, 69, 70
2, 85453, Note_on_c, 0, 91, 97
2, 85455, Note_on_c, 0, 71, 0
2, 85460, Note_on_c, 0, 71, 81
2, 85461, Note_on_c, 0, 79, 91
2, 85509, Note_on_c, 0, 69, 0
2, 85519, Note_on_c, 0, 69, 68
2, 85614, Note_on_c, 0, 55, 0
2, 85614, Note_on_c, 0, 67, 73
2, 85670, Note_on_c, 0, 69, 0
2, 85680, Note_on_c, 0, 69, 74
2, 85708, Note_on_c, 0, 91, 0
2, 85716, Note_on_c, 0, 79, 0
2, 85716, Note_on_c, 0, 91, 94
2, 85720, Note_on_c, 0, 79, 94
2, 85789, Note_on_c, 0, 91, 0
2, 85789, Note_on_c, 0, 93, 0
2, 85790, Note_on_c, 0, 95, 0
2, 85790, Note_on_c, 0, 71, 0
2, 85790, Note_on_c, 0, 96, 0
2, 85790, Note_on_c, 0, 83, 0
2, 85790, Note_on_c, 0, 69, 0
2, 85790, Note_on_c, 0, 67, 0
2, 85790, Control_c, 0, 64, 0
2, 85790, Note_on_c, 0, 81, 0
2, 85791, Note_on_c, 0, 72, 0
2, 85824, Note_on_c, 0, 84, 0
2, 85830, Note_on_c, 0, 84, 96
2, 85831, Note_on_c, 0, 67, 89
2, 85835, Note_on_c, 0, 55, 84
2, 85854, Control_c, 0, 64, 127
2, 85953, Note_on_c, 0, 65, 70
2, 86008, Note_on_c, 0, 67, 0
2, 86018, Note_on_c, 0, 67, 81
2, 86092, Note_on_c, 0, 65, 0
2, 86102, Note_on_c, 0, 65, 82
2, 86104, Note_on_c, 0, 83, 93
2, 86173, Note_on_c, 0, 64, 69
2, 86231, Note_on_c, 0, 65, 0
2, 86236, Note_on_c, 0, 65, 77
2, 86237, Note_on_c, 0, 81, 90
2, 86300, Note_on_c, 0, 64, 0
2, 86304, Note_on_c, 0, 64, 74
2, 86404, Note_on_c, 0, 62, 73
2, 86499, Note_on_c, 0, 64, 0
2, 86499, Note_on_c, 0, 79, 0
2, 86506, Note_on_c, 0, 64, 66
2, 86510, Note_on_c, 0, 79, 95
2, 86586, Note_on_c, 0, 60, 62
2, 86658, Note_on_c, 0, 72, 83
2, 86685, Note_on_c, 0, 59, 67
2, 86737, Note_on_c, 0, 60, 0
2, 86742, Note_on_c, 0, 60, 76
2, 86788, Note_on_c, 0, 74, 88
2, 86898, Control_c, 0, 64, 0
2, 86899, Note_on_c, 0, 81, 0
2, 86899, Note_on_c, 0, 62, 0
2, 86899, Note_on_c, 0, 60, 0
2, 86900, Note_on_c, 0, 79, 0
2, 86900, Note_on_c, 0, 64, 0
2, 86900, Note_on_c, 0, 59, 0
2, 86900, Note_on_c, 0, 72, 0
2, 86900, Note_on_c, 0, 84, 0
2, 86900, Note_on_c, 0, 65, 0
2, 86900, Note_on_c, 0, 83, 0
2, 86901, Note_on_c, 0, 55, 0
2, 86901, Note_on_c, 0, 74, 0
2, 86914, Note_on_c, 0, 67, 0
2, 86914, Note_on_c, 0, 76, 96
2, 86917, Note_on_c, 0, 45, 76
2, 86976, Control_c, 0, 64, 127
2, 87002, Note_on_c, 0, 57, 78
2, 87108, Note_on_c, 0, 59, 68
2, 87167, Note_on_c, 0, 60, 65
2, 87189, Note_on_c, 0, 77, 89
2, 87275, Note_on_c, 0, 59, 0
2, 87285, Note_on_c, 0, 59, 71
2, 87313, Note_on_c, 0, 76, 0
2, 87322, Note_on_c, 0, 76, 83
2, 87352, Note_on_c, 0, 60, 0
2, 87360, Note_on_c, 0, 60, 71
2, 87444, Note_on_c, 0, 62, 69
2, 87450, Note_on_c, 0, 88, 101
2, 87528, Note_on_c, 0, 60, 0
2, 87533, Note_on_c, 0, 60, 70
2, 87598, Note_on_c, 0, 62, 0
2, 87603, Note_on_c, 0, 62, 72
2, 87702, Note_on_c, 0, 64, 71
2, 87711, Note_on_c, 0, 72, 82
2, 87751, Note_on_c, 0, 60, 0
2, 87751, Note_on_c, 0, 62, 0
2, 87756, Note_on_c, 0, 62, 75
2, 87756, Note_on_c, 0, 60, 60
2, 87797, Note_on_c, 0, 45, 0
2, 87828, Note_on_c, 0, 64, 0
2, 87833, Note_on_c, 0, 64, 80
2, 87839, Note_on_c, 0, 74, 91
2, 87934, Control_c, 0, 64, 0
2, 87936, Note_on_c, 0, 74, 0
2, 87937, Note_on_c, 0, 57, 0
2, 87937, Note_on_c, 0, 60, 0
2, 87937, Note_on_c, 0, 62, 0
2, 87937, Note_on_c, 0, 59, 0
2, 87937, Note_on_c, 0, 88, 0
2, 87938, Note_on_c, 0, 64, 0
2, 87938, Note_on_c, 0, 72, 0
2, 87938, Note_on_c, 0, 77, 0
2, 87959, Note_on_c, 0, 76, 0
2, 87968, Note_on_c, 0, 45, 74
2, 87968, Note_on_c, 0, 76, 93
2, 88005, Control_c, 0, 64, 127
2, 88043, Note_on_c, 0, 57, 78
2, 88145, Note_on_c, 0, 59, 69
2, 88209, Note_on_c, 0, 60, 64
2, 88238, Note_on_c, 0, 77, 89
2, 88296, Note_on_c, 0, 59, 0
2, 88307, Note_on_c, 0, 59, 69
2, 88366, Note_on_c, 0, 76, 0
2, 88375, Note_on_c, 0, 76, 86
2, 88396, Note_on_c, 0, 60, 0
2, 88401, Note_on_c, 0, 60, 66
2, 88480, Note_on_c, 0, 62, 66
2, 88502, Note_on_c, 0, 88, 100
2, 88565, Note_on_c, 0, 60, 0
2, 88570, Note_on_c, 0, 60, 58
2, 88619, Note_on_c, 0, 62, 0
2, 88625, Note_on_c, 0, 62, 70
2, 88708, Note_on_c, 0, 64, 75
2, 88756, Note_on_c, 0, 72, 86
2, 88773, Note_on_c, 0, 62, 0
2, 88783, Note_on_c, 0, 62, 68
2, 88849, Note_on_c, 0, 64, 0
2, 88854, Note_on_c, 0, 64, 75
2, 88885, Note_on_c, 0, 74, 91
2, 88934, Note_on_c, 0, 45, 0
2, 88985, Control_c, 0, 64, 0
2, 88986, Note_on_c, 0, 74, 0
2, 88987, Note_on_c, 0, 60, 0
2, 88987, Note_on_c, 0, 57, 0
2, 88988, Note_on_c, 0, 62, 0
2, 88988, Note_on_c, 0, 64, 0
2, 88988, Note_on_c, 0, 72, 0
2, 88988, Note_on_c, 0, 77, 0
2, 88989, Note_on_c, 0, 88, 0
2, 88995, Note_on_c, 0, 59, 0
2, 89003, Note_on_c, 0, 76, 0
2, 89013, Note_on_c, 0, 40, 75
2, 89014, Note_on_c, 0, 76, 94
2, 89064, Control_c, 0, 64, 127
2, 89079, Note_on_c, 0, 52, 75
2, 89185, Note_on_c, 0, 55, 62
2, 89260, Note_on_c, 0, 60, 67
2, 89294, Note_on_c, 0, 77, 92
2, 89356, Note_on_c, 0, 55, 0
2, 89362, Note_on_c, 0, 55, 66
2, 89418, Note_on_c, 0, 76, 0
2, 89423, Note_on_c, 0, 76, 77
2, 89472, Note_on_c, 0, 60, 0
2, 89475, Note_on_c, 0, 60, 74
2, 89559, Note_on_c, 0, 88, 104
2, 89559, Note_on_c, 0, 64, 67
2, 89633, Note_on_c, 0, 60, 0
2, 89643, Note_on_c, 0, 60, 67
2, 89733, Note_on_c, 0, 64, 0
2, 89737, Note_on_c, 0, 64, 73
2, 89809, Note_on_c, 0, 77, 0
2, 89820, Note_on_c, 0, 67, 78
2, 89820, Note_on_c, 0, 77, 95
2, 89909, Note_on_c, 0, 64, 0
2, 89916, Note_on_c, 0, 64, 69
2, 89940, Note_on_c, 0, 76, 0
2, 89949, Note_on_c, 0, 76, 91
2, 90009, Note_on_c, 0, 67, 0
2, 90014, Note_on_c, 0, 67, 73
2, 90086, Note_on_c, 0, 88, 0
2, 90096, Note_on_c, 0, 88, 84
2, 90097, Note_on_c, 0, 86, 77
2, 90100, Note_on_c, 0, 72, 71
2, 90178, Note_on_c, 0, 67, 0
2, 90187, Note_on_c, 0, 67, 74
2, 90255, Note_on_c, 0, 72, 0
2, 90266, Note_on_c, 0, 72, 67
2, 90293, Note_on_c, 0, 67, 0
2, 90304, Note_on_c, 0, 67, 72
2, 90350, Note_on_c, 0, 74, 91
2, 90378, Note_on_c, 0, 64, 0
2, 90389, Note_on_c, 0, 64, 76
2, 90470, Note_on_c, 0, 67, 0
2, 90470, Note_on_c, 0, 72, 0
2, 90476, Note_on_c, 0, 72, 88
2, 90478, Note_on_c, 0, 67, 80
2, 90562, Note_on_c, 0, 64, 0
2, 90569, Note_on_c, 0, 64, 67
2, 90607, Note_on_c, 0, 84, 96
2, 90639, Note_on_c, 0, 60, 0
2, 90646, Note_on_c, 0, 60, 72
2, 90739, Note_on_c, 0, 64, 0
2, 90750, Note_on_c, 0, 64, 79
2, 90800, Note_on_c, 0, 60, 0
2, 90808, Note_on_c, 0, 60, 71
2, 90846, Note_on_c, 0, 74, 0
2, 90857, Note_on_c, 0, 74, 93
2, 90885, Note_on_c, 0, 55, 0
2, 90895, Note_on_c, 0, 55, 75
2, 90969, Note_on_c, 0, 60, 0
2, 90975, Note_on_c, 0, 60, 77
2, 90984, Note_on_c, 0, 40, 0
2, 90984, Note_on_c, 0, 72, 0
2, 90994, Note_on_c, 0, 72, 86
2, 91104, Note_on_c, 0, 88, 0
2, 91105, Note_on_c, 0, 52, 0
2, 91105, Note_on_c, 0, 86, 0
2, 91105, Note_on_c, 0, 60, 0
2, 91105, Note_on_c, 0, 74, 0
2, 91106, Note_on_c, 0, 64, 0
2, 91106, Note_on_c, 0, 76, 0
2, 91107, Note_on_c, 0, 77, 0
2, 91111, Control_c, 0, 64, 0
2, 91115, Note_on_c, 0, 84, 0
2, 91123, Note_on_c, 0, 55, 0
2, 91123, Note_on_c, 0, 67, 0
2, 91124, Note_on_c, 0, 84, 101
2, 91128, Note_on_c, 0, 41, 78
2, 91192, Control_c, 0, 64, 127
2, 91222, Note_on_c, 0, 53, 72
2, 91317, Note_on_c, 0, 55, 67
2, 91400, Note_on_c, 0, 60, 67
2, 91483, Note_on_c, 0, 62, 68
2, 91553, Note_on_c, 0, 60, 0
2, 91561, Note_on_c, 0, 60, 66
2, 91653, Note_on_c, 0, 53, 0
2, 91660, Note_on_c, 0, 53, 70
2, 91680, Note_on_c, 0, 67, 80
2, 91745, Note_on_c, 0, 72, 0
2, 91755, Note_on_c, 0, 72, 72
2, 91783, Note_on_c, 0, 60, 0
2, 91787, Note_on_c, 0, 60, 56
2, 91795, Note_on_c, 0, 74, 75
2, 91837, Note_on_c, 0, 62, 0
2, 91848, Note_on_c, 0, 62, 64
2, 91887, Note_on_c, 0, 79, 81
2, 91898, Note_on_c, 0, 67, 0
2, 91902, Note_on_c, 0, 67, 81
2, 91921, Note_on_c, 0, 84, 0
2, 91930, Note_on_c, 0, 84, 82
2, 91971, Note_on_c, 0, 86, 81
2, 92047, Note_on_c, 0, 91, 78
2, 92090, Note_on_c, 0, 96, 94
2, 92090, Note_on_c, 0, 74, 0
2, 92097, Note_on_c, 0, 74, 75
2, 92126, Note_on_c, 0, 98, 85
2, 92181, Note_on_c, 0, 103, 99
2, 92183, Note_on_c, 0, 79, 0
2, 92193, Note_on_c, 0, 79, 93
2, 92236, Note_on_c, 0, 98, 0
2, 92244, Note_on_c, 0, 98, 67
2, 92252, Note_on_c, 0, 74, 0
2, 92262, Note_on_c, 0, 74, 61
2, 92275, Note_on_c, 0, 96, 0
2, 92280, Note_on_c, 0, 96, 91
2, 92282, Note_on_c, 0, 72, 0
2, 92292, Note_on_c, 0, 72, 79
2, 92305, Note_on_c, 0, 91, 0
2, 92316, Note_on_c, 0, 91, 77
2, 92382, Note_on_c, 0, 67, 0
2, 92382, Note_on_c, 0, 86, 0
2, 92390, Note_on_c, 0, 67, 79
2, 92392, Note_on_c, 0, 69, 64
2, 92393, Note_on_c, 0, 86, 93
2, 92398, Note_on_c, 0, 69, 0
2, 92421, Note_on_c, 0, 84, 0
2, 92431, Note_on_c, 0, 84, 70
2, 92497, Note_on_c, 0, 62, 0
2, 92497, Note_on_c, 0, 79, 0
2, 92505, Note_on_c, 0, 60, 0
2, 92508, Note_on_c, 0, 79, 74
2, 92509, Note_on_c, 0, 62, 61
2, 92512, Note_on_c, 0, 60, 71
2, 92582, Note_on_c, 0, 74, 0
2, 92587, Note_on_c, 0, 74, 61
2, 92590, Note_on_c, 0, 72, 0
2, 92595, Note_on_c, 0, 72, 71
2, 92666, Note_on_c, 0, 67, 0
2, 92674, Note_on_c, 0, 53, 0
2, 92676, Note_on_c, 0, 67, 87
2, 92680, Note_on_c, 0, 53, 76
2, 92751, Note_on_c, 0, 55, 0
2, 92760, Note_on_c, 0, 55, 71
2, 92812, Note_on_c, 0, 72, 0
2, 92812, Note_on_c, 0, 84, 0
2, 92822, Note_on_c, 0, 84, 94
2, 92824, Note_on_c, 0, 72, 86
2, 92851, Note_on_c, 0, 53, 0
2, 92860, Note_on_c, 0, 53, 71
2, 92866, Note_on_c, 0, 60, 0
2, 92875, Note_on_c, 0, 60, 75
2, 92951, Note_on_c, 0, 72, 0
2, 92951, Note_on_c, 0, 84, 0
2, 92955, Note_on_c, 0, 72, 85
2, 92955, Note_on_c, 0, 84, 97
2, 92989, Note_on_c, 0, 62, 0
2, 92994, Note_on_c, 0, 62, 71
2, 93058, Note_on_c, 0, 60, 0
2, 93065, Note_on_c, 0, 60, 84
2, 93066, Note_on_c, 0, 72, 0
2, 93066, Note_on_c, 0, 84, 0
2, 93071, Note_on_c, 0, 84, 102
2, 93077, Note_on_c, 0, 72, 95
2, 93143, Note_on_c, 0, 103, 0
2, 93181, Note_on_c, 0, 62, 0
2, 93182, Note_on_c, 0, 53, 0
2, 93182, Note_on_c, 0, 74, 0
2, 93182, Note_on_c, 0, 79, 0
2, 93183, Note_on_c, 0, 72, 0
2, 93183, Note_on_c, 0, 96, 0
2, 93183, Note_on_c, 0, 67, 0
2, 93183, Note_on_c, 0, 55, 0
2, 93184, Note_on_c, 0, 84, 0
2, 93184, Control_c, 0, 64, 0
2, 93189, Note_on_c, 0, 98, 0
2, 93196, Note_on_c, 0, 41, 0
2, 93196, Note_on_c, 0, 60, 0
2, 93196, Note_on_c, 0, 86, 0
2, 93196, Note_on_c, 0, 91, 0
2, 93214, Note_on_c, 0, 40, 73
2, 93214, Note_on_c, 0, 81, 104
2, 93215, Note_on_c, 0, 69, 97
2, 93258, Control_c, 0, 64, 127
2, 93281, Note_on_c, 0, 52, 75
2, 93392, Note_on_c, 0, 55, 67
2, 93477, Note_on_c, 0, 60, 72
2, 93489, Note_on_c, 0, 79, 99
2, 93493, Note_on_c, 0, 67, 87
2, 93549, Note_on_c, 0, 62, 69
2, 93611, Note_on_c, 0, 60, 0
2, 93622, Note_on_c, 0, 60, 72
2, 93722, Note_on_c, 0, 81, 0
2, 93722, Control_c, 0, 64, 0
2, 93722, Note_on_c, 0, 62, 0
2, 93722, Note_on_c, 0, 55, 0
2, 93726, Note_on_c, 0, 52, 0
2, 93726, Note_on_c, 0, 69, 0
2, 93730, Note_on_c, 0, 52, 70
2, 93734, Note_on_c, 0, 60, 0
2, 93742, Note_on_c, 0, 67, 0
2, 93752, Note_on_c, 0, 67, 82
2, 93780, Control_c, 0, 64, 127
2, 93795, Note_on_c, 0, 40, 0
2, 93823, Note_on_c, 0, 72, 74
2, 93871, Note_on_c, 0, 60, 67
2, 93874, Note_on_c, 0, 74, 73
2, 93908, Note_on_c, 0, 62, 73
2, 93941, Note_on_c, 0, 79, 0
2, 93953, Note_on_c, 0, 79, 85
2, 93980, Note_on_c, 0, 67, 0
2, 93991, Note_on_c, 0, 67, 76
2, 93998, Note_on_c, 0, 84, 82
2, 94035, Note_on_c, 0, 86, 82
2, 94115, Note_on_c, 0, 91, 72
2, 94149, Note_on_c, 0, 74, 0
2, 94152, Note_on_c, 0, 96, 95
2, 94157, Note_on_c, 0, 74, 65
2, 94205, Note_on_c, 0, 98, 89
2, 94261, Note_on_c, 0, 103, 96
2, 94264, Note_on_c, 0, 79, 0
2, 94268, Note_on_c, 0, 79, 98
2, 94310, Note_on_c, 0, 98, 0
2, 94321, Note_on_c, 0, 98, 71
2, 94341, Note_on_c, 0, 74, 0
2, 94350, Note_on_c, 0, 74, 57
2, 94364, Note_on_c, 0, 96, 0
2, 94368, Note_on_c, 0, 96, 91
2, 94379, Note_on_c, 0, 72, 0
2, 94384, Note_on_c, 0, 72, 73
2, 94402, Note_on_c, 0, 91, 0
2, 94407, Note_on_c, 0, 91, 75
2, 94479, Note_on_c, 0, 86, 0
2, 94487, Note_on_c, 0, 67, 0
2, 94488, Note_on_c, 0, 86, 95
2, 94495, Note_on_c, 0, 67, 77
2, 94525, Note_on_c, 0, 84, 0
2, 94531, Note_on_c, 0, 84, 85
2, 94579, Note_on_c, 0, 62, 0
2, 94579, Note_on_c, 0, 79, 0
2, 94585, Note_on_c, 0, 62, 64
2, 94587, Note_on_c, 0, 79, 83
2, 94617, Note_on_c, 0, 60, 0
2, 94621, Note_on_c, 0, 60, 69
2, 94656, Note_on_c, 0, 74, 0
2, 94664, Note_on_c, 0, 74, 81
2, 94694, Note_on_c, 0, 72, 0
2, 94704, Note_on_c, 0, 72, 69
2, 94755, Note_on_c, 0, 52, 0
2, 94759, Note_on_c, 0, 52, 75
2, 94763, Note_on_c, 0, 67, 0
2, 94772, Note_on_c, 0, 67, 87
2, 94844, Note_on_c, 0, 55, 71
2, 94932, Note_on_c, 0, 52, 0
2, 94936, Note_on_c, 0, 52, 75
2, 94986, Note_on_c, 0, 60, 0
2, 94991, Note_on_c, 0, 60, 78
2, 95024, Note_on_c, 0, 72, 0
2, 95024, Note_on_c, 0, 84, 0
2, 95028, Note_on_c, 0, 84, 98
2, 95030, Note_on_c, 0, 72, 94
2, 95078, Note_on_c, 0, 62, 0
2, 95087, Note_on_c, 0, 62, 76
2, 95124, Note_on_c, 0, 60, 0
2, 95135, Note_on_c, 0, 60, 69
2, 95162, Note_on_c, 0, 86, 0
2, 95167, Note_on_c, 0, 88, 95
2, 95174, Note_on_c, 0, 86, 78
2, 95224, Note_on_c, 0, 103, 0
2, 95267, Control_c, 0, 64, 0
2, 95268, Note_on_c, 0, 52, 0
2, 95268, Note_on_c, 0, 86, 0
2, 95268, Note_on_c, 0, 60, 0
2, 95268, Note_on_c, 0, 72, 0
2, 95269, Note_on_c, 0, 74, 0
2, 95269, Note_on_c, 0, 91, 0
2, 95269, Note_on_c, 0, 79, 0
2, 95269, Note_on_c, 0, 67, 0
2, 95270, Note_on_c, 0, 62, 0
2, 95270, Note_on_c, 0, 55, 0
2, 95270, Note_on_c, 0, 88, 0
2, 95271, Note_on_c, 0, 96, 0
2, 95274, Note_on_c, 0, 98, 0
2, 95281, Note_on_c, 0, 88, 112
2, 95285, Note_on_c, 0, 84, 0
2, 95291, Note_on_c, 0, 84, 98
2, 95296, Note_on_c, 0, 81, 96
2, 95297, Note_on_c, 0, 76, 93
2, 95339, Control_c, 0, 64, 127
2, 95413, Note_on_c, 0, 50, 77
2, 95542, Note_on_c, 0, 53, 76
2, 95549, Note_on_c, 0, 72, 85
2, 95662, Note_on_c, 0, 50, 0
2, 95666, Note_on_c, 0, 50, 75
2, 95672, Note_on_c, 0, 74, 83
2, 95800, Note_on_c, 0, 76, 0
2, 95809, Note_on_c, 0, 76, 90
2, 95818, Note_on_c, 0, 60, 81
2, 95819, Note_on_c, 0, 69, 70
2, 95823, Note_on_c, 0, 72, 0
2, 95829, Note_on_c, 0, 72, 66
2, 95927, Note_on_c, 0, 57, 76
2, 96053, Note_on_c, 0, 50, 0
2, 96059, Note_on_c, 0, 50, 82
2, 96060, Note_on_c, 0, 89, 102
2, 96066, Note_on_c, 0, 77, 91
2, 96176, Note_on_c, 0, 53, 0
2, 96176, Note_on_c, 0, 72, 0
2, 96181, Note_on_c, 0, 72, 84
2, 96184, Note_on_c, 0, 88, 0
2, 96187, Note_on_c, 0, 53, 64
2, 96189, Note_on_c, 0, 88, 107
2, 96192, Note_on_c, 0, 76, 0
2, 96202, Note_on_c, 0, 76, 88
2, 96296, Control_c, 0, 64, 0
2, 96296, Note_on_c, 0, 81, 0
2, 96296, Note_on_c, 0, 76, 0
2, 96296, Note_on_c, 0, 50, 0
2, 96297, Note_on_c, 0, 57, 0
2, 96297, Note_on_c, 0, 74, 0
2, 96297, Note_on_c, 0, 69, 0
2, 96297, Note_on_c, 0, 60, 0
2, 96297, Note_on_c, 0, 84, 0
2, 96297, Note_on_c, 0, 72, 0
2, 96298, Note_on_c, 0, 89, 0
2, 96298, Note_on_c, 0, 77, 0
2, 96314, Note_on_c, 0, 53, 0
2, 96322, Note_on_c, 0, 88, 0
2, 96332, Note_on_c, 0, 88, 109
2, 96338, Note_on_c, 0, 84, 96
2, 96340, Note_on_c, 0, 76, 97
2, 96341, Note_on_c, 0, 81, 95
2, 96342, Note_on_c, 0, 38, 73
2, 96360, Control_c, 0, 64, 127
2, 96464, Note_on_c, 0, 50, 71
2, 96594, Note_on_c, 0, 53, 77
2, 96600, Note_on_c, 0, 77, 88
2, 96714, Note_on_c, 0, 50, 0
2, 96721, Note_on_c, 0, 76, 0
2, 96722, Note_on_c, 0, 50, 68
2, 96732, Note_on_c, 0, 76, 78
2, 96735, Note_on_c, 0, 69, 71
2, 96852, Note_on_c, 0, 76, 0
2, 96860, Note_on_c, 0, 69, 0
2, 96863, Note_on_c, 0, 76, 99
2, 96865, Note_on_c, 0, 69, 85
2, 96872, Note_on_c, 0, 72, 84
2, 96872, Note_on_c, 0, 60, 80
2, 97003, Note_on_c, 0, 57, 75
2, 97121, Note_on_c, 0, 50, 0
2, 97121, Note_on_c, 0, 72, 0
2, 97121, Note_on_c, 0, 84, 0
2, 97127, Note_on_c, 0, 84, 97
2, 97132, Note_on_c, 0, 72, 90
2, 97132, Note_on_c, 0, 50, 77
2, 97244, Note_on_c, 0, 53, 0
2, 97253, Note_on_c, 0, 53, 74
2, 97255, Note_on_c, 0, 86, 97
2, 97262, Note_on_c, 0, 74, 83
2, 97380, Control_c, 0, 64, 0
2, 97382, Note_on_c, 0, 38, 0
2, 97382, Note_on_c, 0, 53, 0
2, 97382, Note_on_c, 0, 81, 0
2, 97383, Note_on_c, 0, 57, 0
2, 97383, Note_on_c, 0, 69, 0
2, 97383, Note_on_c, 0, 50, 0
2, 97383, Note_on_c, 0, 77, 0
2, 97383, Note_on_c, 0, 74, 0
2, 97383, Note_on_c, 0, 60, 0
2, 97384, Note_on_c, 0, 72, 0
2, 97390, Note_on_c, 0, 88, 0
2, 97397, Note_on_c, 0, 76, 0
2, 97397, Note_on_c, 0, 84, 0
2, 97397, Note_on_c, 0, 86, 0
2, 97398, Note_on_c, 0, 88, 110
2, 97401, Note_on_c, 0, 41, 82
2, 97404, Note_on_c, 0, 84, 92
2, 97408, Note_on_c, 0, 76, 96
2, 97409, Note_on_c, 0, 80, 84
2, 97443, Control_c, 0, 64, 127
2, 97520, Note_on_c, 0, 53, 66
2, 97662, Note_on_c, 0, 56, 71
2, 97664, Note_on_c, 0, 72, 76
2, 97789, Note_on_c, 0, 53, 0
2, 97794, Note_on_c, 0, 74, 84
2, 97799, Note_on_c, 0, 53, 75
2, 97912, Note_on_c, 0, 76, 0
2, 97918, Note_on_c, 0, 76, 94
2, 97921, Note_on_c, 0, 68, 96
2, 97945, Note_on_c, 0, 60, 79
2, 98058, Note_on_c, 0, 56, 0
2, 98062, Note_on_c, 0, 56, 77
2, 98177, Note_on_c, 0, 89, 98
2, 98185, Note_on_c, 0, 77, 89
2, 98188, Note_on_c, 0, 53, 0
2, 98195, Note_on_c, 0, 53, 75
2, 98296, Note_on_c, 0, 56, 0
2, 98296, Note_on_c, 0, 88, 0
2, 98304, Note_on_c, 0, 56, 77
2, 98307, Note_on_c, 0, 88, 103
2, 98311, Note_on_c, 0, 76, 0
2, 98320, Note_on_c, 0, 76, 85
2, 98411, Note_on_c, 0, 68, 0
2, 98411, Note_on_c, 0, 74, 0
2, 98412, Control_c, 0, 64, 0
2, 98413, Note_on_c, 0, 56, 0
2, 98413, Note_on_c, 0, 72, 0
2, 98413, Note_on_c, 0, 76, 0
2, 98413, Note_on_c, 0, 89, 0
2, 98413, Note_on_c, 0, 60, 0
2, 98413, Note_on_c, 0, 84, 0
2, 98413, Note_on_c, 0, 77, 0
2, 98426, Note_on_c, 0, 53, 0
2, 98426, Note_on_c, 0, 80, 0
2, 98426, Note_on_c, 0, 88, 0
2, 98438, Note_on_c, 0, 88, 106
2, 98442, Note_on_c, 0, 41, 0
2, 98446, Note_on_c, 0, 84, 89
2, 98447, Note_on_c, 0, 41, 80
2, 98448, Note_on_c, 0, 76, 94
2, 98452, Note_on_c, 0, 80, 92
2, 98472, Control_c, 0, 64, 127
2, 98562, Note_on_c, 0, 53, 71
2, 98705, Note_on_c, 0, 77, 88
2, 98712, Note_on_c, 0, 56, 69
2, 98826, Note_on_c, 0, 76, 0
2, 98837, Note_on_c, 0, 76, 93
2, 98841, Note_on_c, 0, 53, 0
2, 98846, Note_on_c, 0, 53, 72
2, 98949, Note_on_c, 0, 76, 0
2, 98958, Note_on_c, 0, 76, 84
2, 98960, Note_on_c, 0, 68, 81
2, 98960, Note_on_c, 0, 72, 79
2, 98976, Note_on_c, 0, 60, 79
2, 99087, Note_on_c, 0, 56, 0
2, 99091, Note_on_c, 0, 56, 71
2, 99210, Note_on_c, 0, 53, 0
2, 99210, Note_on_c, 0, 77, 0
2, 99210, Note_on_c, 0, 86, 103
2, 99215, Note_on_c, 0, 77, 71
2, 99218, Note_on_c, 0, 74, 89
2, 99219, Note_on_c, 0, 53, 63
2, 99279, Note_on_c, 0, 56, 0
2, 99287, Note_on_c, 0, 56, 81
2, 99442, Control_c, 0, 64, 0
2, 99442, Note_on_c, 0, 68, 0
2, 99443, Note_on_c, 0, 88, 0
2, 99443, Note_on_c, 0, 80, 0
2, 99443, Note_on_c, 0, 53, 0
2, 99443, Note_on_c, 0, 76, 0
2, 99443, Note_on_c, 0, 74, 0
2, 99443, Note_on_c, 0, 84, 0
2, 99443, Note_on_c, 0, 86, 0
2, 99443, Note_on_c, 0, 56, 0
2, 99444, Note_on_c, 0, 60, 0
2, 99448, Note_on_c, 0, 41, 0
2, 99448, Note_on_c, 0, 72, 0
2, 99463, Note_on_c, 0, 77, 0
2, 99470, Note_on_c, 0, 89, 106
2, 99475, Note_on_c, 0, 77, 98
2, 99476, Note_on_c, 0, 84, 93
2, 99477, Note_on_c, 0, 81, 93
2, 99490, Note_on_c, 0, 55, 79
2, 99504, Note_on_c, 0, 87, 65
2, 99508, Note_on_c, 0, 85, 63
2, 99509, Control_c, 0, 64, 127
2, 99621, Note_on_c, 0, 57, 82
2, 99702, Note_on_c, 0, 59, 70
2, 99776, Note_on_c, 0, 60, 72
2, 99840, Note_on_c, 0, 62, 66
2, 99889, Note_on_c, 0, 64, 79
2, 99901, Note_on_c, 0, 87, 0
2, 99940, Note_on_c, 0, 65, 78
2, 100024, Note_on_c, 0, 62, 0
2, 100028, Note_on_c, 0, 62, 73
2, 100047, Note_on_c, 0, 60, 0
2, 100057, Note_on_c, 0, 60, 51
2, 100070, Note_on_c, 0, 64, 0
2, 100078, Note_on_c, 0, 64, 69
2, 100147, Note_on_c, 0, 65, 0
2, 100156, Note_on_c, 0, 65, 80
2, 100233, Note_on_c, 0, 67, 75
2, 100306, Note_on_c, 0, 69, 70
2, 100373, Note_on_c, 0, 71, 82
2, 100430, Note_on_c, 0, 72, 75
2, 100515, Note_on_c, 0, 67, 0
2, 100524, Note_on_c, 0, 67, 87
2, 100569, Note_on_c, 0, 69, 0
2, 100578, Note_on_c, 0, 69, 73
2, 100638, Note_on_c, 0, 71, 0
2, 100649, Note_on_c, 0, 71, 83
2, 100700, Note_on_c, 0, 72, 0
2, 100710, Note_on_c, 0, 72, 67
2, 100779, Note_on_c, 0, 74, 78
2, 100842, Note_on_c, 0, 76, 84
2, 100907, Note_on_c, 0, 77, 0
2, 100917, Note_on_c, 0, 77, 85
2, 101007, Note_on_c, 0, 74, 0
2, 101011, Note_on_c, 0, 74, 93
2, 101053, Note_on_c, 0, 76, 0
2, 101060, Note_on_c, 0, 76, 81
2, 101114, Note_on_c, 0, 77, 0
2, 101125, Note_on_c, 0, 77, 81
2, 101166, Note_on_c, 0, 79, 90
2, 101214, Note_on_c, 0, 81, 0
2, 101220, Note_on_c, 0, 81, 85
2, 101263, Note_on_c, 0, 83, 86
2, 101322, Note_on_c, 0, 84, 0
2, 101331, Note_on_c, 0, 84, 83
2, 101388, Note_on_c, 0, 86, 91
2, 101456, Note_on_c, 0, 88, 102
2, 101491, Note_on_c, 0, 89, 0
2, 101498, Note_on_c, 0, 89, 87
2, 101568, Note_on_c, 0, 59, 0
2, 101568, Note_on_c, 0, 85, 0
2, 101569, Note_on_c, 0, 71, 0
2, 101570, Note_on_c, 0, 65, 0
2, 101570, Note_on_c, 0, 60, 0
2, 101570, Note_on_c, 0, 69, 0
2, 101570, Note_on_c, 0, 76, 0
2, 101570, Note_on_c, 0, 57, 0
2, 101570, Note_on_c, 0, 62, 0
2, 101570, Note_on_c, 0, 55, 0
2, 101570, Note_on_c, 0, 72, 0
2, 101570, Note_on_c, 0, 77, 0
2, 101570, Note_on_c, 0, 89, 0
2, 101571, Note_on_c, 0, 81, 0
2, 101571, Note_on_c, 0, 84, 0
2, 101571, Control_c, 0, 64, 0
2, 101583, Note_on_c, 0, 64, 0
2, 101583, Note_on_c, 0, 67, 0
2, 101583, Note_on_c, 0, 83, 0
2, 101583, Note_on_c, 0, 86, 0
2, 101583, Note_on_c, 0, 91, 105
2, 101588, Note_on_c, 0, 86, 98
2, 101591, Note_on_c, 0, 74, 0
2, 101591, Note_on_c, 0, 88, 0
2, 101592, Note_on_c, 0, 83, 86
2, 101594, Note_on_c, 0, 67, 89
2, 101598, Note_on_c, 0, 79, 0
2, 101601, Note_on_c, 0, 74, 72
2, 101604, Note_on_c, 0, 79, 83
2, 101615, Note_on_c, 0, 77, 60
2, 101621, Note_on_c, 0, 77, 0
2, 101660, Control_c, 0, 64, 127
2, 101899, Note_on_c, 0, 55, 60
2, 101991, Note_on_c, 0, 62, 61
2, 102028, Note_on_c, 0, 67, 0
2, 102032, Note_on_c, 0, 67, 66
2, 102113, Note_on_c, 0, 67, 0
2, 102118, Note_on_c, 0, 67, 72
2, 102190, Note_on_c, 0, 74, 0
2, 102199, Note_on_c, 0, 74, 63
2, 102251, Note_on_c, 0, 79, 0
2, 102255, Note_on_c, 0, 79, 85
2, 102336, Note_on_c, 0, 79, 0
2, 102345, Note_on_c, 0, 79, 75
2, 102428, Note_on_c, 0, 86, 0
2, 102436, Note_on_c, 0, 86, 75
2, 102489, Note_on_c, 0, 67, 0
2, 102489, Note_on_c, 0, 91, 0
2, 102500, Note_on_c, 0, 67, 55
2, 102500, Note_on_c, 0, 91, 81
2, 102581, Note_on_c, 0, 91, 0
2, 102588, Note_on_c, 0, 91, 59
2, 102673, Note_on_c, 0, 98, 71
2, 102769, Note_on_c, 0, 103, 82
2, 104233, Note_on_c, 0, 84, 56
2, 104467, Note_on_c, 0, 65, 47
2, 104468, Note_on_c, 0, 96, 81
2, 104471, Note_on_c, 0, 103, 0
2, 104498, Control_c, 0, 64, 0
2, 104502, Note_on_c, 0, 79, 0
2, 104504, Note_on_c, 0, 62, 0
2, 104504, Note_on_c, 0, 67, 0
2, 104504, Note_on_c, 0, 91, 0
2, 104505, Note_on_c, 0, 86, 0
2, 104505, Note_on_c, 0, 55, 0
2, 104505, Note_on_c, 0, 74, 0
2, 104517, Note_on_c, 0, 83, 0
2, 104532, Note_on_c, 0, 98, 0
2, 104624, Control_c, 0, 64, 127
2, 104753, Note_on_c, 0, 95, 76
2, 104897, Note_on_c, 0, 93, 82
2, 104920, Note_on_c, 0, 77, 52
2, 105172, Note_on_c, 0, 91, 77
2, 105315, Note_on_c, 0, 65, 0
2, 105325, Note_on_c, 0, 65, 52
2, 105446, Note_on_c, 0, 91, 0
2, 105451, Note_on_c, 0, 91, 80
2, 105589, Control_c, 0, 64, 0
2, 105590, Note_on_c, 0, 96, 0
2, 105591, Note_on_c, 0, 93, 0
2, 105591, Note_on_c, 0, 77, 0
2, 105593, Note_on_c, 0, 65, 0
2, 105594, Note_on_c, 0, 72, 63
2, 105594, Note_on_c, 0, 84, 0
2, 105601, Note_on_c, 0, 67, 49
2, 105623, Note_on_c, 0, 95, 0
2, 105684, Control_c, 0, 64, 127
2, 105864, Note_on_c, 0, 86, 80
2, 105878, Note_on_c, 0, 71, 55
2, 106008, Note_on_c, 0, 88, 83
2, 106011, Note_on_c, 0, 69, 54
2, 106275, Note_on_c, 0, 67, 0
2, 106279, Note_on_c, 0, 67, 56
2, 106285, Note_on_c, 0, 89, 80
2, 106536, Note_on_c, 0, 67, 0
2, 106536, Note_on_c, 0, 88, 0
2, 106544, Note_on_c, 0, 67, 54
2, 106547, Note_on_c, 0, 88, 86
2, 106682, Note_on_c, 0, 88, 0
2, 106689, Note_on_c, 0, 88, 86
2, 106694, Note_on_c, 0, 64, 63
2, 106707, Control_c, 0, 64, 0
2, 106710, Note_on_c, 0, 71, 0
2, 106711, Note_on_c, 0, 91, 0
2, 106711, Note_on_c, 0, 69, 0
2, 106711, Note_on_c, 0, 89, 0
2, 106712, Note_on_c, 0, 72, 0
2, 106712, Note_on_c, 0, 86, 0
2, 106712, Note_on_c, 0, 67, 0
2, 106844, Control_c, 0, 64, 127
2, 106967, Note_on_c, 0, 88, 0
2, 106969, Note_on_c, 0, 89, 75
2, 106971, Note_on_c, 0, 88, 63
2, 107112, Note_on_c, 0, 88, 0
2, 107116, Note_on_c, 0, 88, 88
2, 107132, Note_on_c, 0, 76, 51
2, 107133, Note_on_c, 0, 71, 48
2, 107374, Note_on_c, 0, 89, 0
2, 107382, Note_on_c, 0, 89, 72
2, 107535, Note_on_c, 0, 64, 0
2, 107540, Note_on_c, 0, 64, 62
2, 107673, Note_on_c, 0, 88, 0
2, 107677, Note_on_c, 0, 88, 87
2, 107792, Control_c, 0, 64, 0
2, 107794, Note_on_c, 0, 64, 0
2, 107795, Note_on_c, 0, 71, 0
2, 107797, Note_on_c, 0, 76, 0
2, 107815, Note_on_c, 0, 69, 60
2, 107815, Note_on_c, 0, 79, 77
2, 107957, Control_c, 0, 64, 127
2, 108084, Note_on_c, 0, 86, 83
2, 108101, Note_on_c, 0, 77, 59
2, 108111, Note_on_c, 0, 69, 0
2, 108116, Note_on_c, 0, 69, 28
2, 108237, Note_on_c, 0, 84, 65
2, 108244, Control_c, 0, 64, 0
2, 108246, Note_on_c, 0, 76, 57
2, 108326, Control_c, 0, 64, 127
2, 108507, Note_on_c, 0, 74, 65
2, 108764, Note_on_c, 0, 84, 0
2, 108770, Note_on_c, 0, 84, 70
2, 108775, Note_on_c, 0, 72, 61
2, 108887, Note_on_c, 0, 76, 0
2, 108887, Note_on_c, 0, 74, 0
2, 108888, Note_on_c, 0, 77, 0
2, 108888, Note_on_c, 0, 86, 0
2, 108888, Note_on_c, 0, 69, 0
2, 108891, Control_c, 0, 64, 0
2, 108894, Note_on_c, 0, 79, 0
2, 108894, Note_on_c, 0, 89, 0
2, 108902, Note_on_c, 0, 88, 0
2, 108921, Note_on_c, 0, 96, 86
2, 108922, Note_on_c, 0, 65, 59
2, 108994, Control_c, 0, 64, 127
2, 109163, Note_on_c, 0, 72, 0
2, 109173, Note_on_c, 0, 72, 53
2, 109180, Note_on_c, 0, 95, 81
2, 109328, Note_on_c, 0, 93, 85
2, 109345, Note_on_c, 0, 77, 69
2, 109601, Note_on_c, 0, 72, 0
2, 109604, Note_on_c, 0, 91, 82
2, 109606, Note_on_c, 0, 72, 71
2, 109854, Note_on_c, 0, 65, 0
2, 109854, Note_on_c, 0, 91, 0
2, 109861, Note_on_c, 0, 65, 69
2, 109862, Note_on_c, 0, 91, 88
2, 109968, Note_on_c, 0, 95, 0
2, 109972, Note_on_c, 0, 96, 0
2, 109973, Note_on_c, 0, 72, 0
2, 109973, Note_on_c, 0, 93, 0
2, 109974, Note_on_c, 0, 65, 0
2, 109974, Note_on_c, 0, 77, 0
2, 109974, Control_c, 0, 64, 0
2, 109977, Note_on_c, 0, 84, 0
2, 110006, Note_on_c, 0, 79, 86
2, 110010, Note_on_c, 0, 67, 72
2, 110077, Control_c, 0, 64, 127
2, 110108, Note_on_c, 0, 91, 0
2, 110277, Note_on_c, 0, 86, 90
2, 110277, Note_on_c, 0, 77, 76
2, 110430, Note_on_c, 0, 88, 96
2, 110434, Note_on_c, 0, 76, 68
2, 110434, Note_on_c, 0, 68, 65
2, 110441, Control_c, 0, 64, 0
2, 110449, Note_on_c, 0, 79, 0
2, 110453, Note_on_c, 0, 67, 0
2, 110507, Control_c, 0, 64, 127
2, 110697, Note_on_c, 0, 74, 63
2, 110701, Note_on_c, 0, 89, 86
2, 110952, Note_on_c, 0, 88, 0
2, 110959, Note_on_c, 0, 88, 88
2, 110968, Note_on_c, 0, 76, 0
2, 110973, Note_on_c, 0, 76, 64
2, 111091, Note_on_c, 0, 88, 0
2, 111093, Note_on_c, 0, 68, 0
2, 111094, Note_on_c, 0, 74, 0
2, 111094, Note_on_c, 0, 89, 0
2, 111094, Control_c, 0, 64, 0
2, 111101, Note_on_c, 0, 88, 88
2, 111103, Note_on_c, 0, 69, 64
2, 111114, Note_on_c, 0, 77, 0
2, 111114, Note_on_c, 0, 86, 0
2, 111216, Note_on_c, 0, 69, 0
2, 111221, Control_c, 0, 64, 127
2, 111363, Note_on_c, 0, 71, 66
2, 111367, Note_on_c, 0, 89, 81
2, 111371, Note_on_c, 0, 69, 59
2, 111439, Control_c, 0, 64, 0
2, 111490, Control_c, 0, 64, 127
2, 111505, Note_on_c, 0, 88, 0
2, 111516, Note_on_c, 0, 88, 93
2, 111520, Note_on_c, 0, 72, 70
2, 111774, Note_on_c, 0, 89, 0
2, 111786, Note_on_c, 0, 89, 80
2, 111797, Note_on_c, 0, 76, 0
2, 111798, Control_c, 0, 64, 0
2, 111810, Note_on_c, 0, 74, 67
2, 111828, Control_c, 0, 64, 127
2, 112058, Note_on_c, 0, 88, 0
2, 112068, Note_on_c, 0, 76, 72
2, 112068, Note_on_c, 0, 88, 96
2, 112161, Control_c, 0, 64, 0
2, 112163, Note_on_c, 0, 72, 0
2, 112163, Note_on_c, 0, 74, 0
2, 112164, Note_on_c, 0, 71, 0
2, 112164, Note_on_c, 0, 89, 0
2, 112174, Note_on_c, 0, 69, 0
2, 112205, Note_on_c, 0, 67, 68
2, 112221, Note_on_c, 0, 70, 69
2, 112224, Note_on_c, 0, 82, 52
2, 112266, Control_c, 0, 64, 127
2, 112476, Note_on_c, 0, 74, 66
2, 112478, Note_on_c, 0, 86, 86
2, 112604, Control_c, 0, 64, 0
2, 112609, Note_on_c, 0, 70, 0
2, 112609, Note_on_c, 0, 67, 0
2, 112610, Note_on_c, 0, 74, 0
2, 112610, Note_on_c, 0, 76, 0
2, 112611, Note_on_c, 0, 86, 0
2, 112611, Note_on_c, 0, 82, 0
2, 112622, Note_on_c, 0, 84, 77
2, 112627, Note_on_c, 0, 88, 0
2, 112631, Note_on_c, 0, 72, 68
2, 112641, Note_on_c, 0, 60, 67
2, 112646, Note_on_c, 0, 70, 52
2, 112696, Control_c, 0, 64, 127
2, 112780, Note_on_c, 0, 72, 0
2, 112903, Note_on_c, 0, 74, 74
2, 113161, Note_on_c, 0, 72, 80
2, 113310, Note_on_c, 0, 84, 0
2, 113313, Note_on_c, 0, 70, 0
2, 113315, Note_on_c, 0, 74, 0
2, 113315, Note_on_c, 0, 53, 67
2, 113315, Note_on_c, 0, 84, 86
2, 113316, Note_on_c, 0, 72, 0
2, 113323, Control_c, 0, 64, 0
2, 113326, Note_on_c, 0, 60, 0
2, 113387, Control_c, 0, 64, 127
2, 113460, Note_on_c, 0, 60, 66
2, 113563, Note_on_c, 0, 83, 83
2, 113602, Note_on_c, 0, 65, 56
2, 113689, Note_on_c, 0, 67, 65
2, 113718, Note_on_c, 0, 81, 88
2, 113832, Note_on_c, 0, 60, 0
2, 113837, Note_on_c, 0, 60, 71
2, 113966, Note_on_c, 0, 79, 92
2, 113988, Note_on_c, 0, 69, 63
2, 114094, Note_on_c, 0, 65, 0
2, 114099, Note_on_c, 0, 65, 65
2, 114232, Note_on_c, 0, 79, 0
2, 114239, Note_on_c, 0, 79, 92
2, 114247, Note_on_c, 0, 60, 0
2, 114258, Note_on_c, 0, 60, 68
2, 114340, Note_on_c, 0, 67, 0
2, 114342, Note_on_c, 0, 53, 0
2, 114342, Note_on_c, 0, 81, 0
2, 114342, Note_on_c, 0, 83, 0
2, 114342, Control_c, 0, 64, 0
2, 114343, Note_on_c, 0, 60, 0
2, 114343, Note_on_c, 0, 69, 0
2, 114343, Note_on_c, 0, 84, 0
2, 114343, Note_on_c, 0, 65, 0
2, 114379, Note_on_c, 0, 55, 68
2, 114424, Control_c, 0, 64, 127
2, 114512, Note_on_c, 0, 74, 84
2, 114517, Note_on_c, 0, 62, 69
2, 114669, Note_on_c, 0, 67, 73
2, 114766, Note_on_c, 0, 71, 74
2, 114796, Note_on_c, 0, 76, 91
2, 114898, Control_c, 0, 64, 0
2, 114902, Note_on_c, 0, 67, 0
2, 114902, Note_on_c, 0, 62, 0
2, 114903, Note_on_c, 0, 74, 0
2, 114903, Note_on_c, 0, 55, 0
2, 114914, Note_on_c, 0, 56, 70
2, 114984, Control_c, 0, 64, 127
2, 115050, Note_on_c, 0, 77, 94
2, 115050, Note_on_c, 0, 64, 73
2, 115180, Note_on_c, 0, 68, 72
2, 115284, Note_on_c, 0, 71, 0
2, 115284, Note_on_c, 0, 76, 0
2, 115294, Note_on_c, 0, 76, 87
2, 115294, Note_on_c, 0, 71, 72
2, 115368, Note_on_c, 0, 79, 0
2, 115422, Note_on_c, 0, 76, 0
2, 115424, Control_c, 0, 64, 0
2, 115424, Note_on_c, 0, 64, 0
2, 115424, Note_on_c, 0, 68, 0
2, 115424, Note_on_c, 0, 56, 0
2, 115425, Note_on_c, 0, 77, 0
2, 115426, Note_on_c, 0, 71, 0
2, 115432, Note_on_c, 0, 76, 83
2, 115432, Note_on_c, 0, 57, 73
2, 115507, Control_c, 0, 64, 127
2, 115584, Note_on_c, 0, 64, 72
2, 115700, Note_on_c, 0, 77, 93
2, 115701, Note_on_c, 0, 69, 72
2, 115818, Note_on_c, 0, 71, 71
2, 115822, Note_on_c, 0, 76, 0
2, 115831, Note_on_c, 0, 76, 78
2, 115960, Note_on_c, 0, 64, 0
2, 115964, Note_on_c, 0, 64, 81
2, 116090, Note_on_c, 0, 77, 0
2, 116095, Note_on_c, 0, 72, 72
2, 116097, Note_on_c, 0, 77, 89
2, 116221, Note_on_c, 0, 69, 0
2, 116227, Note_on_c, 0, 69, 66
2, 116328, Note_on_c, 0, 64, 0
2, 116335, Note_on_c, 0, 64, 72
2, 116359, Note_on_c, 0, 76, 0
2, 116368, Note_on_c, 0, 76, 88
2, 116484, Note_on_c, 0, 57, 0
2, 116484, Note_on_c, 0, 69, 0
2, 116485, Note_on_c, 0, 71, 0
2, 116485, Note_on_c, 0, 72, 0
2, 116485, Note_on_c, 0, 77, 0
2, 116485, Control_c, 0, 64, 0
2, 116487, Note_on_c, 0, 52, 68
2, 116582, Control_c, 0, 64, 127
2, 116617, Note_on_c, 0, 55, 74
2, 116618, Note_on_c, 0, 74, 84
2, 116728, Note_on_c, 0, 64, 0
2, 116747, Note_on_c, 0, 60, 74
2, 116870, Note_on_c, 0, 72, 81
2, 116886, Note_on_c, 0, 62, 71
2, 117017, Note_on_c, 0, 64, 82
2, 117135, Note_on_c, 0, 62, 0
2, 117142, Note_on_c, 0, 62, 78
2, 117258, Note_on_c, 0, 60, 0
2, 117266, Note_on_c, 0, 79, 100
2, 117267, Note_on_c, 0, 67, 85
2, 117268, Note_on_c, 0, 60, 79
2, 117373, Note_on_c, 0, 55, 0
2, 117379, Note_on_c, 0, 55, 78
2, 117534, Note_on_c, 0, 64, 0
2, 117535, Note_on_c, 0, 55, 0
2, 117535, Note_on_c, 0, 67, 0
2, 117535, Note_on_c, 0, 74, 0
2, 117535, Note_on_c, 0, 62, 0
2, 117536, Control_c, 0, 64, 0
2, 117536, Note_on_c, 0, 84, 99
2, 117542, Note_on_c, 0, 52, 0
2, 117542, Note_on_c, 0, 72, 0
2, 117542, Note_on_c, 0, 76, 0
2, 117542, Note_on_c, 0, 79, 0
2, 117546, Note_on_c, 0, 41, 75
2, 117548, Note_on_c, 0, 79, 82
2, 117550, Note_on_c, 0, 60, 0
2, 117552, Note_on_c, 0, 72, 82
2, 117552, Note_on_c, 0, 77, 83
2, 117619, Control_c, 0, 64, 127
2, 117673, Note_on_c, 0, 53, 69
2, 117804, Note_on_c, 0, 60, 74
2, 117806, Note_on_c, 0, 83, 87
2, 117926, Note_on_c, 0, 84, 0
2, 117937, Note_on_c, 0, 84, 94
2, 117938, Note_on_c, 0, 62, 68
2, 118056, Note_on_c, 0, 53, 0
2, 118068, Note_on_c, 0, 53, 82
2, 118193, Note_on_c, 0, 67, 83
2, 118325, Note_on_c, 0, 62, 0
2, 118325, Note_on_c, 0, 79, 0
2, 118333, Note_on_c, 0, 62, 75
2, 118334, Note_on_c, 0, 79, 96
2, 118440, Note_on_c, 0, 60, 0
2, 118451, Note_on_c, 0, 60, 77
2, 118562, Note_on_c, 0, 67, 0
2, 118562, Note_on_c, 0, 41, 0
2, 118562, Note_on_c, 0, 62, 0
2, 118563, Note_on_c, 0, 84, 0
2, 118566, Control_c, 0, 64, 0
2, 118571, Note_on_c, 0, 72, 0
2, 118579, Note_on_c, 0, 53, 0
2, 118579, Note_on_c, 0, 60, 0
2, 118579, Note_on_c, 0, 77, 0
2, 118583, Note_on_c, 0, 86, 103
2, 118586, Note_on_c, 0, 79, 0
2, 118586, Note_on_c, 0, 83, 0
2, 118589, Note_on_c, 0, 43, 81
2, 118595, Note_on_c, 0, 79, 80
2, 118597, Note_on_c, 0, 74, 85
2, 118598, Note_on_c, 0, 83, 86
2, 118638, Note_on_c, 0, 43, 0
2, 118640, Control_c, 0, 64, 127
2, 118702, Note_on_c, 0, 55, 72
2, 118836, Note_on_c, 0, 62, 78
2, 118861, Note_on_c, 0, 84, 87
2, 118972, Note_on_c, 0, 67, 87
2, 118978, Note_on_c, 0, 55, 0
2, 118978, Note_on_c, 0, 86, 0
2, 118982, Note_on_c, 0, 86, 100
2, 118988, Note_on_c, 0, 55, 69
2, 119092, Note_on_c, 0, 55, 0
2, 119092, Control_c, 0, 64, 0
2, 119092, Note_on_c, 0, 62, 0
2, 119093, Note_on_c, 0, 74, 0
2, 119094, Note_on_c, 0, 79, 0
2, 119094, Note_on_c, 0, 83, 0
2, 119094, Note_on_c, 0, 67, 0
2, 119099, Note_on_c, 0, 84, 0
2, 119106, Note_on_c, 0, 44, 87
2, 119162, Control_c, 0, 64, 127
2, 119230, Note_on_c, 0, 56, 75
2, 119357, Note_on_c, 0, 79, 97
2, 119369, Note_on_c, 0, 64, 81
2, 119373, Note_on_c, 0, 76, 78
2, 119481, Note_on_c, 0, 68, 70
2, 119619, Note_on_c, 0, 88, 109
2, 119623, Note_on_c, 0, 76, 0
2, 119626, Note_on_c, 0, 84, 91
2, 119629, Note_on_c, 0, 81, 93
2, 119630, Note_on_c, 0, 76, 94
2, 119632, Note_on_c, 0, 57, 87
2, 119637, Note_on_c, 0, 45, 80
2, 119640, Control_c, 0, 64, 0
2, 119641, Note_on_c, 0, 64, 0
2, 119641, Note_on_c, 0, 56, 0
2, 119641, Note_on_c, 0, 79, 0
2, 119641, Note_on_c, 0, 68, 0
2, 119646, Note_on_c, 0, 44, 0
2, 119662, Note_on_c, 0, 86, 0
2, 119746, Control_c, 0, 64, 127
2, 119895, Note_on_c, 0, 89, 93
2, 119905, Note_on_c, 0, 77, 80
2, 120030, Note_on_c, 0, 76, 0
2, 120030, Note_on_c, 0, 88, 0
2, 120038, Note_on_c, 0, 88, 104
2, 120042, Note_on_c, 0, 76, 84
2, 120307, Note_on_c, 0, 89, 0
2, 120312, Note_on_c, 0, 89, 96
2, 120314, Note_on_c, 0, 77, 0
2, 120319, Note_on_c, 0, 77, 89
2, 120576, Note_on_c, 0, 88, 0
2, 120583, Note_on_c, 0, 88, 107
2, 120583, Note_on_c, 0, 76, 0
2, 120589, Note_on_c, 0, 76, 92
2, 120606, Control_c, 0, 64, 0
2, 120610, Note_on_c, 0, 45, 0
2, 120611, Note_on_c, 0, 84, 0
2, 120611, Note_on_c, 0, 89, 0
2, 120611, Note_on_c, 0, 81, 0
2, 120612, Note_on_c, 0, 57, 0
2, 120614, Note_on_c, 0, 77, 0
2, 120683, Control_c, 0, 64, 127
2, 120851, Note_on_c, 0, 86, 94
2, 120852, Note_on_c, 0, 76, 0
2, 120858, Note_on_c, 0, 74, 77
2, 120975, Note_on_c, 0, 74, 0
2, 120975, Note_on_c, 0, 86, 0
2, 120979, Note_on_c, 0, 86, 95
2, 120983, Note_on_c, 0, 74, 72
2, 121102, Note_on_c, 0, 84, 100
2, 121105, Note_on_c, 0, 72, 95
2, 121255, Note_on_c, 0, 100, 88
2, 121265, Note_on_c, 0, 98, 98
2, 121276, Note_on_c, 0, 96, 100
2, 121279, Note_on_c, 0, 95, 95
2, 121293, Note_on_c, 0, 93, 99
2, 121302, Note_on_c, 0, 91, 91
2, 121308, Note_on_c, 0, 89, 86
2, 121313, Note_on_c, 0, 88, 0
2, 121320, Note_on_c, 0, 88, 95
2, 121328, Note_on_c, 0, 86, 0
2, 121338, Note_on_c, 0, 86, 89
2, 121344, Note_on_c, 0, 84, 0
2, 121348, Note_on_c, 0, 84, 93
2, 121370, Note_on_c, 0, 83, 97
2, 121391, Note_on_c, 0, 79, 94
2, 121392, Note_on_c, 0, 81, 88
2, 121412, Note_on_c, 0, 77, 92
2, 121420, Note_on_c, 0, 74, 0
2, 121424, Note_on_c, 0, 76, 88
2, 121431, Note_on_c, 0, 74, 72
2, 121451, Note_on_c, 0, 72, 0
2, 121462, Note_on_c, 0, 72, 76
2, 121462, Note_on_c, 0, 71, 89
2, 121478, Note_on_c, 0, 69, 88
2, 121493, Note_on_c, 0, 67, 84
2, 121518, Note_on_c, 0, 65, 74
2, 121540, Note_on_c, 0, 64, 66
2, 121563, Note_on_c, 0, 62, 80
2, 121581, Note_on_c, 0, 60, 75
2, 121596, Note_on_c, 0, 59, 83
2, 121609, Note_on_c, 0, 57, 85
2, 121635, Note_on_c, 0, 69, 0
2, 121640, Note_on_c, 0, 69, 74
2, 121645, Note_on_c, 0, 55, 69
2, 121729, Note_on_c, 0, 93, 0
2, 121729, Note_on_c, 0, 65, 0
2, 121730, Note_on_c, 0, 62, 0
2, 121730, Note_on_c, 0, 76, 0
2, 121730, Note_on_c, 0, 81, 0
2, 121730, Note_on_c, 0, 60, 0
2, 121730, Note_on_c, 0, 98, 0
2, 121730, Note_on_c, 0, 59, 0
2, 121730, Note_on_c, 0, 69, 0
2, 121730, Note_on_c, 0, 64, 0
2, 121730, Note_on_c, 0, 100, 0
2, 121730, Note_on_c, 0, 77, 0
2, 121730, Note_on_c, 0, 72, 0
2, 121730, Note_on_c, 0, 67, 0
2, 121730, Note_on_c, 0, 95, 0
2, 121730, Note_on_c, 0, 84, 0
2, 121730, Note_on_c, 0, 71, 0
2, 121731, Note_on_c, 0, 89, 0
2, 121731, Note_on_c, 0, 55, 0
2, 121731, Note_on_c, 0, 96, 0
2, 121731, Note_on_c, 0, 57, 0
2, 121731, Note_on_c, 0, 79, 0
2, 121731, Note_on_c, 0, 91, 0
2, 121731, Note_on_c, 0, 83, 0
2, 121731, Control_c, 0, 64, 0
2, 121743, Note_on_c, 0, 74, 0
2, 121743, Note_on_c, 0, 86, 0
2, 121743, Note_on_c, 0, 88, 0
2, 121770, Note_on_c, 0, 29, 96
2, 121773, Note_on_c, 0, 84, 108
2, 121775, Note_on_c, 0, 72, 105
2, 121780, Note_on_c, 0, 76, 98
2, 121804, Control_c, 0, 64, 127
2, 121909, Note_on_c, 0, 48, 72
2, 121969, Note_on_c, 0, 53, 62
2, 122040, Note_on_c, 0, 57, 78
2, 122042, Note_on_c, 0, 84, 0
2, 122047, Note_on_c, 0, 83, 91
2, 122052, Note_on_c, 0, 84, 85
2, 122054, Note_on_c, 0, 71, 84
2, 122058, Note_on_c, 0, 72, 0
2, 122065, Note_on_c, 0, 72, 63
2, 122158, Note_on_c, 0, 48, 0
2, 122169, Note_on_c, 0, 48, 72
2, 122172, Note_on_c, 0, 41, 69
2, 122173, Note_on_c, 0, 83, 0
2, 122184, Note_on_c, 0, 83, 91
2, 122196, Note_on_c, 0, 69, 80
2, 122197, Note_on_c, 0, 81, 79
2, 122294, Note_on_c, 0, 55, 67
2, 122311, Note_on_c, 0, 53, 0
2, 122323, Note_on_c, 0, 53, 75
2, 122380, Note_on_c, 0, 57, 0
2, 122387, Note_on_c, 0, 57, 70
2, 122458, Note_on_c, 0, 79, 100
2, 122461, Note_on_c, 0, 67, 89
2, 122480, Note_on_c, 0, 69, 0
2, 122488, Note_on_c, 0, 48, 0
2, 122491, Note_on_c, 0, 69, 47
2, 122499, Note_on_c, 0, 48, 52
2, 122588, Note_on_c, 0, 53, 0
2, 122595, Note_on_c, 0, 53, 50
2, 122595, Note_on_c, 0, 41, 0
2, 122602, Note_on_c, 0, 41, 57
2, 122626, Note_on_c, 0, 48, 0
2, 122632, Note_on_c, 0, 48, 36
2, 122703, Note_on_c, 0, 53, 0
2, 122709, Note_on_c, 0, 53, 67
2, 122726, Note_on_c, 0, 79, 0
2, 122734, Note_on_c, 0, 67, 0
2, 122737, Note_on_c, 0, 79, 104
2, 122739, Note_on_c, 0, 67, 94
2, 122795, Note_on_c, 0, 57, 0
2, 122800, Note_on_c, 0, 57, 70
2, 122895, Note_on_c, 0, 48, 0
2, 122902, Note_on_c, 0, 48, 61
2, 122987, Note_on_c, 0, 53, 0
2, 122995, Note_on_c, 0, 53, 66
2, 123000, Note_on_c, 0, 74, 99
2, 123002, Note_on_c, 0, 48, 0
2, 123004, Note_on_c, 0, 62, 82
2, 123006, Note_on_c, 0, 48, 68
2, 123056, Note_on_c, 0, 57, 0
2, 123061, Note_on_c, 0, 57, 63
2, 123110, Note_on_c, 0, 53, 0
2, 123118, Note_on_c, 0, 48, 0
2, 123118, Note_on_c, 0, 53, 63
2, 123123, Note_on_c, 0, 48, 61
2, 123202, Note_on_c, 0, 57, 0
2, 123212, Note_on_c, 0, 57, 76
2, 123256, Note_on_c, 0, 76, 0
2, 123266, Note_on_c, 0, 76, 98
2, 123266, Note_on_c, 0, 64, 86
2, 123302, Note_on_c, 0, 48, 0
2, 123306, Note_on_c, 0, 48, 57
2, 123386, Note_on_c, 0, 41, 0
2, 123395, Note_on_c, 0, 41, 75
2, 123471, Note_on_c, 0, 48, 0
2, 123482, Note_on_c, 0, 48, 51
2, 123486, Note_on_c, 0, 53, 0
2, 123497, Note_on_c, 0, 53, 73
2, 123532, Note_on_c, 0, 48, 0
2, 123532, Note_on_c, 0, 69, 0
2, 123532, Note_on_c, 0, 77, 101
2, 123536, Note_on_c, 0, 48, 63
2, 123540, Note_on_c, 0, 65, 91
2, 123541, Note_on_c, 0, 69, 80
2, 123586, Note_on_c, 0, 48, 0
2, 123590, Note_on_c, 0, 48, 30
2, 123648, Note_on_c, 0, 41, 0
2, 123653, Note_on_c, 0, 41, 82
2, 123740, Note_on_c, 0, 48, 0
2, 123751, Note_on_c, 0, 48, 71
2, 123752, Note_on_c, 0, 45, 68
2, 123778, Note_on_c, 0, 64, 0
2, 123778, Note_on_c, 0, 76, 0
2, 123782, Note_on_c, 0, 76, 97
2, 123788, Note_on_c, 0, 64, 91
2, 123874, Note_on_c, 0, 41, 0
2, 123874, Note_on_c, 0, 74, 0
2, 123874, Note_on_c, 0, 65, 0
2, 123874, Note_on_c, 0, 62, 0
2, 123874, Note_on_c, 0, 69, 0
2, 123875, Note_on_c, 0, 67, 0
2, 123875, Note_on_c, 0, 83, 0
2, 123875, Note_on_c, 0, 81, 0
2, 123875, Note_on_c, 0, 71, 0
2, 123875, Note_on_c, 0, 79, 0
2, 123875, Note_on_c, 0, 72, 0
2, 123875, Note_on_c, 0, 84, 0
2, 123875, Note_on_c, 0, 77, 0
2, 123876, Note_on_c, 0, 55, 0
2, 123878, Note_on_c, 0, 29, 0
2, 123878, Note_on_c, 0, 45, 0
2, 123880, Control_c, 0, 64, 0
2, 123893, Note_on_c, 0, 48, 0
2, 123893, Note_on_c, 0, 53, 0
2, 123893, Note_on_c, 0, 57, 0
2, 123901, Note_on_c, 0, 64, 0
2, 123901, Note_on_c, 0, 76, 0
2, 123909, Note_on_c, 0, 76, 109
2, 123912, Note_on_c, 0, 64, 99
2, 123913, Note_on_c, 0, 43, 88
2, 123915, Note_on_c, 0, 71, 90
2, 123916, Note_on_c, 0, 31, 91
2, 123918, Note_on_c, 0, 67, 97
2, 123955, Control_c, 0, 64, 127
2, 124068, Note_on_c, 0, 50, 68
2, 124133, Note_on_c, 0, 59, 83
2, 124182, Note_on_c, 0, 77, 95
2, 124183, Note_on_c, 0, 65, 88
2, 124216, Note_on_c, 0, 50, 0
2, 124226, Note_on_c, 0, 50, 76
2, 124308, Note_on_c, 0, 43, 0
2, 124308, Note_on_c, 0, 76, 0
2, 124315, Note_on_c, 0, 43, 86
2, 124316, Note_on_c, 0, 64, 0
2, 124319, Note_on_c, 0, 76, 104
2, 124320, Note_on_c, 0, 64, 90
2, 124385, Note_on_c, 0, 50, 0
2, 124390, Note_on_c, 0, 50, 67
2, 124423, Note_on_c, 0, 43, 0
2, 124428, Note_on_c, 0, 43, 70
2, 124428, Note_on_c, 0, 55, 67
2, 124508, Note_on_c, 0, 59, 0
2, 124516, Note_on_c, 0, 59, 79
2, 124577, Note_on_c, 0, 65, 0
2, 124577, Note_on_c, 0, 77, 0
2, 124584, Note_on_c, 0, 77, 100
2, 124588, Note_on_c, 0, 65, 96
2, 124615, Note_on_c, 0, 50, 0
2, 124621, Note_on_c, 0, 50, 58
2, 124707, Note_on_c, 0, 43, 0
2, 124713, Note_on_c, 0, 43, 75
2, 124807, Note_on_c, 0, 50, 0
2, 124807, Note_on_c, 0, 55, 0
2, 124813, Note_on_c, 0, 50, 72
2, 124817, Note_on_c, 0, 55, 68
2, 124846, Note_on_c, 0, 76, 0
2, 124853, Note_on_c, 0, 64, 0
2, 124857, Note_on_c, 0, 76, 104
2, 124861, Note_on_c, 0, 64, 95
2, 124892, Note_on_c, 0, 59, 0
2, 124902, Note_on_c, 0, 59, 80
2, 124999, Note_on_c, 0, 50, 0
2, 125004, Note_on_c, 0, 50, 72
2, 125076, Note_on_c, 0, 43, 0
2, 125085, Note_on_c, 0, 43, 75
2, 125112, Note_on_c, 0, 74, 101
2, 125118, Note_on_c, 0, 62, 84
2, 125214, Note_on_c, 0, 50, 0
2, 125219, Note_on_c, 0, 50, 77
2, 125230, Note_on_c, 0, 43, 0
2, 125237, Note_on_c, 0, 55, 0
2, 125237, Note_on_c, 0, 74, 0
2, 125239, Note_on_c, 0, 43, 80
2, 125244, Note_on_c, 0, 74, 89
2, 125248, Note_on_c, 0, 55, 75
2, 125329, Note_on_c, 0, 59, 0
2, 125329, Note_on_c, 0, 67, 0
2, 125335, Note_on_c, 0, 59, 84
2, 125336, Note_on_c, 0, 67, 85
2, 125368, Note_on_c, 0, 71, 0
2, 125374, Note_on_c, 0, 71, 84
2, 125406, Note_on_c, 0, 74, 0
2, 125412, Note_on_c, 0, 74, 88
2, 125437, Note_on_c, 0, 50, 0
2, 125446, Note_on_c, 0, 50, 57
2, 125475, Note_on_c, 0, 43, 0
2, 125480, Note_on_c, 0, 43, 77
2, 125480, Note_on_c, 0, 79, 99
2, 125524, Note_on_c, 0, 83, 90
2, 125548, Note_on_c, 0, 86, 91
2, 125583, Note_on_c, 0, 55, 0
2, 125594, Note_on_c, 0, 55, 68
2, 125598, Note_on_c, 0, 50, 0
2, 125606, Note_on_c, 0, 43, 0
2, 125607, Note_on_c, 0, 91, 95
2, 125607, Note_on_c, 0, 50, 62
2, 125611, Note_on_c, 0, 47, 65
2, 125615, Note_on_c, 0, 43, 70
2, 125621, Note_on_c, 0, 47, 0
2, 125658, Note_on_c, 0, 95, 91
2, 125690, Note_on_c, 0, 43, 0
2, 125694, Note_on_c, 0, 43, 89
2, 125706, Note_on_c, 0, 55, 0
2, 125711, Note_on_c, 0, 55, 73
2, 125719, Note_on_c, 0, 103, 111
2, 125729, Note_on_c, 0, 103, 0
2, 125798, Note_on_c, 0, 43, 0
2, 125804, Note_on_c, 0, 43, 69
2, 125806, Note_on_c, 0, 50, 0
2, 125806, Note_on_c, 0, 59, 0
2, 125809, Note_on_c, 0, 50, 67
2, 125810, Note_on_c, 0, 59, 88
2, 125977, Note_on_c, 0, 86, 0
2, 125977, Note_on_c, 0, 95, 0
2, 125978, Control_c, 0, 64, 0
2, 125978, Note_on_c, 0, 77, 0
2, 125978, Note_on_c, 0, 74, 0
2, 125978, Note_on_c, 0, 64, 0
2, 125978, Note_on_c, 0, 62, 0
2, 125978, Note_on_c, 0, 59, 0
2, 125978, Note_on_c, 0, 65, 0
2, 125978, Note_on_c, 0, 55, 0
2, 125978, Note_on_c, 0, 83, 0
2, 125978, Note_on_c, 0, 50, 0
2, 125978, Note_on_c, 0, 67, 0
2, 125978, Note_on_c, 0, 71, 0
2, 125978, Note_on_c, 0, 91, 0
2, 125979, Note_on_c, 0, 79, 0
2, 125979, Note_on_c, 0, 43, 0
2, 125982, Note_on_c, 0, 31, 0
2, 125990, Note_on_c, 0, 76, 0
2, 125996, Note_on_c, 0, 84, 109
2, 125998, Note_on_c, 0, 72, 108
2, 126000, Note_on_c, 0, 45, 96
2, 126000, Note_on_c, 0, 76, 103
2, 126000, Note_on_c, 0, 33, 91
2, 126001, Note_on_c, 0, 81, 106
2, 126044, Control_c, 0, 64, 127
2, 126255, Note_on_c, 0, 60, 80
2, 126258, Note_on_c, 0, 48, 74
2, 126266, Note_on_c, 0, 48, 0
2, 126275, Note_on_c, 0, 83, 91
2, 126277, Note_on_c, 0, 71, 87
2, 126341, Note_on_c, 0, 52, 60
2, 126397, Note_on_c, 0, 45, 0
2, 126397, Note_on_c, 0, 81, 0
2, 126405, Note_on_c, 0, 81, 98
2, 126408, Note_on_c, 0, 69, 91
2, 126408, Note_on_c, 0, 45, 77
2, 126481, Note_on_c, 0, 52, 0
2, 126492, Note_on_c, 0, 52, 62
2, 126528, Note_on_c, 0, 57, 73
2, 126604, Note_on_c, 0, 60, 0
2, 126614, Note_on_c, 0, 60, 66
2, 126674, Note_on_c, 0, 79, 98
2, 126676, Note_on_c, 0, 67, 85
2, 126727, Note_on_c, 0, 52, 0
2, 126732, Note_on_c, 0, 52, 70
2, 126804, Note_on_c, 0, 45, 0
2, 126814, Note_on_c, 0, 45, 69
2, 126904, Note_on_c, 0, 52, 0
2, 126914, Note_on_c, 0, 52, 65
2, 126927, Note_on_c, 0, 45, 0
2, 126927, Note_on_c, 0, 67, 0
2, 126927, Note_on_c, 0, 79, 0
2, 126932, Note_on_c, 0, 45, 71
2, 126933, Note_on_c, 0, 79, 102
2, 126934, Note_on_c, 0, 91, 95
2, 126936, Note_on_c, 0, 67, 90
2, 126942, Note_on_c, 0, 91, 0
2, 127019, Note_on_c, 0, 60, 0
2, 127025, Note_on_c, 0, 60, 70
2, 127049, Note_on_c, 0, 48, 67
2, 127104, Note_on_c, 0, 52, 0
2, 127109, Note_on_c, 0, 52, 70
2, 127196, Note_on_c, 0, 45, 0
2, 127206, Note_on_c, 0, 74, 103
2, 127207, Note_on_c, 0, 45, 73
2, 127207, Note_on_c, 0, 62, 82
2, 127272, Note_on_c, 0, 52, 0
2, 127280, Note_on_c, 0, 48, 0
2, 127283, Note_on_c, 0, 52, 67
2, 127319, Note_on_c, 0, 57, 0
2, 127319, Note_on_c, 0, 69, 0
2, 127323, Note_on_c, 0, 57, 66
2, 127324, Note_on_c, 0, 69, 62
2, 127334, Note_on_c, 0, 72, 0
2, 127345, Note_on_c, 0, 72, 59
2, 127403, Note_on_c, 0, 60, 0
2, 127411, Note_on_c, 0, 60, 77
2, 127464, Note_on_c, 0, 76, 0
2, 127470, Note_on_c, 0, 88, 88
2, 127472, Note_on_c, 0, 52, 0
2, 127473, Note_on_c, 0, 76, 98
2, 127475, Note_on_c, 0, 64, 91
2, 127477, Note_on_c, 0, 52, 78
2, 127480, Note_on_c, 0, 88, 0
2, 127587, Note_on_c, 0, 45, 0
2, 127587, Note_on_c, 0, 57, 0
2, 127587, Note_on_c, 0, 60, 0
2, 127593, Note_on_c, 0, 45, 85
2, 127597, Note_on_c, 0, 60, 72
2, 127599, Note_on_c, 0, 57, 76
2, 127672, Note_on_c, 0, 52, 0
2, 127679, Note_on_c, 0, 52, 73
2, 127710, Note_on_c, 0, 57, 0
2, 127715, Note_on_c, 0, 57, 83
2, 127726, Note_on_c, 0, 60, 0
2, 127732, Note_on_c, 0, 60, 78
2, 127733, Note_on_c, 0, 79, 0
2, 127737, Note_on_c, 0, 79, 101
2, 127739, Note_on_c, 0, 65, 95
2, 127743, Note_on_c, 0, 77, 97
2, 127833, Note_on_c, 0, 45, 0
2, 127845, Note_on_c, 0, 45, 73
2, 127850, Note_on_c, 0, 47, 70
2, 127856, Note_on_c, 0, 47, 0
2, 127918, Note_on_c, 0, 52, 0
2, 127918, Note_on_c, 0, 60, 0
2, 127924, Note_on_c, 0, 60, 77
2, 127929, Note_on_c, 0, 52, 70
2, 127979, Note_on_c, 0, 64, 0
2, 127979, Note_on_c, 0, 76, 0
2, 127988, Note_on_c, 0, 76, 97
2, 127989, Note_on_c, 0, 64, 93
2, 128077, Note_on_c, 0, 52, 0
2, 128077, Note_on_c, 0, 83, 0
2, 128077, Note_on_c, 0, 60, 0
2, 128077, Note_on_c, 0, 74, 0
2, 128077, Note_on_c, 0, 71, 0
2, 128077, Note_on_c, 0, 69, 0
2, 128077, Note_on_c, 0, 62, 0
2, 128077, Note_on_c, 0, 67, 0
2, 128077, Note_on_c, 0, 65, 0
2, 128078, Note_on_c, 0, 57, 0
2, 128078, Control_c, 0, 64, 0
2, 128078, Note_on_c, 0, 77, 0
2, 128079, Note_on_c, 0, 72, 0
2, 128079, Note_on_c, 0, 79, 0
2, 128079, Note_on_c, 0, 84, 0
2, 128087, Note_on_c, 0, 33, 0
2, 128094, Note_on_c, 0, 45, 0
2, 128094, Note_on_c, 0, 64, 0
2, 128094, Note_on_c, 0, 81, 0
2, 128110, Note_on_c, 0, 76, 0
2, 128113, Note_on_c, 0, 36, 90
2, 128113, Note_on_c, 0, 48, 97
2, 128114, Note_on_c, 0, 76, 103
2, 128114, Note_on_c, 0, 64, 98
2, 128115, Note_on_c, 0, 67, 100
2, 128117, Note_on_c, 0, 72, 98
2, 128148, Control_c, 0, 64, 127
2, 128269, Note_on_c, 0, 55, 64
2, 128310, Note_on_c, 0, 60, 39
2, 128317, Note_on_c, 0, 60, 0
2, 128325, Note_on_c, 0, 64, 0
2, 128332, Note_on_c, 0, 76, 0
2, 128335, Note_on_c, 0, 64, 72
2, 128340, Note_on_c, 0, 76, 74
2, 128371, Note_on_c, 0, 48, 0
2, 128378, Note_on_c, 0, 48, 62
2, 128383, Note_on_c, 0, 77, 100
2, 128384, Note_on_c, 0, 65, 90
2, 128409, Note_on_c, 0, 55, 0
2, 128420, Note_on_c, 0, 55, 64
2, 128501, Note_on_c, 0, 48, 0
2, 128501, Note_on_c, 0, 64, 0
2, 128501, Note_on_c, 0, 76, 0
2, 128507, Note_on_c, 0, 48, 75
2, 128509, Note_on_c, 0, 76, 103
2, 128510, Note_on_c, 0, 64, 84
2, 128586, Note_on_c, 0, 55, 0
2, 128593, Note_on_c, 0, 55, 75
2, 128593, Note_on_c, 0, 48, 0
2, 128604, Note_on_c, 0, 60, 80
2, 128605, Note_on_c, 0, 48, 68
2, 128701, Note_on_c, 0, 64, 0
2, 128710, Note_on_c, 0, 64, 79
2, 128762, Note_on_c, 0, 65, 0
2, 128762, Note_on_c, 0, 77, 0
2, 128767, Note_on_c, 0, 77, 105
2, 128768, Note_on_c, 0, 65, 98
2, 128801, Note_on_c, 0, 55, 0
2, 128806, Note_on_c, 0, 55, 70
2, 128901, Note_on_c, 0, 48, 0
2, 128906, Note_on_c, 0, 48, 82
2, 128993, Note_on_c, 0, 55, 0
2, 129002, Note_on_c, 0, 55, 74
2, 129031, Note_on_c, 0, 48, 0
2, 129035, Note_on_c, 0, 48, 78
2, 129039, Note_on_c, 0, 67, 0
2, 129043, Note_on_c, 0, 79, 105
2, 129049, Note_on_c, 0, 67, 99
2, 129100, Note_on_c, 0, 64, 0
2, 129106, Note_on_c, 0, 64, 78
2, 129177, Note_on_c, 0, 55, 0
2, 129183, Note_on_c, 0, 55, 58
2, 129269, Note_on_c, 0, 48, 0
2, 129280, Note_on_c, 0, 48, 71
2, 129297, Note_on_c, 0, 81, 102
2, 129304, Note_on_c, 0, 69, 87
2, 129384, Note_on_c, 0, 55, 0
2, 129391, Note_on_c, 0, 55, 65
2, 129415, Note_on_c, 0, 79, 0
2, 129423, Note_on_c, 0, 79, 104
2, 129423, Note_on_c, 0, 60, 0
2, 129423, Note_on_c, 0, 67, 0
2, 129427, Note_on_c, 0, 67, 99
2, 129433, Note_on_c, 0, 60, 82
2, 129477, Note_on_c, 0, 64, 0
2, 129487, Note_on_c, 0, 64, 83
2, 129507, Note_on_c, 0, 72, 0
2, 129517, Note_on_c, 0, 72, 91
2, 129546, Note_on_c, 0, 76, 0
2, 129551, Note_on_c, 0, 76, 83
2, 129592, Note_on_c, 0, 55, 0
2, 129596, Note_on_c, 0, 55, 73
2, 129630, Note_on_c, 0, 79, 0
2, 129641, Note_on_c, 0, 79, 103
2, 129653, Note_on_c, 0, 48, 0
2, 129658, Note_on_c, 0, 48, 79
2, 129672, Note_on_c, 0, 84, 92
2, 129716, Note_on_c, 0, 88, 97
2, 129761, Note_on_c, 0, 55, 0
2, 129766, Note_on_c, 0, 55, 81
2, 129786, Note_on_c, 0, 83, 74
2, 129797, Note_on_c, 0, 91, 79
2, 129826, Note_on_c, 0, 96, 98
2, 129877, Note_on_c, 0, 100, 86
2, 129893, Note_on_c, 0, 103, 110
2, 129899, Note_on_c, 0, 48, 0
2, 129906, Note_on_c, 0, 48, 83
2, 129976, Note_on_c, 0, 103, 0
2, 129988, Note_on_c, 0, 67, 0
2, 129991, Note_on_c, 0, 64, 0
2, 130002, Note_on_c, 0, 64, 92
2, 130023, Note_on_c, 0, 56, 67
2, 130045, Note_on_c, 0, 60, 0
2, 130050, Note_on_c, 0, 60, 58
2, 130129, Note_on_c, 0, 83, 0
2, 130136, Note_on_c, 0, 96, 0
2, 130137, Control_c, 0, 64, 0
2, 130137, Note_on_c, 0, 48, 0
2, 130137, Note_on_c, 0, 65, 0
2, 130138, Note_on_c, 0, 77, 0
2, 130139, Note_on_c, 0, 60, 0
2, 130139, Note_on_c, 0, 69, 0
2, 130139, Note_on_c, 0, 91, 0
2, 130139, Note_on_c, 0, 64, 0
2, 130140, Note_on_c, 0, 56, 0
2, 130140, Note_on_c, 0, 88, 0
2, 130145, Note_on_c, 0, 36, 0
2, 130152, Note_on_c, 0, 55, 0
2, 130152, Note_on_c, 0, 72, 0
2, 130152, Note_on_c, 0, 76, 0
2, 130152, Note_on_c, 0, 79, 0
2, 130152, Note_on_c, 0, 84, 0
2, 130152, Note_on_c, 0, 100, 0
2, 130156, Note_on_c, 0, 84, 107
2, 130160, Note_on_c, 0, 81, 0
2, 130161, Note_on_c, 0, 41, 97
2, 130162, Note_on_c, 0, 72, 103
2, 130164, Note_on_c, 0, 76, 100
2, 130165, Note_on_c, 0, 81, 95
2, 130166, Note_on_c, 0, 29, 91
2, 130206, Control_c, 0, 64, 127
2, 130371, Note_on_c, 0, 53, 62
2, 130419, Note_on_c, 0, 83, 94
2, 130422, Note_on_c, 0, 69, 77
2, 130424, Note_on_c, 0, 57, 80
2, 130424, Note_on_c, 0, 71, 91
2, 130429, Note_on_c, 0, 69, 0
2, 130536, Note_on_c, 0, 53, 0
2, 130544, Note_on_c, 0, 53, 80
2, 130544, Note_on_c, 0, 41, 0
2, 130544, Note_on_c, 0, 81, 0
2, 130548, Note_on_c, 0, 41, 80
2, 130549, Note_on_c, 0, 81, 101
2, 130554, Note_on_c, 0, 69, 96
2, 130675, Note_on_c, 0, 53, 0
2, 130680, Note_on_c, 0, 53, 59
2, 130759, Note_on_c, 0, 57, 0
2, 130763, Note_on_c, 0, 57, 62
2, 130819, Note_on_c, 0, 79, 101
2, 130823, Note_on_c, 0, 67, 90
2, 130848, Note_on_c, 0, 48, 45
2, 130944, Note_on_c, 0, 41, 0
2, 130949, Note_on_c, 0, 41, 80
2, 130997, Note_on_c, 0, 48, 0
2, 131003, Note_on_c, 0, 48, 64
2, 131059, Note_on_c, 0, 53, 0
2, 131064, Note_on_c, 0, 53, 79
2, 131082, Note_on_c, 0, 67, 0
2, 131082, Note_on_c, 0, 79, 0
2, 131089, Note_on_c, 0, 79, 95
2, 131092, Note_on_c, 0, 67, 92
2, 131136, Note_on_c, 0, 57, 0
2, 131141, Note_on_c, 0, 57, 69
2, 131220, Note_on_c, 0, 48, 0
2, 131231, Note_on_c, 0, 48, 71
2, 131320, Note_on_c, 0, 41, 0
2, 131330, Note_on_c, 0, 41, 82
2, 131354, Note_on_c, 0, 74, 97
2, 131355, Note_on_c, 0, 62, 79
2, 131412, Note_on_c, 0, 48, 0
2, 131423, Note_on_c, 0, 48, 75
2, 131443, Note_on_c, 0, 54, 60
2, 131450, Note_on_c, 0, 54, 0
2, 131473, Note_on_c, 0, 53, 0
2, 131484, Note_on_c, 0, 53, 69
2, 131535, Note_on_c, 0, 57, 0
2, 131535, Note_on_c, 0, 69, 0
2, 131539, Note_on_c, 0, 57, 74
2, 131539, Note_on_c, 0, 69, 64
2, 131604, Note_on_c, 0, 76, 0
2, 131612, Note_on_c, 0, 48, 0
2, 131614, Note_on_c, 0, 76, 99
2, 131615, Note_on_c, 0, 45, 72
2, 131615, Note_on_c, 0, 64, 90
2, 131616, Note_on_c, 0, 48, 64
2, 131727, Note_on_c, 0, 41, 0
2, 131737, Note_on_c, 0, 41, 89
2, 131796, Note_on_c, 0, 48, 0
2, 131803, Note_on_c, 0, 48, 78
2, 131827, Note_on_c, 0, 53, 0
2, 131834, Note_on_c, 0, 53, 75
2, 131873, Note_on_c, 0, 57, 0
2, 131873, Note_on_c, 0, 69, 0
2, 131875, Note_on_c, 0, 77, 100
2, 131880, Note_on_c, 0, 57, 83
2, 131881, Note_on_c, 0, 65, 89
2, 131883, Note_on_c, 0, 69, 77
2, 131980, Note_on_c, 0, 41, 0
2, 131988, Note_on_c, 0, 41, 86
2, 132080, Note_on_c, 0, 57, 0
2, 132088, Note_on_c, 0, 45, 0
2, 132088, Note_on_c, 0, 48, 0
2, 132091, Note_on_c, 0, 57, 78
2, 132095, Note_on_c, 0, 48, 77
2, 132096, Note_on_c, 0, 45, 75
2, 132119, Note_on_c, 0, 76, 0
2, 132124, Note_on_c, 0, 76, 98
2, 132126, Note_on_c, 0, 64, 0
2, 132132, Note_on_c, 0, 64, 86
2, 132158, Note_on_c, 0, 73, 46
2, 132165, Note_on_c, 0, 73, 0
2, 132212, Note_on_c, 0, 74, 0
2, 132212, Note_on_c, 0, 41, 0
2, 132212, Note_on_c, 0, 53, 0
2, 132213, Note_on_c, 0, 65, 0
2, 132213, Note_on_c, 0, 62, 0
2, 132213, Note_on_c, 0, 57, 0
2, 132213, Note_on_c, 0, 71, 0
2, 132213, Note_on_c, 0, 48, 0
2, 132213, Note_on_c, 0, 69, 0
2, 132213, Note_on_c, 0, 64, 0
2, 132214, Note_on_c, 0, 81, 0
2, 132214, Note_on_c, 0, 83, 0
2, 132214, Note_on_c, 0, 77, 0
2, 132214, Note_on_c, 0, 79, 0
2, 132214, Note_on_c, 0, 72, 0
2, 132214, Note_on_c, 0, 67, 0
2, 132214, Note_on_c, 0, 84, 0
2, 132215, Control_c, 0, 64, 0
2, 132226, Note_on_c, 0, 29, 0
2, 132241, Note_on_c, 0, 76, 0
2, 132249, Note_on_c, 0, 45, 0
2, 132251, Note_on_c, 0, 76, 109
2, 132253, Note_on_c, 0, 64, 102
2, 132253, Note_on_c, 0, 45, 89
2, 132254, Note_on_c, 0, 72, 94
2, 132254, Note_on_c, 0, 33, 85
2, 132255, Note_on_c, 0, 69, 92
2, 132284, Note_on_c, 0, 33, 0
2, 132288, Control_c, 0, 64, 127
2, 132398, Note_on_c, 0, 56, 77
2, 132468, Note_on_c, 0, 60, 71
2, 132520, Note_on_c, 0, 65, 89
2, 132521, Note_on_c, 0, 79, 92
2, 132524, Note_on_c, 0, 52, 68
2, 132524, Note_on_c, 0, 77, 86
2, 132625, Note_on_c, 0, 45, 0
2, 132631, Note_on_c, 0, 45, 79
2, 132641, Note_on_c, 0, 64, 0
2, 132641, Note_on_c, 0, 76, 0
2, 132651, Note_on_c, 0, 76, 100
2, 132652, Note_on_c, 0, 64, 81
2, 132653, Note_on_c, 0, 83, 79
2, 132695, Note_on_c, 0, 52, 0
2, 132700, Note_on_c, 0, 52, 63
2, 132735, Note_on_c, 0, 57, 79
2, 132810, Note_on_c, 0, 60, 0
2, 132819, Note_on_c, 0, 48, 60
2, 132820, Note_on_c, 0, 60, 67
2, 132887, Note_on_c, 0, 52, 0
2, 132894, Note_on_c, 0, 52, 77
2, 132894, Note_on_c, 0, 65, 0
2, 132894, Note_on_c, 0, 77, 0
2, 132900, Note_on_c, 0, 77, 102
2, 132902, Note_on_c, 0, 69, 0
2, 132904, Note_on_c, 0, 65, 99
2, 132913, Note_on_c, 0, 69, 77
2, 132994, Note_on_c, 0, 45, 0
2, 133004, Note_on_c, 0, 45, 75
2, 133071, Note_on_c, 0, 48, 0
2, 133075, Note_on_c, 0, 48, 61
2, 133102, Note_on_c, 0, 52, 0
2, 133105, Note_on_c, 0, 52, 65
2, 133115, Note_on_c, 0, 53, 75
2, 133148, Note_on_c, 0, 76, 0
2, 133155, Note_on_c, 0, 64, 0
2, 133158, Note_on_c, 0, 76, 108
2, 133164, Note_on_c, 0, 64, 99
2, 133236, Note_on_c, 0, 83, 0
2, 133236, Note_on_c, 0, 69, 0
2, 133236, Note_on_c, 0, 52, 0
2, 133236, Note_on_c, 0, 79, 0
2, 133236, Note_on_c, 0, 72, 0
2, 133236, Note_on_c, 0, 60, 0
2, 133236, Note_on_c, 0, 57, 0
2, 133236, Note_on_c, 0, 65, 0
2, 133236, Note_on_c, 0, 56, 0
2, 133236, Note_on_c, 0, 53, 0
2, 133237, Note_on_c, 0, 77, 0
2, 133240, Note_on_c, 0, 48, 0
2, 133240, Control_c, 0, 64, 0
2, 133271, Note_on_c, 0, 45, 0
2, 133283, Note_on_c, 0, 31, 79
2, 133287, Note_on_c, 0, 43, 77
2, 133301, Control_c, 0, 64, 127
2, 133424, Note_on_c, 0, 43, 0
2, 133427, Note_on_c, 0, 74, 104
2, 133428, Note_on_c, 0, 43, 71
2, 133435, Note_on_c, 0, 62, 88
2, 133443, Note_on_c, 0, 55, 66
2, 133505, Note_on_c, 0, 59, 83
2, 133582, Note_on_c, 0, 50, 67
2, 133678, Note_on_c, 0, 43, 0
2, 133682, Note_on_c, 0, 43, 80
2, 133684, Note_on_c, 0, 72, 102
2, 133687, Note_on_c, 0, 60, 97
2, 133793, Note_on_c, 0, 55, 0
2, 133804, Note_on_c, 0, 55, 73
2, 133939, Note_on_c, 0, 59, 0
2, 133944, Note_on_c, 0, 71, 101
2, 133946, Note_on_c, 0, 62, 0
2, 133948, Note_on_c, 0, 59, 87
2, 133952, Note_on_c, 0, 62, 66
2, 134039, Note_on_c, 0, 43, 0
2, 134043, Note_on_c, 0, 43, 76
2, 134077, Note_on_c, 0, 50, 0
2, 134088, Note_on_c, 0, 50, 69
2, 134200, Note_on_c, 0, 72, 0
2, 134207, Note_on_c, 0, 72, 104
2, 134208, Note_on_c, 0, 60, 0
2, 134211, Note_on_c, 0, 69, 89
2, 134211, Note_on_c, 0, 60, 91
2, 134213, Note_on_c, 0, 65, 86
2, 134276, Control_c, 0, 64, 0
2, 134279, Note_on_c, 0, 71, 0
2, 134279, Note_on_c, 0, 59, 0
2, 134279, Note_on_c, 0, 62, 0
2, 134279, Note_on_c, 0, 43, 0
2, 134279, Note_on_c, 0, 50, 0
2, 134280, Note_on_c, 0, 74, 0
2, 134284, Note_on_c, 0, 31, 0
2, 134284, Note_on_c, 0, 64, 0
2, 134284, Note_on_c, 0, 76, 0
2, 134300, Note_on_c, 0, 55, 0
2, 134340, Note_on_c, 0, 50, 83
2, 134341, Note_on_c, 0, 38, 84
2, 134353, Control_c, 0, 64, 127
2, 134484, Note_on_c, 0, 60, 0
2, 134484, Note_on_c, 0, 72, 0
2, 134492, Note_on_c, 0, 38, 0
2, 134492, Note_on_c, 0, 50, 0
2, 134495, Note_on_c, 0, 60, 79
2, 134495, Note_on_c, 0, 72, 85
2, 134499, Note_on_c, 0, 69, 0
2, 134501, Note_on_c, 0, 38, 62
2, 134501, Note_on_c, 0, 50, 68
2, 134504, Note_on_c, 0, 69, 59
2, 134515, Note_on_c, 0, 65, 0
2, 134526, Note_on_c, 0, 65, 41
2, 134607, Note_on_c, 0, 50, 0
2, 134607, Note_on_c, 0, 65, 0
2, 134611, Note_on_c, 0, 50, 78
2, 134615, Note_on_c, 0, 69, 0
2, 134617, Note_on_c, 0, 65, 76
2, 134619, Note_on_c, 0, 69, 85
2, 134737, Note_on_c, 0, 69, 0
2, 134737, Note_on_c, 0, 72, 0
2, 134746, Note_on_c, 0, 57, 80
2, 134748, Note_on_c, 0, 72, 81
2, 134749, Note_on_c, 0, 69, 69
2, 134872, Note_on_c, 0, 81, 100
2, 134876, Note_on_c, 0, 77, 81
2, 134985, Note_on_c, 0, 84, 94
2, 135010, Note_on_c, 0, 62, 68
2, 135022, Note_on_c, 0, 69, 0
2, 135027, Note_on_c, 0, 69, 55
2, 135083, Note_on_c, 0, 65, 0
2, 135093, Note_on_c, 0, 65, 47
2, 135119, Note_on_c, 0, 89, 79
2, 135126, Note_on_c, 0, 93, 89
2, 135248, Note_on_c, 0, 69, 0
2, 135249, Note_on_c, 0, 77, 0
2, 135249, Note_on_c, 0, 81, 0
2, 135249, Note_on_c, 0, 72, 0
2, 135249, Note_on_c, 0, 62, 0
2, 135249, Note_on_c, 0, 57, 0
2, 135249, Note_on_c, 0, 50, 0
2, 135250, Note_on_c, 0, 89, 0
2, 135252, Note_on_c, 0, 84, 0
2, 135253, Control_c, 0, 64, 0
2, 135253, Note_on_c, 0, 38, 0
2, 135258, Note_on_c, 0, 96, 109
2, 135258, Note_on_c, 0, 84, 107
2, 135259, Note_on_c, 0, 91, 95
2, 135259, Note_on_c, 0, 40, 77
2, 135259, Note_on_c, 0, 88, 103
2, 135260, Note_on_c, 0, 65, 0
2, 135267, Note_on_c, 0, 60, 0
2, 135329, Control_c, 0, 64, 127
2, 135526, Note_on_c, 0, 60, 77
2, 135638, Note_on_c, 0, 52, 80
2, 135639, Note_on_c, 0, 64, 84
2, 135639, Note_on_c, 0, 67, 93
2, 135759, Note_on_c, 0, 60, 0
2, 135769, Note_on_c, 0, 72, 88
2, 135770, Note_on_c, 0, 60, 79
2, 135773, Note_on_c, 0, 48, 67
2, 135782, Note_on_c, 0, 48, 0
2, 135790, Note_on_c, 0, 67, 0
2, 135796, Note_on_c, 0, 67, 50
2, 135892, Note_on_c, 0, 76, 82
2, 135898, Note_on_c, 0, 79, 91
2, 135898, Note_on_c, 0, 55, 61
2, 136005, Note_on_c, 0, 84, 0
2, 136015, Note_on_c, 0, 84, 94
2, 136020, Note_on_c, 0, 64, 0
2, 136031, Note_on_c, 0, 64, 77
2, 136097, Note_on_c, 0, 55, 0
2, 136101, Note_on_c, 0, 55, 68
2, 136112, Note_on_c, 0, 60, 0
2, 136112, Note_on_c, 0, 67, 0
2, 136117, Note_on_c, 0, 60, 65
2, 136120, Note_on_c, 0, 88, 0
2, 136121, Note_on_c, 0, 67, 82
2, 136129, Note_on_c, 0, 88, 94
2, 136135, Note_on_c, 0, 91, 0
2, 136139, Note_on_c, 0, 91, 82
2, 136258, Note_on_c, 0, 96, 0
2, 136266, Note_on_c, 0, 84, 0
2, 136266, Note_on_c, 0, 91, 0
2, 136269, Note_on_c, 0, 96, 107
2, 136273, Control_c, 0, 64, 0
2, 136274, Note_on_c, 0, 72, 0
2, 136274, Note_on_c, 0, 79, 0
2, 136274, Note_on_c, 0, 76, 0
2, 136274, Note_on_c, 0, 60, 0
2, 136274, Note_on_c, 0, 52, 0
2, 136275, Note_on_c, 0, 64, 0
2, 136275, Note_on_c, 0, 55, 0
2, 136276, Note_on_c, 0, 91, 97
2, 136277, Note_on_c, 0, 84, 102
2, 136278, Note_on_c, 0, 40, 0
2, 136278, Note_on_c, 0, 89, 92
2, 136288, Note_on_c, 0, 41, 86
2, 136289, Note_on_c, 0, 67, 0
2, 136292, Note_on_c, 0, 53, 85
2, 136304, Note_on_c, 0, 88, 0
2, 136343, Control_c, 0, 64, 127
2, 136529, Note_on_c, 0, 60, 81
2, 136634, Note_on_c, 0, 53, 0
2, 136645, Note_on_c, 0, 65, 84
2, 136645, Note_on_c, 0, 53, 82
2, 136652, Note_on_c, 0, 67, 87
2, 136750, Note_on_c, 0, 60, 0
2, 136759, Note_on_c, 0, 57, 76
2, 136760, Note_on_c, 0, 60, 72
2, 136766, Note_on_c, 0, 72, 83
2, 136768, Note_on_c, 0, 69, 75
2, 136894, Note_on_c, 0, 77, 85
2, 136895, Note_on_c, 0, 79, 93
2, 137011, Note_on_c, 0, 84, 0
2, 137018, Note_on_c, 0, 96, 0
2, 137022, Note_on_c, 0, 84, 91
2, 137027, Note_on_c, 0, 86, 87
2, 137027, Note_on_c, 0, 98, 86
2, 137028, Note_on_c, 0, 96, 84
2, 137126, Note_on_c, 0, 41, 0
2, 137126, Note_on_c, 0, 53, 0
2, 137130, Note_on_c, 0, 53, 83
2, 137131, Note_on_c, 0, 41, 72
2, 137149, Note_on_c, 0, 72, 0
2, 137154, Note_on_c, 0, 72, 75
2, 137157, Note_on_c, 0, 67, 0
2, 137165, Note_on_c, 0, 67, 51
2, 137264, Note_on_c, 0, 60, 0
2, 137264, Note_on_c, 0, 77, 0
2, 137270, Note_on_c, 0, 77, 83
2, 137275, Note_on_c, 0, 60, 76
2, 137275, Note_on_c, 0, 80, 85
2, 137276, Note_on_c, 0, 68, 90
2, 137387, Note_on_c, 0, 84, 0
2, 137387, Note_on_c, 0, 96, 0
2, 137391, Note_on_c, 0, 96, 102
2, 137391, Note_on_c, 0, 84, 102
2, 137495, Note_on_c, 0, 53, 0
2, 137504, Note_on_c, 0, 53, 88
2, 137518, Note_on_c, 0, 72, 0
2, 137524, Note_on_c, 0, 72, 88
2, 137640, Note_on_c, 0, 53, 0
2, 137640, Note_on_c, 0, 77, 0
2, 137640, Note_on_c, 0, 80, 0
2, 137646, Note_on_c, 0, 77, 81
2, 137648, Note_on_c, 0, 60, 0
2, 137648, Note_on_c, 0, 68, 0
2, 137651, Note_on_c, 0, 80, 93
2, 137651, Note_on_c, 0, 53, 70
2, 137652, Note_on_c, 0, 68, 91
2, 137656, Note_on_c, 0, 60, 75
2, 137763, Note_on_c, 0, 84, 0
2, 137763, Note_on_c, 0, 96, 0
2, 137769, Note_on_c, 0, 84, 110
2, 137769, Note_on_c, 0, 96, 112
2, 137902, Note_on_c, 0, 53, 0
2, 137902, Note_on_c, 0, 72, 0
2, 137905, Note_on_c, 0, 72, 88
2, 137909, Note_on_c, 0, 41, 0
2, 137913, Note_on_c, 0, 53, 87
2, 137914, Note_on_c, 0, 41, 57
2, 138024, Note_on_c, 0, 60, 0
2, 138024, Note_on_c, 0, 68, 0
2, 138029, Note_on_c, 0, 68, 91
2, 138030, Note_on_c, 0, 60, 75
2, 138140, Note_on_c, 0, 84, 0
2, 138140, Note_on_c, 0, 96, 0
2, 138147, Note_on_c, 0, 84, 105
2, 138147, Note_on_c, 0, 96, 105
2, 138278, Note_on_c, 0, 86, 0
2, 138278, Note_on_c, 0, 93, 0
2, 138278, Note_on_c, 0, 98, 0
2, 138284, Note_on_c, 0, 86, 105
2, 138286, Note_on_c, 0, 91, 0
2, 138288, Note_on_c, 0, 98, 105
2, 138289, Note_on_c, 0, 95, 102
2, 138296, Note_on_c, 0, 91, 94
2, 138302, Note_on_c, 0, 41, 0
2, 138304, Note_on_c, 0, 67, 0
2, 138304, Note_on_c, 0, 53, 0
2, 138304, Note_on_c, 0, 43, 85
2, 138304, Note_on_c, 0, 65, 0
2, 138304, Note_on_c, 0, 80, 0
2, 138304, Note_on_c, 0, 77, 0
2, 138304, Note_on_c, 0, 79, 0
2, 138304, Note_on_c, 0, 84, 0
2, 138305, Note_on_c, 0, 72, 0
2, 138305, Note_on_c, 0, 89, 0
2, 138305, Note_on_c, 0, 68, 0
2, 138305, Note_on_c, 0, 60, 0
2, 138305, Note_on_c, 0, 57, 0
2, 138309, Control_c, 0, 64, 0
2, 138311, Note_on_c, 0, 55, 83
2, 138315, Note_on_c, 0, 92, 57
2, 138316, Note_on_c, 0, 69, 0
2, 138439, Control_c, 0, 64, 127
2, 138524, Note_on_c, 0, 92, 0
2, 138677, Note_on_c, 0, 91, 0
2, 138681, Note_on_c, 0, 103, 99
2, 138686, Note_on_c, 0, 91, 99
2, 138741, Note_on_c, 0, 101, 83
2, 138743, Note_on_c, 0, 89, 79
2, 138778, Note_on_c, 0, 100, 85
2, 138783, Note_on_c, 0, 88, 87
2, 138808, Note_on_c, 0, 98, 0
2, 138813, Note_on_c, 0, 98, 87
2, 138816, Note_on_c, 0, 86, 0
2, 138826, Note_on_c, 0, 86, 82
2, 138862, Note_on_c, 0, 96, 0
2, 138870, Note_on_c, 0, 96, 82
2, 138872, Note_on_c, 0, 84, 81
2, 138915, Note_on_c, 0, 95, 0
2, 138920, Note_on_c, 0, 95, 81
2, 138924, Note_on_c, 0, 83, 82
2, 138965, Note_on_c, 0, 93, 82
2, 138975, Note_on_c, 0, 81, 71
2, 139000, Note_on_c, 0, 91, 0
2, 139009, Note_on_c, 0, 91, 78
2, 139015, Note_on_c, 0, 79, 78
2, 139054, Note_on_c, 0, 89, 0
2, 139065, Note_on_c, 0, 89, 79
2, 139067, Note_on_c, 0, 77, 75
2, 139100, Note_on_c, 0, 88, 0
2, 139111, Note_on_c, 0, 88, 80
2, 139116, Note_on_c, 0, 76, 68
2, 139153, Note_on_c, 0, 86, 0
2, 139161, Note_on_c, 0, 86, 85
2, 139165, Note_on_c, 0, 74, 72
2, 139215, Note_on_c, 0, 84, 0
2, 139226, Note_on_c, 0, 72, 75
2, 139226, Note_on_c, 0, 84, 73
2, 139276, Note_on_c, 0, 83, 0
2, 139280, Note_on_c, 0, 83, 78
2, 139288, Note_on_c, 0, 71, 63
2, 139338, Note_on_c, 0, 81, 0
2, 139342, Note_on_c, 0, 69, 78
2, 139347, Note_on_c, 0, 81, 80
2, 139384, Note_on_c, 0, 79, 0
2, 139395, Note_on_c, 0, 79, 75
2, 139399, Note_on_c, 0, 55, 0
2, 139402, Note_on_c, 0, 67, 68
2, 139407, Note_on_c, 0, 55, 63
2, 139461, Note_on_c, 0, 79, 0
2, 139461, Note_on_c, 0, 91, 0
2, 139466, Note_on_c, 0, 91, 95
2, 139468, Note_on_c, 0, 74, 0
2, 139472, Note_on_c, 0, 79, 99
2, 139476, Note_on_c, 0, 74, 76
2, 139486, Note_on_c, 0, 101, 0
2, 139487, Note_on_c, 0, 100, 0
2, 139487, Note_on_c, 0, 96, 0
2, 139487, Note_on_c, 0, 95, 0
2, 139488, Note_on_c, 0, 93, 0
2, 139488, Note_on_c, 0, 72, 0
2, 139489, Note_on_c, 0, 84, 0
2, 139489, Note_on_c, 0, 83, 0
2, 139489, Note_on_c, 0, 76, 0
2, 139496, Control_c, 0, 64, 0
2, 139499, Note_on_c, 0, 43, 0
2, 139503, Note_on_c, 0, 31, 71
2, 139508, Note_on_c, 0, 43, 62
2, 139514, Note_on_c, 0, 88, 0
2, 139599, Note_on_c, 0, 103, 0
2, 139599, Control_c, 0, 64, 127
2, 139645, Note_on_c, 0, 81, 0
2, 139649, Note_on_c, 0, 45, 58
2, 139650, Note_on_c, 0, 33, 57
2, 139719, Note_on_c, 0, 47, 58
2, 139723, Note_on_c, 0, 35, 53
2, 139810, Note_on_c, 0, 36, 53
2, 139810, Note_on_c, 0, 48, 61
2, 139892, Note_on_c, 0, 50, 63
2, 139893, Note_on_c, 0, 38, 59
2, 139952, Note_on_c, 0, 71, 0
2, 139952, Note_on_c, 0, 86, 0
2, 139957, Note_on_c, 0, 52, 71
2, 139959, Note_on_c, 0, 40, 65
2, 140017, Note_on_c, 0, 53, 75
2, 140018, Note_on_c, 0, 41, 61
2, 140060, Note_on_c, 0, 43, 0
2, 140060, Note_on_c, 0, 55, 0
2, 140069, Note_on_c, 0, 55, 75
2, 140070, Note_on_c, 0, 43, 65
2, 140113, Note_on_c, 0, 45, 0
2, 140118, Note_on_c, 0, 45, 69
2, 140122, Note_on_c, 0, 57, 78
2, 140160, Note_on_c, 0, 31, 0
2, 140160, Note_on_c, 0, 35, 0
2, 140160, Note_on_c, 0, 67, 0
2, 140160, Note_on_c, 0, 69, 0
2, 140160, Note_on_c, 0, 74, 0
2, 140160, Note_on_c, 0, 77, 0
2, 140160, Note_on_c, 0, 79, 0
2, 140160, Note_on_c, 0, 89, 0
2, 140160, Note_on_c, 0, 91, 0
2, 140160, Note_on_c, 0, 98, 0
2, 140167, Note_on_c, 0, 47, 0
2, 140174, Note_on_c, 0, 59, 75
2, 140175, Note_on_c, 0, 47, 65
2, 140221, Note_on_c, 0, 48, 0
2, 140232, Note_on_c, 0, 48, 61
2, 140233, Note_on_c, 0, 60, 77
2, 140275, Note_on_c, 0, 50, 0
2, 140279, Note_on_c, 0, 50, 71
2, 140285, Note_on_c, 0, 62, 77
2, 140328, Note_on_c, 0, 52, 0
2, 140333, Note_on_c, 0, 52, 63
2, 140340, Note_on_c, 0, 64, 73
2, 140375, Note_on_c, 0, 53, 0
2, 140382, Note_on_c, 0, 53, 68
2, 140394, Note_on_c, 0, 65, 71
2, 140428, Note_on_c, 0, 33, 0
2, 140432, Note_on_c, 0, 67, 67
2, 140436, Note_on_c, 0, 55, 0
2, 140440, Note_on_c, 0, 55, 64
2, 140581, Note_on_c, 0, 45, 0
2, 140581, Note_on_c, 0, 57, 0
2, 140581, Note_on_c, 0, 64, 0
2, 140581, Note_on_c, 0, 47, 0
2, 140581, Note_on_c, 0, 53, 0
2, 140581, Note_on_c, 0, 62, 0
2, 140581, Note_on_c, 0, 41, 0
2, 140582, Note_on_c, 0, 65, 0
2, 140582, Note_on_c, 0, 50, 0
2, 140582, Note_on_c, 0, 52, 0
2, 140582, Note_on_c, 0, 60, 0
2, 140582, Note_on_c, 0, 59, 0
2, 140583, Note_on_c, 0, 40, 0
2, 140583, Note_on_c, 0, 55, 0
2, 140583, Note_on_c, 0, 43, 0
2, 140583, Note_on_c, 0, 67, 0
2, 140583, Note_on_c, 0, 38, 0
2, 140586, Control_c, 0, 64, 0
2, 140590, Note_on_c, 0, 36, 0
2, 140597, Note_on_c, 0, 48, 0
2, 140601, Note_on_c, 0, 76, 92
2, 140604, Note_on_c, 0, 72, 85
2, 140608, Note_on_c, 0, 48, 64
2, 140851, Control_c, 0, 64, 127
2, 140897, Note_on_c, 0, 72, 0
2, 141175, Note_on_c, 0, 60, 53
2, 141176, Note_on_c, 0, 55, 47
2, 141177, Note_on_c, 0, 64, 50
2, 141711, Note_on_c, 0, 55, 0
2, 141711, Note_on_c, 0, 60, 0
2, 141711, Note_on_c, 0, 64, 0
2, 141721, Note_on_c, 0, 64, 61
2, 141721, Note_on_c, 0, 55, 59
2, 141722, Note_on_c, 0, 60, 53
2, 141842, Note_on_c, 0, 72, 68
2, 141911, Note_on_c, 0, 76, 0
2, 141916, Note_on_c, 0, 76, 67
2, 141987, Note_on_c, 0, 74, 58
2, 142026, Note_on_c, 0, 72, 0
2, 142032, Note_on_c, 0, 72, 77
2, 142072, Note_on_c, 0, 74, 0
2, 142078, Note_on_c, 0, 74, 82
2, 142126, Note_on_c, 0, 76, 0
2, 142135, Note_on_c, 0, 76, 75
2, 142209, Note_on_c, 0, 77, 87
2, 142218, Note_on_c, 0, 64, 0
2, 142222, Note_on_c, 0, 64, 75
2, 142225, Note_on_c, 0, 55, 0
2, 142225, Note_on_c, 0, 60, 0
2, 142227, Note_on_c, 0, 48, 0
2, 142231, Note_on_c, 0, 55, 69
2, 142235, Note_on_c, 0, 60, 66
2, 142269, Note_on_c, 0, 79, 85
2, 142310, Note_on_c, 0, 81, 74
2, 142361, Note_on_c, 0, 83, 78
2, 142435, Note_on_c, 0, 84, 76
2, 142522, Note_on_c, 0, 86, 84
2, 142620, Note_on_c, 0, 88, 94
2, 142767, Note_on_c, 0, 60, 0
2, 142767, Note_on_c, 0, 74, 0
2, 142767, Note_on_c, 0, 86, 0
2, 142767, Note_on_c, 0, 81, 0
2, 142767, Note_on_c, 0, 55, 0
2, 142767, Note_on_c, 0, 83, 0
2, 142767, Note_on_c, 0, 79, 0
2, 142767, Note_on_c, 0, 84, 0
2, 142767, Note_on_c, 0, 77, 0
2, 142767, Note_on_c, 0, 64, 0
2, 142768, Note_on_c, 0, 88, 0
2, 142768, Control_c, 0, 64, 0
2, 142768, Note_on_c, 0, 92, 88
2, 142769, Note_on_c, 0, 52, 69
2, 142770, Note_on_c, 0, 40, 67
2, 142778, Note_on_c, 0, 72, 0
2, 142778, Note_on_c, 0, 76, 0
2, 142853, Note_on_c, 0, 95, 91
2, 142855, Control_c, 0, 64, 127
2, 142942, Note_on_c, 0, 89, 82
2, 142993, Note_on_c, 0, 92, 0
2, 142998, Note_on_c, 0, 92, 86
2, 143057, Note_on_c, 0, 88, 93
2, 143116, Note_on_c, 0, 89, 0
2, 143127, Note_on_c, 0, 89, 84
2, 143200, Note_on_c, 0, 86, 87
2, 143255, Note_on_c, 0, 88, 0
2, 143264, Note_on_c, 0, 88, 82
2, 143295, Note_on_c, 0, 64, 68
2, 143301, Note_on_c, 0, 52, 0
2, 143303, Note_on_c, 0, 59, 65
2, 143305, Note_on_c, 0, 52, 60
2, 143306, Note_on_c, 0, 56, 67
2, 143318, Note_on_c, 0, 84, 85
2, 143385, Note_on_c, 0, 86, 0
2, 143394, Note_on_c, 0, 86, 79
2, 143462, Note_on_c, 0, 83, 76
2, 143485, Note_on_c, 0, 84, 0
2, 143491, Note_on_c, 0, 84, 63
2, 143551, Note_on_c, 0, 81, 82
2, 143608, Note_on_c, 0, 83, 0
2, 143616, Note_on_c, 0, 83, 81
2, 143664, Note_on_c, 0, 80, 78
2, 143738, Note_on_c, 0, 83, 0
2, 143749, Note_on_c, 0, 83, 78
2, 143823, Note_on_c, 0, 64, 0
2, 143828, Note_on_c, 0, 77, 82
2, 143831, Note_on_c, 0, 56, 0
2, 143831, Note_on_c, 0, 59, 0
2, 143833, Note_on_c, 0, 64, 67
2, 143835, Note_on_c, 0, 56, 62
2, 143835, Note_on_c, 0, 59, 60
2, 143877, Note_on_c, 0, 80, 0
2, 143881, Note_on_c, 0, 80, 85
2, 143958, Note_on_c, 0, 76, 79
2, 144007, Note_on_c, 0, 77, 0
2, 144014, Note_on_c, 0, 77, 88
2, 144091, Note_on_c, 0, 74, 80
2, 144130, Note_on_c, 0, 76, 0
2, 144139, Note_on_c, 0, 76, 70
2, 144197, Note_on_c, 0, 72, 80
2, 144261, Note_on_c, 0, 74, 0
2, 144270, Note_on_c, 0, 74, 79
2, 144360, Note_on_c, 0, 64, 0
2, 144369, Note_on_c, 0, 64, 73
2, 144371, Note_on_c, 0, 71, 81
2, 144376, Note_on_c, 0, 56, 0
2, 144376, Note_on_c, 0, 59, 0
2, 144378, Note_on_c, 0, 92, 0
2, 144378, Note_on_c, 0, 72, 0
2, 144378, Note_on_c, 0, 52, 0
2, 144378, Note_on_c, 0, 80, 0
2, 144378, Note_on_c, 0, 84, 0
2, 144378, Note_on_c, 0, 40, 0
2, 144379, Note_on_c, 0, 95, 0
2, 144379, Note_on_c, 0, 86, 0
2, 144379, Note_on_c, 0, 83, 0
2, 144379, Note_on_c, 0, 81, 0
2, 144379, Note_on_c, 0, 74, 0
2, 144379, Note_on_c, 0, 77, 0
2, 144379, Note_on_c, 0, 76, 0
2, 144380, Note_on_c, 0, 59, 68
2, 144383, Control_c, 0, 64, 0
2, 144387, Note_on_c, 0, 56, 62
2, 144391, Note_on_c, 0, 88, 0
2, 144391, Note_on_c, 0, 89, 0
2, 144451, Note_on_c, 0, 72, 78
2, 144460, Control_c, 0, 64, 127
2, 144524, Note_on_c, 0, 74, 74
2, 144568, Note_on_c, 0, 72, 0
2, 144578, Note_on_c, 0, 72, 75
2, 144614, Note_on_c, 0, 74, 0
2, 144621, Note_on_c, 0, 74, 84
2, 144675, Note_on_c, 0, 72, 0
2, 144683, Note_on_c, 0, 72, 80
2, 144744, Note_on_c, 0, 71, 0
2, 144753, Note_on_c, 0, 71, 72
2, 144806, Note_on_c, 0, 72, 0
2, 144814, Note_on_c, 0, 72, 71
2, 144898, Note_on_c, 0, 74, 0
2, 144906, Note_on_c, 0, 74, 88
2, 144911, Note_on_c, 0, 72, 0
2, 144911, Note_on_c, 0, 71, 0
2, 144911, Note_on_c, 0, 56, 0
2, 144912, Note_on_c, 0, 59, 0
2, 144912, Control_c, 0, 64, 0
2, 144929, Note_on_c, 0, 64, 0
2, 144929, Note_on_c, 0, 57, 64
2, 144932, Note_on_c, 0, 45, 65
2, 145021, Control_c, 0, 64, 127
2, 145308, Note_on_c, 0, 72, 68
2, 145359, Note_on_c, 0, 74, 0
2, 145370, Note_on_c, 0, 74, 65
2, 145413, Note_on_c, 0, 72, 0
2, 145418, Note_on_c, 0, 72, 83
2, 145443, Note_on_c, 0, 57, 0
2, 145445, Note_on_c, 0, 64, 64
2, 145448, Note_on_c, 0, 60, 59
2, 145453, Note_on_c, 0, 57, 61
2, 145464, Control_c, 0, 64, 0
2, 145469, Note_on_c, 0, 69, 56
2, 145543, Control_c, 0, 64, 127
2, 145989, Note_on_c, 0, 72, 0
2, 145999, Note_on_c, 0, 72, 60
2, 146004, Note_on_c, 0, 64, 0
2, 146013, Note_on_c, 0, 64, 60
2, 146019, Note_on_c, 0, 57, 0
2, 146019, Note_on_c, 0, 60, 0
2, 146024, Note_on_c, 0, 57, 60
2, 146025, Note_on_c, 0, 60, 53
2, 146084, Note_on_c, 0, 76, 82
2, 146161, Note_on_c, 0, 81, 81
2, 146226, Note_on_c, 0, 83, 73
2, 146259, Note_on_c, 0, 84, 81
2, 146327, Note_on_c, 0, 88, 92
2, 146391, Note_on_c, 0, 93, 88
2, 146461, Note_on_c, 0, 95, 78
2, 146465, Note_on_c, 0, 45, 0
2, 146522, Note_on_c, 0, 96, 88
2, 146549, Note_on_c, 0, 57, 0
2, 146549, Note_on_c, 0, 60, 0
2, 146549, Note_on_c, 0, 64, 0
2, 146553, Note_on_c, 0, 60, 54
2, 146554, Note_on_c, 0, 57, 67
2, 146556, Note_on_c, 0, 64, 67
2, 146603, Note_on_c, 0, 95, 0
2, 146612, Note_on_c, 0, 95, 80
2, 146649, Note_on_c, 0, 93, 0
2, 146659, Note_on_c, 0, 93, 79
2, 146703, Note_on_c, 0, 88, 0
2, 146710, Note_on_c, 0, 88, 89
2, 146772, Note_on_c, 0, 84, 0
2, 146783, Note_on_c, 0, 84, 75
2, 146841, Note_on_c, 0, 83, 0
2, 146850, Note_on_c, 0, 83, 74
2, 146903, Note_on_c, 0, 81, 0
2, 146913, Note_on_c, 0, 81, 77
2, 146987, Note_on_c, 0, 76, 0
2, 146997, Note_on_c, 0, 76, 57
2, 147041, Note_on_c, 0, 74, 0
2, 147049, Note_on_c, 0, 69, 0
2, 147049, Note_on_c, 0, 60, 0
2, 147050, Note_on_c, 0, 72, 0
2, 147050, Note_on_c, 0, 95, 0
2, 147050, Note_on_c, 0, 88, 0
2, 147050, Note_on_c, 0, 96, 0
2, 147051, Note_on_c, 0, 76, 0
2, 147051, Note_on_c, 0, 84, 0
2, 147051, Note_on_c, 0, 64, 0
2, 147051, Note_on_c, 0, 83, 0
2, 147052, Control_c, 0, 64, 0
2, 147063, Note_on_c, 0, 73, 77
2, 147064, Note_on_c, 0, 57, 0
2, 147064, Note_on_c, 0, 93, 0
2, 147069, Note_on_c, 0, 57, 66
2, 147072, Note_on_c, 0, 81, 0
2, 147073, Note_on_c, 0, 45, 69
2, 147118, Control_c, 0, 64, 127
2, 147145, Note_on_c, 0, 69, 69
2, 147217, Note_on_c, 0, 76, 82
2, 147279, Note_on_c, 0, 73, 0
2, 147288, Note_on_c, 0, 73, 68
2, 147314, Note_on_c, 0, 79, 83
2, 147394, Note_on_c, 0, 76, 0
2, 147402, Note_on_c, 0, 76, 85
2, 147448, Note_on_c, 0, 79, 0
2, 147454, Note_on_c, 0, 79, 75
2, 147532, Note_on_c, 0, 79, 0
2, 147536, Note_on_c, 0, 79, 87
2, 147586, Note_on_c, 0, 57, 0
2, 147589, Note_on_c, 0, 64, 68
2, 147591, Note_on_c, 0, 85, 91
2, 147597, Note_on_c, 0, 57, 68
2, 147604, Note_on_c, 0, 61, 64
2, 147673, Note_on_c, 0, 81, 86
2, 147743, Note_on_c, 0, 88, 90
2, 147801, Note_on_c, 0, 85, 0
2, 147809, Note_on_c, 0, 85, 87
2, 147852, Note_on_c, 0, 91, 86
2, 147924, Note_on_c, 0, 88, 0
2, 147933, Note_on_c, 0, 88, 97
2, 147987, Note_on_c, 0, 93, 89
2, 148062, Note_on_c, 0, 91, 0
2, 148067, Note_on_c, 0, 91, 75
2, 148108, Note_on_c, 0, 64, 0
2, 148114, Note_on_c, 0, 97, 96
2, 148116, Note_on_c, 0, 57, 0
2, 148116, Note_on_c, 0, 61, 0
2, 148117, Note_on_c, 0, 64, 74
2, 148121, Note_on_c, 0, 57, 69
2, 148121, Note_on_c, 0, 61, 70
2, 148169, Note_on_c, 0, 76, 0
2, 148173, Note_on_c, 0, 73, 0
2, 148174, Note_on_c, 0, 69, 0
2, 148174, Note_on_c, 0, 45, 0
2, 148174, Control_c, 0, 64, 0
2, 148185, Note_on_c, 0, 93, 0
2, 148192, Note_on_c, 0, 93, 88
2, 148234, Note_on_c, 0, 100, 88
2, 148239, Control_c, 0, 64, 127
2, 148293, Note_on_c, 0, 97, 0
2, 148302, Note_on_c, 0, 97, 96
2, 148377, Note_on_c, 0, 93, 0
2, 148383, Note_on_c, 0, 93, 81
2, 148431, Note_on_c, 0, 91, 0
2, 148438, Note_on_c, 0, 91, 79
2, 148495, Note_on_c, 0, 89, 64
2, 148584, Note_on_c, 0, 88, 0
2, 148589, Note_on_c, 0, 88, 79
2, 148631, Note_on_c, 0, 85, 0
2, 148637, Note_on_c, 0, 85, 85
2, 148669, Note_on_c, 0, 64, 0
2, 148676, Note_on_c, 0, 64, 67
2, 148677, Note_on_c, 0, 57, 0
2, 148677, Note_on_c, 0, 61, 0
2, 148682, Note_on_c, 0, 61, 61
2, 148687, Note_on_c, 0, 57, 61
2, 148707, Note_on_c, 0, 81, 0
2, 148713, Note_on_c, 0, 81, 78
2, 148769, Note_on_c, 0, 88, 0
2, 148778, Note_on_c, 0, 88, 84
2, 148846, Note_on_c, 0, 85, 0
2, 148854, Note_on_c, 0, 85, 86
2, 148915, Note_on_c, 0, 81, 0
2, 148919, Note_on_c, 0, 81, 75
2, 148984, Note_on_c, 0, 79, 0
2, 148988, Note_on_c, 0, 79, 88
2, 149074, Note_on_c, 0, 77, 81
2, 149147, Note_on_c, 0, 76, 82
2, 149237, Note_on_c, 0, 76, 0
2, 149248, Note_on_c, 0, 76, 92
2, 149260, Note_on_c, 0, 100, 0
2, 149260, Note_on_c, 0, 64, 0
2, 149261, Note_on_c, 0, 79, 0
2, 149261, Note_on_c, 0, 91, 0
2, 149261, Note_on_c, 0, 88, 0
2, 149261, Note_on_c, 0, 93, 0
2, 149262, Note_on_c, 0, 97, 0
2, 149262, Note_on_c, 0, 85, 0
2, 149262, Note_on_c, 0, 77, 0
2, 149262, Note_on_c, 0, 89, 0
2, 149263, Note_on_c, 0, 81, 0
2, 149263, Note_on_c, 0, 61, 0
2, 149266, Control_c, 0, 64, 0
2, 149267, Note_on_c, 0, 62, 62
2, 149272, Note_on_c, 0, 50, 62
2, 149283, Note_on_c, 0, 57, 0
2, 149445, Control_c, 0, 64, 127
2, 149645, Note_on_c, 0, 77, 78
2, 149690, Note_on_c, 0, 76, 0
2, 149701, Note_on_c, 0, 76, 70
2, 149769, Note_on_c, 0, 74, 77
2, 149790, Note_on_c, 0, 62, 0
2, 149801, Note_on_c, 0, 62, 49
2, 149801, Note_on_c, 0, 57, 54
2, 149801, Note_on_c, 0, 65, 54
2, 149801, Note_on_c, 0, 69, 48
2, 150097, Note_on_c, 0, 74, 0
2, 150102, Note_on_c, 0, 74, 55
2, 150136, Note_on_c, 0, 76, 0
2, 150143, Note_on_c, 0, 76, 75
2, 150190, Note_on_c, 0, 74, 0
2, 150197, Note_on_c, 0, 74, 71
2, 150254, Note_on_c, 0, 73, 76
2, 150328, Note_on_c, 0, 57, 0
2, 150328, Note_on_c, 0, 74, 0
2, 150334, Note_on_c, 0, 74, 73
2, 150336, Note_on_c, 0, 62, 0
2, 150336, Note_on_c, 0, 65, 0
2, 150336, Note_on_c, 0, 69, 0
2, 150339, Note_on_c, 0, 57, 68
2, 150341, Note_on_c, 0, 69, 58
2, 150341, Note_on_c, 0, 62, 61
2, 150341, Note_on_c, 0, 65, 63
2, 150356, Note_on_c, 0, 77, 0
2, 150357, Note_on_c, 0, 50, 0
2, 150357, Note_on_c, 0, 73, 0
2, 150357, Note_on_c, 0, 76, 0
2, 150360, Control_c, 0, 64, 0
2, 150423, Note_on_c, 0, 77, 81
2, 150435, Control_c, 0, 64, 127
2, 150485, Note_on_c, 0, 81, 68
2, 150532, Note_on_c, 0, 85, 86
2, 150616, Note_on_c, 0, 86, 88
2, 150681, Note_on_c, 0, 74, 0
2, 150701, Note_on_c, 0, 89, 86
2, 150746, Note_on_c, 0, 93, 75
2, 150808, Note_on_c, 0, 97, 84
2, 150862, Note_on_c, 0, 98, 91
2, 150873, Note_on_c, 0, 65, 0
2, 150881, Note_on_c, 0, 57, 0
2, 150883, Note_on_c, 0, 65, 73
2, 150888, Note_on_c, 0, 62, 0
2, 150891, Note_on_c, 0, 57, 71
2, 150894, Note_on_c, 0, 62, 65
2, 150927, Note_on_c, 0, 93, 0
2, 150936, Note_on_c, 0, 93, 76
2, 150981, Note_on_c, 0, 89, 0
2, 150989, Note_on_c, 0, 89, 74
2, 151047, Note_on_c, 0, 88, 79
2, 151119, Note_on_c, 0, 86, 0
2, 151128, Note_on_c, 0, 86, 78
2, 151188, Note_on_c, 0, 81, 0
2, 151192, Note_on_c, 0, 81, 73
2, 151242, Note_on_c, 0, 77, 0
2, 151251, Note_on_c, 0, 77, 81
2, 151322, Note_on_c, 0, 74, 66
2, 151415, Note_on_c, 0, 72, 80
2, 151416, Note_on_c, 0, 88, 0
2, 151417, Note_on_c, 0, 98, 0
2, 151417, Note_on_c, 0, 77, 0
2, 151418, Note_on_c, 0, 89, 0
2, 151418, Note_on_c, 0, 93, 0
2, 151418, Note_on_c, 0, 62, 0
2, 151418, Note_on_c, 0, 65, 0
2, 151419, Note_on_c, 0, 86, 0
2, 151419, Note_on_c, 0, 97, 0
2, 151419, Note_on_c, 0, 69, 0
2, 151420, Note_on_c, 0, 81, 0
2, 151420, Note_on_c, 0, 57, 0
2, 151421, Note_on_c, 0, 85, 0
2, 151421, Control_c, 0, 64, 0
2, 151437, Note_on_c, 0, 52, 69
2, 151441, Note_on_c, 0, 74, 0
2, 151541, Control_c, 0, 64, 127
2, 151585, Note_on_c, 0, 72, 0
2, 151591, Note_on_c, 0, 74, 67
2, 151658, Note_on_c, 0, 72, 67
2, 151718, Note_on_c, 0, 74, 0
2, 151729, Note_on_c, 0, 74, 69
2, 151756, Note_on_c, 0, 72, 0
2, 151762, Note_on_c, 0, 72, 75
2, 151833, Note_on_c, 0, 74, 0
2, 151844, Note_on_c, 0, 74, 56
2, 151864, Note_on_c, 0, 72, 0
2, 151874, Note_on_c, 0, 72, 72
2, 151933, Note_on_c, 0, 52, 0
2, 151942, Note_on_c, 0, 60, 60
2, 151943, Note_on_c, 0, 52, 52
2, 151944, Note_on_c, 0, 64, 56
2, 151962, Note_on_c, 0, 55, 58
2, 151964, Note_on_c, 0, 72, 0
2, 151975, Note_on_c, 0, 72, 65
2, 152010, Note_on_c, 0, 74, 0
2, 152021, Note_on_c, 0, 74, 57
2, 152048, Note_on_c, 0, 72, 0
2, 152059, Note_on_c, 0, 72, 77
2, 152194, Note_on_c, 0, 72, 0
2, 152201, Note_on_c, 0, 72, 61
2, 152271, Note_on_c, 0, 74, 0
2, 152280, Note_on_c, 0, 74, 67
2, 152317, Note_on_c, 0, 72, 0
2, 152327, Note_on_c, 0, 72, 72
2, 152395, Note_on_c, 0, 71, 64
2, 152455, Note_on_c, 0, 64, 0
2, 152455, Note_on_c, 0, 72, 0
2, 152460, Note_on_c, 0, 72, 72
2, 152463, Note_on_c, 0, 55, 0
2, 152464, Note_on_c, 0, 64, 68
2, 152470, Note_on_c, 0, 55, 66
2, 152478, Note_on_c, 0, 60, 0
2, 152478, Note_on_c, 0, 71, 0
2, 152479, Note_on_c, 0, 74, 0
2, 152479, Note_on_c, 0, 52, 0
2, 152481, Control_c, 0, 64, 0
2, 152485, Note_on_c, 0, 60, 58
2, 152547, Note_on_c, 0, 76, 81
2, 152555, Control_c, 0, 64, 127
2, 152609, Note_on_c, 0, 79, 76
2, 152650, Note_on_c, 0, 83, 86
2, 152734, Note_on_c, 0, 84, 81
2, 152802, Note_on_c, 0, 88, 95
2, 152863, Note_on_c, 0, 91, 75
2, 152908, Note_on_c, 0, 95, 84
2, 152980, Note_on_c, 0, 96, 87
2, 153008, Note_on_c, 0, 55, 0
2, 153008, Note_on_c, 0, 60, 0
2, 153008, Note_on_c, 0, 64, 0
2, 153014, Note_on_c, 0, 64, 69
2, 153018, Note_on_c, 0, 60, 69
2, 153019, Note_on_c, 0, 55, 71
2, 153054, Note_on_c, 0, 91, 0
2, 153061, Note_on_c, 0, 91, 69
2, 153070, Note_on_c, 0, 72, 0
2, 153097, Note_on_c, 0, 89, 83
2, 153162, Note_on_c, 0, 88, 0
2, 153168, Note_on_c, 0, 88, 78
2, 153231, Note_on_c, 0, 84, 0
2, 153242, Note_on_c, 0, 84, 83
2, 153323, Note_on_c, 0, 79, 0
2, 153329, Note_on_c, 0, 79, 78
2, 153377, Note_on_c, 0, 76, 0
2, 153382, Note_on_c, 0, 76, 73
2, 153441, Note_on_c, 0, 72, 77
2, 153514, Note_on_c, 0, 60, 0
2, 153515, Note_on_c, 0, 88, 0
2, 153515, Note_on_c, 0, 76, 0
2, 153515, Note_on_c, 0, 95, 0
2, 153515, Note_on_c, 0, 89, 0
2, 153516, Note_on_c, 0, 64, 0
2, 153517, Note_on_c, 0, 72, 0
2, 153518, Note_on_c, 0, 79, 0
2, 153519, Control_c, 0, 64, 0
2, 153523, Note_on_c, 0, 91, 0
2, 153523, Note_on_c, 0, 96, 0
2, 153526, Note_on_c, 0, 76, 82
2, 153527, Note_on_c, 0, 41, 65
2, 153530, Note_on_c, 0, 55, 0
2, 153530, Note_on_c, 0, 83, 0
2, 153538, Note_on_c, 0, 84, 0
2, 153604, Note_on_c, 0, 74, 69
2, 153607, Control_c, 0, 64, 127
2, 153651, Note_on_c, 0, 73, 68
2, 153661, Note_on_c, 0, 76, 0
2, 153730, Note_on_c, 0, 74, 0
2, 153740, Note_on_c, 0, 74, 66
2, 153793, Note_on_c, 0, 79, 87
2, 153865, Note_on_c, 0, 77, 82
2, 153932, Note_on_c, 0, 76, 79
2, 154014, Note_on_c, 0, 77, 0
2, 154020, Note_on_c, 0, 77, 75
2, 154060, Note_on_c, 0, 62, 68
2, 154067, Note_on_c, 0, 57, 71
2, 154070, Note_on_c, 0, 53, 68
2, 154070, Note_on_c, 0, 83, 84
2, 154140, Note_on_c, 0, 81, 76
2, 154176, Note_on_c, 0, 73, 0
2, 154204, Note_on_c, 0, 80, 74
2, 154268, Note_on_c, 0, 81, 0
2, 154277, Note_on_c, 0, 81, 78
2, 154334, Note_on_c, 0, 88, 96
2, 154405, Note_on_c, 0, 86, 80
2, 154461, Note_on_c, 0, 85, 83
2, 154521, Note_on_c, 0, 86, 0
2, 154532, Note_on_c, 0, 86, 84
2, 154583, Note_on_c, 0, 41, 0
2, 154585, Note_on_c, 0, 91, 93
2, 154590, Note_on_c, 0, 57, 0
2, 154598, Note_on_c, 0, 53, 0
2, 154598, Note_on_c, 0, 62, 0
2, 154599, Note_on_c, 0, 57, 76
2, 154607, Note_on_c, 0, 62, 64
2, 154609, Note_on_c, 0, 53, 74
2, 154651, Note_on_c, 0, 89, 86
2, 154705, Note_on_c, 0, 88, 0
2, 154710, Note_on_c, 0, 88, 93
2, 154767, Note_on_c, 0, 89, 0
2, 154777, Note_on_c, 0, 89, 83
2, 154832, Note_on_c, 0, 95, 91
2, 154896, Note_on_c, 0, 93, 90
2, 154956, Note_on_c, 0, 92, 89
2, 155020, Note_on_c, 0, 93, 0
2, 155027, Note_on_c, 0, 93, 73
2, 155085, Note_on_c, 0, 92, 0
2, 155085, Note_on_c, 0, 80, 0
2, 155085, Note_on_c, 0, 85, 0
2, 155085, Note_on_c, 0, 95, 0
2, 155085, Note_on_c, 0, 93, 0
2, 155085, Note_on_c, 0, 86, 0
2, 155085, Note_on_c, 0, 83, 0
2, 155086, Note_on_c, 0, 88, 0
2, 155086, Note_on_c, 0, 81, 0
2, 155086, Note_on_c, 0, 91, 0
2, 155086, Note_on_c, 0, 79, 0
2, 155086, Note_on_c, 0, 76, 0
2, 155087, Note_on_c, 0, 100, 94
2, 155089, Note_on_c, 0, 53, 0
2, 155089, Note_on_c, 0, 57, 0
2, 155089, Note_on_c, 0, 62, 0
2, 155089, Note_on_c, 0, 74, 0
2, 155089, Note_on_c, 0, 77, 0
2, 155089, Control_c, 0, 64, 0
2, 155094, Note_on_c, 0, 62, 71
2, 155094, Note_on_c, 0, 57, 75
2, 155096, Note_on_c, 0, 53, 70
2, 155112, Note_on_c, 0, 89, 0
2, 155146, Note_on_c, 0, 101, 85
2, 155182, Control_c, 0, 64, 127
2, 155217, Note_on_c, 0, 98, 90
2, 155270, Note_on_c, 0, 93, 87
2, 155349, Note_on_c, 0, 88, 96
2, 155408, Note_on_c, 0, 89, 77
2, 155470, Note_on_c, 0, 86, 82
2, 155545, Note_on_c, 0, 81, 79
2, 155623, Control_c, 0, 64, 0
2, 155623, Note_on_c, 0, 88, 0
2, 155624, Note_on_c, 0, 62, 0
2, 155624, Note_on_c, 0, 57, 0
2, 155624, Note_on_c, 0, 86, 0
2, 155624, Note_on_c, 0, 101, 0
2, 155625, Note_on_c, 0, 100, 0
2, 155626, Note_on_c, 0, 98, 0
2, 155626, Note_on_c, 0, 93, 0
2, 155626, Note_on_c, 0, 53, 0
2, 155633, Note_on_c, 0, 85, 89
2, 155642, Note_on_c, 0, 43, 70
2, 155650, Note_on_c, 0, 89, 0
2, 155665, Note_on_c, 0, 81, 0
2, 155727, Control_c, 0, 64, 127
2, 155737, Note_on_c, 0, 86, 83
2, 155809, Note_on_c, 0, 88, 87
2, 155865, Note_on_c, 0, 86, 0
2, 155871, Note_on_c, 0, 86, 82
2, 155927, Note_on_c, 0, 88, 0
2, 155934, Note_on_c, 0, 88, 77
2, 155973, Note_on_c, 0, 86, 0
2, 155978, Note_on_c, 0, 86, 86
2, 156026, Note_on_c, 0, 88, 0
2, 156037, Note_on_c, 0, 88, 80
2, 156072, Note_on_c, 0, 86, 0
2, 156084, Note_on_c, 0, 86, 80
2, 156126, Note_on_c, 0, 88, 0
2, 156131, Note_on_c, 0, 88, 82
2, 156150, Note_on_c, 0, 62, 59
2, 156154, Note_on_c, 0, 59, 61
2, 156159, Note_on_c, 0, 55, 56
2, 156180, Note_on_c, 0, 86, 0
2, 156184, Note_on_c, 0, 86, 81
2, 156199, Control_c, 0, 64, 0
2, 156234, Note_on_c, 0, 88, 0
2, 156243, Note_on_c, 0, 88, 70
2, 156272, Control_c, 0, 64, 127
2, 156318, Note_on_c, 0, 86, 0
2, 156328, Note_on_c, 0, 86, 78
2, 156418, Note_on_c, 0, 85, 0
2, 156427, Note_on_c, 0, 85, 83
2, 156572, Note_on_c, 0, 86, 0
2, 156578, Note_on_c, 0, 86, 85
2, 156725, Note_on_c, 0, 55, 0
2, 156725, Note_on_c, 0, 59, 0
2, 156725, Note_on_c, 0, 62, 0
2, 156729, Note_on_c, 0, 91, 79
2, 156730, Note_on_c, 0, 62, 58
2, 156732, Note_on_c, 0, 59, 62
2, 156734, Note_on_c, 0, 55, 60
2, 156769, Control_c, 0, 64, 0
2, 156800, Note_on_c, 0, 89, 77
2, 156802, Control_c, 0, 64, 127
2, 156871, Note_on_c, 0, 88, 0
2, 156879, Note_on_c, 0, 88, 71
2, 156917, Note_on_c, 0, 86, 0
2, 156925, Note_on_c, 0, 86, 79
2, 156971, Note_on_c, 0, 84, 66
2, 157045, Note_on_c, 0, 83, 70
2, 157115, Note_on_c, 0, 81, 64
2, 157174, Note_on_c, 0, 79, 72
2, 157239, Note_on_c, 0, 77, 75
2, 157320, Note_on_c, 0, 76, 63
2, 157397, Note_on_c, 0, 74, 60
2, 157470, Note_on_c, 0, 72, 59
2, 157560, Note_on_c, 0, 71, 55
2, 157646, Note_on_c, 0, 69, 56
2, 157738, Note_on_c, 0, 67, 63
2, 157863, Note_on_c, 0, 60, 73
2, 157864, Note_on_c, 0, 53, 60
2, 157900, Note_on_c, 0, 72, 0
2, 157905, Note_on_c, 0, 72, 53
2, 157908, Note_on_c, 0, 85, 0
2, 157908, Note_on_c, 0, 91, 0
2, 157925, Control_c, 0, 64, 0
2, 157931, Note_on_c, 0, 59, 0
2, 157931, Note_on_c, 0, 83, 0
2, 157931, Note_on_c, 0, 89, 0
2, 157939, Note_on_c, 0, 81, 0
2, 157946, Note_on_c, 0, 79, 0
2, 157954, Note_on_c, 0, 69, 0
2, 157954, Note_on_c, 0, 77, 0
2, 157954, Note_on_c, 0, 88, 0
2, 157962, Note_on_c, 0, 84, 0
2, 158016, Note_on_c, 0, 74, 0
2, 158023, Note_on_c, 0, 62, 0
2, 158026, Note_on_c, 0, 74, 49
2, 158039, Note_on_c, 0, 86, 0
2, 158085, Note_on_c, 0, 72, 0
2, 158093, Note_on_c, 0, 72, 55
2, 158100, Note_on_c, 0, 76, 0
2, 158154, Note_on_c, 0, 71, 0
2, 158154, Note_on_c, 0, 74, 0
2, 158159, Note_on_c, 0, 59, 77
2, 158161, Note_on_c, 0, 71, 62
2, 158163, Note_on_c, 0, 74, 51
2, 158231, Control_c, 0, 64, 127
2, 158238, Note_on_c, 0, 72, 0
2, 158242, Note_on_c, 0, 72, 57
2, 158269, Control_c, 0, 64, 0
2, 158300, Note_on_c, 0, 74, 0
2, 158302, Note_on_c, 0, 57, 78
2, 158303, Note_on_c, 0, 69, 67
2, 158305, Note_on_c, 0, 74, 60
2, 158369, Note_on_c, 0, 72, 0
2, 158378, Note_on_c, 0, 72, 61
2, 158446, Note_on_c, 0, 74, 0
2, 158453, Note_on_c, 0, 74, 47
2, 158476, Control_c, 0, 64, 127
2, 158507, Note_on_c, 0, 72, 0
2, 158513, Note_on_c, 0, 72, 63
2, 158576, Note_on_c, 0, 55, 0
2, 158576, Note_on_c, 0, 74, 0
2, 158587, Note_on_c, 0, 55, 76
2, 158588, Note_on_c, 0, 74, 60
2, 158630, Note_on_c, 0, 72, 0
2, 158634, Note_on_c, 0, 72, 65
2, 158691, Note_on_c, 0, 74, 0
2, 158698, Note_on_c, 0, 74, 58
2, 158837, Note_on_c, 0, 43, 0
2, 158853, Note_on_c, 0, 55, 0
2, 158853, Note_on_c, 0, 72, 0
2, 158857, Note_on_c, 0, 55, 77
2, 158859, Note_on_c, 0, 72, 59
2, 158906, Note_on_c, 0, 74, 0
2, 158910, Note_on_c, 0, 74, 49
2, 158918, Control_c, 0, 64, 0
2, 158945, Note_on_c, 0, 71, 0
2, 158952, Note_on_c, 0, 72, 0
2, 158964, Note_on_c, 0, 72, 59
2, 158968, Note_on_c, 0, 59, 0
2, 158983, Control_c, 0, 64, 127
2, 159014, Note_on_c, 0, 67, 0
2, 159018, Note_on_c, 0, 43, 63
2, 159052, Note_on_c, 0, 74, 0
2, 159060, Note_on_c, 0, 74, 54
2, 159098, Note_on_c, 0, 72, 0
2, 159102, Note_on_c, 0, 72, 56
2, 159137, Note_on_c, 0, 69, 0
2, 159152, Note_on_c, 0, 74, 0
2, 159158, Note_on_c, 0, 50, 82
2, 159159, Note_on_c, 0, 74, 60
2, 159160, Control_c, 0, 64, 0
2, 159183, Note_on_c, 0, 60, 0
2, 159193, Note_on_c, 0, 53, 0
2, 159193, Note_on_c, 0, 57, 0
2, 159193, Note_on_c, 0, 55, 0
2, 159221, Note_on_c, 0, 72, 0
2, 159232, Note_on_c, 0, 72, 67
2, 159252, Note_on_c, 0, 74, 0
2, 159360, Note_on_c, 0, 72, 0
2, 159360, Control_c, 0, 64, 127
2, 159368, Note_on_c, 0, 72, 72
2, 159390, Control_c, 0, 64, 0
2, 159440, Note_on_c, 0, 52, 78
2, 159440, Note_on_c, 0, 74, 56
2, 159475, Note_on_c, 0, 72, 0
2, 159475, Note_on_c, 0, 50, 0
2, 159483, Note_on_c, 0, 72, 68
2, 159544, Note_on_c, 0, 74, 0
2, 159552, Note_on_c, 0, 74, 58
2, 159598, Control_c, 0, 64, 127
2, 159651, Note_on_c, 0, 72, 0
2, 159656, Note_on_c, 0, 71, 43
2, 159656, Note_on_c, 0, 72, 53
2, 159667, Note_on_c, 0, 71, 0
2, 159726, Note_on_c, 0, 53, 77
2, 159767, Note_on_c, 0, 72, 0
2, 159773, Note_on_c, 0, 72, 67
2, 159828, Note_on_c, 0, 74, 0
2, 159835, Note_on_c, 0, 74, 61
2, 159889, Note_on_c, 0, 72, 0
2, 159900, Note_on_c, 0, 72, 43
2, 159989, Note_on_c, 0, 72, 0
2, 159995, Note_on_c, 0, 72, 71
2, 159997, Note_on_c, 0, 52, 0
2, 160007, Note_on_c, 0, 52, 74
2, 160094, Note_on_c, 0, 74, 0
2, 160094, Note_on_c, 0, 52, 0
2, 160096, Note_on_c, 0, 53, 0
2, 160097, Control_c, 0, 64, 0
2, 160112, Note_on_c, 0, 43, 0
2, 160135, Note_on_c, 0, 72, 0
2, 160144, Note_on_c, 0, 72, 72
2, 160145, Note_on_c, 0, 52, 73
2, 160146, Note_on_c, 0, 40, 69
2, 160204, Control_c, 0, 64, 127
2, 160209, Note_on_c, 0, 74, 59
2, 160289, Note_on_c, 0, 72, 0
2, 160295, Note_on_c, 0, 72, 59
2, 160296, Note_on_c, 0, 74, 0
2, 160301, Note_on_c, 0, 74, 50
2, 160366, Note_on_c, 0, 74, 0
2, 160373, Note_on_c, 0, 74, 43
2, 160412, Note_on_c, 0, 72, 0
2, 160423, Note_on_c, 0, 72, 72
2, 160424, Note_on_c, 0, 53, 77
2, 160473, Note_on_c, 0, 74, 0
2, 160481, Note_on_c, 0, 74, 55
2, 160550, Note_on_c, 0, 72, 0
2, 160555, Note_on_c, 0, 72, 66
2, 160565, Note_on_c, 0, 52, 0
2, 160577, Note_on_c, 0, 52, 74
2, 160611, Note_on_c, 0, 74, 0
2, 160616, Note_on_c, 0, 74, 26
2, 160673, Note_on_c, 0, 72, 0
2, 160681, Note_on_c, 0, 72, 70
2, 160734, Note_on_c, 0, 74, 0
2, 160745, Note_on_c, 0, 74, 60
2, 160803, Note_on_c, 0, 72, 0
2, 160809, Note_on_c, 0, 72, 72
2, 160849, Note_on_c, 0, 53, 0
2, 160849, Note_on_c, 0, 74, 0
2, 160854, Note_on_c, 0, 53, 79
2, 160860, Note_on_c, 0, 74, 64
2, 160919, Note_on_c, 0, 72, 0
2, 160923, Note_on_c, 0, 72, 60
2, 160995, Note_on_c, 0, 74, 0
2, 161006, Note_on_c, 0, 74, 55
2, 161057, Note_on_c, 0, 72, 0
2, 161062, Note_on_c, 0, 72, 66
2, 161103, Note_on_c, 0, 52, 0
2, 161108, Note_on_c, 0, 52, 79
2, 161126, Note_on_c, 0, 74, 0
2, 161130, Note_on_c, 0, 74, 53
2, 161180, Note_on_c, 0, 72, 0
2, 161191, Note_on_c, 0, 72, 72
2, 161231, Note_on_c, 0, 45, 69
2, 161264, Note_on_c, 0, 74, 0
2, 161271, Note_on_c, 0, 74, 45
2, 161303, Note_on_c, 0, 72, 0
2, 161312, Note_on_c, 0, 72, 73
2, 161364, Note_on_c, 0, 74, 0
2, 161375, Note_on_c, 0, 74, 61
2, 161418, Note_on_c, 0, 72, 0
2, 161429, Note_on_c, 0, 72, 69
2, 161498, Note_on_c, 0, 50, 75
2, 161571, Note_on_c, 0, 74, 0
2, 161583, Note_on_c, 0, 74, 57
2, 161633, Note_on_c, 0, 72, 0
2, 161637, Note_on_c, 0, 72, 84
2, 161638, Note_on_c, 0, 48, 75
2, 161717, Note_on_c, 0, 53, 0
2, 161733, Note_on_c, 0, 52, 0
2, 161768, Note_on_c, 0, 67, 69
2, 161825, Note_on_c, 0, 74, 0
2, 161837, Note_on_c, 0, 69, 71
2, 161848, Note_on_c, 0, 50, 0
2, 161892, Note_on_c, 0, 71, 72
2, 161955, Note_on_c, 0, 72, 0
2, 161961, Note_on_c, 0, 72, 82
2, 162016, Note_on_c, 0, 74, 74
2, 162075, Note_on_c, 0, 76, 75
2, 162118, Note_on_c, 0, 77, 84
2, 162195, Note_on_c, 0, 79, 92
2, 162252, Control_c, 0, 64, 0
2, 162255, Note_on_c, 0, 40, 0
2, 162258, Note_on_c, 0, 74, 0
2, 162258, Note_on_c, 0, 69, 0
2, 162258, Note_on_c, 0, 45, 0
2, 162258, Note_on_c, 0, 67, 0
2, 162259, Note_on_c, 0, 48, 0
2, 162259, Note_on_c, 0, 71, 0
2, 162260, Note_on_c, 0, 72, 0
2, 162260, Note_on_c, 0, 76, 0
2, 162261, Note_on_c, 0, 77, 0
2, 162266, Note_on_c, 0, 79, 0
2, 162290, Note_on_c, 0, 60, 72
2, 162290, Note_on_c, 0, 86, 88
2, 162290, Note_on_c, 0, 53, 61
2, 162370, Control_c, 0, 64, 127
2, 162380, Note_on_c, 0, 62, 65
2, 162401, Note_on_c, 0, 60, 0
2, 162426, Note_on_c, 0, 62, 0
2, 162456, Note_on_c, 0, 60, 65
2, 162551, Note_on_c, 0, 62, 59
2, 162573, Note_on_c, 0, 83, 86
2, 162608, Note_on_c, 0, 60, 0
2, 162612, Note_on_c, 0, 60, 59
2, 162662, Note_on_c, 0, 62, 0
2, 162670, Note_on_c, 0, 62, 55
2, 162713, Note_on_c, 0, 81, 89
2, 162739, Note_on_c, 0, 60, 0
2, 162750, Note_on_c, 0, 60, 70
2, 162816, Note_on_c, 0, 62, 0
2, 162823, Note_on_c, 0, 62, 54
2, 162877, Note_on_c, 0, 60, 0
2, 162888, Note_on_c, 0, 60, 60
2, 162938, Note_on_c, 0, 62, 0
2, 162948, Note_on_c, 0, 62, 48
2, 162974, Note_on_c, 0, 79, 88
2, 163023, Note_on_c, 0, 60, 0
2, 163027, Note_on_c, 0, 60, 67
2, 163100, Note_on_c, 0, 62, 0
2, 163105, Note_on_c, 0, 62, 57
2, 163200, Note_on_c, 0, 60, 0
2, 163204, Note_on_c, 0, 60, 62
2, 163238, Note_on_c, 0, 79, 0
2, 163249, Note_on_c, 0, 79, 93
2, 163276, Note_on_c, 0, 62, 0
2, 163288, Note_on_c, 0, 62, 69
2, 163308, Control_c, 0, 64, 0
2, 163308, Note_on_c, 0, 83, 0
2, 163309, Note_on_c, 0, 53, 0
2, 163310, Note_on_c, 0, 81, 0
2, 163311, Note_on_c, 0, 60, 0
2, 163330, Note_on_c, 0, 86, 0
2, 163353, Note_on_c, 0, 62, 0
2, 163374, Note_on_c, 0, 55, 64
2, 163384, Control_c, 0, 64, 127
2, 163458, Note_on_c, 0, 62, 56
2, 163518, Note_on_c, 0, 60, 56
2, 163535, Note_on_c, 0, 74, 80
2, 163568, Note_on_c, 0, 62, 0
2, 163580, Note_on_c, 0, 62, 62
2, 163660, Note_on_c, 0, 60, 0
2, 163671, Note_on_c, 0, 60, 60
2, 163752, Note_on_c, 0, 62, 0
2, 163756, Note_on_c, 0, 62, 66
2, 163799, Note_on_c, 0, 76, 88
2, 163829, Note_on_c, 0, 60, 0
2, 163834, Note_on_c, 0, 60, 62
2, 163871, Control_c, 0, 64, 0
2, 163871, Note_on_c, 0, 55, 0
2, 163872, Note_on_c, 0, 62, 0
2, 163906, Control_c, 0, 64, 127
2, 163914, Note_on_c, 0, 60, 0
2, 163920, Note_on_c, 0, 56, 68
2, 164025, Note_on_c, 0, 62, 50
2, 164070, Note_on_c, 0, 60, 65
2, 164071, Note_on_c, 0, 77, 91
2, 164136, Note_on_c, 0, 62, 0
2, 164147, Note_on_c, 0, 62, 53
2, 164244, Note_on_c, 0, 60, 0
2, 164248, Note_on_c, 0, 60, 61
2, 164328, Note_on_c, 0, 62, 0
2, 164328, Note_on_c, 0, 76, 0
2, 164337, Note_on_c, 0, 76, 83
2, 164337, Note_on_c, 0, 62, 67
2, 164411, Note_on_c, 0, 56, 0
2, 164413, Note_on_c, 0, 60, 0
2, 164414, Note_on_c, 0, 77, 0
2, 164414, Control_c, 0, 64, 0
2, 164415, Note_on_c, 0, 62, 0
2, 164419, Note_on_c, 0, 60, 56
2, 164421, Note_on_c, 0, 74, 0
2, 164451, Note_on_c, 0, 76, 0
2, 164463, Note_on_c, 0, 76, 82
2, 164464, Note_on_c, 0, 57, 76
2, 164467, Note_on_c, 0, 79, 0
2, 164490, Control_c, 0, 64, 127
2, 164503, Note_on_c, 0, 60, 0
2, 164560, Note_on_c, 0, 62, 55
2, 164617, Note_on_c, 0, 60, 61
2, 164697, Note_on_c, 0, 62, 0
2, 164703, Note_on_c, 0, 62, 52
2, 164747, Note_on_c, 0, 77, 87
2, 164774, Note_on_c, 0, 60, 0
2, 164780, Note_on_c, 0, 60, 55
2, 164828, Note_on_c, 0, 62, 0
2, 164838, Note_on_c, 0, 62, 55
2, 164866, Note_on_c, 0, 76, 0
2, 164878, Note_on_c, 0, 76, 79
2, 164904, Note_on_c, 0, 60, 0
2, 164912, Note_on_c, 0, 60, 69
2, 164981, Note_on_c, 0, 62, 0
2, 164986, Note_on_c, 0, 62, 52
2, 165035, Note_on_c, 0, 60, 0
2, 165039, Note_on_c, 0, 60, 66
2, 165096, Note_on_c, 0, 62, 0
2, 165106, Note_on_c, 0, 62, 51
2, 165150, Note_on_c, 0, 60, 0
2, 165150, Note_on_c, 0, 77, 0
2, 165155, Note_on_c, 0, 60, 61
2, 165156, Note_on_c, 0, 77, 87
2, 165219, Note_on_c, 0, 62, 0
2, 165229, Note_on_c, 0, 62, 57
2, 165288, Note_on_c, 0, 60, 0
2, 165300, Note_on_c, 0, 60, 67
2, 165388, Note_on_c, 0, 62, 0
2, 165399, Note_on_c, 0, 62, 58
2, 165411, Note_on_c, 0, 76, 0
2, 165422, Note_on_c, 0, 76, 86
2, 165457, Note_on_c, 0, 60, 0
2, 165469, Note_on_c, 0, 60, 63
2, 165469, Note_on_c, 0, 77, 0
2, 165469, Note_on_c, 0, 62, 0
2, 165469, Control_c, 0, 64, 0
2, 165470, Note_on_c, 0, 57, 0
2, 165527, Note_on_c, 0, 60, 0
2, 165540, Note_on_c, 0, 52, 65
2, 165542, Control_c, 0, 64, 127
2, 165625, Note_on_c, 0, 62, 53
2, 165694, Note_on_c, 0, 60, 55
2, 165742, Note_on_c, 0, 62, 0
2, 165749, Note_on_c, 0, 62, 58
2, 165834, Note_on_c, 0, 60, 0
2, 165835, Note_on_c, 0, 74, 79
2, 165838, Note_on_c, 0, 60, 60
2, 165949, Note_on_c, 0, 62, 0
2, 165958, Note_on_c, 0, 62, 68
2, 165959, Note_on_c, 0, 72, 81
2, 165980, Note_on_c, 0, 60, 0
2, 165991, Note_on_c, 0, 60, 74
2, 166038, Note_on_c, 0, 52, 0
2, 166040, Control_c, 0, 64, 0
2, 166072, Control_c, 0, 64, 127
2, 166096, Note_on_c, 0, 55, 66
2, 166149, Note_on_c, 0, 60, 0
2, 166178, Note_on_c, 0, 57, 69
2, 166208, Note_on_c, 0, 59, 71
2, 166254, Note_on_c, 0, 60, 76
2, 166341, Note_on_c, 0, 62, 0
2, 166346, Note_on_c, 0, 62, 65
2, 166376, Note_on_c, 0, 64, 67
2, 166438, Note_on_c, 0, 65, 66
2, 166484, Note_on_c, 0, 67, 76
2, 166586, Note_on_c, 0, 62, 0
2, 166586, Note_on_c, 0, 60, 0
2, 166587, Note_on_c, 0, 55, 0
2, 166587, Note_on_c, 0, 64, 0
2, 166587, Note_on_c, 0, 72, 0
2, 166587, Note_on_c, 0, 59, 0
2, 166588, Note_on_c, 0, 67, 0
2, 166588, Note_on_c, 0, 57, 0
2, 166588, Note_on_c, 0, 65, 0
2, 166589, Control_c, 0, 64, 0
2, 166594, Note_on_c, 0, 74, 0
2, 166594, Note_on_c, 0, 76, 0
2, 166619, Note_on_c, 0, 84, 87
2, 166623, Note_on_c, 0, 72, 89
2, 166626, Note_on_c, 0, 53, 71
2, 166627, Note_on_c, 0, 60, 67
2, 166656, Control_c, 0, 64, 127
2, 166730, Note_on_c, 0, 74, 66
2, 166817, Note_on_c, 0, 72, 0
2, 166822, Note_on_c, 0, 72, 61
2, 166886, Note_on_c, 0, 83, 94
2, 166898, Note_on_c, 0, 59, 73
2, 167026, Note_on_c, 0, 57, 75
2, 167027, Note_on_c, 0, 81, 76
2, 167028, Note_on_c, 0, 79, 79
2, 167028, Note_on_c, 0, 69, 72
2, 167032, Note_on_c, 0, 69, 0
2, 167078, Note_on_c, 0, 72, 0
2, 167085, Note_on_c, 0, 72, 81
2, 167155, Note_on_c, 0, 74, 0
2, 167166, Note_on_c, 0, 74, 78
2, 167270, Note_on_c, 0, 79, 0
2, 167274, Note_on_c, 0, 79, 102
2, 167299, Note_on_c, 0, 55, 75
2, 167370, Note_on_c, 0, 72, 0
2, 167374, Note_on_c, 0, 72, 69
2, 167431, Note_on_c, 0, 74, 0
2, 167442, Note_on_c, 0, 74, 69
2, 167539, Note_on_c, 0, 55, 0
2, 167539, Note_on_c, 0, 79, 0
2, 167543, Note_on_c, 0, 79, 99
2, 167548, Note_on_c, 0, 55, 72
2, 167592, Note_on_c, 0, 83, 0
2, 167593, Note_on_c, 0, 81, 0
2, 167595, Control_c, 0, 64, 0
2, 167595, Note_on_c, 0, 60, 0
2, 167596, Note_on_c, 0, 57, 0
2, 167596, Note_on_c, 0, 53, 0
2, 167596, Note_on_c, 0, 84, 0
2, 167600, Note_on_c, 0, 74, 0
2, 167603, Note_on_c, 0, 59, 0
2, 167608, Note_on_c, 0, 72, 0
2, 167613, Note_on_c, 0, 72, 77
2, 167623, Control_c, 0, 64, 127
2, 167675, Note_on_c, 0, 43, 73
2, 167713, Note_on_c, 0, 74, 62
2, 167792, Note_on_c, 0, 74, 0
2, 167802, Note_on_c, 0, 74, 89
2, 167827, Note_on_c, 0, 50, 72
2, 167900, Note_on_c, 0, 72, 0
2, 167911, Note_on_c, 0, 72, 74
2, 167984, Note_on_c, 0, 74, 0
2, 167990, Note_on_c, 0, 74, 63
2, 168079, Note_on_c, 0, 52, 79
2, 168086, Note_on_c, 0, 76, 92
2, 168158, Note_on_c, 0, 55, 0
2, 168158, Note_on_c, 0, 74, 0
2, 168158, Control_c, 0, 64, 0
2, 168158, Note_on_c, 0, 50, 0
2, 168159, Note_on_c, 0, 52, 0
2, 168159, Note_on_c, 0, 43, 0
2, 168161, Note_on_c, 0, 72, 0
2, 168171, Note_on_c, 0, 72, 63
2, 168215, Control_c, 0, 64, 127
2, 168218, Note_on_c, 0, 44, 75
2, 168245, Note_on_c, 0, 74, 79
2, 168350, Note_on_c, 0, 77, 94
2, 168357, Note_on_c, 0, 53, 72
2, 168422, Note_on_c, 0, 72, 0
2, 168429, Note_on_c, 0, 72, 65
2, 168506, Note_on_c, 0, 74, 0
2, 168518, Note_on_c, 0, 74, 71
2, 168614, Note_on_c, 0, 76, 0
2, 168617, Note_on_c, 0, 52, 81
2, 168624, Note_on_c, 0, 76, 86
2, 168686, Note_on_c, 0, 53, 0
2, 168686, Note_on_c, 0, 44, 0
2, 168687, Note_on_c, 0, 74, 0
2, 168687, Note_on_c, 0, 72, 0
2, 168687, Note_on_c, 0, 76, 0
2, 168687, Note_on_c, 0, 52, 0
2, 168688, Note_on_c, 0, 77, 0
2, 168689, Control_c, 0, 64, 0
2, 168698, Note_on_c, 0, 79, 0
2, 168731, Note_on_c, 0, 76, 87
2, 168744, Note_on_c, 0, 45, 67
2, 168749, Note_on_c, 0, 52, 55
2, 168752, Control_c, 0, 64, 127
2, 168817, Note_on_c, 0, 72, 70
2, 168884, Note_on_c, 0, 74, 74
2, 169011, Note_on_c, 0, 53, 75
2, 169012, Note_on_c, 0, 77, 88
2, 169121, Note_on_c, 0, 76, 0
2, 169131, Note_on_c, 0, 76, 97
2, 169144, Note_on_c, 0, 52, 0
2, 169148, Note_on_c, 0, 52, 67
2, 169213, Note_on_c, 0, 72, 0
2, 169224, Note_on_c, 0, 72, 59
2, 169267, Note_on_c, 0, 74, 0
2, 169278, Note_on_c, 0, 74, 76
2, 169336, Note_on_c, 0, 72, 0
2, 169346, Note_on_c, 0, 72, 68
2, 169405, Note_on_c, 0, 53, 0
2, 169405, Note_on_c, 0, 77, 0
2, 169409, Note_on_c, 0, 77, 96
2, 169409, Note_on_c, 0, 53, 79
2, 169551, Note_on_c, 0, 74, 0
2, 169560, Note_on_c, 0, 74, 71
2, 169666, Note_on_c, 0, 52, 0
2, 169666, Note_on_c, 0, 76, 0
2, 169674, Note_on_c, 0, 76, 91
2, 169675, Note_on_c, 0, 52, 82
2, 169766, Note_on_c, 0, 72, 0
2, 169768, Note_on_c, 0, 52, 0
2, 169768, Note_on_c, 0, 53, 0
2, 169769, Note_on_c, 0, 45, 0
2, 169769, Note_on_c, 0, 77, 0
2, 169771, Note_on_c, 0, 72, 77
2, 169772, Control_c, 0, 64, 0
2, 169811, Note_on_c, 0, 40, 68
2, 169812, Note_on_c, 0, 74, 0
2, 169821, Note_on_c, 0, 74, 69
2, 169835, Control_c, 0, 64, 127
2, 169904, Note_on_c, 0, 72, 0
2, 169913, Note_on_c, 0, 72, 73
2, 170050, Note_on_c, 0, 74, 0
2, 170061, Note_on_c, 0, 74, 90
2, 170072, Note_on_c, 0, 50, 71
2, 170181, Note_on_c, 0, 72, 0
2, 170189, Note_on_c, 0, 72, 90
2, 170214, Note_on_c, 0, 48, 71
2, 170273, Note_on_c, 0, 74, 0
2, 170278, Note_on_c, 0, 74, 79
2, 170327, Note_on_c, 0, 72, 0
2, 170331, Note_on_c, 0, 72, 70
2, 170396, Note_on_c, 0, 74, 0
2, 170402, Note_on_c, 0, 74, 67
2, 170449, Note_on_c, 0, 72, 0
2, 170449, Note_on_c, 0, 74, 0
2, 170454, Note_on_c, 0, 72, 53
2, 170458, Note_on_c, 0, 74, 64
2, 170582, Note_on_c, 0, 79, 105
2, 170584, Note_on_c, 0, 67, 84
2, 170814, Control_c, 0, 64, 0
2, 170815, Note_on_c, 0, 74, 0
2, 170816, Note_on_c, 0, 50, 0
2, 170816, Note_on_c, 0, 67, 0
2, 170816, Note_on_c, 0, 48, 0
2, 170816, Note_on_c, 0, 40, 0
2, 170826, Note_on_c, 0, 76, 0
2, 170838, Note_on_c, 0, 84, 102
2, 170841, Note_on_c, 0, 72, 0
2, 170841, Note_on_c, 0, 79, 0
2, 170845, Note_on_c, 0, 41, 85
2, 170846, Note_on_c, 0, 72, 95
2, 170852, Note_on_c, 0, 79, 90
2, 170852, Note_on_c, 0, 77, 92
2, 170895, Control_c, 0, 64, 127
2, 170994, Note_on_c, 0, 60, 72
2, 171033, Note_on_c, 0, 41, 0
2, 171074, Note_on_c, 0, 62, 61
2, 171117, Note_on_c, 0, 83, 95
2, 171125, Note_on_c, 0, 60, 0
2, 171125, Note_on_c, 0, 79, 0
2, 171128, Note_on_c, 0, 71, 85
2, 171132, Note_on_c, 0, 79, 69
2, 171136, Note_on_c, 0, 60, 75
2, 171194, Note_on_c, 0, 62, 0
2, 171206, Note_on_c, 0, 62, 58
2, 171256, Note_on_c, 0, 72, 0
2, 171256, Note_on_c, 0, 84, 0
2, 171260, Note_on_c, 0, 84, 94
2, 171263, Note_on_c, 0, 72, 93
2, 171279, Note_on_c, 0, 60, 0
2, 171283, Note_on_c, 0, 60, 76
2, 171340, Note_on_c, 0, 62, 0
2, 171346, Note_on_c, 0, 62, 68
2, 171394, Note_on_c, 0, 60, 0
2, 171405, Note_on_c, 0, 60, 69
2, 171463, Note_on_c, 0, 62, 0
2, 171471, Note_on_c, 0, 62, 72
2, 171532, Note_on_c, 0, 60, 0
2, 171541, Note_on_c, 0, 60, 73
2, 171624, Note_on_c, 0, 79, 0
2, 171631, Note_on_c, 0, 91, 94
2, 171631, Note_on_c, 0, 79, 100
2, 171634, Note_on_c, 0, 67, 79
2, 171640, Note_on_c, 0, 91, 0
2, 171724, Note_on_c, 0, 60, 0
2, 171724, Note_on_c, 0, 62, 0
2, 171731, Note_on_c, 0, 60, 71
2, 171731, Note_on_c, 0, 62, 70
2, 171843, Note_on_c, 0, 83, 0
2, 171843, Note_on_c, 0, 71, 0
2, 171843, Note_on_c, 0, 67, 0
2, 171843, Note_on_c, 0, 62, 0
2, 171844, Note_on_c, 0, 60, 0
2, 171844, Control_c, 0, 64, 0
2, 171844, Note_on_c, 0, 84, 0
2, 171855, Note_on_c, 0, 72, 0
2, 171863, Note_on_c, 0, 77, 0
2, 171878, Note_on_c, 0, 79, 0
2, 171880, Note_on_c, 0, 86, 104
2, 171882, Note_on_c, 0, 43, 83
2, 171887, Note_on_c, 0, 74, 92
2, 171887, Note_on_c, 0, 83, 91
2, 171889, Note_on_c, 0, 79, 91
2, 171909, Control_c, 0, 64, 127
2, 172011, Note_on_c, 0, 60, 70
2, 172084, Note_on_c, 0, 62, 66
2, 172139, Note_on_c, 0, 60, 0
2, 172143, Note_on_c, 0, 84, 89
2, 172143, Note_on_c, 0, 60, 77
2, 172150, Note_on_c, 0, 72, 89
2, 172170, Note_on_c, 0, 43, 0
2, 172224, Note_on_c, 0, 62, 0
2, 172235, Note_on_c, 0, 62, 70
2, 172277, Note_on_c, 0, 60, 0
2, 172277, Note_on_c, 0, 86, 0
2, 172282, Note_on_c, 0, 60, 76
2, 172282, Note_on_c, 0, 86, 101
2, 172285, Note_on_c, 0, 74, 0
2, 172295, Note_on_c, 0, 74, 83
2, 172336, Note_on_c, 0, 72, 0
2, 172336, Note_on_c, 0, 79, 0
2, 172336, Note_on_c, 0, 83, 0
2, 172336, Control_c, 0, 64, 0
2, 172336, Note_on_c, 0, 60, 0
2, 172336, Note_on_c, 0, 84, 0
2, 172346, Note_on_c, 0, 62, 0
2, 172400, Control_c, 0, 64, 127
2, 172411, Note_on_c, 0, 44, 90
2, 172535, Note_on_c, 0, 62, 54
2, 172574, Note_on_c, 0, 60, 75
2, 172646, Note_on_c, 0, 62, 0
2, 172657, Note_on_c, 0, 62, 52
2, 172689, Note_on_c, 0, 91, 91
2, 172690, Note_on_c, 0, 79, 103
2, 172690, Note_on_c, 0, 67, 85
2, 172700, Note_on_c, 0, 91, 0
2, 172715, Note_on_c, 0, 60, 0
2, 172726, Note_on_c, 0, 60, 66
2, 172956, Note_on_c, 0, 45, 77
2, 172964, Note_on_c, 0, 44, 0
2, 172965, Note_on_c, 0, 67, 0
2, 172965, Note_on_c, 0, 62, 0
2, 172965, Note_on_c, 0, 79, 0
2, 172972, Control_c, 0, 64, 0
2, 172972, Note_on_c, 0, 88, 109
2, 172974, Note_on_c, 0, 84, 90
2, 172976, Note_on_c, 0, 60, 0
2, 172977, Note_on_c, 0, 76, 100
2, 172980, Note_on_c, 0, 81, 93
2, 172982, Note_on_c, 0, 60, 79
2, 172984, Note_on_c, 0, 74, 0
2, 172992, Note_on_c, 0, 86, 0
2, 173038, Control_c, 0, 64, 127
2, 173226, Note_on_c, 0, 89, 96
2, 173231, Note_on_c, 0, 77, 88
2, 173352, Note_on_c, 0, 88, 0
2, 173360, Note_on_c, 0, 76, 0
2, 173363, Note_on_c, 0, 88, 107
2, 173368, Note_on_c, 0, 60, 0
2, 173368, Note_on_c, 0, 76, 91
2, 173372, Note_on_c, 0, 57, 58
2, 173372, Note_on_c, 0, 60, 59
2, 173629, Note_on_c, 0, 89, 0
2, 173637, Note_on_c, 0, 77, 0
2, 173640, Note_on_c, 0, 89, 100
2, 173642, Note_on_c, 0, 77, 90
2, 173921, Note_on_c, 0, 76, 0
2, 173921, Note_on_c, 0, 88, 0
2, 173926, Note_on_c, 0, 88, 104
2, 173930, Note_on_c, 0, 76, 90
2, 173951, Note_on_c, 0, 84, 0
2, 173952, Note_on_c, 0, 60, 0
2, 173954, Note_on_c, 0, 81, 0
2, 173954, Note_on_c, 0, 89, 0
2, 173955, Note_on_c, 0, 77, 0
2, 173955, Control_c, 0, 64, 0
2, 173959, Note_on_c, 0, 45, 0
2, 173975, Note_on_c, 0, 57, 0
2, 174005, Control_c, 0, 64, 127
2, 174189, Note_on_c, 0, 86, 90
2, 174198, Note_on_c, 0, 74, 79
2, 174320, Note_on_c, 0, 74, 0
2, 174320, Note_on_c, 0, 86, 0
2, 174325, Note_on_c, 0, 86, 89
2, 174331, Note_on_c, 0, 74, 69
2, 174469, Note_on_c, 0, 84, 92
2, 174477, Note_on_c, 0, 72, 84
2, 174573, Note_on_c, 0, 86, 0
2, 174573, Note_on_c, 0, 76, 0
2, 174574, Control_c, 0, 64, 0
2, 174589, Note_on_c, 0, 74, 0
2, 174589, Note_on_c, 0, 88, 0
2, 174619, Note_on_c, 0, 67, 61
2, 174650, Control_c, 0, 64, 127
2, 174694, Note_on_c, 0, 57, 37
2, 174695, Note_on_c, 0, 69, 41
2, 174731, Note_on_c, 0, 71, 55
2, 174773, Note_on_c, 0, 72, 0
2, 174778, Note_on_c, 0, 72, 61
2, 174833, Note_on_c, 0, 74, 58
2, 174901, Note_on_c, 0, 76, 72
2, 174976, Note_on_c, 0, 77, 65
2, 175031, Note_on_c, 0, 79, 80
2, 175157, Note_on_c, 0, 84, 0
2, 175169, Note_on_c, 0, 84, 88
2, 175191, Note_on_c, 0, 53, 55
2, 175265, Note_on_c, 0, 60, 59
2, 175272, Note_on_c, 0, 72, 0
2, 175279, Note_on_c, 0, 72, 59
2, 175319, Note_on_c, 0, 57, 0
2, 175330, Note_on_c, 0, 57, 62
2, 175388, Note_on_c, 0, 60, 0
2, 175395, Note_on_c, 0, 60, 63
2, 175451, Note_on_c, 0, 83, 84
2, 175480, Note_on_c, 0, 53, 0
2, 175489, Note_on_c, 0, 53, 48
2, 175549, Note_on_c, 0, 60, 0
2, 175554, Note_on_c, 0, 60, 58
2, 175572, Note_on_c, 0, 81, 86
2, 175610, Note_on_c, 0, 57, 0
2, 175621, Note_on_c, 0, 57, 66
2, 175649, Note_on_c, 0, 72, 0
2, 175653, Note_on_c, 0, 72, 66
2, 175664, Note_on_c, 0, 60, 0
2, 175670, Note_on_c, 0, 60, 67
2, 175741, Note_on_c, 0, 53, 0
2, 175741, Note_on_c, 0, 76, 0
2, 175749, Note_on_c, 0, 76, 62
2, 175751, Note_on_c, 0, 53, 56
2, 175802, Note_on_c, 0, 72, 0
2, 175808, Note_on_c, 0, 72, 73
2, 175833, Note_on_c, 0, 60, 0
2, 175838, Note_on_c, 0, 60, 54
2, 175864, Note_on_c, 0, 79, 0
2, 175869, Note_on_c, 0, 79, 89
2, 175887, Note_on_c, 0, 57, 0
2, 175893, Note_on_c, 0, 57, 68
2, 175925, Note_on_c, 0, 72, 0
2, 175929, Note_on_c, 0, 72, 69
2, 175971, Note_on_c, 0, 60, 0
2, 175980, Note_on_c, 0, 60, 45
2, 176002, Note_on_c, 0, 60, 0
2, 176002, Note_on_c, 0, 76, 0
2, 176012, Note_on_c, 0, 60, 50
2, 176013, Note_on_c, 0, 76, 73
2, 176033, Note_on_c, 0, 53, 0
2, 176037, Note_on_c, 0, 53, 42
2, 176087, Note_on_c, 0, 72, 0
2, 176092, Note_on_c, 0, 72, 65
2, 176140, Note_on_c, 0, 60, 0
2, 176140, Note_on_c, 0, 79, 0
2, 176145, Note_on_c, 0, 79, 86
2, 176145, Note_on_c, 0, 60, 46
2, 176156, Note_on_c, 0, 57, 0
2, 176163, Note_on_c, 0, 69, 0
2, 176166, Note_on_c, 0, 57, 63
2, 176173, Note_on_c, 0, 69, 58
2, 176225, Note_on_c, 0, 67, 0
2, 176234, Note_on_c, 0, 67, 68
2, 176279, Note_on_c, 0, 53, 0
2, 176284, Note_on_c, 0, 53, 50
2, 176309, Note_on_c, 0, 72, 0
2, 176321, Note_on_c, 0, 72, 75
2, 176381, Note_on_c, 0, 48, 50
2, 176424, Note_on_c, 0, 57, 0
2, 176424, Note_on_c, 0, 74, 0
2, 176428, Note_on_c, 0, 74, 84
2, 176429, Note_on_c, 0, 57, 71
2, 176494, Note_on_c, 0, 60, 0
2, 176494, Note_on_c, 0, 67, 0
2, 176498, Note_on_c, 0, 67, 75
2, 176499, Note_on_c, 0, 60, 62
2, 176540, Note_on_c, 0, 53, 0
2, 176551, Note_on_c, 0, 53, 62
2, 176570, Note_on_c, 0, 72, 0
2, 176582, Note_on_c, 0, 72, 77
2, 176609, Note_on_c, 0, 60, 0
2, 176620, Note_on_c, 0, 60, 51
2, 176640, Note_on_c, 0, 67, 0
2, 176651, Note_on_c, 0, 67, 72
2, 176693, Note_on_c, 0, 57, 0
2, 176693, Note_on_c, 0, 76, 0
2, 176699, Note_on_c, 0, 57, 64
2, 176699, Note_on_c, 0, 76, 87
2, 176755, Note_on_c, 0, 60, 0
2, 176755, Note_on_c, 0, 67, 0
2, 176763, Note_on_c, 0, 60, 56
2, 176765, Note_on_c, 0, 67, 63
2, 176847, Note_on_c, 0, 53, 0
2, 176847, Note_on_c, 0, 72, 0
2, 176855, Note_on_c, 0, 53, 53
2, 176856, Note_on_c, 0, 72, 74
2, 176906, Note_on_c, 0, 55, 62
2, 176908, Note_on_c, 0, 67, 0
2, 176916, Note_on_c, 0, 55, 0
2, 176916, Note_on_c, 0, 67, 73
2, 176924, Note_on_c, 0, 60, 0
2, 176932, Note_on_c, 0, 60, 54
2, 176962, Note_on_c, 0, 77, 0
2, 176967, Note_on_c, 0, 77, 92
2, 176970, Note_on_c, 0, 57, 0
2, 176976, Note_on_c, 0, 57, 65
2, 177024, Note_on_c, 0, 60, 0
2, 177024, Note_on_c, 0, 67, 0
2, 177034, Note_on_c, 0, 67, 77
2, 177034, Note_on_c, 0, 60, 68
2, 177100, Note_on_c, 0, 53, 0
2, 177100, Note_on_c, 0, 72, 0
2, 177104, Note_on_c, 0, 72, 77
2, 177106, Note_on_c, 0, 53, 65
2, 177169, Note_on_c, 0, 67, 0
2, 177175, Note_on_c, 0, 67, 75
2, 177223, Note_on_c, 0, 57, 0
2, 177228, Note_on_c, 0, 57, 69
2, 177231, Note_on_c, 0, 76, 0
2, 177237, Note_on_c, 0, 76, 96
2, 177285, Note_on_c, 0, 60, 0
2, 177287, Note_on_c, 0, 83, 0
2, 177288, Note_on_c, 0, 71, 0
2, 177288, Note_on_c, 0, 74, 0
2, 177288, Note_on_c, 0, 57, 0
2, 177288, Note_on_c, 0, 53, 0
2, 177288, Note_on_c, 0, 69, 0
2, 177289, Note_on_c, 0, 76, 0
2, 177289, Note_on_c, 0, 84, 0
2, 177289, Note_on_c, 0, 72, 0
2, 177289, Note_on_c, 0, 67, 0
2, 177289, Note_on_c, 0, 77, 0
2, 177289, Note_on_c, 0, 81, 0
2, 177290, Note_on_c, 0, 79, 0
2, 177291, Note_on_c, 0, 60, 72
2, 177292, Control_c, 0, 64, 0
2, 177292, Note_on_c, 0, 48, 0
2, 177354, Note_on_c, 0, 60, 0
2, 177357, Note_on_c, 0, 76, 90
2, 177361, Control_c, 0, 64, 127
2, 177388, Note_on_c, 0, 55, 71
2, 177456, Note_on_c, 0, 67, 65
2, 177471, Note_on_c, 0, 62, 53
2, 177526, Note_on_c, 0, 59, 65
2, 177553, Note_on_c, 0, 71, 56
2, 177584, Note_on_c, 0, 62, 0
2, 177595, Note_on_c, 0, 62, 52
2, 177648, Note_on_c, 0, 77, 90
2, 177661, Note_on_c, 0, 55, 0
2, 177672, Note_on_c, 0, 55, 66
2, 177730, Note_on_c, 0, 62, 0
2, 177741, Note_on_c, 0, 62, 55
2, 177768, Note_on_c, 0, 76, 0
2, 177773, Note_on_c, 0, 76, 85
2, 177799, Note_on_c, 0, 59, 0
2, 177803, Note_on_c, 0, 59, 65
2, 177845, Note_on_c, 0, 67, 0
2, 177850, Note_on_c, 0, 67, 75
2, 177853, Note_on_c, 0, 62, 0
2, 177858, Note_on_c, 0, 62, 64
2, 177930, Note_on_c, 0, 55, 0
2, 177930, Note_on_c, 0, 71, 0
2, 177938, Note_on_c, 0, 71, 61
2, 177940, Note_on_c, 0, 55, 61
2, 177999, Note_on_c, 0, 62, 0
2, 178003, Note_on_c, 0, 62, 59
2, 178037, Note_on_c, 0, 77, 0
2, 178046, Note_on_c, 0, 77, 90
2, 178068, Note_on_c, 0, 59, 0
2, 178072, Note_on_c, 0, 59, 69
2, 178106, Note_on_c, 0, 67, 0
2, 178114, Note_on_c, 0, 62, 0
2, 178116, Note_on_c, 0, 67, 78
2, 178120, Note_on_c, 0, 62, 57
2, 178183, Note_on_c, 0, 55, 0
2, 178183, Note_on_c, 0, 71, 0
2, 178193, Note_on_c, 0, 71, 66
2, 178194, Note_on_c, 0, 55, 61
2, 178245, Note_on_c, 0, 67, 0
2, 178254, Note_on_c, 0, 67, 81
2, 178268, Note_on_c, 0, 62, 0
2, 178279, Note_on_c, 0, 62, 58
2, 178314, Note_on_c, 0, 76, 0
2, 178324, Note_on_c, 0, 76, 91
2, 178337, Note_on_c, 0, 59, 0
2, 178342, Note_on_c, 0, 59, 57
2, 178383, Note_on_c, 0, 62, 0
2, 178391, Note_on_c, 0, 67, 0
2, 178392, Note_on_c, 0, 62, 58
2, 178395, Note_on_c, 0, 67, 75
2, 178460, Note_on_c, 0, 55, 0
2, 178464, Note_on_c, 0, 55, 55
2, 178521, Note_on_c, 0, 62, 0
2, 178521, Note_on_c, 0, 67, 0
2, 178526, Note_on_c, 0, 67, 62
2, 178532, Note_on_c, 0, 62, 60
2, 178590, Note_on_c, 0, 59, 0
2, 178595, Note_on_c, 0, 74, 85
2, 178597, Note_on_c, 0, 59, 72
2, 178652, Note_on_c, 0, 62, 0
2, 178659, Note_on_c, 0, 62, 65
2, 178715, Note_on_c, 0, 72, 90
2, 178721, Note_on_c, 0, 55, 0
2, 178726, Note_on_c, 0, 55, 62
2, 178798, Note_on_c, 0, 62, 0
2, 178798, Note_on_c, 0, 67, 0
2, 178808, Note_on_c, 0, 67, 78
2, 178808, Note_on_c, 0, 62, 69
2, 178859, Note_on_c, 0, 59, 0
2, 178867, Note_on_c, 0, 69, 74
2, 178869, Note_on_c, 0, 59, 71
2, 178920, Note_on_c, 0, 62, 0
2, 178929, Note_on_c, 0, 62, 70
2, 178936, Note_on_c, 0, 71, 0
2, 178936, Note_on_c, 0, 72, 0
2, 178940, Note_on_c, 0, 72, 72
2, 178945, Note_on_c, 0, 71, 68
2, 179013, Note_on_c, 0, 55, 0
2, 179013, Note_on_c, 0, 67, 0
2, 179017, Note_on_c, 0, 55, 60
2, 179018, Note_on_c, 0, 67, 61
2, 179059, Note_on_c, 0, 74, 0
2, 179067, Note_on_c, 0, 74, 83
2, 179082, Note_on_c, 0, 62, 0
2, 179092, Note_on_c, 0, 62, 63
2, 179120, Note_on_c, 0, 76, 0
2, 179130, Note_on_c, 0, 76, 77
2, 179151, Note_on_c, 0, 77, 0
2, 179162, Note_on_c, 0, 77, 81
2, 179212, Note_on_c, 0, 77, 0
2, 179221, Note_on_c, 0, 77, 71
2, 179273, Note_on_c, 0, 79, 92
2, 179289, Note_on_c, 0, 59, 0
2, 179294, Note_on_c, 0, 59, 58
2, 179341, Note_on_c, 0, 81, 84
2, 179366, Note_on_c, 0, 62, 0
2, 179376, Note_on_c, 0, 62, 65
2, 179388, Note_on_c, 0, 83, 76
2, 179453, Note_on_c, 0, 74, 0
2, 179453, Note_on_c, 0, 72, 0
2, 179454, Note_on_c, 0, 77, 0
2, 179454, Note_on_c, 0, 69, 0
2, 179454, Note_on_c, 0, 76, 0
2, 179454, Note_on_c, 0, 79, 0
2, 179454, Note_on_c, 0, 71, 0
2, 179454, Note_on_c, 0, 83, 0
2, 179455, Note_on_c, 0, 81, 0
2, 179455, Control_c, 0, 64, 0
2, 179466, Note_on_c, 0, 59, 0
2, 179466, Note_on_c, 0, 67, 0
2, 179470, Note_on_c, 0, 84, 89
2, 179473, Note_on_c, 0, 55, 0
2, 179473, Note_on_c, 0, 62, 0
2, 179477, Note_on_c, 0, 57, 79
2, 179527, Control_c, 0, 64, 127
2, 179561, Note_on_c, 0, 64, 68
2, 179561, Note_on_c, 0, 72, 79
2, 179625, Note_on_c, 0, 60, 65
2, 179653, Note_on_c, 0, 76, 78
2, 179688, Note_on_c, 0, 64, 0
2, 179698, Note_on_c, 0, 64, 65
2, 179746, Note_on_c, 0, 83, 92
2, 179765, Note_on_c, 0, 57, 0
2, 179777, Note_on_c, 0, 57, 72
2, 179778, Note_on_c, 0, 69, 66
2, 179834, Note_on_c, 0, 64, 0
2, 179845, Note_on_c, 0, 64, 50
2, 179874, Note_on_c, 0, 81, 92
2, 179911, Note_on_c, 0, 60, 0
2, 179917, Note_on_c, 0, 60, 67
2, 179934, Note_on_c, 0, 72, 0
2, 179942, Note_on_c, 0, 72, 79
2, 179965, Note_on_c, 0, 64, 0
2, 179970, Note_on_c, 0, 64, 65
2, 180019, Note_on_c, 0, 76, 0
2, 180027, Note_on_c, 0, 76, 77
2, 180049, Note_on_c, 0, 57, 0
2, 180054, Note_on_c, 0, 57, 71
2, 180103, Note_on_c, 0, 72, 0
2, 180113, Note_on_c, 0, 72, 72
2, 180151, Note_on_c, 0, 79, 91
2, 180172, Note_on_c, 0, 60, 0
2, 180179, Note_on_c, 0, 60, 67
2, 180211, Note_on_c, 0, 72, 0
2, 180219, Note_on_c, 0, 72, 76
2, 180234, Note_on_c, 0, 64, 0
2, 180238, Note_on_c, 0, 64, 61
2, 180280, Note_on_c, 0, 76, 0
2, 180291, Note_on_c, 0, 76, 88
2, 180311, Note_on_c, 0, 57, 0
2, 180317, Note_on_c, 0, 57, 69
2, 180372, Note_on_c, 0, 64, 0
2, 180372, Note_on_c, 0, 72, 0
2, 180376, Note_on_c, 0, 72, 66
2, 180380, Note_on_c, 0, 60, 0
2, 180383, Note_on_c, 0, 64, 61
2, 180384, Note_on_c, 0, 60, 57
2, 180410, Note_on_c, 0, 79, 0
2, 180416, Note_on_c, 0, 79, 94
2, 180456, Note_on_c, 0, 60, 0
2, 180463, Note_on_c, 0, 60, 58
2, 180508, Note_on_c, 0, 67, 75
2, 180510, Note_on_c, 0, 64, 0
2, 180517, Note_on_c, 0, 64, 53
2, 180579, Note_on_c, 0, 57, 0
2, 180587, Note_on_c, 0, 72, 0
2, 180590, Note_on_c, 0, 57, 72
2, 180593, Note_on_c, 0, 72, 82
2, 180648, Note_on_c, 0, 64, 0
2, 180648, Note_on_c, 0, 67, 0
2, 180653, Note_on_c, 0, 64, 65
2, 180658, Note_on_c, 0, 67, 75
2, 180702, Note_on_c, 0, 60, 0
2, 180708, Note_on_c, 0, 74, 84
2, 180713, Note_on_c, 0, 60, 62
2, 180771, Note_on_c, 0, 64, 0
2, 180771, Note_on_c, 0, 67, 0
2, 180776, Note_on_c, 0, 67, 69
2, 180777, Note_on_c, 0, 64, 73
2, 180848, Note_on_c, 0, 57, 0
2, 180848, Note_on_c, 0, 72, 0
2, 180857, Note_on_c, 0, 57, 74
2, 180859, Note_on_c, 0, 72, 86
2, 180917, Note_on_c, 0, 64, 0
2, 180926, Note_on_c, 0, 64, 64
2, 180971, Note_on_c, 0, 60, 0
2, 180971, Note_on_c, 0, 76, 0
2, 180976, Note_on_c, 0, 76, 91
2, 180982, Note_on_c, 0, 60, 64
2, 181040, Note_on_c, 0, 64, 0
2, 181040, Note_on_c, 0, 67, 0
2, 181050, Note_on_c, 0, 64, 65
2, 181050, Note_on_c, 0, 67, 58
2, 181125, Note_on_c, 0, 57, 0
2, 181125, Note_on_c, 0, 72, 0
2, 181129, Note_on_c, 0, 57, 78
2, 181133, Note_on_c, 0, 72, 78
2, 181186, Note_on_c, 0, 64, 0
2, 181186, Note_on_c, 0, 67, 0
2, 181190, Note_on_c, 0, 64, 69
2, 181197, Note_on_c, 0, 67, 65
2, 181248, Note_on_c, 0, 60, 0
2, 181257, Note_on_c, 0, 77, 94
2, 181259, Note_on_c, 0, 60, 53
2, 181309, Note_on_c, 0, 64, 0
2, 181317, Note_on_c, 0, 67, 0
2, 181318, Note_on_c, 0, 64, 74
2, 181324, Note_on_c, 0, 67, 65
2, 181401, Note_on_c, 0, 57, 0
2, 181401, Note_on_c, 0, 72, 0
2, 181406, Note_on_c, 0, 72, 71
2, 181407, Note_on_c, 0, 57, 69
2, 181470, Note_on_c, 0, 60, 0
2, 181478, Note_on_c, 0, 67, 0
2, 181482, Note_on_c, 0, 60, 65
2, 181482, Note_on_c, 0, 67, 68
2, 181509, Note_on_c, 0, 76, 0
2, 181519, Note_on_c, 0, 76, 95
2, 181547, Note_on_c, 0, 64, 0
2, 181552, Note_on_c, 0, 64, 66
2, 181589, Note_on_c, 0, 74, 0
2, 181589, Note_on_c, 0, 83, 0
2, 181590, Note_on_c, 0, 64, 0
2, 181590, Note_on_c, 0, 76, 0
2, 181590, Note_on_c, 0, 69, 0
2, 181590, Note_on_c, 0, 57, 0
2, 181590, Note_on_c, 0, 67, 0
2, 181590, Note_on_c, 0, 84, 0
2, 181590, Control_c, 0, 64, 0
2, 181590, Note_on_c, 0, 81, 0
2, 181590, Note_on_c, 0, 72, 0
2, 181591, Note_on_c, 0, 79, 0
2, 181591, Note_on_c, 0, 77, 0
2, 181608, Note_on_c, 0, 60, 0
2, 181644, Note_on_c, 0, 76, 92
2, 181645, Note_on_c, 0, 52, 77
2, 181670, Control_c, 0, 64, 127
2, 181735, Note_on_c, 0, 67, 72
2, 181740, Note_on_c, 0, 60, 67
2, 181818, Note_on_c, 0, 55, 63
2, 181819, Note_on_c, 0, 72, 72
2, 181854, Note_on_c, 0, 76, 0
2, 181862, Note_on_c, 0, 76, 44
2, 181921, Note_on_c, 0, 77, 92
2, 181946, Note_on_c, 0, 52, 0
2, 181957, Note_on_c, 0, 52, 69
2, 182039, Note_on_c, 0, 76, 0
2, 182047, Note_on_c, 0, 76, 83
2, 182077, Note_on_c, 0, 55, 0
2, 182085, Note_on_c, 0, 55, 61
2, 182123, Note_on_c, 0, 67, 0
2, 182133, Note_on_c, 0, 67, 73
2, 182154, Note_on_c, 0, 60, 0
2, 182158, Note_on_c, 0, 60, 42
2, 182208, Note_on_c, 0, 72, 0
2, 182212, Note_on_c, 0, 72, 78
2, 182223, Note_on_c, 0, 55, 0
2, 182227, Note_on_c, 0, 55, 48
2, 182277, Note_on_c, 0, 67, 0
2, 182288, Note_on_c, 0, 67, 65
2, 182315, Note_on_c, 0, 77, 0
2, 182325, Note_on_c, 0, 77, 89
2, 182346, Note_on_c, 0, 55, 0
2, 182351, Note_on_c, 0, 55, 71
2, 182392, Note_on_c, 0, 67, 0
2, 182398, Note_on_c, 0, 67, 69
2, 182453, Note_on_c, 0, 72, 0
2, 182460, Note_on_c, 0, 72, 79
2, 182476, Note_on_c, 0, 52, 0
2, 182487, Note_on_c, 0, 52, 63
2, 182538, Note_on_c, 0, 67, 0
2, 182548, Note_on_c, 0, 67, 79
2, 182584, Note_on_c, 0, 60, 0
2, 182588, Note_on_c, 0, 60, 51
2, 182591, Note_on_c, 0, 79, 96
2, 182607, Note_on_c, 0, 55, 0
2, 182613, Note_on_c, 0, 55, 64
2, 182668, Note_on_c, 0, 60, 0
2, 182668, Note_on_c, 0, 72, 0
2, 182673, Note_on_c, 0, 72, 73
2, 182679, Note_on_c, 0, 60, 58
2, 182722, Note_on_c, 0, 55, 0
2, 182722, Note_on_c, 0, 67, 0
2, 182729, Note_on_c, 0, 67, 74
2, 182732, Note_on_c, 0, 55, 62
2, 182753, Note_on_c, 0, 52, 0
2, 182760, Note_on_c, 0, 52, 68
2, 182807, Note_on_c, 0, 60, 0
2, 182818, Note_on_c, 0, 60, 66
2, 182853, Note_on_c, 0, 81, 88
2, 182891, Note_on_c, 0, 55, 0
2, 182895, Note_on_c, 0, 55, 64
2, 182960, Note_on_c, 0, 60, 0
2, 182960, Note_on_c, 0, 79, 0
2, 182967, Note_on_c, 0, 60, 68
2, 182970, Note_on_c, 0, 79, 99
2, 183022, Note_on_c, 0, 52, 0
2, 183025, Note_on_c, 0, 52, 69
2, 183060, Note_on_c, 0, 67, 0
2, 183067, Note_on_c, 0, 67, 75
2, 183091, Note_on_c, 0, 60, 0
2, 183100, Note_on_c, 0, 60, 62
2, 183117, Note_on_c, 0, 69, 72
2, 183160, Note_on_c, 0, 55, 0
2, 183164, Note_on_c, 0, 55, 68
2, 183170, Note_on_c, 0, 71, 73
2, 183214, Note_on_c, 0, 60, 0
2, 183214, Note_on_c, 0, 72, 0
2, 183220, Note_on_c, 0, 72, 76
2, 183220, Note_on_c, 0, 60, 67
2, 183275, Note_on_c, 0, 52, 0
2, 183281, Note_on_c, 0, 52, 70
2, 183283, Note_on_c, 0, 72, 0
2, 183294, Note_on_c, 0, 72, 73
2, 183336, Note_on_c, 0, 60, 0
2, 183340, Note_on_c, 0, 74, 81
2, 183346, Note_on_c, 0, 60, 69
2, 183383, Note_on_c, 0, 76, 0
2, 183388, Note_on_c, 0, 76, 76
2, 183429, Note_on_c, 0, 77, 0
2, 183440, Note_on_c, 0, 77, 69
2, 183444, Note_on_c, 0, 55, 0
2, 183450, Note_on_c, 0, 55, 69
2, 183475, Note_on_c, 0, 52, 0
2, 183481, Note_on_c, 0, 52, 70
2, 183513, Note_on_c, 0, 79, 0
2, 183523, Note_on_c, 0, 79, 92
2, 183544, Note_on_c, 0, 60, 0
2, 183553, Note_on_c, 0, 60, 75
2, 183582, Note_on_c, 0, 81, 0
2, 183587, Note_on_c, 0, 81, 77
2, 183605, Note_on_c, 0, 55, 0
2, 183617, Note_on_c, 0, 55, 85
2, 183624, Note_on_c, 0, 83, 87
2, 183685, Note_on_c, 0, 52, 0
2, 183686, Note_on_c, 0, 74, 0
2, 183686, Note_on_c, 0, 81, 0
2, 183686, Note_on_c, 0, 71, 0
2, 183686, Note_on_c, 0, 69, 0
2, 183687, Note_on_c, 0, 83, 0
2, 183687, Note_on_c, 0, 79, 0
2, 183687, Note_on_c, 0, 55, 0
2, 183687, Note_on_c, 0, 67, 0
2, 183687, Note_on_c, 0, 77, 0
2, 183687, Note_on_c, 0, 60, 0
2, 183687, Note_on_c, 0, 76, 0
2, 183687, Control_c, 0, 64, 0
2, 183688, Note_on_c, 0, 72, 0
2, 183734, Note_on_c, 0, 84, 99
2, 183737, Note_on_c, 0, 41, 80
2, 183751, Control_c, 0, 64, 127
2, 183834, Note_on_c, 0, 72, 80
2, 183847, Note_on_c, 0, 60, 78
2, 183920, Note_on_c, 0, 57, 69
2, 183952, Note_on_c, 0, 76, 54
2, 184011, Note_on_c, 0, 53, 65
2, 184015, Note_on_c, 0, 83, 96
2, 184089, Note_on_c, 0, 60, 0
2, 184093, Note_on_c, 0, 60, 65
2, 184141, Note_on_c, 0, 81, 92
2, 184151, Note_on_c, 0, 57, 0
2, 184159, Note_on_c, 0, 57, 71
2, 184204, Note_on_c, 0, 72, 0
2, 184212, Note_on_c, 0, 72, 86
2, 184235, Note_on_c, 0, 60, 0
2, 184240, Note_on_c, 0, 60, 62
2, 184289, Note_on_c, 0, 76, 0
2, 184293, Note_on_c, 0, 76, 87
2, 184312, Note_on_c, 0, 53, 0
2, 184320, Note_on_c, 0, 53, 54
2, 184373, Note_on_c, 0, 72, 0
2, 184380, Note_on_c, 0, 72, 74
2, 184419, Note_on_c, 0, 60, 0
2, 184426, Note_on_c, 0, 79, 96
2, 184427, Note_on_c, 0, 57, 0
2, 184429, Note_on_c, 0, 60, 61
2, 184435, Note_on_c, 0, 57, 64
2, 184488, Note_on_c, 0, 60, 0
2, 184488, Note_on_c, 0, 72, 0
2, 184493, Note_on_c, 0, 72, 78
2, 184494, Note_on_c, 0, 60, 55
2, 184519, Note_on_c, 0, 53, 0
2, 184525, Note_on_c, 0, 53, 45
2, 184558, Note_on_c, 0, 76, 0
2, 184563, Note_on_c, 0, 76, 88
2, 184588, Note_on_c, 0, 53, 0
2, 184595, Note_on_c, 0, 53, 59
2, 184627, Note_on_c, 0, 72, 0
2, 184638, Note_on_c, 0, 72, 66
2, 184657, Note_on_c, 0, 60, 0
2, 184665, Note_on_c, 0, 60, 61
2, 184680, Note_on_c, 0, 79, 0
2, 184692, Note_on_c, 0, 79, 86
2, 184711, Note_on_c, 0, 57, 0
2, 184720, Note_on_c, 0, 57, 71
2, 184778, Note_on_c, 0, 67, 79
2, 184780, Note_on_c, 0, 60, 0
2, 184785, Note_on_c, 0, 60, 59
2, 184849, Note_on_c, 0, 53, 0
2, 184849, Note_on_c, 0, 72, 0
2, 184860, Note_on_c, 0, 72, 81
2, 184861, Note_on_c, 0, 53, 67
2, 184968, Note_on_c, 0, 74, 84
2, 184999, Note_on_c, 0, 69, 62
2, 185041, Note_on_c, 0, 67, 0
2, 185050, Note_on_c, 0, 67, 75
2, 185064, Note_on_c, 0, 60, 0
2, 185069, Note_on_c, 0, 60, 64
2, 185118, Note_on_c, 0, 72, 0
2, 185129, Note_on_c, 0, 72, 88
2, 185134, Note_on_c, 0, 53, 0
2, 185140, Note_on_c, 0, 53, 76
2, 185210, Note_on_c, 0, 67, 0
2, 185215, Note_on_c, 0, 67, 76
2, 185249, Note_on_c, 0, 76, 0
2, 185255, Note_on_c, 0, 76, 92
2, 185272, Note_on_c, 0, 57, 0
2, 185276, Note_on_c, 0, 57, 67
2, 185333, Note_on_c, 0, 60, 0
2, 185333, Note_on_c, 0, 67, 0
2, 185339, Note_on_c, 0, 67, 68
2, 185345, Note_on_c, 0, 60, 60
2, 185410, Note_on_c, 0, 53, 0
2, 185418, Note_on_c, 0, 72, 0
2, 185421, Note_on_c, 0, 53, 70
2, 185422, Note_on_c, 0, 72, 76
2, 185479, Note_on_c, 0, 60, 0
2, 185484, Note_on_c, 0, 60, 53
2, 185529, Note_on_c, 0, 77, 99
2, 185556, Note_on_c, 0, 57, 0
2, 185564, Note_on_c, 0, 69, 0
2, 185565, Note_on_c, 0, 57, 68
2, 185570, Note_on_c, 0, 69, 58
2, 185610, Note_on_c, 0, 60, 0
2, 185620, Note_on_c, 0, 60, 69
2, 185687, Note_on_c, 0, 53, 0
2, 185697, Note_on_c, 0, 53, 59
2, 185748, Note_on_c, 0, 57, 0
2, 185758, Note_on_c, 0, 57, 78
2, 185779, Note_on_c, 0, 76, 0
2, 185786, Note_on_c, 0, 60, 0
2, 185788, Note_on_c, 0, 76, 95
2, 185791, Note_on_c, 0, 60, 79
2, 185847, Note_on_c, 0, 83, 0
2, 185849, Note_on_c, 0, 74, 0
2, 185849, Note_on_c, 0, 41, 0
2, 185850, Note_on_c, 0, 76, 0
2, 185850, Note_on_c, 0, 79, 0
2, 185851, Note_on_c, 0, 53, 0
2, 185851, Note_on_c, 0, 60, 0
2, 185851, Note_on_c, 0, 69, 0
2, 185851, Note_on_c, 0, 81, 0
2, 185851, Note_on_c, 0, 67, 0
2, 185851, Control_c, 0, 64, 0
2, 185851, Note_on_c, 0, 72, 0
2, 185851, Note_on_c, 0, 77, 0
2, 185856, Note_on_c, 0, 84, 0
2, 185871, Note_on_c, 0, 57, 0
2, 185912, Note_on_c, 0, 76, 102
2, 185917, Control_c, 0, 64, 127
2, 185920, Note_on_c, 0, 43, 68
2, 185928, Note_on_c, 0, 45, 68
2, 186012, Note_on_c, 0, 69, 68
2, 186020, Note_on_c, 0, 64, 66
2, 186060, Note_on_c, 0, 72, 72
2, 186088, Note_on_c, 0, 60, 62
2, 186170, Note_on_c, 0, 69, 0
2, 186173, Note_on_c, 0, 77, 96
2, 186175, Note_on_c, 0, 57, 76
2, 186177, Note_on_c, 0, 69, 74
2, 186247, Note_on_c, 0, 64, 0
2, 186259, Note_on_c, 0, 64, 65
2, 186301, Note_on_c, 0, 76, 0
2, 186306, Note_on_c, 0, 76, 91
2, 186324, Note_on_c, 0, 60, 0
2, 186330, Note_on_c, 0, 60, 68
2, 186385, Note_on_c, 0, 64, 0
2, 186385, Note_on_c, 0, 69, 0
2, 186392, Note_on_c, 0, 64, 63
2, 186394, Note_on_c, 0, 69, 67
2, 186447, Note_on_c, 0, 69, 0
2, 186455, Note_on_c, 0, 57, 0
2, 186457, Note_on_c, 0, 69, 65
2, 186462, Note_on_c, 0, 57, 66
2, 186478, Note_on_c, 0, 72, 0
2, 186483, Note_on_c, 0, 72, 79
2, 186524, Note_on_c, 0, 64, 0
2, 186529, Note_on_c, 0, 64, 69
2, 186577, Note_on_c, 0, 77, 0
2, 186584, Note_on_c, 0, 77, 96
2, 186593, Note_on_c, 0, 60, 0
2, 186598, Note_on_c, 0, 60, 73
2, 186631, Note_on_c, 0, 69, 0
2, 186641, Note_on_c, 0, 69, 75
2, 186662, Note_on_c, 0, 64, 0
2, 186672, Note_on_c, 0, 64, 64
2, 186700, Note_on_c, 0, 72, 0
2, 186712, Note_on_c, 0, 72, 80
2, 186731, Note_on_c, 0, 57, 0
2, 186735, Note_on_c, 0, 57, 68
2, 186792, Note_on_c, 0, 69, 0
2, 186797, Note_on_c, 0, 69, 87
2, 186808, Note_on_c, 0, 64, 0
2, 186812, Note_on_c, 0, 64, 70
2, 186823, Note_on_c, 0, 60, 0
2, 186829, Note_on_c, 0, 60, 69
2, 186854, Note_on_c, 0, 76, 0
2, 186865, Note_on_c, 0, 76, 103
2, 186931, Note_on_c, 0, 43, 0
2, 186933, Control_c, 0, 64, 0
2, 186934, Note_on_c, 0, 45, 0
2, 186935, Note_on_c, 0, 64, 0
2, 186935, Note_on_c, 0, 57, 0
2, 186935, Note_on_c, 0, 69, 0
2, 186935, Note_on_c, 0, 77, 0
2, 186935, Note_on_c, 0, 60, 0
2, 186954, Note_on_c, 0, 72, 0
2, 186970, Note_on_c, 0, 55, 75
2, 186971, Note_on_c, 0, 67, 77
2, 186973, Note_on_c, 0, 43, 78
2, 187000, Control_c, 0, 64, 127
2, 187104, Note_on_c, 0, 62, 66
2, 187139, Note_on_c, 0, 74, 90
2, 187140, Note_on_c, 0, 59, 76
2, 187207, Note_on_c, 0, 67, 0
2, 187211, Note_on_c, 0, 67, 81
2, 187215, Note_on_c, 0, 55, 0
2, 187222, Note_on_c, 0, 55, 69
2, 187299, Note_on_c, 0, 71, 79
2, 187299, Note_on_c, 0, 62, 0
2, 187310, Note_on_c, 0, 62, 70
2, 187392, Note_on_c, 0, 59, 0
2, 187396, Note_on_c, 0, 59, 72
2, 187402, Note_on_c, 0, 72, 95
2, 187430, Note_on_c, 0, 62, 0
2, 187439, Note_on_c, 0, 62, 74
2, 187522, Note_on_c, 0, 67, 0
2, 187530, Note_on_c, 0, 55, 0
2, 187530, Note_on_c, 0, 71, 0
2, 187532, Note_on_c, 0, 67, 74
2, 187534, Note_on_c, 0, 55, 75
2, 187541, Note_on_c, 0, 71, 72
2, 187599, Note_on_c, 0, 62, 0
2, 187604, Note_on_c, 0, 62, 65
2, 187660, Note_on_c, 0, 59, 0
2, 187660, Note_on_c, 0, 74, 0
2, 187666, Note_on_c, 0, 59, 79
2, 187667, Note_on_c, 0, 74, 90
2, 187729, Note_on_c, 0, 67, 0
2, 187737, Note_on_c, 0, 62, 0
2, 187741, Note_on_c, 0, 67, 81
2, 187747, Note_on_c, 0, 62, 67
2, 187783, Note_on_c, 0, 71, 0
2, 187794, Note_on_c, 0, 71, 81
2, 187822, Note_on_c, 0, 55, 0
2, 187829, Note_on_c, 0, 55, 71
2, 187860, Note_on_c, 0, 59, 0
2, 187860, Note_on_c, 0, 67, 0
2, 187869, Note_on_c, 0, 59, 73
2, 187870, Note_on_c, 0, 67, 78
2, 187997, Note_on_c, 0, 74, 0
2, 187998, Note_on_c, 0, 72, 0
2, 187998, Note_on_c, 0, 55, 0
2, 187999, Note_on_c, 0, 62, 0
2, 187999, Note_on_c, 0, 67, 0
2, 188000, Note_on_c, 0, 59, 0
2, 188001, Control_c, 0, 64, 0
2, 188006, Note_on_c, 0, 76, 0
2, 188014, Note_on_c, 0, 43, 0
2, 188014, Note_on_c, 0, 71, 0
2, 188065, Note_on_c, 0, 72, 101
2, 188070, Note_on_c, 0, 38, 86
2, 188070, Note_on_c, 0, 50, 87
2, 188071, Note_on_c, 0, 60, 94
2, 188071, Note_on_c, 0, 69, 84
2, 188083, Control_c, 0, 64, 127
2, 188213, Note_on_c, 0, 50, 0
2, 188220, Note_on_c, 0, 50, 59
2, 188221, Note_on_c, 0, 69, 0
2, 188229, Note_on_c, 0, 69, 65
2, 188328, Note_on_c, 0, 60, 0
2, 188333, Note_on_c, 0, 60, 83
2, 188352, Note_on_c, 0, 53, 64
2, 188370, Note_on_c, 0, 62, 69
2, 188401, Note_on_c, 0, 64, 80
2, 188467, Note_on_c, 0, 50, 0
2, 188474, Note_on_c, 0, 50, 70
2, 188474, Note_on_c, 0, 65, 76
2, 188526, Note_on_c, 0, 67, 85
2, 188559, Note_on_c, 0, 69, 0
2, 188564, Note_on_c, 0, 69, 73
2, 188597, Note_on_c, 0, 62, 0
2, 188602, Note_on_c, 0, 62, 77
2, 188602, Note_on_c, 0, 71, 77
2, 188651, Note_on_c, 0, 72, 0
2, 188661, Note_on_c, 0, 72, 83
2, 188709, Note_on_c, 0, 74, 82
2, 188733, Note_on_c, 0, 57, 78
2, 188747, Note_on_c, 0, 76, 84
2, 188805, Note_on_c, 0, 77, 88
2, 188851, Note_on_c, 0, 53, 0
2, 188856, Note_on_c, 0, 79, 91
2, 188862, Note_on_c, 0, 53, 71
2, 188907, Note_on_c, 0, 81, 93
2, 188938, Note_on_c, 0, 83, 86
2, 189008, Note_on_c, 0, 60, 0
2, 189008, Note_on_c, 0, 67, 0
2, 189008, Note_on_c, 0, 57, 0
2, 189008, Note_on_c, 0, 62, 0
2, 189009, Note_on_c, 0, 71, 0
2, 189009, Note_on_c, 0, 69, 0
2, 189009, Note_on_c, 0, 65, 0
2, 189009, Note_on_c, 0, 64, 0
2, 189009, Note_on_c, 0, 50, 0
2, 189009, Note_on_c, 0, 76, 0
2, 189009, Note_on_c, 0, 72, 0
2, 189010, Control_c, 0, 64, 0
2, 189010, Note_on_c, 0, 83, 0
2, 189010, Note_on_c, 0, 81, 0
2, 189010, Note_on_c, 0, 79, 0
2, 189020, Note_on_c, 0, 53, 0
2, 189027, Note_on_c, 0, 38, 0
2, 189027, Note_on_c, 0, 77, 0
2, 189030, Note_on_c, 0, 86, 103
2, 189033, Note_on_c, 0, 40, 80
2, 189034, Note_on_c, 0, 77, 89
2, 189039, Note_on_c, 0, 52, 81
2, 189041, Note_on_c, 0, 80, 76
2, 189043, Note_on_c, 0, 74, 0
2, 189050, Note_on_c, 0, 74, 64
2, 189096, Control_c, 0, 64, 127
2, 189281, Note_on_c, 0, 52, 0
2, 189287, Note_on_c, 0, 52, 75
2, 189413, Note_on_c, 0, 72, 87
2, 189428, Note_on_c, 0, 55, 81
2, 189442, Note_on_c, 0, 74, 0
2, 189450, Note_on_c, 0, 74, 79
2, 189488, Note_on_c, 0, 76, 85
2, 189542, Note_on_c, 0, 40, 0
2, 189542, Note_on_c, 0, 52, 0
2, 189542, Note_on_c, 0, 77, 0
2, 189551, Note_on_c, 0, 40, 71
2, 189552, Note_on_c, 0, 52, 81
2, 189553, Note_on_c, 0, 77, 93
2, 189607, Note_on_c, 0, 79, 92
2, 189644, Note_on_c, 0, 81, 84
2, 189675, Note_on_c, 0, 83, 87
2, 189679, Note_on_c, 0, 64, 93
2, 189725, Note_on_c, 0, 84, 76
2, 189765, Note_on_c, 0, 86, 0
2, 189774, Note_on_c, 0, 86, 90
2, 189806, Note_on_c, 0, 60, 81
2, 189813, Note_on_c, 0, 88, 94
2, 189875, Note_on_c, 0, 89, 93
2, 189911, Note_on_c, 0, 55, 0
2, 189916, Note_on_c, 0, 55, 68
2, 189929, Note_on_c, 0, 91, 93
2, 189966, Note_on_c, 0, 93, 91
2, 189992, Note_on_c, 0, 95, 87
2, 190049, Note_on_c, 0, 80, 0
2, 190055, Note_on_c, 0, 86, 0
2, 190055, Note_on_c, 0, 81, 0
2, 190056, Note_on_c, 0, 83, 0
2, 190056, Note_on_c, 0, 60, 0
2, 190056, Note_on_c, 0, 40, 0
2, 190057, Note_on_c, 0, 74, 0
2, 190057, Note_on_c, 0, 72, 0
2, 190057, Note_on_c, 0, 77, 0
2, 190057, Note_on_c, 0, 89, 0
2, 190057, Note_on_c, 0, 64, 0
2, 190058, Note_on_c, 0, 55, 0
2, 190058, Note_on_c, 0, 79, 0
2, 190058, Control_c, 0, 64, 0
2, 190058, Note_on_c, 0, 76, 0
2, 190064, Note_on_c, 0, 84, 0
2, 190072, Note_on_c, 0, 52, 0
2, 190072, Note_on_c, 0, 88, 0
2, 190073, Note_on_c, 0, 96, 106
2, 190074, Note_on_c, 0, 84, 106
2, 190075, Note_on_c, 0, 53, 87
2, 190077, Note_on_c, 0, 88, 106
2, 190080, Note_on_c, 0, 91, 0
2, 190086, Note_on_c, 0, 91, 95
2, 190087, Note_on_c, 0, 95, 0
2, 190088, Note_on_c, 0, 41, 86
2, 190141, Control_c, 0, 64, 127
2, 190333, Note_on_c, 0, 41, 0
2, 190333, Note_on_c, 0, 53, 0
2, 190339, Note_on_c, 0, 53, 72
2, 190440, Note_on_c, 0, 96, 0
2, 190444, Note_on_c, 0, 96, 98
2, 190474, Note_on_c, 0, 65, 85
2, 190479, Note_on_c, 0, 91, 0
2, 190484, Note_on_c, 0, 91, 81
2, 190531, Note_on_c, 0, 89, 86
2, 190548, Note_on_c, 0, 84, 0
2, 190557, Note_on_c, 0, 84, 83
2, 190603, Note_on_c, 0, 60, 80
2, 190643, Note_on_c, 0, 79, 90
2, 190686, Note_on_c, 0, 77, 88
2, 190728, Note_on_c, 0, 72, 80
2, 190740, Note_on_c, 0, 53, 0
2, 190751, Note_on_c, 0, 53, 89
2, 190859, Note_on_c, 0, 95, 94
2, 190863, Note_on_c, 0, 65, 0
2, 190874, Note_on_c, 0, 65, 92
2, 190901, Note_on_c, 0, 91, 0
2, 190907, Note_on_c, 0, 91, 80
2, 190940, Note_on_c, 0, 89, 0
2, 190944, Note_on_c, 0, 89, 83
2, 190963, Note_on_c, 0, 84, 0
2, 190970, Note_on_c, 0, 84, 88
2, 191009, Note_on_c, 0, 60, 0
2, 191019, Note_on_c, 0, 60, 81
2, 191063, Note_on_c, 0, 79, 0
2, 191070, Note_on_c, 0, 53, 0
2, 191070, Note_on_c, 0, 77, 0
2, 191073, Note_on_c, 0, 79, 82
2, 191081, Note_on_c, 0, 77, 97
2, 191081, Note_on_c, 0, 53, 86
2, 191201, Note_on_c, 0, 93, 0
2, 191210, Note_on_c, 0, 91, 0
2, 191210, Note_on_c, 0, 65, 0
2, 191211, Note_on_c, 0, 89, 0
2, 191211, Note_on_c, 0, 60, 0
2, 191211, Note_on_c, 0, 72, 0
2, 191211, Note_on_c, 0, 53, 0
2, 191211, Note_on_c, 0, 84, 0
2, 191212, Note_on_c, 0, 77, 0
2, 191212, Note_on_c, 0, 79, 0
2, 191213, Control_c, 0, 64, 0
2, 191216, Note_on_c, 0, 95, 0
2, 191224, Note_on_c, 0, 96, 0
2, 191232, Note_on_c, 0, 88, 0
2, 191235, Note_on_c, 0, 96, 98
2, 191236, Note_on_c, 0, 44, 91
2, 191242, Note_on_c, 0, 51, 78
2, 191278, Control_c, 0, 64, 127
2, 191284, Note_on_c, 0, 94, 96
2, 191335, Note_on_c, 0, 92, 84
2, 191352, Note_on_c, 0, 87, 100
2, 191412, Note_on_c, 0, 84, 79
2, 191503, Note_on_c, 0, 78, 85
2, 191551, Note_on_c, 0, 68, 83
2, 191604, Note_on_c, 0, 63, 86
2, 191638, Note_on_c, 0, 60, 85
2, 191750, Control_c, 0, 64, 0
2, 191751, Note_on_c, 0, 78, 0
2, 191753, Note_on_c, 0, 98, 101
2, 191754, Note_on_c, 0, 63, 0
2, 191755, Note_on_c, 0, 84, 0
2, 191755, Note_on_c, 0, 68, 0
2, 191755, Note_on_c, 0, 87, 0
2, 191755, Note_on_c, 0, 60, 0
2, 191755, Note_on_c, 0, 51, 0
2, 191756, Note_on_c, 0, 94, 0
2, 191766, Note_on_c, 0, 53, 79
2, 191769, Note_on_c, 0, 44, 0
2, 191769, Note_on_c, 0, 58, 93
2, 191774, Note_on_c, 0, 46, 76
2, 191777, Note_on_c, 0, 92, 0
2, 191800, Note_on_c, 0, 96, 0
2, 191810, Note_on_c, 0, 96, 95
2, 191823, Control_c, 0, 64, 127
2, 191845, Note_on_c, 0, 94, 85
2, 191874, Note_on_c, 0, 89, 89
2, 191914, Note_on_c, 0, 86, 91
2, 191995, Note_on_c, 0, 82, 99
2, 192021, Note_on_c, 0, 77, 84
2, 192067, Note_on_c, 0, 74, 75
2, 192069, Note_on_c, 0, 70, 85
2, 192111, Note_on_c, 0, 65, 75
2, 192169, Note_on_c, 0, 62, 79
2, 192279, Control_c, 0, 64, 0
2, 192280, Note_on_c, 0, 94, 0
2, 192280, Note_on_c, 0, 46, 0
2, 192281, Note_on_c, 0, 70, 0
2, 192281, Note_on_c, 0, 89, 0
2, 192281, Note_on_c, 0, 82, 0
2, 192281, Note_on_c, 0, 53, 0
2, 192281, Note_on_c, 0, 58, 0
2, 192281, Note_on_c, 0, 86, 0
2, 192281, Note_on_c, 0, 65, 0
2, 192281, Note_on_c, 0, 62, 0
2, 192282, Note_on_c, 0, 77, 0
2, 192282, Note_on_c, 0, 74, 0
2, 192291, Note_on_c, 0, 96, 0
2, 192291, Note_on_c, 0, 98, 0
2, 192302, Note_on_c, 0, 96, 110
2, 192308, Note_on_c, 0, 91, 96
2, 192309, Note_on_c, 0, 88, 108
2, 192311, Note_on_c, 0, 84, 104
2, 192316, Note_on_c, 0, 60, 89
2, 192317, Note_on_c, 0, 48, 85
2, 192319, Note_on_c, 0, 55, 73
2, 192376, Control_c, 0, 64, 127
2, 192634, Note_on_c, 0, 72, 56
2, 192756, Note_on_c, 0, 79, 73
2, 192906, Note_on_c, 0, 72, 0
2, 192913, Note_on_c, 0, 72, 54
2, 193039, Note_on_c, 0, 67, 60
2, 193152, Note_on_c, 0, 72, 0
2, 193161, Note_on_c, 0, 72, 51
2, 193290, Note_on_c, 0, 79, 0
2, 193297, Note_on_c, 0, 79, 72
2, 193428, Note_on_c, 0, 72, 0
2, 193434, Note_on_c, 0, 72, 54
2, 193574, Note_on_c, 0, 67, 0
2, 193584, Note_on_c, 0, 67, 57
2, 193697, Note_on_c, 0, 72, 0
2, 193705, Note_on_c, 0, 72, 52
2, 193827, Note_on_c, 0, 79, 0
2, 193838, Note_on_c, 0, 79, 66
2, 193958, Note_on_c, 0, 72, 0
2, 193968, Note_on_c, 0, 72, 60
2, 194112, Note_on_c, 0, 67, 0
2, 194121, Note_on_c, 0, 67, 58
2, 194234, Note_on_c, 0, 72, 0
2, 194246, Note_on_c, 0, 72, 61
2, 194380, Note_on_c, 0, 79, 0
2, 194391, Note_on_c, 0, 79, 67
2, 194511, Note_on_c, 0, 36, 48
2, 194512, Note_on_c, 0, 24, 53
2, 194519, Note_on_c, 0, 72, 0
2, 194523, Note_on_c, 0, 72, 61
2, 194664, Note_on_c, 0, 67, 0
2, 194673, Note_on_c, 0, 67, 53
2, 194795, Note_on_c, 0, 72, 0
2, 194800, Note_on_c, 0, 72, 57
2, 194941, Note_on_c, 0, 60, 0
2, 194941, Note_on_c, 0, 79, 0
2, 194949, Note_on_c, 0, 79, 62
2, 194952, Note_on_c, 0, 60, 30
2, 195072, Note_on_c, 0, 72, 0
2, 195077, Note_on_c, 0, 72, 50
2, 195210, Note_on_c, 0, 67, 0
2, 195219, Note_on_c, 0, 67, 49
2, 195340, Note_on_c, 0, 72, 0
2, 195350, Note_on_c, 0, 72, 55
2, 195494, Note_on_c, 0, 79, 0
2, 195504, Note_on_c, 0, 79, 68
2, 195624, Note_on_c, 0, 72, 0
2, 195629, Note_on_c, 0, 72, 52
2, 195763, Note_on_c, 0, 67, 0
2, 195769, Note_on_c, 0, 67, 50
2, 195886, Note_on_c, 0, 72, 0
2, 195894, Note_on_c, 0, 72, 63
2, 196024, Note_on_c, 0, 79, 0
2, 196034, Note_on_c, 0, 84, 0
2, 196035, Note_on_c, 0, 79, 70
2, 196035, Note_on_c, 0, 91, 0
2, 196036, Note_on_c, 0, 88, 0
2, 196070, Note_on_c, 0, 96, 0
2, 196162, Note_on_c, 0, 72, 0
2, 196169, Note_on_c, 0, 72, 58
2, 196300, Note_on_c, 0, 67, 0
2, 196309, Note_on_c, 0, 67, 48
2, 196431, Note_on_c, 0, 72, 0
2, 196442, Note_on_c, 0, 72, 51
2, 196561, Note_on_c, 0, 79, 0
2, 196566, Note_on_c, 0, 79, 71
2, 196684, Note_on_c, 0, 60, 0
2, 196692, Note_on_c, 0, 24, 0
2, 196692, Note_on_c, 0, 72, 0
2, 196695, Control_c, 0, 64, 0
2, 196696, Note_on_c, 0, 60, 85
2, 196700, Note_on_c, 0, 72, 73
2, 196792, Control_c, 0, 64, 127
2, 196838, Note_on_c, 0, 67, 0
2, 196846, Note_on_c, 0, 67, 58
2, 196899, Note_on_c, 0, 48, 0
2, 196930, Note_on_c, 0, 55, 0
2, 196961, Note_on_c, 0, 72, 0
2, 196966, Note_on_c, 0, 72, 55
2, 197084, Note_on_c, 0, 79, 0
2, 197088, Note_on_c, 0, 79, 59
2, 197222, Note_on_c, 0, 36, 0
2, 197230, Note_on_c, 0, 72, 0
2, 197232, Note_on_c, 0, 36, 58
2, 197235, Note_on_c, 0, 72, 53
2, 197376, Note_on_c, 0, 67, 0
2, 197386, Note_on_c, 0, 67, 60
2, 197491, Note_on_c, 0, 72, 0
2, 197498, Note_on_c, 0, 72, 52
2, 197614, Note_on_c, 0, 79, 0
2, 197618, Note_on_c, 0, 79, 74
2, 197752, Note_on_c, 0, 60, 0
2, 197755, Note_on_c, 0, 63, 77
2, 197757, Note_on_c, 0, 60, 72
2, 197867, Note_on_c, 0, 67, 0
2, 197874, Note_on_c, 0, 67, 58
2, 198028, Note_on_c, 0, 72, 0
2, 198039, Note_on_c, 0, 72, 52
2, 198136, Note_on_c, 0, 79, 0
2, 198141, Note_on_c, 0, 79, 72
2, 198284, Note_on_c, 0, 84, 74
2, 198285, Note_on_c, 0, 65, 78
2, 198297, Note_on_c, 0, 60, 0
2, 198297, Note_on_c, 0, 63, 0
2, 198301, Note_on_c, 0, 63, 70
2, 198302, Note_on_c, 0, 60, 58
2, 198305, Note_on_c, 0, 55, 55
2, 198312, Note_on_c, 0, 55, 0
2, 198412, Note_on_c, 0, 79, 0
2, 198417, Note_on_c, 0, 79, 78
2, 198551, Note_on_c, 0, 72, 0
2, 198556, Note_on_c, 0, 72, 65
2, 198666, Note_on_c, 0, 79, 0
2, 198670, Note_on_c, 0, 79, 79
2, 198792, Note_on_c, 0, 36, 0
2, 198793, Note_on_c, 0, 63, 0
2, 198794, Note_on_c, 0, 67, 0
2, 198794, Control_c, 0, 64, 0
2, 198794, Note_on_c, 0, 79, 0
2, 198795, Note_on_c, 0, 65, 0
2, 198804, Note_on_c, 0, 60, 0
2, 198804, Note_on_c, 0, 84, 0
2, 198814, Note_on_c, 0, 60, 78
2, 198820, Note_on_c, 0, 58, 70
2, 198827, Note_on_c, 0, 72, 0
2, 198836, Note_on_c, 0, 72, 68
2, 198873, Control_c, 0, 64, 127
2, 198969, Note_on_c, 0, 67, 67
2, 199080, Note_on_c, 0, 72, 0
2, 199091, Note_on_c, 0, 72, 68
2, 199234, Note_on_c, 0, 79, 74
2, 199338, Note_on_c, 0, 34, 56
2, 199365, Note_on_c, 0, 72, 0
2, 199370, Note_on_c, 0, 72, 66
2, 199495, Note_on_c, 0, 67, 0
2, 199503, Note_on_c, 0, 67, 58
2, 199618, Note_on_c, 0, 72, 0
2, 199629, Note_on_c, 0, 72, 59
2, 199772, Note_on_c, 0, 79, 0
2, 199776, Note_on_c, 0, 79, 71
2, 199883, Note_on_c, 0, 63, 78
2, 199887, Note_on_c, 0, 60, 0
2, 199895, Note_on_c, 0, 58, 0
2, 199896, Note_on_c, 0, 60, 68
2, 199900, Note_on_c, 0, 58, 68
2, 200017, Note_on_c, 0, 67, 0
2, 200029, Note_on_c, 0, 67, 69
2, 200156, Note_on_c, 0, 72, 0
2, 200166, Note_on_c, 0, 72, 76
2, 200279, Note_on_c, 0, 79, 0
2, 200286, Note_on_c, 0, 79, 73
2, 200412, Note_on_c, 0, 65, 79
2, 200419, Note_on_c, 0, 84, 77
2, 200424, Note_on_c, 0, 58, 0
2, 200424, Note_on_c, 0, 60, 0
2, 200429, Note_on_c, 0, 60, 67
2, 200429, Note_on_c, 0, 58, 71
2, 200540, Note_on_c, 0, 79, 0
2, 200549, Note_on_c, 0, 79, 77
2, 200686, Note_on_c, 0, 72, 0
2, 200696, Note_on_c, 0, 72, 68
2, 200808, Note_on_c, 0, 79, 0
2, 200813, Note_on_c, 0, 79, 78
2, 200907, Note_on_c, 0, 79, 0
2, 200908, Note_on_c, 0, 60, 0
2, 200908, Note_on_c, 0, 63, 0
2, 200908, Note_on_c, 0, 58, 0
2, 200908, Control_c, 0, 64, 0
2, 200909, Note_on_c, 0, 65, 0
2, 200909, Note_on_c, 0, 72, 0
2, 200911, Note_on_c, 0, 84, 0
2, 200916, Note_on_c, 0, 34, 0
2, 200939, Note_on_c, 0, 67, 0
2, 200945, Note_on_c, 0, 67, 81
2, 200948, Note_on_c, 0, 56, 69
2, 200951, Note_on_c, 0, 60, 67
2, 200960, Note_on_c, 0, 63, 78
2, 200993, Control_c, 0, 64, 127
2, 200996, Note_on_c, 0, 72, 68
2, 201131, Note_on_c, 0, 67, 0
2, 201135, Note_on_c, 0, 67, 71
2, 201239, Note_on_c, 0, 72, 0
2, 201244, Note_on_c, 0, 72, 66
2, 201384, Note_on_c, 0, 79, 74
2, 201495, Note_on_c, 0, 32, 64
2, 201507, Note_on_c, 0, 72, 0
2, 201519, Note_on_c, 0, 72, 69
2, 201646, Note_on_c, 0, 67, 0
2, 201655, Note_on_c, 0, 67, 64
2, 201768, Note_on_c, 0, 72, 0
2, 201778, Note_on_c, 0, 72, 60
2, 201907, Note_on_c, 0, 79, 0
2, 201912, Note_on_c, 0, 79, 71
2, 202030, Note_on_c, 0, 63, 0
2, 202039, Note_on_c, 0, 70, 82
2, 202041, Note_on_c, 0, 63, 74
2, 202045, Note_on_c, 0, 60, 0
2, 202051, Note_on_c, 0, 60, 66
2, 202160, Note_on_c, 0, 67, 0
2, 202169, Note_on_c, 0, 67, 71
2, 202291, Note_on_c, 0, 72, 0
2, 202295, Note_on_c, 0, 72, 76
2, 202414, Note_on_c, 0, 79, 0
2, 202420, Note_on_c, 0, 79, 82
2, 202552, Note_on_c, 0, 72, 0
2, 202556, Note_on_c, 0, 72, 92
2, 202560, Note_on_c, 0, 60, 0
2, 202562, Note_on_c, 0, 84, 82
2, 202567, Note_on_c, 0, 63, 0
2, 202570, Note_on_c, 0, 60, 85
2, 202579, Note_on_c, 0, 63, 81
2, 202690, Note_on_c, 0, 79, 0
2, 202701, Note_on_c, 0, 79, 75
2, 202828, Note_on_c, 0, 72, 0
2, 202835, Note_on_c, 0, 72, 60
2, 202951, Note_on_c, 0, 79, 0
2, 202962, Note_on_c, 0, 79, 80
2, 203072, Note_on_c, 0, 70, 0
2, 203074, Note_on_c, 0, 60, 0
2, 203074, Note_on_c, 0, 79, 0
2, 203075, Note_on_c, 0, 67, 0
2, 203075, Note_on_c, 0, 72, 0
2, 203075, Note_on_c, 0, 56, 0
2, 203076, Control_c, 0, 64, 0
2, 203089, Note_on_c, 0, 32, 0
2, 203089, Note_on_c, 0, 63, 0
2, 203089, Note_on_c, 0, 84, 0
2, 203094, Note_on_c, 0, 58, 73
2, 203095, Note_on_c, 0, 65, 75
2, 203099, Note_on_c, 0, 63, 70
2, 203145, Note_on_c, 0, 72, 62
2, 203182, Control_c, 0, 64, 127
2, 203275, Note_on_c, 0, 67, 66
2, 203374, Note_on_c, 0, 72, 0
2, 203384, Note_on_c, 0, 72, 77
2, 203522, Note_on_c, 0, 79, 78
2, 203615, Note_on_c, 0, 34, 69
2, 203642, Note_on_c, 0, 72, 0
2, 203649, Note_on_c, 0, 72, 68
2, 203765, Note_on_c, 0, 67, 0
2, 203770, Note_on_c, 0, 67, 63
2, 203896, Note_on_c, 0, 72, 0
2, 203901, Note_on_c, 0, 72, 73
2, 204019, Note_on_c, 0, 79, 0
2, 204024, Note_on_c, 0, 79, 79
2, 204142, Note_on_c, 0, 63, 0
2, 204149, Note_on_c, 0, 58, 0
2, 204152, Note_on_c, 0, 63, 77
2, 204152, Note_on_c, 0, 75, 92
2, 204156, Note_on_c, 0, 70, 76
2, 204160, Note_on_c, 0, 58, 74
2, 204226, Note_on_c, 0, 65, 0
2, 204280, Note_on_c, 0, 67, 0
2, 204290, Note_on_c, 0, 67, 73
2, 204418, Note_on_c, 0, 72, 0
2, 204418, Note_on_c, 0, 75, 0
2, 204423, Note_on_c, 0, 72, 66
2, 204426, Note_on_c, 0, 75, 60
2, 204541, Note_on_c, 0, 79, 0
2, 204545, Note_on_c, 0, 79, 81
2, 204679, Note_on_c, 0, 58, 0
2, 204681, Note_on_c, 0, 77, 92
2, 204690, Note_on_c, 0, 58, 79
2, 204695, Note_on_c, 0, 70, 0
2, 204695, Note_on_c, 0, 62, 73
2, 204699, Note_on_c, 0, 70, 72
2, 204802, Note_on_c, 0, 67, 0
2, 204808, Note_on_c, 0, 67, 77
2, 204948, Note_on_c, 0, 72, 0
2, 204959, Note_on_c, 0, 72, 70
2, 205071, Note_on_c, 0, 79, 0
2, 205076, Note_on_c, 0, 79, 82
2, 205194, Note_on_c, 0, 34, 0
2, 205205, Note_on_c, 0, 62, 0
2, 205205, Note_on_c, 0, 75, 0
2, 205205, Note_on_c, 0, 72, 0
2, 205205, Note_on_c, 0, 67, 0
2, 205206, Note_on_c, 0, 77, 0
2, 205212, Control_c, 0, 64, 0
2, 205217, Note_on_c, 0, 58, 0
2, 205217, Note_on_c, 0, 70, 0
2, 205217, Note_on_c, 0, 79, 0
2, 205223, Note_on_c, 0, 79, 95
2, 205224, Note_on_c, 0, 63, 0
2, 205227, Note_on_c, 0, 44, 76
2, 205227, Note_on_c, 0, 70, 78
2, 205228, Note_on_c, 0, 58, 73
2, 205324, Control_c, 0, 64, 127
2, 205359, Note_on_c, 0, 67, 66
2, 205493, Note_on_c, 0, 72, 60
2, 205616, Note_on_c, 0, 79, 0
2, 205627, Note_on_c, 0, 79, 73
2, 205647, Note_on_c, 0, 44, 0
2, 205747, Note_on_c, 0, 70, 0
2, 205750, Note_on_c, 0, 60, 69
2, 205754, Note_on_c, 0, 70, 54
2, 205885, Note_on_c, 0, 67, 0
2, 205893, Note_on_c, 0, 67, 60
2, 206023, Note_on_c, 0, 72, 0
2, 206029, Note_on_c, 0, 72, 56
2, 206146, Note_on_c, 0, 79, 0
2, 206151, Note_on_c, 0, 79, 63
2, 206274, Note_on_c, 0, 63, 78
2, 206400, Note_on_c, 0, 67, 0
2, 206411, Note_on_c, 0, 67, 62
2, 206532, Note_on_c, 0, 77, 90
2, 206653, Note_on_c, 0, 67, 0
2, 206663, Note_on_c, 0, 67, 80
2, 206791, Note_on_c, 0, 79, 0
2, 206800, Note_on_c, 0, 79, 97
2, 206807, Note_on_c, 0, 65, 73
2, 206914, Note_on_c, 0, 67, 0
2, 206922, Note_on_c, 0, 67, 85
2, 207045, Note_on_c, 0, 58, 0
2, 207045, Note_on_c, 0, 70, 0
2, 207049, Note_on_c, 0, 58, 82
2, 207051, Note_on_c, 0, 84, 94
2, 207055, Note_on_c, 0, 70, 81
2, 207152, Note_on_c, 0, 67, 0
2, 207159, Note_on_c, 0, 67, 80
2, 207321, Note_on_c, 0, 82, 100
2, 207336, Note_on_c, 0, 58, 0
2, 207336, Note_on_c, 0, 70, 0
2, 207340, Note_on_c, 0, 65, 0
2, 207340, Note_on_c, 0, 67, 0
2, 207340, Note_on_c, 0, 60, 0
2, 207340, Note_on_c, 0, 63, 0
2, 207340, Note_on_c, 0, 72, 0
2, 207340, Note_on_c, 0, 77, 0
2, 207341, Note_on_c, 0, 79, 0
2, 207341, Control_c, 0, 64, 0
2, 207342, Note_on_c, 0, 84, 0
2, 207344, Note_on_c, 0, 58, 75
2, 207346, Note_on_c, 0, 46, 71
2, 207346, Note_on_c, 0, 70, 82
2, 207429, Control_c, 0, 64, 127
2, 207452, Note_on_c, 0, 70, 0
2, 207463, Note_on_c, 0, 70, 56
2, 207586, Note_on_c, 0, 77, 88
2, 207736, Note_on_c, 0, 70, 0
2, 207742, Note_on_c, 0, 70, 55
2, 207851, Note_on_c, 0, 77, 0
2, 207854, Note_on_c, 0, 60, 83
2, 207857, Note_on_c, 0, 77, 79
2, 207982, Note_on_c, 0, 70, 0
2, 207993, Note_on_c, 0, 70, 55
2, 208128, Note_on_c, 0, 77, 0
2, 208133, Note_on_c, 0, 77, 65
2, 208151, Note_on_c, 0, 46, 0
2, 208258, Note_on_c, 0, 82, 0
2, 208264, Note_on_c, 0, 82, 68
2, 208376, Note_on_c, 0, 63, 84
2, 208396, Note_on_c, 0, 77, 0
2, 208408, Note_on_c, 0, 77, 74
2, 208519, Note_on_c, 0, 70, 0
2, 208526, Note_on_c, 0, 70, 47
2, 208629, Note_on_c, 0, 65, 81
2, 208657, Note_on_c, 0, 77, 0
2, 208662, Note_on_c, 0, 77, 69
2, 208788, Note_on_c, 0, 82, 0
2, 208792, Note_on_c, 0, 82, 75
2, 208903, Note_on_c, 0, 58, 0
2, 208903, Note_on_c, 0, 77, 0
2, 208911, Note_on_c, 0, 58, 79
2, 208913, Note_on_c, 0, 77, 66
2, 209041, Note_on_c, 0, 70, 0
2, 209047, Note_on_c, 0, 70, 69
2, 209180, Note_on_c, 0, 77, 0
2, 209186, Note_on_c, 0, 77, 65
2, 209272, Note_on_c, 0, 82, 0
2, 209280, Note_on_c, 0, 82, 73
2, 209390, Control_c, 0, 64, 0
2, 209392, Note_on_c, 0, 63, 0
2, 209392, Note_on_c, 0, 60, 0
2, 209393, Note_on_c, 0, 65, 0
2, 209393, Note_on_c, 0, 70, 0
2, 209394, Note_on_c, 0, 58, 0
2, 209394, Note_on_c, 0, 82, 0
2, 209425, Note_on_c, 0, 77, 0
2, 209430, Note_on_c, 0, 77, 93
2, 209439, Note_on_c, 0, 67, 83
2, 209445, Note_on_c, 0, 43, 64
2, 209472, Control_c, 0, 64, 127
2, 209525, Note_on_c, 0, 67, 0
2, 209621, Note_on_c, 0, 70, 66
2, 209733, Note_on_c, 0, 77, 0
2, 209744, Note_on_c, 0, 77, 77
2, 209853, Note_on_c, 0, 82, 77
2, 209961, Note_on_c, 0, 65, 80
2, 209994, Note_on_c, 0, 77, 0
2, 210004, Note_on_c, 0, 77, 73
2, 210109, Note_on_c, 0, 70, 0
2, 210115, Note_on_c, 0, 70, 61
2, 210247, Note_on_c, 0, 77, 0
2, 210252, Note_on_c, 0, 77, 73
2, 210355, Note_on_c, 0, 82, 0
2, 210361, Note_on_c, 0, 82, 77
2, 210478, Note_on_c, 0, 65, 0
2, 210488, Note_on_c, 0, 65, 75
2, 210501, Note_on_c, 0, 77, 0
2, 210509, Note_on_c, 0, 77, 71
2, 210608, Note_on_c, 0, 70, 0
2, 210620, Note_on_c, 0, 70, 69
2, 210762, Note_on_c, 0, 75, 84
2, 210885, Note_on_c, 0, 70, 0
2, 210892, Note_on_c, 0, 70, 79
2, 211015, Note_on_c, 0, 77, 0
2, 211019, Note_on_c, 0, 63, 87
2, 211020, Note_on_c, 0, 77, 94
2, 211153, Note_on_c, 0, 70, 0
2, 211158, Note_on_c, 0, 70, 78
2, 211283, Note_on_c, 0, 80, 96
2, 211290, Note_on_c, 0, 62, 74
2, 211399, Note_on_c, 0, 70, 0
2, 211405, Note_on_c, 0, 70, 77
2, 211520, Note_on_c, 0, 70, 0
2, 211521, Control_c, 0, 64, 0
2, 211521, Note_on_c, 0, 82, 0
2, 211521, Note_on_c, 0, 65, 0
2, 211522, Note_on_c, 0, 80, 0
2, 211522, Note_on_c, 0, 63, 0
2, 211522, Note_on_c, 0, 75, 0
2, 211523, Note_on_c, 0, 77, 0
2, 211525, Note_on_c, 0, 43, 0
2, 211545, Note_on_c, 0, 62, 0
2, 211545, Note_on_c, 0, 79, 94
2, 211548, Note_on_c, 0, 48, 74
2, 211549, Note_on_c, 0, 62, 70
2, 211607, Control_c, 0, 64, 127
2, 211687, Note_on_c, 0, 67, 70
2, 211808, Note_on_c, 0, 75, 86
2, 211921, Note_on_c, 0, 67, 0
2, 211927, Note_on_c, 0, 67, 76
2, 212060, Note_on_c, 0, 75, 0
2, 212071, Note_on_c, 0, 75, 75
2, 212073, Note_on_c, 0, 63, 81
2, 212183, Note_on_c, 0, 67, 0
2, 212187, Note_on_c, 0, 67, 73
2, 212309, Note_on_c, 0, 72, 62
2, 212428, Note_on_c, 0, 79, 0
2, 212439, Note_on_c, 0, 79, 76
2, 212551, Note_on_c, 0, 62, 0
2, 212562, Note_on_c, 0, 62, 78
2, 212567, Note_on_c, 0, 72, 0
2, 212572, Note_on_c, 0, 72, 56
2, 212705, Note_on_c, 0, 67, 0
2, 212716, Note_on_c, 0, 67, 64
2, 212835, Note_on_c, 0, 72, 0
2, 212845, Note_on_c, 0, 72, 55
2, 212974, Note_on_c, 0, 79, 0
2, 212984, Note_on_c, 0, 79, 55
2, 213078, Note_on_c, 0, 58, 74
2, 213081, Note_on_c, 0, 72, 0
2, 213087, Note_on_c, 0, 72, 59
2, 213092, Note_on_c, 0, 70, 67
2, 213212, Note_on_c, 0, 67, 0
2, 213216, Note_on_c, 0, 67, 69
2, 213350, Note_on_c, 0, 72, 0
2, 213359, Note_on_c, 0, 72, 59
2, 213457, Note_on_c, 0, 79, 0
2, 213466, Note_on_c, 0, 79, 77
2, 213567, Control_c, 0, 64, 0
2, 213568, Note_on_c, 0, 63, 0
2, 213568, Note_on_c, 0, 67, 0
2, 213568, Note_on_c, 0, 75, 0
2, 213568, Note_on_c, 0, 70, 0
2, 213568, Note_on_c, 0, 58, 0
2, 213580, Note_on_c, 0, 62, 0
2, 213588, Note_on_c, 0, 48, 0
2, 213588, Note_on_c, 0, 79, 0
2, 213595, Note_on_c, 0, 79, 91
2, 213596, Note_on_c, 0, 72, 0
2, 213600, Note_on_c, 0, 72, 75
2, 213608, Note_on_c, 0, 69, 72
2, 213609, Note_on_c, 0, 50, 74
2, 213649, Control_c, 0, 64, 127
2, 213750, Note_on_c, 0, 53, 64
2, 213872, Note_on_c, 0, 69, 0
2, 213877, Note_on_c, 0, 69, 61
2, 213878, Note_on_c, 0, 57, 69
2, 213972, Note_on_c, 0, 79, 0
2, 213981, Note_on_c, 0, 79, 75
2, 214006, Note_on_c, 0, 59, 72
2, 214126, Note_on_c, 0, 72, 0
2, 214130, Note_on_c, 0, 60, 64
2, 214131, Note_on_c, 0, 72, 66
2, 214236, Note_on_c, 0, 67, 79
2, 214256, Note_on_c, 0, 57, 0
2, 214261, Note_on_c, 0, 57, 68
2, 214364, Note_on_c, 0, 72, 0
2, 214371, Note_on_c, 0, 72, 69
2, 214387, Note_on_c, 0, 60, 0
2, 214397, Note_on_c, 0, 60, 68
2, 214464, Note_on_c, 0, 79, 0
2, 214469, Note_on_c, 0, 79, 89
2, 214513, Note_on_c, 0, 62, 61
2, 214606, Note_on_c, 0, 96, 95
2, 214606, Note_on_c, 0, 84, 98
2, 214607, Note_on_c, 0, 64, 72
2, 214617, Note_on_c, 0, 96, 0
2, 214732, Note_on_c, 0, 50, 0
2, 214744, Note_on_c, 0, 50, 74
2, 214877, Note_on_c, 0, 77, 91
2, 214878, Note_on_c, 0, 60, 0
2, 214889, Note_on_c, 0, 60, 64
2, 215009, Note_on_c, 0, 67, 0
2, 215015, Note_on_c, 0, 67, 79
2, 215147, Note_on_c, 0, 60, 0
2, 215151, Note_on_c, 0, 76, 94
2, 215153, Note_on_c, 0, 88, 85
2, 215153, Note_on_c, 0, 60, 73
2, 215162, Note_on_c, 0, 88, 0
2, 215292, Note_on_c, 0, 55, 70
2, 215393, Note_on_c, 0, 77, 0
2, 215398, Note_on_c, 0, 77, 94
2, 215400, Note_on_c, 0, 89, 85
2, 215400, Note_on_c, 0, 60, 0
2, 215405, Note_on_c, 0, 60, 73
2, 215408, Note_on_c, 0, 89, 0
2, 215516, Note_on_c, 0, 67, 0
2, 215521, Note_on_c, 0, 67, 77
2, 215646, Note_on_c, 0, 79, 0
2, 215653, Note_on_c, 0, 79, 99
2, 215654, Note_on_c, 0, 67, 0
2, 215658, Note_on_c, 0, 52, 77
2, 215658, Note_on_c, 0, 67, 85
2, 215662, Control_c, 0, 64, 0
2, 215665, Note_on_c, 0, 59, 0
2, 215665, Note_on_c, 0, 69, 0
2, 215665, Note_on_c, 0, 72, 0
2, 215665, Note_on_c, 0, 60, 0
2, 215665, Note_on_c, 0, 64, 0
2, 215665, Note_on_c, 0, 62, 0
2, 215666, Note_on_c, 0, 76, 0
2, 215666, Note_on_c, 0, 77, 0
2, 215666, Note_on_c, 0, 53, 0
2, 215666, Note_on_c, 0, 57, 0
2, 215666, Note_on_c, 0, 84, 0
2, 215666, Note_on_c, 0, 55, 0
2, 215666, Note_on_c, 0, 50, 0
2, 215738, Control_c, 0, 64, 127
2, 215809, Note_on_c, 0, 55, 62
2, 215905, Note_on_c, 0, 72, 70
2, 215906, Note_on_c, 0, 57, 70
2, 216023, Note_on_c, 0, 79, 0
2, 216034, Note_on_c, 0, 79, 81
2, 216051, Note_on_c, 0, 59, 72
2, 216168, Note_on_c, 0, 72, 0
2, 216171, Note_on_c, 0, 60, 72
2, 216177, Note_on_c, 0, 72, 76
2, 216291, Note_on_c, 0, 55, 0
2, 216291, Note_on_c, 0, 67, 0
2, 216296, Note_on_c, 0, 67, 86
2, 216298, Note_on_c, 0, 55, 74
2, 216422, Note_on_c, 0, 72, 0
2, 216427, Note_on_c, 0, 72, 79
2, 216437, Note_on_c, 0, 60, 0
2, 216443, Note_on_c, 0, 60, 63
2, 216522, Note_on_c, 0, 79, 0
2, 216527, Note_on_c, 0, 79, 96
2, 216563, Note_on_c, 0, 62, 60
2, 216648, Note_on_c, 0, 64, 73
2, 216667, Note_on_c, 0, 96, 98
2, 216670, Note_on_c, 0, 84, 100
2, 216791, Note_on_c, 0, 52, 0
2, 216795, Note_on_c, 0, 52, 76
2, 216921, Note_on_c, 0, 79, 0
2, 216931, Note_on_c, 0, 91, 93
2, 216931, Note_on_c, 0, 79, 103
2, 216936, Note_on_c, 0, 91, 0
2, 216944, Note_on_c, 0, 60, 0
2, 216949, Note_on_c, 0, 60, 77
2, 217059, Note_on_c, 0, 67, 0
2, 217071, Note_on_c, 0, 67, 81
2, 217198, Note_on_c, 0, 60, 0
2, 217201, Note_on_c, 0, 81, 104
2, 217203, Note_on_c, 0, 60, 81
2, 217328, Note_on_c, 0, 55, 0
2, 217339, Note_on_c, 0, 55, 74
2, 217447, Note_on_c, 0, 83, 100
2, 217451, Note_on_c, 0, 60, 0
2, 217461, Note_on_c, 0, 60, 80
2, 217582, Note_on_c, 0, 67, 0
2, 217591, Note_on_c, 0, 67, 79
2, 217710, Note_on_c, 0, 59, 0
2, 217710, Control_c, 0, 64, 0
2, 217712, Note_on_c, 0, 79, 0
2, 217712, Note_on_c, 0, 84, 0
2, 217712, Note_on_c, 0, 96, 0
2, 217712, Note_on_c, 0, 64, 0
2, 217713, Note_on_c, 0, 83, 0
2, 217713, Note_on_c, 0, 52, 0
2, 217714, Note_on_c, 0, 62, 0
2, 217714, Note_on_c, 0, 81, 0
2, 217715, Note_on_c, 0, 57, 0
2, 217715, Note_on_c, 0, 60, 0
2, 217715, Note_on_c, 0, 55, 0
2, 217715, Note_on_c, 0, 67, 0
2, 217718, Note_on_c, 0, 84, 104
2, 217720, Note_on_c, 0, 79, 99
2, 217728, Note_on_c, 0, 72, 0
2, 217736, Note_on_c, 0, 77, 85
2, 217739, Note_on_c, 0, 53, 79
2, 217797, Control_c, 0, 64, 127
2, 217872, Note_on_c, 0, 55, 68
2, 217989, Note_on_c, 0, 60, 72
2, 217992, Note_on_c, 0, 72, 71
2, 218099, Note_on_c, 0, 65, 68
2, 218135, Note_on_c, 0, 79, 0
2, 218143, Note_on_c, 0, 79, 70
2, 218227, Note_on_c, 0, 84, 0
2, 218231, Note_on_c, 0, 96, 102
2, 218234, Note_on_c, 0, 67, 81
2, 218238, Note_on_c, 0, 84, 94
2, 218350, Note_on_c, 0, 65, 0
2, 218361, Note_on_c, 0, 65, 62
2, 218496, Note_on_c, 0, 60, 0
2, 218501, Note_on_c, 0, 60, 70
2, 218603, Note_on_c, 0, 55, 0
2, 218611, Note_on_c, 0, 55, 76
2, 218714, Note_on_c, 0, 53, 0
2, 218714, Note_on_c, 0, 65, 0
2, 218714, Note_on_c, 0, 77, 0
2, 218714, Note_on_c, 0, 60, 0
2, 218714, Note_on_c, 0, 72, 0
2, 218715, Note_on_c, 0, 67, 0
2, 218715, Note_on_c, 0, 79, 0
2, 218715, Note_on_c, 0, 55, 0
2, 218716, Control_c, 0, 64, 0
2, 218716, Note_on_c, 0, 84, 0
2, 218718, Note_on_c, 0, 96, 0
2, 218738, Note_on_c, 0, 86, 104
2, 218751, Note_on_c, 0, 79, 85
2, 218751, Note_on_c, 0, 53, 75
2, 218755, Note_on_c, 0, 74, 87
2, 218761, Note_on_c, 0, 77, 83
2, 218771, Note_on_c, 0, 80, 65
2, 218787, Control_c, 0, 64, 127
2, 218883, Note_on_c, 0, 55, 69
2, 219000, Note_on_c, 0, 72, 84
2, 219015, Note_on_c, 0, 60, 76
2, 219118, Note_on_c, 0, 79, 0
2, 219128, Note_on_c, 0, 79, 89
2, 219128, Note_on_c, 0, 65, 74
2, 219252, Note_on_c, 0, 67, 85
2, 219262, Note_on_c, 0, 84, 94
2, 219264, Note_on_c, 0, 96, 98
2, 219371, Note_on_c, 0, 65, 0
2, 219381, Note_on_c, 0, 65, 73
2, 219502, Note_on_c, 0, 60, 0
2, 219512, Note_on_c, 0, 60, 77
2, 219617, Note_on_c, 0, 55, 0
2, 219624, Note_on_c, 0, 55, 76
2, 219748, Note_on_c, 0, 74, 0
2, 219748, Note_on_c, 0, 96, 0
2, 219749, Note_on_c, 0, 67, 0
2, 219750, Note_on_c, 0, 72, 0
2, 219750, Note_on_c, 0, 53, 0
2, 219750, Note_on_c, 0, 65, 0
2, 219750, Note_on_c, 0, 60, 0
2, 219750, Note_on_c, 0, 79, 0
2, 219751, Note_on_c, 0, 77, 0
2, 219751, Note_on_c, 0, 84, 0
2, 219752, Control_c, 0, 64, 0
2, 219755, Note_on_c, 0, 80, 0
2, 219755, Note_on_c, 0, 86, 0
2, 219763, Note_on_c, 0, 55, 0
2, 219766, Note_on_c, 0, 86, 103
2, 219772, Note_on_c, 0, 55, 82
2, 219777, Note_on_c, 0, 74, 85
2, 219780, Note_on_c, 0, 83, 91
2, 219786, Note_on_c, 0, 79, 89
2, 219832, Control_c, 0, 64, 127
2, 219914, Note_on_c, 0, 62, 67
2, 220037, Note_on_c, 0, 67, 76
2, 220154, Note_on_c, 0, 74, 0
2, 220159, Note_on_c, 0, 74, 70
2, 220262, Note_on_c, 0, 79, 0
2, 220273, Note_on_c, 0, 79, 85
2, 220392, Note_on_c, 0, 86, 0
2, 220398, Note_on_c, 0, 86, 80
2, 220532, Note_on_c, 0, 91, 73
2, 220665, Note_on_c, 0, 98, 77
2, 220692, Note_on_c, 0, 55, 0
2, 220789, Note_on_c, 0, 103, 84
2, 220907, Note_on_c, 0, 98, 0
2, 220918, Note_on_c, 0, 98, 78
2, 221045, Note_on_c, 0, 83, 0
2, 221045, Note_on_c, 0, 91, 0
2, 221055, Note_on_c, 0, 83, 50
2, 221055, Note_on_c, 0, 91, 66
2, 221184, Note_on_c, 0, 86, 0
2, 221189, Note_on_c, 0, 86, 72
2, 221360, Note_on_c, 0, 79, 0
2, 221365, Note_on_c, 0, 79, 68
2, 221529, Note_on_c, 0, 74, 0
2, 221541, Note_on_c, 0, 74, 51
2, 221736, Note_on_c, 0, 67, 0
2, 221747, Note_on_c, 0, 67, 64
2, 221755, Note_on_c, 0, 55, 45
2, 221801, Note_on_c, 0, 43, 30
2, 221806, Note_on_c, 0, 43, 0
2, 221959, Note_on_c, 0, 62, 0
2, 221967, Note_on_c, 0, 62, 55
2, 222250, Note_on_c, 0, 84, 85
2, 222259, Note_on_c, 0, 103, 0
2, 222274, Note_on_c, 0, 91, 0
2, 222274, Note_on_c, 0, 83, 0
2, 222275, Note_on_c, 0, 79, 0
2, 222276, Note_on_c, 0, 98, 0
2, 222276, Note_on_c, 0, 62, 0
2, 222276, Note_on_c, 0, 55, 0
2, 222276, Note_on_c, 0, 74, 0
2, 222277, Note_on_c, 0, 86, 0
2, 222277, Note_on_c, 0, 67, 0
2, 222278, Note_on_c, 0, 53, 53
2, 222278, Control_c, 0, 64, 0
2, 222359, Control_c, 0, 64, 127
2, 222407, Note_on_c, 0, 55, 63
2, 222494, Note_on_c, 0, 57, 56
2, 222582, Note_on_c, 0, 60, 68
2, 222592, Note_on_c, 0, 83, 76
2, 222674, Note_on_c, 0, 62, 60
2, 222713, Note_on_c, 0, 81, 83
2, 222740, Note_on_c, 0, 64, 62
2, 222800, Note_on_c, 0, 65, 63
2, 222864, Note_on_c, 0, 67, 70
2, 222944, Note_on_c, 0, 69, 65
2, 222970, Note_on_c, 0, 79, 88
2, 223019, Note_on_c, 0, 71, 67
2, 223082, Note_on_c, 0, 72, 67
2, 223156, Note_on_c, 0, 74, 68
2, 223243, Note_on_c, 0, 76, 64
2, 223285, Note_on_c, 0, 77, 71
2, 223342, Note_on_c, 0, 79, 0
2, 223342, Note_on_c, 0, 96, 94
2, 223346, Note_on_c, 0, 79, 85
2, 223411, Note_on_c, 0, 77, 0
2, 223415, Note_on_c, 0, 77, 71
2, 223464, Note_on_c, 0, 76, 0
2, 223474, Note_on_c, 0, 76, 53
2, 223495, Note_on_c, 0, 74, 0
2, 223504, Note_on_c, 0, 74, 72
2, 223580, Note_on_c, 0, 72, 0
2, 223584, Note_on_c, 0, 72, 71
2, 223610, Note_on_c, 0, 95, 81
2, 223641, Note_on_c, 0, 71, 0
2, 223652, Note_on_c, 0, 71, 63
2, 223695, Note_on_c, 0, 69, 0
2, 223706, Note_on_c, 0, 69, 64
2, 223741, Note_on_c, 0, 67, 0
2, 223747, Note_on_c, 0, 67, 75
2, 223756, Note_on_c, 0, 93, 87
2, 223825, Note_on_c, 0, 65, 0
2, 223829, Note_on_c, 0, 65, 70
2, 223902, Note_on_c, 0, 64, 0
2, 223909, Note_on_c, 0, 64, 69
2, 223956, Note_on_c, 0, 62, 0
2, 223967, Note_on_c, 0, 62, 64
2, 223997, Note_on_c, 0, 91, 87
2, 224017, Note_on_c, 0, 60, 0
2, 224023, Note_on_c, 0, 60, 73
2, 224133, Note_on_c, 0, 60, 0
2, 224138, Note_on_c, 0, 60, 67
2, 224220, Note_on_c, 0, 59, 65
2, 224302, Note_on_c, 0, 57, 0
2, 224309, Note_on_c, 0, 57, 66
2, 224355, Note_on_c, 0, 74, 0
2, 224356, Note_on_c, 0, 59, 0
2, 224356, Note_on_c, 0, 95, 0
2, 224356, Note_on_c, 0, 65, 0
2, 224356, Note_on_c, 0, 64, 0
2, 224356, Note_on_c, 0, 93, 0
2, 224356, Note_on_c, 0, 69, 0
2, 224357, Note_on_c, 0, 71, 0
2, 224357, Note_on_c, 0, 67, 0
2, 224357, Note_on_c, 0, 77, 0
2, 224357, Note_on_c, 0, 83, 0
2, 224357, Note_on_c, 0, 96, 0
2, 224357, Note_on_c, 0, 72, 0
2, 224357, Note_on_c, 0, 53, 0
2, 224357, Note_on_c, 0, 91, 0
2, 224357, Note_on_c, 0, 84, 0
2, 224357, Note_on_c, 0, 60, 0
2, 224358, Note_on_c, 0, 81, 0
2, 224358, Note_on_c, 0, 79, 0
2, 224358, Note_on_c, 0, 57, 0
2, 224358, Control_c, 0, 64, 0
2, 224371, Note_on_c, 0, 62, 0
2, 224371, Note_on_c, 0, 76, 0
2, 224376, Note_on_c, 0, 76, 92
2, 224378, Note_on_c, 0, 55, 0
2, 224390, Note_on_c, 0, 55, 70
2, 224440, Control_c, 0, 64, 127
2, 224523, Note_on_c, 0, 57, 66
2, 224582, Note_on_c, 0, 59, 66
2, 224637, Note_on_c, 0, 60, 61
2, 224663, Note_on_c, 0, 77, 91
2, 224718, Note_on_c, 0, 62, 63
2, 224778, Note_on_c, 0, 76, 0
2, 224783, Note_on_c, 0, 76, 92
2, 224786, Note_on_c, 0, 64, 75
2, 224836, Note_on_c, 0, 65, 69
2, 224902, Note_on_c, 0, 67, 73
2, 224979, Note_on_c, 0, 69, 70
2, 225031, Note_on_c, 0, 77, 0
2, 225042, Note_on_c, 0, 77, 90
2, 225057, Note_on_c, 0, 71, 66
2, 225126, Note_on_c, 0, 72, 73
2, 225164, Note_on_c, 0, 79, 93
2, 225214, Note_on_c, 0, 74, 67
2, 225285, Note_on_c, 0, 67, 0
2, 225289, Note_on_c, 0, 67, 44
2, 225308, Note_on_c, 0, 76, 0
2, 225318, Note_on_c, 0, 76, 63
2, 225346, Note_on_c, 0, 77, 0
2, 225356, Note_on_c, 0, 77, 76
2, 225415, Note_on_c, 0, 79, 0
2, 225419, Note_on_c, 0, 88, 99
2, 225425, Note_on_c, 0, 79, 85
2, 225484, Note_on_c, 0, 77, 0
2, 225489, Note_on_c, 0, 77, 75
2, 225538, Note_on_c, 0, 76, 0
2, 225548, Note_on_c, 0, 76, 72
2, 225576, Note_on_c, 0, 74, 0
2, 225585, Note_on_c, 0, 74, 71
2, 225661, Note_on_c, 0, 72, 0
2, 225666, Note_on_c, 0, 72, 76
2, 225687, Note_on_c, 0, 89, 87
2, 225738, Note_on_c, 0, 71, 0
2, 225747, Note_on_c, 0, 71, 69
2, 225776, Note_on_c, 0, 69, 0
2, 225781, Note_on_c, 0, 69, 68
2, 225807, Note_on_c, 0, 88, 0
2, 225817, Note_on_c, 0, 88, 89
2, 225861, Note_on_c, 0, 67, 0
2, 225866, Note_on_c, 0, 67, 76
2, 225937, Note_on_c, 0, 65, 0
2, 225946, Note_on_c, 0, 65, 66
2, 225984, Note_on_c, 0, 64, 0
2, 225992, Note_on_c, 0, 64, 59
2, 226053, Note_on_c, 0, 62, 0
2, 226053, Note_on_c, 0, 89, 0
2, 226057, Note_on_c, 0, 62, 69
2, 226059, Note_on_c, 0, 89, 79
2, 226060, Note_on_c, 0, 88, 0
2, 226065, Note_on_c, 0, 88, 66
2, 226183, Note_on_c, 0, 60, 0
2, 226187, Note_on_c, 0, 91, 84
2, 226187, Note_on_c, 0, 60, 58
2, 226306, Note_on_c, 0, 59, 0
2, 226312, Note_on_c, 0, 59, 72
2, 226368, Note_on_c, 0, 67, 0
2, 226376, Note_on_c, 0, 67, 30
2, 226446, Note_on_c, 0, 74, 0
2, 226446, Note_on_c, 0, 65, 0
2, 226447, Note_on_c, 0, 69, 0
2, 226447, Note_on_c, 0, 62, 0
2, 226447, Note_on_c, 0, 67, 0
2, 226447, Note_on_c, 0, 64, 0
2, 226447, Note_on_c, 0, 55, 0
2, 226447, Note_on_c, 0, 59, 0
2, 226447, Note_on_c, 0, 72, 0
2, 226447, Note_on_c, 0, 71, 0
2, 226447, Control_c, 0, 64, 0
2, 226447, Note_on_c, 0, 77, 0
2, 226448, Note_on_c, 0, 60, 0
2, 226448, Note_on_c, 0, 89, 0
2, 226448, Note_on_c, 0, 88, 0
2, 226448, Note_on_c, 0, 91, 0
2, 226460, Note_on_c, 0, 57, 0
2, 226463, Note_on_c, 0, 84, 88
2, 226464, Note_on_c, 0, 57, 78
2, 226467, Note_on_c, 0, 76, 0
2, 226467, Note_on_c, 0, 79, 0
2, 226529, Control_c, 0, 64, 127
2, 226593, Note_on_c, 0, 59, 68
2, 226659, Note_on_c, 0, 60, 68
2, 226740, Note_on_c, 0, 62, 69
2, 226740, Note_on_c, 0, 83, 88
2, 226814, Note_on_c, 0, 64, 63
2, 226868, Note_on_c, 0, 81, 91
2, 226870, Note_on_c, 0, 65, 71
2, 226930, Note_on_c, 0, 67, 72
2, 227019, Note_on_c, 0, 69, 57
2, 227098, Note_on_c, 0, 71, 65
2, 227141, Note_on_c, 0, 79, 91
2, 227163, Note_on_c, 0, 72, 75
2, 227241, Note_on_c, 0, 74, 66
2, 227331, Note_on_c, 0, 76, 67
2, 227384, Note_on_c, 0, 77, 79
2, 227466, Note_on_c, 0, 79, 0
2, 227475, Note_on_c, 0, 79, 86
2, 227494, Note_on_c, 0, 96, 96
2, 227527, Note_on_c, 0, 77, 0
2, 227536, Note_on_c, 0, 77, 70
2, 227589, Note_on_c, 0, 76, 0
2, 227598, Note_on_c, 0, 76, 68
2, 227627, Note_on_c, 0, 74, 0
2, 227632, Note_on_c, 0, 74, 64
2, 227704, Note_on_c, 0, 72, 0
2, 227709, Note_on_c, 0, 72, 77
2, 227747, Note_on_c, 0, 95, 90
2, 227756, Note_on_c, 0, 86, 67
2, 227765, Note_on_c, 0, 71, 0
2, 227775, Note_on_c, 0, 71, 60
2, 227811, Note_on_c, 0, 69, 0
2, 227819, Note_on_c, 0, 69, 70
2, 227896, Note_on_c, 0, 67, 0
2, 227898, Note_on_c, 0, 93, 91
2, 227907, Note_on_c, 0, 67, 74
2, 227973, Note_on_c, 0, 65, 0
2, 227979, Note_on_c, 0, 65, 63
2, 228026, Note_on_c, 0, 64, 0
2, 228034, Note_on_c, 0, 64, 66
2, 228088, Note_on_c, 0, 62, 0
2, 228097, Note_on_c, 0, 62, 73
2, 228125, Note_on_c, 0, 91, 86
2, 228195, Note_on_c, 0, 60, 0
2, 228201, Note_on_c, 0, 60, 65
2, 228264, Note_on_c, 0, 59, 0
2, 228271, Note_on_c, 0, 59, 70
2, 228334, Note_on_c, 0, 57, 0
2, 228344, Note_on_c, 0, 57, 76
2, 228398, Note_on_c, 0, 55, 62
2, 228480, Note_on_c, 0, 76, 0
2, 228488, Control_c, 0, 64, 0
2, 228489, Note_on_c, 0, 64, 0
2, 228489, Note_on_c, 0, 52, 76
2, 228489, Note_on_c, 0, 65, 0
2, 228489, Note_on_c, 0, 62, 0
2, 228490, Note_on_c, 0, 84, 0
2, 228490, Note_on_c, 0, 76, 91
2, 228490, Note_on_c, 0, 88, 81
2, 228490, Note_on_c, 0, 59, 0
2, 228490, Note_on_c, 0, 91, 0
2, 228490, Note_on_c, 0, 71, 0
2, 228490, Note_on_c, 0, 93, 0
2, 228490, Note_on_c, 0, 60, 0
2, 228490, Note_on_c, 0, 72, 0
2, 228490, Note_on_c, 0, 74, 0
2, 228490, Note_on_c, 0, 83, 0
2, 228490, Note_on_c, 0, 67, 0
2, 228490, Note_on_c, 0, 96, 0
2, 228490, Note_on_c, 0, 95, 0
2, 228491, Note_on_c, 0, 55, 0
2, 228491, Note_on_c, 0, 79, 0
2, 228491, Note_on_c, 0, 77, 0
2, 228491, Note_on_c, 0, 81, 0
2, 228503, Note_on_c, 0, 57, 0
2, 228503, Note_on_c, 0, 69, 0
2, 228503, Note_on_c, 0, 86, 0
2, 228526, Note_on_c, 0, 88, 0
2, 228587, Control_c, 0, 64, 127
2, 228637, Note_on_c, 0, 55, 63
2, 228724, Note_on_c, 0, 60, 73
2, 228777, Note_on_c, 0, 77, 85
2, 228811, Note_on_c, 0, 62, 67
2, 228887, Note_on_c, 0, 76, 0
2, 228891, Note_on_c, 0, 64, 75
2, 228897, Note_on_c, 0, 76, 87
2, 228936, Note_on_c, 0, 65, 63
2, 229000, Note_on_c, 0, 67, 73
2, 229091, Note_on_c, 0, 69, 65
2, 229132, Note_on_c, 0, 77, 0
2, 229142, Note_on_c, 0, 77, 88
2, 229168, Note_on_c, 0, 71, 65
2, 229250, Note_on_c, 0, 72, 66
2, 229265, Note_on_c, 0, 79, 88
2, 229334, Note_on_c, 0, 74, 63
2, 229416, Note_on_c, 0, 76, 0
2, 229427, Note_on_c, 0, 76, 61
2, 229455, Note_on_c, 0, 77, 0
2, 229459, Note_on_c, 0, 77, 77
2, 229524, Note_on_c, 0, 79, 0
2, 229529, Note_on_c, 0, 88, 97
2, 229531, Note_on_c, 0, 79, 81
2, 229585, Note_on_c, 0, 77, 0
2, 229597, Note_on_c, 0, 77, 82
2, 229647, Note_on_c, 0, 76, 0
2, 229658, Note_on_c, 0, 76, 62
2, 229678, Note_on_c, 0, 74, 0
2, 229686, Note_on_c, 0, 74, 76
2, 229770, Note_on_c, 0, 72, 0
2, 229774, Note_on_c, 0, 72, 71
2, 229798, Note_on_c, 0, 89, 82
2, 229824, Note_on_c, 0, 71, 0
2, 229833, Note_on_c, 0, 71, 68
2, 229870, Note_on_c, 0, 69, 0
2, 229875, Note_on_c, 0, 69, 68
2, 229923, Note_on_c, 0, 88, 0
2, 229928, Note_on_c, 0, 88, 89
2, 229954, Note_on_c, 0, 67, 0
2, 229962, Note_on_c, 0, 67, 57
2, 230039, Note_on_c, 0, 65, 0
2, 230045, Note_on_c, 0, 65, 63
2, 230085, Note_on_c, 0, 64, 0
2, 230091, Note_on_c, 0, 64, 64
2, 230091, Note_on_c, 0, 83, 61
2, 230138, Note_on_c, 0, 62, 0
2, 230144, Note_on_c, 0, 62, 74
2, 230177, Note_on_c, 0, 89, 0
2, 230183, Note_on_c, 0, 89, 81
2, 230223, Note_on_c, 0, 60, 0
2, 230233, Note_on_c, 0, 60, 73
2, 230295, Note_on_c, 0, 91, 82
2, 230303, Note_on_c, 0, 59, 69
2, 230364, Note_on_c, 0, 57, 72
2, 230438, Note_on_c, 0, 55, 0
2, 230442, Note_on_c, 0, 53, 66
2, 230442, Note_on_c, 0, 55, 62
2, 230542, Note_on_c, 0, 74, 0
2, 230542, Note_on_c, 0, 65, 0
2, 230542, Note_on_c, 0, 88, 0
2, 230542, Note_on_c, 0, 71, 0
2, 230542, Note_on_c, 0, 64, 0
2, 230542, Note_on_c, 0, 52, 0
2, 230542, Note_on_c, 0, 53, 0
2, 230542, Note_on_c, 0, 67, 0
2, 230543, Note_on_c, 0, 62, 0
2, 230543, Note_on_c, 0, 69, 0
2, 230543, Note_on_c, 0, 55, 0
2, 230543, Note_on_c, 0, 89, 0
2, 230543, Note_on_c, 0, 57, 0
2, 230543, Note_on_c, 0, 77, 0
2, 230543, Control_c, 0, 64, 0
2, 230543, Note_on_c, 0, 83, 0
2, 230543, Note_on_c, 0, 91, 0
2, 230544, Note_on_c, 0, 79, 0
2, 230548, Note_on_c, 0, 50, 77
2, 230552, Note_on_c, 0, 84, 93
2, 230553, Note_on_c, 0, 72, 0
2, 230561, Note_on_c, 0, 59, 0
2, 230561, Note_on_c, 0, 60, 0
2, 230561, Note_on_c, 0, 76, 0
2, 230565, Note_on_c, 0, 72, 91
2, 230615, Control_c, 0, 64, 127
2, 230664, Note_on_c, 0, 53, 73
2, 230747, Note_on_c, 0, 57, 73
2, 230796, Note_on_c, 0, 60, 70
2, 230825, Note_on_c, 0, 86, 89
2, 230832, Note_on_c, 0, 74, 73
2, 230879, Note_on_c, 0, 62, 66
2, 230945, Note_on_c, 0, 84, 0
2, 230952, Note_on_c, 0, 72, 0
2, 230954, Note_on_c, 0, 64, 77
2, 230956, Note_on_c, 0, 84, 86
2, 230957, Note_on_c, 0, 72, 76
2, 231001, Note_on_c, 0, 65, 65
2, 231066, Note_on_c, 0, 67, 69
2, 231138, Note_on_c, 0, 69, 67
2, 231212, Note_on_c, 0, 71, 69
2, 231267, Note_on_c, 0, 72, 0
2, 231272, Note_on_c, 0, 72, 81
2, 231344, Note_on_c, 0, 74, 0
2, 231356, Note_on_c, 0, 74, 70
2, 231454, Note_on_c, 0, 76, 63
2, 231495, Note_on_c, 0, 77, 78
2, 231567, Note_on_c, 0, 84, 0
2, 231572, Note_on_c, 0, 79, 88
2, 231573, Note_on_c, 0, 96, 100
2, 231577, Note_on_c, 0, 84, 96
2, 231644, Note_on_c, 0, 77, 0
2, 231648, Note_on_c, 0, 77, 80
2, 231682, Note_on_c, 0, 76, 0
2, 231688, Note_on_c, 0, 76, 70
2, 231705, Note_on_c, 0, 74, 0
2, 231713, Note_on_c, 0, 74, 77
2, 231805, Note_on_c, 0, 72, 0
2, 231809, Note_on_c, 0, 72, 72
2, 231843, Note_on_c, 0, 86, 0
2, 231853, Note_on_c, 0, 98, 91
2, 231853, Note_on_c, 0, 86, 92
2, 231866, Note_on_c, 0, 71, 0
2, 231877, Note_on_c, 0, 71, 60
2, 231920, Note_on_c, 0, 69, 0
2, 231931, Note_on_c, 0, 69, 65
2, 231951, Note_on_c, 0, 67, 0
2, 231956, Note_on_c, 0, 67, 73
2, 231974, Note_on_c, 0, 84, 0
2, 231974, Note_on_c, 0, 96, 0
2, 231984, Note_on_c, 0, 96, 89
2, 231984, Note_on_c, 0, 84, 90
2, 232043, Note_on_c, 0, 65, 0
2, 232052, Note_on_c, 0, 65, 74
2, 232151, Note_on_c, 0, 62, 0
2, 232162, Note_on_c, 0, 62, 65
2, 232204, Note_on_c, 0, 60, 0
2, 232209, Note_on_c, 0, 60, 78
2, 232289, Note_on_c, 0, 60, 0
2, 232294, Note_on_c, 0, 60, 72
2, 232335, Note_on_c, 0, 79, 0
2, 232343, Note_on_c, 0, 67, 0
2, 232345, Note_on_c, 0, 91, 90
2, 232346, Note_on_c, 0, 79, 99
2, 232348, Note_on_c, 0, 67, 80
2, 232353, Note_on_c, 0, 59, 76
2, 232435, Note_on_c, 0, 57, 0
2, 232444, Note_on_c, 0, 57, 70
2, 232504, Note_on_c, 0, 53, 0
2, 232507, Note_on_c, 0, 55, 54
2, 232509, Note_on_c, 0, 53, 50
2, 232593, Note_on_c, 0, 65, 0
2, 232593, Note_on_c, 0, 74, 0
2, 232593, Note_on_c, 0, 53, 0
2, 232593, Note_on_c, 0, 64, 0
2, 232593, Note_on_c, 0, 59, 0
2, 232593, Note_on_c, 0, 67, 0
2, 232593, Note_on_c, 0, 60, 0
2, 232593, Note_on_c, 0, 62, 0
2, 232594, Control_c, 0, 64, 0
2, 232594, Note_on_c, 0, 72, 0
2, 232594, Note_on_c, 0, 77, 0
2, 232594, Note_on_c, 0, 55, 0
2, 232594, Note_on_c, 0, 96, 0
2, 232595, Note_on_c, 0, 98, 0
2, 232595, Note_on_c, 0, 79, 0
2, 232596, Note_on_c, 0, 50, 0
2, 232596, Note_on_c, 0, 76, 0
2, 232598, Note_on_c, 0, 88, 105
2, 232598, Note_on_c, 0, 52, 80
2, 232601, Note_on_c, 0, 76, 93
2, 232611, Note_on_c, 0, 57, 0
2, 232611, Note_on_c, 0, 69, 0
2, 232611, Note_on_c, 0, 71, 0
2, 232611, Note_on_c, 0, 84, 0
2, 232611, Note_on_c, 0, 91, 0
2, 232619, Note_on_c, 0, 86, 0
2, 232657, Control_c, 0, 64, 127
2, 232695, Note_on_c, 0, 55, 61
2, 232787, Note_on_c, 0, 60, 74
2, 232866, Note_on_c, 0, 89, 94
2, 232872, Note_on_c, 0, 62, 71
2, 232875, Note_on_c, 0, 77, 84
2, 232951, Note_on_c, 0, 64, 72
2, 232988, Note_on_c, 0, 88, 0
2, 232995, Note_on_c, 0, 88, 99
2, 232995, Note_on_c, 0, 76, 0
2, 233000, Note_on_c, 0, 76, 77
2, 233000, Note_on_c, 0, 65, 69
2, 233061, Note_on_c, 0, 67, 70
2, 233138, Note_on_c, 0, 69, 68
2, 233215, Note_on_c, 0, 71, 68
2, 233267, Note_on_c, 0, 72, 77
2, 233383, Note_on_c, 0, 91, 97
2, 233384, Note_on_c, 0, 79, 88
2, 233385, Note_on_c, 0, 74, 71
2, 233472, Note_on_c, 0, 76, 0
2, 233480, Note_on_c, 0, 76, 59
2, 233510, Note_on_c, 0, 77, 0
2, 233520, Note_on_c, 0, 77, 84
2, 233602, Note_on_c, 0, 79, 0
2, 233613, Note_on_c, 0, 79, 80
2, 233640, Note_on_c, 0, 88, 0
2, 233646, Note_on_c, 0, 100, 106
2, 233646, Note_on_c, 0, 88, 107
2, 233653, Note_on_c, 0, 101, 91
2, 233656, Note_on_c, 0, 89, 0
2, 233661, Note_on_c, 0, 89, 83
2, 233664, Note_on_c, 0, 77, 0
2, 233668, Note_on_c, 0, 77, 79
2, 233710, Note_on_c, 0, 76, 0
2, 233718, Note_on_c, 0, 76, 67
2, 233740, Note_on_c, 0, 74, 0
2, 233749, Note_on_c, 0, 74, 82
2, 233832, Note_on_c, 0, 72, 0
2, 233837, Note_on_c, 0, 72, 77
2, 233902, Note_on_c, 0, 71, 0
2, 233902, Note_on_c, 0, 89, 0
2, 233902, Note_on_c, 0, 101, 0
2, 233909, Note_on_c, 0, 71, 69
2, 233912, Note_on_c, 0, 101, 98
2, 233912, Note_on_c, 0, 89, 93
2, 233955, Note_on_c, 0, 69, 0
2, 233961, Note_on_c, 0, 69, 63
2, 233986, Note_on_c, 0, 67, 0
2, 233998, Note_on_c, 0, 67, 75
2, 234024, Note_on_c, 0, 88, 0
2, 234024, Note_on_c, 0, 100, 0
2, 234031, Note_on_c, 0, 100, 102
2, 234034, Note_on_c, 0, 88, 103
2, 234071, Note_on_c, 0, 65, 0
2, 234080, Note_on_c, 0, 65, 78
2, 234147, Note_on_c, 0, 64, 0
2, 234152, Note_on_c, 0, 64, 80
2, 234201, Note_on_c, 0, 62, 0
2, 234208, Note_on_c, 0, 62, 64
2, 234232, Note_on_c, 0, 60, 0
2, 234236, Note_on_c, 0, 60, 78
2, 234332, Note_on_c, 0, 60, 0
2, 234337, Note_on_c, 0, 60, 74
2, 234370, Note_on_c, 0, 72, 0
2, 234379, Note_on_c, 0, 84, 94
2, 234381, Note_on_c, 0, 72, 88
2, 234414, Note_on_c, 0, 59, 73
2, 234473, Note_on_c, 0, 57, 73
2, 234485, Note_on_c, 0, 55, 0
2, 234497, Note_on_c, 0, 55, 70
2, 234508, Note_on_c, 0, 74, 0
2, 234511, Note_on_c, 0, 86, 99
2, 234519, Note_on_c, 0, 74, 85
2, 234597, Control_c, 0, 64, 0
2, 234597, Note_on_c, 0, 59, 0
2, 234597, Note_on_c, 0, 100, 0
2, 234597, Note_on_c, 0, 71, 0
2, 234598, Note_on_c, 0, 62, 0
2, 234598, Note_on_c, 0, 65, 0
2, 234598, Note_on_c, 0, 55, 0
2, 234598, Note_on_c, 0, 64, 0
2, 234598, Note_on_c, 0, 60, 0
2, 234598, Note_on_c, 0, 79, 0
2, 234598, Note_on_c, 0, 57, 0
2, 234599, Note_on_c, 0, 67, 0
2, 234599, Note_on_c, 0, 89, 0
2, 234599, Note_on_c, 0, 86, 0
2, 234599, Note_on_c, 0, 72, 0
2, 234599, Note_on_c, 0, 91, 0
2, 234600, Note_on_c, 0, 101, 0
2, 234601, Note_on_c, 0, 84, 0
2, 234608, Note_on_c, 0, 52, 0
2, 234608, Note_on_c, 0, 69, 0
2, 234608, Note_on_c, 0, 74, 0
2, 234608, Note_on_c, 0, 76, 0
2, 234608, Note_on_c, 0, 77, 0
2, 234631, Note_on_c, 0, 88, 0
2, 234640, Note_on_c, 0, 53, 73
2, 234643, Note_on_c, 0, 88, 111
2, 234645, Note_on_c, 0, 76, 97
2, 234662, Control_c, 0, 64, 127
2, 234717, Note_on_c, 0, 60, 75
2, 234803, Note_on_c, 0, 62, 64
2, 234864, Note_on_c, 0, 64, 77
2, 234911, Note_on_c, 0, 65, 77
2, 234912, Note_on_c, 0, 96, 98
2, 234912, Note_on_c, 0, 84, 93
2, 234972, Note_on_c, 0, 67, 75
2, 235043, Note_on_c, 0, 98, 92
2, 235045, Note_on_c, 0, 86, 94
2, 235065, Note_on_c, 0, 71, 75
2, 235066, Note_on_c, 0, 69, 59
2, 235153, Note_on_c, 0, 88, 0
2, 235154, Note_on_c, 0, 72, 89
2, 235159, Note_on_c, 0, 100, 103
2, 235162, Note_on_c, 0, 88, 108
2, 235223, Note_on_c, 0, 69, 0
2, 235230, Note_on_c, 0, 69, 80
2, 235322, Note_on_c, 0, 67, 0
2, 235332, Note_on_c, 0, 67, 72
2, 235384, Note_on_c, 0, 64, 0
2, 235384, Note_on_c, 0, 65, 0
2, 235388, Note_on_c, 0, 64, 65
2, 235388, Note_on_c, 0, 65, 62
2, 235399, Note_on_c, 0, 86, 0
2, 235411, Note_on_c, 0, 86, 99
2, 235422, Note_on_c, 0, 74, 79
2, 235430, Note_on_c, 0, 62, 0
2, 235436, Note_on_c, 0, 62, 70
2, 235530, Note_on_c, 0, 60, 0
2, 235537, Note_on_c, 0, 88, 0
2, 235540, Note_on_c, 0, 60, 79
2, 235543, Note_on_c, 0, 88, 107
2, 235545, Note_on_c, 0, 76, 0
2, 235550, Note_on_c, 0, 76, 86
2, 235638, Control_c, 0, 64, 0
2, 235640, Note_on_c, 0, 86, 0
2, 235640, Note_on_c, 0, 62, 0
2, 235640, Note_on_c, 0, 60, 0
2, 235640, Note_on_c, 0, 74, 0
2, 235640, Note_on_c, 0, 65, 0
2, 235640, Note_on_c, 0, 67, 0
2, 235640, Note_on_c, 0, 64, 0
2, 235640, Note_on_c, 0, 71, 0
2, 235640, Note_on_c, 0, 69, 0
2, 235640, Note_on_c, 0, 88, 0
2, 235641, Note_on_c, 0, 72, 0
2, 235641, Note_on_c, 0, 84, 0
2, 235641, Note_on_c, 0, 98, 0
2, 235641, Note_on_c, 0, 76, 0
2, 235641, Note_on_c, 0, 96, 0
2, 235642, Note_on_c, 0, 100, 0
2, 235660, Note_on_c, 0, 53, 0
2, 235672, Note_on_c, 0, 53, 83
2, 235680, Note_on_c, 0, 89, 103
2, 235683, Control_c, 0, 64, 127
2, 235685, Note_on_c, 0, 77, 98
2, 235742, Note_on_c, 0, 60, 77
2, 235824, Note_on_c, 0, 62, 75
2, 235879, Note_on_c, 0, 64, 80
2, 235931, Note_on_c, 0, 65, 75
2, 235955, Note_on_c, 0, 86, 101
2, 235955, Note_on_c, 0, 98, 94
2, 235991, Note_on_c, 0, 67, 90
2, 236071, Note_on_c, 0, 69, 74
2, 236083, Note_on_c, 0, 100, 104
2, 236083, Note_on_c, 0, 88, 106
2, 236125, Note_on_c, 0, 71, 72
2, 236180, Note_on_c, 0, 72, 78
2, 236206, Note_on_c, 0, 89, 0
2, 236209, Note_on_c, 0, 101, 107
2, 236211, Note_on_c, 0, 89, 106
2, 236275, Note_on_c, 0, 69, 0
2, 236284, Note_on_c, 0, 69, 68
2, 236344, Note_on_c, 0, 65, 0
2, 236349, Note_on_c, 0, 65, 86
2, 236413, Note_on_c, 0, 64, 0
2, 236424, Note_on_c, 0, 64, 69
2, 236451, Note_on_c, 0, 88, 0
2, 236455, Note_on_c, 0, 88, 108
2, 236457, Note_on_c, 0, 76, 93
2, 236474, Note_on_c, 0, 62, 0
2, 236479, Note_on_c, 0, 62, 59
2, 236482, Note_on_c, 0, 60, 0
2, 236488, Note_on_c, 0, 60, 79
2, 236559, Note_on_c, 0, 60, 0
2, 236564, Note_on_c, 0, 60, 80
2, 236590, Note_on_c, 0, 89, 0
2, 236597, Note_on_c, 0, 77, 0
2, 236598, Note_on_c, 0, 89, 98
2, 236601, Note_on_c, 0, 77, 96
2, 236754, Note_on_c, 0, 101, 0
2, 236754, Note_on_c, 0, 98, 0
2, 236754, Note_on_c, 0, 100, 0
2, 236755, Note_on_c, 0, 86, 0
2, 236755, Note_on_c, 0, 89, 0
2, 236755, Note_on_c, 0, 88, 0
2, 236756, Note_on_c, 0, 71, 0
2, 236756, Note_on_c, 0, 67, 0
2, 236756, Note_on_c, 0, 60, 0
2, 236756, Note_on_c, 0, 72, 0
2, 236756, Note_on_c, 0, 62, 0
2, 236756, Note_on_c, 0, 53, 0
2, 236756, Note_on_c, 0, 65, 0
2, 236756, Note_on_c, 0, 76, 0
2, 236756, Note_on_c, 0, 77, 0
2, 236758, Control_c, 0, 64, 0
2, 236774, Note_on_c, 0, 64, 0
2, 236774, Note_on_c, 0, 69, 0
2, 236778, Note_on_c, 0, 91, 110
2, 236779, Note_on_c, 0, 55, 99
2, 236780, Note_on_c, 0, 79, 105
2, 236820, Control_c, 0, 64, 127
2, 237250, Note_on_c, 0, 55, 0
2, 237257, Note_on_c, 0, 55, 79
2, 237258, Note_on_c, 0, 79, 0
2, 237259, Note_on_c, 0, 48, 72
2, 237262, Note_on_c, 0, 52, 70
2, 237341, Note_on_c, 0, 47, 64
2, 237351, Note_on_c, 0, 43, 62
2, 237381, Note_on_c, 0, 55, 0
2, 237385, Note_on_c, 0, 40, 68
2, 237388, Note_on_c, 0, 52, 0
2, 237392, Note_on_c, 0, 55, 84
2, 237400, Note_on_c, 0, 52, 72
2, 237401, Note_on_c, 0, 50, 75
2, 237404, Note_on_c, 0, 91, 0
2, 237457, Note_on_c, 0, 40, 0
2, 237457, Note_on_c, 0, 43, 0
2, 237457, Note_on_c, 0, 48, 0
2, 237462, Note_on_c, 0, 60, 65
2, 237463, Note_on_c, 0, 40, 73
2, 237467, Note_on_c, 0, 48, 72
2, 237468, Note_on_c, 0, 43, 68
2, 237527, Note_on_c, 0, 55, 0
2, 237527, Note_on_c, 0, 60, 0
2, 237531, Note_on_c, 0, 55, 88
2, 237533, Note_on_c, 0, 60, 85
2, 237596, Note_on_c, 0, 43, 0
2, 237596, Note_on_c, 0, 50, 0
2, 237602, Note_on_c, 0, 50, 80
2, 237604, Note_on_c, 0, 43, 62
2, 237649, Note_on_c, 0, 55, 0
2, 237660, Note_on_c, 0, 55, 83
2, 237672, Note_on_c, 0, 60, 0
2, 237677, Note_on_c, 0, 60, 78
2, 237697, Note_on_c, 0, 53, 69
2, 237703, Note_on_c, 0, 48, 0
2, 237704, Note_on_c, 0, 41, 65
2, 237711, Note_on_c, 0, 40, 0
2, 237711, Note_on_c, 0, 52, 0
2, 237714, Note_on_c, 0, 48, 75
2, 237715, Note_on_c, 0, 40, 67
2, 237717, Note_on_c, 0, 52, 71
2, 237780, Note_on_c, 0, 43, 0
2, 237780, Note_on_c, 0, 55, 0
2, 237784, Note_on_c, 0, 64, 85
2, 237784, Note_on_c, 0, 55, 80
2, 237788, Note_on_c, 0, 48, 0
2, 237788, Note_on_c, 0, 43, 70
2, 237793, Note_on_c, 0, 48, 68
2, 237849, Note_on_c, 0, 50, 0
2, 237849, Note_on_c, 0, 53, 0
2, 237853, Note_on_c, 0, 53, 76
2, 237855, Note_on_c, 0, 50, 69
2, 237864, Note_on_c, 0, 48, 0
2, 237876, Note_on_c, 0, 48, 74
2, 237895, Note_on_c, 0, 64, 0
2, 237903, Note_on_c, 0, 64, 96
2, 237903, Note_on_c, 0, 52, 0
2, 237903, Note_on_c, 0, 60, 0
2, 237911, Note_on_c, 0, 60, 76
2, 237913, Note_on_c, 0, 52, 73
2, 237913, Note_on_c, 0, 57, 80
2, 237964, Note_on_c, 0, 52, 0
2, 237964, Note_on_c, 0, 55, 0
2, 237969, Note_on_c, 0, 55, 90
2, 237971, Note_on_c, 0, 52, 78
2, 238026, Note_on_c, 0, 48, 0
2, 238026, Note_on_c, 0, 60, 0
2, 238026, Note_on_c, 0, 64, 0
2, 238032, Note_on_c, 0, 48, 81
2, 238036, Note_on_c, 0, 67, 94
2, 238037, Note_on_c, 0, 64, 90
2, 238037, Note_on_c, 0, 60, 91
2, 238087, Note_on_c, 0, 52, 0
2, 238087, Note_on_c, 0, 55, 0
2, 238092, Note_on_c, 0, 55, 80
2, 238097, Note_on_c, 0, 52, 73
2, 238156, Note_on_c, 0, 67, 0
2, 238165, Note_on_c, 0, 67, 88
2, 238172, Note_on_c, 0, 48, 0
2, 238177, Note_on_c, 0, 48, 71
2, 238179, Note_on_c, 0, 55, 0
2, 238179, Note_on_c, 0, 60, 0
2, 238179, Note_on_c, 0, 64, 0
2, 238183, Note_on_c, 0, 55, 85
2, 238184, Note_on_c, 0, 62, 75
2, 238190, Note_on_c, 0, 60, 82
2, 238190, Note_on_c, 0, 64, 81
2, 238209, Control_c, 0, 64, 0
2, 238237, Note_on_c, 0, 50, 0
2, 238256, Note_on_c, 0, 47, 0
2, 238256, Note_on_c, 0, 57, 0
2, 238256, Control_c, 0, 64, 127
2, 238272, Note_on_c, 0, 41, 0
2, 238272, Note_on_c, 0, 53, 0
2, 238287, Note_on_c, 0, 43, 0
2, 238287, Note_on_c, 0, 64, 0
2, 238293, Note_on_c, 0, 64, 78
2, 238295, Note_on_c, 0, 55, 0
2, 238295, Note_on_c, 0, 60, 0
2, 238299, Note_on_c, 0, 55, 69
2, 238302, Note_on_c, 0, 60, 76
2, 238341, Note_on_c, 0, 52, 0
2, 238346, Note_on_c, 0, 53, 72
2, 238349, Note_on_c, 0, 52, 65
2, 238410, Note_on_c, 0, 64, 0
2, 238417, Note_on_c, 0, 48, 0
2, 238417, Note_on_c, 0, 60, 0
2, 238418, Note_on_c, 0, 64, 78
2, 238423, Note_on_c, 0, 48, 74
2, 238426, Note_on_c, 0, 60, 76
2, 238448, Note_on_c, 0, 53, 0
2, 238448, Note_on_c, 0, 55, 0
2, 238452, Note_on_c, 0, 55, 76
2, 238454, Note_on_c, 0, 53, 80
2, 238533, Note_on_c, 0, 60, 0
2, 238540, Note_on_c, 0, 55, 0
2, 238540, Note_on_c, 0, 64, 0
2, 238540, Note_on_c, 0, 67, 0
2, 238544, Note_on_c, 0, 60, 81
2, 238544, Note_on_c, 0, 67, 94
2, 238546, Note_on_c, 0, 64, 81
2, 238551, Note_on_c, 0, 55, 78
2, 238586, Note_on_c, 0, 40, 0
2, 238586, Note_on_c, 0, 52, 0
2, 238591, Note_on_c, 0, 59, 82
2, 238591, Note_on_c, 0, 52, 74
2, 238596, Note_on_c, 0, 40, 71
2, 238656, Note_on_c, 0, 67, 0
2, 238663, Note_on_c, 0, 67, 89
2, 238663, Note_on_c, 0, 64, 0
2, 238667, Note_on_c, 0, 64, 74
2, 238671, Note_on_c, 0, 62, 0
2, 238678, Note_on_c, 0, 62, 78
2, 238694, Note_on_c, 0, 55, 0
2, 238694, Note_on_c, 0, 60, 0
2, 238702, Note_on_c, 0, 52, 0
2, 238705, Note_on_c, 0, 55, 75
2, 238705, Note_on_c, 0, 60, 80
2, 238706, Note_on_c, 0, 52, 74
2, 238786, Note_on_c, 0, 64, 0
2, 238786, Note_on_c, 0, 67, 0
2, 238791, Note_on_c, 0, 64, 92
2, 238791, Note_on_c, 0, 72, 98
2, 238796, Note_on_c, 0, 67, 90
2, 238824, Note_on_c, 0, 52, 0
2, 238824, Note_on_c, 0, 55, 0
2, 238824, Note_on_c, 0, 60, 0
2, 238829, Note_on_c, 0, 60, 86
2, 238832, Note_on_c, 0, 62, 0
2, 238835, Note_on_c, 0, 52, 64
2, 238836, Note_on_c, 0, 55, 78
2, 238838, Note_on_c, 0, 62, 73
2, 238917, Note_on_c, 0, 67, 0
2, 238924, Note_on_c, 0, 67, 95
2, 238924, Note_on_c, 0, 64, 0
2, 238925, Note_on_c, 0, 65, 87
2, 238929, Note_on_c, 0, 64, 91
2, 238932, Note_on_c, 0, 55, 0
2, 238932, Note_on_c, 0, 60, 0
2, 238936, Note_on_c, 0, 55, 88
2, 238938, Note_on_c, 0, 60, 89
2, 239032, Note_on_c, 0, 67, 0
2, 239032, Note_on_c, 0, 72, 0
2, 239041, Note_on_c, 0, 76, 103
2, 239043, Note_on_c, 0, 72, 94
2, 239043, Note_on_c, 0, 67, 90
2, 239077, Note_on_c, 0, 74, 72
2, 239078, Note_on_c, 0, 55, 0
2, 239078, Note_on_c, 0, 62, 0
2, 239086, Note_on_c, 0, 62, 82
2, 239089, Note_on_c, 0, 55, 67
2, 239119, Note_on_c, 0, 79, 70
2, 239162, Note_on_c, 0, 76, 0
2, 239169, Note_on_c, 0, 88, 98
2, 239169, Note_on_c, 0, 76, 104
2, 239193, Note_on_c, 0, 55, 0
2, 239193, Note_on_c, 0, 60, 0
2, 239193, Note_on_c, 0, 62, 0
2, 239193, Note_on_c, 0, 64, 0
2, 239193, Note_on_c, 0, 67, 0
2, 239193, Note_on_c, 0, 72, 0
2, 239197, Note_on_c, 0, 67, 91
2, 239197, Note_on_c, 0, 72, 83
2, 239202, Note_on_c, 0, 64, 85
2, 239203, Note_on_c, 0, 62, 72
2, 239203, Note_on_c, 0, 60, 84
2, 239204, Note_on_c, 0, 55, 72
2, 239293, Note_on_c, 0, 55, 0
2, 239293, Note_on_c, 0, 60, 0
2, 239293, Note_on_c, 0, 64, 0
2, 239293, Note_on_c, 0, 67, 0
2, 239299, Note_on_c, 0, 64, 87
2, 239300, Note_on_c, 0, 55, 76
2, 239303, Note_on_c, 0, 67, 92
2, 239304, Note_on_c, 0, 60, 72
2, 239354, Note_on_c, 0, 55, 0
2, 239354, Note_on_c, 0, 60, 0
2, 239354, Note_on_c, 0, 62, 0
2, 239360, Note_on_c, 0, 60, 79
2, 239361, Note_on_c, 0, 62, 77
2, 239361, Note_on_c, 0, 55, 71
2, 239416, Note_on_c, 0, 65, 0
2, 239416, Note_on_c, 0, 67, 0
2, 239416, Note_on_c, 0, 72, 0
2, 239423, Note_on_c, 0, 72, 99
2, 239426, Note_on_c, 0, 67, 92
2, 239427, Note_on_c, 0, 65, 83
2, 239454, Note_on_c, 0, 55, 0
2, 239462, Note_on_c, 0, 55, 83
2, 239462, Note_on_c, 0, 60, 0
2, 239466, Note_on_c, 0, 60, 75
2, 239470, Note_on_c, 0, 62, 0
2, 239480, Note_on_c, 0, 62, 70
2, 239539, Note_on_c, 0, 67, 0
2, 239539, Note_on_c, 0, 72, 0
2, 239539, Note_on_c, 0, 76, 0
2, 239549, Note_on_c, 0, 67, 101
2, 239549, Note_on_c, 0, 76, 107
2, 239550, Note_on_c, 0, 72, 95
2, 239585, Note_on_c, 0, 64, 0
2, 239592, Note_on_c, 0, 60, 0
2, 239595, Note_on_c, 0, 64, 84
2, 239599, Note_on_c, 0, 60, 80
2, 239600, Note_on_c, 0, 62, 0
2, 239605, Note_on_c, 0, 62, 65
2, 239669, Note_on_c, 0, 76, 0
2, 239674, Note_on_c, 0, 76, 97
2, 239674, Note_on_c, 0, 69, 85
2, 239683, Note_on_c, 0, 57, 82
2, 239692, Note_on_c, 0, 65, 0
2, 239700, Note_on_c, 0, 60, 0
2, 239700, Note_on_c, 0, 67, 0
2, 239701, Note_on_c, 0, 65, 94
2, 239707, Note_on_c, 0, 60, 89
2, 239708, Note_on_c, 0, 62, 0
2, 239709, Note_on_c, 0, 67, 86
2, 239718, Note_on_c, 0, 62, 67
2, 239792, Note_on_c, 0, 76, 0
2, 239792, Note_on_c, 0, 79, 0
2, 239800, Note_on_c, 0, 72, 0
2, 239802, Note_on_c, 0, 79, 105
2, 239803, Note_on_c, 0, 76, 100
2, 239804, Note_on_c, 0, 72, 89
2, 239831, Note_on_c, 0, 64, 0
2, 239835, Note_on_c, 0, 64, 59
2, 239838, Note_on_c, 0, 55, 0
2, 239838, Note_on_c, 0, 67, 0
2, 239846, Note_on_c, 0, 59, 0
2, 239849, Note_on_c, 0, 71, 82
2, 239849, Note_on_c, 0, 55, 75
2, 239850, Note_on_c, 0, 67, 82
2, 239852, Note_on_c, 0, 59, 68
2, 239923, Note_on_c, 0, 74, 0
2, 239923, Note_on_c, 0, 79, 0
2, 239927, Note_on_c, 0, 91, 102
2, 239927, Note_on_c, 0, 79, 104
2, 239933, Note_on_c, 0, 74, 85
2, 239946, Note_on_c, 0, 64, 0
2, 239953, Note_on_c, 0, 72, 0
2, 239956, Note_on_c, 0, 64, 93
2, 239956, Note_on_c, 0, 83, 80
2, 239961, Note_on_c, 0, 67, 0
2, 239961, Note_on_c, 0, 83, 0
2, 239964, Note_on_c, 0, 72, 84
2, 239965, Note_on_c, 0, 67, 82
2, 239972, Note_on_c, 0, 84, 72
2, 240000, Note_on_c, 0, 91, 0
2, 240046, Note_on_c, 0, 72, 0
2, 240046, Note_on_c, 0, 76, 0
2, 240046, Note_on_c, 0, 79, 0
2, 240046, Note_on_c, 0, 84, 0
2, 240050, Note_on_c, 0, 84, 108
2, 240051, Note_on_c, 0, 76, 101
2, 240055, Note_on_c, 0, 79, 105
2, 240057, Note_on_c, 0, 72, 93
2, 240092, Note_on_c, 0, 67, 0
2, 240099, Note_on_c, 0, 67, 97
2, 240168, Note_on_c, 0, 84, 0
2, 240174, Note_on_c, 0, 84, 97
2, 240176, Note_on_c, 0, 79, 0
2, 240186, Note_on_c, 0, 77, 103
2, 240187, Note_on_c, 0, 79, 99
2, 240207, Note_on_c, 0, 67, 0
2, 240207, Note_on_c, 0, 76, 0
2, 240215, Note_on_c, 0, 76, 81
2, 240217, Note_on_c, 0, 67, 93
2, 240307, Note_on_c, 0, 72, 0
2, 240307, Note_on_c, 0, 76, 0
2, 240307, Note_on_c, 0, 79, 0
2, 240311, Note_on_c, 0, 79, 104
2, 240314, Note_on_c, 0, 76, 106
2, 240314, Note_on_c, 0, 72, 96
2, 240345, Note_on_c, 0, 64, 0
2, 240349, Note_on_c, 0, 64, 88
2, 240360, Note_on_c, 0, 71, 0
2, 240365, Note_on_c, 0, 71, 87
2, 240430, Note_on_c, 0, 76, 0
2, 240430, Note_on_c, 0, 79, 0
2, 240435, Note_on_c, 0, 79, 102
2, 240439, Note_on_c, 0, 76, 100
2, 240460, Note_on_c, 0, 74, 0
2, 240468, Note_on_c, 0, 74, 72
2, 240468, Note_on_c, 0, 64, 0
2, 240468, Note_on_c, 0, 67, 0
2, 240468, Note_on_c, 0, 72, 0
2, 240472, Note_on_c, 0, 64, 66
2, 240473, Note_on_c, 0, 67, 86
2, 240475, Note_on_c, 0, 72, 77
2, 240478, Note_on_c, 0, 83, 78
2, 240560, Note_on_c, 0, 76, 0
2, 240560, Note_on_c, 0, 84, 0
2, 240564, Note_on_c, 0, 84, 107
2, 240567, Note_on_c, 0, 76, 108
2, 240568, Note_on_c, 0, 79, 0
2, 240574, Note_on_c, 0, 79, 106
2, 240614, Note_on_c, 0, 65, 0
2, 240614, Note_on_c, 0, 74, 0
2, 240619, Note_on_c, 0, 74, 69
2, 240621, Note_on_c, 0, 65, 83
2, 240691, Note_on_c, 0, 77, 0
2, 240691, Note_on_c, 0, 84, 0
2, 240695, Note_on_c, 0, 84, 102
2, 240698, Note_on_c, 0, 79, 0
2, 240700, Note_on_c, 0, 77, 98
2, 240708, Note_on_c, 0, 79, 94
2, 240721, Note_on_c, 0, 82, 64
2, 240768, Note_on_c, 0, 76, 0
2, 240771, Note_on_c, 0, 73, 95
2, 240773, Note_on_c, 0, 76, 82
2, 240821, Note_on_c, 0, 88, 0
2, 240825, Note_on_c, 0, 88, 114
2, 240829, Note_on_c, 0, 79, 0
2, 240829, Note_on_c, 0, 84, 0
2, 240833, Note_on_c, 0, 84, 93
2, 240836, Note_on_c, 0, 81, 94
2, 240840, Note_on_c, 0, 79, 95
2, 240906, Note_on_c, 0, 72, 0
2, 240906, Note_on_c, 0, 76, 0
2, 240906, Note_on_c, 0, 79, 0
2, 240912, Note_on_c, 0, 79, 100
2, 240913, Note_on_c, 0, 72, 102
2, 240915, Note_on_c, 0, 76, 103
2, 240944, Note_on_c, 0, 84, 0
2, 240944, Note_on_c, 0, 88, 0
2, 240950, Note_on_c, 0, 88, 108
2, 240956, Note_on_c, 0, 84, 88
2, 240960, Note_on_c, 0, 57, 0
2, 240960, Note_on_c, 0, 81, 0
2, 240963, Note_on_c, 0, 81, 83
2, 241067, Note_on_c, 0, 79, 0
2, 241073, Note_on_c, 0, 79, 99
2, 241074, Note_on_c, 0, 91, 94
2, 241136, Note_on_c, 0, 53, 0
2, 241144, Note_on_c, 0, 91, 0
2, 241148, Note_on_c, 0, 91, 89
2, 241150, Note_on_c, 0, 93, 95
2, 241190, Note_on_c, 0, 67, 0
2, 241201, Note_on_c, 0, 67, 97
2, 241244, Note_on_c, 0, 79, 0
2, 241252, Note_on_c, 0, 79, 105
2, 241320, Note_on_c, 0, 79, 0
2, 241320, Note_on_c, 0, 91, 0
2, 241331, Note_on_c, 0, 79, 102
2, 241332, Note_on_c, 0, 91, 97
2, 241367, Note_on_c, 0, 91, 0
2, 241378, Note_on_c, 0, 91, 93
2, 241451, Note_on_c, 0, 67, 0
2, 241462, Note_on_c, 0, 67, 91
2, 241497, Note_on_c, 0, 79, 0
2, 241497, Note_on_c, 0, 91, 0
2, 241505, Note_on_c, 0, 91, 89
2, 241506, Note_on_c, 0, 79, 100
2, 241582, Note_on_c, 0, 67, 0
2, 241589, Note_on_c, 0, 40, 0
2, 241591, Note_on_c, 0, 67, 96
2, 241612, Note_on_c, 0, 52, 0
2, 241635, Note_on_c, 0, 91, 0
2, 241645, Note_on_c, 0, 91, 105
2, 241712, Note_on_c, 0, 55, 0
2, 241721, Note_on_c, 0, 55, 89
2, 241766, Note_on_c, 0, 79, 0
2, 241766, Note_on_c, 0, 91, 0
2, 241775, Note_on_c, 0, 91, 87
2, 241776, Note_on_c, 0, 79, 99
2, 241843, Note_on_c, 0, 67, 0
2, 241851, Note_on_c, 0, 67, 96
2, 241912, Note_on_c, 0, 74, 0
2, 241912, Note_on_c, 0, 91, 0
2, 241918, Note_on_c, 0, 91, 105
2, 241920, Note_on_c, 0, 73, 0
2, 241981, Note_on_c, 0, 55, 0
2, 241989, Note_on_c, 0, 55, 87
2, 242035, Note_on_c, 0, 79, 0
2, 242035, Note_on_c, 0, 91, 0
2, 242043, Note_on_c, 0, 91, 90
2, 242043, Note_on_c, 0, 79, 104
2, 242127, Note_on_c, 0, 55, 0
2, 242127, Note_on_c, 0, 67, 0
2, 242132, Note_on_c, 0, 67, 92
2, 242135, Note_on_c, 0, 55, 93
2, 242181, Note_on_c, 0, 79, 0
2, 242181, Note_on_c, 0, 91, 0
2, 242187, Note_on_c, 0, 91, 95
2, 242189, Note_on_c, 0, 79, 91
2, 242265, Note_on_c, 0, 55, 0
2, 242273, Note_on_c, 0, 55, 97
2, 242274, Note_on_c, 0, 43, 93
2, 242319, Note_on_c, 0, 67, 0
2, 242319, Note_on_c, 0, 79, 0
2, 242319, Note_on_c, 0, 91, 0
2, 242326, Note_on_c, 0, 67, 95
2, 242327, Note_on_c, 0, 91, 89
2, 242327, Note_on_c, 0, 79, 102
2, 242411, Note_on_c, 0, 55, 0
2, 242411, Note_on_c, 0, 67, 0
2, 242417, Note_on_c, 0, 67, 93
2, 242419, Note_on_c, 0, 55, 95
2, 242465, Note_on_c, 0, 79, 0
2, 242465, Note_on_c, 0, 91, 0
2, 242471, Note_on_c, 0, 91, 102
2, 242474, Note_on_c, 0, 79, 101
2, 242557, Note_on_c, 0, 69, 0
2, 242565, Note_on_c, 0, 69, 85
2, 242567, Note_on_c, 0, 81, 0
2, 242567, Note_on_c, 0, 57, 88
2, 242567, Note_on_c, 0, 45, 86
2, 242618, Note_on_c, 0, 67, 0
2, 242618, Note_on_c, 0, 79, 0
2, 242623, Note_on_c, 0, 79, 101
2, 242624, Note_on_c, 0, 67, 90
2, 242726, Note_on_c, 0, 55, 0
2, 242726, Note_on_c, 0, 67, 0
2, 242735, Note_on_c, 0, 55, 87
2, 242736, Note_on_c, 0, 67, 91
2, 242741, Note_on_c, 0, 43, 0
2, 242746, Note_on_c, 0, 43, 67
2, 242772, Note_on_c, 0, 79, 0
2, 242772, Note_on_c, 0, 91, 0
2, 242779, Note_on_c, 0, 91, 103
2, 242782, Note_on_c, 0, 79, 102
2, 242887, Note_on_c, 0, 43, 0
2, 242887, Note_on_c, 0, 55, 0
2, 242895, Note_on_c, 0, 55, 90
2, 242898, Note_on_c, 0, 43, 85
2, 242964, Note_on_c, 0, 67, 0
2, 242964, Note_on_c, 0, 79, 0
2, 242964, Note_on_c, 0, 91, 0
2, 242969, Note_on_c, 0, 91, 93
2, 242969, Note_on_c, 0, 67, 96
2, 242969, Note_on_c, 0, 79, 103
2, 243033, Note_on_c, 0, 48, 0
2, 243087, Note_on_c, 0, 55, 0
2, 243091, Note_on_c, 0, 55, 101
2, 243102, Note_on_c, 0, 43, 0
2, 243106, Note_on_c, 0, 43, 76
2, 243148, Note_on_c, 0, 79, 0
2, 243148, Note_on_c, 0, 91, 0
2, 243159, Note_on_c, 0, 91, 104
2, 243160, Note_on_c, 0, 79, 103
2, 243287, Note_on_c, 0, 55, 0
2, 243294, Note_on_c, 0, 43, 0
2, 243295, Note_on_c, 0, 55, 101
2, 243298, Note_on_c, 0, 43, 89
2, 243371, Note_on_c, 0, 67, 0
2, 243371, Note_on_c, 0, 79, 0
2, 243371, Note_on_c, 0, 91, 0
2, 243377, Note_on_c, 0, 91, 100
2, 243377, Note_on_c, 0, 67, 96
2, 243377, Note_on_c, 0, 79, 109
2, 243678, Note_on_c, 0, 67, 0
2, 243678, Note_on_c, 0, 79, 0
2, 243678, Note_on_c, 0, 91, 0
2, 243682, Note_on_c, 0, 91, 112
2, 243685, Note_on_c, 0, 79, 110
2, 243686, Note_on_c, 0, 55, 0
2, 243686, Note_on_c, 0, 59, 0
2, 243686, Note_on_c, 0, 62, 0
2, 243686, Note_on_c, 0, 83, 0
2, 243688, Note_on_c, 0, 67, 106
2, 243689, Note_on_c, 0, 86, 103
2, 243691, Note_on_c, 0, 83, 98
2, 243691, Note_on_c, 0, 55, 96
2, 243693, Note_on_c, 0, 62, 90
2, 243697, Note_on_c, 0, 59, 94
2, 243840, Note_on_c, 0, 60, 0
2, 243840, Note_on_c, 0, 64, 0
2, 243840, Note_on_c, 0, 65, 0
2, 243840, Note_on_c, 0, 71, 0
2, 243840, Note_on_c, 0, 72, 0
2, 243840, Note_on_c, 0, 76, 0
2, 243840, Note_on_c, 0, 77, 0
2, 243840, Note_on_c, 0, 82, 0
2, 243840, Note_on_c, 0, 84, 0
2, 243840, Note_on_c, 0, 88, 0
2, 243840, Note_on_c, 0, 93, 0
2, 245457, Note_on_c, 0, 72, 105
2, 245462, Note_on_c, 0, 60, 99
2, 245875, Note_on_c, 0, 62, 0
2, 245875, Note_on_c, 0, 67, 0
2, 245880, Note_on_c, 0, 74, 105
2, 245882, Note_on_c, 0, 62, 100
2, 245885, Note_on_c, 0, 67, 95
2, 245886, Note_on_c, 0, 71, 96
2, 246259, Note_on_c, 0, 72, 0
2, 246266, Note_on_c, 0, 60, 0
2, 246270, Note_on_c, 0, 72, 108
2, 246270, Note_on_c, 0, 60, 99
2, 246681, Note_on_c, 0, 45, 0
2, 246681, Note_on_c, 0, 72, 0
2, 246683, Control_c, 0, 64, 0
2, 246684, Note_on_c, 0, 84, 111
2, 246685, Note_on_c, 0, 33, 96
2, 246685, Note_on_c, 0, 72, 109
2, 246686, Note_on_c, 0, 76, 105
2, 246686, Note_on_c, 0, 81, 106
2, 246686, Note_on_c, 0, 45, 99
2, 246697, Note_on_c, 0, 91, 0
2, 246699, Note_on_c, 0, 62, 0
2, 246699, Note_on_c, 0, 83, 0
2, 246700, Note_on_c, 0, 57, 0
2, 246700, Note_on_c, 0, 79, 0
2, 246700, Note_on_c, 0, 59, 0
2, 246700, Note_on_c, 0, 71, 0
2, 246700, Note_on_c, 0, 67, 0
2, 246700, Note_on_c, 0, 60, 0
2, 246700, Note_on_c, 0, 74, 0
2, 246700, Note_on_c, 0, 55, 0
2, 246701, Note_on_c, 0, 43, 0
2, 246727, Note_on_c, 0, 69, 0
2, 246727, Note_on_c, 0, 86, 0
2, 246750, Control_c, 0, 64, 127
2, 247053, Note_on_c, 0, 57, 84
2, 247055, Note_on_c, 0, 69, 74
2, 247059, Note_on_c, 0, 48, 75
2, 247154, Note_on_c, 0, 52, 76
2, 247154, Note_on_c, 0, 60, 74
2, 247203, Note_on_c, 0, 57, 0
2, 247213, Note_on_c, 0, 57, 72
2, 247214, Note_on_c, 0, 64, 90
2, 247296, Note_on_c, 0, 60, 0
2, 247296, Note_on_c, 0, 69, 0
2, 247305, Note_on_c, 0, 69, 86
2, 247305, Note_on_c, 0, 60, 75
2, 247372, Note_on_c, 0, 64, 0
2, 247372, Note_on_c, 0, 72, 0
2, 247378, Note_on_c, 0, 72, 82
2, 247381, Note_on_c, 0, 64, 84
2, 247418, Note_on_c, 0, 76, 0
2, 247423, Note_on_c, 0, 76, 87
2, 247434, Note_on_c, 0, 69, 0
2, 247444, Note_on_c, 0, 69, 65
2, 247503, Note_on_c, 0, 81, 0
2, 247511, Note_on_c, 0, 81, 97
2, 247517, Note_on_c, 0, 67, 51
2, 247534, Note_on_c, 0, 33, 0
2, 247541, Note_on_c, 0, 72, 0
2, 247547, Note_on_c, 0, 72, 64
2, 247564, Note_on_c, 0, 84, 0
2, 247576, Note_on_c, 0, 84, 64
2, 247587, Note_on_c, 0, 76, 0
2, 247591, Note_on_c, 0, 76, 63
2, 247599, Note_on_c, 0, 77, 63
2, 247600, Note_on_c, 0, 89, 77
2, 247615, Note_on_c, 0, 88, 74
2, 247667, Note_on_c, 0, 93, 100
2, 247779, Note_on_c, 0, 93, 0
2, 247782, Note_on_c, 0, 103, 89
2, 247783, Note_on_c, 0, 105, 107
2, 247784, Note_on_c, 0, 93, 106
2, 247787, Note_on_c, 0, 103, 0
2, 247795, Note_on_c, 0, 105, 0
2, 248191, Note_on_c, 0, 83, 105
2, 248194, Note_on_c, 0, 76, 0
2, 248196, Note_on_c, 0, 71, 100
2, 248198, Note_on_c, 0, 79, 98
2, 248199, Note_on_c, 0, 76, 98
2, 248578, Note_on_c, 0, 69, 0
2, 248578, Note_on_c, 0, 81, 0
2, 248586, Note_on_c, 0, 81, 102
2, 248587, Note_on_c, 0, 69, 97
2, 248862, Note_on_c, 0, 67, 0
2, 248862, Note_on_c, 0, 72, 0
2, 248862, Note_on_c, 0, 79, 0
2, 248863, Control_c, 0, 64, 0
2, 248869, Note_on_c, 0, 79, 105
2, 248870, Note_on_c, 0, 84, 0
2, 248870, Note_on_c, 0, 76, 0
2, 248872, Note_on_c, 0, 77, 0
2, 248872, Note_on_c, 0, 81, 0
2, 248872, Note_on_c, 0, 48, 0
2, 248873, Note_on_c, 0, 52, 0
2, 248873, Note_on_c, 0, 93, 0
2, 248873, Note_on_c, 0, 64, 0
2, 248873, Note_on_c, 0, 83, 0
2, 248873, Note_on_c, 0, 57, 0
2, 248873, Note_on_c, 0, 72, 97
2, 248873, Note_on_c, 0, 89, 0
2, 248873, Note_on_c, 0, 67, 105
2, 248873, Note_on_c, 0, 71, 0
2, 248873, Note_on_c, 0, 88, 0
2, 248874, Note_on_c, 0, 41, 95
2, 248874, Note_on_c, 0, 69, 0
2, 248874, Note_on_c, 0, 76, 100
2, 248878, Note_on_c, 0, 29, 89
2, 248885, Note_on_c, 0, 45, 0
2, 248885, Note_on_c, 0, 60, 0
2, 248931, Control_c, 0, 64, 127
2, 249146, Note_on_c, 0, 41, 0
2, 249157, Note_on_c, 0, 41, 73
2, 249162, Note_on_c, 0, 55, 78
2, 249226, Note_on_c, 0, 48, 78
2, 249250, Note_on_c, 0, 60, 74
2, 249281, Note_on_c, 0, 53, 73
2, 249296, Note_on_c, 0, 62, 77
2, 249361, Note_on_c, 0, 53, 0
2, 249368, Note_on_c, 0, 53, 78
2, 249377, Note_on_c, 0, 67, 0
2, 249381, Note_on_c, 0, 67, 81
2, 249431, Note_on_c, 0, 60, 0
2, 249431, Note_on_c, 0, 62, 0
2, 249431, Note_on_c, 0, 72, 0
2, 249436, Note_on_c, 0, 60, 77
2, 249439, Note_on_c, 0, 72, 78
2, 249440, Note_on_c, 0, 62, 69
2, 249494, Note_on_c, 0, 65, 81
2, 249496, Note_on_c, 0, 74, 82
2, 249569, Note_on_c, 0, 79, 0
2, 249575, Note_on_c, 0, 79, 87
2, 249584, Note_on_c, 0, 65, 0
2, 249589, Note_on_c, 0, 64, 73
2, 249589, Note_on_c, 0, 65, 81
2, 249623, Note_on_c, 0, 72, 0
2, 249627, Note_on_c, 0, 84, 90
2, 249632, Note_on_c, 0, 72, 76
2, 249678, Note_on_c, 0, 77, 83
2, 249681, Note_on_c, 0, 86, 73
2, 249731, Note_on_c, 0, 91, 92
2, 249768, Note_on_c, 0, 84, 0
2, 249777, Note_on_c, 0, 84, 90
2, 249791, Note_on_c, 0, 96, 98
2, 249821, Note_on_c, 0, 98, 70
2, 249858, Note_on_c, 0, 103, 108
2, 249859, Note_on_c, 0, 101, 99
2, 249862, Note_on_c, 0, 89, 98
2, 250283, Note_on_c, 0, 65, 0
2, 250283, Note_on_c, 0, 72, 0
2, 250283, Note_on_c, 0, 77, 0
2, 250288, Note_on_c, 0, 65, 102
2, 250289, Note_on_c, 0, 77, 109
2, 250290, Note_on_c, 0, 72, 97
2, 250291, Note_on_c, 0, 60, 0
2, 250292, Note_on_c, 0, 69, 100
2, 250295, Note_on_c, 0, 60, 69
2, 250682, Note_on_c, 0, 64, 0
2, 250682, Note_on_c, 0, 76, 0
2, 250690, Note_on_c, 0, 84, 0
2, 250690, Note_on_c, 0, 76, 107
2, 250691, Note_on_c, 0, 88, 93
2, 250691, Note_on_c, 0, 64, 102
2, 250699, Note_on_c, 0, 84, 81
2, 250951, Note_on_c, 0, 29, 0
2, 250951, Note_on_c, 0, 103, 0
2, 250958, Note_on_c, 0, 101, 0
2, 250958, Note_on_c, 0, 88, 0
2, 250959, Note_on_c, 0, 48, 0
2, 250959, Note_on_c, 0, 86, 0
2, 250960, Note_on_c, 0, 84, 0
2, 250960, Note_on_c, 0, 91, 0
2, 250960, Note_on_c, 0, 96, 0
2, 250960, Note_on_c, 0, 89, 0
2, 250961, Note_on_c, 0, 98, 0
2, 250961, Note_on_c, 0, 69, 0
2, 250962, Note_on_c, 0, 77, 0
2, 250962, Note_on_c, 0, 41, 0
2, 250962, Note_on_c, 0, 65, 0
2, 250962, Note_on_c, 0, 60, 0
2, 250962, Note_on_c, 0, 72, 0
2, 250962, Note_on_c, 0, 79, 0
2, 250962, Note_on_c, 0, 53, 0
2, 250962, Note_on_c, 0, 55, 0
2, 250964, Control_c, 0, 64, 0
2, 250974, Note_on_c, 0, 62, 0
2, 250974, Note_on_c, 0, 64, 0
2, 250974, Note_on_c, 0, 67, 0
2, 250974, Note_on_c, 0, 74, 0
2, 250974, Note_on_c, 0, 76, 0
2, 250979, Note_on_c, 0, 43, 93
2, 250979, Note_on_c, 0, 74, 103
2, 250980, Note_on_c, 0, 31, 89
2, 250980, Note_on_c, 0, 62, 100
2, 250981, Note_on_c, 0, 71, 97
2, 250981, Note_on_c, 0, 67, 100
2, 251051, Control_c, 0, 64, 127
2, 251263, Note_on_c, 0, 55, 81
2, 251269, Note_on_c, 0, 47, 64
2, 251340, Note_on_c, 0, 59, 83
2, 251340, Note_on_c, 0, 50, 77
2, 251381, Note_on_c, 0, 55, 0
2, 251381, Note_on_c, 0, 62, 0
2, 251381, Note_on_c, 0, 67, 0
2, 251390, Note_on_c, 0, 55, 69
2, 251390, Note_on_c, 0, 62, 78
2, 251391, Note_on_c, 0, 67, 76
2, 251473, Note_on_c, 0, 59, 0
2, 251473, Note_on_c, 0, 67, 0
2, 251477, Note_on_c, 0, 67, 85
2, 251479, Note_on_c, 0, 59, 86
2, 251535, Note_on_c, 0, 62, 0
2, 251535, Note_on_c, 0, 71, 0
2, 251539, Note_on_c, 0, 62, 71
2, 251540, Note_on_c, 0, 71, 76
2, 251581, Note_on_c, 0, 74, 0
2, 251585, Note_on_c, 0, 74, 89
2, 251589, Note_on_c, 0, 67, 0
2, 251596, Note_on_c, 0, 67, 74
2, 251675, Note_on_c, 0, 79, 90
2, 251719, Note_on_c, 0, 74, 0
2, 251723, Note_on_c, 0, 83, 91
2, 251724, Note_on_c, 0, 74, 72
2, 251755, Note_on_c, 0, 86, 92
2, 251788, Note_on_c, 0, 79, 0
2, 251793, Note_on_c, 0, 79, 83
2, 251824, Note_on_c, 0, 91, 94
2, 251873, Note_on_c, 0, 86, 0
2, 251877, Note_on_c, 0, 86, 78
2, 251878, Note_on_c, 0, 95, 90
2, 251915, Note_on_c, 0, 98, 56
2, 251953, Note_on_c, 0, 103, 110
2, 251957, Note_on_c, 0, 91, 0
2, 251963, Note_on_c, 0, 91, 103
2, 252403, Note_on_c, 0, 67, 0
2, 252406, Note_on_c, 0, 76, 110
2, 252408, Note_on_c, 0, 64, 104
2, 252408, Note_on_c, 0, 67, 99
2, 252409, Note_on_c, 0, 72, 100
2, 252800, Note_on_c, 0, 89, 98
2, 252800, Note_on_c, 0, 77, 109
2, 252802, Note_on_c, 0, 65, 102
2, 253078, Note_on_c, 0, 95, 0
2, 253078, Note_on_c, 0, 98, 0
2, 253079, Note_on_c, 0, 86, 0
2, 253079, Note_on_c, 0, 59, 0
2, 253080, Note_on_c, 0, 91, 0
2, 253080, Note_on_c, 0, 89, 0
2, 253080, Note_on_c, 0, 74, 0
2, 253080, Control_c, 0, 64, 0
2, 253080, Note_on_c, 0, 62, 0
2, 253080, Note_on_c, 0, 65, 0
2, 253081, Note_on_c, 0, 83, 0
2, 253081, Note_on_c, 0, 50, 0
2, 253081, Note_on_c, 0, 43, 0
2, 253081, Note_on_c, 0, 55, 0
2, 253081, Note_on_c, 0, 79, 0
2, 253081, Note_on_c, 0, 77, 0
2, 253081, Note_on_c, 0, 47, 0
2, 253086, Note_on_c, 0, 31, 0
2, 253086, Note_on_c, 0, 76, 0
2, 253086, Note_on_c, 0, 103, 0
2, 253094, Note_on_c, 0, 64, 0
2, 253094, Note_on_c, 0, 67, 0
2, 253094, Note_on_c, 0, 71, 0
2, 253094, Note_on_c, 0, 72, 0
2, 253094, Note_on_c, 0, 88, 99
2, 253098, Note_on_c, 0, 76, 110
2, 253099, Note_on_c, 0, 84, 96
2, 253099, Note_on_c, 0, 100, 100
2, 253099, Note_on_c, 0, 72, 103
2, 253102, Note_on_c, 0, 67, 102
2, 253103, Note_on_c, 0, 64, 104
2, 253105, Note_on_c, 0, 48, 99
2, 253106, Note_on_c, 0, 36, 87
2, 253106, Note_on_c, 0, 96, 93
2, 253109, Note_on_c, 0, 100, 0
2, 253140, Note_on_c, 0, 96, 0
2, 253155, Control_c, 0, 64, 127
2, 253186, Note_on_c, 0, 36, 0
2, 253411, Note_on_c, 0, 52, 82
2, 253413, Note_on_c, 0, 43, 67
2, 253424, Note_on_c, 0, 84, 0
2, 253478, Note_on_c, 0, 43, 0
2, 253483, Note_on_c, 0, 55, 81
2, 253486, Note_on_c, 0, 67, 0
2, 253488, Note_on_c, 0, 43, 67
2, 253493, Note_on_c, 0, 48, 0
2, 253495, Note_on_c, 0, 67, 75
2, 253502, Note_on_c, 0, 48, 74
2, 253539, Note_on_c, 0, 52, 0
2, 253544, Note_on_c, 0, 60, 85
2, 253549, Note_on_c, 0, 52, 60
2, 253616, Note_on_c, 0, 64, 0
2, 253623, Note_on_c, 0, 64, 92
2, 253624, Note_on_c, 0, 55, 0
2, 253628, Note_on_c, 0, 55, 79
2, 253678, Note_on_c, 0, 67, 0
2, 253687, Note_on_c, 0, 67, 90
2, 253724, Note_on_c, 0, 72, 0
2, 253733, Note_on_c, 0, 72, 86
2, 253747, Note_on_c, 0, 64, 0
2, 253751, Note_on_c, 0, 64, 70
2, 253808, Note_on_c, 0, 76, 0
2, 253818, Note_on_c, 0, 76, 88
2, 253831, Note_on_c, 0, 67, 0
2, 253841, Note_on_c, 0, 67, 79
2, 253863, Note_on_c, 0, 79, 95
2, 253867, Note_on_c, 0, 91, 86
2, 253905, Note_on_c, 0, 84, 85
2, 253962, Note_on_c, 0, 88, 0
2, 253968, Note_on_c, 0, 88, 97
2, 254016, Note_on_c, 0, 91, 0
2, 254025, Note_on_c, 0, 89, 75
2, 254025, Note_on_c, 0, 91, 84
2, 254039, Note_on_c, 0, 84, 0
2, 254048, Note_on_c, 0, 84, 76
2, 254091, Note_on_c, 0, 100, 110
2, 254108, Note_on_c, 0, 88, 0
2, 254112, Note_on_c, 0, 88, 106
2, 254384, Note_on_c, 0, 48, 0
2, 254384, Note_on_c, 0, 60, 0
2, 254394, Note_on_c, 0, 60, 91
2, 254395, Note_on_c, 0, 48, 82
2, 254691, Note_on_c, 0, 67, 0
2, 254692, Note_on_c, 0, 74, 108
2, 254697, Note_on_c, 0, 62, 97
2, 254697, Note_on_c, 0, 67, 98
2, 254699, Note_on_c, 0, 71, 94
2, 254701, Note_on_c, 0, 59, 100
2, 254702, Note_on_c, 0, 47, 93
2, 254703, Control_c, 0, 64, 0
2, 254705, Note_on_c, 0, 91, 0
2, 254708, Note_on_c, 0, 84, 0
2, 254708, Note_on_c, 0, 64, 0
2, 254708, Note_on_c, 0, 43, 0
2, 254708, Note_on_c, 0, 79, 0
2, 254708, Note_on_c, 0, 48, 0
2, 254709, Note_on_c, 0, 55, 0
2, 254709, Note_on_c, 0, 60, 0
2, 254709, Note_on_c, 0, 88, 0
2, 254709, Note_on_c, 0, 89, 0
2, 254710, Note_on_c, 0, 100, 0
2, 254710, Note_on_c, 0, 52, 0
2, 254722, Note_on_c, 0, 76, 0
2, 254730, Note_on_c, 0, 72, 0
2, 254737, Note_on_c, 0, 59, 0
2, 254748, Note_on_c, 0, 47, 0
2, 254768, Control_c, 0, 64, 127
2, 254990, Note_on_c, 0, 55, 99
2, 254993, Note_on_c, 0, 43, 95
2, 255322, Control_c, 0, 64, 0
2, 255331, Note_on_c, 0, 84, 110
2, 255332, Note_on_c, 0, 55, 0
2, 255333, Note_on_c, 0, 72, 108
2, 255333, Note_on_c, 0, 33, 91
2, 255334, Note_on_c, 0, 62, 0
2, 255334, Note_on_c, 0, 45, 95
2, 255335, Note_on_c, 0, 43, 0
2, 255335, Note_on_c, 0, 76, 105
2, 255335, Note_on_c, 0, 81, 106
2, 255336, Note_on_c, 0, 71, 0
2, 255339, Note_on_c, 0, 74, 0
2, 255352, Note_on_c, 0, 67, 0
2, 255413, Control_c, 0, 64, 127
2, 255636, Note_on_c, 0, 57, 81
2, 255657, Note_on_c, 0, 48, 68
2, 255716, Note_on_c, 0, 60, 79
2, 255724, Note_on_c, 0, 52, 70
2, 255767, Note_on_c, 0, 64, 85
2, 255851, Note_on_c, 0, 60, 0
2, 255855, Note_on_c, 0, 69, 73
2, 255860, Note_on_c, 0, 60, 83
2, 255905, Note_on_c, 0, 64, 0
2, 255905, Note_on_c, 0, 72, 0
2, 255909, Note_on_c, 0, 72, 81
2, 255914, Note_on_c, 0, 64, 70
2, 255951, Note_on_c, 0, 76, 0
2, 255961, Note_on_c, 0, 76, 84
2, 255982, Note_on_c, 0, 69, 0
2, 255990, Note_on_c, 0, 69, 79
2, 256035, Note_on_c, 0, 33, 0
2, 256043, Note_on_c, 0, 81, 0
2, 256050, Note_on_c, 0, 81, 85
2, 256097, Note_on_c, 0, 84, 0
2, 256101, Note_on_c, 0, 84, 90
2, 256139, Note_on_c, 0, 88, 101
2, 256143, Note_on_c, 0, 76, 0
2, 256148, Note_on_c, 0, 76, 69
2, 256155, Note_on_c, 0, 77, 64
2, 256219, Note_on_c, 0, 93, 84
2, 256266, Note_on_c, 0, 88, 0
2, 256269, Note_on_c, 0, 96, 87
2, 256273, Note_on_c, 0, 88, 74
2, 256335, Note_on_c, 0, 93, 0
2, 256340, Note_on_c, 0, 103, 85
2, 256341, Note_on_c, 0, 105, 108
2, 256344, Note_on_c, 0, 93, 101
2, 256350, Note_on_c, 0, 103, 0
2, 256757, Note_on_c, 0, 76, 0
2, 256758, Note_on_c, 0, 83, 106
2, 256760, Note_on_c, 0, 71, 104
2, 256762, Note_on_c, 0, 79, 98
2, 256763, Note_on_c, 0, 76, 99
2, 257141, Note_on_c, 0, 72, 0
2, 257141, Note_on_c, 0, 84, 0
2, 257145, Note_on_c, 0, 84, 112
2, 257147, Note_on_c, 0, 72, 100
2, 257423, Control_c, 0, 64, 0
2, 257425, Note_on_c, 0, 105, 0
2, 257429, Note_on_c, 0, 52, 0
2, 257430, Note_on_c, 0, 76, 0
2, 257430, Note_on_c, 0, 77, 0
2, 257430, Note_on_c, 0, 81, 0
2, 257430, Note_on_c, 0, 72, 0
2, 257430, Note_on_c, 0, 60, 0
2, 257430, Note_on_c, 0, 69, 0
2, 257431, Note_on_c, 0, 57, 0
2, 257431, Note_on_c, 0, 71, 0
2, 257431, Note_on_c, 0, 83, 0
2, 257431, Note_on_c, 0, 48, 0
2, 257431, Note_on_c, 0, 96, 0
2, 257433, Note_on_c, 0, 79, 0
2, 257433, Note_on_c, 0, 84, 0
2, 257433, Note_on_c, 0, 88, 0
2, 257438, Note_on_c, 0, 91, 111
2, 257443, Note_on_c, 0, 79, 107
2, 257444, Note_on_c, 0, 84, 107
2, 257444, Note_on_c, 0, 88, 111
2, 257448, Note_on_c, 0, 40, 81
2, 257448, Note_on_c, 0, 45, 0
2, 257448, Note_on_c, 0, 64, 0
2, 257456, Note_on_c, 0, 28, 86
2, 257456, Note_on_c, 0, 93, 0
2, 257479, Control_c, 0, 64, 127
2, 257703, Note_on_c, 0, 52, 42
2, 257750, Note_on_c, 0, 55, 68
2, 257753, Note_on_c, 0, 48, 66
2, 257817, Note_on_c, 0, 52, 0
2, 257821, Note_on_c, 0, 60, 71
2, 257821, Note_on_c, 0, 52, 67
2, 257869, Note_on_c, 0, 64, 83
2, 257955, Note_on_c, 0, 60, 0
2, 257960, Note_on_c, 0, 67, 81
2, 257966, Note_on_c, 0, 60, 77
2, 258009, Note_on_c, 0, 84, 0
2, 258012, Note_on_c, 0, 72, 80
2, 258016, Note_on_c, 0, 84, 74
2, 258071, Note_on_c, 0, 67, 0
2, 258075, Note_on_c, 0, 76, 86
2, 258082, Note_on_c, 0, 67, 72
2, 258155, Note_on_c, 0, 79, 0
2, 258163, Note_on_c, 0, 72, 0
2, 258166, Note_on_c, 0, 79, 79
2, 258172, Note_on_c, 0, 72, 84
2, 258193, Note_on_c, 0, 84, 0
2, 258198, Note_on_c, 0, 84, 92
2, 258240, Note_on_c, 0, 88, 0
2, 258243, Note_on_c, 0, 88, 85
2, 258270, Note_on_c, 0, 79, 0
2, 258281, Note_on_c, 0, 79, 68
2, 258316, Note_on_c, 0, 91, 0
2, 258328, Note_on_c, 0, 91, 72
2, 258373, Note_on_c, 0, 96, 84
2, 258439, Note_on_c, 0, 91, 0
2, 258443, Note_on_c, 0, 103, 109
2, 258450, Note_on_c, 0, 91, 99
2, 258854, Note_on_c, 0, 84, 0
2, 258860, Note_on_c, 0, 93, 111
2, 258864, Note_on_c, 0, 84, 103
2, 258864, Note_on_c, 0, 81, 105
2, 258865, Note_on_c, 0, 89, 103
2, 259257, Note_on_c, 0, 95, 111
2, 259260, Note_on_c, 0, 83, 103
2, 259461, Note_on_c, 0, 103, 0
2, 259517, Note_on_c, 0, 95, 0
2, 259518, Note_on_c, 0, 72, 0
2, 259518, Note_on_c, 0, 52, 0
2, 259518, Note_on_c, 0, 76, 0
2, 259519, Note_on_c, 0, 64, 0
2, 259519, Note_on_c, 0, 88, 0
2, 259519, Note_on_c, 0, 40, 0
2, 259519, Note_on_c, 0, 81, 0
2, 259519, Note_on_c, 0, 83, 0
2, 259519, Note_on_c, 0, 91, 0
2, 259519, Note_on_c, 0, 67, 0
2, 259519, Note_on_c, 0, 48, 0
2, 259519, Note_on_c, 0, 60, 0
2, 259520, Note_on_c, 0, 79, 0
2, 259520, Note_on_c, 0, 55, 0
2, 259522, Note_on_c, 0, 28, 0
2, 259526, Control_c, 0, 64, 0
2, 259530, Note_on_c, 0, 84, 0
2, 259530, Note_on_c, 0, 89, 0
2, 259530, Note_on_c, 0, 93, 0
2, 259530, Note_on_c, 0, 96, 0
2, 259535, Note_on_c, 0, 96, 112
2, 259538, Note_on_c, 0, 84, 109
2, 259538, Note_on_c, 0, 89, 104
2, 259541, Note_on_c, 0, 93, 106
2, 259543, Note_on_c, 0, 41, 92
2, 259547, Note_on_c, 0, 29, 92
2, 259568, Control_c, 0, 64, 127
2, 259814, Note_on_c, 0, 41, 0
2, 259818, Note_on_c, 0, 41, 61
2, 259841, Note_on_c, 0, 55, 71
2, 259879, Note_on_c, 0, 48, 72
2, 259911, Note_on_c, 0, 60, 70
2, 259937, Note_on_c, 0, 62, 74
2, 259948, Note_on_c, 0, 65, 63
2, 260025, Note_on_c, 0, 53, 82
2, 260026, Note_on_c, 0, 67, 74
2, 260083, Note_on_c, 0, 60, 0
2, 260092, Note_on_c, 0, 72, 77
2, 260094, Note_on_c, 0, 60, 77
2, 260136, Note_on_c, 0, 62, 0
2, 260136, Note_on_c, 0, 65, 0
2, 260141, Note_on_c, 0, 62, 66
2, 260142, Note_on_c, 0, 74, 81
2, 260144, Note_on_c, 0, 65, 81
2, 260221, Note_on_c, 0, 65, 0
2, 260221, Note_on_c, 0, 67, 0
2, 260224, Note_on_c, 0, 79, 88
2, 260231, Note_on_c, 0, 67, 66
2, 260231, Note_on_c, 0, 65, 76
2, 260267, Note_on_c, 0, 72, 0
2, 260267, Note_on_c, 0, 84, 0
2, 260273, Note_on_c, 0, 84, 91
2, 260274, Note_on_c, 0, 72, 73
2, 260338, Note_on_c, 0, 77, 75
2, 260373, Note_on_c, 0, 91, 88
2, 260421, Note_on_c, 0, 96, 0
2, 260428, Note_on_c, 0, 84, 0
2, 260430, Note_on_c, 0, 96, 90
2, 260432, Note_on_c, 0, 84, 86
2, 260478, Note_on_c, 0, 98, 67
2, 260513, Note_on_c, 0, 89, 0
2, 260519, Note_on_c, 0, 101, 99
2, 260520, Note_on_c, 0, 103, 109
2, 260521, Note_on_c, 0, 89, 97
2, 260805, Note_on_c, 0, 55, 0
2, 260805, Note_on_c, 0, 67, 0
2, 260812, Note_on_c, 0, 67, 104
2, 260815, Note_on_c, 0, 55, 101
2, 261104, Note_on_c, 0, 53, 0
2, 261104, Note_on_c, 0, 65, 0
2, 261104, Note_on_c, 0, 84, 0
2, 261104, Note_on_c, 0, 89, 0
2, 261104, Note_on_c, 0, 96, 0
2, 261108, Note_on_c, 0, 65, 103
2, 261109, Note_on_c, 0, 96, 114
2, 261112, Note_on_c, 0, 93, 0
2, 261112, Note_on_c, 0, 103, 0
2, 261112, Note_on_c, 0, 84, 111
2, 261114, Note_on_c, 0, 53, 97
2, 261115, Note_on_c, 0, 89, 105
2, 261116, Note_on_c, 0, 93, 103
2, 261427, Note_on_c, 0, 48, 0
2, 261427, Note_on_c, 0, 60, 0
2, 261436, Note_on_c, 0, 60, 95
2, 261437, Note_on_c, 0, 48, 96
2, 261450, Note_on_c, 0, 96, 0
2, 261460, Note_on_c, 0, 96, 87
2, 261742, Note_on_c, 0, 29, 0
2, 261754, Note_on_c, 0, 101, 0
2, 261754, Note_on_c, 0, 93, 0
2, 261754, Control_c, 0, 64, 0
2, 261755, Note_on_c, 0, 72, 0
2, 261755, Note_on_c, 0, 62, 0
2, 261755, Note_on_c, 0, 74, 0
2, 261755, Note_on_c, 0, 65, 0
2, 261755, Note_on_c, 0, 77, 0
2, 261755, Note_on_c, 0, 48, 0
2, 261755, Note_on_c, 0, 79, 0
2, 261755, Note_on_c, 0, 91, 0
2, 261756, Note_on_c, 0, 84, 0
2, 261756, Note_on_c, 0, 60, 0
2, 261756, Note_on_c, 0, 67, 0
2, 261757, Note_on_c, 0, 98, 0
2, 261757, Note_on_c, 0, 55, 0
2, 261765, Note_on_c, 0, 41, 0
2, 261765, Note_on_c, 0, 53, 0
2, 261765, Note_on_c, 0, 89, 0
2, 261768, Note_on_c, 0, 98, 113
2, 261769, Note_on_c, 0, 86, 108
2, 261769, Note_on_c, 0, 89, 105
2, 261772, Note_on_c, 0, 41, 98
2, 261774, Note_on_c, 0, 53, 96
2, 261776, Note_on_c, 0, 92, 107
2, 261803, Control_c, 0, 64, 127
2, 261864, Note_on_c, 0, 53, 0
2, 262077, Note_on_c, 0, 62, 84
2, 262078, Note_on_c, 0, 53, 91
2, 262080, Note_on_c, 0, 41, 0
2, 262081, Note_on_c, 0, 60, 79
2, 262083, Note_on_c, 0, 56, 87
2, 262084, Note_on_c, 0, 41, 78
2, 262402, Note_on_c, 0, 96, 0
2, 262410, Note_on_c, 0, 60, 0
2, 262410, Note_on_c, 0, 89, 0
2, 262410, Note_on_c, 0, 92, 0
2, 262411, Note_on_c, 0, 96, 113
2, 262414, Note_on_c, 0, 84, 105
2, 262415, Note_on_c, 0, 89, 100
2, 262418, Note_on_c, 0, 92, 99
2, 262420, Note_on_c, 0, 60, 81
2, 262421, Note_on_c, 0, 68, 97
2, 262423, Note_on_c, 0, 65, 94
2, 262755, Note_on_c, 0, 65, 0
2, 262755, Note_on_c, 0, 68, 0
2, 262758, Note_on_c, 0, 53, 0
2, 262760, Note_on_c, 0, 72, 89
2, 262762, Note_on_c, 0, 65, 80
2, 262762, Note_on_c, 0, 68, 88
2, 263112, Note_on_c, 0, 65, 0
2, 263112, Note_on_c, 0, 41, 0
2, 263112, Note_on_c, 0, 56, 0
2, 263112, Note_on_c, 0, 68, 0
2, 263112, Note_on_c, 0, 89, 0
2, 263113, Note_on_c, 0, 62, 0
2, 263113, Note_on_c, 0, 60, 0
2, 263113, Note_on_c, 0, 92, 0
2, 263114, Control_c, 0, 64, 0
2, 263124, Note_on_c, 0, 72, 0
2, 263124, Note_on_c, 0, 84, 0
2, 263124, Note_on_c, 0, 86, 0
2, 263124, Note_on_c, 0, 96, 0
2, 263129, Note_on_c, 0, 96, 112
2, 263130, Note_on_c, 0, 86, 105
2, 263131, Note_on_c, 0, 43, 100
2, 263132, Note_on_c, 0, 84, 110
2, 263133, Note_on_c, 0, 91, 106
2, 263134, Note_on_c, 0, 55, 101
2, 263162, Control_c, 0, 64, 127
2, 263500, Note_on_c, 0, 55, 0
2, 263511, Note_on_c, 0, 55, 92
2, 263511, Note_on_c, 0, 62, 94
2, 263512, Note_on_c, 0, 60, 93
2, 263938, Note_on_c, 0, 62, 0
2, 263944, Note_on_c, 0, 67, 103
2, 263946, Note_on_c, 0, 95, 110
2, 263946, Note_on_c, 0, 86, 0
2, 263946, Note_on_c, 0, 91, 0
2, 263946, Note_on_c, 0, 98, 0
2, 263947, Note_on_c, 0, 59, 96
2, 263948, Note_on_c, 0, 62, 91
2, 263951, Note_on_c, 0, 83, 105
2, 263955, Note_on_c, 0, 86, 102
2, 263957, Note_on_c, 0, 91, 99
2, 264445, Note_on_c, 0, 62, 0
2, 264453, Note_on_c, 0, 67, 0
2, 264456, Note_on_c, 0, 71, 105
2, 264456, Note_on_c, 0, 62, 101
2, 264457, Note_on_c, 0, 67, 97
2, 265002, Note_on_c, 0, 36, 89
2, 265320, Note_on_c, 0, 84, 0
2, 265320, Note_on_c, 0, 91, 0
2, 265320, Note_on_c, 0, 96, 0
2, 265325, Control_c, 0, 64, 0
2, 265326, Note_on_c, 0, 59, 0
2, 265327, Note_on_c, 0, 95, 0
2, 265327, Note_on_c, 0, 83, 0
2, 265329, Note_on_c, 0, 67, 0
2, 265330, Note_on_c, 0, 96, 114
2, 265330, Note_on_c, 0, 55, 0
2, 265330, Note_on_c, 0, 71, 0
2, 265330, Note_on_c, 0, 86, 0
2, 265330, Note_on_c, 0, 84, 114
2, 265330, Note_on_c, 0, 60, 0
2, 265330, Note_on_c, 0, 52, 92
2, 265332, Note_on_c, 0, 91, 108
2, 265332, Note_on_c, 0, 88, 113
2, 265336, Note_on_c, 0, 43, 0
2, 265340, Note_on_c, 0, 43, 84
2, 265351, Note_on_c, 0, 62, 0
2, 265382, Control_c, 0, 64, 127
2, 265820, Note_on_c, 0, 72, 63
2, 265967, Note_on_c, 0, 79, 76
2, 266150, Note_on_c, 0, 72, 0
2, 266159, Note_on_c, 0, 72, 61
2, 266290, Note_on_c, 0, 67, 59
2, 266434, Note_on_c, 0, 72, 0
2, 266440, Note_on_c, 0, 72, 56
2, 266565, Note_on_c, 0, 79, 0
2, 266576, Note_on_c, 0, 79, 72
2, 266726, Note_on_c, 0, 72, 0
2, 266730, Note_on_c, 0, 72, 54
2, 266841, Note_on_c, 0, 67, 0
2, 266845, Note_on_c, 0, 67, 57
2, 266987, Note_on_c, 0, 72, 0
2, 266998, Note_on_c, 0, 72, 56
2, 267141, Note_on_c, 0, 79, 0
2, 267146, Note_on_c, 0, 79, 74
2, 267294, Note_on_c, 0, 72, 0
2, 267305, Note_on_c, 0, 72, 49
2, 267425, Note_on_c, 0, 67, 0
2, 267436, Note_on_c, 0, 67, 64
2, 267555, Note_on_c, 0, 72, 0
2, 267564, Note_on_c, 0, 72, 58
2, 267709, Note_on_c, 0, 79, 0
2, 267717, Note_on_c, 0, 79, 71
2, 267841, Note_on_c, 0, 65, 85
2, 267863, Note_on_c, 0, 72, 0
2, 267865, Note_on_c, 0, 57, 71
2, 267866, Note_on_c, 0, 60, 67
2, 267873, Note_on_c, 0, 72, 63
2, 267874, Note_on_c, 0, 69, 65
2, 268008, Note_on_c, 0, 67, 0
2, 268020, Note_on_c, 0, 67, 58
2, 268108, Note_on_c, 0, 69, 0
2, 268113, Note_on_c, 0, 69, 41
2, 268139, Note_on_c, 0, 72, 0
2, 268144, Note_on_c, 0, 72, 50
2, 268277, Note_on_c, 0, 79, 0
2, 268282, Note_on_c, 0, 79, 71
2, 268431, Note_on_c, 0, 72, 0
2, 268435, Note_on_c, 0, 72, 52
2, 268517, Note_on_c, 0, 64, 25
2, 268561, Note_on_c, 0, 67, 0
2, 268570, Note_on_c, 0, 67, 65
2, 268700, Note_on_c, 0, 72, 0
2, 268708, Note_on_c, 0, 72, 59
2, 268861, Note_on_c, 0, 79, 0
2, 268867, Note_on_c, 0, 79, 58
2, 268968, Note_on_c, 0, 65, 0
2, 268975, Note_on_c, 0, 65, 89
2, 268999, Note_on_c, 0, 72, 0
2, 269010, Note_on_c, 0, 72, 59
2, 269137, Note_on_c, 0, 67, 0
2, 269145, Note_on_c, 0, 67, 64
2, 269260, Note_on_c, 0, 64, 0
2, 269260, Note_on_c, 0, 72, 0
2, 269264, Note_on_c, 0, 64, 91
2, 269266, Note_on_c, 0, 72, 64
2, 269399, Note_on_c, 0, 79, 0
2, 269410, Note_on_c, 0, 62, 77
2, 269410, Note_on_c, 0, 79, 80
2, 269537, Note_on_c, 0, 72, 0
2, 269547, Note_on_c, 0, 72, 59
2, 269614, Note_on_c, 0, 36, 0
2, 269683, Note_on_c, 0, 67, 0
2, 269693, Note_on_c, 0, 67, 71
2, 269698, Note_on_c, 0, 60, 0
2, 269708, Note_on_c, 0, 60, 79
2, 269798, Note_on_c, 0, 72, 0
2, 269807, Note_on_c, 0, 72, 58
2, 269936, Note_on_c, 0, 52, 0
2, 269936, Note_on_c, 0, 84, 0
2, 269936, Note_on_c, 0, 91, 0
2, 269936, Note_on_c, 0, 96, 0
2, 269944, Note_on_c, 0, 88, 0
2, 269952, Note_on_c, 0, 43, 0
2, 269959, Note_on_c, 0, 62, 0
2, 269959, Note_on_c, 0, 79, 0
2, 269968, Note_on_c, 0, 62, 74
2, 269970, Note_on_c, 0, 79, 72
2, 270128, Note_on_c, 0, 64, 0
2, 270128, Note_on_c, 0, 72, 0
2, 270132, Note_on_c, 0, 64, 84
2, 270132, Note_on_c, 0, 72, 75
2, 270133, Note_on_c, 0, 48, 71
2, 270136, Note_on_c, 0, 55, 66
2, 270147, Note_on_c, 0, 65, 0
2, 270147, Note_on_c, 0, 62, 0
2, 270147, Note_on_c, 0, 60, 0
2, 270148, Note_on_c, 0, 67, 0
2, 270148, Note_on_c, 0, 57, 0
2, 270148, Note_on_c, 0, 79, 0
2, 270150, Control_c, 0, 64, 0
2, 270167, Note_on_c, 0, 69, 0
2, 270312, Control_c, 0, 64, 127
2, 270316, Note_on_c, 0, 67, 61
2, 270451, Note_on_c, 0, 72, 0
2, 270456, Note_on_c, 0, 72, 58
2, 270589, Note_on_c, 0, 79, 68
2, 270720, Note_on_c, 0, 72, 0
2, 270726, Note_on_c, 0, 72, 49
2, 270865, Note_on_c, 0, 67, 0
2, 270870, Note_on_c, 0, 67, 55
2, 271004, Note_on_c, 0, 72, 0
2, 271013, Note_on_c, 0, 72, 50
2, 271150, Note_on_c, 0, 79, 0
2, 271160, Note_on_c, 0, 79, 68
2, 271296, Note_on_c, 0, 72, 0
2, 271305, Note_on_c, 0, 72, 62
2, 271434, Note_on_c, 0, 67, 0
2, 271445, Note_on_c, 0, 67, 56
2, 271572, Note_on_c, 0, 72, 0
2, 271582, Note_on_c, 0, 72, 53
2, 271749, Note_on_c, 0, 79, 0
2, 271753, Note_on_c, 0, 79, 45
2, 271875, Note_on_c, 0, 59, 77
2, 271887, Note_on_c, 0, 72, 0
2, 271893, Note_on_c, 0, 72, 51
2, 271915, Control_c, 0, 64, 0
2, 271933, Control_c, 0, 64, 127
2, 272033, Note_on_c, 0, 67, 0
2, 272042, Note_on_c, 0, 67, 54
2, 272163, Note_on_c, 0, 72, 0
2, 272174, Note_on_c, 0, 72, 49
2, 272348, Note_on_c, 0, 79, 0
2, 272354, Note_on_c, 0, 79, 26
2, 272478, Note_on_c, 0, 72, 0
2, 272483, Note_on_c, 0, 72, 61
2, 272490, Note_on_c, 0, 69, 60
2, 272497, Note_on_c, 0, 57, 62
2, 272498, Note_on_c, 0, 53, 64
2, 272509, Note_on_c, 0, 79, 0
2, 272511, Note_on_c, 0, 67, 0
2, 272511, Note_on_c, 0, 59, 0
2, 272511, Note_on_c, 0, 48, 0
2, 272513, Control_c, 0, 64, 0
2, 272532, Note_on_c, 0, 55, 0
2, 272532, Note_on_c, 0, 64, 0
2, 272640, Control_c, 0, 64, 127
2, 272652, Note_on_c, 0, 67, 48
2, 272778, Note_on_c, 0, 72, 0
2, 272788, Note_on_c, 0, 72, 51
2, 272931, Note_on_c, 0, 69, 0
2, 272963, Note_on_c, 0, 79, 66
2, 273108, Note_on_c, 0, 72, 0
2, 273113, Note_on_c, 0, 72, 48
2, 273269, Note_on_c, 0, 67, 0
2, 273278, Note_on_c, 0, 67, 54
2, 273454, Note_on_c, 0, 72, 0
2, 273459, Note_on_c, 0, 72, 48
2, 273653, Note_on_c, 0, 79, 0
2, 273662, Note_on_c, 0, 79, 80
2, 273868, Note_on_c, 0, 53, 0
2, 273877, Note_on_c, 0, 53, 60
2, 273926, Control_c, 0, 64, 0
2, 273928, Note_on_c, 0, 57, 0
2, 274007, Control_c, 0, 64, 127
2, 274224, Note_on_c, 0, 52, 64
2, 274446, Note_on_c, 0, 50, 56
2, 274464, Control_c, 0, 64, 0
2, 274529, Control_c, 0, 64, 127
2, 274560, Note_on_c, 0, 72, 0
2, 274886, Note_on_c, 0, 48, 57
2, 274921, Control_c, 0, 64, 0
2, 274922, Note_on_c, 0, 52, 0
2, 274926, Note_on_c, 0, 50, 0
2, 274928, Note_on_c, 0, 53, 0
2, 274990, Note_on_c, 0, 67, 0
2, 275066, Control_c, 0, 64, 127
2, 275182, Note_on_c, 0, 79, 0
2, 275486, Note_on_c, 0, 50, 55
2, 275779, Note_on_c, 0, 36, 41
2, 275906, Note_on_c, 0, 43, 44
2, 275962, Note_on_c, 0, 52, 63
2, 275984, Note_on_c, 0, 50, 0
2, 275991, Control_c, 0, 64, 0
2, 276060, Note_on_c, 0, 72, 51
2, 276065, Control_c, 0, 64, 127
2, 276224, Note_on_c, 0, 67, 40
2, 276372, Note_on_c, 0, 72, 0
2, 276379, Note_on_c, 0, 72, 52
2, 276527, Note_on_c, 0, 79, 63
2, 276672, Note_on_c, 0, 72, 0
2, 276676, Note_on_c, 0, 72, 47
2, 276848, Note_on_c, 0, 67, 0
2, 276857, Note_on_c, 0, 67, 42
2, 276994, Note_on_c, 0, 72, 0
2, 276999, Note_on_c, 0, 72, 45
2, 277163, Note_on_c, 0, 79, 0
2, 277171, Note_on_c, 0, 79, 67
2, 277347, Note_on_c, 0, 72, 0
2, 277352, Note_on_c, 0, 72, 41
2, 277532, Note_on_c, 0, 67, 0
2, 277542, Note_on_c, 0, 67, 38
2, 277708, Note_on_c, 0, 72, 0
2, 277714, Note_on_c, 0, 72, 52
2, 277900, Note_on_c, 0, 79, 0
2, 277909, Note_on_c, 0, 79, 56
2, 278108, Note_on_c, 0, 72, 0
2, 278118, Note_on_c, 0, 72, 49
2, 278353, Note_on_c, 0, 67, 0
2, 278359, Note_on_c, 0, 67, 47
2, 278400, Note_on_c, 0, 36, 0
2, 278400, Note_on_c, 0, 43, 0
2, 278400, Note_on_c, 0, 48, 0
2, 278400, Note_on_c, 0, 52, 0
2, 278568, Control_c, 0, 64, 0
2, 278607, Note_on_c, 0, 72, 0
2, 278616, Note_on_c, 0, 72, 40
2, 278653, Control_c, 0, 64, 127
2, 278983, Note_on_c, 0, 79, 0
2, 278989, Note_on_c, 0, 79, 58
2, 279756, Note_on_c, 0, 91, 67
2, 279760, Note_on_c, 0, 84, 66
2, 280542, Control_c, 0, 64, 0
2, 280957, Control_c, 0, 64, 127
2, 282240, Note_on_c, 0, 67, 0
2, 282240, Note_on_c, 0, 72, 0
2, 282240, Note_on_c, 0, 79, 0
2, 282240, Note_on_c, 0, 84, 0
2, 282240, Note_on_c, 0, 91, 0
2, 285803, Control_c, 0, 64, 0
2, 285804, End_track
0, 0, End_of_file
