0, 0, Header, 1, 2, 384
1, 0, Start_track
1, 0, Tempo, 500000
1, 0, Time_signature, 4, 2, 24, 8
1, 1, End_track
2, 0, Start_track
2, 1574, Control_c, 0, 64, 127
2, 1885, Note_on_c, 0, 52, 64
2, 1885, Note_on_c, 0, 40, 58
2, 2011, Note_on_c, 0, 54, 51
2, 2128, Note_on_c, 0, 55, 52
2, 2243, Note_on_c, 0, 62, 67
2, 2365, Note_on_c, 0, 55, 0
2, 2374, Note_on_c, 0, 55, 54
2, 2472, Note_on_c, 0, 54, 0
2, 2480, Note_on_c, 0, 54, 58
2, 2595, Note_on_c, 0, 52, 0
2, 2600, Note_on_c, 0, 52, 64
2, 2711, Note_on_c, 0, 54, 0
2, 2718, Note_on_c, 0, 54, 56
2, 2833, Note_on_c, 0, 55, 0
2, 2839, Note_on_c, 0, 55, 56
2, 2964, Note_on_c, 0, 62, 0
2, 2970, Note_on_c, 0, 62, 75
2, 3095, Note_on_c, 0, 55, 0
2, 3099, Note_on_c, 0, 55, 61
2, 3202, Note_on_c, 0, 54, 0
2, 3212, Note_on_c, 0, 54, 60
2, 3297, Control_c, 0, 64, 0
2, 3297, Note_on_c, 0, 54, 0
2, 3298, Note_on_c, 0, 55, 0
2, 3298, Note_on_c, 0, 62, 0
2, 3333, Note_on_c, 0, 52, 0
2, 3337, Note_on_c, 0, 43, 71
2, 3339, Note_on_c, 0, 52, 73
2, 3394, Control_c, 0, 64, 127
2, 3471, Note_on_c, 0, 54, 60
2, 3583, Note_on_c, 0, 55, 66
2, 3704, Note_on_c, 0, 62, 73
2, 3832, Note_on_c, 0, 55, 0
2, 3841, Note_on_c, 0, 55, 56
2, 3932, Note_on_c, 0, 54, 0
2, 3940, Note_on_c, 0, 54, 57
2, 4047, Note_on_c, 0, 52, 0
2, 4058, Note_on_c, 0, 52, 68
2, 4170, Note_on_c, 0, 54, 0
2, 4176, Note_on_c, 0, 54, 60
2, 4285, Note_on_c, 0, 55, 0
2, 4294, Note_on_c, 0, 55, 63
2, 4416, Note_on_c, 0, 62, 0
2, 4424, Note_on_c, 0, 62, 68
2, 4531, Note_on_c, 0, 55, 0
2, 4537, Note_on_c, 0, 55, 61
2, 4654, Note_on_c, 0, 54, 0
2, 4657, Note_on_c, 0, 54, 53
2, 4756, Note_on_c, 0, 54, 0
2, 4757, Note_on_c, 0, 43, 0
2, 4758, Note_on_c, 0, 55, 0
2, 4758, Note_on_c, 0, 62, 0
2, 4761, Note_on_c, 0, 40, 0
2, 4773, Control_c, 0, 64, 0
2, 4776, Note_on_c, 0, 52, 0
2, 4788, Note_on_c, 0, 52, 71
2, 4793, Note_on_c, 0, 48, 73
2, 4795, Note_on_c, 0, 36, 71
2, 4846, Control_c, 0, 64, 127
2, 4912, Note_on_c, 0, 54, 62
2, 5025, Note_on_c, 0, 55, 64
2, 5150, Note_on_c, 0, 62, 68
2, 5260, Note_on_c, 0, 55, 0
2, 5269, Note_on_c, 0, 55, 60
2, 5383, Note_on_c, 0, 54, 0
2, 5392, Note_on_c, 0, 54, 55
2, 5498, Note_on_c, 0, 52, 0
2, 5503, Note_on_c, 0, 52, 67
2, 5621, Note_on_c, 0, 54, 0
2, 5633, Note_on_c, 0, 54, 57
2, 5729, Note_on_c, 0, 55, 0
2, 5736, Note_on_c, 0, 55, 67
2, 5859, Note_on_c, 0, 62, 0
2, 5865, Note_on_c, 0, 62, 72
2, 5990, Note_on_c, 0, 55, 0
2, 5995, Note_on_c, 0, 55, 64
2, 6097, Note_on_c, 0, 54, 0
2, 6108, Note_on_c, 0, 54, 50
2, 6185, Note_on_c, 0, 48, 0
2, 6186, Note_on_c, 0, 54, 0
2, 6186, Note_on_c, 0, 55, 0
2, 6187, Note_on_c, 0, 62, 0
2, 6187, Note_on_c, 0, 36, 0
2, 6193, Control_c, 0, 64, 0
2, 6205, Note_on_c, 0, 52, 0
2, 6216, Note_on_c, 0, 33, 76
2, 6216, Note_on_c, 0, 52, 71
2, 6216, Note_on_c, 0, 45, 72
2, 6297, Control_c, 0, 64, 127
2, 6347, Note_on_c, 0, 54, 62
2, 6458, Note_on_c, 0, 55, 66
2, 6580, Note_on_c, 0, 60, 79
2, 6704, Note_on_c, 0, 55, 0
2, 6711, Note_on_c, 0, 55, 61
2, 6812, Note_on_c, 0, 54, 0
2, 6812, Note_on_c, 0, 55, 0
2, 6816, Note_on_c, 0, 54, 54
2, 6823, Note_on_c, 0, 55, 54
2, 6912, Note_on_c, 0, 52, 0
2, 6919, Note_on_c, 0, 55, 0
2, 6923, Note_on_c, 0, 52, 68
2, 6923, Note_on_c, 0, 55, 50
2, 7019, Note_on_c, 0, 54, 0
2, 7030, Note_on_c, 0, 54, 62
2, 7034, Note_on_c, 0, 33, 0
2, 7150, Note_on_c, 0, 55, 0
2, 7161, Note_on_c, 0, 55, 55
2, 7272, Note_on_c, 0, 60, 0
2, 7278, Note_on_c, 0, 60, 77
2, 7388, Note_on_c, 0, 55, 0
2, 7396, Note_on_c, 0, 55, 77
2, 7397, Note_on_c, 0, 43, 80
2, 7499, Note_on_c, 0, 42, 81
2, 7568, Note_on_c, 0, 43, 0
2, 7568, Note_on_c, 0, 42, 0
2, 7568, Note_on_c, 0, 52, 0
2, 7568, Note_on_c, 0, 60, 0
2, 7568, Control_c, 0, 64, 0
2, 7568, Note_on_c, 0, 55, 0
2, 7580, Note_on_c, 0, 45, 0
2, 7587, Note_on_c, 0, 54, 0
2, 7624, Note_on_c, 0, 40, 81
2, 7626, Note_on_c, 0, 28, 80
2, 7726, Control_c, 0, 64, 127
2, 7753, Note_on_c, 0, 54, 55
2, 7802, Note_on_c, 0, 28, 0
2, 7876, Note_on_c, 0, 55, 72
2, 8004, Note_on_c, 0, 62, 73
2, 8110, Note_on_c, 0, 55, 0
2, 8119, Note_on_c, 0, 55, 60
2, 8225, Note_on_c, 0, 54, 0
2, 8230, Note_on_c, 0, 54, 58
2, 8337, Note_on_c, 0, 71, 82
2, 8343, Note_on_c, 0, 64, 66
2, 8344, Note_on_c, 0, 67, 73
2, 8350, Note_on_c, 0, 52, 68
2, 8463, Note_on_c, 0, 54, 0
2, 8468, Note_on_c, 0, 54, 61
2, 8471, Note_on_c, 0, 55, 0
2, 8475, Note_on_c, 0, 55, 56
2, 8570, Note_on_c, 0, 55, 0
2, 8582, Note_on_c, 0, 55, 68
2, 8716, Note_on_c, 0, 62, 0
2, 8722, Note_on_c, 0, 62, 66
2, 8829, Note_on_c, 0, 67, 0
2, 8939, Note_on_c, 0, 54, 0
2, 8949, Note_on_c, 0, 54, 57
2, 9019, Control_c, 0, 64, 0
2, 9022, Note_on_c, 0, 54, 0
2, 9022, Note_on_c, 0, 62, 0
2, 9022, Note_on_c, 0, 40, 0
2, 9023, Note_on_c, 0, 55, 0
2, 9047, Note_on_c, 0, 52, 0
2, 9056, Note_on_c, 0, 31, 81
2, 9057, Note_on_c, 0, 52, 73
2, 9057, Note_on_c, 0, 43, 82
2, 9116, Note_on_c, 0, 52, 0
2, 9123, Control_c, 0, 64, 127
2, 9162, Note_on_c, 0, 64, 0
2, 9202, Note_on_c, 0, 54, 62
2, 9298, Note_on_c, 0, 55, 70
2, 9425, Note_on_c, 0, 62, 72
2, 9530, Note_on_c, 0, 55, 0
2, 9536, Note_on_c, 0, 55, 66
2, 9646, Note_on_c, 0, 54, 0
2, 9655, Note_on_c, 0, 54, 59
2, 9768, Note_on_c, 0, 71, 0
2, 9770, Note_on_c, 0, 74, 89
2, 9773, Note_on_c, 0, 71, 78
2, 9779, Note_on_c, 0, 67, 74
2, 9782, Note_on_c, 0, 52, 72
2, 9891, Note_on_c, 0, 54, 0
2, 9898, Note_on_c, 0, 54, 63
2, 9991, Note_on_c, 0, 55, 0
2, 10002, Note_on_c, 0, 55, 70
2, 10129, Note_on_c, 0, 62, 0
2, 10129, Note_on_c, 0, 74, 0
2, 10137, Note_on_c, 0, 74, 75
2, 10140, Note_on_c, 0, 62, 72
2, 10252, Note_on_c, 0, 55, 0
2, 10258, Note_on_c, 0, 55, 57
2, 10352, Note_on_c, 0, 54, 0
2, 10363, Note_on_c, 0, 54, 59
2, 10449, Control_c, 0, 64, 0
2, 10455, Note_on_c, 0, 54, 0
2, 10455, Note_on_c, 0, 71, 0
2, 10455, Note_on_c, 0, 67, 0
2, 10455, Note_on_c, 0, 62, 0
2, 10455, Note_on_c, 0, 74, 0
2, 10456, Note_on_c, 0, 55, 0
2, 10456, Note_on_c, 0, 43, 0
2, 10467, Note_on_c, 0, 31, 0
2, 10475, Note_on_c, 0, 52, 0
2, 10480, Note_on_c, 0, 48, 83
2, 10480, Note_on_c, 0, 36, 78
2, 10486, Note_on_c, 0, 52, 66
2, 10567, Control_c, 0, 64, 127
2, 10603, Note_on_c, 0, 54, 66
2, 10725, Note_on_c, 0, 55, 70
2, 10848, Note_on_c, 0, 62, 75
2, 10951, Note_on_c, 0, 55, 0
2, 10962, Note_on_c, 0, 55, 68
2, 11066, Note_on_c, 0, 54, 0
2, 11076, Note_on_c, 0, 54, 60
2, 11193, Note_on_c, 0, 72, 89
2, 11194, Note_on_c, 0, 64, 79
2, 11199, Note_on_c, 0, 67, 78
2, 11205, Note_on_c, 0, 52, 0
2, 11214, Note_on_c, 0, 52, 71
2, 11328, Note_on_c, 0, 55, 0
2, 11333, Note_on_c, 0, 55, 65
2, 11420, Note_on_c, 0, 55, 0
2, 11431, Note_on_c, 0, 55, 70
2, 11550, Note_on_c, 0, 62, 0
2, 11558, Note_on_c, 0, 62, 78
2, 11665, Note_on_c, 0, 55, 0
2, 11675, Note_on_c, 0, 55, 61
2, 11788, Note_on_c, 0, 54, 0
2, 11799, Note_on_c, 0, 54, 56
2, 11885, Note_on_c, 0, 67, 0
2, 11885, Note_on_c, 0, 62, 0
2, 11885, Control_c, 0, 64, 0
2, 11886, Note_on_c, 0, 54, 0
2, 11886, Note_on_c, 0, 48, 0
2, 11886, Note_on_c, 0, 72, 0
2, 11886, Note_on_c, 0, 36, 0
2, 11904, Note_on_c, 0, 52, 0
2, 11904, Note_on_c, 0, 55, 0
2, 11908, Note_on_c, 0, 52, 77
2, 11911, Note_on_c, 0, 64, 0
2, 11912, Note_on_c, 0, 50, 89
2, 11916, Note_on_c, 0, 38, 86
2, 11988, Control_c, 0, 64, 127
2, 12033, Note_on_c, 0, 54, 74
2, 12145, Note_on_c, 0, 55, 85
2, 12172, Note_on_c, 0, 52, 0
2, 12259, Note_on_c, 0, 62, 84
2, 12366, Note_on_c, 0, 57, 89
2, 12488, Note_on_c, 0, 64, 88
2, 12614, Note_on_c, 0, 66, 97
2, 12614, Note_on_c, 0, 74, 96
2, 12615, Note_on_c, 0, 69, 93
2, 12710, Note_on_c, 0, 62, 0
2, 12716, Note_on_c, 0, 62, 85
2, 12833, Note_on_c, 0, 67, 93
2, 12948, Note_on_c, 0, 69, 0
2, 12952, Note_on_c, 0, 69, 98
2, 13063, Note_on_c, 0, 66, 0
2, 13072, Note_on_c, 0, 66, 102
2, 13171, Note_on_c, 0, 74, 0
2, 13180, Note_on_c, 0, 74, 87
2, 13247, Note_on_c, 0, 67, 0
2, 13247, Note_on_c, 0, 55, 0
2, 13248, Note_on_c, 0, 54, 0
2, 13248, Note_on_c, 0, 62, 0
2, 13248, Note_on_c, 0, 64, 0
2, 13249, Note_on_c, 0, 69, 0
2, 13249, Note_on_c, 0, 57, 0
2, 13249, Note_on_c, 0, 50, 0
2, 13250, Note_on_c, 0, 66, 0
2, 13250, Note_on_c, 0, 74, 0
2, 13250, Note_on_c, 0, 38, 0
2, 13253, Control_c, 0, 64, 0
2, 13305, Note_on_c, 0, 76, 107
2, 13305, Note_on_c, 0, 64, 98
2, 13309, Note_on_c, 0, 40, 97
2, 13312, Note_on_c, 0, 28, 97
2, 13332, Control_c, 0, 64, 127
2, 13386, Note_on_c, 0, 64, 0
2, 13432, Note_on_c, 0, 40, 0
2, 13478, Note_on_c, 0, 76, 0
2, 13478, Control_c, 0, 64, 0
2, 13493, Note_on_c, 0, 28, 0
2, 14014, Note_on_c, 0, 52, 99
2, 14019, Note_on_c, 0, 40, 90
2, 14022, Note_on_c, 0, 28, 90
2, 14077, Control_c, 0, 64, 127
2, 14515, Note_on_c, 0, 28, 0
2, 14515, Note_on_c, 0, 40, 0
2, 14519, Note_on_c, 0, 28, 81
2, 14520, Note_on_c, 0, 40, 75
2, 14565, Control_c, 0, 64, 0
2, 14576, Control_c, 0, 64, 127
2, 14633, Note_on_c, 0, 30, 85
2, 14634, Note_on_c, 0, 42, 82
2, 14679, Note_on_c, 0, 30, 0
2, 14680, Note_on_c, 0, 42, 0
2, 14684, Note_on_c, 0, 28, 0
2, 14691, Note_on_c, 0, 40, 0
2, 14702, Control_c, 0, 64, 0
2, 14730, Note_on_c, 0, 52, 0
2, 14761, Note_on_c, 0, 55, 93
2, 14764, Note_on_c, 0, 31, 91
2, 14765, Note_on_c, 0, 43, 89
2, 14770, Note_on_c, 0, 50, 93
2, 14791, Control_c, 0, 64, 127
2, 14883, Note_on_c, 0, 31, 0
2, 14883, Note_on_c, 0, 43, 0
2, 14889, Note_on_c, 0, 31, 87
2, 14891, Note_on_c, 0, 43, 90
2, 14909, Control_c, 0, 64, 0
2, 14910, Note_on_c, 0, 55, 0
2, 14911, Note_on_c, 0, 50, 0
2, 14960, Note_on_c, 0, 43, 0
2, 14976, Note_on_c, 0, 31, 0
2, 15496, Note_on_c, 0, 55, 92
2, 15499, Note_on_c, 0, 31, 92
2, 15500, Note_on_c, 0, 50, 91
2, 15502, Note_on_c, 0, 43, 87
2, 15502, Note_on_c, 0, 59, 80
2, 15559, Control_c, 0, 64, 127
2, 15728, Note_on_c, 0, 55, 0
2, 15731, Note_on_c, 0, 61, 68
2, 15731, Note_on_c, 0, 33, 84
2, 15732, Note_on_c, 0, 45, 83
2, 15732, Note_on_c, 0, 55, 80
2, 15736, Note_on_c, 0, 61, 0
2, 15965, Note_on_c, 0, 47, 93
2, 15969, Note_on_c, 0, 35, 84
2, 16203, Control_c, 0, 64, 0
2, 16203, Note_on_c, 0, 45, 0
2, 16205, Note_on_c, 0, 43, 0
2, 16206, Note_on_c, 0, 47, 0
2, 16206, Note_on_c, 0, 33, 0
2, 16206, Note_on_c, 0, 55, 0
2, 16207, Note_on_c, 0, 35, 0
2, 16207, Note_on_c, 0, 50, 0
2, 16209, Note_on_c, 0, 52, 99
2, 16209, Note_on_c, 0, 48, 98
2, 16209, Note_on_c, 0, 60, 79
2, 16209, Note_on_c, 0, 36, 91
2, 16212, Note_on_c, 0, 31, 0
2, 16220, Note_on_c, 0, 59, 0
2, 16408, Note_on_c, 0, 48, 0
2, 16412, Note_on_c, 0, 36, 0
2, 16412, Note_on_c, 0, 52, 0
2, 16427, Note_on_c, 0, 60, 0
2, 16957, Note_on_c, 0, 52, 96
2, 16959, Note_on_c, 0, 48, 93
2, 16960, Note_on_c, 0, 36, 87
2, 16995, Control_c, 0, 64, 127
2, 17440, Note_on_c, 0, 47, 86
2, 17443, Note_on_c, 0, 35, 80
2, 17548, Note_on_c, 0, 36, 0
2, 17548, Note_on_c, 0, 48, 0
2, 17559, Note_on_c, 0, 36, 89
2, 17560, Note_on_c, 0, 48, 88
2, 17636, Note_on_c, 0, 36, 0
2, 17636, Note_on_c, 0, 47, 0
2, 17636, Note_on_c, 0, 48, 0
2, 17637, Note_on_c, 0, 35, 0
2, 17637, Note_on_c, 0, 52, 0
2, 17642, Control_c, 0, 64, 0
2, 17683, Note_on_c, 0, 33, 92
2, 17683, Note_on_c, 0, 45, 90
2, 17925, Control_c, 0, 64, 127
2, 18040, Note_on_c, 0, 33, 0
2, 18049, Note_on_c, 0, 33, 76
2, 18167, Note_on_c, 0, 55, 100
2, 18391, Control_c, 0, 64, 0
2, 18407, Note_on_c, 0, 47, 90
2, 18409, Note_on_c, 0, 35, 85
2, 18427, Note_on_c, 0, 33, 0
2, 18434, Note_on_c, 0, 45, 0
2, 18547, Control_c, 0, 64, 127
2, 18670, Note_on_c, 0, 57, 91
2, 18891, Note_on_c, 0, 31, 83
2, 18894, Note_on_c, 0, 43, 79
2, 19019, Note_on_c, 0, 42, 79
2, 19019, Note_on_c, 0, 30, 85
2, 19094, Note_on_c, 0, 31, 0
2, 19095, Note_on_c, 0, 43, 0
2, 19095, Note_on_c, 0, 30, 0
2, 19095, Note_on_c, 0, 47, 0
2, 19095, Note_on_c, 0, 35, 0
2, 19096, Note_on_c, 0, 57, 0
2, 19096, Control_c, 0, 64, 0
2, 19107, Note_on_c, 0, 42, 0
2, 19107, Note_on_c, 0, 55, 0
2, 19129, Note_on_c, 0, 71, 103
2, 19134, Note_on_c, 0, 59, 96
2, 19135, Note_on_c, 0, 40, 94
2, 19135, Note_on_c, 0, 67, 93
2, 19139, Note_on_c, 0, 28, 97
2, 19153, Control_c, 0, 64, 127
2, 19238, Note_on_c, 0, 71, 0
2, 19246, Note_on_c, 0, 28, 0
2, 19246, Note_on_c, 0, 40, 0
2, 19246, Note_on_c, 0, 59, 0
2, 19246, Note_on_c, 0, 67, 0
2, 19247, Note_on_c, 0, 71, 94
2, 19250, Note_on_c, 0, 28, 88
2, 19250, Note_on_c, 0, 59, 89
2, 19250, Note_on_c, 0, 40, 92
2, 19253, Note_on_c, 0, 62, 76
2, 19254, Note_on_c, 0, 67, 87
2, 19261, Note_on_c, 0, 62, 0
2, 19298, Note_on_c, 0, 67, 0
2, 19301, Note_on_c, 0, 71, 0
2, 19309, Control_c, 0, 64, 0
2, 19330, Note_on_c, 0, 28, 0
2, 19345, Note_on_c, 0, 59, 0
2, 19377, Note_on_c, 0, 66, 88
2, 19416, Note_on_c, 0, 66, 0
2, 19453, Note_on_c, 0, 40, 0
2, 19493, Note_on_c, 0, 67, 89
2, 19526, Note_on_c, 0, 67, 0
2, 19607, Note_on_c, 0, 66, 85
2, 19642, Note_on_c, 0, 66, 0
2, 19716, Note_on_c, 0, 62, 91
2, 19753, Note_on_c, 0, 62, 0
2, 19844, Note_on_c, 0, 71, 102
2, 19849, Note_on_c, 0, 59, 94
2, 19849, Note_on_c, 0, 28, 90
2, 19849, Note_on_c, 0, 40, 90
2, 19914, Control_c, 0, 64, 127
2, 19977, Note_on_c, 0, 62, 82
2, 20078, Note_on_c, 0, 66, 83
2, 20198, Note_on_c, 0, 67, 87
2, 20326, Note_on_c, 0, 69, 98
2, 20328, Note_on_c, 0, 28, 0
2, 20328, Note_on_c, 0, 40, 0
2, 20331, Note_on_c, 0, 57, 90
2, 20334, Note_on_c, 0, 40, 86
2, 20337, Note_on_c, 0, 28, 80
2, 20444, Note_on_c, 0, 60, 78
2, 20444, Note_on_c, 0, 59, 0
2, 20444, Note_on_c, 0, 69, 0
2, 20444, Note_on_c, 0, 71, 0
2, 20447, Note_on_c, 0, 72, 84
2, 20448, Note_on_c, 0, 59, 87
2, 20452, Note_on_c, 0, 30, 85
2, 20453, Note_on_c, 0, 42, 84
2, 20454, Note_on_c, 0, 69, 78
2, 20454, Note_on_c, 0, 71, 75
2, 20486, Note_on_c, 0, 28, 0
2, 20488, Note_on_c, 0, 40, 0
2, 20488, Note_on_c, 0, 69, 0
2, 20489, Note_on_c, 0, 62, 0
2, 20489, Note_on_c, 0, 71, 0
2, 20490, Note_on_c, 0, 67, 0
2, 20490, Note_on_c, 0, 59, 0
2, 20491, Note_on_c, 0, 57, 0
2, 20491, Note_on_c, 0, 66, 0
2, 20492, Control_c, 0, 64, 0
2, 20495, Note_on_c, 0, 72, 0
2, 20505, Note_on_c, 0, 30, 0
2, 20505, Note_on_c, 0, 42, 0
2, 20536, Note_on_c, 0, 60, 0
2, 20548, Note_on_c, 0, 62, 96
2, 20548, Note_on_c, 0, 74, 104
2, 20550, Note_on_c, 0, 71, 89
2, 20551, Note_on_c, 0, 31, 90
2, 20551, Note_on_c, 0, 43, 97
2, 20582, Control_c, 0, 64, 127
2, 20584, Note_on_c, 0, 62, 0
2, 20620, Note_on_c, 0, 71, 0
2, 20666, Note_on_c, 0, 31, 0
2, 20672, Note_on_c, 0, 31, 89
2, 20673, Note_on_c, 0, 62, 90
2, 20674, Note_on_c, 0, 71, 84
2, 20717, Note_on_c, 0, 43, 0
2, 20717, Control_c, 0, 64, 0
2, 20728, Note_on_c, 0, 74, 0
2, 20766, Note_on_c, 0, 31, 0
2, 20797, Note_on_c, 0, 71, 0
2, 20817, Note_on_c, 0, 66, 83
2, 20843, Note_on_c, 0, 62, 0
2, 20866, Note_on_c, 0, 66, 0
2, 20918, Note_on_c, 0, 67, 93
2, 20955, Note_on_c, 0, 67, 0
2, 21045, Note_on_c, 0, 66, 85
2, 21084, Note_on_c, 0, 66, 0
2, 21148, Note_on_c, 0, 62, 83
2, 21177, Note_on_c, 0, 62, 0
2, 21270, Note_on_c, 0, 67, 98
2, 21271, Note_on_c, 0, 55, 96
2, 21273, Note_on_c, 0, 31, 91
2, 21275, Note_on_c, 0, 43, 91
2, 21319, Control_c, 0, 64, 127
2, 21388, Note_on_c, 0, 62, 80
2, 21504, Note_on_c, 0, 67, 0
2, 21508, Note_on_c, 0, 45, 86
2, 21508, Note_on_c, 0, 33, 85
2, 21509, Note_on_c, 0, 67, 76
2, 21634, Note_on_c, 0, 62, 0
2, 21639, Note_on_c, 0, 62, 81
2, 21747, Note_on_c, 0, 47, 87
2, 21749, Note_on_c, 0, 35, 81
2, 21753, Note_on_c, 0, 66, 81
2, 21857, Note_on_c, 0, 67, 0
2, 21866, Note_on_c, 0, 67, 73
2, 21932, Control_c, 0, 64, 0
2, 21939, Note_on_c, 0, 31, 0
2, 21941, Note_on_c, 0, 62, 0
2, 21941, Note_on_c, 0, 33, 0
2, 21942, Note_on_c, 0, 45, 0
2, 21942, Note_on_c, 0, 66, 0
2, 21942, Note_on_c, 0, 35, 0
2, 21943, Note_on_c, 0, 55, 0
2, 21943, Note_on_c, 0, 43, 0
2, 21944, Note_on_c, 0, 47, 0
2, 21972, Note_on_c, 0, 67, 0
2, 21976, Note_on_c, 0, 48, 98
2, 21978, Note_on_c, 0, 64, 96
2, 21978, Note_on_c, 0, 76, 101
2, 21979, Note_on_c, 0, 36, 94
2, 21981, Note_on_c, 0, 67, 91
2, 22018, Control_c, 0, 64, 127
2, 22056, Note_on_c, 0, 48, 0
2, 22095, Note_on_c, 0, 36, 0
2, 22105, Note_on_c, 0, 36, 82
2, 22107, Note_on_c, 0, 48, 86
2, 22182, Control_c, 0, 64, 0
2, 22183, Note_on_c, 0, 48, 0
2, 22184, Note_on_c, 0, 36, 0
2, 22186, Note_on_c, 0, 76, 0
2, 22188, Note_on_c, 0, 67, 0
2, 22195, Note_on_c, 0, 64, 0
2, 22225, Note_on_c, 0, 66, 88
2, 22259, Note_on_c, 0, 66, 0
2, 22336, Note_on_c, 0, 67, 86
2, 22361, Note_on_c, 0, 67, 0
2, 22458, Note_on_c, 0, 66, 86
2, 22507, Note_on_c, 0, 66, 0
2, 22571, Note_on_c, 0, 62, 79
2, 22636, Note_on_c, 0, 62, 0
2, 22691, Note_on_c, 0, 48, 95
2, 22691, Note_on_c, 0, 36, 93
2, 22778, Control_c, 0, 64, 127
2, 22813, Note_on_c, 0, 62, 81
2, 22913, Note_on_c, 0, 74, 101
2, 22914, Note_on_c, 0, 66, 96
2, 23024, Note_on_c, 0, 62, 0
2, 23032, Note_on_c, 0, 62, 83
2, 23055, Note_on_c, 0, 36, 0
2, 23055, Note_on_c, 0, 48, 0
2, 23059, Note_on_c, 0, 36, 75
2, 23060, Note_on_c, 0, 48, 71
2, 23158, Note_on_c, 0, 64, 88
2, 23158, Note_on_c, 0, 76, 100
2, 23255, Note_on_c, 0, 66, 0
2, 23262, Note_on_c, 0, 47, 93
2, 23263, Note_on_c, 0, 35, 86
2, 23265, Note_on_c, 0, 66, 91
2, 23266, Note_on_c, 0, 78, 97
2, 23321, Note_on_c, 0, 48, 0
2, 23322, Note_on_c, 0, 36, 0
2, 23322, Note_on_c, 0, 74, 0
2, 23322, Note_on_c, 0, 62, 0
2, 23323, Note_on_c, 0, 66, 0
2, 23323, Note_on_c, 0, 64, 0
2, 23324, Note_on_c, 0, 47, 0
2, 23325, Note_on_c, 0, 35, 0
2, 23326, Control_c, 0, 64, 0
2, 23326, Note_on_c, 0, 76, 0
2, 23327, Note_on_c, 0, 78, 0
2, 23378, Note_on_c, 0, 79, 104
2, 23379, Note_on_c, 0, 67, 100
2, 23383, Note_on_c, 0, 33, 98
2, 23389, Note_on_c, 0, 45, 93
2, 23493, Control_c, 0, 64, 127
2, 23513, Note_on_c, 0, 64, 88
2, 23623, Note_on_c, 0, 66, 86
2, 23627, Note_on_c, 0, 52, 77
2, 23743, Note_on_c, 0, 69, 91
2, 23744, Note_on_c, 0, 60, 84
2, 23745, Note_on_c, 0, 57, 79
2, 23875, Note_on_c, 0, 78, 96
2, 23961, Note_on_c, 0, 79, 0
2, 23967, Note_on_c, 0, 79, 92
2, 24055, Control_c, 0, 64, 0
2, 24055, Note_on_c, 0, 52, 0
2, 24055, Note_on_c, 0, 79, 0
2, 24056, Note_on_c, 0, 60, 0
2, 24056, Note_on_c, 0, 69, 0
2, 24056, Note_on_c, 0, 57, 0
2, 24056, Note_on_c, 0, 64, 0
2, 24056, Note_on_c, 0, 66, 0
2, 24057, Note_on_c, 0, 78, 0
2, 24061, Note_on_c, 0, 45, 0
2, 24069, Note_on_c, 0, 33, 0
2, 24069, Note_on_c, 0, 67, 0
2, 24096, Note_on_c, 0, 81, 104
2, 24101, Note_on_c, 0, 69, 98
2, 24101, Note_on_c, 0, 74, 100
2, 24102, Note_on_c, 0, 50, 97
2, 24103, Note_on_c, 0, 38, 96
2, 24145, Control_c, 0, 64, 127
2, 24342, Note_on_c, 0, 62, 86
2, 24347, Note_on_c, 0, 57, 64
2, 24348, Note_on_c, 0, 54, 77
2, 24460, Note_on_c, 0, 69, 0
2, 24467, Note_on_c, 0, 69, 92
2, 24583, Note_on_c, 0, 74, 0
2, 24588, Note_on_c, 0, 74, 90
2, 24675, Note_on_c, 0, 81, 0
2, 24682, Note_on_c, 0, 81, 93
2, 24787, Control_c, 0, 64, 0
2, 24788, Note_on_c, 0, 74, 0
2, 24788, Note_on_c, 0, 69, 0
2, 24789, Note_on_c, 0, 81, 0
2, 24789, Note_on_c, 0, 62, 0
2, 24789, Note_on_c, 0, 57, 0
2, 24790, Note_on_c, 0, 50, 0
2, 24790, Note_on_c, 0, 54, 0
2, 24791, Note_on_c, 0, 38, 0
2, 24824, Note_on_c, 0, 83, 106
2, 24826, Note_on_c, 0, 40, 93
2, 24827, Note_on_c, 0, 28, 95
2, 24827, Note_on_c, 0, 71, 99
2, 24828, Note_on_c, 0, 79, 90
2, 24832, Note_on_c, 0, 76, 98
2, 24870, Note_on_c, 0, 28, 0
2, 24960, Control_c, 0, 64, 127
2, 25044, Note_on_c, 0, 71, 0
2, 25190, Note_on_c, 0, 40, 0
2, 25200, Note_on_c, 0, 40, 64
2, 25309, Note_on_c, 0, 59, 81
2, 25324, Note_on_c, 0, 55, 53
2, 25413, Note_on_c, 0, 40, 0
2, 25423, Note_on_c, 0, 40, 66
2, 25543, Note_on_c, 0, 59, 0
2, 25548, Control_c, 0, 64, 0
2, 25551, Note_on_c, 0, 40, 0
2, 25551, Note_on_c, 0, 55, 0
2, 25552, Note_on_c, 0, 59, 74
2, 25554, Note_on_c, 0, 52, 74
2, 25555, Note_on_c, 0, 40, 73
2, 25557, Note_on_c, 0, 55, 69
2, 25557, Note_on_c, 0, 28, 75
2, 25597, Control_c, 0, 64, 127
2, 25789, Note_on_c, 0, 52, 0
2, 25789, Note_on_c, 0, 55, 0
2, 25789, Note_on_c, 0, 59, 0
2, 25793, Note_on_c, 0, 59, 82
2, 25794, Note_on_c, 0, 55, 69
2, 25796, Note_on_c, 0, 52, 63
2, 26027, Note_on_c, 0, 40, 0
2, 26035, Note_on_c, 0, 59, 0
2, 26037, Note_on_c, 0, 40, 77
2, 26045, Note_on_c, 0, 59, 66
2, 26146, Note_on_c, 0, 42, 77
2, 26229, Control_c, 0, 64, 0
2, 26273, Note_on_c, 0, 59, 0
2, 26274, Note_on_c, 0, 31, 86
2, 26277, Note_on_c, 0, 59, 73
2, 26288, Note_on_c, 0, 76, 0
2, 26296, Note_on_c, 0, 40, 0
2, 26296, Note_on_c, 0, 42, 0
2, 26302, Note_on_c, 0, 55, 0
2, 26305, Note_on_c, 0, 52, 0
2, 26311, Note_on_c, 0, 28, 0
2, 26342, Note_on_c, 0, 59, 0
2, 26357, Note_on_c, 0, 83, 0
2, 26393, Note_on_c, 0, 43, 77
2, 26397, Note_on_c, 0, 59, 71
2, 26496, Control_c, 0, 64, 127
2, 26664, Note_on_c, 0, 43, 0
2, 26664, Note_on_c, 0, 59, 0
2, 26670, Note_on_c, 0, 43, 66
2, 26673, Note_on_c, 0, 55, 58
2, 26674, Note_on_c, 0, 59, 66
2, 26749, Note_on_c, 0, 59, 0
2, 26757, Note_on_c, 0, 55, 0
2, 26757, Note_on_c, 0, 59, 77
2, 26761, Note_on_c, 0, 50, 70
2, 26763, Note_on_c, 0, 55, 65
2, 26872, Note_on_c, 0, 43, 0
2, 26877, Note_on_c, 0, 43, 65
2, 27010, Note_on_c, 0, 31, 0
2, 27010, Note_on_c, 0, 50, 0
2, 27010, Note_on_c, 0, 55, 0
2, 27010, Note_on_c, 0, 59, 0
2, 27014, Note_on_c, 0, 59, 85
2, 27021, Note_on_c, 0, 31, 82
2, 27021, Note_on_c, 0, 50, 80
2, 27021, Note_on_c, 0, 55, 72
2, 27048, Control_c, 0, 64, 0
2, 27133, Control_c, 0, 64, 127
2, 27264, Note_on_c, 0, 59, 0
2, 27271, Note_on_c, 0, 50, 0
2, 27271, Note_on_c, 0, 55, 0
2, 27275, Note_on_c, 0, 59, 78
2, 27275, Note_on_c, 0, 50, 73
2, 27280, Note_on_c, 0, 55, 65
2, 27502, Note_on_c, 0, 50, 0
2, 27502, Note_on_c, 0, 55, 0
2, 27502, Note_on_c, 0, 59, 0
2, 27510, Note_on_c, 0, 57, 69
2, 27510, Note_on_c, 0, 55, 69
2, 27511, Note_on_c, 0, 50, 75
2, 27512, Note_on_c, 0, 59, 79
2, 27516, Note_on_c, 0, 47, 68
2, 27517, Note_on_c, 0, 57, 0
2, 27525, Note_on_c, 0, 47, 0
2, 27609, Note_on_c, 0, 59, 0
2, 27616, Note_on_c, 0, 47, 77
2, 27616, Note_on_c, 0, 59, 64
2, 27694, Note_on_c, 0, 79, 0
2, 27705, Note_on_c, 0, 47, 0
2, 27705, Note_on_c, 0, 55, 0
2, 27706, Note_on_c, 0, 50, 0
2, 27706, Note_on_c, 0, 59, 0
2, 27709, Note_on_c, 0, 31, 0
2, 27710, Control_c, 0, 64, 0
2, 27717, Note_on_c, 0, 43, 0
2, 27742, Note_on_c, 0, 60, 74
2, 27742, Note_on_c, 0, 48, 94
2, 27743, Note_on_c, 0, 64, 75
2, 27743, Note_on_c, 0, 36, 88
2, 27744, Note_on_c, 0, 55, 72
2, 27746, Note_on_c, 0, 52, 71
2, 27755, Note_on_c, 0, 52, 0
2, 27809, Note_on_c, 0, 55, 0
2, 27816, Note_on_c, 0, 60, 0
2, 27878, Control_c, 0, 64, 127
2, 28108, Note_on_c, 0, 48, 0
2, 28113, Note_on_c, 0, 60, 65
2, 28114, Note_on_c, 0, 48, 81
2, 28117, Note_on_c, 0, 52, 55
2, 28243, Note_on_c, 0, 59, 75
2, 28247, Note_on_c, 0, 48, 0
2, 28247, Note_on_c, 0, 52, 0
2, 28250, Note_on_c, 0, 52, 64
2, 28251, Note_on_c, 0, 48, 62
2, 28251, Note_on_c, 0, 55, 63
2, 28339, Note_on_c, 0, 48, 0
2, 28346, Note_on_c, 0, 55, 0
2, 28346, Note_on_c, 0, 64, 0
2, 28349, Note_on_c, 0, 48, 81
2, 28350, Note_on_c, 0, 64, 67
2, 28356, Note_on_c, 0, 55, 62
2, 28469, Note_on_c, 0, 48, 0
2, 28469, Note_on_c, 0, 52, 0
2, 28469, Note_on_c, 0, 59, 0
2, 28477, Note_on_c, 0, 36, 0
2, 28477, Note_on_c, 0, 55, 0
2, 28480, Note_on_c, 0, 52, 72
2, 28480, Note_on_c, 0, 48, 81
2, 28481, Note_on_c, 0, 59, 78
2, 28481, Note_on_c, 0, 36, 76
2, 28483, Note_on_c, 0, 55, 66
2, 28723, Note_on_c, 0, 52, 0
2, 28723, Note_on_c, 0, 55, 0
2, 28723, Note_on_c, 0, 59, 0
2, 28727, Note_on_c, 0, 55, 74
2, 28727, Note_on_c, 0, 59, 74
2, 28728, Note_on_c, 0, 52, 73
2, 28730, Note_on_c, 0, 48, 0
2, 28734, Note_on_c, 0, 47, 64
2, 28740, Note_on_c, 0, 48, 68
2, 28769, Control_c, 0, 64, 0
2, 28853, Control_c, 0, 64, 127
2, 28961, Note_on_c, 0, 52, 0
2, 28961, Note_on_c, 0, 59, 0
2, 28968, Note_on_c, 0, 47, 0
2, 28968, Note_on_c, 0, 55, 0
2, 28972, Note_on_c, 0, 59, 69
2, 28972, Note_on_c, 0, 52, 69
2, 28972, Note_on_c, 0, 47, 68
2, 28980, Note_on_c, 0, 55, 62
2, 29061, Note_on_c, 0, 36, 0
2, 29061, Note_on_c, 0, 48, 0
2, 29070, Note_on_c, 0, 36, 65
2, 29071, Note_on_c, 0, 48, 72
2, 29161, Control_c, 0, 64, 0
2, 29167, Note_on_c, 0, 48, 0
2, 29168, Note_on_c, 0, 47, 0
2, 29169, Note_on_c, 0, 36, 0
2, 29170, Note_on_c, 0, 59, 0
2, 29176, Note_on_c, 0, 60, 0
2, 29184, Note_on_c, 0, 52, 0
2, 29194, Note_on_c, 0, 33, 88
2, 29195, Note_on_c, 0, 52, 75
2, 29195, Note_on_c, 0, 45, 87
2, 29195, Note_on_c, 0, 40, 77
2, 29199, Note_on_c, 0, 64, 0
2, 29222, Note_on_c, 0, 55, 0
2, 29237, Note_on_c, 0, 40, 0
2, 29276, Note_on_c, 0, 52, 0
2, 29291, Note_on_c, 0, 45, 0
2, 29322, Note_on_c, 0, 33, 0
2, 29326, Note_on_c, 0, 45, 69
2, 29327, Note_on_c, 0, 33, 69
2, 29414, Control_c, 0, 64, 127
2, 29575, Note_on_c, 0, 45, 0
2, 29581, Note_on_c, 0, 45, 64
2, 29698, Note_on_c, 0, 33, 0
2, 29700, Note_on_c, 0, 52, 73
2, 29703, Note_on_c, 0, 59, 76
2, 29707, Note_on_c, 0, 47, 64
2, 29708, Note_on_c, 0, 33, 67
2, 29806, Note_on_c, 0, 33, 0
2, 29806, Note_on_c, 0, 45, 0
2, 29812, Note_on_c, 0, 52, 0
2, 29814, Note_on_c, 0, 45, 79
2, 29815, Note_on_c, 0, 33, 69
2, 29885, Note_on_c, 0, 45, 0
2, 29887, Note_on_c, 0, 59, 0
2, 29889, Control_c, 0, 64, 0
2, 29890, Note_on_c, 0, 47, 0
2, 29933, Note_on_c, 0, 86, 102
2, 29936, Note_on_c, 0, 33, 0
2, 29939, Note_on_c, 0, 81, 96
2, 29939, Note_on_c, 0, 74, 99
2, 29940, Note_on_c, 0, 78, 96
2, 29941, Note_on_c, 0, 33, 93
2, 29944, Note_on_c, 0, 45, 88
2, 29975, Control_c, 0, 64, 127
2, 30172, Note_on_c, 0, 84, 104
2, 30175, Note_on_c, 0, 72, 102
2, 30307, Note_on_c, 0, 59, 73
2, 30310, Note_on_c, 0, 47, 86
2, 30312, Note_on_c, 0, 59, 0
2, 30320, Note_on_c, 0, 33, 0
2, 30425, Note_on_c, 0, 43, 77
2, 30520, Note_on_c, 0, 81, 0
2, 30524, Note_on_c, 0, 81, 97
2, 30528, Note_on_c, 0, 69, 92
2, 30528, Note_on_c, 0, 42, 79
2, 30601, Note_on_c, 0, 86, 0
2, 30601, Control_c, 0, 64, 0
2, 30602, Note_on_c, 0, 72, 0
2, 30602, Note_on_c, 0, 81, 0
2, 30603, Note_on_c, 0, 74, 0
2, 30603, Note_on_c, 0, 45, 0
2, 30603, Note_on_c, 0, 47, 0
2, 30604, Note_on_c, 0, 78, 0
2, 30606, Note_on_c, 0, 69, 0
2, 30607, Note_on_c, 0, 43, 0
2, 30612, Note_on_c, 0, 42, 0
2, 30620, Note_on_c, 0, 84, 0
2, 30653, Note_on_c, 0, 69, 100
2, 30654, Note_on_c, 0, 40, 97
2, 30655, Note_on_c, 0, 28, 90
2, 30655, Note_on_c, 0, 81, 96
2, 30661, Note_on_c, 0, 83, 92
2, 30662, Note_on_c, 0, 74, 83
2, 30666, Note_on_c, 0, 83, 0
2, 30704, Control_c, 0, 64, 127
2, 30769, Note_on_c, 0, 83, 102
2, 30769, Note_on_c, 0, 71, 95
2, 30772, Note_on_c, 0, 79, 80
2, 30776, Note_on_c, 0, 76, 94
2, 31023, Note_on_c, 0, 67, 80
2, 31038, Note_on_c, 0, 59, 62
2, 31050, Note_on_c, 0, 40, 0
2, 31050, Note_on_c, 0, 59, 0
2, 31056, Note_on_c, 0, 40, 61
2, 31057, Note_on_c, 0, 28, 0
2, 31062, Note_on_c, 0, 28, 64
2, 31153, Note_on_c, 0, 66, 71
2, 31257, Note_on_c, 0, 40, 0
2, 31263, Note_on_c, 0, 62, 73
2, 31268, Note_on_c, 0, 40, 65
2, 31365, Note_on_c, 0, 74, 0
2, 31368, Control_c, 0, 64, 0
2, 31371, Note_on_c, 0, 71, 0
2, 31371, Note_on_c, 0, 81, 0
2, 31371, Note_on_c, 0, 79, 0
2, 31371, Note_on_c, 0, 66, 0
2, 31372, Note_on_c, 0, 76, 0
2, 31373, Note_on_c, 0, 83, 0
2, 31373, Note_on_c, 0, 69, 0
2, 31373, Note_on_c, 0, 67, 0
2, 31380, Note_on_c, 0, 28, 0
2, 31380, Note_on_c, 0, 40, 0
2, 31380, Note_on_c, 0, 62, 0
2, 31381, Note_on_c, 0, 57, 81
2, 31384, Note_on_c, 0, 62, 68
2, 31385, Note_on_c, 0, 40, 87
2, 31388, Note_on_c, 0, 28, 88
2, 31457, Note_on_c, 0, 62, 0
2, 31503, Control_c, 0, 64, 127
2, 31508, Note_on_c, 0, 62, 74
2, 31514, Note_on_c, 0, 59, 53
2, 31518, Note_on_c, 0, 59, 0
2, 31640, Note_on_c, 0, 66, 84
2, 31641, Note_on_c, 0, 62, 0
2, 31652, Note_on_c, 0, 62, 49
2, 31753, Note_on_c, 0, 67, 76
2, 31864, Note_on_c, 0, 28, 0
2, 31864, Note_on_c, 0, 40, 0
2, 31869, Note_on_c, 0, 40, 79
2, 31872, Note_on_c, 0, 66, 0
2, 31873, Note_on_c, 0, 28, 78
2, 31882, Note_on_c, 0, 66, 70
2, 31987, Note_on_c, 0, 62, 0
2, 31998, Note_on_c, 0, 62, 69
2, 31998, Note_on_c, 0, 42, 76
2, 32046, Control_c, 0, 64, 0
2, 32048, Note_on_c, 0, 28, 0
2, 32048, Note_on_c, 0, 57, 0
2, 32050, Note_on_c, 0, 40, 0
2, 32050, Note_on_c, 0, 67, 0
2, 32051, Note_on_c, 0, 62, 0
2, 32051, Note_on_c, 0, 66, 0
2, 32051, Note_on_c, 0, 42, 0
2, 32113, Note_on_c, 0, 31, 90
2, 32117, Note_on_c, 0, 59, 76
2, 32217, Control_c, 0, 64, 127
2, 32245, Note_on_c, 0, 43, 72
2, 32250, Note_on_c, 0, 62, 64
2, 32371, Note_on_c, 0, 66, 83
2, 32482, Note_on_c, 0, 67, 81
2, 32486, Note_on_c, 0, 43, 0
2, 32486, Note_on_c, 0, 59, 0
2, 32486, Note_on_c, 0, 62, 0
2, 32490, Note_on_c, 0, 55, 75
2, 32492, Note_on_c, 0, 62, 64
2, 32496, Note_on_c, 0, 59, 69
2, 32497, Note_on_c, 0, 43, 77
2, 32609, Note_on_c, 0, 66, 0
2, 32615, Note_on_c, 0, 66, 88
2, 32716, Note_on_c, 0, 31, 0
2, 32716, Note_on_c, 0, 43, 0
2, 32716, Note_on_c, 0, 62, 0
2, 32721, Note_on_c, 0, 43, 73
2, 32722, Note_on_c, 0, 74, 76
2, 32724, Note_on_c, 0, 31, 67
2, 32725, Note_on_c, 0, 62, 82
2, 32732, Note_on_c, 0, 74, 0
2, 32795, Note_on_c, 0, 55, 0
2, 32795, Note_on_c, 0, 66, 0
2, 32796, Note_on_c, 0, 31, 0
2, 32796, Note_on_c, 0, 43, 0
2, 32796, Note_on_c, 0, 67, 0
2, 32796, Note_on_c, 0, 59, 0
2, 32797, Note_on_c, 0, 62, 0
2, 32797, Control_c, 0, 64, 0
2, 32843, Note_on_c, 0, 69, 68
2, 32843, Note_on_c, 0, 57, 80
2, 32851, Note_on_c, 0, 31, 76
2, 32885, Control_c, 0, 64, 127
2, 32957, Note_on_c, 0, 74, 74
2, 32958, Note_on_c, 0, 62, 75
2, 33076, Note_on_c, 0, 79, 100
2, 33081, Note_on_c, 0, 67, 97
2, 33107, Note_on_c, 0, 45, 53
2, 33116, Note_on_c, 0, 45, 0
2, 33177, Note_on_c, 0, 69, 0
2, 33182, Note_on_c, 0, 69, 94
2, 33317, Note_on_c, 0, 76, 99
2, 33319, Note_on_c, 0, 71, 90
2, 33319, Note_on_c, 0, 47, 75
2, 33323, Note_on_c, 0, 69, 0
2, 33327, Note_on_c, 0, 69, 71
2, 33423, Note_on_c, 0, 67, 0
2, 33434, Note_on_c, 0, 67, 84
2, 33505, Control_c, 0, 64, 0
2, 33509, Note_on_c, 0, 47, 0
2, 33510, Note_on_c, 0, 69, 0
2, 33510, Note_on_c, 0, 57, 0
2, 33510, Note_on_c, 0, 71, 0
2, 33510, Note_on_c, 0, 62, 0
2, 33511, Note_on_c, 0, 76, 0
2, 33511, Note_on_c, 0, 79, 0
2, 33515, Note_on_c, 0, 31, 0
2, 33515, Note_on_c, 0, 74, 0
2, 33523, Note_on_c, 0, 67, 0
2, 33558, Note_on_c, 0, 86, 103
2, 33560, Note_on_c, 0, 36, 94
2, 33564, Note_on_c, 0, 48, 91
2, 33565, Note_on_c, 0, 78, 91
2, 33565, Note_on_c, 0, 74, 96
2, 33615, Control_c, 0, 64, 127
2, 33684, Note_on_c, 0, 48, 0
2, 33694, Note_on_c, 0, 48, 80
2, 33930, Note_on_c, 0, 48, 0
2, 33939, Note_on_c, 0, 88, 101
2, 33940, Note_on_c, 0, 48, 91
2, 33941, Note_on_c, 0, 60, 83
2, 33941, Note_on_c, 0, 79, 90
2, 33943, Note_on_c, 0, 76, 94
2, 34168, Note_on_c, 0, 48, 0
2, 34172, Note_on_c, 0, 48, 80
2, 34180, Note_on_c, 0, 62, 74
2, 34268, Note_on_c, 0, 36, 0
2, 34268, Note_on_c, 0, 48, 0
2, 34278, Note_on_c, 0, 48, 83
2, 34278, Note_on_c, 0, 36, 79
2, 34287, Note_on_c, 0, 57, 71
2, 34414, Note_on_c, 0, 62, 0
2, 34425, Note_on_c, 0, 62, 65
2, 34521, Note_on_c, 0, 48, 0
2, 34527, Note_on_c, 0, 48, 78
2, 34540, Note_on_c, 0, 66, 85
2, 34655, Note_on_c, 0, 67, 74
2, 34759, Note_on_c, 0, 66, 0
2, 34769, Note_on_c, 0, 66, 75
2, 34772, Note_on_c, 0, 47, 75
2, 34874, Note_on_c, 0, 48, 0
2, 34882, Note_on_c, 0, 62, 0
2, 34885, Note_on_c, 0, 48, 80
2, 34886, Note_on_c, 0, 62, 73
2, 34970, Note_on_c, 0, 60, 0
2, 34970, Note_on_c, 0, 88, 0
2, 34971, Note_on_c, 0, 86, 0
2, 34971, Note_on_c, 0, 47, 0
2, 34971, Note_on_c, 0, 57, 0
2, 34971, Note_on_c, 0, 48, 0
2, 34971, Note_on_c, 0, 76, 0
2, 34971, Note_on_c, 0, 62, 0
2, 34971, Note_on_c, 0, 79, 0
2, 34971, Note_on_c, 0, 74, 0
2, 34971, Note_on_c, 0, 67, 0
2, 34971, Note_on_c, 0, 36, 0
2, 34971, Note_on_c, 0, 78, 0
2, 34972, Note_on_c, 0, 66, 0
2, 34972, Control_c, 0, 64, 0
2, 35012, Note_on_c, 0, 50, 91
2, 35013, Note_on_c, 0, 38, 86
2, 35016, Note_on_c, 0, 69, 93
2, 35089, Control_c, 0, 64, 127
2, 35120, Note_on_c, 0, 69, 0
2, 35126, Note_on_c, 0, 67, 78
2, 35130, Note_on_c, 0, 69, 74
2, 35136, Note_on_c, 0, 50, 0
2, 35143, Note_on_c, 0, 38, 0
2, 35144, Note_on_c, 0, 50, 71
2, 35150, Note_on_c, 0, 38, 61
2, 35261, Note_on_c, 0, 66, 77
2, 35280, Note_on_c, 0, 57, 47
2, 35366, Note_on_c, 0, 67, 0
2, 35376, Note_on_c, 0, 67, 81
2, 35389, Note_on_c, 0, 50, 0
2, 35393, Note_on_c, 0, 62, 58
2, 35398, Note_on_c, 0, 50, 70
2, 35520, Note_on_c, 0, 66, 0
2, 35528, Note_on_c, 0, 66, 77
2, 35627, Note_on_c, 0, 50, 0
2, 35635, Note_on_c, 0, 62, 0
2, 35638, Note_on_c, 0, 50, 71
2, 35639, Note_on_c, 0, 74, 75
2, 35639, Note_on_c, 0, 62, 72
2, 35728, Note_on_c, 0, 67, 0
2, 35728, Note_on_c, 0, 62, 0
2, 35728, Note_on_c, 0, 69, 0
2, 35728, Note_on_c, 0, 74, 0
2, 35729, Control_c, 0, 64, 0
2, 35730, Note_on_c, 0, 66, 0
2, 35742, Note_on_c, 0, 57, 0
2, 35747, Note_on_c, 0, 57, 72
2, 35750, Note_on_c, 0, 38, 0
2, 35750, Note_on_c, 0, 50, 0
2, 35754, Note_on_c, 0, 50, 79
2, 35757, Note_on_c, 0, 38, 78
2, 35811, Control_c, 0, 64, 127
2, 35865, Note_on_c, 0, 62, 66
2, 35986, Note_on_c, 0, 66, 83
2, 36104, Note_on_c, 0, 69, 79
2, 36211, Note_on_c, 0, 66, 0
2, 36215, Note_on_c, 0, 74, 77
2, 36221, Note_on_c, 0, 66, 60
2, 36362, Note_on_c, 0, 45, 53
2, 36456, Control_c, 0, 64, 0
2, 36462, Note_on_c, 0, 62, 0
2, 36462, Note_on_c, 0, 74, 0
2, 36463, Note_on_c, 0, 50, 0
2, 36463, Note_on_c, 0, 66, 0
2, 36463, Note_on_c, 0, 38, 0
2, 36463, Note_on_c, 0, 57, 0
2, 36463, Note_on_c, 0, 69, 0
2, 36463, Note_on_c, 0, 45, 0
2, 36491, Note_on_c, 0, 76, 91
2, 36499, Note_on_c, 0, 40, 71
2, 36501, Note_on_c, 0, 52, 70
2, 36502, Note_on_c, 0, 67, 72
2, 36572, Control_c, 0, 64, 127
2, 36748, Note_on_c, 0, 52, 0
2, 36753, Note_on_c, 0, 52, 53
2, 36885, Note_on_c, 0, 55, 48
2, 36977, Note_on_c, 0, 59, 66
2, 37079, Note_on_c, 0, 52, 0
2, 37079, Note_on_c, 0, 55, 0
2, 37083, Note_on_c, 0, 52, 56
2, 37088, Note_on_c, 0, 55, 41
2, 37242, Note_on_c, 0, 74, 84
2, 37248, Note_on_c, 0, 59, 0
2, 37248, Note_on_c, 0, 67, 0
2, 37253, Note_on_c, 0, 62, 56
2, 37256, Note_on_c, 0, 67, 56
2, 37256, Note_on_c, 0, 59, 64
2, 37493, Note_on_c, 0, 52, 0
2, 37500, Note_on_c, 0, 52, 65
2, 37632, Note_on_c, 0, 55, 0
2, 37643, Note_on_c, 0, 55, 54
2, 37731, Note_on_c, 0, 59, 0
2, 37735, Note_on_c, 0, 59, 69
2, 37862, Note_on_c, 0, 52, 0
2, 37866, Note_on_c, 0, 52, 55
2, 37867, Note_on_c, 0, 64, 55
2, 37871, Note_on_c, 0, 71, 71
2, 37872, Note_on_c, 0, 59, 0
2, 37877, Note_on_c, 0, 64, 0
2, 37965, Note_on_c, 0, 62, 0
2, 37965, Note_on_c, 0, 67, 0
2, 37965, Note_on_c, 0, 52, 0
2, 37965, Control_c, 0, 64, 0
2, 37966, Note_on_c, 0, 76, 0
2, 37968, Note_on_c, 0, 71, 0
2, 37985, Note_on_c, 0, 40, 0
2, 37985, Note_on_c, 0, 55, 0
2, 37985, Note_on_c, 0, 74, 0
2, 37996, Note_on_c, 0, 57, 62
2, 37996, Note_on_c, 0, 74, 87
2, 37996, Note_on_c, 0, 69, 63
2, 37999, Note_on_c, 0, 66, 67
2, 38012, Note_on_c, 0, 47, 61
2, 38025, Note_on_c, 0, 54, 51
2, 38077, Note_on_c, 0, 66, 0
2, 38077, Control_c, 0, 64, 127
2, 38092, Note_on_c, 0, 54, 0
2, 38092, Note_on_c, 0, 69, 0
2, 38133, Note_on_c, 0, 76, 89
2, 38261, Note_on_c, 0, 47, 0
2, 38269, Note_on_c, 0, 47, 48
2, 38368, Note_on_c, 0, 54, 51
2, 38476, Note_on_c, 0, 57, 0
2, 38484, Note_on_c, 0, 57, 64
2, 38592, Note_on_c, 0, 47, 0
2, 38596, Note_on_c, 0, 47, 61
2, 38735, Note_on_c, 0, 62, 68
2, 38737, Note_on_c, 0, 54, 0
2, 38744, Note_on_c, 0, 54, 54
2, 38983, Note_on_c, 0, 47, 0
2, 38988, Note_on_c, 0, 47, 62
2, 39121, Note_on_c, 0, 54, 0
2, 39126, Note_on_c, 0, 54, 64
2, 39214, Note_on_c, 0, 57, 0
2, 39220, Note_on_c, 0, 78, 83
2, 39222, Note_on_c, 0, 57, 71
2, 39224, Note_on_c, 0, 69, 64
2, 39321, Note_on_c, 0, 54, 0
2, 39325, Note_on_c, 0, 79, 93
2, 39327, Note_on_c, 0, 54, 67
2, 39410, Note_on_c, 0, 74, 0
2, 39410, Note_on_c, 0, 69, 0
2, 39410, Note_on_c, 0, 79, 0
2, 39410, Note_on_c, 0, 76, 0
2, 39410, Note_on_c, 0, 62, 0
2, 39411, Note_on_c, 0, 54, 0
2, 39411, Note_on_c, 0, 47, 0
2, 39411, Note_on_c, 0, 57, 0
2, 39417, Control_c, 0, 64, 0
2, 39444, Note_on_c, 0, 78, 0
2, 39455, Note_on_c, 0, 78, 99
2, 39461, Note_on_c, 0, 48, 76
2, 39464, Note_on_c, 0, 72, 76
2, 39464, Note_on_c, 0, 55, 72
2, 39468, Note_on_c, 0, 52, 61
2, 39470, Note_on_c, 0, 74, 70
2, 39559, Control_c, 0, 64, 127
2, 39697, Note_on_c, 0, 48, 0
2, 39705, Note_on_c, 0, 48, 59
2, 39828, Note_on_c, 0, 55, 0
2, 39832, Note_on_c, 0, 55, 63
2, 39946, Note_on_c, 0, 59, 79
2, 39947, Note_on_c, 0, 76, 91
2, 40043, Note_on_c, 0, 48, 0
2, 40054, Note_on_c, 0, 48, 70
2, 40189, Note_on_c, 0, 59, 0
2, 40194, Note_on_c, 0, 59, 81
2, 40197, Note_on_c, 0, 55, 0
2, 40203, Note_on_c, 0, 55, 57
2, 40204, Note_on_c, 0, 62, 69
2, 40435, Note_on_c, 0, 48, 0
2, 40440, Note_on_c, 0, 48, 75
2, 40446, Note_on_c, 0, 71, 81
2, 40565, Note_on_c, 0, 55, 0
2, 40570, Note_on_c, 0, 55, 61
2, 40673, Note_on_c, 0, 59, 0
2, 40677, Note_on_c, 0, 59, 80
2, 40788, Note_on_c, 0, 55, 0
2, 40795, Note_on_c, 0, 55, 74
2, 40924, Control_c, 0, 64, 0
2, 40926, Note_on_c, 0, 55, 0
2, 40927, Note_on_c, 0, 48, 0
2, 40927, Note_on_c, 0, 62, 0
2, 40927, Note_on_c, 0, 72, 0
2, 40928, Note_on_c, 0, 78, 0
2, 40928, Note_on_c, 0, 71, 0
2, 40929, Note_on_c, 0, 76, 0
2, 40929, Note_on_c, 0, 59, 0
2, 40937, Note_on_c, 0, 55, 81
2, 40942, Note_on_c, 0, 52, 0
2, 40944, Note_on_c, 0, 69, 90
2, 40947, Note_on_c, 0, 45, 71
2, 40953, Note_on_c, 0, 52, 71
2, 40965, Note_on_c, 0, 74, 0
2, 41026, Control_c, 0, 64, 127
2, 41182, Note_on_c, 0, 74, 89
2, 41187, Note_on_c, 0, 52, 0
2, 41192, Note_on_c, 0, 52, 75
2, 41310, Note_on_c, 0, 55, 0
2, 41316, Note_on_c, 0, 55, 68
2, 41316, Note_on_c, 0, 60, 75
2, 41429, Note_on_c, 0, 66, 75
2, 41551, Note_on_c, 0, 67, 76
2, 41641, Note_on_c, 0, 74, 0
2, 41641, Note_on_c, 0, 69, 0
2, 41642, Note_on_c, 0, 66, 0
2, 41642, Note_on_c, 0, 52, 0
2, 41643, Note_on_c, 0, 67, 0
2, 41643, Note_on_c, 0, 55, 0
2, 41643, Note_on_c, 0, 60, 0
2, 41645, Control_c, 0, 64, 0
2, 41664, Note_on_c, 0, 45, 0
2, 41675, Note_on_c, 0, 69, 80
2, 41682, Note_on_c, 0, 57, 73
2, 41684, Note_on_c, 0, 50, 72
2, 41685, Note_on_c, 0, 66, 66
2, 41685, Note_on_c, 0, 54, 70
2, 41740, Control_c, 0, 64, 127
2, 41909, Note_on_c, 0, 67, 74
2, 41928, Note_on_c, 0, 45, 68
2, 42034, Note_on_c, 0, 38, 81
2, 42147, Note_on_c, 0, 66, 0
2, 42155, Note_on_c, 0, 71, 85
2, 42158, Note_on_c, 0, 66, 78
2, 42261, Note_on_c, 0, 74, 89
2, 42343, Note_on_c, 0, 57, 0
2, 42343, Note_on_c, 0, 54, 0
2, 42343, Note_on_c, 0, 38, 0
2, 42343, Note_on_c, 0, 67, 0
2, 42343, Note_on_c, 0, 45, 0
2, 42343, Note_on_c, 0, 69, 0
2, 42344, Note_on_c, 0, 50, 0
2, 42344, Note_on_c, 0, 71, 0
2, 42346, Note_on_c, 0, 74, 0
2, 42355, Control_c, 0, 64, 0
2, 42362, Note_on_c, 0, 66, 0
2, 42390, Note_on_c, 0, 76, 96
2, 42398, Note_on_c, 0, 67, 78
2, 42399, Note_on_c, 0, 40, 83
2, 42399, Note_on_c, 0, 52, 78
2, 42485, Control_c, 0, 64, 127
2, 42539, Note_on_c, 0, 40, 0
2, 42774, Note_on_c, 0, 55, 60
2, 42882, Note_on_c, 0, 59, 63
2, 42969, Note_on_c, 0, 52, 0
2, 42974, Note_on_c, 0, 52, 56
2, 43112, Note_on_c, 0, 74, 89
2, 43121, Note_on_c, 0, 62, 69
2, 43123, Note_on_c, 0, 59, 0
2, 43123, Note_on_c, 0, 67, 0
2, 43128, Note_on_c, 0, 67, 64
2, 43133, Note_on_c, 0, 59, 67
2, 43135, Note_on_c, 0, 71, 55
2, 43345, Note_on_c, 0, 52, 0
2, 43357, Note_on_c, 0, 52, 69
2, 43476, Note_on_c, 0, 55, 0
2, 43487, Note_on_c, 0, 55, 66
2, 43599, Note_on_c, 0, 59, 0
2, 43606, Note_on_c, 0, 59, 66
2, 43722, Note_on_c, 0, 52, 0
2, 43722, Note_on_c, 0, 71, 0
2, 43726, Note_on_c, 0, 52, 59
2, 43727, Note_on_c, 0, 71, 73
2, 43801, Note_on_c, 0, 62, 0
2, 43801, Note_on_c, 0, 52, 0
2, 43801, Note_on_c, 0, 55, 0
2, 43801, Note_on_c, 0, 76, 0
2, 43802, Note_on_c, 0, 71, 0
2, 43804, Control_c, 0, 64, 0
2, 43822, Note_on_c, 0, 67, 0
2, 43829, Note_on_c, 0, 59, 0
2, 43837, Note_on_c, 0, 74, 0
2, 43842, Note_on_c, 0, 74, 89
2, 43847, Note_on_c, 0, 66, 81
2, 43849, Note_on_c, 0, 47, 71
2, 43851, Note_on_c, 0, 57, 66
2, 43859, Note_on_c, 0, 54, 62
2, 43891, Control_c, 0, 64, 127
2, 43967, Note_on_c, 0, 76, 94
2, 44229, Note_on_c, 0, 54, 0
2, 44237, Note_on_c, 0, 54, 57
2, 44328, Note_on_c, 0, 57, 0
2, 44334, Note_on_c, 0, 57, 57
2, 44436, Note_on_c, 0, 47, 0
2, 44442, Note_on_c, 0, 47, 54
2, 44567, Note_on_c, 0, 54, 0
2, 44570, Note_on_c, 0, 62, 72
2, 44577, Note_on_c, 0, 54, 59
2, 44797, Note_on_c, 0, 47, 0
2, 44803, Note_on_c, 0, 47, 62
2, 44912, Note_on_c, 0, 54, 0
2, 44919, Note_on_c, 0, 54, 73
2, 45012, Note_on_c, 0, 57, 0
2, 45018, Note_on_c, 0, 57, 65
2, 45047, Note_on_c, 0, 78, 90
2, 45112, Note_on_c, 0, 54, 0
2, 45123, Note_on_c, 0, 54, 63
2, 45145, Note_on_c, 0, 79, 84
2, 45223, Note_on_c, 0, 74, 0
2, 45223, Control_c, 0, 64, 0
2, 45224, Note_on_c, 0, 66, 0
2, 45224, Note_on_c, 0, 62, 0
2, 45224, Note_on_c, 0, 79, 0
2, 45224, Note_on_c, 0, 57, 0
2, 45224, Note_on_c, 0, 47, 0
2, 45224, Note_on_c, 0, 78, 0
2, 45235, Note_on_c, 0, 54, 0
2, 45242, Note_on_c, 0, 76, 0
2, 45274, Note_on_c, 0, 81, 95
2, 45278, Note_on_c, 0, 48, 76
2, 45279, Note_on_c, 0, 55, 77
2, 45280, Note_on_c, 0, 72, 85
2, 45282, Note_on_c, 0, 52, 74
2, 45283, Note_on_c, 0, 76, 81
2, 45304, Control_c, 0, 64, 127
2, 45511, Note_on_c, 0, 48, 0
2, 45511, Note_on_c, 0, 55, 0
2, 45517, Note_on_c, 0, 60, 78
2, 45521, Note_on_c, 0, 55, 70
2, 45522, Note_on_c, 0, 48, 71
2, 45522, Note_on_c, 0, 79, 89
2, 45626, Note_on_c, 0, 48, 0
2, 45634, Note_on_c, 0, 48, 70
2, 45742, Note_on_c, 0, 55, 0
2, 45748, Note_on_c, 0, 55, 61
2, 45775, Note_on_c, 0, 78, 90
2, 45872, Note_on_c, 0, 79, 0
2, 45880, Note_on_c, 0, 79, 90
2, 45967, Control_c, 0, 64, 0
2, 45967, Note_on_c, 0, 60, 0
2, 45968, Note_on_c, 0, 78, 0
2, 45968, Note_on_c, 0, 81, 0
2, 45968, Note_on_c, 0, 72, 0
2, 45968, Note_on_c, 0, 48, 0
2, 45968, Note_on_c, 0, 79, 0
2, 45968, Note_on_c, 0, 76, 0
2, 45972, Note_on_c, 0, 52, 0
2, 45980, Note_on_c, 0, 55, 0
2, 46011, Note_on_c, 0, 78, 96
2, 46013, Note_on_c, 0, 69, 75
2, 46014, Note_on_c, 0, 57, 78
2, 46017, Note_on_c, 0, 54, 73
2, 46019, Note_on_c, 0, 47, 76
2, 46049, Control_c, 0, 64, 127
2, 46110, Note_on_c, 0, 47, 0
2, 46120, Note_on_c, 0, 47, 67
2, 46121, Note_on_c, 0, 74, 94
2, 46244, Note_on_c, 0, 62, 77
2, 46248, Note_on_c, 0, 59, 71
2, 46364, Note_on_c, 0, 47, 0
2, 46372, Note_on_c, 0, 47, 70
2, 46479, Note_on_c, 0, 54, 0
2, 46487, Note_on_c, 0, 62, 0
2, 46489, Note_on_c, 0, 54, 76
2, 46492, Note_on_c, 0, 62, 51
2, 46492, Note_on_c, 0, 66, 66
2, 46612, Note_on_c, 0, 71, 78
2, 46632, Note_on_c, 0, 47, 0
2, 46636, Note_on_c, 0, 47, 47
2, 46721, Control_c, 0, 64, 0
2, 46722, Note_on_c, 0, 71, 0
2, 46722, Note_on_c, 0, 69, 0
2, 46723, Note_on_c, 0, 62, 0
2, 46723, Note_on_c, 0, 57, 0
2, 46723, Note_on_c, 0, 59, 0
2, 46723, Note_on_c, 0, 74, 0
2, 46723, Note_on_c, 0, 47, 0
2, 46724, Note_on_c, 0, 54, 0
2, 46724, Note_on_c, 0, 78, 0
2, 46725, Note_on_c, 0, 66, 0
2, 46742, Note_on_c, 0, 76, 96
2, 46744, Note_on_c, 0, 72, 86
2, 46749, Note_on_c, 0, 45, 74
2, 46749, Note_on_c, 0, 52, 72
2, 46750, Note_on_c, 0, 55, 73
2, 46794, Control_c, 0, 64, 127
2, 46977, Note_on_c, 0, 78, 87
2, 47088, Note_on_c, 0, 60, 87
2, 47091, Note_on_c, 0, 79, 101
2, 47101, Note_on_c, 0, 55, 0
2, 47106, Note_on_c, 0, 72, 0
2, 47109, Note_on_c, 0, 52, 0
2, 47110, Note_on_c, 0, 76, 0
2, 47110, Note_on_c, 0, 55, 65
2, 47201, Note_on_c, 0, 45, 0
2, 47207, Note_on_c, 0, 45, 56
2, 47308, Note_on_c, 0, 55, 0
2, 47315, Note_on_c, 0, 55, 67
2, 47444, Note_on_c, 0, 79, 0
2, 47445, Note_on_c, 0, 45, 0
2, 47445, Note_on_c, 0, 55, 0
2, 47445, Control_c, 0, 64, 0
2, 47446, Note_on_c, 0, 60, 0
2, 47470, Note_on_c, 0, 78, 0
2, 47471, Note_on_c, 0, 57, 78
2, 47474, Note_on_c, 0, 50, 82
2, 47477, Note_on_c, 0, 78, 101
2, 47481, Note_on_c, 0, 74, 88
2, 47481, Note_on_c, 0, 54, 80
2, 47523, Control_c, 0, 64, 127
2, 47712, Note_on_c, 0, 38, 86
2, 47712, Note_on_c, 0, 79, 103
2, 47844, Note_on_c, 0, 45, 65
2, 47961, Note_on_c, 0, 50, 0
2, 47964, Note_on_c, 0, 81, 101
2, 47965, Note_on_c, 0, 50, 84
2, 47972, Note_on_c, 0, 38, 0
2, 48053, Note_on_c, 0, 54, 0
2, 48064, Note_on_c, 0, 54, 72
2, 48169, Control_c, 0, 64, 0
2, 48172, Note_on_c, 0, 81, 0
2, 48172, Note_on_c, 0, 45, 0
2, 48173, Note_on_c, 0, 50, 0
2, 48173, Note_on_c, 0, 57, 0
2, 48184, Note_on_c, 0, 74, 0
2, 48184, Note_on_c, 0, 78, 0
2, 48192, Note_on_c, 0, 54, 0
2, 48199, Note_on_c, 0, 79, 0
2, 48205, Note_on_c, 0, 83, 98
2, 48210, Note_on_c, 0, 52, 92
2, 48210, Note_on_c, 0, 40, 91
2, 48211, Note_on_c, 0, 79, 79
2, 48211, Note_on_c, 0, 71, 84
2, 48215, Note_on_c, 0, 76, 83
2, 48256, Note_on_c, 0, 40, 0
2, 48257, Note_on_c, 0, 52, 0
2, 48284, Control_c, 0, 64, 127
2, 48454, Note_on_c, 0, 52, 61
2, 48586, Note_on_c, 0, 59, 71
2, 48599, Note_on_c, 0, 76, 0
2, 48606, Note_on_c, 0, 76, 62
2, 48703, Note_on_c, 0, 64, 68
2, 48814, Note_on_c, 0, 79, 0
2, 48823, Note_on_c, 0, 79, 71
2, 48829, Note_on_c, 0, 76, 0
2, 48837, Note_on_c, 0, 71, 0
2, 48839, Note_on_c, 0, 76, 66
2, 48845, Note_on_c, 0, 66, 65
2, 48847, Note_on_c, 0, 71, 59
2, 48944, Note_on_c, 0, 71, 0
2, 48944, Note_on_c, 0, 76, 0
2, 48944, Note_on_c, 0, 79, 0
2, 48951, Note_on_c, 0, 67, 74
2, 48952, Note_on_c, 0, 71, 72
2, 48954, Note_on_c, 0, 79, 76
2, 48955, Note_on_c, 0, 76, 72
2, 49075, Note_on_c, 0, 66, 0
2, 49085, Note_on_c, 0, 66, 69
2, 49182, Note_on_c, 0, 64, 0
2, 49182, Note_on_c, 0, 79, 0
2, 49190, Note_on_c, 0, 71, 0
2, 49190, Note_on_c, 0, 76, 0
2, 49192, Note_on_c, 0, 64, 71
2, 49194, Note_on_c, 0, 79, 84
2, 49194, Note_on_c, 0, 76, 77
2, 49195, Note_on_c, 0, 71, 72
2, 49297, Note_on_c, 0, 66, 0
2, 49309, Note_on_c, 0, 66, 80
2, 49413, Note_on_c, 0, 59, 0
2, 49424, Note_on_c, 0, 59, 76
2, 49536, Note_on_c, 0, 64, 0
2, 49536, Note_on_c, 0, 79, 0
2, 49540, Note_on_c, 0, 64, 65
2, 49547, Note_on_c, 0, 79, 87
2, 49655, Note_on_c, 0, 67, 0
2, 49655, Control_c, 0, 64, 0
2, 49655, Note_on_c, 0, 71, 0
2, 49655, Note_on_c, 0, 64, 0
2, 49656, Note_on_c, 0, 79, 0
2, 49656, Note_on_c, 0, 76, 0
2, 49657, Note_on_c, 0, 83, 0
2, 49657, Note_on_c, 0, 52, 0
2, 49666, Note_on_c, 0, 66, 0
2, 49669, Note_on_c, 0, 86, 100
2, 49674, Note_on_c, 0, 59, 0
2, 49675, Note_on_c, 0, 74, 88
2, 49675, Note_on_c, 0, 47, 84
2, 49677, Note_on_c, 0, 78, 83
2, 49721, Note_on_c, 0, 47, 0
2, 49743, Control_c, 0, 64, 127
2, 49789, Note_on_c, 0, 78, 0
2, 49794, Note_on_c, 0, 78, 71
2, 49796, Note_on_c, 0, 54, 70
2, 49909, Note_on_c, 0, 57, 64
2, 50033, Note_on_c, 0, 84, 92
2, 50035, Note_on_c, 0, 74, 0
2, 50035, Note_on_c, 0, 78, 0
2, 50038, Note_on_c, 0, 59, 76
2, 50041, Note_on_c, 0, 78, 78
2, 50044, Note_on_c, 0, 74, 82
2, 50164, Note_on_c, 0, 62, 65
2, 50270, Note_on_c, 0, 83, 90
2, 50273, Note_on_c, 0, 78, 0
2, 50277, Note_on_c, 0, 64, 76
2, 50283, Note_on_c, 0, 78, 68
2, 50380, Note_on_c, 0, 74, 0
2, 50385, Note_on_c, 0, 81, 98
2, 50388, Note_on_c, 0, 66, 85
2, 50388, Note_on_c, 0, 78, 0
2, 50388, Note_on_c, 0, 74, 84
2, 50395, Note_on_c, 0, 78, 74
2, 50472, Note_on_c, 0, 64, 0
2, 50483, Note_on_c, 0, 64, 72
2, 50580, Note_on_c, 0, 62, 0
2, 50587, Note_on_c, 0, 62, 79
2, 50618, Note_on_c, 0, 83, 0
2, 50626, Note_on_c, 0, 74, 0
2, 50626, Note_on_c, 0, 78, 0
2, 50629, Note_on_c, 0, 83, 95
2, 50630, Note_on_c, 0, 78, 87
2, 50630, Note_on_c, 0, 74, 78
2, 50711, Note_on_c, 0, 64, 0
2, 50711, Note_on_c, 0, 74, 0
2, 50715, Note_on_c, 0, 64, 77
2, 50719, Note_on_c, 0, 74, 69
2, 50849, Note_on_c, 0, 59, 0
2, 50860, Note_on_c, 0, 59, 79
2, 50861, Note_on_c, 0, 79, 93
2, 50949, Note_on_c, 0, 62, 0
2, 50955, Note_on_c, 0, 62, 70
2, 51079, Control_c, 0, 64, 0
2, 51082, Note_on_c, 0, 66, 0
2, 51082, Note_on_c, 0, 57, 0
2, 51082, Note_on_c, 0, 79, 0
2, 51083, Note_on_c, 0, 64, 0
2, 51083, Note_on_c, 0, 62, 0
2, 51083, Note_on_c, 0, 59, 0
2, 51083, Note_on_c, 0, 86, 0
2, 51083, Note_on_c, 0, 78, 0
2, 51083, Note_on_c, 0, 83, 0
2, 51083, Note_on_c, 0, 84, 0
2, 51086, Note_on_c, 0, 54, 0
2, 51087, Note_on_c, 0, 81, 0
2, 51097, Note_on_c, 0, 81, 98
2, 51098, Note_on_c, 0, 48, 80
2, 51102, Note_on_c, 0, 74, 0
2, 51105, Note_on_c, 0, 72, 84
2, 51106, Note_on_c, 0, 76, 78
2, 51179, Control_c, 0, 64, 127
2, 51210, Note_on_c, 0, 76, 0
2, 51220, Note_on_c, 0, 76, 73
2, 51224, Note_on_c, 0, 55, 68
2, 51225, Note_on_c, 0, 72, 0
2, 51236, Note_on_c, 0, 72, 67
2, 51341, Note_on_c, 0, 60, 75
2, 51464, Note_on_c, 0, 62, 70
2, 51471, Note_on_c, 0, 76, 0
2, 51476, Note_on_c, 0, 76, 76
2, 51479, Note_on_c, 0, 72, 0
2, 51486, Note_on_c, 0, 72, 64
2, 51578, Note_on_c, 0, 55, 0
2, 51588, Note_on_c, 0, 79, 92
2, 51589, Note_on_c, 0, 55, 65
2, 51678, Note_on_c, 0, 48, 0
2, 51686, Note_on_c, 0, 60, 0
2, 51697, Note_on_c, 0, 60, 68
2, 51705, Note_on_c, 0, 78, 81
2, 51809, Note_on_c, 0, 79, 0
2, 51811, Note_on_c, 0, 64, 80
2, 51819, Note_on_c, 0, 79, 96
2, 51824, Note_on_c, 0, 72, 0
2, 51824, Note_on_c, 0, 76, 0
2, 51828, Note_on_c, 0, 76, 87
2, 51832, Note_on_c, 0, 72, 80
2, 51924, Note_on_c, 0, 62, 0
2, 51931, Note_on_c, 0, 62, 70
2, 52039, Note_on_c, 0, 60, 0
2, 52051, Note_on_c, 0, 60, 71
2, 52078, Note_on_c, 0, 72, 0
2, 52078, Note_on_c, 0, 76, 0
2, 52078, Note_on_c, 0, 79, 0
2, 52082, Note_on_c, 0, 76, 71
2, 52085, Note_on_c, 0, 72, 57
2, 52088, Note_on_c, 0, 79, 63
2, 52139, Note_on_c, 0, 62, 0
2, 52144, Note_on_c, 0, 62, 49
2, 52193, Note_on_c, 0, 60, 0
2, 52203, Note_on_c, 0, 60, 52
2, 52308, Note_on_c, 0, 55, 0
2, 52316, Note_on_c, 0, 72, 0
2, 52316, Note_on_c, 0, 76, 0
2, 52319, Note_on_c, 0, 55, 56
2, 52320, Note_on_c, 0, 72, 69
2, 52326, Note_on_c, 0, 76, 60
2, 52431, Note_on_c, 0, 60, 0
2, 52439, Note_on_c, 0, 60, 71
2, 52546, Control_c, 0, 64, 0
2, 52547, Note_on_c, 0, 48, 81
2, 52549, Note_on_c, 0, 55, 0
2, 52549, Note_on_c, 0, 79, 0
2, 52550, Note_on_c, 0, 62, 0
2, 52550, Note_on_c, 0, 81, 0
2, 52550, Note_on_c, 0, 64, 0
2, 52551, Note_on_c, 0, 78, 0
2, 52554, Note_on_c, 0, 72, 0
2, 52554, Note_on_c, 0, 76, 0
2, 52563, Note_on_c, 0, 72, 71
2, 52563, Note_on_c, 0, 76, 67
2, 52577, Note_on_c, 0, 60, 0
2, 52646, Control_c, 0, 64, 127
2, 52661, Note_on_c, 0, 72, 0
2, 52661, Note_on_c, 0, 76, 0
2, 52666, Note_on_c, 0, 55, 63
2, 52669, Note_on_c, 0, 76, 66
2, 52673, Note_on_c, 0, 72, 64
2, 52774, Note_on_c, 0, 60, 80
2, 52907, Note_on_c, 0, 72, 0
2, 52907, Note_on_c, 0, 76, 0
2, 52912, Note_on_c, 0, 62, 71
2, 52915, Note_on_c, 0, 72, 73
2, 52917, Note_on_c, 0, 76, 74
2, 53035, Note_on_c, 0, 64, 73
2, 53137, Note_on_c, 0, 60, 0
2, 53137, Note_on_c, 0, 76, 0
2, 53145, Note_on_c, 0, 48, 0
2, 53146, Note_on_c, 0, 60, 70
2, 53146, Note_on_c, 0, 76, 78
2, 53260, Control_c, 0, 64, 0
2, 53263, Note_on_c, 0, 72, 0
2, 53263, Note_on_c, 0, 62, 0
2, 53263, Note_on_c, 0, 64, 0
2, 53263, Note_on_c, 0, 60, 0
2, 53263, Note_on_c, 0, 76, 0
2, 53264, Note_on_c, 0, 55, 0
2, 53280, Note_on_c, 0, 81, 94
2, 53287, Note_on_c, 0, 74, 81
2, 53289, Note_on_c, 0, 78, 80
2, 53295, Note_on_c, 0, 47, 70
2, 53337, Control_c, 0, 64, 127
2, 53376, Note_on_c, 0, 47, 0
2, 53410, Note_on_c, 0, 54, 54
2, 53519, Note_on_c, 0, 83, 95
2, 53542, Note_on_c, 0, 57, 58
2, 53656, Note_on_c, 0, 62, 65
2, 53760, Note_on_c, 0, 57, 0
2, 53760, Note_on_c, 0, 74, 0
2, 53768, Note_on_c, 0, 69, 65
2, 53770, Note_on_c, 0, 74, 89
2, 53771, Note_on_c, 0, 57, 64
2, 53882, Note_on_c, 0, 54, 0
2, 53888, Note_on_c, 0, 54, 62
2, 53998, Control_c, 0, 64, 0
2, 53999, Note_on_c, 0, 83, 0
2, 54000, Note_on_c, 0, 62, 0
2, 54000, Note_on_c, 0, 74, 0
2, 54000, Note_on_c, 0, 81, 0
2, 54001, Note_on_c, 0, 54, 0
2, 54001, Note_on_c, 0, 57, 0
2, 54001, Note_on_c, 0, 78, 0
2, 54013, Note_on_c, 0, 69, 0
2, 54015, Note_on_c, 0, 76, 92
2, 54016, Note_on_c, 0, 72, 79
2, 54022, Note_on_c, 0, 69, 73
2, 54029, Note_on_c, 0, 45, 67
2, 54097, Control_c, 0, 64, 127
2, 54140, Note_on_c, 0, 52, 59
2, 54255, Note_on_c, 0, 57, 67
2, 54389, Note_on_c, 0, 69, 0
2, 54389, Note_on_c, 0, 72, 0
2, 54392, Note_on_c, 0, 59, 70
2, 54397, Note_on_c, 0, 72, 72
2, 54401, Note_on_c, 0, 69, 59
2, 54508, Note_on_c, 0, 60, 62
2, 54620, Note_on_c, 0, 72, 0
2, 54631, Note_on_c, 0, 72, 84
2, 54643, Note_on_c, 0, 69, 0
2, 54647, Note_on_c, 0, 69, 62
2, 54654, Note_on_c, 0, 62, 70
2, 54743, Note_on_c, 0, 69, 0
2, 54750, Note_on_c, 0, 72, 0
2, 54754, Note_on_c, 0, 64, 79
2, 54754, Note_on_c, 0, 69, 81
2, 54760, Note_on_c, 0, 72, 82
2, 54858, Note_on_c, 0, 62, 0
2, 54869, Note_on_c, 0, 62, 69
2, 54996, Note_on_c, 0, 60, 0
2, 55000, Note_on_c, 0, 60, 68
2, 55005, Note_on_c, 0, 74, 92
2, 55022, Note_on_c, 0, 71, 72
2, 55104, Note_on_c, 0, 62, 0
2, 55112, Note_on_c, 0, 62, 72
2, 55234, Note_on_c, 0, 57, 0
2, 55239, Note_on_c, 0, 57, 70
2, 55342, Note_on_c, 0, 60, 0
2, 55350, Note_on_c, 0, 60, 72
2, 55365, Note_on_c, 0, 71, 0
2, 55368, Note_on_c, 0, 71, 81
2, 55461, Note_on_c, 0, 76, 0
2, 55462, Note_on_c, 0, 62, 0
2, 55463, Note_on_c, 0, 57, 0
2, 55463, Note_on_c, 0, 71, 0
2, 55464, Note_on_c, 0, 59, 0
2, 55465, Note_on_c, 0, 52, 0
2, 55467, Control_c, 0, 64, 0
2, 55472, Note_on_c, 0, 45, 0
2, 55472, Note_on_c, 0, 72, 0
2, 55480, Note_on_c, 0, 64, 0
2, 55480, Note_on_c, 0, 74, 0
2, 55488, Note_on_c, 0, 60, 0
2, 55488, Note_on_c, 0, 69, 0
2, 55488, Note_on_c, 0, 74, 95
2, 55489, Note_on_c, 0, 47, 78
2, 55492, Note_on_c, 0, 69, 75
2, 55533, Note_on_c, 0, 69, 0
2, 55538, Note_on_c, 0, 74, 0
2, 55587, Control_c, 0, 64, 127
2, 55595, Note_on_c, 0, 76, 98
2, 55614, Note_on_c, 0, 69, 68
2, 55615, Note_on_c, 0, 54, 61
2, 55729, Note_on_c, 0, 57, 65
2, 55836, Note_on_c, 0, 59, 75
2, 55864, Note_on_c, 0, 69, 0
2, 55873, Note_on_c, 0, 69, 68
2, 55951, Note_on_c, 0, 62, 66
2, 56087, Note_on_c, 0, 69, 0
2, 56088, Note_on_c, 0, 64, 71
2, 56090, Note_on_c, 0, 71, 73
2, 56095, Note_on_c, 0, 69, 61
2, 56197, Note_on_c, 0, 66, 77
2, 56217, Note_on_c, 0, 69, 0
2, 56217, Note_on_c, 0, 71, 0
2, 56222, Note_on_c, 0, 71, 80
2, 56227, Note_on_c, 0, 69, 76
2, 56309, Note_on_c, 0, 64, 0
2, 56319, Note_on_c, 0, 64, 74
2, 56424, Note_on_c, 0, 62, 0
2, 56432, Note_on_c, 0, 62, 73
2, 56455, Note_on_c, 0, 78, 98
2, 56458, Note_on_c, 0, 74, 84
2, 56555, Note_on_c, 0, 64, 0
2, 56560, Note_on_c, 0, 64, 63
2, 56663, Note_on_c, 0, 59, 0
2, 56670, Note_on_c, 0, 59, 65
2, 56674, Note_on_c, 0, 47, 0
2, 56693, Note_on_c, 0, 76, 0
2, 56702, Note_on_c, 0, 79, 92
2, 56703, Note_on_c, 0, 76, 96
2, 56755, Note_on_c, 0, 62, 0
2, 56764, Note_on_c, 0, 62, 60
2, 56916, Note_on_c, 0, 57, 0
2, 56917, Note_on_c, 0, 64, 0
2, 56917, Control_c, 0, 64, 0
2, 56918, Note_on_c, 0, 71, 0
2, 56918, Note_on_c, 0, 69, 0
2, 56920, Note_on_c, 0, 54, 0
2, 56920, Note_on_c, 0, 79, 0
2, 56922, Note_on_c, 0, 78, 0
2, 56931, Note_on_c, 0, 59, 0
2, 56931, Note_on_c, 0, 62, 0
2, 56931, Note_on_c, 0, 66, 0
2, 56931, Note_on_c, 0, 74, 0
2, 56937, Note_on_c, 0, 81, 98
2, 56939, Note_on_c, 0, 76, 0
2, 56942, Note_on_c, 0, 48, 85
2, 56944, Note_on_c, 0, 72, 87
2, 56947, Note_on_c, 0, 76, 88
2, 57031, Control_c, 0, 64, 127
2, 57060, Note_on_c, 0, 55, 67
2, 57175, Note_on_c, 0, 60, 75
2, 57308, Note_on_c, 0, 72, 0
2, 57308, Note_on_c, 0, 76, 0
2, 57312, Note_on_c, 0, 62, 73
2, 57314, Note_on_c, 0, 76, 80
2, 57319, Note_on_c, 0, 72, 71
2, 57429, Note_on_c, 0, 64, 77
2, 57434, Note_on_c, 0, 79, 90
2, 57542, Note_on_c, 0, 66, 79
2, 57543, Note_on_c, 0, 78, 83
2, 57651, Control_c, 0, 64, 0
2, 57653, Note_on_c, 0, 48, 0
2, 57653, Note_on_c, 0, 79, 0
2, 57657, Note_on_c, 0, 79, 93
2, 57658, Note_on_c, 0, 60, 0
2, 57659, Note_on_c, 0, 81, 0
2, 57659, Note_on_c, 0, 55, 0
2, 57659, Note_on_c, 0, 66, 0
2, 57659, Note_on_c, 0, 62, 0
2, 57659, Note_on_c, 0, 64, 0
2, 57660, Note_on_c, 0, 78, 0
2, 57661, Note_on_c, 0, 72, 0
2, 57661, Note_on_c, 0, 76, 0
2, 57664, Note_on_c, 0, 48, 85
2, 57666, Note_on_c, 0, 72, 84
2, 57666, Note_on_c, 0, 76, 84
2, 57753, Control_c, 0, 64, 127
2, 57790, Note_on_c, 0, 55, 69
2, 57901, Note_on_c, 0, 60, 75
2, 57907, Note_on_c, 0, 72, 0
2, 57907, Note_on_c, 0, 76, 0
2, 57911, Note_on_c, 0, 76, 72
2, 57911, Note_on_c, 0, 72, 77
2, 58028, Note_on_c, 0, 62, 72
2, 58137, Note_on_c, 0, 72, 0
2, 58137, Note_on_c, 0, 76, 0
2, 58141, Note_on_c, 0, 76, 87
2, 58148, Note_on_c, 0, 72, 72
2, 58150, Note_on_c, 0, 64, 74
2, 58259, Note_on_c, 0, 66, 84
2, 58378, Control_c, 0, 64, 0
2, 58383, Note_on_c, 0, 79, 0
2, 58384, Note_on_c, 0, 72, 0
2, 58384, Note_on_c, 0, 60, 0
2, 58384, Note_on_c, 0, 62, 0
2, 58385, Note_on_c, 0, 55, 0
2, 58385, Note_on_c, 0, 81, 100
2, 58385, Note_on_c, 0, 64, 0
2, 58386, Note_on_c, 0, 76, 0
2, 58386, Note_on_c, 0, 66, 0
2, 58386, Note_on_c, 0, 48, 0
2, 58387, Note_on_c, 0, 78, 95
2, 58387, Note_on_c, 0, 74, 93
2, 58391, Note_on_c, 0, 50, 90
2, 58483, Control_c, 0, 64, 127
2, 58512, Note_on_c, 0, 57, 76
2, 58544, Note_on_c, 0, 50, 0
2, 58635, Note_on_c, 0, 62, 82
2, 58747, Note_on_c, 0, 64, 83
2, 58844, Note_on_c, 0, 66, 85
2, 58850, Note_on_c, 0, 79, 97
2, 58951, Note_on_c, 0, 81, 0
2, 58956, Note_on_c, 0, 81, 90
2, 58962, Note_on_c, 0, 69, 68
2, 58963, Note_on_c, 0, 67, 78
2, 59082, Note_on_c, 0, 69, 0
2, 59089, Note_on_c, 0, 78, 0
2, 59090, Note_on_c, 0, 69, 89
2, 59094, Note_on_c, 0, 86, 107
2, 59097, Note_on_c, 0, 74, 0
2, 59101, Note_on_c, 0, 78, 99
2, 59102, Note_on_c, 0, 74, 98
2, 59110, Control_c, 0, 64, 0
2, 59129, Note_on_c, 0, 81, 0
2, 59132, Note_on_c, 0, 62, 0
2, 59132, Note_on_c, 0, 64, 0
2, 59132, Note_on_c, 0, 66, 0
2, 59132, Note_on_c, 0, 57, 0
2, 59133, Note_on_c, 0, 79, 0
2, 59135, Note_on_c, 0, 67, 0
2, 59266, Control_c, 0, 64, 127
2, 59328, Note_on_c, 0, 74, 0
2, 59332, Note_on_c, 0, 62, 96
2, 59332, Note_on_c, 0, 74, 92
2, 59448, Note_on_c, 0, 57, 84
2, 59558, Note_on_c, 0, 78, 0
2, 59563, Note_on_c, 0, 90, 111
2, 59566, Note_on_c, 0, 50, 99
2, 59568, Note_on_c, 0, 78, 105
2, 59677, Note_on_c, 0, 45, 76
2, 59810, Control_c, 0, 64, 0
2, 59811, Note_on_c, 0, 69, 0
2, 59812, Note_on_c, 0, 45, 0
2, 59813, Note_on_c, 0, 50, 0
2, 59813, Note_on_c, 0, 90, 0
2, 59813, Note_on_c, 0, 86, 0
2, 59814, Note_on_c, 0, 74, 0
2, 59814, Note_on_c, 0, 57, 0
2, 59814, Note_on_c, 0, 78, 0
2, 59823, Note_on_c, 0, 88, 106
2, 59825, Note_on_c, 0, 76, 104
2, 59827, Note_on_c, 0, 62, 0
2, 59827, Note_on_c, 0, 40, 97
2, 59827, Note_on_c, 0, 79, 98
2, 59830, Note_on_c, 0, 28, 96
2, 59911, Control_c, 0, 64, 127
2, 59957, Note_on_c, 0, 28, 0
2, 60203, Note_on_c, 0, 40, 0
2, 60205, Note_on_c, 0, 59, 90
2, 60211, Note_on_c, 0, 55, 80
2, 60213, Note_on_c, 0, 40, 76
2, 60217, Note_on_c, 0, 28, 78
2, 60449, Note_on_c, 0, 40, 0
2, 60456, Note_on_c, 0, 40, 74
2, 60572, Note_on_c, 0, 79, 0
2, 60576, Note_on_c, 0, 79, 104
2, 60576, Control_c, 0, 64, 0
2, 60581, Note_on_c, 0, 71, 95
2, 60583, Note_on_c, 0, 67, 95
2, 60583, Note_on_c, 0, 30, 92
2, 60587, Note_on_c, 0, 42, 86
2, 60592, Note_on_c, 0, 40, 0
2, 60592, Note_on_c, 0, 55, 0
2, 60593, Note_on_c, 0, 59, 0
2, 60597, Note_on_c, 0, 88, 0
2, 60597, Note_on_c, 0, 76, 0
2, 60610, Note_on_c, 0, 28, 0
2, 60748, Control_c, 0, 64, 127
2, 60825, Note_on_c, 0, 30, 0
2, 60825, Note_on_c, 0, 42, 0
2, 60832, Note_on_c, 0, 42, 85
2, 60833, Note_on_c, 0, 59, 85
2, 60834, Note_on_c, 0, 30, 83
2, 61056, Note_on_c, 0, 59, 0
2, 61067, Note_on_c, 0, 59, 85
2, 61069, Note_on_c, 0, 55, 78
2, 61109, Note_on_c, 0, 42, 0
2, 61117, Note_on_c, 0, 42, 36
2, 61313, Control_c, 0, 64, 0
2, 61320, Note_on_c, 0, 71, 0
2, 61320, Note_on_c, 0, 67, 0
2, 61320, Note_on_c, 0, 59, 0
2, 61321, Note_on_c, 0, 42, 0
2, 61323, Note_on_c, 0, 55, 0
2, 61327, Note_on_c, 0, 30, 0
2, 61328, Note_on_c, 0, 78, 107
2, 61329, Note_on_c, 0, 69, 92
2, 61332, Note_on_c, 0, 79, 0
2, 61335, Note_on_c, 0, 66, 103
2, 61336, Note_on_c, 0, 33, 83
2, 61336, Note_on_c, 0, 45, 81
2, 61347, Note_on_c, 0, 45, 0
2, 61424, Note_on_c, 0, 33, 0
2, 61463, Control_c, 0, 64, 127
2, 61698, Note_on_c, 0, 59, 93
2, 61704, Note_on_c, 0, 55, 87
2, 61705, Note_on_c, 0, 43, 82
2, 61706, Note_on_c, 0, 31, 80
2, 61916, Note_on_c, 0, 43, 0
2, 61921, Note_on_c, 0, 43, 68
2, 62035, Note_on_c, 0, 66, 0
2, 62035, Note_on_c, 0, 78, 0
2, 62035, Note_on_c, 0, 69, 0
2, 62036, Note_on_c, 0, 31, 0
2, 62036, Note_on_c, 0, 43, 0
2, 62036, Note_on_c, 0, 59, 0
2, 62036, Note_on_c, 0, 55, 0
2, 62037, Control_c, 0, 64, 0
2, 62056, Note_on_c, 0, 74, 105
2, 62057, Note_on_c, 0, 62, 99
2, 62057, Note_on_c, 0, 47, 97
2, 62059, Note_on_c, 0, 35, 90
2, 62060, Note_on_c, 0, 71, 79
2, 62123, Control_c, 0, 64, 127
2, 62292, Note_on_c, 0, 71, 0
2, 62297, Note_on_c, 0, 43, 79
2, 62297, Note_on_c, 0, 31, 84
2, 62300, Note_on_c, 0, 71, 83
2, 62530, Note_on_c, 0, 74, 0
2, 62532, Note_on_c, 0, 50, 94
2, 62534, Note_on_c, 0, 78, 100
2, 62535, Note_on_c, 0, 38, 91
2, 62535, Note_on_c, 0, 66, 102
2, 62540, Note_on_c, 0, 74, 85
2, 62707, Note_on_c, 0, 47, 0
2, 62741, Note_on_c, 0, 31, 0
2, 62741, Note_on_c, 0, 38, 0
2, 62741, Note_on_c, 0, 71, 0
2, 62741, Note_on_c, 0, 66, 0
2, 62741, Note_on_c, 0, 62, 0
2, 62741, Note_on_c, 0, 74, 0
2, 62741, Note_on_c, 0, 50, 0
2, 62742, Note_on_c, 0, 43, 0
2, 62742, Note_on_c, 0, 78, 0
2, 62745, Control_c, 0, 64, 0
2, 62745, Note_on_c, 0, 35, 0
2, 62786, Note_on_c, 0, 76, 101
2, 62787, Note_on_c, 0, 67, 95
2, 62788, Note_on_c, 0, 64, 97
2, 62793, Note_on_c, 0, 48, 94
2, 62794, Note_on_c, 0, 36, 89
2, 62891, Control_c, 0, 64, 127
2, 63144, Note_on_c, 0, 48, 0
2, 63150, Note_on_c, 0, 48, 78
2, 63153, Note_on_c, 0, 55, 85
2, 63265, Note_on_c, 0, 59, 82
2, 63297, Note_on_c, 0, 47, 49
2, 63306, Note_on_c, 0, 47, 0
2, 63375, Note_on_c, 0, 48, 0
2, 63375, Note_on_c, 0, 64, 0
2, 63383, Note_on_c, 0, 64, 81
2, 63386, Note_on_c, 0, 48, 90
2, 63498, Note_on_c, 0, 67, 0
2, 63505, Note_on_c, 0, 55, 0
2, 63507, Note_on_c, 0, 67, 89
2, 63515, Note_on_c, 0, 55, 91
2, 63517, Note_on_c, 0, 52, 82
2, 63614, Note_on_c, 0, 71, 87
2, 63728, Note_on_c, 0, 76, 0
2, 63736, Note_on_c, 0, 76, 91
2, 63744, Note_on_c, 0, 48, 0
2, 63748, Note_on_c, 0, 48, 81
2, 63864, Note_on_c, 0, 79, 87
2, 63966, Note_on_c, 0, 48, 0
2, 63977, Note_on_c, 0, 83, 92
2, 63977, Note_on_c, 0, 48, 71
2, 64091, Note_on_c, 0, 88, 85
2, 64209, Control_c, 0, 64, 0
2, 64217, Note_on_c, 0, 59, 0
2, 64217, Note_on_c, 0, 48, 0
2, 64217, Note_on_c, 0, 71, 0
2, 64218, Note_on_c, 0, 67, 0
2, 64218, Note_on_c, 0, 36, 0
2, 64219, Note_on_c, 0, 79, 0
2, 64219, Note_on_c, 0, 52, 0
2, 64219, Note_on_c, 0, 83, 0
2, 64220, Note_on_c, 0, 76, 0
2, 64221, Note_on_c, 0, 90, 95
2, 64222, Note_on_c, 0, 50, 90
2, 64223, Note_on_c, 0, 88, 0
2, 64223, Note_on_c, 0, 38, 89
2, 64227, Note_on_c, 0, 55, 0
2, 64235, Note_on_c, 0, 64, 0
2, 64335, Control_c, 0, 64, 127
2, 64348, Note_on_c, 0, 91, 84
2, 64348, Note_on_c, 0, 93, 77
2, 64456, Note_on_c, 0, 86, 90
2, 64573, Note_on_c, 0, 50, 0
2, 64577, Note_on_c, 0, 81, 79
2, 64582, Note_on_c, 0, 50, 79
2, 64683, Note_on_c, 0, 79, 83
2, 64803, Note_on_c, 0, 50, 0
2, 64808, Note_on_c, 0, 78, 82
2, 64813, Note_on_c, 0, 50, 78
2, 64911, Note_on_c, 0, 86, 0
2, 64919, Note_on_c, 0, 86, 104
2, 64922, Note_on_c, 0, 57, 80
2, 64922, Note_on_c, 0, 74, 102
2, 64931, Note_on_c, 0, 54, 81
2, 64934, Note_on_c, 0, 93, 0
2, 64988, Note_on_c, 0, 79, 0
2, 64998, Note_on_c, 0, 79, 45
2, 65026, Note_on_c, 0, 81, 0
2, 65036, Note_on_c, 0, 81, 90
2, 65141, Note_on_c, 0, 50, 0
2, 65149, Note_on_c, 0, 79, 0
2, 65153, Note_on_c, 0, 50, 85
2, 65156, Note_on_c, 0, 79, 82
2, 65249, Note_on_c, 0, 78, 0
2, 65256, Note_on_c, 0, 74, 0
2, 65260, Note_on_c, 0, 78, 85
2, 65262, Note_on_c, 0, 74, 74
2, 65268, Note_on_c, 0, 45, 74
2, 65379, Note_on_c, 0, 38, 0
2, 65379, Note_on_c, 0, 90, 0
2, 65387, Note_on_c, 0, 78, 0
2, 65390, Note_on_c, 0, 38, 84
2, 65391, Note_on_c, 0, 90, 102
2, 65393, Note_on_c, 0, 78, 99
2, 65396, Note_on_c, 0, 86, 0
2, 65613, Control_c, 0, 64, 0
2, 65618, Note_on_c, 0, 91, 0
2, 65618, Note_on_c, 0, 45, 0
2, 65619, Note_on_c, 0, 74, 0
2, 65620, Note_on_c, 0, 38, 0
2, 65620, Note_on_c, 0, 81, 0
2, 65621, Note_on_c, 0, 90, 0
2, 65621, Note_on_c, 0, 57, 0
2, 65621, Note_on_c, 0, 50, 0
2, 65621, Note_on_c, 0, 78, 0
2, 65622, Note_on_c, 0, 54, 0
2, 65625, Note_on_c, 0, 79, 0
2, 65631, Note_on_c, 0, 88, 106
2, 65635, Note_on_c, 0, 76, 105
2, 65636, Note_on_c, 0, 79, 98
2, 65637, Note_on_c, 0, 40, 96
2, 65642, Note_on_c, 0, 28, 95
2, 65682, Note_on_c, 0, 28, 0
2, 65748, Control_c, 0, 64, 127
2, 66017, Note_on_c, 0, 40, 0
2, 66028, Note_on_c, 0, 40, 80
2, 66029, Note_on_c, 0, 59, 86
2, 66029, Note_on_c, 0, 28, 81
2, 66032, Note_on_c, 0, 55, 77
2, 66040, Note_on_c, 0, 28, 0
2, 66255, Note_on_c, 0, 40, 0
2, 66262, Note_on_c, 0, 52, 61
2, 66266, Note_on_c, 0, 40, 67
2, 66270, Note_on_c, 0, 52, 0
2, 66378, Note_on_c, 0, 79, 0
2, 66380, Note_on_c, 0, 40, 0
2, 66381, Note_on_c, 0, 59, 0
2, 66382, Note_on_c, 0, 76, 0
2, 66382, Note_on_c, 0, 55, 0
2, 66386, Control_c, 0, 64, 0
2, 66386, Note_on_c, 0, 79, 102
2, 66390, Note_on_c, 0, 71, 93
2, 66391, Note_on_c, 0, 67, 91
2, 66393, Note_on_c, 0, 88, 0
2, 66396, Note_on_c, 0, 30, 87
2, 66508, Control_c, 0, 64, 127
2, 66635, Note_on_c, 0, 59, 84
2, 66636, Note_on_c, 0, 55, 76
2, 66862, Note_on_c, 0, 30, 0
2, 66862, Note_on_c, 0, 59, 0
2, 66869, Note_on_c, 0, 55, 0
2, 66872, Note_on_c, 0, 30, 84
2, 66873, Note_on_c, 0, 42, 82
2, 66873, Note_on_c, 0, 59, 85
2, 66874, Note_on_c, 0, 55, 81
2, 67098, Control_c, 0, 64, 0
2, 67102, Note_on_c, 0, 30, 0
2, 67102, Note_on_c, 0, 71, 0
2, 67102, Note_on_c, 0, 42, 0
2, 67102, Note_on_c, 0, 67, 0
2, 67103, Note_on_c, 0, 79, 0
2, 67103, Note_on_c, 0, 55, 0
2, 67103, Note_on_c, 0, 59, 0
2, 67132, Note_on_c, 0, 78, 103
2, 67135, Note_on_c, 0, 69, 88
2, 67136, Note_on_c, 0, 31, 87
2, 67137, Note_on_c, 0, 66, 101
2, 67175, Note_on_c, 0, 31, 0
2, 67184, Control_c, 0, 64, 127
2, 67508, Note_on_c, 0, 71, 75
2, 67518, Note_on_c, 0, 59, 87
2, 67526, Note_on_c, 0, 55, 79
2, 67526, Note_on_c, 0, 43, 72
2, 67743, Note_on_c, 0, 59, 0
2, 67745, Note_on_c, 0, 55, 0
2, 67838, Control_c, 0, 64, 0
2, 67840, Note_on_c, 0, 71, 0
2, 67840, Note_on_c, 0, 69, 0
2, 67841, Note_on_c, 0, 43, 0
2, 67860, Note_on_c, 0, 66, 0
2, 67860, Note_on_c, 0, 78, 0
2, 67864, Note_on_c, 0, 78, 103
2, 67870, Note_on_c, 0, 66, 101
2, 67873, Note_on_c, 0, 74, 82
2, 67874, Note_on_c, 0, 50, 97
2, 67878, Note_on_c, 0, 38, 96
2, 67921, Control_c, 0, 64, 127
2, 68098, Note_on_c, 0, 79, 97
2, 68102, Note_on_c, 0, 33, 89
2, 68102, Note_on_c, 0, 45, 82
2, 68105, Note_on_c, 0, 67, 89
2, 68107, Note_on_c, 0, 76, 80
2, 68313, Note_on_c, 0, 50, 0
2, 68321, Note_on_c, 0, 38, 0
2, 68323, Note_on_c, 0, 50, 87
2, 68324, Note_on_c, 0, 81, 95
2, 68325, Note_on_c, 0, 38, 82
2, 68329, Note_on_c, 0, 69, 89
2, 68555, Control_c, 0, 64, 0
2, 68558, Note_on_c, 0, 74, 0
2, 68558, Note_on_c, 0, 79, 0
2, 68558, Note_on_c, 0, 38, 0
2, 68558, Note_on_c, 0, 33, 0
2, 68558, Note_on_c, 0, 45, 0
2, 68558, Note_on_c, 0, 66, 0
2, 68559, Note_on_c, 0, 81, 0
2, 68559, Note_on_c, 0, 78, 0
2, 68559, Note_on_c, 0, 69, 0
2, 68574, Note_on_c, 0, 50, 0
2, 68582, Note_on_c, 0, 67, 0
2, 68582, Note_on_c, 0, 76, 0
2, 68586, Note_on_c, 0, 64, 96
2, 68587, Note_on_c, 0, 76, 95
2, 68587, Note_on_c, 0, 48, 98
2, 68587, Note_on_c, 0, 67, 91
2, 68592, Note_on_c, 0, 36, 92
2, 68743, Control_c, 0, 64, 127
2, 68835, Note_on_c, 0, 36, 0
2, 68958, Note_on_c, 0, 48, 0
2, 68969, Note_on_c, 0, 48, 90
2, 68969, Note_on_c, 0, 55, 82
2, 69092, Note_on_c, 0, 59, 82
2, 69204, Note_on_c, 0, 48, 0
2, 69204, Note_on_c, 0, 64, 0
2, 69208, Note_on_c, 0, 48, 82
2, 69208, Note_on_c, 0, 64, 81
2, 69319, Note_on_c, 0, 48, 0
2, 69319, Note_on_c, 0, 55, 0
2, 69319, Note_on_c, 0, 67, 0
2, 69327, Note_on_c, 0, 48, 89
2, 69327, Note_on_c, 0, 67, 86
2, 69329, Note_on_c, 0, 52, 80
2, 69330, Note_on_c, 0, 55, 84
2, 69437, Note_on_c, 0, 71, 84
2, 69550, Note_on_c, 0, 48, 0
2, 69550, Note_on_c, 0, 76, 0
2, 69554, Note_on_c, 0, 76, 89
2, 69556, Note_on_c, 0, 48, 82
2, 69665, Note_on_c, 0, 67, 0
2, 69669, Note_on_c, 0, 67, 62
2, 69690, Note_on_c, 0, 79, 80
2, 69788, Note_on_c, 0, 48, 0
2, 69796, Note_on_c, 0, 48, 86
2, 69798, Note_on_c, 0, 83, 90
2, 69908, Note_on_c, 0, 88, 86
2, 70017, Note_on_c, 0, 59, 0
2, 70017, Note_on_c, 0, 67, 0
2, 70017, Control_c, 0, 64, 0
2, 70018, Note_on_c, 0, 71, 0
2, 70018, Note_on_c, 0, 48, 0
2, 70018, Note_on_c, 0, 52, 0
2, 70019, Note_on_c, 0, 64, 0
2, 70019, Note_on_c, 0, 83, 0
2, 70020, Note_on_c, 0, 79, 0
2, 70020, Note_on_c, 0, 76, 0
2, 70020, Note_on_c, 0, 88, 0
2, 70030, Note_on_c, 0, 50, 90
2, 70030, Note_on_c, 0, 38, 88
2, 70032, Note_on_c, 0, 90, 95
2, 70033, Note_on_c, 0, 55, 0
2, 70127, Note_on_c, 0, 91, 87
2, 70179, Control_c, 0, 64, 127
2, 70260, Note_on_c, 0, 93, 90
2, 70274, Note_on_c, 0, 86, 64
2, 70279, Note_on_c, 0, 86, 0
2, 70364, Note_on_c, 0, 50, 0
2, 70370, Note_on_c, 0, 50, 64
2, 70381, Note_on_c, 0, 86, 80
2, 70489, Note_on_c, 0, 81, 84
2, 70594, Note_on_c, 0, 50, 0
2, 70598, Note_on_c, 0, 50, 61
2, 70604, Note_on_c, 0, 79, 76
2, 70717, Note_on_c, 0, 50, 0
2, 70728, Note_on_c, 0, 50, 66
2, 70728, Note_on_c, 0, 78, 87
2, 70734, Note_on_c, 0, 57, 64
2, 70742, Note_on_c, 0, 54, 50
2, 70983, Note_on_c, 0, 60, 84
2, 71221, Note_on_c, 0, 62, 70
2, 71450, Note_on_c, 0, 57, 0
2, 71450, Control_c, 0, 64, 0
2, 71450, Note_on_c, 0, 81, 0
2, 71451, Note_on_c, 0, 50, 0
2, 71451, Note_on_c, 0, 93, 0
2, 71451, Note_on_c, 0, 62, 0
2, 71451, Note_on_c, 0, 54, 0
2, 71451, Note_on_c, 0, 78, 0
2, 71453, Note_on_c, 0, 38, 0
2, 71454, Note_on_c, 0, 90, 0
2, 71462, Note_on_c, 0, 86, 0
2, 71470, Note_on_c, 0, 60, 0
2, 71470, Note_on_c, 0, 79, 0
2, 71470, Note_on_c, 0, 91, 0
2, 71472, Note_on_c, 0, 64, 83
2, 71476, Note_on_c, 0, 60, 69
2, 71490, Note_on_c, 0, 45, 53
2, 71605, Note_on_c, 0, 52, 53
2, 71616, Control_c, 0, 64, 127
2, 71726, Note_on_c, 0, 55, 59
2, 71831, Note_on_c, 0, 52, 0
2, 71841, Note_on_c, 0, 52, 59
2, 71984, Note_on_c, 0, 55, 0
2, 71988, Note_on_c, 0, 62, 71
2, 71989, Note_on_c, 0, 55, 49
2, 72092, Note_on_c, 0, 52, 0
2, 72092, Note_on_c, 0, 64, 0
2, 72096, Note_on_c, 0, 52, 60
2, 72102, Note_on_c, 0, 64, 66
2, 72196, Note_on_c, 0, 52, 0
2, 72197, Note_on_c, 0, 55, 0
2, 72197, Note_on_c, 0, 60, 0
2, 72198, Note_on_c, 0, 64, 0
2, 72203, Control_c, 0, 64, 0
2, 72215, Note_on_c, 0, 62, 0
2, 72217, Note_on_c, 0, 66, 85
2, 72219, Note_on_c, 0, 62, 64
2, 72219, Note_on_c, 0, 47, 62
2, 72230, Note_on_c, 0, 45, 0
2, 72330, Control_c, 0, 64, 127
2, 72349, Note_on_c, 0, 54, 47
2, 72455, Note_on_c, 0, 57, 62
2, 72552, Note_on_c, 0, 54, 0
2, 72562, Note_on_c, 0, 54, 58
2, 72675, Note_on_c, 0, 57, 0
2, 72685, Note_on_c, 0, 57, 56
2, 72791, Note_on_c, 0, 54, 0
2, 72797, Note_on_c, 0, 54, 62
2, 72926, Note_on_c, 0, 67, 78
2, 72932, Note_on_c, 0, 64, 66
2, 72932, Note_on_c, 0, 48, 65
2, 72939, Note_on_c, 0, 57, 0
2, 72939, Note_on_c, 0, 54, 0
2, 72939, Note_on_c, 0, 62, 0
2, 72940, Note_on_c, 0, 47, 0
2, 72941, Control_c, 0, 64, 0
2, 72946, Note_on_c, 0, 66, 0
2, 73059, Control_c, 0, 64, 127
2, 73069, Note_on_c, 0, 55, 57
2, 73175, Note_on_c, 0, 59, 75
2, 73282, Note_on_c, 0, 55, 0
2, 73293, Note_on_c, 0, 55, 65
2, 73413, Note_on_c, 0, 59, 0
2, 73417, Note_on_c, 0, 59, 80
2, 73435, Note_on_c, 0, 66, 69
2, 73528, Note_on_c, 0, 55, 0
2, 73536, Note_on_c, 0, 55, 64
2, 73543, Note_on_c, 0, 67, 0
2, 73547, Note_on_c, 0, 67, 80
2, 73624, Control_c, 0, 64, 0
2, 73625, Note_on_c, 0, 48, 0
2, 73625, Note_on_c, 0, 67, 0
2, 73625, Note_on_c, 0, 64, 0
2, 73625, Note_on_c, 0, 59, 0
2, 73625, Note_on_c, 0, 55, 0
2, 73657, Note_on_c, 0, 50, 76
2, 73658, Note_on_c, 0, 66, 0
2, 73659, Note_on_c, 0, 69, 90
2, 73663, Note_on_c, 0, 66, 82
2, 73712, Control_c, 0, 64, 127
2, 73784, Note_on_c, 0, 57, 70
2, 73892, Note_on_c, 0, 62, 83
2, 73996, Note_on_c, 0, 69, 0
2, 74004, Note_on_c, 0, 57, 0
2, 74008, Note_on_c, 0, 69, 72
2, 74008, Note_on_c, 0, 57, 85
2, 74131, Note_on_c, 0, 83, 101
2, 74135, Note_on_c, 0, 50, 0
2, 74136, Note_on_c, 0, 71, 90
2, 74137, Note_on_c, 0, 38, 74
2, 74139, Note_on_c, 0, 50, 74
2, 74142, Note_on_c, 0, 38, 0
2, 74231, Note_on_c, 0, 45, 73
2, 74331, Control_c, 0, 64, 0
2, 74333, Note_on_c, 0, 57, 0
2, 74334, Note_on_c, 0, 62, 0
2, 74334, Note_on_c, 0, 69, 0
2, 74334, Note_on_c, 0, 50, 0
2, 74335, Note_on_c, 0, 71, 0
2, 74336, Note_on_c, 0, 83, 0
2, 74342, Note_on_c, 0, 66, 0
2, 74365, Note_on_c, 0, 45, 0
2, 74371, Note_on_c, 0, 84, 101
2, 74373, Note_on_c, 0, 81, 96
2, 74375, Note_on_c, 0, 45, 88
2, 74376, Note_on_c, 0, 72, 99
2, 74376, Note_on_c, 0, 33, 90
2, 74378, Note_on_c, 0, 76, 88
2, 74422, Note_on_c, 0, 33, 0
2, 74434, Control_c, 0, 64, 127
2, 74616, Note_on_c, 0, 52, 85
2, 74719, Note_on_c, 0, 60, 82
2, 74720, Note_on_c, 0, 55, 85
2, 74841, Note_on_c, 0, 81, 0
2, 74844, Note_on_c, 0, 83, 100
2, 74845, Note_on_c, 0, 71, 89
2, 74850, Note_on_c, 0, 81, 72
2, 74956, Note_on_c, 0, 72, 0
2, 74956, Note_on_c, 0, 84, 0
2, 74961, Note_on_c, 0, 84, 94
2, 74961, Note_on_c, 0, 72, 91
2, 75021, Note_on_c, 0, 76, 0
2, 75021, Note_on_c, 0, 45, 0
2, 75021, Note_on_c, 0, 60, 0
2, 75021, Note_on_c, 0, 81, 0
2, 75022, Note_on_c, 0, 55, 0
2, 75022, Note_on_c, 0, 71, 0
2, 75022, Note_on_c, 0, 52, 0
2, 75022, Note_on_c, 0, 72, 0
2, 75022, Note_on_c, 0, 83, 0
2, 75023, Note_on_c, 0, 84, 0
2, 75025, Control_c, 0, 64, 0
2, 75083, Note_on_c, 0, 47, 93
2, 75083, Note_on_c, 0, 86, 103
2, 75084, Note_on_c, 0, 35, 90
2, 75085, Note_on_c, 0, 74, 102
2, 75090, Note_on_c, 0, 78, 93
2, 75118, Control_c, 0, 64, 127
2, 75302, Note_on_c, 0, 74, 0
2, 75313, Note_on_c, 0, 74, 79
2, 75314, Note_on_c, 0, 69, 62
2, 75314, Note_on_c, 0, 62, 82
2, 75315, Note_on_c, 0, 57, 72
2, 75325, Note_on_c, 0, 35, 0
2, 75425, Note_on_c, 0, 62, 0
2, 75430, Note_on_c, 0, 62, 73
2, 75433, Note_on_c, 0, 54, 77
2, 75435, Note_on_c, 0, 66, 92
2, 75517, Note_on_c, 0, 47, 0
2, 75521, Note_on_c, 0, 47, 75
2, 75540, Note_on_c, 0, 62, 0
2, 75540, Note_on_c, 0, 69, 0
2, 75544, Note_on_c, 0, 69, 87
2, 75550, Note_on_c, 0, 59, 66
2, 75550, Note_on_c, 0, 62, 64
2, 75555, Note_on_c, 0, 59, 0
2, 75655, Note_on_c, 0, 66, 0
2, 75655, Note_on_c, 0, 74, 0
2, 75661, Note_on_c, 0, 74, 91
2, 75666, Note_on_c, 0, 66, 70
2, 75765, Note_on_c, 0, 47, 0
2, 75765, Note_on_c, 0, 69, 0
2, 75766, Note_on_c, 0, 57, 0
2, 75766, Control_c, 0, 64, 0
2, 75766, Note_on_c, 0, 54, 0
2, 75766, Note_on_c, 0, 86, 0
2, 75766, Note_on_c, 0, 78, 0
2, 75766, Note_on_c, 0, 66, 0
2, 75766, Note_on_c, 0, 74, 0
2, 75766, Note_on_c, 0, 62, 0
2, 75796, Note_on_c, 0, 48, 101
2, 75796, Note_on_c, 0, 88, 103
2, 75797, Note_on_c, 0, 79, 95
2, 75797, Note_on_c, 0, 36, 98
2, 75798, Note_on_c, 0, 76, 101
2, 75855, Control_c, 0, 64, 127
2, 75916, Note_on_c, 0, 36, 0
2, 76001, Note_on_c, 0, 48, 0
2, 76012, Note_on_c, 0, 48, 77
2, 76146, Note_on_c, 0, 52, 75
2, 76148, Note_on_c, 0, 60, 80
2, 76150, Note_on_c, 0, 55, 71
2, 76274, Note_on_c, 0, 86, 95
2, 76276, Note_on_c, 0, 74, 83
2, 76362, Note_on_c, 0, 76, 0
2, 76362, Note_on_c, 0, 88, 0
2, 76371, Note_on_c, 0, 88, 98
2, 76373, Note_on_c, 0, 76, 97
2, 76438, Note_on_c, 0, 74, 0
2, 76439, Note_on_c, 0, 60, 0
2, 76440, Note_on_c, 0, 79, 0
2, 76440, Note_on_c, 0, 86, 0
2, 76440, Note_on_c, 0, 55, 0
2, 76440, Note_on_c, 0, 88, 0
2, 76440, Note_on_c, 0, 48, 0
2, 76440, Note_on_c, 0, 52, 0
2, 76441, Note_on_c, 0, 76, 0
2, 76443, Control_c, 0, 64, 0
2, 76499, Note_on_c, 0, 90, 108
2, 76503, Note_on_c, 0, 81, 96
2, 76504, Note_on_c, 0, 78, 101
2, 76504, Note_on_c, 0, 38, 98
2, 76504, Note_on_c, 0, 50, 98
2, 76504, Note_on_c, 0, 86, 90
2, 76538, Control_c, 0, 64, 127
2, 76754, Note_on_c, 0, 66, 86
2, 76787, Note_on_c, 0, 69, 66
2, 76881, Note_on_c, 0, 67, 82
2, 76984, Note_on_c, 0, 69, 0
2, 76992, Note_on_c, 0, 38, 0
2, 76995, Note_on_c, 0, 69, 82
2, 76995, Note_on_c, 0, 38, 72
2, 77114, Note_on_c, 0, 38, 0
2, 77114, Note_on_c, 0, 50, 0
2, 77115, Note_on_c, 0, 74, 91
2, 77119, Note_on_c, 0, 38, 67
2, 77120, Note_on_c, 0, 50, 63
2, 77128, Note_on_c, 0, 48, 49
2, 77137, Note_on_c, 0, 48, 0
2, 77176, Note_on_c, 0, 69, 0
2, 77181, Note_on_c, 0, 69, 72
2, 77187, Note_on_c, 0, 78, 0
2, 77187, Note_on_c, 0, 86, 0
2, 77188, Note_on_c, 0, 81, 0
2, 77188, Note_on_c, 0, 50, 0
2, 77188, Note_on_c, 0, 66, 0
2, 77188, Note_on_c, 0, 67, 0
2, 77194, Control_c, 0, 64, 0
2, 77199, Note_on_c, 0, 90, 0
2, 77230, Note_on_c, 0, 69, 0
2, 77250, Note_on_c, 0, 66, 82
2, 77302, Note_on_c, 0, 66, 0
2, 77352, Note_on_c, 0, 74, 0
2, 77371, Note_on_c, 0, 64, 74
2, 77445, Note_on_c, 0, 64, 0
2, 77486, Note_on_c, 0, 67, 80
2, 77518, Note_on_c, 0, 67, 0
2, 77613, Note_on_c, 0, 66, 66
2, 77639, Note_on_c, 0, 66, 0
2, 77725, Note_on_c, 0, 69, 77
2, 77841, Note_on_c, 0, 67, 80
2, 77880, Note_on_c, 0, 67, 0
2, 77898, Note_on_c, 0, 69, 0
2, 77957, Note_on_c, 0, 64, 77
2, 77986, Note_on_c, 0, 64, 0
2, 78067, Note_on_c, 0, 67, 78
2, 78096, Note_on_c, 0, 67, 0
2, 78194, Note_on_c, 0, 64, 75
2, 78226, Note_on_c, 0, 64, 0
2, 78311, Note_on_c, 0, 62, 70
2, 78359, Note_on_c, 0, 62, 0
2, 78426, Note_on_c, 0, 67, 80
2, 78457, Note_on_c, 0, 67, 0
2, 78544, Note_on_c, 0, 64, 80
2, 78576, Note_on_c, 0, 64, 0
2, 78666, Note_on_c, 0, 66, 74
2, 78695, Note_on_c, 0, 66, 0
2, 78781, Note_on_c, 0, 64, 81
2, 78826, Note_on_c, 0, 64, 0
2, 78900, Note_on_c, 0, 67, 76
2, 78942, Control_c, 0, 64, 127
2, 79011, Note_on_c, 0, 66, 84
2, 79111, Note_on_c, 0, 67, 0
2, 79138, Note_on_c, 0, 69, 86
2, 79243, Note_on_c, 0, 67, 81
2, 79364, Note_on_c, 0, 62, 90
2, 79368, Note_on_c, 0, 88, 109
2, 79370, Note_on_c, 0, 76, 102
2, 79375, Note_on_c, 0, 57, 85
2, 79454, Note_on_c, 0, 55, 88
2, 79561, Note_on_c, 0, 50, 88
2, 79594, Note_on_c, 0, 90, 104
2, 79604, Note_on_c, 0, 78, 77
2, 79677, Note_on_c, 0, 45, 78
2, 79709, Note_on_c, 0, 91, 111
2, 79713, Note_on_c, 0, 79, 105
2, 79833, Note_on_c, 0, 38, 0
2, 79837, Note_on_c, 0, 38, 95
2, 80071, Control_c, 0, 64, 0
2, 80071, Note_on_c, 0, 45, 0
2, 80073, Note_on_c, 0, 57, 0
2, 80073, Note_on_c, 0, 55, 0
2, 80073, Note_on_c, 0, 79, 0
2, 80074, Note_on_c, 0, 78, 0
2, 80074, Note_on_c, 0, 50, 0
2, 80074, Note_on_c, 0, 88, 0
2, 80074, Note_on_c, 0, 91, 0
2, 80074, Note_on_c, 0, 38, 0
2, 80075, Note_on_c, 0, 90, 0
2, 80075, Note_on_c, 0, 76, 0
2, 80087, Note_on_c, 0, 62, 0
2, 80087, Note_on_c, 0, 66, 0
2, 80087, Note_on_c, 0, 67, 0
2, 80087, Note_on_c, 0, 69, 0
2, 80095, Note_on_c, 0, 36, 97
2, 80096, Note_on_c, 0, 93, 110
2, 80097, Note_on_c, 0, 81, 107
2, 80099, Note_on_c, 0, 84, 100
2, 80140, Control_c, 0, 64, 127
2, 80238, Note_on_c, 0, 48, 82
2, 80455, Note_on_c, 0, 36, 0
2, 80455, Note_on_c, 0, 48, 0
2, 80458, Note_on_c, 0, 91, 105
2, 80460, Note_on_c, 0, 36, 78
2, 80462, Note_on_c, 0, 48, 77
2, 80465, Note_on_c, 0, 79, 96
2, 80570, Note_on_c, 0, 48, 0
2, 80581, Note_on_c, 0, 48, 86
2, 80705, Note_on_c, 0, 90, 89
2, 80705, Note_on_c, 0, 78, 83
2, 80792, Note_on_c, 0, 84, 0
2, 80793, Note_on_c, 0, 81, 0
2, 80795, Note_on_c, 0, 90, 0
2, 80796, Note_on_c, 0, 91, 0
2, 80796, Note_on_c, 0, 79, 0
2, 80800, Control_c, 0, 64, 0
2, 80808, Note_on_c, 0, 93, 0
2, 80824, Note_on_c, 0, 36, 0
2, 80824, Note_on_c, 0, 48, 0
2, 80824, Note_on_c, 0, 78, 0
2, 80829, Note_on_c, 0, 47, 95
2, 80829, Note_on_c, 0, 86, 100
2, 80829, Note_on_c, 0, 35, 88
2, 80832, Note_on_c, 0, 78, 89
2, 80832, Note_on_c, 0, 74, 102
2, 80862, Control_c, 0, 64, 127
2, 80866, Note_on_c, 0, 76, 53
2, 80868, Note_on_c, 0, 35, 0
2, 81066, Note_on_c, 0, 69, 76
2, 81067, Note_on_c, 0, 66, 90
2, 81068, Note_on_c, 0, 62, 82
2, 81068, Note_on_c, 0, 57, 82
2, 81072, Note_on_c, 0, 54, 77
2, 81185, Note_on_c, 0, 47, 0
2, 81190, Note_on_c, 0, 47, 85
2, 81300, Note_on_c, 0, 54, 0
2, 81300, Note_on_c, 0, 69, 0
2, 81300, Note_on_c, 0, 78, 0
2, 81304, Note_on_c, 0, 69, 74
2, 81305, Note_on_c, 0, 81, 85
2, 81306, Note_on_c, 0, 90, 104
2, 81307, Note_on_c, 0, 78, 95
2, 81309, Note_on_c, 0, 54, 72
2, 81422, Note_on_c, 0, 91, 103
2, 81425, Note_on_c, 0, 79, 96
2, 81485, Note_on_c, 0, 81, 0
2, 81486, Note_on_c, 0, 74, 0
2, 81486, Note_on_c, 0, 62, 0
2, 81486, Note_on_c, 0, 57, 0
2, 81486, Note_on_c, 0, 47, 0
2, 81486, Note_on_c, 0, 86, 0
2, 81486, Note_on_c, 0, 79, 0
2, 81487, Note_on_c, 0, 91, 0
2, 81487, Note_on_c, 0, 54, 0
2, 81487, Note_on_c, 0, 66, 0
2, 81487, Note_on_c, 0, 90, 0
2, 81487, Control_c, 0, 64, 0
2, 81487, Note_on_c, 0, 78, 0
2, 81492, Note_on_c, 0, 69, 0
2, 81492, Note_on_c, 0, 76, 0
2, 81540, Note_on_c, 0, 93, 110
2, 81540, Note_on_c, 0, 81, 104
2, 81542, Note_on_c, 0, 84, 100
2, 81561, Control_c, 0, 64, 127
2, 81675, Note_on_c, 0, 48, 94
2, 81905, Note_on_c, 0, 91, 102
2, 81910, Note_on_c, 0, 55, 76
2, 81910, Note_on_c, 0, 79, 96
2, 81914, Note_on_c, 0, 55, 0
2, 82014, Note_on_c, 0, 48, 0
2, 82026, Note_on_c, 0, 48, 87
2, 82142, Note_on_c, 0, 90, 93
2, 82146, Note_on_c, 0, 78, 74
2, 82202, Control_c, 0, 64, 0
2, 82215, Note_on_c, 0, 93, 0
2, 82215, Note_on_c, 0, 84, 0
2, 82216, Note_on_c, 0, 81, 0
2, 82217, Note_on_c, 0, 79, 0
2, 82217, Note_on_c, 0, 90, 0
2, 82218, Note_on_c, 0, 78, 0
2, 82237, Note_on_c, 0, 48, 0
2, 82260, Note_on_c, 0, 91, 0
2, 82264, Note_on_c, 0, 52, 101
2, 82264, Note_on_c, 0, 91, 104
2, 82266, Note_on_c, 0, 79, 97
2, 82268, Note_on_c, 0, 40, 96
2, 82271, Note_on_c, 0, 83, 96
2, 82291, Control_c, 0, 64, 127
2, 82496, Note_on_c, 0, 64, 79
2, 82499, Note_on_c, 0, 59, 83
2, 82499, Note_on_c, 0, 67, 81
2, 82502, Note_on_c, 0, 55, 75
2, 82606, Note_on_c, 0, 52, 0
2, 82616, Note_on_c, 0, 52, 80
2, 82728, Note_on_c, 0, 55, 0
2, 82728, Note_on_c, 0, 59, 0
2, 82728, Note_on_c, 0, 64, 0
2, 82728, Note_on_c, 0, 67, 0
2, 82734, Note_on_c, 0, 71, 88
2, 82735, Note_on_c, 0, 67, 80
2, 82737, Note_on_c, 0, 59, 88
2, 82737, Note_on_c, 0, 55, 81
2, 82739, Note_on_c, 0, 64, 75
2, 82957, Note_on_c, 0, 64, 0
2, 82957, Note_on_c, 0, 67, 0
2, 82957, Control_c, 0, 64, 0
2, 82957, Note_on_c, 0, 83, 0
2, 82957, Note_on_c, 0, 59, 0
2, 82957, Note_on_c, 0, 71, 0
2, 82958, Note_on_c, 0, 55, 0
2, 82959, Note_on_c, 0, 79, 0
2, 82959, Note_on_c, 0, 91, 0
2, 82961, Note_on_c, 0, 40, 0
2, 82982, Note_on_c, 0, 52, 0
2, 82986, Note_on_c, 0, 48, 100
2, 82986, Note_on_c, 0, 36, 97
2, 82987, Note_on_c, 0, 93, 106
2, 82987, Note_on_c, 0, 81, 101
2, 82988, Note_on_c, 0, 84, 102
2, 83043, Control_c, 0, 64, 127
2, 83137, Note_on_c, 0, 52, 75
2, 83139, Note_on_c, 0, 55, 68
2, 83238, Note_on_c, 0, 91, 93
2, 83239, Note_on_c, 0, 79, 88
2, 83343, Note_on_c, 0, 48, 0
2, 83352, Note_on_c, 0, 48, 84
2, 83466, Note_on_c, 0, 52, 0
2, 83466, Note_on_c, 0, 81, 0
2, 83474, Note_on_c, 0, 52, 77
2, 83476, Note_on_c, 0, 90, 105
2, 83477, Note_on_c, 0, 81, 89
2, 83477, Note_on_c, 0, 78, 92
2, 83669, Control_c, 0, 64, 0
2, 83673, Note_on_c, 0, 93, 0
2, 83675, Note_on_c, 0, 52, 0
2, 83675, Note_on_c, 0, 84, 0
2, 83676, Note_on_c, 0, 81, 0
2, 83676, Note_on_c, 0, 48, 0
2, 83676, Note_on_c, 0, 91, 0
2, 83676, Note_on_c, 0, 79, 0
2, 83676, Note_on_c, 0, 78, 0
2, 83677, Note_on_c, 0, 55, 0
2, 83677, Note_on_c, 0, 36, 0
2, 83710, Note_on_c, 0, 50, 102
2, 83714, Note_on_c, 0, 38, 101
2, 83765, Control_c, 0, 64, 127
2, 83848, Note_on_c, 0, 57, 73
2, 83852, Note_on_c, 0, 54, 75
2, 83852, Note_on_c, 0, 66, 68
2, 83971, Note_on_c, 0, 86, 102
2, 83976, Note_on_c, 0, 78, 86
2, 83976, Note_on_c, 0, 74, 94
2, 84080, Note_on_c, 0, 50, 0
2, 84090, Note_on_c, 0, 50, 75
2, 84091, Note_on_c, 0, 62, 71
2, 84180, Note_on_c, 0, 57, 0
2, 84188, Note_on_c, 0, 54, 0
2, 84188, Note_on_c, 0, 66, 0
2, 84191, Note_on_c, 0, 57, 76
2, 84192, Note_on_c, 0, 54, 72
2, 84192, Note_on_c, 0, 83, 100
2, 84192, Note_on_c, 0, 66, 73
2, 84194, Note_on_c, 0, 71, 82
2, 84295, Note_on_c, 0, 74, 0
2, 84295, Note_on_c, 0, 86, 0
2, 84305, Note_on_c, 0, 86, 96
2, 84306, Note_on_c, 0, 74, 89
2, 84408, Control_c, 0, 64, 0
2, 84410, Note_on_c, 0, 90, 0
2, 84415, Note_on_c, 0, 38, 0
2, 84415, Note_on_c, 0, 83, 0
2, 84415, Note_on_c, 0, 71, 0
2, 84415, Note_on_c, 0, 50, 0
2, 84415, Note_on_c, 0, 86, 0
2, 84416, Note_on_c, 0, 54, 0
2, 84416, Note_on_c, 0, 57, 0
2, 84416, Note_on_c, 0, 74, 0
2, 84416, Note_on_c, 0, 78, 0
2, 84427, Note_on_c, 0, 88, 107
2, 84429, Note_on_c, 0, 76, 102
2, 84430, Note_on_c, 0, 40, 97
2, 84433, Note_on_c, 0, 79, 90
2, 84433, Note_on_c, 0, 62, 0
2, 84433, Note_on_c, 0, 66, 0
2, 84510, Control_c, 0, 64, 127
2, 84574, Note_on_c, 0, 47, 74
2, 84671, Note_on_c, 0, 52, 74
2, 84675, Note_on_c, 0, 69, 84
2, 84689, Note_on_c, 0, 66, 76
2, 84803, Note_on_c, 0, 54, 65
2, 84910, Note_on_c, 0, 67, 88
2, 84912, Note_on_c, 0, 64, 76
2, 84912, Note_on_c, 0, 55, 77
2, 85017, Note_on_c, 0, 52, 0
2, 85017, Note_on_c, 0, 66, 0
2, 85026, Note_on_c, 0, 52, 78
2, 85027, Note_on_c, 0, 66, 93
2, 85132, Note_on_c, 0, 64, 0
2, 85132, Note_on_c, 0, 67, 0
2, 85142, Note_on_c, 0, 64, 90
2, 85143, Note_on_c, 0, 67, 103
2, 85146, Note_on_c, 0, 59, 92
2, 85263, Note_on_c, 0, 55, 0
2, 85267, Note_on_c, 0, 55, 80
2, 85355, Note_on_c, 0, 54, 0
2, 85366, Note_on_c, 0, 54, 67
2, 85387, Note_on_c, 0, 90, 104
2, 85393, Note_on_c, 0, 78, 85
2, 85470, Note_on_c, 0, 52, 0
2, 85479, Note_on_c, 0, 52, 84
2, 85509, Note_on_c, 0, 79, 0
2, 85515, Note_on_c, 0, 91, 108
2, 85515, Note_on_c, 0, 79, 104
2, 85624, Note_on_c, 0, 40, 0
2, 85635, Note_on_c, 0, 40, 100
2, 85843, Control_c, 0, 64, 0
2, 85850, Note_on_c, 0, 69, 0
2, 85850, Note_on_c, 0, 40, 0
2, 85850, Note_on_c, 0, 66, 0
2, 85850, Note_on_c, 0, 67, 0
2, 85850, Note_on_c, 0, 59, 0
2, 85850, Note_on_c, 0, 79, 0
2, 85850, Note_on_c, 0, 78, 0
2, 85850, Note_on_c, 0, 91, 0
2, 85850, Note_on_c, 0, 90, 0
2, 85850, Note_on_c, 0, 52, 0
2, 85850, Note_on_c, 0, 76, 0
2, 85850, Note_on_c, 0, 54, 0
2, 85851, Note_on_c, 0, 55, 0
2, 85851, Note_on_c, 0, 88, 0
2, 85862, Note_on_c, 0, 64, 0
2, 85870, Note_on_c, 0, 47, 0
2, 85884, Note_on_c, 0, 36, 99
2, 85884, Note_on_c, 0, 93, 109
2, 85884, Note_on_c, 0, 81, 105
2, 85888, Note_on_c, 0, 84, 100
2, 85939, Control_c, 0, 64, 127
2, 86033, Note_on_c, 0, 48, 82
2, 86261, Note_on_c, 0, 36, 0
2, 86262, Note_on_c, 0, 91, 101
2, 86265, Note_on_c, 0, 79, 96
2, 86266, Note_on_c, 0, 36, 92
2, 86369, Note_on_c, 0, 48, 0
2, 86373, Note_on_c, 0, 48, 88
2, 86503, Note_on_c, 0, 78, 79
2, 86503, Note_on_c, 0, 90, 83
2, 86572, Note_on_c, 0, 93, 0
2, 86574, Note_on_c, 0, 81, 0
2, 86575, Note_on_c, 0, 90, 0
2, 86575, Note_on_c, 0, 36, 0
2, 86575, Note_on_c, 0, 48, 0
2, 86575, Note_on_c, 0, 91, 0
2, 86576, Note_on_c, 0, 84, 0
2, 86577, Note_on_c, 0, 79, 0
2, 86577, Note_on_c, 0, 78, 0
2, 86579, Control_c, 0, 64, 0
2, 86626, Note_on_c, 0, 86, 102
2, 86629, Note_on_c, 0, 47, 97
2, 86630, Note_on_c, 0, 74, 98
2, 86631, Note_on_c, 0, 35, 92
2, 86633, Note_on_c, 0, 78, 90
2, 86661, Control_c, 0, 64, 127
2, 86863, Note_on_c, 0, 66, 95
2, 86864, Note_on_c, 0, 57, 82
2, 86865, Note_on_c, 0, 54, 82
2, 86865, Note_on_c, 0, 62, 81
2, 86976, Note_on_c, 0, 47, 0
2, 86980, Note_on_c, 0, 47, 82
2, 86987, Note_on_c, 0, 35, 0
2, 87098, Note_on_c, 0, 54, 0
2, 87098, Note_on_c, 0, 57, 0
2, 87102, Note_on_c, 0, 69, 72
2, 87103, Note_on_c, 0, 57, 70
2, 87104, Note_on_c, 0, 54, 65
2, 87106, Note_on_c, 0, 78, 0
2, 87111, Note_on_c, 0, 90, 101
2, 87111, Note_on_c, 0, 78, 89
2, 87229, Note_on_c, 0, 91, 103
2, 87232, Note_on_c, 0, 79, 96
2, 87288, Note_on_c, 0, 74, 0
2, 87288, Note_on_c, 0, 69, 0
2, 87288, Note_on_c, 0, 62, 0
2, 87288, Note_on_c, 0, 86, 0
2, 87288, Note_on_c, 0, 57, 0
2, 87289, Note_on_c, 0, 54, 0
2, 87289, Note_on_c, 0, 66, 0
2, 87289, Note_on_c, 0, 47, 0
2, 87289, Note_on_c, 0, 79, 0
2, 87290, Note_on_c, 0, 78, 0
2, 87290, Note_on_c, 0, 90, 0
2, 87294, Control_c, 0, 64, 0
2, 87343, Note_on_c, 0, 36, 98
2, 87348, Note_on_c, 0, 93, 110
2, 87350, Note_on_c, 0, 81, 105
2, 87351, Note_on_c, 0, 84, 98
2, 87390, Control_c, 0, 64, 127
2, 87485, Note_on_c, 0, 48, 95
2, 87705, Note_on_c, 0, 36, 0
2, 87705, Note_on_c, 0, 91, 0
2, 87715, Note_on_c, 0, 36, 91
2, 87716, Note_on_c, 0, 91, 106
2, 87718, Note_on_c, 0, 79, 101
2, 87718, Note_on_c, 0, 24, 83
2, 87813, Note_on_c, 0, 48, 0
2, 87823, Note_on_c, 0, 48, 72
2, 87951, Note_on_c, 0, 81, 0
2, 87951, Note_on_c, 0, 93, 0
2, 87957, Note_on_c, 0, 81, 98
2, 87958, Note_on_c, 0, 93, 100
2, 88028, Note_on_c, 0, 24, 0
2, 88028, Note_on_c, 0, 93, 0
2, 88031, Note_on_c, 0, 81, 0
2, 88031, Note_on_c, 0, 91, 0
2, 88031, Note_on_c, 0, 36, 0
2, 88031, Note_on_c, 0, 84, 0
2, 88031, Note_on_c, 0, 79, 0
2, 88031, Control_c, 0, 64, 0
2, 88031, Note_on_c, 0, 48, 0
2, 88080, Note_on_c, 0, 95, 99
2, 88082, Note_on_c, 0, 31, 92
2, 88082, Note_on_c, 0, 86, 99
2, 88083, Note_on_c, 0, 43, 99
2, 88083, Note_on_c, 0, 83, 102
2, 88085, Note_on_c, 0, 91, 95
2, 88120, Control_c, 0, 64, 127
2, 88325, Note_on_c, 0, 62, 75
2, 88326, Note_on_c, 0, 67, 81
2, 88326, Note_on_c, 0, 55, 85
2, 88329, Note_on_c, 0, 59, 84
2, 88565, Note_on_c, 0, 55, 0
2, 88565, Note_on_c, 0, 59, 0
2, 88565, Note_on_c, 0, 67, 0
2, 88570, Note_on_c, 0, 71, 86
2, 88575, Note_on_c, 0, 67, 78
2, 88576, Note_on_c, 0, 59, 81
2, 88577, Note_on_c, 0, 55, 83
2, 88795, Note_on_c, 0, 71, 0
2, 88796, Note_on_c, 0, 59, 0
2, 88797, Note_on_c, 0, 62, 0
2, 88797, Note_on_c, 0, 91, 0
2, 88798, Note_on_c, 0, 67, 0
2, 88798, Note_on_c, 0, 43, 0
2, 88799, Note_on_c, 0, 31, 0
2, 88802, Control_c, 0, 64, 0
2, 88803, Note_on_c, 0, 86, 0
2, 88811, Note_on_c, 0, 83, 0
2, 88811, Note_on_c, 0, 95, 0
2, 88815, Note_on_c, 0, 86, 101
2, 88815, Note_on_c, 0, 36, 100
2, 88815, Note_on_c, 0, 95, 105
2, 88817, Note_on_c, 0, 48, 100
2, 88819, Note_on_c, 0, 55, 0
2, 88819, Note_on_c, 0, 83, 102
2, 88880, Control_c, 0, 64, 127
2, 88962, Note_on_c, 0, 52, 74
2, 88962, Note_on_c, 0, 55, 73
2, 89064, Note_on_c, 0, 93, 100
2, 89066, Note_on_c, 0, 81, 96
2, 89068, Note_on_c, 0, 64, 74
2, 89180, Note_on_c, 0, 52, 0
2, 89186, Note_on_c, 0, 52, 46
2, 89295, Note_on_c, 0, 52, 0
2, 89295, Note_on_c, 0, 55, 0
2, 89304, Note_on_c, 0, 91, 101
2, 89305, Note_on_c, 0, 55, 74
2, 89305, Note_on_c, 0, 52, 81
2, 89308, Note_on_c, 0, 79, 98
2, 89308, Note_on_c, 0, 86, 0
2, 89504, Note_on_c, 0, 48, 0
2, 89504, Note_on_c, 0, 93, 0
2, 89505, Note_on_c, 0, 52, 0
2, 89505, Note_on_c, 0, 83, 0
2, 89505, Note_on_c, 0, 79, 0
2, 89506, Note_on_c, 0, 91, 0
2, 89506, Note_on_c, 0, 55, 0
2, 89506, Control_c, 0, 64, 0
2, 89510, Note_on_c, 0, 64, 0
2, 89510, Note_on_c, 0, 95, 0
2, 89518, Note_on_c, 0, 36, 0
2, 89533, Note_on_c, 0, 81, 0
2, 89537, Note_on_c, 0, 50, 96
2, 89537, Note_on_c, 0, 90, 103
2, 89538, Note_on_c, 0, 38, 95
2, 89540, Note_on_c, 0, 81, 97
2, 89543, Note_on_c, 0, 78, 97
2, 89594, Control_c, 0, 64, 127
2, 89668, Note_on_c, 0, 57, 79
2, 89670, Note_on_c, 0, 66, 78
2, 89675, Note_on_c, 0, 54, 77
2, 89781, Note_on_c, 0, 86, 100
2, 89783, Note_on_c, 0, 74, 94
2, 89879, Note_on_c, 0, 50, 0
2, 89883, Note_on_c, 0, 62, 69
2, 89884, Note_on_c, 0, 50, 83
2, 89978, Note_on_c, 0, 57, 0
2, 89986, Note_on_c, 0, 57, 79
2, 89986, Note_on_c, 0, 54, 0
2, 89992, Note_on_c, 0, 54, 71
2, 89994, Note_on_c, 0, 66, 0
2, 90001, Note_on_c, 0, 83, 97
2, 90001, Note_on_c, 0, 66, 71
2, 90005, Note_on_c, 0, 71, 82
2, 90101, Note_on_c, 0, 86, 0
2, 90109, Note_on_c, 0, 74, 0
2, 90109, Note_on_c, 0, 64, 63
2, 90112, Note_on_c, 0, 86, 98
2, 90114, Note_on_c, 0, 74, 89
2, 90117, Note_on_c, 0, 64, 0
2, 90235, Note_on_c, 0, 71, 0
2, 90235, Note_on_c, 0, 83, 0
2, 90235, Note_on_c, 0, 50, 0
2, 90235, Note_on_c, 0, 38, 0
2, 90235, Note_on_c, 0, 54, 0
2, 90235, Note_on_c, 0, 81, 0
2, 90235, Note_on_c, 0, 78, 0
2, 90235, Note_on_c, 0, 74, 0
2, 90235, Note_on_c, 0, 90, 0
2, 90236, Note_on_c, 0, 57, 0
2, 90236, Note_on_c, 0, 66, 0
2, 90236, Control_c, 0, 64, 0
2, 90240, Note_on_c, 0, 62, 0
2, 90246, Note_on_c, 0, 88, 100
2, 90249, Note_on_c, 0, 40, 93
2, 90251, Note_on_c, 0, 79, 90
2, 90251, Note_on_c, 0, 76, 96
2, 90293, Note_on_c, 0, 86, 0
2, 90355, Control_c, 0, 64, 127
2, 90382, Note_on_c, 0, 47, 69
2, 90489, Note_on_c, 0, 52, 81
2, 90607, Note_on_c, 0, 54, 73
2, 90726, Note_on_c, 0, 55, 73
2, 90823, Note_on_c, 0, 52, 0
2, 90827, Note_on_c, 0, 52, 81
2, 90968, Note_on_c, 0, 64, 88
2, 90977, Note_on_c, 0, 76, 0
2, 90984, Note_on_c, 0, 76, 96
2, 90987, Note_on_c, 0, 67, 94
2, 91030, Note_on_c, 0, 59, 81
2, 91084, Note_on_c, 0, 55, 0
2, 91091, Note_on_c, 0, 55, 82
2, 91200, Note_on_c, 0, 52, 0
2, 91203, Note_on_c, 0, 78, 91
2, 91205, Note_on_c, 0, 66, 88
2, 91207, Note_on_c, 0, 52, 66
2, 91322, Note_on_c, 0, 67, 0
2, 91322, Note_on_c, 0, 79, 0
2, 91328, Note_on_c, 0, 79, 100
2, 91330, Note_on_c, 0, 47, 0
2, 91334, Note_on_c, 0, 67, 89
2, 91341, Note_on_c, 0, 47, 77
2, 91453, Note_on_c, 0, 40, 0
2, 91462, Note_on_c, 0, 40, 93
2, 91688, Control_c, 0, 64, 0
2, 91693, Note_on_c, 0, 66, 0
2, 91693, Note_on_c, 0, 59, 0
2, 91694, Note_on_c, 0, 55, 0
2, 91694, Note_on_c, 0, 64, 0
2, 91694, Note_on_c, 0, 47, 0
2, 91694, Note_on_c, 0, 76, 0
2, 91694, Note_on_c, 0, 54, 0
2, 91694, Note_on_c, 0, 78, 0
2, 91695, Note_on_c, 0, 52, 0
2, 91695, Note_on_c, 0, 40, 0
2, 91697, Note_on_c, 0, 88, 0
2, 91703, Note_on_c, 0, 81, 100
2, 91705, Note_on_c, 0, 69, 94
2, 91706, Note_on_c, 0, 72, 97
2, 91706, Note_on_c, 0, 67, 0
2, 91706, Note_on_c, 0, 79, 0
2, 91708, Note_on_c, 0, 36, 90
2, 91776, Control_c, 0, 64, 127
2, 91829, Note_on_c, 0, 43, 76
2, 91927, Note_on_c, 0, 52, 80
2, 92064, Note_on_c, 0, 79, 99
2, 92067, Note_on_c, 0, 55, 84
2, 92069, Note_on_c, 0, 67, 88
2, 92178, Note_on_c, 0, 60, 81
2, 92311, Note_on_c, 0, 78, 89
2, 92314, Note_on_c, 0, 66, 83
2, 92398, Note_on_c, 0, 36, 0
2, 92400, Note_on_c, 0, 81, 0
2, 92400, Note_on_c, 0, 52, 0
2, 92401, Note_on_c, 0, 60, 0
2, 92401, Note_on_c, 0, 79, 0
2, 92401, Note_on_c, 0, 72, 0
2, 92401, Control_c, 0, 64, 0
2, 92401, Note_on_c, 0, 69, 0
2, 92401, Note_on_c, 0, 66, 0
2, 92401, Note_on_c, 0, 67, 0
2, 92401, Note_on_c, 0, 55, 0
2, 92401, Note_on_c, 0, 78, 0
2, 92402, Note_on_c, 0, 43, 0
2, 92436, Note_on_c, 0, 74, 102
2, 92439, Note_on_c, 0, 47, 92
2, 92440, Note_on_c, 0, 62, 90
2, 92441, Note_on_c, 0, 35, 84
2, 92497, Control_c, 0, 64, 127
2, 92561, Note_on_c, 0, 69, 78
2, 92692, Note_on_c, 0, 66, 85
2, 92782, Note_on_c, 0, 62, 0
2, 92787, Note_on_c, 0, 62, 80
2, 92812, Note_on_c, 0, 69, 0
2, 92819, Note_on_c, 0, 69, 59
2, 92840, Note_on_c, 0, 54, 60
2, 92904, Note_on_c, 0, 66, 0
2, 92915, Note_on_c, 0, 66, 95
2, 92916, Note_on_c, 0, 78, 94
2, 92917, Note_on_c, 0, 57, 81
2, 93028, Note_on_c, 0, 79, 99
2, 93031, Note_on_c, 0, 67, 88
2, 93104, Control_c, 0, 64, 0
2, 93105, Note_on_c, 0, 74, 0
2, 93106, Note_on_c, 0, 62, 0
2, 93106, Note_on_c, 0, 79, 0
2, 93106, Note_on_c, 0, 57, 0
2, 93107, Note_on_c, 0, 67, 0
2, 93107, Note_on_c, 0, 54, 0
2, 93107, Note_on_c, 0, 66, 0
2, 93107, Note_on_c, 0, 78, 0
2, 93112, Note_on_c, 0, 47, 0
2, 93120, Note_on_c, 0, 69, 0
2, 93127, Note_on_c, 0, 35, 0
2, 93152, Note_on_c, 0, 81, 103
2, 93155, Note_on_c, 0, 69, 93
2, 93155, Note_on_c, 0, 72, 99
2, 93155, Note_on_c, 0, 36, 87
2, 93227, Control_c, 0, 64, 127
2, 93276, Note_on_c, 0, 43, 76
2, 93383, Note_on_c, 0, 52, 79
2, 93514, Note_on_c, 0, 79, 99
2, 93515, Note_on_c, 0, 55, 90
2, 93520, Note_on_c, 0, 67, 86
2, 93632, Note_on_c, 0, 60, 84
2, 93775, Note_on_c, 0, 78, 91
2, 93777, Note_on_c, 0, 66, 81
2, 93845, Control_c, 0, 64, 0
2, 93852, Note_on_c, 0, 81, 0
2, 93852, Note_on_c, 0, 72, 0
2, 93853, Note_on_c, 0, 67, 0
2, 93853, Note_on_c, 0, 52, 0
2, 93853, Note_on_c, 0, 60, 0
2, 93853, Note_on_c, 0, 69, 0
2, 93853, Note_on_c, 0, 55, 0
2, 93854, Note_on_c, 0, 66, 0
2, 93855, Note_on_c, 0, 78, 0
2, 93855, Note_on_c, 0, 43, 0
2, 93857, Note_on_c, 0, 36, 0
2, 93880, Note_on_c, 0, 79, 0
2, 93886, Note_on_c, 0, 79, 101
2, 93890, Note_on_c, 0, 40, 94
2, 93890, Note_on_c, 0, 67, 94
2, 93892, Note_on_c, 0, 71, 83
2, 93957, Control_c, 0, 64, 127
2, 94022, Note_on_c, 0, 76, 85
2, 94126, Note_on_c, 0, 71, 0
2, 94132, Note_on_c, 0, 52, 76
2, 94133, Note_on_c, 0, 71, 84
2, 94256, Note_on_c, 0, 67, 0
2, 94262, Note_on_c, 0, 67, 81
2, 94264, Note_on_c, 0, 55, 82
2, 94371, Note_on_c, 0, 71, 0
2, 94378, Note_on_c, 0, 71, 74
2, 94381, Note_on_c, 0, 59, 87
2, 94598, Control_c, 0, 64, 0
2, 94603, Note_on_c, 0, 71, 0
2, 94603, Note_on_c, 0, 59, 0
2, 94603, Note_on_c, 0, 52, 0
2, 94603, Note_on_c, 0, 67, 0
2, 94604, Note_on_c, 0, 76, 0
2, 94604, Note_on_c, 0, 79, 0
2, 94604, Note_on_c, 0, 55, 0
2, 94617, Note_on_c, 0, 40, 0
2, 94632, Note_on_c, 0, 81, 99
2, 94636, Note_on_c, 0, 36, 90
2, 94637, Note_on_c, 0, 69, 93
2, 94638, Note_on_c, 0, 72, 96
2, 94686, Control_c, 0, 64, 127
2, 94744, Note_on_c, 0, 43, 76
2, 94844, Note_on_c, 0, 48, 77
2, 94876, Note_on_c, 0, 79, 91
2, 94884, Note_on_c, 0, 67, 89
2, 94958, Note_on_c, 0, 50, 81
2, 95046, Note_on_c, 0, 52, 71
2, 95124, Note_on_c, 0, 69, 0
2, 95128, Note_on_c, 0, 78, 99
2, 95129, Note_on_c, 0, 55, 81
2, 95130, Note_on_c, 0, 66, 90
2, 95131, Note_on_c, 0, 69, 80
2, 95237, Note_on_c, 0, 60, 89
2, 95331, Note_on_c, 0, 36, 0
2, 95332, Control_c, 0, 64, 0
2, 95333, Note_on_c, 0, 52, 0
2, 95333, Note_on_c, 0, 50, 0
2, 95333, Note_on_c, 0, 66, 0
2, 95334, Note_on_c, 0, 43, 0
2, 95334, Note_on_c, 0, 81, 0
2, 95334, Note_on_c, 0, 69, 0
2, 95334, Note_on_c, 0, 79, 0
2, 95334, Note_on_c, 0, 72, 0
2, 95334, Note_on_c, 0, 78, 0
2, 95334, Note_on_c, 0, 67, 0
2, 95354, Note_on_c, 0, 48, 0
2, 95354, Note_on_c, 0, 55, 0
2, 95354, Note_on_c, 0, 60, 0
2, 95370, Note_on_c, 0, 38, 96
2, 95424, Control_c, 0, 64, 127
2, 95491, Note_on_c, 0, 45, 67
2, 95580, Note_on_c, 0, 50, 83
2, 95627, Note_on_c, 0, 74, 93
2, 95630, Note_on_c, 0, 66, 88
2, 95630, Note_on_c, 0, 62, 80
2, 95686, Note_on_c, 0, 52, 73
2, 95764, Note_on_c, 0, 54, 74
2, 95852, Note_on_c, 0, 57, 75
2, 95853, Note_on_c, 0, 71, 89
2, 95946, Note_on_c, 0, 62, 0
2, 95946, Note_on_c, 0, 74, 0
2, 95954, Note_on_c, 0, 62, 83
2, 95957, Note_on_c, 0, 74, 96
2, 96065, Control_c, 0, 64, 0
2, 96066, Note_on_c, 0, 52, 0
2, 96068, Note_on_c, 0, 50, 0
2, 96068, Note_on_c, 0, 54, 0
2, 96068, Note_on_c, 0, 45, 0
2, 96068, Note_on_c, 0, 71, 0
2, 96068, Note_on_c, 0, 62, 0
2, 96069, Note_on_c, 0, 66, 0
2, 96069, Note_on_c, 0, 57, 0
2, 96070, Note_on_c, 0, 38, 0
2, 96084, Note_on_c, 0, 74, 0
2, 96094, Note_on_c, 0, 76, 103
2, 96096, Note_on_c, 0, 64, 93
2, 96096, Note_on_c, 0, 67, 96
2, 96097, Note_on_c, 0, 40, 97
2, 96199, Control_c, 0, 64, 127
2, 96235, Note_on_c, 0, 47, 73
2, 96338, Note_on_c, 0, 52, 76
2, 96359, Note_on_c, 0, 71, 74
2, 96414, Note_on_c, 0, 76, 0
2, 96421, Note_on_c, 0, 76, 81
2, 96466, Note_on_c, 0, 78, 83
2, 96480, Note_on_c, 0, 57, 69
2, 96576, Note_on_c, 0, 64, 0
2, 96581, Note_on_c, 0, 83, 90
2, 96581, Note_on_c, 0, 64, 79
2, 96648, Note_on_c, 0, 88, 89
2, 96668, Note_on_c, 0, 90, 85
2, 96688, Note_on_c, 0, 66, 82
2, 96695, Note_on_c, 0, 69, 61
2, 96704, Note_on_c, 0, 91, 80
2, 96814, Note_on_c, 0, 71, 0
2, 96820, Note_on_c, 0, 71, 88
2, 96821, Note_on_c, 0, 67, 0
2, 96825, Note_on_c, 0, 67, 82
2, 96826, Note_on_c, 0, 100, 104
2, 97067, Note_on_c, 0, 52, 0
2, 97067, Note_on_c, 0, 78, 0
2, 97067, Note_on_c, 0, 90, 0
2, 97074, Note_on_c, 0, 52, 86
2, 97074, Note_on_c, 0, 90, 100
2, 97077, Note_on_c, 0, 78, 88
2, 97182, Note_on_c, 0, 47, 0
2, 97182, Note_on_c, 0, 91, 0
2, 97187, Note_on_c, 0, 91, 107
2, 97188, Note_on_c, 0, 79, 101
2, 97189, Note_on_c, 0, 47, 85
2, 97313, Note_on_c, 0, 40, 0
2, 97317, Note_on_c, 0, 40, 94
2, 97514, Control_c, 0, 64, 0
2, 97518, Note_on_c, 0, 69, 0
2, 97518, Note_on_c, 0, 71, 0
2, 97519, Note_on_c, 0, 64, 0
2, 97519, Note_on_c, 0, 66, 0
2, 97519, Note_on_c, 0, 57, 0
2, 97519, Note_on_c, 0, 67, 0
2, 97519, Note_on_c, 0, 90, 0
2, 97520, Note_on_c, 0, 100, 0
2, 97520, Note_on_c, 0, 40, 0
2, 97520, Note_on_c, 0, 76, 0
2, 97520, Note_on_c, 0, 78, 0
2, 97520, Note_on_c, 0, 91, 0
2, 97520, Note_on_c, 0, 47, 0
2, 97521, Note_on_c, 0, 83, 0
2, 97521, Note_on_c, 0, 79, 0
2, 97536, Note_on_c, 0, 52, 0
2, 97536, Note_on_c, 0, 88, 0
2, 97549, Note_on_c, 0, 81, 104
2, 97550, Note_on_c, 0, 93, 106
2, 97552, Note_on_c, 0, 48, 104
2, 97552, Note_on_c, 0, 36, 100
2, 97612, Control_c, 0, 64, 127
2, 97618, Note_on_c, 0, 88, 46
2, 97678, Note_on_c, 0, 84, 81
2, 97743, Note_on_c, 0, 81, 0
2, 97753, Note_on_c, 0, 81, 89
2, 97807, Note_on_c, 0, 72, 89
2, 97871, Note_on_c, 0, 67, 80
2, 97915, Note_on_c, 0, 91, 104
2, 97916, Note_on_c, 0, 79, 97
2, 97919, Note_on_c, 0, 64, 66
2, 98000, Note_on_c, 0, 60, 87
2, 98066, Note_on_c, 0, 55, 76
2, 98094, Note_on_c, 0, 52, 90
2, 98147, Note_on_c, 0, 90, 93
2, 98149, Note_on_c, 0, 78, 88
2, 98248, Note_on_c, 0, 84, 0
2, 98248, Note_on_c, 0, 90, 0
2, 98248, Note_on_c, 0, 72, 0
2, 98248, Note_on_c, 0, 67, 0
2, 98249, Note_on_c, 0, 93, 0
2, 98249, Note_on_c, 0, 91, 0
2, 98249, Note_on_c, 0, 52, 0
2, 98250, Note_on_c, 0, 64, 0
2, 98250, Note_on_c, 0, 79, 0
2, 98252, Note_on_c, 0, 88, 0
2, 98252, Note_on_c, 0, 78, 0
2, 98253, Note_on_c, 0, 48, 0
2, 98254, Control_c, 0, 64, 0
2, 98265, Note_on_c, 0, 36, 0
2, 98265, Note_on_c, 0, 55, 0
2, 98269, Note_on_c, 0, 86, 102
2, 98270, Note_on_c, 0, 47, 97
2, 98271, Note_on_c, 0, 74, 99
2, 98273, Note_on_c, 0, 60, 0
2, 98273, Note_on_c, 0, 81, 0
2, 98341, Note_on_c, 0, 81, 89
2, 98365, Note_on_c, 0, 47, 0
2, 98365, Control_c, 0, 64, 127
2, 98407, Note_on_c, 0, 78, 78
2, 98434, Note_on_c, 0, 74, 0
2, 98438, Note_on_c, 0, 74, 81
2, 98524, Note_on_c, 0, 69, 75
2, 98576, Note_on_c, 0, 66, 90
2, 98617, Note_on_c, 0, 62, 82
2, 98686, Note_on_c, 0, 57, 74
2, 98757, Note_on_c, 0, 78, 0
2, 98761, Note_on_c, 0, 90, 99
2, 98767, Note_on_c, 0, 78, 82
2, 98767, Note_on_c, 0, 54, 61
2, 98807, Note_on_c, 0, 50, 78
2, 98872, Note_on_c, 0, 81, 0
2, 98875, Note_on_c, 0, 91, 101
2, 98875, Note_on_c, 0, 79, 93
2, 98882, Note_on_c, 0, 81, 82
2, 98960, Note_on_c, 0, 69, 0
2, 98960, Note_on_c, 0, 79, 0
2, 98960, Note_on_c, 0, 74, 0
2, 98960, Note_on_c, 0, 91, 0
2, 98960, Note_on_c, 0, 66, 0
2, 98960, Note_on_c, 0, 50, 0
2, 98960, Note_on_c, 0, 86, 0
2, 98961, Note_on_c, 0, 90, 0
2, 98961, Note_on_c, 0, 62, 0
2, 98961, Note_on_c, 0, 78, 0
2, 98961, Note_on_c, 0, 57, 0
2, 98962, Note_on_c, 0, 54, 0
2, 98963, Control_c, 0, 64, 0
2, 98995, Note_on_c, 0, 81, 0
2, 99001, Note_on_c, 0, 36, 96
2, 99001, Note_on_c, 0, 93, 107
2, 99002, Note_on_c, 0, 48, 100
2, 99005, Note_on_c, 0, 81, 100
2, 99056, Control_c, 0, 64, 127
2, 99085, Note_on_c, 0, 88, 69
2, 99106, Note_on_c, 0, 84, 79
2, 99194, Note_on_c, 0, 81, 0
2, 99206, Note_on_c, 0, 81, 79
2, 99242, Note_on_c, 0, 72, 93
2, 99315, Note_on_c, 0, 67, 82
2, 99373, Note_on_c, 0, 91, 106
2, 99374, Note_on_c, 0, 79, 101
2, 99374, Note_on_c, 0, 64, 69
2, 99469, Note_on_c, 0, 60, 84
2, 99536, Note_on_c, 0, 55, 44
2, 99559, Note_on_c, 0, 52, 81
2, 99594, Note_on_c, 0, 81, 0
2, 99594, Note_on_c, 0, 93, 0
2, 99599, Note_on_c, 0, 81, 97
2, 99602, Note_on_c, 0, 93, 99
2, 99682, Note_on_c, 0, 91, 0
2, 99682, Note_on_c, 0, 93, 0
2, 99682, Note_on_c, 0, 88, 0
2, 99682, Note_on_c, 0, 84, 0
2, 99682, Note_on_c, 0, 52, 0
2, 99682, Note_on_c, 0, 72, 0
2, 99682, Note_on_c, 0, 79, 0
2, 99682, Note_on_c, 0, 81, 0
2, 99682, Note_on_c, 0, 60, 0
2, 99683, Note_on_c, 0, 67, 0
2, 99683, Note_on_c, 0, 48, 0
2, 99683, Control_c, 0, 64, 0
2, 99694, Note_on_c, 0, 36, 0
2, 99694, Note_on_c, 0, 64, 0
2, 99709, Note_on_c, 0, 55, 0
2, 99713, Note_on_c, 0, 95, 99
2, 99715, Note_on_c, 0, 55, 99
2, 99718, Note_on_c, 0, 83, 100
2, 99718, Note_on_c, 0, 43, 97
2, 99770, Control_c, 0, 64, 127
2, 99777, Note_on_c, 0, 91, 86
2, 99844, Note_on_c, 0, 86, 88
2, 99968, Note_on_c, 0, 79, 92
2, 100029, Note_on_c, 0, 74, 83
2, 100088, Note_on_c, 0, 71, 81
2, 100207, Note_on_c, 0, 67, 85
2, 100254, Note_on_c, 0, 62, 76
2, 100302, Note_on_c, 0, 59, 87
2, 100401, Control_c, 0, 64, 0
2, 100401, Note_on_c, 0, 91, 0
2, 100402, Note_on_c, 0, 71, 0
2, 100402, Note_on_c, 0, 67, 0
2, 100402, Note_on_c, 0, 86, 0
2, 100402, Note_on_c, 0, 83, 0
2, 100402, Note_on_c, 0, 79, 0
2, 100402, Note_on_c, 0, 62, 0
2, 100402, Note_on_c, 0, 59, 0
2, 100402, Note_on_c, 0, 55, 0
2, 100403, Note_on_c, 0, 74, 0
2, 100403, Note_on_c, 0, 43, 0
2, 100423, Note_on_c, 0, 95, 0
2, 100434, Note_on_c, 0, 95, 107
2, 100437, Note_on_c, 0, 48, 104
2, 100437, Note_on_c, 0, 83, 100
2, 100441, Note_on_c, 0, 36, 97
2, 100497, Note_on_c, 0, 91, 97
2, 100500, Control_c, 0, 64, 127
2, 100508, Note_on_c, 0, 36, 0
2, 100548, Note_on_c, 0, 88, 80
2, 100680, Note_on_c, 0, 72, 96
2, 100687, Note_on_c, 0, 93, 104
2, 100688, Note_on_c, 0, 81, 102
2, 100749, Note_on_c, 0, 67, 75
2, 100798, Note_on_c, 0, 64, 85
2, 100899, Note_on_c, 0, 72, 0
2, 100906, Note_on_c, 0, 72, 87
2, 100910, Note_on_c, 0, 60, 91
2, 100915, Note_on_c, 0, 91, 0
2, 100921, Note_on_c, 0, 91, 93
2, 100925, Note_on_c, 0, 79, 94
2, 100958, Note_on_c, 0, 55, 73
2, 101120, Control_c, 0, 64, 0
2, 101122, Note_on_c, 0, 95, 0
2, 101122, Note_on_c, 0, 48, 0
2, 101123, Note_on_c, 0, 83, 0
2, 101123, Note_on_c, 0, 60, 0
2, 101124, Note_on_c, 0, 72, 0
2, 101124, Note_on_c, 0, 93, 0
2, 101124, Note_on_c, 0, 91, 0
2, 101124, Note_on_c, 0, 64, 0
2, 101124, Note_on_c, 0, 67, 0
2, 101124, Note_on_c, 0, 55, 0
2, 101124, Note_on_c, 0, 79, 0
2, 101125, Note_on_c, 0, 81, 0
2, 101125, Note_on_c, 0, 88, 0
2, 101149, Note_on_c, 0, 90, 102
2, 101156, Note_on_c, 0, 50, 90
2, 101156, Note_on_c, 0, 38, 98
2, 101159, Note_on_c, 0, 78, 93
2, 101163, Note_on_c, 0, 86, 89
2, 101193, Note_on_c, 0, 38, 0
2, 101199, Control_c, 0, 64, 127
2, 101267, Note_on_c, 0, 81, 87
2, 101399, Note_on_c, 0, 86, 0
2, 101403, Note_on_c, 0, 69, 84
2, 101403, Note_on_c, 0, 74, 97
2, 101403, Note_on_c, 0, 86, 99
2, 101409, Note_on_c, 0, 66, 83
2, 101425, Note_on_c, 0, 84, 68
2, 101429, Note_on_c, 0, 84, 0
2, 101646, Note_on_c, 0, 95, 98
2, 101651, Note_on_c, 0, 83, 95
2, 101713, Note_on_c, 0, 50, 0
2, 101718, Note_on_c, 0, 50, 73
2, 101759, Note_on_c, 0, 98, 94
2, 101760, Note_on_c, 0, 86, 0
2, 101766, Note_on_c, 0, 86, 85
2, 101865, Note_on_c, 0, 69, 0
2, 101865, Note_on_c, 0, 95, 0
2, 101865, Note_on_c, 0, 83, 0
2, 101865, Note_on_c, 0, 81, 0
2, 101866, Note_on_c, 0, 50, 0
2, 101866, Note_on_c, 0, 86, 0
2, 101866, Control_c, 0, 64, 0
2, 101866, Note_on_c, 0, 90, 0
2, 101866, Note_on_c, 0, 66, 0
2, 101867, Note_on_c, 0, 98, 0
2, 101867, Note_on_c, 0, 78, 0
2, 101868, Note_on_c, 0, 74, 0
2, 101888, Note_on_c, 0, 52, 101
2, 101888, Note_on_c, 0, 100, 100
2, 101891, Note_on_c, 0, 40, 95
2, 101893, Note_on_c, 0, 88, 90
2, 101958, Note_on_c, 0, 95, 82
2, 101959, Control_c, 0, 64, 127
2, 102008, Note_on_c, 0, 93, 79
2, 102157, Note_on_c, 0, 83, 76
2, 102197, Note_on_c, 0, 81, 80
2, 102243, Note_on_c, 0, 88, 0
2, 102250, Note_on_c, 0, 88, 100
2, 102297, Note_on_c, 0, 83, 0
2, 102301, Note_on_c, 0, 83, 91
2, 102359, Note_on_c, 0, 81, 0
2, 102363, Note_on_c, 0, 81, 88
2, 102414, Note_on_c, 0, 76, 79
2, 102489, Note_on_c, 0, 71, 77
2, 102537, Note_on_c, 0, 69, 76
2, 102581, Note_on_c, 0, 76, 0
2, 102590, Note_on_c, 0, 76, 94
2, 102627, Note_on_c, 0, 71, 0
2, 102631, Note_on_c, 0, 71, 78
2, 102681, Note_on_c, 0, 69, 0
2, 102686, Note_on_c, 0, 69, 78
2, 102747, Note_on_c, 0, 64, 71
2, 102835, Note_on_c, 0, 59, 80
2, 102885, Note_on_c, 0, 57, 76
2, 102935, Note_on_c, 0, 64, 0
2, 102940, Note_on_c, 0, 64, 85
2, 102981, Note_on_c, 0, 59, 0
2, 102992, Note_on_c, 0, 59, 84
2, 103080, Note_on_c, 0, 57, 0
2, 103085, Note_on_c, 0, 57, 61
2, 103130, Note_on_c, 0, 47, 74
2, 103203, Note_on_c, 0, 47, 0
2, 103208, Note_on_c, 0, 47, 56
2, 103315, Note_on_c, 0, 71, 0
2, 103316, Note_on_c, 0, 69, 0
2, 103317, Note_on_c, 0, 83, 0
2, 103317, Note_on_c, 0, 81, 0
2, 103317, Note_on_c, 0, 64, 0
2, 103317, Note_on_c, 0, 93, 0
2, 103318, Note_on_c, 0, 76, 0
2, 103319, Note_on_c, 0, 57, 0
2, 103319, Note_on_c, 0, 88, 0
2, 103320, Note_on_c, 0, 47, 0
2, 103320, Note_on_c, 0, 95, 0
2, 103322, Note_on_c, 0, 100, 0
2, 103326, Note_on_c, 0, 40, 0
2, 103326, Note_on_c, 0, 59, 0
2, 103331, Note_on_c, 0, 59, 90
2, 103334, Note_on_c, 0, 52, 0
2, 103336, Note_on_c, 0, 55, 85
2, 103337, Note_on_c, 0, 40, 94
2, 103338, Note_on_c, 0, 28, 92
2, 103343, Note_on_c, 0, 52, 83
2, 103396, Control_c, 0, 64, 0
2, 103418, Note_on_c, 0, 55, 0
2, 103449, Note_on_c, 0, 59, 0
2, 103461, Note_on_c, 0, 59, 77
2, 103464, Note_on_c, 0, 55, 66
2, 103472, Note_on_c, 0, 28, 0
2, 103480, Note_on_c, 0, 40, 0
2, 103495, Note_on_c, 0, 52, 0
2, 103518, Note_on_c, 0, 55, 0
2, 103534, Note_on_c, 0, 59, 0
2, 103570, Note_on_c, 0, 28, 61
2, 103580, Note_on_c, 0, 28, 0
2, 103704, Note_on_c, 0, 59, 79
2, 103707, Note_on_c, 0, 40, 72
2, 103707, Note_on_c, 0, 52, 71
2, 103708, Note_on_c, 0, 55, 65
2, 103710, Note_on_c, 0, 28, 74
2, 103736, Note_on_c, 0, 59, 0
2, 103739, Note_on_c, 0, 28, 0
2, 103756, Note_on_c, 0, 40, 0
2, 103764, Note_on_c, 0, 52, 0
2, 103772, Note_on_c, 0, 55, 0
2, 103832, Note_on_c, 0, 40, 62
2, 103833, Note_on_c, 0, 28, 74
2, 103941, Note_on_c, 0, 28, 0
2, 103941, Note_on_c, 0, 40, 0
2, 103943, Note_on_c, 0, 59, 75
2, 103944, Note_on_c, 0, 52, 62
2, 103945, Note_on_c, 0, 40, 66
2, 103945, Note_on_c, 0, 55, 58
2, 103946, Note_on_c, 0, 28, 68
2, 103976, Note_on_c, 0, 40, 0
2, 103976, Note_on_c, 0, 55, 0
2, 103977, Note_on_c, 0, 59, 0
2, 103979, Note_on_c, 0, 52, 0
2, 103994, Note_on_c, 0, 28, 0
2, 104052, Note_on_c, 0, 28, 82
2, 104052, Note_on_c, 0, 59, 79
2, 104052, Note_on_c, 0, 52, 76
2, 104052, Note_on_c, 0, 40, 82
2, 104054, Note_on_c, 0, 55, 67
2, 104079, Control_c, 0, 64, 127
2, 104302, Note_on_c, 0, 52, 0
2, 104302, Note_on_c, 0, 55, 0
2, 104302, Note_on_c, 0, 59, 0
2, 104306, Note_on_c, 0, 52, 58
2, 104306, Note_on_c, 0, 55, 63
2, 104306, Note_on_c, 0, 59, 78
2, 104524, Note_on_c, 0, 40, 0
2, 104532, Note_on_c, 0, 52, 0
2, 104532, Note_on_c, 0, 55, 0
2, 104532, Note_on_c, 0, 59, 0
2, 104535, Note_on_c, 0, 40, 80
2, 104538, Note_on_c, 0, 52, 77
2, 104543, Note_on_c, 0, 55, 65
2, 104543, Note_on_c, 0, 59, 74
2, 104644, Note_on_c, 0, 42, 84
2, 104728, Control_c, 0, 64, 0
2, 104737, Note_on_c, 0, 55, 0
2, 104737, Note_on_c, 0, 52, 0
2, 104738, Note_on_c, 0, 42, 0
2, 104739, Note_on_c, 0, 28, 0
2, 104762, Note_on_c, 0, 40, 0
2, 104778, Note_on_c, 0, 59, 0
2, 104780, Note_on_c, 0, 31, 87
2, 104782, Note_on_c, 0, 50, 84
2, 104782, Note_on_c, 0, 59, 92
2, 104784, Note_on_c, 0, 55, 79
2, 104821, Note_on_c, 0, 50, 0
2, 104862, Note_on_c, 0, 59, 0
2, 104911, Note_on_c, 0, 59, 81
2, 104912, Note_on_c, 0, 50, 69
2, 104931, Note_on_c, 0, 31, 0
2, 104948, Note_on_c, 0, 55, 0
2, 104949, Note_on_c, 0, 50, 0
2, 104950, Note_on_c, 0, 59, 0
2, 105163, Note_on_c, 0, 59, 89
2, 105164, Note_on_c, 0, 50, 78
2, 105165, Note_on_c, 0, 43, 71
2, 105165, Note_on_c, 0, 55, 79
2, 105195, Note_on_c, 0, 55, 0
2, 105196, Note_on_c, 0, 50, 0
2, 105197, Note_on_c, 0, 59, 0
2, 105199, Note_on_c, 0, 43, 0
2, 105280, Note_on_c, 0, 43, 62
2, 105280, Note_on_c, 0, 31, 70
2, 105346, Note_on_c, 0, 43, 0
2, 105399, Note_on_c, 0, 59, 83
2, 105404, Note_on_c, 0, 43, 60
2, 105405, Note_on_c, 0, 55, 64
2, 105406, Note_on_c, 0, 50, 65
2, 105434, Note_on_c, 0, 59, 0
2, 105435, Note_on_c, 0, 43, 0
2, 105436, Note_on_c, 0, 55, 0
2, 105454, Note_on_c, 0, 31, 0
2, 105469, Note_on_c, 0, 50, 0
2, 105518, Note_on_c, 0, 59, 88
2, 105519, Note_on_c, 0, 31, 85
2, 105519, Note_on_c, 0, 55, 75
2, 105521, Note_on_c, 0, 50, 78
2, 105623, Control_c, 0, 64, 127
2, 105768, Note_on_c, 0, 50, 0
2, 105768, Note_on_c, 0, 55, 0
2, 105768, Note_on_c, 0, 59, 0
2, 105773, Note_on_c, 0, 59, 84
2, 105775, Note_on_c, 0, 50, 73
2, 105779, Note_on_c, 0, 43, 66
2, 105780, Note_on_c, 0, 55, 73
2, 105999, Note_on_c, 0, 50, 0
2, 105999, Note_on_c, 0, 55, 0
2, 105999, Note_on_c, 0, 59, 0
2, 106003, Note_on_c, 0, 50, 76
2, 106003, Note_on_c, 0, 59, 91
2, 106004, Note_on_c, 0, 45, 79
2, 106009, Note_on_c, 0, 55, 76
2, 106010, Note_on_c, 0, 57, 76
2, 106011, Note_on_c, 0, 43, 0
2, 106114, Note_on_c, 0, 59, 0
2, 106122, Note_on_c, 0, 47, 82
2, 106123, Note_on_c, 0, 59, 73
2, 106186, Control_c, 0, 64, 0
2, 106188, Note_on_c, 0, 45, 0
2, 106188, Note_on_c, 0, 57, 0
2, 106190, Note_on_c, 0, 59, 0
2, 106190, Note_on_c, 0, 55, 0
2, 106190, Note_on_c, 0, 50, 0
2, 106191, Note_on_c, 0, 47, 0
2, 106199, Note_on_c, 0, 31, 0
2, 106247, Note_on_c, 0, 48, 94
2, 106248, Note_on_c, 0, 36, 93
2, 106248, Note_on_c, 0, 52, 86
2, 106249, Note_on_c, 0, 59, 89
2, 106251, Note_on_c, 0, 55, 81
2, 106291, Control_c, 0, 64, 127
2, 106425, Note_on_c, 0, 48, 0
2, 106426, Note_on_c, 0, 55, 0
2, 106431, Control_c, 0, 64, 0
2, 106437, Note_on_c, 0, 52, 0
2, 106444, Note_on_c, 0, 36, 0
2, 106444, Note_on_c, 0, 59, 0
2, 106622, Note_on_c, 0, 52, 80
2, 106624, Note_on_c, 0, 59, 87
2, 106626, Note_on_c, 0, 55, 73
2, 106626, Note_on_c, 0, 48, 72
2, 106627, Note_on_c, 0, 36, 76
2, 106659, Note_on_c, 0, 52, 0
2, 106664, Note_on_c, 0, 48, 0
2, 106698, Note_on_c, 0, 59, 0
2, 106705, Note_on_c, 0, 55, 0
2, 106713, Note_on_c, 0, 36, 0
2, 106740, Note_on_c, 0, 36, 73
2, 106851, Note_on_c, 0, 36, 0
2, 106857, Note_on_c, 0, 59, 85
2, 106860, Note_on_c, 0, 48, 70
2, 106860, Note_on_c, 0, 36, 71
2, 106860, Note_on_c, 0, 52, 71
2, 106860, Note_on_c, 0, 55, 70
2, 106893, Note_on_c, 0, 52, 0
2, 106894, Note_on_c, 0, 48, 0
2, 106894, Note_on_c, 0, 59, 0
2, 106894, Note_on_c, 0, 55, 0
2, 106920, Note_on_c, 0, 36, 0
2, 106975, Note_on_c, 0, 48, 85
2, 106976, Note_on_c, 0, 36, 86
2, 106977, Note_on_c, 0, 59, 88
2, 106978, Note_on_c, 0, 55, 80
2, 106978, Note_on_c, 0, 52, 73
2, 107036, Control_c, 0, 64, 127
2, 107212, Note_on_c, 0, 59, 0
2, 107220, Note_on_c, 0, 52, 0
2, 107220, Note_on_c, 0, 55, 0
2, 107224, Note_on_c, 0, 59, 85
2, 107226, Note_on_c, 0, 55, 69
2, 107226, Note_on_c, 0, 52, 67
2, 107228, Note_on_c, 0, 48, 0
2, 107237, Note_on_c, 0, 48, 52
2, 107466, Note_on_c, 0, 52, 0
2, 107466, Note_on_c, 0, 55, 0
2, 107466, Note_on_c, 0, 59, 0
2, 107470, Note_on_c, 0, 59, 85
2, 107472, Note_on_c, 0, 55, 74
2, 107474, Note_on_c, 0, 52, 64
2, 107475, Note_on_c, 0, 47, 75
2, 107566, Note_on_c, 0, 36, 0
2, 107566, Note_on_c, 0, 47, 0
2, 107566, Note_on_c, 0, 48, 0
2, 107572, Note_on_c, 0, 36, 69
2, 107575, Note_on_c, 0, 48, 78
2, 107577, Note_on_c, 0, 47, 68
2, 107665, Control_c, 0, 64, 0
2, 107667, Note_on_c, 0, 36, 0
2, 107668, Note_on_c, 0, 47, 0
2, 107681, Note_on_c, 0, 48, 0
2, 107696, Note_on_c, 0, 52, 0
2, 107696, Note_on_c, 0, 55, 0
2, 107696, Note_on_c, 0, 59, 0
2, 107700, Note_on_c, 0, 33, 95
2, 107700, Note_on_c, 0, 55, 85
2, 107700, Note_on_c, 0, 45, 90
2, 107701, Note_on_c, 0, 52, 87
2, 107702, Note_on_c, 0, 59, 88
2, 107702, Note_on_c, 0, 40, 83
2, 107727, Note_on_c, 0, 40, 0
2, 107734, Note_on_c, 0, 52, 0
2, 107734, Note_on_c, 0, 45, 0
2, 107740, Note_on_c, 0, 55, 0
2, 107742, Note_on_c, 0, 59, 0
2, 107773, Note_on_c, 0, 33, 0
2, 107829, Note_on_c, 0, 52, 75
2, 107831, Note_on_c, 0, 55, 64
2, 107832, Note_on_c, 0, 59, 66
2, 107837, Note_on_c, 0, 45, 71
2, 107859, Note_on_c, 0, 52, 0
2, 107862, Note_on_c, 0, 55, 0
2, 107862, Note_on_c, 0, 59, 0
2, 107880, Note_on_c, 0, 45, 0
2, 108069, Note_on_c, 0, 52, 78
2, 108069, Note_on_c, 0, 59, 83
2, 108074, Note_on_c, 0, 55, 73
2, 108083, Note_on_c, 0, 45, 70
2, 108104, Note_on_c, 0, 52, 0
2, 108104, Note_on_c, 0, 55, 0
2, 108106, Note_on_c, 0, 59, 0
2, 108120, Note_on_c, 0, 45, 0
2, 108185, Note_on_c, 0, 33, 69
2, 108264, Note_on_c, 0, 33, 0
2, 108299, Note_on_c, 0, 59, 87
2, 108300, Note_on_c, 0, 55, 64
2, 108300, Note_on_c, 0, 52, 70
2, 108333, Note_on_c, 0, 59, 0
2, 108334, Note_on_c, 0, 52, 0
2, 108336, Note_on_c, 0, 55, 0
2, 108422, Note_on_c, 0, 52, 82
2, 108422, Note_on_c, 0, 59, 88
2, 108424, Note_on_c, 0, 33, 84
2, 108426, Note_on_c, 0, 55, 78
2, 108430, Note_on_c, 0, 45, 76
2, 108431, Note_on_c, 0, 57, 71
2, 108533, Control_c, 0, 64, 127
2, 108664, Note_on_c, 0, 52, 0
2, 108664, Note_on_c, 0, 55, 0
2, 108664, Note_on_c, 0, 59, 0
2, 108673, Note_on_c, 0, 59, 82
2, 108675, Note_on_c, 0, 52, 66
2, 108675, Note_on_c, 0, 55, 67
2, 108794, Note_on_c, 0, 47, 75
2, 108885, Control_c, 0, 64, 0
2, 108894, Note_on_c, 0, 52, 0
2, 108894, Note_on_c, 0, 59, 0
2, 108898, Note_on_c, 0, 52, 71
2, 108899, Note_on_c, 0, 59, 80
2, 108910, Note_on_c, 0, 43, 74
2, 108940, Control_c, 0, 64, 127
2, 109020, Note_on_c, 0, 42, 74
2, 109076, Control_c, 0, 64, 0
2, 109079, Note_on_c, 0, 45, 0
2, 109080, Note_on_c, 0, 55, 0
2, 109080, Note_on_c, 0, 52, 0
2, 109081, Note_on_c, 0, 57, 0
2, 109081, Note_on_c, 0, 43, 0
2, 109081, Note_on_c, 0, 42, 0
2, 109082, Note_on_c, 0, 59, 0
2, 109094, Note_on_c, 0, 33, 0
2, 109094, Note_on_c, 0, 47, 0
2, 109144, Note_on_c, 0, 71, 96
2, 109144, Note_on_c, 0, 59, 94
2, 109149, Note_on_c, 0, 40, 92
2, 109151, Note_on_c, 0, 28, 91
2, 109163, Control_c, 0, 64, 127
2, 109248, Note_on_c, 0, 71, 0
2, 109252, Note_on_c, 0, 71, 82
2, 109255, Note_on_c, 0, 59, 0
2, 109260, Note_on_c, 0, 64, 84
2, 109262, Note_on_c, 0, 59, 67
2, 109304, Control_c, 0, 64, 0
2, 109311, Note_on_c, 0, 64, 0
2, 109311, Note_on_c, 0, 40, 0
2, 109312, Note_on_c, 0, 71, 0
2, 109313, Note_on_c, 0, 59, 0
2, 109324, Note_on_c, 0, 28, 0
2, 109382, Note_on_c, 0, 68, 63
2, 109386, Note_on_c, 0, 68, 0
2, 109388, Note_on_c, 0, 66, 71
2, 109417, Note_on_c, 0, 66, 0
2, 109500, Note_on_c, 0, 71, 88
2, 109511, Note_on_c, 0, 40, 76
2, 109514, Note_on_c, 0, 67, 78
2, 109578, Note_on_c, 0, 67, 0
2, 109593, Note_on_c, 0, 40, 0
2, 109634, Note_on_c, 0, 66, 70
2, 109635, Note_on_c, 0, 40, 59
2, 109637, Note_on_c, 0, 28, 68
2, 109670, Note_on_c, 0, 71, 0
2, 109678, Note_on_c, 0, 66, 0
2, 109739, Note_on_c, 0, 40, 0
2, 109745, Note_on_c, 0, 40, 75
2, 109747, Note_on_c, 0, 64, 88
2, 109749, Note_on_c, 0, 71, 82
2, 109771, Note_on_c, 0, 64, 0
2, 109773, Note_on_c, 0, 28, 0
2, 109774, Note_on_c, 0, 40, 0
2, 109800, Note_on_c, 0, 71, 0
2, 109865, Note_on_c, 0, 71, 86
2, 109872, Note_on_c, 0, 59, 92
2, 109873, Note_on_c, 0, 40, 80
2, 109874, Note_on_c, 0, 28, 80
2, 109916, Control_c, 0, 64, 127
2, 109999, Note_on_c, 0, 64, 81
2, 110039, Control_c, 0, 64, 0
2, 110092, Control_c, 0, 64, 127
2, 110108, Note_on_c, 0, 71, 0
2, 110113, Note_on_c, 0, 71, 83
2, 110118, Note_on_c, 0, 66, 91
2, 110245, Note_on_c, 0, 67, 74
2, 110353, Note_on_c, 0, 40, 0
2, 110353, Note_on_c, 0, 66, 0
2, 110353, Note_on_c, 0, 71, 0
2, 110357, Note_on_c, 0, 71, 92
2, 110360, Note_on_c, 0, 66, 83
2, 110360, Note_on_c, 0, 40, 86
2, 110476, Note_on_c, 0, 64, 0
2, 110481, Note_on_c, 0, 64, 87
2, 110517, Note_on_c, 0, 28, 0
2, 110518, Control_c, 0, 64, 0
2, 110519, Note_on_c, 0, 40, 0
2, 110520, Note_on_c, 0, 66, 0
2, 110520, Note_on_c, 0, 59, 0
2, 110520, Note_on_c, 0, 67, 0
2, 110520, Note_on_c, 0, 64, 0
2, 110522, Note_on_c, 0, 71, 0
2, 110594, Note_on_c, 0, 31, 95
2, 110595, Note_on_c, 0, 71, 101
2, 110597, Note_on_c, 0, 59, 94
2, 110601, Note_on_c, 0, 65, 80
2, 110657, Note_on_c, 0, 59, 0
2, 110659, Note_on_c, 0, 71, 0
2, 110699, Note_on_c, 0, 31, 0
2, 110707, Note_on_c, 0, 65, 0
2, 110721, Note_on_c, 0, 64, 86
2, 110768, Note_on_c, 0, 64, 0
2, 110820, Note_on_c, 0, 43, 67
2, 110843, Note_on_c, 0, 66, 80
2, 110872, Note_on_c, 0, 66, 0
2, 110952, Note_on_c, 0, 43, 0
2, 110954, Note_on_c, 0, 71, 98
2, 110963, Note_on_c, 0, 67, 84
2, 110963, Note_on_c, 0, 43, 78
2, 111030, Note_on_c, 0, 67, 0
2, 111081, Note_on_c, 0, 66, 78
2, 111086, Note_on_c, 0, 31, 70
2, 111114, Note_on_c, 0, 71, 0
2, 111121, Note_on_c, 0, 43, 0
2, 111144, Note_on_c, 0, 66, 0
2, 111200, Note_on_c, 0, 64, 89
2, 111201, Note_on_c, 0, 71, 78
2, 111202, Note_on_c, 0, 43, 73
2, 111220, Note_on_c, 0, 64, 0
2, 111226, Note_on_c, 0, 71, 0
2, 111244, Note_on_c, 0, 31, 0
2, 111244, Note_on_c, 0, 43, 0
2, 111308, Note_on_c, 0, 71, 88
2, 111314, Note_on_c, 0, 59, 91
2, 111315, Note_on_c, 0, 31, 87
2, 111317, Note_on_c, 0, 43, 81
2, 111436, Control_c, 0, 64, 127
2, 111455, Note_on_c, 0, 64, 75
2, 111536, Control_c, 0, 64, 0
2, 111559, Note_on_c, 0, 71, 0
2, 111568, Note_on_c, 0, 71, 84
2, 111570, Note_on_c, 0, 66, 97
2, 111590, Note_on_c, 0, 59, 0
2, 111594, Note_on_c, 0, 59, 53
2, 111621, Control_c, 0, 64, 127
2, 111695, Note_on_c, 0, 67, 70
2, 111797, Note_on_c, 0, 71, 0
2, 111805, Note_on_c, 0, 66, 0
2, 111807, Note_on_c, 0, 71, 92
2, 111809, Note_on_c, 0, 66, 84
2, 111815, Note_on_c, 0, 59, 0
2, 111816, Note_on_c, 0, 45, 83
2, 111920, Note_on_c, 0, 64, 0
2, 111925, Note_on_c, 0, 47, 67
2, 111929, Note_on_c, 0, 64, 85
2, 111973, Note_on_c, 0, 67, 0
2, 111975, Note_on_c, 0, 64, 0
2, 111976, Note_on_c, 0, 71, 0
2, 111977, Note_on_c, 0, 66, 0
2, 111979, Control_c, 0, 64, 0
2, 111982, Note_on_c, 0, 31, 0
2, 111982, Note_on_c, 0, 43, 0
2, 111997, Note_on_c, 0, 45, 0
2, 112005, Note_on_c, 0, 47, 0
2, 112044, Note_on_c, 0, 71, 102
2, 112047, Note_on_c, 0, 59, 93
2, 112047, Note_on_c, 0, 48, 89
2, 112049, Note_on_c, 0, 36, 85
2, 112087, Note_on_c, 0, 59, 0
2, 112162, Note_on_c, 0, 64, 83
2, 112187, Note_on_c, 0, 71, 0
2, 112188, Note_on_c, 0, 64, 0
2, 112191, Note_on_c, 0, 48, 0
2, 112204, Note_on_c, 0, 36, 0
2, 112294, Note_on_c, 0, 66, 75
2, 112324, Note_on_c, 0, 66, 0
2, 112399, Note_on_c, 0, 71, 89
2, 112414, Note_on_c, 0, 67, 82
2, 112417, Note_on_c, 0, 48, 81
2, 112421, Note_on_c, 0, 36, 75
2, 112504, Note_on_c, 0, 36, 0
2, 112505, Note_on_c, 0, 48, 0
2, 112508, Note_on_c, 0, 71, 0
2, 112512, Note_on_c, 0, 67, 0
2, 112532, Note_on_c, 0, 66, 80
2, 112538, Note_on_c, 0, 36, 67
2, 112567, Note_on_c, 0, 66, 0
2, 112646, Note_on_c, 0, 64, 88
2, 112646, Note_on_c, 0, 48, 74
2, 112646, Note_on_c, 0, 71, 78
2, 112670, Note_on_c, 0, 64, 0
2, 112676, Note_on_c, 0, 36, 0
2, 112696, Note_on_c, 0, 48, 0
2, 112696, Note_on_c, 0, 71, 0
2, 112761, Note_on_c, 0, 71, 88
2, 112762, Note_on_c, 0, 36, 88
2, 112763, Note_on_c, 0, 59, 91
2, 112764, Note_on_c, 0, 48, 91
2, 112788, Control_c, 0, 64, 127
2, 112892, Note_on_c, 0, 64, 85
2, 113011, Note_on_c, 0, 71, 0
2, 113015, Note_on_c, 0, 71, 84
2, 113024, Note_on_c, 0, 66, 84
2, 113135, Note_on_c, 0, 67, 77
2, 113249, Note_on_c, 0, 71, 0
2, 113256, Note_on_c, 0, 66, 0
2, 113259, Note_on_c, 0, 71, 83
2, 113266, Note_on_c, 0, 66, 78
2, 113268, Note_on_c, 0, 47, 77
2, 113271, Note_on_c, 0, 35, 69
2, 113372, Note_on_c, 0, 64, 0
2, 113379, Note_on_c, 0, 48, 0
2, 113382, Note_on_c, 0, 64, 85
2, 113385, Note_on_c, 0, 48, 79
2, 113446, Note_on_c, 0, 47, 0
2, 113447, Note_on_c, 0, 48, 0
2, 113447, Note_on_c, 0, 67, 0
2, 113448, Note_on_c, 0, 71, 0
2, 113448, Note_on_c, 0, 66, 0
2, 113449, Note_on_c, 0, 59, 0
2, 113449, Note_on_c, 0, 36, 0
2, 113450, Note_on_c, 0, 64, 0
2, 113452, Control_c, 0, 64, 0
2, 113456, Note_on_c, 0, 35, 0
2, 113505, Note_on_c, 0, 71, 99
2, 113506, Note_on_c, 0, 38, 90
2, 113506, Note_on_c, 0, 59, 93
2, 113506, Note_on_c, 0, 50, 93
2, 113627, Note_on_c, 0, 64, 86
2, 113660, Note_on_c, 0, 50, 0
2, 113661, Note_on_c, 0, 38, 0
2, 113661, Note_on_c, 0, 64, 0
2, 113662, Note_on_c, 0, 71, 0
2, 113679, Note_on_c, 0, 59, 0
2, 113745, Note_on_c, 0, 66, 79
2, 113746, Note_on_c, 0, 38, 74
2, 113776, Note_on_c, 0, 66, 0
2, 113846, Note_on_c, 0, 71, 83
2, 113850, Note_on_c, 0, 67, 90
2, 113873, Note_on_c, 0, 50, 77
2, 113970, Note_on_c, 0, 66, 82
2, 113978, Note_on_c, 0, 67, 0
2, 113986, Note_on_c, 0, 38, 0
2, 113996, Note_on_c, 0, 38, 77
2, 113998, Note_on_c, 0, 50, 0
2, 114001, Note_on_c, 0, 71, 0
2, 114085, Note_on_c, 0, 71, 84
2, 114086, Note_on_c, 0, 64, 87
2, 114101, Note_on_c, 0, 66, 0
2, 114101, Note_on_c, 0, 38, 0
2, 114106, Note_on_c, 0, 50, 66
2, 114113, Note_on_c, 0, 38, 62
2, 114114, Note_on_c, 0, 64, 0
2, 114120, Note_on_c, 0, 71, 0
2, 114130, Note_on_c, 0, 50, 0
2, 114147, Note_on_c, 0, 38, 0
2, 114223, Note_on_c, 0, 50, 86
2, 114224, Note_on_c, 0, 64, 93
2, 114226, Note_on_c, 0, 76, 100
2, 114226, Note_on_c, 0, 71, 89
2, 114227, Note_on_c, 0, 38, 85
2, 114263, Control_c, 0, 64, 127
2, 114470, Note_on_c, 0, 71, 0
2, 114479, Note_on_c, 0, 83, 102
2, 114481, Note_on_c, 0, 71, 84
2, 114485, Note_on_c, 0, 57, 71
2, 114487, Note_on_c, 0, 74, 83
2, 114490, Note_on_c, 0, 78, 81
2, 114613, Note_on_c, 0, 62, 74
2, 114733, Note_on_c, 0, 66, 81
2, 114849, Note_on_c, 0, 81, 94
2, 114850, Note_on_c, 0, 69, 83
2, 114969, Control_c, 0, 64, 0
2, 114970, Note_on_c, 0, 71, 0
2, 114971, Note_on_c, 0, 62, 0
2, 114971, Note_on_c, 0, 57, 0
2, 114971, Note_on_c, 0, 64, 0
2, 114971, Note_on_c, 0, 69, 0
2, 114971, Note_on_c, 0, 74, 0
2, 114971, Note_on_c, 0, 66, 0
2, 114972, Note_on_c, 0, 50, 0
2, 114972, Note_on_c, 0, 78, 0
2, 114972, Note_on_c, 0, 81, 0
2, 114972, Note_on_c, 0, 38, 0
2, 114977, Note_on_c, 0, 83, 0
2, 114986, Note_on_c, 0, 83, 102
2, 114988, Note_on_c, 0, 52, 89
2, 114990, Note_on_c, 0, 40, 88
2, 114992, Note_on_c, 0, 76, 0
2, 114993, Note_on_c, 0, 79, 71
2, 114998, Note_on_c, 0, 76, 82
2, 115115, Control_c, 0, 64, 127
2, 115134, Note_on_c, 0, 71, 69
2, 115261, Note_on_c, 0, 79, 0
2, 115269, Note_on_c, 0, 76, 0
2, 115272, Note_on_c, 0, 79, 66
2, 115273, Note_on_c, 0, 76, 60
2, 115353, Note_on_c, 0, 71, 0
2, 115363, Note_on_c, 0, 71, 58
2, 115453, Note_on_c, 0, 79, 0
2, 115464, Note_on_c, 0, 79, 64
2, 115484, Note_on_c, 0, 76, 0
2, 115494, Note_on_c, 0, 76, 52
2, 115576, Note_on_c, 0, 71, 0
2, 115581, Note_on_c, 0, 71, 42
2, 115739, Note_on_c, 0, 59, 63
2, 115748, Note_on_c, 0, 67, 58
2, 115749, Note_on_c, 0, 64, 55
2, 115754, Note_on_c, 0, 52, 0
2, 115760, Note_on_c, 0, 79, 0
2, 115770, Note_on_c, 0, 79, 59
2, 115822, Note_on_c, 0, 71, 0
2, 115830, Note_on_c, 0, 71, 46
2, 115975, Note_on_c, 0, 76, 0
2, 115980, Note_on_c, 0, 81, 91
2, 115984, Note_on_c, 0, 76, 84
2, 116098, Note_on_c, 0, 71, 0
2, 116109, Note_on_c, 0, 71, 68
2, 116221, Note_on_c, 0, 76, 0
2, 116229, Note_on_c, 0, 76, 76
2, 116339, Note_on_c, 0, 86, 88
2, 116340, Note_on_c, 0, 74, 85
2, 116446, Control_c, 0, 64, 0
2, 116446, Note_on_c, 0, 71, 0
2, 116447, Note_on_c, 0, 67, 0
2, 116447, Note_on_c, 0, 59, 0
2, 116448, Note_on_c, 0, 64, 0
2, 116449, Note_on_c, 0, 76, 0
2, 116449, Note_on_c, 0, 79, 0
2, 116449, Note_on_c, 0, 81, 0
2, 116451, Note_on_c, 0, 86, 0
2, 116459, Note_on_c, 0, 40, 0
2, 116459, Note_on_c, 0, 83, 0
2, 116467, Note_on_c, 0, 74, 0
2, 116470, Note_on_c, 0, 83, 95
2, 116477, Note_on_c, 0, 74, 82
2, 116479, Note_on_c, 0, 50, 71
2, 116479, Note_on_c, 0, 78, 78
2, 116480, Note_on_c, 0, 38, 75
2, 116582, Control_c, 0, 64, 127
2, 116590, Note_on_c, 0, 38, 0
2, 116605, Note_on_c, 0, 71, 64
2, 116736, Note_on_c, 0, 74, 0
2, 116736, Note_on_c, 0, 78, 0
2, 116741, Note_on_c, 0, 74, 62
2, 116741, Note_on_c, 0, 78, 61
2, 116843, Note_on_c, 0, 71, 0
2, 116851, Note_on_c, 0, 71, 59
2, 116974, Note_on_c, 0, 74, 0
2, 116974, Note_on_c, 0, 78, 0
2, 116983, Note_on_c, 0, 74, 59
2, 116983, Note_on_c, 0, 78, 58
2, 117089, Note_on_c, 0, 71, 0
2, 117093, Note_on_c, 0, 71, 55
2, 117226, Note_on_c, 0, 62, 57
2, 117227, Note_on_c, 0, 74, 0
2, 117227, Note_on_c, 0, 78, 0
2, 117230, Note_on_c, 0, 66, 65
2, 117231, Note_on_c, 0, 78, 66
2, 117232, Note_on_c, 0, 59, 58
2, 117237, Note_on_c, 0, 74, 64
2, 117319, Note_on_c, 0, 71, 0
2, 117328, Note_on_c, 0, 71, 68
2, 117465, Note_on_c, 0, 83, 0
2, 117469, Note_on_c, 0, 88, 81
2, 117469, Note_on_c, 0, 83, 79
2, 117571, Note_on_c, 0, 76, 76
2, 117696, Note_on_c, 0, 78, 0
2, 117700, Note_on_c, 0, 90, 92
2, 117706, Note_on_c, 0, 78, 68
2, 117808, Note_on_c, 0, 91, 92
2, 117811, Note_on_c, 0, 79, 89
2, 117926, Note_on_c, 0, 90, 0
2, 117929, Note_on_c, 0, 50, 0
2, 117930, Note_on_c, 0, 62, 0
2, 117930, Note_on_c, 0, 66, 0
2, 117930, Note_on_c, 0, 90, 95
2, 117930, Note_on_c, 0, 79, 0
2, 117931, Note_on_c, 0, 78, 0
2, 117931, Note_on_c, 0, 71, 0
2, 117932, Note_on_c, 0, 74, 0
2, 117932, Note_on_c, 0, 59, 0
2, 117932, Note_on_c, 0, 76, 0
2, 117933, Note_on_c, 0, 88, 0
2, 117934, Note_on_c, 0, 83, 0
2, 117935, Control_c, 0, 64, 0
2, 117937, Note_on_c, 0, 81, 85
2, 117940, Note_on_c, 0, 48, 81
2, 117942, Note_on_c, 0, 36, 82
2, 117943, Note_on_c, 0, 86, 78
2, 117957, Note_on_c, 0, 91, 0
2, 118056, Control_c, 0, 64, 127
2, 118074, Note_on_c, 0, 78, 69
2, 118187, Note_on_c, 0, 86, 0
2, 118195, Note_on_c, 0, 36, 0
2, 118197, Note_on_c, 0, 86, 69
2, 118318, Note_on_c, 0, 78, 0
2, 118328, Note_on_c, 0, 78, 59
2, 118433, Note_on_c, 0, 81, 0
2, 118435, Note_on_c, 0, 88, 82
2, 118438, Note_on_c, 0, 81, 74
2, 118565, Note_on_c, 0, 76, 66
2, 118656, Note_on_c, 0, 86, 0
2, 118661, Note_on_c, 0, 86, 86
2, 118663, Note_on_c, 0, 81, 0
2, 118667, Note_on_c, 0, 81, 82
2, 118667, Note_on_c, 0, 67, 78
2, 118671, Note_on_c, 0, 78, 0
2, 118673, Note_on_c, 0, 60, 70
2, 118675, Note_on_c, 0, 64, 71
2, 118675, Control_c, 0, 64, 0
2, 118676, Note_on_c, 0, 78, 74
2, 118794, Control_c, 0, 64, 127
2, 118806, Note_on_c, 0, 74, 62
2, 118886, Note_on_c, 0, 81, 0
2, 118897, Note_on_c, 0, 81, 72
2, 118909, Note_on_c, 0, 78, 0
2, 118919, Note_on_c, 0, 78, 62
2, 119024, Note_on_c, 0, 74, 0
2, 119033, Note_on_c, 0, 74, 68
2, 119147, Note_on_c, 0, 81, 0
2, 119152, Note_on_c, 0, 81, 81
2, 119270, Note_on_c, 0, 74, 0
2, 119280, Note_on_c, 0, 74, 67
2, 119374, Control_c, 0, 64, 0
2, 119375, Note_on_c, 0, 88, 0
2, 119376, Note_on_c, 0, 86, 0
2, 119376, Note_on_c, 0, 90, 0
2, 119376, Note_on_c, 0, 60, 0
2, 119376, Note_on_c, 0, 67, 0
2, 119376, Note_on_c, 0, 64, 0
2, 119376, Note_on_c, 0, 74, 0
2, 119377, Note_on_c, 0, 81, 0
2, 119378, Note_on_c, 0, 76, 0
2, 119385, Note_on_c, 0, 48, 0
2, 119389, Note_on_c, 0, 47, 74
2, 119390, Note_on_c, 0, 79, 84
2, 119390, Note_on_c, 0, 35, 70
2, 119408, Note_on_c, 0, 78, 0
2, 119500, Control_c, 0, 64, 127
2, 119521, Note_on_c, 0, 74, 66
2, 119623, Note_on_c, 0, 79, 0
2, 119628, Note_on_c, 0, 79, 73
2, 119746, Note_on_c, 0, 74, 0
2, 119757, Note_on_c, 0, 74, 71
2, 119873, Note_on_c, 0, 78, 70
2, 119995, Note_on_c, 0, 69, 65
2, 120115, Note_on_c, 0, 74, 0
2, 120119, Note_on_c, 0, 74, 78
2, 120120, Note_on_c, 0, 62, 66
2, 120120, Note_on_c, 0, 59, 69
2, 120120, Note_on_c, 0, 66, 71
2, 120222, Note_on_c, 0, 69, 0
2, 120229, Note_on_c, 0, 69, 57
2, 120345, Note_on_c, 0, 74, 0
2, 120355, Note_on_c, 0, 74, 66
2, 120476, Note_on_c, 0, 69, 0
2, 120486, Note_on_c, 0, 69, 53
2, 120606, Note_on_c, 0, 74, 0
2, 120606, Note_on_c, 0, 79, 0
2, 120616, Note_on_c, 0, 74, 72
2, 120617, Note_on_c, 0, 79, 80
2, 120714, Note_on_c, 0, 69, 0
2, 120721, Note_on_c, 0, 69, 59
2, 120846, Control_c, 0, 64, 0
2, 120848, Note_on_c, 0, 47, 0
2, 120848, Note_on_c, 0, 69, 0
2, 120849, Note_on_c, 0, 74, 0
2, 120849, Note_on_c, 0, 78, 0
2, 120849, Note_on_c, 0, 66, 0
2, 120849, Note_on_c, 0, 62, 0
2, 120849, Note_on_c, 0, 59, 0
2, 120852, Note_on_c, 0, 35, 0
2, 120857, Note_on_c, 0, 86, 91
2, 120875, Note_on_c, 0, 79, 0
2, 120881, Note_on_c, 0, 79, 73
2, 120883, Note_on_c, 0, 52, 64
2, 120883, Note_on_c, 0, 55, 59
2, 120983, Control_c, 0, 64, 127
2, 121017, Note_on_c, 0, 76, 66
2, 121098, Note_on_c, 0, 79, 0
2, 121104, Note_on_c, 0, 84, 89
2, 121109, Note_on_c, 0, 79, 69
2, 121228, Note_on_c, 0, 76, 0
2, 121238, Note_on_c, 0, 76, 68
2, 121328, Note_on_c, 0, 79, 0
2, 121336, Note_on_c, 0, 79, 70
2, 121459, Note_on_c, 0, 76, 0
2, 121464, Note_on_c, 0, 83, 83
2, 121466, Note_on_c, 0, 76, 71
2, 121582, Note_on_c, 0, 84, 0
2, 121589, Note_on_c, 0, 84, 90
2, 121603, Note_on_c, 0, 59, 77
2, 121713, Note_on_c, 0, 60, 76
2, 121722, Note_on_c, 0, 72, 67
2, 121728, Note_on_c, 0, 76, 0
2, 121731, Note_on_c, 0, 76, 67
2, 121835, Note_on_c, 0, 79, 0
2, 121839, Note_on_c, 0, 64, 77
2, 121841, Note_on_c, 0, 79, 70
2, 121957, Note_on_c, 0, 67, 73
2, 121958, Note_on_c, 0, 76, 0
2, 121965, Note_on_c, 0, 76, 69
2, 122050, Note_on_c, 0, 72, 0
2, 122061, Note_on_c, 0, 72, 85
2, 122065, Note_on_c, 0, 79, 0
2, 122070, Note_on_c, 0, 79, 82
2, 122181, Note_on_c, 0, 76, 0
2, 122191, Note_on_c, 0, 76, 71
2, 122299, Control_c, 0, 64, 0
2, 122303, Note_on_c, 0, 60, 0
2, 122304, Note_on_c, 0, 84, 0
2, 122304, Note_on_c, 0, 52, 0
2, 122304, Note_on_c, 0, 59, 0
2, 122304, Note_on_c, 0, 64, 0
2, 122305, Note_on_c, 0, 67, 0
2, 122305, Note_on_c, 0, 72, 0
2, 122306, Note_on_c, 0, 86, 0
2, 122306, Note_on_c, 0, 76, 0
2, 122306, Note_on_c, 0, 55, 0
2, 122306, Note_on_c, 0, 83, 0
2, 122306, Note_on_c, 0, 79, 0
2, 122309, Note_on_c, 0, 84, 93
2, 122330, Note_on_c, 0, 54, 69
2, 122331, Note_on_c, 0, 50, 67
2, 122331, Note_on_c, 0, 78, 74
2, 122426, Control_c, 0, 64, 127
2, 122453, Note_on_c, 0, 74, 70
2, 122557, Note_on_c, 0, 78, 0
2, 122564, Note_on_c, 0, 83, 92
2, 122568, Note_on_c, 0, 78, 79
2, 122680, Note_on_c, 0, 74, 0
2, 122688, Note_on_c, 0, 83, 0
2, 122690, Note_on_c, 0, 74, 73
2, 122692, Note_on_c, 0, 83, 61
2, 122780, Note_on_c, 0, 78, 0
2, 122790, Note_on_c, 0, 78, 73
2, 122903, Note_on_c, 0, 74, 0
2, 122909, Note_on_c, 0, 81, 80
2, 122911, Note_on_c, 0, 74, 76
2, 123018, Note_on_c, 0, 83, 0
2, 123027, Note_on_c, 0, 83, 94
2, 123033, Note_on_c, 0, 78, 0
2, 123040, Note_on_c, 0, 78, 74
2, 123044, Note_on_c, 0, 59, 78
2, 123164, Note_on_c, 0, 74, 0
2, 123175, Note_on_c, 0, 74, 69
2, 123180, Note_on_c, 0, 60, 67
2, 123248, Note_on_c, 0, 78, 0
2, 123257, Note_on_c, 0, 78, 68
2, 123279, Note_on_c, 0, 74, 0
2, 123287, Note_on_c, 0, 62, 64
2, 123289, Note_on_c, 0, 74, 56
2, 123394, Note_on_c, 0, 74, 0
2, 123401, Note_on_c, 0, 66, 78
2, 123405, Note_on_c, 0, 74, 62
2, 123490, Note_on_c, 0, 79, 93
2, 123507, Note_on_c, 0, 71, 81
2, 123609, Note_on_c, 0, 81, 0
2, 123616, Note_on_c, 0, 81, 84
2, 123715, Note_on_c, 0, 66, 0
2, 123717, Note_on_c, 0, 71, 0
2, 123717, Control_c, 0, 64, 0
2, 123718, Note_on_c, 0, 74, 0
2, 123718, Note_on_c, 0, 60, 0
2, 123718, Note_on_c, 0, 81, 0
2, 123718, Note_on_c, 0, 62, 0
2, 123718, Note_on_c, 0, 50, 0
2, 123719, Note_on_c, 0, 54, 0
2, 123719, Note_on_c, 0, 78, 0
2, 123719, Note_on_c, 0, 79, 0
2, 123720, Note_on_c, 0, 84, 0
2, 123724, Note_on_c, 0, 83, 0
2, 123729, Note_on_c, 0, 83, 96
2, 123732, Note_on_c, 0, 59, 0
2, 123736, Note_on_c, 0, 48, 73
2, 123737, Note_on_c, 0, 47, 72
2, 123738, Note_on_c, 0, 59, 79
2, 123742, Note_on_c, 0, 55, 70
2, 123744, Note_on_c, 0, 76, 82
2, 123747, Note_on_c, 0, 47, 0
2, 123855, Control_c, 0, 64, 127
2, 123985, Note_on_c, 0, 76, 0
2, 123992, Note_on_c, 0, 76, 68
2, 124101, Note_on_c, 0, 71, 69
2, 124131, Note_on_c, 0, 55, 0
2, 124131, Note_on_c, 0, 59, 0
2, 124141, Note_on_c, 0, 59, 77
2, 124142, Note_on_c, 0, 55, 74
2, 124216, Note_on_c, 0, 83, 0
2, 124221, Note_on_c, 0, 83, 60
2, 124239, Note_on_c, 0, 76, 0
2, 124249, Note_on_c, 0, 76, 84
2, 124346, Note_on_c, 0, 71, 0
2, 124355, Note_on_c, 0, 71, 68
2, 124477, Note_on_c, 0, 59, 0
2, 124483, Note_on_c, 0, 59, 80
2, 124485, Note_on_c, 0, 48, 0
2, 124485, Note_on_c, 0, 55, 0
2, 124485, Note_on_c, 0, 76, 0
2, 124489, Note_on_c, 0, 48, 77
2, 124489, Note_on_c, 0, 55, 76
2, 124492, Note_on_c, 0, 76, 80
2, 124584, Note_on_c, 0, 71, 0
2, 124592, Note_on_c, 0, 71, 72
2, 124715, Note_on_c, 0, 83, 0
2, 124723, Note_on_c, 0, 76, 0
2, 124725, Note_on_c, 0, 83, 97
2, 124730, Note_on_c, 0, 59, 0
2, 124734, Note_on_c, 0, 76, 83
2, 124739, Note_on_c, 0, 59, 87
2, 124746, Note_on_c, 0, 55, 0
2, 124750, Note_on_c, 0, 55, 76
2, 124807, Note_on_c, 0, 71, 0
2, 124818, Note_on_c, 0, 71, 73
2, 124938, Note_on_c, 0, 48, 0
2, 124938, Note_on_c, 0, 76, 0
2, 124948, Note_on_c, 0, 76, 81
2, 124949, Note_on_c, 0, 48, 81
2, 125057, Note_on_c, 0, 84, 89
2, 125203, Note_on_c, 0, 81, 100
2, 125210, Note_on_c, 0, 50, 81
2, 125210, Note_on_c, 0, 74, 84
2, 125211, Note_on_c, 0, 57, 79
2, 125211, Note_on_c, 0, 78, 86
2, 125220, Control_c, 0, 64, 0
2, 125228, Note_on_c, 0, 59, 0
2, 125229, Note_on_c, 0, 84, 0
2, 125231, Note_on_c, 0, 55, 0
2, 125232, Note_on_c, 0, 48, 0
2, 125233, Note_on_c, 0, 83, 0
2, 125233, Note_on_c, 0, 71, 0
2, 125234, Note_on_c, 0, 76, 0
2, 125456, Note_on_c, 0, 54, 69
2, 125468, Control_c, 0, 64, 127
2, 125539, Note_on_c, 0, 55, 79
2, 125591, Note_on_c, 0, 54, 0
2, 125598, Note_on_c, 0, 54, 78
2, 125690, Note_on_c, 0, 50, 0
2, 125698, Note_on_c, 0, 50, 88
2, 125746, Note_on_c, 0, 45, 75
2, 125813, Note_on_c, 0, 38, 97
2, 125938, Control_c, 0, 64, 0
2, 125939, Note_on_c, 0, 55, 0
2, 125940, Note_on_c, 0, 81, 0
2, 125940, Note_on_c, 0, 45, 0
2, 125940, Note_on_c, 0, 78, 0
2, 125940, Note_on_c, 0, 57, 0
2, 125940, Note_on_c, 0, 74, 0
2, 125940, Note_on_c, 0, 38, 0
2, 125940, Note_on_c, 0, 50, 0
2, 125941, Note_on_c, 0, 54, 0
2, 125942, Note_on_c, 0, 64, 105
2, 126204, Note_on_c, 0, 71, 104
2, 126332, Note_on_c, 0, 38, 99
2, 126334, Note_on_c, 0, 26, 87
2, 126343, Control_c, 0, 64, 127
2, 126428, Note_on_c, 0, 26, 0
2, 126437, Note_on_c, 0, 26, 88
2, 126491, Note_on_c, 0, 38, 0
2, 126494, Note_on_c, 0, 64, 0
2, 126500, Control_c, 0, 64, 0
2, 126512, Note_on_c, 0, 26, 0
2, 126573, Note_on_c, 0, 69, 93
2, 126610, Note_on_c, 0, 69, 0
2, 126612, Note_on_c, 0, 71, 0
2, 126694, Note_on_c, 0, 71, 103
2, 126698, Note_on_c, 0, 40, 100
2, 126699, Note_on_c, 0, 64, 95
2, 126700, Note_on_c, 0, 28, 95
2, 126701, Note_on_c, 0, 67, 89
2, 126750, Control_c, 0, 64, 127
2, 126942, Note_on_c, 0, 64, 0
2, 126949, Note_on_c, 0, 64, 87
2, 126970, Note_on_c, 0, 38, 55
2, 126981, Note_on_c, 0, 38, 0
2, 127050, Note_on_c, 0, 71, 0
2, 127057, Note_on_c, 0, 64, 0
2, 127057, Note_on_c, 0, 67, 0
2, 127059, Note_on_c, 0, 71, 82
2, 127062, Note_on_c, 0, 64, 73
2, 127063, Note_on_c, 0, 67, 76
2, 127188, Note_on_c, 0, 71, 0
2, 127191, Note_on_c, 0, 76, 93
2, 127192, Note_on_c, 0, 71, 71
2, 127302, Note_on_c, 0, 84, 65
2, 127307, Note_on_c, 0, 83, 80
2, 127311, Note_on_c, 0, 84, 0
2, 127331, Note_on_c, 0, 55, 75
2, 127418, Note_on_c, 0, 64, 0
2, 127418, Note_on_c, 0, 67, 0
2, 127422, Note_on_c, 0, 95, 101
2, 127423, Note_on_c, 0, 67, 82
2, 127425, Note_on_c, 0, 64, 80
2, 127426, Note_on_c, 0, 88, 91
2, 127428, Note_on_c, 0, 59, 88
2, 127430, Note_on_c, 0, 91, 78
2, 127666, Note_on_c, 0, 69, 100
2, 127668, Note_on_c, 0, 52, 95
2, 127793, Note_on_c, 0, 47, 83
2, 127895, Note_on_c, 0, 40, 0
2, 127905, Note_on_c, 0, 40, 81
2, 128017, Note_on_c, 0, 47, 0
2, 128026, Note_on_c, 0, 47, 74
2, 128026, Note_on_c, 0, 35, 71
2, 128027, Note_on_c, 0, 74, 94
2, 128097, Note_on_c, 0, 28, 0
2, 128097, Note_on_c, 0, 95, 0
2, 128097, Note_on_c, 0, 88, 0
2, 128097, Note_on_c, 0, 71, 0
2, 128097, Note_on_c, 0, 83, 0
2, 128097, Note_on_c, 0, 55, 0
2, 128097, Note_on_c, 0, 67, 0
2, 128097, Note_on_c, 0, 52, 0
2, 128097, Control_c, 0, 64, 0
2, 128097, Note_on_c, 0, 47, 0
2, 128097, Note_on_c, 0, 40, 0
2, 128097, Note_on_c, 0, 74, 0
2, 128097, Note_on_c, 0, 59, 0
2, 128097, Note_on_c, 0, 64, 0
2, 128098, Note_on_c, 0, 69, 0
2, 128098, Note_on_c, 0, 76, 0
2, 128102, Note_on_c, 0, 35, 0
2, 128102, Note_on_c, 0, 91, 0
2, 128157, Note_on_c, 0, 71, 101
2, 128161, Note_on_c, 0, 62, 97
2, 128163, Note_on_c, 0, 66, 97
2, 128173, Note_on_c, 0, 31, 97
2, 128209, Control_c, 0, 64, 127
2, 128409, Note_on_c, 0, 62, 0
2, 128413, Note_on_c, 0, 43, 79
2, 128416, Note_on_c, 0, 62, 82
2, 128517, Note_on_c, 0, 71, 0
2, 128521, Note_on_c, 0, 71, 86
2, 128524, Note_on_c, 0, 66, 0
2, 128535, Note_on_c, 0, 66, 78
2, 128535, Note_on_c, 0, 55, 82
2, 128647, Note_on_c, 0, 74, 94
2, 128749, Note_on_c, 0, 83, 89
2, 128750, Note_on_c, 0, 78, 81
2, 128766, Note_on_c, 0, 59, 79
2, 128878, Note_on_c, 0, 62, 0
2, 128881, Note_on_c, 0, 95, 88
2, 128885, Note_on_c, 0, 66, 0
2, 128886, Note_on_c, 0, 90, 92
2, 128888, Note_on_c, 0, 62, 78
2, 128889, Note_on_c, 0, 86, 94
2, 128896, Note_on_c, 0, 66, 79
2, 129133, Note_on_c, 0, 76, 103
2, 129134, Note_on_c, 0, 64, 93
2, 129135, Note_on_c, 0, 88, 90
2, 129139, Note_on_c, 0, 55, 0
2, 129143, Note_on_c, 0, 55, 64
2, 129166, Note_on_c, 0, 53, 58
2, 129263, Note_on_c, 0, 50, 66
2, 129265, Note_on_c, 0, 48, 64
2, 129361, Note_on_c, 0, 78, 0
2, 129369, Note_on_c, 0, 66, 0
2, 129371, Note_on_c, 0, 78, 90
2, 129374, Note_on_c, 0, 66, 81
2, 129482, Note_on_c, 0, 79, 98
2, 129488, Note_on_c, 0, 67, 86
2, 129559, Control_c, 0, 64, 0
2, 129559, Note_on_c, 0, 62, 0
2, 129559, Note_on_c, 0, 88, 0
2, 129559, Note_on_c, 0, 74, 0
2, 129559, Note_on_c, 0, 95, 0
2, 129559, Note_on_c, 0, 50, 0
2, 129559, Note_on_c, 0, 66, 0
2, 129559, Note_on_c, 0, 67, 0
2, 129559, Note_on_c, 0, 71, 0
2, 129559, Note_on_c, 0, 53, 0
2, 129560, Note_on_c, 0, 55, 0
2, 129560, Note_on_c, 0, 76, 0
2, 129560, Note_on_c, 0, 90, 0
2, 129560, Note_on_c, 0, 59, 0
2, 129560, Note_on_c, 0, 64, 0
2, 129561, Note_on_c, 0, 79, 0
2, 129561, Note_on_c, 0, 43, 0
2, 129561, Note_on_c, 0, 78, 0
2, 129569, Note_on_c, 0, 31, 0
2, 129569, Note_on_c, 0, 48, 0
2, 129576, Note_on_c, 0, 83, 0
2, 129576, Note_on_c, 0, 86, 0
2, 129607, Note_on_c, 0, 78, 101
2, 129610, Note_on_c, 0, 66, 100
2, 129611, Note_on_c, 0, 74, 87
2, 129613, Note_on_c, 0, 48, 92
2, 129613, Note_on_c, 0, 36, 90
2, 129653, Control_c, 0, 64, 127
2, 129845, Note_on_c, 0, 48, 0
2, 129851, Note_on_c, 0, 48, 81
2, 129852, Note_on_c, 0, 69, 83
2, 129968, Note_on_c, 0, 74, 0
2, 129977, Note_on_c, 0, 74, 80
2, 129994, Note_on_c, 0, 55, 73
2, 130083, Note_on_c, 0, 78, 0
2, 130087, Note_on_c, 0, 81, 97
2, 130087, Note_on_c, 0, 60, 82
2, 130088, Note_on_c, 0, 78, 88
2, 130214, Note_on_c, 0, 60, 0
2, 130220, Note_on_c, 0, 60, 73
2, 130231, Note_on_c, 0, 86, 71
2, 130337, Note_on_c, 0, 74, 0
2, 130344, Note_on_c, 0, 69, 0
2, 130346, Note_on_c, 0, 93, 100
2, 130347, Note_on_c, 0, 74, 97
2, 130349, Note_on_c, 0, 90, 89
2, 130349, Note_on_c, 0, 69, 79
2, 130352, Note_on_c, 0, 66, 0
2, 130362, Note_on_c, 0, 66, 85
2, 130444, Note_on_c, 0, 86, 0
2, 130450, Note_on_c, 0, 86, 88
2, 130575, Note_on_c, 0, 60, 0
2, 130575, Note_on_c, 0, 81, 0
2, 130583, Note_on_c, 0, 78, 0
2, 130586, Note_on_c, 0, 81, 84
2, 130586, Note_on_c, 0, 60, 83
2, 130594, Note_on_c, 0, 78, 72
2, 130690, Note_on_c, 0, 55, 0
2, 130690, Note_on_c, 0, 74, 0
2, 130699, Note_on_c, 0, 55, 78
2, 130699, Note_on_c, 0, 74, 80
2, 130828, Note_on_c, 0, 48, 0
2, 130828, Note_on_c, 0, 69, 0
2, 130833, Note_on_c, 0, 48, 73
2, 130833, Note_on_c, 0, 69, 81
2, 130844, Note_on_c, 0, 66, 0
2, 130855, Note_on_c, 0, 66, 61
2, 130931, Note_on_c, 0, 43, 69
2, 130948, Note_on_c, 0, 62, 69
2, 131045, Control_c, 0, 64, 0
2, 131045, Note_on_c, 0, 93, 0
2, 131046, Note_on_c, 0, 69, 0
2, 131046, Note_on_c, 0, 78, 0
2, 131046, Note_on_c, 0, 90, 0
2, 131046, Note_on_c, 0, 48, 0
2, 131046, Note_on_c, 0, 86, 0
2, 131046, Note_on_c, 0, 36, 0
2, 131046, Note_on_c, 0, 66, 0
2, 131046, Note_on_c, 0, 74, 0
2, 131047, Note_on_c, 0, 62, 0
2, 131047, Note_on_c, 0, 55, 0
2, 131059, Note_on_c, 0, 81, 0
2, 131075, Note_on_c, 0, 47, 87
2, 131077, Note_on_c, 0, 35, 80
2, 131082, Note_on_c, 0, 43, 0
2, 131082, Note_on_c, 0, 60, 0
2, 131182, Control_c, 0, 64, 127
2, 131210, Note_on_c, 0, 62, 74
2, 131304, Note_on_c, 0, 47, 0
2, 131307, Note_on_c, 0, 69, 84
2, 131315, Note_on_c, 0, 47, 80
2, 131431, Note_on_c, 0, 74, 83
2, 131439, Note_on_c, 0, 54, 71
2, 131530, Note_on_c, 0, 81, 84
2, 131532, Note_on_c, 0, 78, 72
2, 131536, Note_on_c, 0, 57, 64
2, 131660, Note_on_c, 0, 86, 76
2, 131788, Note_on_c, 0, 62, 0
2, 131792, Note_on_c, 0, 93, 95
2, 131792, Note_on_c, 0, 66, 87
2, 131793, Note_on_c, 0, 62, 77
2, 131795, Note_on_c, 0, 90, 91
2, 132042, Note_on_c, 0, 57, 0
2, 132042, Note_on_c, 0, 66, 0
2, 132042, Note_on_c, 0, 69, 0
2, 132047, Note_on_c, 0, 57, 77
2, 132047, Note_on_c, 0, 69, 61
2, 132052, Note_on_c, 0, 66, 58
2, 132142, Note_on_c, 0, 54, 0
2, 132142, Note_on_c, 0, 66, 0
2, 132150, Note_on_c, 0, 66, 64
2, 132152, Note_on_c, 0, 54, 74
2, 132153, Note_on_c, 0, 42, 69
2, 132272, Note_on_c, 0, 47, 0
2, 132272, Note_on_c, 0, 69, 0
2, 132272, Note_on_c, 0, 81, 0
2, 132277, Note_on_c, 0, 81, 99
2, 132278, Note_on_c, 0, 69, 89
2, 132280, Note_on_c, 0, 47, 81
2, 132372, Note_on_c, 0, 42, 0
2, 132383, Note_on_c, 0, 42, 85
2, 132461, Note_on_c, 0, 86, 0
2, 132462, Note_on_c, 0, 47, 0
2, 132462, Note_on_c, 0, 42, 0
2, 132462, Note_on_c, 0, 69, 0
2, 132462, Note_on_c, 0, 93, 0
2, 132462, Note_on_c, 0, 90, 0
2, 132463, Note_on_c, 0, 74, 0
2, 132463, Note_on_c, 0, 81, 0
2, 132463, Note_on_c, 0, 78, 0
2, 132463, Note_on_c, 0, 57, 0
2, 132464, Note_on_c, 0, 62, 0
2, 132464, Note_on_c, 0, 66, 0
2, 132465, Control_c, 0, 64, 0
2, 132480, Note_on_c, 0, 35, 0
2, 132480, Note_on_c, 0, 54, 0
2, 132509, Note_on_c, 0, 86, 105
2, 132513, Note_on_c, 0, 33, 93
2, 132514, Note_on_c, 0, 45, 90
2, 132516, Note_on_c, 0, 74, 98
2, 132519, Note_on_c, 0, 76, 96
2, 132564, Control_c, 0, 64, 127
2, 132587, Note_on_c, 0, 33, 0
2, 132595, Note_on_c, 0, 45, 0
2, 132767, Note_on_c, 0, 64, 82
2, 132769, Note_on_c, 0, 67, 84
2, 132772, Note_on_c, 0, 84, 95
2, 132773, Note_on_c, 0, 79, 73
2, 132774, Note_on_c, 0, 72, 92
2, 132779, Note_on_c, 0, 79, 0
2, 132854, Note_on_c, 0, 60, 82
2, 132983, Note_on_c, 0, 55, 81
2, 132994, Note_on_c, 0, 86, 0
2, 132999, Note_on_c, 0, 52, 72
2, 133002, Note_on_c, 0, 74, 0
2, 133004, Note_on_c, 0, 86, 98
2, 133005, Note_on_c, 0, 83, 75
2, 133006, Note_on_c, 0, 74, 86
2, 133013, Note_on_c, 0, 79, 69
2, 133240, Note_on_c, 0, 84, 0
2, 133248, Note_on_c, 0, 76, 0
2, 133248, Note_on_c, 0, 79, 0
2, 133251, Note_on_c, 0, 88, 103
2, 133251, Note_on_c, 0, 84, 92
2, 133252, Note_on_c, 0, 45, 75
2, 133254, Note_on_c, 0, 76, 92
2, 133258, Note_on_c, 0, 79, 72
2, 133486, Note_on_c, 0, 64, 0
2, 133486, Note_on_c, 0, 67, 0
2, 133491, Note_on_c, 0, 67, 90
2, 133491, Note_on_c, 0, 64, 88
2, 133593, Note_on_c, 0, 60, 0
2, 133597, Note_on_c, 0, 60, 85
2, 133731, Note_on_c, 0, 52, 0
2, 133731, Note_on_c, 0, 55, 0
2, 133733, Note_on_c, 0, 81, 100
2, 133735, Note_on_c, 0, 69, 85
2, 133736, Note_on_c, 0, 55, 81
2, 133742, Note_on_c, 0, 52, 80
2, 133742, Note_on_c, 0, 67, 0
2, 133824, Note_on_c, 0, 45, 0
2, 133833, Note_on_c, 0, 45, 73
2, 133930, Control_c, 0, 64, 0
2, 133931, Note_on_c, 0, 52, 0
2, 133931, Note_on_c, 0, 74, 0
2, 133932, Note_on_c, 0, 86, 0
2, 133932, Note_on_c, 0, 72, 0
2, 133932, Note_on_c, 0, 81, 0
2, 133933, Note_on_c, 0, 45, 0
2, 133933, Note_on_c, 0, 83, 0
2, 133933, Note_on_c, 0, 60, 0
2, 133933, Note_on_c, 0, 69, 0
2, 133933, Note_on_c, 0, 76, 0
2, 133934, Note_on_c, 0, 55, 0
2, 133946, Note_on_c, 0, 64, 0
2, 133946, Note_on_c, 0, 79, 0
2, 133946, Note_on_c, 0, 84, 0
2, 133962, Note_on_c, 0, 88, 0
2, 133971, Note_on_c, 0, 88, 105
2, 133975, Note_on_c, 0, 76, 92
2, 133976, Note_on_c, 0, 78, 94
2, 133977, Note_on_c, 0, 47, 95
2, 133979, Note_on_c, 0, 35, 90
2, 134016, Control_c, 0, 64, 127
2, 134215, Note_on_c, 0, 78, 0
2, 134221, Note_on_c, 0, 69, 86
2, 134226, Note_on_c, 0, 86, 99
2, 134227, Note_on_c, 0, 78, 94
2, 134228, Note_on_c, 0, 74, 93
2, 134228, Note_on_c, 0, 66, 91
2, 134321, Note_on_c, 0, 62, 82
2, 134446, Note_on_c, 0, 88, 0
2, 134449, Note_on_c, 0, 57, 75
2, 134453, Note_on_c, 0, 76, 0
2, 134454, Note_on_c, 0, 88, 91
2, 134457, Note_on_c, 0, 76, 83
2, 134465, Note_on_c, 0, 54, 68
2, 134576, Note_on_c, 0, 47, 0
2, 134582, Note_on_c, 0, 47, 75
2, 134684, Note_on_c, 0, 78, 0
2, 134690, Note_on_c, 0, 90, 104
2, 134691, Note_on_c, 0, 66, 0
2, 134691, Note_on_c, 0, 86, 0
2, 134695, Note_on_c, 0, 78, 99
2, 134696, Note_on_c, 0, 66, 91
2, 134698, Note_on_c, 0, 86, 82
2, 134937, Note_on_c, 0, 69, 0
2, 134945, Note_on_c, 0, 66, 0
2, 134948, Note_on_c, 0, 69, 91
2, 134952, Note_on_c, 0, 66, 95
2, 135045, Note_on_c, 0, 62, 0
2, 135049, Note_on_c, 0, 62, 85
2, 135168, Note_on_c, 0, 57, 0
2, 135168, Note_on_c, 0, 76, 0
2, 135168, Note_on_c, 0, 88, 0
2, 135174, Note_on_c, 0, 88, 103
2, 135179, Note_on_c, 0, 57, 86
2, 135179, Note_on_c, 0, 76, 95
2, 135198, Note_on_c, 0, 54, 0
2, 135202, Note_on_c, 0, 54, 65
2, 135283, Note_on_c, 0, 47, 0
2, 135283, Note_on_c, 0, 78, 0
2, 135283, Note_on_c, 0, 90, 0
2, 135289, Note_on_c, 0, 47, 80
2, 135293, Note_on_c, 0, 90, 99
2, 135293, Note_on_c, 0, 78, 86
2, 135385, Control_c, 0, 64, 0
2, 135385, Note_on_c, 0, 69, 0
2, 135385, Note_on_c, 0, 74, 0
2, 135385, Note_on_c, 0, 47, 0
2, 135385, Note_on_c, 0, 62, 0
2, 135385, Note_on_c, 0, 54, 0
2, 135386, Note_on_c, 0, 88, 0
2, 135386, Note_on_c, 0, 66, 0
2, 135386, Note_on_c, 0, 78, 0
2, 135398, Note_on_c, 0, 57, 0
2, 135398, Note_on_c, 0, 76, 0
2, 135398, Note_on_c, 0, 86, 0
2, 135406, Note_on_c, 0, 35, 0
2, 135406, Note_on_c, 0, 90, 0
2, 135417, Note_on_c, 0, 91, 105
2, 135418, Note_on_c, 0, 36, 99
2, 135419, Note_on_c, 0, 79, 93
2, 135423, Note_on_c, 0, 24, 99
2, 135423, Note_on_c, 0, 83, 95
2, 135429, Note_on_c, 0, 24, 0
2, 135475, Control_c, 0, 64, 127
2, 135652, Note_on_c, 0, 67, 87
2, 135653, Note_on_c, 0, 64, 86
2, 135763, Note_on_c, 0, 60, 82
2, 135765, Note_on_c, 0, 48, 75
2, 135910, Note_on_c, 0, 55, 78
2, 135912, Note_on_c, 0, 52, 74
2, 135997, Note_on_c, 0, 48, 0
2, 136006, Note_on_c, 0, 48, 79
2, 136135, Note_on_c, 0, 48, 0
2, 136139, Note_on_c, 0, 86, 100
2, 136142, Note_on_c, 0, 78, 94
2, 136144, Note_on_c, 0, 74, 90
2, 136146, Note_on_c, 0, 48, 85
2, 136366, Note_on_c, 0, 64, 0
2, 136366, Note_on_c, 0, 67, 0
2, 136376, Note_on_c, 0, 67, 90
2, 136376, Note_on_c, 0, 64, 87
2, 136481, Note_on_c, 0, 60, 0
2, 136489, Note_on_c, 0, 60, 86
2, 136611, Note_on_c, 0, 91, 0
2, 136616, Note_on_c, 0, 91, 99
2, 136619, Note_on_c, 0, 55, 0
2, 136619, Note_on_c, 0, 79, 0
2, 136623, Note_on_c, 0, 79, 91
2, 136623, Note_on_c, 0, 55, 92
2, 136634, Note_on_c, 0, 52, 0
2, 136641, Note_on_c, 0, 52, 74
2, 136711, Note_on_c, 0, 48, 0
2, 136717, Note_on_c, 0, 48, 88
2, 136830, Control_c, 0, 64, 0
2, 136839, Note_on_c, 0, 83, 0
2, 136839, Note_on_c, 0, 52, 0
2, 136840, Note_on_c, 0, 48, 0
2, 136840, Note_on_c, 0, 74, 0
2, 136840, Note_on_c, 0, 67, 0
2, 136840, Note_on_c, 0, 60, 0
2, 136841, Note_on_c, 0, 91, 0
2, 136841, Note_on_c, 0, 86, 0
2, 136841, Note_on_c, 0, 79, 0
2, 136841, Note_on_c, 0, 55, 0
2, 136842, Note_on_c, 0, 36, 0
2, 136849, Note_on_c, 0, 64, 0
2, 136857, Note_on_c, 0, 78, 0
2, 136861, Note_on_c, 0, 90, 107
2, 136862, Note_on_c, 0, 81, 96
2, 136866, Note_on_c, 0, 50, 96
2, 136867, Note_on_c, 0, 78, 97
2, 136867, Note_on_c, 0, 38, 95
2, 136926, Control_c, 0, 64, 127
2, 137103, Note_on_c, 0, 81, 0
2, 137112, Note_on_c, 0, 62, 79
2, 137114, Note_on_c, 0, 81, 84
2, 137116, Note_on_c, 0, 74, 77
2, 137126, Note_on_c, 0, 74, 0
2, 137127, Note_on_c, 0, 54, 70
2, 137226, Note_on_c, 0, 50, 0
2, 137233, Note_on_c, 0, 50, 77
2, 137233, Note_on_c, 0, 79, 80
2, 137233, Note_on_c, 0, 38, 0
2, 137238, Note_on_c, 0, 38, 69
2, 137341, Note_on_c, 0, 38, 0
2, 137341, Note_on_c, 0, 50, 0
2, 137349, Note_on_c, 0, 78, 0
2, 137350, Note_on_c, 0, 50, 77
2, 137351, Note_on_c, 0, 38, 70
2, 137353, Note_on_c, 0, 78, 76
2, 137475, Note_on_c, 0, 74, 86
2, 137482, Note_on_c, 0, 45, 64
2, 137579, Note_on_c, 0, 38, 0
2, 137590, Note_on_c, 0, 69, 86
2, 137590, Note_on_c, 0, 38, 86
2, 137714, Note_on_c, 0, 67, 81
2, 137832, Note_on_c, 0, 62, 0
2, 137834, Note_on_c, 0, 66, 90
2, 137842, Note_on_c, 0, 62, 83
2, 137848, Note_on_c, 0, 54, 0
2, 137852, Note_on_c, 0, 57, 69
2, 137856, Note_on_c, 0, 38, 0
2, 137859, Note_on_c, 0, 54, 70
2, 137866, Note_on_c, 0, 38, 70
2, 137955, Note_on_c, 0, 38, 0
2, 137955, Note_on_c, 0, 74, 0
2, 137960, Note_on_c, 0, 38, 68
2, 137965, Note_on_c, 0, 74, 85
2, 138071, Note_on_c, 0, 38, 0
2, 138071, Note_on_c, 0, 78, 0
2, 138081, Note_on_c, 0, 38, 88
2, 138082, Note_on_c, 0, 78, 88
2, 138178, Note_on_c, 0, 81, 0
2, 138189, Note_on_c, 0, 81, 97
2, 138204, Note_on_c, 0, 33, 70
2, 138209, Note_on_c, 0, 33, 0
2, 138324, Note_on_c, 0, 38, 0
2, 138324, Note_on_c, 0, 90, 0
2, 138329, Note_on_c, 0, 26, 84
2, 138330, Note_on_c, 0, 98, 103
2, 138332, Note_on_c, 0, 38, 83
2, 138334, Note_on_c, 0, 90, 95
2, 138423, Note_on_c, 0, 79, 0
2, 138425, Note_on_c, 0, 67, 0
2, 138437, Note_on_c, 0, 86, 73
2, 138485, Note_on_c, 0, 38, 0
2, 138491, Note_on_c, 0, 38, 61
2, 138516, Note_on_c, 0, 90, 0
2, 138526, Note_on_c, 0, 90, 75
2, 138585, Note_on_c, 0, 38, 0
2, 138594, Note_on_c, 0, 38, 70
2, 138624, Note_on_c, 0, 86, 0
2, 138632, Note_on_c, 0, 86, 66
2, 138685, Note_on_c, 0, 86, 0
2, 138685, Note_on_c, 0, 98, 0
2, 138690, Note_on_c, 0, 98, 77
2, 138692, Note_on_c, 0, 86, 70
2, 138693, Note_on_c, 0, 38, 0
2, 138698, Note_on_c, 0, 38, 72
2, 138702, Note_on_c, 0, 93, 67
2, 138746, Note_on_c, 0, 93, 0
2, 138757, Note_on_c, 0, 93, 68
2, 138777, Note_on_c, 0, 38, 0
2, 138777, Note_on_c, 0, 98, 0
2, 138781, Note_on_c, 0, 38, 65
2, 138788, Note_on_c, 0, 98, 77
2, 138839, Note_on_c, 0, 90, 0
2, 138843, Note_on_c, 0, 90, 70
2, 138846, Note_on_c, 0, 86, 0
2, 138857, Note_on_c, 0, 86, 80
2, 138869, Note_on_c, 0, 98, 0
2, 138877, Note_on_c, 0, 98, 86
2, 138938, Note_on_c, 0, 86, 0
2, 138946, Note_on_c, 0, 38, 0
2, 138948, Note_on_c, 0, 86, 77
2, 138951, Note_on_c, 0, 38, 65
2, 138992, Note_on_c, 0, 38, 0
2, 138992, Note_on_c, 0, 93, 0
2, 138997, Note_on_c, 0, 93, 67
2, 138997, Note_on_c, 0, 38, 73
2, 139031, Note_on_c, 0, 86, 0
2, 139035, Note_on_c, 0, 86, 80
2, 139038, Note_on_c, 0, 90, 0
2, 139049, Note_on_c, 0, 90, 77
2, 139084, Note_on_c, 0, 98, 0
2, 139092, Note_on_c, 0, 98, 89
2, 139138, Note_on_c, 0, 86, 0
2, 139138, Note_on_c, 0, 90, 0
2, 139146, Note_on_c, 0, 38, 0
2, 139147, Note_on_c, 0, 86, 79
2, 139147, Note_on_c, 0, 90, 75
2, 139153, Note_on_c, 0, 38, 74
2, 139176, Note_on_c, 0, 93, 0
2, 139182, Note_on_c, 0, 93, 69
2, 139200, Note_on_c, 0, 98, 0
2, 139211, Note_on_c, 0, 98, 75
2, 139246, Note_on_c, 0, 86, 0
2, 139246, Note_on_c, 0, 90, 0
2, 139250, Note_on_c, 0, 86, 79
2, 139253, Note_on_c, 0, 38, 0
2, 139254, Note_on_c, 0, 90, 70
2, 139263, Note_on_c, 0, 38, 83
2, 139284, Note_on_c, 0, 98, 0
2, 139289, Note_on_c, 0, 98, 80
2, 139338, Note_on_c, 0, 98, 0
2, 139344, Note_on_c, 0, 98, 83
2, 139345, Note_on_c, 0, 86, 0
2, 139346, Note_on_c, 0, 91, 63
2, 139352, Note_on_c, 0, 86, 83
2, 139353, Note_on_c, 0, 91, 0
2, 139384, Note_on_c, 0, 98, 0
2, 139395, Note_on_c, 0, 98, 82
2, 139475, Note_on_c, 0, 91, 63
2, 139476, Note_on_c, 0, 38, 0
2, 139480, Note_on_c, 0, 38, 84
2, 139547, Note_on_c, 0, 85, 72
2, 139560, Note_on_c, 0, 91, 0
2, 139570, Note_on_c, 0, 91, 49
2, 139591, Note_on_c, 0, 38, 0
2, 139602, Note_on_c, 0, 38, 73
2, 139668, Note_on_c, 0, 57, 0
2, 139676, Note_on_c, 0, 45, 0
2, 139676, Note_on_c, 0, 85, 0
2, 139676, Control_c, 0, 64, 0
2, 139679, Note_on_c, 0, 98, 0
2, 139680, Note_on_c, 0, 93, 0
2, 139680, Note_on_c, 0, 86, 0
2, 139680, Note_on_c, 0, 69, 0
2, 139680, Note_on_c, 0, 78, 0
2, 139680, Note_on_c, 0, 90, 0
2, 139681, Note_on_c, 0, 54, 0
2, 139681, Note_on_c, 0, 38, 0
2, 139683, Note_on_c, 0, 74, 0
2, 139691, Note_on_c, 0, 26, 0
2, 139691, Note_on_c, 0, 50, 0
2, 139691, Note_on_c, 0, 62, 0
2, 139691, Note_on_c, 0, 81, 0
2, 139691, Note_on_c, 0, 91, 0
2, 139714, Note_on_c, 0, 66, 0
2, 139725, Note_on_c, 0, 66, 90
2, 139773, Note_on_c, 0, 66, 0
2, 139853, Note_on_c, 0, 64, 83
2, 139885, Note_on_c, 0, 64, 0
2, 139964, Note_on_c, 0, 67, 81
2, 140001, Note_on_c, 0, 67, 0
2, 140085, Note_on_c, 0, 66, 70
2, 140116, Note_on_c, 0, 66, 0
2, 140188, Note_on_c, 0, 69, 82
2, 140211, Note_on_c, 0, 69, 0
2, 140307, Note_on_c, 0, 67, 70
2, 140340, Note_on_c, 0, 67, 0
2, 140436, Note_on_c, 0, 64, 76
2, 140464, Note_on_c, 0, 64, 0
2, 140546, Note_on_c, 0, 67, 73
2, 140577, Note_on_c, 0, 67, 0
2, 140666, Note_on_c, 0, 64, 84
2, 140692, Note_on_c, 0, 64, 0
2, 140781, Note_on_c, 0, 62, 77
2, 140824, Note_on_c, 0, 62, 0
2, 140898, Note_on_c, 0, 67, 89
2, 140898, Note_on_c, 0, 38, 73
2, 140899, Note_on_c, 0, 26, 76
2, 140901, Note_on_c, 0, 69, 68
2, 140904, Control_c, 0, 64, 127
2, 141007, Note_on_c, 0, 66, 91
2, 141066, Note_on_c, 0, 69, 0
2, 141069, Note_on_c, 0, 66, 0
2, 141070, Note_on_c, 0, 38, 0
2, 141073, Note_on_c, 0, 26, 0
2, 141081, Control_c, 0, 64, 0
2, 141081, Note_on_c, 0, 67, 0
2, 141123, Note_on_c, 0, 64, 100
2, 141124, Note_on_c, 0, 40, 97
2, 141124, Note_on_c, 0, 76, 101
2, 141125, Note_on_c, 0, 28, 93
2, 141158, Control_c, 0, 64, 127
2, 141196, Note_on_c, 0, 64, 0
2, 141242, Note_on_c, 0, 76, 0
2, 141248, Note_on_c, 0, 76, 87
2, 141270, Control_c, 0, 64, 0
2, 141293, Note_on_c, 0, 76, 0
2, 141296, Note_on_c, 0, 28, 0
2, 141304, Note_on_c, 0, 40, 0
2, 141506, Note_on_c, 0, 40, 77
2, 141507, Note_on_c, 0, 28, 79
2, 141539, Note_on_c, 0, 28, 0
2, 141545, Note_on_c, 0, 40, 0
2, 141759, Note_on_c, 0, 40, 65
2, 141760, Note_on_c, 0, 28, 66
2, 141793, Note_on_c, 0, 40, 0
2, 141857, Note_on_c, 0, 28, 0
2, 141862, Note_on_c, 0, 52, 86
2, 141868, Note_on_c, 0, 40, 74
2, 141868, Note_on_c, 0, 28, 77
2, 141972, Control_c, 0, 64, 127
2, 142018, Control_c, 0, 64, 0
2, 142126, Control_c, 0, 64, 127
2, 142133, Note_on_c, 0, 28, 0
2, 142133, Note_on_c, 0, 40, 0
2, 142139, Note_on_c, 0, 40, 67
2, 142143, Note_on_c, 0, 28, 66
2, 142348, Note_on_c, 0, 28, 0
2, 142348, Note_on_c, 0, 40, 0
2, 142355, Note_on_c, 0, 28, 74
2, 142356, Note_on_c, 0, 52, 0
2, 142360, Note_on_c, 0, 40, 68
2, 142366, Note_on_c, 0, 52, 78
2, 142484, Note_on_c, 0, 54, 80
2, 142487, Note_on_c, 0, 42, 82
2, 142490, Note_on_c, 0, 30, 76
2, 142545, Note_on_c, 0, 28, 0
2, 142546, Note_on_c, 0, 52, 0
2, 142548, Note_on_c, 0, 54, 0
2, 142548, Note_on_c, 0, 42, 0
2, 142550, Control_c, 0, 64, 0
2, 142551, Note_on_c, 0, 30, 0
2, 142563, Note_on_c, 0, 40, 0
2, 142604, Note_on_c, 0, 55, 97
2, 142605, Note_on_c, 0, 31, 93
2, 142608, Note_on_c, 0, 43, 91
2, 142642, Note_on_c, 0, 55, 0
2, 142702, Note_on_c, 0, 43, 0
2, 142738, Note_on_c, 0, 50, 80
2, 142739, Note_on_c, 0, 55, 85
2, 142763, Note_on_c, 0, 31, 0
2, 142770, Note_on_c, 0, 55, 0
2, 142801, Note_on_c, 0, 50, 0
2, 142989, Note_on_c, 0, 31, 81
2, 142991, Note_on_c, 0, 43, 79
2, 143018, Note_on_c, 0, 31, 0
2, 143040, Note_on_c, 0, 43, 0
2, 143220, Note_on_c, 0, 31, 80
2, 143222, Note_on_c, 0, 43, 80
2, 143223, Note_on_c, 0, 38, 68
2, 143232, Note_on_c, 0, 38, 0
2, 143285, Note_on_c, 0, 43, 0
2, 143293, Note_on_c, 0, 31, 0
2, 143337, Note_on_c, 0, 55, 90
2, 143339, Note_on_c, 0, 50, 90
2, 143341, Note_on_c, 0, 31, 89
2, 143477, Control_c, 0, 64, 127
2, 143577, Note_on_c, 0, 55, 0
2, 143583, Note_on_c, 0, 57, 86
2, 143583, Note_on_c, 0, 33, 82
2, 143584, Note_on_c, 0, 45, 83
2, 143587, Note_on_c, 0, 55, 79
2, 143600, Note_on_c, 0, 31, 0
2, 143601, Control_c, 0, 64, 0
2, 143738, Control_c, 0, 64, 127
2, 143836, Note_on_c, 0, 47, 85
2, 143836, Note_on_c, 0, 59, 88
2, 143840, Note_on_c, 0, 35, 82
2, 144063, Note_on_c, 0, 60, 96
2, 144067, Note_on_c, 0, 48, 100
2, 144069, Note_on_c, 0, 59, 0
2, 144069, Note_on_c, 0, 36, 95
2, 144073, Note_on_c, 0, 52, 89
2, 144077, Note_on_c, 0, 59, 82
2, 144082, Note_on_c, 0, 35, 0
2, 144083, Note_on_c, 0, 47, 0
2, 144084, Note_on_c, 0, 50, 0
2, 144092, Note_on_c, 0, 33, 0
2, 144099, Note_on_c, 0, 57, 0
2, 144102, Control_c, 0, 64, 0
2, 144107, Note_on_c, 0, 45, 0
2, 144107, Note_on_c, 0, 55, 0
2, 144161, Note_on_c, 0, 59, 0
2, 144176, Control_c, 0, 64, 127
2, 144192, Note_on_c, 0, 52, 0
2, 144192, Note_on_c, 0, 60, 0
2, 144195, Note_on_c, 0, 60, 88
2, 144199, Note_on_c, 0, 52, 82
2, 144222, Control_c, 0, 64, 0
2, 144235, Note_on_c, 0, 60, 0
2, 144241, Note_on_c, 0, 52, 0
2, 144253, Note_on_c, 0, 36, 0
2, 144253, Note_on_c, 0, 48, 0
2, 144438, Note_on_c, 0, 48, 82
2, 144439, Note_on_c, 0, 36, 82
2, 144472, Note_on_c, 0, 36, 0
2, 144473, Note_on_c, 0, 48, 0
2, 144691, Note_on_c, 0, 48, 88
2, 144693, Note_on_c, 0, 36, 81
2, 144733, Note_on_c, 0, 48, 0
2, 144734, Note_on_c, 0, 36, 0
2, 144813, Note_on_c, 0, 60, 92
2, 144816, Note_on_c, 0, 52, 87
2, 144818, Note_on_c, 0, 48, 89
2, 144818, Note_on_c, 0, 36, 86
2, 144875, Control_c, 0, 64, 127
2, 145059, Note_on_c, 0, 36, 0
2, 145059, Note_on_c, 0, 48, 0
2, 145064, Note_on_c, 0, 48, 68
2, 145064, Note_on_c, 0, 36, 68
2, 145308, Note_on_c, 0, 47, 85
2, 145309, Note_on_c, 0, 35, 81
2, 145310, Control_c, 0, 64, 0
2, 145315, Note_on_c, 0, 59, 88
2, 145328, Control_c, 0, 64, 127
2, 145428, Note_on_c, 0, 36, 0
2, 145428, Note_on_c, 0, 48, 0
2, 145428, Note_on_c, 0, 60, 0
2, 145433, Note_on_c, 0, 60, 91
2, 145438, Note_on_c, 0, 48, 87
2, 145438, Note_on_c, 0, 36, 88
2, 145489, Note_on_c, 0, 52, 0
2, 145494, Note_on_c, 0, 47, 0
2, 145494, Note_on_c, 0, 48, 0
2, 145494, Note_on_c, 0, 36, 0
2, 145495, Note_on_c, 0, 35, 0
2, 145495, Note_on_c, 0, 60, 0
2, 145496, Note_on_c, 0, 59, 0
2, 145499, Control_c, 0, 64, 0
2, 145554, Note_on_c, 0, 69, 85
2, 145554, Note_on_c, 0, 57, 97
2, 145555, Note_on_c, 0, 45, 95
2, 145555, Note_on_c, 0, 33, 93
2, 145559, Note_on_c, 0, 69, 0
2, 145612, Control_c, 0, 64, 127
2, 145626, Control_c, 0, 64, 0
2, 145635, Control_c, 0, 64, 127
2, 145674, Note_on_c, 0, 57, 0
2, 145678, Note_on_c, 0, 57, 77
2, 145679, Note_on_c, 0, 52, 84
2, 145790, Note_on_c, 0, 52, 0
2, 145793, Note_on_c, 0, 57, 0
2, 145794, Control_c, 0, 64, 0
2, 145797, Note_on_c, 0, 45, 0
2, 145804, Note_on_c, 0, 33, 0
2, 145930, Note_on_c, 0, 45, 83
2, 145930, Note_on_c, 0, 33, 79
2, 145959, Note_on_c, 0, 45, 0
2, 145962, Note_on_c, 0, 33, 0
2, 146162, Note_on_c, 0, 33, 79
2, 146162, Note_on_c, 0, 45, 77
2, 146162, Note_on_c, 0, 64, 65
2, 146192, Note_on_c, 0, 33, 0
2, 146193, Note_on_c, 0, 45, 0
2, 146242, Note_on_c, 0, 64, 0
2, 146299, Note_on_c, 0, 47, 93
2, 146300, Note_on_c, 0, 35, 84
2, 146380, Control_c, 0, 64, 127
2, 146549, Note_on_c, 0, 35, 0
2, 146549, Note_on_c, 0, 47, 0
2, 146550, Note_on_c, 0, 59, 90
2, 146559, Note_on_c, 0, 35, 71
2, 146560, Note_on_c, 0, 47, 71
2, 146560, Note_on_c, 0, 54, 65
2, 146657, Note_on_c, 0, 35, 0
2, 146657, Note_on_c, 0, 47, 0
2, 146664, Note_on_c, 0, 59, 0
2, 146666, Note_on_c, 0, 47, 80
2, 146668, Note_on_c, 0, 35, 73
2, 146669, Note_on_c, 0, 59, 72
2, 146790, Note_on_c, 0, 31, 83
2, 146793, Note_on_c, 0, 43, 82
2, 146910, Note_on_c, 0, 42, 79
2, 146912, Note_on_c, 0, 30, 83
2, 146940, Control_c, 0, 64, 0
2, 146947, Note_on_c, 0, 54, 0
2, 146947, Note_on_c, 0, 43, 0
2, 146948, Note_on_c, 0, 31, 0
2, 146948, Note_on_c, 0, 47, 0
2, 146950, Note_on_c, 0, 59, 0
2, 146951, Note_on_c, 0, 42, 0
2, 146952, Note_on_c, 0, 30, 0
2, 146964, Note_on_c, 0, 35, 0
2, 147014, Note_on_c, 0, 71, 99
2, 147020, Note_on_c, 0, 59, 99
2, 147022, Note_on_c, 0, 67, 94
2, 147023, Note_on_c, 0, 40, 97
2, 147025, Note_on_c, 0, 28, 94
2, 147025, Control_c, 0, 64, 127
2, 147141, Note_on_c, 0, 59, 0
2, 147141, Note_on_c, 0, 67, 0
2, 147145, Note_on_c, 0, 59, 93
2, 147149, Note_on_c, 0, 67, 82
2, 147182, Control_c, 0, 64, 0
2, 147190, Note_on_c, 0, 28, 0
2, 147195, Note_on_c, 0, 40, 0
2, 147198, Note_on_c, 0, 67, 0
2, 147199, Note_on_c, 0, 71, 0
2, 147199, Note_on_c, 0, 59, 0
2, 147274, Note_on_c, 0, 66, 84
2, 147308, Note_on_c, 0, 66, 0
2, 147390, Note_on_c, 0, 67, 84
2, 147391, Note_on_c, 0, 40, 85
2, 147394, Note_on_c, 0, 28, 85
2, 147423, Note_on_c, 0, 67, 0
2, 147515, Note_on_c, 0, 66, 75
2, 147540, Note_on_c, 0, 28, 0
2, 147548, Note_on_c, 0, 40, 0
2, 147553, Note_on_c, 0, 66, 0
2, 147628, Note_on_c, 0, 62, 82
2, 147635, Note_on_c, 0, 40, 78
2, 147636, Note_on_c, 0, 28, 77
2, 147660, Note_on_c, 0, 62, 0
2, 147667, Note_on_c, 0, 40, 0
2, 147686, Note_on_c, 0, 28, 0
2, 147747, Note_on_c, 0, 71, 102
2, 147751, Note_on_c, 0, 59, 95
2, 147752, Note_on_c, 0, 40, 89
2, 147753, Note_on_c, 0, 28, 92
2, 147793, Control_c, 0, 64, 127
2, 147883, Note_on_c, 0, 62, 76
2, 148001, Note_on_c, 0, 40, 0
2, 148004, Note_on_c, 0, 66, 80
2, 148008, Note_on_c, 0, 28, 0
2, 148012, Note_on_c, 0, 40, 78
2, 148014, Note_on_c, 0, 28, 78
2, 148106, Note_on_c, 0, 67, 84
2, 148247, Note_on_c, 0, 40, 0
2, 148253, Note_on_c, 0, 69, 89
2, 148254, Note_on_c, 0, 28, 0
2, 148257, Note_on_c, 0, 57, 85
2, 148257, Note_on_c, 0, 40, 87
2, 148258, Note_on_c, 0, 28, 87
2, 148346, Note_on_c, 0, 71, 0
2, 148353, Note_on_c, 0, 71, 95
2, 148354, Note_on_c, 0, 59, 0
2, 148354, Note_on_c, 0, 62, 0
2, 148358, Note_on_c, 0, 59, 93
2, 148364, Note_on_c, 0, 62, 63
2, 148368, Note_on_c, 0, 30, 78
2, 148418, Note_on_c, 0, 28, 0
2, 148419, Note_on_c, 0, 62, 0
2, 148419, Note_on_c, 0, 69, 0
2, 148419, Note_on_c, 0, 57, 0
2, 148419, Note_on_c, 0, 67, 0
2, 148419, Note_on_c, 0, 66, 0
2, 148419, Note_on_c, 0, 59, 0
2, 148419, Note_on_c, 0, 71, 0
2, 148420, Control_c, 0, 64, 0
2, 148439, Note_on_c, 0, 30, 0
2, 148439, Note_on_c, 0, 40, 0
2, 148477, Note_on_c, 0, 31, 94
2, 148478, Note_on_c, 0, 74, 104
2, 148478, Note_on_c, 0, 62, 96
2, 148479, Note_on_c, 0, 43, 99
2, 148481, Note_on_c, 0, 65, 84
2, 148481, Note_on_c, 0, 71, 83
2, 148492, Note_on_c, 0, 65, 0
2, 148508, Control_c, 0, 64, 127
2, 148592, Note_on_c, 0, 31, 0
2, 148592, Note_on_c, 0, 62, 0
2, 148592, Note_on_c, 0, 71, 0
2, 148599, Note_on_c, 0, 71, 71
2, 148599, Note_on_c, 0, 31, 81
2, 148602, Note_on_c, 0, 62, 77
2, 148604, Note_on_c, 0, 67, 74
2, 148609, Note_on_c, 0, 59, 69
2, 148615, Note_on_c, 0, 59, 0
2, 148638, Control_c, 0, 64, 0
2, 148642, Note_on_c, 0, 43, 0
2, 148643, Note_on_c, 0, 31, 0
2, 148654, Note_on_c, 0, 74, 0
2, 148677, Note_on_c, 0, 67, 0
2, 148677, Note_on_c, 0, 71, 0
2, 148684, Note_on_c, 0, 62, 0
2, 148747, Note_on_c, 0, 66, 79
2, 148775, Note_on_c, 0, 66, 0
2, 148858, Note_on_c, 0, 67, 86
2, 148865, Note_on_c, 0, 31, 81
2, 148869, Note_on_c, 0, 62, 63
2, 148870, Note_on_c, 0, 43, 81
2, 148891, Note_on_c, 0, 67, 0
2, 148922, Note_on_c, 0, 43, 0
2, 148930, Note_on_c, 0, 31, 0
2, 148985, Note_on_c, 0, 66, 80
2, 148992, Note_on_c, 0, 62, 0
2, 149028, Note_on_c, 0, 66, 0
2, 149100, Note_on_c, 0, 62, 81
2, 149102, Note_on_c, 0, 65, 67
2, 149104, Note_on_c, 0, 31, 85
2, 149108, Note_on_c, 0, 43, 85
2, 149110, Note_on_c, 0, 59, 69
2, 149114, Note_on_c, 0, 59, 0
2, 149129, Note_on_c, 0, 62, 0
2, 149130, Note_on_c, 0, 43, 0
2, 149153, Note_on_c, 0, 65, 0
2, 149160, Note_on_c, 0, 31, 0
2, 149221, Note_on_c, 0, 67, 99
2, 149224, Note_on_c, 0, 55, 96
2, 149228, Note_on_c, 0, 62, 87
2, 149229, Note_on_c, 0, 31, 91
2, 149230, Note_on_c, 0, 43, 91
2, 149231, Note_on_c, 0, 59, 87
2, 149237, Note_on_c, 0, 59, 0
2, 149237, Note_on_c, 0, 62, 0
2, 149268, Control_c, 0, 64, 127
2, 149347, Note_on_c, 0, 62, 84
2, 149440, Control_c, 0, 64, 0
2, 149458, Note_on_c, 0, 43, 0
2, 149460, Note_on_c, 0, 55, 0
2, 149466, Note_on_c, 0, 45, 88
2, 149467, Note_on_c, 0, 33, 91
2, 149470, Note_on_c, 0, 55, 85
2, 149472, Note_on_c, 0, 61, 71
2, 149475, Control_c, 0, 64, 127
2, 149483, Note_on_c, 0, 61, 0
2, 149575, Note_on_c, 0, 67, 0
2, 149580, Note_on_c, 0, 67, 70
2, 149591, Note_on_c, 0, 62, 0
2, 149594, Note_on_c, 0, 62, 77
2, 149712, Note_on_c, 0, 47, 91
2, 149717, Note_on_c, 0, 35, 81
2, 149719, Note_on_c, 0, 66, 81
2, 149767, Note_on_c, 0, 31, 0
2, 149829, Note_on_c, 0, 67, 0
2, 149835, Note_on_c, 0, 67, 75
2, 149877, Control_c, 0, 64, 0
2, 149879, Note_on_c, 0, 67, 0
2, 149879, Note_on_c, 0, 62, 0
2, 149879, Note_on_c, 0, 35, 0
2, 149879, Note_on_c, 0, 55, 0
2, 149879, Note_on_c, 0, 47, 0
2, 149882, Note_on_c, 0, 33, 0
2, 149890, Note_on_c, 0, 45, 0
2, 149898, Note_on_c, 0, 66, 0
2, 149948, Note_on_c, 0, 48, 100
2, 149952, Control_c, 0, 64, 127
2, 149952, Note_on_c, 0, 36, 97
2, 149952, Note_on_c, 0, 76, 101
2, 149953, Note_on_c, 0, 64, 94
2, 149955, Note_on_c, 0, 67, 91
2, 150074, Note_on_c, 0, 36, 0
2, 150074, Note_on_c, 0, 48, 0
2, 150080, Note_on_c, 0, 48, 89
2, 150080, Note_on_c, 0, 36, 91
2, 150149, Note_on_c, 0, 48, 0
2, 150150, Note_on_c, 0, 36, 0
2, 150151, Note_on_c, 0, 64, 0
2, 150151, Note_on_c, 0, 76, 0
2, 150151, Note_on_c, 0, 67, 0
2, 150155, Control_c, 0, 64, 0
2, 150217, Note_on_c, 0, 66, 75
2, 150252, Note_on_c, 0, 66, 0
2, 150332, Note_on_c, 0, 67, 79
2, 150334, Note_on_c, 0, 48, 86
2, 150334, Note_on_c, 0, 36, 87
2, 150336, Note_on_c, 0, 64, 69
2, 150367, Note_on_c, 0, 67, 0
2, 150369, Note_on_c, 0, 36, 0
2, 150369, Note_on_c, 0, 48, 0
2, 150389, Note_on_c, 0, 64, 0
2, 150454, Note_on_c, 0, 66, 78
2, 150501, Note_on_c, 0, 66, 0
2, 150577, Note_on_c, 0, 48, 89
2, 150577, Note_on_c, 0, 36, 93
2, 150579, Note_on_c, 0, 62, 77
2, 150617, Note_on_c, 0, 48, 0
2, 150619, Note_on_c, 0, 36, 0
2, 150653, Note_on_c, 0, 62, 0
2, 150701, Note_on_c, 0, 48, 89
2, 150701, Note_on_c, 0, 36, 87
2, 150712, Control_c, 0, 64, 127
2, 150821, Note_on_c, 0, 62, 78
2, 150942, Note_on_c, 0, 36, 0
2, 150942, Note_on_c, 0, 48, 0
2, 150946, Note_on_c, 0, 74, 94
2, 150947, Note_on_c, 0, 66, 94
2, 150949, Note_on_c, 0, 48, 96
2, 150952, Note_on_c, 0, 36, 94
2, 150973, Control_c, 0, 64, 0
2, 151057, Control_c, 0, 64, 127
2, 151173, Note_on_c, 0, 36, 0
2, 151173, Note_on_c, 0, 48, 0
2, 151182, Note_on_c, 0, 36, 86
2, 151182, Note_on_c, 0, 48, 89
2, 151187, Note_on_c, 0, 76, 96
2, 151188, Note_on_c, 0, 64, 87
2, 151303, Note_on_c, 0, 66, 0
2, 151307, Note_on_c, 0, 47, 88
2, 151307, Note_on_c, 0, 78, 95
2, 151309, Note_on_c, 0, 66, 89
2, 151311, Note_on_c, 0, 35, 82
2, 151380, Control_c, 0, 64, 0
2, 151381, Note_on_c, 0, 74, 0
2, 151381, Note_on_c, 0, 48, 0
2, 151381, Note_on_c, 0, 36, 0
2, 151382, Note_on_c, 0, 66, 0
2, 151382, Note_on_c, 0, 62, 0
2, 151382, Note_on_c, 0, 76, 0
2, 151382, Note_on_c, 0, 47, 0
2, 151383, Note_on_c, 0, 35, 0
2, 151383, Note_on_c, 0, 78, 0
2, 151395, Note_on_c, 0, 64, 0
2, 151415, Note_on_c, 0, 79, 104
2, 151421, Note_on_c, 0, 67, 101
2, 151422, Note_on_c, 0, 76, 93
2, 151422, Note_on_c, 0, 33, 100
2, 151423, Note_on_c, 0, 45, 98
2, 151424, Note_on_c, 0, 69, 89
2, 151458, Note_on_c, 0, 33, 0
2, 151458, Note_on_c, 0, 45, 0
2, 151495, Control_c, 0, 64, 127
2, 151575, Note_on_c, 0, 64, 84
2, 151685, Note_on_c, 0, 66, 84
2, 151689, Note_on_c, 0, 52, 67
2, 151795, Note_on_c, 0, 69, 0
2, 151800, Note_on_c, 0, 60, 89
2, 151802, Note_on_c, 0, 57, 86
2, 151804, Note_on_c, 0, 69, 89
2, 151938, Note_on_c, 0, 78, 97
2, 152025, Note_on_c, 0, 79, 0
2, 152033, Note_on_c, 0, 79, 93
2, 152096, Note_on_c, 0, 57, 0
2, 152096, Note_on_c, 0, 60, 0
2, 152097, Note_on_c, 0, 69, 0
2, 152097, Note_on_c, 0, 66, 0
2, 152097, Note_on_c, 0, 64, 0
2, 152098, Note_on_c, 0, 78, 0
2, 152098, Note_on_c, 0, 79, 0
2, 152098, Control_c, 0, 64, 0
2, 152110, Note_on_c, 0, 67, 0
2, 152110, Note_on_c, 0, 76, 0
2, 152125, Note_on_c, 0, 52, 0
2, 152154, Note_on_c, 0, 81, 105
2, 152159, Note_on_c, 0, 69, 98
2, 152160, Note_on_c, 0, 50, 101
2, 152160, Note_on_c, 0, 74, 101
2, 152161, Note_on_c, 0, 38, 99
2, 152186, Control_c, 0, 64, 127
2, 152403, Note_on_c, 0, 62, 88
2, 152405, Note_on_c, 0, 57, 75
2, 152405, Note_on_c, 0, 54, 82
2, 152532, Note_on_c, 0, 69, 0
2, 152537, Note_on_c, 0, 69, 84
2, 152539, Note_on_c, 0, 66, 81
2, 152647, Note_on_c, 0, 74, 0
2, 152658, Note_on_c, 0, 74, 74
2, 152755, Note_on_c, 0, 81, 0
2, 152761, Note_on_c, 0, 81, 95
2, 152909, Control_c, 0, 64, 0
2, 152912, Note_on_c, 0, 62, 0
2, 152912, Note_on_c, 0, 54, 0
2, 152913, Note_on_c, 0, 81, 0
2, 152914, Note_on_c, 0, 50, 0
2, 152914, Note_on_c, 0, 69, 0
2, 152915, Note_on_c, 0, 57, 0
2, 152916, Note_on_c, 0, 66, 0
2, 152918, Note_on_c, 0, 83, 110
2, 152920, Note_on_c, 0, 71, 99
2, 152920, Note_on_c, 0, 38, 0
2, 152921, Note_on_c, 0, 40, 97
2, 152921, Note_on_c, 0, 28, 98
2, 152924, Note_on_c, 0, 74, 0
2, 152924, Note_on_c, 0, 79, 87
2, 152925, Note_on_c, 0, 76, 99
2, 152974, Note_on_c, 0, 28, 0
2, 153039, Control_c, 0, 64, 127
2, 153319, Note_on_c, 0, 59, 64
2, 153391, Note_on_c, 0, 64, 69
2, 153441, Note_on_c, 0, 66, 58
2, 153507, Note_on_c, 0, 71, 0
2, 153518, Note_on_c, 0, 71, 60
2, 153584, Note_on_c, 0, 76, 0
2, 153594, Note_on_c, 0, 76, 73
2, 153642, Note_on_c, 0, 78, 69
2, 153684, Note_on_c, 0, 59, 0
2, 153690, Note_on_c, 0, 81, 87
2, 153695, Note_on_c, 0, 59, 56
2, 153738, Note_on_c, 0, 83, 0
2, 153742, Note_on_c, 0, 83, 56
2, 153792, Note_on_c, 0, 76, 0
2, 153800, Note_on_c, 0, 76, 73
2, 153853, Note_on_c, 0, 71, 0
2, 153863, Note_on_c, 0, 71, 67
2, 153945, Note_on_c, 0, 66, 0
2, 153951, Note_on_c, 0, 66, 64
2, 153999, Note_on_c, 0, 64, 0
2, 154004, Note_on_c, 0, 64, 70
2, 154076, Note_on_c, 0, 59, 0
2, 154084, Note_on_c, 0, 59, 68
2, 154137, Note_on_c, 0, 64, 0
2, 154143, Note_on_c, 0, 64, 66
2, 154183, Note_on_c, 0, 66, 0
2, 154189, Note_on_c, 0, 66, 72
2, 154252, Note_on_c, 0, 71, 0
2, 154262, Note_on_c, 0, 71, 68
2, 154321, Note_on_c, 0, 76, 0
2, 154331, Note_on_c, 0, 76, 76
2, 154383, Note_on_c, 0, 78, 0
2, 154388, Note_on_c, 0, 78, 64
2, 154421, Note_on_c, 0, 81, 0
2, 154429, Note_on_c, 0, 81, 89
2, 154490, Note_on_c, 0, 78, 0
2, 154499, Note_on_c, 0, 78, 75
2, 154529, Note_on_c, 0, 76, 0
2, 154538, Note_on_c, 0, 76, 73
2, 154590, Note_on_c, 0, 71, 0
2, 154601, Note_on_c, 0, 71, 57
2, 154690, Note_on_c, 0, 66, 0
2, 154698, Note_on_c, 0, 66, 63
2, 154728, Note_on_c, 0, 64, 0
2, 154735, Note_on_c, 0, 64, 66
2, 154805, Note_on_c, 0, 59, 0
2, 154811, Note_on_c, 0, 59, 67
2, 154859, Note_on_c, 0, 64, 0
2, 154864, Note_on_c, 0, 64, 62
2, 154890, Note_on_c, 0, 66, 0
2, 154901, Note_on_c, 0, 66, 70
2, 154967, Note_on_c, 0, 71, 0
2, 154978, Note_on_c, 0, 71, 66
2, 155036, Note_on_c, 0, 76, 0
2, 155043, Note_on_c, 0, 76, 74
2, 155089, Note_on_c, 0, 78, 0
2, 155101, Note_on_c, 0, 78, 66
2, 155151, Note_on_c, 0, 81, 0
2, 155156, Note_on_c, 0, 81, 90
2, 155212, Note_on_c, 0, 78, 0
2, 155223, Note_on_c, 0, 78, 74
2, 155251, Note_on_c, 0, 76, 0
2, 155257, Note_on_c, 0, 76, 77
2, 155304, Note_on_c, 0, 71, 0
2, 155313, Note_on_c, 0, 71, 68
2, 155397, Note_on_c, 0, 66, 0
2, 155401, Note_on_c, 0, 66, 71
2, 155443, Note_on_c, 0, 64, 0
2, 155448, Note_on_c, 0, 64, 65
2, 155520, Note_on_c, 0, 59, 0
2, 155520, Note_on_c, 0, 79, 0
2, 155520, Note_on_c, 0, 83, 0
2, 155531, Note_on_c, 0, 59, 66
2, 155589, Note_on_c, 0, 64, 0
2, 155594, Note_on_c, 0, 64, 59
2, 155627, Note_on_c, 0, 66, 0
2, 155633, Note_on_c, 0, 66, 73
2, 155696, Note_on_c, 0, 71, 0
2, 155706, Note_on_c, 0, 71, 66
2, 155765, Note_on_c, 0, 76, 0
2, 155777, Note_on_c, 0, 76, 76
2, 155827, Note_on_c, 0, 78, 0
2, 155831, Note_on_c, 0, 78, 60
2, 155873, Note_on_c, 0, 81, 0
2, 155878, Note_on_c, 0, 81, 93
2, 155881, Note_on_c, 0, 57, 89
2, 155888, Note_on_c, 0, 52, 82
2, 155892, Note_on_c, 0, 54, 86
2, 155927, Note_on_c, 0, 78, 0
2, 155937, Note_on_c, 0, 78, 74
2, 155973, Note_on_c, 0, 76, 0
2, 155978, Note_on_c, 0, 76, 75
2, 156026, Note_on_c, 0, 71, 0
2, 156037, Note_on_c, 0, 71, 60
2, 156119, Note_on_c, 0, 66, 0
2, 156125, Note_on_c, 0, 66, 73
2, 156172, Note_on_c, 0, 64, 0
2, 156178, Note_on_c, 0, 64, 71
2, 156257, Note_on_c, 0, 59, 0
2, 156268, Note_on_c, 0, 59, 61
2, 156318, Note_on_c, 0, 64, 0
2, 156329, Note_on_c, 0, 64, 66
2, 156364, Note_on_c, 0, 66, 0
2, 156372, Note_on_c, 0, 66, 70
2, 156441, Note_on_c, 0, 71, 0
2, 156446, Note_on_c, 0, 71, 66
2, 156526, Note_on_c, 0, 76, 0
2, 156535, Note_on_c, 0, 76, 69
2, 156572, Note_on_c, 0, 78, 0
2, 156576, Note_on_c, 0, 78, 70
2, 156618, Note_on_c, 0, 81, 0
2, 156628, Note_on_c, 0, 81, 88
2, 156687, Note_on_c, 0, 78, 0
2, 156692, Note_on_c, 0, 78, 75
2, 156725, Note_on_c, 0, 76, 0
2, 156731, Note_on_c, 0, 76, 76
2, 156779, Note_on_c, 0, 71, 0
2, 156785, Note_on_c, 0, 71, 71
2, 156879, Note_on_c, 0, 66, 0
2, 156890, Note_on_c, 0, 66, 69
2, 156925, Note_on_c, 0, 64, 0
2, 156931, Note_on_c, 0, 64, 73
2, 157025, Note_on_c, 0, 59, 0
2, 157029, Note_on_c, 0, 59, 74
2, 157071, Note_on_c, 0, 64, 0
2, 157082, Note_on_c, 0, 64, 66
2, 157109, Note_on_c, 0, 66, 0
2, 157116, Note_on_c, 0, 66, 80
2, 157194, Note_on_c, 0, 71, 0
2, 157200, Note_on_c, 0, 71, 68
2, 157263, Note_on_c, 0, 76, 0
2, 157268, Note_on_c, 0, 76, 79
2, 157317, Note_on_c, 0, 78, 0
2, 157324, Note_on_c, 0, 78, 71
2, 157355, Note_on_c, 0, 81, 0
2, 157363, Note_on_c, 0, 81, 91
2, 157424, Note_on_c, 0, 78, 0
2, 157431, Note_on_c, 0, 78, 76
2, 157463, Note_on_c, 0, 76, 0
2, 157470, Note_on_c, 0, 76, 80
2, 157516, Note_on_c, 0, 71, 0
2, 157524, Note_on_c, 0, 71, 77
2, 157532, Note_on_c, 0, 40, 0
2, 157608, Note_on_c, 0, 66, 0
2, 157618, Note_on_c, 0, 66, 80
2, 157662, Note_on_c, 0, 64, 0
2, 157667, Note_on_c, 0, 64, 74
2, 157724, Note_on_c, 0, 59, 0
2, 157733, Note_on_c, 0, 59, 77
2, 157800, Note_on_c, 0, 64, 0
2, 157810, Note_on_c, 0, 64, 75
2, 157847, Note_on_c, 0, 66, 0
2, 157851, Note_on_c, 0, 66, 86
2, 157916, Note_on_c, 0, 71, 0
2, 157922, Note_on_c, 0, 71, 78
2, 157977, Note_on_c, 0, 76, 0
2, 157983, Note_on_c, 0, 76, 85
2, 158023, Note_on_c, 0, 78, 0
2, 158035, Note_on_c, 0, 78, 76
2, 158077, Note_on_c, 0, 57, 0
2, 158077, Note_on_c, 0, 81, 0
2, 158082, Note_on_c, 0, 81, 102
2, 158088, Note_on_c, 0, 57, 85
2, 158123, Note_on_c, 0, 54, 0
2, 158129, Note_on_c, 0, 54, 69
2, 158154, Note_on_c, 0, 78, 0
2, 158164, Note_on_c, 0, 78, 78
2, 158215, Note_on_c, 0, 52, 0
2, 158215, Note_on_c, 0, 71, 0
2, 158225, Note_on_c, 0, 71, 77
2, 158226, Note_on_c, 0, 52, 83
2, 158269, Note_on_c, 0, 76, 0
2, 158280, Note_on_c, 0, 76, 68
2, 158315, Note_on_c, 0, 78, 0
2, 158320, Note_on_c, 0, 47, 69
2, 158320, Note_on_c, 0, 78, 85
2, 158396, Note_on_c, 0, 31, 75
2, 158397, Note_on_c, 0, 43, 72
2, 158405, Note_on_c, 0, 83, 82
2, 158407, Note_on_c, 0, 31, 0
2, 158459, Note_on_c, 0, 88, 85
2, 158469, Note_on_c, 0, 43, 0
2, 158473, Note_on_c, 0, 43, 82
2, 158479, Note_on_c, 0, 40, 82
2, 158499, Note_on_c, 0, 90, 90
2, 158691, Note_on_c, 0, 90, 0
2, 158694, Note_on_c, 0, 102, 105
2, 158695, Note_on_c, 0, 90, 94
2, 158714, Note_on_c, 0, 43, 0
2, 158716, Note_on_c, 0, 64, 0
2, 158717, Control_c, 0, 64, 0
2, 158718, Note_on_c, 0, 47, 0
2, 158718, Note_on_c, 0, 59, 0
2, 158718, Note_on_c, 0, 81, 0
2, 158718, Note_on_c, 0, 71, 0
2, 158718, Note_on_c, 0, 78, 0
2, 158718, Note_on_c, 0, 83, 0
2, 158718, Note_on_c, 0, 52, 0
2, 158718, Note_on_c, 0, 40, 0
2, 158719, Note_on_c, 0, 66, 0
2, 158730, Note_on_c, 0, 57, 0
2, 158730, Note_on_c, 0, 76, 0
2, 158730, Note_on_c, 0, 88, 0
2, 158745, Note_on_c, 0, 54, 0
2, 159475, Note_on_c, 0, 102, 0
2, 159552, Note_on_c, 0, 90, 0
2, 163200, Control_c, 0, 64, 127
2, 163415, Control_c, 0, 64, 0
2, 163416, End_track
0, 0, End_of_file
