0, 0, Header, 1, 2, 384
1, 0, Start_track
1, 0, Tempo, 500000
1, 0, Time_signature, 4, 2, 24, 8
1, 1, End_track
2, 0, Start_track
2, 1221, Control_c, 0, 64, 127
2, 1998, Note_on_c, 0, 32, 26
2, 2001, Note_on_c, 0, 65, 33
2, 2042, Note_on_c, 0, 32, 0
2, 2533, Note_on_c, 0, 60, 38
2, 2880, Note_on_c, 0, 53, 36
2, 3048, Note_on_c, 0, 65, 0
2, 3053, Note_on_c, 0, 65, 47
2, 3089, Control_c, 0, 64, 0
2, 3133, Control_c, 0, 64, 127
2, 3225, Note_on_c, 0, 60, 0
2, 3225, Note_on_c, 0, 65, 0
2, 3230, Note_on_c, 0, 60, 34
2, 3235, Note_on_c, 0, 65, 25
2, 3392, Note_on_c, 0, 67, 46
2, 3740, Note_on_c, 0, 60, 0
2, 3751, Note_on_c, 0, 60, 38
2, 4116, Note_on_c, 0, 65, 0
2, 4120, Note_on_c, 0, 65, 32
2, 4646, Note_on_c, 0, 60, 0
2, 4655, Note_on_c, 0, 60, 40
2, 4992, Note_on_c, 0, 53, 0
2, 4996, Note_on_c, 0, 53, 37
2, 5168, Note_on_c, 0, 65, 0
2, 5174, Note_on_c, 0, 65, 42
2, 5337, Note_on_c, 0, 60, 0
2, 5348, Note_on_c, 0, 60, 41
2, 5506, Note_on_c, 0, 67, 0
2, 5511, Note_on_c, 0, 67, 54
2, 5852, Note_on_c, 0, 60, 0
2, 5859, Note_on_c, 0, 60, 40
2, 6044, Note_on_c, 0, 72, 51
2, 6114, Note_on_c, 0, 77, 50
2, 6175, Note_on_c, 0, 79, 47
2, 6213, Note_on_c, 0, 65, 0
2, 6221, Note_on_c, 0, 65, 40
2, 6222, Note_on_c, 0, 84, 61
2, 6435, Note_on_c, 0, 77, 0
2, 6440, Note_on_c, 0, 77, 26
2, 6727, Note_on_c, 0, 60, 0
2, 6736, Note_on_c, 0, 60, 37
2, 7057, Note_on_c, 0, 53, 0
2, 7064, Note_on_c, 0, 53, 34
2, 7242, Note_on_c, 0, 65, 0
2, 7248, Note_on_c, 0, 65, 45
2, 7403, Note_on_c, 0, 60, 0
2, 7412, Note_on_c, 0, 60, 33
2, 7572, Note_on_c, 0, 67, 0
2, 7580, Note_on_c, 0, 67, 52
2, 7918, Note_on_c, 0, 60, 0
2, 7927, Note_on_c, 0, 60, 40
2, 8087, Note_on_c, 0, 72, 0
2, 8097, Note_on_c, 0, 72, 56
2, 8163, Note_on_c, 0, 77, 0
2, 8173, Note_on_c, 0, 77, 50
2, 8217, Note_on_c, 0, 79, 0
2, 8224, Note_on_c, 0, 79, 62
2, 8257, Control_c, 0, 64, 0
2, 8286, Note_on_c, 0, 65, 0
2, 8286, Note_on_c, 0, 84, 0
2, 8295, Note_on_c, 0, 65, 41
2, 8297, Note_on_c, 0, 84, 56
2, 8440, Note_on_c, 0, 67, 0
2, 8440, Control_c, 0, 64, 127
2, 8501, Note_on_c, 0, 72, 0
2, 8511, Note_on_c, 0, 72, 29
2, 8785, Note_on_c, 0, 60, 0
2, 8795, Note_on_c, 0, 60, 40
2, 8828, Control_c, 0, 64, 0
2, 8839, Control_c, 0, 64, 127
2, 9131, Note_on_c, 0, 53, 0
2, 9137, Note_on_c, 0, 53, 38
2, 9292, Note_on_c, 0, 65, 0
2, 9303, Note_on_c, 0, 65, 42
2, 9469, Note_on_c, 0, 60, 0
2, 9475, Note_on_c, 0, 60, 38
2, 9600, Note_on_c, 0, 77, 0
2, 9648, Note_on_c, 0, 67, 43
2, 9960, Note_on_c, 0, 60, 0
2, 9971, Note_on_c, 0, 60, 44
2, 10298, Note_on_c, 0, 53, 0
2, 10306, Note_on_c, 0, 72, 0
2, 10309, Note_on_c, 0, 53, 52
2, 10313, Note_on_c, 0, 81, 55
2, 10317, Note_on_c, 0, 72, 50
2, 10329, Control_c, 0, 64, 0
2, 10330, Note_on_c, 0, 67, 0
2, 10368, Note_on_c, 0, 79, 0
2, 10375, Control_c, 0, 64, 127
2, 10467, Note_on_c, 0, 84, 0
2, 10476, Note_on_c, 0, 84, 54
2, 10483, Note_on_c, 0, 60, 0
2, 10489, Note_on_c, 0, 60, 35
2, 10521, Note_on_c, 0, 76, 29
2, 10621, Note_on_c, 0, 65, 0
2, 10631, Note_on_c, 0, 65, 56
2, 10659, Note_on_c, 0, 81, 0
2, 10664, Note_on_c, 0, 81, 56
2, 10795, Note_on_c, 0, 67, 54
2, 10805, Note_on_c, 0, 76, 0
2, 10805, Note_on_c, 0, 84, 0
2, 10810, Note_on_c, 0, 76, 50
2, 10811, Note_on_c, 0, 84, 55
2, 10967, Note_on_c, 0, 72, 0
2, 10967, Note_on_c, 0, 81, 0
2, 10972, Note_on_c, 0, 81, 65
2, 10978, Note_on_c, 0, 72, 52
2, 11112, Note_on_c, 0, 60, 0
2, 11120, Note_on_c, 0, 76, 0
2, 11120, Note_on_c, 0, 84, 0
2, 11123, Note_on_c, 0, 60, 57
2, 11124, Note_on_c, 0, 84, 61
2, 11126, Note_on_c, 0, 76, 58
2, 11281, Note_on_c, 0, 67, 0
2, 11289, Note_on_c, 0, 72, 0
2, 11289, Note_on_c, 0, 81, 0
2, 11290, Note_on_c, 0, 67, 64
2, 11293, Note_on_c, 0, 81, 74
2, 11298, Note_on_c, 0, 72, 58
2, 11443, Note_on_c, 0, 76, 0
2, 11443, Note_on_c, 0, 84, 0
2, 11449, Note_on_c, 0, 69, 58
2, 11450, Note_on_c, 0, 84, 60
2, 11450, Note_on_c, 0, 76, 56
2, 11604, Note_on_c, 0, 65, 0
2, 11612, Note_on_c, 0, 81, 0
2, 11612, Note_on_c, 0, 65, 51
2, 11619, Note_on_c, 0, 72, 0
2, 11623, Note_on_c, 0, 81, 64
2, 11625, Note_on_c, 0, 72, 57
2, 11765, Note_on_c, 0, 60, 0
2, 11773, Note_on_c, 0, 76, 0
2, 11773, Note_on_c, 0, 84, 0
2, 11774, Note_on_c, 0, 60, 50
2, 11777, Note_on_c, 0, 84, 60
2, 11778, Note_on_c, 0, 76, 57
2, 11927, Note_on_c, 0, 81, 0
2, 11934, Note_on_c, 0, 53, 0
2, 11938, Note_on_c, 0, 81, 80
2, 11940, Note_on_c, 0, 53, 58
2, 11942, Note_on_c, 0, 72, 0
2, 11947, Note_on_c, 0, 72, 58
2, 12096, Note_on_c, 0, 76, 0
2, 12096, Note_on_c, 0, 84, 0
2, 12103, Note_on_c, 0, 76, 57
2, 12104, Note_on_c, 0, 84, 59
2, 12111, Note_on_c, 0, 60, 0
2, 12117, Note_on_c, 0, 60, 45
2, 12257, Note_on_c, 0, 53, 0
2, 12263, Note_on_c, 0, 53, 58
2, 12268, Note_on_c, 0, 82, 67
2, 12273, Note_on_c, 0, 74, 60
2, 12302, Note_on_c, 0, 67, 0
2, 12304, Note_on_c, 0, 69, 0
2, 12307, Control_c, 0, 64, 0
2, 12307, Note_on_c, 0, 72, 0
2, 12307, Note_on_c, 0, 60, 0
2, 12308, Note_on_c, 0, 84, 0
2, 12326, Note_on_c, 0, 76, 0
2, 12326, Note_on_c, 0, 81, 0
2, 12410, Control_c, 0, 64, 127
2, 12415, Note_on_c, 0, 84, 60
2, 12435, Note_on_c, 0, 58, 49
2, 12438, Note_on_c, 0, 76, 53
2, 12587, Note_on_c, 0, 65, 0
2, 12587, Note_on_c, 0, 82, 0
2, 12595, Note_on_c, 0, 74, 0
2, 12597, Note_on_c, 0, 82, 67
2, 12598, Note_on_c, 0, 65, 53
2, 12599, Note_on_c, 0, 74, 57
2, 12741, Note_on_c, 0, 84, 0
2, 12748, Note_on_c, 0, 76, 0
2, 12752, Note_on_c, 0, 84, 56
2, 12754, Note_on_c, 0, 69, 50
2, 12758, Note_on_c, 0, 76, 45
2, 12917, Note_on_c, 0, 82, 0
2, 12919, Note_on_c, 0, 67, 56
2, 12925, Note_on_c, 0, 82, 59
2, 12925, Note_on_c, 0, 74, 0
2, 12929, Note_on_c, 0, 74, 53
2, 13079, Note_on_c, 0, 76, 0
2, 13079, Note_on_c, 0, 84, 0
2, 13088, Note_on_c, 0, 84, 52
2, 13089, Note_on_c, 0, 76, 49
2, 13248, Note_on_c, 0, 74, 0
2, 13248, Note_on_c, 0, 82, 0
2, 13252, Note_on_c, 0, 82, 59
2, 13252, Note_on_c, 0, 74, 48
2, 13409, Note_on_c, 0, 76, 0
2, 13409, Note_on_c, 0, 84, 0
2, 13418, Note_on_c, 0, 76, 48
2, 13419, Note_on_c, 0, 84, 46
2, 13578, Note_on_c, 0, 74, 0
2, 13578, Note_on_c, 0, 82, 0
2, 13582, Note_on_c, 0, 82, 54
2, 13589, Note_on_c, 0, 74, 51
2, 13731, Note_on_c, 0, 76, 0
2, 13731, Note_on_c, 0, 84, 0
2, 13741, Note_on_c, 0, 76, 45
2, 13743, Note_on_c, 0, 84, 44
2, 13900, Note_on_c, 0, 82, 0
2, 13907, Note_on_c, 0, 82, 55
2, 13939, Note_on_c, 0, 74, 0
2, 13944, Note_on_c, 0, 74, 41
2, 14238, Note_on_c, 0, 53, 0
2, 14242, Note_on_c, 0, 69, 0
2, 14243, Control_c, 0, 64, 0
2, 14243, Note_on_c, 0, 58, 0
2, 14243, Note_on_c, 0, 82, 0
2, 14243, Note_on_c, 0, 65, 0
2, 14243, Note_on_c, 0, 67, 0
2, 14244, Note_on_c, 0, 74, 0
2, 14248, Note_on_c, 0, 53, 50
2, 14249, Note_on_c, 0, 81, 54
2, 14255, Note_on_c, 0, 72, 48
2, 14269, Note_on_c, 0, 76, 0
2, 14269, Note_on_c, 0, 84, 0
2, 14384, Control_c, 0, 64, 127
2, 14417, Note_on_c, 0, 84, 55
2, 14423, Note_on_c, 0, 60, 43
2, 14426, Note_on_c, 0, 76, 46
2, 14576, Note_on_c, 0, 81, 0
2, 14585, Note_on_c, 0, 81, 60
2, 14592, Note_on_c, 0, 72, 0
2, 14594, Note_on_c, 0, 48, 37
2, 14597, Note_on_c, 0, 65, 48
2, 14597, Note_on_c, 0, 77, 36
2, 14599, Note_on_c, 0, 72, 48
2, 14599, Note_on_c, 0, 48, 0
2, 14737, Note_on_c, 0, 76, 0
2, 14737, Note_on_c, 0, 84, 0
2, 14745, Note_on_c, 0, 67, 55
2, 14748, Note_on_c, 0, 76, 47
2, 14749, Note_on_c, 0, 84, 58
2, 14899, Note_on_c, 0, 81, 0
2, 14906, Note_on_c, 0, 72, 0
2, 14910, Note_on_c, 0, 81, 67
2, 14912, Note_on_c, 0, 72, 55
2, 15060, Note_on_c, 0, 60, 0
2, 15060, Note_on_c, 0, 76, 0
2, 15060, Note_on_c, 0, 84, 0
2, 15064, Note_on_c, 0, 60, 57
2, 15065, Note_on_c, 0, 84, 62
2, 15069, Note_on_c, 0, 76, 56
2, 15070, Note_on_c, 0, 48, 48
2, 15214, Note_on_c, 0, 67, 0
2, 15214, Note_on_c, 0, 72, 0
2, 15214, Note_on_c, 0, 81, 0
2, 15219, Note_on_c, 0, 81, 65
2, 15221, Note_on_c, 0, 67, 63
2, 15225, Note_on_c, 0, 72, 61
2, 15375, Note_on_c, 0, 48, 0
2, 15375, Note_on_c, 0, 76, 0
2, 15383, Note_on_c, 0, 76, 59
2, 15385, Note_on_c, 0, 69, 70
2, 15390, Note_on_c, 0, 84, 0
2, 15396, Note_on_c, 0, 84, 59
2, 15536, Note_on_c, 0, 65, 0
2, 15542, Note_on_c, 0, 65, 59
2, 15544, Note_on_c, 0, 72, 0
2, 15544, Note_on_c, 0, 77, 0
2, 15544, Note_on_c, 0, 81, 0
2, 15549, Note_on_c, 0, 48, 50
2, 15553, Note_on_c, 0, 81, 66
2, 15554, Note_on_c, 0, 72, 58
2, 15554, Note_on_c, 0, 77, 50
2, 15697, Note_on_c, 0, 60, 0
2, 15705, Note_on_c, 0, 76, 0
2, 15705, Note_on_c, 0, 84, 0
2, 15708, Note_on_c, 0, 60, 52
2, 15709, Note_on_c, 0, 84, 64
2, 15711, Note_on_c, 0, 76, 54
2, 15851, Note_on_c, 0, 53, 0
2, 15859, Note_on_c, 0, 81, 0
2, 15862, Note_on_c, 0, 53, 70
2, 15866, Note_on_c, 0, 72, 0
2, 15870, Note_on_c, 0, 81, 70
2, 15875, Note_on_c, 0, 72, 67
2, 16020, Note_on_c, 0, 60, 0
2, 16020, Note_on_c, 0, 76, 0
2, 16020, Note_on_c, 0, 84, 0
2, 16027, Note_on_c, 0, 60, 57
2, 16029, Note_on_c, 0, 84, 64
2, 16029, Note_on_c, 0, 76, 59
2, 16189, Note_on_c, 0, 48, 0
2, 16189, Note_on_c, 0, 53, 0
2, 16194, Note_on_c, 0, 53, 62
2, 16200, Note_on_c, 0, 82, 68
2, 16208, Note_on_c, 0, 74, 55
2, 16215, Note_on_c, 0, 69, 0
2, 16219, Note_on_c, 0, 60, 0
2, 16221, Note_on_c, 0, 81, 0
2, 16224, Note_on_c, 0, 84, 0
2, 16224, Note_on_c, 0, 72, 0
2, 16226, Control_c, 0, 64, 0
2, 16227, Note_on_c, 0, 67, 0
2, 16235, Note_on_c, 0, 76, 0
2, 16243, Note_on_c, 0, 77, 0
2, 16273, Note_on_c, 0, 65, 0
2, 16312, Control_c, 0, 64, 127
2, 16354, Note_on_c, 0, 84, 59
2, 16361, Note_on_c, 0, 58, 53
2, 16363, Note_on_c, 0, 76, 51
2, 16512, Note_on_c, 0, 82, 0
2, 16519, Note_on_c, 0, 74, 0
2, 16520, Note_on_c, 0, 82, 69
2, 16520, Note_on_c, 0, 65, 52
2, 16525, Note_on_c, 0, 74, 56
2, 16669, Note_on_c, 0, 69, 54
2, 16673, Note_on_c, 0, 84, 0
2, 16680, Note_on_c, 0, 76, 0
2, 16680, Note_on_c, 0, 84, 55
2, 16686, Note_on_c, 0, 76, 44
2, 16830, Note_on_c, 0, 57, 42
2, 16842, Note_on_c, 0, 82, 0
2, 16849, Note_on_c, 0, 67, 45
2, 16849, Note_on_c, 0, 74, 0
2, 16852, Note_on_c, 0, 82, 58
2, 16854, Note_on_c, 0, 74, 56
2, 17011, Note_on_c, 0, 84, 0
2, 17020, Note_on_c, 0, 84, 54
2, 17041, Note_on_c, 0, 57, 0
2, 17049, Note_on_c, 0, 57, 29
2, 17049, Note_on_c, 0, 76, 0
2, 17055, Note_on_c, 0, 76, 32
2, 17203, Note_on_c, 0, 82, 0
2, 17211, Note_on_c, 0, 82, 43
2, 17226, Note_on_c, 0, 74, 0
2, 17233, Note_on_c, 0, 74, 31
2, 17280, Note_on_c, 0, 58, 0
2, 17414, Note_on_c, 0, 70, 23
2, 17425, Note_on_c, 0, 70, 0
2, 17883, Note_on_c, 0, 48, 71
2, 17887, Note_on_c, 0, 60, 45
2, 18209, Note_on_c, 0, 53, 0
2, 18215, Note_on_c, 0, 53, 74
2, 18217, Note_on_c, 0, 41, 65
2, 18222, Control_c, 0, 64, 0
2, 18223, Note_on_c, 0, 81, 65
2, 18228, Note_on_c, 0, 72, 64
2, 18316, Control_c, 0, 64, 127
2, 18393, Note_on_c, 0, 84, 0
2, 18399, Note_on_c, 0, 84, 54
2, 18424, Note_on_c, 0, 76, 0
2, 18432, Note_on_c, 0, 76, 48
2, 18577, Note_on_c, 0, 60, 0
2, 18577, Note_on_c, 0, 65, 0
2, 18577, Note_on_c, 0, 72, 0
2, 18577, Note_on_c, 0, 81, 0
2, 18582, Note_on_c, 0, 65, 53
2, 18584, Note_on_c, 0, 60, 50
2, 18585, Note_on_c, 0, 48, 0
2, 18587, Note_on_c, 0, 81, 56
2, 18589, Note_on_c, 0, 72, 55
2, 18591, Note_on_c, 0, 48, 51
2, 18746, Note_on_c, 0, 76, 0
2, 18746, Note_on_c, 0, 84, 0
2, 18753, Note_on_c, 0, 76, 45
2, 18756, Note_on_c, 0, 84, 52
2, 18897, Note_on_c, 0, 55, 73
2, 18915, Note_on_c, 0, 81, 0
2, 18920, Note_on_c, 0, 81, 65
2, 18923, Note_on_c, 0, 48, 0
2, 18923, Note_on_c, 0, 72, 0
2, 18929, Note_on_c, 0, 72, 53
2, 18930, Note_on_c, 0, 48, 43
2, 19084, Note_on_c, 0, 76, 0
2, 19084, Note_on_c, 0, 84, 0
2, 19092, Note_on_c, 0, 76, 43
2, 19092, Note_on_c, 0, 84, 57
2, 19238, Note_on_c, 0, 57, 0
2, 19242, Note_on_c, 0, 57, 65
2, 19246, Note_on_c, 0, 81, 0
2, 19250, Note_on_c, 0, 81, 61
2, 19261, Note_on_c, 0, 72, 0
2, 19266, Note_on_c, 0, 72, 49
2, 19407, Note_on_c, 0, 84, 0
2, 19416, Note_on_c, 0, 84, 60
2, 19422, Note_on_c, 0, 76, 0
2, 19430, Note_on_c, 0, 76, 49
2, 19553, Note_on_c, 0, 60, 0
2, 19563, Note_on_c, 0, 60, 61
2, 19568, Note_on_c, 0, 65, 0
2, 19577, Note_on_c, 0, 65, 48
2, 19584, Note_on_c, 0, 81, 0
2, 19589, Note_on_c, 0, 81, 58
2, 19729, Note_on_c, 0, 84, 0
2, 19737, Note_on_c, 0, 76, 0
2, 19738, Note_on_c, 0, 84, 57
2, 19744, Note_on_c, 0, 76, 44
2, 19875, Note_on_c, 0, 60, 0
2, 19883, Note_on_c, 0, 48, 0
2, 19883, Note_on_c, 0, 57, 0
2, 19883, Note_on_c, 0, 81, 0
2, 19884, Note_on_c, 0, 60, 71
2, 19891, Note_on_c, 0, 48, 52
2, 19892, Note_on_c, 0, 57, 55
2, 19894, Note_on_c, 0, 81, 69
2, 19898, Note_on_c, 0, 72, 0
2, 19903, Note_on_c, 0, 72, 57
2, 20052, Note_on_c, 0, 84, 0
2, 20056, Note_on_c, 0, 84, 56
2, 20220, Note_on_c, 0, 52, 70
2, 20229, Note_on_c, 0, 82, 0
2, 20230, Control_c, 0, 64, 0
2, 20236, Note_on_c, 0, 74, 0
2, 20237, Note_on_c, 0, 76, 0
2, 20238, Note_on_c, 0, 69, 0
2, 20238, Note_on_c, 0, 65, 0
2, 20239, Note_on_c, 0, 57, 0
2, 20239, Note_on_c, 0, 55, 0
2, 20239, Note_on_c, 0, 82, 69
2, 20239, Note_on_c, 0, 48, 0
2, 20239, Note_on_c, 0, 72, 0
2, 20239, Note_on_c, 0, 84, 0
2, 20239, Note_on_c, 0, 60, 0
2, 20239, Note_on_c, 0, 81, 0
2, 20240, Note_on_c, 0, 41, 0
2, 20244, Note_on_c, 0, 67, 0
2, 20246, Note_on_c, 0, 74, 63
2, 20259, Note_on_c, 0, 53, 0
2, 20313, Control_c, 0, 64, 127
2, 20414, Note_on_c, 0, 84, 57
2, 20415, Note_on_c, 0, 76, 49
2, 20574, Note_on_c, 0, 74, 0
2, 20574, Note_on_c, 0, 82, 0
2, 20580, Note_on_c, 0, 53, 48
2, 20581, Note_on_c, 0, 58, 52
2, 20582, Note_on_c, 0, 82, 57
2, 20584, Note_on_c, 0, 65, 51
2, 20584, Note_on_c, 0, 74, 54
2, 20720, Note_on_c, 0, 76, 0
2, 20728, Note_on_c, 0, 84, 0
2, 20730, Note_on_c, 0, 76, 45
2, 20732, Note_on_c, 0, 84, 46
2, 20889, Note_on_c, 0, 82, 0
2, 20893, Note_on_c, 0, 82, 57
2, 20912, Note_on_c, 0, 74, 0
2, 20918, Note_on_c, 0, 74, 46
2, 21058, Note_on_c, 0, 84, 0
2, 21066, Note_on_c, 0, 76, 0
2, 21068, Note_on_c, 0, 84, 53
2, 21070, Note_on_c, 0, 76, 42
2, 21212, Note_on_c, 0, 53, 0
2, 21218, Note_on_c, 0, 53, 54
2, 21235, Note_on_c, 0, 82, 0
2, 21242, Note_on_c, 0, 74, 0
2, 21244, Note_on_c, 0, 82, 59
2, 21250, Note_on_c, 0, 74, 46
2, 21388, Note_on_c, 0, 84, 0
2, 21396, Note_on_c, 0, 84, 49
2, 21419, Note_on_c, 0, 76, 0
2, 21428, Note_on_c, 0, 76, 40
2, 21542, Note_on_c, 0, 65, 0
2, 21547, Note_on_c, 0, 65, 40
2, 21557, Note_on_c, 0, 53, 0
2, 21567, Note_on_c, 0, 53, 34
2, 21568, Note_on_c, 0, 46, 42
2, 21573, Note_on_c, 0, 46, 0
2, 21573, Note_on_c, 0, 58, 0
2, 21580, Note_on_c, 0, 58, 45
2, 21892, Control_c, 0, 64, 0
2, 21905, Note_on_c, 0, 60, 75
2, 21908, Note_on_c, 0, 72, 68
2, 21957, Control_c, 0, 64, 127
2, 22207, Note_on_c, 0, 82, 0
2, 22208, Note_on_c, 0, 52, 0
2, 22209, Note_on_c, 0, 58, 0
2, 22209, Note_on_c, 0, 74, 0
2, 22211, Note_on_c, 0, 76, 0
2, 22213, Note_on_c, 0, 84, 0
2, 22213, Control_c, 0, 64, 0
2, 22213, Note_on_c, 0, 72, 0
2, 22214, Note_on_c, 0, 53, 0
2, 22214, Note_on_c, 0, 65, 0
2, 22241, Note_on_c, 0, 60, 0
2, 22243, Note_on_c, 0, 41, 61
2, 22246, Note_on_c, 0, 72, 66
2, 22247, Note_on_c, 0, 60, 72
2, 22248, Note_on_c, 0, 46, 52
2, 22256, Note_on_c, 0, 46, 0
2, 22295, Control_c, 0, 64, 127
2, 22452, Note_on_c, 0, 84, 57
2, 22456, Note_on_c, 0, 72, 0
2, 22461, Note_on_c, 0, 76, 35
2, 22462, Note_on_c, 0, 72, 52
2, 22579, Note_on_c, 0, 60, 0
2, 22586, Note_on_c, 0, 72, 0
2, 22589, Note_on_c, 0, 60, 53
2, 22590, Note_on_c, 0, 65, 54
2, 22591, Note_on_c, 0, 53, 46
2, 22597, Note_on_c, 0, 72, 60
2, 22605, Note_on_c, 0, 81, 57
2, 22755, Note_on_c, 0, 84, 0
2, 22763, Note_on_c, 0, 76, 0
2, 22767, Note_on_c, 0, 84, 57
2, 22767, Note_on_c, 0, 76, 47
2, 22922, Note_on_c, 0, 58, 64
2, 22924, Note_on_c, 0, 81, 0
2, 22927, Note_on_c, 0, 46, 53
2, 22929, Note_on_c, 0, 81, 59
2, 22932, Note_on_c, 0, 72, 0
2, 22942, Note_on_c, 0, 72, 49
2, 23088, Note_on_c, 0, 57, 71
2, 23090, Note_on_c, 0, 45, 56
2, 23093, Note_on_c, 0, 84, 0
2, 23098, Note_on_c, 0, 84, 60
2, 23101, Note_on_c, 0, 76, 0
2, 23105, Note_on_c, 0, 76, 53
2, 23239, Note_on_c, 0, 53, 0
2, 23247, Note_on_c, 0, 41, 0
2, 23247, Note_on_c, 0, 81, 0
2, 23247, Note_on_c, 0, 53, 76
2, 23256, Note_on_c, 0, 41, 58
2, 23258, Note_on_c, 0, 81, 66
2, 23272, Note_on_c, 0, 77, 45
2, 23278, Note_on_c, 0, 77, 0
2, 23408, Note_on_c, 0, 84, 0
2, 23419, Note_on_c, 0, 84, 56
2, 23431, Note_on_c, 0, 76, 0
2, 23436, Note_on_c, 0, 76, 46
2, 23569, Note_on_c, 0, 60, 0
2, 23569, Note_on_c, 0, 65, 0
2, 23577, Note_on_c, 0, 57, 0
2, 23579, Note_on_c, 0, 65, 57
2, 23580, Note_on_c, 0, 60, 59
2, 23586, Note_on_c, 0, 57, 55
2, 23592, Note_on_c, 0, 81, 0
2, 23597, Note_on_c, 0, 81, 64
2, 23600, Note_on_c, 0, 77, 42
2, 23746, Note_on_c, 0, 72, 0
2, 23746, Note_on_c, 0, 76, 0
2, 23746, Note_on_c, 0, 84, 0
2, 23751, Note_on_c, 0, 72, 47
2, 23753, Note_on_c, 0, 84, 53
2, 23756, Note_on_c, 0, 76, 38
2, 23892, Note_on_c, 0, 53, 0
2, 23892, Note_on_c, 0, 57, 0
2, 23892, Note_on_c, 0, 81, 0
2, 23896, Note_on_c, 0, 57, 73
2, 23900, Note_on_c, 0, 53, 53
2, 23900, Note_on_c, 0, 81, 77
2, 23900, Note_on_c, 0, 72, 0
2, 23906, Note_on_c, 0, 72, 60
2, 24069, Note_on_c, 0, 76, 0
2, 24069, Note_on_c, 0, 84, 0
2, 24077, Note_on_c, 0, 84, 57
2, 24080, Note_on_c, 0, 76, 40
2, 24115, Note_on_c, 0, 45, 0
2, 24238, Note_on_c, 0, 41, 0
2, 24238, Note_on_c, 0, 53, 0
2, 24238, Note_on_c, 0, 57, 0
2, 24243, Note_on_c, 0, 41, 69
2, 24244, Note_on_c, 0, 57, 71
2, 24247, Note_on_c, 0, 74, 66
2, 24248, Note_on_c, 0, 53, 59
2, 24248, Note_on_c, 0, 82, 72
2, 24422, Note_on_c, 0, 84, 0
2, 24430, Note_on_c, 0, 76, 0
2, 24431, Note_on_c, 0, 84, 50
2, 24434, Note_on_c, 0, 76, 46
2, 24583, Note_on_c, 0, 65, 0
2, 24589, Note_on_c, 0, 65, 51
2, 24591, Note_on_c, 0, 58, 0
2, 24591, Note_on_c, 0, 74, 0
2, 24591, Note_on_c, 0, 82, 0
2, 24596, Note_on_c, 0, 58, 51
2, 24598, Note_on_c, 0, 82, 59
2, 24601, Note_on_c, 0, 74, 54
2, 24744, Note_on_c, 0, 84, 0
2, 24752, Note_on_c, 0, 76, 0
2, 24755, Note_on_c, 0, 84, 56
2, 24756, Note_on_c, 0, 76, 43
2, 24791, Note_on_c, 0, 74, 0
2, 24802, Note_on_c, 0, 74, 14
2, 24921, Note_on_c, 0, 82, 0
2, 24930, Note_on_c, 0, 82, 61
2, 24936, Note_on_c, 0, 74, 0
2, 24944, Note_on_c, 0, 74, 44
2, 24960, Note_on_c, 0, 46, 0
2, 25090, Note_on_c, 0, 76, 0
2, 25090, Note_on_c, 0, 84, 0
2, 25098, Note_on_c, 0, 84, 44
2, 25099, Note_on_c, 0, 76, 43
2, 25240, Note_on_c, 0, 55, 53
2, 25259, Note_on_c, 0, 82, 0
2, 25265, Note_on_c, 0, 82, 58
2, 25267, Note_on_c, 0, 74, 0
2, 25277, Note_on_c, 0, 74, 37
2, 25420, Note_on_c, 0, 84, 0
2, 25425, Note_on_c, 0, 84, 48
2, 25605, Note_on_c, 0, 65, 0
2, 25614, Note_on_c, 0, 65, 38
2, 25615, Note_on_c, 0, 46, 39
2, 25620, Note_on_c, 0, 46, 0
2, 25635, Note_on_c, 0, 82, 0
2, 25642, Note_on_c, 0, 82, 48
2, 25666, Note_on_c, 0, 74, 0
2, 25676, Note_on_c, 0, 74, 30
2, 26287, Note_on_c, 0, 46, 51
2, 26294, Note_on_c, 0, 77, 0
2, 26295, Note_on_c, 0, 84, 0
2, 26295, Note_on_c, 0, 65, 0
2, 26295, Note_on_c, 0, 76, 0
2, 26297, Note_on_c, 0, 58, 0
2, 26297, Note_on_c, 0, 74, 0
2, 26298, Note_on_c, 0, 55, 0
2, 26301, Control_c, 0, 64, 0
2, 26304, Note_on_c, 0, 72, 0
2, 26311, Note_on_c, 0, 41, 0
2, 26311, Note_on_c, 0, 57, 0
2, 26311, Note_on_c, 0, 81, 0
2, 26311, Note_on_c, 0, 82, 0
2, 26316, Note_on_c, 0, 89, 62
2, 26319, Note_on_c, 0, 60, 0
2, 26327, Note_on_c, 0, 53, 0
2, 26343, Note_on_c, 0, 82, 30
2, 26411, Control_c, 0, 64, 127
2, 26473, Note_on_c, 0, 84, 50
2, 26493, Note_on_c, 0, 53, 45
2, 26645, Note_on_c, 0, 77, 45
2, 26673, Note_on_c, 0, 58, 32
2, 26787, Note_on_c, 0, 65, 53
2, 26795, Note_on_c, 0, 84, 0
2, 26805, Note_on_c, 0, 84, 57
2, 26972, Note_on_c, 0, 77, 0
2, 26980, Note_on_c, 0, 77, 48
2, 27118, Note_on_c, 0, 53, 0
2, 27124, Note_on_c, 0, 53, 56
2, 27179, Note_on_c, 0, 65, 0
2, 27183, Note_on_c, 0, 65, 29
2, 27294, Note_on_c, 0, 84, 0
2, 27302, Note_on_c, 0, 58, 0
2, 27302, Note_on_c, 0, 84, 64
2, 27303, Note_on_c, 0, 62, 69
2, 27306, Note_on_c, 0, 58, 54
2, 27332, Note_on_c, 0, 46, 0
2, 27471, Note_on_c, 0, 77, 0
2, 27478, Note_on_c, 0, 77, 54
2, 27642, Note_on_c, 0, 60, 71
2, 27644, Note_on_c, 0, 57, 64
2, 27647, Note_on_c, 0, 50, 47
2, 27651, Note_on_c, 0, 72, 63
2, 27655, Note_on_c, 0, 50, 0
2, 27801, Note_on_c, 0, 77, 0
2, 27812, Note_on_c, 0, 77, 49
2, 27947, Note_on_c, 0, 58, 0
2, 27957, Note_on_c, 0, 58, 63
2, 27958, Note_on_c, 0, 55, 75
2, 27970, Note_on_c, 0, 72, 0
2, 27976, Note_on_c, 0, 72, 57
2, 28124, Note_on_c, 0, 65, 0
2, 28129, Note_on_c, 0, 65, 59
2, 28285, Note_on_c, 0, 57, 0
2, 28292, Note_on_c, 0, 62, 0
2, 28292, Note_on_c, 0, 53, 0
2, 28292, Note_on_c, 0, 65, 0
2, 28292, Note_on_c, 0, 84, 0
2, 28293, Note_on_c, 0, 58, 0
2, 28293, Note_on_c, 0, 82, 0
2, 28293, Note_on_c, 0, 77, 0
2, 28293, Note_on_c, 0, 60, 0
2, 28294, Control_c, 0, 64, 0
2, 28295, Note_on_c, 0, 55, 0
2, 28296, Note_on_c, 0, 57, 72
2, 28297, Note_on_c, 0, 43, 65
2, 28308, Note_on_c, 0, 72, 0
2, 28316, Note_on_c, 0, 89, 0
2, 28320, Note_on_c, 0, 89, 76
2, 28369, Control_c, 0, 64, 127
2, 28481, Note_on_c, 0, 84, 55
2, 28488, Note_on_c, 0, 77, 43
2, 28489, Note_on_c, 0, 50, 60
2, 28492, Note_on_c, 0, 77, 0
2, 28643, Note_on_c, 0, 53, 56
2, 28650, Note_on_c, 0, 77, 47
2, 28800, Note_on_c, 0, 84, 0
2, 28804, Note_on_c, 0, 84, 51
2, 28961, Note_on_c, 0, 77, 0
2, 28967, Note_on_c, 0, 58, 68
2, 28972, Note_on_c, 0, 77, 50
2, 29137, Note_on_c, 0, 57, 0
2, 29141, Note_on_c, 0, 72, 50
2, 29146, Note_on_c, 0, 57, 57
2, 29291, Note_on_c, 0, 84, 0
2, 29297, Note_on_c, 0, 84, 51
2, 29302, Note_on_c, 0, 55, 51
2, 29475, Note_on_c, 0, 77, 0
2, 29484, Note_on_c, 0, 74, 36
2, 29485, Note_on_c, 0, 77, 44
2, 29629, Note_on_c, 0, 72, 0
2, 29634, Note_on_c, 0, 72, 46
2, 29775, Note_on_c, 0, 77, 0
2, 29780, Note_on_c, 0, 77, 43
2, 29959, Note_on_c, 0, 72, 0
2, 29964, Note_on_c, 0, 72, 45
2, 30147, Note_on_c, 0, 65, 37
2, 30283, Note_on_c, 0, 46, 55
2, 30291, Control_c, 0, 64, 0
2, 30293, Note_on_c, 0, 77, 0
2, 30294, Note_on_c, 0, 84, 0
2, 30294, Note_on_c, 0, 50, 0
2, 30294, Note_on_c, 0, 57, 0
2, 30295, Note_on_c, 0, 72, 0
2, 30296, Note_on_c, 0, 43, 0
2, 30305, Note_on_c, 0, 74, 0
2, 30312, Note_on_c, 0, 55, 0
2, 30312, Note_on_c, 0, 89, 0
2, 30318, Note_on_c, 0, 89, 68
2, 30382, Control_c, 0, 64, 127
2, 30443, Note_on_c, 0, 53, 0
2, 30454, Note_on_c, 0, 53, 45
2, 30489, Note_on_c, 0, 84, 44
2, 30604, Note_on_c, 0, 58, 0
2, 30610, Note_on_c, 0, 58, 41
2, 30651, Note_on_c, 0, 77, 44
2, 30781, Note_on_c, 0, 65, 0
2, 30787, Note_on_c, 0, 65, 56
2, 30789, Note_on_c, 0, 84, 0
2, 30799, Note_on_c, 0, 84, 62
2, 30958, Note_on_c, 0, 77, 0
2, 30969, Note_on_c, 0, 77, 40
2, 31111, Note_on_c, 0, 53, 0
2, 31111, Note_on_c, 0, 65, 0
2, 31116, Note_on_c, 0, 53, 55
2, 31121, Note_on_c, 0, 65, 36
2, 31288, Note_on_c, 0, 58, 0
2, 31288, Note_on_c, 0, 84, 0
2, 31290, Note_on_c, 0, 62, 68
2, 31296, Note_on_c, 0, 84, 66
2, 31298, Note_on_c, 0, 58, 59
2, 31464, Note_on_c, 0, 77, 0
2, 31475, Note_on_c, 0, 77, 51
2, 31624, Note_on_c, 0, 57, 68
2, 31624, Note_on_c, 0, 60, 72
2, 31630, Note_on_c, 0, 72, 64
2, 31802, Note_on_c, 0, 77, 0
2, 31812, Note_on_c, 0, 77, 60
2, 31941, Note_on_c, 0, 58, 0
2, 31951, Note_on_c, 0, 55, 75
2, 31952, Note_on_c, 0, 58, 67
2, 32117, Note_on_c, 0, 65, 0
2, 32121, Note_on_c, 0, 65, 58
2, 32279, Note_on_c, 0, 57, 0
2, 32287, Note_on_c, 0, 57, 66
2, 32292, Note_on_c, 0, 43, 56
2, 32297, Control_c, 0, 64, 0
2, 32300, Note_on_c, 0, 62, 0
2, 32301, Note_on_c, 0, 58, 0
2, 32303, Note_on_c, 0, 60, 0
2, 32303, Note_on_c, 0, 65, 0
2, 32304, Note_on_c, 0, 72, 0
2, 32305, Note_on_c, 0, 55, 0
2, 32317, Note_on_c, 0, 89, 0
2, 32323, Note_on_c, 0, 89, 64
2, 32325, Note_on_c, 0, 46, 0
2, 32325, Note_on_c, 0, 53, 0
2, 32340, Note_on_c, 0, 84, 0
2, 32378, Control_c, 0, 64, 127
2, 32409, Note_on_c, 0, 77, 0
2, 32467, Note_on_c, 0, 84, 55
2, 32474, Note_on_c, 0, 50, 59
2, 32624, Note_on_c, 0, 53, 59
2, 32652, Note_on_c, 0, 77, 44
2, 32778, Note_on_c, 0, 84, 0
2, 32787, Note_on_c, 0, 84, 56
2, 32954, Note_on_c, 0, 77, 0
2, 32960, Note_on_c, 0, 77, 52
2, 32961, Note_on_c, 0, 58, 54
2, 33116, Note_on_c, 0, 57, 0
2, 33120, Note_on_c, 0, 57, 51
2, 33122, Note_on_c, 0, 72, 48
2, 33292, Note_on_c, 0, 84, 0
2, 33298, Note_on_c, 0, 84, 49
2, 33307, Note_on_c, 0, 55, 46
2, 33484, Note_on_c, 0, 77, 0
2, 33490, Note_on_c, 0, 77, 35
2, 33684, Note_on_c, 0, 72, 0
2, 33690, Note_on_c, 0, 72, 45
2, 33891, Note_on_c, 0, 77, 0
2, 33898, Note_on_c, 0, 77, 44
2, 34106, Note_on_c, 0, 72, 0
2, 34114, Note_on_c, 0, 53, 0
2, 34118, Note_on_c, 0, 72, 40
2, 34119, Note_on_c, 0, 53, 23
2, 34390, Note_on_c, 0, 65, 30
2, 36387, Note_on_c, 0, 58, 0
2, 36393, Note_on_c, 0, 58, 36
2, 36480, Note_on_c, 0, 43, 0
2, 36480, Note_on_c, 0, 50, 0
2, 36480, Note_on_c, 0, 53, 0
2, 36480, Note_on_c, 0, 55, 0
2, 36480, Note_on_c, 0, 57, 0
2, 36480, Note_on_c, 0, 65, 0
2, 36480, Note_on_c, 0, 72, 0
2, 36480, Note_on_c, 0, 77, 0
2, 36480, Note_on_c, 0, 84, 0
2, 36480, Note_on_c, 0, 89, 0
2, 36690, Note_on_c, 0, 60, 36
2, 36872, Note_on_c, 0, 46, 25
2, 36873, Note_on_c, 0, 62, 36
2, 37015, Note_on_c, 0, 43, 33
2, 37016, Note_on_c, 0, 64, 50
2, 37153, Note_on_c, 0, 65, 50
2, 37257, Note_on_c, 0, 67, 55
2, 37375, Note_on_c, 0, 45, 36
2, 37377, Note_on_c, 0, 69, 57
2, 37469, Note_on_c, 0, 70, 71
2, 37470, Note_on_c, 0, 43, 0
2, 37475, Note_on_c, 0, 43, 42
2, 37553, Note_on_c, 0, 72, 60
2, 37650, Note_on_c, 0, 74, 55
2, 37754, Note_on_c, 0, 76, 65
2, 37885, Note_on_c, 0, 70, 0
2, 37889, Note_on_c, 0, 77, 51
2, 37895, Note_on_c, 0, 70, 39
2, 38046, Note_on_c, 0, 72, 0
2, 38046, Note_on_c, 0, 76, 0
2, 38050, Note_on_c, 0, 76, 43
2, 38053, Note_on_c, 0, 79, 47
2, 38057, Note_on_c, 0, 72, 38
2, 38260, Note_on_c, 0, 41, 42
2, 38297, Note_on_c, 0, 81, 48
2, 38300, Note_on_c, 0, 72, 0
2, 38304, Note_on_c, 0, 72, 45
2, 38331, Control_c, 0, 64, 0
2, 38358, Note_on_c, 0, 43, 0
2, 38358, Note_on_c, 0, 46, 0
2, 38358, Note_on_c, 0, 62, 0
2, 38359, Note_on_c, 0, 58, 0
2, 38359, Note_on_c, 0, 65, 0
2, 38359, Note_on_c, 0, 69, 0
2, 38359, Note_on_c, 0, 64, 0
2, 38359, Note_on_c, 0, 67, 0
2, 38359, Note_on_c, 0, 60, 0
2, 38360, Note_on_c, 0, 77, 0
2, 38360, Note_on_c, 0, 72, 0
2, 38360, Note_on_c, 0, 74, 0
2, 38360, Note_on_c, 0, 76, 0
2, 38360, Note_on_c, 0, 70, 0
2, 38361, Note_on_c, 0, 45, 0
2, 38362, Note_on_c, 0, 79, 0
2, 38501, Note_on_c, 0, 84, 45
2, 38502, Note_on_c, 0, 76, 37
2, 38502, Note_on_c, 0, 48, 46
2, 38507, Control_c, 0, 64, 127
2, 38668, Note_on_c, 0, 81, 0
2, 38678, Note_on_c, 0, 81, 61
2, 38695, Note_on_c, 0, 72, 36
2, 38696, Note_on_c, 0, 45, 36
2, 38707, Note_on_c, 0, 45, 0
2, 38830, Note_on_c, 0, 76, 0
2, 38837, Note_on_c, 0, 84, 0
2, 38841, Note_on_c, 0, 76, 46
2, 38841, Note_on_c, 0, 55, 59
2, 38845, Note_on_c, 0, 84, 49
2, 39006, Note_on_c, 0, 81, 0
2, 39014, Note_on_c, 0, 72, 0
2, 39018, Note_on_c, 0, 81, 56
2, 39018, Note_on_c, 0, 72, 48
2, 39156, Note_on_c, 0, 60, 55
2, 39175, Note_on_c, 0, 76, 0
2, 39175, Note_on_c, 0, 84, 0
2, 39179, Note_on_c, 0, 76, 49
2, 39185, Note_on_c, 0, 84, 47
2, 39329, Note_on_c, 0, 55, 0
2, 39329, Note_on_c, 0, 72, 0
2, 39329, Note_on_c, 0, 81, 0
2, 39333, Note_on_c, 0, 81, 67
2, 39334, Note_on_c, 0, 67, 62
2, 39334, Note_on_c, 0, 55, 55
2, 39336, Note_on_c, 0, 48, 0
2, 39338, Note_on_c, 0, 72, 59
2, 39341, Note_on_c, 0, 43, 41
2, 39342, Note_on_c, 0, 48, 44
2, 39490, Note_on_c, 0, 48, 0
2, 39490, Note_on_c, 0, 76, 0
2, 39490, Note_on_c, 0, 84, 0
2, 39499, Note_on_c, 0, 76, 54
2, 39501, Note_on_c, 0, 48, 45
2, 39501, Note_on_c, 0, 69, 68
2, 39501, Note_on_c, 0, 84, 58
2, 39658, Note_on_c, 0, 65, 58
2, 39659, Note_on_c, 0, 72, 0
2, 39659, Note_on_c, 0, 81, 0
2, 39664, Note_on_c, 0, 81, 60
2, 39664, Note_on_c, 0, 77, 47
2, 39666, Note_on_c, 0, 53, 46
2, 39668, Note_on_c, 0, 72, 56
2, 39813, Note_on_c, 0, 60, 0
2, 39813, Note_on_c, 0, 84, 0
2, 39820, Note_on_c, 0, 76, 0
2, 39822, Note_on_c, 0, 60, 52
2, 39824, Note_on_c, 0, 84, 57
2, 39824, Note_on_c, 0, 76, 54
2, 39974, Note_on_c, 0, 53, 0
2, 39974, Note_on_c, 0, 81, 0
2, 39976, Note_on_c, 0, 69, 0
2, 39982, Note_on_c, 0, 72, 0
2, 39982, Note_on_c, 0, 77, 0
2, 39984, Note_on_c, 0, 53, 56
2, 39985, Note_on_c, 0, 81, 64
2, 39989, Note_on_c, 0, 72, 56
2, 39989, Note_on_c, 0, 77, 47
2, 40143, Note_on_c, 0, 72, 0
2, 40143, Note_on_c, 0, 76, 0
2, 40143, Note_on_c, 0, 84, 0
2, 40150, Note_on_c, 0, 76, 50
2, 40152, Note_on_c, 0, 72, 50
2, 40154, Note_on_c, 0, 84, 48
2, 40189, Note_on_c, 0, 48, 0
2, 40193, Note_on_c, 0, 48, 32
2, 40312, Note_on_c, 0, 41, 0
2, 40319, Note_on_c, 0, 41, 55
2, 40324, Note_on_c, 0, 82, 64
2, 40328, Note_on_c, 0, 74, 60
2, 40370, Control_c, 0, 64, 0
2, 40381, Note_on_c, 0, 76, 0
2, 40382, Note_on_c, 0, 60, 0
2, 40382, Note_on_c, 0, 77, 0
2, 40382, Note_on_c, 0, 43, 0
2, 40383, Note_on_c, 0, 81, 0
2, 40383, Note_on_c, 0, 48, 0
2, 40384, Note_on_c, 0, 65, 0
2, 40384, Note_on_c, 0, 67, 0
2, 40384, Note_on_c, 0, 55, 0
2, 40384, Note_on_c, 0, 53, 0
2, 40384, Note_on_c, 0, 72, 0
2, 40396, Note_on_c, 0, 84, 0
2, 40483, Note_on_c, 0, 46, 53
2, 40485, Note_on_c, 0, 84, 49
2, 40485, Note_on_c, 0, 76, 54
2, 40496, Control_c, 0, 64, 127
2, 40650, Note_on_c, 0, 74, 0
2, 40654, Note_on_c, 0, 53, 45
2, 40657, Note_on_c, 0, 74, 55
2, 40657, Note_on_c, 0, 82, 0
2, 40663, Note_on_c, 0, 82, 56
2, 40819, Note_on_c, 0, 76, 0
2, 40826, Note_on_c, 0, 84, 0
2, 40829, Note_on_c, 0, 76, 51
2, 40831, Note_on_c, 0, 84, 53
2, 40833, Note_on_c, 0, 57, 52
2, 40843, Note_on_c, 0, 45, 42
2, 40857, Note_on_c, 0, 46, 0
2, 40868, Note_on_c, 0, 46, 35
2, 40988, Note_on_c, 0, 74, 0
2, 40990, Note_on_c, 0, 55, 52
2, 40995, Note_on_c, 0, 82, 0
2, 40997, Note_on_c, 0, 74, 52
2, 41000, Note_on_c, 0, 82, 51
2, 41149, Note_on_c, 0, 76, 0
2, 41160, Note_on_c, 0, 76, 42
2, 41164, Note_on_c, 0, 84, 0
2, 41170, Note_on_c, 0, 84, 43
2, 41172, Note_on_c, 0, 82, 0
2, 41183, Note_on_c, 0, 82, 38
2, 41322, Note_on_c, 0, 67, 54
2, 41326, Note_on_c, 0, 74, 0
2, 41326, Note_on_c, 0, 82, 0
2, 41330, Note_on_c, 0, 82, 50
2, 41337, Note_on_c, 0, 74, 50
2, 41487, Note_on_c, 0, 84, 0
2, 41495, Note_on_c, 0, 76, 0
2, 41498, Note_on_c, 0, 84, 50
2, 41506, Note_on_c, 0, 76, 42
2, 41664, Note_on_c, 0, 82, 0
2, 41668, Note_on_c, 0, 82, 56
2, 41671, Note_on_c, 0, 74, 0
2, 41676, Note_on_c, 0, 74, 44
2, 41679, Note_on_c, 0, 45, 0
2, 41832, Note_on_c, 0, 76, 0
2, 41832, Note_on_c, 0, 84, 0
2, 41837, Note_on_c, 0, 84, 43
2, 41844, Note_on_c, 0, 76, 37
2, 42001, Note_on_c, 0, 82, 0
2, 42011, Note_on_c, 0, 82, 46
2, 42040, Note_on_c, 0, 74, 0
2, 42050, Note_on_c, 0, 74, 43
2, 42209, Note_on_c, 0, 82, 0
2, 42216, Note_on_c, 0, 82, 33
2, 42216, Note_on_c, 0, 76, 0
2, 42220, Note_on_c, 0, 76, 26
2, 42347, Note_on_c, 0, 41, 0
2, 42358, Note_on_c, 0, 41, 49
2, 42379, Note_on_c, 0, 81, 45
2, 42399, Note_on_c, 0, 72, 46
2, 42419, Note_on_c, 0, 76, 0
2, 42420, Note_on_c, 0, 67, 0
2, 42420, Note_on_c, 0, 84, 0
2, 42421, Note_on_c, 0, 46, 0
2, 42421, Note_on_c, 0, 57, 0
2, 42421, Note_on_c, 0, 53, 0
2, 42421, Note_on_c, 0, 74, 0
2, 42422, Note_on_c, 0, 82, 0
2, 42423, Control_c, 0, 64, 0
2, 42432, Note_on_c, 0, 55, 0
2, 42478, Note_on_c, 0, 72, 0
2, 42524, Control_c, 0, 64, 127
2, 42541, Note_on_c, 0, 84, 56
2, 42543, Note_on_c, 0, 48, 47
2, 42598, Note_on_c, 0, 76, 36
2, 42708, Note_on_c, 0, 41, 0
2, 42708, Note_on_c, 0, 81, 0
2, 42711, Note_on_c, 0, 53, 49
2, 42712, Note_on_c, 0, 81, 49
2, 42713, Note_on_c, 0, 41, 45
2, 42719, Note_on_c, 0, 72, 46
2, 42862, Note_on_c, 0, 76, 0
2, 42865, Note_on_c, 0, 55, 59
2, 42873, Note_on_c, 0, 76, 54
2, 42900, Note_on_c, 0, 84, 0
2, 42905, Note_on_c, 0, 84, 48
2, 43031, Note_on_c, 0, 81, 0
2, 43038, Note_on_c, 0, 72, 0
2, 43042, Note_on_c, 0, 81, 50
2, 43046, Note_on_c, 0, 48, 0
2, 43049, Note_on_c, 0, 72, 46
2, 43050, Note_on_c, 0, 48, 39
2, 43192, Note_on_c, 0, 76, 0
2, 43192, Note_on_c, 0, 84, 0
2, 43195, Note_on_c, 0, 60, 50
2, 43200, Note_on_c, 0, 76, 51
2, 43200, Note_on_c, 0, 84, 52
2, 43353, Note_on_c, 0, 72, 0
2, 43353, Note_on_c, 0, 81, 0
2, 43359, Note_on_c, 0, 81, 66
2, 43364, Note_on_c, 0, 72, 58
2, 43371, Note_on_c, 0, 67, 59
2, 43522, Note_on_c, 0, 76, 0
2, 43526, Note_on_c, 0, 76, 54
2, 43530, Note_on_c, 0, 84, 0
2, 43534, Note_on_c, 0, 84, 63
2, 43540, Note_on_c, 0, 69, 75
2, 43683, Note_on_c, 0, 48, 0
2, 43683, Note_on_c, 0, 81, 0
2, 43691, Note_on_c, 0, 69, 0
2, 43694, Note_on_c, 0, 65, 58
2, 43694, Note_on_c, 0, 48, 51
2, 43694, Note_on_c, 0, 81, 66
2, 43702, Note_on_c, 0, 69, 60
2, 43829, Note_on_c, 0, 60, 0
2, 43829, Note_on_c, 0, 76, 0
2, 43837, Note_on_c, 0, 84, 0
2, 43837, Note_on_c, 0, 60, 59
2, 43839, Note_on_c, 0, 76, 63
2, 43841, Note_on_c, 0, 84, 59
2, 44006, Note_on_c, 0, 53, 0
2, 44006, Note_on_c, 0, 81, 0
2, 44011, Note_on_c, 0, 53, 62
2, 44014, Note_on_c, 0, 72, 0
2, 44016, Note_on_c, 0, 81, 65
2, 44024, Note_on_c, 0, 72, 53
2, 44175, Note_on_c, 0, 76, 0
2, 44175, Note_on_c, 0, 84, 0
2, 44180, Note_on_c, 0, 84, 58
2, 44180, Note_on_c, 0, 76, 51
2, 44328, Note_on_c, 0, 41, 0
2, 44333, Note_on_c, 0, 41, 60
2, 44348, Note_on_c, 0, 82, 65
2, 44351, Note_on_c, 0, 74, 61
2, 44382, Note_on_c, 0, 72, 0
2, 44386, Control_c, 0, 64, 0
2, 44390, Note_on_c, 0, 55, 0
2, 44390, Note_on_c, 0, 67, 0
2, 44390, Note_on_c, 0, 72, 47
2, 44392, Note_on_c, 0, 76, 0
2, 44393, Note_on_c, 0, 69, 0
2, 44394, Note_on_c, 0, 60, 0
2, 44394, Note_on_c, 0, 81, 0
2, 44394, Note_on_c, 0, 48, 0
2, 44394, Note_on_c, 0, 53, 0
2, 44398, Note_on_c, 0, 65, 0
2, 44398, Note_on_c, 0, 84, 0
2, 44402, Note_on_c, 0, 84, 48
2, 44421, Note_on_c, 0, 72, 0
2, 44505, Note_on_c, 0, 84, 0
2, 44513, Note_on_c, 0, 74, 0
2, 44514, Note_on_c, 0, 84, 58
2, 44515, Note_on_c, 0, 76, 50
2, 44520, Control_c, 0, 64, 127
2, 44524, Note_on_c, 0, 46, 52
2, 44666, Note_on_c, 0, 41, 0
2, 44674, Note_on_c, 0, 82, 0
2, 44677, Note_on_c, 0, 41, 49
2, 44678, Note_on_c, 0, 53, 50
2, 44679, Note_on_c, 0, 82, 65
2, 44679, Note_on_c, 0, 74, 57
2, 44835, Note_on_c, 0, 76, 0
2, 44843, Note_on_c, 0, 84, 0
2, 44845, Note_on_c, 0, 76, 49
2, 44847, Note_on_c, 0, 57, 53
2, 44848, Note_on_c, 0, 84, 50
2, 44985, Note_on_c, 0, 55, 59
2, 45012, Note_on_c, 0, 74, 0
2, 45012, Note_on_c, 0, 82, 0
2, 45016, Note_on_c, 0, 82, 47
2, 45019, Note_on_c, 0, 74, 44
2, 45189, Note_on_c, 0, 84, 0
2, 45194, Note_on_c, 0, 84, 48
2, 45196, Note_on_c, 0, 76, 0
2, 45201, Note_on_c, 0, 76, 43
2, 45381, Note_on_c, 0, 82, 0
2, 45389, Note_on_c, 0, 67, 38
2, 45390, Note_on_c, 0, 82, 56
2, 45396, Note_on_c, 0, 67, 0
2, 45404, Note_on_c, 0, 74, 0
2, 45410, Note_on_c, 0, 74, 41
2, 45696, Note_on_c, 0, 55, 0
2, 45701, Note_on_c, 0, 55, 26
2, 46118, Note_on_c, 0, 41, 0
2, 46122, Note_on_c, 0, 72, 51
2, 46122, Note_on_c, 0, 41, 34
2, 46456, Note_on_c, 0, 41, 0
2, 46461, Control_c, 0, 64, 0
2, 46464, Note_on_c, 0, 41, 48
2, 46465, Note_on_c, 0, 77, 62
2, 46466, Note_on_c, 0, 57, 0
2, 46467, Note_on_c, 0, 76, 0
2, 46468, Note_on_c, 0, 55, 0
2, 46468, Note_on_c, 0, 84, 0
2, 46468, Note_on_c, 0, 46, 0
2, 46468, Note_on_c, 0, 74, 0
2, 46468, Note_on_c, 0, 82, 0
2, 46469, Note_on_c, 0, 72, 0
2, 46483, Note_on_c, 0, 69, 47
2, 46617, Control_c, 0, 64, 127
2, 46636, Note_on_c, 0, 60, 49
2, 46665, Note_on_c, 0, 72, 38
2, 46717, Note_on_c, 0, 41, 0
2, 46817, Note_on_c, 0, 69, 0
2, 46821, Note_on_c, 0, 65, 39
2, 46822, Note_on_c, 0, 69, 43
2, 46963, Note_on_c, 0, 72, 0
2, 46969, Note_on_c, 0, 45, 34
2, 46972, Note_on_c, 0, 72, 48
2, 46973, Note_on_c, 0, 67, 43
2, 46978, Note_on_c, 0, 45, 0
2, 47126, Note_on_c, 0, 79, 80
2, 47132, Note_on_c, 0, 69, 0
2, 47136, Note_on_c, 0, 48, 41
2, 47136, Note_on_c, 0, 69, 57
2, 47201, Note_on_c, 0, 60, 0
2, 47224, Note_on_c, 0, 72, 0
2, 47282, Note_on_c, 0, 60, 57
2, 47288, Note_on_c, 0, 72, 57
2, 47439, Note_on_c, 0, 67, 0
2, 47445, Note_on_c, 0, 81, 82
2, 47449, Note_on_c, 0, 41, 47
2, 47450, Note_on_c, 0, 67, 66
2, 47616, Note_on_c, 0, 69, 0
2, 47621, Note_on_c, 0, 69, 49
2, 47631, Note_on_c, 0, 41, 0
2, 47631, Note_on_c, 0, 72, 0
2, 47635, Note_on_c, 0, 72, 50
2, 47636, Note_on_c, 0, 41, 37
2, 47777, Note_on_c, 0, 65, 0
2, 47777, Note_on_c, 0, 69, 0
2, 47785, Note_on_c, 0, 65, 55
2, 47787, Note_on_c, 0, 69, 47
2, 47930, Note_on_c, 0, 60, 0
2, 47938, Note_on_c, 0, 69, 0
2, 47938, Note_on_c, 0, 72, 0
2, 47942, Note_on_c, 0, 60, 56
2, 47949, Note_on_c, 0, 69, 44
2, 47949, Note_on_c, 0, 72, 53
2, 48115, Note_on_c, 0, 53, 0
2, 48115, Note_on_c, 0, 72, 0
2, 48118, Note_on_c, 0, 84, 77
2, 48119, Note_on_c, 0, 53, 57
2, 48126, Note_on_c, 0, 72, 56
2, 48184, Note_on_c, 0, 41, 0
2, 48276, Note_on_c, 0, 60, 0
2, 48284, Note_on_c, 0, 72, 0
2, 48287, Note_on_c, 0, 60, 47
2, 48289, Note_on_c, 0, 72, 51
2, 48456, Note_on_c, 0, 76, 62
2, 48460, Note_on_c, 0, 53, 0
2, 48460, Note_on_c, 0, 72, 0
2, 48470, Note_on_c, 0, 53, 45
2, 48472, Note_on_c, 0, 72, 54
2, 48480, Control_c, 0, 64, 0
2, 48484, Note_on_c, 0, 70, 49
2, 48488, Note_on_c, 0, 69, 0
2, 48488, Note_on_c, 0, 67, 0
2, 48490, Note_on_c, 0, 81, 0
2, 48491, Note_on_c, 0, 48, 0
2, 48491, Note_on_c, 0, 84, 0
2, 48492, Note_on_c, 0, 65, 0
2, 48499, Note_on_c, 0, 79, 0
2, 48506, Note_on_c, 0, 60, 0
2, 48506, Note_on_c, 0, 77, 0
2, 48529, Note_on_c, 0, 72, 0
2, 48625, Note_on_c, 0, 58, 41
2, 48634, Note_on_c, 0, 72, 41
2, 48675, Control_c, 0, 64, 127
2, 48683, Note_on_c, 0, 70, 0
2, 48783, Control_c, 0, 64, 0
2, 48789, Note_on_c, 0, 65, 52
2, 48815, Note_on_c, 0, 70, 41
2, 48952, Control_c, 0, 64, 127
2, 48959, Note_on_c, 0, 69, 40
2, 48975, Note_on_c, 0, 72, 0
2, 48979, Note_on_c, 0, 72, 36
2, 49113, Control_c, 0, 64, 0
2, 49120, Note_on_c, 0, 67, 49
2, 49121, Note_on_c, 0, 70, 0
2, 49126, Note_on_c, 0, 46, 30
2, 49131, Note_on_c, 0, 69, 0
2, 49132, Note_on_c, 0, 70, 39
2, 49251, Control_c, 0, 64, 127
2, 49297, Note_on_c, 0, 72, 0
2, 49302, Note_on_c, 0, 72, 45
2, 49413, Control_c, 0, 64, 0
2, 49451, Note_on_c, 0, 70, 0
2, 49462, Note_on_c, 0, 70, 55
2, 49464, Note_on_c, 0, 77, 51
2, 49643, Note_on_c, 0, 70, 0
2, 49643, Note_on_c, 0, 72, 0
2, 49648, Note_on_c, 0, 70, 30
2, 49648, Note_on_c, 0, 72, 33
2, 49704, Control_c, 0, 64, 127
2, 49820, Note_on_c, 0, 70, 0
2, 49827, Note_on_c, 0, 70, 41
2, 49829, Note_on_c, 0, 45, 28
2, 49835, Note_on_c, 0, 45, 0
2, 50165, Note_on_c, 0, 84, 77
2, 50519, Note_on_c, 0, 53, 0
2, 50519, Note_on_c, 0, 84, 0
2, 50519, Control_c, 0, 64, 0
2, 50524, Note_on_c, 0, 53, 58
2, 50526, Note_on_c, 0, 84, 74
2, 50526, Note_on_c, 0, 72, 0
2, 50534, Note_on_c, 0, 46, 0
2, 50535, Note_on_c, 0, 70, 0
2, 50537, Note_on_c, 0, 72, 50
2, 50542, Note_on_c, 0, 67, 0
2, 50557, Note_on_c, 0, 58, 0
2, 50565, Note_on_c, 0, 76, 0
2, 50572, Note_on_c, 0, 65, 0
2, 50572, Note_on_c, 0, 77, 0
2, 50711, Note_on_c, 0, 72, 0
2, 50713, Note_on_c, 0, 60, 43
2, 50716, Note_on_c, 0, 72, 45
2, 50741, Control_c, 0, 64, 127
2, 50857, Note_on_c, 0, 65, 49
2, 50873, Note_on_c, 0, 69, 60
2, 51014, Note_on_c, 0, 67, 53
2, 51018, Note_on_c, 0, 72, 0
2, 51025, Note_on_c, 0, 53, 0
2, 51028, Note_on_c, 0, 72, 60
2, 51036, Note_on_c, 0, 53, 36
2, 51161, Note_on_c, 0, 82, 60
2, 51194, Note_on_c, 0, 69, 0
2, 51202, Note_on_c, 0, 69, 43
2, 51325, Note_on_c, 0, 60, 0
2, 51333, Note_on_c, 0, 72, 0
2, 51334, Note_on_c, 0, 60, 47
2, 51335, Note_on_c, 0, 81, 71
2, 51337, Note_on_c, 0, 48, 45
2, 51340, Note_on_c, 0, 72, 59
2, 51348, Note_on_c, 0, 48, 0
2, 51502, Note_on_c, 0, 67, 0
2, 51508, Note_on_c, 0, 77, 75
2, 51509, Note_on_c, 0, 67, 54
2, 51512, Note_on_c, 0, 48, 47
2, 51671, Note_on_c, 0, 69, 0
2, 51681, Note_on_c, 0, 69, 58
2, 51683, Note_on_c, 0, 41, 37
2, 51694, Note_on_c, 0, 72, 0
2, 51701, Note_on_c, 0, 72, 46
2, 51832, Note_on_c, 0, 65, 0
2, 51842, Note_on_c, 0, 65, 45
2, 52001, Note_on_c, 0, 60, 0
2, 52006, Note_on_c, 0, 60, 41
2, 52008, Note_on_c, 0, 72, 0
2, 52016, Note_on_c, 0, 69, 0
2, 52020, Note_on_c, 0, 72, 45
2, 52027, Note_on_c, 0, 69, 32
2, 52124, Note_on_c, 0, 41, 0
2, 52170, Note_on_c, 0, 53, 0
2, 52176, Note_on_c, 0, 41, 45
2, 52176, Note_on_c, 0, 53, 46
2, 52177, Note_on_c, 0, 77, 0
2, 52177, Note_on_c, 0, 81, 0
2, 52183, Note_on_c, 0, 81, 60
2, 52189, Note_on_c, 0, 77, 44
2, 52331, Note_on_c, 0, 60, 0
2, 52339, Note_on_c, 0, 72, 0
2, 52340, Note_on_c, 0, 60, 48
2, 52344, Note_on_c, 0, 72, 53
2, 52500, Note_on_c, 0, 41, 0
2, 52500, Note_on_c, 0, 53, 0
2, 52500, Note_on_c, 0, 81, 0
2, 52508, Note_on_c, 0, 41, 48
2, 52510, Note_on_c, 0, 53, 49
2, 52511, Note_on_c, 0, 81, 76
2, 52515, Note_on_c, 0, 72, 0
2, 52520, Note_on_c, 0, 72, 54
2, 52541, Control_c, 0, 64, 0
2, 52546, Note_on_c, 0, 48, 0
2, 52557, Note_on_c, 0, 84, 0
2, 52559, Note_on_c, 0, 67, 0
2, 52559, Note_on_c, 0, 77, 0
2, 52559, Note_on_c, 0, 69, 0
2, 52560, Note_on_c, 0, 65, 0
2, 52561, Note_on_c, 0, 82, 0
2, 52562, Note_on_c, 0, 60, 0
2, 52563, Note_on_c, 0, 72, 0
2, 52677, Note_on_c, 0, 41, 0
2, 52677, Note_on_c, 0, 53, 0
2, 52684, Note_on_c, 0, 58, 48
2, 52687, Note_on_c, 0, 53, 36
2, 52692, Note_on_c, 0, 72, 48
2, 52753, Control_c, 0, 64, 127
2, 52845, Note_on_c, 0, 65, 50
2, 52874, Note_on_c, 0, 70, 40
2, 53002, Note_on_c, 0, 69, 47
2, 53015, Note_on_c, 0, 72, 0
2, 53020, Note_on_c, 0, 72, 45
2, 53171, Note_on_c, 0, 67, 48
2, 53184, Note_on_c, 0, 58, 0
2, 53188, Note_on_c, 0, 58, 30
2, 53214, Note_on_c, 0, 70, 0
2, 53220, Note_on_c, 0, 70, 38
2, 53222, Note_on_c, 0, 65, 0
2, 53227, Note_on_c, 0, 65, 26
2, 53345, Note_on_c, 0, 65, 0
2, 53345, Note_on_c, 0, 69, 0
2, 53345, Note_on_c, 0, 72, 0
2, 53356, Note_on_c, 0, 65, 22
2, 53356, Note_on_c, 0, 72, 45
2, 53356, Note_on_c, 0, 69, 29
2, 53521, Note_on_c, 0, 53, 0
2, 53527, Note_on_c, 0, 79, 63
2, 53529, Note_on_c, 0, 70, 0
2, 53533, Note_on_c, 0, 53, 31
2, 53534, Note_on_c, 0, 70, 48
2, 53637, Control_c, 0, 64, 0
2, 53690, Note_on_c, 0, 72, 0
2, 53700, Note_on_c, 0, 72, 41
2, 53859, Note_on_c, 0, 70, 0
2, 53867, Note_on_c, 0, 70, 40
2, 53928, Control_c, 0, 64, 127
2, 54097, Note_on_c, 0, 70, 0
2, 54108, Note_on_c, 0, 70, 24
2, 54226, Note_on_c, 0, 60, 61
2, 54389, Note_on_c, 0, 72, 0
2, 54399, Note_on_c, 0, 72, 25
2, 54543, Note_on_c, 0, 60, 0
2, 54543, Note_on_c, 0, 65, 0
2, 54546, Note_on_c, 0, 70, 0
2, 54547, Note_on_c, 0, 58, 0
2, 54547, Note_on_c, 0, 67, 0
2, 54549, Note_on_c, 0, 79, 0
2, 54551, Note_on_c, 0, 53, 0
2, 54551, Note_on_c, 0, 60, 57
2, 54551, Note_on_c, 0, 65, 60
2, 54558, Note_on_c, 0, 81, 0
2, 54560, Note_on_c, 0, 53, 54
2, 54569, Note_on_c, 0, 81, 63
2, 54581, Control_c, 0, 64, 0
2, 54666, Control_c, 0, 64, 127
2, 54733, Note_on_c, 0, 48, 55
2, 54751, Note_on_c, 0, 84, 52
2, 54754, Note_on_c, 0, 76, 42
2, 54899, Note_on_c, 0, 41, 46
2, 54904, Note_on_c, 0, 72, 0
2, 54912, Note_on_c, 0, 72, 43
2, 54927, Note_on_c, 0, 81, 0
2, 54932, Note_on_c, 0, 81, 47
2, 55080, Note_on_c, 0, 76, 0
2, 55080, Note_on_c, 0, 84, 0
2, 55085, Note_on_c, 0, 76, 39
2, 55092, Note_on_c, 0, 84, 49
2, 55234, Note_on_c, 0, 48, 0
2, 55234, Note_on_c, 0, 81, 0
2, 55239, Note_on_c, 0, 67, 88
2, 55244, Note_on_c, 0, 48, 50
2, 55244, Note_on_c, 0, 81, 66
2, 55319, Control_c, 0, 64, 0
2, 55388, Note_on_c, 0, 76, 0
2, 55395, Note_on_c, 0, 84, 0
2, 55399, Note_on_c, 0, 76, 54
2, 55403, Control_c, 0, 64, 127
2, 55406, Note_on_c, 0, 84, 46
2, 55549, Note_on_c, 0, 69, 0
2, 55556, Note_on_c, 0, 69, 79
2, 55572, Note_on_c, 0, 41, 0
2, 55572, Note_on_c, 0, 48, 0
2, 55572, Note_on_c, 0, 53, 0
2, 55580, Note_on_c, 0, 81, 0
2, 55581, Note_on_c, 0, 41, 48
2, 55582, Note_on_c, 0, 48, 52
2, 55583, Note_on_c, 0, 53, 43
2, 55584, Note_on_c, 0, 81, 65
2, 55718, Note_on_c, 0, 84, 0
2, 55726, Note_on_c, 0, 84, 56
2, 55741, Note_on_c, 0, 48, 0
2, 55741, Note_on_c, 0, 76, 0
2, 55750, Note_on_c, 0, 76, 47
2, 55751, Note_on_c, 0, 48, 54
2, 55879, Note_on_c, 0, 41, 0
2, 55887, Note_on_c, 0, 60, 0
2, 55889, Note_on_c, 0, 41, 56
2, 55895, Control_c, 0, 64, 0
2, 55902, Note_on_c, 0, 81, 0
2, 55910, Note_on_c, 0, 72, 0
2, 55913, Note_on_c, 0, 81, 62
2, 55921, Note_on_c, 0, 72, 52
2, 56025, Control_c, 0, 64, 127
2, 56079, Note_on_c, 0, 76, 0
2, 56079, Note_on_c, 0, 84, 0
2, 56083, Note_on_c, 0, 76, 37
2, 56088, Note_on_c, 0, 84, 52
2, 56117, Control_c, 0, 64, 0
2, 56225, Note_on_c, 0, 41, 0
2, 56225, Note_on_c, 0, 81, 0
2, 56232, Note_on_c, 0, 72, 0
2, 56232, Control_c, 0, 64, 127
2, 56235, Note_on_c, 0, 81, 63
2, 56236, Note_on_c, 0, 41, 50
2, 56237, Note_on_c, 0, 72, 77
2, 56378, Note_on_c, 0, 72, 0
2, 56378, Note_on_c, 0, 84, 0
2, 56387, Note_on_c, 0, 84, 58
2, 56389, Note_on_c, 0, 72, 53
2, 56543, Note_on_c, 0, 64, 75
2, 56547, Note_on_c, 0, 53, 0
2, 56556, Note_on_c, 0, 53, 47
2, 56559, Note_on_c, 0, 58, 52
2, 56567, Note_on_c, 0, 82, 61
2, 56570, Note_on_c, 0, 69, 0
2, 56575, Note_on_c, 0, 81, 0
2, 56576, Note_on_c, 0, 74, 51
2, 56591, Control_c, 0, 64, 0
2, 56732, Note_on_c, 0, 48, 0
2, 56732, Control_c, 0, 64, 127
2, 56739, Note_on_c, 0, 84, 0
2, 56742, Note_on_c, 0, 48, 50
2, 56747, Note_on_c, 0, 72, 0
2, 56751, Note_on_c, 0, 84, 51
2, 56753, Note_on_c, 0, 72, 46
2, 56885, Note_on_c, 0, 41, 0
2, 56885, Control_c, 0, 64, 0
2, 56890, Note_on_c, 0, 41, 46
2, 56916, Note_on_c, 0, 82, 0
2, 56921, Note_on_c, 0, 82, 58
2, 56924, Note_on_c, 0, 74, 0
2, 56930, Note_on_c, 0, 74, 48
2, 57085, Note_on_c, 0, 84, 0
2, 57093, Note_on_c, 0, 58, 0
2, 57093, Note_on_c, 0, 76, 0
2, 57094, Note_on_c, 0, 84, 47
2, 57097, Note_on_c, 0, 76, 37
2, 57102, Note_on_c, 0, 58, 31
2, 57216, Control_c, 0, 64, 127
2, 57239, Note_on_c, 0, 82, 0
2, 57243, Note_on_c, 0, 82, 54
2, 57262, Note_on_c, 0, 76, 0
2, 57268, Note_on_c, 0, 76, 19
2, 57277, Control_c, 0, 64, 0
2, 57384, Note_on_c, 0, 65, 0
2, 57408, Note_on_c, 0, 76, 0
2, 57408, Note_on_c, 0, 84, 0
2, 57412, Note_on_c, 0, 76, 43
2, 57418, Note_on_c, 0, 84, 43
2, 57553, Note_on_c, 0, 58, 0
2, 57553, Control_c, 0, 64, 127
2, 57556, Note_on_c, 0, 65, 64
2, 57561, Note_on_c, 0, 53, 0
2, 57564, Note_on_c, 0, 58, 47
2, 57569, Note_on_c, 0, 74, 0
2, 57569, Note_on_c, 0, 82, 0
2, 57572, Note_on_c, 0, 53, 40
2, 57580, Note_on_c, 0, 74, 47
2, 57580, Note_on_c, 0, 82, 57
2, 57661, Control_c, 0, 64, 0
2, 57730, Note_on_c, 0, 84, 0
2, 57734, Note_on_c, 0, 84, 54
2, 57738, Note_on_c, 0, 48, 0
2, 57738, Note_on_c, 0, 76, 0
2, 57745, Note_on_c, 0, 48, 52
2, 57746, Note_on_c, 0, 79, 38
2, 57749, Note_on_c, 0, 76, 48
2, 57753, Note_on_c, 0, 79, 0
2, 57884, Note_on_c, 0, 41, 0
2, 57893, Note_on_c, 0, 41, 46
2, 57914, Note_on_c, 0, 82, 0
2, 57918, Note_on_c, 0, 82, 55
2, 57930, Note_on_c, 0, 74, 0
2, 57934, Note_on_c, 0, 74, 43
2, 58141, Note_on_c, 0, 77, 27
2, 58222, Control_c, 0, 64, 127
2, 58237, Note_on_c, 0, 48, 0
2, 58237, Note_on_c, 0, 72, 0
2, 58241, Note_on_c, 0, 45, 41
2, 58242, Note_on_c, 0, 48, 35
2, 58245, Note_on_c, 0, 84, 0
2, 58248, Note_on_c, 0, 72, 71
2, 58250, Note_on_c, 0, 84, 57
2, 58252, Note_on_c, 0, 45, 0
2, 58538, Control_c, 0, 64, 0
2, 58553, Note_on_c, 0, 82, 0
2, 58553, Note_on_c, 0, 64, 0
2, 58555, Note_on_c, 0, 65, 0
2, 58555, Note_on_c, 0, 84, 0
2, 58556, Note_on_c, 0, 74, 0
2, 58556, Note_on_c, 0, 77, 0
2, 58560, Note_on_c, 0, 67, 0
2, 58567, Note_on_c, 0, 41, 0
2, 58567, Note_on_c, 0, 48, 0
2, 58567, Note_on_c, 0, 53, 0
2, 58567, Note_on_c, 0, 72, 0
2, 58575, Note_on_c, 0, 58, 0
2, 58575, Note_on_c, 0, 76, 0
2, 58576, Note_on_c, 0, 53, 67
2, 58577, Note_on_c, 0, 41, 57
2, 58578, Note_on_c, 0, 72, 80
2, 58578, Note_on_c, 0, 48, 49
2, 58579, Note_on_c, 0, 60, 61
2, 58581, Note_on_c, 0, 84, 68
2, 58583, Note_on_c, 0, 48, 0
2, 58644, Note_on_c, 0, 84, 0
2, 58682, Note_on_c, 0, 60, 0
2, 58744, Note_on_c, 0, 72, 0
2, 58746, Note_on_c, 0, 84, 57
2, 58754, Note_on_c, 0, 72, 54
2, 58772, Note_on_c, 0, 48, 40
2, 58786, Note_on_c, 0, 76, 32
2, 58882, Note_on_c, 0, 41, 0
2, 58893, Note_on_c, 0, 41, 55
2, 58927, Note_on_c, 0, 81, 54
2, 58928, Note_on_c, 0, 72, 0
2, 58937, Note_on_c, 0, 72, 50
2, 58944, Control_c, 0, 64, 127
2, 58974, Control_c, 0, 64, 0
2, 59059, Control_c, 0, 64, 127
2, 59082, Note_on_c, 0, 84, 0
2, 59089, Note_on_c, 0, 72, 0
2, 59089, Note_on_c, 0, 76, 0
2, 59093, Note_on_c, 0, 84, 48
2, 59094, Note_on_c, 0, 76, 27
2, 59098, Note_on_c, 0, 72, 35
2, 59159, Control_c, 0, 64, 0
2, 59229, Note_on_c, 0, 70, 73
2, 59233, Note_on_c, 0, 82, 65
2, 59235, Note_on_c, 0, 41, 0
2, 59239, Note_on_c, 0, 41, 45
2, 59243, Note_on_c, 0, 48, 0
2, 59243, Note_on_c, 0, 81, 0
2, 59247, Note_on_c, 0, 45, 45
2, 59249, Note_on_c, 0, 48, 41
2, 59251, Note_on_c, 0, 81, 59
2, 59258, Note_on_c, 0, 45, 0
2, 59391, Note_on_c, 0, 69, 65
2, 59420, Note_on_c, 0, 72, 0
2, 59420, Note_on_c, 0, 84, 0
2, 59425, Note_on_c, 0, 72, 49
2, 59426, Note_on_c, 0, 84, 53
2, 59427, Note_on_c, 0, 76, 0
2, 59432, Note_on_c, 0, 76, 40
2, 59450, Note_on_c, 0, 81, 0
2, 59462, Note_on_c, 0, 81, 35
2, 59520, Control_c, 0, 64, 127
2, 59543, Note_on_c, 0, 48, 0
2, 59550, Note_on_c, 0, 45, 57
2, 59550, Note_on_c, 0, 53, 0
2, 59550, Note_on_c, 0, 72, 0
2, 59551, Note_on_c, 0, 65, 73
2, 59554, Note_on_c, 0, 48, 63
2, 59555, Note_on_c, 0, 53, 68
2, 59556, Note_on_c, 0, 72, 69
2, 59558, Note_on_c, 0, 41, 0
2, 59558, Note_on_c, 0, 45, 0
2, 59562, Note_on_c, 0, 41, 56
2, 59570, Note_on_c, 0, 77, 50
2, 59573, Note_on_c, 0, 81, 0
2, 59578, Note_on_c, 0, 81, 75
2, 59719, Note_on_c, 0, 48, 0
2, 59728, Note_on_c, 0, 48, 61
2, 59750, Note_on_c, 0, 84, 0
2, 59758, Note_on_c, 0, 84, 53
2, 59819, Note_on_c, 0, 81, 0
2, 59828, Note_on_c, 0, 81, 48
2, 59857, Note_on_c, 0, 72, 0
2, 59869, Note_on_c, 0, 72, 45
2, 59888, Note_on_c, 0, 41, 0
2, 59892, Note_on_c, 0, 41, 48
2, 59904, Note_on_c, 0, 81, 0
2, 59908, Note_on_c, 0, 81, 49
2, 59973, Note_on_c, 0, 72, 0
2, 59982, Note_on_c, 0, 72, 42
2, 60065, Note_on_c, 0, 84, 0
2, 60076, Note_on_c, 0, 84, 47
2, 60080, Note_on_c, 0, 65, 0
2, 60091, Note_on_c, 0, 65, 36
2, 60096, Note_on_c, 0, 76, 0
2, 60100, Note_on_c, 0, 76, 28
2, 60226, Note_on_c, 0, 69, 0
2, 60226, Note_on_c, 0, 81, 0
2, 60230, Note_on_c, 0, 81, 71
2, 60230, Note_on_c, 0, 69, 68
2, 60237, Note_on_c, 0, 45, 47
2, 60387, Note_on_c, 0, 84, 0
2, 60398, Note_on_c, 0, 84, 55
2, 60426, Note_on_c, 0, 76, 0
2, 60431, Note_on_c, 0, 76, 31
2, 60541, Note_on_c, 0, 69, 0
2, 60545, Note_on_c, 0, 69, 75
2, 60549, Note_on_c, 0, 53, 0
2, 60552, Note_on_c, 0, 58, 58
2, 60556, Note_on_c, 0, 82, 0
2, 60558, Note_on_c, 0, 53, 45
2, 60559, Note_on_c, 0, 46, 56
2, 60565, Note_on_c, 0, 82, 65
2, 60567, Note_on_c, 0, 74, 53
2, 60702, Note_on_c, 0, 45, 0
2, 60741, Note_on_c, 0, 48, 0
2, 60741, Note_on_c, 0, 84, 0
2, 60745, Note_on_c, 0, 84, 49
2, 60746, Note_on_c, 0, 48, 48
2, 60764, Note_on_c, 0, 76, 0
2, 60764, Note_on_c, 0, 82, 0
2, 60773, Note_on_c, 0, 76, 35
2, 60775, Note_on_c, 0, 82, 46
2, 60856, Note_on_c, 0, 82, 0
2, 60861, Note_on_c, 0, 82, 47
2, 60887, Note_on_c, 0, 41, 0
2, 60891, Note_on_c, 0, 41, 46
2, 60917, Note_on_c, 0, 82, 0
2, 60928, Note_on_c, 0, 82, 57
2, 60948, Note_on_c, 0, 74, 0
2, 60958, Note_on_c, 0, 74, 29
2, 61079, Note_on_c, 0, 84, 0
2, 61086, Note_on_c, 0, 76, 0
2, 61087, Note_on_c, 0, 84, 50
2, 61097, Note_on_c, 0, 76, 36
2, 61232, Note_on_c, 0, 74, 0
2, 61232, Note_on_c, 0, 82, 0
2, 61238, Note_on_c, 0, 82, 54
2, 61244, Note_on_c, 0, 74, 39
2, 61409, Note_on_c, 0, 84, 0
2, 61413, Note_on_c, 0, 84, 42
2, 61416, Note_on_c, 0, 76, 0
2, 61416, Note_on_c, 0, 82, 0
2, 61428, Note_on_c, 0, 76, 37
2, 61428, Note_on_c, 0, 82, 42
2, 61553, Note_on_c, 0, 67, 69
2, 61555, Note_on_c, 0, 53, 0
2, 61560, Note_on_c, 0, 53, 45
2, 61585, Note_on_c, 0, 82, 0
2, 61593, Note_on_c, 0, 74, 0
2, 61596, Note_on_c, 0, 82, 53
2, 61602, Note_on_c, 0, 74, 37
2, 61739, Note_on_c, 0, 48, 0
2, 61750, Note_on_c, 0, 48, 50
2, 61762, Note_on_c, 0, 84, 0
2, 61767, Note_on_c, 0, 84, 42
2, 61777, Note_on_c, 0, 76, 0
2, 61781, Note_on_c, 0, 76, 31
2, 61916, Note_on_c, 0, 41, 0
2, 61920, Note_on_c, 0, 41, 46
2, 61954, Note_on_c, 0, 74, 0
2, 61954, Note_on_c, 0, 82, 0
2, 61964, Note_on_c, 0, 74, 40
2, 61965, Note_on_c, 0, 82, 42
2, 62108, Note_on_c, 0, 67, 0
2, 62119, Note_on_c, 0, 67, 27
2, 62407, Note_on_c, 0, 67, 0
2, 62412, Note_on_c, 0, 67, 20
2, 62538, Note_on_c, 0, 67, 0
2, 62549, Note_on_c, 0, 67, 21
2, 62622, Note_on_c, 0, 46, 0
2, 62632, Note_on_c, 0, 89, 65
2, 62633, Note_on_c, 0, 46, 54
2, 62641, Control_c, 0, 64, 0
2, 62649, Note_on_c, 0, 41, 0
2, 62649, Note_on_c, 0, 58, 0
2, 62649, Note_on_c, 0, 48, 0
2, 62649, Note_on_c, 0, 76, 0
2, 62650, Note_on_c, 0, 84, 0
2, 62650, Note_on_c, 0, 65, 0
2, 62650, Note_on_c, 0, 69, 0
2, 62650, Note_on_c, 0, 74, 0
2, 62650, Note_on_c, 0, 82, 0
2, 62651, Note_on_c, 0, 72, 0
2, 62651, Note_on_c, 0, 67, 0
2, 62661, Note_on_c, 0, 70, 0
2, 62668, Note_on_c, 0, 53, 0
2, 62668, Note_on_c, 0, 81, 0
2, 62760, Control_c, 0, 64, 127
2, 62816, Note_on_c, 0, 84, 45
2, 62818, Note_on_c, 0, 53, 44
2, 62968, Note_on_c, 0, 77, 0
2, 62971, Note_on_c, 0, 58, 41
2, 62972, Note_on_c, 0, 77, 38
2, 63131, Note_on_c, 0, 65, 47
2, 63152, Note_on_c, 0, 84, 0
2, 63159, Note_on_c, 0, 84, 52
2, 63313, Note_on_c, 0, 77, 0
2, 63318, Note_on_c, 0, 77, 41
2, 63344, Note_on_c, 0, 65, 0
2, 63351, Note_on_c, 0, 65, 19
2, 63467, Note_on_c, 0, 53, 0
2, 63472, Note_on_c, 0, 53, 50
2, 63475, Note_on_c, 0, 72, 44
2, 63482, Note_on_c, 0, 72, 0
2, 63628, Note_on_c, 0, 84, 0
2, 63633, Note_on_c, 0, 62, 71
2, 63634, Note_on_c, 0, 84, 65
2, 63636, Note_on_c, 0, 58, 0
2, 63640, Note_on_c, 0, 58, 51
2, 63797, Note_on_c, 0, 77, 0
2, 63802, Note_on_c, 0, 77, 52
2, 63968, Note_on_c, 0, 60, 77
2, 63969, Note_on_c, 0, 57, 75
2, 63976, Note_on_c, 0, 72, 69
2, 64128, Note_on_c, 0, 77, 0
2, 64137, Note_on_c, 0, 77, 58
2, 64273, Note_on_c, 0, 58, 0
2, 64281, Note_on_c, 0, 72, 0
2, 64284, Note_on_c, 0, 58, 73
2, 64292, Note_on_c, 0, 55, 76
2, 64293, Note_on_c, 0, 72, 68
2, 64458, Note_on_c, 0, 65, 0
2, 64463, Note_on_c, 0, 65, 55
2, 64627, Note_on_c, 0, 57, 0
2, 64631, Note_on_c, 0, 57, 73
2, 64638, Note_on_c, 0, 43, 63
2, 64647, Control_c, 0, 64, 0
2, 64650, Note_on_c, 0, 89, 0
2, 64653, Note_on_c, 0, 65, 0
2, 64654, Note_on_c, 0, 53, 0
2, 64654, Note_on_c, 0, 62, 0
2, 64654, Note_on_c, 0, 77, 0
2, 64654, Note_on_c, 0, 58, 0
2, 64654, Note_on_c, 0, 46, 0
2, 64654, Note_on_c, 0, 60, 0
2, 64655, Note_on_c, 0, 55, 0
2, 64660, Note_on_c, 0, 89, 77
2, 64665, Note_on_c, 0, 72, 0
2, 64665, Note_on_c, 0, 84, 0
2, 64757, Note_on_c, 0, 57, 0
2, 64773, Control_c, 0, 64, 127
2, 64828, Note_on_c, 0, 50, 60
2, 64830, Note_on_c, 0, 84, 51
2, 64992, Note_on_c, 0, 53, 56
2, 65013, Note_on_c, 0, 77, 49
2, 65164, Note_on_c, 0, 84, 0
2, 65172, Note_on_c, 0, 84, 56
2, 65305, Note_on_c, 0, 58, 56
2, 65318, Note_on_c, 0, 77, 0
2, 65325, Note_on_c, 0, 46, 40
2, 65329, Note_on_c, 0, 77, 40
2, 65467, Note_on_c, 0, 57, 50
2, 65487, Note_on_c, 0, 72, 44
2, 65625, Note_on_c, 0, 84, 0
2, 65634, Note_on_c, 0, 84, 52
2, 65642, Note_on_c, 0, 55, 52
2, 65802, Note_on_c, 0, 77, 0
2, 65811, Note_on_c, 0, 77, 42
2, 65978, Note_on_c, 0, 72, 0
2, 65985, Note_on_c, 0, 72, 45
2, 66117, Note_on_c, 0, 77, 0
2, 66127, Note_on_c, 0, 77, 49
2, 66309, Note_on_c, 0, 72, 0
2, 66319, Note_on_c, 0, 72, 51
2, 66448, Note_on_c, 0, 65, 26
2, 66608, Note_on_c, 0, 46, 0
2, 66619, Note_on_c, 0, 46, 55
2, 66624, Control_c, 0, 64, 0
2, 66629, Note_on_c, 0, 77, 0
2, 66632, Note_on_c, 0, 84, 0
2, 66632, Note_on_c, 0, 57, 0
2, 66633, Note_on_c, 0, 58, 0
2, 66633, Note_on_c, 0, 50, 0
2, 66634, Note_on_c, 0, 72, 0
2, 66634, Note_on_c, 0, 43, 0
2, 66634, Note_on_c, 0, 55, 0
2, 66639, Note_on_c, 0, 89, 0
2, 66643, Note_on_c, 0, 89, 67
2, 66716, Control_c, 0, 64, 127
2, 66731, Note_on_c, 0, 65, 0
2, 66800, Note_on_c, 0, 53, 0
2, 66810, Note_on_c, 0, 53, 50
2, 66814, Note_on_c, 0, 84, 47
2, 66958, Note_on_c, 0, 58, 48
2, 66981, Note_on_c, 0, 77, 45
2, 67133, Note_on_c, 0, 65, 56
2, 67153, Note_on_c, 0, 84, 0
2, 67163, Note_on_c, 0, 84, 48
2, 67307, Note_on_c, 0, 77, 0
2, 67313, Note_on_c, 0, 77, 45
2, 67468, Note_on_c, 0, 53, 0
2, 67475, Note_on_c, 0, 53, 60
2, 67622, Note_on_c, 0, 58, 0
2, 67630, Note_on_c, 0, 84, 0
2, 67632, Note_on_c, 0, 58, 64
2, 67632, Note_on_c, 0, 62, 63
2, 67633, Note_on_c, 0, 72, 61
2, 67633, Note_on_c, 0, 84, 60
2, 67637, Note_on_c, 0, 72, 0
2, 67799, Note_on_c, 0, 77, 0
2, 67806, Note_on_c, 0, 77, 54
2, 67963, Note_on_c, 0, 57, 76
2, 67963, Note_on_c, 0, 60, 73
2, 67977, Control_c, 0, 64, 0
2, 67979, Note_on_c, 0, 72, 55
2, 68083, Control_c, 0, 64, 127
2, 68136, Note_on_c, 0, 77, 0
2, 68147, Note_on_c, 0, 77, 55
2, 68282, Note_on_c, 0, 58, 0
2, 68290, Note_on_c, 0, 46, 0
2, 68293, Note_on_c, 0, 58, 64
2, 68294, Note_on_c, 0, 55, 70
2, 68298, Note_on_c, 0, 46, 55
2, 68313, Note_on_c, 0, 72, 0
2, 68318, Note_on_c, 0, 72, 60
2, 68467, Note_on_c, 0, 65, 0
2, 68471, Note_on_c, 0, 65, 60
2, 68620, Note_on_c, 0, 57, 0
2, 68628, Note_on_c, 0, 57, 73
2, 68634, Control_c, 0, 64, 0
2, 68636, Note_on_c, 0, 89, 0
2, 68640, Note_on_c, 0, 43, 51
2, 68644, Note_on_c, 0, 65, 0
2, 68645, Note_on_c, 0, 72, 0
2, 68645, Note_on_c, 0, 58, 0
2, 68645, Note_on_c, 0, 89, 75
2, 68645, Note_on_c, 0, 60, 0
2, 68647, Note_on_c, 0, 55, 0
2, 68647, Note_on_c, 0, 46, 0
2, 68651, Note_on_c, 0, 62, 0
2, 68659, Note_on_c, 0, 84, 0
2, 68759, Control_c, 0, 64, 127
2, 68820, Note_on_c, 0, 53, 0
2, 68830, Note_on_c, 0, 84, 55
2, 68831, Note_on_c, 0, 50, 53
2, 68969, Note_on_c, 0, 53, 58
2, 68997, Note_on_c, 0, 77, 0
2, 69004, Note_on_c, 0, 77, 34
2, 69150, Note_on_c, 0, 84, 0
2, 69162, Note_on_c, 0, 84, 48
2, 69166, Note_on_c, 0, 57, 0
2, 69177, Note_on_c, 0, 57, 35
2, 69312, Note_on_c, 0, 77, 0
2, 69316, Note_on_c, 0, 58, 52
2, 69317, Note_on_c, 0, 77, 38
2, 69465, Note_on_c, 0, 57, 0
2, 69472, Note_on_c, 0, 57, 51
2, 69486, Note_on_c, 0, 72, 41
2, 69642, Note_on_c, 0, 84, 0
2, 69642, Note_on_c, 0, 55, 52
2, 69647, Note_on_c, 0, 84, 60
2, 69826, Note_on_c, 0, 77, 0
2, 69833, Note_on_c, 0, 77, 47
2, 69995, Note_on_c, 0, 72, 0
2, 70006, Note_on_c, 0, 72, 46
2, 70141, Note_on_c, 0, 50, 0
2, 70141, Note_on_c, 0, 77, 0
2, 70151, Note_on_c, 0, 77, 56
2, 70157, Note_on_c, 0, 62, 30
2, 70164, Note_on_c, 0, 62, 0
2, 70348, Note_on_c, 0, 72, 0
2, 70355, Note_on_c, 0, 72, 42
2, 70508, Note_on_c, 0, 65, 32
2, 70659, Note_on_c, 0, 46, 53
2, 70686, Note_on_c, 0, 89, 0
2, 70697, Note_on_c, 0, 89, 67
2, 70709, Note_on_c, 0, 77, 0
2, 70721, Note_on_c, 0, 77, 29
2, 70824, Note_on_c, 0, 53, 0
2, 70834, Note_on_c, 0, 53, 49
2, 70871, Note_on_c, 0, 84, 0
2, 70875, Note_on_c, 0, 84, 44
2, 70978, Note_on_c, 0, 58, 0
2, 70983, Note_on_c, 0, 58, 46
2, 71032, Note_on_c, 0, 77, 0
2, 71036, Note_on_c, 0, 77, 50
2, 71040, Note_on_c, 0, 43, 0
2, 71162, Note_on_c, 0, 53, 0
2, 71162, Note_on_c, 0, 84, 0
2, 71170, Note_on_c, 0, 72, 0
2, 71170, Note_on_c, 0, 77, 0
2, 71172, Note_on_c, 0, 53, 46
2, 71173, Note_on_c, 0, 84, 52
2, 71175, Note_on_c, 0, 72, 44
2, 71181, Note_on_c, 0, 77, 33
2, 71324, Note_on_c, 0, 58, 0
2, 71330, Note_on_c, 0, 58, 41
2, 71331, Note_on_c, 0, 77, 0
2, 71336, Note_on_c, 0, 77, 38
2, 71493, Note_on_c, 0, 72, 0
2, 71497, Note_on_c, 0, 72, 50
2, 71523, Note_on_c, 0, 53, 0
2, 71531, Note_on_c, 0, 53, 29
2, 71664, Note_on_c, 0, 86, 81
2, 71675, Note_on_c, 0, 62, 52
2, 71682, Note_on_c, 0, 82, 67
2, 71700, Note_on_c, 0, 77, 0
2, 71709, Note_on_c, 0, 77, 40
2, 71838, Note_on_c, 0, 58, 0
2, 71842, Note_on_c, 0, 58, 40
2, 71854, Note_on_c, 0, 86, 0
2, 71858, Note_on_c, 0, 86, 55
2, 71864, Note_on_c, 0, 74, 49
2, 72000, Note_on_c, 0, 84, 0
2, 72004, Note_on_c, 0, 84, 87
2, 72007, Note_on_c, 0, 46, 0
2, 72007, Note_on_c, 0, 65, 0
2, 72013, Note_on_c, 0, 65, 43
2, 72013, Note_on_c, 0, 46, 48
2, 72015, Note_on_c, 0, 76, 64
2, 72018, Note_on_c, 0, 64, 53
2, 72023, Note_on_c, 0, 64, 0
2, 72161, Note_on_c, 0, 72, 0
2, 72171, Note_on_c, 0, 72, 48
2, 72176, Note_on_c, 0, 84, 0
2, 72182, Note_on_c, 0, 84, 58
2, 72184, Note_on_c, 0, 58, 0
2, 72190, Note_on_c, 0, 58, 46
2, 72322, Note_on_c, 0, 82, 0
2, 72333, Note_on_c, 0, 82, 91
2, 72337, Note_on_c, 0, 65, 0
2, 72337, Note_on_c, 0, 77, 0
2, 72345, Note_on_c, 0, 74, 0
2, 72347, Note_on_c, 0, 77, 71
2, 72348, Note_on_c, 0, 65, 69
2, 72349, Note_on_c, 0, 74, 67
2, 72353, Note_on_c, 0, 53, 0
2, 72354, Note_on_c, 0, 86, 0
2, 72355, Note_on_c, 0, 84, 0
2, 72355, Note_on_c, 0, 58, 0
2, 72355, Note_on_c, 0, 89, 0
2, 72356, Note_on_c, 0, 72, 0
2, 72356, Note_on_c, 0, 76, 0
2, 72356, Note_on_c, 0, 62, 0
2, 72356, Note_on_c, 0, 57, 0
2, 72357, Note_on_c, 0, 55, 0
2, 72498, Note_on_c, 0, 58, 54
2, 72501, Note_on_c, 0, 70, 50
2, 72506, Note_on_c, 0, 70, 0
2, 72514, Note_on_c, 0, 82, 0
2, 72519, Note_on_c, 0, 82, 55
2, 72664, Note_on_c, 0, 81, 83
2, 72668, Note_on_c, 0, 77, 0
2, 72669, Note_on_c, 0, 43, 69
2, 72673, Note_on_c, 0, 77, 66
2, 72695, Control_c, 0, 64, 0
2, 72696, Note_on_c, 0, 74, 0
2, 72697, Note_on_c, 0, 65, 0
2, 72697, Note_on_c, 0, 58, 0
2, 72698, Note_on_c, 0, 82, 0
2, 72714, Note_on_c, 0, 46, 0
2, 72798, Control_c, 0, 64, 127
2, 72853, Note_on_c, 0, 53, 55
2, 72856, Note_on_c, 0, 65, 45
2, 73005, Note_on_c, 0, 58, 52
2, 73009, Note_on_c, 0, 70, 43
2, 73090, Note_on_c, 0, 65, 0
2, 73095, Note_on_c, 0, 65, 27
2, 73159, Note_on_c, 0, 43, 0
2, 73168, Note_on_c, 0, 43, 46
2, 73169, Note_on_c, 0, 72, 69
2, 73342, Note_on_c, 0, 82, 61
2, 73344, Note_on_c, 0, 53, 0
2, 73351, Note_on_c, 0, 65, 0
2, 73351, Note_on_c, 0, 77, 0
2, 73353, Note_on_c, 0, 53, 39
2, 73356, Note_on_c, 0, 77, 33
2, 73361, Note_on_c, 0, 65, 37
2, 73474, Note_on_c, 0, 72, 0
2, 73478, Note_on_c, 0, 72, 49
2, 73489, Note_on_c, 0, 58, 0
2, 73489, Note_on_c, 0, 81, 0
2, 73495, Note_on_c, 0, 81, 58
2, 73496, Note_on_c, 0, 58, 41
2, 73666, Note_on_c, 0, 43, 0
2, 73666, Note_on_c, 0, 72, 0
2, 73671, Note_on_c, 0, 79, 61
2, 73671, Note_on_c, 0, 43, 40
2, 73677, Note_on_c, 0, 72, 54
2, 73843, Note_on_c, 0, 65, 0
2, 73848, Note_on_c, 0, 65, 38
2, 73858, Note_on_c, 0, 53, 0
2, 73864, Note_on_c, 0, 53, 30
2, 74019, Note_on_c, 0, 58, 0
2, 74019, Note_on_c, 0, 70, 0
2, 74025, Note_on_c, 0, 58, 32
2, 74029, Note_on_c, 0, 46, 32
2, 74030, Note_on_c, 0, 70, 29
2, 74173, Note_on_c, 0, 82, 0
2, 74183, Note_on_c, 0, 82, 35
2, 74204, Note_on_c, 0, 72, 0
2, 74211, Note_on_c, 0, 53, 0
2, 74215, Note_on_c, 0, 72, 42
2, 74216, Note_on_c, 0, 53, 27
2, 74403, Note_on_c, 0, 65, 0
2, 74411, Note_on_c, 0, 65, 39
2, 74549, Note_on_c, 0, 58, 0
2, 74559, Note_on_c, 0, 58, 44
2, 74745, Note_on_c, 0, 89, 66
2, 74757, Note_on_c, 0, 46, 0
2, 74757, Note_on_c, 0, 77, 0
2, 74765, Note_on_c, 0, 46, 53
2, 74765, Note_on_c, 0, 77, 34
2, 74771, Note_on_c, 0, 65, 0
2, 74771, Note_on_c, 0, 81, 0
2, 74772, Note_on_c, 0, 82, 0
2, 74772, Note_on_c, 0, 43, 0
2, 74772, Note_on_c, 0, 53, 0
2, 74772, Note_on_c, 0, 58, 0
2, 74774, Note_on_c, 0, 79, 0
2, 74778, Control_c, 0, 64, 0
2, 74780, Note_on_c, 0, 70, 0
2, 74787, Note_on_c, 0, 72, 0
2, 74796, Note_on_c, 0, 72, 32
2, 74803, Note_on_c, 0, 72, 0
2, 74841, Note_on_c, 0, 77, 0
2, 74880, Control_c, 0, 64, 127
2, 74917, Note_on_c, 0, 53, 50
2, 74918, Note_on_c, 0, 84, 52
2, 74921, Note_on_c, 0, 72, 43
2, 75054, Note_on_c, 0, 58, 49
2, 75083, Note_on_c, 0, 77, 45
2, 75225, Note_on_c, 0, 53, 0
2, 75233, Note_on_c, 0, 84, 0
2, 75236, Note_on_c, 0, 53, 59
2, 75244, Note_on_c, 0, 84, 60
2, 75250, Note_on_c, 0, 65, 43
2, 75256, Note_on_c, 0, 65, 0
2, 75386, Note_on_c, 0, 77, 0
2, 75394, Note_on_c, 0, 58, 0
2, 75396, Note_on_c, 0, 77, 53
2, 75399, Note_on_c, 0, 58, 51
2, 75555, Note_on_c, 0, 72, 0
2, 75562, Note_on_c, 0, 72, 53
2, 75571, Note_on_c, 0, 53, 0
2, 75574, Note_on_c, 0, 65, 39
2, 75576, Note_on_c, 0, 53, 46
2, 75737, Note_on_c, 0, 86, 83
2, 75740, Note_on_c, 0, 77, 0
2, 75744, Note_on_c, 0, 62, 62
2, 75745, Note_on_c, 0, 77, 56
2, 75745, Note_on_c, 0, 74, 66
2, 75751, Note_on_c, 0, 82, 72
2, 75909, Note_on_c, 0, 58, 0
2, 75913, Note_on_c, 0, 58, 51
2, 75924, Note_on_c, 0, 74, 0
2, 75929, Note_on_c, 0, 74, 57
2, 76068, Note_on_c, 0, 64, 70
2, 76078, Note_on_c, 0, 46, 0
2, 76078, Note_on_c, 0, 84, 0
2, 76087, Note_on_c, 0, 84, 81
2, 76088, Note_on_c, 0, 46, 56
2, 76096, Note_on_c, 0, 76, 66
2, 76101, Note_on_c, 0, 89, 0
2, 76239, Note_on_c, 0, 72, 0
2, 76250, Note_on_c, 0, 72, 58
2, 76262, Note_on_c, 0, 58, 0
2, 76270, Note_on_c, 0, 46, 0
2, 76271, Note_on_c, 0, 58, 41
2, 76275, Note_on_c, 0, 46, 39
2, 76416, Note_on_c, 0, 65, 0
2, 76416, Note_on_c, 0, 82, 0
2, 76420, Note_on_c, 0, 82, 77
2, 76423, Note_on_c, 0, 53, 0
2, 76427, Note_on_c, 0, 65, 58
2, 76430, Note_on_c, 0, 53, 50
2, 76431, Note_on_c, 0, 74, 0
2, 76431, Note_on_c, 0, 77, 0
2, 76436, Note_on_c, 0, 77, 63
2, 76442, Note_on_c, 0, 64, 0
2, 76442, Note_on_c, 0, 74, 58
2, 76444, Note_on_c, 0, 84, 0
2, 76574, Note_on_c, 0, 70, 50
2, 76577, Note_on_c, 0, 58, 0
2, 76587, Note_on_c, 0, 58, 49
2, 76754, Note_on_c, 0, 81, 69
2, 76764, Control_c, 0, 64, 0
2, 76765, Note_on_c, 0, 58, 0
2, 76765, Note_on_c, 0, 65, 0
2, 76765, Note_on_c, 0, 70, 0
2, 76766, Note_on_c, 0, 43, 52
2, 76769, Note_on_c, 0, 72, 0
2, 76769, Note_on_c, 0, 77, 0
2, 76769, Note_on_c, 0, 86, 0
2, 76775, Note_on_c, 0, 77, 50
2, 76776, Note_on_c, 0, 62, 0
2, 76776, Note_on_c, 0, 74, 0
2, 76778, Note_on_c, 0, 72, 47
2, 76784, Note_on_c, 0, 46, 0
2, 76784, Note_on_c, 0, 53, 0
2, 76784, Note_on_c, 0, 76, 0
2, 76792, Note_on_c, 0, 82, 0
2, 76938, Control_c, 0, 64, 127
2, 76960, Note_on_c, 0, 53, 48
2, 77104, Note_on_c, 0, 58, 48
2, 77108, Note_on_c, 0, 46, 41
2, 77114, Note_on_c, 0, 46, 0
2, 77114, Note_on_c, 0, 70, 37
2, 77122, Note_on_c, 0, 70, 0
2, 77314, Note_on_c, 0, 53, 0
2, 77314, Note_on_c, 0, 72, 0
2, 77319, Note_on_c, 0, 72, 47
2, 77322, Note_on_c, 0, 53, 35
2, 77466, Note_on_c, 0, 82, 60
2, 77468, Note_on_c, 0, 53, 0
2, 77473, Note_on_c, 0, 46, 37
2, 77475, Note_on_c, 0, 43, 0
2, 77477, Note_on_c, 0, 53, 36
2, 77486, Note_on_c, 0, 43, 30
2, 77487, Note_on_c, 0, 65, 37
2, 77629, Note_on_c, 0, 46, 0
2, 77629, Note_on_c, 0, 58, 0
2, 77629, Note_on_c, 0, 81, 0
2, 77638, Note_on_c, 0, 58, 46
2, 77639, Note_on_c, 0, 81, 57
2, 77640, Note_on_c, 0, 46, 43
2, 77829, Note_on_c, 0, 72, 0
2, 77836, Note_on_c, 0, 46, 0
2, 77840, Note_on_c, 0, 72, 52
2, 77840, Note_on_c, 0, 79, 63
2, 77846, Note_on_c, 0, 46, 38
2, 78036, Note_on_c, 0, 65, 0
2, 78042, Note_on_c, 0, 65, 34
2, 78213, Note_on_c, 0, 46, 0
2, 78213, Note_on_c, 0, 58, 0
2, 78217, Note_on_c, 0, 58, 43
2, 78217, Note_on_c, 0, 46, 35
2, 78354, Note_on_c, 0, 70, 28
2, 78428, Note_on_c, 0, 72, 0
2, 78432, Note_on_c, 0, 72, 44
2, 78689, Note_on_c, 0, 65, 0
2, 78693, Note_on_c, 0, 65, 33
2, 78720, Note_on_c, 0, 77, 0
2, 79011, Note_on_c, 0, 46, 0
2, 79011, Note_on_c, 0, 58, 0
2, 79015, Note_on_c, 0, 46, 27
2, 79016, Note_on_c, 0, 58, 35
2, 82076, Note_on_c, 0, 82, 0
2, 82079, Note_on_c, 0, 60, 29
2, 82083, Note_on_c, 0, 53, 0
2, 82091, Note_on_c, 0, 43, 0
2, 82245, Note_on_c, 0, 81, 0
2, 82444, Note_on_c, 0, 79, 0
2, 82475, Note_on_c, 0, 65, 0
2, 82479, Note_on_c, 0, 65, 39
2, 82485, Note_on_c, 0, 48, 27
2, 82519, Note_on_c, 0, 41, 24
2, 82524, Note_on_c, 0, 57, 26
2, 82560, Note_on_c, 0, 46, 0
2, 82560, Note_on_c, 0, 70, 0
2, 82560, Note_on_c, 0, 72, 0
2, 82571, Control_c, 0, 64, 0
2, 82590, Note_on_c, 0, 58, 0
2, 82606, Note_on_c, 0, 60, 0
2, 83215, Note_on_c, 0, 67, 43
2, 83581, Note_on_c, 0, 41, 0
2, 83583, Note_on_c, 0, 29, 31
2, 83584, Note_on_c, 0, 69, 53
2, 83589, Note_on_c, 0, 29, 0
2, 83591, Note_on_c, 0, 41, 25
2, 84257, Note_on_c, 0, 41, 0
2, 84264, Note_on_c, 0, 29, 32
2, 84266, Note_on_c, 0, 72, 55
2, 84267, Note_on_c, 0, 41, 25
2, 84633, Note_on_c, 0, 41, 0
2, 84638, Note_on_c, 0, 41, 38
2, 84640, Note_on_c, 0, 64, 39
2, 84641, Note_on_c, 0, 29, 0
2, 84652, Note_on_c, 0, 58, 40
2, 84652, Note_on_c, 0, 50, 37
2, 84728, Note_on_c, 0, 69, 0
2, 84728, Note_on_c, 0, 67, 0
2, 84729, Note_on_c, 0, 57, 0
2, 84729, Note_on_c, 0, 65, 0
2, 85711, Note_on_c, 0, 65, 30
2, 85969, Note_on_c, 0, 72, 0
2, 86422, Note_on_c, 0, 72, 49
2, 86799, Note_on_c, 0, 72, 0
2, 86807, Note_on_c, 0, 48, 0
2, 86807, Note_on_c, 0, 65, 0
2, 86810, Note_on_c, 0, 72, 48
2, 86814, Note_on_c, 0, 41, 0
2, 86815, Note_on_c, 0, 65, 24
2, 86818, Note_on_c, 0, 48, 31
2, 86818, Note_on_c, 0, 57, 35
2, 86821, Note_on_c, 0, 41, 33
2, 86894, Note_on_c, 0, 58, 0
2, 86895, Note_on_c, 0, 50, 0
2, 86899, Note_on_c, 0, 64, 0
2, 87267, Note_on_c, 0, 65, 0
2, 87521, Note_on_c, 0, 41, 0
2, 87524, Note_on_c, 0, 45, 29
2, 87525, Note_on_c, 0, 41, 24
2, 87526, Note_on_c, 0, 70, 53
2, 87528, Note_on_c, 0, 45, 0
2, 87708, Note_on_c, 0, 69, 47
2, 87754, Note_on_c, 0, 70, 0
2, 87759, Note_on_c, 0, 72, 0
2, 87889, Note_on_c, 0, 41, 0
2, 87900, Note_on_c, 0, 41, 22
2, 87900, Note_on_c, 0, 65, 40
2, 87939, Note_on_c, 0, 69, 0
2, 88611, Note_on_c, 0, 41, 0
2, 88618, Note_on_c, 0, 69, 51
2, 88618, Note_on_c, 0, 41, 28
2, 88621, Note_on_c, 0, 29, 33
2, 88627, Note_on_c, 0, 29, 0
2, 88995, Note_on_c, 0, 41, 0
2, 89003, Note_on_c, 0, 41, 36
2, 89011, Note_on_c, 0, 69, 0
2, 89022, Note_on_c, 0, 69, 47
2, 89030, Note_on_c, 0, 58, 33
2, 89031, Note_on_c, 0, 50, 30
2, 89080, Note_on_c, 0, 57, 0
2, 89081, Note_on_c, 0, 48, 0
2, 89082, Note_on_c, 0, 65, 0
2, 90166, Note_on_c, 0, 67, 30
2, 90930, Note_on_c, 0, 72, 42
2, 91092, Control_c, 0, 64, 127
2, 91320, Note_on_c, 0, 77, 45
2, 91322, Note_on_c, 0, 69, 0
2, 91330, Note_on_c, 0, 69, 32
2, 91333, Note_on_c, 0, 45, 28
2, 91338, Note_on_c, 0, 45, 0
2, 91351, Note_on_c, 0, 65, 28
2, 91356, Note_on_c, 0, 50, 0
2, 91356, Note_on_c, 0, 72, 0
2, 91357, Note_on_c, 0, 67, 0
2, 91357, Note_on_c, 0, 58, 0
2, 91366, Control_c, 0, 64, 0
2, 91392, Note_on_c, 0, 41, 0
2, 91576, Control_c, 0, 64, 127
2, 91872, Note_on_c, 0, 60, 27
2, 92042, Note_on_c, 0, 79, 65
2, 92046, Note_on_c, 0, 43, 36
2, 92052, Note_on_c, 0, 43, 0
2, 92065, Note_on_c, 0, 67, 22
2, 92152, Control_c, 0, 64, 0
2, 92216, Note_on_c, 0, 53, 40
2, 92380, Note_on_c, 0, 81, 56
2, 92381, Note_on_c, 0, 45, 33
2, 92384, Note_on_c, 0, 48, 30
2, 92390, Note_on_c, 0, 45, 0
2, 92421, Note_on_c, 0, 65, 0
2, 92425, Note_on_c, 0, 65, 28
2, 92467, Note_on_c, 0, 67, 0
2, 92551, Note_on_c, 0, 48, 0
2, 92574, Note_on_c, 0, 60, 0
2, 92581, Note_on_c, 0, 60, 34
2, 92597, Note_on_c, 0, 77, 0
2, 92689, Control_c, 0, 64, 127
2, 92741, Note_on_c, 0, 67, 42
2, 92820, Note_on_c, 0, 65, 0
2, 92826, Note_on_c, 0, 65, 12
2, 93083, Note_on_c, 0, 84, 63
2, 93096, Note_on_c, 0, 60, 0
2, 93102, Note_on_c, 0, 48, 32
2, 93105, Note_on_c, 0, 60, 34
2, 93107, Note_on_c, 0, 72, 37
2, 93273, Note_on_c, 0, 72, 0
2, 93282, Note_on_c, 0, 72, 21
2, 93373, Control_c, 0, 64, 0
2, 93442, Note_on_c, 0, 48, 0
2, 93450, Note_on_c, 0, 67, 0
2, 93452, Note_on_c, 0, 76, 54
2, 93454, Note_on_c, 0, 67, 50
2, 93455, Note_on_c, 0, 70, 48
2, 93455, Note_on_c, 0, 53, 0
2, 93457, Note_on_c, 0, 65, 0
2, 93458, Note_on_c, 0, 69, 0
2, 93459, Note_on_c, 0, 72, 0
2, 93459, Note_on_c, 0, 81, 0
2, 93460, Note_on_c, 0, 60, 0
2, 93460, Note_on_c, 0, 79, 0
2, 93473, Note_on_c, 0, 84, 0
2, 93726, Control_c, 0, 64, 127
2, 94012, Note_on_c, 0, 60, 38
2, 94349, Note_on_c, 0, 53, 36
2, 94533, Note_on_c, 0, 67, 0
2, 94537, Note_on_c, 0, 77, 45
2, 94544, Note_on_c, 0, 67, 41
2, 94571, Note_on_c, 0, 76, 0
2, 94586, Control_c, 0, 64, 0
2, 94671, Control_c, 0, 64, 127
2, 94717, Note_on_c, 0, 60, 0
2, 94727, Note_on_c, 0, 60, 35
2, 94871, Note_on_c, 0, 70, 0
2, 94882, Note_on_c, 0, 70, 56
2, 95245, Note_on_c, 0, 84, 51
2, 95247, Note_on_c, 0, 60, 0
2, 95256, Note_on_c, 0, 60, 36
2, 95259, Note_on_c, 0, 72, 32
2, 95270, Note_on_c, 0, 72, 0
2, 95592, Note_on_c, 0, 84, 0
2, 95603, Note_on_c, 0, 84, 61
2, 95619, Note_on_c, 0, 41, 30
2, 95623, Note_on_c, 0, 53, 0
2, 95623, Note_on_c, 0, 77, 0
2, 95626, Note_on_c, 0, 60, 0
2, 95626, Note_on_c, 0, 70, 0
2, 95627, Note_on_c, 0, 65, 34
2, 95627, Note_on_c, 0, 69, 44
2, 95631, Note_on_c, 0, 67, 0
2, 95636, Control_c, 0, 64, 0
2, 95692, Note_on_c, 0, 41, 0
2, 95992, Control_c, 0, 64, 127
2, 96144, Note_on_c, 0, 60, 40
2, 96319, Note_on_c, 0, 82, 62
2, 96324, Note_on_c, 0, 45, 30
2, 96330, Note_on_c, 0, 45, 0
2, 96353, Note_on_c, 0, 69, 0
2, 96487, Note_on_c, 0, 53, 42
2, 96489, Note_on_c, 0, 81, 54
2, 96508, Control_c, 0, 64, 0
2, 96514, Note_on_c, 0, 65, 0
2, 96622, Note_on_c, 0, 84, 0
2, 96657, Note_on_c, 0, 77, 51
2, 96667, Note_on_c, 0, 65, 41
2, 96783, Control_c, 0, 64, 127
2, 96829, Note_on_c, 0, 60, 0
2, 96839, Note_on_c, 0, 60, 39
2, 97023, Note_on_c, 0, 67, 46
2, 97024, Note_on_c, 0, 48, 31
2, 97029, Note_on_c, 0, 48, 0
2, 97075, Note_on_c, 0, 82, 0
2, 97128, Note_on_c, 0, 65, 0
2, 97133, Note_on_c, 0, 65, 22
2, 97367, Note_on_c, 0, 81, 0
2, 97373, Note_on_c, 0, 41, 34
2, 97374, Note_on_c, 0, 60, 0
2, 97374, Note_on_c, 0, 81, 59
2, 97377, Note_on_c, 0, 48, 38
2, 97378, Note_on_c, 0, 60, 37
2, 97382, Note_on_c, 0, 41, 0
2, 97388, Note_on_c, 0, 72, 38
2, 97397, Note_on_c, 0, 72, 0
2, 97751, Note_on_c, 0, 81, 0
2, 97757, Note_on_c, 0, 65, 0
2, 97758, Note_on_c, 0, 77, 0
2, 97758, Note_on_c, 0, 60, 0
2, 97758, Note_on_c, 0, 67, 0
2, 97759, Note_on_c, 0, 53, 0
2, 97762, Note_on_c, 0, 81, 54
2, 97762, Note_on_c, 0, 67, 41
2, 97766, Note_on_c, 0, 48, 0
2, 97778, Control_c, 0, 64, 0
2, 97778, Note_on_c, 0, 41, 28
2, 97785, Note_on_c, 0, 70, 38
2, 97943, Note_on_c, 0, 41, 0
2, 97996, Control_c, 0, 64, 127
2, 98386, Note_on_c, 0, 60, 20
2, 98787, Note_on_c, 0, 53, 30
2, 98995, Note_on_c, 0, 67, 0
2, 98999, Note_on_c, 0, 79, 58
2, 99006, Note_on_c, 0, 67, 38
2, 99210, Note_on_c, 0, 60, 0
2, 99214, Note_on_c, 0, 60, 32
2, 99402, Note_on_c, 0, 70, 0
2, 99406, Note_on_c, 0, 48, 25
2, 99411, Note_on_c, 0, 70, 40
2, 99548, Note_on_c, 0, 67, 0
2, 99548, Note_on_c, 0, 81, 0
2, 99962, Note_on_c, 0, 60, 0
2, 99973, Note_on_c, 0, 60, 21
2, 100500, Note_on_c, 0, 48, 0
2, 100504, Note_on_c, 0, 48, 20
2, 100508, Note_on_c, 0, 72, 38
2, 100599, Note_on_c, 0, 77, 45
2, 100692, Note_on_c, 0, 79, 0
2, 100703, Note_on_c, 0, 79, 56
2, 100709, Note_on_c, 0, 41, 24
2, 100715, Note_on_c, 0, 41, 0
2, 100850, Note_on_c, 0, 84, 50
2, 100874, Note_on_c, 0, 65, 39
2, 100903, Note_on_c, 0, 69, 19
2, 100910, Control_c, 0, 64, 0
2, 100919, Note_on_c, 0, 70, 0
2, 100922, Note_on_c, 0, 48, 0
2, 100945, Note_on_c, 0, 60, 0
2, 100945, Note_on_c, 0, 79, 0
2, 101237, Control_c, 0, 64, 127
2, 101345, Note_on_c, 0, 77, 0
2, 103395, Note_on_c, 0, 53, 0
2, 105116, Note_on_c, 0, 72, 0
2, 105461, Note_on_c, 0, 84, 0
2, 105484, Note_on_c, 0, 65, 0
2, 105515, Note_on_c, 0, 69, 0
2, 106125, Control_c, 0, 64, 0
2, 106126, End_track
0, 0, End_of_file
