0, 0, Header, 1, 2, 384
1, 0, Start_track
1, 0, Tempo, 500000
1, 0, Time_signature, 4, 2, 24, 8
1, 1, End_track
2, 0, Start_track
2, 1397, Control_c, 0, 64, 127
2, 1928, Note_on_c, 0, 78, 89
2, 2107, Note_on_c, 0, 76, 87
2, 2123, Control_c, 0, 64, 0
2, 2124, Note_on_c, 0, 47, 52
2, 2156, Note_on_c, 0, 78, 0
2, 2234, Control_c, 0, 64, 127
2, 2279, Note_on_c, 0, 54, 55
2, 2436, Note_on_c, 0, 74, 88
2, 2438, Note_on_c, 0, 43, 61
2, 2600, Note_on_c, 0, 50, 58
2, 2759, Note_on_c, 0, 71, 85
2, 2772, Note_on_c, 0, 55, 60
2, 2773, Note_on_c, 0, 59, 72
2, 2914, Note_on_c, 0, 62, 75
2, 3100, Note_on_c, 0, 69, 82
2, 3103, Note_on_c, 0, 57, 64
2, 3110, Note_on_c, 0, 50, 0
2, 3118, Note_on_c, 0, 74, 0
2, 3119, Note_on_c, 0, 50, 55
2, 3122, Note_on_c, 0, 42, 49
2, 3124, Note_on_c, 0, 74, 55
2, 3130, Control_c, 0, 64, 0
2, 3132, Note_on_c, 0, 54, 0
2, 3133, Note_on_c, 0, 59, 0
2, 3133, Note_on_c, 0, 71, 0
2, 3134, Note_on_c, 0, 47, 0
2, 3134, Note_on_c, 0, 55, 0
2, 3135, Note_on_c, 0, 43, 0
2, 3135, Note_on_c, 0, 76, 0
2, 3317, Control_c, 0, 64, 127
2, 3440, Note_on_c, 0, 74, 0
2, 4200, Note_on_c, 0, 57, 0
2, 4667, Note_on_c, 0, 78, 93
2, 4839, Note_on_c, 0, 76, 91
2, 4863, Note_on_c, 0, 47, 64
2, 4879, Control_c, 0, 64, 0
2, 4884, Note_on_c, 0, 69, 0
2, 4885, Note_on_c, 0, 42, 0
2, 4886, Note_on_c, 0, 78, 0
2, 4892, Note_on_c, 0, 62, 0
2, 4899, Note_on_c, 0, 50, 0
2, 4984, Control_c, 0, 64, 127
2, 5010, Note_on_c, 0, 54, 60
2, 5164, Note_on_c, 0, 74, 86
2, 5172, Note_on_c, 0, 43, 65
2, 5190, Control_c, 0, 64, 0
2, 5222, Control_c, 0, 64, 127
2, 5334, Note_on_c, 0, 50, 58
2, 5483, Note_on_c, 0, 47, 0
2, 5486, Note_on_c, 0, 71, 82
2, 5487, Note_on_c, 0, 55, 66
2, 5493, Note_on_c, 0, 47, 56
2, 5495, Note_on_c, 0, 59, 68
2, 5657, Note_on_c, 0, 62, 64
2, 5829, Note_on_c, 0, 50, 0
2, 5831, Note_on_c, 0, 69, 79
2, 5833, Note_on_c, 0, 57, 61
2, 5835, Note_on_c, 0, 42, 52
2, 5836, Note_on_c, 0, 50, 47
2, 5850, Control_c, 0, 64, 0
2, 5853, Note_on_c, 0, 55, 0
2, 5853, Note_on_c, 0, 54, 0
2, 5854, Note_on_c, 0, 74, 0
2, 5854, Note_on_c, 0, 59, 0
2, 5855, Note_on_c, 0, 71, 0
2, 5855, Note_on_c, 0, 43, 0
2, 5855, Note_on_c, 0, 76, 0
2, 5855, Note_on_c, 0, 47, 0
2, 6005, Control_c, 0, 64, 127
2, 6896, Note_on_c, 0, 62, 0
2, 7365, Note_on_c, 0, 50, 0
2, 7369, Note_on_c, 0, 50, 45
2, 7369, Note_on_c, 0, 78, 93
2, 7538, Note_on_c, 0, 76, 90
2, 7560, Note_on_c, 0, 47, 65
2, 7575, Note_on_c, 0, 50, 0
2, 7575, Note_on_c, 0, 57, 0
2, 7575, Note_on_c, 0, 69, 0
2, 7576, Note_on_c, 0, 42, 0
2, 7576, Note_on_c, 0, 78, 0
2, 7577, Control_c, 0, 64, 0
2, 7649, Control_c, 0, 64, 127
2, 7691, Note_on_c, 0, 54, 65
2, 7849, Note_on_c, 0, 74, 87
2, 7857, Note_on_c, 0, 43, 63
2, 8017, Note_on_c, 0, 50, 63
2, 8161, Control_c, 0, 64, 0
2, 8163, Note_on_c, 0, 76, 0
2, 8167, Note_on_c, 0, 43, 0
2, 8169, Note_on_c, 0, 54, 0
2, 8170, Note_on_c, 0, 42, 72
2, 8170, Note_on_c, 0, 50, 0
2, 8171, Note_on_c, 0, 74, 0
2, 8173, Note_on_c, 0, 76, 88
2, 8176, Note_on_c, 0, 64, 84
2, 8179, Note_on_c, 0, 47, 0
2, 8225, Control_c, 0, 64, 127
2, 8321, Note_on_c, 0, 50, 65
2, 8492, Note_on_c, 0, 81, 94
2, 8494, Note_on_c, 0, 57, 74
2, 8498, Note_on_c, 0, 69, 77
2, 8827, Note_on_c, 0, 95, 101
2, 8836, Note_on_c, 0, 83, 88
2, 8838, Note_on_c, 0, 71, 76
2, 8839, Note_on_c, 0, 69, 0
2, 8840, Note_on_c, 0, 90, 92
2, 8842, Note_on_c, 0, 74, 71
2, 8843, Note_on_c, 0, 86, 91
2, 8850, Note_on_c, 0, 69, 67
2, 8851, Note_on_c, 0, 66, 67
2, 10145, Note_on_c, 0, 78, 94
2, 10314, Note_on_c, 0, 76, 0
2, 10324, Note_on_c, 0, 76, 86
2, 10339, Note_on_c, 0, 47, 64
2, 10353, Note_on_c, 0, 64, 0
2, 10355, Note_on_c, 0, 95, 0
2, 10356, Note_on_c, 0, 42, 0
2, 10356, Note_on_c, 0, 69, 0
2, 10356, Note_on_c, 0, 86, 0
2, 10356, Note_on_c, 0, 57, 0
2, 10356, Note_on_c, 0, 71, 0
2, 10356, Note_on_c, 0, 83, 0
2, 10356, Note_on_c, 0, 50, 0
2, 10356, Note_on_c, 0, 90, 0
2, 10357, Note_on_c, 0, 81, 0
2, 10357, Control_c, 0, 64, 0
2, 10358, Note_on_c, 0, 66, 0
2, 10358, Note_on_c, 0, 74, 0
2, 10444, Control_c, 0, 64, 127
2, 10490, Note_on_c, 0, 54, 57
2, 10647, Note_on_c, 0, 43, 61
2, 10648, Note_on_c, 0, 74, 84
2, 10667, Note_on_c, 0, 78, 0
2, 10803, Note_on_c, 0, 50, 63
2, 10959, Note_on_c, 0, 50, 0
2, 10968, Note_on_c, 0, 42, 67
2, 10969, Note_on_c, 0, 69, 87
2, 10970, Note_on_c, 0, 50, 62
2, 10976, Note_on_c, 0, 57, 72
2, 10977, Control_c, 0, 64, 0
2, 10980, Note_on_c, 0, 43, 0
2, 10985, Note_on_c, 0, 47, 0
2, 10985, Note_on_c, 0, 74, 0
2, 10986, Note_on_c, 0, 54, 0
2, 10990, Note_on_c, 0, 76, 0
2, 11066, Control_c, 0, 64, 127
2, 11322, Note_on_c, 0, 71, 90
2, 11340, Note_on_c, 0, 66, 68
2, 11343, Note_on_c, 0, 42, 0
2, 11343, Note_on_c, 0, 50, 0
2, 11345, Note_on_c, 0, 62, 71
2, 11345, Note_on_c, 0, 59, 70
2, 11346, Note_on_c, 0, 47, 58
2, 11350, Note_on_c, 0, 50, 61
2, 11351, Note_on_c, 0, 42, 51
2, 11374, Control_c, 0, 64, 0
2, 11381, Note_on_c, 0, 57, 0
2, 11386, Note_on_c, 0, 69, 0
2, 11773, Control_c, 0, 64, 127
2, 12933, Note_on_c, 0, 35, 39
2, 12950, Control_c, 0, 64, 0
2, 12960, Note_on_c, 0, 59, 0
2, 12960, Note_on_c, 0, 62, 0
2, 12960, Note_on_c, 0, 66, 0
2, 12963, Note_on_c, 0, 71, 0
2, 12963, Note_on_c, 0, 50, 0
2, 12979, Note_on_c, 0, 42, 0
2, 13002, Note_on_c, 0, 47, 0
2, 13025, Control_c, 0, 64, 127
2, 13104, Note_on_c, 0, 59, 54
2, 13106, Note_on_c, 0, 62, 49
2, 13109, Note_on_c, 0, 66, 47
2, 13120, Note_on_c, 0, 42, 42
2, 13120, Note_on_c, 0, 50, 45
2, 13263, Note_on_c, 0, 35, 0
2, 13267, Note_on_c, 0, 35, 41
2, 13416, Note_on_c, 0, 66, 0
2, 13420, Note_on_c, 0, 66, 53
2, 13424, Note_on_c, 0, 59, 0
2, 13424, Note_on_c, 0, 62, 0
2, 13430, Note_on_c, 0, 62, 53
2, 13433, Note_on_c, 0, 59, 51
2, 13440, Note_on_c, 0, 42, 0
2, 13440, Note_on_c, 0, 50, 0
2, 13444, Note_on_c, 0, 42, 37
2, 13444, Note_on_c, 0, 50, 47
2, 13585, Note_on_c, 0, 35, 0
2, 13591, Note_on_c, 0, 35, 44
2, 13731, Note_on_c, 0, 66, 0
2, 13736, Note_on_c, 0, 66, 52
2, 13739, Note_on_c, 0, 42, 0
2, 13739, Note_on_c, 0, 59, 0
2, 13739, Note_on_c, 0, 62, 0
2, 13747, Note_on_c, 0, 50, 0
2, 13747, Note_on_c, 0, 62, 58
2, 13748, Note_on_c, 0, 47, 48
2, 13750, Note_on_c, 0, 42, 47
2, 13750, Note_on_c, 0, 59, 51
2, 13754, Note_on_c, 0, 47, 0
2, 13756, Note_on_c, 0, 50, 54
2, 13900, Note_on_c, 0, 35, 0
2, 13905, Note_on_c, 0, 35, 45
2, 14039, Note_on_c, 0, 42, 0
2, 14050, Note_on_c, 0, 42, 60
2, 14062, Note_on_c, 0, 50, 0
2, 14069, Note_on_c, 0, 50, 60
2, 14077, Note_on_c, 0, 59, 0
2, 14085, Note_on_c, 0, 66, 0
2, 14086, Note_on_c, 0, 59, 66
2, 14090, Note_on_c, 0, 66, 70
2, 14240, Note_on_c, 0, 47, 50
2, 14290, Note_on_c, 0, 54, 61
2, 14361, Note_on_c, 0, 59, 0
2, 14364, Note_on_c, 0, 61, 65
2, 14365, Note_on_c, 0, 59, 65
2, 14446, Note_on_c, 0, 62, 0
2, 14450, Note_on_c, 0, 62, 68
2, 14476, Note_on_c, 0, 66, 0
2, 14486, Note_on_c, 0, 66, 62
2, 14545, Note_on_c, 0, 54, 0
2, 14550, Note_on_c, 0, 54, 74
2, 14576, Note_on_c, 0, 59, 0
2, 14584, Note_on_c, 0, 47, 0
2, 14587, Note_on_c, 0, 59, 73
2, 14589, Note_on_c, 0, 47, 54
2, 14622, Note_on_c, 0, 61, 0
2, 14633, Note_on_c, 0, 61, 76
2, 14684, Note_on_c, 0, 62, 0
2, 14689, Note_on_c, 0, 62, 70
2, 14722, Note_on_c, 0, 66, 0
2, 14727, Note_on_c, 0, 66, 73
2, 14773, Note_on_c, 0, 71, 78
2, 14837, Note_on_c, 0, 59, 0
2, 14843, Note_on_c, 0, 59, 81
2, 14868, Note_on_c, 0, 62, 0
2, 14874, Note_on_c, 0, 62, 79
2, 14882, Note_on_c, 0, 50, 0
2, 14883, Note_on_c, 0, 35, 0
2, 14883, Note_on_c, 0, 47, 0
2, 14884, Note_on_c, 0, 71, 0
2, 14889, Control_c, 0, 64, 0
2, 14899, Note_on_c, 0, 42, 0
2, 14906, Note_on_c, 0, 54, 0
2, 14906, Note_on_c, 0, 61, 0
2, 14914, Control_c, 0, 64, 127
2, 14929, Note_on_c, 0, 66, 0
2, 14934, Note_on_c, 0, 66, 74
2, 14992, Note_on_c, 0, 71, 80
2, 15062, Note_on_c, 0, 73, 80
2, 15094, Note_on_c, 0, 74, 83
2, 15137, Note_on_c, 0, 62, 0
2, 15147, Note_on_c, 0, 62, 84
2, 15160, Note_on_c, 0, 66, 0
2, 15165, Note_on_c, 0, 66, 76
2, 15214, Note_on_c, 0, 71, 0
2, 15220, Note_on_c, 0, 71, 82
2, 15260, Note_on_c, 0, 73, 0
2, 15269, Note_on_c, 0, 73, 73
2, 15329, Note_on_c, 0, 74, 0
2, 15335, Note_on_c, 0, 74, 78
2, 15381, Note_on_c, 0, 78, 94
2, 15490, Note_on_c, 0, 66, 0
2, 15491, Note_on_c, 0, 73, 0
2, 15491, Note_on_c, 0, 71, 0
2, 15491, Control_c, 0, 64, 0
2, 15492, Note_on_c, 0, 74, 0
2, 15498, Note_on_c, 0, 59, 0
2, 15505, Note_on_c, 0, 62, 0
2, 15513, Note_on_c, 0, 78, 0
2, 15518, Note_on_c, 0, 90, 99
2, 15519, Note_on_c, 0, 55, 76
2, 15519, Note_on_c, 0, 78, 101
2, 15523, Note_on_c, 0, 86, 91
2, 15524, Note_on_c, 0, 83, 80
2, 15559, Control_c, 0, 64, 127
2, 15673, Note_on_c, 0, 62, 68
2, 15674, Note_on_c, 0, 78, 0
2, 15674, Note_on_c, 0, 86, 0
2, 15679, Note_on_c, 0, 78, 86
2, 15679, Note_on_c, 0, 86, 88
2, 15682, Note_on_c, 0, 83, 0
2, 15689, Note_on_c, 0, 83, 65
2, 15827, Note_on_c, 0, 67, 65
2, 15828, Note_on_c, 0, 78, 0
2, 15828, Note_on_c, 0, 86, 0
2, 15828, Note_on_c, 0, 90, 0
2, 15834, Note_on_c, 0, 90, 82
2, 15835, Note_on_c, 0, 86, 82
2, 15836, Note_on_c, 0, 83, 0
2, 15838, Note_on_c, 0, 78, 73
2, 15842, Note_on_c, 0, 83, 64
2, 15974, Note_on_c, 0, 78, 0
2, 15974, Note_on_c, 0, 86, 0
2, 15974, Note_on_c, 0, 90, 0
2, 15982, Note_on_c, 0, 83, 0
2, 15984, Note_on_c, 0, 90, 88
2, 15985, Note_on_c, 0, 78, 72
2, 15985, Note_on_c, 0, 86, 83
2, 15986, Note_on_c, 0, 83, 66
2, 15989, Note_on_c, 0, 71, 57
2, 16143, Note_on_c, 0, 78, 0
2, 16143, Note_on_c, 0, 86, 0
2, 16143, Note_on_c, 0, 90, 0
2, 16147, Note_on_c, 0, 78, 83
2, 16147, Note_on_c, 0, 90, 85
2, 16151, Note_on_c, 0, 83, 0
2, 16151, Note_on_c, 0, 74, 62
2, 16151, Note_on_c, 0, 86, 87
2, 16162, Note_on_c, 0, 83, 66
2, 16296, Note_on_c, 0, 90, 0
2, 16304, Note_on_c, 0, 67, 0
2, 16304, Note_on_c, 0, 78, 0
2, 16304, Note_on_c, 0, 83, 0
2, 16304, Note_on_c, 0, 86, 0
2, 16308, Note_on_c, 0, 90, 89
2, 16308, Note_on_c, 0, 78, 82
2, 16308, Note_on_c, 0, 86, 86
2, 16310, Note_on_c, 0, 83, 71
2, 16314, Note_on_c, 0, 67, 66
2, 16458, Note_on_c, 0, 71, 0
2, 16458, Note_on_c, 0, 78, 0
2, 16458, Note_on_c, 0, 86, 0
2, 16458, Note_on_c, 0, 90, 0
2, 16462, Note_on_c, 0, 90, 77
2, 16463, Note_on_c, 0, 71, 62
2, 16463, Note_on_c, 0, 78, 74
2, 16464, Note_on_c, 0, 86, 86
2, 16604, Note_on_c, 0, 78, 0
2, 16611, Note_on_c, 0, 74, 0
2, 16611, Note_on_c, 0, 90, 0
2, 16615, Note_on_c, 0, 78, 77
2, 16617, Note_on_c, 0, 90, 91
2, 16621, Note_on_c, 0, 74, 63
2, 16765, Note_on_c, 0, 67, 0
2, 16765, Note_on_c, 0, 83, 0
2, 16765, Note_on_c, 0, 86, 0
2, 16769, Note_on_c, 0, 95, 101
2, 16772, Note_on_c, 0, 83, 86
2, 16773, Note_on_c, 0, 90, 0
2, 16774, Note_on_c, 0, 67, 83
2, 16776, Note_on_c, 0, 86, 93
2, 16784, Note_on_c, 0, 90, 77
2, 16911, Note_on_c, 0, 83, 0
2, 16911, Note_on_c, 0, 86, 0
2, 16911, Note_on_c, 0, 90, 0
2, 16911, Note_on_c, 0, 95, 0
2, 16917, Note_on_c, 0, 95, 93
2, 16917, Note_on_c, 0, 86, 84
2, 16918, Note_on_c, 0, 83, 88
2, 16919, Note_on_c, 0, 71, 0
2, 16922, Note_on_c, 0, 90, 88
2, 16923, Note_on_c, 0, 71, 74
2, 17072, Note_on_c, 0, 74, 0
2, 17079, Note_on_c, 0, 74, 73
2, 17110, Note_on_c, 0, 79, 31
2, 17249, Note_on_c, 0, 55, 0
2, 17252, Note_on_c, 0, 100, 105
2, 17259, Note_on_c, 0, 93, 84
2, 17260, Note_on_c, 0, 57, 81
2, 17260, Note_on_c, 0, 88, 91
2, 17261, Note_on_c, 0, 97, 91
2, 17261, Note_on_c, 0, 69, 80
2, 17261, Note_on_c, 0, 62, 0
2, 17261, Note_on_c, 0, 90, 0
2, 17262, Note_on_c, 0, 67, 0
2, 17262, Note_on_c, 0, 74, 0
2, 17262, Note_on_c, 0, 78, 0
2, 17262, Note_on_c, 0, 83, 0
2, 17263, Note_on_c, 0, 95, 0
2, 17266, Control_c, 0, 64, 0
2, 17272, Note_on_c, 0, 71, 0
2, 17272, Note_on_c, 0, 79, 0
2, 17272, Note_on_c, 0, 86, 0
2, 17326, Control_c, 0, 64, 127
2, 17379, Note_on_c, 0, 69, 0
2, 17395, Note_on_c, 0, 57, 0
2, 17402, Note_on_c, 0, 100, 0
2, 17410, Note_on_c, 0, 88, 0
2, 17410, Note_on_c, 0, 93, 0
2, 17410, Note_on_c, 0, 97, 0
2, 17413, Note_on_c, 0, 100, 88
2, 17416, Note_on_c, 0, 97, 88
2, 17419, Note_on_c, 0, 88, 79
2, 17420, Note_on_c, 0, 64, 62
2, 17421, Note_on_c, 0, 93, 75
2, 17567, Note_on_c, 0, 69, 55
2, 17725, Note_on_c, 0, 64, 0
2, 17728, Note_on_c, 0, 86, 97
2, 17731, Note_on_c, 0, 64, 67
2, 17731, Note_on_c, 0, 74, 77
2, 17734, Note_on_c, 0, 76, 73
2, 17740, Note_on_c, 0, 76, 0
2, 17886, Note_on_c, 0, 69, 0
2, 17886, Note_on_c, 0, 88, 0
2, 17891, Note_on_c, 0, 69, 68
2, 17892, Note_on_c, 0, 88, 91
2, 17895, Note_on_c, 0, 76, 85
2, 18039, Note_on_c, 0, 73, 77
2, 18201, Note_on_c, 0, 93, 0
2, 18205, Note_on_c, 0, 93, 106
2, 18207, Note_on_c, 0, 97, 0
2, 18207, Note_on_c, 0, 81, 99
2, 18209, Note_on_c, 0, 100, 0
2, 18209, Note_on_c, 0, 76, 0
2, 18210, Note_on_c, 0, 64, 0
2, 18210, Note_on_c, 0, 86, 0
2, 18210, Note_on_c, 0, 74, 0
2, 18211, Note_on_c, 0, 73, 0
2, 18211, Note_on_c, 0, 88, 0
2, 18211, Note_on_c, 0, 69, 0
2, 18212, Note_on_c, 0, 59, 86
2, 18212, Control_c, 0, 64, 0
2, 18255, Control_c, 0, 64, 127
2, 18367, Note_on_c, 0, 100, 105
2, 18369, Note_on_c, 0, 66, 75
2, 18373, Note_on_c, 0, 88, 96
2, 18507, Note_on_c, 0, 71, 68
2, 18662, Note_on_c, 0, 93, 0
2, 18669, Note_on_c, 0, 93, 96
2, 18670, Note_on_c, 0, 81, 0
2, 18671, Note_on_c, 0, 102, 93
2, 18672, Note_on_c, 0, 98, 82
2, 18677, Note_on_c, 0, 98, 0
2, 18677, Note_on_c, 0, 81, 96
2, 18681, Note_on_c, 0, 74, 80
2, 18682, Note_on_c, 0, 78, 82
2, 18739, Note_on_c, 0, 100, 0
2, 18747, Note_on_c, 0, 100, 91
2, 18793, Note_on_c, 0, 98, 83
2, 18816, Note_on_c, 0, 93, 0
2, 18827, Note_on_c, 0, 93, 58
2, 18892, Note_on_c, 0, 88, 0
2, 18898, Note_on_c, 0, 88, 86
2, 18959, Note_on_c, 0, 86, 88
2, 19031, Note_on_c, 0, 81, 0
2, 19039, Note_on_c, 0, 81, 69
2, 19110, Note_on_c, 0, 76, 69
2, 19169, Note_on_c, 0, 74, 0
2, 19173, Note_on_c, 0, 74, 72
2, 19230, Note_on_c, 0, 71, 0
2, 19235, Note_on_c, 0, 71, 63
2, 19353, Note_on_c, 0, 66, 0
2, 19360, Note_on_c, 0, 43, 68
2, 19361, Note_on_c, 0, 66, 71
2, 19386, Note_on_c, 0, 102, 0
2, 19387, Note_on_c, 0, 93, 0
2, 19387, Note_on_c, 0, 100, 0
2, 19387, Note_on_c, 0, 86, 0
2, 19388, Note_on_c, 0, 59, 0
2, 19388, Note_on_c, 0, 78, 0
2, 19388, Note_on_c, 0, 81, 0
2, 19388, Note_on_c, 0, 98, 0
2, 19388, Note_on_c, 0, 74, 0
2, 19388, Note_on_c, 0, 88, 0
2, 19388, Note_on_c, 0, 76, 0
2, 19388, Note_on_c, 0, 71, 0
2, 19390, Control_c, 0, 64, 0
2, 19505, Note_on_c, 0, 69, 69
2, 19535, Note_on_c, 0, 50, 48
2, 19584, Control_c, 0, 64, 127
2, 19666, Note_on_c, 0, 74, 70
2, 19667, Note_on_c, 0, 55, 52
2, 19837, Note_on_c, 0, 74, 0
2, 19845, Note_on_c, 0, 66, 0
2, 19846, Note_on_c, 0, 74, 74
2, 19849, Note_on_c, 0, 66, 59
2, 19849, Note_on_c, 0, 59, 59
2, 19850, Note_on_c, 0, 62, 60
2, 19872, Control_c, 0, 64, 0
2, 19883, Note_on_c, 0, 43, 0
2, 19886, Note_on_c, 0, 69, 0
2, 19889, Note_on_c, 0, 50, 0
2, 19898, Note_on_c, 0, 55, 0
2, 19975, Control_c, 0, 64, 127
2, 20149, Note_on_c, 0, 73, 66
2, 20156, Note_on_c, 0, 55, 52
2, 20299, Note_on_c, 0, 76, 74
2, 20313, Note_on_c, 0, 62, 0
2, 20321, Note_on_c, 0, 67, 52
2, 20324, Note_on_c, 0, 62, 58
2, 20451, Note_on_c, 0, 55, 0
2, 20459, Note_on_c, 0, 55, 59
2, 20620, Note_on_c, 0, 74, 0
2, 20627, Note_on_c, 0, 74, 72
2, 20628, Note_on_c, 0, 62, 0
2, 20628, Note_on_c, 0, 66, 0
2, 20632, Note_on_c, 0, 62, 64
2, 20632, Note_on_c, 0, 66, 63
2, 20636, Note_on_c, 0, 69, 64
2, 20636, Note_on_c, 0, 55, 0
2, 20636, Note_on_c, 0, 50, 63
2, 20638, Note_on_c, 0, 59, 0
2, 20638, Note_on_c, 0, 73, 0
2, 20638, Note_on_c, 0, 76, 0
2, 20639, Note_on_c, 0, 67, 0
2, 20639, Control_c, 0, 64, 0
2, 20720, Control_c, 0, 64, 127
2, 20751, Note_on_c, 0, 62, 0
2, 20785, Note_on_c, 0, 76, 71
2, 20800, Note_on_c, 0, 57, 63
2, 20935, Note_on_c, 0, 50, 0
2, 20939, Note_on_c, 0, 50, 54
2, 20945, Note_on_c, 0, 78, 74
2, 21068, Control_c, 0, 64, 0
2, 21069, Note_on_c, 0, 50, 0
2, 21069, Note_on_c, 0, 57, 0
2, 21069, Note_on_c, 0, 76, 0
2, 21069, Note_on_c, 0, 66, 0
2, 21070, Note_on_c, 0, 78, 0
2, 21081, Note_on_c, 0, 69, 0
2, 21081, Note_on_c, 0, 74, 0
2, 21100, Note_on_c, 0, 73, 82
2, 21109, Note_on_c, 0, 45, 65
2, 21109, Note_on_c, 0, 69, 68
2, 21110, Note_on_c, 0, 66, 62
2, 21153, Note_on_c, 0, 45, 0
2, 21158, Control_c, 0, 64, 127
2, 21407, Note_on_c, 0, 57, 67
2, 21419, Note_on_c, 0, 76, 78
2, 21570, Note_on_c, 0, 81, 91
2, 21573, Note_on_c, 0, 78, 93
2, 21583, Note_on_c, 0, 73, 0
2, 21593, Note_on_c, 0, 64, 69
2, 21595, Note_on_c, 0, 61, 64
2, 21719, Note_on_c, 0, 69, 0
2, 21729, Note_on_c, 0, 88, 94
2, 21729, Note_on_c, 0, 69, 73
2, 21880, Note_on_c, 0, 66, 0
2, 21891, Note_on_c, 0, 66, 76
2, 21891, Note_on_c, 0, 57, 0
2, 21891, Control_c, 0, 64, 0
2, 21892, Note_on_c, 0, 81, 0
2, 21892, Note_on_c, 0, 78, 0
2, 21892, Note_on_c, 0, 61, 0
2, 21892, Note_on_c, 0, 64, 0
2, 21892, Note_on_c, 0, 76, 0
2, 21898, Note_on_c, 0, 88, 0
2, 21902, Note_on_c, 0, 59, 61
2, 21907, Note_on_c, 0, 47, 65
2, 21911, Note_on_c, 0, 69, 0
2, 21968, Note_on_c, 0, 47, 0
2, 21980, Control_c, 0, 64, 127
2, 21995, Note_on_c, 0, 59, 0
2, 22046, Note_on_c, 0, 69, 70
2, 22056, Note_on_c, 0, 54, 57
2, 22188, Note_on_c, 0, 74, 78
2, 22219, Note_on_c, 0, 57, 55
2, 22356, Note_on_c, 0, 57, 0
2, 22356, Note_on_c, 0, 74, 0
2, 22360, Note_on_c, 0, 74, 81
2, 22363, Note_on_c, 0, 57, 62
2, 22379, Note_on_c, 0, 69, 0
2, 22384, Note_on_c, 0, 69, 55
2, 22387, Note_on_c, 0, 66, 0
2, 22390, Note_on_c, 0, 62, 60
2, 22391, Note_on_c, 0, 66, 51
2, 22679, Note_on_c, 0, 54, 0
2, 22681, Note_on_c, 0, 73, 73
2, 22690, Note_on_c, 0, 54, 67
2, 22794, Note_on_c, 0, 54, 0
2, 22796, Note_on_c, 0, 57, 0
2, 22796, Note_on_c, 0, 69, 0
2, 22797, Note_on_c, 0, 66, 0
2, 22797, Note_on_c, 0, 62, 0
2, 22797, Control_c, 0, 64, 0
2, 22832, Note_on_c, 0, 74, 0
2, 22838, Note_on_c, 0, 74, 81
2, 22848, Note_on_c, 0, 66, 68
2, 22852, Note_on_c, 0, 57, 62
2, 22852, Note_on_c, 0, 69, 64
2, 22856, Note_on_c, 0, 62, 59
2, 22871, Control_c, 0, 64, 127
2, 23012, Note_on_c, 0, 54, 59
2, 23168, Note_on_c, 0, 50, 72
2, 23193, Note_on_c, 0, 54, 0
2, 23193, Note_on_c, 0, 73, 0
2, 23194, Note_on_c, 0, 66, 0
2, 23195, Note_on_c, 0, 74, 0
2, 23195, Note_on_c, 0, 69, 0
2, 23195, Note_on_c, 0, 62, 0
2, 23196, Note_on_c, 0, 57, 0
2, 23196, Control_c, 0, 64, 0
2, 23247, Control_c, 0, 64, 127
2, 23320, Note_on_c, 0, 88, 95
2, 23333, Note_on_c, 0, 57, 64
2, 23335, Note_on_c, 0, 66, 60
2, 23338, Note_on_c, 0, 76, 77
2, 23475, Note_on_c, 0, 83, 87
2, 23481, Note_on_c, 0, 78, 80
2, 23488, Note_on_c, 0, 81, 75
2, 23633, Note_on_c, 0, 50, 0
2, 23633, Note_on_c, 0, 88, 0
2, 23633, Note_on_c, 0, 57, 0
2, 23634, Note_on_c, 0, 66, 0
2, 23634, Note_on_c, 0, 76, 0
2, 23634, Note_on_c, 0, 78, 0
2, 23634, Control_c, 0, 64, 0
2, 23634, Note_on_c, 0, 81, 0
2, 23634, Note_on_c, 0, 45, 69
2, 23635, Note_on_c, 0, 83, 0
2, 23731, Control_c, 0, 64, 127
2, 23761, Note_on_c, 0, 45, 0
2, 23790, Note_on_c, 0, 86, 94
2, 23798, Note_on_c, 0, 74, 76
2, 23804, Note_on_c, 0, 52, 65
2, 23813, Note_on_c, 0, 61, 57
2, 23948, Note_on_c, 0, 81, 87
2, 23953, Note_on_c, 0, 76, 70
2, 23981, Note_on_c, 0, 78, 45
2, 24112, Note_on_c, 0, 45, 60
2, 24261, Note_on_c, 0, 83, 68
2, 24262, Note_on_c, 0, 71, 82
2, 24399, Note_on_c, 0, 81, 0
2, 24399, Note_on_c, 0, 83, 0
2, 24400, Note_on_c, 0, 78, 0
2, 24400, Note_on_c, 0, 52, 0
2, 24400, Note_on_c, 0, 61, 0
2, 24400, Note_on_c, 0, 86, 0
2, 24401, Note_on_c, 0, 76, 0
2, 24401, Note_on_c, 0, 74, 0
2, 24401, Note_on_c, 0, 45, 0
2, 24402, Control_c, 0, 64, 0
2, 24414, Note_on_c, 0, 71, 0
2, 24424, Note_on_c, 0, 43, 66
2, 24425, Note_on_c, 0, 71, 78
2, 24434, Note_on_c, 0, 79, 62
2, 24436, Note_on_c, 0, 67, 59
2, 24514, Control_c, 0, 64, 127
2, 24602, Note_on_c, 0, 50, 63
2, 24737, Note_on_c, 0, 73, 84
2, 24755, Note_on_c, 0, 69, 68
2, 24768, Note_on_c, 0, 79, 0
2, 24864, Note_on_c, 0, 71, 0
2, 24865, Note_on_c, 0, 67, 0
2, 24865, Control_c, 0, 64, 0
2, 24865, Note_on_c, 0, 43, 0
2, 24891, Note_on_c, 0, 55, 60
2, 24898, Control_c, 0, 64, 127
2, 25052, Note_on_c, 0, 50, 0
2, 25056, Note_on_c, 0, 74, 80
2, 25059, Note_on_c, 0, 50, 49
2, 25064, Note_on_c, 0, 71, 72
2, 25225, Note_on_c, 0, 59, 76
2, 25231, Note_on_c, 0, 55, 0
2, 25231, Note_on_c, 0, 50, 0
2, 25232, Note_on_c, 0, 73, 0
2, 25232, Note_on_c, 0, 69, 0
2, 25232, Note_on_c, 0, 71, 0
2, 25234, Control_c, 0, 64, 0
2, 25305, Control_c, 0, 64, 127
2, 25369, Note_on_c, 0, 76, 84
2, 25376, Note_on_c, 0, 73, 76
2, 25380, Note_on_c, 0, 55, 60
2, 25535, Note_on_c, 0, 50, 49
2, 25663, Note_on_c, 0, 55, 0
2, 25664, Note_on_c, 0, 73, 0
2, 25665, Note_on_c, 0, 50, 0
2, 25665, Note_on_c, 0, 59, 0
2, 25665, Control_c, 0, 64, 0
2, 25667, Note_on_c, 0, 76, 0
2, 25681, Note_on_c, 0, 74, 0
2, 25685, Note_on_c, 0, 40, 64
2, 25686, Note_on_c, 0, 71, 85
2, 25728, Control_c, 0, 64, 127
2, 25847, Note_on_c, 0, 47, 68
2, 25850, Note_on_c, 0, 90, 94
2, 25857, Note_on_c, 0, 78, 79
2, 25866, Note_on_c, 0, 40, 0
2, 25866, Note_on_c, 0, 55, 61
2, 26001, Note_on_c, 0, 83, 78
2, 26005, Note_on_c, 0, 81, 81
2, 26012, Note_on_c, 0, 93, 71
2, 26019, Note_on_c, 0, 93, 0
2, 26157, Note_on_c, 0, 52, 71
2, 26214, Note_on_c, 0, 47, 0
2, 26214, Note_on_c, 0, 71, 0
2, 26215, Note_on_c, 0, 55, 0
2, 26215, Note_on_c, 0, 81, 0
2, 26215, Control_c, 0, 64, 0
2, 26215, Note_on_c, 0, 83, 0
2, 26215, Note_on_c, 0, 78, 0
2, 26227, Note_on_c, 0, 90, 0
2, 26295, Note_on_c, 0, 88, 92
2, 26299, Note_on_c, 0, 67, 83
2, 26302, Note_on_c, 0, 76, 79
2, 26306, Note_on_c, 0, 59, 76
2, 26319, Control_c, 0, 64, 127
2, 26462, Note_on_c, 0, 81, 77
2, 26465, Note_on_c, 0, 78, 79
2, 26622, Note_on_c, 0, 40, 62
2, 26772, Note_on_c, 0, 71, 81
2, 26775, Note_on_c, 0, 83, 65
2, 26907, Note_on_c, 0, 81, 0
2, 26907, Note_on_c, 0, 88, 0
2, 26908, Control_c, 0, 64, 0
2, 26908, Note_on_c, 0, 67, 0
2, 26909, Note_on_c, 0, 59, 0
2, 26909, Note_on_c, 0, 76, 0
2, 26909, Note_on_c, 0, 78, 0
2, 26909, Note_on_c, 0, 52, 0
2, 26909, Note_on_c, 0, 40, 0
2, 26910, Note_on_c, 0, 71, 0
2, 26918, Note_on_c, 0, 83, 0
2, 26935, Note_on_c, 0, 73, 87
2, 26936, Note_on_c, 0, 42, 70
2, 26938, Note_on_c, 0, 69, 69
2, 27018, Control_c, 0, 64, 127
2, 27088, Note_on_c, 0, 49, 61
2, 27240, Note_on_c, 0, 69, 0
2, 27247, Note_on_c, 0, 69, 76
2, 27265, Note_on_c, 0, 66, 61
2, 27391, Note_on_c, 0, 54, 65
2, 27552, Note_on_c, 0, 71, 81
2, 27705, Note_on_c, 0, 57, 65
2, 27847, Note_on_c, 0, 71, 0
2, 27857, Note_on_c, 0, 71, 84
2, 27870, Note_on_c, 0, 62, 65
2, 27870, Note_on_c, 0, 66, 0
2, 27877, Note_on_c, 0, 66, 63
2, 27878, Note_on_c, 0, 54, 0
2, 27878, Note_on_c, 0, 69, 0
2, 27882, Note_on_c, 0, 69, 53
2, 27883, Note_on_c, 0, 54, 59
2, 27893, Note_on_c, 0, 42, 0
2, 27901, Note_on_c, 0, 42, 46
2, 28025, Note_on_c, 0, 50, 65
2, 28135, Note_on_c, 0, 42, 0
2, 28136, Note_on_c, 0, 54, 0
2, 28136, Note_on_c, 0, 49, 0
2, 28136, Note_on_c, 0, 73, 0
2, 28136, Note_on_c, 0, 66, 0
2, 28136, Note_on_c, 0, 62, 0
2, 28136, Note_on_c, 0, 57, 0
2, 28137, Note_on_c, 0, 50, 0
2, 28137, Note_on_c, 0, 69, 0
2, 28139, Control_c, 0, 64, 0
2, 28178, Note_on_c, 0, 47, 67
2, 28198, Note_on_c, 0, 62, 70
2, 28224, Control_c, 0, 64, 127
2, 28275, Note_on_c, 0, 66, 72
2, 28323, Note_on_c, 0, 69, 75
2, 28327, Note_on_c, 0, 54, 64
2, 28346, Note_on_c, 0, 71, 0
2, 28355, Note_on_c, 0, 71, 58
2, 28428, Note_on_c, 0, 74, 75
2, 28469, Note_on_c, 0, 59, 71
2, 28480, Note_on_c, 0, 78, 77
2, 28516, Note_on_c, 0, 81, 87
2, 28531, Note_on_c, 0, 47, 0
2, 28535, Note_on_c, 0, 83, 67
2, 28600, Note_on_c, 0, 86, 90
2, 28615, Note_on_c, 0, 54, 0
2, 28619, Note_on_c, 0, 54, 63
2, 28656, Note_on_c, 0, 90, 90
2, 28694, Note_on_c, 0, 93, 85
2, 28765, Note_on_c, 0, 98, 99
2, 28788, Note_on_c, 0, 45, 69
2, 28836, Note_on_c, 0, 95, 80
2, 28861, Note_on_c, 0, 93, 0
2, 28871, Note_on_c, 0, 93, 61
2, 28899, Note_on_c, 0, 90, 0
2, 28903, Note_on_c, 0, 90, 81
2, 28938, Note_on_c, 0, 54, 0
2, 28938, Note_on_c, 0, 86, 0
2, 28947, Note_on_c, 0, 86, 74
2, 28948, Note_on_c, 0, 54, 66
2, 29015, Note_on_c, 0, 83, 0
2, 29022, Note_on_c, 0, 83, 80
2, 29076, Note_on_c, 0, 59, 0
2, 29076, Note_on_c, 0, 81, 0
2, 29080, Note_on_c, 0, 59, 72
2, 29084, Note_on_c, 0, 81, 81
2, 29130, Note_on_c, 0, 78, 0
2, 29134, Note_on_c, 0, 78, 66
2, 29168, Note_on_c, 0, 74, 0
2, 29177, Note_on_c, 0, 74, 50
2, 29214, Note_on_c, 0, 54, 0
2, 29220, Note_on_c, 0, 54, 69
2, 29253, Note_on_c, 0, 71, 0
2, 29259, Note_on_c, 0, 71, 68
2, 29306, Note_on_c, 0, 69, 0
2, 29318, Note_on_c, 0, 69, 68
2, 29355, Note_on_c, 0, 98, 0
2, 29355, Note_on_c, 0, 45, 0
2, 29356, Note_on_c, 0, 83, 0
2, 29356, Note_on_c, 0, 54, 0
2, 29356, Note_on_c, 0, 71, 0
2, 29356, Note_on_c, 0, 59, 0
2, 29356, Note_on_c, 0, 86, 0
2, 29356, Note_on_c, 0, 95, 0
2, 29356, Note_on_c, 0, 78, 0
2, 29356, Note_on_c, 0, 93, 0
2, 29356, Note_on_c, 0, 62, 0
2, 29356, Note_on_c, 0, 81, 0
2, 29356, Note_on_c, 0, 66, 0
2, 29356, Note_on_c, 0, 90, 0
2, 29356, Note_on_c, 0, 74, 0
2, 29357, Note_on_c, 0, 69, 0
2, 29357, Control_c, 0, 64, 0
2, 29395, Note_on_c, 0, 66, 85
2, 29398, Note_on_c, 0, 43, 78
2, 29399, Note_on_c, 0, 62, 68
2, 29437, Control_c, 0, 64, 127
2, 29483, Note_on_c, 0, 43, 0
2, 29541, Note_on_c, 0, 69, 72
2, 29565, Note_on_c, 0, 55, 66
2, 29702, Note_on_c, 0, 74, 74
2, 29703, Note_on_c, 0, 43, 59
2, 29859, Note_on_c, 0, 74, 0
2, 29867, Note_on_c, 0, 66, 0
2, 29871, Note_on_c, 0, 74, 85
2, 29875, Note_on_c, 0, 62, 0
2, 29877, Note_on_c, 0, 66, 78
2, 29884, Note_on_c, 0, 62, 63
2, 29901, Note_on_c, 0, 59, 63
2, 29904, Control_c, 0, 64, 0
2, 29909, Note_on_c, 0, 69, 0
2, 29911, Note_on_c, 0, 43, 0
2, 29959, Control_c, 0, 64, 127
2, 30174, Note_on_c, 0, 55, 0
2, 30174, Note_on_c, 0, 62, 0
2, 30178, Note_on_c, 0, 73, 80
2, 30181, Note_on_c, 0, 62, 57
2, 30181, Note_on_c, 0, 55, 67
2, 30330, Note_on_c, 0, 76, 89
2, 30359, Note_on_c, 0, 62, 0
2, 30364, Note_on_c, 0, 67, 55
2, 30364, Note_on_c, 0, 62, 63
2, 30481, Note_on_c, 0, 55, 0
2, 30487, Note_on_c, 0, 55, 65
2, 30645, Control_c, 0, 64, 0
2, 30646, Note_on_c, 0, 55, 0
2, 30646, Note_on_c, 0, 62, 0
2, 30646, Note_on_c, 0, 59, 0
2, 30646, Note_on_c, 0, 73, 0
2, 30646, Note_on_c, 0, 67, 0
2, 30646, Note_on_c, 0, 76, 0
2, 30650, Note_on_c, 0, 74, 0
2, 30654, Note_on_c, 0, 74, 79
2, 30658, Note_on_c, 0, 66, 0
2, 30662, Note_on_c, 0, 66, 74
2, 30663, Note_on_c, 0, 50, 70
2, 30664, Note_on_c, 0, 69, 73
2, 30727, Control_c, 0, 64, 127
2, 30808, Note_on_c, 0, 76, 78
2, 30833, Note_on_c, 0, 57, 62
2, 30958, Note_on_c, 0, 50, 0
2, 30969, Note_on_c, 0, 50, 59
2, 30972, Note_on_c, 0, 78, 84
2, 31094, Control_c, 0, 64, 0
2, 31094, Note_on_c, 0, 69, 0
2, 31095, Note_on_c, 0, 57, 0
2, 31095, Note_on_c, 0, 50, 0
2, 31095, Note_on_c, 0, 74, 0
2, 31096, Note_on_c, 0, 66, 0
2, 31096, Note_on_c, 0, 76, 0
2, 31097, Note_on_c, 0, 78, 0
2, 31131, Note_on_c, 0, 73, 84
2, 31136, Note_on_c, 0, 69, 72
2, 31139, Note_on_c, 0, 66, 68
2, 31149, Note_on_c, 0, 45, 68
2, 31164, Note_on_c, 0, 57, 61
2, 31173, Control_c, 0, 64, 127
2, 31441, Note_on_c, 0, 57, 0
2, 31447, Note_on_c, 0, 76, 84
2, 31447, Note_on_c, 0, 57, 74
2, 31601, Note_on_c, 0, 81, 83
2, 31606, Note_on_c, 0, 78, 88
2, 31608, Note_on_c, 0, 64, 82
2, 31614, Note_on_c, 0, 61, 68
2, 31749, Note_on_c, 0, 69, 0
2, 31752, Note_on_c, 0, 88, 95
2, 31753, Note_on_c, 0, 69, 69
2, 31887, Note_on_c, 0, 45, 0
2, 31891, Note_on_c, 0, 69, 0
2, 31891, Note_on_c, 0, 81, 0
2, 31891, Control_c, 0, 64, 0
2, 31891, Note_on_c, 0, 57, 0
2, 31892, Note_on_c, 0, 61, 0
2, 31892, Note_on_c, 0, 73, 0
2, 31892, Note_on_c, 0, 76, 0
2, 31892, Note_on_c, 0, 78, 0
2, 31893, Note_on_c, 0, 64, 0
2, 31898, Note_on_c, 0, 88, 0
2, 31902, Note_on_c, 0, 66, 0
2, 31912, Note_on_c, 0, 66, 85
2, 31923, Note_on_c, 0, 59, 69
2, 31924, Note_on_c, 0, 47, 74
2, 31956, Control_c, 0, 64, 127
2, 32075, Note_on_c, 0, 69, 73
2, 32098, Note_on_c, 0, 54, 43
2, 32219, Note_on_c, 0, 74, 80
2, 32231, Note_on_c, 0, 57, 64
2, 32378, Note_on_c, 0, 74, 0
2, 32386, Note_on_c, 0, 74, 88
2, 32386, Note_on_c, 0, 66, 0
2, 32388, Note_on_c, 0, 86, 84
2, 32393, Note_on_c, 0, 66, 71
2, 32401, Note_on_c, 0, 69, 0
2, 32407, Note_on_c, 0, 69, 60
2, 32411, Note_on_c, 0, 62, 67
2, 32578, Note_on_c, 0, 69, 0
2, 32584, Note_on_c, 0, 69, 28
2, 32693, Note_on_c, 0, 54, 0
2, 32699, Note_on_c, 0, 73, 73
2, 32704, Note_on_c, 0, 54, 68
2, 32855, Note_on_c, 0, 74, 0
2, 32864, Note_on_c, 0, 74, 85
2, 32870, Note_on_c, 0, 57, 0
2, 32878, Note_on_c, 0, 62, 0
2, 32878, Note_on_c, 0, 66, 0
2, 32878, Note_on_c, 0, 69, 0
2, 32879, Note_on_c, 0, 57, 65
2, 32882, Note_on_c, 0, 62, 61
2, 32883, Note_on_c, 0, 66, 63
2, 32884, Note_on_c, 0, 69, 63
2, 33008, Note_on_c, 0, 54, 0
2, 33018, Note_on_c, 0, 54, 64
2, 33099, Control_c, 0, 64, 0
2, 33099, Note_on_c, 0, 47, 0
2, 33101, Note_on_c, 0, 59, 0
2, 33116, Note_on_c, 0, 73, 0
2, 33123, Note_on_c, 0, 54, 0
2, 33131, Note_on_c, 0, 86, 0
2, 33162, Note_on_c, 0, 57, 0
2, 33169, Control_c, 0, 64, 127
2, 33175, Note_on_c, 0, 50, 70
2, 33338, Note_on_c, 0, 66, 0
2, 33342, Note_on_c, 0, 88, 97
2, 33348, Note_on_c, 0, 66, 62
2, 33351, Note_on_c, 0, 57, 65
2, 33354, Note_on_c, 0, 76, 78
2, 33493, Note_on_c, 0, 83, 87
2, 33501, Note_on_c, 0, 78, 78
2, 33504, Note_on_c, 0, 81, 73
2, 33642, Note_on_c, 0, 50, 0
2, 33642, Note_on_c, 0, 57, 0
2, 33642, Note_on_c, 0, 81, 0
2, 33643, Note_on_c, 0, 66, 0
2, 33643, Note_on_c, 0, 88, 0
2, 33643, Note_on_c, 0, 76, 0
2, 33643, Note_on_c, 0, 78, 0
2, 33643, Control_c, 0, 64, 0
2, 33644, Note_on_c, 0, 83, 0
2, 33646, Note_on_c, 0, 62, 0
2, 33651, Note_on_c, 0, 45, 73
2, 33653, Note_on_c, 0, 69, 0
2, 33653, Note_on_c, 0, 74, 0
2, 33730, Control_c, 0, 64, 127
2, 33761, Note_on_c, 0, 45, 0
2, 33799, Note_on_c, 0, 86, 94
2, 33804, Note_on_c, 0, 52, 70
2, 33806, Note_on_c, 0, 74, 71
2, 33812, Note_on_c, 0, 61, 64
2, 33950, Note_on_c, 0, 81, 87
2, 33973, Note_on_c, 0, 76, 63
2, 34118, Note_on_c, 0, 45, 64
2, 34264, Note_on_c, 0, 71, 78
2, 34397, Note_on_c, 0, 81, 0
2, 34399, Note_on_c, 0, 52, 0
2, 34399, Note_on_c, 0, 86, 0
2, 34400, Note_on_c, 0, 76, 0
2, 34400, Note_on_c, 0, 74, 0
2, 34400, Control_c, 0, 64, 0
2, 34400, Note_on_c, 0, 45, 0
2, 34401, Note_on_c, 0, 61, 0
2, 34414, Note_on_c, 0, 71, 0
2, 34419, Note_on_c, 0, 71, 80
2, 34429, Note_on_c, 0, 43, 64
2, 34437, Note_on_c, 0, 67, 64
2, 34513, Control_c, 0, 64, 127
2, 34599, Note_on_c, 0, 50, 59
2, 34736, Note_on_c, 0, 73, 85
2, 34756, Note_on_c, 0, 69, 66
2, 34825, Note_on_c, 0, 71, 0
2, 34825, Control_c, 0, 64, 0
2, 34890, Control_c, 0, 64, 127
2, 34898, Note_on_c, 0, 55, 66
2, 35049, Note_on_c, 0, 74, 81
2, 35053, Note_on_c, 0, 71, 76
2, 35212, Note_on_c, 0, 59, 83
2, 35364, Note_on_c, 0, 76, 89
2, 35374, Note_on_c, 0, 55, 0
2, 35374, Note_on_c, 0, 73, 0
2, 35378, Note_on_c, 0, 73, 76
2, 35383, Note_on_c, 0, 55, 66
2, 35450, Note_on_c, 0, 67, 0
2, 35527, Note_on_c, 0, 50, 0
2, 35531, Note_on_c, 0, 50, 58
2, 35651, Note_on_c, 0, 73, 0
2, 35652, Note_on_c, 0, 69, 0
2, 35652, Note_on_c, 0, 59, 0
2, 35652, Note_on_c, 0, 50, 0
2, 35652, Note_on_c, 0, 74, 0
2, 35652, Note_on_c, 0, 76, 0
2, 35654, Control_c, 0, 64, 0
2, 35658, Note_on_c, 0, 43, 0
2, 35665, Note_on_c, 0, 55, 0
2, 35665, Note_on_c, 0, 71, 0
2, 35671, Note_on_c, 0, 40, 71
2, 35675, Note_on_c, 0, 71, 83
2, 35719, Control_c, 0, 64, 127
2, 35837, Note_on_c, 0, 90, 96
2, 35839, Note_on_c, 0, 47, 66
2, 35840, Note_on_c, 0, 78, 84
2, 35847, Note_on_c, 0, 55, 67
2, 35994, Note_on_c, 0, 83, 82
2, 35996, Note_on_c, 0, 81, 83
2, 36146, Note_on_c, 0, 52, 67
2, 36216, Note_on_c, 0, 81, 0
2, 36216, Note_on_c, 0, 47, 0
2, 36217, Control_c, 0, 64, 0
2, 36217, Note_on_c, 0, 55, 0
2, 36217, Note_on_c, 0, 71, 0
2, 36217, Note_on_c, 0, 83, 0
2, 36218, Note_on_c, 0, 78, 0
2, 36226, Note_on_c, 0, 40, 0
2, 36226, Note_on_c, 0, 90, 0
2, 36296, Note_on_c, 0, 88, 94
2, 36299, Note_on_c, 0, 67, 74
2, 36300, Note_on_c, 0, 76, 81
2, 36303, Note_on_c, 0, 59, 71
2, 36318, Control_c, 0, 64, 127
2, 36448, Note_on_c, 0, 81, 77
2, 36453, Note_on_c, 0, 78, 76
2, 36619, Note_on_c, 0, 40, 56
2, 36767, Note_on_c, 0, 71, 78
2, 36892, Control_c, 0, 64, 0
2, 36895, Note_on_c, 0, 81, 0
2, 36896, Note_on_c, 0, 88, 0
2, 36897, Note_on_c, 0, 76, 0
2, 36897, Note_on_c, 0, 52, 0
2, 36897, Note_on_c, 0, 67, 0
2, 36897, Note_on_c, 0, 78, 0
2, 36897, Note_on_c, 0, 59, 0
2, 36897, Note_on_c, 0, 71, 0
2, 36897, Note_on_c, 0, 40, 0
2, 36925, Note_on_c, 0, 42, 72
2, 36928, Note_on_c, 0, 73, 88
2, 36931, Note_on_c, 0, 69, 75
2, 36971, Control_c, 0, 64, 127
2, 37084, Note_on_c, 0, 49, 65
2, 37233, Note_on_c, 0, 74, 86
2, 37252, Note_on_c, 0, 71, 69
2, 37389, Note_on_c, 0, 54, 67
2, 37539, Note_on_c, 0, 73, 0
2, 37545, Note_on_c, 0, 76, 89
2, 37550, Note_on_c, 0, 73, 82
2, 37562, Note_on_c, 0, 69, 0
2, 37567, Note_on_c, 0, 69, 35
2, 37688, Note_on_c, 0, 61, 71
2, 37854, Note_on_c, 0, 74, 0
2, 37859, Note_on_c, 0, 78, 96
2, 37862, Note_on_c, 0, 69, 0
2, 37864, Note_on_c, 0, 74, 78
2, 37867, Note_on_c, 0, 57, 67
2, 37871, Note_on_c, 0, 69, 65
2, 38008, Note_on_c, 0, 54, 0
2, 38015, Note_on_c, 0, 54, 65
2, 38142, Note_on_c, 0, 54, 0
2, 38142, Note_on_c, 0, 69, 0
2, 38142, Note_on_c, 0, 71, 0
2, 38142, Note_on_c, 0, 61, 0
2, 38142, Note_on_c, 0, 49, 0
2, 38142, Note_on_c, 0, 57, 0
2, 38142, Control_c, 0, 64, 0
2, 38142, Note_on_c, 0, 76, 0
2, 38154, Note_on_c, 0, 42, 0
2, 38154, Note_on_c, 0, 73, 0
2, 38169, Note_on_c, 0, 74, 0
2, 38169, Note_on_c, 0, 78, 0
2, 38173, Note_on_c, 0, 78, 95
2, 38174, Note_on_c, 0, 74, 77
2, 38175, Note_on_c, 0, 50, 76
2, 38179, Note_on_c, 0, 69, 79
2, 38215, Control_c, 0, 64, 127
2, 38344, Note_on_c, 0, 57, 72
2, 38484, Note_on_c, 0, 78, 0
2, 38490, Note_on_c, 0, 81, 74
2, 38495, Note_on_c, 0, 78, 64
2, 38504, Note_on_c, 0, 62, 61
2, 38571, Note_on_c, 0, 86, 88
2, 38630, Note_on_c, 0, 57, 0
2, 38638, Note_on_c, 0, 50, 0
2, 38641, Note_on_c, 0, 57, 70
2, 38648, Note_on_c, 0, 88, 79
2, 38724, Note_on_c, 0, 90, 76
2, 38784, Note_on_c, 0, 57, 0
2, 38789, Note_on_c, 0, 93, 91
2, 38791, Note_on_c, 0, 45, 69
2, 38792, Note_on_c, 0, 57, 67
2, 38868, Note_on_c, 0, 90, 0
2, 38876, Note_on_c, 0, 90, 83
2, 38945, Note_on_c, 0, 57, 0
2, 38945, Note_on_c, 0, 86, 0
2, 38952, Note_on_c, 0, 86, 89
2, 38956, Note_on_c, 0, 57, 65
2, 39022, Note_on_c, 0, 81, 0
2, 39026, Note_on_c, 0, 81, 67
2, 39098, Note_on_c, 0, 62, 0
2, 39098, Note_on_c, 0, 78, 0
2, 39106, Note_on_c, 0, 74, 0
2, 39109, Note_on_c, 0, 78, 98
2, 39110, Note_on_c, 0, 62, 75
2, 39111, Note_on_c, 0, 74, 82
2, 39244, Note_on_c, 0, 57, 0
2, 39251, Note_on_c, 0, 57, 73
2, 39379, Control_c, 0, 64, 0
2, 39380, Note_on_c, 0, 45, 0
2, 39380, Note_on_c, 0, 93, 0
2, 39380, Note_on_c, 0, 90, 0
2, 39380, Note_on_c, 0, 86, 0
2, 39380, Note_on_c, 0, 69, 0
2, 39381, Note_on_c, 0, 57, 0
2, 39381, Note_on_c, 0, 74, 0
2, 39382, Note_on_c, 0, 78, 0
2, 39390, Note_on_c, 0, 62, 0
2, 39398, Note_on_c, 0, 88, 0
2, 39413, Note_on_c, 0, 81, 0
2, 39418, Note_on_c, 0, 81, 97
2, 39422, Note_on_c, 0, 74, 77
2, 39425, Note_on_c, 0, 71, 79
2, 39426, Note_on_c, 0, 43, 75
2, 39427, Note_on_c, 0, 55, 74
2, 39459, Control_c, 0, 64, 127
2, 39460, Note_on_c, 0, 43, 0
2, 39590, Note_on_c, 0, 55, 0
2, 39591, Note_on_c, 0, 78, 87
2, 39598, Note_on_c, 0, 62, 59
2, 39601, Note_on_c, 0, 55, 59
2, 39601, Note_on_c, 0, 59, 62
2, 39736, Note_on_c, 0, 55, 0
2, 39736, Note_on_c, 0, 59, 0
2, 39736, Note_on_c, 0, 62, 0
2, 39743, Note_on_c, 0, 62, 58
2, 39747, Note_on_c, 0, 59, 63
2, 39747, Note_on_c, 0, 55, 46
2, 39889, Note_on_c, 0, 81, 0
2, 39897, Note_on_c, 0, 55, 0
2, 39897, Note_on_c, 0, 59, 0
2, 39897, Note_on_c, 0, 62, 0
2, 39899, Note_on_c, 0, 81, 93
2, 39901, Note_on_c, 0, 55, 52
2, 39901, Note_on_c, 0, 62, 59
2, 39902, Note_on_c, 0, 59, 67
2, 40051, Note_on_c, 0, 55, 0
2, 40051, Note_on_c, 0, 59, 0
2, 40051, Note_on_c, 0, 62, 0
2, 40061, Note_on_c, 0, 59, 62
2, 40062, Note_on_c, 0, 62, 60
2, 40062, Note_on_c, 0, 55, 60
2, 40212, Note_on_c, 0, 55, 0
2, 40212, Note_on_c, 0, 59, 0
2, 40212, Note_on_c, 0, 62, 0
2, 40214, Note_on_c, 0, 79, 90
2, 40216, Note_on_c, 0, 59, 70
2, 40220, Note_on_c, 0, 62, 64
2, 40221, Note_on_c, 0, 55, 57
2, 40358, Note_on_c, 0, 78, 0
2, 40362, Note_on_c, 0, 78, 90
2, 40373, Note_on_c, 0, 59, 0
2, 40373, Note_on_c, 0, 62, 0
2, 40385, Note_on_c, 0, 62, 67
2, 40385, Note_on_c, 0, 59, 75
2, 40396, Note_on_c, 0, 55, 0
2, 40405, Note_on_c, 0, 55, 42
2, 40512, Note_on_c, 0, 62, 0
2, 40519, Note_on_c, 0, 55, 0
2, 40519, Note_on_c, 0, 59, 0
2, 40522, Note_on_c, 0, 62, 60
2, 40524, Note_on_c, 0, 71, 0
2, 40527, Note_on_c, 0, 59, 68
2, 40528, Note_on_c, 0, 55, 51
2, 40653, Control_c, 0, 64, 0
2, 40654, Note_on_c, 0, 78, 0
2, 40654, Note_on_c, 0, 81, 0
2, 40654, Note_on_c, 0, 55, 0
2, 40654, Note_on_c, 0, 62, 0
2, 40654, Note_on_c, 0, 59, 0
2, 40654, Note_on_c, 0, 79, 0
2, 40673, Note_on_c, 0, 74, 0
2, 40684, Note_on_c, 0, 74, 92
2, 40691, Note_on_c, 0, 68, 81
2, 40692, Note_on_c, 0, 71, 73
2, 40694, Note_on_c, 0, 56, 68
2, 40698, Note_on_c, 0, 59, 64
2, 40737, Note_on_c, 0, 56, 0
2, 40742, Control_c, 0, 64, 127
2, 40796, Note_on_c, 0, 59, 0
2, 40861, Note_on_c, 0, 64, 63
2, 40867, Note_on_c, 0, 59, 61
2, 40867, Note_on_c, 0, 56, 51
2, 41011, Note_on_c, 0, 56, 0
2, 41011, Note_on_c, 0, 59, 0
2, 41011, Note_on_c, 0, 64, 0
2, 41015, Note_on_c, 0, 56, 55
2, 41021, Note_on_c, 0, 64, 44
2, 41022, Note_on_c, 0, 59, 54
2, 41157, Note_on_c, 0, 56, 0
2, 41164, Note_on_c, 0, 59, 0
2, 41164, Note_on_c, 0, 64, 0
2, 41168, Note_on_c, 0, 56, 54
2, 41172, Note_on_c, 0, 59, 48
2, 41174, Note_on_c, 0, 64, 59
2, 41333, Note_on_c, 0, 64, 0
2, 41341, Note_on_c, 0, 56, 0
2, 41341, Note_on_c, 0, 59, 0
2, 41345, Note_on_c, 0, 64, 47
2, 41345, Note_on_c, 0, 59, 55
2, 41349, Note_on_c, 0, 56, 49
2, 41479, Note_on_c, 0, 64, 0
2, 41487, Note_on_c, 0, 56, 0
2, 41487, Note_on_c, 0, 59, 0
2, 41491, Note_on_c, 0, 64, 58
2, 41491, Note_on_c, 0, 59, 71
2, 41491, Note_on_c, 0, 56, 60
2, 41648, Note_on_c, 0, 64, 0
2, 41648, Note_on_c, 0, 74, 0
2, 41653, Note_on_c, 0, 74, 89
2, 41654, Note_on_c, 0, 64, 70
2, 41656, Note_on_c, 0, 56, 0
2, 41656, Note_on_c, 0, 59, 0
2, 41660, Note_on_c, 0, 59, 69
2, 41666, Note_on_c, 0, 56, 66
2, 41794, Note_on_c, 0, 56, 0
2, 41794, Note_on_c, 0, 59, 0
2, 41794, Note_on_c, 0, 64, 0
2, 41799, Note_on_c, 0, 64, 69
2, 41803, Note_on_c, 0, 56, 60
2, 41804, Note_on_c, 0, 59, 51
2, 41921, Control_c, 0, 64, 0
2, 41921, Note_on_c, 0, 74, 0
2, 41921, Note_on_c, 0, 71, 0
2, 41922, Note_on_c, 0, 56, 0
2, 41922, Note_on_c, 0, 59, 0
2, 41923, Note_on_c, 0, 64, 0
2, 41932, Note_on_c, 0, 68, 0
2, 41959, Note_on_c, 0, 76, 91
2, 41965, Note_on_c, 0, 46, 78
2, 41965, Note_on_c, 0, 73, 82
2, 41967, Note_on_c, 0, 58, 78
2, 42009, Control_c, 0, 64, 127
2, 42017, Note_on_c, 0, 58, 0
2, 42024, Note_on_c, 0, 46, 0
2, 42126, Note_on_c, 0, 74, 73
2, 42128, Note_on_c, 0, 64, 64
2, 42135, Note_on_c, 0, 61, 59
2, 42136, Note_on_c, 0, 58, 56
2, 42263, Note_on_c, 0, 58, 0
2, 42263, Note_on_c, 0, 64, 0
2, 42267, Note_on_c, 0, 64, 62
2, 42270, Note_on_c, 0, 61, 0
2, 42272, Note_on_c, 0, 58, 55
2, 42276, Note_on_c, 0, 61, 57
2, 42424, Note_on_c, 0, 73, 0
2, 42432, Note_on_c, 0, 64, 0
2, 42435, Note_on_c, 0, 73, 89
2, 42438, Note_on_c, 0, 64, 69
2, 42439, Note_on_c, 0, 58, 0
2, 42439, Note_on_c, 0, 61, 0
2, 42443, Note_on_c, 0, 58, 68
2, 42446, Note_on_c, 0, 61, 63
2, 42585, Note_on_c, 0, 58, 0
2, 42585, Note_on_c, 0, 61, 0
2, 42593, Note_on_c, 0, 64, 0
2, 42596, Note_on_c, 0, 61, 58
2, 42596, Note_on_c, 0, 58, 64
2, 42597, Note_on_c, 0, 64, 65
2, 42746, Note_on_c, 0, 58, 0
2, 42746, Note_on_c, 0, 64, 0
2, 42746, Note_on_c, 0, 76, 0
2, 42753, Note_on_c, 0, 76, 84
2, 42754, Note_on_c, 0, 61, 0
2, 42755, Note_on_c, 0, 64, 64
2, 42758, Note_on_c, 0, 58, 65
2, 42759, Note_on_c, 0, 61, 62
2, 42900, Note_on_c, 0, 64, 0
2, 42904, Note_on_c, 0, 78, 95
2, 42909, Note_on_c, 0, 64, 70
2, 42923, Note_on_c, 0, 58, 0
2, 42923, Note_on_c, 0, 61, 0
2, 42927, Note_on_c, 0, 61, 58
2, 42931, Note_on_c, 0, 58, 56
2, 43054, Note_on_c, 0, 58, 0
2, 43054, Note_on_c, 0, 64, 0
2, 43059, Note_on_c, 0, 64, 69
2, 43060, Note_on_c, 0, 58, 54
2, 43077, Note_on_c, 0, 61, 0
2, 43081, Note_on_c, 0, 61, 32
2, 43190, Control_c, 0, 64, 0
2, 43193, Note_on_c, 0, 73, 0
2, 43193, Note_on_c, 0, 74, 0
2, 43193, Note_on_c, 0, 58, 0
2, 43194, Note_on_c, 0, 61, 0
2, 43194, Note_on_c, 0, 64, 0
2, 43195, Note_on_c, 0, 76, 0
2, 43215, Note_on_c, 0, 78, 0
2, 43221, Note_on_c, 0, 87, 86
2, 43221, Note_on_c, 0, 78, 99
2, 43227, Note_on_c, 0, 75, 89
2, 43227, Note_on_c, 0, 48, 82
2, 43228, Note_on_c, 0, 60, 86
2, 43230, Note_on_c, 0, 87, 0
2, 43269, Control_c, 0, 64, 127
2, 43271, Note_on_c, 0, 60, 0
2, 43272, Note_on_c, 0, 48, 0
2, 43388, Note_on_c, 0, 63, 72
2, 43389, Note_on_c, 0, 60, 68
2, 43391, Note_on_c, 0, 56, 67
2, 43522, Note_on_c, 0, 63, 0
2, 43530, Note_on_c, 0, 56, 0
2, 43530, Note_on_c, 0, 60, 0
2, 43532, Note_on_c, 0, 63, 64
2, 43540, Note_on_c, 0, 60, 69
2, 43541, Note_on_c, 0, 56, 69
2, 43676, Note_on_c, 0, 56, 0
2, 43676, Note_on_c, 0, 63, 0
2, 43682, Note_on_c, 0, 63, 72
2, 43683, Note_on_c, 0, 60, 0
2, 43687, Note_on_c, 0, 56, 77
2, 43694, Note_on_c, 0, 60, 58
2, 43837, Note_on_c, 0, 56, 0
2, 43837, Note_on_c, 0, 75, 0
2, 43840, Note_on_c, 0, 87, 98
2, 43842, Note_on_c, 0, 75, 90
2, 43842, Note_on_c, 0, 68, 86
2, 43845, Note_on_c, 0, 63, 0
2, 43845, Note_on_c, 0, 56, 78
2, 43855, Note_on_c, 0, 63, 56
2, 43991, Note_on_c, 0, 63, 0
2, 43998, Note_on_c, 0, 88, 100
2, 44000, Note_on_c, 0, 63, 84
2, 44001, Note_on_c, 0, 76, 90
2, 44002, Note_on_c, 0, 51, 84
2, 44152, Note_on_c, 0, 60, 0
2, 44152, Note_on_c, 0, 78, 0
2, 44154, Note_on_c, 0, 90, 98
2, 44155, Note_on_c, 0, 48, 83
2, 44156, Note_on_c, 0, 78, 89
2, 44159, Note_on_c, 0, 60, 85
2, 44295, Note_on_c, 0, 92, 99
2, 44298, Note_on_c, 0, 56, 0
2, 44300, Note_on_c, 0, 80, 102
2, 44302, Note_on_c, 0, 56, 85
2, 44302, Note_on_c, 0, 44, 88
2, 44305, Note_on_c, 0, 87, 0
2, 44309, Note_on_c, 0, 87, 70
2, 44452, Note_on_c, 0, 88, 0
2, 44453, Note_on_c, 0, 90, 0
2, 44453, Note_on_c, 0, 87, 0
2, 44453, Note_on_c, 0, 51, 0
2, 44453, Note_on_c, 0, 44, 0
2, 44453, Note_on_c, 0, 78, 0
2, 44453, Note_on_c, 0, 63, 0
2, 44453, Note_on_c, 0, 75, 0
2, 44454, Note_on_c, 0, 92, 0
2, 44454, Note_on_c, 0, 56, 0
2, 44454, Note_on_c, 0, 60, 0
2, 44454, Control_c, 0, 64, 0
2, 44459, Note_on_c, 0, 68, 0
2, 44459, Note_on_c, 0, 80, 0
2, 44463, Note_on_c, 0, 80, 103
2, 44465, Note_on_c, 0, 68, 100
2, 44467, Note_on_c, 0, 48, 0
2, 44473, Note_on_c, 0, 73, 84
2, 44482, Note_on_c, 0, 76, 0
2, 44484, Note_on_c, 0, 33, 80
2, 44486, Note_on_c, 0, 76, 67
2, 44487, Note_on_c, 0, 45, 69
2, 44520, Control_c, 0, 64, 127
2, 44522, Note_on_c, 0, 33, 0
2, 44631, Note_on_c, 0, 78, 103
2, 44634, Note_on_c, 0, 40, 77
2, 44637, Note_on_c, 0, 66, 94
2, 44638, Note_on_c, 0, 69, 65
2, 44759, Note_on_c, 0, 45, 0
2, 44770, Note_on_c, 0, 45, 70
2, 44774, Note_on_c, 0, 57, 64
2, 44928, Note_on_c, 0, 76, 0
2, 44933, Note_on_c, 0, 49, 79
2, 44935, Note_on_c, 0, 69, 0
2, 44935, Note_on_c, 0, 73, 0
2, 44936, Note_on_c, 0, 76, 98
2, 44938, Note_on_c, 0, 64, 89
2, 44940, Note_on_c, 0, 69, 83
2, 44940, Note_on_c, 0, 73, 87
2, 45096, Note_on_c, 0, 49, 0
2, 45102, Note_on_c, 0, 52, 62
2, 45102, Note_on_c, 0, 49, 83
2, 45250, Note_on_c, 0, 45, 0
2, 45255, Note_on_c, 0, 45, 74
2, 45404, Note_on_c, 0, 52, 0
2, 45404, Note_on_c, 0, 68, 0
2, 45404, Note_on_c, 0, 80, 0
2, 45408, Note_on_c, 0, 80, 96
2, 45408, Note_on_c, 0, 68, 97
2, 45413, Note_on_c, 0, 52, 81
2, 45565, Note_on_c, 0, 45, 0
2, 45565, Note_on_c, 0, 57, 0
2, 45565, Note_on_c, 0, 73, 0
2, 45565, Note_on_c, 0, 76, 0
2, 45567, Note_on_c, 0, 83, 103
2, 45571, Note_on_c, 0, 76, 91
2, 45573, Note_on_c, 0, 69, 0
2, 45575, Note_on_c, 0, 73, 95
2, 45576, Note_on_c, 0, 71, 91
2, 45576, Note_on_c, 0, 57, 82
2, 45576, Note_on_c, 0, 45, 73
2, 45578, Note_on_c, 0, 69, 74
2, 45721, Note_on_c, 0, 61, 83
2, 45872, Note_on_c, 0, 52, 0
2, 45877, Note_on_c, 0, 52, 74
2, 46026, Note_on_c, 0, 52, 0
2, 46033, Note_on_c, 0, 57, 0
2, 46033, Note_on_c, 0, 68, 0
2, 46033, Note_on_c, 0, 80, 0
2, 46037, Note_on_c, 0, 52, 59
2, 46037, Note_on_c, 0, 57, 64
2, 46042, Note_on_c, 0, 80, 96
2, 46043, Note_on_c, 0, 68, 90
2, 46187, Note_on_c, 0, 61, 0
2, 46187, Note_on_c, 0, 83, 0
2, 46195, Note_on_c, 0, 71, 0
2, 46195, Note_on_c, 0, 73, 0
2, 46195, Note_on_c, 0, 76, 0
2, 46196, Note_on_c, 0, 83, 104
2, 46198, Note_on_c, 0, 61, 83
2, 46200, Note_on_c, 0, 73, 96
2, 46202, Note_on_c, 0, 71, 93
2, 46202, Note_on_c, 0, 52, 0
2, 46206, Note_on_c, 0, 76, 90
2, 46207, Note_on_c, 0, 52, 70
2, 46218, Note_on_c, 0, 80, 0
2, 46222, Note_on_c, 0, 80, 66
2, 46348, Note_on_c, 0, 64, 0
2, 46356, Note_on_c, 0, 61, 0
2, 46356, Note_on_c, 0, 69, 0
2, 46357, Note_on_c, 0, 64, 81
2, 46361, Note_on_c, 0, 61, 71
2, 46364, Note_on_c, 0, 69, 62
2, 46494, Note_on_c, 0, 57, 0
2, 46502, Note_on_c, 0, 45, 0
2, 46504, Note_on_c, 0, 57, 77
2, 46507, Note_on_c, 0, 45, 58
2, 46656, Note_on_c, 0, 64, 0
2, 46665, Note_on_c, 0, 52, 0
2, 46665, Note_on_c, 0, 64, 75
2, 46671, Note_on_c, 0, 69, 0
2, 46675, Note_on_c, 0, 69, 75
2, 46794, Note_on_c, 0, 57, 0
2, 46802, Note_on_c, 0, 57, 73
2, 46978, Note_on_c, 0, 45, 0
2, 46978, Note_on_c, 0, 68, 0
2, 46978, Note_on_c, 0, 73, 0
2, 46978, Note_on_c, 0, 80, 0
2, 46979, Control_c, 0, 64, 0
2, 46982, Note_on_c, 0, 80, 101
2, 46983, Note_on_c, 0, 73, 97
2, 46986, Note_on_c, 0, 76, 0
2, 46987, Note_on_c, 0, 68, 101
2, 46987, Note_on_c, 0, 33, 86
2, 46988, Note_on_c, 0, 61, 0
2, 46989, Note_on_c, 0, 64, 0
2, 46989, Note_on_c, 0, 66, 0
2, 46989, Note_on_c, 0, 69, 0
2, 46989, Note_on_c, 0, 45, 85
2, 46989, Note_on_c, 0, 57, 0
2, 46989, Note_on_c, 0, 78, 0
2, 46990, Note_on_c, 0, 71, 0
2, 46990, Note_on_c, 0, 83, 0
2, 46990, Note_on_c, 0, 40, 0
2, 46996, Note_on_c, 0, 76, 82
2, 47001, Note_on_c, 0, 49, 0
2, 47037, Note_on_c, 0, 33, 0
2, 47047, Control_c, 0, 64, 127
2, 47055, Note_on_c, 0, 45, 0
2, 47135, Note_on_c, 0, 78, 98
2, 47139, Note_on_c, 0, 52, 72
2, 47141, Note_on_c, 0, 40, 74
2, 47143, Note_on_c, 0, 66, 83
2, 47143, Note_on_c, 0, 69, 61
2, 47147, Note_on_c, 0, 69, 0
2, 47274, Note_on_c, 0, 45, 75
2, 47282, Note_on_c, 0, 33, 68
2, 47285, Note_on_c, 0, 66, 0
2, 47285, Note_on_c, 0, 78, 0
2, 47290, Note_on_c, 0, 78, 83
2, 47290, Note_on_c, 0, 66, 82
2, 47439, Note_on_c, 0, 76, 0
2, 47443, Note_on_c, 0, 49, 79
2, 47444, Note_on_c, 0, 76, 97
2, 47447, Note_on_c, 0, 73, 0
2, 47450, Note_on_c, 0, 64, 84
2, 47450, Note_on_c, 0, 69, 81
2, 47451, Note_on_c, 0, 73, 87
2, 47592, Note_on_c, 0, 52, 0
2, 47600, Note_on_c, 0, 40, 0
2, 47600, Note_on_c, 0, 49, 0
2, 47604, Note_on_c, 0, 52, 79
2, 47604, Note_on_c, 0, 49, 68
2, 47609, Note_on_c, 0, 40, 65
2, 47708, Note_on_c, 0, 33, 0
2, 47746, Note_on_c, 0, 45, 0
2, 47752, Note_on_c, 0, 45, 73
2, 47907, Note_on_c, 0, 52, 0
2, 47907, Note_on_c, 0, 68, 0
2, 47907, Note_on_c, 0, 80, 0
2, 47912, Note_on_c, 0, 80, 97
2, 47914, Note_on_c, 0, 68, 94
2, 47917, Note_on_c, 0, 52, 80
2, 47920, Note_on_c, 0, 59, 72
2, 48067, Note_on_c, 0, 83, 104
2, 48069, Note_on_c, 0, 45, 0
2, 48069, Note_on_c, 0, 73, 0
2, 48069, Note_on_c, 0, 76, 0
2, 48073, Note_on_c, 0, 76, 87
2, 48073, Note_on_c, 0, 73, 94
2, 48073, Note_on_c, 0, 45, 72
2, 48073, Note_on_c, 0, 57, 79
2, 48074, Note_on_c, 0, 71, 90
2, 48222, Note_on_c, 0, 57, 0
2, 48222, Note_on_c, 0, 69, 0
2, 48224, Note_on_c, 0, 61, 83
2, 48226, Note_on_c, 0, 57, 70
2, 48229, Note_on_c, 0, 69, 74
2, 48376, Note_on_c, 0, 52, 0
2, 48381, Note_on_c, 0, 52, 75
2, 48522, Note_on_c, 0, 80, 0
2, 48529, Note_on_c, 0, 57, 0
2, 48529, Note_on_c, 0, 68, 0
2, 48532, Note_on_c, 0, 80, 94
2, 48536, Note_on_c, 0, 57, 68
2, 48541, Note_on_c, 0, 68, 85
2, 48683, Note_on_c, 0, 83, 0
2, 48687, Note_on_c, 0, 83, 103
2, 48691, Note_on_c, 0, 52, 0
2, 48691, Note_on_c, 0, 61, 0
2, 48691, Note_on_c, 0, 71, 0
2, 48691, Note_on_c, 0, 73, 0
2, 48695, Note_on_c, 0, 52, 68
2, 48697, Note_on_c, 0, 71, 90
2, 48697, Note_on_c, 0, 73, 94
2, 48698, Note_on_c, 0, 49, 0
2, 48701, Note_on_c, 0, 61, 79
2, 48703, Note_on_c, 0, 49, 72
2, 48706, Note_on_c, 0, 76, 0
2, 48708, Note_on_c, 0, 77, 79
2, 48714, Note_on_c, 0, 76, 72
2, 48844, Note_on_c, 0, 64, 0
2, 48852, Note_on_c, 0, 61, 0
2, 48854, Note_on_c, 0, 64, 84
2, 48860, Note_on_c, 0, 61, 69
2, 48990, Note_on_c, 0, 45, 0
2, 48990, Note_on_c, 0, 57, 0
2, 48995, Note_on_c, 0, 57, 76
2, 48995, Note_on_c, 0, 45, 60
2, 49152, Note_on_c, 0, 73, 0
2, 49159, Note_on_c, 0, 52, 0
2, 49159, Note_on_c, 0, 57, 0
2, 49159, Note_on_c, 0, 76, 0
2, 49160, Note_on_c, 0, 85, 104
2, 49162, Note_on_c, 0, 73, 104
2, 49163, Note_on_c, 0, 52, 69
2, 49167, Note_on_c, 0, 69, 0
2, 49168, Note_on_c, 0, 57, 76
2, 49169, Note_on_c, 0, 49, 0
2, 49169, Note_on_c, 0, 76, 82
2, 49175, Note_on_c, 0, 69, 76
2, 49274, Note_on_c, 0, 45, 0
2, 49285, Note_on_c, 0, 45, 62
2, 49313, Note_on_c, 0, 71, 0
2, 49313, Note_on_c, 0, 73, 0
2, 49313, Note_on_c, 0, 83, 0
2, 49317, Note_on_c, 0, 83, 103
2, 49320, Note_on_c, 0, 76, 0
2, 49323, Note_on_c, 0, 71, 94
2, 49323, Note_on_c, 0, 73, 98
2, 49325, Note_on_c, 0, 76, 91
2, 49448, Control_c, 0, 64, 0
2, 49448, Note_on_c, 0, 61, 0
2, 49449, Note_on_c, 0, 45, 0
2, 49449, Note_on_c, 0, 40, 0
2, 49449, Note_on_c, 0, 57, 0
2, 49449, Note_on_c, 0, 69, 0
2, 49449, Note_on_c, 0, 68, 0
2, 49449, Note_on_c, 0, 85, 0
2, 49450, Note_on_c, 0, 66, 0
2, 49450, Note_on_c, 0, 78, 0
2, 49451, Note_on_c, 0, 59, 0
2, 49452, Note_on_c, 0, 77, 0
2, 49459, Note_on_c, 0, 52, 0
2, 49466, Note_on_c, 0, 64, 0
2, 49475, Note_on_c, 0, 37, 76
2, 49477, Note_on_c, 0, 49, 76
2, 49536, Control_c, 0, 64, 127
2, 49637, Note_on_c, 0, 44, 66
2, 49781, Note_on_c, 0, 49, 0
2, 49792, Note_on_c, 0, 49, 62
2, 49792, Note_on_c, 0, 52, 77
2, 49920, Note_on_c, 0, 44, 0
2, 49928, Note_on_c, 0, 44, 62
2, 50088, Note_on_c, 0, 52, 0
2, 50099, Note_on_c, 0, 56, 72
2, 50100, Note_on_c, 0, 52, 68
2, 50234, Note_on_c, 0, 49, 0
2, 50245, Note_on_c, 0, 49, 79
2, 50403, Note_on_c, 0, 56, 0
2, 50412, Note_on_c, 0, 59, 82
2, 50414, Note_on_c, 0, 56, 80
2, 50542, Note_on_c, 0, 52, 0
2, 50551, Note_on_c, 0, 52, 73
2, 50717, Note_on_c, 0, 61, 79
2, 50734, Note_on_c, 0, 59, 0
2, 50740, Note_on_c, 0, 59, 61
2, 50741, Note_on_c, 0, 60, 64
2, 50742, Note_on_c, 0, 48, 53
2, 50749, Note_on_c, 0, 48, 0
2, 50749, Note_on_c, 0, 60, 0
2, 50902, Note_on_c, 0, 57, 45
2, 51018, Note_on_c, 0, 61, 0
2, 51025, Note_on_c, 0, 64, 79
2, 51029, Note_on_c, 0, 61, 72
2, 51164, Note_on_c, 0, 59, 0
2, 51175, Note_on_c, 0, 59, 71
2, 51333, Note_on_c, 0, 64, 0
2, 51336, Note_on_c, 0, 68, 86
2, 51336, Note_on_c, 0, 56, 0
2, 51343, Note_on_c, 0, 64, 81
2, 51486, Note_on_c, 0, 61, 0
2, 51486, Note_on_c, 0, 80, 0
2, 51491, Note_on_c, 0, 61, 73
2, 51495, Note_on_c, 0, 92, 103
2, 51497, Note_on_c, 0, 80, 97
2, 51640, Note_on_c, 0, 64, 0
2, 51640, Note_on_c, 0, 71, 0
2, 51642, Note_on_c, 0, 90, 102
2, 51643, Note_on_c, 0, 78, 96
2, 51648, Note_on_c, 0, 68, 0
2, 51649, Note_on_c, 0, 64, 81
2, 51651, Note_on_c, 0, 71, 83
2, 51655, Note_on_c, 0, 68, 84
2, 51747, Note_on_c, 0, 61, 0
2, 51753, Note_on_c, 0, 61, 75
2, 51786, Note_on_c, 0, 76, 0
2, 51789, Note_on_c, 0, 88, 103
2, 51791, Note_on_c, 0, 76, 99
2, 51840, Note_on_c, 0, 73, 0
2, 51840, Note_on_c, 0, 83, 0
2, 51924, Note_on_c, 0, 37, 0
2, 51924, Note_on_c, 0, 78, 0
2, 51924, Note_on_c, 0, 90, 0
2, 51931, Note_on_c, 0, 78, 104
2, 51932, Note_on_c, 0, 90, 111
2, 51932, Note_on_c, 0, 37, 86
2, 51938, Control_c, 0, 64, 0
2, 51940, Note_on_c, 0, 59, 0
2, 51940, Note_on_c, 0, 92, 0
2, 51940, Note_on_c, 0, 71, 0
2, 51941, Note_on_c, 0, 61, 0
2, 51941, Note_on_c, 0, 88, 0
2, 51941, Note_on_c, 0, 76, 0
2, 51941, Note_on_c, 0, 68, 0
2, 51941, Note_on_c, 0, 80, 0
2, 51942, Note_on_c, 0, 64, 0
2, 51942, Note_on_c, 0, 44, 0
2, 51947, Note_on_c, 0, 57, 0
2, 51955, Note_on_c, 0, 49, 0
2, 51955, Note_on_c, 0, 52, 0
2, 51993, Control_c, 0, 64, 127
2, 52024, Note_on_c, 0, 37, 0
2, 52073, Note_on_c, 0, 49, 78
2, 52073, Note_on_c, 0, 37, 82
2, 52078, Note_on_c, 0, 37, 0
2, 52083, Note_on_c, 0, 92, 102
2, 52089, Note_on_c, 0, 85, 101
2, 52089, Note_on_c, 0, 80, 99
2, 52091, Note_on_c, 0, 88, 83
2, 52240, Note_on_c, 0, 64, 77
2, 52250, Note_on_c, 0, 61, 68
2, 52390, Note_on_c, 0, 56, 73
2, 52546, Note_on_c, 0, 64, 0
2, 52549, Note_on_c, 0, 68, 87
2, 52551, Note_on_c, 0, 64, 78
2, 52692, Note_on_c, 0, 61, 0
2, 52700, Note_on_c, 0, 80, 0
2, 52700, Note_on_c, 0, 92, 0
2, 52701, Note_on_c, 0, 61, 76
2, 52705, Note_on_c, 0, 92, 105
2, 52711, Note_on_c, 0, 80, 96
2, 52853, Note_on_c, 0, 90, 0
2, 52861, Note_on_c, 0, 90, 106
2, 52861, Note_on_c, 0, 64, 0
2, 52861, Note_on_c, 0, 68, 0
2, 52861, Note_on_c, 0, 78, 0
2, 52865, Note_on_c, 0, 64, 76
2, 52865, Note_on_c, 0, 78, 96
2, 52866, Note_on_c, 0, 71, 85
2, 52869, Note_on_c, 0, 68, 84
2, 52961, Note_on_c, 0, 61, 0
2, 52972, Note_on_c, 0, 61, 77
2, 52999, Note_on_c, 0, 88, 0
2, 53007, Note_on_c, 0, 88, 104
2, 53011, Note_on_c, 0, 76, 97
2, 53141, Note_on_c, 0, 71, 0
2, 53142, Note_on_c, 0, 92, 0
2, 53142, Note_on_c, 0, 88, 0
2, 53142, Note_on_c, 0, 85, 0
2, 53142, Note_on_c, 0, 64, 0
2, 53142, Note_on_c, 0, 80, 0
2, 53142, Note_on_c, 0, 68, 0
2, 53143, Note_on_c, 0, 76, 0
2, 53144, Note_on_c, 0, 49, 0
2, 53144, Note_on_c, 0, 56, 0
2, 53145, Note_on_c, 0, 78, 0
2, 53145, Note_on_c, 0, 90, 0
2, 53147, Control_c, 0, 64, 0
2, 53151, Note_on_c, 0, 37, 80
2, 53153, Note_on_c, 0, 61, 0
2, 53155, Note_on_c, 0, 90, 109
2, 53156, Note_on_c, 0, 78, 104
2, 53199, Control_c, 0, 64, 127
2, 53310, Note_on_c, 0, 49, 71
2, 53460, Note_on_c, 0, 49, 0
2, 53464, Note_on_c, 0, 56, 83
2, 53464, Note_on_c, 0, 85, 103
2, 53465, Note_on_c, 0, 92, 103
2, 53466, Note_on_c, 0, 80, 102
2, 53466, Note_on_c, 0, 61, 75
2, 53470, Note_on_c, 0, 88, 90
2, 53470, Note_on_c, 0, 49, 76
2, 53472, Note_on_c, 0, 52, 75
2, 53591, Note_on_c, 0, 49, 0
2, 53602, Note_on_c, 0, 49, 75
2, 53765, Note_on_c, 0, 85, 0
2, 53765, Note_on_c, 0, 90, 0
2, 53765, Note_on_c, 0, 80, 0
2, 53766, Note_on_c, 0, 92, 0
2, 53766, Note_on_c, 0, 49, 0
2, 53766, Note_on_c, 0, 56, 0
2, 53766, Note_on_c, 0, 78, 0
2, 53766, Note_on_c, 0, 52, 0
2, 53767, Note_on_c, 0, 61, 0
2, 53768, Control_c, 0, 64, 0
2, 53769, Note_on_c, 0, 88, 0
2, 53771, Note_on_c, 0, 95, 111
2, 53773, Note_on_c, 0, 83, 102
2, 53773, Note_on_c, 0, 35, 72
2, 53775, Note_on_c, 0, 37, 0
2, 53778, Note_on_c, 0, 47, 79
2, 53821, Control_c, 0, 64, 127
2, 53829, Note_on_c, 0, 47, 0
2, 53910, Note_on_c, 0, 47, 76
2, 54074, Note_on_c, 0, 83, 0
2, 54078, Note_on_c, 0, 90, 105
2, 54080, Note_on_c, 0, 78, 101
2, 54081, Note_on_c, 0, 87, 94
2, 54081, Note_on_c, 0, 54, 80
2, 54082, Note_on_c, 0, 47, 0
2, 54084, Note_on_c, 0, 83, 92
2, 54084, Note_on_c, 0, 59, 90
2, 54087, Note_on_c, 0, 39, 72
2, 54088, Note_on_c, 0, 47, 80
2, 54093, Note_on_c, 0, 51, 76
2, 54205, Note_on_c, 0, 47, 0
2, 54213, Note_on_c, 0, 47, 71
2, 54369, Note_on_c, 0, 51, 0
2, 54369, Note_on_c, 0, 47, 0
2, 54370, Control_c, 0, 64, 0
2, 54370, Note_on_c, 0, 95, 0
2, 54370, Note_on_c, 0, 87, 0
2, 54370, Note_on_c, 0, 78, 0
2, 54370, Note_on_c, 0, 83, 0
2, 54370, Note_on_c, 0, 54, 0
2, 54370, Note_on_c, 0, 90, 0
2, 54371, Note_on_c, 0, 59, 0
2, 54382, Note_on_c, 0, 35, 0
2, 54382, Note_on_c, 0, 39, 0
2, 54393, Note_on_c, 0, 85, 107
2, 54393, Note_on_c, 0, 80, 106
2, 54394, Note_on_c, 0, 92, 108
2, 54395, Note_on_c, 0, 33, 85
2, 54397, Note_on_c, 0, 45, 95
2, 54401, Note_on_c, 0, 88, 87
2, 54428, Control_c, 0, 64, 127
2, 54433, Note_on_c, 0, 45, 0
2, 54557, Note_on_c, 0, 90, 103
2, 54558, Note_on_c, 0, 40, 67
2, 54562, Note_on_c, 0, 78, 93
2, 54563, Note_on_c, 0, 87, 81
2, 54678, Note_on_c, 0, 52, 55
2, 54678, Note_on_c, 0, 45, 66
2, 54682, Note_on_c, 0, 57, 73
2, 54689, Note_on_c, 0, 57, 0
2, 54704, Note_on_c, 0, 78, 0
2, 54704, Note_on_c, 0, 90, 0
2, 54709, Note_on_c, 0, 90, 90
2, 54710, Note_on_c, 0, 78, 94
2, 54845, Note_on_c, 0, 51, 79
2, 54850, Note_on_c, 0, 45, 0
2, 54850, Note_on_c, 0, 85, 0
2, 54850, Note_on_c, 0, 88, 0
2, 54855, Note_on_c, 0, 49, 77
2, 54856, Note_on_c, 0, 88, 98
2, 54860, Note_on_c, 0, 45, 68
2, 54861, Note_on_c, 0, 85, 91
2, 54861, Note_on_c, 0, 76, 93
2, 54873, Note_on_c, 0, 81, 78
2, 55011, Note_on_c, 0, 52, 0
2, 55016, Note_on_c, 0, 57, 80
2, 55023, Note_on_c, 0, 52, 72
2, 55150, Note_on_c, 0, 45, 0
2, 55150, Note_on_c, 0, 57, 0
2, 55160, Note_on_c, 0, 45, 69
2, 55161, Note_on_c, 0, 57, 65
2, 55280, Note_on_c, 0, 52, 0
2, 55291, Note_on_c, 0, 52, 88
2, 55311, Note_on_c, 0, 92, 0
2, 55319, Note_on_c, 0, 80, 0
2, 55322, Note_on_c, 0, 92, 100
2, 55323, Note_on_c, 0, 80, 95
2, 55457, Note_on_c, 0, 57, 0
2, 55457, Note_on_c, 0, 85, 0
2, 55460, Note_on_c, 0, 69, 89
2, 55463, Note_on_c, 0, 57, 82
2, 55464, Note_on_c, 0, 88, 0
2, 55465, Note_on_c, 0, 61, 87
2, 55468, Note_on_c, 0, 85, 101
2, 55468, Note_on_c, 0, 97, 99
2, 55472, Note_on_c, 0, 97, 0
2, 55475, Note_on_c, 0, 88, 91
2, 55610, Note_on_c, 0, 52, 0
2, 55610, Note_on_c, 0, 61, 0
2, 55617, Note_on_c, 0, 64, 89
2, 55618, Note_on_c, 0, 52, 79
2, 55621, Note_on_c, 0, 61, 76
2, 55756, Note_on_c, 0, 57, 0
2, 55761, Note_on_c, 0, 57, 73
2, 55910, Note_on_c, 0, 92, 0
2, 55918, Note_on_c, 0, 64, 0
2, 55918, Note_on_c, 0, 80, 0
2, 55921, Note_on_c, 0, 92, 102
2, 55922, Note_on_c, 0, 64, 92
2, 55922, Note_on_c, 0, 80, 99
2, 56064, Note_on_c, 0, 69, 0
2, 56071, Note_on_c, 0, 85, 0
2, 56071, Note_on_c, 0, 88, 0
2, 56074, Note_on_c, 0, 69, 83
2, 56076, Note_on_c, 0, 95, 105
2, 56077, Note_on_c, 0, 85, 94
2, 56081, Note_on_c, 0, 88, 87
2, 56082, Note_on_c, 0, 83, 93
2, 56225, Note_on_c, 0, 69, 0
2, 56233, Note_on_c, 0, 73, 92
2, 56236, Note_on_c, 0, 69, 78
2, 56363, Note_on_c, 0, 64, 0
2, 56369, Note_on_c, 0, 64, 90
2, 56401, Note_on_c, 0, 61, 0
2, 56412, Note_on_c, 0, 61, 33
2, 56532, Note_on_c, 0, 69, 0
2, 56532, Note_on_c, 0, 73, 0
2, 56532, Note_on_c, 0, 76, 0
2, 56534, Note_on_c, 0, 57, 0
2, 56537, Note_on_c, 0, 73, 81
2, 56539, Note_on_c, 0, 69, 73
2, 56541, Note_on_c, 0, 76, 87
2, 56655, Note_on_c, 0, 64, 0
2, 56665, Note_on_c, 0, 64, 85
2, 56824, Note_on_c, 0, 33, 0
2, 56824, Note_on_c, 0, 45, 0
2, 56824, Note_on_c, 0, 80, 0
2, 56824, Note_on_c, 0, 85, 0
2, 56824, Note_on_c, 0, 92, 0
2, 56824, Note_on_c, 0, 95, 0
2, 56829, Control_c, 0, 64, 0
2, 56830, Note_on_c, 0, 80, 101
2, 56832, Note_on_c, 0, 88, 0
2, 56832, Note_on_c, 0, 85, 101
2, 56833, Note_on_c, 0, 45, 91
2, 56834, Note_on_c, 0, 92, 102
2, 56835, Note_on_c, 0, 73, 0
2, 56835, Note_on_c, 0, 83, 0
2, 56835, Note_on_c, 0, 33, 87
2, 56835, Note_on_c, 0, 61, 0
2, 56835, Note_on_c, 0, 81, 0
2, 56835, Note_on_c, 0, 90, 0
2, 56836, Note_on_c, 0, 51, 0
2, 56836, Note_on_c, 0, 64, 0
2, 56836, Note_on_c, 0, 49, 0
2, 56836, Note_on_c, 0, 69, 0
2, 56836, Note_on_c, 0, 78, 0
2, 56836, Note_on_c, 0, 40, 0
2, 56836, Note_on_c, 0, 76, 0
2, 56840, Note_on_c, 0, 88, 84
2, 56855, Note_on_c, 0, 87, 0
2, 56862, Note_on_c, 0, 52, 0
2, 56908, Control_c, 0, 64, 127
2, 56916, Note_on_c, 0, 45, 0
2, 56990, Note_on_c, 0, 90, 99
2, 56993, Note_on_c, 0, 78, 93
2, 56997, Note_on_c, 0, 87, 84
2, 57002, Note_on_c, 0, 40, 70
2, 57124, Note_on_c, 0, 45, 82
2, 57131, Note_on_c, 0, 78, 0
2, 57131, Note_on_c, 0, 90, 0
2, 57140, Note_on_c, 0, 90, 88
2, 57140, Note_on_c, 0, 78, 92
2, 57277, Note_on_c, 0, 88, 0
2, 57285, Note_on_c, 0, 40, 0
2, 57285, Note_on_c, 0, 85, 0
2, 57285, Note_on_c, 0, 88, 99
2, 57288, Note_on_c, 0, 52, 74
2, 57288, Note_on_c, 0, 49, 81
2, 57290, Note_on_c, 0, 40, 69
2, 57290, Note_on_c, 0, 85, 94
2, 57290, Note_on_c, 0, 81, 85
2, 57291, Note_on_c, 0, 76, 91
2, 57445, Note_on_c, 0, 57, 80
2, 57592, Note_on_c, 0, 45, 0
2, 57598, Note_on_c, 0, 45, 73
2, 57722, Note_on_c, 0, 52, 0
2, 57732, Note_on_c, 0, 52, 81
2, 57753, Note_on_c, 0, 80, 0
2, 57753, Note_on_c, 0, 92, 0
2, 57763, Note_on_c, 0, 92, 95
2, 57764, Note_on_c, 0, 80, 91
2, 57884, Note_on_c, 0, 57, 0
2, 57893, Note_on_c, 0, 57, 79
2, 57897, Note_on_c, 0, 61, 77
2, 57899, Note_on_c, 0, 85, 0
2, 57904, Note_on_c, 0, 85, 96
2, 57907, Note_on_c, 0, 88, 0
2, 57909, Note_on_c, 0, 95, 104
2, 57910, Note_on_c, 0, 83, 95
2, 57913, Note_on_c, 0, 88, 90
2, 58045, Note_on_c, 0, 61, 0
2, 58055, Note_on_c, 0, 64, 86
2, 58056, Note_on_c, 0, 61, 74
2, 58191, Note_on_c, 0, 57, 0
2, 58202, Note_on_c, 0, 57, 75
2, 58352, Note_on_c, 0, 64, 0
2, 58352, Note_on_c, 0, 80, 0
2, 58352, Note_on_c, 0, 92, 0
2, 58360, Note_on_c, 0, 85, 0
2, 58361, Note_on_c, 0, 92, 99
2, 58362, Note_on_c, 0, 80, 95
2, 58363, Note_on_c, 0, 64, 78
2, 58368, Note_on_c, 0, 57, 0
2, 58371, Note_on_c, 0, 85, 87
2, 58374, Note_on_c, 0, 57, 57
2, 58506, Note_on_c, 0, 85, 0
2, 58506, Note_on_c, 0, 88, 0
2, 58506, Note_on_c, 0, 95, 0
2, 58511, Note_on_c, 0, 69, 80
2, 58511, Note_on_c, 0, 85, 96
2, 58513, Note_on_c, 0, 83, 0
2, 58516, Note_on_c, 0, 88, 91
2, 58517, Note_on_c, 0, 95, 102
2, 58519, Note_on_c, 0, 83, 90
2, 58662, Note_on_c, 0, 73, 89
2, 58667, Note_on_c, 0, 69, 0
2, 58671, Note_on_c, 0, 69, 62
2, 58798, Note_on_c, 0, 64, 0
2, 58805, Note_on_c, 0, 57, 0
2, 58809, Note_on_c, 0, 64, 79
2, 58813, Note_on_c, 0, 57, 51
2, 58951, Note_on_c, 0, 73, 0
2, 58951, Note_on_c, 0, 85, 0
2, 58955, Note_on_c, 0, 97, 106
2, 58960, Note_on_c, 0, 85, 102
2, 58962, Note_on_c, 0, 73, 86
2, 58967, Note_on_c, 0, 33, 0
2, 58967, Note_on_c, 0, 76, 0
2, 58973, Note_on_c, 0, 76, 84
2, 58982, Note_on_c, 0, 69, 0
2, 58987, Note_on_c, 0, 69, 52
2, 59082, Note_on_c, 0, 64, 0
2, 59089, Note_on_c, 0, 64, 75
2, 59098, Note_on_c, 0, 45, 0
2, 59120, Note_on_c, 0, 83, 0
2, 59120, Note_on_c, 0, 87, 0
2, 59120, Note_on_c, 0, 95, 0
2, 59124, Note_on_c, 0, 95, 103
2, 59128, Note_on_c, 0, 90, 0
2, 59129, Note_on_c, 0, 83, 101
2, 59130, Note_on_c, 0, 87, 97
2, 59136, Note_on_c, 0, 90, 88
2, 59256, Note_on_c, 0, 92, 0
2, 59256, Note_on_c, 0, 81, 0
2, 59257, Note_on_c, 0, 80, 0
2, 59257, Note_on_c, 0, 73, 0
2, 59257, Note_on_c, 0, 49, 0
2, 59257, Note_on_c, 0, 76, 0
2, 59257, Note_on_c, 0, 69, 0
2, 59257, Note_on_c, 0, 88, 0
2, 59258, Note_on_c, 0, 61, 0
2, 59258, Note_on_c, 0, 97, 0
2, 59258, Note_on_c, 0, 64, 0
2, 59258, Note_on_c, 0, 85, 0
2, 59258, Note_on_c, 0, 78, 0
2, 59261, Control_c, 0, 64, 0
2, 59266, Note_on_c, 0, 52, 0
2, 59274, Note_on_c, 0, 40, 0
2, 59274, Note_on_c, 0, 57, 0
2, 59278, Note_on_c, 0, 47, 82
2, 59279, Note_on_c, 0, 35, 74
2, 59328, Control_c, 0, 64, 127
2, 59423, Note_on_c, 0, 42, 71
2, 59520, Note_on_c, 0, 47, 0
2, 59578, Note_on_c, 0, 54, 68
2, 59586, Note_on_c, 0, 51, 69
2, 59730, Note_on_c, 0, 47, 68
2, 59880, Note_on_c, 0, 54, 0
2, 59887, Note_on_c, 0, 54, 69
2, 59887, Note_on_c, 0, 59, 76
2, 59888, Note_on_c, 0, 71, 69
2, 59896, Note_on_c, 0, 71, 0
2, 60026, Note_on_c, 0, 51, 0
2, 60035, Note_on_c, 0, 51, 68
2, 60203, Note_on_c, 0, 59, 0
2, 60205, Note_on_c, 0, 63, 79
2, 60212, Note_on_c, 0, 59, 65
2, 60334, Note_on_c, 0, 54, 0
2, 60341, Note_on_c, 0, 54, 80
2, 60364, Note_on_c, 0, 83, 0
2, 60364, Note_on_c, 0, 95, 0
2, 60371, Note_on_c, 0, 95, 96
2, 60371, Note_on_c, 0, 83, 92
2, 60503, Note_on_c, 0, 63, 0
2, 60503, Note_on_c, 0, 87, 0
2, 60506, Note_on_c, 0, 99, 110
2, 60506, Note_on_c, 0, 66, 92
2, 60507, Note_on_c, 0, 87, 105
2, 60513, Note_on_c, 0, 63, 78
2, 60648, Note_on_c, 0, 59, 0
2, 60648, Note_on_c, 0, 83, 0
2, 60648, Note_on_c, 0, 95, 0
2, 60656, Note_on_c, 0, 95, 102
2, 60659, Note_on_c, 0, 83, 96
2, 60659, Note_on_c, 0, 59, 79
2, 60802, Note_on_c, 0, 95, 0
2, 60810, Note_on_c, 0, 95, 104
2, 60810, Note_on_c, 0, 66, 0
2, 60810, Note_on_c, 0, 83, 0
2, 60810, Note_on_c, 0, 87, 0
2, 60810, Note_on_c, 0, 90, 0
2, 60814, Note_on_c, 0, 87, 95
2, 60815, Note_on_c, 0, 83, 95
2, 60816, Note_on_c, 0, 90, 96
2, 60817, Note_on_c, 0, 66, 77
2, 60825, Note_on_c, 0, 59, 0
2, 60835, Note_on_c, 0, 59, 67
2, 60948, Note_on_c, 0, 63, 0
2, 60953, Note_on_c, 0, 63, 75
2, 61122, Note_on_c, 0, 71, 66
2, 61126, Note_on_c, 0, 75, 64
2, 61248, Note_on_c, 0, 66, 0
2, 61256, Note_on_c, 0, 66, 70
2, 61409, Note_on_c, 0, 90, 0
2, 61416, Note_on_c, 0, 78, 92
2, 61416, Note_on_c, 0, 75, 0
2, 61419, Note_on_c, 0, 90, 104
2, 61421, Note_on_c, 0, 75, 85
2, 61524, Note_on_c, 0, 71, 0
2, 61528, Note_on_c, 0, 71, 65
2, 61570, Note_on_c, 0, 87, 0
2, 61570, Note_on_c, 0, 95, 0
2, 61578, Note_on_c, 0, 83, 0
2, 61578, Note_on_c, 0, 90, 0
2, 61580, Note_on_c, 0, 95, 105
2, 61582, Note_on_c, 0, 87, 99
2, 61582, Note_on_c, 0, 83, 97
2, 61583, Note_on_c, 0, 90, 99
2, 61716, Note_on_c, 0, 47, 0
2, 61724, Note_on_c, 0, 59, 0
2, 61727, Note_on_c, 0, 47, 67
2, 61728, Note_on_c, 0, 59, 75
2, 61731, Note_on_c, 0, 35, 0
2, 61734, Note_on_c, 0, 54, 0
2, 61735, Note_on_c, 0, 78, 0
2, 61735, Note_on_c, 0, 63, 0
2, 61735, Note_on_c, 0, 99, 0
2, 61735, Note_on_c, 0, 75, 0
2, 61735, Note_on_c, 0, 66, 0
2, 61736, Control_c, 0, 64, 0
2, 61736, Note_on_c, 0, 71, 0
2, 61747, Note_on_c, 0, 42, 0
2, 61762, Note_on_c, 0, 51, 0
2, 61800, Control_c, 0, 64, 127
2, 61882, Note_on_c, 0, 54, 74
2, 61946, Note_on_c, 0, 47, 0
2, 62033, Note_on_c, 0, 63, 75
2, 62184, Note_on_c, 0, 59, 0
2, 62194, Note_on_c, 0, 59, 72
2, 62353, Note_on_c, 0, 63, 0
2, 62357, Note_on_c, 0, 63, 63
2, 62358, Note_on_c, 0, 66, 66
2, 62499, Note_on_c, 0, 59, 0
2, 62511, Note_on_c, 0, 59, 68
2, 62653, Note_on_c, 0, 66, 0
2, 62658, Note_on_c, 0, 66, 69
2, 62663, Note_on_c, 0, 71, 67
2, 62676, Note_on_c, 0, 63, 0
2, 62685, Note_on_c, 0, 63, 56
2, 62784, Note_on_c, 0, 59, 0
2, 62792, Note_on_c, 0, 59, 71
2, 62812, Note_on_c, 0, 92, 83
2, 62821, Note_on_c, 0, 80, 83
2, 62936, Control_c, 0, 64, 0
2, 62937, Note_on_c, 0, 54, 0
2, 62937, Note_on_c, 0, 71, 0
2, 62937, Note_on_c, 0, 59, 0
2, 62937, Note_on_c, 0, 63, 0
2, 62938, Note_on_c, 0, 66, 0
2, 62940, Note_on_c, 0, 92, 0
2, 62941, Note_on_c, 0, 80, 0
2, 62945, Note_on_c, 0, 95, 0
2, 62952, Note_on_c, 0, 83, 0
2, 62960, Note_on_c, 0, 90, 0
2, 62964, Note_on_c, 0, 90, 103
2, 62966, Note_on_c, 0, 49, 73
2, 62971, Note_on_c, 0, 78, 91
2, 62991, Control_c, 0, 64, 127
2, 63091, Note_on_c, 0, 87, 0
2, 63116, Note_on_c, 0, 56, 73
2, 63273, Note_on_c, 0, 45, 69
2, 63273, Note_on_c, 0, 88, 95
2, 63281, Control_c, 0, 64, 0
2, 63281, Note_on_c, 0, 76, 81
2, 63284, Note_on_c, 0, 56, 0
2, 63285, Note_on_c, 0, 90, 0
2, 63286, Note_on_c, 0, 78, 0
2, 63290, Note_on_c, 0, 49, 0
2, 63329, Control_c, 0, 64, 127
2, 63431, Note_on_c, 0, 52, 73
2, 63578, Note_on_c, 0, 85, 89
2, 63585, Note_on_c, 0, 57, 69
2, 63585, Note_on_c, 0, 73, 81
2, 63726, Note_on_c, 0, 61, 68
2, 63897, Note_on_c, 0, 88, 0
2, 63898, Note_on_c, 0, 85, 0
2, 63899, Note_on_c, 0, 52, 0
2, 63899, Note_on_c, 0, 83, 87
2, 63899, Note_on_c, 0, 73, 0
2, 63900, Note_on_c, 0, 61, 0
2, 63900, Control_c, 0, 64, 0
2, 63900, Note_on_c, 0, 57, 0
2, 63900, Note_on_c, 0, 44, 67
2, 63905, Note_on_c, 0, 45, 0
2, 63911, Note_on_c, 0, 80, 80
2, 63912, Note_on_c, 0, 71, 73
2, 63912, Note_on_c, 0, 76, 0
2, 63917, Note_on_c, 0, 76, 66
2, 64005, Control_c, 0, 64, 127
2, 64061, Note_on_c, 0, 52, 63
2, 64151, Note_on_c, 0, 44, 0
2, 64207, Note_on_c, 0, 56, 60
2, 64355, Note_on_c, 0, 59, 66
2, 64508, Note_on_c, 0, 64, 68
2, 64662, Note_on_c, 0, 68, 59
2, 64819, Note_on_c, 0, 71, 0
2, 64828, Note_on_c, 0, 71, 52
2, 64995, Note_on_c, 0, 76, 0
2, 65002, Note_on_c, 0, 76, 59
2, 65141, Note_on_c, 0, 80, 0
2, 65147, Note_on_c, 0, 80, 72
2, 65280, Note_on_c, 0, 80, 0
2, 65283, Note_on_c, 0, 92, 77
2, 65284, Note_on_c, 0, 80, 81
2, 65411, Note_on_c, 0, 68, 0
2, 65412, Note_on_c, 0, 56, 0
2, 65412, Note_on_c, 0, 71, 0
2, 65412, Note_on_c, 0, 76, 0
2, 65412, Note_on_c, 0, 59, 0
2, 65412, Note_on_c, 0, 52, 0
2, 65412, Note_on_c, 0, 80, 0
2, 65413, Note_on_c, 0, 83, 0
2, 65413, Note_on_c, 0, 64, 0
2, 65413, Control_c, 0, 64, 0
2, 65425, Note_on_c, 0, 92, 0
2, 65439, Note_on_c, 0, 90, 99
2, 65449, Note_on_c, 0, 78, 90
2, 65449, Note_on_c, 0, 49, 71
2, 65479, Control_c, 0, 64, 127
2, 65605, Note_on_c, 0, 56, 63
2, 65739, Note_on_c, 0, 88, 92
2, 65744, Note_on_c, 0, 45, 68
2, 65747, Note_on_c, 0, 76, 77
2, 65754, Note_on_c, 0, 90, 0
2, 65755, Note_on_c, 0, 56, 0
2, 65758, Note_on_c, 0, 78, 0
2, 65759, Control_c, 0, 64, 0
2, 65779, Note_on_c, 0, 49, 0
2, 65809, Control_c, 0, 64, 127
2, 65902, Note_on_c, 0, 52, 72
2, 66051, Note_on_c, 0, 85, 88
2, 66058, Note_on_c, 0, 57, 69
2, 66059, Note_on_c, 0, 73, 79
2, 66195, Note_on_c, 0, 61, 68
2, 66365, Note_on_c, 0, 83, 89
2, 66367, Note_on_c, 0, 88, 0
2, 66368, Note_on_c, 0, 44, 66
2, 66368, Note_on_c, 0, 52, 0
2, 66368, Note_on_c, 0, 85, 0
2, 66369, Note_on_c, 0, 61, 0
2, 66369, Note_on_c, 0, 73, 0
2, 66369, Control_c, 0, 64, 0
2, 66370, Note_on_c, 0, 57, 0
2, 66380, Note_on_c, 0, 71, 70
2, 66382, Note_on_c, 0, 80, 80
2, 66385, Note_on_c, 0, 45, 0
2, 66385, Note_on_c, 0, 76, 0
2, 66395, Note_on_c, 0, 76, 60
2, 66470, Control_c, 0, 64, 127
2, 66550, Note_on_c, 0, 52, 63
2, 66657, Note_on_c, 0, 56, 74
2, 66818, Note_on_c, 0, 59, 62
2, 66965, Note_on_c, 0, 64, 64
2, 67104, Note_on_c, 0, 68, 60
2, 67269, Note_on_c, 0, 71, 0
2, 67279, Note_on_c, 0, 71, 56
2, 67422, Note_on_c, 0, 76, 0
2, 67430, Note_on_c, 0, 76, 58
2, 67568, Note_on_c, 0, 56, 0
2, 67576, Note_on_c, 0, 80, 0
2, 67579, Note_on_c, 0, 56, 46
2, 67580, Note_on_c, 0, 80, 84
2, 67722, Note_on_c, 0, 80, 0
2, 67726, Note_on_c, 0, 92, 100
2, 67728, Note_on_c, 0, 80, 88
2, 67861, Note_on_c, 0, 68, 0
2, 67861, Note_on_c, 0, 52, 0
2, 67861, Control_c, 0, 64, 0
2, 67861, Note_on_c, 0, 59, 0
2, 67861, Note_on_c, 0, 56, 0
2, 67861, Note_on_c, 0, 71, 0
2, 67861, Note_on_c, 0, 80, 0
2, 67862, Note_on_c, 0, 64, 0
2, 67862, Note_on_c, 0, 76, 0
2, 67862, Note_on_c, 0, 83, 0
2, 67863, Note_on_c, 0, 92, 0
2, 67863, Note_on_c, 0, 44, 0
2, 67892, Note_on_c, 0, 90, 100
2, 67896, Note_on_c, 0, 49, 73
2, 67897, Note_on_c, 0, 78, 96
2, 67921, Control_c, 0, 64, 127
2, 68040, Note_on_c, 0, 56, 66
2, 68191, Note_on_c, 0, 88, 96
2, 68194, Note_on_c, 0, 45, 62
2, 68197, Note_on_c, 0, 76, 89
2, 68342, Note_on_c, 0, 52, 71
2, 68480, Note_on_c, 0, 90, 0
2, 68481, Note_on_c, 0, 56, 0
2, 68482, Note_on_c, 0, 49, 0
2, 68482, Note_on_c, 0, 52, 0
2, 68482, Control_c, 0, 64, 0
2, 68483, Note_on_c, 0, 88, 0
2, 68483, Note_on_c, 0, 45, 0
2, 68484, Note_on_c, 0, 76, 0
2, 68495, Note_on_c, 0, 44, 70
2, 68497, Note_on_c, 0, 78, 0
2, 68500, Note_on_c, 0, 83, 82
2, 68507, Note_on_c, 0, 71, 75
2, 68507, Note_on_c, 0, 78, 77
2, 68510, Note_on_c, 0, 75, 78
2, 68551, Control_c, 0, 64, 127
2, 68647, Note_on_c, 0, 56, 68
2, 68805, Note_on_c, 0, 78, 0
2, 68808, Note_on_c, 0, 75, 0
2, 68808, Control_c, 0, 64, 0
2, 68809, Note_on_c, 0, 56, 0
2, 68809, Note_on_c, 0, 44, 0
2, 68810, Note_on_c, 0, 83, 0
2, 68810, Note_on_c, 0, 71, 0
2, 68823, Note_on_c, 0, 85, 96
2, 68827, Note_on_c, 0, 73, 84
2, 68827, Note_on_c, 0, 80, 87
2, 68828, Note_on_c, 0, 37, 62
2, 68830, Note_on_c, 0, 76, 80
2, 68874, Control_c, 0, 64, 127
2, 69011, Note_on_c, 0, 44, 53
2, 69127, Note_on_c, 0, 49, 52
2, 69292, Note_on_c, 0, 52, 76
2, 69293, Note_on_c, 0, 61, 81
2, 69298, Note_on_c, 0, 56, 71
2, 69442, Note_on_c, 0, 49, 0
2, 69453, Note_on_c, 0, 49, 66
2, 69588, Note_on_c, 0, 56, 0
2, 69599, Note_on_c, 0, 56, 70
2, 69749, Note_on_c, 0, 73, 0
2, 69754, Note_on_c, 0, 73, 91
2, 69756, Note_on_c, 0, 64, 83
2, 69758, Note_on_c, 0, 68, 78
2, 69918, Note_on_c, 0, 61, 0
2, 69923, Note_on_c, 0, 61, 70
2, 70056, Note_on_c, 0, 68, 0
2, 70063, Note_on_c, 0, 68, 76
2, 70210, Note_on_c, 0, 76, 0
2, 70210, Note_on_c, 0, 80, 0
2, 70210, Note_on_c, 0, 85, 0
2, 70214, Note_on_c, 0, 85, 99
2, 70217, Note_on_c, 0, 76, 82
2, 70219, Note_on_c, 0, 80, 83
2, 70364, Note_on_c, 0, 73, 0
2, 70372, Note_on_c, 0, 73, 87
2, 70510, Note_on_c, 0, 80, 0
2, 70518, Note_on_c, 0, 80, 84
2, 70671, Note_on_c, 0, 85, 0
2, 70678, Note_on_c, 0, 97, 110
2, 70681, Note_on_c, 0, 85, 100
2, 70681, Note_on_c, 0, 92, 85
2, 70683, Note_on_c, 0, 88, 94
2, 70832, Note_on_c, 0, 85, 0
2, 70832, Note_on_c, 0, 88, 0
2, 70832, Note_on_c, 0, 97, 0
2, 70837, Note_on_c, 0, 97, 102
2, 70840, Note_on_c, 0, 85, 96
2, 70844, Note_on_c, 0, 88, 83
2, 71040, Note_on_c, 0, 37, 0
2, 71938, Note_on_c, 0, 44, 0
2, 71969, Note_on_c, 0, 56, 0
2, 71969, Note_on_c, 0, 61, 0
2, 71969, Note_on_c, 0, 92, 0
2, 71976, Note_on_c, 0, 49, 0
2, 71976, Note_on_c, 0, 68, 0
2, 71976, Note_on_c, 0, 97, 0
2, 71992, Note_on_c, 0, 64, 0
2, 72000, Note_on_c, 0, 76, 0
2, 72007, Note_on_c, 0, 52, 0
2, 72007, Note_on_c, 0, 73, 0
2, 72056, Control_c, 0, 64, 0
2, 72069, Note_on_c, 0, 80, 0
2, 72099, Note_on_c, 0, 85, 0
2, 72268, Note_on_c, 0, 88, 0
2, 72899, Note_on_c, 0, 55, 46
2, 72899, Note_on_c, 0, 78, 61
2, 72900, Note_on_c, 0, 74, 48
2, 72932, Note_on_c, 0, 71, 36
2, 72960, Control_c, 0, 64, 127
2, 73086, Note_on_c, 0, 81, 56
2, 73209, Note_on_c, 0, 86, 76
2, 73297, Note_on_c, 0, 55, 0
2, 73374, Note_on_c, 0, 86, 0
2, 73385, Note_on_c, 0, 86, 84
2, 73390, Note_on_c, 0, 71, 0
2, 73390, Note_on_c, 0, 74, 0
2, 73395, Note_on_c, 0, 55, 48
2, 73400, Note_on_c, 0, 74, 49
2, 73401, Note_on_c, 0, 71, 57
2, 73689, Note_on_c, 0, 85, 82
2, 73843, Note_on_c, 0, 55, 0
2, 73853, Note_on_c, 0, 55, 63
2, 73855, Note_on_c, 0, 88, 79
2, 74158, Note_on_c, 0, 86, 0
2, 74165, Note_on_c, 0, 78, 0
2, 74165, Note_on_c, 0, 81, 0
2, 74167, Note_on_c, 0, 86, 87
2, 74172, Note_on_c, 0, 81, 69
2, 74175, Note_on_c, 0, 74, 0
2, 74176, Note_on_c, 0, 62, 58
2, 74176, Note_on_c, 0, 78, 70
2, 74176, Note_on_c, 0, 71, 0
2, 74177, Note_on_c, 0, 55, 0
2, 74177, Note_on_c, 0, 85, 0
2, 74177, Note_on_c, 0, 88, 0
2, 74191, Control_c, 0, 64, 0
2, 74296, Control_c, 0, 64, 127
2, 74336, Note_on_c, 0, 88, 74
2, 74494, Note_on_c, 0, 90, 71
2, 74641, Note_on_c, 0, 81, 0
2, 74652, Note_on_c, 0, 85, 87
2, 74653, Note_on_c, 0, 81, 63
2, 74661, Note_on_c, 0, 73, 57
2, 74668, Note_on_c, 0, 78, 0
2, 74668, Note_on_c, 0, 90, 0
2, 74668, Control_c, 0, 64, 0
2, 74669, Note_on_c, 0, 88, 0
2, 74669, Note_on_c, 0, 76, 56
2, 74673, Note_on_c, 0, 69, 51
2, 74695, Note_on_c, 0, 86, 0
2, 74764, Control_c, 0, 64, 127
2, 75147, Note_on_c, 0, 57, 64
2, 75451, Note_on_c, 0, 85, 0
2, 75451, Note_on_c, 0, 62, 0
2, 75451, Note_on_c, 0, 73, 0
2, 75451, Note_on_c, 0, 69, 0
2, 75452, Note_on_c, 0, 76, 0
2, 75452, Note_on_c, 0, 57, 0
2, 75455, Control_c, 0, 64, 0
2, 75463, Note_on_c, 0, 81, 0
2, 75477, Note_on_c, 0, 78, 75
2, 75479, Note_on_c, 0, 74, 60
2, 75488, Note_on_c, 0, 71, 62
2, 75498, Note_on_c, 0, 59, 61
2, 75532, Control_c, 0, 64, 127
2, 75578, Note_on_c, 0, 59, 0
2, 75640, Note_on_c, 0, 81, 77
2, 75794, Note_on_c, 0, 86, 87
2, 75955, Note_on_c, 0, 86, 0
2, 75962, Note_on_c, 0, 86, 93
2, 75970, Note_on_c, 0, 74, 0
2, 75977, Note_on_c, 0, 74, 59
2, 75981, Note_on_c, 0, 66, 51
2, 75981, Note_on_c, 0, 69, 55
2, 76275, Note_on_c, 0, 85, 81
2, 76431, Note_on_c, 0, 86, 0
2, 76442, Note_on_c, 0, 86, 96
2, 76443, Note_on_c, 0, 59, 67
2, 76751, Note_on_c, 0, 62, 68
2, 76754, Note_on_c, 0, 74, 0
2, 76755, Note_on_c, 0, 86, 0
2, 76755, Note_on_c, 0, 66, 0
2, 76756, Note_on_c, 0, 81, 0
2, 76756, Note_on_c, 0, 78, 0
2, 76756, Note_on_c, 0, 59, 0
2, 76756, Note_on_c, 0, 71, 0
2, 76756, Note_on_c, 0, 69, 0
2, 76757, Note_on_c, 0, 85, 0
2, 76759, Control_c, 0, 64, 0
2, 76869, Control_c, 0, 64, 127
2, 76913, Note_on_c, 0, 100, 90
2, 77075, Note_on_c, 0, 95, 86
2, 77229, Note_on_c, 0, 74, 60
2, 77234, Note_on_c, 0, 66, 55
2, 77239, Note_on_c, 0, 69, 43
2, 77378, Note_on_c, 0, 98, 91
2, 77533, Note_on_c, 0, 93, 80
2, 77697, Note_on_c, 0, 57, 60
2, 77856, Note_on_c, 0, 83, 80
2, 78005, Note_on_c, 0, 83, 0
2, 78007, Control_c, 0, 64, 0
2, 78009, Note_on_c, 0, 62, 0
2, 78010, Note_on_c, 0, 74, 0
2, 78010, Note_on_c, 0, 95, 0
2, 78011, Note_on_c, 0, 98, 0
2, 78011, Note_on_c, 0, 93, 0
2, 78011, Note_on_c, 0, 83, 89
2, 78012, Note_on_c, 0, 66, 0
2, 78012, Note_on_c, 0, 57, 0
2, 78012, Note_on_c, 0, 69, 0
2, 78013, Note_on_c, 0, 100, 0
2, 78014, Note_on_c, 0, 79, 79
2, 78016, Note_on_c, 0, 55, 65
2, 78090, Control_c, 0, 64, 127
2, 78332, Note_on_c, 0, 85, 91
2, 78352, Note_on_c, 0, 81, 71
2, 78492, Note_on_c, 0, 74, 60
2, 78501, Note_on_c, 0, 71, 62
2, 78501, Note_on_c, 0, 67, 47
2, 78650, Note_on_c, 0, 83, 0
2, 78655, Note_on_c, 0, 86, 96
2, 78658, Note_on_c, 0, 83, 81
2, 78681, Note_on_c, 0, 55, 0
2, 78967, Note_on_c, 0, 88, 94
2, 78969, Note_on_c, 0, 55, 56
2, 78973, Note_on_c, 0, 85, 0
2, 78983, Note_on_c, 0, 85, 84
2, 79246, Note_on_c, 0, 74, 0
2, 79246, Note_on_c, 0, 86, 0
2, 79246, Note_on_c, 0, 85, 0
2, 79246, Note_on_c, 0, 67, 0
2, 79246, Note_on_c, 0, 71, 0
2, 79246, Note_on_c, 0, 88, 0
2, 79246, Control_c, 0, 64, 0
2, 79247, Note_on_c, 0, 55, 0
2, 79247, Note_on_c, 0, 79, 0
2, 79265, Note_on_c, 0, 81, 0
2, 79272, Note_on_c, 0, 83, 0
2, 79278, Note_on_c, 0, 83, 84
2, 79285, Note_on_c, 0, 52, 68
2, 79311, Control_c, 0, 64, 127
2, 79447, Note_on_c, 0, 102, 82
2, 79614, Note_on_c, 0, 95, 81
2, 79738, Note_on_c, 0, 71, 68
2, 79740, Note_on_c, 0, 64, 62
2, 79745, Note_on_c, 0, 67, 55
2, 79906, Note_on_c, 0, 100, 90
2, 80067, Note_on_c, 0, 93, 77
2, 80194, Note_on_c, 0, 52, 0
2, 80206, Note_on_c, 0, 52, 66
2, 80363, Note_on_c, 0, 83, 0
2, 80368, Note_on_c, 0, 83, 81
2, 80488, Note_on_c, 0, 93, 0
2, 80490, Note_on_c, 0, 95, 0
2, 80491, Note_on_c, 0, 52, 0
2, 80492, Note_on_c, 0, 83, 0
2, 80493, Note_on_c, 0, 71, 0
2, 80493, Note_on_c, 0, 64, 0
2, 80493, Note_on_c, 0, 67, 0
2, 80494, Note_on_c, 0, 102, 0
2, 80496, Control_c, 0, 64, 0
2, 80501, Note_on_c, 0, 100, 0
2, 80525, Note_on_c, 0, 85, 89
2, 80528, Note_on_c, 0, 54, 66
2, 80535, Note_on_c, 0, 81, 70
2, 80593, Control_c, 0, 64, 127
2, 80609, Note_on_c, 0, 54, 0
2, 80824, Note_on_c, 0, 81, 0
2, 80834, Note_on_c, 0, 81, 80
2, 80871, Note_on_c, 0, 78, 58
2, 80996, Note_on_c, 0, 73, 68
2, 81002, Note_on_c, 0, 69, 57
2, 81004, Note_on_c, 0, 66, 57
2, 81161, Note_on_c, 0, 83, 80
2, 81466, Note_on_c, 0, 42, 52
2, 81473, Note_on_c, 0, 54, 50
2, 81477, Note_on_c, 0, 42, 0
2, 81477, Note_on_c, 0, 83, 0
2, 81488, Note_on_c, 0, 83, 84
2, 81500, Note_on_c, 0, 78, 0
2, 81504, Note_on_c, 0, 74, 57
2, 81511, Note_on_c, 0, 78, 62
2, 81766, Note_on_c, 0, 54, 0
2, 81766, Note_on_c, 0, 73, 0
2, 81767, Note_on_c, 0, 66, 0
2, 81767, Note_on_c, 0, 69, 0
2, 81768, Note_on_c, 0, 83, 0
2, 81768, Note_on_c, 0, 74, 0
2, 81768, Note_on_c, 0, 78, 0
2, 81769, Note_on_c, 0, 85, 0
2, 81776, Note_on_c, 0, 81, 0
2, 81778, Control_c, 0, 64, 0
2, 81806, Note_on_c, 0, 62, 59
2, 81806, Note_on_c, 0, 47, 60
2, 81815, Control_c, 0, 64, 127
2, 81816, Note_on_c, 0, 59, 54
2, 81818, Note_on_c, 0, 54, 57
2, 81972, Note_on_c, 0, 98, 84
2, 81979, Note_on_c, 0, 90, 77
2, 81999, Note_on_c, 0, 47, 0
2, 82119, Note_on_c, 0, 97, 89
2, 82119, Note_on_c, 0, 88, 74
2, 82271, Note_on_c, 0, 93, 76
2, 82271, Note_on_c, 0, 85, 90
2, 82403, Note_on_c, 0, 54, 0
2, 82403, Note_on_c, 0, 85, 0
2, 82404, Note_on_c, 0, 97, 0
2, 82404, Note_on_c, 0, 62, 0
2, 82405, Note_on_c, 0, 98, 0
2, 82405, Control_c, 0, 64, 0
2, 82405, Note_on_c, 0, 93, 0
2, 82406, Note_on_c, 0, 90, 0
2, 82406, Note_on_c, 0, 88, 0
2, 82411, Note_on_c, 0, 90, 90
2, 82414, Note_on_c, 0, 59, 0
2, 82417, Note_on_c, 0, 81, 84
2, 82433, Note_on_c, 0, 61, 59
2, 82439, Note_on_c, 0, 52, 61
2, 82460, Control_c, 0, 64, 127
2, 82574, Note_on_c, 0, 86, 91
2, 82579, Note_on_c, 0, 78, 76
2, 82725, Note_on_c, 0, 85, 87
2, 82727, Note_on_c, 0, 76, 70
2, 82867, Note_on_c, 0, 81, 0
2, 82872, Note_on_c, 0, 81, 86
2, 82877, Note_on_c, 0, 73, 80
2, 83013, Note_on_c, 0, 90, 0
2, 83014, Note_on_c, 0, 86, 0
2, 83015, Note_on_c, 0, 81, 0
2, 83015, Note_on_c, 0, 85, 0
2, 83015, Note_on_c, 0, 73, 0
2, 83015, Note_on_c, 0, 52, 0
2, 83016, Note_on_c, 0, 76, 0
2, 83017, Note_on_c, 0, 61, 0
2, 83017, Control_c, 0, 64, 0
2, 83028, Note_on_c, 0, 78, 0
2, 83036, Note_on_c, 0, 78, 90
2, 83039, Note_on_c, 0, 69, 78
2, 83040, Note_on_c, 0, 43, 76
2, 83046, Note_on_c, 0, 55, 69
2, 83074, Control_c, 0, 64, 127
2, 83077, Note_on_c, 0, 55, 0
2, 83179, Note_on_c, 0, 81, 89
2, 83183, Note_on_c, 0, 74, 76
2, 83223, Note_on_c, 0, 50, 66
2, 83351, Note_on_c, 0, 78, 0
2, 83352, Note_on_c, 0, 86, 93
2, 83361, Note_on_c, 0, 78, 81
2, 83361, Note_on_c, 0, 55, 57
2, 83504, Note_on_c, 0, 78, 0
2, 83504, Note_on_c, 0, 86, 0
2, 83507, Note_on_c, 0, 50, 0
2, 83507, Note_on_c, 0, 81, 0
2, 83507, Control_c, 0, 64, 0
2, 83508, Note_on_c, 0, 74, 0
2, 83509, Note_on_c, 0, 86, 91
2, 83512, Note_on_c, 0, 55, 0
2, 83514, Note_on_c, 0, 78, 83
2, 83516, Note_on_c, 0, 62, 66
2, 83519, Note_on_c, 0, 55, 60
2, 83520, Note_on_c, 0, 43, 0
2, 83520, Note_on_c, 0, 69, 0
2, 83566, Control_c, 0, 64, 127
2, 83678, Note_on_c, 0, 59, 74
2, 83811, Note_on_c, 0, 62, 0
2, 83822, Note_on_c, 0, 62, 63
2, 83829, Note_on_c, 0, 85, 88
2, 83838, Note_on_c, 0, 76, 66
2, 83934, Note_on_c, 0, 85, 0
2, 83934, Note_on_c, 0, 86, 0
2, 83945, Note_on_c, 0, 86, 89
2, 83945, Note_on_c, 0, 85, 88
2, 83962, Control_c, 0, 64, 0
2, 83970, Note_on_c, 0, 67, 68
2, 83977, Note_on_c, 0, 88, 82
2, 83980, Control_c, 0, 64, 127
2, 83988, Note_on_c, 0, 81, 69
2, 84119, Note_on_c, 0, 55, 0
2, 84127, Note_on_c, 0, 55, 72
2, 84295, Note_on_c, 0, 86, 0
2, 84298, Note_on_c, 0, 85, 0
2, 84299, Note_on_c, 0, 76, 0
2, 84299, Note_on_c, 0, 88, 0
2, 84300, Note_on_c, 0, 67, 0
2, 84300, Note_on_c, 0, 59, 0
2, 84300, Note_on_c, 0, 55, 0
2, 84300, Note_on_c, 0, 81, 0
2, 84301, Control_c, 0, 64, 0
2, 84303, Note_on_c, 0, 78, 0
2, 84303, Note_on_c, 0, 86, 91
2, 84307, Note_on_c, 0, 78, 84
2, 84315, Note_on_c, 0, 50, 75
2, 84318, Note_on_c, 0, 62, 0
2, 84364, Control_c, 0, 64, 127
2, 84451, Note_on_c, 0, 88, 88
2, 84459, Note_on_c, 0, 81, 78
2, 84479, Note_on_c, 0, 57, 67
2, 84595, Note_on_c, 0, 50, 0
2, 84606, Note_on_c, 0, 50, 80
2, 84615, Note_on_c, 0, 90, 80
2, 84719, Note_on_c, 0, 88, 0
2, 84720, Note_on_c, 0, 50, 0
2, 84720, Note_on_c, 0, 57, 0
2, 84720, Note_on_c, 0, 81, 0
2, 84720, Note_on_c, 0, 86, 0
2, 84720, Note_on_c, 0, 78, 0
2, 84720, Control_c, 0, 64, 0
2, 84720, Note_on_c, 0, 90, 0
2, 84769, Note_on_c, 0, 85, 96
2, 84776, Note_on_c, 0, 45, 72
2, 84783, Note_on_c, 0, 76, 73
2, 84783, Note_on_c, 0, 57, 72
2, 84787, Control_c, 0, 64, 127
2, 84879, Note_on_c, 0, 45, 0
2, 84939, Note_on_c, 0, 61, 64
2, 85086, Note_on_c, 0, 64, 72
2, 85246, Note_on_c, 0, 69, 69
2, 85255, Note_on_c, 0, 64, 0
2, 85265, Note_on_c, 0, 64, 66
2, 85370, Note_on_c, 0, 57, 0
2, 85382, Note_on_c, 0, 57, 62
2, 85540, Control_c, 0, 64, 0
2, 85542, Note_on_c, 0, 85, 0
2, 85542, Note_on_c, 0, 61, 0
2, 85542, Note_on_c, 0, 57, 0
2, 85543, Note_on_c, 0, 64, 0
2, 85543, Note_on_c, 0, 76, 0
2, 85551, Note_on_c, 0, 78, 87
2, 85555, Note_on_c, 0, 69, 0
2, 85557, Note_on_c, 0, 59, 75
2, 85559, Note_on_c, 0, 47, 69
2, 85559, Note_on_c, 0, 69, 68
2, 85603, Note_on_c, 0, 59, 0
2, 85606, Note_on_c, 0, 47, 0
2, 85616, Control_c, 0, 64, 127
2, 85647, Note_on_c, 0, 69, 0
2, 85698, Note_on_c, 0, 81, 87
2, 85701, Note_on_c, 0, 74, 67
2, 85707, Note_on_c, 0, 54, 67
2, 85853, Note_on_c, 0, 59, 80
2, 85854, Note_on_c, 0, 78, 0
2, 85857, Note_on_c, 0, 86, 89
2, 85859, Note_on_c, 0, 78, 86
2, 86000, Note_on_c, 0, 86, 0
2, 86005, Note_on_c, 0, 57, 66
2, 86008, Note_on_c, 0, 86, 95
2, 86023, Note_on_c, 0, 78, 0
2, 86028, Note_on_c, 0, 78, 67
2, 86029, Note_on_c, 0, 62, 56
2, 86177, Note_on_c, 0, 59, 0
2, 86187, Note_on_c, 0, 59, 70
2, 86326, Note_on_c, 0, 85, 88
2, 86338, Note_on_c, 0, 62, 0
2, 86345, Note_on_c, 0, 62, 69
2, 86349, Note_on_c, 0, 76, 58
2, 86476, Note_on_c, 0, 86, 0
2, 86484, Note_on_c, 0, 86, 99
2, 86492, Note_on_c, 0, 78, 0
2, 86496, Note_on_c, 0, 78, 88
2, 86503, Note_on_c, 0, 69, 74
2, 86515, Note_on_c, 0, 62, 0
2, 86520, Note_on_c, 0, 62, 63
2, 86630, Note_on_c, 0, 57, 0
2, 86630, Note_on_c, 0, 78, 0
2, 86636, Note_on_c, 0, 78, 66
2, 86638, Note_on_c, 0, 57, 67
2, 86786, Note_on_c, 0, 81, 0
2, 86786, Note_on_c, 0, 76, 0
2, 86786, Note_on_c, 0, 57, 0
2, 86787, Note_on_c, 0, 54, 0
2, 86787, Note_on_c, 0, 85, 0
2, 86787, Note_on_c, 0, 59, 0
2, 86787, Note_on_c, 0, 74, 0
2, 86787, Note_on_c, 0, 62, 0
2, 86788, Control_c, 0, 64, 0
2, 86799, Note_on_c, 0, 69, 0
2, 86799, Note_on_c, 0, 50, 71
2, 86860, Note_on_c, 0, 86, 0
2, 86876, Control_c, 0, 64, 127
2, 86950, Note_on_c, 0, 76, 77
2, 86967, Note_on_c, 0, 57, 64
2, 86971, Note_on_c, 0, 66, 61
2, 87037, Note_on_c, 0, 50, 0
2, 87112, Note_on_c, 0, 71, 76
2, 87152, Note_on_c, 0, 78, 0
2, 87164, Control_c, 0, 64, 0
2, 87165, Note_on_c, 0, 66, 0
2, 87166, Note_on_c, 0, 57, 0
2, 87167, Note_on_c, 0, 76, 0
2, 87173, Note_on_c, 0, 71, 0
2, 87256, Note_on_c, 0, 45, 69
2, 87306, Control_c, 0, 64, 127
2, 87336, Note_on_c, 0, 45, 0
2, 87411, Note_on_c, 0, 74, 78
2, 87411, Note_on_c, 0, 52, 68
2, 87425, Note_on_c, 0, 61, 57
2, 87567, Note_on_c, 0, 69, 74
2, 87700, Control_c, 0, 64, 0
2, 87700, Note_on_c, 0, 52, 0
2, 87700, Note_on_c, 0, 61, 0
2, 87700, Note_on_c, 0, 69, 0
2, 87701, Note_on_c, 0, 74, 0
2, 87711, Note_on_c, 0, 45, 66
2, 87770, Note_on_c, 0, 45, 0
2, 87774, Control_c, 0, 64, 127
2, 87873, Note_on_c, 0, 83, 85
2, 87877, Note_on_c, 0, 52, 72
2, 87878, Note_on_c, 0, 74, 72
2, 87879, Note_on_c, 0, 79, 75
2, 87881, Note_on_c, 0, 71, 75
2, 88012, Control_c, 0, 64, 0
2, 88013, Note_on_c, 0, 71, 0
2, 88013, Note_on_c, 0, 52, 0
2, 88014, Note_on_c, 0, 74, 0
2, 88015, Note_on_c, 0, 79, 0
2, 88028, Note_on_c, 0, 83, 0
2, 88038, Note_on_c, 0, 43, 70
2, 88039, Note_on_c, 0, 83, 88
2, 88046, Note_on_c, 0, 71, 73
2, 88048, Note_on_c, 0, 74, 59
2, 88081, Control_c, 0, 64, 127
2, 88209, Note_on_c, 0, 50, 58
2, 88344, Note_on_c, 0, 85, 90
2, 88346, Note_on_c, 0, 73, 79
2, 88354, Note_on_c, 0, 55, 66
2, 88354, Note_on_c, 0, 76, 68
2, 88495, Note_on_c, 0, 59, 81
2, 88655, Control_c, 0, 64, 0
2, 88658, Note_on_c, 0, 55, 0
2, 88659, Note_on_c, 0, 50, 0
2, 88659, Note_on_c, 0, 73, 0
2, 88660, Note_on_c, 0, 85, 0
2, 88660, Note_on_c, 0, 76, 0
2, 88661, Note_on_c, 0, 43, 0
2, 88661, Note_on_c, 0, 71, 0
2, 88661, Note_on_c, 0, 59, 0
2, 88662, Note_on_c, 0, 86, 92
2, 88665, Note_on_c, 0, 74, 0
2, 88665, Note_on_c, 0, 83, 0
2, 88669, Note_on_c, 0, 62, 62
2, 88671, Note_on_c, 0, 79, 78
2, 88675, Note_on_c, 0, 74, 68
2, 88675, Note_on_c, 0, 83, 73
2, 88719, Control_c, 0, 64, 127
2, 88815, Note_on_c, 0, 67, 70
2, 88954, Note_on_c, 0, 88, 94
2, 88960, Note_on_c, 0, 85, 90
2, 88976, Note_on_c, 0, 76, 77
2, 88989, Note_on_c, 0, 71, 68
2, 89120, Note_on_c, 0, 59, 73
2, 89272, Note_on_c, 0, 79, 0
2, 89272, Note_on_c, 0, 83, 0
2, 89275, Note_on_c, 0, 85, 0
2, 89276, Note_on_c, 0, 88, 0
2, 89276, Note_on_c, 0, 62, 0
2, 89277, Note_on_c, 0, 67, 0
2, 89277, Note_on_c, 0, 86, 0
2, 89278, Note_on_c, 0, 74, 0
2, 89279, Note_on_c, 0, 59, 0
2, 89280, Control_c, 0, 64, 0
2, 89283, Note_on_c, 0, 83, 85
2, 89283, Note_on_c, 0, 79, 77
2, 89287, Note_on_c, 0, 71, 0
2, 89287, Note_on_c, 0, 76, 0
2, 89288, Note_on_c, 0, 40, 67
2, 89292, Note_on_c, 0, 71, 71
2, 89297, Note_on_c, 0, 76, 69
2, 89356, Control_c, 0, 64, 127
2, 89442, Note_on_c, 0, 47, 71
2, 89445, Note_on_c, 0, 78, 85
2, 89446, Note_on_c, 0, 55, 78
2, 89587, Note_on_c, 0, 71, 0
2, 89593, Note_on_c, 0, 71, 80
2, 89638, Note_on_c, 0, 55, 0
2, 89638, Note_on_c, 0, 83, 0
2, 89639, Note_on_c, 0, 47, 0
2, 89641, Control_c, 0, 64, 0
2, 89648, Note_on_c, 0, 40, 0
2, 89753, Note_on_c, 0, 52, 74
2, 89863, Control_c, 0, 64, 127
2, 89894, Note_on_c, 0, 76, 0
2, 89901, Note_on_c, 0, 76, 79
2, 89902, Note_on_c, 0, 59, 76
2, 89904, Note_on_c, 0, 67, 63
2, 90060, Note_on_c, 0, 69, 74
2, 90201, Note_on_c, 0, 79, 0
2, 90205, Note_on_c, 0, 52, 0
2, 90207, Note_on_c, 0, 76, 0
2, 90208, Note_on_c, 0, 67, 0
2, 90208, Note_on_c, 0, 59, 0
2, 90208, Note_on_c, 0, 69, 0
2, 90209, Note_on_c, 0, 78, 0
2, 90209, Control_c, 0, 64, 0
2, 90213, Note_on_c, 0, 40, 61
2, 90224, Note_on_c, 0, 71, 0
2, 90278, Control_c, 0, 64, 127
2, 90364, Note_on_c, 0, 83, 83
2, 90367, Note_on_c, 0, 71, 76
2, 90368, Note_on_c, 0, 47, 63
2, 90500, Note_on_c, 0, 40, 0
2, 90502, Control_c, 0, 64, 0
2, 90502, Note_on_c, 0, 47, 0
2, 90503, Note_on_c, 0, 71, 0
2, 90503, Note_on_c, 0, 83, 0
2, 90530, Note_on_c, 0, 85, 94
2, 90532, Note_on_c, 0, 42, 71
2, 90533, Note_on_c, 0, 76, 82
2, 90534, Note_on_c, 0, 81, 75
2, 90534, Note_on_c, 0, 73, 86
2, 90570, Control_c, 0, 64, 127
2, 90672, Note_on_c, 0, 49, 64
2, 90827, Note_on_c, 0, 86, 94
2, 90841, Note_on_c, 0, 78, 78
2, 90841, Note_on_c, 0, 52, 64
2, 90842, Note_on_c, 0, 74, 63
2, 90991, Note_on_c, 0, 57, 66
2, 91134, Note_on_c, 0, 88, 92
2, 91138, Note_on_c, 0, 85, 0
2, 91146, Note_on_c, 0, 76, 0
2, 91146, Note_on_c, 0, 81, 0
2, 91149, Note_on_c, 0, 85, 85
2, 91151, Note_on_c, 0, 81, 73
2, 91152, Note_on_c, 0, 76, 72
2, 91155, Note_on_c, 0, 61, 61
2, 91295, Note_on_c, 0, 64, 72
2, 91445, Note_on_c, 0, 78, 0
2, 91445, Note_on_c, 0, 86, 0
2, 91449, Note_on_c, 0, 86, 88
2, 91449, Note_on_c, 0, 90, 91
2, 91453, Note_on_c, 0, 81, 0
2, 91454, Note_on_c, 0, 78, 84
2, 91459, Note_on_c, 0, 81, 73
2, 91472, Note_on_c, 0, 69, 65
2, 91614, Note_on_c, 0, 57, 0
2, 91619, Note_on_c, 0, 57, 57
2, 91725, Note_on_c, 0, 42, 0
2, 91725, Control_c, 0, 64, 0
2, 91726, Note_on_c, 0, 52, 0
2, 91726, Note_on_c, 0, 74, 0
2, 91726, Note_on_c, 0, 73, 0
2, 91726, Note_on_c, 0, 69, 0
2, 91726, Note_on_c, 0, 49, 0
2, 91726, Note_on_c, 0, 61, 0
2, 91726, Note_on_c, 0, 88, 0
2, 91726, Note_on_c, 0, 57, 0
2, 91727, Note_on_c, 0, 76, 0
2, 91727, Note_on_c, 0, 64, 0
2, 91737, Note_on_c, 0, 90, 0
2, 91742, Note_on_c, 0, 50, 71
2, 91745, Note_on_c, 0, 78, 0
2, 91745, Note_on_c, 0, 81, 0
2, 91745, Note_on_c, 0, 85, 0
2, 91746, Note_on_c, 0, 90, 92
2, 91752, Note_on_c, 0, 86, 0
2, 91754, Note_on_c, 0, 78, 88
2, 91756, Note_on_c, 0, 81, 83
2, 91757, Note_on_c, 0, 86, 89
2, 91799, Control_c, 0, 64, 127
2, 91910, Note_on_c, 0, 57, 69
2, 91917, Note_on_c, 0, 83, 84
2, 91918, Note_on_c, 0, 66, 62
2, 92060, Note_on_c, 0, 78, 0
2, 92068, Note_on_c, 0, 78, 85
2, 92117, Control_c, 0, 64, 0
2, 92117, Note_on_c, 0, 90, 0
2, 92117, Note_on_c, 0, 86, 0
2, 92117, Note_on_c, 0, 83, 0
2, 92118, Note_on_c, 0, 66, 0
2, 92118, Note_on_c, 0, 81, 0
2, 92119, Note_on_c, 0, 57, 0
2, 92121, Note_on_c, 0, 50, 0
2, 92219, Note_on_c, 0, 45, 70
2, 92244, Control_c, 0, 64, 127
2, 92370, Note_on_c, 0, 52, 60
2, 92372, Note_on_c, 0, 81, 87
2, 92373, Note_on_c, 0, 61, 65
2, 92382, Note_on_c, 0, 78, 0
2, 92526, Note_on_c, 0, 76, 79
2, 92679, Note_on_c, 0, 90, 99
2, 92685, Note_on_c, 0, 78, 85
2, 92688, Note_on_c, 0, 57, 67
2, 92751, Note_on_c, 0, 61, 0
2, 92755, Note_on_c, 0, 61, 12
2, 92837, Note_on_c, 0, 64, 71
2, 92970, Control_c, 0, 64, 0
2, 92971, Note_on_c, 0, 52, 0
2, 92972, Note_on_c, 0, 61, 0
2, 92972, Note_on_c, 0, 64, 0
2, 92972, Note_on_c, 0, 57, 0
2, 92972, Note_on_c, 0, 45, 0
2, 92973, Note_on_c, 0, 90, 0
2, 92973, Note_on_c, 0, 76, 0
2, 92973, Note_on_c, 0, 78, 0
2, 92993, Note_on_c, 0, 93, 102
2, 92997, Note_on_c, 0, 81, 0
2, 93000, Note_on_c, 0, 86, 97
2, 93002, Note_on_c, 0, 81, 93
2, 93008, Note_on_c, 0, 55, 58
2, 93008, Note_on_c, 0, 59, 63
2, 93035, Control_c, 0, 64, 127
2, 93093, Note_on_c, 0, 62, 55
2, 93150, Note_on_c, 0, 59, 0
2, 93153, Note_on_c, 0, 90, 87
2, 93155, Note_on_c, 0, 78, 77
2, 93158, Note_on_c, 0, 55, 0
2, 93160, Note_on_c, 0, 59, 61
2, 93163, Note_on_c, 0, 55, 56
2, 93235, Note_on_c, 0, 62, 0
2, 93239, Note_on_c, 0, 62, 61
2, 93312, Note_on_c, 0, 55, 0
2, 93322, Note_on_c, 0, 55, 65
2, 93381, Note_on_c, 0, 81, 0
2, 93388, Note_on_c, 0, 62, 0
2, 93392, Note_on_c, 0, 81, 61
2, 93393, Note_on_c, 0, 62, 58
2, 93457, Note_on_c, 0, 93, 0
2, 93467, Note_on_c, 0, 93, 97
2, 93473, Note_on_c, 0, 55, 0
2, 93473, Note_on_c, 0, 81, 0
2, 93477, Note_on_c, 0, 81, 84
2, 93480, Note_on_c, 0, 59, 0
2, 93483, Note_on_c, 0, 55, 52
2, 93484, Note_on_c, 0, 59, 60
2, 93542, Note_on_c, 0, 62, 0
2, 93550, Note_on_c, 0, 62, 60
2, 93626, Note_on_c, 0, 55, 0
2, 93634, Note_on_c, 0, 59, 0
2, 93638, Note_on_c, 0, 55, 51
2, 93645, Note_on_c, 0, 59, 40
2, 93703, Note_on_c, 0, 62, 0
2, 93714, Note_on_c, 0, 62, 59
2, 93788, Note_on_c, 0, 59, 0
2, 93791, Note_on_c, 0, 91, 88
2, 93795, Note_on_c, 0, 55, 0
2, 93798, Note_on_c, 0, 79, 88
2, 93798, Note_on_c, 0, 59, 66
2, 93800, Note_on_c, 0, 55, 52
2, 93872, Note_on_c, 0, 62, 0
2, 93881, Note_on_c, 0, 62, 55
2, 93934, Note_on_c, 0, 90, 0
2, 93941, Note_on_c, 0, 59, 0
2, 93941, Note_on_c, 0, 78, 0
2, 93945, Note_on_c, 0, 90, 87
2, 93949, Note_on_c, 0, 55, 0
2, 93951, Note_on_c, 0, 78, 79
2, 93953, Note_on_c, 0, 59, 62
2, 93954, Note_on_c, 0, 55, 52
2, 94026, Note_on_c, 0, 62, 0
2, 94032, Note_on_c, 0, 62, 59
2, 94110, Note_on_c, 0, 55, 0
2, 94110, Note_on_c, 0, 59, 0
2, 94117, Note_on_c, 0, 55, 54
2, 94119, Note_on_c, 0, 59, 48
2, 94179, Note_on_c, 0, 62, 0
2, 94185, Note_on_c, 0, 62, 53
2, 94219, Control_c, 0, 64, 0
2, 94221, Note_on_c, 0, 62, 0
2, 94221, Note_on_c, 0, 93, 0
2, 94221, Note_on_c, 0, 78, 0
2, 94221, Note_on_c, 0, 59, 0
2, 94221, Note_on_c, 0, 81, 0
2, 94221, Note_on_c, 0, 90, 0
2, 94222, Note_on_c, 0, 79, 0
2, 94222, Note_on_c, 0, 55, 0
2, 94222, Note_on_c, 0, 91, 0
2, 94248, Note_on_c, 0, 86, 0
2, 94253, Note_on_c, 0, 86, 96
2, 94258, Note_on_c, 0, 74, 80
2, 94260, Note_on_c, 0, 83, 83
2, 94268, Note_on_c, 0, 80, 76
2, 94272, Note_on_c, 0, 59, 64
2, 94274, Note_on_c, 0, 56, 66
2, 94287, Control_c, 0, 64, 127
2, 94354, Note_on_c, 0, 64, 68
2, 94417, Note_on_c, 0, 56, 0
2, 94427, Note_on_c, 0, 56, 69
2, 94440, Note_on_c, 0, 59, 0
2, 94449, Note_on_c, 0, 59, 62
2, 94494, Note_on_c, 0, 64, 0
2, 94500, Note_on_c, 0, 64, 61
2, 94563, Note_on_c, 0, 56, 0
2, 94563, Note_on_c, 0, 59, 0
2, 94568, Note_on_c, 0, 56, 71
2, 94570, Note_on_c, 0, 59, 65
2, 94640, Note_on_c, 0, 64, 0
2, 94650, Note_on_c, 0, 64, 62
2, 94717, Note_on_c, 0, 59, 0
2, 94725, Note_on_c, 0, 56, 0
2, 94728, Note_on_c, 0, 59, 61
2, 94730, Note_on_c, 0, 56, 61
2, 94794, Note_on_c, 0, 64, 0
2, 94805, Note_on_c, 0, 64, 58
2, 94878, Note_on_c, 0, 56, 0
2, 94886, Note_on_c, 0, 59, 0
2, 94888, Note_on_c, 0, 56, 55
2, 94890, Note_on_c, 0, 59, 53
2, 94947, Note_on_c, 0, 64, 0
2, 94959, Note_on_c, 0, 64, 62
2, 95032, Note_on_c, 0, 56, 0
2, 95040, Note_on_c, 0, 59, 0
2, 95042, Note_on_c, 0, 56, 55
2, 95044, Note_on_c, 0, 59, 56
2, 95109, Note_on_c, 0, 64, 0
2, 95115, Note_on_c, 0, 64, 62
2, 95193, Note_on_c, 0, 74, 0
2, 95193, Note_on_c, 0, 86, 0
2, 95198, Note_on_c, 0, 86, 99
2, 95201, Note_on_c, 0, 56, 0
2, 95201, Note_on_c, 0, 59, 0
2, 95204, Note_on_c, 0, 74, 79
2, 95205, Note_on_c, 0, 59, 66
2, 95205, Note_on_c, 0, 56, 64
2, 95278, Note_on_c, 0, 64, 0
2, 95283, Note_on_c, 0, 64, 61
2, 95354, Note_on_c, 0, 56, 0
2, 95354, Note_on_c, 0, 59, 0
2, 95359, Note_on_c, 0, 56, 59
2, 95364, Note_on_c, 0, 59, 64
2, 95431, Note_on_c, 0, 64, 0
2, 95438, Note_on_c, 0, 64, 61
2, 95482, Note_on_c, 0, 74, 0
2, 95482, Control_c, 0, 64, 0
2, 95483, Note_on_c, 0, 86, 0
2, 95483, Note_on_c, 0, 83, 0
2, 95483, Note_on_c, 0, 80, 0
2, 95484, Note_on_c, 0, 56, 0
2, 95484, Note_on_c, 0, 64, 0
2, 95493, Note_on_c, 0, 59, 0
2, 95517, Note_on_c, 0, 88, 100
2, 95526, Note_on_c, 0, 85, 91
2, 95527, Note_on_c, 0, 76, 87
2, 95527, Note_on_c, 0, 82, 87
2, 95534, Note_on_c, 0, 58, 69
2, 95537, Note_on_c, 0, 61, 61
2, 95546, Control_c, 0, 64, 127
2, 95604, Note_on_c, 0, 64, 68
2, 95669, Note_on_c, 0, 58, 0
2, 95677, Note_on_c, 0, 61, 0
2, 95680, Note_on_c, 0, 86, 96
2, 95680, Note_on_c, 0, 58, 71
2, 95683, Note_on_c, 0, 74, 79
2, 95684, Note_on_c, 0, 61, 59
2, 95754, Note_on_c, 0, 64, 0
2, 95765, Note_on_c, 0, 64, 64
2, 95823, Note_on_c, 0, 58, 0
2, 95823, Note_on_c, 0, 61, 0
2, 95830, Note_on_c, 0, 61, 55
2, 95831, Note_on_c, 0, 58, 64
2, 95907, Note_on_c, 0, 64, 0
2, 95914, Note_on_c, 0, 64, 63
2, 95969, Note_on_c, 0, 85, 0
2, 95978, Note_on_c, 0, 85, 97
2, 95979, Note_on_c, 0, 73, 93
2, 95984, Note_on_c, 0, 58, 0
2, 95988, Note_on_c, 0, 58, 75
2, 96053, Note_on_c, 0, 64, 0
2, 96059, Note_on_c, 0, 64, 66
2, 96138, Note_on_c, 0, 58, 0
2, 96138, Note_on_c, 0, 61, 0
2, 96144, Note_on_c, 0, 58, 54
2, 96146, Note_on_c, 0, 61, 42
2, 96207, Note_on_c, 0, 64, 0
2, 96216, Note_on_c, 0, 64, 67
2, 96299, Note_on_c, 0, 58, 0
2, 96299, Note_on_c, 0, 76, 0
2, 96299, Note_on_c, 0, 88, 0
2, 96306, Note_on_c, 0, 88, 87
2, 96310, Note_on_c, 0, 76, 77
2, 96310, Note_on_c, 0, 58, 67
2, 96314, Note_on_c, 0, 61, 0
2, 96319, Note_on_c, 0, 61, 46
2, 96391, Note_on_c, 0, 64, 0
2, 96395, Note_on_c, 0, 64, 67
2, 96445, Note_on_c, 0, 58, 0
2, 96445, Note_on_c, 0, 61, 0
2, 96455, Note_on_c, 0, 58, 67
2, 96456, Note_on_c, 0, 61, 54
2, 96464, Note_on_c, 0, 78, 88
2, 96464, Note_on_c, 0, 90, 91
2, 96522, Note_on_c, 0, 64, 0
2, 96532, Note_on_c, 0, 64, 62
2, 96576, Note_on_c, 0, 58, 0
2, 96583, Note_on_c, 0, 61, 0
2, 96587, Note_on_c, 0, 58, 59
2, 96587, Note_on_c, 0, 61, 52
2, 96652, Note_on_c, 0, 64, 0
2, 96659, Note_on_c, 0, 64, 72
2, 96710, Control_c, 0, 64, 0
2, 96711, Note_on_c, 0, 90, 0
2, 96711, Note_on_c, 0, 88, 0
2, 96711, Note_on_c, 0, 86, 0
2, 96711, Note_on_c, 0, 74, 0
2, 96711, Note_on_c, 0, 78, 0
2, 96712, Note_on_c, 0, 73, 0
2, 96712, Note_on_c, 0, 64, 0
2, 96712, Note_on_c, 0, 61, 0
2, 96712, Note_on_c, 0, 85, 0
2, 96712, Note_on_c, 0, 76, 0
2, 96714, Note_on_c, 0, 82, 0
2, 96729, Note_on_c, 0, 58, 0
2, 96757, Note_on_c, 0, 90, 101
2, 96764, Note_on_c, 0, 87, 88
2, 96765, Note_on_c, 0, 78, 88
2, 96768, Note_on_c, 0, 63, 70
2, 96770, Note_on_c, 0, 84, 77
2, 96772, Note_on_c, 0, 60, 67
2, 96783, Control_c, 0, 64, 127
2, 96842, Note_on_c, 0, 68, 84
2, 96913, Note_on_c, 0, 60, 0
2, 96924, Note_on_c, 0, 60, 51
2, 96990, Note_on_c, 0, 68, 0
2, 97001, Note_on_c, 0, 68, 69
2, 97059, Note_on_c, 0, 60, 0
2, 97059, Note_on_c, 0, 63, 0
2, 97065, Note_on_c, 0, 60, 54
2, 97068, Note_on_c, 0, 63, 43
2, 97098, Note_on_c, 0, 68, 0
2, 97106, Note_on_c, 0, 68, 69
2, 97198, Note_on_c, 0, 60, 0
2, 97198, Note_on_c, 0, 63, 0
2, 97202, Note_on_c, 0, 63, 68
2, 97204, Note_on_c, 0, 60, 43
2, 97290, Note_on_c, 0, 68, 0
2, 97298, Note_on_c, 0, 68, 71
2, 97368, Control_c, 0, 64, 0
2, 97374, Note_on_c, 0, 63, 0
2, 97379, Note_on_c, 0, 63, 65
2, 97382, Note_on_c, 0, 60, 0
2, 97388, Note_on_c, 0, 60, 67
2, 97397, Control_c, 0, 64, 127
2, 97398, Note_on_c, 0, 39, 78
2, 97443, Note_on_c, 0, 68, 0
2, 97453, Note_on_c, 0, 68, 78
2, 97528, Note_on_c, 0, 63, 0
2, 97536, Note_on_c, 0, 60, 0
2, 97538, Note_on_c, 0, 63, 69
2, 97545, Note_on_c, 0, 60, 59
2, 97554, Note_on_c, 0, 52, 88
2, 97555, Note_on_c, 0, 40, 78
2, 97597, Note_on_c, 0, 68, 0
2, 97608, Note_on_c, 0, 68, 79
2, 97681, Note_on_c, 0, 63, 0
2, 97686, Note_on_c, 0, 63, 77
2, 97689, Note_on_c, 0, 60, 0
2, 97693, Note_on_c, 0, 60, 69
2, 97695, Note_on_c, 0, 42, 84
2, 97699, Note_on_c, 0, 54, 73
2, 97751, Note_on_c, 0, 68, 0
2, 97757, Note_on_c, 0, 68, 74
2, 97781, Note_on_c, 0, 84, 0
2, 97835, Note_on_c, 0, 63, 0
2, 97846, Note_on_c, 0, 63, 68
2, 97854, Note_on_c, 0, 44, 87
2, 97857, Note_on_c, 0, 56, 82
2, 97943, Note_on_c, 0, 90, 0
2, 98004, Note_on_c, 0, 87, 0
2, 98007, Note_on_c, 0, 39, 0
2, 98007, Note_on_c, 0, 52, 0
2, 98008, Note_on_c, 0, 42, 0
2, 98008, Control_c, 0, 64, 0
2, 98008, Note_on_c, 0, 63, 0
2, 98008, Note_on_c, 0, 60, 0
2, 98009, Note_on_c, 0, 56, 0
2, 98009, Note_on_c, 0, 44, 0
2, 98012, Note_on_c, 0, 54, 0
2, 98019, Note_on_c, 0, 68, 0
2, 98029, Note_on_c, 0, 80, 107
2, 98029, Note_on_c, 0, 68, 104
2, 98030, Note_on_c, 0, 73, 98
2, 98032, Note_on_c, 0, 33, 91
2, 98035, Note_on_c, 0, 78, 0
2, 98035, Note_on_c, 0, 45, 93
2, 98035, Note_on_c, 0, 76, 92
2, 98096, Control_c, 0, 64, 127
2, 98188, Note_on_c, 0, 33, 0
2, 98191, Note_on_c, 0, 78, 101
2, 98196, Note_on_c, 0, 40, 0
2, 98198, Note_on_c, 0, 66, 89
2, 98207, Note_on_c, 0, 40, 74
2, 98327, Note_on_c, 0, 45, 0
2, 98338, Note_on_c, 0, 45, 70
2, 98340, Note_on_c, 0, 57, 70
2, 98488, Note_on_c, 0, 76, 0
2, 98496, Note_on_c, 0, 73, 0
2, 98497, Note_on_c, 0, 76, 98
2, 98500, Note_on_c, 0, 64, 88
2, 98504, Note_on_c, 0, 73, 87
2, 98506, Note_on_c, 0, 69, 81
2, 98506, Note_on_c, 0, 49, 80
2, 98509, Note_on_c, 0, 52, 71
2, 98657, Note_on_c, 0, 40, 0
2, 98657, Note_on_c, 0, 49, 0
2, 98657, Note_on_c, 0, 52, 0
2, 98661, Note_on_c, 0, 40, 67
2, 98663, Note_on_c, 0, 52, 75
2, 98668, Note_on_c, 0, 49, 74
2, 98810, Note_on_c, 0, 45, 0
2, 98815, Note_on_c, 0, 45, 74
2, 98820, Note_on_c, 0, 48, 59
2, 98826, Note_on_c, 0, 48, 0
2, 98956, Note_on_c, 0, 68, 0
2, 98956, Note_on_c, 0, 80, 0
2, 98964, Note_on_c, 0, 52, 0
2, 98966, Note_on_c, 0, 80, 100
2, 98968, Note_on_c, 0, 68, 99
2, 98973, Note_on_c, 0, 52, 78
2, 98975, Note_on_c, 0, 47, 67
2, 98975, Note_on_c, 0, 59, 76
2, 98979, Note_on_c, 0, 47, 0
2, 99118, Note_on_c, 0, 45, 0
2, 99118, Note_on_c, 0, 52, 0
2, 99118, Note_on_c, 0, 76, 0
2, 99124, Note_on_c, 0, 83, 102
2, 99125, Note_on_c, 0, 57, 0
2, 99125, Note_on_c, 0, 73, 0
2, 99128, Note_on_c, 0, 45, 76
2, 99129, Note_on_c, 0, 52, 74
2, 99129, Note_on_c, 0, 76, 91
2, 99129, Note_on_c, 0, 73, 93
2, 99129, Note_on_c, 0, 57, 81
2, 99130, Note_on_c, 0, 71, 90
2, 99274, Note_on_c, 0, 61, 86
2, 99279, Note_on_c, 0, 57, 0
2, 99287, Note_on_c, 0, 45, 0
2, 99287, Note_on_c, 0, 57, 63
2, 99296, Note_on_c, 0, 45, 59
2, 99417, Note_on_c, 0, 52, 0
2, 99425, Note_on_c, 0, 57, 0
2, 99428, Note_on_c, 0, 52, 74
2, 99434, Note_on_c, 0, 57, 59
2, 99578, Note_on_c, 0, 57, 0
2, 99578, Note_on_c, 0, 80, 0
2, 99586, Note_on_c, 0, 68, 0
2, 99588, Note_on_c, 0, 57, 68
2, 99588, Note_on_c, 0, 80, 96
2, 99590, Note_on_c, 0, 68, 96
2, 99732, Note_on_c, 0, 83, 0
2, 99740, Note_on_c, 0, 52, 0
2, 99740, Note_on_c, 0, 61, 0
2, 99740, Note_on_c, 0, 71, 0
2, 99740, Note_on_c, 0, 73, 0
2, 99740, Note_on_c, 0, 76, 0
2, 99743, Note_on_c, 0, 83, 102
2, 99744, Note_on_c, 0, 52, 71
2, 99745, Note_on_c, 0, 61, 79
2, 99746, Note_on_c, 0, 73, 98
2, 99749, Note_on_c, 0, 71, 93
2, 99750, Note_on_c, 0, 76, 89
2, 99901, Note_on_c, 0, 64, 0
2, 99906, Note_on_c, 0, 64, 88
2, 99909, Note_on_c, 0, 52, 0
2, 99909, Note_on_c, 0, 61, 0
2, 99914, Note_on_c, 0, 52, 63
2, 99917, Note_on_c, 0, 61, 60
2, 100039, Note_on_c, 0, 57, 0
2, 100047, Note_on_c, 0, 68, 0
2, 100047, Note_on_c, 0, 69, 0
2, 100049, Note_on_c, 0, 57, 78
2, 100051, Note_on_c, 0, 69, 68
2, 100053, Note_on_c, 0, 68, 61
2, 100208, Note_on_c, 0, 52, 0
2, 100208, Note_on_c, 0, 64, 0
2, 100208, Note_on_c, 0, 69, 0
2, 100214, Note_on_c, 0, 52, 64
2, 100216, Note_on_c, 0, 64, 84
2, 100219, Note_on_c, 0, 69, 83
2, 100346, Note_on_c, 0, 45, 0
2, 100346, Note_on_c, 0, 57, 0
2, 100353, Note_on_c, 0, 57, 68
2, 100358, Note_on_c, 0, 45, 61
2, 100518, Note_on_c, 0, 66, 0
2, 100518, Note_on_c, 0, 52, 0
2, 100518, Note_on_c, 0, 69, 0
2, 100518, Note_on_c, 0, 61, 0
2, 100518, Control_c, 0, 64, 0
2, 100519, Note_on_c, 0, 59, 0
2, 100519, Note_on_c, 0, 57, 0
2, 100519, Note_on_c, 0, 78, 0
2, 100519, Note_on_c, 0, 64, 0
2, 100523, Note_on_c, 0, 49, 0
2, 100523, Note_on_c, 0, 68, 0
2, 100523, Note_on_c, 0, 73, 0
2, 100523, Note_on_c, 0, 80, 0
2, 100528, Note_on_c, 0, 80, 101
2, 100531, Note_on_c, 0, 76, 0
2, 100531, Note_on_c, 0, 83, 0
2, 100532, Note_on_c, 0, 68, 99
2, 100533, Note_on_c, 0, 73, 94
2, 100536, Note_on_c, 0, 33, 88
2, 100538, Note_on_c, 0, 45, 0
2, 100538, Note_on_c, 0, 71, 0
2, 100542, Note_on_c, 0, 76, 85
2, 100543, Note_on_c, 0, 45, 84
2, 100546, Note_on_c, 0, 40, 0
2, 100592, Control_c, 0, 64, 127
2, 100682, Note_on_c, 0, 78, 98
2, 100687, Note_on_c, 0, 40, 71
2, 100688, Note_on_c, 0, 66, 90
2, 100830, Note_on_c, 0, 45, 0
2, 100830, Note_on_c, 0, 78, 0
2, 100837, Note_on_c, 0, 78, 82
2, 100838, Note_on_c, 0, 66, 0
2, 100839, Note_on_c, 0, 45, 74
2, 100844, Note_on_c, 0, 66, 78
2, 100845, Note_on_c, 0, 57, 68
2, 100848, Note_on_c, 0, 69, 60
2, 100849, Note_on_c, 0, 52, 59
2, 100853, Note_on_c, 0, 57, 0
2, 100984, Note_on_c, 0, 76, 0
2, 100992, Note_on_c, 0, 69, 0
2, 100992, Note_on_c, 0, 73, 0
2, 100995, Note_on_c, 0, 76, 97
2, 100997, Note_on_c, 0, 49, 81
2, 100999, Note_on_c, 0, 73, 84
2, 101000, Note_on_c, 0, 64, 82
2, 101001, Note_on_c, 0, 69, 76
2, 101145, Note_on_c, 0, 52, 0
2, 101152, Note_on_c, 0, 52, 87
2, 101168, Note_on_c, 0, 40, 0
2, 101176, Note_on_c, 0, 45, 0
2, 101176, Note_on_c, 0, 40, 56
2, 101183, Note_on_c, 0, 45, 62
2, 101184, Note_on_c, 0, 68, 0
2, 101184, Note_on_c, 0, 69, 0
2, 101186, Note_on_c, 0, 57, 65
2, 101189, Note_on_c, 0, 68, 50
2, 101195, Note_on_c, 0, 69, 54
2, 101306, Note_on_c, 0, 45, 0
2, 101312, Note_on_c, 0, 45, 77
2, 101445, Note_on_c, 0, 68, 0
2, 101445, Note_on_c, 0, 80, 0
2, 101451, Note_on_c, 0, 80, 95
2, 101452, Note_on_c, 0, 52, 0
2, 101456, Note_on_c, 0, 68, 85
2, 101457, Note_on_c, 0, 52, 73
2, 101466, Note_on_c, 0, 71, 65
2, 101598, Note_on_c, 0, 45, 0
2, 101606, Note_on_c, 0, 57, 0
2, 101609, Note_on_c, 0, 45, 72
2, 101611, Note_on_c, 0, 57, 80
2, 101612, Note_on_c, 0, 83, 104
2, 101614, Note_on_c, 0, 52, 0
2, 101614, Note_on_c, 0, 71, 0
2, 101614, Note_on_c, 0, 73, 0
2, 101614, Note_on_c, 0, 76, 0
2, 101619, Note_on_c, 0, 52, 66
2, 101620, Note_on_c, 0, 73, 97
2, 101621, Note_on_c, 0, 76, 92
2, 101623, Note_on_c, 0, 71, 90
2, 101751, Note_on_c, 0, 61, 88
2, 101905, Note_on_c, 0, 57, 0
2, 101909, Note_on_c, 0, 57, 71
2, 102059, Note_on_c, 0, 52, 0
2, 102059, Note_on_c, 0, 61, 0
2, 102059, Note_on_c, 0, 68, 0
2, 102059, Note_on_c, 0, 80, 0
2, 102063, Note_on_c, 0, 80, 98
2, 102064, Note_on_c, 0, 68, 98
2, 102066, Note_on_c, 0, 61, 75
2, 102067, Note_on_c, 0, 52, 58
2, 102213, Note_on_c, 0, 52, 0
2, 102213, Note_on_c, 0, 61, 0
2, 102213, Note_on_c, 0, 83, 0
2, 102220, Note_on_c, 0, 57, 0
2, 102220, Note_on_c, 0, 71, 0
2, 102220, Note_on_c, 0, 73, 0
2, 102220, Note_on_c, 0, 76, 0
2, 102223, Note_on_c, 0, 83, 101
2, 102223, Note_on_c, 0, 52, 69
2, 102223, Note_on_c, 0, 61, 73
2, 102225, Note_on_c, 0, 73, 92
2, 102225, Note_on_c, 0, 76, 95
2, 102230, Note_on_c, 0, 71, 89
2, 102231, Note_on_c, 0, 57, 66
2, 102382, Note_on_c, 0, 64, 0
2, 102387, Note_on_c, 0, 64, 95
2, 102389, Note_on_c, 0, 61, 0
2, 102394, Note_on_c, 0, 61, 76
2, 102528, Note_on_c, 0, 57, 0
2, 102533, Note_on_c, 0, 57, 84
2, 102689, Note_on_c, 0, 57, 0
2, 102689, Note_on_c, 0, 64, 0
2, 102689, Note_on_c, 0, 69, 0
2, 102689, Note_on_c, 0, 73, 0
2, 102692, Note_on_c, 0, 85, 105
2, 102694, Note_on_c, 0, 64, 90
2, 102695, Note_on_c, 0, 73, 103
2, 102696, Note_on_c, 0, 57, 83
2, 102700, Note_on_c, 0, 69, 84
2, 102812, Note_on_c, 0, 57, 0
2, 102822, Note_on_c, 0, 57, 75
2, 102827, Note_on_c, 0, 61, 0
2, 102831, Note_on_c, 0, 61, 74
2, 102842, Note_on_c, 0, 71, 0
2, 102842, Note_on_c, 0, 83, 0
2, 102850, Note_on_c, 0, 73, 0
2, 102850, Note_on_c, 0, 76, 0
2, 102852, Note_on_c, 0, 83, 104
2, 102854, Note_on_c, 0, 71, 100
2, 102855, Note_on_c, 0, 76, 97
2, 102855, Note_on_c, 0, 73, 100
2, 102982, Note_on_c, 0, 40, 0
2, 102982, Control_c, 0, 64, 0
2, 102982, Note_on_c, 0, 52, 0
2, 102983, Note_on_c, 0, 69, 0
2, 102984, Note_on_c, 0, 61, 0
2, 102984, Note_on_c, 0, 68, 0
2, 102984, Note_on_c, 0, 49, 0
2, 102984, Note_on_c, 0, 57, 0
2, 102984, Note_on_c, 0, 64, 0
2, 102984, Note_on_c, 0, 85, 0
2, 102985, Note_on_c, 0, 66, 0
2, 102985, Note_on_c, 0, 78, 0
2, 102988, Note_on_c, 0, 33, 0
2, 102996, Note_on_c, 0, 45, 0
2, 103013, Note_on_c, 0, 37, 80
2, 103080, Control_c, 0, 64, 127
2, 103166, Note_on_c, 0, 44, 67
2, 103318, Note_on_c, 0, 52, 76
2, 103321, Note_on_c, 0, 49, 68
2, 103457, Note_on_c, 0, 44, 0
2, 103465, Note_on_c, 0, 44, 68
2, 103618, Note_on_c, 0, 52, 0
2, 103628, Note_on_c, 0, 56, 84
2, 103629, Note_on_c, 0, 52, 74
2, 103779, Note_on_c, 0, 49, 0
2, 103784, Note_on_c, 0, 49, 71
2, 103945, Note_on_c, 0, 59, 84
2, 103964, Note_on_c, 0, 44, 0
2, 103964, Note_on_c, 0, 56, 0
2, 103970, Note_on_c, 0, 56, 66
2, 103974, Note_on_c, 0, 44, 58
2, 104087, Note_on_c, 0, 52, 0
2, 104098, Note_on_c, 0, 52, 68
2, 104248, Note_on_c, 0, 59, 0
2, 104254, Note_on_c, 0, 61, 80
2, 104256, Note_on_c, 0, 59, 78
2, 104394, Note_on_c, 0, 56, 0
2, 104403, Note_on_c, 0, 56, 74
2, 104547, Note_on_c, 0, 61, 0
2, 104552, Note_on_c, 0, 64, 88
2, 104553, Note_on_c, 0, 61, 76
2, 104693, Note_on_c, 0, 59, 0
2, 104702, Note_on_c, 0, 59, 72
2, 104855, Note_on_c, 0, 64, 0
2, 104864, Note_on_c, 0, 68, 87
2, 104865, Note_on_c, 0, 64, 82
2, 105008, Note_on_c, 0, 59, 0
2, 105008, Note_on_c, 0, 61, 0
2, 105015, Note_on_c, 0, 59, 75
2, 105016, Note_on_c, 0, 80, 0
2, 105019, Note_on_c, 0, 61, 76
2, 105020, Note_on_c, 0, 49, 0
2, 105020, Note_on_c, 0, 92, 104
2, 105025, Note_on_c, 0, 80, 99
2, 105162, Note_on_c, 0, 64, 0
2, 105162, Note_on_c, 0, 71, 0
2, 105169, Note_on_c, 0, 68, 0
2, 105171, Note_on_c, 0, 64, 81
2, 105171, Note_on_c, 0, 90, 103
2, 105171, Note_on_c, 0, 71, 86
2, 105173, Note_on_c, 0, 68, 82
2, 105173, Note_on_c, 0, 78, 95
2, 105269, Note_on_c, 0, 61, 0
2, 105281, Note_on_c, 0, 61, 79
2, 105308, Note_on_c, 0, 76, 0
2, 105312, Note_on_c, 0, 88, 104
2, 105315, Note_on_c, 0, 76, 99
2, 105461, Note_on_c, 0, 37, 0
2, 105461, Note_on_c, 0, 78, 0
2, 105461, Note_on_c, 0, 90, 0
2, 105469, Control_c, 0, 64, 0
2, 105470, Note_on_c, 0, 52, 0
2, 105471, Note_on_c, 0, 92, 0
2, 105471, Note_on_c, 0, 71, 0
2, 105471, Note_on_c, 0, 90, 110
2, 105471, Note_on_c, 0, 78, 105
2, 105471, Note_on_c, 0, 68, 0
2, 105471, Note_on_c, 0, 44, 0
2, 105471, Note_on_c, 0, 37, 87
2, 105472, Note_on_c, 0, 56, 0
2, 105472, Note_on_c, 0, 80, 0
2, 105472, Note_on_c, 0, 88, 0
2, 105472, Note_on_c, 0, 76, 0
2, 105472, Note_on_c, 0, 64, 0
2, 105484, Note_on_c, 0, 61, 0
2, 105484, Note_on_c, 0, 73, 0
2, 105492, Note_on_c, 0, 59, 0
2, 105530, Control_c, 0, 64, 127
2, 105553, Note_on_c, 0, 37, 0
2, 105600, Note_on_c, 0, 83, 0
2, 105623, Note_on_c, 0, 49, 76
2, 105629, Note_on_c, 0, 92, 102
2, 105632, Note_on_c, 0, 85, 103
2, 105632, Note_on_c, 0, 80, 104
2, 105635, Note_on_c, 0, 88, 83
2, 105769, Note_on_c, 0, 64, 77
2, 105796, Note_on_c, 0, 61, 49
2, 105924, Note_on_c, 0, 56, 72
2, 106068, Note_on_c, 0, 64, 0
2, 106077, Note_on_c, 0, 68, 85
2, 106079, Note_on_c, 0, 64, 85
2, 106229, Note_on_c, 0, 80, 0
2, 106229, Note_on_c, 0, 92, 0
2, 106237, Note_on_c, 0, 61, 0
2, 106239, Note_on_c, 0, 92, 106
2, 106239, Note_on_c, 0, 80, 101
2, 106241, Note_on_c, 0, 61, 69
2, 106391, Note_on_c, 0, 64, 0
2, 106391, Note_on_c, 0, 68, 0
2, 106391, Note_on_c, 0, 78, 0
2, 106391, Note_on_c, 0, 90, 0
2, 106395, Note_on_c, 0, 90, 102
2, 106396, Note_on_c, 0, 64, 71
2, 106396, Note_on_c, 0, 78, 93
2, 106396, Note_on_c, 0, 71, 85
2, 106396, Note_on_c, 0, 68, 78
2, 106397, Note_on_c, 0, 52, 60
2, 106406, Note_on_c, 0, 52, 0
2, 106498, Note_on_c, 0, 61, 0
2, 106507, Note_on_c, 0, 61, 70
2, 106529, Note_on_c, 0, 88, 0
2, 106539, Note_on_c, 0, 88, 104
2, 106541, Note_on_c, 0, 76, 97
2, 106667, Note_on_c, 0, 71, 0
2, 106668, Note_on_c, 0, 68, 0
2, 106668, Note_on_c, 0, 92, 0
2, 106669, Note_on_c, 0, 56, 0
2, 106669, Note_on_c, 0, 85, 0
2, 106669, Note_on_c, 0, 64, 0
2, 106669, Note_on_c, 0, 88, 0
2, 106670, Control_c, 0, 64, 0
2, 106670, Note_on_c, 0, 76, 0
2, 106675, Note_on_c, 0, 49, 0
2, 106675, Note_on_c, 0, 90, 0
2, 106680, Note_on_c, 0, 37, 77
2, 106682, Note_on_c, 0, 61, 0
2, 106682, Note_on_c, 0, 78, 0
2, 106682, Note_on_c, 0, 80, 0
2, 106686, Note_on_c, 0, 90, 111
2, 106686, Note_on_c, 0, 78, 104
2, 106728, Control_c, 0, 64, 127
2, 106837, Note_on_c, 0, 49, 75
2, 106990, Note_on_c, 0, 49, 0
2, 106993, Note_on_c, 0, 80, 101
2, 106993, Note_on_c, 0, 92, 105
2, 106994, Note_on_c, 0, 85, 102
2, 106999, Note_on_c, 0, 61, 82
2, 107000, Note_on_c, 0, 49, 83
2, 107000, Note_on_c, 0, 56, 83
2, 107001, Note_on_c, 0, 88, 85
2, 107002, Note_on_c, 0, 52, 82
2, 107120, Note_on_c, 0, 49, 0
2, 107130, Note_on_c, 0, 49, 84
2, 107290, Note_on_c, 0, 78, 0
2, 107291, Note_on_c, 0, 37, 0
2, 107291, Note_on_c, 0, 90, 0
2, 107291, Note_on_c, 0, 80, 0
2, 107291, Note_on_c, 0, 49, 0
2, 107291, Note_on_c, 0, 56, 0
2, 107291, Control_c, 0, 64, 0
2, 107291, Note_on_c, 0, 85, 0
2, 107291, Note_on_c, 0, 92, 0
2, 107291, Note_on_c, 0, 61, 0
2, 107292, Note_on_c, 0, 52, 0
2, 107292, Note_on_c, 0, 88, 0
2, 107294, Note_on_c, 0, 95, 111
2, 107296, Note_on_c, 0, 35, 82
2, 107299, Note_on_c, 0, 83, 104
2, 107351, Control_c, 0, 64, 127
2, 107432, Note_on_c, 0, 47, 75
2, 107596, Note_on_c, 0, 83, 0
2, 107597, Note_on_c, 0, 90, 106
2, 107599, Note_on_c, 0, 78, 101
2, 107600, Note_on_c, 0, 59, 90
2, 107601, Note_on_c, 0, 87, 94
2, 107601, Note_on_c, 0, 83, 85
2, 107605, Note_on_c, 0, 39, 75
2, 107719, Note_on_c, 0, 47, 0
2, 107729, Note_on_c, 0, 47, 79
2, 107875, Control_c, 0, 64, 0
2, 107877, Note_on_c, 0, 47, 0
2, 107878, Note_on_c, 0, 90, 0
2, 107878, Note_on_c, 0, 83, 0
2, 107878, Note_on_c, 0, 87, 0
2, 107878, Note_on_c, 0, 78, 0
2, 107879, Note_on_c, 0, 59, 0
2, 107880, Note_on_c, 0, 39, 0
2, 107880, Note_on_c, 0, 95, 0
2, 107888, Note_on_c, 0, 35, 0
2, 107901, Note_on_c, 0, 85, 103
2, 107901, Note_on_c, 0, 80, 105
2, 107906, Note_on_c, 0, 92, 107
2, 107907, Note_on_c, 0, 33, 89
2, 107907, Note_on_c, 0, 88, 87
2, 107908, Note_on_c, 0, 45, 94
2, 107950, Control_c, 0, 64, 127
2, 107953, Note_on_c, 0, 45, 0
2, 108067, Note_on_c, 0, 40, 73
2, 108068, Note_on_c, 0, 90, 101
2, 108070, Note_on_c, 0, 78, 92
2, 108196, Note_on_c, 0, 45, 73
2, 108211, Note_on_c, 0, 78, 0
2, 108211, Note_on_c, 0, 90, 0
2, 108215, Note_on_c, 0, 78, 95
2, 108216, Note_on_c, 0, 90, 94
2, 108349, Note_on_c, 0, 88, 0
2, 108353, Note_on_c, 0, 52, 77
2, 108360, Note_on_c, 0, 88, 99
2, 108361, Note_on_c, 0, 49, 74
2, 108364, Note_on_c, 0, 85, 0
2, 108368, Note_on_c, 0, 85, 93
2, 108370, Note_on_c, 0, 76, 90
2, 108375, Note_on_c, 0, 81, 78
2, 108503, Note_on_c, 0, 52, 0
2, 108508, Note_on_c, 0, 57, 80
2, 108513, Note_on_c, 0, 52, 68
2, 108648, Note_on_c, 0, 45, 0
2, 108657, Note_on_c, 0, 68, 64
2, 108660, Note_on_c, 0, 45, 66
2, 108794, Note_on_c, 0, 52, 0
2, 108800, Note_on_c, 0, 52, 76
2, 108810, Note_on_c, 0, 92, 0
2, 108817, Note_on_c, 0, 80, 0
2, 108821, Note_on_c, 0, 92, 103
2, 108822, Note_on_c, 0, 80, 95
2, 108825, Note_on_c, 0, 45, 0
2, 108829, Note_on_c, 0, 45, 61
2, 108963, Note_on_c, 0, 85, 0
2, 108963, Note_on_c, 0, 88, 0
2, 108968, Note_on_c, 0, 88, 96
2, 108969, Note_on_c, 0, 95, 105
2, 108970, Note_on_c, 0, 69, 87
2, 108971, Note_on_c, 0, 85, 98
2, 108973, Note_on_c, 0, 97, 99
2, 108975, Note_on_c, 0, 61, 81
2, 108979, Note_on_c, 0, 97, 0
2, 109117, Note_on_c, 0, 61, 0
2, 109119, Note_on_c, 0, 64, 89
2, 109124, Note_on_c, 0, 61, 75
2, 109255, Note_on_c, 0, 57, 0
2, 109261, Note_on_c, 0, 57, 80
2, 109409, Note_on_c, 0, 64, 0
2, 109409, Note_on_c, 0, 80, 0
2, 109409, Note_on_c, 0, 92, 0
2, 109414, Note_on_c, 0, 92, 102
2, 109416, Note_on_c, 0, 95, 0
2, 109418, Note_on_c, 0, 80, 101
2, 109420, Note_on_c, 0, 64, 88
2, 109555, Note_on_c, 0, 88, 0
2, 109562, Note_on_c, 0, 69, 0
2, 109562, Note_on_c, 0, 85, 0
2, 109566, Note_on_c, 0, 88, 92
2, 109568, Note_on_c, 0, 85, 93
2, 109570, Note_on_c, 0, 69, 84
2, 109573, Note_on_c, 0, 95, 101
2, 109577, Note_on_c, 0, 83, 88
2, 109716, Note_on_c, 0, 69, 0
2, 109721, Note_on_c, 0, 73, 94
2, 109723, Note_on_c, 0, 69, 81
2, 109854, Note_on_c, 0, 64, 0
2, 109862, Note_on_c, 0, 64, 94
2, 110016, Note_on_c, 0, 69, 0
2, 110016, Note_on_c, 0, 73, 0
2, 110016, Note_on_c, 0, 76, 0
2, 110023, Note_on_c, 0, 73, 93
2, 110025, Note_on_c, 0, 76, 95
2, 110026, Note_on_c, 0, 69, 79
2, 110146, Note_on_c, 0, 61, 0
2, 110146, Note_on_c, 0, 64, 0
2, 110155, Note_on_c, 0, 64, 84
2, 110157, Note_on_c, 0, 61, 53
2, 110307, Note_on_c, 0, 68, 0
2, 110313, Note_on_c, 0, 95, 0
2, 110315, Control_c, 0, 64, 0
2, 110316, Note_on_c, 0, 49, 0
2, 110316, Note_on_c, 0, 40, 0
2, 110317, Note_on_c, 0, 90, 0
2, 110317, Note_on_c, 0, 83, 0
2, 110317, Note_on_c, 0, 52, 0
2, 110317, Note_on_c, 0, 73, 0
2, 110317, Note_on_c, 0, 76, 0
2, 110318, Note_on_c, 0, 81, 0
2, 110318, Note_on_c, 0, 61, 0
2, 110318, Note_on_c, 0, 64, 0
2, 110318, Note_on_c, 0, 78, 0
2, 110323, Note_on_c, 0, 33, 0
2, 110323, Note_on_c, 0, 45, 0
2, 110323, Note_on_c, 0, 80, 0
2, 110323, Note_on_c, 0, 85, 0
2, 110323, Note_on_c, 0, 92, 0
2, 110330, Note_on_c, 0, 69, 0
2, 110330, Note_on_c, 0, 88, 0
2, 110331, Note_on_c, 0, 80, 103
2, 110331, Note_on_c, 0, 33, 89
2, 110332, Note_on_c, 0, 45, 97
2, 110333, Note_on_c, 0, 85, 103
2, 110333, Note_on_c, 0, 92, 105
2, 110337, Note_on_c, 0, 88, 83
2, 110338, Note_on_c, 0, 57, 0
2, 110384, Control_c, 0, 64, 127
2, 110400, Note_on_c, 0, 45, 0
2, 110488, Note_on_c, 0, 90, 100
2, 110493, Note_on_c, 0, 78, 97
2, 110494, Note_on_c, 0, 40, 70
2, 110630, Note_on_c, 0, 78, 0
2, 110630, Note_on_c, 0, 90, 0
2, 110632, Note_on_c, 0, 45, 72
2, 110638, Note_on_c, 0, 78, 94
2, 110639, Note_on_c, 0, 90, 91
2, 110776, Note_on_c, 0, 40, 0
2, 110776, Note_on_c, 0, 85, 0
2, 110776, Note_on_c, 0, 88, 0
2, 110780, Note_on_c, 0, 88, 100
2, 110786, Note_on_c, 0, 49, 81
2, 110786, Note_on_c, 0, 40, 71
2, 110786, Note_on_c, 0, 85, 94
2, 110787, Note_on_c, 0, 81, 81
2, 110787, Note_on_c, 0, 76, 95
2, 110929, Note_on_c, 0, 45, 0
2, 110936, Note_on_c, 0, 57, 77
2, 110938, Note_on_c, 0, 45, 70
2, 111075, Note_on_c, 0, 45, 0
2, 111082, Note_on_c, 0, 52, 62
2, 111085, Note_on_c, 0, 45, 78
2, 111221, Note_on_c, 0, 52, 0
2, 111232, Note_on_c, 0, 52, 71
2, 111237, Note_on_c, 0, 80, 0
2, 111237, Note_on_c, 0, 92, 0
2, 111241, Note_on_c, 0, 92, 101
2, 111242, Note_on_c, 0, 80, 96
2, 111383, Note_on_c, 0, 57, 0
2, 111383, Note_on_c, 0, 85, 0
2, 111387, Note_on_c, 0, 57, 80
2, 111390, Note_on_c, 0, 88, 0
2, 111392, Note_on_c, 0, 85, 96
2, 111393, Note_on_c, 0, 95, 104
2, 111393, Note_on_c, 0, 69, 84
2, 111394, Note_on_c, 0, 97, 95
2, 111394, Note_on_c, 0, 61, 83
2, 111395, Note_on_c, 0, 83, 94
2, 111396, Note_on_c, 0, 88, 86
2, 111398, Note_on_c, 0, 97, 0
2, 111536, Note_on_c, 0, 61, 0
2, 111546, Note_on_c, 0, 64, 92
2, 111547, Note_on_c, 0, 61, 85
2, 111697, Note_on_c, 0, 57, 0
2, 111702, Note_on_c, 0, 57, 79
2, 111843, Note_on_c, 0, 64, 0
2, 111843, Note_on_c, 0, 80, 0
2, 111843, Note_on_c, 0, 92, 0
2, 111849, Note_on_c, 0, 92, 103
2, 111854, Note_on_c, 0, 80, 96
2, 111854, Note_on_c, 0, 64, 90
2, 111989, Note_on_c, 0, 69, 0
2, 111989, Note_on_c, 0, 85, 0
2, 111997, Note_on_c, 0, 69, 84
2, 111997, Note_on_c, 0, 83, 0
2, 111997, Note_on_c, 0, 88, 0
2, 111997, Note_on_c, 0, 95, 0
2, 112000, Note_on_c, 0, 85, 99
2, 112002, Note_on_c, 0, 88, 95
2, 112007, Note_on_c, 0, 95, 101
2, 112008, Note_on_c, 0, 83, 94
2, 112143, Note_on_c, 0, 69, 0
2, 112147, Note_on_c, 0, 73, 91
2, 112154, Note_on_c, 0, 69, 79
2, 112281, Note_on_c, 0, 64, 0
2, 112289, Note_on_c, 0, 64, 90
2, 112442, Note_on_c, 0, 69, 0
2, 112442, Note_on_c, 0, 85, 0
2, 112447, Note_on_c, 0, 97, 106
2, 112450, Note_on_c, 0, 73, 0
2, 112450, Note_on_c, 0, 76, 0
2, 112452, Note_on_c, 0, 85, 106
2, 112454, Note_on_c, 0, 69, 78
2, 112454, Note_on_c, 0, 73, 93
2, 112455, Note_on_c, 0, 76, 92
2, 112542, Note_on_c, 0, 64, 0
2, 112552, Note_on_c, 0, 64, 92
2, 112604, Note_on_c, 0, 83, 0
2, 112604, Note_on_c, 0, 95, 0
2, 112608, Note_on_c, 0, 95, 105
2, 112611, Note_on_c, 0, 86, 105
2, 112612, Note_on_c, 0, 83, 103
2, 112614, Note_on_c, 0, 91, 87
2, 112682, Note_on_c, 0, 33, 0
2, 112682, Control_c, 0, 64, 0
2, 112682, Note_on_c, 0, 92, 0
2, 112682, Note_on_c, 0, 40, 0
2, 112683, Note_on_c, 0, 76, 0
2, 112683, Note_on_c, 0, 88, 0
2, 112683, Note_on_c, 0, 69, 0
2, 112683, Note_on_c, 0, 97, 0
2, 112683, Note_on_c, 0, 64, 0
2, 112683, Note_on_c, 0, 73, 0
2, 112683, Note_on_c, 0, 81, 0
2, 112683, Note_on_c, 0, 49, 0
2, 112684, Note_on_c, 0, 85, 0
2, 112688, Note_on_c, 0, 80, 0
2, 112696, Note_on_c, 0, 45, 0
2, 112696, Note_on_c, 0, 52, 0
2, 112696, Note_on_c, 0, 57, 0
2, 112696, Note_on_c, 0, 61, 0
2, 112696, Note_on_c, 0, 78, 0
2, 112696, Note_on_c, 0, 90, 0
2, 112746, Note_on_c, 0, 43, 88
2, 112747, Note_on_c, 0, 31, 76
2, 112780, Control_c, 0, 64, 127
2, 112931, Note_on_c, 0, 67, 57
2, 112932, Note_on_c, 0, 55, 62
2, 113061, Note_on_c, 0, 59, 73
2, 113061, Note_on_c, 0, 62, 66
2, 113061, Note_on_c, 0, 47, 65
2, 113164, Note_on_c, 0, 31, 0
2, 113164, Note_on_c, 0, 43, 0
2, 113168, Control_c, 0, 64, 0
2, 113169, Note_on_c, 0, 31, 57
2, 113173, Note_on_c, 0, 43, 62
2, 113195, Note_on_c, 0, 55, 0
2, 113195, Control_c, 0, 64, 127
2, 113201, Note_on_c, 0, 55, 77
2, 113349, Note_on_c, 0, 67, 0
2, 113354, Note_on_c, 0, 50, 69
2, 113356, Note_on_c, 0, 55, 0
2, 113358, Note_on_c, 0, 67, 79
2, 113364, Note_on_c, 0, 62, 0
2, 113367, Note_on_c, 0, 55, 66
2, 113371, Note_on_c, 0, 62, 63
2, 113495, Note_on_c, 0, 47, 0
2, 113495, Note_on_c, 0, 59, 0
2, 113499, Note_on_c, 0, 59, 78
2, 113500, Note_on_c, 0, 47, 74
2, 113654, Note_on_c, 0, 71, 94
2, 113656, Note_on_c, 0, 59, 0
2, 113664, Note_on_c, 0, 55, 0
2, 113664, Note_on_c, 0, 67, 0
2, 113667, Note_on_c, 0, 59, 80
2, 113670, Note_on_c, 0, 55, 76
2, 113671, Note_on_c, 0, 47, 0
2, 113672, Note_on_c, 0, 67, 79
2, 113676, Note_on_c, 0, 47, 60
2, 113794, Note_on_c, 0, 50, 0
2, 113802, Note_on_c, 0, 62, 0
2, 113804, Note_on_c, 0, 50, 77
2, 113806, Note_on_c, 0, 62, 78
2, 113938, Control_c, 0, 64, 0
2, 113939, Note_on_c, 0, 71, 0
2, 113939, Note_on_c, 0, 86, 0
2, 113939, Note_on_c, 0, 47, 0
2, 113940, Note_on_c, 0, 95, 0
2, 113940, Note_on_c, 0, 91, 0
2, 113940, Note_on_c, 0, 59, 0
2, 113941, Note_on_c, 0, 55, 0
2, 113941, Note_on_c, 0, 62, 0
2, 113955, Note_on_c, 0, 43, 0
2, 113955, Note_on_c, 0, 50, 0
2, 113955, Note_on_c, 0, 67, 0
2, 113955, Note_on_c, 0, 83, 0
2, 113963, Note_on_c, 0, 31, 0
2, 113968, Note_on_c, 0, 33, 79
2, 113968, Note_on_c, 0, 45, 85
2, 113974, Note_on_c, 0, 73, 102
2, 113974, Note_on_c, 0, 40, 65
2, 113975, Note_on_c, 0, 69, 88
2, 114005, Note_on_c, 0, 33, 0
2, 114009, Control_c, 0, 64, 127
2, 114048, Note_on_c, 0, 45, 0
2, 114116, Note_on_c, 0, 64, 85
2, 114137, Note_on_c, 0, 45, 78
2, 114270, Note_on_c, 0, 73, 0
2, 114278, Note_on_c, 0, 76, 90
2, 114279, Note_on_c, 0, 73, 94
2, 114280, Note_on_c, 0, 52, 83
2, 114281, Note_on_c, 0, 57, 83
2, 114416, Note_on_c, 0, 69, 0
2, 114422, Note_on_c, 0, 49, 74
2, 114427, Note_on_c, 0, 69, 82
2, 114570, Note_on_c, 0, 57, 0
2, 114576, Note_on_c, 0, 57, 82
2, 114577, Note_on_c, 0, 81, 97
2, 114577, Note_on_c, 0, 69, 0
2, 114577, Note_on_c, 0, 76, 0
2, 114580, Note_on_c, 0, 61, 82
2, 114583, Note_on_c, 0, 76, 90
2, 114587, Note_on_c, 0, 69, 81
2, 114708, Note_on_c, 0, 73, 0
2, 114716, Note_on_c, 0, 52, 0
2, 114717, Note_on_c, 0, 73, 89
2, 114720, Note_on_c, 0, 52, 79
2, 114857, Note_on_c, 0, 85, 102
2, 114862, Note_on_c, 0, 64, 0
2, 114862, Note_on_c, 0, 81, 0
2, 114869, Note_on_c, 0, 52, 0
2, 114869, Note_on_c, 0, 61, 0
2, 114872, Note_on_c, 0, 81, 85
2, 114873, Note_on_c, 0, 64, 85
2, 114876, Note_on_c, 0, 61, 76
2, 114880, Note_on_c, 0, 52, 76
2, 115008, Note_on_c, 0, 57, 0
2, 115014, Note_on_c, 0, 57, 70
2, 115015, Note_on_c, 0, 76, 0
2, 115023, Note_on_c, 0, 76, 83
2, 115115, Note_on_c, 0, 40, 0
2, 115124, Note_on_c, 0, 69, 0
2, 115124, Note_on_c, 0, 81, 0
2, 115125, Note_on_c, 0, 73, 0
2, 115125, Note_on_c, 0, 85, 0
2, 115125, Note_on_c, 0, 61, 0
2, 115126, Note_on_c, 0, 76, 0
2, 115126, Control_c, 0, 64, 0
2, 115126, Note_on_c, 0, 57, 0
2, 115138, Note_on_c, 0, 49, 0
2, 115146, Note_on_c, 0, 45, 0
2, 115146, Note_on_c, 0, 52, 0
2, 115146, Note_on_c, 0, 64, 0
2, 115172, Note_on_c, 0, 47, 71
2, 115180, Note_on_c, 0, 85, 98
2, 115183, Note_on_c, 0, 73, 91
2, 115192, Control_c, 0, 64, 127
2, 115288, Note_on_c, 0, 57, 61
2, 115330, Note_on_c, 0, 73, 0
2, 115330, Note_on_c, 0, 85, 0
2, 115336, Note_on_c, 0, 85, 90
2, 115339, Note_on_c, 0, 73, 72
2, 115373, Note_on_c, 0, 62, 54
2, 115468, Note_on_c, 0, 57, 0
2, 115475, Note_on_c, 0, 57, 66
2, 115480, Note_on_c, 0, 86, 94
2, 115485, Note_on_c, 0, 74, 78
2, 115530, Note_on_c, 0, 54, 43
2, 115614, Note_on_c, 0, 57, 0
2, 115622, Note_on_c, 0, 57, 48
2, 115641, Note_on_c, 0, 88, 100
2, 115646, Note_on_c, 0, 76, 83
2, 115668, Note_on_c, 0, 62, 0
2, 115675, Note_on_c, 0, 62, 59
2, 115752, Note_on_c, 0, 57, 0
2, 115762, Note_on_c, 0, 45, 48
2, 115764, Note_on_c, 0, 57, 50
2, 115837, Note_on_c, 0, 54, 0
2, 115847, Note_on_c, 0, 54, 47
2, 115921, Note_on_c, 0, 57, 0
2, 115933, Note_on_c, 0, 57, 54
2, 115956, Note_on_c, 0, 93, 101
2, 115968, Note_on_c, 0, 62, 0
2, 115968, Note_on_c, 0, 81, 87
2, 115978, Note_on_c, 0, 62, 56
2, 116044, Note_on_c, 0, 57, 0
2, 116055, Note_on_c, 0, 57, 58
2, 116106, Note_on_c, 0, 54, 0
2, 116112, Note_on_c, 0, 54, 58
2, 116175, Note_on_c, 0, 57, 0
2, 116184, Note_on_c, 0, 57, 53
2, 116259, Note_on_c, 0, 62, 0
2, 116270, Note_on_c, 0, 62, 54
2, 116282, Note_on_c, 0, 76, 0
2, 116282, Note_on_c, 0, 88, 0
2, 116287, Note_on_c, 0, 88, 96
2, 116293, Note_on_c, 0, 76, 76
2, 116328, Note_on_c, 0, 57, 0
2, 116339, Note_on_c, 0, 69, 58
2, 116339, Note_on_c, 0, 57, 57
2, 116413, Note_on_c, 0, 54, 0
2, 116423, Note_on_c, 0, 54, 56
2, 116474, Note_on_c, 0, 57, 0
2, 116484, Note_on_c, 0, 57, 62
2, 116590, Note_on_c, 0, 62, 0
2, 116594, Note_on_c, 0, 62, 55
2, 116597, Note_on_c, 0, 93, 0
2, 116607, Note_on_c, 0, 93, 68
2, 116666, Note_on_c, 0, 57, 0
2, 116671, Note_on_c, 0, 57, 52
2, 116736, Note_on_c, 0, 54, 0
2, 116740, Note_on_c, 0, 54, 54
2, 116748, Note_on_c, 0, 100, 78
2, 116751, Note_on_c, 0, 88, 0
2, 116755, Note_on_c, 0, 88, 59
2, 116797, Note_on_c, 0, 57, 0
2, 116803, Note_on_c, 0, 57, 62
2, 116889, Note_on_c, 0, 93, 0
2, 116899, Note_on_c, 0, 93, 69
2, 116912, Note_on_c, 0, 62, 0
2, 116919, Note_on_c, 0, 62, 44
2, 116951, Note_on_c, 0, 57, 0
2, 116955, Note_on_c, 0, 57, 51
2, 116957, Note_on_c, 0, 45, 0
2, 117043, Note_on_c, 0, 54, 0
2, 117050, Note_on_c, 0, 54, 62
2, 117120, Note_on_c, 0, 57, 0
2, 117131, Note_on_c, 0, 57, 51
2, 117196, Note_on_c, 0, 93, 0
2, 117204, Note_on_c, 0, 62, 0
2, 117206, Note_on_c, 0, 93, 68
2, 117210, Note_on_c, 0, 62, 57
2, 117327, Note_on_c, 0, 54, 0
2, 117332, Note_on_c, 0, 54, 49
2, 117350, Note_on_c, 0, 100, 0
2, 117361, Note_on_c, 0, 100, 81
2, 117373, Note_on_c, 0, 86, 0
2, 117382, Note_on_c, 0, 86, 49
2, 117450, Note_on_c, 0, 62, 0
2, 117456, Note_on_c, 0, 62, 64
2, 117527, Note_on_c, 0, 57, 0
2, 117527, Note_on_c, 0, 93, 0
2, 117530, Note_on_c, 0, 93, 83
2, 117536, Note_on_c, 0, 57, 52
2, 117674, Note_on_c, 0, 86, 0
2, 117674, Note_on_c, 0, 81, 0
2, 117675, Note_on_c, 0, 93, 0
2, 117675, Note_on_c, 0, 74, 0
2, 117675, Note_on_c, 0, 62, 0
2, 117675, Note_on_c, 0, 88, 0
2, 117675, Note_on_c, 0, 57, 0
2, 117676, Note_on_c, 0, 76, 0
2, 117676, Note_on_c, 0, 42, 72
2, 117676, Control_c, 0, 64, 0
2, 117680, Note_on_c, 0, 85, 0
2, 117688, Note_on_c, 0, 47, 0
2, 117688, Note_on_c, 0, 54, 0
2, 117688, Note_on_c, 0, 69, 0
2, 117688, Note_on_c, 0, 73, 0
2, 117688, Note_on_c, 0, 100, 0
2, 117691, Note_on_c, 0, 85, 94
2, 117692, Note_on_c, 0, 73, 90
2, 117703, Control_c, 0, 64, 127
2, 117801, Note_on_c, 0, 52, 56
2, 117803, Note_on_c, 0, 73, 0
2, 117826, Note_on_c, 0, 85, 0
2, 117837, Note_on_c, 0, 73, 88
2, 117838, Note_on_c, 0, 85, 92
2, 117876, Note_on_c, 0, 57, 59
2, 117949, Note_on_c, 0, 52, 0
2, 117953, Note_on_c, 0, 52, 46
2, 117992, Note_on_c, 0, 86, 93
2, 117998, Note_on_c, 0, 74, 72
2, 118009, Note_on_c, 0, 49, 51
2, 118080, Note_on_c, 0, 52, 0
2, 118085, Note_on_c, 0, 52, 61
2, 118147, Note_on_c, 0, 88, 100
2, 118156, Note_on_c, 0, 57, 0
2, 118161, Note_on_c, 0, 76, 75
2, 118168, Note_on_c, 0, 57, 58
2, 118248, Note_on_c, 0, 52, 0
2, 118253, Note_on_c, 0, 52, 33
2, 118302, Note_on_c, 0, 49, 0
2, 118312, Note_on_c, 0, 49, 57
2, 118402, Note_on_c, 0, 52, 0
2, 118412, Note_on_c, 0, 52, 54
2, 118471, Note_on_c, 0, 57, 0
2, 118473, Note_on_c, 0, 93, 92
2, 118477, Note_on_c, 0, 57, 59
2, 118482, Note_on_c, 0, 81, 81
2, 118525, Note_on_c, 0, 52, 0
2, 118533, Note_on_c, 0, 52, 64
2, 118617, Note_on_c, 0, 49, 0
2, 118621, Note_on_c, 0, 49, 55
2, 118702, Note_on_c, 0, 52, 0
2, 118707, Note_on_c, 0, 52, 60
2, 118786, Note_on_c, 0, 57, 0
2, 118786, Note_on_c, 0, 88, 0
2, 118794, Note_on_c, 0, 76, 0
2, 118795, Note_on_c, 0, 57, 62
2, 118797, Note_on_c, 0, 88, 91
2, 118803, Note_on_c, 0, 76, 70
2, 118832, Note_on_c, 0, 52, 0
2, 118841, Note_on_c, 0, 52, 55
2, 118932, Note_on_c, 0, 49, 0
2, 118940, Note_on_c, 0, 49, 63
2, 119001, Note_on_c, 0, 52, 0
2, 119007, Note_on_c, 0, 52, 60
2, 119101, Note_on_c, 0, 57, 0
2, 119101, Note_on_c, 0, 81, 0
2, 119101, Note_on_c, 0, 93, 0
2, 119105, Note_on_c, 0, 93, 75
2, 119106, Note_on_c, 0, 57, 52
2, 119110, Note_on_c, 0, 81, 58
2, 119155, Note_on_c, 0, 52, 0
2, 119166, Note_on_c, 0, 52, 52
2, 119255, Note_on_c, 0, 49, 0
2, 119262, Note_on_c, 0, 49, 54
2, 119266, Note_on_c, 0, 100, 76
2, 119339, Note_on_c, 0, 52, 0
2, 119348, Note_on_c, 0, 52, 54
2, 119400, Note_on_c, 0, 93, 0
2, 119411, Note_on_c, 0, 93, 72
2, 119424, Note_on_c, 0, 57, 0
2, 119428, Note_on_c, 0, 57, 47
2, 119470, Note_on_c, 0, 52, 0
2, 119478, Note_on_c, 0, 52, 62
2, 119569, Note_on_c, 0, 57, 0
2, 119569, Note_on_c, 0, 93, 0
2, 119580, Note_on_c, 0, 57, 45
2, 119581, Note_on_c, 0, 93, 66
2, 119585, Note_on_c, 0, 49, 0
2, 119594, Note_on_c, 0, 49, 49
2, 119631, Note_on_c, 0, 52, 0
2, 119638, Note_on_c, 0, 52, 58
2, 119715, Note_on_c, 0, 57, 0
2, 119715, Note_on_c, 0, 93, 0
2, 119726, Note_on_c, 0, 93, 68
2, 119727, Note_on_c, 0, 57, 43
2, 119777, Note_on_c, 0, 52, 0
2, 119787, Note_on_c, 0, 52, 55
2, 119854, Note_on_c, 0, 49, 0
2, 119859, Note_on_c, 0, 49, 58
2, 119877, Note_on_c, 0, 100, 0
2, 119882, Note_on_c, 0, 100, 86
2, 120000, Note_on_c, 0, 57, 0
2, 120004, Note_on_c, 0, 57, 52
2, 120023, Note_on_c, 0, 93, 0
2, 120034, Note_on_c, 0, 93, 80
2, 120053, Note_on_c, 0, 52, 0
2, 120058, Note_on_c, 0, 52, 68
2, 120162, Note_on_c, 0, 42, 0
2, 120164, Note_on_c, 0, 100, 0
2, 120164, Note_on_c, 0, 74, 0
2, 120164, Note_on_c, 0, 93, 0
2, 120165, Note_on_c, 0, 49, 0
2, 120165, Note_on_c, 0, 86, 0
2, 120165, Note_on_c, 0, 73, 0
2, 120165, Note_on_c, 0, 81, 0
2, 120165, Note_on_c, 0, 88, 0
2, 120165, Note_on_c, 0, 52, 0
2, 120166, Note_on_c, 0, 76, 0
2, 120166, Note_on_c, 0, 57, 0
2, 120169, Control_c, 0, 64, 0
2, 120183, Note_on_c, 0, 43, 76
2, 120192, Note_on_c, 0, 85, 0
2, 120196, Note_on_c, 0, 85, 95
2, 120202, Note_on_c, 0, 73, 85
2, 120222, Control_c, 0, 64, 127
2, 120272, Note_on_c, 0, 50, 60
2, 120330, Note_on_c, 0, 85, 0
2, 120337, Note_on_c, 0, 73, 0
2, 120341, Note_on_c, 0, 85, 94
2, 120343, Note_on_c, 0, 73, 78
2, 120357, Note_on_c, 0, 59, 71
2, 120436, Note_on_c, 0, 55, 55
2, 120499, Note_on_c, 0, 50, 0
2, 120501, Note_on_c, 0, 86, 92
2, 120503, Note_on_c, 0, 50, 63
2, 120503, Note_on_c, 0, 74, 72
2, 120591, Note_on_c, 0, 55, 0
2, 120595, Note_on_c, 0, 55, 59
2, 120657, Note_on_c, 0, 88, 97
2, 120660, Note_on_c, 0, 59, 0
2, 120668, Note_on_c, 0, 76, 77
2, 120670, Note_on_c, 0, 59, 73
2, 120729, Note_on_c, 0, 55, 0
2, 120740, Note_on_c, 0, 55, 64
2, 120814, Note_on_c, 0, 50, 0
2, 120818, Note_on_c, 0, 50, 65
2, 120906, Note_on_c, 0, 55, 0
2, 120911, Note_on_c, 0, 55, 61
2, 120971, Note_on_c, 0, 93, 95
2, 120990, Note_on_c, 0, 59, 0
2, 120991, Note_on_c, 0, 81, 78
2, 120999, Note_on_c, 0, 59, 65
2, 121052, Note_on_c, 0, 55, 0
2, 121058, Note_on_c, 0, 55, 58
2, 121121, Note_on_c, 0, 50, 0
2, 121127, Note_on_c, 0, 50, 50
2, 121190, Note_on_c, 0, 55, 0
2, 121201, Note_on_c, 0, 55, 52
2, 121290, Note_on_c, 0, 76, 0
2, 121290, Note_on_c, 0, 88, 0
2, 121295, Note_on_c, 0, 88, 93
2, 121297, Note_on_c, 0, 59, 0
2, 121301, Note_on_c, 0, 76, 76
2, 121301, Note_on_c, 0, 59, 62
2, 121359, Note_on_c, 0, 55, 0
2, 121369, Note_on_c, 0, 55, 53
2, 121436, Note_on_c, 0, 50, 0
2, 121440, Note_on_c, 0, 50, 48
2, 121489, Note_on_c, 0, 55, 0
2, 121499, Note_on_c, 0, 55, 56
2, 121589, Note_on_c, 0, 93, 0
2, 121600, Note_on_c, 0, 93, 72
2, 121605, Note_on_c, 0, 59, 0
2, 121609, Note_on_c, 0, 59, 63
2, 121689, Note_on_c, 0, 55, 0
2, 121695, Note_on_c, 0, 55, 53
2, 121758, Note_on_c, 0, 50, 0
2, 121759, Note_on_c, 0, 100, 79
2, 121762, Note_on_c, 0, 50, 54
2, 121812, Note_on_c, 0, 55, 0
2, 121819, Note_on_c, 0, 55, 52
2, 121904, Note_on_c, 0, 93, 0
2, 121909, Note_on_c, 0, 93, 78
2, 121920, Note_on_c, 0, 59, 0
2, 121926, Note_on_c, 0, 59, 58
2, 121996, Note_on_c, 0, 55, 0
2, 122001, Note_on_c, 0, 55, 44
2, 122050, Note_on_c, 0, 50, 0
2, 122061, Note_on_c, 0, 50, 64
2, 122127, Note_on_c, 0, 55, 0
2, 122131, Note_on_c, 0, 55, 59
2, 122204, Note_on_c, 0, 93, 0
2, 122210, Note_on_c, 0, 93, 74
2, 122234, Note_on_c, 0, 59, 0
2, 122240, Note_on_c, 0, 59, 68
2, 122350, Note_on_c, 0, 50, 0
2, 122350, Note_on_c, 0, 86, 0
2, 122354, Note_on_c, 0, 50, 58
2, 122357, Note_on_c, 0, 86, 87
2, 122368, Note_on_c, 0, 69, 68
2, 122373, Note_on_c, 0, 69, 0
2, 122396, Note_on_c, 0, 55, 0
2, 122403, Note_on_c, 0, 55, 45
2, 122426, Note_on_c, 0, 85, 0
2, 122431, Note_on_c, 0, 85, 93
2, 122472, Note_on_c, 0, 59, 0
2, 122480, Note_on_c, 0, 59, 65
2, 122514, Note_on_c, 0, 83, 85
2, 122534, Note_on_c, 0, 55, 0
2, 122543, Note_on_c, 0, 55, 61
2, 122565, Note_on_c, 0, 81, 0
2, 122574, Note_on_c, 0, 81, 82
2, 122647, Note_on_c, 0, 74, 0
2, 122647, Note_on_c, 0, 93, 0
2, 122647, Note_on_c, 0, 86, 0
2, 122648, Note_on_c, 0, 81, 0
2, 122648, Note_on_c, 0, 73, 0
2, 122649, Note_on_c, 0, 55, 0
2, 122649, Note_on_c, 0, 50, 0
2, 122649, Note_on_c, 0, 83, 0
2, 122649, Note_on_c, 0, 85, 0
2, 122649, Note_on_c, 0, 43, 0
2, 122650, Control_c, 0, 64, 0
2, 122650, Note_on_c, 0, 100, 0
2, 122651, Note_on_c, 0, 76, 0
2, 122669, Note_on_c, 0, 45, 68
2, 122672, Note_on_c, 0, 59, 0
2, 122672, Note_on_c, 0, 88, 0
2, 122682, Note_on_c, 0, 88, 104
2, 122691, Note_on_c, 0, 76, 96
2, 122717, Note_on_c, 0, 52, 72
2, 122723, Note_on_c, 0, 45, 0
2, 122726, Control_c, 0, 64, 127
2, 122824, Note_on_c, 0, 61, 67
2, 122901, Note_on_c, 0, 57, 63
2, 122987, Note_on_c, 0, 52, 0
2, 122996, Note_on_c, 0, 52, 61
2, 123079, Note_on_c, 0, 57, 0
2, 123089, Note_on_c, 0, 57, 51
2, 123148, Note_on_c, 0, 61, 0
2, 123156, Note_on_c, 0, 61, 59
2, 123202, Note_on_c, 0, 57, 0
2, 123210, Note_on_c, 0, 57, 59
2, 123302, Note_on_c, 0, 52, 0
2, 123307, Note_on_c, 0, 52, 44
2, 123371, Note_on_c, 0, 57, 0
2, 123382, Note_on_c, 0, 57, 58
2, 123471, Note_on_c, 0, 61, 0
2, 123471, Note_on_c, 0, 98, 84
2, 123475, Note_on_c, 0, 86, 82
2, 123481, Note_on_c, 0, 61, 48
2, 123555, Note_on_c, 0, 57, 0
2, 123563, Note_on_c, 0, 57, 48
2, 123627, Note_on_c, 0, 97, 82
2, 123632, Note_on_c, 0, 52, 0
2, 123635, Note_on_c, 0, 85, 79
2, 123636, Note_on_c, 0, 52, 52
2, 123694, Note_on_c, 0, 57, 0
2, 123704, Note_on_c, 0, 57, 57
2, 123772, Note_on_c, 0, 93, 84
2, 123776, Note_on_c, 0, 81, 74
2, 123793, Note_on_c, 0, 61, 0
2, 123803, Note_on_c, 0, 61, 53
2, 123886, Note_on_c, 0, 57, 0
2, 123896, Note_on_c, 0, 57, 35
2, 123932, Note_on_c, 0, 76, 0
2, 123932, Note_on_c, 0, 88, 0
2, 123936, Note_on_c, 0, 88, 79
2, 123942, Note_on_c, 0, 76, 69
2, 123955, Note_on_c, 0, 52, 0
2, 123961, Note_on_c, 0, 52, 55
2, 124032, Note_on_c, 0, 57, 0
2, 124041, Note_on_c, 0, 57, 59
2, 124078, Note_on_c, 0, 86, 0
2, 124084, Note_on_c, 0, 86, 78
2, 124085, Note_on_c, 0, 61, 0
2, 124089, Note_on_c, 0, 74, 64
2, 124090, Note_on_c, 0, 61, 53
2, 124139, Note_on_c, 0, 57, 0
2, 124149, Note_on_c, 0, 57, 58
2, 124231, Note_on_c, 0, 85, 0
2, 124239, Note_on_c, 0, 52, 0
2, 124242, Note_on_c, 0, 85, 72
2, 124242, Note_on_c, 0, 73, 70
2, 124248, Note_on_c, 0, 52, 47
2, 124316, Note_on_c, 0, 57, 0
2, 124326, Note_on_c, 0, 57, 56
2, 124389, Note_on_c, 0, 69, 66
2, 124400, Note_on_c, 0, 61, 0
2, 124400, Note_on_c, 0, 81, 0
2, 124405, Note_on_c, 0, 61, 51
2, 124409, Note_on_c, 0, 81, 57
2, 124477, Note_on_c, 0, 57, 0
2, 124488, Note_on_c, 0, 57, 57
2, 124538, Note_on_c, 0, 52, 0
2, 124538, Note_on_c, 0, 76, 0
2, 124549, Note_on_c, 0, 76, 68
2, 124550, Note_on_c, 0, 52, 68
2, 124608, Note_on_c, 0, 57, 0
2, 124614, Note_on_c, 0, 57, 68
2, 124700, Note_on_c, 0, 61, 0
2, 124706, Note_on_c, 0, 61, 63
2, 124784, Note_on_c, 0, 57, 0
2, 124789, Note_on_c, 0, 57, 65
2, 124838, Note_on_c, 0, 52, 0
2, 124847, Note_on_c, 0, 52, 64
2, 124922, Note_on_c, 0, 57, 0
2, 124932, Note_on_c, 0, 57, 68
2, 124976, Note_on_c, 0, 61, 0
2, 124981, Note_on_c, 0, 61, 25
2, 125061, Note_on_c, 0, 47, 66
2, 125110, Note_on_c, 0, 97, 0
2, 125110, Note_on_c, 0, 86, 0
2, 125111, Note_on_c, 0, 93, 0
2, 125111, Note_on_c, 0, 74, 0
2, 125111, Note_on_c, 0, 52, 0
2, 125111, Note_on_c, 0, 85, 0
2, 125111, Note_on_c, 0, 69, 0
2, 125111, Note_on_c, 0, 88, 0
2, 125111, Note_on_c, 0, 81, 0
2, 125112, Note_on_c, 0, 57, 0
2, 125112, Note_on_c, 0, 73, 0
2, 125112, Note_on_c, 0, 61, 0
2, 125112, Note_on_c, 0, 76, 0
2, 125117, Control_c, 0, 64, 0
2, 125122, Note_on_c, 0, 98, 0
2, 125130, Note_on_c, 0, 47, 0
2, 125149, Note_on_c, 0, 54, 79
2, 125151, Note_on_c, 0, 57, 75
2, 125166, Note_on_c, 0, 81, 94
2, 125170, Note_on_c, 0, 69, 75
2, 125172, Note_on_c, 0, 61, 81
2, 125184, Control_c, 0, 64, 127
2, 125259, Note_on_c, 0, 76, 66
2, 125291, Note_on_c, 0, 61, 0
2, 125295, Note_on_c, 0, 61, 73
2, 125337, Note_on_c, 0, 69, 0
2, 125344, Note_on_c, 0, 69, 57
2, 125460, Note_on_c, 0, 81, 0
2, 125463, Note_on_c, 0, 62, 85
2, 125467, Note_on_c, 0, 81, 84
2, 125544, Note_on_c, 0, 76, 0
2, 125549, Note_on_c, 0, 76, 74
2, 125611, Note_on_c, 0, 64, 100
2, 125629, Note_on_c, 0, 81, 0
2, 125640, Note_on_c, 0, 81, 85
2, 125683, Note_on_c, 0, 76, 0
2, 125693, Note_on_c, 0, 76, 63
2, 125767, Note_on_c, 0, 81, 0
2, 125778, Note_on_c, 0, 81, 71
2, 125855, Note_on_c, 0, 88, 64
2, 125921, Note_on_c, 0, 69, 0
2, 125929, Note_on_c, 0, 69, 90
2, 125930, Note_on_c, 0, 93, 78
2, 126005, Note_on_c, 0, 88, 0
2, 126010, Note_on_c, 0, 88, 78
2, 126074, Note_on_c, 0, 93, 0
2, 126080, Note_on_c, 0, 93, 73
2, 126128, Note_on_c, 0, 88, 0
2, 126133, Note_on_c, 0, 88, 82
2, 126228, Note_on_c, 0, 64, 0
2, 126228, Note_on_c, 0, 93, 0
2, 126232, Note_on_c, 0, 64, 80
2, 126234, Note_on_c, 0, 93, 75
2, 126303, Note_on_c, 0, 100, 85
2, 126375, Note_on_c, 0, 103, 81
2, 126382, Note_on_c, 0, 103, 0
2, 126435, Note_on_c, 0, 100, 0
2, 126445, Note_on_c, 0, 100, 82
2, 126520, Note_on_c, 0, 93, 0
2, 126530, Note_on_c, 0, 93, 59
2, 126589, Note_on_c, 0, 88, 0
2, 126594, Note_on_c, 0, 88, 79
2, 126658, Note_on_c, 0, 93, 0
2, 126667, Note_on_c, 0, 93, 73
2, 126743, Note_on_c, 0, 88, 0
2, 126749, Note_on_c, 0, 88, 73
2, 126812, Note_on_c, 0, 81, 0
2, 126817, Note_on_c, 0, 81, 66
2, 126888, Note_on_c, 0, 76, 0
2, 126899, Note_on_c, 0, 76, 60
2, 126973, Note_on_c, 0, 81, 0
2, 126980, Note_on_c, 0, 81, 63
2, 127057, Note_on_c, 0, 76, 0
2, 127063, Note_on_c, 0, 76, 64
2, 127142, Note_on_c, 0, 69, 0
2, 127149, Note_on_c, 0, 69, 56
2, 127211, Note_on_c, 0, 76, 0
2, 127222, Note_on_c, 0, 76, 59
2, 127280, Note_on_c, 0, 81, 0
2, 127286, Note_on_c, 0, 81, 77
2, 127365, Note_on_c, 0, 76, 0
2, 127369, Note_on_c, 0, 76, 61
2, 127441, Note_on_c, 0, 69, 0
2, 127452, Note_on_c, 0, 69, 54
2, 127534, Note_on_c, 0, 61, 0
2, 127538, Control_c, 0, 64, 0
2, 127541, Note_on_c, 0, 57, 0
2, 127544, Note_on_c, 0, 88, 0
2, 127544, Note_on_c, 0, 61, 88
2, 127545, Note_on_c, 0, 62, 0
2, 127545, Note_on_c, 0, 54, 0
2, 127546, Note_on_c, 0, 57, 78
2, 127550, Note_on_c, 0, 49, 78
2, 127552, Note_on_c, 0, 52, 73
2, 127564, Note_on_c, 0, 81, 0
2, 127569, Note_on_c, 0, 81, 88
2, 127572, Control_c, 0, 64, 127
2, 127649, Note_on_c, 0, 76, 0
2, 127660, Note_on_c, 0, 76, 60
2, 127695, Note_on_c, 0, 61, 0
2, 127701, Note_on_c, 0, 61, 74
2, 127787, Note_on_c, 0, 76, 0
2, 127796, Note_on_c, 0, 76, 58
2, 127848, Note_on_c, 0, 81, 0
2, 127853, Note_on_c, 0, 62, 81
2, 127857, Note_on_c, 0, 81, 83
2, 127925, Note_on_c, 0, 76, 0
2, 127935, Note_on_c, 0, 76, 70
2, 128002, Note_on_c, 0, 64, 0
2, 128011, Note_on_c, 0, 64, 108
2, 128017, Note_on_c, 0, 81, 0
2, 128025, Note_on_c, 0, 81, 73
2, 128156, Note_on_c, 0, 81, 0
2, 128164, Note_on_c, 0, 81, 71
2, 128241, Note_on_c, 0, 88, 70
2, 128309, Note_on_c, 0, 69, 0
2, 128309, Note_on_c, 0, 93, 0
2, 128319, Note_on_c, 0, 93, 88
2, 128320, Note_on_c, 0, 69, 98
2, 128394, Note_on_c, 0, 88, 0
2, 128398, Note_on_c, 0, 88, 75
2, 128471, Note_on_c, 0, 93, 0
2, 128475, Note_on_c, 0, 93, 76
2, 128524, Note_on_c, 0, 88, 0
2, 128532, Note_on_c, 0, 88, 72
2, 128624, Note_on_c, 0, 64, 0
2, 128624, Note_on_c, 0, 93, 0
2, 128629, Note_on_c, 0, 64, 85
2, 128633, Note_on_c, 0, 93, 77
2, 128640, Note_on_c, 0, 100, 0
2, 128710, Note_on_c, 0, 100, 80
2, 128783, Note_on_c, 0, 103, 80
2, 128847, Note_on_c, 0, 100, 0
2, 128855, Note_on_c, 0, 100, 80
2, 128924, Note_on_c, 0, 81, 0
2, 128924, Note_on_c, 0, 93, 0
2, 128928, Note_on_c, 0, 93, 52
2, 128928, Note_on_c, 0, 81, 51
2, 128993, Note_on_c, 0, 88, 0
2, 128997, Note_on_c, 0, 88, 83
2, 129070, Note_on_c, 0, 93, 0
2, 129081, Note_on_c, 0, 93, 79
2, 129139, Note_on_c, 0, 88, 0
2, 129144, Note_on_c, 0, 88, 75
2, 129216, Note_on_c, 0, 81, 0
2, 129225, Note_on_c, 0, 81, 61
2, 129292, Note_on_c, 0, 76, 0
2, 129304, Note_on_c, 0, 76, 58
2, 129361, Note_on_c, 0, 103, 0
2, 129369, Note_on_c, 0, 61, 0
2, 129377, Note_on_c, 0, 81, 0
2, 129380, Note_on_c, 0, 61, 92
2, 129382, Note_on_c, 0, 81, 79
2, 129461, Note_on_c, 0, 76, 0
2, 129472, Note_on_c, 0, 76, 71
2, 129530, Note_on_c, 0, 64, 0
2, 129535, Note_on_c, 0, 64, 96
2, 129553, Note_on_c, 0, 69, 0
2, 129564, Note_on_c, 0, 69, 68
2, 129630, Note_on_c, 0, 76, 0
2, 129642, Note_on_c, 0, 76, 69
2, 129643, Note_on_c, 0, 88, 0
2, 129699, Note_on_c, 0, 81, 0
2, 129709, Note_on_c, 0, 81, 75
2, 129768, Note_on_c, 0, 76, 0
2, 129773, Note_on_c, 0, 76, 61
2, 129822, Note_on_c, 0, 64, 0
2, 129827, Note_on_c, 0, 64, 73
2, 129853, Note_on_c, 0, 69, 0
2, 129858, Note_on_c, 0, 69, 57
2, 129911, Note_on_c, 0, 50, 67
2, 129918, Note_on_c, 0, 52, 0
2, 129918, Note_on_c, 0, 100, 0
2, 129918, Note_on_c, 0, 49, 0
2, 129918, Note_on_c, 0, 69, 0
2, 129918, Note_on_c, 0, 64, 0
2, 129918, Note_on_c, 0, 76, 0
2, 129918, Note_on_c, 0, 81, 0
2, 129918, Note_on_c, 0, 93, 0
2, 129919, Note_on_c, 0, 62, 0
2, 129920, Control_c, 0, 64, 0
2, 129930, Note_on_c, 0, 61, 0
2, 129938, Note_on_c, 0, 54, 82
2, 129953, Note_on_c, 0, 50, 0
2, 129967, Note_on_c, 0, 76, 58
2, 129984, Control_c, 0, 64, 127
2, 129999, Note_on_c, 0, 66, 93
2, 130002, Note_on_c, 0, 81, 87
2, 130076, Note_on_c, 0, 76, 0
2, 130082, Note_on_c, 0, 76, 74
2, 130144, Note_on_c, 0, 64, 97
2, 130162, Note_on_c, 0, 69, 73
2, 130222, Note_on_c, 0, 76, 0
2, 130233, Note_on_c, 0, 76, 75
2, 130298, Note_on_c, 0, 81, 0
2, 130303, Note_on_c, 0, 81, 83
2, 130375, Note_on_c, 0, 76, 0
2, 130384, Note_on_c, 0, 76, 68
2, 130452, Note_on_c, 0, 81, 0
2, 130457, Note_on_c, 0, 62, 86
2, 130461, Note_on_c, 0, 81, 75
2, 130521, Note_on_c, 0, 76, 0
2, 130530, Note_on_c, 0, 76, 70
2, 130606, Note_on_c, 0, 81, 0
2, 130611, Note_on_c, 0, 81, 76
2, 130687, Note_on_c, 0, 88, 81
2, 130767, Note_on_c, 0, 69, 0
2, 130772, Note_on_c, 0, 69, 84
2, 130773, Note_on_c, 0, 93, 94
2, 130844, Note_on_c, 0, 88, 0
2, 130851, Note_on_c, 0, 88, 72
2, 130928, Note_on_c, 0, 93, 0
2, 130937, Note_on_c, 0, 93, 70
2, 130974, Note_on_c, 0, 88, 0
2, 130986, Note_on_c, 0, 88, 78
2, 131074, Note_on_c, 0, 93, 0
2, 131082, Note_on_c, 0, 93, 81
2, 131092, Note_on_c, 0, 71, 98
2, 131168, Note_on_c, 0, 100, 85
2, 131239, Note_on_c, 0, 103, 79
2, 131243, Note_on_c, 0, 103, 0
2, 131312, Note_on_c, 0, 100, 0
2, 131318, Note_on_c, 0, 100, 73
2, 131443, Note_on_c, 0, 88, 0
2, 131453, Note_on_c, 0, 88, 78
2, 131520, Note_on_c, 0, 93, 0
2, 131529, Note_on_c, 0, 93, 73
2, 131589, Note_on_c, 0, 88, 0
2, 131600, Note_on_c, 0, 88, 77
2, 131681, Note_on_c, 0, 81, 0
2, 131686, Note_on_c, 0, 81, 59
2, 131758, Note_on_c, 0, 76, 0
2, 131769, Note_on_c, 0, 76, 66
2, 131804, Note_on_c, 0, 69, 0
2, 131815, Note_on_c, 0, 69, 90
2, 131834, Note_on_c, 0, 81, 0
2, 131838, Note_on_c, 0, 81, 75
2, 131911, Note_on_c, 0, 76, 0
2, 131920, Note_on_c, 0, 76, 69
2, 132003, Note_on_c, 0, 69, 0
2, 132007, Note_on_c, 0, 69, 67
2, 132065, Note_on_c, 0, 76, 0
2, 132070, Note_on_c, 0, 76, 55
2, 132103, Note_on_c, 0, 81, 0
2, 132112, Note_on_c, 0, 81, 81
2, 132157, Note_on_c, 0, 57, 0
2, 132180, Note_on_c, 0, 76, 0
2, 132184, Note_on_c, 0, 76, 61
2, 132241, Note_on_c, 0, 69, 0
2, 132246, Note_on_c, 0, 69, 70
2, 132295, Note_on_c, 0, 76, 0
2, 132297, Control_c, 0, 64, 0
2, 132298, Note_on_c, 0, 52, 76
2, 132299, Note_on_c, 0, 69, 0
2, 132299, Note_on_c, 0, 81, 0
2, 132300, Note_on_c, 0, 62, 0
2, 132300, Note_on_c, 0, 66, 0
2, 132300, Note_on_c, 0, 76, 66
2, 132300, Note_on_c, 0, 93, 0
2, 132300, Note_on_c, 0, 88, 0
2, 132300, Note_on_c, 0, 71, 0
2, 132301, Note_on_c, 0, 100, 0
2, 132301, Note_on_c, 0, 64, 0
2, 132302, Note_on_c, 0, 54, 0
2, 132357, Control_c, 0, 64, 127
2, 132363, Note_on_c, 0, 59, 78
2, 132420, Note_on_c, 0, 68, 91
2, 132422, Note_on_c, 0, 71, 81
2, 132480, Note_on_c, 0, 76, 0
2, 132491, Note_on_c, 0, 76, 82
2, 132552, Note_on_c, 0, 83, 78
2, 132625, Note_on_c, 0, 83, 0
2, 132630, Note_on_c, 0, 83, 76
2, 132700, Note_on_c, 0, 95, 87
2, 132777, Note_on_c, 0, 88, 88
2, 132925, Note_on_c, 0, 50, 74
2, 132933, Note_on_c, 0, 83, 0
2, 132944, Note_on_c, 0, 83, 68
2, 132959, Note_on_c, 0, 81, 61
2, 132998, Note_on_c, 0, 52, 0
2, 132998, Note_on_c, 0, 68, 0
2, 132999, Note_on_c, 0, 81, 0
2, 132999, Note_on_c, 0, 76, 0
2, 132999, Note_on_c, 0, 88, 0
2, 133002, Note_on_c, 0, 59, 0
2, 133006, Control_c, 0, 64, 0
2, 133009, Note_on_c, 0, 59, 80
2, 133032, Note_on_c, 0, 71, 0
2, 133037, Note_on_c, 0, 71, 77
2, 133040, Note_on_c, 0, 66, 84
2, 133056, Control_c, 0, 64, 127
2, 133063, Note_on_c, 0, 83, 0
2, 133112, Note_on_c, 0, 78, 86
2, 133184, Note_on_c, 0, 83, 68
2, 133255, Note_on_c, 0, 83, 0
2, 133260, Note_on_c, 0, 83, 78
2, 133317, Note_on_c, 0, 95, 0
2, 133327, Note_on_c, 0, 95, 86
2, 133405, Note_on_c, 0, 90, 81
2, 133447, Note_on_c, 0, 83, 0
2, 133455, Note_on_c, 0, 83, 78
2, 133539, Note_on_c, 0, 83, 0
2, 133545, Note_on_c, 0, 83, 68
2, 133548, Note_on_c, 0, 49, 75
2, 133610, Note_on_c, 0, 56, 81
2, 133625, Control_c, 0, 64, 0
2, 133626, Note_on_c, 0, 95, 0
2, 133626, Note_on_c, 0, 90, 0
2, 133626, Note_on_c, 0, 66, 0
2, 133626, Note_on_c, 0, 50, 0
2, 133627, Note_on_c, 0, 71, 0
2, 133627, Note_on_c, 0, 78, 0
2, 133627, Note_on_c, 0, 59, 0
2, 133636, Note_on_c, 0, 61, 94
2, 133676, Note_on_c, 0, 65, 85
2, 133677, Note_on_c, 0, 71, 80
2, 133701, Control_c, 0, 64, 127
2, 133731, Note_on_c, 0, 49, 0
2, 133765, Note_on_c, 0, 77, 72
2, 133785, Note_on_c, 0, 83, 0
2, 133791, Note_on_c, 0, 83, 81
2, 133885, Note_on_c, 0, 83, 0
2, 133892, Note_on_c, 0, 83, 83
2, 133957, Note_on_c, 0, 95, 91
2, 133957, Note_on_c, 0, 80, 82
2, 134046, Note_on_c, 0, 83, 0
2, 134051, Note_on_c, 0, 83, 70
2, 134052, Note_on_c, 0, 89, 84
2, 134131, Note_on_c, 0, 77, 0
2, 134134, Note_on_c, 0, 92, 83
2, 134137, Note_on_c, 0, 77, 72
2, 134192, Note_on_c, 0, 85, 89
2, 134200, Note_on_c, 0, 80, 0
2, 134210, Note_on_c, 0, 80, 71
2, 134233, Note_on_c, 0, 73, 76
2, 134269, Note_on_c, 0, 89, 0
2, 134275, Note_on_c, 0, 89, 87
2, 134323, Note_on_c, 0, 77, 0
2, 134333, Note_on_c, 0, 77, 82
2, 134353, Note_on_c, 0, 83, 0
2, 134361, Note_on_c, 0, 83, 76
2, 134423, Note_on_c, 0, 71, 0
2, 134423, Note_on_c, 0, 85, 0
2, 134427, Note_on_c, 0, 71, 56
2, 134427, Note_on_c, 0, 85, 80
2, 134476, Note_on_c, 0, 80, 0
2, 134483, Note_on_c, 0, 80, 79
2, 134499, Note_on_c, 0, 73, 0
2, 134503, Note_on_c, 0, 73, 78
2, 134568, Note_on_c, 0, 83, 0
2, 134573, Note_on_c, 0, 83, 90
2, 134574, Note_on_c, 0, 68, 67
2, 134638, Note_on_c, 0, 71, 0
2, 134638, Note_on_c, 0, 77, 0
2, 134644, Note_on_c, 0, 71, 76
2, 134644, Note_on_c, 0, 77, 79
2, 134722, Note_on_c, 0, 65, 0
2, 134722, Note_on_c, 0, 80, 0
2, 134730, Note_on_c, 0, 80, 82
2, 134733, Note_on_c, 0, 65, 68
2, 134784, Note_on_c, 0, 73, 0
2, 134790, Note_on_c, 0, 73, 81
2, 134807, Note_on_c, 0, 68, 0
2, 134811, Note_on_c, 0, 68, 82
2, 134876, Note_on_c, 0, 61, 0
2, 134876, Note_on_c, 0, 77, 0
2, 134885, Note_on_c, 0, 77, 91
2, 134886, Note_on_c, 0, 61, 67
2, 134952, Note_on_c, 0, 65, 0
2, 134952, Note_on_c, 0, 71, 0
2, 134956, Note_on_c, 0, 65, 74
2, 134957, Note_on_c, 0, 71, 84
2, 135029, Note_on_c, 0, 73, 0
2, 135037, Note_on_c, 0, 73, 79
2, 135062, Note_on_c, 0, 59, 80
2, 135091, Note_on_c, 0, 68, 0
2, 135099, Note_on_c, 0, 68, 83
2, 135144, Note_on_c, 0, 61, 0
2, 135149, Note_on_c, 0, 61, 52
2, 135156, Note_on_c, 0, 49, 61
2, 135168, Note_on_c, 0, 56, 0
2, 135174, Note_on_c, 0, 56, 74
2, 135175, Note_on_c, 0, 71, 0
2, 135186, Note_on_c, 0, 71, 98
2, 135252, Note_on_c, 0, 59, 0
2, 135252, Note_on_c, 0, 65, 0
2, 135257, Note_on_c, 0, 65, 74
2, 135263, Note_on_c, 0, 59, 83
2, 135336, Note_on_c, 0, 68, 0
2, 135341, Note_on_c, 0, 68, 90
2, 135342, Note_on_c, 0, 53, 72
2, 135429, Note_on_c, 0, 56, 0
2, 135429, Note_on_c, 0, 61, 0
2, 135434, Note_on_c, 0, 61, 82
2, 135437, Note_on_c, 0, 56, 84
2, 135498, Note_on_c, 0, 49, 0
2, 135498, Note_on_c, 0, 73, 0
2, 135504, Note_on_c, 0, 73, 96
2, 135505, Note_on_c, 0, 49, 83
2, 135571, Note_on_c, 0, 55, 82
2, 135713, Note_on_c, 0, 73, 0
2, 135713, Note_on_c, 0, 77, 0
2, 135716, Note_on_c, 0, 81, 107
2, 135718, Note_on_c, 0, 77, 96
2, 135721, Note_on_c, 0, 69, 92
2, 135722, Note_on_c, 0, 73, 95
2, 135723, Note_on_c, 0, 44, 81
2, 135813, Note_on_c, 0, 49, 0
2, 135819, Note_on_c, 0, 49, 91
2, 135940, Note_on_c, 0, 41, 85
2, 136066, Note_on_c, 0, 44, 0
2, 136072, Note_on_c, 0, 44, 86
2, 136212, Note_on_c, 0, 95, 0
2, 136220, Note_on_c, 0, 68, 0
2, 136220, Note_on_c, 0, 80, 0
2, 136223, Note_on_c, 0, 77, 0
2, 136224, Note_on_c, 0, 41, 0
2, 136224, Note_on_c, 0, 71, 0
2, 136224, Note_on_c, 0, 56, 0
2, 136224, Note_on_c, 0, 85, 0
2, 136224, Note_on_c, 0, 73, 0
2, 136225, Note_on_c, 0, 65, 0
2, 136225, Note_on_c, 0, 80, 102
2, 136225, Note_on_c, 0, 81, 0
2, 136225, Control_c, 0, 64, 0
2, 136225, Note_on_c, 0, 44, 0
2, 136225, Note_on_c, 0, 61, 0
2, 136226, Note_on_c, 0, 89, 0
2, 136226, Note_on_c, 0, 83, 0
2, 136226, Note_on_c, 0, 69, 0
2, 136226, Note_on_c, 0, 49, 0
2, 136228, Note_on_c, 0, 53, 0
2, 136229, Note_on_c, 0, 37, 87
2, 136230, Note_on_c, 0, 59, 0
2, 136231, Note_on_c, 0, 68, 100
2, 136235, Note_on_c, 0, 55, 0
2, 136243, Note_on_c, 0, 92, 0
2, 136289, Control_c, 0, 64, 127
2, 136377, Note_on_c, 0, 49, 87
2, 136603, Note_on_c, 0, 80, 0
2, 136605, Note_on_c, 0, 49, 0
2, 136605, Note_on_c, 0, 68, 0
2, 136607, Control_c, 0, 64, 0
2, 136619, Note_on_c, 0, 37, 0
2, 136625, Note_on_c, 0, 81, 106
2, 136628, Note_on_c, 0, 69, 101
2, 136630, Note_on_c, 0, 73, 105
2, 136630, Note_on_c, 0, 76, 102
2, 136630, Note_on_c, 0, 30, 94
2, 136680, Control_c, 0, 64, 127
2, 136682, Note_on_c, 0, 30, 0
2, 137049, Note_on_c, 0, 69, 0
2, 137049, Note_on_c, 0, 76, 0
2, 137051, Note_on_c, 0, 54, 81
2, 137053, Note_on_c, 0, 76, 94
2, 137054, Note_on_c, 0, 57, 86
2, 137054, Note_on_c, 0, 64, 92
2, 137056, Note_on_c, 0, 69, 83
2, 137056, Note_on_c, 0, 49, 83
2, 137248, Note_on_c, 0, 74, 102
2, 137249, Note_on_c, 0, 62, 92
2, 137418, Note_on_c, 0, 54, 0
2, 137418, Note_on_c, 0, 57, 0
2, 137423, Note_on_c, 0, 54, 73
2, 137425, Note_on_c, 0, 61, 86
2, 137426, Note_on_c, 0, 57, 84
2, 137602, Note_on_c, 0, 57, 0
2, 137602, Note_on_c, 0, 81, 0
2, 137610, Note_on_c, 0, 69, 0
2, 137610, Note_on_c, 0, 73, 0
2, 137610, Note_on_c, 0, 76, 0
2, 137612, Note_on_c, 0, 57, 82
2, 137614, Note_on_c, 0, 81, 105
2, 137615, Note_on_c, 0, 69, 86
2, 137615, Note_on_c, 0, 76, 100
2, 137615, Note_on_c, 0, 73, 101
2, 137794, Note_on_c, 0, 57, 0
2, 137794, Note_on_c, 0, 61, 0
2, 137795, Note_on_c, 0, 54, 0
2, 137798, Note_on_c, 0, 66, 83
2, 137799, Note_on_c, 0, 61, 81
2, 137799, Note_on_c, 0, 57, 82
2, 137986, Note_on_c, 0, 74, 0
2, 137991, Note_on_c, 0, 86, 97
2, 137992, Note_on_c, 0, 83, 106
2, 137994, Note_on_c, 0, 74, 101
2, 137995, Note_on_c, 0, 78, 100
2, 137997, Note_on_c, 0, 71, 97
2, 138143, Note_on_c, 0, 69, 0
2, 138143, Control_c, 0, 64, 0
2, 138143, Note_on_c, 0, 76, 0
2, 138143, Note_on_c, 0, 57, 0
2, 138143, Note_on_c, 0, 81, 0
2, 138143, Note_on_c, 0, 62, 0
2, 138143, Note_on_c, 0, 61, 0
2, 138144, Note_on_c, 0, 66, 0
2, 138144, Note_on_c, 0, 73, 0
2, 138144, Note_on_c, 0, 71, 0
2, 138147, Note_on_c, 0, 49, 0
2, 138155, Note_on_c, 0, 64, 0
2, 138173, Note_on_c, 0, 38, 95
2, 138174, Note_on_c, 0, 26, 90
2, 138201, Control_c, 0, 64, 127
2, 138401, Note_on_c, 0, 78, 0
2, 138404, Note_on_c, 0, 85, 108
2, 138405, Note_on_c, 0, 81, 89
2, 138405, Note_on_c, 0, 73, 100
2, 138406, Note_on_c, 0, 78, 88
2, 138577, Note_on_c, 0, 54, 79
2, 138579, Note_on_c, 0, 50, 81
2, 138580, Note_on_c, 0, 57, 83
2, 138581, Note_on_c, 0, 62, 73
2, 138923, Note_on_c, 0, 54, 0
2, 138923, Note_on_c, 0, 57, 0
2, 138923, Note_on_c, 0, 62, 0
2, 138927, Note_on_c, 0, 57, 78
2, 138928, Note_on_c, 0, 54, 74
2, 138929, Note_on_c, 0, 62, 80
2, 139115, Note_on_c, 0, 81, 0
2, 139119, Note_on_c, 0, 81, 107
2, 139120, Note_on_c, 0, 69, 99
2, 139299, Note_on_c, 0, 57, 0
2, 139299, Note_on_c, 0, 62, 0
2, 139308, Note_on_c, 0, 66, 85
2, 139311, Note_on_c, 0, 62, 76
2, 139311, Note_on_c, 0, 57, 74
2, 139476, Note_on_c, 0, 69, 0
2, 139480, Note_on_c, 0, 80, 103
2, 139481, Note_on_c, 0, 68, 102
2, 139487, Note_on_c, 0, 69, 85
2, 139645, Note_on_c, 0, 26, 0
2, 139645, Note_on_c, 0, 83, 0
2, 139646, Note_on_c, 0, 80, 0
2, 139646, Note_on_c, 0, 73, 0
2, 139646, Note_on_c, 0, 68, 0
2, 139647, Control_c, 0, 64, 0
2, 139647, Note_on_c, 0, 54, 0
2, 139647, Note_on_c, 0, 62, 0
2, 139647, Note_on_c, 0, 78, 0
2, 139647, Note_on_c, 0, 66, 0
2, 139648, Note_on_c, 0, 85, 0
2, 139648, Note_on_c, 0, 57, 0
2, 139649, Note_on_c, 0, 50, 0
2, 139649, Note_on_c, 0, 74, 0
2, 139653, Note_on_c, 0, 38, 0
2, 139653, Note_on_c, 0, 69, 0
2, 139653, Note_on_c, 0, 86, 0
2, 139660, Note_on_c, 0, 81, 0
2, 139663, Note_on_c, 0, 40, 86
2, 139663, Note_on_c, 0, 28, 80
2, 139664, Note_on_c, 0, 69, 100
2, 139665, Note_on_c, 0, 81, 107
2, 139667, Note_on_c, 0, 71, 93
2, 139671, Note_on_c, 0, 76, 96
2, 139714, Control_c, 0, 64, 127
2, 139776, Note_on_c, 0, 28, 0
2, 140029, Note_on_c, 0, 76, 0
2, 140033, Note_on_c, 0, 68, 82
2, 140034, Note_on_c, 0, 56, 79
2, 140036, Note_on_c, 0, 76, 94
2, 140037, Note_on_c, 0, 52, 74
2, 140038, Note_on_c, 0, 47, 69
2, 140039, Note_on_c, 0, 64, 87
2, 140209, Note_on_c, 0, 74, 101
2, 140210, Note_on_c, 0, 62, 88
2, 140398, Note_on_c, 0, 52, 0
2, 140398, Note_on_c, 0, 56, 0
2, 140401, Note_on_c, 0, 59, 82
2, 140402, Note_on_c, 0, 52, 70
2, 140402, Note_on_c, 0, 56, 69
2, 140559, Note_on_c, 0, 81, 0
2, 140567, Note_on_c, 0, 69, 0
2, 140567, Note_on_c, 0, 71, 0
2, 140568, Note_on_c, 0, 81, 104
2, 140574, Note_on_c, 0, 76, 0
2, 140577, Note_on_c, 0, 69, 89
2, 140577, Note_on_c, 0, 71, 89
2, 140579, Note_on_c, 0, 76, 89
2, 140751, Note_on_c, 0, 56, 0
2, 140751, Note_on_c, 0, 59, 0
2, 140751, Note_on_c, 0, 64, 0
2, 140755, Note_on_c, 0, 64, 86
2, 140760, Note_on_c, 0, 56, 72
2, 140761, Note_on_c, 0, 59, 77
2, 140928, Note_on_c, 0, 71, 0
2, 140928, Note_on_c, 0, 76, 0
2, 140931, Note_on_c, 0, 83, 109
2, 140935, Note_on_c, 0, 69, 0
2, 140937, Note_on_c, 0, 71, 99
2, 140939, Note_on_c, 0, 76, 98
2, 140940, Note_on_c, 0, 80, 95
2, 140943, Note_on_c, 0, 69, 71
2, 141102, Note_on_c, 0, 62, 0
2, 141102, Note_on_c, 0, 47, 0
2, 141102, Note_on_c, 0, 74, 0
2, 141103, Note_on_c, 0, 81, 0
2, 141103, Note_on_c, 0, 52, 0
2, 141103, Note_on_c, 0, 64, 0
2, 141103, Note_on_c, 0, 59, 0
2, 141104, Note_on_c, 0, 56, 0
2, 141104, Control_c, 0, 64, 0
2, 141104, Note_on_c, 0, 68, 0
2, 141106, Note_on_c, 0, 69, 0
2, 141112, Note_on_c, 0, 40, 0
2, 141116, Note_on_c, 0, 33, 97
2, 141117, Note_on_c, 0, 45, 97
2, 141158, Control_c, 0, 64, 127
2, 141296, Note_on_c, 0, 76, 0
2, 141298, Note_on_c, 0, 85, 104
2, 141300, Note_on_c, 0, 73, 99
2, 141300, Note_on_c, 0, 81, 81
2, 141300, Note_on_c, 0, 76, 88
2, 141467, Note_on_c, 0, 52, 75
2, 141814, Note_on_c, 0, 64, 94
2, 141814, Note_on_c, 0, 61, 89
2, 141817, Note_on_c, 0, 57, 85
2, 141987, Note_on_c, 0, 81, 0
2, 141998, Note_on_c, 0, 81, 108
2, 141999, Note_on_c, 0, 69, 99
2, 142161, Note_on_c, 0, 32, 89
2, 142161, Note_on_c, 0, 44, 97
2, 142333, Note_on_c, 0, 80, 0
2, 142339, Note_on_c, 0, 80, 99
2, 142343, Note_on_c, 0, 68, 99
2, 142521, Note_on_c, 0, 45, 0
2, 142522, Note_on_c, 0, 52, 0
2, 142522, Note_on_c, 0, 80, 0
2, 142522, Note_on_c, 0, 32, 0
2, 142522, Note_on_c, 0, 57, 0
2, 142523, Note_on_c, 0, 68, 0
2, 142523, Note_on_c, 0, 85, 0
2, 142523, Note_on_c, 0, 61, 0
2, 142523, Note_on_c, 0, 44, 0
2, 142524, Note_on_c, 0, 64, 0
2, 142529, Control_c, 0, 64, 0
2, 142533, Note_on_c, 0, 33, 0
2, 142533, Note_on_c, 0, 83, 0
2, 142540, Note_on_c, 0, 69, 0
2, 142540, Note_on_c, 0, 71, 0
2, 142540, Note_on_c, 0, 73, 0
2, 142540, Note_on_c, 0, 81, 0
2, 142545, Note_on_c, 0, 81, 104
2, 142546, Note_on_c, 0, 69, 97
2, 142548, Note_on_c, 0, 76, 0
2, 142549, Note_on_c, 0, 30, 89
2, 142549, Note_on_c, 0, 42, 86
2, 142551, Note_on_c, 0, 73, 99
2, 142553, Note_on_c, 0, 76, 97
2, 142602, Control_c, 0, 64, 127
2, 142640, Note_on_c, 0, 30, 0
2, 142917, Note_on_c, 0, 69, 0
2, 142917, Note_on_c, 0, 76, 0
2, 142917, Note_on_c, 0, 54, 75
2, 142921, Note_on_c, 0, 57, 77
2, 142922, Note_on_c, 0, 76, 90
2, 142927, Note_on_c, 0, 64, 90
2, 142927, Note_on_c, 0, 69, 80
2, 142931, Note_on_c, 0, 49, 71
2, 143097, Note_on_c, 0, 86, 88
2, 143098, Note_on_c, 0, 74, 98
2, 143100, Note_on_c, 0, 62, 89
2, 143270, Note_on_c, 0, 42, 0
2, 143270, Note_on_c, 0, 54, 0
2, 143270, Note_on_c, 0, 57, 0
2, 143275, Note_on_c, 0, 61, 84
2, 143276, Note_on_c, 0, 42, 75
2, 143281, Note_on_c, 0, 54, 79
2, 143281, Note_on_c, 0, 57, 80
2, 143454, Note_on_c, 0, 69, 0
2, 143454, Note_on_c, 0, 73, 0
2, 143454, Note_on_c, 0, 76, 0
2, 143454, Note_on_c, 0, 81, 0
2, 143461, Note_on_c, 0, 81, 105
2, 143465, Note_on_c, 0, 69, 87
2, 143465, Note_on_c, 0, 73, 97
2, 143466, Note_on_c, 0, 76, 95
2, 143639, Note_on_c, 0, 57, 0
2, 143639, Note_on_c, 0, 61, 0
2, 143643, Note_on_c, 0, 66, 81
2, 143647, Note_on_c, 0, 61, 81
2, 143649, Note_on_c, 0, 57, 76
2, 143815, Note_on_c, 0, 86, 0
2, 143823, Note_on_c, 0, 74, 0
2, 143826, Note_on_c, 0, 86, 94
2, 143827, Note_on_c, 0, 83, 102
2, 143827, Note_on_c, 0, 74, 97
2, 143827, Note_on_c, 0, 78, 100
2, 143827, Note_on_c, 0, 95, 95
2, 143832, Note_on_c, 0, 71, 90
2, 143834, Note_on_c, 0, 90, 95
2, 143838, Note_on_c, 0, 90, 0
2, 143838, Note_on_c, 0, 95, 0
2, 143846, Note_on_c, 0, 69, 0
2, 143852, Note_on_c, 0, 69, 59
2, 143988, Control_c, 0, 64, 0
2, 143992, Note_on_c, 0, 54, 0
2, 143992, Note_on_c, 0, 61, 0
2, 143992, Note_on_c, 0, 57, 0
2, 143993, Note_on_c, 0, 62, 0
2, 143993, Note_on_c, 0, 64, 0
2, 143993, Note_on_c, 0, 73, 0
2, 143993, Note_on_c, 0, 76, 0
2, 143993, Note_on_c, 0, 66, 0
2, 143993, Note_on_c, 0, 69, 0
2, 143993, Note_on_c, 0, 81, 0
2, 143994, Note_on_c, 0, 71, 0
2, 143994, Note_on_c, 0, 49, 0
2, 143995, Note_on_c, 0, 86, 0
2, 143997, Note_on_c, 0, 42, 0
2, 144005, Note_on_c, 0, 38, 86
2, 144006, Note_on_c, 0, 26, 83
2, 144053, Control_c, 0, 64, 127
2, 144199, Note_on_c, 0, 78, 0
2, 144203, Note_on_c, 0, 85, 104
2, 144204, Note_on_c, 0, 81, 88
2, 144205, Note_on_c, 0, 73, 101
2, 144210, Note_on_c, 0, 78, 84
2, 144378, Note_on_c, 0, 50, 75
2, 144379, Note_on_c, 0, 54, 71
2, 144379, Note_on_c, 0, 57, 82
2, 144381, Note_on_c, 0, 62, 70
2, 144737, Note_on_c, 0, 54, 0
2, 144737, Note_on_c, 0, 62, 0
2, 144737, Note_on_c, 0, 81, 0
2, 144741, Note_on_c, 0, 81, 102
2, 144741, Note_on_c, 0, 69, 91
2, 144743, Note_on_c, 0, 62, 75
2, 144744, Note_on_c, 0, 54, 75
2, 144913, Note_on_c, 0, 83, 0
2, 144919, Note_on_c, 0, 83, 106
2, 144921, Note_on_c, 0, 71, 96
2, 145082, Note_on_c, 0, 54, 0
2, 145082, Note_on_c, 0, 57, 0
2, 145082, Note_on_c, 0, 62, 0
2, 145086, Note_on_c, 0, 66, 74
2, 145087, Note_on_c, 0, 54, 63
2, 145090, Note_on_c, 0, 62, 68
2, 145092, Note_on_c, 0, 57, 70
2, 145267, Note_on_c, 0, 81, 0
2, 145271, Note_on_c, 0, 81, 99
2, 145274, Note_on_c, 0, 69, 0
2, 145274, Note_on_c, 0, 71, 0
2, 145278, Note_on_c, 0, 71, 84
2, 145278, Note_on_c, 0, 69, 83
2, 145279, Note_on_c, 0, 76, 90
2, 145380, Note_on_c, 0, 54, 0
2, 145380, Note_on_c, 0, 50, 0
2, 145380, Note_on_c, 0, 83, 0
2, 145380, Note_on_c, 0, 62, 0
2, 145381, Note_on_c, 0, 57, 0
2, 145381, Note_on_c, 0, 74, 0
2, 145381, Note_on_c, 0, 66, 0
2, 145381, Control_c, 0, 64, 0
2, 145381, Note_on_c, 0, 85, 0
2, 145382, Note_on_c, 0, 78, 0
2, 145382, Note_on_c, 0, 73, 0
2, 145397, Note_on_c, 0, 26, 0
2, 145397, Note_on_c, 0, 38, 0
2, 145431, Note_on_c, 0, 28, 84
2, 145431, Note_on_c, 0, 40, 80
2, 145451, Control_c, 0, 64, 127
2, 145623, Note_on_c, 0, 74, 92
2, 145624, Note_on_c, 0, 68, 72
2, 145625, Note_on_c, 0, 62, 83
2, 145805, Note_on_c, 0, 56, 75
2, 145805, Note_on_c, 0, 47, 61
2, 145808, Note_on_c, 0, 52, 65
2, 145987, Note_on_c, 0, 73, 97
2, 145992, Note_on_c, 0, 61, 83
2, 146115, Note_on_c, 0, 62, 0
2, 146115, Note_on_c, 0, 76, 0
2, 146115, Note_on_c, 0, 74, 0
2, 146116, Control_c, 0, 64, 0
2, 146116, Note_on_c, 0, 56, 0
2, 146116, Note_on_c, 0, 47, 0
2, 146118, Note_on_c, 0, 68, 0
2, 146127, Note_on_c, 0, 28, 0
2, 146127, Note_on_c, 0, 81, 0
2, 146135, Note_on_c, 0, 69, 0
2, 146150, Control_c, 0, 64, 127
2, 146158, Note_on_c, 0, 52, 0
2, 146164, Note_on_c, 0, 59, 75
2, 146164, Note_on_c, 0, 56, 73
2, 146166, Note_on_c, 0, 52, 63
2, 146350, Note_on_c, 0, 59, 0
2, 146350, Note_on_c, 0, 71, 0
2, 146354, Note_on_c, 0, 71, 94
2, 146355, Note_on_c, 0, 59, 85
2, 146519, Note_on_c, 0, 56, 0
2, 146523, Note_on_c, 0, 64, 71
2, 146526, Note_on_c, 0, 68, 72
2, 146526, Note_on_c, 0, 59, 0
2, 146530, Note_on_c, 0, 56, 75
2, 146531, Note_on_c, 0, 59, 65
2, 146688, Note_on_c, 0, 61, 0
2, 146695, Note_on_c, 0, 71, 0
2, 146703, Note_on_c, 0, 59, 0
2, 146704, Note_on_c, 0, 71, 98
2, 146707, Note_on_c, 0, 59, 82
2, 146857, Note_on_c, 0, 68, 0
2, 146857, Note_on_c, 0, 52, 0
2, 146858, Note_on_c, 0, 64, 0
2, 146858, Note_on_c, 0, 56, 0
2, 146860, Control_c, 0, 64, 0
2, 146872, Note_on_c, 0, 73, 0
2, 146876, Note_on_c, 0, 33, 75
2, 146918, Control_c, 0, 64, 127
2, 147062, Note_on_c, 0, 69, 90
2, 147067, Note_on_c, 0, 57, 77
2, 147233, Note_on_c, 0, 57, 0
2, 147233, Note_on_c, 0, 69, 0
2, 147237, Note_on_c, 0, 69, 83
2, 147242, Note_on_c, 0, 57, 79
2, 147244, Note_on_c, 0, 61, 76
2, 147245, Note_on_c, 0, 52, 77
2, 147609, Note_on_c, 0, 57, 0
2, 147609, Note_on_c, 0, 61, 0
2, 147614, Note_on_c, 0, 64, 92
2, 147616, Note_on_c, 0, 61, 82
2, 147617, Note_on_c, 0, 69, 0
2, 147618, Note_on_c, 0, 57, 71
2, 147623, Note_on_c, 0, 69, 74
2, 147803, Note_on_c, 0, 93, 111
2, 147805, Note_on_c, 0, 81, 104
2, 148001, Note_on_c, 0, 59, 0
2, 148008, Control_c, 0, 64, 0
2, 148011, Note_on_c, 0, 64, 0
2, 148011, Note_on_c, 0, 52, 0
2, 148011, Note_on_c, 0, 61, 0
2, 148012, Note_on_c, 0, 69, 0
2, 148012, Note_on_c, 0, 57, 0
2, 148016, Note_on_c, 0, 71, 0
2, 148018, Note_on_c, 0, 32, 79
2, 148019, Note_on_c, 0, 44, 85
2, 148032, Note_on_c, 0, 33, 0
2, 148032, Note_on_c, 0, 40, 0
2, 148070, Control_c, 0, 64, 127
2, 148212, Note_on_c, 0, 92, 102
2, 148218, Note_on_c, 0, 80, 95
2, 148239, Note_on_c, 0, 81, 0
2, 148243, Note_on_c, 0, 81, 60
2, 148439, Note_on_c, 0, 32, 0
2, 148439, Note_on_c, 0, 93, 0
2, 148441, Note_on_c, 0, 80, 0
2, 148441, Note_on_c, 0, 92, 0
2, 148441, Control_c, 0, 64, 0
2, 148446, Note_on_c, 0, 81, 0
2, 148450, Note_on_c, 0, 93, 110
2, 148450, Note_on_c, 0, 88, 103
2, 148450, Note_on_c, 0, 42, 82
2, 148451, Note_on_c, 0, 85, 103
2, 148452, Note_on_c, 0, 81, 101
2, 148462, Note_on_c, 0, 44, 0
2, 148508, Control_c, 0, 64, 127
2, 148555, Note_on_c, 0, 49, 45
2, 148649, Note_on_c, 0, 54, 76
2, 148712, Note_on_c, 0, 57, 63
2, 148823, Note_on_c, 0, 81, 0
2, 148823, Note_on_c, 0, 88, 0
2, 148828, Note_on_c, 0, 88, 94
2, 148830, Note_on_c, 0, 81, 71
2, 148834, Note_on_c, 0, 76, 88
2, 148835, Note_on_c, 0, 69, 63
2, 148915, Note_on_c, 0, 66, 66
2, 148961, Note_on_c, 0, 69, 0
2, 148968, Note_on_c, 0, 69, 73
2, 148994, Note_on_c, 0, 86, 101
2, 148995, Note_on_c, 0, 74, 89
2, 149078, Note_on_c, 0, 73, 82
2, 149180, Note_on_c, 0, 78, 88
2, 149237, Note_on_c, 0, 73, 0
2, 149243, Note_on_c, 0, 73, 87
2, 149345, Note_on_c, 0, 69, 0
2, 149345, Note_on_c, 0, 85, 0
2, 149345, Note_on_c, 0, 88, 0
2, 149345, Note_on_c, 0, 93, 0
2, 149351, Note_on_c, 0, 69, 92
2, 149352, Note_on_c, 0, 93, 108
2, 149352, Note_on_c, 0, 81, 0
2, 149356, Note_on_c, 0, 88, 95
2, 149356, Note_on_c, 0, 85, 104
2, 149356, Note_on_c, 0, 81, 97
2, 149429, Note_on_c, 0, 66, 0
2, 149438, Note_on_c, 0, 66, 77
2, 149510, Note_on_c, 0, 61, 76
2, 149606, Note_on_c, 0, 57, 0
2, 149616, Note_on_c, 0, 57, 77
2, 149698, Note_on_c, 0, 86, 0
2, 149706, Note_on_c, 0, 54, 0
2, 149709, Note_on_c, 0, 86, 104
2, 149709, Note_on_c, 0, 95, 108
2, 149711, Note_on_c, 0, 54, 74
2, 149716, Note_on_c, 0, 83, 97
2, 149717, Note_on_c, 0, 90, 96
2, 149752, Note_on_c, 0, 49, 0
2, 149763, Note_on_c, 0, 49, 83
2, 149878, Note_on_c, 0, 38, 85
2, 149886, Control_c, 0, 64, 0
2, 149887, Note_on_c, 0, 69, 0
2, 149887, Note_on_c, 0, 81, 0
2, 149887, Note_on_c, 0, 93, 0
2, 149887, Note_on_c, 0, 73, 0
2, 149887, Note_on_c, 0, 61, 0
2, 149887, Note_on_c, 0, 54, 0
2, 149887, Note_on_c, 0, 76, 0
2, 149887, Note_on_c, 0, 66, 0
2, 149887, Note_on_c, 0, 74, 0
2, 149887, Note_on_c, 0, 42, 0
2, 149887, Note_on_c, 0, 85, 0
2, 149887, Note_on_c, 0, 57, 0
2, 149888, Note_on_c, 0, 78, 0
2, 149888, Note_on_c, 0, 88, 0
2, 149905, Note_on_c, 0, 49, 0
2, 149959, Control_c, 0, 64, 127
2, 149998, Note_on_c, 0, 45, 69
2, 150067, Note_on_c, 0, 83, 0
2, 150071, Note_on_c, 0, 50, 79
2, 150073, Note_on_c, 0, 97, 109
2, 150077, Note_on_c, 0, 93, 81
2, 150079, Note_on_c, 0, 85, 100
2, 150154, Note_on_c, 0, 54, 78
2, 150255, Note_on_c, 0, 57, 72
2, 150274, Note_on_c, 0, 90, 0
2, 150332, Note_on_c, 0, 62, 72
2, 150430, Note_on_c, 0, 66, 77
2, 150502, Note_on_c, 0, 69, 73
2, 150581, Note_on_c, 0, 86, 0
2, 150589, Note_on_c, 0, 74, 88
2, 150590, Note_on_c, 0, 86, 81
2, 150666, Note_on_c, 0, 69, 0
2, 150671, Note_on_c, 0, 69, 79
2, 150743, Note_on_c, 0, 66, 0
2, 150743, Note_on_c, 0, 93, 0
2, 150747, Note_on_c, 0, 93, 110
2, 150753, Note_on_c, 0, 66, 84
2, 150754, Note_on_c, 0, 81, 102
2, 150835, Note_on_c, 0, 62, 0
2, 150843, Note_on_c, 0, 62, 78
2, 150912, Note_on_c, 0, 57, 0
2, 150922, Note_on_c, 0, 57, 75
2, 150996, Note_on_c, 0, 54, 0
2, 151002, Note_on_c, 0, 54, 77
2, 151096, Note_on_c, 0, 50, 0
2, 151100, Note_on_c, 0, 92, 101
2, 151103, Note_on_c, 0, 50, 75
2, 151106, Note_on_c, 0, 80, 94
2, 151180, Note_on_c, 0, 45, 0
2, 151186, Note_on_c, 0, 45, 71
2, 151257, Note_on_c, 0, 92, 0
2, 151258, Note_on_c, 0, 45, 0
2, 151258, Note_on_c, 0, 80, 0
2, 151258, Note_on_c, 0, 86, 0
2, 151258, Control_c, 0, 64, 0
2, 151259, Note_on_c, 0, 38, 0
2, 151259, Note_on_c, 0, 74, 0
2, 151259, Note_on_c, 0, 62, 0
2, 151259, Note_on_c, 0, 54, 0
2, 151259, Note_on_c, 0, 97, 0
2, 151260, Note_on_c, 0, 85, 0
2, 151260, Note_on_c, 0, 66, 0
2, 151265, Note_on_c, 0, 95, 0
2, 151272, Note_on_c, 0, 50, 0
2, 151272, Note_on_c, 0, 57, 0
2, 151272, Note_on_c, 0, 69, 0
2, 151280, Note_on_c, 0, 81, 0
2, 151280, Note_on_c, 0, 93, 0
2, 151285, Note_on_c, 0, 93, 111
2, 151286, Note_on_c, 0, 40, 76
2, 151291, Note_on_c, 0, 81, 102
2, 151292, Note_on_c, 0, 83, 92
2, 151294, Note_on_c, 0, 88, 98
2, 151334, Control_c, 0, 64, 127
2, 151377, Note_on_c, 0, 47, 70
2, 151435, Note_on_c, 0, 52, 76
2, 151537, Note_on_c, 0, 56, 70
2, 151620, Note_on_c, 0, 59, 73
2, 151649, Note_on_c, 0, 88, 0
2, 151655, Note_on_c, 0, 88, 97
2, 151660, Note_on_c, 0, 76, 91
2, 151699, Note_on_c, 0, 64, 75
2, 151815, Note_on_c, 0, 68, 78
2, 151817, Note_on_c, 0, 86, 102
2, 151820, Note_on_c, 0, 74, 84
2, 151887, Note_on_c, 0, 59, 0
2, 151896, Note_on_c, 0, 71, 67
2, 151897, Note_on_c, 0, 59, 61
2, 151979, Note_on_c, 0, 76, 0
2, 151990, Note_on_c, 0, 76, 83
2, 152056, Note_on_c, 0, 71, 0
2, 152066, Note_on_c, 0, 71, 80
2, 152133, Note_on_c, 0, 93, 0
2, 152140, Note_on_c, 0, 68, 0
2, 152148, Note_on_c, 0, 68, 86
2, 152156, Note_on_c, 0, 81, 0
2, 152160, Note_on_c, 0, 93, 107
2, 152163, Note_on_c, 0, 83, 0
2, 152163, Note_on_c, 0, 88, 0
2, 152166, Note_on_c, 0, 81, 98
2, 152167, Note_on_c, 0, 83, 89
2, 152167, Note_on_c, 0, 88, 95
2, 152248, Note_on_c, 0, 64, 0
2, 152254, Note_on_c, 0, 64, 75
2, 152325, Note_on_c, 0, 59, 0
2, 152336, Note_on_c, 0, 59, 71
2, 152394, Note_on_c, 0, 56, 0
2, 152405, Note_on_c, 0, 56, 85
2, 152494, Note_on_c, 0, 83, 0
2, 152501, Note_on_c, 0, 40, 0
2, 152501, Note_on_c, 0, 52, 0
2, 152501, Note_on_c, 0, 88, 0
2, 152503, Note_on_c, 0, 95, 108
2, 152504, Note_on_c, 0, 83, 99
2, 152505, Note_on_c, 0, 92, 91
2, 152505, Note_on_c, 0, 52, 83
2, 152507, Note_on_c, 0, 40, 72
2, 152508, Note_on_c, 0, 88, 95
2, 152578, Note_on_c, 0, 47, 0
2, 152589, Note_on_c, 0, 47, 75
2, 152680, Note_on_c, 0, 45, 85
2, 152682, Note_on_c, 0, 74, 0
2, 152682, Note_on_c, 0, 93, 0
2, 152682, Note_on_c, 0, 52, 0
2, 152682, Note_on_c, 0, 86, 0
2, 152683, Note_on_c, 0, 40, 0
2, 152683, Note_on_c, 0, 59, 0
2, 152683, Note_on_c, 0, 71, 0
2, 152683, Note_on_c, 0, 92, 0
2, 152683, Note_on_c, 0, 88, 0
2, 152683, Note_on_c, 0, 68, 0
2, 152683, Note_on_c, 0, 64, 0
2, 152683, Note_on_c, 0, 83, 0
2, 152683, Note_on_c, 0, 95, 0
2, 152683, Note_on_c, 0, 76, 0
2, 152685, Control_c, 0, 64, 0
2, 152693, Note_on_c, 0, 56, 0
2, 152693, Note_on_c, 0, 81, 0
2, 152701, Note_on_c, 0, 47, 0
2, 152770, Control_c, 0, 64, 127
2, 152778, Note_on_c, 0, 52, 81
2, 152866, Note_on_c, 0, 97, 108
2, 152868, Note_on_c, 0, 88, 89
2, 152868, Note_on_c, 0, 85, 105
2, 152871, Note_on_c, 0, 93, 89
2, 152875, Note_on_c, 0, 57, 78
2, 152949, Note_on_c, 0, 61, 77
2, 153049, Note_on_c, 0, 64, 77
2, 153132, Note_on_c, 0, 69, 74
2, 153228, Note_on_c, 0, 73, 75
2, 153304, Note_on_c, 0, 76, 70
2, 153390, Note_on_c, 0, 81, 86
2, 153469, Note_on_c, 0, 76, 0
2, 153479, Note_on_c, 0, 76, 74
2, 153530, Note_on_c, 0, 73, 0
2, 153535, Note_on_c, 0, 73, 83
2, 153576, Note_on_c, 0, 81, 0
2, 153576, Note_on_c, 0, 93, 0
2, 153582, Note_on_c, 0, 93, 111
2, 153587, Note_on_c, 0, 81, 101
2, 153623, Note_on_c, 0, 69, 0
2, 153630, Note_on_c, 0, 69, 75
2, 153707, Note_on_c, 0, 64, 0
2, 153711, Note_on_c, 0, 64, 69
2, 153784, Note_on_c, 0, 61, 0
2, 153788, Note_on_c, 0, 61, 81
2, 153899, Note_on_c, 0, 57, 0
2, 153904, Note_on_c, 0, 92, 98
2, 153907, Note_on_c, 0, 57, 69
2, 153909, Note_on_c, 0, 80, 93
2, 153976, Note_on_c, 0, 52, 0
2, 153986, Note_on_c, 0, 52, 76
2, 154062, Note_on_c, 0, 92, 0
2, 154062, Note_on_c, 0, 52, 0
2, 154062, Note_on_c, 0, 80, 0
2, 154062, Note_on_c, 0, 69, 0
2, 154062, Control_c, 0, 64, 0
2, 154063, Note_on_c, 0, 64, 0
2, 154063, Note_on_c, 0, 97, 0
2, 154063, Note_on_c, 0, 57, 0
2, 154063, Note_on_c, 0, 73, 0
2, 154063, Note_on_c, 0, 61, 0
2, 154063, Note_on_c, 0, 76, 0
2, 154068, Note_on_c, 0, 45, 0
2, 154076, Note_on_c, 0, 81, 0
2, 154076, Note_on_c, 0, 85, 0
2, 154076, Note_on_c, 0, 88, 0
2, 154076, Note_on_c, 0, 93, 0
2, 154081, Note_on_c, 0, 42, 83
2, 154082, Note_on_c, 0, 93, 109
2, 154086, Note_on_c, 0, 88, 100
2, 154087, Note_on_c, 0, 85, 103
2, 154087, Note_on_c, 0, 81, 102
2, 154129, Control_c, 0, 64, 127
2, 154180, Note_on_c, 0, 49, 63
2, 154247, Note_on_c, 0, 54, 77
2, 154311, Note_on_c, 0, 57, 76
2, 154415, Note_on_c, 0, 61, 63
2, 154437, Note_on_c, 0, 88, 0
2, 154441, Note_on_c, 0, 88, 93
2, 154444, Note_on_c, 0, 76, 85
2, 154488, Note_on_c, 0, 66, 69
2, 154567, Note_on_c, 0, 69, 70
2, 154600, Note_on_c, 0, 86, 104
2, 154601, Note_on_c, 0, 74, 90
2, 154679, Note_on_c, 0, 73, 78
2, 154779, Note_on_c, 0, 78, 89
2, 154844, Note_on_c, 0, 73, 0
2, 154851, Note_on_c, 0, 73, 88
2, 154944, Note_on_c, 0, 93, 0
2, 154951, Note_on_c, 0, 69, 0
2, 154951, Note_on_c, 0, 81, 0
2, 154951, Note_on_c, 0, 85, 0
2, 154951, Note_on_c, 0, 88, 0
2, 154955, Note_on_c, 0, 93, 105
2, 154955, Note_on_c, 0, 69, 92
2, 154955, Note_on_c, 0, 88, 90
2, 154956, Note_on_c, 0, 85, 100
2, 154958, Note_on_c, 0, 81, 93
2, 155036, Note_on_c, 0, 66, 0
2, 155046, Note_on_c, 0, 66, 77
2, 155112, Note_on_c, 0, 61, 0
2, 155117, Note_on_c, 0, 61, 83
2, 155220, Note_on_c, 0, 57, 0
2, 155227, Note_on_c, 0, 57, 76
2, 155297, Note_on_c, 0, 86, 0
2, 155304, Note_on_c, 0, 54, 0
2, 155306, Note_on_c, 0, 86, 103
2, 155308, Note_on_c, 0, 95, 104
2, 155311, Note_on_c, 0, 54, 82
2, 155313, Note_on_c, 0, 90, 94
2, 155316, Note_on_c, 0, 83, 96
2, 155476, Note_on_c, 0, 38, 76
2, 155479, Note_on_c, 0, 76, 0
2, 155480, Note_on_c, 0, 49, 0
2, 155480, Note_on_c, 0, 95, 0
2, 155480, Note_on_c, 0, 61, 0
2, 155480, Note_on_c, 0, 83, 0
2, 155480, Note_on_c, 0, 69, 0
2, 155480, Note_on_c, 0, 81, 0
2, 155480, Note_on_c, 0, 93, 0
2, 155480, Note_on_c, 0, 73, 0
2, 155480, Note_on_c, 0, 54, 0
2, 155481, Note_on_c, 0, 78, 0
2, 155481, Note_on_c, 0, 85, 0
2, 155481, Note_on_c, 0, 57, 0
2, 155481, Note_on_c, 0, 74, 0
2, 155481, Note_on_c, 0, 88, 0
2, 155482, Note_on_c, 0, 66, 0
2, 155482, Note_on_c, 0, 90, 0
2, 155483, Control_c, 0, 64, 0
2, 155489, Note_on_c, 0, 42, 0
2, 155543, Note_on_c, 0, 86, 0
2, 155550, Control_c, 0, 64, 127
2, 155583, Note_on_c, 0, 45, 78
2, 155665, Note_on_c, 0, 45, 0
2, 155668, Note_on_c, 0, 93, 85
2, 155668, Note_on_c, 0, 97, 108
2, 155671, Note_on_c, 0, 50, 76
2, 155671, Note_on_c, 0, 45, 65
2, 155673, Note_on_c, 0, 85, 102
2, 155677, Note_on_c, 0, 90, 86
2, 155751, Note_on_c, 0, 54, 75
2, 155837, Note_on_c, 0, 57, 77
2, 155942, Note_on_c, 0, 93, 0
2, 155949, Note_on_c, 0, 93, 59
2, 156017, Note_on_c, 0, 66, 73
2, 156098, Note_on_c, 0, 69, 76
2, 156188, Note_on_c, 0, 93, 0
2, 156194, Note_on_c, 0, 93, 108
2, 156199, Note_on_c, 0, 81, 99
2, 156199, Note_on_c, 0, 74, 88
2, 156280, Note_on_c, 0, 69, 0
2, 156290, Note_on_c, 0, 69, 63
2, 156372, Note_on_c, 0, 66, 0
2, 156383, Note_on_c, 0, 66, 78
2, 156492, Note_on_c, 0, 62, 79
2, 156610, Note_on_c, 0, 57, 0
2, 156618, Note_on_c, 0, 69, 0
2, 156619, Note_on_c, 0, 57, 79
2, 156626, Note_on_c, 0, 69, 81
2, 156629, Note_on_c, 0, 95, 107
2, 156631, Note_on_c, 0, 83, 99
2, 156718, Note_on_c, 0, 54, 0
2, 156729, Note_on_c, 0, 54, 83
2, 156856, Note_on_c, 0, 50, 0
2, 156861, Note_on_c, 0, 50, 71
2, 156971, Note_on_c, 0, 45, 0
2, 156976, Note_on_c, 0, 45, 74
2, 157201, Note_on_c, 0, 83, 0
2, 157201, Note_on_c, 0, 95, 0
2, 157209, Note_on_c, 0, 95, 106
2, 157212, Control_c, 0, 64, 0
2, 157213, Note_on_c, 0, 83, 104
2, 157213, Note_on_c, 0, 92, 97
2, 157213, Note_on_c, 0, 81, 0
2, 157213, Note_on_c, 0, 93, 0
2, 157214, Note_on_c, 0, 62, 0
2, 157214, Note_on_c, 0, 85, 0
2, 157214, Note_on_c, 0, 69, 0
2, 157215, Note_on_c, 0, 45, 0
2, 157215, Note_on_c, 0, 54, 0
2, 157215, Note_on_c, 0, 74, 0
2, 157215, Note_on_c, 0, 50, 0
2, 157215, Note_on_c, 0, 38, 0
2, 157215, Note_on_c, 0, 66, 0
2, 157216, Note_on_c, 0, 90, 0
2, 157216, Note_on_c, 0, 57, 0
2, 157219, Note_on_c, 0, 88, 99
2, 157220, Note_on_c, 0, 40, 81
2, 157220, Note_on_c, 0, 28, 84
2, 157232, Note_on_c, 0, 97, 0
2, 157340, Control_c, 0, 64, 127
2, 157777, Note_on_c, 0, 40, 0
2, 157784, Note_on_c, 0, 40, 67
2, 157788, Note_on_c, 0, 47, 61
2, 157957, Note_on_c, 0, 52, 66
2, 157958, Note_on_c, 0, 44, 59
2, 158085, Note_on_c, 0, 47, 0
2, 158085, Note_on_c, 0, 56, 74
2, 158092, Note_on_c, 0, 47, 55
2, 158146, Note_on_c, 0, 52, 0
2, 158152, Note_on_c, 0, 52, 53
2, 158193, Note_on_c, 0, 59, 68
2, 158246, Note_on_c, 0, 56, 0
2, 158254, Note_on_c, 0, 56, 66
2, 158261, Note_on_c, 0, 52, 0
2, 158272, Note_on_c, 0, 64, 70
2, 158273, Note_on_c, 0, 52, 55
2, 158307, Note_on_c, 0, 59, 0
2, 158318, Note_on_c, 0, 59, 70
2, 158320, Note_on_c, 0, 68, 77
2, 158405, Note_on_c, 0, 71, 67
2, 158446, Note_on_c, 0, 68, 0
2, 158453, Note_on_c, 0, 68, 73
2, 158473, Note_on_c, 0, 76, 75
2, 158515, Note_on_c, 0, 71, 0
2, 158518, Note_on_c, 0, 80, 81
2, 158519, Note_on_c, 0, 71, 63
2, 158599, Note_on_c, 0, 83, 0
2, 158606, Note_on_c, 0, 83, 62
2, 158653, Note_on_c, 0, 88, 0
2, 158661, Note_on_c, 0, 80, 0
2, 158662, Note_on_c, 0, 88, 81
2, 158666, Note_on_c, 0, 80, 83
2, 158722, Note_on_c, 0, 83, 0
2, 158722, Note_on_c, 0, 92, 0
2, 158722, Note_on_c, 0, 95, 0
2, 158731, Note_on_c, 0, 92, 72
2, 158732, Note_on_c, 0, 83, 78
2, 158733, Note_on_c, 0, 95, 68
2, 158807, Note_on_c, 0, 88, 0
2, 158807, Note_on_c, 0, 95, 0
2, 158814, Note_on_c, 0, 88, 77
2, 158815, Note_on_c, 0, 95, 81
2, 158914, Note_on_c, 0, 92, 0
2, 158918, Note_on_c, 0, 100, 106
2, 158923, Note_on_c, 0, 92, 97
2, 159360, Note_on_c, 0, 28, 0
2, 162393, Note_on_c, 0, 40, 0
2, 162570, Note_on_c, 0, 44, 0
2, 162700, Note_on_c, 0, 47, 0
2, 162862, Note_on_c, 0, 56, 0
2, 162877, Note_on_c, 0, 52, 0
2, 162877, Note_on_c, 0, 64, 0
2, 162923, Note_on_c, 0, 59, 0
2, 163061, Note_on_c, 0, 68, 0
2, 163084, Note_on_c, 0, 76, 0
2, 163130, Note_on_c, 0, 71, 0
2, 163178, Note_on_c, 0, 88, 0
2, 163200, Note_on_c, 0, 80, 0
2, 163200, Note_on_c, 0, 83, 0
2, 163200, Note_on_c, 0, 92, 0
2, 163200, Note_on_c, 0, 95, 0
2, 163200, Note_on_c, 0, 100, 0
2, 163330, Control_c, 0, 64, 0
2, 164736, Control_c, 0, 64, 127
2, 164775, Note_on_c, 0, 93, 78
2, 164779, Note_on_c, 0, 81, 69
2, 164948, Note_on_c, 0, 92, 81
2, 164962, Note_on_c, 0, 54, 48
2, 164970, Note_on_c, 0, 80, 66
2, 165134, Note_on_c, 0, 61, 53
2, 165286, Note_on_c, 0, 88, 83
2, 165291, Note_on_c, 0, 50, 55
2, 165312, Note_on_c, 0, 76, 60
2, 165312, Note_on_c, 0, 92, 0
2, 165312, Note_on_c, 0, 61, 0
2, 165314, Note_on_c, 0, 80, 0
2, 165314, Note_on_c, 0, 81, 0
2, 165315, Note_on_c, 0, 93, 0
2, 165315, Note_on_c, 0, 54, 0
2, 165315, Control_c, 0, 64, 0
2, 165373, Control_c, 0, 64, 127
2, 165465, Note_on_c, 0, 57, 60
2, 165621, Note_on_c, 0, 85, 85
2, 165629, Note_on_c, 0, 73, 71
2, 165630, Note_on_c, 0, 62, 55
2, 165773, Note_on_c, 0, 66, 48
2, 165947, Note_on_c, 0, 83, 80
2, 165957, Note_on_c, 0, 80, 70
2, 165960, Note_on_c, 0, 88, 0
2, 165960, Note_on_c, 0, 52, 56
2, 165960, Note_on_c, 0, 50, 0
2, 165961, Note_on_c, 0, 57, 0
2, 165961, Note_on_c, 0, 62, 0
2, 165961, Note_on_c, 0, 66, 0
2, 165962, Note_on_c, 0, 73, 0
2, 165962, Note_on_c, 0, 85, 0
2, 165962, Control_c, 0, 64, 0
2, 165964, Note_on_c, 0, 76, 0
2, 165969, Note_on_c, 0, 76, 50
2, 166049, Control_c, 0, 64, 127
2, 166138, Note_on_c, 0, 59, 59
2, 166323, Note_on_c, 0, 64, 60
2, 166579, Note_on_c, 0, 68, 45
2, 167543, Note_on_c, 0, 93, 90
2, 167552, Note_on_c, 0, 81, 77
2, 167717, Note_on_c, 0, 83, 0
2, 167717, Control_c, 0, 64, 0
2, 167717, Note_on_c, 0, 52, 0
2, 167717, Note_on_c, 0, 59, 0
2, 167717, Note_on_c, 0, 64, 0
2, 167718, Note_on_c, 0, 68, 0
2, 167718, Note_on_c, 0, 76, 0
2, 167718, Note_on_c, 0, 92, 90
2, 167723, Note_on_c, 0, 80, 0
2, 167728, Note_on_c, 0, 54, 56
2, 167730, Note_on_c, 0, 80, 82
2, 167754, Note_on_c, 0, 93, 0
2, 167777, Control_c, 0, 64, 127
2, 167887, Note_on_c, 0, 61, 53
2, 168036, Note_on_c, 0, 88, 88
2, 168041, Note_on_c, 0, 50, 60
2, 168055, Note_on_c, 0, 76, 71
2, 168058, Control_c, 0, 64, 0
2, 168061, Note_on_c, 0, 92, 0
2, 168063, Note_on_c, 0, 80, 0
2, 168063, Note_on_c, 0, 61, 0
2, 168069, Note_on_c, 0, 81, 0
2, 168076, Note_on_c, 0, 54, 0
2, 168122, Control_c, 0, 64, 127
2, 168218, Note_on_c, 0, 57, 59
2, 168369, Note_on_c, 0, 85, 86
2, 168372, Note_on_c, 0, 62, 51
2, 168379, Note_on_c, 0, 73, 74
2, 168528, Note_on_c, 0, 66, 53
2, 168725, Note_on_c, 0, 83, 83
2, 168741, Note_on_c, 0, 52, 58
2, 168743, Note_on_c, 0, 80, 69
2, 168744, Note_on_c, 0, 76, 0
2, 168750, Note_on_c, 0, 76, 55
2, 168752, Note_on_c, 0, 50, 0
2, 168754, Note_on_c, 0, 88, 0
2, 168754, Note_on_c, 0, 62, 0
2, 168755, Note_on_c, 0, 57, 0
2, 168755, Note_on_c, 0, 66, 0
2, 168756, Note_on_c, 0, 73, 0
2, 168756, Note_on_c, 0, 85, 0
2, 168757, Control_c, 0, 64, 0
2, 168898, Control_c, 0, 64, 127
2, 168950, Note_on_c, 0, 59, 50
2, 169129, Note_on_c, 0, 64, 53
2, 169360, Note_on_c, 0, 68, 50
2, 170414, Note_on_c, 0, 93, 91
2, 170422, Note_on_c, 0, 81, 78
2, 170560, Note_on_c, 0, 59, 0
2, 170560, Note_on_c, 0, 68, 0
2, 170560, Note_on_c, 0, 83, 0
2, 170561, Note_on_c, 0, 64, 0
2, 170562, Control_c, 0, 64, 0
2, 170563, Note_on_c, 0, 52, 0
2, 170580, Note_on_c, 0, 76, 0
2, 170580, Note_on_c, 0, 92, 85
2, 170595, Note_on_c, 0, 80, 0
2, 170599, Note_on_c, 0, 80, 82
2, 170601, Note_on_c, 0, 54, 50
2, 170618, Control_c, 0, 64, 127
2, 170626, Note_on_c, 0, 93, 0
2, 170754, Note_on_c, 0, 61, 52
2, 170902, Note_on_c, 0, 88, 88
2, 170920, Note_on_c, 0, 50, 50
2, 170921, Control_c, 0, 64, 0
2, 170922, Note_on_c, 0, 92, 0
2, 170922, Note_on_c, 0, 80, 0
2, 170922, Note_on_c, 0, 61, 0
2, 170923, Note_on_c, 0, 76, 67
2, 170923, Note_on_c, 0, 81, 0
2, 170925, Note_on_c, 0, 54, 0
2, 170979, Control_c, 0, 64, 127
2, 171089, Note_on_c, 0, 57, 61
2, 171244, Note_on_c, 0, 85, 86
2, 171253, Note_on_c, 0, 73, 74
2, 171263, Note_on_c, 0, 62, 56
2, 171422, Note_on_c, 0, 66, 63
2, 171621, Note_on_c, 0, 83, 85
2, 171632, Note_on_c, 0, 76, 0
2, 171634, Note_on_c, 0, 80, 76
2, 171635, Note_on_c, 0, 71, 65
2, 171640, Control_c, 0, 64, 0
2, 171642, Note_on_c, 0, 49, 53
2, 171644, Note_on_c, 0, 76, 59
2, 171644, Note_on_c, 0, 88, 0
2, 171645, Note_on_c, 0, 62, 0
2, 171645, Note_on_c, 0, 57, 0
2, 171646, Note_on_c, 0, 73, 0
2, 171646, Note_on_c, 0, 50, 0
2, 171646, Note_on_c, 0, 85, 0
2, 171647, Note_on_c, 0, 66, 0
2, 171747, Control_c, 0, 64, 127
2, 171867, Note_on_c, 0, 56, 60
2, 172120, Note_on_c, 0, 88, 81
2, 172124, Note_on_c, 0, 83, 0
2, 172131, Note_on_c, 0, 76, 0
2, 172132, Note_on_c, 0, 83, 68
2, 172138, Note_on_c, 0, 76, 59
2, 172139, Note_on_c, 0, 80, 0
2, 172140, Control_c, 0, 64, 0
2, 172150, Note_on_c, 0, 80, 60
2, 172159, Note_on_c, 0, 59, 49
2, 172160, Note_on_c, 0, 71, 0
2, 172224, Control_c, 0, 64, 127
2, 172247, Note_on_c, 0, 49, 0
2, 172514, Note_on_c, 0, 64, 36
2, 173452, Note_on_c, 0, 76, 0
2, 173457, Note_on_c, 0, 76, 65
2, 173475, Note_on_c, 0, 64, 0
2, 173480, Note_on_c, 0, 64, 54
2, 174486, Note_on_c, 0, 61, 51
2, 174558, Note_on_c, 0, 64, 0
2, 174565, Note_on_c, 0, 66, 58
2, 174569, Note_on_c, 0, 64, 62
2, 174638, Note_on_c, 0, 68, 61
2, 174672, Note_on_c, 0, 71, 63
2, 174720, Note_on_c, 0, 56, 0
2, 174720, Note_on_c, 0, 59, 0
2, 174720, Note_on_c, 0, 80, 0
2, 174720, Note_on_c, 0, 83, 0
2, 174720, Note_on_c, 0, 88, 0
2, 174728, Control_c, 0, 64, 0
2, 174741, Note_on_c, 0, 78, 82
2, 174819, Control_c, 0, 64, 127
2, 174827, Note_on_c, 0, 76, 0
2, 176131, Note_on_c, 0, 30, 41
2, 176149, Note_on_c, 0, 61, 0
2, 176150, Note_on_c, 0, 68, 0
2, 176150, Note_on_c, 0, 64, 0
2, 176151, Control_c, 0, 64, 0
2, 176151, Note_on_c, 0, 66, 0
2, 176152, Note_on_c, 0, 71, 0
2, 176340, Control_c, 0, 64, 127
2, 176808, Note_on_c, 0, 42, 29
2, 177139, Note_on_c, 0, 44, 42
2, 177355, Note_on_c, 0, 45, 39
2, 177539, Note_on_c, 0, 47, 37
2, 177606, Note_on_c, 0, 49, 54
2, 177746, Note_on_c, 0, 50, 63
2, 177866, Note_on_c, 0, 52, 62
2, 177974, Note_on_c, 0, 54, 64
2, 178080, Note_on_c, 0, 56, 65
2, 178169, Note_on_c, 0, 57, 65
2, 178271, Note_on_c, 0, 59, 67
2, 178347, Note_on_c, 0, 61, 66
2, 178439, Note_on_c, 0, 62, 65
2, 178523, Note_on_c, 0, 64, 61
2, 178560, Note_on_c, 0, 78, 0
2, 178587, Note_on_c, 0, 66, 60
2, 178673, Note_on_c, 0, 68, 58
2, 178754, Note_on_c, 0, 69, 48
2, 178837, Note_on_c, 0, 71, 52
2, 178899, Note_on_c, 0, 73, 66
2, 178992, Note_on_c, 0, 74, 51
2, 179087, Note_on_c, 0, 76, 45
2, 179160, Note_on_c, 0, 78, 58
2, 179273, Note_on_c, 0, 80, 59
2, 179389, Note_on_c, 0, 81, 56
2, 179524, Note_on_c, 0, 83, 55
2, 179700, Note_on_c, 0, 85, 59
2, 179928, Note_on_c, 0, 86, 66
2, 180122, Note_on_c, 0, 88, 55
2, 180134, Note_on_c, 0, 30, 0
2, 180308, Note_on_c, 0, 90, 44
2, 180543, Note_on_c, 0, 92, 42
2, 180799, Note_on_c, 0, 93, 49
2, 180817, Note_on_c, 0, 86, 0
2, 180827, Note_on_c, 0, 86, 32
2, 181129, Note_on_c, 0, 95, 56
2, 181416, Note_on_c, 0, 42, 0
2, 181490, Note_on_c, 0, 97, 70
2, 181747, Note_on_c, 0, 44, 0
2, 181962, Note_on_c, 0, 45, 0
2, 181985, Note_on_c, 0, 98, 73
2, 182146, Note_on_c, 0, 47, 0
2, 182215, Note_on_c, 0, 49, 0
2, 182353, Note_on_c, 0, 50, 0
2, 182400, Note_on_c, 0, 52, 0
2, 182400, Note_on_c, 0, 54, 0
2, 182400, Note_on_c, 0, 56, 0
2, 182400, Note_on_c, 0, 57, 0
2, 182400, Note_on_c, 0, 59, 0
2, 182400, Note_on_c, 0, 61, 0
2, 182400, Note_on_c, 0, 62, 0
2, 182400, Note_on_c, 0, 64, 0
2, 182400, Note_on_c, 0, 66, 0
2, 182400, Note_on_c, 0, 68, 0
2, 182400, Note_on_c, 0, 69, 0
2, 182400, Note_on_c, 0, 71, 0
2, 182400, Note_on_c, 0, 73, 0
2, 182400, Note_on_c, 0, 76, 0
2, 182400, Note_on_c, 0, 78, 0
2, 182400, Note_on_c, 0, 80, 0
2, 182400, Note_on_c, 0, 88, 0
2, 182400, Control_c, 0, 64, 0
2, 182446, Note_on_c, 0, 74, 0
2, 182964, Note_on_c, 0, 100, 73
2, 182968, Control_c, 0, 64, 127
2, 183045, Control_c, 0, 64, 0
2, 183997, Note_on_c, 0, 81, 0
2, 184135, Note_on_c, 0, 83, 0
2, 184151, Control_c, 0, 64, 127
2, 184210, Note_on_c, 0, 78, 33
2, 184227, Control_c, 0, 64, 0
2, 184243, Note_on_c, 0, 93, 0
2, 184250, Note_on_c, 0, 81, 35
2, 184253, Note_on_c, 0, 93, 30
2, 184304, Note_on_c, 0, 85, 0
2, 184312, Control_c, 0, 64, 127
2, 184313, Note_on_c, 0, 85, 51
2, 184373, Note_on_c, 0, 90, 0
2, 184383, Note_on_c, 0, 90, 22
2, 184419, Note_on_c, 0, 93, 0
2, 184424, Note_on_c, 0, 93, 47
2, 184450, Note_on_c, 0, 97, 0
2, 184455, Note_on_c, 0, 97, 68
2, 184540, Note_on_c, 0, 102, 80
2, 184596, Control_c, 0, 64, 0
2, 185149, Note_on_c, 0, 92, 0
2, 185433, Note_on_c, 0, 86, 0
2, 185740, Note_on_c, 0, 95, 0
2, 186240, Note_on_c, 0, 78, 0
2, 186240, Note_on_c, 0, 98, 0
2, 186240, Note_on_c, 0, 100, 0
2, 186240, Control_c, 0, 64, 127
2, 188858, Note_on_c, 0, 81, 0
2, 188920, Note_on_c, 0, 85, 0
2, 188989, Note_on_c, 0, 90, 0
2, 189035, Note_on_c, 0, 93, 0
2, 189066, Note_on_c, 0, 97, 0
2, 189150, Note_on_c, 0, 102, 0
2, 189329, Control_c, 0, 64, 0
2, 189330, End_track
0, 0, End_of_file
