0, 0, Header, 1, 2, 384
1, 0, Start_track
1, 0, Tempo, 500000
1, 0, Time_signature, 4, 2, 24, 8
1, 1, End_track
2, 0, Start_track
2, 291, Control_c, 0, 64, 127
2, 1989, Control_c, 0, 64, 0
2, 2073, Control_c, 0, 64, 127
2, 2156, Note_on_c, 0, 45, 39
2, 2173, Note_on_c, 0, 52, 44
2, 2233, Note_on_c, 0, 57, 60
2, 2237, Note_on_c, 0, 59, 58
2, 2295, Note_on_c, 0, 60, 66
2, 2362, Note_on_c, 0, 64, 51
2, 2392, Note_on_c, 0, 67, 58
2, 4010, Note_on_c, 0, 74, 73
2, 4053, Note_on_c, 0, 79, 66
2, 4085, Note_on_c, 0, 83, 85
2, 4917, Note_on_c, 0, 84, 84
2, 4934, Note_on_c, 0, 76, 66
2, 5506, Note_on_c, 0, 83, 0
2, 5517, Note_on_c, 0, 83, 79
2, 5529, Note_on_c, 0, 74, 0
2, 5533, Note_on_c, 0, 74, 73
2, 5621, Note_on_c, 0, 79, 0
2, 5632, Note_on_c, 0, 79, 77
2, 5649, Note_on_c, 0, 71, 64
2, 5760, Note_on_c, 0, 45, 0
2, 5760, Note_on_c, 0, 52, 0
2, 5760, Note_on_c, 0, 57, 0
2, 5760, Note_on_c, 0, 59, 0
2, 5760, Note_on_c, 0, 64, 0
2, 5760, Note_on_c, 0, 67, 0
2, 5786, Note_on_c, 0, 41, 54
2, 5787, Note_on_c, 0, 48, 58
2, 5795, Control_c, 0, 64, 0
2, 5797, Note_on_c, 0, 74, 0
2, 5798, Note_on_c, 0, 60, 0
2, 5799, Note_on_c, 0, 76, 0
2, 5799, Note_on_c, 0, 84, 0
2, 5806, Note_on_c, 0, 57, 49
2, 5928, Control_c, 0, 64, 127
2, 6036, Note_on_c, 0, 83, 0
2, 6623, Note_on_c, 0, 74, 76
2, 6643, Note_on_c, 0, 79, 0
2, 6817, Note_on_c, 0, 79, 63
2, 6893, Note_on_c, 0, 76, 73
2, 6942, Note_on_c, 0, 74, 0
2, 6953, Note_on_c, 0, 74, 57
2, 7004, Note_on_c, 0, 71, 0
2, 7008, Note_on_c, 0, 71, 73
2, 7165, Note_on_c, 0, 71, 0
2, 7174, Note_on_c, 0, 71, 65
2, 7308, Note_on_c, 0, 67, 60
2, 7453, Note_on_c, 0, 62, 62
2, 7639, Note_on_c, 0, 64, 55
2, 9322, Note_on_c, 0, 45, 47
2, 9357, Note_on_c, 0, 52, 43
2, 9382, Note_on_c, 0, 64, 0
2, 9383, Control_c, 0, 64, 0
2, 9384, Note_on_c, 0, 67, 0
2, 9385, Note_on_c, 0, 62, 0
2, 9386, Note_on_c, 0, 57, 0
2, 9386, Note_on_c, 0, 76, 0
2, 9387, Note_on_c, 0, 41, 0
2, 9387, Note_on_c, 0, 79, 0
2, 9388, Note_on_c, 0, 48, 0
2, 9392, Note_on_c, 0, 74, 0
2, 9400, Note_on_c, 0, 71, 0
2, 9403, Note_on_c, 0, 55, 50
2, 9500, Control_c, 0, 64, 127
2, 10049, Note_on_c, 0, 59, 52
2, 10301, Note_on_c, 0, 60, 57
2, 10446, Note_on_c, 0, 62, 59
2, 10560, Note_on_c, 0, 60, 0
2, 10564, Note_on_c, 0, 60, 58
2, 10621, Note_on_c, 0, 62, 0
2, 10626, Note_on_c, 0, 62, 66
2, 10715, Note_on_c, 0, 64, 70
2, 10844, Note_on_c, 0, 64, 0
2, 10849, Note_on_c, 0, 64, 78
2, 10931, Note_on_c, 0, 67, 80
2, 10982, Note_on_c, 0, 64, 0
2, 10992, Note_on_c, 0, 64, 77
2, 11043, Note_on_c, 0, 67, 0
2, 11047, Note_on_c, 0, 67, 70
2, 11102, Note_on_c, 0, 69, 80
2, 11159, Note_on_c, 0, 67, 0
2, 11167, Note_on_c, 0, 67, 86
2, 11228, Note_on_c, 0, 69, 0
2, 11232, Note_on_c, 0, 69, 76
2, 11271, Note_on_c, 0, 71, 87
2, 11343, Note_on_c, 0, 69, 0
2, 11349, Note_on_c, 0, 69, 73
2, 11420, Note_on_c, 0, 71, 0
2, 11425, Note_on_c, 0, 71, 82
2, 11506, Note_on_c, 0, 74, 90
2, 11564, Note_on_c, 0, 76, 86
2, 11644, Note_on_c, 0, 77, 81
2, 11644, Note_on_c, 0, 79, 78
2, 11680, Note_on_c, 0, 81, 77
2, 11745, Note_on_c, 0, 83, 84
2, 11865, Note_on_c, 0, 86, 99
2, 12068, Note_on_c, 0, 57, 69
2, 12069, Note_on_c, 0, 41, 61
2, 12070, Note_on_c, 0, 48, 65
2, 12108, Control_c, 0, 64, 0
2, 12109, Note_on_c, 0, 64, 0
2, 12109, Note_on_c, 0, 67, 0
2, 12109, Note_on_c, 0, 83, 0
2, 12109, Note_on_c, 0, 62, 0
2, 12110, Note_on_c, 0, 76, 0
2, 12110, Note_on_c, 0, 52, 0
2, 12110, Note_on_c, 0, 71, 0
2, 12110, Note_on_c, 0, 74, 0
2, 12111, Note_on_c, 0, 86, 0
2, 12111, Note_on_c, 0, 79, 0
2, 12112, Note_on_c, 0, 60, 0
2, 12112, Note_on_c, 0, 77, 0
2, 12112, Note_on_c, 0, 55, 0
2, 12114, Note_on_c, 0, 81, 0
2, 12119, Note_on_c, 0, 45, 0
2, 12119, Note_on_c, 0, 59, 0
2, 12134, Note_on_c, 0, 69, 0
2, 12218, Control_c, 0, 64, 127
2, 12539, Note_on_c, 0, 91, 99
2, 12727, Note_on_c, 0, 88, 81
2, 12798, Note_on_c, 0, 86, 79
2, 12848, Note_on_c, 0, 83, 76
2, 12900, Note_on_c, 0, 81, 83
2, 12974, Note_on_c, 0, 82, 80
2, 13071, Note_on_c, 0, 86, 0
2, 13081, Note_on_c, 0, 86, 84
2, 13155, Note_on_c, 0, 83, 0
2, 13163, Note_on_c, 0, 83, 82
2, 13280, Note_on_c, 0, 79, 69
2, 13399, Note_on_c, 0, 74, 64
2, 13526, Note_on_c, 0, 76, 68
2, 13675, Note_on_c, 0, 71, 53
2, 13889, Note_on_c, 0, 69, 44
2, 14292, Note_on_c, 0, 74, 0
2, 14303, Note_on_c, 0, 74, 39
2, 14304, Note_on_c, 0, 62, 40
2, 16599, Note_on_c, 0, 45, 37
2, 16604, Note_on_c, 0, 57, 0
2, 16610, Note_on_c, 0, 57, 38
2, 16611, Note_on_c, 0, 55, 33
2, 16617, Note_on_c, 0, 52, 37
2, 16631, Control_c, 0, 64, 0
2, 16647, Note_on_c, 0, 81, 0
2, 16647, Note_on_c, 0, 91, 0
2, 16647, Note_on_c, 0, 88, 0
2, 16647, Note_on_c, 0, 82, 0
2, 16649, Note_on_c, 0, 83, 0
2, 16651, Note_on_c, 0, 41, 0
2, 16653, Note_on_c, 0, 76, 0
2, 16653, Note_on_c, 0, 71, 0
2, 16653, Note_on_c, 0, 79, 0
2, 16654, Note_on_c, 0, 86, 0
2, 16655, Note_on_c, 0, 62, 0
2, 16655, Note_on_c, 0, 74, 0
2, 16673, Note_on_c, 0, 48, 0
2, 16673, Note_on_c, 0, 69, 0
2, 16773, Control_c, 0, 64, 127
2, 16937, Note_on_c, 0, 64, 44
2, 17094, Note_on_c, 0, 62, 54
2, 17421, Note_on_c, 0, 67, 44
2, 17725, Note_on_c, 0, 57, 0
2, 17733, Note_on_c, 0, 57, 41
2, 18063, Note_on_c, 0, 64, 0
2, 18073, Note_on_c, 0, 64, 31
2, 18216, Note_on_c, 0, 62, 0
2, 18220, Note_on_c, 0, 74, 46
2, 18222, Note_on_c, 0, 62, 47
2, 18370, Note_on_c, 0, 67, 0
2, 18377, Note_on_c, 0, 67, 48
2, 18677, Note_on_c, 0, 64, 0
2, 18685, Note_on_c, 0, 64, 43
2, 18831, Note_on_c, 0, 62, 0
2, 18840, Note_on_c, 0, 62, 54
2, 19146, Note_on_c, 0, 57, 0
2, 19150, Note_on_c, 0, 57, 44
2, 19153, Note_on_c, 0, 74, 0
2, 19161, Note_on_c, 0, 55, 0
2, 19163, Note_on_c, 0, 41, 39
2, 19164, Control_c, 0, 64, 0
2, 19165, Note_on_c, 0, 48, 34
2, 19166, Note_on_c, 0, 52, 0
2, 19167, Note_on_c, 0, 55, 38
2, 19167, Note_on_c, 0, 62, 0
2, 19168, Note_on_c, 0, 64, 0
2, 19168, Note_on_c, 0, 67, 0
2, 19169, Note_on_c, 0, 45, 0
2, 19284, Control_c, 0, 64, 127
2, 19445, Note_on_c, 0, 55, 0
2, 19467, Note_on_c, 0, 64, 51
2, 19627, Note_on_c, 0, 62, 56
2, 19961, Note_on_c, 0, 69, 49
2, 20275, Note_on_c, 0, 57, 0
2, 20285, Note_on_c, 0, 57, 53
2, 20567, Note_on_c, 0, 64, 0
2, 20577, Note_on_c, 0, 64, 52
2, 20728, Note_on_c, 0, 62, 0
2, 20738, Note_on_c, 0, 62, 54
2, 20889, Note_on_c, 0, 69, 0
2, 20899, Note_on_c, 0, 69, 57
2, 21120, Note_on_c, 0, 48, 0
2, 21212, Note_on_c, 0, 64, 0
2, 21216, Note_on_c, 0, 64, 45
2, 21373, Note_on_c, 0, 62, 0
2, 21376, Note_on_c, 0, 74, 43
2, 21377, Note_on_c, 0, 62, 42
2, 21672, Note_on_c, 0, 57, 0
2, 21681, Note_on_c, 0, 57, 45
2, 21684, Note_on_c, 0, 45, 38
2, 21685, Control_c, 0, 64, 0
2, 21692, Note_on_c, 0, 41, 0
2, 21692, Note_on_c, 0, 55, 38
2, 21692, Note_on_c, 0, 62, 0
2, 21692, Note_on_c, 0, 64, 0
2, 21693, Note_on_c, 0, 69, 0
2, 21699, Note_on_c, 0, 52, 35
2, 21719, Note_on_c, 0, 74, 0
2, 21811, Control_c, 0, 64, 127
2, 21996, Note_on_c, 0, 64, 49
2, 22155, Note_on_c, 0, 62, 55
2, 22486, Note_on_c, 0, 67, 48
2, 22801, Note_on_c, 0, 57, 0
2, 22809, Note_on_c, 0, 57, 46
2, 23124, Note_on_c, 0, 64, 0
2, 23135, Note_on_c, 0, 64, 32
2, 23285, Note_on_c, 0, 62, 0
2, 23296, Note_on_c, 0, 74, 40
2, 23297, Note_on_c, 0, 62, 42
2, 23301, Note_on_c, 0, 74, 0
2, 23462, Note_on_c, 0, 67, 0
2, 23471, Note_on_c, 0, 67, 45
2, 23792, Note_on_c, 0, 64, 0
2, 23797, Note_on_c, 0, 64, 39
2, 23930, Note_on_c, 0, 62, 0
2, 23941, Note_on_c, 0, 74, 48
2, 23942, Note_on_c, 0, 62, 54
2, 24245, Note_on_c, 0, 57, 0
2, 24250, Note_on_c, 0, 57, 47
2, 24264, Note_on_c, 0, 41, 39
2, 24267, Note_on_c, 0, 48, 37
2, 24268, Note_on_c, 0, 55, 0
2, 24268, Note_on_c, 0, 74, 0
2, 24273, Note_on_c, 0, 55, 42
2, 24280, Note_on_c, 0, 52, 0
2, 24282, Note_on_c, 0, 67, 0
2, 24282, Note_on_c, 0, 45, 0
2, 24282, Note_on_c, 0, 64, 0
2, 24283, Control_c, 0, 64, 0
2, 24299, Note_on_c, 0, 62, 0
2, 24391, Control_c, 0, 64, 127
2, 24573, Note_on_c, 0, 64, 53
2, 24732, Note_on_c, 0, 62, 54
2, 25047, Note_on_c, 0, 69, 50
2, 25359, Note_on_c, 0, 57, 0
2, 25370, Note_on_c, 0, 57, 42
2, 25658, Note_on_c, 0, 64, 0
2, 25663, Note_on_c, 0, 64, 50
2, 25835, Note_on_c, 0, 62, 0
2, 25842, Note_on_c, 0, 62, 47
2, 26004, Note_on_c, 0, 69, 0
2, 26015, Note_on_c, 0, 69, 42
2, 26739, Note_on_c, 0, 41, 0
2, 26739, Note_on_c, 0, 62, 0
2, 26739, Note_on_c, 0, 64, 0
2, 26741, Note_on_c, 0, 45, 40
2, 26741, Note_on_c, 0, 48, 0
2, 26742, Note_on_c, 0, 33, 46
2, 26744, Control_c, 0, 64, 0
2, 26749, Note_on_c, 0, 55, 0
2, 26757, Note_on_c, 0, 57, 0
2, 26757, Note_on_c, 0, 69, 0
2, 26826, Control_c, 0, 64, 127
2, 27053, Note_on_c, 0, 57, 46
2, 27194, Note_on_c, 0, 57, 0
2, 27199, Note_on_c, 0, 57, 54
2, 27224, Note_on_c, 0, 52, 36
2, 27363, Note_on_c, 0, 57, 0
2, 27372, Note_on_c, 0, 57, 64
2, 27502, Note_on_c, 0, 45, 0
2, 27507, Note_on_c, 0, 45, 50
2, 27663, Note_on_c, 0, 57, 0
2, 27669, Note_on_c, 0, 57, 56
2, 27797, Note_on_c, 0, 55, 55
2, 27947, Note_on_c, 0, 57, 0
2, 27954, Note_on_c, 0, 57, 53
2, 27970, Note_on_c, 0, 52, 0
2, 27978, Note_on_c, 0, 52, 48
2, 28116, Note_on_c, 0, 59, 68
2, 28254, Note_on_c, 0, 45, 0
2, 28261, Note_on_c, 0, 45, 52
2, 28428, Note_on_c, 0, 60, 73
2, 28439, Note_on_c, 0, 55, 0
2, 28450, Note_on_c, 0, 55, 52
2, 28750, Note_on_c, 0, 64, 52
2, 28916, Note_on_c, 0, 62, 51
2, 29085, Note_on_c, 0, 67, 53
2, 29218, Control_c, 0, 64, 0
2, 29222, Note_on_c, 0, 64, 0
2, 29222, Note_on_c, 0, 55, 0
2, 29222, Note_on_c, 0, 45, 0
2, 29222, Note_on_c, 0, 60, 0
2, 29222, Note_on_c, 0, 67, 0
2, 29223, Note_on_c, 0, 59, 0
2, 29223, Note_on_c, 0, 52, 0
2, 29223, Note_on_c, 0, 62, 0
2, 29233, Note_on_c, 0, 29, 63
2, 29237, Note_on_c, 0, 33, 0
2, 29245, Note_on_c, 0, 57, 0
2, 29322, Control_c, 0, 64, 127
2, 29556, Note_on_c, 0, 57, 55
2, 29683, Note_on_c, 0, 57, 0
2, 29693, Note_on_c, 0, 57, 72
2, 29716, Note_on_c, 0, 55, 48
2, 29859, Note_on_c, 0, 57, 0
2, 29868, Note_on_c, 0, 57, 66
2, 29989, Note_on_c, 0, 41, 59
2, 30151, Note_on_c, 0, 57, 0
2, 30157, Note_on_c, 0, 57, 64
2, 30297, Note_on_c, 0, 55, 0
2, 30306, Note_on_c, 0, 55, 66
2, 30451, Note_on_c, 0, 57, 0
2, 30462, Note_on_c, 0, 57, 68
2, 30480, Note_on_c, 0, 48, 47
2, 30615, Note_on_c, 0, 59, 74
2, 30750, Note_on_c, 0, 41, 0
2, 30754, Note_on_c, 0, 41, 57
2, 30935, Note_on_c, 0, 55, 0
2, 30937, Note_on_c, 0, 60, 86
2, 30939, Note_on_c, 0, 55, 52
2, 31234, Note_on_c, 0, 48, 0
2, 31241, Note_on_c, 0, 48, 56
2, 31411, Note_on_c, 0, 60, 0
2, 31416, Note_on_c, 0, 60, 76
2, 31569, Note_on_c, 0, 62, 81
2, 31573, Note_on_c, 0, 43, 63
2, 31712, Note_on_c, 0, 48, 0
2, 31713, Note_on_c, 0, 55, 0
2, 31713, Note_on_c, 0, 60, 0
2, 31713, Note_on_c, 0, 59, 0
2, 31714, Note_on_c, 0, 41, 0
2, 31721, Control_c, 0, 64, 0
2, 31722, Note_on_c, 0, 62, 0
2, 31733, Note_on_c, 0, 29, 0
2, 31737, Note_on_c, 0, 64, 85
2, 31741, Note_on_c, 0, 57, 0
2, 31744, Note_on_c, 0, 36, 58
2, 31754, Note_on_c, 0, 52, 56
2, 31848, Control_c, 0, 64, 127
2, 32071, Note_on_c, 0, 64, 0
2, 32075, Note_on_c, 0, 64, 67
2, 32223, Note_on_c, 0, 62, 68
2, 32535, Note_on_c, 0, 67, 55
2, 32852, Note_on_c, 0, 55, 46
2, 33154, Note_on_c, 0, 64, 0
2, 33158, Note_on_c, 0, 64, 51
2, 33308, Note_on_c, 0, 62, 0
2, 33318, Note_on_c, 0, 62, 55
2, 33446, Note_on_c, 0, 67, 0
2, 33457, Note_on_c, 0, 67, 68
2, 33607, Note_on_c, 0, 64, 0
2, 33616, Note_on_c, 0, 64, 88
2, 33768, Note_on_c, 0, 65, 77
2, 33899, Note_on_c, 0, 64, 0
2, 33910, Note_on_c, 0, 64, 71
2, 34068, Note_on_c, 0, 64, 0
2, 34074, Note_on_c, 0, 64, 83
2, 34152, Note_on_c, 0, 43, 0
2, 34171, Note_on_c, 0, 36, 0
2, 34171, Note_on_c, 0, 67, 0
2, 34171, Note_on_c, 0, 52, 0
2, 34171, Note_on_c, 0, 62, 0
2, 34173, Note_on_c, 0, 55, 0
2, 34173, Note_on_c, 0, 65, 0
2, 34175, Control_c, 0, 64, 0
2, 34224, Note_on_c, 0, 43, 66
2, 34233, Note_on_c, 0, 62, 54
2, 34314, Control_c, 0, 64, 127
2, 34368, Note_on_c, 0, 62, 0
2, 34378, Note_on_c, 0, 62, 74
2, 34536, Note_on_c, 0, 62, 0
2, 34541, Note_on_c, 0, 62, 73
2, 34542, Note_on_c, 0, 55, 60
2, 34590, Note_on_c, 0, 64, 0
2, 34709, Note_on_c, 0, 60, 58
2, 35016, Note_on_c, 0, 67, 56
2, 35320, Note_on_c, 0, 55, 0
2, 35326, Note_on_c, 0, 55, 50
2, 35635, Note_on_c, 0, 55, 0
2, 35635, Note_on_c, 0, 62, 0
2, 35644, Note_on_c, 0, 62, 53
2, 35646, Note_on_c, 0, 55, 29
2, 35665, Note_on_c, 0, 43, 0
2, 35676, Note_on_c, 0, 43, 28
2, 35788, Note_on_c, 0, 60, 0
2, 35799, Note_on_c, 0, 60, 44
2, 35942, Note_on_c, 0, 67, 0
2, 35950, Note_on_c, 0, 67, 55
2, 35965, Note_on_c, 0, 55, 0
2, 35974, Note_on_c, 0, 55, 30
2, 36078, Control_c, 0, 64, 0
2, 36079, Note_on_c, 0, 60, 0
2, 36080, Note_on_c, 0, 62, 0
2, 36081, Note_on_c, 0, 55, 0
2, 36082, Note_on_c, 0, 43, 0
2, 36088, Note_on_c, 0, 40, 49
2, 36115, Note_on_c, 0, 56, 33
2, 36117, Note_on_c, 0, 52, 36
2, 36195, Control_c, 0, 64, 127
2, 36272, Note_on_c, 0, 65, 54
2, 36437, Note_on_c, 0, 64, 55
2, 36706, Control_c, 0, 64, 0
2, 36712, Note_on_c, 0, 56, 0
2, 36713, Note_on_c, 0, 40, 0
2, 36714, Note_on_c, 0, 65, 0
2, 36725, Note_on_c, 0, 67, 0
2, 36733, Note_on_c, 0, 52, 0
2, 36734, Note_on_c, 0, 45, 46
2, 36749, Note_on_c, 0, 60, 46
2, 36810, Control_c, 0, 64, 127
2, 37060, Note_on_c, 0, 52, 39
2, 37185, Note_on_c, 0, 69, 60
2, 37224, Note_on_c, 0, 59, 46
2, 37340, Note_on_c, 0, 69, 0
2, 37347, Note_on_c, 0, 69, 65
2, 37370, Note_on_c, 0, 64, 0
2, 37378, Note_on_c, 0, 64, 38
2, 37501, Note_on_c, 0, 52, 0
2, 37511, Note_on_c, 0, 52, 51
2, 37639, Note_on_c, 0, 60, 0
2, 37639, Note_on_c, 0, 64, 0
2, 37647, Note_on_c, 0, 69, 0
2, 37647, Note_on_c, 0, 60, 62
2, 37649, Note_on_c, 0, 64, 59
2, 37652, Note_on_c, 0, 69, 69
2, 37817, Note_on_c, 0, 57, 42
2, 37931, Note_on_c, 0, 52, 0
2, 37939, Note_on_c, 0, 52, 54
2, 37954, Note_on_c, 0, 69, 0
2, 37965, Note_on_c, 0, 69, 73
2, 37977, Note_on_c, 0, 64, 0
2, 37984, Note_on_c, 0, 64, 44
2, 38120, Note_on_c, 0, 71, 74
2, 38131, Note_on_c, 0, 57, 0
2, 38136, Note_on_c, 0, 57, 58
2, 38269, Note_on_c, 0, 59, 0
2, 38280, Note_on_c, 0, 59, 60
2, 38411, Note_on_c, 0, 72, 77
2, 38430, Note_on_c, 0, 60, 0
2, 38437, Note_on_c, 0, 60, 61
2, 38760, Note_on_c, 0, 64, 0
2, 38768, Note_on_c, 0, 64, 51
2, 38892, Note_on_c, 0, 62, 54
2, 39063, Note_on_c, 0, 67, 63
2, 39209, Note_on_c, 0, 41, 48
2, 39214, Note_on_c, 0, 57, 0
2, 39216, Control_c, 0, 64, 0
2, 39220, Note_on_c, 0, 64, 0
2, 39221, Note_on_c, 0, 72, 0
2, 39221, Note_on_c, 0, 59, 0
2, 39222, Note_on_c, 0, 60, 0
2, 39222, Note_on_c, 0, 52, 0
2, 39222, Note_on_c, 0, 71, 0
2, 39224, Note_on_c, 0, 45, 0
2, 39225, Note_on_c, 0, 57, 49
2, 39252, Note_on_c, 0, 69, 0
2, 39313, Control_c, 0, 64, 127
2, 39528, Note_on_c, 0, 69, 53
2, 39659, Note_on_c, 0, 69, 0
2, 39670, Note_on_c, 0, 69, 65
2, 39690, Note_on_c, 0, 57, 0
2, 39700, Note_on_c, 0, 57, 55
2, 39836, Note_on_c, 0, 57, 0
2, 39836, Note_on_c, 0, 69, 0
2, 39842, Note_on_c, 0, 69, 64
2, 39847, Note_on_c, 0, 57, 39
2, 39970, Note_on_c, 0, 48, 56
2, 40135, Note_on_c, 0, 69, 0
2, 40144, Note_on_c, 0, 69, 64
2, 40147, Note_on_c, 0, 55, 52
2, 40288, Note_on_c, 0, 53, 48
2, 40427, Note_on_c, 0, 57, 0
2, 40427, Note_on_c, 0, 69, 0
2, 40432, Note_on_c, 0, 69, 68
2, 40437, Note_on_c, 0, 57, 54
2, 40450, Note_on_c, 0, 62, 0
2, 40588, Note_on_c, 0, 71, 73
2, 40601, Note_on_c, 0, 60, 58
2, 40734, Note_on_c, 0, 53, 0
2, 40745, Note_on_c, 0, 53, 52
2, 40891, Note_on_c, 0, 72, 86
2, 41214, Note_on_c, 0, 64, 66
2, 41356, Note_on_c, 0, 72, 0
2, 41359, Note_on_c, 0, 62, 77
2, 41361, Note_on_c, 0, 72, 82
2, 41687, Note_on_c, 0, 48, 0
2, 41694, Note_on_c, 0, 67, 0
2, 41694, Note_on_c, 0, 72, 0
2, 41696, Note_on_c, 0, 48, 76
2, 41697, Note_on_c, 0, 79, 85
2, 41699, Note_on_c, 0, 67, 78
2, 41700, Note_on_c, 0, 72, 68
2, 41713, Control_c, 0, 64, 0
2, 41731, Note_on_c, 0, 64, 0
2, 41731, Note_on_c, 0, 60, 0
2, 41732, Note_on_c, 0, 53, 0
2, 41736, Note_on_c, 0, 41, 0
2, 41736, Note_on_c, 0, 55, 0
2, 41748, Note_on_c, 0, 62, 0
2, 41756, Note_on_c, 0, 57, 0
2, 41756, Note_on_c, 0, 71, 0
2, 41817, Control_c, 0, 64, 127
2, 41925, Note_on_c, 0, 69, 0
2, 42004, Note_on_c, 0, 55, 51
2, 42156, Note_on_c, 0, 60, 59
2, 42331, Note_on_c, 0, 64, 65
2, 42481, Note_on_c, 0, 62, 57
2, 42624, Note_on_c, 0, 55, 0
2, 42634, Note_on_c, 0, 55, 61
2, 42685, Note_on_c, 0, 48, 0
2, 42785, Note_on_c, 0, 67, 0
2, 42796, Note_on_c, 0, 67, 65
2, 43100, Note_on_c, 0, 55, 0
2, 43104, Note_on_c, 0, 55, 48
2, 43269, Note_on_c, 0, 62, 0
2, 43277, Note_on_c, 0, 62, 57
2, 43407, Note_on_c, 0, 60, 0
2, 43413, Note_on_c, 0, 60, 58
2, 43545, Note_on_c, 0, 67, 0
2, 43545, Note_on_c, 0, 79, 0
2, 43551, Note_on_c, 0, 79, 88
2, 43556, Note_on_c, 0, 67, 72
2, 43562, Note_on_c, 0, 76, 85
2, 43776, Note_on_c, 0, 77, 87
2, 43797, Note_on_c, 0, 74, 75
2, 44014, Note_on_c, 0, 76, 0
2, 44020, Note_on_c, 0, 76, 86
2, 44029, Note_on_c, 0, 72, 0
2, 44033, Note_on_c, 0, 72, 75
2, 44197, Note_on_c, 0, 64, 0
2, 44197, Note_on_c, 0, 62, 0
2, 44198, Note_on_c, 0, 74, 0
2, 44198, Note_on_c, 0, 72, 0
2, 44198, Note_on_c, 0, 76, 0
2, 44198, Note_on_c, 0, 60, 0
2, 44199, Note_on_c, 0, 77, 0
2, 44199, Note_on_c, 0, 55, 0
2, 44199, Note_on_c, 0, 79, 0
2, 44203, Control_c, 0, 64, 0
2, 44204, Note_on_c, 0, 76, 85
2, 44209, Note_on_c, 0, 43, 62
2, 44209, Note_on_c, 0, 72, 68
2, 44213, Note_on_c, 0, 67, 0
2, 44282, Control_c, 0, 64, 127
2, 44677, Note_on_c, 0, 74, 79
2, 44820, Note_on_c, 0, 74, 0
2, 44831, Note_on_c, 0, 74, 88
2, 44849, Note_on_c, 0, 62, 69
2, 45014, Note_on_c, 0, 60, 59
2, 45171, Note_on_c, 0, 55, 50
2, 45350, Note_on_c, 0, 67, 45
2, 45634, Note_on_c, 0, 43, 0
2, 45646, Note_on_c, 0, 43, 51
2, 45813, Note_on_c, 0, 50, 47
2, 46079, Note_on_c, 0, 60, 0
2, 46085, Control_c, 0, 64, 0
2, 46103, Note_on_c, 0, 76, 0
2, 46109, Note_on_c, 0, 76, 76
2, 46110, Note_on_c, 0, 72, 0
2, 46118, Note_on_c, 0, 43, 0
2, 46118, Control_c, 0, 64, 127
2, 46125, Note_on_c, 0, 43, 41
2, 46130, Note_on_c, 0, 59, 55
2, 46248, Note_on_c, 0, 74, 0
2, 46252, Note_on_c, 0, 74, 80
2, 46410, Note_on_c, 0, 72, 78
2, 46570, Note_on_c, 0, 71, 68
2, 46732, Note_on_c, 0, 72, 0
2, 46738, Note_on_c, 0, 72, 78
2, 46745, Control_c, 0, 64, 0
2, 46748, Note_on_c, 0, 62, 0
2, 46749, Note_on_c, 0, 50, 0
2, 46750, Note_on_c, 0, 59, 0
2, 46750, Note_on_c, 0, 67, 0
2, 46751, Note_on_c, 0, 71, 0
2, 46751, Note_on_c, 0, 76, 0
2, 46751, Note_on_c, 0, 74, 0
2, 46751, Note_on_c, 0, 43, 0
2, 46763, Note_on_c, 0, 55, 0
2, 46766, Note_on_c, 0, 64, 50
2, 46769, Note_on_c, 0, 45, 51
2, 46769, Note_on_c, 0, 60, 52
2, 46871, Control_c, 0, 64, 127
2, 47373, Note_on_c, 0, 52, 49
2, 47539, Note_on_c, 0, 55, 60
2, 47677, Note_on_c, 0, 60, 0
2, 47688, Note_on_c, 0, 60, 60
2, 47995, Note_on_c, 0, 74, 84
2, 47998, Note_on_c, 0, 71, 67
2, 48007, Note_on_c, 0, 59, 64
2, 48012, Note_on_c, 0, 47, 58
2, 48014, Note_on_c, 0, 62, 54
2, 48017, Note_on_c, 0, 67, 54
2, 48021, Note_on_c, 0, 55, 0
2, 48021, Note_on_c, 0, 52, 0
2, 48023, Note_on_c, 0, 60, 0
2, 48024, Control_c, 0, 64, 0
2, 48024, Note_on_c, 0, 64, 0
2, 48025, Note_on_c, 0, 45, 0
2, 48046, Note_on_c, 0, 72, 0
2, 48115, Control_c, 0, 64, 127
2, 48661, Note_on_c, 0, 55, 59
2, 48791, Note_on_c, 0, 59, 0
2, 48795, Note_on_c, 0, 59, 61
2, 48952, Note_on_c, 0, 62, 0
2, 48963, Note_on_c, 0, 62, 69
2, 49269, Note_on_c, 0, 76, 84
2, 49281, Note_on_c, 0, 48, 58
2, 49282, Note_on_c, 0, 67, 0
2, 49287, Note_on_c, 0, 64, 59
2, 49287, Note_on_c, 0, 60, 61
2, 49288, Note_on_c, 0, 67, 62
2, 49317, Note_on_c, 0, 55, 0
2, 49321, Note_on_c, 0, 59, 0
2, 49322, Note_on_c, 0, 71, 0
2, 49322, Note_on_c, 0, 47, 0
2, 49323, Note_on_c, 0, 74, 0
2, 49326, Control_c, 0, 64, 0
2, 49336, Note_on_c, 0, 62, 0
2, 49436, Control_c, 0, 64, 127
2, 49756, Note_on_c, 0, 55, 65
2, 49912, Note_on_c, 0, 60, 0
2, 49917, Note_on_c, 0, 60, 82
2, 50139, Note_on_c, 0, 77, 82
2, 50144, Note_on_c, 0, 74, 71
2, 50147, Note_on_c, 0, 62, 73
2, 50373, Note_on_c, 0, 64, 0
2, 50373, Note_on_c, 0, 76, 0
2, 50381, Note_on_c, 0, 64, 71
2, 50383, Note_on_c, 0, 76, 79
2, 50569, Note_on_c, 0, 72, 81
2, 50587, Note_on_c, 0, 41, 60
2, 50588, Note_on_c, 0, 60, 0
2, 50588, Note_on_c, 0, 67, 0
2, 50592, Note_on_c, 0, 60, 65
2, 50596, Note_on_c, 0, 67, 63
2, 50599, Note_on_c, 0, 65, 62
2, 50626, Note_on_c, 0, 48, 0
2, 50627, Note_on_c, 0, 55, 0
2, 50627, Note_on_c, 0, 77, 0
2, 50627, Note_on_c, 0, 62, 0
2, 50630, Control_c, 0, 64, 0
2, 50641, Note_on_c, 0, 64, 0
2, 50641, Note_on_c, 0, 76, 0
2, 50649, Note_on_c, 0, 74, 0
2, 50726, Control_c, 0, 64, 127
2, 51048, Note_on_c, 0, 60, 0
2, 51054, Note_on_c, 0, 57, 55
2, 51060, Note_on_c, 0, 60, 40
2, 51530, Note_on_c, 0, 40, 62
2, 51840, Note_on_c, 0, 72, 0
2, 51844, Note_on_c, 0, 72, 77
2, 51851, Note_on_c, 0, 57, 0
2, 51855, Note_on_c, 0, 60, 0
2, 51859, Control_c, 0, 64, 0
2, 51859, Note_on_c, 0, 69, 62
2, 51861, Note_on_c, 0, 38, 61
2, 51863, Note_on_c, 0, 65, 0
2, 51864, Note_on_c, 0, 60, 60
2, 51866, Note_on_c, 0, 40, 0
2, 51868, Note_on_c, 0, 65, 59
2, 51901, Note_on_c, 0, 67, 0
2, 51932, Note_on_c, 0, 41, 0
2, 51947, Control_c, 0, 64, 127
2, 52147, Note_on_c, 0, 72, 0
2, 52158, Note_on_c, 0, 72, 70
2, 52308, Note_on_c, 0, 72, 0
2, 52319, Note_on_c, 0, 72, 73
2, 52462, Note_on_c, 0, 60, 0
2, 52471, Note_on_c, 0, 57, 67
2, 52472, Note_on_c, 0, 60, 72
2, 52623, Note_on_c, 0, 72, 0
2, 52634, Note_on_c, 0, 72, 76
2, 52938, Note_on_c, 0, 72, 0
2, 52943, Note_on_c, 0, 72, 71
2, 53084, Note_on_c, 0, 72, 0
2, 53095, Note_on_c, 0, 72, 78
2, 53098, Note_on_c, 0, 43, 66
2, 53099, Note_on_c, 0, 65, 0
2, 53099, Note_on_c, 0, 69, 0
2, 53104, Note_on_c, 0, 69, 70
2, 53109, Note_on_c, 0, 65, 65
2, 53121, Note_on_c, 0, 57, 0
2, 53125, Control_c, 0, 64, 0
2, 53130, Note_on_c, 0, 38, 0
2, 53153, Note_on_c, 0, 60, 0
2, 53184, Control_c, 0, 64, 127
2, 53421, Note_on_c, 0, 71, 77
2, 53566, Note_on_c, 0, 59, 77
2, 53736, Note_on_c, 0, 72, 0
2, 53741, Note_on_c, 0, 72, 89
2, 53867, Note_on_c, 0, 43, 0
2, 53873, Note_on_c, 0, 43, 65
2, 54041, Note_on_c, 0, 74, 84
2, 54044, Note_on_c, 0, 71, 0
2, 54047, Note_on_c, 0, 53, 68
2, 54054, Note_on_c, 0, 71, 60
2, 54059, Note_on_c, 0, 67, 53
2, 54067, Note_on_c, 0, 67, 0
2, 54336, Note_on_c, 0, 74, 0
2, 54340, Note_on_c, 0, 74, 82
2, 54343, Note_on_c, 0, 65, 0
2, 54346, Note_on_c, 0, 36, 71
2, 54347, Note_on_c, 0, 67, 67
2, 54348, Note_on_c, 0, 48, 63
2, 54352, Note_on_c, 0, 65, 66
2, 54356, Control_c, 0, 64, 0
2, 54358, Note_on_c, 0, 53, 0
2, 54360, Note_on_c, 0, 59, 0
2, 54360, Note_on_c, 0, 72, 0
2, 54361, Note_on_c, 0, 43, 0
2, 54382, Note_on_c, 0, 69, 0
2, 54458, Control_c, 0, 64, 127
2, 54670, Note_on_c, 0, 76, 75
2, 54812, Note_on_c, 0, 76, 0
2, 54818, Note_on_c, 0, 76, 84
2, 54842, Note_on_c, 0, 67, 0
2, 54846, Note_on_c, 0, 64, 65
2, 54847, Note_on_c, 0, 67, 54
2, 54976, Note_on_c, 0, 60, 72
2, 54984, Note_on_c, 0, 55, 69
2, 55300, Note_on_c, 0, 59, 65
2, 55426, Note_on_c, 0, 60, 0
2, 55434, Note_on_c, 0, 36, 0
2, 55437, Note_on_c, 0, 60, 75
2, 55438, Note_on_c, 0, 36, 74
2, 55482, Note_on_c, 0, 48, 0
2, 55486, Control_c, 0, 64, 0
2, 55488, Note_on_c, 0, 55, 0
2, 55490, Note_on_c, 0, 59, 0
2, 55492, Note_on_c, 0, 64, 0
2, 55492, Note_on_c, 0, 67, 0
2, 55495, Note_on_c, 0, 71, 0
2, 55511, Note_on_c, 0, 65, 0
2, 55511, Note_on_c, 0, 74, 0
2, 55511, Note_on_c, 0, 76, 0
2, 55526, Control_c, 0, 64, 127
2, 55605, Note_on_c, 0, 62, 87
2, 55745, Note_on_c, 0, 43, 68
2, 55902, Note_on_c, 0, 60, 0
2, 55913, Note_on_c, 0, 60, 81
2, 56073, Note_on_c, 0, 40, 78
2, 56075, Note_on_c, 0, 52, 71
2, 56098, Control_c, 0, 64, 0
2, 56133, Control_c, 0, 64, 127
2, 56186, Note_on_c, 0, 36, 0
2, 56224, Note_on_c, 0, 65, 86
2, 56232, Note_on_c, 0, 43, 0
2, 56235, Note_on_c, 0, 59, 75
2, 56236, Note_on_c, 0, 56, 76
2, 56409, Note_on_c, 0, 47, 74
2, 56542, Note_on_c, 0, 64, 86
2, 56692, Note_on_c, 0, 45, 80
2, 56823, Control_c, 0, 64, 0
2, 56825, Note_on_c, 0, 59, 0
2, 56826, Note_on_c, 0, 65, 0
2, 56826, Note_on_c, 0, 47, 0
2, 56826, Note_on_c, 0, 40, 0
2, 56827, Note_on_c, 0, 56, 0
2, 56832, Note_on_c, 0, 62, 0
2, 56839, Note_on_c, 0, 60, 0
2, 56847, Note_on_c, 0, 52, 0
2, 56855, Note_on_c, 0, 45, 0
2, 56862, Note_on_c, 0, 72, 92
2, 56862, Note_on_c, 0, 64, 0
2, 56863, Note_on_c, 0, 45, 77
2, 56864, Note_on_c, 0, 57, 82
2, 56866, Note_on_c, 0, 69, 82
2, 56871, Note_on_c, 0, 64, 78
2, 56873, Note_on_c, 0, 60, 87
2, 56924, Control_c, 0, 64, 127
2, 57327, Note_on_c, 0, 33, 72
2, 57493, Note_on_c, 0, 52, 80
2, 57630, Note_on_c, 0, 57, 0
2, 57641, Note_on_c, 0, 57, 80
2, 57799, Note_on_c, 0, 60, 0
2, 57804, Note_on_c, 0, 60, 81
2, 57945, Note_on_c, 0, 64, 0
2, 57952, Note_on_c, 0, 64, 79
2, 58111, Control_c, 0, 64, 0
2, 58117, Note_on_c, 0, 52, 0
2, 58117, Note_on_c, 0, 57, 0
2, 58117, Note_on_c, 0, 45, 0
2, 58117, Note_on_c, 0, 74, 94
2, 58118, Note_on_c, 0, 60, 0
2, 58118, Note_on_c, 0, 64, 0
2, 58118, Note_on_c, 0, 33, 0
2, 58118, Note_on_c, 0, 69, 0
2, 58118, Note_on_c, 0, 47, 81
2, 58124, Note_on_c, 0, 59, 83
2, 58127, Note_on_c, 0, 71, 73
2, 58128, Note_on_c, 0, 62, 83
2, 58133, Note_on_c, 0, 67, 71
2, 58137, Note_on_c, 0, 72, 0
2, 58206, Control_c, 0, 64, 127
2, 58572, Note_on_c, 0, 35, 76
2, 58741, Note_on_c, 0, 55, 89
2, 58897, Note_on_c, 0, 59, 0
2, 58908, Note_on_c, 0, 59, 80
2, 59051, Note_on_c, 0, 62, 0
2, 59061, Note_on_c, 0, 62, 82
2, 59205, Note_on_c, 0, 67, 0
2, 59209, Note_on_c, 0, 67, 78
2, 59352, Control_c, 0, 64, 0
2, 59354, Note_on_c, 0, 71, 0
2, 59354, Note_on_c, 0, 59, 0
2, 59354, Note_on_c, 0, 35, 0
2, 59354, Note_on_c, 0, 47, 0
2, 59354, Note_on_c, 0, 55, 0
2, 59355, Note_on_c, 0, 74, 0
2, 59374, Note_on_c, 0, 62, 0
2, 59374, Note_on_c, 0, 67, 0
2, 59374, Note_on_c, 0, 76, 95
2, 59378, Note_on_c, 0, 64, 85
2, 59378, Note_on_c, 0, 72, 81
2, 59380, Note_on_c, 0, 60, 88
2, 59380, Note_on_c, 0, 67, 73
2, 59383, Note_on_c, 0, 48, 80
2, 59435, Control_c, 0, 64, 127
2, 59839, Note_on_c, 0, 36, 81
2, 60010, Note_on_c, 0, 55, 84
2, 60226, Note_on_c, 0, 72, 0
2, 60231, Note_on_c, 0, 77, 93
2, 60234, Note_on_c, 0, 60, 0
2, 60237, Note_on_c, 0, 72, 83
2, 60238, Note_on_c, 0, 60, 79
2, 60249, Note_on_c, 0, 67, 0
2, 60253, Note_on_c, 0, 67, 75
2, 60464, Note_on_c, 0, 76, 0
2, 60474, Note_on_c, 0, 76, 89
2, 60478, Note_on_c, 0, 62, 71
2, 60541, Note_on_c, 0, 36, 0
2, 60545, Note_on_c, 0, 36, 47
2, 60641, Note_on_c, 0, 72, 0
2, 60651, Note_on_c, 0, 72, 87
2, 60656, Note_on_c, 0, 60, 0
2, 60661, Note_on_c, 0, 41, 77
2, 60663, Note_on_c, 0, 60, 76
2, 60664, Note_on_c, 0, 67, 0
2, 60668, Note_on_c, 0, 65, 72
2, 60668, Note_on_c, 0, 67, 68
2, 60691, Note_on_c, 0, 64, 0
2, 60692, Note_on_c, 0, 77, 0
2, 60692, Note_on_c, 0, 62, 0
2, 60692, Note_on_c, 0, 55, 0
2, 60692, Note_on_c, 0, 76, 0
2, 60693, Note_on_c, 0, 48, 0
2, 60694, Note_on_c, 0, 36, 0
2, 60696, Control_c, 0, 64, 0
2, 60856, Control_c, 0, 64, 127
2, 60970, Note_on_c, 0, 48, 65
2, 61137, Note_on_c, 0, 57, 74
2, 61143, Note_on_c, 0, 53, 61
2, 61155, Note_on_c, 0, 41, 0
2, 61162, Note_on_c, 0, 41, 51
2, 61455, Note_on_c, 0, 41, 0
2, 61460, Note_on_c, 0, 41, 56
2, 61601, Note_on_c, 0, 72, 0
2, 61612, Note_on_c, 0, 72, 88
2, 61739, Note_on_c, 0, 48, 0
2, 61745, Note_on_c, 0, 48, 69
2, 61747, Note_on_c, 0, 67, 0
2, 61752, Note_on_c, 0, 67, 67
2, 61808, Note_on_c, 0, 72, 0
2, 61818, Note_on_c, 0, 72, 72
2, 61885, Note_on_c, 0, 75, 83
2, 61910, Control_c, 0, 64, 0
2, 61914, Note_on_c, 0, 79, 85
2, 61917, Note_on_c, 0, 44, 83
2, 61926, Note_on_c, 0, 57, 0
2, 61926, Note_on_c, 0, 67, 0
2, 61926, Note_on_c, 0, 41, 0
2, 61927, Note_on_c, 0, 53, 0
2, 61927, Note_on_c, 0, 65, 0
2, 61928, Note_on_c, 0, 48, 0
2, 61939, Note_on_c, 0, 60, 0
2, 62008, Control_c, 0, 64, 127
2, 62215, Note_on_c, 0, 79, 0
2, 62222, Note_on_c, 0, 79, 77
2, 62231, Note_on_c, 0, 72, 0
2, 62231, Note_on_c, 0, 75, 0
2, 62236, Note_on_c, 0, 75, 77
2, 62240, Note_on_c, 0, 72, 73
2, 62252, Note_on_c, 0, 51, 58
2, 62376, Note_on_c, 0, 72, 0
2, 62376, Note_on_c, 0, 75, 0
2, 62376, Note_on_c, 0, 79, 0
2, 62383, Note_on_c, 0, 72, 76
2, 62383, Note_on_c, 0, 79, 80
2, 62385, Note_on_c, 0, 75, 85
2, 62388, Note_on_c, 0, 56, 70
2, 62557, Note_on_c, 0, 58, 66
2, 62699, Note_on_c, 0, 75, 0
2, 62701, Note_on_c, 0, 60, 77
2, 62705, Note_on_c, 0, 80, 90
2, 62707, Note_on_c, 0, 72, 0
2, 62708, Note_on_c, 0, 75, 73
2, 62714, Note_on_c, 0, 72, 67
2, 62860, Note_on_c, 0, 56, 0
2, 62870, Note_on_c, 0, 56, 67
2, 63014, Note_on_c, 0, 60, 0
2, 63014, Note_on_c, 0, 79, 0
2, 63024, Note_on_c, 0, 60, 76
2, 63025, Note_on_c, 0, 79, 88
2, 63029, Note_on_c, 0, 72, 0
2, 63029, Note_on_c, 0, 75, 0
2, 63035, Note_on_c, 0, 72, 77
2, 63040, Note_on_c, 0, 75, 87
2, 63188, Note_on_c, 0, 63, 83
2, 63188, Note_on_c, 0, 67, 73
2, 63198, Note_on_c, 0, 56, 0
2, 63208, Note_on_c, 0, 56, 53
2, 63487, Note_on_c, 0, 77, 88
2, 63644, Note_on_c, 0, 63, 0
2, 63647, Note_on_c, 0, 65, 75
2, 63649, Note_on_c, 0, 63, 69
2, 63667, Note_on_c, 0, 56, 0
2, 63671, Note_on_c, 0, 56, 42
2, 63805, Note_on_c, 0, 75, 0
2, 63814, Note_on_c, 0, 75, 99
2, 63951, Note_on_c, 0, 56, 0
2, 63956, Note_on_c, 0, 56, 74
2, 64120, Note_on_c, 0, 60, 0
2, 64120, Note_on_c, 0, 63, 0
2, 64120, Note_on_c, 0, 72, 0
2, 64120, Note_on_c, 0, 77, 0
2, 64127, Note_on_c, 0, 77, 90
2, 64131, Note_on_c, 0, 72, 72
2, 64131, Note_on_c, 0, 63, 81
2, 64131, Note_on_c, 0, 60, 78
2, 64445, Note_on_c, 0, 74, 91
2, 64446, Note_on_c, 0, 43, 70
2, 64450, Note_on_c, 0, 65, 0
2, 64459, Note_on_c, 0, 69, 74
2, 64461, Note_on_c, 0, 65, 69
2, 64465, Note_on_c, 0, 58, 0
2, 64472, Note_on_c, 0, 80, 0
2, 64472, Note_on_c, 0, 51, 0
2, 64474, Note_on_c, 0, 79, 0
2, 64474, Note_on_c, 0, 67, 0
2, 64474, Note_on_c, 0, 72, 0
2, 64476, Note_on_c, 0, 77, 0
2, 64476, Note_on_c, 0, 56, 0
2, 64479, Control_c, 0, 64, 0
2, 64488, Note_on_c, 0, 44, 0
2, 64488, Note_on_c, 0, 60, 0
2, 64496, Note_on_c, 0, 63, 0
2, 64504, Note_on_c, 0, 75, 0
2, 64596, Control_c, 0, 64, 127
2, 64777, Note_on_c, 0, 50, 60
2, 64931, Note_on_c, 0, 53, 59
2, 65077, Note_on_c, 0, 57, 78
2, 65230, Note_on_c, 0, 60, 80
2, 65402, Note_on_c, 0, 50, 0
2, 65412, Note_on_c, 0, 50, 59
2, 65575, Note_on_c, 0, 62, 83
2, 65903, Note_on_c, 0, 55, 68
2, 66032, Note_on_c, 0, 50, 0
2, 66037, Note_on_c, 0, 50, 64
2, 66193, Note_on_c, 0, 43, 0
2, 66201, Note_on_c, 0, 43, 76
2, 66342, Note_on_c, 0, 71, 95
2, 66586, Note_on_c, 0, 72, 98
2, 66680, Note_on_c, 0, 41, 83
2, 66800, Note_on_c, 0, 74, 0
2, 66806, Note_on_c, 0, 74, 93
2, 66961, Control_c, 0, 64, 0
2, 66964, Note_on_c, 0, 50, 0
2, 66965, Note_on_c, 0, 74, 0
2, 66965, Note_on_c, 0, 69, 0
2, 66965, Note_on_c, 0, 62, 0
2, 66965, Note_on_c, 0, 53, 0
2, 66965, Note_on_c, 0, 72, 0
2, 66965, Note_on_c, 0, 41, 0
2, 66965, Note_on_c, 0, 57, 0
2, 66965, Note_on_c, 0, 60, 0
2, 66966, Note_on_c, 0, 43, 0
2, 66977, Note_on_c, 0, 55, 0
2, 66977, Note_on_c, 0, 65, 0
2, 66984, Note_on_c, 0, 71, 0
2, 66988, Note_on_c, 0, 40, 85
2, 66991, Note_on_c, 0, 76, 101
2, 66996, Note_on_c, 0, 71, 80
2, 67001, Note_on_c, 0, 69, 77
2, 67069, Control_c, 0, 64, 127
2, 67278, Note_on_c, 0, 47, 76
2, 67439, Note_on_c, 0, 52, 70
2, 67589, Note_on_c, 0, 57, 89
2, 67749, Note_on_c, 0, 77, 92
2, 67750, Note_on_c, 0, 59, 92
2, 67895, Note_on_c, 0, 64, 90
2, 68037, Note_on_c, 0, 76, 0
2, 68041, Note_on_c, 0, 76, 99
2, 68060, Note_on_c, 0, 71, 0
2, 68064, Note_on_c, 0, 68, 74
2, 68070, Note_on_c, 0, 71, 69
2, 68166, Control_c, 0, 64, 0
2, 68170, Note_on_c, 0, 47, 0
2, 68170, Note_on_c, 0, 69, 0
2, 68170, Note_on_c, 0, 57, 0
2, 68171, Note_on_c, 0, 59, 0
2, 68171, Note_on_c, 0, 64, 0
2, 68171, Note_on_c, 0, 68, 0
2, 68171, Note_on_c, 0, 77, 0
2, 68173, Note_on_c, 0, 40, 0
2, 68198, Note_on_c, 0, 52, 0
2, 68198, Note_on_c, 0, 71, 0
2, 68198, Note_on_c, 0, 76, 0
2, 68202, Note_on_c, 0, 76, 100
2, 68204, Note_on_c, 0, 71, 84
2, 68207, Note_on_c, 0, 68, 88
2, 68207, Note_on_c, 0, 40, 99
2, 68208, Note_on_c, 0, 52, 94
2, 68229, Control_c, 0, 64, 127
2, 68325, Note_on_c, 0, 64, 57
2, 68371, Note_on_c, 0, 62, 67
2, 68401, Note_on_c, 0, 66, 74
2, 68413, Note_on_c, 0, 68, 0
2, 68424, Note_on_c, 0, 68, 87
2, 68496, Note_on_c, 0, 69, 80
2, 68536, Note_on_c, 0, 71, 0
2, 68544, Note_on_c, 0, 71, 78
2, 68588, Note_on_c, 0, 72, 81
2, 68659, Note_on_c, 0, 64, 0
2, 68659, Note_on_c, 0, 76, 0
2, 68662, Note_on_c, 0, 59, 95
2, 68663, Note_on_c, 0, 64, 93
2, 68664, Note_on_c, 0, 56, 86
2, 68670, Note_on_c, 0, 76, 86
2, 68729, Note_on_c, 0, 78, 78
2, 68739, Note_on_c, 0, 80, 74
2, 68823, Note_on_c, 0, 83, 81
2, 68865, Note_on_c, 0, 84, 83
2, 68976, Note_on_c, 0, 88, 103
2, 69104, Note_on_c, 0, 59, 0
2, 69104, Note_on_c, 0, 71, 0
2, 69114, Note_on_c, 0, 71, 100
2, 69115, Note_on_c, 0, 59, 108
2, 69329, Note_on_c, 0, 45, 87
2, 69392, Control_c, 0, 64, 0
2, 69398, Note_on_c, 0, 80, 0
2, 69398, Note_on_c, 0, 56, 0
2, 69398, Note_on_c, 0, 84, 0
2, 69399, Note_on_c, 0, 71, 0
2, 69399, Note_on_c, 0, 52, 0
2, 69399, Note_on_c, 0, 66, 0
2, 69399, Note_on_c, 0, 83, 0
2, 69399, Note_on_c, 0, 76, 0
2, 69399, Note_on_c, 0, 62, 0
2, 69399, Note_on_c, 0, 69, 0
2, 69400, Note_on_c, 0, 88, 0
2, 69411, Note_on_c, 0, 40, 0
2, 69411, Note_on_c, 0, 59, 0
2, 69411, Note_on_c, 0, 68, 0
2, 69411, Note_on_c, 0, 72, 0
2, 69411, Note_on_c, 0, 78, 0
2, 69419, Note_on_c, 0, 64, 0
2, 69423, Note_on_c, 0, 72, 104
2, 69427, Note_on_c, 0, 45, 0
2, 69429, Note_on_c, 0, 60, 101
2, 69430, Note_on_c, 0, 64, 90
2, 69431, Note_on_c, 0, 33, 90
2, 69431, Note_on_c, 0, 45, 87
2, 69473, Control_c, 0, 64, 127
2, 69534, Note_on_c, 0, 33, 0
2, 69762, Note_on_c, 0, 71, 90
2, 69764, Note_on_c, 0, 59, 90
2, 69911, Note_on_c, 0, 72, 0
2, 69918, Note_on_c, 0, 60, 0
2, 69922, Note_on_c, 0, 72, 102
2, 69925, Note_on_c, 0, 60, 93
2, 70237, Note_on_c, 0, 79, 94
2, 70242, Note_on_c, 0, 67, 93
2, 70392, Note_on_c, 0, 52, 74
2, 70548, Note_on_c, 0, 79, 0
2, 70553, Note_on_c, 0, 79, 95
2, 70556, Note_on_c, 0, 67, 0
2, 70556, Note_on_c, 0, 72, 0
2, 70564, Note_on_c, 0, 67, 88
2, 70565, Note_on_c, 0, 33, 78
2, 70566, Note_on_c, 0, 72, 85
2, 70566, Note_on_c, 0, 76, 79
2, 70571, Note_on_c, 0, 33, 0
2, 70686, Note_on_c, 0, 45, 0
2, 70696, Note_on_c, 0, 45, 86
2, 70848, Note_on_c, 0, 59, 0
2, 70851, Note_on_c, 0, 59, 67
2, 71009, Note_on_c, 0, 60, 0
2, 71020, Note_on_c, 0, 60, 79
2, 71185, Note_on_c, 0, 67, 0
2, 71195, Note_on_c, 0, 67, 92
2, 71503, Note_on_c, 0, 57, 84
2, 71654, Note_on_c, 0, 59, 0
2, 71654, Note_on_c, 0, 71, 0
2, 71658, Note_on_c, 0, 71, 98
2, 71661, Note_on_c, 0, 59, 91
2, 71815, Note_on_c, 0, 60, 0
2, 71820, Note_on_c, 0, 60, 83
2, 71984, Note_on_c, 0, 72, 0
2, 71989, Note_on_c, 0, 72, 94
2, 71991, Note_on_c, 0, 69, 86
2, 71995, Note_on_c, 0, 41, 93
2, 71995, Note_on_c, 0, 65, 87
2, 71996, Note_on_c, 0, 29, 97
2, 72015, Control_c, 0, 64, 0
2, 72020, Note_on_c, 0, 52, 0
2, 72021, Note_on_c, 0, 76, 0
2, 72021, Note_on_c, 0, 59, 0
2, 72021, Note_on_c, 0, 71, 0
2, 72022, Note_on_c, 0, 67, 0
2, 72022, Note_on_c, 0, 45, 0
2, 72022, Note_on_c, 0, 79, 0
2, 72023, Note_on_c, 0, 64, 0
2, 72024, Note_on_c, 0, 60, 0
2, 72046, Note_on_c, 0, 57, 0
2, 72107, Control_c, 0, 64, 127
2, 72153, Note_on_c, 0, 29, 0
2, 72303, Note_on_c, 0, 71, 86
2, 72319, Note_on_c, 0, 59, 83
2, 72468, Note_on_c, 0, 72, 0
2, 72472, Note_on_c, 0, 72, 92
2, 72477, Note_on_c, 0, 60, 86
2, 72806, Note_on_c, 0, 69, 0
2, 72810, Note_on_c, 0, 79, 92
2, 72815, Note_on_c, 0, 67, 90
2, 72817, Note_on_c, 0, 69, 70
2, 72956, Note_on_c, 0, 48, 77
2, 73121, Note_on_c, 0, 67, 0
2, 73121, Note_on_c, 0, 72, 0
2, 73121, Note_on_c, 0, 79, 0
2, 73125, Note_on_c, 0, 79, 91
2, 73130, Note_on_c, 0, 67, 93
2, 73131, Note_on_c, 0, 72, 90
2, 73133, Note_on_c, 0, 76, 88
2, 73267, Note_on_c, 0, 41, 0
2, 73278, Note_on_c, 0, 41, 78
2, 73420, Note_on_c, 0, 59, 0
2, 73420, Note_on_c, 0, 69, 0
2, 73426, Note_on_c, 0, 81, 93
2, 73428, Note_on_c, 0, 69, 89
2, 73431, Note_on_c, 0, 59, 82
2, 73574, Note_on_c, 0, 79, 0
2, 73582, Note_on_c, 0, 69, 0
2, 73582, Note_on_c, 0, 72, 0
2, 73582, Note_on_c, 0, 76, 0
2, 73583, Note_on_c, 0, 79, 87
2, 73586, Note_on_c, 0, 76, 89
2, 73587, Note_on_c, 0, 72, 85
2, 73587, Note_on_c, 0, 69, 74
2, 73751, Note_on_c, 0, 69, 0
2, 73757, Note_on_c, 0, 69, 95
2, 74042, Note_on_c, 0, 67, 0
2, 74049, Note_on_c, 0, 67, 85
2, 74219, Note_on_c, 0, 72, 0
2, 74225, Note_on_c, 0, 72, 95
2, 74371, Note_on_c, 0, 74, 98
2, 74383, Note_on_c, 0, 43, 76
2, 74526, Note_on_c, 0, 72, 0
2, 74526, Note_on_c, 0, 76, 0
2, 74532, Note_on_c, 0, 76, 100
2, 74534, Note_on_c, 0, 67, 0
2, 74535, Note_on_c, 0, 72, 93
2, 74538, Note_on_c, 0, 67, 75
2, 74538, Note_on_c, 0, 36, 86
2, 74549, Note_on_c, 0, 65, 0
2, 74567, Note_on_c, 0, 69, 0
2, 74567, Note_on_c, 0, 74, 0
2, 74568, Note_on_c, 0, 48, 0
2, 74568, Note_on_c, 0, 79, 0
2, 74568, Note_on_c, 0, 81, 0
2, 74568, Note_on_c, 0, 71, 0
2, 74570, Control_c, 0, 64, 0
2, 74571, Note_on_c, 0, 43, 0
2, 74572, Note_on_c, 0, 60, 0
2, 74580, Note_on_c, 0, 41, 0
2, 74580, Note_on_c, 0, 59, 0
2, 74703, Control_c, 0, 64, 127
2, 74841, Note_on_c, 0, 76, 0
2, 74852, Note_on_c, 0, 76, 77
2, 74853, Note_on_c, 0, 77, 90
2, 75018, Note_on_c, 0, 67, 0
2, 75018, Note_on_c, 0, 72, 0
2, 75018, Note_on_c, 0, 76, 0
2, 75022, Note_on_c, 0, 76, 92
2, 75028, Note_on_c, 0, 72, 80
2, 75028, Note_on_c, 0, 67, 78
2, 75317, Note_on_c, 0, 77, 0
2, 75327, Note_on_c, 0, 77, 94
2, 75481, Note_on_c, 0, 48, 72
2, 75624, Note_on_c, 0, 76, 0
2, 75632, Note_on_c, 0, 67, 0
2, 75632, Note_on_c, 0, 72, 0
2, 75632, Note_on_c, 0, 76, 96
2, 75637, Note_on_c, 0, 55, 80
2, 75638, Note_on_c, 0, 72, 81
2, 75642, Note_on_c, 0, 67, 77
2, 75782, Note_on_c, 0, 60, 84
2, 75783, Note_on_c, 0, 64, 87
2, 76106, Note_on_c, 0, 74, 92
2, 76254, Note_on_c, 0, 60, 0
2, 76254, Note_on_c, 0, 74, 0
2, 76258, Note_on_c, 0, 60, 87
2, 76260, Note_on_c, 0, 74, 80
2, 76261, Note_on_c, 0, 62, 86
2, 76416, Note_on_c, 0, 72, 0
2, 76422, Note_on_c, 0, 72, 87
2, 76561, Note_on_c, 0, 55, 0
2, 76570, Note_on_c, 0, 55, 86
2, 76715, Note_on_c, 0, 74, 0
2, 76722, Note_on_c, 0, 74, 91
2, 76723, Note_on_c, 0, 60, 0
2, 76727, Note_on_c, 0, 60, 81
2, 77045, Note_on_c, 0, 74, 0
2, 77047, Control_c, 0, 64, 0
2, 77050, Note_on_c, 0, 76, 0
2, 77050, Note_on_c, 0, 64, 0
2, 77050, Note_on_c, 0, 77, 0
2, 77050, Note_on_c, 0, 60, 0
2, 77050, Note_on_c, 0, 74, 93
2, 77050, Note_on_c, 0, 71, 86
2, 77051, Note_on_c, 0, 55, 0
2, 77051, Note_on_c, 0, 48, 0
2, 77053, Note_on_c, 0, 62, 0
2, 77053, Note_on_c, 0, 67, 0
2, 77056, Note_on_c, 0, 36, 0
2, 77057, Note_on_c, 0, 31, 87
2, 77057, Note_on_c, 0, 62, 90
2, 77058, Note_on_c, 0, 43, 87
2, 77058, Note_on_c, 0, 67, 76
2, 77068, Note_on_c, 0, 72, 0
2, 77176, Control_c, 0, 64, 127
2, 77291, Note_on_c, 0, 31, 0
2, 77345, Note_on_c, 0, 43, 0
2, 77352, Note_on_c, 0, 43, 70
2, 77509, Note_on_c, 0, 50, 70
2, 77664, Note_on_c, 0, 55, 85
2, 77807, Note_on_c, 0, 57, 94
2, 77964, Note_on_c, 0, 52, 84
2, 78074, Note_on_c, 0, 55, 0
2, 78075, Control_c, 0, 64, 0
2, 78076, Note_on_c, 0, 62, 0
2, 78077, Note_on_c, 0, 50, 0
2, 78077, Note_on_c, 0, 43, 0
2, 78077, Note_on_c, 0, 67, 0
2, 78077, Note_on_c, 0, 57, 0
2, 78120, Note_on_c, 0, 59, 100
2, 78123, Note_on_c, 0, 40, 95
2, 78131, Note_on_c, 0, 28, 83
2, 78136, Note_on_c, 0, 28, 0
2, 78151, Control_c, 0, 64, 127
2, 78420, Note_on_c, 0, 59, 0
2, 78420, Note_on_c, 0, 71, 0
2, 78426, Note_on_c, 0, 62, 90
2, 78429, Note_on_c, 0, 71, 92
2, 78430, Note_on_c, 0, 59, 87
2, 78431, Note_on_c, 0, 56, 80
2, 78432, Note_on_c, 0, 68, 76
2, 78587, Note_on_c, 0, 76, 95
2, 78720, Note_on_c, 0, 52, 0
2, 78725, Note_on_c, 0, 81, 102
2, 78727, Note_on_c, 0, 52, 91
2, 78885, Note_on_c, 0, 83, 103
2, 79019, Note_on_c, 0, 40, 0
2, 79026, Note_on_c, 0, 40, 94
2, 79088, Note_on_c, 0, 52, 0
2, 79097, Note_on_c, 0, 52, 78
2, 79180, Note_on_c, 0, 59, 0
2, 79180, Note_on_c, 0, 71, 0
2, 79184, Note_on_c, 0, 71, 103
2, 79188, Note_on_c, 0, 59, 99
2, 79344, Note_on_c, 0, 47, 85
2, 79470, Note_on_c, 0, 56, 0
2, 79470, Note_on_c, 0, 71, 0
2, 79470, Note_on_c, 0, 62, 0
2, 79470, Control_c, 0, 64, 0
2, 79470, Note_on_c, 0, 52, 0
2, 79470, Note_on_c, 0, 68, 0
2, 79471, Note_on_c, 0, 81, 0
2, 79471, Note_on_c, 0, 76, 0
2, 79472, Note_on_c, 0, 40, 0
2, 79472, Note_on_c, 0, 83, 0
2, 79472, Note_on_c, 0, 47, 0
2, 79480, Note_on_c, 0, 74, 0
2, 79488, Note_on_c, 0, 59, 0
2, 79505, Note_on_c, 0, 72, 105
2, 79511, Note_on_c, 0, 60, 101
2, 79511, Note_on_c, 0, 64, 88
2, 79514, Note_on_c, 0, 45, 95
2, 79515, Note_on_c, 0, 33, 92
2, 79515, Note_on_c, 0, 69, 74
2, 79572, Control_c, 0, 64, 127
2, 79580, Note_on_c, 0, 33, 0
2, 79837, Note_on_c, 0, 71, 88
2, 79843, Note_on_c, 0, 59, 85
2, 79994, Note_on_c, 0, 60, 0
2, 79994, Note_on_c, 0, 72, 0
2, 79999, Note_on_c, 0, 72, 101
2, 79999, Note_on_c, 0, 60, 94
2, 80329, Note_on_c, 0, 79, 96
2, 80336, Note_on_c, 0, 67, 92
2, 80499, Note_on_c, 0, 52, 77
2, 80655, Note_on_c, 0, 79, 0
2, 80663, Note_on_c, 0, 67, 0
2, 80663, Note_on_c, 0, 72, 0
2, 80664, Note_on_c, 0, 79, 96
2, 80667, Note_on_c, 0, 76, 92
2, 80667, Note_on_c, 0, 72, 91
2, 80668, Note_on_c, 0, 67, 88
2, 80793, Note_on_c, 0, 45, 0
2, 80800, Note_on_c, 0, 45, 92
2, 80939, Note_on_c, 0, 59, 0
2, 80947, Note_on_c, 0, 59, 69
2, 81116, Note_on_c, 0, 60, 0
2, 81122, Note_on_c, 0, 60, 76
2, 81285, Note_on_c, 0, 67, 0
2, 81289, Note_on_c, 0, 67, 93
2, 81595, Note_on_c, 0, 57, 86
2, 81745, Note_on_c, 0, 71, 0
2, 81753, Note_on_c, 0, 71, 100
2, 81761, Note_on_c, 0, 59, 0
2, 81766, Note_on_c, 0, 59, 89
2, 81899, Note_on_c, 0, 60, 0
2, 81909, Note_on_c, 0, 60, 81
2, 82068, Note_on_c, 0, 72, 0
2, 82076, Note_on_c, 0, 60, 0
2, 82076, Note_on_c, 0, 69, 0
2, 82079, Note_on_c, 0, 72, 98
2, 82082, Note_on_c, 0, 69, 86
2, 82086, Note_on_c, 0, 60, 87
2, 82088, Note_on_c, 0, 65, 89
2, 82091, Control_c, 0, 64, 0
2, 82092, Note_on_c, 0, 41, 91
2, 82093, Note_on_c, 0, 29, 91
2, 82095, Note_on_c, 0, 52, 0
2, 82095, Note_on_c, 0, 71, 0
2, 82096, Note_on_c, 0, 45, 0
2, 82096, Note_on_c, 0, 59, 0
2, 82096, Note_on_c, 0, 67, 0
2, 82096, Note_on_c, 0, 64, 0
2, 82096, Note_on_c, 0, 76, 0
2, 82096, Note_on_c, 0, 79, 0
2, 82114, Note_on_c, 0, 57, 0
2, 82168, Control_c, 0, 64, 127
2, 82176, Note_on_c, 0, 29, 0
2, 82387, Note_on_c, 0, 71, 83
2, 82400, Note_on_c, 0, 59, 84
2, 82552, Note_on_c, 0, 60, 0
2, 82552, Note_on_c, 0, 72, 0
2, 82557, Note_on_c, 0, 72, 95
2, 82561, Note_on_c, 0, 60, 90
2, 82882, Note_on_c, 0, 72, 0
2, 82888, Note_on_c, 0, 79, 92
2, 82888, Note_on_c, 0, 75, 79
2, 82890, Note_on_c, 0, 72, 77
2, 82893, Note_on_c, 0, 67, 89
2, 83046, Note_on_c, 0, 48, 80
2, 83197, Note_on_c, 0, 72, 0
2, 83197, Note_on_c, 0, 79, 0
2, 83205, Note_on_c, 0, 48, 0
2, 83205, Note_on_c, 0, 67, 0
2, 83208, Note_on_c, 0, 79, 88
2, 83208, Note_on_c, 0, 72, 91
2, 83209, Note_on_c, 0, 67, 88
2, 83210, Note_on_c, 0, 48, 75
2, 83213, Note_on_c, 0, 76, 91
2, 83343, Note_on_c, 0, 41, 0
2, 83353, Note_on_c, 0, 41, 77
2, 83512, Note_on_c, 0, 59, 0
2, 83512, Note_on_c, 0, 69, 0
2, 83515, Note_on_c, 0, 81, 90
2, 83517, Note_on_c, 0, 69, 83
2, 83520, Note_on_c, 0, 75, 0
2, 83520, Note_on_c, 0, 59, 80
2, 83525, Note_on_c, 0, 75, 63
2, 83665, Note_on_c, 0, 79, 0
2, 83672, Note_on_c, 0, 79, 90
2, 83673, Note_on_c, 0, 60, 0
2, 83673, Note_on_c, 0, 72, 0
2, 83673, Note_on_c, 0, 76, 0
2, 83679, Note_on_c, 0, 60, 76
2, 83680, Note_on_c, 0, 72, 84
2, 83682, Note_on_c, 0, 76, 86
2, 83834, Note_on_c, 0, 69, 0
2, 83842, Note_on_c, 0, 69, 86
2, 84134, Note_on_c, 0, 67, 0
2, 84141, Note_on_c, 0, 67, 86
2, 84295, Note_on_c, 0, 72, 0
2, 84306, Note_on_c, 0, 72, 94
2, 84454, Note_on_c, 0, 74, 99
2, 84468, Note_on_c, 0, 43, 71
2, 84610, Note_on_c, 0, 67, 0
2, 84610, Note_on_c, 0, 72, 0
2, 84610, Note_on_c, 0, 76, 0
2, 84616, Note_on_c, 0, 76, 99
2, 84620, Note_on_c, 0, 36, 87
2, 84621, Note_on_c, 0, 72, 92
2, 84622, Note_on_c, 0, 67, 82
2, 84629, Note_on_c, 0, 79, 0
2, 84631, Note_on_c, 0, 48, 0
2, 84632, Note_on_c, 0, 59, 0
2, 84633, Control_c, 0, 64, 0
2, 84633, Note_on_c, 0, 75, 0
2, 84634, Note_on_c, 0, 65, 0
2, 84635, Note_on_c, 0, 69, 0
2, 84636, Note_on_c, 0, 71, 0
2, 84638, Note_on_c, 0, 74, 0
2, 84648, Note_on_c, 0, 41, 0
2, 84648, Note_on_c, 0, 81, 0
2, 84656, Note_on_c, 0, 60, 0
2, 84695, Control_c, 0, 64, 127
2, 84933, Note_on_c, 0, 43, 0
2, 84934, Note_on_c, 0, 77, 92
2, 85094, Note_on_c, 0, 76, 0
2, 85098, Note_on_c, 0, 76, 94
2, 85102, Note_on_c, 0, 72, 0
2, 85106, Note_on_c, 0, 72, 80
2, 85109, Note_on_c, 0, 67, 0
2, 85114, Note_on_c, 0, 67, 70
2, 85347, Note_on_c, 0, 76, 0
2, 85356, Note_on_c, 0, 76, 58
2, 85401, Note_on_c, 0, 77, 0
2, 85408, Note_on_c, 0, 77, 97
2, 85565, Note_on_c, 0, 48, 78
2, 85716, Note_on_c, 0, 76, 0
2, 85725, Note_on_c, 0, 76, 98
2, 85731, Note_on_c, 0, 67, 0
2, 85731, Note_on_c, 0, 72, 0
2, 85732, Note_on_c, 0, 55, 77
2, 85735, Note_on_c, 0, 72, 80
2, 85740, Note_on_c, 0, 67, 75
2, 85877, Note_on_c, 0, 60, 85
2, 85879, Note_on_c, 0, 64, 83
2, 86197, Note_on_c, 0, 74, 96
2, 86353, Note_on_c, 0, 60, 0
2, 86357, Note_on_c, 0, 62, 82
2, 86358, Note_on_c, 0, 60, 77
2, 86499, Note_on_c, 0, 72, 0
2, 86509, Note_on_c, 0, 72, 89
2, 86653, Note_on_c, 0, 55, 0
2, 86664, Note_on_c, 0, 55, 82
2, 86822, Note_on_c, 0, 74, 0
2, 86828, Note_on_c, 0, 74, 92
2, 86837, Note_on_c, 0, 60, 0
2, 86843, Note_on_c, 0, 60, 78
2, 87160, Note_on_c, 0, 74, 0
2, 87164, Note_on_c, 0, 43, 77
2, 87165, Note_on_c, 0, 74, 96
2, 87168, Note_on_c, 0, 62, 0
2, 87168, Note_on_c, 0, 67, 0
2, 87171, Note_on_c, 0, 71, 86
2, 87172, Note_on_c, 0, 62, 89
2, 87178, Note_on_c, 0, 67, 76
2, 87198, Note_on_c, 0, 77, 0
2, 87210, Note_on_c, 0, 64, 0
2, 87211, Note_on_c, 0, 76, 0
2, 87211, Note_on_c, 0, 60, 0
2, 87213, Note_on_c, 0, 48, 0
2, 87214, Note_on_c, 0, 36, 0
2, 87215, Control_c, 0, 64, 0
2, 87221, Note_on_c, 0, 72, 0
2, 87244, Note_on_c, 0, 55, 0
2, 87383, Control_c, 0, 64, 127
2, 87515, Note_on_c, 0, 50, 48
2, 87651, Note_on_c, 0, 43, 0
2, 87660, Note_on_c, 0, 43, 47
2, 87664, Note_on_c, 0, 55, 56
2, 87813, Note_on_c, 0, 50, 0
2, 87817, Note_on_c, 0, 57, 62
2, 87818, Note_on_c, 0, 50, 41
2, 88135, Note_on_c, 0, 50, 0
2, 88145, Note_on_c, 0, 50, 38
2, 88320, Note_on_c, 0, 43, 0
2, 88320, Note_on_c, 0, 55, 0
2, 88323, Note_on_c, 0, 59, 60
2, 88324, Control_c, 0, 64, 0
2, 88328, Note_on_c, 0, 43, 41
2, 88330, Note_on_c, 0, 57, 0
2, 88331, Note_on_c, 0, 55, 38
2, 88488, Control_c, 0, 64, 127
2, 88819, Note_on_c, 0, 43, 0
2, 88825, Note_on_c, 0, 43, 43
2, 89154, Note_on_c, 0, 88, 73
2, 89157, Note_on_c, 0, 71, 0
2, 89162, Note_on_c, 0, 71, 49
2, 89164, Note_on_c, 0, 67, 0
2, 89170, Note_on_c, 0, 67, 39
2, 89324, Note_on_c, 0, 86, 75
2, 89461, Note_on_c, 0, 84, 79
2, 89630, Note_on_c, 0, 83, 75
2, 89630, Note_on_c, 0, 71, 0
2, 89794, Note_on_c, 0, 84, 0
2, 89803, Note_on_c, 0, 84, 80
2, 89809, Note_on_c, 0, 57, 53
2, 89815, Note_on_c, 0, 72, 55
2, 89817, Note_on_c, 0, 50, 0
2, 89818, Note_on_c, 0, 76, 64
2, 89820, Note_on_c, 0, 64, 50
2, 89831, Note_on_c, 0, 86, 0
2, 89833, Note_on_c, 0, 62, 0
2, 89833, Note_on_c, 0, 59, 0
2, 89833, Note_on_c, 0, 55, 0
2, 89835, Control_c, 0, 64, 0
2, 89835, Note_on_c, 0, 88, 0
2, 89836, Note_on_c, 0, 83, 0
2, 89848, Note_on_c, 0, 43, 0
2, 89848, Note_on_c, 0, 67, 0
2, 89848, Note_on_c, 0, 74, 0
2, 89940, Control_c, 0, 64, 127
2, 90132, Note_on_c, 0, 84, 0
2, 90140, Note_on_c, 0, 84, 71
2, 90293, Note_on_c, 0, 84, 0
2, 90297, Note_on_c, 0, 84, 68
2, 90616, Note_on_c, 0, 84, 0
2, 90625, Note_on_c, 0, 84, 69
2, 91111, Note_on_c, 0, 83, 75
2, 91138, Note_on_c, 0, 64, 0
2, 91138, Note_on_c, 0, 76, 0
2, 91142, Note_on_c, 0, 76, 58
2, 91147, Note_on_c, 0, 55, 44
2, 91149, Note_on_c, 0, 64, 49
2, 91154, Note_on_c, 0, 71, 46
2, 91157, Note_on_c, 0, 67, 35
2, 91180, Control_c, 0, 64, 0
2, 91190, Note_on_c, 0, 57, 0
2, 91194, Note_on_c, 0, 72, 0
2, 91194, Note_on_c, 0, 84, 0
2, 91307, Control_c, 0, 64, 127
2, 91455, Note_on_c, 0, 84, 80
2, 91774, Note_on_c, 0, 88, 76
2, 91795, Note_on_c, 0, 79, 47
2, 92120, Note_on_c, 0, 91, 87
2, 92136, Note_on_c, 0, 83, 0
2, 92140, Note_on_c, 0, 83, 65
2, 92149, Note_on_c, 0, 58, 26
2, 92160, Note_on_c, 0, 58, 0
2, 92462, Note_on_c, 0, 72, 52
2, 92463, Note_on_c, 0, 53, 40
2, 92474, Note_on_c, 0, 67, 0
2, 92486, Note_on_c, 0, 67, 37
2, 92486, Note_on_c, 0, 60, 38
2, 92488, Control_c, 0, 64, 0
2, 92491, Note_on_c, 0, 71, 0
2, 92493, Note_on_c, 0, 55, 0
2, 92493, Note_on_c, 0, 79, 0
2, 92493, Note_on_c, 0, 83, 0
2, 92493, Note_on_c, 0, 84, 0
2, 92494, Note_on_c, 0, 91, 0
2, 92495, Note_on_c, 0, 88, 0
2, 92505, Note_on_c, 0, 76, 0
2, 92513, Note_on_c, 0, 64, 0
2, 92613, Control_c, 0, 64, 127
2, 92971, Note_on_c, 0, 69, 55
2, 93004, Note_on_c, 0, 60, 0
2, 93008, Note_on_c, 0, 60, 18
2, 93281, Note_on_c, 0, 60, 0
2, 93290, Note_on_c, 0, 60, 51
2, 93429, Note_on_c, 0, 84, 64
2, 93434, Note_on_c, 0, 72, 0
2, 93445, Note_on_c, 0, 72, 53
2, 93596, Note_on_c, 0, 72, 0
2, 93596, Note_on_c, 0, 84, 0
2, 93601, Note_on_c, 0, 84, 66
2, 93605, Note_on_c, 0, 72, 60
2, 93634, Note_on_c, 0, 79, 53
2, 93636, Note_on_c, 0, 77, 58
2, 93765, Note_on_c, 0, 69, 0
2, 93767, Control_c, 0, 64, 0
2, 93772, Note_on_c, 0, 53, 0
2, 93775, Note_on_c, 0, 69, 32
2, 93783, Note_on_c, 0, 53, 42
2, 93834, Control_c, 0, 64, 127
2, 94302, Note_on_c, 0, 69, 0
2, 94306, Note_on_c, 0, 69, 56
2, 94824, Note_on_c, 0, 60, 0
2, 94834, Note_on_c, 0, 60, 32
2, 95139, Note_on_c, 0, 55, 53
2, 95184, Control_c, 0, 64, 0
2, 95184, Note_on_c, 0, 84, 0
2, 95184, Note_on_c, 0, 77, 0
2, 95185, Note_on_c, 0, 79, 0
2, 95186, Note_on_c, 0, 53, 0
2, 95186, Note_on_c, 0, 69, 0
2, 95208, Note_on_c, 0, 60, 0
2, 95216, Note_on_c, 0, 67, 0
2, 95270, Control_c, 0, 64, 127
2, 95312, Note_on_c, 0, 65, 44
2, 95468, Note_on_c, 0, 69, 48
2, 95623, Note_on_c, 0, 72, 0
2, 95627, Note_on_c, 0, 76, 57
2, 95629, Note_on_c, 0, 72, 49
2, 95930, Note_on_c, 0, 65, 0
2, 95936, Note_on_c, 0, 65, 48
2, 96115, Note_on_c, 0, 69, 0
2, 96123, Note_on_c, 0, 69, 43
2, 96261, Note_on_c, 0, 76, 0
2, 96265, Note_on_c, 0, 76, 43
2, 96439, Note_on_c, 0, 71, 45
2, 96439, Note_on_c, 0, 74, 44
2, 96466, Note_on_c, 0, 55, 0
2, 96468, Note_on_c, 0, 69, 0
2, 96470, Note_on_c, 0, 65, 0
2, 96471, Note_on_c, 0, 72, 0
2, 96471, Control_c, 0, 64, 0
2, 96471, Note_on_c, 0, 76, 0
2, 96683, Control_c, 0, 64, 127
2, 97110, Note_on_c, 0, 83, 60
2, 97113, Note_on_c, 0, 74, 0
2, 97119, Note_on_c, 0, 74, 50
2, 97634, Note_on_c, 0, 84, 59
2, 97820, Note_on_c, 0, 84, 0
2, 97831, Note_on_c, 0, 84, 56
2, 97832, Note_on_c, 0, 72, 50
2, 97835, Note_on_c, 0, 76, 51
2, 97838, Note_on_c, 0, 57, 37
2, 97852, Note_on_c, 0, 64, 42
2, 97930, Control_c, 0, 64, 0
2, 97958, Note_on_c, 0, 74, 0
2, 98027, Note_on_c, 0, 71, 0
2, 98058, Note_on_c, 0, 83, 0
2, 98104, Control_c, 0, 64, 127
2, 99793, Note_on_c, 0, 71, 55
2, 99819, Note_on_c, 0, 74, 44
2, 99822, Note_on_c, 0, 62, 44
2, 100442, Note_on_c, 0, 67, 73
2, 100458, Note_on_c, 0, 59, 63
2, 100995, Note_on_c, 0, 52, 63
2, 101019, Note_on_c, 0, 33, 57
2, 101053, Note_on_c, 0, 59, 0
2, 101061, Note_on_c, 0, 57, 0
2, 101062, Note_on_c, 0, 59, 73
2, 101068, Note_on_c, 0, 57, 74
2, 101085, Note_on_c, 0, 45, 66
2, 101085, Note_on_c, 0, 67, 0
2, 101087, Note_on_c, 0, 60, 75
2, 101087, Note_on_c, 0, 62, 0
2, 101088, Note_on_c, 0, 71, 0
2, 101099, Note_on_c, 0, 76, 0
2, 101099, Note_on_c, 0, 84, 0
2, 101107, Note_on_c, 0, 74, 0
2, 101114, Note_on_c, 0, 64, 0
2, 101122, Note_on_c, 0, 72, 0
2, 101125, Note_on_c, 0, 64, 90
2, 101137, Note_on_c, 0, 59, 0
2, 101176, Control_c, 0, 64, 0
2, 101260, Control_c, 0, 64, 127
2, 101475, Note_on_c, 0, 33, 0
2, 101506, Note_on_c, 0, 64, 0
2, 101511, Note_on_c, 0, 64, 44
2, 101592, Note_on_c, 0, 62, 60
2, 101930, Note_on_c, 0, 67, 57
2, 102220, Note_on_c, 0, 57, 0
2, 102229, Note_on_c, 0, 57, 60
2, 102397, Note_on_c, 0, 71, 80
2, 102426, Note_on_c, 0, 33, 42
2, 102566, Note_on_c, 0, 64, 0
2, 102574, Note_on_c, 0, 64, 52
2, 102727, Note_on_c, 0, 62, 0
2, 102732, Note_on_c, 0, 62, 57
2, 102873, Note_on_c, 0, 67, 0
2, 102882, Note_on_c, 0, 67, 70
2, 103010, Note_on_c, 0, 72, 71
2, 103196, Note_on_c, 0, 64, 0
2, 103201, Note_on_c, 0, 64, 56
2, 103342, Note_on_c, 0, 62, 0
2, 103352, Note_on_c, 0, 62, 61
2, 103383, Control_c, 0, 64, 0
2, 103449, Control_c, 0, 64, 127
2, 103526, Note_on_c, 0, 41, 60
2, 103656, Note_on_c, 0, 57, 0
2, 103662, Control_c, 0, 64, 0
2, 103665, Note_on_c, 0, 29, 73
2, 103665, Note_on_c, 0, 57, 72
2, 103687, Note_on_c, 0, 52, 0
2, 103705, Note_on_c, 0, 72, 0
2, 103707, Note_on_c, 0, 71, 0
2, 103709, Note_on_c, 0, 64, 0
2, 103709, Note_on_c, 0, 60, 0
2, 103712, Note_on_c, 0, 67, 0
2, 103718, Note_on_c, 0, 33, 0
2, 103718, Note_on_c, 0, 45, 0
2, 103741, Note_on_c, 0, 62, 0
2, 103772, Control_c, 0, 64, 127
2, 103989, Note_on_c, 0, 64, 60
2, 104161, Note_on_c, 0, 62, 60
2, 104477, Note_on_c, 0, 69, 66
2, 104770, Note_on_c, 0, 57, 0
2, 104780, Note_on_c, 0, 57, 65
2, 104963, Note_on_c, 0, 74, 84
2, 105116, Note_on_c, 0, 64, 0
2, 105123, Note_on_c, 0, 64, 60
2, 105269, Note_on_c, 0, 62, 0
2, 105275, Note_on_c, 0, 62, 63
2, 105415, Note_on_c, 0, 69, 0
2, 105422, Note_on_c, 0, 69, 69
2, 105592, Note_on_c, 0, 69, 0
2, 105594, Note_on_c, 0, 76, 72
2, 105598, Note_on_c, 0, 69, 46
2, 105600, Note_on_c, 0, 29, 0
2, 105753, Note_on_c, 0, 64, 0
2, 105760, Note_on_c, 0, 64, 58
2, 105930, Note_on_c, 0, 62, 0
2, 105930, Note_on_c, 0, 74, 0
2, 105936, Note_on_c, 0, 74, 48
2, 105939, Note_on_c, 0, 62, 51
2, 106118, Note_on_c, 0, 52, 48
2, 106260, Note_on_c, 0, 57, 0
2, 106262, Note_on_c, 0, 45, 62
2, 106264, Note_on_c, 0, 55, 61
2, 106264, Note_on_c, 0, 57, 65
2, 106293, Control_c, 0, 64, 0
2, 106295, Note_on_c, 0, 64, 0
2, 106296, Note_on_c, 0, 41, 0
2, 106391, Control_c, 0, 64, 127
2, 106578, Note_on_c, 0, 64, 56
2, 106744, Note_on_c, 0, 62, 0
2, 106753, Note_on_c, 0, 62, 58
2, 107077, Note_on_c, 0, 67, 55
2, 107366, Note_on_c, 0, 57, 0
2, 107372, Note_on_c, 0, 57, 63
2, 107540, Note_on_c, 0, 83, 85
2, 107547, Note_on_c, 0, 79, 71
2, 107719, Note_on_c, 0, 64, 0
2, 107726, Note_on_c, 0, 64, 65
2, 107750, Note_on_c, 0, 76, 0
2, 107773, Note_on_c, 0, 74, 0
2, 107834, Note_on_c, 0, 52, 0
2, 107888, Note_on_c, 0, 62, 0
2, 107893, Note_on_c, 0, 62, 54
2, 108042, Note_on_c, 0, 67, 0
2, 108047, Note_on_c, 0, 84, 81
2, 108051, Note_on_c, 0, 81, 77
2, 108053, Note_on_c, 0, 67, 66
2, 108078, Note_on_c, 0, 57, 0
2, 108082, Control_c, 0, 64, 0
2, 108119, Control_c, 0, 64, 127
2, 108364, Note_on_c, 0, 64, 0
2, 108373, Note_on_c, 0, 64, 52
2, 108377, Note_on_c, 0, 57, 34
2, 108526, Note_on_c, 0, 69, 0
2, 108526, Note_on_c, 0, 83, 0
2, 108529, Note_on_c, 0, 86, 74
2, 108536, Note_on_c, 0, 83, 72
2, 108554, Note_on_c, 0, 74, 59
2, 108556, Note_on_c, 0, 62, 0
2, 108561, Note_on_c, 0, 62, 55
2, 108848, Note_on_c, 0, 45, 0
2, 108871, Note_on_c, 0, 57, 0
2, 108879, Note_on_c, 0, 55, 0
2, 108880, Note_on_c, 0, 41, 57
2, 108881, Note_on_c, 0, 57, 62
2, 108885, Note_on_c, 0, 48, 57
2, 108890, Note_on_c, 0, 55, 60
2, 108907, Note_on_c, 0, 81, 0
2, 108908, Note_on_c, 0, 86, 0
2, 108908, Note_on_c, 0, 84, 0
2, 108908, Note_on_c, 0, 62, 0
2, 108909, Note_on_c, 0, 74, 0
2, 108911, Note_on_c, 0, 64, 0
2, 108917, Note_on_c, 0, 79, 0
2, 108930, Control_c, 0, 64, 0
2, 108933, Note_on_c, 0, 67, 0
2, 108940, Note_on_c, 0, 83, 0
2, 108986, Control_c, 0, 64, 127
2, 109197, Note_on_c, 0, 64, 59
2, 109368, Note_on_c, 0, 62, 62
2, 109522, Note_on_c, 0, 84, 75
2, 109525, Note_on_c, 0, 88, 79
2, 109678, Note_on_c, 0, 69, 55
2, 109977, Note_on_c, 0, 57, 0
2, 109981, Note_on_c, 0, 57, 55
2, 109998, Note_on_c, 0, 77, 61
2, 110000, Note_on_c, 0, 81, 63
2, 110292, Note_on_c, 0, 64, 0
2, 110297, Note_on_c, 0, 64, 50
2, 110469, Note_on_c, 0, 62, 0
2, 110476, Note_on_c, 0, 74, 40
2, 110478, Note_on_c, 0, 62, 38
2, 110484, Note_on_c, 0, 74, 0
2, 110630, Note_on_c, 0, 69, 0
2, 110638, Note_on_c, 0, 69, 53
2, 111141, Note_on_c, 0, 83, 61
2, 111141, Note_on_c, 0, 74, 53
2, 111444, Note_on_c, 0, 84, 0
2, 111446, Note_on_c, 0, 48, 0
2, 111447, Note_on_c, 0, 41, 0
2, 111447, Note_on_c, 0, 62, 0
2, 111447, Note_on_c, 0, 77, 0
2, 111447, Note_on_c, 0, 64, 0
2, 111447, Note_on_c, 0, 74, 0
2, 111447, Note_on_c, 0, 81, 0
2, 111447, Note_on_c, 0, 69, 0
2, 111447, Note_on_c, 0, 88, 0
2, 111447, Note_on_c, 0, 57, 0
2, 111448, Note_on_c, 0, 83, 0
2, 111452, Note_on_c, 0, 55, 0
2, 111453, Note_on_c, 0, 84, 62
2, 111471, Note_on_c, 0, 72, 47
2, 111479, Note_on_c, 0, 76, 49
2, 111486, Control_c, 0, 64, 0
2, 111486, Note_on_c, 0, 45, 48
2, 111536, Control_c, 0, 64, 127
2, 111811, Note_on_c, 0, 57, 33
2, 111957, Note_on_c, 0, 62, 44
2, 111957, Note_on_c, 0, 74, 42
2, 111958, Note_on_c, 0, 81, 58
2, 111966, Note_on_c, 0, 74, 0
2, 112112, Note_on_c, 0, 57, 0
2, 112120, Note_on_c, 0, 81, 0
2, 112120, Note_on_c, 0, 57, 42
2, 112125, Note_on_c, 0, 69, 50
2, 112127, Note_on_c, 0, 81, 64
2, 112258, Note_on_c, 0, 57, 0
2, 112264, Note_on_c, 0, 57, 43
2, 112435, Note_on_c, 0, 62, 0
2, 112435, Note_on_c, 0, 81, 0
2, 112440, Note_on_c, 0, 81, 68
2, 112442, Note_on_c, 0, 74, 48
2, 112443, Note_on_c, 0, 62, 47
2, 112584, Note_on_c, 0, 64, 56
2, 112734, Note_on_c, 0, 69, 0
2, 112734, Note_on_c, 0, 81, 0
2, 112739, Note_on_c, 0, 81, 66
2, 112742, Note_on_c, 0, 69, 50
2, 112780, Control_c, 0, 64, 0
2, 112803, Control_c, 0, 64, 127
2, 112901, Note_on_c, 0, 71, 56
2, 112907, Note_on_c, 0, 83, 68
2, 112926, Note_on_c, 0, 57, 0
2, 112930, Note_on_c, 0, 57, 27
2, 113064, Note_on_c, 0, 69, 0
2, 113069, Note_on_c, 0, 69, 50
2, 113195, Note_on_c, 0, 72, 0
2, 113195, Note_on_c, 0, 84, 0
2, 113200, Note_on_c, 0, 84, 67
2, 113200, Note_on_c, 0, 72, 57
2, 113280, Note_on_c, 0, 45, 0
2, 113502, Note_on_c, 0, 74, 0
2, 113513, Note_on_c, 0, 74, 53
2, 113671, Note_on_c, 0, 76, 0
2, 113682, Note_on_c, 0, 76, 57
2, 113836, Note_on_c, 0, 79, 55
2, 113971, Note_on_c, 0, 76, 0
2, 113975, Note_on_c, 0, 76, 61
2, 113976, Note_on_c, 0, 84, 0
2, 113976, Note_on_c, 0, 81, 0
2, 113976, Note_on_c, 0, 41, 54
2, 113977, Note_on_c, 0, 71, 0
2, 113977, Note_on_c, 0, 72, 0
2, 113978, Note_on_c, 0, 74, 0
2, 113978, Note_on_c, 0, 57, 0
2, 113978, Note_on_c, 0, 69, 0
2, 113979, Note_on_c, 0, 83, 0
2, 113982, Note_on_c, 0, 79, 0
2, 113983, Control_c, 0, 64, 0
2, 113984, Note_on_c, 0, 69, 47
2, 113985, Note_on_c, 0, 57, 49
2, 113986, Note_on_c, 0, 64, 0
2, 113994, Note_on_c, 0, 62, 0
2, 114040, Control_c, 0, 64, 127
2, 114140, Note_on_c, 0, 69, 0
2, 114291, Note_on_c, 0, 53, 45
2, 114448, Note_on_c, 0, 81, 65
2, 114465, Note_on_c, 0, 60, 43
2, 114608, Note_on_c, 0, 81, 0
2, 114613, Note_on_c, 0, 81, 74
2, 114623, Note_on_c, 0, 69, 45
2, 114792, Note_on_c, 0, 60, 0
2, 114796, Note_on_c, 0, 60, 49
2, 114938, Note_on_c, 0, 81, 0
2, 114943, Note_on_c, 0, 81, 65
2, 114949, Note_on_c, 0, 74, 47
2, 114952, Note_on_c, 0, 62, 44
2, 115084, Note_on_c, 0, 69, 0
2, 115090, Note_on_c, 0, 69, 55
2, 115230, Note_on_c, 0, 81, 0
2, 115241, Note_on_c, 0, 81, 68
2, 115253, Note_on_c, 0, 62, 0
2, 115253, Note_on_c, 0, 74, 0
2, 115257, Note_on_c, 0, 74, 52
2, 115264, Note_on_c, 0, 62, 53
2, 115407, Note_on_c, 0, 69, 0
2, 115410, Note_on_c, 0, 83, 74
2, 115418, Note_on_c, 0, 69, 55
2, 115710, Note_on_c, 0, 84, 74
2, 115714, Note_on_c, 0, 74, 0
2, 115719, Note_on_c, 0, 74, 59
2, 116033, Note_on_c, 0, 72, 56
2, 116190, Note_on_c, 0, 84, 0
2, 116196, Note_on_c, 0, 84, 79
2, 116198, Note_on_c, 0, 72, 0
2, 116204, Note_on_c, 0, 72, 48
2, 116344, Note_on_c, 0, 86, 88
2, 116359, Note_on_c, 0, 74, 0
2, 116365, Note_on_c, 0, 74, 53
2, 116370, Note_on_c, 0, 57, 0
2, 116371, Note_on_c, 0, 55, 58
2, 116379, Note_on_c, 0, 62, 0
2, 116405, Note_on_c, 0, 76, 0
2, 116467, Note_on_c, 0, 72, 0
2, 116505, Note_on_c, 0, 83, 0
2, 116505, Note_on_c, 0, 84, 0
2, 116513, Note_on_c, 0, 81, 0
2, 116515, Note_on_c, 0, 88, 80
2, 116517, Note_on_c, 0, 84, 72
2, 116520, Note_on_c, 0, 48, 61
2, 116520, Note_on_c, 0, 69, 0
2, 116528, Note_on_c, 0, 74, 0
2, 116532, Note_on_c, 0, 79, 56
2, 116535, Control_c, 0, 64, 0
2, 116538, Note_on_c, 0, 86, 0
2, 116544, Note_on_c, 0, 41, 0
2, 116544, Note_on_c, 0, 53, 0
2, 116547, Note_on_c, 0, 60, 0
2, 116620, Control_c, 0, 64, 127
2, 116827, Note_on_c, 0, 60, 46
2, 116999, Note_on_c, 0, 72, 44
2, 117000, Note_on_c, 0, 67, 47
2, 117004, Note_on_c, 0, 55, 0
2, 117149, Note_on_c, 0, 74, 72
2, 117288, Note_on_c, 0, 72, 0
2, 117295, Note_on_c, 0, 72, 59
2, 117457, Note_on_c, 0, 67, 0
2, 117457, Note_on_c, 0, 72, 0
2, 117463, Note_on_c, 0, 67, 46
2, 117465, Note_on_c, 0, 72, 45
2, 117628, Note_on_c, 0, 76, 79
2, 117926, Note_on_c, 0, 60, 0
2, 117930, Note_on_c, 0, 60, 63
2, 118095, Note_on_c, 0, 67, 0
2, 118102, Note_on_c, 0, 67, 57
2, 118233, Note_on_c, 0, 72, 0
2, 118244, Note_on_c, 0, 72, 65
2, 118379, Note_on_c, 0, 88, 0
2, 118387, Note_on_c, 0, 74, 0
2, 118387, Note_on_c, 0, 79, 0
2, 118387, Note_on_c, 0, 84, 0
2, 118388, Note_on_c, 0, 88, 88
2, 118391, Note_on_c, 0, 79, 69
2, 118394, Note_on_c, 0, 84, 77
2, 118396, Note_on_c, 0, 74, 73
2, 118397, Note_on_c, 0, 86, 71
2, 118634, Note_on_c, 0, 89, 86
2, 118863, Note_on_c, 0, 88, 0
2, 118873, Note_on_c, 0, 88, 82
2, 119009, Note_on_c, 0, 74, 0
2, 119009, Note_on_c, 0, 48, 0
2, 119010, Note_on_c, 0, 86, 0
2, 119010, Note_on_c, 0, 89, 0
2, 119010, Note_on_c, 0, 84, 0
2, 119011, Note_on_c, 0, 60, 0
2, 119012, Note_on_c, 0, 79, 0
2, 119012, Note_on_c, 0, 67, 0
2, 119013, Control_c, 0, 64, 0
2, 119024, Note_on_c, 0, 72, 0
2, 119024, Note_on_c, 0, 76, 0
2, 119040, Note_on_c, 0, 88, 0
2, 119043, Note_on_c, 0, 43, 71
2, 119044, Note_on_c, 0, 88, 87
2, 119070, Control_c, 0, 64, 127
2, 119337, Note_on_c, 0, 55, 56
2, 119482, Note_on_c, 0, 86, 86
2, 119491, Note_on_c, 0, 74, 65
2, 119494, Note_on_c, 0, 62, 62
2, 119646, Note_on_c, 0, 74, 0
2, 119646, Note_on_c, 0, 86, 0
2, 119656, Note_on_c, 0, 86, 91
2, 119657, Note_on_c, 0, 74, 83
2, 119819, Note_on_c, 0, 72, 52
2, 119983, Note_on_c, 0, 67, 53
2, 120122, Note_on_c, 0, 74, 0
2, 120129, Note_on_c, 0, 74, 64
2, 120437, Note_on_c, 0, 72, 0
2, 120446, Note_on_c, 0, 72, 54
2, 120600, Note_on_c, 0, 71, 51
2, 120752, Note_on_c, 0, 74, 0
2, 120756, Note_on_c, 0, 74, 72
2, 120917, Note_on_c, 0, 52, 49
2, 120944, Note_on_c, 0, 62, 0
2, 120954, Note_on_c, 0, 62, 55
2, 120994, Note_on_c, 0, 67, 0
2, 120994, Note_on_c, 0, 71, 0
2, 120994, Note_on_c, 0, 72, 0
2, 120995, Note_on_c, 0, 86, 0
2, 120995, Note_on_c, 0, 55, 0
2, 120996, Note_on_c, 0, 43, 0
2, 121002, Control_c, 0, 64, 0
2, 121082, Control_c, 0, 64, 127
2, 121090, Note_on_c, 0, 88, 0
2, 121102, Note_on_c, 0, 72, 56
2, 121255, Note_on_c, 0, 71, 59
2, 121258, Note_on_c, 0, 59, 58
2, 121559, Note_on_c, 0, 72, 0
2, 121569, Note_on_c, 0, 72, 62
2, 121577, Note_on_c, 0, 45, 58
2, 121585, Note_on_c, 0, 69, 49
2, 121594, Note_on_c, 0, 59, 0
2, 121594, Note_on_c, 0, 71, 0
2, 121595, Note_on_c, 0, 52, 0
2, 121600, Control_c, 0, 64, 0
2, 121605, Note_on_c, 0, 62, 0
2, 121651, Note_on_c, 0, 74, 0
2, 121651, Control_c, 0, 64, 127
2, 121877, Note_on_c, 0, 52, 54
2, 122039, Note_on_c, 0, 57, 67
2, 122039, Note_on_c, 0, 81, 79
2, 122197, Note_on_c, 0, 76, 62
2, 122342, Note_on_c, 0, 69, 0
2, 122347, Note_on_c, 0, 69, 55
2, 122511, Note_on_c, 0, 57, 0
2, 122515, Note_on_c, 0, 57, 75
2, 122519, Note_on_c, 0, 81, 0
2, 122523, Note_on_c, 0, 81, 70
2, 122688, Note_on_c, 0, 76, 0
2, 122692, Note_on_c, 0, 76, 59
2, 122818, Note_on_c, 0, 57, 0
2, 122823, Note_on_c, 0, 57, 82
2, 122826, Note_on_c, 0, 81, 0
2, 122830, Note_on_c, 0, 81, 71
2, 122979, Note_on_c, 0, 76, 0
2, 122990, Note_on_c, 0, 59, 71
2, 122991, Note_on_c, 0, 76, 63
2, 123156, Note_on_c, 0, 69, 0
2, 123160, Note_on_c, 0, 69, 57
2, 123317, Note_on_c, 0, 81, 0
2, 123321, Note_on_c, 0, 60, 77
2, 123323, Note_on_c, 0, 81, 69
2, 123486, Note_on_c, 0, 76, 0
2, 123494, Note_on_c, 0, 76, 65
2, 123648, Note_on_c, 0, 69, 0
2, 123652, Note_on_c, 0, 69, 54
2, 123786, Note_on_c, 0, 81, 0
2, 123792, Note_on_c, 0, 81, 80
2, 123943, Note_on_c, 0, 83, 81
2, 124099, Note_on_c, 0, 41, 72
2, 124101, Note_on_c, 0, 72, 0
2, 124108, Note_on_c, 0, 59, 0
2, 124110, Note_on_c, 0, 52, 0
2, 124110, Note_on_c, 0, 76, 0
2, 124111, Note_on_c, 0, 83, 0
2, 124111, Note_on_c, 0, 69, 0
2, 124111, Note_on_c, 0, 60, 0
2, 124111, Note_on_c, 0, 84, 72
2, 124111, Note_on_c, 0, 81, 0
2, 124112, Note_on_c, 0, 72, 66
2, 124116, Note_on_c, 0, 45, 0
2, 124120, Control_c, 0, 64, 0
2, 124124, Note_on_c, 0, 57, 0
2, 124185, Control_c, 0, 64, 127
2, 124404, Note_on_c, 0, 48, 63
2, 124574, Note_on_c, 0, 57, 76
2, 124577, Note_on_c, 0, 81, 73
2, 124721, Note_on_c, 0, 76, 61
2, 124884, Note_on_c, 0, 48, 0
2, 124893, Note_on_c, 0, 48, 55
2, 125022, Note_on_c, 0, 57, 0
2, 125031, Note_on_c, 0, 57, 86
2, 125038, Note_on_c, 0, 81, 0
2, 125046, Note_on_c, 0, 81, 73
2, 125191, Note_on_c, 0, 76, 0
2, 125197, Note_on_c, 0, 76, 66
2, 125345, Note_on_c, 0, 57, 0
2, 125345, Note_on_c, 0, 81, 0
2, 125349, Note_on_c, 0, 57, 73
2, 125356, Note_on_c, 0, 81, 69
2, 125502, Note_on_c, 0, 59, 78
2, 125514, Note_on_c, 0, 76, 0
2, 125521, Note_on_c, 0, 76, 61
2, 125673, Note_on_c, 0, 69, 58
2, 125818, Note_on_c, 0, 60, 88
2, 125829, Note_on_c, 0, 81, 0
2, 125833, Note_on_c, 0, 81, 72
2, 125982, Note_on_c, 0, 76, 0
2, 125992, Note_on_c, 0, 76, 70
2, 126128, Note_on_c, 0, 69, 0
2, 126138, Note_on_c, 0, 69, 67
2, 126297, Note_on_c, 0, 60, 0
2, 126297, Note_on_c, 0, 81, 0
2, 126301, Note_on_c, 0, 60, 93
2, 126308, Note_on_c, 0, 81, 81
2, 126451, Note_on_c, 0, 48, 0
2, 126461, Note_on_c, 0, 48, 68
2, 126551, Note_on_c, 0, 41, 0
2, 126563, Note_on_c, 0, 69, 0
2, 126564, Note_on_c, 0, 72, 0
2, 126564, Note_on_c, 0, 81, 0
2, 126564, Note_on_c, 0, 57, 0
2, 126564, Note_on_c, 0, 76, 0
2, 126565, Note_on_c, 0, 59, 0
2, 126566, Control_c, 0, 64, 0
2, 126566, Note_on_c, 0, 60, 0
2, 126589, Note_on_c, 0, 84, 0
2, 126616, Note_on_c, 0, 67, 88
2, 126617, Note_on_c, 0, 64, 80
2, 126618, Note_on_c, 0, 55, 74
2, 126658, Control_c, 0, 64, 127
2, 126912, Note_on_c, 0, 48, 0
2, 126963, Note_on_c, 0, 79, 61
2, 127116, Note_on_c, 0, 84, 67
2, 127264, Note_on_c, 0, 86, 91
2, 127411, Note_on_c, 0, 84, 0
2, 127415, Note_on_c, 0, 84, 77
2, 127564, Note_on_c, 0, 79, 0
2, 127571, Note_on_c, 0, 72, 49
2, 127574, Note_on_c, 0, 79, 62
2, 127726, Note_on_c, 0, 72, 0
2, 127735, Note_on_c, 0, 72, 65
2, 127736, Note_on_c, 0, 74, 66
2, 127740, Note_on_c, 0, 91, 82
2, 128033, Note_on_c, 0, 79, 0
2, 128039, Note_on_c, 0, 79, 59
2, 128188, Note_on_c, 0, 48, 61
2, 128194, Note_on_c, 0, 84, 0
2, 128205, Note_on_c, 0, 84, 61
2, 128348, Note_on_c, 0, 86, 0
2, 128354, Note_on_c, 0, 86, 76
2, 128501, Control_c, 0, 64, 0
2, 128501, Note_on_c, 0, 67, 0
2, 128501, Note_on_c, 0, 74, 0
2, 128502, Note_on_c, 0, 64, 0
2, 128507, Note_on_c, 0, 67, 95
2, 128509, Note_on_c, 0, 55, 0
2, 128517, Note_on_c, 0, 91, 0
2, 128521, Note_on_c, 0, 91, 88
2, 128524, Note_on_c, 0, 72, 0
2, 128532, Control_c, 0, 64, 127
2, 128686, Note_on_c, 0, 86, 0
2, 128689, Note_on_c, 0, 86, 66
2, 128765, Note_on_c, 0, 65, 98
2, 128785, Note_on_c, 0, 84, 0
2, 128791, Note_on_c, 0, 84, 71
2, 128994, Note_on_c, 0, 64, 80
2, 129000, Note_on_c, 0, 48, 0
2, 129162, Note_on_c, 0, 64, 0
2, 129164, Note_on_c, 0, 86, 0
2, 129165, Note_on_c, 0, 65, 0
2, 129165, Note_on_c, 0, 91, 0
2, 129165, Note_on_c, 0, 67, 0
2, 129167, Note_on_c, 0, 55, 75
2, 129169, Note_on_c, 0, 79, 0
2, 129171, Note_on_c, 0, 64, 85
2, 129173, Note_on_c, 0, 43, 78
2, 129174, Control_c, 0, 64, 0
2, 129185, Note_on_c, 0, 84, 0
2, 129254, Control_c, 0, 64, 127
2, 129503, Note_on_c, 0, 74, 71
2, 129630, Note_on_c, 0, 43, 0
2, 129653, Note_on_c, 0, 55, 0
2, 129665, Note_on_c, 0, 55, 72
2, 129807, Note_on_c, 0, 62, 88
2, 129832, Note_on_c, 0, 86, 78
2, 129974, Note_on_c, 0, 81, 53
2, 130160, Note_on_c, 0, 74, 0
2, 130167, Note_on_c, 0, 74, 61
2, 130301, Note_on_c, 0, 91, 91
2, 130606, Note_on_c, 0, 55, 0
2, 130615, Note_on_c, 0, 55, 59
2, 130790, Note_on_c, 0, 62, 0
2, 130796, Note_on_c, 0, 62, 63
2, 130919, Note_on_c, 0, 69, 64
2, 131085, Note_on_c, 0, 88, 75
2, 131086, Note_on_c, 0, 71, 65
2, 131087, Note_on_c, 0, 74, 0
2, 131089, Note_on_c, 0, 81, 0
2, 131097, Control_c, 0, 64, 0
2, 131182, Control_c, 0, 64, 127
2, 131243, Note_on_c, 0, 86, 0
2, 131249, Note_on_c, 0, 86, 70
2, 131406, Note_on_c, 0, 84, 70
2, 131565, Note_on_c, 0, 83, 67
2, 131719, Note_on_c, 0, 84, 0
2, 131725, Note_on_c, 0, 84, 72
2, 131727, Note_on_c, 0, 86, 0
2, 131728, Note_on_c, 0, 55, 0
2, 131729, Note_on_c, 0, 57, 52
2, 131730, Note_on_c, 0, 88, 0
2, 131730, Note_on_c, 0, 72, 59
2, 131735, Note_on_c, 0, 91, 0
2, 131737, Note_on_c, 0, 83, 0
2, 131740, Note_on_c, 0, 71, 0
2, 131747, Note_on_c, 0, 76, 55
2, 131758, Note_on_c, 0, 62, 0
2, 131760, Control_c, 0, 64, 0
2, 131773, Note_on_c, 0, 64, 0
2, 131804, Note_on_c, 0, 69, 0
2, 131965, Control_c, 0, 64, 127
2, 132222, Note_on_c, 0, 64, 51
2, 132524, Note_on_c, 0, 67, 52
2, 132687, Note_on_c, 0, 72, 0
2, 132692, Note_on_c, 0, 72, 59
2, 132930, Note_on_c, 0, 74, 46
2, 132943, Note_on_c, 0, 79, 39
2, 132965, Note_on_c, 0, 83, 59
2, 132987, Note_on_c, 0, 72, 0
2, 132988, Note_on_c, 0, 76, 0
2, 132988, Note_on_c, 0, 84, 0
2, 132988, Note_on_c, 0, 57, 0
2, 132988, Note_on_c, 0, 64, 0
2, 133005, Note_on_c, 0, 71, 60
2, 133010, Note_on_c, 0, 59, 59
2, 133013, Note_on_c, 0, 86, 77
2, 133021, Control_c, 0, 64, 0
2, 133125, Control_c, 0, 64, 127
2, 133432, Note_on_c, 0, 74, 0
2, 133486, Note_on_c, 0, 67, 0
2, 133493, Note_on_c, 0, 67, 58
2, 133800, Note_on_c, 0, 71, 0
2, 133810, Note_on_c, 0, 71, 61
2, 133984, Note_on_c, 0, 74, 64
2, 134226, Note_on_c, 0, 76, 54
2, 134254, Note_on_c, 0, 79, 0
2, 134258, Note_on_c, 0, 79, 53
2, 134269, Note_on_c, 0, 83, 0
2, 134280, Note_on_c, 0, 71, 0
2, 134280, Note_on_c, 0, 74, 0
2, 134281, Note_on_c, 0, 59, 0
2, 134281, Note_on_c, 0, 67, 0
2, 134289, Control_c, 0, 64, 0
2, 134291, Note_on_c, 0, 60, 57
2, 134295, Note_on_c, 0, 84, 66
2, 134309, Note_on_c, 0, 88, 71
2, 134338, Note_on_c, 0, 86, 0
2, 134392, Control_c, 0, 64, 127
2, 134773, Note_on_c, 0, 67, 50
2, 135089, Note_on_c, 0, 72, 64
2, 135094, Note_on_c, 0, 89, 68
2, 135244, Note_on_c, 0, 88, 0
2, 135255, Note_on_c, 0, 74, 60
2, 135255, Note_on_c, 0, 88, 70
2, 135552, Note_on_c, 0, 84, 0
2, 135562, Note_on_c, 0, 84, 78
2, 135567, Note_on_c, 0, 72, 0
2, 135574, Note_on_c, 0, 72, 60
2, 135579, Note_on_c, 0, 77, 50
2, 135582, Note_on_c, 0, 53, 43
2, 135586, Note_on_c, 0, 74, 0
2, 135586, Note_on_c, 0, 60, 0
2, 135586, Control_c, 0, 64, 0
2, 135587, Note_on_c, 0, 89, 0
2, 135587, Note_on_c, 0, 67, 0
2, 135588, Note_on_c, 0, 76, 0
2, 135598, Note_on_c, 0, 88, 0
2, 135659, Control_c, 0, 64, 127
2, 135914, Note_on_c, 0, 60, 35
2, 136063, Note_on_c, 0, 69, 51
2, 136082, Note_on_c, 0, 65, 36
2, 136320, Note_on_c, 0, 79, 0
2, 136535, Note_on_c, 0, 53, 0
2, 136539, Note_on_c, 0, 53, 51
2, 136849, Note_on_c, 0, 84, 0
2, 136854, Note_on_c, 0, 84, 73
2, 136862, Note_on_c, 0, 50, 60
2, 136862, Note_on_c, 0, 81, 60
2, 136865, Note_on_c, 0, 72, 0
2, 136872, Note_on_c, 0, 72, 56
2, 136880, Note_on_c, 0, 77, 0
2, 136889, Note_on_c, 0, 77, 45
2, 136893, Control_c, 0, 64, 0
2, 136895, Note_on_c, 0, 53, 0
2, 136896, Note_on_c, 0, 69, 0
2, 136897, Note_on_c, 0, 60, 0
2, 136957, Control_c, 0, 64, 127
2, 137023, Note_on_c, 0, 57, 56
2, 137026, Note_on_c, 0, 65, 0
2, 137183, Note_on_c, 0, 60, 59
2, 137310, Note_on_c, 0, 84, 0
2, 137321, Note_on_c, 0, 84, 82
2, 137329, Note_on_c, 0, 65, 64
2, 137333, Note_on_c, 0, 72, 0
2, 137339, Note_on_c, 0, 72, 45
2, 137480, Note_on_c, 0, 67, 69
2, 137636, Note_on_c, 0, 69, 63
2, 137648, Note_on_c, 0, 84, 0
2, 137657, Note_on_c, 0, 84, 87
2, 137791, Note_on_c, 0, 71, 72
2, 137932, Note_on_c, 0, 72, 0
2, 137932, Note_on_c, 0, 84, 0
2, 137943, Note_on_c, 0, 84, 84
2, 137944, Note_on_c, 0, 72, 80
2, 138086, Note_on_c, 0, 84, 0
2, 138091, Note_on_c, 0, 55, 77
2, 138097, Note_on_c, 0, 84, 85
2, 138101, Note_on_c, 0, 72, 0
2, 138110, Note_on_c, 0, 72, 70
2, 138115, Note_on_c, 0, 74, 69
2, 138126, Note_on_c, 0, 69, 0
2, 138126, Note_on_c, 0, 50, 0
2, 138127, Note_on_c, 0, 71, 0
2, 138127, Note_on_c, 0, 65, 0
2, 138127, Note_on_c, 0, 57, 0
2, 138127, Note_on_c, 0, 67, 0
2, 138127, Note_on_c, 0, 81, 0
2, 138127, Note_on_c, 0, 60, 0
2, 138134, Control_c, 0, 64, 0
2, 138140, Note_on_c, 0, 77, 0
2, 138209, Control_c, 0, 64, 127
2, 138251, Note_on_c, 0, 62, 66
2, 138404, Note_on_c, 0, 83, 88
2, 138412, Note_on_c, 0, 67, 74
2, 138552, Note_on_c, 0, 69, 72
2, 138708, Note_on_c, 0, 84, 0
2, 138713, Note_on_c, 0, 71, 72
2, 138713, Note_on_c, 0, 84, 92
2, 138846, Note_on_c, 0, 72, 0
2, 138853, Note_on_c, 0, 72, 76
2, 139006, Note_on_c, 0, 86, 95
2, 139015, Note_on_c, 0, 74, 0
2, 139019, Note_on_c, 0, 74, 79
2, 139153, Note_on_c, 0, 67, 0
2, 139159, Note_on_c, 0, 67, 72
2, 139329, Note_on_c, 0, 48, 81
2, 139330, Note_on_c, 0, 86, 0
2, 139335, Note_on_c, 0, 86, 93
2, 139346, Note_on_c, 0, 77, 71
2, 139349, Control_c, 0, 64, 0
2, 139358, Note_on_c, 0, 71, 0
2, 139358, Note_on_c, 0, 84, 0
2, 139359, Note_on_c, 0, 62, 0
2, 139360, Note_on_c, 0, 69, 0
2, 139362, Note_on_c, 0, 74, 0
2, 139362, Note_on_c, 0, 83, 0
2, 139363, Note_on_c, 0, 67, 0
2, 139365, Note_on_c, 0, 55, 0
2, 139366, Note_on_c, 0, 72, 0
2, 139438, Control_c, 0, 64, 127
2, 139511, Note_on_c, 0, 55, 64
2, 139664, Note_on_c, 0, 60, 60
2, 139788, Note_on_c, 0, 91, 90
2, 139806, Note_on_c, 0, 48, 0
2, 139833, Note_on_c, 0, 62, 53
2, 139876, Note_on_c, 0, 89, 75
2, 139951, Note_on_c, 0, 88, 88
2, 139962, Note_on_c, 0, 84, 74
2, 139970, Note_on_c, 0, 64, 70
2, 140113, Note_on_c, 0, 60, 0
2, 140118, Note_on_c, 0, 60, 53
2, 140259, Note_on_c, 0, 64, 0
2, 140265, Note_on_c, 0, 64, 61
2, 140433, Note_on_c, 0, 74, 85
2, 140437, Note_on_c, 0, 72, 75
2, 140439, Note_on_c, 0, 67, 69
2, 140736, Note_on_c, 0, 72, 0
2, 140742, Note_on_c, 0, 72, 77
2, 140889, Note_on_c, 0, 60, 0
2, 140896, Note_on_c, 0, 60, 79
2, 140898, Note_on_c, 0, 71, 78
2, 141035, Note_on_c, 0, 72, 0
2, 141046, Note_on_c, 0, 72, 75
2, 141181, Note_on_c, 0, 77, 0
2, 141191, Note_on_c, 0, 77, 86
2, 141201, Note_on_c, 0, 68, 80
2, 141322, Note_on_c, 0, 60, 0
2, 141322, Note_on_c, 0, 88, 0
2, 141322, Note_on_c, 0, 64, 0
2, 141322, Note_on_c, 0, 67, 0
2, 141322, Note_on_c, 0, 84, 0
2, 141322, Note_on_c, 0, 71, 0
2, 141323, Note_on_c, 0, 74, 0
2, 141323, Note_on_c, 0, 62, 0
2, 141323, Note_on_c, 0, 89, 0
2, 141323, Note_on_c, 0, 55, 0
2, 141324, Note_on_c, 0, 91, 0
2, 141325, Control_c, 0, 64, 0
2, 141335, Note_on_c, 0, 86, 0
2, 141342, Note_on_c, 0, 72, 0
2, 141360, Note_on_c, 0, 52, 79
2, 141404, Control_c, 0, 64, 127
2, 141505, Note_on_c, 0, 76, 89
2, 141524, Note_on_c, 0, 64, 83
2, 141666, Note_on_c, 0, 59, 76
2, 141826, Note_on_c, 0, 64, 0
2, 141829, Note_on_c, 0, 72, 95
2, 141831, Note_on_c, 0, 69, 82
2, 141832, Note_on_c, 0, 45, 85
2, 141833, Note_on_c, 0, 64, 84
2, 141836, Note_on_c, 0, 68, 0
2, 141837, Note_on_c, 0, 76, 0
2, 141839, Note_on_c, 0, 52, 0
2, 141839, Note_on_c, 0, 57, 81
2, 141840, Note_on_c, 0, 59, 0
2, 141845, Control_c, 0, 64, 0
2, 141849, Note_on_c, 0, 77, 0
2, 141934, Control_c, 0, 64, 127
2, 142163, Note_on_c, 0, 52, 66
2, 142295, Note_on_c, 0, 72, 0
2, 142303, Note_on_c, 0, 72, 78
2, 142451, Note_on_c, 0, 84, 96
2, 142455, Note_on_c, 0, 76, 84
2, 142458, Note_on_c, 0, 79, 76
2, 142464, Control_c, 0, 64, 0
2, 142494, Control_c, 0, 64, 127
2, 142599, Note_on_c, 0, 55, 78
2, 142761, Note_on_c, 0, 60, 81
2, 142907, Note_on_c, 0, 62, 76
2, 142984, Note_on_c, 0, 67, 79
2, 143052, Note_on_c, 0, 71, 79
2, 143053, Control_c, 0, 64, 0
2, 143060, Note_on_c, 0, 69, 0
2, 143060, Note_on_c, 0, 52, 0
2, 143061, Note_on_c, 0, 84, 0
2, 143061, Note_on_c, 0, 64, 0
2, 143061, Note_on_c, 0, 57, 0
2, 143061, Note_on_c, 0, 72, 0
2, 143062, Note_on_c, 0, 79, 0
2, 143062, Note_on_c, 0, 45, 0
2, 143062, Note_on_c, 0, 67, 0
2, 143062, Note_on_c, 0, 60, 0
2, 143062, Note_on_c, 0, 76, 0
2, 143064, Note_on_c, 0, 55, 0
2, 143072, Note_on_c, 0, 74, 96
2, 143072, Note_on_c, 0, 59, 89
2, 143074, Note_on_c, 0, 47, 86
2, 143139, Control_c, 0, 64, 127
2, 143387, Note_on_c, 0, 55, 70
2, 143523, Note_on_c, 0, 74, 0
2, 143533, Note_on_c, 0, 74, 72
2, 143696, Note_on_c, 0, 86, 94
2, 143697, Note_on_c, 0, 83, 89
2, 143700, Note_on_c, 0, 79, 80
2, 143838, Note_on_c, 0, 55, 0
2, 143845, Note_on_c, 0, 55, 77
2, 143984, Note_on_c, 0, 59, 0
2, 143989, Note_on_c, 0, 59, 77
2, 144130, Note_on_c, 0, 62, 0
2, 144141, Note_on_c, 0, 62, 75
2, 144222, Note_on_c, 0, 64, 69
2, 144277, Control_c, 0, 64, 0
2, 144279, Note_on_c, 0, 71, 0
2, 144279, Note_on_c, 0, 55, 0
2, 144279, Note_on_c, 0, 79, 0
2, 144279, Note_on_c, 0, 74, 0
2, 144279, Note_on_c, 0, 83, 0
2, 144280, Note_on_c, 0, 86, 0
2, 144280, Note_on_c, 0, 59, 0
2, 144281, Note_on_c, 0, 47, 0
2, 144291, Note_on_c, 0, 62, 0
2, 144313, Note_on_c, 0, 76, 99
2, 144314, Note_on_c, 0, 60, 89
2, 144315, Note_on_c, 0, 72, 89
2, 144317, Note_on_c, 0, 48, 85
2, 144360, Control_c, 0, 64, 127
2, 144483, Note_on_c, 0, 64, 0
2, 144618, Note_on_c, 0, 55, 79
2, 144768, Note_on_c, 0, 76, 0
2, 144776, Note_on_c, 0, 76, 86
2, 144932, Note_on_c, 0, 84, 90
2, 144933, Note_on_c, 0, 88, 93
2, 144934, Note_on_c, 0, 79, 78
2, 145052, Note_on_c, 0, 55, 0
2, 145062, Note_on_c, 0, 55, 75
2, 145135, Note_on_c, 0, 77, 95
2, 145139, Note_on_c, 0, 74, 90
2, 145251, Note_on_c, 0, 60, 0
2, 145256, Note_on_c, 0, 60, 68
2, 145374, Note_on_c, 0, 72, 0
2, 145374, Note_on_c, 0, 76, 0
2, 145379, Note_on_c, 0, 62, 83
2, 145380, Note_on_c, 0, 76, 85
2, 145381, Note_on_c, 0, 72, 85
2, 145551, Note_on_c, 0, 60, 0
2, 145551, Note_on_c, 0, 72, 0
2, 145555, Note_on_c, 0, 41, 79
2, 145555, Note_on_c, 0, 72, 99
2, 145555, Note_on_c, 0, 53, 78
2, 145556, Control_c, 0, 64, 0
2, 145558, Note_on_c, 0, 84, 0
2, 145559, Note_on_c, 0, 48, 0
2, 145561, Note_on_c, 0, 88, 0
2, 145561, Note_on_c, 0, 76, 0
2, 145562, Note_on_c, 0, 79, 0
2, 145562, Note_on_c, 0, 74, 0
2, 145562, Note_on_c, 0, 77, 0
2, 145562, Note_on_c, 0, 62, 0
2, 145562, Note_on_c, 0, 60, 88
2, 145563, Note_on_c, 0, 69, 83
2, 145570, Note_on_c, 0, 65, 81
2, 145574, Note_on_c, 0, 55, 0
2, 145620, Control_c, 0, 64, 127
2, 145863, Note_on_c, 0, 48, 70
2, 146035, Note_on_c, 0, 72, 0
2, 146037, Note_on_c, 0, 57, 84
2, 146040, Note_on_c, 0, 84, 90
2, 146040, Note_on_c, 0, 72, 89
2, 146042, Note_on_c, 0, 48, 0
2, 146046, Note_on_c, 0, 81, 84
2, 146046, Note_on_c, 0, 77, 74
2, 146047, Note_on_c, 0, 48, 69
2, 146334, Note_on_c, 0, 41, 0
2, 146343, Note_on_c, 0, 41, 80
2, 146480, Note_on_c, 0, 53, 0
2, 146491, Note_on_c, 0, 53, 81
2, 146641, Note_on_c, 0, 72, 0
2, 146651, Note_on_c, 0, 72, 83
2, 146810, Note_on_c, 0, 72, 0
2, 146812, Note_on_c, 0, 79, 95
2, 146817, Note_on_c, 0, 72, 93
2, 146822, Note_on_c, 0, 75, 90
2, 146824, Note_on_c, 0, 44, 86
2, 146827, Note_on_c, 0, 84, 0
2, 146828, Note_on_c, 0, 41, 0
2, 146828, Note_on_c, 0, 69, 0
2, 146829, Note_on_c, 0, 48, 0
2, 146829, Note_on_c, 0, 65, 0
2, 146829, Note_on_c, 0, 77, 0
2, 146829, Note_on_c, 0, 60, 0
2, 146829, Note_on_c, 0, 57, 0
2, 146830, Note_on_c, 0, 81, 0
2, 146838, Control_c, 0, 64, 0
2, 146849, Note_on_c, 0, 53, 0
2, 146926, Control_c, 0, 64, 127
2, 147125, Note_on_c, 0, 79, 0
2, 147133, Note_on_c, 0, 79, 83
2, 147133, Note_on_c, 0, 72, 0
2, 147133, Note_on_c, 0, 75, 0
2, 147138, Note_on_c, 0, 75, 86
2, 147142, Note_on_c, 0, 51, 72
2, 147143, Note_on_c, 0, 72, 77
2, 147287, Note_on_c, 0, 72, 0
2, 147287, Note_on_c, 0, 79, 0
2, 147291, Note_on_c, 0, 72, 85
2, 147292, Note_on_c, 0, 79, 81
2, 147294, Note_on_c, 0, 75, 0
2, 147299, Note_on_c, 0, 75, 90
2, 147304, Note_on_c, 0, 56, 68
2, 147453, Note_on_c, 0, 58, 68
2, 147579, Note_on_c, 0, 60, 83
2, 147586, Note_on_c, 0, 75, 0
2, 147594, Note_on_c, 0, 72, 0
2, 147597, Note_on_c, 0, 75, 75
2, 147598, Note_on_c, 0, 80, 95
2, 147600, Note_on_c, 0, 72, 73
2, 147732, Note_on_c, 0, 56, 0
2, 147743, Note_on_c, 0, 56, 74
2, 147901, Note_on_c, 0, 60, 0
2, 147901, Note_on_c, 0, 79, 0
2, 147905, Note_on_c, 0, 79, 88
2, 147909, Note_on_c, 0, 72, 0
2, 147909, Note_on_c, 0, 75, 0
2, 147911, Note_on_c, 0, 60, 82
2, 147916, Note_on_c, 0, 72, 85
2, 147919, Note_on_c, 0, 75, 90
2, 148074, Note_on_c, 0, 63, 93
2, 148075, Note_on_c, 0, 67, 87
2, 148369, Note_on_c, 0, 80, 0
2, 148377, Note_on_c, 0, 72, 0
2, 148377, Note_on_c, 0, 75, 0
2, 148381, Note_on_c, 0, 80, 98
2, 148382, Note_on_c, 0, 75, 99
2, 148384, Note_on_c, 0, 72, 84
2, 148523, Note_on_c, 0, 60, 0
2, 148531, Note_on_c, 0, 63, 0
2, 148532, Note_on_c, 0, 68, 88
2, 148534, Note_on_c, 0, 60, 84
2, 148535, Note_on_c, 0, 63, 83
2, 148684, Note_on_c, 0, 72, 0
2, 148684, Note_on_c, 0, 75, 0
2, 148688, Note_on_c, 0, 82, 105
2, 148691, Note_on_c, 0, 75, 100
2, 148692, Note_on_c, 0, 72, 95
2, 148830, Note_on_c, 0, 56, 0
2, 148835, Note_on_c, 0, 56, 82
2, 148992, Note_on_c, 0, 60, 0
2, 148992, Note_on_c, 0, 63, 0
2, 148992, Note_on_c, 0, 72, 0
2, 148998, Note_on_c, 0, 63, 86
2, 148999, Note_on_c, 0, 75, 0
2, 149000, Note_on_c, 0, 60, 84
2, 149003, Note_on_c, 0, 84, 101
2, 149003, Note_on_c, 0, 72, 100
2, 149004, Note_on_c, 0, 75, 89
2, 149004, Note_on_c, 0, 70, 87
2, 149023, Control_c, 0, 64, 0
2, 149061, Control_c, 0, 64, 127
2, 149316, Note_on_c, 0, 43, 91
2, 149318, Note_on_c, 0, 86, 103
2, 149319, Note_on_c, 0, 81, 90
2, 149320, Note_on_c, 0, 74, 101
2, 149323, Note_on_c, 0, 77, 91
2, 149341, Control_c, 0, 64, 0
2, 149346, Note_on_c, 0, 70, 0
2, 149348, Note_on_c, 0, 72, 0
2, 149348, Note_on_c, 0, 63, 0
2, 149348, Note_on_c, 0, 84, 0
2, 149349, Note_on_c, 0, 60, 0
2, 149349, Note_on_c, 0, 82, 0
2, 149350, Note_on_c, 0, 75, 0
2, 149350, Note_on_c, 0, 51, 0
2, 149352, Note_on_c, 0, 68, 0
2, 149354, Note_on_c, 0, 79, 0
2, 149360, Note_on_c, 0, 58, 0
2, 149360, Note_on_c, 0, 67, 0
2, 149360, Note_on_c, 0, 80, 0
2, 149368, Note_on_c, 0, 44, 0
2, 149368, Note_on_c, 0, 56, 0
2, 149468, Control_c, 0, 64, 127
2, 149612, Note_on_c, 0, 50, 68
2, 149793, Note_on_c, 0, 53, 75
2, 149945, Note_on_c, 0, 57, 89
2, 150090, Note_on_c, 0, 60, 88
2, 150241, Note_on_c, 0, 62, 86
2, 150389, Note_on_c, 0, 74, 0
2, 150400, Note_on_c, 0, 74, 97
2, 150403, Note_on_c, 0, 69, 83
2, 150408, Note_on_c, 0, 65, 78
2, 150718, Note_on_c, 0, 55, 88
2, 150858, Note_on_c, 0, 50, 0
2, 150862, Note_on_c, 0, 50, 81
2, 151004, Note_on_c, 0, 43, 0
2, 151012, Note_on_c, 0, 43, 96
2, 151178, Note_on_c, 0, 83, 102
2, 151182, Note_on_c, 0, 71, 101
2, 151417, Note_on_c, 0, 84, 101
2, 151420, Note_on_c, 0, 72, 100
2, 151511, Note_on_c, 0, 53, 0
2, 151516, Note_on_c, 0, 41, 93
2, 151516, Note_on_c, 0, 53, 89
2, 151633, Note_on_c, 0, 74, 0
2, 151633, Note_on_c, 0, 86, 0
2, 151638, Note_on_c, 0, 86, 98
2, 151640, Note_on_c, 0, 74, 99
2, 151680, Note_on_c, 0, 77, 0
2, 151817, Control_c, 0, 64, 0
2, 151821, Note_on_c, 0, 69, 0
2, 151821, Note_on_c, 0, 71, 0
2, 151821, Note_on_c, 0, 50, 0
2, 151821, Note_on_c, 0, 55, 0
2, 151821, Note_on_c, 0, 86, 0
2, 151821, Note_on_c, 0, 84, 0
2, 151821, Note_on_c, 0, 62, 0
2, 151821, Note_on_c, 0, 74, 0
2, 151822, Note_on_c, 0, 41, 0
2, 151822, Note_on_c, 0, 65, 0
2, 151822, Note_on_c, 0, 72, 0
2, 151822, Note_on_c, 0, 43, 0
2, 151822, Note_on_c, 0, 57, 0
2, 151822, Note_on_c, 0, 60, 0
2, 151822, Note_on_c, 0, 53, 0
2, 151825, Note_on_c, 0, 81, 0
2, 151825, Note_on_c, 0, 83, 0
2, 151833, Note_on_c, 0, 88, 96
2, 151835, Note_on_c, 0, 83, 92
2, 151836, Note_on_c, 0, 40, 93
2, 151836, Note_on_c, 0, 76, 99
2, 151836, Note_on_c, 0, 81, 92
2, 151836, Note_on_c, 0, 52, 88
2, 151918, Control_c, 0, 64, 127
2, 152134, Note_on_c, 0, 47, 83
2, 152271, Note_on_c, 0, 52, 0
2, 152277, Note_on_c, 0, 52, 80
2, 152440, Note_on_c, 0, 81, 0
2, 152440, Note_on_c, 0, 83, 0
2, 152445, Note_on_c, 0, 57, 92
2, 152448, Note_on_c, 0, 81, 87
2, 152449, Note_on_c, 0, 89, 102
2, 152449, Note_on_c, 0, 83, 96
2, 152451, Note_on_c, 0, 77, 91
2, 152590, Note_on_c, 0, 59, 84
2, 152744, Note_on_c, 0, 64, 97
2, 152893, Note_on_c, 0, 40, 0
2, 152893, Note_on_c, 0, 52, 0
2, 152893, Note_on_c, 0, 76, 0
2, 152893, Note_on_c, 0, 88, 0
2, 152898, Note_on_c, 0, 52, 80
2, 152900, Note_on_c, 0, 88, 94
2, 152903, Note_on_c, 0, 40, 78
2, 152903, Note_on_c, 0, 76, 101
2, 152929, Note_on_c, 0, 82, 58
2, 153026, Control_c, 0, 64, 0
2, 153032, Note_on_c, 0, 77, 0
2, 153033, Note_on_c, 0, 81, 0
2, 153033, Note_on_c, 0, 89, 0
2, 153033, Note_on_c, 0, 59, 0
2, 153033, Note_on_c, 0, 47, 0
2, 153034, Note_on_c, 0, 64, 0
2, 153034, Note_on_c, 0, 57, 0
2, 153039, Note_on_c, 0, 82, 0
2, 153047, Note_on_c, 0, 40, 0
2, 153047, Note_on_c, 0, 52, 0
2, 153047, Note_on_c, 0, 76, 0
2, 153047, Note_on_c, 0, 88, 0
2, 153051, Note_on_c, 0, 40, 100
2, 153051, Note_on_c, 0, 52, 98
2, 153055, Note_on_c, 0, 88, 92
2, 153056, Note_on_c, 0, 76, 97
2, 153085, Control_c, 0, 64, 127
2, 153093, Note_on_c, 0, 83, 0
2, 153098, Note_on_c, 0, 83, 82
2, 153157, Note_on_c, 0, 81, 78
2, 153214, Note_on_c, 0, 80, 79
2, 153239, Note_on_c, 0, 76, 0
2, 153245, Note_on_c, 0, 76, 76
2, 153328, Note_on_c, 0, 71, 73
2, 153350, Note_on_c, 0, 69, 76
2, 153446, Note_on_c, 0, 52, 0
2, 153452, Note_on_c, 0, 52, 69
2, 153510, Note_on_c, 0, 59, 68
2, 153514, Note_on_c, 0, 60, 71
2, 153564, Note_on_c, 0, 56, 74
2, 153566, Note_on_c, 0, 57, 71
2, 153607, Note_on_c, 0, 52, 0
2, 153611, Note_on_c, 0, 52, 76
2, 153675, Control_c, 0, 64, 0
2, 153692, Note_on_c, 0, 40, 0
2, 153692, Control_c, 0, 64, 127
2, 153696, Note_on_c, 0, 40, 104
2, 153698, Note_on_c, 0, 28, 100
2, 153866, Control_c, 0, 64, 0
2, 153873, Note_on_c, 0, 40, 0
2, 153873, Note_on_c, 0, 28, 0
2, 153874, Note_on_c, 0, 83, 0
2, 153874, Note_on_c, 0, 71, 0
2, 153875, Note_on_c, 0, 81, 0
2, 153875, Note_on_c, 0, 52, 0
2, 153876, Note_on_c, 0, 56, 0
2, 153876, Note_on_c, 0, 57, 0
2, 153876, Note_on_c, 0, 69, 0
2, 153876, Note_on_c, 0, 80, 0
2, 153876, Note_on_c, 0, 88, 0
2, 153877, Note_on_c, 0, 76, 0
2, 153877, Note_on_c, 0, 60, 0
2, 153877, Note_on_c, 0, 59, 0
2, 154017, Note_on_c, 0, 71, 105
2, 154021, Note_on_c, 0, 59, 105
2, 154267, Note_on_c, 0, 59, 0
2, 154270, Note_on_c, 0, 71, 0
2, 154339, Note_on_c, 0, 33, 87
2, 154347, Note_on_c, 0, 45, 88
2, 154386, Note_on_c, 0, 72, 104
2, 154391, Note_on_c, 0, 60, 103
2, 154394, Note_on_c, 0, 64, 90
2, 154398, Control_c, 0, 64, 127
2, 154703, Note_on_c, 0, 71, 89
2, 154708, Note_on_c, 0, 59, 86
2, 154713, Note_on_c, 0, 33, 0
2, 154851, Note_on_c, 0, 72, 0
2, 154859, Note_on_c, 0, 60, 0
2, 154862, Note_on_c, 0, 72, 100
2, 154864, Note_on_c, 0, 60, 97
2, 155196, Note_on_c, 0, 79, 93
2, 155201, Note_on_c, 0, 67, 93
2, 155211, Note_on_c, 0, 33, 75
2, 155347, Note_on_c, 0, 52, 82
2, 155366, Note_on_c, 0, 33, 0
2, 155520, Note_on_c, 0, 79, 0
2, 155527, Note_on_c, 0, 67, 0
2, 155527, Note_on_c, 0, 72, 0
2, 155530, Note_on_c, 0, 79, 96
2, 155531, Note_on_c, 0, 67, 97
2, 155531, Note_on_c, 0, 76, 93
2, 155532, Note_on_c, 0, 72, 87
2, 155650, Note_on_c, 0, 45, 0
2, 155655, Note_on_c, 0, 45, 86
2, 155811, Note_on_c, 0, 59, 0
2, 155817, Note_on_c, 0, 59, 77
2, 155957, Note_on_c, 0, 60, 0
2, 155962, Note_on_c, 0, 60, 78
2, 156134, Note_on_c, 0, 64, 0
2, 156134, Note_on_c, 0, 67, 0
2, 156138, Note_on_c, 0, 67, 86
2, 156141, Note_on_c, 0, 64, 62
2, 156459, Note_on_c, 0, 57, 88
2, 156602, Control_c, 0, 64, 0
2, 156610, Note_on_c, 0, 59, 0
2, 156610, Note_on_c, 0, 71, 0
2, 156616, Note_on_c, 0, 71, 97
2, 156622, Note_on_c, 0, 59, 94
2, 156672, Control_c, 0, 64, 127
2, 156764, Note_on_c, 0, 60, 0
2, 156773, Note_on_c, 0, 60, 85
2, 156933, Note_on_c, 0, 72, 0
2, 156940, Note_on_c, 0, 60, 0
2, 156943, Note_on_c, 0, 72, 96
2, 156949, Control_c, 0, 64, 0
2, 156950, Note_on_c, 0, 60, 85
2, 156951, Note_on_c, 0, 41, 89
2, 156953, Note_on_c, 0, 29, 91
2, 156954, Note_on_c, 0, 69, 84
2, 156957, Note_on_c, 0, 65, 89
2, 156959, Note_on_c, 0, 52, 0
2, 156959, Note_on_c, 0, 67, 0
2, 156959, Note_on_c, 0, 71, 0
2, 156959, Note_on_c, 0, 59, 0
2, 156959, Note_on_c, 0, 64, 0
2, 156959, Note_on_c, 0, 79, 0
2, 156960, Note_on_c, 0, 76, 0
2, 156960, Note_on_c, 0, 45, 0
2, 156979, Note_on_c, 0, 57, 0
2, 157071, Control_c, 0, 64, 127
2, 157261, Note_on_c, 0, 71, 87
2, 157268, Note_on_c, 0, 59, 90
2, 157271, Note_on_c, 0, 29, 0
2, 157424, Note_on_c, 0, 72, 0
2, 157432, Note_on_c, 0, 60, 0
2, 157434, Note_on_c, 0, 72, 98
2, 157436, Note_on_c, 0, 60, 88
2, 157747, Note_on_c, 0, 72, 0
2, 157756, Note_on_c, 0, 79, 91
2, 157758, Note_on_c, 0, 72, 78
2, 157760, Note_on_c, 0, 67, 90
2, 157905, Note_on_c, 0, 48, 89
2, 158069, Note_on_c, 0, 67, 0
2, 158069, Note_on_c, 0, 79, 0
2, 158070, Control_c, 0, 64, 0
2, 158073, Note_on_c, 0, 79, 88
2, 158077, Note_on_c, 0, 48, 0
2, 158077, Note_on_c, 0, 72, 0
2, 158079, Note_on_c, 0, 67, 93
2, 158081, Note_on_c, 0, 72, 90
2, 158087, Note_on_c, 0, 76, 88
2, 158088, Note_on_c, 0, 48, 79
2, 158108, Control_c, 0, 64, 127
2, 158208, Note_on_c, 0, 41, 0
2, 158217, Note_on_c, 0, 41, 85
2, 158376, Note_on_c, 0, 59, 0
2, 158376, Note_on_c, 0, 69, 0
2, 158382, Note_on_c, 0, 59, 79
2, 158383, Note_on_c, 0, 81, 90
2, 158387, Note_on_c, 0, 69, 85
2, 158538, Note_on_c, 0, 60, 0
2, 158538, Note_on_c, 0, 72, 0
2, 158538, Note_on_c, 0, 76, 0
2, 158543, Note_on_c, 0, 60, 81
2, 158545, Note_on_c, 0, 69, 0
2, 158546, Note_on_c, 0, 76, 88
2, 158549, Note_on_c, 0, 72, 86
2, 158552, Note_on_c, 0, 69, 71
2, 158699, Note_on_c, 0, 69, 0
2, 158706, Note_on_c, 0, 69, 89
2, 158999, Note_on_c, 0, 67, 0
2, 159004, Note_on_c, 0, 67, 84
2, 159168, Note_on_c, 0, 72, 0
2, 159176, Note_on_c, 0, 72, 93
2, 159318, Note_on_c, 0, 74, 96
2, 159329, Note_on_c, 0, 71, 0
2, 159333, Note_on_c, 0, 43, 76
2, 159337, Note_on_c, 0, 71, 57
2, 159360, Note_on_c, 0, 65, 0
2, 159461, Control_c, 0, 64, 0
2, 159462, Note_on_c, 0, 48, 0
2, 159463, Note_on_c, 0, 60, 0
2, 159463, Note_on_c, 0, 79, 0
2, 159464, Note_on_c, 0, 69, 0
2, 159464, Note_on_c, 0, 43, 0
2, 159464, Note_on_c, 0, 74, 0
2, 159464, Note_on_c, 0, 81, 0
2, 159464, Note_on_c, 0, 59, 0
2, 159475, Note_on_c, 0, 71, 0
2, 159475, Note_on_c, 0, 72, 0
2, 159475, Note_on_c, 0, 76, 0
2, 159482, Note_on_c, 0, 41, 0
2, 159482, Note_on_c, 0, 67, 0
2, 159484, Note_on_c, 0, 76, 99
2, 159485, Note_on_c, 0, 71, 84
2, 159486, Note_on_c, 0, 36, 89
2, 159486, Note_on_c, 0, 72, 94
2, 159486, Note_on_c, 0, 67, 78
2, 159567, Control_c, 0, 64, 127
2, 159575, Note_on_c, 0, 71, 0
2, 159809, Note_on_c, 0, 77, 89
2, 159966, Note_on_c, 0, 67, 0
2, 159966, Note_on_c, 0, 72, 0
2, 159966, Note_on_c, 0, 76, 0
2, 159971, Note_on_c, 0, 76, 92
2, 159972, Note_on_c, 0, 72, 87
2, 159975, Note_on_c, 0, 67, 84
2, 160273, Note_on_c, 0, 77, 0
2, 160284, Note_on_c, 0, 77, 99
2, 160431, Note_on_c, 0, 48, 79
2, 160581, Note_on_c, 0, 76, 0
2, 160586, Note_on_c, 0, 76, 96
2, 160588, Note_on_c, 0, 67, 0
2, 160588, Note_on_c, 0, 72, 0
2, 160593, Note_on_c, 0, 55, 78
2, 160594, Note_on_c, 0, 67, 82
2, 160599, Note_on_c, 0, 72, 85
2, 160745, Note_on_c, 0, 60, 88
2, 160746, Note_on_c, 0, 64, 87
2, 161059, Note_on_c, 0, 74, 95
2, 161203, Note_on_c, 0, 60, 0
2, 161208, Note_on_c, 0, 60, 78
2, 161212, Note_on_c, 0, 62, 85
2, 161364, Note_on_c, 0, 72, 0
2, 161368, Note_on_c, 0, 72, 85
2, 161502, Note_on_c, 0, 55, 0
2, 161514, Note_on_c, 0, 55, 83
2, 161671, Note_on_c, 0, 60, 0
2, 161671, Note_on_c, 0, 74, 0
2, 161681, Note_on_c, 0, 74, 95
2, 161682, Note_on_c, 0, 60, 86
2, 161996, Control_c, 0, 64, 0
2, 161998, Note_on_c, 0, 60, 0
2, 161998, Note_on_c, 0, 64, 0
2, 161998, Note_on_c, 0, 76, 0
2, 161998, Note_on_c, 0, 77, 0
2, 162001, Note_on_c, 0, 62, 0
2, 162001, Note_on_c, 0, 74, 0
2, 162003, Note_on_c, 0, 36, 0
2, 162006, Note_on_c, 0, 74, 96
2, 162007, Note_on_c, 0, 31, 88
2, 162008, Note_on_c, 0, 71, 86
2, 162008, Note_on_c, 0, 43, 90
2, 162009, Note_on_c, 0, 48, 0
2, 162009, Note_on_c, 0, 67, 0
2, 162012, Note_on_c, 0, 62, 91
2, 162013, Note_on_c, 0, 67, 75
2, 162017, Note_on_c, 0, 55, 0
2, 162017, Note_on_c, 0, 72, 0
2, 162109, Control_c, 0, 64, 127
2, 162309, Note_on_c, 0, 43, 0
2, 162314, Note_on_c, 0, 43, 76
2, 162458, Note_on_c, 0, 50, 74
2, 162493, Note_on_c, 0, 31, 0
2, 162621, Note_on_c, 0, 55, 84
2, 162771, Note_on_c, 0, 57, 96
2, 162926, Note_on_c, 0, 52, 76
2, 163058, Control_c, 0, 64, 0
2, 163060, Note_on_c, 0, 50, 0
2, 163061, Note_on_c, 0, 43, 0
2, 163061, Note_on_c, 0, 62, 0
2, 163064, Note_on_c, 0, 57, 0
2, 163077, Note_on_c, 0, 55, 0
2, 163086, Note_on_c, 0, 59, 99
2, 163089, Note_on_c, 0, 40, 94
2, 163138, Control_c, 0, 64, 127
2, 163397, Note_on_c, 0, 62, 92
2, 163399, Note_on_c, 0, 71, 0
2, 163403, Note_on_c, 0, 71, 90
2, 163405, Note_on_c, 0, 56, 79
2, 163569, Note_on_c, 0, 76, 99
2, 163676, Note_on_c, 0, 52, 0
2, 163685, Note_on_c, 0, 52, 92
2, 163718, Note_on_c, 0, 81, 101
2, 163852, Note_on_c, 0, 71, 0
2, 163859, Note_on_c, 0, 83, 107
2, 163863, Note_on_c, 0, 71, 100
2, 163983, Note_on_c, 0, 40, 0
2, 163994, Note_on_c, 0, 40, 95
2, 164075, Note_on_c, 0, 41, 68
2, 164079, Note_on_c, 0, 53, 76
2, 164152, Note_on_c, 0, 59, 0
2, 164152, Note_on_c, 0, 71, 0
2, 164159, Note_on_c, 0, 71, 106
2, 164162, Note_on_c, 0, 59, 105
2, 164319, Note_on_c, 0, 47, 86
2, 164428, Note_on_c, 0, 41, 0
2, 164430, Control_c, 0, 64, 0
2, 164432, Note_on_c, 0, 81, 0
2, 164433, Note_on_c, 0, 52, 0
2, 164433, Note_on_c, 0, 62, 0
2, 164433, Note_on_c, 0, 56, 0
2, 164433, Note_on_c, 0, 53, 0
2, 164433, Note_on_c, 0, 71, 0
2, 164433, Note_on_c, 0, 76, 0
2, 164433, Note_on_c, 0, 83, 0
2, 164434, Note_on_c, 0, 47, 0
2, 164444, Note_on_c, 0, 74, 0
2, 164451, Note_on_c, 0, 40, 0
2, 164451, Note_on_c, 0, 59, 0
2, 164459, Note_on_c, 0, 67, 0
2, 164479, Note_on_c, 0, 72, 104
2, 164485, Note_on_c, 0, 60, 103
2, 164486, Note_on_c, 0, 64, 94
2, 164486, Note_on_c, 0, 45, 99
2, 164491, Note_on_c, 0, 33, 95
2, 164520, Control_c, 0, 64, 127
2, 164809, Note_on_c, 0, 71, 91
2, 164810, Note_on_c, 0, 59, 92
2, 164828, Note_on_c, 0, 33, 0
2, 164966, Note_on_c, 0, 60, 0
2, 164966, Note_on_c, 0, 72, 0
2, 164970, Note_on_c, 0, 72, 101
2, 164971, Note_on_c, 0, 60, 94
2, 165281, Note_on_c, 0, 72, 0
2, 165285, Note_on_c, 0, 79, 95
2, 165286, Note_on_c, 0, 72, 82
2, 165289, Note_on_c, 0, 67, 94
2, 165437, Note_on_c, 0, 52, 88
2, 165603, Note_on_c, 0, 79, 0
2, 165611, Note_on_c, 0, 67, 0
2, 165611, Note_on_c, 0, 72, 0
2, 165614, Note_on_c, 0, 79, 96
2, 165616, Note_on_c, 0, 67, 98
2, 165617, Note_on_c, 0, 72, 93
2, 165617, Note_on_c, 0, 76, 93
2, 165742, Note_on_c, 0, 45, 0
2, 165748, Note_on_c, 0, 45, 90
2, 165895, Note_on_c, 0, 59, 0
2, 165902, Note_on_c, 0, 59, 78
2, 166064, Note_on_c, 0, 60, 0
2, 166069, Note_on_c, 0, 60, 83
2, 166241, Note_on_c, 0, 67, 0
2, 166245, Note_on_c, 0, 67, 96
2, 166545, Note_on_c, 0, 57, 93
2, 166694, Note_on_c, 0, 71, 0
2, 166702, Note_on_c, 0, 59, 0
2, 166705, Note_on_c, 0, 71, 99
2, 166711, Note_on_c, 0, 59, 93
2, 166840, Note_on_c, 0, 60, 0
2, 166851, Note_on_c, 0, 60, 86
2, 167009, Note_on_c, 0, 72, 0
2, 167012, Control_c, 0, 64, 0
2, 167015, Note_on_c, 0, 72, 91
2, 167016, Note_on_c, 0, 60, 0
2, 167020, Note_on_c, 0, 52, 0
2, 167020, Note_on_c, 0, 67, 0
2, 167020, Note_on_c, 0, 71, 0
2, 167020, Note_on_c, 0, 59, 0
2, 167020, Note_on_c, 0, 76, 0
2, 167020, Note_on_c, 0, 79, 0
2, 167020, Note_on_c, 0, 64, 0
2, 167021, Note_on_c, 0, 57, 0
2, 167021, Note_on_c, 0, 45, 0
2, 167023, Note_on_c, 0, 65, 92
2, 167026, Note_on_c, 0, 60, 87
2, 167027, Note_on_c, 0, 69, 86
2, 167031, Note_on_c, 0, 41, 96
2, 167035, Note_on_c, 0, 29, 99
2, 167101, Control_c, 0, 64, 127
2, 167216, Note_on_c, 0, 29, 0
2, 167346, Note_on_c, 0, 71, 84
2, 167356, Note_on_c, 0, 59, 82
2, 167508, Note_on_c, 0, 60, 0
2, 167508, Note_on_c, 0, 72, 0
2, 167514, Note_on_c, 0, 72, 98
2, 167519, Note_on_c, 0, 60, 89
2, 167831, Note_on_c, 0, 71, 0
2, 167834, Note_on_c, 0, 79, 90
2, 167839, Note_on_c, 0, 67, 91
2, 167841, Note_on_c, 0, 71, 72
2, 167988, Note_on_c, 0, 48, 81
2, 168138, Note_on_c, 0, 67, 0
2, 168138, Note_on_c, 0, 79, 0
2, 168145, Note_on_c, 0, 72, 0
2, 168149, Note_on_c, 0, 79, 93
2, 168149, Note_on_c, 0, 67, 99
2, 168150, Note_on_c, 0, 72, 88
2, 168150, Note_on_c, 0, 76, 93
2, 168291, Note_on_c, 0, 41, 0
2, 168297, Note_on_c, 0, 41, 90
2, 168453, Note_on_c, 0, 69, 0
2, 168461, Note_on_c, 0, 81, 96
2, 168464, Note_on_c, 0, 69, 90
2, 168491, Note_on_c, 0, 79, 0
2, 168496, Note_on_c, 0, 79, 48
2, 168622, Note_on_c, 0, 60, 0
2, 168622, Note_on_c, 0, 69, 0
2, 168622, Note_on_c, 0, 72, 0
2, 168622, Note_on_c, 0, 76, 0
2, 168622, Note_on_c, 0, 79, 0
2, 168626, Note_on_c, 0, 79, 79
2, 168626, Note_on_c, 0, 76, 87
2, 168626, Note_on_c, 0, 72, 90
2, 168630, Note_on_c, 0, 69, 72
2, 168630, Note_on_c, 0, 60, 68
2, 168783, Note_on_c, 0, 69, 0
2, 168791, Note_on_c, 0, 67, 0
2, 168791, Note_on_c, 0, 69, 75
2, 168798, Note_on_c, 0, 67, 74
2, 169098, Note_on_c, 0, 67, 0
2, 169098, Note_on_c, 0, 69, 0
2, 169102, Note_on_c, 0, 69, 63
2, 169102, Note_on_c, 0, 67, 89
2, 169251, Note_on_c, 0, 72, 0
2, 169258, Note_on_c, 0, 72, 95
2, 169405, Note_on_c, 0, 71, 0
2, 169405, Note_on_c, 0, 74, 101
2, 169408, Note_on_c, 0, 43, 82
2, 169413, Note_on_c, 0, 71, 70
2, 169566, Note_on_c, 0, 67, 0
2, 169566, Note_on_c, 0, 72, 0
2, 169566, Note_on_c, 0, 76, 0
2, 169570, Note_on_c, 0, 76, 97
2, 169572, Note_on_c, 0, 36, 88
2, 169573, Note_on_c, 0, 72, 90
2, 169577, Note_on_c, 0, 67, 79
2, 169587, Note_on_c, 0, 41, 0
2, 169587, Note_on_c, 0, 79, 0
2, 169589, Note_on_c, 0, 69, 0
2, 169592, Note_on_c, 0, 65, 0
2, 169594, Note_on_c, 0, 43, 0
2, 169595, Note_on_c, 0, 48, 0
2, 169596, Note_on_c, 0, 71, 0
2, 169597, Note_on_c, 0, 74, 0
2, 169605, Note_on_c, 0, 59, 0
2, 169608, Control_c, 0, 64, 0
2, 169612, Note_on_c, 0, 60, 0
2, 169612, Note_on_c, 0, 81, 0
2, 169720, Control_c, 0, 64, 127
2, 169885, Note_on_c, 0, 77, 90
2, 170050, Note_on_c, 0, 72, 0
2, 170050, Note_on_c, 0, 76, 0
2, 170058, Note_on_c, 0, 67, 0
2, 170059, Note_on_c, 0, 76, 99
2, 170061, Note_on_c, 0, 72, 85
2, 170062, Note_on_c, 0, 67, 77
2, 170365, Note_on_c, 0, 77, 0
2, 170375, Note_on_c, 0, 77, 96
2, 170378, Note_on_c, 0, 71, 64
2, 170388, Note_on_c, 0, 71, 0
2, 170523, Note_on_c, 0, 48, 74
2, 170688, Note_on_c, 0, 76, 0
2, 170688, Note_on_c, 0, 55, 81
2, 170693, Note_on_c, 0, 52, 66
2, 170695, Note_on_c, 0, 76, 100
2, 170695, Note_on_c, 0, 72, 0
2, 170701, Note_on_c, 0, 72, 87
2, 170703, Note_on_c, 0, 67, 0
2, 170712, Note_on_c, 0, 67, 76
2, 170844, Note_on_c, 0, 60, 90
2, 170845, Note_on_c, 0, 64, 87
2, 171169, Note_on_c, 0, 74, 94
2, 171317, Note_on_c, 0, 60, 0
2, 171327, Note_on_c, 0, 60, 79
2, 171331, Note_on_c, 0, 62, 83
2, 171486, Note_on_c, 0, 72, 0
2, 171492, Note_on_c, 0, 72, 89
2, 171640, Note_on_c, 0, 55, 0
2, 171644, Note_on_c, 0, 55, 77
2, 171801, Note_on_c, 0, 60, 0
2, 171801, Note_on_c, 0, 74, 0
2, 171808, Note_on_c, 0, 74, 86
2, 171809, Note_on_c, 0, 72, 0
2, 171812, Note_on_c, 0, 60, 79
2, 171816, Note_on_c, 0, 72, 78
2, 172116, Note_on_c, 0, 74, 0
2, 172120, Note_on_c, 0, 74, 96
2, 172121, Note_on_c, 0, 43, 79
2, 172124, Note_on_c, 0, 62, 0
2, 172131, Note_on_c, 0, 67, 0
2, 172135, Note_on_c, 0, 62, 82
2, 172135, Note_on_c, 0, 71, 76
2, 172137, Note_on_c, 0, 67, 68
2, 172165, Note_on_c, 0, 64, 0
2, 172166, Control_c, 0, 64, 0
2, 172166, Note_on_c, 0, 55, 0
2, 172167, Note_on_c, 0, 76, 0
2, 172167, Note_on_c, 0, 52, 0
2, 172167, Note_on_c, 0, 72, 0
2, 172167, Note_on_c, 0, 48, 0
2, 172177, Note_on_c, 0, 36, 0
2, 172177, Note_on_c, 0, 60, 0
2, 172177, Note_on_c, 0, 77, 0
2, 172346, Control_c, 0, 64, 127
2, 172460, Note_on_c, 0, 50, 61
2, 172610, Note_on_c, 0, 55, 64
2, 172774, Note_on_c, 0, 57, 61
2, 172807, Note_on_c, 0, 43, 0
2, 173084, Note_on_c, 0, 50, 0
2, 173088, Note_on_c, 0, 50, 41
2, 173258, Control_c, 0, 64, 0
2, 173260, Note_on_c, 0, 50, 0
2, 173264, Note_on_c, 0, 59, 61
2, 173264, Note_on_c, 0, 43, 44
2, 173264, Note_on_c, 0, 57, 0
2, 173266, Note_on_c, 0, 50, 41
2, 173345, Control_c, 0, 64, 127
2, 173744, Note_on_c, 0, 55, 0
2, 173751, Note_on_c, 0, 55, 52
2, 174082, Note_on_c, 0, 71, 0
2, 174089, Note_on_c, 0, 71, 65
2, 174090, Note_on_c, 0, 62, 0
2, 174090, Note_on_c, 0, 88, 75
2, 174100, Note_on_c, 0, 62, 42
2, 174252, Note_on_c, 0, 86, 72
2, 174409, Note_on_c, 0, 84, 76
2, 174563, Note_on_c, 0, 83, 77
2, 174577, Note_on_c, 0, 59, 0
2, 174720, Note_on_c, 0, 67, 0
2, 174720, Note_on_c, 0, 74, 0
2, 174735, Note_on_c, 0, 84, 0
2, 174743, Note_on_c, 0, 50, 0
2, 174745, Note_on_c, 0, 84, 77
2, 174751, Note_on_c, 0, 57, 51
2, 174753, Note_on_c, 0, 72, 58
2, 174755, Note_on_c, 0, 76, 63
2, 174755, Note_on_c, 0, 64, 54
2, 174759, Control_c, 0, 64, 0
2, 174763, Note_on_c, 0, 86, 0
2, 174763, Note_on_c, 0, 88, 0
2, 174763, Note_on_c, 0, 55, 0
2, 174763, Note_on_c, 0, 71, 0
2, 174765, Note_on_c, 0, 83, 0
2, 174773, Note_on_c, 0, 43, 0
2, 174773, Note_on_c, 0, 62, 0
2, 174865, Control_c, 0, 64, 127
2, 175073, Note_on_c, 0, 84, 0
2, 175083, Note_on_c, 0, 84, 71
2, 175249, Note_on_c, 0, 72, 0
2, 175249, Note_on_c, 0, 84, 0
2, 175254, Note_on_c, 0, 72, 37
2, 175254, Note_on_c, 0, 84, 53
2, 175549, Note_on_c, 0, 84, 0
2, 175559, Note_on_c, 0, 84, 73
2, 176058, Note_on_c, 0, 83, 74
2, 176079, Note_on_c, 0, 71, 52
2, 176087, Note_on_c, 0, 64, 0
2, 176087, Note_on_c, 0, 76, 0
2, 176088, Note_on_c, 0, 55, 49
2, 176091, Note_on_c, 0, 64, 51
2, 176095, Note_on_c, 0, 76, 49
2, 176106, Control_c, 0, 64, 0
2, 176107, Note_on_c, 0, 57, 0
2, 176107, Note_on_c, 0, 72, 0
2, 176109, Note_on_c, 0, 84, 0
2, 176209, Control_c, 0, 64, 127
2, 176382, Note_on_c, 0, 84, 80
2, 176710, Note_on_c, 0, 88, 74
2, 176722, Note_on_c, 0, 79, 50
2, 177047, Note_on_c, 0, 91, 76
2, 177062, Note_on_c, 0, 79, 0
2, 177062, Note_on_c, 0, 83, 0
2, 177068, Note_on_c, 0, 83, 57
2, 177070, Note_on_c, 0, 79, 47
2, 177378, Note_on_c, 0, 53, 38
2, 177380, Note_on_c, 0, 72, 46
2, 177398, Note_on_c, 0, 67, 36
2, 177401, Note_on_c, 0, 60, 45
2, 177402, Control_c, 0, 64, 0
2, 177403, Note_on_c, 0, 71, 0
2, 177404, Note_on_c, 0, 84, 0
2, 177404, Note_on_c, 0, 55, 0
2, 177405, Note_on_c, 0, 83, 0
2, 177407, Note_on_c, 0, 91, 0
2, 177409, Note_on_c, 0, 88, 0
2, 177415, Note_on_c, 0, 76, 0
2, 177415, Note_on_c, 0, 79, 0
2, 177423, Note_on_c, 0, 64, 0
2, 177507, Control_c, 0, 64, 127
2, 177881, Note_on_c, 0, 69, 52
2, 178199, Note_on_c, 0, 60, 0
2, 178205, Note_on_c, 0, 60, 49
2, 178337, Note_on_c, 0, 72, 0
2, 178342, Note_on_c, 0, 84, 70
2, 178348, Note_on_c, 0, 72, 57
2, 178498, Note_on_c, 0, 72, 0
2, 178498, Note_on_c, 0, 84, 0
2, 178502, Note_on_c, 0, 72, 64
2, 178504, Note_on_c, 0, 84, 64
2, 178531, Note_on_c, 0, 79, 56
2, 178539, Note_on_c, 0, 77, 55
2, 178682, Note_on_c, 0, 53, 0
2, 178686, Note_on_c, 0, 53, 44
2, 178688, Control_c, 0, 64, 0
2, 178692, Note_on_c, 0, 69, 0
2, 178698, Note_on_c, 0, 67, 0
2, 178782, Control_c, 0, 64, 127
2, 179210, Note_on_c, 0, 69, 49
2, 179681, Note_on_c, 0, 60, 0
2, 179687, Note_on_c, 0, 60, 54
2, 180009, Note_on_c, 0, 55, 51
2, 180048, Note_on_c, 0, 53, 0
2, 180049, Note_on_c, 0, 60, 0
2, 180050, Control_c, 0, 64, 0
2, 180057, Note_on_c, 0, 69, 0
2, 180072, Note_on_c, 0, 72, 0
2, 180142, Control_c, 0, 64, 127
2, 180169, Note_on_c, 0, 65, 53
2, 180335, Note_on_c, 0, 69, 49
2, 180495, Note_on_c, 0, 72, 53
2, 180498, Note_on_c, 0, 76, 55
2, 180810, Note_on_c, 0, 65, 0
2, 180820, Note_on_c, 0, 65, 42
2, 180979, Note_on_c, 0, 69, 0
2, 180984, Note_on_c, 0, 69, 45
2, 181140, Note_on_c, 0, 76, 0
2, 181148, Note_on_c, 0, 76, 47
2, 181313, Note_on_c, 0, 71, 47
2, 181320, Note_on_c, 0, 74, 42
2, 181342, Control_c, 0, 64, 0
2, 181358, Note_on_c, 0, 69, 0
2, 181358, Note_on_c, 0, 55, 0
2, 181360, Note_on_c, 0, 76, 0
2, 181361, Note_on_c, 0, 72, 0
2, 181370, Note_on_c, 0, 77, 0
2, 181370, Note_on_c, 0, 79, 0
2, 181378, Note_on_c, 0, 84, 0
2, 181624, Control_c, 0, 64, 127
2, 182046, Note_on_c, 0, 74, 0
2, 182046, Note_on_c, 0, 83, 62
2, 182058, Note_on_c, 0, 74, 52
2, 182079, Control_c, 0, 64, 0
2, 182100, Note_on_c, 0, 65, 0
2, 182246, Control_c, 0, 64, 127
2, 182551, Note_on_c, 0, 84, 66
2, 182730, Note_on_c, 0, 84, 0
2, 182741, Note_on_c, 0, 84, 60
2, 182756, Note_on_c, 0, 57, 36
2, 182758, Note_on_c, 0, 72, 53
2, 182764, Note_on_c, 0, 76, 54
2, 182771, Note_on_c, 0, 64, 37
2, 182805, Control_c, 0, 64, 0
2, 182813, Note_on_c, 0, 74, 0
2, 182814, Note_on_c, 0, 83, 0
2, 182815, Note_on_c, 0, 71, 0
2, 182937, Control_c, 0, 64, 127
2, 184471, Note_on_c, 0, 83, 71
2, 184492, Control_c, 0, 64, 0
2, 184519, Control_c, 0, 64, 127
2, 184588, Note_on_c, 0, 84, 0
2, 184595, Note_on_c, 0, 84, 77
2, 184665, Note_on_c, 0, 83, 0
2, 184672, Note_on_c, 0, 83, 80
2, 184730, Note_on_c, 0, 79, 78
2, 184741, Control_c, 0, 64, 0
2, 184765, Note_on_c, 0, 76, 0
2, 184769, Note_on_c, 0, 76, 80
2, 184773, Control_c, 0, 64, 127
2, 184836, Note_on_c, 0, 71, 81
2, 184911, Note_on_c, 0, 72, 0
2, 184917, Note_on_c, 0, 72, 87
2, 184930, Note_on_c, 0, 67, 59
2, 184965, Note_on_c, 0, 71, 0
2, 184969, Note_on_c, 0, 71, 83
2, 185011, Note_on_c, 0, 67, 0
2, 185016, Note_on_c, 0, 67, 79
2, 185057, Note_on_c, 0, 64, 0
2, 185063, Note_on_c, 0, 64, 74
2, 185129, Note_on_c, 0, 60, 89
2, 185172, Note_on_c, 0, 59, 85
2, 185207, Note_on_c, 0, 55, 84
2, 185259, Note_on_c, 0, 52, 66
2, 185355, Note_on_c, 0, 45, 75
2, 185390, Note_on_c, 0, 40, 83
2, 185460, Control_c, 0, 64, 0
2, 185465, Note_on_c, 0, 72, 0
2, 185465, Note_on_c, 0, 71, 0
2, 185465, Note_on_c, 0, 52, 0
2, 185465, Note_on_c, 0, 60, 0
2, 185465, Note_on_c, 0, 55, 0
2, 185465, Note_on_c, 0, 40, 0
2, 185466, Note_on_c, 0, 79, 0
2, 185466, Note_on_c, 0, 83, 0
2, 185467, Note_on_c, 0, 76, 0
2, 185472, Note_on_c, 0, 84, 0
2, 185479, Note_on_c, 0, 67, 0
2, 185487, Note_on_c, 0, 64, 0
2, 185492, Note_on_c, 0, 33, 90
2, 185495, Note_on_c, 0, 57, 0
2, 185495, Note_on_c, 0, 59, 0
2, 185498, Note_on_c, 0, 64, 95
2, 185501, Note_on_c, 0, 59, 94
2, 185501, Note_on_c, 0, 57, 93
2, 185564, Control_c, 0, 64, 127
2, 185602, Note_on_c, 0, 45, 0
2, 185706, Note_on_c, 0, 45, 66
2, 185779, Note_on_c, 0, 52, 71
2, 185859, Note_on_c, 0, 55, 71
2, 185925, Note_on_c, 0, 57, 0
2, 185930, Note_on_c, 0, 57, 60
2, 185994, Note_on_c, 0, 59, 0
2, 186002, Note_on_c, 0, 59, 62
2, 186063, Note_on_c, 0, 33, 0
2, 186077, Note_on_c, 0, 60, 68
2, 186126, Note_on_c, 0, 67, 75
2, 186170, Note_on_c, 0, 64, 0
2, 186174, Note_on_c, 0, 64, 71
2, 186247, Note_on_c, 0, 60, 0
2, 186252, Note_on_c, 0, 60, 68
2, 186301, Note_on_c, 0, 59, 0
2, 186306, Note_on_c, 0, 59, 68
2, 186439, Note_on_c, 0, 57, 0
2, 186450, Note_on_c, 0, 57, 72
2, 186524, Note_on_c, 0, 60, 0
2, 186528, Note_on_c, 0, 60, 63
2, 186554, Note_on_c, 0, 64, 0
2, 186564, Note_on_c, 0, 64, 74
2, 186624, Note_on_c, 0, 67, 0
2, 186629, Note_on_c, 0, 67, 68
2, 186665, Note_on_c, 0, 71, 67
2, 186705, Note_on_c, 0, 74, 76
2, 186759, Note_on_c, 0, 83, 95
2, 186821, Note_on_c, 0, 79, 77
2, 186877, Note_on_c, 0, 74, 0
2, 186884, Note_on_c, 0, 74, 83
2, 186946, Note_on_c, 0, 71, 0
2, 186950, Note_on_c, 0, 71, 67
2, 187046, Note_on_c, 0, 57, 0
2, 187050, Note_on_c, 0, 57, 73
2, 187092, Note_on_c, 0, 60, 0
2, 187102, Note_on_c, 0, 60, 73
2, 187138, Note_on_c, 0, 64, 0
2, 187143, Note_on_c, 0, 64, 67
2, 187200, Note_on_c, 0, 67, 0
2, 187203, Note_on_c, 0, 67, 77
2, 187240, Note_on_c, 0, 72, 74
2, 187299, Note_on_c, 0, 74, 0
2, 187305, Note_on_c, 0, 74, 62
2, 187350, Note_on_c, 0, 84, 96
2, 187392, Note_on_c, 0, 79, 0
2, 187400, Note_on_c, 0, 79, 71
2, 187404, Note_on_c, 0, 76, 60
2, 187468, Note_on_c, 0, 74, 0
2, 187479, Note_on_c, 0, 74, 87
2, 187537, Note_on_c, 0, 72, 0
2, 187542, Note_on_c, 0, 72, 69
2, 187630, Note_on_c, 0, 57, 0
2, 187640, Note_on_c, 0, 57, 74
2, 187668, Note_on_c, 0, 52, 0
2, 187678, Note_on_c, 0, 52, 68
2, 187699, Note_on_c, 0, 60, 0
2, 187701, Note_on_c, 0, 69, 54
2, 187704, Note_on_c, 0, 60, 62
2, 187720, Note_on_c, 0, 48, 73
2, 187776, Note_on_c, 0, 64, 0
2, 187782, Note_on_c, 0, 64, 72
2, 187829, Note_on_c, 0, 69, 0
2, 187837, Note_on_c, 0, 69, 79
2, 187841, Note_on_c, 0, 41, 65
2, 187891, Note_on_c, 0, 71, 0
2, 187897, Note_on_c, 0, 71, 82
2, 187914, Note_on_c, 0, 72, 0
2, 187921, Note_on_c, 0, 72, 85
2, 187950, Control_c, 0, 64, 0
2, 187952, Note_on_c, 0, 76, 0
2, 187955, Note_on_c, 0, 71, 0
2, 187956, Note_on_c, 0, 83, 0
2, 187957, Note_on_c, 0, 84, 0
2, 187958, Note_on_c, 0, 67, 0
2, 187959, Note_on_c, 0, 57, 0
2, 187961, Note_on_c, 0, 52, 0
2, 187962, Note_on_c, 0, 45, 0
2, 187962, Note_on_c, 0, 48, 0
2, 187963, Note_on_c, 0, 74, 0
2, 187964, Note_on_c, 0, 60, 0
2, 187964, Note_on_c, 0, 55, 0
2, 187968, Note_on_c, 0, 59, 0
2, 187971, Note_on_c, 0, 76, 100
2, 187975, Note_on_c, 0, 64, 0
2, 187980, Note_on_c, 0, 64, 86
2, 187983, Note_on_c, 0, 69, 0
2, 187983, Note_on_c, 0, 79, 0
2, 187984, Note_on_c, 0, 29, 90
2, 187990, Note_on_c, 0, 69, 71
2, 188067, Control_c, 0, 64, 127
2, 188198, Note_on_c, 0, 41, 0
2, 188208, Note_on_c, 0, 41, 56
2, 188303, Note_on_c, 0, 48, 55
2, 188368, Note_on_c, 0, 53, 61
2, 188484, Note_on_c, 0, 59, 67
2, 188557, Note_on_c, 0, 60, 74
2, 188609, Note_on_c, 0, 67, 80
2, 188628, Note_on_c, 0, 29, 0
2, 188666, Note_on_c, 0, 64, 0
2, 188672, Note_on_c, 0, 64, 79
2, 188736, Note_on_c, 0, 60, 0
2, 188746, Note_on_c, 0, 60, 77
2, 188797, Note_on_c, 0, 59, 0
2, 188803, Note_on_c, 0, 59, 78
2, 188912, Note_on_c, 0, 53, 0
2, 188916, Note_on_c, 0, 53, 70
2, 188984, Note_on_c, 0, 57, 71
2, 189020, Note_on_c, 0, 60, 0
2, 189031, Note_on_c, 0, 60, 68
2, 189073, Note_on_c, 0, 64, 0
2, 189080, Note_on_c, 0, 64, 69
2, 189123, Note_on_c, 0, 71, 69
2, 189182, Note_on_c, 0, 74, 75
2, 189227, Note_on_c, 0, 83, 95
2, 189279, Note_on_c, 0, 79, 76
2, 189358, Note_on_c, 0, 74, 0
2, 189362, Note_on_c, 0, 74, 80
2, 189419, Note_on_c, 0, 71, 0
2, 189426, Note_on_c, 0, 71, 68
2, 189504, Note_on_c, 0, 53, 0
2, 189513, Note_on_c, 0, 53, 72
2, 189550, Note_on_c, 0, 57, 0
2, 189554, Note_on_c, 0, 57, 74
2, 189611, Note_on_c, 0, 60, 0
2, 189616, Note_on_c, 0, 60, 74
2, 189665, Note_on_c, 0, 64, 0
2, 189670, Note_on_c, 0, 64, 75
2, 189765, Note_on_c, 0, 69, 0
2, 189770, Note_on_c, 0, 69, 59
2, 189837, Note_on_c, 0, 84, 94
2, 189880, Note_on_c, 0, 79, 0
2, 189891, Note_on_c, 0, 79, 75
2, 189964, Note_on_c, 0, 74, 0
2, 189969, Note_on_c, 0, 74, 75
2, 190026, Note_on_c, 0, 72, 0
2, 190032, Note_on_c, 0, 72, 76
2, 190033, Note_on_c, 0, 69, 0
2, 190044, Note_on_c, 0, 69, 57
2, 190118, Note_on_c, 0, 53, 0
2, 190127, Note_on_c, 0, 53, 69
2, 190156, Note_on_c, 0, 48, 0
2, 190168, Note_on_c, 0, 48, 75
2, 190189, Note_on_c, 0, 45, 72
2, 190279, Note_on_c, 0, 45, 0
2, 190279, Note_on_c, 0, 74, 0
2, 190279, Note_on_c, 0, 76, 0
2, 190284, Note_on_c, 0, 74, 73
2, 190287, Note_on_c, 0, 45, 74
2, 190287, Note_on_c, 0, 76, 68
2, 190325, Note_on_c, 0, 79, 0
2, 190331, Note_on_c, 0, 79, 73
2, 190387, Note_on_c, 0, 83, 0
2, 190391, Note_on_c, 0, 81, 73
2, 190392, Note_on_c, 0, 83, 85
2, 190419, Note_on_c, 0, 48, 0
2, 190420, Note_on_c, 0, 79, 0
2, 190421, Note_on_c, 0, 41, 0
2, 190421, Note_on_c, 0, 53, 0
2, 190421, Note_on_c, 0, 69, 0
2, 190421, Note_on_c, 0, 67, 0
2, 190421, Note_on_c, 0, 72, 0
2, 190422, Note_on_c, 0, 76, 0
2, 190422, Note_on_c, 0, 60, 0
2, 190422, Note_on_c, 0, 64, 0
2, 190422, Note_on_c, 0, 59, 0
2, 190423, Note_on_c, 0, 57, 0
2, 190423, Note_on_c, 0, 84, 0
2, 190434, Control_c, 0, 64, 0
2, 190448, Note_on_c, 0, 71, 0
2, 190454, Note_on_c, 0, 33, 89
2, 190456, Note_on_c, 0, 74, 0
2, 190456, Note_on_c, 0, 86, 104
2, 190460, Note_on_c, 0, 74, 95
2, 190487, Note_on_c, 0, 83, 0
2, 190494, Note_on_c, 0, 45, 0
2, 190510, Control_c, 0, 64, 127
2, 190571, Note_on_c, 0, 33, 0
2, 190675, Note_on_c, 0, 45, 63
2, 190762, Note_on_c, 0, 52, 63
2, 190843, Note_on_c, 0, 55, 72
2, 190967, Note_on_c, 0, 59, 59
2, 191037, Note_on_c, 0, 60, 70
2, 191088, Note_on_c, 0, 67, 77
2, 191135, Note_on_c, 0, 64, 82
2, 191208, Note_on_c, 0, 60, 0
2, 191214, Note_on_c, 0, 60, 80
2, 191262, Note_on_c, 0, 59, 0
2, 191266, Note_on_c, 0, 59, 72
2, 191308, Note_on_c, 0, 52, 0
2, 191319, Note_on_c, 0, 52, 44
2, 191383, Note_on_c, 0, 57, 73
2, 191439, Note_on_c, 0, 60, 0
2, 191450, Note_on_c, 0, 60, 73
2, 191493, Note_on_c, 0, 64, 0
2, 191497, Note_on_c, 0, 64, 65
2, 191562, Note_on_c, 0, 67, 0
2, 191566, Note_on_c, 0, 67, 65
2, 191614, Note_on_c, 0, 71, 68
2, 191662, Note_on_c, 0, 74, 0
2, 191667, Note_on_c, 0, 74, 72
2, 191712, Note_on_c, 0, 83, 97
2, 191758, Note_on_c, 0, 79, 72
2, 191831, Note_on_c, 0, 74, 0
2, 191841, Note_on_c, 0, 74, 79
2, 191900, Note_on_c, 0, 71, 0
2, 191911, Note_on_c, 0, 71, 68
2, 191992, Note_on_c, 0, 57, 0
2, 191998, Note_on_c, 0, 57, 79
2, 192046, Note_on_c, 0, 60, 0
2, 192051, Note_on_c, 0, 60, 83
2, 192092, Note_on_c, 0, 64, 0
2, 192103, Note_on_c, 0, 64, 76
2, 192153, Note_on_c, 0, 67, 0
2, 192163, Note_on_c, 0, 67, 81
2, 192227, Note_on_c, 0, 72, 79
2, 192311, Note_on_c, 0, 84, 100
2, 192337, Note_on_c, 0, 79, 0
2, 192348, Note_on_c, 0, 79, 69
2, 192422, Note_on_c, 0, 74, 0
2, 192433, Note_on_c, 0, 74, 88
2, 192476, Note_on_c, 0, 72, 0
2, 192483, Note_on_c, 0, 72, 80
2, 192606, Note_on_c, 0, 57, 0
2, 192606, Note_on_c, 0, 74, 0
2, 192606, Note_on_c, 0, 86, 0
2, 192617, Note_on_c, 0, 57, 83
2, 192617, Note_on_c, 0, 74, 99
2, 192618, Note_on_c, 0, 86, 98
2, 192629, Note_on_c, 0, 52, 0
2, 192640, Note_on_c, 0, 52, 74
2, 192665, Note_on_c, 0, 48, 74
2, 192790, Note_on_c, 0, 41, 82
2, 192829, Note_on_c, 0, 76, 81
2, 192860, Note_on_c, 0, 81, 0
2, 192867, Note_on_c, 0, 81, 59
2, 192901, Control_c, 0, 64, 0
2, 192902, Note_on_c, 0, 86, 0
2, 192902, Note_on_c, 0, 72, 0
2, 192902, Note_on_c, 0, 48, 0
2, 192902, Note_on_c, 0, 74, 0
2, 192902, Note_on_c, 0, 52, 0
2, 192902, Note_on_c, 0, 79, 0
2, 192903, Note_on_c, 0, 60, 0
2, 192903, Note_on_c, 0, 57, 0
2, 192903, Note_on_c, 0, 76, 0
2, 192905, Note_on_c, 0, 81, 0
2, 192906, Note_on_c, 0, 45, 0
2, 192913, Note_on_c, 0, 59, 0
2, 192913, Note_on_c, 0, 84, 0
2, 192921, Note_on_c, 0, 41, 0
2, 192921, Note_on_c, 0, 55, 0
2, 192921, Note_on_c, 0, 64, 0
2, 192921, Note_on_c, 0, 71, 0
2, 192924, Note_on_c, 0, 84, 92
2, 192928, Note_on_c, 0, 41, 90
2, 192929, Note_on_c, 0, 67, 0
2, 192932, Note_on_c, 0, 29, 97
2, 192940, Note_on_c, 0, 88, 99
2, 192983, Control_c, 0, 64, 127
2, 193136, Note_on_c, 0, 41, 0
2, 193144, Note_on_c, 0, 41, 72
2, 193236, Note_on_c, 0, 48, 64
2, 193326, Note_on_c, 0, 53, 47
2, 193373, Note_on_c, 0, 55, 52
2, 193382, Note_on_c, 0, 29, 0
2, 193402, Note_on_c, 0, 59, 66
2, 193493, Note_on_c, 0, 60, 72
2, 193543, Note_on_c, 0, 67, 79
2, 193586, Note_on_c, 0, 64, 82
2, 193658, Note_on_c, 0, 60, 0
2, 193662, Note_on_c, 0, 60, 63
2, 193697, Note_on_c, 0, 59, 0
2, 193706, Note_on_c, 0, 59, 85
2, 193858, Note_on_c, 0, 53, 0
2, 193868, Note_on_c, 0, 53, 71
2, 194042, Note_on_c, 0, 64, 0
2, 194043, Note_on_c, 0, 81, 101
2, 194045, Note_on_c, 0, 69, 93
2, 194047, Note_on_c, 0, 77, 86
2, 194048, Note_on_c, 0, 72, 82
2, 194050, Note_on_c, 0, 64, 87
2, 194347, Note_on_c, 0, 57, 73
2, 194503, Note_on_c, 0, 83, 0
2, 194508, Note_on_c, 0, 71, 89
2, 194512, Note_on_c, 0, 74, 82
2, 194513, Note_on_c, 0, 83, 92
2, 194519, Note_on_c, 0, 67, 0
2, 194530, Note_on_c, 0, 67, 75
2, 194672, Note_on_c, 0, 72, 0
2, 194680, Note_on_c, 0, 60, 0
2, 194683, Note_on_c, 0, 72, 75
2, 194685, Note_on_c, 0, 60, 73
2, 194688, Note_on_c, 0, 77, 0
2, 194699, Note_on_c, 0, 77, 67
2, 194803, Note_on_c, 0, 69, 0
2, 194803, Note_on_c, 0, 84, 0
2, 194808, Note_on_c, 0, 69, 93
2, 194808, Note_on_c, 0, 84, 103
2, 194818, Note_on_c, 0, 88, 0
2, 194964, Note_on_c, 0, 83, 0
2, 194968, Note_on_c, 0, 83, 88
2, 195125, Note_on_c, 0, 81, 0
2, 195136, Note_on_c, 0, 81, 98
2, 195271, Note_on_c, 0, 83, 0
2, 195282, Note_on_c, 0, 83, 98
2, 195430, Control_c, 0, 64, 0
2, 195432, Note_on_c, 0, 72, 0
2, 195432, Note_on_c, 0, 77, 0
2, 195434, Note_on_c, 0, 64, 0
2, 195434, Note_on_c, 0, 84, 0
2, 195434, Note_on_c, 0, 53, 0
2, 195435, Note_on_c, 0, 69, 0
2, 195435, Note_on_c, 0, 48, 0
2, 195435, Note_on_c, 0, 71, 0
2, 195435, Note_on_c, 0, 81, 0
2, 195435, Note_on_c, 0, 41, 0
2, 195435, Note_on_c, 0, 59, 0
2, 195435, Note_on_c, 0, 74, 0
2, 195435, Note_on_c, 0, 55, 0
2, 195435, Note_on_c, 0, 57, 0
2, 195436, Note_on_c, 0, 77, 99
2, 195437, Note_on_c, 0, 72, 93
2, 195441, Note_on_c, 0, 50, 81
2, 195444, Note_on_c, 0, 38, 84
2, 195448, Note_on_c, 0, 60, 0
2, 195448, Note_on_c, 0, 67, 0
2, 195456, Note_on_c, 0, 83, 0
2, 195479, Control_c, 0, 64, 127
2, 195609, Note_on_c, 0, 45, 61
2, 195747, Note_on_c, 0, 50, 0
2, 195753, Note_on_c, 0, 50, 61
2, 195909, Note_on_c, 0, 65, 74
2, 195911, Note_on_c, 0, 53, 69
2, 195912, Note_on_c, 0, 60, 75
2, 195993, Control_c, 0, 64, 0
2, 196078, Control_c, 0, 64, 127
2, 196200, Note_on_c, 0, 53, 0
2, 196207, Note_on_c, 0, 53, 60
2, 196383, Note_on_c, 0, 67, 77
2, 196385, Note_on_c, 0, 60, 0
2, 196389, Note_on_c, 0, 64, 69
2, 196395, Note_on_c, 0, 60, 74
2, 196549, Note_on_c, 0, 57, 73
2, 196677, Note_on_c, 0, 60, 0
2, 196684, Note_on_c, 0, 60, 78
2, 196823, Note_on_c, 0, 77, 0
2, 196830, Note_on_c, 0, 65, 0
2, 196835, Note_on_c, 0, 69, 84
2, 196841, Note_on_c, 0, 65, 83
2, 196842, Note_on_c, 0, 62, 80
2, 196992, Note_on_c, 0, 57, 0
2, 196995, Note_on_c, 0, 57, 76
2, 197137, Note_on_c, 0, 60, 0
2, 197145, Note_on_c, 0, 60, 77
2, 197306, Note_on_c, 0, 65, 0
2, 197306, Note_on_c, 0, 69, 0
2, 197311, Note_on_c, 0, 69, 85
2, 197311, Note_on_c, 0, 84, 98
2, 197316, Note_on_c, 0, 65, 88
2, 197455, Note_on_c, 0, 83, 87
2, 197606, Note_on_c, 0, 65, 0
2, 197612, Note_on_c, 0, 65, 86
2, 197614, Note_on_c, 0, 62, 0
2, 197618, Note_on_c, 0, 81, 96
2, 197618, Note_on_c, 0, 62, 84
2, 197760, Note_on_c, 0, 38, 0
2, 197760, Note_on_c, 0, 45, 0
2, 197760, Note_on_c, 0, 72, 0
2, 197760, Note_on_c, 0, 83, 0
2, 197764, Note_on_c, 0, 83, 88
2, 197913, Note_on_c, 0, 50, 0
2, 197918, Note_on_c, 0, 84, 0
2, 197918, Control_c, 0, 64, 0
2, 197919, Note_on_c, 0, 64, 0
2, 197919, Note_on_c, 0, 83, 0
2, 197919, Note_on_c, 0, 67, 0
2, 197920, Note_on_c, 0, 81, 0
2, 197920, Note_on_c, 0, 65, 0
2, 197920, Note_on_c, 0, 60, 0
2, 197920, Note_on_c, 0, 53, 0
2, 197921, Note_on_c, 0, 57, 0
2, 197922, Note_on_c, 0, 69, 0
2, 197933, Note_on_c, 0, 40, 88
2, 197934, Note_on_c, 0, 76, 100
2, 197936, Note_on_c, 0, 72, 86
2, 197936, Note_on_c, 0, 62, 0
2, 197982, Control_c, 0, 64, 127
2, 198100, Note_on_c, 0, 48, 71
2, 198232, Note_on_c, 0, 50, 70
2, 198385, Note_on_c, 0, 64, 88
2, 198394, Note_on_c, 0, 62, 74
2, 198398, Note_on_c, 0, 52, 68
2, 198551, Note_on_c, 0, 48, 0
2, 198558, Note_on_c, 0, 48, 58
2, 198704, Note_on_c, 0, 52, 0
2, 198709, Note_on_c, 0, 52, 62
2, 198850, Note_on_c, 0, 64, 0
2, 198861, Note_on_c, 0, 67, 84
2, 198861, Note_on_c, 0, 64, 74
2, 198873, Note_on_c, 0, 52, 0
2, 198877, Note_on_c, 0, 55, 71
2, 198883, Note_on_c, 0, 52, 67
2, 199011, Note_on_c, 0, 52, 0
2, 199022, Note_on_c, 0, 52, 61
2, 199150, Note_on_c, 0, 55, 0
2, 199155, Note_on_c, 0, 55, 73
2, 199319, Note_on_c, 0, 67, 0
2, 199321, Note_on_c, 0, 71, 89
2, 199326, Note_on_c, 0, 62, 0
2, 199329, Note_on_c, 0, 67, 82
2, 199332, Note_on_c, 0, 62, 79
2, 199490, Note_on_c, 0, 60, 78
2, 199649, Note_on_c, 0, 64, 0
2, 199656, Note_on_c, 0, 64, 46
2, 199656, Note_on_c, 0, 62, 0
2, 199662, Note_on_c, 0, 62, 68
2, 199787, Note_on_c, 0, 60, 0
2, 199787, Note_on_c, 0, 64, 0
2, 199787, Note_on_c, 0, 72, 0
2, 199791, Note_on_c, 0, 84, 104
2, 199791, Note_on_c, 0, 60, 85
2, 199793, Note_on_c, 0, 72, 99
2, 199798, Note_on_c, 0, 64, 72
2, 199945, Note_on_c, 0, 83, 86
2, 200094, Note_on_c, 0, 72, 0
2, 200102, Note_on_c, 0, 67, 0
2, 200105, Note_on_c, 0, 72, 91
2, 200107, Note_on_c, 0, 81, 103
2, 200109, Note_on_c, 0, 67, 78
2, 200240, Note_on_c, 0, 83, 0
2, 200251, Note_on_c, 0, 83, 93
2, 200386, Note_on_c, 0, 76, 0
2, 200386, Control_c, 0, 64, 0
2, 200390, Note_on_c, 0, 48, 0
2, 200391, Note_on_c, 0, 81, 0
2, 200391, Note_on_c, 0, 62, 0
2, 200391, Note_on_c, 0, 71, 0
2, 200391, Note_on_c, 0, 83, 0
2, 200391, Note_on_c, 0, 84, 0
2, 200391, Note_on_c, 0, 40, 0
2, 200391, Note_on_c, 0, 50, 0
2, 200392, Note_on_c, 0, 55, 0
2, 200401, Note_on_c, 0, 72, 0
2, 200407, Note_on_c, 0, 77, 101
2, 200409, Note_on_c, 0, 52, 0
2, 200409, Note_on_c, 0, 60, 0
2, 200409, Note_on_c, 0, 64, 0
2, 200409, Note_on_c, 0, 67, 0
2, 200413, Note_on_c, 0, 72, 93
2, 200415, Note_on_c, 0, 41, 81
2, 200463, Control_c, 0, 64, 127
2, 200574, Note_on_c, 0, 48, 70
2, 200586, Note_on_c, 0, 77, 0
2, 200591, Note_on_c, 0, 77, 63
2, 200716, Note_on_c, 0, 72, 0
2, 200724, Note_on_c, 0, 72, 68
2, 200727, Note_on_c, 0, 53, 59
2, 200757, Note_on_c, 0, 65, 39
2, 200762, Note_on_c, 0, 65, 0
2, 200879, Note_on_c, 0, 65, 77
2, 200880, Note_on_c, 0, 60, 79
2, 200880, Note_on_c, 0, 55, 70
2, 201024, Note_on_c, 0, 53, 0
2, 201034, Note_on_c, 0, 53, 65
2, 201184, Note_on_c, 0, 57, 76
2, 201331, Note_on_c, 0, 72, 0
2, 201337, Note_on_c, 0, 79, 86
2, 201338, Note_on_c, 0, 60, 0
2, 201340, Note_on_c, 0, 72, 96
2, 201342, Note_on_c, 0, 67, 89
2, 201348, Note_on_c, 0, 60, 82
2, 201484, Note_on_c, 0, 53, 0
2, 201495, Note_on_c, 0, 53, 72
2, 201638, Note_on_c, 0, 60, 0
2, 201645, Note_on_c, 0, 60, 70
2, 201799, Note_on_c, 0, 72, 0
2, 201805, Note_on_c, 0, 81, 99
2, 201806, Note_on_c, 0, 72, 93
2, 201809, Note_on_c, 0, 69, 92
2, 201822, Note_on_c, 0, 65, 0
2, 201826, Note_on_c, 0, 65, 70
2, 201845, Note_on_c, 0, 55, 0
2, 201855, Note_on_c, 0, 55, 43
2, 201968, Note_on_c, 0, 60, 0
2, 201977, Note_on_c, 0, 60, 66
2, 202106, Note_on_c, 0, 67, 0
2, 202117, Note_on_c, 0, 67, 77
2, 202260, Note_on_c, 0, 69, 0
2, 202265, Note_on_c, 0, 83, 101
2, 202266, Note_on_c, 0, 71, 97
2, 202269, Note_on_c, 0, 69, 85
2, 202269, Note_on_c, 0, 74, 95
2, 202421, Note_on_c, 0, 60, 0
2, 202425, Note_on_c, 0, 60, 78
2, 202575, Note_on_c, 0, 72, 0
2, 202580, Note_on_c, 0, 84, 102
2, 202583, Note_on_c, 0, 53, 0
2, 202584, Note_on_c, 0, 72, 97
2, 202587, Note_on_c, 0, 53, 71
2, 202705, Note_on_c, 0, 60, 0
2, 202717, Note_on_c, 0, 60, 73
2, 202874, Note_on_c, 0, 77, 0
2, 202882, Note_on_c, 0, 84, 0
2, 202889, Note_on_c, 0, 84, 101
2, 202890, Note_on_c, 0, 72, 0
2, 202890, Note_on_c, 0, 81, 0
2, 202893, Note_on_c, 0, 48, 0
2, 202894, Note_on_c, 0, 43, 80
2, 202894, Note_on_c, 0, 72, 98
2, 202894, Note_on_c, 0, 71, 0
2, 202894, Note_on_c, 0, 57, 0
2, 202894, Note_on_c, 0, 74, 0
2, 202894, Note_on_c, 0, 79, 0
2, 202895, Note_on_c, 0, 83, 0
2, 202895, Note_on_c, 0, 81, 95
2, 202895, Note_on_c, 0, 65, 0
2, 202896, Note_on_c, 0, 77, 91
2, 202901, Control_c, 0, 64, 0
2, 202905, Note_on_c, 0, 67, 0
2, 202913, Note_on_c, 0, 53, 0
2, 202913, Note_on_c, 0, 60, 0
2, 202913, Note_on_c, 0, 69, 0
2, 202920, Note_on_c, 0, 41, 0
2, 202936, Note_on_c, 0, 55, 0
2, 202974, Control_c, 0, 64, 127
2, 203049, Note_on_c, 0, 53, 66
2, 203202, Note_on_c, 0, 57, 66
2, 203385, Note_on_c, 0, 60, 68
2, 203522, Note_on_c, 0, 69, 79
2, 203528, Note_on_c, 0, 65, 63
2, 203650, Note_on_c, 0, 57, 0
2, 203654, Note_on_c, 0, 57, 65
2, 203827, Note_on_c, 0, 53, 0
2, 203831, Note_on_c, 0, 53, 61
2, 203980, Note_on_c, 0, 83, 84
2, 203983, Note_on_c, 0, 71, 86
2, 203984, Note_on_c, 0, 50, 64
2, 204126, Note_on_c, 0, 83, 0
2, 204134, Note_on_c, 0, 43, 0
2, 204134, Note_on_c, 0, 71, 0
2, 204137, Note_on_c, 0, 83, 100
2, 204138, Note_on_c, 0, 43, 85
2, 204139, Note_on_c, 0, 71, 88
2, 204141, Note_on_c, 0, 74, 91
2, 204157, Note_on_c, 0, 69, 0
2, 204157, Control_c, 0, 64, 0
2, 204157, Note_on_c, 0, 57, 0
2, 204157, Note_on_c, 0, 65, 0
2, 204158, Note_on_c, 0, 60, 0
2, 204158, Note_on_c, 0, 50, 0
2, 204158, Note_on_c, 0, 84, 0
2, 204158, Note_on_c, 0, 53, 0
2, 204158, Note_on_c, 0, 77, 0
2, 204159, Note_on_c, 0, 72, 0
2, 204159, Note_on_c, 0, 81, 0
2, 204234, Control_c, 0, 64, 127
2, 204306, Note_on_c, 0, 50, 52
2, 204436, Note_on_c, 0, 55, 64
2, 204598, Note_on_c, 0, 59, 67
2, 204741, Note_on_c, 0, 71, 0
2, 204752, Note_on_c, 0, 71, 79
2, 204752, Note_on_c, 0, 62, 65
2, 204894, Note_on_c, 0, 55, 0
2, 204899, Note_on_c, 0, 55, 61
2, 205048, Note_on_c, 0, 50, 0
2, 205059, Note_on_c, 0, 50, 65
2, 205194, Note_on_c, 0, 43, 0
2, 205204, Note_on_c, 0, 43, 69
2, 205205, Note_on_c, 0, 81, 88
2, 205208, Note_on_c, 0, 69, 77
2, 205363, Note_on_c, 0, 81, 0
2, 205368, Note_on_c, 0, 62, 0
2, 205369, Note_on_c, 0, 50, 0
2, 205370, Note_on_c, 0, 69, 0
2, 205370, Note_on_c, 0, 71, 0
2, 205370, Note_on_c, 0, 74, 0
2, 205371, Note_on_c, 0, 59, 0
2, 205373, Note_on_c, 0, 55, 0
2, 205373, Note_on_c, 0, 81, 96
2, 205375, Control_c, 0, 64, 0
2, 205376, Note_on_c, 0, 71, 84
2, 205377, Note_on_c, 0, 69, 83
2, 205377, Note_on_c, 0, 40, 81
2, 205382, Note_on_c, 0, 74, 86
2, 205386, Note_on_c, 0, 83, 0
2, 205393, Note_on_c, 0, 43, 0
2, 205486, Control_c, 0, 64, 127
2, 205558, Note_on_c, 0, 47, 64
2, 205668, Note_on_c, 0, 52, 61
2, 205845, Note_on_c, 0, 59, 61
2, 206000, Note_on_c, 0, 69, 0
2, 206005, Note_on_c, 0, 69, 71
2, 206011, Note_on_c, 0, 64, 54
2, 206018, Note_on_c, 0, 62, 51
2, 206154, Note_on_c, 0, 52, 0
2, 206164, Note_on_c, 0, 52, 61
2, 206315, Note_on_c, 0, 47, 0
2, 206325, Note_on_c, 0, 47, 56
2, 206469, Note_on_c, 0, 69, 0
2, 206469, Note_on_c, 0, 81, 0
2, 206473, Note_on_c, 0, 81, 75
2, 206479, Note_on_c, 0, 69, 71
2, 206649, Note_on_c, 0, 80, 81
2, 206653, Note_on_c, 0, 40, 0
2, 206653, Note_on_c, 0, 74, 0
2, 206662, Note_on_c, 0, 74, 64
2, 206663, Note_on_c, 0, 40, 68
2, 206679, Note_on_c, 0, 76, 62
2, 206680, Note_on_c, 0, 68, 59
2, 206703, Note_on_c, 0, 52, 0
2, 206703, Note_on_c, 0, 64, 0
2, 206704, Control_c, 0, 64, 0
2, 206704, Note_on_c, 0, 69, 0
2, 206705, Note_on_c, 0, 59, 0
2, 206705, Note_on_c, 0, 47, 0
2, 206705, Note_on_c, 0, 62, 0
2, 206707, Note_on_c, 0, 81, 0
2, 206832, Note_on_c, 0, 47, 45
2, 206837, Control_c, 0, 64, 127
2, 206971, Note_on_c, 0, 52, 59
2, 207131, Note_on_c, 0, 59, 61
2, 207293, Note_on_c, 0, 64, 54
2, 207479, Note_on_c, 0, 69, 54
2, 207659, Note_on_c, 0, 71, 0
2, 207666, Note_on_c, 0, 71, 55
2, 208051, Note_on_c, 0, 47, 0
2, 208128, Note_on_c, 0, 76, 0
2, 208132, Note_on_c, 0, 76, 48
2, 208135, Note_on_c, 0, 40, 0
2, 208143, Note_on_c, 0, 68, 0
2, 208145, Note_on_c, 0, 40, 44
2, 208154, Note_on_c, 0, 68, 44
2, 208233, Control_c, 0, 64, 0
2, 208266, Control_c, 0, 64, 127
2, 209280, Note_on_c, 0, 64, 0
2, 209280, Note_on_c, 0, 74, 0
2, 209280, Note_on_c, 0, 80, 0
2, 210401, Note_on_c, 0, 59, 0
2, 210423, Note_on_c, 0, 76, 0
2, 210423, Note_on_c, 0, 52, 0
2, 210424, Note_on_c, 0, 71, 0
2, 210426, Note_on_c, 0, 69, 0
2, 210427, Note_on_c, 0, 68, 0
2, 210441, Control_c, 0, 64, 0
2, 210455, Note_on_c, 0, 40, 0
2, 212818, Note_on_c, 0, 83, 52
2, 213175, Note_on_c, 0, 76, 45
2, 213181, Control_c, 0, 64, 127
2, 213183, Note_on_c, 0, 84, 57
2, 213189, Note_on_c, 0, 72, 49
2, 213200, Note_on_c, 0, 69, 39
2, 213511, Note_on_c, 0, 83, 0
2, 213518, Note_on_c, 0, 83, 59
2, 213672, Note_on_c, 0, 84, 0
2, 213681, Note_on_c, 0, 84, 61
2, 214008, Note_on_c, 0, 91, 56
2, 214341, Note_on_c, 0, 91, 0
2, 214351, Note_on_c, 0, 91, 51
2, 215616, Note_on_c, 0, 83, 0
2, 215625, Note_on_c, 0, 83, 55
2, 215946, Note_on_c, 0, 84, 0
2, 215957, Note_on_c, 0, 84, 62
2, 215961, Note_on_c, 0, 72, 0
2, 215966, Note_on_c, 0, 72, 49
2, 215969, Note_on_c, 0, 69, 0
2, 215969, Note_on_c, 0, 76, 0
2, 215973, Note_on_c, 0, 65, 38
2, 215973, Note_on_c, 0, 76, 41
2, 215974, Note_on_c, 0, 69, 31
2, 215988, Note_on_c, 0, 58, 30
2, 216000, Note_on_c, 0, 58, 0
2, 216011, Control_c, 0, 64, 0
2, 216015, Note_on_c, 0, 83, 0
2, 216023, Note_on_c, 0, 91, 0
2, 216130, Control_c, 0, 64, 127
2, 216297, Note_on_c, 0, 83, 63
2, 216453, Note_on_c, 0, 84, 0
2, 216464, Note_on_c, 0, 84, 70
2, 216801, Note_on_c, 0, 91, 66
2, 217128, Note_on_c, 0, 91, 0
2, 217137, Note_on_c, 0, 91, 77
2, 217448, Note_on_c, 0, 93, 65
2, 217459, Note_on_c, 0, 72, 0
2, 217463, Note_on_c, 0, 72, 34
2, 217620, Note_on_c, 0, 91, 0
2, 217624, Note_on_c, 0, 91, 72
2, 218242, Note_on_c, 0, 84, 0
2, 218253, Note_on_c, 0, 84, 65
2, 218407, Note_on_c, 0, 86, 70
2, 218419, Note_on_c, 0, 84, 0
2, 218430, Note_on_c, 0, 84, 51
2, 218576, Note_on_c, 0, 88, 70
2, 218580, Note_on_c, 0, 86, 0
2, 218585, Note_on_c, 0, 86, 55
2, 218590, Note_on_c, 0, 74, 60
2, 218591, Control_c, 0, 64, 0
2, 218592, Note_on_c, 0, 60, 50
2, 218593, Note_on_c, 0, 67, 52
2, 218598, Note_on_c, 0, 72, 0
2, 218599, Note_on_c, 0, 83, 0
2, 218600, Note_on_c, 0, 84, 0
2, 218600, Note_on_c, 0, 93, 0
2, 218600, Note_on_c, 0, 65, 0
2, 218618, Note_on_c, 0, 69, 0
2, 218688, Control_c, 0, 64, 127
2, 218908, Note_on_c, 0, 89, 64
2, 219072, Note_on_c, 0, 88, 0
2, 219076, Note_on_c, 0, 88, 70
2, 219394, Note_on_c, 0, 89, 0
2, 219403, Note_on_c, 0, 89, 80
2, 219724, Note_on_c, 0, 88, 0
2, 219734, Note_on_c, 0, 88, 75
2, 219893, Note_on_c, 0, 76, 0
2, 219899, Note_on_c, 0, 76, 56
2, 219901, Note_on_c, 0, 72, 49
2, 220185, Note_on_c, 0, 86, 0
2, 220189, Note_on_c, 0, 86, 71
2, 220525, Note_on_c, 0, 84, 62
2, 220800, Note_on_c, 0, 60, 0
2, 220800, Note_on_c, 0, 67, 0
2, 220800, Note_on_c, 0, 74, 0
2, 220800, Note_on_c, 0, 91, 0
2, 220861, Note_on_c, 0, 86, 0
2, 220872, Note_on_c, 0, 86, 73
2, 221191, Note_on_c, 0, 86, 0
2, 221196, Note_on_c, 0, 86, 66
2, 221211, Note_on_c, 0, 74, 55
2, 221213, Note_on_c, 0, 69, 51
2, 221215, Note_on_c, 0, 62, 52
2, 221216, Note_on_c, 0, 55, 44
2, 221260, Note_on_c, 0, 72, 0
2, 221262, Note_on_c, 0, 88, 0
2, 221262, Note_on_c, 0, 84, 0
2, 221263, Note_on_c, 0, 76, 0
2, 221264, Control_c, 0, 64, 0
2, 221283, Note_on_c, 0, 89, 0
2, 221391, Control_c, 0, 64, 127
2, 222582, Note_on_c, 0, 71, 43
2, 223687, Note_on_c, 0, 71, 0
2, 223691, Note_on_c, 0, 71, 69
2, 224029, Control_c, 0, 64, 0
2, 224044, Note_on_c, 0, 45, 53
2, 224046, Note_on_c, 0, 72, 70
2, 224058, Note_on_c, 0, 52, 45
2, 224059, Note_on_c, 0, 64, 48
2, 224061, Note_on_c, 0, 60, 51
2, 224064, Note_on_c, 0, 64, 0
2, 224087, Control_c, 0, 64, 127
2, 224371, Note_on_c, 0, 71, 0
2, 224381, Note_on_c, 0, 71, 65
2, 224547, Note_on_c, 0, 72, 0
2, 224554, Note_on_c, 0, 72, 68
2, 224640, Note_on_c, 0, 55, 0
2, 224640, Note_on_c, 0, 62, 0
2, 224640, Note_on_c, 0, 69, 0
2, 224640, Note_on_c, 0, 74, 0
2, 224640, Note_on_c, 0, 86, 0
2, 224714, Note_on_c, 0, 67, 48
2, 224719, Note_on_c, 0, 64, 42
2, 224724, Note_on_c, 0, 60, 0
2, 224729, Note_on_c, 0, 60, 47
2, 224847, Note_on_c, 0, 72, 0
2, 224856, Note_on_c, 0, 72, 54
2, 224858, Note_on_c, 0, 79, 60
2, 224862, Note_on_c, 0, 79, 0
2, 225216, Note_on_c, 0, 79, 74
2, 225384, Note_on_c, 0, 67, 0
2, 225392, Note_on_c, 0, 60, 0
2, 225392, Note_on_c, 0, 64, 0
2, 225393, Note_on_c, 0, 67, 48
2, 225396, Note_on_c, 0, 60, 44
2, 225401, Note_on_c, 0, 64, 46
2, 226037, Note_on_c, 0, 64, 0
2, 226037, Note_on_c, 0, 67, 0
2, 226044, Note_on_c, 0, 64, 48
2, 226045, Note_on_c, 0, 67, 49
2, 226045, Note_on_c, 0, 60, 0
2, 226056, Note_on_c, 0, 60, 50
2, 226129, Note_on_c, 0, 79, 0
2, 226155, Control_c, 0, 64, 0
2, 226176, Control_c, 0, 64, 127
2, 226360, Note_on_c, 0, 71, 0
2, 226371, Note_on_c, 0, 71, 73
2, 226682, Note_on_c, 0, 72, 0
2, 226688, Note_on_c, 0, 72, 78
2, 226690, Note_on_c, 0, 60, 0
2, 226693, Note_on_c, 0, 48, 53
2, 226697, Note_on_c, 0, 41, 49
2, 226697, Note_on_c, 0, 57, 56
2, 226699, Note_on_c, 0, 60, 51
2, 226709, Control_c, 0, 64, 0
2, 226722, Note_on_c, 0, 71, 0
2, 226723, Note_on_c, 0, 67, 0
2, 226724, Note_on_c, 0, 52, 0
2, 226744, Note_on_c, 0, 45, 0
2, 226752, Note_on_c, 0, 64, 0
2, 226775, Control_c, 0, 64, 127
2, 227020, Note_on_c, 0, 71, 74
2, 227174, Note_on_c, 0, 72, 0
2, 227185, Note_on_c, 0, 72, 83
2, 227212, Note_on_c, 0, 57, 0
2, 227216, Note_on_c, 0, 57, 34
2, 227333, Note_on_c, 0, 67, 56
2, 227335, Note_on_c, 0, 60, 0
2, 227340, Note_on_c, 0, 64, 49
2, 227341, Note_on_c, 0, 60, 56
2, 227494, Note_on_c, 0, 79, 75
2, 227811, Note_on_c, 0, 79, 0
2, 227816, Note_on_c, 0, 79, 86
2, 227950, Note_on_c, 0, 67, 0
2, 227960, Note_on_c, 0, 67, 63
2, 227965, Note_on_c, 0, 60, 0
2, 227965, Note_on_c, 0, 64, 0
2, 227969, Note_on_c, 0, 60, 65
2, 227973, Note_on_c, 0, 64, 54
2, 228126, Note_on_c, 0, 81, 88
2, 228288, Note_on_c, 0, 79, 0
2, 228297, Note_on_c, 0, 79, 87
2, 228572, Note_on_c, 0, 64, 0
2, 228579, Note_on_c, 0, 67, 0
2, 228583, Note_on_c, 0, 64, 61
2, 228590, Note_on_c, 0, 67, 56
2, 228595, Note_on_c, 0, 60, 0
2, 228603, Note_on_c, 0, 60, 59
2, 228902, Note_on_c, 0, 72, 0
2, 228908, Note_on_c, 0, 72, 80
2, 229059, Note_on_c, 0, 74, 86
2, 229224, Note_on_c, 0, 60, 0
2, 229224, Note_on_c, 0, 72, 0
2, 229226, Note_on_c, 0, 76, 91
2, 229232, Note_on_c, 0, 72, 77
2, 229232, Note_on_c, 0, 48, 0
2, 229232, Note_on_c, 0, 67, 0
2, 229235, Note_on_c, 0, 60, 70
2, 229238, Note_on_c, 0, 48, 66
2, 229238, Note_on_c, 0, 67, 72
2, 229243, Note_on_c, 0, 55, 64
2, 229261, Note_on_c, 0, 57, 0
2, 229265, Note_on_c, 0, 74, 0
2, 229265, Note_on_c, 0, 71, 0
2, 229266, Note_on_c, 0, 79, 0
2, 229271, Note_on_c, 0, 41, 0
2, 229271, Note_on_c, 0, 81, 0
2, 229275, Control_c, 0, 64, 0
2, 229286, Note_on_c, 0, 64, 0
2, 229332, Control_c, 0, 64, 127
2, 229552, Note_on_c, 0, 77, 81
2, 229708, Note_on_c, 0, 76, 0
2, 229716, Note_on_c, 0, 67, 0
2, 229716, Note_on_c, 0, 72, 0
2, 229717, Note_on_c, 0, 76, 86
2, 229721, Note_on_c, 0, 72, 71
2, 229725, Note_on_c, 0, 67, 71
2, 229870, Note_on_c, 0, 55, 0
2, 229870, Note_on_c, 0, 60, 0
2, 229874, Note_on_c, 0, 60, 70
2, 229876, Note_on_c, 0, 55, 64
2, 229877, Note_on_c, 0, 62, 65
2, 230031, Note_on_c, 0, 77, 0
2, 230035, Note_on_c, 0, 77, 83
2, 230231, Note_on_c, 0, 77, 0
2, 230237, Note_on_c, 0, 77, 55
2, 230346, Note_on_c, 0, 76, 0
2, 230351, Note_on_c, 0, 76, 86
2, 230353, Note_on_c, 0, 67, 0
2, 230353, Note_on_c, 0, 72, 0
2, 230358, Note_on_c, 0, 72, 82
2, 230362, Note_on_c, 0, 67, 74
2, 230507, Note_on_c, 0, 55, 0
2, 230507, Note_on_c, 0, 60, 0
2, 230509, Note_on_c, 0, 64, 77
2, 230511, Note_on_c, 0, 60, 80
2, 230513, Note_on_c, 0, 55, 72
2, 230807, Note_on_c, 0, 77, 0
2, 230817, Note_on_c, 0, 77, 91
2, 230991, Note_on_c, 0, 48, 0
2, 231114, Note_on_c, 0, 60, 0
2, 231114, Note_on_c, 0, 72, 0
2, 231114, Note_on_c, 0, 76, 0
2, 231121, Note_on_c, 0, 55, 0
2, 231121, Note_on_c, 0, 67, 0
2, 231124, Note_on_c, 0, 72, 87
2, 231125, Note_on_c, 0, 60, 81
2, 231125, Note_on_c, 0, 76, 91
2, 231129, Note_on_c, 0, 65, 80
2, 231130, Note_on_c, 0, 67, 82
2, 231133, Note_on_c, 0, 55, 82
2, 231133, Control_c, 0, 64, 0
2, 231137, Note_on_c, 0, 62, 0
2, 231141, Note_on_c, 0, 64, 0
2, 231142, Note_on_c, 0, 77, 0
2, 231198, Control_c, 0, 64, 127
2, 231448, Note_on_c, 0, 77, 96
2, 231767, Note_on_c, 0, 55, 0
2, 231771, Note_on_c, 0, 79, 89
2, 231773, Note_on_c, 0, 55, 90
2, 231774, Note_on_c, 0, 67, 0
2, 231778, Note_on_c, 0, 74, 85
2, 231778, Note_on_c, 0, 43, 85
2, 231778, Note_on_c, 0, 71, 84
2, 231778, Control_c, 0, 64, 0
2, 231779, Note_on_c, 0, 67, 84
2, 231785, Note_on_c, 0, 65, 0
2, 231785, Note_on_c, 0, 77, 0
2, 231797, Note_on_c, 0, 60, 0
2, 231797, Note_on_c, 0, 72, 0
2, 231813, Note_on_c, 0, 76, 0
2, 231843, Control_c, 0, 64, 127
2, 232419, Note_on_c, 0, 55, 0
2, 232425, Note_on_c, 0, 69, 89
2, 232427, Note_on_c, 0, 65, 89
2, 232429, Note_on_c, 0, 55, 86
2, 232430, Note_on_c, 0, 62, 84
2, 232430, Control_c, 0, 64, 0
2, 232465, Note_on_c, 0, 79, 0
2, 232496, Control_c, 0, 64, 127
2, 232919, Note_on_c, 0, 71, 0
2, 232926, Note_on_c, 0, 62, 0
2, 232926, Note_on_c, 0, 67, 0
2, 232929, Note_on_c, 0, 71, 97
2, 232932, Note_on_c, 0, 67, 88
2, 232934, Note_on_c, 0, 62, 92
2, 232935, Control_c, 0, 64, 0
2, 232995, Control_c, 0, 64, 127
2, 233195, Note_on_c, 0, 74, 0
2, 233223, Control_c, 0, 64, 0
2, 233226, Note_on_c, 0, 43, 0
2, 233230, Note_on_c, 0, 65, 0
2, 233230, Note_on_c, 0, 71, 0
2, 233230, Note_on_c, 0, 67, 0
2, 233233, Note_on_c, 0, 55, 0
2, 233236, Note_on_c, 0, 52, 102
2, 233237, Note_on_c, 0, 40, 104
2, 233237, Note_on_c, 0, 64, 92
2, 233239, Note_on_c, 0, 68, 87
2, 233241, Note_on_c, 0, 62, 0
2, 233249, Note_on_c, 0, 68, 0
2, 233249, Note_on_c, 0, 69, 0
2, 233280, Control_c, 0, 64, 127
2, 233305, Note_on_c, 0, 68, 66
2, 233384, Note_on_c, 0, 69, 86
2, 233454, Note_on_c, 0, 71, 71
2, 233524, Note_on_c, 0, 74, 83
2, 233531, Note_on_c, 0, 76, 88
2, 233539, Note_on_c, 0, 62, 97
2, 233545, Note_on_c, 0, 59, 85
2, 233549, Note_on_c, 0, 56, 87
2, 233573, Note_on_c, 0, 80, 65
2, 233604, Note_on_c, 0, 81, 83
2, 233688, Note_on_c, 0, 88, 94
2, 233721, Note_on_c, 0, 92, 78
2, 233725, Note_on_c, 0, 92, 0
2, 233745, Note_on_c, 0, 93, 88
2, 233777, Note_on_c, 0, 95, 85
2, 233826, Note_on_c, 0, 100, 108
2, 233835, Note_on_c, 0, 98, 90
2, 233848, Note_on_c, 0, 52, 0
2, 233858, Note_on_c, 0, 52, 102
2, 233978, Note_on_c, 0, 40, 0
2, 233984, Note_on_c, 0, 40, 102
2, 234124, Note_on_c, 0, 40, 0
2, 234124, Note_on_c, 0, 64, 0
2, 234124, Note_on_c, 0, 71, 0
2, 234125, Note_on_c, 0, 80, 0
2, 234127, Note_on_c, 0, 76, 0
2, 234127, Note_on_c, 0, 62, 0
2, 234127, Note_on_c, 0, 68, 0
2, 234128, Note_on_c, 0, 52, 0
2, 234131, Note_on_c, 0, 64, 82
2, 234132, Note_on_c, 0, 59, 0
2, 234134, Note_on_c, 0, 40, 82
2, 234134, Note_on_c, 0, 71, 99
2, 234135, Note_on_c, 0, 47, 88
2, 234136, Note_on_c, 0, 59, 96
2, 234216, Note_on_c, 0, 95, 0
2, 234232, Note_on_c, 0, 93, 0
2, 234240, Note_on_c, 0, 98, 0
2, 234255, Note_on_c, 0, 88, 0
2, 234263, Note_on_c, 0, 74, 0
2, 234266, Note_on_c, 0, 71, 0
2, 234266, Note_on_c, 0, 59, 0
2, 234266, Note_on_c, 0, 47, 0
2, 234267, Control_c, 0, 64, 0
2, 234268, Note_on_c, 0, 40, 0
2, 234270, Note_on_c, 0, 100, 0
2, 234278, Note_on_c, 0, 56, 0
2, 234278, Note_on_c, 0, 81, 0
2, 234293, Note_on_c, 0, 64, 0
2, 234297, Note_on_c, 0, 72, 104
2, 234298, Note_on_c, 0, 60, 103
2, 234300, Note_on_c, 0, 45, 106
2, 234300, Note_on_c, 0, 64, 94
2, 234302, Note_on_c, 0, 33, 99
2, 234339, Control_c, 0, 64, 127
2, 234493, Note_on_c, 0, 33, 0
2, 234618, Note_on_c, 0, 71, 95
2, 234619, Note_on_c, 0, 59, 94
2, 234769, Note_on_c, 0, 72, 0
2, 234777, Note_on_c, 0, 60, 0
2, 234780, Note_on_c, 0, 72, 100
2, 234781, Note_on_c, 0, 60, 99
2, 235089, Note_on_c, 0, 79, 96
2, 235096, Note_on_c, 0, 67, 91
2, 235228, Note_on_c, 0, 52, 86
2, 235398, Control_c, 0, 64, 0
2, 235405, Note_on_c, 0, 40, 77
2, 235407, Note_on_c, 0, 45, 0
2, 235407, Note_on_c, 0, 67, 0
2, 235407, Note_on_c, 0, 72, 0
2, 235407, Note_on_c, 0, 79, 0
2, 235411, Note_on_c, 0, 33, 83
2, 235412, Note_on_c, 0, 52, 0
2, 235412, Note_on_c, 0, 79, 97
2, 235412, Note_on_c, 0, 71, 0
2, 235412, Note_on_c, 0, 60, 0
2, 235412, Note_on_c, 0, 59, 0
2, 235412, Note_on_c, 0, 64, 0
2, 235413, Note_on_c, 0, 45, 87
2, 235414, Note_on_c, 0, 67, 96
2, 235417, Note_on_c, 0, 72, 94
2, 235418, Note_on_c, 0, 76, 93
2, 235422, Note_on_c, 0, 69, 0
2, 235445, Note_on_c, 0, 45, 0
2, 235445, Control_c, 0, 64, 127
2, 235468, Note_on_c, 0, 40, 0
2, 235484, Note_on_c, 0, 33, 0
2, 235542, Note_on_c, 0, 45, 97
2, 235684, Note_on_c, 0, 59, 89
2, 235857, Note_on_c, 0, 60, 87
2, 236014, Note_on_c, 0, 67, 0
2, 236022, Note_on_c, 0, 67, 101
2, 236324, Note_on_c, 0, 57, 94
2, 236482, Note_on_c, 0, 59, 0
2, 236492, Note_on_c, 0, 71, 99
2, 236493, Note_on_c, 0, 59, 97
2, 236628, Note_on_c, 0, 60, 0
2, 236639, Note_on_c, 0, 60, 84
2, 236805, Note_on_c, 0, 72, 0
2, 236809, Note_on_c, 0, 72, 93
2, 236815, Control_c, 0, 64, 0
2, 236816, Note_on_c, 0, 65, 87
2, 236816, Note_on_c, 0, 69, 80
2, 236817, Note_on_c, 0, 57, 0
2, 236817, Note_on_c, 0, 59, 0
2, 236817, Note_on_c, 0, 71, 0
2, 236818, Note_on_c, 0, 45, 0
2, 236818, Note_on_c, 0, 67, 0
2, 236818, Note_on_c, 0, 41, 96
2, 236819, Note_on_c, 0, 76, 0
2, 236819, Note_on_c, 0, 79, 0
2, 236820, Note_on_c, 0, 29, 96
2, 236835, Note_on_c, 0, 60, 0
2, 236904, Control_c, 0, 64, 127
2, 236981, Note_on_c, 0, 29, 0
2, 237132, Note_on_c, 0, 71, 89
2, 237141, Note_on_c, 0, 59, 85
2, 237288, Note_on_c, 0, 72, 0
2, 237292, Note_on_c, 0, 72, 100
2, 237299, Note_on_c, 0, 60, 87
2, 237616, Note_on_c, 0, 79, 93
2, 237617, Note_on_c, 0, 91, 93
2, 237622, Note_on_c, 0, 67, 90
2, 237626, Note_on_c, 0, 91, 0
2, 237752, Note_on_c, 0, 48, 88
2, 237918, Note_on_c, 0, 67, 0
2, 237918, Note_on_c, 0, 72, 0
2, 237918, Note_on_c, 0, 79, 0
2, 237926, Note_on_c, 0, 67, 97
2, 237928, Note_on_c, 0, 72, 91
2, 237929, Note_on_c, 0, 76, 94
2, 237930, Note_on_c, 0, 79, 87
2, 238056, Note_on_c, 0, 41, 0
2, 238064, Note_on_c, 0, 41, 88
2, 238218, Note_on_c, 0, 69, 0
2, 238225, Note_on_c, 0, 81, 96
2, 238229, Note_on_c, 0, 69, 86
2, 238379, Note_on_c, 0, 79, 0
2, 238387, Note_on_c, 0, 72, 0
2, 238387, Note_on_c, 0, 76, 0
2, 238389, Note_on_c, 0, 79, 92
2, 238397, Note_on_c, 0, 72, 85
2, 238398, Note_on_c, 0, 76, 86
2, 238540, Note_on_c, 0, 69, 0
2, 238546, Note_on_c, 0, 69, 93
2, 238848, Note_on_c, 0, 67, 0
2, 238856, Note_on_c, 0, 67, 86
2, 239009, Note_on_c, 0, 72, 0
2, 239016, Note_on_c, 0, 72, 96
2, 239162, Note_on_c, 0, 71, 0
2, 239163, Note_on_c, 0, 74, 102
2, 239168, Note_on_c, 0, 43, 78
2, 239168, Note_on_c, 0, 71, 67
2, 239324, Note_on_c, 0, 67, 0
2, 239324, Note_on_c, 0, 72, 0
2, 239324, Note_on_c, 0, 76, 0
2, 239329, Note_on_c, 0, 76, 101
2, 239331, Note_on_c, 0, 36, 88
2, 239334, Note_on_c, 0, 72, 95
2, 239335, Note_on_c, 0, 67, 84
2, 239341, Control_c, 0, 64, 0
2, 239342, Note_on_c, 0, 79, 0
2, 239343, Note_on_c, 0, 48, 0
2, 239343, Note_on_c, 0, 59, 0
2, 239343, Note_on_c, 0, 60, 0
2, 239343, Note_on_c, 0, 65, 0
2, 239343, Note_on_c, 0, 69, 0
2, 239343, Note_on_c, 0, 71, 0
2, 239343, Note_on_c, 0, 81, 0
2, 239344, Note_on_c, 0, 43, 0
2, 239344, Note_on_c, 0, 74, 0
2, 239354, Note_on_c, 0, 41, 0
2, 239408, Control_c, 0, 64, 127
2, 239639, Note_on_c, 0, 77, 96
2, 239800, Note_on_c, 0, 67, 0
2, 239800, Note_on_c, 0, 72, 0
2, 239800, Note_on_c, 0, 76, 0
2, 239804, Note_on_c, 0, 76, 99
2, 239809, Note_on_c, 0, 72, 83
2, 239811, Note_on_c, 0, 67, 76
2, 240107, Note_on_c, 0, 77, 0
2, 240118, Note_on_c, 0, 77, 98
2, 240272, Note_on_c, 0, 48, 80
2, 240422, Note_on_c, 0, 67, 0
2, 240422, Note_on_c, 0, 72, 0
2, 240422, Note_on_c, 0, 76, 0
2, 240426, Note_on_c, 0, 76, 99
2, 240427, Note_on_c, 0, 55, 83
2, 240429, Note_on_c, 0, 52, 68
2, 240432, Note_on_c, 0, 72, 88
2, 240433, Note_on_c, 0, 67, 79
2, 240580, Note_on_c, 0, 60, 90
2, 240586, Note_on_c, 0, 64, 90
2, 240900, Note_on_c, 0, 74, 96
2, 241044, Note_on_c, 0, 60, 0
2, 241044, Note_on_c, 0, 74, 0
2, 241050, Note_on_c, 0, 60, 88
2, 241051, Note_on_c, 0, 74, 84
2, 241052, Note_on_c, 0, 62, 90
2, 241228, Note_on_c, 0, 72, 0
2, 241233, Note_on_c, 0, 72, 92
2, 241359, Note_on_c, 0, 55, 0
2, 241369, Note_on_c, 0, 55, 84
2, 241520, Note_on_c, 0, 74, 0
2, 241527, Note_on_c, 0, 74, 99
2, 241543, Note_on_c, 0, 60, 0
2, 241543, Note_on_c, 0, 62, 0
2, 241549, Note_on_c, 0, 60, 73
2, 241555, Note_on_c, 0, 62, 77
2, 241827, Note_on_c, 0, 55, 0
2, 241827, Note_on_c, 0, 74, 0
2, 241832, Note_on_c, 0, 43, 89
2, 241832, Note_on_c, 0, 55, 96
2, 241835, Note_on_c, 0, 62, 0
2, 241835, Note_on_c, 0, 67, 0
2, 241835, Note_on_c, 0, 74, 99
2, 241839, Note_on_c, 0, 71, 94
2, 241839, Note_on_c, 0, 62, 96
2, 241845, Note_on_c, 0, 67, 87
2, 241862, Control_c, 0, 64, 0
2, 241866, Note_on_c, 0, 64, 0
2, 241869, Note_on_c, 0, 76, 0
2, 241869, Note_on_c, 0, 52, 0
2, 241870, Note_on_c, 0, 48, 0
2, 241870, Note_on_c, 0, 72, 0
2, 241871, Note_on_c, 0, 36, 0
2, 241873, Note_on_c, 0, 77, 0
2, 241881, Note_on_c, 0, 60, 0
2, 241920, Control_c, 0, 64, 127
2, 242169, Note_on_c, 0, 50, 73
2, 242257, Note_on_c, 0, 55, 0
2, 242299, Note_on_c, 0, 55, 79
2, 242334, Note_on_c, 0, 62, 0
2, 242339, Note_on_c, 0, 62, 33
2, 242449, Note_on_c, 0, 62, 0
2, 242449, Note_on_c, 0, 67, 0
2, 242457, Note_on_c, 0, 74, 0
2, 242460, Note_on_c, 0, 62, 86
2, 242460, Note_on_c, 0, 67, 87
2, 242461, Note_on_c, 0, 59, 86
2, 242462, Note_on_c, 0, 74, 82
2, 242554, Note_on_c, 0, 81, 78
2, 242563, Note_on_c, 0, 83, 63
2, 242642, Note_on_c, 0, 86, 83
2, 242691, Note_on_c, 0, 91, 79
2, 242742, Note_on_c, 0, 52, 88
2, 242751, Note_on_c, 0, 93, 94
2, 242784, Note_on_c, 0, 95, 82
2, 242875, Note_on_c, 0, 93, 0
2, 242875, Note_on_c, 0, 50, 0
2, 242875, Note_on_c, 0, 81, 0
2, 242875, Note_on_c, 0, 62, 0
2, 242875, Note_on_c, 0, 71, 0
2, 242875, Note_on_c, 0, 86, 0
2, 242875, Note_on_c, 0, 95, 0
2, 242875, Note_on_c, 0, 59, 0
2, 242875, Note_on_c, 0, 83, 0
2, 242875, Control_c, 0, 64, 0
2, 242876, Note_on_c, 0, 91, 0
2, 242876, Note_on_c, 0, 67, 0
2, 242876, Note_on_c, 0, 74, 0
2, 242887, Note_on_c, 0, 43, 0
2, 242887, Note_on_c, 0, 55, 0
2, 242893, Note_on_c, 0, 100, 107
2, 242895, Note_on_c, 0, 52, 0
2, 242902, Note_on_c, 0, 52, 100
2, 242902, Note_on_c, 0, 40, 102
2, 242933, Control_c, 0, 64, 127
2, 242966, Note_on_c, 0, 95, 78
2, 243022, Note_on_c, 0, 93, 85
2, 243061, Note_on_c, 0, 92, 83
2, 243109, Note_on_c, 0, 88, 72
2, 243180, Note_on_c, 0, 83, 81
2, 243222, Note_on_c, 0, 81, 73
2, 243274, Note_on_c, 0, 80, 76
2, 243323, Note_on_c, 0, 76, 78
2, 243330, Note_on_c, 0, 64, 83
2, 243337, Note_on_c, 0, 59, 72
2, 243340, Note_on_c, 0, 56, 71
2, 243406, Note_on_c, 0, 71, 80
2, 243485, Note_on_c, 0, 69, 80
2, 243582, Note_on_c, 0, 68, 75
2, 243632, Note_on_c, 0, 64, 0
2, 243640, Note_on_c, 0, 64, 101
2, 243778, Note_on_c, 0, 52, 0
2, 243786, Note_on_c, 0, 64, 0
2, 243790, Note_on_c, 0, 52, 93
2, 243796, Note_on_c, 0, 64, 74
2, 243932, Note_on_c, 0, 40, 0
2, 243939, Note_on_c, 0, 59, 0
2, 243939, Note_on_c, 0, 71, 0
2, 243943, Note_on_c, 0, 40, 96
2, 243943, Note_on_c, 0, 71, 99
2, 243944, Note_on_c, 0, 68, 0
2, 243944, Note_on_c, 0, 59, 94
2, 244093, Note_on_c, 0, 59, 0
2, 244102, Note_on_c, 0, 47, 76
2, 244103, Note_on_c, 0, 59, 69
2, 244152, Note_on_c, 0, 60, 89
2, 244156, Note_on_c, 0, 48, 60
2, 244239, Note_on_c, 0, 64, 0
2, 244239, Note_on_c, 0, 69, 0
2, 244243, Control_c, 0, 64, 0
2, 244247, Note_on_c, 0, 100, 0
2, 244248, Note_on_c, 0, 69, 94
2, 244249, Note_on_c, 0, 64, 86
2, 244250, Note_on_c, 0, 76, 0
2, 244250, Note_on_c, 0, 80, 0
2, 244250, Note_on_c, 0, 52, 0
2, 244250, Note_on_c, 0, 40, 0
2, 244250, Note_on_c, 0, 71, 0
2, 244251, Note_on_c, 0, 72, 100
2, 244251, Note_on_c, 0, 88, 0
2, 244252, Note_on_c, 0, 95, 0
2, 244253, Note_on_c, 0, 83, 0
2, 244254, Note_on_c, 0, 92, 0
2, 244256, Note_on_c, 0, 47, 0
2, 244257, Note_on_c, 0, 59, 0
2, 244258, Note_on_c, 0, 45, 99
2, 244259, Note_on_c, 0, 33, 94
2, 244260, Note_on_c, 0, 56, 0
2, 244260, Note_on_c, 0, 60, 0
2, 244262, Note_on_c, 0, 48, 0
2, 244262, Note_on_c, 0, 93, 0
2, 244270, Note_on_c, 0, 81, 0
2, 244331, Control_c, 0, 64, 127
2, 244582, Note_on_c, 0, 71, 91
2, 244586, Note_on_c, 0, 59, 91
2, 244730, Note_on_c, 0, 72, 0
2, 244741, Note_on_c, 0, 72, 98
2, 244742, Note_on_c, 0, 60, 97
2, 245049, Note_on_c, 0, 79, 92
2, 245050, Note_on_c, 0, 67, 94
2, 245209, Note_on_c, 0, 52, 81
2, 245376, Note_on_c, 0, 79, 0
2, 245382, Note_on_c, 0, 79, 99
2, 245383, Note_on_c, 0, 67, 0
2, 245383, Note_on_c, 0, 72, 0
2, 245387, Note_on_c, 0, 67, 99
2, 245388, Note_on_c, 0, 72, 85
2, 245390, Note_on_c, 0, 76, 92
2, 245506, Note_on_c, 0, 45, 0
2, 245511, Note_on_c, 0, 45, 86
2, 245652, Note_on_c, 0, 59, 0
2, 245661, Note_on_c, 0, 59, 83
2, 245821, Note_on_c, 0, 60, 0
2, 245828, Note_on_c, 0, 60, 80
2, 245990, Note_on_c, 0, 67, 0
2, 246001, Note_on_c, 0, 67, 89
2, 246302, Note_on_c, 0, 57, 84
2, 246305, Note_on_c, 0, 59, 0
2, 246309, Note_on_c, 0, 59, 72
2, 246451, Note_on_c, 0, 59, 0
2, 246451, Note_on_c, 0, 71, 0
2, 246461, Note_on_c, 0, 59, 78
2, 246462, Note_on_c, 0, 71, 99
2, 246612, Note_on_c, 0, 60, 0
2, 246618, Note_on_c, 0, 60, 88
2, 246773, Note_on_c, 0, 60, 0
2, 246773, Note_on_c, 0, 69, 0
2, 246773, Note_on_c, 0, 72, 0
2, 246779, Note_on_c, 0, 72, 97
2, 246783, Note_on_c, 0, 60, 95
2, 246785, Note_on_c, 0, 69, 88
2, 246786, Note_on_c, 0, 65, 88
2, 246790, Note_on_c, 0, 41, 94
2, 246792, Note_on_c, 0, 29, 96
2, 246805, Control_c, 0, 64, 0
2, 246819, Note_on_c, 0, 52, 0
2, 246819, Note_on_c, 0, 79, 0
2, 246820, Note_on_c, 0, 76, 0
2, 246820, Note_on_c, 0, 71, 0
2, 246820, Note_on_c, 0, 45, 0
2, 246821, Note_on_c, 0, 59, 0
2, 246822, Note_on_c, 0, 67, 0
2, 246822, Note_on_c, 0, 64, 0
2, 246823, Note_on_c, 0, 33, 0
2, 246850, Note_on_c, 0, 57, 0
2, 246881, Control_c, 0, 64, 127
2, 246965, Note_on_c, 0, 29, 0
2, 247108, Note_on_c, 0, 71, 85
2, 247114, Note_on_c, 0, 59, 84
2, 247249, Note_on_c, 0, 60, 0
2, 247249, Note_on_c, 0, 72, 0
2, 247255, Note_on_c, 0, 72, 101
2, 247257, Note_on_c, 0, 60, 83
2, 247587, Note_on_c, 0, 72, 0
2, 247592, Note_on_c, 0, 79, 89
2, 247596, Note_on_c, 0, 72, 77
2, 247598, Note_on_c, 0, 67, 89
2, 247731, Note_on_c, 0, 48, 87
2, 247902, Note_on_c, 0, 67, 0
2, 247902, Note_on_c, 0, 72, 0
2, 247902, Note_on_c, 0, 79, 0
2, 247907, Note_on_c, 0, 67, 96
2, 247907, Note_on_c, 0, 79, 91
2, 247908, Note_on_c, 0, 72, 90
2, 247908, Note_on_c, 0, 76, 92
2, 248048, Note_on_c, 0, 41, 0
2, 248055, Note_on_c, 0, 41, 89
2, 248209, Note_on_c, 0, 69, 0
2, 248217, Note_on_c, 0, 81, 96
2, 248217, Note_on_c, 0, 59, 0
2, 248219, Note_on_c, 0, 69, 91
2, 248222, Note_on_c, 0, 59, 79
2, 248363, Note_on_c, 0, 79, 0
2, 248372, Note_on_c, 0, 79, 90
2, 248378, Note_on_c, 0, 69, 0
2, 248378, Note_on_c, 0, 72, 0
2, 248378, Note_on_c, 0, 76, 0
2, 248383, Note_on_c, 0, 76, 86
2, 248385, Note_on_c, 0, 72, 89
2, 248386, Note_on_c, 0, 60, 0
2, 248388, Note_on_c, 0, 69, 74
2, 248392, Note_on_c, 0, 60, 70
2, 248532, Note_on_c, 0, 69, 0
2, 248538, Note_on_c, 0, 69, 94
2, 248570, Note_on_c, 0, 72, 0
2, 248580, Note_on_c, 0, 72, 62
2, 248832, Note_on_c, 0, 67, 0
2, 248832, Note_on_c, 0, 69, 0
2, 248842, Note_on_c, 0, 67, 92
2, 248842, Note_on_c, 0, 69, 68
2, 249000, Note_on_c, 0, 41, 0
2, 249000, Note_on_c, 0, 72, 0
2, 249008, Note_on_c, 0, 72, 94
2, 249010, Note_on_c, 0, 41, 64
2, 249153, Note_on_c, 0, 74, 100
2, 249154, Note_on_c, 0, 71, 0
2, 249157, Note_on_c, 0, 43, 80
2, 249161, Note_on_c, 0, 71, 63
2, 249300, Note_on_c, 0, 76, 0
2, 249308, Note_on_c, 0, 67, 0
2, 249308, Note_on_c, 0, 72, 0
2, 249311, Note_on_c, 0, 76, 102
2, 249312, Note_on_c, 0, 72, 95
2, 249317, Note_on_c, 0, 67, 81
2, 249318, Note_on_c, 0, 64, 91
2, 249318, Note_on_c, 0, 36, 90
2, 249341, Note_on_c, 0, 41, 0
2, 249342, Note_on_c, 0, 48, 0
2, 249342, Note_on_c, 0, 69, 0
2, 249342, Note_on_c, 0, 59, 0
2, 249342, Note_on_c, 0, 65, 0
2, 249342, Note_on_c, 0, 43, 0
2, 249343, Note_on_c, 0, 81, 0
2, 249343, Note_on_c, 0, 71, 0
2, 249344, Note_on_c, 0, 74, 0
2, 249348, Control_c, 0, 64, 0
2, 249361, Note_on_c, 0, 60, 0
2, 249431, Control_c, 0, 64, 127
2, 249600, Note_on_c, 0, 64, 0
2, 249613, Note_on_c, 0, 77, 92
2, 249768, Note_on_c, 0, 67, 0
2, 249768, Note_on_c, 0, 72, 0
2, 249768, Note_on_c, 0, 76, 0
2, 249773, Note_on_c, 0, 76, 99
2, 249775, Note_on_c, 0, 67, 85
2, 249776, Note_on_c, 0, 72, 84
2, 250099, Note_on_c, 0, 77, 0
2, 250103, Note_on_c, 0, 77, 95
2, 250255, Note_on_c, 0, 48, 75
2, 250409, Note_on_c, 0, 55, 81
2, 250421, Note_on_c, 0, 72, 0
2, 250421, Note_on_c, 0, 76, 0
2, 250427, Note_on_c, 0, 76, 96
2, 250429, Note_on_c, 0, 67, 0
2, 250433, Note_on_c, 0, 72, 86
2, 250436, Note_on_c, 0, 67, 84
2, 250498, Note_on_c, 0, 79, 0
2, 250568, Note_on_c, 0, 60, 96
2, 250571, Note_on_c, 0, 62, 94
2, 250572, Note_on_c, 0, 74, 84
2, 250874, Note_on_c, 0, 77, 0
2, 250883, Note_on_c, 0, 77, 100
2, 251036, Note_on_c, 0, 60, 0
2, 251043, Note_on_c, 0, 64, 93
2, 251044, Note_on_c, 0, 60, 96
2, 251047, Note_on_c, 0, 48, 0
2, 251061, Control_c, 0, 64, 0
2, 251082, Control_c, 0, 64, 127
2, 251197, Note_on_c, 0, 72, 0
2, 251197, Note_on_c, 0, 76, 0
2, 251206, Note_on_c, 0, 76, 102
2, 251208, Note_on_c, 0, 72, 85
2, 251351, Note_on_c, 0, 55, 0
2, 251357, Note_on_c, 0, 55, 89
2, 251496, Note_on_c, 0, 77, 0
2, 251504, Note_on_c, 0, 72, 0
2, 251506, Note_on_c, 0, 77, 100
2, 251509, Note_on_c, 0, 65, 100
2, 251509, Note_on_c, 0, 72, 78
2, 251520, Note_on_c, 0, 36, 0
2, 251650, Note_on_c, 0, 60, 0
2, 251656, Note_on_c, 0, 60, 78
2, 251827, Note_on_c, 0, 55, 0
2, 251827, Note_on_c, 0, 74, 0
2, 251832, Note_on_c, 0, 55, 95
2, 251832, Note_on_c, 0, 79, 96
2, 251834, Note_on_c, 0, 67, 0
2, 251835, Note_on_c, 0, 43, 90
2, 251837, Note_on_c, 0, 74, 94
2, 251837, Note_on_c, 0, 71, 89
2, 251839, Note_on_c, 0, 67, 91
2, 251842, Control_c, 0, 64, 0
2, 251842, Note_on_c, 0, 64, 0
2, 251844, Note_on_c, 0, 60, 0
2, 251844, Note_on_c, 0, 76, 0
2, 251844, Note_on_c, 0, 72, 0
2, 251845, Note_on_c, 0, 65, 0
2, 251845, Note_on_c, 0, 77, 0
2, 251850, Note_on_c, 0, 62, 0
2, 251950, Control_c, 0, 64, 127
2, 251994, Note_on_c, 0, 50, 75
2, 252142, Note_on_c, 0, 55, 0
2, 252146, Note_on_c, 0, 55, 71
2, 252264, Note_on_c, 0, 55, 0
2, 252273, Note_on_c, 0, 55, 68
2, 252449, Note_on_c, 0, 69, 96
2, 252450, Note_on_c, 0, 65, 95
2, 252587, Note_on_c, 0, 43, 0
2, 252598, Note_on_c, 0, 43, 85
2, 252741, Note_on_c, 0, 55, 0
2, 252751, Note_on_c, 0, 55, 82
2, 252908, Note_on_c, 0, 62, 81
2, 253056, Note_on_c, 0, 67, 0
2, 253056, Note_on_c, 0, 71, 0
2, 253061, Note_on_c, 0, 71, 100
2, 253066, Note_on_c, 0, 67, 88
2, 253201, Note_on_c, 0, 43, 0
2, 253213, Note_on_c, 0, 43, 83
2, 253355, Note_on_c, 0, 43, 0
2, 253355, Note_on_c, 0, 55, 0
2, 253359, Note_on_c, 0, 43, 75
2, 253364, Note_on_c, 0, 55, 91
2, 253509, Note_on_c, 0, 50, 0
2, 253519, Note_on_c, 0, 50, 88
2, 253539, Note_on_c, 0, 79, 0
2, 253639, Control_c, 0, 64, 0
2, 253643, Note_on_c, 0, 74, 0
2, 253643, Note_on_c, 0, 69, 0
2, 253643, Note_on_c, 0, 43, 0
2, 253643, Note_on_c, 0, 55, 0
2, 253643, Note_on_c, 0, 62, 0
2, 253643, Note_on_c, 0, 50, 0
2, 253643, Note_on_c, 0, 65, 0
2, 253643, Note_on_c, 0, 67, 0
2, 253678, Note_on_c, 0, 71, 0
2, 253682, Note_on_c, 0, 74, 101
2, 253683, Note_on_c, 0, 71, 95
2, 253683, Note_on_c, 0, 68, 96
2, 253687, Note_on_c, 0, 52, 99
2, 253687, Note_on_c, 0, 40, 100
2, 253716, Control_c, 0, 64, 127
2, 253977, Note_on_c, 0, 71, 0
2, 253981, Note_on_c, 0, 83, 104
2, 253983, Note_on_c, 0, 71, 101
2, 253998, Note_on_c, 0, 62, 93
2, 254009, Note_on_c, 0, 59, 79
2, 254011, Note_on_c, 0, 56, 76
2, 254159, Note_on_c, 0, 45, 95
2, 254295, Control_c, 0, 64, 0
2, 254299, Note_on_c, 0, 68, 0
2, 254300, Note_on_c, 0, 40, 0
2, 254300, Note_on_c, 0, 56, 0
2, 254300, Note_on_c, 0, 62, 0
2, 254301, Note_on_c, 0, 83, 0
2, 254301, Note_on_c, 0, 71, 0
2, 254301, Note_on_c, 0, 59, 0
2, 254307, Note_on_c, 0, 45, 0
2, 254307, Note_on_c, 0, 52, 0
2, 254311, Note_on_c, 0, 84, 99
2, 254311, Note_on_c, 0, 33, 100
2, 254311, Note_on_c, 0, 81, 99
2, 254311, Note_on_c, 0, 72, 105
2, 254312, Note_on_c, 0, 45, 99
2, 254313, Note_on_c, 0, 76, 98
2, 254315, Note_on_c, 0, 74, 0
2, 254353, Control_c, 0, 64, 127
2, 254629, Note_on_c, 0, 71, 91
2, 254629, Note_on_c, 0, 83, 93
2, 254784, Note_on_c, 0, 72, 0
2, 254784, Note_on_c, 0, 84, 0
2, 254790, Note_on_c, 0, 72, 98
2, 254791, Note_on_c, 0, 84, 101
2, 255114, Note_on_c, 0, 33, 0
2, 255118, Note_on_c, 0, 91, 112
2, 255119, Note_on_c, 0, 79, 85
2, 255249, Note_on_c, 0, 59, 102
2, 255413, Note_on_c, 0, 91, 0
2, 255421, Note_on_c, 0, 79, 0
2, 255421, Note_on_c, 0, 84, 0
2, 255424, Note_on_c, 0, 91, 111
2, 255425, Note_on_c, 0, 79, 91
2, 255426, Note_on_c, 0, 84, 93
2, 255426, Note_on_c, 0, 88, 94
2, 255571, Note_on_c, 0, 60, 102
2, 255571, Note_on_c, 0, 57, 97
2, 255843, Note_on_c, 0, 81, 0
2, 255874, Note_on_c, 0, 59, 0
2, 255878, Note_on_c, 0, 59, 88
2, 255889, Note_on_c, 0, 60, 0
2, 255900, Note_on_c, 0, 60, 61
2, 256028, Note_on_c, 0, 60, 0
2, 256037, Note_on_c, 0, 60, 87
2, 256351, Note_on_c, 0, 67, 100
2, 256504, Note_on_c, 0, 71, 0
2, 256504, Note_on_c, 0, 83, 0
2, 256512, Note_on_c, 0, 83, 99
2, 256514, Note_on_c, 0, 71, 93
2, 256650, Note_on_c, 0, 67, 0
2, 256654, Note_on_c, 0, 67, 85
2, 256819, Note_on_c, 0, 72, 0
2, 256819, Note_on_c, 0, 84, 0
2, 256823, Note_on_c, 0, 91, 0
2, 256823, Note_on_c, 0, 59, 0
2, 256823, Note_on_c, 0, 84, 103
2, 256823, Note_on_c, 0, 88, 0
2, 256824, Note_on_c, 0, 60, 0
2, 256824, Note_on_c, 0, 83, 0
2, 256824, Note_on_c, 0, 76, 0
2, 256824, Note_on_c, 0, 72, 98
2, 256824, Note_on_c, 0, 79, 0
2, 256825, Note_on_c, 0, 67, 0
2, 256826, Note_on_c, 0, 45, 0
2, 256828, Control_c, 0, 64, 0
2, 256829, Note_on_c, 0, 77, 90
2, 256829, Note_on_c, 0, 41, 100
2, 256830, Note_on_c, 0, 81, 91
2, 256830, Note_on_c, 0, 29, 98
2, 256842, Note_on_c, 0, 57, 0
2, 256842, Note_on_c, 0, 71, 0
2, 256896, Control_c, 0, 64, 127
2, 257155, Note_on_c, 0, 71, 92
2, 257156, Note_on_c, 0, 83, 97
2, 257303, Note_on_c, 0, 72, 0
2, 257303, Note_on_c, 0, 84, 0
2, 257311, Note_on_c, 0, 84, 103
2, 257311, Note_on_c, 0, 72, 100
2, 257617, Note_on_c, 0, 29, 0
2, 257643, Note_on_c, 0, 91, 109
2, 257645, Note_on_c, 0, 79, 86
2, 257783, Note_on_c, 0, 59, 103
2, 257940, Note_on_c, 0, 91, 0
2, 257948, Note_on_c, 0, 79, 0
2, 257948, Note_on_c, 0, 84, 0
2, 257951, Note_on_c, 0, 91, 110
2, 257952, Note_on_c, 0, 79, 96
2, 257952, Note_on_c, 0, 84, 96
2, 257959, Note_on_c, 0, 88, 92
2, 258097, Note_on_c, 0, 60, 104
2, 258098, Note_on_c, 0, 53, 93
2, 258103, Note_on_c, 0, 57, 78
2, 258232, Note_on_c, 0, 81, 0
2, 258242, Note_on_c, 0, 93, 102
2, 258243, Note_on_c, 0, 81, 100
2, 258393, Note_on_c, 0, 59, 0
2, 258401, Note_on_c, 0, 60, 0
2, 258401, Note_on_c, 0, 79, 0
2, 258401, Note_on_c, 0, 91, 0
2, 258403, Note_on_c, 0, 59, 76
2, 258405, Note_on_c, 0, 91, 108
2, 258408, Note_on_c, 0, 60, 76
2, 258408, Note_on_c, 0, 79, 91
2, 258408, Note_on_c, 0, 84, 0
2, 258408, Note_on_c, 0, 88, 0
2, 258415, Note_on_c, 0, 84, 85
2, 258419, Note_on_c, 0, 88, 88
2, 258554, Note_on_c, 0, 60, 0
2, 258562, Note_on_c, 0, 59, 0
2, 258565, Note_on_c, 0, 60, 89
2, 258573, Note_on_c, 0, 59, 63
2, 258871, Note_on_c, 0, 69, 99
2, 259031, Note_on_c, 0, 69, 0
2, 259038, Note_on_c, 0, 72, 0
2, 259038, Note_on_c, 0, 84, 0
2, 259041, Note_on_c, 0, 69, 82
2, 259042, Note_on_c, 0, 67, 89
2, 259043, Note_on_c, 0, 72, 98
2, 259043, Note_on_c, 0, 84, 100
2, 259193, Note_on_c, 0, 86, 100
2, 259194, Note_on_c, 0, 74, 97
2, 259200, Note_on_c, 0, 41, 0
2, 259200, Note_on_c, 0, 71, 0
2, 259200, Note_on_c, 0, 77, 0
2, 259330, Note_on_c, 0, 57, 0
2, 259343, Note_on_c, 0, 93, 0
2, 259344, Note_on_c, 0, 91, 0
2, 259344, Note_on_c, 0, 81, 0
2, 259344, Note_on_c, 0, 69, 0
2, 259345, Note_on_c, 0, 83, 0
2, 259345, Note_on_c, 0, 84, 0
2, 259345, Note_on_c, 0, 74, 0
2, 259345, Note_on_c, 0, 79, 0
2, 259346, Note_on_c, 0, 86, 0
2, 259346, Note_on_c, 0, 72, 0
2, 259346, Note_on_c, 0, 67, 0
2, 259346, Note_on_c, 0, 53, 0
2, 259348, Control_c, 0, 64, 0
2, 259353, Note_on_c, 0, 79, 92
2, 259353, Note_on_c, 0, 59, 0
2, 259353, Note_on_c, 0, 60, 0
2, 259353, Note_on_c, 0, 88, 0
2, 259355, Note_on_c, 0, 76, 104
2, 259357, Note_on_c, 0, 43, 94
2, 259357, Note_on_c, 0, 52, 89
2, 259358, Note_on_c, 0, 48, 81
2, 259359, Note_on_c, 0, 88, 100
2, 259363, Note_on_c, 0, 36, 91
2, 259415, Control_c, 0, 64, 127
2, 259674, Note_on_c, 0, 89, 94
2, 259676, Note_on_c, 0, 77, 94
2, 259829, Note_on_c, 0, 76, 0
2, 259829, Note_on_c, 0, 79, 0
2, 259829, Note_on_c, 0, 88, 0
2, 259837, Note_on_c, 0, 88, 95
2, 259838, Note_on_c, 0, 76, 98
2, 259840, Note_on_c, 0, 79, 87
2, 260136, Note_on_c, 0, 77, 0
2, 260136, Note_on_c, 0, 89, 0
2, 260148, Note_on_c, 0, 89, 103
2, 260148, Note_on_c, 0, 77, 101
2, 260292, Note_on_c, 0, 60, 85
2, 260432, Note_on_c, 0, 74, 80
2, 260438, Note_on_c, 0, 62, 85
2, 260467, Note_on_c, 0, 76, 0
2, 260467, Note_on_c, 0, 79, 0
2, 260467, Note_on_c, 0, 88, 0
2, 260471, Note_on_c, 0, 88, 95
2, 260472, Note_on_c, 0, 76, 98
2, 260478, Note_on_c, 0, 79, 85
2, 260605, Note_on_c, 0, 60, 0
2, 260609, Note_on_c, 0, 55, 88
2, 260610, Note_on_c, 0, 60, 89
2, 260610, Note_on_c, 0, 64, 97
2, 260906, Note_on_c, 0, 65, 91
2, 260920, Note_on_c, 0, 74, 0
2, 260926, Note_on_c, 0, 74, 97
2, 260930, Note_on_c, 0, 86, 92
2, 260950, Note_on_c, 0, 84, 61
2, 261073, Note_on_c, 0, 64, 0
2, 261082, Note_on_c, 0, 64, 98
2, 261250, Note_on_c, 0, 84, 0
2, 261260, Note_on_c, 0, 84, 101
2, 261261, Note_on_c, 0, 72, 96
2, 261404, Note_on_c, 0, 65, 0
2, 261408, Note_on_c, 0, 65, 102
2, 261565, Note_on_c, 0, 74, 0
2, 261565, Note_on_c, 0, 86, 0
2, 261572, Note_on_c, 0, 86, 100
2, 261575, Note_on_c, 0, 74, 100
2, 261703, Note_on_c, 0, 64, 0
2, 261708, Note_on_c, 0, 64, 94
2, 261872, Note_on_c, 0, 43, 0
2, 261872, Note_on_c, 0, 55, 0
2, 261872, Note_on_c, 0, 74, 0
2, 261872, Note_on_c, 0, 86, 0
2, 261880, Note_on_c, 0, 86, 101
2, 261882, Note_on_c, 0, 74, 103
2, 261882, Note_on_c, 0, 43, 91
2, 261882, Note_on_c, 0, 55, 97
2, 261883, Note_on_c, 0, 83, 93
2, 261907, Note_on_c, 0, 64, 0
2, 261907, Note_on_c, 0, 60, 0
2, 261907, Note_on_c, 0, 62, 0
2, 261907, Note_on_c, 0, 65, 0
2, 261907, Note_on_c, 0, 84, 0
2, 261907, Note_on_c, 0, 88, 0
2, 261907, Note_on_c, 0, 48, 0
2, 261907, Note_on_c, 0, 76, 0
2, 261908, Note_on_c, 0, 79, 0
2, 261908, Note_on_c, 0, 77, 0
2, 261908, Note_on_c, 0, 72, 0
2, 261908, Note_on_c, 0, 52, 0
2, 261908, Note_on_c, 0, 89, 0
2, 261915, Control_c, 0, 64, 0
2, 261926, Note_on_c, 0, 36, 0
2, 262026, Control_c, 0, 64, 127
2, 262197, Note_on_c, 0, 50, 70
2, 262341, Note_on_c, 0, 55, 0
2, 262345, Note_on_c, 0, 55, 85
2, 262497, Note_on_c, 0, 62, 91
2, 262655, Note_on_c, 0, 60, 84
2, 262809, Note_on_c, 0, 50, 0
2, 262817, Note_on_c, 0, 43, 0
2, 262820, Note_on_c, 0, 50, 55
2, 262822, Note_on_c, 0, 43, 50
2, 262963, Note_on_c, 0, 43, 0
2, 262967, Note_on_c, 0, 59, 87
2, 262969, Note_on_c, 0, 43, 57
2, 263267, Control_c, 0, 64, 0
2, 263268, Note_on_c, 0, 83, 0
2, 263269, Note_on_c, 0, 62, 0
2, 263269, Note_on_c, 0, 55, 0
2, 263270, Note_on_c, 0, 60, 0
2, 263272, Note_on_c, 0, 43, 0
2, 263272, Note_on_c, 0, 59, 0
2, 263273, Note_on_c, 0, 40, 72
2, 263273, Note_on_c, 0, 52, 69
2, 263293, Note_on_c, 0, 50, 0
2, 263293, Note_on_c, 0, 86, 0
2, 263324, Control_c, 0, 64, 127
2, 263439, Note_on_c, 0, 74, 0
2, 263439, Note_on_c, 0, 64, 68
2, 263593, Note_on_c, 0, 69, 71
2, 263745, Note_on_c, 0, 71, 78
2, 263754, Note_on_c, 0, 62, 73
2, 263900, Note_on_c, 0, 52, 0
2, 263908, Note_on_c, 0, 52, 62
2, 264053, Note_on_c, 0, 71, 0
2, 264058, Note_on_c, 0, 71, 93
2, 264184, Note_on_c, 0, 52, 0
2, 264190, Note_on_c, 0, 52, 63
2, 264314, Note_on_c, 0, 64, 0
2, 264321, Note_on_c, 0, 64, 55
2, 264345, Note_on_c, 0, 69, 0
2, 264351, Note_on_c, 0, 69, 73
2, 264375, Note_on_c, 0, 72, 90
2, 264376, Note_on_c, 0, 52, 0
2, 264378, Note_on_c, 0, 45, 71
2, 264383, Note_on_c, 0, 60, 72
2, 264384, Note_on_c, 0, 57, 67
2, 264384, Note_on_c, 0, 52, 59
2, 264404, Control_c, 0, 64, 0
2, 264408, Note_on_c, 0, 62, 0
2, 264409, Note_on_c, 0, 71, 0
2, 264410, Note_on_c, 0, 40, 0
2, 264491, Control_c, 0, 64, 127
2, 264683, Note_on_c, 0, 71, 83
2, 264837, Note_on_c, 0, 72, 0
2, 264841, Note_on_c, 0, 72, 86
2, 265159, Note_on_c, 0, 69, 0
2, 265161, Note_on_c, 0, 79, 91
2, 265305, Note_on_c, 0, 60, 0
2, 265319, Note_on_c, 0, 59, 82
2, 265474, Note_on_c, 0, 79, 0
2, 265480, Note_on_c, 0, 79, 89
2, 265597, Note_on_c, 0, 57, 0
2, 265608, Note_on_c, 0, 57, 86
2, 265622, Note_on_c, 0, 60, 91
2, 265927, Note_on_c, 0, 59, 0
2, 265931, Note_on_c, 0, 59, 72
2, 266096, Note_on_c, 0, 60, 0
2, 266102, Note_on_c, 0, 60, 85
2, 266421, Note_on_c, 0, 67, 82
2, 266572, Note_on_c, 0, 71, 0
2, 266579, Note_on_c, 0, 71, 87
2, 266726, Note_on_c, 0, 67, 0
2, 266735, Note_on_c, 0, 67, 69
2, 266880, Note_on_c, 0, 45, 0
2, 266880, Note_on_c, 0, 64, 0
2, 266880, Note_on_c, 0, 72, 0
2, 266922, Note_on_c, 0, 72, 93
2, 266924, Note_on_c, 0, 69, 81
2, 266926, Note_on_c, 0, 57, 0
2, 266929, Note_on_c, 0, 65, 82
2, 266930, Note_on_c, 0, 41, 68
2, 266934, Note_on_c, 0, 57, 76
2, 266936, Note_on_c, 0, 48, 73
2, 266985, Control_c, 0, 64, 0
2, 266989, Note_on_c, 0, 71, 0
2, 266989, Note_on_c, 0, 79, 0
2, 266989, Note_on_c, 0, 60, 0
2, 266989, Note_on_c, 0, 67, 0
2, 266990, Note_on_c, 0, 52, 0
2, 266990, Note_on_c, 0, 59, 0
2, 267102, Control_c, 0, 64, 127
2, 267244, Note_on_c, 0, 71, 80
2, 267386, Note_on_c, 0, 72, 0
2, 267397, Note_on_c, 0, 72, 86
2, 267721, Note_on_c, 0, 79, 85
2, 267855, Note_on_c, 0, 57, 0
2, 267867, Note_on_c, 0, 59, 84
2, 268032, Note_on_c, 0, 79, 0
2, 268036, Note_on_c, 0, 79, 93
2, 268185, Note_on_c, 0, 57, 81
2, 268189, Note_on_c, 0, 60, 85
2, 268190, Note_on_c, 0, 53, 69
2, 268344, Note_on_c, 0, 81, 93
2, 268485, Note_on_c, 0, 59, 0
2, 268491, Note_on_c, 0, 59, 85
2, 268492, Note_on_c, 0, 71, 0
2, 268492, Note_on_c, 0, 79, 0
2, 268497, Note_on_c, 0, 79, 87
2, 268503, Note_on_c, 0, 71, 74
2, 268654, Note_on_c, 0, 60, 0
2, 268661, Note_on_c, 0, 60, 87
2, 268938, Note_on_c, 0, 69, 0
2, 268948, Note_on_c, 0, 69, 79
2, 269114, Note_on_c, 0, 72, 0
2, 269121, Note_on_c, 0, 67, 82
2, 269125, Note_on_c, 0, 72, 86
2, 269274, Note_on_c, 0, 74, 87
2, 269432, Note_on_c, 0, 76, 93
2, 269437, Note_on_c, 0, 67, 0
2, 269437, Note_on_c, 0, 72, 0
2, 269444, Note_on_c, 0, 43, 71
2, 269445, Note_on_c, 0, 67, 76
2, 269446, Note_on_c, 0, 72, 77
2, 269447, Control_c, 0, 64, 0
2, 269447, Note_on_c, 0, 79, 0
2, 269447, Note_on_c, 0, 48, 0
2, 269447, Note_on_c, 0, 41, 0
2, 269447, Note_on_c, 0, 36, 73
2, 269447, Note_on_c, 0, 69, 0
2, 269448, Note_on_c, 0, 60, 0
2, 269448, Note_on_c, 0, 57, 0
2, 269448, Note_on_c, 0, 71, 0
2, 269448, Note_on_c, 0, 59, 0
2, 269448, Note_on_c, 0, 65, 0
2, 269449, Note_on_c, 0, 74, 0
2, 269468, Note_on_c, 0, 53, 0
2, 269468, Note_on_c, 0, 81, 0
2, 269591, Control_c, 0, 64, 127
2, 269746, Note_on_c, 0, 77, 78
2, 269913, Note_on_c, 0, 76, 0
2, 269922, Note_on_c, 0, 76, 92
2, 270228, Note_on_c, 0, 77, 0
2, 270239, Note_on_c, 0, 77, 87
2, 270387, Note_on_c, 0, 60, 75
2, 270420, Note_on_c, 0, 77, 0
2, 270424, Note_on_c, 0, 77, 43
2, 270428, Note_on_c, 0, 76, 0
2, 270438, Note_on_c, 0, 76, 35
2, 270527, Note_on_c, 0, 74, 74
2, 270529, Note_on_c, 0, 62, 81
2, 270543, Note_on_c, 0, 76, 0
2, 270552, Note_on_c, 0, 76, 89
2, 270696, Note_on_c, 0, 60, 0
2, 270708, Note_on_c, 0, 60, 85
2, 270709, Note_on_c, 0, 64, 82
2, 270712, Note_on_c, 0, 55, 73
2, 271011, Note_on_c, 0, 74, 0
2, 271020, Note_on_c, 0, 65, 81
2, 271020, Note_on_c, 0, 74, 81
2, 271173, Note_on_c, 0, 64, 0
2, 271181, Note_on_c, 0, 64, 83
2, 271342, Note_on_c, 0, 72, 0
2, 271346, Note_on_c, 0, 72, 80
2, 271495, Note_on_c, 0, 65, 0
2, 271506, Note_on_c, 0, 65, 90
2, 271664, Note_on_c, 0, 74, 0
2, 271668, Note_on_c, 0, 74, 86
2, 271802, Note_on_c, 0, 64, 0
2, 271814, Note_on_c, 0, 64, 87
2, 271987, Note_on_c, 0, 74, 0
2, 271991, Note_on_c, 0, 74, 88
2, 271994, Note_on_c, 0, 43, 0
2, 271998, Note_on_c, 0, 71, 83
2, 272002, Note_on_c, 0, 62, 0
2, 272002, Note_on_c, 0, 67, 0
2, 272003, Note_on_c, 0, 43, 83
2, 272006, Note_on_c, 0, 62, 82
2, 272007, Note_on_c, 0, 67, 69
2, 272031, Control_c, 0, 64, 0
2, 272040, Note_on_c, 0, 60, 0
2, 272040, Note_on_c, 0, 76, 0
2, 272041, Note_on_c, 0, 65, 0
2, 272041, Note_on_c, 0, 77, 0
2, 272042, Note_on_c, 0, 55, 0
2, 272043, Note_on_c, 0, 72, 0
2, 272056, Note_on_c, 0, 36, 0
2, 272064, Note_on_c, 0, 64, 0
2, 272240, Control_c, 0, 64, 127
2, 272349, Note_on_c, 0, 50, 45
2, 272646, Note_on_c, 0, 57, 57
2, 272954, Note_on_c, 0, 50, 0
2, 272966, Note_on_c, 0, 50, 45
2, 273276, Note_on_c, 0, 59, 53
2, 274349, Note_on_c, 0, 88, 48
2, 274503, Note_on_c, 0, 86, 64
2, 274560, Note_on_c, 0, 57, 0
2, 274560, Note_on_c, 0, 67, 0
2, 274560, Note_on_c, 0, 71, 0
2, 274560, Note_on_c, 0, 74, 0
2, 274650, Note_on_c, 0, 83, 66
2, 274831, Note_on_c, 0, 84, 63
2, 274833, Note_on_c, 0, 64, 48
2, 274836, Note_on_c, 0, 57, 46
2, 274837, Note_on_c, 0, 72, 50
2, 274843, Note_on_c, 0, 86, 0
2, 274845, Note_on_c, 0, 62, 0
2, 274846, Note_on_c, 0, 88, 0
2, 274846, Note_on_c, 0, 76, 54
2, 274847, Note_on_c, 0, 59, 0
2, 274849, Note_on_c, 0, 43, 0
2, 274849, Note_on_c, 0, 83, 0
2, 274851, Note_on_c, 0, 50, 0
2, 274864, Control_c, 0, 64, 0
2, 274990, Control_c, 0, 64, 127
2, 275335, Note_on_c, 0, 84, 0
2, 275341, Note_on_c, 0, 84, 61
2, 275665, Note_on_c, 0, 84, 0
2, 275676, Note_on_c, 0, 84, 51
2, 276126, Note_on_c, 0, 76, 0
2, 276132, Note_on_c, 0, 76, 49
2, 276155, Note_on_c, 0, 83, 62
2, 276188, Note_on_c, 0, 57, 0
2, 276190, Note_on_c, 0, 72, 0
2, 276191, Note_on_c, 0, 84, 0
2, 276201, Control_c, 0, 64, 0
2, 276203, Note_on_c, 0, 64, 0
2, 276207, Note_on_c, 0, 55, 45
2, 276209, Note_on_c, 0, 64, 38
2, 276217, Note_on_c, 0, 71, 40
2, 276272, Control_c, 0, 64, 127
2, 276474, Note_on_c, 0, 84, 73
2, 276797, Note_on_c, 0, 88, 69
2, 276827, Note_on_c, 0, 79, 42
2, 277132, Note_on_c, 0, 83, 0
2, 277135, Note_on_c, 0, 91, 71
2, 277140, Note_on_c, 0, 79, 0
2, 277141, Note_on_c, 0, 83, 62
2, 277146, Note_on_c, 0, 79, 57
2, 277458, Note_on_c, 0, 72, 44
2, 277461, Note_on_c, 0, 53, 38
2, 277463, Note_on_c, 0, 60, 39
2, 277466, Control_c, 0, 64, 0
2, 277469, Note_on_c, 0, 84, 0
2, 277471, Note_on_c, 0, 76, 0
2, 277472, Note_on_c, 0, 71, 0
2, 277472, Note_on_c, 0, 64, 0
2, 277473, Note_on_c, 0, 55, 0
2, 277473, Note_on_c, 0, 67, 35
2, 277474, Note_on_c, 0, 88, 0
2, 277562, Control_c, 0, 64, 127
2, 277974, Note_on_c, 0, 69, 41
2, 278461, Note_on_c, 0, 72, 0
2, 278470, Note_on_c, 0, 72, 48
2, 278470, Note_on_c, 0, 84, 49
2, 278599, Note_on_c, 0, 84, 0
2, 278604, Note_on_c, 0, 84, 63
2, 278792, Note_on_c, 0, 76, 53
2, 278799, Note_on_c, 0, 69, 0
2, 278804, Note_on_c, 0, 69, 38
2, 278809, Note_on_c, 0, 65, 35
2, 279297, Note_on_c, 0, 81, 47
2, 279651, Note_on_c, 0, 91, 0
2, 279782, Note_on_c, 0, 84, 0
2, 279791, Note_on_c, 0, 84, 54
2, 279813, Note_on_c, 0, 72, 0
2, 279820, Note_on_c, 0, 72, 23
2, 280117, Note_on_c, 0, 55, 45
2, 280123, Note_on_c, 0, 88, 69
2, 280148, Control_c, 0, 64, 0
2, 280181, Control_c, 0, 64, 127
2, 280291, Note_on_c, 0, 62, 46
2, 280435, Note_on_c, 0, 65, 0
2, 280440, Note_on_c, 0, 65, 52
2, 280596, Note_on_c, 0, 69, 0
2, 280602, Note_on_c, 0, 69, 46
2, 280750, Note_on_c, 0, 72, 0
2, 280760, Note_on_c, 0, 72, 43
2, 280912, Note_on_c, 0, 77, 51
2, 281064, Note_on_c, 0, 81, 0
2, 281070, Note_on_c, 0, 81, 60
2, 281203, Note_on_c, 0, 84, 0
2, 281213, Note_on_c, 0, 84, 62
2, 281356, Note_on_c, 0, 88, 0
2, 281366, Note_on_c, 0, 88, 73
2, 281518, Note_on_c, 0, 84, 0
2, 281522, Note_on_c, 0, 84, 57
2, 281679, Note_on_c, 0, 81, 0
2, 281687, Note_on_c, 0, 81, 61
2, 281748, Note_on_c, 0, 83, 0
2, 281756, Note_on_c, 0, 79, 0
2, 281832, Note_on_c, 0, 77, 0
2, 281839, Note_on_c, 0, 77, 57
2, 281978, Note_on_c, 0, 76, 0
2, 281990, Note_on_c, 0, 76, 61
2, 282071, Note_on_c, 0, 53, 0
2, 282071, Note_on_c, 0, 60, 0
2, 282078, Note_on_c, 0, 67, 0
2, 282163, Note_on_c, 0, 72, 0
2, 282168, Note_on_c, 0, 72, 57
2, 282240, Note_on_c, 0, 55, 0
2, 282240, Note_on_c, 0, 62, 0
2, 282347, Note_on_c, 0, 69, 0
2, 282531, Note_on_c, 0, 65, 0
2, 282538, Note_on_c, 0, 65, 36
2, 282750, Note_on_c, 0, 74, 49
2, 282783, Note_on_c, 0, 55, 40
2, 282805, Note_on_c, 0, 62, 30
2, 282807, Note_on_c, 0, 83, 46
2, 282846, Note_on_c, 0, 86, 64
2, 282870, Control_c, 0, 64, 0
2, 282879, Note_on_c, 0, 77, 0
2, 282879, Note_on_c, 0, 81, 0
2, 282879, Note_on_c, 0, 84, 0
2, 282880, Note_on_c, 0, 72, 0
2, 282900, Note_on_c, 0, 76, 0
2, 282900, Note_on_c, 0, 88, 0
2, 282946, Control_c, 0, 64, 127
2, 283591, Note_on_c, 0, 65, 0
2, 284802, Control_c, 0, 64, 0
2, 284812, Note_on_c, 0, 62, 0
2, 284820, Note_on_c, 0, 55, 0
2, 284835, Note_on_c, 0, 74, 0
2, 284835, Note_on_c, 0, 86, 0
2, 285173, Note_on_c, 0, 83, 0
2, 285492, Note_on_c, 0, 84, 64
2, 285585, Note_on_c, 0, 86, 70
2, 285626, Note_on_c, 0, 84, 0
2, 285767, Note_on_c, 0, 84, 67
2, 285791, Note_on_c, 0, 86, 0
2, 285999, Note_on_c, 0, 83, 45
2, 286032, Note_on_c, 0, 84, 0
2, 287063, Control_c, 0, 64, 127
2, 287454, Note_on_c, 0, 83, 0
2, 287463, Note_on_c, 0, 83, 38
2, 287502, Note_on_c, 0, 84, 62
2, 287562, Note_on_c, 0, 83, 0
2, 287570, Note_on_c, 0, 83, 54
2, 287577, Note_on_c, 0, 84, 0
2, 287585, Control_c, 0, 64, 0
2, 287659, Note_on_c, 0, 81, 58
2, 287685, Note_on_c, 0, 83, 0
2, 289528, Control_c, 0, 64, 127
2, 289691, Note_on_c, 0, 52, 23
2, 289920, Note_on_c, 0, 81, 0
2, 290514, Note_on_c, 0, 45, 43
2, 290867, Note_on_c, 0, 64, 39
2, 291006, Note_on_c, 0, 62, 45
2, 291337, Note_on_c, 0, 67, 44
2, 291652, Note_on_c, 0, 57, 48
2, 291822, Note_on_c, 0, 71, 53
2, 291855, Note_on_c, 0, 57, 0
2, 291861, Note_on_c, 0, 57, 28
2, 291985, Note_on_c, 0, 64, 0
2, 291995, Note_on_c, 0, 64, 50
2, 292139, Note_on_c, 0, 62, 0
2, 292150, Note_on_c, 0, 62, 51
2, 292293, Note_on_c, 0, 67, 0
2, 292303, Note_on_c, 0, 67, 49
2, 292458, Note_on_c, 0, 72, 54
2, 292623, Note_on_c, 0, 64, 0
2, 292629, Note_on_c, 0, 64, 54
2, 292776, Note_on_c, 0, 62, 0
2, 292788, Note_on_c, 0, 62, 56
2, 292943, Note_on_c, 0, 48, 39
2, 293091, Note_on_c, 0, 57, 0
2, 293096, Note_on_c, 0, 57, 50
2, 293104, Note_on_c, 0, 41, 37
2, 293119, Note_on_c, 0, 55, 40
2, 293122, Control_c, 0, 64, 0
2, 293126, Note_on_c, 0, 71, 0
2, 293126, Note_on_c, 0, 64, 0
2, 293126, Note_on_c, 0, 62, 0
2, 293126, Note_on_c, 0, 67, 0
2, 293127, Note_on_c, 0, 45, 0
2, 293127, Note_on_c, 0, 72, 0
2, 293128, Note_on_c, 0, 48, 0
2, 293145, Note_on_c, 0, 52, 0
2, 293237, Control_c, 0, 64, 127
2, 293425, Note_on_c, 0, 64, 53
2, 293445, Note_on_c, 0, 57, 0
2, 293453, Note_on_c, 0, 57, 28
2, 293580, Note_on_c, 0, 62, 57
2, 293907, Note_on_c, 0, 69, 47
2, 294197, Note_on_c, 0, 57, 0
2, 294207, Note_on_c, 0, 57, 55
2, 294367, Note_on_c, 0, 74, 56
2, 294535, Note_on_c, 0, 64, 0
2, 294545, Note_on_c, 0, 64, 51
2, 294681, Note_on_c, 0, 62, 0
2, 294690, Note_on_c, 0, 62, 54
2, 294835, Note_on_c, 0, 69, 0
2, 294846, Note_on_c, 0, 69, 55
2, 294998, Note_on_c, 0, 76, 53
2, 295173, Note_on_c, 0, 64, 0
2, 295184, Note_on_c, 0, 64, 41
2, 295334, Note_on_c, 0, 62, 0
2, 295336, Note_on_c, 0, 74, 0
2, 295339, Note_on_c, 0, 62, 40
2, 295703, Note_on_c, 0, 57, 0
2, 295706, Note_on_c, 0, 45, 43
2, 295707, Note_on_c, 0, 33, 42
2, 295709, Note_on_c, 0, 41, 0
2, 295712, Note_on_c, 0, 69, 0
2, 295713, Note_on_c, 0, 62, 0
2, 295713, Note_on_c, 0, 55, 0
2, 295713, Note_on_c, 0, 64, 0
2, 295714, Note_on_c, 0, 57, 42
2, 295715, Note_on_c, 0, 76, 0
2, 295717, Control_c, 0, 64, 0
2, 295841, Control_c, 0, 64, 127
2, 296029, Note_on_c, 0, 64, 53
2, 296201, Note_on_c, 0, 62, 52
2, 296526, Note_on_c, 0, 67, 48
2, 296862, Note_on_c, 0, 57, 0
2, 296867, Note_on_c, 0, 57, 44
2, 296885, Note_on_c, 0, 33, 0
2, 296892, Note_on_c, 0, 33, 23
2, 297023, Note_on_c, 0, 83, 60
2, 297039, Note_on_c, 0, 33, 0
2, 297043, Note_on_c, 0, 79, 54
2, 297185, Note_on_c, 0, 64, 0
2, 297192, Note_on_c, 0, 64, 47
2, 297354, Note_on_c, 0, 62, 0
2, 297358, Note_on_c, 0, 62, 50
2, 297523, Note_on_c, 0, 67, 0
2, 297534, Note_on_c, 0, 67, 47
2, 297693, Note_on_c, 0, 84, 52
2, 297703, Note_on_c, 0, 81, 41
2, 297712, Note_on_c, 0, 72, 24
2, 297884, Note_on_c, 0, 64, 0
2, 297890, Note_on_c, 0, 64, 44
2, 298045, Note_on_c, 0, 62, 0
2, 298049, Note_on_c, 0, 74, 37
2, 298050, Note_on_c, 0, 62, 41
2, 298391, Note_on_c, 0, 57, 0
2, 298394, Note_on_c, 0, 29, 47
2, 298399, Note_on_c, 0, 41, 41
2, 298401, Note_on_c, 0, 57, 45
2, 298444, Note_on_c, 0, 74, 0
2, 298446, Control_c, 0, 64, 0
2, 298451, Note_on_c, 0, 83, 0
2, 298451, Note_on_c, 0, 62, 0
2, 298452, Note_on_c, 0, 72, 0
2, 298452, Note_on_c, 0, 64, 0
2, 298453, Note_on_c, 0, 79, 0
2, 298453, Note_on_c, 0, 45, 0
2, 298453, Note_on_c, 0, 81, 0
2, 298453, Note_on_c, 0, 84, 0
2, 298467, Note_on_c, 0, 67, 0
2, 298583, Control_c, 0, 64, 127
2, 298747, Note_on_c, 0, 64, 43
2, 298782, Note_on_c, 0, 29, 0
2, 298906, Note_on_c, 0, 74, 46
2, 298908, Note_on_c, 0, 62, 51
2, 299292, Note_on_c, 0, 69, 36
2, 299325, Note_on_c, 0, 60, 18
2, 299612, Note_on_c, 0, 57, 0
2, 299617, Note_on_c, 0, 57, 46
2, 299810, Note_on_c, 0, 86, 58
2, 299816, Note_on_c, 0, 83, 50
2, 299842, Note_on_c, 0, 62, 0
2, 299842, Note_on_c, 0, 69, 0
2, 299847, Note_on_c, 0, 69, 28
2, 299847, Note_on_c, 0, 62, 27
2, 299973, Note_on_c, 0, 64, 0
2, 299979, Note_on_c, 0, 64, 53
2, 300172, Note_on_c, 0, 62, 0
2, 300172, Note_on_c, 0, 74, 0
2, 300177, Note_on_c, 0, 62, 42
2, 300178, Note_on_c, 0, 74, 33
2, 300380, Note_on_c, 0, 69, 0
2, 300390, Note_on_c, 0, 69, 37
2, 300580, Note_on_c, 0, 88, 41
2, 300595, Note_on_c, 0, 84, 33
2, 300601, Note_on_c, 0, 72, 29
2, 300817, Note_on_c, 0, 64, 0
2, 300821, Note_on_c, 0, 76, 35
2, 300821, Note_on_c, 0, 64, 30
2, 301086, Note_on_c, 0, 62, 0
2, 301094, Note_on_c, 0, 62, 35
2, 301440, Note_on_c, 0, 41, 0
2, 301440, Note_on_c, 0, 60, 0
2, 301440, Note_on_c, 0, 74, 0
2, 302088, Note_on_c, 0, 45, 41
2, 302095, Note_on_c, 0, 33, 38
2, 302221, Control_c, 0, 64, 0
2, 302222, Note_on_c, 0, 86, 0
2, 302223, Note_on_c, 0, 64, 0
2, 302223, Note_on_c, 0, 62, 0
2, 302225, Note_on_c, 0, 83, 0
2, 302226, Note_on_c, 0, 72, 0
2, 302228, Note_on_c, 0, 76, 0
2, 302238, Note_on_c, 0, 57, 0
2, 302238, Note_on_c, 0, 69, 0
2, 302461, Control_c, 0, 64, 127
2, 303907, Note_on_c, 0, 69, 39
2, 303947, Note_on_c, 0, 76, 50
2, 303959, Note_on_c, 0, 81, 46
2, 304006, Note_on_c, 0, 83, 65
2, 304007, Note_on_c, 0, 79, 47
2, 304020, Note_on_c, 0, 33, 0
2, 304086, Note_on_c, 0, 91, 60
2, 304166, Note_on_c, 0, 88, 0
2, 304174, Note_on_c, 0, 88, 69
2, 305203, Note_on_c, 0, 84, 0
2, 305280, Note_on_c, 0, 45, 0
2, 305794, Note_on_c, 0, 81, 0
2, 305799, Note_on_c, 0, 81, 51
2, 305851, Note_on_c, 0, 82, 63
2, 305894, Note_on_c, 0, 83, 0
2, 305901, Note_on_c, 0, 83, 58
2, 305946, Note_on_c, 0, 86, 77
2, 306009, Control_c, 0, 64, 0
2, 306094, Control_c, 0, 64, 127
2, 306140, Note_on_c, 0, 83, 0
2, 306147, Note_on_c, 0, 83, 66
2, 306324, Note_on_c, 0, 79, 0
2, 306332, Note_on_c, 0, 79, 59
2, 306546, Note_on_c, 0, 74, 52
2, 306800, Note_on_c, 0, 76, 0
2, 306807, Note_on_c, 0, 76, 54
2, 308220, Note_on_c, 0, 72, 51
2, 308275, Note_on_c, 0, 74, 0
2, 308280, Note_on_c, 0, 74, 62
2, 308367, Note_on_c, 0, 72, 0
2, 308377, Note_on_c, 0, 72, 50
2, 308513, Note_on_c, 0, 69, 0
2, 308560, Note_on_c, 0, 45, 39
2, 308563, Note_on_c, 0, 71, 53
2, 308573, Note_on_c, 0, 33, 37
2, 308583, Note_on_c, 0, 52, 33
2, 308587, Note_on_c, 0, 59, 42
2, 308593, Note_on_c, 0, 62, 39
2, 308598, Note_on_c, 0, 67, 33
2, 308628, Control_c, 0, 64, 0
2, 308641, Note_on_c, 0, 72, 0
2, 308641, Note_on_c, 0, 79, 0
2, 308642, Note_on_c, 0, 76, 0
2, 308643, Note_on_c, 0, 83, 0
2, 308646, Note_on_c, 0, 86, 0
2, 308647, Note_on_c, 0, 82, 0
2, 308659, Note_on_c, 0, 33, 0
2, 308666, Note_on_c, 0, 81, 0
2, 308666, Note_on_c, 0, 91, 0
2, 308674, Note_on_c, 0, 74, 0
2, 308689, Note_on_c, 0, 88, 0
2, 308820, Note_on_c, 0, 52, 0
2, 308858, Control_c, 0, 64, 127
2, 309937, Note_on_c, 0, 33, 31
2, 311597, Note_on_c, 0, 57, 39
2, 311622, Note_on_c, 0, 69, 45
2, 311622, Note_on_c, 0, 64, 51
2, 311631, Note_on_c, 0, 69, 0
2, 311669, Note_on_c, 0, 71, 0
2, 311674, Control_c, 0, 64, 0
2, 311676, Note_on_c, 0, 71, 51
2, 311723, Control_c, 0, 64, 127
2, 311766, Note_on_c, 0, 72, 46
2, 311800, Note_on_c, 0, 76, 53
2, 311833, Note_on_c, 0, 79, 45
2, 311882, Note_on_c, 0, 83, 51
2, 311962, Note_on_c, 0, 95, 61
2, 312960, Note_on_c, 0, 45, 0
2, 312960, Note_on_c, 0, 59, 0
2, 312960, Note_on_c, 0, 62, 0
2, 312960, Note_on_c, 0, 67, 0
2, 314542, Note_on_c, 0, 33, 0
2, 316208, Note_on_c, 0, 57, 0
2, 316231, Note_on_c, 0, 64, 0
2, 316285, Note_on_c, 0, 71, 0
2, 316377, Note_on_c, 0, 72, 0
2, 316408, Note_on_c, 0, 76, 0
2, 316439, Note_on_c, 0, 79, 0
2, 316492, Note_on_c, 0, 83, 0
2, 316569, Note_on_c, 0, 95, 0
2, 323658, Control_c, 0, 64, 0
2, 323659, End_track
0, 0, End_of_file
