0, 0, Header, 1, 2, 384
1, 0, Start_track
1, 0, Tempo, 500000
1, 0, Time_signature, 4, 2, 24, 8
1, 1, End_track
2, 0, Start_track
2, 1309, Note_on_c, 0, 47, 82
2, 1310, Note_on_c, 0, 44, 77
2, 1311, Note_on_c, 0, 35, 81
2, 1315, Note_on_c, 0, 41, 79
2, 1351, Note_on_c, 0, 41, 0
2, 1389, Note_on_c, 0, 49, 70
2, 1420, Control_c, 0, 64, 127
2, 1442, Note_on_c, 0, 51, 76
2, 1509, Note_on_c, 0, 52, 79
2, 1570, Note_on_c, 0, 54, 67
2, 1610, Note_on_c, 0, 56, 77
2, 1667, Note_on_c, 0, 69, 72
2, 1668, Note_on_c, 0, 57, 83
2, 1747, Note_on_c, 0, 59, 82
2, 1809, Note_on_c, 0, 61, 80
2, 1871, Note_on_c, 0, 63, 97
2, 1943, Note_on_c, 0, 61, 0
2, 1951, Note_on_c, 0, 61, 83
2, 1996, Note_on_c, 0, 59, 0
2, 2007, Note_on_c, 0, 59, 83
2, 2073, Note_on_c, 0, 57, 0
2, 2080, Note_on_c, 0, 57, 74
2, 2158, Note_on_c, 0, 56, 0
2, 2163, Note_on_c, 0, 56, 72
2, 2163, Note_on_c, 0, 68, 65
2, 2242, Note_on_c, 0, 54, 0
2, 2251, Note_on_c, 0, 54, 73
2, 2319, Note_on_c, 0, 52, 0
2, 2329, Note_on_c, 0, 52, 77
2, 2388, Note_on_c, 0, 47, 0
2, 2396, Note_on_c, 0, 35, 0
2, 2396, Note_on_c, 0, 59, 0
2, 2399, Note_on_c, 0, 47, 89
2, 2400, Note_on_c, 0, 59, 77
2, 2403, Note_on_c, 0, 35, 84
2, 2404, Control_c, 0, 64, 0
2, 2405, Note_on_c, 0, 51, 0
2, 2405, Note_on_c, 0, 52, 0
2, 2406, Note_on_c, 0, 44, 0
2, 2406, Note_on_c, 0, 69, 0
2, 2406, Note_on_c, 0, 63, 0
2, 2406, Note_on_c, 0, 49, 0
2, 2406, Note_on_c, 0, 61, 0
2, 2426, Note_on_c, 0, 54, 0
2, 2426, Note_on_c, 0, 57, 0
2, 2442, Note_on_c, 0, 56, 0
2, 2449, Note_on_c, 0, 68, 0
2, 2453, Note_on_c, 0, 56, 77
2, 2480, Control_c, 0, 64, 127
2, 2496, Note_on_c, 0, 59, 0
2, 2522, Note_on_c, 0, 57, 77
2, 2574, Note_on_c, 0, 59, 77
2, 2624, Note_on_c, 0, 61, 79
2, 2671, Note_on_c, 0, 63, 69
2, 2722, Note_on_c, 0, 64, 93
2, 2797, Note_on_c, 0, 66, 84
2, 2864, Note_on_c, 0, 68, 86
2, 2922, Note_on_c, 0, 69, 100
2, 3002, Note_on_c, 0, 68, 0
2, 3011, Note_on_c, 0, 68, 73
2, 3025, Note_on_c, 0, 56, 0
2, 3031, Note_on_c, 0, 56, 53
2, 3041, Note_on_c, 0, 57, 0
2, 3051, Note_on_c, 0, 57, 60
2, 3056, Note_on_c, 0, 66, 0
2, 3064, Note_on_c, 0, 47, 0
2, 3067, Note_on_c, 0, 66, 81
2, 3075, Note_on_c, 0, 47, 67
2, 3133, Note_on_c, 0, 64, 0
2, 3141, Note_on_c, 0, 64, 81
2, 3217, Note_on_c, 0, 63, 0
2, 3221, Note_on_c, 0, 63, 82
2, 3287, Note_on_c, 0, 61, 0
2, 3296, Note_on_c, 0, 61, 78
2, 3297, Note_on_c, 0, 49, 59
2, 3302, Note_on_c, 0, 49, 0
2, 3348, Note_on_c, 0, 59, 0
2, 3358, Note_on_c, 0, 59, 84
2, 3432, Note_on_c, 0, 61, 0
2, 3437, Note_on_c, 0, 61, 81
2, 3463, Note_on_c, 0, 47, 0
2, 3466, Note_on_c, 0, 69, 0
2, 3467, Note_on_c, 0, 66, 0
2, 3467, Note_on_c, 0, 68, 0
2, 3467, Note_on_c, 0, 57, 0
2, 3467, Note_on_c, 0, 59, 0
2, 3467, Note_on_c, 0, 64, 0
2, 3468, Note_on_c, 0, 56, 0
2, 3471, Note_on_c, 0, 63, 0
2, 3474, Note_on_c, 0, 47, 92
2, 3474, Control_c, 0, 64, 0
2, 3475, Note_on_c, 0, 63, 86
2, 3486, Note_on_c, 0, 35, 0
2, 3494, Note_on_c, 0, 61, 0
2, 3539, Note_on_c, 0, 63, 0
2, 3540, Control_c, 0, 64, 127
2, 3555, Note_on_c, 0, 64, 88
2, 3609, Note_on_c, 0, 66, 82
2, 3654, Note_on_c, 0, 68, 87
2, 3716, Note_on_c, 0, 69, 83
2, 3768, Note_on_c, 0, 71, 87
2, 3820, Note_on_c, 0, 73, 87
2, 3869, Note_on_c, 0, 75, 80
2, 3922, Note_on_c, 0, 76, 92
2, 3991, Note_on_c, 0, 78, 96
2, 4001, Note_on_c, 0, 71, 0
2, 4007, Note_on_c, 0, 71, 99
2, 4042, Note_on_c, 0, 80, 92
2, 4107, Note_on_c, 0, 81, 83
2, 4165, Note_on_c, 0, 83, 79
2, 4219, Note_on_c, 0, 85, 79
2, 4258, Note_on_c, 0, 87, 73
2, 4311, Note_on_c, 0, 88, 89
2, 4374, Note_on_c, 0, 90, 92
2, 4433, Note_on_c, 0, 92, 97
2, 4489, Note_on_c, 0, 93, 80
2, 4546, Note_on_c, 0, 83, 0
2, 4552, Note_on_c, 0, 95, 108
2, 4554, Note_on_c, 0, 47, 0
2, 4554, Note_on_c, 0, 71, 0
2, 4557, Note_on_c, 0, 83, 97
2, 4558, Note_on_c, 0, 47, 68
2, 4558, Note_on_c, 0, 71, 92
2, 4566, Note_on_c, 0, 81, 0
2, 4568, Control_c, 0, 64, 0
2, 4592, Note_on_c, 0, 80, 0
2, 4592, Note_on_c, 0, 95, 0
2, 4592, Control_c, 0, 64, 127
2, 4600, Note_on_c, 0, 73, 0
2, 4600, Note_on_c, 0, 75, 0
2, 4600, Note_on_c, 0, 78, 0
2, 4600, Note_on_c, 0, 83, 0
2, 4608, Note_on_c, 0, 76, 0
2, 4608, Note_on_c, 0, 87, 0
2, 4638, Note_on_c, 0, 64, 0
2, 4715, Note_on_c, 0, 47, 0
2, 4725, Note_on_c, 0, 47, 48
2, 4800, Note_on_c, 0, 66, 0
2, 4922, Note_on_c, 0, 90, 0
2, 4992, Note_on_c, 0, 47, 0
2, 4996, Note_on_c, 0, 47, 37
2, 5015, Note_on_c, 0, 85, 0
2, 5138, Note_on_c, 0, 76, 106
2, 5139, Note_on_c, 0, 64, 104
2, 5145, Note_on_c, 0, 68, 0
2, 5145, Note_on_c, 0, 92, 0
2, 5147, Control_c, 0, 64, 0
2, 5160, Note_on_c, 0, 47, 0
2, 5160, Note_on_c, 0, 93, 0
2, 5168, Note_on_c, 0, 71, 0
2, 5168, Note_on_c, 0, 88, 0
2, 5168, Control_c, 0, 64, 127
2, 5171, Note_on_c, 0, 47, 61
2, 5191, Note_on_c, 0, 69, 0
2, 5410, Note_on_c, 0, 78, 106
2, 5412, Note_on_c, 0, 66, 98
2, 5414, Control_c, 0, 64, 0
2, 5416, Note_on_c, 0, 64, 0
2, 5417, Note_on_c, 0, 76, 0
2, 5452, Control_c, 0, 64, 127
2, 5648, Control_c, 0, 64, 0
2, 5648, Note_on_c, 0, 66, 0
2, 5648, Note_on_c, 0, 78, 0
2, 5667, Note_on_c, 0, 47, 0
2, 5677, Note_on_c, 0, 80, 107
2, 5681, Note_on_c, 0, 68, 96
2, 5685, Note_on_c, 0, 76, 83
2, 5686, Note_on_c, 0, 40, 72
2, 5686, Note_on_c, 0, 71, 89
2, 5729, Control_c, 0, 64, 127
2, 5815, Note_on_c, 0, 52, 71
2, 5959, Note_on_c, 0, 71, 0
2, 5962, Note_on_c, 0, 56, 78
2, 5965, Note_on_c, 0, 71, 96
2, 6092, Note_on_c, 0, 59, 77
2, 6232, Note_on_c, 0, 81, 106
2, 6234, Note_on_c, 0, 69, 94
2, 6236, Note_on_c, 0, 64, 92
2, 6255, Control_c, 0, 64, 0
2, 6274, Control_c, 0, 64, 127
2, 6351, Note_on_c, 0, 59, 0
2, 6354, Note_on_c, 0, 47, 58
2, 6355, Note_on_c, 0, 59, 68
2, 6481, Note_on_c, 0, 56, 0
2, 6488, Note_on_c, 0, 56, 82
2, 6489, Note_on_c, 0, 80, 0
2, 6495, Note_on_c, 0, 80, 106
2, 6497, Note_on_c, 0, 68, 0
2, 6504, Note_on_c, 0, 68, 100
2, 6508, Note_on_c, 0, 59, 0
2, 6508, Control_c, 0, 64, 0
2, 6509, Note_on_c, 0, 76, 0
2, 6528, Control_c, 0, 64, 127
2, 6627, Note_on_c, 0, 52, 0
2, 6632, Note_on_c, 0, 52, 70
2, 6773, Note_on_c, 0, 47, 0
2, 6773, Note_on_c, 0, 71, 0
2, 6773, Note_on_c, 0, 81, 0
2, 6776, Note_on_c, 0, 78, 105
2, 6777, Note_on_c, 0, 71, 75
2, 6778, Note_on_c, 0, 66, 94
2, 6779, Note_on_c, 0, 75, 83
2, 6780, Note_on_c, 0, 47, 79
2, 6780, Note_on_c, 0, 52, 0
2, 6780, Control_c, 0, 64, 0
2, 6785, Note_on_c, 0, 40, 0
2, 6789, Note_on_c, 0, 56, 0
2, 6789, Note_on_c, 0, 64, 0
2, 6796, Note_on_c, 0, 68, 0
2, 6796, Note_on_c, 0, 69, 0
2, 6804, Note_on_c, 0, 80, 0
2, 6858, Control_c, 0, 64, 127
2, 6912, Note_on_c, 0, 47, 0
2, 6921, Note_on_c, 0, 47, 77
2, 7045, Note_on_c, 0, 51, 75
2, 7183, Note_on_c, 0, 54, 76
2, 7311, Note_on_c, 0, 47, 0
2, 7314, Note_on_c, 0, 59, 86
2, 7314, Note_on_c, 0, 76, 103
2, 7316, Note_on_c, 0, 64, 98
2, 7316, Control_c, 0, 64, 0
2, 7318, Note_on_c, 0, 47, 76
2, 7322, Note_on_c, 0, 69, 80
2, 7349, Control_c, 0, 64, 127
2, 7418, Note_on_c, 0, 54, 0
2, 7430, Note_on_c, 0, 54, 79
2, 7580, Note_on_c, 0, 51, 0
2, 7587, Note_on_c, 0, 75, 0
2, 7591, Note_on_c, 0, 51, 81
2, 7592, Note_on_c, 0, 75, 106
2, 7593, Note_on_c, 0, 63, 95
2, 7595, Note_on_c, 0, 71, 0
2, 7595, Control_c, 0, 64, 0
2, 7606, Note_on_c, 0, 71, 67
2, 7618, Control_c, 0, 64, 127
2, 7703, Note_on_c, 0, 47, 0
2, 7710, Note_on_c, 0, 47, 78
2, 7776, Note_on_c, 0, 49, 56
2, 7841, Note_on_c, 0, 76, 0
2, 7852, Note_on_c, 0, 76, 106
2, 7854, Control_c, 0, 64, 0
2, 7856, Note_on_c, 0, 64, 0
2, 7856, Note_on_c, 0, 69, 0
2, 7858, Note_on_c, 0, 51, 0
2, 7859, Note_on_c, 0, 47, 0
2, 7859, Note_on_c, 0, 75, 0
2, 7860, Note_on_c, 0, 64, 96
2, 7860, Note_on_c, 0, 63, 0
2, 7863, Note_on_c, 0, 73, 88
2, 7863, Note_on_c, 0, 37, 79
2, 7864, Note_on_c, 0, 66, 0
2, 7868, Note_on_c, 0, 68, 82
2, 7872, Note_on_c, 0, 59, 0
2, 7872, Note_on_c, 0, 78, 0
2, 7879, Note_on_c, 0, 54, 0
2, 7879, Note_on_c, 0, 71, 0
2, 7902, Note_on_c, 0, 49, 0
2, 7925, Control_c, 0, 64, 127
2, 7983, Note_on_c, 0, 49, 75
2, 8117, Note_on_c, 0, 68, 0
2, 8121, Note_on_c, 0, 52, 73
2, 8122, Note_on_c, 0, 68, 101
2, 8250, Note_on_c, 0, 56, 75
2, 8378, Note_on_c, 0, 37, 0
2, 8386, Note_on_c, 0, 52, 0
2, 8392, Note_on_c, 0, 78, 103
2, 8396, Note_on_c, 0, 52, 63
2, 8396, Note_on_c, 0, 61, 77
2, 8397, Note_on_c, 0, 66, 98
2, 8509, Note_on_c, 0, 56, 0
2, 8519, Note_on_c, 0, 56, 60
2, 8640, Note_on_c, 0, 52, 0
2, 8650, Note_on_c, 0, 52, 69
2, 8678, Note_on_c, 0, 76, 0
2, 8683, Note_on_c, 0, 76, 103
2, 8686, Note_on_c, 0, 64, 0
2, 8691, Note_on_c, 0, 64, 91
2, 8778, Note_on_c, 0, 49, 0
2, 8789, Note_on_c, 0, 49, 75
2, 8937, Note_on_c, 0, 75, 105
2, 8939, Note_on_c, 0, 66, 0
2, 8943, Note_on_c, 0, 56, 0
2, 8944, Note_on_c, 0, 63, 93
2, 8945, Note_on_c, 0, 49, 0
2, 8945, Note_on_c, 0, 78, 0
2, 8945, Note_on_c, 0, 71, 90
2, 8945, Note_on_c, 0, 64, 0
2, 8945, Control_c, 0, 64, 0
2, 8945, Note_on_c, 0, 61, 0
2, 8945, Note_on_c, 0, 76, 0
2, 8947, Note_on_c, 0, 66, 89
2, 8953, Note_on_c, 0, 47, 83
2, 8962, Note_on_c, 0, 52, 0
2, 8962, Note_on_c, 0, 68, 0
2, 8970, Note_on_c, 0, 73, 0
2, 9024, Control_c, 0, 64, 127
2, 9070, Note_on_c, 0, 47, 0
2, 9079, Note_on_c, 0, 47, 80
2, 9204, Note_on_c, 0, 51, 82
2, 9338, Note_on_c, 0, 54, 75
2, 9477, Note_on_c, 0, 66, 0
2, 9477, Note_on_c, 0, 71, 0
2, 9481, Note_on_c, 0, 78, 107
2, 9481, Note_on_c, 0, 59, 82
2, 9482, Control_c, 0, 64, 0
2, 9484, Note_on_c, 0, 66, 97
2, 9486, Note_on_c, 0, 71, 79
2, 9487, Note_on_c, 0, 75, 0
2, 9488, Note_on_c, 0, 63, 0
2, 9507, Control_c, 0, 64, 127
2, 9592, Note_on_c, 0, 54, 0
2, 9597, Note_on_c, 0, 54, 78
2, 9745, Note_on_c, 0, 51, 0
2, 9750, Note_on_c, 0, 80, 107
2, 9754, Control_c, 0, 64, 0
2, 9755, Note_on_c, 0, 51, 75
2, 9756, Note_on_c, 0, 68, 97
2, 9761, Note_on_c, 0, 78, 0
2, 9762, Note_on_c, 0, 66, 0
2, 9776, Control_c, 0, 64, 127
2, 9784, Note_on_c, 0, 59, 0
2, 9853, Note_on_c, 0, 47, 0
2, 9864, Note_on_c, 0, 47, 72
2, 10010, Note_on_c, 0, 81, 103
2, 10014, Note_on_c, 0, 76, 91
2, 10015, Control_c, 0, 64, 0
2, 10016, Note_on_c, 0, 80, 0
2, 10016, Note_on_c, 0, 68, 0
2, 10017, Note_on_c, 0, 47, 0
2, 10018, Note_on_c, 0, 33, 75
2, 10018, Note_on_c, 0, 69, 86
2, 10019, Note_on_c, 0, 73, 90
2, 10022, Note_on_c, 0, 51, 0
2, 10022, Note_on_c, 0, 54, 0
2, 10022, Note_on_c, 0, 71, 0
2, 10083, Control_c, 0, 64, 127
2, 10099, Note_on_c, 0, 33, 0
2, 10139, Note_on_c, 0, 45, 76
2, 10275, Note_on_c, 0, 69, 0
2, 10275, Note_on_c, 0, 73, 0
2, 10285, Note_on_c, 0, 73, 104
2, 10286, Note_on_c, 0, 69, 64
2, 10286, Note_on_c, 0, 52, 75
2, 10287, Note_on_c, 0, 61, 94
2, 10293, Control_c, 0, 64, 0
2, 10314, Control_c, 0, 64, 127
2, 10409, Note_on_c, 0, 57, 79
2, 10446, Note_on_c, 0, 33, 57
2, 10452, Note_on_c, 0, 33, 0
2, 10544, Note_on_c, 0, 52, 0
2, 10544, Note_on_c, 0, 61, 0
2, 10552, Note_on_c, 0, 52, 63
2, 10555, Note_on_c, 0, 61, 80
2, 10556, Control_c, 0, 64, 0
2, 10556, Note_on_c, 0, 83, 101
2, 10562, Note_on_c, 0, 71, 95
2, 10575, Control_c, 0, 64, 127
2, 10667, Note_on_c, 0, 57, 0
2, 10675, Note_on_c, 0, 57, 65
2, 10813, Note_on_c, 0, 69, 0
2, 10813, Note_on_c, 0, 81, 0
2, 10819, Note_on_c, 0, 81, 105
2, 10821, Note_on_c, 0, 52, 0
2, 10824, Note_on_c, 0, 69, 88
2, 10830, Note_on_c, 0, 52, 73
2, 10948, Note_on_c, 0, 49, 74
2, 11069, Note_on_c, 0, 83, 0
2, 11069, Note_on_c, 0, 81, 0
2, 11070, Note_on_c, 0, 49, 0
2, 11070, Note_on_c, 0, 69, 0
2, 11070, Note_on_c, 0, 57, 0
2, 11070, Note_on_c, 0, 73, 0
2, 11070, Control_c, 0, 64, 0
2, 11070, Note_on_c, 0, 61, 0
2, 11070, Note_on_c, 0, 52, 0
2, 11079, Note_on_c, 0, 80, 105
2, 11082, Note_on_c, 0, 71, 0
2, 11082, Note_on_c, 0, 76, 0
2, 11087, Note_on_c, 0, 68, 96
2, 11088, Note_on_c, 0, 71, 84
2, 11089, Note_on_c, 0, 45, 0
2, 11090, Note_on_c, 0, 40, 67
2, 11092, Note_on_c, 0, 76, 79
2, 11143, Control_c, 0, 64, 127
2, 11218, Note_on_c, 0, 52, 71
2, 11352, Note_on_c, 0, 78, 102
2, 11356, Note_on_c, 0, 66, 92
2, 11357, Note_on_c, 0, 56, 70
2, 11360, Control_c, 0, 64, 0
2, 11360, Note_on_c, 0, 68, 0
2, 11361, Note_on_c, 0, 76, 0
2, 11362, Note_on_c, 0, 71, 0
2, 11362, Note_on_c, 0, 80, 0
2, 11397, Control_c, 0, 64, 127
2, 11491, Note_on_c, 0, 59, 78
2, 11624, Note_on_c, 0, 76, 99
2, 11626, Note_on_c, 0, 64, 94
2, 11638, Control_c, 0, 64, 0
2, 11658, Control_c, 0, 64, 127
2, 11750, Note_on_c, 0, 59, 0
2, 11759, Note_on_c, 0, 59, 75
2, 11880, Note_on_c, 0, 56, 0
2, 11890, Note_on_c, 0, 80, 107
2, 11891, Note_on_c, 0, 56, 83
2, 11892, Note_on_c, 0, 64, 0
2, 11893, Note_on_c, 0, 68, 97
2, 11893, Control_c, 0, 64, 0
2, 11894, Note_on_c, 0, 59, 0
2, 11895, Note_on_c, 0, 78, 0
2, 11896, Note_on_c, 0, 66, 0
2, 11911, Control_c, 0, 64, 127
2, 11934, Note_on_c, 0, 52, 0
2, 12011, Note_on_c, 0, 40, 0
2, 12015, Note_on_c, 0, 52, 69
2, 12020, Note_on_c, 0, 40, 61
2, 12153, Note_on_c, 0, 81, 104
2, 12161, Note_on_c, 0, 73, 86
2, 12163, Note_on_c, 0, 68, 0
2, 12163, Control_c, 0, 64, 0
2, 12164, Note_on_c, 0, 42, 82
2, 12164, Note_on_c, 0, 80, 0
2, 12165, Note_on_c, 0, 52, 0
2, 12165, Note_on_c, 0, 69, 82
2, 12166, Note_on_c, 0, 40, 0
2, 12166, Note_on_c, 0, 78, 91
2, 12172, Note_on_c, 0, 56, 0
2, 12172, Note_on_c, 0, 76, 0
2, 12241, Control_c, 0, 64, 127
2, 12308, Note_on_c, 0, 49, 72
2, 12426, Note_on_c, 0, 42, 0
2, 12430, Note_on_c, 0, 54, 72
2, 12437, Note_on_c, 0, 42, 76
2, 12437, Note_on_c, 0, 80, 107
2, 12440, Note_on_c, 0, 73, 0
2, 12440, Control_c, 0, 64, 0
2, 12442, Note_on_c, 0, 68, 99
2, 12442, Note_on_c, 0, 69, 0
2, 12443, Note_on_c, 0, 81, 0
2, 12443, Note_on_c, 0, 78, 0
2, 12464, Control_c, 0, 64, 127
2, 12550, Note_on_c, 0, 57, 74
2, 12695, Note_on_c, 0, 42, 0
2, 12703, Note_on_c, 0, 78, 105
2, 12704, Note_on_c, 0, 42, 64
2, 12705, Note_on_c, 0, 68, 0
2, 12705, Note_on_c, 0, 80, 0
2, 12705, Note_on_c, 0, 57, 0
2, 12706, Control_c, 0, 64, 0
2, 12707, Note_on_c, 0, 66, 97
2, 12718, Note_on_c, 0, 54, 0
2, 12733, Control_c, 0, 64, 127
2, 12806, Note_on_c, 0, 57, 75
2, 12917, Note_on_c, 0, 42, 0
2, 12927, Note_on_c, 0, 42, 50
2, 12966, Note_on_c, 0, 76, 100
2, 12971, Note_on_c, 0, 64, 89
2, 12973, Note_on_c, 0, 54, 73
2, 13079, Note_on_c, 0, 49, 0
2, 13083, Note_on_c, 0, 49, 76
2, 13224, Note_on_c, 0, 66, 0
2, 13224, Note_on_c, 0, 78, 0
2, 13227, Control_c, 0, 64, 0
2, 13228, Note_on_c, 0, 42, 0
2, 13228, Note_on_c, 0, 64, 0
2, 13228, Note_on_c, 0, 76, 0
2, 13228, Note_on_c, 0, 57, 0
2, 13228, Note_on_c, 0, 54, 0
2, 13229, Note_on_c, 0, 49, 0
2, 13229, Note_on_c, 0, 78, 108
2, 13235, Note_on_c, 0, 66, 95
2, 13237, Note_on_c, 0, 44, 76
2, 13242, Note_on_c, 0, 75, 73
2, 13286, Note_on_c, 0, 66, 0
2, 13294, Note_on_c, 0, 78, 0
2, 13361, Note_on_c, 0, 78, 101
2, 13364, Note_on_c, 0, 66, 93
2, 13366, Note_on_c, 0, 73, 74
2, 13372, Note_on_c, 0, 51, 81
2, 13393, Note_on_c, 0, 66, 0
2, 13397, Note_on_c, 0, 73, 0
2, 13401, Note_on_c, 0, 75, 0
2, 13409, Note_on_c, 0, 44, 0
2, 13492, Note_on_c, 0, 56, 77
2, 13499, Note_on_c, 0, 51, 0
2, 13501, Note_on_c, 0, 78, 0
2, 13630, Note_on_c, 0, 80, 108
2, 13638, Note_on_c, 0, 68, 91
2, 13640, Note_on_c, 0, 75, 84
2, 13641, Note_on_c, 0, 72, 91
2, 13643, Note_on_c, 0, 44, 75
2, 13662, Control_c, 0, 64, 127
2, 13923, Note_on_c, 0, 56, 0
2, 13923, Note_on_c, 0, 68, 0
2, 13930, Note_on_c, 0, 68, 74
2, 13931, Note_on_c, 0, 56, 84
2, 14054, Note_on_c, 0, 72, 0
2, 14058, Note_on_c, 0, 72, 81
2, 14058, Note_on_c, 0, 60, 80
2, 14150, Note_on_c, 0, 72, 0
2, 14151, Note_on_c, 0, 56, 0
2, 14151, Note_on_c, 0, 75, 0
2, 14153, Note_on_c, 0, 44, 0
2, 14154, Note_on_c, 0, 60, 0
2, 14158, Control_c, 0, 64, 0
2, 14188, Note_on_c, 0, 61, 89
2, 14307, Note_on_c, 0, 49, 73
2, 14315, Control_c, 0, 64, 127
2, 14446, Note_on_c, 0, 68, 0
2, 14455, Note_on_c, 0, 68, 71
2, 14582, Note_on_c, 0, 51, 68
2, 14587, Note_on_c, 0, 73, 67
2, 14707, Note_on_c, 0, 49, 0
2, 14712, Note_on_c, 0, 49, 68
2, 14726, Note_on_c, 0, 75, 75
2, 14845, Note_on_c, 0, 80, 0
2, 14850, Note_on_c, 0, 72, 93
2, 14852, Note_on_c, 0, 60, 91
2, 14853, Note_on_c, 0, 80, 91
2, 14863, Note_on_c, 0, 73, 0
2, 14864, Control_c, 0, 64, 0
2, 14864, Note_on_c, 0, 68, 0
2, 14864, Note_on_c, 0, 61, 0
2, 14864, Note_on_c, 0, 51, 0
2, 14864, Note_on_c, 0, 75, 0
2, 14864, Note_on_c, 0, 49, 0
2, 14937, Control_c, 0, 64, 127
2, 15011, Note_on_c, 0, 75, 75
2, 15122, Note_on_c, 0, 61, 91
2, 15127, Note_on_c, 0, 73, 84
2, 15263, Note_on_c, 0, 63, 98
2, 15296, Control_c, 0, 64, 0
2, 15300, Note_on_c, 0, 80, 0
2, 15301, Note_on_c, 0, 72, 0
2, 15302, Note_on_c, 0, 61, 0
2, 15302, Note_on_c, 0, 73, 0
2, 15306, Note_on_c, 0, 60, 0
2, 15383, Control_c, 0, 64, 127
2, 15395, Note_on_c, 0, 48, 76
2, 15529, Note_on_c, 0, 68, 80
2, 15536, Note_on_c, 0, 48, 0
2, 15540, Note_on_c, 0, 48, 61
2, 15655, Note_on_c, 0, 51, 77
2, 15656, Note_on_c, 0, 73, 82
2, 15782, Note_on_c, 0, 48, 0
2, 15782, Note_on_c, 0, 75, 0
2, 15786, Note_on_c, 0, 48, 72
2, 15786, Note_on_c, 0, 75, 85
2, 15925, Note_on_c, 0, 68, 0
2, 15926, Note_on_c, 0, 61, 95
2, 15926, Note_on_c, 0, 75, 0
2, 15926, Note_on_c, 0, 51, 0
2, 15926, Note_on_c, 0, 63, 0
2, 15926, Note_on_c, 0, 80, 93
2, 15927, Control_c, 0, 64, 0
2, 15997, Control_c, 0, 64, 127
2, 16068, Note_on_c, 0, 75, 78
2, 16074, Note_on_c, 0, 48, 0
2, 16189, Note_on_c, 0, 73, 0
2, 16199, Note_on_c, 0, 63, 88
2, 16200, Note_on_c, 0, 73, 89
2, 16326, Note_on_c, 0, 65, 100
2, 16370, Note_on_c, 0, 75, 0
2, 16371, Note_on_c, 0, 63, 0
2, 16371, Control_c, 0, 64, 0
2, 16372, Note_on_c, 0, 73, 0
2, 16373, Note_on_c, 0, 61, 0
2, 16381, Note_on_c, 0, 80, 0
2, 16435, Control_c, 0, 64, 127
2, 16446, Note_on_c, 0, 46, 75
2, 16590, Note_on_c, 0, 68, 74
2, 16632, Note_on_c, 0, 56, 60
2, 16711, Note_on_c, 0, 65, 0
2, 16716, Note_on_c, 0, 73, 82
2, 16716, Note_on_c, 0, 65, 99
2, 16723, Note_on_c, 0, 46, 0
2, 16724, Control_c, 0, 64, 0
2, 16750, Control_c, 0, 64, 127
2, 16857, Note_on_c, 0, 56, 0
2, 16863, Note_on_c, 0, 56, 75
2, 16865, Note_on_c, 0, 75, 71
2, 16983, Note_on_c, 0, 66, 96
2, 16996, Control_c, 0, 64, 0
2, 17000, Note_on_c, 0, 80, 93
2, 17003, Note_on_c, 0, 68, 0
2, 17018, Control_c, 0, 64, 127
2, 17141, Note_on_c, 0, 56, 0
2, 17141, Note_on_c, 0, 75, 0
2, 17145, Note_on_c, 0, 75, 72
2, 17147, Note_on_c, 0, 56, 69
2, 17256, Note_on_c, 0, 65, 0
2, 17256, Note_on_c, 0, 73, 0
2, 17267, Note_on_c, 0, 65, 91
2, 17268, Note_on_c, 0, 73, 86
2, 17401, Note_on_c, 0, 60, 85
2, 17429, Control_c, 0, 64, 0
2, 17430, Note_on_c, 0, 73, 0
2, 17441, Note_on_c, 0, 56, 0
2, 17441, Note_on_c, 0, 65, 0
2, 17448, Note_on_c, 0, 66, 0
2, 17456, Note_on_c, 0, 80, 0
2, 17502, Control_c, 0, 64, 127
2, 17533, Note_on_c, 0, 44, 66
2, 17648, Note_on_c, 0, 44, 0
2, 17654, Note_on_c, 0, 44, 63
2, 17665, Note_on_c, 0, 68, 75
2, 17813, Note_on_c, 0, 73, 75
2, 17814, Note_on_c, 0, 51, 67
2, 17894, Note_on_c, 0, 60, 0
2, 17925, Note_on_c, 0, 44, 0
2, 17930, Note_on_c, 0, 44, 68
2, 17932, Note_on_c, 0, 75, 0
2, 17939, Note_on_c, 0, 75, 85
2, 18076, Note_on_c, 0, 80, 89
2, 18201, Note_on_c, 0, 75, 0
2, 18205, Note_on_c, 0, 58, 94
2, 18208, Note_on_c, 0, 70, 83
2, 18211, Note_on_c, 0, 75, 75
2, 18335, Note_on_c, 0, 60, 86
2, 18339, Note_on_c, 0, 73, 0
2, 18344, Note_on_c, 0, 73, 85
2, 18470, Note_on_c, 0, 61, 96
2, 18504, Note_on_c, 0, 80, 0
2, 18504, Note_on_c, 0, 68, 0
2, 18505, Note_on_c, 0, 58, 0
2, 18505, Note_on_c, 0, 51, 0
2, 18505, Note_on_c, 0, 73, 0
2, 18505, Note_on_c, 0, 60, 0
2, 18505, Note_on_c, 0, 44, 0
2, 18505, Note_on_c, 0, 70, 0
2, 18505, Note_on_c, 0, 75, 0
2, 18506, Control_c, 0, 64, 0
2, 18593, Control_c, 0, 64, 127
2, 18597, Note_on_c, 0, 42, 75
2, 18708, Note_on_c, 0, 42, 0
2, 18719, Note_on_c, 0, 42, 71
2, 18743, Note_on_c, 0, 68, 73
2, 18855, Note_on_c, 0, 49, 70
2, 18877, Note_on_c, 0, 61, 0
2, 18878, Note_on_c, 0, 73, 76
2, 18887, Note_on_c, 0, 61, 63
2, 19000, Note_on_c, 0, 61, 0
2, 19010, Note_on_c, 0, 61, 61
2, 19011, Note_on_c, 0, 75, 83
2, 19136, Note_on_c, 0, 63, 97
2, 19140, Note_on_c, 0, 80, 98
2, 19269, Note_on_c, 0, 75, 0
2, 19274, Note_on_c, 0, 75, 84
2, 19392, Note_on_c, 0, 61, 0
2, 19392, Note_on_c, 0, 73, 0
2, 19396, Note_on_c, 0, 61, 92
2, 19396, Note_on_c, 0, 73, 93
2, 19537, Note_on_c, 0, 68, 0
2, 19542, Note_on_c, 0, 56, 94
2, 19542, Note_on_c, 0, 68, 80
2, 19576, Note_on_c, 0, 61, 0
2, 19576, Note_on_c, 0, 63, 0
2, 19577, Note_on_c, 0, 80, 0
2, 19577, Note_on_c, 0, 73, 0
2, 19577, Note_on_c, 0, 75, 0
2, 19578, Control_c, 0, 64, 0
2, 19591, Note_on_c, 0, 42, 0
2, 19591, Note_on_c, 0, 49, 0
2, 19660, Control_c, 0, 64, 127
2, 19667, Note_on_c, 0, 41, 66
2, 19806, Note_on_c, 0, 41, 0
2, 19806, Note_on_c, 0, 68, 0
2, 19811, Note_on_c, 0, 41, 67
2, 19817, Note_on_c, 0, 68, 76
2, 19947, Note_on_c, 0, 49, 76
2, 19950, Note_on_c, 0, 73, 77
2, 20067, Note_on_c, 0, 41, 0
2, 20076, Note_on_c, 0, 41, 57
2, 20078, Note_on_c, 0, 75, 84
2, 20213, Note_on_c, 0, 58, 92
2, 20213, Note_on_c, 0, 80, 98
2, 20336, Note_on_c, 0, 75, 0
2, 20347, Note_on_c, 0, 75, 80
2, 20467, Note_on_c, 0, 73, 0
2, 20474, Note_on_c, 0, 60, 83
2, 20477, Note_on_c, 0, 73, 92
2, 20483, Note_on_c, 0, 49, 0
2, 20489, Note_on_c, 0, 58, 0
2, 20610, Note_on_c, 0, 61, 92
2, 20623, Note_on_c, 0, 41, 0
2, 20624, Note_on_c, 0, 60, 0
2, 20624, Note_on_c, 0, 73, 0
2, 20624, Note_on_c, 0, 56, 0
2, 20625, Control_c, 0, 64, 0
2, 20636, Note_on_c, 0, 68, 0
2, 20636, Note_on_c, 0, 80, 0
2, 20720, Control_c, 0, 64, 127
2, 20753, Note_on_c, 0, 39, 61
2, 20866, Note_on_c, 0, 39, 0
2, 20872, Note_on_c, 0, 68, 80
2, 20876, Note_on_c, 0, 39, 54
2, 20935, Note_on_c, 0, 75, 0
2, 21012, Note_on_c, 0, 73, 82
2, 21027, Note_on_c, 0, 49, 60
2, 21140, Note_on_c, 0, 75, 89
2, 21279, Note_on_c, 0, 80, 99
2, 21279, Note_on_c, 0, 63, 95
2, 21411, Note_on_c, 0, 75, 0
2, 21421, Note_on_c, 0, 75, 70
2, 21534, Note_on_c, 0, 61, 0
2, 21534, Note_on_c, 0, 73, 0
2, 21538, Note_on_c, 0, 73, 92
2, 21538, Note_on_c, 0, 61, 84
2, 21680, Note_on_c, 0, 60, 91
2, 21680, Note_on_c, 0, 72, 90
2, 21717, Note_on_c, 0, 49, 0
2, 21721, Note_on_c, 0, 61, 0
2, 21721, Note_on_c, 0, 63, 0
2, 21722, Note_on_c, 0, 39, 0
2, 21722, Note_on_c, 0, 75, 0
2, 21722, Note_on_c, 0, 80, 0
2, 21723, Note_on_c, 0, 73, 0
2, 21724, Control_c, 0, 64, 0
2, 21742, Note_on_c, 0, 68, 0
2, 21807, Note_on_c, 0, 44, 73
2, 21826, Control_c, 0, 64, 127
2, 21945, Note_on_c, 0, 63, 91
2, 21960, Note_on_c, 0, 51, 77
2, 22073, Note_on_c, 0, 68, 88
2, 22075, Note_on_c, 0, 56, 77
2, 22207, Note_on_c, 0, 61, 80
2, 22207, Note_on_c, 0, 73, 84
2, 22325, Note_on_c, 0, 72, 0
2, 22333, Note_on_c, 0, 72, 97
2, 22341, Note_on_c, 0, 60, 0
2, 22347, Note_on_c, 0, 60, 78
2, 22464, Note_on_c, 0, 56, 0
2, 22464, Note_on_c, 0, 68, 0
2, 22468, Note_on_c, 0, 80, 105
2, 22470, Note_on_c, 0, 56, 77
2, 22470, Note_on_c, 0, 68, 85
2, 22586, Note_on_c, 0, 51, 0
2, 22593, Note_on_c, 0, 51, 75
2, 22594, Note_on_c, 0, 72, 0
2, 22598, Note_on_c, 0, 84, 100
2, 22599, Note_on_c, 0, 72, 97
2, 22694, Note_on_c, 0, 44, 0
2, 22705, Note_on_c, 0, 44, 73
2, 22725, Note_on_c, 0, 73, 0
2, 22728, Note_on_c, 0, 85, 100
2, 22729, Note_on_c, 0, 73, 94
2, 22732, Note_on_c, 0, 80, 0
2, 22738, Note_on_c, 0, 80, 83
2, 22745, Note_on_c, 0, 77, 81
2, 22792, Note_on_c, 0, 72, 0
2, 22794, Note_on_c, 0, 60, 0
2, 22794, Note_on_c, 0, 63, 0
2, 22796, Note_on_c, 0, 56, 0
2, 22797, Note_on_c, 0, 44, 0
2, 22801, Note_on_c, 0, 51, 0
2, 22804, Control_c, 0, 64, 0
2, 22809, Note_on_c, 0, 61, 0
2, 22824, Note_on_c, 0, 68, 0
2, 22850, Note_on_c, 0, 61, 73
2, 22850, Note_on_c, 0, 49, 76
2, 22878, Control_c, 0, 64, 127
2, 22970, Note_on_c, 0, 73, 0
2, 22981, Note_on_c, 0, 73, 81
2, 23124, Note_on_c, 0, 80, 0
2, 23128, Note_on_c, 0, 80, 88
2, 23132, Note_on_c, 0, 63, 71
2, 23239, Note_on_c, 0, 73, 0
2, 23245, Note_on_c, 0, 73, 87
2, 23247, Note_on_c, 0, 61, 0
2, 23251, Note_on_c, 0, 61, 80
2, 23285, Note_on_c, 0, 84, 0
2, 23382, Note_on_c, 0, 84, 103
2, 23384, Note_on_c, 0, 68, 87
2, 23385, Note_on_c, 0, 72, 102
2, 23508, Note_on_c, 0, 61, 0
2, 23517, Note_on_c, 0, 61, 78
2, 23631, Note_on_c, 0, 85, 0
2, 23639, Note_on_c, 0, 63, 0
2, 23639, Note_on_c, 0, 73, 0
2, 23641, Note_on_c, 0, 85, 100
2, 23643, Note_on_c, 0, 73, 94
2, 23649, Note_on_c, 0, 63, 79
2, 23746, Note_on_c, 0, 61, 0
2, 23753, Note_on_c, 0, 61, 75
2, 23777, Note_on_c, 0, 80, 0
2, 23783, Note_on_c, 0, 87, 96
2, 23784, Note_on_c, 0, 84, 0
2, 23787, Note_on_c, 0, 75, 92
2, 23787, Note_on_c, 0, 80, 89
2, 23791, Note_on_c, 0, 84, 82
2, 23848, Note_on_c, 0, 72, 0
2, 23848, Note_on_c, 0, 73, 0
2, 23848, Note_on_c, 0, 68, 0
2, 23848, Control_c, 0, 64, 0
2, 23849, Note_on_c, 0, 49, 0
2, 23849, Note_on_c, 0, 61, 0
2, 23849, Note_on_c, 0, 77, 0
2, 23861, Note_on_c, 0, 63, 0
2, 23892, Note_on_c, 0, 85, 0
2, 23906, Note_on_c, 0, 60, 76
2, 23906, Note_on_c, 0, 48, 71
2, 23907, Control_c, 0, 64, 127
2, 24023, Note_on_c, 0, 60, 0
2, 24031, Note_on_c, 0, 60, 67
2, 24034, Note_on_c, 0, 72, 85
2, 24161, Note_on_c, 0, 75, 0
2, 24161, Note_on_c, 0, 80, 0
2, 24170, Note_on_c, 0, 80, 91
2, 24171, Note_on_c, 0, 63, 79
2, 24172, Note_on_c, 0, 75, 72
2, 24284, Note_on_c, 0, 72, 0
2, 24294, Note_on_c, 0, 72, 90
2, 24307, Note_on_c, 0, 60, 0
2, 24311, Note_on_c, 0, 60, 73
2, 24442, Note_on_c, 0, 85, 102
2, 24444, Note_on_c, 0, 68, 87
2, 24445, Note_on_c, 0, 73, 95
2, 24568, Note_on_c, 0, 60, 0
2, 24574, Note_on_c, 0, 60, 71
2, 24574, Note_on_c, 0, 48, 0
2, 24706, Note_on_c, 0, 63, 0
2, 24706, Note_on_c, 0, 75, 0
2, 24706, Note_on_c, 0, 87, 0
2, 24715, Note_on_c, 0, 63, 75
2, 24716, Control_c, 0, 64, 0
2, 24717, Note_on_c, 0, 75, 97
2, 24717, Note_on_c, 0, 87, 98
2, 24718, Note_on_c, 0, 60, 0
2, 24729, Note_on_c, 0, 84, 0
2, 24744, Control_c, 0, 64, 127
2, 24815, Note_on_c, 0, 60, 75
2, 24837, Note_on_c, 0, 72, 0
2, 24950, Note_on_c, 0, 73, 0
2, 24950, Note_on_c, 0, 80, 0
2, 24955, Note_on_c, 0, 60, 0
2, 24956, Control_c, 0, 64, 0
2, 24967, Note_on_c, 0, 63, 0
2, 24967, Note_on_c, 0, 68, 0
2, 24967, Note_on_c, 0, 75, 0
2, 24979, Note_on_c, 0, 89, 106
2, 24983, Note_on_c, 0, 85, 0
2, 24983, Note_on_c, 0, 87, 0
2, 24986, Note_on_c, 0, 77, 97
2, 24987, Note_on_c, 0, 82, 92
2, 24988, Note_on_c, 0, 58, 85
2, 24992, Note_on_c, 0, 46, 79
2, 24994, Note_on_c, 0, 85, 87
2, 25036, Control_c, 0, 64, 127
2, 25113, Note_on_c, 0, 46, 0
2, 25125, Note_on_c, 0, 61, 69
2, 25236, Note_on_c, 0, 89, 0
2, 25243, Note_on_c, 0, 63, 85
2, 25247, Note_on_c, 0, 89, 99
2, 25251, Note_on_c, 0, 77, 0
2, 25251, Note_on_c, 0, 82, 0
2, 25251, Note_on_c, 0, 85, 0
2, 25255, Note_on_c, 0, 77, 98
2, 25259, Note_on_c, 0, 85, 81
2, 25262, Note_on_c, 0, 82, 91
2, 25382, Note_on_c, 0, 61, 0
2, 25386, Note_on_c, 0, 61, 78
2, 25512, Note_on_c, 0, 85, 0
2, 25517, Note_on_c, 0, 90, 99
2, 25520, Note_on_c, 0, 82, 0
2, 25521, Note_on_c, 0, 78, 98
2, 25523, Note_on_c, 0, 68, 86
2, 25524, Note_on_c, 0, 85, 87
2, 25524, Note_on_c, 0, 82, 83
2, 25526, Note_on_c, 0, 58, 0
2, 25651, Note_on_c, 0, 61, 0
2, 25659, Note_on_c, 0, 61, 69
2, 25774, Note_on_c, 0, 89, 0
2, 25781, Note_on_c, 0, 63, 0
2, 25781, Note_on_c, 0, 77, 0
2, 25785, Note_on_c, 0, 89, 102
2, 25788, Note_on_c, 0, 77, 96
2, 25789, Note_on_c, 0, 63, 78
2, 25881, Note_on_c, 0, 61, 0
2, 25892, Note_on_c, 0, 61, 80
2, 25927, Note_on_c, 0, 84, 100
2, 25931, Note_on_c, 0, 80, 85
2, 25933, Note_on_c, 0, 72, 89
2, 25938, Note_on_c, 0, 75, 75
2, 26001, Control_c, 0, 64, 0
2, 26001, Note_on_c, 0, 78, 0
2, 26001, Note_on_c, 0, 82, 0
2, 26001, Note_on_c, 0, 90, 0
2, 26002, Note_on_c, 0, 63, 0
2, 26002, Note_on_c, 0, 61, 0
2, 26003, Note_on_c, 0, 77, 0
2, 26004, Note_on_c, 0, 89, 0
2, 26012, Note_on_c, 0, 68, 0
2, 26012, Note_on_c, 0, 85, 0
2, 26050, Note_on_c, 0, 56, 81
2, 26050, Note_on_c, 0, 44, 79
2, 26081, Control_c, 0, 64, 127
2, 26188, Note_on_c, 0, 72, 0
2, 26200, Note_on_c, 0, 72, 81
2, 26200, Note_on_c, 0, 60, 66
2, 26311, Note_on_c, 0, 80, 0
2, 26318, Note_on_c, 0, 63, 72
2, 26319, Note_on_c, 0, 56, 0
2, 26322, Note_on_c, 0, 80, 77
2, 26323, Note_on_c, 0, 56, 69
2, 26449, Note_on_c, 0, 72, 0
2, 26457, Note_on_c, 0, 60, 0
2, 26461, Note_on_c, 0, 72, 85
2, 26468, Note_on_c, 0, 60, 66
2, 26580, Note_on_c, 0, 56, 0
2, 26586, Note_on_c, 0, 68, 91
2, 26587, Note_on_c, 0, 56, 75
2, 26588, Note_on_c, 0, 82, 102
2, 26589, Note_on_c, 0, 63, 0
2, 26590, Note_on_c, 0, 60, 0
2, 26591, Note_on_c, 0, 84, 0
2, 26591, Note_on_c, 0, 44, 0
2, 26591, Control_c, 0, 64, 0
2, 26592, Note_on_c, 0, 70, 95
2, 26611, Note_on_c, 0, 72, 0
2, 26611, Note_on_c, 0, 75, 0
2, 26634, Control_c, 0, 64, 127
2, 26733, Note_on_c, 0, 60, 67
2, 26851, Note_on_c, 0, 84, 97
2, 26852, Note_on_c, 0, 72, 94
2, 26854, Note_on_c, 0, 63, 71
2, 26857, Note_on_c, 0, 56, 0
2, 26956, Note_on_c, 0, 60, 0
2, 26960, Note_on_c, 0, 60, 73
2, 26987, Note_on_c, 0, 80, 0
2, 26987, Note_on_c, 0, 82, 0
2, 26987, Note_on_c, 0, 72, 0
2, 26988, Note_on_c, 0, 84, 0
2, 26988, Note_on_c, 0, 63, 0
2, 26989, Note_on_c, 0, 68, 0
2, 26990, Note_on_c, 0, 70, 0
2, 26992, Note_on_c, 0, 85, 94
2, 26993, Control_c, 0, 64, 0
2, 26996, Note_on_c, 0, 73, 89
2, 26997, Note_on_c, 0, 82, 82
2, 26997, Note_on_c, 0, 78, 86
2, 27018, Note_on_c, 0, 60, 0
2, 27102, Control_c, 0, 64, 127
2, 27121, Note_on_c, 0, 54, 73
2, 27121, Note_on_c, 0, 42, 70
2, 27240, Note_on_c, 0, 73, 0
2, 27252, Note_on_c, 0, 73, 82
2, 27268, Note_on_c, 0, 61, 67
2, 27379, Note_on_c, 0, 54, 0
2, 27379, Note_on_c, 0, 66, 80
2, 27385, Note_on_c, 0, 54, 70
2, 27387, Note_on_c, 0, 80, 84
2, 27509, Note_on_c, 0, 42, 0
2, 27509, Note_on_c, 0, 61, 0
2, 27509, Note_on_c, 0, 73, 0
2, 27514, Note_on_c, 0, 61, 81
2, 27515, Note_on_c, 0, 73, 86
2, 27515, Note_on_c, 0, 42, 69
2, 27656, Note_on_c, 0, 68, 92
2, 27770, Note_on_c, 0, 61, 0
2, 27781, Note_on_c, 0, 61, 83
2, 27909, Note_on_c, 0, 54, 0
2, 27909, Note_on_c, 0, 66, 0
2, 27909, Note_on_c, 0, 78, 0
2, 27915, Note_on_c, 0, 90, 105
2, 27916, Note_on_c, 0, 82, 0
2, 27916, Note_on_c, 0, 85, 0
2, 27917, Note_on_c, 0, 42, 0
2, 27920, Note_on_c, 0, 66, 82
2, 27920, Note_on_c, 0, 54, 70
2, 27920, Note_on_c, 0, 78, 96
2, 27920, Note_on_c, 0, 82, 90
2, 27921, Note_on_c, 0, 85, 90
2, 28024, Note_on_c, 0, 61, 0
2, 28029, Note_on_c, 0, 61, 73
2, 28157, Control_c, 0, 64, 0
2, 28157, Note_on_c, 0, 66, 0
2, 28157, Note_on_c, 0, 61, 0
2, 28158, Note_on_c, 0, 82, 0
2, 28158, Note_on_c, 0, 78, 0
2, 28158, Note_on_c, 0, 90, 0
2, 28158, Note_on_c, 0, 54, 0
2, 28170, Note_on_c, 0, 73, 0
2, 28177, Note_on_c, 0, 68, 0
2, 28185, Note_on_c, 0, 80, 0
2, 28185, Note_on_c, 0, 85, 0
2, 28189, Note_on_c, 0, 89, 104
2, 28189, Note_on_c, 0, 77, 93
2, 28189, Note_on_c, 0, 80, 100
2, 28191, Note_on_c, 0, 56, 84
2, 28192, Note_on_c, 0, 85, 87
2, 28192, Note_on_c, 0, 44, 72
2, 28216, Control_c, 0, 64, 127
2, 28335, Note_on_c, 0, 61, 66
2, 28439, Note_on_c, 0, 56, 0
2, 28447, Note_on_c, 0, 63, 76
2, 28448, Note_on_c, 0, 87, 93
2, 28450, Note_on_c, 0, 56, 68
2, 28450, Note_on_c, 0, 75, 97
2, 28577, Note_on_c, 0, 61, 0
2, 28587, Note_on_c, 0, 61, 76
2, 28715, Note_on_c, 0, 56, 0
2, 28715, Note_on_c, 0, 85, 0
2, 28721, Note_on_c, 0, 85, 96
2, 28723, Note_on_c, 0, 68, 80
2, 28725, Note_on_c, 0, 56, 71
2, 28725, Note_on_c, 0, 73, 92
2, 28846, Note_on_c, 0, 61, 0
2, 28857, Note_on_c, 0, 61, 76
2, 28992, Note_on_c, 0, 63, 0
2, 28998, Note_on_c, 0, 84, 99
2, 29000, Note_on_c, 0, 51, 65
2, 29002, Note_on_c, 0, 72, 97
2, 29002, Note_on_c, 0, 63, 70
2, 29007, Note_on_c, 0, 51, 0
2, 29107, Note_on_c, 0, 61, 0
2, 29113, Note_on_c, 0, 61, 80
2, 29218, Note_on_c, 0, 68, 0
2, 29218, Note_on_c, 0, 61, 0
2, 29219, Note_on_c, 0, 73, 0
2, 29219, Note_on_c, 0, 80, 0
2, 29219, Note_on_c, 0, 75, 0
2, 29219, Control_c, 0, 64, 0
2, 29219, Note_on_c, 0, 72, 0
2, 29219, Note_on_c, 0, 77, 0
2, 29219, Note_on_c, 0, 89, 0
2, 29219, Note_on_c, 0, 85, 0
2, 29219, Note_on_c, 0, 63, 0
2, 29220, Note_on_c, 0, 84, 0
2, 29230, Note_on_c, 0, 44, 0
2, 29245, Note_on_c, 0, 56, 0
2, 29245, Note_on_c, 0, 87, 0
2, 29253, Note_on_c, 0, 87, 97
2, 29253, Note_on_c, 0, 75, 97
2, 29255, Note_on_c, 0, 56, 73
2, 29256, Note_on_c, 0, 78, 97
2, 29256, Note_on_c, 0, 54, 71
2, 29257, Note_on_c, 0, 82, 85
2, 29306, Control_c, 0, 64, 127
2, 29397, Note_on_c, 0, 49, 72
2, 29514, Note_on_c, 0, 56, 0
2, 29520, Note_on_c, 0, 56, 71
2, 29644, Note_on_c, 0, 56, 0
2, 29652, Note_on_c, 0, 75, 0
2, 29652, Note_on_c, 0, 78, 0
2, 29652, Note_on_c, 0, 82, 0
2, 29652, Note_on_c, 0, 87, 0
2, 29655, Note_on_c, 0, 56, 72
2, 29656, Note_on_c, 0, 87, 94
2, 29656, Note_on_c, 0, 78, 93
2, 29656, Note_on_c, 0, 61, 69
2, 29657, Note_on_c, 0, 75, 93
2, 29659, Note_on_c, 0, 82, 87
2, 29662, Control_c, 0, 64, 0
2, 29683, Control_c, 0, 64, 127
2, 29783, Note_on_c, 0, 49, 0
2, 29787, Note_on_c, 0, 49, 68
2, 29913, Note_on_c, 0, 56, 0
2, 29917, Note_on_c, 0, 56, 74
2, 30051, Note_on_c, 0, 61, 0
2, 30055, Note_on_c, 0, 85, 92
2, 30056, Note_on_c, 0, 73, 86
2, 30056, Note_on_c, 0, 80, 85
2, 30059, Note_on_c, 0, 49, 0
2, 30059, Note_on_c, 0, 56, 0
2, 30061, Note_on_c, 0, 65, 80
2, 30062, Note_on_c, 0, 77, 81
2, 30062, Note_on_c, 0, 61, 80
2, 30063, Note_on_c, 0, 87, 0
2, 30067, Note_on_c, 0, 54, 0
2, 30067, Control_c, 0, 64, 0
2, 30068, Note_on_c, 0, 56, 63
2, 30070, Note_on_c, 0, 49, 68
2, 30090, Note_on_c, 0, 75, 0
2, 30090, Note_on_c, 0, 78, 0
2, 30094, Note_on_c, 0, 77, 0
2, 30097, Note_on_c, 0, 82, 0
2, 30099, Note_on_c, 0, 73, 0
2, 30101, Note_on_c, 0, 80, 0
2, 30101, Note_on_c, 0, 85, 0
2, 30102, Note_on_c, 0, 65, 0
2, 30113, Note_on_c, 0, 49, 0
2, 30113, Note_on_c, 0, 61, 0
2, 30120, Note_on_c, 0, 56, 0
2, 30190, Note_on_c, 0, 85, 96
2, 30192, Note_on_c, 0, 73, 89
2, 30193, Note_on_c, 0, 65, 84
2, 30193, Note_on_c, 0, 80, 92
2, 30194, Note_on_c, 0, 77, 78
2, 30195, Note_on_c, 0, 61, 80
2, 30195, Note_on_c, 0, 56, 72
2, 30197, Control_c, 0, 64, 127
2, 30492, Note_on_c, 0, 49, 65
2, 30493, Note_on_c, 0, 37, 63
2, 30604, Note_on_c, 0, 37, 0
2, 30604, Note_on_c, 0, 49, 0
2, 30609, Note_on_c, 0, 49, 63
2, 30615, Note_on_c, 0, 37, 63
2, 30727, Note_on_c, 0, 65, 0
2, 30735, Note_on_c, 0, 65, 79
2, 30801, Note_on_c, 0, 66, 78
2, 30818, Note_on_c, 0, 80, 0
2, 30820, Note_on_c, 0, 85, 0
2, 30820, Note_on_c, 0, 73, 0
2, 30821, Note_on_c, 0, 77, 0
2, 30823, Note_on_c, 0, 65, 0
2, 30823, Note_on_c, 0, 61, 0
2, 30830, Control_c, 0, 64, 0
2, 30832, Note_on_c, 0, 66, 0
2, 30858, Note_on_c, 0, 68, 85
2, 30881, Control_c, 0, 64, 127
2, 30911, Note_on_c, 0, 66, 84
2, 30991, Note_on_c, 0, 65, 56
2, 31055, Note_on_c, 0, 63, 76
2, 31105, Note_on_c, 0, 61, 78
2, 31161, Note_on_c, 0, 60, 71
2, 31230, Note_on_c, 0, 58, 79
2, 31249, Note_on_c, 0, 49, 0
2, 31255, Note_on_c, 0, 49, 44
2, 31277, Note_on_c, 0, 68, 0
2, 31280, Note_on_c, 0, 56, 0
2, 31285, Note_on_c, 0, 56, 76
2, 31365, Note_on_c, 0, 37, 0
2, 31382, Note_on_c, 0, 63, 0
2, 31382, Note_on_c, 0, 61, 0
2, 31382, Note_on_c, 0, 66, 0
2, 31382, Note_on_c, 0, 49, 0
2, 31382, Note_on_c, 0, 58, 0
2, 31383, Note_on_c, 0, 65, 0
2, 31383, Note_on_c, 0, 60, 0
2, 31383, Note_on_c, 0, 56, 0
2, 31385, Control_c, 0, 64, 0
2, 31392, Note_on_c, 0, 41, 68
2, 31398, Note_on_c, 0, 44, 66
2, 31472, Control_c, 0, 64, 127
2, 31484, Note_on_c, 0, 48, 71
2, 31531, Note_on_c, 0, 84, 88
2, 31535, Note_on_c, 0, 72, 86
2, 31537, Note_on_c, 0, 80, 76
2, 31541, Note_on_c, 0, 77, 72
2, 31544, Note_on_c, 0, 53, 67
2, 31641, Note_on_c, 0, 84, 0
2, 31649, Note_on_c, 0, 72, 0
2, 31649, Note_on_c, 0, 77, 0
2, 31649, Note_on_c, 0, 80, 0
2, 31652, Note_on_c, 0, 84, 101
2, 31653, Note_on_c, 0, 72, 84
2, 31656, Note_on_c, 0, 48, 0
2, 31658, Note_on_c, 0, 77, 74
2, 31659, Note_on_c, 0, 80, 76
2, 31668, Note_on_c, 0, 48, 54
2, 31772, Note_on_c, 0, 53, 0
2, 31772, Note_on_c, 0, 84, 0
2, 31776, Note_on_c, 0, 53, 62
2, 31779, Note_on_c, 0, 72, 0
2, 31779, Note_on_c, 0, 77, 0
2, 31779, Note_on_c, 0, 80, 0
2, 31782, Control_c, 0, 64, 0
2, 31783, Note_on_c, 0, 84, 96
2, 31783, Note_on_c, 0, 48, 0
2, 31785, Note_on_c, 0, 77, 75
2, 31785, Note_on_c, 0, 72, 86
2, 31787, Note_on_c, 0, 41, 0
2, 31790, Note_on_c, 0, 80, 75
2, 31790, Note_on_c, 0, 44, 0
2, 31790, Note_on_c, 0, 56, 74
2, 31856, Control_c, 0, 64, 127
2, 31866, Note_on_c, 0, 60, 72
2, 31887, Note_on_c, 0, 72, 0
2, 31887, Note_on_c, 0, 84, 0
2, 31896, Note_on_c, 0, 72, 100
2, 31897, Note_on_c, 0, 84, 88
2, 31910, Note_on_c, 0, 80, 0
2, 31915, Note_on_c, 0, 80, 70
2, 31922, Note_on_c, 0, 65, 83
2, 32025, Note_on_c, 0, 80, 0
2, 32025, Note_on_c, 0, 84, 0
2, 32030, Note_on_c, 0, 89, 95
2, 32033, Note_on_c, 0, 72, 0
2, 32036, Note_on_c, 0, 80, 85
2, 32036, Note_on_c, 0, 84, 81
2, 32037, Note_on_c, 0, 72, 74
2, 32156, Note_on_c, 0, 80, 0
2, 32156, Note_on_c, 0, 89, 0
2, 32161, Note_on_c, 0, 89, 96
2, 32162, Note_on_c, 0, 80, 101
2, 32163, Note_on_c, 0, 65, 0
2, 32169, Note_on_c, 0, 65, 82
2, 32171, Note_on_c, 0, 60, 0
2, 32175, Note_on_c, 0, 68, 86
2, 32175, Note_on_c, 0, 60, 54
2, 32240, Note_on_c, 0, 72, 0
2, 32251, Note_on_c, 0, 72, 83
2, 32294, Note_on_c, 0, 89, 0
2, 32298, Note_on_c, 0, 101, 98
2, 32301, Note_on_c, 0, 89, 90
2, 32302, Note_on_c, 0, 77, 0
2, 32310, Note_on_c, 0, 77, 87
2, 32570, Note_on_c, 0, 77, 0
2, 32570, Note_on_c, 0, 80, 0
2, 32574, Note_on_c, 0, 92, 102
2, 32575, Note_on_c, 0, 80, 95
2, 32581, Note_on_c, 0, 77, 89
2, 32693, Note_on_c, 0, 72, 0
2, 32693, Note_on_c, 0, 80, 0
2, 32693, Note_on_c, 0, 92, 0
2, 32697, Note_on_c, 0, 80, 86
2, 32699, Note_on_c, 0, 92, 94
2, 32701, Note_on_c, 0, 72, 86
2, 32824, Note_on_c, 0, 65, 0
2, 32824, Note_on_c, 0, 68, 0
2, 32831, Note_on_c, 0, 68, 83
2, 32832, Note_on_c, 0, 80, 0
2, 32832, Note_on_c, 0, 92, 0
2, 32832, Note_on_c, 0, 65, 57
2, 32838, Note_on_c, 0, 92, 97
2, 32840, Note_on_c, 0, 80, 94
2, 32862, Note_on_c, 0, 60, 0
2, 32868, Note_on_c, 0, 60, 33
2, 32962, Note_on_c, 0, 65, 0
2, 32962, Note_on_c, 0, 80, 0
2, 32962, Note_on_c, 0, 92, 0
2, 32968, Note_on_c, 0, 92, 100
2, 32971, Note_on_c, 0, 65, 80
2, 32971, Note_on_c, 0, 80, 89
2, 33100, Note_on_c, 0, 60, 0
2, 33104, Note_on_c, 0, 60, 71
2, 33111, Note_on_c, 0, 90, 89
2, 33111, Note_on_c, 0, 78, 88
2, 33231, Note_on_c, 0, 53, 0
2, 33231, Note_on_c, 0, 77, 0
2, 33231, Note_on_c, 0, 89, 0
2, 33236, Note_on_c, 0, 89, 97
2, 33238, Note_on_c, 0, 77, 93
2, 33241, Note_on_c, 0, 53, 68
2, 33338, Note_on_c, 0, 60, 0
2, 33343, Note_on_c, 0, 60, 70
2, 33346, Note_on_c, 0, 56, 0
2, 33354, Note_on_c, 0, 77, 0
2, 33354, Note_on_c, 0, 89, 0
2, 33356, Note_on_c, 0, 56, 66
2, 33360, Note_on_c, 0, 89, 99
2, 33362, Note_on_c, 0, 77, 99
2, 33467, Note_on_c, 0, 68, 0
2, 33467, Note_on_c, 0, 72, 0
2, 33467, Note_on_c, 0, 80, 0
2, 33467, Note_on_c, 0, 92, 0
2, 33467, Note_on_c, 0, 53, 0
2, 33467, Note_on_c, 0, 56, 0
2, 33468, Note_on_c, 0, 65, 0
2, 33468, Note_on_c, 0, 60, 0
2, 33468, Note_on_c, 0, 89, 0
2, 33468, Note_on_c, 0, 101, 0
2, 33470, Control_c, 0, 64, 0
2, 33470, Note_on_c, 0, 77, 0
2, 33477, Note_on_c, 0, 84, 0
2, 33490, Note_on_c, 0, 46, 73
2, 33492, Note_on_c, 0, 78, 0
2, 33492, Note_on_c, 0, 90, 0
2, 33496, Note_on_c, 0, 90, 101
2, 33497, Note_on_c, 0, 78, 91
2, 33498, Note_on_c, 0, 82, 86
2, 33507, Note_on_c, 0, 85, 78
2, 33546, Control_c, 0, 64, 127
2, 33562, Note_on_c, 0, 53, 55
2, 33638, Note_on_c, 0, 46, 0
2, 33646, Note_on_c, 0, 58, 70
2, 33647, Note_on_c, 0, 46, 68
2, 33759, Note_on_c, 0, 89, 95
2, 33764, Note_on_c, 0, 77, 91
2, 33876, Note_on_c, 0, 58, 0
2, 33887, Note_on_c, 0, 58, 77
2, 33891, Note_on_c, 0, 77, 0
2, 33891, Note_on_c, 0, 82, 0
2, 33891, Note_on_c, 0, 85, 0
2, 33896, Note_on_c, 0, 85, 88
2, 33896, Note_on_c, 0, 73, 85
2, 33897, Note_on_c, 0, 82, 82
2, 33898, Note_on_c, 0, 61, 70
2, 33900, Note_on_c, 0, 77, 82
2, 33909, Control_c, 0, 64, 0
2, 33953, Control_c, 0, 64, 127
2, 33967, Note_on_c, 0, 65, 76
2, 34050, Note_on_c, 0, 70, 84
2, 34275, Note_on_c, 0, 70, 0
2, 34275, Note_on_c, 0, 82, 0
2, 34281, Note_on_c, 0, 70, 69
2, 34282, Note_on_c, 0, 82, 68
2, 34283, Note_on_c, 0, 73, 0
2, 34292, Note_on_c, 0, 73, 76
2, 34314, Note_on_c, 0, 77, 0
2, 34318, Note_on_c, 0, 77, 81
2, 34421, Note_on_c, 0, 82, 0
2, 34421, Note_on_c, 0, 85, 0
2, 34423, Note_on_c, 0, 97, 102
2, 34427, Note_on_c, 0, 82, 83
2, 34427, Note_on_c, 0, 85, 92
2, 34428, Note_on_c, 0, 94, 69
2, 34690, Note_on_c, 0, 61, 0
2, 34690, Note_on_c, 0, 82, 0
2, 34690, Note_on_c, 0, 94, 0
2, 34695, Note_on_c, 0, 82, 85
2, 34697, Note_on_c, 0, 94, 67
2, 34700, Note_on_c, 0, 61, 47
2, 34821, Note_on_c, 0, 77, 0
2, 34828, Note_on_c, 0, 77, 75
2, 34944, Note_on_c, 0, 46, 0
2, 34944, Note_on_c, 0, 73, 0
2, 34950, Note_on_c, 0, 73, 81
2, 34953, Note_on_c, 0, 46, 51
2, 35082, Note_on_c, 0, 70, 0
2, 35082, Note_on_c, 0, 77, 0
2, 35083, Note_on_c, 0, 84, 100
2, 35086, Note_on_c, 0, 77, 62
2, 35087, Note_on_c, 0, 72, 92
2, 35091, Note_on_c, 0, 70, 85
2, 35094, Control_c, 0, 64, 0
2, 35120, Control_c, 0, 64, 127
2, 35212, Note_on_c, 0, 65, 0
2, 35218, Note_on_c, 0, 65, 74
2, 35335, Note_on_c, 0, 58, 0
2, 35347, Note_on_c, 0, 58, 82
2, 35351, Note_on_c, 0, 73, 0
2, 35351, Note_on_c, 0, 85, 0
2, 35351, Note_on_c, 0, 94, 0
2, 35355, Note_on_c, 0, 85, 95
2, 35360, Note_on_c, 0, 73, 85
2, 35361, Control_c, 0, 64, 0
2, 35374, Control_c, 0, 64, 127
2, 35473, Note_on_c, 0, 65, 0
2, 35479, Note_on_c, 0, 65, 78
2, 35596, Note_on_c, 0, 90, 0
2, 35619, Note_on_c, 0, 53, 0
2, 35619, Note_on_c, 0, 85, 0
2, 35619, Note_on_c, 0, 97, 0
2, 35627, Note_on_c, 0, 72, 0
2, 35629, Note_on_c, 0, 85, 92
2, 35632, Control_c, 0, 64, 0
2, 35635, Note_on_c, 0, 73, 0
2, 35635, Note_on_c, 0, 78, 0
2, 35635, Note_on_c, 0, 82, 0
2, 35635, Note_on_c, 0, 65, 0
2, 35639, Note_on_c, 0, 82, 80
2, 35639, Note_on_c, 0, 78, 78
2, 35640, Note_on_c, 0, 73, 78
2, 35644, Note_on_c, 0, 42, 67
2, 35650, Note_on_c, 0, 46, 0
2, 35650, Note_on_c, 0, 61, 0
2, 35650, Note_on_c, 0, 89, 0
2, 35658, Note_on_c, 0, 58, 0
2, 35688, Note_on_c, 0, 70, 0
2, 35712, Note_on_c, 0, 84, 0
2, 35735, Control_c, 0, 64, 127
2, 35770, Note_on_c, 0, 49, 62
2, 35882, Note_on_c, 0, 54, 66
2, 36011, Note_on_c, 0, 49, 0
2, 36016, Note_on_c, 0, 49, 70
2, 36141, Note_on_c, 0, 58, 84
2, 36188, Note_on_c, 0, 77, 0
2, 36280, Note_on_c, 0, 49, 0
2, 36285, Note_on_c, 0, 49, 65
2, 36418, Note_on_c, 0, 54, 0
2, 36420, Note_on_c, 0, 89, 102
2, 36423, Note_on_c, 0, 54, 63
2, 36424, Note_on_c, 0, 77, 94
2, 36549, Note_on_c, 0, 49, 0
2, 36558, Note_on_c, 0, 49, 69
2, 36636, Note_on_c, 0, 42, 0
2, 36636, Note_on_c, 0, 54, 0
2, 36637, Note_on_c, 0, 78, 0
2, 36637, Note_on_c, 0, 58, 0
2, 36637, Note_on_c, 0, 82, 0
2, 36637, Note_on_c, 0, 73, 0
2, 36637, Note_on_c, 0, 49, 0
2, 36638, Control_c, 0, 64, 0
2, 36638, Note_on_c, 0, 77, 0
2, 36638, Note_on_c, 0, 89, 0
2, 36656, Note_on_c, 0, 85, 0
2, 36687, Note_on_c, 0, 90, 104
2, 36692, Note_on_c, 0, 78, 94
2, 36695, Note_on_c, 0, 82, 91
2, 36698, Note_on_c, 0, 39, 66
2, 36698, Note_on_c, 0, 85, 90
2, 36733, Control_c, 0, 64, 127
2, 36828, Note_on_c, 0, 46, 63
2, 36956, Note_on_c, 0, 39, 0
2, 36956, Note_on_c, 0, 85, 0
2, 36956, Control_c, 0, 64, 0
2, 36962, Note_on_c, 0, 85, 88
2, 36963, Note_on_c, 0, 78, 0
2, 36963, Note_on_c, 0, 82, 0
2, 36964, Note_on_c, 0, 39, 65
2, 36968, Note_on_c, 0, 82, 82
2, 36968, Note_on_c, 0, 73, 80
2, 36969, Note_on_c, 0, 51, 66
2, 36969, Note_on_c, 0, 78, 77
2, 36986, Control_c, 0, 64, 127
2, 37079, Note_on_c, 0, 46, 0
2, 37088, Note_on_c, 0, 46, 66
2, 37224, Note_on_c, 0, 73, 0
2, 37224, Note_on_c, 0, 78, 0
2, 37224, Note_on_c, 0, 82, 0
2, 37224, Note_on_c, 0, 85, 0
2, 37229, Note_on_c, 0, 73, 85
2, 37229, Note_on_c, 0, 85, 92
2, 37230, Note_on_c, 0, 54, 75
2, 37230, Note_on_c, 0, 78, 89
2, 37235, Note_on_c, 0, 82, 85
2, 37235, Control_c, 0, 64, 0
2, 37263, Control_c, 0, 64, 127
2, 37355, Note_on_c, 0, 46, 0
2, 37359, Note_on_c, 0, 46, 65
2, 37486, Note_on_c, 0, 51, 0
2, 37486, Note_on_c, 0, 82, 0
2, 37489, Note_on_c, 0, 89, 101
2, 37493, Note_on_c, 0, 85, 0
2, 37495, Note_on_c, 0, 82, 90
2, 37496, Note_on_c, 0, 77, 90
2, 37497, Note_on_c, 0, 51, 72
2, 37503, Note_on_c, 0, 85, 80
2, 37601, Note_on_c, 0, 46, 0
2, 37605, Note_on_c, 0, 46, 68
2, 37655, Note_on_c, 0, 39, 0
2, 37708, Note_on_c, 0, 73, 0
2, 37711, Control_c, 0, 64, 0
2, 37711, Note_on_c, 0, 46, 0
2, 37712, Note_on_c, 0, 54, 0
2, 37712, Note_on_c, 0, 90, 0
2, 37712, Note_on_c, 0, 89, 0
2, 37712, Note_on_c, 0, 85, 0
2, 37712, Note_on_c, 0, 78, 0
2, 37712, Note_on_c, 0, 77, 0
2, 37724, Note_on_c, 0, 51, 0
2, 37731, Note_on_c, 0, 82, 0
2, 37749, Note_on_c, 0, 87, 98
2, 37751, Note_on_c, 0, 75, 93
2, 37752, Note_on_c, 0, 80, 96
2, 37753, Note_on_c, 0, 44, 80
2, 37753, Note_on_c, 0, 84, 87
2, 37824, Control_c, 0, 64, 127
2, 37897, Note_on_c, 0, 51, 77
2, 38023, Note_on_c, 0, 75, 0
2, 38026, Note_on_c, 0, 56, 82
2, 38027, Note_on_c, 0, 75, 79
2, 38031, Note_on_c, 0, 68, 69
2, 38146, Note_on_c, 0, 51, 0
2, 38150, Note_on_c, 0, 51, 79
2, 38150, Note_on_c, 0, 73, 82
2, 38283, Note_on_c, 0, 72, 95
2, 38286, Note_on_c, 0, 60, 81
2, 38298, Control_c, 0, 64, 0
2, 38307, Control_c, 0, 64, 127
2, 38411, Note_on_c, 0, 70, 93
2, 38423, Note_on_c, 0, 51, 0
2, 38427, Note_on_c, 0, 51, 78
2, 38530, Note_on_c, 0, 56, 0
2, 38530, Note_on_c, 0, 68, 0
2, 38535, Note_on_c, 0, 68, 89
2, 38537, Note_on_c, 0, 56, 80
2, 38661, Note_on_c, 0, 51, 0
2, 38665, Note_on_c, 0, 66, 92
2, 38665, Note_on_c, 0, 51, 73
2, 38809, Note_on_c, 0, 64, 101
2, 38810, Note_on_c, 0, 45, 84
2, 38810, Note_on_c, 0, 52, 88
2, 38811, Control_c, 0, 64, 0
2, 38811, Note_on_c, 0, 87, 0
2, 38812, Note_on_c, 0, 84, 0
2, 38812, Note_on_c, 0, 75, 0
2, 38812, Note_on_c, 0, 56, 0
2, 38812, Note_on_c, 0, 80, 0
2, 38812, Note_on_c, 0, 66, 0
2, 38812, Note_on_c, 0, 51, 0
2, 38812, Note_on_c, 0, 72, 0
2, 38812, Note_on_c, 0, 73, 0
2, 38813, Note_on_c, 0, 70, 0
2, 38813, Note_on_c, 0, 44, 0
2, 38814, Note_on_c, 0, 60, 0
2, 38830, Note_on_c, 0, 68, 0
2, 38876, Control_c, 0, 64, 127
2, 38935, Note_on_c, 0, 63, 91
2, 38940, Note_on_c, 0, 51, 77
2, 39064, Note_on_c, 0, 61, 88
2, 39065, Note_on_c, 0, 49, 93
2, 39070, Control_c, 0, 64, 0
2, 39072, Note_on_c, 0, 45, 0
2, 39074, Note_on_c, 0, 52, 0
2, 39075, Note_on_c, 0, 64, 0
2, 39083, Control_c, 0, 64, 127
2, 39194, Note_on_c, 0, 59, 94
2, 39196, Note_on_c, 0, 47, 88
2, 39278, Note_on_c, 0, 49, 0
2, 39278, Note_on_c, 0, 51, 0
2, 39279, Control_c, 0, 64, 0
2, 39280, Note_on_c, 0, 63, 0
2, 39280, Note_on_c, 0, 59, 0
2, 39306, Note_on_c, 0, 61, 0
2, 39321, Note_on_c, 0, 47, 0
2, 39332, Note_on_c, 0, 76, 110
2, 39332, Note_on_c, 0, 47, 88
2, 39332, Note_on_c, 0, 64, 106
2, 39367, Control_c, 0, 64, 127
2, 39592, Control_c, 0, 64, 0
2, 39594, Note_on_c, 0, 64, 0
2, 39597, Note_on_c, 0, 76, 0
2, 39597, Note_on_c, 0, 47, 0
2, 39606, Note_on_c, 0, 78, 112
2, 39608, Note_on_c, 0, 30, 75
2, 39609, Note_on_c, 0, 66, 105
2, 39613, Note_on_c, 0, 30, 0
2, 39651, Control_c, 0, 64, 127
2, 39847, Control_c, 0, 64, 0
2, 39859, Note_on_c, 0, 66, 0
2, 39870, Note_on_c, 0, 80, 110
2, 39872, Note_on_c, 0, 68, 104
2, 39880, Note_on_c, 0, 76, 79
2, 39881, Note_on_c, 0, 71, 86
2, 39881, Note_on_c, 0, 28, 79
2, 39881, Note_on_c, 0, 40, 75
2, 39920, Control_c, 0, 64, 127
2, 40020, Note_on_c, 0, 28, 0
2, 40028, Note_on_c, 0, 28, 69
2, 40112, Note_on_c, 0, 78, 0
2, 40127, Note_on_c, 0, 56, 79
2, 40143, Note_on_c, 0, 68, 0
2, 40143, Note_on_c, 0, 71, 0
2, 40151, Control_c, 0, 64, 0
2, 40152, Note_on_c, 0, 59, 81
2, 40153, Note_on_c, 0, 71, 101
2, 40153, Note_on_c, 0, 68, 87
2, 40174, Control_c, 0, 64, 127
2, 40212, Note_on_c, 0, 28, 0
2, 40276, Note_on_c, 0, 28, 61
2, 40396, Note_on_c, 0, 56, 0
2, 40401, Note_on_c, 0, 81, 108
2, 40404, Note_on_c, 0, 76, 0
2, 40406, Note_on_c, 0, 69, 98
2, 40406, Note_on_c, 0, 56, 78
2, 40407, Note_on_c, 0, 64, 94
2, 40411, Note_on_c, 0, 76, 72
2, 40419, Note_on_c, 0, 28, 0
2, 40423, Control_c, 0, 64, 0
2, 40423, Note_on_c, 0, 71, 0
2, 40424, Note_on_c, 0, 80, 0
2, 40424, Note_on_c, 0, 59, 0
2, 40442, Control_c, 0, 64, 127
2, 40527, Note_on_c, 0, 40, 0
2, 40527, Note_on_c, 0, 56, 0
2, 40537, Note_on_c, 0, 40, 67
2, 40538, Note_on_c, 0, 56, 73
2, 40543, Note_on_c, 0, 52, 81
2, 40673, Note_on_c, 0, 56, 0
2, 40673, Note_on_c, 0, 68, 0
2, 40675, Note_on_c, 0, 80, 107
2, 40678, Control_c, 0, 64, 0
2, 40679, Note_on_c, 0, 68, 101
2, 40680, Note_on_c, 0, 81, 0
2, 40680, Note_on_c, 0, 52, 0
2, 40681, Note_on_c, 0, 69, 0
2, 40682, Note_on_c, 0, 56, 77
2, 40701, Note_on_c, 0, 47, 44
2, 40704, Note_on_c, 0, 76, 0
2, 40704, Control_c, 0, 64, 127
2, 40711, Note_on_c, 0, 64, 0
2, 40798, Note_on_c, 0, 52, 77
2, 40905, Note_on_c, 0, 68, 0
2, 40906, Note_on_c, 0, 56, 0
2, 40907, Note_on_c, 0, 52, 0
2, 40907, Control_c, 0, 64, 0
2, 40926, Note_on_c, 0, 80, 0
2, 40934, Note_on_c, 0, 40, 0
2, 40934, Note_on_c, 0, 78, 112
2, 40938, Note_on_c, 0, 66, 98
2, 40943, Note_on_c, 0, 39, 79
2, 40943, Note_on_c, 0, 75, 87
2, 40980, Control_c, 0, 64, 127
2, 41088, Note_on_c, 0, 39, 0
2, 41095, Note_on_c, 0, 39, 57
2, 41095, Note_on_c, 0, 27, 53
2, 41097, Note_on_c, 0, 51, 66
2, 41103, Note_on_c, 0, 27, 0
2, 41235, Note_on_c, 0, 59, 76
2, 41245, Note_on_c, 0, 57, 63
2, 41246, Note_on_c, 0, 54, 63
2, 41356, Note_on_c, 0, 51, 0
2, 41366, Note_on_c, 0, 51, 66
2, 41433, Note_on_c, 0, 54, 0
2, 41444, Note_on_c, 0, 54, 64
2, 41491, Control_c, 0, 64, 0
2, 41495, Note_on_c, 0, 54, 0
2, 41495, Note_on_c, 0, 57, 0
2, 41495, Note_on_c, 0, 59, 0
2, 41498, Note_on_c, 0, 63, 89
2, 41499, Note_on_c, 0, 76, 106
2, 41499, Note_on_c, 0, 88, 97
2, 41504, Note_on_c, 0, 57, 79
2, 41505, Note_on_c, 0, 54, 84
2, 41506, Note_on_c, 0, 59, 83
2, 41510, Note_on_c, 0, 88, 0
2, 41525, Control_c, 0, 64, 127
2, 41579, Note_on_c, 0, 78, 0
2, 41625, Note_on_c, 0, 51, 0
2, 41636, Note_on_c, 0, 51, 79
2, 41763, Note_on_c, 0, 75, 0
2, 41771, Note_on_c, 0, 54, 0
2, 41771, Note_on_c, 0, 59, 0
2, 41771, Note_on_c, 0, 63, 0
2, 41772, Note_on_c, 0, 75, 100
2, 41779, Note_on_c, 0, 63, 91
2, 41782, Note_on_c, 0, 54, 75
2, 41782, Note_on_c, 0, 59, 72
2, 41879, Note_on_c, 0, 51, 0
2, 41889, Note_on_c, 0, 51, 82
2, 42005, Note_on_c, 0, 54, 0
2, 42005, Note_on_c, 0, 51, 0
2, 42006, Control_c, 0, 64, 0
2, 42006, Note_on_c, 0, 75, 0
2, 42006, Note_on_c, 0, 63, 0
2, 42006, Note_on_c, 0, 57, 0
2, 42012, Note_on_c, 0, 59, 0
2, 42017, Note_on_c, 0, 47, 0
2, 42017, Note_on_c, 0, 66, 0
2, 42024, Note_on_c, 0, 39, 0
2, 42024, Note_on_c, 0, 76, 0
2, 42029, Note_on_c, 0, 76, 109
2, 42035, Note_on_c, 0, 64, 96
2, 42036, Note_on_c, 0, 73, 91
2, 42040, Note_on_c, 0, 49, 83
2, 42042, Note_on_c, 0, 68, 88
2, 42094, Control_c, 0, 64, 127
2, 42101, Note_on_c, 0, 49, 0
2, 42179, Note_on_c, 0, 49, 72
2, 42301, Note_on_c, 0, 68, 0
2, 42311, Note_on_c, 0, 68, 104
2, 42315, Note_on_c, 0, 56, 86
2, 42317, Note_on_c, 0, 52, 76
2, 42374, Note_on_c, 0, 76, 0
2, 42376, Note_on_c, 0, 64, 0
2, 42416, Note_on_c, 0, 73, 0
2, 42439, Note_on_c, 0, 49, 0
2, 42449, Note_on_c, 0, 49, 84
2, 42470, Note_on_c, 0, 56, 0
2, 42577, Note_on_c, 0, 52, 0
2, 42584, Note_on_c, 0, 78, 107
2, 42587, Note_on_c, 0, 66, 99
2, 42588, Note_on_c, 0, 52, 71
2, 42592, Control_c, 0, 64, 0
2, 42596, Note_on_c, 0, 61, 75
2, 42599, Note_on_c, 0, 56, 73
2, 42600, Note_on_c, 0, 61, 0
2, 42608, Control_c, 0, 64, 127
2, 42716, Note_on_c, 0, 49, 0
2, 42722, Note_on_c, 0, 49, 77
2, 42854, Note_on_c, 0, 52, 0
2, 42857, Note_on_c, 0, 76, 101
2, 42860, Note_on_c, 0, 52, 76
2, 42862, Note_on_c, 0, 56, 0
2, 42862, Note_on_c, 0, 64, 93
2, 42867, Note_on_c, 0, 56, 74
2, 42872, Note_on_c, 0, 44, 66
2, 42961, Note_on_c, 0, 49, 0
2, 42961, Note_on_c, 0, 56, 0
2, 42967, Note_on_c, 0, 49, 54
2, 42972, Note_on_c, 0, 56, 58
2, 43097, Control_c, 0, 64, 0
2, 43097, Note_on_c, 0, 56, 0
2, 43098, Note_on_c, 0, 49, 0
2, 43098, Note_on_c, 0, 52, 0
2, 43099, Note_on_c, 0, 76, 0
2, 43099, Note_on_c, 0, 78, 0
2, 43099, Note_on_c, 0, 64, 0
2, 43099, Note_on_c, 0, 44, 0
2, 43107, Note_on_c, 0, 66, 0
2, 43107, Note_on_c, 0, 68, 0
2, 43112, Note_on_c, 0, 75, 106
2, 43118, Note_on_c, 0, 63, 95
2, 43119, Note_on_c, 0, 71, 85
2, 43119, Note_on_c, 0, 66, 92
2, 43120, Note_on_c, 0, 47, 89
2, 43161, Control_c, 0, 64, 127
2, 43269, Note_on_c, 0, 47, 0
2, 43280, Note_on_c, 0, 47, 65
2, 43404, Note_on_c, 0, 51, 77
2, 43405, Note_on_c, 0, 54, 71
2, 43530, Note_on_c, 0, 47, 0
2, 43535, Note_on_c, 0, 47, 75
2, 43653, Note_on_c, 0, 54, 0
2, 43653, Note_on_c, 0, 66, 0
2, 43653, Control_c, 0, 64, 0
2, 43656, Note_on_c, 0, 63, 0
2, 43657, Note_on_c, 0, 78, 109
2, 43660, Note_on_c, 0, 51, 0
2, 43660, Note_on_c, 0, 71, 0
2, 43663, Note_on_c, 0, 59, 83
2, 43664, Note_on_c, 0, 66, 100
2, 43664, Note_on_c, 0, 54, 84
2, 43666, Note_on_c, 0, 71, 79
2, 43668, Note_on_c, 0, 51, 68
2, 43691, Control_c, 0, 64, 127
2, 43791, Note_on_c, 0, 47, 0
2, 43799, Note_on_c, 0, 47, 81
2, 43926, Note_on_c, 0, 80, 109
2, 43929, Note_on_c, 0, 51, 0
2, 43929, Note_on_c, 0, 54, 0
2, 43931, Note_on_c, 0, 68, 101
2, 43933, Note_on_c, 0, 51, 69
2, 43936, Note_on_c, 0, 54, 68
2, 44037, Note_on_c, 0, 47, 0
2, 44047, Note_on_c, 0, 47, 71
2, 44117, Note_on_c, 0, 35, 57
2, 44167, Note_on_c, 0, 59, 0
2, 44169, Note_on_c, 0, 66, 0
2, 44169, Note_on_c, 0, 80, 0
2, 44169, Note_on_c, 0, 51, 0
2, 44169, Note_on_c, 0, 71, 0
2, 44169, Note_on_c, 0, 68, 0
2, 44169, Note_on_c, 0, 78, 0
2, 44170, Note_on_c, 0, 54, 0
2, 44171, Control_c, 0, 64, 0
2, 44175, Note_on_c, 0, 75, 0
2, 44190, Note_on_c, 0, 81, 107
2, 44190, Note_on_c, 0, 35, 0
2, 44190, Note_on_c, 0, 47, 0
2, 44193, Note_on_c, 0, 69, 97
2, 44195, Note_on_c, 0, 76, 95
2, 44195, Note_on_c, 0, 33, 73
2, 44196, Note_on_c, 0, 73, 95
2, 44200, Note_on_c, 0, 45, 81
2, 44234, Note_on_c, 0, 33, 0
2, 44236, Control_c, 0, 64, 127
2, 44336, Note_on_c, 0, 45, 0
2, 44340, Note_on_c, 0, 45, 65
2, 44451, Note_on_c, 0, 73, 0
2, 44457, Note_on_c, 0, 73, 105
2, 44459, Note_on_c, 0, 69, 0
2, 44462, Note_on_c, 0, 61, 94
2, 44470, Note_on_c, 0, 69, 68
2, 44476, Note_on_c, 0, 57, 75
2, 44479, Note_on_c, 0, 52, 75
2, 44582, Note_on_c, 0, 45, 0
2, 44582, Note_on_c, 0, 76, 0
2, 44592, Note_on_c, 0, 45, 76
2, 44593, Note_on_c, 0, 76, 67
2, 44599, Note_on_c, 0, 33, 73
2, 44724, Note_on_c, 0, 73, 0
2, 44724, Note_on_c, 0, 69, 0
2, 44725, Note_on_c, 0, 81, 0
2, 44728, Note_on_c, 0, 61, 0
2, 44730, Control_c, 0, 64, 0
2, 44736, Note_on_c, 0, 52, 0
2, 44737, Note_on_c, 0, 61, 75
2, 44737, Note_on_c, 0, 83, 105
2, 44742, Note_on_c, 0, 71, 93
2, 44743, Note_on_c, 0, 57, 0
2, 44743, Note_on_c, 0, 76, 0
2, 44746, Note_on_c, 0, 52, 66
2, 44774, Control_c, 0, 64, 127
2, 44864, Note_on_c, 0, 57, 63
2, 44874, Note_on_c, 0, 45, 0
2, 44885, Note_on_c, 0, 45, 70
2, 45004, Note_on_c, 0, 57, 0
2, 45006, Note_on_c, 0, 81, 104
2, 45012, Note_on_c, 0, 52, 0
2, 45013, Note_on_c, 0, 69, 92
2, 45014, Note_on_c, 0, 57, 78
2, 45018, Note_on_c, 0, 52, 70
2, 45127, Note_on_c, 0, 45, 0
2, 45136, Note_on_c, 0, 45, 74
2, 45258, Note_on_c, 0, 83, 0
2, 45261, Note_on_c, 0, 81, 0
2, 45261, Note_on_c, 0, 61, 0
2, 45261, Note_on_c, 0, 69, 0
2, 45262, Control_c, 0, 64, 0
2, 45265, Note_on_c, 0, 33, 0
2, 45269, Note_on_c, 0, 80, 109
2, 45273, Note_on_c, 0, 45, 0
2, 45273, Note_on_c, 0, 57, 0
2, 45273, Note_on_c, 0, 71, 0
2, 45278, Note_on_c, 0, 44, 78
2, 45279, Note_on_c, 0, 68, 94
2, 45280, Note_on_c, 0, 71, 87
2, 45281, Note_on_c, 0, 52, 0
2, 45283, Note_on_c, 0, 32, 72
2, 45283, Note_on_c, 0, 76, 76
2, 45335, Control_c, 0, 64, 127
2, 45388, Note_on_c, 0, 32, 0
2, 45411, Note_on_c, 0, 44, 0
2, 45422, Note_on_c, 0, 44, 66
2, 45538, Note_on_c, 0, 56, 77
2, 45545, Note_on_c, 0, 52, 69
2, 45665, Note_on_c, 0, 44, 0
2, 45676, Note_on_c, 0, 44, 72
2, 45676, Note_on_c, 0, 56, 0
2, 45677, Note_on_c, 0, 32, 66
2, 45684, Note_on_c, 0, 38, 55
2, 45696, Note_on_c, 0, 38, 0
2, 45788, Note_on_c, 0, 32, 0
2, 45795, Note_on_c, 0, 52, 0
2, 45796, Note_on_c, 0, 68, 0
2, 45796, Note_on_c, 0, 44, 0
2, 45796, Note_on_c, 0, 80, 0
2, 45797, Note_on_c, 0, 71, 0
2, 45798, Note_on_c, 0, 76, 0
2, 45800, Control_c, 0, 64, 0
2, 45800, Note_on_c, 0, 59, 82
2, 45801, Note_on_c, 0, 78, 106
2, 45805, Note_on_c, 0, 52, 79
2, 45807, Note_on_c, 0, 66, 97
2, 45857, Control_c, 0, 64, 127
2, 45950, Note_on_c, 0, 44, 74
2, 46080, Note_on_c, 0, 59, 0
2, 46083, Note_on_c, 0, 80, 106
2, 46087, Note_on_c, 0, 52, 0
2, 46088, Note_on_c, 0, 78, 0
2, 46088, Note_on_c, 0, 68, 93
2, 46089, Note_on_c, 0, 56, 84
2, 46092, Note_on_c, 0, 52, 72
2, 46095, Note_on_c, 0, 66, 0
2, 46103, Note_on_c, 0, 44, 0
2, 46106, Note_on_c, 0, 44, 68
2, 46202, Note_on_c, 0, 44, 0
2, 46207, Note_on_c, 0, 44, 75
2, 46321, Note_on_c, 0, 68, 0
2, 46321, Note_on_c, 0, 80, 0
2, 46321, Note_on_c, 0, 56, 0
2, 46321, Note_on_c, 0, 52, 0
2, 46322, Note_on_c, 0, 44, 0
2, 46323, Control_c, 0, 64, 0
2, 46344, Note_on_c, 0, 81, 105
2, 46347, Note_on_c, 0, 76, 96
2, 46350, Note_on_c, 0, 69, 88
2, 46352, Note_on_c, 0, 30, 80
2, 46353, Note_on_c, 0, 73, 89
2, 46394, Control_c, 0, 64, 127
2, 46497, Note_on_c, 0, 42, 74
2, 46617, Note_on_c, 0, 42, 0
2, 46623, Control_c, 0, 64, 0
2, 46624, Note_on_c, 0, 80, 108
2, 46627, Note_on_c, 0, 42, 77
2, 46630, Note_on_c, 0, 68, 95
2, 46648, Control_c, 0, 64, 127
2, 46763, Note_on_c, 0, 42, 0
2, 46767, Note_on_c, 0, 42, 65
2, 46771, Note_on_c, 0, 30, 0
2, 46775, Note_on_c, 0, 30, 61
2, 46882, Note_on_c, 0, 57, 83
2, 46890, Note_on_c, 0, 78, 103
2, 46891, Note_on_c, 0, 49, 76
2, 46896, Note_on_c, 0, 66, 99
2, 46898, Note_on_c, 0, 42, 0
2, 46899, Note_on_c, 0, 80, 0
2, 46902, Note_on_c, 0, 68, 0
2, 46903, Control_c, 0, 64, 0
2, 46909, Note_on_c, 0, 76, 0
2, 46917, Note_on_c, 0, 69, 0
2, 46917, Note_on_c, 0, 81, 0
2, 46924, Note_on_c, 0, 73, 0
2, 46924, Control_c, 0, 64, 127
2, 46940, Note_on_c, 0, 30, 0
2, 46940, Note_on_c, 0, 57, 0
2, 47037, Note_on_c, 0, 42, 71
2, 47157, Note_on_c, 0, 76, 102
2, 47162, Note_on_c, 0, 64, 91
2, 47262, Note_on_c, 0, 49, 0
2, 47268, Note_on_c, 0, 49, 77
2, 47301, Note_on_c, 0, 42, 0
2, 47305, Note_on_c, 0, 42, 56
2, 47384, Note_on_c, 0, 49, 0
2, 47384, Note_on_c, 0, 64, 0
2, 47385, Note_on_c, 0, 42, 0
2, 47387, Note_on_c, 0, 76, 0
2, 47388, Control_c, 0, 64, 0
2, 47400, Note_on_c, 0, 78, 0
2, 47408, Note_on_c, 0, 66, 0
2, 47412, Note_on_c, 0, 78, 110
2, 47413, Note_on_c, 0, 66, 98
2, 47414, Note_on_c, 0, 75, 82
2, 47418, Note_on_c, 0, 47, 83
2, 47419, Note_on_c, 0, 71, 85
2, 47454, Control_c, 0, 64, 127
2, 47554, Note_on_c, 0, 47, 0
2, 47564, Note_on_c, 0, 47, 65
2, 47685, Note_on_c, 0, 47, 0
2, 47686, Note_on_c, 0, 54, 74
2, 47690, Control_c, 0, 64, 0
2, 47694, Note_on_c, 0, 47, 57
2, 47695, Note_on_c, 0, 51, 73
2, 47715, Control_c, 0, 64, 127
2, 47808, Note_on_c, 0, 71, 0
2, 47815, Note_on_c, 0, 47, 0
2, 47818, Note_on_c, 0, 71, 78
2, 47819, Note_on_c, 0, 59, 90
2, 47820, Note_on_c, 0, 47, 70
2, 47943, Note_on_c, 0, 78, 0
2, 47943, Note_on_c, 0, 59, 0
2, 47943, Note_on_c, 0, 71, 0
2, 47943, Note_on_c, 0, 75, 0
2, 47943, Note_on_c, 0, 66, 0
2, 47944, Note_on_c, 0, 51, 0
2, 47946, Control_c, 0, 64, 0
2, 47949, Note_on_c, 0, 63, 80
2, 47950, Note_on_c, 0, 88, 104
2, 47950, Note_on_c, 0, 76, 103
2, 47976, Control_c, 0, 64, 127
2, 48084, Note_on_c, 0, 47, 0
2, 48086, Note_on_c, 0, 59, 79
2, 48089, Note_on_c, 0, 47, 69
2, 48204, Control_c, 0, 64, 0
2, 48204, Note_on_c, 0, 90, 108
2, 48207, Note_on_c, 0, 54, 0
2, 48208, Note_on_c, 0, 78, 98
2, 48209, Note_on_c, 0, 76, 0
2, 48211, Note_on_c, 0, 51, 64
2, 48216, Note_on_c, 0, 54, 68
2, 48222, Control_c, 0, 64, 127
2, 48245, Note_on_c, 0, 63, 0
2, 48322, Note_on_c, 0, 47, 0
2, 48332, Note_on_c, 0, 47, 69
2, 48448, Note_on_c, 0, 51, 0
2, 48448, Note_on_c, 0, 90, 0
2, 48449, Control_c, 0, 64, 0
2, 48449, Note_on_c, 0, 54, 0
2, 48449, Note_on_c, 0, 78, 0
2, 48453, Note_on_c, 0, 59, 0
2, 48465, Note_on_c, 0, 92, 108
2, 48466, Note_on_c, 0, 80, 108
2, 48468, Note_on_c, 0, 88, 0
2, 48471, Note_on_c, 0, 52, 91
2, 48473, Note_on_c, 0, 88, 88
2, 48478, Note_on_c, 0, 40, 75
2, 48506, Control_c, 0, 64, 127
2, 48609, Note_on_c, 0, 76, 81
2, 48725, Control_c, 0, 64, 0
2, 48729, Note_on_c, 0, 80, 0
2, 48734, Note_on_c, 0, 83, 88
2, 48737, Note_on_c, 0, 47, 0
2, 48737, Note_on_c, 0, 80, 93
2, 48737, Note_on_c, 0, 64, 85
2, 48741, Note_on_c, 0, 59, 71
2, 48752, Control_c, 0, 64, 127
2, 48860, Note_on_c, 0, 52, 0
2, 48860, Note_on_c, 0, 76, 0
2, 48864, Note_on_c, 0, 76, 88
2, 48866, Note_on_c, 0, 52, 66
2, 48995, Note_on_c, 0, 68, 92
2, 48998, Note_on_c, 0, 59, 0
2, 49002, Note_on_c, 0, 93, 103
2, 49002, Note_on_c, 0, 59, 73
2, 49002, Note_on_c, 0, 81, 98
2, 49128, Note_on_c, 0, 52, 0
2, 49128, Note_on_c, 0, 76, 0
2, 49134, Note_on_c, 0, 52, 70
2, 49137, Note_on_c, 0, 76, 89
2, 49251, Note_on_c, 0, 92, 0
2, 49259, Note_on_c, 0, 52, 0
2, 49259, Note_on_c, 0, 64, 0
2, 49259, Note_on_c, 0, 80, 0
2, 49263, Note_on_c, 0, 92, 107
2, 49263, Note_on_c, 0, 80, 102
2, 49266, Note_on_c, 0, 64, 83
2, 49269, Note_on_c, 0, 52, 79
2, 49382, Note_on_c, 0, 59, 0
2, 49390, Note_on_c, 0, 76, 0
2, 49391, Note_on_c, 0, 59, 70
2, 49394, Note_on_c, 0, 71, 75
2, 49395, Note_on_c, 0, 76, 87
2, 49443, Note_on_c, 0, 40, 0
2, 49488, Note_on_c, 0, 93, 0
2, 49489, Note_on_c, 0, 81, 0
2, 49490, Note_on_c, 0, 68, 0
2, 49490, Note_on_c, 0, 83, 0
2, 49491, Note_on_c, 0, 64, 0
2, 49491, Control_c, 0, 64, 0
2, 49491, Note_on_c, 0, 71, 0
2, 49491, Note_on_c, 0, 80, 0
2, 49492, Note_on_c, 0, 76, 0
2, 49497, Note_on_c, 0, 88, 0
2, 49505, Note_on_c, 0, 52, 0
2, 49512, Note_on_c, 0, 92, 0
2, 49520, Note_on_c, 0, 59, 0
2, 49522, Note_on_c, 0, 90, 105
2, 49524, Note_on_c, 0, 47, 79
2, 49524, Note_on_c, 0, 78, 94
2, 49529, Note_on_c, 0, 59, 84
2, 49529, Note_on_c, 0, 87, 87
2, 49559, Control_c, 0, 64, 127
2, 49658, Note_on_c, 0, 47, 0
2, 49661, Note_on_c, 0, 71, 91
2, 49666, Note_on_c, 0, 59, 0
2, 49668, Note_on_c, 0, 47, 56
2, 49671, Note_on_c, 0, 59, 71
2, 49789, Note_on_c, 0, 78, 0
2, 49789, Note_on_c, 0, 90, 0
2, 49799, Note_on_c, 0, 90, 104
2, 49799, Control_c, 0, 64, 0
2, 49799, Note_on_c, 0, 66, 80
2, 49799, Note_on_c, 0, 78, 101
2, 49800, Note_on_c, 0, 63, 60
2, 49801, Note_on_c, 0, 71, 0
2, 49801, Note_on_c, 0, 87, 0
2, 49802, Note_on_c, 0, 59, 0
2, 49803, Note_on_c, 0, 47, 0
2, 49820, Control_c, 0, 64, 127
2, 49921, Note_on_c, 0, 59, 69
2, 49922, Note_on_c, 0, 71, 93
2, 50025, Note_on_c, 0, 59, 0
2, 50025, Note_on_c, 0, 66, 0
2, 50025, Control_c, 0, 64, 0
2, 50025, Note_on_c, 0, 63, 0
2, 50027, Note_on_c, 0, 71, 0
2, 50042, Note_on_c, 0, 78, 0
2, 50042, Note_on_c, 0, 90, 0
2, 50056, Note_on_c, 0, 88, 100
2, 50060, Note_on_c, 0, 76, 98
2, 50061, Note_on_c, 0, 80, 96
2, 50061, Note_on_c, 0, 60, 81
2, 50062, Note_on_c, 0, 48, 78
2, 50096, Control_c, 0, 64, 127
2, 50188, Note_on_c, 0, 60, 0
2, 50194, Note_on_c, 0, 72, 84
2, 50198, Note_on_c, 0, 60, 72
2, 50315, Note_on_c, 0, 87, 96
2, 50316, Note_on_c, 0, 75, 102
2, 50318, Note_on_c, 0, 88, 0
2, 50319, Note_on_c, 0, 76, 0
2, 50319, Note_on_c, 0, 66, 80
2, 50321, Note_on_c, 0, 80, 0
2, 50323, Control_c, 0, 64, 0
2, 50323, Note_on_c, 0, 63, 67
2, 50323, Note_on_c, 0, 48, 0
2, 50342, Control_c, 0, 64, 127
2, 50434, Note_on_c, 0, 60, 0
2, 50434, Note_on_c, 0, 72, 0
2, 50444, Note_on_c, 0, 60, 65
2, 50445, Note_on_c, 0, 72, 86
2, 50546, Note_on_c, 0, 72, 0
2, 50546, Note_on_c, 0, 66, 0
2, 50547, Note_on_c, 0, 63, 0
2, 50547, Note_on_c, 0, 60, 0
2, 50547, Note_on_c, 0, 87, 0
2, 50547, Note_on_c, 0, 75, 0
2, 50548, Control_c, 0, 64, 0
2, 50583, Note_on_c, 0, 88, 101
2, 50584, Note_on_c, 0, 80, 97
2, 50584, Note_on_c, 0, 76, 101
2, 50589, Note_on_c, 0, 49, 82
2, 50618, Control_c, 0, 64, 127
2, 50722, Note_on_c, 0, 73, 86
2, 50729, Note_on_c, 0, 56, 63
2, 50841, Note_on_c, 0, 56, 0
2, 50843, Note_on_c, 0, 75, 101
2, 50844, Note_on_c, 0, 87, 98
2, 50845, Note_on_c, 0, 64, 74
2, 50845, Note_on_c, 0, 61, 75
2, 50850, Note_on_c, 0, 56, 68
2, 50887, Note_on_c, 0, 76, 0
2, 50964, Note_on_c, 0, 73, 0
2, 50974, Note_on_c, 0, 73, 85
2, 50995, Note_on_c, 0, 56, 0
2, 50999, Note_on_c, 0, 56, 63
2, 51001, Note_on_c, 0, 68, 61
2, 51095, Note_on_c, 0, 68, 0
2, 51102, Note_on_c, 0, 56, 0
2, 51102, Note_on_c, 0, 61, 0
2, 51102, Note_on_c, 0, 88, 0
2, 51103, Note_on_c, 0, 68, 87
2, 51106, Note_on_c, 0, 56, 75
2, 51107, Note_on_c, 0, 76, 102
2, 51107, Note_on_c, 0, 88, 103
2, 51108, Note_on_c, 0, 61, 75
2, 51111, Note_on_c, 0, 75, 0
2, 51112, Control_c, 0, 64, 0
2, 51112, Note_on_c, 0, 87, 0
2, 51112, Note_on_c, 0, 73, 0
2, 51113, Note_on_c, 0, 64, 0
2, 51125, Note_on_c, 0, 80, 0
2, 51141, Control_c, 0, 64, 127
2, 51243, Note_on_c, 0, 73, 93
2, 51256, Note_on_c, 0, 56, 0
2, 51264, Note_on_c, 0, 56, 62
2, 51360, Note_on_c, 0, 80, 108
2, 51363, Note_on_c, 0, 61, 0
2, 51365, Note_on_c, 0, 92, 107
2, 51373, Note_on_c, 0, 64, 78
2, 51374, Note_on_c, 0, 61, 75
2, 51381, Note_on_c, 0, 90, 81
2, 51494, Note_on_c, 0, 56, 0
2, 51504, Note_on_c, 0, 56, 68
2, 51603, Note_on_c, 0, 68, 0
2, 51603, Note_on_c, 0, 90, 0
2, 51603, Note_on_c, 0, 73, 0
2, 51604, Note_on_c, 0, 92, 0
2, 51604, Note_on_c, 0, 56, 0
2, 51604, Note_on_c, 0, 64, 0
2, 51604, Note_on_c, 0, 80, 0
2, 51605, Note_on_c, 0, 76, 0
2, 51605, Note_on_c, 0, 88, 0
2, 51606, Control_c, 0, 64, 0
2, 51609, Note_on_c, 0, 49, 0
2, 51617, Note_on_c, 0, 61, 0
2, 51636, Note_on_c, 0, 93, 111
2, 51637, Note_on_c, 0, 84, 101
2, 51639, Note_on_c, 0, 81, 103
2, 51642, Note_on_c, 0, 48, 87
2, 51643, Note_on_c, 0, 60, 90
2, 51678, Control_c, 0, 64, 127
2, 51777, Note_on_c, 0, 72, 87
2, 51798, Note_on_c, 0, 57, 71
2, 51804, Note_on_c, 0, 69, 66
2, 51893, Note_on_c, 0, 81, 0
2, 51905, Note_on_c, 0, 81, 93
2, 51911, Note_on_c, 0, 76, 86
2, 51912, Note_on_c, 0, 64, 79
2, 51939, Note_on_c, 0, 60, 0
2, 51944, Note_on_c, 0, 60, 60
2, 52016, Note_on_c, 0, 72, 0
2, 52025, Note_on_c, 0, 72, 84
2, 52047, Note_on_c, 0, 57, 0
2, 52052, Note_on_c, 0, 57, 67
2, 52162, Note_on_c, 0, 60, 0
2, 52162, Note_on_c, 0, 69, 0
2, 52165, Control_c, 0, 64, 0
2, 52166, Note_on_c, 0, 95, 108
2, 52166, Note_on_c, 0, 84, 0
2, 52167, Note_on_c, 0, 72, 0
2, 52167, Note_on_c, 0, 76, 0
2, 52168, Note_on_c, 0, 64, 0
2, 52168, Note_on_c, 0, 57, 0
2, 52169, Note_on_c, 0, 81, 0
2, 52169, Note_on_c, 0, 69, 92
2, 52172, Note_on_c, 0, 83, 99
2, 52173, Note_on_c, 0, 60, 70
2, 52193, Control_c, 0, 64, 127
2, 52308, Note_on_c, 0, 69, 0
2, 52310, Note_on_c, 0, 57, 67
2, 52312, Note_on_c, 0, 76, 81
2, 52313, Note_on_c, 0, 69, 71
2, 52431, Note_on_c, 0, 60, 0
2, 52431, Note_on_c, 0, 93, 0
2, 52436, Note_on_c, 0, 93, 103
2, 52438, Note_on_c, 0, 60, 77
2, 52440, Note_on_c, 0, 81, 101
2, 52442, Note_on_c, 0, 64, 85
2, 52561, Note_on_c, 0, 57, 0
2, 52572, Note_on_c, 0, 57, 74
2, 52588, Note_on_c, 0, 77, 69
2, 52659, Control_c, 0, 64, 0
2, 52661, Note_on_c, 0, 83, 0
2, 52661, Note_on_c, 0, 64, 0
2, 52661, Note_on_c, 0, 93, 0
2, 52662, Note_on_c, 0, 77, 0
2, 52662, Note_on_c, 0, 81, 0
2, 52663, Note_on_c, 0, 95, 0
2, 52663, Note_on_c, 0, 76, 0
2, 52669, Note_on_c, 0, 48, 0
2, 52677, Note_on_c, 0, 57, 0
2, 52677, Note_on_c, 0, 60, 0
2, 52677, Note_on_c, 0, 69, 0
2, 52695, Note_on_c, 0, 92, 107
2, 52696, Note_on_c, 0, 80, 105
2, 52704, Note_on_c, 0, 59, 84
2, 52706, Note_on_c, 0, 47, 80
2, 52730, Control_c, 0, 64, 127
2, 52841, Note_on_c, 0, 71, 86
2, 52842, Note_on_c, 0, 56, 70
2, 52953, Note_on_c, 0, 80, 0
2, 52959, Note_on_c, 0, 80, 85
2, 52963, Note_on_c, 0, 64, 79
2, 52964, Note_on_c, 0, 76, 77
2, 53076, Note_on_c, 0, 71, 0
2, 53081, Note_on_c, 0, 71, 86
2, 53114, Note_on_c, 0, 56, 0
2, 53119, Note_on_c, 0, 56, 44
2, 53123, Note_on_c, 0, 69, 36
2, 53222, Note_on_c, 0, 59, 0
2, 53222, Note_on_c, 0, 93, 102
2, 53224, Note_on_c, 0, 68, 90
2, 53225, Note_on_c, 0, 81, 97
2, 53226, Note_on_c, 0, 59, 80
2, 53352, Note_on_c, 0, 56, 0
2, 53352, Note_on_c, 0, 76, 0
2, 53360, Note_on_c, 0, 56, 69
2, 53361, Note_on_c, 0, 76, 80
2, 53483, Note_on_c, 0, 64, 0
2, 53483, Note_on_c, 0, 80, 0
2, 53483, Note_on_c, 0, 92, 0
2, 53488, Note_on_c, 0, 92, 102
2, 53490, Note_on_c, 0, 80, 102
2, 53491, Note_on_c, 0, 59, 0
2, 53493, Note_on_c, 0, 64, 89
2, 53495, Note_on_c, 0, 59, 74
2, 53614, Note_on_c, 0, 56, 0
2, 53614, Note_on_c, 0, 76, 0
2, 53618, Note_on_c, 0, 76, 79
2, 53619, Note_on_c, 0, 56, 73
2, 53714, Note_on_c, 0, 56, 0
2, 53715, Note_on_c, 0, 71, 0
2, 53715, Note_on_c, 0, 93, 0
2, 53715, Note_on_c, 0, 68, 0
2, 53715, Note_on_c, 0, 80, 0
2, 53715, Note_on_c, 0, 92, 0
2, 53715, Note_on_c, 0, 81, 0
2, 53715, Note_on_c, 0, 59, 0
2, 53716, Control_c, 0, 64, 0
2, 53716, Note_on_c, 0, 76, 0
2, 53729, Note_on_c, 0, 47, 0
2, 53729, Note_on_c, 0, 64, 0
2, 53729, Note_on_c, 0, 69, 0
2, 53750, Note_on_c, 0, 90, 102
2, 53755, Note_on_c, 0, 82, 91
2, 53755, Note_on_c, 0, 78, 95
2, 53756, Note_on_c, 0, 85, 82
2, 53763, Note_on_c, 0, 46, 72
2, 53783, Control_c, 0, 64, 127
2, 53894, Note_on_c, 0, 70, 80
2, 53917, Note_on_c, 0, 54, 51
2, 54013, Note_on_c, 0, 78, 0
2, 54024, Note_on_c, 0, 78, 88
2, 54025, Note_on_c, 0, 73, 82
2, 54031, Note_on_c, 0, 61, 67
2, 54049, Note_on_c, 0, 58, 54
2, 54136, Note_on_c, 0, 70, 0
2, 54146, Note_on_c, 0, 70, 84
2, 54159, Note_on_c, 0, 54, 0
2, 54168, Note_on_c, 0, 54, 63
2, 54282, Note_on_c, 0, 58, 0
2, 54282, Note_on_c, 0, 88, 100
2, 54282, Note_on_c, 0, 76, 99
2, 54284, Control_c, 0, 64, 0
2, 54285, Note_on_c, 0, 66, 86
2, 54285, Note_on_c, 0, 70, 0
2, 54286, Note_on_c, 0, 85, 0
2, 54286, Note_on_c, 0, 82, 0
2, 54286, Note_on_c, 0, 73, 0
2, 54287, Note_on_c, 0, 90, 0
2, 54287, Note_on_c, 0, 58, 68
2, 54305, Control_c, 0, 64, 127
2, 54425, Note_on_c, 0, 73, 88
2, 54428, Note_on_c, 0, 54, 0
2, 54432, Note_on_c, 0, 54, 64
2, 54535, Note_on_c, 0, 61, 0
2, 54543, Note_on_c, 0, 58, 0
2, 54546, Note_on_c, 0, 61, 76
2, 54546, Note_on_c, 0, 87, 99
2, 54548, Note_on_c, 0, 75, 94
2, 54550, Note_on_c, 0, 58, 64
2, 54673, Note_on_c, 0, 54, 0
2, 54673, Note_on_c, 0, 61, 0
2, 54673, Note_on_c, 0, 73, 0
2, 54678, Note_on_c, 0, 73, 78
2, 54678, Note_on_c, 0, 61, 71
2, 54679, Note_on_c, 0, 54, 68
2, 54793, Note_on_c, 0, 75, 0
2, 54793, Note_on_c, 0, 73, 0
2, 54794, Note_on_c, 0, 87, 0
2, 54794, Note_on_c, 0, 61, 0
2, 54794, Control_c, 0, 64, 0
2, 54794, Note_on_c, 0, 54, 0
2, 54794, Note_on_c, 0, 58, 0
2, 54796, Note_on_c, 0, 78, 0
2, 54804, Note_on_c, 0, 46, 0
2, 54804, Note_on_c, 0, 66, 0
2, 54812, Note_on_c, 0, 76, 0
2, 54812, Note_on_c, 0, 88, 0
2, 54816, Note_on_c, 0, 88, 101
2, 54818, Note_on_c, 0, 76, 101
2, 54819, Note_on_c, 0, 79, 99
2, 54824, Note_on_c, 0, 48, 77
2, 54825, Note_on_c, 0, 72, 91
2, 54835, Note_on_c, 0, 72, 0
2, 54873, Control_c, 0, 64, 127
2, 54960, Note_on_c, 0, 72, 81
2, 54985, Note_on_c, 0, 55, 66
2, 55080, Note_on_c, 0, 76, 0
2, 55080, Note_on_c, 0, 79, 0
2, 55083, Note_on_c, 0, 64, 88
2, 55087, Note_on_c, 0, 79, 86
2, 55087, Note_on_c, 0, 60, 75
2, 55088, Note_on_c, 0, 76, 80
2, 55188, Note_on_c, 0, 72, 0
2, 55197, Note_on_c, 0, 72, 75
2, 55219, Note_on_c, 0, 55, 0
2, 55224, Note_on_c, 0, 55, 74
2, 55323, Note_on_c, 0, 60, 0
2, 55323, Note_on_c, 0, 64, 0
2, 55323, Note_on_c, 0, 55, 0
2, 55323, Note_on_c, 0, 79, 0
2, 55324, Note_on_c, 0, 48, 0
2, 55325, Control_c, 0, 64, 0
2, 55326, Note_on_c, 0, 76, 0
2, 55327, Note_on_c, 0, 88, 0
2, 55337, Note_on_c, 0, 90, 102
2, 55338, Note_on_c, 0, 78, 99
2, 55338, Note_on_c, 0, 81, 81
2, 55342, Note_on_c, 0, 72, 0
2, 55347, Note_on_c, 0, 50, 82
2, 55349, Note_on_c, 0, 62, 83
2, 55395, Control_c, 0, 64, 127
2, 55478, Note_on_c, 0, 74, 84
2, 55482, Note_on_c, 0, 57, 64
2, 55603, Note_on_c, 0, 62, 0
2, 55603, Note_on_c, 0, 81, 0
2, 55607, Note_on_c, 0, 62, 67
2, 55607, Note_on_c, 0, 81, 72
2, 55610, Note_on_c, 0, 78, 0
2, 55612, Note_on_c, 0, 66, 74
2, 55615, Note_on_c, 0, 78, 80
2, 55703, Note_on_c, 0, 74, 0
2, 55713, Note_on_c, 0, 74, 79
2, 55726, Note_on_c, 0, 57, 0
2, 55730, Note_on_c, 0, 57, 63
2, 55864, Note_on_c, 0, 50, 0
2, 55868, Control_c, 0, 64, 0
2, 55869, Note_on_c, 0, 88, 97
2, 55869, Note_on_c, 0, 62, 0
2, 55870, Note_on_c, 0, 57, 0
2, 55870, Note_on_c, 0, 78, 0
2, 55870, Note_on_c, 0, 66, 0
2, 55871, Note_on_c, 0, 90, 0
2, 55872, Note_on_c, 0, 81, 0
2, 55874, Note_on_c, 0, 64, 91
2, 55875, Note_on_c, 0, 52, 79
2, 55876, Note_on_c, 0, 81, 86
2, 55876, Note_on_c, 0, 76, 91
2, 55880, Note_on_c, 0, 83, 84
2, 55887, Note_on_c, 0, 74, 0
2, 55941, Control_c, 0, 64, 127
2, 56002, Note_on_c, 0, 76, 0
2, 56002, Note_on_c, 0, 81, 0
2, 56007, Note_on_c, 0, 59, 75
2, 56009, Note_on_c, 0, 81, 87
2, 56010, Note_on_c, 0, 76, 89
2, 56125, Note_on_c, 0, 52, 0
2, 56134, Note_on_c, 0, 52, 53
2, 56256, Note_on_c, 0, 52, 0
2, 56256, Note_on_c, 0, 76, 0
2, 56256, Note_on_c, 0, 88, 0
2, 56261, Note_on_c, 0, 52, 76
2, 56265, Note_on_c, 0, 80, 96
2, 56266, Note_on_c, 0, 88, 83
2, 56266, Note_on_c, 0, 76, 87
2, 56267, Note_on_c, 0, 40, 68
2, 56273, Control_c, 0, 64, 0
2, 56274, Note_on_c, 0, 81, 0
2, 56274, Note_on_c, 0, 64, 0
2, 56274, Note_on_c, 0, 59, 0
2, 56275, Note_on_c, 0, 83, 0
2, 56302, Note_on_c, 0, 88, 0
2, 56355, Control_c, 0, 64, 127
2, 56532, Note_on_c, 0, 40, 0
2, 56536, Note_on_c, 0, 40, 63
2, 56540, Control_c, 0, 64, 0
2, 56624, Control_c, 0, 64, 127
2, 56677, Note_on_c, 0, 47, 62
2, 56778, Note_on_c, 0, 52, 0
2, 56785, Note_on_c, 0, 52, 62
2, 56920, Note_on_c, 0, 44, 79
2, 56921, Note_on_c, 0, 40, 0
2, 56921, Note_on_c, 0, 47, 0
2, 56922, Note_on_c, 0, 52, 0
2, 56924, Control_c, 0, 64, 0
2, 56947, Note_on_c, 0, 76, 0
2, 57016, Control_c, 0, 64, 127
2, 57058, Note_on_c, 0, 56, 73
2, 57185, Note_on_c, 0, 80, 0
2, 57190, Note_on_c, 0, 80, 97
2, 57211, Note_on_c, 0, 59, 60
2, 57285, Note_on_c, 0, 68, 66
2, 57367, Note_on_c, 0, 63, 69
2, 57431, Note_on_c, 0, 68, 0
2, 57437, Note_on_c, 0, 68, 61
2, 57477, Note_on_c, 0, 59, 0
2, 57481, Note_on_c, 0, 75, 94
2, 57486, Note_on_c, 0, 59, 70
2, 57553, Note_on_c, 0, 68, 0
2, 57559, Note_on_c, 0, 68, 66
2, 57623, Note_on_c, 0, 63, 0
2, 57629, Note_on_c, 0, 63, 67
2, 57699, Note_on_c, 0, 68, 0
2, 57704, Note_on_c, 0, 68, 60
2, 57753, Note_on_c, 0, 59, 0
2, 57761, Note_on_c, 0, 59, 72
2, 57822, Note_on_c, 0, 68, 0
2, 57826, Note_on_c, 0, 68, 66
2, 57884, Note_on_c, 0, 63, 0
2, 57884, Note_on_c, 0, 80, 0
2, 57890, Note_on_c, 0, 80, 95
2, 57894, Note_on_c, 0, 63, 70
2, 57953, Note_on_c, 0, 68, 0
2, 57964, Note_on_c, 0, 68, 63
2, 58030, Note_on_c, 0, 59, 0
2, 58037, Note_on_c, 0, 59, 69
2, 58039, Note_on_c, 0, 71, 62
2, 58083, Note_on_c, 0, 68, 0
2, 58094, Note_on_c, 0, 68, 73
2, 58152, Note_on_c, 0, 63, 0
2, 58152, Note_on_c, 0, 80, 0
2, 58156, Note_on_c, 0, 80, 96
2, 58163, Note_on_c, 0, 63, 72
2, 58229, Note_on_c, 0, 68, 0
2, 58234, Note_on_c, 0, 68, 70
2, 58275, Note_on_c, 0, 80, 0
2, 58281, Note_on_c, 0, 80, 86
2, 58291, Note_on_c, 0, 59, 0
2, 58301, Note_on_c, 0, 59, 77
2, 58360, Note_on_c, 0, 56, 0
2, 58360, Note_on_c, 0, 68, 0
2, 58368, Note_on_c, 0, 68, 66
2, 58369, Note_on_c, 0, 56, 62
2, 58398, Note_on_c, 0, 80, 0
2, 58410, Note_on_c, 0, 80, 87
2, 58421, Note_on_c, 0, 63, 0
2, 58432, Note_on_c, 0, 63, 73
2, 58490, Note_on_c, 0, 68, 0
2, 58495, Note_on_c, 0, 68, 70
2, 58544, Note_on_c, 0, 80, 0
2, 58551, Note_on_c, 0, 80, 93
2, 58552, Note_on_c, 0, 59, 0
2, 58563, Note_on_c, 0, 59, 76
2, 58613, Note_on_c, 0, 68, 0
2, 58622, Note_on_c, 0, 68, 71
2, 58686, Note_on_c, 0, 78, 86
2, 58698, Note_on_c, 0, 63, 0
2, 58704, Note_on_c, 0, 63, 71
2, 58759, Note_on_c, 0, 68, 0
2, 58765, Note_on_c, 0, 68, 71
2, 58816, Note_on_c, 0, 76, 89
2, 58821, Note_on_c, 0, 59, 0
2, 58825, Note_on_c, 0, 59, 72
2, 58913, Note_on_c, 0, 63, 0
2, 58913, Note_on_c, 0, 68, 0
2, 58918, Note_on_c, 0, 68, 62
2, 58921, Note_on_c, 0, 63, 77
2, 58951, Note_on_c, 0, 75, 0
2, 58957, Note_on_c, 0, 75, 88
2, 59058, Note_on_c, 0, 56, 0
2, 59058, Note_on_c, 0, 68, 0
2, 59058, Note_on_c, 0, 71, 0
2, 59059, Note_on_c, 0, 59, 0
2, 59059, Note_on_c, 0, 63, 0
2, 59060, Note_on_c, 0, 80, 0
2, 59060, Note_on_c, 0, 78, 0
2, 59060, Note_on_c, 0, 75, 0
2, 59060, Control_c, 0, 64, 0
2, 59060, Note_on_c, 0, 76, 0
2, 59074, Note_on_c, 0, 44, 0
2, 59092, Note_on_c, 0, 76, 99
2, 59094, Note_on_c, 0, 49, 74
2, 59095, Note_on_c, 0, 73, 88
2, 59166, Control_c, 0, 64, 127
2, 59234, Note_on_c, 0, 61, 74
2, 59343, Note_on_c, 0, 61, 0
2, 59348, Note_on_c, 0, 61, 73
2, 59446, Note_on_c, 0, 68, 75
2, 59523, Note_on_c, 0, 64, 74
2, 59573, Note_on_c, 0, 68, 0
2, 59579, Note_on_c, 0, 68, 73
2, 59634, Note_on_c, 0, 78, 99
2, 59637, Note_on_c, 0, 75, 89
2, 59642, Note_on_c, 0, 61, 0
2, 59647, Note_on_c, 0, 61, 76
2, 59712, Note_on_c, 0, 68, 0
2, 59717, Note_on_c, 0, 68, 64
2, 59765, Note_on_c, 0, 64, 0
2, 59769, Note_on_c, 0, 64, 83
2, 59834, Note_on_c, 0, 68, 0
2, 59840, Note_on_c, 0, 68, 80
2, 59911, Note_on_c, 0, 61, 0
2, 59919, Note_on_c, 0, 61, 77
2, 59965, Note_on_c, 0, 68, 0
2, 59976, Note_on_c, 0, 68, 75
2, 60034, Note_on_c, 0, 64, 0
2, 60044, Note_on_c, 0, 64, 78
2, 60096, Note_on_c, 0, 68, 0
2, 60105, Note_on_c, 0, 68, 70
2, 60172, Note_on_c, 0, 76, 0
2, 60175, Note_on_c, 0, 80, 104
2, 60180, Note_on_c, 0, 61, 0
2, 60183, Note_on_c, 0, 76, 89
2, 60186, Note_on_c, 0, 61, 76
2, 60192, Note_on_c, 0, 73, 0
2, 60193, Note_on_c, 0, 78, 0
2, 60196, Note_on_c, 0, 75, 0
2, 60241, Note_on_c, 0, 68, 0
2, 60251, Note_on_c, 0, 68, 62
2, 60311, Note_on_c, 0, 64, 0
2, 60319, Note_on_c, 0, 64, 75
2, 60372, Note_on_c, 0, 68, 0
2, 60378, Note_on_c, 0, 68, 79
2, 60456, Note_on_c, 0, 61, 0
2, 60460, Note_on_c, 0, 61, 76
2, 60495, Note_on_c, 0, 68, 0
2, 60506, Note_on_c, 0, 68, 76
2, 60595, Note_on_c, 0, 64, 0
2, 60600, Note_on_c, 0, 64, 73
2, 60641, Note_on_c, 0, 68, 0
2, 60645, Note_on_c, 0, 68, 80
2, 60733, Note_on_c, 0, 61, 0
2, 60741, Note_on_c, 0, 61, 80
2, 60794, Note_on_c, 0, 68, 0
2, 60805, Note_on_c, 0, 68, 73
2, 60879, Note_on_c, 0, 64, 0
2, 60890, Note_on_c, 0, 64, 78
2, 60940, Note_on_c, 0, 68, 0
2, 60952, Note_on_c, 0, 68, 79
2, 61002, Note_on_c, 0, 49, 0
2, 61006, Note_on_c, 0, 49, 94
2, 61017, Note_on_c, 0, 61, 0
2, 61021, Control_c, 0, 64, 0
2, 61023, Note_on_c, 0, 61, 81
2, 61040, Control_c, 0, 64, 127
2, 61102, Note_on_c, 0, 68, 0
2, 61109, Note_on_c, 0, 68, 84
2, 61163, Note_on_c, 0, 64, 0
2, 61173, Note_on_c, 0, 64, 82
2, 61279, Note_on_c, 0, 52, 94
2, 61280, Note_on_c, 0, 49, 0
2, 61280, Note_on_c, 0, 61, 0
2, 61280, Note_on_c, 0, 80, 0
2, 61281, Note_on_c, 0, 68, 0
2, 61281, Control_c, 0, 64, 0
2, 61283, Note_on_c, 0, 45, 87
2, 61290, Note_on_c, 0, 57, 82
2, 61294, Note_on_c, 0, 64, 0
2, 61294, Note_on_c, 0, 76, 0
2, 61341, Note_on_c, 0, 45, 0
2, 61372, Note_on_c, 0, 61, 77
2, 61393, Control_c, 0, 64, 127
2, 61428, Note_on_c, 0, 64, 86
2, 61511, Note_on_c, 0, 69, 84
2, 61532, Note_on_c, 0, 52, 0
2, 61542, Note_on_c, 0, 52, 82
2, 61568, Note_on_c, 0, 73, 80
2, 61578, Control_c, 0, 64, 0
2, 61602, Note_on_c, 0, 76, 79
2, 61662, Control_c, 0, 64, 127
2, 61682, Note_on_c, 0, 81, 84
2, 61748, Note_on_c, 0, 85, 77
2, 61780, Note_on_c, 0, 88, 68
2, 61820, Note_on_c, 0, 69, 0
2, 61820, Note_on_c, 0, 81, 0
2, 61820, Note_on_c, 0, 64, 0
2, 61821, Note_on_c, 0, 73, 0
2, 61821, Note_on_c, 0, 85, 0
2, 61821, Note_on_c, 0, 61, 0
2, 61821, Note_on_c, 0, 76, 0
2, 61823, Note_on_c, 0, 88, 0
2, 61824, Note_on_c, 0, 57, 0
2, 61824, Control_c, 0, 64, 0
2, 61827, Note_on_c, 0, 93, 94
2, 61827, Note_on_c, 0, 54, 95
2, 61829, Note_on_c, 0, 45, 70
2, 61831, Note_on_c, 0, 52, 0
2, 61883, Note_on_c, 0, 88, 69
2, 61908, Control_c, 0, 64, 127
2, 61936, Note_on_c, 0, 85, 77
2, 61977, Note_on_c, 0, 81, 79
2, 62081, Note_on_c, 0, 76, 71
2, 62087, Note_on_c, 0, 52, 98
2, 62106, Note_on_c, 0, 73, 74
2, 62108, Note_on_c, 0, 45, 0
2, 62112, Note_on_c, 0, 45, 50
2, 62219, Note_on_c, 0, 51, 97
2, 62345, Note_on_c, 0, 93, 0
2, 62346, Note_on_c, 0, 45, 0
2, 62346, Note_on_c, 0, 85, 0
2, 62348, Note_on_c, 0, 54, 0
2, 62349, Note_on_c, 0, 81, 0
2, 62349, Note_on_c, 0, 88, 0
2, 62349, Note_on_c, 0, 52, 0
2, 62350, Note_on_c, 0, 73, 0
2, 62352, Note_on_c, 0, 76, 0
2, 62357, Control_c, 0, 64, 0
2, 62369, Note_on_c, 0, 47, 88
2, 62371, Note_on_c, 0, 59, 81
2, 62438, Note_on_c, 0, 63, 75
2, 62476, Note_on_c, 0, 59, 0
2, 62484, Note_on_c, 0, 66, 82
2, 62492, Note_on_c, 0, 51, 0
2, 62499, Control_c, 0, 64, 127
2, 62572, Note_on_c, 0, 71, 75
2, 62616, Note_on_c, 0, 75, 83
2, 62653, Note_on_c, 0, 78, 84
2, 62728, Note_on_c, 0, 83, 80
2, 62784, Note_on_c, 0, 87, 81
2, 62827, Note_on_c, 0, 90, 81
2, 62897, Note_on_c, 0, 95, 88
2, 62899, Note_on_c, 0, 63, 0
2, 62902, Note_on_c, 0, 51, 93
2, 62945, Note_on_c, 0, 90, 0
2, 62950, Note_on_c, 0, 90, 85
2, 62991, Note_on_c, 0, 87, 0
2, 62996, Note_on_c, 0, 87, 75
2, 62999, Note_on_c, 0, 75, 0
2, 63014, Note_on_c, 0, 47, 0
2, 63045, Note_on_c, 0, 83, 0
2, 63049, Note_on_c, 0, 83, 71
2, 63129, Note_on_c, 0, 78, 0
2, 63140, Note_on_c, 0, 78, 64
2, 63179, Note_on_c, 0, 52, 84
2, 63186, Note_on_c, 0, 75, 71
2, 63244, Note_on_c, 0, 71, 0
2, 63250, Note_on_c, 0, 71, 64
2, 63298, Note_on_c, 0, 66, 0
2, 63306, Note_on_c, 0, 66, 48
2, 63364, Note_on_c, 0, 63, 67
2, 63427, Note_on_c, 0, 78, 0
2, 63427, Note_on_c, 0, 90, 0
2, 63428, Note_on_c, 0, 83, 0
2, 63428, Note_on_c, 0, 87, 0
2, 63428, Note_on_c, 0, 71, 0
2, 63428, Note_on_c, 0, 75, 0
2, 63428, Note_on_c, 0, 52, 0
2, 63429, Note_on_c, 0, 95, 0
2, 63429, Note_on_c, 0, 63, 0
2, 63433, Control_c, 0, 64, 0
2, 63435, Note_on_c, 0, 54, 95
2, 63436, Note_on_c, 0, 66, 0
2, 63440, Note_on_c, 0, 44, 83
2, 63452, Note_on_c, 0, 51, 0
2, 63456, Note_on_c, 0, 59, 83
2, 63528, Note_on_c, 0, 63, 72
2, 63552, Control_c, 0, 64, 127
2, 63575, Note_on_c, 0, 66, 84
2, 63664, Note_on_c, 0, 71, 79
2, 63713, Note_on_c, 0, 54, 0
2, 63717, Note_on_c, 0, 75, 82
2, 63724, Note_on_c, 0, 54, 69
2, 63749, Note_on_c, 0, 78, 85
2, 63829, Note_on_c, 0, 83, 79
2, 63885, Note_on_c, 0, 87, 81
2, 63932, Note_on_c, 0, 90, 76
2, 63989, Note_on_c, 0, 52, 101
2, 63993, Note_on_c, 0, 95, 86
2, 64035, Note_on_c, 0, 90, 0
2, 64044, Note_on_c, 0, 90, 73
2, 64089, Note_on_c, 0, 87, 0
2, 64097, Note_on_c, 0, 87, 74
2, 64135, Note_on_c, 0, 83, 0
2, 64142, Note_on_c, 0, 83, 76
2, 64220, Note_on_c, 0, 78, 0
2, 64224, Note_on_c, 0, 78, 71
2, 64250, Note_on_c, 0, 54, 0
2, 64255, Note_on_c, 0, 54, 94
2, 64258, Note_on_c, 0, 75, 0
2, 64268, Note_on_c, 0, 75, 66
2, 64312, Note_on_c, 0, 71, 0
2, 64318, Note_on_c, 0, 71, 71
2, 64379, Note_on_c, 0, 68, 86
2, 64381, Note_on_c, 0, 66, 0
2, 64383, Note_on_c, 0, 56, 93
2, 64388, Note_on_c, 0, 66, 77
2, 64513, Note_on_c, 0, 61, 86
2, 64520, Control_c, 0, 64, 0
2, 64521, Note_on_c, 0, 78, 0
2, 64521, Note_on_c, 0, 54, 0
2, 64521, Note_on_c, 0, 83, 0
2, 64521, Note_on_c, 0, 90, 0
2, 64521, Note_on_c, 0, 71, 0
2, 64521, Note_on_c, 0, 87, 0
2, 64522, Note_on_c, 0, 56, 0
2, 64522, Note_on_c, 0, 66, 0
2, 64522, Note_on_c, 0, 75, 0
2, 64523, Note_on_c, 0, 59, 0
2, 64523, Note_on_c, 0, 68, 0
2, 64523, Note_on_c, 0, 63, 0
2, 64527, Note_on_c, 0, 95, 0
2, 64528, Note_on_c, 0, 44, 0
2, 64528, Note_on_c, 0, 49, 85
2, 64598, Note_on_c, 0, 64, 78
2, 64611, Note_on_c, 0, 61, 0
2, 64619, Control_c, 0, 64, 127
2, 64635, Note_on_c, 0, 68, 87
2, 64719, Note_on_c, 0, 73, 88
2, 64783, Note_on_c, 0, 76, 76
2, 64816, Note_on_c, 0, 80, 92
2, 64908, Note_on_c, 0, 85, 84
2, 64953, Note_on_c, 0, 88, 85
2, 64999, Note_on_c, 0, 92, 86
2, 65054, Note_on_c, 0, 97, 96
2, 65111, Note_on_c, 0, 92, 0
2, 65115, Note_on_c, 0, 92, 82
2, 65149, Note_on_c, 0, 88, 0
2, 65153, Note_on_c, 0, 88, 80
2, 65210, Note_on_c, 0, 85, 0
2, 65215, Note_on_c, 0, 85, 81
2, 65300, Note_on_c, 0, 61, 86
2, 65303, Note_on_c, 0, 56, 71
2, 65303, Note_on_c, 0, 92, 0
2, 65310, Note_on_c, 0, 80, 0
2, 65311, Note_on_c, 0, 92, 107
2, 65315, Note_on_c, 0, 80, 104
2, 65318, Note_on_c, 0, 88, 0
2, 65327, Note_on_c, 0, 88, 85
2, 65372, Note_on_c, 0, 52, 0
2, 65382, Note_on_c, 0, 52, 72
2, 65448, Note_on_c, 0, 49, 0
2, 65454, Note_on_c, 0, 49, 78
2, 65579, Note_on_c, 0, 88, 0
2, 65581, Note_on_c, 0, 93, 106
2, 65583, Note_on_c, 0, 68, 0
2, 65583, Note_on_c, 0, 61, 0
2, 65583, Note_on_c, 0, 80, 0
2, 65583, Note_on_c, 0, 52, 0
2, 65583, Note_on_c, 0, 56, 0
2, 65583, Note_on_c, 0, 73, 0
2, 65584, Note_on_c, 0, 76, 0
2, 65584, Note_on_c, 0, 49, 0
2, 65584, Note_on_c, 0, 64, 0
2, 65584, Note_on_c, 0, 88, 82
2, 65584, Note_on_c, 0, 97, 0
2, 65584, Note_on_c, 0, 45, 74
2, 65586, Control_c, 0, 64, 0
2, 65587, Note_on_c, 0, 85, 0
2, 65588, Note_on_c, 0, 81, 94
2, 65593, Note_on_c, 0, 85, 75
2, 65602, Note_on_c, 0, 92, 0
2, 65664, Control_c, 0, 64, 127
2, 65681, Note_on_c, 0, 49, 66
2, 65775, Note_on_c, 0, 52, 64
2, 65852, Note_on_c, 0, 92, 103
2, 65852, Note_on_c, 0, 80, 104
2, 65854, Note_on_c, 0, 57, 75
2, 65860, Control_c, 0, 64, 0
2, 65879, Control_c, 0, 64, 127
2, 65971, Note_on_c, 0, 61, 68
2, 66048, Note_on_c, 0, 64, 78
2, 66124, Note_on_c, 0, 88, 0
2, 66132, Note_on_c, 0, 57, 0
2, 66135, Note_on_c, 0, 88, 96
2, 66136, Note_on_c, 0, 69, 84
2, 66137, Control_c, 0, 64, 0
2, 66138, Note_on_c, 0, 76, 92
2, 66140, Note_on_c, 0, 57, 67
2, 66155, Control_c, 0, 64, 127
2, 66216, Note_on_c, 0, 64, 0
2, 66223, Note_on_c, 0, 64, 72
2, 66301, Note_on_c, 0, 61, 0
2, 66311, Note_on_c, 0, 61, 79
2, 66401, Note_on_c, 0, 85, 0
2, 66408, Note_on_c, 0, 57, 0
2, 66408, Note_on_c, 0, 69, 0
2, 66408, Note_on_c, 0, 81, 0
2, 66411, Note_on_c, 0, 85, 95
2, 66412, Note_on_c, 0, 73, 92
2, 66418, Note_on_c, 0, 81, 66
2, 66419, Note_on_c, 0, 69, 72
2, 66420, Note_on_c, 0, 57, 73
2, 66508, Note_on_c, 0, 52, 0
2, 66514, Note_on_c, 0, 52, 68
2, 66585, Note_on_c, 0, 49, 0
2, 66594, Note_on_c, 0, 49, 67
2, 66667, Note_on_c, 0, 93, 0
2, 66667, Note_on_c, 0, 92, 0
2, 66669, Note_on_c, 0, 64, 0
2, 66669, Note_on_c, 0, 80, 0
2, 66669, Note_on_c, 0, 73, 0
2, 66670, Note_on_c, 0, 88, 0
2, 66670, Control_c, 0, 64, 0
2, 66670, Note_on_c, 0, 52, 0
2, 66670, Note_on_c, 0, 61, 0
2, 66670, Note_on_c, 0, 49, 0
2, 66677, Note_on_c, 0, 45, 0
2, 66677, Note_on_c, 0, 69, 0
2, 66677, Note_on_c, 0, 76, 0
2, 66677, Note_on_c, 0, 81, 0
2, 66677, Note_on_c, 0, 85, 0
2, 66680, Note_on_c, 0, 88, 101
2, 66682, Note_on_c, 0, 81, 92
2, 66682, Note_on_c, 0, 42, 72
2, 66683, Note_on_c, 0, 76, 95
2, 66685, Note_on_c, 0, 57, 0
2, 66687, Note_on_c, 0, 85, 87
2, 66739, Control_c, 0, 64, 127
2, 66765, Note_on_c, 0, 49, 63
2, 66849, Note_on_c, 0, 52, 68
2, 66935, Note_on_c, 0, 57, 82
2, 66937, Note_on_c, 0, 69, 74
2, 66954, Note_on_c, 0, 85, 0
2, 66964, Note_on_c, 0, 73, 89
2, 66964, Note_on_c, 0, 85, 92
2, 67054, Note_on_c, 0, 61, 70
2, 67092, Note_on_c, 0, 76, 0
2, 67092, Note_on_c, 0, 88, 0
2, 67098, Note_on_c, 0, 88, 96
2, 67103, Note_on_c, 0, 76, 90
2, 67119, Note_on_c, 0, 64, 75
2, 67207, Note_on_c, 0, 69, 0
2, 67214, Note_on_c, 0, 81, 0
2, 67217, Note_on_c, 0, 69, 86
2, 67299, Note_on_c, 0, 64, 0
2, 67309, Note_on_c, 0, 64, 83
2, 67368, Note_on_c, 0, 61, 0
2, 67374, Note_on_c, 0, 61, 83
2, 67476, Note_on_c, 0, 57, 0
2, 67478, Note_on_c, 0, 92, 101
2, 67480, Note_on_c, 0, 80, 97
2, 67486, Note_on_c, 0, 57, 75
2, 67607, Note_on_c, 0, 49, 0
2, 67611, Note_on_c, 0, 49, 72
2, 67712, Note_on_c, 0, 92, 0
2, 67712, Note_on_c, 0, 42, 0
2, 67712, Note_on_c, 0, 80, 0
2, 67712, Note_on_c, 0, 69, 0
2, 67713, Note_on_c, 0, 85, 0
2, 67713, Note_on_c, 0, 73, 0
2, 67713, Note_on_c, 0, 52, 0
2, 67714, Note_on_c, 0, 64, 0
2, 67714, Note_on_c, 0, 88, 0
2, 67714, Control_c, 0, 64, 0
2, 67714, Note_on_c, 0, 61, 0
2, 67715, Note_on_c, 0, 49, 0
2, 67716, Note_on_c, 0, 76, 0
2, 67729, Note_on_c, 0, 57, 0
2, 67754, Note_on_c, 0, 90, 104
2, 67756, Note_on_c, 0, 78, 94
2, 67761, Note_on_c, 0, 83, 81
2, 67764, Note_on_c, 0, 87, 76
2, 67769, Note_on_c, 0, 47, 70
2, 67791, Control_c, 0, 64, 127
2, 68034, Note_on_c, 0, 71, 91
2, 68040, Note_on_c, 0, 59, 72
2, 68040, Note_on_c, 0, 54, 63
2, 68126, Note_on_c, 0, 56, 66
2, 68166, Note_on_c, 0, 57, 66
2, 68213, Note_on_c, 0, 59, 0
2, 68222, Note_on_c, 0, 59, 71
2, 68298, Note_on_c, 0, 71, 0
2, 68298, Note_on_c, 0, 83, 0
2, 68305, Note_on_c, 0, 61, 75
2, 68308, Note_on_c, 0, 83, 100
2, 68309, Note_on_c, 0, 71, 82
2, 68372, Note_on_c, 0, 63, 73
2, 68432, Note_on_c, 0, 64, 77
2, 68530, Note_on_c, 0, 66, 72
2, 68570, Note_on_c, 0, 95, 102
2, 68570, Note_on_c, 0, 68, 74
2, 68636, Note_on_c, 0, 69, 69
2, 68697, Note_on_c, 0, 71, 0
2, 68702, Note_on_c, 0, 71, 83
2, 68801, Note_on_c, 0, 73, 64
2, 68835, Note_on_c, 0, 95, 0
2, 68847, Note_on_c, 0, 95, 90
2, 68862, Note_on_c, 0, 75, 69
2, 68919, Note_on_c, 0, 76, 80
2, 68997, Note_on_c, 0, 78, 0
2, 69005, Note_on_c, 0, 78, 76
2, 69027, Note_on_c, 0, 64, 0
2, 69033, Note_on_c, 0, 64, 48
2, 69046, Note_on_c, 0, 80, 80
2, 69094, Note_on_c, 0, 81, 65
2, 69143, Note_on_c, 0, 83, 0
2, 69151, Note_on_c, 0, 83, 74
2, 69238, Note_on_c, 0, 85, 81
2, 69243, Note_on_c, 0, 57, 0
2, 69304, Note_on_c, 0, 87, 0
2, 69311, Note_on_c, 0, 87, 75
2, 69388, Note_on_c, 0, 71, 0
2, 69391, Note_on_c, 0, 88, 95
2, 69397, Note_on_c, 0, 71, 78
2, 69572, Control_c, 0, 64, 0
2, 69576, Note_on_c, 0, 64, 0
2, 69576, Note_on_c, 0, 80, 0
2, 69577, Note_on_c, 0, 81, 0
2, 69577, Note_on_c, 0, 73, 0
2, 69577, Note_on_c, 0, 69, 0
2, 69578, Note_on_c, 0, 78, 0
2, 69579, Note_on_c, 0, 87, 0
2, 69579, Note_on_c, 0, 75, 0
2, 69579, Note_on_c, 0, 83, 0
2, 69579, Note_on_c, 0, 63, 0
2, 69580, Note_on_c, 0, 76, 0
2, 69581, Note_on_c, 0, 95, 0
2, 69581, Note_on_c, 0, 66, 0
2, 69581, Note_on_c, 0, 61, 0
2, 69583, Note_on_c, 0, 90, 0
2, 69583, Note_on_c, 0, 59, 0
2, 69584, Note_on_c, 0, 54, 0
2, 69588, Note_on_c, 0, 68, 0
2, 69596, Note_on_c, 0, 56, 0
2, 69603, Note_on_c, 0, 47, 0
2, 69603, Note_on_c, 0, 85, 0
2, 69662, Note_on_c, 0, 90, 96
2, 69666, Note_on_c, 0, 59, 72
2, 69688, Note_on_c, 0, 71, 0
2, 69719, Control_c, 0, 64, 127
2, 69934, Note_on_c, 0, 88, 0
2, 69948, Note_on_c, 0, 92, 102
2, 69967, Note_on_c, 0, 59, 0
2, 69967, Note_on_c, 0, 90, 0
2, 69968, Note_on_c, 0, 64, 77
2, 69971, Note_on_c, 0, 52, 68
2, 69975, Control_c, 0, 64, 0
2, 70064, Control_c, 0, 64, 127
2, 70098, Note_on_c, 0, 88, 73
2, 70233, Note_on_c, 0, 52, 0
2, 70236, Note_on_c, 0, 83, 70
2, 70238, Note_on_c, 0, 52, 38
2, 70361, Note_on_c, 0, 80, 81
2, 70375, Note_on_c, 0, 76, 63
2, 70380, Note_on_c, 0, 68, 59
2, 70392, Note_on_c, 0, 71, 65
2, 70494, Note_on_c, 0, 52, 0
2, 70497, Note_on_c, 0, 93, 98
2, 70500, Note_on_c, 0, 52, 54
2, 70617, Note_on_c, 0, 83, 0
2, 70621, Note_on_c, 0, 83, 67
2, 70755, Note_on_c, 0, 64, 0
2, 70755, Note_on_c, 0, 68, 0
2, 70755, Note_on_c, 0, 92, 0
2, 70762, Note_on_c, 0, 92, 97
2, 70763, Note_on_c, 0, 76, 0
2, 70765, Note_on_c, 0, 68, 83
2, 70767, Note_on_c, 0, 64, 66
2, 70767, Note_on_c, 0, 76, 66
2, 70886, Note_on_c, 0, 83, 0
2, 70895, Note_on_c, 0, 83, 55
2, 71029, Note_on_c, 0, 93, 0
2, 71030, Note_on_c, 0, 68, 0
2, 71031, Note_on_c, 0, 92, 0
2, 71031, Note_on_c, 0, 80, 0
2, 71032, Note_on_c, 0, 83, 0
2, 71032, Note_on_c, 0, 88, 0
2, 71033, Note_on_c, 0, 76, 0
2, 71034, Control_c, 0, 64, 0
2, 71035, Note_on_c, 0, 64, 0
2, 71040, Note_on_c, 0, 71, 0
2, 71043, Note_on_c, 0, 90, 94
2, 71047, Note_on_c, 0, 52, 0
2, 71050, Note_on_c, 0, 71, 76
2, 71052, Note_on_c, 0, 59, 71
2, 71139, Control_c, 0, 64, 127
2, 71175, Note_on_c, 0, 87, 74
2, 71317, Note_on_c, 0, 83, 66
2, 71453, Note_on_c, 0, 78, 76
2, 71464, Note_on_c, 0, 75, 60
2, 71466, Note_on_c, 0, 66, 65
2, 71470, Note_on_c, 0, 71, 0
2, 71474, Note_on_c, 0, 71, 65
2, 71582, Note_on_c, 0, 88, 93
2, 71583, Note_on_c, 0, 45, 60
2, 71592, Note_on_c, 0, 45, 0
2, 71708, Note_on_c, 0, 78, 0
2, 71712, Note_on_c, 0, 78, 72
2, 71846, Note_on_c, 0, 75, 0
2, 71846, Note_on_c, 0, 87, 0
2, 71852, Note_on_c, 0, 87, 85
2, 71857, Note_on_c, 0, 75, 73
2, 71869, Note_on_c, 0, 66, 0
2, 71869, Note_on_c, 0, 71, 0
2, 71873, Note_on_c, 0, 66, 69
2, 71878, Note_on_c, 0, 71, 61
2, 71976, Note_on_c, 0, 78, 0
2, 71987, Note_on_c, 0, 78, 78
2, 72115, Note_on_c, 0, 88, 0
2, 72115, Note_on_c, 0, 90, 0
2, 72115, Note_on_c, 0, 66, 0
2, 72116, Note_on_c, 0, 71, 0
2, 72116, Control_c, 0, 64, 0
2, 72117, Note_on_c, 0, 83, 0
2, 72126, Note_on_c, 0, 88, 89
2, 72130, Note_on_c, 0, 59, 0
2, 72134, Note_on_c, 0, 73, 79
2, 72138, Note_on_c, 0, 75, 0
2, 72138, Note_on_c, 0, 87, 0
2, 72140, Note_on_c, 0, 61, 76
2, 72153, Note_on_c, 0, 78, 0
2, 72215, Control_c, 0, 64, 127
2, 72279, Note_on_c, 0, 85, 72
2, 72423, Note_on_c, 0, 80, 69
2, 72537, Note_on_c, 0, 73, 0
2, 72541, Note_on_c, 0, 76, 69
2, 72541, Note_on_c, 0, 68, 71
2, 72542, Note_on_c, 0, 73, 72
2, 72656, Note_on_c, 0, 90, 97
2, 72791, Note_on_c, 0, 80, 0
2, 72799, Note_on_c, 0, 80, 68
2, 72906, Note_on_c, 0, 76, 0
2, 72917, Note_on_c, 0, 76, 74
2, 72929, Note_on_c, 0, 68, 0
2, 72929, Note_on_c, 0, 88, 0
2, 72931, Note_on_c, 0, 71, 64
2, 72933, Note_on_c, 0, 88, 89
2, 72936, Note_on_c, 0, 71, 0
2, 72938, Note_on_c, 0, 68, 76
2, 73044, Note_on_c, 0, 80, 0
2, 73053, Note_on_c, 0, 80, 77
2, 73182, Note_on_c, 0, 90, 0
2, 73183, Note_on_c, 0, 85, 0
2, 73183, Note_on_c, 0, 68, 0
2, 73184, Note_on_c, 0, 80, 0
2, 73184, Note_on_c, 0, 73, 0
2, 73185, Note_on_c, 0, 88, 0
2, 73187, Control_c, 0, 64, 0
2, 73198, Note_on_c, 0, 61, 0
2, 73198, Note_on_c, 0, 76, 0
2, 73211, Note_on_c, 0, 87, 91
2, 73216, Note_on_c, 0, 71, 84
2, 73217, Note_on_c, 0, 59, 77
2, 73290, Control_c, 0, 64, 127
2, 73350, Note_on_c, 0, 83, 75
2, 73490, Note_on_c, 0, 78, 74
2, 73620, Note_on_c, 0, 71, 0
2, 73624, Note_on_c, 0, 75, 68
2, 73625, Note_on_c, 0, 66, 69
2, 73625, Note_on_c, 0, 71, 72
2, 73751, Note_on_c, 0, 90, 101
2, 73873, Note_on_c, 0, 83, 0
2, 73880, Note_on_c, 0, 83, 79
2, 74012, Note_on_c, 0, 75, 0
2, 74023, Note_on_c, 0, 92, 100
2, 74023, Note_on_c, 0, 75, 80
2, 74035, Note_on_c, 0, 66, 0
2, 74035, Note_on_c, 0, 71, 0
2, 74040, Note_on_c, 0, 66, 75
2, 74046, Note_on_c, 0, 71, 71
2, 74135, Note_on_c, 0, 83, 0
2, 74146, Note_on_c, 0, 83, 70
2, 74274, Note_on_c, 0, 71, 0
2, 74274, Control_c, 0, 64, 0
2, 74274, Note_on_c, 0, 90, 0
2, 74274, Note_on_c, 0, 59, 0
2, 74275, Note_on_c, 0, 87, 0
2, 74275, Note_on_c, 0, 66, 0
2, 74276, Note_on_c, 0, 78, 0
2, 74296, Note_on_c, 0, 75, 0
2, 74296, Note_on_c, 0, 83, 0
2, 74300, Note_on_c, 0, 93, 104
2, 74308, Note_on_c, 0, 57, 79
2, 74312, Note_on_c, 0, 69, 85
2, 74357, Control_c, 0, 64, 127
2, 74438, Note_on_c, 0, 88, 80
2, 74565, Note_on_c, 0, 69, 0
2, 74571, Note_on_c, 0, 85, 80
2, 74575, Note_on_c, 0, 69, 53
2, 74697, Note_on_c, 0, 81, 83
2, 74721, Note_on_c, 0, 76, 71
2, 74726, Note_on_c, 0, 69, 0
2, 74733, Note_on_c, 0, 69, 56
2, 74740, Note_on_c, 0, 73, 66
2, 74837, Note_on_c, 0, 95, 105
2, 74872, Note_on_c, 0, 92, 0
2, 74956, Note_on_c, 0, 85, 0
2, 74961, Note_on_c, 0, 85, 72
2, 74963, Note_on_c, 0, 62, 49
2, 74972, Note_on_c, 0, 62, 0
2, 75102, Note_on_c, 0, 76, 0
2, 75102, Note_on_c, 0, 93, 0
2, 75107, Note_on_c, 0, 93, 98
2, 75108, Note_on_c, 0, 76, 76
2, 75110, Note_on_c, 0, 73, 0
2, 75116, Note_on_c, 0, 73, 85
2, 75141, Note_on_c, 0, 69, 0
2, 75144, Note_on_c, 0, 69, 54
2, 75153, Note_on_c, 0, 90, 52
2, 75233, Note_on_c, 0, 85, 0
2, 75237, Note_on_c, 0, 85, 74
2, 75242, Note_on_c, 0, 62, 45
2, 75362, Note_on_c, 0, 85, 0
2, 75363, Note_on_c, 0, 73, 0
2, 75363, Note_on_c, 0, 81, 0
2, 75363, Note_on_c, 0, 69, 0
2, 75363, Note_on_c, 0, 95, 0
2, 75365, Note_on_c, 0, 88, 0
2, 75368, Control_c, 0, 64, 0
2, 75371, Note_on_c, 0, 57, 0
2, 75379, Note_on_c, 0, 62, 0
2, 75379, Note_on_c, 0, 76, 0
2, 75383, Note_on_c, 0, 92, 103
2, 75398, Note_on_c, 0, 64, 83
2, 75399, Note_on_c, 0, 52, 79
2, 75425, Note_on_c, 0, 90, 0
2, 75456, Control_c, 0, 64, 127
2, 75511, Note_on_c, 0, 88, 78
2, 75650, Note_on_c, 0, 83, 75
2, 75770, Note_on_c, 0, 93, 0
2, 75773, Note_on_c, 0, 80, 77
2, 75798, Note_on_c, 0, 76, 74
2, 75798, Note_on_c, 0, 68, 74
2, 75801, Note_on_c, 0, 71, 77
2, 75923, Note_on_c, 0, 90, 97
2, 75926, Note_on_c, 0, 52, 0
2, 76039, Note_on_c, 0, 83, 0
2, 76046, Note_on_c, 0, 83, 74
2, 76177, Note_on_c, 0, 71, 0
2, 76177, Note_on_c, 0, 76, 0
2, 76177, Note_on_c, 0, 92, 0
2, 76181, Note_on_c, 0, 76, 83
2, 76185, Note_on_c, 0, 64, 0
2, 76185, Note_on_c, 0, 68, 0
2, 76188, Note_on_c, 0, 71, 70
2, 76189, Note_on_c, 0, 92, 98
2, 76190, Note_on_c, 0, 68, 82
2, 76195, Note_on_c, 0, 64, 69
2, 76316, Note_on_c, 0, 83, 0
2, 76320, Note_on_c, 0, 83, 67
2, 76414, Note_on_c, 0, 68, 0
2, 76415, Note_on_c, 0, 80, 0
2, 76415, Note_on_c, 0, 64, 0
2, 76415, Note_on_c, 0, 92, 0
2, 76416, Note_on_c, 0, 90, 0
2, 76416, Note_on_c, 0, 71, 0
2, 76417, Note_on_c, 0, 83, 0
2, 76417, Note_on_c, 0, 88, 0
2, 76417, Control_c, 0, 64, 0
2, 76417, Note_on_c, 0, 76, 0
2, 76452, Note_on_c, 0, 93, 103
2, 76471, Note_on_c, 0, 54, 78
2, 76477, Note_on_c, 0, 66, 75
2, 76482, Note_on_c, 0, 90, 65
2, 76508, Control_c, 0, 64, 127
2, 76589, Note_on_c, 0, 85, 78
2, 76710, Note_on_c, 0, 92, 101
2, 76723, Note_on_c, 0, 54, 0
2, 76727, Note_on_c, 0, 54, 50
2, 76846, Note_on_c, 0, 85, 0
2, 76848, Note_on_c, 0, 76, 81
2, 76852, Note_on_c, 0, 85, 73
2, 76854, Note_on_c, 0, 69, 71
2, 76856, Note_on_c, 0, 73, 73
2, 76976, Note_on_c, 0, 90, 0
2, 76983, Note_on_c, 0, 90, 97
2, 76996, Note_on_c, 0, 42, 54
2, 77107, Note_on_c, 0, 85, 0
2, 77118, Note_on_c, 0, 85, 76
2, 77237, Note_on_c, 0, 76, 0
2, 77245, Note_on_c, 0, 69, 0
2, 77245, Note_on_c, 0, 73, 0
2, 77247, Note_on_c, 0, 76, 89
2, 77250, Note_on_c, 0, 88, 88
2, 77251, Note_on_c, 0, 73, 81
2, 77251, Note_on_c, 0, 69, 77
2, 77252, Note_on_c, 0, 45, 51
2, 77252, Note_on_c, 0, 57, 61
2, 77368, Note_on_c, 0, 85, 0
2, 77378, Note_on_c, 0, 85, 75
2, 77466, Note_on_c, 0, 93, 0
2, 77467, Control_c, 0, 64, 0
2, 77467, Note_on_c, 0, 54, 0
2, 77467, Note_on_c, 0, 92, 0
2, 77468, Note_on_c, 0, 57, 0
2, 77468, Note_on_c, 0, 45, 0
2, 77468, Note_on_c, 0, 69, 0
2, 77468, Note_on_c, 0, 73, 0
2, 77469, Note_on_c, 0, 88, 0
2, 77470, Note_on_c, 0, 76, 0
2, 77475, Note_on_c, 0, 42, 0
2, 77483, Note_on_c, 0, 66, 0
2, 77483, Note_on_c, 0, 85, 0
2, 77506, Note_on_c, 0, 90, 0
2, 77517, Note_on_c, 0, 90, 104
2, 77518, Note_on_c, 0, 47, 76
2, 77521, Note_on_c, 0, 59, 73
2, 77527, Note_on_c, 0, 87, 78
2, 77527, Note_on_c, 0, 83, 76
2, 77552, Control_c, 0, 64, 127
2, 77788, Note_on_c, 0, 71, 86
2, 77840, Note_on_c, 0, 69, 75
2, 77903, Note_on_c, 0, 68, 81
2, 77964, Note_on_c, 0, 66, 82
2, 78040, Note_on_c, 0, 64, 90
2, 78042, Note_on_c, 0, 88, 97
2, 78045, Note_on_c, 0, 76, 94
2, 78093, Note_on_c, 0, 63, 68
2, 78148, Note_on_c, 0, 61, 81
2, 78236, Note_on_c, 0, 59, 0
2, 78241, Note_on_c, 0, 59, 78
2, 78320, Note_on_c, 0, 90, 0
2, 78324, Note_on_c, 0, 90, 103
2, 78327, Note_on_c, 0, 78, 97
2, 78328, Note_on_c, 0, 56, 80
2, 78332, Note_on_c, 0, 71, 0
2, 78332, Note_on_c, 0, 83, 0
2, 78335, Note_on_c, 0, 68, 0
2, 78402, Note_on_c, 0, 54, 68
2, 78472, Note_on_c, 0, 52, 79
2, 78551, Note_on_c, 0, 69, 0
2, 78551, Note_on_c, 0, 66, 0
2, 78551, Note_on_c, 0, 54, 0
2, 78552, Note_on_c, 0, 63, 0
2, 78553, Control_c, 0, 64, 0
2, 78553, Note_on_c, 0, 78, 0
2, 78554, Note_on_c, 0, 76, 0
2, 78554, Note_on_c, 0, 88, 0
2, 78558, Note_on_c, 0, 61, 0
2, 78558, Note_on_c, 0, 87, 0
2, 78566, Note_on_c, 0, 47, 0
2, 78566, Note_on_c, 0, 56, 0
2, 78566, Note_on_c, 0, 59, 0
2, 78566, Note_on_c, 0, 64, 0
2, 78574, Note_on_c, 0, 52, 0
2, 78581, Note_on_c, 0, 90, 0
2, 78583, Note_on_c, 0, 80, 108
2, 78584, Note_on_c, 0, 92, 110
2, 78584, Note_on_c, 0, 52, 76
2, 78585, Note_on_c, 0, 83, 94
2, 78587, Note_on_c, 0, 40, 72
2, 78599, Note_on_c, 0, 88, 68
2, 78627, Control_c, 0, 64, 127
2, 78727, Note_on_c, 0, 52, 0
2, 78735, Note_on_c, 0, 40, 0
2, 78737, Note_on_c, 0, 52, 60
2, 78738, Note_on_c, 0, 76, 78
2, 78744, Note_on_c, 0, 40, 49
2, 78858, Note_on_c, 0, 76, 0
2, 78863, Note_on_c, 0, 64, 82
2, 78864, Note_on_c, 0, 76, 86
2, 78870, Note_on_c, 0, 59, 75
2, 78873, Note_on_c, 0, 83, 0
2, 78878, Note_on_c, 0, 83, 84
2, 78881, Note_on_c, 0, 80, 0
2, 78887, Note_on_c, 0, 80, 80
2, 78988, Note_on_c, 0, 76, 0
2, 78988, Note_on_c, 0, 88, 0
2, 78994, Note_on_c, 0, 88, 79
2, 78994, Note_on_c, 0, 76, 84
2, 79004, Note_on_c, 0, 40, 0
2, 79004, Note_on_c, 0, 52, 0
2, 79008, Note_on_c, 0, 52, 70
2, 79011, Note_on_c, 0, 40, 56
2, 79119, Note_on_c, 0, 52, 0
2, 79127, Note_on_c, 0, 59, 0
2, 79127, Note_on_c, 0, 52, 71
2, 79128, Note_on_c, 0, 68, 97
2, 79129, Note_on_c, 0, 93, 103
2, 79130, Note_on_c, 0, 81, 97
2, 79138, Note_on_c, 0, 59, 82
2, 79257, Note_on_c, 0, 76, 0
2, 79264, Note_on_c, 0, 76, 85
2, 79265, Note_on_c, 0, 52, 0
2, 79269, Note_on_c, 0, 52, 63
2, 79380, Note_on_c, 0, 59, 0
2, 79380, Note_on_c, 0, 64, 0
2, 79380, Note_on_c, 0, 80, 0
2, 79380, Note_on_c, 0, 92, 0
2, 79384, Note_on_c, 0, 92, 105
2, 79385, Note_on_c, 0, 80, 105
2, 79391, Note_on_c, 0, 64, 81
2, 79391, Note_on_c, 0, 59, 69
2, 79503, Note_on_c, 0, 59, 0
2, 79511, Note_on_c, 0, 76, 0
2, 79513, Note_on_c, 0, 59, 80
2, 79515, Note_on_c, 0, 47, 55
2, 79520, Note_on_c, 0, 76, 69
2, 79618, Note_on_c, 0, 93, 0
2, 79619, Note_on_c, 0, 68, 0
2, 79619, Note_on_c, 0, 92, 0
2, 79619, Note_on_c, 0, 83, 0
2, 79620, Note_on_c, 0, 88, 0
2, 79620, Note_on_c, 0, 81, 0
2, 79620, Note_on_c, 0, 80, 0
2, 79620, Note_on_c, 0, 40, 0
2, 79621, Note_on_c, 0, 76, 0
2, 79621, Control_c, 0, 64, 0
2, 79621, Note_on_c, 0, 59, 0
2, 79633, Note_on_c, 0, 52, 0
2, 79633, Note_on_c, 0, 64, 0
2, 79641, Note_on_c, 0, 47, 0
2, 79642, Note_on_c, 0, 90, 103
2, 79653, Note_on_c, 0, 47, 78
2, 79653, Note_on_c, 0, 87, 77
2, 79654, Note_on_c, 0, 78, 86
2, 79680, Control_c, 0, 64, 127
2, 79787, Note_on_c, 0, 71, 89
2, 79821, Note_on_c, 0, 59, 58
2, 79910, Note_on_c, 0, 78, 0
2, 79910, Note_on_c, 0, 90, 0
2, 79913, Note_on_c, 0, 87, 0
2, 79914, Control_c, 0, 64, 0
2, 79914, Note_on_c, 0, 71, 0
2, 79914, Note_on_c, 0, 78, 97
2, 79915, Note_on_c, 0, 90, 103
2, 79915, Note_on_c, 0, 66, 81
2, 79919, Note_on_c, 0, 63, 65
2, 79933, Note_on_c, 0, 47, 0
2, 79933, Control_c, 0, 64, 127
2, 80040, Note_on_c, 0, 59, 0
2, 80047, Note_on_c, 0, 59, 61
2, 80050, Note_on_c, 0, 71, 81
2, 80152, Note_on_c, 0, 66, 0
2, 80153, Note_on_c, 0, 90, 0
2, 80153, Note_on_c, 0, 63, 0
2, 80153, Note_on_c, 0, 59, 0
2, 80153, Note_on_c, 0, 78, 0
2, 80155, Note_on_c, 0, 71, 0
2, 80155, Control_c, 0, 64, 0
2, 80176, Note_on_c, 0, 88, 99
2, 80179, Note_on_c, 0, 76, 94
2, 80180, Note_on_c, 0, 80, 96
2, 80180, Note_on_c, 0, 72, 90
2, 80182, Note_on_c, 0, 60, 78
2, 80182, Note_on_c, 0, 48, 74
2, 80209, Control_c, 0, 64, 127
2, 80225, Note_on_c, 0, 72, 0
2, 80317, Note_on_c, 0, 60, 0
2, 80320, Note_on_c, 0, 72, 76
2, 80328, Note_on_c, 0, 60, 63
2, 80340, Note_on_c, 0, 48, 0
2, 80344, Note_on_c, 0, 48, 51
2, 80434, Note_on_c, 0, 76, 0
2, 80435, Control_c, 0, 64, 0
2, 80437, Note_on_c, 0, 80, 0
2, 80441, Note_on_c, 0, 75, 103
2, 80442, Note_on_c, 0, 87, 97
2, 80444, Note_on_c, 0, 66, 82
2, 80451, Note_on_c, 0, 63, 66
2, 80463, Control_c, 0, 64, 127
2, 80570, Note_on_c, 0, 60, 0
2, 80570, Note_on_c, 0, 72, 0
2, 80578, Note_on_c, 0, 72, 88
2, 80582, Note_on_c, 0, 60, 67
2, 80593, Note_on_c, 0, 48, 0
2, 80598, Note_on_c, 0, 48, 54
2, 80680, Note_on_c, 0, 72, 0
2, 80680, Note_on_c, 0, 48, 0
2, 80681, Control_c, 0, 64, 0
2, 80681, Note_on_c, 0, 66, 0
2, 80681, Note_on_c, 0, 60, 0
2, 80681, Note_on_c, 0, 75, 0
2, 80681, Note_on_c, 0, 63, 0
2, 80682, Note_on_c, 0, 87, 0
2, 80701, Note_on_c, 0, 88, 0
2, 80706, Note_on_c, 0, 88, 99
2, 80711, Note_on_c, 0, 76, 100
2, 80712, Note_on_c, 0, 80, 90
2, 80713, Note_on_c, 0, 61, 84
2, 80713, Note_on_c, 0, 49, 80
2, 80747, Control_c, 0, 64, 127
2, 80850, Note_on_c, 0, 73, 92
2, 80860, Note_on_c, 0, 56, 64
2, 80867, Note_on_c, 0, 66, 44
2, 80976, Note_on_c, 0, 75, 99
2, 80977, Note_on_c, 0, 87, 99
2, 80977, Note_on_c, 0, 61, 0
2, 80985, Note_on_c, 0, 61, 70
2, 80986, Note_on_c, 0, 64, 72
2, 81100, Note_on_c, 0, 73, 0
2, 81111, Note_on_c, 0, 73, 83
2, 81123, Note_on_c, 0, 56, 0
2, 81128, Note_on_c, 0, 56, 61
2, 81138, Note_on_c, 0, 68, 52
2, 81231, Note_on_c, 0, 68, 0
2, 81231, Note_on_c, 0, 76, 0
2, 81231, Note_on_c, 0, 88, 0
2, 81236, Note_on_c, 0, 68, 86
2, 81239, Note_on_c, 0, 61, 0
2, 81240, Note_on_c, 0, 88, 100
2, 81241, Note_on_c, 0, 76, 100
2, 81243, Note_on_c, 0, 61, 77
2, 81246, Control_c, 0, 64, 0
2, 81262, Note_on_c, 0, 66, 0
2, 81269, Control_c, 0, 64, 127
2, 81369, Note_on_c, 0, 73, 0
2, 81376, Note_on_c, 0, 73, 95
2, 81392, Note_on_c, 0, 56, 0
2, 81396, Note_on_c, 0, 56, 62
2, 81492, Note_on_c, 0, 80, 0
2, 81500, Note_on_c, 0, 61, 0
2, 81500, Note_on_c, 0, 64, 0
2, 81500, Note_on_c, 0, 80, 108
2, 81502, Note_on_c, 0, 92, 106
2, 81508, Note_on_c, 0, 64, 85
2, 81509, Note_on_c, 0, 61, 73
2, 81630, Note_on_c, 0, 56, 0
2, 81630, Note_on_c, 0, 75, 0
2, 81634, Note_on_c, 0, 75, 66
2, 81638, Note_on_c, 0, 56, 70
2, 81735, Note_on_c, 0, 80, 0
2, 81735, Note_on_c, 0, 68, 0
2, 81735, Note_on_c, 0, 92, 0
2, 81735, Note_on_c, 0, 56, 0
2, 81735, Note_on_c, 0, 73, 0
2, 81736, Note_on_c, 0, 49, 0
2, 81736, Note_on_c, 0, 64, 0
2, 81738, Control_c, 0, 64, 0
2, 81745, Note_on_c, 0, 61, 0
2, 81745, Note_on_c, 0, 76, 0
2, 81745, Note_on_c, 0, 87, 0
2, 81745, Note_on_c, 0, 88, 0
2, 81753, Note_on_c, 0, 75, 0
2, 81771, Note_on_c, 0, 93, 111
2, 81774, Note_on_c, 0, 81, 104
2, 81775, Note_on_c, 0, 84, 97
2, 81780, Note_on_c, 0, 48, 86
2, 81781, Note_on_c, 0, 60, 89
2, 81822, Control_c, 0, 64, 127
2, 81911, Note_on_c, 0, 72, 88
2, 81935, Note_on_c, 0, 57, 70
2, 82030, Note_on_c, 0, 81, 0
2, 82035, Note_on_c, 0, 81, 88
2, 82040, Note_on_c, 0, 76, 87
2, 82045, Note_on_c, 0, 72, 0
2, 82047, Note_on_c, 0, 64, 82
2, 82053, Note_on_c, 0, 60, 0
2, 82056, Note_on_c, 0, 72, 70
2, 82059, Note_on_c, 0, 60, 71
2, 82152, Note_on_c, 0, 72, 0
2, 82158, Note_on_c, 0, 72, 89
2, 82176, Note_on_c, 0, 57, 0
2, 82180, Note_on_c, 0, 57, 66
2, 82291, Note_on_c, 0, 48, 0
2, 82296, Control_c, 0, 64, 0
2, 82298, Note_on_c, 0, 95, 108
2, 82299, Note_on_c, 0, 48, 76
2, 82302, Note_on_c, 0, 84, 0
2, 82302, Note_on_c, 0, 83, 98
2, 82302, Note_on_c, 0, 76, 0
2, 82302, Note_on_c, 0, 72, 0
2, 82303, Note_on_c, 0, 81, 0
2, 82303, Note_on_c, 0, 57, 0
2, 82303, Note_on_c, 0, 64, 0
2, 82304, Note_on_c, 0, 69, 85
2, 82316, Note_on_c, 0, 93, 0
2, 82329, Note_on_c, 0, 60, 0
2, 82360, Control_c, 0, 64, 127
2, 82375, Note_on_c, 0, 95, 0
2, 82429, Note_on_c, 0, 69, 0
2, 82435, Note_on_c, 0, 57, 73
2, 82437, Note_on_c, 0, 69, 64
2, 82438, Note_on_c, 0, 76, 74
2, 82444, Note_on_c, 0, 76, 0
2, 82559, Note_on_c, 0, 93, 103
2, 82563, Note_on_c, 0, 81, 94
2, 82564, Note_on_c, 0, 60, 75
2, 82567, Note_on_c, 0, 64, 79
2, 82688, Note_on_c, 0, 76, 79
2, 82698, Note_on_c, 0, 57, 0
2, 82708, Note_on_c, 0, 57, 68
2, 82790, Note_on_c, 0, 57, 0
2, 82791, Note_on_c, 0, 64, 0
2, 82792, Note_on_c, 0, 93, 0
2, 82792, Note_on_c, 0, 81, 0
2, 82793, Control_c, 0, 64, 0
2, 82793, Note_on_c, 0, 76, 0
2, 82798, Note_on_c, 0, 48, 0
2, 82798, Note_on_c, 0, 60, 0
2, 82798, Note_on_c, 0, 69, 0
2, 82798, Note_on_c, 0, 83, 0
2, 82818, Note_on_c, 0, 92, 106
2, 82822, Note_on_c, 0, 80, 108
2, 82847, Note_on_c, 0, 59, 78
2, 82853, Note_on_c, 0, 47, 63
2, 82859, Control_c, 0, 64, 127
2, 82970, Note_on_c, 0, 71, 84
2, 82994, Note_on_c, 0, 56, 64
2, 83089, Note_on_c, 0, 80, 0
2, 83097, Note_on_c, 0, 59, 0
2, 83100, Note_on_c, 0, 80, 84
2, 83106, Note_on_c, 0, 76, 73
2, 83108, Note_on_c, 0, 59, 60
2, 83109, Note_on_c, 0, 64, 73
2, 83212, Note_on_c, 0, 71, 0
2, 83220, Note_on_c, 0, 71, 72
2, 83258, Note_on_c, 0, 56, 0
2, 83263, Note_on_c, 0, 56, 54
2, 83264, Note_on_c, 0, 68, 53
2, 83351, Note_on_c, 0, 59, 0
2, 83351, Note_on_c, 0, 68, 0
2, 83356, Note_on_c, 0, 93, 108
2, 83360, Note_on_c, 0, 68, 94
2, 83360, Note_on_c, 0, 81, 100
2, 83362, Note_on_c, 0, 59, 81
2, 83362, Note_on_c, 0, 71, 0
2, 83362, Note_on_c, 0, 76, 0
2, 83364, Note_on_c, 0, 47, 0
2, 83496, Note_on_c, 0, 56, 0
2, 83501, Note_on_c, 0, 76, 80
2, 83501, Note_on_c, 0, 56, 59
2, 83619, Note_on_c, 0, 80, 0
2, 83619, Note_on_c, 0, 92, 0
2, 83627, Note_on_c, 0, 59, 0
2, 83627, Note_on_c, 0, 64, 0
2, 83629, Note_on_c, 0, 92, 102
2, 83630, Note_on_c, 0, 80, 95
2, 83632, Note_on_c, 0, 64, 87
2, 83633, Note_on_c, 0, 59, 79
2, 83750, Note_on_c, 0, 56, 0
2, 83750, Note_on_c, 0, 76, 0
2, 83757, Note_on_c, 0, 56, 66
2, 83759, Note_on_c, 0, 76, 86
2, 83856, Control_c, 0, 64, 0
2, 83857, Note_on_c, 0, 56, 0
2, 83858, Note_on_c, 0, 81, 0
2, 83859, Note_on_c, 0, 93, 0
2, 83859, Note_on_c, 0, 92, 0
2, 83859, Note_on_c, 0, 80, 0
2, 83859, Note_on_c, 0, 64, 0
2, 83859, Note_on_c, 0, 59, 0
2, 83860, Note_on_c, 0, 76, 0
2, 83873, Note_on_c, 0, 68, 0
2, 83892, Note_on_c, 0, 90, 103
2, 83895, Note_on_c, 0, 78, 98
2, 83895, Note_on_c, 0, 82, 92
2, 83902, Note_on_c, 0, 85, 81
2, 83904, Note_on_c, 0, 46, 76
2, 83934, Control_c, 0, 64, 127
2, 84019, Note_on_c, 0, 46, 0
2, 84025, Note_on_c, 0, 46, 58
2, 84031, Note_on_c, 0, 70, 85
2, 84165, Note_on_c, 0, 78, 0
2, 84167, Note_on_c, 0, 73, 81
2, 84168, Note_on_c, 0, 61, 71
2, 84169, Note_on_c, 0, 78, 83
2, 84174, Note_on_c, 0, 58, 66
2, 84280, Note_on_c, 0, 70, 0
2, 84289, Note_on_c, 0, 70, 74
2, 84291, Note_on_c, 0, 54, 72
2, 84418, Note_on_c, 0, 46, 0
2, 84418, Note_on_c, 0, 58, 0
2, 84420, Note_on_c, 0, 76, 99
2, 84421, Note_on_c, 0, 66, 84
2, 84421, Note_on_c, 0, 88, 102
2, 84422, Note_on_c, 0, 61, 0
2, 84422, Note_on_c, 0, 73, 0
2, 84422, Note_on_c, 0, 70, 0
2, 84423, Control_c, 0, 64, 0
2, 84423, Note_on_c, 0, 82, 0
2, 84423, Note_on_c, 0, 90, 0
2, 84427, Note_on_c, 0, 46, 71
2, 84427, Note_on_c, 0, 58, 74
2, 84449, Control_c, 0, 64, 127
2, 84549, Note_on_c, 0, 54, 0
2, 84555, Note_on_c, 0, 54, 73
2, 84556, Note_on_c, 0, 73, 90
2, 84678, Note_on_c, 0, 61, 80
2, 84679, Note_on_c, 0, 58, 0
2, 84683, Note_on_c, 0, 87, 98
2, 84684, Note_on_c, 0, 58, 65
2, 84685, Note_on_c, 0, 75, 95
2, 84687, Note_on_c, 0, 66, 0
2, 84802, Note_on_c, 0, 73, 0
2, 84810, Note_on_c, 0, 54, 0
2, 84810, Note_on_c, 0, 73, 85
2, 84815, Note_on_c, 0, 54, 67
2, 84833, Note_on_c, 0, 61, 0
2, 84839, Note_on_c, 0, 61, 51
2, 84936, Note_on_c, 0, 46, 0
2, 84937, Note_on_c, 0, 87, 0
2, 84937, Control_c, 0, 64, 0
2, 84937, Note_on_c, 0, 73, 0
2, 84937, Note_on_c, 0, 75, 0
2, 84938, Note_on_c, 0, 58, 0
2, 84938, Note_on_c, 0, 61, 0
2, 84940, Note_on_c, 0, 78, 0
2, 84956, Note_on_c, 0, 54, 0
2, 84956, Note_on_c, 0, 76, 0
2, 84956, Note_on_c, 0, 85, 0
2, 84956, Note_on_c, 0, 88, 0
2, 84963, Note_on_c, 0, 88, 101
2, 84964, Note_on_c, 0, 60, 81
2, 84966, Note_on_c, 0, 76, 99
2, 84967, Note_on_c, 0, 79, 96
2, 84968, Note_on_c, 0, 48, 75
2, 85009, Control_c, 0, 64, 127
2, 85099, Note_on_c, 0, 72, 84
2, 85122, Note_on_c, 0, 55, 68
2, 85219, Note_on_c, 0, 64, 84
2, 85224, Note_on_c, 0, 60, 0
2, 85224, Note_on_c, 0, 76, 0
2, 85224, Note_on_c, 0, 79, 0
2, 85231, Note_on_c, 0, 79, 87
2, 85232, Note_on_c, 0, 72, 0
2, 85233, Note_on_c, 0, 76, 85
2, 85234, Note_on_c, 0, 60, 65
2, 85236, Note_on_c, 0, 72, 72
2, 85332, Note_on_c, 0, 72, 0
2, 85343, Note_on_c, 0, 72, 67
2, 85355, Note_on_c, 0, 48, 0
2, 85355, Note_on_c, 0, 55, 0
2, 85360, Note_on_c, 0, 48, 47
2, 85360, Note_on_c, 0, 55, 60
2, 85470, Note_on_c, 0, 55, 0
2, 85471, Note_on_c, 0, 64, 0
2, 85471, Note_on_c, 0, 60, 0
2, 85472, Note_on_c, 0, 79, 0
2, 85472, Note_on_c, 0, 48, 0
2, 85473, Note_on_c, 0, 76, 0
2, 85473, Control_c, 0, 64, 0
2, 85474, Note_on_c, 0, 88, 0
2, 85486, Note_on_c, 0, 81, 89
2, 85486, Note_on_c, 0, 72, 0
2, 85488, Note_on_c, 0, 78, 104
2, 85489, Note_on_c, 0, 90, 103
2, 85495, Note_on_c, 0, 62, 84
2, 85496, Note_on_c, 0, 50, 84
2, 85539, Control_c, 0, 64, 127
2, 85547, Note_on_c, 0, 81, 0
2, 85629, Note_on_c, 0, 74, 86
2, 85643, Note_on_c, 0, 57, 66
2, 85644, Note_on_c, 0, 69, 56
2, 85754, Note_on_c, 0, 57, 0
2, 85754, Note_on_c, 0, 62, 0
2, 85757, Note_on_c, 0, 81, 86
2, 85758, Note_on_c, 0, 66, 76
2, 85759, Note_on_c, 0, 62, 66
2, 85762, Note_on_c, 0, 78, 0
2, 85765, Note_on_c, 0, 57, 63
2, 85766, Note_on_c, 0, 78, 76
2, 85870, Note_on_c, 0, 57, 0
2, 85870, Note_on_c, 0, 74, 0
2, 85878, Note_on_c, 0, 74, 75
2, 85879, Note_on_c, 0, 57, 69
2, 86000, Note_on_c, 0, 50, 0
2, 86012, Note_on_c, 0, 69, 0
2, 86014, Note_on_c, 0, 62, 0
2, 86014, Note_on_c, 0, 57, 0
2, 86014, Note_on_c, 0, 78, 0
2, 86014, Note_on_c, 0, 74, 0
2, 86014, Control_c, 0, 64, 0
2, 86015, Note_on_c, 0, 88, 99
2, 86015, Note_on_c, 0, 66, 0
2, 86016, Note_on_c, 0, 81, 0
2, 86018, Note_on_c, 0, 90, 0
2, 86020, Note_on_c, 0, 76, 97
2, 86021, Note_on_c, 0, 81, 90
2, 86021, Note_on_c, 0, 64, 89
2, 86023, Note_on_c, 0, 52, 78
2, 86024, Note_on_c, 0, 83, 87
2, 86060, Note_on_c, 0, 64, 0
2, 86092, Control_c, 0, 64, 127
2, 86146, Note_on_c, 0, 76, 0
2, 86146, Note_on_c, 0, 81, 0
2, 86151, Note_on_c, 0, 59, 74
2, 86152, Note_on_c, 0, 81, 81
2, 86156, Note_on_c, 0, 76, 82
2, 86157, Note_on_c, 0, 47, 63
2, 86157, Note_on_c, 0, 71, 74
2, 86223, Note_on_c, 0, 52, 0
2, 86228, Note_on_c, 0, 52, 76
2, 86400, Note_on_c, 0, 76, 0
2, 86405, Control_c, 0, 64, 0
2, 86407, Note_on_c, 0, 80, 98
2, 86407, Note_on_c, 0, 52, 0
2, 86411, Note_on_c, 0, 76, 87
2, 86413, Note_on_c, 0, 52, 78
2, 86415, Note_on_c, 0, 40, 71
2, 86418, Note_on_c, 0, 81, 0
2, 86418, Note_on_c, 0, 88, 0
2, 86421, Note_on_c, 0, 59, 0
2, 86421, Note_on_c, 0, 83, 0
2, 86530, Control_c, 0, 64, 127
2, 86638, Note_on_c, 0, 47, 0
2, 86829, Note_on_c, 0, 64, 102
2, 86957, Note_on_c, 0, 66, 92
2, 87081, Note_on_c, 0, 66, 0
2, 87082, Note_on_c, 0, 52, 0
2, 87082, Note_on_c, 0, 80, 0
2, 87083, Note_on_c, 0, 40, 0
2, 87085, Control_c, 0, 64, 0
2, 87091, Note_on_c, 0, 64, 0
2, 87091, Note_on_c, 0, 76, 0
2, 87095, Note_on_c, 0, 68, 100
2, 87098, Note_on_c, 0, 71, 0
2, 87100, Note_on_c, 0, 64, 92
2, 87101, Note_on_c, 0, 59, 88
2, 87102, Note_on_c, 0, 76, 84
2, 87152, Control_c, 0, 64, 127
2, 87169, Note_on_c, 0, 78, 79
2, 87208, Note_on_c, 0, 80, 79
2, 87276, Note_on_c, 0, 81, 72
2, 87328, Note_on_c, 0, 83, 80
2, 87378, Note_on_c, 0, 85, 73
2, 87379, Note_on_c, 0, 52, 74
2, 87402, Note_on_c, 0, 87, 58
2, 87451, Note_on_c, 0, 88, 84
2, 87518, Note_on_c, 0, 90, 89
2, 87576, Note_on_c, 0, 92, 85
2, 87641, Note_on_c, 0, 69, 101
2, 87657, Note_on_c, 0, 93, 85
2, 87720, Note_on_c, 0, 92, 0
2, 87727, Note_on_c, 0, 92, 78
2, 87782, Note_on_c, 0, 90, 0
2, 87787, Note_on_c, 0, 90, 80
2, 87813, Note_on_c, 0, 88, 0
2, 87824, Note_on_c, 0, 88, 83
2, 87905, Note_on_c, 0, 68, 0
2, 87905, Note_on_c, 0, 87, 0
2, 87909, Note_on_c, 0, 68, 84
2, 87916, Note_on_c, 0, 87, 74
2, 87959, Note_on_c, 0, 85, 0
2, 87966, Note_on_c, 0, 85, 71
2, 88020, Note_on_c, 0, 83, 0
2, 88024, Note_on_c, 0, 83, 73
2, 88081, Note_on_c, 0, 81, 0
2, 88092, Note_on_c, 0, 81, 89
2, 88153, Note_on_c, 0, 93, 0
2, 88153, Note_on_c, 0, 69, 0
2, 88154, Note_on_c, 0, 90, 0
2, 88154, Note_on_c, 0, 81, 0
2, 88154, Note_on_c, 0, 59, 0
2, 88154, Note_on_c, 0, 52, 0
2, 88154, Note_on_c, 0, 64, 0
2, 88154, Note_on_c, 0, 68, 0
2, 88154, Note_on_c, 0, 85, 0
2, 88154, Note_on_c, 0, 80, 0
2, 88154, Note_on_c, 0, 87, 0
2, 88154, Note_on_c, 0, 83, 0
2, 88155, Note_on_c, 0, 78, 0
2, 88157, Note_on_c, 0, 76, 0
2, 88158, Control_c, 0, 64, 0
2, 88174, Note_on_c, 0, 88, 0
2, 88174, Note_on_c, 0, 92, 0
2, 88178, Note_on_c, 0, 66, 99
2, 88180, Note_on_c, 0, 80, 86
2, 88185, Note_on_c, 0, 63, 86
2, 88186, Note_on_c, 0, 59, 87
2, 88243, Control_c, 0, 64, 127
2, 88245, Note_on_c, 0, 78, 83
2, 88258, Note_on_c, 0, 59, 0
2, 88309, Note_on_c, 0, 76, 76
2, 88379, Note_on_c, 0, 75, 74
2, 88442, Note_on_c, 0, 76, 0
2, 88452, Note_on_c, 0, 76, 75
2, 88454, Note_on_c, 0, 47, 76
2, 88512, Note_on_c, 0, 78, 0
2, 88523, Note_on_c, 0, 78, 84
2, 88573, Note_on_c, 0, 80, 0
2, 88579, Note_on_c, 0, 80, 80
2, 88646, Note_on_c, 0, 81, 87
2, 88722, Note_on_c, 0, 64, 102
2, 88724, Note_on_c, 0, 69, 71
2, 88725, Note_on_c, 0, 85, 82
2, 88788, Note_on_c, 0, 83, 78
2, 88849, Note_on_c, 0, 81, 0
2, 88854, Note_on_c, 0, 81, 84
2, 88888, Note_on_c, 0, 69, 0
2, 88919, Note_on_c, 0, 66, 0
2, 88919, Note_on_c, 0, 80, 0
2, 88928, Note_on_c, 0, 66, 59
2, 88929, Note_on_c, 0, 80, 82
2, 88988, Note_on_c, 0, 63, 0
2, 88993, Note_on_c, 0, 63, 85
2, 88995, Note_on_c, 0, 81, 0
2, 88999, Note_on_c, 0, 81, 90
2, 89072, Note_on_c, 0, 83, 0
2, 89078, Note_on_c, 0, 83, 83
2, 89134, Note_on_c, 0, 85, 0
2, 89138, Note_on_c, 0, 85, 77
2, 89188, Note_on_c, 0, 87, 75
2, 89241, Note_on_c, 0, 64, 0
2, 89243, Note_on_c, 0, 81, 0
2, 89243, Note_on_c, 0, 63, 0
2, 89243, Note_on_c, 0, 80, 0
2, 89243, Note_on_c, 0, 66, 0
2, 89244, Note_on_c, 0, 85, 0
2, 89244, Note_on_c, 0, 76, 0
2, 89244, Note_on_c, 0, 75, 0
2, 89244, Control_c, 0, 64, 0
2, 89245, Note_on_c, 0, 47, 0
2, 89246, Note_on_c, 0, 87, 0
2, 89248, Note_on_c, 0, 64, 101
2, 89250, Note_on_c, 0, 88, 87
2, 89253, Note_on_c, 0, 61, 89
2, 89254, Note_on_c, 0, 56, 87
2, 89256, Note_on_c, 0, 78, 0
2, 89264, Note_on_c, 0, 83, 0
2, 89333, Control_c, 0, 64, 127
2, 89345, Note_on_c, 0, 87, 76
2, 89418, Note_on_c, 0, 85, 71
2, 89462, Note_on_c, 0, 83, 77
2, 89535, Note_on_c, 0, 49, 88
2, 89537, Note_on_c, 0, 90, 86
2, 89587, Note_on_c, 0, 88, 0
2, 89598, Note_on_c, 0, 88, 83
2, 89671, Note_on_c, 0, 87, 0
2, 89678, Note_on_c, 0, 87, 84
2, 89725, Note_on_c, 0, 85, 0
2, 89736, Note_on_c, 0, 85, 80
2, 89803, Note_on_c, 0, 66, 101
2, 89804, Note_on_c, 0, 92, 96
2, 89871, Note_on_c, 0, 90, 0
2, 89879, Note_on_c, 0, 90, 78
2, 89925, Note_on_c, 0, 88, 0
2, 89931, Note_on_c, 0, 88, 76
2, 89994, Note_on_c, 0, 87, 0
2, 89998, Note_on_c, 0, 87, 61
2, 90055, Note_on_c, 0, 64, 0
2, 90059, Note_on_c, 0, 93, 102
2, 90067, Note_on_c, 0, 64, 87
2, 90117, Note_on_c, 0, 92, 0
2, 90128, Note_on_c, 0, 92, 84
2, 90186, Note_on_c, 0, 90, 0
2, 90191, Note_on_c, 0, 90, 82
2, 90247, Note_on_c, 0, 88, 0
2, 90253, Note_on_c, 0, 88, 82
2, 90310, Note_on_c, 0, 66, 0
2, 90310, Note_on_c, 0, 93, 0
2, 90311, Note_on_c, 0, 87, 0
2, 90311, Note_on_c, 0, 83, 0
2, 90311, Note_on_c, 0, 61, 0
2, 90311, Note_on_c, 0, 90, 0
2, 90311, Note_on_c, 0, 64, 0
2, 90312, Note_on_c, 0, 88, 0
2, 90312, Note_on_c, 0, 49, 0
2, 90315, Control_c, 0, 64, 0
2, 90316, Note_on_c, 0, 56, 0
2, 90324, Note_on_c, 0, 85, 0
2, 90332, Note_on_c, 0, 63, 94
2, 90335, Note_on_c, 0, 95, 99
2, 90339, Note_on_c, 0, 92, 0
2, 90344, Note_on_c, 0, 54, 81
2, 90345, Note_on_c, 0, 59, 84
2, 90347, Note_on_c, 0, 47, 69
2, 90385, Control_c, 0, 64, 127
2, 90420, Note_on_c, 0, 93, 88
2, 90483, Note_on_c, 0, 97, 77
2, 90531, Note_on_c, 0, 95, 0
2, 90538, Note_on_c, 0, 95, 98
2, 90554, Note_on_c, 0, 47, 0
2, 90601, Note_on_c, 0, 99, 88
2, 90603, Note_on_c, 0, 47, 76
2, 90670, Note_on_c, 0, 97, 0
2, 90676, Note_on_c, 0, 97, 84
2, 90719, Note_on_c, 0, 100, 90
2, 90800, Note_on_c, 0, 99, 0
2, 90804, Note_on_c, 0, 99, 78
2, 90866, Note_on_c, 0, 66, 107
2, 90866, Note_on_c, 0, 102, 97
2, 90938, Note_on_c, 0, 100, 0
2, 90949, Note_on_c, 0, 100, 82
2, 91031, Note_on_c, 0, 99, 0
2, 91036, Note_on_c, 0, 99, 72
2, 91084, Note_on_c, 0, 97, 0
2, 91093, Note_on_c, 0, 97, 74
2, 91123, Note_on_c, 0, 95, 0
2, 91133, Note_on_c, 0, 95, 73
2, 91147, Note_on_c, 0, 68, 98
2, 91150, Note_on_c, 0, 59, 0
2, 91200, Note_on_c, 0, 63, 0
2, 91215, Note_on_c, 0, 93, 0
2, 91219, Note_on_c, 0, 93, 79
2, 91282, Note_on_c, 0, 92, 88
2, 91353, Note_on_c, 0, 90, 75
2, 91392, Note_on_c, 0, 54, 0
2, 91395, Note_on_c, 0, 95, 0
2, 91395, Note_on_c, 0, 93, 0
2, 91396, Note_on_c, 0, 66, 0
2, 91396, Note_on_c, 0, 90, 0
2, 91396, Note_on_c, 0, 102, 0
2, 91396, Note_on_c, 0, 68, 0
2, 91396, Note_on_c, 0, 92, 0
2, 91396, Note_on_c, 0, 99, 0
2, 91396, Note_on_c, 0, 97, 0
2, 91399, Note_on_c, 0, 47, 0
2, 91401, Note_on_c, 0, 100, 0
2, 91403, Control_c, 0, 64, 0
2, 91416, Note_on_c, 0, 69, 103
2, 91419, Note_on_c, 0, 64, 95
2, 91420, Note_on_c, 0, 61, 88
2, 91425, Note_on_c, 0, 57, 74
2, 91468, Control_c, 0, 64, 127
2, 91475, Note_on_c, 0, 87, 83
2, 91549, Note_on_c, 0, 88, 82
2, 91619, Note_on_c, 0, 90, 82
2, 91668, Note_on_c, 0, 69, 0
2, 91683, Note_on_c, 0, 92, 92
2, 91695, Note_on_c, 0, 45, 83
2, 91752, Note_on_c, 0, 90, 0
2, 91764, Note_on_c, 0, 90, 85
2, 91829, Note_on_c, 0, 92, 0
2, 91838, Note_on_c, 0, 92, 88
2, 91896, Note_on_c, 0, 93, 81
2, 91962, Note_on_c, 0, 95, 95
2, 91983, Control_c, 0, 64, 0
2, 91987, Note_on_c, 0, 71, 99
2, 92014, Control_c, 0, 64, 127
2, 92029, Note_on_c, 0, 93, 0
2, 92037, Note_on_c, 0, 93, 91
2, 92098, Note_on_c, 0, 92, 0
2, 92109, Note_on_c, 0, 92, 80
2, 92160, Note_on_c, 0, 90, 0
2, 92163, Note_on_c, 0, 90, 77
2, 92198, Note_on_c, 0, 88, 0
2, 92209, Note_on_c, 0, 88, 83
2, 92249, Note_on_c, 0, 69, 91
2, 92290, Note_on_c, 0, 87, 0
2, 92295, Note_on_c, 0, 87, 79
2, 92355, Note_on_c, 0, 85, 74
2, 92431, Note_on_c, 0, 83, 74
2, 92493, Note_on_c, 0, 93, 0
2, 92493, Note_on_c, 0, 95, 0
2, 92493, Note_on_c, 0, 90, 0
2, 92493, Note_on_c, 0, 92, 0
2, 92494, Note_on_c, 0, 87, 0
2, 92494, Note_on_c, 0, 85, 0
2, 92494, Note_on_c, 0, 69, 0
2, 92494, Note_on_c, 0, 61, 0
2, 92494, Note_on_c, 0, 88, 0
2, 92494, Note_on_c, 0, 83, 0
2, 92494, Note_on_c, 0, 71, 0
2, 92495, Control_c, 0, 64, 0
2, 92513, Note_on_c, 0, 45, 0
2, 92513, Note_on_c, 0, 57, 0
2, 92513, Note_on_c, 0, 64, 0
2, 92518, Note_on_c, 0, 68, 101
2, 92518, Note_on_c, 0, 80, 89
2, 92523, Note_on_c, 0, 64, 91
2, 92525, Note_on_c, 0, 59, 88
2, 92574, Control_c, 0, 64, 127
2, 92590, Note_on_c, 0, 80, 0
2, 92598, Note_on_c, 0, 80, 77
2, 92660, Note_on_c, 0, 88, 88
2, 92755, Note_on_c, 0, 87, 87
2, 92793, Note_on_c, 0, 52, 79
2, 92793, Note_on_c, 0, 40, 72
2, 92820, Note_on_c, 0, 85, 74
2, 92872, Note_on_c, 0, 83, 78
2, 92922, Note_on_c, 0, 81, 85
2, 92989, Note_on_c, 0, 80, 0
2, 92993, Note_on_c, 0, 80, 81
2, 93062, Control_c, 0, 64, 0
2, 93065, Note_on_c, 0, 78, 90
2, 93066, Note_on_c, 0, 66, 103
2, 93069, Note_on_c, 0, 81, 0
2, 93069, Note_on_c, 0, 83, 0
2, 93081, Note_on_c, 0, 68, 0
2, 93089, Control_c, 0, 64, 127
2, 93111, Note_on_c, 0, 76, 76
2, 93202, Note_on_c, 0, 83, 87
2, 93275, Note_on_c, 0, 81, 78
2, 93327, Note_on_c, 0, 80, 0
2, 93330, Note_on_c, 0, 68, 90
2, 93331, Note_on_c, 0, 80, 79
2, 93388, Note_on_c, 0, 78, 0
2, 93393, Note_on_c, 0, 78, 78
2, 93419, Note_on_c, 0, 76, 0
2, 93424, Note_on_c, 0, 76, 84
2, 93496, Note_on_c, 0, 40, 0
2, 93504, Note_on_c, 0, 75, 81
2, 93568, Note_on_c, 0, 68, 0
2, 93568, Note_on_c, 0, 81, 0
2, 93568, Note_on_c, 0, 66, 0
2, 93569, Note_on_c, 0, 83, 0
2, 93569, Note_on_c, 0, 80, 0
2, 93569, Note_on_c, 0, 76, 0
2, 93569, Note_on_c, 0, 75, 0
2, 93570, Note_on_c, 0, 78, 0
2, 93570, Note_on_c, 0, 73, 85
2, 93570, Control_c, 0, 64, 0
2, 93573, Note_on_c, 0, 85, 0
2, 93573, Note_on_c, 0, 87, 0
2, 93573, Note_on_c, 0, 88, 0
2, 93578, Note_on_c, 0, 54, 76
2, 93580, Note_on_c, 0, 59, 0
2, 93580, Note_on_c, 0, 64, 0
2, 93584, Note_on_c, 0, 61, 88
2, 93585, Note_on_c, 0, 64, 91
2, 93588, Note_on_c, 0, 52, 0
2, 93607, Note_on_c, 0, 69, 102
2, 93649, Control_c, 0, 64, 127
2, 93690, Note_on_c, 0, 76, 84
2, 93779, Note_on_c, 0, 78, 80
2, 93821, Note_on_c, 0, 80, 89
2, 93868, Note_on_c, 0, 68, 93
2, 93876, Note_on_c, 0, 81, 65
2, 93954, Note_on_c, 0, 83, 88
2, 94026, Note_on_c, 0, 85, 70
2, 94075, Note_on_c, 0, 87, 80
2, 94133, Note_on_c, 0, 54, 0
2, 94133, Note_on_c, 0, 64, 0
2, 94135, Note_on_c, 0, 66, 103
2, 94136, Control_c, 0, 64, 0
2, 94140, Note_on_c, 0, 69, 0
2, 94141, Note_on_c, 0, 61, 0
2, 94141, Note_on_c, 0, 85, 0
2, 94143, Note_on_c, 0, 68, 0
2, 94144, Note_on_c, 0, 64, 88
2, 94144, Note_on_c, 0, 78, 0
2, 94144, Note_on_c, 0, 81, 0
2, 94145, Note_on_c, 0, 80, 0
2, 94145, Note_on_c, 0, 83, 0
2, 94145, Note_on_c, 0, 54, 84
2, 94145, Note_on_c, 0, 76, 0
2, 94148, Note_on_c, 0, 61, 82
2, 94149, Note_on_c, 0, 73, 0
2, 94150, Note_on_c, 0, 85, 80
2, 94187, Control_c, 0, 64, 127
2, 94265, Note_on_c, 0, 93, 87
2, 94344, Note_on_c, 0, 92, 85
2, 94384, Note_on_c, 0, 90, 82
2, 94433, Note_on_c, 0, 64, 0
2, 94440, Note_on_c, 0, 64, 97
2, 94517, Note_on_c, 0, 87, 0
2, 94522, Note_on_c, 0, 87, 81
2, 94571, Note_on_c, 0, 85, 0
2, 94582, Note_on_c, 0, 85, 78
2, 94656, Note_on_c, 0, 93, 0
2, 94657, Note_on_c, 0, 92, 0
2, 94657, Note_on_c, 0, 83, 78
2, 94657, Note_on_c, 0, 61, 0
2, 94657, Note_on_c, 0, 66, 0
2, 94658, Note_on_c, 0, 87, 0
2, 94658, Note_on_c, 0, 90, 0
2, 94658, Control_c, 0, 64, 0
2, 94658, Note_on_c, 0, 85, 0
2, 94679, Note_on_c, 0, 64, 0
2, 94683, Note_on_c, 0, 64, 96
2, 94686, Note_on_c, 0, 54, 0
2, 94689, Note_on_c, 0, 59, 88
2, 94695, Note_on_c, 0, 54, 80
2, 94727, Note_on_c, 0, 81, 81
2, 94732, Control_c, 0, 64, 127
2, 94798, Note_on_c, 0, 85, 71
2, 94848, Note_on_c, 0, 83, 0
2, 94857, Note_on_c, 0, 83, 73
2, 94917, Note_on_c, 0, 81, 0
2, 94924, Note_on_c, 0, 81, 91
2, 94951, Note_on_c, 0, 47, 74
2, 94999, Note_on_c, 0, 80, 84
2, 95053, Note_on_c, 0, 85, 0
2, 95055, Note_on_c, 0, 64, 0
2, 95057, Note_on_c, 0, 83, 0
2, 95057, Note_on_c, 0, 81, 0
2, 95058, Note_on_c, 0, 47, 0
2, 95058, Note_on_c, 0, 54, 0
2, 95059, Note_on_c, 0, 59, 0
2, 95061, Control_c, 0, 64, 0
2, 95064, Note_on_c, 0, 80, 0
2, 95067, Note_on_c, 0, 78, 81
2, 95097, Note_on_c, 0, 63, 97
2, 95099, Note_on_c, 0, 59, 90
2, 95103, Note_on_c, 0, 54, 90
2, 95124, Control_c, 0, 64, 127
2, 95130, Note_on_c, 0, 76, 76
2, 95196, Note_on_c, 0, 75, 80
2, 95245, Note_on_c, 0, 73, 82
2, 95305, Note_on_c, 0, 71, 85
2, 95372, Note_on_c, 0, 69, 74
2, 95440, Note_on_c, 0, 68, 84
2, 95480, Note_on_c, 0, 47, 80
2, 95504, Note_on_c, 0, 66, 81
2, 95504, Note_on_c, 0, 75, 0
2, 95573, Note_on_c, 0, 64, 64
2, 95616, Note_on_c, 0, 63, 0
2, 95623, Note_on_c, 0, 78, 0
2, 95626, Note_on_c, 0, 63, 88
2, 95715, Note_on_c, 0, 71, 0
2, 95716, Note_on_c, 0, 68, 0
2, 95716, Note_on_c, 0, 66, 0
2, 95717, Note_on_c, 0, 63, 0
2, 95717, Note_on_c, 0, 54, 0
2, 95719, Control_c, 0, 64, 0
2, 95723, Note_on_c, 0, 73, 0
2, 95723, Note_on_c, 0, 76, 0
2, 95731, Note_on_c, 0, 64, 0
2, 95731, Note_on_c, 0, 69, 0
2, 95738, Note_on_c, 0, 59, 0
2, 95740, Note_on_c, 0, 64, 102
2, 95743, Note_on_c, 0, 59, 90
2, 95746, Note_on_c, 0, 47, 0
2, 95748, Note_on_c, 0, 40, 86
2, 95749, Note_on_c, 0, 52, 90
2, 95749, Note_on_c, 0, 56, 86
2, 95808, Control_c, 0, 64, 127
2, 96015, Note_on_c, 0, 40, 0
2, 96015, Note_on_c, 0, 52, 0
2, 96023, Note_on_c, 0, 40, 69
2, 96026, Note_on_c, 0, 52, 65
2, 96104, Note_on_c, 0, 54, 72
2, 96107, Note_on_c, 0, 42, 72
2, 96153, Note_on_c, 0, 44, 66
2, 96153, Note_on_c, 0, 56, 0
2, 96158, Note_on_c, 0, 56, 77
2, 96228, Note_on_c, 0, 57, 76
2, 96291, Note_on_c, 0, 59, 0
2, 96296, Note_on_c, 0, 59, 87
2, 96296, Note_on_c, 0, 47, 66
2, 96347, Note_on_c, 0, 49, 74
2, 96350, Note_on_c, 0, 61, 81
2, 96403, Note_on_c, 0, 51, 73
2, 96407, Note_on_c, 0, 63, 76
2, 96453, Note_on_c, 0, 52, 0
2, 96460, Note_on_c, 0, 64, 0
2, 96464, Note_on_c, 0, 52, 78
2, 96465, Note_on_c, 0, 64, 88
2, 96537, Note_on_c, 0, 54, 0
2, 96541, Note_on_c, 0, 66, 87
2, 96542, Note_on_c, 0, 54, 76
2, 96599, Note_on_c, 0, 56, 0
2, 96604, Note_on_c, 0, 68, 89
2, 96604, Note_on_c, 0, 56, 71
2, 96668, Note_on_c, 0, 57, 0
2, 96677, Note_on_c, 0, 57, 66
2, 96677, Note_on_c, 0, 69, 85
2, 96729, Note_on_c, 0, 59, 0
2, 96734, Note_on_c, 0, 59, 74
2, 96741, Note_on_c, 0, 71, 89
2, 96798, Note_on_c, 0, 61, 0
2, 96803, Note_on_c, 0, 73, 87
2, 96804, Note_on_c, 0, 61, 77
2, 96860, Note_on_c, 0, 63, 0
2, 96865, Note_on_c, 0, 75, 89
2, 96870, Note_on_c, 0, 63, 82
2, 96921, Note_on_c, 0, 64, 0
2, 96925, Note_on_c, 0, 76, 97
2, 96925, Note_on_c, 0, 64, 89
2, 96995, Note_on_c, 0, 78, 96
2, 97006, Note_on_c, 0, 66, 0
2, 97017, Note_on_c, 0, 66, 85
2, 97059, Note_on_c, 0, 68, 0
2, 97061, Note_on_c, 0, 80, 93
2, 97063, Note_on_c, 0, 68, 79
2, 97128, Note_on_c, 0, 69, 0
2, 97137, Note_on_c, 0, 81, 94
2, 97139, Note_on_c, 0, 69, 79
2, 97198, Note_on_c, 0, 71, 0
2, 97204, Note_on_c, 0, 83, 94
2, 97204, Note_on_c, 0, 71, 91
2, 97267, Note_on_c, 0, 73, 0
2, 97271, Note_on_c, 0, 85, 83
2, 97277, Note_on_c, 0, 73, 74
2, 97318, Note_on_c, 0, 42, 0
2, 97320, Note_on_c, 0, 75, 0
2, 97327, Note_on_c, 0, 87, 80
2, 97331, Note_on_c, 0, 75, 81
2, 97389, Note_on_c, 0, 88, 86
2, 97390, Note_on_c, 0, 76, 0
2, 97399, Note_on_c, 0, 76, 72
2, 97453, Note_on_c, 0, 90, 89
2, 97466, Note_on_c, 0, 78, 0
2, 97477, Note_on_c, 0, 78, 80
2, 97501, Note_on_c, 0, 92, 94
2, 97520, Note_on_c, 0, 80, 0
2, 97526, Note_on_c, 0, 80, 83
2, 97574, Note_on_c, 0, 81, 0
2, 97574, Note_on_c, 0, 93, 93
2, 97578, Note_on_c, 0, 57, 0
2, 97584, Note_on_c, 0, 81, 68
2, 97635, Note_on_c, 0, 83, 0
2, 97644, Note_on_c, 0, 83, 85
2, 97645, Note_on_c, 0, 95, 96
2, 97722, Note_on_c, 0, 97, 84
2, 97751, Note_on_c, 0, 87, 0
2, 97759, Note_on_c, 0, 87, 64
2, 97770, Note_on_c, 0, 99, 87
2, 97850, Note_on_c, 0, 76, 0
2, 97855, Note_on_c, 0, 100, 109
2, 97856, Note_on_c, 0, 81, 0
2, 97857, Note_on_c, 0, 78, 0
2, 97857, Note_on_c, 0, 56, 0
2, 97857, Control_c, 0, 64, 0
2, 97857, Note_on_c, 0, 85, 0
2, 97857, Note_on_c, 0, 90, 0
2, 97858, Note_on_c, 0, 93, 0
2, 97858, Note_on_c, 0, 49, 0
2, 97858, Note_on_c, 0, 61, 0
2, 97858, Note_on_c, 0, 66, 0
2, 97858, Note_on_c, 0, 95, 0
2, 97858, Note_on_c, 0, 87, 0
2, 97858, Note_on_c, 0, 88, 0
2, 97858, Note_on_c, 0, 92, 0
2, 97859, Note_on_c, 0, 80, 0
2, 97859, Note_on_c, 0, 76, 91
2, 97859, Note_on_c, 0, 68, 0
2, 97859, Note_on_c, 0, 59, 0
2, 97859, Note_on_c, 0, 51, 0
2, 97859, Note_on_c, 0, 71, 0
2, 97860, Note_on_c, 0, 97, 0
2, 97862, Note_on_c, 0, 88, 100
2, 97873, Note_on_c, 0, 44, 0
2, 97873, Note_on_c, 0, 52, 0
2, 97873, Note_on_c, 0, 63, 0
2, 97873, Note_on_c, 0, 69, 0
2, 97873, Note_on_c, 0, 73, 0
2, 97873, Note_on_c, 0, 75, 0
2, 97873, Note_on_c, 0, 83, 0
2, 97881, Note_on_c, 0, 54, 0
2, 97889, Note_on_c, 0, 40, 0
2, 97889, Note_on_c, 0, 64, 0
2, 97920, Control_c, 0, 64, 127
2, 98357, Note_on_c, 0, 76, 0
2, 98357, Note_on_c, 0, 88, 0
2, 98363, Note_on_c, 0, 88, 98
2, 98366, Note_on_c, 0, 80, 93
2, 98367, Note_on_c, 0, 76, 90
2, 98368, Note_on_c, 0, 83, 89
2, 98368, Note_on_c, 0, 68, 89
2, 98369, Note_on_c, 0, 71, 87
2, 98434, Note_on_c, 0, 68, 0
2, 98434, Note_on_c, 0, 71, 0
2, 98434, Note_on_c, 0, 76, 0
2, 98434, Note_on_c, 0, 80, 0
2, 98434, Note_on_c, 0, 83, 0
2, 98434, Note_on_c, 0, 88, 0
2, 98438, Note_on_c, 0, 80, 106
2, 98440, Note_on_c, 0, 88, 91
2, 98440, Note_on_c, 0, 83, 85
2, 98440, Note_on_c, 0, 76, 90
2, 98443, Note_on_c, 0, 68, 96
2, 98444, Note_on_c, 0, 71, 86
2, 99010, Note_on_c, 0, 76, 0
2, 99016, Note_on_c, 0, 76, 104
2, 99017, Note_on_c, 0, 64, 101
2, 99020, Note_on_c, 0, 52, 94
2, 99022, Note_on_c, 0, 40, 85
2, 99026, Control_c, 0, 64, 0
2, 99034, Note_on_c, 0, 83, 0
2, 99048, Control_c, 0, 64, 127
2, 99102, Note_on_c, 0, 64, 0
2, 99102, Note_on_c, 0, 76, 0
2, 99106, Note_on_c, 0, 76, 102
2, 99107, Note_on_c, 0, 64, 101
2, 99110, Note_on_c, 0, 52, 0
2, 99117, Note_on_c, 0, 52, 80
2, 100546, Note_on_c, 0, 64, 0
2, 100552, Note_on_c, 0, 64, 55
2, 100907, Note_on_c, 0, 47, 0
2, 101091, Note_on_c, 0, 99, 0
2, 101413, Note_on_c, 0, 52, 0
2, 101413, Note_on_c, 0, 40, 0
2, 101416, Note_on_c, 0, 76, 0
2, 101419, Control_c, 0, 64, 0
2, 101429, Note_on_c, 0, 64, 0
2, 101429, Note_on_c, 0, 68, 0
2, 101429, Note_on_c, 0, 71, 0
2, 101429, Note_on_c, 0, 80, 0
2, 101429, Note_on_c, 0, 88, 0
2, 101429, Note_on_c, 0, 100, 0
2, 101430, End_track
0, 0, End_of_file
