0, 0, Header, 1, 2, 384
1, 0, Start_track
1, 0, Tempo, 500000
1, 0, Time_signature, 4, 2, 24, 8
1, 1, End_track
2, 0, Start_track
2, 1858, Control_c, 0, 64, 127
2, 2032, Note_on_c, 0, 66, 59
2, 2178, Note_on_c, 0, 73, 59
2, 2315, Note_on_c, 0, 78, 70
2, 2454, Note_on_c, 0, 71, 50
2, 2580, Note_on_c, 0, 66, 0
2, 2586, Note_on_c, 0, 66, 71
2, 2726, Note_on_c, 0, 71, 0
2, 2730, Note_on_c, 0, 71, 53
2, 2856, Note_on_c, 0, 73, 0
2, 2868, Note_on_c, 0, 73, 59
2, 3003, Note_on_c, 0, 76, 64
2, 3133, Note_on_c, 0, 66, 0
2, 3140, Note_on_c, 0, 66, 73
2, 3279, Note_on_c, 0, 73, 0
2, 3290, Note_on_c, 0, 73, 54
2, 3432, Note_on_c, 0, 78, 0
2, 3437, Note_on_c, 0, 78, 62
2, 3555, Note_on_c, 0, 71, 0
2, 3566, Note_on_c, 0, 71, 63
2, 3701, Note_on_c, 0, 66, 0
2, 3707, Note_on_c, 0, 66, 72
2, 3816, Note_on_c, 0, 71, 0
2, 3828, Note_on_c, 0, 71, 53
2, 3962, Note_on_c, 0, 73, 0
2, 3973, Note_on_c, 0, 73, 63
2, 4093, Note_on_c, 0, 76, 0
2, 4103, Note_on_c, 0, 76, 67
2, 4239, Note_on_c, 0, 66, 0
2, 4245, Note_on_c, 0, 66, 75
2, 4369, Note_on_c, 0, 73, 0
2, 4375, Note_on_c, 0, 73, 62
2, 4508, Note_on_c, 0, 78, 0
2, 4516, Note_on_c, 0, 78, 67
2, 4638, Note_on_c, 0, 71, 0
2, 4642, Note_on_c, 0, 71, 63
2, 4769, Note_on_c, 0, 66, 0
2, 4780, Note_on_c, 0, 66, 74
2, 4907, Note_on_c, 0, 71, 0
2, 4917, Note_on_c, 0, 71, 56
2, 5045, Note_on_c, 0, 73, 0
2, 5051, Note_on_c, 0, 73, 63
2, 5191, Note_on_c, 0, 76, 0
2, 5196, Note_on_c, 0, 76, 66
2, 5314, Note_on_c, 0, 66, 0
2, 5321, Note_on_c, 0, 66, 75
2, 5437, Note_on_c, 0, 73, 0
2, 5441, Note_on_c, 0, 73, 59
2, 5583, Note_on_c, 0, 78, 0
2, 5592, Note_on_c, 0, 78, 65
2, 5706, Note_on_c, 0, 71, 0
2, 5716, Note_on_c, 0, 71, 59
2, 5844, Note_on_c, 0, 66, 0
2, 5850, Note_on_c, 0, 66, 73
2, 5990, Note_on_c, 0, 71, 0
2, 5996, Note_on_c, 0, 71, 57
2, 6105, Note_on_c, 0, 73, 0
2, 6112, Note_on_c, 0, 73, 68
2, 6251, Note_on_c, 0, 76, 0
2, 6261, Note_on_c, 0, 76, 71
2, 6393, Note_on_c, 0, 71, 0
2, 6393, Note_on_c, 0, 73, 0
2, 6393, Note_on_c, 0, 78, 0
2, 6393, Note_on_c, 0, 76, 0
2, 6397, Note_on_c, 0, 66, 0
2, 6402, Control_c, 0, 64, 0
2, 6402, Note_on_c, 0, 66, 74
2, 6402, Note_on_c, 0, 30, 60
2, 6520, Control_c, 0, 64, 127
2, 6546, Note_on_c, 0, 73, 60
2, 6693, Note_on_c, 0, 78, 68
2, 6824, Note_on_c, 0, 71, 60
2, 6950, Note_on_c, 0, 66, 0
2, 6959, Note_on_c, 0, 66, 69
2, 7088, Note_on_c, 0, 71, 0
2, 7094, Note_on_c, 0, 71, 59
2, 7211, Note_on_c, 0, 73, 0
2, 7221, Note_on_c, 0, 73, 67
2, 7355, Note_on_c, 0, 76, 71
2, 7495, Note_on_c, 0, 66, 0
2, 7501, Note_on_c, 0, 66, 74
2, 7626, Note_on_c, 0, 73, 0
2, 7634, Note_on_c, 0, 73, 64
2, 7772, Note_on_c, 0, 78, 0
2, 7777, Note_on_c, 0, 78, 73
2, 7910, Note_on_c, 0, 71, 0
2, 7916, Note_on_c, 0, 71, 64
2, 8048, Note_on_c, 0, 66, 0
2, 8060, Note_on_c, 0, 66, 74
2, 8194, Note_on_c, 0, 71, 0
2, 8200, Note_on_c, 0, 71, 57
2, 8325, Note_on_c, 0, 73, 0
2, 8332, Note_on_c, 0, 73, 69
2, 8455, Note_on_c, 0, 76, 0
2, 8466, Note_on_c, 0, 76, 69
2, 8593, Note_on_c, 0, 66, 0
2, 8600, Note_on_c, 0, 66, 69
2, 8604, Note_on_c, 0, 28, 57
2, 8604, Note_on_c, 0, 40, 52
2, 8615, Note_on_c, 0, 30, 0
2, 8618, Control_c, 0, 64, 0
2, 8618, Note_on_c, 0, 71, 0
2, 8618, Note_on_c, 0, 78, 0
2, 8619, Note_on_c, 0, 73, 0
2, 8620, Note_on_c, 0, 76, 0
2, 8716, Control_c, 0, 64, 127
2, 8743, Note_on_c, 0, 73, 57
2, 8883, Note_on_c, 0, 78, 67
2, 9017, Note_on_c, 0, 71, 67
2, 9154, Note_on_c, 0, 66, 0
2, 9159, Note_on_c, 0, 66, 72
2, 9292, Note_on_c, 0, 71, 0
2, 9303, Note_on_c, 0, 71, 50
2, 9408, Note_on_c, 0, 73, 0
2, 9419, Note_on_c, 0, 73, 67
2, 9557, Note_on_c, 0, 76, 70
2, 9699, Note_on_c, 0, 66, 0
2, 9708, Note_on_c, 0, 66, 76
2, 9830, Note_on_c, 0, 73, 0
2, 9835, Note_on_c, 0, 73, 64
2, 9984, Note_on_c, 0, 78, 0
2, 9989, Note_on_c, 0, 78, 73
2, 10114, Note_on_c, 0, 71, 0
2, 10123, Note_on_c, 0, 71, 62
2, 10260, Note_on_c, 0, 66, 0
2, 10264, Note_on_c, 0, 66, 71
2, 10406, Note_on_c, 0, 71, 0
2, 10412, Note_on_c, 0, 71, 55
2, 10529, Note_on_c, 0, 73, 0
2, 10539, Note_on_c, 0, 73, 68
2, 10667, Note_on_c, 0, 76, 0
2, 10676, Note_on_c, 0, 76, 71
2, 10805, Note_on_c, 0, 66, 0
2, 10813, Note_on_c, 0, 40, 0
2, 10817, Note_on_c, 0, 66, 73
2, 10818, Note_on_c, 0, 73, 0
2, 10818, Note_on_c, 0, 78, 0
2, 10819, Note_on_c, 0, 76, 0
2, 10819, Note_on_c, 0, 71, 0
2, 10825, Note_on_c, 0, 38, 51
2, 10825, Note_on_c, 0, 26, 61
2, 10827, Control_c, 0, 64, 0
2, 10936, Control_c, 0, 64, 127
2, 10963, Note_on_c, 0, 73, 61
2, 11090, Note_on_c, 0, 78, 72
2, 11236, Note_on_c, 0, 71, 61
2, 11358, Note_on_c, 0, 66, 0
2, 11368, Note_on_c, 0, 66, 72
2, 11512, Note_on_c, 0, 71, 0
2, 11521, Note_on_c, 0, 71, 58
2, 11635, Note_on_c, 0, 73, 0
2, 11645, Note_on_c, 0, 73, 70
2, 11790, Note_on_c, 0, 76, 72
2, 11927, Note_on_c, 0, 66, 0
2, 11936, Note_on_c, 0, 66, 74
2, 12065, Note_on_c, 0, 73, 0
2, 12071, Note_on_c, 0, 73, 62
2, 12203, Note_on_c, 0, 78, 0
2, 12210, Note_on_c, 0, 78, 71
2, 12341, Note_on_c, 0, 71, 0
2, 12352, Note_on_c, 0, 71, 61
2, 12472, Note_on_c, 0, 66, 0
2, 12482, Note_on_c, 0, 66, 77
2, 12625, Note_on_c, 0, 71, 0
2, 12632, Note_on_c, 0, 71, 57
2, 12764, Note_on_c, 0, 73, 0
2, 12768, Note_on_c, 0, 73, 67
2, 12894, Note_on_c, 0, 76, 0
2, 12899, Note_on_c, 0, 76, 71
2, 13025, Note_on_c, 0, 66, 0
2, 13033, Note_on_c, 0, 66, 74
2, 13171, Note_on_c, 0, 73, 0
2, 13175, Note_on_c, 0, 73, 60
2, 13209, Note_on_c, 0, 28, 0
2, 13309, Note_on_c, 0, 78, 0
2, 13314, Note_on_c, 0, 78, 72
2, 13440, Note_on_c, 0, 26, 0
2, 13440, Note_on_c, 0, 38, 0
2, 13440, Note_on_c, 0, 71, 0
2, 13445, Note_on_c, 0, 71, 61
2, 13570, Note_on_c, 0, 66, 0
2, 13575, Note_on_c, 0, 66, 72
2, 13724, Note_on_c, 0, 71, 0
2, 13732, Note_on_c, 0, 71, 53
2, 13847, Note_on_c, 0, 73, 0
2, 13857, Note_on_c, 0, 73, 67
2, 13992, Note_on_c, 0, 76, 0
2, 13998, Note_on_c, 0, 76, 73
2, 14123, Note_on_c, 0, 66, 0
2, 14128, Note_on_c, 0, 66, 71
2, 14261, Note_on_c, 0, 73, 0
2, 14272, Note_on_c, 0, 73, 64
2, 14400, Note_on_c, 0, 78, 0
2, 14410, Note_on_c, 0, 78, 72
2, 14530, Note_on_c, 0, 71, 0
2, 14540, Note_on_c, 0, 71, 66
2, 14668, Note_on_c, 0, 66, 0
2, 14676, Note_on_c, 0, 66, 78
2, 14822, Note_on_c, 0, 71, 0
2, 14829, Note_on_c, 0, 71, 59
2, 14945, Note_on_c, 0, 73, 0
2, 14955, Note_on_c, 0, 73, 67
2, 15083, Note_on_c, 0, 76, 0
2, 15092, Note_on_c, 0, 76, 70
2, 15172, Note_on_c, 0, 66, 0
2, 15173, Note_on_c, 0, 71, 0
2, 15173, Note_on_c, 0, 78, 0
2, 15173, Note_on_c, 0, 73, 0
2, 15174, Note_on_c, 0, 76, 0
2, 15181, Control_c, 0, 64, 0
2, 15185, Note_on_c, 0, 42, 48
2, 15187, Note_on_c, 0, 49, 52
2, 15235, Note_on_c, 0, 64, 83
2, 15244, Control_c, 0, 64, 127
2, 15252, Note_on_c, 0, 57, 62
2, 15387, Note_on_c, 0, 73, 65
2, 15531, Note_on_c, 0, 78, 65
2, 15672, Note_on_c, 0, 71, 56
2, 15798, Note_on_c, 0, 66, 72
2, 15936, Note_on_c, 0, 71, 0
2, 15947, Note_on_c, 0, 71, 56
2, 16058, Note_on_c, 0, 57, 0
2, 16064, Note_on_c, 0, 57, 71
2, 16066, Note_on_c, 0, 73, 0
2, 16077, Note_on_c, 0, 73, 67
2, 16203, Note_on_c, 0, 76, 69
2, 16350, Note_on_c, 0, 57, 0
2, 16350, Note_on_c, 0, 66, 0
2, 16355, Note_on_c, 0, 69, 69
2, 16358, Note_on_c, 0, 57, 70
2, 16360, Note_on_c, 0, 66, 71
2, 16481, Note_on_c, 0, 73, 0
2, 16491, Note_on_c, 0, 73, 63
2, 16604, Note_on_c, 0, 78, 0
2, 16615, Note_on_c, 0, 78, 76
2, 16757, Note_on_c, 0, 71, 0
2, 16765, Note_on_c, 0, 71, 61
2, 16888, Note_on_c, 0, 66, 0
2, 16892, Note_on_c, 0, 66, 76
2, 17057, Note_on_c, 0, 71, 0
2, 17062, Note_on_c, 0, 71, 65
2, 17180, Note_on_c, 0, 57, 0
2, 17180, Note_on_c, 0, 73, 0
2, 17184, Note_on_c, 0, 73, 73
2, 17190, Note_on_c, 0, 57, 69
2, 17280, Note_on_c, 0, 42, 0
2, 17280, Note_on_c, 0, 49, 0
2, 17280, Note_on_c, 0, 64, 0
2, 17295, Note_on_c, 0, 76, 0
2, 17299, Note_on_c, 0, 76, 73
2, 17302, Note_on_c, 0, 59, 73
2, 17399, Note_on_c, 0, 69, 0
2, 17399, Note_on_c, 0, 66, 0
2, 17399, Note_on_c, 0, 73, 0
2, 17399, Note_on_c, 0, 78, 0
2, 17400, Note_on_c, 0, 71, 0
2, 17400, Note_on_c, 0, 59, 0
2, 17400, Note_on_c, 0, 76, 0
2, 17406, Control_c, 0, 64, 0
2, 17418, Note_on_c, 0, 57, 0
2, 17440, Note_on_c, 0, 61, 83
2, 17468, Note_on_c, 0, 40, 60
2, 17472, Note_on_c, 0, 47, 60
2, 17479, Control_c, 0, 64, 127
2, 17592, Note_on_c, 0, 76, 55
2, 17592, Note_on_c, 0, 73, 63
2, 17745, Note_on_c, 0, 62, 77
2, 17745, Note_on_c, 0, 78, 75
2, 17894, Note_on_c, 0, 71, 65
2, 18009, Note_on_c, 0, 61, 0
2, 18017, Note_on_c, 0, 61, 84
2, 18020, Note_on_c, 0, 66, 74
2, 18163, Note_on_c, 0, 71, 0
2, 18168, Note_on_c, 0, 71, 69
2, 18293, Note_on_c, 0, 73, 0
2, 18298, Note_on_c, 0, 73, 73
2, 18304, Note_on_c, 0, 59, 69
2, 18416, Note_on_c, 0, 76, 0
2, 18425, Note_on_c, 0, 76, 68
2, 18554, Note_on_c, 0, 66, 0
2, 18563, Note_on_c, 0, 66, 72
2, 18575, Note_on_c, 0, 57, 84
2, 18700, Note_on_c, 0, 73, 0
2, 18708, Note_on_c, 0, 73, 65
2, 18854, Note_on_c, 0, 78, 0
2, 18858, Note_on_c, 0, 68, 90
2, 18859, Note_on_c, 0, 78, 76
2, 19000, Note_on_c, 0, 71, 0
2, 19005, Note_on_c, 0, 71, 60
2, 19123, Note_on_c, 0, 66, 0
2, 19134, Note_on_c, 0, 66, 77
2, 19253, Note_on_c, 0, 71, 0
2, 19264, Note_on_c, 0, 71, 63
2, 19399, Note_on_c, 0, 61, 0
2, 19399, Note_on_c, 0, 73, 0
2, 19406, Note_on_c, 0, 61, 82
2, 19409, Note_on_c, 0, 73, 80
2, 19522, Note_on_c, 0, 76, 0
2, 19527, Note_on_c, 0, 76, 71
2, 19584, Note_on_c, 0, 71, 0
2, 19587, Note_on_c, 0, 71, 43
2, 19646, Note_on_c, 0, 38, 70
2, 19664, Note_on_c, 0, 40, 0
2, 19664, Note_on_c, 0, 47, 0
2, 19664, Note_on_c, 0, 68, 0
2, 19664, Note_on_c, 0, 71, 0
2, 19664, Note_on_c, 0, 66, 0
2, 19664, Note_on_c, 0, 59, 0
2, 19664, Note_on_c, 0, 62, 0
2, 19664, Note_on_c, 0, 61, 0
2, 19664, Note_on_c, 0, 73, 0
2, 19664, Note_on_c, 0, 57, 0
2, 19665, Note_on_c, 0, 76, 0
2, 19665, Note_on_c, 0, 78, 0
2, 19668, Control_c, 0, 64, 0
2, 19682, Note_on_c, 0, 45, 58
2, 19692, Note_on_c, 0, 64, 86
2, 19752, Control_c, 0, 64, 127
2, 19826, Note_on_c, 0, 73, 61
2, 19964, Note_on_c, 0, 78, 72
2, 20095, Note_on_c, 0, 71, 65
2, 20233, Note_on_c, 0, 66, 70
2, 20367, Note_on_c, 0, 71, 0
2, 20375, Note_on_c, 0, 71, 54
2, 20497, Note_on_c, 0, 73, 0
2, 20507, Note_on_c, 0, 73, 66
2, 20514, Note_on_c, 0, 57, 72
2, 20635, Note_on_c, 0, 76, 70
2, 20782, Note_on_c, 0, 57, 0
2, 20792, Note_on_c, 0, 57, 77
2, 20796, Note_on_c, 0, 69, 70
2, 20797, Note_on_c, 0, 66, 0
2, 20806, Note_on_c, 0, 66, 67
2, 20928, Note_on_c, 0, 73, 0
2, 20939, Note_on_c, 0, 73, 60
2, 21073, Note_on_c, 0, 78, 0
2, 21078, Note_on_c, 0, 78, 70
2, 21219, Note_on_c, 0, 71, 0
2, 21230, Note_on_c, 0, 71, 59
2, 21365, Note_on_c, 0, 66, 0
2, 21371, Note_on_c, 0, 66, 69
2, 21511, Note_on_c, 0, 71, 0
2, 21520, Note_on_c, 0, 71, 63
2, 21634, Note_on_c, 0, 57, 0
2, 21634, Note_on_c, 0, 69, 0
2, 21634, Note_on_c, 0, 73, 0
2, 21638, Note_on_c, 0, 73, 74
2, 21638, Note_on_c, 0, 57, 71
2, 21639, Note_on_c, 0, 69, 65
2, 21749, Note_on_c, 0, 76, 0
2, 21759, Note_on_c, 0, 59, 76
2, 21760, Note_on_c, 0, 76, 71
2, 21860, Note_on_c, 0, 69, 0
2, 21861, Note_on_c, 0, 71, 0
2, 21861, Note_on_c, 0, 57, 0
2, 21861, Note_on_c, 0, 73, 0
2, 21861, Note_on_c, 0, 66, 0
2, 21861, Note_on_c, 0, 78, 0
2, 21861, Note_on_c, 0, 76, 0
2, 21861, Note_on_c, 0, 45, 0
2, 21861, Note_on_c, 0, 64, 0
2, 21861, Note_on_c, 0, 38, 0
2, 21862, Note_on_c, 0, 59, 0
2, 21866, Control_c, 0, 64, 0
2, 21887, Note_on_c, 0, 61, 85
2, 21914, Note_on_c, 0, 38, 65
2, 21915, Note_on_c, 0, 45, 63
2, 21941, Control_c, 0, 64, 127
2, 22031, Note_on_c, 0, 73, 69
2, 22032, Note_on_c, 0, 76, 55
2, 22180, Note_on_c, 0, 78, 73
2, 22181, Note_on_c, 0, 59, 75
2, 22182, Note_on_c, 0, 71, 60
2, 22310, Note_on_c, 0, 71, 0
2, 22313, Note_on_c, 0, 57, 73
2, 22314, Note_on_c, 0, 71, 59
2, 22460, Note_on_c, 0, 66, 68
2, 22594, Note_on_c, 0, 71, 0
2, 22598, Note_on_c, 0, 56, 78
2, 22602, Note_on_c, 0, 71, 63
2, 22725, Note_on_c, 0, 73, 0
2, 22733, Note_on_c, 0, 73, 64
2, 22863, Note_on_c, 0, 57, 0
2, 22863, Note_on_c, 0, 76, 0
2, 22867, Note_on_c, 0, 76, 75
2, 22868, Note_on_c, 0, 57, 79
2, 23001, Note_on_c, 0, 66, 0
2, 23009, Note_on_c, 0, 38, 0
2, 23011, Note_on_c, 0, 66, 72
2, 23139, Note_on_c, 0, 73, 0
2, 23145, Note_on_c, 0, 73, 64
2, 23285, Note_on_c, 0, 78, 0
2, 23289, Note_on_c, 0, 78, 72
2, 23424, Note_on_c, 0, 71, 0
2, 23428, Note_on_c, 0, 71, 60
2, 23558, Note_on_c, 0, 56, 0
2, 23559, Note_on_c, 0, 45, 0
2, 23559, Note_on_c, 0, 57, 0
2, 23559, Note_on_c, 0, 61, 0
2, 23559, Note_on_c, 0, 71, 0
2, 23559, Note_on_c, 0, 59, 0
2, 23559, Note_on_c, 0, 78, 0
2, 23560, Note_on_c, 0, 73, 0
2, 23560, Note_on_c, 0, 76, 0
2, 23560, Control_c, 0, 64, 0
2, 23562, Note_on_c, 0, 66, 0
2, 23565, Note_on_c, 0, 40, 67
2, 23571, Note_on_c, 0, 66, 72
2, 23631, Control_c, 0, 64, 127
2, 23714, Note_on_c, 0, 71, 64
2, 23841, Note_on_c, 0, 73, 69
2, 23972, Note_on_c, 0, 76, 74
2, 24080, Note_on_c, 0, 73, 0
2, 24080, Note_on_c, 0, 66, 0
2, 24080, Note_on_c, 0, 71, 0
2, 24081, Note_on_c, 0, 76, 0
2, 24083, Note_on_c, 0, 40, 0
2, 24086, Control_c, 0, 64, 0
2, 24127, Note_on_c, 0, 76, 87
2, 24128, Note_on_c, 0, 30, 62
2, 24130, Note_on_c, 0, 42, 65
2, 24138, Note_on_c, 0, 30, 0
2, 24155, Note_on_c, 0, 73, 62
2, 24156, Note_on_c, 0, 71, 62
2, 24156, Note_on_c, 0, 69, 62
2, 24192, Control_c, 0, 64, 127
2, 24409, Note_on_c, 0, 66, 65
2, 24529, Note_on_c, 0, 61, 61
2, 24663, Note_on_c, 0, 54, 69
2, 24806, Note_on_c, 0, 59, 72
2, 24936, Note_on_c, 0, 61, 0
2, 24944, Note_on_c, 0, 69, 0
2, 24948, Note_on_c, 0, 61, 62
2, 24948, Note_on_c, 0, 69, 77
2, 25072, Note_on_c, 0, 64, 67
2, 25198, Note_on_c, 0, 69, 0
2, 25206, Note_on_c, 0, 69, 83
2, 25221, Note_on_c, 0, 42, 0
2, 25221, Note_on_c, 0, 54, 0
2, 25229, Note_on_c, 0, 54, 60
2, 25230, Note_on_c, 0, 42, 54
2, 25351, Note_on_c, 0, 59, 0
2, 25361, Note_on_c, 0, 59, 65
2, 25489, Note_on_c, 0, 66, 0
2, 25497, Note_on_c, 0, 66, 75
2, 25620, Note_on_c, 0, 61, 0
2, 25625, Note_on_c, 0, 61, 64
2, 25758, Note_on_c, 0, 54, 0
2, 25762, Note_on_c, 0, 54, 74
2, 25889, Note_on_c, 0, 59, 0
2, 25898, Note_on_c, 0, 59, 77
2, 26019, Note_on_c, 0, 61, 0
2, 26030, Note_on_c, 0, 61, 74
2, 26035, Note_on_c, 0, 69, 0
2, 26039, Note_on_c, 0, 69, 75
2, 26127, Note_on_c, 0, 64, 0
2, 26133, Note_on_c, 0, 64, 69
2, 26165, Note_on_c, 0, 71, 0
2, 26173, Note_on_c, 0, 71, 76
2, 26239, Note_on_c, 0, 54, 0
2, 26239, Note_on_c, 0, 66, 0
2, 26239, Note_on_c, 0, 42, 0
2, 26239, Note_on_c, 0, 64, 0
2, 26239, Note_on_c, 0, 69, 0
2, 26240, Note_on_c, 0, 61, 0
2, 26241, Note_on_c, 0, 59, 0
2, 26241, Note_on_c, 0, 71, 0
2, 26244, Note_on_c, 0, 76, 0
2, 26244, Control_c, 0, 64, 0
2, 26257, Note_on_c, 0, 73, 0
2, 26299, Note_on_c, 0, 73, 86
2, 26300, Note_on_c, 0, 40, 74
2, 26302, Note_on_c, 0, 69, 74
2, 26334, Control_c, 0, 64, 127
2, 26579, Note_on_c, 0, 74, 89
2, 26583, Note_on_c, 0, 66, 78
2, 26707, Note_on_c, 0, 61, 62
2, 26833, Note_on_c, 0, 73, 0
2, 26843, Note_on_c, 0, 52, 71
2, 26845, Note_on_c, 0, 73, 86
2, 26871, Note_on_c, 0, 64, 56
2, 26969, Note_on_c, 0, 59, 73
2, 27102, Note_on_c, 0, 61, 0
2, 27113, Note_on_c, 0, 61, 65
2, 27114, Note_on_c, 0, 71, 85
2, 27240, Note_on_c, 0, 64, 0
2, 27245, Note_on_c, 0, 64, 69
2, 27386, Note_on_c, 0, 69, 0
2, 27396, Note_on_c, 0, 69, 87
2, 27402, Note_on_c, 0, 52, 0
2, 27412, Note_on_c, 0, 52, 69
2, 27525, Note_on_c, 0, 59, 0
2, 27534, Note_on_c, 0, 59, 74
2, 27671, Note_on_c, 0, 66, 0
2, 27674, Note_on_c, 0, 80, 98
2, 27678, Note_on_c, 0, 71, 0
2, 27679, Note_on_c, 0, 66, 75
2, 27684, Note_on_c, 0, 71, 77
2, 27793, Note_on_c, 0, 61, 0
2, 27799, Note_on_c, 0, 61, 64
2, 27939, Note_on_c, 0, 52, 0
2, 27939, Note_on_c, 0, 64, 0
2, 27944, Note_on_c, 0, 64, 64
2, 27944, Note_on_c, 0, 52, 73
2, 28078, Note_on_c, 0, 59, 0
2, 28086, Note_on_c, 0, 59, 67
2, 28208, Note_on_c, 0, 61, 0
2, 28216, Note_on_c, 0, 73, 0
2, 28219, Note_on_c, 0, 61, 72
2, 28219, Note_on_c, 0, 81, 95
2, 28226, Note_on_c, 0, 73, 86
2, 28323, Note_on_c, 0, 64, 0
2, 28333, Note_on_c, 0, 64, 80
2, 28468, Note_on_c, 0, 74, 0
2, 28469, Note_on_c, 0, 81, 0
2, 28471, Note_on_c, 0, 52, 0
2, 28471, Note_on_c, 0, 66, 0
2, 28471, Note_on_c, 0, 40, 0
2, 28471, Control_c, 0, 64, 0
2, 28471, Note_on_c, 0, 71, 0
2, 28471, Note_on_c, 0, 80, 0
2, 28471, Note_on_c, 0, 73, 0
2, 28472, Note_on_c, 0, 59, 0
2, 28472, Note_on_c, 0, 64, 0
2, 28485, Note_on_c, 0, 61, 0
2, 28485, Note_on_c, 0, 69, 0
2, 28511, Note_on_c, 0, 76, 94
2, 28518, Note_on_c, 0, 38, 72
2, 28518, Note_on_c, 0, 69, 75
2, 28526, Note_on_c, 0, 73, 72
2, 28577, Control_c, 0, 64, 127
2, 28785, Note_on_c, 0, 66, 66
2, 28906, Note_on_c, 0, 59, 68
2, 29041, Note_on_c, 0, 50, 73
2, 29183, Note_on_c, 0, 57, 65
2, 29306, Note_on_c, 0, 59, 0
2, 29312, Note_on_c, 0, 59, 67
2, 29321, Note_on_c, 0, 74, 87
2, 29445, Note_on_c, 0, 73, 0
2, 29450, Note_on_c, 0, 73, 87
2, 29452, Note_on_c, 0, 64, 75
2, 29588, Note_on_c, 0, 71, 85
2, 29591, Note_on_c, 0, 50, 0
2, 29600, Note_on_c, 0, 50, 56
2, 29736, Note_on_c, 0, 57, 0
2, 29741, Note_on_c, 0, 57, 64
2, 29859, Note_on_c, 0, 69, 0
2, 29864, Note_on_c, 0, 69, 81
2, 29875, Note_on_c, 0, 66, 0
2, 29885, Note_on_c, 0, 66, 76
2, 29998, Note_on_c, 0, 59, 0
2, 30007, Note_on_c, 0, 59, 71
2, 30144, Note_on_c, 0, 50, 0
2, 30149, Note_on_c, 0, 50, 67
2, 30289, Note_on_c, 0, 57, 0
2, 30295, Note_on_c, 0, 57, 62
2, 30405, Note_on_c, 0, 59, 0
2, 30405, Note_on_c, 0, 69, 0
2, 30409, Note_on_c, 0, 69, 80
2, 30412, Note_on_c, 0, 66, 0
2, 30412, Note_on_c, 0, 59, 76
2, 30417, Note_on_c, 0, 66, 55
2, 30528, Note_on_c, 0, 64, 0
2, 30528, Note_on_c, 0, 71, 0
2, 30536, Note_on_c, 0, 64, 77
2, 30537, Note_on_c, 0, 71, 84
2, 30621, Note_on_c, 0, 64, 0
2, 30621, Note_on_c, 0, 66, 0
2, 30622, Note_on_c, 0, 57, 0
2, 30622, Note_on_c, 0, 69, 0
2, 30622, Note_on_c, 0, 50, 0
2, 30622, Note_on_c, 0, 71, 0
2, 30622, Note_on_c, 0, 38, 0
2, 30622, Note_on_c, 0, 76, 0
2, 30622, Note_on_c, 0, 59, 0
2, 30622, Note_on_c, 0, 74, 0
2, 30623, Note_on_c, 0, 73, 0
2, 30623, Control_c, 0, 64, 0
2, 30685, Note_on_c, 0, 73, 86
2, 30691, Note_on_c, 0, 69, 76
2, 30698, Note_on_c, 0, 38, 70
2, 30727, Control_c, 0, 64, 127
2, 30955, Note_on_c, 0, 74, 88
2, 30962, Note_on_c, 0, 66, 71
2, 31080, Note_on_c, 0, 73, 0
2, 31086, Note_on_c, 0, 73, 86
2, 31096, Note_on_c, 0, 59, 70
2, 31218, Note_on_c, 0, 50, 71
2, 31370, Note_on_c, 0, 57, 68
2, 31370, Note_on_c, 0, 71, 77
2, 31411, Note_on_c, 0, 50, 0
2, 31417, Note_on_c, 0, 50, 50
2, 31495, Note_on_c, 0, 59, 0
2, 31507, Note_on_c, 0, 59, 68
2, 31526, Note_on_c, 0, 57, 0
2, 31531, Note_on_c, 0, 57, 50
2, 31633, Note_on_c, 0, 69, 0
2, 31638, Note_on_c, 0, 64, 74
2, 31638, Note_on_c, 0, 69, 84
2, 31764, Note_on_c, 0, 50, 0
2, 31771, Note_on_c, 0, 50, 72
2, 31895, Note_on_c, 0, 57, 0
2, 31903, Note_on_c, 0, 57, 69
2, 32040, Note_on_c, 0, 66, 0
2, 32045, Note_on_c, 0, 66, 78
2, 32179, Note_on_c, 0, 59, 0
2, 32190, Note_on_c, 0, 59, 66
2, 32321, Note_on_c, 0, 52, 79
2, 32335, Note_on_c, 0, 74, 0
2, 32335, Note_on_c, 0, 69, 0
2, 32336, Note_on_c, 0, 64, 0
2, 32336, Note_on_c, 0, 71, 0
2, 32336, Note_on_c, 0, 73, 0
2, 32336, Note_on_c, 0, 59, 0
2, 32336, Note_on_c, 0, 66, 0
2, 32336, Note_on_c, 0, 57, 0
2, 32336, Note_on_c, 0, 50, 0
2, 32336, Note_on_c, 0, 38, 0
2, 32336, Control_c, 0, 64, 0
2, 32409, Control_c, 0, 64, 127
2, 32447, Note_on_c, 0, 59, 72
2, 32578, Note_on_c, 0, 64, 75
2, 32824, Note_on_c, 0, 47, 67
2, 32851, Note_on_c, 0, 54, 59
2, 32851, Note_on_c, 0, 52, 0
2, 32851, Note_on_c, 0, 64, 0
2, 32852, Note_on_c, 0, 59, 0
2, 32858, Control_c, 0, 64, 0
2, 32887, Note_on_c, 0, 57, 79
2, 32897, Note_on_c, 0, 66, 63
2, 32903, Note_on_c, 0, 61, 59
2, 32954, Control_c, 0, 64, 127
2, 33411, Note_on_c, 0, 69, 66
2, 33558, Note_on_c, 0, 76, 73
2, 33684, Note_on_c, 0, 81, 79
2, 33806, Note_on_c, 0, 83, 82
2, 33956, Note_on_c, 0, 64, 81
2, 33983, Note_on_c, 0, 100, 86
2, 33986, Note_on_c, 0, 88, 84
2, 34536, Note_on_c, 0, 61, 0
2, 34541, Note_on_c, 0, 61, 82
2, 35003, Note_on_c, 0, 42, 46
2, 35039, Note_on_c, 0, 52, 57
2, 35066, Note_on_c, 0, 57, 0
2, 35077, Note_on_c, 0, 57, 65
2, 35097, Note_on_c, 0, 61, 0
2, 35097, Note_on_c, 0, 66, 0
2, 35102, Note_on_c, 0, 61, 77
2, 35103, Note_on_c, 0, 66, 79
2, 35112, Control_c, 0, 64, 0
2, 35139, Note_on_c, 0, 69, 0
2, 35140, Note_on_c, 0, 81, 0
2, 35140, Note_on_c, 0, 76, 0
2, 35141, Note_on_c, 0, 54, 0
2, 35141, Note_on_c, 0, 88, 0
2, 35145, Note_on_c, 0, 83, 0
2, 35146, Note_on_c, 0, 64, 0
2, 35159, Note_on_c, 0, 100, 0
2, 35220, Note_on_c, 0, 47, 0
2, 35289, Note_on_c, 0, 59, 81
2, 35312, Control_c, 0, 64, 127
2, 35335, Note_on_c, 0, 61, 0
2, 35343, Note_on_c, 0, 57, 0
2, 35507, Note_on_c, 0, 61, 83
2, 35934, Note_on_c, 0, 66, 0
2, 35937, Note_on_c, 0, 100, 80
2, 36084, Note_on_c, 0, 95, 77
2, 36206, Note_on_c, 0, 93, 82
2, 36328, Note_on_c, 0, 92, 81
2, 36452, Note_on_c, 0, 88, 83
2, 36599, Note_on_c, 0, 83, 73
2, 36751, Note_on_c, 0, 81, 64
2, 37002, Note_on_c, 0, 59, 0
2, 37009, Note_on_c, 0, 59, 79
2, 37294, Note_on_c, 0, 59, 0
2, 37298, Note_on_c, 0, 40, 57
2, 37299, Note_on_c, 0, 59, 73
2, 37301, Note_on_c, 0, 52, 0
2, 37301, Note_on_c, 0, 61, 0
2, 37305, Note_on_c, 0, 47, 66
2, 37311, Note_on_c, 0, 61, 69
2, 37312, Note_on_c, 0, 52, 57
2, 37326, Note_on_c, 0, 64, 54
2, 37367, Note_on_c, 0, 88, 0
2, 37369, Note_on_c, 0, 81, 0
2, 37370, Control_c, 0, 64, 0
2, 37371, Note_on_c, 0, 95, 0
2, 37372, Note_on_c, 0, 93, 0
2, 37373, Note_on_c, 0, 83, 0
2, 37393, Note_on_c, 0, 92, 0
2, 37393, Note_on_c, 0, 100, 0
2, 37455, Control_c, 0, 64, 127
2, 37495, Note_on_c, 0, 57, 73
2, 37501, Note_on_c, 0, 42, 0
2, 37504, Control_c, 0, 64, 0
2, 37539, Note_on_c, 0, 59, 0
2, 37539, Control_c, 0, 64, 127
2, 37729, Note_on_c, 0, 59, 82
2, 38127, Note_on_c, 0, 93, 79
2, 38261, Note_on_c, 0, 92, 80
2, 38391, Note_on_c, 0, 88, 76
2, 38510, Note_on_c, 0, 83, 74
2, 38652, Note_on_c, 0, 81, 76
2, 38788, Note_on_c, 0, 80, 70
2, 38922, Note_on_c, 0, 57, 0
2, 38929, Note_on_c, 0, 57, 76
2, 38932, Note_on_c, 0, 69, 72
2, 38934, Note_on_c, 0, 76, 77
2, 39344, Note_on_c, 0, 38, 59
2, 39416, Note_on_c, 0, 45, 47
2, 39431, Note_on_c, 0, 92, 0
2, 39431, Note_on_c, 0, 40, 0
2, 39431, Note_on_c, 0, 93, 0
2, 39431, Note_on_c, 0, 81, 0
2, 39432, Note_on_c, 0, 80, 0
2, 39432, Note_on_c, 0, 88, 0
2, 39432, Note_on_c, 0, 83, 0
2, 39433, Note_on_c, 0, 59, 0
2, 39433, Note_on_c, 0, 76, 0
2, 39434, Note_on_c, 0, 47, 0
2, 39444, Note_on_c, 0, 52, 0
2, 39444, Note_on_c, 0, 57, 0
2, 39447, Control_c, 0, 64, 0
2, 39452, Note_on_c, 0, 61, 0
2, 39455, Note_on_c, 0, 57, 73
2, 39456, Note_on_c, 0, 66, 78
2, 39459, Note_on_c, 0, 64, 0
2, 39475, Note_on_c, 0, 45, 0
2, 39485, Note_on_c, 0, 45, 55
2, 39492, Note_on_c, 0, 61, 63
2, 39494, Note_on_c, 0, 54, 56
2, 39559, Note_on_c, 0, 69, 0
2, 39628, Control_c, 0, 64, 127
2, 39679, Note_on_c, 0, 59, 63
2, 39882, Note_on_c, 0, 54, 0
2, 39891, Note_on_c, 0, 54, 65
2, 40154, Note_on_c, 0, 69, 63
2, 40296, Note_on_c, 0, 76, 75
2, 40423, Note_on_c, 0, 81, 65
2, 40545, Note_on_c, 0, 88, 87
2, 40617, Note_on_c, 0, 78, 32
2, 40627, Note_on_c, 0, 78, 0
2, 40688, Note_on_c, 0, 83, 77
2, 40819, Note_on_c, 0, 81, 0
2, 40825, Note_on_c, 0, 81, 76
2, 40942, Note_on_c, 0, 76, 0
2, 40952, Note_on_c, 0, 76, 74
2, 41088, Note_on_c, 0, 69, 0
2, 41090, Note_on_c, 0, 73, 92
2, 41092, Note_on_c, 0, 69, 72
2, 41227, Note_on_c, 0, 64, 74
2, 41343, Note_on_c, 0, 62, 76
2, 41441, Note_on_c, 0, 61, 0
2, 41447, Note_on_c, 0, 61, 81
2, 41479, Note_on_c, 0, 73, 0
2, 41486, Note_on_c, 0, 73, 84
2, 41602, Note_on_c, 0, 57, 0
2, 41606, Control_c, 0, 64, 0
2, 41607, Note_on_c, 0, 81, 0
2, 41607, Note_on_c, 0, 45, 0
2, 41607, Note_on_c, 0, 54, 0
2, 41608, Note_on_c, 0, 62, 0
2, 41608, Note_on_c, 0, 38, 0
2, 41608, Note_on_c, 0, 59, 0
2, 41608, Note_on_c, 0, 66, 0
2, 41608, Note_on_c, 0, 76, 0
2, 41608, Note_on_c, 0, 83, 0
2, 41609, Note_on_c, 0, 64, 0
2, 41609, Note_on_c, 0, 88, 0
2, 41609, Note_on_c, 0, 61, 0
2, 41625, Note_on_c, 0, 73, 0
2, 41632, Note_on_c, 0, 73, 89
2, 41633, Note_on_c, 0, 69, 0
2, 41641, Note_on_c, 0, 69, 80
2, 41643, Note_on_c, 0, 57, 68
2, 41668, Note_on_c, 0, 47, 59
2, 41676, Note_on_c, 0, 54, 59
2, 41763, Control_c, 0, 64, 127
2, 42339, Note_on_c, 0, 54, 0
2, 42350, Note_on_c, 0, 54, 68
2, 42468, Note_on_c, 0, 59, 71
2, 42614, Note_on_c, 0, 61, 71
2, 42742, Note_on_c, 0, 81, 98
2, 42758, Note_on_c, 0, 78, 81
2, 42758, Note_on_c, 0, 64, 75
2, 42773, Note_on_c, 0, 76, 73
2, 43299, Note_on_c, 0, 78, 0
2, 43307, Note_on_c, 0, 78, 95
2, 43315, Note_on_c, 0, 76, 0
2, 43319, Note_on_c, 0, 76, 82
2, 43322, Note_on_c, 0, 73, 0
2, 43328, Note_on_c, 0, 73, 74
2, 43769, Note_on_c, 0, 42, 53
2, 43817, Note_on_c, 0, 52, 60
2, 43845, Note_on_c, 0, 57, 0
2, 43845, Note_on_c, 0, 78, 0
2, 43855, Note_on_c, 0, 57, 71
2, 43856, Note_on_c, 0, 78, 92
2, 43860, Note_on_c, 0, 73, 0
2, 43871, Note_on_c, 0, 73, 81
2, 43872, Control_c, 0, 64, 0
2, 43886, Note_on_c, 0, 61, 0
2, 43886, Note_on_c, 0, 69, 0
2, 43887, Note_on_c, 0, 47, 0
2, 43887, Note_on_c, 0, 81, 0
2, 43887, Note_on_c, 0, 64, 0
2, 43888, Note_on_c, 0, 59, 0
2, 43888, Note_on_c, 0, 76, 0
2, 43906, Note_on_c, 0, 54, 0
2, 43968, Control_c, 0, 64, 127
2, 44070, Note_on_c, 0, 76, 86
2, 44079, Note_on_c, 0, 71, 73
2, 44175, Note_on_c, 0, 73, 0
2, 44290, Note_on_c, 0, 78, 0
2, 44296, Note_on_c, 0, 78, 91
2, 44309, Note_on_c, 0, 73, 77
2, 44413, Note_on_c, 0, 71, 0
2, 44823, Note_on_c, 0, 54, 59
2, 44952, Note_on_c, 0, 61, 66
2, 45082, Note_on_c, 0, 69, 72
2, 45208, Note_on_c, 0, 68, 71
2, 45348, Note_on_c, 0, 64, 70
2, 45473, Note_on_c, 0, 76, 0
2, 45478, Note_on_c, 0, 81, 93
2, 45483, Note_on_c, 0, 59, 72
2, 45484, Note_on_c, 0, 76, 87
2, 45626, Note_on_c, 0, 52, 0
2, 45637, Note_on_c, 0, 52, 59
2, 45757, Note_on_c, 0, 42, 0
2, 45768, Note_on_c, 0, 42, 58
2, 46080, Note_on_c, 0, 81, 0
2, 46083, Note_on_c, 0, 47, 67
2, 46084, Note_on_c, 0, 81, 92
2, 46087, Note_on_c, 0, 54, 0
2, 46087, Note_on_c, 0, 76, 0
2, 46094, Note_on_c, 0, 76, 76
2, 46097, Note_on_c, 0, 54, 59
2, 46103, Note_on_c, 0, 69, 0
2, 46110, Note_on_c, 0, 57, 0
2, 46112, Note_on_c, 0, 69, 64
2, 46116, Note_on_c, 0, 57, 64
2, 46139, Control_c, 0, 64, 0
2, 46153, Note_on_c, 0, 73, 0
2, 46153, Note_on_c, 0, 78, 0
2, 46153, Note_on_c, 0, 64, 0
2, 46154, Note_on_c, 0, 52, 0
2, 46154, Note_on_c, 0, 61, 0
2, 46155, Note_on_c, 0, 59, 0
2, 46157, Note_on_c, 0, 42, 0
2, 46157, Note_on_c, 0, 68, 0
2, 46187, Control_c, 0, 64, 127
2, 46291, Note_on_c, 0, 78, 85
2, 46297, Note_on_c, 0, 73, 68
2, 46479, Note_on_c, 0, 69, 0
2, 46510, Note_on_c, 0, 81, 0
2, 46519, Note_on_c, 0, 81, 89
2, 46533, Note_on_c, 0, 76, 0
2, 46537, Note_on_c, 0, 76, 79
2, 47040, Note_on_c, 0, 47, 0
2, 47045, Note_on_c, 0, 47, 53
2, 47178, Note_on_c, 0, 54, 0
2, 47184, Note_on_c, 0, 54, 60
2, 47324, Note_on_c, 0, 57, 0
2, 47328, Note_on_c, 0, 57, 65
2, 47458, Note_on_c, 0, 59, 59
2, 47595, Note_on_c, 0, 61, 55
2, 47750, Note_on_c, 0, 83, 81
2, 47761, Note_on_c, 0, 78, 0
2, 47769, Note_on_c, 0, 81, 0
2, 47780, Note_on_c, 0, 64, 59
2, 47780, Note_on_c, 0, 81, 64
2, 47784, Note_on_c, 0, 71, 48
2, 47784, Note_on_c, 0, 76, 0
2, 47791, Note_on_c, 0, 76, 52
2, 48337, Note_on_c, 0, 59, 0
2, 48343, Note_on_c, 0, 49, 46
2, 48348, Note_on_c, 0, 59, 50
2, 48368, Note_on_c, 0, 47, 0
2, 48370, Note_on_c, 0, 71, 0
2, 48370, Control_c, 0, 64, 0
2, 48370, Note_on_c, 0, 54, 0
2, 48371, Note_on_c, 0, 61, 0
2, 48371, Note_on_c, 0, 57, 0
2, 48371, Note_on_c, 0, 73, 0
2, 48372, Note_on_c, 0, 56, 49
2, 48476, Note_on_c, 0, 81, 0
2, 48606, Control_c, 0, 64, 127
2, 49675, Note_on_c, 0, 93, 70
2, 49701, Note_on_c, 0, 81, 39
2, 49973, Note_on_c, 0, 92, 82
2, 49998, Note_on_c, 0, 80, 67
2, 50403, Note_on_c, 0, 93, 0
2, 50408, Note_on_c, 0, 93, 81
2, 50411, Note_on_c, 0, 81, 0
2, 50419, Note_on_c, 0, 81, 65
2, 50813, Note_on_c, 0, 95, 81
2, 50833, Note_on_c, 0, 83, 0
2, 50839, Note_on_c, 0, 83, 57
2, 51103, Note_on_c, 0, 95, 0
2, 51103, Note_on_c, 0, 92, 0
2, 51103, Note_on_c, 0, 56, 0
2, 51103, Note_on_c, 0, 80, 0
2, 51104, Control_c, 0, 64, 0
2, 51104, Note_on_c, 0, 93, 0
2, 51105, Note_on_c, 0, 83, 0
2, 51105, Note_on_c, 0, 81, 0
2, 51106, Note_on_c, 0, 50, 48
2, 51107, Note_on_c, 0, 90, 75
2, 51118, Note_on_c, 0, 49, 0
2, 51118, Note_on_c, 0, 64, 0
2, 51118, Note_on_c, 0, 76, 0
2, 51125, Note_on_c, 0, 59, 0
2, 51131, Note_on_c, 0, 78, 60
2, 51187, Control_c, 0, 64, 127
2, 51448, Note_on_c, 0, 50, 0
2, 51535, Note_on_c, 0, 57, 53
2, 51662, Note_on_c, 0, 93, 86
2, 51683, Note_on_c, 0, 81, 65
2, 51814, Note_on_c, 0, 64, 56
2, 52064, Note_on_c, 0, 69, 61
2, 52182, Note_on_c, 0, 90, 0
2, 52182, Control_c, 0, 64, 0
2, 52182, Note_on_c, 0, 93, 0
2, 52183, Note_on_c, 0, 81, 0
2, 52183, Note_on_c, 0, 78, 0
2, 52183, Note_on_c, 0, 64, 0
2, 52183, Note_on_c, 0, 69, 0
2, 52184, Note_on_c, 0, 57, 0
2, 52211, Note_on_c, 0, 92, 89
2, 52222, Note_on_c, 0, 52, 53
2, 52223, Note_on_c, 0, 80, 74
2, 52247, Control_c, 0, 64, 127
2, 52472, Note_on_c, 0, 93, 84
2, 52497, Note_on_c, 0, 81, 64
2, 52601, Note_on_c, 0, 59, 65
2, 52759, Note_on_c, 0, 95, 84
2, 52765, Note_on_c, 0, 83, 74
2, 52886, Note_on_c, 0, 64, 64
2, 53007, Note_on_c, 0, 95, 0
2, 53015, Note_on_c, 0, 83, 0
2, 53015, Note_on_c, 0, 95, 87
2, 53025, Note_on_c, 0, 83, 75
2, 53144, Note_on_c, 0, 71, 69
2, 53235, Note_on_c, 0, 93, 0
2, 53236, Note_on_c, 0, 92, 0
2, 53236, Note_on_c, 0, 80, 0
2, 53236, Note_on_c, 0, 81, 0
2, 53237, Note_on_c, 0, 59, 0
2, 53238, Note_on_c, 0, 52, 0
2, 53239, Note_on_c, 0, 64, 0
2, 53240, Control_c, 0, 64, 0
2, 53275, Note_on_c, 0, 54, 65
2, 53306, Control_c, 0, 64, 127
2, 53337, Note_on_c, 0, 71, 0
2, 53556, Note_on_c, 0, 93, 86
2, 53571, Note_on_c, 0, 81, 71
2, 53690, Note_on_c, 0, 61, 61
2, 53825, Note_on_c, 0, 88, 83
2, 53830, Note_on_c, 0, 76, 74
2, 53965, Note_on_c, 0, 64, 68
2, 54082, Note_on_c, 0, 95, 0
2, 54090, Note_on_c, 0, 83, 0
2, 54092, Note_on_c, 0, 95, 80
2, 54095, Note_on_c, 0, 83, 75
2, 54193, Note_on_c, 0, 69, 71
2, 54213, Note_on_c, 0, 93, 0
2, 54218, Note_on_c, 0, 93, 88
2, 54220, Note_on_c, 0, 81, 0
2, 54229, Note_on_c, 0, 81, 68
2, 54353, Note_on_c, 0, 66, 65
2, 54466, Note_on_c, 0, 76, 0
2, 54471, Note_on_c, 0, 76, 70
2, 54616, Note_on_c, 0, 90, 87
2, 54617, Note_on_c, 0, 78, 77
2, 54733, Note_on_c, 0, 73, 70
2, 54883, Note_on_c, 0, 97, 91
2, 54885, Note_on_c, 0, 85, 87
2, 54996, Note_on_c, 0, 69, 0
2, 55007, Note_on_c, 0, 69, 71
2, 55134, Note_on_c, 0, 95, 0
2, 55138, Note_on_c, 0, 95, 91
2, 55142, Note_on_c, 0, 83, 0
2, 55147, Note_on_c, 0, 83, 83
2, 55249, Note_on_c, 0, 64, 0
2, 55258, Note_on_c, 0, 64, 57
2, 55342, Note_on_c, 0, 93, 0
2, 55343, Note_on_c, 0, 88, 0
2, 55343, Control_c, 0, 64, 0
2, 55343, Note_on_c, 0, 90, 0
2, 55343, Note_on_c, 0, 69, 0
2, 55343, Note_on_c, 0, 76, 0
2, 55343, Note_on_c, 0, 64, 0
2, 55344, Note_on_c, 0, 61, 0
2, 55344, Note_on_c, 0, 81, 0
2, 55344, Note_on_c, 0, 85, 0
2, 55344, Note_on_c, 0, 73, 0
2, 55344, Note_on_c, 0, 66, 0
2, 55344, Note_on_c, 0, 78, 0
2, 55349, Note_on_c, 0, 54, 0
2, 55349, Note_on_c, 0, 97, 0
2, 55409, Note_on_c, 0, 50, 69
2, 55411, Control_c, 0, 64, 127
2, 55472, Note_on_c, 0, 50, 0
2, 55684, Note_on_c, 0, 90, 79
2, 55687, Note_on_c, 0, 78, 75
2, 55795, Note_on_c, 0, 57, 58
2, 55945, Note_on_c, 0, 97, 88
2, 55947, Note_on_c, 0, 85, 89
2, 56077, Note_on_c, 0, 64, 66
2, 56202, Note_on_c, 0, 83, 0
2, 56202, Note_on_c, 0, 95, 0
2, 56206, Note_on_c, 0, 95, 86
2, 56212, Note_on_c, 0, 83, 78
2, 56323, Note_on_c, 0, 69, 64
2, 56376, Control_c, 0, 64, 0
2, 56380, Note_on_c, 0, 90, 0
2, 56381, Note_on_c, 0, 97, 0
2, 56381, Note_on_c, 0, 64, 0
2, 56381, Note_on_c, 0, 85, 0
2, 56382, Note_on_c, 0, 57, 0
2, 56383, Note_on_c, 0, 78, 0
2, 56455, Control_c, 0, 64, 127
2, 56463, Note_on_c, 0, 49, 60
2, 56547, Note_on_c, 0, 95, 0
2, 56721, Note_on_c, 0, 88, 85
2, 56734, Note_on_c, 0, 76, 70
2, 56860, Note_on_c, 0, 56, 63
2, 56993, Note_on_c, 0, 76, 0
2, 56993, Note_on_c, 0, 88, 0
2, 56999, Note_on_c, 0, 88, 84
2, 57004, Note_on_c, 0, 76, 75
2, 57142, Note_on_c, 0, 64, 69
2, 57275, Note_on_c, 0, 95, 89
2, 57277, Note_on_c, 0, 83, 0
2, 57281, Note_on_c, 0, 83, 82
2, 57389, Note_on_c, 0, 71, 63
2, 57522, Control_c, 0, 64, 0
2, 57524, Note_on_c, 0, 56, 0
2, 57524, Note_on_c, 0, 95, 0
2, 57525, Note_on_c, 0, 88, 0
2, 57525, Note_on_c, 0, 76, 0
2, 57525, Note_on_c, 0, 71, 0
2, 57525, Note_on_c, 0, 64, 0
2, 57526, Note_on_c, 0, 83, 0
2, 57530, Note_on_c, 0, 49, 0
2, 57533, Note_on_c, 0, 93, 91
2, 57538, Note_on_c, 0, 69, 0
2, 57539, Note_on_c, 0, 54, 62
2, 57542, Note_on_c, 0, 81, 73
2, 57607, Control_c, 0, 64, 127
2, 57807, Note_on_c, 0, 92, 85
2, 57812, Note_on_c, 0, 80, 80
2, 57949, Note_on_c, 0, 61, 63
2, 58068, Note_on_c, 0, 93, 0
2, 58073, Note_on_c, 0, 93, 85
2, 58076, Note_on_c, 0, 81, 0
2, 58082, Note_on_c, 0, 81, 75
2, 58213, Note_on_c, 0, 64, 59
2, 58333, Note_on_c, 0, 95, 84
2, 58341, Note_on_c, 0, 83, 68
2, 58446, Note_on_c, 0, 69, 61
2, 58456, Note_on_c, 0, 97, 88
2, 58472, Note_on_c, 0, 85, 85
2, 58522, Note_on_c, 0, 61, 0
2, 58522, Note_on_c, 0, 92, 0
2, 58523, Note_on_c, 0, 80, 0
2, 58523, Note_on_c, 0, 64, 0
2, 58523, Note_on_c, 0, 54, 0
2, 58523, Note_on_c, 0, 93, 0
2, 58523, Note_on_c, 0, 81, 0
2, 58523, Note_on_c, 0, 83, 0
2, 58525, Control_c, 0, 64, 0
2, 58575, Control_c, 0, 64, 127
2, 58585, Note_on_c, 0, 57, 72
2, 58734, Note_on_c, 0, 64, 65
2, 58767, Note_on_c, 0, 95, 0
2, 58839, Note_on_c, 0, 93, 87
2, 58844, Note_on_c, 0, 69, 0
2, 58844, Note_on_c, 0, 85, 0
2, 58855, Note_on_c, 0, 69, 66
2, 58855, Note_on_c, 0, 85, 84
2, 58989, Note_on_c, 0, 76, 80
2, 59097, Note_on_c, 0, 93, 0
2, 59105, Note_on_c, 0, 93, 94
2, 59112, Note_on_c, 0, 85, 0
2, 59117, Note_on_c, 0, 85, 88
2, 59119, Note_on_c, 0, 71, 70
2, 59235, Note_on_c, 0, 69, 0
2, 59245, Note_on_c, 0, 69, 76
2, 59370, Note_on_c, 0, 88, 95
2, 59370, Note_on_c, 0, 68, 79
2, 59377, Note_on_c, 0, 80, 87
2, 59496, Note_on_c, 0, 64, 0
2, 59505, Note_on_c, 0, 64, 75
2, 59636, Control_c, 0, 64, 0
2, 59637, Note_on_c, 0, 50, 76
2, 59637, Note_on_c, 0, 93, 0
2, 59637, Note_on_c, 0, 64, 0
2, 59637, Note_on_c, 0, 71, 0
2, 59638, Note_on_c, 0, 76, 0
2, 59638, Note_on_c, 0, 88, 0
2, 59638, Note_on_c, 0, 85, 0
2, 59638, Note_on_c, 0, 57, 0
2, 59638, Note_on_c, 0, 69, 0
2, 59638, Note_on_c, 0, 80, 0
2, 59638, Note_on_c, 0, 68, 0
2, 59642, Note_on_c, 0, 97, 0
2, 59648, Note_on_c, 0, 90, 101
2, 59654, Note_on_c, 0, 81, 86
2, 59654, Note_on_c, 0, 78, 87
2, 59712, Control_c, 0, 64, 127
2, 59789, Note_on_c, 0, 57, 64
2, 59918, Note_on_c, 0, 62, 74
2, 60039, Note_on_c, 0, 64, 76
2, 60174, Note_on_c, 0, 93, 100
2, 60188, Note_on_c, 0, 81, 0
2, 60194, Note_on_c, 0, 81, 80
2, 60195, Note_on_c, 0, 90, 0
2, 60202, Note_on_c, 0, 90, 81
2, 60303, Note_on_c, 0, 62, 0
2, 60312, Note_on_c, 0, 62, 79
2, 60426, Note_on_c, 0, 69, 77
2, 60568, Note_on_c, 0, 76, 71
2, 60683, Note_on_c, 0, 69, 0
2, 60683, Note_on_c, 0, 90, 0
2, 60683, Note_on_c, 0, 62, 0
2, 60683, Note_on_c, 0, 50, 0
2, 60683, Note_on_c, 0, 64, 0
2, 60683, Note_on_c, 0, 78, 0
2, 60683, Note_on_c, 0, 81, 0
2, 60683, Note_on_c, 0, 57, 0
2, 60683, Note_on_c, 0, 93, 0
2, 60684, Note_on_c, 0, 76, 0
2, 60684, Control_c, 0, 64, 0
2, 60705, Note_on_c, 0, 92, 97
2, 60714, Note_on_c, 0, 52, 77
2, 60720, Note_on_c, 0, 83, 79
2, 60720, Note_on_c, 0, 80, 79
2, 60756, Control_c, 0, 64, 127
2, 60846, Note_on_c, 0, 59, 73
2, 60961, Note_on_c, 0, 93, 98
2, 60978, Note_on_c, 0, 81, 79
2, 60979, Note_on_c, 0, 64, 79
2, 60988, Note_on_c, 0, 90, 79
2, 61106, Note_on_c, 0, 68, 81
2, 61240, Note_on_c, 0, 83, 0
2, 61244, Note_on_c, 0, 95, 95
2, 61248, Note_on_c, 0, 92, 0
2, 61251, Note_on_c, 0, 83, 88
2, 61253, Note_on_c, 0, 92, 88
2, 61370, Note_on_c, 0, 64, 0
2, 61375, Note_on_c, 0, 64, 76
2, 61501, Note_on_c, 0, 95, 0
2, 61502, Note_on_c, 0, 71, 72
2, 61508, Note_on_c, 0, 95, 98
2, 61516, Note_on_c, 0, 83, 0
2, 61524, Note_on_c, 0, 83, 86
2, 61524, Note_on_c, 0, 92, 0
2, 61533, Note_on_c, 0, 92, 81
2, 61635, Note_on_c, 0, 76, 70
2, 61765, Note_on_c, 0, 52, 0
2, 61765, Note_on_c, 0, 93, 0
2, 61765, Note_on_c, 0, 90, 0
2, 61765, Note_on_c, 0, 95, 0
2, 61765, Control_c, 0, 64, 0
2, 61765, Note_on_c, 0, 92, 0
2, 61765, Note_on_c, 0, 81, 0
2, 61765, Note_on_c, 0, 64, 0
2, 61766, Note_on_c, 0, 80, 0
2, 61766, Note_on_c, 0, 68, 0
2, 61766, Note_on_c, 0, 59, 0
2, 61766, Note_on_c, 0, 71, 0
2, 61779, Note_on_c, 0, 54, 74
2, 61854, Control_c, 0, 64, 127
2, 61908, Note_on_c, 0, 54, 0
2, 61913, Note_on_c, 0, 61, 68
2, 62008, Note_on_c, 0, 83, 0
2, 62041, Note_on_c, 0, 97, 94
2, 62049, Note_on_c, 0, 88, 80
2, 62050, Note_on_c, 0, 64, 68
2, 62051, Note_on_c, 0, 85, 84
2, 62171, Note_on_c, 0, 69, 76
2, 62308, Note_on_c, 0, 95, 94
2, 62316, Note_on_c, 0, 83, 86
2, 62321, Note_on_c, 0, 92, 78
2, 62330, Note_on_c, 0, 76, 0
2, 62438, Note_on_c, 0, 64, 0
2, 62442, Note_on_c, 0, 64, 77
2, 62576, Note_on_c, 0, 69, 0
2, 62580, Note_on_c, 0, 69, 68
2, 62581, Note_on_c, 0, 93, 102
2, 62590, Note_on_c, 0, 81, 82
2, 62592, Note_on_c, 0, 85, 0
2, 62597, Note_on_c, 0, 85, 88
2, 62686, Note_on_c, 0, 76, 73
2, 62820, Control_c, 0, 64, 0
2, 62820, Note_on_c, 0, 95, 0
2, 62821, Note_on_c, 0, 93, 0
2, 62822, Note_on_c, 0, 69, 0
2, 62823, Note_on_c, 0, 83, 0
2, 62823, Note_on_c, 0, 61, 0
2, 62823, Note_on_c, 0, 81, 0
2, 62823, Note_on_c, 0, 88, 0
2, 62824, Note_on_c, 0, 64, 0
2, 62830, Note_on_c, 0, 92, 0
2, 62845, Note_on_c, 0, 97, 0
2, 62859, Note_on_c, 0, 49, 71
2, 62906, Control_c, 0, 64, 127
2, 62978, Note_on_c, 0, 56, 76
2, 63105, Note_on_c, 0, 93, 91
2, 63106, Note_on_c, 0, 85, 0
2, 63110, Note_on_c, 0, 81, 75
2, 63111, Note_on_c, 0, 85, 86
2, 63117, Note_on_c, 0, 59, 66
2, 63248, Note_on_c, 0, 64, 62
2, 63383, Note_on_c, 0, 49, 0
2, 63387, Note_on_c, 0, 92, 100
2, 63389, Note_on_c, 0, 80, 90
2, 63513, Note_on_c, 0, 64, 0
2, 63519, Note_on_c, 0, 64, 71
2, 63622, Note_on_c, 0, 71, 78
2, 63635, Note_on_c, 0, 88, 82
2, 63659, Note_on_c, 0, 80, 0
2, 63667, Note_on_c, 0, 80, 69
2, 63767, Note_on_c, 0, 76, 0
2, 63771, Note_on_c, 0, 76, 65
2, 63865, Control_c, 0, 64, 0
2, 63866, Note_on_c, 0, 93, 0
2, 63867, Note_on_c, 0, 92, 0
2, 63867, Note_on_c, 0, 71, 0
2, 63867, Note_on_c, 0, 81, 0
2, 63868, Note_on_c, 0, 88, 0
2, 63868, Note_on_c, 0, 80, 0
2, 63868, Note_on_c, 0, 56, 0
2, 63868, Note_on_c, 0, 59, 0
2, 63868, Note_on_c, 0, 64, 0
2, 63869, Note_on_c, 0, 76, 0
2, 63869, Note_on_c, 0, 85, 0
2, 63907, Note_on_c, 0, 90, 93
2, 63910, Note_on_c, 0, 81, 69
2, 63912, Note_on_c, 0, 78, 75
2, 63914, Note_on_c, 0, 47, 70
2, 63943, Control_c, 0, 64, 127
2, 63974, Note_on_c, 0, 78, 0
2, 63974, Note_on_c, 0, 81, 0
2, 64031, Note_on_c, 0, 54, 67
2, 64167, Note_on_c, 0, 97, 91
2, 64177, Note_on_c, 0, 85, 89
2, 64177, Note_on_c, 0, 93, 74
2, 64179, Note_on_c, 0, 57, 64
2, 64288, Note_on_c, 0, 62, 65
2, 64421, Note_on_c, 0, 59, 73
2, 64557, Note_on_c, 0, 66, 76
2, 64685, Note_on_c, 0, 69, 75
2, 64810, Note_on_c, 0, 74, 70
2, 64819, Note_on_c, 0, 90, 0
2, 64823, Note_on_c, 0, 90, 86
2, 64826, Note_on_c, 0, 78, 80
2, 64915, Note_on_c, 0, 93, 0
2, 64916, Note_on_c, 0, 47, 0
2, 64916, Note_on_c, 0, 69, 0
2, 64917, Note_on_c, 0, 74, 0
2, 64917, Note_on_c, 0, 59, 0
2, 64917, Note_on_c, 0, 54, 0
2, 64917, Note_on_c, 0, 57, 0
2, 64918, Note_on_c, 0, 90, 0
2, 64918, Note_on_c, 0, 62, 0
2, 64919, Note_on_c, 0, 78, 0
2, 64919, Note_on_c, 0, 85, 0
2, 64919, Note_on_c, 0, 66, 0
2, 64921, Control_c, 0, 64, 0
2, 64926, Note_on_c, 0, 97, 0
2, 64947, Note_on_c, 0, 49, 80
2, 64953, Note_on_c, 0, 88, 95
2, 64961, Note_on_c, 0, 76, 84
2, 64968, Note_on_c, 0, 80, 78
2, 64990, Note_on_c, 0, 49, 0
2, 64995, Control_c, 0, 64, 127
2, 65090, Note_on_c, 0, 56, 73
2, 65219, Note_on_c, 0, 95, 96
2, 65222, Note_on_c, 0, 83, 86
2, 65224, Note_on_c, 0, 59, 70
2, 65229, Note_on_c, 0, 92, 87
2, 65343, Note_on_c, 0, 64, 79
2, 65482, Note_on_c, 0, 61, 77
2, 65617, Note_on_c, 0, 68, 76
2, 65733, Note_on_c, 0, 80, 0
2, 65733, Note_on_c, 0, 92, 0
2, 65737, Note_on_c, 0, 92, 92
2, 65738, Note_on_c, 0, 71, 76
2, 65741, Note_on_c, 0, 80, 80
2, 65856, Note_on_c, 0, 76, 0
2, 65863, Note_on_c, 0, 76, 80
2, 65866, Note_on_c, 0, 93, 101
2, 65876, Note_on_c, 0, 85, 92
2, 65879, Note_on_c, 0, 81, 80
2, 65957, Note_on_c, 0, 92, 0
2, 65958, Note_on_c, 0, 76, 0
2, 65958, Note_on_c, 0, 88, 0
2, 65958, Note_on_c, 0, 80, 0
2, 65958, Note_on_c, 0, 56, 0
2, 65958, Note_on_c, 0, 95, 0
2, 65958, Note_on_c, 0, 61, 0
2, 65958, Note_on_c, 0, 68, 0
2, 65958, Note_on_c, 0, 59, 0
2, 65958, Note_on_c, 0, 64, 0
2, 65959, Note_on_c, 0, 71, 0
2, 65959, Note_on_c, 0, 83, 0
2, 65959, Control_c, 0, 64, 0
2, 66004, Note_on_c, 0, 50, 83
2, 66063, Control_c, 0, 64, 127
2, 66071, Note_on_c, 0, 50, 0
2, 66142, Note_on_c, 0, 57, 69
2, 66274, Note_on_c, 0, 64, 73
2, 66281, Note_on_c, 0, 90, 60
2, 66402, Note_on_c, 0, 83, 70
2, 66409, Note_on_c, 0, 66, 65
2, 66544, Note_on_c, 0, 62, 62
2, 66544, Note_on_c, 0, 78, 69
2, 66677, Note_on_c, 0, 66, 0
2, 66677, Note_on_c, 0, 83, 0
2, 66686, Note_on_c, 0, 66, 69
2, 66689, Note_on_c, 0, 83, 71
2, 66816, Note_on_c, 0, 85, 0
2, 66822, Note_on_c, 0, 71, 63
2, 66824, Note_on_c, 0, 85, 76
2, 66930, Note_on_c, 0, 76, 74
2, 66943, Note_on_c, 0, 88, 76
2, 67077, Note_on_c, 0, 78, 0
2, 67082, Note_on_c, 0, 78, 77
2, 67084, Note_on_c, 0, 50, 56
2, 67200, Note_on_c, 0, 85, 0
2, 67205, Note_on_c, 0, 85, 72
2, 67215, Note_on_c, 0, 57, 0
2, 67219, Note_on_c, 0, 57, 56
2, 67338, Note_on_c, 0, 64, 0
2, 67338, Note_on_c, 0, 90, 0
2, 67346, Note_on_c, 0, 90, 79
2, 67348, Note_on_c, 0, 64, 73
2, 67461, Note_on_c, 0, 83, 0
2, 67468, Note_on_c, 0, 66, 0
2, 67472, Note_on_c, 0, 83, 77
2, 67473, Note_on_c, 0, 66, 75
2, 67599, Note_on_c, 0, 62, 0
2, 67599, Note_on_c, 0, 78, 0
2, 67605, Note_on_c, 0, 62, 72
2, 67606, Note_on_c, 0, 78, 84
2, 67729, Note_on_c, 0, 66, 0
2, 67729, Note_on_c, 0, 83, 0
2, 67734, Note_on_c, 0, 66, 74
2, 67739, Note_on_c, 0, 83, 79
2, 67860, Note_on_c, 0, 71, 0
2, 67860, Note_on_c, 0, 85, 0
2, 67865, Note_on_c, 0, 85, 86
2, 67867, Note_on_c, 0, 71, 66
2, 67983, Note_on_c, 0, 76, 0
2, 67983, Note_on_c, 0, 88, 0
2, 67988, Note_on_c, 0, 76, 78
2, 67988, Note_on_c, 0, 88, 85
2, 68113, Note_on_c, 0, 78, 0
2, 68124, Note_on_c, 0, 52, 82
2, 68124, Note_on_c, 0, 78, 87
2, 68244, Note_on_c, 0, 85, 0
2, 68255, Note_on_c, 0, 85, 85
2, 68257, Note_on_c, 0, 59, 74
2, 68382, Note_on_c, 0, 64, 0
2, 68382, Note_on_c, 0, 90, 0
2, 68387, Note_on_c, 0, 64, 78
2, 68388, Note_on_c, 0, 90, 91
2, 68513, Note_on_c, 0, 66, 0
2, 68513, Note_on_c, 0, 83, 0
2, 68517, Note_on_c, 0, 83, 85
2, 68524, Note_on_c, 0, 66, 81
2, 68643, Note_on_c, 0, 64, 0
2, 68643, Note_on_c, 0, 78, 0
2, 68650, Note_on_c, 0, 64, 75
2, 68652, Note_on_c, 0, 78, 93
2, 68774, Note_on_c, 0, 66, 0
2, 68774, Note_on_c, 0, 83, 0
2, 68781, Note_on_c, 0, 83, 90
2, 68782, Note_on_c, 0, 66, 85
2, 68897, Note_on_c, 0, 85, 0
2, 68904, Note_on_c, 0, 71, 0
2, 68906, Note_on_c, 0, 85, 96
2, 68915, Note_on_c, 0, 71, 78
2, 69020, Note_on_c, 0, 88, 0
2, 69025, Note_on_c, 0, 88, 93
2, 69058, Note_on_c, 0, 76, 0
2, 69063, Note_on_c, 0, 76, 96
2, 69158, Note_on_c, 0, 93, 0
2, 69162, Note_on_c, 0, 93, 102
2, 69238, Note_on_c, 0, 92, 94
2, 69296, Note_on_c, 0, 88, 0
2, 69303, Note_on_c, 0, 88, 86
2, 69427, Note_on_c, 0, 81, 0
2, 69432, Note_on_c, 0, 81, 90
2, 69504, Note_on_c, 0, 80, 83
2, 69534, Note_on_c, 0, 76, 0
2, 69544, Note_on_c, 0, 76, 83
2, 69611, Note_on_c, 0, 71, 0
2, 69622, Note_on_c, 0, 71, 70
2, 69688, Note_on_c, 0, 52, 0
2, 69693, Note_on_c, 0, 52, 105
2, 69698, Note_on_c, 0, 40, 97
2, 69699, Note_on_c, 0, 69, 84
2, 69792, Note_on_c, 0, 68, 84
2, 69826, Note_on_c, 0, 40, 0
2, 69826, Note_on_c, 0, 52, 0
2, 69834, Note_on_c, 0, 64, 0
2, 69836, Note_on_c, 0, 40, 88
2, 69836, Note_on_c, 0, 52, 98
2, 69838, Note_on_c, 0, 64, 87
2, 69863, Note_on_c, 0, 59, 0
2, 69876, Note_on_c, 0, 78, 0
2, 69877, Note_on_c, 0, 66, 0
2, 69880, Note_on_c, 0, 85, 0
2, 69880, Note_on_c, 0, 71, 0
2, 69880, Note_on_c, 0, 69, 0
2, 69882, Note_on_c, 0, 81, 0
2, 69883, Note_on_c, 0, 76, 0
2, 69883, Note_on_c, 0, 92, 0
2, 69883, Control_c, 0, 64, 0
2, 69883, Note_on_c, 0, 83, 0
2, 69883, Note_on_c, 0, 88, 0
2, 69884, Note_on_c, 0, 80, 0
2, 69885, Note_on_c, 0, 68, 0
2, 69888, Note_on_c, 0, 50, 0
2, 69895, Note_on_c, 0, 90, 0
2, 69895, Note_on_c, 0, 93, 0
2, 69903, Note_on_c, 0, 62, 0
2, 69903, Note_on_c, 0, 64, 0
2, 69926, Note_on_c, 0, 40, 0
2, 69926, Note_on_c, 0, 52, 0
2, 69926, Note_on_c, 0, 57, 0
2, 70289, Note_on_c, 0, 78, 107
2, 70295, Control_c, 0, 64, 127
2, 70296, Note_on_c, 0, 66, 102
2, 70298, Note_on_c, 0, 69, 90
2, 70299, Note_on_c, 0, 73, 83
2, 70300, Note_on_c, 0, 42, 90
2, 70301, Note_on_c, 0, 30, 88
2, 70548, Note_on_c, 0, 30, 0
2, 70553, Note_on_c, 0, 30, 63
2, 70689, Note_on_c, 0, 54, 84
2, 70690, Note_on_c, 0, 76, 105
2, 70694, Note_on_c, 0, 69, 0
2, 70702, Note_on_c, 0, 73, 0
2, 70703, Note_on_c, 0, 71, 81
2, 70704, Note_on_c, 0, 69, 82
2, 70706, Note_on_c, 0, 73, 85
2, 70828, Note_on_c, 0, 61, 84
2, 70829, Note_on_c, 0, 64, 89
2, 71232, Note_on_c, 0, 30, 0
2, 71232, Note_on_c, 0, 42, 0
2, 71235, Note_on_c, 0, 42, 81
2, 71239, Note_on_c, 0, 30, 68
2, 71370, Note_on_c, 0, 64, 0
2, 71370, Note_on_c, 0, 69, 0
2, 71370, Note_on_c, 0, 73, 0
2, 71377, Note_on_c, 0, 71, 0
2, 71380, Note_on_c, 0, 73, 95
2, 71380, Note_on_c, 0, 64, 89
2, 71381, Note_on_c, 0, 69, 80
2, 71387, Note_on_c, 0, 71, 80
2, 71477, Note_on_c, 0, 30, 0
2, 71477, Note_on_c, 0, 42, 0
2, 71481, Note_on_c, 0, 30, 73
2, 71482, Note_on_c, 0, 42, 75
2, 71608, Note_on_c, 0, 42, 0
2, 71612, Note_on_c, 0, 42, 65
2, 71746, Note_on_c, 0, 76, 0
2, 71751, Note_on_c, 0, 76, 101
2, 71754, Note_on_c, 0, 54, 0
2, 71754, Note_on_c, 0, 69, 0
2, 71754, Note_on_c, 0, 73, 0
2, 71758, Note_on_c, 0, 54, 80
2, 71760, Note_on_c, 0, 73, 87
2, 71761, Note_on_c, 0, 71, 0
2, 71762, Note_on_c, 0, 69, 81
2, 71766, Note_on_c, 0, 71, 73
2, 71869, Note_on_c, 0, 61, 0
2, 71869, Note_on_c, 0, 64, 0
2, 71879, Note_on_c, 0, 64, 91
2, 71880, Note_on_c, 0, 61, 87
2, 72007, Note_on_c, 0, 54, 0
2, 72012, Note_on_c, 0, 54, 93
2, 72145, Note_on_c, 0, 30, 0
2, 72145, Note_on_c, 0, 42, 0
2, 72153, Note_on_c, 0, 42, 88
2, 72154, Note_on_c, 0, 30, 76
2, 72238, Note_on_c, 0, 54, 0
2, 72242, Note_on_c, 0, 54, 85
2, 72243, Note_on_c, 0, 66, 0
2, 72358, Note_on_c, 0, 30, 0
2, 72359, Note_on_c, 0, 69, 0
2, 72359, Note_on_c, 0, 71, 0
2, 72360, Note_on_c, 0, 42, 0
2, 72360, Note_on_c, 0, 73, 0
2, 72360, Note_on_c, 0, 61, 0
2, 72360, Note_on_c, 0, 64, 0
2, 72361, Note_on_c, 0, 54, 0
2, 72361, Note_on_c, 0, 76, 0
2, 72362, Note_on_c, 0, 78, 0
2, 72364, Control_c, 0, 64, 0
2, 72410, Note_on_c, 0, 78, 106
2, 72416, Note_on_c, 0, 66, 101
2, 72417, Note_on_c, 0, 69, 90
2, 72418, Note_on_c, 0, 73, 89
2, 72423, Note_on_c, 0, 40, 93
2, 72437, Control_c, 0, 64, 127
2, 72668, Note_on_c, 0, 40, 0
2, 72677, Note_on_c, 0, 40, 82
2, 72814, Note_on_c, 0, 69, 0
2, 72814, Note_on_c, 0, 73, 0
2, 72817, Note_on_c, 0, 76, 104
2, 72820, Note_on_c, 0, 52, 74
2, 72823, Note_on_c, 0, 69, 85
2, 72825, Note_on_c, 0, 73, 85
2, 72831, Note_on_c, 0, 71, 82
2, 72941, Note_on_c, 0, 64, 96
2, 72942, Note_on_c, 0, 61, 93
2, 73213, Note_on_c, 0, 52, 0
2, 73222, Note_on_c, 0, 52, 87
2, 73344, Note_on_c, 0, 40, 0
2, 73348, Note_on_c, 0, 40, 86
2, 73489, Note_on_c, 0, 52, 0
2, 73489, Note_on_c, 0, 64, 0
2, 73489, Note_on_c, 0, 73, 0
2, 73497, Note_on_c, 0, 73, 94
2, 73497, Note_on_c, 0, 69, 0
2, 73497, Note_on_c, 0, 71, 0
2, 73499, Note_on_c, 0, 52, 75
2, 73501, Note_on_c, 0, 64, 84
2, 73501, Note_on_c, 0, 69, 81
2, 73507, Note_on_c, 0, 71, 84
2, 73597, Note_on_c, 0, 40, 0
2, 73604, Note_on_c, 0, 40, 73
2, 73607, Note_on_c, 0, 28, 75
2, 73728, Note_on_c, 0, 40, 0
2, 73732, Note_on_c, 0, 40, 67
2, 73858, Note_on_c, 0, 76, 0
2, 73865, Note_on_c, 0, 76, 104
2, 73866, Note_on_c, 0, 69, 0
2, 73866, Note_on_c, 0, 73, 0
2, 73872, Note_on_c, 0, 73, 87
2, 73873, Note_on_c, 0, 69, 81
2, 73873, Note_on_c, 0, 52, 0
2, 73885, Note_on_c, 0, 52, 77
2, 73996, Note_on_c, 0, 61, 0
2, 73996, Note_on_c, 0, 64, 0
2, 74000, Note_on_c, 0, 64, 93
2, 74003, Note_on_c, 0, 61, 85
2, 74142, Note_on_c, 0, 52, 0
2, 74153, Note_on_c, 0, 52, 86
2, 74273, Note_on_c, 0, 40, 0
2, 74278, Note_on_c, 0, 40, 90
2, 74380, Note_on_c, 0, 52, 0
2, 74388, Note_on_c, 0, 52, 90
2, 74508, Note_on_c, 0, 40, 0
2, 74508, Note_on_c, 0, 73, 0
2, 74508, Note_on_c, 0, 52, 0
2, 74508, Control_c, 0, 64, 0
2, 74508, Note_on_c, 0, 61, 0
2, 74508, Note_on_c, 0, 64, 0
2, 74508, Note_on_c, 0, 78, 0
2, 74509, Note_on_c, 0, 76, 0
2, 74509, Note_on_c, 0, 66, 0
2, 74509, Note_on_c, 0, 71, 0
2, 74526, Note_on_c, 0, 69, 0
2, 74534, Note_on_c, 0, 28, 0
2, 74553, Note_on_c, 0, 78, 106
2, 74561, Note_on_c, 0, 69, 85
2, 74561, Note_on_c, 0, 66, 99
2, 74568, Note_on_c, 0, 38, 96
2, 74571, Note_on_c, 0, 33, 79
2, 74574, Note_on_c, 0, 26, 86
2, 74603, Control_c, 0, 64, 127
2, 74649, Note_on_c, 0, 33, 0
2, 74810, Note_on_c, 0, 38, 0
2, 74815, Note_on_c, 0, 38, 82
2, 74949, Note_on_c, 0, 69, 0
2, 74952, Note_on_c, 0, 76, 107
2, 74959, Note_on_c, 0, 73, 89
2, 74959, Note_on_c, 0, 69, 86
2, 74969, Note_on_c, 0, 71, 78
2, 75090, Note_on_c, 0, 64, 98
2, 75092, Note_on_c, 0, 61, 90
2, 75366, Note_on_c, 0, 50, 93
2, 75486, Note_on_c, 0, 38, 0
2, 75494, Note_on_c, 0, 38, 83
2, 75640, Note_on_c, 0, 64, 0
2, 75640, Note_on_c, 0, 69, 0
2, 75640, Note_on_c, 0, 73, 0
2, 75644, Note_on_c, 0, 73, 95
2, 75645, Note_on_c, 0, 69, 82
2, 75646, Note_on_c, 0, 64, 84
2, 75663, Note_on_c, 0, 71, 0
2, 75667, Note_on_c, 0, 71, 66
2, 75755, Note_on_c, 0, 38, 0
2, 75763, Note_on_c, 0, 38, 81
2, 75886, Note_on_c, 0, 38, 0
2, 75897, Note_on_c, 0, 38, 78
2, 76024, Note_on_c, 0, 38, 0
2, 76024, Note_on_c, 0, 69, 0
2, 76024, Note_on_c, 0, 76, 0
2, 76030, Note_on_c, 0, 69, 85
2, 76031, Note_on_c, 0, 76, 103
2, 76032, Note_on_c, 0, 71, 0
2, 76032, Note_on_c, 0, 73, 0
2, 76033, Note_on_c, 0, 38, 76
2, 76037, Note_on_c, 0, 73, 89
2, 76040, Note_on_c, 0, 71, 81
2, 76147, Note_on_c, 0, 61, 0
2, 76147, Note_on_c, 0, 64, 0
2, 76147, Note_on_c, 0, 66, 0
2, 76151, Note_on_c, 0, 66, 81
2, 76151, Note_on_c, 0, 64, 99
2, 76157, Note_on_c, 0, 61, 94
2, 76285, Note_on_c, 0, 26, 0
2, 76285, Note_on_c, 0, 38, 0
2, 76293, Note_on_c, 0, 38, 72
2, 76295, Note_on_c, 0, 26, 57
2, 76423, Note_on_c, 0, 38, 0
2, 76428, Note_on_c, 0, 38, 89
2, 76546, Note_on_c, 0, 50, 0
2, 76552, Note_on_c, 0, 50, 93
2, 76656, Note_on_c, 0, 66, 0
2, 76657, Note_on_c, 0, 61, 0
2, 76657, Note_on_c, 0, 73, 0
2, 76657, Note_on_c, 0, 38, 0
2, 76657, Note_on_c, 0, 50, 0
2, 76657, Note_on_c, 0, 64, 0
2, 76657, Note_on_c, 0, 76, 0
2, 76658, Note_on_c, 0, 71, 0
2, 76660, Control_c, 0, 64, 0
2, 76677, Note_on_c, 0, 26, 0
2, 76677, Note_on_c, 0, 69, 0
2, 76700, Note_on_c, 0, 78, 0
2, 76704, Note_on_c, 0, 78, 108
2, 76712, Note_on_c, 0, 73, 90
2, 76712, Note_on_c, 0, 69, 83
2, 76714, Note_on_c, 0, 38, 97
2, 76714, Note_on_c, 0, 66, 101
2, 76718, Note_on_c, 0, 72, 80
2, 76723, Note_on_c, 0, 72, 0
2, 76738, Control_c, 0, 64, 127
2, 76961, Note_on_c, 0, 38, 0
2, 76967, Note_on_c, 0, 38, 81
2, 77084, Note_on_c, 0, 38, 0
2, 77091, Note_on_c, 0, 69, 0
2, 77091, Note_on_c, 0, 73, 0
2, 77094, Note_on_c, 0, 76, 107
2, 77094, Note_on_c, 0, 38, 79
2, 77099, Note_on_c, 0, 69, 85
2, 77102, Note_on_c, 0, 71, 85
2, 77103, Note_on_c, 0, 73, 91
2, 77227, Note_on_c, 0, 64, 104
2, 77230, Note_on_c, 0, 61, 92
2, 77499, Note_on_c, 0, 50, 88
2, 77614, Note_on_c, 0, 38, 0
2, 77624, Note_on_c, 0, 38, 81
2, 77760, Note_on_c, 0, 64, 0
2, 77760, Note_on_c, 0, 69, 0
2, 77760, Note_on_c, 0, 73, 0
2, 77766, Note_on_c, 0, 73, 98
2, 77767, Note_on_c, 0, 71, 0
2, 77769, Note_on_c, 0, 64, 90
2, 77770, Note_on_c, 0, 69, 84
2, 77774, Note_on_c, 0, 71, 80
2, 77933, Note_on_c, 0, 36, 66
2, 77944, Note_on_c, 0, 36, 0
2, 78005, Note_on_c, 0, 38, 0
2, 78015, Note_on_c, 0, 38, 79
2, 78151, Note_on_c, 0, 38, 0
2, 78151, Note_on_c, 0, 69, 0
2, 78151, Note_on_c, 0, 73, 0
2, 78151, Note_on_c, 0, 76, 0
2, 78159, Note_on_c, 0, 50, 0
2, 78159, Note_on_c, 0, 71, 0
2, 78159, Note_on_c, 0, 76, 104
2, 78161, Note_on_c, 0, 69, 88
2, 78162, Note_on_c, 0, 73, 97
2, 78162, Note_on_c, 0, 38, 71
2, 78170, Note_on_c, 0, 50, 79
2, 78170, Note_on_c, 0, 71, 88
2, 78192, Control_c, 0, 64, 0
2, 78195, Note_on_c, 0, 61, 0
2, 78198, Note_on_c, 0, 50, 0
2, 78213, Note_on_c, 0, 78, 0
2, 78220, Note_on_c, 0, 66, 0
2, 78236, Control_c, 0, 64, 127
2, 78251, Note_on_c, 0, 38, 0
2, 78285, Note_on_c, 0, 52, 104
2, 78287, Note_on_c, 0, 40, 91
2, 78428, Note_on_c, 0, 52, 0
2, 78435, Note_on_c, 0, 71, 0
2, 78435, Note_on_c, 0, 76, 0
2, 78439, Note_on_c, 0, 52, 80
2, 78440, Note_on_c, 0, 71, 77
2, 78442, Note_on_c, 0, 76, 74
2, 78543, Note_on_c, 0, 64, 0
2, 78543, Note_on_c, 0, 76, 0
2, 78551, Note_on_c, 0, 71, 0
2, 78553, Note_on_c, 0, 64, 97
2, 78553, Note_on_c, 0, 76, 97
2, 78560, Note_on_c, 0, 71, 67
2, 78587, Note_on_c, 0, 81, 81
2, 78675, Note_on_c, 0, 88, 95
2, 78787, Note_on_c, 0, 81, 0
2, 78787, Control_c, 0, 64, 0
2, 78787, Note_on_c, 0, 40, 0
2, 78788, Note_on_c, 0, 64, 0
2, 78788, Note_on_c, 0, 71, 0
2, 78788, Note_on_c, 0, 76, 0
2, 78790, Note_on_c, 0, 88, 0
2, 78804, Note_on_c, 0, 52, 0
2, 78804, Note_on_c, 0, 69, 0
2, 78804, Note_on_c, 0, 73, 0
2, 78824, Note_on_c, 0, 90, 107
2, 78826, Note_on_c, 0, 78, 105
2, 78828, Note_on_c, 0, 85, 94
2, 78830, Note_on_c, 0, 54, 100
2, 78831, Note_on_c, 0, 42, 100
2, 78865, Control_c, 0, 64, 127
2, 78989, Note_on_c, 0, 71, 73
2, 79088, Note_on_c, 0, 54, 0
2, 79093, Note_on_c, 0, 73, 82
2, 79095, Note_on_c, 0, 54, 75
2, 79227, Note_on_c, 0, 59, 78
2, 79228, Note_on_c, 0, 88, 101
2, 79230, Note_on_c, 0, 76, 96
2, 79357, Note_on_c, 0, 71, 0
2, 79360, Note_on_c, 0, 61, 84
2, 79360, Note_on_c, 0, 66, 98
2, 79367, Note_on_c, 0, 71, 89
2, 79495, Note_on_c, 0, 73, 0
2, 79499, Note_on_c, 0, 73, 85
2, 79626, Note_on_c, 0, 54, 0
2, 79626, Note_on_c, 0, 76, 0
2, 79630, Note_on_c, 0, 54, 86
2, 79634, Note_on_c, 0, 76, 85
2, 79741, Note_on_c, 0, 71, 0
2, 79752, Note_on_c, 0, 71, 88
2, 79764, Note_on_c, 0, 42, 0
2, 79773, Note_on_c, 0, 42, 83
2, 79887, Note_on_c, 0, 73, 0
2, 79887, Note_on_c, 0, 85, 0
2, 79891, Note_on_c, 0, 85, 99
2, 79895, Note_on_c, 0, 76, 0
2, 79896, Note_on_c, 0, 73, 96
2, 79898, Note_on_c, 0, 76, 71
2, 79902, Note_on_c, 0, 54, 0
2, 79908, Note_on_c, 0, 54, 66
2, 80033, Note_on_c, 0, 71, 0
2, 80033, Note_on_c, 0, 76, 0
2, 80037, Note_on_c, 0, 71, 83
2, 80038, Note_on_c, 0, 76, 64
2, 80140, Note_on_c, 0, 54, 0
2, 80140, Note_on_c, 0, 73, 0
2, 80146, Note_on_c, 0, 54, 80
2, 80150, Note_on_c, 0, 73, 80
2, 80271, Note_on_c, 0, 59, 0
2, 80271, Note_on_c, 0, 76, 0
2, 80271, Note_on_c, 0, 88, 0
2, 80277, Note_on_c, 0, 88, 101
2, 80282, Note_on_c, 0, 76, 95
2, 80282, Note_on_c, 0, 59, 80
2, 80409, Note_on_c, 0, 61, 0
2, 80409, Note_on_c, 0, 66, 0
2, 80409, Note_on_c, 0, 71, 0
2, 80413, Note_on_c, 0, 66, 97
2, 80416, Note_on_c, 0, 71, 91
2, 80417, Note_on_c, 0, 61, 82
2, 80532, Note_on_c, 0, 73, 0
2, 80540, Note_on_c, 0, 59, 0
2, 80543, Note_on_c, 0, 73, 94
2, 80545, Note_on_c, 0, 59, 74
2, 80663, Note_on_c, 0, 54, 0
2, 80663, Note_on_c, 0, 76, 0
2, 80670, Note_on_c, 0, 54, 88
2, 80672, Note_on_c, 0, 76, 96
2, 80785, Note_on_c, 0, 71, 0
2, 80792, Note_on_c, 0, 71, 89
2, 80867, Note_on_c, 0, 61, 0
2, 80867, Control_c, 0, 64, 0
2, 80867, Note_on_c, 0, 88, 0
2, 80867, Note_on_c, 0, 66, 0
2, 80867, Note_on_c, 0, 85, 0
2, 80868, Note_on_c, 0, 71, 0
2, 80868, Note_on_c, 0, 73, 0
2, 80868, Note_on_c, 0, 78, 0
2, 80868, Note_on_c, 0, 90, 0
2, 80868, Note_on_c, 0, 59, 0
2, 80885, Note_on_c, 0, 42, 0
2, 80885, Note_on_c, 0, 54, 0
2, 80893, Note_on_c, 0, 76, 0
2, 80935, Note_on_c, 0, 52, 103
2, 80937, Note_on_c, 0, 40, 91
2, 80938, Note_on_c, 0, 90, 105
2, 80939, Control_c, 0, 64, 127
2, 80941, Note_on_c, 0, 78, 102
2, 81082, Note_on_c, 0, 71, 76
2, 81192, Note_on_c, 0, 52, 0
2, 81203, Note_on_c, 0, 52, 85
2, 81203, Note_on_c, 0, 73, 87
2, 81311, Note_on_c, 0, 59, 74
2, 81329, Note_on_c, 0, 88, 101
2, 81334, Note_on_c, 0, 76, 98
2, 81453, Note_on_c, 0, 61, 88
2, 81454, Note_on_c, 0, 71, 0
2, 81454, Note_on_c, 0, 66, 98
2, 81458, Note_on_c, 0, 71, 85
2, 81592, Note_on_c, 0, 73, 0
2, 81603, Note_on_c, 0, 73, 81
2, 81722, Note_on_c, 0, 52, 0
2, 81728, Note_on_c, 0, 52, 98
2, 81730, Note_on_c, 0, 76, 0
2, 81736, Note_on_c, 0, 76, 91
2, 81853, Note_on_c, 0, 71, 0
2, 81861, Note_on_c, 0, 40, 0
2, 81863, Note_on_c, 0, 71, 88
2, 81872, Note_on_c, 0, 40, 88
2, 81999, Note_on_c, 0, 73, 0
2, 82002, Note_on_c, 0, 85, 105
2, 82005, Note_on_c, 0, 73, 96
2, 82129, Note_on_c, 0, 40, 0
2, 82129, Note_on_c, 0, 71, 0
2, 82133, Note_on_c, 0, 40, 77
2, 82135, Note_on_c, 0, 71, 89
2, 82252, Note_on_c, 0, 73, 0
2, 82258, Note_on_c, 0, 73, 87
2, 82375, Note_on_c, 0, 59, 0
2, 82375, Note_on_c, 0, 88, 0
2, 82382, Note_on_c, 0, 59, 75
2, 82383, Note_on_c, 0, 76, 0
2, 82384, Note_on_c, 0, 88, 101
2, 82387, Note_on_c, 0, 76, 97
2, 82506, Note_on_c, 0, 61, 0
2, 82506, Note_on_c, 0, 66, 0
2, 82513, Note_on_c, 0, 71, 0
2, 82517, Note_on_c, 0, 66, 102
2, 82517, Note_on_c, 0, 61, 89
2, 82518, Note_on_c, 0, 71, 92
2, 82613, Note_on_c, 0, 52, 0
2, 82624, Note_on_c, 0, 52, 66
2, 82636, Note_on_c, 0, 59, 0
2, 82641, Note_on_c, 0, 64, 68
2, 82644, Note_on_c, 0, 73, 0
2, 82645, Note_on_c, 0, 59, 60
2, 82649, Note_on_c, 0, 73, 91
2, 82652, Note_on_c, 0, 64, 0
2, 82744, Note_on_c, 0, 52, 0
2, 82751, Note_on_c, 0, 52, 84
2, 82775, Note_on_c, 0, 76, 0
2, 82780, Note_on_c, 0, 76, 101
2, 82890, Note_on_c, 0, 71, 0
2, 82901, Note_on_c, 0, 71, 81
2, 82986, Note_on_c, 0, 61, 0
2, 82986, Note_on_c, 0, 66, 0
2, 82986, Note_on_c, 0, 88, 0
2, 82986, Note_on_c, 0, 90, 0
2, 82986, Note_on_c, 0, 73, 0
2, 82986, Note_on_c, 0, 78, 0
2, 82986, Note_on_c, 0, 76, 0
2, 82986, Note_on_c, 0, 40, 0
2, 82986, Note_on_c, 0, 85, 0
2, 82988, Control_c, 0, 64, 0
2, 83005, Note_on_c, 0, 52, 0
2, 83005, Note_on_c, 0, 59, 0
2, 83005, Note_on_c, 0, 71, 0
2, 83039, Note_on_c, 0, 50, 96
2, 83040, Note_on_c, 0, 78, 108
2, 83041, Note_on_c, 0, 38, 98
2, 83045, Note_on_c, 0, 90, 106
2, 83066, Control_c, 0, 64, 127
2, 83181, Note_on_c, 0, 71, 76
2, 83294, Note_on_c, 0, 73, 86
2, 83297, Note_on_c, 0, 50, 0
2, 83304, Note_on_c, 0, 38, 0
2, 83306, Note_on_c, 0, 50, 73
2, 83310, Note_on_c, 0, 38, 71
2, 83423, Note_on_c, 0, 59, 83
2, 83425, Note_on_c, 0, 88, 97
2, 83430, Note_on_c, 0, 76, 97
2, 83543, Note_on_c, 0, 71, 0
2, 83551, Note_on_c, 0, 61, 91
2, 83552, Note_on_c, 0, 66, 100
2, 83553, Note_on_c, 0, 71, 83
2, 83688, Note_on_c, 0, 73, 0
2, 83695, Note_on_c, 0, 73, 84
2, 83819, Note_on_c, 0, 50, 0
2, 83819, Note_on_c, 0, 76, 0
2, 83825, Note_on_c, 0, 50, 89
2, 83830, Note_on_c, 0, 76, 89
2, 83934, Note_on_c, 0, 71, 0
2, 83944, Note_on_c, 0, 71, 89
2, 83950, Note_on_c, 0, 38, 0
2, 83960, Note_on_c, 0, 38, 87
2, 84011, Note_on_c, 0, 50, 0
2, 84023, Note_on_c, 0, 50, 41
2, 84080, Note_on_c, 0, 73, 0
2, 84083, Note_on_c, 0, 85, 104
2, 84086, Note_on_c, 0, 73, 98
2, 84218, Note_on_c, 0, 38, 0
2, 84218, Note_on_c, 0, 71, 0
2, 84229, Note_on_c, 0, 71, 87
2, 84229, Note_on_c, 0, 38, 75
2, 84233, Note_on_c, 0, 49, 67
2, 84241, Note_on_c, 0, 49, 0
2, 84318, Note_on_c, 0, 50, 0
2, 84329, Note_on_c, 0, 50, 67
2, 84334, Note_on_c, 0, 73, 0
2, 84345, Note_on_c, 0, 73, 82
2, 84357, Note_on_c, 0, 71, 0
2, 84365, Note_on_c, 0, 71, 51
2, 84464, Note_on_c, 0, 88, 0
2, 84472, Note_on_c, 0, 59, 0
2, 84472, Note_on_c, 0, 76, 0
2, 84475, Note_on_c, 0, 88, 99
2, 84477, Note_on_c, 0, 76, 97
2, 84478, Note_on_c, 0, 59, 75
2, 84602, Note_on_c, 0, 61, 0
2, 84602, Note_on_c, 0, 66, 0
2, 84602, Note_on_c, 0, 71, 0
2, 84607, Note_on_c, 0, 61, 85
2, 84610, Note_on_c, 0, 66, 99
2, 84611, Note_on_c, 0, 71, 93
2, 84741, Note_on_c, 0, 73, 0
2, 84748, Note_on_c, 0, 59, 0
2, 84748, Note_on_c, 0, 61, 0
2, 84750, Note_on_c, 0, 73, 93
2, 84753, Note_on_c, 0, 59, 70
2, 84753, Note_on_c, 0, 61, 65
2, 84871, Note_on_c, 0, 50, 0
2, 84871, Note_on_c, 0, 76, 0
2, 84871, Note_on_c, 0, 88, 0
2, 84878, Note_on_c, 0, 50, 67
2, 84881, Note_on_c, 0, 88, 88
2, 84881, Note_on_c, 0, 76, 99
2, 84994, Note_on_c, 0, 71, 0
2, 85004, Note_on_c, 0, 71, 88
2, 85009, Note_on_c, 0, 50, 0
2, 85014, Note_on_c, 0, 50, 56
2, 85095, Note_on_c, 0, 90, 0
2, 85096, Note_on_c, 0, 88, 0
2, 85096, Note_on_c, 0, 50, 0
2, 85096, Note_on_c, 0, 59, 0
2, 85096, Note_on_c, 0, 78, 0
2, 85096, Note_on_c, 0, 66, 0
2, 85096, Note_on_c, 0, 76, 0
2, 85097, Note_on_c, 0, 85, 0
2, 85097, Note_on_c, 0, 73, 0
2, 85097, Note_on_c, 0, 61, 0
2, 85099, Control_c, 0, 64, 0
2, 85117, Note_on_c, 0, 38, 0
2, 85117, Note_on_c, 0, 71, 0
2, 85144, Note_on_c, 0, 50, 84
2, 85144, Note_on_c, 0, 38, 88
2, 85146, Note_on_c, 0, 78, 103
2, 85148, Note_on_c, 0, 90, 106
2, 85171, Control_c, 0, 64, 127
2, 85287, Note_on_c, 0, 71, 76
2, 85409, Note_on_c, 0, 38, 0
2, 85409, Note_on_c, 0, 50, 0
2, 85410, Note_on_c, 0, 73, 83
2, 85413, Note_on_c, 0, 50, 70
2, 85415, Note_on_c, 0, 38, 66
2, 85533, Note_on_c, 0, 88, 103
2, 85535, Note_on_c, 0, 76, 100
2, 85536, Note_on_c, 0, 59, 77
2, 85670, Note_on_c, 0, 71, 0
2, 85675, Note_on_c, 0, 66, 98
2, 85675, Note_on_c, 0, 61, 84
2, 85675, Note_on_c, 0, 71, 87
2, 85808, Note_on_c, 0, 73, 0
2, 85816, Note_on_c, 0, 73, 86
2, 85939, Note_on_c, 0, 50, 0
2, 85946, Note_on_c, 0, 76, 0
2, 85950, Note_on_c, 0, 50, 84
2, 85951, Note_on_c, 0, 76, 92
2, 86062, Note_on_c, 0, 71, 0
2, 86067, Note_on_c, 0, 71, 89
2, 86069, Note_on_c, 0, 38, 0
2, 86077, Note_on_c, 0, 76, 0
2, 86079, Note_on_c, 0, 38, 80
2, 86082, Note_on_c, 0, 76, 77
2, 86200, Note_on_c, 0, 73, 0
2, 86206, Note_on_c, 0, 85, 102
2, 86208, Note_on_c, 0, 76, 0
2, 86211, Note_on_c, 0, 73, 92
2, 86212, Note_on_c, 0, 76, 71
2, 86330, Note_on_c, 0, 71, 0
2, 86342, Note_on_c, 0, 83, 81
2, 86342, Note_on_c, 0, 71, 88
2, 86346, Note_on_c, 0, 83, 0
2, 86446, Note_on_c, 0, 50, 0
2, 86452, Note_on_c, 0, 50, 76
2, 86453, Note_on_c, 0, 73, 0
2, 86457, Note_on_c, 0, 73, 89
2, 86576, Note_on_c, 0, 59, 0
2, 86576, Note_on_c, 0, 88, 0
2, 86584, Note_on_c, 0, 76, 0
2, 86586, Note_on_c, 0, 59, 79
2, 86586, Note_on_c, 0, 88, 103
2, 86588, Note_on_c, 0, 76, 98
2, 86710, Control_c, 0, 64, 0
2, 86711, Note_on_c, 0, 66, 0
2, 86711, Note_on_c, 0, 71, 0
2, 86711, Note_on_c, 0, 73, 0
2, 86711, Note_on_c, 0, 85, 0
2, 86711, Note_on_c, 0, 61, 0
2, 86712, Note_on_c, 0, 78, 0
2, 86712, Note_on_c, 0, 76, 0
2, 86712, Note_on_c, 0, 88, 0
2, 86713, Note_on_c, 0, 59, 0
2, 86722, Note_on_c, 0, 38, 0
2, 86722, Note_on_c, 0, 50, 0
2, 86729, Note_on_c, 0, 52, 96
2, 86730, Note_on_c, 0, 90, 0
2, 86731, Note_on_c, 0, 40, 85
2, 86732, Note_on_c, 0, 83, 85
2, 86776, Control_c, 0, 64, 127
2, 86799, Note_on_c, 0, 81, 74
2, 86856, Note_on_c, 0, 80, 81
2, 86881, Note_on_c, 0, 76, 77
2, 86972, Note_on_c, 0, 71, 73
2, 87025, Note_on_c, 0, 69, 74
2, 87093, Note_on_c, 0, 68, 81
2, 87157, Note_on_c, 0, 64, 75
2, 87229, Note_on_c, 0, 40, 0
2, 87235, Note_on_c, 0, 81, 0
2, 87235, Note_on_c, 0, 68, 0
2, 87236, Note_on_c, 0, 71, 0
2, 87236, Note_on_c, 0, 76, 0
2, 87236, Note_on_c, 0, 69, 0
2, 87237, Note_on_c, 0, 80, 0
2, 87237, Note_on_c, 0, 64, 0
2, 87238, Note_on_c, 0, 83, 0
2, 87238, Note_on_c, 0, 52, 0
2, 87241, Control_c, 0, 64, 0
2, 87292, Note_on_c, 0, 76, 97
2, 87296, Note_on_c, 0, 42, 70
2, 87300, Note_on_c, 0, 69, 72
2, 87309, Note_on_c, 0, 73, 74
2, 87421, Control_c, 0, 64, 127
2, 87583, Note_on_c, 0, 54, 60
2, 87704, Note_on_c, 0, 57, 65
2, 87840, Note_on_c, 0, 61, 67
2, 87841, Note_on_c, 0, 64, 66
2, 88112, Note_on_c, 0, 69, 0
2, 88120, Note_on_c, 0, 69, 71
2, 88250, Note_on_c, 0, 69, 0
2, 88253, Note_on_c, 0, 54, 0
2, 88254, Note_on_c, 0, 73, 0
2, 88254, Note_on_c, 0, 61, 0
2, 88254, Note_on_c, 0, 57, 0
2, 88254, Control_c, 0, 64, 0
2, 88255, Note_on_c, 0, 76, 0
2, 88256, Note_on_c, 0, 69, 70
2, 88266, Note_on_c, 0, 42, 0
2, 88266, Note_on_c, 0, 64, 0
2, 88271, Note_on_c, 0, 42, 57
2, 88272, Note_on_c, 0, 64, 61
2, 88358, Control_c, 0, 64, 127
2, 88450, Note_on_c, 0, 42, 0
2, 88517, Note_on_c, 0, 42, 65
2, 88778, Note_on_c, 0, 54, 66
2, 88903, Note_on_c, 0, 64, 0
2, 88912, Note_on_c, 0, 61, 71
2, 88913, Note_on_c, 0, 64, 76
2, 89040, Note_on_c, 0, 57, 66
2, 89157, Note_on_c, 0, 54, 0
2, 89157, Note_on_c, 0, 69, 0
2, 89167, Note_on_c, 0, 69, 76
2, 89168, Note_on_c, 0, 54, 71
2, 89292, Note_on_c, 0, 71, 81
2, 89374, Note_on_c, 0, 42, 0
2, 89375, Note_on_c, 0, 54, 0
2, 89375, Note_on_c, 0, 69, 0
2, 89375, Note_on_c, 0, 61, 0
2, 89375, Note_on_c, 0, 64, 0
2, 89376, Note_on_c, 0, 57, 0
2, 89378, Control_c, 0, 64, 0
2, 89378, Note_on_c, 0, 71, 0
2, 89426, Note_on_c, 0, 73, 87
2, 89433, Note_on_c, 0, 40, 67
2, 89444, Note_on_c, 0, 64, 63
2, 89479, Control_c, 0, 64, 127
2, 89701, Note_on_c, 0, 52, 71
2, 89704, Note_on_c, 0, 74, 82
2, 89725, Note_on_c, 0, 64, 0
2, 89731, Note_on_c, 0, 64, 48
2, 89817, Note_on_c, 0, 73, 0
2, 89824, Note_on_c, 0, 57, 67
2, 89827, Note_on_c, 0, 73, 85
2, 89955, Note_on_c, 0, 64, 0
2, 89960, Note_on_c, 0, 59, 74
2, 89961, Note_on_c, 0, 64, 79
2, 90071, Note_on_c, 0, 57, 0
2, 90079, Note_on_c, 0, 57, 67
2, 90100, Note_on_c, 0, 71, 82
2, 90216, Note_on_c, 0, 52, 0
2, 90224, Note_on_c, 0, 52, 58
2, 90300, Note_on_c, 0, 74, 0
2, 90301, Note_on_c, 0, 73, 0
2, 90301, Note_on_c, 0, 57, 0
2, 90303, Note_on_c, 0, 59, 0
2, 90304, Control_c, 0, 64, 0
2, 90347, Note_on_c, 0, 40, 0
2, 90355, Note_on_c, 0, 64, 0
2, 90358, Note_on_c, 0, 40, 65
2, 90359, Note_on_c, 0, 69, 86
2, 90360, Note_on_c, 0, 64, 70
2, 90401, Control_c, 0, 64, 127
2, 90616, Note_on_c, 0, 40, 0
2, 90625, Note_on_c, 0, 40, 64
2, 90739, Note_on_c, 0, 52, 0
2, 90746, Note_on_c, 0, 52, 61
2, 90770, Note_on_c, 0, 80, 92
2, 90777, Note_on_c, 0, 71, 0
2, 90781, Note_on_c, 0, 76, 82
2, 90782, Note_on_c, 0, 71, 76
2, 90862, Note_on_c, 0, 69, 0
2, 90866, Note_on_c, 0, 69, 67
2, 90869, Note_on_c, 0, 57, 74
2, 91008, Note_on_c, 0, 64, 0
2, 91017, Note_on_c, 0, 64, 93
2, 91138, Note_on_c, 0, 57, 0
2, 91147, Note_on_c, 0, 57, 63
2, 91284, Note_on_c, 0, 52, 0
2, 91295, Note_on_c, 0, 52, 66
2, 91295, Note_on_c, 0, 73, 86
2, 91297, Note_on_c, 0, 64, 0
2, 91399, Note_on_c, 0, 57, 0
2, 91404, Note_on_c, 0, 57, 73
2, 91532, Control_c, 0, 64, 0
2, 91533, Note_on_c, 0, 73, 0
2, 91533, Note_on_c, 0, 52, 0
2, 91533, Note_on_c, 0, 71, 0
2, 91533, Note_on_c, 0, 80, 0
2, 91533, Note_on_c, 0, 57, 0
2, 91533, Note_on_c, 0, 69, 0
2, 91534, Note_on_c, 0, 40, 0
2, 91560, Note_on_c, 0, 76, 0
2, 91567, Note_on_c, 0, 76, 97
2, 91582, Note_on_c, 0, 38, 78
2, 91585, Note_on_c, 0, 69, 70
2, 91645, Control_c, 0, 64, 127
2, 91817, Note_on_c, 0, 50, 73
2, 91938, Note_on_c, 0, 54, 66
2, 92081, Note_on_c, 0, 64, 78
2, 92081, Note_on_c, 0, 57, 74
2, 92336, Note_on_c, 0, 69, 0
2, 92346, Note_on_c, 0, 69, 87
2, 92479, Control_c, 0, 64, 0
2, 92482, Note_on_c, 0, 69, 0
2, 92484, Note_on_c, 0, 76, 0
2, 92485, Note_on_c, 0, 50, 0
2, 92485, Note_on_c, 0, 54, 0
2, 92486, Note_on_c, 0, 57, 0
2, 92487, Note_on_c, 0, 69, 78
2, 92490, Note_on_c, 0, 38, 0
2, 92490, Note_on_c, 0, 64, 0
2, 92494, Note_on_c, 0, 64, 65
2, 92498, Note_on_c, 0, 38, 71
2, 92597, Control_c, 0, 64, 127
2, 92759, Note_on_c, 0, 38, 0
2, 92770, Note_on_c, 0, 38, 63
2, 93023, Note_on_c, 0, 50, 80
2, 93150, Note_on_c, 0, 64, 0
2, 93158, Note_on_c, 0, 69, 0
2, 93162, Note_on_c, 0, 64, 85
2, 93164, Note_on_c, 0, 69, 70
2, 93168, Note_on_c, 0, 57, 71
2, 93295, Note_on_c, 0, 54, 70
2, 93404, Note_on_c, 0, 50, 0
2, 93410, Note_on_c, 0, 50, 83
2, 93411, Note_on_c, 0, 69, 0
2, 93416, Note_on_c, 0, 69, 84
2, 93546, Note_on_c, 0, 71, 85
2, 93630, Note_on_c, 0, 54, 0
2, 93630, Note_on_c, 0, 57, 0
2, 93630, Note_on_c, 0, 64, 0
2, 93630, Note_on_c, 0, 50, 0
2, 93630, Note_on_c, 0, 69, 0
2, 93631, Note_on_c, 0, 71, 0
2, 93635, Control_c, 0, 64, 0
2, 93672, Note_on_c, 0, 38, 0
2, 93683, Note_on_c, 0, 38, 74
2, 93683, Note_on_c, 0, 73, 90
2, 93693, Note_on_c, 0, 64, 73
2, 93749, Control_c, 0, 64, 127
2, 93952, Note_on_c, 0, 50, 72
2, 93952, Note_on_c, 0, 71, 80
2, 94069, Note_on_c, 0, 69, 86
2, 94089, Note_on_c, 0, 54, 66
2, 94202, Note_on_c, 0, 64, 0
2, 94213, Note_on_c, 0, 64, 80
2, 94214, Note_on_c, 0, 57, 70
2, 94353, Note_on_c, 0, 68, 89
2, 94574, Note_on_c, 0, 71, 0
2, 94574, Note_on_c, 0, 54, 0
2, 94575, Note_on_c, 0, 73, 0
2, 94575, Note_on_c, 0, 68, 0
2, 94575, Note_on_c, 0, 57, 0
2, 94575, Note_on_c, 0, 64, 0
2, 94575, Note_on_c, 0, 50, 0
2, 94575, Note_on_c, 0, 38, 0
2, 94580, Control_c, 0, 64, 0
2, 94594, Note_on_c, 0, 69, 0
2, 94600, Note_on_c, 0, 69, 85
2, 94616, Note_on_c, 0, 64, 70
2, 94619, Note_on_c, 0, 38, 75
2, 94694, Control_c, 0, 64, 127
2, 94882, Note_on_c, 0, 50, 74
2, 95001, Note_on_c, 0, 64, 0
2, 95011, Note_on_c, 0, 64, 76
2, 95131, Note_on_c, 0, 57, 66
2, 95249, Note_on_c, 0, 50, 0
2, 95249, Note_on_c, 0, 69, 0
2, 95249, Note_on_c, 0, 57, 0
2, 95250, Note_on_c, 0, 38, 0
2, 95253, Control_c, 0, 64, 0
2, 95278, Note_on_c, 0, 64, 0
2, 95279, Note_on_c, 0, 52, 87
2, 95282, Note_on_c, 0, 64, 74
2, 95282, Note_on_c, 0, 40, 76
2, 95324, Control_c, 0, 64, 127
2, 95339, Note_on_c, 0, 68, 80
2, 95398, Note_on_c, 0, 69, 81
2, 95435, Note_on_c, 0, 71, 74
2, 95526, Note_on_c, 0, 76, 68
2, 95580, Note_on_c, 0, 80, 79
2, 95645, Note_on_c, 0, 81, 83
2, 95710, Note_on_c, 0, 83, 74
2, 95776, Note_on_c, 0, 68, 0
2, 95776, Note_on_c, 0, 69, 0
2, 95777, Note_on_c, 0, 80, 0
2, 95777, Note_on_c, 0, 40, 0
2, 95777, Note_on_c, 0, 52, 0
2, 95777, Note_on_c, 0, 71, 0
2, 95778, Note_on_c, 0, 64, 0
2, 95778, Note_on_c, 0, 81, 0
2, 95778, Note_on_c, 0, 76, 0
2, 95779, Note_on_c, 0, 83, 0
2, 95779, Control_c, 0, 64, 0
2, 95806, Note_on_c, 0, 88, 102
2, 95814, Note_on_c, 0, 76, 92
2, 95818, Note_on_c, 0, 42, 87
2, 95854, Control_c, 0, 64, 127
2, 95915, Note_on_c, 0, 42, 0
2, 95949, Note_on_c, 0, 83, 76
2, 96072, Note_on_c, 0, 81, 81
2, 96080, Note_on_c, 0, 54, 68
2, 96203, Note_on_c, 0, 80, 79
2, 96210, Note_on_c, 0, 57, 66
2, 96330, Note_on_c, 0, 76, 0
2, 96341, Note_on_c, 0, 76, 81
2, 96358, Note_on_c, 0, 64, 71
2, 96365, Note_on_c, 0, 61, 58
2, 96460, Note_on_c, 0, 80, 0
2, 96470, Note_on_c, 0, 80, 80
2, 96599, Note_on_c, 0, 81, 0
2, 96605, Note_on_c, 0, 81, 93
2, 96609, Note_on_c, 0, 69, 77
2, 96710, Note_on_c, 0, 83, 0
2, 96710, Note_on_c, 0, 61, 0
2, 96710, Note_on_c, 0, 69, 0
2, 96710, Note_on_c, 0, 88, 0
2, 96710, Note_on_c, 0, 64, 0
2, 96710, Note_on_c, 0, 80, 0
2, 96710, Note_on_c, 0, 57, 0
2, 96711, Note_on_c, 0, 54, 0
2, 96715, Control_c, 0, 64, 0
2, 96721, Note_on_c, 0, 76, 0
2, 96737, Note_on_c, 0, 81, 0
2, 96741, Note_on_c, 0, 81, 96
2, 96747, Note_on_c, 0, 42, 76
2, 96747, Note_on_c, 0, 69, 76
2, 96806, Control_c, 0, 64, 127
2, 96872, Note_on_c, 0, 76, 82
2, 96875, Note_on_c, 0, 42, 0
2, 97002, Note_on_c, 0, 71, 81
2, 97021, Note_on_c, 0, 76, 0
2, 97024, Note_on_c, 0, 42, 66
2, 97028, Note_on_c, 0, 76, 58
2, 97121, Note_on_c, 0, 69, 0
2, 97132, Note_on_c, 0, 69, 78
2, 97257, Note_on_c, 0, 54, 73
2, 97257, Note_on_c, 0, 68, 78
2, 97395, Note_on_c, 0, 64, 78
2, 97395, Note_on_c, 0, 61, 73
2, 97512, Note_on_c, 0, 68, 0
2, 97519, Note_on_c, 0, 68, 90
2, 97523, Note_on_c, 0, 57, 76
2, 97628, Note_on_c, 0, 54, 0
2, 97628, Note_on_c, 0, 81, 0
2, 97633, Note_on_c, 0, 54, 78
2, 97635, Note_on_c, 0, 69, 0
2, 97639, Note_on_c, 0, 81, 95
2, 97643, Note_on_c, 0, 69, 75
2, 97758, Note_on_c, 0, 71, 0
2, 97768, Note_on_c, 0, 83, 94
2, 97769, Note_on_c, 0, 71, 89
2, 97836, Note_on_c, 0, 42, 0
2, 97837, Note_on_c, 0, 54, 0
2, 97838, Note_on_c, 0, 69, 0
2, 97838, Note_on_c, 0, 57, 0
2, 97838, Note_on_c, 0, 68, 0
2, 97838, Note_on_c, 0, 76, 0
2, 97838, Note_on_c, 0, 64, 0
2, 97838, Control_c, 0, 64, 0
2, 97838, Note_on_c, 0, 81, 0
2, 97838, Note_on_c, 0, 61, 0
2, 97838, Note_on_c, 0, 71, 0
2, 97839, Note_on_c, 0, 83, 0
2, 97904, Note_on_c, 0, 40, 75
2, 97906, Note_on_c, 0, 85, 101
2, 97911, Note_on_c, 0, 76, 91
2, 97935, Control_c, 0, 64, 127
2, 98051, Note_on_c, 0, 73, 64
2, 98158, Note_on_c, 0, 76, 0
2, 98168, Note_on_c, 0, 52, 81
2, 98168, Note_on_c, 0, 76, 78
2, 98291, Note_on_c, 0, 83, 91
2, 98292, Note_on_c, 0, 74, 92
2, 98302, Note_on_c, 0, 57, 74
2, 98411, Note_on_c, 0, 59, 78
2, 98415, Note_on_c, 0, 81, 94
2, 98434, Note_on_c, 0, 73, 0
2, 98438, Note_on_c, 0, 73, 78
2, 98439, Note_on_c, 0, 64, 80
2, 98542, Note_on_c, 0, 57, 0
2, 98553, Note_on_c, 0, 57, 74
2, 98555, Note_on_c, 0, 80, 92
2, 98555, Note_on_c, 0, 69, 76
2, 98560, Note_on_c, 0, 71, 85
2, 98672, Note_on_c, 0, 52, 0
2, 98677, Note_on_c, 0, 52, 94
2, 98755, Note_on_c, 0, 74, 0
2, 98756, Note_on_c, 0, 73, 0
2, 98756, Note_on_c, 0, 71, 0
2, 98756, Note_on_c, 0, 59, 0
2, 98756, Note_on_c, 0, 81, 0
2, 98757, Note_on_c, 0, 64, 0
2, 98757, Note_on_c, 0, 52, 0
2, 98757, Note_on_c, 0, 83, 0
2, 98757, Note_on_c, 0, 80, 0
2, 98757, Note_on_c, 0, 85, 0
2, 98757, Note_on_c, 0, 76, 0
2, 98758, Control_c, 0, 64, 0
2, 98772, Note_on_c, 0, 40, 0
2, 98772, Note_on_c, 0, 57, 0
2, 98772, Note_on_c, 0, 69, 0
2, 98800, Note_on_c, 0, 81, 99
2, 98809, Note_on_c, 0, 73, 87
2, 98814, Note_on_c, 0, 40, 85
2, 98849, Control_c, 0, 64, 127
2, 98938, Note_on_c, 0, 69, 78
2, 99002, Note_on_c, 0, 73, 0
2, 99013, Note_on_c, 0, 73, 63
2, 99043, Note_on_c, 0, 74, 88
2, 99056, Note_on_c, 0, 40, 0
2, 99066, Note_on_c, 0, 40, 60
2, 99091, Note_on_c, 0, 76, 78
2, 99177, Note_on_c, 0, 52, 79
2, 99179, Note_on_c, 0, 81, 0
2, 99187, Note_on_c, 0, 81, 87
2, 99256, Note_on_c, 0, 83, 96
2, 99309, Note_on_c, 0, 57, 78
2, 99316, Note_on_c, 0, 86, 86
2, 99359, Note_on_c, 0, 88, 86
2, 99413, Note_on_c, 0, 59, 59
2, 99468, Note_on_c, 0, 92, 109
2, 99473, Note_on_c, 0, 80, 100
2, 99475, Note_on_c, 0, 64, 96
2, 99578, Note_on_c, 0, 57, 0
2, 99578, Note_on_c, 0, 69, 0
2, 99585, Note_on_c, 0, 69, 73
2, 99589, Note_on_c, 0, 57, 78
2, 99732, Note_on_c, 0, 52, 0
2, 99732, Note_on_c, 0, 81, 0
2, 99735, Note_on_c, 0, 93, 105
2, 99736, Note_on_c, 0, 52, 90
2, 99738, Note_on_c, 0, 81, 96
2, 99847, Note_on_c, 0, 57, 0
2, 99852, Note_on_c, 0, 57, 62
2, 99937, Note_on_c, 0, 86, 0
2, 99937, Note_on_c, 0, 74, 0
2, 99937, Note_on_c, 0, 92, 0
2, 99937, Control_c, 0, 64, 0
2, 99937, Note_on_c, 0, 80, 0
2, 99938, Note_on_c, 0, 52, 0
2, 99938, Note_on_c, 0, 81, 0
2, 99938, Note_on_c, 0, 83, 0
2, 99938, Note_on_c, 0, 93, 0
2, 99938, Note_on_c, 0, 73, 0
2, 99938, Note_on_c, 0, 88, 0
2, 99940, Note_on_c, 0, 57, 0
2, 99940, Note_on_c, 0, 69, 0
2, 99940, Note_on_c, 0, 76, 0
2, 99940, Note_on_c, 0, 64, 0
2, 99942, Note_on_c, 0, 40, 0
2, 99955, Note_on_c, 0, 59, 0
2, 100000, Note_on_c, 0, 88, 102
2, 100006, Note_on_c, 0, 38, 89
2, 100006, Note_on_c, 0, 76, 98
2, 100039, Control_c, 0, 64, 127
2, 100134, Note_on_c, 0, 83, 83
2, 100261, Note_on_c, 0, 81, 88
2, 100265, Note_on_c, 0, 50, 64
2, 100274, Note_on_c, 0, 69, 60
2, 100285, Note_on_c, 0, 69, 0
2, 100388, Note_on_c, 0, 80, 81
2, 100396, Note_on_c, 0, 54, 68
2, 100515, Note_on_c, 0, 76, 0
2, 100525, Note_on_c, 0, 76, 84
2, 100527, Note_on_c, 0, 69, 69
2, 100527, Note_on_c, 0, 57, 71
2, 100528, Note_on_c, 0, 64, 74
2, 100638, Note_on_c, 0, 80, 0
2, 100644, Note_on_c, 0, 80, 86
2, 100792, Note_on_c, 0, 69, 0
2, 100792, Note_on_c, 0, 81, 0
2, 100796, Note_on_c, 0, 81, 87
2, 100802, Note_on_c, 0, 69, 79
2, 100819, Note_on_c, 0, 79, 62
2, 100881, Note_on_c, 0, 83, 0
2, 100881, Note_on_c, 0, 57, 0
2, 100881, Note_on_c, 0, 50, 0
2, 100881, Note_on_c, 0, 69, 0
2, 100881, Note_on_c, 0, 81, 0
2, 100881, Note_on_c, 0, 64, 0
2, 100881, Note_on_c, 0, 88, 0
2, 100881, Note_on_c, 0, 79, 0
2, 100881, Note_on_c, 0, 76, 0
2, 100882, Note_on_c, 0, 80, 0
2, 100882, Note_on_c, 0, 38, 0
2, 100882, Note_on_c, 0, 54, 0
2, 100883, Control_c, 0, 64, 0
2, 100926, Note_on_c, 0, 38, 79
2, 100927, Note_on_c, 0, 81, 99
2, 100934, Note_on_c, 0, 69, 80
2, 100953, Control_c, 0, 64, 127
2, 101056, Note_on_c, 0, 76, 87
2, 101184, Note_on_c, 0, 38, 0
2, 101188, Note_on_c, 0, 71, 77
2, 101191, Note_on_c, 0, 38, 66
2, 101299, Note_on_c, 0, 69, 0
2, 101309, Note_on_c, 0, 69, 82
2, 101428, Note_on_c, 0, 68, 85
2, 101434, Note_on_c, 0, 50, 82
2, 101575, Note_on_c, 0, 64, 82
2, 101576, Note_on_c, 0, 57, 73
2, 101683, Note_on_c, 0, 68, 0
2, 101694, Note_on_c, 0, 68, 91
2, 101707, Note_on_c, 0, 54, 71
2, 101813, Note_on_c, 0, 50, 0
2, 101819, Note_on_c, 0, 50, 69
2, 101821, Note_on_c, 0, 69, 0
2, 101821, Note_on_c, 0, 81, 0
2, 101825, Note_on_c, 0, 81, 95
2, 101831, Note_on_c, 0, 69, 76
2, 101944, Note_on_c, 0, 71, 0
2, 101954, Note_on_c, 0, 83, 91
2, 101955, Note_on_c, 0, 71, 85
2, 102017, Note_on_c, 0, 64, 0
2, 102017, Note_on_c, 0, 69, 0
2, 102017, Note_on_c, 0, 76, 0
2, 102017, Note_on_c, 0, 54, 0
2, 102017, Note_on_c, 0, 68, 0
2, 102017, Note_on_c, 0, 71, 0
2, 102017, Note_on_c, 0, 81, 0
2, 102018, Note_on_c, 0, 57, 0
2, 102018, Note_on_c, 0, 50, 0
2, 102018, Note_on_c, 0, 83, 0
2, 102019, Note_on_c, 0, 38, 0
2, 102022, Control_c, 0, 64, 0
2, 102084, Note_on_c, 0, 85, 102
2, 102089, Note_on_c, 0, 38, 80
2, 102092, Note_on_c, 0, 76, 94
2, 102120, Control_c, 0, 64, 127
2, 102227, Note_on_c, 0, 73, 66
2, 102353, Note_on_c, 0, 86, 98
2, 102355, Note_on_c, 0, 50, 75
2, 102357, Note_on_c, 0, 74, 94
2, 102474, Note_on_c, 0, 85, 0
2, 102480, Note_on_c, 0, 85, 98
2, 102481, Note_on_c, 0, 76, 0
2, 102492, Note_on_c, 0, 76, 93
2, 102495, Note_on_c, 0, 54, 72
2, 102612, Note_on_c, 0, 73, 0
2, 102618, Note_on_c, 0, 64, 86
2, 102619, Note_on_c, 0, 73, 80
2, 102623, Note_on_c, 0, 57, 73
2, 102750, Note_on_c, 0, 74, 0
2, 102750, Note_on_c, 0, 76, 0
2, 102753, Note_on_c, 0, 83, 95
2, 102754, Note_on_c, 0, 74, 91
2, 102756, Note_on_c, 0, 76, 75
2, 102885, Note_on_c, 0, 71, 65
2, 102984, Note_on_c, 0, 54, 0
2, 102984, Note_on_c, 0, 64, 0
2, 102984, Note_on_c, 0, 76, 0
2, 102984, Note_on_c, 0, 57, 0
2, 102984, Note_on_c, 0, 50, 0
2, 102984, Note_on_c, 0, 74, 0
2, 102984, Note_on_c, 0, 71, 0
2, 102984, Note_on_c, 0, 86, 0
2, 102984, Note_on_c, 0, 85, 0
2, 102984, Note_on_c, 0, 38, 0
2, 102984, Note_on_c, 0, 83, 0
2, 102986, Control_c, 0, 64, 0
2, 102996, Note_on_c, 0, 73, 0
2, 103016, Note_on_c, 0, 81, 97
2, 103019, Note_on_c, 0, 38, 84
2, 103028, Note_on_c, 0, 73, 89
2, 103104, Control_c, 0, 64, 127
2, 103290, Note_on_c, 0, 76, 80
2, 103291, Note_on_c, 0, 50, 72
2, 103425, Note_on_c, 0, 71, 77
2, 103429, Note_on_c, 0, 64, 74
2, 103546, Note_on_c, 0, 57, 66
2, 103547, Note_on_c, 0, 69, 72
2, 103674, Note_on_c, 0, 68, 83
2, 103680, Note_on_c, 0, 64, 0
2, 103685, Note_on_c, 0, 64, 68
2, 103698, Note_on_c, 0, 52, 77
2, 103699, Control_c, 0, 64, 0
2, 103702, Note_on_c, 0, 40, 68
2, 103703, Note_on_c, 0, 81, 0
2, 103704, Note_on_c, 0, 73, 0
2, 103705, Note_on_c, 0, 76, 0
2, 103705, Note_on_c, 0, 71, 0
2, 103706, Note_on_c, 0, 69, 0
2, 103706, Note_on_c, 0, 50, 0
2, 103718, Note_on_c, 0, 38, 0
2, 103726, Note_on_c, 0, 57, 0
2, 103804, Note_on_c, 0, 69, 69
2, 103810, Control_c, 0, 64, 127
2, 103945, Note_on_c, 0, 71, 67
2, 104071, Note_on_c, 0, 64, 0
2, 104077, Note_on_c, 0, 64, 62
2, 104193, Note_on_c, 0, 68, 0
2, 104194, Note_on_c, 0, 71, 0
2, 104195, Note_on_c, 0, 64, 0
2, 104198, Control_c, 0, 64, 0
2, 104202, Note_on_c, 0, 52, 0
2, 104209, Note_on_c, 0, 69, 0
2, 104217, Note_on_c, 0, 40, 0
2, 104221, Note_on_c, 0, 69, 82
2, 104231, Note_on_c, 0, 47, 62
2, 104244, Note_on_c, 0, 35, 55
2, 104245, Note_on_c, 0, 66, 60
2, 104252, Note_on_c, 0, 62, 56
2, 104302, Control_c, 0, 64, 127
2, 104744, Note_on_c, 0, 61, 60
2, 104793, Note_on_c, 0, 62, 0
2, 104803, Note_on_c, 0, 62, 52
2, 104862, Note_on_c, 0, 69, 0
2, 104870, Note_on_c, 0, 69, 73
2, 104967, Note_on_c, 0, 74, 63
2, 105004, Note_on_c, 0, 78, 70
2, 105041, Note_on_c, 0, 85, 82
2, 105093, Note_on_c, 0, 35, 0
2, 105129, Note_on_c, 0, 86, 72
2, 105176, Note_on_c, 0, 90, 78
2, 105224, Note_on_c, 0, 93, 89
2, 105294, Note_on_c, 0, 76, 86
2, 105295, Note_on_c, 0, 88, 73
2, 105834, Note_on_c, 0, 73, 82
2, 106296, Note_on_c, 0, 42, 59
2, 106348, Note_on_c, 0, 52, 67
2, 106383, Note_on_c, 0, 73, 0
2, 106388, Note_on_c, 0, 73, 82
2, 106392, Control_c, 0, 64, 0
2, 106393, Note_on_c, 0, 57, 57
2, 106404, Note_on_c, 0, 85, 0
2, 106404, Note_on_c, 0, 74, 0
2, 106404, Note_on_c, 0, 76, 0
2, 106405, Note_on_c, 0, 86, 0
2, 106405, Note_on_c, 0, 69, 0
2, 106408, Note_on_c, 0, 88, 0
2, 106409, Note_on_c, 0, 62, 0
2, 106409, Note_on_c, 0, 47, 0
2, 106409, Note_on_c, 0, 78, 0
2, 106410, Note_on_c, 0, 90, 0
2, 106411, Note_on_c, 0, 61, 0
2, 106414, Note_on_c, 0, 66, 0
2, 106416, Note_on_c, 0, 64, 63
2, 106419, Note_on_c, 0, 66, 63
2, 106444, Note_on_c, 0, 93, 0
2, 106550, Note_on_c, 0, 71, 79
2, 106583, Control_c, 0, 64, 127
2, 106782, Note_on_c, 0, 73, 0
2, 106793, Note_on_c, 0, 73, 79
2, 107223, Note_on_c, 0, 100, 76
2, 107288, Note_on_c, 0, 97, 80
2, 107360, Note_on_c, 0, 93, 77
2, 107366, Note_on_c, 0, 71, 0
2, 107399, Note_on_c, 0, 92, 72
2, 107426, Note_on_c, 0, 88, 83
2, 107518, Note_on_c, 0, 85, 70
2, 107577, Note_on_c, 0, 81, 78
2, 107626, Note_on_c, 0, 80, 58
2, 107661, Note_on_c, 0, 76, 77
2, 107758, Note_on_c, 0, 73, 0
2, 107763, Note_on_c, 0, 73, 63
2, 107819, Note_on_c, 0, 69, 75
2, 107909, Note_on_c, 0, 68, 62
2, 107965, Note_on_c, 0, 64, 0
2, 107971, Note_on_c, 0, 64, 69
2, 108403, Note_on_c, 0, 69, 0
2, 108407, Note_on_c, 0, 69, 71
2, 108457, Note_on_c, 0, 70, 78
2, 108485, Note_on_c, 0, 97, 0
2, 108486, Note_on_c, 0, 100, 0
2, 108486, Note_on_c, 0, 93, 0
2, 108486, Note_on_c, 0, 68, 0
2, 108486, Note_on_c, 0, 81, 0
2, 108487, Note_on_c, 0, 69, 0
2, 108487, Note_on_c, 0, 92, 0
2, 108487, Note_on_c, 0, 80, 0
2, 108487, Note_on_c, 0, 73, 0
2, 108487, Note_on_c, 0, 85, 0
2, 108487, Note_on_c, 0, 57, 0
2, 108487, Note_on_c, 0, 64, 0
2, 108488, Note_on_c, 0, 52, 0
2, 108488, Note_on_c, 0, 66, 0
2, 108488, Note_on_c, 0, 76, 0
2, 108488, Note_on_c, 0, 88, 0
2, 108488, Control_c, 0, 64, 0
2, 108492, Note_on_c, 0, 40, 51
2, 108514, Note_on_c, 0, 47, 53
2, 108536, Note_on_c, 0, 71, 88
2, 108555, Note_on_c, 0, 54, 70
2, 108556, Note_on_c, 0, 42, 0
2, 108560, Note_on_c, 0, 64, 60
2, 108566, Note_on_c, 0, 66, 70
2, 108610, Note_on_c, 0, 70, 0
2, 108618, Control_c, 0, 64, 127
2, 108715, Note_on_c, 0, 69, 78
2, 108887, Note_on_c, 0, 71, 0
2, 108896, Note_on_c, 0, 71, 78
2, 109094, Note_on_c, 0, 64, 0
2, 109103, Note_on_c, 0, 64, 58
2, 109155, Note_on_c, 0, 66, 0
2, 109164, Note_on_c, 0, 66, 66
2, 109248, Note_on_c, 0, 71, 0
2, 109257, Note_on_c, 0, 71, 60
2, 109298, Note_on_c, 0, 73, 66
2, 109405, Note_on_c, 0, 76, 66
2, 109440, Note_on_c, 0, 40, 0
2, 109462, Note_on_c, 0, 78, 79
2, 109503, Note_on_c, 0, 83, 76
2, 109551, Note_on_c, 0, 85, 78
2, 109604, Note_on_c, 0, 88, 85
2, 109655, Note_on_c, 0, 85, 0
2, 109665, Note_on_c, 0, 85, 81
2, 109693, Note_on_c, 0, 83, 0
2, 109699, Note_on_c, 0, 83, 68
2, 109739, Note_on_c, 0, 78, 0
2, 109743, Note_on_c, 0, 78, 77
2, 109777, Note_on_c, 0, 76, 0
2, 109785, Note_on_c, 0, 76, 56
2, 109839, Note_on_c, 0, 73, 0
2, 109846, Note_on_c, 0, 73, 66
2, 109954, Note_on_c, 0, 71, 0
2, 109961, Note_on_c, 0, 71, 47
2, 110000, Note_on_c, 0, 66, 0
2, 110006, Note_on_c, 0, 66, 69
2, 110046, Note_on_c, 0, 69, 0
2, 110051, Note_on_c, 0, 69, 46
2, 110092, Note_on_c, 0, 64, 0
2, 110099, Note_on_c, 0, 64, 70
2, 110376, Note_on_c, 0, 69, 0
2, 110380, Note_on_c, 0, 69, 84
2, 110566, Note_on_c, 0, 38, 56
2, 110635, Note_on_c, 0, 71, 0
2, 110635, Note_on_c, 0, 73, 0
2, 110635, Note_on_c, 0, 78, 0
2, 110635, Note_on_c, 0, 64, 0
2, 110636, Note_on_c, 0, 47, 0
2, 110637, Note_on_c, 0, 83, 0
2, 110638, Note_on_c, 0, 69, 0
2, 110639, Note_on_c, 0, 76, 0
2, 110640, Note_on_c, 0, 88, 0
2, 110642, Note_on_c, 0, 69, 85
2, 110650, Note_on_c, 0, 45, 57
2, 110653, Note_on_c, 0, 66, 0
2, 110653, Note_on_c, 0, 85, 0
2, 110661, Note_on_c, 0, 54, 0
2, 110662, Note_on_c, 0, 61, 66
2, 110664, Note_on_c, 0, 66, 70
2, 110664, Control_c, 0, 64, 0
2, 110671, Note_on_c, 0, 54, 62
2, 110833, Note_on_c, 0, 71, 77
2, 110857, Note_on_c, 0, 66, 0
2, 110865, Note_on_c, 0, 54, 0
2, 110883, Note_on_c, 0, 69, 0
2, 110968, Control_c, 0, 64, 127
2, 111040, Note_on_c, 0, 66, 83
2, 111432, Note_on_c, 0, 90, 81
2, 111503, Note_on_c, 0, 88, 72
2, 111548, Note_on_c, 0, 85, 74
2, 111594, Note_on_c, 0, 83, 76
2, 111700, Note_on_c, 0, 78, 66
2, 111746, Note_on_c, 0, 76, 69
2, 111812, Note_on_c, 0, 73, 63
2, 111866, Note_on_c, 0, 71, 0
2, 111875, Note_on_c, 0, 71, 59
2, 111928, Note_on_c, 0, 78, 0
2, 111935, Note_on_c, 0, 78, 73
2, 111989, Note_on_c, 0, 76, 0
2, 112000, Note_on_c, 0, 76, 63
2, 112028, Note_on_c, 0, 73, 0
2, 112039, Note_on_c, 0, 73, 64
2, 112066, Note_on_c, 0, 71, 0
2, 112076, Note_on_c, 0, 71, 68
2, 112181, Note_on_c, 0, 66, 0
2, 112191, Note_on_c, 0, 66, 65
2, 112230, Note_on_c, 0, 64, 69
2, 112296, Note_on_c, 0, 61, 0
2, 112302, Note_on_c, 0, 61, 68
2, 112358, Note_on_c, 0, 59, 69
2, 112470, Note_on_c, 0, 57, 71
2, 112550, Note_on_c, 0, 59, 0
2, 112555, Note_on_c, 0, 59, 72
2, 112630, Note_on_c, 0, 60, 73
2, 112691, Note_on_c, 0, 90, 0
2, 112691, Note_on_c, 0, 57, 0
2, 112691, Note_on_c, 0, 78, 0
2, 112691, Note_on_c, 0, 83, 0
2, 112691, Note_on_c, 0, 66, 0
2, 112691, Note_on_c, 0, 61, 0
2, 112691, Note_on_c, 0, 71, 0
2, 112691, Note_on_c, 0, 59, 0
2, 112691, Note_on_c, 0, 64, 0
2, 112691, Note_on_c, 0, 88, 0
2, 112691, Note_on_c, 0, 76, 0
2, 112692, Note_on_c, 0, 85, 0
2, 112692, Control_c, 0, 64, 0
2, 112692, Note_on_c, 0, 45, 0
2, 112693, Note_on_c, 0, 38, 0
2, 112695, Note_on_c, 0, 60, 0
2, 112704, Note_on_c, 0, 73, 0
2, 112738, Note_on_c, 0, 61, 88
2, 112755, Note_on_c, 0, 50, 52
2, 112872, Control_c, 0, 64, 127
2, 113327, Note_on_c, 0, 81, 47
2, 113333, Note_on_c, 0, 78, 57
2, 113335, Note_on_c, 0, 69, 36
2, 113341, Note_on_c, 0, 69, 0
2, 113578, Note_on_c, 0, 57, 74
2, 113863, Note_on_c, 0, 81, 0
2, 113866, Note_on_c, 0, 93, 81
2, 113866, Note_on_c, 0, 69, 86
2, 113873, Note_on_c, 0, 81, 69
2, 113881, Note_on_c, 0, 90, 62
2, 113902, Note_on_c, 0, 86, 39
2, 114642, Note_on_c, 0, 70, 75
2, 114690, Note_on_c, 0, 71, 82
2, 114890, Note_on_c, 0, 42, 48
2, 114905, Note_on_c, 0, 90, 0
2, 114905, Control_c, 0, 64, 0
2, 114906, Note_on_c, 0, 69, 0
2, 114906, Note_on_c, 0, 93, 0
2, 114907, Note_on_c, 0, 81, 0
2, 114907, Note_on_c, 0, 78, 0
2, 114907, Note_on_c, 0, 61, 0
2, 114907, Note_on_c, 0, 50, 0
2, 114908, Note_on_c, 0, 86, 0
2, 114908, Note_on_c, 0, 71, 0
2, 114909, Note_on_c, 0, 70, 0
2, 114938, Note_on_c, 0, 42, 0
2, 114944, Note_on_c, 0, 66, 80
2, 114954, Note_on_c, 0, 57, 0
2, 114955, Note_on_c, 0, 61, 62
2, 114957, Note_on_c, 0, 52, 56
2, 114958, Note_on_c, 0, 57, 58
2, 115031, Control_c, 0, 64, 127
2, 115161, Note_on_c, 0, 64, 75
2, 115338, Note_on_c, 0, 66, 0
2, 115349, Note_on_c, 0, 66, 82
2, 115518, Note_on_c, 0, 85, 69
2, 115518, Note_on_c, 0, 88, 67
2, 115521, Note_on_c, 0, 80, 54
2, 116086, Note_on_c, 0, 92, 53
2, 116086, Note_on_c, 0, 100, 59
2, 116101, Note_on_c, 0, 97, 57
2, 116118, Note_on_c, 0, 93, 40
2, 116505, Note_on_c, 0, 64, 0
2, 116515, Note_on_c, 0, 64, 73
2, 116682, Note_on_c, 0, 61, 0
2, 116689, Note_on_c, 0, 61, 76
2, 116858, Note_on_c, 0, 64, 0
2, 116865, Note_on_c, 0, 64, 77
2, 117020, Note_on_c, 0, 66, 0
2, 117030, Note_on_c, 0, 66, 84
2, 117166, Note_on_c, 0, 64, 0
2, 117174, Note_on_c, 0, 64, 75
2, 117184, Note_on_c, 0, 93, 0
2, 117184, Note_on_c, 0, 92, 0
2, 117184, Note_on_c, 0, 88, 0
2, 117184, Note_on_c, 0, 97, 0
2, 117184, Note_on_c, 0, 52, 0
2, 117185, Note_on_c, 0, 57, 0
2, 117185, Note_on_c, 0, 80, 0
2, 117185, Note_on_c, 0, 61, 0
2, 117185, Control_c, 0, 64, 0
2, 117185, Note_on_c, 0, 85, 0
2, 117196, Note_on_c, 0, 100, 0
2, 117227, Note_on_c, 0, 66, 0
2, 117232, Note_on_c, 0, 66, 71
2, 117239, Note_on_c, 0, 69, 82
2, 117312, Control_c, 0, 64, 127
2, 117434, Note_on_c, 0, 66, 0
2, 117445, Note_on_c, 0, 66, 79
2, 117603, Note_on_c, 0, 69, 0
2, 117613, Note_on_c, 0, 69, 82
2, 117785, Note_on_c, 0, 81, 64
2, 117790, Note_on_c, 0, 74, 64
2, 117791, Note_on_c, 0, 78, 65
2, 118358, Note_on_c, 0, 93, 64
2, 118366, Note_on_c, 0, 86, 59
2, 118371, Note_on_c, 0, 90, 54
2, 119331, Note_on_c, 0, 69, 0
2, 119339, Note_on_c, 0, 69, 67
2, 119401, Note_on_c, 0, 70, 70
2, 119472, Note_on_c, 0, 71, 82
2, 119473, Note_on_c, 0, 68, 73
2, 119493, Note_on_c, 0, 66, 0
2, 119503, Note_on_c, 0, 93, 0
2, 119504, Note_on_c, 0, 66, 59
2, 119504, Note_on_c, 0, 81, 0
2, 119504, Note_on_c, 0, 86, 0
2, 119504, Note_on_c, 0, 74, 0
2, 119504, Note_on_c, 0, 69, 0
2, 119505, Note_on_c, 0, 78, 0
2, 119505, Note_on_c, 0, 90, 0
2, 119506, Control_c, 0, 64, 0
2, 119508, Note_on_c, 0, 64, 0
2, 119519, Note_on_c, 0, 64, 43
2, 119519, Note_on_c, 0, 37, 49
2, 119521, Note_on_c, 0, 52, 44
2, 119523, Note_on_c, 0, 70, 0
2, 119639, Control_c, 0, 64, 127
2, 119669, Control_c, 0, 64, 0
2, 119754, Control_c, 0, 64, 127
2, 120506, Note_on_c, 0, 66, 0
2, 120642, Note_on_c, 0, 83, 53
2, 120647, Note_on_c, 0, 76, 51
2, 120648, Note_on_c, 0, 80, 51
2, 120960, Note_on_c, 0, 64, 0
2, 121864, Note_on_c, 0, 25, 50
2, 121909, Note_on_c, 0, 88, 48
2, 121923, Note_on_c, 0, 92, 49
2, 122165, Note_on_c, 0, 25, 0
2, 122165, Note_on_c, 0, 37, 0
2, 122177, Note_on_c, 0, 37, 27
2, 122177, Note_on_c, 0, 25, 34
2, 122365, Note_on_c, 0, 25, 0
2, 122369, Note_on_c, 0, 25, 41
2, 122534, Note_on_c, 0, 25, 0
2, 122541, Note_on_c, 0, 25, 40
2, 122595, Note_on_c, 0, 25, 0
2, 122595, Note_on_c, 0, 37, 0
2, 122601, Note_on_c, 0, 37, 52
2, 122603, Note_on_c, 0, 25, 50
2, 122664, Note_on_c, 0, 25, 0
2, 122664, Note_on_c, 0, 37, 0
2, 122671, Note_on_c, 0, 37, 60
2, 122672, Note_on_c, 0, 25, 66
2, 122726, Note_on_c, 0, 25, 0
2, 122731, Note_on_c, 0, 25, 66
2, 122734, Note_on_c, 0, 37, 0
2, 122738, Note_on_c, 0, 37, 60
2, 122740, Note_on_c, 0, 61, 54
2, 122744, Note_on_c, 0, 65, 53
2, 122749, Note_on_c, 0, 61, 0
2, 122749, Note_on_c, 0, 65, 0
2, 122795, Note_on_c, 0, 25, 0
2, 122804, Note_on_c, 0, 25, 73
2, 122841, Note_on_c, 0, 37, 0
2, 122847, Note_on_c, 0, 37, 75
2, 122903, Note_on_c, 0, 25, 0
2, 122907, Note_on_c, 0, 25, 77
2, 122956, Note_on_c, 0, 25, 0
2, 122956, Note_on_c, 0, 37, 0
2, 122960, Note_on_c, 0, 37, 79
2, 122961, Note_on_c, 0, 25, 78
2, 123018, Note_on_c, 0, 25, 0
2, 123022, Note_on_c, 0, 24, 83
2, 123024, Note_on_c, 0, 25, 91
2, 123133, Note_on_c, 0, 25, 0
2, 123141, Note_on_c, 0, 37, 0
2, 123143, Note_on_c, 0, 25, 94
2, 123145, Note_on_c, 0, 37, 92
2, 123146, Note_on_c, 0, 81, 109
2, 123150, Note_on_c, 0, 69, 101
2, 123240, Note_on_c, 0, 24, 0
2, 123240, Note_on_c, 0, 25, 0
2, 123244, Note_on_c, 0, 24, 87
2, 123244, Note_on_c, 0, 25, 93
2, 123399, Note_on_c, 0, 69, 0
2, 123399, Note_on_c, 0, 25, 0
2, 123399, Note_on_c, 0, 92, 0
2, 123400, Note_on_c, 0, 37, 0
2, 123400, Note_on_c, 0, 81, 0
2, 123401, Note_on_c, 0, 83, 0
2, 123401, Note_on_c, 0, 88, 0
2, 123409, Control_c, 0, 64, 0
2, 123409, Note_on_c, 0, 24, 0
2, 123409, Note_on_c, 0, 80, 0
2, 123417, Note_on_c, 0, 68, 0
2, 123417, Note_on_c, 0, 71, 0
2, 123417, Note_on_c, 0, 76, 0
2, 123421, Note_on_c, 0, 80, 108
2, 123422, Note_on_c, 0, 68, 111
2, 123426, Note_on_c, 0, 71, 94
2, 123427, Note_on_c, 0, 76, 89
2, 123440, Note_on_c, 0, 52, 0
2, 123494, Control_c, 0, 64, 127
2, 123697, Control_c, 0, 64, 0
2, 123791, Note_on_c, 0, 81, 109
2, 123792, Note_on_c, 0, 69, 107
2, 123824, Note_on_c, 0, 68, 0
2, 123824, Control_c, 0, 64, 127
2, 123840, Note_on_c, 0, 71, 0
2, 123870, Note_on_c, 0, 76, 0
2, 124167, Note_on_c, 0, 83, 107
2, 124174, Note_on_c, 0, 71, 99
2, 124177, Note_on_c, 0, 80, 0
2, 124181, Note_on_c, 0, 80, 89
2, 124188, Note_on_c, 0, 76, 82
2, 124423, Note_on_c, 0, 69, 0
2, 124424, Note_on_c, 0, 76, 0
2, 124424, Control_c, 0, 64, 0
2, 124424, Note_on_c, 0, 81, 0
2, 124424, Note_on_c, 0, 80, 0
2, 124425, Note_on_c, 0, 83, 0
2, 124425, Note_on_c, 0, 71, 0
2, 124458, Note_on_c, 0, 78, 105
2, 124462, Note_on_c, 0, 38, 101
2, 124463, Note_on_c, 0, 72, 90
2, 124465, Note_on_c, 0, 74, 93
2, 124465, Note_on_c, 0, 66, 103
2, 124465, Note_on_c, 0, 69, 93
2, 124466, Note_on_c, 0, 26, 95
2, 124485, Control_c, 0, 64, 127
2, 124677, Note_on_c, 0, 72, 0
2, 124734, Control_c, 0, 64, 0
2, 124776, Note_on_c, 0, 74, 0
2, 124806, Note_on_c, 0, 66, 0
2, 124810, Note_on_c, 0, 78, 0
2, 124815, Note_on_c, 0, 69, 0
2, 124823, Note_on_c, 0, 26, 0
2, 124823, Note_on_c, 0, 38, 0
2, 124988, Note_on_c, 0, 81, 105
2, 124995, Note_on_c, 0, 69, 88
2, 124996, Note_on_c, 0, 78, 92
2, 124996, Note_on_c, 0, 74, 92
2, 125030, Control_c, 0, 64, 127
2, 125387, Note_on_c, 0, 38, 90
2, 125388, Note_on_c, 0, 26, 88
2, 125432, Note_on_c, 0, 81, 0
2, 125432, Note_on_c, 0, 78, 0
2, 125437, Control_c, 0, 64, 0
2, 125437, Note_on_c, 0, 69, 0
2, 125445, Note_on_c, 0, 74, 0
2, 125498, Note_on_c, 0, 26, 0
2, 125514, Note_on_c, 0, 38, 0
2, 125518, Note_on_c, 0, 80, 102
2, 125522, Note_on_c, 0, 28, 86
2, 125523, Note_on_c, 0, 68, 102
2, 125523, Note_on_c, 0, 40, 90
2, 125525, Note_on_c, 0, 71, 86
2, 125526, Note_on_c, 0, 76, 86
2, 125537, Control_c, 0, 64, 127
2, 125770, Note_on_c, 0, 81, 104
2, 125772, Note_on_c, 0, 69, 93
2, 125777, Control_c, 0, 64, 0
2, 125781, Note_on_c, 0, 71, 0
2, 125783, Note_on_c, 0, 80, 0
2, 125786, Note_on_c, 0, 76, 0
2, 125786, Note_on_c, 0, 68, 0
2, 125798, Note_on_c, 0, 40, 0
2, 125813, Note_on_c, 0, 28, 0
2, 125827, Note_on_c, 0, 69, 0
2, 126034, Note_on_c, 0, 83, 106
2, 126040, Note_on_c, 0, 71, 92
2, 126047, Note_on_c, 0, 76, 92
2, 126048, Note_on_c, 0, 80, 79
2, 126097, Note_on_c, 0, 81, 0
2, 126108, Note_on_c, 0, 71, 0
2, 126110, Note_on_c, 0, 76, 0
2, 126111, Note_on_c, 0, 80, 0
2, 126116, Note_on_c, 0, 83, 0
2, 126302, Note_on_c, 0, 83, 106
2, 126309, Note_on_c, 0, 71, 95
2, 126310, Note_on_c, 0, 76, 99
2, 126310, Note_on_c, 0, 80, 91
2, 126351, Control_c, 0, 64, 127
2, 126419, Note_on_c, 0, 40, 77
2, 126421, Note_on_c, 0, 28, 79
2, 126456, Note_on_c, 0, 40, 0
2, 126553, Note_on_c, 0, 30, 93
2, 126554, Note_on_c, 0, 42, 94
2, 126620, Note_on_c, 0, 28, 0
2, 126769, Control_c, 0, 64, 0
2, 126789, Control_c, 0, 64, 127
2, 126796, Note_on_c, 0, 76, 0
2, 126800, Note_on_c, 0, 81, 100
2, 126801, Note_on_c, 0, 69, 92
2, 126802, Note_on_c, 0, 76, 99
2, 126807, Note_on_c, 0, 73, 89
2, 126930, Note_on_c, 0, 64, 97
2, 126934, Note_on_c, 0, 61, 83
2, 127065, Note_on_c, 0, 64, 0
2, 127065, Note_on_c, 0, 76, 0
2, 127076, Note_on_c, 0, 76, 108
2, 127076, Note_on_c, 0, 64, 97
2, 127311, Note_on_c, 0, 83, 0
2, 127319, Note_on_c, 0, 71, 0
2, 127319, Note_on_c, 0, 76, 0
2, 127322, Note_on_c, 0, 83, 103
2, 127326, Note_on_c, 0, 30, 0
2, 127326, Note_on_c, 0, 42, 0
2, 127328, Note_on_c, 0, 71, 92
2, 127328, Note_on_c, 0, 76, 75
2, 127331, Note_on_c, 0, 42, 84
2, 127331, Note_on_c, 0, 30, 77
2, 127373, Note_on_c, 0, 69, 0
2, 127374, Note_on_c, 0, 64, 0
2, 127375, Note_on_c, 0, 76, 0
2, 127376, Note_on_c, 0, 61, 0
2, 127376, Note_on_c, 0, 73, 0
2, 127376, Note_on_c, 0, 81, 0
2, 127378, Control_c, 0, 64, 0
2, 127382, Note_on_c, 0, 80, 0
2, 127383, Note_on_c, 0, 42, 0
2, 127390, Note_on_c, 0, 83, 0
2, 127391, Note_on_c, 0, 71, 0
2, 127411, Note_on_c, 0, 30, 0
2, 127446, Note_on_c, 0, 81, 103
2, 127452, Note_on_c, 0, 69, 100
2, 127453, Note_on_c, 0, 30, 90
2, 127453, Note_on_c, 0, 76, 100
2, 127459, Note_on_c, 0, 73, 87
2, 127503, Control_c, 0, 64, 127
2, 127705, Note_on_c, 0, 54, 63
2, 127707, Note_on_c, 0, 42, 63
2, 127818, Note_on_c, 0, 42, 0
2, 127828, Note_on_c, 0, 42, 82
2, 127831, Note_on_c, 0, 66, 93
2, 127831, Note_on_c, 0, 78, 97
2, 127948, Note_on_c, 0, 54, 0
2, 127952, Note_on_c, 0, 54, 87
2, 128071, Note_on_c, 0, 73, 0
2, 128071, Note_on_c, 0, 78, 0
2, 128076, Note_on_c, 0, 85, 99
2, 128080, Note_on_c, 0, 61, 93
2, 128081, Note_on_c, 0, 64, 101
2, 128081, Note_on_c, 0, 73, 97
2, 128082, Control_c, 0, 64, 0
2, 128083, Note_on_c, 0, 78, 86
2, 128104, Note_on_c, 0, 76, 0
2, 128106, Note_on_c, 0, 69, 0
2, 128106, Note_on_c, 0, 81, 0
2, 128107, Note_on_c, 0, 30, 0
2, 128110, Control_c, 0, 64, 127
2, 128194, Note_on_c, 0, 54, 0
2, 128202, Note_on_c, 0, 54, 89
2, 128332, Note_on_c, 0, 78, 0
2, 128337, Note_on_c, 0, 83, 104
2, 128341, Note_on_c, 0, 74, 97
2, 128343, Note_on_c, 0, 62, 77
2, 128344, Note_on_c, 0, 71, 87
2, 128344, Note_on_c, 0, 78, 94
2, 128348, Note_on_c, 0, 62, 0
2, 128537, Note_on_c, 0, 54, 0
2, 128537, Note_on_c, 0, 42, 0
2, 128538, Note_on_c, 0, 83, 0
2, 128538, Note_on_c, 0, 78, 0
2, 128538, Note_on_c, 0, 71, 0
2, 128539, Note_on_c, 0, 74, 0
2, 128540, Control_c, 0, 64, 0
2, 128555, Note_on_c, 0, 61, 0
2, 128555, Note_on_c, 0, 64, 0
2, 128555, Note_on_c, 0, 73, 0
2, 128563, Note_on_c, 0, 66, 0
2, 128563, Note_on_c, 0, 85, 0
2, 128595, Note_on_c, 0, 38, 97
2, 128597, Note_on_c, 0, 26, 94
2, 128616, Control_c, 0, 64, 127
2, 128709, Note_on_c, 0, 26, 0
2, 128720, Note_on_c, 0, 26, 79
2, 128807, Control_c, 0, 64, 0
2, 128847, Note_on_c, 0, 26, 0
2, 128847, Note_on_c, 0, 38, 0
2, 128856, Note_on_c, 0, 26, 90
2, 128858, Note_on_c, 0, 38, 89
2, 128858, Note_on_c, 0, 78, 95
2, 128859, Note_on_c, 0, 66, 95
2, 128993, Note_on_c, 0, 38, 0
2, 129000, Note_on_c, 0, 26, 0
2, 129024, Note_on_c, 0, 66, 0
2, 129054, Note_on_c, 0, 78, 0
2, 129120, Note_on_c, 0, 85, 103
2, 129124, Note_on_c, 0, 81, 86
2, 129127, Note_on_c, 0, 73, 95
2, 129127, Note_on_c, 0, 78, 92
2, 129131, Control_c, 0, 64, 127
2, 129368, Note_on_c, 0, 83, 103
2, 129379, Note_on_c, 0, 71, 92
2, 129380, Note_on_c, 0, 80, 90
2, 129380, Note_on_c, 0, 76, 90
2, 129409, Control_c, 0, 64, 0
2, 129411, Note_on_c, 0, 73, 0
2, 129411, Note_on_c, 0, 85, 0
2, 129411, Note_on_c, 0, 78, 0
2, 129484, Control_c, 0, 64, 127
2, 129489, Note_on_c, 0, 38, 93
2, 129489, Note_on_c, 0, 26, 94
2, 129628, Note_on_c, 0, 25, 90
2, 129631, Note_on_c, 0, 37, 89
2, 129738, Note_on_c, 0, 25, 0
2, 129739, Note_on_c, 0, 24, 77
2, 129743, Note_on_c, 0, 25, 82
2, 129819, Note_on_c, 0, 37, 0
2, 129821, Control_c, 0, 64, 0
2, 129853, Note_on_c, 0, 24, 0
2, 129868, Note_on_c, 0, 81, 0
2, 129876, Note_on_c, 0, 25, 0
2, 129887, Note_on_c, 0, 25, 98
2, 129891, Note_on_c, 0, 76, 0
2, 129896, Note_on_c, 0, 64, 92
2, 129900, Note_on_c, 0, 76, 97
2, 129922, Note_on_c, 0, 38, 0
2, 129935, Note_on_c, 0, 25, 0
2, 129935, Note_on_c, 0, 71, 0
2, 129936, Note_on_c, 0, 83, 0
2, 129937, Note_on_c, 0, 64, 0
2, 129945, Note_on_c, 0, 26, 0
2, 129968, Note_on_c, 0, 80, 0
2, 130099, Note_on_c, 0, 76, 0
2, 130152, Note_on_c, 0, 76, 106
2, 130155, Note_on_c, 0, 64, 97
2, 130183, Control_c, 0, 64, 127
2, 130410, Note_on_c, 0, 83, 101
2, 130414, Note_on_c, 0, 76, 0
2, 130421, Note_on_c, 0, 71, 87
2, 130423, Note_on_c, 0, 76, 92
2, 130424, Note_on_c, 0, 80, 88
2, 130523, Note_on_c, 0, 37, 89
2, 130525, Note_on_c, 0, 25, 83
2, 130546, Note_on_c, 0, 64, 0
2, 130547, Note_on_c, 0, 71, 0
2, 130547, Note_on_c, 0, 76, 0
2, 130548, Note_on_c, 0, 83, 0
2, 130549, Note_on_c, 0, 80, 0
2, 130555, Control_c, 0, 64, 0
2, 130572, Note_on_c, 0, 25, 0
2, 130613, Note_on_c, 0, 37, 0
2, 130667, Note_on_c, 0, 81, 103
2, 130673, Note_on_c, 0, 69, 95
2, 130676, Note_on_c, 0, 76, 92
2, 130678, Note_on_c, 0, 73, 88
2, 130679, Note_on_c, 0, 30, 92
2, 130681, Note_on_c, 0, 42, 89
2, 130821, Control_c, 0, 64, 127
2, 130932, Note_on_c, 0, 80, 100
2, 130934, Note_on_c, 0, 68, 96
2, 131053, Note_on_c, 0, 64, 99
2, 131056, Note_on_c, 0, 61, 87
2, 131189, Note_on_c, 0, 69, 0
2, 131189, Note_on_c, 0, 73, 0
2, 131189, Note_on_c, 0, 76, 0
2, 131189, Note_on_c, 0, 81, 0
2, 131194, Note_on_c, 0, 81, 103
2, 131197, Note_on_c, 0, 69, 96
2, 131200, Note_on_c, 0, 76, 91
2, 131200, Note_on_c, 0, 73, 88
2, 131205, Note_on_c, 0, 30, 0
2, 131258, Note_on_c, 0, 42, 0
2, 131435, Note_on_c, 0, 76, 0
2, 131435, Note_on_c, 0, 80, 0
2, 131439, Note_on_c, 0, 83, 93
2, 131444, Note_on_c, 0, 80, 78
2, 131444, Note_on_c, 0, 76, 78
2, 131445, Note_on_c, 0, 71, 88
2, 131446, Note_on_c, 0, 40, 80
2, 131447, Note_on_c, 0, 44, 92
2, 131447, Note_on_c, 0, 32, 89
2, 131450, Note_on_c, 0, 40, 0
2, 131477, Note_on_c, 0, 69, 0
2, 131478, Note_on_c, 0, 61, 0
2, 131479, Note_on_c, 0, 64, 0
2, 131479, Note_on_c, 0, 76, 0
2, 131479, Note_on_c, 0, 73, 0
2, 131480, Note_on_c, 0, 80, 0
2, 131481, Note_on_c, 0, 81, 0
2, 131484, Note_on_c, 0, 68, 0
2, 131484, Control_c, 0, 64, 0
2, 131487, Note_on_c, 0, 83, 0
2, 131488, Note_on_c, 0, 71, 0
2, 131489, Note_on_c, 0, 44, 0
2, 131491, Note_on_c, 0, 32, 0
2, 131573, Control_c, 0, 64, 127
2, 131577, Note_on_c, 0, 85, 109
2, 131579, Note_on_c, 0, 76, 102
2, 131583, Note_on_c, 0, 45, 97
2, 131583, Note_on_c, 0, 33, 90
2, 131583, Note_on_c, 0, 73, 97
2, 131584, Note_on_c, 0, 81, 85
2, 131846, Note_on_c, 0, 69, 82
2, 131846, Note_on_c, 0, 57, 84
2, 131965, Note_on_c, 0, 81, 0
2, 131973, Note_on_c, 0, 69, 0
2, 131973, Note_on_c, 0, 73, 0
2, 131973, Note_on_c, 0, 76, 0
2, 131976, Note_on_c, 0, 81, 104
2, 131978, Note_on_c, 0, 69, 97
2, 131982, Note_on_c, 0, 76, 100
2, 131982, Note_on_c, 0, 73, 92
2, 132093, Note_on_c, 0, 64, 85
2, 132226, Note_on_c, 0, 57, 0
2, 132226, Note_on_c, 0, 69, 0
2, 132226, Note_on_c, 0, 73, 0
2, 132226, Note_on_c, 0, 76, 0
2, 132226, Note_on_c, 0, 81, 0
2, 132231, Note_on_c, 0, 57, 84
2, 132231, Note_on_c, 0, 81, 97
2, 132232, Note_on_c, 0, 69, 88
2, 132236, Note_on_c, 0, 76, 91
2, 132237, Note_on_c, 0, 73, 94
2, 132346, Note_on_c, 0, 52, 91
2, 132480, Note_on_c, 0, 45, 0
2, 132480, Note_on_c, 0, 64, 0
2, 132480, Note_on_c, 0, 76, 0
2, 132484, Note_on_c, 0, 76, 103
2, 132485, Note_on_c, 0, 64, 99
2, 132486, Note_on_c, 0, 45, 90
2, 132595, Note_on_c, 0, 40, 89
2, 132598, Note_on_c, 0, 28, 85
2, 132672, Note_on_c, 0, 33, 0
2, 132673, Note_on_c, 0, 40, 0
2, 132674, Note_on_c, 0, 45, 0
2, 132674, Note_on_c, 0, 69, 0
2, 132674, Note_on_c, 0, 64, 0
2, 132674, Note_on_c, 0, 52, 0
2, 132674, Note_on_c, 0, 81, 0
2, 132674, Note_on_c, 0, 76, 0
2, 132674, Note_on_c, 0, 57, 0
2, 132675, Control_c, 0, 64, 0
2, 132675, Note_on_c, 0, 85, 0
2, 132679, Note_on_c, 0, 28, 0
2, 132695, Note_on_c, 0, 73, 0
2, 132758, Note_on_c, 0, 78, 106
2, 132763, Note_on_c, 0, 66, 107
2, 132764, Note_on_c, 0, 74, 88
2, 132764, Note_on_c, 0, 69, 84
2, 132766, Note_on_c, 0, 38, 95
2, 132769, Note_on_c, 0, 26, 86
2, 132771, Control_c, 0, 64, 127
2, 133019, Note_on_c, 0, 50, 76
2, 133136, Note_on_c, 0, 54, 82
2, 133271, Note_on_c, 0, 69, 0
2, 133278, Note_on_c, 0, 74, 0
2, 133278, Note_on_c, 0, 78, 0
2, 133279, Note_on_c, 0, 81, 104
2, 133280, Note_on_c, 0, 64, 97
2, 133282, Note_on_c, 0, 69, 88
2, 133285, Note_on_c, 0, 74, 96
2, 133287, Note_on_c, 0, 78, 93
2, 133409, Note_on_c, 0, 54, 0
2, 133418, Note_on_c, 0, 54, 83
2, 133501, Note_on_c, 0, 50, 0
2, 133511, Note_on_c, 0, 50, 91
2, 133622, Note_on_c, 0, 69, 0
2, 133622, Note_on_c, 0, 38, 0
2, 133622, Note_on_c, 0, 81, 0
2, 133623, Note_on_c, 0, 64, 0
2, 133623, Note_on_c, 0, 66, 0
2, 133627, Control_c, 0, 64, 0
2, 133639, Note_on_c, 0, 26, 0
2, 133639, Note_on_c, 0, 50, 0
2, 133639, Note_on_c, 0, 54, 0
2, 133639, Note_on_c, 0, 74, 0
2, 133671, Note_on_c, 0, 40, 98
2, 133671, Note_on_c, 0, 28, 92
2, 133701, Control_c, 0, 64, 127
2, 133827, Note_on_c, 0, 80, 103
2, 133834, Note_on_c, 0, 68, 102
2, 133834, Note_on_c, 0, 71, 83
2, 133835, Note_on_c, 0, 76, 86
2, 133927, Note_on_c, 0, 52, 89
2, 134077, Note_on_c, 0, 52, 0
2, 134084, Note_on_c, 0, 81, 105
2, 134085, Note_on_c, 0, 76, 0
2, 134087, Note_on_c, 0, 52, 82
2, 134089, Note_on_c, 0, 69, 93
2, 134092, Note_on_c, 0, 76, 77
2, 134105, Control_c, 0, 64, 0
2, 134131, Control_c, 0, 64, 127
2, 134197, Note_on_c, 0, 56, 85
2, 134292, Note_on_c, 0, 78, 0
2, 134330, Note_on_c, 0, 71, 0
2, 134338, Note_on_c, 0, 68, 0
2, 134338, Note_on_c, 0, 76, 0
2, 134338, Note_on_c, 0, 80, 0
2, 134339, Note_on_c, 0, 83, 105
2, 134341, Note_on_c, 0, 64, 99
2, 134341, Note_on_c, 0, 71, 100
2, 134342, Note_on_c, 0, 59, 91
2, 134343, Note_on_c, 0, 76, 93
2, 134343, Note_on_c, 0, 68, 89
2, 134343, Note_on_c, 0, 80, 90
2, 134453, Note_on_c, 0, 56, 0
2, 134461, Note_on_c, 0, 56, 89
2, 134592, Note_on_c, 0, 52, 0
2, 134592, Note_on_c, 0, 64, 0
2, 134599, Note_on_c, 0, 71, 0
2, 134599, Note_on_c, 0, 83, 0
2, 134600, Note_on_c, 0, 64, 85
2, 134601, Note_on_c, 0, 52, 80
2, 134607, Note_on_c, 0, 83, 106
2, 134607, Note_on_c, 0, 76, 0
2, 134607, Note_on_c, 0, 80, 0
2, 134610, Note_on_c, 0, 71, 100
2, 134611, Note_on_c, 0, 76, 97
2, 134616, Note_on_c, 0, 80, 88
2, 134684, Note_on_c, 0, 56, 0
2, 134695, Note_on_c, 0, 56, 79
2, 134768, Note_on_c, 0, 28, 0
2, 134771, Note_on_c, 0, 40, 0
2, 134771, Note_on_c, 0, 52, 0
2, 134771, Note_on_c, 0, 81, 0
2, 134771, Note_on_c, 0, 64, 0
2, 134771, Note_on_c, 0, 69, 0
2, 134772, Note_on_c, 0, 59, 0
2, 134772, Note_on_c, 0, 56, 0
2, 134775, Control_c, 0, 64, 0
2, 134814, Note_on_c, 0, 68, 0
2, 134864, Note_on_c, 0, 30, 93
2, 134865, Note_on_c, 0, 42, 93
2, 134922, Control_c, 0, 64, 127
2, 134929, Note_on_c, 0, 42, 0
2, 135121, Note_on_c, 0, 85, 103
2, 135121, Note_on_c, 0, 76, 0
2, 135126, Note_on_c, 0, 76, 94
2, 135127, Note_on_c, 0, 73, 95
2, 135131, Note_on_c, 0, 81, 74
2, 135134, Note_on_c, 0, 54, 75
2, 135249, Note_on_c, 0, 69, 66
2, 135255, Note_on_c, 0, 57, 75
2, 135383, Note_on_c, 0, 71, 0
2, 135383, Note_on_c, 0, 83, 0
2, 135387, Note_on_c, 0, 64, 97
2, 135389, Note_on_c, 0, 83, 106
2, 135390, Note_on_c, 0, 61, 87
2, 135394, Note_on_c, 0, 71, 101
2, 135505, Note_on_c, 0, 57, 0
2, 135511, Note_on_c, 0, 57, 72
2, 135590, Note_on_c, 0, 54, 0
2, 135601, Note_on_c, 0, 54, 87
2, 135636, Note_on_c, 0, 69, 0
2, 135636, Note_on_c, 0, 81, 0
2, 135644, Note_on_c, 0, 73, 0
2, 135644, Note_on_c, 0, 76, 0
2, 135645, Note_on_c, 0, 81, 103
2, 135647, Note_on_c, 0, 69, 86
2, 135648, Note_on_c, 0, 76, 96
2, 135648, Note_on_c, 0, 73, 94
2, 135717, Control_c, 0, 64, 0
2, 135718, Note_on_c, 0, 57, 0
2, 135718, Note_on_c, 0, 85, 0
2, 135718, Note_on_c, 0, 71, 0
2, 135718, Note_on_c, 0, 83, 0
2, 135718, Note_on_c, 0, 64, 0
2, 135719, Note_on_c, 0, 54, 0
2, 135719, Note_on_c, 0, 61, 0
2, 135720, Note_on_c, 0, 30, 0
2, 135728, Note_on_c, 0, 80, 0
2, 135778, Note_on_c, 0, 37, 101
2, 135778, Note_on_c, 0, 49, 96
2, 135790, Control_c, 0, 64, 127
2, 136012, Note_on_c, 0, 37, 0
2, 136020, Note_on_c, 0, 49, 0
2, 136024, Note_on_c, 0, 37, 77
2, 136024, Note_on_c, 0, 49, 83
2, 136174, Note_on_c, 0, 49, 0
2, 136174, Note_on_c, 0, 69, 0
2, 136174, Note_on_c, 0, 81, 0
2, 136181, Note_on_c, 0, 49, 80
2, 136181, Note_on_c, 0, 73, 0
2, 136181, Note_on_c, 0, 76, 0
2, 136183, Note_on_c, 0, 81, 99
2, 136184, Note_on_c, 0, 69, 93
2, 136187, Note_on_c, 0, 76, 88
2, 136192, Note_on_c, 0, 73, 89
2, 136277, Note_on_c, 0, 56, 83
2, 136432, Note_on_c, 0, 64, 96
2, 136434, Note_on_c, 0, 80, 100
2, 136435, Note_on_c, 0, 76, 0
2, 136436, Note_on_c, 0, 59, 82
2, 136438, Note_on_c, 0, 68, 104
2, 136439, Note_on_c, 0, 76, 75
2, 136550, Note_on_c, 0, 56, 0
2, 136557, Note_on_c, 0, 56, 88
2, 136688, Note_on_c, 0, 49, 0
2, 136688, Note_on_c, 0, 64, 0
2, 136688, Note_on_c, 0, 76, 0
2, 136694, Note_on_c, 0, 49, 83
2, 136694, Note_on_c, 0, 76, 107
2, 136698, Note_on_c, 0, 64, 101
2, 136701, Note_on_c, 0, 68, 0
2, 136892, Note_on_c, 0, 80, 0
2, 136892, Note_on_c, 0, 69, 0
2, 136892, Note_on_c, 0, 56, 0
2, 136892, Note_on_c, 0, 73, 0
2, 136892, Note_on_c, 0, 76, 0
2, 136892, Note_on_c, 0, 64, 0
2, 136892, Note_on_c, 0, 49, 0
2, 136893, Note_on_c, 0, 81, 0
2, 136893, Note_on_c, 0, 59, 0
2, 136895, Control_c, 0, 64, 0
2, 136903, Note_on_c, 0, 37, 0
2, 136953, Note_on_c, 0, 78, 103
2, 136953, Note_on_c, 0, 47, 94
2, 136953, Note_on_c, 0, 66, 104
2, 136956, Note_on_c, 0, 69, 81
2, 136958, Note_on_c, 0, 73, 84
2, 136960, Note_on_c, 0, 35, 80
2, 136972, Control_c, 0, 64, 127
2, 137218, Note_on_c, 0, 73, 0
2, 137220, Note_on_c, 0, 85, 101
2, 137226, Note_on_c, 0, 35, 0
2, 137226, Note_on_c, 0, 47, 0
2, 137226, Note_on_c, 0, 73, 93
2, 137233, Note_on_c, 0, 35, 67
2, 137233, Note_on_c, 0, 47, 76
2, 137348, Note_on_c, 0, 54, 69
2, 137472, Note_on_c, 0, 69, 0
2, 137476, Note_on_c, 0, 57, 85
2, 137481, Note_on_c, 0, 69, 76
2, 137481, Note_on_c, 0, 62, 94
2, 137579, Note_on_c, 0, 54, 0
2, 137590, Note_on_c, 0, 54, 87
2, 137694, Note_on_c, 0, 47, 0
2, 137704, Note_on_c, 0, 47, 65
2, 137841, Note_on_c, 0, 73, 0
2, 137842, Control_c, 0, 64, 0
2, 137842, Note_on_c, 0, 69, 0
2, 137842, Note_on_c, 0, 62, 0
2, 137842, Note_on_c, 0, 47, 0
2, 137842, Note_on_c, 0, 57, 0
2, 137843, Note_on_c, 0, 66, 0
2, 137843, Note_on_c, 0, 85, 0
2, 137843, Note_on_c, 0, 35, 0
2, 137856, Note_on_c, 0, 54, 0
2, 137863, Note_on_c, 0, 78, 0
2, 137867, Note_on_c, 0, 49, 92
2, 137868, Note_on_c, 0, 78, 100
2, 137868, Note_on_c, 0, 37, 92
2, 137874, Note_on_c, 0, 66, 97
2, 137902, Control_c, 0, 64, 127
2, 138006, Note_on_c, 0, 76, 95
2, 138012, Note_on_c, 0, 64, 94
2, 138013, Note_on_c, 0, 71, 78
2, 138015, Note_on_c, 0, 68, 87
2, 138124, Note_on_c, 0, 37, 0
2, 138124, Note_on_c, 0, 49, 0
2, 138131, Note_on_c, 0, 37, 72
2, 138135, Note_on_c, 0, 49, 73
2, 138263, Note_on_c, 0, 49, 0
2, 138267, Note_on_c, 0, 49, 77
2, 138270, Note_on_c, 0, 37, 0
2, 138270, Note_on_c, 0, 71, 0
2, 138270, Note_on_c, 0, 83, 104
2, 138275, Note_on_c, 0, 37, 71
2, 138278, Note_on_c, 0, 71, 89
2, 138386, Note_on_c, 0, 56, 73
2, 138516, Note_on_c, 0, 64, 0
2, 138526, Note_on_c, 0, 64, 99
2, 138528, Note_on_c, 0, 59, 83
2, 138647, Note_on_c, 0, 56, 0
2, 138657, Note_on_c, 0, 56, 84
2, 138785, Note_on_c, 0, 49, 0
2, 138785, Note_on_c, 0, 68, 0
2, 138787, Note_on_c, 0, 80, 99
2, 138790, Note_on_c, 0, 49, 76
2, 138791, Note_on_c, 0, 68, 92
2, 138862, Note_on_c, 0, 56, 0
2, 138866, Note_on_c, 0, 56, 75
2, 138908, Note_on_c, 0, 76, 0
2, 138915, Note_on_c, 0, 81, 99
2, 138919, Note_on_c, 0, 76, 99
2, 138919, Note_on_c, 0, 69, 90
2, 138924, Note_on_c, 0, 73, 90
2, 138958, Note_on_c, 0, 66, 0
2, 138959, Note_on_c, 0, 56, 0
2, 138959, Note_on_c, 0, 78, 0
2, 138959, Note_on_c, 0, 68, 0
2, 138959, Note_on_c, 0, 37, 0
2, 138960, Note_on_c, 0, 64, 0
2, 138960, Note_on_c, 0, 59, 0
2, 138961, Note_on_c, 0, 49, 0
2, 138961, Note_on_c, 0, 71, 0
2, 138962, Note_on_c, 0, 83, 0
2, 138962, Note_on_c, 0, 80, 0
2, 138966, Control_c, 0, 64, 0
2, 139043, Note_on_c, 0, 50, 98
2, 139046, Note_on_c, 0, 38, 98
2, 139046, Control_c, 0, 64, 127
2, 139307, Note_on_c, 0, 38, 0
2, 139307, Note_on_c, 0, 50, 0
2, 139312, Note_on_c, 0, 38, 74
2, 139313, Note_on_c, 0, 50, 82
2, 139325, Note_on_c, 0, 78, 85
2, 139415, Note_on_c, 0, 54, 73
2, 139461, Note_on_c, 0, 71, 68
2, 139569, Note_on_c, 0, 64, 91
2, 139575, Note_on_c, 0, 66, 91
2, 139578, Note_on_c, 0, 59, 79
2, 139706, Note_on_c, 0, 59, 0
2, 139717, Note_on_c, 0, 59, 55
2, 139837, Note_on_c, 0, 50, 0
2, 139837, Note_on_c, 0, 73, 0
2, 139846, Note_on_c, 0, 73, 83
2, 139848, Note_on_c, 0, 50, 73
2, 139960, Note_on_c, 0, 76, 0
2, 139964, Note_on_c, 0, 76, 93
2, 139975, Note_on_c, 0, 38, 0
2, 139979, Note_on_c, 0, 38, 75
2, 140090, Note_on_c, 0, 66, 0
2, 140102, Note_on_c, 0, 66, 86
2, 140221, Note_on_c, 0, 73, 0
2, 140230, Note_on_c, 0, 73, 81
2, 140352, Note_on_c, 0, 50, 0
2, 140352, Note_on_c, 0, 78, 0
2, 140358, Note_on_c, 0, 78, 88
2, 140361, Note_on_c, 0, 50, 48
2, 140482, Note_on_c, 0, 54, 0
2, 140482, Note_on_c, 0, 71, 0
2, 140489, Note_on_c, 0, 54, 74
2, 140492, Note_on_c, 0, 71, 82
2, 140605, Note_on_c, 0, 64, 0
2, 140613, Note_on_c, 0, 59, 0
2, 140613, Note_on_c, 0, 66, 0
2, 140616, Note_on_c, 0, 64, 90
2, 140617, Note_on_c, 0, 66, 85
2, 140619, Note_on_c, 0, 59, 78
2, 140736, Note_on_c, 0, 71, 0
2, 140740, Note_on_c, 0, 71, 78
2, 140751, Note_on_c, 0, 54, 0
2, 140755, Note_on_c, 0, 54, 68
2, 140866, Note_on_c, 0, 73, 0
2, 140870, Note_on_c, 0, 73, 84
2, 140874, Note_on_c, 0, 50, 0
2, 140878, Note_on_c, 0, 50, 84
2, 140989, Note_on_c, 0, 76, 0
2, 140999, Note_on_c, 0, 76, 93
2, 141084, Note_on_c, 0, 54, 0
2, 141084, Note_on_c, 0, 66, 0
2, 141084, Note_on_c, 0, 81, 0
2, 141084, Note_on_c, 0, 71, 0
2, 141084, Note_on_c, 0, 78, 0
2, 141084, Note_on_c, 0, 59, 0
2, 141084, Note_on_c, 0, 73, 0
2, 141084, Note_on_c, 0, 50, 0
2, 141085, Note_on_c, 0, 38, 0
2, 141085, Note_on_c, 0, 76, 0
2, 141086, Control_c, 0, 64, 0
2, 141096, Note_on_c, 0, 69, 0
2, 141104, Note_on_c, 0, 64, 0
2, 141141, Note_on_c, 0, 66, 92
2, 141141, Note_on_c, 0, 52, 97
2, 141144, Note_on_c, 0, 40, 92
2, 141158, Control_c, 0, 64, 127
2, 141262, Note_on_c, 0, 73, 83
2, 141393, Note_on_c, 0, 78, 91
2, 141396, Note_on_c, 0, 52, 0
2, 141404, Note_on_c, 0, 52, 79
2, 141513, Note_on_c, 0, 56, 79
2, 141515, Note_on_c, 0, 71, 80
2, 141649, Note_on_c, 0, 66, 0
2, 141658, Note_on_c, 0, 66, 95
2, 141658, Note_on_c, 0, 64, 90
2, 141659, Note_on_c, 0, 59, 84
2, 141780, Note_on_c, 0, 71, 0
2, 141790, Note_on_c, 0, 71, 87
2, 141903, Note_on_c, 0, 73, 0
2, 141907, Note_on_c, 0, 73, 88
2, 141911, Note_on_c, 0, 52, 0
2, 141921, Note_on_c, 0, 52, 91
2, 141941, Note_on_c, 0, 40, 0
2, 141947, Note_on_c, 0, 40, 65
2, 141983, Note_on_c, 0, 56, 0
2, 141983, Note_on_c, 0, 71, 0
2, 141983, Note_on_c, 0, 59, 0
2, 141983, Note_on_c, 0, 66, 0
2, 141983, Note_on_c, 0, 64, 0
2, 141983, Note_on_c, 0, 78, 0
2, 141984, Control_c, 0, 64, 0
2, 142010, Control_c, 0, 64, 127
2, 142036, Note_on_c, 0, 76, 99
2, 142041, Note_on_c, 0, 40, 0
2, 142046, Note_on_c, 0, 40, 91
2, 142175, Note_on_c, 0, 66, 83
2, 142231, Note_on_c, 0, 71, 76
2, 142279, Note_on_c, 0, 73, 0
2, 142286, Note_on_c, 0, 73, 85
2, 142287, Note_on_c, 0, 52, 0
2, 142291, Note_on_c, 0, 52, 81
2, 142365, Note_on_c, 0, 78, 88
2, 142394, Note_on_c, 0, 52, 0
2, 142399, Note_on_c, 0, 52, 79
2, 142400, Note_on_c, 0, 83, 83
2, 142429, Note_on_c, 0, 85, 88
2, 142507, Note_on_c, 0, 90, 82
2, 142513, Note_on_c, 0, 56, 80
2, 142538, Note_on_c, 0, 95, 95
2, 142604, Note_on_c, 0, 97, 87
2, 142652, Note_on_c, 0, 102, 106
2, 142656, Note_on_c, 0, 56, 0
2, 142656, Note_on_c, 0, 90, 0
2, 142656, Note_on_c, 0, 64, 98
2, 142660, Note_on_c, 0, 90, 99
2, 142662, Note_on_c, 0, 56, 77
2, 142663, Note_on_c, 0, 59, 78
2, 142988, Control_c, 0, 64, 0
2, 142990, Note_on_c, 0, 85, 0
2, 142991, Note_on_c, 0, 73, 0
2, 142991, Note_on_c, 0, 71, 0
2, 142991, Note_on_c, 0, 97, 0
2, 142991, Note_on_c, 0, 90, 0
2, 142991, Note_on_c, 0, 59, 0
2, 142991, Note_on_c, 0, 95, 0
2, 142991, Note_on_c, 0, 78, 0
2, 142991, Note_on_c, 0, 52, 0
2, 142991, Note_on_c, 0, 56, 0
2, 142991, Note_on_c, 0, 76, 0
2, 142992, Note_on_c, 0, 66, 0
2, 142992, Note_on_c, 0, 83, 0
2, 142994, Note_on_c, 0, 40, 0
2, 143001, Note_on_c, 0, 102, 0
2, 143009, Note_on_c, 0, 64, 0
2, 143193, Control_c, 0, 64, 127
2, 143196, Note_on_c, 0, 54, 94
2, 143196, Note_on_c, 0, 81, 102
2, 143197, Note_on_c, 0, 42, 90
2, 143200, Note_on_c, 0, 76, 92
2, 143202, Note_on_c, 0, 73, 90
2, 143255, Note_on_c, 0, 54, 0
2, 143474, Note_on_c, 0, 54, 69
2, 143592, Note_on_c, 0, 61, 74
2, 143592, Note_on_c, 0, 64, 84
2, 143723, Note_on_c, 0, 81, 0
2, 143731, Note_on_c, 0, 73, 0
2, 143731, Note_on_c, 0, 76, 0
2, 143733, Note_on_c, 0, 81, 101
2, 143735, Note_on_c, 0, 76, 97
2, 143738, Note_on_c, 0, 73, 80
2, 143869, Note_on_c, 0, 42, 0
2, 143872, Note_on_c, 0, 57, 76
2, 143969, Note_on_c, 0, 64, 0
2, 143977, Note_on_c, 0, 69, 86
2, 143977, Note_on_c, 0, 64, 84
2, 143978, Note_on_c, 0, 61, 0
2, 144092, Note_on_c, 0, 81, 0
2, 144103, Note_on_c, 0, 81, 93
2, 144190, Control_c, 0, 64, 0
2, 144191, Note_on_c, 0, 69, 0
2, 144191, Note_on_c, 0, 73, 0
2, 144192, Note_on_c, 0, 81, 0
2, 144192, Note_on_c, 0, 64, 0
2, 144192, Note_on_c, 0, 57, 0
2, 144192, Note_on_c, 0, 54, 0
2, 144192, Note_on_c, 0, 76, 0
2, 144243, Note_on_c, 0, 80, 99
2, 144248, Note_on_c, 0, 71, 90
2, 144249, Note_on_c, 0, 52, 94
2, 144250, Note_on_c, 0, 40, 86
2, 144253, Control_c, 0, 64, 127
2, 144371, Note_on_c, 0, 76, 91
2, 144629, Note_on_c, 0, 76, 0
2, 144637, Note_on_c, 0, 71, 0
2, 144638, Note_on_c, 0, 64, 90
2, 144640, Note_on_c, 0, 76, 97
2, 144640, Note_on_c, 0, 59, 78
2, 144641, Note_on_c, 0, 57, 76
2, 144642, Note_on_c, 0, 71, 85
2, 144890, Note_on_c, 0, 59, 0
2, 144890, Note_on_c, 0, 71, 0
2, 144899, Note_on_c, 0, 59, 81
2, 144900, Note_on_c, 0, 71, 78
2, 145006, Note_on_c, 0, 57, 0
2, 145012, Note_on_c, 0, 57, 78
2, 145015, Note_on_c, 0, 69, 74
2, 145018, Note_on_c, 0, 73, 88
2, 145098, Note_on_c, 0, 52, 0
2, 145107, Note_on_c, 0, 52, 83
2, 145128, Note_on_c, 0, 76, 0
2, 145137, Note_on_c, 0, 76, 96
2, 145166, Note_on_c, 0, 73, 0
2, 145166, Note_on_c, 0, 80, 0
2, 145166, Note_on_c, 0, 71, 0
2, 145167, Note_on_c, 0, 57, 0
2, 145167, Note_on_c, 0, 69, 0
2, 145167, Note_on_c, 0, 64, 0
2, 145168, Note_on_c, 0, 52, 0
2, 145169, Control_c, 0, 64, 0
2, 145182, Note_on_c, 0, 59, 0
2, 145213, Note_on_c, 0, 76, 0
2, 145221, Note_on_c, 0, 40, 0
2, 145270, Note_on_c, 0, 50, 93
2, 145270, Note_on_c, 0, 81, 100
2, 145272, Note_on_c, 0, 38, 92
2, 145272, Note_on_c, 0, 76, 99
2, 145297, Control_c, 0, 64, 127
2, 145520, Note_on_c, 0, 50, 0
2, 145520, Note_on_c, 0, 81, 0
2, 145526, Note_on_c, 0, 50, 72
2, 145531, Note_on_c, 0, 81, 92
2, 145651, Note_on_c, 0, 76, 0
2, 145651, Note_on_c, 0, 81, 0
2, 145655, Note_on_c, 0, 64, 90
2, 145655, Note_on_c, 0, 81, 93
2, 145660, Note_on_c, 0, 76, 90
2, 145661, Note_on_c, 0, 73, 87
2, 145661, Note_on_c, 0, 54, 76
2, 145774, Note_on_c, 0, 81, 0
2, 145784, Note_on_c, 0, 81, 95
2, 145921, Note_on_c, 0, 57, 84
2, 146027, Note_on_c, 0, 64, 0
2, 146027, Note_on_c, 0, 73, 0
2, 146027, Note_on_c, 0, 81, 0
2, 146034, Note_on_c, 0, 69, 89
2, 146035, Note_on_c, 0, 76, 0
2, 146036, Note_on_c, 0, 64, 80
2, 146038, Note_on_c, 0, 81, 97
2, 146038, Note_on_c, 0, 73, 91
2, 146042, Note_on_c, 0, 76, 89
2, 146154, Note_on_c, 0, 83, 95
2, 146231, Control_c, 0, 64, 0
2, 146232, Note_on_c, 0, 54, 0
2, 146232, Note_on_c, 0, 64, 0
2, 146232, Note_on_c, 0, 76, 0
2, 146235, Note_on_c, 0, 83, 0
2, 146250, Note_on_c, 0, 38, 0
2, 146250, Note_on_c, 0, 50, 0
2, 146250, Note_on_c, 0, 57, 0
2, 146250, Note_on_c, 0, 69, 0
2, 146250, Note_on_c, 0, 73, 0
2, 146250, Note_on_c, 0, 81, 0
2, 146299, Note_on_c, 0, 80, 101
2, 146301, Note_on_c, 0, 49, 93
2, 146304, Note_on_c, 0, 37, 92
2, 146304, Note_on_c, 0, 71, 84
2, 146311, Control_c, 0, 64, 127
2, 146427, Note_on_c, 0, 76, 90
2, 146549, Note_on_c, 0, 49, 0
2, 146558, Note_on_c, 0, 49, 77
2, 146695, Note_on_c, 0, 71, 0
2, 146695, Note_on_c, 0, 76, 0
2, 146697, Note_on_c, 0, 59, 77
2, 146697, Note_on_c, 0, 64, 93
2, 146697, Note_on_c, 0, 57, 78
2, 146700, Note_on_c, 0, 69, 82
2, 146700, Note_on_c, 0, 76, 102
2, 146705, Note_on_c, 0, 71, 88
2, 146956, Note_on_c, 0, 59, 0
2, 146962, Note_on_c, 0, 49, 0
2, 146967, Note_on_c, 0, 59, 85
2, 147072, Note_on_c, 0, 57, 0
2, 147080, Note_on_c, 0, 57, 72
2, 147177, Note_on_c, 0, 52, 88
2, 147213, Note_on_c, 0, 73, 80
2, 147269, Note_on_c, 0, 69, 0
2, 147271, Note_on_c, 0, 71, 0
2, 147272, Note_on_c, 0, 76, 0
2, 147272, Note_on_c, 0, 80, 0
2, 147272, Note_on_c, 0, 52, 0
2, 147272, Note_on_c, 0, 57, 0
2, 147272, Note_on_c, 0, 64, 0
2, 147272, Note_on_c, 0, 73, 0
2, 147272, Note_on_c, 0, 59, 0
2, 147272, Control_c, 0, 64, 0
2, 147273, Note_on_c, 0, 37, 0
2, 147273, Note_on_c, 0, 74, 82
2, 147335, Note_on_c, 0, 76, 105
2, 147336, Note_on_c, 0, 47, 87
2, 147344, Note_on_c, 0, 35, 71
2, 147348, Control_c, 0, 64, 127
2, 147578, Note_on_c, 0, 47, 0
2, 147578, Note_on_c, 0, 74, 0
2, 147583, Note_on_c, 0, 47, 70
2, 147587, Note_on_c, 0, 74, 92
2, 147591, Note_on_c, 0, 71, 77
2, 147592, Note_on_c, 0, 66, 81
2, 147601, Note_on_c, 0, 66, 0
2, 147691, Note_on_c, 0, 54, 76
2, 147714, Note_on_c, 0, 73, 88
2, 147722, Note_on_c, 0, 69, 75
2, 147832, Note_on_c, 0, 74, 0
2, 147834, Note_on_c, 0, 64, 96
2, 147840, Note_on_c, 0, 71, 0
2, 147842, Note_on_c, 0, 74, 92
2, 147844, Note_on_c, 0, 71, 85
2, 147851, Note_on_c, 0, 57, 71
2, 147962, Note_on_c, 0, 54, 0
2, 147962, Note_on_c, 0, 73, 0
2, 147962, Note_on_c, 0, 76, 0
2, 147967, Note_on_c, 0, 76, 95
2, 147971, Note_on_c, 0, 66, 74
2, 147973, Note_on_c, 0, 54, 66
2, 147974, Note_on_c, 0, 73, 76
2, 148085, Note_on_c, 0, 47, 0
2, 148094, Note_on_c, 0, 47, 83
2, 148193, Note_on_c, 0, 54, 0
2, 148203, Note_on_c, 0, 54, 81
2, 148224, Note_on_c, 0, 76, 0
2, 148229, Note_on_c, 0, 81, 102
2, 148231, Note_on_c, 0, 73, 0
2, 148234, Note_on_c, 0, 76, 99
2, 148236, Note_on_c, 0, 73, 90
2, 148270, Note_on_c, 0, 69, 0
2, 148270, Control_c, 0, 64, 0
2, 148271, Note_on_c, 0, 71, 0
2, 148271, Note_on_c, 0, 64, 0
2, 148271, Note_on_c, 0, 66, 0
2, 148272, Note_on_c, 0, 57, 0
2, 148272, Note_on_c, 0, 54, 0
2, 148272, Note_on_c, 0, 47, 0
2, 148285, Note_on_c, 0, 35, 0
2, 148285, Note_on_c, 0, 74, 0
2, 148361, Note_on_c, 0, 49, 96
2, 148361, Note_on_c, 0, 37, 93
2, 148369, Control_c, 0, 64, 127
2, 148623, Note_on_c, 0, 49, 0
2, 148628, Note_on_c, 0, 83, 94
2, 148634, Note_on_c, 0, 49, 75
2, 148665, Note_on_c, 0, 80, 42
2, 148753, Note_on_c, 0, 73, 0
2, 148753, Note_on_c, 0, 76, 0
2, 148753, Note_on_c, 0, 81, 0
2, 148759, Note_on_c, 0, 81, 95
2, 148761, Note_on_c, 0, 76, 94
2, 148763, Note_on_c, 0, 73, 91
2, 148774, Note_on_c, 0, 52, 70
2, 148895, Note_on_c, 0, 64, 101
2, 148903, Note_on_c, 0, 57, 79
2, 149007, Note_on_c, 0, 52, 0
2, 149018, Note_on_c, 0, 52, 81
2, 149145, Note_on_c, 0, 49, 0
2, 149154, Note_on_c, 0, 49, 77
2, 149253, Note_on_c, 0, 52, 0
2, 149260, Note_on_c, 0, 76, 0
2, 149263, Note_on_c, 0, 52, 63
2, 149264, Note_on_c, 0, 76, 91
2, 149314, Note_on_c, 0, 81, 0
2, 149321, Note_on_c, 0, 81, 86
2, 149365, Note_on_c, 0, 73, 0
2, 149365, Note_on_c, 0, 52, 0
2, 149365, Note_on_c, 0, 81, 0
2, 149365, Note_on_c, 0, 57, 0
2, 149365, Note_on_c, 0, 64, 0
2, 149366, Note_on_c, 0, 76, 0
2, 149366, Note_on_c, 0, 49, 0
2, 149368, Note_on_c, 0, 80, 0
2, 149368, Control_c, 0, 64, 0
2, 149376, Note_on_c, 0, 37, 0
2, 149406, Note_on_c, 0, 83, 0
2, 149410, Note_on_c, 0, 83, 107
2, 149420, Note_on_c, 0, 38, 94
2, 149420, Note_on_c, 0, 50, 90
2, 149424, Note_on_c, 0, 76, 94
2, 149424, Note_on_c, 0, 78, 94
2, 149452, Control_c, 0, 64, 127
2, 149660, Note_on_c, 0, 83, 0
2, 149667, Note_on_c, 0, 50, 0
2, 149667, Note_on_c, 0, 76, 0
2, 149668, Note_on_c, 0, 83, 98
2, 149677, Note_on_c, 0, 50, 66
2, 149678, Note_on_c, 0, 76, 89
2, 149783, Note_on_c, 0, 50, 0
2, 149783, Note_on_c, 0, 54, 78
2, 149790, Note_on_c, 0, 76, 0
2, 149792, Note_on_c, 0, 50, 66
2, 149797, Note_on_c, 0, 81, 102
2, 149798, Note_on_c, 0, 78, 0
2, 149801, Note_on_c, 0, 76, 85
2, 149802, Note_on_c, 0, 78, 92
2, 149920, Note_on_c, 0, 64, 95
2, 149923, Note_on_c, 0, 57, 73
2, 150044, Note_on_c, 0, 81, 0
2, 150048, Note_on_c, 0, 81, 100
2, 150051, Note_on_c, 0, 54, 0
2, 150051, Note_on_c, 0, 57, 0
2, 150051, Note_on_c, 0, 76, 0
2, 150058, Note_on_c, 0, 76, 91
2, 150058, Note_on_c, 0, 54, 73
2, 150063, Note_on_c, 0, 57, 63
2, 150167, Note_on_c, 0, 50, 0
2, 150167, Note_on_c, 0, 57, 0
2, 150172, Note_on_c, 0, 57, 75
2, 150174, Note_on_c, 0, 76, 0
2, 150177, Note_on_c, 0, 50, 85
2, 150179, Note_on_c, 0, 80, 102
2, 150181, Note_on_c, 0, 76, 88
2, 150282, Note_on_c, 0, 54, 0
2, 150286, Note_on_c, 0, 54, 73
2, 150369, Note_on_c, 0, 50, 0
2, 150370, Note_on_c, 0, 54, 0
2, 150370, Note_on_c, 0, 38, 0
2, 150370, Note_on_c, 0, 76, 0
2, 150370, Note_on_c, 0, 83, 0
2, 150370, Note_on_c, 0, 78, 0
2, 150370, Note_on_c, 0, 64, 0
2, 150370, Note_on_c, 0, 57, 0
2, 150371, Note_on_c, 0, 81, 0
2, 150371, Note_on_c, 0, 80, 0
2, 150371, Control_c, 0, 64, 0
2, 150426, Note_on_c, 0, 52, 99
2, 150430, Note_on_c, 0, 80, 101
2, 150431, Note_on_c, 0, 40, 93
2, 150437, Note_on_c, 0, 76, 92
2, 150458, Control_c, 0, 64, 127
2, 150558, Note_on_c, 0, 76, 0
2, 150564, Note_on_c, 0, 81, 98
2, 150567, Note_on_c, 0, 76, 92
2, 150571, Note_on_c, 0, 78, 83
2, 150689, Note_on_c, 0, 52, 0
2, 150689, Note_on_c, 0, 80, 0
2, 150693, Note_on_c, 0, 52, 82
2, 150694, Note_on_c, 0, 80, 72
2, 150796, Note_on_c, 0, 76, 0
2, 150796, Note_on_c, 0, 78, 0
2, 150799, Note_on_c, 0, 83, 101
2, 150799, Note_on_c, 0, 56, 80
2, 150806, Note_on_c, 0, 76, 90
2, 150806, Note_on_c, 0, 78, 89
2, 150915, Note_on_c, 0, 59, 86
2, 150919, Note_on_c, 0, 56, 0
2, 150929, Note_on_c, 0, 64, 97
2, 150930, Note_on_c, 0, 56, 78
2, 151034, Note_on_c, 0, 56, 0
2, 151041, Note_on_c, 0, 56, 86
2, 151196, Note_on_c, 0, 40, 0
2, 151196, Note_on_c, 0, 52, 0
2, 151200, Note_on_c, 0, 40, 91
2, 151201, Note_on_c, 0, 52, 100
2, 151311, Note_on_c, 0, 40, 0
2, 151311, Note_on_c, 0, 52, 0
2, 151322, Note_on_c, 0, 40, 85
2, 151322, Note_on_c, 0, 52, 92
2, 151389, Control_c, 0, 64, 0
2, 151389, Note_on_c, 0, 81, 0
2, 151390, Note_on_c, 0, 83, 0
2, 151390, Note_on_c, 0, 78, 0
2, 151390, Note_on_c, 0, 76, 0
2, 151390, Note_on_c, 0, 64, 0
2, 151390, Note_on_c, 0, 56, 0
2, 151391, Note_on_c, 0, 80, 0
2, 151391, Note_on_c, 0, 52, 0
2, 151391, Note_on_c, 0, 59, 0
2, 151391, Note_on_c, 0, 40, 0
2, 151469, Note_on_c, 0, 69, 99
2, 151470, Note_on_c, 0, 54, 97
2, 151471, Note_on_c, 0, 42, 96
2, 151476, Note_on_c, 0, 64, 91
2, 151503, Control_c, 0, 64, 127
2, 151549, Note_on_c, 0, 54, 0
2, 151733, Note_on_c, 0, 69, 0
2, 151745, Note_on_c, 0, 69, 75
2, 151745, Note_on_c, 0, 54, 76
2, 151796, Note_on_c, 0, 76, 85
2, 151868, Note_on_c, 0, 61, 77
2, 151891, Note_on_c, 0, 81, 57
2, 151922, Note_on_c, 0, 88, 82
2, 151979, Note_on_c, 0, 69, 0
2, 151987, Note_on_c, 0, 64, 0
2, 151989, Note_on_c, 0, 69, 102
2, 151990, Note_on_c, 0, 93, 98
2, 151994, Note_on_c, 0, 64, 95
2, 152110, Note_on_c, 0, 61, 0
2, 152110, Note_on_c, 0, 81, 0
2, 152114, Note_on_c, 0, 81, 84
2, 152116, Note_on_c, 0, 61, 83
2, 152232, Note_on_c, 0, 54, 0
2, 152240, Note_on_c, 0, 54, 88
2, 152247, Note_on_c, 0, 71, 80
2, 152248, Note_on_c, 0, 69, 0
2, 152257, Note_on_c, 0, 69, 70
2, 152363, Note_on_c, 0, 69, 0
2, 152371, Note_on_c, 0, 69, 97
2, 152378, Note_on_c, 0, 64, 0
2, 152382, Note_on_c, 0, 64, 72
2, 152390, Note_on_c, 0, 52, 62
2, 152401, Note_on_c, 0, 52, 0
2, 152444, Note_on_c, 0, 69, 0
2, 152444, Note_on_c, 0, 54, 0
2, 152444, Control_c, 0, 64, 0
2, 152444, Note_on_c, 0, 64, 0
2, 152444, Note_on_c, 0, 81, 0
2, 152445, Note_on_c, 0, 88, 0
2, 152445, Note_on_c, 0, 61, 0
2, 152445, Note_on_c, 0, 93, 0
2, 152445, Note_on_c, 0, 71, 0
2, 152445, Note_on_c, 0, 76, 0
2, 152455, Note_on_c, 0, 42, 0
2, 152513, Note_on_c, 0, 68, 100
2, 152516, Note_on_c, 0, 64, 84
2, 152518, Note_on_c, 0, 52, 93
2, 152519, Note_on_c, 0, 40, 88
2, 152532, Control_c, 0, 64, 127
2, 152616, Note_on_c, 0, 64, 0
2, 152623, Note_on_c, 0, 64, 86
2, 152632, Note_on_c, 0, 52, 0
2, 152638, Note_on_c, 0, 52, 79
2, 152762, Note_on_c, 0, 52, 0
2, 152770, Note_on_c, 0, 52, 84
2, 152771, Note_on_c, 0, 50, 79
2, 152776, Note_on_c, 0, 71, 82
2, 152846, Note_on_c, 0, 76, 87
2, 152885, Note_on_c, 0, 52, 0
2, 152885, Note_on_c, 0, 64, 0
2, 152890, Note_on_c, 0, 64, 94
2, 152891, Note_on_c, 0, 52, 74
2, 152981, Note_on_c, 0, 88, 87
2, 153005, Note_on_c, 0, 95, 96
2, 153007, Note_on_c, 0, 56, 92
2, 153034, Note_on_c, 0, 54, 60
2, 153095, Note_on_c, 0, 89, 79
2, 153115, Note_on_c, 0, 83, 87
2, 153116, Note_on_c, 0, 52, 0
2, 153121, Note_on_c, 0, 52, 85
2, 153223, Note_on_c, 0, 76, 0
2, 153234, Note_on_c, 0, 76, 73
2, 153262, Note_on_c, 0, 40, 0
2, 153262, Note_on_c, 0, 52, 0
2, 153271, Note_on_c, 0, 40, 86
2, 153273, Note_on_c, 0, 52, 77
2, 153384, Note_on_c, 0, 40, 0
2, 153384, Note_on_c, 0, 52, 0
2, 153384, Note_on_c, 0, 64, 0
2, 153394, Note_on_c, 0, 40, 75
2, 153394, Note_on_c, 0, 52, 79
2, 153395, Note_on_c, 0, 64, 90
2, 153466, Note_on_c, 0, 95, 0
2, 153466, Note_on_c, 0, 68, 0
2, 153466, Control_c, 0, 64, 0
2, 153467, Note_on_c, 0, 64, 0
2, 153467, Note_on_c, 0, 88, 0
2, 153467, Note_on_c, 0, 52, 0
2, 153467, Note_on_c, 0, 40, 0
2, 153467, Note_on_c, 0, 56, 0
2, 153467, Note_on_c, 0, 83, 0
2, 153467, Note_on_c, 0, 50, 0
2, 153484, Note_on_c, 0, 54, 0
2, 153484, Note_on_c, 0, 76, 0
2, 153492, Note_on_c, 0, 71, 0
2, 153492, Note_on_c, 0, 89, 0
2, 153526, Note_on_c, 0, 69, 105
2, 153527, Note_on_c, 0, 50, 98
2, 153528, Note_on_c, 0, 38, 98
2, 153532, Note_on_c, 0, 66, 99
2, 153576, Control_c, 0, 64, 127
2, 153768, Note_on_c, 0, 69, 0
2, 153779, Note_on_c, 0, 69, 92
2, 153792, Note_on_c, 0, 50, 0
2, 153802, Note_on_c, 0, 50, 91
2, 153834, Note_on_c, 0, 76, 88
2, 153834, Note_on_c, 0, 75, 71
2, 153910, Note_on_c, 0, 57, 83
2, 153923, Note_on_c, 0, 83, 81
2, 154037, Note_on_c, 0, 69, 0
2, 154042, Note_on_c, 0, 69, 103
2, 154045, Note_on_c, 0, 66, 0
2, 154056, Note_on_c, 0, 66, 104
2, 154078, Note_on_c, 0, 89, 87
2, 154152, Note_on_c, 0, 57, 0
2, 154152, Note_on_c, 0, 69, 0
2, 154152, Note_on_c, 0, 83, 0
2, 154157, Note_on_c, 0, 69, 73
2, 154160, Note_on_c, 0, 66, 0
2, 154162, Note_on_c, 0, 57, 74
2, 154163, Note_on_c, 0, 83, 66
2, 154168, Note_on_c, 0, 66, 66
2, 154298, Note_on_c, 0, 50, 0
2, 154298, Note_on_c, 0, 66, 0
2, 154304, Note_on_c, 0, 50, 87
2, 154308, Note_on_c, 0, 66, 70
2, 154309, Note_on_c, 0, 38, 0
2, 154432, Note_on_c, 0, 71, 94
2, 154503, Control_c, 0, 64, 0
2, 154504, Note_on_c, 0, 57, 0
2, 154504, Note_on_c, 0, 69, 0
2, 154504, Note_on_c, 0, 89, 0
2, 154505, Note_on_c, 0, 83, 0
2, 154506, Note_on_c, 0, 76, 0
2, 154506, Note_on_c, 0, 66, 0
2, 154506, Note_on_c, 0, 50, 0
2, 154509, Note_on_c, 0, 71, 0
2, 154521, Note_on_c, 0, 75, 0
2, 154576, Note_on_c, 0, 77, 88
2, 154577, Note_on_c, 0, 49, 98
2, 154577, Note_on_c, 0, 73, 100
2, 154579, Note_on_c, 0, 68, 94
2, 154579, Note_on_c, 0, 37, 94
2, 154583, Note_on_c, 0, 77, 0
2, 154598, Control_c, 0, 64, 127
2, 154689, Note_on_c, 0, 64, 92
2, 154805, Note_on_c, 0, 37, 0
2, 154805, Note_on_c, 0, 49, 0
2, 154816, Note_on_c, 0, 49, 69
2, 154816, Note_on_c, 0, 37, 69
2, 154835, Note_on_c, 0, 71, 83
2, 154898, Note_on_c, 0, 76, 78
2, 154944, Note_on_c, 0, 64, 0
2, 154947, Note_on_c, 0, 64, 90
2, 154969, Note_on_c, 0, 85, 70
2, 154971, Note_on_c, 0, 83, 87
2, 154974, Note_on_c, 0, 85, 0
2, 154994, Note_on_c, 0, 59, 64
2, 155017, Note_on_c, 0, 88, 86
2, 155048, Note_on_c, 0, 56, 102
2, 155055, Note_on_c, 0, 95, 101
2, 155120, Note_on_c, 0, 88, 0
2, 155130, Note_on_c, 0, 88, 89
2, 155132, Note_on_c, 0, 89, 76
2, 155159, Note_on_c, 0, 49, 0
2, 155164, Note_on_c, 0, 49, 84
2, 155166, Note_on_c, 0, 83, 0
2, 155174, Note_on_c, 0, 83, 80
2, 155287, Note_on_c, 0, 69, 93
2, 155294, Note_on_c, 0, 65, 68
2, 155297, Note_on_c, 0, 37, 0
2, 155301, Note_on_c, 0, 37, 82
2, 155438, Note_on_c, 0, 78, 101
2, 155444, Note_on_c, 0, 66, 89
2, 155510, Note_on_c, 0, 88, 0
2, 155511, Note_on_c, 0, 95, 0
2, 155511, Note_on_c, 0, 49, 0
2, 155511, Note_on_c, 0, 89, 0
2, 155512, Note_on_c, 0, 56, 0
2, 155512, Note_on_c, 0, 69, 0
2, 155512, Note_on_c, 0, 83, 0
2, 155512, Note_on_c, 0, 37, 0
2, 155512, Note_on_c, 0, 76, 0
2, 155513, Note_on_c, 0, 78, 0
2, 155513, Note_on_c, 0, 71, 0
2, 155514, Note_on_c, 0, 59, 0
2, 155514, Note_on_c, 0, 64, 0
2, 155514, Note_on_c, 0, 66, 0
2, 155515, Control_c, 0, 64, 0
2, 155520, Note_on_c, 0, 73, 0
2, 155527, Note_on_c, 0, 68, 0
2, 155535, Note_on_c, 0, 65, 0
2, 155569, Note_on_c, 0, 81, 107
2, 155569, Note_on_c, 0, 35, 91
2, 155570, Note_on_c, 0, 47, 92
2, 155576, Note_on_c, 0, 37, 81
2, 155581, Note_on_c, 0, 69, 93
2, 155583, Note_on_c, 0, 76, 91
2, 155583, Note_on_c, 0, 77, 87
2, 155586, Note_on_c, 0, 74, 77
2, 155596, Control_c, 0, 64, 127
2, 155601, Note_on_c, 0, 78, 71
2, 155819, Note_on_c, 0, 47, 0
2, 155829, Note_on_c, 0, 47, 81
2, 155831, Note_on_c, 0, 80, 100
2, 155834, Note_on_c, 0, 68, 95
2, 155908, Note_on_c, 0, 54, 82
2, 155965, Note_on_c, 0, 81, 0
2, 155970, Note_on_c, 0, 81, 98
2, 155973, Note_on_c, 0, 69, 0
2, 155978, Note_on_c, 0, 69, 91
2, 155986, Note_on_c, 0, 56, 75
2, 156080, Note_on_c, 0, 76, 0
2, 156082, Note_on_c, 0, 64, 97
2, 156085, Note_on_c, 0, 76, 105
2, 156126, Note_on_c, 0, 56, 0
2, 156137, Note_on_c, 0, 56, 59
2, 156157, Note_on_c, 0, 54, 0
2, 156164, Note_on_c, 0, 54, 76
2, 156234, Note_on_c, 0, 68, 0
2, 156244, Note_on_c, 0, 68, 63
2, 156249, Note_on_c, 0, 76, 0
2, 156254, Note_on_c, 0, 76, 69
2, 156257, Note_on_c, 0, 69, 0
2, 156265, Note_on_c, 0, 69, 65
2, 156270, Note_on_c, 0, 57, 76
2, 156357, Note_on_c, 0, 54, 0
2, 156357, Note_on_c, 0, 78, 0
2, 156360, Note_on_c, 0, 78, 104
2, 156361, Note_on_c, 0, 54, 89
2, 156362, Note_on_c, 0, 73, 87
2, 156366, Note_on_c, 0, 66, 100
2, 156367, Note_on_c, 0, 71, 76
2, 156433, Note_on_c, 0, 47, 0
2, 156443, Note_on_c, 0, 47, 87
2, 156510, Note_on_c, 0, 37, 0
2, 156532, Control_c, 0, 64, 0
2, 156535, Note_on_c, 0, 74, 0
2, 156535, Note_on_c, 0, 69, 0
2, 156535, Note_on_c, 0, 57, 0
2, 156535, Note_on_c, 0, 81, 0
2, 156535, Note_on_c, 0, 54, 0
2, 156536, Note_on_c, 0, 64, 0
2, 156536, Note_on_c, 0, 80, 0
2, 156536, Note_on_c, 0, 56, 0
2, 156536, Note_on_c, 0, 68, 0
2, 156541, Note_on_c, 0, 77, 0
2, 156564, Note_on_c, 0, 35, 0
2, 156579, Note_on_c, 0, 47, 0
2, 156612, Note_on_c, 0, 37, 99
2, 156612, Note_on_c, 0, 49, 95
2, 156625, Control_c, 0, 64, 127
2, 156787, Note_on_c, 0, 71, 0
2, 156793, Note_on_c, 0, 71, 50
2, 156797, Note_on_c, 0, 59, 51
2, 156875, Note_on_c, 0, 64, 90
2, 156879, Note_on_c, 0, 49, 0
2, 156890, Note_on_c, 0, 49, 55
2, 156928, Note_on_c, 0, 69, 83
2, 156976, Note_on_c, 0, 52, 74
2, 157032, Note_on_c, 0, 76, 0
2, 157036, Note_on_c, 0, 57, 69
2, 157037, Note_on_c, 0, 76, 84
2, 157067, Note_on_c, 0, 81, 89
2, 157117, Note_on_c, 0, 52, 0
2, 157117, Note_on_c, 0, 64, 0
2, 157121, Note_on_c, 0, 64, 87
2, 157127, Note_on_c, 0, 52, 64
2, 157137, Note_on_c, 0, 88, 101
2, 157194, Note_on_c, 0, 57, 0
2, 157203, Note_on_c, 0, 57, 72
2, 157206, Note_on_c, 0, 83, 86
2, 157232, Note_on_c, 0, 81, 0
2, 157236, Note_on_c, 0, 81, 92
2, 157248, Note_on_c, 0, 52, 0
2, 157256, Note_on_c, 0, 52, 67
2, 157271, Note_on_c, 0, 76, 0
2, 157281, Note_on_c, 0, 76, 79
2, 157386, Note_on_c, 0, 57, 0
2, 157386, Note_on_c, 0, 64, 0
2, 157386, Note_on_c, 0, 76, 0
2, 157390, Note_on_c, 0, 57, 82
2, 157391, Note_on_c, 0, 76, 92
2, 157397, Note_on_c, 0, 64, 93
2, 157486, Note_on_c, 0, 49, 0
2, 157492, Note_on_c, 0, 49, 71
2, 157509, Note_on_c, 0, 78, 0
2, 157518, Note_on_c, 0, 78, 104
2, 157524, Note_on_c, 0, 66, 0
2, 157529, Note_on_c, 0, 66, 90
2, 157585, Control_c, 0, 64, 0
2, 157587, Note_on_c, 0, 49, 0
2, 157587, Note_on_c, 0, 81, 0
2, 157587, Note_on_c, 0, 88, 0
2, 157587, Note_on_c, 0, 83, 0
2, 157588, Note_on_c, 0, 78, 0
2, 157588, Note_on_c, 0, 64, 0
2, 157588, Note_on_c, 0, 69, 0
2, 157588, Note_on_c, 0, 71, 0
2, 157588, Note_on_c, 0, 57, 0
2, 157588, Note_on_c, 0, 76, 0
2, 157588, Note_on_c, 0, 66, 0
2, 157589, Note_on_c, 0, 37, 0
2, 157601, Note_on_c, 0, 73, 0
2, 157608, Note_on_c, 0, 52, 0
2, 157608, Note_on_c, 0, 59, 0
2, 157654, Note_on_c, 0, 81, 106
2, 157658, Note_on_c, 0, 38, 95
2, 157658, Note_on_c, 0, 69, 99
2, 157659, Note_on_c, 0, 76, 102
2, 157664, Note_on_c, 0, 73, 94
2, 157670, Control_c, 0, 64, 127
2, 157908, Note_on_c, 0, 80, 100
2, 157910, Note_on_c, 0, 68, 99
2, 157919, Note_on_c, 0, 48, 70
2, 157985, Note_on_c, 0, 54, 80
2, 158031, Note_on_c, 0, 81, 0
2, 158036, Note_on_c, 0, 81, 103
2, 158062, Note_on_c, 0, 69, 0
2, 158066, Note_on_c, 0, 69, 75
2, 158066, Note_on_c, 0, 57, 78
2, 158131, Note_on_c, 0, 64, 90
2, 158154, Note_on_c, 0, 76, 0
2, 158160, Note_on_c, 0, 76, 103
2, 158215, Note_on_c, 0, 54, 0
2, 158226, Note_on_c, 0, 54, 69
2, 158315, Note_on_c, 0, 57, 0
2, 158321, Note_on_c, 0, 57, 75
2, 158384, Note_on_c, 0, 54, 0
2, 158390, Note_on_c, 0, 54, 70
2, 158426, Note_on_c, 0, 50, 76
2, 158430, Note_on_c, 0, 76, 0
2, 158431, Note_on_c, 0, 83, 108
2, 158437, Note_on_c, 0, 76, 99
2, 158440, Note_on_c, 0, 71, 95
2, 158442, Note_on_c, 0, 78, 94
2, 158606, Note_on_c, 0, 50, 0
2, 158606, Note_on_c, 0, 54, 0
2, 158607, Note_on_c, 0, 48, 0
2, 158607, Note_on_c, 0, 68, 0
2, 158608, Note_on_c, 0, 69, 0
2, 158608, Note_on_c, 0, 57, 0
2, 158608, Note_on_c, 0, 81, 0
2, 158608, Note_on_c, 0, 80, 0
2, 158609, Note_on_c, 0, 64, 0
2, 158609, Control_c, 0, 64, 0
2, 158609, Note_on_c, 0, 73, 0
2, 158622, Note_on_c, 0, 38, 0
2, 158688, Note_on_c, 0, 52, 99
2, 158688, Note_on_c, 0, 40, 94
2, 158691, Control_c, 0, 64, 127
2, 158952, Note_on_c, 0, 78, 0
2, 158954, Note_on_c, 0, 81, 101
2, 158957, Note_on_c, 0, 69, 91
2, 158957, Note_on_c, 0, 78, 94
2, 158960, Note_on_c, 0, 76, 0
2, 158964, Note_on_c, 0, 76, 86
2, 158968, Note_on_c, 0, 52, 0
2, 158971, Note_on_c, 0, 64, 78
2, 158973, Note_on_c, 0, 52, 72
2, 159049, Note_on_c, 0, 57, 69
2, 159149, Note_on_c, 0, 59, 76
2, 159206, Note_on_c, 0, 64, 0
2, 159212, Note_on_c, 0, 64, 90
2, 159298, Note_on_c, 0, 69, 0
2, 159305, Note_on_c, 0, 69, 86
2, 159367, Note_on_c, 0, 71, 0
2, 159373, Note_on_c, 0, 71, 86
2, 159459, Note_on_c, 0, 76, 0
2, 159469, Note_on_c, 0, 76, 86
2, 159536, Note_on_c, 0, 81, 0
2, 159547, Note_on_c, 0, 81, 87
2, 159613, Note_on_c, 0, 83, 0
2, 159619, Note_on_c, 0, 83, 85
2, 159759, Note_on_c, 0, 40, 0
2, 159764, Note_on_c, 0, 100, 95
2, 159765, Note_on_c, 0, 40, 69
2, 159769, Note_on_c, 0, 28, 72
2, 159771, Note_on_c, 0, 88, 88
2, 161959, Control_c, 0, 64, 0
2, 161966, Note_on_c, 0, 78, 0
2, 161967, Note_on_c, 0, 57, 0
2, 161967, Note_on_c, 0, 81, 0
2, 161968, Note_on_c, 0, 64, 0
2, 161969, Note_on_c, 0, 71, 0
2, 161969, Note_on_c, 0, 83, 0
2, 161969, Note_on_c, 0, 100, 0
2, 161969, Note_on_c, 0, 76, 0
2, 161969, Note_on_c, 0, 69, 0
2, 161970, Note_on_c, 0, 88, 0
2, 161970, Note_on_c, 0, 40, 0
2, 162001, Note_on_c, 0, 28, 0
2, 162885, Control_c, 0, 64, 127
2, 163017, Note_on_c, 0, 69, 54
2, 163309, Note_on_c, 0, 68, 72
2, 163318, Note_on_c, 0, 64, 51
2, 163584, Note_on_c, 0, 52, 0
2, 163722, Note_on_c, 0, 69, 0
2, 163727, Note_on_c, 0, 69, 71
2, 163754, Note_on_c, 0, 66, 56
2, 163760, Note_on_c, 0, 59, 0
2, 164133, Note_on_c, 0, 71, 74
2, 164144, Note_on_c, 0, 68, 0
2, 164154, Note_on_c, 0, 68, 63
2, 164405, Note_on_c, 0, 66, 0
2, 164408, Control_c, 0, 64, 0
2, 164409, Note_on_c, 0, 68, 0
2, 164409, Note_on_c, 0, 71, 0
2, 164409, Note_on_c, 0, 69, 0
2, 164410, Note_on_c, 0, 64, 0
2, 164414, Note_on_c, 0, 66, 73
2, 164437, Note_on_c, 0, 50, 47
2, 164439, Note_on_c, 0, 62, 51
2, 164439, Note_on_c, 0, 57, 51
2, 164490, Control_c, 0, 64, 127
2, 164602, Note_on_c, 0, 74, 51
2, 164724, Note_on_c, 0, 78, 59
2, 164851, Note_on_c, 0, 78, 0
2, 164861, Note_on_c, 0, 81, 60
2, 164862, Note_on_c, 0, 78, 51
2, 164966, Note_on_c, 0, 66, 0
2, 164968, Note_on_c, 0, 69, 77
2, 164972, Note_on_c, 0, 66, 75
2, 165112, Note_on_c, 0, 74, 0
2, 165123, Note_on_c, 0, 74, 58
2, 165250, Note_on_c, 0, 78, 0
2, 165261, Note_on_c, 0, 78, 63
2, 165373, Note_on_c, 0, 78, 0
2, 165373, Note_on_c, 0, 81, 0
2, 165382, Note_on_c, 0, 81, 54
2, 165383, Note_on_c, 0, 78, 48
2, 165466, Control_c, 0, 64, 0
2, 165467, Note_on_c, 0, 69, 0
2, 165468, Note_on_c, 0, 74, 0
2, 165468, Note_on_c, 0, 62, 0
2, 165468, Note_on_c, 0, 50, 0
2, 165468, Note_on_c, 0, 81, 0
2, 165468, Note_on_c, 0, 57, 0
2, 165468, Note_on_c, 0, 66, 0
2, 165500, Note_on_c, 0, 68, 75
2, 165507, Note_on_c, 0, 52, 65
2, 165508, Note_on_c, 0, 59, 62
2, 165530, Note_on_c, 0, 76, 39
2, 165534, Control_c, 0, 64, 127
2, 165626, Note_on_c, 0, 76, 0
2, 165637, Note_on_c, 0, 76, 69
2, 165770, Note_on_c, 0, 69, 78
2, 165778, Note_on_c, 0, 66, 74
2, 165785, Note_on_c, 0, 81, 66
2, 165915, Note_on_c, 0, 83, 70
2, 166026, Note_on_c, 0, 68, 0
2, 166032, Note_on_c, 0, 68, 77
2, 166037, Note_on_c, 0, 71, 69
2, 166103, Note_on_c, 0, 76, 0
2, 166110, Note_on_c, 0, 76, 65
2, 166287, Note_on_c, 0, 68, 0
2, 166287, Note_on_c, 0, 71, 0
2, 166287, Note_on_c, 0, 81, 0
2, 166292, Note_on_c, 0, 68, 88
2, 166292, Note_on_c, 0, 71, 74
2, 166296, Note_on_c, 0, 81, 74
2, 166433, Note_on_c, 0, 83, 0
2, 166441, Note_on_c, 0, 83, 69
2, 166547, Control_c, 0, 64, 0
2, 166548, Note_on_c, 0, 78, 0
2, 166549, Note_on_c, 0, 69, 0
2, 166550, Note_on_c, 0, 68, 0
2, 166550, Note_on_c, 0, 81, 0
2, 166550, Note_on_c, 0, 76, 0
2, 166550, Note_on_c, 0, 52, 0
2, 166550, Note_on_c, 0, 59, 0
2, 166551, Note_on_c, 0, 66, 0
2, 166562, Note_on_c, 0, 64, 70
2, 166566, Note_on_c, 0, 54, 67
2, 166568, Note_on_c, 0, 61, 61
2, 166602, Control_c, 0, 64, 127
2, 166717, Note_on_c, 0, 76, 66
2, 166824, Note_on_c, 0, 69, 79
2, 166839, Note_on_c, 0, 66, 72
2, 166861, Note_on_c, 0, 81, 53
2, 166963, Note_on_c, 0, 83, 0
2, 166973, Note_on_c, 0, 83, 71
2, 167078, Note_on_c, 0, 61, 0
2, 167078, Note_on_c, 0, 64, 0
2, 167087, Note_on_c, 0, 64, 73
2, 167087, Note_on_c, 0, 61, 71
2, 167216, Note_on_c, 0, 76, 0
2, 167221, Note_on_c, 0, 76, 68
2, 167324, Note_on_c, 0, 71, 0
2, 167334, Note_on_c, 0, 71, 81
2, 167345, Note_on_c, 0, 68, 79
2, 167347, Note_on_c, 0, 81, 0
2, 167357, Note_on_c, 0, 81, 67
2, 167470, Note_on_c, 0, 66, 0
2, 167470, Note_on_c, 0, 69, 0
2, 167470, Note_on_c, 0, 83, 0
2, 167475, Note_on_c, 0, 69, 79
2, 167475, Note_on_c, 0, 83, 75
2, 167479, Note_on_c, 0, 66, 78
2, 167738, Note_on_c, 0, 76, 0
2, 167738, Note_on_c, 0, 83, 0
2, 167744, Note_on_c, 0, 76, 65
2, 167750, Note_on_c, 0, 83, 50
2, 167854, Note_on_c, 0, 66, 0
2, 167865, Note_on_c, 0, 66, 93
2, 167882, Note_on_c, 0, 80, 74
2, 167992, Note_on_c, 0, 81, 0
2, 168001, Note_on_c, 0, 81, 74
2, 168130, Note_on_c, 0, 69, 0
2, 168135, Note_on_c, 0, 73, 93
2, 168136, Note_on_c, 0, 69, 86
2, 168215, Note_on_c, 0, 76, 0
2, 168220, Note_on_c, 0, 76, 78
2, 168360, Note_on_c, 0, 68, 0
2, 168360, Note_on_c, 0, 71, 0
2, 168368, Note_on_c, 0, 71, 83
2, 168372, Note_on_c, 0, 68, 86
2, 168376, Note_on_c, 0, 80, 0
2, 168386, Note_on_c, 0, 80, 86
2, 168537, Note_on_c, 0, 81, 0
2, 168548, Note_on_c, 0, 81, 80
2, 168617, Note_on_c, 0, 64, 0
2, 168617, Note_on_c, 0, 80, 0
2, 168617, Note_on_c, 0, 83, 0
2, 168617, Note_on_c, 0, 73, 0
2, 168617, Note_on_c, 0, 71, 0
2, 168617, Note_on_c, 0, 61, 0
2, 168618, Note_on_c, 0, 76, 0
2, 168618, Control_c, 0, 64, 0
2, 168637, Note_on_c, 0, 66, 0
2, 168637, Note_on_c, 0, 68, 0
2, 168645, Note_on_c, 0, 54, 0
2, 168645, Note_on_c, 0, 69, 0
2, 168649, Note_on_c, 0, 50, 59
2, 168652, Note_on_c, 0, 54, 70
2, 168655, Note_on_c, 0, 69, 72
2, 168655, Note_on_c, 0, 57, 63
2, 168706, Control_c, 0, 64, 127
2, 168806, Note_on_c, 0, 76, 65
2, 168915, Note_on_c, 0, 66, 90
2, 168938, Note_on_c, 0, 80, 78
2, 169052, Note_on_c, 0, 81, 0
2, 169058, Note_on_c, 0, 81, 74
2, 169190, Note_on_c, 0, 69, 0
2, 169193, Note_on_c, 0, 73, 94
2, 169194, Note_on_c, 0, 69, 80
2, 169305, Note_on_c, 0, 76, 0
2, 169310, Note_on_c, 0, 76, 75
2, 169436, Note_on_c, 0, 80, 0
2, 169439, Note_on_c, 0, 71, 87
2, 169443, Note_on_c, 0, 68, 91
2, 169447, Note_on_c, 0, 80, 82
2, 169474, Note_on_c, 0, 50, 0
2, 169574, Note_on_c, 0, 81, 0
2, 169584, Note_on_c, 0, 81, 79
2, 169682, Control_c, 0, 64, 0
2, 169682, Note_on_c, 0, 54, 0
2, 169683, Note_on_c, 0, 73, 0
2, 169683, Note_on_c, 0, 69, 0
2, 169684, Note_on_c, 0, 66, 0
2, 169684, Note_on_c, 0, 80, 0
2, 169684, Note_on_c, 0, 57, 0
2, 169684, Note_on_c, 0, 76, 0
2, 169702, Note_on_c, 0, 49, 74
2, 169702, Note_on_c, 0, 59, 79
2, 169706, Note_on_c, 0, 56, 72
2, 169712, Note_on_c, 0, 81, 0
2, 169743, Control_c, 0, 64, 127
2, 169835, Note_on_c, 0, 49, 0
2, 169847, Note_on_c, 0, 76, 68
2, 169970, Note_on_c, 0, 64, 87
2, 169977, Note_on_c, 0, 81, 72
2, 170109, Note_on_c, 0, 83, 70
2, 170234, Note_on_c, 0, 64, 0
2, 170238, Note_on_c, 0, 64, 78
2, 170240, Note_on_c, 0, 61, 73
2, 170327, Note_on_c, 0, 76, 0
2, 170333, Note_on_c, 0, 76, 71
2, 170472, Note_on_c, 0, 81, 0
2, 170479, Note_on_c, 0, 81, 69
2, 170488, Note_on_c, 0, 71, 0
2, 170496, Note_on_c, 0, 68, 0
2, 170499, Note_on_c, 0, 71, 82
2, 170504, Note_on_c, 0, 68, 85
2, 170557, Note_on_c, 0, 83, 0
2, 170561, Note_on_c, 0, 83, 76
2, 170760, Note_on_c, 0, 81, 0
2, 170760, Note_on_c, 0, 68, 0
2, 170760, Note_on_c, 0, 76, 0
2, 170761, Note_on_c, 0, 59, 0
2, 170761, Control_c, 0, 64, 0
2, 170761, Note_on_c, 0, 71, 0
2, 170761, Note_on_c, 0, 56, 0
2, 170761, Note_on_c, 0, 83, 0
2, 170764, Note_on_c, 0, 64, 0
2, 170768, Note_on_c, 0, 69, 84
2, 170772, Note_on_c, 0, 61, 0
2, 170775, Note_on_c, 0, 54, 69
2, 170775, Note_on_c, 0, 64, 77
2, 170777, Note_on_c, 0, 61, 73
2, 170833, Control_c, 0, 64, 127
2, 170905, Note_on_c, 0, 76, 73
2, 171033, Note_on_c, 0, 61, 0
2, 171033, Note_on_c, 0, 64, 0
2, 171037, Note_on_c, 0, 68, 86
2, 171039, Note_on_c, 0, 64, 78
2, 171044, Note_on_c, 0, 61, 62
2, 171044, Note_on_c, 0, 80, 75
2, 171174, Note_on_c, 0, 81, 69
2, 171287, Note_on_c, 0, 69, 0
2, 171291, Note_on_c, 0, 69, 81
2, 171293, Note_on_c, 0, 66, 85
2, 171425, Note_on_c, 0, 69, 0
2, 171425, Note_on_c, 0, 76, 0
2, 171434, Note_on_c, 0, 69, 55
2, 171435, Note_on_c, 0, 76, 71
2, 171532, Note_on_c, 0, 68, 0
2, 171537, Note_on_c, 0, 68, 90
2, 171539, Note_on_c, 0, 71, 79
2, 171540, Note_on_c, 0, 80, 0
2, 171547, Note_on_c, 0, 80, 87
2, 171678, Note_on_c, 0, 69, 0
2, 171678, Note_on_c, 0, 81, 0
2, 171684, Note_on_c, 0, 73, 84
2, 171685, Note_on_c, 0, 81, 86
2, 171688, Note_on_c, 0, 69, 67
2, 171701, Note_on_c, 0, 54, 0
2, 171736, Note_on_c, 0, 61, 0
2, 171736, Note_on_c, 0, 68, 0
2, 171736, Note_on_c, 0, 80, 0
2, 171736, Note_on_c, 0, 66, 0
2, 171736, Note_on_c, 0, 64, 0
2, 171736, Note_on_c, 0, 71, 0
2, 171736, Note_on_c, 0, 76, 0
2, 171742, Control_c, 0, 64, 0
2, 171814, Note_on_c, 0, 45, 79
2, 171824, Control_c, 0, 64, 127
2, 171950, Note_on_c, 0, 52, 71
2, 171955, Note_on_c, 0, 69, 0
2, 172055, Note_on_c, 0, 81, 0
2, 172065, Note_on_c, 0, 81, 99
2, 172065, Note_on_c, 0, 57, 74
2, 172078, Note_on_c, 0, 73, 0
2, 172083, Note_on_c, 0, 76, 58
2, 172084, Note_on_c, 0, 73, 81
2, 172221, Note_on_c, 0, 64, 75
2, 172316, Note_on_c, 0, 81, 0
2, 172323, Note_on_c, 0, 81, 102
2, 172323, Note_on_c, 0, 64, 0
2, 172323, Note_on_c, 0, 73, 0
2, 172327, Note_on_c, 0, 64, 66
2, 172327, Note_on_c, 0, 73, 97
2, 172434, Note_on_c, 0, 59, 81
2, 172569, Note_on_c, 0, 76, 0
2, 172576, Note_on_c, 0, 76, 98
2, 172577, Note_on_c, 0, 57, 0
2, 172581, Note_on_c, 0, 68, 97
2, 172586, Note_on_c, 0, 57, 72
2, 172796, Control_c, 0, 64, 0
2, 172797, Note_on_c, 0, 52, 0
2, 172797, Note_on_c, 0, 73, 0
2, 172797, Note_on_c, 0, 45, 0
2, 172797, Note_on_c, 0, 81, 0
2, 172797, Note_on_c, 0, 64, 0
2, 172797, Note_on_c, 0, 68, 0
2, 172797, Note_on_c, 0, 57, 0
2, 172798, Note_on_c, 0, 76, 0
2, 172798, Note_on_c, 0, 59, 0
2, 172842, Note_on_c, 0, 78, 103
2, 172849, Note_on_c, 0, 69, 86
2, 172850, Note_on_c, 0, 66, 94
2, 172850, Note_on_c, 0, 38, 80
2, 172899, Control_c, 0, 64, 127
2, 173110, Note_on_c, 0, 57, 61
2, 173217, Note_on_c, 0, 62, 72
2, 173345, Note_on_c, 0, 78, 0
2, 173349, Note_on_c, 0, 81, 101
2, 173352, Note_on_c, 0, 69, 0
2, 173354, Note_on_c, 0, 50, 76
2, 173356, Note_on_c, 0, 78, 92
2, 173359, Note_on_c, 0, 69, 78
2, 173483, Note_on_c, 0, 57, 0
2, 173493, Note_on_c, 0, 57, 72
2, 173600, Note_on_c, 0, 64, 86
2, 173706, Note_on_c, 0, 69, 0
2, 173717, Note_on_c, 0, 69, 85
2, 173803, Control_c, 0, 64, 0
2, 173804, Note_on_c, 0, 50, 0
2, 173804, Note_on_c, 0, 81, 0
2, 173804, Note_on_c, 0, 62, 0
2, 173804, Note_on_c, 0, 78, 0
2, 173804, Note_on_c, 0, 57, 0
2, 173804, Note_on_c, 0, 66, 0
2, 173805, Note_on_c, 0, 64, 0
2, 173813, Note_on_c, 0, 38, 0
2, 173821, Note_on_c, 0, 69, 0
2, 173857, Note_on_c, 0, 80, 98
2, 173860, Note_on_c, 0, 40, 77
2, 173863, Note_on_c, 0, 71, 78
2, 173864, Note_on_c, 0, 68, 89
2, 173890, Control_c, 0, 64, 127
2, 174127, Note_on_c, 0, 59, 81
2, 174131, Note_on_c, 0, 81, 99
2, 174135, Note_on_c, 0, 78, 89
2, 174138, Note_on_c, 0, 69, 83
2, 174246, Note_on_c, 0, 64, 75
2, 174382, Note_on_c, 0, 71, 0
2, 174382, Note_on_c, 0, 80, 0
2, 174385, Note_on_c, 0, 83, 102
2, 174388, Note_on_c, 0, 52, 84
2, 174388, Note_on_c, 0, 80, 88
2, 174389, Note_on_c, 0, 71, 90
2, 174512, Note_on_c, 0, 59, 0
2, 174518, Note_on_c, 0, 59, 76
2, 174635, Note_on_c, 0, 64, 0
2, 174643, Note_on_c, 0, 64, 78
2, 174643, Note_on_c, 0, 83, 0
2, 174648, Note_on_c, 0, 83, 102
2, 174650, Note_on_c, 0, 80, 0
2, 174654, Note_on_c, 0, 80, 85
2, 174659, Note_on_c, 0, 76, 66
2, 174766, Note_on_c, 0, 71, 0
2, 174774, Note_on_c, 0, 71, 76
2, 174869, Note_on_c, 0, 68, 0
2, 174869, Note_on_c, 0, 69, 0
2, 174869, Note_on_c, 0, 81, 0
2, 174869, Note_on_c, 0, 64, 0
2, 174869, Note_on_c, 0, 59, 0
2, 174870, Note_on_c, 0, 78, 0
2, 174870, Control_c, 0, 64, 0
2, 174873, Note_on_c, 0, 40, 0
2, 174881, Note_on_c, 0, 52, 0
2, 174896, Note_on_c, 0, 76, 0
2, 174908, Note_on_c, 0, 42, 90
2, 174950, Control_c, 0, 64, 127
2, 175175, Note_on_c, 0, 61, 75
2, 175176, Note_on_c, 0, 85, 95
2, 175183, Note_on_c, 0, 73, 83
2, 175184, Note_on_c, 0, 76, 84
2, 175299, Note_on_c, 0, 64, 75
2, 175418, Note_on_c, 0, 83, 0
2, 175425, Note_on_c, 0, 83, 98
2, 175426, Note_on_c, 0, 71, 0
2, 175426, Note_on_c, 0, 80, 0
2, 175435, Note_on_c, 0, 80, 82
2, 175435, Note_on_c, 0, 71, 87
2, 175437, Note_on_c, 0, 54, 80
2, 175564, Note_on_c, 0, 61, 0
2, 175568, Note_on_c, 0, 61, 74
2, 175672, Note_on_c, 0, 64, 0
2, 175680, Note_on_c, 0, 64, 83
2, 175682, Note_on_c, 0, 81, 98
2, 175683, Note_on_c, 0, 54, 0
2, 175695, Note_on_c, 0, 73, 0
2, 175699, Note_on_c, 0, 73, 80
2, 175807, Note_on_c, 0, 69, 77
2, 175881, Control_c, 0, 64, 0
2, 175883, Note_on_c, 0, 64, 0
2, 175883, Note_on_c, 0, 61, 0
2, 175883, Note_on_c, 0, 85, 0
2, 175883, Note_on_c, 0, 71, 0
2, 175883, Note_on_c, 0, 80, 0
2, 175884, Note_on_c, 0, 76, 0
2, 175884, Note_on_c, 0, 83, 0
2, 175887, Note_on_c, 0, 42, 0
2, 175938, Note_on_c, 0, 37, 88
2, 175939, Note_on_c, 0, 65, 63
2, 175956, Control_c, 0, 64, 127
2, 176010, Note_on_c, 0, 65, 0
2, 176202, Note_on_c, 0, 81, 0
2, 176209, Note_on_c, 0, 69, 0
2, 176211, Note_on_c, 0, 81, 97
2, 176217, Note_on_c, 0, 73, 0
2, 176218, Note_on_c, 0, 69, 85
2, 176221, Note_on_c, 0, 59, 67
2, 176223, Note_on_c, 0, 73, 83
2, 176327, Note_on_c, 0, 64, 78
2, 176474, Note_on_c, 0, 80, 97
2, 176479, Note_on_c, 0, 49, 87
2, 176482, Note_on_c, 0, 68, 89
2, 176482, Note_on_c, 0, 76, 73
2, 176591, Note_on_c, 0, 56, 78
2, 176693, Note_on_c, 0, 59, 0
2, 176701, Note_on_c, 0, 59, 83
2, 176716, Note_on_c, 0, 76, 0
2, 176728, Note_on_c, 0, 76, 95
2, 176739, Note_on_c, 0, 68, 0
2, 176743, Note_on_c, 0, 68, 94
2, 176839, Note_on_c, 0, 64, 0
2, 176844, Note_on_c, 0, 64, 66
2, 176916, Note_on_c, 0, 73, 0
2, 176917, Note_on_c, 0, 69, 0
2, 176917, Control_c, 0, 64, 0
2, 176917, Note_on_c, 0, 49, 0
2, 176917, Note_on_c, 0, 80, 0
2, 176917, Note_on_c, 0, 68, 0
2, 176917, Note_on_c, 0, 76, 0
2, 176917, Note_on_c, 0, 56, 0
2, 176917, Note_on_c, 0, 64, 0
2, 176918, Note_on_c, 0, 81, 0
2, 176924, Note_on_c, 0, 37, 0
2, 176931, Note_on_c, 0, 59, 0
2, 176987, Note_on_c, 0, 78, 100
2, 176989, Note_on_c, 0, 66, 87
2, 176991, Note_on_c, 0, 69, 74
2, 176992, Note_on_c, 0, 35, 71
2, 177000, Control_c, 0, 64, 127
2, 177054, Note_on_c, 0, 66, 0
2, 177256, Note_on_c, 0, 85, 101
2, 177259, Note_on_c, 0, 73, 85
2, 177260, Note_on_c, 0, 66, 70
2, 177263, Note_on_c, 0, 81, 72
2, 177268, Note_on_c, 0, 54, 68
2, 177286, Note_on_c, 0, 63, 38
2, 177292, Note_on_c, 0, 63, 0
2, 177362, Note_on_c, 0, 57, 69
2, 177505, Note_on_c, 0, 47, 88
2, 177623, Note_on_c, 0, 54, 0
2, 177632, Note_on_c, 0, 54, 79
2, 177738, Note_on_c, 0, 57, 0
2, 177748, Note_on_c, 0, 57, 80
2, 177863, Note_on_c, 0, 62, 75
2, 177884, Note_on_c, 0, 78, 0
2, 177888, Note_on_c, 0, 78, 85
2, 177891, Note_on_c, 0, 66, 0
2, 177897, Note_on_c, 0, 66, 78
2, 177945, Note_on_c, 0, 69, 0
2, 177951, Note_on_c, 0, 85, 0
2, 177951, Note_on_c, 0, 54, 0
2, 177951, Note_on_c, 0, 73, 0
2, 177952, Note_on_c, 0, 81, 0
2, 177952, Control_c, 0, 64, 0
2, 177952, Note_on_c, 0, 47, 0
2, 177952, Note_on_c, 0, 78, 0
2, 177953, Note_on_c, 0, 66, 0
2, 177953, Note_on_c, 0, 62, 0
2, 177960, Note_on_c, 0, 57, 0
2, 177968, Note_on_c, 0, 35, 0
2, 178018, Note_on_c, 0, 37, 77
2, 178018, Note_on_c, 0, 76, 100
2, 178022, Control_c, 0, 64, 127
2, 178023, Note_on_c, 0, 64, 86
2, 178030, Note_on_c, 0, 68, 81
2, 178261, Note_on_c, 0, 56, 68
2, 178278, Note_on_c, 0, 83, 97
2, 178296, Note_on_c, 0, 71, 76
2, 178301, Note_on_c, 0, 80, 85
2, 178395, Note_on_c, 0, 59, 72
2, 178533, Note_on_c, 0, 49, 87
2, 178652, Note_on_c, 0, 56, 0
2, 178662, Note_on_c, 0, 56, 71
2, 178798, Note_on_c, 0, 59, 0
2, 178798, Note_on_c, 0, 68, 0
2, 178798, Note_on_c, 0, 80, 0
2, 178803, Note_on_c, 0, 80, 91
2, 178804, Note_on_c, 0, 59, 73
2, 178808, Note_on_c, 0, 68, 84
2, 178905, Note_on_c, 0, 64, 0
2, 178910, Note_on_c, 0, 64, 61
2, 178920, Note_on_c, 0, 81, 102
2, 178933, Note_on_c, 0, 69, 78
2, 178934, Note_on_c, 0, 73, 83
2, 178946, Control_c, 0, 64, 0
2, 178955, Note_on_c, 0, 68, 0
2, 178955, Note_on_c, 0, 56, 0
2, 178955, Note_on_c, 0, 59, 0
2, 178955, Note_on_c, 0, 64, 0
2, 178956, Note_on_c, 0, 49, 0
2, 178956, Note_on_c, 0, 71, 0
2, 178956, Note_on_c, 0, 80, 0
2, 178956, Note_on_c, 0, 37, 0
2, 178956, Note_on_c, 0, 83, 0
2, 178956, Note_on_c, 0, 76, 0
2, 179036, Control_c, 0, 64, 127
2, 179052, Note_on_c, 0, 38, 86
2, 179333, Note_on_c, 0, 59, 65
2, 179336, Note_on_c, 0, 78, 83
2, 179447, Note_on_c, 0, 64, 62
2, 179463, Note_on_c, 0, 71, 63
2, 179570, Note_on_c, 0, 50, 50
2, 179597, Note_on_c, 0, 66, 69
2, 179712, Note_on_c, 0, 71, 0
2, 179717, Note_on_c, 0, 71, 63
2, 179723, Note_on_c, 0, 57, 58
2, 179842, Note_on_c, 0, 59, 0
2, 179842, Note_on_c, 0, 73, 0
2, 179852, Note_on_c, 0, 73, 74
2, 179852, Note_on_c, 0, 59, 64
2, 179973, Note_on_c, 0, 64, 0
2, 179978, Note_on_c, 0, 76, 77
2, 179982, Note_on_c, 0, 64, 63
2, 180103, Note_on_c, 0, 66, 0
2, 180111, Note_on_c, 0, 50, 0
2, 180114, Note_on_c, 0, 66, 81
2, 180119, Note_on_c, 0, 50, 61
2, 180241, Note_on_c, 0, 73, 0
2, 180246, Note_on_c, 0, 73, 67
2, 180249, Note_on_c, 0, 57, 0
2, 180249, Note_on_c, 0, 69, 0
2, 180255, Note_on_c, 0, 69, 58
2, 180260, Note_on_c, 0, 57, 59
2, 180380, Note_on_c, 0, 59, 0
2, 180380, Note_on_c, 0, 78, 0
2, 180387, Note_on_c, 0, 78, 82
2, 180391, Note_on_c, 0, 59, 63
2, 180510, Note_on_c, 0, 64, 0
2, 180510, Note_on_c, 0, 71, 0
2, 180516, Note_on_c, 0, 71, 69
2, 180518, Note_on_c, 0, 64, 66
2, 180641, Note_on_c, 0, 50, 0
2, 180641, Note_on_c, 0, 66, 0
2, 180647, Note_on_c, 0, 50, 74
2, 180650, Note_on_c, 0, 66, 85
2, 180771, Note_on_c, 0, 71, 0
2, 180779, Note_on_c, 0, 57, 0
2, 180782, Note_on_c, 0, 71, 74
2, 180784, Note_on_c, 0, 57, 65
2, 180894, Note_on_c, 0, 59, 0
2, 180902, Note_on_c, 0, 73, 0
2, 180903, Note_on_c, 0, 59, 72
2, 180906, Note_on_c, 0, 73, 80
2, 180994, Note_on_c, 0, 64, 0
2, 181001, Note_on_c, 0, 64, 83
2, 181017, Note_on_c, 0, 76, 0
2, 181024, Note_on_c, 0, 76, 88
2, 181096, Note_on_c, 0, 69, 0
2, 181097, Note_on_c, 0, 66, 0
2, 181097, Note_on_c, 0, 78, 0
2, 181097, Note_on_c, 0, 64, 0
2, 181097, Note_on_c, 0, 50, 0
2, 181097, Note_on_c, 0, 81, 0
2, 181097, Note_on_c, 0, 73, 0
2, 181097, Note_on_c, 0, 59, 0
2, 181097, Note_on_c, 0, 57, 0
2, 181097, Note_on_c, 0, 71, 0
2, 181098, Note_on_c, 0, 38, 0
2, 181099, Control_c, 0, 64, 0
2, 181154, Note_on_c, 0, 40, 86
2, 181156, Note_on_c, 0, 66, 84
2, 181178, Control_c, 0, 64, 127
2, 181278, Note_on_c, 0, 76, 0
2, 181283, Note_on_c, 0, 73, 82
2, 181285, Note_on_c, 0, 76, 65
2, 181422, Note_on_c, 0, 78, 90
2, 181427, Note_on_c, 0, 59, 77
2, 181428, Note_on_c, 0, 71, 64
2, 181539, Note_on_c, 0, 71, 0
2, 181545, Note_on_c, 0, 71, 78
2, 181545, Note_on_c, 0, 64, 80
2, 181662, Note_on_c, 0, 66, 0
2, 181667, Note_on_c, 0, 52, 88
2, 181671, Note_on_c, 0, 66, 88
2, 181793, Note_on_c, 0, 71, 0
2, 181801, Note_on_c, 0, 71, 77
2, 181802, Note_on_c, 0, 57, 74
2, 181923, Note_on_c, 0, 73, 0
2, 181931, Note_on_c, 0, 59, 0
2, 181934, Note_on_c, 0, 73, 86
2, 181936, Note_on_c, 0, 59, 65
2, 182054, Note_on_c, 0, 64, 0
2, 182054, Note_on_c, 0, 76, 0
2, 182064, Note_on_c, 0, 76, 94
2, 182064, Note_on_c, 0, 64, 88
2, 182184, Note_on_c, 0, 52, 0
2, 182184, Note_on_c, 0, 66, 0
2, 182194, Note_on_c, 0, 66, 97
2, 182194, Note_on_c, 0, 52, 98
2, 182307, Note_on_c, 0, 57, 0
2, 182307, Note_on_c, 0, 73, 0
2, 182314, Note_on_c, 0, 69, 80
2, 182318, Note_on_c, 0, 73, 88
2, 182318, Note_on_c, 0, 57, 89
2, 182438, Note_on_c, 0, 59, 0
2, 182438, Note_on_c, 0, 78, 0
2, 182445, Note_on_c, 0, 59, 79
2, 182448, Note_on_c, 0, 78, 100
2, 182545, Note_on_c, 0, 64, 0
2, 182551, Note_on_c, 0, 64, 87
2, 182561, Note_on_c, 0, 71, 0
2, 182570, Note_on_c, 0, 71, 90
2, 182699, Note_on_c, 0, 40, 0
2, 182699, Note_on_c, 0, 52, 0
2, 182699, Note_on_c, 0, 64, 0
2, 182703, Note_on_c, 0, 52, 112
2, 182704, Note_on_c, 0, 40, 100
2, 182709, Note_on_c, 0, 66, 0
2, 182709, Note_on_c, 0, 64, 97
2, 182709, Note_on_c, 0, 47, 102
2, 182830, Note_on_c, 0, 40, 0
2, 182830, Note_on_c, 0, 52, 0
2, 182830, Note_on_c, 0, 59, 0
2, 182830, Note_on_c, 0, 64, 0
2, 182830, Note_on_c, 0, 76, 0
2, 182834, Note_on_c, 0, 40, 90
2, 182835, Note_on_c, 0, 52, 98
2, 182838, Note_on_c, 0, 64, 88
2, 182840, Note_on_c, 0, 59, 83
2, 182841, Note_on_c, 0, 76, 85
2, 182845, Note_on_c, 0, 71, 0
2, 182850, Note_on_c, 0, 71, 73
2, 182960, Note_on_c, 0, 73, 0
2, 182966, Note_on_c, 0, 73, 85
2, 183075, Note_on_c, 0, 76, 0
2, 183085, Note_on_c, 0, 76, 101
2, 183146, Note_on_c, 0, 40, 0
2, 183147, Note_on_c, 0, 59, 0
2, 183147, Note_on_c, 0, 47, 0
2, 183147, Note_on_c, 0, 57, 0
2, 183147, Note_on_c, 0, 71, 0
2, 183147, Note_on_c, 0, 64, 0
2, 183147, Note_on_c, 0, 73, 0
2, 183148, Control_c, 0, 64, 0
2, 183148, Note_on_c, 0, 78, 0
2, 183148, Note_on_c, 0, 76, 0
2, 183168, Note_on_c, 0, 52, 0
2, 183168, Note_on_c, 0, 69, 0
2, 183222, Note_on_c, 0, 54, 109
2, 183225, Note_on_c, 0, 49, 98
2, 183227, Note_on_c, 0, 42, 107
2, 183260, Control_c, 0, 64, 127
2, 183363, Note_on_c, 0, 71, 76
2, 183410, Note_on_c, 0, 73, 78
2, 183455, Note_on_c, 0, 76, 88
2, 183498, Note_on_c, 0, 78, 63
2, 183521, Note_on_c, 0, 54, 0
2, 183527, Note_on_c, 0, 82, 70
2, 183531, Note_on_c, 0, 54, 72
2, 183536, Note_on_c, 0, 82, 0
2, 183573, Note_on_c, 0, 83, 71
2, 183626, Note_on_c, 0, 85, 83
2, 183641, Note_on_c, 0, 59, 68
2, 183733, Note_on_c, 0, 61, 95
2, 183740, Note_on_c, 0, 66, 105
2, 183763, Note_on_c, 0, 88, 75
2, 183813, Note_on_c, 0, 85, 0
2, 183817, Note_on_c, 0, 85, 84
2, 183851, Note_on_c, 0, 71, 0
2, 183851, Note_on_c, 0, 83, 0
2, 183861, Note_on_c, 0, 83, 68
2, 183861, Note_on_c, 0, 71, 61
2, 183936, Note_on_c, 0, 78, 0
2, 183941, Note_on_c, 0, 78, 79
2, 183970, Note_on_c, 0, 87, 75
2, 183978, Note_on_c, 0, 75, 77
2, 183982, Note_on_c, 0, 54, 0
2, 183992, Note_on_c, 0, 54, 64
2, 184035, Note_on_c, 0, 76, 0
2, 184043, Note_on_c, 0, 76, 68
2, 184051, Note_on_c, 0, 73, 0
2, 184057, Note_on_c, 0, 73, 80
2, 184128, Note_on_c, 0, 42, 0
2, 184128, Note_on_c, 0, 71, 0
2, 184138, Note_on_c, 0, 42, 77
2, 184138, Note_on_c, 0, 71, 81
2, 184243, Note_on_c, 0, 61, 0
2, 184243, Note_on_c, 0, 66, 0
2, 184250, Note_on_c, 0, 61, 75
2, 184253, Note_on_c, 0, 66, 101
2, 184381, Note_on_c, 0, 54, 0
2, 184386, Note_on_c, 0, 54, 72
2, 184389, Note_on_c, 0, 71, 0
2, 184393, Note_on_c, 0, 71, 67
2, 184458, Note_on_c, 0, 73, 0
2, 184464, Note_on_c, 0, 73, 79
2, 184504, Note_on_c, 0, 76, 0
2, 184510, Note_on_c, 0, 76, 73
2, 184542, Note_on_c, 0, 66, 0
2, 184549, Note_on_c, 0, 66, 67
2, 184550, Note_on_c, 0, 78, 0
2, 184555, Note_on_c, 0, 78, 72
2, 184619, Note_on_c, 0, 59, 0
2, 184627, Note_on_c, 0, 76, 0
2, 184627, Note_on_c, 0, 83, 0
2, 184627, Note_on_c, 0, 59, 70
2, 184633, Note_on_c, 0, 76, 53
2, 184634, Note_on_c, 0, 83, 63
2, 184680, Note_on_c, 0, 85, 0
2, 184691, Note_on_c, 0, 85, 78
2, 184750, Note_on_c, 0, 61, 0
2, 184750, Note_on_c, 0, 66, 0
2, 184758, Note_on_c, 0, 66, 109
2, 184760, Note_on_c, 0, 61, 91
2, 184766, Note_on_c, 0, 90, 98
2, 184803, Note_on_c, 0, 88, 0
2, 184810, Note_on_c, 0, 88, 68
2, 184857, Note_on_c, 0, 85, 0
2, 184862, Note_on_c, 0, 85, 85
2, 184888, Note_on_c, 0, 83, 0
2, 184898, Note_on_c, 0, 83, 62
2, 184980, Note_on_c, 0, 78, 0
2, 184989, Note_on_c, 0, 78, 82
2, 185034, Note_on_c, 0, 59, 0
2, 185041, Note_on_c, 0, 59, 83
2, 185049, Note_on_c, 0, 76, 0
2, 185057, Note_on_c, 0, 76, 68
2, 185080, Note_on_c, 0, 73, 0
2, 185090, Note_on_c, 0, 73, 65
2, 185126, Note_on_c, 0, 54, 0
2, 185136, Note_on_c, 0, 54, 71
2, 185141, Note_on_c, 0, 71, 0
2, 185152, Note_on_c, 0, 71, 82
2, 185183, Note_on_c, 0, 54, 0
2, 185183, Note_on_c, 0, 87, 0
2, 185183, Note_on_c, 0, 49, 0
2, 185183, Note_on_c, 0, 88, 0
2, 185183, Note_on_c, 0, 85, 0
2, 185183, Note_on_c, 0, 66, 0
2, 185184, Note_on_c, 0, 61, 0
2, 185184, Note_on_c, 0, 78, 0
2, 185184, Note_on_c, 0, 90, 0
2, 185184, Note_on_c, 0, 83, 0
2, 185184, Note_on_c, 0, 73, 0
2, 185184, Note_on_c, 0, 75, 0
2, 185184, Note_on_c, 0, 76, 0
2, 185184, Note_on_c, 0, 71, 0
2, 185184, Note_on_c, 0, 59, 0
2, 185186, Control_c, 0, 64, 0
2, 185203, Note_on_c, 0, 42, 0
2, 185261, Note_on_c, 0, 66, 102
2, 185264, Control_c, 0, 64, 127
2, 185274, Note_on_c, 0, 47, 83
2, 185275, Note_on_c, 0, 52, 98
2, 185276, Note_on_c, 0, 40, 86
2, 185392, Note_on_c, 0, 71, 76
2, 185467, Note_on_c, 0, 73, 69
2, 185509, Note_on_c, 0, 76, 84
2, 185541, Note_on_c, 0, 52, 0
2, 185546, Note_on_c, 0, 78, 77
2, 185552, Note_on_c, 0, 52, 63
2, 185636, Note_on_c, 0, 83, 73
2, 185648, Note_on_c, 0, 59, 75
2, 185705, Note_on_c, 0, 85, 76
2, 185787, Note_on_c, 0, 90, 91
2, 185789, Note_on_c, 0, 69, 97
2, 185790, Note_on_c, 0, 64, 97
2, 185797, Note_on_c, 0, 88, 80
2, 185863, Note_on_c, 0, 85, 0
2, 185867, Note_on_c, 0, 85, 84
2, 185902, Note_on_c, 0, 83, 0
2, 185908, Note_on_c, 0, 83, 62
2, 186048, Note_on_c, 0, 76, 0
2, 186055, Note_on_c, 0, 52, 0
2, 186057, Note_on_c, 0, 76, 82
2, 186059, Note_on_c, 0, 52, 92
2, 186101, Note_on_c, 0, 73, 0
2, 186107, Note_on_c, 0, 73, 63
2, 186170, Note_on_c, 0, 71, 0
2, 186178, Note_on_c, 0, 40, 0
2, 186181, Note_on_c, 0, 71, 81
2, 186188, Note_on_c, 0, 40, 84
2, 186306, Note_on_c, 0, 68, 107
2, 186432, Note_on_c, 0, 40, 0
2, 186436, Note_on_c, 0, 40, 75
2, 186447, Note_on_c, 0, 71, 0
2, 186458, Note_on_c, 0, 71, 73
2, 186516, Note_on_c, 0, 73, 0
2, 186523, Note_on_c, 0, 73, 78
2, 186554, Note_on_c, 0, 52, 0
2, 186562, Note_on_c, 0, 76, 0
2, 186563, Note_on_c, 0, 52, 80
2, 186566, Note_on_c, 0, 76, 79
2, 186593, Note_on_c, 0, 78, 0
2, 186600, Note_on_c, 0, 78, 78
2, 186685, Note_on_c, 0, 59, 0
2, 186685, Note_on_c, 0, 83, 0
2, 186689, Note_on_c, 0, 83, 76
2, 186693, Note_on_c, 0, 47, 0
2, 186694, Note_on_c, 0, 59, 84
2, 186697, Note_on_c, 0, 47, 65
2, 186762, Note_on_c, 0, 85, 0
2, 186773, Note_on_c, 0, 85, 71
2, 186808, Note_on_c, 0, 64, 0
2, 186812, Note_on_c, 0, 64, 100
2, 186816, Note_on_c, 0, 52, 0
2, 186823, Note_on_c, 0, 52, 75
2, 186830, Note_on_c, 0, 89, 78
2, 186923, Note_on_c, 0, 85, 0
2, 186931, Note_on_c, 0, 59, 0
2, 186933, Note_on_c, 0, 85, 81
2, 186937, Note_on_c, 0, 59, 79
2, 186990, Note_on_c, 0, 86, 38
2, 187054, Note_on_c, 0, 52, 0
2, 187064, Note_on_c, 0, 52, 90
2, 187069, Note_on_c, 0, 78, 0
2, 187077, Note_on_c, 0, 40, 0
2, 187079, Note_on_c, 0, 78, 73
2, 187086, Note_on_c, 0, 40, 67
2, 187146, Note_on_c, 0, 76, 0
2, 187157, Note_on_c, 0, 76, 69
2, 187165, Note_on_c, 0, 49, 66
2, 187169, Note_on_c, 0, 40, 0
2, 187169, Note_on_c, 0, 49, 0
2, 187176, Note_on_c, 0, 73, 0
2, 187177, Note_on_c, 0, 40, 77
2, 187180, Note_on_c, 0, 73, 73
2, 187223, Note_on_c, 0, 71, 0
2, 187233, Note_on_c, 0, 71, 78
2, 187274, Note_on_c, 0, 90, 0
2, 187274, Note_on_c, 0, 88, 0
2, 187275, Note_on_c, 0, 69, 0
2, 187275, Control_c, 0, 64, 0
2, 187275, Note_on_c, 0, 78, 0
2, 187275, Note_on_c, 0, 85, 0
2, 187276, Note_on_c, 0, 83, 0
2, 187276, Note_on_c, 0, 68, 0
2, 187276, Note_on_c, 0, 66, 0
2, 187276, Note_on_c, 0, 73, 0
2, 187276, Note_on_c, 0, 47, 0
2, 187276, Note_on_c, 0, 89, 0
2, 187276, Note_on_c, 0, 71, 0
2, 187276, Note_on_c, 0, 59, 0
2, 187277, Note_on_c, 0, 64, 0
2, 187277, Note_on_c, 0, 40, 0
2, 187284, Note_on_c, 0, 86, 0
2, 187292, Note_on_c, 0, 52, 0
2, 187299, Note_on_c, 0, 76, 0
2, 187335, Note_on_c, 0, 50, 99
2, 187339, Note_on_c, 0, 38, 105
2, 187341, Note_on_c, 0, 45, 87
2, 187368, Control_c, 0, 64, 127
2, 187500, Note_on_c, 0, 71, 64
2, 187519, Note_on_c, 0, 73, 59
2, 187560, Note_on_c, 0, 76, 77
2, 187603, Note_on_c, 0, 78, 69
2, 187607, Note_on_c, 0, 50, 0
2, 187611, Note_on_c, 0, 50, 62
2, 187679, Note_on_c, 0, 83, 65
2, 187720, Note_on_c, 0, 57, 73
2, 187748, Note_on_c, 0, 85, 79
2, 187827, Note_on_c, 0, 90, 71
2, 187837, Note_on_c, 0, 90, 0
2, 187859, Note_on_c, 0, 66, 106
2, 187863, Note_on_c, 0, 62, 89
2, 187864, Note_on_c, 0, 88, 79
2, 187914, Note_on_c, 0, 85, 0
2, 187919, Note_on_c, 0, 85, 83
2, 187952, Note_on_c, 0, 83, 0
2, 187959, Note_on_c, 0, 83, 69
2, 188005, Note_on_c, 0, 74, 51
2, 188044, Note_on_c, 0, 78, 0
2, 188053, Note_on_c, 0, 78, 77
2, 188090, Note_on_c, 0, 76, 0
2, 188097, Note_on_c, 0, 76, 78
2, 188129, Note_on_c, 0, 50, 0
2, 188137, Note_on_c, 0, 50, 88
2, 188152, Note_on_c, 0, 73, 0
2, 188157, Note_on_c, 0, 73, 75
2, 188229, Note_on_c, 0, 71, 0
2, 188240, Note_on_c, 0, 71, 75
2, 188252, Note_on_c, 0, 38, 0
2, 188260, Note_on_c, 0, 38, 82
2, 188367, Note_on_c, 0, 66, 0
2, 188373, Note_on_c, 0, 66, 101
2, 188444, Note_on_c, 0, 45, 0
2, 188450, Note_on_c, 0, 45, 66
2, 188505, Note_on_c, 0, 50, 0
2, 188505, Note_on_c, 0, 71, 0
2, 188514, Note_on_c, 0, 71, 69
2, 188516, Note_on_c, 0, 50, 64
2, 188597, Note_on_c, 0, 73, 0
2, 188602, Note_on_c, 0, 73, 79
2, 188628, Note_on_c, 0, 50, 0
2, 188632, Note_on_c, 0, 50, 58
2, 188636, Note_on_c, 0, 76, 0
2, 188641, Note_on_c, 0, 76, 74
2, 188674, Note_on_c, 0, 78, 0
2, 188678, Note_on_c, 0, 78, 72
2, 188751, Note_on_c, 0, 57, 0
2, 188751, Note_on_c, 0, 83, 0
2, 188756, Note_on_c, 0, 57, 76
2, 188761, Note_on_c, 0, 83, 66
2, 188835, Note_on_c, 0, 85, 0
2, 188840, Note_on_c, 0, 85, 75
2, 188881, Note_on_c, 0, 62, 0
2, 188881, Note_on_c, 0, 66, 0
2, 188886, Note_on_c, 0, 66, 105
2, 188887, Note_on_c, 0, 62, 88
2, 188896, Note_on_c, 0, 90, 97
2, 188935, Note_on_c, 0, 88, 0
2, 188947, Note_on_c, 0, 88, 78
2, 188981, Note_on_c, 0, 85, 0
2, 188987, Note_on_c, 0, 85, 83
2, 189004, Note_on_c, 0, 66, 0
2, 189012, Note_on_c, 0, 83, 0
2, 189015, Note_on_c, 0, 66, 75
2, 189019, Note_on_c, 0, 78, 0
2, 189021, Note_on_c, 0, 83, 71
2, 189143, Note_on_c, 0, 57, 0
2, 189152, Note_on_c, 0, 57, 72
2, 189177, Note_on_c, 0, 77, 62
2, 189235, Note_on_c, 0, 73, 0
2, 189242, Note_on_c, 0, 73, 70
2, 189242, Note_on_c, 0, 50, 0
2, 189242, Note_on_c, 0, 76, 0
2, 189248, Note_on_c, 0, 76, 60
2, 189252, Note_on_c, 0, 50, 69
2, 189288, Note_on_c, 0, 71, 0
2, 189299, Note_on_c, 0, 71, 71
2, 189330, Control_c, 0, 64, 0
2, 189330, Note_on_c, 0, 90, 0
2, 189331, Note_on_c, 0, 50, 0
2, 189331, Note_on_c, 0, 62, 0
2, 189331, Note_on_c, 0, 74, 0
2, 189331, Note_on_c, 0, 83, 0
2, 189331, Note_on_c, 0, 57, 0
2, 189331, Note_on_c, 0, 66, 0
2, 189331, Note_on_c, 0, 71, 0
2, 189331, Note_on_c, 0, 76, 0
2, 189332, Note_on_c, 0, 73, 0
2, 189335, Note_on_c, 0, 77, 0
2, 189350, Note_on_c, 0, 85, 0
2, 189350, Note_on_c, 0, 88, 0
2, 189358, Note_on_c, 0, 38, 0
2, 189381, Note_on_c, 0, 45, 0
2, 189385, Note_on_c, 0, 66, 99
2, 189389, Note_on_c, 0, 38, 94
2, 189392, Note_on_c, 0, 45, 83
2, 189404, Control_c, 0, 64, 127
2, 189502, Note_on_c, 0, 71, 73
2, 189583, Note_on_c, 0, 73, 79
2, 189625, Note_on_c, 0, 76, 79
2, 189660, Note_on_c, 0, 78, 86
2, 189692, Note_on_c, 0, 50, 79
2, 189759, Note_on_c, 0, 83, 64
2, 189797, Note_on_c, 0, 57, 74
2, 189823, Note_on_c, 0, 85, 79
2, 189898, Note_on_c, 0, 90, 93
2, 189898, Note_on_c, 0, 64, 98
2, 189972, Note_on_c, 0, 85, 0
2, 189982, Note_on_c, 0, 85, 83
2, 190010, Note_on_c, 0, 83, 0
2, 190021, Note_on_c, 0, 83, 66
2, 190103, Note_on_c, 0, 78, 0
2, 190112, Note_on_c, 0, 78, 74
2, 190149, Note_on_c, 0, 50, 0
2, 190149, Note_on_c, 0, 57, 0
2, 190149, Note_on_c, 0, 76, 0
2, 190154, Note_on_c, 0, 50, 70
2, 190155, Note_on_c, 0, 76, 68
2, 190158, Note_on_c, 0, 57, 68
2, 190210, Note_on_c, 0, 73, 0
2, 190221, Note_on_c, 0, 73, 74
2, 190287, Note_on_c, 0, 71, 0
2, 190293, Note_on_c, 0, 71, 83
2, 190294, Note_on_c, 0, 40, 86
2, 190306, Note_on_c, 0, 64, 0
2, 190307, Control_c, 0, 64, 0
2, 190307, Note_on_c, 0, 45, 0
2, 190307, Note_on_c, 0, 76, 0
2, 190308, Note_on_c, 0, 50, 0
2, 190308, Note_on_c, 0, 83, 0
2, 190308, Note_on_c, 0, 57, 0
2, 190309, Note_on_c, 0, 66, 0
2, 190311, Note_on_c, 0, 78, 0
2, 190318, Note_on_c, 0, 85, 0
2, 190318, Note_on_c, 0, 90, 0
2, 190325, Note_on_c, 0, 38, 0
2, 190333, Note_on_c, 0, 73, 0
2, 190356, Control_c, 0, 64, 127
2, 190409, Note_on_c, 0, 66, 102
2, 190525, Note_on_c, 0, 40, 0
2, 190525, Note_on_c, 0, 71, 0
2, 190536, Note_on_c, 0, 71, 78
2, 190536, Note_on_c, 0, 40, 73
2, 190609, Note_on_c, 0, 73, 78
2, 190651, Note_on_c, 0, 52, 85
2, 190654, Note_on_c, 0, 76, 79
2, 190690, Note_on_c, 0, 78, 74
2, 190780, Note_on_c, 0, 59, 81
2, 190781, Note_on_c, 0, 83, 69
2, 190852, Note_on_c, 0, 85, 73
2, 190909, Note_on_c, 0, 64, 97
2, 190912, Note_on_c, 0, 69, 93
2, 190913, Note_on_c, 0, 90, 90
2, 190963, Note_on_c, 0, 85, 0
2, 190970, Note_on_c, 0, 85, 88
2, 191009, Note_on_c, 0, 59, 0
2, 191014, Note_on_c, 0, 59, 81
2, 191024, Note_on_c, 0, 83, 0
2, 191028, Note_on_c, 0, 83, 54
2, 191109, Note_on_c, 0, 78, 0
2, 191116, Note_on_c, 0, 78, 77
2, 191155, Note_on_c, 0, 52, 0
2, 191155, Note_on_c, 0, 76, 0
2, 191161, Note_on_c, 0, 52, 83
2, 191161, Note_on_c, 0, 64, 0
2, 191162, Note_on_c, 0, 76, 76
2, 191216, Note_on_c, 0, 73, 0
2, 191225, Note_on_c, 0, 73, 70
2, 191270, Note_on_c, 0, 40, 0
2, 191275, Note_on_c, 0, 40, 80
2, 191278, Note_on_c, 0, 71, 0
2, 191288, Note_on_c, 0, 71, 68
2, 191381, Note_on_c, 0, 69, 0
2, 191381, Note_on_c, 0, 78, 0
2, 191382, Note_on_c, 0, 73, 0
2, 191382, Note_on_c, 0, 59, 0
2, 191382, Note_on_c, 0, 40, 0
2, 191382, Control_c, 0, 64, 0
2, 191382, Note_on_c, 0, 76, 0
2, 191382, Note_on_c, 0, 90, 0
2, 191382, Note_on_c, 0, 85, 0
2, 191382, Note_on_c, 0, 66, 0
2, 191393, Note_on_c, 0, 52, 0
2, 191393, Note_on_c, 0, 83, 0
2, 191441, Note_on_c, 0, 78, 102
2, 191443, Note_on_c, 0, 49, 85
2, 191443, Note_on_c, 0, 42, 93
2, 191462, Control_c, 0, 64, 127
2, 191585, Note_on_c, 0, 71, 0
2, 191595, Note_on_c, 0, 71, 50
2, 191712, Note_on_c, 0, 73, 74
2, 191713, Note_on_c, 0, 54, 67
2, 191821, Note_on_c, 0, 76, 97
2, 191832, Note_on_c, 0, 59, 79
2, 191951, Note_on_c, 0, 66, 101
2, 191961, Note_on_c, 0, 71, 0
2, 191969, Note_on_c, 0, 49, 0
2, 191972, Note_on_c, 0, 71, 77
2, 191979, Note_on_c, 0, 49, 43
2, 192092, Note_on_c, 0, 54, 0
2, 192092, Note_on_c, 0, 73, 0
2, 192097, Note_on_c, 0, 54, 43
2, 192099, Note_on_c, 0, 73, 60
2, 192207, Note_on_c, 0, 76, 0
2, 192218, Note_on_c, 0, 76, 84
2, 192245, Note_on_c, 0, 59, 0
2, 192255, Note_on_c, 0, 59, 62
2, 192337, Note_on_c, 0, 71, 0
2, 192341, Note_on_c, 0, 71, 71
2, 192359, Note_on_c, 0, 61, 77
2, 192460, Note_on_c, 0, 76, 0
2, 192466, Note_on_c, 0, 76, 73
2, 192468, Note_on_c, 0, 66, 0
2, 192468, Note_on_c, 0, 73, 0
2, 192472, Note_on_c, 0, 73, 97
2, 192476, Note_on_c, 0, 66, 97
2, 192606, Note_on_c, 0, 54, 0
2, 192606, Note_on_c, 0, 71, 0
2, 192615, Note_on_c, 0, 71, 66
2, 192618, Note_on_c, 0, 54, 63
2, 192729, Note_on_c, 0, 73, 0
2, 192734, Note_on_c, 0, 73, 79
2, 192752, Note_on_c, 0, 59, 0
2, 192761, Note_on_c, 0, 59, 66
2, 192852, Note_on_c, 0, 76, 0
2, 192857, Note_on_c, 0, 76, 97
2, 192860, Note_on_c, 0, 61, 0
2, 192867, Note_on_c, 0, 61, 81
2, 192936, Note_on_c, 0, 71, 0
2, 192941, Note_on_c, 0, 71, 43
2, 192990, Note_on_c, 0, 66, 0
2, 192998, Note_on_c, 0, 71, 0
2, 193000, Note_on_c, 0, 66, 102
2, 193002, Note_on_c, 0, 71, 80
2, 193121, Note_on_c, 0, 54, 0
2, 193121, Note_on_c, 0, 73, 0
2, 193131, Note_on_c, 0, 54, 82
2, 193131, Note_on_c, 0, 73, 85
2, 193251, Note_on_c, 0, 59, 0
2, 193251, Note_on_c, 0, 76, 0
2, 193261, Note_on_c, 0, 59, 70
2, 193262, Note_on_c, 0, 76, 87
2, 193351, Note_on_c, 0, 61, 0
2, 193357, Note_on_c, 0, 61, 76
2, 193367, Note_on_c, 0, 71, 0
2, 193378, Note_on_c, 0, 71, 79
2, 193460, Note_on_c, 0, 54, 0
2, 193460, Note_on_c, 0, 49, 0
2, 193461, Note_on_c, 0, 71, 0
2, 193461, Note_on_c, 0, 73, 0
2, 193461, Note_on_c, 0, 66, 0
2, 193461, Note_on_c, 0, 61, 0
2, 193461, Note_on_c, 0, 78, 0
2, 193461, Note_on_c, 0, 76, 0
2, 193462, Control_c, 0, 64, 0
2, 193474, Note_on_c, 0, 42, 0
2, 193482, Note_on_c, 0, 59, 0
2, 193508, Note_on_c, 0, 47, 85
2, 193508, Note_on_c, 0, 78, 102
2, 193508, Note_on_c, 0, 52, 94
2, 193509, Note_on_c, 0, 40, 86
2, 193514, Note_on_c, 0, 66, 97
2, 193520, Control_c, 0, 64, 127
2, 193635, Note_on_c, 0, 71, 79
2, 193786, Note_on_c, 0, 73, 77
2, 193792, Note_on_c, 0, 59, 65
2, 193900, Note_on_c, 0, 76, 97
2, 193902, Note_on_c, 0, 61, 83
2, 194011, Note_on_c, 0, 69, 103
2, 194027, Note_on_c, 0, 71, 0
2, 194037, Note_on_c, 0, 71, 84
2, 194165, Note_on_c, 0, 73, 0
2, 194169, Note_on_c, 0, 73, 75
2, 194204, Note_on_c, 0, 64, 74
2, 194273, Note_on_c, 0, 76, 0
2, 194281, Note_on_c, 0, 76, 85
2, 194327, Note_on_c, 0, 59, 0
2, 194336, Note_on_c, 0, 59, 68
2, 194403, Note_on_c, 0, 71, 0
2, 194410, Note_on_c, 0, 71, 69
2, 194434, Note_on_c, 0, 61, 0
2, 194440, Note_on_c, 0, 61, 75
2, 194534, Note_on_c, 0, 73, 0
2, 194539, Note_on_c, 0, 68, 105
2, 194545, Note_on_c, 0, 73, 92
2, 194688, Note_on_c, 0, 71, 0
2, 194693, Note_on_c, 0, 71, 73
2, 194711, Note_on_c, 0, 68, 0
2, 194717, Note_on_c, 0, 68, 49
2, 194718, Note_on_c, 0, 52, 0
2, 194723, Note_on_c, 0, 52, 61
2, 194803, Note_on_c, 0, 73, 0
2, 194810, Note_on_c, 0, 59, 0
2, 194810, Note_on_c, 0, 68, 0
2, 194813, Note_on_c, 0, 73, 81
2, 194814, Note_on_c, 0, 68, 61
2, 194822, Note_on_c, 0, 59, 72
2, 194918, Note_on_c, 0, 76, 0
2, 194924, Note_on_c, 0, 76, 99
2, 194949, Note_on_c, 0, 61, 0
2, 194953, Note_on_c, 0, 61, 68
2, 195056, Note_on_c, 0, 64, 0
2, 195056, Note_on_c, 0, 71, 0
2, 195063, Note_on_c, 0, 64, 98
2, 195067, Note_on_c, 0, 71, 95
2, 195087, Note_on_c, 0, 68, 0
2, 195091, Note_on_c, 0, 68, 55
2, 195187, Note_on_c, 0, 73, 0
2, 195194, Note_on_c, 0, 73, 89
2, 195240, Note_on_c, 0, 52, 0
2, 195246, Note_on_c, 0, 52, 69
2, 195310, Note_on_c, 0, 47, 0
2, 195310, Note_on_c, 0, 59, 0
2, 195310, Note_on_c, 0, 76, 0
2, 195314, Note_on_c, 0, 76, 88
2, 195318, Note_on_c, 0, 59, 64
2, 195321, Note_on_c, 0, 47, 60
2, 195386, Note_on_c, 0, 61, 0
2, 195397, Note_on_c, 0, 61, 81
2, 195425, Note_on_c, 0, 71, 0
2, 195430, Note_on_c, 0, 71, 70
2, 195550, Control_c, 0, 64, 0
2, 195550, Note_on_c, 0, 47, 0
2, 195550, Note_on_c, 0, 69, 0
2, 195551, Note_on_c, 0, 40, 0
2, 195551, Note_on_c, 0, 59, 0
2, 195551, Note_on_c, 0, 68, 0
2, 195551, Note_on_c, 0, 61, 0
2, 195551, Note_on_c, 0, 64, 0
2, 195551, Note_on_c, 0, 73, 0
2, 195551, Note_on_c, 0, 76, 0
2, 195551, Note_on_c, 0, 66, 0
2, 195571, Note_on_c, 0, 52, 0
2, 195586, Note_on_c, 0, 78, 0
2, 195591, Note_on_c, 0, 78, 106
2, 195592, Note_on_c, 0, 38, 101
2, 195598, Note_on_c, 0, 45, 86
2, 195632, Control_c, 0, 64, 127
2, 195709, Note_on_c, 0, 71, 0
2, 195720, Note_on_c, 0, 71, 83
2, 195855, Note_on_c, 0, 73, 82
2, 195870, Note_on_c, 0, 50, 78
2, 195982, Note_on_c, 0, 57, 78
2, 195983, Note_on_c, 0, 76, 102
2, 196103, Note_on_c, 0, 66, 105
2, 196108, Note_on_c, 0, 38, 0
2, 196108, Note_on_c, 0, 71, 0
2, 196113, Note_on_c, 0, 38, 78
2, 196119, Note_on_c, 0, 71, 81
2, 196262, Note_on_c, 0, 50, 0
2, 196262, Note_on_c, 0, 73, 0
2, 196268, Note_on_c, 0, 73, 73
2, 196270, Note_on_c, 0, 71, 0
2, 196272, Note_on_c, 0, 50, 64
2, 196281, Note_on_c, 0, 71, 61
2, 196362, Note_on_c, 0, 76, 0
2, 196372, Note_on_c, 0, 76, 83
2, 196400, Note_on_c, 0, 57, 0
2, 196408, Note_on_c, 0, 50, 0
2, 196412, Note_on_c, 0, 57, 60
2, 196412, Note_on_c, 0, 50, 39
2, 196500, Note_on_c, 0, 71, 0
2, 196510, Note_on_c, 0, 71, 77
2, 196521, Note_on_c, 0, 59, 65
2, 196631, Note_on_c, 0, 66, 0
2, 196631, Note_on_c, 0, 73, 0
2, 196635, Note_on_c, 0, 66, 101
2, 196636, Note_on_c, 0, 73, 97
2, 196776, Note_on_c, 0, 50, 0
2, 196776, Note_on_c, 0, 71, 0
2, 196781, Note_on_c, 0, 71, 75
2, 196785, Note_on_c, 0, 50, 58
2, 196892, Note_on_c, 0, 73, 0
2, 196897, Note_on_c, 0, 73, 78
2, 196922, Note_on_c, 0, 57, 0
2, 196934, Note_on_c, 0, 57, 71
2, 197015, Note_on_c, 0, 76, 0
2, 197025, Note_on_c, 0, 76, 96
2, 197030, Note_on_c, 0, 59, 0
2, 197041, Note_on_c, 0, 59, 80
2, 197153, Note_on_c, 0, 66, 0
2, 197153, Note_on_c, 0, 71, 0
2, 197157, Note_on_c, 0, 66, 106
2, 197159, Note_on_c, 0, 71, 91
2, 197276, Note_on_c, 0, 73, 0
2, 197283, Note_on_c, 0, 50, 0
2, 197286, Note_on_c, 0, 73, 82
2, 197288, Note_on_c, 0, 50, 64
2, 197406, Note_on_c, 0, 57, 0
2, 197414, Note_on_c, 0, 76, 0
2, 197417, Note_on_c, 0, 69, 72
2, 197417, Note_on_c, 0, 57, 72
2, 197418, Note_on_c, 0, 76, 82
2, 197521, Note_on_c, 0, 59, 0
2, 197529, Note_on_c, 0, 71, 0
2, 197532, Note_on_c, 0, 59, 70
2, 197534, Note_on_c, 0, 71, 83
2, 197595, Note_on_c, 0, 50, 0
2, 197596, Note_on_c, 0, 66, 0
2, 197596, Control_c, 0, 64, 0
2, 197596, Note_on_c, 0, 38, 0
2, 197596, Note_on_c, 0, 45, 0
2, 197596, Note_on_c, 0, 73, 0
2, 197596, Note_on_c, 0, 71, 0
2, 197597, Note_on_c, 0, 59, 0
2, 197597, Note_on_c, 0, 78, 0
2, 197597, Note_on_c, 0, 76, 0
2, 197614, Note_on_c, 0, 57, 0
2, 197614, Note_on_c, 0, 69, 0
2, 197662, Note_on_c, 0, 78, 106
2, 197663, Note_on_c, 0, 38, 96
2, 197664, Note_on_c, 0, 66, 104
2, 197675, Control_c, 0, 64, 127
2, 197796, Note_on_c, 0, 71, 53
2, 197818, Note_on_c, 0, 50, 67
2, 197917, Note_on_c, 0, 73, 84
2, 197946, Note_on_c, 0, 57, 75
2, 198037, Note_on_c, 0, 76, 99
2, 198059, Note_on_c, 0, 59, 89
2, 198174, Note_on_c, 0, 64, 103
2, 198182, Note_on_c, 0, 71, 0
2, 198182, Note_on_c, 0, 76, 0
2, 198186, Note_on_c, 0, 71, 80
2, 198190, Note_on_c, 0, 76, 79
2, 198320, Note_on_c, 0, 50, 0
2, 198320, Note_on_c, 0, 73, 0
2, 198330, Note_on_c, 0, 50, 64
2, 198330, Note_on_c, 0, 73, 81
2, 198397, Note_on_c, 0, 71, 0
2, 198408, Note_on_c, 0, 71, 64
2, 198443, Note_on_c, 0, 76, 0
2, 198448, Note_on_c, 0, 76, 83
2, 198481, Note_on_c, 0, 57, 0
2, 198491, Note_on_c, 0, 57, 68
2, 198589, Note_on_c, 0, 59, 0
2, 198589, Note_on_c, 0, 71, 0
2, 198593, Note_on_c, 0, 59, 79
2, 198597, Note_on_c, 0, 71, 71
2, 198696, Note_on_c, 0, 66, 0
2, 198704, Note_on_c, 0, 73, 0
2, 198707, Note_on_c, 0, 66, 107
2, 198708, Note_on_c, 0, 73, 103
2, 198819, Note_on_c, 0, 50, 0
2, 198819, Note_on_c, 0, 71, 0
2, 198830, Note_on_c, 0, 50, 79
2, 198831, Note_on_c, 0, 71, 88
2, 198950, Note_on_c, 0, 57, 0
2, 198958, Note_on_c, 0, 73, 0
2, 198961, Note_on_c, 0, 57, 77
2, 198962, Note_on_c, 0, 73, 92
2, 199021, Note_on_c, 0, 47, 63
2, 199027, Note_on_c, 0, 47, 0
2, 199034, Note_on_c, 0, 50, 0
2, 199044, Note_on_c, 0, 50, 56
2, 199073, Note_on_c, 0, 76, 0
2, 199079, Note_on_c, 0, 76, 106
2, 199153, Note_on_c, 0, 78, 0
2, 199153, Note_on_c, 0, 59, 0
2, 199154, Note_on_c, 0, 73, 0
2, 199154, Note_on_c, 0, 50, 0
2, 199154, Note_on_c, 0, 64, 0
2, 199155, Control_c, 0, 64, 0
2, 199155, Note_on_c, 0, 38, 0
2, 199180, Note_on_c, 0, 57, 0
2, 199180, Note_on_c, 0, 66, 0
2, 199180, Note_on_c, 0, 71, 0
2, 199207, Note_on_c, 0, 40, 87
2, 199207, Note_on_c, 0, 69, 104
2, 199219, Control_c, 0, 64, 127
2, 199337, Note_on_c, 0, 64, 96
2, 199475, Note_on_c, 0, 59, 82
2, 199582, Note_on_c, 0, 52, 84
2, 199752, Control_c, 0, 64, 0
2, 199754, Note_on_c, 0, 64, 0
2, 199755, Note_on_c, 0, 78, 105
2, 199756, Note_on_c, 0, 59, 0
2, 199756, Note_on_c, 0, 69, 0
2, 199756, Note_on_c, 0, 52, 0
2, 199758, Note_on_c, 0, 40, 0
2, 199772, Note_on_c, 0, 76, 0
2, 199782, Note_on_c, 0, 42, 71
2, 199783, Note_on_c, 0, 30, 70
2, 199891, Note_on_c, 0, 85, 79
2, 199964, Control_c, 0, 64, 127
2, 200020, Note_on_c, 0, 90, 78
2, 200149, Note_on_c, 0, 83, 72
2, 200286, Note_on_c, 0, 78, 0
2, 200297, Note_on_c, 0, 78, 74
2, 200409, Note_on_c, 0, 83, 0
2, 200420, Note_on_c, 0, 83, 74
2, 200547, Note_on_c, 0, 85, 0
2, 200554, Note_on_c, 0, 85, 76
2, 200673, Note_on_c, 0, 88, 80
2, 200785, Note_on_c, 0, 83, 0
2, 200791, Note_on_c, 0, 83, 39
2, 200816, Note_on_c, 0, 78, 0
2, 200822, Note_on_c, 0, 78, 79
2, 200939, Note_on_c, 0, 85, 0
2, 200943, Note_on_c, 0, 85, 70
2, 201085, Note_on_c, 0, 90, 0
2, 201092, Note_on_c, 0, 90, 67
2, 201208, Note_on_c, 0, 83, 0
2, 201216, Note_on_c, 0, 83, 73
2, 201354, Note_on_c, 0, 78, 0
2, 201359, Note_on_c, 0, 78, 84
2, 201484, Note_on_c, 0, 83, 0
2, 201492, Note_on_c, 0, 83, 67
2, 201607, Note_on_c, 0, 85, 0
2, 201615, Note_on_c, 0, 85, 74
2, 201745, Note_on_c, 0, 88, 0
2, 201756, Note_on_c, 0, 88, 74
2, 201891, Note_on_c, 0, 78, 0
2, 201901, Note_on_c, 0, 78, 77
2, 202007, Note_on_c, 0, 85, 0
2, 202011, Note_on_c, 0, 85, 73
2, 202152, Note_on_c, 0, 90, 0
2, 202163, Note_on_c, 0, 90, 69
2, 202283, Note_on_c, 0, 83, 0
2, 202293, Note_on_c, 0, 83, 69
2, 202429, Note_on_c, 0, 78, 0
2, 202433, Note_on_c, 0, 78, 77
2, 202560, Note_on_c, 0, 83, 0
2, 202565, Note_on_c, 0, 83, 69
2, 202690, Note_on_c, 0, 85, 0
2, 202695, Note_on_c, 0, 85, 76
2, 202821, Note_on_c, 0, 88, 0
2, 202826, Note_on_c, 0, 88, 74
2, 202951, Note_on_c, 0, 78, 0
2, 202956, Note_on_c, 0, 78, 80
2, 203074, Note_on_c, 0, 85, 0
2, 203079, Note_on_c, 0, 85, 69
2, 203205, Note_on_c, 0, 90, 0
2, 203216, Note_on_c, 0, 90, 70
2, 203351, Note_on_c, 0, 83, 0
2, 203356, Note_on_c, 0, 83, 68
2, 203481, Note_on_c, 0, 78, 0
2, 203488, Note_on_c, 0, 78, 71
2, 203619, Note_on_c, 0, 83, 0
2, 203624, Note_on_c, 0, 83, 64
2, 203727, Note_on_c, 0, 85, 0
2, 203738, Note_on_c, 0, 85, 76
2, 203857, Note_on_c, 0, 88, 0
2, 203868, Note_on_c, 0, 88, 78
2, 204003, Note_on_c, 0, 78, 0
2, 204015, Note_on_c, 0, 78, 75
2, 204015, Note_on_c, 0, 66, 74
2, 204134, Note_on_c, 0, 85, 0
2, 204140, Note_on_c, 0, 85, 70
2, 204144, Note_on_c, 0, 71, 59
2, 204272, Note_on_c, 0, 90, 0
2, 204281, Note_on_c, 0, 90, 80
2, 204288, Note_on_c, 0, 73, 67
2, 204387, Note_on_c, 0, 42, 0
2, 204395, Note_on_c, 0, 30, 0
2, 204418, Note_on_c, 0, 83, 0
2, 204422, Note_on_c, 0, 83, 70
2, 204427, Note_on_c, 0, 76, 62
2, 204541, Note_on_c, 0, 66, 0
2, 204541, Note_on_c, 0, 78, 0
2, 204546, Note_on_c, 0, 78, 73
2, 204550, Note_on_c, 0, 66, 69
2, 204679, Note_on_c, 0, 71, 0
2, 204679, Note_on_c, 0, 83, 0
2, 204685, Note_on_c, 0, 71, 59
2, 204687, Note_on_c, 0, 83, 69
2, 204810, Note_on_c, 0, 73, 0
2, 204810, Note_on_c, 0, 85, 0
2, 204815, Note_on_c, 0, 85, 77
2, 204817, Note_on_c, 0, 76, 0
2, 204821, Note_on_c, 0, 73, 65
2, 204823, Note_on_c, 0, 76, 46
2, 204948, Note_on_c, 0, 88, 0
2, 204954, Note_on_c, 0, 88, 77
2, 204956, Note_on_c, 0, 71, 0
2, 204956, Note_on_c, 0, 76, 0
2, 204965, Note_on_c, 0, 76, 61
2, 204966, Note_on_c, 0, 71, 47
2, 205086, Note_on_c, 0, 66, 0
2, 205086, Note_on_c, 0, 78, 0
2, 205090, Note_on_c, 0, 78, 75
2, 205095, Note_on_c, 0, 66, 67
2, 205209, Note_on_c, 0, 85, 0
2, 205215, Note_on_c, 0, 85, 69
2, 205217, Note_on_c, 0, 71, 0
2, 205226, Note_on_c, 0, 71, 52
2, 205232, Note_on_c, 0, 76, 0
2, 205237, Note_on_c, 0, 76, 39
2, 205355, Note_on_c, 0, 90, 0
2, 205363, Note_on_c, 0, 73, 0
2, 205363, Note_on_c, 0, 90, 75
2, 205372, Note_on_c, 0, 73, 58
2, 205493, Note_on_c, 0, 76, 0
2, 205493, Note_on_c, 0, 83, 0
2, 205498, Note_on_c, 0, 83, 68
2, 205500, Note_on_c, 0, 76, 62
2, 205624, Note_on_c, 0, 66, 0
2, 205624, Note_on_c, 0, 78, 0
2, 205628, Note_on_c, 0, 78, 68
2, 205632, Note_on_c, 0, 66, 68
2, 205762, Note_on_c, 0, 71, 0
2, 205762, Note_on_c, 0, 83, 0
2, 205767, Note_on_c, 0, 83, 61
2, 205773, Note_on_c, 0, 71, 45
2, 205800, Note_on_c, 0, 76, 0
2, 205807, Note_on_c, 0, 76, 30
2, 205885, Note_on_c, 0, 85, 0
2, 205890, Note_on_c, 0, 85, 71
2, 205908, Note_on_c, 0, 73, 0
2, 205912, Note_on_c, 0, 73, 57
2, 206031, Note_on_c, 0, 88, 0
2, 206039, Note_on_c, 0, 76, 0
2, 206042, Note_on_c, 0, 88, 73
2, 206048, Note_on_c, 0, 76, 62
2, 206161, Note_on_c, 0, 78, 0
2, 206173, Note_on_c, 0, 78, 69
2, 206177, Note_on_c, 0, 66, 0
2, 206182, Note_on_c, 0, 66, 61
2, 206307, Note_on_c, 0, 85, 0
2, 206315, Note_on_c, 0, 71, 0
2, 206318, Note_on_c, 0, 85, 68
2, 206325, Note_on_c, 0, 71, 44
2, 206446, Note_on_c, 0, 90, 0
2, 206450, Note_on_c, 0, 90, 71
2, 206461, Note_on_c, 0, 76, 0
2, 206469, Note_on_c, 0, 73, 0
2, 206471, Note_on_c, 0, 76, 39
2, 206474, Note_on_c, 0, 73, 45
2, 206592, Note_on_c, 0, 83, 0
2, 206596, Note_on_c, 0, 83, 65
2, 206599, Note_on_c, 0, 76, 0
2, 206608, Note_on_c, 0, 76, 47
2, 206730, Note_on_c, 0, 66, 0
2, 206730, Note_on_c, 0, 78, 0
2, 206735, Note_on_c, 0, 78, 67
2, 206740, Note_on_c, 0, 66, 61
2, 206891, Note_on_c, 0, 71, 0
2, 206891, Note_on_c, 0, 83, 0
2, 206900, Note_on_c, 0, 83, 63
2, 206901, Note_on_c, 0, 71, 49
2, 207045, Note_on_c, 0, 73, 0
2, 207045, Note_on_c, 0, 85, 0
2, 207050, Note_on_c, 0, 73, 60
2, 207050, Note_on_c, 0, 85, 69
2, 207214, Note_on_c, 0, 76, 0
2, 207214, Note_on_c, 0, 88, 0
2, 207222, Note_on_c, 0, 88, 71
2, 207225, Note_on_c, 0, 76, 59
2, 207390, Note_on_c, 0, 66, 0
2, 207390, Note_on_c, 0, 78, 0
2, 207394, Note_on_c, 0, 78, 66
2, 207396, Note_on_c, 0, 66, 63
2, 207582, Note_on_c, 0, 71, 0
2, 207582, Note_on_c, 0, 85, 0
2, 207590, Note_on_c, 0, 71, 52
2, 207590, Note_on_c, 0, 76, 0
2, 207593, Note_on_c, 0, 85, 66
2, 207601, Note_on_c, 0, 76, 42
2, 207797, Note_on_c, 0, 90, 0
2, 207805, Note_on_c, 0, 73, 0
2, 207805, Note_on_c, 0, 76, 0
2, 207807, Note_on_c, 0, 90, 62
2, 207810, Note_on_c, 0, 76, 38
2, 207814, Note_on_c, 0, 73, 48
2, 208035, Note_on_c, 0, 76, 0
2, 208035, Note_on_c, 0, 83, 0
2, 208040, Note_on_c, 0, 83, 63
2, 208041, Note_on_c, 0, 76, 57
2, 208296, Note_on_c, 0, 78, 0
2, 208304, Note_on_c, 0, 66, 0
2, 208307, Note_on_c, 0, 78, 64
2, 208310, Note_on_c, 0, 66, 58
2, 208665, Note_on_c, 0, 71, 0
2, 208665, Note_on_c, 0, 83, 0
2, 208669, Note_on_c, 0, 71, 51
2, 208672, Note_on_c, 0, 83, 61
2, 209180, Note_on_c, 0, 73, 0
2, 209180, Note_on_c, 0, 85, 0
2, 209184, Note_on_c, 0, 85, 68
2, 209187, Note_on_c, 0, 76, 0
2, 209191, Note_on_c, 0, 73, 51
2, 209196, Note_on_c, 0, 76, 33
2, 209280, Note_on_c, 0, 66, 0
2, 209280, Note_on_c, 0, 88, 0
2, 209280, Note_on_c, 0, 90, 0
2, 209280, Control_c, 0, 64, 0
2, 209303, Note_on_c, 0, 78, 0
2, 209318, Note_on_c, 0, 71, 0
2, 209633, Note_on_c, 0, 78, 12
2, 209679, Note_on_c, 0, 78, 0
2, 209848, Note_on_c, 0, 73, 0
2, 210132, Note_on_c, 0, 83, 0
2, 210132, Note_on_c, 0, 85, 0
2, 210137, Note_on_c, 0, 83, 51
2, 210139, Note_on_c, 0, 92, 64
2, 210140, Note_on_c, 0, 76, 0
2, 210151, Note_on_c, 0, 76, 49
2, 212113, Control_c, 0, 64, 127
2, 213120, Note_on_c, 0, 76, 0
2, 213120, Note_on_c, 0, 83, 0
2, 213120, Note_on_c, 0, 92, 0
2, 215815, Control_c, 0, 64, 0
2, 215816, End_track
0, 0, End_of_file
