0, 0, Header, 1, 2, 384
1, 0, Start_track
1, 0, Tempo, 500000
1, 0, Time_signature, 4, 2, 24, 8
1, 1, End_track
2, 0, Start_track
2, 7, Control_c, 0, 64, 127
2, 2066, Note_on_c, 0, 61, 62
2, 2068, Note_on_c, 0, 57, 53
2, 2084, Note_on_c, 0, 50, 45
2, 2090, Note_on_c, 0, 54, 45
2, 2857, Note_on_c, 0, 80, 80
2, 2874, Note_on_c, 0, 71, 59
2, 3440, Note_on_c, 0, 81, 75
2, 3456, Note_on_c, 0, 57, 0
2, 3466, Note_on_c, 0, 76, 60
2, 3466, Note_on_c, 0, 57, 42
2, 3467, Note_on_c, 0, 73, 53
2, 3467, Note_on_c, 0, 52, 53
2, 3468, Note_on_c, 0, 69, 51
2, 3468, Note_on_c, 0, 49, 46
2, 3479, Note_on_c, 0, 71, 0
2, 3479, Note_on_c, 0, 80, 0
2, 3480, Note_on_c, 0, 54, 0
2, 3482, Note_on_c, 0, 50, 0
2, 3544, Control_c, 0, 64, 0
2, 3571, Control_c, 0, 64, 127
2, 3601, Note_on_c, 0, 61, 0
2, 3901, Control_c, 0, 64, 0
2, 4339, Control_c, 0, 64, 127
2, 5437, Note_on_c, 0, 57, 0
2, 5446, Note_on_c, 0, 57, 55
2, 5450, Note_on_c, 0, 54, 53
2, 5451, Note_on_c, 0, 50, 54
2, 5455, Note_on_c, 0, 47, 51
2, 5479, Note_on_c, 0, 81, 0
2, 5482, Note_on_c, 0, 73, 0
2, 5482, Note_on_c, 0, 52, 0
2, 5483, Note_on_c, 0, 76, 0
2, 5484, Note_on_c, 0, 49, 0
2, 5484, Note_on_c, 0, 69, 0
2, 5485, Control_c, 0, 64, 0
2, 5552, Control_c, 0, 64, 127
2, 6232, Note_on_c, 0, 83, 79
2, 6241, Note_on_c, 0, 74, 60
2, 6824, Note_on_c, 0, 85, 74
2, 6824, Note_on_c, 0, 80, 71
2, 6830, Note_on_c, 0, 73, 62
2, 6835, Note_on_c, 0, 52, 61
2, 6838, Note_on_c, 0, 76, 58
2, 6862, Note_on_c, 0, 45, 44
2, 6890, Note_on_c, 0, 50, 0
2, 6954, Note_on_c, 0, 74, 0
2, 6954, Note_on_c, 0, 47, 0
2, 6955, Note_on_c, 0, 83, 0
2, 6965, Note_on_c, 0, 57, 0
2, 6967, Control_c, 0, 64, 0
2, 6973, Note_on_c, 0, 54, 0
2, 8033, Control_c, 0, 64, 127
2, 8847, Note_on_c, 0, 57, 50
2, 8860, Note_on_c, 0, 54, 47
2, 8870, Note_on_c, 0, 80, 0
2, 8870, Note_on_c, 0, 85, 0
2, 8872, Note_on_c, 0, 76, 0
2, 8872, Note_on_c, 0, 73, 0
2, 8875, Note_on_c, 0, 50, 36
2, 8878, Note_on_c, 0, 52, 0
2, 8880, Control_c, 0, 64, 0
2, 8885, Note_on_c, 0, 45, 0
2, 8886, Note_on_c, 0, 52, 51
2, 8890, Note_on_c, 0, 38, 37
2, 8893, Note_on_c, 0, 45, 32
2, 9062, Control_c, 0, 64, 127
2, 9635, Note_on_c, 0, 80, 83
2, 9658, Note_on_c, 0, 71, 63
2, 10236, Note_on_c, 0, 81, 73
2, 10260, Note_on_c, 0, 37, 40
2, 10260, Note_on_c, 0, 54, 0
2, 10266, Note_on_c, 0, 49, 43
2, 10268, Note_on_c, 0, 37, 0
2, 10268, Note_on_c, 0, 45, 0
2, 10268, Note_on_c, 0, 52, 0
2, 10268, Note_on_c, 0, 57, 0
2, 10271, Note_on_c, 0, 69, 50
2, 10272, Note_on_c, 0, 57, 53
2, 10272, Note_on_c, 0, 76, 56
2, 10274, Note_on_c, 0, 71, 0
2, 10275, Note_on_c, 0, 38, 0
2, 10275, Note_on_c, 0, 80, 0
2, 10277, Note_on_c, 0, 52, 40
2, 10279, Note_on_c, 0, 45, 45
2, 10279, Control_c, 0, 64, 0
2, 10279, Note_on_c, 0, 73, 38
2, 10598, Note_on_c, 0, 57, 0
2, 10920, Note_on_c, 0, 50, 0
2, 11289, Control_c, 0, 64, 127
2, 12111, Note_on_c, 0, 76, 0
2, 12122, Note_on_c, 0, 76, 70
2, 12142, Note_on_c, 0, 52, 0
2, 12146, Note_on_c, 0, 64, 49
2, 12147, Note_on_c, 0, 52, 40
2, 12149, Note_on_c, 0, 49, 0
2, 12149, Note_on_c, 0, 69, 0
2, 12153, Note_on_c, 0, 66, 50
2, 12153, Note_on_c, 0, 38, 38
2, 12154, Note_on_c, 0, 73, 0
2, 12154, Note_on_c, 0, 40, 37
2, 12154, Note_on_c, 0, 50, 44
2, 12155, Note_on_c, 0, 81, 0
2, 12156, Note_on_c, 0, 69, 52
2, 12157, Note_on_c, 0, 38, 0
2, 12160, Note_on_c, 0, 47, 42
2, 12165, Note_on_c, 0, 45, 0
2, 12171, Control_c, 0, 64, 0
2, 12656, Control_c, 0, 64, 127
2, 13440, Note_on_c, 0, 52, 0
2, 13632, Note_on_c, 0, 40, 0
2, 13634, Note_on_c, 0, 28, 44
2, 13637, Note_on_c, 0, 40, 28
2, 13649, Note_on_c, 0, 88, 72
2, 16151, Note_on_c, 0, 47, 0
2, 16155, Note_on_c, 0, 47, 43
2, 16507, Note_on_c, 0, 52, 52
2, 16704, Note_on_c, 0, 57, 64
2, 16727, Note_on_c, 0, 76, 0
2, 16757, Note_on_c, 0, 64, 0
2, 16757, Note_on_c, 0, 66, 0
2, 16765, Note_on_c, 0, 50, 0
2, 16765, Note_on_c, 0, 69, 0
2, 16917, Note_on_c, 0, 59, 70
2, 17076, Note_on_c, 0, 64, 70
2, 17239, Note_on_c, 0, 69, 76
2, 17280, Note_on_c, 0, 28, 0
2, 17280, Note_on_c, 0, 59, 0
2, 17280, Note_on_c, 0, 88, 0
2, 17285, Note_on_c, 0, 59, 36
2, 17423, Note_on_c, 0, 71, 74
2, 17570, Control_c, 0, 64, 0
2, 17587, Note_on_c, 0, 40, 0
2, 17587, Note_on_c, 0, 47, 0
2, 17590, Note_on_c, 0, 59, 0
2, 17596, Note_on_c, 0, 50, 59
2, 17597, Note_on_c, 0, 83, 88
2, 17633, Note_on_c, 0, 64, 0
2, 17640, Control_c, 0, 64, 127
2, 17748, Note_on_c, 0, 52, 0
2, 17748, Note_on_c, 0, 71, 0
2, 17756, Note_on_c, 0, 71, 61
2, 17771, Note_on_c, 0, 57, 0
2, 17782, Note_on_c, 0, 57, 48
2, 17940, Note_on_c, 0, 62, 64
2, 17943, Note_on_c, 0, 76, 78
2, 18100, Note_on_c, 0, 66, 69
2, 18103, Note_on_c, 0, 80, 84
2, 18201, Note_on_c, 0, 66, 0
2, 18207, Note_on_c, 0, 66, 52
2, 18263, Note_on_c, 0, 71, 0
2, 18274, Note_on_c, 0, 71, 51
2, 18432, Note_on_c, 0, 62, 0
2, 18436, Note_on_c, 0, 81, 88
2, 18436, Note_on_c, 0, 62, 63
2, 18600, Note_on_c, 0, 71, 0
2, 18605, Note_on_c, 0, 71, 57
2, 18759, Control_c, 0, 64, 0
2, 18760, Note_on_c, 0, 80, 0
2, 18760, Note_on_c, 0, 66, 0
2, 18761, Note_on_c, 0, 83, 0
2, 18761, Note_on_c, 0, 62, 0
2, 18761, Note_on_c, 0, 57, 0
2, 18761, Note_on_c, 0, 71, 0
2, 18761, Note_on_c, 0, 81, 0
2, 18761, Note_on_c, 0, 50, 0
2, 18769, Note_on_c, 0, 69, 0
2, 18777, Note_on_c, 0, 76, 0
2, 18782, Note_on_c, 0, 76, 80
2, 18782, Note_on_c, 0, 49, 62
2, 18831, Control_c, 0, 64, 127
2, 18947, Note_on_c, 0, 69, 58
2, 18948, Note_on_c, 0, 57, 61
2, 19111, Note_on_c, 0, 61, 59
2, 19282, Note_on_c, 0, 64, 63
2, 19422, Note_on_c, 0, 69, 0
2, 19422, Note_on_c, 0, 76, 0
2, 19427, Note_on_c, 0, 69, 71
2, 19428, Note_on_c, 0, 76, 81
2, 19596, Note_on_c, 0, 80, 92
2, 19622, Note_on_c, 0, 57, 0
2, 19626, Note_on_c, 0, 57, 44
2, 19762, Note_on_c, 0, 71, 60
2, 19921, Note_on_c, 0, 64, 0
2, 19926, Note_on_c, 0, 64, 60
2, 19928, Note_on_c, 0, 81, 92
2, 19929, Note_on_c, 0, 52, 56
2, 19937, Note_on_c, 0, 52, 0
2, 20060, Note_on_c, 0, 71, 0
2, 20070, Note_on_c, 0, 71, 72
2, 20256, Note_on_c, 0, 88, 95
2, 20278, Note_on_c, 0, 47, 62
2, 20280, Control_c, 0, 64, 0
2, 20280, Note_on_c, 0, 61, 0
2, 20281, Note_on_c, 0, 80, 0
2, 20281, Note_on_c, 0, 64, 0
2, 20283, Note_on_c, 0, 71, 0
2, 20284, Note_on_c, 0, 76, 0
2, 20284, Note_on_c, 0, 57, 0
2, 20298, Note_on_c, 0, 49, 0
2, 20305, Note_on_c, 0, 69, 0
2, 20352, Control_c, 0, 64, 127
2, 20433, Note_on_c, 0, 76, 65
2, 20433, Note_on_c, 0, 54, 57
2, 20571, Note_on_c, 0, 57, 62
2, 20574, Note_on_c, 0, 81, 0
2, 20578, Note_on_c, 0, 81, 87
2, 20755, Note_on_c, 0, 86, 94
2, 20769, Note_on_c, 0, 62, 64
2, 20920, Note_on_c, 0, 76, 0
2, 20926, Note_on_c, 0, 76, 54
2, 20966, Note_on_c, 0, 81, 0
2, 20975, Note_on_c, 0, 81, 50
2, 21080, Note_on_c, 0, 83, 91
2, 21089, Note_on_c, 0, 57, 0
2, 21093, Note_on_c, 0, 57, 62
2, 21093, Note_on_c, 0, 69, 60
2, 21173, Note_on_c, 0, 57, 0
2, 21182, Note_on_c, 0, 57, 53
2, 21250, Note_on_c, 0, 76, 0
2, 21256, Note_on_c, 0, 76, 57
2, 21423, Note_on_c, 0, 85, 95
2, 21425, Note_on_c, 0, 86, 0
2, 21425, Note_on_c, 0, 54, 0
2, 21426, Control_c, 0, 64, 0
2, 21427, Note_on_c, 0, 57, 0
2, 21428, Note_on_c, 0, 83, 0
2, 21429, Note_on_c, 0, 62, 0
2, 21429, Note_on_c, 0, 81, 0
2, 21436, Note_on_c, 0, 45, 70
2, 21450, Note_on_c, 0, 47, 0
2, 21457, Note_on_c, 0, 88, 0
2, 21473, Note_on_c, 0, 69, 0
2, 21565, Control_c, 0, 64, 127
2, 21591, Note_on_c, 0, 52, 60
2, 21740, Note_on_c, 0, 57, 60
2, 21745, Note_on_c, 0, 69, 58
2, 21811, Note_on_c, 0, 57, 0
2, 21822, Note_on_c, 0, 57, 49
2, 21912, Note_on_c, 0, 61, 61
2, 22072, Note_on_c, 0, 76, 0
2, 22079, Note_on_c, 0, 76, 76
2, 22083, Note_on_c, 0, 64, 61
2, 22187, Note_on_c, 0, 76, 0
2, 22194, Note_on_c, 0, 76, 57
2, 22233, Note_on_c, 0, 61, 0
2, 22237, Note_on_c, 0, 83, 87
2, 22242, Note_on_c, 0, 61, 42
2, 22402, Note_on_c, 0, 76, 0
2, 22412, Note_on_c, 0, 76, 69
2, 22556, Note_on_c, 0, 57, 0
2, 22556, Note_on_c, 0, 85, 0
2, 22566, Note_on_c, 0, 85, 84
2, 22566, Note_on_c, 0, 57, 69
2, 22694, Note_on_c, 0, 45, 0
2, 22705, Note_on_c, 0, 45, 46
2, 22739, Note_on_c, 0, 81, 91
2, 22809, Note_on_c, 0, 57, 0
2, 22817, Note_on_c, 0, 57, 58
2, 22845, Note_on_c, 0, 45, 0
2, 22845, Note_on_c, 0, 52, 0
2, 22845, Note_on_c, 0, 64, 0
2, 22845, Note_on_c, 0, 69, 0
2, 22845, Note_on_c, 0, 61, 0
2, 22845, Note_on_c, 0, 83, 0
2, 22846, Note_on_c, 0, 85, 0
2, 22847, Control_c, 0, 64, 0
2, 22897, Note_on_c, 0, 50, 69
2, 22909, Control_c, 0, 64, 127
2, 23040, Note_on_c, 0, 57, 0
2, 23046, Note_on_c, 0, 57, 54
2, 23059, Note_on_c, 0, 69, 62
2, 23216, Note_on_c, 0, 76, 0
2, 23227, Note_on_c, 0, 76, 69
2, 23227, Note_on_c, 0, 62, 56
2, 23370, Note_on_c, 0, 69, 0
2, 23375, Note_on_c, 0, 69, 64
2, 23379, Note_on_c, 0, 66, 63
2, 23477, Note_on_c, 0, 69, 0
2, 23483, Note_on_c, 0, 69, 51
2, 23546, Note_on_c, 0, 81, 0
2, 23554, Note_on_c, 0, 81, 75
2, 23692, Note_on_c, 0, 69, 0
2, 23702, Note_on_c, 0, 69, 60
2, 23715, Note_on_c, 0, 62, 0
2, 23720, Note_on_c, 0, 62, 59
2, 23873, Note_on_c, 0, 74, 79
2, 24045, Note_on_c, 0, 73, 84
2, 24150, Control_c, 0, 64, 0
2, 24150, Note_on_c, 0, 50, 0
2, 24151, Note_on_c, 0, 81, 0
2, 24151, Note_on_c, 0, 57, 0
2, 24151, Note_on_c, 0, 76, 0
2, 24151, Note_on_c, 0, 74, 0
2, 24152, Note_on_c, 0, 62, 0
2, 24168, Note_on_c, 0, 66, 0
2, 24215, Note_on_c, 0, 49, 58
2, 24238, Control_c, 0, 64, 127
2, 24353, Note_on_c, 0, 69, 0
2, 24357, Note_on_c, 0, 69, 56
2, 24361, Note_on_c, 0, 57, 56
2, 24507, Note_on_c, 0, 61, 57
2, 24513, Note_on_c, 0, 76, 71
2, 24675, Note_on_c, 0, 69, 0
2, 24680, Note_on_c, 0, 69, 65
2, 24681, Note_on_c, 0, 64, 63
2, 24849, Note_on_c, 0, 81, 77
2, 24998, Note_on_c, 0, 57, 0
2, 24998, Note_on_c, 0, 69, 0
2, 25003, Note_on_c, 0, 69, 60
2, 25003, Note_on_c, 0, 57, 53
2, 25178, Note_on_c, 0, 74, 78
2, 25344, Note_on_c, 0, 76, 0
2, 25348, Note_on_c, 0, 76, 85
2, 25463, Note_on_c, 0, 69, 0
2, 25463, Note_on_c, 0, 74, 0
2, 25463, Note_on_c, 0, 81, 0
2, 25464, Note_on_c, 0, 57, 0
2, 25464, Note_on_c, 0, 73, 0
2, 25464, Note_on_c, 0, 61, 0
2, 25466, Note_on_c, 0, 64, 0
2, 25468, Note_on_c, 0, 49, 0
2, 25471, Control_c, 0, 64, 0
2, 25489, Control_c, 0, 64, 127
2, 25505, Note_on_c, 0, 52, 73
2, 25512, Note_on_c, 0, 76, 0
2, 25522, Note_on_c, 0, 76, 61
2, 25574, Control_c, 0, 64, 0
2, 25651, Note_on_c, 0, 76, 0
2, 25656, Note_on_c, 0, 59, 60
2, 25658, Control_c, 0, 64, 127
2, 25661, Note_on_c, 0, 76, 61
2, 25688, Note_on_c, 0, 69, 62
2, 25843, Note_on_c, 0, 76, 0
2, 25847, Note_on_c, 0, 76, 64
2, 25989, Note_on_c, 0, 69, 0
2, 25989, Note_on_c, 0, 76, 0
2, 25994, Note_on_c, 0, 69, 62
2, 25997, Note_on_c, 0, 76, 56
2, 26000, Note_on_c, 0, 64, 52
2, 26163, Note_on_c, 0, 83, 64
2, 26319, Note_on_c, 0, 76, 0
2, 26324, Note_on_c, 0, 76, 64
2, 26327, Note_on_c, 0, 71, 58
2, 26488, Note_on_c, 0, 83, 0
2, 26493, Note_on_c, 0, 83, 63
2, 26667, Note_on_c, 0, 88, 72
2, 26688, Note_on_c, 0, 76, 0
2, 26697, Note_on_c, 0, 76, 55
2, 27563, Note_on_c, 0, 52, 0
2, 27574, Note_on_c, 0, 52, 62
2, 27914, Note_on_c, 0, 40, 53
2, 28254, Note_on_c, 0, 71, 0
2, 28262, Note_on_c, 0, 71, 101
2, 28262, Note_on_c, 0, 59, 0
2, 28267, Note_on_c, 0, 59, 85
2, 28269, Note_on_c, 0, 38, 79
2, 28281, Control_c, 0, 64, 0
2, 28321, Note_on_c, 0, 52, 0
2, 28322, Note_on_c, 0, 83, 0
2, 28328, Note_on_c, 0, 76, 0
2, 28354, Control_c, 0, 64, 127
2, 28432, Note_on_c, 0, 45, 71
2, 28477, Note_on_c, 0, 59, 0
2, 28488, Note_on_c, 0, 59, 66
2, 28584, Note_on_c, 0, 64, 0
2, 28588, Note_on_c, 0, 50, 73
2, 28589, Note_on_c, 0, 64, 86
2, 28738, Note_on_c, 0, 40, 0
2, 28758, Note_on_c, 0, 68, 95
2, 28760, Note_on_c, 0, 54, 75
2, 28762, Note_on_c, 0, 56, 81
2, 28800, Note_on_c, 0, 69, 0
2, 28800, Note_on_c, 0, 88, 0
2, 28915, Note_on_c, 0, 56, 0
2, 28919, Note_on_c, 0, 56, 64
2, 29096, Note_on_c, 0, 69, 93
2, 29099, Note_on_c, 0, 57, 79
2, 29422, Note_on_c, 0, 64, 0
2, 29429, Note_on_c, 0, 45, 0
2, 29429, Note_on_c, 0, 57, 0
2, 29433, Note_on_c, 0, 64, 98
2, 29439, Note_on_c, 0, 57, 77
2, 29440, Note_on_c, 0, 45, 72
2, 29440, Note_on_c, 0, 52, 85
2, 29525, Control_c, 0, 64, 0
2, 29529, Note_on_c, 0, 54, 0
2, 29530, Note_on_c, 0, 69, 0
2, 29530, Note_on_c, 0, 56, 0
2, 29530, Note_on_c, 0, 50, 0
2, 29531, Note_on_c, 0, 68, 0
2, 29532, Note_on_c, 0, 38, 0
2, 29532, Note_on_c, 0, 59, 0
2, 29544, Note_on_c, 0, 71, 0
2, 29583, Note_on_c, 0, 52, 0
2, 29593, Note_on_c, 0, 37, 78
2, 29594, Note_on_c, 0, 52, 72
2, 29595, Note_on_c, 0, 49, 67
2, 29637, Control_c, 0, 64, 127
2, 29760, Note_on_c, 0, 45, 0
2, 29760, Note_on_c, 0, 52, 0
2, 29765, Note_on_c, 0, 52, 70
2, 29769, Note_on_c, 0, 45, 67
2, 29844, Note_on_c, 0, 57, 0
2, 29848, Note_on_c, 0, 57, 77
2, 29932, Note_on_c, 0, 59, 75
2, 29952, Note_on_c, 0, 49, 0
2, 29957, Note_on_c, 0, 49, 42
2, 30013, Note_on_c, 0, 64, 0
2, 30021, Note_on_c, 0, 52, 0
2, 30024, Note_on_c, 0, 64, 77
2, 30028, Note_on_c, 0, 52, 66
2, 30109, Note_on_c, 0, 69, 78
2, 30182, Note_on_c, 0, 71, 85
2, 30205, Note_on_c, 0, 57, 0
2, 30216, Note_on_c, 0, 57, 60
2, 30220, Note_on_c, 0, 69, 0
2, 30229, Note_on_c, 0, 69, 64
2, 30270, Note_on_c, 0, 76, 82
2, 30337, Note_on_c, 0, 81, 85
2, 30393, Note_on_c, 0, 61, 66
2, 30403, Note_on_c, 0, 83, 84
2, 30477, Note_on_c, 0, 88, 89
2, 30528, Note_on_c, 0, 64, 0
2, 30538, Note_on_c, 0, 64, 81
2, 30541, Note_on_c, 0, 57, 0
2, 30554, Note_on_c, 0, 93, 97
2, 30640, Note_on_c, 0, 95, 80
2, 30645, Note_on_c, 0, 96, 75
2, 30650, Note_on_c, 0, 96, 0
2, 30709, Note_on_c, 0, 100, 77
2, 30848, Note_on_c, 0, 93, 0
2, 30849, Note_on_c, 0, 95, 0
2, 30849, Note_on_c, 0, 69, 0
2, 30849, Note_on_c, 0, 81, 0
2, 30850, Note_on_c, 0, 45, 0
2, 30850, Note_on_c, 0, 71, 0
2, 30851, Note_on_c, 0, 83, 0
2, 30851, Note_on_c, 0, 49, 0
2, 30852, Note_on_c, 0, 61, 0
2, 30852, Note_on_c, 0, 88, 0
2, 30852, Note_on_c, 0, 59, 0
2, 30858, Control_c, 0, 64, 0
2, 30865, Note_on_c, 0, 37, 0
2, 30865, Note_on_c, 0, 52, 0
2, 30865, Note_on_c, 0, 100, 0
2, 30873, Note_on_c, 0, 76, 0
2, 30878, Note_on_c, 0, 76, 104
2, 30881, Note_on_c, 0, 64, 0
2, 30885, Note_on_c, 0, 64, 93
2, 30887, Note_on_c, 0, 47, 81
2, 30890, Note_on_c, 0, 35, 75
2, 30912, Control_c, 0, 64, 127
2, 31027, Note_on_c, 0, 47, 0
2, 31027, Note_on_c, 0, 64, 0
2, 31037, Note_on_c, 0, 64, 70
2, 31037, Note_on_c, 0, 47, 71
2, 31044, Note_on_c, 0, 52, 57
2, 31198, Note_on_c, 0, 69, 88
2, 31200, Note_on_c, 0, 59, 71
2, 31200, Note_on_c, 0, 57, 78
2, 31200, Note_on_c, 0, 54, 77
2, 31375, Note_on_c, 0, 74, 100
2, 31379, Note_on_c, 0, 50, 69
2, 31383, Note_on_c, 0, 62, 89
2, 31388, Note_on_c, 0, 50, 0
2, 31587, Note_on_c, 0, 57, 0
2, 31587, Note_on_c, 0, 69, 0
2, 31598, Note_on_c, 0, 69, 60
2, 31599, Note_on_c, 0, 57, 67
2, 31703, Note_on_c, 0, 47, 0
2, 31703, Note_on_c, 0, 54, 0
2, 31703, Note_on_c, 0, 59, 0
2, 31708, Note_on_c, 0, 54, 76
2, 31710, Note_on_c, 0, 71, 92
2, 31710, Note_on_c, 0, 62, 0
2, 31711, Note_on_c, 0, 47, 66
2, 31712, Note_on_c, 0, 59, 74
2, 31717, Note_on_c, 0, 62, 67
2, 32025, Note_on_c, 0, 64, 0
2, 32027, Note_on_c, 0, 62, 0
2, 32028, Note_on_c, 0, 76, 0
2, 32028, Note_on_c, 0, 54, 0
2, 32028, Note_on_c, 0, 71, 0
2, 32029, Note_on_c, 0, 59, 0
2, 32029, Note_on_c, 0, 74, 0
2, 32029, Note_on_c, 0, 47, 0
2, 32033, Note_on_c, 0, 64, 73
2, 32033, Note_on_c, 0, 69, 0
2, 32033, Note_on_c, 0, 73, 101
2, 32036, Note_on_c, 0, 45, 85
2, 32037, Note_on_c, 0, 61, 86
2, 32038, Note_on_c, 0, 33, 76
2, 32039, Note_on_c, 0, 69, 61
2, 32040, Note_on_c, 0, 35, 0
2, 32056, Note_on_c, 0, 57, 0
2, 32062, Control_c, 0, 64, 0
2, 32071, Note_on_c, 0, 64, 0
2, 32117, Note_on_c, 0, 52, 0
2, 32117, Control_c, 0, 64, 127
2, 32186, Note_on_c, 0, 33, 0
2, 32194, Note_on_c, 0, 45, 0
2, 32198, Note_on_c, 0, 33, 75
2, 32204, Note_on_c, 0, 45, 74
2, 32367, Note_on_c, 0, 100, 92
2, 32391, Note_on_c, 0, 40, 72
2, 32451, Note_on_c, 0, 98, 91
2, 32509, Note_on_c, 0, 45, 0
2, 32517, Note_on_c, 0, 33, 0
2, 32520, Note_on_c, 0, 45, 73
2, 32522, Note_on_c, 0, 33, 77
2, 32527, Note_on_c, 0, 97, 86
2, 32618, Note_on_c, 0, 93, 87
2, 32690, Note_on_c, 0, 88, 82
2, 32692, Note_on_c, 0, 49, 73
2, 32781, Note_on_c, 0, 86, 76
2, 32847, Note_on_c, 0, 49, 0
2, 32855, Note_on_c, 0, 49, 64
2, 32858, Note_on_c, 0, 85, 85
2, 32866, Note_on_c, 0, 52, 64
2, 32942, Note_on_c, 0, 81, 79
2, 32943, Note_on_c, 0, 57, 61
2, 33008, Note_on_c, 0, 57, 0
2, 33013, Note_on_c, 0, 57, 71
2, 33018, Note_on_c, 0, 76, 82
2, 33070, Note_on_c, 0, 85, 0
2, 33074, Note_on_c, 0, 85, 70
2, 33111, Note_on_c, 0, 74, 69
2, 33146, Note_on_c, 0, 61, 0
2, 33156, Note_on_c, 0, 61, 70
2, 33185, Note_on_c, 0, 73, 0
2, 33193, Note_on_c, 0, 73, 80
2, 33277, Note_on_c, 0, 57, 0
2, 33277, Note_on_c, 0, 69, 0
2, 33277, Note_on_c, 0, 76, 0
2, 33281, Note_on_c, 0, 76, 65
2, 33282, Note_on_c, 0, 69, 70
2, 33282, Note_on_c, 0, 57, 61
2, 33354, Note_on_c, 0, 61, 0
2, 33358, Note_on_c, 0, 64, 74
2, 33364, Note_on_c, 0, 61, 61
2, 33468, Note_on_c, 0, 74, 0
2, 33468, Note_on_c, 0, 81, 0
2, 33468, Note_on_c, 0, 97, 0
2, 33468, Note_on_c, 0, 86, 0
2, 33469, Note_on_c, 0, 100, 0
2, 33469, Note_on_c, 0, 93, 0
2, 33470, Note_on_c, 0, 64, 0
2, 33470, Note_on_c, 0, 88, 0
2, 33470, Note_on_c, 0, 61, 0
2, 33470, Note_on_c, 0, 85, 0
2, 33471, Note_on_c, 0, 69, 0
2, 33471, Note_on_c, 0, 76, 0
2, 33471, Note_on_c, 0, 73, 0
2, 33472, Note_on_c, 0, 45, 0
2, 33472, Control_c, 0, 64, 0
2, 33472, Note_on_c, 0, 57, 0
2, 33473, Note_on_c, 0, 49, 0
2, 33484, Note_on_c, 0, 40, 0
2, 33492, Note_on_c, 0, 52, 0
2, 33492, Note_on_c, 0, 98, 0
2, 33500, Note_on_c, 0, 33, 0
2, 33531, Note_on_c, 0, 71, 96
2, 33533, Note_on_c, 0, 55, 77
2, 33533, Note_on_c, 0, 67, 82
2, 33535, Note_on_c, 0, 62, 80
2, 33592, Control_c, 0, 64, 127
2, 33624, Note_on_c, 0, 43, 71
2, 33718, Note_on_c, 0, 50, 61
2, 33845, Note_on_c, 0, 55, 0
2, 33852, Note_on_c, 0, 73, 91
2, 33855, Note_on_c, 0, 55, 79
2, 33876, Note_on_c, 0, 67, 0
2, 34022, Note_on_c, 0, 55, 0
2, 34026, Note_on_c, 0, 69, 91
2, 34027, Note_on_c, 0, 59, 78
2, 34029, Note_on_c, 0, 55, 67
2, 34183, Note_on_c, 0, 69, 0
2, 34194, Note_on_c, 0, 69, 68
2, 34287, Note_on_c, 0, 74, 74
2, 34352, Note_on_c, 0, 55, 0
2, 34353, Note_on_c, 0, 67, 61
2, 34363, Note_on_c, 0, 55, 60
2, 34381, Note_on_c, 0, 77, 63
2, 34442, Note_on_c, 0, 81, 79
2, 34513, Note_on_c, 0, 50, 0
2, 34516, Note_on_c, 0, 86, 85
2, 34524, Note_on_c, 0, 50, 55
2, 34592, Note_on_c, 0, 88, 81
2, 34675, Note_on_c, 0, 43, 0
2, 34676, Note_on_c, 0, 93, 98
2, 34678, Control_c, 0, 64, 0
2, 34680, Note_on_c, 0, 42, 77
2, 34744, Note_on_c, 0, 88, 0
2, 34755, Note_on_c, 0, 88, 77
2, 34775, Control_c, 0, 64, 127
2, 34828, Note_on_c, 0, 86, 0
2, 34828, Note_on_c, 0, 88, 0
2, 34835, Note_on_c, 0, 86, 77
2, 34837, Note_on_c, 0, 88, 62
2, 34905, Note_on_c, 0, 81, 0
2, 34912, Note_on_c, 0, 81, 76
2, 34974, Note_on_c, 0, 50, 0
2, 34983, Note_on_c, 0, 50, 68
2, 34986, Note_on_c, 0, 76, 72
2, 35059, Note_on_c, 0, 74, 0
2, 35069, Note_on_c, 0, 74, 72
2, 35128, Note_on_c, 0, 69, 0
2, 35133, Note_on_c, 0, 69, 69
2, 35145, Note_on_c, 0, 54, 69
2, 35220, Note_on_c, 0, 62, 0
2, 35228, Note_on_c, 0, 62, 77
2, 35320, Note_on_c, 0, 69, 0
2, 35328, Note_on_c, 0, 69, 65
2, 35328, Note_on_c, 0, 57, 72
2, 35496, Note_on_c, 0, 73, 0
2, 35502, Note_on_c, 0, 73, 90
2, 35658, Note_on_c, 0, 54, 0
2, 35663, Note_on_c, 0, 54, 73
2, 35827, Note_on_c, 0, 50, 0
2, 35827, Note_on_c, 0, 74, 0
2, 35835, Note_on_c, 0, 50, 69
2, 35837, Note_on_c, 0, 74, 90
2, 36011, Note_on_c, 0, 76, 0
2, 36016, Note_on_c, 0, 76, 95
2, 36119, Note_on_c, 0, 71, 0
2, 36126, Note_on_c, 0, 55, 0
2, 36126, Note_on_c, 0, 54, 0
2, 36126, Note_on_c, 0, 57, 0
2, 36127, Note_on_c, 0, 50, 0
2, 36128, Note_on_c, 0, 69, 0
2, 36128, Note_on_c, 0, 74, 0
2, 36128, Note_on_c, 0, 62, 0
2, 36128, Note_on_c, 0, 81, 0
2, 36128, Note_on_c, 0, 42, 0
2, 36128, Note_on_c, 0, 93, 0
2, 36128, Note_on_c, 0, 86, 0
2, 36129, Note_on_c, 0, 88, 0
2, 36129, Note_on_c, 0, 73, 0
2, 36129, Control_c, 0, 64, 0
2, 36134, Note_on_c, 0, 59, 0
2, 36142, Note_on_c, 0, 67, 0
2, 36142, Note_on_c, 0, 77, 0
2, 36168, Note_on_c, 0, 40, 70
2, 36218, Control_c, 0, 64, 127
2, 36346, Note_on_c, 0, 52, 73
2, 36358, Note_on_c, 0, 47, 61
2, 36438, Note_on_c, 0, 57, 69
2, 36509, Note_on_c, 0, 59, 72
2, 36618, Note_on_c, 0, 64, 68
2, 36672, Note_on_c, 0, 52, 0
2, 36677, Note_on_c, 0, 52, 72
2, 36695, Note_on_c, 0, 69, 73
2, 36776, Note_on_c, 0, 71, 76
2, 36848, Note_on_c, 0, 76, 0
2, 36859, Note_on_c, 0, 76, 79
2, 36933, Note_on_c, 0, 81, 84
2, 37017, Note_on_c, 0, 59, 0
2, 37017, Note_on_c, 0, 76, 0
2, 37022, Note_on_c, 0, 59, 73
2, 37024, Note_on_c, 0, 76, 64
2, 37099, Note_on_c, 0, 88, 74
2, 37127, Note_on_c, 0, 83, 55
2, 37170, Note_on_c, 0, 93, 81
2, 37252, Note_on_c, 0, 95, 79
2, 37347, Note_on_c, 0, 64, 0
2, 37352, Note_on_c, 0, 100, 96
2, 37354, Note_on_c, 0, 64, 60
2, 37399, Control_c, 0, 64, 0
2, 37516, Control_c, 0, 64, 127
2, 37678, Note_on_c, 0, 95, 0
2, 37687, Note_on_c, 0, 95, 69
2, 37770, Note_on_c, 0, 93, 0
2, 37775, Note_on_c, 0, 93, 76
2, 37868, Note_on_c, 0, 92, 72
2, 37931, Note_on_c, 0, 88, 0
2, 37935, Note_on_c, 0, 88, 68
2, 38008, Note_on_c, 0, 52, 0
2, 38008, Note_on_c, 0, 83, 0
2, 38015, Note_on_c, 0, 52, 42
2, 38016, Note_on_c, 0, 83, 75
2, 38092, Note_on_c, 0, 81, 0
2, 38099, Note_on_c, 0, 81, 74
2, 38200, Note_on_c, 0, 80, 65
2, 38269, Note_on_c, 0, 76, 0
2, 38276, Note_on_c, 0, 76, 63
2, 38353, Note_on_c, 0, 71, 0
2, 38364, Note_on_c, 0, 71, 64
2, 38438, Note_on_c, 0, 69, 0
2, 38445, Note_on_c, 0, 69, 63
2, 38545, Note_on_c, 0, 69, 0
2, 38547, Note_on_c, 0, 68, 50
2, 38552, Note_on_c, 0, 69, 56
2, 38576, Note_on_c, 0, 64, 0
2, 38587, Note_on_c, 0, 64, 56
2, 38645, Note_on_c, 0, 69, 0
2, 38652, Note_on_c, 0, 69, 53
2, 38661, Note_on_c, 0, 52, 0
2, 38671, Note_on_c, 0, 52, 52
2, 38863, Note_on_c, 0, 40, 0
2, 38864, Note_on_c, 0, 95, 0
2, 38864, Note_on_c, 0, 100, 0
2, 38864, Note_on_c, 0, 81, 0
2, 38864, Note_on_c, 0, 93, 0
2, 38864, Note_on_c, 0, 83, 0
2, 38864, Note_on_c, 0, 64, 0
2, 38864, Note_on_c, 0, 88, 0
2, 38865, Note_on_c, 0, 76, 0
2, 38865, Note_on_c, 0, 80, 0
2, 38865, Note_on_c, 0, 71, 0
2, 38865, Note_on_c, 0, 59, 0
2, 38866, Note_on_c, 0, 92, 0
2, 38866, Note_on_c, 0, 69, 0
2, 38868, Control_c, 0, 64, 0
2, 38876, Note_on_c, 0, 47, 0
2, 38881, Note_on_c, 0, 73, 65
2, 38883, Note_on_c, 0, 52, 0
2, 38883, Note_on_c, 0, 68, 0
2, 38891, Note_on_c, 0, 57, 0
2, 38893, Note_on_c, 0, 50, 50
2, 38893, Note_on_c, 0, 52, 49
2, 38922, Control_c, 0, 64, 127
2, 39148, Note_on_c, 0, 74, 62
2, 39409, Note_on_c, 0, 57, 48
2, 39409, Note_on_c, 0, 76, 74
2, 39575, Note_on_c, 0, 76, 0
2, 39578, Note_on_c, 0, 76, 51
2, 39731, Note_on_c, 0, 62, 45
2, 39905, Note_on_c, 0, 69, 57
2, 40066, Note_on_c, 0, 62, 0
2, 40070, Note_on_c, 0, 62, 58
2, 40244, Note_on_c, 0, 85, 63
2, 40263, Note_on_c, 0, 81, 48
2, 40265, Note_on_c, 0, 78, 46
2, 40266, Note_on_c, 0, 74, 0
2, 40270, Note_on_c, 0, 74, 40
2, 40404, Note_on_c, 0, 78, 0
2, 40415, Note_on_c, 0, 78, 40
2, 40503, Note_on_c, 0, 86, 57
2, 40790, Note_on_c, 0, 88, 69
2, 40803, Note_on_c, 0, 81, 0
2, 40811, Note_on_c, 0, 69, 0
2, 40814, Note_on_c, 0, 81, 37
2, 40820, Note_on_c, 0, 69, 36
2, 41095, Note_on_c, 0, 62, 0
2, 41100, Note_on_c, 0, 62, 50
2, 41280, Note_on_c, 0, 69, 0
2, 41291, Note_on_c, 0, 69, 54
2, 41425, Note_on_c, 0, 62, 0
2, 41425, Note_on_c, 0, 76, 0
2, 41432, Note_on_c, 0, 62, 60
2, 41435, Note_on_c, 0, 76, 70
2, 41593, Note_on_c, 0, 81, 0
2, 41594, Note_on_c, 0, 50, 0
2, 41595, Note_on_c, 0, 86, 0
2, 41595, Note_on_c, 0, 62, 0
2, 41595, Note_on_c, 0, 78, 0
2, 41596, Note_on_c, 0, 57, 0
2, 41596, Note_on_c, 0, 85, 0
2, 41596, Note_on_c, 0, 73, 0
2, 41596, Note_on_c, 0, 88, 0
2, 41596, Note_on_c, 0, 74, 0
2, 41597, Note_on_c, 0, 76, 0
2, 41604, Control_c, 0, 64, 0
2, 41616, Note_on_c, 0, 80, 86
2, 41617, Note_on_c, 0, 69, 0
2, 41644, Note_on_c, 0, 71, 58
2, 41656, Note_on_c, 0, 45, 59
2, 41656, Control_c, 0, 64, 127
2, 41664, Note_on_c, 0, 52, 0
2, 41925, Note_on_c, 0, 80, 0
2, 41935, Note_on_c, 0, 80, 79
2, 41955, Note_on_c, 0, 71, 0
2, 41959, Note_on_c, 0, 71, 60
2, 41960, Note_on_c, 0, 76, 37
2, 42136, Note_on_c, 0, 81, 78
2, 42136, Note_on_c, 0, 52, 56
2, 42144, Control_c, 0, 64, 0
2, 42147, Note_on_c, 0, 45, 0
2, 42151, Note_on_c, 0, 73, 62
2, 42153, Note_on_c, 0, 76, 0
2, 42154, Note_on_c, 0, 45, 40
2, 42154, Note_on_c, 0, 71, 0
2, 42193, Control_c, 0, 64, 127
2, 42201, Note_on_c, 0, 80, 0
2, 42255, Note_on_c, 0, 73, 0
2, 42259, Note_on_c, 0, 73, 55
2, 42270, Note_on_c, 0, 52, 0
2, 42274, Note_on_c, 0, 52, 47
2, 42447, Note_on_c, 0, 52, 0
2, 42458, Note_on_c, 0, 64, 51
2, 42458, Note_on_c, 0, 76, 74
2, 42458, Note_on_c, 0, 52, 50
2, 42624, Note_on_c, 0, 76, 0
2, 42628, Note_on_c, 0, 76, 70
2, 42660, Note_on_c, 0, 69, 44
2, 42739, Note_on_c, 0, 76, 0
2, 42747, Note_on_c, 0, 76, 59
2, 42808, Note_on_c, 0, 64, 0
2, 42813, Note_on_c, 0, 64, 47
2, 42892, Note_on_c, 0, 52, 0
2, 42903, Note_on_c, 0, 52, 38
2, 42984, Note_on_c, 0, 76, 0
2, 42985, Note_on_c, 0, 92, 78
2, 42992, Note_on_c, 0, 52, 0
2, 42995, Note_on_c, 0, 76, 60
2, 42996, Note_on_c, 0, 83, 61
2, 43002, Note_on_c, 0, 52, 40
2, 43284, Note_on_c, 0, 92, 0
2, 43292, Note_on_c, 0, 83, 0
2, 43295, Note_on_c, 0, 92, 71
2, 43296, Note_on_c, 0, 83, 63
2, 43315, Note_on_c, 0, 52, 0
2, 43322, Note_on_c, 0, 52, 28
2, 43484, Note_on_c, 0, 69, 0
2, 43488, Note_on_c, 0, 93, 72
2, 43491, Note_on_c, 0, 81, 0
2, 43495, Note_on_c, 0, 69, 50
2, 43496, Note_on_c, 0, 85, 64
2, 43496, Note_on_c, 0, 81, 44
2, 43808, Note_on_c, 0, 88, 66
2, 43814, Note_on_c, 0, 64, 0
2, 43814, Note_on_c, 0, 76, 0
2, 43822, Note_on_c, 0, 76, 44
2, 43823, Note_on_c, 0, 64, 51
2, 43975, Note_on_c, 0, 88, 0
2, 43983, Note_on_c, 0, 69, 0
2, 43983, Note_on_c, 0, 76, 0
2, 43983, Note_on_c, 0, 81, 0
2, 43983, Note_on_c, 0, 88, 71
2, 43988, Note_on_c, 0, 69, 60
2, 43989, Note_on_c, 0, 76, 40
2, 43989, Note_on_c, 0, 81, 50
2, 44129, Note_on_c, 0, 64, 0
2, 44134, Note_on_c, 0, 64, 60
2, 44313, Note_on_c, 0, 73, 0
2, 44317, Note_on_c, 0, 73, 80
2, 44321, Note_on_c, 0, 81, 0
2, 44328, Note_on_c, 0, 69, 0
2, 44330, Note_on_c, 0, 81, 56
2, 44334, Note_on_c, 0, 69, 63
2, 44336, Note_on_c, 0, 45, 0
2, 44336, Note_on_c, 0, 85, 0
2, 44337, Note_on_c, 0, 93, 0
2, 44337, Note_on_c, 0, 52, 0
2, 44337, Note_on_c, 0, 92, 0
2, 44338, Note_on_c, 0, 83, 0
2, 44339, Note_on_c, 0, 76, 0
2, 44339, Note_on_c, 0, 88, 0
2, 44339, Note_on_c, 0, 64, 0
2, 44339, Control_c, 0, 64, 0
2, 44348, Note_on_c, 0, 47, 58
2, 44413, Note_on_c, 0, 81, 0
2, 44421, Control_c, 0, 64, 127
2, 44577, Note_on_c, 0, 74, 79
2, 44577, Note_on_c, 0, 86, 68
2, 44582, Note_on_c, 0, 86, 0
2, 44849, Note_on_c, 0, 76, 82
2, 44851, Note_on_c, 0, 69, 0
2, 44854, Note_on_c, 0, 88, 70
2, 44858, Note_on_c, 0, 88, 0
2, 44867, Note_on_c, 0, 54, 52
2, 45196, Note_on_c, 0, 74, 0
2, 45202, Note_on_c, 0, 74, 53
2, 45205, Note_on_c, 0, 62, 55
2, 45352, Note_on_c, 0, 69, 61
2, 45496, Note_on_c, 0, 62, 0
2, 45504, Note_on_c, 0, 62, 55
2, 45668, Note_on_c, 0, 85, 74
2, 45688, Note_on_c, 0, 74, 0
2, 45688, Note_on_c, 0, 81, 53
2, 45696, Note_on_c, 0, 69, 0
2, 45697, Note_on_c, 0, 74, 52
2, 45702, Note_on_c, 0, 78, 53
2, 45706, Note_on_c, 0, 69, 36
2, 45937, Note_on_c, 0, 86, 73
2, 46191, Note_on_c, 0, 88, 82
2, 46195, Note_on_c, 0, 76, 0
2, 46199, Note_on_c, 0, 76, 33
2, 46202, Note_on_c, 0, 69, 0
2, 46206, Note_on_c, 0, 69, 52
2, 46494, Note_on_c, 0, 62, 0
2, 46504, Note_on_c, 0, 62, 57
2, 46702, Note_on_c, 0, 69, 0
2, 46709, Note_on_c, 0, 69, 49
2, 46855, Note_on_c, 0, 62, 0
2, 46855, Note_on_c, 0, 76, 0
2, 46859, Note_on_c, 0, 62, 62
2, 46862, Note_on_c, 0, 76, 72
2, 46917, Note_on_c, 0, 76, 0
2, 46928, Note_on_c, 0, 76, 46
2, 47024, Note_on_c, 0, 74, 0
2, 47032, Note_on_c, 0, 74, 80
2, 47046, Note_on_c, 0, 45, 62
2, 47067, Control_c, 0, 64, 0
2, 47068, Note_on_c, 0, 54, 0
2, 47068, Note_on_c, 0, 86, 0
2, 47068, Note_on_c, 0, 69, 0
2, 47068, Note_on_c, 0, 85, 0
2, 47068, Note_on_c, 0, 81, 0
2, 47069, Note_on_c, 0, 47, 0
2, 47070, Note_on_c, 0, 78, 0
2, 47071, Note_on_c, 0, 62, 0
2, 47071, Note_on_c, 0, 76, 0
2, 47071, Note_on_c, 0, 88, 0
2, 47086, Note_on_c, 0, 73, 0
2, 47116, Control_c, 0, 64, 127
2, 47207, Note_on_c, 0, 73, 76
2, 47479, Control_c, 0, 64, 0
2, 47493, Control_c, 0, 64, 127
2, 47542, Note_on_c, 0, 76, 77
2, 47551, Control_c, 0, 64, 0
2, 47552, Note_on_c, 0, 52, 61
2, 47639, Note_on_c, 0, 74, 0
2, 47646, Control_c, 0, 64, 127
2, 47880, Note_on_c, 0, 64, 53
2, 48038, Note_on_c, 0, 69, 61
2, 48168, Note_on_c, 0, 64, 0
2, 48173, Note_on_c, 0, 64, 55
2, 48353, Note_on_c, 0, 73, 0
2, 48361, Note_on_c, 0, 73, 61
2, 48527, Note_on_c, 0, 93, 75
2, 48694, Note_on_c, 0, 88, 70
2, 48860, Note_on_c, 0, 69, 0
2, 48871, Note_on_c, 0, 86, 64
2, 48871, Note_on_c, 0, 69, 53
2, 48967, Note_on_c, 0, 86, 0
2, 48978, Note_on_c, 0, 86, 48
2, 49033, Note_on_c, 0, 85, 68
2, 49182, Note_on_c, 0, 85, 0
2, 49192, Note_on_c, 0, 85, 57
2, 49193, Note_on_c, 0, 81, 81
2, 49209, Note_on_c, 0, 50, 31
2, 49221, Note_on_c, 0, 50, 0
2, 49336, Note_on_c, 0, 64, 0
2, 49343, Note_on_c, 0, 64, 62
2, 49344, Note_on_c, 0, 52, 0
2, 49350, Note_on_c, 0, 52, 40
2, 49367, Note_on_c, 0, 76, 0
2, 49373, Note_on_c, 0, 76, 64
2, 49516, Note_on_c, 0, 74, 67
2, 49536, Note_on_c, 0, 76, 0
2, 49541, Note_on_c, 0, 76, 51
2, 49643, Note_on_c, 0, 74, 0
2, 49652, Note_on_c, 0, 74, 49
2, 49697, Note_on_c, 0, 73, 0
2, 49704, Note_on_c, 0, 73, 80
2, 49708, Note_on_c, 0, 61, 75
2, 49729, Note_on_c, 0, 38, 60
2, 49973, Note_on_c, 0, 45, 0
2, 49983, Note_on_c, 0, 45, 64
2, 49983, Note_on_c, 0, 62, 85
2, 50219, Note_on_c, 0, 64, 0
2, 50229, Note_on_c, 0, 64, 80
2, 50241, Note_on_c, 0, 54, 59
2, 50247, Control_c, 0, 64, 0
2, 50288, Note_on_c, 0, 52, 0
2, 50288, Control_c, 0, 64, 127
2, 50327, Note_on_c, 0, 74, 0
2, 50597, Note_on_c, 0, 50, 47
2, 50768, Note_on_c, 0, 57, 59
2, 50880, Note_on_c, 0, 50, 0
2, 50885, Note_on_c, 0, 50, 50
2, 50918, Note_on_c, 0, 73, 0
2, 50924, Note_on_c, 0, 73, 64
2, 51095, Note_on_c, 0, 69, 0
2, 51095, Note_on_c, 0, 73, 0
2, 51100, Note_on_c, 0, 73, 76
2, 51104, Note_on_c, 0, 66, 61
2, 51106, Note_on_c, 0, 69, 52
2, 51354, Note_on_c, 0, 74, 75
2, 51356, Note_on_c, 0, 62, 0
2, 51362, Note_on_c, 0, 62, 63
2, 51617, Note_on_c, 0, 76, 0
2, 51627, Note_on_c, 0, 76, 76
2, 51632, Note_on_c, 0, 57, 0
2, 51638, Note_on_c, 0, 57, 54
2, 51840, Note_on_c, 0, 61, 0
2, 51840, Note_on_c, 0, 81, 0
2, 51840, Note_on_c, 0, 85, 0
2, 51840, Note_on_c, 0, 86, 0
2, 51840, Note_on_c, 0, 88, 0
2, 51840, Note_on_c, 0, 93, 0
2, 51916, Note_on_c, 0, 50, 0
2, 51927, Note_on_c, 0, 50, 58
2, 52101, Note_on_c, 0, 57, 0
2, 52109, Note_on_c, 0, 57, 63
2, 52254, Note_on_c, 0, 50, 0
2, 52254, Note_on_c, 0, 64, 0
2, 52262, Note_on_c, 0, 64, 78
2, 52264, Note_on_c, 0, 50, 58
2, 52439, Note_on_c, 0, 69, 0
2, 52448, Note_on_c, 0, 69, 83
2, 52454, Note_on_c, 0, 45, 0
2, 52458, Note_on_c, 0, 45, 66
2, 52458, Note_on_c, 0, 61, 63
2, 52459, Note_on_c, 0, 49, 55
2, 52462, Control_c, 0, 64, 0
2, 52469, Note_on_c, 0, 49, 0
2, 52469, Note_on_c, 0, 54, 0
2, 52554, Control_c, 0, 64, 127
2, 52615, Note_on_c, 0, 62, 0
2, 52661, Note_on_c, 0, 38, 0
2, 52684, Note_on_c, 0, 50, 0
2, 52700, Note_on_c, 0, 61, 0
2, 52704, Note_on_c, 0, 68, 87
2, 52711, Note_on_c, 0, 61, 52
2, 52711, Note_on_c, 0, 52, 69
2, 52730, Note_on_c, 0, 74, 0
2, 52930, Note_on_c, 0, 76, 0
2, 52938, Note_on_c, 0, 69, 0
2, 52942, Note_on_c, 0, 69, 89
2, 52953, Note_on_c, 0, 57, 0
2, 52953, Note_on_c, 0, 61, 0
2, 52960, Control_c, 0, 64, 0
2, 52961, Note_on_c, 0, 52, 0
2, 52963, Note_on_c, 0, 57, 61
2, 52963, Note_on_c, 0, 61, 62
2, 52965, Note_on_c, 0, 73, 0
2, 52968, Note_on_c, 0, 68, 0
2, 52971, Note_on_c, 0, 52, 57
2, 52976, Note_on_c, 0, 66, 0
2, 52984, Note_on_c, 0, 64, 0
2, 53007, Control_c, 0, 64, 127
2, 53253, Note_on_c, 0, 52, 0
2, 53256, Note_on_c, 0, 71, 84
2, 53264, Note_on_c, 0, 52, 63
2, 53374, Control_c, 0, 64, 0
2, 53399, Control_c, 0, 64, 127
2, 53422, Note_on_c, 0, 52, 0
2, 53422, Note_on_c, 0, 61, 0
2, 53422, Note_on_c, 0, 69, 0
2, 53426, Note_on_c, 0, 69, 77
2, 53430, Note_on_c, 0, 52, 63
2, 53431, Note_on_c, 0, 44, 63
2, 53433, Note_on_c, 0, 61, 67
2, 53591, Note_on_c, 0, 69, 0
2, 53602, Note_on_c, 0, 69, 80
2, 53606, Note_on_c, 0, 61, 0
2, 53611, Note_on_c, 0, 61, 52
2, 53736, Note_on_c, 0, 52, 0
2, 53747, Note_on_c, 0, 52, 51
2, 53753, Note_on_c, 0, 71, 0
2, 53753, Note_on_c, 0, 61, 0
2, 53755, Note_on_c, 0, 44, 0
2, 53764, Control_c, 0, 64, 0
2, 53767, Note_on_c, 0, 45, 0
2, 53767, Note_on_c, 0, 57, 0
2, 53790, Note_on_c, 0, 81, 74
2, 53790, Note_on_c, 0, 52, 0
2, 53790, Note_on_c, 0, 69, 0
2, 53795, Note_on_c, 0, 69, 58
2, 53795, Note_on_c, 0, 42, 57
2, 53875, Control_c, 0, 64, 127
2, 53925, Note_on_c, 0, 61, 45
2, 54005, Control_c, 0, 64, 0
2, 54048, Note_on_c, 0, 80, 73
2, 54055, Note_on_c, 0, 52, 59
2, 54077, Note_on_c, 0, 73, 41
2, 54090, Control_c, 0, 64, 127
2, 54282, Note_on_c, 0, 81, 0
2, 54286, Note_on_c, 0, 81, 76
2, 54305, Note_on_c, 0, 69, 0
2, 54305, Note_on_c, 0, 73, 0
2, 54309, Note_on_c, 0, 73, 57
2, 54309, Note_on_c, 0, 57, 53
2, 54315, Note_on_c, 0, 69, 54
2, 54520, Note_on_c, 0, 61, 0
2, 54612, Note_on_c, 0, 52, 0
2, 54615, Note_on_c, 0, 64, 79
2, 54617, Note_on_c, 0, 52, 63
2, 54650, Note_on_c, 0, 69, 0
2, 54655, Note_on_c, 0, 69, 43
2, 54773, Note_on_c, 0, 42, 0
2, 54785, Note_on_c, 0, 42, 61
2, 54785, Note_on_c, 0, 62, 79
2, 54957, Note_on_c, 0, 61, 76
2, 55102, Note_on_c, 0, 61, 0
2, 55102, Note_on_c, 0, 69, 0
2, 55103, Note_on_c, 0, 73, 0
2, 55103, Note_on_c, 0, 52, 0
2, 55103, Note_on_c, 0, 81, 0
2, 55105, Note_on_c, 0, 62, 0
2, 55105, Note_on_c, 0, 80, 0
2, 55106, Note_on_c, 0, 64, 0
2, 55107, Control_c, 0, 64, 0
2, 55119, Note_on_c, 0, 57, 0
2, 55130, Note_on_c, 0, 35, 53
2, 55134, Note_on_c, 0, 42, 0
2, 55180, Note_on_c, 0, 35, 0
2, 55185, Note_on_c, 0, 35, 51
2, 55280, Control_c, 0, 64, 127
2, 55287, Note_on_c, 0, 76, 69
2, 55464, Note_on_c, 0, 74, 63
2, 55645, Note_on_c, 0, 73, 67
2, 55649, Note_on_c, 0, 35, 0
2, 55653, Note_on_c, 0, 47, 46
2, 55656, Note_on_c, 0, 35, 41
2, 55975, Note_on_c, 0, 50, 58
2, 56141, Note_on_c, 0, 54, 54
2, 56295, Note_on_c, 0, 57, 64
2, 56475, Note_on_c, 0, 76, 0
2, 56475, Note_on_c, 0, 74, 0
2, 56476, Note_on_c, 0, 50, 0
2, 56476, Note_on_c, 0, 54, 0
2, 56476, Note_on_c, 0, 73, 0
2, 56477, Note_on_c, 0, 47, 0
2, 56480, Control_c, 0, 64, 0
2, 56483, Note_on_c, 0, 35, 0
2, 56485, Note_on_c, 0, 40, 52
2, 56609, Control_c, 0, 64, 127
2, 56638, Note_on_c, 0, 35, 47
2, 56648, Note_on_c, 0, 47, 47
2, 56778, Note_on_c, 0, 35, 0
2, 56809, Note_on_c, 0, 52, 69
2, 56992, Note_on_c, 0, 62, 76
2, 56993, Note_on_c, 0, 56, 54
2, 57108, Note_on_c, 0, 57, 0
2, 57162, Control_c, 0, 64, 0
2, 57246, Control_c, 0, 64, 127
2, 57336, Note_on_c, 0, 61, 70
2, 57492, Note_on_c, 0, 52, 0
2, 57500, Note_on_c, 0, 59, 71
2, 57503, Note_on_c, 0, 52, 46
2, 57680, Note_on_c, 0, 57, 68
2, 57681, Note_on_c, 0, 61, 0
2, 57682, Note_on_c, 0, 56, 0
2, 57682, Note_on_c, 0, 47, 0
2, 57682, Note_on_c, 0, 52, 0
2, 57683, Note_on_c, 0, 59, 0
2, 57684, Note_on_c, 0, 62, 0
2, 57695, Control_c, 0, 64, 0
2, 57845, Control_c, 0, 64, 127
2, 57858, Note_on_c, 0, 45, 35
2, 57993, Note_on_c, 0, 52, 57
2, 58152, Note_on_c, 0, 57, 0
2, 58158, Note_on_c, 0, 57, 60
2, 58159, Note_on_c, 0, 69, 62
2, 58329, Note_on_c, 0, 52, 0
2, 58334, Note_on_c, 0, 52, 49
2, 58334, Note_on_c, 0, 74, 79
2, 58338, Note_on_c, 0, 64, 56
2, 58356, Control_c, 0, 64, 0
2, 58375, Control_c, 0, 64, 127
2, 58661, Note_on_c, 0, 73, 66
2, 58833, Note_on_c, 0, 71, 68
2, 58836, Note_on_c, 0, 57, 0
2, 58836, Note_on_c, 0, 69, 0
2, 58846, Note_on_c, 0, 57, 44
2, 58847, Note_on_c, 0, 69, 55
2, 59005, Note_on_c, 0, 57, 0
2, 59005, Note_on_c, 0, 69, 0
2, 59011, Note_on_c, 0, 69, 68
2, 59012, Note_on_c, 0, 57, 49
2, 59043, Note_on_c, 0, 52, 0
2, 59047, Note_on_c, 0, 73, 0
2, 59047, Note_on_c, 0, 64, 0
2, 59047, Note_on_c, 0, 74, 0
2, 59047, Note_on_c, 0, 71, 0
2, 59066, Note_on_c, 0, 40, 0
2, 59071, Control_c, 0, 64, 0
2, 59105, Control_c, 0, 64, 127
2, 59159, Note_on_c, 0, 45, 0
2, 59178, Note_on_c, 0, 81, 73
2, 59182, Note_on_c, 0, 69, 0
2, 59189, Note_on_c, 0, 69, 56
2, 59510, Note_on_c, 0, 64, 48
2, 59520, Control_c, 0, 64, 0
2, 59719, Control_c, 0, 64, 127
2, 59842, Control_c, 0, 64, 0
2, 59873, Note_on_c, 0, 69, 0
2, 59884, Note_on_c, 0, 69, 51
2, 60034, Control_c, 0, 64, 127
2, 60632, Note_on_c, 0, 78, 60
2, 60635, Note_on_c, 0, 62, 53
2, 60636, Note_on_c, 0, 74, 47
2, 60637, Note_on_c, 0, 66, 45
2, 60641, Note_on_c, 0, 74, 0
2, 60644, Note_on_c, 0, 81, 0
2, 60646, Note_on_c, 0, 64, 0
2, 60659, Control_c, 0, 64, 0
2, 60679, Note_on_c, 0, 57, 0
2, 60712, Note_on_c, 0, 62, 0
2, 60720, Note_on_c, 0, 66, 0
2, 60748, Note_on_c, 0, 69, 0
2, 60815, Note_on_c, 0, 66, 58
2, 60817, Note_on_c, 0, 76, 58
2, 60847, Note_on_c, 0, 62, 42
2, 60856, Note_on_c, 0, 78, 0
2, 60858, Note_on_c, 0, 66, 0
2, 60986, Note_on_c, 0, 78, 65
2, 60997, Note_on_c, 0, 66, 48
2, 61017, Note_on_c, 0, 76, 0
2, 61025, Note_on_c, 0, 62, 0
2, 61117, Note_on_c, 0, 66, 0
2, 61151, Note_on_c, 0, 71, 65
2, 61153, Note_on_c, 0, 64, 53
2, 61158, Note_on_c, 0, 68, 52
2, 61163, Note_on_c, 0, 78, 0
2, 61167, Note_on_c, 0, 62, 34
2, 61248, Control_c, 0, 64, 127
2, 61487, Note_on_c, 0, 73, 61
2, 61493, Note_on_c, 0, 62, 0
2, 61500, Note_on_c, 0, 62, 51
2, 61580, Note_on_c, 0, 71, 0
2, 61582, Note_on_c, 0, 64, 0
2, 61594, Note_on_c, 0, 62, 0
2, 61639, Control_c, 0, 64, 0
2, 61655, Note_on_c, 0, 68, 0
2, 61665, Note_on_c, 0, 68, 53
2, 61666, Note_on_c, 0, 74, 66
2, 61667, Note_on_c, 0, 64, 49
2, 61690, Note_on_c, 0, 73, 0
2, 61697, Note_on_c, 0, 64, 0
2, 61698, Note_on_c, 0, 68, 0
2, 61832, Note_on_c, 0, 76, 72
2, 61854, Note_on_c, 0, 74, 0
2, 61997, Note_on_c, 0, 64, 63
2, 61998, Note_on_c, 0, 61, 64
2, 62044, Note_on_c, 0, 64, 0
2, 62047, Note_on_c, 0, 61, 0
2, 62176, Note_on_c, 0, 73, 68
2, 62177, Note_on_c, 0, 64, 50
2, 62180, Note_on_c, 0, 61, 55
2, 62217, Note_on_c, 0, 61, 0
2, 62217, Note_on_c, 0, 64, 0
2, 62238, Note_on_c, 0, 76, 0
2, 62335, Note_on_c, 0, 73, 0
2, 62344, Note_on_c, 0, 71, 65
2, 62360, Note_on_c, 0, 61, 37
2, 62363, Note_on_c, 0, 64, 34
2, 62369, Note_on_c, 0, 64, 0
2, 62510, Note_on_c, 0, 73, 72
2, 62512, Note_on_c, 0, 64, 53
2, 62515, Note_on_c, 0, 61, 0
2, 62515, Note_on_c, 0, 71, 0
2, 62524, Note_on_c, 0, 61, 50
2, 62527, Note_on_c, 0, 69, 53
2, 62532, Note_on_c, 0, 54, 46
2, 62615, Control_c, 0, 64, 127
2, 62845, Note_on_c, 0, 54, 0
2, 62856, Note_on_c, 0, 54, 47
2, 63006, Note_on_c, 0, 64, 0
2, 63014, Note_on_c, 0, 61, 0
2, 63017, Note_on_c, 0, 64, 65
2, 63020, Note_on_c, 0, 61, 53
2, 63183, Note_on_c, 0, 76, 70
2, 63245, Note_on_c, 0, 64, 0
2, 63248, Note_on_c, 0, 61, 0
2, 63293, Note_on_c, 0, 54, 0
2, 63340, Control_c, 0, 64, 0
2, 63344, Note_on_c, 0, 74, 76
2, 63347, Note_on_c, 0, 59, 64
2, 63348, Note_on_c, 0, 64, 50
2, 63349, Note_on_c, 0, 62, 64
2, 63352, Note_on_c, 0, 69, 0
2, 63360, Note_on_c, 0, 64, 0
2, 63367, Note_on_c, 0, 73, 0
2, 63367, Note_on_c, 0, 76, 0
2, 63401, Note_on_c, 0, 62, 0
2, 63407, Note_on_c, 0, 59, 0
2, 63513, Note_on_c, 0, 59, 61
2, 63515, Note_on_c, 0, 62, 57
2, 63528, Note_on_c, 0, 74, 0
2, 63557, Note_on_c, 0, 62, 0
2, 63644, Note_on_c, 0, 59, 0
2, 63687, Note_on_c, 0, 74, 67
2, 63790, Note_on_c, 0, 74, 0
2, 63857, Note_on_c, 0, 81, 81
2, 63877, Note_on_c, 0, 52, 54
2, 63878, Note_on_c, 0, 68, 62
2, 63880, Note_on_c, 0, 59, 58
2, 63881, Note_on_c, 0, 64, 54
2, 63885, Note_on_c, 0, 62, 54
2, 63889, Control_c, 0, 64, 127
2, 63997, Note_on_c, 0, 62, 0
2, 63997, Note_on_c, 0, 68, 0
2, 64002, Note_on_c, 0, 68, 44
2, 64008, Note_on_c, 0, 62, 44
2, 64012, Note_on_c, 0, 52, 0
2, 64017, Note_on_c, 0, 52, 40
2, 64189, Note_on_c, 0, 52, 0
2, 64193, Note_on_c, 0, 80, 76
2, 64197, Note_on_c, 0, 59, 0
2, 64199, Note_on_c, 0, 52, 50
2, 64201, Note_on_c, 0, 59, 44
2, 64350, Note_on_c, 0, 52, 0
2, 64350, Note_on_c, 0, 59, 0
2, 64350, Note_on_c, 0, 64, 0
2, 64350, Note_on_c, 0, 68, 0
2, 64355, Note_on_c, 0, 59, 62
2, 64359, Note_on_c, 0, 52, 46
2, 64359, Note_on_c, 0, 68, 48
2, 64359, Note_on_c, 0, 64, 56
2, 64512, Note_on_c, 0, 52, 0
2, 64521, Note_on_c, 0, 52, 50
2, 64521, Note_on_c, 0, 76, 78
2, 64541, Control_c, 0, 64, 0
2, 64553, Note_on_c, 0, 62, 0
2, 64553, Note_on_c, 0, 59, 0
2, 64554, Note_on_c, 0, 68, 0
2, 64554, Note_on_c, 0, 81, 0
2, 64554, Note_on_c, 0, 80, 0
2, 64555, Note_on_c, 0, 64, 0
2, 64627, Note_on_c, 0, 52, 0
2, 64693, Note_on_c, 0, 54, 57
2, 64693, Note_on_c, 0, 61, 62
2, 64694, Note_on_c, 0, 59, 61
2, 64699, Note_on_c, 0, 71, 64
2, 64731, Note_on_c, 0, 61, 0
2, 64736, Note_on_c, 0, 59, 0
2, 64736, Note_on_c, 0, 71, 0
2, 64744, Note_on_c, 0, 54, 0
2, 64863, Note_on_c, 0, 54, 58
2, 64868, Note_on_c, 0, 71, 65
2, 64868, Note_on_c, 0, 59, 59
2, 64868, Note_on_c, 0, 61, 61
2, 64872, Note_on_c, 0, 76, 0
2, 64915, Note_on_c, 0, 59, 0
2, 64918, Note_on_c, 0, 61, 0
2, 64922, Note_on_c, 0, 71, 0
2, 64923, Note_on_c, 0, 54, 0
2, 65045, Note_on_c, 0, 54, 32
2, 65080, Note_on_c, 0, 54, 0
2, 65208, Note_on_c, 0, 57, 59
2, 65208, Note_on_c, 0, 69, 65
2, 65209, Note_on_c, 0, 61, 54
2, 65210, Note_on_c, 0, 73, 60
2, 65213, Note_on_c, 0, 54, 51
2, 65264, Control_c, 0, 64, 127
2, 65326, Note_on_c, 0, 61, 0
2, 65334, Note_on_c, 0, 61, 46
2, 65387, Note_on_c, 0, 54, 0
2, 65394, Note_on_c, 0, 54, 34
2, 65548, Note_on_c, 0, 54, 0
2, 65559, Note_on_c, 0, 54, 44
2, 65694, Note_on_c, 0, 61, 0
2, 65702, Note_on_c, 0, 61, 61
2, 65702, Note_on_c, 0, 57, 0
2, 65702, Note_on_c, 0, 69, 0
2, 65702, Note_on_c, 0, 73, 0
2, 65707, Note_on_c, 0, 73, 60
2, 65712, Note_on_c, 0, 57, 51
2, 65712, Note_on_c, 0, 69, 56
2, 66012, Note_on_c, 0, 54, 0
2, 66013, Note_on_c, 0, 57, 0
2, 66013, Note_on_c, 0, 61, 0
2, 66013, Control_c, 0, 64, 0
2, 66013, Note_on_c, 0, 69, 0
2, 66014, Note_on_c, 0, 73, 0
2, 66045, Note_on_c, 0, 68, 74
2, 66051, Note_on_c, 0, 65, 65
2, 66052, Note_on_c, 0, 53, 64
2, 66053, Note_on_c, 0, 61, 62
2, 66094, Note_on_c, 0, 61, 0
2, 66097, Note_on_c, 0, 53, 0
2, 66104, Note_on_c, 0, 65, 0
2, 66224, Note_on_c, 0, 68, 0
2, 66228, Note_on_c, 0, 53, 63
2, 66234, Note_on_c, 0, 68, 61
2, 66235, Note_on_c, 0, 65, 69
2, 66236, Note_on_c, 0, 61, 59
2, 66271, Note_on_c, 0, 61, 0
2, 66272, Note_on_c, 0, 53, 0
2, 66274, Note_on_c, 0, 65, 0
2, 66400, Note_on_c, 0, 80, 81
2, 66455, Control_c, 0, 64, 127
2, 66562, Note_on_c, 0, 68, 0
2, 66567, Note_on_c, 0, 68, 65
2, 66569, Note_on_c, 0, 65, 58
2, 66578, Note_on_c, 0, 61, 53
2, 66731, Note_on_c, 0, 80, 0
2, 66742, Note_on_c, 0, 80, 85
2, 66892, Note_on_c, 0, 61, 0
2, 66903, Note_on_c, 0, 81, 87
2, 66904, Note_on_c, 0, 61, 65
2, 67054, Note_on_c, 0, 61, 0
2, 67054, Note_on_c, 0, 65, 0
2, 67054, Note_on_c, 0, 68, 0
2, 67058, Note_on_c, 0, 68, 77
2, 67062, Note_on_c, 0, 65, 68
2, 67064, Note_on_c, 0, 61, 53
2, 67070, Note_on_c, 0, 83, 87
2, 67111, Note_on_c, 0, 80, 0
2, 67111, Note_on_c, 0, 65, 0
2, 67111, Note_on_c, 0, 68, 0
2, 67113, Note_on_c, 0, 81, 0
2, 67115, Control_c, 0, 64, 0
2, 67153, Note_on_c, 0, 61, 0
2, 67238, Note_on_c, 0, 83, 0
2, 67243, Note_on_c, 0, 83, 86
2, 67409, Note_on_c, 0, 64, 73
2, 67412, Note_on_c, 0, 52, 77
2, 67412, Note_on_c, 0, 61, 71
2, 67463, Note_on_c, 0, 64, 0
2, 67463, Note_on_c, 0, 61, 0
2, 67469, Note_on_c, 0, 52, 0
2, 67586, Note_on_c, 0, 64, 69
2, 67587, Note_on_c, 0, 81, 85
2, 67587, Note_on_c, 0, 52, 70
2, 67588, Note_on_c, 0, 61, 67
2, 67621, Note_on_c, 0, 83, 0
2, 67626, Note_on_c, 0, 52, 0
2, 67632, Note_on_c, 0, 61, 0
2, 67653, Note_on_c, 0, 64, 0
2, 67752, Note_on_c, 0, 80, 83
2, 67780, Note_on_c, 0, 81, 0
2, 67924, Note_on_c, 0, 81, 88
2, 67929, Note_on_c, 0, 64, 64
2, 67930, Note_on_c, 0, 69, 72
2, 67939, Note_on_c, 0, 76, 63
2, 67940, Note_on_c, 0, 61, 58
2, 67952, Note_on_c, 0, 80, 0
2, 68014, Control_c, 0, 64, 127
2, 68252, Control_c, 0, 64, 0
2, 68264, Note_on_c, 0, 64, 0
2, 68266, Note_on_c, 0, 69, 0
2, 68267, Note_on_c, 0, 61, 0
2, 68271, Note_on_c, 0, 61, 65
2, 68375, Note_on_c, 0, 76, 0
2, 68445, Note_on_c, 0, 69, 75
2, 68447, Note_on_c, 0, 64, 70
2, 68497, Note_on_c, 0, 81, 0
2, 68609, Note_on_c, 0, 76, 79
2, 68697, Note_on_c, 0, 61, 0
2, 68712, Note_on_c, 0, 64, 0
2, 68743, Note_on_c, 0, 76, 0
2, 68780, Note_on_c, 0, 62, 66
2, 68781, Note_on_c, 0, 76, 85
2, 68785, Note_on_c, 0, 54, 71
2, 68807, Note_on_c, 0, 47, 61
2, 68835, Note_on_c, 0, 69, 0
2, 68853, Note_on_c, 0, 62, 0
2, 68855, Note_on_c, 0, 54, 0
2, 68858, Note_on_c, 0, 47, 0
2, 68956, Note_on_c, 0, 47, 69
2, 68957, Note_on_c, 0, 62, 66
2, 68958, Note_on_c, 0, 54, 71
2, 69039, Note_on_c, 0, 47, 0
2, 69046, Note_on_c, 0, 62, 0
2, 69127, Note_on_c, 0, 54, 0
2, 69273, Note_on_c, 0, 76, 0
2, 69305, Note_on_c, 0, 62, 65
2, 69305, Note_on_c, 0, 69, 74
2, 69306, Note_on_c, 0, 66, 74
2, 69568, Note_on_c, 0, 62, 0
2, 69629, Note_on_c, 0, 73, 80
2, 69637, Note_on_c, 0, 59, 67
2, 69788, Note_on_c, 0, 66, 0
2, 69788, Note_on_c, 0, 69, 0
2, 69796, Note_on_c, 0, 66, 69
2, 69799, Note_on_c, 0, 69, 70
2, 69800, Note_on_c, 0, 74, 87
2, 69800, Note_on_c, 0, 62, 64
2, 69838, Note_on_c, 0, 69, 0
2, 69846, Note_on_c, 0, 66, 0
2, 69848, Note_on_c, 0, 73, 0
2, 69868, Note_on_c, 0, 62, 0
2, 69934, Note_on_c, 0, 59, 0
2, 69962, Note_on_c, 0, 76, 87
2, 70095, Note_on_c, 0, 74, 0
2, 70131, Note_on_c, 0, 64, 74
2, 70136, Note_on_c, 0, 59, 69
2, 70136, Note_on_c, 0, 62, 71
2, 70137, Note_on_c, 0, 52, 79
2, 70210, Note_on_c, 0, 62, 0
2, 70214, Note_on_c, 0, 52, 0
2, 70215, Note_on_c, 0, 76, 0
2, 70217, Note_on_c, 0, 59, 0
2, 70248, Note_on_c, 0, 64, 0
2, 70307, Note_on_c, 0, 52, 73
2, 70311, Note_on_c, 0, 64, 73
2, 70313, Note_on_c, 0, 59, 68
2, 70314, Note_on_c, 0, 62, 69
2, 70396, Note_on_c, 0, 62, 0
2, 70399, Note_on_c, 0, 59, 0
2, 70406, Note_on_c, 0, 64, 0
2, 70410, Note_on_c, 0, 52, 0
2, 70628, Note_on_c, 0, 71, 81
2, 70628, Note_on_c, 0, 68, 84
2, 70629, Note_on_c, 0, 64, 72
2, 70634, Note_on_c, 0, 52, 58
2, 70640, Note_on_c, 0, 52, 0
2, 70725, Control_c, 0, 64, 127
2, 70832, Control_c, 0, 64, 0
2, 70955, Note_on_c, 0, 64, 0
2, 70966, Note_on_c, 0, 64, 69
2, 70978, Control_c, 0, 64, 127
2, 71116, Note_on_c, 0, 68, 0
2, 71116, Note_on_c, 0, 71, 0
2, 71126, Note_on_c, 0, 68, 76
2, 71126, Note_on_c, 0, 71, 76
2, 71451, Control_c, 0, 64, 0
2, 71470, Note_on_c, 0, 64, 0
2, 71473, Note_on_c, 0, 52, 82
2, 71473, Note_on_c, 0, 64, 75
2, 71493, Control_c, 0, 64, 127
2, 71553, Note_on_c, 0, 69, 76
2, 71631, Note_on_c, 0, 71, 0
2, 71639, Note_on_c, 0, 71, 84
2, 71736, Note_on_c, 0, 76, 85
2, 71802, Note_on_c, 0, 81, 92
2, 71882, Note_on_c, 0, 83, 88
2, 71958, Note_on_c, 0, 88, 89
2, 72041, Note_on_c, 0, 95, 84
2, 72126, Note_on_c, 0, 100, 100
2, 72145, Note_on_c, 0, 52, 0
2, 72150, Note_on_c, 0, 40, 84
2, 72151, Note_on_c, 0, 52, 68
2, 72299, Note_on_c, 0, 64, 0
2, 72299, Note_on_c, 0, 76, 0
2, 72309, Note_on_c, 0, 76, 89
2, 72310, Note_on_c, 0, 64, 77
2, 72453, Note_on_c, 0, 81, 0
2, 72460, Note_on_c, 0, 69, 0
2, 72460, Note_on_c, 0, 76, 0
2, 72464, Note_on_c, 0, 81, 101
2, 72467, Note_on_c, 0, 76, 80
2, 72468, Note_on_c, 0, 69, 84
2, 72627, Note_on_c, 0, 80, 96
2, 72629, Note_on_c, 0, 68, 0
2, 72635, Note_on_c, 0, 68, 77
2, 72742, Note_on_c, 0, 81, 0
2, 72743, Note_on_c, 0, 71, 0
2, 72743, Note_on_c, 0, 40, 0
2, 72747, Note_on_c, 0, 76, 0
2, 72747, Note_on_c, 0, 80, 0
2, 72747, Note_on_c, 0, 52, 0
2, 72748, Note_on_c, 0, 69, 0
2, 72748, Note_on_c, 0, 68, 0
2, 72751, Control_c, 0, 64, 0
2, 72752, Note_on_c, 0, 95, 0
2, 72752, Note_on_c, 0, 100, 0
2, 72760, Note_on_c, 0, 64, 0
2, 72768, Note_on_c, 0, 83, 0
2, 72768, Note_on_c, 0, 88, 0
2, 72807, Note_on_c, 0, 81, 104
2, 72807, Note_on_c, 0, 38, 82
2, 72810, Note_on_c, 0, 50, 78
2, 72811, Note_on_c, 0, 76, 90
2, 72811, Note_on_c, 0, 45, 73
2, 72816, Note_on_c, 0, 69, 83
2, 72837, Control_c, 0, 64, 127
2, 72983, Note_on_c, 0, 50, 0
2, 72994, Note_on_c, 0, 50, 66
2, 73336, Note_on_c, 0, 69, 0
2, 73340, Note_on_c, 0, 57, 75
2, 73341, Note_on_c, 0, 62, 61
2, 73342, Note_on_c, 0, 83, 96
2, 73346, Note_on_c, 0, 74, 75
2, 73347, Note_on_c, 0, 69, 74
2, 73351, Note_on_c, 0, 54, 64
2, 73355, Note_on_c, 0, 71, 72
2, 73390, Note_on_c, 0, 54, 0
2, 73398, Note_on_c, 0, 54, 54
2, 73482, Note_on_c, 0, 50, 0
2, 73492, Note_on_c, 0, 50, 64
2, 73674, Note_on_c, 0, 50, 0
2, 73674, Note_on_c, 0, 81, 0
2, 73684, Note_on_c, 0, 50, 69
2, 73685, Note_on_c, 0, 81, 90
2, 73689, Note_on_c, 0, 69, 0
2, 73693, Note_on_c, 0, 69, 76
2, 73850, Note_on_c, 0, 54, 0
2, 73850, Note_on_c, 0, 62, 0
2, 73850, Note_on_c, 0, 76, 0
2, 73856, Note_on_c, 0, 62, 71
2, 73857, Note_on_c, 0, 54, 77
2, 73861, Note_on_c, 0, 76, 95
2, 73865, Note_on_c, 0, 64, 78
2, 73996, Note_on_c, 0, 50, 0
2, 74007, Note_on_c, 0, 50, 68
2, 74132, Note_on_c, 0, 50, 0
2, 74132, Note_on_c, 0, 62, 0
2, 74132, Note_on_c, 0, 45, 0
2, 74132, Note_on_c, 0, 69, 0
2, 74132, Note_on_c, 0, 57, 0
2, 74132, Note_on_c, 0, 81, 0
2, 74133, Note_on_c, 0, 83, 0
2, 74133, Note_on_c, 0, 71, 0
2, 74133, Note_on_c, 0, 64, 0
2, 74138, Control_c, 0, 64, 0
2, 74142, Note_on_c, 0, 38, 0
2, 74150, Note_on_c, 0, 54, 0
2, 74150, Note_on_c, 0, 74, 0
2, 74193, Note_on_c, 0, 37, 79
2, 74193, Note_on_c, 0, 49, 88
2, 74219, Control_c, 0, 64, 127
2, 74234, Note_on_c, 0, 76, 0
2, 74365, Note_on_c, 0, 37, 0
2, 74365, Note_on_c, 0, 49, 0
2, 74369, Note_on_c, 0, 49, 68
2, 74369, Note_on_c, 0, 37, 66
2, 74376, Note_on_c, 0, 76, 77
2, 74466, Note_on_c, 0, 81, 78
2, 74537, Note_on_c, 0, 83, 85
2, 74644, Note_on_c, 0, 88, 73
2, 74680, Note_on_c, 0, 49, 0
2, 74684, Note_on_c, 0, 61, 67
2, 74684, Note_on_c, 0, 49, 71
2, 74696, Note_on_c, 0, 52, 75
2, 74700, Note_on_c, 0, 93, 91
2, 74704, Note_on_c, 0, 57, 65
2, 74779, Note_on_c, 0, 95, 85
2, 74849, Note_on_c, 0, 49, 0
2, 74849, Note_on_c, 0, 52, 0
2, 74852, Note_on_c, 0, 100, 92
2, 74860, Note_on_c, 0, 52, 61
2, 74860, Note_on_c, 0, 49, 67
2, 75018, Note_on_c, 0, 52, 0
2, 75018, Note_on_c, 0, 57, 0
2, 75018, Note_on_c, 0, 61, 0
2, 75025, Note_on_c, 0, 49, 0
2, 75028, Note_on_c, 0, 52, 56
2, 75028, Note_on_c, 0, 61, 65
2, 75029, Note_on_c, 0, 57, 60
2, 75030, Note_on_c, 0, 49, 76
2, 75033, Note_on_c, 0, 76, 0
2, 75039, Note_on_c, 0, 76, 69
2, 75043, Note_on_c, 0, 77, 71
2, 75179, Note_on_c, 0, 81, 0
2, 75183, Note_on_c, 0, 81, 96
2, 75194, Note_on_c, 0, 61, 0
2, 75195, Note_on_c, 0, 69, 80
2, 75202, Note_on_c, 0, 52, 0
2, 75206, Note_on_c, 0, 61, 77
2, 75210, Note_on_c, 0, 49, 0
2, 75213, Note_on_c, 0, 52, 75
2, 75214, Note_on_c, 0, 49, 73
2, 75348, Note_on_c, 0, 49, 0
2, 75352, Note_on_c, 0, 80, 92
2, 75360, Note_on_c, 0, 49, 65
2, 75366, Note_on_c, 0, 68, 65
2, 75371, Note_on_c, 0, 68, 0
2, 75379, Note_on_c, 0, 69, 0
2, 75383, Note_on_c, 0, 69, 58
2, 75394, Note_on_c, 0, 52, 0
2, 75398, Note_on_c, 0, 52, 56
2, 75486, Note_on_c, 0, 80, 0
2, 75487, Note_on_c, 0, 61, 0
2, 75487, Note_on_c, 0, 76, 0
2, 75487, Note_on_c, 0, 52, 0
2, 75488, Note_on_c, 0, 88, 0
2, 75488, Note_on_c, 0, 49, 0
2, 75489, Note_on_c, 0, 83, 0
2, 75491, Control_c, 0, 64, 0
2, 75494, Note_on_c, 0, 77, 0
2, 75494, Note_on_c, 0, 93, 0
2, 75494, Note_on_c, 0, 95, 0
2, 75494, Note_on_c, 0, 100, 0
2, 75502, Note_on_c, 0, 37, 0
2, 75502, Note_on_c, 0, 57, 0
2, 75502, Note_on_c, 0, 69, 0
2, 75525, Note_on_c, 0, 81, 0
2, 75536, Note_on_c, 0, 81, 102
2, 75543, Note_on_c, 0, 76, 88
2, 75543, Note_on_c, 0, 69, 86
2, 75545, Note_on_c, 0, 40, 69
2, 75547, Note_on_c, 0, 52, 68
2, 75549, Note_on_c, 0, 42, 75
2, 75551, Note_on_c, 0, 47, 72
2, 75555, Note_on_c, 0, 40, 0
2, 75571, Control_c, 0, 64, 127
2, 75640, Note_on_c, 0, 47, 0
2, 75647, Note_on_c, 0, 47, 63
2, 75724, Note_on_c, 0, 47, 0
2, 75724, Note_on_c, 0, 69, 0
2, 75724, Note_on_c, 0, 76, 0
2, 75730, Note_on_c, 0, 47, 75
2, 75734, Note_on_c, 0, 40, 51
2, 75735, Note_on_c, 0, 76, 63
2, 75735, Note_on_c, 0, 69, 74
2, 75870, Note_on_c, 0, 69, 0
2, 75878, Note_on_c, 0, 40, 0
2, 75878, Note_on_c, 0, 47, 0
2, 75878, Note_on_c, 0, 76, 0
2, 75881, Note_on_c, 0, 69, 72
2, 75883, Note_on_c, 0, 47, 72
2, 75884, Note_on_c, 0, 40, 48
2, 75887, Note_on_c, 0, 76, 61
2, 76055, Note_on_c, 0, 69, 0
2, 76059, Note_on_c, 0, 62, 72
2, 76060, Note_on_c, 0, 74, 75
2, 76062, Note_on_c, 0, 81, 0
2, 76066, Note_on_c, 0, 69, 85
2, 76067, Note_on_c, 0, 57, 69
2, 76067, Note_on_c, 0, 81, 97
2, 76068, Note_on_c, 0, 54, 71
2, 76070, Note_on_c, 0, 47, 0
2, 76078, Note_on_c, 0, 47, 64
2, 76231, Note_on_c, 0, 47, 0
2, 76238, Note_on_c, 0, 47, 61
2, 76400, Note_on_c, 0, 47, 0
2, 76400, Note_on_c, 0, 54, 0
2, 76400, Note_on_c, 0, 57, 0
2, 76404, Note_on_c, 0, 83, 98
2, 76405, Note_on_c, 0, 54, 66
2, 76409, Note_on_c, 0, 71, 82
2, 76411, Note_on_c, 0, 47, 76
2, 76411, Note_on_c, 0, 57, 65
2, 76417, Note_on_c, 0, 59, 68
2, 76569, Note_on_c, 0, 57, 0
2, 76569, Note_on_c, 0, 62, 0
2, 76569, Note_on_c, 0, 69, 0
2, 76569, Note_on_c, 0, 81, 0
2, 76576, Note_on_c, 0, 81, 99
2, 76577, Note_on_c, 0, 54, 0
2, 76577, Note_on_c, 0, 59, 0
2, 76580, Note_on_c, 0, 57, 71
2, 76580, Note_on_c, 0, 69, 85
2, 76581, Note_on_c, 0, 62, 72
2, 76582, Note_on_c, 0, 54, 74
2, 76586, Note_on_c, 0, 59, 70
2, 76746, Note_on_c, 0, 47, 0
2, 76746, Note_on_c, 0, 85, 102
2, 76754, Note_on_c, 0, 73, 94
2, 76757, Note_on_c, 0, 47, 69
2, 76765, Note_on_c, 0, 35, 62
2, 76838, Note_on_c, 0, 40, 0
2, 76838, Note_on_c, 0, 74, 0
2, 76841, Note_on_c, 0, 47, 0
2, 76841, Note_on_c, 0, 54, 0
2, 76841, Control_c, 0, 64, 0
2, 76841, Note_on_c, 0, 35, 0
2, 76842, Note_on_c, 0, 81, 0
2, 76842, Note_on_c, 0, 57, 0
2, 76842, Note_on_c, 0, 62, 0
2, 76842, Note_on_c, 0, 83, 0
2, 76842, Note_on_c, 0, 59, 0
2, 76843, Note_on_c, 0, 69, 0
2, 76843, Note_on_c, 0, 76, 0
2, 76843, Note_on_c, 0, 71, 0
2, 76861, Note_on_c, 0, 42, 0
2, 76869, Note_on_c, 0, 52, 0
2, 76903, Note_on_c, 0, 57, 75
2, 76904, Note_on_c, 0, 45, 84
2, 76905, Note_on_c, 0, 33, 82
2, 76945, Control_c, 0, 64, 127
2, 77007, Note_on_c, 0, 73, 0
2, 77076, Note_on_c, 0, 57, 0
2, 77084, Note_on_c, 0, 45, 0
2, 77087, Note_on_c, 0, 57, 68
2, 77095, Note_on_c, 0, 45, 65
2, 77097, Note_on_c, 0, 101, 83
2, 77103, Note_on_c, 0, 100, 75
2, 77175, Note_on_c, 0, 98, 89
2, 77245, Note_on_c, 0, 45, 0
2, 77256, Note_on_c, 0, 45, 71
2, 77256, Note_on_c, 0, 97, 88
2, 77335, Note_on_c, 0, 93, 83
2, 77407, Note_on_c, 0, 88, 81
2, 77413, Note_on_c, 0, 52, 72
2, 77414, Note_on_c, 0, 61, 72
2, 77488, Note_on_c, 0, 86, 86
2, 77544, Note_on_c, 0, 45, 0
2, 77551, Note_on_c, 0, 45, 67
2, 77560, Note_on_c, 0, 52, 0
2, 77567, Note_on_c, 0, 52, 57
2, 77568, Note_on_c, 0, 85, 0
2, 77577, Note_on_c, 0, 85, 92
2, 77675, Note_on_c, 0, 86, 0
2, 77684, Note_on_c, 0, 86, 62
2, 77744, Note_on_c, 0, 45, 0
2, 77744, Note_on_c, 0, 57, 0
2, 77748, Note_on_c, 0, 57, 67
2, 77749, Note_on_c, 0, 81, 96
2, 77755, Note_on_c, 0, 45, 71
2, 77763, Note_on_c, 0, 69, 73
2, 77821, Note_on_c, 0, 69, 0
2, 77826, Note_on_c, 0, 69, 65
2, 77905, Note_on_c, 0, 52, 0
2, 77905, Note_on_c, 0, 61, 0
2, 77909, Note_on_c, 0, 52, 76
2, 77915, Note_on_c, 0, 83, 100
2, 77917, Note_on_c, 0, 61, 71
2, 77917, Note_on_c, 0, 71, 89
2, 78067, Note_on_c, 0, 45, 0
2, 78067, Note_on_c, 0, 52, 0
2, 78072, Note_on_c, 0, 45, 81
2, 78074, Note_on_c, 0, 85, 0
2, 78074, Note_on_c, 0, 101, 0
2, 78076, Note_on_c, 0, 52, 75
2, 78079, Note_on_c, 0, 85, 97
2, 78090, Note_on_c, 0, 73, 79
2, 78229, Control_c, 0, 64, 0
2, 78232, Note_on_c, 0, 45, 0
2, 78232, Note_on_c, 0, 81, 0
2, 78233, Note_on_c, 0, 93, 0
2, 78233, Note_on_c, 0, 71, 0
2, 78233, Note_on_c, 0, 83, 0
2, 78233, Note_on_c, 0, 52, 0
2, 78234, Note_on_c, 0, 57, 0
2, 78234, Note_on_c, 0, 97, 0
2, 78235, Note_on_c, 0, 69, 0
2, 78235, Note_on_c, 0, 73, 0
2, 78237, Note_on_c, 0, 88, 0
2, 78238, Note_on_c, 0, 100, 0
2, 78243, Note_on_c, 0, 86, 0
2, 78251, Note_on_c, 0, 33, 0
2, 78251, Note_on_c, 0, 98, 0
2, 78253, Note_on_c, 0, 86, 104
2, 78255, Note_on_c, 0, 55, 76
2, 78256, Note_on_c, 0, 50, 77
2, 78258, Note_on_c, 0, 74, 98
2, 78259, Note_on_c, 0, 61, 0
2, 78262, Note_on_c, 0, 76, 95
2, 78263, Note_on_c, 0, 59, 69
2, 78266, Note_on_c, 0, 85, 0
2, 78272, Note_on_c, 0, 85, 74
2, 78343, Note_on_c, 0, 55, 0
2, 78343, Control_c, 0, 64, 127
2, 78353, Note_on_c, 0, 55, 63
2, 78420, Note_on_c, 0, 76, 0
2, 78429, Note_on_c, 0, 76, 66
2, 78524, Note_on_c, 0, 52, 50
2, 78581, Note_on_c, 0, 85, 0
2, 78587, Note_on_c, 0, 85, 94
2, 78594, Note_on_c, 0, 73, 76
2, 78597, Note_on_c, 0, 50, 0
2, 78597, Note_on_c, 0, 59, 0
2, 78601, Note_on_c, 0, 50, 59
2, 78607, Note_on_c, 0, 59, 53
2, 78758, Note_on_c, 0, 55, 0
2, 78766, Note_on_c, 0, 59, 0
2, 78768, Note_on_c, 0, 55, 78
2, 78769, Note_on_c, 0, 83, 99
2, 78770, Note_on_c, 0, 59, 77
2, 78773, Note_on_c, 0, 71, 86
2, 78904, Note_on_c, 0, 50, 0
2, 78914, Note_on_c, 0, 50, 59
2, 78988, Note_on_c, 0, 55, 0
2, 79000, Note_on_c, 0, 55, 51
2, 79096, Note_on_c, 0, 50, 0
2, 79101, Note_on_c, 0, 50, 72
2, 79106, Note_on_c, 0, 81, 101
2, 79110, Note_on_c, 0, 69, 87
2, 79196, Note_on_c, 0, 50, 0
2, 79200, Note_on_c, 0, 50, 57
2, 79257, Note_on_c, 0, 55, 0
2, 79269, Note_on_c, 0, 55, 76
2, 79272, Note_on_c, 0, 59, 0
2, 79280, Note_on_c, 0, 59, 72
2, 79434, Note_on_c, 0, 50, 0
2, 79434, Note_on_c, 0, 76, 0
2, 79438, Note_on_c, 0, 76, 100
2, 79439, Note_on_c, 0, 50, 65
2, 79444, Note_on_c, 0, 64, 86
2, 79507, Note_on_c, 0, 81, 0
2, 79507, Note_on_c, 0, 83, 0
2, 79507, Note_on_c, 0, 71, 0
2, 79507, Note_on_c, 0, 73, 0
2, 79507, Note_on_c, 0, 59, 0
2, 79507, Note_on_c, 0, 52, 0
2, 79508, Note_on_c, 0, 74, 0
2, 79508, Note_on_c, 0, 85, 0
2, 79508, Note_on_c, 0, 69, 0
2, 79508, Note_on_c, 0, 86, 0
2, 79509, Control_c, 0, 64, 0
2, 79541, Note_on_c, 0, 55, 0
2, 79583, Note_on_c, 0, 42, 75
2, 79595, Control_c, 0, 64, 127
2, 79641, Note_on_c, 0, 64, 0
2, 79649, Note_on_c, 0, 64, 62
2, 79741, Note_on_c, 0, 50, 0
2, 79751, Note_on_c, 0, 50, 67
2, 79751, Note_on_c, 0, 69, 77
2, 79825, Note_on_c, 0, 76, 0
2, 79832, Note_on_c, 0, 76, 90
2, 79925, Note_on_c, 0, 50, 0
2, 79930, Note_on_c, 0, 81, 83
2, 79935, Note_on_c, 0, 50, 54
2, 80011, Note_on_c, 0, 57, 54
2, 80014, Note_on_c, 0, 88, 86
2, 80080, Note_on_c, 0, 93, 105
2, 80116, Note_on_c, 0, 54, 68
2, 80186, Note_on_c, 0, 57, 0
2, 80190, Note_on_c, 0, 57, 56
2, 80240, Note_on_c, 0, 50, 0
2, 80249, Note_on_c, 0, 50, 66
2, 80409, Note_on_c, 0, 64, 0
2, 80409, Note_on_c, 0, 76, 0
2, 80414, Note_on_c, 0, 76, 89
2, 80417, Note_on_c, 0, 50, 0
2, 80419, Note_on_c, 0, 64, 71
2, 80427, Note_on_c, 0, 50, 67
2, 80578, Note_on_c, 0, 54, 0
2, 80578, Note_on_c, 0, 57, 0
2, 80578, Note_on_c, 0, 81, 0
2, 80584, Note_on_c, 0, 81, 98
2, 80585, Note_on_c, 0, 54, 73
2, 80586, Note_on_c, 0, 69, 0
2, 80589, Note_on_c, 0, 57, 74
2, 80590, Note_on_c, 0, 69, 82
2, 80709, Note_on_c, 0, 50, 0
2, 80713, Note_on_c, 0, 50, 73
2, 80758, Note_on_c, 0, 83, 96
2, 80759, Note_on_c, 0, 71, 83
2, 80832, Note_on_c, 0, 50, 0
2, 80841, Note_on_c, 0, 50, 53
2, 80882, Note_on_c, 0, 93, 0
2, 80882, Note_on_c, 0, 81, 0
2, 80883, Note_on_c, 0, 50, 0
2, 80883, Note_on_c, 0, 69, 0
2, 80883, Note_on_c, 0, 83, 0
2, 80884, Note_on_c, 0, 54, 0
2, 80884, Note_on_c, 0, 57, 0
2, 80884, Control_c, 0, 64, 0
2, 80885, Note_on_c, 0, 71, 0
2, 80886, Note_on_c, 0, 64, 0
2, 80888, Note_on_c, 0, 88, 0
2, 80908, Note_on_c, 0, 42, 0
2, 80916, Note_on_c, 0, 76, 0
2, 80918, Note_on_c, 0, 86, 102
2, 80920, Note_on_c, 0, 74, 97
2, 80920, Note_on_c, 0, 52, 82
2, 80923, Note_on_c, 0, 47, 74
2, 80925, Note_on_c, 0, 76, 93
2, 80977, Control_c, 0, 64, 127
2, 81077, Note_on_c, 0, 47, 0
2, 81077, Note_on_c, 0, 76, 0
2, 81083, Note_on_c, 0, 76, 79
2, 81088, Note_on_c, 0, 47, 58
2, 81243, Note_on_c, 0, 85, 86
2, 81246, Note_on_c, 0, 52, 0
2, 81250, Note_on_c, 0, 73, 78
2, 81250, Note_on_c, 0, 52, 76
2, 81415, Note_on_c, 0, 52, 0
2, 81415, Note_on_c, 0, 76, 0
2, 81417, Note_on_c, 0, 59, 68
2, 81417, Note_on_c, 0, 83, 101
2, 81419, Note_on_c, 0, 57, 72
2, 81419, Note_on_c, 0, 52, 70
2, 81420, Note_on_c, 0, 76, 93
2, 81420, Note_on_c, 0, 71, 83
2, 81569, Note_on_c, 0, 52, 0
2, 81573, Note_on_c, 0, 52, 69
2, 81759, Note_on_c, 0, 81, 94
2, 81761, Note_on_c, 0, 52, 0
2, 81761, Note_on_c, 0, 57, 0
2, 81761, Note_on_c, 0, 71, 0
2, 81766, Note_on_c, 0, 69, 80
2, 81767, Note_on_c, 0, 52, 72
2, 81767, Note_on_c, 0, 71, 76
2, 81769, Note_on_c, 0, 57, 62
2, 81788, Note_on_c, 0, 85, 0
2, 81913, Note_on_c, 0, 64, 71
2, 81922, Note_on_c, 0, 52, 0
2, 81922, Note_on_c, 0, 57, 0
2, 81922, Note_on_c, 0, 59, 0
2, 81922, Note_on_c, 0, 64, 0
2, 81930, Note_on_c, 0, 47, 0
2, 81930, Note_on_c, 0, 59, 60
2, 81931, Note_on_c, 0, 52, 65
2, 81931, Note_on_c, 0, 57, 66
2, 81936, Note_on_c, 0, 47, 52
2, 82037, Note_on_c, 0, 74, 0
2, 82060, Note_on_c, 0, 52, 0
2, 82068, Note_on_c, 0, 52, 71
2, 82091, Note_on_c, 0, 81, 0
2, 82099, Note_on_c, 0, 76, 0
2, 82101, Note_on_c, 0, 81, 101
2, 82105, Note_on_c, 0, 76, 93
2, 82106, Note_on_c, 0, 69, 0
2, 82106, Note_on_c, 0, 73, 0
2, 82114, Note_on_c, 0, 73, 83
2, 82114, Note_on_c, 0, 86, 0
2, 82118, Note_on_c, 0, 69, 79
2, 82183, Note_on_c, 0, 83, 0
2, 82230, Note_on_c, 0, 47, 0
2, 82232, Note_on_c, 0, 52, 0
2, 82233, Note_on_c, 0, 57, 0
2, 82237, Note_on_c, 0, 71, 0
2, 82241, Control_c, 0, 64, 0
2, 82249, Note_on_c, 0, 54, 84
2, 82250, Note_on_c, 0, 49, 80
2, 82252, Note_on_c, 0, 59, 0
2, 82255, Note_on_c, 0, 42, 81
2, 82283, Control_c, 0, 64, 127
2, 82306, Note_on_c, 0, 49, 0
2, 82314, Note_on_c, 0, 69, 0
2, 82316, Note_on_c, 0, 49, 32
2, 82322, Note_on_c, 0, 69, 73
2, 82398, Note_on_c, 0, 49, 0
2, 82406, Note_on_c, 0, 49, 64
2, 82414, Note_on_c, 0, 54, 0
2, 82418, Note_on_c, 0, 93, 88
2, 82421, Note_on_c, 0, 54, 65
2, 82490, Note_on_c, 0, 49, 0
2, 82495, Note_on_c, 0, 49, 70
2, 82496, Note_on_c, 0, 88, 84
2, 82583, Note_on_c, 0, 49, 0
2, 82583, Note_on_c, 0, 54, 0
2, 82583, Note_on_c, 0, 81, 0
2, 82589, Note_on_c, 0, 81, 77
2, 82593, Note_on_c, 0, 49, 61
2, 82593, Note_on_c, 0, 54, 62
2, 82675, Note_on_c, 0, 76, 0
2, 82686, Note_on_c, 0, 76, 77
2, 82744, Note_on_c, 0, 49, 0
2, 82748, Note_on_c, 0, 52, 61
2, 82748, Note_on_c, 0, 49, 66
2, 82752, Note_on_c, 0, 69, 0
2, 82753, Control_c, 0, 64, 0
2, 82758, Note_on_c, 0, 61, 68
2, 82758, Note_on_c, 0, 64, 71
2, 82761, Note_on_c, 0, 69, 78
2, 82813, Control_c, 0, 64, 127
2, 82867, Note_on_c, 0, 69, 0
2, 82872, Note_on_c, 0, 69, 63
2, 82874, Note_on_c, 0, 93, 0
2, 82913, Note_on_c, 0, 54, 0
2, 82918, Note_on_c, 0, 54, 72
2, 82967, Note_on_c, 0, 69, 0
2, 82978, Note_on_c, 0, 69, 68
2, 83087, Note_on_c, 0, 49, 0
2, 83089, Note_on_c, 0, 54, 0
2, 83093, Note_on_c, 0, 73, 0
2, 83094, Note_on_c, 0, 52, 0
2, 83094, Note_on_c, 0, 88, 0
2, 83094, Note_on_c, 0, 81, 0
2, 83096, Note_on_c, 0, 76, 0
2, 83096, Note_on_c, 0, 54, 60
2, 83097, Note_on_c, 0, 42, 0
2, 83105, Note_on_c, 0, 61, 0
2, 83105, Note_on_c, 0, 64, 0
2, 83115, Note_on_c, 0, 64, 74
2, 83187, Note_on_c, 0, 61, 24
2, 83197, Control_c, 0, 64, 0
2, 83220, Note_on_c, 0, 69, 0
2, 83266, Note_on_c, 0, 54, 0
2, 83271, Note_on_c, 0, 64, 0
2, 83278, Note_on_c, 0, 69, 73
2, 83297, Note_on_c, 0, 52, 61
2, 83420, Note_on_c, 0, 52, 0
2, 83429, Note_on_c, 0, 52, 54
2, 83460, Note_on_c, 0, 68, 77
2, 83466, Note_on_c, 0, 61, 0
2, 83547, Note_on_c, 0, 57, 21
2, 83558, Note_on_c, 0, 57, 0
2, 83589, Note_on_c, 0, 69, 0
2, 83642, Note_on_c, 0, 68, 0
2, 83645, Note_on_c, 0, 69, 73
2, 83646, Note_on_c, 0, 50, 56
2, 83688, Note_on_c, 0, 52, 0
2, 83730, Note_on_c, 0, 52, 44
2, 83831, Note_on_c, 0, 57, 48
2, 83896, Note_on_c, 0, 62, 36
2, 83980, Note_on_c, 0, 62, 0
2, 83992, Note_on_c, 0, 62, 42
2, 84080, Control_c, 0, 64, 127
2, 84134, Control_c, 0, 64, 0
2, 84174, Note_on_c, 0, 71, 73
2, 84218, Note_on_c, 0, 57, 0
2, 84224, Note_on_c, 0, 57, 36
2, 84303, Note_on_c, 0, 52, 0
2, 84341, Note_on_c, 0, 62, 0
2, 84349, Note_on_c, 0, 62, 48
2, 84510, Note_on_c, 0, 57, 0
2, 84510, Note_on_c, 0, 69, 0
2, 84516, Note_on_c, 0, 57, 47
2, 84518, Note_on_c, 0, 69, 61
2, 84687, Note_on_c, 0, 62, 0
2, 84690, Note_on_c, 0, 64, 65
2, 84696, Note_on_c, 0, 62, 50
2, 84718, Note_on_c, 0, 71, 0
2, 84779, Control_c, 0, 64, 127
2, 84848, Note_on_c, 0, 57, 0
2, 84848, Note_on_c, 0, 69, 0
2, 84854, Note_on_c, 0, 69, 52
2, 84857, Note_on_c, 0, 57, 53
2, 84949, Note_on_c, 0, 62, 0
2, 84949, Note_on_c, 0, 50, 0
2, 84952, Control_c, 0, 64, 0
2, 85024, Note_on_c, 0, 49, 60
2, 85026, Note_on_c, 0, 61, 53
2, 85056, Control_c, 0, 64, 127
2, 85148, Note_on_c, 0, 57, 0
2, 85186, Note_on_c, 0, 64, 0
2, 85193, Note_on_c, 0, 64, 50
2, 85222, Note_on_c, 0, 57, 41
2, 85271, Note_on_c, 0, 61, 0
2, 85271, Note_on_c, 0, 69, 0
2, 85280, Note_on_c, 0, 69, 58
2, 85281, Note_on_c, 0, 61, 41
2, 85358, Note_on_c, 0, 71, 72
2, 85393, Note_on_c, 0, 57, 0
2, 85393, Note_on_c, 0, 61, 0
2, 85397, Note_on_c, 0, 61, 54
2, 85397, Note_on_c, 0, 57, 38
2, 85456, Note_on_c, 0, 76, 71
2, 85535, Note_on_c, 0, 81, 71
2, 85547, Note_on_c, 0, 57, 0
2, 85554, Note_on_c, 0, 57, 55
2, 85555, Note_on_c, 0, 69, 0
2, 85560, Note_on_c, 0, 69, 53
2, 85624, Note_on_c, 0, 57, 0
2, 85630, Note_on_c, 0, 83, 72
2, 85635, Note_on_c, 0, 57, 48
2, 85698, Note_on_c, 0, 88, 80
2, 85716, Note_on_c, 0, 61, 0
2, 85721, Note_on_c, 0, 61, 50
2, 85862, Note_on_c, 0, 64, 0
2, 85865, Control_c, 0, 64, 0
2, 85872, Note_on_c, 0, 64, 73
2, 85885, Note_on_c, 0, 57, 0
2, 85893, Note_on_c, 0, 69, 0
2, 85895, Note_on_c, 0, 57, 55
2, 85898, Note_on_c, 0, 69, 55
2, 85939, Control_c, 0, 64, 127
2, 85969, Note_on_c, 0, 64, 0
2, 85980, Note_on_c, 0, 64, 52
2, 86031, Note_on_c, 0, 69, 0
2, 86035, Note_on_c, 0, 69, 74
2, 86046, Note_on_c, 0, 61, 0
2, 86052, Note_on_c, 0, 61, 58
2, 86192, Note_on_c, 0, 57, 0
2, 86198, Note_on_c, 0, 68, 76
2, 86201, Note_on_c, 0, 57, 56
2, 86335, Note_on_c, 0, 61, 0
2, 86336, Note_on_c, 0, 64, 0
2, 86337, Note_on_c, 0, 68, 0
2, 86341, Note_on_c, 0, 57, 0
2, 86353, Note_on_c, 0, 81, 0
2, 86353, Note_on_c, 0, 83, 0
2, 86355, Control_c, 0, 64, 0
2, 86361, Note_on_c, 0, 49, 0
2, 86361, Note_on_c, 0, 88, 0
2, 86369, Note_on_c, 0, 69, 0
2, 86369, Note_on_c, 0, 71, 0
2, 86380, Note_on_c, 0, 69, 78
2, 86390, Note_on_c, 0, 62, 57
2, 86395, Note_on_c, 0, 47, 58
2, 86400, Note_on_c, 0, 76, 0
2, 86476, Control_c, 0, 64, 127
2, 86553, Note_on_c, 0, 69, 0
2, 86557, Note_on_c, 0, 57, 58
2, 86560, Note_on_c, 0, 69, 57
2, 86730, Note_on_c, 0, 62, 0
2, 86734, Note_on_c, 0, 62, 57
2, 86906, Note_on_c, 0, 57, 0
2, 86906, Note_on_c, 0, 69, 0
2, 86916, Note_on_c, 0, 69, 78
2, 86917, Note_on_c, 0, 57, 61
2, 86999, Note_on_c, 0, 69, 0
2, 87008, Note_on_c, 0, 69, 63
2, 87075, Note_on_c, 0, 62, 0
2, 87082, Note_on_c, 0, 62, 57
2, 87252, Note_on_c, 0, 57, 0
2, 87262, Note_on_c, 0, 71, 76
2, 87263, Note_on_c, 0, 57, 60
2, 87421, Note_on_c, 0, 62, 0
2, 87429, Note_on_c, 0, 69, 0
2, 87431, Note_on_c, 0, 62, 60
2, 87433, Note_on_c, 0, 69, 77
2, 87575, Note_on_c, 0, 57, 0
2, 87579, Note_on_c, 0, 57, 77
2, 87590, Note_on_c, 0, 69, 0
2, 87596, Note_on_c, 0, 69, 74
2, 87602, Note_on_c, 0, 76, 93
2, 87658, Note_on_c, 0, 62, 0
2, 87659, Note_on_c, 0, 71, 0
2, 87659, Control_c, 0, 64, 0
2, 87660, Note_on_c, 0, 47, 0
2, 87736, Note_on_c, 0, 69, 0
2, 87751, Control_c, 0, 64, 127
2, 87755, Note_on_c, 0, 45, 64
2, 87755, Note_on_c, 0, 61, 74
2, 87790, Note_on_c, 0, 57, 0
2, 87915, Note_on_c, 0, 64, 69
2, 87936, Note_on_c, 0, 45, 0
2, 87936, Note_on_c, 0, 57, 55
2, 87942, Note_on_c, 0, 45, 53
2, 88000, Note_on_c, 0, 69, 75
2, 88087, Note_on_c, 0, 74, 90
2, 88112, Note_on_c, 0, 61, 0
2, 88112, Note_on_c, 0, 69, 0
2, 88117, Note_on_c, 0, 69, 59
2, 88123, Note_on_c, 0, 61, 65
2, 88181, Note_on_c, 0, 76, 0
2, 88186, Note_on_c, 0, 76, 79
2, 88212, Note_on_c, 0, 57, 0
2, 88218, Note_on_c, 0, 57, 54
2, 88261, Note_on_c, 0, 81, 76
2, 88281, Note_on_c, 0, 69, 0
2, 88286, Note_on_c, 0, 69, 58
2, 88304, Note_on_c, 0, 61, 0
2, 88308, Note_on_c, 0, 61, 52
2, 88325, Note_on_c, 0, 86, 75
2, 88407, Note_on_c, 0, 88, 83
2, 88435, Note_on_c, 0, 69, 0
2, 88441, Note_on_c, 0, 73, 85
2, 88442, Note_on_c, 0, 61, 0
2, 88444, Note_on_c, 0, 69, 68
2, 88450, Note_on_c, 0, 61, 70
2, 88588, Note_on_c, 0, 57, 0
2, 88596, Note_on_c, 0, 69, 0
2, 88600, Note_on_c, 0, 57, 59
2, 88600, Note_on_c, 0, 69, 58
2, 88765, Note_on_c, 0, 61, 0
2, 88765, Note_on_c, 0, 74, 0
2, 88765, Note_on_c, 0, 76, 0
2, 88772, Note_on_c, 0, 74, 87
2, 88776, Note_on_c, 0, 61, 60
2, 88776, Note_on_c, 0, 76, 74
2, 88896, Note_on_c, 0, 74, 0
2, 88901, Note_on_c, 0, 74, 59
2, 88926, Note_on_c, 0, 57, 0
2, 88932, Note_on_c, 0, 57, 67
2, 88934, Note_on_c, 0, 73, 0
2, 88942, Note_on_c, 0, 61, 0
2, 88942, Note_on_c, 0, 69, 0
2, 88945, Note_on_c, 0, 73, 85
2, 88946, Note_on_c, 0, 69, 63
2, 88950, Note_on_c, 0, 61, 58
2, 89041, Note_on_c, 0, 61, 0
2, 89046, Note_on_c, 0, 61, 45
2, 89092, Note_on_c, 0, 45, 0
2, 89092, Note_on_c, 0, 86, 0
2, 89093, Note_on_c, 0, 81, 0
2, 89093, Note_on_c, 0, 61, 0
2, 89093, Note_on_c, 0, 88, 0
2, 89093, Note_on_c, 0, 76, 0
2, 89093, Note_on_c, 0, 74, 0
2, 89095, Note_on_c, 0, 64, 0
2, 89096, Control_c, 0, 64, 0
2, 89118, Note_on_c, 0, 57, 0
2, 89131, Note_on_c, 0, 55, 68
2, 89135, Note_on_c, 0, 43, 61
2, 89210, Control_c, 0, 64, 127
2, 89287, Note_on_c, 0, 69, 0
2, 89298, Note_on_c, 0, 69, 75
2, 89329, Note_on_c, 0, 50, 62
2, 89369, Note_on_c, 0, 57, 37
2, 89456, Note_on_c, 0, 69, 0
2, 89463, Note_on_c, 0, 69, 82
2, 89464, Note_on_c, 0, 55, 0
2, 89474, Note_on_c, 0, 55, 47
2, 89640, Note_on_c, 0, 50, 0
2, 89646, Note_on_c, 0, 50, 52
2, 89647, Note_on_c, 0, 61, 70
2, 89656, Control_c, 0, 64, 0
2, 89740, Control_c, 0, 64, 127
2, 89825, Note_on_c, 0, 55, 0
2, 89833, Note_on_c, 0, 55, 45
2, 89871, Note_on_c, 0, 61, 0
2, 89871, Note_on_c, 0, 69, 0
2, 89875, Note_on_c, 0, 69, 44
2, 89876, Note_on_c, 0, 61, 43
2, 89978, Note_on_c, 0, 50, 0
2, 89978, Note_on_c, 0, 57, 0
2, 89986, Note_on_c, 0, 50, 47
2, 89987, Note_on_c, 0, 57, 65
2, 90140, Note_on_c, 0, 69, 0
2, 90147, Note_on_c, 0, 55, 0
2, 90147, Note_on_c, 0, 57, 0
2, 90151, Note_on_c, 0, 69, 65
2, 90151, Note_on_c, 0, 57, 61
2, 90158, Note_on_c, 0, 55, 52
2, 90309, Note_on_c, 0, 50, 0
2, 90313, Note_on_c, 0, 50, 51
2, 90355, Note_on_c, 0, 57, 0
2, 90361, Note_on_c, 0, 57, 49
2, 90438, Control_c, 0, 64, 0
2, 90447, Control_c, 0, 64, 127
2, 90498, Note_on_c, 0, 54, 60
2, 90498, Note_on_c, 0, 62, 63
2, 90500, Note_on_c, 0, 42, 55
2, 90585, Note_on_c, 0, 50, 0
2, 90591, Note_on_c, 0, 64, 66
2, 90594, Note_on_c, 0, 50, 46
2, 90677, Note_on_c, 0, 50, 0
2, 90685, Note_on_c, 0, 69, 0
2, 90687, Note_on_c, 0, 50, 53
2, 90689, Note_on_c, 0, 69, 56
2, 90770, Note_on_c, 0, 74, 71
2, 90785, Note_on_c, 0, 50, 0
2, 90794, Note_on_c, 0, 50, 49
2, 90840, Note_on_c, 0, 76, 79
2, 90862, Note_on_c, 0, 54, 0
2, 90867, Note_on_c, 0, 54, 60
2, 90921, Note_on_c, 0, 81, 78
2, 91000, Note_on_c, 0, 50, 0
2, 91004, Note_on_c, 0, 86, 75
2, 91010, Note_on_c, 0, 50, 45
2, 91083, Note_on_c, 0, 88, 75
2, 91168, Note_on_c, 0, 93, 83
2, 91192, Note_on_c, 0, 42, 0
2, 91200, Note_on_c, 0, 54, 0
2, 91202, Note_on_c, 0, 42, 48
2, 91204, Note_on_c, 0, 54, 55
2, 91345, Note_on_c, 0, 50, 0
2, 91345, Note_on_c, 0, 64, 0
2, 91354, Note_on_c, 0, 64, 78
2, 91355, Note_on_c, 0, 50, 51
2, 91507, Note_on_c, 0, 69, 0
2, 91514, Note_on_c, 0, 54, 0
2, 91518, Note_on_c, 0, 69, 85
2, 91524, Note_on_c, 0, 54, 66
2, 91683, Note_on_c, 0, 50, 0
2, 91694, Note_on_c, 0, 50, 61
2, 91697, Note_on_c, 0, 71, 88
2, 91760, Note_on_c, 0, 43, 0
2, 91776, Note_on_c, 0, 69, 0
2, 91787, Note_on_c, 0, 69, 61
2, 91822, Note_on_c, 0, 55, 0
2, 91830, Note_on_c, 0, 54, 0
2, 91831, Note_on_c, 0, 62, 0
2, 91831, Note_on_c, 0, 50, 0
2, 91831, Note_on_c, 0, 93, 0
2, 91832, Note_on_c, 0, 76, 0
2, 91832, Note_on_c, 0, 74, 0
2, 91832, Note_on_c, 0, 86, 0
2, 91832, Note_on_c, 0, 88, 0
2, 91832, Note_on_c, 0, 81, 0
2, 91832, Note_on_c, 0, 64, 0
2, 91833, Note_on_c, 0, 69, 0
2, 91837, Note_on_c, 0, 73, 0
2, 91840, Control_c, 0, 64, 0
2, 91845, Note_on_c, 0, 42, 0
2, 91845, Note_on_c, 0, 57, 0
2, 91845, Note_on_c, 0, 61, 0
2, 91870, Note_on_c, 0, 52, 66
2, 91872, Note_on_c, 0, 40, 59
2, 91937, Control_c, 0, 64, 127
2, 92018, Note_on_c, 0, 69, 47
2, 92018, Note_on_c, 0, 59, 51
2, 92033, Note_on_c, 0, 47, 48
2, 92058, Note_on_c, 0, 64, 32
2, 92090, Note_on_c, 0, 47, 0
2, 92090, Note_on_c, 0, 52, 0
2, 92095, Note_on_c, 0, 47, 50
2, 92102, Note_on_c, 0, 52, 50
2, 92213, Note_on_c, 0, 40, 0
2, 92213, Note_on_c, 0, 47, 0
2, 92213, Note_on_c, 0, 52, 0
2, 92218, Note_on_c, 0, 40, 43
2, 92218, Note_on_c, 0, 47, 45
2, 92219, Note_on_c, 0, 52, 48
2, 92382, Note_on_c, 0, 69, 0
2, 92392, Note_on_c, 0, 69, 62
2, 92392, Note_on_c, 0, 57, 65
2, 92459, Note_on_c, 0, 47, 0
2, 92466, Note_on_c, 0, 47, 37
2, 92559, Note_on_c, 0, 40, 0
2, 92559, Note_on_c, 0, 52, 0
2, 92568, Note_on_c, 0, 40, 36
2, 92570, Note_on_c, 0, 52, 49
2, 92736, Note_on_c, 0, 47, 0
2, 92743, Note_on_c, 0, 47, 35
2, 92928, Note_on_c, 0, 59, 0
2, 92928, Note_on_c, 0, 71, 0
2, 92937, Note_on_c, 0, 71, 56
2, 92938, Note_on_c, 0, 59, 65
2, 93096, Note_on_c, 0, 47, 0
2, 93096, Note_on_c, 0, 52, 0
2, 93103, Note_on_c, 0, 47, 34
2, 93104, Note_on_c, 0, 52, 31
2, 93332, Note_on_c, 0, 40, 0
2, 93333, Note_on_c, 0, 47, 0
2, 93333, Note_on_c, 0, 69, 0
2, 93335, Note_on_c, 0, 52, 0
2, 93335, Note_on_c, 0, 64, 0
2, 93338, Control_c, 0, 64, 0
2, 93341, Note_on_c, 0, 64, 48
2, 93343, Note_on_c, 0, 52, 45
2, 93350, Note_on_c, 0, 57, 0
2, 93419, Control_c, 0, 64, 127
2, 93918, Note_on_c, 0, 68, 67
2, 94331, Note_on_c, 0, 69, 63
2, 94571, Note_on_c, 0, 71, 0
2, 94575, Note_on_c, 0, 71, 65
2, 94855, Note_on_c, 0, 69, 0
2, 94859, Note_on_c, 0, 69, 60
2, 95319, Note_on_c, 0, 69, 0
2, 95323, Note_on_c, 0, 52, 0
2, 95331, Note_on_c, 0, 64, 0
2, 95339, Note_on_c, 0, 68, 0
2, 95344, Note_on_c, 0, 50, 52
2, 95347, Note_on_c, 0, 59, 0
2, 95362, Note_on_c, 0, 83, 60
2, 95386, Note_on_c, 0, 76, 22
2, 95554, Note_on_c, 0, 71, 0
2, 95558, Note_on_c, 0, 57, 44
2, 95561, Note_on_c, 0, 71, 48
2, 95715, Note_on_c, 0, 76, 0
2, 95717, Note_on_c, 0, 62, 56
2, 95719, Note_on_c, 0, 76, 57
2, 95873, Note_on_c, 0, 80, 70
2, 95878, Note_on_c, 0, 66, 50
2, 96053, Note_on_c, 0, 71, 0
2, 96058, Note_on_c, 0, 71, 53
2, 96215, Note_on_c, 0, 62, 0
2, 96220, Note_on_c, 0, 81, 76
2, 96222, Note_on_c, 0, 62, 55
2, 96222, Note_on_c, 0, 71, 0
2, 96232, Note_on_c, 0, 71, 46
2, 96407, Note_on_c, 0, 71, 0
2, 96414, Note_on_c, 0, 71, 51
2, 96542, Note_on_c, 0, 80, 0
2, 96543, Note_on_c, 0, 81, 0
2, 96543, Note_on_c, 0, 66, 0
2, 96543, Note_on_c, 0, 62, 0
2, 96543, Note_on_c, 0, 57, 0
2, 96543, Note_on_c, 0, 71, 0
2, 96544, Note_on_c, 0, 83, 0
2, 96544, Note_on_c, 0, 50, 0
2, 96546, Control_c, 0, 64, 0
2, 96568, Note_on_c, 0, 76, 0
2, 96573, Note_on_c, 0, 49, 56
2, 96573, Note_on_c, 0, 76, 71
2, 96622, Control_c, 0, 64, 127
2, 96726, Note_on_c, 0, 57, 55
2, 96764, Note_on_c, 0, 69, 41
2, 96903, Note_on_c, 0, 61, 58
2, 97062, Note_on_c, 0, 64, 60
2, 97205, Note_on_c, 0, 76, 0
2, 97213, Note_on_c, 0, 69, 0
2, 97216, Note_on_c, 0, 76, 71
2, 97222, Note_on_c, 0, 69, 64
2, 97383, Note_on_c, 0, 80, 85
2, 97561, Note_on_c, 0, 71, 60
2, 97697, Note_on_c, 0, 64, 0
2, 97706, Note_on_c, 0, 64, 69
2, 97711, Note_on_c, 0, 81, 87
2, 97866, Note_on_c, 0, 71, 0
2, 97870, Note_on_c, 0, 71, 55
2, 98046, Note_on_c, 0, 88, 91
2, 98070, Control_c, 0, 64, 0
2, 98080, Note_on_c, 0, 47, 59
2, 98083, Note_on_c, 0, 64, 0
2, 98084, Note_on_c, 0, 49, 0
2, 98084, Note_on_c, 0, 80, 0
2, 98084, Note_on_c, 0, 71, 0
2, 98084, Note_on_c, 0, 61, 0
2, 98085, Note_on_c, 0, 57, 0
2, 98085, Note_on_c, 0, 81, 0
2, 98085, Note_on_c, 0, 76, 0
2, 98096, Control_c, 0, 64, 127
2, 98112, Note_on_c, 0, 69, 0
2, 98224, Note_on_c, 0, 76, 68
2, 98229, Note_on_c, 0, 54, 58
2, 98382, Note_on_c, 0, 81, 85
2, 98382, Note_on_c, 0, 57, 60
2, 98552, Note_on_c, 0, 86, 91
2, 98576, Note_on_c, 0, 62, 65
2, 98726, Note_on_c, 0, 76, 0
2, 98732, Note_on_c, 0, 76, 52
2, 98880, Note_on_c, 0, 83, 92
2, 98895, Note_on_c, 0, 57, 0
2, 98897, Note_on_c, 0, 69, 60
2, 98902, Note_on_c, 0, 57, 61
2, 99041, Note_on_c, 0, 76, 0
2, 99051, Note_on_c, 0, 76, 64
2, 99216, Control_c, 0, 64, 0
2, 99222, Note_on_c, 0, 54, 0
2, 99223, Note_on_c, 0, 86, 0
2, 99223, Note_on_c, 0, 57, 0
2, 99223, Note_on_c, 0, 62, 0
2, 99223, Note_on_c, 0, 47, 0
2, 99225, Note_on_c, 0, 76, 0
2, 99226, Note_on_c, 0, 81, 0
2, 99226, Note_on_c, 0, 88, 0
2, 99227, Note_on_c, 0, 85, 89
2, 99227, Note_on_c, 0, 83, 0
2, 99235, Note_on_c, 0, 45, 70
2, 99240, Note_on_c, 0, 69, 0
2, 99279, Control_c, 0, 64, 127
2, 99394, Note_on_c, 0, 52, 63
2, 99551, Note_on_c, 0, 69, 59
2, 99713, Note_on_c, 0, 61, 59
2, 99878, Note_on_c, 0, 64, 60
2, 99882, Note_on_c, 0, 76, 73
2, 100039, Note_on_c, 0, 52, 0
2, 100049, Note_on_c, 0, 52, 47
2, 100050, Note_on_c, 0, 83, 85
2, 100208, Note_on_c, 0, 76, 0
2, 100216, Note_on_c, 0, 76, 66
2, 100362, Note_on_c, 0, 85, 0
2, 100369, Note_on_c, 0, 85, 82
2, 100369, Note_on_c, 0, 57, 68
2, 100546, Note_on_c, 0, 81, 91
2, 100675, Note_on_c, 0, 83, 0
2, 100675, Note_on_c, 0, 85, 0
2, 100676, Note_on_c, 0, 76, 0
2, 100676, Note_on_c, 0, 61, 0
2, 100676, Note_on_c, 0, 69, 0
2, 100677, Note_on_c, 0, 52, 0
2, 100677, Note_on_c, 0, 64, 0
2, 100677, Note_on_c, 0, 57, 0
2, 100679, Note_on_c, 0, 45, 0
2, 100680, Control_c, 0, 64, 0
2, 100718, Note_on_c, 0, 50, 69
2, 100730, Control_c, 0, 64, 127
2, 100869, Note_on_c, 0, 69, 62
2, 100871, Note_on_c, 0, 57, 54
2, 101041, Note_on_c, 0, 76, 63
2, 101049, Note_on_c, 0, 62, 55
2, 101176, Note_on_c, 0, 69, 0
2, 101187, Note_on_c, 0, 69, 53
2, 101204, Note_on_c, 0, 66, 57
2, 101352, Note_on_c, 0, 81, 0
2, 101358, Note_on_c, 0, 81, 76
2, 101514, Note_on_c, 0, 62, 0
2, 101514, Note_on_c, 0, 69, 0
2, 101525, Note_on_c, 0, 62, 61
2, 101525, Note_on_c, 0, 69, 51
2, 101678, Note_on_c, 0, 74, 79
2, 101859, Note_on_c, 0, 73, 80
2, 101965, Note_on_c, 0, 57, 0
2, 101965, Note_on_c, 0, 66, 0
2, 101965, Note_on_c, 0, 81, 0
2, 101966, Note_on_c, 0, 50, 0
2, 101966, Note_on_c, 0, 76, 0
2, 101966, Note_on_c, 0, 62, 0
2, 101967, Note_on_c, 0, 74, 0
2, 101971, Control_c, 0, 64, 0
2, 102028, Control_c, 0, 64, 127
2, 102029, Note_on_c, 0, 49, 59
2, 102167, Note_on_c, 0, 69, 0
2, 102169, Note_on_c, 0, 57, 60
2, 102177, Note_on_c, 0, 69, 57
2, 102336, Note_on_c, 0, 76, 72
2, 102338, Note_on_c, 0, 61, 57
2, 102497, Note_on_c, 0, 69, 0
2, 102499, Note_on_c, 0, 64, 62
2, 102501, Note_on_c, 0, 69, 59
2, 102668, Note_on_c, 0, 81, 72
2, 102819, Note_on_c, 0, 57, 0
2, 102819, Note_on_c, 0, 69, 0
2, 102825, Note_on_c, 0, 57, 50
2, 102829, Note_on_c, 0, 69, 57
2, 103001, Note_on_c, 0, 74, 75
2, 103173, Note_on_c, 0, 76, 0
2, 103183, Note_on_c, 0, 76, 80
2, 103287, Note_on_c, 0, 74, 0
2, 103288, Note_on_c, 0, 69, 0
2, 103289, Note_on_c, 0, 73, 0
2, 103290, Note_on_c, 0, 61, 0
2, 103290, Note_on_c, 0, 81, 0
2, 103291, Note_on_c, 0, 57, 0
2, 103291, Note_on_c, 0, 64, 0
2, 103292, Control_c, 0, 64, 0
2, 103295, Note_on_c, 0, 49, 0
2, 103319, Note_on_c, 0, 52, 70
2, 103342, Control_c, 0, 64, 127
2, 103497, Note_on_c, 0, 59, 52
2, 103529, Note_on_c, 0, 69, 45
2, 103656, Note_on_c, 0, 76, 0
2, 103666, Note_on_c, 0, 76, 64
2, 103802, Note_on_c, 0, 76, 0
2, 103813, Note_on_c, 0, 76, 54
2, 103818, Note_on_c, 0, 69, 0
2, 103827, Note_on_c, 0, 69, 50
2, 103830, Note_on_c, 0, 64, 50
2, 103987, Note_on_c, 0, 76, 0
2, 103997, Note_on_c, 0, 83, 58
2, 103998, Note_on_c, 0, 76, 40
2, 104156, Note_on_c, 0, 76, 0
2, 104160, Note_on_c, 0, 76, 59
2, 104181, Note_on_c, 0, 71, 50
2, 104325, Note_on_c, 0, 83, 0
2, 104332, Note_on_c, 0, 83, 64
2, 104332, Note_on_c, 0, 76, 0
2, 104343, Note_on_c, 0, 76, 40
2, 104517, Note_on_c, 0, 76, 0
2, 104528, Note_on_c, 0, 76, 56
2, 104528, Note_on_c, 0, 88, 73
2, 104737, Note_on_c, 0, 52, 0
2, 104737, Note_on_c, 0, 59, 0
2, 104739, Note_on_c, 0, 71, 0
2, 104741, Note_on_c, 0, 64, 0
2, 104742, Note_on_c, 0, 69, 0
2, 104785, Control_c, 0, 64, 0
2, 105377, Control_c, 0, 64, 127
2, 105380, Note_on_c, 0, 80, 66
2, 105408, Note_on_c, 0, 76, 0
2, 105413, Note_on_c, 0, 76, 26
2, 106117, Note_on_c, 0, 81, 76
2, 106530, Note_on_c, 0, 57, 49
2, 106705, Note_on_c, 0, 83, 0
2, 106716, Note_on_c, 0, 64, 47
2, 106928, Note_on_c, 0, 76, 0
2, 106935, Note_on_c, 0, 76, 46
2, 107089, Note_on_c, 0, 81, 0
2, 107095, Note_on_c, 0, 81, 66
2, 107145, Note_on_c, 0, 69, 44
2, 107261, Note_on_c, 0, 86, 68
2, 107443, Note_on_c, 0, 85, 68
2, 107596, Note_on_c, 0, 76, 0
2, 107607, Note_on_c, 0, 76, 60
2, 107750, Note_on_c, 0, 81, 0
2, 107755, Note_on_c, 0, 81, 60
2, 107927, Note_on_c, 0, 85, 0
2, 107932, Note_on_c, 0, 85, 75
2, 108128, Note_on_c, 0, 83, 54
2, 108280, Note_on_c, 0, 76, 0
2, 108291, Note_on_c, 0, 76, 52
2, 108433, Note_on_c, 0, 81, 0
2, 108445, Note_on_c, 0, 81, 60
2, 108595, Note_on_c, 0, 83, 0
2, 108600, Note_on_c, 0, 83, 71
2, 108748, Note_on_c, 0, 81, 0
2, 108752, Note_on_c, 0, 81, 57
2, 108925, Note_on_c, 0, 83, 0
2, 108933, Note_on_c, 0, 83, 66
2, 109102, Note_on_c, 0, 81, 0
2, 109110, Note_on_c, 0, 81, 64
2, 109132, Note_on_c, 0, 88, 0
2, 109253, Note_on_c, 0, 86, 0
2, 109255, Note_on_c, 0, 57, 0
2, 109256, Note_on_c, 0, 85, 0
2, 109256, Note_on_c, 0, 80, 0
2, 109256, Note_on_c, 0, 83, 0
2, 109257, Note_on_c, 0, 64, 0
2, 109257, Note_on_c, 0, 69, 0
2, 109257, Note_on_c, 0, 76, 0
2, 109265, Note_on_c, 0, 57, 50
2, 109267, Control_c, 0, 64, 0
2, 109324, Control_c, 0, 64, 127
2, 109445, Note_on_c, 0, 64, 59
2, 109597, Note_on_c, 0, 76, 63
2, 109747, Note_on_c, 0, 81, 0
2, 109757, Note_on_c, 0, 81, 74
2, 109788, Note_on_c, 0, 69, 52
2, 109935, Note_on_c, 0, 86, 74
2, 110126, Note_on_c, 0, 85, 66
2, 110284, Note_on_c, 0, 76, 0
2, 110293, Note_on_c, 0, 76, 61
2, 110438, Note_on_c, 0, 81, 0
2, 110449, Note_on_c, 0, 81, 69
2, 110599, Note_on_c, 0, 85, 0
2, 110609, Note_on_c, 0, 85, 71
2, 110794, Note_on_c, 0, 83, 70
2, 110991, Note_on_c, 0, 76, 0
2, 111001, Note_on_c, 0, 76, 51
2, 111091, Note_on_c, 0, 76, 0
2, 111098, Note_on_c, 0, 76, 41
2, 111114, Note_on_c, 0, 81, 0
2, 111121, Note_on_c, 0, 81, 62
2, 111152, Note_on_c, 0, 76, 0
2, 111156, Note_on_c, 0, 76, 40
2, 111290, Note_on_c, 0, 83, 0
2, 111300, Note_on_c, 0, 83, 69
2, 111452, Note_on_c, 0, 81, 0
2, 111463, Note_on_c, 0, 81, 59
2, 111636, Note_on_c, 0, 83, 0
2, 111646, Note_on_c, 0, 83, 52
2, 111843, Note_on_c, 0, 81, 0
2, 111855, Note_on_c, 0, 81, 59
2, 112060, Note_on_c, 0, 58, 40
2, 112075, Note_on_c, 0, 86, 0
2, 112076, Note_on_c, 0, 64, 0
2, 112076, Note_on_c, 0, 69, 0
2, 112076, Note_on_c, 0, 57, 0
2, 112077, Note_on_c, 0, 83, 0
2, 112077, Note_on_c, 0, 85, 0
2, 112077, Note_on_c, 0, 81, 0
2, 112077, Note_on_c, 0, 76, 0
2, 112080, Control_c, 0, 64, 0
2, 112174, Control_c, 0, 64, 127
2, 112265, Note_on_c, 0, 65, 53
2, 112454, Note_on_c, 0, 77, 56
2, 112632, Note_on_c, 0, 79, 71
2, 112633, Note_on_c, 0, 70, 56
2, 112808, Note_on_c, 0, 86, 74
2, 112993, Note_on_c, 0, 84, 73
2, 113149, Note_on_c, 0, 77, 0
2, 113156, Note_on_c, 0, 77, 63
2, 113310, Note_on_c, 0, 79, 0
2, 113321, Note_on_c, 0, 79, 72
2, 113487, Note_on_c, 0, 84, 0
2, 113498, Note_on_c, 0, 84, 72
2, 113673, Note_on_c, 0, 82, 71
2, 113832, Note_on_c, 0, 77, 0
2, 113844, Note_on_c, 0, 77, 58
2, 113986, Note_on_c, 0, 79, 0
2, 113991, Note_on_c, 0, 79, 66
2, 114163, Note_on_c, 0, 82, 0
2, 114168, Note_on_c, 0, 82, 69
2, 114356, Note_on_c, 0, 81, 59
2, 114516, Note_on_c, 0, 82, 0
2, 114521, Note_on_c, 0, 82, 63
2, 114700, Note_on_c, 0, 81, 0
2, 114705, Note_on_c, 0, 81, 58
2, 114854, Note_on_c, 0, 60, 58
2, 114859, Note_on_c, 0, 77, 0
2, 114861, Note_on_c, 0, 84, 0
2, 114861, Note_on_c, 0, 79, 0
2, 114861, Note_on_c, 0, 65, 0
2, 114861, Note_on_c, 0, 58, 0
2, 114862, Note_on_c, 0, 86, 0
2, 114863, Note_on_c, 0, 82, 0
2, 114864, Note_on_c, 0, 70, 0
2, 114873, Control_c, 0, 64, 0
2, 114946, Control_c, 0, 64, 127
2, 115015, Note_on_c, 0, 81, 0
2, 115032, Note_on_c, 0, 67, 54
2, 115197, Note_on_c, 0, 77, 61
2, 115357, Note_on_c, 0, 79, 70
2, 115358, Note_on_c, 0, 72, 61
2, 115531, Note_on_c, 0, 86, 75
2, 115695, Note_on_c, 0, 84, 76
2, 115868, Note_on_c, 0, 77, 0
2, 115877, Note_on_c, 0, 77, 66
2, 116037, Note_on_c, 0, 79, 0
2, 116043, Note_on_c, 0, 79, 73
2, 116198, Note_on_c, 0, 84, 0
2, 116207, Note_on_c, 0, 84, 71
2, 116395, Note_on_c, 0, 82, 65
2, 116574, Note_on_c, 0, 77, 0
2, 116578, Note_on_c, 0, 77, 56
2, 116759, Note_on_c, 0, 79, 0
2, 116770, Note_on_c, 0, 79, 56
2, 116943, Note_on_c, 0, 82, 0
2, 116948, Note_on_c, 0, 82, 62
2, 117120, Note_on_c, 0, 60, 0
2, 117120, Note_on_c, 0, 67, 0
2, 117131, Note_on_c, 0, 81, 54
2, 117312, Note_on_c, 0, 82, 0
2, 117321, Note_on_c, 0, 82, 65
2, 117488, Note_on_c, 0, 81, 0
2, 117500, Note_on_c, 0, 81, 55
2, 117653, Note_on_c, 0, 82, 0
2, 117653, Note_on_c, 0, 84, 0
2, 117653, Note_on_c, 0, 86, 0
2, 117653, Note_on_c, 0, 79, 0
2, 117654, Note_on_c, 0, 72, 0
2, 117656, Note_on_c, 0, 81, 0
2, 117688, Note_on_c, 0, 77, 0
2, 117694, Note_on_c, 0, 77, 55
2, 117699, Note_on_c, 0, 43, 45
2, 117703, Control_c, 0, 64, 0
2, 117788, Control_c, 0, 64, 127
2, 117889, Note_on_c, 0, 79, 66
2, 117897, Note_on_c, 0, 50, 61
2, 118055, Note_on_c, 0, 86, 79
2, 118090, Note_on_c, 0, 53, 54
2, 118235, Note_on_c, 0, 84, 75
2, 118257, Note_on_c, 0, 58, 54
2, 118402, Note_on_c, 0, 77, 0
2, 118411, Note_on_c, 0, 77, 75
2, 118571, Note_on_c, 0, 79, 0
2, 118580, Note_on_c, 0, 79, 79
2, 118590, Note_on_c, 0, 69, 47
2, 118758, Note_on_c, 0, 82, 82
2, 118759, Note_on_c, 0, 67, 54
2, 118944, Note_on_c, 0, 81, 67
2, 118945, Note_on_c, 0, 62, 63
2, 119116, Note_on_c, 0, 69, 0
2, 119116, Note_on_c, 0, 77, 0
2, 119121, Note_on_c, 0, 69, 58
2, 119125, Note_on_c, 0, 77, 61
2, 119285, Note_on_c, 0, 82, 0
2, 119293, Note_on_c, 0, 67, 0
2, 119295, Note_on_c, 0, 82, 80
2, 119297, Note_on_c, 0, 67, 50
2, 119316, Note_on_c, 0, 69, 0
2, 119324, Note_on_c, 0, 69, 44
2, 119462, Note_on_c, 0, 62, 0
2, 119462, Note_on_c, 0, 81, 0
2, 119473, Note_on_c, 0, 62, 55
2, 119473, Note_on_c, 0, 81, 62
2, 119623, Note_on_c, 0, 77, 0
2, 119631, Note_on_c, 0, 69, 0
2, 119634, Note_on_c, 0, 77, 61
2, 119640, Note_on_c, 0, 69, 54
2, 119777, Note_on_c, 0, 82, 0
2, 119788, Note_on_c, 0, 82, 79
2, 119800, Note_on_c, 0, 79, 0
2, 119808, Note_on_c, 0, 67, 0
2, 119808, Note_on_c, 0, 79, 57
2, 119812, Note_on_c, 0, 67, 53
2, 119969, Note_on_c, 0, 81, 0
2, 119976, Note_on_c, 0, 62, 0
2, 119979, Note_on_c, 0, 81, 66
2, 119981, Note_on_c, 0, 62, 57
2, 120155, Note_on_c, 0, 72, 66
2, 120322, Note_on_c, 0, 77, 0
2, 120326, Note_on_c, 0, 74, 69
2, 120332, Note_on_c, 0, 77, 50
2, 120450, Note_on_c, 0, 53, 0
2, 120451, Note_on_c, 0, 50, 0
2, 120451, Note_on_c, 0, 67, 0
2, 120451, Note_on_c, 0, 58, 0
2, 120451, Note_on_c, 0, 74, 0
2, 120452, Note_on_c, 0, 79, 0
2, 120452, Note_on_c, 0, 81, 0
2, 120452, Note_on_c, 0, 62, 0
2, 120452, Note_on_c, 0, 86, 0
2, 120453, Note_on_c, 0, 77, 0
2, 120453, Note_on_c, 0, 84, 0
2, 120453, Note_on_c, 0, 72, 0
2, 120454, Note_on_c, 0, 69, 0
2, 120454, Note_on_c, 0, 43, 0
2, 120457, Control_c, 0, 64, 0
2, 120468, Note_on_c, 0, 82, 0
2, 120504, Note_on_c, 0, 45, 67
2, 120517, Note_on_c, 0, 77, 68
2, 120529, Control_c, 0, 64, 127
2, 120678, Note_on_c, 0, 79, 74
2, 120680, Note_on_c, 0, 52, 65
2, 120852, Note_on_c, 0, 86, 82
2, 120852, Note_on_c, 0, 55, 59
2, 121034, Note_on_c, 0, 60, 55
2, 121038, Note_on_c, 0, 84, 68
2, 121198, Note_on_c, 0, 77, 0
2, 121206, Note_on_c, 0, 77, 78
2, 121374, Note_on_c, 0, 79, 0
2, 121378, Note_on_c, 0, 79, 75
2, 121382, Note_on_c, 0, 69, 60
2, 121553, Note_on_c, 0, 82, 82
2, 121553, Note_on_c, 0, 67, 63
2, 121704, Note_on_c, 0, 60, 0
2, 121716, Note_on_c, 0, 60, 61
2, 121719, Note_on_c, 0, 81, 70
2, 121896, Note_on_c, 0, 69, 0
2, 121896, Note_on_c, 0, 77, 0
2, 121901, Note_on_c, 0, 77, 67
2, 121907, Note_on_c, 0, 69, 49
2, 122058, Note_on_c, 0, 67, 0
2, 122058, Note_on_c, 0, 82, 0
2, 122069, Note_on_c, 0, 82, 84
2, 122069, Note_on_c, 0, 67, 58
2, 122234, Note_on_c, 0, 60, 0
2, 122242, Note_on_c, 0, 81, 0
2, 122243, Note_on_c, 0, 60, 57
2, 122247, Note_on_c, 0, 81, 69
2, 122280, Note_on_c, 0, 77, 0
2, 122284, Note_on_c, 0, 77, 40
2, 122403, Note_on_c, 0, 69, 0
2, 122403, Note_on_c, 0, 77, 0
2, 122414, Note_on_c, 0, 69, 58
2, 122414, Note_on_c, 0, 77, 64
2, 122580, Note_on_c, 0, 67, 0
2, 122580, Note_on_c, 0, 82, 0
2, 122584, Note_on_c, 0, 82, 84
2, 122587, Note_on_c, 0, 67, 54
2, 122764, Note_on_c, 0, 60, 0
2, 122764, Note_on_c, 0, 81, 0
2, 122773, Note_on_c, 0, 81, 66
2, 122774, Note_on_c, 0, 60, 51
2, 122934, Note_on_c, 0, 72, 74
2, 123100, Note_on_c, 0, 74, 70
2, 123228, Note_on_c, 0, 82, 0
2, 123228, Note_on_c, 0, 69, 0
2, 123228, Note_on_c, 0, 81, 0
2, 123228, Note_on_c, 0, 74, 0
2, 123229, Note_on_c, 0, 52, 0
2, 123229, Note_on_c, 0, 67, 0
2, 123229, Note_on_c, 0, 79, 0
2, 123229, Note_on_c, 0, 72, 0
2, 123229, Note_on_c, 0, 55, 0
2, 123229, Note_on_c, 0, 86, 0
2, 123229, Note_on_c, 0, 45, 0
2, 123230, Note_on_c, 0, 84, 0
2, 123230, Control_c, 0, 64, 0
2, 123240, Note_on_c, 0, 60, 0
2, 123256, Note_on_c, 0, 77, 0
2, 123266, Note_on_c, 0, 46, 68
2, 123267, Note_on_c, 0, 77, 80
2, 123279, Control_c, 0, 64, 127
2, 123449, Note_on_c, 0, 79, 68
2, 123451, Note_on_c, 0, 53, 64
2, 123606, Note_on_c, 0, 86, 82
2, 123612, Note_on_c, 0, 57, 63
2, 123781, Note_on_c, 0, 84, 79
2, 123788, Note_on_c, 0, 62, 63
2, 123947, Note_on_c, 0, 77, 0
2, 123957, Note_on_c, 0, 77, 84
2, 124116, Note_on_c, 0, 77, 0
2, 124116, Note_on_c, 0, 79, 0
2, 124121, Note_on_c, 0, 79, 79
2, 124122, Note_on_c, 0, 77, 67
2, 124298, Note_on_c, 0, 82, 87
2, 124483, Note_on_c, 0, 81, 76
2, 124601, Note_on_c, 0, 77, 0
2, 124601, Note_on_c, 0, 53, 0
2, 124602, Note_on_c, 0, 79, 0
2, 124602, Note_on_c, 0, 86, 0
2, 124602, Note_on_c, 0, 62, 0
2, 124603, Note_on_c, 0, 84, 0
2, 124603, Note_on_c, 0, 57, 0
2, 124604, Control_c, 0, 64, 0
2, 124608, Note_on_c, 0, 46, 0
2, 124651, Note_on_c, 0, 47, 66
2, 124661, Control_c, 0, 64, 127
2, 124822, Note_on_c, 0, 53, 69
2, 124828, Note_on_c, 0, 77, 69
2, 124864, Note_on_c, 0, 65, 53
2, 124971, Note_on_c, 0, 57, 71
2, 124978, Note_on_c, 0, 69, 69
2, 124984, Note_on_c, 0, 69, 0
2, 124996, Note_on_c, 0, 86, 86
2, 125162, Note_on_c, 0, 62, 66
2, 125164, Note_on_c, 0, 84, 73
2, 125322, Note_on_c, 0, 77, 0
2, 125329, Note_on_c, 0, 77, 83
2, 125492, Note_on_c, 0, 79, 89
2, 125660, Note_on_c, 0, 82, 0
2, 125666, Note_on_c, 0, 82, 91
2, 125836, Note_on_c, 0, 81, 0
2, 125840, Note_on_c, 0, 81, 85
2, 125957, Note_on_c, 0, 53, 0
2, 125958, Control_c, 0, 64, 0
2, 125958, Note_on_c, 0, 77, 0
2, 125959, Note_on_c, 0, 62, 0
2, 125959, Note_on_c, 0, 81, 0
2, 125959, Note_on_c, 0, 57, 0
2, 125959, Note_on_c, 0, 65, 0
2, 125960, Note_on_c, 0, 79, 0
2, 125960, Note_on_c, 0, 86, 0
2, 125961, Note_on_c, 0, 82, 0
2, 125961, Note_on_c, 0, 84, 0
2, 125982, Note_on_c, 0, 47, 0
2, 126003, Note_on_c, 0, 48, 71
2, 126007, Note_on_c, 0, 77, 82
2, 126021, Control_c, 0, 64, 127
2, 126176, Note_on_c, 0, 55, 68
2, 126177, Note_on_c, 0, 79, 86
2, 126339, Note_on_c, 0, 86, 93
2, 126341, Note_on_c, 0, 60, 81
2, 126520, Note_on_c, 0, 84, 86
2, 126523, Note_on_c, 0, 64, 76
2, 126681, Note_on_c, 0, 77, 0
2, 126689, Note_on_c, 0, 77, 90
2, 126858, Note_on_c, 0, 79, 0
2, 126862, Note_on_c, 0, 79, 90
2, 127039, Note_on_c, 0, 82, 95
2, 127229, Note_on_c, 0, 81, 85
2, 127318, Note_on_c, 0, 77, 0
2, 127319, Note_on_c, 0, 60, 0
2, 127319, Note_on_c, 0, 55, 0
2, 127320, Note_on_c, 0, 84, 0
2, 127320, Note_on_c, 0, 64, 0
2, 127321, Note_on_c, 0, 79, 0
2, 127321, Note_on_c, 0, 86, 0
2, 127321, Note_on_c, 0, 82, 0
2, 127322, Control_c, 0, 64, 0
2, 127334, Note_on_c, 0, 48, 0
2, 127390, Note_on_c, 0, 49, 79
2, 127403, Control_c, 0, 64, 127
2, 127553, Note_on_c, 0, 57, 74
2, 127560, Note_on_c, 0, 76, 88
2, 127730, Note_on_c, 0, 86, 91
2, 127730, Note_on_c, 0, 61, 71
2, 127900, Note_on_c, 0, 85, 84
2, 127905, Note_on_c, 0, 64, 70
2, 128040, Note_on_c, 0, 85, 0
2, 128052, Note_on_c, 0, 85, 63
2, 128079, Note_on_c, 0, 79, 95
2, 128148, Note_on_c, 0, 57, 0
2, 128159, Note_on_c, 0, 57, 55
2, 128248, Note_on_c, 0, 81, 0
2, 128254, Note_on_c, 0, 81, 91
2, 128378, Note_on_c, 0, 79, 0
2, 128386, Note_on_c, 0, 79, 66
2, 128430, Note_on_c, 0, 82, 92
2, 128601, Note_on_c, 0, 81, 0
2, 128612, Note_on_c, 0, 81, 84
2, 128771, Note_on_c, 0, 45, 60
2, 128819, Control_c, 0, 64, 0
2, 128836, Note_on_c, 0, 57, 0
2, 128837, Note_on_c, 0, 64, 0
2, 128837, Note_on_c, 0, 49, 0
2, 128837, Note_on_c, 0, 79, 0
2, 128837, Note_on_c, 0, 85, 0
2, 128837, Note_on_c, 0, 61, 0
2, 128839, Note_on_c, 0, 82, 0
2, 128840, Note_on_c, 0, 76, 0
2, 128843, Note_on_c, 0, 86, 0
2, 128931, Control_c, 0, 64, 127
2, 128972, Note_on_c, 0, 82, 76
2, 129162, Note_on_c, 0, 81, 0
2, 129171, Note_on_c, 0, 81, 77
2, 129341, Note_on_c, 0, 52, 55
2, 129454, Note_on_c, 0, 82, 0
2, 129512, Note_on_c, 0, 82, 74
2, 129699, Note_on_c, 0, 81, 0
2, 129710, Note_on_c, 0, 81, 65
2, 129895, Note_on_c, 0, 57, 32
2, 130099, Note_on_c, 0, 82, 0
2, 130106, Note_on_c, 0, 82, 53
2, 130283, Note_on_c, 0, 81, 0
2, 130294, Note_on_c, 0, 81, 54
2, 130493, Note_on_c, 0, 61, 37
2, 130713, Note_on_c, 0, 61, 0
2, 130713, Note_on_c, 0, 82, 0
2, 130720, Note_on_c, 0, 82, 55
2, 130724, Note_on_c, 0, 61, 31
2, 131005, Note_on_c, 0, 81, 0
2, 131015, Note_on_c, 0, 81, 51
2, 132480, Note_on_c, 0, 45, 0
2, 132480, Note_on_c, 0, 52, 0
2, 132480, Note_on_c, 0, 57, 0
2, 132480, Note_on_c, 0, 82, 0
2, 132670, Note_on_c, 0, 67, 80
2, 132851, Note_on_c, 0, 46, 52
2, 132899, Note_on_c, 0, 53, 61
2, 132958, Note_on_c, 0, 57, 65
2, 132981, Note_on_c, 0, 69, 88
2, 132988, Note_on_c, 0, 62, 66
2, 133040, Note_on_c, 0, 81, 0
2, 133062, Note_on_c, 0, 61, 0
2, 133066, Note_on_c, 0, 67, 0
2, 133398, Note_on_c, 0, 67, 87
2, 133770, Note_on_c, 0, 62, 0
2, 133781, Note_on_c, 0, 62, 87
2, 134146, Note_on_c, 0, 67, 0
2, 134154, Note_on_c, 0, 67, 86
2, 134443, Note_on_c, 0, 48, 59
2, 134488, Note_on_c, 0, 55, 71
2, 134532, Control_c, 0, 64, 0
2, 134536, Note_on_c, 0, 57, 0
2, 134537, Note_on_c, 0, 46, 0
2, 134537, Note_on_c, 0, 53, 0
2, 134538, Note_on_c, 0, 69, 0
2, 134540, Note_on_c, 0, 67, 0
2, 134542, Note_on_c, 0, 60, 74
2, 134548, Note_on_c, 0, 69, 88
2, 134550, Note_on_c, 0, 64, 75
2, 134568, Control_c, 0, 64, 127
2, 134615, Note_on_c, 0, 62, 0
2, 134618, Control_c, 0, 64, 0
2, 134622, Control_c, 0, 64, 127
2, 134835, Note_on_c, 0, 67, 91
2, 135106, Note_on_c, 0, 69, 0
2, 135111, Note_on_c, 0, 69, 86
2, 135338, Note_on_c, 0, 70, 84
2, 135943, Note_on_c, 0, 69, 0
2, 135951, Note_on_c, 0, 69, 81
2, 136031, Note_on_c, 0, 45, 64
2, 136090, Note_on_c, 0, 52, 70
2, 136104, Note_on_c, 0, 60, 0
2, 136105, Control_c, 0, 64, 0
2, 136112, Control_c, 0, 64, 127
2, 136120, Note_on_c, 0, 55, 0
2, 136120, Note_on_c, 0, 67, 0
2, 136127, Note_on_c, 0, 55, 74
2, 136131, Note_on_c, 0, 67, 89
2, 136146, Note_on_c, 0, 60, 74
2, 136248, Control_c, 0, 64, 0
2, 136304, Note_on_c, 0, 67, 0
2, 136312, Note_on_c, 0, 64, 0
2, 136315, Note_on_c, 0, 67, 87
2, 136320, Note_on_c, 0, 70, 0
2, 136358, Note_on_c, 0, 69, 0
2, 136458, Control_c, 0, 64, 127
2, 136484, Note_on_c, 0, 65, 91
2, 136569, Control_c, 0, 64, 0
2, 136581, Control_c, 0, 64, 127
2, 136650, Note_on_c, 0, 65, 0
2, 136660, Note_on_c, 0, 65, 90
2, 136819, Control_c, 0, 64, 0
2, 136859, Note_on_c, 0, 65, 0
2, 136868, Note_on_c, 0, 64, 88
2, 136896, Control_c, 0, 64, 127
2, 137264, Note_on_c, 0, 60, 0
2, 137271, Note_on_c, 0, 60, 86
2, 137648, Note_on_c, 0, 67, 0
2, 137650, Note_on_c, 0, 38, 50
2, 137710, Note_on_c, 0, 69, 73
2, 137711, Note_on_c, 0, 57, 79
2, 137735, Note_on_c, 0, 53, 58
2, 137737, Note_on_c, 0, 50, 50
2, 137756, Control_c, 0, 64, 0
2, 137756, Note_on_c, 0, 60, 0
2, 137758, Note_on_c, 0, 52, 0
2, 137758, Note_on_c, 0, 55, 0
2, 137759, Note_on_c, 0, 64, 0
2, 137763, Note_on_c, 0, 48, 0
2, 138332, Control_c, 0, 64, 127
2, 138769, Note_on_c, 0, 62, 80
2, 138946, Note_on_c, 0, 62, 0
2, 138953, Note_on_c, 0, 74, 80
2, 138953, Note_on_c, 0, 62, 85
2, 138961, Note_on_c, 0, 74, 0
2, 139125, Note_on_c, 0, 64, 88
2, 139198, Note_on_c, 0, 43, 61
2, 139253, Note_on_c, 0, 50, 0
2, 139261, Note_on_c, 0, 43, 0
2, 139261, Note_on_c, 0, 50, 61
2, 139271, Note_on_c, 0, 43, 48
2, 139308, Control_c, 0, 64, 0
2, 139309, Note_on_c, 0, 69, 0
2, 139310, Note_on_c, 0, 57, 0
2, 139315, Note_on_c, 0, 53, 0
2, 139319, Note_on_c, 0, 64, 0
2, 139323, Note_on_c, 0, 53, 67
2, 139328, Note_on_c, 0, 65, 94
2, 139334, Note_on_c, 0, 58, 81
2, 139338, Note_on_c, 0, 38, 0
2, 139430, Control_c, 0, 64, 127
2, 139625, Note_on_c, 0, 64, 87
2, 139660, Control_c, 0, 64, 0
2, 139664, Note_on_c, 0, 65, 0
2, 139745, Control_c, 0, 64, 127
2, 139914, Note_on_c, 0, 62, 0
2, 139941, Note_on_c, 0, 65, 85
2, 140160, Note_on_c, 0, 45, 0
2, 140336, Note_on_c, 0, 64, 0
2, 140341, Note_on_c, 0, 64, 85
2, 140497, Note_on_c, 0, 65, 0
2, 140508, Note_on_c, 0, 65, 87
2, 140688, Note_on_c, 0, 69, 82
2, 140795, Note_on_c, 0, 45, 59
2, 140853, Note_on_c, 0, 52, 65
2, 140887, Note_on_c, 0, 55, 64
2, 140889, Note_on_c, 0, 67, 86
2, 140890, Note_on_c, 0, 58, 0
2, 140892, Note_on_c, 0, 53, 0
2, 140892, Note_on_c, 0, 65, 0
2, 140893, Note_on_c, 0, 69, 0
2, 140893, Note_on_c, 0, 64, 0
2, 140901, Note_on_c, 0, 60, 69
2, 140901, Control_c, 0, 64, 0
2, 140904, Note_on_c, 0, 50, 0
2, 141073, Control_c, 0, 64, 127
2, 141293, Note_on_c, 0, 64, 78
2, 141684, Note_on_c, 0, 62, 75
2, 141711, Note_on_c, 0, 67, 0
2, 142080, Note_on_c, 0, 60, 0
2, 142085, Note_on_c, 0, 60, 73
2, 142558, Note_on_c, 0, 53, 39
2, 142579, Note_on_c, 0, 43, 0
2, 142586, Note_on_c, 0, 62, 0
2, 142593, Note_on_c, 0, 62, 68
2, 142610, Note_on_c, 0, 57, 51
2, 142610, Note_on_c, 0, 46, 40
2, 142632, Note_on_c, 0, 64, 0
2, 142645, Note_on_c, 0, 52, 0
2, 142645, Note_on_c, 0, 55, 0
2, 142647, Note_on_c, 0, 60, 0
2, 142656, Control_c, 0, 64, 0
2, 142863, Control_c, 0, 64, 127
2, 143359, Note_on_c, 0, 58, 47
2, 143520, Note_on_c, 0, 60, 53
2, 143623, Note_on_c, 0, 62, 0
2, 143633, Note_on_c, 0, 62, 55
2, 143746, Note_on_c, 0, 60, 0
2, 143753, Note_on_c, 0, 60, 63
2, 143846, Note_on_c, 0, 62, 0
2, 143855, Note_on_c, 0, 62, 60
2, 143972, Note_on_c, 0, 64, 56
2, 144057, Note_on_c, 0, 65, 62
2, 144161, Note_on_c, 0, 62, 0
2, 144167, Note_on_c, 0, 62, 53
2, 144230, Note_on_c, 0, 64, 0
2, 144237, Note_on_c, 0, 64, 53
2, 144345, Note_on_c, 0, 65, 0
2, 144354, Note_on_c, 0, 65, 58
2, 144436, Note_on_c, 0, 67, 62
2, 144522, Note_on_c, 0, 64, 0
2, 144528, Note_on_c, 0, 64, 50
2, 144591, Note_on_c, 0, 65, 0
2, 144602, Note_on_c, 0, 65, 51
2, 144698, Note_on_c, 0, 67, 0
2, 144707, Note_on_c, 0, 67, 64
2, 144798, Note_on_c, 0, 69, 62
2, 144814, Note_on_c, 0, 64, 0
2, 144867, Note_on_c, 0, 65, 0
2, 144873, Note_on_c, 0, 65, 66
2, 144913, Note_on_c, 0, 67, 0
2, 144929, Note_on_c, 0, 69, 0
2, 144956, Note_on_c, 0, 67, 66
2, 144960, Note_on_c, 0, 58, 0
2, 145053, Note_on_c, 0, 69, 63
2, 145113, Note_on_c, 0, 62, 0
2, 145139, Note_on_c, 0, 70, 75
2, 145221, Note_on_c, 0, 67, 0
2, 145227, Note_on_c, 0, 67, 69
2, 145305, Note_on_c, 0, 69, 0
2, 145313, Note_on_c, 0, 65, 0
2, 145314, Note_on_c, 0, 69, 63
2, 145382, Note_on_c, 0, 70, 0
2, 145390, Note_on_c, 0, 70, 68
2, 145405, Note_on_c, 0, 45, 0
2, 145488, Note_on_c, 0, 72, 76
2, 145566, Note_on_c, 0, 69, 0
2, 145570, Note_on_c, 0, 69, 68
2, 145658, Note_on_c, 0, 70, 0
2, 145665, Note_on_c, 0, 70, 72
2, 145728, Note_on_c, 0, 72, 0
2, 145732, Note_on_c, 0, 72, 75
2, 145787, Note_on_c, 0, 72, 0
2, 145789, Note_on_c, 0, 60, 0
2, 145790, Note_on_c, 0, 69, 0
2, 145791, Note_on_c, 0, 70, 0
2, 145809, Control_c, 0, 64, 0
2, 145827, Note_on_c, 0, 53, 0
2, 145831, Note_on_c, 0, 74, 81
2, 145832, Note_on_c, 0, 66, 81
2, 145835, Note_on_c, 0, 46, 0
2, 145838, Note_on_c, 0, 62, 67
2, 145842, Note_on_c, 0, 54, 69
2, 145843, Note_on_c, 0, 67, 0
2, 145854, Note_on_c, 0, 47, 63
2, 145873, Control_c, 0, 64, 127
2, 145896, Note_on_c, 0, 57, 0
2, 145950, Note_on_c, 0, 71, 69
2, 146037, Note_on_c, 0, 73, 74
2, 146135, Note_on_c, 0, 74, 0
2, 146141, Note_on_c, 0, 74, 73
2, 146228, Note_on_c, 0, 76, 71
2, 146311, Note_on_c, 0, 73, 0
2, 146321, Note_on_c, 0, 73, 65
2, 146350, Note_on_c, 0, 76, 0
2, 146353, Note_on_c, 0, 76, 59
2, 146403, Note_on_c, 0, 74, 0
2, 146412, Note_on_c, 0, 74, 74
2, 146451, Note_on_c, 0, 61, 59
2, 146503, Note_on_c, 0, 76, 0
2, 146507, Note_on_c, 0, 76, 59
2, 146542, Note_on_c, 0, 74, 0
2, 146546, Note_on_c, 0, 74, 65
2, 146549, Note_on_c, 0, 62, 0
2, 146553, Note_on_c, 0, 62, 73
2, 146582, Note_on_c, 0, 78, 76
2, 146672, Note_on_c, 0, 74, 0
2, 146677, Note_on_c, 0, 74, 68
2, 146680, Note_on_c, 0, 76, 0
2, 146685, Note_on_c, 0, 76, 60
2, 146695, Note_on_c, 0, 61, 0
2, 146701, Note_on_c, 0, 61, 59
2, 146757, Note_on_c, 0, 76, 0
2, 146761, Note_on_c, 0, 76, 68
2, 146818, Note_on_c, 0, 62, 0
2, 146818, Note_on_c, 0, 74, 0
2, 146822, Note_on_c, 0, 62, 65
2, 146823, Note_on_c, 0, 74, 62
2, 146826, Note_on_c, 0, 78, 0
2, 146837, Note_on_c, 0, 78, 73
2, 146920, Note_on_c, 0, 64, 65
2, 146927, Note_on_c, 0, 81, 80
2, 147018, Note_on_c, 0, 76, 0
2, 147028, Note_on_c, 0, 76, 70
2, 147095, Note_on_c, 0, 62, 0
2, 147095, Note_on_c, 0, 78, 0
2, 147105, Note_on_c, 0, 62, 62
2, 147105, Note_on_c, 0, 78, 74
2, 147194, Note_on_c, 0, 64, 0
2, 147194, Note_on_c, 0, 81, 0
2, 147199, Note_on_c, 0, 64, 62
2, 147199, Note_on_c, 0, 81, 74
2, 147206, Note_on_c, 0, 78, 0
2, 147219, Note_on_c, 0, 74, 0
2, 147221, Note_on_c, 0, 61, 0
2, 147225, Note_on_c, 0, 66, 0
2, 147256, Note_on_c, 0, 71, 0
2, 147264, Note_on_c, 0, 73, 0
2, 147271, Note_on_c, 0, 76, 0
2, 147275, Note_on_c, 0, 66, 77
2, 147279, Note_on_c, 0, 64, 0
2, 147287, Note_on_c, 0, 83, 79
2, 147317, Note_on_c, 0, 54, 0
2, 147356, Note_on_c, 0, 81, 0
2, 147363, Note_on_c, 0, 47, 0
2, 147389, Note_on_c, 0, 78, 73
2, 147408, Note_on_c, 0, 66, 0
2, 147432, Note_on_c, 0, 62, 0
2, 147448, Control_c, 0, 64, 0
2, 147453, Note_on_c, 0, 64, 65
2, 147477, Note_on_c, 0, 81, 73
2, 147521, Note_on_c, 0, 66, 67
2, 147532, Control_c, 0, 64, 127
2, 147548, Note_on_c, 0, 83, 0
2, 147559, Note_on_c, 0, 83, 70
2, 147578, Note_on_c, 0, 64, 0
2, 147619, Note_on_c, 0, 69, 63
2, 147625, Note_on_c, 0, 85, 75
2, 147632, Note_on_c, 0, 66, 0
2, 147636, Note_on_c, 0, 66, 57
2, 147640, Note_on_c, 0, 78, 0
2, 147713, Note_on_c, 0, 78, 58
2, 147717, Note_on_c, 0, 81, 0
2, 147725, Note_on_c, 0, 81, 67
2, 147778, Note_on_c, 0, 66, 0
2, 147778, Note_on_c, 0, 69, 0
2, 147784, Note_on_c, 0, 66, 65
2, 147789, Note_on_c, 0, 69, 59
2, 147824, Note_on_c, 0, 83, 0
2, 147829, Note_on_c, 0, 83, 64
2, 147878, Note_on_c, 0, 69, 0
2, 147878, Note_on_c, 0, 85, 0
2, 147882, Note_on_c, 0, 85, 74
2, 147883, Note_on_c, 0, 69, 57
2, 147886, Note_on_c, 0, 66, 0
2, 147896, Note_on_c, 0, 66, 56
2, 147970, Note_on_c, 0, 69, 0
2, 147970, Note_on_c, 0, 78, 0
2, 147975, Note_on_c, 0, 71, 71
2, 147977, Note_on_c, 0, 86, 73
2, 147979, Note_on_c, 0, 69, 57
2, 148085, Note_on_c, 0, 66, 0
2, 148085, Note_on_c, 0, 69, 0
2, 148085, Note_on_c, 0, 83, 0
2, 148090, Note_on_c, 0, 83, 67
2, 148090, Note_on_c, 0, 66, 45
2, 148094, Note_on_c, 0, 69, 50
2, 148154, Note_on_c, 0, 69, 0
2, 148165, Note_on_c, 0, 69, 52
2, 148170, Note_on_c, 0, 71, 0
2, 148176, Note_on_c, 0, 71, 55
2, 148177, Note_on_c, 0, 85, 0
2, 148184, Note_on_c, 0, 85, 75
2, 148185, Note_on_c, 0, 66, 0
2, 148195, Note_on_c, 0, 66, 47
2, 148247, Note_on_c, 0, 71, 0
2, 148251, Note_on_c, 0, 71, 53
2, 148254, Note_on_c, 0, 69, 0
2, 148258, Note_on_c, 0, 69, 49
2, 148285, Note_on_c, 0, 86, 0
2, 148291, Note_on_c, 0, 86, 70
2, 148362, Note_on_c, 0, 66, 0
2, 148364, Note_on_c, 0, 73, 63
2, 148367, Note_on_c, 0, 88, 69
2, 148368, Note_on_c, 0, 66, 44
2, 148469, Note_on_c, 0, 86, 0
2, 148475, Note_on_c, 0, 86, 57
2, 148477, Note_on_c, 0, 85, 0
2, 148482, Note_on_c, 0, 85, 65
2, 148600, Note_on_c, 0, 88, 0
2, 148607, Note_on_c, 0, 88, 63
2, 148699, Note_on_c, 0, 93, 79
2, 148861, Control_c, 0, 64, 0
2, 148864, Note_on_c, 0, 85, 0
2, 148865, Note_on_c, 0, 73, 0
2, 148866, Note_on_c, 0, 86, 0
2, 148867, Note_on_c, 0, 88, 0
2, 148869, Note_on_c, 0, 71, 0
2, 148869, Note_on_c, 0, 81, 0
2, 148869, Note_on_c, 0, 66, 0
2, 148869, Note_on_c, 0, 69, 0
2, 148876, Note_on_c, 0, 83, 0
2, 148877, Note_on_c, 0, 59, 57
2, 148879, Note_on_c, 0, 95, 72
2, 148888, Note_on_c, 0, 83, 67
2, 148945, Control_c, 0, 64, 127
2, 149226, Note_on_c, 0, 98, 67
2, 149234, Note_on_c, 0, 90, 62
2, 149235, Note_on_c, 0, 78, 63
2, 149291, Note_on_c, 0, 93, 0
2, 149383, Note_on_c, 0, 78, 0
2, 149394, Note_on_c, 0, 78, 47
2, 149429, Note_on_c, 0, 98, 0
2, 149434, Note_on_c, 0, 98, 73
2, 149437, Note_on_c, 0, 90, 0
2, 149444, Note_on_c, 0, 90, 63
2, 149445, Note_on_c, 0, 78, 0
2, 149451, Note_on_c, 0, 78, 55
2, 149649, Note_on_c, 0, 71, 41
2, 149802, Note_on_c, 0, 93, 76
2, 149806, Note_on_c, 0, 83, 0
2, 149806, Note_on_c, 0, 90, 0
2, 149810, Note_on_c, 0, 86, 56
2, 149813, Note_on_c, 0, 78, 0
2, 149815, Note_on_c, 0, 83, 55
2, 149816, Note_on_c, 0, 90, 51
2, 149821, Note_on_c, 0, 59, 0
2, 149822, Note_on_c, 0, 78, 52
2, 149982, Note_on_c, 0, 83, 0
2, 149982, Note_on_c, 0, 93, 0
2, 149986, Note_on_c, 0, 93, 76
2, 149990, Note_on_c, 0, 83, 53
2, 150144, Note_on_c, 0, 71, 0
2, 150152, Note_on_c, 0, 71, 61
2, 150328, Note_on_c, 0, 71, 0
2, 150328, Note_on_c, 0, 90, 0
2, 150332, Note_on_c, 0, 90, 76
2, 150338, Note_on_c, 0, 71, 50
2, 150345, Note_on_c, 0, 81, 64
2, 150470, Note_on_c, 0, 71, 0
2, 150472, Control_c, 0, 64, 0
2, 150512, Note_on_c, 0, 90, 0
2, 150512, Control_c, 0, 64, 127
2, 150516, Note_on_c, 0, 57, 57
2, 150519, Note_on_c, 0, 90, 76
2, 150528, Note_on_c, 0, 81, 0
2, 150531, Note_on_c, 0, 81, 60
2, 150566, Note_on_c, 0, 83, 0
2, 150727, Note_on_c, 0, 81, 0
2, 150733, Note_on_c, 0, 76, 64
2, 150733, Note_on_c, 0, 81, 67
2, 150734, Note_on_c, 0, 88, 56
2, 150735, Note_on_c, 0, 98, 0
2, 150896, Note_on_c, 0, 76, 0
2, 150896, Note_on_c, 0, 81, 0
2, 150896, Note_on_c, 0, 88, 0
2, 150900, Note_on_c, 0, 88, 75
2, 150904, Note_on_c, 0, 85, 68
2, 150905, Note_on_c, 0, 76, 59
2, 150907, Note_on_c, 0, 81, 58
2, 151080, Note_on_c, 0, 88, 0
2, 151085, Note_on_c, 0, 88, 76
2, 151088, Note_on_c, 0, 81, 0
2, 151088, Note_on_c, 0, 85, 0
2, 151093, Note_on_c, 0, 85, 64
2, 151099, Note_on_c, 0, 81, 49
2, 151265, Note_on_c, 0, 76, 0
2, 151265, Note_on_c, 0, 81, 0
2, 151270, Note_on_c, 0, 76, 48
2, 151270, Note_on_c, 0, 81, 47
2, 151457, Note_on_c, 0, 76, 0
2, 151468, Note_on_c, 0, 76, 35
2, 151626, Note_on_c, 0, 81, 0
2, 151635, Note_on_c, 0, 81, 42
2, 151637, Note_on_c, 0, 69, 52
2, 151680, Note_on_c, 0, 95, 0
2, 151741, Note_on_c, 0, 86, 0
2, 151933, Note_on_c, 0, 78, 0
2, 151942, Note_on_c, 0, 81, 0
2, 151943, Note_on_c, 0, 90, 0
2, 151943, Note_on_c, 0, 69, 0
2, 151943, Note_on_c, 0, 57, 0
2, 151944, Note_on_c, 0, 88, 0
2, 151944, Note_on_c, 0, 76, 0
2, 151952, Control_c, 0, 64, 0
2, 151956, Note_on_c, 0, 93, 0
2, 151964, Note_on_c, 0, 85, 0
2, 151991, Note_on_c, 0, 56, 62
2, 151997, Note_on_c, 0, 68, 53
2, 152002, Note_on_c, 0, 68, 0
2, 152017, Control_c, 0, 64, 127
2, 152079, Note_on_c, 0, 56, 0
2, 152221, Note_on_c, 0, 92, 76
2, 152247, Note_on_c, 0, 83, 58
2, 152252, Note_on_c, 0, 76, 55
2, 152386, Note_on_c, 0, 76, 0
2, 152393, Note_on_c, 0, 76, 63
2, 152394, Note_on_c, 0, 83, 0
2, 152394, Note_on_c, 0, 92, 0
2, 152404, Note_on_c, 0, 83, 60
2, 152405, Note_on_c, 0, 92, 74
2, 152570, Note_on_c, 0, 76, 0
2, 152577, Note_on_c, 0, 76, 47
2, 152578, Note_on_c, 0, 71, 55
2, 152747, Note_on_c, 0, 71, 0
2, 152747, Note_on_c, 0, 76, 0
2, 152747, Note_on_c, 0, 83, 0
2, 152752, Note_on_c, 0, 95, 70
2, 152756, Note_on_c, 0, 88, 75
2, 152758, Note_on_c, 0, 76, 73
2, 152758, Note_on_c, 0, 83, 72
2, 152758, Note_on_c, 0, 71, 55
2, 152924, Note_on_c, 0, 95, 0
2, 152931, Note_on_c, 0, 83, 0
2, 152931, Note_on_c, 0, 88, 0
2, 152934, Note_on_c, 0, 95, 79
2, 152937, Note_on_c, 0, 88, 80
2, 152939, Note_on_c, 0, 76, 0
2, 152943, Note_on_c, 0, 83, 72
2, 152943, Note_on_c, 0, 76, 60
2, 153093, Note_on_c, 0, 71, 0
2, 153101, Note_on_c, 0, 71, 67
2, 153285, Note_on_c, 0, 83, 0
2, 153290, Note_on_c, 0, 91, 80
2, 153292, Note_on_c, 0, 88, 0
2, 153296, Note_on_c, 0, 83, 75
2, 153297, Note_on_c, 0, 88, 58
2, 153394, Control_c, 0, 64, 0
2, 153415, Control_c, 0, 64, 127
2, 153459, Note_on_c, 0, 55, 68
2, 153461, Note_on_c, 0, 91, 0
2, 153465, Note_on_c, 0, 91, 84
2, 153469, Note_on_c, 0, 83, 0
2, 153474, Note_on_c, 0, 83, 73
2, 153546, Note_on_c, 0, 95, 0
2, 153653, Note_on_c, 0, 71, 0
2, 153653, Note_on_c, 0, 76, 0
2, 153653, Note_on_c, 0, 83, 0
2, 153661, Note_on_c, 0, 83, 61
2, 153662, Note_on_c, 0, 71, 55
2, 153663, Note_on_c, 0, 76, 64
2, 153665, Note_on_c, 0, 79, 54
2, 153830, Note_on_c, 0, 71, 0
2, 153830, Note_on_c, 0, 88, 0
2, 153836, Note_on_c, 0, 88, 80
2, 153838, Note_on_c, 0, 76, 0
2, 153838, Note_on_c, 0, 79, 0
2, 153840, Note_on_c, 0, 71, 51
2, 153842, Note_on_c, 0, 76, 58
2, 153842, Note_on_c, 0, 79, 73
2, 154007, Note_on_c, 0, 88, 0
2, 154014, Note_on_c, 0, 71, 0
2, 154014, Note_on_c, 0, 79, 0
2, 154017, Note_on_c, 0, 88, 82
2, 154022, Note_on_c, 0, 76, 0
2, 154025, Note_on_c, 0, 71, 44
2, 154026, Note_on_c, 0, 79, 71
2, 154026, Note_on_c, 0, 67, 56
2, 154026, Note_on_c, 0, 76, 49
2, 154214, Note_on_c, 0, 71, 0
2, 154214, Note_on_c, 0, 76, 0
2, 154214, Note_on_c, 0, 79, 0
2, 154218, Note_on_c, 0, 71, 49
2, 154219, Note_on_c, 0, 76, 51
2, 154221, Note_on_c, 0, 79, 50
2, 154606, Note_on_c, 0, 67, 0
2, 154610, Note_on_c, 0, 67, 45
2, 154979, Note_on_c, 0, 88, 0
2, 154979, Note_on_c, 0, 71, 0
2, 154980, Note_on_c, 0, 67, 0
2, 154980, Note_on_c, 0, 55, 0
2, 154980, Note_on_c, 0, 76, 0
2, 154981, Note_on_c, 0, 83, 0
2, 154981, Control_c, 0, 64, 0
2, 154982, Note_on_c, 0, 92, 0
2, 154997, Note_on_c, 0, 79, 0
2, 155011, Note_on_c, 0, 54, 62
2, 155022, Note_on_c, 0, 66, 50
2, 155028, Note_on_c, 0, 91, 0
2, 155066, Control_c, 0, 64, 127
2, 155128, Note_on_c, 0, 54, 0
2, 155143, Note_on_c, 0, 66, 0
2, 155246, Note_on_c, 0, 97, 77
2, 155254, Note_on_c, 0, 90, 70
2, 155257, Note_on_c, 0, 69, 55
2, 155268, Note_on_c, 0, 73, 53
2, 155412, Note_on_c, 0, 97, 0
2, 155420, Note_on_c, 0, 69, 0
2, 155420, Note_on_c, 0, 90, 0
2, 155420, Note_on_c, 0, 97, 86
2, 155431, Note_on_c, 0, 90, 77
2, 155431, Note_on_c, 0, 69, 55
2, 155435, Note_on_c, 0, 73, 0
2, 155439, Note_on_c, 0, 73, 50
2, 155589, Note_on_c, 0, 69, 0
2, 155599, Note_on_c, 0, 66, 64
2, 155600, Note_on_c, 0, 69, 46
2, 155770, Note_on_c, 0, 93, 87
2, 155775, Note_on_c, 0, 85, 80
2, 155788, Note_on_c, 0, 69, 0
2, 155788, Note_on_c, 0, 73, 0
2, 155796, Note_on_c, 0, 73, 49
2, 155798, Note_on_c, 0, 69, 59
2, 155942, Note_on_c, 0, 85, 0
2, 155942, Note_on_c, 0, 93, 0
2, 155948, Note_on_c, 0, 93, 89
2, 155949, Note_on_c, 0, 85, 86
2, 155950, Note_on_c, 0, 69, 0
2, 155950, Note_on_c, 0, 73, 0
2, 155954, Note_on_c, 0, 81, 67
2, 155955, Note_on_c, 0, 73, 66
2, 155955, Note_on_c, 0, 69, 63
2, 155965, Note_on_c, 0, 81, 0
2, 156119, Note_on_c, 0, 66, 0
2, 156124, Note_on_c, 0, 66, 73
2, 156295, Note_on_c, 0, 90, 0
2, 156305, Note_on_c, 0, 90, 86
2, 156311, Note_on_c, 0, 73, 0
2, 156315, Note_on_c, 0, 81, 70
2, 156321, Note_on_c, 0, 73, 53
2, 156321, Note_on_c, 0, 78, 56
2, 156326, Note_on_c, 0, 78, 0
2, 156416, Control_c, 0, 64, 0
2, 156433, Control_c, 0, 64, 127
2, 156480, Note_on_c, 0, 90, 0
2, 156483, Note_on_c, 0, 52, 70
2, 156490, Note_on_c, 0, 90, 80
2, 156495, Note_on_c, 0, 81, 0
2, 156495, Note_on_c, 0, 85, 0
2, 156496, Note_on_c, 0, 78, 54
2, 156499, Note_on_c, 0, 81, 70
2, 156501, Note_on_c, 0, 85, 58
2, 156696, Note_on_c, 0, 71, 57
2, 156699, Note_on_c, 0, 67, 49
2, 156700, Note_on_c, 0, 79, 47
2, 156870, Note_on_c, 0, 88, 76
2, 156871, Note_on_c, 0, 71, 0
2, 156879, Note_on_c, 0, 67, 0
2, 156879, Note_on_c, 0, 79, 0
2, 156879, Note_on_c, 0, 71, 53
2, 156884, Note_on_c, 0, 79, 63
2, 156889, Note_on_c, 0, 67, 49
2, 157071, Note_on_c, 0, 88, 0
2, 157079, Note_on_c, 0, 79, 0
2, 157079, Note_on_c, 0, 88, 71
2, 157086, Note_on_c, 0, 64, 46
2, 157086, Note_on_c, 0, 76, 47
2, 157089, Note_on_c, 0, 79, 63
2, 157286, Note_on_c, 0, 79, 0
2, 157294, Note_on_c, 0, 64, 0
2, 157294, Note_on_c, 0, 67, 0
2, 157294, Note_on_c, 0, 71, 0
2, 157297, Note_on_c, 0, 79, 52
2, 157298, Note_on_c, 0, 67, 51
2, 157298, Note_on_c, 0, 71, 50
2, 157303, Note_on_c, 0, 64, 40
2, 157745, Note_on_c, 0, 81, 0
2, 157746, Note_on_c, 0, 52, 0
2, 157746, Note_on_c, 0, 88, 0
2, 157747, Note_on_c, 0, 79, 0
2, 157747, Note_on_c, 0, 67, 0
2, 157748, Note_on_c, 0, 85, 0
2, 157748, Note_on_c, 0, 71, 0
2, 157748, Note_on_c, 0, 73, 0
2, 157749, Note_on_c, 0, 64, 0
2, 157751, Control_c, 0, 64, 0
2, 157754, Note_on_c, 0, 76, 0
2, 157762, Note_on_c, 0, 66, 0
2, 157762, Note_on_c, 0, 69, 0
2, 157762, Note_on_c, 0, 78, 0
2, 157762, Note_on_c, 0, 93, 0
2, 157768, Note_on_c, 0, 45, 50
2, 157816, Note_on_c, 0, 97, 0
2, 157908, Control_c, 0, 64, 127
2, 158200, Note_on_c, 0, 90, 0
2, 158234, Control_c, 0, 64, 0
2, 158263, Note_on_c, 0, 50, 60
2, 158284, Note_on_c, 0, 45, 0
2, 158361, Control_c, 0, 64, 127
2, 158596, Note_on_c, 0, 66, 44
2, 158596, Note_on_c, 0, 62, 48
2, 158784, Note_on_c, 0, 62, 0
2, 158784, Note_on_c, 0, 66, 0
2, 158790, Note_on_c, 0, 66, 41
2, 158794, Note_on_c, 0, 62, 50
2, 158976, Note_on_c, 0, 57, 52
2, 158979, Note_on_c, 0, 69, 61
2, 159164, Note_on_c, 0, 78, 73
2, 159168, Note_on_c, 0, 62, 0
2, 159168, Note_on_c, 0, 66, 0
2, 159171, Note_on_c, 0, 62, 55
2, 159172, Note_on_c, 0, 66, 51
2, 159329, Note_on_c, 0, 78, 0
2, 159340, Note_on_c, 0, 78, 74
2, 159344, Note_on_c, 0, 66, 0
2, 159352, Note_on_c, 0, 66, 59
2, 159367, Note_on_c, 0, 62, 0
2, 159375, Note_on_c, 0, 62, 44
2, 159528, Note_on_c, 0, 78, 0
2, 159534, Note_on_c, 0, 78, 72
2, 159536, Note_on_c, 0, 57, 0
2, 159536, Note_on_c, 0, 66, 0
2, 159536, Note_on_c, 0, 69, 0
2, 159542, Note_on_c, 0, 69, 54
2, 159542, Note_on_c, 0, 66, 48
2, 159543, Note_on_c, 0, 57, 57
2, 159594, Note_on_c, 0, 62, 0
2, 159598, Note_on_c, 0, 50, 0
2, 159659, Note_on_c, 0, 69, 0
2, 159673, Control_c, 0, 64, 0
2, 159697, Note_on_c, 0, 66, 0
2, 159713, Note_on_c, 0, 78, 0
2, 159719, Note_on_c, 0, 78, 75
2, 159728, Control_c, 0, 64, 127
2, 159744, Note_on_c, 0, 66, 35
2, 159761, Note_on_c, 0, 62, 32
2, 159767, Note_on_c, 0, 57, 0
2, 159776, Note_on_c, 0, 57, 39
2, 159894, Note_on_c, 0, 45, 69
2, 159912, Note_on_c, 0, 62, 0
2, 160100, Note_on_c, 0, 76, 76
2, 160108, Note_on_c, 0, 64, 45
2, 160110, Note_on_c, 0, 60, 48
2, 160258, Note_on_c, 0, 60, 0
2, 160258, Note_on_c, 0, 64, 0
2, 160264, Note_on_c, 0, 60, 52
2, 160266, Note_on_c, 0, 64, 45
2, 160350, Note_on_c, 0, 66, 0
2, 160435, Note_on_c, 0, 57, 0
2, 160445, Note_on_c, 0, 69, 54
2, 160446, Note_on_c, 0, 57, 54
2, 160496, Note_on_c, 0, 78, 0
2, 160627, Note_on_c, 0, 60, 0
2, 160634, Note_on_c, 0, 64, 0
2, 160634, Note_on_c, 0, 76, 0
2, 160637, Note_on_c, 0, 60, 50
2, 160639, Note_on_c, 0, 64, 50
2, 160643, Note_on_c, 0, 76, 68
2, 160704, Note_on_c, 0, 45, 0
2, 160734, Note_on_c, 0, 69, 0
2, 160737, Note_on_c, 0, 64, 0
2, 160737, Note_on_c, 0, 60, 0
2, 160757, Note_on_c, 0, 57, 0
2, 160796, Note_on_c, 0, 76, 0
2, 160807, Note_on_c, 0, 76, 75
2, 160816, Note_on_c, 0, 64, 46
2, 160820, Note_on_c, 0, 60, 51
2, 160991, Note_on_c, 0, 78, 79
2, 160995, Note_on_c, 0, 60, 0
2, 160997, Note_on_c, 0, 57, 60
2, 161004, Note_on_c, 0, 60, 47
2, 161006, Note_on_c, 0, 76, 0
2, 161007, Note_on_c, 0, 64, 0
2, 161076, Control_c, 0, 64, 0
2, 161103, Note_on_c, 0, 60, 0
2, 161126, Note_on_c, 0, 57, 0
2, 161177, Note_on_c, 0, 76, 75
2, 161186, Note_on_c, 0, 78, 0
2, 161326, Note_on_c, 0, 76, 0
2, 161335, Note_on_c, 0, 43, 59
2, 161336, Note_on_c, 0, 76, 63
2, 161364, Control_c, 0, 64, 127
2, 161545, Note_on_c, 0, 74, 74
2, 161557, Note_on_c, 0, 62, 51
2, 161557, Note_on_c, 0, 59, 51
2, 161694, Note_on_c, 0, 59, 0
2, 161694, Note_on_c, 0, 62, 0
2, 161699, Note_on_c, 0, 59, 52
2, 161702, Note_on_c, 0, 62, 45
2, 161871, Note_on_c, 0, 59, 0
2, 161881, Note_on_c, 0, 55, 53
2, 161882, Note_on_c, 0, 59, 42
2, 162063, Note_on_c, 0, 59, 0
2, 162063, Note_on_c, 0, 62, 0
2, 162064, Note_on_c, 0, 55, 0
2, 162072, Note_on_c, 0, 59, 55
2, 162072, Note_on_c, 0, 62, 48
2, 162074, Note_on_c, 0, 74, 0
2, 162080, Control_c, 0, 64, 0
2, 162101, Note_on_c, 0, 76, 0
2, 162106, Note_on_c, 0, 62, 0
2, 162114, Note_on_c, 0, 59, 0
2, 162140, Note_on_c, 0, 43, 0
2, 162239, Note_on_c, 0, 59, 53
2, 162241, Note_on_c, 0, 62, 49
2, 162315, Note_on_c, 0, 62, 0
2, 162319, Note_on_c, 0, 59, 0
2, 162423, Note_on_c, 0, 71, 64
2, 162448, Note_on_c, 0, 55, 56
2, 162455, Control_c, 0, 64, 127
2, 162474, Note_on_c, 0, 59, 32
2, 162605, Note_on_c, 0, 73, 66
2, 162658, Note_on_c, 0, 71, 0
2, 162664, Note_on_c, 0, 55, 0
2, 162677, Note_on_c, 0, 59, 0
2, 162690, Control_c, 0, 64, 0
2, 162775, Note_on_c, 0, 74, 75
2, 162781, Note_on_c, 0, 40, 57
2, 162785, Note_on_c, 0, 73, 0
2, 162793, Note_on_c, 0, 67, 62
2, 162808, Control_c, 0, 64, 127
2, 162977, Note_on_c, 0, 67, 0
2, 162985, Note_on_c, 0, 67, 44
2, 162987, Note_on_c, 0, 62, 47
2, 162989, Note_on_c, 0, 59, 44
2, 163123, Note_on_c, 0, 59, 0
2, 163123, Note_on_c, 0, 62, 0
2, 163127, Note_on_c, 0, 59, 58
2, 163128, Note_on_c, 0, 62, 48
2, 163166, Note_on_c, 0, 71, 67
2, 163265, Note_on_c, 0, 62, 0
2, 163265, Note_on_c, 0, 74, 0
2, 163265, Note_on_c, 0, 40, 0
2, 163266, Note_on_c, 0, 59, 0
2, 163266, Note_on_c, 0, 71, 0
2, 163271, Control_c, 0, 64, 0
2, 163284, Note_on_c, 0, 67, 0
2, 163326, Note_on_c, 0, 74, 78
2, 163342, Note_on_c, 0, 45, 59
2, 163343, Note_on_c, 0, 59, 53
2, 163361, Control_c, 0, 64, 127
2, 163476, Note_on_c, 0, 59, 0
2, 163521, Note_on_c, 0, 64, 57
2, 163560, Note_on_c, 0, 61, 47
2, 163660, Note_on_c, 0, 61, 0
2, 163660, Note_on_c, 0, 64, 0
2, 163664, Note_on_c, 0, 61, 58
2, 163671, Note_on_c, 0, 64, 48
2, 163706, Note_on_c, 0, 78, 74
2, 163797, Note_on_c, 0, 64, 0
2, 163799, Note_on_c, 0, 45, 0
2, 163800, Note_on_c, 0, 61, 0
2, 163804, Note_on_c, 0, 45, 51
2, 163829, Note_on_c, 0, 74, 0
2, 163835, Control_c, 0, 64, 0
2, 163887, Note_on_c, 0, 76, 73
2, 163891, Note_on_c, 0, 45, 0
2, 163896, Note_on_c, 0, 45, 56
2, 164014, Control_c, 0, 64, 127
2, 164083, Control_c, 0, 64, 0
2, 164167, Note_on_c, 0, 78, 0
2, 164174, Note_on_c, 0, 45, 0
2, 164178, Note_on_c, 0, 76, 0
2, 164268, Note_on_c, 0, 47, 69
2, 164313, Control_c, 0, 64, 127
2, 164489, Note_on_c, 0, 66, 44
2, 164494, Note_on_c, 0, 62, 46
2, 164636, Note_on_c, 0, 66, 0
2, 164643, Note_on_c, 0, 66, 53
2, 164689, Note_on_c, 0, 62, 0
2, 164693, Note_on_c, 0, 62, 34
2, 164839, Note_on_c, 0, 69, 65
2, 164845, Note_on_c, 0, 59, 49
2, 164944, Control_c, 0, 64, 0
2, 165012, Note_on_c, 0, 62, 0
2, 165020, Note_on_c, 0, 66, 0
2, 165022, Note_on_c, 0, 78, 72
2, 165023, Note_on_c, 0, 62, 55
2, 165024, Note_on_c, 0, 66, 60
2, 165189, Note_on_c, 0, 78, 0
2, 165196, Note_on_c, 0, 66, 0
2, 165200, Note_on_c, 0, 78, 78
2, 165204, Note_on_c, 0, 62, 0
2, 165207, Note_on_c, 0, 66, 58
2, 165215, Note_on_c, 0, 62, 46
2, 165373, Note_on_c, 0, 59, 0
2, 165373, Note_on_c, 0, 78, 0
2, 165382, Note_on_c, 0, 78, 84
2, 165382, Note_on_c, 0, 59, 67
2, 165565, Note_on_c, 0, 62, 0
2, 165565, Note_on_c, 0, 78, 0
2, 165570, Note_on_c, 0, 78, 77
2, 165580, Note_on_c, 0, 59, 0
2, 165580, Note_on_c, 0, 66, 0
2, 165584, Note_on_c, 0, 66, 37
2, 165591, Note_on_c, 0, 59, 45
2, 165745, Note_on_c, 0, 45, 64
2, 165765, Control_c, 0, 64, 127
2, 165941, Note_on_c, 0, 69, 0
2, 165942, Note_on_c, 0, 76, 78
2, 165965, Note_on_c, 0, 64, 49
2, 165970, Note_on_c, 0, 60, 45
2, 166103, Control_c, 0, 64, 0
2, 166110, Note_on_c, 0, 60, 0
2, 166117, Note_on_c, 0, 60, 53
2, 166133, Note_on_c, 0, 47, 0
2, 166172, Note_on_c, 0, 64, 0
2, 166181, Note_on_c, 0, 64, 43
2, 166187, Note_on_c, 0, 59, 0
2, 166210, Note_on_c, 0, 66, 0
2, 166297, Note_on_c, 0, 69, 52
2, 166298, Note_on_c, 0, 57, 53
2, 166341, Note_on_c, 0, 78, 0
2, 166494, Note_on_c, 0, 60, 0
2, 166494, Note_on_c, 0, 64, 0
2, 166494, Note_on_c, 0, 76, 0
2, 166504, Note_on_c, 0, 60, 57
2, 166505, Note_on_c, 0, 64, 54
2, 166506, Note_on_c, 0, 76, 63
2, 166679, Note_on_c, 0, 60, 0
2, 166679, Note_on_c, 0, 76, 0
2, 166688, Note_on_c, 0, 76, 76
2, 166689, Note_on_c, 0, 60, 56
2, 166863, Note_on_c, 0, 57, 0
2, 166863, Note_on_c, 0, 60, 0
2, 166867, Note_on_c, 0, 78, 81
2, 166867, Note_on_c, 0, 57, 60
2, 166871, Note_on_c, 0, 60, 48
2, 166993, Note_on_c, 0, 60, 0
2, 167032, Note_on_c, 0, 76, 0
2, 167040, Note_on_c, 0, 76, 85
2, 167213, Note_on_c, 0, 43, 61
2, 167224, Control_c, 0, 64, 127
2, 167405, Note_on_c, 0, 74, 78
2, 167416, Control_c, 0, 64, 0
2, 167417, Note_on_c, 0, 59, 56
2, 167500, Control_c, 0, 64, 127
2, 167569, Note_on_c, 0, 59, 0
2, 167581, Note_on_c, 0, 62, 47
2, 167581, Note_on_c, 0, 59, 59
2, 167758, Note_on_c, 0, 55, 60
2, 167815, Control_c, 0, 64, 0
2, 167861, Note_on_c, 0, 57, 0
2, 167938, Note_on_c, 0, 59, 0
2, 167938, Note_on_c, 0, 62, 0
2, 167943, Note_on_c, 0, 62, 46
2, 167943, Note_on_c, 0, 59, 44
2, 168053, Control_c, 0, 64, 127
2, 168099, Note_on_c, 0, 55, 0
2, 168115, Note_on_c, 0, 59, 0
2, 168122, Note_on_c, 0, 62, 0
2, 168126, Note_on_c, 0, 59, 49
2, 168127, Note_on_c, 0, 62, 50
2, 168311, Note_on_c, 0, 71, 69
2, 168315, Note_on_c, 0, 55, 62
2, 168330, Note_on_c, 0, 62, 0
2, 168341, Note_on_c, 0, 62, 40
2, 168494, Note_on_c, 0, 73, 74
2, 168583, Note_on_c, 0, 55, 0
2, 168599, Note_on_c, 0, 43, 0
2, 168600, Control_c, 0, 64, 0
2, 168637, Note_on_c, 0, 76, 0
2, 168660, Note_on_c, 0, 74, 0
2, 168671, Note_on_c, 0, 74, 82
2, 168679, Note_on_c, 0, 47, 67
2, 168680, Note_on_c, 0, 66, 67
2, 168683, Note_on_c, 0, 64, 0
2, 168721, Note_on_c, 0, 45, 0
2, 168721, Control_c, 0, 64, 127
2, 168760, Note_on_c, 0, 69, 0
2, 168768, Note_on_c, 0, 62, 0
2, 168860, Note_on_c, 0, 59, 0
2, 168866, Note_on_c, 0, 62, 56
2, 168868, Note_on_c, 0, 59, 52
2, 169021, Note_on_c, 0, 59, 0
2, 169029, Note_on_c, 0, 62, 0
2, 169029, Note_on_c, 0, 81, 77
2, 169031, Note_on_c, 0, 59, 60
2, 169033, Note_on_c, 0, 74, 0
2, 169033, Note_on_c, 0, 62, 44
2, 169113, Note_on_c, 0, 47, 0
2, 169123, Note_on_c, 0, 47, 55
2, 169151, Note_on_c, 0, 59, 0
2, 169153, Note_on_c, 0, 81, 0
2, 169167, Note_on_c, 0, 73, 0
2, 169175, Note_on_c, 0, 66, 0
2, 169182, Note_on_c, 0, 71, 0
2, 169213, Note_on_c, 0, 62, 0
2, 169213, Note_on_c, 0, 78, 0
2, 169213, Control_c, 0, 64, 0
2, 169225, Note_on_c, 0, 76, 84
2, 169233, Note_on_c, 0, 45, 66
2, 169236, Note_on_c, 0, 47, 0
2, 169359, Control_c, 0, 64, 127
2, 169425, Note_on_c, 0, 64, 59
2, 169431, Note_on_c, 0, 61, 57
2, 169643, Note_on_c, 0, 61, 0
2, 169652, Note_on_c, 0, 61, 41
2, 169735, Note_on_c, 0, 76, 0
2, 169753, Control_c, 0, 64, 0
2, 169812, Note_on_c, 0, 45, 0
2, 169816, Note_on_c, 0, 45, 54
2, 169827, Note_on_c, 0, 61, 0
2, 169873, Control_c, 0, 64, 127
2, 170096, Note_on_c, 0, 45, 0
2, 170105, Note_on_c, 0, 45, 31
2, 170165, Note_on_c, 0, 64, 0
2, 170200, Note_on_c, 0, 45, 0
2, 170207, Note_on_c, 0, 40, 52
2, 170218, Control_c, 0, 64, 0
2, 170394, Note_on_c, 0, 47, 39
2, 170434, Note_on_c, 0, 47, 0
2, 170443, Note_on_c, 0, 47, 41
2, 170534, Control_c, 0, 64, 127
2, 170583, Note_on_c, 0, 55, 56
2, 170763, Note_on_c, 0, 59, 69
2, 170865, Note_on_c, 0, 61, 63
2, 170907, Note_on_c, 0, 59, 0
2, 170909, Note_on_c, 0, 47, 0
2, 170914, Note_on_c, 0, 55, 0
2, 170915, Note_on_c, 0, 40, 0
2, 170917, Control_c, 0, 64, 0
2, 170923, Note_on_c, 0, 61, 0
2, 170969, Note_on_c, 0, 74, 61
2, 170971, Note_on_c, 0, 62, 71
2, 170976, Note_on_c, 0, 42, 51
2, 171079, Control_c, 0, 64, 127
2, 171183, Note_on_c, 0, 50, 53
2, 171333, Note_on_c, 0, 74, 0
2, 171353, Note_on_c, 0, 57, 64
2, 171358, Note_on_c, 0, 69, 58
2, 171525, Note_on_c, 0, 62, 0
2, 171534, Note_on_c, 0, 62, 66
2, 171613, Note_on_c, 0, 64, 68
2, 171681, Note_on_c, 0, 62, 0
2, 171687, Note_on_c, 0, 57, 0
2, 171688, Note_on_c, 0, 50, 0
2, 171689, Note_on_c, 0, 42, 0
2, 171694, Control_c, 0, 64, 0
2, 171707, Note_on_c, 0, 43, 59
2, 171715, Note_on_c, 0, 66, 77
2, 171770, Note_on_c, 0, 64, 0
2, 171847, Note_on_c, 0, 69, 0
2, 171898, Note_on_c, 0, 59, 72
2, 171905, Note_on_c, 0, 50, 56
2, 171940, Note_on_c, 0, 66, 0
2, 171994, Note_on_c, 0, 62, 75
2, 172088, Note_on_c, 0, 64, 71
2, 172093, Note_on_c, 0, 59, 0
2, 172175, Note_on_c, 0, 59, 63
2, 172176, Note_on_c, 0, 66, 77
2, 172231, Note_on_c, 0, 64, 0
2, 172260, Note_on_c, 0, 66, 0
2, 172265, Note_on_c, 0, 67, 76
2, 172362, Note_on_c, 0, 62, 0
2, 172382, Note_on_c, 0, 66, 71
2, 172465, Note_on_c, 0, 59, 0
2, 172476, Note_on_c, 0, 50, 0
2, 172477, Note_on_c, 0, 66, 0
2, 172485, Note_on_c, 0, 67, 0
2, 172489, Note_on_c, 0, 45, 65
2, 172490, Note_on_c, 0, 67, 67
2, 172490, Note_on_c, 0, 64, 70
2, 172681, Note_on_c, 0, 52, 66
2, 172753, Control_c, 0, 64, 127
2, 172874, Note_on_c, 0, 61, 57
2, 172915, Note_on_c, 0, 67, 0
2, 172938, Note_on_c, 0, 43, 0
2, 173241, Note_on_c, 0, 45, 0
2, 173245, Note_on_c, 0, 64, 0
2, 173251, Control_c, 0, 64, 0
2, 173253, Note_on_c, 0, 52, 0
2, 173257, Note_on_c, 0, 52, 68
2, 173260, Note_on_c, 0, 61, 0
2, 173399, Control_c, 0, 64, 127
2, 173448, Note_on_c, 0, 59, 61
2, 173632, Note_on_c, 0, 67, 59
2, 173828, Note_on_c, 0, 71, 70
2, 173914, Note_on_c, 0, 73, 69
2, 173941, Note_on_c, 0, 67, 0
2, 173946, Note_on_c, 0, 71, 0
2, 173946, Note_on_c, 0, 52, 0
2, 173950, Control_c, 0, 64, 0
2, 174013, Note_on_c, 0, 73, 0
2, 174015, Note_on_c, 0, 74, 84
2, 174024, Note_on_c, 0, 54, 57
2, 174067, Note_on_c, 0, 59, 0
2, 174097, Control_c, 0, 64, 127
2, 174220, Note_on_c, 0, 74, 0
2, 174224, Note_on_c, 0, 62, 58
2, 174225, Note_on_c, 0, 74, 62
2, 174389, Note_on_c, 0, 69, 67
2, 174428, Note_on_c, 0, 54, 0
2, 174481, Note_on_c, 0, 74, 0
2, 174488, Note_on_c, 0, 74, 75
2, 174571, Note_on_c, 0, 81, 84
2, 174650, Note_on_c, 0, 74, 0
2, 174661, Note_on_c, 0, 74, 75
2, 174753, Control_c, 0, 64, 0
2, 174754, Note_on_c, 0, 55, 73
2, 174755, Note_on_c, 0, 78, 80
2, 174766, Note_on_c, 0, 81, 0
2, 174768, Note_on_c, 0, 74, 0
2, 174774, Note_on_c, 0, 69, 0
2, 174819, Note_on_c, 0, 62, 0
2, 174827, Control_c, 0, 64, 127
2, 174962, Note_on_c, 0, 71, 69
2, 174963, Note_on_c, 0, 62, 60
2, 175054, Note_on_c, 0, 74, 75
2, 175065, Note_on_c, 0, 78, 0
2, 175077, Note_on_c, 0, 78, 56
2, 175150, Note_on_c, 0, 71, 0
2, 175159, Note_on_c, 0, 76, 77
2, 175160, Note_on_c, 0, 71, 62
2, 175226, Note_on_c, 0, 78, 0
2, 175237, Note_on_c, 0, 78, 78
2, 175331, Note_on_c, 0, 79, 80
2, 175357, Note_on_c, 0, 71, 0
2, 175361, Note_on_c, 0, 71, 51
2, 175434, Note_on_c, 0, 78, 0
2, 175439, Note_on_c, 0, 78, 71
2, 175476, Note_on_c, 0, 79, 0
2, 175477, Note_on_c, 0, 71, 0
2, 175492, Control_c, 0, 64, 0
2, 175511, Note_on_c, 0, 55, 0
2, 175526, Note_on_c, 0, 74, 0
2, 175526, Note_on_c, 0, 76, 0
2, 175536, Note_on_c, 0, 76, 79
2, 175541, Note_on_c, 0, 62, 0
2, 175544, Note_on_c, 0, 57, 55
2, 175580, Note_on_c, 0, 78, 0
2, 175618, Control_c, 0, 64, 127
2, 175745, Note_on_c, 0, 64, 56
2, 175925, Note_on_c, 0, 73, 63
2, 176289, Note_on_c, 0, 81, 56
2, 176383, Note_on_c, 0, 82, 64
2, 176471, Note_on_c, 0, 81, 0
2, 176476, Note_on_c, 0, 81, 63
2, 176562, Note_on_c, 0, 79, 68
2, 176610, Note_on_c, 0, 81, 0
2, 176636, Note_on_c, 0, 79, 0
2, 176640, Note_on_c, 0, 76, 0
2, 176652, Note_on_c, 0, 77, 63
2, 176747, Note_on_c, 0, 76, 70
2, 176846, Note_on_c, 0, 74, 73
2, 176931, Note_on_c, 0, 73, 0
2, 176937, Note_on_c, 0, 73, 73
2, 177016, Note_on_c, 0, 70, 76
2, 177125, Note_on_c, 0, 69, 70
2, 177204, Note_on_c, 0, 67, 79
2, 177295, Note_on_c, 0, 65, 82
2, 177392, Note_on_c, 0, 64, 0
2, 177399, Note_on_c, 0, 64, 73
2, 177461, Note_on_c, 0, 62, 75
2, 177556, Note_on_c, 0, 61, 70
2, 177557, Note_on_c, 0, 79, 88
2, 177623, Note_on_c, 0, 57, 0
2, 177628, Note_on_c, 0, 57, 73
2, 177743, Note_on_c, 0, 62, 0
2, 177744, Note_on_c, 0, 61, 0
2, 177745, Note_on_c, 0, 64, 0
2, 177746, Note_on_c, 0, 65, 0
2, 177747, Note_on_c, 0, 57, 0
2, 177748, Note_on_c, 0, 79, 0
2, 177753, Note_on_c, 0, 74, 0
2, 177753, Note_on_c, 0, 77, 0
2, 177755, Note_on_c, 0, 46, 71
2, 177756, Note_on_c, 0, 81, 96
2, 177758, Note_on_c, 0, 74, 79
2, 177761, Note_on_c, 0, 82, 0
2, 177761, Control_c, 0, 64, 0
2, 177768, Note_on_c, 0, 67, 0
2, 177776, Note_on_c, 0, 76, 0
2, 177799, Note_on_c, 0, 73, 0
2, 177822, Note_on_c, 0, 70, 0
2, 177838, Note_on_c, 0, 69, 0
2, 177838, Control_c, 0, 64, 127
2, 177848, Note_on_c, 0, 53, 60
2, 177848, Note_on_c, 0, 69, 67
2, 177926, Note_on_c, 0, 57, 71
2, 178014, Note_on_c, 0, 58, 68
2, 178110, Note_on_c, 0, 60, 75
2, 178127, Note_on_c, 0, 79, 88
2, 178198, Note_on_c, 0, 62, 69
2, 178289, Note_on_c, 0, 64, 67
2, 178400, Note_on_c, 0, 65, 68
2, 178490, Note_on_c, 0, 74, 0
2, 178502, Note_on_c, 0, 74, 87
2, 178504, Note_on_c, 0, 70, 75
2, 178575, Note_on_c, 0, 65, 0
2, 178583, Note_on_c, 0, 65, 66
2, 178675, Note_on_c, 0, 64, 0
2, 178679, Note_on_c, 0, 64, 63
2, 178790, Note_on_c, 0, 62, 0
2, 178798, Note_on_c, 0, 62, 65
2, 178859, Note_on_c, 0, 79, 0
2, 178863, Note_on_c, 0, 79, 87
2, 178890, Note_on_c, 0, 60, 0
2, 178894, Note_on_c, 0, 60, 59
2, 178951, Note_on_c, 0, 58, 0
2, 178962, Note_on_c, 0, 58, 70
2, 179051, Note_on_c, 0, 57, 0
2, 179057, Note_on_c, 0, 57, 70
2, 179143, Note_on_c, 0, 53, 0
2, 179150, Note_on_c, 0, 53, 68
2, 179184, Note_on_c, 0, 57, 0
2, 179185, Note_on_c, 0, 62, 0
2, 179186, Note_on_c, 0, 79, 0
2, 179187, Note_on_c, 0, 69, 0
2, 179187, Note_on_c, 0, 46, 0
2, 179187, Note_on_c, 0, 64, 0
2, 179187, Note_on_c, 0, 70, 0
2, 179191, Note_on_c, 0, 65, 0
2, 179195, Control_c, 0, 64, 0
2, 179212, Note_on_c, 0, 58, 0
2, 179228, Note_on_c, 0, 81, 0
2, 179233, Note_on_c, 0, 81, 94
2, 179247, Note_on_c, 0, 76, 81
2, 179250, Note_on_c, 0, 48, 74
2, 179251, Control_c, 0, 64, 127
2, 179252, Note_on_c, 0, 72, 78
2, 179281, Note_on_c, 0, 53, 0
2, 179347, Note_on_c, 0, 52, 78
2, 179458, Note_on_c, 0, 52, 0
2, 179466, Note_on_c, 0, 52, 64
2, 179487, Note_on_c, 0, 53, 49
2, 179539, Note_on_c, 0, 55, 67
2, 179539, Note_on_c, 0, 79, 91
2, 179627, Note_on_c, 0, 60, 0
2, 179634, Note_on_c, 0, 60, 68
2, 179740, Note_on_c, 0, 64, 60
2, 179804, Note_on_c, 0, 81, 0
2, 179809, Control_c, 0, 64, 0
2, 179814, Note_on_c, 0, 81, 90
2, 179819, Control_c, 0, 64, 127
2, 179831, Note_on_c, 0, 65, 65
2, 179919, Note_on_c, 0, 79, 0
2, 179930, Note_on_c, 0, 79, 69
2, 179932, Note_on_c, 0, 67, 66
2, 179995, Note_on_c, 0, 82, 93
2, 180011, Note_on_c, 0, 72, 0
2, 180022, Note_on_c, 0, 72, 78
2, 180103, Note_on_c, 0, 67, 0
2, 180103, Note_on_c, 0, 72, 0
2, 180114, Note_on_c, 0, 67, 76
2, 180114, Note_on_c, 0, 72, 68
2, 180188, Note_on_c, 0, 65, 0
2, 180197, Note_on_c, 0, 65, 59
2, 180264, Note_on_c, 0, 64, 0
2, 180269, Note_on_c, 0, 64, 72
2, 180341, Note_on_c, 0, 67, 0
2, 180346, Note_on_c, 0, 67, 62
2, 180385, Note_on_c, 0, 62, 61
2, 180387, Note_on_c, 0, 60, 0
2, 180397, Note_on_c, 0, 60, 48
2, 180472, Note_on_c, 0, 55, 0
2, 180480, Note_on_c, 0, 55, 68
2, 180533, Note_on_c, 0, 53, 0
2, 180544, Note_on_c, 0, 53, 70
2, 180549, Note_on_c, 0, 81, 0
2, 180560, Note_on_c, 0, 81, 89
2, 180618, Note_on_c, 0, 52, 0
2, 180622, Note_on_c, 0, 52, 68
2, 180709, Control_c, 0, 64, 0
2, 180710, Note_on_c, 0, 60, 0
2, 180711, Note_on_c, 0, 62, 0
2, 180711, Note_on_c, 0, 55, 0
2, 180711, Note_on_c, 0, 65, 0
2, 180712, Note_on_c, 0, 48, 0
2, 180712, Note_on_c, 0, 81, 0
2, 180712, Note_on_c, 0, 64, 0
2, 180725, Note_on_c, 0, 74, 0
2, 180725, Note_on_c, 0, 82, 0
2, 180733, Note_on_c, 0, 79, 0
2, 180741, Note_on_c, 0, 53, 0
2, 180741, Note_on_c, 0, 67, 0
2, 180741, Note_on_c, 0, 72, 0
2, 180741, Note_on_c, 0, 76, 0
2, 180743, Note_on_c, 0, 79, 96
2, 180746, Note_on_c, 0, 67, 79
2, 180748, Note_on_c, 0, 76, 81
2, 180750, Note_on_c, 0, 72, 81
2, 180759, Note_on_c, 0, 45, 73
2, 180779, Control_c, 0, 64, 127
2, 180856, Note_on_c, 0, 52, 0
2, 180865, Note_on_c, 0, 52, 68
2, 180940, Note_on_c, 0, 79, 0
2, 180943, Note_on_c, 0, 53, 68
2, 180944, Note_on_c, 0, 79, 91
2, 181044, Note_on_c, 0, 55, 69
2, 181122, Note_on_c, 0, 77, 87
2, 181123, Note_on_c, 0, 60, 76
2, 181228, Note_on_c, 0, 64, 66
2, 181286, Note_on_c, 0, 77, 0
2, 181294, Note_on_c, 0, 77, 84
2, 181322, Note_on_c, 0, 65, 66
2, 181393, Note_on_c, 0, 67, 0
2, 181399, Note_on_c, 0, 67, 70
2, 181486, Note_on_c, 0, 72, 0
2, 181486, Note_on_c, 0, 76, 0
2, 181492, Note_on_c, 0, 76, 90
2, 181496, Note_on_c, 0, 72, 82
2, 181585, Note_on_c, 0, 67, 0
2, 181585, Note_on_c, 0, 76, 0
2, 181590, Note_on_c, 0, 67, 72
2, 181591, Note_on_c, 0, 76, 70
2, 181662, Note_on_c, 0, 65, 0
2, 181662, Note_on_c, 0, 77, 0
2, 181670, Note_on_c, 0, 67, 0
2, 181670, Note_on_c, 0, 65, 66
2, 181672, Note_on_c, 0, 77, 72
2, 181675, Note_on_c, 0, 67, 61
2, 181731, Note_on_c, 0, 64, 0
2, 181736, Note_on_c, 0, 64, 72
2, 181777, Note_on_c, 0, 67, 0
2, 181781, Note_on_c, 0, 67, 59
2, 181839, Note_on_c, 0, 60, 0
2, 181847, Note_on_c, 0, 72, 0
2, 181850, Note_on_c, 0, 60, 75
2, 181852, Note_on_c, 0, 72, 92
2, 181916, Note_on_c, 0, 55, 0
2, 181920, Note_on_c, 0, 55, 59
2, 181946, Note_on_c, 0, 57, 56
2, 181956, Note_on_c, 0, 69, 54
2, 181992, Note_on_c, 0, 53, 0
2, 182003, Note_on_c, 0, 53, 74
2, 182115, Note_on_c, 0, 52, 0
2, 182123, Note_on_c, 0, 53, 0
2, 182126, Note_on_c, 0, 52, 61
2, 182127, Note_on_c, 0, 53, 68
2, 182211, Control_c, 0, 64, 0
2, 182211, Note_on_c, 0, 52, 0
2, 182211, Note_on_c, 0, 53, 0
2, 182211, Note_on_c, 0, 67, 0
2, 182211, Note_on_c, 0, 72, 0
2, 182211, Note_on_c, 0, 64, 0
2, 182211, Note_on_c, 0, 55, 0
2, 182212, Note_on_c, 0, 45, 0
2, 182212, Note_on_c, 0, 77, 0
2, 182212, Note_on_c, 0, 76, 0
2, 182214, Note_on_c, 0, 57, 0
2, 182223, Note_on_c, 0, 69, 0
2, 182230, Note_on_c, 0, 69, 89
2, 182231, Note_on_c, 0, 60, 0
2, 182231, Note_on_c, 0, 65, 0
2, 182231, Note_on_c, 0, 79, 0
2, 182242, Note_on_c, 0, 65, 81
2, 182242, Note_on_c, 0, 38, 76
2, 182244, Note_on_c, 0, 62, 58
2, 182292, Control_c, 0, 64, 127
2, 182342, Note_on_c, 0, 45, 63
2, 182402, Note_on_c, 0, 50, 72
2, 182530, Note_on_c, 0, 50, 0
2, 182539, Note_on_c, 0, 52, 59
2, 182541, Note_on_c, 0, 50, 61
2, 182682, Note_on_c, 0, 55, 69
2, 182760, Note_on_c, 0, 62, 0
2, 182766, Note_on_c, 0, 62, 65
2, 182877, Note_on_c, 0, 64, 71
2, 182952, Note_on_c, 0, 65, 0
2, 182959, Note_on_c, 0, 65, 80
2, 183037, Note_on_c, 0, 64, 0
2, 183045, Note_on_c, 0, 64, 73
2, 183144, Note_on_c, 0, 62, 0
2, 183150, Note_on_c, 0, 74, 84
2, 183152, Note_on_c, 0, 62, 63
2, 183236, Note_on_c, 0, 57, 46
2, 183306, Note_on_c, 0, 74, 0
2, 183308, Note_on_c, 0, 53, 70
2, 183311, Note_on_c, 0, 74, 82
2, 183398, Note_on_c, 0, 52, 0
2, 183407, Note_on_c, 0, 52, 71
2, 183490, Note_on_c, 0, 50, 0
2, 183491, Note_on_c, 0, 76, 91
2, 183497, Note_on_c, 0, 50, 74
2, 183582, Note_on_c, 0, 45, 0
2, 183588, Note_on_c, 0, 45, 70
2, 183690, Note_on_c, 0, 74, 0
2, 183694, Note_on_c, 0, 77, 95
2, 183695, Note_on_c, 0, 43, 69
2, 183699, Note_on_c, 0, 74, 78
2, 183701, Note_on_c, 0, 70, 77
2, 183736, Note_on_c, 0, 57, 0
2, 183749, Note_on_c, 0, 52, 0
2, 183753, Note_on_c, 0, 64, 0
2, 183767, Note_on_c, 0, 38, 0
2, 183774, Note_on_c, 0, 55, 0
2, 183782, Note_on_c, 0, 65, 0
2, 183790, Note_on_c, 0, 53, 0
2, 183805, Note_on_c, 0, 50, 0
2, 183816, Note_on_c, 0, 50, 65
2, 183891, Note_on_c, 0, 53, 70
2, 183989, Note_on_c, 0, 53, 0
2, 183989, Note_on_c, 0, 76, 0
2, 183993, Note_on_c, 0, 76, 90
2, 183994, Note_on_c, 0, 58, 67
2, 183995, Note_on_c, 0, 53, 60
2, 184100, Note_on_c, 0, 60, 69
2, 184166, Note_on_c, 0, 62, 0
2, 184166, Note_on_c, 0, 74, 0
2, 184177, Note_on_c, 0, 74, 67
2, 184177, Note_on_c, 0, 62, 68
2, 184266, Note_on_c, 0, 53, 0
2, 184266, Note_on_c, 0, 77, 0
2, 184271, Note_on_c, 0, 53, 58
2, 184273, Note_on_c, 0, 77, 91
2, 184275, Note_on_c, 0, 64, 68
2, 184365, Note_on_c, 0, 65, 59
2, 184442, Note_on_c, 0, 70, 0
2, 184450, Note_on_c, 0, 70, 78
2, 184519, Note_on_c, 0, 65, 0
2, 184530, Note_on_c, 0, 65, 64
2, 184596, Note_on_c, 0, 64, 0
2, 184607, Note_on_c, 0, 64, 61
2, 184642, Note_on_c, 0, 76, 0
2, 184646, Note_on_c, 0, 76, 93
2, 184665, Note_on_c, 0, 65, 0
2, 184665, Note_on_c, 0, 69, 0
2, 184676, Note_on_c, 0, 65, 57
2, 184680, Note_on_c, 0, 74, 0
2, 184687, Note_on_c, 0, 74, 57
2, 184696, Note_on_c, 0, 62, 0
2, 184700, Note_on_c, 0, 62, 62
2, 184796, Note_on_c, 0, 77, 0
2, 184803, Note_on_c, 0, 59, 67
2, 184806, Note_on_c, 0, 77, 88
2, 184849, Note_on_c, 0, 58, 0
2, 184859, Note_on_c, 0, 58, 70
2, 184957, Note_on_c, 0, 53, 0
2, 184964, Note_on_c, 0, 53, 65
2, 184998, Note_on_c, 0, 81, 94
2, 185064, Note_on_c, 0, 50, 0
2, 185072, Note_on_c, 0, 50, 66
2, 185145, Note_on_c, 0, 60, 0
2, 185145, Note_on_c, 0, 53, 0
2, 185145, Note_on_c, 0, 77, 0
2, 185145, Note_on_c, 0, 76, 0
2, 185145, Note_on_c, 0, 50, 0
2, 185145, Note_on_c, 0, 58, 0
2, 185145, Note_on_c, 0, 70, 0
2, 185145, Note_on_c, 0, 65, 0
2, 185145, Note_on_c, 0, 64, 0
2, 185146, Note_on_c, 0, 62, 0
2, 185146, Note_on_c, 0, 74, 0
2, 185150, Note_on_c, 0, 43, 0
2, 185150, Control_c, 0, 64, 0
2, 185157, Note_on_c, 0, 59, 0
2, 185164, Note_on_c, 0, 81, 0
2, 185187, Note_on_c, 0, 45, 0
2, 185192, Note_on_c, 0, 45, 70
2, 185194, Note_on_c, 0, 79, 94
2, 185198, Note_on_c, 0, 76, 86
2, 185198, Note_on_c, 0, 48, 64
2, 185200, Note_on_c, 0, 72, 81
2, 185205, Note_on_c, 0, 67, 72
2, 185210, Control_c, 0, 64, 127
2, 185286, Note_on_c, 0, 52, 73
2, 185377, Note_on_c, 0, 53, 64
2, 185476, Note_on_c, 0, 55, 70
2, 185541, Note_on_c, 0, 52, 0
2, 185550, Note_on_c, 0, 52, 64
2, 185559, Note_on_c, 0, 60, 70
2, 185571, Note_on_c, 0, 76, 0
2, 185576, Note_on_c, 0, 76, 90
2, 185659, Note_on_c, 0, 64, 65
2, 185748, Note_on_c, 0, 53, 0
2, 185759, Note_on_c, 0, 53, 60
2, 185761, Note_on_c, 0, 65, 67
2, 185832, Note_on_c, 0, 67, 0
2, 185844, Note_on_c, 0, 67, 66
2, 185916, Note_on_c, 0, 74, 94
2, 185940, Note_on_c, 0, 60, 0
2, 185940, Note_on_c, 0, 72, 0
2, 185944, Note_on_c, 0, 72, 78
2, 185944, Note_on_c, 0, 60, 57
2, 186032, Note_on_c, 0, 67, 0
2, 186036, Note_on_c, 0, 67, 75
2, 186109, Note_on_c, 0, 65, 0
2, 186116, Note_on_c, 0, 65, 69
2, 186178, Note_on_c, 0, 64, 0
2, 186189, Note_on_c, 0, 64, 65
2, 186270, Note_on_c, 0, 72, 0
2, 186281, Note_on_c, 0, 72, 87
2, 186286, Note_on_c, 0, 60, 0
2, 186295, Note_on_c, 0, 60, 73
2, 186388, Note_on_c, 0, 69, 63
2, 186390, Note_on_c, 0, 57, 65
2, 186462, Note_on_c, 0, 55, 0
2, 186469, Note_on_c, 0, 55, 58
2, 186501, Note_on_c, 0, 52, 0
2, 186512, Note_on_c, 0, 52, 69
2, 186604, Note_on_c, 0, 74, 0
2, 186605, Note_on_c, 0, 55, 0
2, 186605, Note_on_c, 0, 67, 0
2, 186605, Control_c, 0, 64, 0
2, 186605, Note_on_c, 0, 64, 0
2, 186606, Note_on_c, 0, 69, 0
2, 186606, Note_on_c, 0, 72, 0
2, 186606, Note_on_c, 0, 57, 0
2, 186606, Note_on_c, 0, 76, 0
2, 186607, Note_on_c, 0, 79, 0
2, 186609, Note_on_c, 0, 45, 0
2, 186616, Note_on_c, 0, 65, 0
2, 186624, Note_on_c, 0, 48, 0
2, 186624, Note_on_c, 0, 60, 0
2, 186631, Note_on_c, 0, 52, 0
2, 186631, Note_on_c, 0, 53, 0
2, 186645, Note_on_c, 0, 46, 77
2, 186651, Note_on_c, 0, 74, 91
2, 186659, Note_on_c, 0, 69, 72
2, 186659, Note_on_c, 0, 65, 74
2, 186662, Note_on_c, 0, 62, 70
2, 186685, Control_c, 0, 64, 127
2, 186748, Note_on_c, 0, 53, 71
2, 186813, Note_on_c, 0, 57, 73
2, 186921, Note_on_c, 0, 58, 67
2, 187003, Note_on_c, 0, 60, 66
2, 187084, Note_on_c, 0, 62, 0
2, 187089, Note_on_c, 0, 62, 63
2, 187188, Note_on_c, 0, 64, 69
2, 187207, Note_on_c, 0, 74, 0
2, 187211, Note_on_c, 0, 74, 82
2, 187284, Note_on_c, 0, 65, 0
2, 187288, Note_on_c, 0, 65, 72
2, 187393, Note_on_c, 0, 70, 81
2, 187396, Note_on_c, 0, 81, 94
2, 187468, Note_on_c, 0, 65, 0
2, 187478, Note_on_c, 0, 65, 63
2, 187545, Note_on_c, 0, 64, 0
2, 187550, Note_on_c, 0, 64, 68
2, 187660, Note_on_c, 0, 62, 0
2, 187669, Note_on_c, 0, 62, 73
2, 187745, Note_on_c, 0, 60, 0
2, 187756, Note_on_c, 0, 60, 61
2, 187822, Note_on_c, 0, 58, 0
2, 187827, Note_on_c, 0, 58, 69
2, 187914, Note_on_c, 0, 57, 0
2, 187925, Note_on_c, 0, 57, 64
2, 187959, Note_on_c, 0, 79, 81
2, 188014, Note_on_c, 0, 53, 0
2, 188022, Note_on_c, 0, 53, 67
2, 188044, Note_on_c, 0, 77, 77
2, 188072, Note_on_c, 0, 74, 0
2, 188072, Note_on_c, 0, 62, 0
2, 188073, Note_on_c, 0, 81, 0
2, 188073, Note_on_c, 0, 69, 0
2, 188073, Note_on_c, 0, 70, 0
2, 188073, Note_on_c, 0, 57, 0
2, 188074, Note_on_c, 0, 65, 0
2, 188075, Note_on_c, 0, 58, 0
2, 188076, Note_on_c, 0, 60, 0
2, 188077, Note_on_c, 0, 79, 0
2, 188077, Note_on_c, 0, 64, 0
2, 188083, Control_c, 0, 64, 0
2, 188098, Note_on_c, 0, 46, 0
2, 188150, Note_on_c, 0, 76, 95
2, 188156, Note_on_c, 0, 48, 71
2, 188159, Note_on_c, 0, 67, 75
2, 188160, Note_on_c, 0, 72, 83
2, 188183, Control_c, 0, 64, 127
2, 188261, Note_on_c, 0, 52, 72
2, 188336, Note_on_c, 0, 53, 0
2, 188341, Note_on_c, 0, 53, 65
2, 188438, Note_on_c, 0, 55, 70
2, 188524, Note_on_c, 0, 60, 74
2, 188625, Note_on_c, 0, 64, 73
2, 188701, Note_on_c, 0, 65, 76
2, 188789, Note_on_c, 0, 67, 0
2, 188800, Note_on_c, 0, 67, 75
2, 188881, Note_on_c, 0, 72, 0
2, 188889, Note_on_c, 0, 72, 84
2, 189073, Note_on_c, 0, 65, 0
2, 189078, Note_on_c, 0, 65, 86
2, 189231, Control_c, 0, 64, 0
2, 189250, Note_on_c, 0, 48, 0
2, 189250, Note_on_c, 0, 65, 0
2, 189257, Note_on_c, 0, 65, 91
2, 189260, Note_on_c, 0, 48, 67
2, 189281, Control_c, 0, 64, 127
2, 189434, Note_on_c, 0, 67, 0
2, 189439, Note_on_c, 0, 67, 88
2, 189591, Note_on_c, 0, 48, 0
2, 189591, Note_on_c, 0, 65, 0
2, 189591, Note_on_c, 0, 77, 0
2, 189592, Note_on_c, 0, 67, 0
2, 189595, Control_c, 0, 64, 0
2, 189596, Note_on_c, 0, 52, 0
2, 189596, Note_on_c, 0, 60, 0
2, 189596, Note_on_c, 0, 64, 0
2, 189603, Note_on_c, 0, 55, 0
2, 189611, Note_on_c, 0, 72, 0
2, 189626, Note_on_c, 0, 53, 0
2, 189629, Note_on_c, 0, 69, 97
2, 189632, Note_on_c, 0, 57, 79
2, 189636, Note_on_c, 0, 53, 67
2, 189644, Note_on_c, 0, 46, 68
2, 189657, Control_c, 0, 64, 127
2, 189824, Note_on_c, 0, 74, 75
2, 189918, Note_on_c, 0, 77, 77
2, 190007, Note_on_c, 0, 67, 87
2, 190013, Note_on_c, 0, 81, 81
2, 190109, Note_on_c, 0, 86, 84
2, 190204, Note_on_c, 0, 88, 79
2, 190296, Note_on_c, 0, 89, 83
2, 190383, Note_on_c, 0, 62, 90
2, 190385, Note_on_c, 0, 93, 94
2, 190471, Note_on_c, 0, 89, 0
2, 190476, Note_on_c, 0, 89, 82
2, 190548, Note_on_c, 0, 88, 0
2, 190558, Note_on_c, 0, 88, 78
2, 190656, Note_on_c, 0, 86, 0
2, 190661, Note_on_c, 0, 86, 73
2, 190740, Note_on_c, 0, 81, 0
2, 190747, Note_on_c, 0, 81, 88
2, 190748, Note_on_c, 0, 67, 0
2, 190758, Note_on_c, 0, 67, 85
2, 190840, Note_on_c, 0, 77, 0
2, 190848, Note_on_c, 0, 77, 71
2, 190947, Note_on_c, 0, 67, 0
2, 190947, Note_on_c, 0, 76, 0
2, 190954, Note_on_c, 0, 76, 76
2, 190959, Note_on_c, 0, 67, 64
2, 191047, Note_on_c, 0, 74, 0
2, 191051, Note_on_c, 0, 74, 79
2, 191098, Note_on_c, 0, 86, 0
2, 191098, Note_on_c, 0, 74, 0
2, 191100, Note_on_c, 0, 76, 0
2, 191101, Note_on_c, 0, 77, 0
2, 191101, Note_on_c, 0, 67, 0
2, 191102, Note_on_c, 0, 53, 0
2, 191102, Note_on_c, 0, 46, 0
2, 191103, Note_on_c, 0, 81, 0
2, 191104, Note_on_c, 0, 88, 0
2, 191104, Note_on_c, 0, 57, 0
2, 191104, Note_on_c, 0, 62, 0
2, 191105, Note_on_c, 0, 93, 0
2, 191105, Note_on_c, 0, 89, 0
2, 191105, Control_c, 0, 64, 0
2, 191139, Note_on_c, 0, 69, 0
2, 191144, Note_on_c, 0, 69, 88
2, 191147, Note_on_c, 0, 55, 80
2, 191149, Note_on_c, 0, 52, 81
2, 191150, Note_on_c, 0, 48, 72
2, 191216, Control_c, 0, 64, 127
2, 191238, Note_on_c, 0, 76, 82
2, 191353, Note_on_c, 0, 79, 83
2, 191440, Note_on_c, 0, 67, 92
2, 191450, Note_on_c, 0, 84, 86
2, 191566, Note_on_c, 0, 88, 77
2, 191676, Note_on_c, 0, 89, 84
2, 191708, Note_on_c, 0, 69, 0
2, 191715, Note_on_c, 0, 69, 89
2, 191796, Note_on_c, 0, 91, 85
2, 191911, Note_on_c, 0, 96, 86
2, 191918, Note_on_c, 0, 70, 98
2, 192007, Note_on_c, 0, 91, 0
2, 192016, Note_on_c, 0, 91, 68
2, 192076, Note_on_c, 0, 89, 0
2, 192088, Note_on_c, 0, 89, 81
2, 192184, Note_on_c, 0, 88, 0
2, 192194, Note_on_c, 0, 88, 76
2, 192245, Note_on_c, 0, 84, 0
2, 192252, Note_on_c, 0, 84, 78
2, 192307, Note_on_c, 0, 88, 0
2, 192317, Note_on_c, 0, 88, 57
2, 192360, Note_on_c, 0, 79, 0
2, 192370, Note_on_c, 0, 79, 63
2, 192422, Note_on_c, 0, 69, 0
2, 192433, Note_on_c, 0, 69, 81
2, 192453, Note_on_c, 0, 77, 73
2, 192483, Note_on_c, 0, 79, 0
2, 192490, Note_on_c, 0, 79, 58
2, 192537, Note_on_c, 0, 76, 0
2, 192542, Note_on_c, 0, 76, 74
2, 192606, Note_on_c, 0, 77, 0
2, 192611, Note_on_c, 0, 77, 58
2, 192634, Note_on_c, 0, 84, 0
2, 192635, Note_on_c, 0, 70, 0
2, 192637, Note_on_c, 0, 52, 0
2, 192637, Note_on_c, 0, 96, 0
2, 192638, Note_on_c, 0, 88, 0
2, 192639, Note_on_c, 0, 91, 0
2, 192639, Note_on_c, 0, 79, 0
2, 192640, Note_on_c, 0, 48, 0
2, 192641, Note_on_c, 0, 76, 0
2, 192642, Note_on_c, 0, 55, 0
2, 192642, Control_c, 0, 64, 0
2, 192652, Note_on_c, 0, 67, 0
2, 192660, Note_on_c, 0, 77, 0
2, 192660, Note_on_c, 0, 89, 0
2, 192662, Note_on_c, 0, 57, 91
2, 192663, Note_on_c, 0, 67, 93
2, 192674, Note_on_c, 0, 50, 77
2, 192679, Note_on_c, 0, 53, 77
2, 192714, Control_c, 0, 64, 127
2, 192772, Note_on_c, 0, 77, 66
2, 192844, Note_on_c, 0, 77, 0
2, 192849, Note_on_c, 0, 77, 80
2, 192962, Note_on_c, 0, 81, 78
2, 193018, Note_on_c, 0, 72, 99
2, 193049, Note_on_c, 0, 86, 74
2, 193148, Note_on_c, 0, 88, 80
2, 193236, Note_on_c, 0, 77, 0
2, 193239, Note_on_c, 0, 89, 79
2, 193242, Note_on_c, 0, 77, 57
2, 193334, Note_on_c, 0, 93, 80
2, 193407, Note_on_c, 0, 70, 99
2, 193416, Note_on_c, 0, 82, 87
2, 193505, Note_on_c, 0, 88, 0
2, 193515, Note_on_c, 0, 88, 57
2, 193597, Note_on_c, 0, 89, 0
2, 193607, Note_on_c, 0, 89, 71
2, 193674, Note_on_c, 0, 69, 0
2, 193674, Note_on_c, 0, 88, 0
2, 193684, Note_on_c, 0, 88, 79
2, 193684, Note_on_c, 0, 69, 90
2, 193766, Note_on_c, 0, 86, 0
2, 193772, Note_on_c, 0, 86, 69
2, 193827, Note_on_c, 0, 81, 0
2, 193839, Note_on_c, 0, 81, 76
2, 193935, Note_on_c, 0, 67, 0
2, 193935, Note_on_c, 0, 69, 0
2, 193935, Note_on_c, 0, 77, 0
2, 193945, Note_on_c, 0, 77, 74
2, 193945, Note_on_c, 0, 67, 80
2, 193946, Note_on_c, 0, 69, 66
2, 194019, Note_on_c, 0, 76, 75
2, 194080, Note_on_c, 0, 73, 79
2, 194124, Note_on_c, 0, 67, 0
2, 194124, Note_on_c, 0, 53, 0
2, 194124, Note_on_c, 0, 73, 0
2, 194124, Note_on_c, 0, 77, 0
2, 194124, Note_on_c, 0, 93, 0
2, 194124, Note_on_c, 0, 89, 0
2, 194124, Note_on_c, 0, 70, 0
2, 194125, Note_on_c, 0, 81, 0
2, 194125, Note_on_c, 0, 76, 0
2, 194125, Note_on_c, 0, 88, 0
2, 194125, Note_on_c, 0, 82, 0
2, 194126, Note_on_c, 0, 72, 0
2, 194126, Note_on_c, 0, 50, 0
2, 194132, Control_c, 0, 64, 0
2, 194142, Note_on_c, 0, 86, 0
2, 194165, Note_on_c, 0, 57, 0
2, 194165, Note_on_c, 0, 69, 0
2, 194170, Note_on_c, 0, 57, 82
2, 194173, Note_on_c, 0, 69, 88
2, 194178, Note_on_c, 0, 52, 78
2, 194187, Note_on_c, 0, 48, 68
2, 194196, Control_c, 0, 64, 127
2, 194273, Note_on_c, 0, 69, 0
2, 194277, Note_on_c, 0, 69, 69
2, 194320, Note_on_c, 0, 76, 76
2, 194376, Note_on_c, 0, 67, 85
2, 194407, Note_on_c, 0, 79, 76
2, 194513, Note_on_c, 0, 84, 76
2, 194612, Note_on_c, 0, 88, 80
2, 194713, Note_on_c, 0, 89, 80
2, 194801, Note_on_c, 0, 91, 85
2, 194883, Note_on_c, 0, 96, 90
2, 194964, Note_on_c, 0, 91, 0
2, 194968, Note_on_c, 0, 91, 72
2, 195048, Note_on_c, 0, 89, 0
2, 195054, Note_on_c, 0, 89, 77
2, 195067, Note_on_c, 0, 65, 89
2, 195118, Note_on_c, 0, 88, 0
2, 195128, Note_on_c, 0, 88, 78
2, 195194, Note_on_c, 0, 84, 0
2, 195201, Note_on_c, 0, 84, 77
2, 195256, Note_on_c, 0, 65, 0
2, 195260, Note_on_c, 0, 65, 80
2, 195271, Note_on_c, 0, 79, 0
2, 195282, Note_on_c, 0, 79, 79
2, 195406, Note_on_c, 0, 77, 71
2, 195423, Note_on_c, 0, 64, 81
2, 195471, Note_on_c, 0, 76, 0
2, 195478, Note_on_c, 0, 76, 76
2, 195611, Note_on_c, 0, 91, 0
2, 195613, Note_on_c, 0, 89, 0
2, 195613, Note_on_c, 0, 69, 0
2, 195613, Note_on_c, 0, 88, 0
2, 195613, Note_on_c, 0, 96, 0
2, 195613, Note_on_c, 0, 79, 0
2, 195613, Note_on_c, 0, 77, 0
2, 195614, Note_on_c, 0, 65, 0
2, 195614, Note_on_c, 0, 84, 0
2, 195614, Note_on_c, 0, 64, 0
2, 195614, Note_on_c, 0, 57, 0
2, 195614, Note_on_c, 0, 55, 70
2, 195615, Note_on_c, 0, 67, 0
2, 195619, Note_on_c, 0, 48, 0
2, 195619, Control_c, 0, 64, 0
2, 195630, Note_on_c, 0, 62, 93
2, 195632, Note_on_c, 0, 76, 0
2, 195639, Note_on_c, 0, 76, 70
2, 195686, Control_c, 0, 64, 127
2, 195709, Note_on_c, 0, 58, 67
2, 195812, Note_on_c, 0, 74, 74
2, 195915, Note_on_c, 0, 77, 73
2, 196010, Note_on_c, 0, 82, 80
2, 196095, Note_on_c, 0, 86, 73
2, 196193, Note_on_c, 0, 58, 0
2, 196201, Note_on_c, 0, 58, 74
2, 196201, Note_on_c, 0, 88, 79
2, 196291, Note_on_c, 0, 89, 72
2, 196377, Note_on_c, 0, 62, 0
2, 196388, Note_on_c, 0, 62, 93
2, 196395, Note_on_c, 0, 94, 83
2, 196485, Note_on_c, 0, 89, 0
2, 196490, Note_on_c, 0, 89, 71
2, 196538, Note_on_c, 0, 88, 0
2, 196547, Note_on_c, 0, 88, 75
2, 196623, Note_on_c, 0, 86, 0
2, 196629, Note_on_c, 0, 86, 72
2, 196679, Note_on_c, 0, 64, 91
2, 196715, Note_on_c, 0, 82, 0
2, 196726, Note_on_c, 0, 82, 80
2, 196811, Note_on_c, 0, 79, 70
2, 196815, Note_on_c, 0, 77, 0
2, 196821, Note_on_c, 0, 77, 59
2, 196899, Note_on_c, 0, 76, 0
2, 196905, Note_on_c, 0, 76, 71
2, 196941, Note_on_c, 0, 65, 82
2, 196984, Note_on_c, 0, 74, 0
2, 196989, Note_on_c, 0, 74, 74
2, 197145, Note_on_c, 0, 64, 0
2, 197153, Note_on_c, 0, 52, 0
2, 197153, Note_on_c, 0, 55, 0
2, 197155, Note_on_c, 0, 64, 91
2, 197159, Note_on_c, 0, 45, 72
2, 197161, Control_c, 0, 64, 0
2, 197163, Note_on_c, 0, 55, 74
2, 197164, Note_on_c, 0, 52, 68
2, 197165, Note_on_c, 0, 88, 0
2, 197166, Note_on_c, 0, 76, 0
2, 197167, Note_on_c, 0, 58, 0
2, 197168, Note_on_c, 0, 65, 0
2, 197168, Note_on_c, 0, 89, 0
2, 197168, Note_on_c, 0, 79, 0
2, 197168, Note_on_c, 0, 86, 0
2, 197169, Note_on_c, 0, 60, 78
2, 197169, Note_on_c, 0, 77, 0
2, 197169, Note_on_c, 0, 94, 0
2, 197169, Note_on_c, 0, 62, 0
2, 197170, Note_on_c, 0, 74, 0
2, 197184, Note_on_c, 0, 82, 0
2, 197230, Control_c, 0, 64, 127
2, 197341, Note_on_c, 0, 76, 74
2, 197416, Note_on_c, 0, 79, 81
2, 197519, Note_on_c, 0, 84, 77
2, 197552, Note_on_c, 0, 64, 0
2, 197600, Note_on_c, 0, 88, 78
2, 197690, Note_on_c, 0, 60, 0
2, 197696, Note_on_c, 0, 89, 78
2, 197701, Note_on_c, 0, 60, 77
2, 197791, Note_on_c, 0, 91, 82
2, 197817, Note_on_c, 0, 72, 92
2, 197909, Note_on_c, 0, 96, 87
2, 197990, Note_on_c, 0, 91, 0
2, 197998, Note_on_c, 0, 91, 81
2, 198074, Note_on_c, 0, 89, 0
2, 198081, Note_on_c, 0, 89, 82
2, 198107, Note_on_c, 0, 70, 89
2, 198174, Note_on_c, 0, 88, 0
2, 198181, Note_on_c, 0, 88, 74
2, 198286, Note_on_c, 0, 69, 85
2, 198328, Note_on_c, 0, 79, 0
2, 198332, Note_on_c, 0, 79, 76
2, 198371, Note_on_c, 0, 81, 61
2, 198397, Note_on_c, 0, 81, 0
2, 198445, Note_on_c, 0, 67, 76
2, 198445, Note_on_c, 0, 77, 74
2, 198474, Note_on_c, 0, 69, 0
2, 198483, Note_on_c, 0, 69, 59
2, 198504, Note_on_c, 0, 76, 0
2, 198509, Note_on_c, 0, 76, 67
2, 198581, Note_on_c, 0, 77, 0
2, 198592, Note_on_c, 0, 77, 58
2, 198641, Control_c, 0, 64, 0
2, 198658, Note_on_c, 0, 69, 0
2, 198658, Note_on_c, 0, 70, 0
2, 198661, Note_on_c, 0, 72, 0
2, 198661, Note_on_c, 0, 45, 0
2, 198661, Note_on_c, 0, 91, 0
2, 198662, Note_on_c, 0, 84, 0
2, 198662, Note_on_c, 0, 79, 0
2, 198662, Note_on_c, 0, 96, 0
2, 198662, Note_on_c, 0, 76, 0
2, 198662, Note_on_c, 0, 52, 0
2, 198663, Note_on_c, 0, 67, 0
2, 198664, Note_on_c, 0, 88, 0
2, 198666, Note_on_c, 0, 69, 90
2, 198666, Note_on_c, 0, 89, 0
2, 198677, Note_on_c, 0, 65, 76
2, 198681, Note_on_c, 0, 55, 0
2, 198681, Note_on_c, 0, 57, 69
2, 198681, Note_on_c, 0, 60, 0
2, 198684, Note_on_c, 0, 50, 68
2, 198720, Control_c, 0, 64, 127
2, 198750, Note_on_c, 0, 69, 0
2, 198757, Note_on_c, 0, 69, 68
2, 198858, Note_on_c, 0, 69, 0
2, 198858, Note_on_c, 0, 77, 0
2, 198863, Note_on_c, 0, 69, 69
2, 198866, Note_on_c, 0, 77, 66
2, 199050, Note_on_c, 0, 69, 0
2, 199050, Note_on_c, 0, 77, 0
2, 199054, Note_on_c, 0, 77, 60
2, 199054, Note_on_c, 0, 74, 65
2, 199057, Note_on_c, 0, 69, 59
2, 199232, Note_on_c, 0, 79, 69
2, 199236, Note_on_c, 0, 62, 49
2, 199416, Note_on_c, 0, 86, 73
2, 199418, Note_on_c, 0, 65, 0
2, 199418, Note_on_c, 0, 69, 0
2, 199425, Note_on_c, 0, 69, 54
2, 199428, Note_on_c, 0, 65, 50
2, 199587, Note_on_c, 0, 65, 0
2, 199595, Note_on_c, 0, 77, 0
2, 199597, Note_on_c, 0, 84, 74
2, 199599, Note_on_c, 0, 65, 49
2, 199603, Note_on_c, 0, 69, 0
2, 199605, Note_on_c, 0, 77, 52
2, 199607, Note_on_c, 0, 69, 56
2, 199772, Note_on_c, 0, 62, 0
2, 199772, Note_on_c, 0, 74, 0
2, 199772, Note_on_c, 0, 77, 0
2, 199777, Note_on_c, 0, 62, 65
2, 199779, Note_on_c, 0, 74, 59
2, 199783, Note_on_c, 0, 77, 67
2, 199948, Note_on_c, 0, 79, 0
2, 199958, Note_on_c, 0, 79, 76
2, 200081, Note_on_c, 0, 50, 0
2, 200081, Note_on_c, 0, 77, 0
2, 200081, Note_on_c, 0, 74, 0
2, 200081, Note_on_c, 0, 57, 0
2, 200082, Note_on_c, 0, 86, 0
2, 200082, Note_on_c, 0, 62, 0
2, 200082, Note_on_c, 0, 79, 0
2, 200082, Note_on_c, 0, 84, 0
2, 200089, Control_c, 0, 64, 0
2, 200094, Note_on_c, 0, 65, 0
2, 200094, Note_on_c, 0, 69, 0
2, 200132, Note_on_c, 0, 82, 82
2, 200135, Note_on_c, 0, 48, 66
2, 200136, Note_on_c, 0, 76, 55
2, 200142, Note_on_c, 0, 79, 57
2, 200156, Control_c, 0, 64, 127
2, 200332, Note_on_c, 0, 48, 0
2, 200335, Note_on_c, 0, 81, 71
2, 200336, Note_on_c, 0, 72, 67
2, 200337, Note_on_c, 0, 48, 55
2, 200352, Note_on_c, 0, 67, 47
2, 200363, Note_on_c, 0, 67, 0
2, 200494, Note_on_c, 0, 81, 0
2, 200500, Note_on_c, 0, 67, 51
2, 200501, Note_on_c, 0, 72, 0
2, 200504, Note_on_c, 0, 81, 59
2, 200504, Note_on_c, 0, 77, 66
2, 200506, Note_on_c, 0, 72, 57
2, 200602, Note_on_c, 0, 60, 46
2, 200609, Note_on_c, 0, 60, 0
2, 200678, Note_on_c, 0, 77, 0
2, 200678, Note_on_c, 0, 82, 0
2, 200681, Note_on_c, 0, 60, 57
2, 200684, Note_on_c, 0, 82, 74
2, 200684, Note_on_c, 0, 77, 53
2, 200847, Note_on_c, 0, 81, 0
2, 200855, Note_on_c, 0, 67, 0
2, 200855, Note_on_c, 0, 76, 0
2, 200856, Note_on_c, 0, 81, 68
2, 200860, Note_on_c, 0, 67, 52
2, 200865, Note_on_c, 0, 76, 49
2, 200866, Note_on_c, 0, 64, 51
2, 201024, Note_on_c, 0, 64, 0
2, 201024, Note_on_c, 0, 77, 0
2, 201033, Note_on_c, 0, 64, 49
2, 201034, Note_on_c, 0, 77, 64
2, 201047, Note_on_c, 0, 48, 0
2, 201047, Note_on_c, 0, 67, 0
2, 201054, Note_on_c, 0, 67, 48
2, 201055, Note_on_c, 0, 48, 48
2, 201216, Note_on_c, 0, 77, 0
2, 201223, Note_on_c, 0, 60, 0
2, 201223, Note_on_c, 0, 72, 0
2, 201226, Note_on_c, 0, 81, 0
2, 201226, Note_on_c, 0, 77, 52
2, 201227, Note_on_c, 0, 72, 64
2, 201228, Note_on_c, 0, 60, 58
2, 201354, Note_on_c, 0, 77, 0
2, 201365, Note_on_c, 0, 77, 47
2, 201412, Note_on_c, 0, 74, 65
2, 201414, Note_on_c, 0, 65, 35
2, 201489, Note_on_c, 0, 48, 0
2, 201489, Note_on_c, 0, 67, 0
2, 201490, Note_on_c, 0, 64, 0
2, 201490, Note_on_c, 0, 77, 0
2, 201490, Note_on_c, 0, 82, 0
2, 201490, Note_on_c, 0, 60, 0
2, 201490, Note_on_c, 0, 72, 0
2, 201491, Control_c, 0, 64, 0
2, 201500, Note_on_c, 0, 76, 0
2, 201500, Note_on_c, 0, 79, 0
2, 201523, Note_on_c, 0, 65, 0
2, 201561, Control_c, 0, 64, 127
2, 201572, Note_on_c, 0, 46, 65
2, 201768, Note_on_c, 0, 74, 0
2, 201779, Note_on_c, 0, 74, 66
2, 201780, Note_on_c, 0, 69, 64
2, 201960, Note_on_c, 0, 74, 0
2, 201963, Note_on_c, 0, 77, 75
2, 201964, Note_on_c, 0, 74, 65
2, 201976, Note_on_c, 0, 69, 0
2, 201980, Note_on_c, 0, 69, 62
2, 202129, Note_on_c, 0, 77, 0
2, 202135, Note_on_c, 0, 77, 63
2, 202138, Note_on_c, 0, 79, 79
2, 202141, Note_on_c, 0, 62, 64
2, 202315, Note_on_c, 0, 86, 70
2, 202321, Note_on_c, 0, 69, 0
2, 202331, Note_on_c, 0, 69, 64
2, 202331, Note_on_c, 0, 65, 61
2, 202492, Note_on_c, 0, 84, 77
2, 202506, Note_on_c, 0, 69, 0
2, 202513, Note_on_c, 0, 69, 52
2, 202513, Note_on_c, 0, 65, 0
2, 202513, Note_on_c, 0, 77, 0
2, 202518, Note_on_c, 0, 77, 52
2, 202521, Note_on_c, 0, 65, 50
2, 202682, Note_on_c, 0, 62, 0
2, 202682, Note_on_c, 0, 74, 0
2, 202682, Note_on_c, 0, 77, 0
2, 202687, Note_on_c, 0, 77, 75
2, 202689, Note_on_c, 0, 74, 58
2, 202689, Note_on_c, 0, 62, 61
2, 202859, Note_on_c, 0, 79, 0
2, 202869, Note_on_c, 0, 79, 76
2, 202970, Note_on_c, 0, 46, 0
2, 202971, Note_on_c, 0, 62, 0
2, 202971, Note_on_c, 0, 74, 0
2, 202971, Note_on_c, 0, 84, 0
2, 202971, Note_on_c, 0, 77, 0
2, 202972, Note_on_c, 0, 86, 0
2, 202976, Control_c, 0, 64, 0
2, 202990, Note_on_c, 0, 65, 0
2, 202990, Note_on_c, 0, 69, 0
2, 203039, Note_on_c, 0, 48, 67
2, 203045, Note_on_c, 0, 82, 77
2, 203059, Control_c, 0, 64, 127
2, 203228, Note_on_c, 0, 48, 0
2, 203231, Note_on_c, 0, 81, 76
2, 203232, Note_on_c, 0, 67, 60
2, 203233, Note_on_c, 0, 48, 58
2, 203239, Note_on_c, 0, 72, 63
2, 203404, Note_on_c, 0, 81, 0
2, 203412, Note_on_c, 0, 72, 0
2, 203413, Note_on_c, 0, 77, 70
2, 203414, Note_on_c, 0, 81, 62
2, 203417, Note_on_c, 0, 72, 62
2, 203427, Note_on_c, 0, 67, 0
2, 203431, Note_on_c, 0, 67, 54
2, 203579, Note_on_c, 0, 60, 58
2, 203581, Note_on_c, 0, 82, 0
2, 203585, Note_on_c, 0, 82, 77
2, 203598, Note_on_c, 0, 76, 44
2, 203604, Note_on_c, 0, 76, 0
2, 203750, Note_on_c, 0, 81, 0
2, 203758, Note_on_c, 0, 60, 0
2, 203760, Note_on_c, 0, 81, 73
2, 203762, Note_on_c, 0, 60, 52
2, 203783, Note_on_c, 0, 64, 50
2, 203783, Note_on_c, 0, 76, 49
2, 203934, Note_on_c, 0, 77, 0
2, 203939, Note_on_c, 0, 77, 71
2, 203950, Note_on_c, 0, 67, 0
2, 203958, Note_on_c, 0, 67, 47
2, 204126, Note_on_c, 0, 60, 0
2, 204134, Note_on_c, 0, 72, 0
2, 204138, Note_on_c, 0, 60, 58
2, 204138, Note_on_c, 0, 72, 64
2, 204257, Note_on_c, 0, 76, 0
2, 204262, Note_on_c, 0, 76, 49
2, 204319, Note_on_c, 0, 74, 61
2, 204413, Note_on_c, 0, 82, 0
2, 204413, Note_on_c, 0, 74, 0
2, 204413, Note_on_c, 0, 67, 0
2, 204414, Note_on_c, 0, 81, 0
2, 204414, Note_on_c, 0, 64, 0
2, 204414, Note_on_c, 0, 72, 0
2, 204414, Note_on_c, 0, 77, 0
2, 204415, Control_c, 0, 64, 0
2, 204426, Note_on_c, 0, 60, 0
2, 204426, Note_on_c, 0, 79, 0
2, 204433, Note_on_c, 0, 48, 0
2, 204433, Note_on_c, 0, 76, 0
2, 204484, Note_on_c, 0, 50, 62
2, 204495, Control_c, 0, 64, 127
2, 204682, Note_on_c, 0, 69, 55
2, 204859, Note_on_c, 0, 77, 66
2, 204871, Note_on_c, 0, 69, 0
2, 204872, Note_on_c, 0, 67, 48
2, 204876, Note_on_c, 0, 69, 45
2, 205035, Note_on_c, 0, 79, 71
2, 205056, Note_on_c, 0, 67, 0
2, 205059, Note_on_c, 0, 62, 55
2, 205062, Note_on_c, 0, 67, 41
2, 205222, Note_on_c, 0, 86, 75
2, 205248, Note_on_c, 0, 69, 0
2, 205248, Note_on_c, 0, 79, 0
2, 205255, Note_on_c, 0, 77, 0
2, 205256, Note_on_c, 0, 69, 48
2, 205259, Note_on_c, 0, 79, 50
2, 205266, Note_on_c, 0, 77, 40
2, 205405, Note_on_c, 0, 84, 73
2, 205416, Note_on_c, 0, 67, 0
2, 205424, Note_on_c, 0, 79, 0
2, 205427, Note_on_c, 0, 67, 47
2, 205428, Note_on_c, 0, 79, 49
2, 205593, Note_on_c, 0, 62, 0
2, 205593, Note_on_c, 0, 77, 0
2, 205599, Note_on_c, 0, 77, 61
2, 205599, Note_on_c, 0, 62, 61
2, 205624, Note_on_c, 0, 67, 0
2, 205634, Note_on_c, 0, 67, 30
2, 205762, Note_on_c, 0, 79, 0
2, 205771, Note_on_c, 0, 79, 74
2, 205880, Note_on_c, 0, 50, 0
2, 205880, Note_on_c, 0, 62, 0
2, 205881, Note_on_c, 0, 79, 0
2, 205881, Note_on_c, 0, 67, 0
2, 205881, Note_on_c, 0, 77, 0
2, 205882, Note_on_c, 0, 84, 0
2, 205884, Note_on_c, 0, 86, 0
2, 205887, Control_c, 0, 64, 0
2, 205908, Note_on_c, 0, 69, 0
2, 205946, Note_on_c, 0, 48, 63
2, 205946, Control_c, 0, 64, 127
2, 205948, Note_on_c, 0, 82, 76
2, 206126, Note_on_c, 0, 81, 60
2, 206142, Note_on_c, 0, 69, 48
2, 206310, Note_on_c, 0, 77, 61
2, 206311, Note_on_c, 0, 67, 48
2, 206323, Note_on_c, 0, 69, 0
2, 206328, Note_on_c, 0, 69, 41
2, 206476, Note_on_c, 0, 82, 0
2, 206485, Note_on_c, 0, 82, 79
2, 206496, Note_on_c, 0, 60, 48
2, 206661, Note_on_c, 0, 81, 0
2, 206668, Note_on_c, 0, 60, 0
2, 206672, Note_on_c, 0, 81, 71
2, 206676, Note_on_c, 0, 69, 0
2, 206677, Note_on_c, 0, 60, 45
2, 206684, Note_on_c, 0, 69, 50
2, 206837, Note_on_c, 0, 77, 0
2, 206844, Note_on_c, 0, 77, 61
2, 206853, Note_on_c, 0, 67, 0
2, 206861, Note_on_c, 0, 67, 48
2, 207014, Note_on_c, 0, 60, 0
2, 207018, Note_on_c, 0, 60, 59
2, 207024, Note_on_c, 0, 72, 63
2, 207218, Note_on_c, 0, 74, 67
2, 207229, Note_on_c, 0, 67, 0
2, 207234, Note_on_c, 0, 67, 40
2, 207314, Note_on_c, 0, 82, 0
2, 207314, Note_on_c, 0, 60, 0
2, 207314, Note_on_c, 0, 72, 0
2, 207315, Note_on_c, 0, 81, 0
2, 207317, Control_c, 0, 64, 0
2, 207336, Note_on_c, 0, 48, 0
2, 207344, Note_on_c, 0, 77, 0
2, 207344, Control_c, 0, 64, 127
2, 207382, Note_on_c, 0, 46, 63
2, 207383, Note_on_c, 0, 69, 0
2, 207587, Note_on_c, 0, 69, 55
2, 207651, Note_on_c, 0, 67, 0
2, 207761, Note_on_c, 0, 77, 71
2, 207763, Note_on_c, 0, 67, 55
2, 207944, Note_on_c, 0, 62, 55
2, 207946, Note_on_c, 0, 79, 70
2, 207966, Note_on_c, 0, 67, 0
2, 207973, Note_on_c, 0, 67, 30
2, 208110, Note_on_c, 0, 86, 80
2, 208135, Note_on_c, 0, 69, 0
2, 208140, Note_on_c, 0, 69, 50
2, 208143, Note_on_c, 0, 67, 0
2, 208153, Note_on_c, 0, 67, 42
2, 208299, Note_on_c, 0, 84, 78
2, 208327, Note_on_c, 0, 79, 0
2, 208335, Note_on_c, 0, 67, 0
2, 208338, Note_on_c, 0, 79, 52
2, 208345, Note_on_c, 0, 67, 43
2, 208488, Note_on_c, 0, 74, 0
2, 208488, Note_on_c, 0, 77, 0
2, 208496, Note_on_c, 0, 62, 0
2, 208499, Note_on_c, 0, 74, 55
2, 208500, Note_on_c, 0, 77, 70
2, 208502, Note_on_c, 0, 62, 63
2, 208665, Note_on_c, 0, 67, 0
2, 208665, Note_on_c, 0, 79, 0
2, 208673, Note_on_c, 0, 67, 42
2, 208676, Note_on_c, 0, 79, 72
2, 208800, Note_on_c, 0, 77, 0
2, 208800, Note_on_c, 0, 46, 0
2, 208800, Note_on_c, 0, 69, 0
2, 208800, Note_on_c, 0, 67, 0
2, 208800, Note_on_c, 0, 74, 0
2, 208800, Note_on_c, 0, 62, 0
2, 208800, Note_on_c, 0, 79, 0
2, 208801, Control_c, 0, 64, 0
2, 208801, Note_on_c, 0, 84, 0
2, 208802, Note_on_c, 0, 86, 0
2, 208860, Note_on_c, 0, 48, 64
2, 208863, Note_on_c, 0, 82, 79
2, 208872, Control_c, 0, 64, 127
2, 209054, Note_on_c, 0, 81, 68
2, 209068, Note_on_c, 0, 69, 50
2, 209245, Note_on_c, 0, 77, 63
2, 209246, Note_on_c, 0, 67, 45
2, 209418, Note_on_c, 0, 77, 0
2, 209418, Note_on_c, 0, 82, 0
2, 209425, Note_on_c, 0, 77, 49
2, 209428, Note_on_c, 0, 82, 74
2, 209430, Note_on_c, 0, 60, 46
2, 209610, Note_on_c, 0, 69, 0
2, 209610, Note_on_c, 0, 81, 0
2, 209614, Note_on_c, 0, 81, 66
2, 209620, Note_on_c, 0, 69, 43
2, 209794, Note_on_c, 0, 67, 0
2, 209794, Note_on_c, 0, 77, 0
2, 209800, Note_on_c, 0, 67, 43
2, 209805, Note_on_c, 0, 77, 58
2, 209971, Note_on_c, 0, 82, 0
2, 209977, Note_on_c, 0, 82, 73
2, 209994, Note_on_c, 0, 60, 0
2, 209998, Note_on_c, 0, 60, 49
2, 210170, Note_on_c, 0, 81, 0
2, 210174, Note_on_c, 0, 81, 60
2, 210178, Note_on_c, 0, 60, 0
2, 210185, Note_on_c, 0, 60, 38
2, 210347, Note_on_c, 0, 77, 0
2, 210358, Note_on_c, 0, 77, 53
2, 210370, Note_on_c, 0, 60, 0
2, 210376, Note_on_c, 0, 60, 34
2, 210531, Note_on_c, 0, 82, 0
2, 210536, Note_on_c, 0, 82, 72
2, 210723, Note_on_c, 0, 81, 0
2, 210727, Note_on_c, 0, 81, 55
2, 210892, Note_on_c, 0, 77, 0
2, 210898, Note_on_c, 0, 77, 52
2, 211038, Note_on_c, 0, 77, 0
2, 211043, Note_on_c, 0, 77, 37
2, 211077, Note_on_c, 0, 82, 0
2, 211082, Note_on_c, 0, 82, 64
2, 211269, Note_on_c, 0, 81, 0
2, 211273, Note_on_c, 0, 81, 58
2, 211392, Note_on_c, 0, 81, 0
2, 211400, Note_on_c, 0, 81, 34
2, 211476, Note_on_c, 0, 77, 0
2, 211482, Note_on_c, 0, 77, 48
2, 211645, Note_on_c, 0, 82, 0
2, 211656, Note_on_c, 0, 82, 62
2, 211806, Note_on_c, 0, 81, 0
2, 211811, Note_on_c, 0, 81, 26
2, 211858, Note_on_c, 0, 80, 59
2, 211952, Note_on_c, 0, 80, 0
2, 211962, Note_on_c, 0, 80, 41
2, 212014, Note_on_c, 0, 80, 0
2, 212021, Note_on_c, 0, 80, 42
2, 212044, Note_on_c, 0, 67, 0
2, 212052, Note_on_c, 0, 77, 0
2, 212057, Note_on_c, 0, 77, 43
2, 212106, Note_on_c, 0, 82, 0
2, 212116, Note_on_c, 0, 82, 33
2, 212221, Note_on_c, 0, 82, 0
2, 212230, Note_on_c, 0, 82, 51
2, 212413, Note_on_c, 0, 80, 0
2, 212423, Note_on_c, 0, 80, 54
2, 212505, Note_on_c, 0, 82, 0
2, 212513, Note_on_c, 0, 82, 33
2, 212620, Note_on_c, 0, 77, 0
2, 212626, Note_on_c, 0, 77, 47
2, 212743, Note_on_c, 0, 77, 0
2, 212751, Note_on_c, 0, 77, 32
2, 212797, Note_on_c, 0, 82, 0
2, 212807, Note_on_c, 0, 82, 53
2, 212952, Note_on_c, 0, 78, 32
2, 212958, Note_on_c, 0, 78, 0
2, 212997, Note_on_c, 0, 80, 0
2, 213001, Note_on_c, 0, 80, 51
2, 213020, Note_on_c, 0, 77, 0
2, 213028, Note_on_c, 0, 77, 23
2, 213089, Note_on_c, 0, 82, 0
2, 213098, Note_on_c, 0, 82, 31
2, 213120, Note_on_c, 0, 48, 0
2, 213120, Note_on_c, 0, 60, 0
2, 213120, Note_on_c, 0, 69, 0
2, 213204, Note_on_c, 0, 77, 0
2, 213214, Note_on_c, 0, 77, 35
2, 213388, Note_on_c, 0, 82, 0
2, 213399, Note_on_c, 0, 82, 54
2, 213603, Note_on_c, 0, 80, 0
2, 213608, Note_on_c, 0, 80, 52
2, 213803, Note_on_c, 0, 77, 0
2, 213814, Note_on_c, 0, 77, 47
2, 213918, Note_on_c, 0, 80, 0
2, 213926, Note_on_c, 0, 80, 29
2, 213926, Note_on_c, 0, 77, 0
2, 213930, Note_on_c, 0, 77, 31
2, 214049, Note_on_c, 0, 82, 0
2, 214059, Note_on_c, 0, 82, 59
2, 214333, Note_on_c, 0, 80, 0
2, 214342, Note_on_c, 0, 80, 55
2, 214671, Note_on_c, 0, 77, 0
2, 214675, Note_on_c, 0, 77, 46
2, 215093, Note_on_c, 0, 82, 0
2, 215098, Note_on_c, 0, 82, 58
2, 215732, Note_on_c, 0, 94, 73
2, 216422, Note_on_c, 0, 81, 0
2, 216960, Note_on_c, 0, 77, 0
2, 216960, Note_on_c, 0, 80, 0
2, 217025, Note_on_c, 0, 55, 49
2, 217367, Note_on_c, 0, 82, 0
2, 217372, Note_on_c, 0, 82, 57
2, 217385, Note_on_c, 0, 63, 47
2, 217641, Note_on_c, 0, 87, 66
2, 217676, Note_on_c, 0, 70, 48
2, 217873, Note_on_c, 0, 94, 0
2, 217883, Note_on_c, 0, 94, 84
2, 218109, Note_on_c, 0, 92, 83
2, 218112, Note_on_c, 0, 56, 49
2, 218154, Control_c, 0, 64, 0
2, 218158, Control_c, 0, 64, 127
2, 218319, Note_on_c, 0, 94, 0
2, 218325, Note_on_c, 0, 94, 81
2, 218350, Note_on_c, 0, 63, 0
2, 218360, Note_on_c, 0, 63, 49
2, 218434, Note_on_c, 0, 91, 80
2, 218572, Note_on_c, 0, 72, 61
2, 218787, Note_on_c, 0, 82, 0
2, 218793, Note_on_c, 0, 82, 70
2, 218895, Note_on_c, 0, 91, 0
2, 218906, Note_on_c, 0, 91, 77
2, 218990, Note_on_c, 0, 72, 0
2, 218990, Note_on_c, 0, 82, 0
2, 218991, Note_on_c, 0, 56, 0
2, 218991, Note_on_c, 0, 94, 0
2, 218991, Note_on_c, 0, 70, 0
2, 218991, Note_on_c, 0, 87, 0
2, 218991, Note_on_c, 0, 55, 0
2, 218997, Control_c, 0, 64, 0
2, 219002, Note_on_c, 0, 92, 0
2, 219018, Note_on_c, 0, 63, 0
2, 219026, Note_on_c, 0, 58, 48
2, 219079, Control_c, 0, 64, 127
2, 219095, Note_on_c, 0, 91, 0
2, 219234, Note_on_c, 0, 82, 70
2, 219253, Note_on_c, 0, 65, 54
2, 219452, Note_on_c, 0, 87, 76
2, 219475, Note_on_c, 0, 70, 57
2, 219663, Note_on_c, 0, 82, 0
2, 219672, Note_on_c, 0, 82, 78
2, 219884, Note_on_c, 0, 86, 75
2, 219890, Note_on_c, 0, 60, 58
2, 219895, Control_c, 0, 64, 0
2, 219905, Note_on_c, 0, 58, 0
2, 219905, Note_on_c, 0, 70, 0
2, 219906, Note_on_c, 0, 87, 0
2, 219907, Note_on_c, 0, 65, 0
2, 219924, Note_on_c, 0, 82, 0
2, 219970, Control_c, 0, 64, 127
2, 220111, Note_on_c, 0, 67, 55
2, 220112, Note_on_c, 0, 82, 76
2, 220212, Note_on_c, 0, 87, 82
2, 220334, Note_on_c, 0, 72, 59
2, 220515, Note_on_c, 0, 67, 0
2, 220522, Note_on_c, 0, 67, 40
2, 220567, Note_on_c, 0, 89, 71
2, 220661, Note_on_c, 0, 87, 0
2, 220665, Note_on_c, 0, 87, 69
2, 220764, Note_on_c, 0, 72, 0
2, 220764, Note_on_c, 0, 86, 0
2, 220765, Note_on_c, 0, 67, 0
2, 220765, Note_on_c, 0, 82, 0
2, 220766, Note_on_c, 0, 60, 0
2, 220768, Control_c, 0, 64, 0
2, 220796, Note_on_c, 0, 55, 44
2, 220853, Control_c, 0, 64, 127
2, 221034, Note_on_c, 0, 82, 70
2, 221035, Note_on_c, 0, 63, 54
2, 221053, Note_on_c, 0, 89, 0
2, 221245, Note_on_c, 0, 87, 0
2, 221251, Note_on_c, 0, 87, 76
2, 221255, Note_on_c, 0, 70, 53
2, 221471, Note_on_c, 0, 94, 89
2, 221680, Note_on_c, 0, 87, 0
2, 221681, Note_on_c, 0, 70, 0
2, 221682, Note_on_c, 0, 55, 0
2, 221682, Note_on_c, 0, 82, 0
2, 221684, Note_on_c, 0, 63, 0
2, 221686, Control_c, 0, 64, 0
2, 221688, Note_on_c, 0, 92, 86
2, 221711, Note_on_c, 0, 56, 52
2, 221767, Control_c, 0, 64, 127
2, 221905, Note_on_c, 0, 94, 0
2, 221910, Note_on_c, 0, 94, 84
2, 221932, Note_on_c, 0, 63, 50
2, 222038, Note_on_c, 0, 91, 82
2, 222132, Note_on_c, 0, 72, 64
2, 222362, Note_on_c, 0, 82, 71
2, 222478, Note_on_c, 0, 89, 86
2, 222537, Note_on_c, 0, 94, 0
2, 222538, Note_on_c, 0, 56, 0
2, 222538, Note_on_c, 0, 92, 0
2, 222538, Note_on_c, 0, 72, 0
2, 222539, Note_on_c, 0, 82, 0
2, 222539, Note_on_c, 0, 63, 0
2, 222539, Note_on_c, 0, 91, 0
2, 222553, Control_c, 0, 64, 0
2, 222590, Note_on_c, 0, 58, 51
2, 222681, Control_c, 0, 64, 127
2, 222802, Note_on_c, 0, 65, 53
2, 222973, Note_on_c, 0, 65, 0
2, 222977, Note_on_c, 0, 65, 28
2, 223026, Note_on_c, 0, 70, 57
2, 223286, Note_on_c, 0, 77, 59
2, 223987, Note_on_c, 0, 58, 0
2, 223991, Note_on_c, 0, 58, 44
2, 224438, Note_on_c, 0, 43, 47
2, 224489, Note_on_c, 0, 58, 0
2, 224490, Note_on_c, 0, 65, 0
2, 224490, Note_on_c, 0, 77, 0
2, 224496, Note_on_c, 0, 89, 0
2, 224512, Control_c, 0, 64, 0
2, 224578, Control_c, 0, 64, 127
2, 224673, Note_on_c, 0, 58, 55
2, 224673, Note_on_c, 0, 51, 46
2, 224788, Note_on_c, 0, 62, 62
2, 224893, Note_on_c, 0, 55, 55
2, 224920, Note_on_c, 0, 63, 67
2, 225016, Note_on_c, 0, 58, 0
2, 225020, Note_on_c, 0, 58, 67
2, 225085, Control_c, 0, 64, 0
2, 225123, Note_on_c, 0, 63, 0
2, 225133, Note_on_c, 0, 63, 66
2, 225239, Note_on_c, 0, 63, 0
2, 225239, Note_on_c, 0, 70, 0
2, 225243, Note_on_c, 0, 70, 66
2, 225245, Note_on_c, 0, 63, 57
2, 225313, Note_on_c, 0, 44, 60
2, 225357, Note_on_c, 0, 68, 73
2, 225469, Note_on_c, 0, 70, 0
2, 225473, Note_on_c, 0, 70, 68
2, 225561, Note_on_c, 0, 51, 0
2, 225569, Note_on_c, 0, 68, 0
2, 225569, Note_on_c, 0, 51, 48
2, 225573, Note_on_c, 0, 68, 73
2, 225685, Note_on_c, 0, 67, 68
2, 225786, Note_on_c, 0, 65, 73
2, 225788, Note_on_c, 0, 56, 54
2, 225884, Note_on_c, 0, 67, 0
2, 225891, Note_on_c, 0, 67, 71
2, 225991, Note_on_c, 0, 65, 0
2, 225997, Note_on_c, 0, 65, 64
2, 226106, Note_on_c, 0, 63, 0
2, 226115, Note_on_c, 0, 63, 61
2, 226214, Note_on_c, 0, 65, 0
2, 226219, Note_on_c, 0, 46, 58
2, 226225, Note_on_c, 0, 65, 70
2, 226268, Control_c, 0, 64, 127
2, 226429, Note_on_c, 0, 65, 0
2, 226435, Note_on_c, 0, 53, 59
2, 226438, Note_on_c, 0, 65, 60
2, 226536, Note_on_c, 0, 70, 0
2, 226541, Note_on_c, 0, 70, 72
2, 226652, Note_on_c, 0, 58, 0
2, 226658, Note_on_c, 0, 75, 80
2, 226658, Note_on_c, 0, 58, 63
2, 226752, Note_on_c, 0, 65, 0
2, 226762, Note_on_c, 0, 65, 72
2, 226859, Note_on_c, 0, 70, 0
2, 226863, Note_on_c, 0, 70, 71
2, 226974, Note_on_c, 0, 75, 0
2, 226981, Note_on_c, 0, 75, 75
2, 227059, Note_on_c, 0, 48, 64
2, 227069, Control_c, 0, 64, 0
2, 227085, Note_on_c, 0, 74, 84
2, 227174, Note_on_c, 0, 75, 0
2, 227185, Note_on_c, 0, 75, 84
2, 227197, Control_c, 0, 64, 127
2, 227281, Note_on_c, 0, 55, 0
2, 227281, Note_on_c, 0, 74, 0
2, 227287, Note_on_c, 0, 74, 81
2, 227293, Note_on_c, 0, 55, 67
2, 227381, Note_on_c, 0, 70, 0
2, 227388, Note_on_c, 0, 70, 73
2, 227489, Note_on_c, 0, 74, 0
2, 227493, Note_on_c, 0, 74, 89
2, 227493, Note_on_c, 0, 60, 68
2, 227605, Note_on_c, 0, 77, 77
2, 227712, Note_on_c, 0, 86, 78
2, 227719, Control_c, 0, 64, 0
2, 227804, Note_on_c, 0, 62, 0
2, 227827, Note_on_c, 0, 53, 0
2, 227835, Note_on_c, 0, 82, 82
2, 227880, Note_on_c, 0, 43, 0
2, 227896, Note_on_c, 0, 68, 0
2, 227911, Note_on_c, 0, 65, 0
2, 227919, Note_on_c, 0, 60, 0
2, 227927, Note_on_c, 0, 56, 0
2, 227942, Note_on_c, 0, 46, 0
2, 227942, Note_on_c, 0, 67, 0
2, 227950, Note_on_c, 0, 43, 55
2, 227965, Note_on_c, 0, 44, 0
2, 227988, Note_on_c, 0, 70, 0
2, 227996, Note_on_c, 0, 48, 0
2, 227996, Note_on_c, 0, 63, 0
2, 228003, Note_on_c, 0, 74, 0
2, 228011, Note_on_c, 0, 51, 0
2, 228019, Note_on_c, 0, 58, 0
2, 228026, Control_c, 0, 64, 127
2, 228034, Note_on_c, 0, 75, 0
2, 228034, Note_on_c, 0, 77, 0
2, 228042, Note_on_c, 0, 86, 0
2, 228049, Note_on_c, 0, 55, 0
2, 228176, Note_on_c, 0, 70, 62
2, 228180, Note_on_c, 0, 51, 58
2, 228273, Note_on_c, 0, 74, 77
2, 228399, Note_on_c, 0, 75, 79
2, 228399, Note_on_c, 0, 55, 59
2, 228480, Note_on_c, 0, 70, 0
2, 228488, Note_on_c, 0, 70, 73
2, 228587, Note_on_c, 0, 75, 0
2, 228592, Note_on_c, 0, 75, 85
2, 228687, Note_on_c, 0, 82, 0
2, 228698, Note_on_c, 0, 82, 92
2, 228715, Note_on_c, 0, 75, 0
2, 228776, Note_on_c, 0, 70, 0
2, 228790, Note_on_c, 0, 55, 0
2, 228791, Control_c, 0, 64, 0
2, 228802, Note_on_c, 0, 43, 0
2, 228813, Note_on_c, 0, 80, 84
2, 228815, Note_on_c, 0, 44, 62
2, 228825, Control_c, 0, 64, 127
2, 228902, Note_on_c, 0, 82, 0
2, 228913, Note_on_c, 0, 82, 86
2, 229017, Note_on_c, 0, 80, 0
2, 229024, Note_on_c, 0, 80, 84
2, 229056, Note_on_c, 0, 51, 0
2, 229065, Note_on_c, 0, 51, 59
2, 229134, Note_on_c, 0, 79, 82
2, 229232, Note_on_c, 0, 51, 0
2, 229238, Control_c, 0, 64, 0
2, 229240, Note_on_c, 0, 51, 52
2, 229240, Note_on_c, 0, 77, 84
2, 229248, Note_on_c, 0, 44, 0
2, 229253, Note_on_c, 0, 56, 57
2, 229258, Note_on_c, 0, 44, 54
2, 229278, Control_c, 0, 64, 127
2, 229332, Note_on_c, 0, 79, 0
2, 229338, Note_on_c, 0, 79, 79
2, 229370, Note_on_c, 0, 77, 0
2, 229375, Note_on_c, 0, 77, 60
2, 229440, Note_on_c, 0, 77, 0
2, 229447, Note_on_c, 0, 77, 82
2, 229550, Note_on_c, 0, 75, 71
2, 229593, Note_on_c, 0, 77, 0
2, 229602, Note_on_c, 0, 77, 64
2, 229659, Note_on_c, 0, 46, 62
2, 229659, Note_on_c, 0, 56, 0
2, 229659, Note_on_c, 0, 75, 0
2, 229659, Note_on_c, 0, 79, 0
2, 229659, Note_on_c, 0, 44, 0
2, 229659, Note_on_c, 0, 82, 0
2, 229662, Control_c, 0, 64, 0
2, 229662, Note_on_c, 0, 74, 0
2, 229663, Note_on_c, 0, 80, 0
2, 229678, Note_on_c, 0, 51, 0
2, 229678, Note_on_c, 0, 77, 0
2, 229683, Note_on_c, 0, 77, 80
2, 229693, Control_c, 0, 64, 127
2, 229808, Note_on_c, 0, 77, 0
2, 229818, Note_on_c, 0, 77, 60
2, 229893, Note_on_c, 0, 77, 0
2, 229903, Note_on_c, 0, 77, 70
2, 229921, Note_on_c, 0, 53, 56
2, 230006, Note_on_c, 0, 82, 79
2, 230119, Note_on_c, 0, 87, 74
2, 230135, Note_on_c, 0, 70, 53
2, 230238, Note_on_c, 0, 77, 0
2, 230243, Note_on_c, 0, 77, 65
2, 230254, Note_on_c, 0, 46, 0
2, 230258, Note_on_c, 0, 46, 47
2, 230346, Note_on_c, 0, 82, 0
2, 230354, Note_on_c, 0, 82, 77
2, 230365, Note_on_c, 0, 65, 54
2, 230369, Note_on_c, 0, 77, 0
2, 230373, Note_on_c, 0, 77, 54
2, 230453, Note_on_c, 0, 87, 0
2, 230464, Note_on_c, 0, 87, 71
2, 230592, Note_on_c, 0, 70, 0
2, 230597, Note_on_c, 0, 94, 86
2, 230603, Note_on_c, 0, 70, 61
2, 230784, Note_on_c, 0, 82, 0
2, 230791, Note_on_c, 0, 82, 45
2, 231651, Note_on_c, 0, 82, 0
2, 231658, Note_on_c, 0, 82, 71
2, 231920, Note_on_c, 0, 82, 0
2, 231930, Note_on_c, 0, 82, 49
2, 232166, Note_on_c, 0, 82, 0
2, 232174, Note_on_c, 0, 82, 37
2, 232320, Note_on_c, 0, 46, 0
2, 232320, Note_on_c, 0, 53, 0
2, 232320, Note_on_c, 0, 65, 0
2, 232320, Note_on_c, 0, 77, 0
2, 232358, Note_on_c, 0, 82, 0
2, 232367, Note_on_c, 0, 82, 60
2, 232596, Note_on_c, 0, 82, 0
2, 232600, Note_on_c, 0, 82, 54
2, 233057, Note_on_c, 0, 82, 0
2, 233062, Note_on_c, 0, 82, 52
2, 233280, Note_on_c, 0, 82, 0
2, 233285, Note_on_c, 0, 82, 56
2, 233521, Note_on_c, 0, 87, 0
2, 233522, Note_on_c, 0, 94, 0
2, 233522, Note_on_c, 0, 70, 0
2, 233525, Note_on_c, 0, 82, 0
2, 233529, Control_c, 0, 64, 0
2, 233530, Note_on_c, 0, 44, 42
2, 233531, Note_on_c, 0, 82, 50
2, 233610, Control_c, 0, 64, 127
2, 233763, Note_on_c, 0, 82, 0
2, 233768, Note_on_c, 0, 82, 55
2, 233984, Note_on_c, 0, 75, 65
2, 234209, Note_on_c, 0, 75, 0
2, 234214, Note_on_c, 0, 75, 76
2, 234232, Note_on_c, 0, 68, 52
2, 234236, Note_on_c, 0, 60, 49
2, 234237, Note_on_c, 0, 63, 51
2, 234240, Note_on_c, 0, 82, 0
2, 234245, Note_on_c, 0, 82, 54
2, 234462, Note_on_c, 0, 82, 0
2, 234466, Note_on_c, 0, 82, 76
2, 234674, Note_on_c, 0, 56, 51
2, 234675, Note_on_c, 0, 70, 66
2, 234892, Note_on_c, 0, 68, 0
2, 234892, Note_on_c, 0, 75, 0
2, 234892, Note_on_c, 0, 82, 0
2, 234896, Note_on_c, 0, 82, 69
2, 234897, Note_on_c, 0, 68, 67
2, 234900, Note_on_c, 0, 60, 0
2, 234900, Note_on_c, 0, 63, 0
2, 234903, Note_on_c, 0, 75, 71
2, 234905, Note_on_c, 0, 63, 56
2, 234910, Note_on_c, 0, 60, 59
2, 235115, Note_on_c, 0, 70, 0
2, 235115, Note_on_c, 0, 82, 0
2, 235123, Note_on_c, 0, 70, 71
2, 235124, Note_on_c, 0, 82, 79
2, 235303, Note_on_c, 0, 68, 0
2, 235303, Note_on_c, 0, 56, 0
2, 235303, Note_on_c, 0, 70, 0
2, 235304, Note_on_c, 0, 63, 0
2, 235304, Note_on_c, 0, 75, 0
2, 235305, Control_c, 0, 64, 0
2, 235315, Note_on_c, 0, 60, 0
2, 235330, Note_on_c, 0, 44, 0
2, 235345, Note_on_c, 0, 82, 0
2, 235348, Note_on_c, 0, 46, 52
2, 235353, Note_on_c, 0, 82, 76
2, 235362, Note_on_c, 0, 75, 73
2, 235392, Control_c, 0, 64, 127
2, 235576, Note_on_c, 0, 77, 80
2, 235591, Note_on_c, 0, 82, 0
2, 235598, Note_on_c, 0, 82, 67
2, 235806, Note_on_c, 0, 82, 0
2, 235808, Note_on_c, 0, 79, 80
2, 235810, Note_on_c, 0, 82, 79
2, 236029, Note_on_c, 0, 75, 0
2, 236037, Note_on_c, 0, 75, 82
2, 236038, Note_on_c, 0, 70, 66
2, 236046, Note_on_c, 0, 65, 60
2, 236049, Note_on_c, 0, 62, 56
2, 236463, Note_on_c, 0, 58, 63
2, 236674, Note_on_c, 0, 70, 0
2, 236674, Note_on_c, 0, 82, 0
2, 236680, Note_on_c, 0, 82, 72
2, 236685, Note_on_c, 0, 70, 64
2, 236689, Note_on_c, 0, 62, 0
2, 236689, Note_on_c, 0, 65, 0
2, 236689, Note_on_c, 0, 77, 0
2, 236693, Note_on_c, 0, 65, 55
2, 236693, Note_on_c, 0, 77, 53
2, 236699, Note_on_c, 0, 62, 50
2, 236904, Note_on_c, 0, 82, 0
2, 236910, Note_on_c, 0, 82, 60
2, 237095, Note_on_c, 0, 79, 0
2, 237096, Note_on_c, 0, 70, 0
2, 237097, Note_on_c, 0, 62, 0
2, 237097, Note_on_c, 0, 65, 0
2, 237097, Note_on_c, 0, 75, 0
2, 237100, Control_c, 0, 64, 0
2, 237104, Note_on_c, 0, 46, 0
2, 237104, Note_on_c, 0, 58, 0
2, 237127, Note_on_c, 0, 82, 0
2, 237131, Note_on_c, 0, 48, 55
2, 237138, Note_on_c, 0, 82, 65
2, 237181, Control_c, 0, 64, 127
2, 237350, Note_on_c, 0, 82, 0
2, 237357, Note_on_c, 0, 82, 71
2, 237377, Note_on_c, 0, 60, 35
2, 237578, Note_on_c, 0, 75, 75
2, 237803, Note_on_c, 0, 75, 0
2, 237803, Note_on_c, 0, 82, 0
2, 237807, Note_on_c, 0, 82, 85
2, 237813, Note_on_c, 0, 75, 77
2, 237815, Note_on_c, 0, 79, 66
2, 237817, Note_on_c, 0, 70, 67
2, 237819, Note_on_c, 0, 67, 65
2, 237821, Note_on_c, 0, 63, 64
2, 237826, Note_on_c, 0, 79, 0
2, 238033, Note_on_c, 0, 82, 0
2, 238040, Note_on_c, 0, 82, 77
2, 238241, Note_on_c, 0, 70, 0
2, 238248, Note_on_c, 0, 48, 0
2, 238248, Note_on_c, 0, 60, 0
2, 238251, Note_on_c, 0, 70, 79
2, 238254, Note_on_c, 0, 48, 55
2, 238255, Note_on_c, 0, 60, 59
2, 238464, Note_on_c, 0, 75, 0
2, 238464, Note_on_c, 0, 82, 0
2, 238468, Note_on_c, 0, 82, 83
2, 238471, Note_on_c, 0, 63, 0
2, 238471, Note_on_c, 0, 67, 0
2, 238471, Note_on_c, 0, 70, 0
2, 238475, Note_on_c, 0, 79, 67
2, 238475, Note_on_c, 0, 75, 77
2, 238477, Note_on_c, 0, 70, 62
2, 238479, Note_on_c, 0, 79, 0
2, 238480, Note_on_c, 0, 67, 60
2, 238483, Note_on_c, 0, 63, 57
2, 238548, Note_on_c, 0, 77, 0
2, 238609, Note_on_c, 0, 67, 0
2, 238615, Note_on_c, 0, 67, 43
2, 238691, Note_on_c, 0, 77, 81
2, 238709, Note_on_c, 0, 82, 0
2, 238717, Note_on_c, 0, 82, 66
2, 238832, Note_on_c, 0, 77, 0
2, 238843, Note_on_c, 0, 77, 60
2, 238884, Note_on_c, 0, 67, 0
2, 238884, Control_c, 0, 64, 0
2, 238885, Note_on_c, 0, 70, 0
2, 238885, Note_on_c, 0, 75, 0
2, 238886, Note_on_c, 0, 60, 0
2, 238887, Note_on_c, 0, 48, 0
2, 238901, Note_on_c, 0, 63, 0
2, 238909, Note_on_c, 0, 82, 0
2, 238913, Note_on_c, 0, 80, 86
2, 238920, Note_on_c, 0, 82, 85
2, 238927, Note_on_c, 0, 43, 60
2, 238947, Note_on_c, 0, 77, 0
2, 238963, Control_c, 0, 64, 127
2, 239139, Note_on_c, 0, 82, 0
2, 239146, Note_on_c, 0, 82, 84
2, 239149, Note_on_c, 0, 79, 82
2, 239262, Note_on_c, 0, 79, 0
2, 239273, Note_on_c, 0, 79, 63
2, 239358, Note_on_c, 0, 77, 84
2, 239393, Note_on_c, 0, 82, 0
2, 239404, Note_on_c, 0, 82, 57
2, 239493, Note_on_c, 0, 77, 0
2, 239500, Note_on_c, 0, 77, 65
2, 239577, Note_on_c, 0, 82, 0
2, 239584, Note_on_c, 0, 82, 82
2, 239591, Note_on_c, 0, 75, 72
2, 239596, Note_on_c, 0, 67, 61
2, 239597, Note_on_c, 0, 63, 60
2, 239598, Note_on_c, 0, 58, 57
2, 239685, Note_on_c, 0, 75, 0
2, 239690, Note_on_c, 0, 75, 64
2, 239831, Note_on_c, 0, 82, 0
2, 239836, Note_on_c, 0, 82, 73
2, 240046, Note_on_c, 0, 67, 0
2, 240046, Note_on_c, 0, 75, 0
2, 240048, Note_on_c, 0, 55, 60
2, 240050, Note_on_c, 0, 75, 87
2, 240052, Note_on_c, 0, 67, 58
2, 240261, Note_on_c, 0, 82, 0
2, 240268, Note_on_c, 0, 79, 0
2, 240271, Note_on_c, 0, 82, 91
2, 240272, Note_on_c, 0, 74, 81
2, 240276, Note_on_c, 0, 58, 0
2, 240276, Note_on_c, 0, 63, 0
2, 240276, Note_on_c, 0, 67, 0
2, 240278, Note_on_c, 0, 79, 66
2, 240283, Note_on_c, 0, 63, 66
2, 240285, Note_on_c, 0, 67, 64
2, 240287, Note_on_c, 0, 58, 64
2, 240476, Note_on_c, 0, 75, 0
2, 240484, Note_on_c, 0, 75, 93
2, 240583, Note_on_c, 0, 75, 0
2, 240588, Note_on_c, 0, 75, 72
2, 240687, Note_on_c, 0, 80, 0
2, 240688, Note_on_c, 0, 55, 0
2, 240689, Note_on_c, 0, 79, 0
2, 240689, Note_on_c, 0, 67, 0
2, 240690, Note_on_c, 0, 75, 0
2, 240690, Note_on_c, 0, 43, 0
2, 240691, Note_on_c, 0, 74, 0
2, 240695, Control_c, 0, 64, 0
2, 240698, Note_on_c, 0, 63, 0
2, 240706, Note_on_c, 0, 58, 0
2, 240706, Note_on_c, 0, 77, 0
2, 240714, Note_on_c, 0, 82, 0
2, 240723, Note_on_c, 0, 82, 93
2, 240726, Note_on_c, 0, 44, 67
2, 240791, Control_c, 0, 64, 127
2, 240960, Note_on_c, 0, 82, 0
2, 240964, Note_on_c, 0, 82, 79
2, 241420, Note_on_c, 0, 82, 0
2, 241426, Note_on_c, 0, 75, 78
2, 241427, Note_on_c, 0, 68, 65
2, 241429, Note_on_c, 0, 63, 63
2, 241431, Note_on_c, 0, 82, 77
2, 241432, Note_on_c, 0, 60, 57
2, 241651, Note_on_c, 0, 82, 0
2, 241655, Note_on_c, 0, 82, 78
2, 241867, Note_on_c, 0, 56, 48
2, 242073, Note_on_c, 0, 82, 0
2, 242080, Note_on_c, 0, 82, 82
2, 242081, Note_on_c, 0, 68, 0
2, 242088, Note_on_c, 0, 60, 0
2, 242088, Note_on_c, 0, 63, 0
2, 242089, Note_on_c, 0, 68, 61
2, 242092, Note_on_c, 0, 74, 73
2, 242093, Note_on_c, 0, 63, 62
2, 242095, Note_on_c, 0, 60, 60
2, 242311, Note_on_c, 0, 82, 0
2, 242315, Note_on_c, 0, 77, 79
2, 242318, Note_on_c, 0, 82, 78
2, 242523, Note_on_c, 0, 68, 0
2, 242524, Note_on_c, 0, 56, 0
2, 242525, Note_on_c, 0, 60, 0
2, 242525, Note_on_c, 0, 63, 0
2, 242526, Note_on_c, 0, 75, 0
2, 242526, Note_on_c, 0, 74, 0
2, 242526, Note_on_c, 0, 44, 0
2, 242528, Control_c, 0, 64, 0
2, 242549, Note_on_c, 0, 77, 0
2, 242549, Note_on_c, 0, 82, 0
2, 242552, Note_on_c, 0, 46, 60
2, 242554, Note_on_c, 0, 82, 76
2, 242560, Note_on_c, 0, 77, 56
2, 242588, Control_c, 0, 64, 127
2, 242764, Note_on_c, 0, 82, 0
2, 242775, Note_on_c, 0, 82, 75
2, 243233, Note_on_c, 0, 82, 0
2, 243235, Note_on_c, 0, 65, 57
2, 243239, Note_on_c, 0, 82, 73
2, 243242, Note_on_c, 0, 70, 60
2, 243245, Note_on_c, 0, 62, 44
2, 243448, Note_on_c, 0, 82, 0
2, 243453, Note_on_c, 0, 82, 73
2, 243673, Note_on_c, 0, 75, 84
2, 243675, Note_on_c, 0, 58, 54
2, 243893, Note_on_c, 0, 46, 0
2, 243893, Note_on_c, 0, 65, 0
2, 243893, Note_on_c, 0, 82, 0
2, 243894, Note_on_c, 0, 74, 77
2, 243898, Note_on_c, 0, 82, 76
2, 243904, Note_on_c, 0, 65, 60
2, 243916, Note_on_c, 0, 62, 0
2, 243920, Note_on_c, 0, 62, 48
2, 244016, Note_on_c, 0, 74, 0
2, 244023, Note_on_c, 0, 74, 56
2, 244116, Note_on_c, 0, 70, 0
2, 244116, Note_on_c, 0, 75, 0
2, 244116, Note_on_c, 0, 82, 0
2, 244122, Note_on_c, 0, 70, 75
2, 244127, Note_on_c, 0, 82, 72
2, 244127, Note_on_c, 0, 75, 62
2, 244185, Note_on_c, 0, 74, 0
2, 244193, Note_on_c, 0, 74, 40
2, 244338, Note_on_c, 0, 58, 0
2, 244338, Control_c, 0, 64, 0
2, 244339, Note_on_c, 0, 62, 0
2, 244339, Note_on_c, 0, 70, 0
2, 244340, Note_on_c, 0, 75, 0
2, 244340, Note_on_c, 0, 74, 0
2, 244354, Note_on_c, 0, 65, 0
2, 244354, Note_on_c, 0, 77, 0
2, 244362, Note_on_c, 0, 82, 0
2, 244368, Note_on_c, 0, 48, 59
2, 244372, Note_on_c, 0, 82, 70
2, 244392, Control_c, 0, 64, 127
2, 244584, Note_on_c, 0, 82, 0
2, 244592, Note_on_c, 0, 82, 61
2, 245035, Note_on_c, 0, 70, 60
2, 245038, Note_on_c, 0, 82, 0
2, 245039, Note_on_c, 0, 67, 60
2, 245040, Note_on_c, 0, 63, 56
2, 245041, Note_on_c, 0, 60, 40
2, 245043, Note_on_c, 0, 82, 63
2, 245276, Note_on_c, 0, 82, 0
2, 245282, Note_on_c, 0, 82, 67
2, 245460, Note_on_c, 0, 60, 0
2, 245467, Note_on_c, 0, 60, 57
2, 245690, Note_on_c, 0, 70, 0
2, 245698, Note_on_c, 0, 82, 0
2, 245702, Note_on_c, 0, 70, 62
2, 245704, Note_on_c, 0, 82, 64
2, 245706, Note_on_c, 0, 63, 0
2, 245706, Note_on_c, 0, 67, 0
2, 245713, Note_on_c, 0, 67, 45
2, 245713, Note_on_c, 0, 79, 53
2, 245717, Note_on_c, 0, 63, 55
2, 245721, Note_on_c, 0, 79, 0
2, 245842, Note_on_c, 0, 60, 0
2, 245921, Note_on_c, 0, 82, 0
2, 245926, Note_on_c, 0, 82, 58
2, 246145, Note_on_c, 0, 67, 0
2, 246146, Note_on_c, 0, 48, 0
2, 246146, Note_on_c, 0, 70, 0
2, 246151, Note_on_c, 0, 82, 0
2, 246153, Control_c, 0, 64, 0
2, 246159, Note_on_c, 0, 63, 0
2, 246162, Note_on_c, 0, 82, 67
2, 246164, Note_on_c, 0, 43, 46
2, 246228, Control_c, 0, 64, 127
2, 246389, Note_on_c, 0, 82, 0
2, 246400, Note_on_c, 0, 82, 62
2, 246822, Note_on_c, 0, 67, 53
2, 246827, Note_on_c, 0, 82, 0
2, 246831, Note_on_c, 0, 63, 58
2, 246831, Note_on_c, 0, 58, 45
2, 246833, Note_on_c, 0, 82, 62
2, 247073, Note_on_c, 0, 82, 0
2, 247084, Note_on_c, 0, 82, 63
2, 247278, Note_on_c, 0, 55, 47
2, 247495, Note_on_c, 0, 58, 0
2, 247495, Note_on_c, 0, 67, 0
2, 247500, Note_on_c, 0, 67, 53
2, 247503, Note_on_c, 0, 82, 0
2, 247505, Note_on_c, 0, 58, 57
2, 247507, Note_on_c, 0, 82, 62
2, 247718, Note_on_c, 0, 82, 0
2, 247729, Note_on_c, 0, 82, 61
2, 247821, Note_on_c, 0, 55, 0
2, 247821, Note_on_c, 0, 67, 0
2, 247826, Note_on_c, 0, 43, 0
2, 247835, Note_on_c, 0, 44, 64
2, 247856, Control_c, 0, 64, 0
2, 247864, Note_on_c, 0, 63, 0
2, 247892, Note_on_c, 0, 51, 51
2, 247910, Control_c, 0, 64, 127
2, 247960, Note_on_c, 0, 75, 62
2, 248071, Note_on_c, 0, 75, 0
2, 248071, Note_on_c, 0, 82, 0
2, 248077, Note_on_c, 0, 82, 55
2, 248078, Note_on_c, 0, 75, 51
2, 248189, Note_on_c, 0, 87, 64
2, 248272, Note_on_c, 0, 94, 71
2, 248386, Note_on_c, 0, 94, 0
2, 248390, Note_on_c, 0, 94, 77
2, 248486, Note_on_c, 0, 87, 0
2, 248495, Note_on_c, 0, 87, 67
2, 248586, Note_on_c, 0, 58, 0
2, 248597, Note_on_c, 0, 58, 71
2, 248616, Note_on_c, 0, 82, 0
2, 248621, Note_on_c, 0, 82, 69
2, 248709, Note_on_c, 0, 75, 0
2, 248718, Note_on_c, 0, 75, 63
2, 248720, Note_on_c, 0, 62, 62
2, 248828, Note_on_c, 0, 63, 72
2, 248855, Note_on_c, 0, 75, 0
2, 248859, Note_on_c, 0, 75, 56
2, 248931, Note_on_c, 0, 82, 0
2, 248939, Note_on_c, 0, 58, 0
2, 248942, Note_on_c, 0, 82, 67
2, 248943, Note_on_c, 0, 58, 55
2, 248977, Note_on_c, 0, 75, 0
2, 248988, Note_on_c, 0, 75, 57
2, 249047, Note_on_c, 0, 62, 0
2, 249052, Note_on_c, 0, 62, 68
2, 249070, Note_on_c, 0, 87, 0
2, 249077, Note_on_c, 0, 87, 65
2, 249139, Note_on_c, 0, 63, 0
2, 249146, Note_on_c, 0, 94, 0
2, 249150, Note_on_c, 0, 63, 67
2, 249154, Note_on_c, 0, 94, 72
2, 249240, Note_on_c, 0, 65, 70
2, 249269, Note_on_c, 0, 94, 0
2, 249277, Note_on_c, 0, 94, 76
2, 249346, Note_on_c, 0, 63, 0
2, 249351, Note_on_c, 0, 63, 73
2, 249384, Note_on_c, 0, 65, 0
2, 249384, Note_on_c, 0, 87, 0
2, 249390, Note_on_c, 0, 87, 73
2, 249394, Note_on_c, 0, 65, 53
2, 249446, Note_on_c, 0, 62, 0
2, 249457, Note_on_c, 0, 62, 67
2, 249530, Note_on_c, 0, 82, 0
2, 249534, Note_on_c, 0, 82, 70
2, 249561, Note_on_c, 0, 63, 0
2, 249565, Note_on_c, 0, 63, 63
2, 249615, Note_on_c, 0, 75, 0
2, 249619, Note_on_c, 0, 75, 63
2, 249655, Note_on_c, 0, 87, 0
2, 249656, Note_on_c, 0, 51, 0
2, 249656, Note_on_c, 0, 82, 0
2, 249656, Note_on_c, 0, 63, 0
2, 249656, Note_on_c, 0, 44, 0
2, 249664, Control_c, 0, 64, 0
2, 249669, Note_on_c, 0, 58, 0
2, 249669, Note_on_c, 0, 65, 0
2, 249676, Note_on_c, 0, 62, 0
2, 249687, Note_on_c, 0, 46, 69
2, 249692, Note_on_c, 0, 94, 0
2, 249707, Control_c, 0, 64, 127
2, 249722, Note_on_c, 0, 75, 0
2, 249727, Note_on_c, 0, 75, 72
2, 249801, Note_on_c, 0, 53, 74
2, 249819, Note_on_c, 0, 82, 77
2, 249916, Note_on_c, 0, 58, 75
2, 249947, Note_on_c, 0, 87, 71
2, 250010, Note_on_c, 0, 63, 77
2, 250040, Note_on_c, 0, 94, 74
2, 250130, Note_on_c, 0, 65, 76
2, 250145, Note_on_c, 0, 94, 0
2, 250155, Note_on_c, 0, 94, 79
2, 250244, Note_on_c, 0, 67, 76
2, 250245, Note_on_c, 0, 87, 0
2, 250255, Note_on_c, 0, 87, 71
2, 250352, Note_on_c, 0, 63, 0
2, 250359, Note_on_c, 0, 63, 81
2, 250383, Note_on_c, 0, 82, 0
2, 250394, Note_on_c, 0, 82, 73
2, 250483, Note_on_c, 0, 63, 0
2, 250483, Note_on_c, 0, 75, 0
2, 250488, Note_on_c, 0, 75, 61
2, 250493, Note_on_c, 0, 63, 62
2, 250598, Note_on_c, 0, 75, 0
2, 250607, Note_on_c, 0, 75, 62
2, 250698, Note_on_c, 0, 75, 0
2, 250698, Note_on_c, 0, 82, 0
2, 250705, Note_on_c, 0, 82, 69
2, 250706, Note_on_c, 0, 75, 56
2, 250844, Note_on_c, 0, 87, 0
2, 250850, Note_on_c, 0, 87, 55
2, 250905, Note_on_c, 0, 94, 0
2, 250916, Note_on_c, 0, 94, 68
2, 251028, Note_on_c, 0, 94, 0
2, 251036, Note_on_c, 0, 58, 0
2, 251037, Note_on_c, 0, 94, 75
2, 251043, Note_on_c, 0, 58, 51
2, 251066, Note_on_c, 0, 87, 0
2, 251071, Note_on_c, 0, 87, 53
2, 251136, Note_on_c, 0, 87, 0
2, 251141, Note_on_c, 0, 87, 62
2, 251251, Note_on_c, 0, 82, 0
2, 251261, Note_on_c, 0, 82, 71
2, 251351, Note_on_c, 0, 75, 0
2, 251358, Note_on_c, 0, 75, 57
2, 251407, Note_on_c, 0, 53, 0
2, 251407, Control_c, 0, 64, 0
2, 251407, Note_on_c, 0, 65, 0
2, 251407, Note_on_c, 0, 46, 0
2, 251408, Note_on_c, 0, 63, 0
2, 251408, Note_on_c, 0, 48, 54
2, 251420, Note_on_c, 0, 67, 0
2, 251443, Control_c, 0, 64, 127
2, 251446, Note_on_c, 0, 55, 53
2, 251458, Note_on_c, 0, 58, 0
2, 251468, Note_on_c, 0, 58, 64
2, 251473, Note_on_c, 0, 75, 0
2, 251484, Note_on_c, 0, 75, 60
2, 251581, Note_on_c, 0, 75, 0
2, 251581, Note_on_c, 0, 82, 0
2, 251585, Note_on_c, 0, 82, 68
2, 251591, Note_on_c, 0, 75, 54
2, 251704, Note_on_c, 0, 87, 0
2, 251714, Note_on_c, 0, 87, 66
2, 251781, Note_on_c, 0, 94, 0
2, 251788, Note_on_c, 0, 94, 76
2, 251911, Note_on_c, 0, 94, 0
2, 251917, Note_on_c, 0, 94, 73
2, 252019, Note_on_c, 0, 87, 0
2, 252028, Note_on_c, 0, 87, 69
2, 252126, Note_on_c, 0, 58, 0
2, 252130, Note_on_c, 0, 58, 64
2, 252149, Note_on_c, 0, 82, 0
2, 252154, Note_on_c, 0, 82, 65
2, 252249, Note_on_c, 0, 75, 0
2, 252253, Note_on_c, 0, 62, 64
2, 252256, Note_on_c, 0, 75, 60
2, 252309, Note_on_c, 0, 70, 48
2, 252318, Note_on_c, 0, 70, 0
2, 252358, Note_on_c, 0, 63, 75
2, 252410, Note_on_c, 0, 75, 0
2, 252416, Note_on_c, 0, 75, 46
2, 252464, Note_on_c, 0, 58, 0
2, 252464, Note_on_c, 0, 82, 0
2, 252469, Note_on_c, 0, 58, 69
2, 252474, Note_on_c, 0, 82, 72
2, 252495, Note_on_c, 0, 75, 0
2, 252500, Note_on_c, 0, 75, 57
2, 252572, Note_on_c, 0, 62, 0
2, 252576, Note_on_c, 0, 62, 70
2, 252602, Note_on_c, 0, 87, 0
2, 252608, Note_on_c, 0, 87, 62
2, 252672, Note_on_c, 0, 63, 0
2, 252680, Note_on_c, 0, 63, 76
2, 252768, Note_on_c, 0, 65, 68
2, 252794, Note_on_c, 0, 94, 0
2, 252802, Note_on_c, 0, 63, 0
2, 252805, Note_on_c, 0, 94, 79
2, 252810, Note_on_c, 0, 63, 64
2, 252871, Note_on_c, 0, 63, 0
2, 252880, Note_on_c, 0, 63, 70
2, 252882, Note_on_c, 0, 75, 0
2, 252910, Note_on_c, 0, 87, 0
2, 252918, Note_on_c, 0, 87, 67
2, 252971, Note_on_c, 0, 62, 0
2, 252977, Note_on_c, 0, 62, 79
2, 253040, Note_on_c, 0, 82, 0
2, 253046, Note_on_c, 0, 82, 79
2, 253071, Note_on_c, 0, 63, 0
2, 253079, Note_on_c, 0, 63, 77
2, 253180, Note_on_c, 0, 48, 0
2, 253181, Note_on_c, 0, 65, 0
2, 253181, Note_on_c, 0, 55, 0
2, 253181, Note_on_c, 0, 62, 0
2, 253181, Note_on_c, 0, 58, 0
2, 253182, Note_on_c, 0, 87, 0
2, 253182, Note_on_c, 0, 82, 0
2, 253183, Note_on_c, 0, 63, 0
2, 253184, Control_c, 0, 64, 0
2, 253209, Note_on_c, 0, 94, 0
2, 253222, Note_on_c, 0, 43, 56
2, 253249, Note_on_c, 0, 75, 74
2, 253301, Control_c, 0, 64, 127
2, 253336, Note_on_c, 0, 51, 58
2, 253356, Note_on_c, 0, 82, 70
2, 253432, Note_on_c, 0, 58, 74
2, 253498, Note_on_c, 0, 87, 61
2, 253557, Note_on_c, 0, 63, 77
2, 253659, Note_on_c, 0, 68, 80
2, 253665, Note_on_c, 0, 80, 71
2, 253682, Note_on_c, 0, 94, 80
2, 253767, Note_on_c, 0, 67, 75
2, 253770, Note_on_c, 0, 87, 0
2, 253774, Note_on_c, 0, 87, 67
2, 253864, Note_on_c, 0, 65, 76
2, 253885, Note_on_c, 0, 82, 0
2, 253896, Note_on_c, 0, 82, 74
2, 253962, Note_on_c, 0, 63, 0
2, 253970, Note_on_c, 0, 63, 77
2, 254054, Note_on_c, 0, 75, 0
2, 254059, Note_on_c, 0, 75, 58
2, 254131, Note_on_c, 0, 75, 0
2, 254139, Note_on_c, 0, 75, 57
2, 254215, Note_on_c, 0, 82, 0
2, 254223, Note_on_c, 0, 82, 67
2, 254315, Note_on_c, 0, 87, 0
2, 254322, Note_on_c, 0, 87, 66
2, 254415, Note_on_c, 0, 94, 0
2, 254424, Note_on_c, 0, 94, 72
2, 254538, Note_on_c, 0, 58, 0
2, 254538, Note_on_c, 0, 94, 0
2, 254543, Note_on_c, 0, 94, 76
2, 254545, Note_on_c, 0, 87, 0
2, 254547, Note_on_c, 0, 58, 64
2, 254551, Note_on_c, 0, 87, 56
2, 254638, Note_on_c, 0, 87, 0
2, 254645, Note_on_c, 0, 87, 71
2, 254699, Note_on_c, 0, 58, 0
2, 254707, Note_on_c, 0, 58, 53
2, 254776, Note_on_c, 0, 82, 0
2, 254782, Note_on_c, 0, 82, 68
2, 254860, Note_on_c, 0, 75, 0
2, 254867, Note_on_c, 0, 75, 62
2, 254948, Note_on_c, 0, 68, 0
2, 254948, Note_on_c, 0, 67, 0
2, 254949, Note_on_c, 0, 82, 0
2, 254949, Note_on_c, 0, 94, 0
2, 254949, Note_on_c, 0, 65, 0
2, 254949, Note_on_c, 0, 87, 0
2, 254949, Note_on_c, 0, 58, 0
2, 254949, Note_on_c, 0, 51, 0
2, 254950, Note_on_c, 0, 75, 0
2, 254950, Control_c, 0, 64, 0
2, 254960, Note_on_c, 0, 63, 0
2, 254960, Note_on_c, 0, 80, 0
2, 254968, Note_on_c, 0, 43, 0
2, 254992, Note_on_c, 0, 44, 68
2, 255002, Note_on_c, 0, 75, 62
2, 255014, Control_c, 0, 64, 127
2, 255105, Note_on_c, 0, 82, 73
2, 255108, Note_on_c, 0, 51, 60
2, 255171, Note_on_c, 0, 58, 66
2, 255224, Note_on_c, 0, 87, 72
2, 255294, Note_on_c, 0, 62, 74
2, 255410, Note_on_c, 0, 63, 77
2, 255421, Note_on_c, 0, 94, 71
2, 255429, Note_on_c, 0, 94, 0
2, 255517, Note_on_c, 0, 65, 78
2, 255528, Note_on_c, 0, 87, 0
2, 255538, Note_on_c, 0, 87, 62
2, 255640, Note_on_c, 0, 70, 87
2, 255667, Note_on_c, 0, 65, 0
2, 255667, Note_on_c, 0, 82, 0
2, 255675, Note_on_c, 0, 65, 61
2, 255678, Note_on_c, 0, 82, 73
2, 255905, Note_on_c, 0, 75, 0
2, 255905, Note_on_c, 0, 87, 0
2, 255910, Note_on_c, 0, 87, 56
2, 255912, Note_on_c, 0, 75, 58
2, 255982, Note_on_c, 0, 82, 0
2, 255986, Note_on_c, 0, 82, 72
2, 256089, Note_on_c, 0, 63, 0
2, 256094, Note_on_c, 0, 63, 71
2, 256104, Note_on_c, 0, 87, 0
2, 256109, Note_on_c, 0, 87, 72
2, 256200, Note_on_c, 0, 94, 74
2, 256320, Note_on_c, 0, 58, 0
2, 256320, Note_on_c, 0, 94, 0
2, 256331, Note_on_c, 0, 94, 80
2, 256331, Note_on_c, 0, 58, 65
2, 256427, Note_on_c, 0, 87, 0
2, 256438, Note_on_c, 0, 87, 67
2, 256565, Note_on_c, 0, 82, 0
2, 256569, Note_on_c, 0, 82, 67
2, 256761, Note_on_c, 0, 51, 0
2, 256761, Note_on_c, 0, 65, 0
2, 256762, Note_on_c, 0, 62, 0
2, 256762, Control_c, 0, 64, 0
2, 256762, Note_on_c, 0, 63, 0
2, 256763, Note_on_c, 0, 82, 0
2, 256763, Note_on_c, 0, 70, 0
2, 256763, Note_on_c, 0, 58, 0
2, 256772, Note_on_c, 0, 46, 66
2, 256773, Note_on_c, 0, 44, 0
2, 256780, Note_on_c, 0, 94, 0
2, 256788, Note_on_c, 0, 75, 0
2, 256788, Note_on_c, 0, 87, 0
2, 256794, Note_on_c, 0, 75, 65
2, 256796, Control_c, 0, 64, 127
2, 256892, Note_on_c, 0, 53, 64
2, 256898, Note_on_c, 0, 82, 72
2, 256996, Note_on_c, 0, 58, 70
2, 257015, Note_on_c, 0, 87, 67
2, 257077, Note_on_c, 0, 60, 72
2, 257114, Note_on_c, 0, 94, 75
2, 257196, Note_on_c, 0, 62, 78
2, 257210, Note_on_c, 0, 94, 0
2, 257221, Note_on_c, 0, 94, 72
2, 257305, Note_on_c, 0, 63, 78
2, 257318, Note_on_c, 0, 87, 0
2, 257324, Note_on_c, 0, 87, 69
2, 257434, Note_on_c, 0, 65, 84
2, 257456, Note_on_c, 0, 82, 0
2, 257461, Note_on_c, 0, 82, 70
2, 257556, Note_on_c, 0, 75, 0
2, 257562, Note_on_c, 0, 75, 68
2, 257671, Note_on_c, 0, 75, 0
2, 257675, Note_on_c, 0, 75, 59
2, 257794, Note_on_c, 0, 82, 0
2, 257803, Note_on_c, 0, 82, 70
2, 257871, Note_on_c, 0, 58, 0
2, 257875, Note_on_c, 0, 58, 54
2, 257925, Note_on_c, 0, 87, 0
2, 257931, Note_on_c, 0, 87, 62
2, 258017, Note_on_c, 0, 94, 0
2, 258021, Note_on_c, 0, 94, 69
2, 258044, Note_on_c, 0, 53, 0
2, 258047, Note_on_c, 0, 65, 0
2, 258049, Note_on_c, 0, 82, 0
2, 258049, Note_on_c, 0, 62, 0
2, 258052, Control_c, 0, 64, 0
2, 258053, Note_on_c, 0, 75, 0
2, 258053, Note_on_c, 0, 63, 0
2, 258078, Note_on_c, 0, 60, 0
2, 258117, Note_on_c, 0, 46, 0
2, 258122, Note_on_c, 0, 46, 57
2, 258124, Note_on_c, 0, 94, 0
2, 258132, Note_on_c, 0, 94, 72
2, 258155, Control_c, 0, 64, 127
2, 258416, Note_on_c, 0, 87, 0
2, 258554, Note_on_c, 0, 94, 0
2, 258557, Note_on_c, 0, 46, 0
2, 258560, Control_c, 0, 64, 0
2, 258562, Note_on_c, 0, 58, 0
2, 258595, Note_on_c, 0, 48, 55
2, 258677, Control_c, 0, 64, 127
2, 258720, Note_on_c, 0, 55, 62
2, 258819, Note_on_c, 0, 60, 62
2, 258918, Note_on_c, 0, 62, 72
2, 259028, Note_on_c, 0, 63, 65
2, 259114, Note_on_c, 0, 65, 66
2, 259233, Control_c, 0, 64, 0
2, 259234, Note_on_c, 0, 72, 81
2, 259238, Note_on_c, 0, 60, 0
2, 259238, Note_on_c, 0, 62, 0
2, 259239, Note_on_c, 0, 55, 0
2, 259240, Note_on_c, 0, 63, 0
2, 259240, Note_on_c, 0, 65, 0
2, 259253, Note_on_c, 0, 48, 0
2, 259258, Note_on_c, 0, 46, 63
2, 259330, Control_c, 0, 64, 127
2, 259475, Note_on_c, 0, 53, 63
2, 259604, Note_on_c, 0, 58, 66
2, 259690, Note_on_c, 0, 70, 81
2, 259699, Control_c, 0, 64, 0
2, 259704, Note_on_c, 0, 60, 65
2, 259730, Note_on_c, 0, 46, 0
2, 259731, Note_on_c, 0, 72, 0
2, 259783, Control_c, 0, 64, 127
2, 259814, Note_on_c, 0, 62, 68
2, 259914, Note_on_c, 0, 58, 0
2, 259927, Note_on_c, 0, 63, 68
2, 259968, Note_on_c, 0, 60, 0
2, 260032, Note_on_c, 0, 68, 75
2, 260040, Note_on_c, 0, 65, 64
2, 260083, Note_on_c, 0, 62, 0
2, 260084, Note_on_c, 0, 68, 0
2, 260086, Note_on_c, 0, 70, 0
2, 260088, Note_on_c, 0, 63, 0
2, 260096, Note_on_c, 0, 65, 0
2, 260098, Note_on_c, 0, 53, 0
2, 260116, Control_c, 0, 64, 0
2, 260134, Note_on_c, 0, 67, 74
2, 260198, Control_c, 0, 64, 127
2, 260236, Control_c, 0, 64, 0
2, 260241, Note_on_c, 0, 67, 0
2, 260246, Note_on_c, 0, 68, 78
2, 260354, Note_on_c, 0, 67, 80
2, 260368, Note_on_c, 0, 44, 69
2, 260428, Note_on_c, 0, 68, 0
2, 260482, Control_c, 0, 64, 127
2, 260495, Note_on_c, 0, 51, 61
2, 260574, Note_on_c, 0, 67, 0
2, 260579, Note_on_c, 0, 67, 63
2, 260586, Note_on_c, 0, 56, 69
2, 260709, Note_on_c, 0, 58, 60
2, 260806, Note_on_c, 0, 60, 64
2, 260912, Note_on_c, 0, 62, 59
2, 261005, Note_on_c, 0, 58, 0
2, 261006, Note_on_c, 0, 56, 0
2, 261007, Note_on_c, 0, 51, 0
2, 261007, Note_on_c, 0, 62, 0
2, 261007, Note_on_c, 0, 44, 0
2, 261007, Note_on_c, 0, 67, 0
2, 261007, Note_on_c, 0, 60, 0
2, 261017, Control_c, 0, 64, 0
2, 261027, Note_on_c, 0, 68, 82
2, 261036, Note_on_c, 0, 43, 55
2, 261150, Control_c, 0, 64, 127
2, 261261, Note_on_c, 0, 51, 65
2, 261355, Note_on_c, 0, 55, 63
2, 261461, Note_on_c, 0, 67, 78
2, 261461, Note_on_c, 0, 56, 67
2, 261587, Note_on_c, 0, 58, 69
2, 261653, Note_on_c, 0, 67, 0
2, 261665, Note_on_c, 0, 43, 0
2, 261665, Control_c, 0, 64, 0
2, 261685, Note_on_c, 0, 56, 0
2, 261689, Note_on_c, 0, 60, 63
2, 261734, Note_on_c, 0, 68, 0
2, 261780, Note_on_c, 0, 51, 0
2, 261788, Note_on_c, 0, 58, 0
2, 261794, Note_on_c, 0, 65, 82
2, 261799, Note_on_c, 0, 62, 67
2, 261803, Note_on_c, 0, 55, 0
2, 261838, Note_on_c, 0, 62, 0
2, 261841, Note_on_c, 0, 60, 0
2, 261913, Note_on_c, 0, 63, 78
2, 262003, Note_on_c, 0, 65, 0
2, 262014, Note_on_c, 0, 65, 71
2, 262019, Note_on_c, 0, 63, 0
2, 262135, Note_on_c, 0, 63, 80
2, 262144, Note_on_c, 0, 41, 64
2, 262164, Note_on_c, 0, 65, 0
2, 262295, Control_c, 0, 64, 127
2, 262369, Note_on_c, 0, 51, 53
2, 262474, Note_on_c, 0, 56, 54
2, 262584, Note_on_c, 0, 58, 55
2, 262703, Note_on_c, 0, 60, 58
2, 262792, Note_on_c, 0, 62, 66
2, 262909, Note_on_c, 0, 63, 0
2, 262915, Note_on_c, 0, 63, 73
2, 263015, Note_on_c, 0, 65, 68
2, 263113, Note_on_c, 0, 67, 72
2, 263227, Note_on_c, 0, 68, 71
2, 263335, Note_on_c, 0, 70, 73
2, 263377, Note_on_c, 0, 62, 0
2, 263442, Note_on_c, 0, 72, 75
2, 263508, Note_on_c, 0, 65, 0
2, 263516, Note_on_c, 0, 63, 0
2, 263516, Note_on_c, 0, 67, 0
2, 263538, Note_on_c, 0, 74, 73
2, 263539, Note_on_c, 0, 60, 0
2, 263585, Note_on_c, 0, 56, 0
2, 263592, Note_on_c, 0, 68, 0
2, 263623, Note_on_c, 0, 72, 0
2, 263654, Note_on_c, 0, 75, 81
2, 263776, Note_on_c, 0, 77, 76
2, 263777, Note_on_c, 0, 51, 0
2, 263777, Note_on_c, 0, 70, 0
2, 263831, Note_on_c, 0, 58, 0
2, 263854, Note_on_c, 0, 41, 0
2, 263869, Note_on_c, 0, 75, 0
2, 263900, Note_on_c, 0, 74, 0
2, 263907, Note_on_c, 0, 79, 82
2, 263915, Note_on_c, 0, 46, 54
2, 263927, Note_on_c, 0, 77, 0
2, 263935, Note_on_c, 0, 75, 63
2, 263941, Note_on_c, 0, 71, 60
2, 263969, Control_c, 0, 64, 0
2, 264053, Control_c, 0, 64, 127
2, 264128, Note_on_c, 0, 53, 55
2, 264349, Note_on_c, 0, 56, 52
2, 264608, Note_on_c, 0, 77, 71
2, 264619, Note_on_c, 0, 58, 41
2, 264632, Note_on_c, 0, 70, 39
2, 264652, Note_on_c, 0, 71, 0
2, 264683, Note_on_c, 0, 79, 0
2, 264744, Note_on_c, 0, 75, 0
2, 264883, Note_on_c, 0, 46, 0
2, 265359, Note_on_c, 0, 65, 54
2, 265850, Note_on_c, 0, 92, 81
2, 265873, Note_on_c, 0, 58, 0
2, 265877, Note_on_c, 0, 80, 57
2, 265883, Note_on_c, 0, 58, 52
2, 265900, Control_c, 0, 64, 0
2, 265927, Note_on_c, 0, 77, 0
2, 265958, Control_c, 0, 64, 127
2, 266012, Note_on_c, 0, 56, 0
2, 266352, Note_on_c, 0, 91, 73
2, 266371, Note_on_c, 0, 79, 61
2, 266396, Note_on_c, 0, 53, 0
2, 266852, Note_on_c, 0, 87, 72
2, 266868, Note_on_c, 0, 75, 54
2, 266869, Note_on_c, 0, 72, 38
2, 266880, Note_on_c, 0, 72, 0
2, 266894, Control_c, 0, 64, 0
2, 266933, Control_c, 0, 64, 127
2, 266987, Note_on_c, 0, 70, 0
2, 267064, Note_on_c, 0, 79, 0
2, 267431, Note_on_c, 0, 89, 64
2, 267441, Note_on_c, 0, 77, 57
2, 268135, Note_on_c, 0, 56, 46
2, 268136, Note_on_c, 0, 94, 73
2, 268139, Note_on_c, 0, 87, 0
2, 268139, Note_on_c, 0, 91, 0
2, 268143, Note_on_c, 0, 82, 57
2, 268148, Note_on_c, 0, 87, 56
2, 268149, Note_on_c, 0, 70, 49
2, 268154, Note_on_c, 0, 66, 42
2, 268159, Note_on_c, 0, 63, 47
2, 268162, Note_on_c, 0, 66, 0
2, 268172, Control_c, 0, 64, 0
2, 268208, Control_c, 0, 64, 127
2, 268270, Note_on_c, 0, 80, 0
2, 268293, Note_on_c, 0, 65, 0
2, 268408, Note_on_c, 0, 87, 0
2, 268412, Note_on_c, 0, 87, 54
2, 268823, Note_on_c, 0, 87, 0
2, 268832, Note_on_c, 0, 87, 53
2, 268861, Note_on_c, 0, 58, 0
2, 268861, Note_on_c, 0, 70, 0
2, 268861, Note_on_c, 0, 77, 0
2, 268865, Note_on_c, 0, 70, 39
2, 268866, Note_on_c, 0, 77, 37
2, 268870, Note_on_c, 0, 65, 43
2, 268872, Note_on_c, 0, 58, 46
2, 268892, Control_c, 0, 64, 0
2, 268915, Control_c, 0, 64, 127
2, 268976, Note_on_c, 0, 56, 0
2, 269007, Note_on_c, 0, 92, 0
2, 269084, Note_on_c, 0, 87, 0
2, 269089, Note_on_c, 0, 87, 53
2, 269091, Note_on_c, 0, 63, 0
2, 269091, Note_on_c, 0, 75, 0
2, 269160, Note_on_c, 0, 82, 0
2, 269199, Note_on_c, 0, 89, 0
2, 269314, Note_on_c, 0, 87, 0
2, 269322, Note_on_c, 0, 87, 60
2, 269537, Note_on_c, 0, 65, 0
2, 269537, Note_on_c, 0, 70, 0
2, 269537, Note_on_c, 0, 87, 0
2, 269539, Note_on_c, 0, 74, 60
2, 269547, Note_on_c, 0, 87, 59
2, 269547, Note_on_c, 0, 65, 54
2, 269547, Note_on_c, 0, 70, 57
2, 269752, Note_on_c, 0, 87, 0
2, 269761, Note_on_c, 0, 87, 72
2, 269948, Note_on_c, 0, 65, 0
2, 269952, Note_on_c, 0, 94, 0
2, 269958, Control_c, 0, 64, 0
2, 269975, Note_on_c, 0, 77, 0
2, 269982, Note_on_c, 0, 70, 0
2, 269982, Note_on_c, 0, 74, 0
2, 269982, Note_on_c, 0, 87, 0
2, 269982, Control_c, 0, 64, 127
2, 269987, Note_on_c, 0, 67, 55
2, 269991, Note_on_c, 0, 60, 60
2, 269993, Note_on_c, 0, 70, 60
2, 269994, Note_on_c, 0, 87, 65
2, 270074, Note_on_c, 0, 58, 0
2, 270201, Note_on_c, 0, 99, 85
2, 270220, Note_on_c, 0, 87, 0
2, 270232, Note_on_c, 0, 87, 63
2, 270434, Note_on_c, 0, 98, 84
2, 270436, Note_on_c, 0, 86, 82
2, 270662, Note_on_c, 0, 94, 86
2, 270670, Control_c, 0, 64, 0
2, 270673, Note_on_c, 0, 70, 0
2, 270673, Note_on_c, 0, 87, 0
2, 270678, Note_on_c, 0, 70, 68
2, 270681, Note_on_c, 0, 67, 0
2, 270683, Note_on_c, 0, 82, 72
2, 270684, Note_on_c, 0, 87, 69
2, 270685, Note_on_c, 0, 67, 55
2, 270691, Note_on_c, 0, 63, 61
2, 270692, Note_on_c, 0, 55, 58
2, 270696, Control_c, 0, 64, 127
2, 270750, Note_on_c, 0, 60, 0
2, 270912, Note_on_c, 0, 87, 0
2, 270916, Note_on_c, 0, 87, 64
2, 270973, Note_on_c, 0, 98, 0
2, 271127, Note_on_c, 0, 87, 0
2, 271130, Note_on_c, 0, 92, 83
2, 271137, Note_on_c, 0, 80, 73
2, 271138, Note_on_c, 0, 87, 66
2, 271142, Note_on_c, 0, 82, 0
2, 271148, Note_on_c, 0, 82, 58
2, 271357, Note_on_c, 0, 67, 0
2, 271357, Note_on_c, 0, 70, 0
2, 271360, Note_on_c, 0, 91, 84
2, 271360, Note_on_c, 0, 75, 67
2, 271361, Note_on_c, 0, 67, 62
2, 271362, Note_on_c, 0, 79, 78
2, 271363, Note_on_c, 0, 70, 61
2, 271557, Note_on_c, 0, 80, 0
2, 271557, Note_on_c, 0, 92, 0
2, 271564, Note_on_c, 0, 92, 87
2, 271564, Note_on_c, 0, 87, 0
2, 271566, Note_on_c, 0, 80, 82
2, 271571, Note_on_c, 0, 87, 68
2, 271587, Note_on_c, 0, 91, 0
2, 271597, Note_on_c, 0, 91, 70
2, 271787, Note_on_c, 0, 94, 0
2, 271795, Note_on_c, 0, 82, 0
2, 271797, Note_on_c, 0, 94, 93
2, 271801, Control_c, 0, 64, 0
2, 271802, Note_on_c, 0, 63, 0
2, 271802, Note_on_c, 0, 70, 0
2, 271802, Note_on_c, 0, 86, 0
2, 271802, Note_on_c, 0, 87, 0
2, 271804, Note_on_c, 0, 82, 80
2, 271807, Note_on_c, 0, 55, 0
2, 271807, Note_on_c, 0, 56, 56
2, 271807, Note_on_c, 0, 87, 74
2, 271809, Note_on_c, 0, 68, 64
2, 271812, Note_on_c, 0, 70, 67
2, 271814, Note_on_c, 0, 63, 61
2, 271818, Note_on_c, 0, 68, 0
2, 271872, Control_c, 0, 64, 127
2, 272025, Note_on_c, 0, 87, 0
2, 272030, Note_on_c, 0, 87, 66
2, 272033, Note_on_c, 0, 82, 0
2, 272038, Note_on_c, 0, 82, 59
2, 272232, Note_on_c, 0, 87, 0
2, 272238, Note_on_c, 0, 87, 77
2, 272248, Note_on_c, 0, 75, 0
2, 272252, Note_on_c, 0, 75, 67
2, 272455, Note_on_c, 0, 87, 0
2, 272460, Note_on_c, 0, 87, 80
2, 272463, Note_on_c, 0, 70, 0
2, 272471, Note_on_c, 0, 75, 0
2, 272472, Note_on_c, 0, 99, 0
2, 272473, Note_on_c, 0, 82, 0
2, 272474, Note_on_c, 0, 56, 0
2, 272474, Control_c, 0, 64, 0
2, 272474, Note_on_c, 0, 70, 58
2, 272474, Note_on_c, 0, 63, 0
2, 272474, Note_on_c, 0, 67, 0
2, 272474, Note_on_c, 0, 79, 0
2, 272478, Note_on_c, 0, 80, 0
2, 272478, Note_on_c, 0, 75, 68
2, 272486, Note_on_c, 0, 91, 0
2, 272489, Note_on_c, 0, 65, 53
2, 272492, Note_on_c, 0, 58, 50
2, 272494, Note_on_c, 0, 92, 0
2, 272494, Note_on_c, 0, 94, 0
2, 272563, Control_c, 0, 64, 127
2, 272686, Note_on_c, 0, 75, 0
2, 272686, Note_on_c, 0, 87, 0
2, 272691, Note_on_c, 0, 87, 71
2, 272695, Note_on_c, 0, 75, 49
2, 272908, Note_on_c, 0, 87, 0
2, 272913, Note_on_c, 0, 87, 72
2, 273130, Note_on_c, 0, 74, 60
2, 273139, Note_on_c, 0, 65, 0
2, 273139, Note_on_c, 0, 70, 0
2, 273139, Note_on_c, 0, 87, 0
2, 273144, Note_on_c, 0, 70, 59
2, 273146, Note_on_c, 0, 65, 48
2, 273150, Note_on_c, 0, 87, 62
2, 273152, Note_on_c, 0, 77, 49
2, 273338, Note_on_c, 0, 87, 0
2, 273344, Note_on_c, 0, 87, 73
2, 273537, Note_on_c, 0, 65, 0
2, 273538, Note_on_c, 0, 58, 0
2, 273538, Note_on_c, 0, 74, 0
2, 273538, Note_on_c, 0, 77, 0
2, 273543, Control_c, 0, 64, 0
2, 273561, Note_on_c, 0, 70, 0
2, 273561, Note_on_c, 0, 75, 0
2, 273565, Note_on_c, 0, 60, 59
2, 273566, Note_on_c, 0, 67, 55
2, 273569, Note_on_c, 0, 87, 0
2, 273572, Note_on_c, 0, 75, 52
2, 273573, Note_on_c, 0, 70, 61
2, 273573, Note_on_c, 0, 87, 57
2, 273600, Control_c, 0, 64, 127
2, 273792, Note_on_c, 0, 87, 0
2, 273799, Note_on_c, 0, 75, 0
2, 273802, Note_on_c, 0, 87, 78
2, 273806, Note_on_c, 0, 75, 69
2, 274026, Note_on_c, 0, 89, 88
2, 274039, Note_on_c, 0, 77, 67
2, 274218, Note_on_c, 0, 89, 0
2, 274218, Note_on_c, 0, 77, 0
2, 274218, Note_on_c, 0, 60, 0
2, 274218, Note_on_c, 0, 70, 0
2, 274219, Note_on_c, 0, 67, 0
2, 274220, Note_on_c, 0, 75, 0
2, 274223, Control_c, 0, 64, 0
2, 274245, Note_on_c, 0, 87, 0
2, 274248, Note_on_c, 0, 91, 90
2, 274256, Note_on_c, 0, 87, 68
2, 274263, Note_on_c, 0, 79, 72
2, 274264, Note_on_c, 0, 67, 56
2, 274267, Note_on_c, 0, 70, 59
2, 274270, Note_on_c, 0, 55, 55
2, 274271, Note_on_c, 0, 63, 62
2, 274273, Note_on_c, 0, 58, 45
2, 274291, Control_c, 0, 64, 127
2, 274483, Note_on_c, 0, 87, 0
2, 274483, Note_on_c, 0, 91, 0
2, 274493, Note_on_c, 0, 91, 61
2, 274493, Note_on_c, 0, 87, 63
2, 274495, Note_on_c, 0, 89, 60
2, 274705, Note_on_c, 0, 87, 0
2, 274710, Note_on_c, 0, 87, 66
2, 274905, Note_on_c, 0, 70, 0
2, 274913, Note_on_c, 0, 67, 0
2, 274913, Note_on_c, 0, 87, 0
2, 274916, Note_on_c, 0, 70, 63
2, 274917, Note_on_c, 0, 75, 69
2, 274921, Note_on_c, 0, 87, 70
2, 274922, Note_on_c, 0, 67, 58
2, 275036, Note_on_c, 0, 75, 0
2, 275040, Note_on_c, 0, 75, 51
2, 275143, Note_on_c, 0, 87, 0
2, 275154, Note_on_c, 0, 87, 65
2, 275338, Note_on_c, 0, 55, 0
2, 275339, Note_on_c, 0, 89, 0
2, 275339, Note_on_c, 0, 79, 0
2, 275339, Note_on_c, 0, 91, 0
2, 275346, Control_c, 0, 64, 0
2, 275351, Note_on_c, 0, 58, 0
2, 275351, Note_on_c, 0, 70, 0
2, 275358, Note_on_c, 0, 67, 0
2, 275358, Note_on_c, 0, 75, 0
2, 275361, Note_on_c, 0, 56, 46
2, 275361, Note_on_c, 0, 70, 52
2, 275366, Note_on_c, 0, 63, 0
2, 275366, Note_on_c, 0, 67, 43
2, 275368, Note_on_c, 0, 75, 50
2, 275371, Note_on_c, 0, 63, 56
2, 275420, Control_c, 0, 64, 127
2, 275504, Note_on_c, 0, 67, 0
2, 275573, Note_on_c, 0, 70, 0
2, 275585, Note_on_c, 0, 70, 54
2, 275796, Note_on_c, 0, 87, 0
2, 275807, Note_on_c, 0, 87, 80
2, 275811, Note_on_c, 0, 70, 0
2, 275811, Note_on_c, 0, 75, 0
2, 275822, Note_on_c, 0, 70, 63
2, 275822, Note_on_c, 0, 75, 70
2, 276023, Note_on_c, 0, 56, 0
2, 276024, Control_c, 0, 64, 0
2, 276025, Note_on_c, 0, 63, 0
2, 276028, Note_on_c, 0, 75, 0
2, 276029, Note_on_c, 0, 87, 0
2, 276052, Note_on_c, 0, 82, 78
2, 276057, Note_on_c, 0, 70, 0
2, 276061, Note_on_c, 0, 58, 48
2, 276064, Note_on_c, 0, 70, 50
2, 276067, Note_on_c, 0, 65, 47
2, 276096, Control_c, 0, 64, 127
2, 276257, Note_on_c, 0, 70, 0
2, 276262, Note_on_c, 0, 70, 56
2, 276485, Note_on_c, 0, 87, 83
2, 276487, Note_on_c, 0, 70, 0
2, 276492, Note_on_c, 0, 70, 62
2, 276496, Note_on_c, 0, 75, 76
2, 276661, Note_on_c, 0, 58, 0
2, 276662, Note_on_c, 0, 65, 0
2, 276666, Note_on_c, 0, 87, 0
2, 276666, Note_on_c, 0, 75, 0
2, 276667, Note_on_c, 0, 82, 0
2, 276696, Control_c, 0, 64, 0
2, 276702, Note_on_c, 0, 70, 0
2, 276713, Note_on_c, 0, 70, 62
2, 276719, Note_on_c, 0, 65, 51
2, 276722, Note_on_c, 0, 82, 75
2, 276725, Note_on_c, 0, 77, 55
2, 276731, Note_on_c, 0, 62, 43
2, 276787, Control_c, 0, 64, 127
2, 277136, Note_on_c, 0, 65, 0
2, 277137, Note_on_c, 0, 62, 0
2, 277137, Note_on_c, 0, 82, 0
2, 277138, Control_c, 0, 64, 0
2, 277155, Note_on_c, 0, 70, 0
2, 277155, Note_on_c, 0, 77, 0
2, 277160, Note_on_c, 0, 70, 63
2, 277166, Note_on_c, 0, 60, 56
2, 277167, Note_on_c, 0, 67, 49
2, 277209, Control_c, 0, 64, 127
2, 277370, Note_on_c, 0, 70, 0
2, 277377, Note_on_c, 0, 70, 67
2, 277389, Note_on_c, 0, 87, 79
2, 277397, Note_on_c, 0, 75, 73
2, 277599, Control_c, 0, 64, 0
2, 277601, Note_on_c, 0, 70, 0
2, 277605, Note_on_c, 0, 82, 82
2, 277608, Note_on_c, 0, 70, 56
2, 277616, Note_on_c, 0, 60, 0
2, 277632, Control_c, 0, 64, 127
2, 277821, Control_c, 0, 64, 0
2, 277824, Note_on_c, 0, 87, 0
2, 277830, Note_on_c, 0, 87, 84
2, 277839, Note_on_c, 0, 70, 0
2, 277839, Note_on_c, 0, 75, 0
2, 277845, Note_on_c, 0, 70, 64
2, 277845, Note_on_c, 0, 75, 64
2, 277847, Note_on_c, 0, 67, 0
2, 277849, Note_on_c, 0, 55, 55
2, 277851, Note_on_c, 0, 63, 58
2, 277851, Note_on_c, 0, 67, 52
2, 277870, Control_c, 0, 64, 127
2, 277962, Note_on_c, 0, 75, 0
2, 277967, Note_on_c, 0, 75, 56
2, 277977, Note_on_c, 0, 55, 0
2, 278054, Note_on_c, 0, 70, 0
2, 278058, Note_on_c, 0, 70, 53
2, 278277, Note_on_c, 0, 70, 0
2, 278284, Note_on_c, 0, 89, 81
2, 278286, Note_on_c, 0, 70, 57
2, 278297, Note_on_c, 0, 77, 65
2, 278499, Note_on_c, 0, 67, 0
2, 278499, Note_on_c, 0, 70, 0
2, 278507, Note_on_c, 0, 63, 0
2, 278508, Note_on_c, 0, 91, 89
2, 278508, Note_on_c, 0, 70, 56
2, 278510, Note_on_c, 0, 67, 57
2, 278511, Note_on_c, 0, 79, 77
2, 278517, Note_on_c, 0, 63, 54
2, 278722, Note_on_c, 0, 70, 0
2, 278730, Note_on_c, 0, 70, 57
2, 278733, Note_on_c, 0, 92, 93
2, 278742, Note_on_c, 0, 80, 74
2, 278880, Note_on_c, 0, 77, 0
2, 278880, Note_on_c, 0, 75, 0
2, 278880, Note_on_c, 0, 87, 0
2, 278881, Note_on_c, 0, 67, 0
2, 278881, Note_on_c, 0, 79, 0
2, 278882, Note_on_c, 0, 89, 0
2, 278883, Note_on_c, 0, 91, 0
2, 278888, Control_c, 0, 64, 0
2, 278906, Note_on_c, 0, 82, 0
2, 278937, Note_on_c, 0, 70, 0
2, 278945, Note_on_c, 0, 70, 56
2, 278952, Note_on_c, 0, 63, 0
2, 278952, Control_c, 0, 64, 127
2, 278955, Note_on_c, 0, 56, 53
2, 278957, Note_on_c, 0, 63, 47
2, 279168, Note_on_c, 0, 70, 0
2, 279170, Note_on_c, 0, 87, 80
2, 279174, Note_on_c, 0, 70, 55
2, 279180, Note_on_c, 0, 75, 67
2, 279298, Note_on_c, 0, 75, 0
2, 279309, Note_on_c, 0, 75, 55
2, 279375, Note_on_c, 0, 70, 0
2, 279385, Note_on_c, 0, 70, 56
2, 279398, Note_on_c, 0, 75, 0
2, 279398, Note_on_c, 0, 87, 0
2, 279408, Note_on_c, 0, 75, 69
2, 279408, Note_on_c, 0, 87, 79
2, 279598, Note_on_c, 0, 80, 0
2, 279600, Note_on_c, 0, 56, 0
2, 279600, Control_c, 0, 64, 0
2, 279601, Note_on_c, 0, 63, 0
2, 279605, Note_on_c, 0, 92, 0
2, 279621, Note_on_c, 0, 70, 0
2, 279626, Note_on_c, 0, 65, 52
2, 279627, Note_on_c, 0, 58, 56
2, 279628, Note_on_c, 0, 75, 0
2, 279630, Note_on_c, 0, 70, 51
2, 279633, Note_on_c, 0, 75, 50
2, 279713, Control_c, 0, 64, 127
2, 279851, Note_on_c, 0, 70, 0
2, 279862, Note_on_c, 0, 70, 50
2, 279989, Note_on_c, 0, 87, 0
2, 280058, Note_on_c, 0, 70, 0
2, 280066, Note_on_c, 0, 70, 62
2, 280281, Note_on_c, 0, 70, 0
2, 280289, Note_on_c, 0, 65, 0
2, 280289, Control_c, 0, 64, 0
2, 280293, Note_on_c, 0, 70, 66
2, 280297, Note_on_c, 0, 65, 58
2, 280304, Note_on_c, 0, 58, 0
2, 280307, Note_on_c, 0, 62, 52
2, 280311, Note_on_c, 0, 58, 41
2, 280320, Control_c, 0, 64, 127
2, 280496, Note_on_c, 0, 70, 0
2, 280496, Note_on_c, 0, 75, 0
2, 280505, Note_on_c, 0, 70, 52
2, 280707, Note_on_c, 0, 65, 0
2, 280707, Control_c, 0, 64, 0
2, 280708, Note_on_c, 0, 62, 0
2, 280734, Note_on_c, 0, 70, 0
2, 280741, Note_on_c, 0, 70, 56
2, 280742, Note_on_c, 0, 58, 0
2, 280744, Note_on_c, 0, 63, 58
2, 280746, Note_on_c, 0, 58, 58
2, 280746, Note_on_c, 0, 51, 56
2, 280773, Control_c, 0, 64, 127
2, 280974, Control_c, 0, 64, 0
2, 280982, Note_on_c, 0, 77, 79
2, 280984, Note_on_c, 0, 51, 0
2, 280985, Note_on_c, 0, 63, 0
2, 280988, Note_on_c, 0, 65, 63
2, 280995, Note_on_c, 0, 58, 0
2, 281003, Control_c, 0, 64, 127
2, 281193, Control_c, 0, 64, 0
2, 281203, Note_on_c, 0, 65, 0
2, 281203, Note_on_c, 0, 77, 0
2, 281207, Note_on_c, 0, 77, 91
2, 281214, Note_on_c, 0, 65, 78
2, 281218, Control_c, 0, 64, 127
2, 281407, Note_on_c, 0, 65, 0
2, 281436, Note_on_c, 0, 79, 94
2, 281437, Note_on_c, 0, 67, 85
2, 281441, Control_c, 0, 64, 0
2, 281448, Control_c, 0, 64, 127
2, 281564, Note_on_c, 0, 77, 0
2, 281570, Note_on_c, 0, 77, 63
2, 281653, Control_c, 0, 64, 0
2, 281656, Note_on_c, 0, 67, 0
2, 281664, Note_on_c, 0, 75, 97
2, 281667, Note_on_c, 0, 67, 69
2, 281668, Note_on_c, 0, 63, 83
2, 281740, Control_c, 0, 64, 127
2, 281771, Note_on_c, 0, 70, 0
2, 282102, Control_c, 0, 64, 0
2, 282117, Note_on_c, 0, 77, 0
2, 282127, Note_on_c, 0, 77, 98
2, 282128, Note_on_c, 0, 65, 91
2, 282147, Control_c, 0, 64, 127
2, 282255, Note_on_c, 0, 77, 0
2, 282261, Note_on_c, 0, 77, 73
2, 282551, Control_c, 0, 64, 0
2, 282556, Note_on_c, 0, 67, 0
2, 282558, Note_on_c, 0, 65, 0
2, 282558, Note_on_c, 0, 79, 0
2, 282558, Note_on_c, 0, 63, 0
2, 282558, Note_on_c, 0, 77, 0
2, 282570, Note_on_c, 0, 75, 0
2, 282572, Note_on_c, 0, 82, 101
2, 282576, Note_on_c, 0, 70, 92
2, 282578, Note_on_c, 0, 32, 86
2, 282580, Note_on_c, 0, 75, 89
2, 282581, Note_on_c, 0, 44, 89
2, 282631, Control_c, 0, 64, 127
2, 282800, Note_on_c, 0, 75, 0
2, 282809, Note_on_c, 0, 75, 75
2, 282812, Note_on_c, 0, 63, 73
2, 282812, Note_on_c, 0, 68, 67
2, 282812, Note_on_c, 0, 60, 64
2, 282814, Note_on_c, 0, 56, 62
2, 283038, Note_on_c, 0, 60, 0
2, 283038, Note_on_c, 0, 75, 0
2, 283043, Note_on_c, 0, 60, 51
2, 283044, Note_on_c, 0, 75, 65
2, 283046, Note_on_c, 0, 63, 0
2, 283053, Note_on_c, 0, 63, 35
2, 283249, Control_c, 0, 64, 0
2, 283250, Note_on_c, 0, 56, 0
2, 283250, Note_on_c, 0, 44, 0
2, 283250, Note_on_c, 0, 82, 0
2, 283250, Note_on_c, 0, 60, 0
2, 283251, Note_on_c, 0, 63, 0
2, 283253, Note_on_c, 0, 75, 0
2, 283254, Note_on_c, 0, 70, 0
2, 283255, Note_on_c, 0, 32, 0
2, 283260, Note_on_c, 0, 34, 89
2, 283263, Note_on_c, 0, 46, 87
2, 283264, Note_on_c, 0, 75, 83
2, 283315, Control_c, 0, 64, 127
2, 283496, Note_on_c, 0, 74, 74
2, 283496, Note_on_c, 0, 53, 71
2, 283497, Note_on_c, 0, 62, 76
2, 283502, Note_on_c, 0, 70, 71
2, 283502, Note_on_c, 0, 58, 71
2, 283706, Note_on_c, 0, 75, 0
2, 283713, Note_on_c, 0, 75, 75
2, 283837, Note_on_c, 0, 75, 0
2, 283846, Note_on_c, 0, 75, 65
2, 283914, Note_on_c, 0, 34, 0
2, 283914, Note_on_c, 0, 46, 0
2, 283924, Note_on_c, 0, 34, 83
2, 283925, Note_on_c, 0, 46, 84
2, 283927, Control_c, 0, 64, 0
2, 283983, Control_c, 0, 64, 127
2, 284152, Note_on_c, 0, 75, 0
2, 284163, Note_on_c, 0, 75, 79
2, 284328, Note_on_c, 0, 74, 0
2, 284330, Control_c, 0, 64, 0
2, 284332, Note_on_c, 0, 46, 0
2, 284332, Note_on_c, 0, 34, 0
2, 284332, Note_on_c, 0, 58, 0
2, 284332, Note_on_c, 0, 62, 0
2, 284336, Note_on_c, 0, 70, 0
2, 284344, Note_on_c, 0, 53, 0
2, 284344, Note_on_c, 0, 68, 0
2, 284367, Note_on_c, 0, 75, 0
2, 284369, Note_on_c, 0, 48, 87
2, 284369, Note_on_c, 0, 36, 91
2, 284378, Note_on_c, 0, 75, 82
2, 284390, Control_c, 0, 64, 127
2, 284597, Note_on_c, 0, 75, 0
2, 284602, Note_on_c, 0, 87, 103
2, 284608, Note_on_c, 0, 75, 93
2, 284623, Note_on_c, 0, 60, 74
2, 284624, Note_on_c, 0, 63, 76
2, 284626, Note_on_c, 0, 67, 68
2, 284814, Note_on_c, 0, 86, 102
2, 284816, Note_on_c, 0, 74, 90
2, 285007, Note_on_c, 0, 48, 0
2, 285008, Note_on_c, 0, 86, 0
2, 285009, Note_on_c, 0, 60, 0
2, 285009, Control_c, 0, 64, 0
2, 285035, Note_on_c, 0, 75, 0
2, 285036, Note_on_c, 0, 82, 104
2, 285037, Note_on_c, 0, 43, 82
2, 285038, Note_on_c, 0, 55, 87
2, 285043, Note_on_c, 0, 70, 92
2, 285045, Note_on_c, 0, 75, 94
2, 285081, Control_c, 0, 64, 127
2, 285258, Note_on_c, 0, 63, 0
2, 285265, Note_on_c, 0, 55, 0
2, 285265, Note_on_c, 0, 67, 0
2, 285265, Note_on_c, 0, 75, 0
2, 285269, Note_on_c, 0, 63, 77
2, 285270, Note_on_c, 0, 58, 69
2, 285270, Note_on_c, 0, 75, 85
2, 285270, Note_on_c, 0, 67, 74
2, 285272, Note_on_c, 0, 55, 69
2, 285480, Note_on_c, 0, 75, 0
2, 285487, Note_on_c, 0, 80, 101
2, 285490, Note_on_c, 0, 75, 88
2, 285492, Note_on_c, 0, 68, 82
2, 285588, Note_on_c, 0, 74, 0
2, 285703, Note_on_c, 0, 55, 0
2, 285703, Note_on_c, 0, 67, 0
2, 285703, Note_on_c, 0, 75, 0
2, 285706, Note_on_c, 0, 43, 0
2, 285707, Note_on_c, 0, 79, 96
2, 285708, Note_on_c, 0, 55, 82
2, 285709, Note_on_c, 0, 67, 84
2, 285712, Note_on_c, 0, 63, 0
2, 285714, Note_on_c, 0, 75, 80
2, 285918, Note_on_c, 0, 36, 0
2, 285918, Note_on_c, 0, 68, 0
2, 285918, Note_on_c, 0, 75, 0
2, 285918, Note_on_c, 0, 80, 0
2, 285925, Note_on_c, 0, 80, 95
2, 285929, Note_on_c, 0, 68, 83
2, 285929, Note_on_c, 0, 75, 76
2, 286110, Note_on_c, 0, 79, 0
2, 286111, Note_on_c, 0, 80, 0
2, 286111, Note_on_c, 0, 68, 0
2, 286112, Note_on_c, 0, 67, 0
2, 286112, Control_c, 0, 64, 0
2, 286118, Note_on_c, 0, 87, 0
2, 286126, Note_on_c, 0, 55, 0
2, 286126, Note_on_c, 0, 58, 0
2, 286126, Note_on_c, 0, 70, 0
2, 286141, Note_on_c, 0, 82, 0
2, 286147, Note_on_c, 0, 82, 103
2, 286149, Note_on_c, 0, 75, 0
2, 286153, Note_on_c, 0, 70, 92
2, 286154, Note_on_c, 0, 32, 87
2, 286154, Note_on_c, 0, 44, 86
2, 286154, Note_on_c, 0, 75, 85
2, 286179, Control_c, 0, 64, 127
2, 286379, Note_on_c, 0, 75, 0
2, 286379, Note_on_c, 0, 63, 74
2, 286384, Note_on_c, 0, 56, 68
2, 286384, Note_on_c, 0, 60, 66
2, 286390, Note_on_c, 0, 75, 79
2, 286594, Note_on_c, 0, 75, 0
2, 286601, Note_on_c, 0, 75, 96
2, 286769, Note_on_c, 0, 56, 0
2, 286771, Note_on_c, 0, 44, 0
2, 286772, Note_on_c, 0, 60, 0
2, 286772, Note_on_c, 0, 63, 0
2, 286773, Note_on_c, 0, 82, 0
2, 286774, Note_on_c, 0, 70, 0
2, 286782, Control_c, 0, 64, 0
2, 286794, Note_on_c, 0, 32, 0
2, 286809, Note_on_c, 0, 75, 0
2, 286820, Note_on_c, 0, 75, 87
2, 286823, Note_on_c, 0, 70, 84
2, 286827, Note_on_c, 0, 46, 84
2, 286828, Note_on_c, 0, 34, 89
2, 286855, Control_c, 0, 64, 127
2, 287050, Note_on_c, 0, 62, 71
2, 287051, Note_on_c, 0, 58, 67
2, 287270, Note_on_c, 0, 75, 0
2, 287276, Note_on_c, 0, 75, 69
2, 287463, Control_c, 0, 64, 0
2, 287470, Note_on_c, 0, 34, 0
2, 287476, Note_on_c, 0, 34, 84
2, 287477, Note_on_c, 0, 46, 0
2, 287477, Note_on_c, 0, 75, 0
2, 287481, Note_on_c, 0, 46, 79
2, 287487, Note_on_c, 0, 75, 80
2, 287508, Control_c, 0, 64, 127
2, 287882, Note_on_c, 0, 62, 0
2, 287882, Note_on_c, 0, 46, 0
2, 287884, Control_c, 0, 64, 0
2, 287885, Note_on_c, 0, 70, 0
2, 287903, Note_on_c, 0, 55, 66
2, 287904, Note_on_c, 0, 36, 79
2, 287905, Note_on_c, 0, 48, 76
2, 287907, Note_on_c, 0, 75, 0
2, 287912, Note_on_c, 0, 75, 66
2, 287938, Control_c, 0, 64, 127
2, 288130, Note_on_c, 0, 75, 0
2, 288138, Note_on_c, 0, 55, 0
2, 288140, Note_on_c, 0, 75, 87
2, 288141, Note_on_c, 0, 63, 87
2, 288142, Note_on_c, 0, 55, 79
2, 288145, Note_on_c, 0, 60, 75
2, 288238, Note_on_c, 0, 63, 0
2, 288248, Note_on_c, 0, 63, 75
2, 288351, Note_on_c, 0, 84, 97
2, 288353, Note_on_c, 0, 75, 0
2, 288361, Note_on_c, 0, 72, 86
2, 288362, Note_on_c, 0, 75, 88
2, 288491, Note_on_c, 0, 75, 0
2, 288498, Note_on_c, 0, 75, 67
2, 288541, Control_c, 0, 64, 0
2, 288576, Note_on_c, 0, 55, 0
2, 288576, Note_on_c, 0, 75, 0
2, 288579, Note_on_c, 0, 82, 102
2, 288581, Note_on_c, 0, 55, 85
2, 288582, Note_on_c, 0, 43, 81
2, 288584, Note_on_c, 0, 75, 86
2, 288584, Note_on_c, 0, 70, 92
2, 288599, Control_c, 0, 64, 127
2, 288744, Note_on_c, 0, 55, 0
2, 288753, Note_on_c, 0, 55, 63
2, 288791, Note_on_c, 0, 43, 0
2, 288791, Note_on_c, 0, 63, 0
2, 288800, Note_on_c, 0, 63, 78
2, 288801, Note_on_c, 0, 43, 62
2, 288806, Note_on_c, 0, 58, 0
2, 288810, Note_on_c, 0, 58, 62
2, 288983, Note_on_c, 0, 34, 0
2, 289006, Note_on_c, 0, 75, 0
2, 289008, Note_on_c, 0, 80, 98
2, 289014, Note_on_c, 0, 68, 88
2, 289017, Note_on_c, 0, 75, 84
2, 289210, Note_on_c, 0, 82, 0
2, 289213, Note_on_c, 0, 58, 0
2, 289217, Control_c, 0, 64, 0
2, 289228, Note_on_c, 0, 43, 0
2, 289228, Note_on_c, 0, 55, 0
2, 289232, Note_on_c, 0, 79, 96
2, 289233, Note_on_c, 0, 55, 79
2, 289237, Note_on_c, 0, 51, 78
2, 289239, Note_on_c, 0, 67, 83
2, 289239, Note_on_c, 0, 43, 69
2, 289251, Control_c, 0, 64, 127
2, 289320, Note_on_c, 0, 60, 0
2, 289328, Note_on_c, 0, 48, 0
2, 289459, Note_on_c, 0, 67, 0
2, 289459, Note_on_c, 0, 75, 0
2, 289463, Note_on_c, 0, 75, 71
2, 289465, Note_on_c, 0, 67, 61
2, 289632, Note_on_c, 0, 55, 0
2, 289632, Note_on_c, 0, 51, 0
2, 289634, Note_on_c, 0, 43, 0
2, 289634, Control_c, 0, 64, 0
2, 289635, Note_on_c, 0, 36, 0
2, 289643, Note_on_c, 0, 63, 0
2, 289643, Note_on_c, 0, 70, 0
2, 289643, Note_on_c, 0, 84, 0
2, 289651, Note_on_c, 0, 80, 0
2, 289666, Note_on_c, 0, 68, 0
2, 289675, Note_on_c, 0, 44, 89
2, 289704, Control_c, 0, 64, 127
2, 289895, Note_on_c, 0, 60, 68
2, 289897, Note_on_c, 0, 63, 69
2, 289904, Note_on_c, 0, 67, 0
2, 290021, Note_on_c, 0, 56, 64
2, 290112, Note_on_c, 0, 63, 0
2, 290119, Note_on_c, 0, 60, 0
2, 290119, Note_on_c, 0, 75, 0
2, 290122, Note_on_c, 0, 63, 83
2, 290126, Note_on_c, 0, 60, 80
2, 290126, Note_on_c, 0, 75, 92
2, 290150, Note_on_c, 0, 72, 0
2, 290250, Note_on_c, 0, 60, 0
2, 290250, Note_on_c, 0, 75, 0
2, 290259, Note_on_c, 0, 75, 76
2, 290261, Note_on_c, 0, 60, 63
2, 290309, Control_c, 0, 64, 0
2, 290311, Note_on_c, 0, 60, 0
2, 290313, Note_on_c, 0, 44, 0
2, 290327, Note_on_c, 0, 56, 0
2, 290342, Note_on_c, 0, 63, 0
2, 290344, Note_on_c, 0, 46, 80
2, 290347, Note_on_c, 0, 70, 94
2, 290365, Control_c, 0, 64, 127
2, 290557, Note_on_c, 0, 46, 0
2, 290563, Note_on_c, 0, 46, 55
2, 290576, Note_on_c, 0, 63, 57
2, 290681, Note_on_c, 0, 53, 73
2, 290787, Note_on_c, 0, 75, 0
2, 290798, Note_on_c, 0, 75, 96
2, 290810, Note_on_c, 0, 46, 0
2, 290810, Note_on_c, 0, 63, 0
2, 290820, Note_on_c, 0, 63, 71
2, 290820, Note_on_c, 0, 46, 67
2, 290824, Note_on_c, 0, 58, 69
2, 290895, Note_on_c, 0, 58, 0
2, 290906, Note_on_c, 0, 58, 65
2, 290933, Note_on_c, 0, 63, 0
2, 290942, Note_on_c, 0, 63, 58
2, 291021, Control_c, 0, 64, 0
2, 291025, Note_on_c, 0, 46, 0
2, 291025, Note_on_c, 0, 70, 0
2, 291031, Note_on_c, 0, 46, 73
2, 291034, Note_on_c, 0, 70, 82
2, 291048, Control_c, 0, 64, 127
2, 291141, Note_on_c, 0, 46, 0
2, 291145, Note_on_c, 0, 46, 66
2, 291240, Note_on_c, 0, 58, 0
2, 291240, Note_on_c, 0, 63, 0
2, 291248, Note_on_c, 0, 58, 74
2, 291248, Note_on_c, 0, 63, 75
2, 291430, Note_on_c, 0, 58, 0
2, 291431, Note_on_c, 0, 63, 0
2, 291432, Control_c, 0, 64, 0
2, 291440, Note_on_c, 0, 79, 0
2, 291448, Note_on_c, 0, 53, 0
2, 291468, Note_on_c, 0, 48, 88
2, 291471, Note_on_c, 0, 46, 0
2, 291494, Control_c, 0, 64, 127
2, 291686, Note_on_c, 0, 75, 0
2, 291697, Note_on_c, 0, 75, 95
2, 291705, Note_on_c, 0, 60, 69
2, 291705, Note_on_c, 0, 63, 55
2, 291812, Note_on_c, 0, 55, 73
2, 291916, Note_on_c, 0, 63, 0
2, 291916, Note_on_c, 0, 70, 0
2, 291921, Note_on_c, 0, 63, 81
2, 291921, Note_on_c, 0, 70, 85
2, 291924, Note_on_c, 0, 60, 0
2, 291928, Note_on_c, 0, 60, 74
2, 292111, Note_on_c, 0, 63, 0
2, 292112, Note_on_c, 0, 70, 0
2, 292112, Note_on_c, 0, 60, 0
2, 292112, Control_c, 0, 64, 0
2, 292124, Note_on_c, 0, 48, 0
2, 292124, Note_on_c, 0, 75, 0
2, 292135, Note_on_c, 0, 75, 102
2, 292139, Note_on_c, 0, 55, 0
2, 292142, Note_on_c, 0, 43, 79
2, 292162, Control_c, 0, 64, 127
2, 292361, Note_on_c, 0, 63, 64
2, 292365, Note_on_c, 0, 67, 58
2, 292365, Note_on_c, 0, 58, 65
2, 292465, Note_on_c, 0, 55, 78
2, 292577, Note_on_c, 0, 63, 0
2, 292584, Note_on_c, 0, 58, 0
2, 292585, Note_on_c, 0, 77, 92
2, 292588, Note_on_c, 0, 63, 77
2, 292589, Note_on_c, 0, 58, 75
2, 292654, Note_on_c, 0, 55, 0
2, 292658, Note_on_c, 0, 55, 54
2, 292749, Control_c, 0, 64, 0
2, 292753, Note_on_c, 0, 58, 0
2, 292759, Note_on_c, 0, 58, 65
2, 292776, Control_c, 0, 64, 127
2, 292798, Note_on_c, 0, 79, 95
2, 292999, Note_on_c, 0, 63, 0
2, 293004, Note_on_c, 0, 63, 82
2, 293007, Note_on_c, 0, 58, 0
2, 293011, Note_on_c, 0, 58, 70
2, 293013, Note_on_c, 0, 80, 100
2, 293076, Note_on_c, 0, 58, 0
2, 293083, Note_on_c, 0, 58, 69
2, 293168, Note_on_c, 0, 58, 0
2, 293172, Note_on_c, 0, 58, 66
2, 293187, Note_on_c, 0, 63, 0
2, 293187, Note_on_c, 0, 79, 0
2, 293199, Note_on_c, 0, 55, 0
2, 293202, Control_c, 0, 64, 0
2, 293207, Note_on_c, 0, 43, 0
2, 293214, Note_on_c, 0, 67, 0
2, 293233, Note_on_c, 0, 44, 89
2, 293237, Note_on_c, 0, 58, 0
2, 293237, Control_c, 0, 64, 127
2, 293437, Note_on_c, 0, 75, 0
2, 293439, Note_on_c, 0, 60, 75
2, 293443, Note_on_c, 0, 63, 73
2, 293447, Note_on_c, 0, 75, 93
2, 293561, Note_on_c, 0, 56, 69
2, 293644, Note_on_c, 0, 77, 0
2, 293660, Note_on_c, 0, 60, 0
2, 293660, Note_on_c, 0, 63, 0
2, 293660, Note_on_c, 0, 75, 0
2, 293667, Note_on_c, 0, 75, 85
2, 293667, Note_on_c, 0, 60, 70
2, 293669, Note_on_c, 0, 63, 75
2, 293750, Note_on_c, 0, 56, 0
2, 293760, Note_on_c, 0, 63, 0
2, 293767, Note_on_c, 0, 63, 66
2, 293838, Note_on_c, 0, 44, 0
2, 293841, Control_c, 0, 64, 0
2, 293867, Note_on_c, 0, 60, 0
2, 293872, Note_on_c, 0, 46, 80
2, 293882, Note_on_c, 0, 80, 0
2, 293898, Control_c, 0, 64, 127
2, 293905, Note_on_c, 0, 63, 0
2, 294088, Note_on_c, 0, 63, 72
2, 294092, Note_on_c, 0, 58, 67
2, 294210, Note_on_c, 0, 53, 67
2, 294305, Note_on_c, 0, 58, 0
2, 294305, Note_on_c, 0, 63, 0
2, 294310, Note_on_c, 0, 63, 76
2, 294316, Note_on_c, 0, 58, 64
2, 294320, Note_on_c, 0, 46, 0
2, 294324, Note_on_c, 0, 46, 61
2, 294428, Note_on_c, 0, 58, 0
2, 294428, Note_on_c, 0, 63, 0
2, 294432, Note_on_c, 0, 58, 48
2, 294437, Note_on_c, 0, 63, 55
2, 294481, Note_on_c, 0, 58, 0
2, 294481, Note_on_c, 0, 63, 0
2, 294486, Note_on_c, 0, 63, 50
2, 294487, Note_on_c, 0, 58, 59
2, 294494, Control_c, 0, 64, 0
2, 294504, Note_on_c, 0, 53, 0
2, 294512, Note_on_c, 0, 46, 0
2, 294519, Note_on_c, 0, 46, 72
2, 294528, Note_on_c, 0, 75, 0
2, 294558, Note_on_c, 0, 58, 0
2, 294566, Control_c, 0, 64, 127
2, 294712, Note_on_c, 0, 63, 0
2, 294721, Note_on_c, 0, 63, 71
2, 294726, Note_on_c, 0, 58, 67
2, 294901, Note_on_c, 0, 58, 0
2, 294905, Control_c, 0, 64, 0
2, 294927, Note_on_c, 0, 46, 0
2, 294942, Note_on_c, 0, 39, 76
2, 295004, Control_c, 0, 64, 127
2, 295173, Note_on_c, 0, 63, 0
2, 295179, Note_on_c, 0, 63, 62
2, 295184, Note_on_c, 0, 58, 61
2, 295365, Note_on_c, 0, 39, 0
2, 295392, Note_on_c, 0, 65, 66
2, 295395, Note_on_c, 0, 58, 0
2, 295395, Note_on_c, 0, 63, 0
2, 295400, Note_on_c, 0, 63, 56
2, 295404, Note_on_c, 0, 58, 58
2, 295484, Note_on_c, 0, 46, 54
2, 295562, Note_on_c, 0, 51, 43
2, 295608, Note_on_c, 0, 67, 72
2, 295610, Note_on_c, 0, 63, 0
2, 295617, Note_on_c, 0, 63, 53
2, 295618, Note_on_c, 0, 46, 0
2, 295618, Note_on_c, 0, 58, 0
2, 295629, Note_on_c, 0, 58, 52
2, 295726, Note_on_c, 0, 58, 0
2, 295735, Note_on_c, 0, 58, 37
2, 295786, Note_on_c, 0, 65, 0
2, 295833, Note_on_c, 0, 58, 0
2, 295835, Note_on_c, 0, 68, 77
2, 295842, Note_on_c, 0, 58, 52
2, 295856, Note_on_c, 0, 63, 0
2, 295863, Note_on_c, 0, 63, 50
2, 295866, Note_on_c, 0, 67, 0
2, 295887, Note_on_c, 0, 51, 0
2, 296035, Note_on_c, 0, 70, 79
2, 296048, Note_on_c, 0, 58, 0
2, 296048, Note_on_c, 0, 63, 0
2, 296053, Note_on_c, 0, 58, 56
2, 296058, Note_on_c, 0, 63, 47
2, 296125, Note_on_c, 0, 63, 0
2, 296125, Note_on_c, 0, 68, 0
2, 296132, Note_on_c, 0, 68, 41
2, 296136, Note_on_c, 0, 63, 40
2, 296259, Note_on_c, 0, 72, 86
2, 296263, Note_on_c, 0, 58, 0
2, 296271, Note_on_c, 0, 63, 0
2, 296272, Note_on_c, 0, 58, 57
2, 296278, Note_on_c, 0, 63, 50
2, 296313, Note_on_c, 0, 68, 0
2, 296371, Note_on_c, 0, 63, 0
2, 296379, Note_on_c, 0, 63, 45
2, 296471, Note_on_c, 0, 58, 0
2, 296475, Note_on_c, 0, 74, 83
2, 296482, Note_on_c, 0, 58, 56
2, 296486, Note_on_c, 0, 63, 0
2, 296497, Note_on_c, 0, 63, 49
2, 296640, Note_on_c, 0, 70, 0
2, 296655, Note_on_c, 0, 72, 0
2, 296667, Note_on_c, 0, 74, 0
2, 296686, Note_on_c, 0, 63, 0
2, 296691, Note_on_c, 0, 75, 82
2, 296693, Note_on_c, 0, 58, 0
2, 296695, Note_on_c, 0, 63, 48
2, 296697, Note_on_c, 0, 55, 57
2, 296698, Note_on_c, 0, 58, 49
2, 296729, Control_c, 0, 64, 0
2, 296808, Note_on_c, 0, 63, 0
2, 296816, Control_c, 0, 64, 127
2, 296819, Note_on_c, 0, 63, 42
2, 296927, Note_on_c, 0, 70, 56
2, 297035, Note_on_c, 0, 74, 63
2, 297131, Note_on_c, 0, 75, 0
2, 297138, Note_on_c, 0, 75, 75
2, 297216, Note_on_c, 0, 70, 0
2, 297227, Note_on_c, 0, 70, 55
2, 297292, Note_on_c, 0, 74, 0
2, 297298, Note_on_c, 0, 74, 46
2, 297354, Note_on_c, 0, 75, 0
2, 297358, Note_on_c, 0, 75, 73
2, 297456, Note_on_c, 0, 82, 79
2, 297519, Note_on_c, 0, 74, 0
2, 297525, Note_on_c, 0, 70, 0
2, 297569, Note_on_c, 0, 63, 0
2, 297573, Note_on_c, 0, 80, 75
2, 297573, Note_on_c, 0, 56, 54
2, 297574, Note_on_c, 0, 63, 51
2, 297574, Note_on_c, 0, 60, 55
2, 297582, Note_on_c, 0, 68, 60
2, 297669, Note_on_c, 0, 82, 0
2, 297673, Note_on_c, 0, 82, 81
2, 297684, Note_on_c, 0, 75, 0
2, 297699, Control_c, 0, 64, 0
2, 297776, Note_on_c, 0, 80, 0
2, 297784, Control_c, 0, 64, 127
2, 297787, Note_on_c, 0, 80, 76
2, 297896, Note_on_c, 0, 79, 72
2, 298005, Note_on_c, 0, 77, 77
2, 298099, Note_on_c, 0, 79, 0
2, 298108, Note_on_c, 0, 79, 74
2, 298199, Note_on_c, 0, 77, 0
2, 298209, Note_on_c, 0, 77, 77
2, 298335, Note_on_c, 0, 75, 58
2, 298398, Note_on_c, 0, 58, 0
2, 298408, Note_on_c, 0, 79, 0
2, 298409, Note_on_c, 0, 63, 0
2, 298411, Note_on_c, 0, 68, 0
2, 298421, Note_on_c, 0, 55, 0
2, 298439, Control_c, 0, 64, 0
2, 298444, Note_on_c, 0, 60, 0
2, 298444, Note_on_c, 0, 77, 0
2, 298449, Note_on_c, 0, 70, 53
2, 298449, Note_on_c, 0, 58, 51
2, 298451, Note_on_c, 0, 65, 45
2, 298451, Note_on_c, 0, 77, 74
2, 298467, Note_on_c, 0, 80, 0
2, 298483, Note_on_c, 0, 75, 0
2, 298506, Note_on_c, 0, 82, 0
2, 298567, Note_on_c, 0, 77, 0
2, 298578, Note_on_c, 0, 77, 59
2, 298629, Control_c, 0, 64, 127
2, 298667, Note_on_c, 0, 77, 0
2, 298675, Note_on_c, 0, 77, 69
2, 298713, Note_on_c, 0, 56, 0
2, 298768, Note_on_c, 0, 82, 78
2, 298886, Note_on_c, 0, 87, 77
2, 298982, Note_on_c, 0, 77, 0
2, 298993, Note_on_c, 0, 77, 69
2, 299089, Note_on_c, 0, 82, 0
2, 299101, Note_on_c, 0, 82, 77
2, 299189, Note_on_c, 0, 87, 0
2, 299201, Note_on_c, 0, 87, 77
2, 299297, Note_on_c, 0, 70, 0
2, 299308, Note_on_c, 0, 70, 66
2, 299308, Note_on_c, 0, 67, 59
2, 299308, Note_on_c, 0, 86, 76
2, 299308, Note_on_c, 0, 60, 61
2, 299309, Control_c, 0, 64, 0
2, 299397, Note_on_c, 0, 87, 0
2, 299397, Control_c, 0, 64, 127
2, 299407, Note_on_c, 0, 87, 76
2, 299512, Note_on_c, 0, 86, 0
2, 299523, Note_on_c, 0, 86, 71
2, 299619, Note_on_c, 0, 82, 0
2, 299629, Note_on_c, 0, 82, 72
2, 299727, Note_on_c, 0, 86, 0
2, 299731, Note_on_c, 0, 86, 80
2, 299836, Note_on_c, 0, 89, 71
2, 299950, Note_on_c, 0, 100, 66
2, 299952, Note_on_c, 0, 98, 63
2, 299957, Note_on_c, 0, 100, 0
2, 300058, Note_on_c, 0, 94, 81
2, 300170, Note_on_c, 0, 63, 51
2, 300172, Note_on_c, 0, 58, 0
2, 300172, Note_on_c, 0, 67, 0
2, 300177, Control_c, 0, 64, 0
2, 300178, Note_on_c, 0, 55, 43
2, 300180, Note_on_c, 0, 58, 56
2, 300180, Note_on_c, 0, 77, 0
2, 300181, Note_on_c, 0, 67, 48
2, 300188, Control_c, 0, 64, 127
2, 300203, Note_on_c, 0, 65, 0
2, 300387, Note_on_c, 0, 70, 0
2, 300398, Note_on_c, 0, 70, 79
2, 300621, Note_on_c, 0, 75, 82
2, 300825, Note_on_c, 0, 82, 0
2, 300831, Note_on_c, 0, 82, 87
2, 301066, Note_on_c, 0, 80, 80
2, 301067, Note_on_c, 0, 56, 52
2, 301079, Note_on_c, 0, 60, 0
2, 301079, Note_on_c, 0, 63, 0
2, 301082, Note_on_c, 0, 60, 55
2, 301085, Note_on_c, 0, 63, 57
2, 301086, Note_on_c, 0, 98, 0
2, 301091, Note_on_c, 0, 58, 0
2, 301092, Note_on_c, 0, 55, 0
2, 301092, Note_on_c, 0, 67, 0
2, 301092, Note_on_c, 0, 82, 0
2, 301093, Note_on_c, 0, 70, 0
2, 301094, Note_on_c, 0, 94, 0
2, 301095, Note_on_c, 0, 75, 0
2, 301109, Note_on_c, 0, 87, 0
2, 301109, Note_on_c, 0, 89, 0
2, 301121, Control_c, 0, 64, 0
2, 301125, Note_on_c, 0, 86, 0
2, 301255, Control_c, 0, 64, 127
2, 301284, Note_on_c, 0, 82, 76
2, 301410, Note_on_c, 0, 79, 76
2, 301585, Note_on_c, 0, 79, 0
2, 301591, Note_on_c, 0, 79, 53
2, 301797, Note_on_c, 0, 75, 67
2, 301900, Note_on_c, 0, 77, 71
2, 301950, Note_on_c, 0, 79, 0
2, 301950, Note_on_c, 0, 80, 0
2, 301951, Note_on_c, 0, 82, 0
2, 301951, Note_on_c, 0, 60, 0
2, 301951, Note_on_c, 0, 75, 0
2, 301952, Note_on_c, 0, 56, 0
2, 301958, Control_c, 0, 64, 0
2, 301969, Note_on_c, 0, 63, 0
2, 301985, Control_c, 0, 64, 127
2, 302028, Note_on_c, 0, 65, 47
2, 302031, Note_on_c, 0, 77, 0
2, 302034, Note_on_c, 0, 58, 52
2, 302037, Note_on_c, 0, 63, 43
2, 302038, Note_on_c, 0, 77, 55
2, 302515, Note_on_c, 0, 82, 71
2, 302745, Note_on_c, 0, 87, 73
2, 302989, Note_on_c, 0, 89, 75
2, 303198, Note_on_c, 0, 82, 0
2, 303202, Note_on_c, 0, 82, 61
2, 303313, Note_on_c, 0, 87, 0
2, 303319, Note_on_c, 0, 87, 78
2, 303713, Note_on_c, 0, 89, 0
2, 303722, Note_on_c, 0, 89, 65
2, 303970, Note_on_c, 0, 65, 0
2, 303971, Note_on_c, 0, 87, 0
2, 303972, Note_on_c, 0, 77, 0
2, 303973, Note_on_c, 0, 89, 0
2, 303975, Note_on_c, 0, 82, 0
2, 303975, Note_on_c, 0, 58, 0
2, 303978, Note_on_c, 0, 59, 55
2, 303978, Note_on_c, 0, 66, 58
2, 303980, Note_on_c, 0, 64, 51
2, 303991, Control_c, 0, 64, 0
2, 303997, Note_on_c, 0, 63, 0
2, 303997, Control_c, 0, 64, 127
2, 304438, Note_on_c, 0, 83, 69
2, 304666, Note_on_c, 0, 85, 67
2, 304896, Note_on_c, 0, 85, 0
2, 304899, Note_on_c, 0, 90, 80
2, 304903, Note_on_c, 0, 85, 59
2, 305134, Note_on_c, 0, 83, 0
2, 305142, Note_on_c, 0, 83, 55
2, 305233, Note_on_c, 0, 85, 0
2, 305241, Note_on_c, 0, 85, 60
2, 305587, Note_on_c, 0, 90, 0
2, 305596, Note_on_c, 0, 90, 73
2, 305602, Note_on_c, 0, 83, 0
2, 305609, Note_on_c, 0, 83, 48
2, 306316, Note_on_c, 0, 83, 0
2, 306327, Note_on_c, 0, 83, 58
2, 306562, Note_on_c, 0, 85, 0
2, 306567, Note_on_c, 0, 85, 66
2, 306572, Note_on_c, 0, 78, 41
2, 306573, Note_on_c, 0, 82, 48
2, 306577, Note_on_c, 0, 78, 0
2, 306577, Note_on_c, 0, 82, 0
2, 306823, Note_on_c, 0, 90, 0
2, 306833, Note_on_c, 0, 90, 78
2, 307092, Note_on_c, 0, 83, 0
2, 307098, Note_on_c, 0, 83, 59
2, 307200, Note_on_c, 0, 85, 0
2, 307200, Note_on_c, 0, 90, 0
2, 307204, Note_on_c, 0, 85, 65
2, 307204, Note_on_c, 0, 90, 52
2, 307645, Note_on_c, 0, 90, 0
2, 307651, Note_on_c, 0, 90, 73
2, 308115, Note_on_c, 0, 67, 56
2, 308116, Note_on_c, 0, 71, 58
2, 308440, Note_on_c, 0, 81, 66
2, 308474, Note_on_c, 0, 67, 0
2, 308483, Note_on_c, 0, 67, 33
2, 308590, Note_on_c, 0, 59, 0
2, 308590, Note_on_c, 0, 64, 0
2, 308590, Note_on_c, 0, 66, 0
2, 308674, Note_on_c, 0, 83, 0
2, 308683, Note_on_c, 0, 83, 70
2, 308889, Note_on_c, 0, 90, 0
2, 308900, Note_on_c, 0, 90, 75
2, 309096, Note_on_c, 0, 81, 0
2, 309101, Note_on_c, 0, 81, 52
2, 309265, Note_on_c, 0, 81, 0
2, 309273, Note_on_c, 0, 83, 0
2, 309275, Note_on_c, 0, 81, 45
2, 309279, Note_on_c, 0, 83, 59
2, 309473, Note_on_c, 0, 90, 0
2, 309481, Note_on_c, 0, 90, 67
2, 309657, Note_on_c, 0, 71, 0
2, 309665, Note_on_c, 0, 71, 55
2, 309680, Note_on_c, 0, 81, 0
2, 309684, Note_on_c, 0, 81, 63
2, 309861, Note_on_c, 0, 73, 55
2, 309864, Note_on_c, 0, 83, 0
2, 309871, Note_on_c, 0, 83, 58
2, 310049, Note_on_c, 0, 90, 0
2, 310053, Note_on_c, 0, 74, 55
2, 310053, Note_on_c, 0, 90, 74
2, 310218, Note_on_c, 0, 81, 0
2, 310224, Note_on_c, 0, 81, 68
2, 310225, Note_on_c, 0, 71, 0
2, 310236, Note_on_c, 0, 71, 51
2, 310251, Note_on_c, 0, 78, 47
2, 310387, Note_on_c, 0, 83, 0
2, 310394, Note_on_c, 0, 73, 0
2, 310395, Note_on_c, 0, 83, 73
2, 310405, Note_on_c, 0, 73, 57
2, 310579, Note_on_c, 0, 90, 0
2, 310586, Note_on_c, 0, 74, 0
2, 310588, Note_on_c, 0, 90, 74
2, 310590, Note_on_c, 0, 74, 60
2, 310786, Note_on_c, 0, 71, 0
2, 310796, Note_on_c, 0, 71, 51
2, 310940, Note_on_c, 0, 73, 0
2, 310950, Note_on_c, 0, 73, 63
2, 311132, Note_on_c, 0, 74, 0
2, 311138, Note_on_c, 0, 74, 69
2, 311314, Note_on_c, 0, 66, 62
2, 311318, Note_on_c, 0, 59, 55
2, 311334, Note_on_c, 0, 67, 0
2, 311334, Note_on_c, 0, 78, 0
2, 311334, Note_on_c, 0, 83, 0
2, 311334, Note_on_c, 0, 71, 0
2, 311334, Note_on_c, 0, 85, 0
2, 311334, Note_on_c, 0, 90, 0
2, 311335, Note_on_c, 0, 73, 0
2, 311347, Note_on_c, 0, 81, 0
2, 311362, Control_c, 0, 64, 0
2, 311447, Control_c, 0, 64, 127
2, 311511, Note_on_c, 0, 81, 64
2, 311708, Note_on_c, 0, 83, 62
2, 311873, Note_on_c, 0, 90, 75
2, 312061, Note_on_c, 0, 81, 0
2, 312072, Note_on_c, 0, 81, 63
2, 312253, Note_on_c, 0, 83, 0
2, 312258, Note_on_c, 0, 83, 59
2, 312422, Note_on_c, 0, 90, 0
2, 312427, Note_on_c, 0, 90, 75
2, 312591, Note_on_c, 0, 81, 0
2, 312601, Note_on_c, 0, 81, 54
2, 312602, Note_on_c, 0, 71, 58
2, 312798, Note_on_c, 0, 83, 0
2, 312803, Note_on_c, 0, 73, 53
2, 312806, Note_on_c, 0, 83, 61
2, 312975, Note_on_c, 0, 90, 0
2, 312980, Note_on_c, 0, 90, 74
2, 312983, Note_on_c, 0, 74, 0
2, 312987, Note_on_c, 0, 74, 58
2, 313152, Note_on_c, 0, 81, 0
2, 313162, Note_on_c, 0, 81, 65
2, 313167, Note_on_c, 0, 71, 0
2, 313175, Note_on_c, 0, 71, 51
2, 313328, Note_on_c, 0, 83, 0
2, 313336, Note_on_c, 0, 73, 0
2, 313339, Note_on_c, 0, 83, 68
2, 313347, Note_on_c, 0, 73, 52
2, 313512, Note_on_c, 0, 90, 0
2, 313520, Note_on_c, 0, 74, 0
2, 313523, Note_on_c, 0, 90, 80
2, 313531, Note_on_c, 0, 74, 59
2, 313712, Note_on_c, 0, 71, 0
2, 313716, Note_on_c, 0, 71, 59
2, 313889, Note_on_c, 0, 73, 0
2, 313899, Note_on_c, 0, 73, 51
2, 314073, Note_on_c, 0, 74, 0
2, 314081, Note_on_c, 0, 74, 65
2, 314250, Note_on_c, 0, 71, 0
2, 314254, Note_on_c, 0, 71, 66
2, 314255, Note_on_c, 0, 67, 67
2, 314457, Note_on_c, 0, 81, 0
2, 314461, Note_on_c, 0, 81, 63
2, 314634, Note_on_c, 0, 83, 0
2, 314639, Note_on_c, 0, 83, 69
2, 314810, Note_on_c, 0, 90, 0
2, 314815, Note_on_c, 0, 90, 79
2, 314987, Note_on_c, 0, 81, 0
2, 314987, Note_on_c, 0, 90, 0
2, 314997, Note_on_c, 0, 81, 66
2, 314998, Note_on_c, 0, 90, 62
2, 315187, Note_on_c, 0, 83, 0
2, 315193, Note_on_c, 0, 83, 67
2, 315371, Note_on_c, 0, 90, 0
2, 315375, Note_on_c, 0, 90, 78
2, 315555, Note_on_c, 0, 71, 0
2, 315562, Note_on_c, 0, 71, 47
2, 315563, Note_on_c, 0, 81, 0
2, 315569, Note_on_c, 0, 81, 55
2, 315732, Note_on_c, 0, 83, 0
2, 315740, Note_on_c, 0, 73, 0
2, 315740, Note_on_c, 0, 83, 69
2, 315744, Note_on_c, 0, 73, 50
2, 315901, Note_on_c, 0, 90, 0
2, 315909, Note_on_c, 0, 74, 0
2, 315910, Note_on_c, 0, 90, 81
2, 315916, Note_on_c, 0, 74, 62
2, 315924, Note_on_c, 0, 59, 0
2, 315924, Note_on_c, 0, 66, 0
2, 316085, Note_on_c, 0, 81, 0
2, 316093, Note_on_c, 0, 71, 0
2, 316097, Note_on_c, 0, 81, 69
2, 316098, Note_on_c, 0, 71, 59
2, 316262, Note_on_c, 0, 83, 0
2, 316270, Note_on_c, 0, 73, 0
2, 316271, Note_on_c, 0, 83, 73
2, 316279, Note_on_c, 0, 73, 53
2, 316454, Note_on_c, 0, 74, 0
2, 316454, Note_on_c, 0, 90, 0
2, 316459, Note_on_c, 0, 90, 83
2, 316465, Note_on_c, 0, 74, 68
2, 316631, Note_on_c, 0, 71, 0
2, 316642, Note_on_c, 0, 71, 59
2, 316800, Note_on_c, 0, 67, 0
2, 316823, Note_on_c, 0, 73, 0
2, 316832, Note_on_c, 0, 73, 63
2, 316992, Note_on_c, 0, 74, 0
2, 316997, Note_on_c, 0, 74, 69
2, 317182, Note_on_c, 0, 59, 70
2, 317185, Note_on_c, 0, 66, 68
2, 317212, Note_on_c, 0, 83, 0
2, 317213, Note_on_c, 0, 71, 0
2, 317214, Note_on_c, 0, 73, 0
2, 317218, Control_c, 0, 64, 0
2, 317245, Note_on_c, 0, 81, 0
2, 317276, Control_c, 0, 64, 127
2, 317366, Note_on_c, 0, 81, 63
2, 317556, Note_on_c, 0, 83, 67
2, 317713, Note_on_c, 0, 90, 0
2, 317725, Note_on_c, 0, 90, 76
2, 317921, Note_on_c, 0, 81, 0
2, 317932, Note_on_c, 0, 81, 53
2, 318105, Note_on_c, 0, 83, 0
2, 318114, Note_on_c, 0, 83, 61
2, 318266, Note_on_c, 0, 90, 0
2, 318272, Note_on_c, 0, 90, 69
2, 318440, Note_on_c, 0, 71, 50
2, 318443, Note_on_c, 0, 81, 0
2, 318448, Note_on_c, 0, 81, 63
2, 318612, Note_on_c, 0, 83, 0
2, 318619, Note_on_c, 0, 73, 58
2, 318620, Note_on_c, 0, 83, 62
2, 318789, Note_on_c, 0, 90, 0
2, 318796, Note_on_c, 0, 74, 0
2, 318800, Note_on_c, 0, 90, 69
2, 318801, Note_on_c, 0, 74, 52
2, 318973, Note_on_c, 0, 71, 0
2, 318973, Note_on_c, 0, 81, 0
2, 318977, Note_on_c, 0, 81, 66
2, 318978, Note_on_c, 0, 71, 56
2, 319142, Note_on_c, 0, 83, 0
2, 319150, Note_on_c, 0, 73, 0
2, 319153, Note_on_c, 0, 83, 69
2, 319160, Note_on_c, 0, 73, 53
2, 319326, Note_on_c, 0, 90, 0
2, 319332, Note_on_c, 0, 90, 73
2, 319342, Note_on_c, 0, 74, 0
2, 319349, Note_on_c, 0, 81, 0
2, 319350, Note_on_c, 0, 74, 61
2, 319359, Note_on_c, 0, 81, 43
2, 319511, Note_on_c, 0, 71, 0
2, 319511, Note_on_c, 0, 81, 0
2, 319515, Note_on_c, 0, 71, 62
2, 319515, Note_on_c, 0, 81, 68
2, 319672, Note_on_c, 0, 73, 0
2, 319683, Note_on_c, 0, 73, 67
2, 319687, Note_on_c, 0, 83, 0
2, 319698, Note_on_c, 0, 83, 64
2, 319864, Note_on_c, 0, 74, 0
2, 319864, Note_on_c, 0, 90, 0
2, 319868, Note_on_c, 0, 74, 65
2, 319874, Note_on_c, 0, 62, 57
2, 319874, Note_on_c, 0, 90, 70
2, 320040, Note_on_c, 0, 71, 0
2, 320048, Note_on_c, 0, 59, 0
2, 320048, Note_on_c, 0, 81, 0
2, 320050, Note_on_c, 0, 71, 63
2, 320053, Note_on_c, 0, 59, 55
2, 320053, Note_on_c, 0, 81, 63
2, 320210, Note_on_c, 0, 61, 69
2, 320232, Note_on_c, 0, 83, 0
2, 320240, Note_on_c, 0, 71, 0
2, 320243, Note_on_c, 0, 83, 67
2, 320250, Note_on_c, 0, 71, 51
2, 320401, Note_on_c, 0, 61, 0
2, 320401, Note_on_c, 0, 62, 0
2, 320401, Note_on_c, 0, 74, 0
2, 320401, Note_on_c, 0, 90, 0
2, 320406, Note_on_c, 0, 62, 68
2, 320406, Note_on_c, 0, 90, 73
2, 320406, Note_on_c, 0, 74, 72
2, 320412, Note_on_c, 0, 61, 60
2, 320578, Note_on_c, 0, 59, 0
2, 320578, Note_on_c, 0, 71, 0
2, 320578, Note_on_c, 0, 81, 0
2, 320582, Note_on_c, 0, 71, 71
2, 320583, Note_on_c, 0, 59, 68
2, 320585, Note_on_c, 0, 81, 69
2, 320640, Note_on_c, 0, 66, 0
2, 320739, Note_on_c, 0, 61, 0
2, 320743, Note_on_c, 0, 61, 73
2, 320755, Note_on_c, 0, 83, 0
2, 320764, Note_on_c, 0, 83, 68
2, 320931, Note_on_c, 0, 62, 0
2, 320931, Note_on_c, 0, 74, 0
2, 320931, Note_on_c, 0, 90, 0
2, 320936, Note_on_c, 0, 74, 80
2, 320936, Note_on_c, 0, 62, 76
2, 320937, Note_on_c, 0, 90, 75
2, 321100, Note_on_c, 0, 59, 0
2, 321100, Note_on_c, 0, 71, 0
2, 321107, Note_on_c, 0, 59, 78
2, 321107, Note_on_c, 0, 71, 81
2, 321108, Note_on_c, 0, 81, 0
2, 321108, Note_on_c, 0, 83, 0
2, 321112, Note_on_c, 0, 83, 73
2, 321113, Note_on_c, 0, 81, 76
2, 321269, Note_on_c, 0, 61, 0
2, 321277, Note_on_c, 0, 73, 0
2, 321277, Note_on_c, 0, 83, 0
2, 321280, Note_on_c, 0, 61, 85
2, 321283, Note_on_c, 0, 73, 87
2, 321287, Note_on_c, 0, 83, 81
2, 321446, Note_on_c, 0, 62, 0
2, 321446, Note_on_c, 0, 74, 0
2, 321446, Note_on_c, 0, 90, 0
2, 321452, Note_on_c, 0, 86, 84
2, 321452, Note_on_c, 0, 74, 94
2, 321453, Note_on_c, 0, 62, 87
2, 321455, Note_on_c, 0, 90, 88
2, 321615, Note_on_c, 0, 59, 0
2, 321615, Note_on_c, 0, 71, 0
2, 321620, Note_on_c, 0, 59, 86
2, 321623, Note_on_c, 0, 81, 0
2, 321623, Note_on_c, 0, 83, 0
2, 321624, Note_on_c, 0, 71, 90
2, 321630, Note_on_c, 0, 81, 83
2, 321630, Note_on_c, 0, 83, 79
2, 321792, Note_on_c, 0, 61, 0
2, 321792, Note_on_c, 0, 73, 0
2, 321799, Note_on_c, 0, 83, 0
2, 321802, Note_on_c, 0, 61, 83
2, 321802, Note_on_c, 0, 73, 91
2, 321809, Note_on_c, 0, 83, 88
2, 321945, Note_on_c, 0, 62, 0
2, 321945, Note_on_c, 0, 74, 0
2, 321953, Note_on_c, 0, 90, 0
2, 321954, Note_on_c, 0, 74, 93
2, 321955, Note_on_c, 0, 62, 89
2, 321957, Note_on_c, 0, 90, 94
2, 322114, Note_on_c, 0, 59, 0
2, 322114, Note_on_c, 0, 71, 0
2, 322114, Note_on_c, 0, 83, 0
2, 322121, Note_on_c, 0, 71, 86
2, 322121, Note_on_c, 0, 59, 87
2, 322122, Note_on_c, 0, 83, 80
2, 322283, Note_on_c, 0, 61, 0
2, 322283, Note_on_c, 0, 73, 0
2, 322290, Note_on_c, 0, 73, 97
2, 322291, Note_on_c, 0, 61, 82
2, 322460, Note_on_c, 0, 62, 0
2, 322460, Note_on_c, 0, 74, 0
2, 322460, Note_on_c, 0, 86, 0
2, 322471, Note_on_c, 0, 86, 90
2, 322471, Note_on_c, 0, 62, 90
2, 322471, Note_on_c, 0, 74, 106
2, 322644, Note_on_c, 0, 62, 0
2, 322644, Note_on_c, 0, 74, 0
2, 322644, Note_on_c, 0, 86, 0
2, 322651, Note_on_c, 0, 74, 96
2, 322653, Note_on_c, 0, 62, 68
2, 322653, Note_on_c, 0, 86, 75
2, 322732, Note_on_c, 0, 76, 92
2, 322737, Note_on_c, 0, 88, 78
2, 322836, Note_on_c, 0, 78, 109
2, 322836, Note_on_c, 0, 59, 0
2, 322836, Note_on_c, 0, 71, 0
2, 322836, Note_on_c, 0, 83, 0
2, 322836, Note_on_c, 0, 86, 0
2, 322837, Control_c, 0, 64, 0
2, 322839, Note_on_c, 0, 61, 0
2, 322839, Note_on_c, 0, 62, 0
2, 322839, Note_on_c, 0, 90, 0
2, 322840, Note_on_c, 0, 73, 0
2, 322840, Note_on_c, 0, 74, 0
2, 322841, Note_on_c, 0, 88, 0
2, 322841, Note_on_c, 0, 86, 89
2, 322841, Note_on_c, 0, 76, 0
2, 322844, Note_on_c, 0, 83, 90
2, 322846, Note_on_c, 0, 71, 93
2, 322848, Note_on_c, 0, 59, 94
2, 322848, Note_on_c, 0, 50, 90
2, 322874, Note_on_c, 0, 81, 0
2, 322905, Control_c, 0, 64, 127
2, 323224, Note_on_c, 0, 88, 85
2, 323224, Note_on_c, 0, 76, 104
2, 323225, Note_on_c, 0, 64, 94
2, 323235, Note_on_c, 0, 88, 0
2, 323587, Note_on_c, 0, 79, 104
2, 323590, Note_on_c, 0, 67, 98
2, 323604, Note_on_c, 0, 78, 0
2, 323611, Note_on_c, 0, 78, 63
2, 323950, Note_on_c, 0, 78, 0
2, 323955, Note_on_c, 0, 78, 106
2, 323958, Note_on_c, 0, 66, 101
2, 324026, Note_on_c, 0, 83, 0
2, 324303, Note_on_c, 0, 86, 0
2, 324307, Note_on_c, 0, 66, 0
2, 324307, Note_on_c, 0, 59, 0
2, 324308, Note_on_c, 0, 71, 0
2, 324308, Note_on_c, 0, 50, 0
2, 324308, Note_on_c, 0, 78, 0
2, 324308, Note_on_c, 0, 67, 0
2, 324308, Note_on_c, 0, 76, 0
2, 324309, Control_c, 0, 64, 0
2, 324309, Note_on_c, 0, 79, 0
2, 324318, Note_on_c, 0, 64, 0
2, 324323, Note_on_c, 0, 73, 100
2, 324323, Note_on_c, 0, 45, 86
2, 324327, Note_on_c, 0, 64, 92
2, 324327, Note_on_c, 0, 33, 80
2, 324328, Note_on_c, 0, 69, 91
2, 324329, Note_on_c, 0, 61, 89
2, 324364, Control_c, 0, 64, 127
2, 324380, Note_on_c, 0, 33, 0
2, 324435, Note_on_c, 0, 52, 78
2, 324507, Note_on_c, 0, 57, 67
2, 324592, Note_on_c, 0, 59, 73
2, 324672, Note_on_c, 0, 61, 0
2, 324682, Note_on_c, 0, 61, 69
2, 324748, Note_on_c, 0, 64, 0
2, 324754, Note_on_c, 0, 64, 77
2, 324840, Note_on_c, 0, 69, 0
2, 324850, Note_on_c, 0, 69, 77
2, 324952, Note_on_c, 0, 71, 71
2, 325025, Note_on_c, 0, 73, 0
2, 325032, Note_on_c, 0, 73, 77
2, 325107, Note_on_c, 0, 76, 82
2, 325193, Note_on_c, 0, 81, 90
2, 325269, Note_on_c, 0, 88, 92
2, 325359, Note_on_c, 0, 93, 104
2, 325562, Note_on_c, 0, 76, 0
2, 325562, Note_on_c, 0, 81, 0
2, 325563, Note_on_c, 0, 86, 76
2, 325563, Note_on_c, 0, 74, 86
2, 325569, Note_on_c, 0, 76, 72
2, 325570, Note_on_c, 0, 86, 0
2, 325572, Note_on_c, 0, 81, 70
2, 325639, Note_on_c, 0, 76, 0
2, 325645, Note_on_c, 0, 76, 88
2, 325731, Note_on_c, 0, 74, 0
2, 325735, Control_c, 0, 64, 0
2, 325738, Note_on_c, 0, 93, 0
2, 325739, Note_on_c, 0, 71, 0
2, 325740, Note_on_c, 0, 81, 0
2, 325741, Note_on_c, 0, 69, 0
2, 325741, Note_on_c, 0, 73, 0
2, 325742, Note_on_c, 0, 78, 102
2, 325743, Note_on_c, 0, 74, 86
2, 325743, Note_on_c, 0, 88, 0
2, 325743, Note_on_c, 0, 62, 86
2, 325743, Note_on_c, 0, 45, 0
2, 325743, Note_on_c, 0, 64, 0
2, 325745, Note_on_c, 0, 76, 0
2, 325750, Note_on_c, 0, 71, 81
2, 325751, Note_on_c, 0, 54, 88
2, 325751, Note_on_c, 0, 47, 81
2, 325754, Note_on_c, 0, 61, 0
2, 325770, Note_on_c, 0, 57, 0
2, 325793, Control_c, 0, 64, 127
2, 326090, Note_on_c, 0, 76, 105
2, 326096, Note_on_c, 0, 64, 84
2, 326463, Note_on_c, 0, 79, 103
2, 326465, Note_on_c, 0, 67, 96
2, 326822, Note_on_c, 0, 78, 0
2, 326831, Note_on_c, 0, 78, 101
2, 326833, Note_on_c, 0, 66, 98
2, 326845, Note_on_c, 0, 76, 0
2, 326856, Note_on_c, 0, 76, 57
2, 327207, Control_c, 0, 64, 0
2, 327210, Note_on_c, 0, 62, 0
2, 327210, Note_on_c, 0, 74, 0
2, 327211, Note_on_c, 0, 71, 0
2, 327211, Note_on_c, 0, 66, 0
2, 327211, Note_on_c, 0, 76, 0
2, 327211, Note_on_c, 0, 67, 0
2, 327211, Note_on_c, 0, 79, 0
2, 327211, Note_on_c, 0, 69, 97
2, 327211, Note_on_c, 0, 78, 0
2, 327212, Note_on_c, 0, 54, 0
2, 327214, Note_on_c, 0, 47, 0
2, 327214, Note_on_c, 0, 64, 0
2, 327216, Note_on_c, 0, 57, 81
2, 327217, Note_on_c, 0, 49, 76
2, 327218, Note_on_c, 0, 64, 82
2, 327221, Note_on_c, 0, 52, 0
2, 327221, Note_on_c, 0, 59, 0
2, 327283, Control_c, 0, 64, 127
2, 327290, Note_on_c, 0, 49, 0
2, 327301, Note_on_c, 0, 49, 67
2, 327381, Note_on_c, 0, 52, 78
2, 327467, Note_on_c, 0, 57, 0
2, 327472, Note_on_c, 0, 57, 65
2, 327570, Note_on_c, 0, 61, 76
2, 327644, Note_on_c, 0, 64, 0
2, 327651, Note_on_c, 0, 64, 76
2, 327744, Note_on_c, 0, 69, 0
2, 327750, Note_on_c, 0, 69, 74
2, 327859, Note_on_c, 0, 73, 75
2, 327942, Note_on_c, 0, 76, 82
2, 328036, Note_on_c, 0, 81, 81
2, 328111, Note_on_c, 0, 85, 91
2, 328202, Note_on_c, 0, 88, 85
2, 328288, Note_on_c, 0, 93, 96
2, 328461, Note_on_c, 0, 86, 80
2, 328461, Note_on_c, 0, 74, 86
2, 328535, Note_on_c, 0, 76, 0
2, 328545, Note_on_c, 0, 76, 83
2, 328621, Note_on_c, 0, 93, 0
2, 328621, Control_c, 0, 64, 0
2, 328622, Note_on_c, 0, 69, 0
2, 328623, Note_on_c, 0, 73, 0
2, 328623, Note_on_c, 0, 88, 0
2, 328623, Note_on_c, 0, 61, 0
2, 328623, Note_on_c, 0, 85, 0
2, 328623, Note_on_c, 0, 81, 0
2, 328623, Note_on_c, 0, 52, 0
2, 328623, Note_on_c, 0, 86, 0
2, 328623, Note_on_c, 0, 57, 0
2, 328623, Note_on_c, 0, 76, 0
2, 328623, Note_on_c, 0, 64, 0
2, 328624, Note_on_c, 0, 49, 0
2, 328655, Note_on_c, 0, 78, 104
2, 328657, Note_on_c, 0, 74, 0
2, 328661, Note_on_c, 0, 59, 91
2, 328662, Note_on_c, 0, 71, 94
2, 328662, Note_on_c, 0, 74, 89
2, 328665, Note_on_c, 0, 50, 88
2, 328666, Note_on_c, 0, 83, 91
2, 328673, Note_on_c, 0, 83, 0
2, 328704, Control_c, 0, 64, 127
2, 329026, Note_on_c, 0, 50, 0
2, 329035, Note_on_c, 0, 76, 103
2, 329037, Note_on_c, 0, 64, 94
2, 329038, Note_on_c, 0, 50, 77
2, 329038, Note_on_c, 0, 55, 81
2, 329042, Control_c, 0, 64, 0
2, 329064, Control_c, 0, 64, 127
2, 329402, Note_on_c, 0, 55, 0
2, 329402, Note_on_c, 0, 59, 0
2, 329402, Note_on_c, 0, 71, 0
2, 329407, Note_on_c, 0, 79, 105
2, 329408, Note_on_c, 0, 59, 88
2, 329409, Note_on_c, 0, 55, 90
2, 329409, Note_on_c, 0, 67, 98
2, 329409, Note_on_c, 0, 71, 85
2, 329763, Note_on_c, 0, 74, 0
2, 329763, Note_on_c, 0, 78, 0
2, 329768, Note_on_c, 0, 74, 77
2, 329769, Note_on_c, 0, 78, 104
2, 329769, Note_on_c, 0, 62, 84
2, 329771, Note_on_c, 0, 59, 0
2, 329772, Note_on_c, 0, 66, 99
2, 329775, Note_on_c, 0, 59, 73
2, 330130, Control_c, 0, 64, 0
2, 330133, Note_on_c, 0, 74, 0
2, 330134, Note_on_c, 0, 55, 0
2, 330134, Note_on_c, 0, 66, 0
2, 330134, Note_on_c, 0, 50, 0
2, 330134, Note_on_c, 0, 62, 0
2, 330135, Note_on_c, 0, 78, 0
2, 330135, Note_on_c, 0, 71, 0
2, 330135, Note_on_c, 0, 67, 0
2, 330135, Note_on_c, 0, 59, 0
2, 330135, Note_on_c, 0, 79, 0
2, 330140, Note_on_c, 0, 64, 0
2, 330140, Note_on_c, 0, 76, 0
2, 330142, Note_on_c, 0, 73, 102
2, 330145, Note_on_c, 0, 61, 93
2, 330145, Note_on_c, 0, 64, 91
2, 330145, Note_on_c, 0, 69, 91
2, 330146, Note_on_c, 0, 76, 88
2, 330146, Note_on_c, 0, 45, 87
2, 330224, Control_c, 0, 64, 127
2, 330249, Note_on_c, 0, 52, 84
2, 330328, Note_on_c, 0, 57, 74
2, 330414, Note_on_c, 0, 59, 77
2, 330524, Note_on_c, 0, 61, 0
2, 330528, Note_on_c, 0, 61, 76
2, 330577, Note_on_c, 0, 64, 0
2, 330587, Note_on_c, 0, 64, 77
2, 330670, Note_on_c, 0, 69, 0
2, 330678, Note_on_c, 0, 69, 81
2, 330788, Note_on_c, 0, 71, 77
2, 330862, Note_on_c, 0, 73, 0
2, 330873, Note_on_c, 0, 73, 78
2, 330946, Note_on_c, 0, 76, 0
2, 330950, Note_on_c, 0, 76, 83
2, 331037, Note_on_c, 0, 81, 87
2, 331100, Note_on_c, 0, 76, 0
2, 331106, Note_on_c, 0, 88, 85
2, 331111, Note_on_c, 0, 76, 74
2, 331191, Note_on_c, 0, 93, 97
2, 331370, Note_on_c, 0, 86, 82
2, 331370, Note_on_c, 0, 74, 93
2, 331461, Note_on_c, 0, 73, 0
2, 331470, Note_on_c, 0, 73, 82
2, 331560, Note_on_c, 0, 71, 0
2, 331560, Note_on_c, 0, 74, 0
2, 331560, Note_on_c, 0, 86, 0
2, 331565, Control_c, 0, 64, 0
2, 331566, Note_on_c, 0, 57, 0
2, 331567, Note_on_c, 0, 52, 0
2, 331567, Note_on_c, 0, 69, 0
2, 331567, Note_on_c, 0, 93, 0
2, 331568, Note_on_c, 0, 71, 89
2, 331568, Note_on_c, 0, 45, 0
2, 331569, Note_on_c, 0, 81, 0
2, 331570, Note_on_c, 0, 73, 0
2, 331570, Note_on_c, 0, 61, 0
2, 331570, Note_on_c, 0, 64, 0
2, 331570, Note_on_c, 0, 74, 80
2, 331571, Note_on_c, 0, 76, 0
2, 331572, Note_on_c, 0, 88, 0
2, 331576, Note_on_c, 0, 59, 0
2, 331576, Note_on_c, 0, 66, 87
2, 331580, Note_on_c, 0, 54, 82
2, 331581, Note_on_c, 0, 62, 79
2, 331587, Note_on_c, 0, 59, 72
2, 331594, Note_on_c, 0, 47, 73
2, 331706, Control_c, 0, 64, 127
2, 332125, Note_on_c, 0, 81, 64
2, 332317, Note_on_c, 0, 83, 61
2, 332508, Note_on_c, 0, 90, 67
2, 332659, Note_on_c, 0, 71, 0
2, 332666, Note_on_c, 0, 71, 55
2, 332689, Note_on_c, 0, 81, 0
2, 332694, Note_on_c, 0, 81, 59
2, 332851, Note_on_c, 0, 83, 0
2, 332857, Note_on_c, 0, 73, 47
2, 332858, Note_on_c, 0, 83, 62
2, 332866, Note_on_c, 0, 71, 0
2, 332874, Note_on_c, 0, 71, 37
2, 333027, Note_on_c, 0, 74, 0
2, 333027, Note_on_c, 0, 90, 0
2, 333036, Note_on_c, 0, 90, 81
2, 333038, Note_on_c, 0, 74, 51
2, 333219, Note_on_c, 0, 71, 0
2, 333219, Note_on_c, 0, 81, 0
2, 333226, Note_on_c, 0, 71, 59
2, 333230, Note_on_c, 0, 81, 70
2, 333404, Note_on_c, 0, 73, 0
2, 333404, Note_on_c, 0, 83, 0
2, 333409, Note_on_c, 0, 83, 65
2, 333415, Note_on_c, 0, 73, 49
2, 333603, Note_on_c, 0, 74, 0
2, 333603, Note_on_c, 0, 83, 0
2, 333607, Note_on_c, 0, 95, 73
2, 333612, Note_on_c, 0, 74, 59
2, 333613, Note_on_c, 0, 83, 63
2, 334601, Note_on_c, 0, 57, 53
2, 334778, Note_on_c, 0, 59, 0
2, 334787, Note_on_c, 0, 59, 71
2, 334807, Note_on_c, 0, 50, 48
2, 334812, Note_on_c, 0, 47, 0
2, 334823, Note_on_c, 0, 55, 38
2, 334836, Note_on_c, 0, 43, 36
2, 334855, Note_on_c, 0, 81, 0
2, 334871, Note_on_c, 0, 74, 0
2, 334886, Note_on_c, 0, 54, 0
2, 334894, Note_on_c, 0, 73, 0
2, 334894, Note_on_c, 0, 95, 0
2, 334933, Control_c, 0, 64, 0
2, 334940, Note_on_c, 0, 90, 0
2, 334955, Note_on_c, 0, 83, 0
2, 334993, Note_on_c, 0, 62, 0
2, 335001, Note_on_c, 0, 66, 0
2, 335016, Note_on_c, 0, 57, 0
2, 335032, Control_c, 0, 64, 127
2, 335070, Note_on_c, 0, 71, 0
2, 335166, Note_on_c, 0, 64, 62
2, 335347, Note_on_c, 0, 64, 0
2, 335357, Note_on_c, 0, 64, 62
2, 335747, Note_on_c, 0, 81, 57
2, 335920, Note_on_c, 0, 83, 59
2, 336103, Note_on_c, 0, 90, 69
2, 336103, Note_on_c, 0, 57, 63
2, 336291, Note_on_c, 0, 59, 0
2, 336300, Note_on_c, 0, 59, 69
2, 336318, Note_on_c, 0, 50, 0
2, 336319, Note_on_c, 0, 81, 0
2, 336319, Note_on_c, 0, 43, 0
2, 336319, Note_on_c, 0, 57, 0
2, 336319, Control_c, 0, 64, 0
2, 336319, Note_on_c, 0, 83, 0
2, 336320, Note_on_c, 0, 55, 0
2, 336320, Note_on_c, 0, 64, 0
2, 336326, Note_on_c, 0, 52, 57
2, 336326, Note_on_c, 0, 45, 51
2, 336337, Note_on_c, 0, 90, 0
2, 336391, Control_c, 0, 64, 127
2, 336674, Note_on_c, 0, 64, 67
2, 336860, Note_on_c, 0, 64, 0
2, 336871, Note_on_c, 0, 64, 73
2, 337238, Note_on_c, 0, 81, 63
2, 337409, Note_on_c, 0, 83, 63
2, 337591, Note_on_c, 0, 62, 71
2, 337593, Note_on_c, 0, 90, 69
2, 337769, Note_on_c, 0, 61, 71
2, 337778, Note_on_c, 0, 81, 0
2, 337779, Note_on_c, 0, 54, 61
2, 337779, Note_on_c, 0, 45, 0
2, 337779, Note_on_c, 0, 52, 0
2, 337781, Note_on_c, 0, 62, 0
2, 337781, Note_on_c, 0, 83, 0
2, 337781, Note_on_c, 0, 90, 0
2, 337787, Note_on_c, 0, 47, 58
2, 337789, Control_c, 0, 64, 0
2, 337789, Note_on_c, 0, 59, 0
2, 337797, Note_on_c, 0, 64, 0
2, 337873, Control_c, 0, 64, 127
2, 337943, Note_on_c, 0, 61, 0
2, 337954, Note_on_c, 0, 61, 77
2, 338119, Note_on_c, 0, 61, 0
2, 338126, Note_on_c, 0, 61, 74
2, 338313, Note_on_c, 0, 62, 78
2, 338480, Note_on_c, 0, 61, 0
2, 338482, Note_on_c, 0, 62, 0
2, 338486, Note_on_c, 0, 61, 71
2, 338690, Note_on_c, 0, 59, 70
2, 338718, Control_c, 0, 64, 0
2, 338803, Control_c, 0, 64, 127
2, 338872, Note_on_c, 0, 61, 0
2, 338925, Note_on_c, 0, 47, 0
2, 338925, Note_on_c, 0, 54, 0
2, 339067, Note_on_c, 0, 81, 67
2, 339268, Note_on_c, 0, 83, 58
2, 339437, Note_on_c, 0, 90, 63
2, 339617, Note_on_c, 0, 81, 0
2, 339617, Note_on_c, 0, 90, 0
2, 339621, Note_on_c, 0, 81, 49
2, 339622, Note_on_c, 0, 90, 43
2, 339786, Note_on_c, 0, 83, 0
2, 339790, Note_on_c, 0, 83, 71
2, 339978, Note_on_c, 0, 90, 0
2, 339986, Note_on_c, 0, 90, 64
2, 340162, Note_on_c, 0, 81, 0
2, 340166, Note_on_c, 0, 81, 59
2, 340323, Note_on_c, 0, 83, 0
2, 340328, Note_on_c, 0, 83, 55
2, 340502, Note_on_c, 0, 57, 66
2, 340508, Note_on_c, 0, 90, 0
2, 340513, Note_on_c, 0, 90, 51
2, 340700, Note_on_c, 0, 59, 0
2, 340702, Note_on_c, 0, 81, 0
2, 340703, Note_on_c, 0, 90, 0
2, 340704, Note_on_c, 0, 83, 0
2, 340704, Note_on_c, 0, 57, 0
2, 340705, Control_c, 0, 64, 0
2, 340710, Note_on_c, 0, 59, 69
2, 340725, Note_on_c, 0, 50, 52
2, 340761, Control_c, 0, 64, 127
2, 341055, Note_on_c, 0, 64, 72
2, 341237, Note_on_c, 0, 64, 0
2, 341243, Note_on_c, 0, 64, 76
2, 341623, Note_on_c, 0, 81, 67
2, 341810, Note_on_c, 0, 83, 67
2, 341979, Note_on_c, 0, 90, 72
2, 341981, Note_on_c, 0, 57, 69
2, 342167, Note_on_c, 0, 59, 0
2, 342177, Note_on_c, 0, 59, 69
2, 342178, Note_on_c, 0, 52, 68
2, 342186, Note_on_c, 0, 45, 60
2, 342186, Note_on_c, 0, 50, 0
2, 342186, Note_on_c, 0, 57, 0
2, 342187, Note_on_c, 0, 64, 0
2, 342187, Note_on_c, 0, 81, 0
2, 342187, Note_on_c, 0, 83, 0
2, 342187, Control_c, 0, 64, 0
2, 342220, Note_on_c, 0, 90, 0
2, 342259, Control_c, 0, 64, 127
2, 342541, Note_on_c, 0, 64, 71
2, 342720, Note_on_c, 0, 64, 0
2, 342730, Note_on_c, 0, 64, 75
2, 343084, Note_on_c, 0, 81, 75
2, 343116, Note_on_c, 0, 76, 37
2, 343246, Note_on_c, 0, 83, 66
2, 343415, Note_on_c, 0, 90, 77
2, 343442, Note_on_c, 0, 62, 68
2, 343630, Note_on_c, 0, 54, 62
2, 343633, Note_on_c, 0, 64, 0
2, 343638, Note_on_c, 0, 64, 70
2, 343642, Note_on_c, 0, 81, 0
2, 343643, Note_on_c, 0, 52, 0
2, 343644, Note_on_c, 0, 45, 0
2, 343644, Note_on_c, 0, 90, 0
2, 343645, Note_on_c, 0, 62, 0
2, 343645, Note_on_c, 0, 83, 0
2, 343649, Control_c, 0, 64, 0
2, 343664, Note_on_c, 0, 59, 0
2, 343680, Note_on_c, 0, 76, 0
2, 343682, Note_on_c, 0, 47, 56
2, 343749, Control_c, 0, 64, 127
2, 343996, Note_on_c, 0, 62, 74
2, 344005, Note_on_c, 0, 64, 0
2, 344184, Note_on_c, 0, 64, 81
2, 344222, Note_on_c, 0, 62, 0
2, 344522, Note_on_c, 0, 69, 75
2, 344727, Note_on_c, 0, 66, 79
2, 344793, Note_on_c, 0, 69, 0
2, 344797, Note_on_c, 0, 69, 58
2, 344974, Note_on_c, 0, 81, 52
2, 345130, Note_on_c, 0, 83, 58
2, 345297, Note_on_c, 0, 90, 71
2, 345469, Note_on_c, 0, 81, 0
2, 345477, Note_on_c, 0, 90, 0
2, 345480, Note_on_c, 0, 81, 65
2, 345485, Note_on_c, 0, 90, 56
2, 345638, Note_on_c, 0, 83, 0
2, 345643, Note_on_c, 0, 83, 61
2, 345838, Note_on_c, 0, 90, 0
2, 345847, Note_on_c, 0, 90, 44
2, 346007, Note_on_c, 0, 69, 0
2, 346017, Note_on_c, 0, 69, 59
2, 346179, Note_on_c, 0, 71, 79
2, 346355, Note_on_c, 0, 74, 86
2, 346537, Note_on_c, 0, 69, 0
2, 346538, Note_on_c, 0, 81, 0
2, 346538, Note_on_c, 0, 71, 0
2, 346538, Note_on_c, 0, 83, 0
2, 346539, Note_on_c, 0, 54, 0
2, 346540, Note_on_c, 0, 64, 0
2, 346540, Note_on_c, 0, 74, 0
2, 346540, Note_on_c, 0, 47, 0
2, 346542, Note_on_c, 0, 76, 88
2, 346542, Note_on_c, 0, 66, 0
2, 346542, Control_c, 0, 64, 0
2, 346552, Note_on_c, 0, 90, 0
2, 346556, Note_on_c, 0, 43, 58
2, 346675, Control_c, 0, 64, 127
2, 346729, Note_on_c, 0, 50, 59
2, 346882, Note_on_c, 0, 50, 0
2, 346892, Note_on_c, 0, 74, 77
2, 346892, Note_on_c, 0, 50, 49
2, 346900, Note_on_c, 0, 57, 61
2, 347087, Note_on_c, 0, 59, 62
2, 347092, Note_on_c, 0, 78, 88
2, 347428, Note_on_c, 0, 55, 63
2, 347630, Note_on_c, 0, 66, 69
2, 347635, Note_on_c, 0, 59, 0
2, 347640, Note_on_c, 0, 62, 51
2, 347641, Note_on_c, 0, 59, 53
2, 347788, Note_on_c, 0, 74, 0
2, 347798, Note_on_c, 0, 74, 81
2, 347979, Note_on_c, 0, 50, 0
2, 347980, Note_on_c, 0, 78, 0
2, 347980, Note_on_c, 0, 74, 0
2, 347980, Note_on_c, 0, 55, 0
2, 347980, Note_on_c, 0, 62, 0
2, 347980, Note_on_c, 0, 66, 0
2, 347980, Note_on_c, 0, 59, 0
2, 347981, Note_on_c, 0, 57, 0
2, 347983, Control_c, 0, 64, 0
2, 347984, Note_on_c, 0, 43, 0
2, 347988, Note_on_c, 0, 76, 0
2, 347989, Note_on_c, 0, 45, 68
2, 347999, Note_on_c, 0, 76, 88
2, 348034, Control_c, 0, 64, 127
2, 348167, Note_on_c, 0, 52, 68
2, 348188, Note_on_c, 0, 76, 0
2, 348192, Note_on_c, 0, 76, 56
2, 348288, Note_on_c, 0, 76, 0
2, 348295, Note_on_c, 0, 76, 48
2, 348340, Note_on_c, 0, 57, 67
2, 348346, Note_on_c, 0, 74, 79
2, 348537, Note_on_c, 0, 78, 83
2, 348537, Note_on_c, 0, 59, 64
2, 348672, Note_on_c, 0, 78, 0
2, 348677, Note_on_c, 0, 78, 66
2, 348871, Note_on_c, 0, 78, 0
2, 348877, Note_on_c, 0, 69, 55
2, 348879, Note_on_c, 0, 78, 56
2, 348887, Note_on_c, 0, 69, 0
2, 348956, Note_on_c, 0, 76, 0
2, 348960, Note_on_c, 0, 76, 46
2, 349075, Note_on_c, 0, 66, 63
2, 349080, Note_on_c, 0, 64, 55
2, 349086, Note_on_c, 0, 78, 0
2, 349092, Note_on_c, 0, 78, 49
2, 349098, Note_on_c, 0, 61, 49
2, 349248, Note_on_c, 0, 74, 0
2, 349256, Note_on_c, 0, 74, 76
2, 349421, Control_c, 0, 64, 0
2, 349427, Note_on_c, 0, 59, 0
2, 349427, Note_on_c, 0, 52, 0
2, 349427, Note_on_c, 0, 78, 0
2, 349427, Note_on_c, 0, 73, 80
2, 349428, Note_on_c, 0, 61, 0
2, 349428, Note_on_c, 0, 74, 0
2, 349428, Note_on_c, 0, 45, 0
2, 349428, Note_on_c, 0, 66, 0
2, 349428, Note_on_c, 0, 76, 0
2, 349428, Note_on_c, 0, 64, 0
2, 349428, Note_on_c, 0, 47, 68
2, 349455, Note_on_c, 0, 57, 0
2, 349486, Control_c, 0, 64, 127
2, 349534, Note_on_c, 0, 74, 58
2, 349593, Note_on_c, 0, 73, 0
2, 349597, Note_on_c, 0, 73, 77
2, 349609, Note_on_c, 0, 54, 64
2, 349770, Note_on_c, 0, 73, 0
2, 349774, Note_on_c, 0, 73, 81
2, 349777, Note_on_c, 0, 57, 66
2, 349954, Note_on_c, 0, 74, 0
2, 349958, Note_on_c, 0, 74, 82
2, 349965, Note_on_c, 0, 59, 60
2, 350062, Note_on_c, 0, 74, 0
2, 350072, Note_on_c, 0, 74, 66
2, 350123, Note_on_c, 0, 73, 0
2, 350132, Note_on_c, 0, 73, 78
2, 350200, Note_on_c, 0, 74, 0
2, 350205, Note_on_c, 0, 74, 60
2, 350294, Control_c, 0, 64, 0
2, 350316, Note_on_c, 0, 71, 77
2, 350323, Note_on_c, 0, 54, 0
2, 350333, Note_on_c, 0, 54, 45
2, 350353, Note_on_c, 0, 57, 0
2, 350361, Control_c, 0, 64, 127
2, 350451, Control_c, 0, 64, 0
2, 350469, Control_c, 0, 64, 127
2, 350484, Note_on_c, 0, 59, 0
2, 350488, Note_on_c, 0, 59, 52
2, 350494, Note_on_c, 0, 62, 55
2, 350668, Note_on_c, 0, 71, 0
2, 350678, Note_on_c, 0, 71, 72
2, 350822, Note_on_c, 0, 73, 0
2, 350827, Control_c, 0, 64, 0
2, 350828, Note_on_c, 0, 62, 0
2, 350828, Note_on_c, 0, 47, 0
2, 350829, Note_on_c, 0, 54, 0
2, 350829, Note_on_c, 0, 74, 0
2, 350830, Note_on_c, 0, 59, 0
2, 350871, Note_on_c, 0, 47, 57
2, 350883, Control_c, 0, 64, 127
2, 350891, Note_on_c, 0, 71, 0
2, 350901, Note_on_c, 0, 71, 47
2, 351063, Note_on_c, 0, 54, 54
2, 351219, Note_on_c, 0, 57, 64
2, 351415, Note_on_c, 0, 81, 92
2, 351416, Note_on_c, 0, 59, 70
2, 351774, Note_on_c, 0, 54, 0
2, 351779, Note_on_c, 0, 54, 58
2, 351959, Note_on_c, 0, 59, 0
2, 351968, Note_on_c, 0, 78, 89
2, 351969, Note_on_c, 0, 59, 74
2, 351969, Note_on_c, 0, 62, 69
2, 352298, Note_on_c, 0, 81, 0
2, 352299, Note_on_c, 0, 54, 0
2, 352299, Note_on_c, 0, 71, 0
2, 352300, Note_on_c, 0, 62, 0
2, 352301, Note_on_c, 0, 59, 0
2, 352301, Control_c, 0, 64, 0
2, 352312, Note_on_c, 0, 57, 0
2, 352320, Note_on_c, 0, 47, 0
2, 352330, Note_on_c, 0, 76, 86
2, 352333, Note_on_c, 0, 43, 62
2, 352366, Control_c, 0, 64, 127
2, 352496, Note_on_c, 0, 76, 0
2, 352504, Note_on_c, 0, 76, 80
2, 352506, Note_on_c, 0, 50, 66
2, 352680, Note_on_c, 0, 76, 0
2, 352686, Note_on_c, 0, 76, 79
2, 352688, Note_on_c, 0, 57, 64
2, 352857, Note_on_c, 0, 59, 63
2, 352857, Note_on_c, 0, 78, 0
2, 352863, Note_on_c, 0, 78, 88
2, 353034, Note_on_c, 0, 76, 0
2, 353045, Note_on_c, 0, 76, 87
2, 353189, Note_on_c, 0, 55, 63
2, 353395, Note_on_c, 0, 59, 0
2, 353395, Note_on_c, 0, 69, 72
2, 353398, Note_on_c, 0, 66, 61
2, 353398, Note_on_c, 0, 62, 54
2, 353399, Note_on_c, 0, 59, 61
2, 353564, Note_on_c, 0, 76, 0
2, 353572, Note_on_c, 0, 76, 90
2, 353679, Note_on_c, 0, 55, 0
2, 353679, Note_on_c, 0, 62, 0
2, 353680, Note_on_c, 0, 59, 0
2, 353680, Note_on_c, 0, 78, 0
2, 353681, Note_on_c, 0, 57, 0
2, 353681, Note_on_c, 0, 43, 0
2, 353681, Note_on_c, 0, 66, 0
2, 353683, Control_c, 0, 64, 0
2, 353687, Note_on_c, 0, 50, 0
2, 353746, Note_on_c, 0, 45, 71
2, 353756, Control_c, 0, 64, 127
2, 353909, Note_on_c, 0, 76, 0
2, 353920, Note_on_c, 0, 76, 78
2, 353928, Note_on_c, 0, 52, 66
2, 354094, Note_on_c, 0, 76, 0
2, 354097, Note_on_c, 0, 57, 65
2, 354098, Note_on_c, 0, 76, 86
2, 354274, Note_on_c, 0, 59, 63
2, 354276, Note_on_c, 0, 78, 88
2, 354462, Note_on_c, 0, 76, 0
2, 354472, Note_on_c, 0, 76, 87
2, 354631, Note_on_c, 0, 57, 0
2, 354631, Note_on_c, 0, 69, 0
2, 354636, Note_on_c, 0, 57, 57
2, 354641, Note_on_c, 0, 69, 60
2, 354817, Note_on_c, 0, 66, 69
2, 354824, Note_on_c, 0, 74, 84
2, 354826, Note_on_c, 0, 61, 62
2, 355010, Note_on_c, 0, 73, 85
2, 355031, Note_on_c, 0, 61, 0
2, 355038, Note_on_c, 0, 61, 49
2, 355130, Note_on_c, 0, 57, 0
2, 355131, Note_on_c, 0, 66, 0
2, 355131, Note_on_c, 0, 76, 0
2, 355132, Note_on_c, 0, 61, 0
2, 355132, Note_on_c, 0, 52, 0
2, 355132, Note_on_c, 0, 74, 0
2, 355133, Note_on_c, 0, 78, 0
2, 355133, Note_on_c, 0, 69, 0
2, 355142, Control_c, 0, 64, 0
2, 355153, Note_on_c, 0, 45, 0
2, 355153, Note_on_c, 0, 59, 0
2, 355158, Note_on_c, 0, 45, 45
2, 355176, Note_on_c, 0, 47, 59
2, 355200, Note_on_c, 0, 45, 0
2, 355269, Control_c, 0, 64, 127
2, 355343, Note_on_c, 0, 54, 52
2, 355511, Note_on_c, 0, 57, 58
2, 355696, Note_on_c, 0, 59, 62
2, 356052, Note_on_c, 0, 54, 0
2, 356061, Note_on_c, 0, 54, 56
2, 356226, Note_on_c, 0, 62, 64
2, 356425, Note_on_c, 0, 71, 64
2, 356524, Note_on_c, 0, 54, 0
2, 356524, Note_on_c, 0, 62, 0
2, 356525, Note_on_c, 0, 57, 0
2, 356525, Note_on_c, 0, 59, 0
2, 356529, Control_c, 0, 64, 0
2, 356544, Note_on_c, 0, 73, 0
2, 356582, Note_on_c, 0, 47, 0
2, 356587, Note_on_c, 0, 47, 59
2, 356674, Control_c, 0, 64, 127
2, 356765, Note_on_c, 0, 54, 44
2, 356931, Note_on_c, 0, 57, 53
2, 357123, Note_on_c, 0, 74, 67
2, 357131, Note_on_c, 0, 71, 0
2, 357131, Note_on_c, 0, 54, 0
2, 357131, Control_c, 0, 64, 0
2, 357131, Note_on_c, 0, 57, 0
2, 357150, Note_on_c, 0, 47, 0
2, 357154, Note_on_c, 0, 47, 42
2, 357155, Note_on_c, 0, 59, 46
2, 357227, Control_c, 0, 64, 127
2, 357235, Note_on_c, 0, 59, 0
2, 357243, Note_on_c, 0, 59, 46
2, 357480, Note_on_c, 0, 74, 0
2, 357492, Note_on_c, 0, 74, 68
2, 357511, Note_on_c, 0, 59, 0
2, 357516, Note_on_c, 0, 59, 37
2, 357670, Control_c, 0, 64, 0
2, 357672, Note_on_c, 0, 59, 0
2, 357675, Note_on_c, 0, 74, 0
2, 357680, Note_on_c, 0, 59, 52
2, 357682, Note_on_c, 0, 73, 70
2, 357749, Note_on_c, 0, 47, 0
2, 357765, Control_c, 0, 64, 127
2, 357867, Note_on_c, 0, 74, 74
2, 358055, Note_on_c, 0, 74, 0
2, 358055, Note_on_c, 0, 59, 0
2, 358056, Control_c, 0, 64, 0
2, 358066, Note_on_c, 0, 76, 76
2, 358077, Note_on_c, 0, 61, 51
2, 358087, Note_on_c, 0, 73, 0
2, 358098, Note_on_c, 0, 69, 36
2, 358106, Note_on_c, 0, 64, 31
2, 358256, Control_c, 0, 64, 127
2, 358433, Note_on_c, 0, 76, 0
2, 358437, Note_on_c, 0, 76, 71
2, 358448, Note_on_c, 0, 61, 0
2, 358458, Note_on_c, 0, 61, 38
2, 358625, Note_on_c, 0, 76, 0
2, 358634, Note_on_c, 0, 76, 68
2, 358770, Note_on_c, 0, 61, 0
2, 358773, Note_on_c, 0, 64, 0
2, 358774, Control_c, 0, 64, 0
2, 358809, Note_on_c, 0, 69, 0
2, 358813, Note_on_c, 0, 64, 35
2, 358815, Note_on_c, 0, 61, 44
2, 358817, Note_on_c, 0, 69, 40
2, 358894, Control_c, 0, 64, 127
2, 359178, Note_on_c, 0, 69, 0
2, 359183, Note_on_c, 0, 69, 69
2, 359366, Note_on_c, 0, 79, 81
2, 359377, Note_on_c, 0, 69, 0
2, 359387, Note_on_c, 0, 69, 46
2, 359532, Control_c, 0, 64, 0
2, 359538, Note_on_c, 0, 61, 0
2, 359539, Note_on_c, 0, 69, 0
2, 359546, Note_on_c, 0, 62, 50
2, 359548, Note_on_c, 0, 69, 50
2, 359549, Note_on_c, 0, 66, 47
2, 359554, Note_on_c, 0, 76, 0
2, 359562, Note_on_c, 0, 64, 0
2, 359732, Note_on_c, 0, 78, 75
2, 359792, Note_on_c, 0, 79, 0
2, 359917, Note_on_c, 0, 76, 63
2, 359946, Control_c, 0, 64, 127
2, 360084, Note_on_c, 0, 78, 0
2, 360093, Note_on_c, 0, 78, 74
2, 360261, Note_on_c, 0, 69, 0
2, 360261, Note_on_c, 0, 78, 0
2, 360266, Note_on_c, 0, 78, 58
2, 360268, Note_on_c, 0, 76, 0
2, 360270, Note_on_c, 0, 69, 52
2, 360284, Note_on_c, 0, 66, 0
2, 360291, Note_on_c, 0, 62, 0
2, 360294, Note_on_c, 0, 66, 50
2, 360295, Control_c, 0, 64, 0
2, 360296, Note_on_c, 0, 62, 43
2, 360529, Control_c, 0, 64, 127
2, 360846, Note_on_c, 0, 74, 70
2, 361010, Note_on_c, 0, 66, 0
2, 361010, Note_on_c, 0, 62, 0
2, 361010, Note_on_c, 0, 69, 0
2, 361011, Note_on_c, 0, 78, 0
2, 361011, Note_on_c, 0, 74, 0
2, 361017, Control_c, 0, 64, 0
2, 361031, Note_on_c, 0, 76, 77
2, 361046, Note_on_c, 0, 61, 48
2, 361050, Note_on_c, 0, 57, 46
2, 361056, Note_on_c, 0, 69, 49
2, 361057, Note_on_c, 0, 64, 39
2, 361182, Control_c, 0, 64, 127
2, 361390, Note_on_c, 0, 76, 0
2, 361396, Note_on_c, 0, 76, 71
2, 361574, Note_on_c, 0, 76, 0
2, 361579, Note_on_c, 0, 76, 73
2, 361747, Control_c, 0, 64, 0
2, 361766, Note_on_c, 0, 69, 0
2, 361774, Note_on_c, 0, 57, 0
2, 361774, Note_on_c, 0, 64, 0
2, 361777, Note_on_c, 0, 69, 51
2, 361778, Note_on_c, 0, 64, 40
2, 361778, Note_on_c, 0, 57, 44
2, 361781, Note_on_c, 0, 61, 0
2, 361789, Note_on_c, 0, 61, 46
2, 361955, Note_on_c, 0, 78, 72
2, 362019, Control_c, 0, 64, 127
2, 362122, Note_on_c, 0, 79, 78
2, 362304, Note_on_c, 0, 78, 0
2, 362309, Note_on_c, 0, 78, 79
2, 362464, Control_c, 0, 64, 0
2, 362468, Note_on_c, 0, 61, 0
2, 362469, Note_on_c, 0, 64, 0
2, 362469, Note_on_c, 0, 79, 0
2, 362472, Note_on_c, 0, 57, 0
2, 362480, Note_on_c, 0, 76, 0
2, 362488, Note_on_c, 0, 69, 0
2, 362498, Note_on_c, 0, 69, 49
2, 362505, Note_on_c, 0, 62, 51
2, 362507, Note_on_c, 0, 59, 47
2, 362507, Note_on_c, 0, 66, 53
2, 362833, Control_c, 0, 64, 127
2, 363202, Note_on_c, 0, 69, 0
2, 363213, Note_on_c, 0, 69, 52
2, 363217, Note_on_c, 0, 59, 0
2, 363217, Note_on_c, 0, 66, 0
2, 363225, Note_on_c, 0, 66, 49
2, 363225, Note_on_c, 0, 62, 0
2, 363226, Note_on_c, 0, 59, 48
2, 363228, Control_c, 0, 64, 0
2, 363234, Note_on_c, 0, 62, 43
2, 363294, Control_c, 0, 64, 127
2, 363340, Note_on_c, 0, 78, 0
2, 363561, Note_on_c, 0, 74, 79
2, 363936, Note_on_c, 0, 83, 91
2, 363943, Note_on_c, 0, 62, 0
2, 363945, Note_on_c, 0, 59, 0
2, 363946, Note_on_c, 0, 74, 0
2, 363947, Note_on_c, 0, 66, 0
2, 363951, Note_on_c, 0, 55, 65
2, 363952, Control_c, 0, 64, 0
2, 363957, Note_on_c, 0, 79, 74
2, 363970, Note_on_c, 0, 69, 0
2, 364078, Control_c, 0, 64, 127
2, 364114, Note_on_c, 0, 74, 52
2, 364120, Note_on_c, 0, 62, 56
2, 364291, Note_on_c, 0, 71, 66
2, 364477, Note_on_c, 0, 55, 0
2, 364477, Note_on_c, 0, 71, 0
2, 364482, Note_on_c, 0, 71, 59
2, 364484, Note_on_c, 0, 55, 75
2, 364838, Note_on_c, 0, 62, 0
2, 364842, Note_on_c, 0, 62, 66
2, 365007, Note_on_c, 0, 71, 0
2, 365011, Note_on_c, 0, 71, 72
2, 365017, Note_on_c, 0, 85, 85
2, 365203, Note_on_c, 0, 86, 93
2, 365303, Control_c, 0, 64, 0
2, 365308, Note_on_c, 0, 83, 0
2, 365308, Note_on_c, 0, 71, 0
2, 365309, Note_on_c, 0, 62, 0
2, 365309, Note_on_c, 0, 85, 0
2, 365311, Note_on_c, 0, 55, 0
2, 365352, Note_on_c, 0, 74, 0
2, 365362, Note_on_c, 0, 54, 67
2, 365376, Note_on_c, 0, 79, 0
2, 365383, Control_c, 0, 64, 127
2, 365539, Note_on_c, 0, 62, 65
2, 365540, Note_on_c, 0, 81, 83
2, 365710, Note_on_c, 0, 69, 63
2, 365885, Note_on_c, 0, 74, 80
2, 365890, Note_on_c, 0, 54, 0
2, 365898, Note_on_c, 0, 69, 0
2, 365899, Note_on_c, 0, 54, 66
2, 365903, Note_on_c, 0, 69, 50
2, 366071, Note_on_c, 0, 76, 84
2, 366228, Note_on_c, 0, 74, 0
2, 366232, Note_on_c, 0, 74, 83
2, 366236, Note_on_c, 0, 62, 0
2, 366245, Note_on_c, 0, 62, 69
2, 366405, Note_on_c, 0, 69, 0
2, 366409, Note_on_c, 0, 69, 64
2, 366589, Note_on_c, 0, 81, 0
2, 366600, Note_on_c, 0, 81, 92
2, 366604, Note_on_c, 0, 69, 0
2, 366604, Note_on_c, 0, 74, 0
2, 366610, Note_on_c, 0, 74, 73
2, 366616, Note_on_c, 0, 69, 68
2, 366727, Note_on_c, 0, 62, 0
2, 366728, Note_on_c, 0, 54, 0
2, 366728, Note_on_c, 0, 76, 0
2, 366731, Control_c, 0, 64, 0
2, 366743, Note_on_c, 0, 86, 0
2, 366782, Note_on_c, 0, 40, 71
2, 366804, Control_c, 0, 64, 127
2, 366954, Note_on_c, 0, 47, 67
2, 367127, Note_on_c, 0, 55, 68
2, 367326, Note_on_c, 0, 69, 0
2, 367326, Note_on_c, 0, 42, 82
2, 367330, Note_on_c, 0, 69, 78
2, 367351, Control_c, 0, 64, 0
2, 367354, Note_on_c, 0, 40, 0
2, 367354, Note_on_c, 0, 55, 0
2, 367357, Note_on_c, 0, 47, 0
2, 367372, Note_on_c, 0, 74, 0
2, 367464, Control_c, 0, 64, 127
2, 367667, Note_on_c, 0, 50, 76
2, 367859, Note_on_c, 0, 57, 72
2, 368020, Note_on_c, 0, 42, 0
2, 368021, Note_on_c, 0, 57, 0
2, 368021, Note_on_c, 0, 50, 0
2, 368025, Control_c, 0, 64, 0
2, 368040, Note_on_c, 0, 81, 0
2, 368048, Note_on_c, 0, 69, 0
2, 368052, Note_on_c, 0, 69, 80
2, 368060, Note_on_c, 0, 59, 75
2, 368060, Note_on_c, 0, 43, 72
2, 368061, Note_on_c, 0, 62, 75
2, 368067, Note_on_c, 0, 55, 69
2, 368071, Note_on_c, 0, 55, 0
2, 368110, Control_c, 0, 64, 127
2, 368421, Note_on_c, 0, 50, 65
2, 368421, Note_on_c, 0, 78, 87
2, 368586, Note_on_c, 0, 59, 0
2, 368589, Note_on_c, 0, 79, 85
2, 368596, Note_on_c, 0, 59, 69
2, 368724, Note_on_c, 0, 62, 0
2, 368728, Note_on_c, 0, 50, 0
2, 368728, Note_on_c, 0, 79, 0
2, 368729, Note_on_c, 0, 43, 0
2, 368731, Control_c, 0, 64, 0
2, 368739, Note_on_c, 0, 59, 0
2, 368755, Note_on_c, 0, 78, 0
2, 368762, Note_on_c, 0, 69, 0
2, 368765, Note_on_c, 0, 78, 91
2, 368766, Note_on_c, 0, 45, 68
2, 368774, Note_on_c, 0, 69, 73
2, 368793, Control_c, 0, 64, 127
2, 368931, Note_on_c, 0, 78, 0
2, 368938, Note_on_c, 0, 74, 89
2, 368938, Note_on_c, 0, 78, 73
2, 369062, Note_on_c, 0, 74, 0
2, 369072, Note_on_c, 0, 74, 65
2, 369116, Note_on_c, 0, 57, 72
2, 369307, Note_on_c, 0, 76, 89
2, 369314, Note_on_c, 0, 64, 61
2, 369523, Note_on_c, 0, 69, 0
2, 369533, Note_on_c, 0, 69, 58
2, 369604, Note_on_c, 0, 74, 0
2, 369604, Note_on_c, 0, 78, 0
2, 369605, Note_on_c, 0, 45, 0
2, 369605, Note_on_c, 0, 57, 0
2, 369605, Note_on_c, 0, 76, 0
2, 369614, Control_c, 0, 64, 0
2, 370045, Control_c, 0, 64, 127
2, 370536, Note_on_c, 0, 69, 0
2, 370575, Note_on_c, 0, 64, 0
2, 370713, Note_on_c, 0, 93, 86
2, 370717, Note_on_c, 0, 81, 76
2, 370907, Note_on_c, 0, 97, 91
2, 370916, Note_on_c, 0, 85, 85
2, 371306, Note_on_c, 0, 98, 99
2, 371313, Note_on_c, 0, 86, 88
2, 371512, Note_on_c, 0, 67, 57
2, 371515, Note_on_c, 0, 55, 66
2, 371763, Note_on_c, 0, 71, 51
2, 371767, Note_on_c, 0, 62, 49
2, 371768, Note_on_c, 0, 83, 61
2, 371880, Note_on_c, 0, 85, 0
2, 371890, Note_on_c, 0, 85, 62
2, 371942, Note_on_c, 0, 62, 0
2, 371942, Note_on_c, 0, 67, 0
2, 371942, Note_on_c, 0, 71, 0
2, 371946, Note_on_c, 0, 71, 41
2, 371946, Note_on_c, 0, 62, 47
2, 371946, Note_on_c, 0, 67, 43
2, 371973, Note_on_c, 0, 86, 0
2, 371982, Note_on_c, 0, 86, 55
2, 372072, Note_on_c, 0, 85, 0
2, 372083, Note_on_c, 0, 85, 62
2, 372149, Note_on_c, 0, 67, 0
2, 372154, Note_on_c, 0, 67, 44
2, 372157, Note_on_c, 0, 62, 0
2, 372168, Note_on_c, 0, 62, 35
2, 372180, Note_on_c, 0, 83, 0
2, 372185, Note_on_c, 0, 83, 53
2, 372264, Note_on_c, 0, 67, 0
2, 372270, Note_on_c, 0, 67, 31
2, 372280, Note_on_c, 0, 83, 0
2, 372285, Note_on_c, 0, 83, 34
2, 372341, Note_on_c, 0, 62, 0
2, 372341, Note_on_c, 0, 71, 0
2, 372341, Note_on_c, 0, 86, 0
2, 372347, Note_on_c, 0, 62, 41
2, 372349, Note_on_c, 0, 67, 0
2, 372350, Note_on_c, 0, 71, 42
2, 372351, Note_on_c, 0, 86, 64
2, 372353, Note_on_c, 0, 67, 40
2, 372426, Note_on_c, 0, 85, 0
2, 372433, Note_on_c, 0, 85, 61
2, 372456, Note_on_c, 0, 67, 0
2, 372467, Note_on_c, 0, 67, 36
2, 372518, Note_on_c, 0, 62, 0
2, 372518, Note_on_c, 0, 67, 0
2, 372518, Note_on_c, 0, 71, 0
2, 372526, Note_on_c, 0, 67, 50
2, 372527, Note_on_c, 0, 62, 52
2, 372529, Note_on_c, 0, 71, 46
2, 372533, Note_on_c, 0, 83, 0
2, 372537, Note_on_c, 0, 83, 60
2, 372633, Note_on_c, 0, 85, 0
2, 372643, Note_on_c, 0, 85, 55
2, 372695, Note_on_c, 0, 67, 0
2, 372695, Note_on_c, 0, 71, 0
2, 372695, Note_on_c, 0, 86, 0
2, 372699, Note_on_c, 0, 67, 59
2, 372700, Note_on_c, 0, 71, 54
2, 372702, Note_on_c, 0, 62, 0
2, 372705, Note_on_c, 0, 86, 70
2, 372707, Note_on_c, 0, 62, 55
2, 372794, Note_on_c, 0, 85, 0
2, 372805, Note_on_c, 0, 85, 70
2, 372856, Note_on_c, 0, 71, 0
2, 372867, Note_on_c, 0, 71, 64
2, 372871, Note_on_c, 0, 62, 0
2, 372875, Note_on_c, 0, 67, 0
2, 372879, Note_on_c, 0, 83, 0
2, 372881, Note_on_c, 0, 62, 64
2, 372890, Note_on_c, 0, 83, 70
2, 372979, Note_on_c, 0, 85, 0
2, 372988, Note_on_c, 0, 85, 69
2, 373009, Note_on_c, 0, 93, 0
2, 373013, Note_on_c, 0, 86, 0
2, 373020, Control_c, 0, 64, 0
2, 373025, Note_on_c, 0, 55, 0
2, 373025, Note_on_c, 0, 71, 0
2, 373025, Note_on_c, 0, 98, 0
2, 373032, Note_on_c, 0, 62, 0
2, 373032, Note_on_c, 0, 81, 0
2, 373032, Note_on_c, 0, 83, 0
2, 373040, Note_on_c, 0, 97, 0
2, 373044, Note_on_c, 0, 57, 68
2, 373050, Note_on_c, 0, 69, 67
2, 373062, Note_on_c, 0, 86, 71
2, 373063, Note_on_c, 0, 85, 0
2, 373079, Control_c, 0, 64, 127
2, 373158, Note_on_c, 0, 85, 72
2, 373240, Note_on_c, 0, 69, 0
2, 373248, Note_on_c, 0, 69, 60
2, 373248, Note_on_c, 0, 64, 63
2, 373251, Note_on_c, 0, 73, 65
2, 373253, Note_on_c, 0, 83, 67
2, 373340, Note_on_c, 0, 69, 0
2, 373340, Note_on_c, 0, 85, 0
2, 373344, Note_on_c, 0, 85, 68
2, 373351, Note_on_c, 0, 69, 55
2, 373416, Note_on_c, 0, 64, 0
2, 373416, Note_on_c, 0, 73, 0
2, 373422, Note_on_c, 0, 73, 64
2, 373424, Note_on_c, 0, 86, 0
2, 373427, Note_on_c, 0, 64, 62
2, 373428, Note_on_c, 0, 86, 72
2, 373440, Note_on_c, 0, 69, 0
2, 373446, Note_on_c, 0, 69, 54
2, 373509, Note_on_c, 0, 69, 0
2, 373509, Note_on_c, 0, 85, 0
2, 373515, Note_on_c, 0, 85, 74
2, 373516, Note_on_c, 0, 73, 0
2, 373519, Note_on_c, 0, 69, 52
2, 373523, Note_on_c, 0, 73, 59
2, 373601, Note_on_c, 0, 64, 0
2, 373601, Note_on_c, 0, 69, 0
2, 373601, Note_on_c, 0, 73, 0
2, 373601, Note_on_c, 0, 83, 0
2, 373606, Note_on_c, 0, 73, 71
2, 373607, Note_on_c, 0, 83, 76
2, 373609, Note_on_c, 0, 64, 62
2, 373610, Note_on_c, 0, 69, 54
2, 373693, Note_on_c, 0, 69, 0
2, 373693, Note_on_c, 0, 85, 0
2, 373703, Note_on_c, 0, 85, 76
2, 373704, Note_on_c, 0, 69, 49
2, 373770, Note_on_c, 0, 73, 0
2, 373777, Note_on_c, 0, 64, 0
2, 373777, Note_on_c, 0, 86, 0
2, 373781, Note_on_c, 0, 73, 66
2, 373782, Note_on_c, 0, 86, 76
2, 373783, Note_on_c, 0, 64, 60
2, 373785, Note_on_c, 0, 69, 0
2, 373789, Note_on_c, 0, 69, 63
2, 373854, Note_on_c, 0, 85, 0
2, 373862, Note_on_c, 0, 85, 80
2, 373954, Note_on_c, 0, 64, 0
2, 373954, Note_on_c, 0, 73, 0
2, 373962, Note_on_c, 0, 69, 0
2, 373962, Note_on_c, 0, 83, 0
2, 373964, Note_on_c, 0, 73, 67
2, 373964, Note_on_c, 0, 64, 62
2, 373967, Note_on_c, 0, 83, 76
2, 373971, Note_on_c, 0, 69, 65
2, 374046, Note_on_c, 0, 85, 0
2, 374057, Note_on_c, 0, 85, 77
2, 374123, Note_on_c, 0, 86, 0
2, 374131, Note_on_c, 0, 69, 0
2, 374131, Note_on_c, 0, 73, 0
2, 374134, Note_on_c, 0, 86, 83
2, 374135, Note_on_c, 0, 73, 76
2, 374138, Note_on_c, 0, 64, 0
2, 374141, Note_on_c, 0, 69, 73
2, 374148, Note_on_c, 0, 64, 63
2, 374215, Note_on_c, 0, 85, 0
2, 374219, Note_on_c, 0, 85, 79
2, 374292, Note_on_c, 0, 83, 0
2, 374300, Note_on_c, 0, 73, 0
2, 374303, Note_on_c, 0, 83, 82
2, 374306, Note_on_c, 0, 76, 61
2, 374307, Note_on_c, 0, 73, 67
2, 374307, Note_on_c, 0, 64, 0
2, 374312, Note_on_c, 0, 64, 54
2, 374315, Note_on_c, 0, 76, 0
2, 374376, Note_on_c, 0, 85, 0
2, 374384, Note_on_c, 0, 64, 0
2, 374387, Note_on_c, 0, 85, 85
2, 374389, Note_on_c, 0, 64, 54
2, 374476, Note_on_c, 0, 85, 0
2, 374481, Note_on_c, 0, 85, 91
2, 374483, Control_c, 0, 64, 0
2, 374485, Note_on_c, 0, 58, 78
2, 374488, Note_on_c, 0, 64, 0
2, 374488, Note_on_c, 0, 73, 0
2, 374490, Note_on_c, 0, 86, 0
2, 374490, Note_on_c, 0, 57, 0
2, 374499, Note_on_c, 0, 83, 0
2, 374515, Note_on_c, 0, 69, 0
2, 374538, Control_c, 0, 64, 127
2, 374561, Note_on_c, 0, 86, 83
2, 374630, Note_on_c, 0, 85, 0
2, 374640, Note_on_c, 0, 85, 80
2, 374669, Note_on_c, 0, 73, 71
2, 374671, Note_on_c, 0, 66, 68
2, 374673, Note_on_c, 0, 70, 70
2, 374730, Note_on_c, 0, 86, 0
2, 374738, Note_on_c, 0, 86, 57
2, 374768, Note_on_c, 0, 73, 0
2, 374771, Note_on_c, 0, 83, 73
2, 374780, Note_on_c, 0, 73, 66
2, 374834, Note_on_c, 0, 82, 83
2, 374845, Note_on_c, 0, 66, 0
2, 374845, Note_on_c, 0, 70, 0
2, 374845, Note_on_c, 0, 73, 0
2, 374849, Note_on_c, 0, 73, 73
2, 374853, Note_on_c, 0, 70, 69
2, 374854, Note_on_c, 0, 66, 66
2, 374929, Note_on_c, 0, 73, 0
2, 374929, Note_on_c, 0, 83, 0
2, 374939, Note_on_c, 0, 83, 69
2, 374940, Note_on_c, 0, 73, 62
2, 374999, Note_on_c, 0, 73, 0
2, 375008, Note_on_c, 0, 73, 76
2, 375014, Note_on_c, 0, 82, 0
2, 375019, Note_on_c, 0, 82, 78
2, 375022, Note_on_c, 0, 66, 0
2, 375026, Note_on_c, 0, 66, 66
2, 375106, Note_on_c, 0, 85, 0
2, 375111, Note_on_c, 0, 85, 81
2, 375137, Note_on_c, 0, 73, 0
2, 375142, Note_on_c, 0, 86, 0
2, 375144, Note_on_c, 0, 83, 0
2, 375144, Note_on_c, 0, 66, 0
2, 375145, Note_on_c, 0, 73, 62
2, 375146, Note_on_c, 0, 58, 0
2, 375147, Note_on_c, 0, 82, 0
2, 375148, Note_on_c, 0, 66, 60
2, 375152, Control_c, 0, 64, 0
2, 375188, Note_on_c, 0, 88, 91
2, 375188, Note_on_c, 0, 54, 72
2, 375229, Control_c, 0, 64, 127
2, 375267, Note_on_c, 0, 66, 0
2, 375274, Note_on_c, 0, 66, 67
2, 375275, Note_on_c, 0, 70, 0
2, 375278, Note_on_c, 0, 90, 85
2, 375283, Note_on_c, 0, 85, 0
2, 375285, Note_on_c, 0, 70, 55
2, 375352, Note_on_c, 0, 88, 0
2, 375356, Note_on_c, 0, 88, 81
2, 375360, Note_on_c, 0, 73, 0
2, 375364, Note_on_c, 0, 73, 66
2, 375375, Note_on_c, 0, 66, 0
2, 375375, Note_on_c, 0, 70, 0
2, 375384, Note_on_c, 0, 70, 62
2, 375384, Note_on_c, 0, 66, 64
2, 375461, Note_on_c, 0, 86, 77
2, 375536, Note_on_c, 0, 66, 0
2, 375536, Note_on_c, 0, 70, 0
2, 375536, Note_on_c, 0, 73, 0
2, 375544, Note_on_c, 0, 85, 81
2, 375547, Note_on_c, 0, 73, 69
2, 375547, Note_on_c, 0, 66, 67
2, 375547, Note_on_c, 0, 70, 68
2, 375613, Note_on_c, 0, 86, 0
2, 375624, Note_on_c, 0, 86, 73
2, 375697, Note_on_c, 0, 73, 0
2, 375697, Note_on_c, 0, 85, 0
2, 375708, Note_on_c, 0, 73, 75
2, 375709, Note_on_c, 0, 85, 80
2, 375728, Note_on_c, 0, 66, 0
2, 375732, Note_on_c, 0, 78, 58
2, 375732, Note_on_c, 0, 66, 59
2, 375759, Note_on_c, 0, 54, 0
2, 375790, Note_on_c, 0, 70, 0
2, 375790, Note_on_c, 0, 88, 0
2, 375796, Note_on_c, 0, 70, 56
2, 375797, Note_on_c, 0, 66, 0
2, 375799, Note_on_c, 0, 88, 86
2, 375801, Note_on_c, 0, 66, 55
2, 375859, Note_on_c, 0, 86, 0
2, 375863, Note_on_c, 0, 88, 0
2, 375864, Control_c, 0, 64, 0
2, 375866, Note_on_c, 0, 78, 0
2, 375874, Note_on_c, 0, 85, 0
2, 375874, Note_on_c, 0, 90, 0
2, 375888, Note_on_c, 0, 59, 73
2, 375889, Note_on_c, 0, 70, 0
2, 375889, Note_on_c, 0, 73, 0
2, 375892, Note_on_c, 0, 86, 88
2, 375936, Control_c, 0, 64, 127
2, 375972, Note_on_c, 0, 88, 80
2, 376010, Note_on_c, 0, 59, 0
2, 376058, Note_on_c, 0, 66, 0
2, 376058, Note_on_c, 0, 86, 0
2, 376064, Note_on_c, 0, 74, 65
2, 376065, Note_on_c, 0, 86, 74
2, 376069, Note_on_c, 0, 66, 63
2, 376072, Note_on_c, 0, 71, 59
2, 376147, Note_on_c, 0, 85, 80
2, 376235, Note_on_c, 0, 85, 0
2, 376243, Note_on_c, 0, 71, 0
2, 376243, Note_on_c, 0, 74, 0
2, 376244, Note_on_c, 0, 85, 84
2, 376247, Note_on_c, 0, 71, 58
2, 376248, Note_on_c, 0, 74, 64
2, 376250, Note_on_c, 0, 66, 0
2, 376255, Note_on_c, 0, 66, 58
2, 376320, Note_on_c, 0, 74, 0
2, 376320, Note_on_c, 0, 85, 0
2, 376320, Note_on_c, 0, 86, 0
2, 376324, Note_on_c, 0, 85, 72
2, 376326, Note_on_c, 0, 86, 71
2, 376331, Note_on_c, 0, 74, 51
2, 376396, Note_on_c, 0, 85, 0
2, 376406, Note_on_c, 0, 85, 77
2, 376412, Note_on_c, 0, 66, 0
2, 376421, Note_on_c, 0, 66, 56
2, 376423, Note_on_c, 0, 78, 61
2, 376427, Note_on_c, 0, 71, 0
2, 376427, Note_on_c, 0, 74, 0
2, 376431, Note_on_c, 0, 74, 50
2, 376433, Note_on_c, 0, 71, 46
2, 376495, Note_on_c, 0, 81, 78
2, 376535, Note_on_c, 0, 66, 0
2, 376545, Note_on_c, 0, 66, 55
2, 376550, Note_on_c, 0, 74, 0
2, 376560, Note_on_c, 0, 74, 51
2, 376565, Note_on_c, 0, 81, 0
2, 376569, Note_on_c, 0, 81, 76
2, 376596, Note_on_c, 0, 71, 0
2, 376596, Note_on_c, 0, 74, 0
2, 376601, Note_on_c, 0, 71, 65
2, 376601, Note_on_c, 0, 83, 64
2, 376602, Note_on_c, 0, 74, 59
2, 376673, Note_on_c, 0, 83, 0
2, 376684, Note_on_c, 0, 83, 71
2, 376757, Note_on_c, 0, 81, 0
2, 376762, Note_on_c, 0, 81, 73
2, 376773, Note_on_c, 0, 71, 0
2, 376778, Note_on_c, 0, 71, 61
2, 376780, Note_on_c, 0, 66, 0
2, 376780, Note_on_c, 0, 74, 0
2, 376785, Note_on_c, 0, 74, 59
2, 376785, Note_on_c, 0, 66, 57
2, 376842, Note_on_c, 0, 78, 0
2, 376847, Note_on_c, 0, 78, 80
2, 376934, Note_on_c, 0, 74, 0
2, 376934, Note_on_c, 0, 78, 0
2, 376942, Note_on_c, 0, 66, 0
2, 376942, Note_on_c, 0, 71, 0
2, 376945, Note_on_c, 0, 78, 79
2, 376945, Note_on_c, 0, 74, 67
2, 376947, Note_on_c, 0, 71, 64
2, 376949, Note_on_c, 0, 66, 66
2, 377034, Note_on_c, 0, 78, 0
2, 377034, Note_on_c, 0, 81, 0
2, 377041, Note_on_c, 0, 74, 0
2, 377044, Note_on_c, 0, 81, 77
2, 377045, Note_on_c, 0, 78, 70
2, 377050, Note_on_c, 0, 74, 61
2, 377118, Note_on_c, 0, 66, 0
2, 377118, Note_on_c, 0, 71, 0
2, 377118, Note_on_c, 0, 78, 0
2, 377122, Note_on_c, 0, 78, 73
2, 377122, Note_on_c, 0, 71, 54
2, 377125, Note_on_c, 0, 66, 65
2, 377238, Note_on_c, 0, 76, 66
2, 377245, Note_on_c, 0, 81, 0
2, 377245, Note_on_c, 0, 83, 0
2, 377245, Note_on_c, 0, 71, 0
2, 377245, Note_on_c, 0, 85, 0
2, 377246, Note_on_c, 0, 78, 0
2, 377249, Note_on_c, 0, 66, 0
2, 377251, Control_c, 0, 64, 0
2, 377254, Note_on_c, 0, 66, 48
2, 377256, Note_on_c, 0, 88, 0
2, 377264, Note_on_c, 0, 86, 0
2, 377287, Note_on_c, 0, 66, 0
2, 377293, Note_on_c, 0, 55, 77
2, 377295, Note_on_c, 0, 74, 0
2, 377299, Note_on_c, 0, 74, 82
2, 377310, Note_on_c, 0, 71, 55
2, 377318, Note_on_c, 0, 76, 0
2, 377333, Control_c, 0, 64, 127
2, 377392, Note_on_c, 0, 76, 74
2, 377456, Note_on_c, 0, 71, 0
2, 377456, Note_on_c, 0, 74, 0
2, 377467, Note_on_c, 0, 74, 78
2, 377467, Note_on_c, 0, 71, 60
2, 377467, Note_on_c, 0, 62, 60
2, 377472, Note_on_c, 0, 67, 61
2, 377564, Note_on_c, 0, 76, 0
2, 377574, Note_on_c, 0, 76, 58
2, 377574, Note_on_c, 0, 73, 68
2, 377617, Note_on_c, 0, 67, 0
2, 377627, Note_on_c, 0, 67, 55
2, 377633, Note_on_c, 0, 71, 0
2, 377643, Note_on_c, 0, 71, 59
2, 377648, Note_on_c, 0, 74, 0
2, 377656, Note_on_c, 0, 62, 0
2, 377658, Note_on_c, 0, 74, 72
2, 377661, Note_on_c, 0, 62, 41
2, 377748, Note_on_c, 0, 67, 0
2, 377748, Note_on_c, 0, 71, 0
2, 377748, Note_on_c, 0, 76, 0
2, 377754, Note_on_c, 0, 76, 70
2, 377755, Note_on_c, 0, 67, 51
2, 377756, Note_on_c, 0, 71, 44
2, 377817, Note_on_c, 0, 67, 0
2, 377823, Note_on_c, 0, 67, 54
2, 377825, Note_on_c, 0, 62, 0
2, 377825, Note_on_c, 0, 71, 0
2, 377829, Note_on_c, 0, 62, 55
2, 377831, Note_on_c, 0, 78, 73
2, 377833, Note_on_c, 0, 71, 58
2, 377917, Note_on_c, 0, 74, 0
2, 377922, Note_on_c, 0, 74, 76
2, 378001, Note_on_c, 0, 62, 0
2, 378001, Note_on_c, 0, 67, 0
2, 378001, Note_on_c, 0, 71, 0
2, 378006, Note_on_c, 0, 67, 62
2, 378009, Note_on_c, 0, 74, 0
2, 378012, Note_on_c, 0, 71, 60
2, 378013, Note_on_c, 0, 62, 58
2, 378014, Note_on_c, 0, 86, 81
2, 378020, Note_on_c, 0, 74, 63
2, 378098, Note_on_c, 0, 88, 76
2, 378170, Note_on_c, 0, 86, 0
2, 378180, Note_on_c, 0, 86, 77
2, 378186, Note_on_c, 0, 67, 0
2, 378186, Note_on_c, 0, 74, 0
2, 378193, Note_on_c, 0, 62, 0
2, 378193, Note_on_c, 0, 71, 0
2, 378193, Note_on_c, 0, 67, 58
2, 378195, Note_on_c, 0, 74, 61
2, 378199, Note_on_c, 0, 71, 61
2, 378199, Note_on_c, 0, 62, 54
2, 378201, Note_on_c, 0, 55, 0
2, 378268, Note_on_c, 0, 85, 69
2, 378355, Note_on_c, 0, 86, 0
2, 378362, Note_on_c, 0, 67, 0
2, 378362, Note_on_c, 0, 71, 0
2, 378364, Note_on_c, 0, 86, 74
2, 378369, Note_on_c, 0, 67, 59
2, 378370, Note_on_c, 0, 62, 0
2, 378371, Note_on_c, 0, 71, 56
2, 378374, Note_on_c, 0, 62, 52
2, 378452, Note_on_c, 0, 81, 69
2, 378516, Note_on_c, 0, 71, 0
2, 378521, Note_on_c, 0, 71, 65
2, 378531, Note_on_c, 0, 62, 0
2, 378531, Note_on_c, 0, 67, 0
2, 378536, Note_on_c, 0, 67, 58
2, 378539, Note_on_c, 0, 78, 0
2, 378540, Note_on_c, 0, 62, 39
2, 378544, Note_on_c, 0, 78, 72
2, 378610, Note_on_c, 0, 78, 0
2, 378611, Note_on_c, 0, 73, 0
2, 378611, Note_on_c, 0, 85, 0
2, 378611, Note_on_c, 0, 76, 0
2, 378611, Note_on_c, 0, 62, 0
2, 378612, Note_on_c, 0, 86, 0
2, 378612, Note_on_c, 0, 67, 0
2, 378612, Note_on_c, 0, 71, 0
2, 378612, Note_on_c, 0, 81, 0
2, 378620, Control_c, 0, 64, 0
2, 378624, Note_on_c, 0, 74, 0
2, 378624, Note_on_c, 0, 88, 0
2, 378628, Note_on_c, 0, 74, 63
2, 378683, Note_on_c, 0, 74, 0
2, 378701, Note_on_c, 0, 57, 69
2, 378709, Note_on_c, 0, 69, 63
2, 378719, Note_on_c, 0, 73, 76
2, 378746, Control_c, 0, 64, 127
2, 378805, Note_on_c, 0, 74, 72
2, 378885, Note_on_c, 0, 73, 0
2, 378891, Note_on_c, 0, 73, 70
2, 378947, Note_on_c, 0, 71, 66
2, 378948, Note_on_c, 0, 62, 34
2, 378954, Note_on_c, 0, 62, 0
2, 379008, Note_on_c, 0, 73, 0
2, 379012, Note_on_c, 0, 73, 71
2, 379054, Note_on_c, 0, 69, 0
2, 379060, Note_on_c, 0, 69, 50
2, 379068, Note_on_c, 0, 64, 42
2, 379092, Note_on_c, 0, 74, 0
2, 379103, Note_on_c, 0, 74, 63
2, 379130, Note_on_c, 0, 71, 0
2, 379142, Note_on_c, 0, 71, 45
2, 379195, Note_on_c, 0, 76, 69
2, 379200, Note_on_c, 0, 64, 0
2, 379204, Note_on_c, 0, 64, 54
2, 379215, Note_on_c, 0, 69, 0
2, 379223, Note_on_c, 0, 69, 53
2, 379276, Note_on_c, 0, 69, 0
2, 379287, Note_on_c, 0, 69, 48
2, 379299, Note_on_c, 0, 73, 0
2, 379307, Note_on_c, 0, 76, 0
2, 379310, Note_on_c, 0, 73, 71
2, 379311, Note_on_c, 0, 76, 59
2, 379368, Note_on_c, 0, 74, 0
2, 379373, Note_on_c, 0, 74, 49
2, 379399, Note_on_c, 0, 64, 0
2, 379399, Note_on_c, 0, 73, 0
2, 379407, Note_on_c, 0, 69, 0
2, 379409, Note_on_c, 0, 85, 81
2, 379410, Note_on_c, 0, 64, 59
2, 379410, Note_on_c, 0, 73, 66
2, 379413, Note_on_c, 0, 69, 58
2, 379476, Note_on_c, 0, 69, 0
2, 379483, Note_on_c, 0, 69, 54
2, 379510, Note_on_c, 0, 86, 74
2, 379560, Note_on_c, 0, 85, 0
2, 379572, Note_on_c, 0, 85, 72
2, 379584, Note_on_c, 0, 64, 0
2, 379584, Note_on_c, 0, 69, 0
2, 379593, Note_on_c, 0, 64, 61
2, 379594, Note_on_c, 0, 69, 50
2, 379645, Note_on_c, 0, 69, 0
2, 379653, Note_on_c, 0, 73, 0
2, 379656, Note_on_c, 0, 69, 56
2, 379657, Note_on_c, 0, 73, 61
2, 379657, Note_on_c, 0, 83, 79
2, 379752, Note_on_c, 0, 85, 0
2, 379760, Note_on_c, 0, 64, 0
2, 379760, Note_on_c, 0, 69, 0
2, 379761, Note_on_c, 0, 85, 78
2, 379770, Note_on_c, 0, 57, 0
2, 379771, Note_on_c, 0, 64, 64
2, 379771, Note_on_c, 0, 69, 63
2, 379844, Note_on_c, 0, 81, 72
2, 379921, Note_on_c, 0, 76, 0
2, 379929, Note_on_c, 0, 69, 0
2, 379929, Note_on_c, 0, 76, 73
2, 379934, Note_on_c, 0, 69, 60
2, 379937, Note_on_c, 0, 64, 0
2, 379947, Note_on_c, 0, 64, 58
2, 380006, Note_on_c, 0, 73, 0
2, 380017, Note_on_c, 0, 73, 70
2, 380055, Note_on_c, 0, 69, 0
2, 380055, Note_on_c, 0, 64, 0
2, 380055, Note_on_c, 0, 71, 0
2, 380055, Note_on_c, 0, 83, 0
2, 380055, Note_on_c, 0, 81, 0
2, 380056, Note_on_c, 0, 73, 0
2, 380056, Note_on_c, 0, 85, 0
2, 380056, Note_on_c, 0, 86, 0
2, 380056, Note_on_c, 0, 76, 0
2, 380056, Note_on_c, 0, 74, 0
2, 380060, Control_c, 0, 64, 0
2, 380106, Control_c, 0, 64, 127
2, 380117, Note_on_c, 0, 58, 68
2, 380117, Note_on_c, 0, 64, 44
2, 380117, Note_on_c, 0, 70, 78
2, 380210, Note_on_c, 0, 73, 75
2, 380287, Note_on_c, 0, 66, 65
2, 380293, Note_on_c, 0, 61, 60
2, 380308, Note_on_c, 0, 76, 76
2, 380385, Note_on_c, 0, 78, 78
2, 380390, Note_on_c, 0, 66, 0
2, 380398, Note_on_c, 0, 66, 61
2, 380474, Note_on_c, 0, 61, 0
2, 380474, Note_on_c, 0, 66, 0
2, 380474, Note_on_c, 0, 70, 0
2, 380474, Note_on_c, 0, 76, 0
2, 380480, Note_on_c, 0, 76, 66
2, 380481, Note_on_c, 0, 82, 81
2, 380481, Note_on_c, 0, 70, 54
2, 380481, Note_on_c, 0, 66, 58
2, 380485, Note_on_c, 0, 61, 58
2, 380565, Note_on_c, 0, 85, 84
2, 380636, Note_on_c, 0, 61, 0
2, 380636, Note_on_c, 0, 66, 0
2, 380646, Note_on_c, 0, 66, 67
2, 380647, Note_on_c, 0, 61, 66
2, 380653, Note_on_c, 0, 88, 82
2, 380747, Note_on_c, 0, 90, 85
2, 380820, Note_on_c, 0, 61, 0
2, 380824, Note_on_c, 0, 94, 93
2, 380825, Note_on_c, 0, 54, 66
2, 380826, Note_on_c, 0, 61, 61
2, 380897, Note_on_c, 0, 90, 0
2, 380907, Note_on_c, 0, 90, 80
2, 380981, Note_on_c, 0, 88, 0
2, 380986, Note_on_c, 0, 88, 80
2, 381004, Note_on_c, 0, 54, 0
2, 381004, Note_on_c, 0, 61, 0
2, 381004, Note_on_c, 0, 66, 0
2, 381009, Note_on_c, 0, 66, 75
2, 381009, Note_on_c, 0, 54, 57
2, 381012, Note_on_c, 0, 58, 0
2, 381015, Note_on_c, 0, 61, 67
2, 381020, Note_on_c, 0, 64, 0
2, 381022, Note_on_c, 0, 58, 45
2, 381081, Note_on_c, 0, 85, 0
2, 381086, Note_on_c, 0, 85, 76
2, 381181, Note_on_c, 0, 82, 0
2, 381189, Note_on_c, 0, 61, 0
2, 381189, Note_on_c, 0, 66, 0
2, 381191, Note_on_c, 0, 82, 73
2, 381194, Note_on_c, 0, 66, 72
2, 381200, Note_on_c, 0, 61, 66
2, 381265, Note_on_c, 0, 78, 0
2, 381274, Note_on_c, 0, 78, 73
2, 381296, Note_on_c, 0, 61, 0
2, 381301, Note_on_c, 0, 61, 54
2, 381342, Note_on_c, 0, 66, 0
2, 381350, Note_on_c, 0, 61, 0
2, 381350, Note_on_c, 0, 76, 0
2, 381352, Note_on_c, 0, 66, 68
2, 381356, Note_on_c, 0, 76, 77
2, 381361, Note_on_c, 0, 61, 60
2, 381442, Note_on_c, 0, 54, 0
2, 381442, Note_on_c, 0, 61, 0
2, 381447, Note_on_c, 0, 61, 57
2, 381450, Note_on_c, 0, 73, 0
2, 381453, Note_on_c, 0, 54, 55
2, 381456, Note_on_c, 0, 73, 68
2, 381480, Note_on_c, 0, 66, 0
2, 381485, Note_on_c, 0, 66, 44
2, 381511, Note_on_c, 0, 76, 0
2, 381515, Note_on_c, 0, 76, 48
2, 381542, Note_on_c, 0, 70, 0
2, 381553, Note_on_c, 0, 70, 71
2, 381559, Note_on_c, 0, 42, 59
2, 381649, Note_on_c, 0, 66, 0
2, 381657, Note_on_c, 0, 66, 61
2, 381737, Note_on_c, 0, 64, 70
2, 381818, Note_on_c, 0, 66, 0
2, 381826, Note_on_c, 0, 54, 0
2, 381826, Note_on_c, 0, 61, 0
2, 381829, Note_on_c, 0, 66, 52
2, 381835, Note_on_c, 0, 54, 47
2, 381837, Note_on_c, 0, 61, 64
2, 381895, Note_on_c, 0, 58, 0
2, 381901, Note_on_c, 0, 58, 72
2, 381941, Note_on_c, 0, 54, 0
2, 381949, Note_on_c, 0, 54, 71
2, 382051, Note_on_c, 0, 49, 71
2, 382114, Control_c, 0, 64, 0
2, 382118, Note_on_c, 0, 42, 0
2, 382125, Note_on_c, 0, 42, 86
2, 382156, Control_c, 0, 64, 127
2, 382256, Note_on_c, 0, 61, 0
2, 382256, Note_on_c, 0, 66, 0
2, 382256, Note_on_c, 0, 78, 0
2, 382261, Note_on_c, 0, 78, 100
2, 382265, Note_on_c, 0, 66, 97
2, 382266, Note_on_c, 0, 61, 65
2, 382448, Note_on_c, 0, 85, 0
2, 382459, Note_on_c, 0, 85, 107
2, 382464, Note_on_c, 0, 73, 0
2, 382469, Note_on_c, 0, 73, 96
2, 382481, Note_on_c, 0, 54, 0
2, 382626, Note_on_c, 0, 30, 74
2, 382819, Note_on_c, 0, 86, 104
2, 382827, Note_on_c, 0, 74, 93
2, 382827, Note_on_c, 0, 79, 94
2, 382830, Note_on_c, 0, 83, 98
2, 382868, Note_on_c, 0, 30, 0
2, 382886, Note_on_c, 0, 94, 0
2, 382894, Note_on_c, 0, 49, 0
2, 382894, Note_on_c, 0, 64, 0
2, 382894, Note_on_c, 0, 70, 0
2, 382921, Control_c, 0, 64, 0
2, 382940, Control_c, 0, 64, 127
2, 383003, Note_on_c, 0, 31, 91
2, 383004, Note_on_c, 0, 43, 92
2, 383009, Note_on_c, 0, 42, 0
2, 383009, Note_on_c, 0, 90, 0
2, 383024, Note_on_c, 0, 58, 0
2, 383047, Note_on_c, 0, 61, 0
2, 383063, Note_on_c, 0, 82, 0
2, 383204, Note_on_c, 0, 57, 72
2, 383205, Note_on_c, 0, 55, 60
2, 383213, Note_on_c, 0, 59, 67
2, 383247, Note_on_c, 0, 66, 0
2, 383278, Note_on_c, 0, 59, 0
2, 383282, Note_on_c, 0, 62, 73
2, 383282, Note_on_c, 0, 59, 67
2, 383370, Note_on_c, 0, 57, 0
2, 383377, Note_on_c, 0, 59, 0
2, 383377, Note_on_c, 0, 62, 0
2, 383380, Note_on_c, 0, 57, 69
2, 383382, Note_on_c, 0, 62, 81
2, 383382, Note_on_c, 0, 59, 64
2, 383431, Note_on_c, 0, 73, 0
2, 383447, Note_on_c, 0, 55, 0
2, 383447, Note_on_c, 0, 59, 0
2, 383457, Note_on_c, 0, 59, 66
2, 383457, Note_on_c, 0, 55, 72
2, 383457, Note_on_c, 0, 67, 83
2, 383546, Note_on_c, 0, 55, 0
2, 383546, Note_on_c, 0, 59, 0
2, 383546, Note_on_c, 0, 62, 0
2, 383552, Note_on_c, 0, 62, 70
2, 383552, Note_on_c, 0, 55, 77
2, 383552, Note_on_c, 0, 59, 73
2, 383639, Note_on_c, 0, 55, 0
2, 383639, Note_on_c, 0, 59, 0
2, 383639, Note_on_c, 0, 62, 0
2, 383639, Note_on_c, 0, 71, 87
2, 383645, Note_on_c, 0, 62, 65
2, 383648, Note_on_c, 0, 55, 69
2, 383650, Note_on_c, 0, 59, 68
2, 383731, Note_on_c, 0, 55, 0
2, 383731, Note_on_c, 0, 59, 0
2, 383731, Note_on_c, 0, 62, 0
2, 383731, Note_on_c, 0, 71, 0
2, 383736, Note_on_c, 0, 71, 98
2, 383736, Note_on_c, 0, 62, 72
2, 383736, Note_on_c, 0, 59, 81
2, 383738, Note_on_c, 0, 55, 67
2, 383784, Note_on_c, 0, 62, 0
2, 383792, Note_on_c, 0, 55, 0
2, 383792, Note_on_c, 0, 59, 0
2, 383792, Note_on_c, 0, 74, 0
2, 383796, Note_on_c, 0, 62, 72
2, 383796, Note_on_c, 0, 74, 96
2, 383797, Note_on_c, 0, 55, 67
2, 383798, Note_on_c, 0, 59, 75
2, 383884, Note_on_c, 0, 59, 0
2, 383884, Note_on_c, 0, 62, 0
2, 383884, Note_on_c, 0, 74, 0
2, 383892, Note_on_c, 0, 55, 0
2, 383892, Note_on_c, 0, 71, 0
2, 383895, Note_on_c, 0, 59, 73
2, 383895, Note_on_c, 0, 62, 73
2, 383895, Note_on_c, 0, 74, 97
2, 383896, Note_on_c, 0, 55, 64
2, 383897, Note_on_c, 0, 71, 77
2, 383969, Note_on_c, 0, 71, 0
2, 383969, Note_on_c, 0, 79, 0
2, 383973, Note_on_c, 0, 79, 98
2, 383973, Note_on_c, 0, 71, 76
2, 384061, Note_on_c, 0, 55, 0
2, 384061, Note_on_c, 0, 59, 0
2, 384069, Note_on_c, 0, 79, 0
2, 384071, Note_on_c, 0, 59, 76
2, 384072, Note_on_c, 0, 55, 75
2, 384072, Note_on_c, 0, 43, 0
2, 384076, Note_on_c, 0, 79, 85
2, 384138, Note_on_c, 0, 83, 0
2, 384144, Note_on_c, 0, 83, 96
2, 384238, Note_on_c, 0, 55, 0
2, 384238, Note_on_c, 0, 59, 0
2, 384238, Note_on_c, 0, 83, 0
2, 384247, Note_on_c, 0, 55, 89
2, 384248, Note_on_c, 0, 59, 68
2, 384249, Note_on_c, 0, 83, 95
2, 384257, Note_on_c, 0, 71, 0
2, 384284, Note_on_c, 0, 86, 0
2, 384289, Note_on_c, 0, 86, 92
2, 384291, Note_on_c, 0, 79, 0
2, 384291, Note_on_c, 0, 85, 0
2, 384297, Note_on_c, 0, 79, 76
2, 384353, Note_on_c, 0, 88, 0
2, 384393, Control_c, 0, 64, 0
2, 384399, Note_on_c, 0, 78, 0
2, 384401, Note_on_c, 0, 57, 0
2, 384402, Note_on_c, 0, 74, 0
2, 384402, Note_on_c, 0, 86, 0
2, 384402, Note_on_c, 0, 62, 0
2, 384402, Note_on_c, 0, 55, 0
2, 384403, Note_on_c, 0, 79, 0
2, 384404, Note_on_c, 0, 31, 0
2, 384414, Note_on_c, 0, 67, 0
2, 384414, Note_on_c, 0, 76, 0
2, 384414, Note_on_c, 0, 83, 0
2, 384422, Note_on_c, 0, 59, 0
2, 384426, Note_on_c, 0, 85, 107
2, 384432, Note_on_c, 0, 73, 105
2, 384433, Note_on_c, 0, 81, 86
2, 384433, Note_on_c, 0, 76, 98
2, 384435, Note_on_c, 0, 33, 90
2, 384438, Note_on_c, 0, 45, 91
2, 384445, Note_on_c, 0, 40, 83
2, 384483, Control_c, 0, 64, 127
2, 384624, Note_on_c, 0, 69, 69
2, 384630, Note_on_c, 0, 57, 67
2, 384636, Note_on_c, 0, 61, 71
2, 384700, Note_on_c, 0, 52, 74
2, 384714, Note_on_c, 0, 57, 0
2, 384724, Note_on_c, 0, 57, 57
2, 384725, Note_on_c, 0, 64, 73
2, 384798, Note_on_c, 0, 52, 0
2, 384798, Note_on_c, 0, 57, 0
2, 384802, Note_on_c, 0, 57, 75
2, 384805, Note_on_c, 0, 52, 71
2, 384806, Note_on_c, 0, 61, 0
2, 384817, Note_on_c, 0, 61, 61
2, 384821, Note_on_c, 0, 64, 0
2, 384829, Note_on_c, 0, 69, 0
2, 384833, Note_on_c, 0, 64, 57
2, 384835, Note_on_c, 0, 69, 65
2, 384883, Note_on_c, 0, 69, 0
2, 384892, Note_on_c, 0, 69, 71
2, 384899, Note_on_c, 0, 71, 70
2, 384967, Note_on_c, 0, 45, 0
2, 384974, Note_on_c, 0, 45, 79
2, 384975, Note_on_c, 0, 52, 0
2, 384975, Note_on_c, 0, 61, 0
2, 384983, Note_on_c, 0, 57, 0
2, 384983, Note_on_c, 0, 69, 0
2, 384984, Note_on_c, 0, 52, 57
2, 384985, Note_on_c, 0, 61, 61
2, 384987, Note_on_c, 0, 69, 77
2, 384987, Note_on_c, 0, 57, 74
2, 385052, Note_on_c, 0, 73, 0
2, 385056, Note_on_c, 0, 73, 81
2, 385082, Note_on_c, 0, 69, 0
2, 385089, Note_on_c, 0, 69, 65
2, 385144, Note_on_c, 0, 61, 0
2, 385144, Note_on_c, 0, 73, 0
2, 385151, Note_on_c, 0, 73, 87
2, 385152, Note_on_c, 0, 57, 0
2, 385153, Note_on_c, 0, 61, 75
2, 385159, Note_on_c, 0, 57, 73
2, 385159, Note_on_c, 0, 52, 0
2, 385164, Note_on_c, 0, 52, 63
2, 385221, Note_on_c, 0, 76, 0
2, 385227, Note_on_c, 0, 76, 93
2, 385259, Note_on_c, 0, 73, 0
2, 385263, Note_on_c, 0, 73, 64
2, 385290, Note_on_c, 0, 52, 0
2, 385297, Note_on_c, 0, 57, 0
2, 385297, Note_on_c, 0, 61, 0
2, 385300, Note_on_c, 0, 52, 52
2, 385303, Note_on_c, 0, 57, 71
2, 385306, Note_on_c, 0, 61, 75
2, 385313, Note_on_c, 0, 76, 0
2, 385318, Note_on_c, 0, 76, 86
2, 385382, Note_on_c, 0, 76, 0
2, 385382, Note_on_c, 0, 81, 0
2, 385386, Note_on_c, 0, 81, 95
2, 385393, Note_on_c, 0, 76, 77
2, 385474, Note_on_c, 0, 52, 0
2, 385474, Note_on_c, 0, 57, 0
2, 385474, Note_on_c, 0, 61, 0
2, 385474, Note_on_c, 0, 81, 0
2, 385479, Note_on_c, 0, 61, 64
2, 385479, Note_on_c, 0, 57, 80
2, 385479, Note_on_c, 0, 55, 55
2, 385480, Note_on_c, 0, 81, 94
2, 385483, Note_on_c, 0, 52, 56
2, 385559, Note_on_c, 0, 85, 0
2, 385563, Note_on_c, 0, 85, 89
2, 385574, Note_on_c, 0, 57, 0
2, 385581, Note_on_c, 0, 57, 69
2, 385651, Note_on_c, 0, 52, 0
2, 385651, Note_on_c, 0, 57, 0
2, 385651, Note_on_c, 0, 85, 0
2, 385655, Note_on_c, 0, 57, 87
2, 385656, Note_on_c, 0, 52, 81
2, 385657, Note_on_c, 0, 85, 90
2, 385660, Note_on_c, 0, 45, 0
2, 385710, Note_on_c, 0, 88, 92
2, 385778, Control_c, 0, 64, 0
2, 385779, Note_on_c, 0, 52, 0
2, 385779, Note_on_c, 0, 81, 0
2, 385780, Note_on_c, 0, 76, 0
2, 385780, Note_on_c, 0, 71, 0
2, 385781, Note_on_c, 0, 57, 0
2, 385781, Note_on_c, 0, 69, 0
2, 385782, Note_on_c, 0, 85, 0
2, 385783, Note_on_c, 0, 88, 0
2, 385783, Note_on_c, 0, 55, 0
2, 385789, Note_on_c, 0, 40, 0
2, 385797, Note_on_c, 0, 64, 0
2, 385804, Note_on_c, 0, 33, 0
2, 385804, Note_on_c, 0, 61, 0
2, 385804, Note_on_c, 0, 73, 0
2, 385832, Note_on_c, 0, 85, 105
2, 385837, Note_on_c, 0, 76, 104
2, 385839, Note_on_c, 0, 46, 92
2, 385841, Note_on_c, 0, 34, 86
2, 385843, Note_on_c, 0, 78, 92
2, 385845, Note_on_c, 0, 82, 96
2, 385866, Control_c, 0, 64, 127
2, 385935, Note_on_c, 0, 76, 0
2, 385944, Note_on_c, 0, 76, 81
2, 386017, Note_on_c, 0, 66, 91
2, 386018, Note_on_c, 0, 54, 65
2, 386021, Note_on_c, 0, 58, 68
2, 386026, Note_on_c, 0, 61, 72
2, 386108, Note_on_c, 0, 70, 86
2, 386181, Note_on_c, 0, 70, 0
2, 386191, Note_on_c, 0, 70, 83
2, 386204, Note_on_c, 0, 58, 0
2, 386204, Note_on_c, 0, 61, 0
2, 386204, Note_on_c, 0, 66, 0
2, 386208, Note_on_c, 0, 66, 68
2, 386209, Note_on_c, 0, 58, 74
2, 386209, Note_on_c, 0, 61, 65
2, 386265, Note_on_c, 0, 61, 0
2, 386268, Note_on_c, 0, 73, 90
2, 386271, Note_on_c, 0, 61, 70
2, 386365, Note_on_c, 0, 70, 0
2, 386365, Note_on_c, 0, 73, 0
2, 386373, Control_c, 0, 64, 0
2, 386376, Note_on_c, 0, 73, 95
2, 386376, Note_on_c, 0, 70, 79
2, 386377, Note_on_c, 0, 42, 86
2, 386378, Note_on_c, 0, 30, 78
2, 386388, Note_on_c, 0, 30, 0
2, 386457, Note_on_c, 0, 76, 0
2, 386457, Control_c, 0, 64, 127
2, 386460, Note_on_c, 0, 77, 73
2, 386462, Note_on_c, 0, 76, 85
2, 386542, Note_on_c, 0, 58, 0
2, 386549, Note_on_c, 0, 61, 0
2, 386549, Note_on_c, 0, 76, 0
2, 386553, Note_on_c, 0, 58, 75
2, 386553, Note_on_c, 0, 76, 84
2, 386555, Note_on_c, 0, 61, 73
2, 386618, Note_on_c, 0, 54, 0
2, 386618, Note_on_c, 0, 78, 0
2, 386629, Note_on_c, 0, 54, 65
2, 386630, Note_on_c, 0, 78, 89
2, 386718, Note_on_c, 0, 54, 0
2, 386718, Note_on_c, 0, 58, 0
2, 386718, Note_on_c, 0, 61, 0
2, 386723, Note_on_c, 0, 58, 74
2, 386726, Note_on_c, 0, 78, 0
2, 386727, Note_on_c, 0, 61, 73
2, 386729, Note_on_c, 0, 54, 68
2, 386732, Note_on_c, 0, 78, 85
2, 386787, Note_on_c, 0, 82, 0
2, 386796, Note_on_c, 0, 82, 95
2, 386864, Note_on_c, 0, 46, 0
2, 386872, Note_on_c, 0, 34, 0
2, 386874, Note_on_c, 0, 46, 91
2, 386880, Note_on_c, 0, 34, 75
2, 386887, Note_on_c, 0, 82, 0
2, 386892, Note_on_c, 0, 82, 100
2, 386949, Note_on_c, 0, 85, 0
2, 386958, Note_on_c, 0, 85, 81
2, 387041, Note_on_c, 0, 58, 0
2, 387041, Note_on_c, 0, 61, 0
2, 387041, Note_on_c, 0, 85, 0
2, 387045, Note_on_c, 0, 85, 82
2, 387046, Note_on_c, 0, 58, 68
2, 387048, Note_on_c, 0, 61, 78
2, 387103, Note_on_c, 0, 88, 88
2, 387164, Note_on_c, 0, 85, 0
2, 387169, Note_on_c, 0, 85, 73
2, 387182, Control_c, 0, 64, 0
2, 387183, Note_on_c, 0, 42, 0
2, 387183, Note_on_c, 0, 58, 0
2, 387183, Note_on_c, 0, 76, 0
2, 387183, Note_on_c, 0, 73, 0
2, 387184, Note_on_c, 0, 66, 0
2, 387184, Note_on_c, 0, 61, 0
2, 387184, Note_on_c, 0, 70, 0
2, 387184, Note_on_c, 0, 78, 0
2, 387184, Note_on_c, 0, 88, 0
2, 387184, Note_on_c, 0, 82, 0
2, 387210, Note_on_c, 0, 34, 0
2, 387210, Note_on_c, 0, 77, 0
2, 387217, Note_on_c, 0, 46, 0
2, 387237, Note_on_c, 0, 86, 105
2, 387243, Note_on_c, 0, 84, 97
2, 387244, Note_on_c, 0, 78, 100
2, 387246, Note_on_c, 0, 76, 95
2, 387254, Note_on_c, 0, 35, 84
2, 387265, Note_on_c, 0, 47, 79
2, 387271, Control_c, 0, 64, 127
2, 387422, Note_on_c, 0, 59, 70
2, 387425, Note_on_c, 0, 54, 0
2, 387425, Note_on_c, 0, 62, 64
2, 387434, Note_on_c, 0, 54, 64
2, 387494, Note_on_c, 0, 62, 0
2, 387495, Note_on_c, 0, 71, 82
2, 387503, Note_on_c, 0, 62, 63
2, 387544, Note_on_c, 0, 66, 73
2, 387594, Note_on_c, 0, 71, 0
2, 387605, Note_on_c, 0, 71, 89
2, 387609, Note_on_c, 0, 54, 0
2, 387613, Note_on_c, 0, 54, 75
2, 387687, Note_on_c, 0, 61, 72
2, 387689, Note_on_c, 0, 73, 91
2, 387786, Note_on_c, 0, 54, 0
2, 387786, Note_on_c, 0, 59, 0
2, 387786, Note_on_c, 0, 61, 0
2, 387786, Note_on_c, 0, 73, 0
2, 387791, Note_on_c, 0, 73, 96
2, 387795, Note_on_c, 0, 54, 62
2, 387796, Note_on_c, 0, 59, 67
2, 387797, Note_on_c, 0, 61, 77
2, 387855, Note_on_c, 0, 74, 92
2, 387893, Note_on_c, 0, 59, 0
2, 387898, Note_on_c, 0, 59, 43
2, 387947, Note_on_c, 0, 74, 0
2, 387956, Note_on_c, 0, 74, 97
2, 387970, Note_on_c, 0, 54, 0
2, 387970, Note_on_c, 0, 62, 0
2, 387976, Note_on_c, 0, 54, 75
2, 387979, Note_on_c, 0, 62, 71
2, 388016, Note_on_c, 0, 66, 0
2, 388016, Note_on_c, 0, 78, 0
2, 388027, Note_on_c, 0, 78, 97
2, 388027, Note_on_c, 0, 66, 70
2, 388131, Note_on_c, 0, 62, 0
2, 388131, Note_on_c, 0, 74, 0
2, 388131, Note_on_c, 0, 78, 0
2, 388138, Note_on_c, 0, 78, 92
2, 388140, Note_on_c, 0, 74, 75
2, 388140, Note_on_c, 0, 62, 66
2, 388185, Note_on_c, 0, 54, 0
2, 388192, Note_on_c, 0, 54, 60
2, 388215, Note_on_c, 0, 83, 91
2, 388316, Note_on_c, 0, 47, 0
2, 388316, Note_on_c, 0, 83, 0
2, 388322, Note_on_c, 0, 83, 99
2, 388323, Note_on_c, 0, 47, 73
2, 388369, Note_on_c, 0, 85, 0
2, 388374, Note_on_c, 0, 85, 96
2, 388477, Note_on_c, 0, 85, 0
2, 388484, Note_on_c, 0, 85, 83
2, 388485, Note_on_c, 0, 59, 0
2, 388485, Note_on_c, 0, 62, 0
2, 388489, Note_on_c, 0, 59, 68
2, 388490, Note_on_c, 0, 66, 0
2, 388492, Note_on_c, 0, 54, 0
2, 388493, Note_on_c, 0, 62, 73
2, 388493, Note_on_c, 0, 74, 0
2, 388498, Note_on_c, 0, 54, 69
2, 388538, Note_on_c, 0, 86, 0
2, 388550, Note_on_c, 0, 86, 91
2, 388641, Control_c, 0, 64, 0
2, 388644, Note_on_c, 0, 71, 0
2, 388645, Note_on_c, 0, 47, 0
2, 388645, Note_on_c, 0, 54, 0
2, 388645, Note_on_c, 0, 73, 0
2, 388645, Note_on_c, 0, 83, 0
2, 388646, Note_on_c, 0, 86, 0
2, 388646, Note_on_c, 0, 85, 0
2, 388646, Note_on_c, 0, 35, 0
2, 388646, Note_on_c, 0, 76, 0
2, 388647, Note_on_c, 0, 78, 0
2, 388650, Note_on_c, 0, 84, 0
2, 388661, Note_on_c, 0, 61, 0
2, 388669, Note_on_c, 0, 62, 0
2, 388677, Note_on_c, 0, 59, 0
2, 388697, Note_on_c, 0, 71, 94
2, 388697, Note_on_c, 0, 81, 99
2, 388701, Note_on_c, 0, 62, 82
2, 388701, Note_on_c, 0, 59, 85
2, 388705, Note_on_c, 0, 55, 97
2, 388746, Control_c, 0, 64, 127
2, 388816, Note_on_c, 0, 73, 82
2, 388882, Note_on_c, 0, 74, 80
2, 388984, Note_on_c, 0, 73, 0
2, 388991, Note_on_c, 0, 73, 71
2, 389045, Note_on_c, 0, 55, 0
2, 389045, Note_on_c, 0, 62, 0
2, 389055, Note_on_c, 0, 55, 66
2, 389056, Note_on_c, 0, 62, 43
2, 389076, Note_on_c, 0, 71, 0
2, 389081, Note_on_c, 0, 71, 65
2, 389176, Note_on_c, 0, 73, 0
2, 389182, Note_on_c, 0, 73, 70
2, 389253, Note_on_c, 0, 59, 0
2, 389253, Note_on_c, 0, 62, 0
2, 389253, Note_on_c, 0, 74, 0
2, 389261, Note_on_c, 0, 59, 76
2, 389261, Note_on_c, 0, 62, 79
2, 389262, Note_on_c, 0, 74, 94
2, 389345, Note_on_c, 0, 73, 0
2, 389352, Note_on_c, 0, 74, 0
2, 389355, Note_on_c, 0, 73, 72
2, 389364, Note_on_c, 0, 74, 75
2, 389429, Note_on_c, 0, 71, 0
2, 389429, Note_on_c, 0, 74, 0
2, 389441, Note_on_c, 0, 71, 66
2, 389441, Note_on_c, 0, 74, 64
2, 389521, Note_on_c, 0, 73, 0
2, 389527, Note_on_c, 0, 73, 68
2, 389591, Note_on_c, 0, 55, 0
2, 389598, Note_on_c, 0, 55, 57
2, 389606, Note_on_c, 0, 74, 0
2, 389616, Note_on_c, 0, 74, 76
2, 389706, Note_on_c, 0, 73, 0
2, 389711, Note_on_c, 0, 73, 76
2, 389775, Note_on_c, 0, 59, 0
2, 389775, Note_on_c, 0, 62, 0
2, 389775, Note_on_c, 0, 71, 0
2, 389775, Note_on_c, 0, 74, 0
2, 389780, Note_on_c, 0, 74, 81
2, 389783, Note_on_c, 0, 59, 80
2, 389783, Note_on_c, 0, 62, 81
2, 389786, Note_on_c, 0, 71, 81
2, 389836, Note_on_c, 0, 73, 0
2, 389840, Note_on_c, 0, 73, 69
2, 389882, Note_on_c, 0, 73, 0
2, 389893, Note_on_c, 0, 73, 71
2, 389928, Note_on_c, 0, 74, 0
2, 389933, Note_on_c, 0, 74, 65
2, 389936, Note_on_c, 0, 71, 0
2, 389941, Note_on_c, 0, 71, 62
2, 390005, Note_on_c, 0, 73, 0
2, 390005, Note_on_c, 0, 74, 0
2, 390010, Note_on_c, 0, 73, 76
2, 390015, Note_on_c, 0, 74, 68
2, 390085, Note_on_c, 0, 71, 0
2, 390085, Note_on_c, 0, 55, 0
2, 390085, Note_on_c, 0, 73, 0
2, 390085, Note_on_c, 0, 62, 0
2, 390085, Note_on_c, 0, 74, 0
2, 390085, Note_on_c, 0, 59, 0
2, 390086, Note_on_c, 0, 81, 0
2, 390091, Control_c, 0, 64, 0
2, 390132, Note_on_c, 0, 81, 98
2, 390133, Note_on_c, 0, 57, 87
2, 390138, Note_on_c, 0, 73, 93
2, 390139, Note_on_c, 0, 52, 84
2, 390140, Note_on_c, 0, 45, 86
2, 390167, Control_c, 0, 64, 127
2, 390241, Note_on_c, 0, 74, 78
2, 390287, Note_on_c, 0, 76, 73
2, 390343, Note_on_c, 0, 74, 0
2, 390347, Note_on_c, 0, 74, 62
2, 390382, Note_on_c, 0, 74, 0
2, 390388, Note_on_c, 0, 74, 76
2, 390428, Note_on_c, 0, 76, 0
2, 390432, Note_on_c, 0, 76, 70
2, 390481, Note_on_c, 0, 57, 0
2, 390481, Note_on_c, 0, 73, 0
2, 390491, Note_on_c, 0, 73, 71
2, 390492, Note_on_c, 0, 57, 67
2, 390496, Note_on_c, 0, 69, 65
2, 390551, Note_on_c, 0, 74, 0
2, 390558, Note_on_c, 0, 74, 74
2, 390558, Note_on_c, 0, 76, 0
2, 390566, Note_on_c, 0, 76, 62
2, 390604, Note_on_c, 0, 73, 0
2, 390609, Note_on_c, 0, 73, 52
2, 390666, Note_on_c, 0, 76, 0
2, 390672, Note_on_c, 0, 76, 97
2, 390673, Note_on_c, 0, 52, 0
2, 390673, Note_on_c, 0, 57, 0
2, 390678, Note_on_c, 0, 64, 82
2, 390680, Note_on_c, 0, 61, 75
2, 390680, Note_on_c, 0, 52, 64
2, 390685, Note_on_c, 0, 57, 64
2, 390743, Note_on_c, 0, 74, 0
2, 390750, Note_on_c, 0, 76, 0
2, 390754, Note_on_c, 0, 74, 77
2, 390762, Note_on_c, 0, 76, 77
2, 390858, Note_on_c, 0, 73, 0
2, 390858, Note_on_c, 0, 74, 0
2, 390869, Note_on_c, 0, 73, 82
2, 390869, Note_on_c, 0, 74, 70
2, 390958, Note_on_c, 0, 74, 0
2, 390967, Note_on_c, 0, 74, 73
2, 391019, Note_on_c, 0, 57, 0
2, 391019, Note_on_c, 0, 69, 0
2, 391019, Note_on_c, 0, 76, 0
2, 391023, Note_on_c, 0, 57, 72
2, 391026, Note_on_c, 0, 76, 87
2, 391028, Note_on_c, 0, 69, 72
2, 391111, Note_on_c, 0, 74, 0
2, 391119, Note_on_c, 0, 76, 0
2, 391121, Note_on_c, 0, 74, 78
2, 391124, Note_on_c, 0, 76, 70
2, 391196, Note_on_c, 0, 73, 0
2, 391203, Note_on_c, 0, 73, 89
2, 391203, Note_on_c, 0, 61, 0
2, 391203, Note_on_c, 0, 64, 0
2, 391208, Note_on_c, 0, 64, 83
2, 391209, Note_on_c, 0, 61, 78
2, 391280, Note_on_c, 0, 74, 0
2, 391284, Note_on_c, 0, 74, 80
2, 391342, Note_on_c, 0, 76, 0
2, 391346, Note_on_c, 0, 76, 80
2, 391426, Note_on_c, 0, 74, 0
2, 391435, Note_on_c, 0, 74, 74
2, 391488, Note_on_c, 0, 76, 0
2, 391494, Note_on_c, 0, 76, 69
2, 391519, Note_on_c, 0, 45, 0
2, 391520, Note_on_c, 0, 52, 0
2, 391520, Note_on_c, 0, 57, 0
2, 391520, Note_on_c, 0, 61, 0
2, 391520, Note_on_c, 0, 74, 0
2, 391520, Note_on_c, 0, 64, 0
2, 391521, Note_on_c, 0, 69, 0
2, 391521, Note_on_c, 0, 73, 0
2, 391521, Note_on_c, 0, 81, 0
2, 391527, Control_c, 0, 64, 0
2, 391541, Note_on_c, 0, 76, 0
2, 391567, Note_on_c, 0, 83, 99
2, 391571, Note_on_c, 0, 50, 86
2, 391573, Note_on_c, 0, 93, 98
2, 391574, Note_on_c, 0, 55, 92
2, 391580, Note_on_c, 0, 93, 0
2, 391595, Control_c, 0, 64, 127
2, 391672, Note_on_c, 0, 85, 71
2, 391715, Note_on_c, 0, 86, 82
2, 391718, Note_on_c, 0, 55, 0
2, 391727, Note_on_c, 0, 55, 61
2, 391810, Note_on_c, 0, 85, 0
2, 391816, Note_on_c, 0, 85, 86
2, 391902, Note_on_c, 0, 83, 0
2, 391910, Note_on_c, 0, 86, 0
2, 391913, Note_on_c, 0, 83, 74
2, 391916, Note_on_c, 0, 86, 74
2, 391918, Note_on_c, 0, 55, 0
2, 391925, Note_on_c, 0, 55, 72
2, 391987, Note_on_c, 0, 85, 0
2, 391997, Note_on_c, 0, 85, 78
2, 392087, Note_on_c, 0, 86, 0
2, 392098, Note_on_c, 0, 86, 100
2, 392100, Note_on_c, 0, 74, 93
2, 392102, Note_on_c, 0, 55, 0
2, 392105, Note_on_c, 0, 67, 82
2, 392107, Note_on_c, 0, 62, 75
2, 392108, Note_on_c, 0, 55, 74
2, 392108, Note_on_c, 0, 59, 76
2, 392186, Note_on_c, 0, 85, 0
2, 392190, Note_on_c, 0, 85, 86
2, 392263, Note_on_c, 0, 83, 0
2, 392274, Note_on_c, 0, 83, 79
2, 392355, Note_on_c, 0, 85, 0
2, 392359, Note_on_c, 0, 85, 80
2, 392440, Note_on_c, 0, 55, 0
2, 392440, Note_on_c, 0, 86, 0
2, 392445, Note_on_c, 0, 86, 86
2, 392451, Note_on_c, 0, 55, 77
2, 392532, Note_on_c, 0, 85, 0
2, 392539, Note_on_c, 0, 85, 81
2, 392624, Note_on_c, 0, 67, 0
2, 392632, Note_on_c, 0, 55, 0
2, 392632, Note_on_c, 0, 59, 0
2, 392632, Note_on_c, 0, 62, 0
2, 392632, Note_on_c, 0, 83, 0
2, 392632, Note_on_c, 0, 67, 84
2, 392637, Note_on_c, 0, 55, 72
2, 392637, Note_on_c, 0, 83, 91
2, 392640, Note_on_c, 0, 62, 73
2, 392642, Note_on_c, 0, 59, 76
2, 392701, Note_on_c, 0, 85, 0
2, 392712, Note_on_c, 0, 85, 82
2, 392778, Note_on_c, 0, 86, 0
2, 392785, Note_on_c, 0, 86, 80
2, 392870, Note_on_c, 0, 85, 0
2, 392878, Note_on_c, 0, 85, 80
2, 392942, Note_on_c, 0, 50, 0
2, 392942, Note_on_c, 0, 67, 0
2, 392942, Note_on_c, 0, 86, 0
2, 392942, Note_on_c, 0, 62, 0
2, 392942, Note_on_c, 0, 59, 0
2, 392942, Note_on_c, 0, 55, 0
2, 392943, Note_on_c, 0, 74, 0
2, 392951, Control_c, 0, 64, 0
2, 392962, Note_on_c, 0, 83, 0
2, 392977, Note_on_c, 0, 85, 0
2, 392985, Note_on_c, 0, 85, 98
2, 392985, Note_on_c, 0, 93, 108
2, 392986, Note_on_c, 0, 52, 89
2, 392987, Note_on_c, 0, 45, 89
2, 392988, Note_on_c, 0, 57, 94
2, 393024, Control_c, 0, 64, 127
2, 393067, Note_on_c, 0, 86, 56
2, 393128, Note_on_c, 0, 88, 83
2, 393223, Note_on_c, 0, 86, 0
2, 393234, Note_on_c, 0, 86, 78
2, 393308, Note_on_c, 0, 85, 0
2, 393318, Note_on_c, 0, 85, 89
2, 393331, Note_on_c, 0, 57, 0
2, 393339, Note_on_c, 0, 69, 71
2, 393341, Note_on_c, 0, 57, 64
2, 393408, Note_on_c, 0, 86, 0
2, 393419, Note_on_c, 0, 86, 80
2, 393507, Note_on_c, 0, 88, 0
2, 393518, Note_on_c, 0, 88, 101
2, 393523, Note_on_c, 0, 69, 0
2, 393526, Note_on_c, 0, 76, 93
2, 393528, Note_on_c, 0, 64, 76
2, 393534, Note_on_c, 0, 69, 86
2, 393536, Note_on_c, 0, 61, 71
2, 393600, Note_on_c, 0, 86, 0
2, 393610, Note_on_c, 0, 86, 72
2, 393615, Note_on_c, 0, 76, 0
2, 393626, Note_on_c, 0, 76, 78
2, 393692, Note_on_c, 0, 85, 0
2, 393696, Note_on_c, 0, 85, 89
2, 393784, Note_on_c, 0, 86, 0
2, 393788, Note_on_c, 0, 86, 83
2, 393845, Note_on_c, 0, 57, 0
2, 393853, Note_on_c, 0, 69, 0
2, 393853, Note_on_c, 0, 88, 0
2, 393856, Note_on_c, 0, 57, 82
2, 393857, Note_on_c, 0, 69, 84
2, 393858, Note_on_c, 0, 88, 95
2, 393945, Note_on_c, 0, 86, 0
2, 393954, Note_on_c, 0, 86, 83
2, 394022, Note_on_c, 0, 85, 0
2, 394028, Note_on_c, 0, 85, 97
2, 394053, Note_on_c, 0, 61, 0
2, 394053, Note_on_c, 0, 64, 0
2, 394053, Note_on_c, 0, 69, 0
2, 394059, Note_on_c, 0, 69, 85
2, 394063, Note_on_c, 0, 64, 77
2, 394064, Note_on_c, 0, 61, 83
2, 394129, Note_on_c, 0, 86, 0
2, 394140, Note_on_c, 0, 86, 68
2, 394206, Note_on_c, 0, 86, 0
2, 394211, Note_on_c, 0, 86, 99
2, 394216, Note_on_c, 0, 74, 92
2, 394291, Note_on_c, 0, 88, 0
2, 394298, Note_on_c, 0, 76, 0
2, 394299, Note_on_c, 0, 88, 97
2, 394305, Note_on_c, 0, 76, 88
2, 394427, Note_on_c, 0, 90, 111
2, 394432, Note_on_c, 0, 78, 105
2, 394433, Note_on_c, 0, 38, 88
2, 394433, Note_on_c, 0, 31, 92
2, 394434, Note_on_c, 0, 83, 98
2, 394435, Note_on_c, 0, 43, 98
2, 394437, Note_on_c, 0, 93, 0
2, 394440, Note_on_c, 0, 45, 0
2, 394442, Note_on_c, 0, 61, 0
2, 394443, Note_on_c, 0, 88, 0
2, 394444, Note_on_c, 0, 74, 0
2, 394444, Note_on_c, 0, 52, 0
2, 394445, Note_on_c, 0, 76, 0
2, 394452, Note_on_c, 0, 69, 0
2, 394460, Note_on_c, 0, 57, 0
2, 394462, Control_c, 0, 64, 0
2, 394467, Note_on_c, 0, 64, 0
2, 394467, Note_on_c, 0, 85, 0
2, 394475, Note_on_c, 0, 38, 0
2, 394529, Control_c, 0, 64, 127
2, 394536, Note_on_c, 0, 78, 0
2, 394545, Note_on_c, 0, 78, 84
2, 394621, Note_on_c, 0, 78, 0
2, 394623, Note_on_c, 0, 76, 70
2, 394629, Note_on_c, 0, 78, 72
2, 394790, Note_on_c, 0, 76, 0
2, 394794, Note_on_c, 0, 88, 102
2, 394798, Note_on_c, 0, 76, 93
2, 395160, Note_on_c, 0, 62, 81
2, 395162, Note_on_c, 0, 74, 92
2, 395163, Note_on_c, 0, 71, 93
2, 395163, Note_on_c, 0, 67, 90
2, 395163, Note_on_c, 0, 79, 98
2, 395166, Note_on_c, 0, 91, 107
2, 395535, Note_on_c, 0, 78, 0
2, 395535, Note_on_c, 0, 90, 0
2, 395539, Note_on_c, 0, 90, 101
2, 395540, Note_on_c, 0, 78, 100
2, 395566, Note_on_c, 0, 88, 0
2, 395570, Note_on_c, 0, 88, 51
2, 395892, Note_on_c, 0, 90, 0
2, 395892, Note_on_c, 0, 91, 0
2, 395893, Note_on_c, 0, 43, 0
2, 395893, Note_on_c, 0, 78, 0
2, 395894, Note_on_c, 0, 83, 0
2, 395894, Note_on_c, 0, 85, 104
2, 395895, Note_on_c, 0, 79, 0
2, 395895, Note_on_c, 0, 71, 0
2, 395895, Note_on_c, 0, 88, 0
2, 395896, Note_on_c, 0, 76, 0
2, 395896, Note_on_c, 0, 62, 0
2, 395897, Note_on_c, 0, 67, 0
2, 395897, Note_on_c, 0, 74, 0
2, 395897, Note_on_c, 0, 33, 84
2, 395900, Note_on_c, 0, 31, 0
2, 395900, Note_on_c, 0, 81, 91
2, 395901, Note_on_c, 0, 45, 84
2, 395901, Note_on_c, 0, 76, 98
2, 395901, Note_on_c, 0, 73, 102
2, 395919, Note_on_c, 0, 86, 0
2, 395920, Control_c, 0, 64, 0
2, 395973, Control_c, 0, 64, 127
2, 396005, Note_on_c, 0, 40, 70
2, 396096, Note_on_c, 0, 45, 0
2, 396100, Note_on_c, 0, 45, 67
2, 396164, Note_on_c, 0, 49, 72
2, 396259, Note_on_c, 0, 52, 74
2, 396269, Note_on_c, 0, 61, 64
2, 396280, Note_on_c, 0, 61, 0
2, 396344, Note_on_c, 0, 57, 66
2, 396345, Note_on_c, 0, 64, 71
2, 396345, Note_on_c, 0, 69, 69
2, 396426, Note_on_c, 0, 69, 0
2, 396436, Note_on_c, 0, 69, 76
2, 396510, Note_on_c, 0, 73, 0
2, 396518, Note_on_c, 0, 64, 0
2, 396520, Note_on_c, 0, 61, 70
2, 396521, Note_on_c, 0, 73, 83
2, 396522, Note_on_c, 0, 64, 85
2, 396615, Note_on_c, 0, 77, 82
2, 396687, Note_on_c, 0, 81, 0
2, 396695, Note_on_c, 0, 73, 0
2, 396697, Note_on_c, 0, 81, 90
2, 396702, Note_on_c, 0, 64, 0
2, 396706, Note_on_c, 0, 73, 86
2, 396710, Note_on_c, 0, 69, 0
2, 396712, Note_on_c, 0, 64, 71
2, 396715, Note_on_c, 0, 69, 61
2, 396748, Note_on_c, 0, 85, 0
2, 396754, Note_on_c, 0, 85, 77
2, 396756, Note_on_c, 0, 76, 0
2, 396767, Note_on_c, 0, 76, 77
2, 396849, Note_on_c, 0, 88, 91
2, 396856, Note_on_c, 0, 81, 0
2, 396860, Note_on_c, 0, 81, 69
2, 396925, Note_on_c, 0, 85, 0
2, 396935, Note_on_c, 0, 85, 99
2, 396935, Note_on_c, 0, 93, 99
2, 397089, Note_on_c, 0, 86, 102
2, 397089, Note_on_c, 0, 74, 96
2, 397178, Note_on_c, 0, 76, 0
2, 397178, Note_on_c, 0, 77, 0
2, 397188, Note_on_c, 0, 76, 81
2, 397189, Note_on_c, 0, 89, 88
2, 397190, Note_on_c, 0, 77, 78
2, 397194, Note_on_c, 0, 88, 0
2, 397198, Note_on_c, 0, 88, 70
2, 397271, Note_on_c, 0, 86, 0
2, 397281, Note_on_c, 0, 86, 89
2, 397284, Note_on_c, 0, 90, 106
2, 397290, Note_on_c, 0, 78, 101
2, 397290, Note_on_c, 0, 83, 90
2, 397297, Note_on_c, 0, 45, 0
2, 397298, Note_on_c, 0, 89, 0
2, 397298, Note_on_c, 0, 76, 0
2, 397298, Note_on_c, 0, 81, 0
2, 397298, Note_on_c, 0, 77, 0
2, 397298, Note_on_c, 0, 88, 0
2, 397299, Note_on_c, 0, 64, 0
2, 397299, Note_on_c, 0, 40, 0
2, 397299, Note_on_c, 0, 33, 0
2, 397299, Note_on_c, 0, 69, 0
2, 397301, Control_c, 0, 64, 0
2, 397301, Note_on_c, 0, 49, 0
2, 397302, Note_on_c, 0, 85, 0
2, 397304, Note_on_c, 0, 74, 0
2, 397305, Note_on_c, 0, 35, 81
2, 397306, Note_on_c, 0, 47, 89
2, 397309, Note_on_c, 0, 93, 0
2, 397317, Note_on_c, 0, 52, 0
2, 397317, Note_on_c, 0, 61, 0
2, 397317, Note_on_c, 0, 73, 0
2, 397332, Note_on_c, 0, 57, 0
2, 397355, Control_c, 0, 64, 127
2, 397657, Note_on_c, 0, 88, 101
2, 397659, Note_on_c, 0, 76, 92
2, 398024, Note_on_c, 0, 71, 95
2, 398026, Note_on_c, 0, 91, 106
2, 398029, Note_on_c, 0, 79, 98
2, 398030, Note_on_c, 0, 59, 81
2, 398033, Note_on_c, 0, 66, 82
2, 398033, Note_on_c, 0, 62, 86
2, 398376, Note_on_c, 0, 78, 0
2, 398376, Note_on_c, 0, 90, 0
2, 398383, Note_on_c, 0, 90, 104
2, 398386, Note_on_c, 0, 78, 98
2, 398538, Note_on_c, 0, 78, 0
2, 398543, Note_on_c, 0, 78, 82
2, 398739, Note_on_c, 0, 90, 0
2, 398740, Note_on_c, 0, 91, 0
2, 398740, Note_on_c, 0, 78, 0
2, 398741, Note_on_c, 0, 71, 0
2, 398741, Note_on_c, 0, 79, 0
2, 398741, Note_on_c, 0, 62, 0
2, 398741, Note_on_c, 0, 66, 0
2, 398741, Note_on_c, 0, 88, 0
2, 398742, Note_on_c, 0, 59, 0
2, 398743, Note_on_c, 0, 47, 0
2, 398745, Note_on_c, 0, 81, 104
2, 398745, Note_on_c, 0, 76, 0
2, 398748, Control_c, 0, 64, 0
2, 398749, Note_on_c, 0, 69, 92
2, 398749, Note_on_c, 0, 76, 98
2, 398750, Note_on_c, 0, 30, 85
2, 398751, Note_on_c, 0, 73, 92
2, 398760, Note_on_c, 0, 35, 0
2, 398760, Note_on_c, 0, 83, 0
2, 398760, Note_on_c, 0, 86, 0
2, 398807, Control_c, 0, 64, 127
2, 398843, Note_on_c, 0, 40, 64
2, 398914, Note_on_c, 0, 30, 0
2, 398925, Note_on_c, 0, 45, 71
2, 399030, Note_on_c, 0, 49, 69
2, 399108, Note_on_c, 0, 61, 72
2, 399109, Note_on_c, 0, 52, 76
2, 399191, Note_on_c, 0, 61, 0
2, 399194, Note_on_c, 0, 57, 68
2, 399194, Note_on_c, 0, 64, 75
2, 399202, Note_on_c, 0, 61, 67
2, 399267, Note_on_c, 0, 69, 0
2, 399279, Note_on_c, 0, 69, 76
2, 399360, Note_on_c, 0, 61, 0
2, 399360, Note_on_c, 0, 64, 0
2, 399360, Note_on_c, 0, 73, 0
2, 399365, Note_on_c, 0, 73, 82
2, 399370, Note_on_c, 0, 61, 73
2, 399371, Note_on_c, 0, 64, 75
2, 399452, Note_on_c, 0, 69, 0
2, 399459, Note_on_c, 0, 76, 0
2, 399463, Note_on_c, 0, 69, 77
2, 399465, Note_on_c, 0, 76, 81
2, 399528, Note_on_c, 0, 81, 0
2, 399537, Note_on_c, 0, 81, 86
2, 399544, Note_on_c, 0, 73, 0
2, 399550, Note_on_c, 0, 73, 79
2, 399552, Note_on_c, 0, 69, 0
2, 399562, Note_on_c, 0, 69, 54
2, 399600, Note_on_c, 0, 85, 90
2, 399613, Note_on_c, 0, 76, 0
2, 399619, Note_on_c, 0, 76, 84
2, 399697, Note_on_c, 0, 81, 0
2, 399702, Note_on_c, 0, 88, 82
2, 399702, Note_on_c, 0, 81, 81
2, 399774, Note_on_c, 0, 85, 0
2, 399785, Note_on_c, 0, 85, 88
2, 399786, Note_on_c, 0, 93, 94
2, 399897, Note_on_c, 0, 81, 0
2, 399904, Note_on_c, 0, 81, 66
2, 399965, Note_on_c, 0, 86, 90
2, 399967, Note_on_c, 0, 74, 99
2, 399978, Note_on_c, 0, 62, 71
2, 400043, Note_on_c, 0, 74, 0
2, 400047, Note_on_c, 0, 74, 79
2, 400050, Note_on_c, 0, 64, 0
2, 400170, Note_on_c, 0, 78, 102
2, 400172, Note_on_c, 0, 71, 88
2, 400172, Note_on_c, 0, 66, 102
2, 400179, Note_on_c, 0, 50, 88
2, 400180, Note_on_c, 0, 59, 88
2, 400199, Note_on_c, 0, 40, 0
2, 400199, Note_on_c, 0, 73, 0
2, 400200, Note_on_c, 0, 85, 0
2, 400200, Note_on_c, 0, 76, 0
2, 400200, Note_on_c, 0, 88, 0
2, 400200, Note_on_c, 0, 81, 0
2, 400201, Note_on_c, 0, 45, 0
2, 400201, Note_on_c, 0, 86, 0
2, 400202, Note_on_c, 0, 69, 0
2, 400202, Note_on_c, 0, 62, 0
2, 400202, Note_on_c, 0, 93, 0
2, 400203, Note_on_c, 0, 61, 0
2, 400214, Control_c, 0, 64, 0
2, 400220, Note_on_c, 0, 49, 0
2, 400227, Note_on_c, 0, 57, 0
2, 400235, Note_on_c, 0, 52, 0
2, 400320, Control_c, 0, 64, 127
2, 400335, Note_on_c, 0, 78, 0
2, 400343, Note_on_c, 0, 78, 79
2, 400546, Note_on_c, 0, 76, 103
2, 400549, Note_on_c, 0, 64, 91
2, 400919, Note_on_c, 0, 71, 0
2, 400919, Note_on_c, 0, 74, 0
2, 400922, Note_on_c, 0, 79, 98
2, 400923, Note_on_c, 0, 62, 84
2, 400923, Note_on_c, 0, 74, 85
2, 400927, Note_on_c, 0, 67, 89
2, 400929, Note_on_c, 0, 71, 85
2, 401287, Note_on_c, 0, 78, 0
2, 401295, Note_on_c, 0, 66, 0
2, 401298, Note_on_c, 0, 78, 100
2, 401299, Note_on_c, 0, 66, 97
2, 401694, Note_on_c, 0, 64, 0
2, 401696, Note_on_c, 0, 73, 94
2, 401701, Note_on_c, 0, 64, 77
2, 401705, Note_on_c, 0, 45, 73
2, 401705, Note_on_c, 0, 61, 82
2, 401705, Note_on_c, 0, 57, 77
2, 401705, Note_on_c, 0, 69, 81
2, 401706, Note_on_c, 0, 52, 78
2, 401706, Note_on_c, 0, 76, 0
2, 401706, Note_on_c, 0, 74, 0
2, 401706, Note_on_c, 0, 50, 0
2, 401706, Note_on_c, 0, 62, 0
2, 401706, Note_on_c, 0, 67, 0
2, 401706, Note_on_c, 0, 59, 0
2, 401706, Note_on_c, 0, 79, 0
2, 401706, Note_on_c, 0, 78, 0
2, 401707, Note_on_c, 0, 66, 0
2, 401707, Note_on_c, 0, 71, 0
2, 401715, Control_c, 0, 64, 0
2, 401925, Control_c, 0, 64, 127
2, 402124, Note_on_c, 0, 57, 0
2, 402124, Note_on_c, 0, 69, 0
2, 402130, Note_on_c, 0, 69, 79
2, 402133, Note_on_c, 0, 57, 83
2, 402570, Note_on_c, 0, 81, 99
2, 402570, Note_on_c, 0, 69, 0
2, 402570, Note_on_c, 0, 73, 0
2, 402576, Note_on_c, 0, 76, 92
2, 402577, Note_on_c, 0, 64, 0
2, 402580, Note_on_c, 0, 73, 87
2, 402581, Note_on_c, 0, 69, 83
2, 402584, Note_on_c, 0, 64, 81
2, 403077, Note_on_c, 0, 69, 0
2, 403084, Note_on_c, 0, 57, 0
2, 403088, Note_on_c, 0, 69, 83
2, 403091, Note_on_c, 0, 57, 54
2, 403466, Note_on_c, 0, 73, 0
2, 403466, Note_on_c, 0, 45, 0
2, 403466, Control_c, 0, 64, 0
2, 403467, Note_on_c, 0, 61, 0
2, 403467, Note_on_c, 0, 57, 0
2, 403467, Note_on_c, 0, 52, 0
2, 403469, Note_on_c, 0, 81, 0
2, 403469, Note_on_c, 0, 47, 70
2, 403470, Note_on_c, 0, 64, 0
2, 403514, Note_on_c, 0, 47, 0
2, 403520, Note_on_c, 0, 47, 62
2, 403522, Control_c, 0, 64, 127
2, 403577, Note_on_c, 0, 54, 72
2, 403666, Note_on_c, 0, 59, 77
2, 403729, Note_on_c, 0, 69, 0
2, 403834, Note_on_c, 0, 64, 86
2, 403837, Note_on_c, 0, 76, 0
2, 403839, Note_on_c, 0, 83, 102
2, 403839, Note_on_c, 0, 66, 80
2, 403841, Note_on_c, 0, 73, 88
2, 403842, Note_on_c, 0, 78, 90
2, 403845, Note_on_c, 0, 66, 0
2, 403846, Note_on_c, 0, 76, 94
2, 403847, Note_on_c, 0, 71, 85
2, 404604, Note_on_c, 0, 35, 67
2, 404685, Control_c, 0, 64, 0
2, 404728, Control_c, 0, 64, 127
2, 404814, Note_on_c, 0, 42, 58
2, 404916, Note_on_c, 0, 45, 60
2, 404924, Note_on_c, 0, 49, 56
2, 405004, Note_on_c, 0, 47, 0
2, 405010, Note_on_c, 0, 47, 51
2, 405053, Note_on_c, 0, 52, 68
2, 405104, Note_on_c, 0, 49, 0
2, 405114, Note_on_c, 0, 49, 68
2, 405135, Note_on_c, 0, 54, 0
2, 405139, Note_on_c, 0, 54, 69
2, 405204, Note_on_c, 0, 52, 0
2, 405208, Note_on_c, 0, 52, 65
2, 405212, Note_on_c, 0, 59, 0
2, 405217, Note_on_c, 0, 59, 66
2, 405239, Note_on_c, 0, 57, 72
2, 405246, Note_on_c, 0, 69, 70
2, 405288, Note_on_c, 0, 54, 0
2, 405296, Note_on_c, 0, 54, 77
2, 405312, Note_on_c, 0, 47, 0
2, 405317, Note_on_c, 0, 47, 64
2, 405335, Note_on_c, 0, 59, 0
2, 405344, Note_on_c, 0, 59, 68
2, 405350, Note_on_c, 0, 49, 0
2, 405355, Note_on_c, 0, 49, 70
2, 405360, Note_on_c, 0, 61, 75
2, 405419, Note_on_c, 0, 64, 0
2, 405427, Note_on_c, 0, 52, 0
2, 405427, Note_on_c, 0, 64, 80
2, 405431, Note_on_c, 0, 52, 65
2, 405457, Note_on_c, 0, 61, 0
2, 405468, Note_on_c, 0, 61, 71
2, 405473, Note_on_c, 0, 54, 0
2, 405478, Note_on_c, 0, 54, 63
2, 405493, Note_on_c, 0, 66, 67
2, 405534, Note_on_c, 0, 64, 0
2, 405538, Note_on_c, 0, 64, 75
2, 405565, Note_on_c, 0, 61, 0
2, 405565, Note_on_c, 0, 69, 0
2, 405569, Note_on_c, 0, 69, 78
2, 405576, Note_on_c, 0, 61, 69
2, 405580, Note_on_c, 0, 57, 0
2, 405591, Note_on_c, 0, 57, 63
2, 405603, Note_on_c, 0, 66, 0
2, 405611, Note_on_c, 0, 54, 0
2, 405611, Note_on_c, 0, 71, 0
2, 405614, Note_on_c, 0, 66, 73
2, 405616, Note_on_c, 0, 54, 69
2, 405621, Note_on_c, 0, 71, 74
2, 405657, Note_on_c, 0, 61, 0
2, 405657, Note_on_c, 0, 73, 0
2, 405662, Note_on_c, 0, 73, 77
2, 405664, Note_on_c, 0, 61, 71
2, 405680, Note_on_c, 0, 69, 0
2, 405685, Note_on_c, 0, 69, 66
2, 405719, Note_on_c, 0, 69, 0
2, 405719, Note_on_c, 0, 76, 0
2, 405725, Note_on_c, 0, 76, 85
2, 405728, Note_on_c, 0, 69, 64
2, 405757, Note_on_c, 0, 59, 0
2, 405761, Note_on_c, 0, 59, 63
2, 405765, Note_on_c, 0, 73, 0
2, 405775, Note_on_c, 0, 73, 75
2, 405780, Note_on_c, 0, 66, 0
2, 405780, Note_on_c, 0, 71, 0
2, 405787, Note_on_c, 0, 71, 66
2, 405791, Note_on_c, 0, 66, 71
2, 405795, Note_on_c, 0, 78, 0
2, 405801, Note_on_c, 0, 78, 80
2, 405818, Note_on_c, 0, 76, 0
2, 405829, Note_on_c, 0, 76, 79
2, 405871, Note_on_c, 0, 81, 84
2, 405918, Note_on_c, 0, 83, 0
2, 405924, Note_on_c, 0, 83, 80
2, 405957, Note_on_c, 0, 81, 0
2, 405965, Note_on_c, 0, 85, 80
2, 405966, Note_on_c, 0, 81, 71
2, 406020, Note_on_c, 0, 88, 86
2, 406058, Note_on_c, 0, 84, 71
2, 406101, Note_on_c, 0, 90, 88
2, 406103, Note_on_c, 0, 85, 0
2, 406113, Note_on_c, 0, 85, 77
2, 406156, Note_on_c, 0, 88, 0
2, 406161, Note_on_c, 0, 88, 93
2, 406183, Note_on_c, 0, 95, 87
2, 406256, Note_on_c, 0, 81, 0
2, 406267, Note_on_c, 0, 81, 69
2, 406295, Note_on_c, 0, 76, 0
2, 406302, Note_on_c, 0, 76, 57
2, 408960, Note_on_c, 0, 35, 0
2, 408960, Note_on_c, 0, 42, 0
2, 408960, Note_on_c, 0, 45, 0
2, 408960, Note_on_c, 0, 47, 0
2, 408960, Note_on_c, 0, 49, 0
2, 408960, Note_on_c, 0, 52, 0
2, 408960, Note_on_c, 0, 54, 0
2, 408960, Note_on_c, 0, 57, 0
2, 408960, Note_on_c, 0, 59, 0
2, 408960, Note_on_c, 0, 61, 0
2, 408960, Note_on_c, 0, 64, 0
2, 408960, Note_on_c, 0, 66, 0
2, 408960, Note_on_c, 0, 69, 0
2, 408960, Note_on_c, 0, 71, 0
2, 408960, Note_on_c, 0, 73, 0
2, 408960, Note_on_c, 0, 76, 0
2, 408960, Note_on_c, 0, 78, 0
2, 408960, Note_on_c, 0, 81, 0
2, 408960, Note_on_c, 0, 83, 0
2, 408960, Note_on_c, 0, 84, 0
2, 408960, Note_on_c, 0, 85, 0
2, 408960, Note_on_c, 0, 88, 0
2, 408960, Note_on_c, 0, 90, 0
2, 408960, Note_on_c, 0, 95, 0
2, 412573, Note_on_c, 0, 81, 52
2, 412818, Note_on_c, 0, 83, 63
2, 413027, Note_on_c, 0, 90, 84
2, 413214, Note_on_c, 0, 81, 0
2, 413219, Note_on_c, 0, 81, 67
2, 413452, Note_on_c, 0, 83, 0
2, 413462, Note_on_c, 0, 83, 61
2, 413752, Note_on_c, 0, 90, 0
2, 413757, Note_on_c, 0, 90, 74
2, 415226, Note_on_c, 0, 81, 0
2, 415231, Note_on_c, 0, 81, 59
2, 415231, Note_on_c, 0, 71, 40
2, 415503, Note_on_c, 0, 83, 0
2, 415509, Note_on_c, 0, 83, 69
2, 415514, Note_on_c, 0, 73, 52
2, 415787, Note_on_c, 0, 90, 0
2, 415793, Note_on_c, 0, 90, 80
2, 415806, Note_on_c, 0, 74, 53
2, 416117, Note_on_c, 0, 71, 0
2, 416117, Note_on_c, 0, 81, 0
2, 416128, Note_on_c, 0, 81, 68
2, 416129, Note_on_c, 0, 71, 49
2, 416563, Note_on_c, 0, 83, 0
2, 416568, Note_on_c, 0, 83, 68
2, 416586, Note_on_c, 0, 73, 0
2, 416590, Note_on_c, 0, 73, 37
2, 417333, Note_on_c, 0, 95, 65
2, 417338, Note_on_c, 0, 74, 0
2, 417338, Note_on_c, 0, 83, 0
2, 417344, Note_on_c, 0, 83, 43
2, 417345, Note_on_c, 0, 74, 45
2, 417349, Note_on_c, 0, 86, 47
2, 417354, Note_on_c, 0, 86, 0
2, 420403, Note_on_c, 0, 90, 0
2, 420480, Note_on_c, 0, 71, 0
2, 420480, Note_on_c, 0, 73, 0
2, 420480, Note_on_c, 0, 74, 0
2, 420480, Note_on_c, 0, 81, 0
2, 420480, Note_on_c, 0, 83, 0
2, 420480, Note_on_c, 0, 95, 0
2, 424404, Control_c, 0, 64, 0
2, 424405, End_track
0, 0, End_of_file
