0, 0, Header, 1, 2, 384
1, 0, Start_track
1, 0, Tempo, 500000
1, 0, Time_signature, 4, 2, 24, 8
1, 1, End_track
2, 0, Start_track
2, 875, Control_c, 0, 64, 127
2, 1362, Note_on_c, 0, 82, 82
2, 1370, Note_on_c, 0, 60, 64
2, 1489, Note_on_c, 0, 84, 81
2, 1501, Note_on_c, 0, 63, 68
2, 1636, Note_on_c, 0, 67, 74
2, 1747, Note_on_c, 0, 70, 76
2, 1850, Note_on_c, 0, 82, 0
2, 1861, Note_on_c, 0, 82, 83
2, 1981, Note_on_c, 0, 84, 0
2, 1986, Note_on_c, 0, 84, 82
2, 2119, Note_on_c, 0, 67, 0
2, 2124, Note_on_c, 0, 67, 78
2, 2250, Note_on_c, 0, 63, 0
2, 2255, Note_on_c, 0, 63, 70
2, 2362, Note_on_c, 0, 63, 0
2, 2362, Note_on_c, 0, 60, 0
2, 2363, Note_on_c, 0, 70, 0
2, 2363, Control_c, 0, 64, 0
2, 2364, Note_on_c, 0, 84, 0
2, 2365, Note_on_c, 0, 82, 0
2, 2367, Note_on_c, 0, 67, 0
2, 2370, Note_on_c, 0, 56, 75
2, 2371, Note_on_c, 0, 82, 88
2, 2449, Control_c, 0, 64, 127
2, 2498, Note_on_c, 0, 60, 74
2, 2504, Note_on_c, 0, 84, 82
2, 2626, Note_on_c, 0, 82, 0
2, 2631, Note_on_c, 0, 82, 81
2, 2636, Note_on_c, 0, 63, 78
2, 2754, Note_on_c, 0, 87, 93
2, 2755, Note_on_c, 0, 67, 79
2, 3018, Note_on_c, 0, 63, 0
2, 3021, Note_on_c, 0, 89, 87
2, 3024, Note_on_c, 0, 63, 68
2, 3141, Note_on_c, 0, 60, 0
2, 3146, Note_on_c, 0, 60, 72
2, 3274, Note_on_c, 0, 58, 72
2, 3345, Control_c, 0, 64, 0
2, 3346, Note_on_c, 0, 87, 0
2, 3346, Note_on_c, 0, 89, 0
2, 3346, Note_on_c, 0, 63, 0
2, 3346, Note_on_c, 0, 67, 0
2, 3346, Note_on_c, 0, 56, 0
2, 3346, Note_on_c, 0, 60, 0
2, 3347, Note_on_c, 0, 84, 0
2, 3371, Note_on_c, 0, 82, 0
2, 3382, Note_on_c, 0, 82, 87
2, 3383, Note_on_c, 0, 51, 77
2, 3386, Note_on_c, 0, 58, 0
2, 3417, Control_c, 0, 64, 127
2, 3505, Note_on_c, 0, 84, 86
2, 3508, Note_on_c, 0, 58, 75
2, 3624, Note_on_c, 0, 60, 79
2, 3747, Note_on_c, 0, 63, 73
2, 3847, Note_on_c, 0, 82, 0
2, 3858, Note_on_c, 0, 82, 88
2, 3985, Note_on_c, 0, 84, 0
2, 3991, Note_on_c, 0, 84, 90
2, 4108, Note_on_c, 0, 60, 0
2, 4118, Note_on_c, 0, 60, 72
2, 4118, Note_on_c, 0, 72, 68
2, 4124, Note_on_c, 0, 72, 0
2, 4231, Note_on_c, 0, 58, 0
2, 4239, Note_on_c, 0, 82, 0
2, 4240, Note_on_c, 0, 58, 70
2, 4249, Note_on_c, 0, 82, 88
2, 4330, Control_c, 0, 64, 0
2, 4334, Note_on_c, 0, 51, 0
2, 4334, Note_on_c, 0, 63, 0
2, 4335, Note_on_c, 0, 60, 0
2, 4335, Note_on_c, 0, 58, 0
2, 4336, Note_on_c, 0, 82, 0
2, 4345, Note_on_c, 0, 53, 76
2, 4369, Note_on_c, 0, 84, 0
2, 4377, Note_on_c, 0, 84, 86
2, 4400, Control_c, 0, 64, 127
2, 4488, Note_on_c, 0, 82, 85
2, 4488, Note_on_c, 0, 60, 63
2, 4600, Note_on_c, 0, 84, 0
2, 4609, Note_on_c, 0, 84, 86
2, 4622, Note_on_c, 0, 63, 77
2, 4740, Note_on_c, 0, 87, 95
2, 4746, Note_on_c, 0, 65, 61
2, 4800, Note_on_c, 0, 53, 0
2, 4977, Note_on_c, 0, 89, 91
2, 4992, Note_on_c, 0, 60, 0
2, 4998, Note_on_c, 0, 60, 84
2, 5115, Note_on_c, 0, 53, 74
2, 5225, Note_on_c, 0, 48, 84
2, 5225, Note_on_c, 0, 79, 92
2, 5225, Note_on_c, 0, 67, 87
2, 5308, Control_c, 0, 64, 0
2, 5309, Note_on_c, 0, 53, 0
2, 5309, Note_on_c, 0, 82, 0
2, 5309, Note_on_c, 0, 60, 0
2, 5310, Note_on_c, 0, 63, 0
2, 5310, Note_on_c, 0, 89, 0
2, 5310, Note_on_c, 0, 67, 0
2, 5310, Note_on_c, 0, 87, 0
2, 5310, Note_on_c, 0, 65, 0
2, 5310, Note_on_c, 0, 84, 0
2, 5310, Note_on_c, 0, 79, 0
2, 5337, Note_on_c, 0, 48, 0
2, 5341, Note_on_c, 0, 36, 84
2, 5342, Note_on_c, 0, 48, 84
2, 5346, Note_on_c, 0, 70, 92
2, 5346, Note_on_c, 0, 82, 96
2, 5375, Note_on_c, 0, 36, 0
2, 5383, Control_c, 0, 64, 127
2, 5391, Note_on_c, 0, 48, 0
2, 5463, Note_on_c, 0, 84, 90
2, 5464, Note_on_c, 0, 72, 85
2, 5575, Note_on_c, 0, 72, 0
2, 5575, Note_on_c, 0, 84, 0
2, 5586, Note_on_c, 0, 72, 79
2, 5586, Note_on_c, 0, 84, 92
2, 5706, Note_on_c, 0, 82, 0
2, 5709, Note_on_c, 0, 60, 86
2, 5713, Note_on_c, 0, 70, 0
2, 5714, Note_on_c, 0, 48, 83
2, 5717, Note_on_c, 0, 82, 96
2, 5717, Note_on_c, 0, 51, 88
2, 5718, Note_on_c, 0, 55, 77
2, 5718, Note_on_c, 0, 70, 93
2, 5829, Note_on_c, 0, 72, 0
2, 5829, Note_on_c, 0, 84, 0
2, 5840, Note_on_c, 0, 72, 86
2, 5840, Note_on_c, 0, 84, 96
2, 5952, Note_on_c, 0, 70, 0
2, 5952, Note_on_c, 0, 82, 0
2, 5960, Note_on_c, 0, 82, 94
2, 5962, Note_on_c, 0, 70, 87
2, 6033, Note_on_c, 0, 48, 0
2, 6034, Note_on_c, 0, 72, 0
2, 6034, Note_on_c, 0, 60, 0
2, 6034, Note_on_c, 0, 51, 0
2, 6034, Note_on_c, 0, 55, 0
2, 6035, Control_c, 0, 64, 0
2, 6035, Note_on_c, 0, 70, 0
2, 6036, Note_on_c, 0, 82, 0
2, 6051, Note_on_c, 0, 84, 0
2, 6062, Note_on_c, 0, 44, 93
2, 6063, Note_on_c, 0, 32, 88
2, 6070, Note_on_c, 0, 79, 98
2, 6086, Note_on_c, 0, 67, 76
2, 6097, Control_c, 0, 64, 127
2, 6120, Note_on_c, 0, 44, 0
2, 6206, Note_on_c, 0, 82, 90
2, 6209, Note_on_c, 0, 70, 77
2, 6323, Note_on_c, 0, 84, 93
2, 6323, Note_on_c, 0, 72, 84
2, 6434, Note_on_c, 0, 63, 82
2, 6443, Note_on_c, 0, 70, 0
2, 6443, Note_on_c, 0, 82, 0
2, 6444, Note_on_c, 0, 56, 80
2, 6447, Note_on_c, 0, 60, 73
2, 6451, Note_on_c, 0, 70, 92
2, 6452, Note_on_c, 0, 82, 92
2, 6558, Note_on_c, 0, 72, 0
2, 6558, Note_on_c, 0, 84, 0
2, 6569, Note_on_c, 0, 84, 94
2, 6569, Note_on_c, 0, 72, 85
2, 6696, Note_on_c, 0, 87, 103
2, 6699, Note_on_c, 0, 75, 85
2, 6951, Note_on_c, 0, 89, 91
2, 6953, Note_on_c, 0, 77, 89
2, 7065, Note_on_c, 0, 32, 0
2, 7074, Note_on_c, 0, 44, 81
2, 7076, Note_on_c, 0, 32, 73
2, 7188, Note_on_c, 0, 72, 0
2, 7188, Note_on_c, 0, 84, 0
2, 7197, Note_on_c, 0, 84, 92
2, 7197, Note_on_c, 0, 72, 87
2, 7240, Note_on_c, 0, 79, 0
2, 7240, Note_on_c, 0, 56, 0
2, 7240, Note_on_c, 0, 77, 0
2, 7241, Note_on_c, 0, 44, 0
2, 7241, Note_on_c, 0, 82, 0
2, 7241, Note_on_c, 0, 70, 0
2, 7242, Note_on_c, 0, 72, 0
2, 7242, Note_on_c, 0, 89, 0
2, 7243, Note_on_c, 0, 84, 0
2, 7243, Note_on_c, 0, 63, 0
2, 7243, Control_c, 0, 64, 0
2, 7243, Note_on_c, 0, 60, 0
2, 7244, Note_on_c, 0, 75, 0
2, 7244, Note_on_c, 0, 32, 0
2, 7244, Note_on_c, 0, 87, 0
2, 7249, Note_on_c, 0, 67, 0
2, 7314, Note_on_c, 0, 87, 99
2, 7315, Note_on_c, 0, 27, 87
2, 7315, Note_on_c, 0, 39, 80
2, 7315, Note_on_c, 0, 75, 88
2, 7342, Control_c, 0, 64, 127
2, 7439, Note_on_c, 0, 84, 88
2, 7440, Note_on_c, 0, 72, 81
2, 7541, Note_on_c, 0, 72, 0
2, 7541, Note_on_c, 0, 84, 0
2, 7549, Note_on_c, 0, 72, 79
2, 7550, Note_on_c, 0, 84, 95
2, 7687, Note_on_c, 0, 75, 0
2, 7687, Note_on_c, 0, 87, 0
2, 7690, Note_on_c, 0, 51, 90
2, 7691, Note_on_c, 0, 63, 87
2, 7691, Note_on_c, 0, 87, 97
2, 7691, Note_on_c, 0, 75, 89
2, 7697, Note_on_c, 0, 55, 78
2, 7697, Note_on_c, 0, 58, 78
2, 7802, Note_on_c, 0, 72, 0
2, 7802, Note_on_c, 0, 84, 0
2, 7811, Note_on_c, 0, 84, 87
2, 7813, Note_on_c, 0, 72, 76
2, 7925, Note_on_c, 0, 72, 0
2, 7925, Note_on_c, 0, 84, 0
2, 7932, Note_on_c, 0, 84, 89
2, 7933, Note_on_c, 0, 72, 80
2, 8005, Control_c, 0, 64, 0
2, 8006, Note_on_c, 0, 51, 0
2, 8007, Note_on_c, 0, 63, 0
2, 8007, Note_on_c, 0, 75, 0
2, 8007, Note_on_c, 0, 55, 0
2, 8007, Note_on_c, 0, 72, 0
2, 8007, Note_on_c, 0, 39, 0
2, 8007, Note_on_c, 0, 87, 0
2, 8008, Note_on_c, 0, 84, 0
2, 8010, Note_on_c, 0, 27, 0
2, 8025, Note_on_c, 0, 58, 0
2, 8058, Note_on_c, 0, 29, 87
2, 8060, Note_on_c, 0, 41, 85
2, 8068, Note_on_c, 0, 82, 92
2, 8074, Note_on_c, 0, 70, 86
2, 8110, Control_c, 0, 64, 127
2, 8185, Note_on_c, 0, 84, 99
2, 8186, Note_on_c, 0, 72, 84
2, 8313, Note_on_c, 0, 75, 89
2, 8314, Note_on_c, 0, 87, 97
2, 8424, Note_on_c, 0, 72, 0
2, 8424, Note_on_c, 0, 84, 0
2, 8430, Note_on_c, 0, 60, 79
2, 8430, Note_on_c, 0, 57, 82
2, 8435, Note_on_c, 0, 53, 70
2, 8435, Note_on_c, 0, 72, 93
2, 8436, Note_on_c, 0, 84, 95
2, 8555, Note_on_c, 0, 75, 0
2, 8555, Note_on_c, 0, 87, 0
2, 8560, Note_on_c, 0, 87, 97
2, 8565, Note_on_c, 0, 75, 71
2, 8675, Note_on_c, 0, 89, 105
2, 8676, Note_on_c, 0, 77, 102
2, 8912, Note_on_c, 0, 91, 95
2, 8914, Note_on_c, 0, 79, 87
2, 9016, Note_on_c, 0, 29, 0
2, 9016, Note_on_c, 0, 41, 0
2, 9023, Note_on_c, 0, 41, 73
2, 9024, Note_on_c, 0, 29, 70
2, 9146, Note_on_c, 0, 82, 0
2, 9156, Note_on_c, 0, 94, 89
2, 9157, Note_on_c, 0, 82, 88
2, 9255, Note_on_c, 0, 72, 0
2, 9255, Note_on_c, 0, 87, 0
2, 9256, Note_on_c, 0, 41, 0
2, 9256, Note_on_c, 0, 75, 0
2, 9256, Note_on_c, 0, 89, 0
2, 9256, Note_on_c, 0, 91, 0
2, 9256, Note_on_c, 0, 79, 0
2, 9256, Note_on_c, 0, 57, 0
2, 9256, Note_on_c, 0, 60, 0
2, 9256, Note_on_c, 0, 77, 0
2, 9256, Note_on_c, 0, 53, 0
2, 9257, Control_c, 0, 64, 0
2, 9257, Note_on_c, 0, 29, 0
2, 9261, Note_on_c, 0, 82, 0
2, 9262, Note_on_c, 0, 70, 0
2, 9290, Note_on_c, 0, 96, 99
2, 9292, Note_on_c, 0, 84, 0
2, 9293, Note_on_c, 0, 32, 78
2, 9294, Note_on_c, 0, 44, 82
2, 9296, Note_on_c, 0, 84, 92
2, 9431, Note_on_c, 0, 94, 0
2, 9431, Control_c, 0, 64, 127
2, 9436, Note_on_c, 0, 94, 70
2, 9538, Note_on_c, 0, 91, 70
2, 9600, Note_on_c, 0, 44, 0
2, 9654, Note_on_c, 0, 89, 69
2, 9776, Note_on_c, 0, 84, 0
2, 9783, Note_on_c, 0, 84, 68
2, 9891, Note_on_c, 0, 89, 0
2, 9902, Note_on_c, 0, 89, 60
2, 10014, Note_on_c, 0, 91, 0
2, 10021, Note_on_c, 0, 91, 66
2, 10137, Note_on_c, 0, 94, 0
2, 10144, Note_on_c, 0, 94, 71
2, 10268, Note_on_c, 0, 96, 0
2, 10277, Note_on_c, 0, 96, 71
2, 10398, Note_on_c, 0, 94, 0
2, 10409, Note_on_c, 0, 94, 54
2, 10529, Note_on_c, 0, 91, 0
2, 10537, Note_on_c, 0, 91, 67
2, 10682, Note_on_c, 0, 89, 0
2, 10686, Note_on_c, 0, 89, 60
2, 10790, Note_on_c, 0, 84, 0
2, 10797, Note_on_c, 0, 84, 68
2, 10913, Note_on_c, 0, 89, 0
2, 10922, Note_on_c, 0, 89, 61
2, 11051, Note_on_c, 0, 91, 0
2, 11056, Note_on_c, 0, 91, 66
2, 11083, Note_on_c, 0, 62, 54
2, 11084, Note_on_c, 0, 74, 58
2, 11132, Note_on_c, 0, 63, 66
2, 11188, Note_on_c, 0, 70, 65
2, 11189, Note_on_c, 0, 94, 0
2, 11197, Note_on_c, 0, 94, 56
2, 11232, Note_on_c, 0, 75, 78
2, 11304, Note_on_c, 0, 82, 89
2, 11312, Note_on_c, 0, 96, 0
2, 11322, Note_on_c, 0, 96, 74
2, 11427, Note_on_c, 0, 91, 0
2, 11432, Note_on_c, 0, 91, 55
2, 11550, Note_on_c, 0, 91, 0
2, 11560, Note_on_c, 0, 91, 62
2, 11681, Note_on_c, 0, 89, 0
2, 11691, Note_on_c, 0, 89, 59
2, 11811, Note_on_c, 0, 84, 0
2, 11822, Note_on_c, 0, 84, 62
2, 11942, Note_on_c, 0, 89, 0
2, 11953, Note_on_c, 0, 89, 49
2, 12057, Note_on_c, 0, 91, 0
2, 12061, Note_on_c, 0, 91, 64
2, 12165, Note_on_c, 0, 94, 0
2, 12169, Note_on_c, 0, 94, 63
2, 12318, Note_on_c, 0, 96, 0
2, 12323, Note_on_c, 0, 96, 72
2, 12441, Note_on_c, 0, 94, 0
2, 12451, Note_on_c, 0, 94, 65
2, 12579, Note_on_c, 0, 91, 0
2, 12583, Note_on_c, 0, 91, 62
2, 12675, Note_on_c, 0, 60, 82
2, 12687, Note_on_c, 0, 89, 0
2, 12698, Note_on_c, 0, 89, 68
2, 12794, Note_on_c, 0, 84, 0
2, 12802, Note_on_c, 0, 84, 63
2, 12917, Note_on_c, 0, 62, 0
2, 12917, Note_on_c, 0, 89, 0
2, 12922, Note_on_c, 0, 62, 83
2, 12925, Note_on_c, 0, 89, 70
2, 12940, Note_on_c, 0, 74, 0
2, 13102, Note_on_c, 0, 91, 0
2, 13109, Note_on_c, 0, 91, 54
2, 13171, Note_on_c, 0, 63, 0
2, 13175, Note_on_c, 0, 63, 79
2, 13292, Note_on_c, 0, 94, 0
2, 13293, Note_on_c, 0, 82, 0
2, 13294, Note_on_c, 0, 32, 0
2, 13294, Note_on_c, 0, 75, 0
2, 13294, Control_c, 0, 64, 0
2, 13295, Note_on_c, 0, 91, 0
2, 13295, Note_on_c, 0, 62, 0
2, 13295, Note_on_c, 0, 70, 0
2, 13295, Note_on_c, 0, 84, 0
2, 13301, Note_on_c, 0, 60, 0
2, 13306, Note_on_c, 0, 56, 78
2, 13309, Note_on_c, 0, 60, 72
2, 13309, Note_on_c, 0, 89, 0
2, 13409, Control_c, 0, 64, 127
2, 13442, Note_on_c, 0, 98, 71
2, 13558, Note_on_c, 0, 94, 67
2, 13666, Note_on_c, 0, 89, 74
2, 13699, Note_on_c, 0, 62, 80
2, 13810, Note_on_c, 0, 87, 73
2, 13923, Note_on_c, 0, 86, 78
2, 13931, Note_on_c, 0, 60, 0
2, 13941, Note_on_c, 0, 60, 72
2, 14031, Note_on_c, 0, 87, 0
2, 14041, Note_on_c, 0, 87, 74
2, 14076, Note_on_c, 0, 58, 76
2, 14146, Note_on_c, 0, 89, 0
2, 14157, Note_on_c, 0, 89, 67
2, 14284, Note_on_c, 0, 94, 0
2, 14295, Note_on_c, 0, 94, 78
2, 14315, Control_c, 0, 64, 0
2, 14317, Note_on_c, 0, 62, 0
2, 14318, Note_on_c, 0, 86, 0
2, 14318, Note_on_c, 0, 98, 0
2, 14318, Note_on_c, 0, 70, 69
2, 14319, Note_on_c, 0, 87, 0
2, 14319, Note_on_c, 0, 89, 0
2, 14319, Note_on_c, 0, 56, 0
2, 14319, Note_on_c, 0, 96, 0
2, 14319, Note_on_c, 0, 60, 0
2, 14323, Note_on_c, 0, 58, 0
2, 14323, Note_on_c, 0, 70, 0
2, 14327, Note_on_c, 0, 58, 62
2, 14330, Note_on_c, 0, 63, 0
2, 14333, Note_on_c, 0, 53, 65
2, 14334, Note_on_c, 0, 46, 56
2, 14425, Note_on_c, 0, 89, 69
2, 14446, Note_on_c, 0, 94, 0
2, 14453, Control_c, 0, 64, 127
2, 14552, Note_on_c, 0, 87, 73
2, 14681, Note_on_c, 0, 86, 73
2, 14811, Note_on_c, 0, 82, 67
2, 14948, Note_on_c, 0, 77, 52
2, 15060, Note_on_c, 0, 82, 0
2, 15065, Note_on_c, 0, 82, 60
2, 15168, Note_on_c, 0, 86, 0
2, 15179, Note_on_c, 0, 86, 70
2, 15290, Note_on_c, 0, 89, 0
2, 15297, Note_on_c, 0, 89, 65
2, 15313, Note_on_c, 0, 58, 0
2, 15316, Note_on_c, 0, 62, 59
2, 15316, Note_on_c, 0, 55, 58
2, 15320, Note_on_c, 0, 48, 59
2, 15322, Note_on_c, 0, 58, 51
2, 15348, Note_on_c, 0, 82, 0
2, 15348, Note_on_c, 0, 87, 0
2, 15349, Note_on_c, 0, 46, 0
2, 15349, Note_on_c, 0, 53, 0
2, 15349, Note_on_c, 0, 86, 0
2, 15349, Control_c, 0, 64, 0
2, 15349, Note_on_c, 0, 77, 0
2, 15434, Note_on_c, 0, 87, 72
2, 15436, Control_c, 0, 64, 127
2, 15452, Note_on_c, 0, 89, 0
2, 15548, Note_on_c, 0, 86, 77
2, 15665, Note_on_c, 0, 82, 70
2, 15790, Note_on_c, 0, 77, 64
2, 15916, Note_on_c, 0, 74, 62
2, 16048, Note_on_c, 0, 75, 66
2, 16151, Note_on_c, 0, 77, 0
2, 16159, Note_on_c, 0, 77, 71
2, 16195, Note_on_c, 0, 72, 67
2, 16273, Note_on_c, 0, 74, 0
2, 16283, Note_on_c, 0, 74, 62
2, 16304, Note_on_c, 0, 75, 0
2, 16304, Note_on_c, 0, 82, 0
2, 16304, Note_on_c, 0, 87, 0
2, 16309, Note_on_c, 0, 87, 74
2, 16313, Note_on_c, 0, 75, 68
2, 16315, Note_on_c, 0, 82, 76
2, 16412, Note_on_c, 0, 86, 0
2, 16416, Note_on_c, 0, 86, 73
2, 16535, Note_on_c, 0, 82, 0
2, 16545, Note_on_c, 0, 82, 74
2, 16665, Note_on_c, 0, 77, 0
2, 16669, Note_on_c, 0, 77, 76
2, 16680, Note_on_c, 0, 60, 89
2, 16796, Note_on_c, 0, 75, 0
2, 16807, Note_on_c, 0, 75, 48
2, 16919, Note_on_c, 0, 62, 0
2, 16919, Note_on_c, 0, 74, 0
2, 16928, Note_on_c, 0, 74, 80
2, 16929, Note_on_c, 0, 62, 88
2, 17041, Note_on_c, 0, 75, 0
2, 17052, Note_on_c, 0, 75, 60
2, 17157, Note_on_c, 0, 77, 0
2, 17167, Note_on_c, 0, 77, 76
2, 17180, Note_on_c, 0, 63, 82
2, 17272, Note_on_c, 0, 48, 0
2, 17275, Note_on_c, 0, 86, 0
2, 17275, Note_on_c, 0, 74, 0
2, 17276, Note_on_c, 0, 77, 0
2, 17276, Note_on_c, 0, 55, 0
2, 17276, Note_on_c, 0, 87, 0
2, 17281, Control_c, 0, 64, 0
2, 17287, Note_on_c, 0, 58, 0
2, 17287, Note_on_c, 0, 72, 0
2, 17287, Note_on_c, 0, 82, 0
2, 17295, Note_on_c, 0, 60, 0
2, 17295, Note_on_c, 0, 62, 0
2, 17295, Note_on_c, 0, 75, 0
2, 17300, Note_on_c, 0, 60, 80
2, 17300, Note_on_c, 0, 56, 81
2, 17306, Note_on_c, 0, 84, 75
2, 17379, Control_c, 0, 64, 127
2, 17443, Note_on_c, 0, 82, 67
2, 17573, Note_on_c, 0, 77, 66
2, 17674, Note_on_c, 0, 62, 78
2, 17675, Note_on_c, 0, 75, 60
2, 17779, Note_on_c, 0, 77, 0
2, 17785, Note_on_c, 0, 77, 80
2, 17794, Note_on_c, 0, 60, 0
2, 17801, Note_on_c, 0, 60, 81
2, 17917, Note_on_c, 0, 82, 0
2, 17921, Note_on_c, 0, 82, 75
2, 17922, Note_on_c, 0, 58, 81
2, 18040, Note_on_c, 0, 84, 0
2, 18050, Note_on_c, 0, 84, 66
2, 18170, Note_on_c, 0, 60, 0
2, 18179, Note_on_c, 0, 86, 75
2, 18181, Note_on_c, 0, 60, 67
2, 18279, Note_on_c, 0, 62, 0
2, 18279, Note_on_c, 0, 56, 0
2, 18279, Note_on_c, 0, 82, 0
2, 18279, Note_on_c, 0, 58, 0
2, 18279, Note_on_c, 0, 75, 0
2, 18279, Note_on_c, 0, 77, 0
2, 18279, Control_c, 0, 64, 0
2, 18280, Note_on_c, 0, 84, 0
2, 18286, Note_on_c, 0, 63, 0
2, 18295, Note_on_c, 0, 87, 77
2, 18297, Note_on_c, 0, 53, 70
2, 18322, Note_on_c, 0, 46, 59
2, 18378, Control_c, 0, 64, 127
2, 18424, Note_on_c, 0, 86, 0
2, 18430, Note_on_c, 0, 86, 62
2, 18557, Note_on_c, 0, 58, 80
2, 18576, Note_on_c, 0, 82, 60
2, 18705, Note_on_c, 0, 77, 61
2, 18816, Note_on_c, 0, 82, 0
2, 18827, Note_on_c, 0, 82, 65
2, 18943, Note_on_c, 0, 84, 69
2, 19061, Note_on_c, 0, 86, 0
2, 19066, Note_on_c, 0, 86, 72
2, 19176, Note_on_c, 0, 87, 0
2, 19182, Note_on_c, 0, 87, 75
2, 19318, Note_on_c, 0, 89, 70
2, 19321, Note_on_c, 0, 53, 0
2, 19322, Control_c, 0, 64, 0
2, 19323, Note_on_c, 0, 84, 0
2, 19324, Note_on_c, 0, 86, 0
2, 19324, Note_on_c, 0, 46, 0
2, 19324, Note_on_c, 0, 77, 0
2, 19324, Note_on_c, 0, 60, 0
2, 19325, Note_on_c, 0, 48, 60
2, 19325, Note_on_c, 0, 58, 0
2, 19325, Note_on_c, 0, 82, 0
2, 19326, Note_on_c, 0, 87, 0
2, 19326, Note_on_c, 0, 55, 63
2, 19333, Note_on_c, 0, 62, 60
2, 19438, Control_c, 0, 64, 127
2, 19448, Note_on_c, 0, 87, 73
2, 19566, Note_on_c, 0, 86, 78
2, 19568, Note_on_c, 0, 89, 0
2, 19686, Note_on_c, 0, 82, 64
2, 19806, Note_on_c, 0, 86, 0
2, 19811, Note_on_c, 0, 86, 72
2, 19921, Note_on_c, 0, 87, 0
2, 19932, Note_on_c, 0, 87, 76
2, 20064, Note_on_c, 0, 89, 70
2, 20168, Note_on_c, 0, 72, 61
2, 20189, Note_on_c, 0, 94, 62
2, 20299, Note_on_c, 0, 74, 71
2, 20328, Note_on_c, 0, 82, 0
2, 20339, Note_on_c, 0, 75, 71
2, 20339, Note_on_c, 0, 82, 74
2, 20451, Note_on_c, 0, 94, 0
2, 20456, Note_on_c, 0, 94, 56
2, 20559, Note_on_c, 0, 89, 0
2, 20569, Note_on_c, 0, 89, 58
2, 20689, Note_on_c, 0, 87, 0
2, 20694, Note_on_c, 0, 87, 66
2, 20696, Note_on_c, 0, 60, 89
2, 20797, Note_on_c, 0, 89, 0
2, 20802, Note_on_c, 0, 89, 65
2, 20935, Note_on_c, 0, 62, 0
2, 20943, Note_on_c, 0, 94, 0
2, 20946, Note_on_c, 0, 62, 87
2, 20948, Note_on_c, 0, 94, 76
2, 21093, Note_on_c, 0, 96, 75
2, 21207, Note_on_c, 0, 63, 80
2, 21210, Note_on_c, 0, 98, 75
2, 21286, Note_on_c, 0, 86, 0
2, 21286, Note_on_c, 0, 94, 0
2, 21286, Note_on_c, 0, 55, 0
2, 21286, Note_on_c, 0, 87, 0
2, 21287, Note_on_c, 0, 72, 0
2, 21287, Note_on_c, 0, 74, 0
2, 21287, Note_on_c, 0, 48, 0
2, 21289, Note_on_c, 0, 89, 0
2, 21291, Control_c, 0, 64, 0
2, 21296, Note_on_c, 0, 62, 0
2, 21304, Note_on_c, 0, 75, 0
2, 21304, Note_on_c, 0, 82, 0
2, 21312, Note_on_c, 0, 60, 0
2, 21316, Note_on_c, 0, 60, 79
2, 21318, Note_on_c, 0, 56, 83
2, 21323, Note_on_c, 0, 99, 78
2, 21411, Control_c, 0, 64, 127
2, 21450, Note_on_c, 0, 98, 0
2, 21454, Note_on_c, 0, 98, 68
2, 21579, Note_on_c, 0, 94, 63
2, 21702, Note_on_c, 0, 89, 75
2, 21703, Note_on_c, 0, 62, 79
2, 21818, Note_on_c, 0, 60, 0
2, 21827, Note_on_c, 0, 60, 81
2, 21829, Note_on_c, 0, 87, 74
2, 21954, Note_on_c, 0, 58, 82
2, 21971, Note_on_c, 0, 86, 72
2, 22087, Note_on_c, 0, 87, 0
2, 22098, Note_on_c, 0, 87, 60
2, 22195, Note_on_c, 0, 89, 0
2, 22204, Note_on_c, 0, 89, 63
2, 22302, Note_on_c, 0, 58, 0
2, 22313, Note_on_c, 0, 58, 82
2, 22318, Note_on_c, 0, 94, 0
2, 22322, Note_on_c, 0, 94, 75
2, 22323, Note_on_c, 0, 46, 65
2, 22324, Control_c, 0, 64, 0
2, 22329, Note_on_c, 0, 62, 0
2, 22330, Note_on_c, 0, 89, 0
2, 22330, Note_on_c, 0, 86, 0
2, 22330, Note_on_c, 0, 87, 0
2, 22330, Note_on_c, 0, 98, 0
2, 22330, Note_on_c, 0, 63, 0
2, 22330, Note_on_c, 0, 99, 0
2, 22330, Note_on_c, 0, 60, 0
2, 22331, Note_on_c, 0, 53, 64
2, 22332, Note_on_c, 0, 56, 0
2, 22348, Note_on_c, 0, 96, 0
2, 22433, Control_c, 0, 64, 127
2, 22454, Note_on_c, 0, 89, 68
2, 22575, Note_on_c, 0, 87, 68
2, 22690, Note_on_c, 0, 86, 74
2, 22824, Note_on_c, 0, 82, 61
2, 22949, Note_on_c, 0, 77, 58
2, 23055, Note_on_c, 0, 82, 0
2, 23062, Note_on_c, 0, 82, 62
2, 23193, Note_on_c, 0, 86, 0
2, 23198, Note_on_c, 0, 86, 70
2, 23316, Note_on_c, 0, 89, 0
2, 23317, Note_on_c, 0, 48, 65
2, 23317, Note_on_c, 0, 55, 63
2, 23321, Note_on_c, 0, 89, 67
2, 23344, Note_on_c, 0, 94, 0
2, 23344, Control_c, 0, 64, 0
2, 23344, Note_on_c, 0, 87, 0
2, 23344, Note_on_c, 0, 82, 0
2, 23345, Note_on_c, 0, 53, 0
2, 23345, Note_on_c, 0, 77, 0
2, 23346, Note_on_c, 0, 46, 0
2, 23347, Note_on_c, 0, 86, 0
2, 23370, Note_on_c, 0, 58, 0
2, 23416, Control_c, 0, 64, 127
2, 23454, Note_on_c, 0, 87, 70
2, 23566, Note_on_c, 0, 86, 78
2, 23707, Note_on_c, 0, 82, 72
2, 23828, Note_on_c, 0, 77, 71
2, 23964, Note_on_c, 0, 74, 56
2, 24073, Note_on_c, 0, 75, 66
2, 24168, Note_on_c, 0, 77, 0
2, 24180, Note_on_c, 0, 77, 73
2, 24237, Note_on_c, 0, 72, 64
2, 24307, Note_on_c, 0, 74, 0
2, 24312, Note_on_c, 0, 74, 59
2, 24322, Note_on_c, 0, 87, 0
2, 24333, Note_on_c, 0, 87, 80
2, 24345, Note_on_c, 0, 75, 0
2, 24345, Note_on_c, 0, 82, 0
2, 24353, Note_on_c, 0, 82, 77
2, 24355, Note_on_c, 0, 75, 67
2, 24453, Note_on_c, 0, 86, 0
2, 24458, Note_on_c, 0, 86, 73
2, 24560, Note_on_c, 0, 82, 0
2, 24565, Note_on_c, 0, 82, 70
2, 24691, Note_on_c, 0, 77, 0
2, 24697, Note_on_c, 0, 77, 75
2, 24814, Note_on_c, 0, 75, 0
2, 24818, Note_on_c, 0, 75, 75
2, 24826, Note_on_c, 0, 72, 0
2, 24835, Note_on_c, 0, 60, 88
2, 24944, Note_on_c, 0, 74, 0
2, 24951, Note_on_c, 0, 74, 78
2, 24951, Note_on_c, 0, 62, 84
2, 25067, Note_on_c, 0, 75, 0
2, 25078, Note_on_c, 0, 75, 64
2, 25182, Note_on_c, 0, 77, 0
2, 25192, Note_on_c, 0, 77, 71
2, 25344, Note_on_c, 0, 60, 0
2, 25350, Note_on_c, 0, 82, 0
2, 25352, Note_on_c, 0, 48, 0
2, 25352, Note_on_c, 0, 55, 0
2, 25353, Note_on_c, 0, 63, 87
2, 25354, Note_on_c, 0, 62, 0
2, 25354, Note_on_c, 0, 87, 0
2, 25355, Note_on_c, 0, 60, 76
2, 25355, Note_on_c, 0, 86, 0
2, 25355, Note_on_c, 0, 74, 0
2, 25355, Note_on_c, 0, 84, 72
2, 25357, Control_c, 0, 64, 0
2, 25361, Note_on_c, 0, 56, 78
2, 25367, Note_on_c, 0, 89, 0
2, 25374, Note_on_c, 0, 75, 0
2, 25390, Note_on_c, 0, 77, 0
2, 25459, Control_c, 0, 64, 127
2, 25489, Note_on_c, 0, 82, 64
2, 25610, Note_on_c, 0, 77, 63
2, 25733, Note_on_c, 0, 62, 85
2, 25737, Note_on_c, 0, 75, 65
2, 25743, Note_on_c, 0, 75, 0
2, 25827, Note_on_c, 0, 77, 0
2, 25838, Note_on_c, 0, 77, 79
2, 25858, Note_on_c, 0, 60, 0
2, 25868, Note_on_c, 0, 60, 82
2, 25973, Note_on_c, 0, 82, 0
2, 25978, Note_on_c, 0, 65, 91
2, 25983, Note_on_c, 0, 82, 74
2, 26112, Note_on_c, 0, 84, 0
2, 26121, Note_on_c, 0, 84, 71
2, 26219, Note_on_c, 0, 62, 0
2, 26225, Note_on_c, 0, 62, 87
2, 26252, Note_on_c, 0, 86, 80
2, 26334, Note_on_c, 0, 62, 0
2, 26341, Note_on_c, 0, 53, 79
2, 26345, Note_on_c, 0, 62, 72
2, 26346, Control_c, 0, 64, 0
2, 26350, Note_on_c, 0, 63, 0
2, 26350, Note_on_c, 0, 82, 0
2, 26351, Note_on_c, 0, 84, 0
2, 26351, Note_on_c, 0, 60, 0
2, 26351, Note_on_c, 0, 65, 0
2, 26352, Note_on_c, 0, 56, 0
2, 26352, Note_on_c, 0, 86, 0
2, 26363, Note_on_c, 0, 87, 81
2, 26373, Note_on_c, 0, 77, 0
2, 26391, Note_on_c, 0, 46, 61
2, 26449, Control_c, 0, 64, 127
2, 26482, Note_on_c, 0, 86, 74
2, 26615, Note_on_c, 0, 82, 64
2, 26731, Note_on_c, 0, 77, 65
2, 26849, Note_on_c, 0, 82, 0
2, 26855, Note_on_c, 0, 82, 64
2, 26864, Note_on_c, 0, 53, 0
2, 26875, Note_on_c, 0, 58, 60
2, 26875, Note_on_c, 0, 53, 49
2, 26983, Note_on_c, 0, 84, 67
2, 27095, Note_on_c, 0, 86, 0
2, 27100, Note_on_c, 0, 86, 76
2, 27217, Note_on_c, 0, 87, 0
2, 27221, Note_on_c, 0, 87, 77
2, 27356, Note_on_c, 0, 62, 0
2, 27358, Note_on_c, 0, 89, 70
2, 27360, Note_on_c, 0, 62, 58
2, 27363, Note_on_c, 0, 58, 0
2, 27368, Note_on_c, 0, 58, 48
2, 27369, Note_on_c, 0, 55, 48
2, 27371, Note_on_c, 0, 84, 0
2, 27372, Note_on_c, 0, 87, 0
2, 27372, Note_on_c, 0, 53, 0
2, 27372, Note_on_c, 0, 46, 0
2, 27373, Note_on_c, 0, 77, 0
2, 27373, Note_on_c, 0, 86, 0
2, 27374, Note_on_c, 0, 82, 0
2, 27375, Control_c, 0, 64, 0
2, 27381, Note_on_c, 0, 48, 48
2, 27448, Control_c, 0, 64, 127
2, 27477, Note_on_c, 0, 87, 75
2, 27618, Note_on_c, 0, 86, 80
2, 27730, Note_on_c, 0, 82, 74
2, 27840, Note_on_c, 0, 86, 0
2, 27847, Note_on_c, 0, 86, 76
2, 27861, Note_on_c, 0, 65, 64
2, 27863, Note_on_c, 0, 55, 0
2, 27872, Note_on_c, 0, 60, 39
2, 27874, Note_on_c, 0, 55, 43
2, 27878, Note_on_c, 0, 58, 0
2, 27878, Note_on_c, 0, 60, 0
2, 27883, Note_on_c, 0, 58, 36
2, 27947, Note_on_c, 0, 87, 0
2, 27958, Note_on_c, 0, 87, 77
2, 28081, Note_on_c, 0, 91, 74
2, 28213, Note_on_c, 0, 94, 72
2, 28337, Note_on_c, 0, 72, 72
2, 28340, Note_on_c, 0, 96, 82
2, 28343, Note_on_c, 0, 79, 73
2, 28469, Note_on_c, 0, 94, 0
2, 28475, Note_on_c, 0, 94, 69
2, 28584, Note_on_c, 0, 91, 0
2, 28593, Note_on_c, 0, 91, 72
2, 28706, Note_on_c, 0, 84, 74
2, 28800, Note_on_c, 0, 62, 0
2, 28846, Note_on_c, 0, 72, 0
2, 28852, Note_on_c, 0, 72, 93
2, 28878, Control_c, 0, 64, 0
2, 28882, Note_on_c, 0, 65, 0
2, 28882, Note_on_c, 0, 84, 0
2, 28882, Note_on_c, 0, 48, 0
2, 28883, Note_on_c, 0, 89, 0
2, 28883, Note_on_c, 0, 58, 0
2, 28883, Note_on_c, 0, 91, 0
2, 28883, Note_on_c, 0, 55, 0
2, 28884, Note_on_c, 0, 79, 0
2, 28884, Note_on_c, 0, 86, 0
2, 28884, Note_on_c, 0, 94, 0
2, 28885, Note_on_c, 0, 82, 0
2, 28899, Note_on_c, 0, 87, 0
2, 28899, Note_on_c, 0, 96, 0
2, 28972, Note_on_c, 0, 74, 96
2, 28983, Note_on_c, 0, 72, 0
2, 29209, Note_on_c, 0, 74, 0
2, 29210, Note_on_c, 0, 75, 96
2, 29340, Note_on_c, 0, 79, 90
2, 29344, Note_on_c, 0, 44, 79
2, 29348, Note_on_c, 0, 72, 76
2, 29353, Note_on_c, 0, 68, 75
2, 29383, Control_c, 0, 64, 127
2, 29597, Note_on_c, 0, 51, 64
2, 29715, Note_on_c, 0, 74, 95
2, 29737, Note_on_c, 0, 60, 70
2, 29738, Note_on_c, 0, 56, 75
2, 29944, Note_on_c, 0, 72, 0
2, 29951, Note_on_c, 0, 72, 88
2, 29969, Note_on_c, 0, 63, 76
2, 30070, Note_on_c, 0, 70, 97
2, 30099, Note_on_c, 0, 62, 73
2, 30322, Note_on_c, 0, 79, 0
2, 30322, Note_on_c, 0, 75, 0
2, 30324, Note_on_c, 0, 51, 0
2, 30324, Note_on_c, 0, 63, 0
2, 30324, Note_on_c, 0, 56, 0
2, 30324, Note_on_c, 0, 62, 0
2, 30324, Note_on_c, 0, 68, 0
2, 30324, Note_on_c, 0, 60, 0
2, 30325, Note_on_c, 0, 72, 0
2, 30325, Note_on_c, 0, 44, 0
2, 30327, Control_c, 0, 64, 0
2, 30336, Note_on_c, 0, 70, 0
2, 30339, Note_on_c, 0, 46, 72
2, 30342, Note_on_c, 0, 70, 91
2, 30343, Note_on_c, 0, 74, 0
2, 30346, Note_on_c, 0, 82, 90
2, 30352, Note_on_c, 0, 74, 79
2, 30354, Note_on_c, 0, 77, 83
2, 30420, Control_c, 0, 64, 127
2, 30594, Note_on_c, 0, 53, 54
2, 30673, Note_on_c, 0, 70, 0
2, 30731, Note_on_c, 0, 86, 88
2, 30743, Note_on_c, 0, 74, 0
2, 30748, Note_on_c, 0, 74, 65
2, 30752, Note_on_c, 0, 62, 66
2, 30755, Note_on_c, 0, 58, 66
2, 30981, Note_on_c, 0, 62, 0
2, 30981, Note_on_c, 0, 82, 0
2, 30985, Note_on_c, 0, 82, 77
2, 30988, Note_on_c, 0, 62, 70
2, 31119, Note_on_c, 0, 77, 0
2, 31124, Note_on_c, 0, 77, 72
2, 31129, Note_on_c, 0, 60, 64
2, 31211, Note_on_c, 0, 58, 0
2, 31215, Note_on_c, 0, 58, 66
2, 31219, Note_on_c, 0, 75, 73
2, 31339, Note_on_c, 0, 62, 0
2, 31340, Note_on_c, 0, 60, 0
2, 31341, Note_on_c, 0, 86, 0
2, 31341, Note_on_c, 0, 82, 0
2, 31341, Note_on_c, 0, 77, 0
2, 31341, Note_on_c, 0, 58, 0
2, 31341, Note_on_c, 0, 53, 0
2, 31342, Note_on_c, 0, 74, 0
2, 31342, Note_on_c, 0, 75, 0
2, 31342, Note_on_c, 0, 48, 70
2, 31343, Control_c, 0, 64, 0
2, 31344, Note_on_c, 0, 46, 0
2, 31347, Note_on_c, 0, 74, 80
2, 31353, Note_on_c, 0, 67, 74
2, 31406, Note_on_c, 0, 48, 0
2, 31434, Control_c, 0, 64, 127
2, 31478, Note_on_c, 0, 70, 78
2, 31554, Note_on_c, 0, 55, 71
2, 31580, Note_on_c, 0, 74, 0
2, 31585, Note_on_c, 0, 74, 75
2, 31706, Note_on_c, 0, 62, 67
2, 31707, Note_on_c, 0, 75, 80
2, 31711, Note_on_c, 0, 72, 73
2, 31712, Note_on_c, 0, 58, 63
2, 31833, Note_on_c, 0, 74, 0
2, 31840, Note_on_c, 0, 74, 69
2, 31933, Note_on_c, 0, 75, 0
2, 31939, Note_on_c, 0, 75, 71
2, 31979, Note_on_c, 0, 65, 73
2, 32064, Note_on_c, 0, 74, 0
2, 32072, Note_on_c, 0, 74, 71
2, 32082, Note_on_c, 0, 82, 84
2, 32099, Note_on_c, 0, 63, 72
2, 32186, Note_on_c, 0, 62, 0
2, 32197, Note_on_c, 0, 62, 62
2, 32215, Note_on_c, 0, 77, 73
2, 32309, Note_on_c, 0, 82, 0
2, 32314, Note_on_c, 0, 82, 80
2, 32328, Note_on_c, 0, 72, 0
2, 32328, Note_on_c, 0, 70, 0
2, 32328, Note_on_c, 0, 67, 0
2, 32328, Note_on_c, 0, 62, 0
2, 32328, Note_on_c, 0, 63, 0
2, 32328, Note_on_c, 0, 55, 0
2, 32329, Note_on_c, 0, 65, 0
2, 32329, Note_on_c, 0, 58, 0
2, 32329, Note_on_c, 0, 74, 0
2, 32329, Note_on_c, 0, 75, 0
2, 32329, Note_on_c, 0, 77, 0
2, 32330, Control_c, 0, 64, 0
2, 32344, Note_on_c, 0, 48, 72
2, 32389, Note_on_c, 0, 48, 0
2, 32394, Control_c, 0, 64, 127
2, 32453, Note_on_c, 0, 86, 79
2, 32455, Note_on_c, 0, 77, 77
2, 32563, Note_on_c, 0, 82, 0
2, 32573, Note_on_c, 0, 82, 76
2, 32580, Note_on_c, 0, 55, 70
2, 32701, Note_on_c, 0, 86, 0
2, 32705, Note_on_c, 0, 86, 84
2, 32706, Note_on_c, 0, 63, 74
2, 32714, Note_on_c, 0, 60, 61
2, 32819, Note_on_c, 0, 72, 94
2, 32935, Note_on_c, 0, 74, 99
2, 32964, Note_on_c, 0, 62, 70
2, 33062, Note_on_c, 0, 60, 0
2, 33069, Note_on_c, 0, 60, 72
2, 33166, Note_on_c, 0, 58, 60
2, 33178, Note_on_c, 0, 75, 94
2, 33303, Note_on_c, 0, 82, 0
2, 33304, Note_on_c, 0, 63, 0
2, 33304, Control_c, 0, 64, 0
2, 33304, Note_on_c, 0, 60, 0
2, 33304, Note_on_c, 0, 62, 0
2, 33304, Note_on_c, 0, 77, 0
2, 33304, Note_on_c, 0, 55, 0
2, 33305, Note_on_c, 0, 86, 0
2, 33306, Note_on_c, 0, 74, 0
2, 33306, Note_on_c, 0, 72, 0
2, 33306, Note_on_c, 0, 75, 0
2, 33311, Note_on_c, 0, 44, 82
2, 33313, Note_on_c, 0, 79, 91
2, 33318, Note_on_c, 0, 68, 82
2, 33331, Note_on_c, 0, 58, 0
2, 33384, Control_c, 0, 64, 127
2, 33562, Note_on_c, 0, 51, 72
2, 33679, Note_on_c, 0, 74, 90
2, 33710, Note_on_c, 0, 60, 72
2, 33712, Note_on_c, 0, 56, 70
2, 33804, Note_on_c, 0, 72, 92
2, 33926, Note_on_c, 0, 77, 99
2, 33954, Note_on_c, 0, 63, 77
2, 34055, Note_on_c, 0, 62, 66
2, 34091, Note_on_c, 0, 60, 0
2, 34101, Note_on_c, 0, 60, 48
2, 34166, Note_on_c, 0, 70, 97
2, 34272, Note_on_c, 0, 79, 0
2, 34272, Note_on_c, 0, 56, 0
2, 34273, Note_on_c, 0, 62, 0
2, 34273, Note_on_c, 0, 51, 0
2, 34273, Note_on_c, 0, 63, 0
2, 34273, Note_on_c, 0, 60, 0
2, 34274, Note_on_c, 0, 68, 0
2, 34276, Note_on_c, 0, 72, 0
2, 34277, Control_c, 0, 64, 0
2, 34283, Note_on_c, 0, 74, 0
2, 34283, Note_on_c, 0, 77, 0
2, 34286, Note_on_c, 0, 46, 72
2, 34288, Note_on_c, 0, 82, 83
2, 34291, Note_on_c, 0, 74, 76
2, 34294, Note_on_c, 0, 77, 83
2, 34298, Note_on_c, 0, 44, 0
2, 34360, Control_c, 0, 64, 127
2, 34531, Note_on_c, 0, 53, 66
2, 34534, Note_on_c, 0, 72, 83
2, 34652, Note_on_c, 0, 70, 0
2, 34657, Note_on_c, 0, 70, 86
2, 34677, Note_on_c, 0, 62, 63
2, 34793, Note_on_c, 0, 87, 92
2, 34805, Note_on_c, 0, 46, 0
2, 34920, Note_on_c, 0, 62, 0
2, 34920, Note_on_c, 0, 74, 0
2, 34929, Note_on_c, 0, 62, 67
2, 34929, Note_on_c, 0, 74, 64
2, 35045, Note_on_c, 0, 60, 58
2, 35141, Note_on_c, 0, 58, 64
2, 35144, Note_on_c, 0, 86, 79
2, 35213, Note_on_c, 0, 84, 76
2, 35267, Note_on_c, 0, 62, 0
2, 35267, Note_on_c, 0, 53, 0
2, 35267, Note_on_c, 0, 74, 0
2, 35268, Note_on_c, 0, 60, 0
2, 35268, Note_on_c, 0, 70, 0
2, 35268, Note_on_c, 0, 58, 0
2, 35268, Note_on_c, 0, 87, 0
2, 35269, Note_on_c, 0, 72, 0
2, 35269, Note_on_c, 0, 82, 0
2, 35270, Note_on_c, 0, 84, 0
2, 35270, Control_c, 0, 64, 0
2, 35274, Note_on_c, 0, 86, 0
2, 35281, Note_on_c, 0, 77, 0
2, 35285, Note_on_c, 0, 86, 91
2, 35286, Note_on_c, 0, 77, 84
2, 35286, Note_on_c, 0, 48, 67
2, 35335, Control_c, 0, 64, 127
2, 35340, Note_on_c, 0, 48, 0
2, 35421, Note_on_c, 0, 82, 82
2, 35543, Note_on_c, 0, 77, 0
2, 35547, Note_on_c, 0, 55, 60
2, 35547, Note_on_c, 0, 77, 75
2, 35673, Note_on_c, 0, 82, 0
2, 35676, Note_on_c, 0, 58, 71
2, 35678, Note_on_c, 0, 74, 77
2, 35680, Note_on_c, 0, 82, 75
2, 35684, Note_on_c, 0, 62, 57
2, 35796, Note_on_c, 0, 77, 0
2, 35803, Note_on_c, 0, 77, 74
2, 35910, Note_on_c, 0, 75, 75
2, 35969, Note_on_c, 0, 65, 53
2, 36031, Note_on_c, 0, 79, 86
2, 36039, Note_on_c, 0, 63, 68
2, 36039, Note_on_c, 0, 72, 64
2, 36142, Note_on_c, 0, 62, 0
2, 36147, Note_on_c, 0, 62, 53
2, 36149, Note_on_c, 0, 75, 0
2, 36158, Note_on_c, 0, 75, 78
2, 36262, Note_on_c, 0, 55, 0
2, 36262, Note_on_c, 0, 82, 0
2, 36263, Note_on_c, 0, 72, 0
2, 36263, Note_on_c, 0, 62, 0
2, 36263, Note_on_c, 0, 63, 0
2, 36264, Note_on_c, 0, 79, 0
2, 36264, Note_on_c, 0, 65, 0
2, 36264, Note_on_c, 0, 77, 0
2, 36264, Note_on_c, 0, 75, 0
2, 36265, Note_on_c, 0, 58, 0
2, 36265, Note_on_c, 0, 86, 0
2, 36265, Control_c, 0, 64, 0
2, 36272, Note_on_c, 0, 74, 0
2, 36273, Note_on_c, 0, 48, 75
2, 36280, Note_on_c, 0, 74, 73
2, 36334, Control_c, 0, 64, 127
2, 36337, Note_on_c, 0, 48, 0
2, 36395, Note_on_c, 0, 75, 78
2, 36503, Note_on_c, 0, 55, 70
2, 36511, Note_on_c, 0, 77, 87
2, 36625, Note_on_c, 0, 75, 0
2, 36631, Note_on_c, 0, 63, 78
2, 36634, Note_on_c, 0, 75, 73
2, 36637, Note_on_c, 0, 82, 71
2, 36645, Note_on_c, 0, 60, 55
2, 36747, Note_on_c, 0, 72, 93
2, 36856, Note_on_c, 0, 74, 0
2, 36862, Note_on_c, 0, 74, 101
2, 36885, Note_on_c, 0, 62, 70
2, 36956, Note_on_c, 0, 60, 0
2, 36960, Note_on_c, 0, 60, 73
2, 37054, Note_on_c, 0, 58, 55
2, 37094, Note_on_c, 0, 75, 0
2, 37098, Note_on_c, 0, 75, 94
2, 37214, Note_on_c, 0, 82, 0
2, 37215, Note_on_c, 0, 62, 0
2, 37216, Note_on_c, 0, 63, 0
2, 37216, Note_on_c, 0, 60, 0
2, 37216, Note_on_c, 0, 77, 0
2, 37216, Note_on_c, 0, 55, 0
2, 37216, Note_on_c, 0, 74, 0
2, 37217, Note_on_c, 0, 72, 0
2, 37218, Note_on_c, 0, 75, 0
2, 37221, Control_c, 0, 64, 0
2, 37228, Note_on_c, 0, 72, 80
2, 37229, Note_on_c, 0, 79, 90
2, 37229, Note_on_c, 0, 44, 79
2, 37230, Note_on_c, 0, 68, 80
2, 37240, Note_on_c, 0, 58, 0
2, 37317, Control_c, 0, 64, 127
2, 37498, Note_on_c, 0, 51, 68
2, 37602, Note_on_c, 0, 74, 90
2, 37625, Note_on_c, 0, 60, 67
2, 37628, Note_on_c, 0, 56, 66
2, 37724, Note_on_c, 0, 72, 0
2, 37728, Note_on_c, 0, 72, 89
2, 37849, Note_on_c, 0, 70, 94
2, 37875, Note_on_c, 0, 63, 76
2, 37982, Note_on_c, 0, 62, 66
2, 38069, Note_on_c, 0, 60, 0
2, 38078, Note_on_c, 0, 60, 69
2, 38220, Note_on_c, 0, 63, 0
2, 38221, Note_on_c, 0, 56, 0
2, 38221, Note_on_c, 0, 51, 0
2, 38222, Note_on_c, 0, 70, 0
2, 38222, Note_on_c, 0, 68, 0
2, 38222, Note_on_c, 0, 62, 0
2, 38222, Control_c, 0, 64, 0
2, 38223, Note_on_c, 0, 74, 0
2, 38224, Note_on_c, 0, 72, 0
2, 38226, Note_on_c, 0, 71, 93
2, 38227, Note_on_c, 0, 43, 80
2, 38230, Note_on_c, 0, 83, 90
2, 38231, Note_on_c, 0, 44, 0
2, 38231, Note_on_c, 0, 79, 0
2, 38232, Note_on_c, 0, 74, 79
2, 38238, Note_on_c, 0, 79, 77
2, 38238, Note_on_c, 0, 60, 0
2, 38292, Control_c, 0, 64, 127
2, 38469, Note_on_c, 0, 50, 73
2, 38601, Note_on_c, 0, 59, 72
2, 38603, Note_on_c, 0, 55, 64
2, 38726, Note_on_c, 0, 84, 88
2, 38730, Note_on_c, 0, 43, 0
2, 38840, Note_on_c, 0, 65, 72
2, 38964, Note_on_c, 0, 86, 91
2, 38964, Note_on_c, 0, 63, 66
2, 39067, Note_on_c, 0, 62, 62
2, 39184, Note_on_c, 0, 71, 0
2, 39185, Note_on_c, 0, 59, 0
2, 39185, Note_on_c, 0, 74, 0
2, 39185, Note_on_c, 0, 79, 0
2, 39185, Note_on_c, 0, 83, 0
2, 39185, Note_on_c, 0, 55, 0
2, 39185, Note_on_c, 0, 65, 0
2, 39186, Note_on_c, 0, 63, 0
2, 39186, Note_on_c, 0, 62, 0
2, 39187, Control_c, 0, 64, 0
2, 39187, Note_on_c, 0, 50, 0
2, 39188, Note_on_c, 0, 84, 0
2, 39206, Note_on_c, 0, 86, 0
2, 39212, Note_on_c, 0, 86, 89
2, 39216, Note_on_c, 0, 75, 79
2, 39216, Note_on_c, 0, 48, 73
2, 39257, Note_on_c, 0, 48, 0
2, 39260, Control_c, 0, 64, 127
2, 39360, Note_on_c, 0, 82, 80
2, 39443, Note_on_c, 0, 55, 60
2, 39479, Note_on_c, 0, 77, 77
2, 39579, Note_on_c, 0, 87, 91
2, 39590, Note_on_c, 0, 75, 0
2, 39592, Note_on_c, 0, 63, 76
2, 39593, Note_on_c, 0, 60, 62
2, 39595, Note_on_c, 0, 75, 72
2, 39598, Note_on_c, 0, 82, 0
2, 39608, Note_on_c, 0, 82, 67
2, 39705, Note_on_c, 0, 86, 0
2, 39711, Note_on_c, 0, 86, 85
2, 39813, Note_on_c, 0, 82, 0
2, 39823, Note_on_c, 0, 82, 82
2, 39832, Note_on_c, 0, 67, 81
2, 39951, Note_on_c, 0, 86, 0
2, 39952, Note_on_c, 0, 89, 82
2, 39961, Note_on_c, 0, 65, 67
2, 39962, Note_on_c, 0, 86, 78
2, 40005, Note_on_c, 0, 63, 0
2, 40005, Note_on_c, 0, 75, 0
2, 40013, Note_on_c, 0, 63, 72
2, 40015, Note_on_c, 0, 75, 69
2, 40066, Note_on_c, 0, 87, 0
2, 40074, Note_on_c, 0, 87, 76
2, 40174, Note_on_c, 0, 86, 0
2, 40181, Note_on_c, 0, 86, 80
2, 40191, Note_on_c, 0, 46, 75
2, 40193, Note_on_c, 0, 67, 0
2, 40193, Note_on_c, 0, 55, 0
2, 40193, Note_on_c, 0, 82, 0
2, 40193, Note_on_c, 0, 65, 0
2, 40193, Note_on_c, 0, 60, 0
2, 40194, Note_on_c, 0, 63, 0
2, 40194, Control_c, 0, 64, 0
2, 40194, Note_on_c, 0, 89, 0
2, 40194, Note_on_c, 0, 77, 0
2, 40197, Note_on_c, 0, 75, 0
2, 40220, Note_on_c, 0, 87, 0
2, 40266, Control_c, 0, 64, 127
2, 40321, Note_on_c, 0, 82, 81
2, 40431, Note_on_c, 0, 53, 72
2, 40454, Note_on_c, 0, 89, 73
2, 40560, Note_on_c, 0, 62, 72
2, 40562, Note_on_c, 0, 94, 81
2, 40563, Note_on_c, 0, 58, 61
2, 40682, Note_on_c, 0, 72, 93
2, 40792, Note_on_c, 0, 74, 100
2, 40817, Note_on_c, 0, 65, 77
2, 40907, Note_on_c, 0, 63, 70
2, 40988, Note_on_c, 0, 62, 0
2, 40999, Note_on_c, 0, 62, 60
2, 41041, Note_on_c, 0, 58, 0
2, 41047, Note_on_c, 0, 58, 64
2, 41049, Note_on_c, 0, 75, 98
2, 41151, Note_on_c, 0, 94, 0
2, 41151, Note_on_c, 0, 82, 0
2, 41151, Note_on_c, 0, 63, 0
2, 41151, Control_c, 0, 64, 0
2, 41151, Note_on_c, 0, 58, 0
2, 41151, Note_on_c, 0, 89, 0
2, 41152, Note_on_c, 0, 65, 0
2, 41152, Note_on_c, 0, 53, 0
2, 41152, Note_on_c, 0, 74, 0
2, 41153, Note_on_c, 0, 75, 0
2, 41164, Note_on_c, 0, 86, 0
2, 41172, Note_on_c, 0, 46, 0
2, 41172, Note_on_c, 0, 62, 0
2, 41172, Note_on_c, 0, 72, 0
2, 41175, Note_on_c, 0, 79, 93
2, 41176, Note_on_c, 0, 45, 76
2, 41176, Note_on_c, 0, 72, 84
2, 41178, Note_on_c, 0, 69, 77
2, 41220, Note_on_c, 0, 45, 0
2, 41233, Control_c, 0, 64, 127
2, 41421, Note_on_c, 0, 53, 69
2, 41559, Note_on_c, 0, 57, 76
2, 41560, Note_on_c, 0, 60, 79
2, 41562, Note_on_c, 0, 74, 84
2, 41679, Note_on_c, 0, 71, 78
2, 41789, Note_on_c, 0, 82, 97
2, 41807, Note_on_c, 0, 67, 79
2, 41911, Note_on_c, 0, 65, 62
2, 41950, Note_on_c, 0, 63, 75
2, 42024, Note_on_c, 0, 82, 0
2, 42035, Note_on_c, 0, 82, 105
2, 42129, Note_on_c, 0, 53, 0
2, 42129, Note_on_c, 0, 57, 0
2, 42129, Note_on_c, 0, 63, 0
2, 42129, Note_on_c, 0, 65, 0
2, 42129, Note_on_c, 0, 79, 0
2, 42129, Note_on_c, 0, 67, 0
2, 42130, Note_on_c, 0, 71, 0
2, 42130, Note_on_c, 0, 72, 0
2, 42130, Note_on_c, 0, 74, 0
2, 42131, Note_on_c, 0, 60, 0
2, 42131, Control_c, 0, 64, 0
2, 42140, Note_on_c, 0, 69, 0
2, 42148, Note_on_c, 0, 45, 78
2, 42152, Note_on_c, 0, 87, 95
2, 42186, Control_c, 0, 64, 127
2, 42273, Note_on_c, 0, 77, 95
2, 42393, Note_on_c, 0, 79, 99
2, 42394, Note_on_c, 0, 53, 62
2, 42526, Note_on_c, 0, 57, 74
2, 42526, Note_on_c, 0, 60, 79
2, 42639, Note_on_c, 0, 82, 0
2, 42643, Note_on_c, 0, 89, 96
2, 42773, Note_on_c, 0, 65, 79
2, 42891, Note_on_c, 0, 63, 74
2, 42983, Note_on_c, 0, 62, 79
2, 43000, Note_on_c, 0, 45, 0
2, 43135, Note_on_c, 0, 62, 0
2, 43135, Note_on_c, 0, 65, 0
2, 43135, Note_on_c, 0, 60, 0
2, 43135, Note_on_c, 0, 53, 0
2, 43135, Note_on_c, 0, 63, 0
2, 43135, Note_on_c, 0, 77, 0
2, 43136, Note_on_c, 0, 57, 0
2, 43136, Note_on_c, 0, 89, 0
2, 43136, Note_on_c, 0, 87, 0
2, 43138, Control_c, 0, 64, 0
2, 43150, Note_on_c, 0, 43, 73
2, 43152, Note_on_c, 0, 91, 95
2, 43153, Note_on_c, 0, 79, 0
2, 43161, Note_on_c, 0, 86, 91
2, 43161, Note_on_c, 0, 79, 82
2, 43163, Note_on_c, 0, 83, 85
2, 43223, Control_c, 0, 64, 127
2, 43269, Note_on_c, 0, 43, 0
2, 43272, Note_on_c, 0, 55, 72
2, 43395, Note_on_c, 0, 62, 75
2, 43514, Note_on_c, 0, 55, 0
2, 43519, Note_on_c, 0, 55, 73
2, 43637, Note_on_c, 0, 79, 0
2, 43643, Note_on_c, 0, 79, 91
2, 43649, Note_on_c, 0, 67, 79
2, 43650, Note_on_c, 0, 71, 81
2, 43776, Note_on_c, 0, 55, 0
2, 43782, Note_on_c, 0, 55, 81
2, 43898, Note_on_c, 0, 62, 0
2, 43907, Note_on_c, 0, 62, 82
2, 44006, Note_on_c, 0, 55, 0
2, 44010, Note_on_c, 0, 55, 70
2, 44117, Note_on_c, 0, 67, 0
2, 44117, Note_on_c, 0, 62, 0
2, 44117, Note_on_c, 0, 71, 0
2, 44117, Control_c, 0, 64, 0
2, 44117, Note_on_c, 0, 86, 0
2, 44118, Note_on_c, 0, 55, 0
2, 44118, Note_on_c, 0, 79, 0
2, 44118, Note_on_c, 0, 91, 0
2, 44136, Note_on_c, 0, 83, 0
2, 44149, Note_on_c, 0, 93, 97
2, 44153, Note_on_c, 0, 57, 91
2, 44154, Note_on_c, 0, 45, 91
2, 44175, Control_c, 0, 64, 127
2, 44219, Note_on_c, 0, 88, 81
2, 44278, Note_on_c, 0, 86, 87
2, 44318, Note_on_c, 0, 81, 67
2, 44392, Note_on_c, 0, 74, 81
2, 44494, Note_on_c, 0, 69, 68
2, 44507, Note_on_c, 0, 64, 79
2, 44583, Note_on_c, 0, 62, 78
2, 44651, Note_on_c, 0, 57, 0
2, 44662, Note_on_c, 0, 57, 99
2, 44733, Note_on_c, 0, 69, 0
2, 44733, Note_on_c, 0, 81, 0
2, 44734, Note_on_c, 0, 62, 0
2, 44734, Note_on_c, 0, 93, 0
2, 44735, Note_on_c, 0, 64, 0
2, 44735, Note_on_c, 0, 86, 0
2, 44735, Note_on_c, 0, 88, 0
2, 44736, Note_on_c, 0, 74, 0
2, 44736, Note_on_c, 0, 45, 0
2, 44739, Control_c, 0, 64, 0
2, 44835, Note_on_c, 0, 57, 0
2, 45068, Note_on_c, 0, 81, 93
2, 45070, Note_on_c, 0, 69, 79
2, 45100, Note_on_c, 0, 69, 0
2, 45101, Note_on_c, 0, 81, 0
2, 45158, Control_c, 0, 64, 127
2, 45185, Note_on_c, 0, 86, 106
2, 45191, Note_on_c, 0, 34, 83
2, 45192, Note_on_c, 0, 74, 100
2, 45287, Note_on_c, 0, 46, 75
2, 45431, Note_on_c, 0, 62, 79
2, 45432, Note_on_c, 0, 58, 80
2, 45433, Note_on_c, 0, 81, 93
2, 45437, Note_on_c, 0, 69, 86
2, 45562, Note_on_c, 0, 79, 96
2, 45564, Note_on_c, 0, 67, 95
2, 45669, Control_c, 0, 64, 0
2, 45669, Note_on_c, 0, 46, 0
2, 45669, Note_on_c, 0, 58, 0
2, 45669, Note_on_c, 0, 69, 0
2, 45669, Note_on_c, 0, 81, 0
2, 45669, Note_on_c, 0, 62, 0
2, 45669, Note_on_c, 0, 74, 0
2, 45671, Note_on_c, 0, 86, 0
2, 45680, Note_on_c, 0, 34, 0
2, 45687, Note_on_c, 0, 34, 78
2, 45719, Control_c, 0, 64, 127
2, 45796, Note_on_c, 0, 46, 82
2, 45923, Note_on_c, 0, 62, 90
2, 45924, Note_on_c, 0, 58, 84
2, 46046, Note_on_c, 0, 77, 91
2, 46050, Note_on_c, 0, 65, 78
2, 46138, Control_c, 0, 64, 0
2, 46138, Note_on_c, 0, 62, 0
2, 46138, Note_on_c, 0, 58, 0
2, 46138, Note_on_c, 0, 34, 0
2, 46138, Note_on_c, 0, 46, 0
2, 46139, Note_on_c, 0, 65, 0
2, 46140, Note_on_c, 0, 77, 0
2, 46164, Note_on_c, 0, 67, 0
2, 46164, Note_on_c, 0, 79, 0
2, 46168, Note_on_c, 0, 79, 95
2, 46170, Note_on_c, 0, 67, 88
2, 46170, Note_on_c, 0, 33, 81
2, 46195, Control_c, 0, 64, 127
2, 46214, Note_on_c, 0, 67, 0
2, 46272, Note_on_c, 0, 45, 82
2, 46284, Note_on_c, 0, 77, 87
2, 46296, Note_on_c, 0, 65, 78
2, 46402, Note_on_c, 0, 79, 0
2, 46413, Note_on_c, 0, 79, 90
2, 46413, Note_on_c, 0, 61, 89
2, 46415, Note_on_c, 0, 57, 89
2, 46416, Note_on_c, 0, 67, 82
2, 46533, Note_on_c, 0, 65, 0
2, 46533, Note_on_c, 0, 77, 0
2, 46538, Note_on_c, 0, 77, 94
2, 46543, Note_on_c, 0, 65, 82
2, 46615, Note_on_c, 0, 57, 0
2, 46615, Note_on_c, 0, 67, 0
2, 46615, Note_on_c, 0, 77, 0
2, 46615, Control_c, 0, 64, 0
2, 46615, Note_on_c, 0, 45, 0
2, 46615, Note_on_c, 0, 65, 0
2, 46616, Note_on_c, 0, 61, 0
2, 46648, Note_on_c, 0, 33, 0
2, 46648, Note_on_c, 0, 79, 0
2, 46652, Note_on_c, 0, 33, 75
2, 46653, Note_on_c, 0, 79, 94
2, 46658, Note_on_c, 0, 67, 90
2, 46679, Control_c, 0, 64, 127
2, 46694, Note_on_c, 0, 67, 0
2, 46754, Note_on_c, 0, 45, 84
2, 46782, Note_on_c, 0, 81, 96
2, 46783, Note_on_c, 0, 69, 91
2, 46897, Note_on_c, 0, 57, 92
2, 46897, Note_on_c, 0, 61, 82
2, 47015, Note_on_c, 0, 77, 96
2, 47019, Note_on_c, 0, 65, 81
2, 47093, Note_on_c, 0, 45, 0
2, 47104, Note_on_c, 0, 45, 60
2, 47104, Control_c, 0, 64, 0
2, 47105, Note_on_c, 0, 57, 0
2, 47105, Note_on_c, 0, 65, 0
2, 47105, Note_on_c, 0, 81, 0
2, 47105, Note_on_c, 0, 69, 0
2, 47105, Note_on_c, 0, 77, 0
2, 47105, Note_on_c, 0, 61, 0
2, 47109, Note_on_c, 0, 33, 0
2, 47109, Note_on_c, 0, 79, 0
2, 47136, Note_on_c, 0, 86, 105
2, 47136, Note_on_c, 0, 38, 77
2, 47139, Note_on_c, 0, 45, 0
2, 47142, Note_on_c, 0, 74, 103
2, 47170, Control_c, 0, 64, 127
2, 47257, Note_on_c, 0, 50, 84
2, 47391, Note_on_c, 0, 62, 81
2, 47391, Note_on_c, 0, 81, 94
2, 47392, Note_on_c, 0, 57, 80
2, 47395, Note_on_c, 0, 69, 89
2, 47395, Note_on_c, 0, 53, 74
2, 47519, Note_on_c, 0, 79, 99
2, 47521, Note_on_c, 0, 67, 93
2, 47606, Note_on_c, 0, 53, 0
2, 47606, Note_on_c, 0, 62, 0
2, 47606, Note_on_c, 0, 50, 0
2, 47606, Note_on_c, 0, 74, 0
2, 47606, Note_on_c, 0, 57, 0
2, 47607, Note_on_c, 0, 69, 0
2, 47607, Note_on_c, 0, 86, 0
2, 47608, Note_on_c, 0, 81, 0
2, 47609, Control_c, 0, 64, 0
2, 47623, Note_on_c, 0, 38, 0
2, 47631, Note_on_c, 0, 38, 76
2, 47646, Control_c, 0, 64, 127
2, 47740, Note_on_c, 0, 50, 88
2, 47839, Note_on_c, 0, 79, 0
2, 47841, Control_c, 0, 64, 0
2, 47865, Note_on_c, 0, 53, 81
2, 47866, Note_on_c, 0, 62, 79
2, 47869, Control_c, 0, 64, 127
2, 47878, Note_on_c, 0, 57, 75
2, 47884, Note_on_c, 0, 38, 0
2, 47991, Note_on_c, 0, 77, 89
2, 47995, Note_on_c, 0, 65, 80
2, 48075, Note_on_c, 0, 62, 0
2, 48076, Note_on_c, 0, 57, 0
2, 48076, Note_on_c, 0, 53, 0
2, 48077, Control_c, 0, 64, 0
2, 48077, Note_on_c, 0, 65, 0
2, 48077, Note_on_c, 0, 77, 0
2, 48084, Note_on_c, 0, 50, 0
2, 48084, Note_on_c, 0, 67, 0
2, 48111, Note_on_c, 0, 79, 95
2, 48117, Note_on_c, 0, 67, 82
2, 48118, Note_on_c, 0, 29, 71
2, 48130, Control_c, 0, 64, 127
2, 48217, Note_on_c, 0, 41, 67
2, 48241, Note_on_c, 0, 77, 86
2, 48247, Note_on_c, 0, 65, 79
2, 48353, Note_on_c, 0, 79, 0
2, 48360, Note_on_c, 0, 67, 0
2, 48361, Note_on_c, 0, 60, 83
2, 48364, Note_on_c, 0, 79, 94
2, 48364, Note_on_c, 0, 57, 81
2, 48364, Note_on_c, 0, 53, 67
2, 48369, Note_on_c, 0, 67, 84
2, 48468, Note_on_c, 0, 41, 0
2, 48476, Note_on_c, 0, 65, 0
2, 48476, Note_on_c, 0, 77, 0
2, 48476, Note_on_c, 0, 41, 54
2, 48480, Note_on_c, 0, 77, 93
2, 48484, Note_on_c, 0, 65, 77
2, 48579, Note_on_c, 0, 57, 0
2, 48579, Note_on_c, 0, 53, 0
2, 48579, Note_on_c, 0, 60, 0
2, 48579, Note_on_c, 0, 77, 0
2, 48579, Note_on_c, 0, 65, 0
2, 48581, Control_c, 0, 64, 0
2, 48591, Note_on_c, 0, 79, 0
2, 48599, Note_on_c, 0, 67, 0
2, 48600, Note_on_c, 0, 79, 95
2, 48602, Note_on_c, 0, 67, 86
2, 48637, Control_c, 0, 64, 127
2, 48698, Note_on_c, 0, 41, 0
2, 48705, Note_on_c, 0, 41, 73
2, 48719, Note_on_c, 0, 77, 96
2, 48730, Note_on_c, 0, 65, 87
2, 48847, Note_on_c, 0, 59, 78
2, 48849, Note_on_c, 0, 53, 72
2, 48952, Note_on_c, 0, 65, 0
2, 48952, Note_on_c, 0, 77, 0
2, 48960, Note_on_c, 0, 77, 101
2, 48961, Note_on_c, 0, 65, 79
2, 48983, Note_on_c, 0, 41, 0
2, 48994, Note_on_c, 0, 41, 44
2, 48999, Note_on_c, 0, 43, 39
2, 49058, Note_on_c, 0, 41, 0
2, 49059, Control_c, 0, 64, 0
2, 49060, Note_on_c, 0, 53, 0
2, 49061, Note_on_c, 0, 67, 0
2, 49061, Note_on_c, 0, 77, 0
2, 49061, Note_on_c, 0, 79, 0
2, 49061, Note_on_c, 0, 65, 0
2, 49061, Note_on_c, 0, 59, 0
2, 49067, Note_on_c, 0, 29, 0
2, 49075, Note_on_c, 0, 43, 0
2, 49089, Note_on_c, 0, 86, 104
2, 49094, Note_on_c, 0, 74, 101
2, 49101, Note_on_c, 0, 34, 78
2, 49108, Note_on_c, 0, 81, 66
2, 49111, Note_on_c, 0, 82, 57
2, 49113, Note_on_c, 0, 81, 0
2, 49121, Control_c, 0, 64, 127
2, 49211, Note_on_c, 0, 46, 71
2, 49335, Note_on_c, 0, 62, 86
2, 49336, Note_on_c, 0, 74, 0
2, 49336, Note_on_c, 0, 81, 94
2, 49339, Note_on_c, 0, 58, 81
2, 49340, Note_on_c, 0, 69, 88
2, 49344, Note_on_c, 0, 74, 84
2, 49371, Note_on_c, 0, 53, 45
2, 49374, Note_on_c, 0, 46, 0
2, 49378, Note_on_c, 0, 46, 51
2, 49455, Note_on_c, 0, 79, 93
2, 49456, Note_on_c, 0, 67, 94
2, 49531, Note_on_c, 0, 46, 0
2, 49531, Note_on_c, 0, 69, 0
2, 49531, Note_on_c, 0, 81, 0
2, 49531, Note_on_c, 0, 58, 0
2, 49531, Note_on_c, 0, 62, 0
2, 49531, Control_c, 0, 64, 0
2, 49533, Note_on_c, 0, 86, 0
2, 49536, Note_on_c, 0, 53, 0
2, 49536, Note_on_c, 0, 82, 0
2, 49551, Note_on_c, 0, 74, 0
2, 49566, Note_on_c, 0, 34, 0
2, 49570, Note_on_c, 0, 34, 73
2, 49574, Control_c, 0, 64, 127
2, 49663, Note_on_c, 0, 46, 69
2, 49704, Note_on_c, 0, 77, 91
2, 49706, Note_on_c, 0, 65, 79
2, 49812, Note_on_c, 0, 62, 83
2, 49815, Note_on_c, 0, 70, 78
2, 49816, Note_on_c, 0, 58, 78
2, 49816, Note_on_c, 0, 74, 76
2, 49827, Note_on_c, 0, 67, 0
2, 49827, Note_on_c, 0, 79, 0
2, 49834, Note_on_c, 0, 67, 76
2, 49835, Note_on_c, 0, 79, 88
2, 49950, Note_on_c, 0, 65, 0
2, 49950, Note_on_c, 0, 77, 0
2, 49957, Note_on_c, 0, 77, 97
2, 49960, Note_on_c, 0, 65, 75
2, 50038, Note_on_c, 0, 67, 0
2, 50038, Note_on_c, 0, 79, 0
2, 50038, Note_on_c, 0, 70, 0
2, 50039, Note_on_c, 0, 62, 0
2, 50039, Note_on_c, 0, 34, 0
2, 50039, Note_on_c, 0, 46, 0
2, 50039, Note_on_c, 0, 77, 0
2, 50039, Note_on_c, 0, 74, 0
2, 50039, Control_c, 0, 64, 0
2, 50039, Note_on_c, 0, 58, 0
2, 50058, Note_on_c, 0, 65, 0
2, 50077, Note_on_c, 0, 79, 100
2, 50081, Note_on_c, 0, 67, 94
2, 50084, Note_on_c, 0, 33, 78
2, 50092, Note_on_c, 0, 45, 74
2, 50112, Control_c, 0, 64, 127
2, 50165, Note_on_c, 0, 45, 0
2, 50170, Note_on_c, 0, 45, 76
2, 50315, Note_on_c, 0, 61, 87
2, 50326, Note_on_c, 0, 57, 90
2, 50333, Note_on_c, 0, 69, 81
2, 50335, Note_on_c, 0, 81, 90
2, 50449, Note_on_c, 0, 67, 0
2, 50449, Note_on_c, 0, 79, 0
2, 50454, Note_on_c, 0, 79, 99
2, 50457, Note_on_c, 0, 67, 88
2, 50551, Note_on_c, 0, 45, 0
2, 50552, Note_on_c, 0, 57, 0
2, 50552, Note_on_c, 0, 69, 0
2, 50552, Note_on_c, 0, 61, 0
2, 50553, Control_c, 0, 64, 0
2, 50553, Note_on_c, 0, 81, 0
2, 50565, Note_on_c, 0, 33, 0
2, 50576, Note_on_c, 0, 33, 68
2, 50580, Control_c, 0, 64, 127
2, 50666, Note_on_c, 0, 45, 79
2, 50708, Note_on_c, 0, 77, 89
2, 50712, Note_on_c, 0, 65, 81
2, 50806, Note_on_c, 0, 61, 84
2, 50813, Note_on_c, 0, 57, 86
2, 50826, Note_on_c, 0, 67, 0
2, 50826, Note_on_c, 0, 79, 0
2, 50830, Note_on_c, 0, 79, 89
2, 50836, Note_on_c, 0, 67, 87
2, 50941, Note_on_c, 0, 77, 0
2, 50947, Note_on_c, 0, 77, 94
2, 50949, Note_on_c, 0, 65, 0
2, 50956, Note_on_c, 0, 65, 87
2, 51027, Note_on_c, 0, 45, 0
2, 51027, Note_on_c, 0, 67, 0
2, 51028, Note_on_c, 0, 57, 0
2, 51028, Control_c, 0, 64, 0
2, 51028, Note_on_c, 0, 79, 0
2, 51028, Note_on_c, 0, 77, 0
2, 51028, Note_on_c, 0, 61, 0
2, 51028, Note_on_c, 0, 65, 0
2, 51041, Note_on_c, 0, 33, 0
2, 51069, Note_on_c, 0, 79, 99
2, 51073, Note_on_c, 0, 38, 79
2, 51074, Note_on_c, 0, 67, 94
2, 51102, Control_c, 0, 64, 127
2, 51175, Note_on_c, 0, 50, 85
2, 51314, Note_on_c, 0, 81, 93
2, 51322, Note_on_c, 0, 69, 82
2, 51323, Note_on_c, 0, 74, 78
2, 51323, Note_on_c, 0, 62, 78
2, 51328, Note_on_c, 0, 53, 66
2, 51330, Note_on_c, 0, 55, 68
2, 51432, Note_on_c, 0, 67, 0
2, 51432, Note_on_c, 0, 79, 0
2, 51436, Note_on_c, 0, 79, 97
2, 51438, Note_on_c, 0, 67, 95
2, 51534, Note_on_c, 0, 50, 0
2, 51535, Note_on_c, 0, 69, 0
2, 51535, Note_on_c, 0, 62, 0
2, 51535, Control_c, 0, 64, 0
2, 51535, Note_on_c, 0, 74, 0
2, 51535, Note_on_c, 0, 81, 0
2, 51536, Note_on_c, 0, 55, 0
2, 51548, Note_on_c, 0, 53, 0
2, 51555, Note_on_c, 0, 38, 0
2, 51559, Note_on_c, 0, 38, 78
2, 51594, Control_c, 0, 64, 127
2, 51663, Note_on_c, 0, 50, 84
2, 51699, Note_on_c, 0, 77, 93
2, 51704, Note_on_c, 0, 65, 84
2, 51801, Note_on_c, 0, 38, 0
2, 51813, Note_on_c, 0, 62, 83
2, 51814, Note_on_c, 0, 53, 76
2, 51816, Note_on_c, 0, 67, 0
2, 51816, Note_on_c, 0, 79, 0
2, 51821, Note_on_c, 0, 57, 76
2, 51821, Note_on_c, 0, 79, 89
2, 51827, Note_on_c, 0, 67, 89
2, 51932, Note_on_c, 0, 77, 0
2, 51939, Note_on_c, 0, 65, 0
2, 51940, Note_on_c, 0, 77, 92
2, 51947, Note_on_c, 0, 65, 83
2, 52019, Note_on_c, 0, 67, 0
2, 52019, Note_on_c, 0, 62, 0
2, 52019, Note_on_c, 0, 53, 0
2, 52019, Note_on_c, 0, 79, 0
2, 52019, Note_on_c, 0, 57, 0
2, 52019, Note_on_c, 0, 50, 0
2, 52019, Note_on_c, 0, 77, 0
2, 52020, Note_on_c, 0, 65, 0
2, 52020, Control_c, 0, 64, 0
2, 52063, Note_on_c, 0, 79, 98
2, 52067, Note_on_c, 0, 67, 93
2, 52074, Note_on_c, 0, 29, 75
2, 52093, Control_c, 0, 64, 127
2, 52179, Note_on_c, 0, 41, 70
2, 52308, Note_on_c, 0, 41, 0
2, 52309, Note_on_c, 0, 48, 80
2, 52317, Note_on_c, 0, 53, 75
2, 52319, Note_on_c, 0, 41, 75
2, 52431, Note_on_c, 0, 29, 0
2, 52431, Note_on_c, 0, 41, 0
2, 52437, Note_on_c, 0, 41, 81
2, 52440, Note_on_c, 0, 29, 75
2, 52448, Control_c, 0, 64, 0
2, 52469, Control_c, 0, 64, 127
2, 52568, Note_on_c, 0, 81, 99
2, 52569, Note_on_c, 0, 69, 93
2, 52574, Note_on_c, 0, 60, 79
2, 52580, Note_on_c, 0, 64, 82
2, 52581, Note_on_c, 0, 65, 75
2, 52669, Note_on_c, 0, 53, 0
2, 52677, Note_on_c, 0, 53, 62
2, 52807, Note_on_c, 0, 48, 0
2, 52807, Note_on_c, 0, 53, 0
2, 52811, Note_on_c, 0, 53, 72
2, 52812, Note_on_c, 0, 48, 77
2, 52915, Note_on_c, 0, 41, 0
2, 52923, Note_on_c, 0, 41, 71
2, 53034, Note_on_c, 0, 41, 0
2, 53034, Note_on_c, 0, 64, 0
2, 53034, Note_on_c, 0, 53, 0
2, 53034, Note_on_c, 0, 48, 0
2, 53034, Note_on_c, 0, 79, 0
2, 53034, Note_on_c, 0, 65, 0
2, 53034, Control_c, 0, 64, 0
2, 53034, Note_on_c, 0, 60, 0
2, 53034, Note_on_c, 0, 69, 0
2, 53034, Note_on_c, 0, 81, 0
2, 53035, Note_on_c, 0, 29, 0
2, 53045, Note_on_c, 0, 67, 0
2, 53062, Note_on_c, 0, 86, 104
2, 53066, Note_on_c, 0, 77, 97
2, 53068, Note_on_c, 0, 74, 93
2, 53071, Note_on_c, 0, 34, 77
2, 53074, Note_on_c, 0, 81, 73
2, 53114, Control_c, 0, 64, 127
2, 53180, Note_on_c, 0, 46, 69
2, 53306, Note_on_c, 0, 81, 0
2, 53316, Note_on_c, 0, 62, 82
2, 53318, Note_on_c, 0, 81, 90
2, 53318, Note_on_c, 0, 69, 85
2, 53319, Note_on_c, 0, 58, 73
2, 53437, Note_on_c, 0, 41, 69
2, 53438, Note_on_c, 0, 79, 95
2, 53439, Note_on_c, 0, 53, 64
2, 53441, Note_on_c, 0, 67, 94
2, 53552, Note_on_c, 0, 34, 0
2, 53552, Note_on_c, 0, 46, 0
2, 53557, Note_on_c, 0, 62, 0
2, 53558, Note_on_c, 0, 69, 0
2, 53558, Note_on_c, 0, 74, 0
2, 53558, Control_c, 0, 64, 0
2, 53559, Note_on_c, 0, 81, 0
2, 53559, Note_on_c, 0, 58, 0
2, 53559, Note_on_c, 0, 46, 73
2, 53560, Note_on_c, 0, 77, 0
2, 53562, Note_on_c, 0, 34, 69
2, 53562, Note_on_c, 0, 86, 0
2, 53583, Note_on_c, 0, 53, 0
2, 53606, Control_c, 0, 64, 127
2, 53621, Note_on_c, 0, 34, 0
2, 53679, Note_on_c, 0, 53, 72
2, 53792, Note_on_c, 0, 62, 87
2, 53793, Note_on_c, 0, 58, 79
2, 53795, Note_on_c, 0, 70, 78
2, 53890, Note_on_c, 0, 53, 0
2, 53899, Note_on_c, 0, 53, 72
2, 53927, Note_on_c, 0, 77, 94
2, 53932, Note_on_c, 0, 65, 79
2, 54013, Note_on_c, 0, 41, 0
2, 54015, Note_on_c, 0, 62, 0
2, 54015, Note_on_c, 0, 46, 0
2, 54015, Note_on_c, 0, 70, 0
2, 54015, Note_on_c, 0, 65, 0
2, 54015, Control_c, 0, 64, 0
2, 54016, Note_on_c, 0, 58, 0
2, 54016, Note_on_c, 0, 77, 0
2, 54021, Note_on_c, 0, 67, 0
2, 54028, Note_on_c, 0, 53, 0
2, 54028, Note_on_c, 0, 79, 0
2, 54045, Note_on_c, 0, 79, 100
2, 54046, Note_on_c, 0, 45, 75
2, 54048, Note_on_c, 0, 67, 91
2, 54048, Note_on_c, 0, 33, 81
2, 54080, Note_on_c, 0, 45, 0
2, 54082, Control_c, 0, 64, 127
2, 54120, Note_on_c, 0, 33, 0
2, 54152, Note_on_c, 0, 45, 79
2, 54160, Note_on_c, 0, 77, 95
2, 54165, Note_on_c, 0, 65, 81
2, 54282, Note_on_c, 0, 67, 0
2, 54282, Note_on_c, 0, 79, 0
2, 54286, Note_on_c, 0, 61, 84
2, 54286, Note_on_c, 0, 79, 91
2, 54291, Note_on_c, 0, 67, 87
2, 54292, Note_on_c, 0, 57, 82
2, 54397, Note_on_c, 0, 77, 0
2, 54405, Note_on_c, 0, 65, 0
2, 54406, Note_on_c, 0, 77, 98
2, 54409, Note_on_c, 0, 65, 77
2, 54410, Note_on_c, 0, 52, 66
2, 54508, Note_on_c, 0, 57, 0
2, 54508, Note_on_c, 0, 77, 0
2, 54508, Note_on_c, 0, 61, 0
2, 54509, Control_c, 0, 64, 0
2, 54512, Note_on_c, 0, 45, 0
2, 54512, Note_on_c, 0, 52, 0
2, 54512, Note_on_c, 0, 79, 0
2, 54520, Note_on_c, 0, 67, 0
2, 54523, Note_on_c, 0, 79, 92
2, 54523, Note_on_c, 0, 45, 80
2, 54527, Note_on_c, 0, 67, 83
2, 54528, Note_on_c, 0, 65, 0
2, 54581, Control_c, 0, 64, 127
2, 54612, Note_on_c, 0, 67, 0
2, 54646, Note_on_c, 0, 52, 69
2, 54647, Note_on_c, 0, 81, 100
2, 54650, Note_on_c, 0, 69, 94
2, 54763, Note_on_c, 0, 61, 85
2, 54765, Note_on_c, 0, 57, 82
2, 54858, Note_on_c, 0, 52, 0
2, 54869, Note_on_c, 0, 52, 57
2, 54885, Note_on_c, 0, 77, 96
2, 54886, Note_on_c, 0, 65, 81
2, 54973, Note_on_c, 0, 52, 0
2, 54974, Note_on_c, 0, 57, 0
2, 54974, Note_on_c, 0, 69, 0
2, 54975, Note_on_c, 0, 61, 0
2, 54975, Note_on_c, 0, 81, 0
2, 54975, Note_on_c, 0, 77, 0
2, 54975, Note_on_c, 0, 65, 0
2, 54976, Control_c, 0, 64, 0
2, 54981, Note_on_c, 0, 45, 0
2, 54981, Note_on_c, 0, 79, 0
2, 55014, Note_on_c, 0, 86, 106
2, 55016, Note_on_c, 0, 77, 93
2, 55017, Note_on_c, 0, 74, 98
2, 55018, Note_on_c, 0, 38, 71
2, 55029, Note_on_c, 0, 45, 60
2, 55034, Note_on_c, 0, 45, 0
2, 55034, Control_c, 0, 64, 127
2, 55121, Note_on_c, 0, 50, 67
2, 55242, Note_on_c, 0, 50, 0
2, 55247, Note_on_c, 0, 81, 91
2, 55249, Note_on_c, 0, 50, 73
2, 55249, Note_on_c, 0, 62, 74
2, 55249, Note_on_c, 0, 57, 81
2, 55252, Note_on_c, 0, 69, 85
2, 55372, Note_on_c, 0, 53, 75
2, 55375, Note_on_c, 0, 79, 96
2, 55379, Note_on_c, 0, 67, 96
2, 55441, Note_on_c, 0, 38, 0
2, 55442, Control_c, 0, 64, 0
2, 55443, Note_on_c, 0, 50, 0
2, 55443, Note_on_c, 0, 62, 0
2, 55443, Note_on_c, 0, 57, 0
2, 55444, Note_on_c, 0, 81, 0
2, 55444, Note_on_c, 0, 69, 0
2, 55444, Note_on_c, 0, 74, 0
2, 55444, Note_on_c, 0, 86, 0
2, 55445, Note_on_c, 0, 53, 0
2, 55449, Note_on_c, 0, 77, 0
2, 55488, Control_c, 0, 64, 127
2, 55494, Note_on_c, 0, 50, 89
2, 55607, Note_on_c, 0, 53, 75
2, 55728, Note_on_c, 0, 57, 81
2, 55728, Note_on_c, 0, 69, 70
2, 55730, Note_on_c, 0, 62, 79
2, 55730, Note_on_c, 0, 74, 78
2, 55825, Note_on_c, 0, 53, 0
2, 55829, Note_on_c, 0, 77, 97
2, 55829, Note_on_c, 0, 53, 84
2, 55829, Note_on_c, 0, 65, 83
2, 55918, Note_on_c, 0, 57, 0
2, 55918, Note_on_c, 0, 79, 0
2, 55919, Note_on_c, 0, 62, 0
2, 55919, Note_on_c, 0, 50, 0
2, 55919, Note_on_c, 0, 67, 0
2, 55919, Control_c, 0, 64, 0
2, 55919, Note_on_c, 0, 53, 0
2, 55919, Note_on_c, 0, 74, 0
2, 55919, Note_on_c, 0, 77, 0
2, 55920, Note_on_c, 0, 65, 0
2, 55933, Note_on_c, 0, 69, 0
2, 55959, Note_on_c, 0, 89, 104
2, 55960, Note_on_c, 0, 81, 92
2, 55960, Note_on_c, 0, 77, 103
2, 55966, Note_on_c, 0, 41, 72
2, 55968, Note_on_c, 0, 29, 73
2, 55971, Control_c, 0, 64, 127
2, 56071, Note_on_c, 0, 77, 0
2, 56071, Note_on_c, 0, 89, 0
2, 56081, Note_on_c, 0, 89, 94
2, 56082, Note_on_c, 0, 77, 91
2, 56194, Note_on_c, 0, 77, 0
2, 56194, Note_on_c, 0, 89, 0
2, 56199, Note_on_c, 0, 57, 73
2, 56202, Note_on_c, 0, 60, 76
2, 56203, Note_on_c, 0, 89, 101
2, 56204, Note_on_c, 0, 77, 98
2, 56317, Note_on_c, 0, 89, 0
2, 56325, Note_on_c, 0, 77, 0
2, 56328, Note_on_c, 0, 53, 65
2, 56328, Note_on_c, 0, 89, 93
2, 56332, Note_on_c, 0, 81, 0
2, 56334, Note_on_c, 0, 77, 82
2, 56338, Note_on_c, 0, 81, 61
2, 56445, Note_on_c, 0, 48, 72
2, 56447, Note_on_c, 0, 88, 100
2, 56449, Note_on_c, 0, 76, 101
2, 56563, Note_on_c, 0, 81, 0
2, 56569, Note_on_c, 0, 81, 98
2, 56571, Note_on_c, 0, 69, 90
2, 56678, Note_on_c, 0, 57, 0
2, 56684, Note_on_c, 0, 57, 75
2, 56693, Note_on_c, 0, 60, 0
2, 56703, Note_on_c, 0, 60, 69
2, 56793, Note_on_c, 0, 53, 0
2, 56799, Note_on_c, 0, 53, 75
2, 56801, Note_on_c, 0, 69, 0
2, 56809, Note_on_c, 0, 69, 79
2, 56893, Control_c, 0, 64, 0
2, 56897, Note_on_c, 0, 48, 0
2, 56898, Note_on_c, 0, 41, 0
2, 56898, Note_on_c, 0, 88, 0
2, 56899, Note_on_c, 0, 76, 0
2, 56899, Note_on_c, 0, 60, 0
2, 56899, Note_on_c, 0, 81, 0
2, 56899, Note_on_c, 0, 77, 0
2, 56899, Note_on_c, 0, 69, 0
2, 56916, Note_on_c, 0, 29, 0
2, 56916, Note_on_c, 0, 53, 0
2, 56916, Note_on_c, 0, 57, 0
2, 56916, Note_on_c, 0, 89, 0
2, 56930, Note_on_c, 0, 79, 95
2, 56940, Note_on_c, 0, 74, 83
2, 56941, Note_on_c, 0, 31, 75
2, 56942, Note_on_c, 0, 67, 82
2, 56943, Note_on_c, 0, 70, 79
2, 56977, Control_c, 0, 64, 127
2, 57187, Note_on_c, 0, 50, 70
2, 57194, Note_on_c, 0, 43, 69
2, 57196, Note_on_c, 0, 77, 91
2, 57199, Note_on_c, 0, 65, 68
2, 57308, Note_on_c, 0, 79, 0
2, 57315, Note_on_c, 0, 79, 96
2, 57315, Note_on_c, 0, 43, 0
2, 57315, Note_on_c, 0, 67, 0
2, 57315, Note_on_c, 0, 70, 0
2, 57315, Note_on_c, 0, 74, 0
2, 57320, Note_on_c, 0, 74, 87
2, 57322, Note_on_c, 0, 67, 85
2, 57323, Note_on_c, 0, 31, 0
2, 57324, Note_on_c, 0, 43, 73
2, 57327, Note_on_c, 0, 70, 80
2, 57327, Note_on_c, 0, 31, 68
2, 57434, Note_on_c, 0, 62, 82
2, 57435, Note_on_c, 0, 58, 72
2, 57469, Note_on_c, 0, 31, 0
2, 57473, Note_on_c, 0, 31, 38
2, 57530, Note_on_c, 0, 43, 0
2, 57534, Note_on_c, 0, 55, 73
2, 57542, Note_on_c, 0, 43, 63
2, 57553, Note_on_c, 0, 65, 0
2, 57553, Note_on_c, 0, 77, 0
2, 57564, Note_on_c, 0, 77, 87
2, 57565, Note_on_c, 0, 65, 80
2, 57669, Note_on_c, 0, 55, 0
2, 57676, Note_on_c, 0, 50, 0
2, 57676, Note_on_c, 0, 79, 0
2, 57679, Note_on_c, 0, 55, 75
2, 57680, Note_on_c, 0, 50, 64
2, 57681, Note_on_c, 0, 79, 92
2, 57684, Note_on_c, 0, 67, 0
2, 57684, Note_on_c, 0, 74, 0
2, 57689, Note_on_c, 0, 67, 75
2, 57694, Note_on_c, 0, 74, 69
2, 57792, Note_on_c, 0, 31, 0
2, 57792, Note_on_c, 0, 43, 0
2, 57795, Note_on_c, 0, 43, 75
2, 57799, Note_on_c, 0, 65, 0
2, 57799, Note_on_c, 0, 77, 0
2, 57802, Note_on_c, 0, 31, 77
2, 57803, Note_on_c, 0, 77, 91
2, 57805, Note_on_c, 0, 65, 81
2, 57886, Note_on_c, 0, 62, 0
2, 57886, Note_on_c, 0, 67, 0
2, 57886, Note_on_c, 0, 50, 0
2, 57887, Note_on_c, 0, 70, 0
2, 57887, Note_on_c, 0, 74, 0
2, 57887, Control_c, 0, 64, 0
2, 57887, Note_on_c, 0, 58, 0
2, 57887, Note_on_c, 0, 77, 0
2, 57887, Note_on_c, 0, 79, 0
2, 57887, Note_on_c, 0, 65, 0
2, 57887, Note_on_c, 0, 43, 0
2, 57888, Note_on_c, 0, 31, 0
2, 57899, Note_on_c, 0, 55, 0
2, 57926, Note_on_c, 0, 79, 102
2, 57927, Note_on_c, 0, 67, 95
2, 57927, Note_on_c, 0, 33, 76
2, 57928, Note_on_c, 0, 76, 94
2, 57933, Note_on_c, 0, 45, 73
2, 57934, Note_on_c, 0, 73, 85
2, 57960, Control_c, 0, 64, 127
2, 58034, Note_on_c, 0, 43, 41
2, 58091, Note_on_c, 0, 45, 0
2, 58097, Note_on_c, 0, 45, 43
2, 58109, Note_on_c, 0, 48, 28
2, 58114, Note_on_c, 0, 48, 0
2, 58179, Note_on_c, 0, 52, 66
2, 58179, Note_on_c, 0, 81, 91
2, 58179, Note_on_c, 0, 57, 80
2, 58180, Note_on_c, 0, 69, 85
2, 58291, Note_on_c, 0, 33, 0
2, 58291, Note_on_c, 0, 45, 0
2, 58291, Note_on_c, 0, 67, 0
2, 58291, Note_on_c, 0, 76, 0
2, 58291, Note_on_c, 0, 79, 0
2, 58296, Note_on_c, 0, 79, 100
2, 58298, Note_on_c, 0, 33, 77
2, 58298, Note_on_c, 0, 73, 0
2, 58300, Note_on_c, 0, 45, 81
2, 58301, Note_on_c, 0, 67, 90
2, 58302, Note_on_c, 0, 76, 94
2, 58308, Note_on_c, 0, 73, 87
2, 58423, Note_on_c, 0, 64, 82
2, 58425, Note_on_c, 0, 61, 84
2, 58437, Note_on_c, 0, 52, 0
2, 58446, Note_on_c, 0, 52, 54
2, 58529, Note_on_c, 0, 57, 0
2, 58539, Note_on_c, 0, 57, 85
2, 58544, Note_on_c, 0, 69, 0
2, 58548, Note_on_c, 0, 77, 94
2, 58548, Note_on_c, 0, 69, 74
2, 58556, Note_on_c, 0, 65, 77
2, 58644, Note_on_c, 0, 57, 0
2, 58655, Note_on_c, 0, 57, 93
2, 58656, Note_on_c, 0, 76, 0
2, 58659, Note_on_c, 0, 52, 0
2, 58659, Note_on_c, 0, 67, 0
2, 58659, Note_on_c, 0, 79, 0
2, 58664, Note_on_c, 0, 52, 71
2, 58668, Note_on_c, 0, 79, 91
2, 58670, Note_on_c, 0, 67, 88
2, 58759, Note_on_c, 0, 45, 0
2, 58766, Note_on_c, 0, 45, 87
2, 58767, Note_on_c, 0, 33, 0
2, 58774, Note_on_c, 0, 33, 78
2, 58782, Note_on_c, 0, 43, 0
2, 58790, Note_on_c, 0, 65, 0
2, 58790, Note_on_c, 0, 77, 0
2, 58796, Note_on_c, 0, 77, 93
2, 58798, Note_on_c, 0, 65, 87
2, 58875, Note_on_c, 0, 52, 0
2, 58875, Note_on_c, 0, 69, 0
2, 58875, Note_on_c, 0, 77, 0
2, 58875, Note_on_c, 0, 57, 0
2, 58876, Note_on_c, 0, 64, 0
2, 58876, Note_on_c, 0, 81, 0
2, 58876, Note_on_c, 0, 65, 0
2, 58876, Note_on_c, 0, 33, 0
2, 58876, Note_on_c, 0, 61, 0
2, 58877, Control_c, 0, 64, 0
2, 58890, Note_on_c, 0, 73, 0
2, 58897, Note_on_c, 0, 45, 0
2, 58897, Note_on_c, 0, 79, 0
2, 58905, Note_on_c, 0, 67, 0
2, 58908, Note_on_c, 0, 79, 101
2, 58913, Note_on_c, 0, 74, 91
2, 58914, Note_on_c, 0, 34, 84
2, 58915, Note_on_c, 0, 67, 91
2, 58916, Note_on_c, 0, 70, 88
2, 58959, Control_c, 0, 64, 127
2, 59016, Note_on_c, 0, 46, 77
2, 59159, Note_on_c, 0, 46, 0
2, 59162, Note_on_c, 0, 81, 95
2, 59164, Note_on_c, 0, 69, 88
2, 59168, Note_on_c, 0, 46, 68
2, 59169, Note_on_c, 0, 52, 60
2, 59170, Note_on_c, 0, 76, 69
2, 59174, Note_on_c, 0, 76, 0
2, 59281, Note_on_c, 0, 67, 0
2, 59281, Note_on_c, 0, 74, 0
2, 59281, Note_on_c, 0, 79, 0
2, 59286, Note_on_c, 0, 79, 99
2, 59289, Note_on_c, 0, 70, 0
2, 59293, Note_on_c, 0, 67, 92
2, 59293, Note_on_c, 0, 74, 88
2, 59294, Note_on_c, 0, 70, 90
2, 59297, Note_on_c, 0, 58, 80
2, 59381, Note_on_c, 0, 46, 0
2, 59381, Note_on_c, 0, 58, 0
2, 59391, Note_on_c, 0, 46, 65
2, 59391, Note_on_c, 0, 58, 77
2, 59392, Note_on_c, 0, 62, 83
2, 59520, Note_on_c, 0, 34, 0
2, 59520, Note_on_c, 0, 46, 0
2, 59524, Note_on_c, 0, 77, 95
2, 59524, Note_on_c, 0, 46, 85
2, 59527, Note_on_c, 0, 70, 0
2, 59529, Note_on_c, 0, 65, 88
2, 59531, Note_on_c, 0, 34, 76
2, 59537, Note_on_c, 0, 70, 81
2, 59627, Note_on_c, 0, 58, 0
2, 59636, Note_on_c, 0, 58, 84
2, 59650, Note_on_c, 0, 67, 0
2, 59650, Note_on_c, 0, 79, 0
2, 59654, Note_on_c, 0, 53, 65
2, 59655, Note_on_c, 0, 79, 93
2, 59657, Note_on_c, 0, 67, 91
2, 59727, Note_on_c, 0, 46, 0
2, 59736, Note_on_c, 0, 46, 76
2, 59765, Note_on_c, 0, 65, 0
2, 59765, Note_on_c, 0, 77, 0
2, 59774, Note_on_c, 0, 77, 99
2, 59776, Note_on_c, 0, 65, 93
2, 59830, Note_on_c, 0, 34, 0
2, 59831, Note_on_c, 0, 67, 0
2, 59831, Note_on_c, 0, 53, 0
2, 59831, Note_on_c, 0, 62, 0
2, 59831, Note_on_c, 0, 69, 0
2, 59831, Note_on_c, 0, 81, 0
2, 59831, Note_on_c, 0, 74, 0
2, 59831, Note_on_c, 0, 65, 0
2, 59831, Note_on_c, 0, 70, 0
2, 59831, Note_on_c, 0, 79, 0
2, 59832, Note_on_c, 0, 77, 0
2, 59832, Control_c, 0, 64, 0
2, 59850, Note_on_c, 0, 52, 0
2, 59850, Note_on_c, 0, 58, 0
2, 59857, Note_on_c, 0, 46, 0
2, 59885, Note_on_c, 0, 79, 104
2, 59892, Note_on_c, 0, 67, 98
2, 59892, Note_on_c, 0, 48, 81
2, 59892, Note_on_c, 0, 73, 90
2, 59892, Note_on_c, 0, 36, 75
2, 59893, Note_on_c, 0, 76, 92
2, 59898, Note_on_c, 0, 72, 91
2, 59919, Control_c, 0, 64, 127
2, 59924, Note_on_c, 0, 48, 0
2, 59990, Note_on_c, 0, 48, 78
2, 60126, Note_on_c, 0, 48, 0
2, 60129, Note_on_c, 0, 55, 77
2, 60129, Note_on_c, 0, 60, 79
2, 60133, Note_on_c, 0, 48, 72
2, 60138, Note_on_c, 0, 81, 93
2, 60140, Note_on_c, 0, 69, 92
2, 60249, Note_on_c, 0, 48, 0
2, 60249, Note_on_c, 0, 79, 0
2, 60253, Note_on_c, 0, 48, 87
2, 60254, Note_on_c, 0, 79, 97
2, 60257, Note_on_c, 0, 67, 0
2, 60257, Note_on_c, 0, 76, 0
2, 60261, Note_on_c, 0, 67, 94
2, 60261, Note_on_c, 0, 76, 85
2, 60387, Note_on_c, 0, 60, 0
2, 60393, Note_on_c, 0, 64, 98
2, 60394, Note_on_c, 0, 60, 90
2, 60645, Note_on_c, 0, 77, 100
2, 60650, Note_on_c, 0, 65, 95
2, 60887, Note_on_c, 0, 36, 0
2, 60887, Note_on_c, 0, 73, 0
2, 60887, Note_on_c, 0, 76, 0
2, 60891, Control_c, 0, 64, 0
2, 60894, Note_on_c, 0, 64, 0
2, 60894, Note_on_c, 0, 69, 0
2, 60894, Note_on_c, 0, 72, 0
2, 60895, Note_on_c, 0, 55, 0
2, 60895, Note_on_c, 0, 60, 0
2, 60896, Note_on_c, 0, 48, 0
2, 60897, Note_on_c, 0, 76, 104
2, 60897, Note_on_c, 0, 79, 0
2, 60897, Note_on_c, 0, 67, 0
2, 60897, Note_on_c, 0, 81, 0
2, 60897, Note_on_c, 0, 65, 0
2, 60897, Note_on_c, 0, 77, 0
2, 60898, Note_on_c, 0, 64, 95
2, 60900, Note_on_c, 0, 69, 87
2, 60900, Note_on_c, 0, 72, 91
2, 60900, Note_on_c, 0, 38, 72
2, 60921, Note_on_c, 0, 26, 71
2, 60979, Control_c, 0, 64, 127
2, 61048, Note_on_c, 0, 38, 0
2, 61052, Note_on_c, 0, 38, 61
2, 61175, Note_on_c, 0, 45, 65
2, 61276, Note_on_c, 0, 50, 64
2, 61409, Note_on_c, 0, 64, 0
2, 61414, Note_on_c, 0, 57, 70
2, 61416, Note_on_c, 0, 64, 82
2, 61445, Note_on_c, 0, 60, 51
2, 61547, Note_on_c, 0, 50, 0
2, 61556, Note_on_c, 0, 50, 61
2, 61662, Note_on_c, 0, 57, 0
2, 61672, Note_on_c, 0, 57, 57
2, 61771, Note_on_c, 0, 62, 67
2, 61893, Note_on_c, 0, 69, 0
2, 61900, Note_on_c, 0, 76, 0
2, 61903, Note_on_c, 0, 69, 78
2, 61906, Note_on_c, 0, 76, 80
2, 62046, Note_on_c, 0, 62, 0
2, 62050, Note_on_c, 0, 62, 63
2, 62169, Note_on_c, 0, 69, 0
2, 62179, Note_on_c, 0, 69, 70
2, 62285, Note_on_c, 0, 74, 59
2, 62412, Note_on_c, 0, 88, 93
2, 62419, Note_on_c, 0, 81, 68
2, 62419, Note_on_c, 0, 84, 71
2, 62419, Note_on_c, 0, 76, 0
2, 62522, Note_on_c, 0, 74, 0
2, 62527, Note_on_c, 0, 74, 75
2, 62653, Note_on_c, 0, 69, 0
2, 62657, Note_on_c, 0, 69, 69
2, 62722, Note_on_c, 0, 62, 0
2, 62722, Note_on_c, 0, 74, 0
2, 62726, Note_on_c, 0, 62, 71
2, 62726, Note_on_c, 0, 74, 75
2, 62768, Note_on_c, 0, 74, 0
2, 62776, Note_on_c, 0, 86, 95
2, 62778, Note_on_c, 0, 74, 88
2, 62860, Note_on_c, 0, 26, 0
2, 62868, Note_on_c, 0, 45, 0
2, 62872, Note_on_c, 0, 69, 0
2, 62872, Note_on_c, 0, 88, 0
2, 62872, Note_on_c, 0, 60, 0
2, 62872, Note_on_c, 0, 50, 0
2, 62872, Note_on_c, 0, 64, 0
2, 62872, Note_on_c, 0, 62, 0
2, 62873, Note_on_c, 0, 57, 0
2, 62873, Note_on_c, 0, 72, 0
2, 62873, Control_c, 0, 64, 0
2, 62873, Note_on_c, 0, 84, 0
2, 62891, Note_on_c, 0, 81, 0
2, 62891, Note_on_c, 0, 86, 0
2, 62896, Note_on_c, 0, 86, 104
2, 62899, Note_on_c, 0, 38, 0
2, 62899, Note_on_c, 0, 74, 0
2, 62902, Note_on_c, 0, 81, 96
2, 62903, Note_on_c, 0, 74, 94
2, 62908, Note_on_c, 0, 38, 67
2, 62945, Control_c, 0, 64, 127
2, 63010, Note_on_c, 0, 50, 70
2, 63142, Note_on_c, 0, 57, 67
2, 63248, Note_on_c, 0, 62, 66
2, 63383, Note_on_c, 0, 74, 0
2, 63387, Note_on_c, 0, 69, 74
2, 63387, Note_on_c, 0, 74, 77
2, 63521, Note_on_c, 0, 62, 0
2, 63530, Note_on_c, 0, 62, 65
2, 63636, Note_on_c, 0, 69, 0
2, 63645, Note_on_c, 0, 69, 66
2, 63736, Note_on_c, 0, 74, 0
2, 63741, Note_on_c, 0, 74, 73
2, 63859, Note_on_c, 0, 86, 0
2, 63866, Note_on_c, 0, 81, 0
2, 63869, Note_on_c, 0, 86, 92
2, 63874, Note_on_c, 0, 81, 72
2, 63989, Note_on_c, 0, 74, 0
2, 64000, Note_on_c, 0, 74, 66
2, 64128, Note_on_c, 0, 81, 0
2, 64139, Note_on_c, 0, 81, 71
2, 64243, Note_on_c, 0, 86, 0
2, 64247, Note_on_c, 0, 86, 70
2, 64370, Note_on_c, 0, 98, 85
2, 64401, Note_on_c, 0, 93, 71
2, 64504, Note_on_c, 0, 86, 0
2, 64513, Note_on_c, 0, 86, 78
2, 64604, Note_on_c, 0, 81, 0
2, 64612, Note_on_c, 0, 81, 69
2, 64719, Note_on_c, 0, 74, 0
2, 64724, Note_on_c, 0, 74, 59
2, 64892, Note_on_c, 0, 48, 66
2, 64936, Note_on_c, 0, 98, 0
2, 64936, Note_on_c, 0, 93, 0
2, 64938, Note_on_c, 0, 86, 0
2, 64939, Note_on_c, 0, 81, 0
2, 64939, Note_on_c, 0, 69, 0
2, 64939, Note_on_c, 0, 62, 0
2, 64939, Note_on_c, 0, 74, 0
2, 64940, Note_on_c, 0, 50, 0
2, 64940, Note_on_c, 0, 57, 0
2, 64941, Note_on_c, 0, 38, 0
2, 64949, Control_c, 0, 64, 0
2, 65021, Note_on_c, 0, 62, 57
2, 65030, Note_on_c, 0, 55, 61
2, 65145, Note_on_c, 0, 63, 64
2, 65147, Note_on_c, 0, 60, 49
2, 65249, Control_c, 0, 64, 127
2, 65278, Note_on_c, 0, 70, 83
2, 65546, Note_on_c, 0, 74, 66
2, 65668, Note_on_c, 0, 75, 67
2, 65799, Note_on_c, 0, 82, 62
2, 65916, Note_on_c, 0, 44, 66
2, 66001, Note_on_c, 0, 62, 0
2, 66002, Note_on_c, 0, 74, 0
2, 66003, Note_on_c, 0, 75, 0
2, 66003, Note_on_c, 0, 82, 0
2, 66003, Note_on_c, 0, 63, 0
2, 66003, Note_on_c, 0, 70, 0
2, 66004, Note_on_c, 0, 55, 0
2, 66005, Control_c, 0, 64, 0
2, 66006, Note_on_c, 0, 48, 0
2, 66009, Note_on_c, 0, 60, 0
2, 66051, Note_on_c, 0, 51, 61
2, 66053, Note_on_c, 0, 62, 66
2, 66163, Control_c, 0, 64, 127
2, 66174, Note_on_c, 0, 63, 67
2, 66209, Note_on_c, 0, 56, 55
2, 66299, Note_on_c, 0, 70, 81
2, 66570, Note_on_c, 0, 74, 69
2, 66696, Note_on_c, 0, 75, 65
2, 66813, Note_on_c, 0, 82, 75
2, 66939, Note_on_c, 0, 39, 49
2, 67000, Note_on_c, 0, 70, 0
2, 67009, Note_on_c, 0, 70, 54
2, 67018, Note_on_c, 0, 82, 0
2, 67018, Note_on_c, 0, 62, 0
2, 67018, Note_on_c, 0, 63, 0
2, 67018, Note_on_c, 0, 56, 0
2, 67018, Note_on_c, 0, 74, 0
2, 67019, Note_on_c, 0, 51, 0
2, 67019, Note_on_c, 0, 75, 0
2, 67021, Control_c, 0, 64, 0
2, 67021, Note_on_c, 0, 44, 0
2, 67046, Note_on_c, 0, 70, 0
2, 67065, Note_on_c, 0, 46, 54
2, 67075, Note_on_c, 0, 63, 60
2, 67161, Control_c, 0, 64, 127
2, 67195, Note_on_c, 0, 65, 61
2, 67203, Note_on_c, 0, 51, 56
2, 67325, Note_on_c, 0, 70, 79
2, 67596, Note_on_c, 0, 75, 57
2, 67699, Note_on_c, 0, 77, 73
2, 67829, Note_on_c, 0, 82, 72
2, 67961, Note_on_c, 0, 41, 57
2, 67975, Note_on_c, 0, 63, 0
2, 68059, Note_on_c, 0, 70, 0
2, 68060, Note_on_c, 0, 65, 0
2, 68060, Note_on_c, 0, 51, 0
2, 68061, Note_on_c, 0, 77, 0
2, 68061, Note_on_c, 0, 75, 0
2, 68062, Note_on_c, 0, 39, 0
2, 68062, Note_on_c, 0, 46, 0
2, 68062, Control_c, 0, 64, 0
2, 68089, Note_on_c, 0, 48, 60
2, 68101, Note_on_c, 0, 60, 66
2, 68213, Note_on_c, 0, 65, 65
2, 68221, Note_on_c, 0, 53, 63
2, 68267, Control_c, 0, 64, 127
2, 68338, Note_on_c, 0, 70, 83
2, 68590, Note_on_c, 0, 72, 60
2, 68620, Note_on_c, 0, 82, 0
2, 68714, Note_on_c, 0, 77, 69
2, 68841, Note_on_c, 0, 82, 61
2, 68943, Note_on_c, 0, 48, 0
2, 68945, Note_on_c, 0, 60, 0
2, 68946, Note_on_c, 0, 65, 0
2, 68946, Note_on_c, 0, 41, 0
2, 68947, Note_on_c, 0, 70, 0
2, 68947, Note_on_c, 0, 77, 0
2, 68947, Note_on_c, 0, 72, 0
2, 68947, Note_on_c, 0, 82, 0
2, 68950, Control_c, 0, 64, 0
2, 68954, Note_on_c, 0, 48, 64
2, 68958, Note_on_c, 0, 53, 0
2, 68958, Note_on_c, 0, 55, 63
2, 69000, Note_on_c, 0, 60, 69
2, 69012, Control_c, 0, 64, 127
2, 69096, Note_on_c, 0, 48, 0
2, 69117, Note_on_c, 0, 62, 66
2, 69214, Note_on_c, 0, 63, 75
2, 69352, Note_on_c, 0, 70, 79
2, 69369, Note_on_c, 0, 82, 80
2, 69479, Note_on_c, 0, 84, 84
2, 69596, Note_on_c, 0, 82, 0
2, 69605, Note_on_c, 0, 82, 84
2, 69739, Note_on_c, 0, 79, 81
2, 69849, Note_on_c, 0, 82, 0
2, 69858, Note_on_c, 0, 82, 77
2, 69977, Note_on_c, 0, 55, 0
2, 69977, Note_on_c, 0, 63, 0
2, 69977, Control_c, 0, 64, 0
2, 69978, Note_on_c, 0, 62, 0
2, 69978, Note_on_c, 0, 84, 0
2, 69979, Note_on_c, 0, 70, 0
2, 69980, Note_on_c, 0, 60, 0
2, 69984, Note_on_c, 0, 60, 69
2, 69986, Note_on_c, 0, 56, 65
2, 70049, Control_c, 0, 64, 127
2, 70104, Note_on_c, 0, 62, 63
2, 70126, Note_on_c, 0, 60, 0
2, 70224, Note_on_c, 0, 63, 75
2, 70359, Note_on_c, 0, 70, 68
2, 70371, Note_on_c, 0, 79, 0
2, 70377, Note_on_c, 0, 79, 79
2, 70479, Note_on_c, 0, 82, 0
2, 70488, Note_on_c, 0, 82, 82
2, 70609, Note_on_c, 0, 79, 0
2, 70614, Note_on_c, 0, 79, 75
2, 70740, Note_on_c, 0, 77, 78
2, 70855, Note_on_c, 0, 79, 0
2, 70866, Note_on_c, 0, 79, 79
2, 70957, Note_on_c, 0, 82, 0
2, 70957, Note_on_c, 0, 56, 0
2, 70957, Note_on_c, 0, 70, 0
2, 70957, Note_on_c, 0, 62, 0
2, 70957, Note_on_c, 0, 77, 0
2, 70958, Note_on_c, 0, 63, 0
2, 70959, Control_c, 0, 64, 0
2, 70973, Note_on_c, 0, 51, 72
2, 71008, Note_on_c, 0, 58, 57
2, 71024, Control_c, 0, 64, 127
2, 71095, Note_on_c, 0, 63, 70
2, 71217, Note_on_c, 0, 65, 58
2, 71332, Note_on_c, 0, 70, 73
2, 71353, Note_on_c, 0, 75, 75
2, 71471, Note_on_c, 0, 77, 76
2, 71562, Note_on_c, 0, 75, 0
2, 71569, Note_on_c, 0, 75, 71
2, 71695, Note_on_c, 0, 72, 65
2, 71815, Note_on_c, 0, 75, 0
2, 71822, Note_on_c, 0, 75, 71
2, 71950, Note_on_c, 0, 53, 70
2, 71976, Note_on_c, 0, 72, 0
2, 71977, Note_on_c, 0, 63, 0
2, 71978, Note_on_c, 0, 58, 0
2, 71978, Note_on_c, 0, 75, 0
2, 71978, Note_on_c, 0, 70, 0
2, 71979, Note_on_c, 0, 51, 0
2, 71979, Note_on_c, 0, 65, 0
2, 71979, Control_c, 0, 64, 0
2, 71979, Note_on_c, 0, 77, 0
2, 71984, Note_on_c, 0, 79, 0
2, 72063, Note_on_c, 0, 60, 63
2, 72092, Control_c, 0, 64, 127
2, 72190, Note_on_c, 0, 65, 61
2, 72329, Note_on_c, 0, 70, 71
2, 72407, Note_on_c, 0, 70, 0
2, 72410, Control_c, 0, 64, 0
2, 72415, Note_on_c, 0, 70, 70
2, 72430, Note_on_c, 0, 60, 0
2, 72438, Note_on_c, 0, 60, 36
2, 72442, Note_on_c, 0, 72, 68
2, 72445, Control_c, 0, 64, 127
2, 72555, Note_on_c, 0, 75, 76
2, 72682, Note_on_c, 0, 77, 85
2, 72801, Note_on_c, 0, 79, 87
2, 72917, Note_on_c, 0, 44, 64
2, 72927, Note_on_c, 0, 60, 0
2, 72928, Control_c, 0, 64, 0
2, 72929, Note_on_c, 0, 65, 0
2, 72929, Note_on_c, 0, 72, 0
2, 72929, Note_on_c, 0, 53, 0
2, 72930, Note_on_c, 0, 75, 0
2, 72931, Note_on_c, 0, 77, 0
2, 72944, Note_on_c, 0, 70, 0
2, 72990, Control_c, 0, 64, 127
2, 73052, Note_on_c, 0, 51, 57
2, 73166, Note_on_c, 0, 56, 58
2, 73294, Note_on_c, 0, 58, 52
2, 73413, Note_on_c, 0, 60, 63
2, 73543, Note_on_c, 0, 58, 0
2, 73551, Note_on_c, 0, 58, 54
2, 73658, Note_on_c, 0, 60, 0
2, 73664, Note_on_c, 0, 60, 51
2, 73784, Note_on_c, 0, 62, 64
2, 73895, Note_on_c, 0, 63, 61
2, 73935, Note_on_c, 0, 44, 0
2, 73943, Control_c, 0, 64, 0
2, 73944, Note_on_c, 0, 44, 59
2, 73996, Note_on_c, 0, 79, 0
2, 74004, Control_c, 0, 64, 127
2, 74012, Note_on_c, 0, 62, 0
2, 74021, Note_on_c, 0, 62, 54
2, 74142, Note_on_c, 0, 63, 0
2, 74148, Note_on_c, 0, 63, 59
2, 74267, Note_on_c, 0, 65, 75
2, 74404, Note_on_c, 0, 70, 72
2, 74534, Note_on_c, 0, 60, 0
2, 74534, Note_on_c, 0, 65, 0
2, 74542, Note_on_c, 0, 65, 48
2, 74641, Note_on_c, 0, 70, 0
2, 74653, Note_on_c, 0, 70, 64
2, 74778, Note_on_c, 0, 74, 61
2, 74913, Note_on_c, 0, 75, 64
2, 75018, Note_on_c, 0, 74, 0
2, 75023, Note_on_c, 0, 74, 55
2, 75125, Note_on_c, 0, 75, 0
2, 75136, Note_on_c, 0, 75, 60
2, 75266, Note_on_c, 0, 77, 63
2, 75416, Note_on_c, 0, 82, 57
2, 75509, Note_on_c, 0, 77, 0
2, 75514, Note_on_c, 0, 77, 62
2, 75648, Note_on_c, 0, 82, 0
2, 75657, Note_on_c, 0, 82, 65
2, 75784, Note_on_c, 0, 86, 48
2, 75935, Note_on_c, 0, 94, 77
2, 76346, Note_on_c, 0, 84, 81
2, 76577, Note_on_c, 0, 86, 0
2, 76587, Note_on_c, 0, 86, 97
2, 76823, Note_on_c, 0, 87, 89
2, 76838, Note_on_c, 0, 44, 0
2, 76844, Note_on_c, 0, 51, 0
2, 76844, Note_on_c, 0, 94, 0
2, 76844, Control_c, 0, 64, 0
2, 76845, Note_on_c, 0, 70, 0
2, 76845, Note_on_c, 0, 63, 0
2, 76845, Note_on_c, 0, 82, 0
2, 76845, Note_on_c, 0, 65, 0
2, 76845, Note_on_c, 0, 77, 0
2, 76846, Note_on_c, 0, 84, 0
2, 76846, Note_on_c, 0, 75, 0
2, 76846, Note_on_c, 0, 62, 0
2, 76847, Note_on_c, 0, 74, 0
2, 76847, Note_on_c, 0, 86, 0
2, 76853, Note_on_c, 0, 56, 0
2, 76853, Note_on_c, 0, 58, 0
2, 76865, Note_on_c, 0, 56, 54
2, 76892, Control_c, 0, 64, 127
2, 76937, Note_on_c, 0, 63, 56
2, 76980, Note_on_c, 0, 68, 64
2, 77014, Note_on_c, 0, 72, 62
2, 77024, Note_on_c, 0, 84, 57
2, 77346, Note_on_c, 0, 86, 94
2, 77598, Note_on_c, 0, 84, 0
2, 77603, Note_on_c, 0, 84, 76
2, 77721, Note_on_c, 0, 82, 82
2, 77990, Note_on_c, 0, 82, 0
2, 77994, Note_on_c, 0, 82, 81
2, 78002, Note_on_c, 0, 77, 72
2, 78004, Note_on_c, 0, 75, 68
2, 78009, Note_on_c, 0, 70, 66
2, 78016, Note_on_c, 0, 65, 51
2, 78047, Note_on_c, 0, 56, 0
2, 78047, Note_on_c, 0, 68, 0
2, 78048, Note_on_c, 0, 63, 0
2, 78048, Note_on_c, 0, 72, 0
2, 78049, Control_c, 0, 64, 0
2, 78049, Note_on_c, 0, 86, 0
2, 78067, Note_on_c, 0, 87, 0
2, 78190, Control_c, 0, 64, 127
2, 78527, Note_on_c, 0, 74, 57
2, 78547, Control_c, 0, 64, 0
2, 78551, Note_on_c, 0, 84, 0
2, 78589, Control_c, 0, 64, 127
2, 78720, Note_on_c, 0, 75, 0
2, 79050, Note_on_c, 0, 77, 0
2, 79056, Note_on_c, 0, 77, 60
2, 79057, Note_on_c, 0, 70, 0
2, 79057, Note_on_c, 0, 74, 0
2, 79061, Note_on_c, 0, 60, 44
2, 79062, Note_on_c, 0, 67, 45
2, 79064, Note_on_c, 0, 70, 54
2, 79066, Note_on_c, 0, 74, 51
2, 79095, Control_c, 0, 64, 0
2, 79115, Note_on_c, 0, 65, 0
2, 79127, Note_on_c, 0, 82, 0
2, 79203, Control_c, 0, 64, 127
2, 79746, Note_on_c, 0, 62, 41
2, 79861, Note_on_c, 0, 63, 58
2, 79985, Note_on_c, 0, 65, 57
2, 80094, Note_on_c, 0, 70, 0
2, 80101, Note_on_c, 0, 70, 65
2, 80506, Note_on_c, 0, 84, 91
2, 80764, Note_on_c, 0, 86, 97
2, 81001, Note_on_c, 0, 87, 92
2, 81044, Note_on_c, 0, 84, 0
2, 81045, Note_on_c, 0, 86, 0
2, 81046, Note_on_c, 0, 67, 0
2, 81046, Note_on_c, 0, 60, 0
2, 81047, Note_on_c, 0, 62, 0
2, 81047, Note_on_c, 0, 65, 0
2, 81047, Note_on_c, 0, 70, 0
2, 81049, Note_on_c, 0, 63, 0
2, 81054, Note_on_c, 0, 74, 0
2, 81059, Note_on_c, 0, 56, 58
2, 81062, Note_on_c, 0, 77, 0
2, 81140, Note_on_c, 0, 63, 58
2, 81167, Note_on_c, 0, 79, 64
2, 81172, Note_on_c, 0, 84, 64
2, 81182, Note_on_c, 0, 68, 60
2, 81191, Note_on_c, 0, 72, 62
2, 81555, Note_on_c, 0, 86, 92
2, 81676, Note_on_c, 0, 84, 0
2, 81682, Note_on_c, 0, 84, 77
2, 81806, Note_on_c, 0, 82, 82
2, 82037, Note_on_c, 0, 84, 0
2, 82041, Note_on_c, 0, 84, 84
2, 82164, Note_on_c, 0, 77, 70
2, 82165, Note_on_c, 0, 70, 63
2, 82170, Note_on_c, 0, 75, 57
2, 82175, Note_on_c, 0, 65, 42
2, 82179, Note_on_c, 0, 56, 0
2, 82179, Control_c, 0, 64, 0
2, 82179, Note_on_c, 0, 68, 0
2, 82179, Note_on_c, 0, 79, 0
2, 82180, Note_on_c, 0, 86, 0
2, 82180, Note_on_c, 0, 87, 0
2, 82180, Note_on_c, 0, 63, 0
2, 82180, Note_on_c, 0, 72, 0
2, 82182, Note_on_c, 0, 82, 0
2, 82260, Control_c, 0, 64, 127
2, 82352, Note_on_c, 0, 84, 0
2, 82453, Note_on_c, 0, 82, 78
2, 82705, Note_on_c, 0, 70, 0
2, 82715, Note_on_c, 0, 74, 54
2, 82717, Note_on_c, 0, 70, 39
2, 82722, Control_c, 0, 64, 0
2, 82728, Note_on_c, 0, 77, 0
2, 82775, Note_on_c, 0, 75, 0
2, 82782, Control_c, 0, 64, 127
2, 83243, Note_on_c, 0, 70, 0
2, 83243, Note_on_c, 0, 74, 0
2, 83248, Note_on_c, 0, 60, 51
2, 83248, Note_on_c, 0, 67, 49
2, 83252, Note_on_c, 0, 74, 53
2, 83253, Note_on_c, 0, 77, 59
2, 83254, Note_on_c, 0, 70, 56
2, 83307, Control_c, 0, 64, 0
2, 83312, Note_on_c, 0, 82, 0
2, 83328, Note_on_c, 0, 65, 0
2, 83404, Control_c, 0, 64, 127
2, 83954, Note_on_c, 0, 65, 47
2, 84072, Note_on_c, 0, 70, 0
2, 84082, Note_on_c, 0, 70, 65
2, 84180, Note_on_c, 0, 74, 0
2, 84191, Note_on_c, 0, 74, 54
2, 84323, Note_on_c, 0, 75, 74
2, 84839, Note_on_c, 0, 84, 87
2, 84978, Note_on_c, 0, 86, 102
2, 85206, Note_on_c, 0, 87, 97
2, 85243, Note_on_c, 0, 86, 0
2, 85244, Note_on_c, 0, 74, 0
2, 85244, Note_on_c, 0, 70, 0
2, 85244, Note_on_c, 0, 77, 0
2, 85267, Note_on_c, 0, 56, 52
2, 85322, Note_on_c, 0, 63, 58
2, 85347, Note_on_c, 0, 84, 0
2, 85349, Note_on_c, 0, 79, 66
2, 85352, Note_on_c, 0, 84, 65
2, 85382, Note_on_c, 0, 68, 59
2, 85383, Note_on_c, 0, 72, 66
2, 85547, Note_on_c, 0, 60, 0
2, 85743, Note_on_c, 0, 86, 91
2, 85870, Note_on_c, 0, 84, 0
2, 85874, Note_on_c, 0, 84, 81
2, 86006, Note_on_c, 0, 82, 93
2, 86390, Note_on_c, 0, 83, 90
2, 86392, Note_on_c, 0, 87, 0
2, 86394, Note_on_c, 0, 56, 0
2, 86394, Note_on_c, 0, 67, 0
2, 86396, Note_on_c, 0, 63, 0
2, 86396, Note_on_c, 0, 68, 0
2, 86397, Note_on_c, 0, 82, 0
2, 86397, Note_on_c, 0, 86, 0
2, 86397, Note_on_c, 0, 75, 0
2, 86399, Note_on_c, 0, 72, 0
2, 86399, Note_on_c, 0, 84, 0
2, 86400, Note_on_c, 0, 65, 0
2, 86402, Control_c, 0, 64, 0
2, 86407, Note_on_c, 0, 79, 0
2, 86409, Note_on_c, 0, 55, 57
2, 86410, Note_on_c, 0, 74, 63
2, 86413, Note_on_c, 0, 79, 67
2, 86416, Note_on_c, 0, 62, 46
2, 86418, Note_on_c, 0, 71, 59
2, 86476, Control_c, 0, 64, 127
2, 86937, Note_on_c, 0, 62, 0
2, 86949, Note_on_c, 0, 62, 49
2, 86950, Note_on_c, 0, 59, 62
2, 86950, Note_on_c, 0, 67, 64
2, 87470, Note_on_c, 0, 86, 90
2, 87472, Note_on_c, 0, 70, 73
2, 87479, Note_on_c, 0, 60, 66
2, 87482, Note_on_c, 0, 67, 0
2, 87482, Note_on_c, 0, 79, 0
2, 87486, Note_on_c, 0, 67, 69
2, 87487, Note_on_c, 0, 75, 70
2, 87492, Note_on_c, 0, 79, 73
2, 87504, Note_on_c, 0, 55, 0
2, 87506, Note_on_c, 0, 71, 0
2, 87508, Note_on_c, 0, 83, 0
2, 87508, Note_on_c, 0, 74, 0
2, 87508, Note_on_c, 0, 59, 0
2, 87509, Control_c, 0, 64, 0
2, 87528, Note_on_c, 0, 62, 0
2, 87613, Control_c, 0, 64, 127
2, 88135, Note_on_c, 0, 67, 0
2, 88143, Note_on_c, 0, 67, 67
2, 88250, Note_on_c, 0, 70, 0
2, 88262, Note_on_c, 0, 70, 71
2, 88373, Note_on_c, 0, 74, 56
2, 88504, Note_on_c, 0, 75, 0
2, 88509, Note_on_c, 0, 87, 75
2, 88512, Note_on_c, 0, 79, 0
2, 88513, Note_on_c, 0, 75, 72
2, 88515, Note_on_c, 0, 79, 68
2, 88535, Note_on_c, 0, 70, 0
2, 88540, Note_on_c, 0, 58, 43
2, 88545, Note_on_c, 0, 70, 62
2, 88549, Note_on_c, 0, 60, 0
2, 88552, Control_c, 0, 64, 0
2, 88573, Note_on_c, 0, 67, 0
2, 88581, Note_on_c, 0, 67, 60
2, 88642, Control_c, 0, 64, 127
2, 88665, Note_on_c, 0, 86, 0
2, 89041, Note_on_c, 0, 87, 0
2, 89053, Note_on_c, 0, 87, 93
2, 89185, Note_on_c, 0, 89, 88
2, 89418, Note_on_c, 0, 74, 0
2, 89418, Note_on_c, 0, 53, 49
2, 89467, Note_on_c, 0, 60, 62
2, 89517, Note_on_c, 0, 80, 63
2, 89552, Note_on_c, 0, 84, 65
2, 89556, Note_on_c, 0, 87, 0
2, 89560, Note_on_c, 0, 63, 55
2, 89565, Note_on_c, 0, 68, 58
2, 89566, Note_on_c, 0, 87, 79
2, 89583, Control_c, 0, 64, 0
2, 89586, Note_on_c, 0, 67, 0
2, 89589, Note_on_c, 0, 58, 0
2, 89597, Note_on_c, 0, 91, 89
2, 89602, Note_on_c, 0, 53, 0
2, 89602, Note_on_c, 0, 70, 0
2, 89602, Note_on_c, 0, 89, 0
2, 89610, Note_on_c, 0, 75, 0
2, 89679, Control_c, 0, 64, 127
2, 89989, Note_on_c, 0, 89, 93
2, 90370, Note_on_c, 0, 87, 0
2, 90375, Note_on_c, 0, 87, 91
2, 90608, Note_on_c, 0, 89, 0
2, 90618, Note_on_c, 0, 55, 54
2, 90619, Note_on_c, 0, 89, 85
2, 90619, Control_c, 0, 64, 0
2, 90620, Note_on_c, 0, 87, 0
2, 90620, Note_on_c, 0, 68, 0
2, 90622, Note_on_c, 0, 60, 0
2, 90623, Note_on_c, 0, 63, 0
2, 90631, Note_on_c, 0, 84, 0
2, 90634, Note_on_c, 0, 77, 72
2, 90644, Note_on_c, 0, 86, 70
2, 90647, Note_on_c, 0, 91, 0
2, 90654, Note_on_c, 0, 80, 0
2, 90657, Note_on_c, 0, 82, 53
2, 90670, Note_on_c, 0, 79, 0
2, 90700, Control_c, 0, 64, 127
2, 90833, Note_on_c, 0, 62, 55
2, 90978, Note_on_c, 0, 65, 51
2, 91146, Note_on_c, 0, 70, 64
2, 91327, Note_on_c, 0, 74, 64
2, 91530, Note_on_c, 0, 77, 0
2, 91534, Note_on_c, 0, 77, 65
2, 91799, Note_on_c, 0, 82, 0
2, 91802, Note_on_c, 0, 82, 60
2, 93392, Note_on_c, 0, 62, 0
2, 93392, Note_on_c, 0, 82, 0
2, 93393, Note_on_c, 0, 65, 0
2, 93393, Note_on_c, 0, 70, 0
2, 93393, Note_on_c, 0, 55, 0
2, 93393, Note_on_c, 0, 77, 0
2, 93393, Note_on_c, 0, 86, 0
2, 93393, Note_on_c, 0, 89, 0
2, 93393, Note_on_c, 0, 74, 0
2, 93395, Control_c, 0, 64, 0
2, 93561, Note_on_c, 0, 87, 97
2, 93563, Note_on_c, 0, 75, 89
2, 93596, Control_c, 0, 64, 127
2, 93684, Note_on_c, 0, 86, 91
2, 93684, Note_on_c, 0, 74, 87
2, 93726, Note_on_c, 0, 75, 0
2, 93760, Note_on_c, 0, 74, 0
2, 93761, Note_on_c, 0, 87, 0
2, 93764, Note_on_c, 0, 86, 0
2, 93770, Control_c, 0, 64, 0
2, 93807, Note_on_c, 0, 48, 87
2, 93812, Note_on_c, 0, 84, 94
2, 93814, Note_on_c, 0, 72, 94
2, 93814, Note_on_c, 0, 36, 83
2, 93815, Note_on_c, 0, 79, 82
2, 93818, Note_on_c, 0, 75, 87
2, 93841, Control_c, 0, 64, 127
2, 93843, Note_on_c, 0, 48, 0
2, 93846, Note_on_c, 0, 36, 0
2, 93903, Note_on_c, 0, 79, 0
2, 93912, Note_on_c, 0, 91, 84
2, 93914, Note_on_c, 0, 79, 77
2, 93918, Note_on_c, 0, 91, 0
2, 93920, Control_c, 0, 64, 0
2, 93926, Note_on_c, 0, 72, 0
2, 93926, Note_on_c, 0, 75, 0
2, 93934, Note_on_c, 0, 84, 0
2, 93937, Note_on_c, 0, 72, 83
2, 93937, Note_on_c, 0, 75, 73
2, 93945, Note_on_c, 0, 84, 83
2, 93957, Control_c, 0, 64, 127
2, 94071, Note_on_c, 0, 48, 83
2, 94074, Note_on_c, 0, 60, 71
2, 94179, Note_on_c, 0, 60, 0
2, 94184, Note_on_c, 0, 51, 78
2, 94189, Note_on_c, 0, 60, 79
2, 94190, Note_on_c, 0, 55, 72
2, 94298, Note_on_c, 0, 82, 83
2, 94299, Note_on_c, 0, 70, 89
2, 94425, Note_on_c, 0, 72, 0
2, 94425, Note_on_c, 0, 84, 0
2, 94430, Note_on_c, 0, 84, 92
2, 94431, Note_on_c, 0, 72, 88
2, 94548, Note_on_c, 0, 48, 0
2, 94553, Note_on_c, 0, 48, 73
2, 94554, Note_on_c, 0, 36, 71
2, 94671, Note_on_c, 0, 70, 0
2, 94671, Note_on_c, 0, 82, 0
2, 94675, Note_on_c, 0, 82, 81
2, 94675, Note_on_c, 0, 70, 85
2, 94761, Note_on_c, 0, 48, 0
2, 94761, Note_on_c, 0, 79, 0
2, 94761, Note_on_c, 0, 36, 0
2, 94762, Control_c, 0, 64, 0
2, 94762, Note_on_c, 0, 51, 0
2, 94762, Note_on_c, 0, 82, 0
2, 94762, Note_on_c, 0, 60, 0
2, 94763, Note_on_c, 0, 75, 0
2, 94763, Note_on_c, 0, 55, 0
2, 94763, Note_on_c, 0, 72, 0
2, 94763, Note_on_c, 0, 70, 0
2, 94794, Note_on_c, 0, 84, 0
2, 94799, Note_on_c, 0, 84, 91
2, 94802, Note_on_c, 0, 72, 87
2, 94804, Note_on_c, 0, 44, 82
2, 94804, Note_on_c, 0, 75, 83
2, 94805, Note_on_c, 0, 32, 79
2, 94824, Control_c, 0, 64, 127
2, 94936, Note_on_c, 0, 82, 90
2, 94936, Note_on_c, 0, 70, 85
2, 95038, Note_on_c, 0, 51, 62
2, 95040, Note_on_c, 0, 72, 0
2, 95040, Note_on_c, 0, 84, 0
2, 95046, Note_on_c, 0, 84, 96
2, 95048, Note_on_c, 0, 72, 91
2, 95136, Note_on_c, 0, 63, 75
2, 95137, Note_on_c, 0, 56, 79
2, 95141, Note_on_c, 0, 60, 61
2, 95162, Note_on_c, 0, 75, 0
2, 95173, Note_on_c, 0, 75, 81
2, 95173, Note_on_c, 0, 87, 102
2, 95408, Note_on_c, 0, 32, 0
2, 95412, Note_on_c, 0, 89, 95
2, 95414, Note_on_c, 0, 77, 95
2, 95426, Control_c, 0, 64, 0
2, 95439, Note_on_c, 0, 44, 0
2, 95444, Note_on_c, 0, 44, 68
2, 95444, Note_on_c, 0, 32, 65
2, 95445, Note_on_c, 0, 82, 0
2, 95446, Note_on_c, 0, 56, 0
2, 95447, Note_on_c, 0, 72, 0
2, 95448, Note_on_c, 0, 60, 0
2, 95448, Note_on_c, 0, 63, 0
2, 95448, Note_on_c, 0, 51, 0
2, 95449, Note_on_c, 0, 70, 0
2, 95451, Note_on_c, 0, 72, 67
2, 95462, Control_c, 0, 64, 127
2, 95523, Note_on_c, 0, 32, 0
2, 95523, Note_on_c, 0, 44, 0
2, 95528, Note_on_c, 0, 32, 74
2, 95532, Note_on_c, 0, 44, 73
2, 95562, Note_on_c, 0, 72, 0
2, 95646, Note_on_c, 0, 84, 0
2, 95651, Note_on_c, 0, 84, 86
2, 95652, Note_on_c, 0, 72, 79
2, 95730, Control_c, 0, 64, 0
2, 95732, Note_on_c, 0, 77, 0
2, 95732, Note_on_c, 0, 44, 0
2, 95732, Note_on_c, 0, 75, 0
2, 95733, Note_on_c, 0, 32, 0
2, 95733, Note_on_c, 0, 89, 0
2, 95733, Note_on_c, 0, 72, 0
2, 95733, Note_on_c, 0, 87, 0
2, 95733, Note_on_c, 0, 84, 0
2, 95774, Note_on_c, 0, 87, 97
2, 95776, Note_on_c, 0, 75, 94
2, 95778, Note_on_c, 0, 79, 83
2, 95780, Note_on_c, 0, 27, 85
2, 95780, Note_on_c, 0, 39, 81
2, 95782, Note_on_c, 0, 82, 79
2, 95800, Control_c, 0, 64, 127
2, 95912, Note_on_c, 0, 84, 86
2, 95915, Note_on_c, 0, 72, 82
2, 96015, Note_on_c, 0, 72, 0
2, 96015, Note_on_c, 0, 84, 0
2, 96021, Note_on_c, 0, 72, 83
2, 96024, Note_on_c, 0, 84, 92
2, 96119, Note_on_c, 0, 63, 86
2, 96121, Note_on_c, 0, 55, 74
2, 96130, Note_on_c, 0, 75, 0
2, 96130, Note_on_c, 0, 87, 0
2, 96133, Note_on_c, 0, 58, 73
2, 96135, Note_on_c, 0, 75, 90
2, 96139, Note_on_c, 0, 87, 97
2, 96245, Note_on_c, 0, 72, 0
2, 96245, Note_on_c, 0, 84, 0
2, 96254, Note_on_c, 0, 84, 92
2, 96254, Note_on_c, 0, 72, 92
2, 96376, Note_on_c, 0, 72, 0
2, 96376, Note_on_c, 0, 84, 0
2, 96381, Note_on_c, 0, 84, 91
2, 96381, Note_on_c, 0, 72, 88
2, 96499, Note_on_c, 0, 27, 0
2, 96499, Note_on_c, 0, 39, 0
2, 96499, Note_on_c, 0, 82, 0
2, 96503, Note_on_c, 0, 39, 78
2, 96503, Note_on_c, 0, 27, 82
2, 96503, Note_on_c, 0, 75, 0
2, 96510, Note_on_c, 0, 82, 89
2, 96518, Note_on_c, 0, 70, 79
2, 96606, Note_on_c, 0, 72, 0
2, 96606, Note_on_c, 0, 84, 0
2, 96616, Note_on_c, 0, 72, 90
2, 96617, Note_on_c, 0, 84, 93
2, 96688, Note_on_c, 0, 72, 0
2, 96688, Note_on_c, 0, 55, 0
2, 96688, Note_on_c, 0, 82, 0
2, 96688, Note_on_c, 0, 39, 0
2, 96688, Note_on_c, 0, 79, 0
2, 96688, Note_on_c, 0, 84, 0
2, 96688, Note_on_c, 0, 63, 0
2, 96688, Note_on_c, 0, 87, 0
2, 96689, Note_on_c, 0, 70, 0
2, 96689, Note_on_c, 0, 58, 0
2, 96691, Control_c, 0, 64, 0
2, 96706, Note_on_c, 0, 27, 0
2, 96735, Note_on_c, 0, 41, 80
2, 96736, Note_on_c, 0, 29, 90
2, 96738, Note_on_c, 0, 87, 100
2, 96739, Note_on_c, 0, 75, 94
2, 96752, Control_c, 0, 64, 127
2, 96860, Note_on_c, 0, 84, 96
2, 96863, Note_on_c, 0, 72, 85
2, 96955, Note_on_c, 0, 65, 76
2, 96962, Note_on_c, 0, 57, 87
2, 96966, Note_on_c, 0, 60, 57
2, 96967, Note_on_c, 0, 75, 0
2, 96967, Note_on_c, 0, 87, 0
2, 96976, Note_on_c, 0, 87, 97
2, 96979, Note_on_c, 0, 75, 84
2, 97095, Note_on_c, 0, 89, 106
2, 97096, Note_on_c, 0, 77, 102
2, 97157, Note_on_c, 0, 75, 0
2, 97157, Note_on_c, 0, 87, 0
2, 97157, Note_on_c, 0, 57, 0
2, 97157, Note_on_c, 0, 72, 0
2, 97158, Note_on_c, 0, 84, 0
2, 97159, Note_on_c, 0, 65, 0
2, 97159, Note_on_c, 0, 60, 0
2, 97166, Control_c, 0, 64, 0
2, 97167, Note_on_c, 0, 29, 0
2, 97175, Note_on_c, 0, 41, 0
2, 97208, Note_on_c, 0, 43, 86
2, 97209, Note_on_c, 0, 31, 81
2, 97228, Control_c, 0, 64, 127
2, 97244, Note_on_c, 0, 89, 0
2, 97334, Note_on_c, 0, 91, 99
2, 97336, Note_on_c, 0, 79, 93
2, 97367, Note_on_c, 0, 89, 48
2, 97447, Note_on_c, 0, 55, 68
2, 97447, Note_on_c, 0, 67, 81
2, 97450, Note_on_c, 0, 59, 76
2, 97562, Note_on_c, 0, 94, 98
2, 97564, Note_on_c, 0, 82, 84
2, 97659, Control_c, 0, 64, 0
2, 97662, Note_on_c, 0, 77, 0
2, 97663, Note_on_c, 0, 59, 0
2, 97663, Note_on_c, 0, 89, 0
2, 97663, Note_on_c, 0, 55, 0
2, 97665, Note_on_c, 0, 82, 0
2, 97665, Note_on_c, 0, 67, 0
2, 97667, Note_on_c, 0, 94, 0
2, 97667, Note_on_c, 0, 79, 0
2, 97669, Note_on_c, 0, 43, 0
2, 97681, Note_on_c, 0, 31, 0
2, 97681, Note_on_c, 0, 91, 0
2, 97686, Note_on_c, 0, 91, 97
2, 97688, Note_on_c, 0, 96, 107
2, 97689, Note_on_c, 0, 84, 106
2, 97691, Note_on_c, 0, 87, 98
2, 97693, Note_on_c, 0, 36, 82
2, 97693, Note_on_c, 0, 48, 89
2, 97704, Control_c, 0, 64, 127
2, 97758, Note_on_c, 0, 48, 0
2, 97930, Note_on_c, 0, 72, 93
2, 97930, Note_on_c, 0, 60, 84
2, 97950, Note_on_c, 0, 96, 0
2, 97958, Note_on_c, 0, 84, 0
2, 97960, Note_on_c, 0, 96, 90
2, 97968, Note_on_c, 0, 84, 85
2, 98047, Note_on_c, 0, 58, 83
2, 98048, Note_on_c, 0, 70, 92
2, 98076, Note_on_c, 0, 94, 96
2, 98078, Note_on_c, 0, 82, 84
2, 98100, Note_on_c, 0, 92, 60
2, 98161, Note_on_c, 0, 55, 93
2, 98169, Note_on_c, 0, 67, 81
2, 98173, Note_on_c, 0, 36, 0
2, 98173, Note_on_c, 0, 67, 0
2, 98181, Note_on_c, 0, 91, 0
2, 98192, Note_on_c, 0, 79, 89
2, 98192, Note_on_c, 0, 91, 96
2, 98200, Note_on_c, 0, 76, 69
2, 98211, Note_on_c, 0, 76, 0
2, 98273, Note_on_c, 0, 70, 0
2, 98279, Note_on_c, 0, 70, 88
2, 98280, Note_on_c, 0, 58, 0
2, 98291, Note_on_c, 0, 58, 72
2, 98304, Note_on_c, 0, 82, 0
2, 98304, Note_on_c, 0, 94, 0
2, 98314, Note_on_c, 0, 94, 95
2, 98314, Note_on_c, 0, 82, 82
2, 98388, Note_on_c, 0, 55, 0
2, 98393, Note_on_c, 0, 55, 75
2, 98419, Note_on_c, 0, 79, 0
2, 98419, Note_on_c, 0, 91, 0
2, 98429, Note_on_c, 0, 91, 93
2, 98430, Note_on_c, 0, 79, 86
2, 98513, Note_on_c, 0, 65, 80
2, 98514, Note_on_c, 0, 53, 79
2, 98516, Control_c, 0, 64, 0
2, 98523, Note_on_c, 0, 96, 0
2, 98531, Note_on_c, 0, 89, 94
2, 98540, Note_on_c, 0, 77, 87
2, 98557, Control_c, 0, 64, 127
2, 98618, Note_on_c, 0, 55, 0
2, 98629, Note_on_c, 0, 55, 87
2, 98630, Note_on_c, 0, 67, 86
2, 98657, Note_on_c, 0, 91, 0
2, 98664, Note_on_c, 0, 79, 0
2, 98668, Note_on_c, 0, 91, 94
2, 98669, Note_on_c, 0, 79, 83
2, 98741, Note_on_c, 0, 53, 0
2, 98745, Note_on_c, 0, 53, 86
2, 98780, Note_on_c, 0, 77, 0
2, 98780, Note_on_c, 0, 89, 0
2, 98784, Note_on_c, 0, 89, 91
2, 98787, Note_on_c, 0, 77, 92
2, 98810, Note_on_c, 0, 92, 0
2, 98860, Note_on_c, 0, 63, 82
2, 98860, Note_on_c, 0, 51, 89
2, 98903, Note_on_c, 0, 87, 0
2, 98910, Note_on_c, 0, 87, 95
2, 98913, Note_on_c, 0, 75, 78
2, 98972, Note_on_c, 0, 53, 0
2, 98972, Note_on_c, 0, 65, 0
2, 98976, Note_on_c, 0, 65, 86
2, 98981, Note_on_c, 0, 52, 78
2, 98983, Note_on_c, 0, 53, 82
2, 98983, Note_on_c, 0, 64, 76
2, 99002, Note_on_c, 0, 89, 0
2, 99010, Note_on_c, 0, 77, 0
2, 99014, Note_on_c, 0, 89, 90
2, 99015, Note_on_c, 0, 77, 87
2, 99095, Note_on_c, 0, 51, 0
2, 99095, Note_on_c, 0, 63, 0
2, 99099, Note_on_c, 0, 51, 92
2, 99101, Note_on_c, 0, 63, 82
2, 99102, Note_on_c, 0, 75, 0
2, 99113, Note_on_c, 0, 75, 88
2, 99125, Note_on_c, 0, 87, 0
2, 99130, Note_on_c, 0, 87, 96
2, 99214, Note_on_c, 0, 48, 86
2, 99225, Note_on_c, 0, 84, 0
2, 99233, Note_on_c, 0, 84, 94
2, 99233, Note_on_c, 0, 60, 0
2, 99233, Note_on_c, 0, 72, 0
2, 99237, Note_on_c, 0, 60, 76
2, 99243, Note_on_c, 0, 72, 88
2, 99340, Note_on_c, 0, 46, 87
2, 99340, Note_on_c, 0, 82, 0
2, 99345, Note_on_c, 0, 82, 84
2, 99385, Note_on_c, 0, 71, 45
2, 99394, Note_on_c, 0, 71, 0
2, 99465, Note_on_c, 0, 52, 0
2, 99466, Note_on_c, 0, 63, 0
2, 99466, Control_c, 0, 64, 0
2, 99466, Note_on_c, 0, 67, 0
2, 99467, Note_on_c, 0, 77, 0
2, 99467, Note_on_c, 0, 89, 0
2, 99467, Note_on_c, 0, 53, 0
2, 99467, Note_on_c, 0, 60, 0
2, 99467, Note_on_c, 0, 51, 0
2, 99467, Note_on_c, 0, 82, 0
2, 99467, Note_on_c, 0, 87, 0
2, 99467, Note_on_c, 0, 94, 0
2, 99467, Note_on_c, 0, 91, 0
2, 99467, Note_on_c, 0, 58, 0
2, 99467, Note_on_c, 0, 46, 0
2, 99471, Note_on_c, 0, 64, 0
2, 99479, Note_on_c, 0, 55, 0
2, 99479, Note_on_c, 0, 65, 0
2, 99479, Note_on_c, 0, 70, 0
2, 99479, Note_on_c, 0, 72, 0
2, 99479, Note_on_c, 0, 75, 0
2, 99479, Note_on_c, 0, 79, 0
2, 99479, Note_on_c, 0, 84, 0
2, 99485, Note_on_c, 0, 84, 93
2, 99485, Note_on_c, 0, 75, 85
2, 99485, Note_on_c, 0, 72, 93
2, 99488, Note_on_c, 0, 79, 83
2, 99494, Note_on_c, 0, 48, 0
2, 99500, Note_on_c, 0, 48, 71
2, 99508, Note_on_c, 0, 36, 64
2, 99513, Note_on_c, 0, 50, 64
2, 99515, Note_on_c, 0, 38, 57
2, 99517, Note_on_c, 0, 50, 0
2, 99525, Note_on_c, 0, 38, 0
2, 99555, Control_c, 0, 64, 127
2, 99886, Note_on_c, 0, 36, 0
2, 99892, Note_on_c, 0, 24, 84
2, 99892, Note_on_c, 0, 36, 75
2, 99924, Note_on_c, 0, 48, 0
2, 100316, Note_on_c, 0, 24, 0
2, 100327, Note_on_c, 0, 62, 54
2, 100373, Note_on_c, 0, 51, 66
2, 100373, Note_on_c, 0, 63, 66
2, 100375, Note_on_c, 0, 70, 72
2, 100377, Note_on_c, 0, 51, 0
2, 100412, Note_on_c, 0, 74, 60
2, 100423, Note_on_c, 0, 75, 0
2, 100434, Note_on_c, 0, 75, 86
2, 100463, Note_on_c, 0, 82, 94
2, 101760, Note_on_c, 0, 72, 0
2, 101760, Note_on_c, 0, 79, 0
2, 101760, Note_on_c, 0, 84, 0
2, 104256, Note_on_c, 0, 36, 0
2, 104257, Note_on_c, 0, 82, 0
2, 104258, Note_on_c, 0, 63, 0
2, 104258, Note_on_c, 0, 70, 0
2, 104261, Control_c, 0, 64, 0
2, 104271, Note_on_c, 0, 62, 0
2, 104279, Note_on_c, 0, 75, 0
2, 104340, Note_on_c, 0, 74, 0
2, 105692, Control_c, 0, 64, 127
2, 105976, Control_c, 0, 64, 0
2, 106106, Control_c, 0, 64, 127
2, 106321, Control_c, 0, 64, 0
2, 106429, Control_c, 0, 64, 127
2, 106437, Control_c, 0, 64, 0
2, 106521, Control_c, 0, 64, 127
2, 106759, Control_c, 0, 64, 0
2, 106760, End_track
0, 0, End_of_file
