0, 0, Header, 1, 2, 384
1, 0, Start_track
1, 0, Tempo, 500000
1, 0, Time_signature, 4, 2, 24, 8
1, 1, End_track
2, 0, Start_track
2, 1766, Control_c, 0, 64, 127
2, 1838, Note_on_c, 0, 75, 63
2, 2024, Note_on_c, 0, 78, 74
2, 2211, Note_on_c, 0, 78, 0
2, 2214, Control_c, 0, 64, 0
2, 2222, Note_on_c, 0, 78, 79
2, 2227, Note_on_c, 0, 75, 0
2, 2235, Note_on_c, 0, 75, 66
2, 2236, Note_on_c, 0, 71, 61
2, 2238, Note_on_c, 0, 44, 45
2, 2311, Control_c, 0, 64, 127
2, 2399, Note_on_c, 0, 51, 55
2, 2449, Note_on_c, 0, 78, 0
2, 2454, Note_on_c, 0, 78, 43
2, 2568, Note_on_c, 0, 83, 79
2, 2572, Note_on_c, 0, 75, 0
2, 2575, Note_on_c, 0, 56, 52
2, 2578, Note_on_c, 0, 75, 64
2, 2769, Note_on_c, 0, 82, 77
2, 2775, Note_on_c, 0, 59, 53
2, 2776, Note_on_c, 0, 73, 63
2, 3121, Note_on_c, 0, 80, 80
2, 3141, Note_on_c, 0, 59, 0
2, 3145, Note_on_c, 0, 59, 41
2, 3148, Note_on_c, 0, 71, 0
2, 3156, Note_on_c, 0, 71, 58
2, 3471, Note_on_c, 0, 75, 0
2, 3479, Note_on_c, 0, 75, 77
2, 3497, Note_on_c, 0, 66, 60
2, 3612, Control_c, 0, 64, 0
2, 3612, Note_on_c, 0, 82, 0
2, 3613, Note_on_c, 0, 78, 0
2, 3613, Note_on_c, 0, 51, 0
2, 3613, Note_on_c, 0, 56, 0
2, 3613, Note_on_c, 0, 73, 0
2, 3613, Note_on_c, 0, 59, 0
2, 3613, Note_on_c, 0, 80, 0
2, 3613, Note_on_c, 0, 71, 0
2, 3613, Note_on_c, 0, 83, 0
2, 3632, Note_on_c, 0, 44, 0
2, 3667, Note_on_c, 0, 40, 54
2, 3763, Control_c, 0, 64, 127
2, 3826, Note_on_c, 0, 47, 65
2, 3993, Note_on_c, 0, 75, 0
2, 3997, Note_on_c, 0, 75, 72
2, 4001, Note_on_c, 0, 66, 0
2, 4008, Note_on_c, 0, 47, 0
2, 4009, Note_on_c, 0, 66, 60
2, 4014, Note_on_c, 0, 52, 55
2, 4018, Note_on_c, 0, 47, 53
2, 4180, Note_on_c, 0, 73, 76
2, 4194, Note_on_c, 0, 64, 62
2, 4205, Note_on_c, 0, 56, 57
2, 4510, Note_on_c, 0, 75, 0
2, 4511, Note_on_c, 0, 52, 0
2, 4511, Note_on_c, 0, 73, 0
2, 4511, Control_c, 0, 64, 0
2, 4512, Note_on_c, 0, 64, 0
2, 4516, Note_on_c, 0, 66, 0
2, 4542, Note_on_c, 0, 71, 70
2, 4558, Note_on_c, 0, 63, 54
2, 4631, Control_c, 0, 64, 127
2, 4884, Note_on_c, 0, 71, 0
2, 4895, Note_on_c, 0, 71, 75
2, 4919, Note_on_c, 0, 59, 38
2, 5073, Control_c, 0, 64, 0
2, 5077, Note_on_c, 0, 40, 0
2, 5077, Note_on_c, 0, 63, 0
2, 5084, Note_on_c, 0, 47, 0
2, 5084, Note_on_c, 0, 56, 0
2, 5087, Note_on_c, 0, 73, 75
2, 5105, Note_on_c, 0, 42, 49
2, 5107, Note_on_c, 0, 59, 0
2, 5110, Note_on_c, 0, 70, 56
2, 5114, Note_on_c, 0, 71, 0
2, 5176, Control_c, 0, 64, 127
2, 5294, Note_on_c, 0, 49, 49
2, 5437, Note_on_c, 0, 73, 0
2, 5443, Note_on_c, 0, 73, 74
2, 5445, Note_on_c, 0, 70, 0
2, 5450, Note_on_c, 0, 70, 58
2, 5454, Note_on_c, 0, 54, 50
2, 5609, Note_on_c, 0, 71, 77
2, 5631, Note_on_c, 0, 68, 60
2, 5634, Note_on_c, 0, 58, 47
2, 5775, Note_on_c, 0, 73, 0
2, 5783, Note_on_c, 0, 70, 0
2, 5786, Note_on_c, 0, 73, 79
2, 5794, Note_on_c, 0, 70, 67
2, 5962, Note_on_c, 0, 49, 0
2, 5962, Control_c, 0, 64, 0
2, 5962, Note_on_c, 0, 68, 0
2, 5963, Note_on_c, 0, 58, 0
2, 5963, Note_on_c, 0, 42, 0
2, 5978, Note_on_c, 0, 75, 82
2, 5982, Note_on_c, 0, 71, 0
2, 5990, Note_on_c, 0, 70, 0
2, 5990, Note_on_c, 0, 73, 0
2, 5993, Note_on_c, 0, 71, 68
2, 6144, Control_c, 0, 64, 127
2, 6336, Note_on_c, 0, 71, 0
2, 6336, Note_on_c, 0, 75, 0
2, 6340, Note_on_c, 0, 75, 78
2, 6343, Note_on_c, 0, 71, 66
2, 6531, Note_on_c, 0, 47, 64
2, 6550, Control_c, 0, 64, 0
2, 6558, Note_on_c, 0, 54, 0
2, 6708, Note_on_c, 0, 54, 45
2, 6712, Control_c, 0, 64, 127
2, 6884, Note_on_c, 0, 59, 62
2, 7052, Note_on_c, 0, 63, 62
2, 7238, Note_on_c, 0, 61, 58
2, 7240, Note_on_c, 0, 46, 52
2, 7246, Note_on_c, 0, 59, 0
2, 7246, Note_on_c, 0, 54, 0
2, 7246, Note_on_c, 0, 63, 0
2, 7247, Control_c, 0, 64, 0
2, 7257, Note_on_c, 0, 47, 0
2, 7257, Note_on_c, 0, 71, 0
2, 7372, Control_c, 0, 64, 127
2, 7431, Note_on_c, 0, 54, 57
2, 7572, Note_on_c, 0, 75, 0
2, 7583, Note_on_c, 0, 75, 81
2, 7609, Note_on_c, 0, 58, 63
2, 7756, Note_on_c, 0, 61, 0
2, 7761, Note_on_c, 0, 61, 63
2, 7765, Note_on_c, 0, 78, 87
2, 7765, Note_on_c, 0, 73, 68
2, 7772, Note_on_c, 0, 73, 0
2, 7956, Note_on_c, 0, 78, 0
2, 7960, Note_on_c, 0, 78, 88
2, 7961, Note_on_c, 0, 54, 0
2, 7961, Control_c, 0, 64, 0
2, 7962, Note_on_c, 0, 46, 0
2, 7962, Note_on_c, 0, 58, 0
2, 7963, Note_on_c, 0, 61, 0
2, 7964, Note_on_c, 0, 75, 0
2, 7975, Note_on_c, 0, 75, 67
2, 7976, Note_on_c, 0, 44, 60
2, 7976, Note_on_c, 0, 71, 60
2, 8056, Control_c, 0, 64, 127
2, 8135, Note_on_c, 0, 51, 59
2, 8301, Note_on_c, 0, 83, 81
2, 8319, Note_on_c, 0, 56, 53
2, 8332, Note_on_c, 0, 75, 0
2, 8336, Note_on_c, 0, 75, 58
2, 8497, Note_on_c, 0, 82, 83
2, 8504, Note_on_c, 0, 59, 58
2, 8507, Note_on_c, 0, 73, 63
2, 8846, Note_on_c, 0, 80, 79
2, 8862, Note_on_c, 0, 71, 0
2, 8868, Note_on_c, 0, 71, 65
2, 9216, Note_on_c, 0, 75, 0
2, 9222, Note_on_c, 0, 75, 72
2, 9239, Note_on_c, 0, 66, 60
2, 9392, Control_c, 0, 64, 0
2, 9394, Note_on_c, 0, 82, 0
2, 9394, Note_on_c, 0, 59, 0
2, 9394, Note_on_c, 0, 56, 0
2, 9394, Note_on_c, 0, 78, 0
2, 9395, Note_on_c, 0, 51, 0
2, 9395, Note_on_c, 0, 73, 0
2, 9395, Note_on_c, 0, 71, 0
2, 9395, Note_on_c, 0, 80, 0
2, 9395, Note_on_c, 0, 83, 0
2, 9408, Note_on_c, 0, 44, 0
2, 9412, Note_on_c, 0, 40, 50
2, 9530, Control_c, 0, 64, 127
2, 9580, Note_on_c, 0, 47, 56
2, 9745, Note_on_c, 0, 75, 0
2, 9749, Note_on_c, 0, 52, 56
2, 9755, Note_on_c, 0, 75, 75
2, 9768, Note_on_c, 0, 66, 0
2, 9779, Note_on_c, 0, 66, 64
2, 9949, Note_on_c, 0, 73, 72
2, 9959, Note_on_c, 0, 56, 50
2, 9960, Note_on_c, 0, 64, 63
2, 10307, Note_on_c, 0, 47, 0
2, 10307, Control_c, 0, 64, 0
2, 10308, Note_on_c, 0, 56, 0
2, 10308, Note_on_c, 0, 40, 0
2, 10308, Note_on_c, 0, 52, 0
2, 10308, Note_on_c, 0, 73, 0
2, 10309, Note_on_c, 0, 64, 0
2, 10310, Note_on_c, 0, 66, 0
2, 10321, Note_on_c, 0, 75, 0
2, 10329, Note_on_c, 0, 71, 62
2, 10350, Note_on_c, 0, 63, 61
2, 10444, Control_c, 0, 64, 127
2, 10706, Note_on_c, 0, 73, 70
2, 10905, Note_on_c, 0, 63, 0
2, 10925, Control_c, 0, 64, 0
2, 10927, Note_on_c, 0, 85, 88
2, 10928, Note_on_c, 0, 73, 0
2, 10930, Note_on_c, 0, 71, 0
2, 10933, Note_on_c, 0, 42, 53
2, 10939, Note_on_c, 0, 82, 74
2, 10939, Note_on_c, 0, 73, 72
2, 11020, Control_c, 0, 64, 127
2, 11138, Note_on_c, 0, 49, 53
2, 11251, Note_on_c, 0, 73, 0
2, 11320, Note_on_c, 0, 85, 0
2, 11324, Note_on_c, 0, 85, 85
2, 11335, Note_on_c, 0, 73, 73
2, 11336, Note_on_c, 0, 54, 43
2, 11544, Note_on_c, 0, 83, 79
2, 11545, Note_on_c, 0, 61, 55
2, 11553, Note_on_c, 0, 71, 71
2, 11773, Note_on_c, 0, 85, 0
2, 11780, Note_on_c, 0, 85, 82
2, 11781, Note_on_c, 0, 73, 0
2, 11789, Note_on_c, 0, 73, 70
2, 12011, Note_on_c, 0, 83, 0
2, 12018, Note_on_c, 0, 83, 74
2, 12019, Note_on_c, 0, 71, 0
2, 12023, Note_on_c, 0, 71, 65
2, 12264, Note_on_c, 0, 82, 0
2, 12270, Note_on_c, 0, 82, 75
2, 12279, Note_on_c, 0, 70, 63
2, 12564, Note_on_c, 0, 83, 0
2, 12572, Note_on_c, 0, 71, 0
2, 12574, Note_on_c, 0, 83, 74
2, 12577, Note_on_c, 0, 71, 62
2, 12878, Control_c, 0, 64, 0
2, 12881, Note_on_c, 0, 82, 0
2, 12881, Note_on_c, 0, 49, 0
2, 12882, Note_on_c, 0, 61, 0
2, 12882, Note_on_c, 0, 70, 0
2, 12882, Note_on_c, 0, 71, 0
2, 12882, Note_on_c, 0, 42, 0
2, 12882, Note_on_c, 0, 85, 0
2, 12883, Note_on_c, 0, 73, 0
2, 12886, Note_on_c, 0, 47, 56
2, 12894, Note_on_c, 0, 54, 0
2, 13056, Control_c, 0, 64, 127
2, 13213, Note_on_c, 0, 54, 41
2, 13627, Note_on_c, 0, 59, 50
2, 14253, Note_on_c, 0, 71, 53
2, 16304, Control_c, 0, 64, 0
2, 16427, Note_on_c, 0, 83, 0
2, 16442, Note_on_c, 0, 47, 0
2, 16596, Note_on_c, 0, 54, 0
2, 16613, Note_on_c, 0, 32, 72
2, 16634, Note_on_c, 0, 59, 0
2, 16638, Note_on_c, 0, 44, 78
2, 16657, Control_c, 0, 64, 127
2, 16759, Note_on_c, 0, 63, 101
2, 16776, Note_on_c, 0, 59, 89
2, 16777, Note_on_c, 0, 56, 78
2, 16782, Note_on_c, 0, 51, 79
2, 17072, Note_on_c, 0, 71, 0
2, 17077, Note_on_c, 0, 71, 96
2, 17390, Note_on_c, 0, 66, 98
2, 17637, Note_on_c, 0, 51, 0
2, 17637, Note_on_c, 0, 56, 0
2, 17638, Note_on_c, 0, 59, 0
2, 17639, Note_on_c, 0, 63, 0
2, 17642, Control_c, 0, 64, 0
2, 17648, Note_on_c, 0, 32, 0
2, 17656, Note_on_c, 0, 44, 0
2, 17679, Note_on_c, 0, 71, 0
2, 17683, Note_on_c, 0, 71, 97
2, 17683, Note_on_c, 0, 40, 73
2, 17710, Control_c, 0, 64, 127
2, 17721, Note_on_c, 0, 47, 80
2, 17837, Note_on_c, 0, 64, 101
2, 17851, Note_on_c, 0, 59, 83
2, 17854, Note_on_c, 0, 52, 88
2, 17860, Note_on_c, 0, 56, 67
2, 18140, Note_on_c, 0, 71, 0
2, 18150, Note_on_c, 0, 71, 95
2, 18432, Note_on_c, 0, 66, 0
2, 18443, Note_on_c, 0, 66, 96
2, 18746, Note_on_c, 0, 71, 0
2, 18756, Note_on_c, 0, 71, 97
2, 18973, Note_on_c, 0, 47, 0
2, 18973, Control_c, 0, 64, 0
2, 18974, Note_on_c, 0, 59, 0
2, 18974, Note_on_c, 0, 52, 0
2, 18974, Note_on_c, 0, 56, 0
2, 18974, Note_on_c, 0, 64, 0
2, 18975, Note_on_c, 0, 40, 0
2, 18975, Note_on_c, 0, 66, 0
2, 19026, Note_on_c, 0, 47, 70
2, 19026, Note_on_c, 0, 35, 69
2, 19054, Control_c, 0, 64, 127
2, 19077, Note_on_c, 0, 47, 0
2, 19088, Note_on_c, 0, 47, 85
2, 19180, Note_on_c, 0, 63, 102
2, 19203, Note_on_c, 0, 59, 83
2, 19205, Note_on_c, 0, 54, 81
2, 19209, Note_on_c, 0, 51, 74
2, 19491, Note_on_c, 0, 71, 0
2, 19499, Note_on_c, 0, 71, 95
2, 19795, Note_on_c, 0, 66, 100
2, 20054, Note_on_c, 0, 59, 0
2, 20054, Note_on_c, 0, 51, 0
2, 20055, Note_on_c, 0, 63, 0
2, 20055, Note_on_c, 0, 47, 0
2, 20057, Control_c, 0, 64, 0
2, 20067, Note_on_c, 0, 35, 0
2, 20071, Note_on_c, 0, 42, 77
2, 20075, Note_on_c, 0, 71, 0
2, 20080, Note_on_c, 0, 71, 92
2, 20083, Note_on_c, 0, 54, 0
2, 20106, Control_c, 0, 64, 127
2, 20112, Note_on_c, 0, 49, 56
2, 20236, Note_on_c, 0, 49, 0
2, 20240, Note_on_c, 0, 61, 95
2, 20241, Note_on_c, 0, 58, 94
2, 20246, Note_on_c, 0, 49, 76
2, 20559, Note_on_c, 0, 71, 0
2, 20567, Note_on_c, 0, 71, 98
2, 20876, Note_on_c, 0, 73, 99
2, 21173, Note_on_c, 0, 75, 106
2, 21319, Note_on_c, 0, 42, 0
2, 21328, Note_on_c, 0, 54, 84
2, 21329, Note_on_c, 0, 42, 86
2, 21571, Control_c, 0, 64, 0
2, 21572, Note_on_c, 0, 49, 0
2, 21573, Note_on_c, 0, 58, 0
2, 21573, Note_on_c, 0, 71, 0
2, 21574, Note_on_c, 0, 54, 0
2, 21574, Note_on_c, 0, 73, 0
2, 21575, Note_on_c, 0, 61, 0
2, 21577, Note_on_c, 0, 75, 0
2, 21580, Note_on_c, 0, 66, 0
2, 21596, Note_on_c, 0, 42, 0
2, 21624, Note_on_c, 0, 75, 103
2, 21629, Note_on_c, 0, 63, 98
2, 21629, Note_on_c, 0, 44, 87
2, 21630, Note_on_c, 0, 68, 96
2, 21630, Note_on_c, 0, 32, 83
2, 21631, Note_on_c, 0, 71, 80
2, 21649, Control_c, 0, 64, 127
2, 21800, Note_on_c, 0, 56, 69
2, 21866, Note_on_c, 0, 51, 76
2, 21880, Note_on_c, 0, 32, 0
2, 21926, Note_on_c, 0, 44, 0
2, 21926, Note_on_c, 0, 71, 0
2, 21931, Note_on_c, 0, 83, 101
2, 21934, Note_on_c, 0, 44, 76
2, 21937, Note_on_c, 0, 71, 88
2, 22072, Note_on_c, 0, 56, 0
2, 22079, Note_on_c, 0, 56, 52
2, 22141, Note_on_c, 0, 51, 0
2, 22152, Note_on_c, 0, 51, 71
2, 22240, Note_on_c, 0, 78, 102
2, 22241, Note_on_c, 0, 44, 0
2, 22244, Note_on_c, 0, 66, 93
2, 22249, Note_on_c, 0, 44, 71
2, 22464, Note_on_c, 0, 51, 0
2, 22473, Note_on_c, 0, 51, 59
2, 22525, Note_on_c, 0, 83, 0
2, 22533, Note_on_c, 0, 44, 0
2, 22533, Note_on_c, 0, 71, 0
2, 22536, Note_on_c, 0, 83, 96
2, 22538, Note_on_c, 0, 71, 89
2, 22542, Note_on_c, 0, 44, 86
2, 22664, Note_on_c, 0, 51, 0
2, 22664, Note_on_c, 0, 44, 0
2, 22664, Note_on_c, 0, 68, 0
2, 22664, Note_on_c, 0, 75, 0
2, 22664, Note_on_c, 0, 63, 0
2, 22665, Note_on_c, 0, 83, 0
2, 22665, Note_on_c, 0, 78, 0
2, 22665, Note_on_c, 0, 56, 0
2, 22666, Note_on_c, 0, 66, 0
2, 22666, Control_c, 0, 64, 0
2, 22694, Note_on_c, 0, 71, 0
2, 22697, Note_on_c, 0, 40, 91
2, 22697, Note_on_c, 0, 76, 98
2, 22698, Note_on_c, 0, 68, 90
2, 22699, Note_on_c, 0, 28, 83
2, 22699, Note_on_c, 0, 71, 86
2, 22699, Note_on_c, 0, 64, 91
2, 22732, Control_c, 0, 64, 127
2, 22863, Note_on_c, 0, 40, 0
2, 22871, Note_on_c, 0, 40, 61
2, 22985, Note_on_c, 0, 83, 102
2, 22986, Note_on_c, 0, 71, 0
2, 22987, Note_on_c, 0, 56, 77
2, 22990, Note_on_c, 0, 71, 84
2, 22998, Note_on_c, 0, 52, 67
2, 23078, Note_on_c, 0, 47, 78
2, 23139, Note_on_c, 0, 40, 0
2, 23148, Note_on_c, 0, 40, 73
2, 23285, Note_on_c, 0, 56, 0
2, 23289, Note_on_c, 0, 78, 100
2, 23291, Note_on_c, 0, 56, 78
2, 23295, Note_on_c, 0, 66, 95
2, 23377, Note_on_c, 0, 47, 0
2, 23382, Note_on_c, 0, 47, 80
2, 23462, Note_on_c, 0, 40, 0
2, 23467, Note_on_c, 0, 40, 73
2, 23600, Note_on_c, 0, 83, 0
2, 23608, Note_on_c, 0, 56, 0
2, 23608, Note_on_c, 0, 71, 0
2, 23610, Note_on_c, 0, 83, 99
2, 23612, Note_on_c, 0, 71, 89
2, 23614, Note_on_c, 0, 56, 80
2, 23738, Note_on_c, 0, 40, 0
2, 23749, Note_on_c, 0, 40, 74
2, 23892, Note_on_c, 0, 47, 0
2, 23903, Note_on_c, 0, 47, 82
2, 23975, Control_c, 0, 64, 0
2, 23979, Note_on_c, 0, 47, 0
2, 23979, Note_on_c, 0, 71, 0
2, 23979, Note_on_c, 0, 83, 0
2, 23979, Note_on_c, 0, 68, 0
2, 23979, Note_on_c, 0, 52, 0
2, 23979, Note_on_c, 0, 56, 0
2, 23979, Note_on_c, 0, 76, 0
2, 23979, Note_on_c, 0, 40, 0
2, 23980, Note_on_c, 0, 78, 0
2, 23980, Note_on_c, 0, 66, 0
2, 23984, Note_on_c, 0, 64, 0
2, 23992, Note_on_c, 0, 28, 0
2, 24042, Note_on_c, 0, 63, 94
2, 24042, Note_on_c, 0, 75, 102
2, 24043, Note_on_c, 0, 66, 96
2, 24048, Note_on_c, 0, 71, 85
2, 24048, Note_on_c, 0, 35, 86
2, 24053, Control_c, 0, 64, 127
2, 24174, Note_on_c, 0, 47, 76
2, 24258, Note_on_c, 0, 54, 74
2, 24353, Note_on_c, 0, 47, 0
2, 24353, Note_on_c, 0, 71, 0
2, 24357, Note_on_c, 0, 83, 98
2, 24359, Note_on_c, 0, 71, 89
2, 24363, Note_on_c, 0, 47, 91
2, 24465, Note_on_c, 0, 51, 45
2, 24503, Note_on_c, 0, 59, 76
2, 24552, Note_on_c, 0, 54, 0
2, 24562, Note_on_c, 0, 54, 71
2, 24645, Note_on_c, 0, 47, 0
2, 24645, Note_on_c, 0, 66, 0
2, 24648, Note_on_c, 0, 78, 98
2, 24651, Note_on_c, 0, 66, 90
2, 24651, Note_on_c, 0, 47, 88
2, 24768, Note_on_c, 0, 47, 0
2, 24774, Note_on_c, 0, 47, 69
2, 24775, Note_on_c, 0, 59, 0
2, 24786, Note_on_c, 0, 59, 73
2, 24890, Note_on_c, 0, 54, 0
2, 24901, Note_on_c, 0, 54, 57
2, 24944, Note_on_c, 0, 83, 0
2, 24952, Note_on_c, 0, 71, 0
2, 24953, Note_on_c, 0, 83, 95
2, 24957, Note_on_c, 0, 71, 88
2, 24960, Note_on_c, 0, 47, 0
2, 24963, Note_on_c, 0, 47, 80
2, 25077, Note_on_c, 0, 47, 0
2, 25077, Note_on_c, 0, 71, 0
2, 25078, Note_on_c, 0, 59, 0
2, 25078, Note_on_c, 0, 75, 0
2, 25078, Note_on_c, 0, 63, 0
2, 25078, Note_on_c, 0, 78, 0
2, 25082, Note_on_c, 0, 51, 0
2, 25084, Control_c, 0, 64, 0
2, 25090, Note_on_c, 0, 54, 0
2, 25098, Note_on_c, 0, 35, 0
2, 25105, Note_on_c, 0, 83, 0
2, 25113, Note_on_c, 0, 66, 0
2, 25116, Note_on_c, 0, 73, 98
2, 25118, Note_on_c, 0, 66, 90
2, 25120, Note_on_c, 0, 42, 88
2, 25121, Note_on_c, 0, 70, 84
2, 25122, Note_on_c, 0, 61, 85
2, 25123, Note_on_c, 0, 30, 86
2, 25175, Control_c, 0, 64, 127
2, 25228, Note_on_c, 0, 30, 0
2, 25236, Note_on_c, 0, 61, 0
2, 25410, Note_on_c, 0, 83, 101
2, 25410, Note_on_c, 0, 58, 81
2, 25417, Note_on_c, 0, 71, 91
2, 25501, Note_on_c, 0, 49, 67
2, 25551, Note_on_c, 0, 42, 0
2, 25561, Note_on_c, 0, 42, 74
2, 25704, Note_on_c, 0, 49, 0
2, 25704, Note_on_c, 0, 58, 0
2, 25704, Note_on_c, 0, 73, 0
2, 25708, Note_on_c, 0, 85, 103
2, 25709, Note_on_c, 0, 58, 79
2, 25715, Note_on_c, 0, 49, 74
2, 25716, Note_on_c, 0, 73, 94
2, 25721, Note_on_c, 0, 54, 61
2, 25728, Note_on_c, 0, 54, 0
2, 25781, Note_on_c, 0, 49, 0
2, 25787, Note_on_c, 0, 49, 76
2, 25873, Note_on_c, 0, 42, 0
2, 25880, Note_on_c, 0, 42, 64
2, 26004, Note_on_c, 0, 58, 0
2, 26008, Note_on_c, 0, 87, 101
2, 26009, Note_on_c, 0, 58, 77
2, 26013, Note_on_c, 0, 75, 91
2, 26148, Note_on_c, 0, 54, 53
2, 26304, Note_on_c, 0, 49, 0
2, 26308, Note_on_c, 0, 49, 62
2, 26446, Note_on_c, 0, 73, 0
2, 26446, Control_c, 0, 64, 0
2, 26447, Note_on_c, 0, 83, 0
2, 26447, Note_on_c, 0, 49, 0
2, 26447, Note_on_c, 0, 58, 0
2, 26447, Note_on_c, 0, 87, 0
2, 26447, Note_on_c, 0, 70, 0
2, 26447, Note_on_c, 0, 71, 0
2, 26447, Note_on_c, 0, 85, 0
2, 26448, Note_on_c, 0, 66, 0
2, 26457, Note_on_c, 0, 54, 0
2, 26465, Note_on_c, 0, 42, 0
2, 26465, Note_on_c, 0, 75, 0
2, 26475, Note_on_c, 0, 75, 87
2, 26483, Note_on_c, 0, 44, 67
2, 26595, Control_c, 0, 64, 127
2, 26637, Note_on_c, 0, 51, 55
2, 26769, Note_on_c, 0, 73, 72
2, 26771, Note_on_c, 0, 56, 57
2, 26932, Note_on_c, 0, 71, 81
2, 26943, Note_on_c, 0, 63, 57
2, 26946, Note_on_c, 0, 59, 55
2, 27217, Note_on_c, 0, 56, 0
2, 27217, Note_on_c, 0, 71, 0
2, 27222, Note_on_c, 0, 71, 77
2, 27228, Note_on_c, 0, 56, 48
2, 27363, Note_on_c, 0, 59, 0
2, 27363, Note_on_c, 0, 63, 0
2, 27375, Note_on_c, 0, 63, 64
2, 27375, Note_on_c, 0, 59, 63
2, 27525, Note_on_c, 0, 59, 0
2, 27525, Note_on_c, 0, 71, 0
2, 27529, Note_on_c, 0, 71, 67
2, 27531, Note_on_c, 0, 59, 54
2, 27652, Note_on_c, 0, 73, 0
2, 27652, Note_on_c, 0, 56, 0
2, 27652, Note_on_c, 0, 63, 0
2, 27653, Note_on_c, 0, 75, 0
2, 27653, Control_c, 0, 64, 0
2, 27653, Note_on_c, 0, 59, 0
2, 27663, Note_on_c, 0, 44, 0
2, 27663, Note_on_c, 0, 71, 0
2, 27674, Note_on_c, 0, 71, 69
2, 27675, Note_on_c, 0, 39, 67
2, 27678, Note_on_c, 0, 51, 0
2, 27824, Control_c, 0, 64, 127
2, 27830, Note_on_c, 0, 46, 57
2, 27966, Note_on_c, 0, 51, 65
2, 27967, Note_on_c, 0, 70, 75
2, 28115, Note_on_c, 0, 61, 70
2, 28120, Note_on_c, 0, 58, 70
2, 28146, Note_on_c, 0, 54, 44
2, 28277, Note_on_c, 0, 71, 0
2, 28287, Note_on_c, 0, 71, 79
2, 28416, Note_on_c, 0, 51, 0
2, 28427, Note_on_c, 0, 51, 61
2, 28577, Note_on_c, 0, 61, 0
2, 28582, Note_on_c, 0, 73, 83
2, 28583, Note_on_c, 0, 61, 65
2, 28584, Note_on_c, 0, 54, 0
2, 28584, Note_on_c, 0, 58, 0
2, 28594, Note_on_c, 0, 58, 60
2, 28596, Note_on_c, 0, 54, 54
2, 28876, Note_on_c, 0, 71, 0
2, 28887, Note_on_c, 0, 71, 78
2, 28887, Note_on_c, 0, 40, 67
2, 28895, Note_on_c, 0, 54, 0
2, 28895, Note_on_c, 0, 51, 0
2, 28895, Note_on_c, 0, 58, 0
2, 28896, Note_on_c, 0, 70, 0
2, 28896, Note_on_c, 0, 61, 0
2, 28896, Note_on_c, 0, 39, 0
2, 28897, Note_on_c, 0, 73, 0
2, 28902, Control_c, 0, 64, 0
2, 28907, Note_on_c, 0, 46, 0
2, 29022, Control_c, 0, 64, 127
2, 29036, Note_on_c, 0, 73, 79
2, 29059, Note_on_c, 0, 47, 61
2, 29185, Note_on_c, 0, 52, 67
2, 29187, Note_on_c, 0, 75, 81
2, 29347, Note_on_c, 0, 76, 89
2, 29349, Note_on_c, 0, 64, 64
2, 29351, Note_on_c, 0, 59, 59
2, 29356, Note_on_c, 0, 56, 57
2, 29637, Note_on_c, 0, 52, 0
2, 29637, Note_on_c, 0, 75, 0
2, 29645, Note_on_c, 0, 75, 77
2, 29646, Note_on_c, 0, 52, 63
2, 29783, Note_on_c, 0, 52, 0
2, 29783, Note_on_c, 0, 56, 0
2, 29783, Note_on_c, 0, 64, 0
2, 29783, Note_on_c, 0, 73, 0
2, 29789, Note_on_c, 0, 52, 63
2, 29791, Note_on_c, 0, 73, 82
2, 29793, Note_on_c, 0, 64, 68
2, 29793, Note_on_c, 0, 56, 49
2, 29944, Note_on_c, 0, 71, 0
2, 29950, Note_on_c, 0, 71, 80
2, 30039, Control_c, 0, 64, 0
2, 30041, Note_on_c, 0, 47, 0
2, 30041, Note_on_c, 0, 76, 0
2, 30042, Note_on_c, 0, 59, 0
2, 30042, Note_on_c, 0, 75, 0
2, 30042, Note_on_c, 0, 73, 0
2, 30044, Note_on_c, 0, 40, 0
2, 30059, Note_on_c, 0, 52, 0
2, 30059, Note_on_c, 0, 56, 0
2, 30059, Note_on_c, 0, 64, 0
2, 30104, Note_on_c, 0, 47, 68
2, 30228, Control_c, 0, 64, 127
2, 30255, Note_on_c, 0, 54, 54
2, 30392, Note_on_c, 0, 59, 69
2, 30543, Note_on_c, 0, 59, 0
2, 30546, Note_on_c, 0, 63, 68
2, 30552, Note_on_c, 0, 59, 63
2, 30689, Note_on_c, 0, 71, 0
2, 30697, Note_on_c, 0, 71, 78
2, 30720, Note_on_c, 0, 59, 0
2, 30730, Note_on_c, 0, 59, 38
2, 30835, Note_on_c, 0, 54, 0
2, 30835, Note_on_c, 0, 71, 0
2, 30839, Note_on_c, 0, 54, 57
2, 30841, Note_on_c, 0, 71, 75
2, 30981, Note_on_c, 0, 54, 0
2, 30981, Note_on_c, 0, 63, 0
2, 30981, Note_on_c, 0, 71, 0
2, 30988, Note_on_c, 0, 59, 0
2, 30990, Note_on_c, 0, 63, 70
2, 30991, Note_on_c, 0, 71, 84
2, 30992, Note_on_c, 0, 54, 55
2, 30994, Note_on_c, 0, 59, 62
2, 31134, Note_on_c, 0, 71, 0
2, 31146, Note_on_c, 0, 71, 89
2, 31270, Control_c, 0, 64, 0
2, 31272, Note_on_c, 0, 54, 0
2, 31273, Note_on_c, 0, 63, 0
2, 31273, Note_on_c, 0, 59, 0
2, 31280, Note_on_c, 0, 47, 0
2, 31292, Note_on_c, 0, 44, 67
2, 31388, Control_c, 0, 64, 127
2, 31443, Note_on_c, 0, 78, 92
2, 31451, Note_on_c, 0, 51, 59
2, 31587, Note_on_c, 0, 56, 61
2, 31747, Note_on_c, 0, 59, 61
2, 31747, Note_on_c, 0, 63, 57
2, 31895, Note_on_c, 0, 59, 0
2, 31895, Note_on_c, 0, 71, 0
2, 31900, Note_on_c, 0, 71, 73
2, 31905, Note_on_c, 0, 59, 53
2, 32040, Note_on_c, 0, 56, 0
2, 32040, Note_on_c, 0, 71, 0
2, 32051, Note_on_c, 0, 71, 82
2, 32051, Note_on_c, 0, 56, 50
2, 32186, Note_on_c, 0, 63, 0
2, 32191, Note_on_c, 0, 63, 70
2, 32194, Note_on_c, 0, 59, 0
2, 32194, Note_on_c, 0, 71, 0
2, 32198, Note_on_c, 0, 71, 90
2, 32199, Note_on_c, 0, 59, 67
2, 32351, Note_on_c, 0, 70, 89
2, 32468, Note_on_c, 0, 51, 0
2, 32468, Note_on_c, 0, 56, 0
2, 32468, Note_on_c, 0, 63, 0
2, 32469, Note_on_c, 0, 59, 0
2, 32469, Note_on_c, 0, 44, 0
2, 32470, Note_on_c, 0, 71, 0
2, 32470, Control_c, 0, 64, 0
2, 32471, Note_on_c, 0, 78, 0
2, 32487, Note_on_c, 0, 37, 67
2, 32624, Control_c, 0, 64, 127
2, 32659, Note_on_c, 0, 44, 49
2, 32661, Note_on_c, 0, 71, 78
2, 32795, Note_on_c, 0, 52, 72
2, 32798, Note_on_c, 0, 76, 89
2, 32958, Note_on_c, 0, 64, 67
2, 32958, Note_on_c, 0, 59, 68
2, 32961, Note_on_c, 0, 56, 51
2, 33254, Note_on_c, 0, 52, 0
2, 33265, Note_on_c, 0, 75, 80
2, 33265, Note_on_c, 0, 52, 66
2, 33400, Note_on_c, 0, 64, 0
2, 33408, Note_on_c, 0, 56, 0
2, 33408, Note_on_c, 0, 64, 71
2, 33410, Note_on_c, 0, 73, 77
2, 33414, Note_on_c, 0, 56, 61
2, 33415, Note_on_c, 0, 59, 0
2, 33419, Note_on_c, 0, 59, 53
2, 33561, Note_on_c, 0, 71, 0
2, 33573, Note_on_c, 0, 71, 82
2, 33655, Note_on_c, 0, 56, 0
2, 33656, Note_on_c, 0, 75, 0
2, 33656, Note_on_c, 0, 59, 0
2, 33656, Note_on_c, 0, 76, 0
2, 33656, Note_on_c, 0, 44, 0
2, 33657, Note_on_c, 0, 73, 0
2, 33657, Note_on_c, 0, 64, 0
2, 33657, Control_c, 0, 64, 0
2, 33669, Note_on_c, 0, 37, 0
2, 33676, Note_on_c, 0, 52, 0
2, 33706, Note_on_c, 0, 40, 67
2, 33730, Note_on_c, 0, 70, 0
2, 33784, Control_c, 0, 64, 127
2, 33863, Note_on_c, 0, 47, 68
2, 33999, Note_on_c, 0, 71, 0
2, 34007, Note_on_c, 0, 52, 69
2, 34010, Note_on_c, 0, 71, 77
2, 34172, Note_on_c, 0, 70, 77
2, 34181, Note_on_c, 0, 64, 59
2, 34183, Note_on_c, 0, 59, 67
2, 34189, Note_on_c, 0, 56, 55
2, 34467, Note_on_c, 0, 52, 0
2, 34477, Note_on_c, 0, 66, 73
2, 34477, Note_on_c, 0, 52, 63
2, 34613, Note_on_c, 0, 64, 0
2, 34621, Note_on_c, 0, 56, 0
2, 34621, Note_on_c, 0, 59, 0
2, 34621, Note_on_c, 0, 70, 0
2, 34621, Note_on_c, 0, 64, 70
2, 34626, Note_on_c, 0, 59, 60
2, 34626, Note_on_c, 0, 70, 67
2, 34627, Note_on_c, 0, 56, 61
2, 34775, Note_on_c, 0, 71, 0
2, 34780, Note_on_c, 0, 71, 82
2, 34864, Note_on_c, 0, 40, 0
2, 34865, Note_on_c, 0, 56, 0
2, 34865, Note_on_c, 0, 52, 0
2, 34866, Note_on_c, 0, 47, 0
2, 34867, Note_on_c, 0, 64, 0
2, 34868, Note_on_c, 0, 66, 0
2, 34868, Note_on_c, 0, 59, 0
2, 34871, Control_c, 0, 64, 0
2, 34941, Note_on_c, 0, 44, 72
2, 35043, Control_c, 0, 64, 127
2, 35091, Note_on_c, 0, 51, 56
2, 35243, Note_on_c, 0, 70, 0
2, 35248, Note_on_c, 0, 56, 58
2, 35360, Control_c, 0, 64, 0
2, 35392, Note_on_c, 0, 63, 68
2, 35394, Note_on_c, 0, 59, 67
2, 35443, Control_c, 0, 64, 127
2, 35562, Note_on_c, 0, 61, 65
2, 35635, Note_on_c, 0, 63, 0
2, 35640, Note_on_c, 0, 63, 70
2, 35709, Note_on_c, 0, 64, 72
2, 35779, Note_on_c, 0, 66, 78
2, 35854, Note_on_c, 0, 68, 78
2, 35910, Note_on_c, 0, 70, 74
2, 35980, Note_on_c, 0, 71, 0
2, 35984, Note_on_c, 0, 71, 78
2, 36067, Note_on_c, 0, 73, 77
2, 36117, Control_c, 0, 64, 0
2, 36118, Note_on_c, 0, 64, 0
2, 36118, Note_on_c, 0, 61, 0
2, 36118, Note_on_c, 0, 71, 0
2, 36118, Note_on_c, 0, 68, 0
2, 36119, Note_on_c, 0, 70, 0
2, 36119, Note_on_c, 0, 59, 0
2, 36120, Note_on_c, 0, 66, 0
2, 36120, Note_on_c, 0, 73, 0
2, 36121, Note_on_c, 0, 63, 0
2, 36134, Note_on_c, 0, 56, 0
2, 36145, Note_on_c, 0, 56, 68
2, 36145, Note_on_c, 0, 75, 84
2, 36172, Note_on_c, 0, 44, 0
2, 36226, Control_c, 0, 64, 127
2, 36228, Note_on_c, 0, 73, 77
2, 36307, Note_on_c, 0, 71, 67
2, 36366, Note_on_c, 0, 70, 72
2, 36433, Note_on_c, 0, 71, 0
2, 36443, Note_on_c, 0, 71, 74
2, 36533, Note_on_c, 0, 73, 0
2, 36540, Note_on_c, 0, 73, 77
2, 36585, Note_on_c, 0, 70, 0
2, 36585, Note_on_c, 0, 71, 0
2, 36586, Note_on_c, 0, 73, 0
2, 36587, Control_c, 0, 64, 0
2, 36610, Note_on_c, 0, 75, 0
2, 36615, Note_on_c, 0, 75, 88
2, 36616, Note_on_c, 0, 68, 68
2, 36687, Control_c, 0, 64, 127
2, 36696, Note_on_c, 0, 73, 72
2, 36759, Note_on_c, 0, 71, 71
2, 36839, Note_on_c, 0, 70, 69
2, 36917, Note_on_c, 0, 71, 0
2, 36921, Note_on_c, 0, 71, 75
2, 36921, Note_on_c, 0, 63, 55
2, 36979, Note_on_c, 0, 73, 0
2, 36990, Note_on_c, 0, 73, 69
2, 37027, Control_c, 0, 64, 0
2, 37028, Note_on_c, 0, 70, 0
2, 37029, Note_on_c, 0, 63, 0
2, 37029, Note_on_c, 0, 71, 0
2, 37040, Note_on_c, 0, 68, 0
2, 37056, Note_on_c, 0, 75, 0
2, 37065, Note_on_c, 0, 75, 83
2, 37076, Note_on_c, 0, 68, 76
2, 37094, Note_on_c, 0, 73, 0
2, 37105, Note_on_c, 0, 73, 58
2, 37109, Control_c, 0, 64, 127
2, 37206, Note_on_c, 0, 70, 67
2, 37281, Note_on_c, 0, 71, 75
2, 37336, Note_on_c, 0, 70, 0
2, 37339, Note_on_c, 0, 75, 0
2, 37340, Note_on_c, 0, 51, 0
2, 37341, Control_c, 0, 64, 0
2, 37345, Note_on_c, 0, 71, 0
2, 37347, Note_on_c, 0, 56, 0
2, 37355, Note_on_c, 0, 68, 0
2, 37355, Note_on_c, 0, 73, 0
2, 37359, Note_on_c, 0, 73, 85
2, 37366, Note_on_c, 0, 51, 72
2, 37443, Note_on_c, 0, 71, 68
2, 37478, Control_c, 0, 64, 127
2, 37520, Note_on_c, 0, 70, 66
2, 37592, Note_on_c, 0, 68, 68
2, 37660, Note_on_c, 0, 58, 67
2, 37670, Note_on_c, 0, 70, 0
2, 37676, Note_on_c, 0, 70, 68
2, 37747, Note_on_c, 0, 71, 0
2, 37754, Note_on_c, 0, 71, 64
2, 37810, Note_on_c, 0, 68, 0
2, 37810, Note_on_c, 0, 71, 0
2, 37811, Note_on_c, 0, 70, 0
2, 37816, Note_on_c, 0, 73, 0
2, 37821, Control_c, 0, 64, 0
2, 37821, Note_on_c, 0, 73, 83
2, 37843, Note_on_c, 0, 66, 68
2, 37898, Note_on_c, 0, 71, 73
2, 37908, Control_c, 0, 64, 127
2, 37974, Note_on_c, 0, 70, 70
2, 38053, Note_on_c, 0, 68, 69
2, 38115, Note_on_c, 0, 70, 0
2, 38126, Note_on_c, 0, 70, 66
2, 38138, Note_on_c, 0, 58, 0
2, 38143, Note_on_c, 0, 58, 65
2, 38184, Note_on_c, 0, 71, 0
2, 38192, Note_on_c, 0, 71, 75
2, 38233, Note_on_c, 0, 71, 0
2, 38234, Note_on_c, 0, 68, 0
2, 38234, Note_on_c, 0, 66, 0
2, 38235, Control_c, 0, 64, 0
2, 38238, Note_on_c, 0, 51, 0
2, 38246, Note_on_c, 0, 73, 0
2, 38254, Note_on_c, 0, 70, 0
2, 38254, Note_on_c, 0, 73, 83
2, 38288, Note_on_c, 0, 66, 73
2, 38315, Control_c, 0, 64, 127
2, 38332, Note_on_c, 0, 71, 60
2, 38398, Note_on_c, 0, 68, 78
2, 38477, Note_on_c, 0, 70, 79
2, 38534, Note_on_c, 0, 68, 0
2, 38534, Control_c, 0, 64, 0
2, 38535, Note_on_c, 0, 70, 0
2, 38535, Note_on_c, 0, 66, 0
2, 38535, Note_on_c, 0, 73, 0
2, 38553, Note_on_c, 0, 58, 0
2, 38553, Note_on_c, 0, 71, 0
2, 38558, Note_on_c, 0, 71, 91
2, 38575, Note_on_c, 0, 52, 77
2, 38620, Note_on_c, 0, 71, 0
2, 38627, Note_on_c, 0, 73, 77
2, 38630, Control_c, 0, 64, 127
2, 38717, Note_on_c, 0, 71, 73
2, 38732, Note_on_c, 0, 59, 65
2, 38783, Note_on_c, 0, 70, 73
2, 38845, Note_on_c, 0, 71, 0
2, 38851, Note_on_c, 0, 71, 75
2, 38878, Note_on_c, 0, 64, 62
2, 38922, Note_on_c, 0, 73, 0
2, 38927, Note_on_c, 0, 73, 78
2, 38988, Note_on_c, 0, 75, 79
2, 39058, Note_on_c, 0, 76, 83
2, 39107, Note_on_c, 0, 73, 0
2, 39107, Note_on_c, 0, 70, 0
2, 39107, Note_on_c, 0, 71, 0
2, 39107, Note_on_c, 0, 59, 0
2, 39109, Note_on_c, 0, 64, 0
2, 39109, Control_c, 0, 64, 0
2, 39121, Note_on_c, 0, 52, 0
2, 39129, Note_on_c, 0, 75, 0
2, 39138, Note_on_c, 0, 75, 92
2, 39140, Note_on_c, 0, 76, 0
2, 39140, Note_on_c, 0, 54, 75
2, 39198, Control_c, 0, 64, 127
2, 39215, Note_on_c, 0, 76, 70
2, 39288, Note_on_c, 0, 78, 87
2, 39325, Note_on_c, 0, 61, 65
2, 39361, Note_on_c, 0, 80, 83
2, 39436, Note_on_c, 0, 54, 0
2, 39442, Note_on_c, 0, 82, 91
2, 39447, Note_on_c, 0, 54, 66
2, 39448, Note_on_c, 0, 66, 74
2, 39452, Note_on_c, 0, 66, 0
2, 39506, Note_on_c, 0, 83, 83
2, 39588, Note_on_c, 0, 85, 88
2, 39663, Note_on_c, 0, 88, 89
2, 39711, Control_c, 0, 64, 0
2, 39712, Note_on_c, 0, 82, 0
2, 39713, Note_on_c, 0, 83, 0
2, 39714, Note_on_c, 0, 85, 0
2, 39714, Note_on_c, 0, 80, 0
2, 39714, Note_on_c, 0, 76, 0
2, 39714, Note_on_c, 0, 54, 0
2, 39715, Note_on_c, 0, 75, 0
2, 39715, Note_on_c, 0, 78, 0
2, 39715, Note_on_c, 0, 61, 0
2, 39746, Note_on_c, 0, 87, 94
2, 39746, Note_on_c, 0, 59, 79
2, 39851, Control_c, 0, 64, 127
2, 39893, Note_on_c, 0, 66, 68
2, 40036, Note_on_c, 0, 71, 73
2, 40180, Note_on_c, 0, 75, 76
2, 40335, Note_on_c, 0, 87, 0
2, 40346, Note_on_c, 0, 87, 77
2, 40412, Note_on_c, 0, 88, 0
2, 40422, Note_on_c, 0, 88, 70
2, 40473, Note_on_c, 0, 71, 0
2, 40481, Note_on_c, 0, 90, 86
2, 40484, Note_on_c, 0, 71, 73
2, 40550, Note_on_c, 0, 88, 0
2, 40554, Note_on_c, 0, 88, 82
2, 40619, Note_on_c, 0, 66, 0
2, 40627, Note_on_c, 0, 87, 0
2, 40629, Note_on_c, 0, 66, 73
2, 40637, Note_on_c, 0, 87, 80
2, 40709, Note_on_c, 0, 85, 80
2, 40781, Note_on_c, 0, 83, 83
2, 40859, Note_on_c, 0, 82, 78
2, 40891, Note_on_c, 0, 88, 0
2, 40892, Note_on_c, 0, 59, 0
2, 40892, Note_on_c, 0, 85, 0
2, 40893, Note_on_c, 0, 66, 0
2, 40894, Note_on_c, 0, 75, 0
2, 40895, Control_c, 0, 64, 0
2, 40899, Note_on_c, 0, 82, 0
2, 40911, Note_on_c, 0, 83, 0
2, 40911, Note_on_c, 0, 90, 0
2, 40919, Note_on_c, 0, 71, 0
2, 40919, Note_on_c, 0, 87, 0
2, 40921, Note_on_c, 0, 83, 90
2, 40923, Note_on_c, 0, 56, 77
2, 40980, Control_c, 0, 64, 127
2, 41001, Note_on_c, 0, 85, 89
2, 41080, Note_on_c, 0, 83, 0
2, 41087, Note_on_c, 0, 63, 68
2, 41088, Note_on_c, 0, 83, 89
2, 41158, Note_on_c, 0, 82, 80
2, 41233, Note_on_c, 0, 83, 0
2, 41239, Note_on_c, 0, 83, 78
2, 41245, Note_on_c, 0, 68, 78
2, 41300, Note_on_c, 0, 90, 87
2, 41372, Note_on_c, 0, 95, 90
2, 41375, Note_on_c, 0, 71, 80
2, 41435, Note_on_c, 0, 94, 95
2, 41502, Note_on_c, 0, 95, 0
2, 41508, Note_on_c, 0, 95, 85
2, 41571, Note_on_c, 0, 94, 0
2, 41575, Note_on_c, 0, 94, 94
2, 41656, Note_on_c, 0, 90, 0
2, 41667, Note_on_c, 0, 90, 84
2, 41671, Note_on_c, 0, 71, 0
2, 41678, Note_on_c, 0, 71, 60
2, 41679, Note_on_c, 0, 68, 0
2, 41683, Note_on_c, 0, 68, 70
2, 41745, Note_on_c, 0, 88, 84
2, 41825, Note_on_c, 0, 63, 0
2, 41834, Note_on_c, 0, 63, 65
2, 41836, Note_on_c, 0, 87, 80
2, 41902, Note_on_c, 0, 85, 0
2, 41906, Note_on_c, 0, 85, 77
2, 41955, Note_on_c, 0, 83, 0
2, 41965, Note_on_c, 0, 83, 84
2, 42040, Note_on_c, 0, 82, 0
2, 42045, Note_on_c, 0, 82, 85
2, 42086, Note_on_c, 0, 90, 0
2, 42087, Note_on_c, 0, 85, 0
2, 42088, Note_on_c, 0, 94, 0
2, 42088, Note_on_c, 0, 88, 0
2, 42088, Note_on_c, 0, 95, 0
2, 42088, Note_on_c, 0, 71, 0
2, 42088, Note_on_c, 0, 87, 0
2, 42088, Note_on_c, 0, 68, 0
2, 42089, Control_c, 0, 64, 0
2, 42089, Note_on_c, 0, 63, 0
2, 42089, Note_on_c, 0, 82, 0
2, 42101, Note_on_c, 0, 56, 0
2, 42109, Note_on_c, 0, 83, 0
2, 42116, Note_on_c, 0, 83, 90
2, 42120, Note_on_c, 0, 49, 72
2, 42170, Control_c, 0, 64, 127
2, 42189, Note_on_c, 0, 85, 88
2, 42272, Note_on_c, 0, 56, 62
2, 42323, Note_on_c, 0, 82, 83
2, 42401, Note_on_c, 0, 83, 0
2, 42409, Note_on_c, 0, 59, 71
2, 42411, Note_on_c, 0, 83, 80
2, 42486, Note_on_c, 0, 90, 86
2, 42527, Note_on_c, 0, 64, 68
2, 42549, Note_on_c, 0, 95, 87
2, 42614, Note_on_c, 0, 94, 92
2, 42693, Note_on_c, 0, 95, 0
2, 42697, Note_on_c, 0, 95, 82
2, 42746, Note_on_c, 0, 94, 0
2, 42754, Note_on_c, 0, 94, 90
2, 42839, Note_on_c, 0, 90, 0
2, 42846, Note_on_c, 0, 59, 0
2, 42849, Note_on_c, 0, 90, 81
2, 42850, Note_on_c, 0, 59, 61
2, 42920, Note_on_c, 0, 88, 76
2, 42992, Note_on_c, 0, 56, 0
2, 42992, Note_on_c, 0, 59, 0
2, 42997, Note_on_c, 0, 56, 63
2, 42998, Note_on_c, 0, 87, 81
2, 43001, Note_on_c, 0, 59, 62
2, 43077, Note_on_c, 0, 85, 0
2, 43082, Note_on_c, 0, 85, 72
2, 43130, Note_on_c, 0, 83, 0
2, 43139, Note_on_c, 0, 83, 84
2, 43207, Note_on_c, 0, 82, 0
2, 43218, Note_on_c, 0, 82, 85
2, 43249, Note_on_c, 0, 85, 0
2, 43249, Note_on_c, 0, 83, 0
2, 43250, Note_on_c, 0, 95, 0
2, 43250, Note_on_c, 0, 90, 0
2, 43250, Control_c, 0, 64, 0
2, 43250, Note_on_c, 0, 94, 0
2, 43250, Note_on_c, 0, 56, 0
2, 43251, Note_on_c, 0, 87, 0
2, 43251, Note_on_c, 0, 64, 0
2, 43251, Note_on_c, 0, 82, 0
2, 43253, Note_on_c, 0, 49, 0
2, 43269, Note_on_c, 0, 59, 0
2, 43269, Note_on_c, 0, 88, 0
2, 43295, Note_on_c, 0, 83, 93
2, 43296, Note_on_c, 0, 52, 82
2, 43345, Control_c, 0, 64, 127
2, 43353, Note_on_c, 0, 90, 81
2, 43434, Note_on_c, 0, 88, 83
2, 43443, Note_on_c, 0, 59, 70
2, 43517, Note_on_c, 0, 87, 77
2, 43582, Note_on_c, 0, 85, 79
2, 43595, Note_on_c, 0, 68, 72
2, 43637, Note_on_c, 0, 83, 0
2, 43642, Note_on_c, 0, 83, 78
2, 43723, Note_on_c, 0, 82, 80
2, 43798, Note_on_c, 0, 80, 78
2, 43840, Note_on_c, 0, 88, 0
2, 43841, Note_on_c, 0, 85, 0
2, 43842, Note_on_c, 0, 68, 0
2, 43842, Note_on_c, 0, 82, 0
2, 43842, Note_on_c, 0, 59, 0
2, 43842, Control_c, 0, 64, 0
2, 43842, Note_on_c, 0, 87, 0
2, 43842, Note_on_c, 0, 83, 0
2, 43844, Note_on_c, 0, 90, 0
2, 43845, Note_on_c, 0, 52, 0
2, 43856, Note_on_c, 0, 80, 0
2, 43870, Note_on_c, 0, 78, 80
2, 43881, Note_on_c, 0, 54, 68
2, 43928, Note_on_c, 0, 88, 79
2, 43960, Control_c, 0, 64, 127
2, 44011, Note_on_c, 0, 87, 71
2, 44055, Note_on_c, 0, 61, 58
2, 44094, Note_on_c, 0, 85, 79
2, 44097, Note_on_c, 0, 73, 58
2, 44158, Note_on_c, 0, 83, 85
2, 44181, Note_on_c, 0, 70, 68
2, 44244, Note_on_c, 0, 82, 70
2, 44294, Note_on_c, 0, 80, 72
2, 44367, Note_on_c, 0, 82, 0
2, 44372, Note_on_c, 0, 82, 76
2, 44432, Note_on_c, 0, 61, 0
2, 44432, Note_on_c, 0, 85, 0
2, 44432, Control_c, 0, 64, 0
2, 44432, Note_on_c, 0, 87, 0
2, 44432, Note_on_c, 0, 80, 0
2, 44432, Note_on_c, 0, 78, 0
2, 44433, Note_on_c, 0, 88, 0
2, 44433, Note_on_c, 0, 54, 0
2, 44434, Note_on_c, 0, 70, 0
2, 44435, Note_on_c, 0, 82, 0
2, 44451, Note_on_c, 0, 73, 0
2, 44451, Note_on_c, 0, 83, 0
2, 44461, Note_on_c, 0, 83, 81
2, 44465, Note_on_c, 0, 47, 73
2, 44628, Control_c, 0, 64, 127
2, 44632, Note_on_c, 0, 59, 58
2, 44775, Note_on_c, 0, 66, 62
2, 44932, Note_on_c, 0, 71, 59
2, 44943, Note_on_c, 0, 47, 0
2, 45080, Note_on_c, 0, 85, 84
2, 45235, Note_on_c, 0, 66, 0
2, 45240, Note_on_c, 0, 66, 61
2, 45365, Note_on_c, 0, 59, 0
2, 45371, Note_on_c, 0, 59, 62
2, 45373, Note_on_c, 0, 83, 0
2, 45377, Note_on_c, 0, 83, 81
2, 45531, Note_on_c, 0, 81, 81
2, 45615, Control_c, 0, 64, 0
2, 45616, Note_on_c, 0, 71, 0
2, 45617, Note_on_c, 0, 83, 0
2, 45618, Note_on_c, 0, 66, 0
2, 45618, Note_on_c, 0, 59, 0
2, 45670, Note_on_c, 0, 54, 49
2, 45693, Note_on_c, 0, 76, 59
2, 45726, Control_c, 0, 64, 127
2, 45826, Note_on_c, 0, 81, 0
2, 45831, Note_on_c, 0, 88, 72
2, 45835, Note_on_c, 0, 81, 66
2, 45836, Note_on_c, 0, 69, 59
2, 45837, Note_on_c, 0, 64, 52
2, 45972, Note_on_c, 0, 88, 0
2, 45975, Note_on_c, 0, 54, 0
2, 45983, Note_on_c, 0, 88, 84
2, 45987, Note_on_c, 0, 76, 0
2, 45995, Note_on_c, 0, 76, 62
2, 46126, Note_on_c, 0, 69, 0
2, 46132, Note_on_c, 0, 69, 64
2, 46156, Note_on_c, 0, 64, 0
2, 46160, Note_on_c, 0, 64, 44
2, 46255, Note_on_c, 0, 69, 0
2, 46256, Note_on_c, 0, 64, 0
2, 46259, Control_c, 0, 64, 0
2, 46264, Note_on_c, 0, 85, 0
2, 46287, Note_on_c, 0, 76, 0
2, 46291, Note_on_c, 0, 59, 58
2, 46296, Note_on_c, 0, 76, 65
2, 46364, Control_c, 0, 64, 127
2, 46436, Note_on_c, 0, 71, 59
2, 46438, Note_on_c, 0, 64, 54
2, 46579, Note_on_c, 0, 88, 0
2, 46586, Note_on_c, 0, 76, 0
2, 46588, Note_on_c, 0, 88, 80
2, 46594, Note_on_c, 0, 76, 66
2, 46725, Note_on_c, 0, 81, 0
2, 46732, Note_on_c, 0, 71, 0
2, 46738, Note_on_c, 0, 83, 82
2, 46740, Note_on_c, 0, 64, 0
2, 46744, Note_on_c, 0, 71, 62
2, 46744, Note_on_c, 0, 64, 61
2, 46894, Note_on_c, 0, 76, 0
2, 46898, Note_on_c, 0, 52, 64
2, 46899, Note_on_c, 0, 76, 69
2, 47032, Note_on_c, 0, 64, 0
2, 47032, Note_on_c, 0, 71, 0
2, 47032, Note_on_c, 0, 83, 0
2, 47037, Note_on_c, 0, 83, 81
2, 47042, Note_on_c, 0, 71, 69
2, 47043, Note_on_c, 0, 64, 61
2, 47185, Note_on_c, 0, 76, 0
2, 47192, Note_on_c, 0, 76, 70
2, 47329, Note_on_c, 0, 85, 84
2, 47339, Note_on_c, 0, 76, 0
2, 47347, Note_on_c, 0, 64, 0
2, 47347, Note_on_c, 0, 71, 0
2, 47348, Note_on_c, 0, 76, 57
2, 47354, Note_on_c, 0, 71, 57
2, 47356, Note_on_c, 0, 64, 53
2, 47444, Note_on_c, 0, 71, 0
2, 47445, Note_on_c, 0, 59, 0
2, 47445, Note_on_c, 0, 64, 0
2, 47445, Note_on_c, 0, 85, 0
2, 47445, Control_c, 0, 64, 0
2, 47445, Note_on_c, 0, 88, 0
2, 47462, Note_on_c, 0, 52, 0
2, 47477, Note_on_c, 0, 83, 0
2, 47485, Note_on_c, 0, 76, 0
2, 47487, Note_on_c, 0, 83, 81
2, 47490, Note_on_c, 0, 57, 69
2, 47491, Note_on_c, 0, 69, 66
2, 47496, Note_on_c, 0, 76, 72
2, 47523, Control_c, 0, 64, 127
2, 47623, Note_on_c, 0, 69, 0
2, 47633, Note_on_c, 0, 69, 65
2, 47665, Note_on_c, 0, 64, 50
2, 47785, Note_on_c, 0, 81, 79
2, 47785, Note_on_c, 0, 56, 56
2, 47792, Note_on_c, 0, 76, 0
2, 47801, Note_on_c, 0, 76, 61
2, 47930, Note_on_c, 0, 81, 0
2, 47938, Note_on_c, 0, 69, 0
2, 47941, Note_on_c, 0, 81, 80
2, 47942, Note_on_c, 0, 69, 65
2, 47961, Note_on_c, 0, 64, 0
2, 47967, Note_on_c, 0, 64, 50
2, 48051, Note_on_c, 0, 64, 0
2, 48051, Note_on_c, 0, 56, 0
2, 48051, Note_on_c, 0, 69, 0
2, 48051, Note_on_c, 0, 76, 0
2, 48052, Note_on_c, 0, 57, 0
2, 48057, Control_c, 0, 64, 0
2, 48069, Note_on_c, 0, 83, 0
2, 48096, Note_on_c, 0, 54, 62
2, 48101, Note_on_c, 0, 76, 67
2, 48145, Control_c, 0, 64, 127
2, 48238, Note_on_c, 0, 88, 80
2, 48242, Note_on_c, 0, 69, 61
2, 48248, Note_on_c, 0, 64, 55
2, 48399, Note_on_c, 0, 88, 0
2, 48404, Note_on_c, 0, 88, 86
2, 48407, Note_on_c, 0, 76, 0
2, 48411, Note_on_c, 0, 76, 67
2, 48545, Note_on_c, 0, 69, 0
2, 48552, Note_on_c, 0, 64, 0
2, 48554, Note_on_c, 0, 69, 65
2, 48559, Note_on_c, 0, 64, 57
2, 48664, Note_on_c, 0, 69, 0
2, 48664, Control_c, 0, 64, 0
2, 48664, Note_on_c, 0, 64, 0
2, 48668, Note_on_c, 0, 54, 0
2, 48683, Note_on_c, 0, 81, 0
2, 48704, Note_on_c, 0, 59, 62
2, 48706, Note_on_c, 0, 76, 0
2, 48714, Note_on_c, 0, 76, 72
2, 48752, Control_c, 0, 64, 127
2, 48859, Note_on_c, 0, 71, 62
2, 48862, Note_on_c, 0, 64, 60
2, 48990, Note_on_c, 0, 88, 0
2, 49001, Note_on_c, 0, 88, 80
2, 49006, Note_on_c, 0, 76, 0
2, 49014, Note_on_c, 0, 76, 70
2, 49155, Note_on_c, 0, 83, 85
2, 49159, Note_on_c, 0, 64, 0
2, 49159, Note_on_c, 0, 71, 0
2, 49164, Note_on_c, 0, 71, 65
2, 49165, Note_on_c, 0, 64, 63
2, 49182, Note_on_c, 0, 59, 0
2, 49193, Note_on_c, 0, 59, 42
2, 49305, Note_on_c, 0, 76, 0
2, 49316, Note_on_c, 0, 52, 70
2, 49316, Note_on_c, 0, 76, 66
2, 49451, Note_on_c, 0, 83, 0
2, 49459, Note_on_c, 0, 64, 0
2, 49459, Note_on_c, 0, 71, 0
2, 49460, Note_on_c, 0, 83, 85
2, 49464, Note_on_c, 0, 64, 69
2, 49464, Note_on_c, 0, 71, 69
2, 49605, Note_on_c, 0, 76, 0
2, 49609, Note_on_c, 0, 76, 68
2, 49751, Note_on_c, 0, 71, 0
2, 49761, Note_on_c, 0, 85, 80
2, 49762, Note_on_c, 0, 71, 63
2, 49789, Note_on_c, 0, 64, 0
2, 49795, Note_on_c, 0, 64, 46
2, 49862, Note_on_c, 0, 85, 0
2, 49862, Note_on_c, 0, 88, 0
2, 49862, Note_on_c, 0, 76, 0
2, 49862, Note_on_c, 0, 83, 0
2, 49862, Note_on_c, 0, 59, 0
2, 49863, Note_on_c, 0, 64, 0
2, 49864, Control_c, 0, 64, 0
2, 49881, Note_on_c, 0, 52, 0
2, 49881, Note_on_c, 0, 71, 0
2, 49911, Note_on_c, 0, 83, 84
2, 49915, Note_on_c, 0, 57, 69
2, 49923, Note_on_c, 0, 76, 67
2, 49935, Control_c, 0, 64, 127
2, 50061, Note_on_c, 0, 69, 69
2, 50068, Note_on_c, 0, 64, 59
2, 50196, Note_on_c, 0, 76, 0
2, 50206, Note_on_c, 0, 81, 84
2, 50207, Note_on_c, 0, 76, 73
2, 50208, Note_on_c, 0, 56, 65
2, 50350, Note_on_c, 0, 81, 0
2, 50357, Note_on_c, 0, 64, 0
2, 50357, Note_on_c, 0, 69, 0
2, 50360, Note_on_c, 0, 81, 87
2, 50363, Note_on_c, 0, 69, 67
2, 50368, Note_on_c, 0, 64, 56
2, 50468, Note_on_c, 0, 56, 0
2, 50469, Note_on_c, 0, 69, 0
2, 50470, Note_on_c, 0, 64, 0
2, 50470, Note_on_c, 0, 57, 0
2, 50471, Control_c, 0, 64, 0
2, 50480, Note_on_c, 0, 76, 0
2, 50496, Note_on_c, 0, 83, 0
2, 50521, Note_on_c, 0, 54, 61
2, 50523, Note_on_c, 0, 76, 72
2, 50557, Control_c, 0, 64, 127
2, 50670, Note_on_c, 0, 69, 66
2, 50670, Note_on_c, 0, 64, 55
2, 50674, Note_on_c, 0, 88, 76
2, 50818, Note_on_c, 0, 76, 0
2, 50818, Note_on_c, 0, 88, 0
2, 50824, Note_on_c, 0, 88, 88
2, 50829, Note_on_c, 0, 76, 72
2, 50964, Note_on_c, 0, 69, 0
2, 50971, Note_on_c, 0, 69, 62
2, 50972, Note_on_c, 0, 64, 0
2, 50976, Note_on_c, 0, 64, 59
2, 51077, Note_on_c, 0, 54, 0
2, 51077, Note_on_c, 0, 69, 0
2, 51078, Control_c, 0, 64, 0
2, 51079, Note_on_c, 0, 64, 0
2, 51102, Note_on_c, 0, 81, 0
2, 51118, Note_on_c, 0, 76, 0
2, 51122, Note_on_c, 0, 59, 70
2, 51125, Note_on_c, 0, 76, 77
2, 51171, Control_c, 0, 64, 127
2, 51275, Note_on_c, 0, 71, 72
2, 51278, Note_on_c, 0, 64, 64
2, 51417, Note_on_c, 0, 88, 0
2, 51425, Note_on_c, 0, 76, 0
2, 51425, Note_on_c, 0, 88, 79
2, 51430, Note_on_c, 0, 76, 72
2, 51575, Note_on_c, 0, 83, 83
2, 51578, Note_on_c, 0, 59, 0
2, 51578, Note_on_c, 0, 71, 0
2, 51585, Note_on_c, 0, 71, 62
2, 51586, Note_on_c, 0, 64, 0
2, 51590, Note_on_c, 0, 59, 48
2, 51591, Note_on_c, 0, 64, 61
2, 51724, Note_on_c, 0, 76, 0
2, 51733, Note_on_c, 0, 76, 69
2, 51734, Note_on_c, 0, 52, 68
2, 51870, Note_on_c, 0, 64, 0
2, 51870, Note_on_c, 0, 83, 0
2, 51878, Note_on_c, 0, 52, 0
2, 51878, Note_on_c, 0, 71, 0
2, 51878, Note_on_c, 0, 83, 84
2, 51880, Note_on_c, 0, 64, 65
2, 51882, Note_on_c, 0, 71, 70
2, 51884, Note_on_c, 0, 52, 62
2, 52016, Note_on_c, 0, 76, 0
2, 52025, Note_on_c, 0, 76, 74
2, 52154, Note_on_c, 0, 71, 0
2, 52160, Note_on_c, 0, 71, 67
2, 52170, Note_on_c, 0, 52, 0
2, 52170, Note_on_c, 0, 64, 0
2, 52172, Note_on_c, 0, 85, 85
2, 52175, Note_on_c, 0, 64, 62
2, 52178, Note_on_c, 0, 52, 63
2, 52275, Note_on_c, 0, 52, 0
2, 52275, Note_on_c, 0, 71, 0
2, 52275, Note_on_c, 0, 64, 0
2, 52275, Control_c, 0, 64, 0
2, 52276, Note_on_c, 0, 83, 0
2, 52276, Note_on_c, 0, 85, 0
2, 52276, Note_on_c, 0, 76, 0
2, 52276, Note_on_c, 0, 59, 0
2, 52277, Note_on_c, 0, 88, 0
2, 52322, Note_on_c, 0, 81, 84
2, 52322, Note_on_c, 0, 57, 63
2, 52329, Note_on_c, 0, 69, 66
2, 52333, Note_on_c, 0, 76, 73
2, 52362, Control_c, 0, 64, 127
2, 52392, Note_on_c, 0, 69, 0
2, 52466, Note_on_c, 0, 69, 69
2, 52467, Note_on_c, 0, 64, 62
2, 52615, Note_on_c, 0, 76, 0
2, 52615, Note_on_c, 0, 81, 0
2, 52624, Note_on_c, 0, 88, 91
2, 52626, Note_on_c, 0, 81, 70
2, 52627, Note_on_c, 0, 76, 78
2, 52761, Note_on_c, 0, 64, 0
2, 52761, Note_on_c, 0, 69, 0
2, 52766, Note_on_c, 0, 69, 61
2, 52766, Note_on_c, 0, 64, 61
2, 52930, Control_c, 0, 64, 0
2, 52935, Note_on_c, 0, 81, 0
2, 52935, Note_on_c, 0, 69, 0
2, 52936, Note_on_c, 0, 64, 0
2, 52938, Note_on_c, 0, 76, 0
2, 52940, Note_on_c, 0, 57, 0
2, 52942, Note_on_c, 0, 86, 86
2, 52942, Note_on_c, 0, 88, 0
2, 52951, Note_on_c, 0, 74, 74
2, 52953, Note_on_c, 0, 78, 75
2, 52957, Note_on_c, 0, 47, 62
2, 52957, Note_on_c, 0, 59, 62
2, 52961, Note_on_c, 0, 59, 0
2, 53022, Control_c, 0, 64, 127
2, 53095, Note_on_c, 0, 54, 55
2, 53247, Note_on_c, 0, 85, 91
2, 53252, Note_on_c, 0, 73, 78
2, 53268, Note_on_c, 0, 54, 0
2, 53273, Note_on_c, 0, 54, 47
2, 53391, Note_on_c, 0, 54, 0
2, 53395, Note_on_c, 0, 54, 59
2, 53537, Control_c, 0, 64, 0
2, 53540, Note_on_c, 0, 47, 0
2, 53541, Note_on_c, 0, 86, 0
2, 53541, Note_on_c, 0, 73, 0
2, 53541, Note_on_c, 0, 85, 0
2, 53541, Note_on_c, 0, 74, 0
2, 53542, Note_on_c, 0, 54, 0
2, 53542, Note_on_c, 0, 78, 0
2, 53554, Note_on_c, 0, 83, 92
2, 53563, Note_on_c, 0, 76, 83
2, 53564, Note_on_c, 0, 71, 76
2, 53564, Note_on_c, 0, 49, 67
2, 53606, Control_c, 0, 64, 127
2, 53711, Note_on_c, 0, 57, 71
2, 53856, Note_on_c, 0, 81, 93
2, 53862, Note_on_c, 0, 69, 82
2, 53998, Note_on_c, 0, 57, 0
2, 54002, Note_on_c, 0, 57, 77
2, 54134, Note_on_c, 0, 71, 0
2, 54135, Note_on_c, 0, 69, 0
2, 54135, Note_on_c, 0, 83, 0
2, 54135, Note_on_c, 0, 49, 0
2, 54136, Control_c, 0, 64, 0
2, 54137, Note_on_c, 0, 57, 0
2, 54138, Note_on_c, 0, 76, 0
2, 54151, Note_on_c, 0, 81, 0
2, 54159, Note_on_c, 0, 88, 89
2, 54162, Note_on_c, 0, 81, 89
2, 54162, Note_on_c, 0, 76, 83
2, 54166, Note_on_c, 0, 50, 71
2, 54169, Note_on_c, 0, 62, 71
2, 54170, Note_on_c, 0, 78, 85
2, 54220, Control_c, 0, 64, 127
2, 54297, Note_on_c, 0, 50, 0
2, 54312, Note_on_c, 0, 57, 72
2, 54463, Note_on_c, 0, 86, 90
2, 54469, Note_on_c, 0, 74, 83
2, 54597, Note_on_c, 0, 57, 0
2, 54606, Note_on_c, 0, 57, 67
2, 54745, Note_on_c, 0, 86, 0
2, 54746, Note_on_c, 0, 88, 0
2, 54746, Note_on_c, 0, 57, 0
2, 54746, Note_on_c, 0, 76, 0
2, 54746, Note_on_c, 0, 74, 0
2, 54746, Note_on_c, 0, 81, 0
2, 54746, Note_on_c, 0, 78, 0
2, 54746, Control_c, 0, 64, 0
2, 54758, Note_on_c, 0, 62, 0
2, 54771, Note_on_c, 0, 85, 93
2, 54777, Note_on_c, 0, 73, 83
2, 54777, Note_on_c, 0, 76, 82
2, 54779, Note_on_c, 0, 64, 76
2, 54781, Note_on_c, 0, 52, 80
2, 54835, Control_c, 0, 64, 127
2, 54915, Note_on_c, 0, 59, 65
2, 55056, Note_on_c, 0, 83, 93
2, 55057, Note_on_c, 0, 59, 0
2, 55062, Note_on_c, 0, 71, 81
2, 55068, Note_on_c, 0, 59, 64
2, 55211, Note_on_c, 0, 59, 0
2, 55215, Note_on_c, 0, 59, 71
2, 55339, Control_c, 0, 64, 0
2, 55339, Note_on_c, 0, 76, 0
2, 55340, Note_on_c, 0, 71, 0
2, 55340, Note_on_c, 0, 73, 0
2, 55340, Note_on_c, 0, 59, 0
2, 55341, Note_on_c, 0, 83, 0
2, 55341, Note_on_c, 0, 85, 0
2, 55342, Note_on_c, 0, 64, 0
2, 55349, Note_on_c, 0, 52, 0
2, 55370, Note_on_c, 0, 81, 91
2, 55376, Note_on_c, 0, 54, 61
2, 55379, Note_on_c, 0, 76, 74
2, 55384, Note_on_c, 0, 69, 66
2, 55434, Control_c, 0, 64, 127
2, 55533, Note_on_c, 0, 61, 54
2, 55688, Note_on_c, 0, 66, 66
2, 55834, Note_on_c, 0, 73, 63
2, 55971, Note_on_c, 0, 81, 0
2, 55981, Note_on_c, 0, 102, 81
2, 55982, Note_on_c, 0, 81, 57
2, 55982, Note_on_c, 0, 90, 71
2, 56275, Note_on_c, 0, 95, 73
2, 56277, Note_on_c, 0, 83, 75
2, 56580, Note_on_c, 0, 97, 79
2, 56582, Note_on_c, 0, 85, 78
2, 56878, Note_on_c, 0, 90, 0
2, 56883, Note_on_c, 0, 90, 70
2, 56886, Note_on_c, 0, 78, 67
2, 57185, Note_on_c, 0, 73, 0
2, 57190, Note_on_c, 0, 73, 73
2, 57348, Note_on_c, 0, 92, 76
2, 57350, Note_on_c, 0, 80, 69
2, 57492, Note_on_c, 0, 66, 0
2, 57492, Note_on_c, 0, 81, 0
2, 57497, Note_on_c, 0, 93, 83
2, 57498, Note_on_c, 0, 66, 68
2, 57499, Note_on_c, 0, 81, 81
2, 57638, Note_on_c, 0, 83, 0
2, 57638, Note_on_c, 0, 95, 0
2, 57642, Note_on_c, 0, 95, 76
2, 57649, Note_on_c, 0, 83, 66
2, 57785, Note_on_c, 0, 92, 0
2, 57785, Note_on_c, 0, 93, 0
2, 57786, Note_on_c, 0, 102, 0
2, 57786, Note_on_c, 0, 95, 0
2, 57786, Note_on_c, 0, 69, 0
2, 57786, Note_on_c, 0, 80, 0
2, 57786, Note_on_c, 0, 83, 0
2, 57787, Note_on_c, 0, 73, 0
2, 57787, Note_on_c, 0, 81, 0
2, 57787, Note_on_c, 0, 61, 0
2, 57787, Note_on_c, 0, 76, 0
2, 57787, Note_on_c, 0, 66, 0
2, 57787, Note_on_c, 0, 78, 0
2, 57787, Note_on_c, 0, 54, 0
2, 57788, Control_c, 0, 64, 0
2, 57799, Note_on_c, 0, 85, 0
2, 57799, Note_on_c, 0, 97, 0
2, 57804, Note_on_c, 0, 97, 76
2, 57807, Note_on_c, 0, 90, 0
2, 57807, Note_on_c, 0, 42, 62
2, 57810, Note_on_c, 0, 94, 74
2, 57810, Note_on_c, 0, 85, 79
2, 57811, Note_on_c, 0, 90, 70
2, 57891, Control_c, 0, 64, 127
2, 57963, Note_on_c, 0, 49, 57
2, 58116, Note_on_c, 0, 54, 65
2, 58257, Note_on_c, 0, 61, 73
2, 58407, Note_on_c, 0, 66, 91
2, 58552, Note_on_c, 0, 61, 0
2, 58558, Note_on_c, 0, 61, 86
2, 58682, Note_on_c, 0, 66, 0
2, 58691, Note_on_c, 0, 66, 99
2, 58843, Note_on_c, 0, 73, 90
2, 58963, Note_on_c, 0, 94, 0
2, 58964, Note_on_c, 0, 97, 0
2, 58964, Note_on_c, 0, 49, 0
2, 58964, Note_on_c, 0, 54, 0
2, 58964, Note_on_c, 0, 61, 0
2, 58964, Note_on_c, 0, 73, 0
2, 58964, Note_on_c, 0, 85, 0
2, 58965, Note_on_c, 0, 42, 0
2, 58965, Note_on_c, 0, 66, 0
2, 58969, Control_c, 0, 64, 0
2, 58990, Note_on_c, 0, 90, 0
2, 58996, Note_on_c, 0, 92, 100
2, 59003, Note_on_c, 0, 80, 90
2, 59006, Note_on_c, 0, 39, 93
2, 59008, Note_on_c, 0, 51, 96
2, 59043, Control_c, 0, 64, 127
2, 59069, Note_on_c, 0, 87, 85
2, 59141, Note_on_c, 0, 85, 85
2, 59197, Note_on_c, 0, 80, 0
2, 59207, Note_on_c, 0, 80, 92
2, 59293, Note_on_c, 0, 75, 101
2, 59373, Note_on_c, 0, 73, 88
2, 59416, Note_on_c, 0, 68, 84
2, 59481, Note_on_c, 0, 73, 0
2, 59488, Note_on_c, 0, 73, 96
2, 59587, Control_c, 0, 64, 0
2, 59589, Note_on_c, 0, 39, 0
2, 59594, Note_on_c, 0, 79, 102
2, 59596, Note_on_c, 0, 75, 0
2, 59597, Note_on_c, 0, 39, 96
2, 59598, Note_on_c, 0, 27, 96
2, 59600, Note_on_c, 0, 67, 99
2, 59600, Note_on_c, 0, 75, 96
2, 59604, Note_on_c, 0, 70, 96
2, 59619, Control_c, 0, 64, 127
2, 59742, Note_on_c, 0, 92, 0
2, 59764, Note_on_c, 0, 79, 0
2, 59764, Note_on_c, 0, 67, 0
2, 59765, Note_on_c, 0, 73, 0
2, 59767, Note_on_c, 0, 75, 0
2, 59767, Note_on_c, 0, 39, 0
2, 59769, Control_c, 0, 64, 0
2, 59781, Note_on_c, 0, 27, 0
2, 59781, Note_on_c, 0, 51, 0
2, 59781, Note_on_c, 0, 68, 0
2, 59788, Note_on_c, 0, 70, 0
2, 59796, Note_on_c, 0, 85, 0
2, 59804, Note_on_c, 0, 87, 0
2, 59827, Note_on_c, 0, 80, 0
2, 59892, Note_on_c, 0, 75, 105
2, 60045, Note_on_c, 0, 78, 102
2, 60193, Note_on_c, 0, 44, 95
2, 60195, Note_on_c, 0, 75, 0
2, 60195, Note_on_c, 0, 78, 0
2, 60198, Note_on_c, 0, 32, 90
2, 60199, Note_on_c, 0, 66, 102
2, 60199, Note_on_c, 0, 78, 102
2, 60200, Note_on_c, 0, 75, 94
2, 60203, Note_on_c, 0, 71, 88
2, 60257, Control_c, 0, 64, 127
2, 60494, Note_on_c, 0, 51, 82
2, 60495, Note_on_c, 0, 75, 0
2, 60499, Note_on_c, 0, 83, 96
2, 60505, Note_on_c, 0, 75, 96
2, 60661, Note_on_c, 0, 82, 101
2, 60662, Note_on_c, 0, 73, 95
2, 60664, Note_on_c, 0, 59, 86
2, 60666, Note_on_c, 0, 56, 76
2, 60956, Note_on_c, 0, 59, 0
2, 60956, Note_on_c, 0, 71, 0
2, 60958, Note_on_c, 0, 80, 99
2, 60961, Note_on_c, 0, 71, 89
2, 60963, Note_on_c, 0, 59, 81
2, 60963, Note_on_c, 0, 51, 0
2, 60968, Note_on_c, 0, 51, 86
2, 61109, Note_on_c, 0, 56, 0
2, 61109, Note_on_c, 0, 59, 0
2, 61110, Note_on_c, 0, 63, 89
2, 61114, Note_on_c, 0, 56, 66
2, 61114, Note_on_c, 0, 59, 79
2, 61255, Note_on_c, 0, 75, 0
2, 61263, Note_on_c, 0, 59, 0
2, 61263, Note_on_c, 0, 71, 0
2, 61263, Note_on_c, 0, 75, 103
2, 61267, Note_on_c, 0, 68, 90
2, 61267, Note_on_c, 0, 59, 80
2, 61267, Note_on_c, 0, 71, 85
2, 61336, Control_c, 0, 64, 0
2, 61337, Note_on_c, 0, 82, 0
2, 61337, Note_on_c, 0, 63, 0
2, 61338, Note_on_c, 0, 66, 0
2, 61338, Note_on_c, 0, 73, 0
2, 61338, Note_on_c, 0, 83, 0
2, 61338, Note_on_c, 0, 56, 0
2, 61339, Note_on_c, 0, 32, 0
2, 61347, Note_on_c, 0, 44, 0
2, 61355, Note_on_c, 0, 51, 0
2, 61355, Note_on_c, 0, 78, 0
2, 61405, Note_on_c, 0, 40, 94
2, 61407, Note_on_c, 0, 28, 89
2, 61409, Note_on_c, 0, 59, 0
2, 61416, Control_c, 0, 64, 127
2, 61562, Note_on_c, 0, 40, 0
2, 61570, Note_on_c, 0, 40, 73
2, 61570, Note_on_c, 0, 68, 0
2, 61579, Note_on_c, 0, 68, 75
2, 61604, Note_on_c, 0, 63, 64
2, 61693, Note_on_c, 0, 71, 0
2, 61697, Note_on_c, 0, 71, 72
2, 61706, Note_on_c, 0, 52, 72
2, 61724, Note_on_c, 0, 75, 0
2, 61731, Note_on_c, 0, 75, 106
2, 61883, Note_on_c, 0, 73, 100
2, 61888, Note_on_c, 0, 56, 78
2, 61889, Note_on_c, 0, 59, 83
2, 62177, Note_on_c, 0, 71, 0
2, 62184, Note_on_c, 0, 71, 100
2, 62192, Note_on_c, 0, 52, 0
2, 62203, Note_on_c, 0, 52, 71
2, 62205, Note_on_c, 0, 64, 56
2, 62208, Note_on_c, 0, 59, 0
2, 62212, Note_on_c, 0, 59, 54
2, 62330, Note_on_c, 0, 59, 0
2, 62338, Note_on_c, 0, 52, 0
2, 62338, Note_on_c, 0, 64, 0
2, 62341, Note_on_c, 0, 59, 86
2, 62342, Note_on_c, 0, 64, 91
2, 62342, Note_on_c, 0, 52, 77
2, 62476, Note_on_c, 0, 71, 0
2, 62486, Note_on_c, 0, 71, 91
2, 62538, Note_on_c, 0, 80, 0
2, 62573, Note_on_c, 0, 28, 0
2, 62573, Control_c, 0, 64, 0
2, 62573, Note_on_c, 0, 68, 0
2, 62573, Note_on_c, 0, 56, 0
2, 62573, Note_on_c, 0, 59, 0
2, 62573, Note_on_c, 0, 64, 0
2, 62574, Note_on_c, 0, 52, 0
2, 62574, Note_on_c, 0, 75, 0
2, 62574, Note_on_c, 0, 71, 0
2, 62574, Note_on_c, 0, 73, 0
2, 62592, Note_on_c, 0, 40, 0
2, 62592, Note_on_c, 0, 63, 0
2, 62634, Note_on_c, 0, 42, 93
2, 62635, Note_on_c, 0, 73, 100
2, 62635, Note_on_c, 0, 30, 89
2, 62639, Note_on_c, 0, 61, 84
2, 62640, Note_on_c, 0, 70, 89
2, 62714, Control_c, 0, 64, 127
2, 62784, Note_on_c, 0, 30, 0
2, 62784, Note_on_c, 0, 42, 0
2, 62788, Note_on_c, 0, 42, 81
2, 62789, Note_on_c, 0, 30, 74
2, 62937, Note_on_c, 0, 73, 0
2, 62943, Note_on_c, 0, 54, 75
2, 62948, Note_on_c, 0, 73, 93
2, 62952, Note_on_c, 0, 70, 0
2, 62962, Note_on_c, 0, 70, 79
2, 63075, Note_on_c, 0, 61, 0
2, 63087, Note_on_c, 0, 61, 88
2, 63100, Note_on_c, 0, 58, 77
2, 63104, Note_on_c, 0, 71, 89
2, 63105, Note_on_c, 0, 68, 93
2, 63244, Note_on_c, 0, 73, 0
2, 63249, Note_on_c, 0, 73, 97
2, 63252, Note_on_c, 0, 70, 0
2, 63261, Note_on_c, 0, 70, 82
2, 63398, Note_on_c, 0, 71, 0
2, 63406, Note_on_c, 0, 54, 0
2, 63406, Note_on_c, 0, 75, 102
2, 63409, Note_on_c, 0, 71, 91
2, 63410, Note_on_c, 0, 54, 79
2, 63411, Note_on_c, 0, 66, 77
2, 63552, Note_on_c, 0, 61, 0
2, 63552, Note_on_c, 0, 66, 0
2, 63558, Note_on_c, 0, 66, 91
2, 63560, Note_on_c, 0, 61, 91
2, 63705, Note_on_c, 0, 75, 0
2, 63713, Note_on_c, 0, 71, 0
2, 63716, Note_on_c, 0, 75, 107
2, 63720, Note_on_c, 0, 71, 90
2, 63776, Note_on_c, 0, 61, 0
2, 63777, Note_on_c, 0, 73, 0
2, 63777, Note_on_c, 0, 58, 0
2, 63777, Note_on_c, 0, 70, 0
2, 63777, Note_on_c, 0, 30, 0
2, 63778, Note_on_c, 0, 68, 0
2, 63786, Control_c, 0, 64, 0
2, 63797, Note_on_c, 0, 42, 0
2, 63805, Note_on_c, 0, 54, 0
2, 63853, Note_on_c, 0, 47, 96
2, 63855, Note_on_c, 0, 35, 84
2, 63874, Control_c, 0, 64, 127
2, 64160, Note_on_c, 0, 54, 77
2, 64160, Note_on_c, 0, 59, 77
2, 64163, Note_on_c, 0, 51, 80
2, 64310, Note_on_c, 0, 59, 0
2, 64315, Note_on_c, 0, 63, 85
2, 64412, Control_c, 0, 64, 0
2, 64415, Note_on_c, 0, 47, 0
2, 64415, Note_on_c, 0, 54, 0
2, 64415, Note_on_c, 0, 63, 0
2, 64415, Note_on_c, 0, 51, 0
2, 64427, Note_on_c, 0, 35, 0
2, 64427, Note_on_c, 0, 71, 0
2, 64435, Note_on_c, 0, 66, 0
2, 64442, Note_on_c, 0, 75, 0
2, 64458, Note_on_c, 0, 46, 85
2, 64458, Note_on_c, 0, 61, 91
2, 64459, Note_on_c, 0, 34, 86
2, 64460, Note_on_c, 0, 70, 80
2, 64496, Control_c, 0, 64, 127
2, 64611, Note_on_c, 0, 34, 0
2, 64611, Note_on_c, 0, 46, 0
2, 64616, Note_on_c, 0, 46, 85
2, 64618, Note_on_c, 0, 34, 73
2, 64764, Note_on_c, 0, 58, 95
2, 64769, Note_on_c, 0, 75, 104
2, 64769, Note_on_c, 0, 54, 71
2, 64770, Note_on_c, 0, 49, 77
2, 64918, Note_on_c, 0, 78, 104
2, 65022, Note_on_c, 0, 49, 0
2, 65022, Note_on_c, 0, 54, 0
2, 65022, Note_on_c, 0, 58, 0
2, 65022, Note_on_c, 0, 70, 0
2, 65022, Note_on_c, 0, 61, 0
2, 65022, Note_on_c, 0, 75, 0
2, 65023, Note_on_c, 0, 78, 0
2, 65024, Control_c, 0, 64, 0
2, 65034, Note_on_c, 0, 46, 0
2, 65041, Note_on_c, 0, 34, 0
2, 65071, Note_on_c, 0, 78, 109
2, 65076, Note_on_c, 0, 44, 88
2, 65076, Note_on_c, 0, 32, 85
2, 65078, Note_on_c, 0, 75, 90
2, 65078, Note_on_c, 0, 71, 93
2, 65111, Control_c, 0, 64, 127
2, 65236, Note_on_c, 0, 56, 45
2, 65372, Note_on_c, 0, 75, 0
2, 65374, Note_on_c, 0, 83, 102
2, 65382, Note_on_c, 0, 75, 103
2, 65389, Note_on_c, 0, 59, 71
2, 65391, Note_on_c, 0, 51, 76
2, 65525, Note_on_c, 0, 51, 0
2, 65533, Note_on_c, 0, 56, 0
2, 65533, Note_on_c, 0, 59, 0
2, 65534, Note_on_c, 0, 82, 104
2, 65535, Note_on_c, 0, 73, 99
2, 65536, Note_on_c, 0, 68, 72
2, 65536, Note_on_c, 0, 51, 55
2, 65537, Note_on_c, 0, 59, 78
2, 65540, Note_on_c, 0, 56, 61
2, 65832, Note_on_c, 0, 71, 0
2, 65835, Note_on_c, 0, 80, 104
2, 65837, Note_on_c, 0, 71, 90
2, 65848, Note_on_c, 0, 51, 0
2, 65853, Note_on_c, 0, 51, 80
2, 65994, Note_on_c, 0, 56, 0
2, 65994, Note_on_c, 0, 59, 0
2, 65996, Note_on_c, 0, 63, 88
2, 65999, Note_on_c, 0, 59, 72
2, 66004, Note_on_c, 0, 56, 65
2, 66140, Note_on_c, 0, 68, 0
2, 66140, Note_on_c, 0, 75, 0
2, 66147, Note_on_c, 0, 75, 103
2, 66147, Note_on_c, 0, 59, 0
2, 66147, Note_on_c, 0, 71, 0
2, 66149, Note_on_c, 0, 68, 93
2, 66152, Note_on_c, 0, 71, 87
2, 66153, Note_on_c, 0, 59, 77
2, 66221, Control_c, 0, 64, 0
2, 66222, Note_on_c, 0, 82, 0
2, 66223, Note_on_c, 0, 51, 0
2, 66223, Note_on_c, 0, 73, 0
2, 66223, Note_on_c, 0, 56, 0
2, 66223, Note_on_c, 0, 63, 0
2, 66223, Note_on_c, 0, 80, 0
2, 66224, Note_on_c, 0, 83, 0
2, 66224, Note_on_c, 0, 44, 0
2, 66224, Note_on_c, 0, 32, 0
2, 66232, Note_on_c, 0, 78, 0
2, 66280, Note_on_c, 0, 40, 88
2, 66283, Note_on_c, 0, 28, 81
2, 66301, Control_c, 0, 64, 127
2, 66455, Note_on_c, 0, 40, 0
2, 66463, Note_on_c, 0, 40, 68
2, 66509, Note_on_c, 0, 63, 39
2, 66531, Note_on_c, 0, 68, 0
2, 66534, Note_on_c, 0, 56, 27
2, 66536, Note_on_c, 0, 68, 63
2, 66577, Note_on_c, 0, 71, 0
2, 66588, Note_on_c, 0, 71, 79
2, 66593, Note_on_c, 0, 52, 81
2, 66608, Note_on_c, 0, 75, 0
2, 66613, Note_on_c, 0, 75, 100
2, 66762, Note_on_c, 0, 56, 0
2, 66762, Note_on_c, 0, 59, 0
2, 66762, Note_on_c, 0, 68, 0
2, 66766, Note_on_c, 0, 59, 83
2, 66768, Note_on_c, 0, 56, 82
2, 66768, Note_on_c, 0, 73, 98
2, 66769, Note_on_c, 0, 68, 82
2, 66961, Note_on_c, 0, 59, 0
2, 66969, Note_on_c, 0, 59, 63
2, 67069, Note_on_c, 0, 52, 0
2, 67069, Note_on_c, 0, 71, 0
2, 67074, Note_on_c, 0, 71, 102
2, 67079, Note_on_c, 0, 52, 82
2, 67223, Note_on_c, 0, 52, 0
2, 67223, Note_on_c, 0, 56, 0
2, 67223, Note_on_c, 0, 59, 0
2, 67230, Note_on_c, 0, 59, 83
2, 67233, Note_on_c, 0, 64, 91
2, 67233, Note_on_c, 0, 52, 75
2, 67234, Note_on_c, 0, 56, 58
2, 67368, Note_on_c, 0, 73, 0
2, 67375, Note_on_c, 0, 59, 0
2, 67376, Note_on_c, 0, 73, 99
2, 67475, Note_on_c, 0, 63, 0
2, 67476, Note_on_c, 0, 71, 0
2, 67476, Note_on_c, 0, 40, 0
2, 67476, Note_on_c, 0, 56, 0
2, 67476, Note_on_c, 0, 52, 0
2, 67476, Note_on_c, 0, 64, 0
2, 67476, Note_on_c, 0, 68, 0
2, 67477, Note_on_c, 0, 73, 0
2, 67477, Note_on_c, 0, 75, 0
2, 67480, Control_c, 0, 64, 0
2, 67491, Note_on_c, 0, 28, 0
2, 67519, Note_on_c, 0, 85, 101
2, 67519, Note_on_c, 0, 30, 93
2, 67520, Note_on_c, 0, 42, 95
2, 67524, Note_on_c, 0, 78, 101
2, 67524, Note_on_c, 0, 82, 98
2, 67525, Note_on_c, 0, 73, 102
2, 67545, Control_c, 0, 64, 127
2, 67683, Note_on_c, 0, 42, 0
2, 67689, Note_on_c, 0, 42, 77
2, 67826, Note_on_c, 0, 54, 68
2, 67829, Note_on_c, 0, 73, 0
2, 67829, Note_on_c, 0, 85, 0
2, 67834, Note_on_c, 0, 85, 100
2, 67834, Note_on_c, 0, 73, 98
2, 67838, Note_on_c, 0, 61, 60
2, 67845, Note_on_c, 0, 61, 0
2, 67968, Note_on_c, 0, 54, 0
2, 67973, Note_on_c, 0, 61, 82
2, 67973, Note_on_c, 0, 83, 104
2, 67976, Note_on_c, 0, 66, 94
2, 67978, Note_on_c, 0, 58, 77
2, 67979, Note_on_c, 0, 54, 79
2, 67979, Note_on_c, 0, 71, 96
2, 68121, Note_on_c, 0, 73, 0
2, 68121, Note_on_c, 0, 85, 0
2, 68131, Note_on_c, 0, 85, 100
2, 68132, Note_on_c, 0, 73, 98
2, 68144, Note_on_c, 0, 61, 0
2, 68149, Note_on_c, 0, 61, 63
2, 68267, Note_on_c, 0, 83, 0
2, 68275, Note_on_c, 0, 54, 0
2, 68275, Note_on_c, 0, 61, 0
2, 68275, Note_on_c, 0, 71, 0
2, 68275, Note_on_c, 0, 83, 102
2, 68281, Note_on_c, 0, 54, 77
2, 68281, Note_on_c, 0, 71, 89
2, 68286, Note_on_c, 0, 61, 74
2, 68421, Note_on_c, 0, 61, 0
2, 68421, Note_on_c, 0, 82, 0
2, 68428, Note_on_c, 0, 54, 0
2, 68429, Note_on_c, 0, 61, 87
2, 68432, Note_on_c, 0, 82, 101
2, 68432, Note_on_c, 0, 54, 78
2, 68432, Note_on_c, 0, 66, 0
2, 68432, Note_on_c, 0, 70, 96
2, 68567, Note_on_c, 0, 71, 0
2, 68567, Note_on_c, 0, 83, 0
2, 68574, Note_on_c, 0, 83, 105
2, 68578, Note_on_c, 0, 71, 95
2, 68685, Note_on_c, 0, 54, 0
2, 68685, Note_on_c, 0, 58, 0
2, 68685, Note_on_c, 0, 83, 0
2, 68685, Note_on_c, 0, 78, 0
2, 68685, Note_on_c, 0, 61, 0
2, 68685, Note_on_c, 0, 85, 0
2, 68685, Note_on_c, 0, 82, 0
2, 68686, Note_on_c, 0, 70, 0
2, 68687, Control_c, 0, 64, 0
2, 68697, Note_on_c, 0, 30, 0
2, 68697, Note_on_c, 0, 42, 0
2, 68705, Note_on_c, 0, 73, 0
2, 68712, Note_on_c, 0, 71, 0
2, 68724, Note_on_c, 0, 47, 96
2, 68727, Note_on_c, 0, 75, 96
2, 68730, Note_on_c, 0, 35, 87
2, 68733, Note_on_c, 0, 71, 77
2, 68751, Control_c, 0, 64, 127
2, 68884, Note_on_c, 0, 76, 81
2, 68889, Note_on_c, 0, 71, 0
2, 68896, Note_on_c, 0, 71, 57
2, 69016, Note_on_c, 0, 59, 75
2, 69035, Note_on_c, 0, 75, 0
2, 69038, Note_on_c, 0, 51, 77
2, 69039, Note_on_c, 0, 75, 84
2, 69161, Control_c, 0, 64, 0
2, 69172, Note_on_c, 0, 51, 0
2, 69172, Note_on_c, 0, 47, 0
2, 69172, Note_on_c, 0, 59, 0
2, 69172, Note_on_c, 0, 71, 0
2, 69173, Note_on_c, 0, 76, 0
2, 69174, Note_on_c, 0, 75, 0
2, 69184, Note_on_c, 0, 46, 96
2, 69186, Note_on_c, 0, 34, 88
2, 69187, Note_on_c, 0, 73, 92
2, 69187, Note_on_c, 0, 61, 81
2, 69204, Note_on_c, 0, 35, 0
2, 69227, Control_c, 0, 64, 127
2, 69400, Note_on_c, 0, 75, 59
2, 69473, Note_on_c, 0, 75, 0
2, 69477, Note_on_c, 0, 75, 89
2, 69478, Note_on_c, 0, 49, 84
2, 69615, Note_on_c, 0, 54, 87
2, 69626, Note_on_c, 0, 73, 0
2, 69634, Note_on_c, 0, 61, 0
2, 69636, Note_on_c, 0, 73, 92
2, 69639, Note_on_c, 0, 66, 70
2, 69640, Note_on_c, 0, 61, 73
2, 69780, Note_on_c, 0, 71, 87
2, 69872, Note_on_c, 0, 49, 0
2, 69872, Note_on_c, 0, 46, 0
2, 69873, Note_on_c, 0, 73, 0
2, 69873, Note_on_c, 0, 75, 0
2, 69874, Note_on_c, 0, 71, 0
2, 69874, Note_on_c, 0, 54, 0
2, 69875, Control_c, 0, 64, 0
2, 69895, Note_on_c, 0, 34, 0
2, 69895, Note_on_c, 0, 61, 0
2, 69903, Note_on_c, 0, 66, 0
2, 69928, Note_on_c, 0, 32, 95
2, 69928, Note_on_c, 0, 83, 89
2, 69929, Note_on_c, 0, 44, 97
2, 69931, Note_on_c, 0, 71, 77
2, 69957, Control_c, 0, 64, 127
2, 70094, Note_on_c, 0, 75, 79
2, 70229, Note_on_c, 0, 66, 107
2, 70233, Note_on_c, 0, 75, 0
2, 70238, Note_on_c, 0, 63, 88
2, 70238, Note_on_c, 0, 75, 86
2, 70241, Note_on_c, 0, 83, 0
2, 70247, Note_on_c, 0, 78, 80
2, 70250, Note_on_c, 0, 83, 84
2, 70405, Note_on_c, 0, 59, 85
2, 70410, Note_on_c, 0, 75, 0
2, 70414, Note_on_c, 0, 75, 73
2, 70533, Note_on_c, 0, 63, 0
2, 70533, Note_on_c, 0, 66, 0
2, 70541, Note_on_c, 0, 70, 101
2, 70542, Note_on_c, 0, 66, 100
2, 70543, Note_on_c, 0, 63, 88
2, 70548, Note_on_c, 0, 83, 0
2, 70552, Note_on_c, 0, 83, 87
2, 70679, Note_on_c, 0, 59, 0
2, 70685, Note_on_c, 0, 59, 81
2, 70794, Note_on_c, 0, 78, 0
2, 70799, Note_on_c, 0, 78, 78
2, 70824, Note_on_c, 0, 71, 0
2, 70832, Note_on_c, 0, 59, 0
2, 70832, Note_on_c, 0, 63, 0
2, 70832, Note_on_c, 0, 66, 0
2, 70836, Note_on_c, 0, 71, 103
2, 70838, Note_on_c, 0, 66, 102
2, 70840, Note_on_c, 0, 59, 83
2, 70841, Note_on_c, 0, 63, 89
2, 71016, Note_on_c, 0, 75, 0
2, 71021, Note_on_c, 0, 75, 77
2, 71093, Note_on_c, 0, 71, 0
2, 71097, Note_on_c, 0, 71, 65
2, 71125, Control_c, 0, 64, 0
2, 71132, Note_on_c, 0, 32, 0
2, 71132, Note_on_c, 0, 44, 0
2, 71132, Note_on_c, 0, 75, 0
2, 71147, Note_on_c, 0, 83, 0
2, 71151, Note_on_c, 0, 40, 91
2, 71152, Note_on_c, 0, 28, 89
2, 71154, Note_on_c, 0, 83, 96
2, 71162, Note_on_c, 0, 59, 0
2, 71170, Note_on_c, 0, 63, 0
2, 71178, Control_c, 0, 64, 127
2, 71201, Note_on_c, 0, 70, 0
2, 71232, Note_on_c, 0, 78, 0
2, 71238, Note_on_c, 0, 78, 71
2, 71317, Note_on_c, 0, 76, 74
2, 71447, Note_on_c, 0, 66, 0
2, 71447, Note_on_c, 0, 83, 0
2, 71455, Note_on_c, 0, 70, 101
2, 71456, Note_on_c, 0, 66, 102
2, 71456, Note_on_c, 0, 83, 98
2, 71460, Note_on_c, 0, 64, 92
2, 71615, Note_on_c, 0, 59, 74
2, 71616, Note_on_c, 0, 64, 0
2, 71620, Note_on_c, 0, 64, 69
2, 71620, Note_on_c, 0, 58, 62
2, 71677, Note_on_c, 0, 59, 0
2, 71688, Note_on_c, 0, 59, 61
2, 71754, Note_on_c, 0, 64, 0
2, 71754, Note_on_c, 0, 66, 0
2, 71754, Note_on_c, 0, 71, 0
2, 71754, Note_on_c, 0, 83, 0
2, 71758, Note_on_c, 0, 71, 105
2, 71760, Note_on_c, 0, 83, 98
2, 71760, Note_on_c, 0, 66, 100
2, 71763, Note_on_c, 0, 64, 95
2, 71915, Note_on_c, 0, 59, 0
2, 71921, Note_on_c, 0, 59, 70
2, 72053, Note_on_c, 0, 64, 0
2, 72053, Note_on_c, 0, 66, 0
2, 72053, Note_on_c, 0, 83, 0
2, 72059, Note_on_c, 0, 73, 104
2, 72059, Note_on_c, 0, 83, 97
2, 72062, Note_on_c, 0, 66, 101
2, 72063, Note_on_c, 0, 64, 96
2, 72326, Note_on_c, 0, 40, 0
2, 72327, Note_on_c, 0, 64, 0
2, 72327, Note_on_c, 0, 59, 0
2, 72327, Note_on_c, 0, 71, 0
2, 72327, Note_on_c, 0, 73, 0
2, 72327, Note_on_c, 0, 70, 0
2, 72327, Note_on_c, 0, 66, 0
2, 72329, Control_c, 0, 64, 0
2, 72337, Note_on_c, 0, 28, 0
2, 72337, Note_on_c, 0, 58, 0
2, 72337, Note_on_c, 0, 76, 0
2, 72345, Note_on_c, 0, 78, 0
2, 72360, Note_on_c, 0, 83, 0
2, 72364, Note_on_c, 0, 47, 101
2, 72365, Note_on_c, 0, 83, 96
2, 72367, Note_on_c, 0, 35, 93
2, 72399, Control_c, 0, 64, 127
2, 72443, Note_on_c, 0, 78, 82
2, 72534, Note_on_c, 0, 75, 75
2, 72633, Control_c, 0, 64, 0
2, 72668, Note_on_c, 0, 83, 0
2, 72677, Note_on_c, 0, 71, 103
2, 72678, Note_on_c, 0, 83, 95
2, 72680, Note_on_c, 0, 66, 104
2, 72681, Note_on_c, 0, 63, 90
2, 72698, Control_c, 0, 64, 127
2, 72838, Note_on_c, 0, 59, 79
2, 72967, Note_on_c, 0, 63, 0
2, 72967, Note_on_c, 0, 66, 0
2, 72967, Note_on_c, 0, 83, 0
2, 72971, Note_on_c, 0, 73, 106
2, 72975, Note_on_c, 0, 83, 92
2, 72976, Note_on_c, 0, 66, 102
2, 72978, Note_on_c, 0, 63, 87
2, 73121, Note_on_c, 0, 59, 0
2, 73128, Note_on_c, 0, 59, 71
2, 73251, Note_on_c, 0, 75, 0
2, 73259, Note_on_c, 0, 59, 0
2, 73259, Note_on_c, 0, 63, 0
2, 73259, Note_on_c, 0, 66, 0
2, 73259, Note_on_c, 0, 78, 0
2, 73259, Note_on_c, 0, 83, 0
2, 73259, Note_on_c, 0, 75, 110
2, 73263, Note_on_c, 0, 66, 103
2, 73264, Note_on_c, 0, 87, 95
2, 73264, Note_on_c, 0, 59, 71
2, 73268, Note_on_c, 0, 83, 93
2, 73269, Note_on_c, 0, 78, 93
2, 73270, Note_on_c, 0, 63, 89
2, 73545, Control_c, 0, 64, 0
2, 73570, Note_on_c, 0, 59, 0
2, 73574, Note_on_c, 0, 71, 0
2, 73574, Note_on_c, 0, 73, 0
2, 73574, Note_on_c, 0, 78, 0
2, 73574, Note_on_c, 0, 83, 0
2, 73576, Note_on_c, 0, 47, 0
2, 73578, Note_on_c, 0, 83, 104
2, 73578, Note_on_c, 0, 63, 0
2, 73579, Note_on_c, 0, 42, 98
2, 73580, Note_on_c, 0, 73, 99
2, 73582, Note_on_c, 0, 66, 0
2, 73584, Note_on_c, 0, 78, 93
2, 73585, Note_on_c, 0, 71, 94
2, 73585, Note_on_c, 0, 54, 96
2, 73586, Note_on_c, 0, 66, 92
2, 73589, Note_on_c, 0, 87, 0
2, 73597, Note_on_c, 0, 35, 0
2, 73612, Note_on_c, 0, 75, 0
2, 73612, Control_c, 0, 64, 127
2, 73866, Note_on_c, 0, 66, 0
2, 73873, Note_on_c, 0, 73, 0
2, 73877, Note_on_c, 0, 66, 88
2, 73882, Note_on_c, 0, 73, 78
2, 73882, Note_on_c, 0, 70, 76
2, 73883, Note_on_c, 0, 58, 81
2, 73885, Note_on_c, 0, 61, 82
2, 74027, Note_on_c, 0, 70, 0
2, 74033, Note_on_c, 0, 82, 103
2, 74038, Note_on_c, 0, 70, 93
2, 74132, Note_on_c, 0, 42, 0
2, 74132, Note_on_c, 0, 73, 0
2, 74132, Note_on_c, 0, 54, 0
2, 74133, Control_c, 0, 64, 0
2, 74133, Note_on_c, 0, 61, 0
2, 74133, Note_on_c, 0, 71, 0
2, 74134, Note_on_c, 0, 78, 0
2, 74134, Note_on_c, 0, 70, 0
2, 74134, Note_on_c, 0, 82, 0
2, 74134, Note_on_c, 0, 58, 0
2, 74135, Note_on_c, 0, 83, 0
2, 74150, Note_on_c, 0, 66, 0
2, 74187, Note_on_c, 0, 82, 102
2, 74192, Note_on_c, 0, 55, 91
2, 74192, Note_on_c, 0, 43, 90
2, 74193, Note_on_c, 0, 79, 89
2, 74193, Note_on_c, 0, 75, 93
2, 74193, Note_on_c, 0, 70, 94
2, 74219, Control_c, 0, 64, 127
2, 74357, Note_on_c, 0, 55, 0
2, 74365, Note_on_c, 0, 70, 0
2, 74366, Note_on_c, 0, 55, 58
2, 74371, Note_on_c, 0, 70, 63
2, 74488, Note_on_c, 0, 75, 0
2, 74492, Note_on_c, 0, 67, 78
2, 74496, Note_on_c, 0, 70, 0
2, 74497, Note_on_c, 0, 75, 93
2, 74499, Note_on_c, 0, 63, 72
2, 74500, Note_on_c, 0, 70, 70
2, 74504, Note_on_c, 0, 58, 78
2, 74649, Note_on_c, 0, 78, 97
2, 74770, Note_on_c, 0, 58, 0
2, 74770, Note_on_c, 0, 67, 0
2, 74770, Note_on_c, 0, 63, 0
2, 74770, Note_on_c, 0, 70, 0
2, 74770, Note_on_c, 0, 79, 0
2, 74771, Note_on_c, 0, 82, 0
2, 74773, Control_c, 0, 64, 0
2, 74787, Note_on_c, 0, 43, 0
2, 74787, Note_on_c, 0, 55, 0
2, 74803, Note_on_c, 0, 75, 0
2, 74803, Note_on_c, 0, 78, 0
2, 74807, Note_on_c, 0, 78, 93
2, 74809, Note_on_c, 0, 75, 89
2, 74812, Note_on_c, 0, 56, 74
2, 74813, Note_on_c, 0, 71, 80
2, 74815, Note_on_c, 0, 44, 72
2, 74864, Control_c, 0, 64, 127
2, 74968, Note_on_c, 0, 51, 64
2, 75113, Note_on_c, 0, 83, 83
2, 75118, Note_on_c, 0, 56, 0
2, 75118, Note_on_c, 0, 75, 0
2, 75123, Note_on_c, 0, 56, 54
2, 75125, Note_on_c, 0, 71, 0
2, 75128, Note_on_c, 0, 75, 79
2, 75130, Note_on_c, 0, 71, 59
2, 75274, Note_on_c, 0, 82, 94
2, 75275, Note_on_c, 0, 59, 69
2, 75278, Note_on_c, 0, 73, 83
2, 75571, Note_on_c, 0, 56, 0
2, 75571, Note_on_c, 0, 71, 0
2, 75576, Note_on_c, 0, 80, 91
2, 75582, Note_on_c, 0, 71, 78
2, 75582, Note_on_c, 0, 56, 62
2, 75724, Note_on_c, 0, 59, 0
2, 75735, Note_on_c, 0, 63, 85
2, 75736, Note_on_c, 0, 59, 77
2, 75886, Note_on_c, 0, 75, 0
2, 75891, Note_on_c, 0, 75, 96
2, 75893, Note_on_c, 0, 71, 0
2, 75897, Note_on_c, 0, 71, 76
2, 75898, Note_on_c, 0, 68, 77
2, 75974, Note_on_c, 0, 44, 0
2, 75974, Note_on_c, 0, 51, 0
2, 75975, Note_on_c, 0, 78, 0
2, 75975, Note_on_c, 0, 82, 0
2, 75975, Note_on_c, 0, 63, 0
2, 75976, Note_on_c, 0, 80, 0
2, 75976, Note_on_c, 0, 83, 0
2, 75977, Note_on_c, 0, 73, 0
2, 75980, Control_c, 0, 64, 0
2, 75993, Note_on_c, 0, 56, 0
2, 75993, Note_on_c, 0, 59, 0
2, 76016, Control_c, 0, 64, 127
2, 76039, Note_on_c, 0, 37, 74
2, 76040, Note_on_c, 0, 49, 76
2, 76214, Note_on_c, 0, 44, 54
2, 76228, Note_on_c, 0, 65, 68
2, 76270, Note_on_c, 0, 68, 0
2, 76274, Note_on_c, 0, 68, 66
2, 76316, Note_on_c, 0, 49, 0
2, 76316, Note_on_c, 0, 71, 0
2, 76323, Note_on_c, 0, 71, 72
2, 76327, Note_on_c, 0, 49, 65
2, 76354, Note_on_c, 0, 75, 0
2, 76359, Note_on_c, 0, 75, 88
2, 76508, Note_on_c, 0, 73, 95
2, 76513, Note_on_c, 0, 56, 68
2, 76520, Note_on_c, 0, 53, 61
2, 76800, Note_on_c, 0, 49, 0
2, 76800, Note_on_c, 0, 71, 0
2, 76809, Note_on_c, 0, 71, 97
2, 76810, Note_on_c, 0, 49, 61
2, 76953, Note_on_c, 0, 56, 0
2, 76960, Note_on_c, 0, 61, 84
2, 76960, Note_on_c, 0, 56, 73
2, 77084, Note_on_c, 0, 49, 0
2, 77091, Note_on_c, 0, 49, 51
2, 77095, Note_on_c, 0, 83, 102
2, 77099, Note_on_c, 0, 71, 0
2, 77107, Note_on_c, 0, 71, 95
2, 77214, Note_on_c, 0, 37, 0
2, 77214, Note_on_c, 0, 53, 0
2, 77214, Note_on_c, 0, 65, 0
2, 77215, Note_on_c, 0, 49, 0
2, 77215, Note_on_c, 0, 61, 0
2, 77215, Note_on_c, 0, 73, 0
2, 77216, Note_on_c, 0, 68, 0
2, 77216, Note_on_c, 0, 75, 0
2, 77216, Note_on_c, 0, 71, 0
2, 77216, Note_on_c, 0, 56, 0
2, 77216, Control_c, 0, 64, 0
2, 77218, Note_on_c, 0, 83, 0
2, 77230, Note_on_c, 0, 44, 0
2, 77255, Note_on_c, 0, 85, 105
2, 77256, Note_on_c, 0, 76, 101
2, 77256, Note_on_c, 0, 81, 92
2, 77257, Note_on_c, 0, 33, 82
2, 77258, Note_on_c, 0, 73, 102
2, 77260, Note_on_c, 0, 45, 81
2, 77276, Control_c, 0, 64, 127
2, 77351, Note_on_c, 0, 40, 65
2, 77399, Note_on_c, 0, 45, 0
2, 77410, Note_on_c, 0, 45, 79
2, 77513, Note_on_c, 0, 49, 69
2, 77562, Note_on_c, 0, 64, 76
2, 77573, Note_on_c, 0, 61, 68
2, 77583, Note_on_c, 0, 69, 67
2, 77590, Note_on_c, 0, 57, 56
2, 77660, Note_on_c, 0, 49, 0
2, 77665, Note_on_c, 0, 49, 71
2, 77718, Note_on_c, 0, 52, 70
2, 77806, Note_on_c, 0, 57, 0
2, 77814, Note_on_c, 0, 57, 70
2, 77867, Note_on_c, 0, 64, 0
2, 77867, Note_on_c, 0, 69, 0
2, 77871, Note_on_c, 0, 69, 82
2, 77875, Note_on_c, 0, 61, 0
2, 77878, Note_on_c, 0, 64, 73
2, 77885, Note_on_c, 0, 61, 62
2, 77944, Note_on_c, 0, 52, 0
2, 77955, Note_on_c, 0, 52, 60
2, 78021, Note_on_c, 0, 57, 0
2, 78029, Note_on_c, 0, 57, 76
2, 78113, Note_on_c, 0, 61, 0
2, 78123, Note_on_c, 0, 61, 72
2, 78159, Note_on_c, 0, 69, 0
2, 78159, Note_on_c, 0, 73, 0
2, 78168, Note_on_c, 0, 73, 93
2, 78170, Note_on_c, 0, 69, 83
2, 78174, Note_on_c, 0, 52, 0
2, 78181, Note_on_c, 0, 52, 69
2, 78259, Note_on_c, 0, 57, 0
2, 78259, Note_on_c, 0, 64, 0
2, 78263, Note_on_c, 0, 64, 57
2, 78269, Note_on_c, 0, 57, 71
2, 78312, Note_on_c, 0, 61, 0
2, 78323, Note_on_c, 0, 61, 79
2, 78397, Note_on_c, 0, 64, 0
2, 78402, Note_on_c, 0, 64, 76
2, 78458, Note_on_c, 0, 73, 0
2, 78458, Note_on_c, 0, 76, 0
2, 78466, Note_on_c, 0, 69, 0
2, 78469, Note_on_c, 0, 73, 87
2, 78469, Note_on_c, 0, 76, 92
2, 78475, Note_on_c, 0, 69, 75
2, 78535, Note_on_c, 0, 61, 0
2, 78541, Note_on_c, 0, 61, 65
2, 78604, Note_on_c, 0, 64, 0
2, 78615, Note_on_c, 0, 64, 68
2, 78681, Note_on_c, 0, 69, 0
2, 78686, Note_on_c, 0, 69, 78
2, 78743, Note_on_c, 0, 73, 0
2, 78750, Note_on_c, 0, 61, 0
2, 78753, Note_on_c, 0, 73, 89
2, 78754, Note_on_c, 0, 61, 57
2, 78773, Note_on_c, 0, 57, 0
2, 78779, Note_on_c, 0, 57, 53
2, 78804, Note_on_c, 0, 69, 0
2, 78808, Note_on_c, 0, 69, 79
2, 78858, Note_on_c, 0, 64, 0
2, 78865, Note_on_c, 0, 64, 68
2, 78919, Note_on_c, 0, 61, 0
2, 78921, Note_on_c, 0, 83, 99
2, 78923, Note_on_c, 0, 61, 84
2, 78925, Note_on_c, 0, 71, 85
2, 79011, Note_on_c, 0, 57, 0
2, 79021, Note_on_c, 0, 57, 81
2, 79050, Note_on_c, 0, 85, 0
2, 79057, Note_on_c, 0, 85, 98
2, 79057, Note_on_c, 0, 73, 0
2, 79062, Note_on_c, 0, 73, 93
2, 79080, Note_on_c, 0, 52, 0
2, 79090, Note_on_c, 0, 52, 74
2, 79173, Note_on_c, 0, 45, 0
2, 79182, Note_on_c, 0, 45, 81
2, 79188, Note_on_c, 0, 83, 0
2, 79198, Note_on_c, 0, 83, 102
2, 79203, Note_on_c, 0, 71, 0
2, 79210, Note_on_c, 0, 71, 89
2, 79265, Note_on_c, 0, 40, 0
2, 79269, Note_on_c, 0, 40, 59
2, 79353, Note_on_c, 0, 82, 101
2, 79355, Note_on_c, 0, 70, 92
2, 79376, Note_on_c, 0, 80, 58
2, 79495, Note_on_c, 0, 73, 0
2, 79495, Note_on_c, 0, 85, 0
2, 79503, Note_on_c, 0, 85, 105
2, 79506, Note_on_c, 0, 73, 103
2, 79540, Note_on_c, 0, 61, 0
2, 79540, Note_on_c, 0, 71, 0
2, 79540, Note_on_c, 0, 80, 0
2, 79541, Note_on_c, 0, 52, 0
2, 79541, Note_on_c, 0, 69, 0
2, 79541, Note_on_c, 0, 81, 0
2, 79541, Note_on_c, 0, 83, 0
2, 79543, Note_on_c, 0, 57, 0
2, 79543, Note_on_c, 0, 82, 0
2, 79543, Note_on_c, 0, 40, 0
2, 79543, Note_on_c, 0, 70, 0
2, 79544, Control_c, 0, 64, 0
2, 79549, Note_on_c, 0, 49, 0
2, 79557, Note_on_c, 0, 45, 0
2, 79564, Note_on_c, 0, 33, 0
2, 79564, Note_on_c, 0, 76, 0
2, 79572, Note_on_c, 0, 64, 0
2, 79638, Note_on_c, 0, 32, 92
2, 79641, Note_on_c, 0, 44, 91
2, 79641, Control_c, 0, 64, 127
2, 79810, Note_on_c, 0, 32, 0
2, 79810, Note_on_c, 0, 44, 0
2, 79814, Note_on_c, 0, 44, 79
2, 79815, Note_on_c, 0, 32, 78
2, 79815, Note_on_c, 0, 87, 103
2, 79819, Note_on_c, 0, 75, 90
2, 79964, Note_on_c, 0, 32, 0
2, 79964, Note_on_c, 0, 44, 0
2, 79967, Note_on_c, 0, 83, 105
2, 79971, Note_on_c, 0, 71, 97
2, 79974, Note_on_c, 0, 32, 84
2, 79974, Note_on_c, 0, 44, 88
2, 80177, Note_on_c, 0, 51, 78
2, 80271, Note_on_c, 0, 44, 0
2, 80277, Note_on_c, 0, 44, 80
2, 80277, Note_on_c, 0, 78, 88
2, 80418, Note_on_c, 0, 56, 33
2, 80424, Note_on_c, 0, 56, 0
2, 80486, Note_on_c, 0, 51, 0
2, 80493, Note_on_c, 0, 51, 71
2, 80547, Note_on_c, 0, 44, 0
2, 80555, Note_on_c, 0, 32, 0
2, 80557, Note_on_c, 0, 44, 77
2, 80565, Note_on_c, 0, 32, 74
2, 80570, Note_on_c, 0, 83, 0
2, 80581, Note_on_c, 0, 83, 91
2, 80701, Note_on_c, 0, 73, 0
2, 80705, Note_on_c, 0, 32, 0
2, 80706, Note_on_c, 0, 44, 0
2, 80706, Control_c, 0, 64, 0
2, 80706, Note_on_c, 0, 51, 0
2, 80706, Note_on_c, 0, 71, 0
2, 80706, Note_on_c, 0, 75, 0
2, 80707, Note_on_c, 0, 78, 0
2, 80707, Note_on_c, 0, 87, 0
2, 80707, Note_on_c, 0, 83, 0
2, 80724, Note_on_c, 0, 85, 0
2, 80741, Note_on_c, 0, 76, 97
2, 80742, Note_on_c, 0, 40, 87
2, 80743, Note_on_c, 0, 28, 87
2, 80793, Control_c, 0, 64, 127
2, 81023, Note_on_c, 0, 56, 66
2, 81028, Note_on_c, 0, 83, 93
2, 81114, Note_on_c, 0, 47, 75
2, 81169, Note_on_c, 0, 40, 0
2, 81175, Note_on_c, 0, 40, 71
2, 81345, Note_on_c, 0, 78, 87
2, 81392, Note_on_c, 0, 47, 0
2, 81403, Note_on_c, 0, 47, 69
2, 81500, Note_on_c, 0, 40, 0
2, 81504, Note_on_c, 0, 40, 58
2, 81646, Note_on_c, 0, 56, 0
2, 81646, Note_on_c, 0, 83, 0
2, 81650, Note_on_c, 0, 83, 90
2, 81652, Note_on_c, 0, 56, 73
2, 81784, Note_on_c, 0, 40, 0
2, 81795, Note_on_c, 0, 40, 76
2, 81797, Note_on_c, 0, 71, 84
2, 81937, Note_on_c, 0, 47, 0
2, 81947, Note_on_c, 0, 47, 83
2, 81949, Note_on_c, 0, 73, 88
2, 82026, Note_on_c, 0, 83, 0
2, 82026, Control_c, 0, 64, 0
2, 82027, Note_on_c, 0, 56, 0
2, 82027, Note_on_c, 0, 47, 0
2, 82027, Note_on_c, 0, 71, 0
2, 82027, Note_on_c, 0, 40, 0
2, 82027, Note_on_c, 0, 76, 0
2, 82029, Note_on_c, 0, 73, 0
2, 82060, Note_on_c, 0, 28, 0
2, 82089, Note_on_c, 0, 47, 89
2, 82091, Note_on_c, 0, 78, 0
2, 82092, Note_on_c, 0, 75, 105
2, 82095, Note_on_c, 0, 71, 89
2, 82106, Control_c, 0, 64, 127
2, 82237, Note_on_c, 0, 47, 0
2, 82241, Note_on_c, 0, 47, 66
2, 82249, Note_on_c, 0, 59, 70
2, 82318, Note_on_c, 0, 54, 70
2, 82406, Note_on_c, 0, 47, 0
2, 82406, Note_on_c, 0, 75, 0
2, 82408, Note_on_c, 0, 83, 95
2, 82410, Note_on_c, 0, 47, 75
2, 82412, Note_on_c, 0, 75, 79
2, 82544, Note_on_c, 0, 59, 0
2, 82554, Note_on_c, 0, 59, 73
2, 82613, Note_on_c, 0, 54, 0
2, 82619, Note_on_c, 0, 54, 69
2, 82698, Note_on_c, 0, 47, 0
2, 82705, Note_on_c, 0, 71, 0
2, 82706, Note_on_c, 0, 47, 82
2, 82707, Note_on_c, 0, 78, 97
2, 82836, Note_on_c, 0, 59, 0
2, 82842, Note_on_c, 0, 59, 72
2, 82844, Note_on_c, 0, 47, 0
2, 82854, Note_on_c, 0, 47, 65
2, 82920, Note_on_c, 0, 54, 0
2, 82931, Note_on_c, 0, 54, 66
2, 82990, Note_on_c, 0, 83, 0
2, 82997, Note_on_c, 0, 47, 0
2, 83001, Note_on_c, 0, 83, 92
2, 83002, Note_on_c, 0, 47, 80
2, 83137, Note_on_c, 0, 83, 0
2, 83138, Note_on_c, 0, 47, 0
2, 83138, Note_on_c, 0, 78, 0
2, 83139, Note_on_c, 0, 75, 0
2, 83139, Control_c, 0, 64, 0
2, 83151, Note_on_c, 0, 54, 0
2, 83151, Note_on_c, 0, 59, 0
2, 83161, Note_on_c, 0, 73, 97
2, 83164, Note_on_c, 0, 42, 88
2, 83169, Note_on_c, 0, 30, 89
2, 83228, Control_c, 0, 64, 127
2, 83335, Note_on_c, 0, 42, 0
2, 83339, Note_on_c, 0, 42, 68
2, 83454, Note_on_c, 0, 58, 79
2, 83457, Note_on_c, 0, 83, 96
2, 83531, Note_on_c, 0, 49, 64
2, 83596, Note_on_c, 0, 42, 0
2, 83608, Note_on_c, 0, 42, 74
2, 83742, Note_on_c, 0, 58, 0
2, 83750, Note_on_c, 0, 58, 78
2, 83770, Note_on_c, 0, 85, 93
2, 83811, Note_on_c, 0, 49, 0
2, 83817, Note_on_c, 0, 49, 82
2, 83911, Note_on_c, 0, 42, 0
2, 83922, Note_on_c, 0, 42, 66
2, 84011, Note_on_c, 0, 42, 0
2, 84022, Note_on_c, 0, 42, 60
2, 84049, Note_on_c, 0, 58, 0
2, 84055, Note_on_c, 0, 58, 71
2, 84067, Note_on_c, 0, 87, 95
2, 84096, Note_on_c, 0, 49, 0
2, 84104, Note_on_c, 0, 49, 51
2, 84203, Note_on_c, 0, 42, 0
2, 84207, Note_on_c, 0, 42, 73
2, 84215, Note_on_c, 0, 71, 86
2, 84357, Note_on_c, 0, 49, 0
2, 84365, Note_on_c, 0, 70, 80
2, 84367, Note_on_c, 0, 49, 74
2, 84475, Control_c, 0, 64, 0
2, 84475, Note_on_c, 0, 83, 0
2, 84475, Note_on_c, 0, 73, 0
2, 84475, Note_on_c, 0, 85, 0
2, 84475, Note_on_c, 0, 49, 0
2, 84476, Note_on_c, 0, 87, 0
2, 84476, Note_on_c, 0, 70, 0
2, 84476, Note_on_c, 0, 42, 0
2, 84477, Note_on_c, 0, 30, 0
2, 84487, Note_on_c, 0, 58, 0
2, 84510, Note_on_c, 0, 71, 0
2, 84515, Note_on_c, 0, 71, 91
2, 84518, Note_on_c, 0, 44, 71
2, 84521, Note_on_c, 0, 59, 77
2, 84522, Note_on_c, 0, 63, 72
2, 84556, Control_c, 0, 64, 127
2, 84657, Note_on_c, 0, 51, 71
2, 84794, Note_on_c, 0, 71, 0
2, 84805, Note_on_c, 0, 71, 86
2, 84810, Note_on_c, 0, 59, 0
2, 84817, Note_on_c, 0, 44, 0
2, 84821, Note_on_c, 0, 59, 67
2, 84828, Note_on_c, 0, 44, 71
2, 84879, Note_on_c, 0, 63, 0
2, 84886, Note_on_c, 0, 63, 80
2, 84948, Note_on_c, 0, 51, 0
2, 84948, Note_on_c, 0, 59, 0
2, 84955, Note_on_c, 0, 59, 68
2, 84959, Note_on_c, 0, 51, 53
2, 84994, Note_on_c, 0, 63, 0
2, 85005, Note_on_c, 0, 63, 74
2, 85098, Control_c, 0, 64, 0
2, 85100, Note_on_c, 0, 51, 0
2, 85101, Note_on_c, 0, 59, 0
2, 85101, Note_on_c, 0, 66, 89
2, 85117, Note_on_c, 0, 44, 0
2, 85125, Note_on_c, 0, 44, 65
2, 85148, Note_on_c, 0, 63, 0
2, 85152, Note_on_c, 0, 63, 84
2, 85171, Control_c, 0, 64, 127
2, 85246, Note_on_c, 0, 59, 67
2, 85288, Note_on_c, 0, 51, 52
2, 85355, Note_on_c, 0, 63, 0
2, 85361, Note_on_c, 0, 63, 60
2, 85393, Note_on_c, 0, 71, 0
2, 85397, Note_on_c, 0, 71, 90
2, 85409, Note_on_c, 0, 44, 0
2, 85415, Note_on_c, 0, 44, 68
2, 85527, Note_on_c, 0, 51, 0
2, 85528, Note_on_c, 0, 44, 0
2, 85528, Note_on_c, 0, 59, 0
2, 85529, Note_on_c, 0, 63, 0
2, 85529, Note_on_c, 0, 71, 0
2, 85530, Note_on_c, 0, 66, 0
2, 85530, Control_c, 0, 64, 0
2, 85553, Note_on_c, 0, 64, 90
2, 85558, Note_on_c, 0, 40, 71
2, 85608, Control_c, 0, 64, 127
2, 85869, Note_on_c, 0, 71, 77
2, 85875, Note_on_c, 0, 47, 72
2, 85889, Note_on_c, 0, 69, 54
2, 85931, Note_on_c, 0, 64, 0
2, 85939, Note_on_c, 0, 64, 83
2, 86000, Note_on_c, 0, 47, 0
2, 86005, Note_on_c, 0, 47, 67
2, 86008, Note_on_c, 0, 40, 0
2, 86012, Note_on_c, 0, 59, 73
2, 86012, Note_on_c, 0, 40, 53
2, 86092, Note_on_c, 0, 64, 0
2, 86097, Note_on_c, 0, 64, 82
2, 86169, Note_on_c, 0, 47, 0
2, 86175, Note_on_c, 0, 66, 94
2, 86176, Note_on_c, 0, 47, 84
2, 86238, Note_on_c, 0, 64, 0
2, 86249, Note_on_c, 0, 64, 64
2, 86300, Note_on_c, 0, 47, 0
2, 86300, Note_on_c, 0, 59, 0
2, 86306, Note_on_c, 0, 47, 69
2, 86310, Note_on_c, 0, 59, 75
2, 86338, Note_on_c, 0, 40, 0
2, 86349, Note_on_c, 0, 40, 55
2, 86392, Note_on_c, 0, 64, 0
2, 86400, Note_on_c, 0, 64, 76
2, 86476, Note_on_c, 0, 71, 0
2, 86484, Note_on_c, 0, 47, 0
2, 86488, Note_on_c, 0, 71, 91
2, 86490, Note_on_c, 0, 47, 64
2, 86630, Note_on_c, 0, 40, 0
2, 86638, Note_on_c, 0, 59, 0
2, 86641, Note_on_c, 0, 40, 69
2, 86642, Note_on_c, 0, 59, 83
2, 86784, Note_on_c, 0, 47, 0
2, 86795, Note_on_c, 0, 47, 52
2, 86796, Note_on_c, 0, 61, 80
2, 86883, Note_on_c, 0, 59, 0
2, 86888, Note_on_c, 0, 59, 63
2, 86903, Note_on_c, 0, 71, 0
2, 86903, Control_c, 0, 64, 0
2, 86903, Note_on_c, 0, 61, 0
2, 86903, Note_on_c, 0, 40, 0
2, 86903, Note_on_c, 0, 66, 0
2, 86903, Note_on_c, 0, 64, 0
2, 86914, Note_on_c, 0, 69, 0
2, 86929, Note_on_c, 0, 59, 0
2, 86937, Note_on_c, 0, 47, 0
2, 86942, Note_on_c, 0, 63, 90
2, 86948, Note_on_c, 0, 47, 76
2, 86983, Control_c, 0, 64, 127
2, 87006, Note_on_c, 0, 47, 0
2, 87011, Note_on_c, 0, 47, 67
2, 87090, Note_on_c, 0, 59, 58
2, 87091, Note_on_c, 0, 54, 58
2, 87129, Note_on_c, 0, 63, 0
2, 87139, Note_on_c, 0, 63, 53
2, 87242, Note_on_c, 0, 71, 93
2, 87244, Note_on_c, 0, 54, 0
2, 87252, Note_on_c, 0, 47, 0
2, 87255, Note_on_c, 0, 54, 64
2, 87261, Note_on_c, 0, 47, 75
2, 87306, Note_on_c, 0, 63, 0
2, 87310, Note_on_c, 0, 63, 67
2, 87390, Note_on_c, 0, 54, 0
2, 87390, Note_on_c, 0, 59, 0
2, 87394, Note_on_c, 0, 59, 72
2, 87400, Note_on_c, 0, 54, 59
2, 87444, Note_on_c, 0, 63, 0
2, 87453, Note_on_c, 0, 63, 75
2, 87532, Note_on_c, 0, 66, 96
2, 87552, Note_on_c, 0, 47, 0
2, 87556, Note_on_c, 0, 47, 80
2, 87613, Note_on_c, 0, 63, 0
2, 87618, Note_on_c, 0, 63, 70
2, 87690, Note_on_c, 0, 59, 0
2, 87699, Note_on_c, 0, 59, 66
2, 87790, Note_on_c, 0, 63, 0
2, 87800, Note_on_c, 0, 63, 53
2, 87843, Note_on_c, 0, 71, 0
2, 87849, Note_on_c, 0, 71, 94
2, 87851, Note_on_c, 0, 47, 0
2, 87855, Note_on_c, 0, 47, 67
2, 87972, Control_c, 0, 64, 0
2, 87979, Note_on_c, 0, 47, 0
2, 87979, Note_on_c, 0, 59, 0
2, 87979, Note_on_c, 0, 71, 0
2, 87979, Note_on_c, 0, 63, 0
2, 88013, Note_on_c, 0, 61, 87
2, 88016, Note_on_c, 0, 42, 72
2, 88017, Note_on_c, 0, 58, 81
2, 88035, Note_on_c, 0, 54, 0
2, 88074, Control_c, 0, 64, 127
2, 88315, Note_on_c, 0, 71, 88
2, 88339, Note_on_c, 0, 49, 74
2, 88381, Note_on_c, 0, 61, 0
2, 88385, Note_on_c, 0, 61, 76
2, 88458, Note_on_c, 0, 58, 0
2, 88463, Note_on_c, 0, 58, 73
2, 88527, Note_on_c, 0, 61, 0
2, 88532, Note_on_c, 0, 61, 74
2, 88618, Note_on_c, 0, 73, 93
2, 88619, Note_on_c, 0, 49, 0
2, 88627, Note_on_c, 0, 49, 78
2, 88688, Note_on_c, 0, 61, 0
2, 88697, Note_on_c, 0, 61, 73
2, 88750, Note_on_c, 0, 58, 0
2, 88760, Note_on_c, 0, 58, 76
2, 88819, Note_on_c, 0, 61, 0
2, 88829, Note_on_c, 0, 61, 75
2, 88915, Note_on_c, 0, 75, 95
2, 88925, Note_on_c, 0, 54, 71
2, 89064, Note_on_c, 0, 61, 0
2, 89076, Note_on_c, 0, 61, 81
2, 89078, Note_on_c, 0, 49, 0
2, 89203, Note_on_c, 0, 66, 0
2, 89212, Note_on_c, 0, 54, 0
2, 89213, Note_on_c, 0, 66, 74
2, 89389, Control_c, 0, 64, 0
2, 89390, Note_on_c, 0, 42, 0
2, 89390, Note_on_c, 0, 58, 0
2, 89391, Note_on_c, 0, 66, 0
2, 89391, Note_on_c, 0, 71, 0
2, 89391, Note_on_c, 0, 73, 0
2, 89391, Note_on_c, 0, 75, 0
2, 89393, Note_on_c, 0, 87, 78
2, 89399, Note_on_c, 0, 78, 78
2, 89401, Note_on_c, 0, 44, 59
2, 89402, Note_on_c, 0, 61, 0
2, 89518, Control_c, 0, 64, 127
2, 89574, Note_on_c, 0, 51, 58
2, 89690, Note_on_c, 0, 85, 70
2, 89698, Note_on_c, 0, 76, 51
2, 89721, Note_on_c, 0, 56, 46
2, 89846, Note_on_c, 0, 83, 80
2, 89857, Note_on_c, 0, 75, 73
2, 89864, Note_on_c, 0, 59, 55
2, 90147, Note_on_c, 0, 75, 0
2, 90147, Note_on_c, 0, 83, 0
2, 90154, Note_on_c, 0, 83, 66
2, 90158, Note_on_c, 0, 75, 68
2, 90455, Note_on_c, 0, 59, 0
2, 90455, Note_on_c, 0, 75, 0
2, 90455, Note_on_c, 0, 83, 0
2, 90459, Note_on_c, 0, 83, 66
2, 90463, Note_on_c, 0, 75, 68
2, 90464, Note_on_c, 0, 59, 45
2, 90600, Note_on_c, 0, 76, 0
2, 90607, Note_on_c, 0, 85, 0
2, 90608, Note_on_c, 0, 87, 0
2, 90608, Note_on_c, 0, 78, 0
2, 90608, Note_on_c, 0, 56, 0
2, 90608, Note_on_c, 0, 44, 0
2, 90608, Note_on_c, 0, 51, 0
2, 90608, Note_on_c, 0, 83, 0
2, 90609, Note_on_c, 0, 59, 0
2, 90611, Control_c, 0, 64, 0
2, 90616, Note_on_c, 0, 83, 78
2, 90637, Note_on_c, 0, 39, 57
2, 90639, Note_on_c, 0, 75, 0
2, 90643, Note_on_c, 0, 75, 55
2, 90739, Control_c, 0, 64, 127
2, 90790, Note_on_c, 0, 46, 62
2, 90918, Note_on_c, 0, 82, 72
2, 90925, Note_on_c, 0, 73, 68
2, 90949, Note_on_c, 0, 51, 45
2, 91089, Note_on_c, 0, 54, 51
2, 91207, Note_on_c, 0, 83, 0
2, 91215, Note_on_c, 0, 75, 0
2, 91217, Note_on_c, 0, 83, 75
2, 91226, Note_on_c, 0, 75, 65
2, 91238, Note_on_c, 0, 46, 0
2, 91238, Note_on_c, 0, 54, 0
2, 91246, Note_on_c, 0, 46, 38
2, 91249, Note_on_c, 0, 54, 38
2, 91526, Note_on_c, 0, 85, 74
2, 91543, Note_on_c, 0, 76, 59
2, 91808, Note_on_c, 0, 46, 0
2, 91809, Note_on_c, 0, 51, 0
2, 91809, Note_on_c, 0, 39, 0
2, 91809, Note_on_c, 0, 76, 0
2, 91810, Note_on_c, 0, 73, 0
2, 91810, Note_on_c, 0, 82, 0
2, 91810, Note_on_c, 0, 85, 0
2, 91810, Note_on_c, 0, 54, 0
2, 91812, Control_c, 0, 64, 0
2, 91814, Note_on_c, 0, 83, 0
2, 91824, Note_on_c, 0, 83, 74
2, 91829, Note_on_c, 0, 75, 0
2, 91839, Note_on_c, 0, 40, 53
2, 91848, Note_on_c, 0, 75, 49
2, 91914, Control_c, 0, 64, 127
2, 91992, Note_on_c, 0, 85, 75
2, 91994, Note_on_c, 0, 76, 64
2, 92001, Note_on_c, 0, 47, 56
2, 92128, Note_on_c, 0, 87, 77
2, 92139, Note_on_c, 0, 78, 71
2, 92154, Note_on_c, 0, 52, 53
2, 92290, Note_on_c, 0, 88, 78
2, 92290, Note_on_c, 0, 52, 0
2, 92298, Note_on_c, 0, 52, 47
2, 92301, Note_on_c, 0, 80, 73
2, 92309, Note_on_c, 0, 56, 50
2, 92590, Note_on_c, 0, 87, 0
2, 92595, Note_on_c, 0, 87, 71
2, 92597, Note_on_c, 0, 78, 0
2, 92604, Note_on_c, 0, 78, 54
2, 92736, Note_on_c, 0, 75, 0
2, 92751, Note_on_c, 0, 76, 0
2, 92751, Note_on_c, 0, 85, 0
2, 92756, Note_on_c, 0, 85, 62
2, 92757, Note_on_c, 0, 76, 57
2, 92920, Note_on_c, 0, 83, 0
2, 92924, Note_on_c, 0, 83, 72
2, 92933, Note_on_c, 0, 75, 59
2, 93060, Note_on_c, 0, 52, 0
2, 93060, Note_on_c, 0, 87, 0
2, 93060, Note_on_c, 0, 56, 0
2, 93060, Note_on_c, 0, 78, 0
2, 93060, Note_on_c, 0, 80, 0
2, 93060, Note_on_c, 0, 85, 0
2, 93061, Note_on_c, 0, 40, 0
2, 93061, Note_on_c, 0, 75, 0
2, 93061, Note_on_c, 0, 88, 0
2, 93061, Control_c, 0, 64, 0
2, 93061, Note_on_c, 0, 76, 0
2, 93073, Note_on_c, 0, 47, 0
2, 93084, Note_on_c, 0, 47, 62
2, 93212, Control_c, 0, 64, 127
2, 93240, Note_on_c, 0, 54, 55
2, 93403, Note_on_c, 0, 59, 60
2, 93535, Note_on_c, 0, 63, 65
2, 93688, Note_on_c, 0, 83, 0
2, 93692, Note_on_c, 0, 83, 70
2, 93714, Note_on_c, 0, 75, 52
2, 93834, Note_on_c, 0, 75, 0
2, 93841, Note_on_c, 0, 83, 0
2, 93843, Note_on_c, 0, 75, 56
2, 93851, Note_on_c, 0, 83, 61
2, 93995, Note_on_c, 0, 83, 0
2, 94003, Note_on_c, 0, 75, 0
2, 94005, Note_on_c, 0, 83, 67
2, 94007, Note_on_c, 0, 75, 62
2, 94156, Note_on_c, 0, 83, 0
2, 94163, Note_on_c, 0, 83, 77
2, 94164, Note_on_c, 0, 75, 0
2, 94168, Note_on_c, 0, 75, 52
2, 94258, Note_on_c, 0, 54, 0
2, 94258, Note_on_c, 0, 63, 0
2, 94258, Note_on_c, 0, 59, 0
2, 94259, Note_on_c, 0, 47, 0
2, 94259, Note_on_c, 0, 75, 0
2, 94261, Control_c, 0, 64, 0
2, 94307, Note_on_c, 0, 44, 60
2, 94364, Control_c, 0, 64, 127
2, 94459, Note_on_c, 0, 90, 75
2, 94477, Note_on_c, 0, 78, 69
2, 94478, Note_on_c, 0, 51, 61
2, 94626, Note_on_c, 0, 56, 54
2, 94766, Note_on_c, 0, 59, 60
2, 94917, Note_on_c, 0, 83, 0
2, 94921, Note_on_c, 0, 83, 66
2, 94926, Note_on_c, 0, 75, 68
2, 95063, Note_on_c, 0, 83, 0
2, 95068, Note_on_c, 0, 83, 70
2, 95070, Note_on_c, 0, 75, 0
2, 95074, Note_on_c, 0, 75, 64
2, 95216, Note_on_c, 0, 59, 0
2, 95216, Note_on_c, 0, 75, 0
2, 95216, Note_on_c, 0, 83, 0
2, 95224, Note_on_c, 0, 75, 63
2, 95225, Note_on_c, 0, 59, 45
2, 95227, Note_on_c, 0, 83, 68
2, 95381, Note_on_c, 0, 82, 82
2, 95405, Note_on_c, 0, 73, 65
2, 95462, Note_on_c, 0, 90, 0
2, 95463, Note_on_c, 0, 78, 0
2, 95464, Note_on_c, 0, 51, 0
2, 95464, Note_on_c, 0, 44, 0
2, 95464, Note_on_c, 0, 56, 0
2, 95464, Note_on_c, 0, 75, 0
2, 95465, Note_on_c, 0, 59, 0
2, 95467, Control_c, 0, 64, 0
2, 95500, Note_on_c, 0, 83, 0
2, 95519, Note_on_c, 0, 37, 56
2, 95585, Control_c, 0, 64, 127
2, 95681, Note_on_c, 0, 83, 76
2, 95689, Note_on_c, 0, 52, 65
2, 95689, Note_on_c, 0, 75, 66
2, 95700, Note_on_c, 0, 73, 0
2, 95835, Note_on_c, 0, 88, 81
2, 95837, Note_on_c, 0, 76, 75
2, 96010, Note_on_c, 0, 59, 55
2, 96336, Note_on_c, 0, 87, 78
2, 96367, Note_on_c, 0, 78, 57
2, 96491, Note_on_c, 0, 76, 0
2, 96496, Note_on_c, 0, 85, 70
2, 96498, Note_on_c, 0, 76, 62
2, 96645, Note_on_c, 0, 83, 0
2, 96652, Note_on_c, 0, 75, 0
2, 96654, Note_on_c, 0, 83, 80
2, 96663, Note_on_c, 0, 75, 70
2, 96724, Control_c, 0, 64, 0
2, 96724, Note_on_c, 0, 87, 0
2, 96724, Note_on_c, 0, 88, 0
2, 96724, Note_on_c, 0, 85, 0
2, 96725, Note_on_c, 0, 76, 0
2, 96725, Note_on_c, 0, 78, 0
2, 96725, Note_on_c, 0, 59, 0
2, 96729, Note_on_c, 0, 52, 0
2, 96729, Note_on_c, 0, 82, 0
2, 96737, Note_on_c, 0, 37, 0
2, 96788, Note_on_c, 0, 42, 63
2, 96844, Control_c, 0, 64, 127
2, 96947, Note_on_c, 0, 49, 60
2, 97098, Note_on_c, 0, 83, 0
2, 97108, Note_on_c, 0, 83, 75
2, 97113, Note_on_c, 0, 75, 0
2, 97116, Note_on_c, 0, 54, 53
2, 97120, Note_on_c, 0, 75, 67
2, 97269, Note_on_c, 0, 82, 78
2, 97270, Note_on_c, 0, 58, 53
2, 97272, Note_on_c, 0, 73, 70
2, 97563, Note_on_c, 0, 78, 66
2, 97569, Note_on_c, 0, 70, 57
2, 97712, Note_on_c, 0, 82, 0
2, 97721, Note_on_c, 0, 82, 77
2, 97728, Note_on_c, 0, 73, 0
2, 97732, Note_on_c, 0, 73, 58
2, 97873, Note_on_c, 0, 83, 0
2, 97879, Note_on_c, 0, 83, 72
2, 97881, Note_on_c, 0, 75, 0
2, 97890, Note_on_c, 0, 75, 64
2, 97985, Note_on_c, 0, 42, 0
2, 97985, Note_on_c, 0, 58, 0
2, 97985, Note_on_c, 0, 54, 0
2, 97985, Note_on_c, 0, 82, 0
2, 97985, Note_on_c, 0, 49, 0
2, 97986, Note_on_c, 0, 70, 0
2, 97986, Note_on_c, 0, 78, 0
2, 97987, Control_c, 0, 64, 0
2, 97987, Note_on_c, 0, 73, 0
2, 98033, Note_on_c, 0, 47, 64
2, 98181, Control_c, 0, 64, 127
2, 98192, Note_on_c, 0, 54, 45
2, 98351, Note_on_c, 0, 59, 52
2, 98496, Note_on_c, 0, 63, 55
2, 98669, Note_on_c, 0, 85, 67
2, 98671, Note_on_c, 0, 73, 66
2, 98964, Note_on_c, 0, 83, 0
2, 98971, Note_on_c, 0, 83, 78
2, 98988, Note_on_c, 0, 71, 61
2, 99135, Note_on_c, 0, 81, 85
2, 99157, Note_on_c, 0, 69, 65
2, 99205, Note_on_c, 0, 54, 0
2, 99205, Note_on_c, 0, 85, 0
2, 99206, Note_on_c, 0, 73, 0
2, 99206, Note_on_c, 0, 59, 0
2, 99206, Note_on_c, 0, 71, 0
2, 99206, Note_on_c, 0, 83, 0
2, 99206, Note_on_c, 0, 63, 0
2, 99210, Note_on_c, 0, 75, 0
2, 99211, Control_c, 0, 64, 0
2, 99217, Note_on_c, 0, 47, 0
2, 99287, Note_on_c, 0, 42, 62
2, 99294, Control_c, 0, 64, 127
2, 99439, Note_on_c, 0, 88, 80
2, 99443, Note_on_c, 0, 76, 77
2, 99449, Note_on_c, 0, 52, 56
2, 99578, Note_on_c, 0, 88, 0
2, 99586, Note_on_c, 0, 76, 0
2, 99590, Note_on_c, 0, 88, 82
2, 99592, Note_on_c, 0, 76, 63
2, 99596, Note_on_c, 0, 57, 61
2, 99747, Note_on_c, 0, 52, 0
2, 99747, Note_on_c, 0, 76, 0
2, 99747, Note_on_c, 0, 88, 0
2, 99751, Note_on_c, 0, 52, 62
2, 99753, Note_on_c, 0, 88, 68
2, 99753, Note_on_c, 0, 76, 56
2, 99820, Note_on_c, 0, 95, 71
2, 99871, Note_on_c, 0, 42, 0
2, 99873, Note_on_c, 0, 69, 0
2, 99873, Note_on_c, 0, 52, 0
2, 99873, Note_on_c, 0, 81, 0
2, 99874, Note_on_c, 0, 88, 0
2, 99874, Note_on_c, 0, 57, 0
2, 99874, Note_on_c, 0, 76, 0
2, 99876, Control_c, 0, 64, 0
2, 99879, Note_on_c, 0, 100, 85
2, 99888, Note_on_c, 0, 47, 69
2, 99924, Note_on_c, 0, 95, 0
2, 99935, Note_on_c, 0, 95, 60
2, 99955, Control_c, 0, 64, 127
2, 100035, Note_on_c, 0, 88, 72
2, 100043, Note_on_c, 0, 54, 62
2, 100170, Note_on_c, 0, 88, 0
2, 100181, Note_on_c, 0, 88, 88
2, 100183, Note_on_c, 0, 76, 78
2, 100196, Note_on_c, 0, 59, 63
2, 100335, Note_on_c, 0, 83, 89
2, 100339, Note_on_c, 0, 54, 0
2, 100344, Note_on_c, 0, 71, 70
2, 100345, Note_on_c, 0, 54, 62
2, 100408, Note_on_c, 0, 100, 0
2, 100431, Note_on_c, 0, 95, 0
2, 100435, Note_on_c, 0, 47, 0
2, 100435, Note_on_c, 0, 54, 0
2, 100437, Note_on_c, 0, 59, 0
2, 100440, Control_c, 0, 64, 0
2, 100454, Note_on_c, 0, 88, 0
2, 100477, Note_on_c, 0, 40, 66
2, 100515, Control_c, 0, 64, 127
2, 100574, Note_on_c, 0, 47, 75
2, 100631, Note_on_c, 0, 83, 0
2, 100641, Note_on_c, 0, 52, 77
2, 100642, Note_on_c, 0, 83, 80
2, 100646, Note_on_c, 0, 71, 0
2, 100651, Note_on_c, 0, 71, 65
2, 100726, Note_on_c, 0, 59, 75
2, 100769, Note_on_c, 0, 52, 0
2, 100779, Note_on_c, 0, 52, 64
2, 100853, Note_on_c, 0, 59, 0
2, 100858, Note_on_c, 0, 59, 70
2, 100919, Note_on_c, 0, 62, 77
2, 100935, Note_on_c, 0, 85, 81
2, 101007, Note_on_c, 0, 71, 0
2, 101016, Note_on_c, 0, 71, 78
2, 101068, Note_on_c, 0, 76, 0
2, 101068, Note_on_c, 0, 83, 0
2, 101079, Note_on_c, 0, 83, 96
2, 101080, Note_on_c, 0, 76, 83
2, 101099, Note_on_c, 0, 71, 0
2, 101105, Note_on_c, 0, 71, 71
2, 101122, Note_on_c, 0, 59, 0
2, 101131, Note_on_c, 0, 59, 63
2, 101218, Note_on_c, 0, 64, 76
2, 101283, Note_on_c, 0, 59, 0
2, 101283, Note_on_c, 0, 71, 0
2, 101289, Note_on_c, 0, 59, 69
2, 101291, Note_on_c, 0, 71, 65
2, 101314, Note_on_c, 0, 76, 0
2, 101318, Note_on_c, 0, 76, 66
2, 101376, Note_on_c, 0, 64, 0
2, 101380, Note_on_c, 0, 81, 88
2, 101384, Note_on_c, 0, 64, 72
2, 101445, Note_on_c, 0, 59, 0
2, 101451, Note_on_c, 0, 59, 77
2, 101521, Note_on_c, 0, 52, 0
2, 101521, Note_on_c, 0, 81, 0
2, 101533, Note_on_c, 0, 81, 90
2, 101533, Note_on_c, 0, 52, 77
2, 101684, Note_on_c, 0, 62, 0
2, 101685, Note_on_c, 0, 59, 0
2, 101685, Note_on_c, 0, 64, 0
2, 101685, Note_on_c, 0, 40, 0
2, 101685, Note_on_c, 0, 85, 0
2, 101686, Note_on_c, 0, 76, 0
2, 101688, Control_c, 0, 64, 0
2, 101692, Note_on_c, 0, 42, 76
2, 101698, Note_on_c, 0, 47, 0
2, 101698, Note_on_c, 0, 52, 0
2, 101698, Note_on_c, 0, 71, 0
2, 101706, Note_on_c, 0, 83, 0
2, 101767, Control_c, 0, 64, 127
2, 101848, Note_on_c, 0, 88, 84
2, 101853, Note_on_c, 0, 76, 78
2, 101855, Note_on_c, 0, 52, 71
2, 101990, Note_on_c, 0, 76, 0
2, 101990, Note_on_c, 0, 88, 0
2, 101994, Note_on_c, 0, 57, 65
2, 101994, Note_on_c, 0, 76, 81
2, 101997, Note_on_c, 0, 88, 85
2, 102144, Note_on_c, 0, 52, 0
2, 102151, Note_on_c, 0, 88, 0
2, 102154, Note_on_c, 0, 52, 65
2, 102158, Note_on_c, 0, 88, 76
2, 102225, Note_on_c, 0, 95, 72
2, 102265, Note_on_c, 0, 52, 0
2, 102269, Note_on_c, 0, 76, 0
2, 102269, Control_c, 0, 64, 0
2, 102269, Note_on_c, 0, 57, 0
2, 102274, Note_on_c, 0, 42, 0
2, 102274, Note_on_c, 0, 81, 0
2, 102288, Note_on_c, 0, 100, 87
2, 102291, Note_on_c, 0, 47, 72
2, 102336, Control_c, 0, 64, 127
2, 102428, Note_on_c, 0, 88, 0
2, 102433, Note_on_c, 0, 54, 68
2, 102434, Note_on_c, 0, 88, 70
2, 102451, Note_on_c, 0, 95, 0
2, 102574, Note_on_c, 0, 88, 0
2, 102583, Note_on_c, 0, 59, 65
2, 102584, Note_on_c, 0, 88, 84
2, 102586, Note_on_c, 0, 76, 72
2, 102735, Note_on_c, 0, 54, 0
2, 102739, Note_on_c, 0, 54, 67
2, 102741, Note_on_c, 0, 83, 91
2, 102746, Note_on_c, 0, 71, 78
2, 102819, Note_on_c, 0, 100, 0
2, 102825, Control_c, 0, 64, 0
2, 102827, Note_on_c, 0, 88, 0
2, 102827, Note_on_c, 0, 54, 0
2, 102828, Note_on_c, 0, 59, 0
2, 102828, Note_on_c, 0, 47, 0
2, 102874, Note_on_c, 0, 40, 67
2, 102896, Control_c, 0, 64, 127
2, 102962, Note_on_c, 0, 47, 71
2, 103027, Note_on_c, 0, 83, 0
2, 103030, Note_on_c, 0, 52, 75
2, 103034, Note_on_c, 0, 47, 0
2, 103034, Note_on_c, 0, 71, 0
2, 103038, Note_on_c, 0, 83, 79
2, 103044, Note_on_c, 0, 71, 68
2, 103045, Note_on_c, 0, 47, 67
2, 103111, Note_on_c, 0, 59, 75
2, 103180, Note_on_c, 0, 52, 0
2, 103184, Note_on_c, 0, 52, 56
2, 103249, Note_on_c, 0, 59, 0
2, 103255, Note_on_c, 0, 59, 82
2, 103296, Note_on_c, 0, 76, 0
2, 103303, Note_on_c, 0, 76, 69
2, 103315, Note_on_c, 0, 64, 74
2, 103322, Note_on_c, 0, 85, 83
2, 103388, Note_on_c, 0, 59, 0
2, 103388, Note_on_c, 0, 71, 0
2, 103396, Note_on_c, 0, 59, 67
2, 103397, Note_on_c, 0, 71, 81
2, 103457, Note_on_c, 0, 76, 0
2, 103457, Note_on_c, 0, 83, 0
2, 103465, Note_on_c, 0, 83, 91
2, 103468, Note_on_c, 0, 76, 83
2, 103488, Note_on_c, 0, 71, 0
2, 103498, Note_on_c, 0, 71, 65
2, 103503, Note_on_c, 0, 59, 0
2, 103514, Note_on_c, 0, 59, 64
2, 103610, Note_on_c, 0, 64, 0
2, 103614, Note_on_c, 0, 64, 71
2, 103695, Note_on_c, 0, 59, 0
2, 103703, Note_on_c, 0, 76, 0
2, 103706, Note_on_c, 0, 59, 62
2, 103707, Note_on_c, 0, 76, 61
2, 103772, Note_on_c, 0, 52, 0
2, 103776, Note_on_c, 0, 52, 52
2, 103779, Note_on_c, 0, 81, 87
2, 103825, Note_on_c, 0, 59, 0
2, 103835, Note_on_c, 0, 59, 71
2, 103836, Note_on_c, 0, 47, 0
2, 103918, Note_on_c, 0, 81, 0
2, 103925, Note_on_c, 0, 52, 0
2, 103925, Note_on_c, 0, 76, 0
2, 103928, Note_on_c, 0, 81, 92
2, 103934, Note_on_c, 0, 76, 62
2, 103936, Note_on_c, 0, 52, 75
2, 104071, Note_on_c, 0, 64, 0
2, 104074, Note_on_c, 0, 59, 0
2, 104075, Note_on_c, 0, 71, 0
2, 104075, Note_on_c, 0, 83, 0
2, 104075, Note_on_c, 0, 42, 71
2, 104075, Note_on_c, 0, 76, 0
2, 104076, Note_on_c, 0, 85, 0
2, 104079, Control_c, 0, 64, 0
2, 104079, Note_on_c, 0, 40, 0
2, 104080, Note_on_c, 0, 64, 64
2, 104094, Note_on_c, 0, 52, 0
2, 104102, Note_on_c, 0, 64, 0
2, 104163, Control_c, 0, 64, 127
2, 104228, Note_on_c, 0, 52, 68
2, 104244, Note_on_c, 0, 88, 82
2, 104246, Note_on_c, 0, 76, 74
2, 104378, Note_on_c, 0, 76, 0
2, 104378, Note_on_c, 0, 88, 0
2, 104379, Note_on_c, 0, 57, 68
2, 104386, Note_on_c, 0, 88, 84
2, 104387, Note_on_c, 0, 76, 77
2, 104524, Note_on_c, 0, 52, 0
2, 104529, Note_on_c, 0, 52, 63
2, 104547, Note_on_c, 0, 88, 0
2, 104553, Note_on_c, 0, 88, 77
2, 104612, Note_on_c, 0, 95, 67
2, 104651, Note_on_c, 0, 42, 0
2, 104656, Note_on_c, 0, 57, 0
2, 104657, Note_on_c, 0, 76, 0
2, 104657, Control_c, 0, 64, 0
2, 104663, Note_on_c, 0, 81, 0
2, 104670, Note_on_c, 0, 52, 0
2, 104675, Note_on_c, 0, 100, 92
2, 104682, Note_on_c, 0, 47, 75
2, 104716, Control_c, 0, 64, 127
2, 104732, Note_on_c, 0, 95, 0
2, 104738, Note_on_c, 0, 95, 67
2, 104824, Note_on_c, 0, 88, 0
2, 104829, Note_on_c, 0, 54, 67
2, 104833, Note_on_c, 0, 88, 72
2, 104966, Note_on_c, 0, 47, 0
2, 104970, Note_on_c, 0, 88, 0
2, 104973, Note_on_c, 0, 59, 68
2, 104973, Note_on_c, 0, 76, 78
2, 104974, Note_on_c, 0, 88, 76
2, 105129, Note_on_c, 0, 83, 91
2, 105131, Note_on_c, 0, 54, 0
2, 105135, Note_on_c, 0, 54, 56
2, 105141, Note_on_c, 0, 71, 77
2, 105208, Note_on_c, 0, 95, 0
2, 105209, Note_on_c, 0, 88, 0
2, 105210, Control_c, 0, 64, 0
2, 105211, Note_on_c, 0, 100, 0
2, 105211, Note_on_c, 0, 54, 0
2, 105212, Note_on_c, 0, 59, 0
2, 105250, Note_on_c, 0, 40, 70
2, 105285, Control_c, 0, 64, 127
2, 105337, Note_on_c, 0, 47, 76
2, 105403, Note_on_c, 0, 52, 73
2, 105408, Note_on_c, 0, 71, 0
2, 105408, Note_on_c, 0, 83, 0
2, 105413, Note_on_c, 0, 83, 85
2, 105419, Note_on_c, 0, 71, 73
2, 105492, Note_on_c, 0, 59, 74
2, 105546, Note_on_c, 0, 52, 0
2, 105551, Note_on_c, 0, 52, 66
2, 105561, Note_on_c, 0, 76, 0
2, 105607, Note_on_c, 0, 59, 0
2, 105615, Note_on_c, 0, 59, 68
2, 105679, Note_on_c, 0, 64, 74
2, 105704, Note_on_c, 0, 85, 88
2, 105768, Note_on_c, 0, 71, 0
2, 105773, Note_on_c, 0, 71, 76
2, 105836, Note_on_c, 0, 81, 94
2, 105847, Note_on_c, 0, 76, 76
2, 105861, Note_on_c, 0, 71, 0
2, 105871, Note_on_c, 0, 71, 66
2, 105945, Note_on_c, 0, 59, 0
2, 105951, Note_on_c, 0, 59, 62
2, 105960, Note_on_c, 0, 64, 0
2, 105970, Note_on_c, 0, 64, 64
2, 106045, Note_on_c, 0, 59, 0
2, 106050, Note_on_c, 0, 59, 78
2, 106137, Note_on_c, 0, 52, 0
2, 106138, Note_on_c, 0, 81, 0
2, 106143, Note_on_c, 0, 80, 80
2, 106145, Note_on_c, 0, 76, 0
2, 106145, Note_on_c, 0, 52, 88
2, 106149, Note_on_c, 0, 88, 95
2, 106152, Note_on_c, 0, 80, 0
2, 106154, Note_on_c, 0, 76, 90
2, 106260, Note_on_c, 0, 59, 0
2, 106265, Note_on_c, 0, 59, 51
2, 106412, Note_on_c, 0, 52, 0
2, 106412, Control_c, 0, 64, 0
2, 106412, Note_on_c, 0, 71, 0
2, 106413, Note_on_c, 0, 76, 0
2, 106413, Note_on_c, 0, 83, 0
2, 106413, Note_on_c, 0, 85, 0
2, 106413, Note_on_c, 0, 88, 0
2, 106413, Note_on_c, 0, 59, 0
2, 106414, Note_on_c, 0, 40, 0
2, 106415, Note_on_c, 0, 64, 0
2, 106429, Note_on_c, 0, 47, 0
2, 106447, Note_on_c, 0, 86, 96
2, 106451, Note_on_c, 0, 47, 85
2, 106453, Note_on_c, 0, 35, 81
2, 106483, Control_c, 0, 64, 127
2, 106519, Note_on_c, 0, 78, 84
2, 106593, Note_on_c, 0, 74, 75
2, 106620, Note_on_c, 0, 50, 67
2, 106667, Note_on_c, 0, 78, 0
2, 106678, Note_on_c, 0, 78, 74
2, 106754, Note_on_c, 0, 85, 97
2, 106754, Note_on_c, 0, 59, 67
2, 106828, Note_on_c, 0, 78, 0
2, 106839, Note_on_c, 0, 78, 74
2, 106890, Note_on_c, 0, 59, 0
2, 106897, Note_on_c, 0, 47, 0
2, 106901, Note_on_c, 0, 59, 76
2, 106905, Note_on_c, 0, 50, 0
2, 106910, Note_on_c, 0, 73, 80
2, 106911, Note_on_c, 0, 50, 75
2, 106967, Note_on_c, 0, 78, 0
2, 106977, Note_on_c, 0, 78, 73
2, 107020, Control_c, 0, 64, 0
2, 107020, Note_on_c, 0, 35, 0
2, 107033, Note_on_c, 0, 86, 0
2, 107033, Note_on_c, 0, 50, 0
2, 107033, Note_on_c, 0, 85, 0
2, 107033, Note_on_c, 0, 78, 0
2, 107033, Note_on_c, 0, 73, 0
2, 107033, Note_on_c, 0, 74, 0
2, 107034, Note_on_c, 0, 59, 0
2, 107059, Note_on_c, 0, 83, 96
2, 107062, Note_on_c, 0, 37, 80
2, 107062, Note_on_c, 0, 49, 84
2, 107089, Control_c, 0, 64, 127
2, 107140, Note_on_c, 0, 76, 75
2, 107222, Note_on_c, 0, 61, 83
2, 107225, Note_on_c, 0, 71, 72
2, 107229, Note_on_c, 0, 52, 67
2, 107289, Note_on_c, 0, 76, 0
2, 107297, Note_on_c, 0, 76, 80
2, 107358, Note_on_c, 0, 52, 0
2, 107363, Note_on_c, 0, 81, 98
2, 107364, Note_on_c, 0, 52, 61
2, 107443, Note_on_c, 0, 76, 0
2, 107453, Note_on_c, 0, 76, 65
2, 107496, Note_on_c, 0, 61, 0
2, 107502, Note_on_c, 0, 69, 73
2, 107504, Note_on_c, 0, 49, 0
2, 107504, Note_on_c, 0, 52, 0
2, 107504, Note_on_c, 0, 61, 74
2, 107514, Note_on_c, 0, 49, 62
2, 107514, Note_on_c, 0, 52, 71
2, 107543, Note_on_c, 0, 76, 0
2, 107549, Note_on_c, 0, 76, 75
2, 107620, Note_on_c, 0, 37, 0
2, 107622, Note_on_c, 0, 49, 0
2, 107622, Note_on_c, 0, 81, 0
2, 107622, Note_on_c, 0, 71, 0
2, 107622, Note_on_c, 0, 83, 0
2, 107622, Note_on_c, 0, 52, 0
2, 107623, Control_c, 0, 64, 0
2, 107623, Note_on_c, 0, 76, 0
2, 107623, Note_on_c, 0, 69, 0
2, 107623, Note_on_c, 0, 61, 0
2, 107656, Note_on_c, 0, 88, 100
2, 107664, Note_on_c, 0, 38, 91
2, 107669, Note_on_c, 0, 50, 81
2, 107696, Control_c, 0, 64, 127
2, 107736, Note_on_c, 0, 78, 84
2, 107804, Note_on_c, 0, 62, 72
2, 107812, Note_on_c, 0, 54, 58
2, 107813, Note_on_c, 0, 76, 83
2, 107896, Note_on_c, 0, 78, 0
2, 107900, Note_on_c, 0, 78, 77
2, 107960, Note_on_c, 0, 86, 98
2, 108019, Note_on_c, 0, 38, 0
2, 108019, Note_on_c, 0, 50, 0
2, 108019, Note_on_c, 0, 78, 0
2, 108023, Note_on_c, 0, 38, 58
2, 108024, Note_on_c, 0, 50, 55
2, 108029, Note_on_c, 0, 78, 84
2, 108103, Note_on_c, 0, 62, 0
2, 108109, Note_on_c, 0, 74, 81
2, 108111, Note_on_c, 0, 54, 0
2, 108112, Note_on_c, 0, 62, 76
2, 108118, Note_on_c, 0, 54, 67
2, 108157, Note_on_c, 0, 78, 0
2, 108165, Note_on_c, 0, 78, 80
2, 108222, Control_c, 0, 64, 0
2, 108223, Note_on_c, 0, 54, 0
2, 108223, Note_on_c, 0, 74, 0
2, 108223, Note_on_c, 0, 76, 0
2, 108223, Note_on_c, 0, 50, 0
2, 108223, Note_on_c, 0, 62, 0
2, 108223, Note_on_c, 0, 88, 0
2, 108223, Note_on_c, 0, 86, 0
2, 108224, Note_on_c, 0, 78, 0
2, 108227, Note_on_c, 0, 38, 0
2, 108260, Note_on_c, 0, 85, 92
2, 108267, Note_on_c, 0, 40, 85
2, 108267, Note_on_c, 0, 52, 90
2, 108295, Control_c, 0, 64, 127
2, 108324, Note_on_c, 0, 76, 83
2, 108403, Note_on_c, 0, 52, 0
2, 108407, Note_on_c, 0, 73, 83
2, 108409, Note_on_c, 0, 68, 69
2, 108412, Note_on_c, 0, 64, 72
2, 108414, Note_on_c, 0, 52, 70
2, 108414, Note_on_c, 0, 56, 69
2, 108480, Note_on_c, 0, 76, 0
2, 108488, Note_on_c, 0, 76, 77
2, 108564, Note_on_c, 0, 52, 0
2, 108566, Note_on_c, 0, 83, 93
2, 108575, Note_on_c, 0, 52, 64
2, 108633, Note_on_c, 0, 76, 0
2, 108637, Note_on_c, 0, 76, 77
2, 108687, Note_on_c, 0, 56, 0
2, 108687, Note_on_c, 0, 64, 0
2, 108692, Note_on_c, 0, 56, 55
2, 108695, Note_on_c, 0, 52, 0
2, 108697, Note_on_c, 0, 64, 66
2, 108700, Note_on_c, 0, 52, 73
2, 108722, Note_on_c, 0, 71, 70
2, 108779, Note_on_c, 0, 76, 0
2, 108784, Note_on_c, 0, 76, 75
2, 108855, Note_on_c, 0, 68, 0
2, 108855, Note_on_c, 0, 56, 0
2, 108856, Note_on_c, 0, 71, 0
2, 108856, Note_on_c, 0, 52, 0
2, 108856, Note_on_c, 0, 76, 0
2, 108856, Note_on_c, 0, 85, 0
2, 108856, Control_c, 0, 64, 0
2, 108857, Note_on_c, 0, 73, 0
2, 108858, Note_on_c, 0, 83, 0
2, 108864, Note_on_c, 0, 40, 0
2, 108864, Note_on_c, 0, 64, 0
2, 108883, Note_on_c, 0, 81, 99
2, 108890, Note_on_c, 0, 69, 83
2, 108891, Note_on_c, 0, 42, 66
2, 108891, Note_on_c, 0, 76, 78
2, 108933, Control_c, 0, 64, 127
2, 109058, Note_on_c, 0, 49, 57
2, 109201, Note_on_c, 0, 69, 0
2, 109211, Note_on_c, 0, 54, 48
2, 109213, Note_on_c, 0, 69, 46
2, 109218, Note_on_c, 0, 73, 47
2, 109241, Note_on_c, 0, 66, 36
2, 109248, Note_on_c, 0, 66, 0
2, 109345, Note_on_c, 0, 61, 57
2, 109486, Note_on_c, 0, 81, 0
2, 109494, Note_on_c, 0, 81, 60
2, 109495, Note_on_c, 0, 102, 86
2, 109495, Note_on_c, 0, 90, 77
2, 109506, Note_on_c, 0, 66, 63
2, 109662, Note_on_c, 0, 61, 0
2, 109671, Note_on_c, 0, 61, 48
2, 109807, Note_on_c, 0, 95, 77
2, 109808, Note_on_c, 0, 66, 0
2, 109816, Note_on_c, 0, 66, 67
2, 109818, Note_on_c, 0, 83, 61
2, 109954, Note_on_c, 0, 73, 0
2, 109962, Note_on_c, 0, 73, 68
2, 110119, Note_on_c, 0, 97, 84
2, 110121, Note_on_c, 0, 85, 83
2, 110125, Note_on_c, 0, 78, 70
2, 110261, Note_on_c, 0, 73, 0
2, 110273, Note_on_c, 0, 73, 64
2, 110346, Note_on_c, 0, 76, 0
2, 110410, Note_on_c, 0, 88, 82
2, 110421, Note_on_c, 0, 76, 64
2, 110430, Note_on_c, 0, 66, 0
2, 110439, Note_on_c, 0, 66, 62
2, 110545, Note_on_c, 0, 61, 0
2, 110556, Note_on_c, 0, 61, 63
2, 110707, Note_on_c, 0, 78, 0
2, 110707, Note_on_c, 0, 90, 0
2, 110714, Note_on_c, 0, 54, 0
2, 110714, Note_on_c, 0, 66, 0
2, 110716, Note_on_c, 0, 90, 83
2, 110718, Note_on_c, 0, 78, 82
2, 110721, Note_on_c, 0, 54, 45
2, 110724, Note_on_c, 0, 66, 67
2, 110853, Note_on_c, 0, 61, 0
2, 110863, Note_on_c, 0, 61, 58
2, 111006, Note_on_c, 0, 83, 0
2, 111011, Note_on_c, 0, 83, 84
2, 111014, Note_on_c, 0, 54, 0
2, 111017, Note_on_c, 0, 71, 72
2, 111024, Note_on_c, 0, 54, 48
2, 111183, Note_on_c, 0, 49, 0
2, 111188, Note_on_c, 0, 49, 45
2, 111321, Note_on_c, 0, 85, 0
2, 111329, Note_on_c, 0, 42, 0
2, 111329, Note_on_c, 0, 85, 75
2, 111334, Note_on_c, 0, 42, 55
2, 111335, Note_on_c, 0, 102, 0
2, 111335, Note_on_c, 0, 69, 0
2, 111336, Note_on_c, 0, 90, 0
2, 111336, Note_on_c, 0, 61, 0
2, 111336, Note_on_c, 0, 73, 0
2, 111336, Note_on_c, 0, 78, 0
2, 111337, Note_on_c, 0, 95, 0
2, 111337, Note_on_c, 0, 81, 0
2, 111337, Note_on_c, 0, 71, 0
2, 111338, Note_on_c, 0, 83, 0
2, 111338, Note_on_c, 0, 54, 0
2, 111338, Note_on_c, 0, 97, 0
2, 111338, Note_on_c, 0, 66, 0
2, 111338, Note_on_c, 0, 49, 0
2, 111340, Control_c, 0, 64, 0
2, 111340, Note_on_c, 0, 76, 0
2, 111340, Note_on_c, 0, 82, 67
2, 111342, Note_on_c, 0, 78, 61
2, 111344, Note_on_c, 0, 88, 0
2, 111346, Note_on_c, 0, 73, 58
2, 111459, Control_c, 0, 64, 127
2, 111478, Note_on_c, 0, 49, 59
2, 111638, Note_on_c, 0, 54, 54
2, 111787, Note_on_c, 0, 61, 64
2, 111943, Note_on_c, 0, 66, 73
2, 112081, Note_on_c, 0, 61, 0
2, 112087, Note_on_c, 0, 61, 76
2, 112227, Note_on_c, 0, 66, 0
2, 112233, Note_on_c, 0, 66, 86
2, 112366, Note_on_c, 0, 73, 0
2, 112374, Note_on_c, 0, 73, 83
2, 112528, Control_c, 0, 64, 0
2, 112529, Note_on_c, 0, 66, 0
2, 112530, Note_on_c, 0, 49, 0
2, 112530, Note_on_c, 0, 61, 0
2, 112530, Note_on_c, 0, 54, 0
2, 112530, Note_on_c, 0, 73, 0
2, 112530, Note_on_c, 0, 82, 0
2, 112530, Note_on_c, 0, 42, 0
2, 112530, Note_on_c, 0, 78, 0
2, 112538, Note_on_c, 0, 92, 98
2, 112541, Note_on_c, 0, 39, 87
2, 112543, Note_on_c, 0, 80, 89
2, 112544, Note_on_c, 0, 51, 88
2, 112550, Note_on_c, 0, 85, 0
2, 112604, Control_c, 0, 64, 127
2, 112622, Note_on_c, 0, 87, 84
2, 112701, Note_on_c, 0, 85, 86
2, 112757, Note_on_c, 0, 80, 0
2, 112766, Note_on_c, 0, 80, 86
2, 112853, Note_on_c, 0, 75, 95
2, 112935, Note_on_c, 0, 73, 84
2, 112976, Note_on_c, 0, 68, 83
2, 113034, Note_on_c, 0, 73, 0
2, 113043, Note_on_c, 0, 73, 89
2, 113126, Note_on_c, 0, 92, 0
2, 113138, Note_on_c, 0, 87, 0
2, 113138, Note_on_c, 0, 68, 0
2, 113139, Note_on_c, 0, 80, 0
2, 113141, Note_on_c, 0, 39, 0
2, 113141, Note_on_c, 0, 75, 0
2, 113143, Note_on_c, 0, 85, 0
2, 113143, Note_on_c, 0, 79, 103
2, 113145, Control_c, 0, 64, 0
2, 113147, Note_on_c, 0, 67, 99
2, 113148, Note_on_c, 0, 39, 93
2, 113149, Note_on_c, 0, 75, 97
2, 113149, Note_on_c, 0, 27, 95
2, 113152, Note_on_c, 0, 70, 93
2, 113330, Note_on_c, 0, 67, 0
2, 113331, Note_on_c, 0, 79, 0
2, 113333, Note_on_c, 0, 51, 0
2, 113335, Note_on_c, 0, 75, 0
2, 113338, Note_on_c, 0, 73, 0
2, 113364, Note_on_c, 0, 70, 0
2, 113425, Note_on_c, 0, 27, 0
2, 113447, Note_on_c, 0, 75, 107
2, 113595, Note_on_c, 0, 78, 105
2, 113610, Note_on_c, 0, 39, 0
2, 113748, Note_on_c, 0, 78, 0
2, 113756, Note_on_c, 0, 75, 0
2, 113758, Note_on_c, 0, 78, 107
2, 113759, Note_on_c, 0, 66, 107
2, 113759, Note_on_c, 0, 44, 98
2, 113759, Note_on_c, 0, 32, 94
2, 113760, Note_on_c, 0, 75, 98
2, 113764, Note_on_c, 0, 71, 92
2, 113794, Control_c, 0, 64, 127
2, 113902, Note_on_c, 0, 44, 0
2, 113906, Note_on_c, 0, 44, 76
2, 114054, Note_on_c, 0, 83, 102
2, 114055, Note_on_c, 0, 75, 0
2, 114062, Note_on_c, 0, 75, 97
2, 114063, Note_on_c, 0, 71, 0
2, 114067, Note_on_c, 0, 71, 76
2, 114068, Note_on_c, 0, 51, 75
2, 114223, Note_on_c, 0, 59, 89
2, 114227, Note_on_c, 0, 73, 100
2, 114227, Note_on_c, 0, 82, 103
2, 114228, Note_on_c, 0, 56, 71
2, 114531, Note_on_c, 0, 51, 0
2, 114531, Note_on_c, 0, 71, 0
2, 114533, Note_on_c, 0, 80, 106
2, 114536, Note_on_c, 0, 71, 93
2, 114542, Note_on_c, 0, 51, 81
2, 114685, Note_on_c, 0, 56, 0
2, 114685, Note_on_c, 0, 59, 0
2, 114685, Note_on_c, 0, 71, 0
2, 114689, Note_on_c, 0, 63, 93
2, 114690, Note_on_c, 0, 59, 80
2, 114694, Note_on_c, 0, 71, 75
2, 114694, Note_on_c, 0, 56, 72
2, 114695, Note_on_c, 0, 68, 78
2, 114831, Note_on_c, 0, 59, 0
2, 114831, Note_on_c, 0, 68, 0
2, 114831, Note_on_c, 0, 71, 0
2, 114831, Note_on_c, 0, 75, 0
2, 114835, Note_on_c, 0, 75, 106
2, 114837, Note_on_c, 0, 68, 93
2, 114841, Note_on_c, 0, 59, 82
2, 114841, Note_on_c, 0, 71, 89
2, 114919, Note_on_c, 0, 82, 0
2, 114919, Note_on_c, 0, 44, 0
2, 114920, Control_c, 0, 64, 0
2, 114920, Note_on_c, 0, 78, 0
2, 114920, Note_on_c, 0, 32, 0
2, 114920, Note_on_c, 0, 56, 0
2, 114920, Note_on_c, 0, 63, 0
2, 114920, Note_on_c, 0, 73, 0
2, 114920, Note_on_c, 0, 83, 0
2, 114920, Note_on_c, 0, 80, 0
2, 114920, Note_on_c, 0, 59, 0
2, 114920, Note_on_c, 0, 66, 0
2, 114931, Note_on_c, 0, 51, 0
2, 114976, Note_on_c, 0, 40, 92
2, 114979, Note_on_c, 0, 28, 87
2, 114992, Control_c, 0, 64, 127
2, 115159, Note_on_c, 0, 63, 71
2, 115181, Note_on_c, 0, 52, 57
2, 115223, Note_on_c, 0, 68, 0
2, 115231, Note_on_c, 0, 68, 89
2, 115253, Note_on_c, 0, 71, 0
2, 115260, Note_on_c, 0, 71, 68
2, 115276, Note_on_c, 0, 52, 0
2, 115282, Note_on_c, 0, 52, 81
2, 115299, Note_on_c, 0, 75, 0
2, 115309, Note_on_c, 0, 75, 101
2, 115453, Note_on_c, 0, 68, 0
2, 115464, Note_on_c, 0, 73, 100
2, 115464, Note_on_c, 0, 68, 79
2, 115466, Note_on_c, 0, 56, 82
2, 115470, Note_on_c, 0, 59, 82
2, 115752, Note_on_c, 0, 71, 0
2, 115763, Note_on_c, 0, 71, 94
2, 115768, Note_on_c, 0, 52, 0
2, 115777, Note_on_c, 0, 52, 87
2, 115906, Note_on_c, 0, 59, 0
2, 115916, Note_on_c, 0, 59, 85
2, 115917, Note_on_c, 0, 64, 93
2, 116060, Note_on_c, 0, 71, 0
2, 116066, Note_on_c, 0, 71, 93
2, 116071, Note_on_c, 0, 59, 0
2, 116164, Control_c, 0, 64, 0
2, 116166, Note_on_c, 0, 40, 0
2, 116167, Note_on_c, 0, 56, 0
2, 116167, Note_on_c, 0, 63, 0
2, 116167, Note_on_c, 0, 68, 0
2, 116168, Note_on_c, 0, 75, 0
2, 116168, Note_on_c, 0, 64, 0
2, 116169, Note_on_c, 0, 71, 0
2, 116190, Note_on_c, 0, 28, 0
2, 116190, Note_on_c, 0, 52, 0
2, 116206, Note_on_c, 0, 73, 0
2, 116216, Note_on_c, 0, 73, 100
2, 116219, Note_on_c, 0, 42, 89
2, 116221, Note_on_c, 0, 30, 90
2, 116224, Note_on_c, 0, 70, 90
2, 116224, Note_on_c, 0, 61, 83
2, 116226, Note_on_c, 0, 64, 76
2, 116229, Note_on_c, 0, 61, 0
2, 116267, Control_c, 0, 64, 127
2, 116375, Note_on_c, 0, 42, 0
2, 116382, Note_on_c, 0, 42, 69
2, 116536, Note_on_c, 0, 30, 0
2, 116536, Note_on_c, 0, 42, 0
2, 116536, Note_on_c, 0, 70, 0
2, 116536, Note_on_c, 0, 73, 0
2, 116540, Note_on_c, 0, 42, 69
2, 116542, Note_on_c, 0, 73, 96
2, 116542, Note_on_c, 0, 30, 70
2, 116547, Note_on_c, 0, 70, 87
2, 116692, Note_on_c, 0, 61, 83
2, 116693, Note_on_c, 0, 71, 92
2, 116694, Note_on_c, 0, 68, 87
2, 116695, Note_on_c, 0, 58, 71
2, 116828, Note_on_c, 0, 73, 0
2, 116835, Note_on_c, 0, 61, 0
2, 116839, Note_on_c, 0, 73, 98
2, 116843, Note_on_c, 0, 70, 0
2, 116845, Note_on_c, 0, 61, 70
2, 116849, Note_on_c, 0, 70, 82
2, 116997, Note_on_c, 0, 42, 0
2, 116997, Note_on_c, 0, 71, 0
2, 117000, Note_on_c, 0, 75, 101
2, 117001, Note_on_c, 0, 71, 87
2, 117005, Note_on_c, 0, 54, 79
2, 117007, Note_on_c, 0, 42, 72
2, 117135, Note_on_c, 0, 54, 0
2, 117135, Note_on_c, 0, 61, 0
2, 117143, Note_on_c, 0, 66, 90
2, 117144, Note_on_c, 0, 61, 84
2, 117145, Note_on_c, 0, 54, 78
2, 117296, Note_on_c, 0, 75, 0
2, 117304, Note_on_c, 0, 42, 0
2, 117304, Note_on_c, 0, 71, 0
2, 117305, Note_on_c, 0, 75, 104
2, 117308, Note_on_c, 0, 71, 90
2, 117311, Note_on_c, 0, 42, 68
2, 117384, Note_on_c, 0, 30, 0
2, 117385, Note_on_c, 0, 54, 0
2, 117385, Note_on_c, 0, 66, 0
2, 117385, Note_on_c, 0, 73, 0
2, 117386, Note_on_c, 0, 70, 0
2, 117386, Note_on_c, 0, 61, 0
2, 117387, Note_on_c, 0, 68, 0
2, 117388, Note_on_c, 0, 64, 0
2, 117391, Control_c, 0, 64, 0
2, 117396, Note_on_c, 0, 58, 0
2, 117446, Note_on_c, 0, 47, 92
2, 117450, Note_on_c, 0, 35, 81
2, 117465, Control_c, 0, 64, 127
2, 117596, Note_on_c, 0, 47, 0
2, 117603, Note_on_c, 0, 47, 83
2, 117756, Note_on_c, 0, 59, 72
2, 117763, Note_on_c, 0, 54, 63
2, 117763, Note_on_c, 0, 51, 81
2, 117900, Note_on_c, 0, 51, 0
2, 117906, Note_on_c, 0, 63, 83
2, 117997, Control_c, 0, 64, 0
2, 117999, Note_on_c, 0, 63, 0
2, 117999, Note_on_c, 0, 47, 0
2, 118000, Note_on_c, 0, 54, 0
2, 118001, Note_on_c, 0, 59, 0
2, 118010, Note_on_c, 0, 42, 0
2, 118018, Note_on_c, 0, 35, 0
2, 118018, Note_on_c, 0, 71, 0
2, 118033, Note_on_c, 0, 75, 0
2, 118046, Note_on_c, 0, 46, 87
2, 118048, Note_on_c, 0, 61, 91
2, 118049, Note_on_c, 0, 34, 84
2, 118052, Note_on_c, 0, 70, 77
2, 118072, Control_c, 0, 64, 127
2, 118202, Note_on_c, 0, 46, 0
2, 118208, Note_on_c, 0, 58, 77
2, 118210, Note_on_c, 0, 46, 87
2, 118314, Control_c, 0, 64, 0
2, 118348, Note_on_c, 0, 58, 0
2, 118359, Note_on_c, 0, 58, 95
2, 118360, Note_on_c, 0, 75, 109
2, 118365, Note_on_c, 0, 49, 81
2, 118366, Note_on_c, 0, 54, 77
2, 118371, Control_c, 0, 64, 127
2, 118514, Note_on_c, 0, 78, 103
2, 118606, Control_c, 0, 64, 0
2, 118607, Note_on_c, 0, 61, 0
2, 118607, Note_on_c, 0, 49, 0
2, 118607, Note_on_c, 0, 54, 0
2, 118607, Note_on_c, 0, 58, 0
2, 118608, Note_on_c, 0, 75, 0
2, 118611, Note_on_c, 0, 78, 0
2, 118625, Note_on_c, 0, 34, 0
2, 118625, Note_on_c, 0, 46, 0
2, 118625, Note_on_c, 0, 70, 0
2, 118667, Note_on_c, 0, 78, 109
2, 118669, Note_on_c, 0, 44, 93
2, 118669, Note_on_c, 0, 32, 89
2, 118670, Note_on_c, 0, 75, 96
2, 118670, Note_on_c, 0, 71, 96
2, 118686, Control_c, 0, 64, 127
2, 118700, Note_on_c, 0, 32, 0
2, 118824, Note_on_c, 0, 44, 0
2, 118829, Note_on_c, 0, 44, 61
2, 118963, Note_on_c, 0, 75, 0
2, 118965, Note_on_c, 0, 83, 102
2, 118967, Note_on_c, 0, 75, 98
2, 118974, Note_on_c, 0, 51, 58
2, 119123, Note_on_c, 0, 82, 105
2, 119123, Note_on_c, 0, 73, 101
2, 119132, Note_on_c, 0, 51, 0
2, 119135, Note_on_c, 0, 59, 87
2, 119137, Note_on_c, 0, 51, 60
2, 119138, Note_on_c, 0, 56, 62
2, 119416, Note_on_c, 0, 71, 0
2, 119419, Note_on_c, 0, 80, 105
2, 119423, Note_on_c, 0, 71, 92
2, 119424, Note_on_c, 0, 59, 0
2, 119428, Note_on_c, 0, 63, 76
2, 119431, Note_on_c, 0, 51, 0
2, 119435, Note_on_c, 0, 59, 77
2, 119439, Note_on_c, 0, 51, 82
2, 119569, Note_on_c, 0, 56, 0
2, 119569, Note_on_c, 0, 59, 0
2, 119569, Note_on_c, 0, 63, 0
2, 119573, Note_on_c, 0, 63, 90
2, 119575, Note_on_c, 0, 59, 79
2, 119578, Note_on_c, 0, 56, 81
2, 119731, Note_on_c, 0, 59, 0
2, 119731, Note_on_c, 0, 63, 0
2, 119731, Note_on_c, 0, 75, 0
2, 119736, Note_on_c, 0, 75, 108
2, 119737, Note_on_c, 0, 63, 79
2, 119738, Note_on_c, 0, 71, 0
2, 119739, Note_on_c, 0, 68, 96
2, 119742, Note_on_c, 0, 59, 84
2, 119742, Note_on_c, 0, 71, 89
2, 119798, Note_on_c, 0, 82, 0
2, 119799, Note_on_c, 0, 44, 0
2, 119800, Note_on_c, 0, 78, 0
2, 119800, Control_c, 0, 64, 0
2, 119800, Note_on_c, 0, 73, 0
2, 119800, Note_on_c, 0, 83, 0
2, 119801, Note_on_c, 0, 56, 0
2, 119801, Note_on_c, 0, 80, 0
2, 119808, Note_on_c, 0, 51, 0
2, 119861, Control_c, 0, 64, 127
2, 119869, Note_on_c, 0, 68, 0
2, 119872, Note_on_c, 0, 40, 93
2, 119874, Note_on_c, 0, 28, 87
2, 119876, Note_on_c, 0, 68, 73
2, 120038, Note_on_c, 0, 40, 0
2, 120038, Note_on_c, 0, 68, 0
2, 120043, Note_on_c, 0, 40, 72
2, 120049, Note_on_c, 0, 68, 71
2, 120061, Note_on_c, 0, 63, 0
2, 120071, Note_on_c, 0, 63, 70
2, 120122, Note_on_c, 0, 68, 0
2, 120127, Note_on_c, 0, 68, 81
2, 120153, Note_on_c, 0, 71, 0
2, 120161, Note_on_c, 0, 71, 78
2, 120173, Note_on_c, 0, 52, 73
2, 120176, Note_on_c, 0, 75, 0
2, 120187, Note_on_c, 0, 75, 105
2, 120337, Note_on_c, 0, 59, 0
2, 120337, Note_on_c, 0, 68, 0
2, 120341, Note_on_c, 0, 73, 96
2, 120343, Note_on_c, 0, 59, 84
2, 120346, Note_on_c, 0, 64, 72
2, 120346, Note_on_c, 0, 68, 76
2, 120347, Note_on_c, 0, 56, 78
2, 120622, Note_on_c, 0, 71, 0
2, 120631, Note_on_c, 0, 71, 98
2, 120652, Note_on_c, 0, 40, 0
2, 120652, Note_on_c, 0, 52, 0
2, 120652, Note_on_c, 0, 59, 0
2, 120652, Note_on_c, 0, 64, 0
2, 120657, Note_on_c, 0, 64, 64
2, 120657, Note_on_c, 0, 52, 71
2, 120658, Note_on_c, 0, 40, 69
2, 120658, Note_on_c, 0, 59, 64
2, 120775, Note_on_c, 0, 64, 0
2, 120783, Note_on_c, 0, 52, 0
2, 120783, Note_on_c, 0, 59, 0
2, 120783, Note_on_c, 0, 71, 0
2, 120786, Note_on_c, 0, 64, 88
2, 120787, Note_on_c, 0, 59, 85
2, 120793, Note_on_c, 0, 52, 74
2, 120794, Note_on_c, 0, 71, 76
2, 120921, Note_on_c, 0, 73, 0
2, 120931, Note_on_c, 0, 73, 102
2, 121038, Note_on_c, 0, 73, 0
2, 121038, Note_on_c, 0, 40, 0
2, 121038, Note_on_c, 0, 68, 0
2, 121038, Note_on_c, 0, 71, 0
2, 121038, Note_on_c, 0, 56, 0
2, 121038, Note_on_c, 0, 59, 0
2, 121038, Note_on_c, 0, 64, 0
2, 121039, Note_on_c, 0, 75, 0
2, 121039, Note_on_c, 0, 52, 0
2, 121040, Control_c, 0, 64, 0
2, 121052, Note_on_c, 0, 28, 0
2, 121052, Note_on_c, 0, 63, 0
2, 121082, Note_on_c, 0, 85, 103
2, 121084, Note_on_c, 0, 42, 94
2, 121084, Note_on_c, 0, 30, 93
2, 121086, Note_on_c, 0, 73, 104
2, 121087, Note_on_c, 0, 78, 96
2, 121087, Note_on_c, 0, 82, 96
2, 121098, Control_c, 0, 64, 127
2, 121382, Note_on_c, 0, 73, 0
2, 121382, Note_on_c, 0, 85, 0
2, 121385, Note_on_c, 0, 54, 67
2, 121386, Note_on_c, 0, 85, 102
2, 121387, Note_on_c, 0, 73, 97
2, 121391, Note_on_c, 0, 61, 64
2, 121397, Note_on_c, 0, 61, 0
2, 121528, Note_on_c, 0, 54, 0
2, 121530, Note_on_c, 0, 61, 80
2, 121531, Note_on_c, 0, 66, 89
2, 121532, Note_on_c, 0, 83, 104
2, 121533, Note_on_c, 0, 58, 67
2, 121534, Note_on_c, 0, 54, 73
2, 121537, Note_on_c, 0, 71, 96
2, 121681, Note_on_c, 0, 85, 0
2, 121689, Note_on_c, 0, 73, 0
2, 121692, Note_on_c, 0, 85, 100
2, 121694, Note_on_c, 0, 73, 97
2, 121712, Note_on_c, 0, 58, 0
2, 121720, Note_on_c, 0, 54, 0
2, 121720, Note_on_c, 0, 61, 0
2, 121721, Note_on_c, 0, 58, 67
2, 121724, Note_on_c, 0, 61, 54
2, 121726, Note_on_c, 0, 54, 61
2, 121835, Note_on_c, 0, 54, 0
2, 121835, Note_on_c, 0, 66, 0
2, 121835, Note_on_c, 0, 71, 0
2, 121835, Note_on_c, 0, 83, 0
2, 121839, Note_on_c, 0, 83, 98
2, 121843, Note_on_c, 0, 61, 0
2, 121844, Note_on_c, 0, 54, 79
2, 121844, Note_on_c, 0, 71, 85
2, 121846, Note_on_c, 0, 66, 83
2, 121853, Note_on_c, 0, 61, 70
2, 121989, Note_on_c, 0, 54, 0
2, 121989, Note_on_c, 0, 61, 0
2, 121989, Note_on_c, 0, 82, 0
2, 121993, Note_on_c, 0, 61, 83
2, 121994, Note_on_c, 0, 54, 78
2, 121995, Note_on_c, 0, 82, 97
2, 121997, Note_on_c, 0, 70, 94
2, 122142, Note_on_c, 0, 42, 0
2, 122142, Note_on_c, 0, 71, 0
2, 122142, Note_on_c, 0, 83, 0
2, 122147, Note_on_c, 0, 83, 106
2, 122150, Note_on_c, 0, 42, 66
2, 122152, Note_on_c, 0, 71, 97
2, 122248, Control_c, 0, 64, 0
2, 122250, Note_on_c, 0, 54, 0
2, 122250, Note_on_c, 0, 58, 0
2, 122250, Note_on_c, 0, 42, 0
2, 122251, Note_on_c, 0, 82, 0
2, 122251, Note_on_c, 0, 78, 0
2, 122251, Note_on_c, 0, 66, 0
2, 122251, Note_on_c, 0, 73, 0
2, 122251, Note_on_c, 0, 61, 0
2, 122252, Note_on_c, 0, 85, 0
2, 122252, Note_on_c, 0, 70, 0
2, 122257, Note_on_c, 0, 30, 0
2, 122292, Note_on_c, 0, 47, 96
2, 122296, Note_on_c, 0, 35, 87
2, 122296, Note_on_c, 0, 75, 96
2, 122304, Control_c, 0, 64, 127
2, 122439, Note_on_c, 0, 76, 77
2, 122449, Note_on_c, 0, 35, 0
2, 122449, Note_on_c, 0, 47, 0
2, 122455, Note_on_c, 0, 47, 81
2, 122458, Note_on_c, 0, 35, 71
2, 122595, Note_on_c, 0, 75, 0
2, 122599, Note_on_c, 0, 63, 76
2, 122599, Note_on_c, 0, 51, 78
2, 122600, Note_on_c, 0, 75, 86
2, 122604, Note_on_c, 0, 70, 72
2, 122607, Note_on_c, 0, 61, 69
2, 122611, Note_on_c, 0, 61, 0
2, 122611, Note_on_c, 0, 70, 0
2, 122726, Control_c, 0, 64, 0
2, 122730, Note_on_c, 0, 51, 0
2, 122730, Note_on_c, 0, 47, 0
2, 122730, Note_on_c, 0, 75, 0
2, 122730, Note_on_c, 0, 76, 0
2, 122731, Note_on_c, 0, 63, 0
2, 122741, Note_on_c, 0, 83, 0
2, 122749, Note_on_c, 0, 71, 0
2, 122752, Note_on_c, 0, 46, 95
2, 122752, Note_on_c, 0, 73, 92
2, 122754, Note_on_c, 0, 61, 79
2, 122754, Note_on_c, 0, 34, 90
2, 122755, Note_on_c, 0, 66, 76
2, 122757, Note_on_c, 0, 70, 86
2, 122764, Note_on_c, 0, 35, 0
2, 122803, Control_c, 0, 64, 127
2, 123048, Note_on_c, 0, 70, 0
2, 123051, Note_on_c, 0, 75, 91
2, 123052, Note_on_c, 0, 49, 87
2, 123054, Note_on_c, 0, 63, 67
2, 123055, Note_on_c, 0, 70, 67
2, 123194, Note_on_c, 0, 73, 0
2, 123199, Note_on_c, 0, 73, 94
2, 123200, Note_on_c, 0, 54, 80
2, 123202, Note_on_c, 0, 61, 0
2, 123202, Note_on_c, 0, 66, 0
2, 123206, Note_on_c, 0, 66, 63
2, 123207, Note_on_c, 0, 61, 68
2, 123344, Note_on_c, 0, 71, 86
2, 123444, Note_on_c, 0, 61, 0
2, 123444, Note_on_c, 0, 73, 0
2, 123444, Note_on_c, 0, 49, 0
2, 123444, Note_on_c, 0, 75, 0
2, 123444, Note_on_c, 0, 54, 0
2, 123445, Note_on_c, 0, 46, 0
2, 123445, Note_on_c, 0, 71, 0
2, 123449, Control_c, 0, 64, 0
2, 123456, Note_on_c, 0, 63, 0
2, 123471, Note_on_c, 0, 34, 0
2, 123479, Note_on_c, 0, 66, 0
2, 123479, Note_on_c, 0, 70, 0
2, 123493, Note_on_c, 0, 83, 92
2, 123496, Note_on_c, 0, 44, 96
2, 123496, Note_on_c, 0, 32, 94
2, 123501, Note_on_c, 0, 66, 87
2, 123532, Control_c, 0, 64, 127
2, 123624, Note_on_c, 0, 32, 0
2, 123667, Note_on_c, 0, 75, 73
2, 123809, Note_on_c, 0, 66, 0
2, 123809, Note_on_c, 0, 75, 0
2, 123809, Note_on_c, 0, 83, 0
2, 123815, Note_on_c, 0, 66, 104
2, 123816, Note_on_c, 0, 63, 92
2, 123820, Note_on_c, 0, 71, 79
2, 123820, Note_on_c, 0, 83, 87
2, 123820, Note_on_c, 0, 75, 85
2, 123828, Note_on_c, 0, 78, 76
2, 123962, Note_on_c, 0, 75, 0
2, 123965, Note_on_c, 0, 59, 85
2, 123974, Note_on_c, 0, 75, 78
2, 124116, Note_on_c, 0, 59, 0
2, 124116, Note_on_c, 0, 63, 0
2, 124116, Note_on_c, 0, 66, 0
2, 124117, Note_on_c, 0, 70, 103
2, 124124, Note_on_c, 0, 83, 0
2, 124125, Note_on_c, 0, 63, 86
2, 124125, Note_on_c, 0, 66, 101
2, 124126, Note_on_c, 0, 59, 85
2, 124129, Note_on_c, 0, 83, 87
2, 124247, Note_on_c, 0, 59, 0
2, 124257, Note_on_c, 0, 59, 78
2, 124262, Note_on_c, 0, 63, 0
2, 124269, Note_on_c, 0, 63, 47
2, 124285, Note_on_c, 0, 75, 0
2, 124289, Note_on_c, 0, 75, 78
2, 124408, Note_on_c, 0, 59, 0
2, 124408, Note_on_c, 0, 63, 0
2, 124408, Note_on_c, 0, 66, 0
2, 124408, Note_on_c, 0, 71, 0
2, 124408, Note_on_c, 0, 83, 0
2, 124412, Note_on_c, 0, 71, 104
2, 124414, Note_on_c, 0, 83, 95
2, 124415, Note_on_c, 0, 63, 92
2, 124417, Note_on_c, 0, 66, 99
2, 124419, Note_on_c, 0, 59, 77
2, 124569, Note_on_c, 0, 59, 0
2, 124569, Note_on_c, 0, 66, 0
2, 124573, Note_on_c, 0, 59, 59
2, 124576, Note_on_c, 0, 66, 64
2, 124577, Note_on_c, 0, 63, 0
2, 124580, Note_on_c, 0, 75, 0
2, 124581, Note_on_c, 0, 63, 49
2, 124699, Note_on_c, 0, 63, 0
2, 124700, Control_c, 0, 64, 0
2, 124700, Note_on_c, 0, 44, 0
2, 124700, Note_on_c, 0, 71, 0
2, 124700, Note_on_c, 0, 66, 0
2, 124700, Note_on_c, 0, 70, 0
2, 124701, Note_on_c, 0, 83, 0
2, 124701, Note_on_c, 0, 78, 0
2, 124702, Note_on_c, 0, 59, 0
2, 124722, Note_on_c, 0, 40, 94
2, 124723, Note_on_c, 0, 64, 87
2, 124726, Note_on_c, 0, 28, 93
2, 124761, Control_c, 0, 64, 127
2, 124800, Note_on_c, 0, 64, 0
2, 125030, Note_on_c, 0, 40, 0
2, 125032, Note_on_c, 0, 70, 101
2, 125034, Note_on_c, 0, 66, 97
2, 125036, Note_on_c, 0, 64, 91
2, 125041, Note_on_c, 0, 40, 79
2, 125165, Note_on_c, 0, 59, 74
2, 125329, Note_on_c, 0, 64, 0
2, 125329, Note_on_c, 0, 66, 0
2, 125332, Note_on_c, 0, 71, 105
2, 125334, Note_on_c, 0, 66, 98
2, 125335, Note_on_c, 0, 64, 92
2, 125491, Note_on_c, 0, 59, 0
2, 125495, Note_on_c, 0, 59, 69
2, 125629, Note_on_c, 0, 64, 0
2, 125635, Note_on_c, 0, 73, 105
2, 125637, Note_on_c, 0, 66, 0
2, 125639, Note_on_c, 0, 64, 101
2, 125641, Note_on_c, 0, 66, 98
2, 125773, Note_on_c, 0, 76, 85
2, 125910, Control_c, 0, 64, 0
2, 125911, Note_on_c, 0, 40, 0
2, 125911, Note_on_c, 0, 59, 0
2, 125912, Note_on_c, 0, 76, 0
2, 125912, Note_on_c, 0, 73, 0
2, 125912, Note_on_c, 0, 70, 0
2, 125914, Note_on_c, 0, 66, 0
2, 125921, Note_on_c, 0, 28, 0
2, 125928, Note_on_c, 0, 64, 0
2, 125928, Note_on_c, 0, 71, 0
2, 125948, Note_on_c, 0, 47, 102
2, 125953, Note_on_c, 0, 83, 91
2, 125954, Note_on_c, 0, 35, 90
2, 125982, Control_c, 0, 64, 127
2, 126031, Note_on_c, 0, 78, 84
2, 126128, Note_on_c, 0, 75, 74
2, 126190, Note_on_c, 0, 78, 0
2, 126200, Note_on_c, 0, 78, 69
2, 126260, Note_on_c, 0, 71, 104
2, 126262, Note_on_c, 0, 66, 104
2, 126269, Note_on_c, 0, 63, 87
2, 126397, Note_on_c, 0, 75, 0
2, 126404, Note_on_c, 0, 75, 77
2, 126551, Note_on_c, 0, 71, 0
2, 126556, Note_on_c, 0, 71, 89
2, 126558, Note_on_c, 0, 63, 0
2, 126558, Note_on_c, 0, 66, 0
2, 126558, Note_on_c, 0, 83, 0
2, 126561, Note_on_c, 0, 73, 106
2, 126563, Note_on_c, 0, 66, 101
2, 126564, Note_on_c, 0, 83, 88
2, 126564, Note_on_c, 0, 63, 85
2, 126722, Note_on_c, 0, 59, 85
2, 126722, Note_on_c, 0, 47, 0
2, 126858, Note_on_c, 0, 63, 0
2, 126858, Note_on_c, 0, 66, 0
2, 126858, Note_on_c, 0, 75, 0
2, 126863, Note_on_c, 0, 75, 107
2, 126864, Note_on_c, 0, 66, 105
2, 126869, Note_on_c, 0, 63, 93
2, 127133, Control_c, 0, 64, 0
2, 127137, Note_on_c, 0, 78, 0
2, 127137, Note_on_c, 0, 71, 0
2, 127137, Note_on_c, 0, 59, 0
2, 127137, Note_on_c, 0, 66, 0
2, 127137, Note_on_c, 0, 73, 0
2, 127138, Note_on_c, 0, 75, 0
2, 127142, Note_on_c, 0, 35, 0
2, 127150, Note_on_c, 0, 63, 0
2, 127165, Note_on_c, 0, 83, 0
2, 127174, Note_on_c, 0, 83, 103
2, 127177, Note_on_c, 0, 42, 90
2, 127178, Note_on_c, 0, 73, 96
2, 127180, Note_on_c, 0, 78, 91
2, 127182, Note_on_c, 0, 71, 87
2, 127183, Note_on_c, 0, 54, 89
2, 127203, Control_c, 0, 64, 127
2, 127469, Note_on_c, 0, 66, 78
2, 127472, Note_on_c, 0, 54, 0
2, 127477, Note_on_c, 0, 54, 66
2, 127483, Note_on_c, 0, 61, 71
2, 127484, Note_on_c, 0, 58, 76
2, 127630, Note_on_c, 0, 82, 95
2, 127634, Note_on_c, 0, 70, 82
2, 127734, Note_on_c, 0, 42, 0
2, 127734, Note_on_c, 0, 66, 0
2, 127734, Note_on_c, 0, 73, 0
2, 127734, Note_on_c, 0, 54, 0
2, 127734, Note_on_c, 0, 71, 0
2, 127735, Note_on_c, 0, 70, 0
2, 127735, Note_on_c, 0, 61, 0
2, 127735, Note_on_c, 0, 83, 0
2, 127735, Note_on_c, 0, 82, 0
2, 127735, Note_on_c, 0, 58, 0
2, 127736, Note_on_c, 0, 78, 0
2, 127737, Control_c, 0, 64, 0
2, 127783, Note_on_c, 0, 82, 98
2, 127788, Note_on_c, 0, 70, 91
2, 127788, Note_on_c, 0, 43, 85
2, 127789, Note_on_c, 0, 55, 88
2, 127790, Note_on_c, 0, 79, 84
2, 127791, Note_on_c, 0, 75, 83
2, 127818, Control_c, 0, 64, 127
2, 127941, Note_on_c, 0, 55, 0
2, 127947, Note_on_c, 0, 55, 70
2, 128087, Note_on_c, 0, 55, 0
2, 128087, Note_on_c, 0, 67, 79
2, 128093, Note_on_c, 0, 55, 76
2, 128094, Note_on_c, 0, 70, 0
2, 128094, Note_on_c, 0, 75, 0
2, 128098, Note_on_c, 0, 75, 92
2, 128099, Note_on_c, 0, 63, 71
2, 128100, Note_on_c, 0, 70, 75
2, 128101, Note_on_c, 0, 58, 75
2, 128244, Note_on_c, 0, 78, 91
2, 128362, Note_on_c, 0, 82, 0
2, 128362, Note_on_c, 0, 58, 0
2, 128362, Note_on_c, 0, 55, 0
2, 128362, Note_on_c, 0, 79, 0
2, 128363, Note_on_c, 0, 70, 0
2, 128363, Note_on_c, 0, 63, 0
2, 128363, Note_on_c, 0, 67, 0
2, 128363, Note_on_c, 0, 43, 0
2, 128366, Control_c, 0, 64, 0
2, 128394, Note_on_c, 0, 75, 0
2, 128394, Note_on_c, 0, 78, 0
2, 128399, Note_on_c, 0, 78, 92
2, 128405, Note_on_c, 0, 75, 83
2, 128407, Note_on_c, 0, 44, 70
2, 128407, Note_on_c, 0, 56, 69
2, 128410, Note_on_c, 0, 71, 75
2, 128455, Control_c, 0, 64, 127
2, 128555, Note_on_c, 0, 56, 0
2, 128566, Note_on_c, 0, 56, 53
2, 128566, Note_on_c, 0, 51, 66
2, 128706, Note_on_c, 0, 83, 80
2, 128709, Note_on_c, 0, 75, 0
2, 128716, Note_on_c, 0, 75, 78
2, 128716, Note_on_c, 0, 56, 0
2, 128722, Note_on_c, 0, 56, 53
2, 128876, Note_on_c, 0, 82, 86
2, 128881, Note_on_c, 0, 59, 66
2, 128882, Note_on_c, 0, 73, 82
2, 129167, Note_on_c, 0, 80, 88
2, 129169, Note_on_c, 0, 56, 0
2, 129169, Note_on_c, 0, 71, 0
2, 129174, Note_on_c, 0, 71, 77
2, 129177, Note_on_c, 0, 56, 52
2, 129323, Note_on_c, 0, 59, 0
2, 129334, Note_on_c, 0, 59, 62
2, 129334, Note_on_c, 0, 63, 71
2, 129477, Note_on_c, 0, 75, 0
2, 129488, Note_on_c, 0, 75, 87
2, 129492, Note_on_c, 0, 71, 0
2, 129496, Note_on_c, 0, 68, 70
2, 129497, Note_on_c, 0, 71, 68
2, 129593, Note_on_c, 0, 51, 0
2, 129594, Note_on_c, 0, 44, 0
2, 129594, Note_on_c, 0, 56, 0
2, 129595, Note_on_c, 0, 82, 0
2, 129595, Note_on_c, 0, 78, 0
2, 129595, Note_on_c, 0, 73, 0
2, 129596, Note_on_c, 0, 83, 0
2, 129596, Note_on_c, 0, 63, 0
2, 129597, Control_c, 0, 64, 0
2, 129615, Note_on_c, 0, 59, 0
2, 129641, Note_on_c, 0, 37, 66
2, 129641, Note_on_c, 0, 49, 69
2, 129684, Control_c, 0, 64, 127
2, 129799, Note_on_c, 0, 71, 0
2, 129800, Note_on_c, 0, 44, 55
2, 129808, Note_on_c, 0, 71, 56
2, 129818, Note_on_c, 0, 65, 61
2, 129868, Note_on_c, 0, 68, 0
2, 129874, Note_on_c, 0, 68, 71
2, 129891, Note_on_c, 0, 71, 0
2, 129895, Note_on_c, 0, 71, 55
2, 129922, Note_on_c, 0, 37, 0
2, 129926, Note_on_c, 0, 37, 54
2, 129930, Note_on_c, 0, 49, 0
2, 129934, Note_on_c, 0, 49, 61
2, 129937, Note_on_c, 0, 75, 0
2, 129946, Note_on_c, 0, 75, 85
2, 130103, Note_on_c, 0, 53, 57
2, 130104, Note_on_c, 0, 73, 88
2, 130104, Note_on_c, 0, 56, 73
2, 130391, Note_on_c, 0, 71, 0
2, 130394, Note_on_c, 0, 71, 87
2, 130398, Note_on_c, 0, 49, 0
2, 130405, Note_on_c, 0, 49, 62
2, 130560, Note_on_c, 0, 56, 0
2, 130560, Note_on_c, 0, 73, 0
2, 130564, Note_on_c, 0, 61, 79
2, 130564, Note_on_c, 0, 56, 74
2, 130565, Note_on_c, 0, 73, 72
2, 130698, Note_on_c, 0, 71, 0
2, 130701, Note_on_c, 0, 83, 104
2, 130703, Note_on_c, 0, 71, 96
2, 130817, Note_on_c, 0, 53, 0
2, 130817, Note_on_c, 0, 49, 0
2, 130817, Note_on_c, 0, 61, 0
2, 130817, Note_on_c, 0, 73, 0
2, 130817, Note_on_c, 0, 37, 0
2, 130817, Note_on_c, 0, 68, 0
2, 130817, Note_on_c, 0, 56, 0
2, 130817, Note_on_c, 0, 65, 0
2, 130818, Note_on_c, 0, 44, 0
2, 130818, Note_on_c, 0, 71, 0
2, 130818, Control_c, 0, 64, 0
2, 130819, Note_on_c, 0, 83, 0
2, 130828, Note_on_c, 0, 75, 0
2, 130828, Note_on_c, 0, 80, 0
2, 130856, Note_on_c, 0, 81, 92
2, 130857, Note_on_c, 0, 33, 83
2, 130857, Note_on_c, 0, 76, 100
2, 130857, Note_on_c, 0, 85, 101
2, 130861, Note_on_c, 0, 73, 102
2, 130862, Note_on_c, 0, 45, 83
2, 130905, Control_c, 0, 64, 127
2, 130954, Note_on_c, 0, 40, 68
2, 131013, Note_on_c, 0, 45, 0
2, 131023, Note_on_c, 0, 45, 67
2, 131116, Note_on_c, 0, 49, 68
2, 131166, Note_on_c, 0, 64, 70
2, 131190, Note_on_c, 0, 57, 58
2, 131258, Note_on_c, 0, 49, 0
2, 131268, Note_on_c, 0, 49, 64
2, 131327, Note_on_c, 0, 52, 72
2, 131397, Note_on_c, 0, 57, 0
2, 131406, Note_on_c, 0, 57, 68
2, 131473, Note_on_c, 0, 49, 0
2, 131473, Note_on_c, 0, 64, 0
2, 131476, Note_on_c, 0, 69, 77
2, 131481, Note_on_c, 0, 49, 68
2, 131481, Note_on_c, 0, 64, 69
2, 131558, Note_on_c, 0, 49, 0
2, 131558, Note_on_c, 0, 52, 0
2, 131567, Note_on_c, 0, 52, 69
2, 131569, Note_on_c, 0, 49, 64
2, 131635, Note_on_c, 0, 57, 0
2, 131639, Note_on_c, 0, 57, 73
2, 131719, Note_on_c, 0, 61, 69
2, 131773, Note_on_c, 0, 52, 0
2, 131773, Note_on_c, 0, 69, 0
2, 131773, Note_on_c, 0, 73, 0
2, 131778, Note_on_c, 0, 73, 89
2, 131781, Note_on_c, 0, 69, 77
2, 131784, Note_on_c, 0, 52, 72
2, 131850, Note_on_c, 0, 57, 0
2, 131854, Note_on_c, 0, 57, 69
2, 131904, Note_on_c, 0, 61, 0
2, 131912, Note_on_c, 0, 61, 73
2, 131973, Note_on_c, 0, 64, 0
2, 131983, Note_on_c, 0, 64, 74
2, 132065, Note_on_c, 0, 57, 0
2, 132069, Note_on_c, 0, 57, 76
2, 132072, Note_on_c, 0, 69, 0
2, 132072, Note_on_c, 0, 73, 0
2, 132072, Note_on_c, 0, 76, 0
2, 132083, Note_on_c, 0, 69, 71
2, 132083, Note_on_c, 0, 76, 88
2, 132084, Note_on_c, 0, 73, 79
2, 132126, Note_on_c, 0, 61, 0
2, 132134, Note_on_c, 0, 61, 76
2, 132211, Note_on_c, 0, 64, 0
2, 132215, Note_on_c, 0, 64, 74
2, 132280, Note_on_c, 0, 69, 0
2, 132284, Note_on_c, 0, 69, 69
2, 132372, Note_on_c, 0, 73, 0
2, 132376, Note_on_c, 0, 73, 77
2, 132410, Note_on_c, 0, 69, 0
2, 132416, Note_on_c, 0, 69, 68
2, 132456, Note_on_c, 0, 64, 0
2, 132468, Note_on_c, 0, 64, 71
2, 132518, Note_on_c, 0, 61, 0
2, 132524, Note_on_c, 0, 61, 76
2, 132595, Note_on_c, 0, 57, 0
2, 132605, Note_on_c, 0, 57, 50
2, 132641, Note_on_c, 0, 57, 0
2, 132641, Note_on_c, 0, 69, 0
2, 132646, Note_on_c, 0, 57, 60
2, 132647, Note_on_c, 0, 55, 57
2, 132650, Note_on_c, 0, 69, 60
2, 132672, Note_on_c, 0, 76, 0
2, 132681, Note_on_c, 0, 76, 98
2, 132687, Note_on_c, 0, 52, 0
2, 132698, Note_on_c, 0, 52, 74
2, 132794, Note_on_c, 0, 45, 0
2, 132799, Note_on_c, 0, 45, 62
2, 132902, Note_on_c, 0, 40, 0
2, 132906, Note_on_c, 0, 40, 66
2, 132963, Note_on_c, 0, 81, 0
2, 132971, Note_on_c, 0, 33, 0
2, 132971, Note_on_c, 0, 45, 0
2, 132971, Note_on_c, 0, 69, 0
2, 132973, Note_on_c, 0, 81, 100
2, 132976, Note_on_c, 0, 33, 74
2, 132978, Note_on_c, 0, 45, 67
2, 132979, Note_on_c, 0, 73, 0
2, 132981, Note_on_c, 0, 69, 73
2, 132986, Note_on_c, 0, 73, 67
2, 133140, Note_on_c, 0, 57, 0
2, 133150, Note_on_c, 0, 57, 54
2, 133267, Control_c, 0, 64, 0
2, 133274, Note_on_c, 0, 40, 0
2, 133274, Note_on_c, 0, 45, 0
2, 133274, Note_on_c, 0, 52, 0
2, 133274, Note_on_c, 0, 73, 0
2, 133274, Note_on_c, 0, 57, 0
2, 133274, Note_on_c, 0, 76, 0
2, 133274, Note_on_c, 0, 69, 0
2, 133274, Note_on_c, 0, 55, 0
2, 133275, Note_on_c, 0, 85, 0
2, 133277, Note_on_c, 0, 33, 0
2, 133278, Note_on_c, 0, 49, 0
2, 133283, Note_on_c, 0, 83, 97
2, 133286, Note_on_c, 0, 61, 0
2, 133286, Note_on_c, 0, 64, 0
2, 133294, Note_on_c, 0, 81, 0
2, 133296, Note_on_c, 0, 38, 74
2, 133298, Note_on_c, 0, 74, 86
2, 133302, Note_on_c, 0, 78, 76
2, 133370, Control_c, 0, 64, 127
2, 133450, Note_on_c, 0, 45, 57
2, 133590, Note_on_c, 0, 81, 86
2, 133601, Note_on_c, 0, 74, 0
2, 133605, Note_on_c, 0, 52, 65
2, 133606, Note_on_c, 0, 74, 54
2, 133739, Note_on_c, 0, 83, 0
2, 133745, Note_on_c, 0, 83, 86
2, 133754, Note_on_c, 0, 74, 0
2, 133758, Note_on_c, 0, 74, 69
2, 133765, Note_on_c, 0, 54, 51
2, 133770, Note_on_c, 0, 78, 0
2, 133780, Note_on_c, 0, 78, 54
2, 133900, Note_on_c, 0, 74, 0
2, 133901, Note_on_c, 0, 50, 57
2, 133910, Note_on_c, 0, 74, 64
2, 134051, Note_on_c, 0, 85, 86
2, 134062, Note_on_c, 0, 74, 0
2, 134067, Note_on_c, 0, 74, 63
2, 134073, Note_on_c, 0, 57, 65
2, 134200, Note_on_c, 0, 50, 0
2, 134207, Note_on_c, 0, 50, 56
2, 134208, Note_on_c, 0, 78, 0
2, 134211, Note_on_c, 0, 78, 53
2, 134346, Note_on_c, 0, 81, 0
2, 134351, Note_on_c, 0, 81, 86
2, 134353, Note_on_c, 0, 74, 0
2, 134354, Note_on_c, 0, 64, 64
2, 134358, Note_on_c, 0, 74, 62
2, 134499, Note_on_c, 0, 78, 0
2, 134505, Note_on_c, 0, 78, 70
2, 134512, Note_on_c, 0, 66, 67
2, 134515, Note_on_c, 0, 74, 0
2, 134520, Note_on_c, 0, 74, 59
2, 134561, Note_on_c, 0, 57, 0
2, 134566, Note_on_c, 0, 57, 11
2, 134661, Note_on_c, 0, 74, 0
2, 134661, Note_on_c, 0, 78, 0
2, 134666, Note_on_c, 0, 78, 56
2, 134669, Note_on_c, 0, 74, 56
2, 134669, Note_on_c, 0, 62, 49
2, 134814, Note_on_c, 0, 74, 0
2, 134822, Note_on_c, 0, 57, 0
2, 134822, Note_on_c, 0, 66, 0
2, 134824, Note_on_c, 0, 74, 44
2, 134829, Note_on_c, 0, 57, 55
2, 134830, Note_on_c, 0, 69, 52
2, 134833, Note_on_c, 0, 66, 45
2, 134968, Note_on_c, 0, 50, 0
2, 134968, Note_on_c, 0, 74, 0
2, 134972, Note_on_c, 0, 74, 51
2, 134974, Note_on_c, 0, 50, 50
2, 134976, Note_on_c, 0, 69, 0
2, 134983, Note_on_c, 0, 66, 0
2, 134985, Note_on_c, 0, 69, 41
2, 134993, Note_on_c, 0, 66, 41
2, 135125, Note_on_c, 0, 76, 80
2, 135129, Note_on_c, 0, 57, 0
2, 135129, Note_on_c, 0, 62, 0
2, 135133, Note_on_c, 0, 62, 62
2, 135134, Note_on_c, 0, 57, 47
2, 135267, Note_on_c, 0, 74, 0
2, 135272, Note_on_c, 0, 74, 62
2, 135283, Note_on_c, 0, 57, 0
2, 135291, Note_on_c, 0, 57, 51
2, 135421, Note_on_c, 0, 50, 0
2, 135421, Note_on_c, 0, 54, 0
2, 135421, Note_on_c, 0, 81, 0
2, 135425, Note_on_c, 0, 54, 46
2, 135425, Note_on_c, 0, 81, 82
2, 135429, Note_on_c, 0, 74, 0
2, 135430, Note_on_c, 0, 50, 58
2, 135434, Note_on_c, 0, 74, 69
2, 135567, Note_on_c, 0, 57, 0
2, 135567, Note_on_c, 0, 69, 0
2, 135567, Note_on_c, 0, 74, 0
2, 135573, Note_on_c, 0, 57, 63
2, 135577, Note_on_c, 0, 69, 56
2, 135577, Note_on_c, 0, 74, 67
2, 135711, Control_c, 0, 64, 0
2, 135714, Note_on_c, 0, 52, 0
2, 135714, Note_on_c, 0, 62, 0
2, 135714, Note_on_c, 0, 50, 0
2, 135714, Note_on_c, 0, 45, 0
2, 135715, Note_on_c, 0, 54, 0
2, 135715, Note_on_c, 0, 69, 0
2, 135715, Note_on_c, 0, 74, 0
2, 135715, Note_on_c, 0, 76, 0
2, 135715, Note_on_c, 0, 66, 0
2, 135715, Note_on_c, 0, 57, 0
2, 135715, Note_on_c, 0, 81, 0
2, 135715, Note_on_c, 0, 64, 0
2, 135715, Note_on_c, 0, 78, 0
2, 135720, Note_on_c, 0, 83, 0
2, 135728, Note_on_c, 0, 38, 0
2, 135730, Note_on_c, 0, 83, 91
2, 135740, Note_on_c, 0, 73, 79
2, 135747, Note_on_c, 0, 37, 60
2, 135754, Note_on_c, 0, 76, 62
2, 135790, Note_on_c, 0, 85, 0
2, 135797, Control_c, 0, 64, 127
2, 135805, Note_on_c, 0, 73, 0
2, 135888, Note_on_c, 0, 45, 62
2, 135889, Note_on_c, 0, 76, 0
2, 135896, Note_on_c, 0, 73, 61
2, 135898, Note_on_c, 0, 76, 64
2, 136028, Note_on_c, 0, 73, 0
2, 136038, Note_on_c, 0, 73, 71
2, 136040, Note_on_c, 0, 81, 73
2, 136051, Note_on_c, 0, 76, 0
2, 136055, Note_on_c, 0, 76, 56
2, 136059, Note_on_c, 0, 49, 58
2, 136174, Note_on_c, 0, 83, 0
2, 136179, Note_on_c, 0, 83, 85
2, 136181, Note_on_c, 0, 73, 0
2, 136187, Note_on_c, 0, 73, 75
2, 136198, Note_on_c, 0, 52, 68
2, 136327, Note_on_c, 0, 49, 0
2, 136327, Note_on_c, 0, 76, 0
2, 136332, Note_on_c, 0, 49, 58
2, 136335, Note_on_c, 0, 73, 0
2, 136335, Note_on_c, 0, 81, 0
2, 136338, Note_on_c, 0, 76, 64
2, 136339, Note_on_c, 0, 81, 55
2, 136341, Note_on_c, 0, 73, 57
2, 136350, Note_on_c, 0, 52, 0
2, 136354, Note_on_c, 0, 52, 35
2, 136490, Note_on_c, 0, 85, 82
2, 136496, Note_on_c, 0, 57, 60
2, 136496, Note_on_c, 0, 76, 0
2, 136504, Note_on_c, 0, 73, 0
2, 136507, Note_on_c, 0, 76, 59
2, 136508, Note_on_c, 0, 73, 58
2, 136642, Note_on_c, 0, 52, 0
2, 136642, Note_on_c, 0, 73, 0
2, 136647, Note_on_c, 0, 52, 55
2, 136650, Note_on_c, 0, 76, 0
2, 136653, Note_on_c, 0, 73, 60
2, 136659, Note_on_c, 0, 76, 51
2, 136788, Note_on_c, 0, 81, 0
2, 136794, Note_on_c, 0, 81, 84
2, 136796, Note_on_c, 0, 73, 0
2, 136806, Note_on_c, 0, 73, 66
2, 136811, Note_on_c, 0, 76, 0
2, 136813, Note_on_c, 0, 61, 53
2, 136822, Note_on_c, 0, 76, 51
2, 136823, Note_on_c, 0, 69, 38
2, 136826, Note_on_c, 0, 57, 0
2, 136834, Note_on_c, 0, 69, 0
2, 136836, Note_on_c, 0, 57, 44
2, 136934, Note_on_c, 0, 73, 0
2, 136934, Note_on_c, 0, 76, 0
2, 136941, Note_on_c, 0, 73, 69
2, 136942, Note_on_c, 0, 76, 63
2, 136959, Note_on_c, 0, 64, 60
2, 137088, Note_on_c, 0, 61, 0
2, 137092, Note_on_c, 0, 61, 49
2, 137095, Note_on_c, 0, 73, 0
2, 137095, Note_on_c, 0, 76, 0
2, 137105, Note_on_c, 0, 76, 57
2, 137106, Note_on_c, 0, 73, 54
2, 137226, Note_on_c, 0, 57, 0
2, 137233, Note_on_c, 0, 73, 0
2, 137233, Note_on_c, 0, 76, 0
2, 137235, Note_on_c, 0, 57, 59
2, 137239, Note_on_c, 0, 73, 56
2, 137244, Note_on_c, 0, 69, 55
2, 137245, Note_on_c, 0, 76, 49
2, 137387, Note_on_c, 0, 52, 0
2, 137387, Note_on_c, 0, 73, 0
2, 137387, Note_on_c, 0, 76, 0
2, 137392, Note_on_c, 0, 76, 55
2, 137396, Note_on_c, 0, 73, 61
2, 137397, Note_on_c, 0, 52, 61
2, 137525, Note_on_c, 0, 76, 0
2, 137533, Note_on_c, 0, 61, 0
2, 137533, Note_on_c, 0, 73, 0
2, 137536, Note_on_c, 0, 76, 83
2, 137543, Note_on_c, 0, 61, 68
2, 137543, Note_on_c, 0, 73, 67
2, 137548, Note_on_c, 0, 52, 0
2, 137548, Note_on_c, 0, 69, 0
2, 137559, Note_on_c, 0, 52, 49
2, 137559, Note_on_c, 0, 69, 43
2, 137687, Note_on_c, 0, 57, 0
2, 137687, Note_on_c, 0, 69, 0
2, 137691, Note_on_c, 0, 57, 61
2, 137692, Note_on_c, 0, 69, 52
2, 137832, Note_on_c, 0, 52, 0
2, 137837, Note_on_c, 0, 52, 67
2, 137840, Note_on_c, 0, 80, 97
2, 137863, Note_on_c, 0, 76, 0
2, 137873, Note_on_c, 0, 76, 52
2, 137971, Note_on_c, 0, 57, 0
2, 137977, Note_on_c, 0, 57, 67
2, 137978, Note_on_c, 0, 69, 0
2, 137978, Note_on_c, 0, 73, 0
2, 137983, Note_on_c, 0, 73, 60
2, 137983, Note_on_c, 0, 69, 61
2, 138117, Note_on_c, 0, 73, 0
2, 138117, Note_on_c, 0, 85, 0
2, 138117, Note_on_c, 0, 69, 0
2, 138117, Note_on_c, 0, 45, 0
2, 138118, Note_on_c, 0, 80, 0
2, 138118, Note_on_c, 0, 57, 0
2, 138119, Note_on_c, 0, 64, 0
2, 138119, Control_c, 0, 64, 0
2, 138132, Note_on_c, 0, 37, 0
2, 138132, Note_on_c, 0, 49, 0
2, 138132, Note_on_c, 0, 61, 0
2, 138132, Note_on_c, 0, 81, 0
2, 138132, Note_on_c, 0, 83, 0
2, 138138, Note_on_c, 0, 81, 95
2, 138140, Note_on_c, 0, 52, 0
2, 138155, Note_on_c, 0, 40, 57
2, 138155, Note_on_c, 0, 76, 0
2, 138160, Note_on_c, 0, 76, 65
2, 138160, Note_on_c, 0, 71, 72
2, 138201, Control_c, 0, 64, 127
2, 138270, Note_on_c, 0, 71, 0
2, 138280, Note_on_c, 0, 71, 64
2, 138324, Note_on_c, 0, 52, 59
2, 138432, Note_on_c, 0, 76, 0
2, 138442, Note_on_c, 0, 76, 53
2, 138462, Note_on_c, 0, 71, 0
2, 138469, Note_on_c, 0, 71, 49
2, 138470, Note_on_c, 0, 69, 55
2, 138476, Note_on_c, 0, 57, 61
2, 138600, Note_on_c, 0, 76, 0
2, 138605, Note_on_c, 0, 59, 51
2, 138608, Note_on_c, 0, 71, 0
2, 138610, Note_on_c, 0, 76, 54
2, 138612, Note_on_c, 0, 71, 51
2, 138746, Note_on_c, 0, 52, 0
2, 138754, Note_on_c, 0, 52, 58
2, 138762, Note_on_c, 0, 71, 0
2, 138762, Note_on_c, 0, 76, 0
2, 138770, Note_on_c, 0, 71, 46
2, 138771, Note_on_c, 0, 76, 47
2, 138885, Note_on_c, 0, 71, 0
2, 138892, Note_on_c, 0, 76, 0
2, 138896, Note_on_c, 0, 71, 55
2, 138897, Note_on_c, 0, 76, 52
2, 138910, Note_on_c, 0, 64, 52
2, 139054, Note_on_c, 0, 76, 0
2, 139061, Note_on_c, 0, 71, 0
2, 139062, Note_on_c, 0, 76, 55
2, 139065, Note_on_c, 0, 71, 45
2, 139205, Note_on_c, 0, 80, 79
2, 139223, Note_on_c, 0, 71, 0
2, 139228, Note_on_c, 0, 71, 44
2, 139229, Note_on_c, 0, 66, 50
2, 139230, Note_on_c, 0, 76, 0
2, 139235, Note_on_c, 0, 76, 36
2, 139345, Note_on_c, 0, 80, 0
2, 139356, Note_on_c, 0, 80, 81
2, 139376, Note_on_c, 0, 71, 0
2, 139376, Note_on_c, 0, 76, 0
2, 139379, Note_on_c, 0, 68, 59
2, 139381, Note_on_c, 0, 71, 49
2, 139381, Note_on_c, 0, 76, 39
2, 139514, Note_on_c, 0, 64, 0
2, 139522, Note_on_c, 0, 71, 0
2, 139522, Note_on_c, 0, 64, 58
2, 139533, Note_on_c, 0, 71, 46
2, 139553, Note_on_c, 0, 76, 0
2, 139558, Note_on_c, 0, 76, 35
2, 139668, Note_on_c, 0, 59, 0
2, 139668, Note_on_c, 0, 76, 0
2, 139676, Note_on_c, 0, 71, 0
2, 139676, Note_on_c, 0, 59, 51
2, 139679, Note_on_c, 0, 76, 47
2, 139686, Note_on_c, 0, 71, 40
2, 139814, Note_on_c, 0, 52, 0
2, 139814, Note_on_c, 0, 76, 0
2, 139824, Note_on_c, 0, 76, 51
2, 139824, Note_on_c, 0, 52, 56
2, 139980, Note_on_c, 0, 88, 87
2, 139983, Note_on_c, 0, 52, 0
2, 139983, Note_on_c, 0, 64, 0
2, 139983, Note_on_c, 0, 76, 0
2, 139987, Note_on_c, 0, 64, 55
2, 139988, Note_on_c, 0, 76, 66
2, 139992, Note_on_c, 0, 52, 53
2, 140129, Note_on_c, 0, 59, 0
2, 140129, Note_on_c, 0, 71, 0
2, 140133, Note_on_c, 0, 71, 42
2, 140134, Note_on_c, 0, 59, 48
2, 140160, Note_on_c, 0, 40, 0
2, 140282, Note_on_c, 0, 52, 0
2, 140282, Note_on_c, 0, 81, 0
2, 140283, Note_on_c, 0, 93, 91
2, 140289, Note_on_c, 0, 81, 75
2, 140292, Note_on_c, 0, 52, 57
2, 140428, Note_on_c, 0, 59, 0
2, 140438, Note_on_c, 0, 59, 57
2, 140564, Note_on_c, 0, 68, 0
2, 140564, Note_on_c, 0, 80, 0
2, 140564, Note_on_c, 0, 69, 0
2, 140565, Note_on_c, 0, 59, 0
2, 140565, Note_on_c, 0, 71, 0
2, 140565, Note_on_c, 0, 93, 0
2, 140566, Note_on_c, 0, 64, 0
2, 140566, Note_on_c, 0, 76, 0
2, 140566, Note_on_c, 0, 88, 0
2, 140566, Note_on_c, 0, 66, 0
2, 140569, Control_c, 0, 64, 0
2, 140582, Note_on_c, 0, 52, 0
2, 140582, Note_on_c, 0, 57, 0
2, 140582, Note_on_c, 0, 81, 0
2, 140589, Note_on_c, 0, 95, 86
2, 140603, Note_on_c, 0, 50, 62
2, 140643, Control_c, 0, 64, 127
2, 140665, Note_on_c, 0, 90, 75
2, 140746, Note_on_c, 0, 86, 59
2, 140749, Note_on_c, 0, 57, 49
2, 140820, Note_on_c, 0, 90, 0
2, 140825, Note_on_c, 0, 90, 63
2, 140858, Note_on_c, 0, 86, 0
2, 140869, Note_on_c, 0, 86, 59
2, 140906, Note_on_c, 0, 64, 56
2, 140906, Note_on_c, 0, 93, 83
2, 140989, Note_on_c, 0, 90, 0
2, 140994, Note_on_c, 0, 90, 72
2, 141050, Note_on_c, 0, 95, 0
2, 141054, Note_on_c, 0, 95, 85
2, 141058, Note_on_c, 0, 66, 61
2, 141135, Note_on_c, 0, 90, 0
2, 141139, Note_on_c, 0, 90, 81
2, 141196, Note_on_c, 0, 86, 0
2, 141200, Note_on_c, 0, 86, 76
2, 141201, Note_on_c, 0, 62, 61
2, 141273, Note_on_c, 0, 90, 0
2, 141283, Note_on_c, 0, 90, 60
2, 141343, Note_on_c, 0, 97, 92
2, 141366, Note_on_c, 0, 69, 69
2, 141411, Note_on_c, 0, 90, 0
2, 141417, Note_on_c, 0, 90, 67
2, 141488, Note_on_c, 0, 86, 0
2, 141494, Note_on_c, 0, 86, 64
2, 141496, Note_on_c, 0, 62, 0
2, 141505, Note_on_c, 0, 62, 61
2, 141534, Note_on_c, 0, 90, 0
2, 141543, Note_on_c, 0, 90, 63
2, 141634, Note_on_c, 0, 93, 0
2, 141641, Note_on_c, 0, 93, 91
2, 141652, Note_on_c, 0, 76, 72
2, 141719, Note_on_c, 0, 100, 83
2, 141794, Note_on_c, 0, 102, 72
2, 141802, Note_on_c, 0, 78, 73
2, 141926, Note_on_c, 0, 98, 74
2, 141947, Note_on_c, 0, 74, 63
2, 141995, Note_on_c, 0, 93, 0
2, 142001, Note_on_c, 0, 93, 81
2, 142072, Note_on_c, 0, 93, 0
2, 142083, Note_on_c, 0, 93, 80
2, 142110, Note_on_c, 0, 69, 0
2, 142120, Note_on_c, 0, 69, 58
2, 142161, Note_on_c, 0, 88, 67
2, 142233, Note_on_c, 0, 86, 0
2, 142240, Note_on_c, 0, 86, 73
2, 142241, Note_on_c, 0, 62, 0
2, 142241, Note_on_c, 0, 74, 0
2, 142247, Note_on_c, 0, 74, 61
2, 142250, Note_on_c, 0, 62, 57
2, 142319, Note_on_c, 0, 81, 70
2, 142379, Note_on_c, 0, 88, 0
2, 142387, Note_on_c, 0, 69, 0
2, 142389, Note_on_c, 0, 88, 92
2, 142394, Note_on_c, 0, 69, 68
2, 142448, Note_on_c, 0, 86, 0
2, 142459, Note_on_c, 0, 86, 81
2, 142533, Note_on_c, 0, 81, 0
2, 142540, Note_on_c, 0, 62, 0
2, 142544, Note_on_c, 0, 81, 69
2, 142551, Note_on_c, 0, 62, 60
2, 142602, Note_on_c, 0, 86, 0
2, 142610, Note_on_c, 0, 86, 81
2, 142686, Note_on_c, 0, 93, 0
2, 142691, Note_on_c, 0, 93, 95
2, 142694, Note_on_c, 0, 50, 0
2, 142700, Note_on_c, 0, 50, 66
2, 142748, Note_on_c, 0, 86, 0
2, 142755, Note_on_c, 0, 86, 77
2, 142832, Note_on_c, 0, 81, 0
2, 142838, Note_on_c, 0, 81, 70
2, 142863, Note_on_c, 0, 57, 0
2, 142867, Note_on_c, 0, 57, 59
2, 142894, Note_on_c, 0, 86, 0
2, 142898, Note_on_c, 0, 86, 66
2, 142954, Note_on_c, 0, 98, 0
2, 142955, Note_on_c, 0, 102, 0
2, 142956, Note_on_c, 0, 100, 0
2, 142956, Note_on_c, 0, 86, 0
2, 142957, Note_on_c, 0, 69, 0
2, 142957, Note_on_c, 0, 81, 0
2, 142957, Note_on_c, 0, 90, 0
2, 142957, Note_on_c, 0, 74, 0
2, 142958, Note_on_c, 0, 78, 0
2, 142958, Note_on_c, 0, 50, 0
2, 142958, Note_on_c, 0, 88, 0
2, 142958, Note_on_c, 0, 57, 0
2, 142958, Note_on_c, 0, 62, 0
2, 142958, Note_on_c, 0, 66, 0
2, 142958, Note_on_c, 0, 76, 0
2, 142959, Control_c, 0, 64, 0
2, 142959, Note_on_c, 0, 64, 0
2, 142970, Note_on_c, 0, 97, 0
2, 142978, Note_on_c, 0, 95, 0
2, 142986, Note_on_c, 0, 93, 0
2, 142987, Note_on_c, 0, 95, 81
2, 142992, Note_on_c, 0, 49, 75
2, 142993, Note_on_c, 0, 93, 73
2, 143040, Control_c, 0, 64, 127
2, 143056, Note_on_c, 0, 88, 70
2, 143144, Note_on_c, 0, 57, 59
2, 143151, Note_on_c, 0, 85, 68
2, 143224, Note_on_c, 0, 88, 0
2, 143231, Note_on_c, 0, 88, 71
2, 143285, Note_on_c, 0, 93, 0
2, 143296, Note_on_c, 0, 93, 84
2, 143303, Note_on_c, 0, 61, 69
2, 143347, Note_on_c, 0, 95, 0
2, 143377, Note_on_c, 0, 88, 0
2, 143384, Note_on_c, 0, 88, 71
2, 143427, Note_on_c, 0, 95, 90
2, 143459, Note_on_c, 0, 64, 74
2, 143516, Note_on_c, 0, 88, 0
2, 143521, Note_on_c, 0, 88, 76
2, 143585, Note_on_c, 0, 61, 0
2, 143585, Note_on_c, 0, 85, 0
2, 143594, Note_on_c, 0, 85, 74
2, 143595, Note_on_c, 0, 61, 68
2, 143646, Note_on_c, 0, 88, 0
2, 143657, Note_on_c, 0, 88, 75
2, 143735, Note_on_c, 0, 97, 88
2, 143736, Note_on_c, 0, 69, 76
2, 143784, Note_on_c, 0, 69, 0
2, 143792, Note_on_c, 0, 88, 0
2, 143796, Note_on_c, 0, 69, 56
2, 143802, Note_on_c, 0, 88, 64
2, 143861, Note_on_c, 0, 85, 0
2, 143866, Note_on_c, 0, 85, 78
2, 143877, Note_on_c, 0, 61, 0
2, 143887, Note_on_c, 0, 61, 59
2, 143907, Note_on_c, 0, 69, 0
2, 143914, Note_on_c, 0, 69, 45
2, 143930, Note_on_c, 0, 88, 0
2, 143938, Note_on_c, 0, 88, 67
2, 144015, Note_on_c, 0, 93, 0
2, 144024, Note_on_c, 0, 93, 98
2, 144030, Note_on_c, 0, 61, 0
2, 144039, Note_on_c, 0, 73, 81
2, 144042, Note_on_c, 0, 61, 57
2, 144053, Note_on_c, 0, 69, 0
2, 144058, Note_on_c, 0, 69, 36
2, 144102, Note_on_c, 0, 100, 83
2, 144187, Note_on_c, 0, 103, 80
2, 144192, Note_on_c, 0, 103, 0
2, 144194, Note_on_c, 0, 76, 78
2, 144238, Note_on_c, 0, 100, 0
2, 144245, Note_on_c, 0, 100, 73
2, 144314, Note_on_c, 0, 95, 0
2, 144320, Note_on_c, 0, 95, 73
2, 144322, Note_on_c, 0, 73, 0
2, 144322, Note_on_c, 0, 93, 0
2, 144329, Note_on_c, 0, 93, 71
2, 144331, Note_on_c, 0, 73, 76
2, 144391, Note_on_c, 0, 93, 0
2, 144398, Note_on_c, 0, 93, 70
2, 144468, Note_on_c, 0, 93, 0
2, 144476, Note_on_c, 0, 93, 87
2, 144514, Note_on_c, 0, 76, 0
2, 144522, Note_on_c, 0, 69, 0
2, 144522, Note_on_c, 0, 88, 0
2, 144523, Note_on_c, 0, 76, 48
2, 144527, Note_on_c, 0, 69, 60
2, 144533, Note_on_c, 0, 88, 55
2, 144618, Note_on_c, 0, 83, 75
2, 144637, Note_on_c, 0, 64, 0
2, 144637, Note_on_c, 0, 69, 0
2, 144643, Note_on_c, 0, 69, 44
2, 144645, Note_on_c, 0, 64, 59
2, 144707, Note_on_c, 0, 81, 71
2, 144768, Note_on_c, 0, 88, 0
2, 144775, Note_on_c, 0, 69, 0
2, 144776, Note_on_c, 0, 88, 92
2, 144785, Note_on_c, 0, 69, 67
2, 144852, Note_on_c, 0, 83, 0
2, 144857, Note_on_c, 0, 83, 79
2, 144921, Note_on_c, 0, 64, 0
2, 144929, Note_on_c, 0, 64, 65
2, 144936, Note_on_c, 0, 81, 0
2, 144941, Note_on_c, 0, 81, 73
2, 145006, Note_on_c, 0, 83, 0
2, 145011, Note_on_c, 0, 83, 62
2, 145075, Note_on_c, 0, 93, 0
2, 145082, Note_on_c, 0, 49, 0
2, 145082, Note_on_c, 0, 81, 0
2, 145082, Note_on_c, 0, 93, 95
2, 145087, Note_on_c, 0, 81, 91
2, 145088, Note_on_c, 0, 49, 63
2, 145213, Note_on_c, 0, 57, 0
2, 145224, Note_on_c, 0, 57, 65
2, 145339, Note_on_c, 0, 93, 0
2, 145339, Note_on_c, 0, 95, 0
2, 145339, Control_c, 0, 64, 0
2, 145339, Note_on_c, 0, 100, 0
2, 145340, Note_on_c, 0, 85, 0
2, 145340, Note_on_c, 0, 73, 0
2, 145340, Note_on_c, 0, 88, 0
2, 145340, Note_on_c, 0, 83, 0
2, 145340, Note_on_c, 0, 64, 0
2, 145340, Note_on_c, 0, 61, 0
2, 145341, Note_on_c, 0, 81, 0
2, 145341, Note_on_c, 0, 76, 0
2, 145351, Note_on_c, 0, 49, 0
2, 145351, Note_on_c, 0, 57, 0
2, 145351, Note_on_c, 0, 69, 0
2, 145351, Note_on_c, 0, 97, 0
2, 145382, Note_on_c, 0, 42, 88
2, 145385, Note_on_c, 0, 94, 109
2, 145389, Note_on_c, 0, 82, 97
2, 145392, Note_on_c, 0, 85, 93
2, 145392, Note_on_c, 0, 90, 89
2, 145420, Control_c, 0, 64, 127
2, 145547, Note_on_c, 0, 49, 62
2, 145687, Note_on_c, 0, 54, 49
2, 145688, Note_on_c, 0, 58, 74
2, 145757, Note_on_c, 0, 61, 73
2, 145850, Note_on_c, 0, 49, 0
2, 145853, Note_on_c, 0, 64, 80
2, 145855, Note_on_c, 0, 49, 62
2, 145922, Note_on_c, 0, 66, 78
2, 145981, Note_on_c, 0, 54, 0
2, 145987, Note_on_c, 0, 54, 69
2, 146011, Note_on_c, 0, 70, 84
2, 146077, Note_on_c, 0, 73, 91
2, 146142, Note_on_c, 0, 61, 0
2, 146153, Note_on_c, 0, 61, 77
2, 146154, Note_on_c, 0, 76, 82
2, 146232, Note_on_c, 0, 78, 83
2, 146296, Note_on_c, 0, 54, 0
2, 146296, Note_on_c, 0, 66, 0
2, 146301, Note_on_c, 0, 66, 91
2, 146304, Note_on_c, 0, 82, 0
2, 146305, Note_on_c, 0, 54, 71
2, 146309, Note_on_c, 0, 82, 94
2, 146380, Note_on_c, 0, 85, 0
2, 146389, Note_on_c, 0, 85, 92
2, 146461, Note_on_c, 0, 88, 78
2, 146511, Note_on_c, 0, 90, 0
2, 146520, Note_on_c, 0, 90, 89
2, 146561, Note_on_c, 0, 94, 0
2, 146562, Note_on_c, 0, 76, 0
2, 146562, Note_on_c, 0, 54, 0
2, 146562, Note_on_c, 0, 88, 0
2, 146562, Note_on_c, 0, 90, 0
2, 146562, Note_on_c, 0, 82, 0
2, 146562, Note_on_c, 0, 49, 0
2, 146563, Note_on_c, 0, 73, 0
2, 146563, Note_on_c, 0, 78, 0
2, 146563, Note_on_c, 0, 58, 0
2, 146563, Note_on_c, 0, 85, 0
2, 146563, Note_on_c, 0, 70, 0
2, 146563, Note_on_c, 0, 64, 0
2, 146564, Note_on_c, 0, 66, 0
2, 146564, Note_on_c, 0, 61, 0
2, 146568, Control_c, 0, 64, 0
2, 146572, Note_on_c, 0, 42, 0
2, 146604, Note_on_c, 0, 40, 85
2, 146607, Note_on_c, 0, 82, 95
2, 146608, Note_on_c, 0, 85, 89
2, 146611, Note_on_c, 0, 94, 94
2, 146616, Note_on_c, 0, 92, 89
2, 146641, Control_c, 0, 64, 127
2, 146773, Note_on_c, 0, 49, 76
2, 146914, Note_on_c, 0, 58, 90
2, 146917, Note_on_c, 0, 52, 76
2, 146989, Note_on_c, 0, 61, 83
2, 147056, Note_on_c, 0, 49, 0
2, 147060, Note_on_c, 0, 49, 69
2, 147061, Note_on_c, 0, 64, 79
2, 147140, Note_on_c, 0, 66, 83
2, 147194, Note_on_c, 0, 52, 0
2, 147198, Note_on_c, 0, 52, 75
2, 147228, Note_on_c, 0, 70, 87
2, 147293, Note_on_c, 0, 73, 92
2, 147356, Note_on_c, 0, 61, 0
2, 147365, Note_on_c, 0, 76, 86
2, 147367, Note_on_c, 0, 61, 85
2, 147452, Note_on_c, 0, 78, 64
2, 147502, Note_on_c, 0, 66, 0
2, 147506, Note_on_c, 0, 66, 93
2, 147517, Note_on_c, 0, 82, 0
2, 147524, Note_on_c, 0, 82, 96
2, 147586, Note_on_c, 0, 85, 0
2, 147591, Note_on_c, 0, 85, 91
2, 147617, Note_on_c, 0, 92, 0
2, 147638, Note_on_c, 0, 88, 69
2, 147687, Note_on_c, 0, 90, 88
2, 147783, Note_on_c, 0, 90, 0
2, 147783, Note_on_c, 0, 49, 0
2, 147784, Note_on_c, 0, 94, 0
2, 147784, Note_on_c, 0, 66, 0
2, 147784, Note_on_c, 0, 73, 0
2, 147784, Note_on_c, 0, 52, 0
2, 147785, Note_on_c, 0, 82, 0
2, 147785, Note_on_c, 0, 64, 0
2, 147785, Note_on_c, 0, 58, 0
2, 147785, Note_on_c, 0, 76, 0
2, 147785, Note_on_c, 0, 61, 0
2, 147785, Note_on_c, 0, 88, 0
2, 147785, Note_on_c, 0, 70, 0
2, 147788, Note_on_c, 0, 40, 0
2, 147788, Control_c, 0, 64, 0
2, 147801, Note_on_c, 0, 78, 0
2, 147816, Note_on_c, 0, 85, 0
2, 147820, Note_on_c, 0, 39, 90
2, 147820, Note_on_c, 0, 94, 108
2, 147826, Note_on_c, 0, 85, 91
2, 147828, Note_on_c, 0, 82, 96
2, 147834, Note_on_c, 0, 87, 85
2, 147863, Control_c, 0, 64, 127
2, 147995, Note_on_c, 0, 46, 77
2, 148142, Note_on_c, 0, 58, 85
2, 148145, Note_on_c, 0, 51, 67
2, 148212, Note_on_c, 0, 61, 81
2, 148277, Note_on_c, 0, 46, 0
2, 148279, Note_on_c, 0, 63, 83
2, 148283, Note_on_c, 0, 46, 73
2, 148359, Note_on_c, 0, 67, 92
2, 148423, Note_on_c, 0, 51, 0
2, 148434, Note_on_c, 0, 51, 83
2, 148439, Note_on_c, 0, 70, 93
2, 148514, Note_on_c, 0, 73, 87
2, 148561, Note_on_c, 0, 58, 0
2, 148567, Note_on_c, 0, 58, 94
2, 148575, Note_on_c, 0, 75, 94
2, 148657, Note_on_c, 0, 79, 88
2, 148677, Note_on_c, 0, 63, 0
2, 148684, Note_on_c, 0, 63, 83
2, 148715, Note_on_c, 0, 67, 0
2, 148720, Note_on_c, 0, 67, 68
2, 148723, Note_on_c, 0, 82, 0
2, 148727, Note_on_c, 0, 82, 96
2, 148800, Note_on_c, 0, 85, 0
2, 148804, Note_on_c, 0, 85, 87
2, 148846, Note_on_c, 0, 70, 0
2, 148846, Note_on_c, 0, 87, 0
2, 148850, Note_on_c, 0, 70, 93
2, 148856, Note_on_c, 0, 87, 93
2, 148936, Note_on_c, 0, 91, 94
2, 148992, Note_on_c, 0, 75, 0
2, 148992, Note_on_c, 0, 94, 0
2, 149002, Note_on_c, 0, 75, 102
2, 149003, Note_on_c, 0, 94, 105
2, 149091, Note_on_c, 0, 87, 0
2, 149103, Note_on_c, 0, 87, 86
2, 149222, Note_on_c, 0, 82, 0
2, 149229, Note_on_c, 0, 82, 94
2, 149352, Note_on_c, 0, 82, 0
2, 149357, Note_on_c, 0, 82, 79
2, 149391, Note_on_c, 0, 75, 0
2, 149398, Note_on_c, 0, 75, 81
2, 149475, Note_on_c, 0, 73, 0
2, 149481, Note_on_c, 0, 73, 78
2, 149560, Note_on_c, 0, 70, 0
2, 149565, Note_on_c, 0, 70, 72
2, 149637, Note_on_c, 0, 70, 0
2, 149648, Note_on_c, 0, 70, 77
2, 149721, Note_on_c, 0, 63, 0
2, 149731, Note_on_c, 0, 63, 73
2, 149790, Note_on_c, 0, 61, 0
2, 149798, Note_on_c, 0, 61, 68
2, 149859, Note_on_c, 0, 58, 0
2, 149868, Note_on_c, 0, 58, 81
2, 149975, Note_on_c, 0, 58, 0
2, 149986, Note_on_c, 0, 58, 75
2, 150067, Note_on_c, 0, 51, 0
2, 150072, Note_on_c, 0, 51, 65
2, 150147, Note_on_c, 0, 49, 56
2, 150205, Note_on_c, 0, 46, 0
2, 150209, Note_on_c, 0, 46, 61
2, 150343, Note_on_c, 0, 39, 0
2, 150349, Note_on_c, 0, 39, 67
2, 150366, Note_on_c, 0, 73, 0
2, 150435, Note_on_c, 0, 49, 0
2, 150443, Note_on_c, 0, 67, 0
2, 150458, Note_on_c, 0, 79, 0
2, 150481, Control_c, 0, 64, 0
2, 150481, Note_on_c, 0, 70, 0
2, 150497, Note_on_c, 0, 61, 0
2, 150497, Note_on_c, 0, 63, 0
2, 150528, Note_on_c, 0, 85, 0
2, 150535, Note_on_c, 0, 51, 0
2, 150535, Note_on_c, 0, 75, 0
2, 150539, Note_on_c, 0, 51, 66
2, 150543, Note_on_c, 0, 87, 0
2, 150547, Note_on_c, 0, 58, 0
2, 150558, Note_on_c, 0, 82, 0
2, 150558, Note_on_c, 0, 94, 0
2, 150566, Note_on_c, 0, 91, 0
2, 150574, Note_on_c, 0, 46, 0
2, 150731, Note_on_c, 0, 56, 59
2, 150907, Note_on_c, 0, 58, 71
2, 151096, Control_c, 0, 64, 127
2, 151099, Note_on_c, 0, 63, 70
2, 151310, Note_on_c, 0, 68, 70
2, 151539, Note_on_c, 0, 70, 69
2, 151840, Note_on_c, 0, 75, 64
2, 152279, Note_on_c, 0, 27, 48
2, 152279, Note_on_c, 0, 99, 77
2, 152284, Note_on_c, 0, 87, 68
2, 152286, Note_on_c, 0, 27, 0
2, 154959, Note_on_c, 0, 39, 0
2, 155151, Note_on_c, 0, 51, 0
2, 155248, Note_on_c, 0, 70, 0
2, 155249, Note_on_c, 0, 75, 0
2, 155254, Note_on_c, 0, 63, 0
2, 155283, Control_c, 0, 64, 0
2, 155297, Note_on_c, 0, 56, 0
2, 155304, Note_on_c, 0, 68, 0
2, 155320, Note_on_c, 0, 99, 0
2, 155466, Note_on_c, 0, 58, 0
2, 155520, Note_on_c, 0, 87, 0
2, 157862, Control_c, 0, 64, 127
2, 157965, Note_on_c, 0, 75, 59
2, 158179, Note_on_c, 0, 78, 74
2, 158407, Note_on_c, 0, 78, 0
2, 158415, Note_on_c, 0, 75, 0
2, 158415, Note_on_c, 0, 78, 71
2, 158419, Note_on_c, 0, 71, 64
2, 158420, Control_c, 0, 64, 0
2, 158425, Note_on_c, 0, 75, 62
2, 158434, Note_on_c, 0, 59, 47
2, 158436, Note_on_c, 0, 51, 43
2, 158448, Note_on_c, 0, 44, 38
2, 158545, Control_c, 0, 64, 127
2, 158814, Note_on_c, 0, 83, 74
2, 158814, Note_on_c, 0, 75, 0
2, 158818, Note_on_c, 0, 75, 58
2, 159022, Note_on_c, 0, 82, 72
2, 159039, Note_on_c, 0, 73, 51
2, 159411, Note_on_c, 0, 80, 81
2, 159436, Note_on_c, 0, 71, 0
2, 159441, Note_on_c, 0, 71, 60
2, 159820, Note_on_c, 0, 75, 0
2, 159830, Note_on_c, 0, 75, 76
2, 159848, Note_on_c, 0, 66, 59
2, 160015, Note_on_c, 0, 82, 0
2, 160015, Note_on_c, 0, 73, 0
2, 160016, Note_on_c, 0, 80, 0
2, 160016, Note_on_c, 0, 51, 0
2, 160016, Note_on_c, 0, 66, 0
2, 160016, Note_on_c, 0, 44, 0
2, 160016, Note_on_c, 0, 71, 0
2, 160017, Note_on_c, 0, 59, 0
2, 160017, Note_on_c, 0, 75, 0
2, 160017, Note_on_c, 0, 83, 0
2, 160018, Control_c, 0, 64, 0
2, 160037, Note_on_c, 0, 47, 55
2, 160037, Note_on_c, 0, 40, 46
2, 160045, Note_on_c, 0, 56, 43
2, 160051, Note_on_c, 0, 78, 0
2, 160151, Control_c, 0, 64, 127
2, 160432, Note_on_c, 0, 75, 69
2, 160435, Note_on_c, 0, 66, 62
2, 160653, Note_on_c, 0, 73, 71
2, 160669, Note_on_c, 0, 64, 58
2, 161066, Control_c, 0, 64, 0
2, 161068, Note_on_c, 0, 71, 65
2, 161068, Note_on_c, 0, 73, 0
2, 161068, Note_on_c, 0, 75, 0
2, 161069, Note_on_c, 0, 64, 0
2, 161069, Note_on_c, 0, 47, 0
2, 161070, Note_on_c, 0, 66, 0
2, 161093, Note_on_c, 0, 63, 54
2, 161172, Control_c, 0, 64, 127
2, 161456, Note_on_c, 0, 71, 0
2, 161465, Note_on_c, 0, 71, 68
2, 161666, Note_on_c, 0, 40, 0
2, 161667, Note_on_c, 0, 63, 0
2, 161668, Note_on_c, 0, 71, 0
2, 161668, Control_c, 0, 64, 0
2, 161671, Note_on_c, 0, 56, 0
2, 161675, Note_on_c, 0, 73, 72
2, 161677, Note_on_c, 0, 42, 43
2, 161680, Note_on_c, 0, 49, 44
2, 161690, Note_on_c, 0, 58, 52
2, 161690, Note_on_c, 0, 70, 58
2, 161825, Control_c, 0, 64, 127
2, 162040, Note_on_c, 0, 73, 0
2, 162045, Note_on_c, 0, 73, 63
2, 162063, Note_on_c, 0, 70, 0
2, 162071, Note_on_c, 0, 70, 53
2, 162239, Note_on_c, 0, 71, 70
2, 162264, Note_on_c, 0, 68, 56
2, 162439, Note_on_c, 0, 70, 0
2, 162439, Note_on_c, 0, 73, 0
2, 162443, Note_on_c, 0, 73, 73
2, 162449, Note_on_c, 0, 70, 68
2, 162633, Note_on_c, 0, 49, 0
2, 162634, Note_on_c, 0, 68, 0
2, 162635, Note_on_c, 0, 70, 0
2, 162635, Control_c, 0, 64, 0
2, 162636, Note_on_c, 0, 73, 0
2, 162646, Note_on_c, 0, 75, 74
2, 162647, Note_on_c, 0, 58, 0
2, 162654, Note_on_c, 0, 71, 0
2, 162662, Note_on_c, 0, 71, 60
2, 162808, Control_c, 0, 64, 127
2, 163031, Note_on_c, 0, 71, 0
2, 163031, Note_on_c, 0, 75, 0
2, 163041, Note_on_c, 0, 75, 73
2, 163042, Note_on_c, 0, 71, 67
2, 163277, Note_on_c, 0, 63, 49
2, 163282, Control_c, 0, 64, 0
2, 163290, Note_on_c, 0, 59, 51
2, 163296, Note_on_c, 0, 47, 49
2, 163302, Note_on_c, 0, 54, 39
2, 163307, Note_on_c, 0, 71, 0
2, 163438, Control_c, 0, 64, 127
2, 164146, Control_c, 0, 64, 0
2, 164147, Note_on_c, 0, 63, 0
2, 164148, Note_on_c, 0, 47, 0
2, 164148, Note_on_c, 0, 59, 0
2, 164149, Note_on_c, 0, 61, 42
2, 164152, Note_on_c, 0, 54, 0
2, 164152, Note_on_c, 0, 58, 47
2, 164155, Note_on_c, 0, 46, 41
2, 164161, Note_on_c, 0, 54, 36
2, 164183, Note_on_c, 0, 42, 0
2, 164298, Control_c, 0, 64, 127
2, 164574, Note_on_c, 0, 75, 0
2, 164578, Note_on_c, 0, 75, 66
2, 164806, Note_on_c, 0, 78, 80
2, 165058, Note_on_c, 0, 78, 0
2, 165064, Note_on_c, 0, 78, 72
2, 165065, Note_on_c, 0, 44, 47
2, 165073, Note_on_c, 0, 75, 0
2, 165078, Control_c, 0, 64, 0
2, 165079, Note_on_c, 0, 54, 0
2, 165080, Note_on_c, 0, 46, 0
2, 165080, Note_on_c, 0, 58, 0
2, 165082, Note_on_c, 0, 75, 53
2, 165083, Note_on_c, 0, 61, 0
2, 165086, Note_on_c, 0, 71, 52
2, 165242, Control_c, 0, 64, 127
2, 165304, Note_on_c, 0, 51, 55
2, 165350, Note_on_c, 0, 71, 0
2, 165484, Note_on_c, 0, 83, 75
2, 165496, Note_on_c, 0, 75, 0
2, 165506, Note_on_c, 0, 56, 53
2, 165506, Note_on_c, 0, 75, 64
2, 165705, Note_on_c, 0, 82, 78
2, 165716, Note_on_c, 0, 73, 59
2, 165718, Note_on_c, 0, 59, 55
2, 166116, Note_on_c, 0, 80, 73
2, 166143, Note_on_c, 0, 71, 59
2, 166548, Note_on_c, 0, 75, 0
2, 166559, Note_on_c, 0, 75, 67
2, 166569, Note_on_c, 0, 66, 56
2, 166776, Note_on_c, 0, 59, 0
2, 166776, Note_on_c, 0, 82, 0
2, 166777, Note_on_c, 0, 56, 0
2, 166777, Note_on_c, 0, 44, 0
2, 166777, Note_on_c, 0, 71, 0
2, 166778, Note_on_c, 0, 80, 0
2, 166778, Control_c, 0, 64, 0
2, 166778, Note_on_c, 0, 73, 0
2, 166778, Note_on_c, 0, 51, 0
2, 166778, Note_on_c, 0, 83, 0
2, 166786, Note_on_c, 0, 78, 0
2, 166789, Note_on_c, 0, 40, 46
2, 166932, Control_c, 0, 64, 127
2, 167029, Note_on_c, 0, 47, 52
2, 167216, Note_on_c, 0, 75, 0
2, 167224, Note_on_c, 0, 75, 65
2, 167239, Note_on_c, 0, 66, 0
2, 167243, Note_on_c, 0, 52, 51
2, 167244, Note_on_c, 0, 66, 54
2, 167479, Note_on_c, 0, 73, 66
2, 167497, Note_on_c, 0, 56, 48
2, 167497, Note_on_c, 0, 64, 54
2, 167498, Note_on_c, 0, 68, 49
2, 167972, Note_on_c, 0, 71, 59
2, 167984, Note_on_c, 0, 47, 0
2, 167988, Note_on_c, 0, 47, 32
2, 167990, Note_on_c, 0, 63, 44
2, 167992, Note_on_c, 0, 64, 0
2, 167993, Control_c, 0, 64, 0
2, 167995, Note_on_c, 0, 73, 0
2, 168015, Note_on_c, 0, 66, 0
2, 168015, Note_on_c, 0, 75, 0
2, 168130, Control_c, 0, 64, 127
2, 168493, Note_on_c, 0, 73, 66
2, 168861, Note_on_c, 0, 85, 73
2, 168867, Note_on_c, 0, 73, 0
2, 168871, Note_on_c, 0, 42, 45
2, 168874, Note_on_c, 0, 82, 58
2, 168876, Note_on_c, 0, 30, 43
2, 168879, Note_on_c, 0, 73, 54
2, 168883, Note_on_c, 0, 30, 0
2, 168883, Note_on_c, 0, 63, 0
2, 168885, Note_on_c, 0, 71, 0
2, 168887, Note_on_c, 0, 47, 0
2, 168890, Note_on_c, 0, 56, 0
2, 168891, Note_on_c, 0, 40, 0
2, 168893, Control_c, 0, 64, 0
2, 168898, Note_on_c, 0, 52, 0
2, 168898, Note_on_c, 0, 68, 0
2, 169144, Control_c, 0, 64, 127
2, 169252, Note_on_c, 0, 49, 51
2, 169545, Note_on_c, 0, 54, 46
2, 169838, Note_on_c, 0, 59, 57
2, 170092, Note_on_c, 0, 61, 64
2, 170400, Note_on_c, 0, 64, 55
2, 170760, Note_on_c, 0, 66, 63
2, 170880, Note_on_c, 0, 42, 0
2, 170880, Note_on_c, 0, 73, 0
2, 170880, Note_on_c, 0, 82, 0
2, 170880, Note_on_c, 0, 85, 0
2, 171202, Note_on_c, 0, 71, 51
2, 171701, Note_on_c, 0, 54, 0
2, 171709, Note_on_c, 0, 54, 31
2, 171809, Note_on_c, 0, 61, 0
2, 171815, Note_on_c, 0, 61, 41
2, 171920, Note_on_c, 0, 70, 45
2, 172004, Note_on_c, 0, 64, 0
2, 172005, Note_on_c, 0, 71, 0
2, 172006, Note_on_c, 0, 59, 0
2, 172034, Note_on_c, 0, 73, 56
2, 172085, Note_on_c, 0, 49, 0
2, 172131, Control_c, 0, 64, 0
2, 173253, Control_c, 0, 64, 127
2, 174720, Note_on_c, 0, 54, 0
2, 174720, Note_on_c, 0, 61, 0
2, 174720, Note_on_c, 0, 66, 0
2, 174720, Note_on_c, 0, 70, 0
2, 174720, Note_on_c, 0, 73, 0
2, 177207, Note_on_c, 0, 83, 46
2, 178304, Note_on_c, 0, 85, 50
2, 178698, Note_on_c, 0, 83, 0
2, 178709, Note_on_c, 0, 83, 58
2, 179202, Note_on_c, 0, 82, 58
2, 179275, Note_on_c, 0, 83, 0
2, 180172, Note_on_c, 0, 83, 50
2, 180326, Note_on_c, 0, 82, 0
2, 181486, Note_on_c, 0, 85, 0
2, 182400, Note_on_c, 0, 83, 0
2, 182456, Note_on_c, 0, 59, 40
2, 182457, Control_c, 0, 64, 0
2, 182515, Control_c, 0, 64, 127
2, 182913, Note_on_c, 0, 63, 48
2, 183149, Note_on_c, 0, 66, 38
2, 183381, Note_on_c, 0, 71, 44
2, 183567, Note_on_c, 0, 59, 0
2, 183578, Note_on_c, 0, 59, 55
2, 183790, Note_on_c, 0, 63, 0
2, 183797, Note_on_c, 0, 63, 44
2, 183974, Note_on_c, 0, 66, 0
2, 183979, Note_on_c, 0, 66, 52
2, 184166, Note_on_c, 0, 71, 0
2, 184174, Note_on_c, 0, 59, 0
2, 184176, Note_on_c, 0, 71, 47
2, 184178, Note_on_c, 0, 59, 39
2, 184358, Note_on_c, 0, 59, 0
2, 184364, Note_on_c, 0, 59, 51
2, 184558, Note_on_c, 0, 63, 0
2, 184564, Note_on_c, 0, 63, 41
2, 184719, Note_on_c, 0, 66, 0
2, 184730, Note_on_c, 0, 66, 55
2, 184911, Note_on_c, 0, 71, 0
2, 184916, Note_on_c, 0, 71, 48
2, 185118, Note_on_c, 0, 59, 0
2, 185123, Note_on_c, 0, 59, 57
2, 185333, Note_on_c, 0, 63, 0
2, 185340, Note_on_c, 0, 63, 41
2, 185510, Note_on_c, 0, 66, 0
2, 185521, Note_on_c, 0, 66, 52
2, 185710, Note_on_c, 0, 71, 0
2, 185720, Note_on_c, 0, 71, 56
2, 185906, Control_c, 0, 64, 0
2, 185906, Note_on_c, 0, 71, 0
2, 185907, Note_on_c, 0, 59, 0
2, 185907, Note_on_c, 0, 56, 46
2, 185908, Note_on_c, 0, 63, 0
2, 185909, Note_on_c, 0, 66, 0
2, 186009, Control_c, 0, 64, 127
2, 186097, Note_on_c, 0, 63, 46
2, 186280, Note_on_c, 0, 66, 46
2, 186471, Note_on_c, 0, 71, 47
2, 186654, Note_on_c, 0, 56, 0
2, 186660, Note_on_c, 0, 68, 38
2, 186663, Note_on_c, 0, 56, 45
2, 186846, Note_on_c, 0, 63, 0
2, 186851, Note_on_c, 0, 63, 42
2, 187031, Note_on_c, 0, 66, 0
2, 187036, Note_on_c, 0, 66, 52
2, 187069, Note_on_c, 0, 63, 0
2, 187080, Note_on_c, 0, 63, 19
2, 187207, Note_on_c, 0, 71, 0
2, 187212, Note_on_c, 0, 71, 49
2, 187384, Note_on_c, 0, 56, 0
2, 187394, Note_on_c, 0, 56, 45
2, 187560, Note_on_c, 0, 63, 0
2, 187570, Note_on_c, 0, 63, 58
2, 187752, Note_on_c, 0, 66, 0
2, 187758, Note_on_c, 0, 66, 54
2, 187921, Note_on_c, 0, 71, 0
2, 187926, Note_on_c, 0, 71, 51
2, 188098, Note_on_c, 0, 56, 0
2, 188109, Note_on_c, 0, 56, 46
2, 188298, Note_on_c, 0, 63, 0
2, 188303, Note_on_c, 0, 63, 61
2, 188490, Note_on_c, 0, 66, 0
2, 188500, Note_on_c, 0, 66, 51
2, 188666, Note_on_c, 0, 71, 0
2, 188677, Note_on_c, 0, 71, 50
2, 188879, Note_on_c, 0, 52, 64
2, 188906, Control_c, 0, 64, 0
2, 188908, Note_on_c, 0, 66, 0
2, 188908, Note_on_c, 0, 56, 0
2, 188908, Note_on_c, 0, 63, 0
2, 188912, Note_on_c, 0, 68, 0
2, 189043, Control_c, 0, 64, 127
2, 189067, Note_on_c, 0, 59, 62
2, 189237, Note_on_c, 0, 66, 59
2, 189427, Note_on_c, 0, 71, 0
2, 189435, Note_on_c, 0, 71, 51
2, 189603, Note_on_c, 0, 52, 0
2, 189611, Note_on_c, 0, 52, 57
2, 189788, Note_on_c, 0, 59, 0
2, 189798, Note_on_c, 0, 59, 58
2, 189972, Note_on_c, 0, 66, 0
2, 189982, Note_on_c, 0, 66, 60
2, 190164, Note_on_c, 0, 71, 0
2, 190171, Note_on_c, 0, 71, 60
2, 190341, Note_on_c, 0, 52, 0
2, 190352, Note_on_c, 0, 52, 52
2, 190525, Note_on_c, 0, 59, 0
2, 190536, Note_on_c, 0, 59, 60
2, 190725, Note_on_c, 0, 66, 0
2, 190728, Note_on_c, 0, 66, 58
2, 190924, Note_on_c, 0, 71, 0
2, 190930, Note_on_c, 0, 71, 44
2, 191093, Note_on_c, 0, 52, 0
2, 191101, Note_on_c, 0, 52, 51
2, 191285, Note_on_c, 0, 59, 0
2, 191296, Note_on_c, 0, 59, 61
2, 191477, Note_on_c, 0, 66, 0
2, 191485, Note_on_c, 0, 66, 63
2, 191677, Note_on_c, 0, 71, 0
2, 191681, Note_on_c, 0, 71, 54
2, 191844, Control_c, 0, 64, 0
2, 191848, Note_on_c, 0, 66, 0
2, 191849, Note_on_c, 0, 52, 0
2, 191861, Note_on_c, 0, 59, 0
2, 191866, Note_on_c, 0, 54, 45
2, 192023, Control_c, 0, 64, 127
2, 192030, Note_on_c, 0, 71, 0
2, 192045, Note_on_c, 0, 61, 52
2, 192222, Note_on_c, 0, 66, 58
2, 192429, Note_on_c, 0, 71, 56
2, 192583, Note_on_c, 0, 54, 0
2, 192591, Note_on_c, 0, 54, 46
2, 192760, Note_on_c, 0, 61, 0
2, 192766, Note_on_c, 0, 61, 61
2, 192944, Note_on_c, 0, 66, 0
2, 192951, Note_on_c, 0, 66, 59
2, 193144, Note_on_c, 0, 71, 0
2, 193154, Note_on_c, 0, 71, 54
2, 193328, Note_on_c, 0, 54, 0
2, 193335, Note_on_c, 0, 54, 40
2, 193336, Note_on_c, 0, 66, 0
2, 193344, Note_on_c, 0, 66, 38
2, 193512, Note_on_c, 0, 61, 0
2, 193520, Note_on_c, 0, 61, 48
2, 193697, Note_on_c, 0, 66, 0
2, 193701, Note_on_c, 0, 66, 45
2, 193904, Note_on_c, 0, 70, 57
2, 194081, Note_on_c, 0, 54, 0
2, 194089, Note_on_c, 0, 54, 39
2, 194265, Note_on_c, 0, 61, 0
2, 194275, Note_on_c, 0, 61, 60
2, 194489, Note_on_c, 0, 75, 76
2, 194503, Note_on_c, 0, 66, 0
2, 194508, Note_on_c, 0, 66, 58
2, 194726, Note_on_c, 0, 70, 0
2, 194733, Note_on_c, 0, 70, 57
2, 194737, Note_on_c, 0, 78, 82
2, 195025, Note_on_c, 0, 78, 0
2, 195029, Note_on_c, 0, 47, 62
2, 195030, Note_on_c, 0, 78, 82
2, 195048, Note_on_c, 0, 71, 0
2, 195048, Note_on_c, 0, 75, 0
2, 195053, Note_on_c, 0, 71, 63
2, 195054, Note_on_c, 0, 75, 58
2, 195068, Control_c, 0, 64, 0
2, 195088, Note_on_c, 0, 61, 0
2, 195088, Note_on_c, 0, 54, 0
2, 195089, Note_on_c, 0, 66, 0
2, 195090, Note_on_c, 0, 70, 0
2, 195179, Control_c, 0, 64, 127
2, 195199, Note_on_c, 0, 54, 54
2, 195271, Note_on_c, 0, 47, 0
2, 195335, Note_on_c, 0, 59, 58
2, 195449, Note_on_c, 0, 61, 62
2, 195566, Note_on_c, 0, 63, 59
2, 195666, Note_on_c, 0, 66, 59
2, 195817, Note_on_c, 0, 47, 57
2, 195939, Note_on_c, 0, 54, 0
2, 195949, Note_on_c, 0, 54, 49
2, 196070, Note_on_c, 0, 59, 0
2, 196078, Note_on_c, 0, 71, 0
2, 196081, Note_on_c, 0, 59, 66
2, 196082, Note_on_c, 0, 71, 68
2, 196200, Note_on_c, 0, 61, 0
2, 196204, Note_on_c, 0, 73, 82
2, 196206, Note_on_c, 0, 61, 66
2, 196316, Note_on_c, 0, 71, 0
2, 196316, Note_on_c, 0, 75, 0
2, 196320, Note_on_c, 0, 75, 86
2, 196327, Note_on_c, 0, 71, 52
2, 196331, Note_on_c, 0, 63, 0
2, 196342, Note_on_c, 0, 63, 47
2, 196416, Note_on_c, 0, 66, 0
2, 196424, Note_on_c, 0, 66, 68
2, 196426, Note_on_c, 0, 83, 85
2, 196584, Note_on_c, 0, 82, 90
2, 196592, Note_on_c, 0, 47, 0
2, 196592, Note_on_c, 0, 75, 0
2, 196592, Note_on_c, 0, 78, 0
2, 196597, Note_on_c, 0, 47, 65
2, 196600, Note_on_c, 0, 71, 0
2, 196601, Note_on_c, 0, 78, 61
2, 196603, Note_on_c, 0, 75, 80
2, 196606, Note_on_c, 0, 71, 66
2, 196609, Control_c, 0, 64, 0
2, 196612, Note_on_c, 0, 54, 0
2, 196612, Note_on_c, 0, 63, 0
2, 196613, Note_on_c, 0, 66, 0
2, 196614, Note_on_c, 0, 73, 0
2, 196631, Note_on_c, 0, 61, 0
2, 196707, Note_on_c, 0, 59, 0
2, 196723, Control_c, 0, 64, 127
2, 196743, Note_on_c, 0, 54, 50
2, 196867, Note_on_c, 0, 59, 65
2, 196996, Note_on_c, 0, 61, 64
2, 197117, Note_on_c, 0, 63, 50
2, 197210, Note_on_c, 0, 66, 66
2, 197368, Note_on_c, 0, 47, 0
2, 197375, Note_on_c, 0, 47, 70
2, 197382, Control_c, 0, 64, 0
2, 197429, Control_c, 0, 64, 127
2, 197514, Note_on_c, 0, 54, 0
2, 197518, Note_on_c, 0, 54, 63
2, 197634, Note_on_c, 0, 80, 79
2, 197637, Note_on_c, 0, 59, 0
2, 197637, Note_on_c, 0, 83, 0
2, 197641, Note_on_c, 0, 59, 71
2, 197652, Note_on_c, 0, 71, 0
2, 197658, Note_on_c, 0, 71, 49
2, 197767, Note_on_c, 0, 61, 0
2, 197773, Note_on_c, 0, 61, 71
2, 197775, Note_on_c, 0, 78, 0
2, 197782, Note_on_c, 0, 78, 85
2, 197890, Note_on_c, 0, 75, 0
2, 197896, Note_on_c, 0, 75, 84
2, 197905, Note_on_c, 0, 63, 0
2, 197915, Note_on_c, 0, 63, 60
2, 198005, Note_on_c, 0, 66, 0
2, 198005, Note_on_c, 0, 71, 0
2, 198014, Note_on_c, 0, 71, 87
2, 198014, Note_on_c, 0, 66, 68
2, 198028, Note_on_c, 0, 47, 0
2, 198034, Note_on_c, 0, 47, 53
2, 198146, Note_on_c, 0, 47, 0
2, 198146, Note_on_c, 0, 54, 0
2, 198146, Note_on_c, 0, 61, 0
2, 198147, Note_on_c, 0, 59, 0
2, 198147, Note_on_c, 0, 66, 0
2, 198147, Note_on_c, 0, 75, 0
2, 198147, Control_c, 0, 64, 0
2, 198147, Note_on_c, 0, 63, 0
2, 198147, Note_on_c, 0, 78, 0
2, 198147, Note_on_c, 0, 80, 0
2, 198151, Note_on_c, 0, 82, 0
2, 198174, Note_on_c, 0, 44, 63
2, 198176, Note_on_c, 0, 73, 86
2, 198243, Control_c, 0, 64, 127
2, 198274, Note_on_c, 0, 71, 0
2, 198316, Note_on_c, 0, 51, 63
2, 198378, Note_on_c, 0, 75, 75
2, 198435, Note_on_c, 0, 68, 57
2, 198437, Note_on_c, 0, 56, 57
2, 198451, Note_on_c, 0, 73, 0
2, 198461, Note_on_c, 0, 73, 67
2, 198528, Note_on_c, 0, 75, 0
2, 198534, Note_on_c, 0, 59, 65
2, 198539, Note_on_c, 0, 75, 71
2, 198574, Note_on_c, 0, 73, 0
2, 198578, Note_on_c, 0, 73, 66
2, 198635, Note_on_c, 0, 75, 0
2, 198645, Note_on_c, 0, 61, 64
2, 198646, Note_on_c, 0, 75, 71
2, 198681, Note_on_c, 0, 73, 0
2, 198686, Note_on_c, 0, 73, 76
2, 198744, Note_on_c, 0, 63, 72
2, 198773, Note_on_c, 0, 73, 0
2, 198783, Note_on_c, 0, 73, 76
2, 198835, Note_on_c, 0, 75, 0
2, 198845, Note_on_c, 0, 75, 81
2, 198904, Note_on_c, 0, 73, 0
2, 198911, Note_on_c, 0, 73, 89
2, 198927, Note_on_c, 0, 44, 0
2, 198929, Control_c, 0, 64, 0
2, 198930, Note_on_c, 0, 56, 0
2, 198931, Note_on_c, 0, 63, 0
2, 198931, Note_on_c, 0, 51, 0
2, 198931, Note_on_c, 0, 59, 0
2, 198931, Note_on_c, 0, 75, 0
2, 198931, Note_on_c, 0, 61, 0
2, 198938, Note_on_c, 0, 44, 68
2, 198950, Note_on_c, 0, 68, 0
2, 199019, Control_c, 0, 64, 127
2, 199074, Note_on_c, 0, 51, 63
2, 199132, Note_on_c, 0, 71, 77
2, 199172, Note_on_c, 0, 68, 54
2, 199181, Note_on_c, 0, 56, 60
2, 199219, Note_on_c, 0, 73, 0
2, 199229, Note_on_c, 0, 73, 73
2, 199272, Note_on_c, 0, 71, 0
2, 199277, Note_on_c, 0, 59, 69
2, 199283, Note_on_c, 0, 71, 68
2, 199368, Note_on_c, 0, 70, 71
2, 199370, Note_on_c, 0, 61, 64
2, 199418, Note_on_c, 0, 59, 0
2, 199426, Note_on_c, 0, 71, 0
2, 199430, Note_on_c, 0, 59, 61
2, 199430, Note_on_c, 0, 71, 75
2, 199477, Note_on_c, 0, 63, 70
2, 199495, Note_on_c, 0, 73, 0
2, 199503, Note_on_c, 0, 73, 76
2, 199594, Note_on_c, 0, 78, 82
2, 199669, Note_on_c, 0, 56, 0
2, 199669, Note_on_c, 0, 73, 0
2, 199669, Note_on_c, 0, 51, 0
2, 199669, Note_on_c, 0, 63, 0
2, 199669, Note_on_c, 0, 61, 0
2, 199670, Note_on_c, 0, 70, 0
2, 199671, Control_c, 0, 64, 0
2, 199687, Note_on_c, 0, 44, 0
2, 199687, Note_on_c, 0, 59, 0
2, 199687, Note_on_c, 0, 68, 0
2, 199692, Note_on_c, 0, 44, 63
2, 199696, Note_on_c, 0, 75, 79
2, 199710, Note_on_c, 0, 71, 0
2, 199715, Note_on_c, 0, 71, 66
2, 199810, Control_c, 0, 64, 127
2, 199844, Note_on_c, 0, 51, 60
2, 199976, Note_on_c, 0, 56, 60
2, 200086, Note_on_c, 0, 59, 72
2, 200198, Note_on_c, 0, 61, 66
2, 200308, Note_on_c, 0, 63, 69
2, 200386, Note_on_c, 0, 44, 0
2, 200409, Note_on_c, 0, 78, 0
2, 200447, Note_on_c, 0, 56, 0
2, 200447, Note_on_c, 0, 61, 0
2, 200448, Note_on_c, 0, 59, 0
2, 200448, Control_c, 0, 64, 0
2, 200448, Note_on_c, 0, 63, 0
2, 200449, Note_on_c, 0, 51, 0
2, 200450, Note_on_c, 0, 75, 0
2, 200452, Note_on_c, 0, 44, 61
2, 200547, Control_c, 0, 64, 127
2, 200572, Note_on_c, 0, 51, 69
2, 200693, Note_on_c, 0, 71, 0
2, 200700, Note_on_c, 0, 71, 82
2, 200705, Note_on_c, 0, 56, 70
2, 200816, Note_on_c, 0, 73, 84
2, 200818, Note_on_c, 0, 59, 73
2, 200928, Note_on_c, 0, 75, 88
2, 200933, Note_on_c, 0, 61, 70
2, 201039, Note_on_c, 0, 63, 74
2, 201041, Note_on_c, 0, 78, 89
2, 201192, Note_on_c, 0, 56, 0
2, 201192, Note_on_c, 0, 73, 0
2, 201193, Note_on_c, 0, 75, 0
2, 201193, Note_on_c, 0, 59, 0
2, 201193, Note_on_c, 0, 51, 0
2, 201194, Note_on_c, 0, 63, 0
2, 201194, Note_on_c, 0, 61, 0
2, 201195, Note_on_c, 0, 44, 0
2, 201196, Control_c, 0, 64, 0
2, 201216, Note_on_c, 0, 78, 0
2, 201220, Note_on_c, 0, 40, 71
2, 201221, Note_on_c, 0, 78, 97
2, 201223, Note_on_c, 0, 71, 0
2, 201233, Note_on_c, 0, 75, 82
2, 201235, Note_on_c, 0, 71, 70
2, 201315, Control_c, 0, 64, 127
2, 201375, Note_on_c, 0, 47, 64
2, 201504, Note_on_c, 0, 52, 64
2, 201611, Note_on_c, 0, 54, 63
2, 201719, Note_on_c, 0, 56, 57
2, 201818, Note_on_c, 0, 59, 65
2, 201907, Note_on_c, 0, 54, 0
2, 201911, Note_on_c, 0, 54, 48
2, 201968, Note_on_c, 0, 40, 0
2, 201972, Control_c, 0, 64, 0
2, 201973, Note_on_c, 0, 40, 74
2, 202007, Control_c, 0, 64, 127
2, 202083, Note_on_c, 0, 71, 0
2, 202088, Note_on_c, 0, 71, 65
2, 202091, Note_on_c, 0, 47, 0
2, 202102, Note_on_c, 0, 47, 63
2, 202143, Note_on_c, 0, 73, 74
2, 202176, Note_on_c, 0, 75, 0
2, 202182, Note_on_c, 0, 75, 82
2, 202183, Note_on_c, 0, 47, 0
2, 202191, Note_on_c, 0, 47, 59
2, 202214, Note_on_c, 0, 52, 0
2, 202218, Note_on_c, 0, 52, 65
2, 202257, Note_on_c, 0, 76, 82
2, 202298, Note_on_c, 0, 78, 0
2, 202306, Note_on_c, 0, 54, 0
2, 202309, Note_on_c, 0, 78, 82
2, 202316, Note_on_c, 0, 54, 65
2, 202350, Note_on_c, 0, 80, 87
2, 202383, Note_on_c, 0, 59, 0
2, 202388, Note_on_c, 0, 82, 85
2, 202390, Note_on_c, 0, 59, 47
2, 202450, Note_on_c, 0, 83, 90
2, 202498, Note_on_c, 0, 59, 0
2, 202503, Note_on_c, 0, 85, 89
2, 202503, Note_on_c, 0, 59, 66
2, 202557, Note_on_c, 0, 87, 86
2, 202598, Note_on_c, 0, 54, 0
2, 202606, Note_on_c, 0, 54, 50
2, 202626, Note_on_c, 0, 88, 91
2, 202702, Note_on_c, 0, 90, 101
2, 202713, Note_on_c, 0, 40, 0
2, 202722, Control_c, 0, 64, 0
2, 202723, Note_on_c, 0, 71, 0
2, 202723, Note_on_c, 0, 56, 0
2, 202723, Note_on_c, 0, 82, 0
2, 202723, Note_on_c, 0, 73, 0
2, 202724, Note_on_c, 0, 83, 0
2, 202724, Note_on_c, 0, 40, 66
2, 202724, Note_on_c, 0, 54, 0
2, 202724, Note_on_c, 0, 85, 0
2, 202724, Note_on_c, 0, 87, 0
2, 202724, Note_on_c, 0, 59, 0
2, 202724, Note_on_c, 0, 78, 0
2, 202724, Note_on_c, 0, 80, 0
2, 202724, Note_on_c, 0, 47, 0
2, 202725, Note_on_c, 0, 75, 0
2, 202725, Note_on_c, 0, 76, 0
2, 202725, Note_on_c, 0, 52, 0
2, 202725, Note_on_c, 0, 88, 0
2, 202784, Note_on_c, 0, 95, 86
2, 202790, Control_c, 0, 64, 127
2, 202862, Note_on_c, 0, 47, 74
2, 202888, Note_on_c, 0, 88, 86
2, 202948, Note_on_c, 0, 52, 75
2, 202992, Note_on_c, 0, 87, 85
2, 203047, Note_on_c, 0, 92, 87
2, 203065, Note_on_c, 0, 54, 69
2, 203108, Note_on_c, 0, 85, 90
2, 203136, Note_on_c, 0, 90, 0
2, 203147, Note_on_c, 0, 90, 84
2, 203164, Note_on_c, 0, 56, 58
2, 203217, Note_on_c, 0, 83, 90
2, 203218, Note_on_c, 0, 59, 64
2, 203251, Note_on_c, 0, 88, 0
2, 203261, Note_on_c, 0, 88, 85
2, 203323, Note_on_c, 0, 82, 94
2, 203381, Note_on_c, 0, 87, 0
2, 203392, Note_on_c, 0, 87, 80
2, 203435, Note_on_c, 0, 40, 0
2, 203445, Note_on_c, 0, 40, 74
2, 203446, Note_on_c, 0, 78, 94
2, 203447, Control_c, 0, 64, 0
2, 203481, Control_c, 0, 64, 127
2, 203489, Note_on_c, 0, 85, 0
2, 203494, Note_on_c, 0, 85, 83
2, 203543, Note_on_c, 0, 47, 0
2, 203543, Note_on_c, 0, 78, 0
2, 203548, Note_on_c, 0, 47, 74
2, 203551, Note_on_c, 0, 78, 74
2, 203552, Note_on_c, 0, 81, 71
2, 203596, Note_on_c, 0, 83, 0
2, 203605, Note_on_c, 0, 83, 90
2, 203663, Note_on_c, 0, 76, 89
2, 203665, Note_on_c, 0, 52, 0
2, 203670, Note_on_c, 0, 52, 77
2, 203727, Note_on_c, 0, 82, 0
2, 203731, Note_on_c, 0, 82, 90
2, 203781, Note_on_c, 0, 54, 0
2, 203791, Note_on_c, 0, 54, 75
2, 203792, Note_on_c, 0, 75, 90
2, 203849, Note_on_c, 0, 80, 75
2, 203895, Note_on_c, 0, 73, 92
2, 203934, Note_on_c, 0, 54, 0
2, 203934, Note_on_c, 0, 78, 0
2, 203939, Note_on_c, 0, 78, 91
2, 203939, Note_on_c, 0, 54, 55
2, 203950, Note_on_c, 0, 52, 0
2, 203960, Note_on_c, 0, 52, 44
2, 204010, Note_on_c, 0, 71, 87
2, 204019, Note_on_c, 0, 59, 0
2, 204028, Note_on_c, 0, 59, 65
2, 204049, Note_on_c, 0, 76, 0
2, 204060, Note_on_c, 0, 76, 97
2, 204149, Note_on_c, 0, 75, 0
2, 204158, Note_on_c, 0, 75, 99
2, 204160, Control_c, 0, 64, 0
2, 204175, Note_on_c, 0, 42, 82
2, 204176, Note_on_c, 0, 87, 0
2, 204176, Note_on_c, 0, 90, 0
2, 204176, Note_on_c, 0, 95, 0
2, 204176, Note_on_c, 0, 40, 0
2, 204176, Note_on_c, 0, 56, 0
2, 204177, Note_on_c, 0, 85, 0
2, 204177, Note_on_c, 0, 52, 0
2, 204177, Note_on_c, 0, 73, 0
2, 204177, Note_on_c, 0, 83, 0
2, 204177, Note_on_c, 0, 88, 0
2, 204177, Note_on_c, 0, 82, 0
2, 204177, Note_on_c, 0, 59, 0
2, 204177, Note_on_c, 0, 78, 0
2, 204179, Note_on_c, 0, 71, 0
2, 204180, Note_on_c, 0, 92, 0
2, 204180, Note_on_c, 0, 81, 0
2, 204180, Note_on_c, 0, 80, 0
2, 204188, Note_on_c, 0, 76, 0
2, 204195, Note_on_c, 0, 47, 0
2, 204195, Note_on_c, 0, 54, 0
2, 204241, Control_c, 0, 64, 127
2, 204242, Note_on_c, 0, 73, 89
2, 204302, Note_on_c, 0, 49, 68
2, 204338, Note_on_c, 0, 71, 75
2, 204398, Note_on_c, 0, 70, 75
2, 204412, Note_on_c, 0, 52, 63
2, 204451, Note_on_c, 0, 68, 79
2, 204485, Note_on_c, 0, 66, 75
2, 204529, Note_on_c, 0, 54, 70
2, 204552, Note_on_c, 0, 64, 79
2, 204595, Note_on_c, 0, 66, 0
2, 204599, Note_on_c, 0, 66, 82
2, 204641, Note_on_c, 0, 68, 0
2, 204651, Note_on_c, 0, 68, 82
2, 204674, Note_on_c, 0, 59, 67
2, 204687, Note_on_c, 0, 70, 0
2, 204691, Note_on_c, 0, 70, 67
2, 204733, Note_on_c, 0, 71, 0
2, 204741, Note_on_c, 0, 75, 0
2, 204744, Note_on_c, 0, 71, 85
2, 204759, Note_on_c, 0, 61, 69
2, 204802, Note_on_c, 0, 73, 0
2, 204806, Note_on_c, 0, 73, 86
2, 204860, Note_on_c, 0, 75, 80
2, 204897, Control_c, 0, 64, 0
2, 204898, Note_on_c, 0, 66, 0
2, 204898, Note_on_c, 0, 70, 0
2, 204898, Note_on_c, 0, 49, 0
2, 204899, Note_on_c, 0, 54, 0
2, 204899, Note_on_c, 0, 73, 0
2, 204899, Note_on_c, 0, 64, 0
2, 204900, Note_on_c, 0, 75, 0
2, 204900, Note_on_c, 0, 52, 0
2, 204902, Note_on_c, 0, 42, 0
2, 204905, Note_on_c, 0, 76, 95
2, 204909, Note_on_c, 0, 42, 78
2, 204910, Note_on_c, 0, 68, 0
2, 204917, Note_on_c, 0, 59, 0
2, 204925, Note_on_c, 0, 71, 0
2, 204933, Note_on_c, 0, 61, 0
2, 204981, Note_on_c, 0, 75, 84
2, 204986, Control_c, 0, 64, 127
2, 205029, Note_on_c, 0, 73, 80
2, 205036, Note_on_c, 0, 49, 63
2, 205085, Note_on_c, 0, 71, 74
2, 205139, Note_on_c, 0, 70, 79
2, 205147, Note_on_c, 0, 52, 72
2, 205200, Note_on_c, 0, 68, 76
2, 205240, Note_on_c, 0, 66, 87
2, 205242, Note_on_c, 0, 54, 81
2, 205286, Note_on_c, 0, 68, 0
2, 205295, Note_on_c, 0, 68, 87
2, 205309, Note_on_c, 0, 70, 0
2, 205318, Note_on_c, 0, 70, 73
2, 205375, Note_on_c, 0, 59, 73
2, 205378, Note_on_c, 0, 71, 0
2, 205388, Note_on_c, 0, 71, 84
2, 205440, Note_on_c, 0, 73, 0
2, 205446, Note_on_c, 0, 73, 91
2, 205473, Note_on_c, 0, 61, 81
2, 205486, Note_on_c, 0, 75, 0
2, 205493, Note_on_c, 0, 75, 89
2, 205524, Note_on_c, 0, 76, 0
2, 205534, Note_on_c, 0, 76, 95
2, 205592, Note_on_c, 0, 78, 97
2, 205608, Note_on_c, 0, 66, 0
2, 205608, Note_on_c, 0, 42, 0
2, 205609, Note_on_c, 0, 70, 0
2, 205609, Note_on_c, 0, 54, 0
2, 205609, Note_on_c, 0, 59, 0
2, 205609, Note_on_c, 0, 71, 0
2, 205609, Note_on_c, 0, 73, 0
2, 205609, Note_on_c, 0, 61, 0
2, 205610, Note_on_c, 0, 49, 0
2, 205611, Note_on_c, 0, 75, 0
2, 205611, Note_on_c, 0, 30, 77
2, 205611, Note_on_c, 0, 52, 0
2, 205612, Control_c, 0, 64, 0
2, 205616, Note_on_c, 0, 30, 0
2, 205616, Note_on_c, 0, 42, 79
2, 205624, Note_on_c, 0, 68, 0
2, 205624, Note_on_c, 0, 76, 0
2, 205628, Note_on_c, 0, 76, 75
2, 205678, Control_c, 0, 64, 127
2, 205685, Note_on_c, 0, 42, 0
2, 205691, Note_on_c, 0, 75, 84
2, 205694, Note_on_c, 0, 42, 70
2, 205711, Note_on_c, 0, 49, 69
2, 205743, Note_on_c, 0, 73, 90
2, 205793, Note_on_c, 0, 75, 0
2, 205797, Note_on_c, 0, 75, 70
2, 205847, Note_on_c, 0, 76, 0
2, 205852, Note_on_c, 0, 76, 90
2, 205864, Note_on_c, 0, 58, 84
2, 205900, Note_on_c, 0, 78, 0
2, 205905, Note_on_c, 0, 78, 85
2, 205928, Control_c, 0, 64, 0
2, 205931, Note_on_c, 0, 75, 0
2, 205934, Note_on_c, 0, 49, 0
2, 205937, Note_on_c, 0, 73, 0
2, 205942, Note_on_c, 0, 58, 0
2, 205947, Note_on_c, 0, 76, 0
2, 205957, Note_on_c, 0, 80, 93
2, 205962, Note_on_c, 0, 42, 0
2, 205966, Note_on_c, 0, 42, 86
2, 206008, Control_c, 0, 64, 127
2, 206049, Note_on_c, 0, 49, 72
2, 206070, Note_on_c, 0, 76, 85
2, 206131, Note_on_c, 0, 75, 91
2, 206133, Note_on_c, 0, 54, 71
2, 206200, Note_on_c, 0, 76, 0
2, 206204, Note_on_c, 0, 76, 79
2, 206204, Note_on_c, 0, 58, 88
2, 206246, Note_on_c, 0, 78, 0
2, 206253, Note_on_c, 0, 78, 90
2, 206277, Note_on_c, 0, 80, 0
2, 206280, Note_on_c, 0, 75, 0
2, 206280, Note_on_c, 0, 49, 0
2, 206280, Note_on_c, 0, 76, 0
2, 206281, Note_on_c, 0, 78, 0
2, 206281, Note_on_c, 0, 58, 0
2, 206281, Control_c, 0, 64, 0
2, 206282, Note_on_c, 0, 54, 0
2, 206284, Note_on_c, 0, 80, 67
2, 206300, Note_on_c, 0, 42, 0
2, 206311, Note_on_c, 0, 42, 89
2, 206312, Note_on_c, 0, 82, 101
2, 206346, Control_c, 0, 64, 127
2, 206369, Note_on_c, 0, 80, 0
2, 206377, Note_on_c, 0, 80, 83
2, 206396, Note_on_c, 0, 49, 79
2, 206401, Note_on_c, 0, 78, 80
2, 206455, Note_on_c, 0, 76, 90
2, 206489, Note_on_c, 0, 54, 66
2, 206499, Note_on_c, 0, 78, 0
2, 206509, Note_on_c, 0, 78, 86
2, 206553, Note_on_c, 0, 80, 0
2, 206555, Note_on_c, 0, 58, 95
2, 206558, Note_on_c, 0, 80, 83
2, 206584, Note_on_c, 0, 82, 0
2, 206593, Note_on_c, 0, 82, 88
2, 206653, Note_on_c, 0, 42, 0
2, 206653, Note_on_c, 0, 54, 0
2, 206658, Note_on_c, 0, 83, 102
2, 206662, Note_on_c, 0, 54, 81
2, 206663, Note_on_c, 0, 42, 100
2, 206731, Note_on_c, 0, 85, 102
2, 206788, Note_on_c, 0, 87, 93
2, 206848, Note_on_c, 0, 86, 70
2, 206873, Note_on_c, 0, 88, 65
2, 206936, Note_on_c, 0, 90, 95
2, 206941, Note_on_c, 0, 102, 93
2, 206945, Note_on_c, 0, 102, 0
2, 207009, Note_on_c, 0, 92, 83
2, 207042, Note_on_c, 0, 94, 95
2, 207109, Note_on_c, 0, 88, 0
2, 207109, Note_on_c, 0, 87, 0
2, 207109, Note_on_c, 0, 76, 0
2, 207109, Note_on_c, 0, 78, 0
2, 207109, Note_on_c, 0, 80, 0
2, 207110, Note_on_c, 0, 49, 0
2, 207110, Note_on_c, 0, 90, 0
2, 207110, Note_on_c, 0, 42, 0
2, 207110, Note_on_c, 0, 94, 0
2, 207110, Note_on_c, 0, 58, 0
2, 207110, Note_on_c, 0, 82, 0
2, 207110, Note_on_c, 0, 85, 0
2, 207118, Control_c, 0, 64, 0
2, 207121, Note_on_c, 0, 86, 0
2, 207129, Note_on_c, 0, 54, 0
2, 207144, Note_on_c, 0, 83, 0
2, 207148, Note_on_c, 0, 95, 108
2, 207148, Note_on_c, 0, 44, 103
2, 207148, Note_on_c, 0, 32, 98
2, 207150, Note_on_c, 0, 83, 105
2, 207164, Note_on_c, 0, 84, 71
2, 207191, Control_c, 0, 64, 127
2, 207353, Note_on_c, 0, 51, 62
2, 207459, Note_on_c, 0, 61, 83
2, 207462, Note_on_c, 0, 49, 89
2, 207571, Note_on_c, 0, 59, 90
2, 207571, Note_on_c, 0, 66, 101
2, 207572, Note_on_c, 0, 47, 96
2, 207573, Note_on_c, 0, 78, 100
2, 207575, Note_on_c, 0, 32, 0
2, 207576, Note_on_c, 0, 75, 96
2, 207576, Note_on_c, 0, 71, 88
2, 207590, Note_on_c, 0, 92, 0
2, 207674, Note_on_c, 0, 47, 0
2, 207674, Note_on_c, 0, 59, 0
2, 207680, Note_on_c, 0, 59, 86
2, 207680, Note_on_c, 0, 47, 88
2, 207809, Note_on_c, 0, 58, 89
2, 207811, Note_on_c, 0, 46, 89
2, 207928, Note_on_c, 0, 46, 0
2, 207928, Note_on_c, 0, 75, 0
2, 207928, Note_on_c, 0, 78, 0
2, 207932, Note_on_c, 0, 75, 101
2, 207932, Note_on_c, 0, 87, 90
2, 207932, Note_on_c, 0, 82, 102
2, 207937, Note_on_c, 0, 78, 92
2, 207938, Note_on_c, 0, 46, 92
2, 207938, Note_on_c, 0, 70, 99
2, 207942, Note_on_c, 0, 34, 79
2, 207951, Note_on_c, 0, 34, 0
2, 207974, Note_on_c, 0, 95, 0
2, 208039, Note_on_c, 0, 42, 90
2, 208039, Note_on_c, 0, 66, 0
2, 208040, Note_on_c, 0, 54, 92
2, 208153, Note_on_c, 0, 40, 90
2, 208154, Note_on_c, 0, 52, 81
2, 208155, Note_on_c, 0, 29, 86
2, 208156, Note_on_c, 0, 41, 80
2, 208157, Note_on_c, 0, 53, 75
2, 208166, Note_on_c, 0, 29, 0
2, 208273, Note_on_c, 0, 71, 0
2, 208273, Note_on_c, 0, 75, 0
2, 208273, Note_on_c, 0, 83, 0
2, 208278, Note_on_c, 0, 39, 91
2, 208279, Note_on_c, 0, 27, 80
2, 208280, Note_on_c, 0, 83, 103
2, 208284, Note_on_c, 0, 75, 103
2, 208284, Note_on_c, 0, 71, 101
2, 208289, Note_on_c, 0, 41, 0
2, 208289, Note_on_c, 0, 42, 0
2, 208290, Note_on_c, 0, 47, 0
2, 208290, Note_on_c, 0, 87, 0
2, 208291, Note_on_c, 0, 49, 0
2, 208291, Note_on_c, 0, 59, 0
2, 208291, Note_on_c, 0, 46, 0
2, 208292, Note_on_c, 0, 61, 0
2, 208293, Note_on_c, 0, 82, 0
2, 208293, Note_on_c, 0, 70, 0
2, 208293, Note_on_c, 0, 51, 0
2, 208293, Note_on_c, 0, 40, 0
2, 208294, Control_c, 0, 64, 0
2, 208296, Note_on_c, 0, 44, 0
2, 208304, Note_on_c, 0, 53, 0
2, 208304, Note_on_c, 0, 58, 0
2, 208304, Note_on_c, 0, 84, 0
2, 208312, Note_on_c, 0, 52, 0
2, 208312, Note_on_c, 0, 54, 0
2, 208335, Control_c, 0, 64, 127
2, 208389, Note_on_c, 0, 49, 87
2, 208391, Note_on_c, 0, 37, 81
2, 208401, Control_c, 0, 64, 0
2, 208435, Note_on_c, 0, 27, 0
2, 208481, Control_c, 0, 64, 127
2, 208490, Note_on_c, 0, 47, 98
2, 208496, Note_on_c, 0, 35, 86
2, 208527, Note_on_c, 0, 39, 0
2, 208535, Note_on_c, 0, 49, 0
2, 208540, Control_c, 0, 64, 0
2, 208546, Note_on_c, 0, 47, 0
2, 208550, Note_on_c, 0, 35, 0
2, 208558, Note_on_c, 0, 37, 0
2, 208629, Note_on_c, 0, 40, 97
2, 208630, Note_on_c, 0, 52, 92
2, 208630, Note_on_c, 0, 28, 92
2, 208642, Control_c, 0, 64, 127
2, 208788, Note_on_c, 0, 52, 0
2, 208796, Note_on_c, 0, 40, 0
2, 208798, Note_on_c, 0, 52, 77
2, 208799, Note_on_c, 0, 53, 62
2, 208802, Note_on_c, 0, 40, 60
2, 208803, Note_on_c, 0, 53, 0
2, 208806, Note_on_c, 0, 41, 43
2, 208811, Note_on_c, 0, 41, 0
2, 208886, Note_on_c, 0, 63, 76
2, 208889, Note_on_c, 0, 51, 85
2, 208890, Note_on_c, 0, 39, 75
2, 208896, Note_on_c, 0, 63, 0
2, 208988, Note_on_c, 0, 78, 0
2, 208992, Note_on_c, 0, 82, 101
2, 208993, Note_on_c, 0, 61, 95
2, 208994, Note_on_c, 0, 70, 95
2, 208994, Note_on_c, 0, 49, 90
2, 208995, Note_on_c, 0, 37, 84
2, 208996, Note_on_c, 0, 76, 87
2, 208997, Note_on_c, 0, 78, 89
2, 208998, Note_on_c, 0, 73, 87
2, 209095, Note_on_c, 0, 37, 0
2, 209095, Note_on_c, 0, 49, 0
2, 209099, Note_on_c, 0, 49, 89
2, 209106, Note_on_c, 0, 37, 76
2, 209207, Note_on_c, 0, 47, 96
2, 209208, Note_on_c, 0, 59, 85
2, 209326, Note_on_c, 0, 76, 0
2, 209326, Note_on_c, 0, 83, 0
2, 209333, Note_on_c, 0, 71, 0
2, 209333, Note_on_c, 0, 78, 0
2, 209333, Note_on_c, 0, 83, 106
2, 209337, Note_on_c, 0, 76, 96
2, 209338, Note_on_c, 0, 71, 95
2, 209340, Note_on_c, 0, 46, 97
2, 209344, Note_on_c, 0, 34, 87
2, 209345, Note_on_c, 0, 78, 92
2, 209449, Note_on_c, 0, 56, 85
2, 209452, Note_on_c, 0, 44, 88
2, 209454, Note_on_c, 0, 32, 83
2, 209544, Note_on_c, 0, 78, 0
2, 209552, Note_on_c, 0, 42, 94
2, 209552, Note_on_c, 0, 54, 99
2, 209656, Note_on_c, 0, 73, 0
2, 209656, Note_on_c, 0, 76, 0
2, 209662, Note_on_c, 0, 85, 105
2, 209664, Note_on_c, 0, 40, 0
2, 209664, Note_on_c, 0, 52, 0
2, 209665, Note_on_c, 0, 73, 103
2, 209666, Note_on_c, 0, 76, 99
2, 209667, Note_on_c, 0, 80, 90
2, 209671, Note_on_c, 0, 40, 100
2, 209671, Note_on_c, 0, 39, 0
2, 209674, Note_on_c, 0, 52, 97
2, 209675, Control_c, 0, 64, 0
2, 209678, Note_on_c, 0, 54, 0
2, 209681, Note_on_c, 0, 83, 0
2, 209682, Note_on_c, 0, 49, 0
2, 209682, Note_on_c, 0, 71, 0
2, 209683, Note_on_c, 0, 42, 0
2, 209687, Note_on_c, 0, 32, 0
2, 209687, Note_on_c, 0, 44, 0
2, 209687, Note_on_c, 0, 56, 0
2, 209694, Note_on_c, 0, 34, 0
2, 209694, Note_on_c, 0, 37, 0
2, 209702, Note_on_c, 0, 47, 0
2, 209702, Note_on_c, 0, 51, 0
2, 209702, Note_on_c, 0, 59, 0
2, 209702, Note_on_c, 0, 75, 0
2, 209710, Note_on_c, 0, 46, 0
2, 209717, Note_on_c, 0, 52, 0
2, 209717, Note_on_c, 0, 61, 0
2, 209733, Note_on_c, 0, 28, 0
2, 209748, Note_on_c, 0, 82, 0
2, 209763, Note_on_c, 0, 40, 0
2, 209782, Note_on_c, 0, 51, 90
2, 209782, Note_on_c, 0, 39, 94
2, 209892, Note_on_c, 0, 49, 94
2, 209894, Note_on_c, 0, 70, 0
2, 209896, Note_on_c, 0, 37, 90
2, 209909, Note_on_c, 0, 51, 0
2, 209923, Note_on_c, 0, 49, 0
2, 209940, Control_c, 0, 64, 127
2, 209963, Note_on_c, 0, 37, 0
2, 210013, Note_on_c, 0, 47, 101
2, 210017, Note_on_c, 0, 35, 91
2, 210155, Note_on_c, 0, 39, 0
2, 210161, Note_on_c, 0, 51, 90
2, 210161, Note_on_c, 0, 63, 85
2, 210166, Note_on_c, 0, 39, 79
2, 210261, Note_on_c, 0, 61, 91
2, 210264, Note_on_c, 0, 37, 78
2, 210264, Note_on_c, 0, 49, 79
2, 210369, Note_on_c, 0, 83, 105
2, 210370, Note_on_c, 0, 47, 0
2, 210372, Note_on_c, 0, 75, 106
2, 210373, Note_on_c, 0, 71, 105
2, 210374, Note_on_c, 0, 47, 102
2, 210377, Note_on_c, 0, 78, 95
2, 210380, Note_on_c, 0, 59, 96
2, 210385, Note_on_c, 0, 59, 0
2, 210478, Note_on_c, 0, 47, 0
2, 210482, Note_on_c, 0, 59, 84
2, 210483, Note_on_c, 0, 47, 95
2, 210591, Note_on_c, 0, 58, 91
2, 210596, Note_on_c, 0, 46, 89
2, 210685, Note_on_c, 0, 73, 0
2, 210685, Note_on_c, 0, 78, 0
2, 210685, Note_on_c, 0, 85, 0
2, 210690, Note_on_c, 0, 85, 107
2, 210693, Note_on_c, 0, 73, 106
2, 210693, Note_on_c, 0, 78, 101
2, 210714, Note_on_c, 0, 44, 73
2, 210721, Note_on_c, 0, 56, 74
2, 210813, Note_on_c, 0, 42, 91
2, 210814, Note_on_c, 0, 54, 90
2, 210814, Note_on_c, 0, 30, 77
2, 210927, Note_on_c, 0, 40, 95
2, 210927, Note_on_c, 0, 52, 88
2, 211031, Note_on_c, 0, 75, 0
2, 211031, Note_on_c, 0, 78, 0
2, 211037, Note_on_c, 0, 75, 109
2, 211038, Note_on_c, 0, 39, 0
2, 211038, Note_on_c, 0, 51, 0
2, 211038, Note_on_c, 0, 87, 110
2, 211041, Note_on_c, 0, 78, 103
2, 211044, Note_on_c, 0, 39, 100
2, 211045, Note_on_c, 0, 51, 97
2, 211084, Note_on_c, 0, 30, 0
2, 211096, Note_on_c, 0, 35, 0
2, 211096, Control_c, 0, 64, 0
2, 211097, Note_on_c, 0, 47, 0
2, 211098, Note_on_c, 0, 49, 0
2, 211098, Note_on_c, 0, 61, 0
2, 211098, Note_on_c, 0, 37, 0
2, 211098, Note_on_c, 0, 40, 0
2, 211098, Note_on_c, 0, 42, 0
2, 211100, Note_on_c, 0, 46, 0
2, 211101, Note_on_c, 0, 71, 0
2, 211101, Note_on_c, 0, 51, 0
2, 211101, Note_on_c, 0, 52, 0
2, 211102, Note_on_c, 0, 73, 0
2, 211102, Note_on_c, 0, 58, 0
2, 211104, Note_on_c, 0, 85, 0
2, 211107, Note_on_c, 0, 44, 0
2, 211107, Note_on_c, 0, 59, 0
2, 211107, Note_on_c, 0, 63, 0
2, 211107, Note_on_c, 0, 76, 0
2, 211115, Note_on_c, 0, 54, 0
2, 211146, Note_on_c, 0, 56, 0
2, 211156, Note_on_c, 0, 49, 96
2, 211157, Note_on_c, 0, 37, 92
2, 211169, Note_on_c, 0, 39, 0
2, 211173, Note_on_c, 0, 39, 59
2, 211223, Note_on_c, 0, 37, 0
2, 211230, Note_on_c, 0, 49, 0
2, 211265, Note_on_c, 0, 47, 92
2, 211271, Note_on_c, 0, 35, 87
2, 211299, Note_on_c, 0, 39, 0
2, 211302, Note_on_c, 0, 35, 0
2, 211315, Note_on_c, 0, 47, 0
2, 211315, Note_on_c, 0, 80, 0
2, 211395, Note_on_c, 0, 30, 101
2, 211395, Note_on_c, 0, 42, 97
2, 211430, Control_c, 0, 64, 127
2, 211548, Note_on_c, 0, 61, 86
2, 211548, Note_on_c, 0, 49, 88
2, 211558, Note_on_c, 0, 37, 80
2, 211647, Note_on_c, 0, 47, 93
2, 211652, Note_on_c, 0, 35, 74
2, 211745, Note_on_c, 0, 78, 0
2, 211746, Note_on_c, 0, 76, 107
2, 211746, Note_on_c, 0, 88, 108
2, 211749, Note_on_c, 0, 82, 99
2, 211752, Note_on_c, 0, 78, 103
2, 211753, Note_on_c, 0, 34, 81
2, 211756, Note_on_c, 0, 46, 97
2, 211829, Note_on_c, 0, 75, 0
2, 211873, Note_on_c, 0, 56, 84
2, 211886, Note_on_c, 0, 44, 80
2, 211887, Note_on_c, 0, 32, 62
2, 211960, Note_on_c, 0, 32, 0
2, 211960, Note_on_c, 0, 44, 0
2, 211966, Note_on_c, 0, 44, 93
2, 211970, Note_on_c, 0, 32, 78
2, 212053, Control_c, 0, 64, 0
2, 212062, Note_on_c, 0, 44, 0
2, 212062, Note_on_c, 0, 46, 0
2, 212062, Note_on_c, 0, 47, 0
2, 212063, Note_on_c, 0, 49, 0
2, 212063, Note_on_c, 0, 88, 0
2, 212065, Note_on_c, 0, 37, 0
2, 212065, Note_on_c, 0, 76, 0
2, 212066, Note_on_c, 0, 78, 0
2, 212067, Note_on_c, 0, 42, 0
2, 212075, Note_on_c, 0, 30, 0
2, 212075, Note_on_c, 0, 35, 0
2, 212075, Note_on_c, 0, 56, 0
2, 212075, Note_on_c, 0, 82, 0
2, 212075, Note_on_c, 0, 83, 0
2, 212075, Note_on_c, 0, 87, 0
2, 212082, Note_on_c, 0, 87, 109
2, 212083, Note_on_c, 0, 61, 0
2, 212084, Note_on_c, 0, 75, 114
2, 212085, Note_on_c, 0, 82, 104
2, 212086, Note_on_c, 0, 79, 100
2, 212089, Note_on_c, 0, 43, 97
2, 212094, Note_on_c, 0, 31, 81
2, 212098, Note_on_c, 0, 32, 0
2, 212106, Control_c, 0, 64, 127
2, 212107, Note_on_c, 0, 32, 74
2, 212190, Note_on_c, 0, 32, 0
2, 212227, Note_on_c, 0, 58, 87
2, 212231, Note_on_c, 0, 55, 59
2, 212313, Note_on_c, 0, 43, 0
2, 212319, Note_on_c, 0, 43, 87
2, 212321, Note_on_c, 0, 55, 0
2, 212326, Note_on_c, 0, 55, 76
2, 212328, Note_on_c, 0, 44, 92
2, 212329, Note_on_c, 0, 56, 87
2, 212428, Note_on_c, 0, 79, 0
2, 212428, Note_on_c, 0, 82, 0
2, 212433, Note_on_c, 0, 85, 110
2, 212434, Note_on_c, 0, 73, 110
2, 212436, Note_on_c, 0, 55, 0
2, 212438, Note_on_c, 0, 82, 96
2, 212439, Note_on_c, 0, 79, 93
2, 212444, Note_on_c, 0, 43, 0
2, 212446, Note_on_c, 0, 55, 101
2, 212448, Note_on_c, 0, 43, 100
2, 212559, Note_on_c, 0, 43, 0
2, 212559, Note_on_c, 0, 55, 0
2, 212563, Note_on_c, 0, 55, 98
2, 212563, Note_on_c, 0, 43, 88
2, 212567, Note_on_c, 0, 44, 0
2, 212576, Note_on_c, 0, 44, 74
2, 212684, Note_on_c, 0, 51, 97
2, 212685, Note_on_c, 0, 39, 97
2, 212823, Note_on_c, 0, 87, 0
2, 212824, Note_on_c, 0, 75, 0
2, 212824, Note_on_c, 0, 55, 0
2, 212824, Note_on_c, 0, 79, 0
2, 212824, Note_on_c, 0, 56, 0
2, 212824, Note_on_c, 0, 73, 0
2, 212824, Note_on_c, 0, 34, 0
2, 212824, Note_on_c, 0, 85, 0
2, 212824, Note_on_c, 0, 58, 0
2, 212824, Note_on_c, 0, 39, 0
2, 212824, Note_on_c, 0, 51, 0
2, 212824, Note_on_c, 0, 82, 0
2, 212824, Note_on_c, 0, 43, 0
2, 212825, Note_on_c, 0, 31, 0
2, 212825, Note_on_c, 0, 44, 0
2, 212825, Control_c, 0, 64, 0
2, 212869, Note_on_c, 0, 83, 112
2, 212871, Note_on_c, 0, 80, 108
2, 212871, Note_on_c, 0, 71, 110
2, 212872, Note_on_c, 0, 44, 98
2, 212873, Note_on_c, 0, 75, 110
2, 212875, Note_on_c, 0, 32, 95
2, 212876, Note_on_c, 0, 87, 107
2, 212904, Control_c, 0, 64, 127
2, 213086, Note_on_c, 0, 54, 71
2, 213086, Note_on_c, 0, 51, 55
2, 213212, Note_on_c, 0, 44, 0
2, 213212, Note_on_c, 0, 51, 0
2, 213212, Note_on_c, 0, 54, 0
2, 213217, Note_on_c, 0, 44, 73
2, 213218, Note_on_c, 0, 51, 58
2, 213222, Note_on_c, 0, 54, 68
2, 213332, Control_c, 0, 64, 0
2, 213342, Note_on_c, 0, 51, 0
2, 213342, Note_on_c, 0, 66, 108
2, 213344, Note_on_c, 0, 63, 103
2, 213344, Note_on_c, 0, 59, 99
2, 213345, Note_on_c, 0, 47, 78
2, 213347, Note_on_c, 0, 51, 75
2, 213350, Note_on_c, 0, 47, 0
2, 213373, Control_c, 0, 64, 127
2, 213465, Note_on_c, 0, 59, 0
2, 213465, Note_on_c, 0, 66, 0
2, 213469, Note_on_c, 0, 59, 87
2, 213473, Note_on_c, 0, 66, 77
2, 213473, Note_on_c, 0, 51, 0
2, 213473, Note_on_c, 0, 54, 0
2, 213478, Note_on_c, 0, 51, 72
2, 213479, Note_on_c, 0, 54, 59
2, 213573, Note_on_c, 0, 63, 0
2, 213580, Note_on_c, 0, 51, 0
2, 213580, Note_on_c, 0, 59, 0
2, 213580, Note_on_c, 0, 66, 0
2, 213584, Note_on_c, 0, 63, 61
2, 213585, Note_on_c, 0, 59, 85
2, 213586, Note_on_c, 0, 51, 59
2, 213586, Note_on_c, 0, 66, 68
2, 213701, Note_on_c, 0, 82, 108
2, 213701, Note_on_c, 0, 78, 105
2, 213703, Note_on_c, 0, 59, 0
2, 213703, Note_on_c, 0, 70, 105
2, 213715, Note_on_c, 0, 59, 84
2, 213818, Note_on_c, 0, 63, 0
2, 213818, Note_on_c, 0, 66, 0
2, 213823, Note_on_c, 0, 63, 81
2, 213824, Note_on_c, 0, 56, 71
2, 213824, Note_on_c, 0, 66, 99
2, 213918, Note_on_c, 0, 56, 0
2, 213918, Note_on_c, 0, 59, 0
2, 213918, Note_on_c, 0, 63, 0
2, 213918, Note_on_c, 0, 66, 0
2, 213924, Note_on_c, 0, 56, 88
2, 213925, Note_on_c, 0, 66, 97
2, 213927, Note_on_c, 0, 59, 72
2, 213928, Note_on_c, 0, 63, 68
2, 214018, Note_on_c, 0, 71, 0
2, 214018, Note_on_c, 0, 78, 0
2, 214018, Note_on_c, 0, 83, 0
2, 214025, Note_on_c, 0, 83, 106
2, 214027, Note_on_c, 0, 78, 109
2, 214028, Note_on_c, 0, 71, 103
2, 214141, Note_on_c, 0, 54, 0
2, 214141, Note_on_c, 0, 66, 0
2, 214141, Note_on_c, 0, 71, 0
2, 214145, Note_on_c, 0, 54, 58
2, 214146, Note_on_c, 0, 66, 80
2, 214147, Note_on_c, 0, 71, 65
2, 214149, Note_on_c, 0, 63, 0
2, 214153, Note_on_c, 0, 63, 63
2, 214248, Note_on_c, 0, 63, 0
2, 214248, Note_on_c, 0, 66, 0
2, 214248, Note_on_c, 0, 71, 0
2, 214256, Note_on_c, 0, 71, 78
2, 214258, Note_on_c, 0, 63, 94
2, 214259, Note_on_c, 0, 66, 91
2, 214398, Note_on_c, 0, 51, 0
2, 214398, Note_on_c, 0, 80, 0
2, 214398, Note_on_c, 0, 71, 0
2, 214398, Note_on_c, 0, 63, 0
2, 214398, Note_on_c, 0, 70, 0
2, 214399, Note_on_c, 0, 75, 0
2, 214399, Note_on_c, 0, 66, 0
2, 214399, Note_on_c, 0, 82, 0
2, 214399, Note_on_c, 0, 78, 0
2, 214399, Note_on_c, 0, 54, 0
2, 214399, Control_c, 0, 64, 0
2, 214399, Note_on_c, 0, 87, 0
2, 214399, Note_on_c, 0, 44, 0
2, 214402, Note_on_c, 0, 32, 0
2, 214417, Note_on_c, 0, 56, 0
2, 214417, Note_on_c, 0, 59, 0
2, 214417, Note_on_c, 0, 83, 0
2, 214430, Note_on_c, 0, 83, 104
2, 214430, Note_on_c, 0, 95, 106
2, 214435, Note_on_c, 0, 85, 109
2, 214436, Note_on_c, 0, 89, 97
2, 214441, Note_on_c, 0, 49, 106
2, 214441, Note_on_c, 0, 37, 103
2, 214464, Control_c, 0, 64, 127
2, 214648, Note_on_c, 0, 49, 0
2, 214655, Note_on_c, 0, 49, 70
2, 214661, Note_on_c, 0, 61, 62
2, 214671, Note_on_c, 0, 61, 0
2, 214755, Note_on_c, 0, 49, 0
2, 214763, Note_on_c, 0, 56, 71
2, 214767, Note_on_c, 0, 49, 76
2, 214870, Note_on_c, 0, 68, 106
2, 214870, Note_on_c, 0, 61, 93
2, 214873, Note_on_c, 0, 65, 92
2, 214978, Note_on_c, 0, 56, 0
2, 214981, Note_on_c, 0, 53, 60
2, 214981, Note_on_c, 0, 59, 87
2, 214982, Note_on_c, 0, 56, 83
2, 215093, Note_on_c, 0, 53, 0
2, 215093, Note_on_c, 0, 59, 0
2, 215100, Note_on_c, 0, 53, 80
2, 215101, Note_on_c, 0, 56, 0
2, 215104, Note_on_c, 0, 59, 76
2, 215105, Note_on_c, 0, 56, 70
2, 215214, Note_on_c, 0, 82, 108
2, 215215, Note_on_c, 0, 75, 107
2, 215216, Note_on_c, 0, 61, 0
2, 215216, Note_on_c, 0, 70, 108
2, 215218, Note_on_c, 0, 77, 98
2, 215220, Note_on_c, 0, 78, 89
2, 215221, Note_on_c, 0, 61, 81
2, 215339, Note_on_c, 0, 59, 0
2, 215339, Note_on_c, 0, 61, 0
2, 215339, Note_on_c, 0, 65, 0
2, 215339, Note_on_c, 0, 68, 0
2, 215345, Note_on_c, 0, 68, 88
2, 215348, Note_on_c, 0, 65, 85
2, 215349, Note_on_c, 0, 61, 76
2, 215350, Note_on_c, 0, 59, 75
2, 215439, Note_on_c, 0, 59, 0
2, 215439, Note_on_c, 0, 61, 0
2, 215439, Note_on_c, 0, 65, 0
2, 215439, Note_on_c, 0, 68, 0
2, 215444, Note_on_c, 0, 61, 91
2, 215444, Note_on_c, 0, 49, 0
2, 215448, Note_on_c, 0, 59, 73
2, 215450, Note_on_c, 0, 68, 83
2, 215450, Note_on_c, 0, 65, 77
2, 215569, Note_on_c, 0, 77, 0
2, 215569, Note_on_c, 0, 83, 0
2, 215577, Note_on_c, 0, 65, 0
2, 215577, Note_on_c, 0, 75, 0
2, 215579, Note_on_c, 0, 83, 105
2, 215580, Note_on_c, 0, 77, 98
2, 215581, Note_on_c, 0, 71, 105
2, 215581, Note_on_c, 0, 75, 105
2, 215587, Note_on_c, 0, 65, 82
2, 215592, Note_on_c, 0, 61, 0
2, 215604, Note_on_c, 0, 61, 72
2, 215708, Note_on_c, 0, 71, 0
2, 215715, Note_on_c, 0, 65, 0
2, 215715, Note_on_c, 0, 68, 0
2, 215719, Note_on_c, 0, 71, 90
2, 215719, Note_on_c, 0, 68, 90
2, 215723, Note_on_c, 0, 65, 83
2, 215723, Note_on_c, 0, 75, 0
2, 215728, Note_on_c, 0, 75, 65
2, 215738, Note_on_c, 0, 59, 0
2, 215745, Note_on_c, 0, 59, 63
2, 215846, Note_on_c, 0, 65, 0
2, 215846, Note_on_c, 0, 68, 0
2, 215846, Note_on_c, 0, 71, 0
2, 215846, Note_on_c, 0, 77, 0
2, 215856, Note_on_c, 0, 71, 88
2, 215856, Note_on_c, 0, 77, 83
2, 215857, Note_on_c, 0, 65, 87
2, 215857, Note_on_c, 0, 68, 87
2, 216064, Note_on_c, 0, 95, 0
2, 216064, Control_c, 0, 64, 0
2, 216065, Note_on_c, 0, 61, 0
2, 216065, Note_on_c, 0, 65, 0
2, 216065, Note_on_c, 0, 56, 0
2, 216065, Note_on_c, 0, 68, 0
2, 216065, Note_on_c, 0, 70, 0
2, 216065, Note_on_c, 0, 89, 0
2, 216065, Note_on_c, 0, 71, 0
2, 216065, Note_on_c, 0, 75, 0
2, 216066, Note_on_c, 0, 83, 0
2, 216066, Note_on_c, 0, 77, 0
2, 216066, Note_on_c, 0, 82, 0
2, 216069, Note_on_c, 0, 78, 0
2, 216076, Note_on_c, 0, 37, 0
2, 216084, Note_on_c, 0, 53, 0
2, 216084, Note_on_c, 0, 59, 0
2, 216092, Note_on_c, 0, 85, 0
2, 216100, Note_on_c, 0, 85, 107
2, 216101, Note_on_c, 0, 97, 108
2, 216102, Note_on_c, 0, 90, 107
2, 216103, Note_on_c, 0, 42, 101
2, 216103, Note_on_c, 0, 30, 101
2, 216110, Note_on_c, 0, 94, 87
2, 216138, Control_c, 0, 64, 127
2, 216348, Note_on_c, 0, 61, 74
2, 216349, Note_on_c, 0, 73, 75
2, 216357, Note_on_c, 0, 64, 67
2, 216357, Note_on_c, 0, 58, 63
2, 216357, Note_on_c, 0, 70, 60
2, 216357, Note_on_c, 0, 54, 70
2, 216358, Note_on_c, 0, 66, 69
2, 216499, Note_on_c, 0, 54, 0
2, 216499, Note_on_c, 0, 58, 0
2, 216499, Note_on_c, 0, 61, 0
2, 216499, Note_on_c, 0, 64, 0
2, 216499, Note_on_c, 0, 66, 0
2, 216499, Note_on_c, 0, 70, 0
2, 216499, Note_on_c, 0, 73, 0
2, 216503, Note_on_c, 0, 66, 71
2, 216504, Note_on_c, 0, 64, 67
2, 216505, Note_on_c, 0, 58, 74
2, 216505, Note_on_c, 0, 73, 69
2, 216505, Note_on_c, 0, 70, 67
2, 216508, Note_on_c, 0, 61, 66
2, 216509, Note_on_c, 0, 54, 67
2, 216599, Note_on_c, 0, 54, 0
2, 216599, Note_on_c, 0, 58, 0
2, 216599, Note_on_c, 0, 61, 0
2, 216599, Note_on_c, 0, 70, 0
2, 216599, Note_on_c, 0, 73, 0
2, 216606, Note_on_c, 0, 64, 0
2, 216606, Note_on_c, 0, 66, 0
2, 216607, Note_on_c, 0, 73, 81
2, 216607, Note_on_c, 0, 61, 78
2, 216609, Note_on_c, 0, 58, 76
2, 216609, Note_on_c, 0, 54, 77
2, 216610, Note_on_c, 0, 70, 76
2, 216610, Note_on_c, 0, 66, 76
2, 216612, Note_on_c, 0, 64, 76
2, 216714, Note_on_c, 0, 58, 0
2, 216714, Note_on_c, 0, 61, 0
2, 216714, Note_on_c, 0, 64, 0
2, 216714, Note_on_c, 0, 66, 0
2, 216714, Note_on_c, 0, 70, 0
2, 216721, Note_on_c, 0, 58, 85
2, 216721, Note_on_c, 0, 54, 0
2, 216724, Note_on_c, 0, 66, 85
2, 216724, Note_on_c, 0, 64, 65
2, 216724, Note_on_c, 0, 70, 78
2, 216725, Note_on_c, 0, 61, 76
2, 216725, Note_on_c, 0, 54, 74
2, 216814, Note_on_c, 0, 54, 0
2, 216814, Note_on_c, 0, 58, 0
2, 216814, Note_on_c, 0, 61, 0
2, 216814, Note_on_c, 0, 64, 0
2, 216814, Note_on_c, 0, 66, 0
2, 216814, Note_on_c, 0, 70, 0
2, 216818, Note_on_c, 0, 54, 80
2, 216818, Note_on_c, 0, 58, 77
2, 216819, Note_on_c, 0, 64, 70
2, 216819, Note_on_c, 0, 61, 63
2, 216821, Note_on_c, 0, 70, 79
2, 216821, Note_on_c, 0, 66, 82
2, 216924, Control_c, 0, 64, 0
2, 216924, Note_on_c, 0, 42, 0
2, 216936, Note_on_c, 0, 85, 0
2, 216944, Note_on_c, 0, 73, 0
2, 216944, Note_on_c, 0, 94, 0
2, 216947, Note_on_c, 0, 85, 108
2, 216949, Note_on_c, 0, 73, 111
2, 216962, Note_on_c, 0, 76, 89
2, 216962, Note_on_c, 0, 79, 84
2, 216963, Note_on_c, 0, 31, 83
2, 216967, Control_c, 0, 64, 127
2, 216968, Note_on_c, 0, 32, 79
2, 217159, Note_on_c, 0, 73, 0
2, 217165, Note_on_c, 0, 73, 92
2, 217167, Note_on_c, 0, 61, 0
2, 217167, Note_on_c, 0, 64, 0
2, 217174, Note_on_c, 0, 64, 74
2, 217175, Note_on_c, 0, 58, 0
2, 217178, Note_on_c, 0, 61, 70
2, 217180, Note_on_c, 0, 67, 64
2, 217183, Note_on_c, 0, 58, 64
2, 217186, Note_on_c, 0, 55, 62
2, 217282, Note_on_c, 0, 55, 0
2, 217282, Note_on_c, 0, 61, 0
2, 217282, Note_on_c, 0, 64, 0
2, 217282, Note_on_c, 0, 67, 0
2, 217282, Note_on_c, 0, 73, 0
2, 217284, Note_on_c, 0, 71, 83
2, 217286, Note_on_c, 0, 61, 87
2, 217288, Note_on_c, 0, 73, 79
2, 217289, Note_on_c, 0, 64, 71
2, 217289, Note_on_c, 0, 67, 67
2, 217291, Note_on_c, 0, 59, 75
2, 217292, Note_on_c, 0, 55, 74
2, 217390, Note_on_c, 0, 55, 0
2, 217390, Note_on_c, 0, 59, 0
2, 217390, Note_on_c, 0, 73, 0
2, 217397, Note_on_c, 0, 61, 0
2, 217397, Note_on_c, 0, 64, 0
2, 217397, Note_on_c, 0, 67, 0
2, 217397, Note_on_c, 0, 71, 0
2, 217400, Note_on_c, 0, 73, 91
2, 217401, Note_on_c, 0, 55, 83
2, 217401, Note_on_c, 0, 59, 82
2, 217401, Note_on_c, 0, 64, 79
2, 217402, Note_on_c, 0, 67, 76
2, 217402, Note_on_c, 0, 71, 79
2, 217403, Note_on_c, 0, 61, 84
2, 217497, Note_on_c, 0, 55, 0
2, 217497, Note_on_c, 0, 61, 0
2, 217497, Note_on_c, 0, 64, 0
2, 217497, Note_on_c, 0, 67, 0
2, 217497, Note_on_c, 0, 71, 0
2, 217497, Note_on_c, 0, 73, 0
2, 217501, Note_on_c, 0, 73, 89
2, 217502, Note_on_c, 0, 61, 91
2, 217503, Note_on_c, 0, 64, 88
2, 217507, Note_on_c, 0, 67, 79
2, 217507, Note_on_c, 0, 71, 82
2, 217507, Note_on_c, 0, 55, 78
2, 217589, Note_on_c, 0, 59, 0
2, 217597, Note_on_c, 0, 55, 0
2, 217597, Note_on_c, 0, 61, 0
2, 217597, Note_on_c, 0, 64, 0
2, 217597, Note_on_c, 0, 67, 0
2, 217597, Note_on_c, 0, 71, 0
2, 217597, Note_on_c, 0, 73, 0
2, 217600, Note_on_c, 0, 59, 82
2, 217602, Note_on_c, 0, 71, 79
2, 217604, Note_on_c, 0, 73, 98
2, 217605, Note_on_c, 0, 58, 0
2, 217605, Note_on_c, 0, 61, 89
2, 217607, Note_on_c, 0, 64, 82
2, 217608, Note_on_c, 0, 55, 80
2, 217608, Note_on_c, 0, 67, 79
2, 217608, Note_on_c, 0, 58, 75
2, 217718, Note_on_c, 0, 71, 0
2, 217722, Note_on_c, 0, 61, 0
2, 217722, Note_on_c, 0, 55, 0
2, 217735, Note_on_c, 0, 97, 0
2, 217738, Control_c, 0, 64, 0
2, 217743, Note_on_c, 0, 30, 0
2, 217743, Note_on_c, 0, 31, 0
2, 217743, Note_on_c, 0, 76, 0
2, 217743, Note_on_c, 0, 90, 0
2, 217747, Note_on_c, 0, 76, 110
2, 217748, Note_on_c, 0, 88, 106
2, 217751, Note_on_c, 0, 32, 0
2, 217751, Note_on_c, 0, 85, 0
2, 217754, Note_on_c, 0, 78, 102
2, 217754, Note_on_c, 0, 30, 88
2, 217754, Note_on_c, 0, 82, 97
2, 217755, Note_on_c, 0, 42, 84
2, 217758, Note_on_c, 0, 59, 0
2, 217758, Note_on_c, 0, 67, 0
2, 217759, Note_on_c, 0, 85, 88
2, 217789, Control_c, 0, 64, 127
2, 217797, Note_on_c, 0, 54, 0
2, 217797, Note_on_c, 0, 66, 0
2, 217804, Note_on_c, 0, 58, 0
2, 217804, Note_on_c, 0, 70, 0
2, 217912, Note_on_c, 0, 61, 91
2, 217914, Note_on_c, 0, 66, 79
2, 217915, Note_on_c, 0, 58, 83
2, 217973, Note_on_c, 0, 79, 0
2, 217989, Note_on_c, 0, 76, 0
2, 217996, Note_on_c, 0, 64, 0
2, 217996, Note_on_c, 0, 66, 0
2, 217998, Note_on_c, 0, 76, 86
2, 217999, Note_on_c, 0, 70, 96
2, 218007, Note_on_c, 0, 66, 87
2, 218008, Note_on_c, 0, 64, 81
2, 218127, Note_on_c, 0, 30, 0
2, 218135, Note_on_c, 0, 42, 0
2, 218135, Note_on_c, 0, 76, 0
2, 218135, Note_on_c, 0, 78, 0
2, 218135, Note_on_c, 0, 82, 0
2, 218135, Note_on_c, 0, 88, 0
2, 218136, Note_on_c, 0, 30, 92
2, 218140, Note_on_c, 0, 88, 105
2, 218140, Note_on_c, 0, 42, 91
2, 218141, Note_on_c, 0, 76, 107
2, 218142, Note_on_c, 0, 78, 105
2, 218142, Note_on_c, 0, 85, 0
2, 218143, Note_on_c, 0, 82, 99
2, 218146, Note_on_c, 0, 85, 86
2, 218265, Note_on_c, 0, 61, 0
2, 218273, Note_on_c, 0, 58, 0
2, 218273, Note_on_c, 0, 64, 0
2, 218276, Note_on_c, 0, 61, 91
2, 218278, Note_on_c, 0, 58, 89
2, 218279, Note_on_c, 0, 64, 75
2, 218396, Note_on_c, 0, 64, 0
2, 218396, Note_on_c, 0, 70, 0
2, 218401, Note_on_c, 0, 70, 87
2, 218403, Note_on_c, 0, 61, 0
2, 218403, Note_on_c, 0, 66, 0
2, 218407, Note_on_c, 0, 64, 83
2, 218408, Note_on_c, 0, 61, 76
2, 218412, Note_on_c, 0, 66, 82
2, 218534, Note_on_c, 0, 78, 0
2, 218534, Note_on_c, 0, 82, 0
2, 218542, Note_on_c, 0, 30, 0
2, 218542, Note_on_c, 0, 42, 0
2, 218543, Note_on_c, 0, 78, 110
2, 218544, Note_on_c, 0, 82, 106
2, 218545, Note_on_c, 0, 90, 112
2, 218546, Note_on_c, 0, 30, 92
2, 218551, Note_on_c, 0, 42, 98
2, 218695, Note_on_c, 0, 58, 0
2, 218695, Note_on_c, 0, 61, 0
2, 218699, Note_on_c, 0, 61, 95
2, 218704, Note_on_c, 0, 58, 90
2, 218856, Note_on_c, 0, 64, 0
2, 218856, Note_on_c, 0, 66, 0
2, 218856, Note_on_c, 0, 70, 0
2, 218864, Note_on_c, 0, 64, 88
2, 218866, Note_on_c, 0, 70, 98
2, 218867, Note_on_c, 0, 66, 92
2, 219018, Note_on_c, 0, 30, 0
2, 219018, Note_on_c, 0, 42, 0
2, 219018, Note_on_c, 0, 82, 0
2, 219018, Note_on_c, 0, 85, 0
2, 219023, Note_on_c, 0, 85, 106
2, 219024, Note_on_c, 0, 42, 102
2, 219024, Note_on_c, 0, 94, 113
2, 219026, Note_on_c, 0, 82, 109
2, 219027, Note_on_c, 0, 30, 103
2, 219233, Note_on_c, 0, 58, 0
2, 219233, Note_on_c, 0, 61, 0
2, 219233, Note_on_c, 0, 64, 0
2, 219237, Note_on_c, 0, 61, 95
2, 219237, Note_on_c, 0, 64, 102
2, 219240, Note_on_c, 0, 58, 83
2, 219448, Note_on_c, 0, 61, 0
2, 219448, Note_on_c, 0, 66, 0
2, 219448, Note_on_c, 0, 70, 0
2, 219448, Note_on_c, 0, 73, 0
2, 219454, Note_on_c, 0, 73, 106
2, 219455, Note_on_c, 0, 54, 80
2, 219456, Note_on_c, 0, 61, 92
2, 219457, Note_on_c, 0, 70, 101
2, 219458, Note_on_c, 0, 66, 94
2, 219887, Control_c, 0, 64, 0
2, 219892, Note_on_c, 0, 30, 0
2, 219893, Note_on_c, 0, 42, 0
2, 219894, Note_on_c, 0, 58, 0
2, 219894, Note_on_c, 0, 95, 105
2, 219895, Note_on_c, 0, 61, 0
2, 219895, Note_on_c, 0, 85, 0
2, 219896, Note_on_c, 0, 73, 0
2, 219896, Note_on_c, 0, 76, 0
2, 219896, Note_on_c, 0, 66, 0
2, 219896, Note_on_c, 0, 82, 0
2, 219896, Note_on_c, 0, 94, 0
2, 219896, Note_on_c, 0, 70, 0
2, 219896, Note_on_c, 0, 88, 0
2, 219896, Note_on_c, 0, 78, 0
2, 219897, Note_on_c, 0, 90, 0
2, 219901, Note_on_c, 0, 54, 0
2, 219901, Note_on_c, 0, 35, 94
2, 219913, Note_on_c, 0, 33, 86
2, 219916, Note_on_c, 0, 64, 0
2, 219985, Control_c, 0, 64, 127
2, 220167, Note_on_c, 0, 100, 83
2, 220248, Note_on_c, 0, 99, 85
2, 220374, Note_on_c, 0, 94, 92
2, 220432, Note_on_c, 0, 97, 69
2, 220464, Note_on_c, 0, 66, 112
2, 220465, Note_on_c, 0, 63, 102
2, 220492, Note_on_c, 0, 95, 0
2, 220497, Note_on_c, 0, 95, 58
2, 220561, Note_on_c, 0, 33, 0
2, 220564, Note_on_c, 0, 92, 81
2, 220625, Note_on_c, 0, 90, 70
2, 220684, Note_on_c, 0, 94, 0
2, 220692, Note_on_c, 0, 90, 0
2, 220693, Note_on_c, 0, 94, 90
2, 220753, Note_on_c, 0, 92, 0
2, 220758, Note_on_c, 0, 92, 81
2, 220823, Note_on_c, 0, 88, 93
2, 220892, Note_on_c, 0, 63, 0
2, 220892, Note_on_c, 0, 66, 0
2, 220898, Note_on_c, 0, 70, 107
2, 220902, Note_on_c, 0, 63, 94
2, 220902, Note_on_c, 0, 66, 105
2, 220902, Note_on_c, 0, 87, 99
2, 220953, Note_on_c, 0, 92, 0
2, 220957, Note_on_c, 0, 92, 78
2, 221007, Note_on_c, 0, 90, 92
2, 221067, Note_on_c, 0, 85, 89
2, 221141, Note_on_c, 0, 83, 87
2, 221168, Note_on_c, 0, 88, 0
2, 221180, Note_on_c, 0, 88, 89
2, 221237, Note_on_c, 0, 87, 0
2, 221242, Note_on_c, 0, 87, 86
2, 221291, Note_on_c, 0, 63, 0
2, 221291, Note_on_c, 0, 66, 0
2, 221296, Note_on_c, 0, 71, 105
2, 221298, Note_on_c, 0, 66, 108
2, 221299, Note_on_c, 0, 63, 91
2, 221356, Note_on_c, 0, 80, 75
2, 221406, Note_on_c, 0, 85, 0
2, 221415, Note_on_c, 0, 85, 82
2, 221462, Note_on_c, 0, 82, 88
2, 221523, Note_on_c, 0, 78, 94
2, 221630, Note_on_c, 0, 79, 81
2, 221652, Note_on_c, 0, 35, 0
2, 221659, Note_on_c, 0, 47, 104
2, 221663, Note_on_c, 0, 35, 91
2, 221667, Control_c, 0, 64, 0
2, 221713, Note_on_c, 0, 83, 0
2, 221721, Note_on_c, 0, 83, 100
2, 221752, Control_c, 0, 64, 127
2, 221790, Note_on_c, 0, 82, 0
2, 221801, Note_on_c, 0, 82, 85
2, 221852, Note_on_c, 0, 79, 0
2, 221857, Note_on_c, 0, 79, 86
2, 221905, Note_on_c, 0, 78, 0
2, 221915, Note_on_c, 0, 78, 86
2, 221977, Note_on_c, 0, 76, 83
2, 222034, Note_on_c, 0, 81, 87
2, 222059, Note_on_c, 0, 70, 0
2, 222062, Note_on_c, 0, 67, 99
2, 222066, Note_on_c, 0, 70, 106
2, 222071, Note_on_c, 0, 64, 87
2, 222097, Note_on_c, 0, 80, 0
2, 222104, Note_on_c, 0, 80, 81
2, 222144, Note_on_c, 0, 79, 0
2, 222147, Note_on_c, 0, 77, 83
2, 222150, Note_on_c, 0, 79, 78
2, 222190, Note_on_c, 0, 76, 0
2, 222201, Note_on_c, 0, 76, 80
2, 222243, Note_on_c, 0, 79, 0
2, 222243, Note_on_c, 0, 81, 0
2, 222249, Note_on_c, 0, 79, 76
2, 222255, Note_on_c, 0, 81, 74
2, 222305, Note_on_c, 0, 78, 0
2, 222312, Note_on_c, 0, 78, 76
2, 222363, Note_on_c, 0, 75, 80
2, 222420, Note_on_c, 0, 67, 0
2, 222420, Note_on_c, 0, 71, 0
2, 222428, Note_on_c, 0, 64, 0
2, 222428, Note_on_c, 0, 71, 107
2, 222429, Note_on_c, 0, 67, 102
2, 222429, Note_on_c, 0, 74, 92
2, 222436, Note_on_c, 0, 64, 84
2, 222481, Note_on_c, 0, 87, 0
2, 222486, Note_on_c, 0, 87, 87
2, 222504, Note_on_c, 0, 79, 0
2, 222510, Note_on_c, 0, 79, 77
2, 222558, Note_on_c, 0, 76, 0
2, 222568, Note_on_c, 0, 76, 87
2, 222620, Note_on_c, 0, 77, 0
2, 222629, Note_on_c, 0, 77, 88
2, 222673, Note_on_c, 0, 78, 0
2, 222685, Note_on_c, 0, 78, 79
2, 222689, Note_on_c, 0, 81, 0
2, 222693, Note_on_c, 0, 81, 65
2, 222743, Note_on_c, 0, 79, 0
2, 222748, Note_on_c, 0, 79, 89
2, 222781, Note_on_c, 0, 67, 0
2, 222786, Note_on_c, 0, 73, 105
2, 222791, Note_on_c, 0, 67, 95
2, 222796, Note_on_c, 0, 64, 0
2, 222796, Note_on_c, 0, 80, 0
2, 222803, Note_on_c, 0, 64, 87
2, 222808, Note_on_c, 0, 80, 86
2, 222850, Note_on_c, 0, 81, 0
2, 222861, Note_on_c, 0, 81, 89
2, 222904, Note_on_c, 0, 82, 0
2, 222909, Note_on_c, 0, 82, 88
2, 222965, Note_on_c, 0, 83, 0
2, 222974, Note_on_c, 0, 83, 87
2, 223046, Note_on_c, 0, 84, 91
2, 223104, Note_on_c, 0, 85, 0
2, 223114, Note_on_c, 0, 85, 80
2, 223125, Note_on_c, 0, 80, 0
2, 223126, Note_on_c, 0, 64, 0
2, 223126, Note_on_c, 0, 74, 0
2, 223127, Note_on_c, 0, 100, 0
2, 223127, Note_on_c, 0, 77, 0
2, 223127, Note_on_c, 0, 79, 0
2, 223127, Note_on_c, 0, 71, 0
2, 223127, Note_on_c, 0, 81, 0
2, 223128, Note_on_c, 0, 82, 0
2, 223128, Control_c, 0, 64, 0
2, 223128, Note_on_c, 0, 66, 0
2, 223129, Note_on_c, 0, 70, 0
2, 223129, Note_on_c, 0, 84, 0
2, 223134, Note_on_c, 0, 63, 0
2, 223134, Note_on_c, 0, 94, 0
2, 223134, Note_on_c, 0, 95, 0
2, 223134, Note_on_c, 0, 97, 0
2, 223142, Note_on_c, 0, 67, 0
2, 223142, Note_on_c, 0, 73, 0
2, 223142, Note_on_c, 0, 75, 0
2, 223142, Note_on_c, 0, 76, 0
2, 223142, Note_on_c, 0, 99, 0
2, 223150, Note_on_c, 0, 35, 0
2, 223150, Note_on_c, 0, 47, 0
2, 223150, Note_on_c, 0, 78, 0
2, 223150, Note_on_c, 0, 88, 0
2, 223153, Note_on_c, 0, 47, 105
2, 223157, Note_on_c, 0, 35, 96
2, 223165, Note_on_c, 0, 87, 0
2, 223173, Note_on_c, 0, 83, 0
2, 223181, Note_on_c, 0, 83, 92
2, 223188, Control_c, 0, 64, 127
2, 223219, Note_on_c, 0, 85, 0
2, 223219, Note_on_c, 0, 92, 0
2, 223265, Note_on_c, 0, 88, 83
2, 223326, Note_on_c, 0, 87, 85
2, 223372, Note_on_c, 0, 83, 0
2, 223383, Note_on_c, 0, 83, 84
2, 223453, Note_on_c, 0, 82, 75
2, 223485, Note_on_c, 0, 85, 91
2, 223525, Note_on_c, 0, 54, 89
2, 223527, Note_on_c, 0, 51, 96
2, 223582, Note_on_c, 0, 80, 84
2, 223651, Note_on_c, 0, 78, 77
2, 223661, Note_on_c, 0, 79, 68
2, 223718, Note_on_c, 0, 82, 0
2, 223723, Note_on_c, 0, 82, 84
2, 223756, Note_on_c, 0, 80, 0
2, 223764, Note_on_c, 0, 80, 77
2, 223823, Note_on_c, 0, 76, 89
2, 223885, Note_on_c, 0, 58, 103
2, 223887, Note_on_c, 0, 51, 0
2, 223887, Note_on_c, 0, 54, 0
2, 223895, Note_on_c, 0, 51, 73
2, 223897, Note_on_c, 0, 75, 96
2, 223898, Note_on_c, 0, 54, 83
2, 223941, Note_on_c, 0, 80, 0
2, 223947, Note_on_c, 0, 80, 87
2, 224002, Note_on_c, 0, 78, 0
2, 224008, Note_on_c, 0, 78, 87
2, 224067, Note_on_c, 0, 73, 81
2, 224119, Note_on_c, 0, 71, 81
2, 224163, Note_on_c, 0, 76, 0
2, 224169, Note_on_c, 0, 76, 81
2, 224217, Note_on_c, 0, 75, 0
2, 224222, Note_on_c, 0, 75, 99
2, 224232, Note_on_c, 0, 51, 0
2, 224232, Note_on_c, 0, 54, 0
2, 224243, Note_on_c, 0, 59, 93
2, 224243, Note_on_c, 0, 54, 86
2, 224243, Note_on_c, 0, 51, 83
2, 224329, Note_on_c, 0, 68, 84
2, 224394, Note_on_c, 0, 54, 0
2, 224398, Note_on_c, 0, 54, 77
2, 224463, Note_on_c, 0, 71, 0
2, 224469, Note_on_c, 0, 71, 74
2, 224476, Note_on_c, 0, 66, 87
2, 224570, Note_on_c, 0, 79, 0
2, 224575, Control_c, 0, 64, 0
2, 224578, Note_on_c, 0, 35, 0
2, 224578, Note_on_c, 0, 47, 0
2, 224581, Note_on_c, 0, 51, 0
2, 224581, Note_on_c, 0, 54, 0
2, 224581, Note_on_c, 0, 88, 0
2, 224582, Note_on_c, 0, 58, 0
2, 224582, Note_on_c, 0, 82, 0
2, 224582, Note_on_c, 0, 76, 0
2, 224582, Note_on_c, 0, 71, 0
2, 224582, Note_on_c, 0, 85, 0
2, 224582, Note_on_c, 0, 67, 86
2, 224582, Note_on_c, 0, 66, 0
2, 224582, Note_on_c, 0, 78, 0
2, 224582, Note_on_c, 0, 87, 0
2, 224583, Note_on_c, 0, 80, 0
2, 224583, Note_on_c, 0, 73, 0
2, 224583, Note_on_c, 0, 75, 0
2, 224584, Note_on_c, 0, 68, 0
2, 224585, Note_on_c, 0, 64, 89
2, 224586, Note_on_c, 0, 90, 0
2, 224588, Note_on_c, 0, 47, 95
2, 224589, Note_on_c, 0, 35, 93
2, 224601, Note_on_c, 0, 83, 0
2, 224609, Note_on_c, 0, 59, 0
2, 224632, Control_c, 0, 64, 127
2, 224667, Note_on_c, 0, 71, 88
2, 224735, Note_on_c, 0, 70, 87
2, 224834, Note_on_c, 0, 66, 79
2, 224929, Note_on_c, 0, 58, 105
2, 224934, Note_on_c, 0, 69, 97
2, 224935, Note_on_c, 0, 55, 101
2, 224935, Note_on_c, 0, 52, 96
2, 224994, Note_on_c, 0, 68, 86
2, 225031, Note_on_c, 0, 66, 0
2, 225040, Note_on_c, 0, 65, 68
2, 225041, Note_on_c, 0, 66, 64
2, 225077, Note_on_c, 0, 64, 0
2, 225081, Note_on_c, 0, 64, 65
2, 225123, Note_on_c, 0, 67, 0
2, 225134, Note_on_c, 0, 67, 78
2, 225185, Note_on_c, 0, 66, 0
2, 225196, Note_on_c, 0, 66, 85
2, 225243, Note_on_c, 0, 63, 68
2, 225308, Note_on_c, 0, 52, 0
2, 225311, Note_on_c, 0, 62, 92
2, 225313, Note_on_c, 0, 59, 100
2, 225313, Note_on_c, 0, 52, 93
2, 225315, Note_on_c, 0, 55, 0
2, 225321, Note_on_c, 0, 55, 85
2, 225446, Note_on_c, 0, 64, 0
2, 225456, Note_on_c, 0, 64, 85
2, 225492, Note_on_c, 0, 65, 0
2, 225502, Note_on_c, 0, 65, 84
2, 225569, Note_on_c, 0, 66, 0
2, 225573, Note_on_c, 0, 66, 82
2, 225630, Note_on_c, 0, 67, 0
2, 225639, Note_on_c, 0, 67, 84
2, 225692, Note_on_c, 0, 55, 0
2, 225699, Note_on_c, 0, 52, 0
2, 225699, Note_on_c, 0, 68, 0
2, 225699, Note_on_c, 0, 71, 0
2, 225702, Note_on_c, 0, 61, 101
2, 225703, Note_on_c, 0, 55, 94
2, 225703, Note_on_c, 0, 52, 98
2, 225707, Note_on_c, 0, 71, 81
2, 225710, Note_on_c, 0, 68, 92
2, 225730, Note_on_c, 0, 68, 0
2, 225734, Note_on_c, 0, 68, 73
2, 225745, Note_on_c, 0, 69, 0
2, 225752, Note_on_c, 0, 69, 69
2, 225792, Note_on_c, 0, 70, 0
2, 225796, Note_on_c, 0, 70, 86
2, 225845, Note_on_c, 0, 71, 0
2, 225852, Note_on_c, 0, 71, 81
2, 225925, Note_on_c, 0, 72, 83
2, 226011, Note_on_c, 0, 73, 75
2, 226126, Note_on_c, 0, 58, 0
2, 226126, Note_on_c, 0, 62, 0
2, 226126, Note_on_c, 0, 65, 0
2, 226126, Note_on_c, 0, 47, 0
2, 226126, Note_on_c, 0, 69, 0
2, 226126, Note_on_c, 0, 67, 0
2, 226126, Note_on_c, 0, 64, 0
2, 226126, Note_on_c, 0, 70, 0
2, 226126, Note_on_c, 0, 63, 0
2, 226126, Note_on_c, 0, 68, 0
2, 226126, Note_on_c, 0, 59, 0
2, 226127, Note_on_c, 0, 52, 0
2, 226127, Note_on_c, 0, 61, 0
2, 226127, Note_on_c, 0, 66, 0
2, 226127, Note_on_c, 0, 71, 0
2, 226127, Note_on_c, 0, 72, 0
2, 226127, Note_on_c, 0, 73, 0
2, 226128, Note_on_c, 0, 35, 0
2, 226128, Control_c, 0, 64, 0
2, 226152, Note_on_c, 0, 55, 0
2, 226163, Note_on_c, 0, 75, 112
2, 226164, Note_on_c, 0, 63, 104
2, 226165, Note_on_c, 0, 35, 79
2, 226229, Control_c, 0, 64, 127
2, 226283, Note_on_c, 0, 42, 79
2, 226331, Note_on_c, 0, 47, 47
2, 226420, Note_on_c, 0, 51, 67
2, 226440, Note_on_c, 0, 59, 75
2, 226513, Note_on_c, 0, 61, 79
2, 226600, Note_on_c, 0, 66, 85
2, 226652, Note_on_c, 0, 63, 0
2, 226663, Note_on_c, 0, 63, 76
2, 226705, Note_on_c, 0, 61, 0
2, 226715, Note_on_c, 0, 61, 74
2, 226759, Note_on_c, 0, 59, 0
2, 226769, Note_on_c, 0, 59, 67
2, 226775, Note_on_c, 0, 51, 0
2, 226785, Note_on_c, 0, 51, 62
2, 226844, Note_on_c, 0, 63, 0
2, 226848, Note_on_c, 0, 63, 85
2, 226882, Note_on_c, 0, 66, 0
2, 226892, Note_on_c, 0, 66, 74
2, 226951, Note_on_c, 0, 47, 0
2, 226952, Note_on_c, 0, 71, 93
2, 226957, Note_on_c, 0, 47, 69
2, 227043, Note_on_c, 0, 66, 0
2, 227051, Note_on_c, 0, 63, 0
2, 227055, Note_on_c, 0, 66, 73
2, 227055, Note_on_c, 0, 63, 70
2, 227128, Note_on_c, 0, 61, 0
2, 227133, Note_on_c, 0, 73, 78
2, 227136, Note_on_c, 0, 51, 0
2, 227138, Note_on_c, 0, 61, 83
2, 227147, Note_on_c, 0, 51, 69
2, 227197, Note_on_c, 0, 66, 0
2, 227206, Note_on_c, 0, 66, 81
2, 227228, Note_on_c, 0, 71, 0
2, 227232, Note_on_c, 0, 71, 65
2, 227274, Note_on_c, 0, 75, 0
2, 227285, Note_on_c, 0, 75, 99
2, 227289, Note_on_c, 0, 47, 0
2, 227297, Note_on_c, 0, 35, 0
2, 227297, Note_on_c, 0, 47, 78
2, 227301, Note_on_c, 0, 35, 77
2, 227351, Note_on_c, 0, 73, 0
2, 227357, Note_on_c, 0, 73, 88
2, 227358, Note_on_c, 0, 42, 0
2, 227367, Note_on_c, 0, 42, 70
2, 227450, Note_on_c, 0, 66, 0
2, 227458, Note_on_c, 0, 51, 0
2, 227460, Note_on_c, 0, 66, 82
2, 227462, Note_on_c, 0, 54, 75
2, 227469, Note_on_c, 0, 51, 80
2, 227512, Note_on_c, 0, 71, 0
2, 227520, Note_on_c, 0, 59, 0
2, 227523, Note_on_c, 0, 71, 76
2, 227531, Note_on_c, 0, 59, 71
2, 227566, Note_on_c, 0, 75, 0
2, 227577, Note_on_c, 0, 75, 77
2, 227617, Control_c, 0, 64, 0
2, 227619, Note_on_c, 0, 47, 0
2, 227619, Note_on_c, 0, 59, 0
2, 227627, Note_on_c, 0, 71, 0
2, 227629, Note_on_c, 0, 59, 90
2, 227631, Note_on_c, 0, 47, 95
2, 227631, Note_on_c, 0, 78, 89
2, 227636, Note_on_c, 0, 71, 82
2, 227639, Note_on_c, 0, 54, 0
2, 227639, Note_on_c, 0, 73, 0
2, 227645, Note_on_c, 0, 42, 0
2, 227647, Note_on_c, 0, 35, 0
2, 227665, Note_on_c, 0, 61, 0
2, 227673, Note_on_c, 0, 63, 0
2, 227673, Control_c, 0, 64, 127
2, 227688, Note_on_c, 0, 51, 0
2, 227688, Note_on_c, 0, 66, 0
2, 227696, Note_on_c, 0, 75, 0
2, 227702, Note_on_c, 0, 75, 79
2, 227723, Note_on_c, 0, 73, 66
2, 227745, Note_on_c, 0, 58, 83
2, 227751, Note_on_c, 0, 46, 83
2, 227773, Note_on_c, 0, 59, 0
2, 227781, Note_on_c, 0, 47, 0
2, 227781, Note_on_c, 0, 71, 0
2, 227791, Note_on_c, 0, 71, 76
2, 227853, Note_on_c, 0, 57, 89
2, 227857, Note_on_c, 0, 75, 0
2, 227859, Note_on_c, 0, 45, 92
2, 227865, Note_on_c, 0, 78, 0
2, 227867, Note_on_c, 0, 87, 88
2, 227868, Note_on_c, 0, 75, 93
2, 227875, Note_on_c, 0, 78, 73
2, 227965, Note_on_c, 0, 78, 0
2, 227968, Note_on_c, 0, 83, 97
2, 227976, Note_on_c, 0, 78, 82
2, 227977, Note_on_c, 0, 56, 85
2, 227978, Note_on_c, 0, 44, 86
2, 228042, Note_on_c, 0, 78, 0
2, 228049, Note_on_c, 0, 75, 0
2, 228050, Note_on_c, 0, 78, 76
2, 228058, Note_on_c, 0, 75, 79
2, 228079, Note_on_c, 0, 43, 88
2, 228084, Note_on_c, 0, 55, 88
2, 228126, Note_on_c, 0, 73, 0
2, 228138, Note_on_c, 0, 73, 84
2, 228191, Note_on_c, 0, 54, 86
2, 228191, Note_on_c, 0, 42, 91
2, 228195, Note_on_c, 0, 78, 0
2, 228201, Note_on_c, 0, 82, 70
2, 228206, Note_on_c, 0, 78, 87
2, 228295, Note_on_c, 0, 87, 0
2, 228300, Note_on_c, 0, 87, 98
2, 228302, Note_on_c, 0, 53, 97
2, 228304, Note_on_c, 0, 41, 96
2, 228369, Note_on_c, 0, 85, 91
2, 228415, Note_on_c, 0, 52, 99
2, 228416, Note_on_c, 0, 40, 98
2, 228456, Note_on_c, 0, 78, 0
2, 228462, Note_on_c, 0, 78, 78
2, 228526, Note_on_c, 0, 85, 0
2, 228530, Note_on_c, 0, 51, 91
2, 228530, Note_on_c, 0, 85, 69
2, 228530, Note_on_c, 0, 39, 96
2, 228556, Note_on_c, 0, 87, 0
2, 228568, Note_on_c, 0, 87, 66
2, 228638, Note_on_c, 0, 90, 102
2, 228659, Note_on_c, 0, 38, 101
2, 228660, Note_on_c, 0, 50, 87
2, 228695, Note_on_c, 0, 87, 0
2, 228705, Note_on_c, 0, 87, 61
2, 228771, Note_on_c, 0, 39, 0
2, 228773, Note_on_c, 0, 37, 92
2, 228774, Note_on_c, 0, 49, 84
2, 228776, Note_on_c, 0, 39, 81
2, 228856, Note_on_c, 0, 87, 0
2, 228863, Note_on_c, 0, 87, 91
2, 228888, Note_on_c, 0, 48, 94
2, 228890, Note_on_c, 0, 36, 98
2, 228902, Note_on_c, 0, 90, 0
2, 228913, Note_on_c, 0, 90, 75
2, 229025, Note_on_c, 0, 53, 0
2, 229029, Note_on_c, 0, 40, 0
2, 229029, Note_on_c, 0, 71, 0
2, 229030, Note_on_c, 0, 73, 0
2, 229030, Note_on_c, 0, 43, 0
2, 229030, Note_on_c, 0, 36, 0
2, 229030, Note_on_c, 0, 38, 0
2, 229031, Note_on_c, 0, 41, 0
2, 229031, Note_on_c, 0, 52, 0
2, 229032, Note_on_c, 0, 85, 0
2, 229032, Note_on_c, 0, 56, 0
2, 229032, Note_on_c, 0, 48, 0
2, 229032, Note_on_c, 0, 50, 0
2, 229032, Note_on_c, 0, 87, 0
2, 229032, Note_on_c, 0, 55, 0
2, 229032, Note_on_c, 0, 57, 0
2, 229032, Note_on_c, 0, 58, 0
2, 229032, Note_on_c, 0, 82, 0
2, 229033, Note_on_c, 0, 45, 0
2, 229033, Note_on_c, 0, 83, 0
2, 229034, Note_on_c, 0, 42, 0
2, 229034, Note_on_c, 0, 51, 0
2, 229034, Note_on_c, 0, 39, 0
2, 229034, Note_on_c, 0, 49, 0
2, 229035, Note_on_c, 0, 78, 0
2, 229035, Note_on_c, 0, 90, 0
2, 229035, Note_on_c, 0, 37, 0
2, 229037, Note_on_c, 0, 54, 0
2, 229040, Note_on_c, 0, 46, 0
2, 229040, Note_on_c, 0, 75, 0
2, 229044, Control_c, 0, 64, 0
2, 229048, Note_on_c, 0, 44, 0
2, 229092, Note_on_c, 0, 95, 107
2, 229094, Note_on_c, 0, 87, 105
2, 229095, Note_on_c, 0, 90, 95
2, 229097, Note_on_c, 0, 47, 104
2, 229098, Note_on_c, 0, 99, 100
2, 229104, Note_on_c, 0, 35, 91
2, 229148, Note_on_c, 0, 99, 0
2, 229324, Control_c, 0, 64, 127
2, 229732, Note_on_c, 0, 78, 106
2, 229734, Note_on_c, 0, 75, 103
2, 229734, Note_on_c, 0, 63, 93
2, 229735, Note_on_c, 0, 66, 103
2, 229735, Note_on_c, 0, 59, 87
2, 230261, Note_on_c, 0, 59, 0
2, 230261, Note_on_c, 0, 66, 0
2, 230261, Note_on_c, 0, 75, 0
2, 230267, Note_on_c, 0, 82, 105
2, 230268, Note_on_c, 0, 70, 100
2, 230269, Note_on_c, 0, 63, 0
2, 230269, Note_on_c, 0, 78, 0
2, 230270, Note_on_c, 0, 75, 103
2, 230271, Note_on_c, 0, 59, 90
2, 230272, Note_on_c, 0, 66, 98
2, 230273, Note_on_c, 0, 78, 99
2, 230274, Note_on_c, 0, 63, 90
2, 230814, Note_on_c, 0, 59, 0
2, 230814, Note_on_c, 0, 63, 0
2, 230814, Note_on_c, 0, 66, 0
2, 230814, Note_on_c, 0, 75, 0
2, 230814, Note_on_c, 0, 78, 0
2, 230817, Note_on_c, 0, 83, 103
2, 230818, Note_on_c, 0, 71, 103
2, 230819, Note_on_c, 0, 75, 100
2, 230819, Note_on_c, 0, 59, 90
2, 230820, Note_on_c, 0, 78, 104
2, 230824, Note_on_c, 0, 66, 97
2, 230825, Note_on_c, 0, 63, 88
2, 231444, Note_on_c, 0, 47, 0
2, 231451, Note_on_c, 0, 47, 82
2, 231512, Note_on_c, 0, 52, 80
2, 231521, Note_on_c, 0, 95, 0
2, 231549, Note_on_c, 0, 55, 77
2, 231574, Note_on_c, 0, 61, 93
2, 231579, Note_on_c, 0, 85, 105
2, 231580, Note_on_c, 0, 73, 103
2, 231582, Note_on_c, 0, 35, 0
2, 231586, Note_on_c, 0, 79, 94
2, 231586, Note_on_c, 0, 76, 100
2, 231621, Note_on_c, 0, 90, 0
2, 231631, Control_c, 0, 64, 0
2, 231639, Note_on_c, 0, 78, 0
2, 231640, Note_on_c, 0, 59, 0
2, 231640, Note_on_c, 0, 66, 0
2, 231640, Note_on_c, 0, 47, 0
2, 231641, Note_on_c, 0, 75, 0
2, 231641, Note_on_c, 0, 83, 0
2, 231642, Note_on_c, 0, 71, 0
2, 231642, Note_on_c, 0, 63, 0
2, 231667, Note_on_c, 0, 82, 0
2, 231667, Note_on_c, 0, 87, 0
2, 231674, Note_on_c, 0, 70, 0
2, 231843, Control_c, 0, 64, 127
2, 232770, Note_on_c, 0, 83, 83
2, 232778, Note_on_c, 0, 59, 57
2, 232788, Note_on_c, 0, 76, 0
2, 232788, Note_on_c, 0, 79, 0
2, 232791, Note_on_c, 0, 71, 66
2, 232792, Note_on_c, 0, 76, 61
2, 232799, Note_on_c, 0, 79, 63
2, 232801, Note_on_c, 0, 64, 52
2, 232806, Note_on_c, 0, 67, 59
2, 233088, Note_on_c, 0, 85, 0
2, 233092, Note_on_c, 0, 85, 90
2, 233103, Note_on_c, 0, 73, 0
2, 233103, Note_on_c, 0, 79, 0
2, 233108, Note_on_c, 0, 73, 79
2, 233111, Note_on_c, 0, 79, 80
2, 233111, Note_on_c, 0, 59, 0
2, 233111, Note_on_c, 0, 64, 0
2, 233111, Note_on_c, 0, 67, 0
2, 233111, Note_on_c, 0, 76, 0
2, 233114, Note_on_c, 0, 67, 73
2, 233115, Note_on_c, 0, 76, 73
2, 233119, Note_on_c, 0, 59, 62
2, 233122, Note_on_c, 0, 64, 66
2, 233326, Note_on_c, 0, 85, 0
2, 233333, Note_on_c, 0, 73, 0
2, 233337, Note_on_c, 0, 85, 97
2, 233338, Note_on_c, 0, 73, 92
2, 233341, Note_on_c, 0, 67, 0
2, 233341, Note_on_c, 0, 76, 0
2, 233341, Note_on_c, 0, 79, 0
2, 233345, Note_on_c, 0, 79, 82
2, 233347, Note_on_c, 0, 67, 82
2, 233349, Note_on_c, 0, 64, 0
2, 233349, Note_on_c, 0, 76, 85
2, 233353, Note_on_c, 0, 64, 73
2, 233356, Note_on_c, 0, 59, 0
2, 233361, Note_on_c, 0, 59, 70
2, 233533, Note_on_c, 0, 71, 0
2, 233533, Note_on_c, 0, 79, 0
2, 233533, Note_on_c, 0, 83, 0
2, 233538, Note_on_c, 0, 83, 94
2, 233540, Note_on_c, 0, 79, 88
2, 233540, Note_on_c, 0, 71, 91
2, 233541, Note_on_c, 0, 59, 0
2, 233541, Note_on_c, 0, 67, 0
2, 233541, Note_on_c, 0, 76, 0
2, 233544, Note_on_c, 0, 76, 89
2, 233545, Note_on_c, 0, 59, 77
2, 233548, Note_on_c, 0, 64, 0
2, 233549, Note_on_c, 0, 67, 83
2, 233552, Note_on_c, 0, 64, 77
2, 233702, Note_on_c, 0, 67, 0
2, 233702, Note_on_c, 0, 73, 0
2, 233702, Note_on_c, 0, 85, 0
2, 233706, Note_on_c, 0, 85, 101
2, 233710, Note_on_c, 0, 59, 0
2, 233710, Note_on_c, 0, 64, 0
2, 233710, Note_on_c, 0, 76, 0
2, 233710, Note_on_c, 0, 79, 0
2, 233712, Note_on_c, 0, 73, 97
2, 233713, Note_on_c, 0, 67, 86
2, 233714, Note_on_c, 0, 79, 86
2, 233715, Note_on_c, 0, 76, 92
2, 233715, Note_on_c, 0, 64, 81
2, 233717, Note_on_c, 0, 59, 79
2, 233886, Note_on_c, 0, 73, 0
2, 233886, Note_on_c, 0, 85, 0
2, 233894, Note_on_c, 0, 64, 0
2, 233894, Note_on_c, 0, 67, 0
2, 233894, Note_on_c, 0, 76, 0
2, 233894, Note_on_c, 0, 79, 0
2, 233894, Note_on_c, 0, 85, 102
2, 233896, Note_on_c, 0, 73, 100
2, 233899, Note_on_c, 0, 64, 82
2, 233899, Note_on_c, 0, 67, 91
2, 233899, Note_on_c, 0, 79, 90
2, 233900, Note_on_c, 0, 76, 97
2, 233902, Note_on_c, 0, 59, 0
2, 233908, Note_on_c, 0, 59, 78
2, 234101, Note_on_c, 0, 83, 0
2, 234109, Note_on_c, 0, 71, 0
2, 234109, Note_on_c, 0, 76, 0
2, 234109, Note_on_c, 0, 79, 0
2, 234111, Note_on_c, 0, 83, 102
2, 234114, Note_on_c, 0, 79, 90
2, 234116, Note_on_c, 0, 71, 92
2, 234117, Note_on_c, 0, 59, 0
2, 234117, Note_on_c, 0, 64, 0
2, 234117, Note_on_c, 0, 67, 0
2, 234120, Note_on_c, 0, 76, 94
2, 234121, Note_on_c, 0, 67, 86
2, 234121, Note_on_c, 0, 64, 81
2, 234127, Note_on_c, 0, 59, 83
2, 234332, Note_on_c, 0, 59, 0
2, 234332, Note_on_c, 0, 73, 0
2, 234337, Note_on_c, 0, 59, 85
2, 234339, Note_on_c, 0, 67, 0
2, 234341, Note_on_c, 0, 73, 93
2, 234347, Note_on_c, 0, 85, 0
2, 234351, Note_on_c, 0, 67, 82
2, 234355, Note_on_c, 0, 76, 0
2, 234355, Note_on_c, 0, 79, 0
2, 234356, Note_on_c, 0, 85, 87
2, 234365, Note_on_c, 0, 76, 90
2, 234366, Note_on_c, 0, 79, 90
2, 234524, Note_on_c, 0, 71, 0
2, 234524, Note_on_c, 0, 83, 0
2, 234525, Note_on_c, 0, 67, 0
2, 234525, Note_on_c, 0, 73, 0
2, 234525, Note_on_c, 0, 64, 0
2, 234528, Control_c, 0, 64, 0
2, 234531, Note_on_c, 0, 52, 0
2, 234537, Note_on_c, 0, 47, 74
2, 234539, Note_on_c, 0, 55, 0
2, 234539, Note_on_c, 0, 61, 0
2, 234547, Note_on_c, 0, 59, 0
2, 234570, Control_c, 0, 64, 127
2, 234622, Note_on_c, 0, 54, 69
2, 234694, Note_on_c, 0, 59, 72
2, 234774, Note_on_c, 0, 87, 108
2, 234776, Note_on_c, 0, 75, 102
2, 234777, Note_on_c, 0, 83, 97
2, 234778, Note_on_c, 0, 78, 101
2, 234778, Note_on_c, 0, 63, 94
2, 234781, Note_on_c, 0, 66, 78
2, 235008, Note_on_c, 0, 76, 0
2, 236021, Note_on_c, 0, 47, 0
2, 236029, Note_on_c, 0, 47, 76
2, 236048, Control_c, 0, 64, 0
2, 236053, Note_on_c, 0, 78, 0
2, 236053, Note_on_c, 0, 87, 0
2, 236054, Note_on_c, 0, 75, 0
2, 236055, Note_on_c, 0, 83, 0
2, 236055, Note_on_c, 0, 63, 0
2, 236056, Note_on_c, 0, 66, 0
2, 236067, Note_on_c, 0, 79, 0
2, 236067, Note_on_c, 0, 85, 0
2, 236075, Note_on_c, 0, 59, 0
2, 236090, Note_on_c, 0, 54, 0
2, 236101, Note_on_c, 0, 54, 76
2, 236113, Control_c, 0, 64, 127
2, 236162, Note_on_c, 0, 59, 81
2, 236240, Note_on_c, 0, 87, 107
2, 236241, Note_on_c, 0, 63, 98
2, 236241, Note_on_c, 0, 75, 107
2, 236243, Note_on_c, 0, 78, 104
2, 236244, Note_on_c, 0, 83, 92
2, 236997, Note_on_c, 0, 47, 0
2, 237001, Note_on_c, 0, 47, 82
2, 237066, Note_on_c, 0, 54, 0
2, 237077, Note_on_c, 0, 54, 74
2, 237120, Note_on_c, 0, 47, 0
2, 237120, Note_on_c, 0, 59, 0
2, 237124, Note_on_c, 0, 47, 71
2, 237127, Note_on_c, 0, 59, 82
2, 237204, Note_on_c, 0, 63, 0
2, 237204, Note_on_c, 0, 75, 0
2, 237204, Note_on_c, 0, 78, 0
2, 237204, Note_on_c, 0, 83, 0
2, 237204, Note_on_c, 0, 87, 0
2, 237211, Note_on_c, 0, 63, 99
2, 237214, Note_on_c, 0, 87, 108
2, 237214, Note_on_c, 0, 75, 108
2, 237215, Note_on_c, 0, 78, 106
2, 237215, Note_on_c, 0, 83, 98
2, 238104, Note_on_c, 0, 23, 83
2, 238104, Note_on_c, 0, 35, 77
2, 238325, Note_on_c, 0, 35, 0
2, 238330, Note_on_c, 0, 35, 59
2, 238341, Note_on_c, 0, 47, 0
2, 238348, Note_on_c, 0, 47, 59
2, 238394, Note_on_c, 0, 47, 0
2, 238401, Note_on_c, 0, 47, 56
2, 238422, Note_on_c, 0, 48, 56
2, 238433, Note_on_c, 0, 48, 0
2, 238494, Note_on_c, 0, 54, 0
2, 238499, Note_on_c, 0, 54, 71
2, 238579, Note_on_c, 0, 59, 0
2, 238587, Note_on_c, 0, 59, 86
2, 238671, Note_on_c, 0, 63, 0
2, 238671, Note_on_c, 0, 75, 0
2, 238671, Note_on_c, 0, 78, 0
2, 238671, Note_on_c, 0, 87, 0
2, 238678, Note_on_c, 0, 63, 98
2, 238678, Note_on_c, 0, 75, 107
2, 238679, Note_on_c, 0, 83, 0
2, 238679, Note_on_c, 0, 66, 93
2, 238681, Note_on_c, 0, 87, 106
2, 238681, Note_on_c, 0, 78, 103
2, 238685, Note_on_c, 0, 83, 95
2, 242649, Note_on_c, 0, 54, 0
2, 242655, Note_on_c, 0, 54, 34
2, 242668, Note_on_c, 0, 63, 0
2, 242668, Note_on_c, 0, 75, 0
2, 242669, Note_on_c, 0, 83, 0
2, 242670, Note_on_c, 0, 87, 0
2, 242671, Note_on_c, 0, 66, 0
2, 242671, Note_on_c, 0, 59, 0
2, 242672, Note_on_c, 0, 23, 0
2, 242676, Control_c, 0, 64, 0
2, 242695, Note_on_c, 0, 35, 0
2, 242703, Note_on_c, 0, 47, 0
2, 242787, Note_on_c, 0, 54, 0
2, 242964, Note_on_c, 0, 78, 0
2, 242965, End_track
0, 0, End_of_file
