0, 0, Header, 1, 2, 384
1, 0, Start_track
1, 0, Tempo, 500000
1, 0, Time_signature, 4, 2, 24, 8
1, 1, End_track
2, 0, Start_track
2, 890, Control_c, 0, 64, 127
2, 1382, Note_on_c, 0, 74, 70
2, 1449, Note_on_c, 0, 77, 73
2, 1501, Note_on_c, 0, 82, 80
2, 1564, Note_on_c, 0, 46, 77
2, 1580, Control_c, 0, 64, 0
2, 1588, Note_on_c, 0, 86, 98
2, 1666, Control_c, 0, 64, 127
2, 1766, Note_on_c, 0, 53, 68
2, 1948, Note_on_c, 0, 58, 79
2, 2123, Note_on_c, 0, 62, 73
2, 2319, Note_on_c, 0, 86, 0
2, 2323, Note_on_c, 0, 86, 93
2, 2327, Note_on_c, 0, 74, 0
2, 2331, Note_on_c, 0, 65, 76
2, 2332, Note_on_c, 0, 74, 78
2, 2594, Note_on_c, 0, 72, 74
2, 2657, Note_on_c, 0, 77, 0
2, 2662, Note_on_c, 0, 77, 79
2, 2711, Note_on_c, 0, 81, 85
2, 2730, Note_on_c, 0, 84, 91
2, 2735, Control_c, 0, 64, 0
2, 2736, Note_on_c, 0, 41, 72
2, 2738, Note_on_c, 0, 46, 0
2, 2738, Note_on_c, 0, 58, 0
2, 2738, Note_on_c, 0, 65, 0
2, 2738, Note_on_c, 0, 82, 0
2, 2738, Note_on_c, 0, 86, 0
2, 2739, Note_on_c, 0, 62, 0
2, 2739, Note_on_c, 0, 74, 0
2, 2740, Note_on_c, 0, 53, 0
2, 2795, Control_c, 0, 64, 127
2, 2915, Note_on_c, 0, 48, 70
2, 3098, Note_on_c, 0, 53, 76
2, 3258, Note_on_c, 0, 57, 69
2, 3268, Note_on_c, 0, 82, 83
2, 3273, Note_on_c, 0, 70, 82
2, 3448, Note_on_c, 0, 81, 0
2, 3452, Note_on_c, 0, 81, 90
2, 3454, Note_on_c, 0, 60, 76
2, 3459, Note_on_c, 0, 69, 81
2, 3734, Note_on_c, 0, 67, 70
2, 3786, Note_on_c, 0, 72, 0
2, 3790, Note_on_c, 0, 72, 70
2, 3830, Note_on_c, 0, 76, 74
2, 3835, Note_on_c, 0, 36, 81
2, 3840, Note_on_c, 0, 79, 89
2, 3864, Control_c, 0, 64, 0
2, 3865, Note_on_c, 0, 48, 0
2, 3865, Note_on_c, 0, 82, 0
2, 3865, Note_on_c, 0, 41, 0
2, 3866, Note_on_c, 0, 84, 0
2, 3866, Note_on_c, 0, 53, 0
2, 3866, Note_on_c, 0, 69, 0
2, 3866, Note_on_c, 0, 70, 0
2, 3866, Note_on_c, 0, 60, 0
2, 3866, Note_on_c, 0, 57, 0
2, 3866, Note_on_c, 0, 81, 0
2, 3878, Note_on_c, 0, 77, 0
2, 3962, Control_c, 0, 64, 127
2, 4028, Note_on_c, 0, 43, 70
2, 4213, Note_on_c, 0, 48, 61
2, 4398, Note_on_c, 0, 52, 72
2, 4585, Note_on_c, 0, 55, 70
2, 4771, Note_on_c, 0, 60, 71
2, 4953, Note_on_c, 0, 79, 0
2, 4959, Note_on_c, 0, 79, 87
2, 4961, Note_on_c, 0, 67, 0
2, 4965, Note_on_c, 0, 64, 72
2, 4966, Note_on_c, 0, 67, 73
2, 5322, Note_on_c, 0, 60, 0
2, 5326, Note_on_c, 0, 60, 80
2, 5695, Note_on_c, 0, 82, 89
2, 5698, Note_on_c, 0, 55, 0
2, 5708, Note_on_c, 0, 55, 73
2, 5760, Note_on_c, 0, 72, 0
2, 5883, Note_on_c, 0, 84, 87
2, 6042, Note_on_c, 0, 74, 67
2, 6067, Note_on_c, 0, 79, 0
2, 6067, Note_on_c, 0, 82, 0
2, 6074, Note_on_c, 0, 79, 75
2, 6076, Note_on_c, 0, 82, 77
2, 6078, Note_on_c, 0, 39, 85
2, 6100, Note_on_c, 0, 86, 103
2, 6118, Control_c, 0, 64, 0
2, 6125, Note_on_c, 0, 76, 0
2, 6125, Note_on_c, 0, 64, 0
2, 6125, Note_on_c, 0, 48, 0
2, 6126, Note_on_c, 0, 67, 0
2, 6127, Note_on_c, 0, 55, 0
2, 6127, Note_on_c, 0, 52, 0
2, 6127, Note_on_c, 0, 43, 0
2, 6128, Note_on_c, 0, 60, 0
2, 6128, Note_on_c, 0, 84, 0
2, 6130, Note_on_c, 0, 36, 0
2, 6205, Control_c, 0, 64, 127
2, 6270, Note_on_c, 0, 46, 78
2, 6467, Note_on_c, 0, 51, 78
2, 6632, Note_on_c, 0, 55, 77
2, 6835, Note_on_c, 0, 86, 0
2, 6839, Note_on_c, 0, 86, 95
2, 6842, Note_on_c, 0, 74, 0
2, 6843, Note_on_c, 0, 58, 74
2, 6849, Note_on_c, 0, 74, 79
2, 7098, Note_on_c, 0, 72, 73
2, 7160, Note_on_c, 0, 77, 81
2, 7202, Note_on_c, 0, 81, 88
2, 7223, Note_on_c, 0, 84, 95
2, 7229, Note_on_c, 0, 41, 79
2, 7236, Control_c, 0, 64, 0
2, 7245, Note_on_c, 0, 51, 0
2, 7245, Note_on_c, 0, 46, 0
2, 7245, Note_on_c, 0, 55, 0
2, 7245, Note_on_c, 0, 86, 0
2, 7245, Note_on_c, 0, 74, 0
2, 7245, Note_on_c, 0, 58, 0
2, 7245, Note_on_c, 0, 39, 0
2, 7249, Note_on_c, 0, 79, 0
2, 7272, Note_on_c, 0, 82, 0
2, 7342, Control_c, 0, 64, 127
2, 7416, Note_on_c, 0, 48, 72
2, 7597, Note_on_c, 0, 53, 78
2, 7761, Note_on_c, 0, 57, 71
2, 7773, Note_on_c, 0, 82, 83
2, 7775, Note_on_c, 0, 70, 77
2, 7948, Note_on_c, 0, 81, 0
2, 7958, Note_on_c, 0, 81, 88
2, 7965, Note_on_c, 0, 60, 70
2, 7981, Note_on_c, 0, 69, 74
2, 8252, Note_on_c, 0, 67, 66
2, 8294, Note_on_c, 0, 72, 0
2, 8302, Note_on_c, 0, 72, 70
2, 8343, Note_on_c, 0, 74, 61
2, 8348, Note_on_c, 0, 74, 0
2, 8359, Note_on_c, 0, 79, 90
2, 8364, Note_on_c, 0, 43, 78
2, 8369, Control_c, 0, 64, 0
2, 8375, Note_on_c, 0, 82, 0
2, 8376, Note_on_c, 0, 41, 0
2, 8376, Note_on_c, 0, 48, 0
2, 8377, Note_on_c, 0, 53, 0
2, 8377, Note_on_c, 0, 60, 0
2, 8377, Note_on_c, 0, 70, 0
2, 8378, Note_on_c, 0, 81, 0
2, 8378, Note_on_c, 0, 84, 0
2, 8378, Note_on_c, 0, 69, 0
2, 8378, Note_on_c, 0, 77, 0
2, 8378, Note_on_c, 0, 57, 0
2, 8524, Control_c, 0, 64, 127
2, 8547, Note_on_c, 0, 50, 68
2, 8722, Note_on_c, 0, 55, 59
2, 8911, Note_on_c, 0, 60, 66
2, 9098, Note_on_c, 0, 62, 66
2, 9277, Note_on_c, 0, 67, 0
2, 9287, Note_on_c, 0, 67, 55
2, 9502, Note_on_c, 0, 74, 67
2, 9503, Note_on_c, 0, 70, 54
2, 9542, Control_c, 0, 64, 0
2, 9545, Note_on_c, 0, 79, 0
2, 9547, Note_on_c, 0, 50, 0
2, 9548, Note_on_c, 0, 60, 0
2, 9561, Note_on_c, 0, 72, 0
2, 9730, Control_c, 0, 64, 127
2, 10076, Note_on_c, 0, 43, 0
2, 10283, Note_on_c, 0, 62, 0
2, 10293, Note_on_c, 0, 62, 72
2, 10675, Note_on_c, 0, 67, 0
2, 10680, Note_on_c, 0, 67, 80
2, 10705, Note_on_c, 0, 55, 0
2, 10711, Note_on_c, 0, 55, 52
2, 10725, Control_c, 0, 64, 0
2, 10732, Note_on_c, 0, 70, 0
2, 10744, Note_on_c, 0, 74, 0
2, 10746, Note_on_c, 0, 62, 0
2, 10844, Control_c, 0, 64, 127
2, 10889, Note_on_c, 0, 62, 52
2, 11058, Note_on_c, 0, 79, 65
2, 11085, Note_on_c, 0, 70, 55
2, 11453, Note_on_c, 0, 69, 78
2, 11846, Note_on_c, 0, 65, 77
2, 11849, Note_on_c, 0, 50, 65
2, 11877, Control_c, 0, 64, 0
2, 11882, Note_on_c, 0, 70, 0
2, 11883, Note_on_c, 0, 62, 0
2, 11884, Note_on_c, 0, 69, 0
2, 11884, Note_on_c, 0, 79, 0
2, 11888, Note_on_c, 0, 67, 0
2, 11896, Note_on_c, 0, 55, 0
2, 12036, Note_on_c, 0, 57, 60
2, 12236, Note_on_c, 0, 77, 67
2, 12238, Note_on_c, 0, 74, 65
2, 12241, Note_on_c, 0, 69, 63
2, 12418, Control_c, 0, 64, 127
2, 12611, Note_on_c, 0, 62, 87
2, 12618, Control_c, 0, 64, 0
2, 12710, Control_c, 0, 64, 127
2, 12983, Note_on_c, 0, 67, 87
2, 12986, Note_on_c, 0, 55, 68
2, 13021, Control_c, 0, 64, 0
2, 13023, Note_on_c, 0, 57, 0
2, 13023, Note_on_c, 0, 69, 0
2, 13023, Note_on_c, 0, 65, 0
2, 13023, Note_on_c, 0, 50, 0
2, 13024, Note_on_c, 0, 62, 0
2, 13025, Note_on_c, 0, 74, 0
2, 13026, Note_on_c, 0, 77, 0
2, 13140, Control_c, 0, 64, 127
2, 13173, Note_on_c, 0, 62, 69
2, 13368, Note_on_c, 0, 79, 75
2, 13394, Note_on_c, 0, 74, 54
2, 13396, Note_on_c, 0, 70, 53
2, 13756, Note_on_c, 0, 69, 78
2, 14133, Note_on_c, 0, 65, 82
2, 14150, Note_on_c, 0, 50, 63
2, 14165, Control_c, 0, 64, 0
2, 14167, Note_on_c, 0, 62, 0
2, 14167, Note_on_c, 0, 69, 0
2, 14168, Note_on_c, 0, 70, 0
2, 14168, Note_on_c, 0, 79, 0
2, 14168, Note_on_c, 0, 74, 0
2, 14169, Note_on_c, 0, 67, 0
2, 14170, Note_on_c, 0, 55, 0
2, 14320, Note_on_c, 0, 57, 60
2, 14400, Control_c, 0, 64, 127
2, 14517, Note_on_c, 0, 77, 68
2, 14552, Note_on_c, 0, 74, 63
2, 14555, Note_on_c, 0, 69, 60
2, 14576, Control_c, 0, 64, 0
2, 14896, Note_on_c, 0, 60, 76
2, 14929, Control_c, 0, 64, 127
2, 15284, Note_on_c, 0, 62, 80
2, 15286, Note_on_c, 0, 55, 68
2, 15317, Control_c, 0, 64, 0
2, 15318, Note_on_c, 0, 50, 0
2, 15318, Note_on_c, 0, 57, 0
2, 15318, Note_on_c, 0, 65, 0
2, 15318, Note_on_c, 0, 69, 0
2, 15318, Note_on_c, 0, 74, 0
2, 15318, Note_on_c, 0, 60, 0
2, 15319, Note_on_c, 0, 77, 0
2, 15421, Control_c, 0, 64, 127
2, 15475, Note_on_c, 0, 60, 76
2, 15651, Note_on_c, 0, 62, 0
2, 15661, Note_on_c, 0, 62, 85
2, 15682, Control_c, 0, 64, 0
2, 15820, Control_c, 0, 64, 127
2, 15844, Note_on_c, 0, 70, 66
2, 16017, Note_on_c, 0, 74, 59
2, 16211, Note_on_c, 0, 79, 76
2, 16392, Note_on_c, 0, 77, 77
2, 16393, Note_on_c, 0, 53, 69
2, 16594, Note_on_c, 0, 72, 58
2, 16791, Note_on_c, 0, 69, 68
2, 16969, Note_on_c, 0, 65, 69
2, 17157, Note_on_c, 0, 62, 0
2, 17166, Note_on_c, 0, 62, 87
2, 17280, Note_on_c, 0, 55, 0
2, 17533, Note_on_c, 0, 74, 0
2, 17543, Note_on_c, 0, 74, 87
2, 17569, Note_on_c, 0, 51, 61
2, 17582, Control_c, 0, 64, 0
2, 17582, Note_on_c, 0, 53, 0
2, 17582, Note_on_c, 0, 72, 0
2, 17583, Note_on_c, 0, 60, 0
2, 17583, Note_on_c, 0, 65, 0
2, 17583, Note_on_c, 0, 70, 0
2, 17583, Note_on_c, 0, 77, 0
2, 17583, Note_on_c, 0, 79, 0
2, 17583, Note_on_c, 0, 62, 0
2, 17583, Note_on_c, 0, 69, 0
2, 17679, Control_c, 0, 64, 127
2, 17746, Note_on_c, 0, 58, 62
2, 17907, Note_on_c, 0, 86, 83
2, 17931, Note_on_c, 0, 63, 53
2, 17934, Note_on_c, 0, 82, 64
2, 17939, Note_on_c, 0, 79, 49
2, 18303, Note_on_c, 0, 72, 85
2, 18684, Note_on_c, 0, 53, 69
2, 18684, Note_on_c, 0, 70, 84
2, 18712, Note_on_c, 0, 82, 0
2, 18712, Note_on_c, 0, 79, 0
2, 18712, Note_on_c, 0, 63, 0
2, 18713, Note_on_c, 0, 72, 0
2, 18713, Note_on_c, 0, 86, 0
2, 18714, Note_on_c, 0, 58, 0
2, 18714, Note_on_c, 0, 51, 0
2, 18715, Control_c, 0, 64, 0
2, 18723, Note_on_c, 0, 74, 0
2, 18777, Control_c, 0, 64, 127
2, 18864, Note_on_c, 0, 60, 55
2, 19056, Note_on_c, 0, 82, 76
2, 19074, Note_on_c, 0, 74, 51
2, 19079, Note_on_c, 0, 77, 58
2, 19079, Note_on_c, 0, 65, 56
2, 19431, Note_on_c, 0, 69, 81
2, 19818, Note_on_c, 0, 67, 85
2, 19826, Note_on_c, 0, 48, 57
2, 19829, Note_on_c, 0, 53, 0
2, 19834, Note_on_c, 0, 60, 0
2, 19835, Note_on_c, 0, 69, 0
2, 19835, Note_on_c, 0, 82, 0
2, 19835, Note_on_c, 0, 74, 0
2, 19835, Note_on_c, 0, 65, 0
2, 19835, Control_c, 0, 64, 0
2, 19837, Note_on_c, 0, 70, 0
2, 19944, Control_c, 0, 64, 127
2, 20004, Note_on_c, 0, 55, 60
2, 20196, Note_on_c, 0, 69, 73
2, 20198, Note_on_c, 0, 81, 76
2, 20209, Note_on_c, 0, 63, 58
2, 20212, Note_on_c, 0, 74, 54
2, 20213, Note_on_c, 0, 77, 0
2, 20225, Note_on_c, 0, 77, 55
2, 20567, Note_on_c, 0, 82, 76
2, 20568, Note_on_c, 0, 70, 86
2, 20939, Note_on_c, 0, 72, 82
2, 20946, Note_on_c, 0, 50, 67
2, 20959, Note_on_c, 0, 48, 0
2, 20962, Note_on_c, 0, 67, 0
2, 20962, Note_on_c, 0, 74, 0
2, 20962, Note_on_c, 0, 82, 0
2, 20962, Note_on_c, 0, 77, 0
2, 20963, Note_on_c, 0, 55, 0
2, 20963, Note_on_c, 0, 63, 0
2, 20963, Note_on_c, 0, 70, 0
2, 20971, Control_c, 0, 64, 0
2, 21012, Control_c, 0, 64, 127
2, 21122, Note_on_c, 0, 57, 65
2, 21314, Note_on_c, 0, 70, 80
2, 21315, Note_on_c, 0, 82, 79
2, 21317, Note_on_c, 0, 65, 65
2, 21356, Note_on_c, 0, 74, 52
2, 21363, Note_on_c, 0, 77, 52
2, 21373, Control_c, 0, 64, 0
2, 21603, Control_c, 0, 64, 127
2, 21672, Note_on_c, 0, 69, 0
2, 21681, Note_on_c, 0, 69, 82
2, 22063, Note_on_c, 0, 67, 83
2, 22068, Note_on_c, 0, 55, 65
2, 22085, Note_on_c, 0, 81, 0
2, 22085, Control_c, 0, 64, 0
2, 22085, Note_on_c, 0, 82, 0
2, 22086, Note_on_c, 0, 72, 0
2, 22086, Note_on_c, 0, 57, 0
2, 22086, Note_on_c, 0, 50, 0
2, 22087, Note_on_c, 0, 77, 0
2, 22087, Note_on_c, 0, 69, 0
2, 22088, Note_on_c, 0, 65, 0
2, 22089, Note_on_c, 0, 70, 0
2, 22248, Control_c, 0, 64, 127
2, 22260, Note_on_c, 0, 65, 70
2, 22266, Note_on_c, 0, 60, 53
2, 22433, Note_on_c, 0, 67, 0
2, 22443, Note_on_c, 0, 67, 88
2, 22461, Note_on_c, 0, 62, 63
2, 22487, Control_c, 0, 64, 0
2, 22602, Control_c, 0, 64, 127
2, 22632, Note_on_c, 0, 74, 0
2, 22641, Note_on_c, 0, 74, 55
2, 22831, Note_on_c, 0, 79, 61
2, 23001, Note_on_c, 0, 82, 79
2, 23178, Note_on_c, 0, 55, 0
2, 23182, Note_on_c, 0, 55, 59
2, 23187, Note_on_c, 0, 81, 78
2, 23221, Note_on_c, 0, 60, 0
2, 23222, Note_on_c, 0, 65, 0
2, 23232, Control_c, 0, 64, 0
2, 23316, Control_c, 0, 64, 127
2, 23348, Note_on_c, 0, 58, 62
2, 23370, Note_on_c, 0, 82, 0
2, 23378, Note_on_c, 0, 82, 75
2, 23546, Note_on_c, 0, 62, 0
2, 23546, Note_on_c, 0, 81, 0
2, 23551, Note_on_c, 0, 62, 59
2, 23557, Note_on_c, 0, 81, 67
2, 23733, Note_on_c, 0, 77, 76
2, 23907, Note_on_c, 0, 67, 0
2, 23915, Note_on_c, 0, 79, 0
2, 23919, Note_on_c, 0, 67, 86
2, 23919, Note_on_c, 0, 79, 82
2, 23930, Note_on_c, 0, 62, 0
2, 23935, Note_on_c, 0, 62, 40
2, 23938, Note_on_c, 0, 58, 0
2, 23949, Note_on_c, 0, 58, 43
2, 23976, Control_c, 0, 64, 0
2, 24076, Control_c, 0, 64, 127
2, 24299, Note_on_c, 0, 74, 0
2, 24309, Note_on_c, 0, 74, 92
2, 24312, Note_on_c, 0, 48, 69
2, 24325, Note_on_c, 0, 62, 0
2, 24325, Note_on_c, 0, 81, 0
2, 24325, Note_on_c, 0, 82, 0
2, 24326, Note_on_c, 0, 79, 0
2, 24326, Note_on_c, 0, 58, 0
2, 24326, Note_on_c, 0, 77, 0
2, 24326, Note_on_c, 0, 67, 0
2, 24332, Control_c, 0, 64, 0
2, 24345, Note_on_c, 0, 55, 0
2, 24437, Control_c, 0, 64, 127
2, 24491, Note_on_c, 0, 55, 65
2, 24689, Note_on_c, 0, 86, 88
2, 24694, Note_on_c, 0, 75, 62
2, 24698, Note_on_c, 0, 63, 58
2, 24698, Note_on_c, 0, 75, 0
2, 25061, Note_on_c, 0, 72, 90
2, 25448, Note_on_c, 0, 70, 86
2, 25450, Note_on_c, 0, 50, 71
2, 25477, Note_on_c, 0, 63, 0
2, 25477, Note_on_c, 0, 55, 0
2, 25477, Note_on_c, 0, 48, 0
2, 25478, Note_on_c, 0, 72, 0
2, 25478, Note_on_c, 0, 86, 0
2, 25478, Control_c, 0, 64, 0
2, 25489, Note_on_c, 0, 74, 0
2, 25559, Control_c, 0, 64, 127
2, 25638, Note_on_c, 0, 57, 57
2, 25822, Note_on_c, 0, 82, 79
2, 25838, Note_on_c, 0, 65, 55
2, 25862, Note_on_c, 0, 74, 48
2, 25864, Note_on_c, 0, 77, 48
2, 26206, Note_on_c, 0, 69, 84
2, 26591, Note_on_c, 0, 51, 63
2, 26591, Note_on_c, 0, 67, 85
2, 26615, Control_c, 0, 64, 0
2, 26627, Note_on_c, 0, 50, 0
2, 26627, Note_on_c, 0, 82, 0
2, 26627, Note_on_c, 0, 57, 0
2, 26627, Note_on_c, 0, 65, 0
2, 26628, Note_on_c, 0, 77, 0
2, 26628, Note_on_c, 0, 70, 0
2, 26628, Note_on_c, 0, 74, 0
2, 26629, Note_on_c, 0, 69, 0
2, 26726, Control_c, 0, 64, 127
2, 26790, Note_on_c, 0, 58, 62
2, 26970, Note_on_c, 0, 81, 84
2, 26973, Note_on_c, 0, 74, 67
2, 26975, Note_on_c, 0, 69, 71
2, 26976, Note_on_c, 0, 63, 53
2, 26976, Note_on_c, 0, 77, 66
2, 27335, Note_on_c, 0, 70, 88
2, 27706, Note_on_c, 0, 72, 89
2, 27721, Note_on_c, 0, 53, 63
2, 27745, Control_c, 0, 64, 0
2, 27748, Note_on_c, 0, 81, 0
2, 27748, Note_on_c, 0, 51, 0
2, 27749, Note_on_c, 0, 74, 0
2, 27749, Note_on_c, 0, 69, 0
2, 27749, Note_on_c, 0, 58, 0
2, 27750, Note_on_c, 0, 70, 0
2, 27750, Note_on_c, 0, 67, 0
2, 27755, Note_on_c, 0, 63, 0
2, 27809, Control_c, 0, 64, 127
2, 27890, Note_on_c, 0, 60, 55
2, 28072, Note_on_c, 0, 70, 80
2, 28078, Note_on_c, 0, 82, 76
2, 28093, Note_on_c, 0, 77, 0
2, 28099, Note_on_c, 0, 74, 60
2, 28100, Note_on_c, 0, 77, 58
2, 28101, Note_on_c, 0, 65, 60
2, 28451, Note_on_c, 0, 69, 82
2, 28841, Note_on_c, 0, 67, 85
2, 28842, Note_on_c, 0, 43, 63
2, 28849, Note_on_c, 0, 69, 0
2, 28849, Note_on_c, 0, 65, 0
2, 28849, Note_on_c, 0, 82, 0
2, 28849, Note_on_c, 0, 72, 0
2, 28849, Note_on_c, 0, 74, 0
2, 28849, Note_on_c, 0, 53, 0
2, 28849, Note_on_c, 0, 60, 0
2, 28850, Note_on_c, 0, 70, 0
2, 28850, Note_on_c, 0, 77, 0
2, 28854, Control_c, 0, 64, 0
2, 28953, Control_c, 0, 64, 127
2, 29027, Note_on_c, 0, 50, 63
2, 29030, Note_on_c, 0, 65, 68
2, 29199, Note_on_c, 0, 67, 0
2, 29208, Note_on_c, 0, 67, 85
2, 29210, Note_on_c, 0, 55, 67
2, 29402, Note_on_c, 0, 60, 57
2, 29403, Note_on_c, 0, 72, 70
2, 29586, Note_on_c, 0, 74, 66
2, 29590, Note_on_c, 0, 62, 61
2, 29773, Note_on_c, 0, 77, 73
2, 29944, Note_on_c, 0, 43, 0
2, 29954, Note_on_c, 0, 79, 79
2, 29954, Note_on_c, 0, 43, 64
2, 29980, Control_c, 0, 64, 0
2, 29982, Note_on_c, 0, 55, 0
2, 29985, Note_on_c, 0, 67, 0
2, 29986, Note_on_c, 0, 74, 0
2, 29986, Note_on_c, 0, 72, 0
2, 29986, Note_on_c, 0, 50, 0
2, 29986, Note_on_c, 0, 65, 0
2, 29987, Note_on_c, 0, 62, 0
2, 29987, Note_on_c, 0, 60, 0
2, 29987, Note_on_c, 0, 77, 0
2, 30067, Control_c, 0, 64, 127
2, 30145, Note_on_c, 0, 50, 61
2, 30319, Note_on_c, 0, 55, 64
2, 30514, Note_on_c, 0, 58, 53
2, 30698, Note_on_c, 0, 67, 82
2, 30706, Note_on_c, 0, 62, 58
2, 31080, Note_on_c, 0, 67, 0
2, 31086, Note_on_c, 0, 67, 92
2, 31093, Note_on_c, 0, 62, 0
2, 31093, Note_on_c, 0, 50, 0
2, 31095, Note_on_c, 0, 58, 0
2, 31095, Note_on_c, 0, 55, 0
2, 31096, Note_on_c, 0, 79, 0
2, 31097, Note_on_c, 0, 43, 0
2, 31098, Control_c, 0, 64, 0
2, 31098, Note_on_c, 0, 44, 77
2, 31180, Control_c, 0, 64, 127
2, 31264, Note_on_c, 0, 51, 61
2, 31271, Note_on_c, 0, 75, 62
2, 31448, Note_on_c, 0, 56, 59
2, 31453, Note_on_c, 0, 80, 75
2, 31644, Note_on_c, 0, 84, 77
2, 31652, Note_on_c, 0, 60, 53
2, 31825, Note_on_c, 0, 77, 75
2, 31827, Note_on_c, 0, 65, 81
2, 31830, Note_on_c, 0, 87, 78
2, 32002, Note_on_c, 0, 51, 0
2, 32013, Note_on_c, 0, 51, 60
2, 32022, Note_on_c, 0, 91, 77
2, 32197, Note_on_c, 0, 63, 84
2, 32363, Note_on_c, 0, 51, 0
2, 32374, Note_on_c, 0, 51, 61
2, 32563, Note_on_c, 0, 56, 0
2, 32570, Note_on_c, 0, 56, 73
2, 32744, Note_on_c, 0, 62, 84
2, 32924, Note_on_c, 0, 60, 0
2, 32934, Note_on_c, 0, 60, 89
2, 33116, Note_on_c, 0, 51, 0
2, 33120, Note_on_c, 0, 51, 67
2, 33247, Note_on_c, 0, 62, 0
2, 33248, Note_on_c, 0, 91, 0
2, 33249, Note_on_c, 0, 87, 0
2, 33249, Note_on_c, 0, 65, 0
2, 33249, Note_on_c, 0, 80, 0
2, 33249, Note_on_c, 0, 77, 0
2, 33249, Note_on_c, 0, 56, 0
2, 33250, Control_c, 0, 64, 0
2, 33250, Note_on_c, 0, 84, 0
2, 33250, Note_on_c, 0, 75, 0
2, 33250, Note_on_c, 0, 51, 0
2, 33250, Note_on_c, 0, 63, 0
2, 33251, Note_on_c, 0, 60, 0
2, 33251, Note_on_c, 0, 44, 0
2, 33262, Note_on_c, 0, 67, 0
2, 33313, Note_on_c, 0, 67, 88
2, 33315, Note_on_c, 0, 41, 75
2, 33461, Control_c, 0, 64, 127
2, 33504, Note_on_c, 0, 75, 69
2, 33507, Note_on_c, 0, 51, 54
2, 33680, Note_on_c, 0, 80, 74
2, 33681, Note_on_c, 0, 56, 63
2, 33855, Note_on_c, 0, 84, 73
2, 33869, Note_on_c, 0, 60, 57
2, 34042, Note_on_c, 0, 87, 79
2, 34042, Note_on_c, 0, 65, 78
2, 34214, Note_on_c, 0, 51, 0
2, 34225, Note_on_c, 0, 51, 54
2, 34229, Note_on_c, 0, 91, 73
2, 34406, Note_on_c, 0, 63, 87
2, 34575, Note_on_c, 0, 51, 0
2, 34585, Note_on_c, 0, 51, 67
2, 34767, Note_on_c, 0, 56, 0
2, 34778, Note_on_c, 0, 56, 69
2, 34939, Note_on_c, 0, 62, 86
2, 35128, Note_on_c, 0, 60, 0
2, 35135, Note_on_c, 0, 60, 86
2, 35312, Note_on_c, 0, 51, 0
2, 35320, Note_on_c, 0, 51, 68
2, 35493, Note_on_c, 0, 41, 0
2, 35494, Note_on_c, 0, 80, 0
2, 35494, Note_on_c, 0, 51, 0
2, 35495, Note_on_c, 0, 67, 0
2, 35495, Note_on_c, 0, 56, 0
2, 35495, Note_on_c, 0, 87, 0
2, 35496, Note_on_c, 0, 91, 0
2, 35496, Note_on_c, 0, 75, 0
2, 35496, Note_on_c, 0, 63, 0
2, 35496, Note_on_c, 0, 62, 0
2, 35497, Note_on_c, 0, 65, 0
2, 35498, Note_on_c, 0, 84, 0
2, 35498, Note_on_c, 0, 60, 0
2, 35499, Control_c, 0, 64, 0
2, 35507, Note_on_c, 0, 62, 88
2, 35508, Note_on_c, 0, 43, 74
2, 35619, Control_c, 0, 64, 127
2, 35694, Note_on_c, 0, 60, 74
2, 35697, Note_on_c, 0, 50, 67
2, 35873, Note_on_c, 0, 62, 0
2, 35878, Note_on_c, 0, 62, 93
2, 35881, Note_on_c, 0, 55, 67
2, 36067, Note_on_c, 0, 67, 70
2, 36076, Note_on_c, 0, 58, 61
2, 36245, Note_on_c, 0, 70, 76
2, 36418, Note_on_c, 0, 50, 0
2, 36424, Note_on_c, 0, 74, 71
2, 36425, Note_on_c, 0, 50, 61
2, 36600, Note_on_c, 0, 79, 77
2, 36781, Note_on_c, 0, 82, 79
2, 36787, Note_on_c, 0, 50, 0
2, 36791, Note_on_c, 0, 50, 59
2, 36961, Note_on_c, 0, 86, 87
2, 36979, Note_on_c, 0, 55, 0
2, 36985, Note_on_c, 0, 55, 55
2, 37148, Note_on_c, 0, 58, 0
2, 37152, Note_on_c, 0, 91, 80
2, 37157, Note_on_c, 0, 58, 62
2, 37332, Note_on_c, 0, 67, 0
2, 37337, Note_on_c, 0, 67, 91
2, 37509, Note_on_c, 0, 50, 0
2, 37518, Note_on_c, 0, 50, 57
2, 37708, Note_on_c, 0, 67, 0
2, 37713, Note_on_c, 0, 67, 90
2, 37718, Control_c, 0, 64, 0
2, 37719, Note_on_c, 0, 44, 76
2, 37721, Note_on_c, 0, 79, 0
2, 37721, Note_on_c, 0, 50, 0
2, 37721, Note_on_c, 0, 82, 0
2, 37721, Note_on_c, 0, 74, 0
2, 37721, Note_on_c, 0, 55, 0
2, 37721, Note_on_c, 0, 62, 0
2, 37721, Note_on_c, 0, 86, 0
2, 37721, Note_on_c, 0, 91, 0
2, 37722, Note_on_c, 0, 70, 0
2, 37723, Note_on_c, 0, 60, 0
2, 37739, Note_on_c, 0, 43, 0
2, 37739, Note_on_c, 0, 58, 0
2, 37816, Control_c, 0, 64, 127
2, 37888, Note_on_c, 0, 51, 59
2, 37916, Note_on_c, 0, 75, 55
2, 38081, Note_on_c, 0, 80, 69
2, 38082, Note_on_c, 0, 56, 65
2, 38258, Note_on_c, 0, 60, 65
2, 38259, Note_on_c, 0, 84, 66
2, 38436, Note_on_c, 0, 65, 79
2, 38439, Note_on_c, 0, 87, 79
2, 38615, Note_on_c, 0, 51, 0
2, 38623, Note_on_c, 0, 51, 59
2, 38625, Note_on_c, 0, 91, 75
2, 38808, Note_on_c, 0, 63, 90
2, 38976, Note_on_c, 0, 51, 0
2, 38981, Note_on_c, 0, 51, 67
2, 39152, Note_on_c, 0, 56, 0
2, 39160, Note_on_c, 0, 56, 72
2, 39183, Note_on_c, 0, 44, 0
2, 39343, Note_on_c, 0, 62, 87
2, 39521, Note_on_c, 0, 60, 0
2, 39531, Note_on_c, 0, 60, 86
2, 39705, Note_on_c, 0, 51, 0
2, 39715, Note_on_c, 0, 51, 74
2, 39869, Note_on_c, 0, 91, 0
2, 39869, Note_on_c, 0, 80, 0
2, 39869, Note_on_c, 0, 75, 0
2, 39869, Note_on_c, 0, 87, 0
2, 39869, Note_on_c, 0, 62, 0
2, 39870, Note_on_c, 0, 51, 0
2, 39870, Note_on_c, 0, 56, 0
2, 39870, Note_on_c, 0, 65, 0
2, 39870, Note_on_c, 0, 84, 0
2, 39870, Note_on_c, 0, 63, 0
2, 39870, Control_c, 0, 64, 0
2, 39870, Note_on_c, 0, 60, 0
2, 39882, Note_on_c, 0, 67, 0
2, 39901, Note_on_c, 0, 41, 78
2, 39902, Note_on_c, 0, 67, 91
2, 39966, Control_c, 0, 64, 127
2, 40085, Note_on_c, 0, 75, 75
2, 40101, Note_on_c, 0, 51, 59
2, 40269, Note_on_c, 0, 80, 72
2, 40272, Note_on_c, 0, 56, 58
2, 40454, Note_on_c, 0, 84, 69
2, 40461, Note_on_c, 0, 60, 50
2, 40631, Note_on_c, 0, 87, 82
2, 40631, Note_on_c, 0, 68, 86
2, 40811, Note_on_c, 0, 51, 0
2, 40815, Note_on_c, 0, 91, 77
2, 40822, Note_on_c, 0, 51, 62
2, 41016, Note_on_c, 0, 70, 92
2, 41172, Note_on_c, 0, 51, 0
2, 41177, Note_on_c, 0, 51, 56
2, 41364, Note_on_c, 0, 56, 0
2, 41369, Note_on_c, 0, 56, 72
2, 41548, Note_on_c, 0, 60, 0
2, 41554, Note_on_c, 0, 60, 78
2, 41729, Note_on_c, 0, 72, 90
2, 41886, Note_on_c, 0, 51, 0
2, 41896, Note_on_c, 0, 51, 57
2, 42111, Note_on_c, 0, 74, 98
2, 42117, Note_on_c, 0, 67, 0
2, 42117, Note_on_c, 0, 72, 0
2, 42121, Note_on_c, 0, 72, 80
2, 42124, Note_on_c, 0, 67, 79
2, 42128, Note_on_c, 0, 43, 70
2, 42129, Note_on_c, 0, 87, 0
2, 42131, Note_on_c, 0, 41, 0
2, 42131, Note_on_c, 0, 84, 0
2, 42131, Note_on_c, 0, 68, 0
2, 42131, Note_on_c, 0, 60, 0
2, 42132, Note_on_c, 0, 70, 0
2, 42132, Note_on_c, 0, 51, 0
2, 42133, Note_on_c, 0, 75, 0
2, 42133, Note_on_c, 0, 91, 0
2, 42133, Note_on_c, 0, 80, 0
2, 42134, Note_on_c, 0, 56, 0
2, 42136, Control_c, 0, 64, 0
2, 42224, Control_c, 0, 64, 127
2, 42290, Note_on_c, 0, 50, 60
2, 42470, Note_on_c, 0, 67, 0
2, 42470, Note_on_c, 0, 72, 0
2, 42470, Note_on_c, 0, 74, 0
2, 42477, Note_on_c, 0, 74, 89
2, 42479, Note_on_c, 0, 67, 84
2, 42479, Note_on_c, 0, 55, 76
2, 42480, Note_on_c, 0, 72, 80
2, 42491, Control_c, 0, 64, 0
2, 42554, Control_c, 0, 64, 127
2, 42667, Note_on_c, 0, 79, 69
2, 42674, Note_on_c, 0, 60, 46
2, 42844, Note_on_c, 0, 86, 83
2, 42844, Note_on_c, 0, 62, 57
2, 43043, Note_on_c, 0, 91, 75
2, 43200, Note_on_c, 0, 43, 0
2, 43205, Note_on_c, 0, 43, 75
2, 43384, Note_on_c, 0, 50, 0
2, 43384, Note_on_c, 0, 67, 0
2, 43389, Note_on_c, 0, 50, 65
2, 43392, Note_on_c, 0, 67, 72
2, 43553, Note_on_c, 0, 55, 0
2, 43560, Note_on_c, 0, 74, 0
2, 43564, Note_on_c, 0, 55, 70
2, 43566, Note_on_c, 0, 74, 71
2, 43737, Note_on_c, 0, 60, 0
2, 43737, Note_on_c, 0, 79, 0
2, 43742, Note_on_c, 0, 79, 79
2, 43746, Note_on_c, 0, 60, 68
2, 43921, Note_on_c, 0, 62, 0
2, 43921, Note_on_c, 0, 86, 0
2, 43932, Note_on_c, 0, 62, 74
2, 43932, Note_on_c, 0, 86, 87
2, 44121, Note_on_c, 0, 91, 0
2, 44132, Note_on_c, 0, 91, 74
2, 44290, Note_on_c, 0, 43, 0
2, 44296, Note_on_c, 0, 43, 86
2, 44308, Control_c, 0, 64, 0
2, 44428, Control_c, 0, 64, 127
2, 44482, Note_on_c, 0, 50, 0
2, 44482, Note_on_c, 0, 67, 0
2, 44486, Note_on_c, 0, 67, 74
2, 44487, Note_on_c, 0, 50, 70
2, 44651, Note_on_c, 0, 55, 0
2, 44651, Note_on_c, 0, 74, 0
2, 44662, Note_on_c, 0, 74, 78
2, 44663, Note_on_c, 0, 55, 71
2, 44820, Note_on_c, 0, 79, 0
2, 44829, Note_on_c, 0, 79, 82
2, 44831, Note_on_c, 0, 59, 81
2, 45012, Note_on_c, 0, 62, 0
2, 45012, Note_on_c, 0, 86, 0
2, 45017, Note_on_c, 0, 62, 81
2, 45022, Note_on_c, 0, 86, 91
2, 45196, Note_on_c, 0, 91, 0
2, 45203, Note_on_c, 0, 91, 83
2, 45358, Note_on_c, 0, 43, 0
2, 45365, Note_on_c, 0, 43, 99
2, 45542, Note_on_c, 0, 50, 0
2, 45542, Note_on_c, 0, 67, 0
2, 45550, Note_on_c, 0, 79, 0
2, 45552, Note_on_c, 0, 50, 84
2, 45553, Note_on_c, 0, 67, 83
2, 45553, Note_on_c, 0, 79, 79
2, 45703, Note_on_c, 0, 55, 0
2, 45711, Note_on_c, 0, 74, 0
2, 45714, Note_on_c, 0, 55, 79
2, 45718, Note_on_c, 0, 74, 83
2, 45888, Note_on_c, 0, 59, 0
2, 45894, Note_on_c, 0, 59, 83
2, 45911, Note_on_c, 0, 79, 0
2, 45918, Note_on_c, 0, 79, 93
2, 46080, Note_on_c, 0, 55, 0
2, 46084, Note_on_c, 0, 55, 78
2, 46087, Note_on_c, 0, 74, 0
2, 46087, Note_on_c, 0, 86, 0
2, 46092, Note_on_c, 0, 86, 107
2, 46096, Note_on_c, 0, 74, 102
2, 46256, Note_on_c, 0, 50, 0
2, 46266, Note_on_c, 0, 50, 83
2, 46464, Note_on_c, 0, 86, 0
2, 46467, Control_c, 0, 64, 0
2, 46467, Note_on_c, 0, 62, 0
2, 46467, Note_on_c, 0, 50, 0
2, 46467, Note_on_c, 0, 60, 0
2, 46467, Note_on_c, 0, 59, 0
2, 46468, Note_on_c, 0, 72, 0
2, 46468, Note_on_c, 0, 91, 0
2, 46468, Note_on_c, 0, 67, 0
2, 46468, Note_on_c, 0, 55, 0
2, 46468, Note_on_c, 0, 43, 0
2, 46468, Note_on_c, 0, 79, 0
2, 46471, Note_on_c, 0, 74, 0
2, 46474, Note_on_c, 0, 86, 108
2, 46481, Note_on_c, 0, 34, 98
2, 46482, Note_on_c, 0, 74, 104
2, 46482, Note_on_c, 0, 77, 101
2, 46483, Note_on_c, 0, 82, 95
2, 46556, Control_c, 0, 64, 127
2, 46671, Note_on_c, 0, 46, 75
2, 46854, Note_on_c, 0, 50, 76
2, 47034, Note_on_c, 0, 53, 82
2, 47208, Note_on_c, 0, 74, 0
2, 47208, Note_on_c, 0, 86, 0
2, 47216, Note_on_c, 0, 86, 103
2, 47219, Note_on_c, 0, 58, 89
2, 47220, Note_on_c, 0, 74, 101
2, 47385, Note_on_c, 0, 46, 0
2, 47392, Note_on_c, 0, 46, 81
2, 47564, Note_on_c, 0, 34, 0
2, 47566, Note_on_c, 0, 58, 0
2, 47566, Note_on_c, 0, 53, 0
2, 47566, Note_on_c, 0, 74, 0
2, 47566, Note_on_c, 0, 46, 0
2, 47566, Note_on_c, 0, 86, 0
2, 47566, Note_on_c, 0, 50, 0
2, 47566, Note_on_c, 0, 82, 0
2, 47567, Control_c, 0, 64, 0
2, 47586, Note_on_c, 0, 84, 106
2, 47592, Note_on_c, 0, 72, 102
2, 47592, Note_on_c, 0, 77, 0
2, 47593, Note_on_c, 0, 29, 95
2, 47596, Note_on_c, 0, 81, 97
2, 47597, Note_on_c, 0, 77, 94
2, 47646, Control_c, 0, 64, 127
2, 47738, Note_on_c, 0, 29, 0
2, 47779, Note_on_c, 0, 48, 75
2, 47956, Note_on_c, 0, 53, 78
2, 48136, Note_on_c, 0, 57, 78
2, 48141, Note_on_c, 0, 82, 95
2, 48143, Note_on_c, 0, 70, 87
2, 48322, Note_on_c, 0, 81, 0
2, 48324, Note_on_c, 0, 60, 83
2, 48327, Note_on_c, 0, 81, 100
2, 48331, Note_on_c, 0, 69, 91
2, 48483, Note_on_c, 0, 48, 0
2, 48490, Note_on_c, 0, 48, 74
2, 48677, Note_on_c, 0, 82, 0
2, 48678, Note_on_c, 0, 84, 0
2, 48678, Note_on_c, 0, 77, 0
2, 48678, Note_on_c, 0, 48, 0
2, 48678, Note_on_c, 0, 53, 0
2, 48679, Note_on_c, 0, 70, 0
2, 48679, Note_on_c, 0, 57, 0
2, 48679, Note_on_c, 0, 81, 0
2, 48679, Note_on_c, 0, 60, 0
2, 48679, Control_c, 0, 64, 0
2, 48679, Note_on_c, 0, 69, 0
2, 48691, Note_on_c, 0, 72, 0
2, 48694, Note_on_c, 0, 76, 97
2, 48694, Note_on_c, 0, 79, 103
2, 48697, Note_on_c, 0, 72, 90
2, 48702, Note_on_c, 0, 67, 93
2, 48705, Note_on_c, 0, 24, 94
2, 48709, Note_on_c, 0, 36, 88
2, 48806, Note_on_c, 0, 24, 0
2, 48821, Control_c, 0, 64, 127
2, 48895, Note_on_c, 0, 43, 72
2, 49058, Note_on_c, 0, 48, 74
2, 49248, Note_on_c, 0, 52, 77
2, 49420, Note_on_c, 0, 79, 0
2, 49428, Note_on_c, 0, 67, 0
2, 49428, Note_on_c, 0, 79, 97
2, 49430, Note_on_c, 0, 55, 71
2, 49433, Note_on_c, 0, 67, 84
2, 49596, Note_on_c, 0, 60, 80
2, 49789, Note_on_c, 0, 79, 0
2, 49797, Note_on_c, 0, 67, 0
2, 49800, Note_on_c, 0, 79, 99
2, 49800, Note_on_c, 0, 64, 86
2, 49803, Note_on_c, 0, 67, 87
2, 49973, Note_on_c, 0, 60, 0
2, 49978, Note_on_c, 0, 60, 75
2, 50142, Note_on_c, 0, 55, 0
2, 50148, Note_on_c, 0, 55, 73
2, 50334, Note_on_c, 0, 52, 0
2, 50338, Note_on_c, 0, 52, 74
2, 50519, Note_on_c, 0, 48, 0
2, 50524, Note_on_c, 0, 86, 105
2, 50528, Note_on_c, 0, 74, 100
2, 50529, Note_on_c, 0, 48, 67
2, 50695, Note_on_c, 0, 43, 0
2, 50702, Note_on_c, 0, 43, 82
2, 50887, Note_on_c, 0, 74, 0
2, 50887, Note_on_c, 0, 86, 0
2, 50890, Note_on_c, 0, 64, 0
2, 50891, Note_on_c, 0, 60, 0
2, 50891, Note_on_c, 0, 67, 0
2, 50892, Note_on_c, 0, 52, 0
2, 50892, Note_on_c, 0, 55, 0
2, 50892, Note_on_c, 0, 72, 0
2, 50892, Note_on_c, 0, 43, 0
2, 50892, Note_on_c, 0, 36, 0
2, 50895, Note_on_c, 0, 79, 0
2, 50895, Note_on_c, 0, 86, 108
2, 50897, Control_c, 0, 64, 0
2, 50898, Note_on_c, 0, 74, 105
2, 50901, Note_on_c, 0, 39, 96
2, 50901, Note_on_c, 0, 27, 100
2, 50903, Note_on_c, 0, 76, 0
2, 50906, Note_on_c, 0, 79, 99
2, 50907, Note_on_c, 0, 82, 98
2, 50918, Note_on_c, 0, 48, 0
2, 50949, Control_c, 0, 64, 127
2, 51096, Note_on_c, 0, 46, 76
2, 51275, Note_on_c, 0, 51, 72
2, 51443, Note_on_c, 0, 55, 74
2, 51632, Note_on_c, 0, 74, 0
2, 51632, Note_on_c, 0, 86, 0
2, 51637, Note_on_c, 0, 86, 100
2, 51637, Note_on_c, 0, 58, 83
2, 51641, Note_on_c, 0, 74, 97
2, 51809, Note_on_c, 0, 46, 0
2, 51814, Note_on_c, 0, 46, 68
2, 51981, Control_c, 0, 64, 0
2, 51982, Note_on_c, 0, 86, 0
2, 51983, Note_on_c, 0, 79, 0
2, 51983, Note_on_c, 0, 39, 0
2, 51983, Note_on_c, 0, 27, 0
2, 51983, Note_on_c, 0, 74, 0
2, 51984, Note_on_c, 0, 51, 0
2, 51984, Note_on_c, 0, 46, 0
2, 51984, Note_on_c, 0, 58, 0
2, 51985, Note_on_c, 0, 55, 0
2, 52011, Note_on_c, 0, 84, 104
2, 52012, Note_on_c, 0, 72, 102
2, 52024, Note_on_c, 0, 82, 0
2, 52025, Note_on_c, 0, 77, 93
2, 52026, Note_on_c, 0, 81, 97
2, 52027, Note_on_c, 0, 41, 95
2, 52027, Note_on_c, 0, 29, 93
2, 52055, Control_c, 0, 64, 127
2, 52216, Note_on_c, 0, 48, 57
2, 52224, Note_on_c, 0, 41, 0
2, 52235, Note_on_c, 0, 41, 73
2, 52388, Note_on_c, 0, 53, 79
2, 52572, Note_on_c, 0, 57, 76
2, 52573, Note_on_c, 0, 70, 87
2, 52573, Note_on_c, 0, 82, 87
2, 52746, Note_on_c, 0, 81, 0
2, 52753, Note_on_c, 0, 41, 0
2, 52753, Note_on_c, 0, 48, 0
2, 52757, Note_on_c, 0, 81, 100
2, 52758, Note_on_c, 0, 41, 64
2, 52758, Note_on_c, 0, 60, 78
2, 52759, Note_on_c, 0, 48, 67
2, 52762, Note_on_c, 0, 69, 87
2, 52922, Note_on_c, 0, 48, 0
2, 52932, Note_on_c, 0, 48, 67
2, 53088, Control_c, 0, 64, 0
2, 53091, Note_on_c, 0, 48, 0
2, 53092, Note_on_c, 0, 41, 0
2, 53093, Note_on_c, 0, 84, 0
2, 53093, Note_on_c, 0, 53, 0
2, 53093, Note_on_c, 0, 77, 0
2, 53093, Note_on_c, 0, 69, 0
2, 53093, Note_on_c, 0, 72, 0
2, 53093, Note_on_c, 0, 81, 0
2, 53093, Note_on_c, 0, 57, 0
2, 53094, Note_on_c, 0, 82, 0
2, 53094, Note_on_c, 0, 70, 0
2, 53094, Note_on_c, 0, 60, 0
2, 53114, Note_on_c, 0, 29, 0
2, 53119, Note_on_c, 0, 79, 104
2, 53140, Note_on_c, 0, 67, 94
2, 53140, Note_on_c, 0, 74, 86
2, 53142, Note_on_c, 0, 43, 78
2, 53142, Note_on_c, 0, 72, 90
2, 53160, Control_c, 0, 64, 127
2, 53326, Note_on_c, 0, 48, 59
2, 53511, Note_on_c, 0, 50, 62
2, 53675, Note_on_c, 0, 55, 59
2, 53867, Note_on_c, 0, 79, 0
2, 53876, Note_on_c, 0, 79, 93
2, 53877, Note_on_c, 0, 60, 70
2, 54052, Note_on_c, 0, 62, 74
2, 54243, Note_on_c, 0, 79, 0
2, 54249, Note_on_c, 0, 79, 99
2, 54251, Note_on_c, 0, 67, 0
2, 54255, Control_c, 0, 64, 0
2, 54257, Note_on_c, 0, 48, 0
2, 54258, Note_on_c, 0, 62, 0
2, 54258, Note_on_c, 0, 60, 0
2, 54259, Note_on_c, 0, 50, 0
2, 54259, Note_on_c, 0, 72, 0
2, 54260, Note_on_c, 0, 55, 0
2, 54261, Note_on_c, 0, 67, 83
2, 54266, Note_on_c, 0, 43, 0
2, 54266, Note_on_c, 0, 74, 0
2, 54270, Note_on_c, 0, 71, 82
2, 54270, Note_on_c, 0, 74, 71
2, 54278, Note_on_c, 0, 43, 76
2, 54328, Control_c, 0, 64, 127
2, 54440, Note_on_c, 0, 62, 76
2, 54615, Note_on_c, 0, 59, 74
2, 54783, Note_on_c, 0, 55, 66
2, 54981, Note_on_c, 0, 79, 0
2, 54985, Note_on_c, 0, 50, 62
2, 54985, Note_on_c, 0, 79, 102
2, 55165, Note_on_c, 0, 47, 54
2, 55357, Note_on_c, 0, 79, 0
2, 55365, Note_on_c, 0, 67, 0
2, 55367, Note_on_c, 0, 79, 101
2, 55376, Note_on_c, 0, 67, 81
2, 55377, Note_on_c, 0, 75, 82
2, 55378, Note_on_c, 0, 39, 69
2, 55386, Note_on_c, 0, 70, 79
2, 55399, Note_on_c, 0, 71, 0
2, 55400, Control_c, 0, 64, 0
2, 55400, Note_on_c, 0, 50, 0
2, 55400, Note_on_c, 0, 55, 0
2, 55400, Note_on_c, 0, 59, 0
2, 55400, Note_on_c, 0, 62, 0
2, 55401, Note_on_c, 0, 74, 0
2, 55401, Note_on_c, 0, 43, 0
2, 55402, Note_on_c, 0, 47, 0
2, 55480, Control_c, 0, 64, 127
2, 55553, Note_on_c, 0, 46, 64
2, 55553, Note_on_c, 0, 77, 79
2, 55726, Note_on_c, 0, 79, 0
2, 55730, Note_on_c, 0, 79, 102
2, 55741, Note_on_c, 0, 75, 0
2, 55750, Note_on_c, 0, 51, 70
2, 55750, Note_on_c, 0, 75, 66
2, 55929, Note_on_c, 0, 82, 70
2, 55932, Note_on_c, 0, 55, 63
2, 56108, Note_on_c, 0, 87, 79
2, 56109, Note_on_c, 0, 58, 57
2, 56274, Note_on_c, 0, 89, 78
2, 56277, Note_on_c, 0, 63, 67
2, 56463, Note_on_c, 0, 79, 0
2, 56463, Note_on_c, 0, 87, 0
2, 56464, Note_on_c, 0, 91, 88
2, 56468, Note_on_c, 0, 87, 81
2, 56471, Note_on_c, 0, 67, 0
2, 56473, Note_on_c, 0, 79, 78
2, 56476, Note_on_c, 0, 67, 60
2, 56478, Note_on_c, 0, 58, 0
2, 56487, Note_on_c, 0, 58, 50
2, 56640, Note_on_c, 0, 63, 0
2, 56644, Note_on_c, 0, 63, 61
2, 56816, Note_on_c, 0, 70, 0
2, 56825, Note_on_c, 0, 70, 77
2, 57008, Note_on_c, 0, 67, 0
2, 57008, Note_on_c, 0, 79, 0
2, 57014, Note_on_c, 0, 67, 64
2, 57018, Note_on_c, 0, 79, 62
2, 57177, Note_on_c, 0, 63, 0
2, 57185, Note_on_c, 0, 63, 67
2, 57361, Note_on_c, 0, 58, 0
2, 57365, Note_on_c, 0, 58, 68
2, 57561, Note_on_c, 0, 79, 0
2, 57571, Note_on_c, 0, 79, 100
2, 57575, Note_on_c, 0, 72, 83
2, 57579, Note_on_c, 0, 81, 86
2, 57581, Note_on_c, 0, 69, 83
2, 57585, Note_on_c, 0, 41, 73
2, 57604, Control_c, 0, 64, 0
2, 57607, Note_on_c, 0, 55, 0
2, 57608, Note_on_c, 0, 58, 0
2, 57609, Note_on_c, 0, 67, 0
2, 57609, Note_on_c, 0, 46, 0
2, 57609, Note_on_c, 0, 39, 0
2, 57609, Note_on_c, 0, 63, 0
2, 57609, Note_on_c, 0, 70, 0
2, 57610, Note_on_c, 0, 51, 0
2, 57610, Note_on_c, 0, 77, 0
2, 57611, Note_on_c, 0, 87, 0
2, 57611, Note_on_c, 0, 75, 0
2, 57611, Note_on_c, 0, 89, 0
2, 57615, Note_on_c, 0, 91, 0
2, 57630, Note_on_c, 0, 82, 0
2, 57676, Control_c, 0, 64, 127
2, 57749, Note_on_c, 0, 77, 86
2, 57764, Note_on_c, 0, 48, 65
2, 57922, Note_on_c, 0, 79, 0
2, 57927, Note_on_c, 0, 79, 101
2, 57945, Note_on_c, 0, 41, 0
2, 57949, Note_on_c, 0, 41, 65
2, 57949, Note_on_c, 0, 53, 70
2, 58130, Note_on_c, 0, 57, 62
2, 58139, Note_on_c, 0, 84, 68
2, 58306, Note_on_c, 0, 89, 79
2, 58307, Note_on_c, 0, 60, 61
2, 58321, Note_on_c, 0, 81, 0
2, 58478, Note_on_c, 0, 65, 67
2, 58478, Note_on_c, 0, 91, 80
2, 58657, Note_on_c, 0, 93, 94
2, 58674, Note_on_c, 0, 81, 76
2, 58675, Note_on_c, 0, 69, 0
2, 58675, Note_on_c, 0, 84, 0
2, 58675, Note_on_c, 0, 89, 0
2, 58680, Note_on_c, 0, 84, 70
2, 58685, Note_on_c, 0, 89, 66
2, 58686, Note_on_c, 0, 69, 62
2, 58844, Note_on_c, 0, 65, 0
2, 58848, Note_on_c, 0, 65, 64
2, 59028, Note_on_c, 0, 72, 0
2, 59034, Note_on_c, 0, 72, 71
2, 59197, Note_on_c, 0, 69, 0
2, 59204, Note_on_c, 0, 69, 71
2, 59389, Note_on_c, 0, 65, 0
2, 59394, Note_on_c, 0, 65, 76
2, 59566, Note_on_c, 0, 60, 0
2, 59574, Note_on_c, 0, 60, 76
2, 59742, Note_on_c, 0, 79, 0
2, 59754, Note_on_c, 0, 79, 102
2, 59761, Note_on_c, 0, 67, 86
2, 59762, Note_on_c, 0, 43, 81
2, 59773, Note_on_c, 0, 72, 0
2, 59776, Note_on_c, 0, 74, 75
2, 59777, Note_on_c, 0, 72, 74
2, 59780, Control_c, 0, 64, 0
2, 59783, Note_on_c, 0, 41, 0
2, 59783, Note_on_c, 0, 84, 0
2, 59783, Note_on_c, 0, 91, 0
2, 59784, Note_on_c, 0, 89, 0
2, 59784, Note_on_c, 0, 48, 0
2, 59784, Note_on_c, 0, 93, 0
2, 59784, Note_on_c, 0, 57, 0
2, 59784, Note_on_c, 0, 69, 0
2, 59784, Note_on_c, 0, 60, 0
2, 59784, Note_on_c, 0, 53, 0
2, 59784, Note_on_c, 0, 65, 0
2, 59786, Note_on_c, 0, 77, 0
2, 59804, Note_on_c, 0, 81, 0
2, 59873, Control_c, 0, 64, 127
2, 59932, Note_on_c, 0, 50, 70
2, 59934, Note_on_c, 0, 77, 82
2, 60119, Note_on_c, 0, 79, 0
2, 60128, Note_on_c, 0, 79, 97
2, 60130, Note_on_c, 0, 55, 73
2, 60302, Note_on_c, 0, 60, 67
2, 60467, Note_on_c, 0, 62, 73
2, 60672, Note_on_c, 0, 67, 0
2, 60676, Note_on_c, 0, 67, 69
2, 60864, Note_on_c, 0, 55, 0
2, 60871, Note_on_c, 0, 55, 58
2, 61040, Note_on_c, 0, 67, 0
2, 61045, Note_on_c, 0, 91, 76
2, 61051, Note_on_c, 0, 67, 60
2, 61224, Note_on_c, 0, 62, 0
2, 61235, Note_on_c, 0, 89, 80
2, 61236, Note_on_c, 0, 62, 65
2, 61424, Note_on_c, 0, 60, 0
2, 61424, Note_on_c, 0, 91, 0
2, 61432, Note_on_c, 0, 60, 50
2, 61432, Note_on_c, 0, 91, 76
2, 61593, Note_on_c, 0, 55, 0
2, 61600, Note_on_c, 0, 55, 61
2, 61602, Note_on_c, 0, 86, 88
2, 61785, Note_on_c, 0, 50, 0
2, 61791, Note_on_c, 0, 50, 63
2, 61793, Note_on_c, 0, 84, 70
2, 61954, Note_on_c, 0, 43, 0
2, 61965, Note_on_c, 0, 43, 70
2, 61977, Note_on_c, 0, 82, 82
2, 61992, Note_on_c, 0, 74, 0
2, 61994, Control_c, 0, 64, 0
2, 62000, Note_on_c, 0, 74, 52
2, 62001, Note_on_c, 0, 72, 0
2, 62001, Note_on_c, 0, 62, 0
2, 62001, Note_on_c, 0, 89, 0
2, 62002, Note_on_c, 0, 55, 0
2, 62002, Note_on_c, 0, 91, 0
2, 62002, Note_on_c, 0, 77, 0
2, 62002, Note_on_c, 0, 86, 0
2, 62002, Note_on_c, 0, 50, 0
2, 62002, Note_on_c, 0, 67, 0
2, 62003, Note_on_c, 0, 84, 0
2, 62008, Note_on_c, 0, 79, 0
2, 62016, Note_on_c, 0, 60, 0
2, 62019, Note_on_c, 0, 79, 49
2, 62157, Note_on_c, 0, 50, 61
2, 62173, Note_on_c, 0, 81, 73
2, 62231, Control_c, 0, 64, 127
2, 62338, Note_on_c, 0, 79, 0
2, 62345, Note_on_c, 0, 79, 84
2, 62349, Note_on_c, 0, 55, 61
2, 62507, Note_on_c, 0, 58, 63
2, 62693, Note_on_c, 0, 62, 63
2, 62878, Note_on_c, 0, 67, 61
2, 63083, Note_on_c, 0, 55, 0
2, 63094, Note_on_c, 0, 55, 41
2, 64312, Note_on_c, 0, 67, 0
2, 64318, Note_on_c, 0, 67, 73
2, 64327, Note_on_c, 0, 43, 0
2, 64327, Note_on_c, 0, 58, 0
2, 64333, Note_on_c, 0, 43, 59
2, 64333, Note_on_c, 0, 58, 64
2, 64336, Note_on_c, 0, 51, 60
2, 64339, Note_on_c, 0, 63, 62
2, 64339, Control_c, 0, 64, 0
2, 64369, Note_on_c, 0, 50, 0
2, 64370, Note_on_c, 0, 79, 0
2, 64370, Note_on_c, 0, 81, 0
2, 64371, Note_on_c, 0, 55, 0
2, 64372, Note_on_c, 0, 82, 0
2, 64372, Note_on_c, 0, 62, 0
2, 64373, Note_on_c, 0, 74, 0
2, 64519, Note_on_c, 0, 58, 0
2, 64525, Note_on_c, 0, 58, 52
2, 64696, Note_on_c, 0, 63, 0
2, 64705, Note_on_c, 0, 63, 50
2, 64896, Note_on_c, 0, 67, 0
2, 64903, Note_on_c, 0, 67, 66
2, 65064, Note_on_c, 0, 58, 0
2, 65072, Control_c, 0, 64, 127
2, 65075, Note_on_c, 0, 58, 70
2, 65249, Note_on_c, 0, 51, 0
2, 65249, Note_on_c, 0, 63, 0
2, 65258, Note_on_c, 0, 63, 74
2, 65259, Note_on_c, 0, 51, 52
2, 65433, Note_on_c, 0, 67, 0
2, 65440, Note_on_c, 0, 67, 81
2, 65448, Note_on_c, 0, 58, 0
2, 65453, Note_on_c, 0, 58, 66
2, 65461, Control_c, 0, 64, 0
2, 65462, Note_on_c, 0, 55, 58
2, 65625, Note_on_c, 0, 63, 0
2, 65631, Note_on_c, 0, 63, 61
2, 65818, Note_on_c, 0, 69, 82
2, 65971, Control_c, 0, 64, 127
2, 65986, Note_on_c, 0, 63, 0
2, 65993, Note_on_c, 0, 63, 69
2, 66017, Control_c, 0, 64, 0
2, 66132, Control_c, 0, 64, 127
2, 66168, Note_on_c, 0, 70, 87
2, 66362, Note_on_c, 0, 63, 0
2, 66370, Note_on_c, 0, 63, 67
2, 66547, Note_on_c, 0, 67, 0
2, 66551, Note_on_c, 0, 67, 85
2, 66554, Note_on_c, 0, 55, 0
2, 66558, Control_c, 0, 64, 0
2, 66562, Note_on_c, 0, 43, 0
2, 66563, Note_on_c, 0, 69, 0
2, 66564, Note_on_c, 0, 70, 0
2, 66565, Note_on_c, 0, 63, 0
2, 66565, Note_on_c, 0, 55, 62
2, 66573, Note_on_c, 0, 52, 62
2, 66573, Note_on_c, 0, 64, 70
2, 66573, Note_on_c, 0, 43, 64
2, 66574, Note_on_c, 0, 60, 63
2, 66577, Note_on_c, 0, 51, 0
2, 66577, Note_on_c, 0, 58, 0
2, 66762, Note_on_c, 0, 60, 0
2, 66762, Control_c, 0, 64, 127
2, 66773, Note_on_c, 0, 60, 65
2, 66946, Note_on_c, 0, 64, 0
2, 66954, Note_on_c, 0, 64, 67
2, 67123, Note_on_c, 0, 67, 0
2, 67123, Control_c, 0, 64, 0
2, 67133, Note_on_c, 0, 67, 86
2, 67284, Control_c, 0, 64, 127
2, 67299, Note_on_c, 0, 60, 0
2, 67310, Note_on_c, 0, 60, 58
2, 67476, Note_on_c, 0, 64, 0
2, 67484, Note_on_c, 0, 52, 0
2, 67485, Note_on_c, 0, 64, 66
2, 67488, Note_on_c, 0, 52, 60
2, 67660, Note_on_c, 0, 67, 0
2, 67672, Note_on_c, 0, 67, 86
2, 67691, Note_on_c, 0, 55, 0
2, 67691, Note_on_c, 0, 60, 0
2, 67691, Control_c, 0, 64, 0
2, 67696, Note_on_c, 0, 55, 66
2, 67700, Note_on_c, 0, 60, 67
2, 67799, Control_c, 0, 64, 127
2, 67860, Note_on_c, 0, 64, 0
2, 67869, Note_on_c, 0, 64, 67
2, 68027, Note_on_c, 0, 69, 86
2, 68213, Note_on_c, 0, 64, 0
2, 68222, Note_on_c, 0, 64, 63
2, 68396, Note_on_c, 0, 70, 93
2, 68574, Note_on_c, 0, 64, 0
2, 68581, Note_on_c, 0, 64, 69
2, 68762, Note_on_c, 0, 58, 82
2, 68769, Note_on_c, 0, 69, 0
2, 68770, Note_on_c, 0, 65, 80
2, 68770, Note_on_c, 0, 60, 0
2, 68770, Note_on_c, 0, 43, 0
2, 68770, Note_on_c, 0, 52, 0
2, 68770, Note_on_c, 0, 70, 0
2, 68771, Note_on_c, 0, 55, 0
2, 68771, Note_on_c, 0, 64, 0
2, 68772, Control_c, 0, 64, 0
2, 68776, Note_on_c, 0, 53, 71
2, 68777, Note_on_c, 0, 41, 72
2, 68777, Note_on_c, 0, 50, 71
2, 68782, Note_on_c, 0, 67, 0
2, 68782, Note_on_c, 0, 62, 74
2, 68920, Control_c, 0, 64, 127
2, 68974, Note_on_c, 0, 58, 0
2, 68979, Note_on_c, 0, 58, 48
2, 69143, Note_on_c, 0, 62, 0
2, 69150, Note_on_c, 0, 62, 70
2, 69319, Note_on_c, 0, 65, 0
2, 69328, Note_on_c, 0, 65, 82
2, 69504, Note_on_c, 0, 58, 0
2, 69510, Note_on_c, 0, 58, 73
2, 69696, Note_on_c, 0, 50, 0
2, 69696, Note_on_c, 0, 62, 0
2, 69700, Note_on_c, 0, 50, 68
2, 69700, Note_on_c, 0, 62, 74
2, 69872, Note_on_c, 0, 62, 0
2, 69875, Note_on_c, 0, 70, 93
2, 69880, Note_on_c, 0, 58, 0
2, 69883, Note_on_c, 0, 62, 80
2, 69888, Note_on_c, 0, 53, 0
2, 69891, Note_on_c, 0, 58, 75
2, 69892, Note_on_c, 0, 53, 65
2, 69893, Control_c, 0, 64, 0
2, 69987, Control_c, 0, 64, 127
2, 70064, Note_on_c, 0, 65, 0
2, 70074, Note_on_c, 0, 65, 66
2, 70232, Note_on_c, 0, 72, 101
2, 70410, Note_on_c, 0, 65, 0
2, 70415, Note_on_c, 0, 65, 73
2, 70592, Note_on_c, 0, 74, 96
2, 70771, Note_on_c, 0, 65, 0
2, 70779, Note_on_c, 0, 65, 67
2, 70955, Note_on_c, 0, 74, 0
2, 70965, Note_on_c, 0, 74, 97
2, 70970, Note_on_c, 0, 62, 0
2, 70975, Note_on_c, 0, 42, 70
2, 70978, Note_on_c, 0, 50, 0
2, 70980, Note_on_c, 0, 62, 75
2, 70985, Note_on_c, 0, 50, 68
2, 70989, Note_on_c, 0, 66, 72
2, 70990, Note_on_c, 0, 53, 0
2, 70990, Note_on_c, 0, 65, 0
2, 70990, Note_on_c, 0, 58, 0
2, 70990, Note_on_c, 0, 70, 0
2, 70991, Note_on_c, 0, 72, 0
2, 70992, Control_c, 0, 64, 0
2, 71016, Note_on_c, 0, 41, 0
2, 71093, Control_c, 0, 64, 127
2, 71324, Note_on_c, 0, 66, 0
2, 71333, Note_on_c, 0, 66, 65
2, 71493, Note_on_c, 0, 74, 0
2, 71504, Note_on_c, 0, 74, 81
2, 71715, Note_on_c, 0, 62, 0
2, 71723, Note_on_c, 0, 62, 50
2, 71892, Note_on_c, 0, 66, 0
2, 71900, Note_on_c, 0, 66, 70
2, 72111, Note_on_c, 0, 72, 75
2, 72130, Note_on_c, 0, 50, 0
2, 72135, Note_on_c, 0, 38, 47
2, 72135, Note_on_c, 0, 50, 51
2, 72138, Note_on_c, 0, 66, 0
2, 72142, Note_on_c, 0, 57, 46
2, 72144, Note_on_c, 0, 66, 54
2, 72145, Note_on_c, 0, 38, 0
2, 72197, Control_c, 0, 64, 0
2, 72204, Note_on_c, 0, 42, 0
2, 72245, Note_on_c, 0, 74, 0
2, 72971, Note_on_c, 0, 86, 83
2, 72976, Note_on_c, 0, 74, 56
2, 73029, Control_c, 0, 64, 127
2, 73391, Note_on_c, 0, 91, 81
2, 73393, Note_on_c, 0, 55, 61
2, 73403, Note_on_c, 0, 79, 71
2, 73405, Note_on_c, 0, 66, 0
2, 73413, Note_on_c, 0, 62, 0
2, 73416, Note_on_c, 0, 74, 0
2, 73416, Note_on_c, 0, 72, 0
2, 73416, Note_on_c, 0, 86, 0
2, 73416, Note_on_c, 0, 57, 0
2, 73426, Control_c, 0, 64, 0
2, 73428, Note_on_c, 0, 50, 0
2, 73489, Control_c, 0, 64, 127
2, 73583, Note_on_c, 0, 62, 48
2, 73796, Note_on_c, 0, 70, 50
2, 73812, Note_on_c, 0, 55, 0
2, 73831, Note_on_c, 0, 67, 45
2, 74179, Note_on_c, 0, 93, 87
2, 74195, Note_on_c, 0, 81, 77
2, 74583, Note_on_c, 0, 89, 82
2, 74589, Note_on_c, 0, 50, 46
2, 74590, Note_on_c, 0, 77, 69
2, 74607, Control_c, 0, 64, 0
2, 74607, Note_on_c, 0, 91, 0
2, 74607, Note_on_c, 0, 79, 0
2, 74608, Note_on_c, 0, 62, 0
2, 74608, Note_on_c, 0, 67, 0
2, 74610, Note_on_c, 0, 70, 0
2, 74618, Control_c, 0, 64, 127
2, 74765, Note_on_c, 0, 57, 62
2, 74976, Note_on_c, 0, 69, 64
2, 74978, Note_on_c, 0, 65, 59
2, 75336, Note_on_c, 0, 86, 90
2, 75352, Note_on_c, 0, 74, 59
2, 75735, Note_on_c, 0, 91, 84
2, 75753, Note_on_c, 0, 55, 56
2, 75756, Note_on_c, 0, 79, 70
2, 75765, Control_c, 0, 64, 0
2, 75769, Note_on_c, 0, 89, 0
2, 75769, Note_on_c, 0, 50, 0
2, 75769, Note_on_c, 0, 69, 0
2, 75770, Note_on_c, 0, 86, 0
2, 75770, Note_on_c, 0, 74, 0
2, 75770, Note_on_c, 0, 57, 0
2, 75771, Note_on_c, 0, 65, 0
2, 75771, Note_on_c, 0, 77, 0
2, 75786, Note_on_c, 0, 81, 0
2, 75786, Note_on_c, 0, 93, 0
2, 75832, Control_c, 0, 64, 127
2, 75909, Note_on_c, 0, 55, 0
2, 75936, Note_on_c, 0, 62, 56
2, 76126, Note_on_c, 0, 70, 64
2, 76164, Note_on_c, 0, 67, 42
2, 76489, Note_on_c, 0, 93, 87
2, 76520, Note_on_c, 0, 81, 67
2, 76885, Note_on_c, 0, 89, 82
2, 76896, Note_on_c, 0, 50, 55
2, 76898, Note_on_c, 0, 77, 60
2, 76903, Control_c, 0, 64, 0
2, 76911, Note_on_c, 0, 79, 0
2, 76911, Note_on_c, 0, 70, 0
2, 76911, Note_on_c, 0, 62, 0
2, 76911, Note_on_c, 0, 91, 0
2, 76912, Note_on_c, 0, 67, 0
2, 76930, Control_c, 0, 64, 127
2, 77067, Note_on_c, 0, 57, 63
2, 77268, Note_on_c, 0, 69, 63
2, 77280, Note_on_c, 0, 65, 49
2, 77644, Note_on_c, 0, 84, 84
2, 77647, Note_on_c, 0, 72, 72
2, 77925, Note_on_c, 0, 74, 48
2, 77962, Note_on_c, 0, 79, 63
2, 77975, Note_on_c, 0, 93, 0
2, 77984, Note_on_c, 0, 82, 76
2, 78031, Note_on_c, 0, 86, 90
2, 78033, Note_on_c, 0, 55, 56
2, 78041, Note_on_c, 0, 69, 0
2, 78042, Note_on_c, 0, 72, 0
2, 78043, Note_on_c, 0, 65, 0
2, 78043, Note_on_c, 0, 77, 0
2, 78043, Note_on_c, 0, 57, 0
2, 78043, Note_on_c, 0, 84, 0
2, 78044, Note_on_c, 0, 50, 0
2, 78045, Control_c, 0, 64, 0
2, 78045, Note_on_c, 0, 89, 0
2, 78051, Note_on_c, 0, 81, 0
2, 78097, Control_c, 0, 64, 127
2, 78208, Note_on_c, 0, 84, 78
2, 78213, Note_on_c, 0, 62, 49
2, 78382, Note_on_c, 0, 86, 0
2, 78392, Note_on_c, 0, 86, 94
2, 78425, Note_on_c, 0, 70, 59
2, 78453, Note_on_c, 0, 67, 45
2, 79186, Note_on_c, 0, 53, 65
2, 79199, Control_c, 0, 64, 0
2, 79203, Note_on_c, 0, 84, 0
2, 79204, Note_on_c, 0, 82, 0
2, 79204, Note_on_c, 0, 62, 0
2, 79205, Note_on_c, 0, 55, 0
2, 79206, Note_on_c, 0, 70, 0
2, 79206, Note_on_c, 0, 67, 0
2, 79288, Control_c, 0, 64, 127
2, 79365, Note_on_c, 0, 74, 0
2, 79368, Note_on_c, 0, 60, 65
2, 79561, Note_on_c, 0, 69, 69
2, 79568, Note_on_c, 0, 65, 65
2, 79902, Note_on_c, 0, 79, 0
2, 79925, Note_on_c, 0, 86, 0
2, 79934, Note_on_c, 0, 86, 92
2, 79937, Note_on_c, 0, 74, 70
2, 80337, Note_on_c, 0, 98, 101
2, 80340, Note_on_c, 0, 51, 73
2, 80348, Note_on_c, 0, 86, 0
2, 80354, Note_on_c, 0, 86, 87
2, 80360, Note_on_c, 0, 60, 0
2, 80360, Note_on_c, 0, 74, 0
2, 80360, Note_on_c, 0, 53, 0
2, 80361, Note_on_c, 0, 65, 0
2, 80361, Note_on_c, 0, 94, 73
2, 80365, Note_on_c, 0, 69, 0
2, 80368, Control_c, 0, 64, 0
2, 80478, Control_c, 0, 64, 127
2, 80543, Note_on_c, 0, 58, 56
2, 80735, Note_on_c, 0, 75, 60
2, 80736, Note_on_c, 0, 67, 67
2, 80736, Note_on_c, 0, 63, 63
2, 80739, Note_on_c, 0, 75, 0
2, 81114, Note_on_c, 0, 96, 94
2, 81136, Note_on_c, 0, 84, 74
2, 81492, Note_on_c, 0, 94, 0
2, 81502, Note_on_c, 0, 94, 93
2, 81517, Note_on_c, 0, 82, 77
2, 81518, Note_on_c, 0, 53, 64
2, 81542, Note_on_c, 0, 51, 0
2, 81542, Control_c, 0, 64, 0
2, 81542, Note_on_c, 0, 58, 0
2, 81542, Note_on_c, 0, 63, 0
2, 81542, Note_on_c, 0, 98, 0
2, 81543, Note_on_c, 0, 84, 0
2, 81543, Note_on_c, 0, 96, 0
2, 81544, Note_on_c, 0, 67, 0
2, 81561, Note_on_c, 0, 86, 0
2, 81615, Control_c, 0, 64, 127
2, 81680, Note_on_c, 0, 60, 69
2, 81885, Note_on_c, 0, 69, 66
2, 81885, Note_on_c, 0, 65, 61
2, 82264, Note_on_c, 0, 93, 88
2, 82278, Note_on_c, 0, 81, 82
2, 82635, Note_on_c, 0, 91, 88
2, 82642, Note_on_c, 0, 48, 58
2, 82644, Note_on_c, 0, 82, 0
2, 82653, Note_on_c, 0, 79, 75
2, 82654, Note_on_c, 0, 82, 81
2, 82672, Control_c, 0, 64, 0
2, 82678, Note_on_c, 0, 65, 0
2, 82678, Note_on_c, 0, 93, 0
2, 82678, Note_on_c, 0, 60, 0
2, 82678, Note_on_c, 0, 53, 0
2, 82679, Note_on_c, 0, 69, 0
2, 82679, Note_on_c, 0, 81, 0
2, 82690, Note_on_c, 0, 94, 0
2, 82767, Control_c, 0, 64, 127
2, 82832, Note_on_c, 0, 55, 53
2, 83005, Note_on_c, 0, 93, 91
2, 83013, Note_on_c, 0, 75, 64
2, 83017, Note_on_c, 0, 67, 63
2, 83030, Note_on_c, 0, 63, 56
2, 83032, Note_on_c, 0, 81, 72
2, 83381, Note_on_c, 0, 82, 0
2, 83386, Note_on_c, 0, 94, 92
2, 83392, Note_on_c, 0, 82, 80
2, 83760, Note_on_c, 0, 96, 96
2, 83774, Note_on_c, 0, 84, 80
2, 83776, Note_on_c, 0, 50, 64
2, 83792, Note_on_c, 0, 94, 0
2, 83792, Note_on_c, 0, 93, 0
2, 83793, Note_on_c, 0, 82, 0
2, 83793, Note_on_c, 0, 63, 0
2, 83793, Note_on_c, 0, 81, 0
2, 83794, Note_on_c, 0, 48, 0
2, 83794, Note_on_c, 0, 79, 0
2, 83794, Note_on_c, 0, 91, 0
2, 83794, Note_on_c, 0, 55, 0
2, 83794, Note_on_c, 0, 67, 0
2, 83796, Note_on_c, 0, 75, 0
2, 83799, Control_c, 0, 64, 0
2, 83857, Control_c, 0, 64, 127
2, 83985, Note_on_c, 0, 57, 40
2, 84136, Note_on_c, 0, 94, 95
2, 84156, Note_on_c, 0, 69, 60
2, 84161, Note_on_c, 0, 82, 74
2, 84167, Note_on_c, 0, 65, 48
2, 84537, Note_on_c, 0, 93, 86
2, 84557, Note_on_c, 0, 81, 75
2, 84821, Note_on_c, 0, 79, 55
2, 84864, Note_on_c, 0, 84, 0
2, 84869, Note_on_c, 0, 84, 64
2, 84898, Note_on_c, 0, 86, 80
2, 84921, Note_on_c, 0, 55, 61
2, 84928, Note_on_c, 0, 91, 82
2, 84929, Note_on_c, 0, 96, 0
2, 84929, Note_on_c, 0, 94, 0
2, 84930, Note_on_c, 0, 65, 0
2, 84930, Control_c, 0, 64, 0
2, 84931, Note_on_c, 0, 93, 0
2, 84931, Note_on_c, 0, 81, 0
2, 84932, Note_on_c, 0, 84, 0
2, 84932, Note_on_c, 0, 69, 0
2, 84932, Note_on_c, 0, 82, 0
2, 84933, Note_on_c, 0, 57, 0
2, 84936, Note_on_c, 0, 50, 0
2, 84979, Control_c, 0, 64, 127
2, 85097, Note_on_c, 0, 89, 82
2, 85116, Note_on_c, 0, 62, 48
2, 85132, Note_on_c, 0, 79, 0
2, 85278, Note_on_c, 0, 91, 0
2, 85289, Note_on_c, 0, 91, 85
2, 85297, Note_on_c, 0, 72, 68
2, 85321, Note_on_c, 0, 69, 55
2, 85324, Note_on_c, 0, 79, 47
2, 85328, Note_on_c, 0, 67, 46
2, 86039, Note_on_c, 0, 55, 0
2, 86047, Note_on_c, 0, 55, 70
2, 86065, Control_c, 0, 64, 0
2, 86070, Note_on_c, 0, 91, 0
2, 86071, Note_on_c, 0, 62, 0
2, 86071, Note_on_c, 0, 89, 0
2, 86071, Note_on_c, 0, 69, 0
2, 86071, Note_on_c, 0, 67, 0
2, 86072, Note_on_c, 0, 72, 0
2, 86072, Note_on_c, 0, 86, 0
2, 86085, Note_on_c, 0, 79, 0
2, 86154, Control_c, 0, 64, 127
2, 86217, Note_on_c, 0, 62, 73
2, 86407, Note_on_c, 0, 70, 69
2, 86442, Note_on_c, 0, 67, 46
2, 86787, Note_on_c, 0, 91, 90
2, 86801, Note_on_c, 0, 79, 75
2, 87188, Note_on_c, 0, 98, 103
2, 87205, Note_on_c, 0, 94, 83
2, 87205, Note_on_c, 0, 48, 61
2, 87206, Note_on_c, 0, 86, 91
2, 87218, Note_on_c, 0, 67, 0
2, 87218, Note_on_c, 0, 62, 0
2, 87219, Note_on_c, 0, 70, 0
2, 87224, Note_on_c, 0, 91, 0
2, 87225, Note_on_c, 0, 79, 0
2, 87225, Control_c, 0, 64, 0
2, 87229, Note_on_c, 0, 55, 0
2, 87306, Control_c, 0, 64, 127
2, 87388, Note_on_c, 0, 55, 63
2, 87591, Note_on_c, 0, 67, 67
2, 87593, Note_on_c, 0, 63, 64
2, 87952, Note_on_c, 0, 96, 96
2, 87975, Note_on_c, 0, 84, 78
2, 88327, Note_on_c, 0, 94, 0
2, 88339, Note_on_c, 0, 94, 98
2, 88352, Note_on_c, 0, 82, 79
2, 88354, Note_on_c, 0, 50, 66
2, 88366, Note_on_c, 0, 98, 0
2, 88376, Note_on_c, 0, 84, 0
2, 88377, Note_on_c, 0, 96, 0
2, 88377, Note_on_c, 0, 63, 0
2, 88377, Note_on_c, 0, 86, 0
2, 88377, Note_on_c, 0, 55, 0
2, 88378, Note_on_c, 0, 67, 0
2, 88379, Note_on_c, 0, 48, 0
2, 88379, Control_c, 0, 64, 0
2, 88404, Control_c, 0, 64, 127
2, 88523, Note_on_c, 0, 57, 65
2, 88707, Note_on_c, 0, 69, 75
2, 88713, Note_on_c, 0, 65, 60
2, 89095, Note_on_c, 0, 93, 89
2, 89121, Note_on_c, 0, 81, 77
2, 89482, Note_on_c, 0, 51, 68
2, 89482, Note_on_c, 0, 91, 87
2, 89493, Note_on_c, 0, 79, 76
2, 89495, Note_on_c, 0, 82, 0
2, 89500, Note_on_c, 0, 82, 78
2, 89512, Control_c, 0, 64, 0
2, 89514, Note_on_c, 0, 65, 0
2, 89515, Note_on_c, 0, 69, 0
2, 89515, Note_on_c, 0, 81, 0
2, 89516, Note_on_c, 0, 57, 0
2, 89516, Note_on_c, 0, 50, 0
2, 89516, Note_on_c, 0, 93, 0
2, 89533, Note_on_c, 0, 94, 0
2, 89602, Control_c, 0, 64, 127
2, 89658, Note_on_c, 0, 58, 59
2, 89849, Note_on_c, 0, 93, 90
2, 89868, Note_on_c, 0, 63, 50
2, 89870, Note_on_c, 0, 81, 77
2, 89874, Note_on_c, 0, 67, 49
2, 90235, Note_on_c, 0, 94, 92
2, 90240, Note_on_c, 0, 82, 0
2, 90249, Note_on_c, 0, 82, 77
2, 90624, Note_on_c, 0, 96, 94
2, 90635, Note_on_c, 0, 53, 71
2, 90642, Note_on_c, 0, 84, 76
2, 90661, Note_on_c, 0, 93, 0
2, 90661, Note_on_c, 0, 94, 0
2, 90662, Note_on_c, 0, 51, 0
2, 90663, Note_on_c, 0, 91, 0
2, 90663, Note_on_c, 0, 63, 0
2, 90663, Note_on_c, 0, 81, 0
2, 90664, Note_on_c, 0, 82, 0
2, 90664, Note_on_c, 0, 58, 0
2, 90665, Note_on_c, 0, 79, 0
2, 90665, Note_on_c, 0, 67, 0
2, 90665, Control_c, 0, 64, 0
2, 90723, Control_c, 0, 64, 127
2, 90809, Note_on_c, 0, 60, 54
2, 90989, Note_on_c, 0, 94, 97
2, 91012, Note_on_c, 0, 82, 75
2, 91026, Note_on_c, 0, 65, 54
2, 91028, Note_on_c, 0, 69, 58
2, 91361, Note_on_c, 0, 93, 89
2, 91382, Note_on_c, 0, 81, 76
2, 91649, Note_on_c, 0, 79, 56
2, 91651, Note_on_c, 0, 91, 42
2, 91683, Note_on_c, 0, 84, 0
2, 91693, Note_on_c, 0, 84, 63
2, 91726, Note_on_c, 0, 86, 78
2, 91752, Note_on_c, 0, 91, 0
2, 91759, Note_on_c, 0, 55, 64
2, 91761, Note_on_c, 0, 91, 82
2, 91768, Note_on_c, 0, 96, 0
2, 91772, Note_on_c, 0, 94, 0
2, 91772, Note_on_c, 0, 65, 0
2, 91773, Note_on_c, 0, 60, 0
2, 91773, Note_on_c, 0, 93, 0
2, 91773, Control_c, 0, 64, 0
2, 91773, Note_on_c, 0, 82, 0
2, 91773, Note_on_c, 0, 84, 0
2, 91774, Note_on_c, 0, 81, 0
2, 91774, Note_on_c, 0, 69, 0
2, 91777, Note_on_c, 0, 53, 0
2, 91852, Control_c, 0, 64, 127
2, 91932, Note_on_c, 0, 62, 66
2, 91932, Note_on_c, 0, 89, 80
2, 92106, Note_on_c, 0, 91, 0
2, 92111, Note_on_c, 0, 91, 83
2, 92113, Note_on_c, 0, 67, 65
2, 92113, Note_on_c, 0, 55, 0
2, 92118, Note_on_c, 0, 55, 56
2, 92294, Note_on_c, 0, 72, 69
2, 92482, Note_on_c, 0, 74, 77
2, 92858, Note_on_c, 0, 55, 0
2, 92864, Note_on_c, 0, 55, 75
2, 92885, Control_c, 0, 64, 0
2, 92951, Control_c, 0, 64, 127
2, 93035, Note_on_c, 0, 62, 0
2, 93046, Note_on_c, 0, 62, 66
2, 93227, Note_on_c, 0, 67, 0
2, 93235, Note_on_c, 0, 67, 71
2, 93414, Note_on_c, 0, 70, 62
2, 93588, Note_on_c, 0, 79, 0
2, 93598, Note_on_c, 0, 79, 93
2, 93619, Note_on_c, 0, 74, 0
2, 93623, Note_on_c, 0, 74, 70
2, 93987, Note_on_c, 0, 79, 0
2, 93997, Note_on_c, 0, 79, 92
2, 94015, Note_on_c, 0, 44, 67
2, 94018, Note_on_c, 0, 72, 0
2, 94029, Note_on_c, 0, 72, 70
2, 94030, Note_on_c, 0, 75, 67
2, 94042, Note_on_c, 0, 91, 0
2, 94043, Note_on_c, 0, 86, 0
2, 94043, Note_on_c, 0, 89, 0
2, 94043, Note_on_c, 0, 62, 0
2, 94043, Note_on_c, 0, 55, 0
2, 94043, Note_on_c, 0, 67, 0
2, 94044, Note_on_c, 0, 70, 0
2, 94045, Note_on_c, 0, 74, 0
2, 94050, Control_c, 0, 64, 0
2, 94172, Control_c, 0, 64, 127
2, 94205, Note_on_c, 0, 51, 56
2, 94375, Note_on_c, 0, 56, 68
2, 94556, Note_on_c, 0, 44, 0
2, 94566, Note_on_c, 0, 60, 73
2, 94744, Note_on_c, 0, 77, 88
2, 94755, Note_on_c, 0, 51, 0
2, 94765, Note_on_c, 0, 51, 63
2, 94924, Note_on_c, 0, 56, 0
2, 94935, Note_on_c, 0, 56, 73
2, 95101, Note_on_c, 0, 75, 0
2, 95106, Note_on_c, 0, 75, 79
2, 95108, Note_on_c, 0, 87, 84
2, 95124, Note_on_c, 0, 60, 0
2, 95129, Note_on_c, 0, 84, 65
2, 95134, Note_on_c, 0, 60, 62
2, 95139, Note_on_c, 0, 80, 64
2, 95316, Note_on_c, 0, 51, 0
2, 95323, Note_on_c, 0, 51, 57
2, 95477, Note_on_c, 0, 56, 0
2, 95487, Note_on_c, 0, 56, 75
2, 95665, Note_on_c, 0, 74, 84
2, 95677, Note_on_c, 0, 60, 0
2, 95682, Note_on_c, 0, 60, 60
2, 95846, Note_on_c, 0, 72, 0
2, 95854, Note_on_c, 0, 51, 0
2, 95857, Note_on_c, 0, 72, 81
2, 95858, Note_on_c, 0, 51, 63
2, 96030, Note_on_c, 0, 56, 0
2, 96038, Note_on_c, 0, 56, 77
2, 96199, Note_on_c, 0, 79, 0
2, 96207, Note_on_c, 0, 75, 0
2, 96209, Note_on_c, 0, 79, 93
2, 96214, Note_on_c, 0, 75, 86
2, 96215, Note_on_c, 0, 72, 0
2, 96216, Note_on_c, 0, 74, 0
2, 96217, Note_on_c, 0, 87, 0
2, 96218, Note_on_c, 0, 51, 0
2, 96218, Note_on_c, 0, 84, 0
2, 96218, Note_on_c, 0, 80, 0
2, 96219, Note_on_c, 0, 56, 0
2, 96219, Note_on_c, 0, 60, 0
2, 96219, Note_on_c, 0, 77, 0
2, 96221, Control_c, 0, 64, 0
2, 96222, Note_on_c, 0, 72, 80
2, 96225, Note_on_c, 0, 41, 74
2, 96314, Control_c, 0, 64, 127
2, 96417, Note_on_c, 0, 51, 59
2, 96590, Note_on_c, 0, 56, 75
2, 96794, Note_on_c, 0, 60, 61
2, 96960, Note_on_c, 0, 51, 0
2, 96964, Note_on_c, 0, 51, 71
2, 96967, Note_on_c, 0, 77, 85
2, 97144, Note_on_c, 0, 56, 0
2, 97148, Note_on_c, 0, 56, 75
2, 97320, Note_on_c, 0, 75, 0
2, 97327, Note_on_c, 0, 87, 89
2, 97331, Note_on_c, 0, 75, 80
2, 97344, Note_on_c, 0, 60, 0
2, 97348, Note_on_c, 0, 60, 62
2, 97367, Note_on_c, 0, 80, 64
2, 97520, Note_on_c, 0, 51, 0
2, 97527, Note_on_c, 0, 51, 62
2, 97704, Note_on_c, 0, 56, 0
2, 97716, Note_on_c, 0, 56, 72
2, 97882, Note_on_c, 0, 74, 83
2, 97904, Note_on_c, 0, 60, 0
2, 97908, Note_on_c, 0, 60, 61
2, 98065, Note_on_c, 0, 72, 0
2, 98075, Note_on_c, 0, 72, 81
2, 98081, Note_on_c, 0, 51, 0
2, 98085, Note_on_c, 0, 51, 62
2, 98250, Note_on_c, 0, 56, 0
2, 98257, Note_on_c, 0, 56, 77
2, 98426, Note_on_c, 0, 74, 0
2, 98435, Note_on_c, 0, 74, 90
2, 98440, Control_c, 0, 64, 0
2, 98443, Note_on_c, 0, 41, 0
2, 98444, Note_on_c, 0, 72, 0
2, 98444, Note_on_c, 0, 51, 0
2, 98445, Note_on_c, 0, 70, 78
2, 98445, Note_on_c, 0, 80, 0
2, 98445, Note_on_c, 0, 75, 0
2, 98445, Note_on_c, 0, 56, 0
2, 98445, Note_on_c, 0, 77, 0
2, 98445, Note_on_c, 0, 60, 0
2, 98446, Note_on_c, 0, 67, 72
2, 98447, Note_on_c, 0, 43, 69
2, 98457, Note_on_c, 0, 79, 0
2, 98457, Note_on_c, 0, 87, 0
2, 98549, Control_c, 0, 64, 127
2, 98633, Note_on_c, 0, 72, 78
2, 98634, Note_on_c, 0, 55, 60
2, 98787, Note_on_c, 0, 74, 0
2, 98798, Note_on_c, 0, 74, 78
2, 98799, Note_on_c, 0, 58, 63
2, 99007, Note_on_c, 0, 62, 59
2, 99179, Note_on_c, 0, 55, 0
2, 99186, Note_on_c, 0, 55, 54
2, 99363, Note_on_c, 0, 58, 0
2, 99368, Note_on_c, 0, 58, 65
2, 99543, Note_on_c, 0, 86, 91
2, 99578, Note_on_c, 0, 62, 0
2, 99580, Note_on_c, 0, 82, 50
2, 99582, Note_on_c, 0, 62, 49
2, 99747, Note_on_c, 0, 55, 0
2, 99751, Note_on_c, 0, 55, 58
2, 99939, Note_on_c, 0, 58, 0
2, 99944, Note_on_c, 0, 58, 65
2, 100116, Note_on_c, 0, 62, 0
2, 100122, Note_on_c, 0, 62, 70
2, 100299, Note_on_c, 0, 79, 94
2, 100316, Note_on_c, 0, 55, 0
2, 100325, Note_on_c, 0, 55, 59
2, 100477, Note_on_c, 0, 58, 0
2, 100488, Note_on_c, 0, 58, 78
2, 100669, Note_on_c, 0, 79, 0
2, 100675, Note_on_c, 0, 79, 94
2, 100684, Note_on_c, 0, 72, 0
2, 100692, Note_on_c, 0, 44, 79
2, 100694, Note_on_c, 0, 72, 75
2, 100696, Control_c, 0, 64, 0
2, 100696, Note_on_c, 0, 75, 74
2, 100703, Note_on_c, 0, 55, 0
2, 100703, Note_on_c, 0, 62, 0
2, 100704, Note_on_c, 0, 43, 0
2, 100704, Note_on_c, 0, 67, 0
2, 100706, Note_on_c, 0, 58, 0
2, 100706, Note_on_c, 0, 70, 0
2, 100707, Note_on_c, 0, 74, 0
2, 100715, Note_on_c, 0, 82, 0
2, 100730, Note_on_c, 0, 86, 0
2, 100807, Control_c, 0, 64, 127
2, 100859, Note_on_c, 0, 51, 63
2, 101056, Note_on_c, 0, 56, 78
2, 101232, Note_on_c, 0, 60, 75
2, 101402, Note_on_c, 0, 77, 87
2, 101414, Note_on_c, 0, 51, 0
2, 101425, Note_on_c, 0, 51, 63
2, 101583, Note_on_c, 0, 56, 0
2, 101588, Note_on_c, 0, 56, 66
2, 101760, Note_on_c, 0, 75, 0
2, 101766, Note_on_c, 0, 87, 88
2, 101769, Note_on_c, 0, 75, 81
2, 101783, Note_on_c, 0, 60, 0
2, 101789, Note_on_c, 0, 60, 56
2, 101799, Note_on_c, 0, 84, 69
2, 101801, Note_on_c, 0, 80, 71
2, 101959, Note_on_c, 0, 51, 0
2, 101965, Note_on_c, 0, 51, 59
2, 102151, Note_on_c, 0, 56, 0
2, 102157, Note_on_c, 0, 56, 76
2, 102325, Note_on_c, 0, 74, 80
2, 102328, Note_on_c, 0, 60, 0
2, 102332, Note_on_c, 0, 60, 71
2, 102497, Note_on_c, 0, 51, 0
2, 102503, Note_on_c, 0, 51, 66
2, 102504, Note_on_c, 0, 72, 0
2, 102509, Note_on_c, 0, 72, 82
2, 102516, Note_on_c, 0, 84, 0
2, 102696, Note_on_c, 0, 56, 0
2, 102703, Note_on_c, 0, 56, 71
2, 102862, Control_c, 0, 64, 0
2, 102863, Note_on_c, 0, 56, 0
2, 102865, Note_on_c, 0, 74, 0
2, 102865, Note_on_c, 0, 44, 0
2, 102866, Note_on_c, 0, 60, 0
2, 102873, Note_on_c, 0, 79, 0
2, 102873, Note_on_c, 0, 87, 0
2, 102877, Note_on_c, 0, 79, 95
2, 102881, Note_on_c, 0, 51, 0
2, 102881, Note_on_c, 0, 72, 0
2, 102881, Note_on_c, 0, 75, 0
2, 102881, Note_on_c, 0, 77, 0
2, 102886, Note_on_c, 0, 72, 80
2, 102889, Note_on_c, 0, 41, 71
2, 102890, Note_on_c, 0, 75, 81
2, 102904, Note_on_c, 0, 80, 0
2, 102958, Control_c, 0, 64, 127
2, 103062, Note_on_c, 0, 51, 62
2, 103233, Note_on_c, 0, 56, 78
2, 103427, Note_on_c, 0, 60, 75
2, 103603, Note_on_c, 0, 51, 0
2, 103607, Note_on_c, 0, 51, 75
2, 103616, Note_on_c, 0, 80, 91
2, 103787, Note_on_c, 0, 56, 0
2, 103794, Note_on_c, 0, 56, 75
2, 103977, Note_on_c, 0, 94, 95
2, 103980, Note_on_c, 0, 82, 88
2, 103991, Note_on_c, 0, 87, 84
2, 103994, Note_on_c, 0, 60, 0
2, 104004, Note_on_c, 0, 89, 78
2, 104006, Note_on_c, 0, 60, 69
2, 104156, Note_on_c, 0, 51, 0
2, 104167, Note_on_c, 0, 51, 67
2, 104332, Note_on_c, 0, 56, 0
2, 104343, Note_on_c, 0, 56, 80
2, 104524, Note_on_c, 0, 60, 0
2, 104533, Note_on_c, 0, 60, 81
2, 104700, Note_on_c, 0, 84, 99
2, 104716, Note_on_c, 0, 51, 0
2, 104722, Note_on_c, 0, 51, 70
2, 104870, Note_on_c, 0, 56, 0
2, 104879, Note_on_c, 0, 56, 77
2, 105070, Note_on_c, 0, 84, 0
2, 105073, Note_on_c, 0, 86, 101
2, 105080, Note_on_c, 0, 84, 91
2, 105081, Note_on_c, 0, 43, 80
2, 105085, Note_on_c, 0, 79, 0
2, 105085, Note_on_c, 0, 74, 89
2, 105092, Note_on_c, 0, 79, 79
2, 105110, Control_c, 0, 64, 0
2, 105111, Note_on_c, 0, 82, 0
2, 105111, Note_on_c, 0, 87, 0
2, 105111, Note_on_c, 0, 56, 0
2, 105111, Note_on_c, 0, 80, 0
2, 105111, Note_on_c, 0, 60, 0
2, 105111, Note_on_c, 0, 72, 0
2, 105111, Note_on_c, 0, 89, 0
2, 105112, Note_on_c, 0, 41, 0
2, 105112, Note_on_c, 0, 51, 0
2, 105112, Note_on_c, 0, 75, 0
2, 105116, Note_on_c, 0, 94, 0
2, 105200, Control_c, 0, 64, 127
2, 105262, Note_on_c, 0, 50, 69
2, 105438, Note_on_c, 0, 86, 0
2, 105443, Note_on_c, 0, 55, 75
2, 105445, Note_on_c, 0, 86, 100
2, 105446, Note_on_c, 0, 74, 0
2, 105455, Note_on_c, 0, 74, 88
2, 105576, Note_on_c, 0, 79, 0
2, 105632, Note_on_c, 0, 60, 78
2, 105803, Note_on_c, 0, 62, 77
2, 105997, Note_on_c, 0, 67, 77
2, 106176, Note_on_c, 0, 43, 0
2, 106181, Note_on_c, 0, 98, 106
2, 106183, Note_on_c, 0, 86, 0
2, 106184, Note_on_c, 0, 43, 76
2, 106188, Note_on_c, 0, 96, 94
2, 106189, Note_on_c, 0, 86, 97
2, 106202, Note_on_c, 0, 91, 89
2, 106352, Note_on_c, 0, 50, 0
2, 106359, Note_on_c, 0, 50, 72
2, 106536, Note_on_c, 0, 55, 0
2, 106547, Note_on_c, 0, 55, 73
2, 106713, Note_on_c, 0, 60, 0
2, 106717, Note_on_c, 0, 60, 79
2, 106897, Note_on_c, 0, 62, 0
2, 106903, Note_on_c, 0, 62, 81
2, 107089, Note_on_c, 0, 67, 0
2, 107096, Note_on_c, 0, 67, 76
2, 107274, Note_on_c, 0, 43, 0
2, 107274, Note_on_c, 0, 86, 0
2, 107276, Control_c, 0, 64, 0
2, 107281, Note_on_c, 0, 74, 0
2, 107281, Note_on_c, 0, 98, 0
2, 107284, Note_on_c, 0, 91, 0
2, 107284, Note_on_c, 0, 96, 0
2, 107284, Note_on_c, 0, 43, 82
2, 107285, Note_on_c, 0, 62, 0
2, 107285, Note_on_c, 0, 86, 100
2, 107286, Note_on_c, 0, 60, 0
2, 107286, Note_on_c, 0, 50, 0
2, 107288, Note_on_c, 0, 67, 0
2, 107290, Note_on_c, 0, 74, 96
2, 107291, Note_on_c, 0, 83, 92
2, 107294, Note_on_c, 0, 79, 85
2, 107304, Note_on_c, 0, 55, 0
2, 107312, Note_on_c, 0, 84, 0
2, 107427, Control_c, 0, 64, 127
2, 107460, Note_on_c, 0, 50, 77
2, 107644, Note_on_c, 0, 55, 78
2, 107816, Note_on_c, 0, 59, 86
2, 107995, Note_on_c, 0, 62, 88
2, 108181, Note_on_c, 0, 67, 84
2, 108357, Note_on_c, 0, 43, 0
2, 108357, Note_on_c, 0, 86, 0
2, 108361, Note_on_c, 0, 98, 106
2, 108365, Note_on_c, 0, 43, 85
2, 108367, Note_on_c, 0, 86, 99
2, 108368, Note_on_c, 0, 95, 103
2, 108374, Note_on_c, 0, 91, 94
2, 108541, Note_on_c, 0, 50, 0
2, 108548, Note_on_c, 0, 50, 82
2, 108733, Note_on_c, 0, 55, 0
2, 108738, Note_on_c, 0, 55, 85
2, 108902, Note_on_c, 0, 59, 0
2, 108909, Note_on_c, 0, 59, 92
2, 109086, Note_on_c, 0, 55, 0
2, 109086, Note_on_c, 0, 86, 0
2, 109092, Note_on_c, 0, 55, 91
2, 109094, Note_on_c, 0, 74, 0
2, 109097, Note_on_c, 0, 86, 107
2, 109100, Note_on_c, 0, 74, 103
2, 109278, Note_on_c, 0, 50, 0
2, 109288, Note_on_c, 0, 50, 84
2, 109440, Note_on_c, 0, 79, 0
2, 109516, Note_on_c, 0, 86, 0
2, 109517, Control_c, 0, 64, 0
2, 109522, Note_on_c, 0, 98, 0
2, 109522, Note_on_c, 0, 95, 0
2, 109524, Note_on_c, 0, 74, 0
2, 109526, Note_on_c, 0, 86, 109
2, 109527, Note_on_c, 0, 91, 0
2, 109527, Note_on_c, 0, 83, 0
2, 109527, Note_on_c, 0, 62, 0
2, 109527, Note_on_c, 0, 55, 0
2, 109527, Note_on_c, 0, 59, 0
2, 109527, Note_on_c, 0, 50, 0
2, 109527, Note_on_c, 0, 43, 0
2, 109528, Note_on_c, 0, 67, 0
2, 109535, Note_on_c, 0, 74, 104
2, 109536, Note_on_c, 0, 77, 98
2, 109537, Note_on_c, 0, 82, 95
2, 109543, Note_on_c, 0, 34, 98
2, 109608, Control_c, 0, 64, 127
2, 109757, Note_on_c, 0, 46, 80
2, 109931, Note_on_c, 0, 50, 77
2, 110102, Note_on_c, 0, 53, 77
2, 110284, Note_on_c, 0, 86, 0
2, 110289, Note_on_c, 0, 58, 80
2, 110292, Note_on_c, 0, 74, 0
2, 110293, Note_on_c, 0, 86, 103
2, 110296, Note_on_c, 0, 74, 101
2, 110446, Note_on_c, 0, 46, 0
2, 110454, Note_on_c, 0, 46, 71
2, 110648, Note_on_c, 0, 34, 0
2, 110649, Note_on_c, 0, 46, 0
2, 110649, Note_on_c, 0, 58, 0
2, 110650, Note_on_c, 0, 50, 0
2, 110650, Note_on_c, 0, 86, 0
2, 110650, Note_on_c, 0, 82, 0
2, 110650, Note_on_c, 0, 74, 0
2, 110651, Note_on_c, 0, 53, 0
2, 110652, Control_c, 0, 64, 0
2, 110660, Note_on_c, 0, 84, 105
2, 110664, Note_on_c, 0, 72, 101
2, 110671, Note_on_c, 0, 29, 95
2, 110676, Note_on_c, 0, 77, 0
2, 110681, Note_on_c, 0, 81, 95
2, 110685, Note_on_c, 0, 77, 92
2, 110722, Control_c, 0, 64, 127
2, 110860, Note_on_c, 0, 29, 0
2, 110867, Note_on_c, 0, 48, 76
2, 111040, Note_on_c, 0, 53, 79
2, 111211, Note_on_c, 0, 57, 76
2, 111211, Note_on_c, 0, 82, 93
2, 111212, Note_on_c, 0, 70, 90
2, 111394, Note_on_c, 0, 60, 85
2, 111398, Note_on_c, 0, 81, 0
2, 111409, Note_on_c, 0, 81, 98
2, 111415, Note_on_c, 0, 69, 90
2, 111559, Note_on_c, 0, 48, 0
2, 111564, Note_on_c, 0, 48, 72
2, 111732, Note_on_c, 0, 82, 0
2, 111732, Control_c, 0, 64, 0
2, 111732, Note_on_c, 0, 48, 0
2, 111733, Note_on_c, 0, 53, 0
2, 111733, Note_on_c, 0, 77, 0
2, 111733, Note_on_c, 0, 84, 0
2, 111733, Note_on_c, 0, 57, 0
2, 111734, Note_on_c, 0, 60, 0
2, 111734, Note_on_c, 0, 69, 0
2, 111735, Note_on_c, 0, 70, 0
2, 111751, Note_on_c, 0, 81, 0
2, 111759, Note_on_c, 0, 72, 0
2, 111762, Note_on_c, 0, 79, 104
2, 111765, Note_on_c, 0, 67, 96
2, 111765, Note_on_c, 0, 72, 93
2, 111770, Note_on_c, 0, 76, 98
2, 111778, Note_on_c, 0, 36, 84
2, 111778, Note_on_c, 0, 24, 92
2, 111782, Control_c, 0, 64, 127
2, 111951, Note_on_c, 0, 24, 0
2, 111968, Note_on_c, 0, 43, 77
2, 112149, Note_on_c, 0, 48, 62
2, 112316, Note_on_c, 0, 52, 76
2, 112488, Note_on_c, 0, 79, 0
2, 112496, Note_on_c, 0, 67, 0
2, 112500, Note_on_c, 0, 79, 96
2, 112501, Note_on_c, 0, 55, 72
2, 112508, Note_on_c, 0, 67, 83
2, 112677, Note_on_c, 0, 60, 68
2, 112857, Note_on_c, 0, 79, 0
2, 112862, Note_on_c, 0, 79, 99
2, 112865, Note_on_c, 0, 67, 0
2, 112869, Note_on_c, 0, 67, 85
2, 112870, Note_on_c, 0, 64, 85
2, 113041, Note_on_c, 0, 60, 0
2, 113046, Note_on_c, 0, 72, 0
2, 113047, Note_on_c, 0, 60, 78
2, 113218, Note_on_c, 0, 55, 0
2, 113223, Note_on_c, 0, 55, 70
2, 113387, Note_on_c, 0, 52, 0
2, 113397, Note_on_c, 0, 52, 80
2, 113587, Note_on_c, 0, 48, 0
2, 113587, Note_on_c, 0, 60, 0
2, 113593, Note_on_c, 0, 48, 63
2, 113595, Note_on_c, 0, 86, 104
2, 113598, Note_on_c, 0, 74, 99
2, 113756, Note_on_c, 0, 43, 0
2, 113760, Note_on_c, 0, 43, 86
2, 113961, Control_c, 0, 64, 0
2, 113961, Note_on_c, 0, 64, 0
2, 113961, Note_on_c, 0, 76, 0
2, 113962, Note_on_c, 0, 48, 0
2, 113962, Note_on_c, 0, 67, 0
2, 113963, Note_on_c, 0, 86, 0
2, 113964, Note_on_c, 0, 52, 0
2, 113965, Note_on_c, 0, 55, 0
2, 113965, Note_on_c, 0, 36, 0
2, 113966, Note_on_c, 0, 43, 0
2, 113968, Note_on_c, 0, 86, 107
2, 113978, Note_on_c, 0, 27, 101
2, 113978, Note_on_c, 0, 74, 0
2, 113978, Note_on_c, 0, 79, 0
2, 113982, Note_on_c, 0, 82, 101
2, 113982, Note_on_c, 0, 39, 96
2, 113983, Note_on_c, 0, 74, 99
2, 113988, Note_on_c, 0, 79, 97
2, 114024, Control_c, 0, 64, 127
2, 114048, Note_on_c, 0, 39, 0
2, 114174, Note_on_c, 0, 46, 69
2, 114201, Note_on_c, 0, 27, 0
2, 114347, Note_on_c, 0, 51, 73
2, 114522, Note_on_c, 0, 55, 70
2, 114701, Note_on_c, 0, 58, 85
2, 114708, Note_on_c, 0, 74, 0
2, 114708, Note_on_c, 0, 86, 0
2, 114712, Note_on_c, 0, 86, 99
2, 114719, Note_on_c, 0, 74, 98
2, 114862, Note_on_c, 0, 46, 0
2, 114871, Note_on_c, 0, 46, 76
2, 115062, Note_on_c, 0, 86, 0
2, 115062, Note_on_c, 0, 51, 0
2, 115062, Note_on_c, 0, 79, 0
2, 115063, Note_on_c, 0, 74, 0
2, 115063, Note_on_c, 0, 46, 0
2, 115063, Note_on_c, 0, 55, 0
2, 115064, Note_on_c, 0, 58, 0
2, 115064, Note_on_c, 0, 82, 0
2, 115064, Control_c, 0, 64, 0
2, 115079, Note_on_c, 0, 84, 103
2, 115081, Note_on_c, 0, 72, 101
2, 115088, Note_on_c, 0, 81, 97
2, 115088, Note_on_c, 0, 29, 92
2, 115088, Note_on_c, 0, 77, 95
2, 115088, Note_on_c, 0, 41, 90
2, 115146, Control_c, 0, 64, 127
2, 115281, Note_on_c, 0, 48, 68
2, 115442, Note_on_c, 0, 53, 74
2, 115619, Note_on_c, 0, 82, 94
2, 115624, Note_on_c, 0, 70, 86
2, 115626, Note_on_c, 0, 57, 74
2, 115799, Note_on_c, 0, 81, 0
2, 115806, Note_on_c, 0, 48, 0
2, 115808, Note_on_c, 0, 81, 97
2, 115810, Note_on_c, 0, 60, 77
2, 115810, Note_on_c, 0, 48, 66
2, 115810, Note_on_c, 0, 69, 86
2, 115960, Note_on_c, 0, 48, 0
2, 115968, Note_on_c, 0, 48, 74
2, 116119, Control_c, 0, 64, 0
2, 116123, Note_on_c, 0, 48, 0
2, 116123, Note_on_c, 0, 84, 0
2, 116123, Note_on_c, 0, 81, 0
2, 116123, Note_on_c, 0, 77, 0
2, 116123, Note_on_c, 0, 72, 0
2, 116123, Note_on_c, 0, 41, 0
2, 116124, Note_on_c, 0, 69, 0
2, 116124, Note_on_c, 0, 53, 0
2, 116124, Note_on_c, 0, 57, 0
2, 116124, Note_on_c, 0, 82, 0
2, 116125, Note_on_c, 0, 60, 0
2, 116125, Note_on_c, 0, 70, 0
2, 116136, Note_on_c, 0, 29, 0
2, 116163, Note_on_c, 0, 79, 103
2, 116170, Note_on_c, 0, 67, 92
2, 116170, Note_on_c, 0, 74, 85
2, 116178, Note_on_c, 0, 72, 90
2, 116178, Note_on_c, 0, 31, 79
2, 116181, Note_on_c, 0, 43, 78
2, 116221, Control_c, 0, 64, 127
2, 116393, Note_on_c, 0, 48, 59
2, 116564, Note_on_c, 0, 50, 72
2, 116567, Note_on_c, 0, 31, 0
2, 116728, Note_on_c, 0, 55, 68
2, 116912, Note_on_c, 0, 79, 0
2, 116917, Note_on_c, 0, 60, 78
2, 116921, Note_on_c, 0, 79, 96
2, 117098, Note_on_c, 0, 62, 76
2, 117289, Control_c, 0, 64, 0
2, 117296, Note_on_c, 0, 62, 0
2, 117296, Note_on_c, 0, 79, 0
2, 117297, Note_on_c, 0, 60, 0
2, 117297, Note_on_c, 0, 72, 0
2, 117298, Note_on_c, 0, 50, 0
2, 117298, Note_on_c, 0, 55, 0
2, 117301, Note_on_c, 0, 79, 99
2, 117304, Note_on_c, 0, 67, 0
2, 117304, Note_on_c, 0, 74, 0
2, 117313, Note_on_c, 0, 71, 91
2, 117313, Note_on_c, 0, 67, 86
2, 117314, Note_on_c, 0, 74, 79
2, 117335, Note_on_c, 0, 43, 0
2, 117339, Note_on_c, 0, 43, 66
2, 117381, Control_c, 0, 64, 127
2, 117483, Note_on_c, 0, 62, 65
2, 117657, Note_on_c, 0, 59, 77
2, 117826, Note_on_c, 0, 55, 69
2, 118018, Note_on_c, 0, 79, 0
2, 118024, Note_on_c, 0, 79, 99
2, 118038, Note_on_c, 0, 50, 65
2, 118189, Note_on_c, 0, 47, 66
2, 118379, Note_on_c, 0, 79, 0
2, 118389, Note_on_c, 0, 79, 101
2, 118394, Note_on_c, 0, 67, 0
2, 118399, Note_on_c, 0, 39, 82
2, 118404, Note_on_c, 0, 67, 89
2, 118406, Note_on_c, 0, 75, 84
2, 118411, Note_on_c, 0, 70, 84
2, 118425, Note_on_c, 0, 55, 0
2, 118425, Note_on_c, 0, 62, 0
2, 118425, Note_on_c, 0, 50, 0
2, 118425, Note_on_c, 0, 71, 0
2, 118426, Note_on_c, 0, 74, 0
2, 118426, Note_on_c, 0, 43, 0
2, 118427, Note_on_c, 0, 59, 0
2, 118427, Note_on_c, 0, 47, 0
2, 118428, Note_on_c, 0, 48, 0
2, 118430, Control_c, 0, 64, 0
2, 118517, Control_c, 0, 64, 127
2, 118589, Note_on_c, 0, 46, 75
2, 118590, Note_on_c, 0, 77, 86
2, 118763, Note_on_c, 0, 79, 0
2, 118768, Note_on_c, 0, 79, 99
2, 118774, Note_on_c, 0, 51, 71
2, 118948, Note_on_c, 0, 82, 76
2, 118955, Note_on_c, 0, 79, 0
2, 118959, Note_on_c, 0, 55, 64
2, 118961, Note_on_c, 0, 79, 68
2, 119117, Note_on_c, 0, 87, 81
2, 119136, Note_on_c, 0, 58, 58
2, 119290, Note_on_c, 0, 63, 64
2, 119298, Note_on_c, 0, 89, 78
2, 119485, Note_on_c, 0, 67, 0
2, 119485, Note_on_c, 0, 79, 0
2, 119485, Note_on_c, 0, 87, 0
2, 119488, Note_on_c, 0, 91, 88
2, 119489, Note_on_c, 0, 67, 63
2, 119493, Note_on_c, 0, 82, 0
2, 119493, Note_on_c, 0, 79, 79
2, 119496, Note_on_c, 0, 87, 81
2, 119499, Note_on_c, 0, 82, 74
2, 119662, Note_on_c, 0, 63, 0
2, 119667, Note_on_c, 0, 63, 61
2, 119838, Note_on_c, 0, 70, 0
2, 119849, Note_on_c, 0, 70, 78
2, 120015, Note_on_c, 0, 67, 0
2, 120025, Note_on_c, 0, 67, 66
2, 120215, Note_on_c, 0, 63, 0
2, 120218, Note_on_c, 0, 63, 64
2, 120376, Note_on_c, 0, 58, 0
2, 120382, Note_on_c, 0, 58, 65
2, 120568, Note_on_c, 0, 79, 0
2, 120573, Note_on_c, 0, 79, 99
2, 120586, Note_on_c, 0, 72, 83
2, 120588, Note_on_c, 0, 69, 84
2, 120593, Note_on_c, 0, 41, 75
2, 120610, Note_on_c, 0, 58, 0
2, 120610, Note_on_c, 0, 82, 0
2, 120610, Note_on_c, 0, 91, 0
2, 120610, Control_c, 0, 64, 0
2, 120610, Note_on_c, 0, 55, 0
2, 120610, Note_on_c, 0, 39, 0
2, 120611, Note_on_c, 0, 63, 0
2, 120611, Note_on_c, 0, 46, 0
2, 120611, Note_on_c, 0, 70, 0
2, 120612, Note_on_c, 0, 51, 0
2, 120612, Note_on_c, 0, 77, 0
2, 120613, Note_on_c, 0, 75, 0
2, 120615, Note_on_c, 0, 89, 0
2, 120622, Note_on_c, 0, 87, 0
2, 120637, Note_on_c, 0, 67, 0
2, 120691, Control_c, 0, 64, 127
2, 120764, Note_on_c, 0, 77, 85
2, 120766, Note_on_c, 0, 48, 65
2, 120929, Note_on_c, 0, 79, 0
2, 120939, Note_on_c, 0, 79, 102
2, 120949, Note_on_c, 0, 53, 67
2, 121123, Note_on_c, 0, 57, 65
2, 121128, Note_on_c, 0, 84, 71
2, 121280, Note_on_c, 0, 60, 62
2, 121300, Note_on_c, 0, 89, 80
2, 121470, Note_on_c, 0, 65, 65
2, 121479, Note_on_c, 0, 91, 82
2, 121666, Note_on_c, 0, 84, 0
2, 121667, Note_on_c, 0, 93, 97
2, 121671, Note_on_c, 0, 81, 86
2, 121674, Note_on_c, 0, 69, 0
2, 121674, Note_on_c, 0, 89, 0
2, 121677, Note_on_c, 0, 84, 80
2, 121678, Note_on_c, 0, 69, 73
2, 121684, Note_on_c, 0, 89, 82
2, 121843, Note_on_c, 0, 65, 0
2, 121850, Note_on_c, 0, 65, 69
2, 122019, Note_on_c, 0, 72, 0
2, 122026, Note_on_c, 0, 72, 73
2, 122211, Note_on_c, 0, 69, 0
2, 122216, Note_on_c, 0, 69, 69
2, 122396, Note_on_c, 0, 65, 0
2, 122407, Note_on_c, 0, 65, 69
2, 122565, Note_on_c, 0, 60, 0
2, 122576, Note_on_c, 0, 60, 74
2, 122764, Note_on_c, 0, 79, 0
2, 122769, Note_on_c, 0, 79, 102
2, 122776, Note_on_c, 0, 67, 84
2, 122785, Note_on_c, 0, 74, 77
2, 122787, Note_on_c, 0, 72, 0
2, 122793, Note_on_c, 0, 43, 78
2, 122797, Note_on_c, 0, 72, 78
2, 122820, Note_on_c, 0, 91, 0
2, 122821, Note_on_c, 0, 41, 0
2, 122821, Note_on_c, 0, 89, 0
2, 122821, Note_on_c, 0, 81, 0
2, 122821, Note_on_c, 0, 69, 0
2, 122821, Note_on_c, 0, 48, 0
2, 122821, Note_on_c, 0, 53, 0
2, 122821, Note_on_c, 0, 93, 0
2, 122822, Note_on_c, 0, 60, 0
2, 122822, Note_on_c, 0, 77, 0
2, 122822, Control_c, 0, 64, 0
2, 122822, Note_on_c, 0, 65, 0
2, 122833, Note_on_c, 0, 57, 0
2, 122841, Note_on_c, 0, 84, 0
2, 122926, Control_c, 0, 64, 127
2, 122966, Note_on_c, 0, 50, 67
2, 122966, Note_on_c, 0, 77, 81
2, 123133, Note_on_c, 0, 79, 0
2, 123143, Note_on_c, 0, 79, 98
2, 123156, Note_on_c, 0, 43, 0
2, 123161, Note_on_c, 0, 43, 66
2, 123162, Note_on_c, 0, 55, 59
2, 123344, Note_on_c, 0, 60, 41
2, 123505, Note_on_c, 0, 62, 64
2, 123701, Note_on_c, 0, 67, 0
2, 123707, Note_on_c, 0, 67, 73
2, 123878, Note_on_c, 0, 55, 0
2, 123885, Note_on_c, 0, 55, 63
2, 124070, Note_on_c, 0, 62, 0
2, 124070, Note_on_c, 0, 72, 0
2, 124081, Note_on_c, 0, 62, 70
2, 124081, Note_on_c, 0, 72, 71
2, 124277, Note_on_c, 0, 67, 0
2, 124277, Note_on_c, 0, 74, 0
2, 124283, Note_on_c, 0, 74, 71
2, 124286, Note_on_c, 0, 67, 67
2, 124508, Note_on_c, 0, 72, 0
2, 124508, Note_on_c, 0, 79, 0
2, 124512, Note_on_c, 0, 79, 72
2, 124514, Note_on_c, 0, 72, 56
2, 124766, Note_on_c, 0, 84, 76
2, 124776, Note_on_c, 0, 74, 0
2, 124781, Note_on_c, 0, 74, 53
2, 125068, Note_on_c, 0, 79, 0
2, 125074, Note_on_c, 0, 86, 89
2, 125078, Note_on_c, 0, 79, 60
2, 125376, Note_on_c, 0, 55, 0
2, 125381, Note_on_c, 0, 55, 49
2, 125437, Note_on_c, 0, 62, 0
2, 125448, Note_on_c, 0, 62, 61
2, 125532, Note_on_c, 0, 71, 53
2, 125575, Note_on_c, 0, 79, 0
2, 125579, Note_on_c, 0, 79, 57
2, 125643, Note_on_c, 0, 83, 77
2, 125706, Note_on_c, 0, 86, 0
2, 125710, Note_on_c, 0, 86, 90
2, 125787, Note_on_c, 0, 91, 99
2, 125790, Note_on_c, 0, 72, 0
2, 125821, Note_on_c, 0, 74, 0
2, 125859, Control_c, 0, 64, 0
2, 125882, Note_on_c, 0, 77, 0
2, 126259, Note_on_c, 0, 84, 0
2, 126336, Control_c, 0, 64, 127
2, 127572, Note_on_c, 0, 50, 0
2, 127772, Note_on_c, 0, 43, 0
2, 127948, Note_on_c, 0, 60, 0
2, 128295, Note_on_c, 0, 89, 58
2, 128640, Note_on_c, 0, 55, 0
2, 128640, Note_on_c, 0, 62, 0
2, 128640, Note_on_c, 0, 67, 0
2, 128640, Note_on_c, 0, 71, 0
2, 128640, Note_on_c, 0, 79, 0
2, 128640, Note_on_c, 0, 83, 0
2, 128640, Note_on_c, 0, 86, 0
2, 128640, Note_on_c, 0, 91, 0
2, 128933, Note_on_c, 0, 86, 67
2, 129390, Note_on_c, 0, 84, 51
2, 129724, Note_on_c, 0, 79, 60
2, 130035, Note_on_c, 0, 77, 67
2, 130271, Note_on_c, 0, 74, 69
2, 130562, Note_on_c, 0, 72, 68
2, 130744, Control_c, 0, 64, 0
2, 130874, Note_on_c, 0, 67, 66
2, 131178, Note_on_c, 0, 65, 68
2, 131551, Note_on_c, 0, 62, 62
2, 132046, Note_on_c, 0, 60, 44
2, 132480, Note_on_c, 0, 74, 0
2, 132480, Note_on_c, 0, 77, 0
2, 132480, Note_on_c, 0, 79, 0
2, 132480, Note_on_c, 0, 84, 0
2, 132480, Note_on_c, 0, 86, 0
2, 132480, Note_on_c, 0, 89, 0
2, 132480, Control_c, 0, 64, 127
2, 132669, Note_on_c, 0, 27, 61
2, 132670, Note_on_c, 0, 39, 48
2, 133416, Note_on_c, 0, 39, 0
2, 133424, Note_on_c, 0, 39, 46
2, 133427, Note_on_c, 0, 53, 50
2, 133847, Note_on_c, 0, 60, 0
2, 133855, Note_on_c, 0, 60, 59
2, 133874, Note_on_c, 0, 51, 44
2, 134190, Note_on_c, 0, 58, 66
2, 134228, Note_on_c, 0, 46, 37
2, 134461, Note_on_c, 0, 65, 0
2, 134466, Note_on_c, 0, 65, 66
2, 134474, Note_on_c, 0, 55, 45
2, 134707, Note_on_c, 0, 51, 0
2, 134715, Note_on_c, 0, 51, 44
2, 134745, Note_on_c, 0, 62, 0
2, 134753, Note_on_c, 0, 62, 44
2, 134929, Note_on_c, 0, 60, 0
2, 134933, Note_on_c, 0, 70, 63
2, 134939, Note_on_c, 0, 60, 56
2, 135152, Note_on_c, 0, 55, 0
2, 135152, Note_on_c, 0, 65, 0
2, 135158, Note_on_c, 0, 65, 77
2, 135159, Note_on_c, 0, 55, 45
2, 135168, Note_on_c, 0, 72, 0
2, 135340, Note_on_c, 0, 63, 74
2, 135350, Note_on_c, 0, 72, 60
2, 135482, Note_on_c, 0, 67, 0
2, 135536, Note_on_c, 0, 70, 0
2, 135541, Note_on_c, 0, 70, 77
2, 135544, Note_on_c, 0, 58, 0
2, 135548, Note_on_c, 0, 58, 59
2, 135732, Note_on_c, 0, 77, 80
2, 135755, Note_on_c, 0, 67, 52
2, 135943, Note_on_c, 0, 63, 0
2, 135949, Note_on_c, 0, 74, 70
2, 135951, Note_on_c, 0, 63, 51
2, 136169, Note_on_c, 0, 82, 63
2, 136189, Note_on_c, 0, 72, 0
2, 136200, Note_on_c, 0, 72, 51
2, 136320, Note_on_c, 0, 27, 0
2, 136320, Note_on_c, 0, 46, 0
2, 136320, Note_on_c, 0, 53, 0
2, 136419, Note_on_c, 0, 77, 0
2, 136424, Note_on_c, 0, 77, 65
2, 136442, Note_on_c, 0, 67, 0
2, 136448, Note_on_c, 0, 67, 44
2, 136686, Note_on_c, 0, 84, 72
2, 136688, Note_on_c, 0, 75, 57
2, 137018, Note_on_c, 0, 70, 0
2, 137018, Note_on_c, 0, 82, 0
2, 137024, Note_on_c, 0, 82, 60
2, 137029, Note_on_c, 0, 70, 52
2, 137397, Note_on_c, 0, 89, 66
2, 137444, Note_on_c, 0, 79, 40
2, 137871, Note_on_c, 0, 75, 0
2, 137880, Note_on_c, 0, 75, 41
2, 137906, Note_on_c, 0, 86, 69
2, 138032, Note_on_c, 0, 39, 0
2, 138547, Note_on_c, 0, 51, 0
2, 138552, Note_on_c, 0, 51, 50
2, 138677, Note_on_c, 0, 58, 0
2, 138688, Note_on_c, 0, 58, 63
2, 138800, Note_on_c, 0, 60, 0
2, 138809, Note_on_c, 0, 60, 58
2, 138923, Note_on_c, 0, 67, 0
2, 138928, Note_on_c, 0, 67, 50
2, 139008, Note_on_c, 0, 89, 0
2, 139012, Note_on_c, 0, 89, 53
2, 139080, Note_on_c, 0, 94, 77
2, 139174, Note_on_c, 0, 96, 81
2, 139287, Note_on_c, 0, 101, 89
2, 139361, Note_on_c, 0, 62, 0
2, 139768, Note_on_c, 0, 55, 0
2, 139768, Note_on_c, 0, 65, 0
2, 140160, Note_on_c, 0, 63, 0
2, 140160, Note_on_c, 0, 72, 0
2, 140160, Note_on_c, 0, 74, 0
2, 140160, Note_on_c, 0, 75, 0
2, 140160, Note_on_c, 0, 77, 0
2, 140160, Note_on_c, 0, 79, 0
2, 140160, Note_on_c, 0, 84, 0
2, 140160, Note_on_c, 0, 86, 0
2, 141634, Note_on_c, 0, 70, 0
2, 141634, Note_on_c, 0, 82, 0
2, 143162, Note_on_c, 0, 51, 0
2, 143293, Note_on_c, 0, 58, 0
2, 143416, Note_on_c, 0, 60, 0
2, 143539, Note_on_c, 0, 67, 0
2, 143623, Note_on_c, 0, 89, 0
2, 143685, Note_on_c, 0, 94, 0
2, 143784, Note_on_c, 0, 96, 0
2, 143892, Note_on_c, 0, 101, 0
2, 145500, Control_c, 0, 64, 0
2, 145501, End_track
0, 0, End_of_file
