0, 0, Header, 1, 2, 384
1, 0, Start_track
1, 0, Tempo, 500000
1, 0, Time_signature, 4, 2, 24, 8
1, 1, End_track
2, 0, Start_track
2, 268, Control_c, 0, 64, 127
2, 3509, Control_c, 0, 64, 0
2, 3511, Note_on_c, 0, 28, 94
2, 3570, Note_on_c, 0, 40, 74
2, 3594, Control_c, 0, 64, 127
2, 3668, Note_on_c, 0, 47, 93
2, 3736, Note_on_c, 0, 52, 97
2, 3736, Note_on_c, 0, 64, 104
2, 3741, Note_on_c, 0, 56, 98
2, 3741, Note_on_c, 0, 59, 98
2, 5099, Note_on_c, 0, 59, 0
2, 5103, Note_on_c, 0, 63, 105
2, 5104, Note_on_c, 0, 75, 99
2, 5105, Note_on_c, 0, 54, 96
2, 5107, Note_on_c, 0, 47, 0
2, 5107, Note_on_c, 0, 56, 0
2, 5110, Note_on_c, 0, 71, 82
2, 5110, Note_on_c, 0, 59, 95
2, 5111, Note_on_c, 0, 68, 84
2, 5113, Note_on_c, 0, 47, 92
2, 5114, Note_on_c, 0, 71, 0
2, 5115, Note_on_c, 0, 56, 91
2, 5141, Control_c, 0, 64, 0
2, 5147, Note_on_c, 0, 64, 0
2, 5147, Note_on_c, 0, 40, 0
2, 5406, Control_c, 0, 64, 127
2, 6136, Note_on_c, 0, 59, 0
2, 6141, Note_on_c, 0, 76, 93
2, 6144, Note_on_c, 0, 47, 0
2, 6144, Note_on_c, 0, 52, 0
2, 6144, Note_on_c, 0, 56, 0
2, 6144, Note_on_c, 0, 68, 0
2, 6146, Note_on_c, 0, 64, 100
2, 6147, Note_on_c, 0, 59, 93
2, 6149, Note_on_c, 0, 52, 92
2, 6149, Note_on_c, 0, 68, 88
2, 6149, Note_on_c, 0, 47, 89
2, 6150, Note_on_c, 0, 56, 95
2, 6151, Note_on_c, 0, 71, 80
2, 6181, Control_c, 0, 64, 0
2, 6220, Control_c, 0, 64, 127
2, 6489, Note_on_c, 0, 59, 0
2, 6497, Note_on_c, 0, 47, 0
2, 6497, Note_on_c, 0, 56, 0
2, 6499, Note_on_c, 0, 59, 103
2, 6504, Note_on_c, 0, 52, 0
2, 6506, Note_on_c, 0, 47, 92
2, 6508, Note_on_c, 0, 56, 94
2, 6509, Note_on_c, 0, 40, 87
2, 6511, Note_on_c, 0, 52, 84
2, 6558, Control_c, 0, 64, 0
2, 6560, Note_on_c, 0, 75, 0
2, 6581, Note_on_c, 0, 54, 0
2, 6589, Note_on_c, 0, 63, 0
2, 6597, Control_c, 0, 64, 127
2, 6766, Note_on_c, 0, 76, 0
2, 7376, Note_on_c, 0, 44, 98
2, 7377, Note_on_c, 0, 32, 90
2, 7430, Control_c, 0, 64, 0
2, 7449, Note_on_c, 0, 47, 0
2, 7464, Control_c, 0, 64, 127
2, 7503, Note_on_c, 0, 64, 0
2, 7695, Note_on_c, 0, 32, 0
2, 7695, Note_on_c, 0, 44, 0
2, 7705, Note_on_c, 0, 44, 89
2, 7705, Note_on_c, 0, 32, 89
2, 7875, Note_on_c, 0, 35, 97
2, 7875, Note_on_c, 0, 47, 92
2, 7879, Note_on_c, 0, 28, 0
2, 7881, Note_on_c, 0, 44, 0
2, 7883, Control_c, 0, 64, 0
2, 7895, Note_on_c, 0, 52, 0
2, 7895, Note_on_c, 0, 59, 0
2, 7895, Note_on_c, 0, 71, 0
2, 7902, Note_on_c, 0, 32, 0
2, 7902, Note_on_c, 0, 56, 0
2, 7910, Note_on_c, 0, 40, 0
2, 7918, Note_on_c, 0, 68, 0
2, 7964, Control_c, 0, 64, 127
2, 8019, Note_on_c, 0, 49, 66
2, 8111, Note_on_c, 0, 51, 59
2, 8168, Note_on_c, 0, 52, 80
2, 8230, Note_on_c, 0, 54, 75
2, 8301, Note_on_c, 0, 56, 84
2, 8371, Note_on_c, 0, 57, 75
2, 8425, Note_on_c, 0, 59, 83
2, 8486, Note_on_c, 0, 35, 0
2, 8486, Note_on_c, 0, 47, 0
2, 8490, Note_on_c, 0, 47, 94
2, 8490, Note_on_c, 0, 61, 88
2, 8492, Note_on_c, 0, 35, 97
2, 8530, Note_on_c, 0, 63, 60
2, 8540, Note_on_c, 0, 63, 0
2, 8584, Note_on_c, 0, 64, 91
2, 8643, Note_on_c, 0, 66, 86
2, 8690, Note_on_c, 0, 68, 89
2, 8748, Note_on_c, 0, 69, 88
2, 8797, Note_on_c, 0, 71, 94
2, 8845, Note_on_c, 0, 73, 92
2, 8878, Note_on_c, 0, 75, 65
2, 8919, Note_on_c, 0, 76, 102
2, 8971, Note_on_c, 0, 78, 91
2, 9012, Note_on_c, 0, 80, 84
2, 9060, Note_on_c, 0, 81, 82
2, 9139, Note_on_c, 0, 71, 0
2, 9139, Note_on_c, 0, 75, 0
2, 9141, Note_on_c, 0, 83, 101
2, 9144, Note_on_c, 0, 45, 103
2, 9144, Note_on_c, 0, 33, 102
2, 9146, Note_on_c, 0, 71, 101
2, 9149, Note_on_c, 0, 75, 106
2, 9196, Note_on_c, 0, 64, 0
2, 9196, Note_on_c, 0, 66, 0
2, 9197, Note_on_c, 0, 76, 0
2, 9197, Note_on_c, 0, 68, 0
2, 9197, Note_on_c, 0, 56, 0
2, 9197, Note_on_c, 0, 59, 0
2, 9197, Note_on_c, 0, 73, 0
2, 9197, Note_on_c, 0, 57, 0
2, 9197, Note_on_c, 0, 54, 0
2, 9198, Note_on_c, 0, 69, 0
2, 9198, Control_c, 0, 64, 0
2, 9199, Note_on_c, 0, 80, 0
2, 9199, Note_on_c, 0, 47, 0
2, 9199, Note_on_c, 0, 52, 0
2, 9199, Note_on_c, 0, 78, 0
2, 9200, Note_on_c, 0, 49, 0
2, 9202, Note_on_c, 0, 51, 0
2, 9223, Note_on_c, 0, 35, 0
2, 9223, Note_on_c, 0, 61, 0
2, 9323, Control_c, 0, 64, 127
2, 9415, Note_on_c, 0, 81, 0
2, 10068, Note_on_c, 0, 33, 0
2, 10145, Note_on_c, 0, 45, 0
2, 10151, Note_on_c, 0, 45, 81
2, 10209, Note_on_c, 0, 52, 76
2, 10268, Note_on_c, 0, 57, 81
2, 10359, Note_on_c, 0, 61, 93
2, 10409, Note_on_c, 0, 64, 79
2, 10455, Note_on_c, 0, 81, 103
2, 10459, Note_on_c, 0, 76, 102
2, 10460, Note_on_c, 0, 73, 101
2, 10461, Note_on_c, 0, 69, 95
2, 11420, Note_on_c, 0, 83, 0
2, 11427, Note_on_c, 0, 71, 0
2, 11427, Note_on_c, 0, 76, 0
2, 11430, Note_on_c, 0, 83, 101
2, 11435, Note_on_c, 0, 73, 0
2, 11435, Note_on_c, 0, 76, 97
2, 11436, Note_on_c, 0, 71, 93
2, 11439, Note_on_c, 0, 73, 92
2, 11765, Note_on_c, 0, 76, 0
2, 11769, Note_on_c, 0, 76, 104
2, 11773, Note_on_c, 0, 45, 0
2, 11773, Note_on_c, 0, 64, 0
2, 11773, Note_on_c, 0, 69, 0
2, 11773, Note_on_c, 0, 73, 0
2, 11777, Note_on_c, 0, 45, 92
2, 11778, Note_on_c, 0, 33, 88
2, 11778, Note_on_c, 0, 64, 94
2, 11779, Note_on_c, 0, 69, 88
2, 11780, Note_on_c, 0, 73, 92
2, 11819, Note_on_c, 0, 81, 0
2, 11822, Control_c, 0, 64, 0
2, 11823, Note_on_c, 0, 71, 0
2, 11827, Note_on_c, 0, 52, 0
2, 11834, Note_on_c, 0, 75, 0
2, 11842, Note_on_c, 0, 57, 0
2, 11857, Note_on_c, 0, 61, 0
2, 11857, Note_on_c, 0, 83, 0
2, 12142, Control_c, 0, 64, 127
2, 12395, Note_on_c, 0, 33, 0
2, 12440, Note_on_c, 0, 49, 92
2, 12440, Note_on_c, 0, 71, 85
2, 12441, Note_on_c, 0, 37, 90
2, 12498, Control_c, 0, 64, 0
2, 12572, Control_c, 0, 64, 127
2, 13094, Note_on_c, 0, 69, 0
2, 13098, Control_c, 0, 64, 0
2, 13099, Note_on_c, 0, 52, 87
2, 13099, Note_on_c, 0, 81, 86
2, 13100, Note_on_c, 0, 40, 90
2, 13100, Note_on_c, 0, 69, 87
2, 13109, Note_on_c, 0, 49, 0
2, 13111, Note_on_c, 0, 37, 0
2, 13113, Note_on_c, 0, 71, 0
2, 13117, Note_on_c, 0, 45, 0
2, 13125, Note_on_c, 0, 64, 0
2, 13132, Note_on_c, 0, 73, 0
2, 13132, Note_on_c, 0, 76, 0
2, 13186, Control_c, 0, 64, 127
2, 13326, Note_on_c, 0, 54, 59
2, 13369, Note_on_c, 0, 56, 78
2, 13432, Note_on_c, 0, 57, 78
2, 13447, Note_on_c, 0, 81, 0
2, 13499, Note_on_c, 0, 59, 81
2, 13561, Note_on_c, 0, 61, 78
2, 13623, Note_on_c, 0, 63, 77
2, 13673, Note_on_c, 0, 64, 81
2, 13728, Note_on_c, 0, 66, 83
2, 13747, Note_on_c, 0, 57, 0
2, 13751, Note_on_c, 0, 57, 94
2, 13755, Note_on_c, 0, 45, 99
2, 13791, Note_on_c, 0, 68, 83
2, 13847, Note_on_c, 0, 69, 0
2, 13857, Note_on_c, 0, 69, 82
2, 13914, Note_on_c, 0, 71, 85
2, 13970, Note_on_c, 0, 73, 85
2, 14009, Note_on_c, 0, 75, 81
2, 14059, Note_on_c, 0, 76, 91
2, 14113, Note_on_c, 0, 78, 88
2, 14152, Note_on_c, 0, 80, 82
2, 14206, Note_on_c, 0, 81, 85
2, 14252, Note_on_c, 0, 83, 84
2, 14295, Note_on_c, 0, 85, 91
2, 14328, Note_on_c, 0, 87, 81
2, 14400, Note_on_c, 0, 80, 0
2, 14403, Note_on_c, 0, 88, 105
2, 14407, Note_on_c, 0, 76, 0
2, 14407, Note_on_c, 0, 83, 0
2, 14410, Note_on_c, 0, 80, 92
2, 14411, Note_on_c, 0, 43, 102
2, 14411, Note_on_c, 0, 76, 103
2, 14412, Note_on_c, 0, 31, 102
2, 14412, Note_on_c, 0, 83, 95
2, 14419, Note_on_c, 0, 79, 99
2, 14423, Note_on_c, 0, 31, 0
2, 14471, Note_on_c, 0, 40, 0
2, 14471, Note_on_c, 0, 57, 0
2, 14472, Control_c, 0, 64, 0
2, 14472, Note_on_c, 0, 64, 0
2, 14472, Note_on_c, 0, 45, 0
2, 14472, Note_on_c, 0, 52, 0
2, 14472, Note_on_c, 0, 78, 0
2, 14472, Note_on_c, 0, 71, 0
2, 14472, Note_on_c, 0, 56, 0
2, 14472, Note_on_c, 0, 63, 0
2, 14472, Note_on_c, 0, 75, 0
2, 14472, Note_on_c, 0, 61, 0
2, 14472, Note_on_c, 0, 68, 0
2, 14473, Note_on_c, 0, 59, 0
2, 14473, Note_on_c, 0, 81, 0
2, 14473, Note_on_c, 0, 85, 0
2, 14474, Note_on_c, 0, 54, 0
2, 14478, Note_on_c, 0, 87, 0
2, 14484, Note_on_c, 0, 66, 0
2, 14484, Note_on_c, 0, 69, 0
2, 14484, Note_on_c, 0, 73, 0
2, 14630, Control_c, 0, 64, 127
2, 15390, Note_on_c, 0, 43, 0
2, 15401, Note_on_c, 0, 43, 93
2, 15458, Note_on_c, 0, 50, 85
2, 15517, Note_on_c, 0, 55, 84
2, 15603, Note_on_c, 0, 59, 86
2, 15672, Note_on_c, 0, 62, 80
2, 15697, Note_on_c, 0, 79, 0
2, 15697, Note_on_c, 0, 83, 0
2, 15698, Note_on_c, 0, 86, 106
2, 15702, Note_on_c, 0, 67, 98
2, 15702, Note_on_c, 0, 74, 101
2, 15703, Note_on_c, 0, 79, 100
2, 15704, Note_on_c, 0, 83, 99
2, 16350, Note_on_c, 0, 59, 0
2, 16350, Note_on_c, 0, 62, 0
2, 16354, Note_on_c, 0, 66, 93
2, 16361, Note_on_c, 0, 59, 85
2, 16362, Note_on_c, 0, 62, 85
2, 16687, Note_on_c, 0, 85, 105
2, 16691, Note_on_c, 0, 73, 96
2, 16988, Note_on_c, 0, 80, 0
2, 17003, Note_on_c, 0, 76, 0
2, 17009, Note_on_c, 0, 81, 102
2, 17011, Note_on_c, 0, 73, 0
2, 17014, Note_on_c, 0, 76, 97
2, 17014, Note_on_c, 0, 69, 99
2, 17016, Note_on_c, 0, 73, 95
2, 17017, Note_on_c, 0, 33, 96
2, 17018, Note_on_c, 0, 45, 99
2, 17038, Control_c, 0, 64, 0
2, 17054, Note_on_c, 0, 55, 0
2, 17056, Note_on_c, 0, 43, 0
2, 17057, Note_on_c, 0, 59, 0
2, 17057, Note_on_c, 0, 67, 0
2, 17057, Note_on_c, 0, 79, 0
2, 17057, Note_on_c, 0, 74, 0
2, 17057, Note_on_c, 0, 83, 0
2, 17059, Note_on_c, 0, 86, 0
2, 17060, Note_on_c, 0, 85, 0
2, 17060, Note_on_c, 0, 66, 0
2, 17060, Note_on_c, 0, 88, 0
2, 17064, Note_on_c, 0, 50, 0
2, 17072, Note_on_c, 0, 62, 0
2, 17118, Control_c, 0, 64, 127
2, 17172, Note_on_c, 0, 33, 0
2, 17671, Note_on_c, 0, 76, 0
2, 17674, Note_on_c, 0, 64, 88
2, 17682, Note_on_c, 0, 76, 97
2, 17686, Note_on_c, 0, 57, 76
2, 17687, Note_on_c, 0, 69, 0
2, 17687, Note_on_c, 0, 73, 0
2, 17690, Note_on_c, 0, 52, 74
2, 17690, Note_on_c, 0, 61, 80
2, 17692, Note_on_c, 0, 69, 80
2, 17694, Note_on_c, 0, 71, 84
2, 17698, Note_on_c, 0, 73, 82
2, 17698, Note_on_c, 0, 59, 77
2, 18347, Note_on_c, 0, 81, 0
2, 18355, Note_on_c, 0, 69, 0
2, 18355, Note_on_c, 0, 73, 0
2, 18355, Note_on_c, 0, 76, 0
2, 18356, Note_on_c, 0, 81, 96
2, 18361, Note_on_c, 0, 76, 96
2, 18362, Note_on_c, 0, 69, 94
2, 18366, Note_on_c, 0, 73, 92
2, 18367, Note_on_c, 0, 50, 88
2, 18367, Note_on_c, 0, 38, 85
2, 18381, Control_c, 0, 64, 0
2, 18388, Note_on_c, 0, 64, 0
2, 18388, Note_on_c, 0, 59, 0
2, 18388, Note_on_c, 0, 57, 0
2, 18388, Note_on_c, 0, 52, 0
2, 18389, Note_on_c, 0, 45, 0
2, 18389, Note_on_c, 0, 61, 0
2, 18389, Note_on_c, 0, 71, 0
2, 18470, Control_c, 0, 64, 127
2, 18662, Note_on_c, 0, 38, 0
2, 19031, Note_on_c, 0, 73, 0
2, 19031, Note_on_c, 0, 81, 0
2, 19034, Note_on_c, 0, 85, 102
2, 19034, Note_on_c, 0, 66, 93
2, 19036, Note_on_c, 0, 57, 88
2, 19039, Note_on_c, 0, 73, 95
2, 19040, Note_on_c, 0, 81, 86
2, 19042, Note_on_c, 0, 78, 89
2, 19043, Note_on_c, 0, 62, 82
2, 19683, Note_on_c, 0, 76, 0
2, 19683, Note_on_c, 0, 83, 102
2, 19684, Note_on_c, 0, 71, 101
2, 19686, Note_on_c, 0, 28, 97
2, 19688, Note_on_c, 0, 40, 92
2, 19688, Note_on_c, 0, 76, 97
2, 19689, Note_on_c, 0, 80, 97
2, 19702, Note_on_c, 0, 57, 0
2, 19702, Note_on_c, 0, 62, 0
2, 19703, Note_on_c, 0, 78, 0
2, 19703, Note_on_c, 0, 50, 0
2, 19704, Note_on_c, 0, 66, 0
2, 19705, Control_c, 0, 64, 0
2, 19705, Note_on_c, 0, 73, 0
2, 19706, Note_on_c, 0, 85, 0
2, 19714, Control_c, 0, 64, 127
2, 19722, Note_on_c, 0, 69, 0
2, 19729, Note_on_c, 0, 81, 0
2, 19858, Note_on_c, 0, 47, 80
2, 19973, Note_on_c, 0, 52, 63
2, 20019, Note_on_c, 0, 73, 73
2, 20051, Note_on_c, 0, 56, 79
2, 20106, Note_on_c, 0, 71, 0
2, 20111, Note_on_c, 0, 71, 73
2, 20113, Note_on_c, 0, 52, 0
2, 20124, Note_on_c, 0, 52, 74
2, 20175, Note_on_c, 0, 73, 0
2, 20179, Note_on_c, 0, 73, 77
2, 20213, Note_on_c, 0, 47, 0
2, 20223, Note_on_c, 0, 47, 70
2, 20275, Note_on_c, 0, 71, 0
2, 20279, Note_on_c, 0, 71, 74
2, 20313, Note_on_c, 0, 40, 0
2, 20324, Note_on_c, 0, 40, 81
2, 20344, Note_on_c, 0, 76, 0
2, 20352, Note_on_c, 0, 76, 93
2, 20432, Note_on_c, 0, 75, 83
2, 20490, Note_on_c, 0, 47, 0
2, 20490, Note_on_c, 0, 76, 0
2, 20498, Note_on_c, 0, 47, 64
2, 20500, Note_on_c, 0, 76, 77
2, 20574, Note_on_c, 0, 52, 0
2, 20574, Note_on_c, 0, 71, 0
2, 20583, Note_on_c, 0, 71, 83
2, 20584, Note_on_c, 0, 52, 74
2, 20659, Note_on_c, 0, 56, 0
2, 20659, Note_on_c, 0, 73, 0
2, 20664, Note_on_c, 0, 73, 78
2, 20665, Note_on_c, 0, 56, 81
2, 20743, Note_on_c, 0, 52, 0
2, 20743, Note_on_c, 0, 71, 0
2, 20748, Note_on_c, 0, 71, 72
2, 20752, Note_on_c, 0, 52, 74
2, 20805, Note_on_c, 0, 73, 0
2, 20815, Note_on_c, 0, 73, 79
2, 20855, Note_on_c, 0, 59, 70
2, 20904, Note_on_c, 0, 71, 0
2, 20910, Note_on_c, 0, 71, 77
2, 20966, Note_on_c, 0, 40, 0
2, 20970, Note_on_c, 0, 40, 79
2, 20974, Note_on_c, 0, 76, 0
2, 20984, Note_on_c, 0, 76, 92
2, 21050, Note_on_c, 0, 75, 0
2, 21055, Note_on_c, 0, 75, 80
2, 21135, Note_on_c, 0, 47, 0
2, 21135, Note_on_c, 0, 76, 0
2, 21139, Note_on_c, 0, 47, 72
2, 21140, Note_on_c, 0, 76, 84
2, 21212, Note_on_c, 0, 52, 0
2, 21212, Note_on_c, 0, 71, 0
2, 21216, Note_on_c, 0, 52, 72
2, 21216, Note_on_c, 0, 71, 80
2, 21288, Note_on_c, 0, 56, 0
2, 21296, Note_on_c, 0, 73, 0
2, 21299, Note_on_c, 0, 56, 83
2, 21301, Note_on_c, 0, 73, 82
2, 21388, Note_on_c, 0, 52, 0
2, 21388, Note_on_c, 0, 71, 0
2, 21393, Note_on_c, 0, 71, 83
2, 21393, Note_on_c, 0, 52, 67
2, 21457, Note_on_c, 0, 73, 0
2, 21462, Note_on_c, 0, 73, 79
2, 21480, Note_on_c, 0, 47, 0
2, 21485, Note_on_c, 0, 47, 74
2, 21534, Note_on_c, 0, 71, 0
2, 21544, Note_on_c, 0, 71, 80
2, 21592, Control_c, 0, 64, 0
2, 21596, Note_on_c, 0, 40, 0
2, 21603, Note_on_c, 0, 40, 84
2, 21611, Note_on_c, 0, 76, 0
2, 21611, Control_c, 0, 64, 127
2, 21617, Note_on_c, 0, 76, 96
2, 21672, Note_on_c, 0, 75, 0
2, 21681, Note_on_c, 0, 75, 82
2, 21757, Note_on_c, 0, 47, 0
2, 21757, Note_on_c, 0, 76, 0
2, 21764, Note_on_c, 0, 76, 83
2, 21764, Note_on_c, 0, 47, 69
2, 21826, Note_on_c, 0, 52, 0
2, 21826, Note_on_c, 0, 71, 0
2, 21835, Note_on_c, 0, 71, 88
2, 21837, Note_on_c, 0, 52, 71
2, 21903, Note_on_c, 0, 73, 0
2, 21912, Note_on_c, 0, 73, 84
2, 21918, Note_on_c, 0, 56, 0
2, 21925, Note_on_c, 0, 56, 80
2, 22003, Note_on_c, 0, 71, 0
2, 22008, Note_on_c, 0, 71, 67
2, 22010, Note_on_c, 0, 52, 0
2, 22018, Note_on_c, 0, 52, 73
2, 22064, Note_on_c, 0, 73, 0
2, 22070, Note_on_c, 0, 73, 83
2, 22103, Note_on_c, 0, 47, 0
2, 22109, Note_on_c, 0, 47, 77
2, 22210, Note_on_c, 0, 40, 0
2, 22211, Control_c, 0, 64, 0
2, 22213, Note_on_c, 0, 47, 0
2, 22214, Note_on_c, 0, 73, 0
2, 22214, Note_on_c, 0, 52, 0
2, 22214, Note_on_c, 0, 71, 0
2, 22214, Note_on_c, 0, 28, 0
2, 22214, Note_on_c, 0, 56, 0
2, 22218, Note_on_c, 0, 59, 0
2, 22219, Note_on_c, 0, 40, 88
2, 22220, Note_on_c, 0, 88, 105
2, 22233, Note_on_c, 0, 75, 0
2, 22233, Note_on_c, 0, 76, 0
2, 22233, Note_on_c, 0, 83, 0
2, 22241, Note_on_c, 0, 80, 0
2, 22242, Note_on_c, 0, 83, 96
2, 22244, Note_on_c, 0, 76, 102
2, 22246, Note_on_c, 0, 80, 91
2, 22287, Control_c, 0, 64, 127
2, 22421, Note_on_c, 0, 47, 68
2, 22471, Note_on_c, 0, 83, 0
2, 22479, Note_on_c, 0, 88, 0
2, 22482, Note_on_c, 0, 83, 88
2, 22485, Note_on_c, 0, 88, 98
2, 22487, Note_on_c, 0, 76, 0
2, 22487, Note_on_c, 0, 80, 0
2, 22497, Note_on_c, 0, 76, 89
2, 22497, Note_on_c, 0, 52, 72
2, 22498, Note_on_c, 0, 80, 82
2, 22556, Note_on_c, 0, 76, 0
2, 22556, Note_on_c, 0, 80, 0
2, 22556, Note_on_c, 0, 88, 0
2, 22560, Note_on_c, 0, 80, 100
2, 22561, Note_on_c, 0, 88, 100
2, 22565, Note_on_c, 0, 76, 101
2, 22571, Note_on_c, 0, 83, 0
2, 22576, Note_on_c, 0, 83, 75
2, 22580, Note_on_c, 0, 56, 83
2, 22648, Note_on_c, 0, 52, 0
2, 22655, Note_on_c, 0, 52, 75
2, 22732, Note_on_c, 0, 47, 0
2, 22738, Note_on_c, 0, 47, 76
2, 22855, Note_on_c, 0, 40, 0
2, 22855, Note_on_c, 0, 76, 0
2, 22862, Note_on_c, 0, 40, 83
2, 22866, Note_on_c, 0, 76, 91
2, 22940, Note_on_c, 0, 75, 82
2, 23009, Note_on_c, 0, 76, 0
2, 23016, Note_on_c, 0, 47, 0
2, 23019, Note_on_c, 0, 76, 76
2, 23023, Note_on_c, 0, 47, 72
2, 23093, Note_on_c, 0, 52, 0
2, 23098, Note_on_c, 0, 71, 79
2, 23102, Note_on_c, 0, 52, 71
2, 23178, Note_on_c, 0, 56, 0
2, 23188, Note_on_c, 0, 56, 78
2, 23188, Note_on_c, 0, 73, 85
2, 23262, Note_on_c, 0, 52, 0
2, 23262, Note_on_c, 0, 71, 0
2, 23270, Note_on_c, 0, 52, 74
2, 23273, Note_on_c, 0, 71, 76
2, 23339, Note_on_c, 0, 73, 0
2, 23344, Note_on_c, 0, 73, 78
2, 23370, Note_on_c, 0, 47, 0
2, 23374, Note_on_c, 0, 47, 70
2, 23424, Note_on_c, 0, 71, 0
2, 23433, Note_on_c, 0, 71, 76
2, 23477, Note_on_c, 0, 40, 0
2, 23481, Control_c, 0, 64, 0
2, 23483, Note_on_c, 0, 80, 0
2, 23484, Note_on_c, 0, 40, 81
2, 23493, Note_on_c, 0, 76, 0
2, 23498, Note_on_c, 0, 76, 95
2, 23508, Control_c, 0, 64, 127
2, 23562, Note_on_c, 0, 75, 0
2, 23572, Note_on_c, 0, 75, 81
2, 23631, Note_on_c, 0, 47, 0
2, 23639, Note_on_c, 0, 76, 0
2, 23640, Note_on_c, 0, 47, 70
2, 23643, Note_on_c, 0, 76, 75
2, 23708, Note_on_c, 0, 52, 0
2, 23708, Note_on_c, 0, 71, 0
2, 23714, Note_on_c, 0, 71, 81
2, 23719, Note_on_c, 0, 52, 73
2, 23784, Note_on_c, 0, 73, 0
2, 23795, Note_on_c, 0, 73, 79
2, 23800, Note_on_c, 0, 56, 0
2, 23804, Note_on_c, 0, 56, 81
2, 23884, Note_on_c, 0, 52, 0
2, 23884, Note_on_c, 0, 71, 0
2, 23894, Note_on_c, 0, 71, 76
2, 23895, Note_on_c, 0, 52, 72
2, 23953, Note_on_c, 0, 73, 0
2, 23964, Note_on_c, 0, 73, 79
2, 23984, Note_on_c, 0, 47, 0
2, 23994, Note_on_c, 0, 47, 72
2, 24030, Note_on_c, 0, 71, 0
2, 24036, Note_on_c, 0, 71, 71
2, 24099, Note_on_c, 0, 40, 0
2, 24107, Note_on_c, 0, 76, 0
2, 24110, Control_c, 0, 64, 0
2, 24110, Note_on_c, 0, 40, 92
2, 24113, Note_on_c, 0, 76, 102
2, 24114, Note_on_c, 0, 73, 0
2, 24116, Note_on_c, 0, 88, 0
2, 24117, Note_on_c, 0, 75, 0
2, 24117, Note_on_c, 0, 47, 0
2, 24117, Note_on_c, 0, 83, 0
2, 24118, Note_on_c, 0, 52, 0
2, 24118, Note_on_c, 0, 56, 0
2, 24186, Note_on_c, 0, 75, 89
2, 24192, Control_c, 0, 64, 127
2, 24273, Note_on_c, 0, 73, 77
2, 24275, Note_on_c, 0, 47, 72
2, 24353, Note_on_c, 0, 71, 0
2, 24356, Note_on_c, 0, 52, 74
2, 24358, Note_on_c, 0, 71, 77
2, 24410, Note_on_c, 0, 69, 78
2, 24440, Note_on_c, 0, 56, 79
2, 24480, Note_on_c, 0, 68, 85
2, 24537, Note_on_c, 0, 52, 0
2, 24541, Note_on_c, 0, 52, 65
2, 24550, Note_on_c, 0, 66, 81
2, 24614, Note_on_c, 0, 47, 0
2, 24620, Note_on_c, 0, 64, 82
2, 24622, Note_on_c, 0, 47, 71
2, 24715, Control_c, 0, 64, 0
2, 24720, Note_on_c, 0, 69, 0
2, 24720, Note_on_c, 0, 68, 0
2, 24720, Note_on_c, 0, 52, 0
2, 24720, Note_on_c, 0, 75, 0
2, 24720, Note_on_c, 0, 71, 0
2, 24721, Note_on_c, 0, 73, 0
2, 24722, Note_on_c, 0, 66, 0
2, 24722, Note_on_c, 0, 76, 0
2, 24729, Note_on_c, 0, 40, 0
2, 24729, Note_on_c, 0, 64, 0
2, 24737, Note_on_c, 0, 56, 0
2, 24739, Note_on_c, 0, 64, 98
2, 24740, Note_on_c, 0, 40, 88
2, 24746, Note_on_c, 0, 56, 96
2, 24791, Control_c, 0, 64, 127
2, 24898, Note_on_c, 0, 47, 0
2, 24908, Note_on_c, 0, 47, 69
2, 24977, Note_on_c, 0, 52, 69
2, 25082, Note_on_c, 0, 56, 0
2, 25087, Note_on_c, 0, 56, 75
2, 25144, Note_on_c, 0, 52, 0
2, 25148, Note_on_c, 0, 52, 63
2, 25213, Note_on_c, 0, 47, 0
2, 25224, Note_on_c, 0, 47, 60
2, 25297, Note_on_c, 0, 52, 0
2, 25301, Note_on_c, 0, 52, 61
2, 25367, Note_on_c, 0, 40, 0
2, 25371, Control_c, 0, 64, 0
2, 25375, Note_on_c, 0, 40, 78
2, 25391, Note_on_c, 0, 47, 0
2, 25451, Note_on_c, 0, 52, 0
2, 25459, Control_c, 0, 64, 127
2, 25459, Note_on_c, 0, 52, 69
2, 25533, Note_on_c, 0, 47, 69
2, 25605, Note_on_c, 0, 52, 0
2, 25611, Note_on_c, 0, 52, 69
2, 25704, Note_on_c, 0, 56, 0
2, 25716, Note_on_c, 0, 56, 74
2, 25766, Note_on_c, 0, 52, 0
2, 25777, Note_on_c, 0, 52, 58
2, 25850, Note_on_c, 0, 47, 0
2, 25856, Note_on_c, 0, 47, 66
2, 25935, Note_on_c, 0, 52, 0
2, 25944, Note_on_c, 0, 52, 55
2, 26023, Note_on_c, 0, 66, 98
2, 26026, Note_on_c, 0, 57, 82
2, 26027, Note_on_c, 0, 40, 0
2, 26032, Note_on_c, 0, 40, 76
2, 26032, Control_c, 0, 64, 0
2, 26053, Note_on_c, 0, 64, 0
2, 26053, Note_on_c, 0, 56, 0
2, 26054, Note_on_c, 0, 47, 0
2, 26073, Note_on_c, 0, 52, 0
2, 26108, Note_on_c, 0, 52, 65
2, 26142, Control_c, 0, 64, 127
2, 26194, Note_on_c, 0, 47, 57
2, 26257, Note_on_c, 0, 52, 0
2, 26268, Note_on_c, 0, 52, 62
2, 26347, Note_on_c, 0, 56, 71
2, 26411, Note_on_c, 0, 52, 0
2, 26422, Note_on_c, 0, 52, 54
2, 26480, Note_on_c, 0, 47, 0
2, 26485, Note_on_c, 0, 47, 70
2, 26572, Note_on_c, 0, 52, 0
2, 26579, Note_on_c, 0, 52, 54
2, 26662, Note_on_c, 0, 68, 101
2, 26664, Note_on_c, 0, 40, 0
2, 26667, Control_c, 0, 64, 0
2, 26674, Note_on_c, 0, 56, 0
2, 26674, Note_on_c, 0, 47, 0
2, 26674, Note_on_c, 0, 40, 75
2, 26674, Note_on_c, 0, 52, 0
2, 26675, Note_on_c, 0, 57, 0
2, 26676, Note_on_c, 0, 66, 0
2, 26683, Note_on_c, 0, 59, 81
2, 26745, Note_on_c, 0, 52, 64
2, 26780, Control_c, 0, 64, 127
2, 26823, Note_on_c, 0, 47, 72
2, 26887, Note_on_c, 0, 52, 0
2, 26899, Note_on_c, 0, 52, 65
2, 26994, Note_on_c, 0, 56, 75
2, 27048, Note_on_c, 0, 52, 0
2, 27060, Note_on_c, 0, 52, 58
2, 27125, Note_on_c, 0, 47, 0
2, 27132, Note_on_c, 0, 47, 61
2, 27210, Note_on_c, 0, 52, 0
2, 27215, Note_on_c, 0, 52, 57
2, 27305, Control_c, 0, 64, 0
2, 27307, Note_on_c, 0, 64, 99
2, 27308, Note_on_c, 0, 52, 0
2, 27310, Note_on_c, 0, 40, 0
2, 27310, Note_on_c, 0, 56, 0
2, 27312, Note_on_c, 0, 68, 0
2, 27312, Note_on_c, 0, 47, 0
2, 27312, Note_on_c, 0, 59, 0
2, 27313, Note_on_c, 0, 61, 86
2, 27319, Note_on_c, 0, 40, 74
2, 27389, Note_on_c, 0, 52, 74
2, 27425, Control_c, 0, 64, 127
2, 27532, Note_on_c, 0, 52, 0
2, 27542, Note_on_c, 0, 52, 71
2, 27644, Note_on_c, 0, 57, 65
2, 27720, Note_on_c, 0, 49, 64
2, 27816, Note_on_c, 0, 52, 0
2, 27825, Note_on_c, 0, 52, 61
2, 27924, Note_on_c, 0, 40, 0
2, 27933, Note_on_c, 0, 59, 84
2, 27935, Note_on_c, 0, 40, 68
2, 27943, Control_c, 0, 64, 0
2, 27958, Note_on_c, 0, 57, 0
2, 27958, Note_on_c, 0, 49, 0
2, 27959, Note_on_c, 0, 61, 0
2, 28001, Control_c, 0, 64, 127
2, 28008, Note_on_c, 0, 52, 0
2, 28016, Note_on_c, 0, 52, 69
2, 28089, Note_on_c, 0, 49, 71
2, 28154, Note_on_c, 0, 52, 0
2, 28160, Note_on_c, 0, 52, 69
2, 28258, Note_on_c, 0, 57, 65
2, 28331, Note_on_c, 0, 52, 0
2, 28336, Note_on_c, 0, 52, 56
2, 28385, Note_on_c, 0, 49, 0
2, 28394, Note_on_c, 0, 49, 71
2, 28462, Note_on_c, 0, 52, 0
2, 28472, Note_on_c, 0, 52, 68
2, 28550, Note_on_c, 0, 69, 98
2, 28554, Note_on_c, 0, 40, 0
2, 28558, Control_c, 0, 64, 0
2, 28563, Note_on_c, 0, 61, 81
2, 28565, Note_on_c, 0, 40, 79
2, 28572, Note_on_c, 0, 57, 0
2, 28573, Note_on_c, 0, 59, 0
2, 28573, Note_on_c, 0, 49, 0
2, 28574, Note_on_c, 0, 64, 0
2, 28592, Note_on_c, 0, 52, 0
2, 28640, Note_on_c, 0, 52, 72
2, 28661, Control_c, 0, 64, 127
2, 28706, Note_on_c, 0, 49, 74
2, 28761, Note_on_c, 0, 52, 0
2, 28769, Note_on_c, 0, 52, 70
2, 28893, Note_on_c, 0, 57, 70
2, 28961, Note_on_c, 0, 52, 0
2, 28969, Note_on_c, 0, 52, 61
2, 29015, Note_on_c, 0, 49, 0
2, 29025, Note_on_c, 0, 49, 72
2, 29107, Note_on_c, 0, 52, 0
2, 29111, Note_on_c, 0, 52, 60
2, 29176, Note_on_c, 0, 57, 0
2, 29178, Note_on_c, 0, 68, 100
2, 29187, Note_on_c, 0, 57, 80
2, 29191, Note_on_c, 0, 40, 0
2, 29195, Note_on_c, 0, 40, 74
2, 29196, Note_on_c, 0, 52, 0
2, 29196, Note_on_c, 0, 61, 0
2, 29198, Control_c, 0, 64, 0
2, 29198, Note_on_c, 0, 69, 0
2, 29214, Note_on_c, 0, 49, 0
2, 29266, Note_on_c, 0, 52, 65
2, 29283, Control_c, 0, 64, 127
2, 29342, Note_on_c, 0, 49, 75
2, 29406, Note_on_c, 0, 52, 0
2, 29415, Note_on_c, 0, 52, 70
2, 29498, Note_on_c, 0, 57, 0
2, 29505, Note_on_c, 0, 57, 70
2, 29560, Note_on_c, 0, 52, 0
2, 29571, Note_on_c, 0, 52, 62
2, 29644, Note_on_c, 0, 49, 0
2, 29652, Note_on_c, 0, 49, 68
2, 29713, Note_on_c, 0, 52, 0
2, 29725, Note_on_c, 0, 52, 67
2, 29793, Note_on_c, 0, 52, 0
2, 29794, Note_on_c, 0, 49, 0
2, 29794, Note_on_c, 0, 57, 0
2, 29795, Control_c, 0, 64, 0
2, 29812, Note_on_c, 0, 64, 99
2, 29813, Note_on_c, 0, 40, 0
2, 29821, Note_on_c, 0, 68, 0
2, 29822, Note_on_c, 0, 62, 85
2, 29825, Note_on_c, 0, 40, 82
2, 29894, Note_on_c, 0, 54, 74
2, 29898, Control_c, 0, 64, 127
2, 30013, Note_on_c, 0, 50, 64
2, 30059, Note_on_c, 0, 54, 0
2, 30064, Note_on_c, 0, 54, 56
2, 30129, Note_on_c, 0, 57, 78
2, 30190, Note_on_c, 0, 54, 0
2, 30200, Note_on_c, 0, 54, 54
2, 30282, Note_on_c, 0, 50, 0
2, 30288, Note_on_c, 0, 50, 66
2, 30336, Note_on_c, 0, 54, 0
2, 30340, Note_on_c, 0, 54, 73
2, 30420, Note_on_c, 0, 40, 0
2, 30426, Note_on_c, 0, 40, 81
2, 30426, Note_on_c, 0, 61, 81
2, 30428, Control_c, 0, 64, 0
2, 30439, Note_on_c, 0, 62, 0
2, 30439, Note_on_c, 0, 64, 0
2, 30439, Note_on_c, 0, 57, 0
2, 30440, Note_on_c, 0, 50, 0
2, 30497, Note_on_c, 0, 54, 0
2, 30504, Control_c, 0, 64, 127
2, 30507, Note_on_c, 0, 54, 71
2, 30602, Note_on_c, 0, 50, 61
2, 30673, Note_on_c, 0, 54, 0
2, 30684, Note_on_c, 0, 54, 52
2, 30741, Note_on_c, 0, 57, 64
2, 30812, Note_on_c, 0, 54, 0
2, 30816, Note_on_c, 0, 54, 59
2, 30888, Note_on_c, 0, 50, 0
2, 30897, Note_on_c, 0, 50, 60
2, 30950, Note_on_c, 0, 54, 0
2, 30960, Note_on_c, 0, 54, 65
2, 31043, Control_c, 0, 64, 0
2, 31051, Note_on_c, 0, 50, 0
2, 31051, Note_on_c, 0, 54, 0
2, 31053, Note_on_c, 0, 68, 101
2, 31053, Note_on_c, 0, 61, 0
2, 31057, Note_on_c, 0, 40, 0
2, 31064, Note_on_c, 0, 40, 77
2, 31065, Note_on_c, 0, 57, 0
2, 31069, Note_on_c, 0, 57, 79
2, 31119, Control_c, 0, 64, 127
2, 31144, Note_on_c, 0, 54, 67
2, 31225, Note_on_c, 0, 50, 61
2, 31296, Note_on_c, 0, 54, 0
2, 31307, Note_on_c, 0, 54, 53
2, 31372, Note_on_c, 0, 57, 0
2, 31377, Note_on_c, 0, 57, 58
2, 31426, Note_on_c, 0, 54, 0
2, 31434, Note_on_c, 0, 54, 61
2, 31518, Note_on_c, 0, 50, 0
2, 31530, Note_on_c, 0, 50, 55
2, 31587, Note_on_c, 0, 54, 0
2, 31591, Note_on_c, 0, 54, 68
2, 31682, Control_c, 0, 64, 0
2, 31682, Note_on_c, 0, 68, 0
2, 31682, Note_on_c, 0, 54, 0
2, 31683, Note_on_c, 0, 50, 0
2, 31683, Note_on_c, 0, 57, 0
2, 31687, Note_on_c, 0, 40, 0
2, 31690, Note_on_c, 0, 66, 96
2, 31696, Note_on_c, 0, 40, 76
2, 31700, Note_on_c, 0, 61, 81
2, 31756, Control_c, 0, 64, 127
2, 31759, Note_on_c, 0, 54, 67
2, 31859, Note_on_c, 0, 50, 61
2, 31918, Note_on_c, 0, 54, 0
2, 31922, Note_on_c, 0, 54, 58
2, 32001, Note_on_c, 0, 57, 65
2, 32048, Note_on_c, 0, 54, 0
2, 32055, Note_on_c, 0, 54, 59
2, 32148, Note_on_c, 0, 50, 0
2, 32152, Note_on_c, 0, 50, 53
2, 32186, Note_on_c, 0, 54, 0
2, 32198, Note_on_c, 0, 54, 69
2, 32307, Note_on_c, 0, 64, 96
2, 32308, Control_c, 0, 64, 0
2, 32309, Note_on_c, 0, 40, 0
2, 32311, Note_on_c, 0, 54, 0
2, 32312, Note_on_c, 0, 66, 0
2, 32312, Note_on_c, 0, 57, 0
2, 32312, Note_on_c, 0, 50, 0
2, 32312, Note_on_c, 0, 61, 0
2, 32313, Note_on_c, 0, 59, 96
2, 32317, Note_on_c, 0, 40, 90
2, 32394, Control_c, 0, 64, 127
2, 32477, Note_on_c, 0, 47, 72
2, 32554, Note_on_c, 0, 52, 69
2, 32653, Note_on_c, 0, 73, 57
2, 32654, Note_on_c, 0, 56, 72
2, 32711, Note_on_c, 0, 71, 69
2, 32716, Note_on_c, 0, 52, 0
2, 32722, Note_on_c, 0, 52, 71
2, 32778, Note_on_c, 0, 73, 0
2, 32783, Note_on_c, 0, 73, 78
2, 32801, Note_on_c, 0, 47, 0
2, 32812, Note_on_c, 0, 47, 60
2, 32870, Note_on_c, 0, 52, 0
2, 32870, Note_on_c, 0, 71, 0
2, 32876, Note_on_c, 0, 71, 73
2, 32877, Note_on_c, 0, 52, 61
2, 32935, Note_on_c, 0, 76, 93
2, 32960, Note_on_c, 0, 38, 64
2, 32970, Note_on_c, 0, 38, 0
2, 33012, Note_on_c, 0, 75, 77
2, 33077, Note_on_c, 0, 47, 0
2, 33085, Note_on_c, 0, 76, 0
2, 33088, Note_on_c, 0, 47, 68
2, 33095, Note_on_c, 0, 76, 75
2, 33146, Note_on_c, 0, 52, 0
2, 33157, Note_on_c, 0, 52, 73
2, 33177, Note_on_c, 0, 71, 0
2, 33181, Note_on_c, 0, 71, 81
2, 33246, Note_on_c, 0, 56, 0
2, 33246, Note_on_c, 0, 73, 0
2, 33250, Note_on_c, 0, 56, 75
2, 33251, Note_on_c, 0, 73, 82
2, 33323, Note_on_c, 0, 52, 0
2, 33331, Note_on_c, 0, 71, 0
2, 33334, Note_on_c, 0, 52, 69
2, 33335, Note_on_c, 0, 71, 77
2, 33400, Note_on_c, 0, 73, 0
2, 33408, Note_on_c, 0, 47, 0
2, 33411, Note_on_c, 0, 73, 78
2, 33413, Note_on_c, 0, 47, 74
2, 33484, Note_on_c, 0, 52, 0
2, 33484, Note_on_c, 0, 71, 0
2, 33488, Note_on_c, 0, 52, 72
2, 33494, Note_on_c, 0, 71, 80
2, 33553, Note_on_c, 0, 40, 0
2, 33560, Note_on_c, 0, 40, 80
2, 33561, Note_on_c, 0, 76, 0
2, 33566, Note_on_c, 0, 76, 94
2, 33630, Note_on_c, 0, 75, 0
2, 33641, Note_on_c, 0, 75, 79
2, 33707, Note_on_c, 0, 47, 0
2, 33715, Note_on_c, 0, 76, 0
2, 33718, Note_on_c, 0, 47, 73
2, 33721, Note_on_c, 0, 76, 83
2, 33753, Note_on_c, 0, 71, 0
2, 33759, Note_on_c, 0, 71, 74
2, 33768, Note_on_c, 0, 52, 0
2, 33778, Note_on_c, 0, 52, 71
2, 33822, Note_on_c, 0, 73, 0
2, 33833, Note_on_c, 0, 73, 83
2, 33861, Note_on_c, 0, 56, 0
2, 33865, Note_on_c, 0, 56, 78
2, 33891, Note_on_c, 0, 71, 0
2, 33896, Note_on_c, 0, 71, 79
2, 33930, Note_on_c, 0, 52, 0
2, 33934, Note_on_c, 0, 52, 74
2, 33968, Note_on_c, 0, 73, 0
2, 33972, Note_on_c, 0, 73, 85
2, 34046, Note_on_c, 0, 48, 65
2, 34053, Note_on_c, 0, 48, 0
2, 34068, Note_on_c, 0, 71, 0
2, 34072, Note_on_c, 0, 71, 77
2, 34083, Note_on_c, 0, 52, 0
2, 34090, Note_on_c, 0, 52, 74
2, 34152, Note_on_c, 0, 40, 0
2, 34152, Note_on_c, 0, 76, 0
2, 34158, Note_on_c, 0, 40, 90
2, 34164, Note_on_c, 0, 76, 99
2, 34242, Note_on_c, 0, 78, 90
2, 34306, Note_on_c, 0, 47, 0
2, 34310, Note_on_c, 0, 47, 76
2, 34319, Note_on_c, 0, 80, 78
2, 34375, Note_on_c, 0, 52, 0
2, 34384, Note_on_c, 0, 52, 69
2, 34406, Note_on_c, 0, 81, 80
2, 34460, Note_on_c, 0, 56, 0
2, 34470, Note_on_c, 0, 56, 78
2, 34470, Note_on_c, 0, 83, 95
2, 34536, Note_on_c, 0, 52, 0
2, 34542, Note_on_c, 0, 52, 77
2, 34542, Note_on_c, 0, 85, 90
2, 34617, Note_on_c, 0, 87, 85
2, 34629, Note_on_c, 0, 47, 0
2, 34636, Note_on_c, 0, 47, 72
2, 34690, Note_on_c, 0, 52, 0
2, 34692, Note_on_c, 0, 88, 89
2, 34700, Note_on_c, 0, 52, 70
2, 34775, Note_on_c, 0, 76, 0
2, 34775, Note_on_c, 0, 88, 0
2, 34781, Note_on_c, 0, 88, 105
2, 34785, Note_on_c, 0, 76, 103
2, 34791, Note_on_c, 0, 47, 0
2, 34792, Control_c, 0, 64, 0
2, 34793, Note_on_c, 0, 83, 0
2, 34793, Note_on_c, 0, 56, 0
2, 34794, Note_on_c, 0, 87, 0
2, 34794, Note_on_c, 0, 59, 0
2, 34794, Note_on_c, 0, 64, 0
2, 34794, Note_on_c, 0, 85, 0
2, 34795, Note_on_c, 0, 71, 0
2, 34795, Note_on_c, 0, 52, 0
2, 34795, Note_on_c, 0, 81, 0
2, 34795, Note_on_c, 0, 75, 0
2, 34798, Note_on_c, 0, 40, 0
2, 34798, Note_on_c, 0, 80, 0
2, 34801, Note_on_c, 0, 73, 0
2, 34802, Note_on_c, 0, 80, 91
2, 34805, Note_on_c, 0, 78, 0
2, 34808, Note_on_c, 0, 40, 83
2, 34859, Control_c, 0, 64, 127
2, 34868, Note_on_c, 0, 47, 73
2, 34871, Note_on_c, 0, 87, 93
2, 34931, Note_on_c, 0, 52, 74
2, 34944, Note_on_c, 0, 88, 0
2, 34951, Note_on_c, 0, 88, 92
2, 35025, Note_on_c, 0, 56, 67
2, 35031, Note_on_c, 0, 83, 83
2, 35094, Note_on_c, 0, 59, 69
2, 35107, Note_on_c, 0, 85, 87
2, 35143, Note_on_c, 0, 56, 0
2, 35149, Note_on_c, 0, 56, 74
2, 35189, Note_on_c, 0, 83, 0
2, 35196, Note_on_c, 0, 83, 79
2, 35228, Note_on_c, 0, 52, 0
2, 35235, Note_on_c, 0, 52, 66
2, 35266, Note_on_c, 0, 85, 0
2, 35276, Note_on_c, 0, 85, 84
2, 35320, Note_on_c, 0, 47, 0
2, 35325, Note_on_c, 0, 47, 74
2, 35343, Note_on_c, 0, 83, 0
2, 35352, Note_on_c, 0, 83, 78
2, 35412, Note_on_c, 0, 40, 0
2, 35419, Note_on_c, 0, 40, 79
2, 35427, Note_on_c, 0, 88, 0
2, 35434, Control_c, 0, 64, 0
2, 35438, Note_on_c, 0, 88, 96
2, 35458, Control_c, 0, 64, 127
2, 35473, Note_on_c, 0, 76, 0
2, 35504, Note_on_c, 0, 47, 0
2, 35504, Note_on_c, 0, 87, 0
2, 35509, Note_on_c, 0, 47, 71
2, 35515, Note_on_c, 0, 87, 84
2, 35581, Note_on_c, 0, 52, 0
2, 35581, Note_on_c, 0, 88, 0
2, 35585, Note_on_c, 0, 52, 72
2, 35592, Note_on_c, 0, 88, 90
2, 35665, Note_on_c, 0, 56, 0
2, 35665, Note_on_c, 0, 83, 0
2, 35672, Note_on_c, 0, 83, 80
2, 35672, Note_on_c, 0, 56, 70
2, 35742, Note_on_c, 0, 59, 0
2, 35746, Note_on_c, 0, 59, 60
2, 35750, Note_on_c, 0, 85, 0
2, 35754, Note_on_c, 0, 85, 87
2, 35788, Note_on_c, 0, 56, 0
2, 35800, Note_on_c, 0, 56, 71
2, 35819, Note_on_c, 0, 83, 0
2, 35830, Note_on_c, 0, 83, 76
2, 35880, Note_on_c, 0, 52, 0
2, 35886, Note_on_c, 0, 52, 71
2, 35888, Note_on_c, 0, 85, 0
2, 35892, Note_on_c, 0, 85, 80
2, 35965, Note_on_c, 0, 47, 0
2, 35972, Note_on_c, 0, 47, 73
2, 35973, Note_on_c, 0, 83, 0
2, 35979, Note_on_c, 0, 83, 64
2, 35988, Note_on_c, 0, 80, 0
2, 36056, Note_on_c, 0, 78, 105
2, 36059, Note_on_c, 0, 90, 104
2, 36065, Note_on_c, 0, 40, 0
2, 36070, Control_c, 0, 64, 0
2, 36071, Note_on_c, 0, 40, 86
2, 36075, Note_on_c, 0, 47, 0
2, 36075, Note_on_c, 0, 88, 0
2, 36076, Note_on_c, 0, 59, 0
2, 36076, Note_on_c, 0, 85, 0
2, 36076, Note_on_c, 0, 83, 0
2, 36076, Note_on_c, 0, 52, 0
2, 36088, Note_on_c, 0, 56, 0
2, 36088, Note_on_c, 0, 87, 0
2, 36134, Control_c, 0, 64, 127
2, 36153, Note_on_c, 0, 87, 86
2, 36154, Note_on_c, 0, 47, 76
2, 36228, Note_on_c, 0, 52, 72
2, 36230, Note_on_c, 0, 88, 83
2, 36234, Note_on_c, 0, 78, 0
2, 36311, Note_on_c, 0, 56, 75
2, 36313, Note_on_c, 0, 83, 76
2, 36385, Note_on_c, 0, 59, 65
2, 36389, Note_on_c, 0, 85, 86
2, 36426, Note_on_c, 0, 56, 0
2, 36436, Note_on_c, 0, 56, 75
2, 36495, Note_on_c, 0, 83, 0
2, 36506, Note_on_c, 0, 83, 52
2, 36510, Note_on_c, 0, 52, 0
2, 36522, Note_on_c, 0, 52, 63
2, 36564, Note_on_c, 0, 85, 0
2, 36568, Note_on_c, 0, 85, 73
2, 36610, Note_on_c, 0, 47, 0
2, 36618, Note_on_c, 0, 83, 0
2, 36620, Note_on_c, 0, 47, 70
2, 36627, Note_on_c, 0, 83, 66
2, 36692, Note_on_c, 0, 92, 101
2, 36695, Note_on_c, 0, 40, 0
2, 36695, Note_on_c, 0, 80, 99
2, 36701, Note_on_c, 0, 40, 84
2, 36707, Control_c, 0, 64, 0
2, 36712, Note_on_c, 0, 83, 0
2, 36713, Note_on_c, 0, 85, 0
2, 36714, Note_on_c, 0, 88, 0
2, 36714, Note_on_c, 0, 87, 0
2, 36715, Note_on_c, 0, 59, 0
2, 36715, Note_on_c, 0, 90, 0
2, 36719, Note_on_c, 0, 56, 0
2, 36741, Note_on_c, 0, 47, 0
2, 36779, Control_c, 0, 64, 127
2, 36786, Note_on_c, 0, 47, 71
2, 36814, Note_on_c, 0, 88, 88
2, 36848, Note_on_c, 0, 52, 0
2, 36859, Note_on_c, 0, 52, 71
2, 36923, Note_on_c, 0, 83, 74
2, 36946, Note_on_c, 0, 56, 70
2, 36996, Note_on_c, 0, 85, 85
2, 36999, Note_on_c, 0, 59, 74
2, 37063, Note_on_c, 0, 56, 0
2, 37063, Note_on_c, 0, 83, 0
2, 37067, Note_on_c, 0, 56, 72
2, 37069, Note_on_c, 0, 83, 77
2, 37132, Note_on_c, 0, 52, 0
2, 37136, Note_on_c, 0, 52, 66
2, 37148, Note_on_c, 0, 85, 0
2, 37158, Note_on_c, 0, 85, 82
2, 37217, Note_on_c, 0, 47, 0
2, 37217, Note_on_c, 0, 83, 0
2, 37221, Note_on_c, 0, 47, 67
2, 37224, Note_on_c, 0, 83, 69
2, 37294, Note_on_c, 0, 88, 0
2, 37297, Note_on_c, 0, 81, 91
2, 37299, Note_on_c, 0, 88, 101
2, 37301, Note_on_c, 0, 40, 0
2, 37303, Note_on_c, 0, 76, 95
2, 37311, Note_on_c, 0, 40, 85
2, 37323, Note_on_c, 0, 56, 0
2, 37324, Note_on_c, 0, 92, 0
2, 37328, Note_on_c, 0, 85, 0
2, 37329, Note_on_c, 0, 80, 0
2, 37329, Note_on_c, 0, 59, 0
2, 37329, Control_c, 0, 64, 0
2, 37329, Note_on_c, 0, 83, 0
2, 37334, Note_on_c, 0, 47, 0
2, 37347, Control_c, 0, 64, 127
2, 37390, Note_on_c, 0, 87, 92
2, 37393, Note_on_c, 0, 49, 74
2, 37470, Note_on_c, 0, 52, 0
2, 37470, Note_on_c, 0, 88, 0
2, 37474, Note_on_c, 0, 52, 65
2, 37479, Note_on_c, 0, 88, 88
2, 37546, Note_on_c, 0, 83, 77
2, 37566, Note_on_c, 0, 57, 66
2, 37635, Note_on_c, 0, 85, 88
2, 37636, Note_on_c, 0, 61, 71
2, 37701, Note_on_c, 0, 57, 0
2, 37706, Note_on_c, 0, 57, 59
2, 37724, Note_on_c, 0, 83, 0
2, 37728, Note_on_c, 0, 83, 72
2, 37785, Note_on_c, 0, 85, 0
2, 37792, Note_on_c, 0, 85, 79
2, 37793, Note_on_c, 0, 52, 0
2, 37798, Note_on_c, 0, 52, 69
2, 37816, Note_on_c, 0, 76, 0
2, 37870, Note_on_c, 0, 49, 0
2, 37870, Note_on_c, 0, 83, 0
2, 37874, Note_on_c, 0, 49, 68
2, 37875, Note_on_c, 0, 83, 81
2, 37937, Control_c, 0, 64, 0
2, 37939, Note_on_c, 0, 40, 0
2, 37939, Note_on_c, 0, 88, 0
2, 37943, Note_on_c, 0, 40, 79
2, 37944, Note_on_c, 0, 49, 0
2, 37944, Note_on_c, 0, 87, 0
2, 37945, Note_on_c, 0, 83, 0
2, 37946, Note_on_c, 0, 85, 0
2, 37947, Note_on_c, 0, 81, 0
2, 37948, Note_on_c, 0, 52, 0
2, 37948, Note_on_c, 0, 61, 0
2, 37950, Note_on_c, 0, 88, 97
2, 37962, Note_on_c, 0, 57, 0
2, 38008, Control_c, 0, 64, 127
2, 38019, Note_on_c, 0, 87, 87
2, 38021, Note_on_c, 0, 49, 71
2, 38096, Note_on_c, 0, 52, 66
2, 38100, Note_on_c, 0, 88, 0
2, 38105, Note_on_c, 0, 88, 86
2, 38173, Note_on_c, 0, 83, 77
2, 38203, Note_on_c, 0, 57, 59
2, 38258, Note_on_c, 0, 85, 83
2, 38265, Note_on_c, 0, 61, 66
2, 38323, Note_on_c, 0, 57, 0
2, 38330, Note_on_c, 0, 83, 0
2, 38332, Note_on_c, 0, 57, 62
2, 38336, Note_on_c, 0, 83, 69
2, 38400, Note_on_c, 0, 85, 0
2, 38411, Note_on_c, 0, 85, 80
2, 38415, Note_on_c, 0, 52, 0
2, 38421, Note_on_c, 0, 52, 69
2, 38492, Note_on_c, 0, 49, 0
2, 38492, Note_on_c, 0, 83, 0
2, 38498, Note_on_c, 0, 83, 75
2, 38502, Note_on_c, 0, 49, 69
2, 38557, Note_on_c, 0, 93, 105
2, 38561, Note_on_c, 0, 40, 0
2, 38564, Note_on_c, 0, 81, 98
2, 38570, Note_on_c, 0, 40, 85
2, 38575, Note_on_c, 0, 87, 0
2, 38576, Note_on_c, 0, 88, 0
2, 38578, Note_on_c, 0, 83, 0
2, 38579, Note_on_c, 0, 85, 0
2, 38579, Note_on_c, 0, 49, 0
2, 38579, Note_on_c, 0, 61, 0
2, 38579, Note_on_c, 0, 52, 0
2, 38584, Control_c, 0, 64, 0
2, 38599, Note_on_c, 0, 57, 0
2, 38643, Note_on_c, 0, 87, 84
2, 38645, Control_c, 0, 64, 127
2, 38665, Note_on_c, 0, 49, 75
2, 38728, Note_on_c, 0, 88, 83
2, 38733, Note_on_c, 0, 52, 65
2, 38808, Note_on_c, 0, 83, 72
2, 38823, Note_on_c, 0, 57, 65
2, 38884, Note_on_c, 0, 85, 81
2, 38887, Note_on_c, 0, 61, 68
2, 38952, Note_on_c, 0, 57, 0
2, 38952, Note_on_c, 0, 83, 0
2, 38963, Note_on_c, 0, 57, 64
2, 38964, Note_on_c, 0, 83, 69
2, 39029, Note_on_c, 0, 85, 0
2, 39035, Note_on_c, 0, 85, 78
2, 39052, Note_on_c, 0, 52, 0
2, 39057, Note_on_c, 0, 52, 69
2, 39121, Note_on_c, 0, 83, 0
2, 39129, Note_on_c, 0, 83, 66
2, 39129, Note_on_c, 0, 49, 0
2, 39138, Note_on_c, 0, 49, 64
2, 39189, Note_on_c, 0, 80, 102
2, 39191, Note_on_c, 0, 40, 0
2, 39193, Note_on_c, 0, 92, 101
2, 39197, Note_on_c, 0, 40, 86
2, 39205, Control_c, 0, 64, 0
2, 39208, Note_on_c, 0, 88, 0
2, 39208, Note_on_c, 0, 87, 0
2, 39208, Note_on_c, 0, 83, 0
2, 39209, Note_on_c, 0, 49, 0
2, 39210, Note_on_c, 0, 52, 0
2, 39210, Note_on_c, 0, 61, 0
2, 39210, Note_on_c, 0, 85, 0
2, 39210, Note_on_c, 0, 81, 0
2, 39211, Note_on_c, 0, 57, 0
2, 39221, Note_on_c, 0, 93, 0
2, 39286, Note_on_c, 0, 87, 79
2, 39287, Note_on_c, 0, 49, 72
2, 39290, Control_c, 0, 64, 127
2, 39354, Note_on_c, 0, 88, 84
2, 39365, Note_on_c, 0, 52, 69
2, 39446, Note_on_c, 0, 83, 74
2, 39470, Note_on_c, 0, 57, 41
2, 39517, Note_on_c, 0, 85, 84
2, 39524, Note_on_c, 0, 61, 63
2, 39575, Note_on_c, 0, 83, 0
2, 39582, Note_on_c, 0, 57, 0
2, 39585, Note_on_c, 0, 83, 77
2, 39593, Note_on_c, 0, 57, 62
2, 39651, Note_on_c, 0, 85, 0
2, 39663, Note_on_c, 0, 85, 78
2, 39690, Note_on_c, 0, 52, 0
2, 39695, Note_on_c, 0, 52, 70
2, 39759, Note_on_c, 0, 49, 0
2, 39759, Note_on_c, 0, 83, 0
2, 39765, Note_on_c, 0, 49, 72
2, 39769, Note_on_c, 0, 83, 71
2, 39836, Note_on_c, 0, 88, 0
2, 39839, Note_on_c, 0, 81, 91
2, 39840, Note_on_c, 0, 88, 101
2, 39842, Note_on_c, 0, 76, 97
2, 39851, Note_on_c, 0, 40, 0
2, 39856, Note_on_c, 0, 40, 87
2, 39857, Note_on_c, 0, 49, 0
2, 39858, Note_on_c, 0, 83, 0
2, 39859, Note_on_c, 0, 52, 0
2, 39859, Note_on_c, 0, 92, 0
2, 39859, Note_on_c, 0, 80, 0
2, 39859, Note_on_c, 0, 85, 0
2, 39860, Note_on_c, 0, 61, 0
2, 39863, Control_c, 0, 64, 0
2, 39874, Note_on_c, 0, 57, 0
2, 39874, Note_on_c, 0, 87, 0
2, 39932, Note_on_c, 0, 50, 69
2, 39935, Note_on_c, 0, 87, 89
2, 39936, Control_c, 0, 64, 127
2, 40020, Note_on_c, 0, 88, 0
2, 40022, Note_on_c, 0, 54, 64
2, 40030, Note_on_c, 0, 88, 86
2, 40097, Note_on_c, 0, 83, 76
2, 40098, Note_on_c, 0, 57, 68
2, 40171, Note_on_c, 0, 62, 65
2, 40177, Note_on_c, 0, 85, 84
2, 40266, Note_on_c, 0, 83, 0
2, 40272, Note_on_c, 0, 83, 76
2, 40289, Note_on_c, 0, 54, 0
2, 40293, Note_on_c, 0, 54, 57
2, 40327, Note_on_c, 0, 85, 0
2, 40338, Note_on_c, 0, 85, 87
2, 40389, Note_on_c, 0, 40, 0
2, 40404, Note_on_c, 0, 50, 0
2, 40411, Note_on_c, 0, 50, 70
2, 40419, Note_on_c, 0, 83, 0
2, 40423, Note_on_c, 0, 83, 74
2, 40496, Note_on_c, 0, 88, 0
2, 40503, Control_c, 0, 64, 0
2, 40503, Note_on_c, 0, 40, 84
2, 40507, Note_on_c, 0, 62, 0
2, 40507, Note_on_c, 0, 87, 0
2, 40507, Note_on_c, 0, 50, 0
2, 40507, Note_on_c, 0, 54, 0
2, 40507, Note_on_c, 0, 57, 0
2, 40507, Note_on_c, 0, 81, 0
2, 40508, Note_on_c, 0, 88, 98
2, 40508, Note_on_c, 0, 83, 0
2, 40512, Note_on_c, 0, 76, 0
2, 40519, Note_on_c, 0, 85, 0
2, 40561, Note_on_c, 0, 87, 85
2, 40580, Note_on_c, 0, 50, 70
2, 40581, Control_c, 0, 64, 127
2, 40657, Note_on_c, 0, 88, 0
2, 40662, Note_on_c, 0, 88, 87
2, 40663, Note_on_c, 0, 54, 66
2, 40743, Note_on_c, 0, 83, 75
2, 40750, Note_on_c, 0, 57, 69
2, 40773, Note_on_c, 0, 40, 0
2, 40816, Note_on_c, 0, 85, 86
2, 40817, Note_on_c, 0, 62, 80
2, 40888, Note_on_c, 0, 57, 0
2, 40896, Note_on_c, 0, 83, 0
2, 40899, Note_on_c, 0, 57, 60
2, 40905, Note_on_c, 0, 83, 68
2, 40942, Note_on_c, 0, 54, 0
2, 40949, Note_on_c, 0, 85, 0
2, 40950, Note_on_c, 0, 54, 63
2, 40960, Note_on_c, 0, 85, 83
2, 41041, Note_on_c, 0, 50, 0
2, 41045, Note_on_c, 0, 50, 75
2, 41049, Note_on_c, 0, 83, 0
2, 41054, Note_on_c, 0, 83, 65
2, 41119, Note_on_c, 0, 80, 98
2, 41121, Note_on_c, 0, 92, 99
2, 41121, Note_on_c, 0, 62, 0
2, 41122, Note_on_c, 0, 88, 0
2, 41122, Note_on_c, 0, 54, 0
2, 41122, Note_on_c, 0, 57, 0
2, 41122, Note_on_c, 0, 50, 0
2, 41122, Control_c, 0, 64, 0
2, 41122, Note_on_c, 0, 83, 0
2, 41130, Note_on_c, 0, 40, 90
2, 41141, Note_on_c, 0, 85, 0
2, 41187, Control_c, 0, 64, 127
2, 41202, Note_on_c, 0, 50, 68
2, 41218, Note_on_c, 0, 87, 0
2, 41222, Note_on_c, 0, 87, 84
2, 41295, Note_on_c, 0, 54, 71
2, 41322, Note_on_c, 0, 88, 79
2, 41381, Note_on_c, 0, 57, 66
2, 41383, Note_on_c, 0, 83, 68
2, 41436, Note_on_c, 0, 62, 75
2, 41458, Note_on_c, 0, 85, 83
2, 41548, Note_on_c, 0, 54, 0
2, 41548, Note_on_c, 0, 83, 0
2, 41558, Note_on_c, 0, 83, 69
2, 41559, Note_on_c, 0, 54, 62
2, 41602, Note_on_c, 0, 85, 0
2, 41613, Note_on_c, 0, 85, 84
2, 41648, Note_on_c, 0, 50, 0
2, 41659, Note_on_c, 0, 50, 71
2, 41687, Note_on_c, 0, 83, 0
2, 41695, Note_on_c, 0, 83, 64
2, 41740, Note_on_c, 0, 40, 0
2, 41746, Note_on_c, 0, 78, 99
2, 41752, Note_on_c, 0, 40, 86
2, 41752, Note_on_c, 0, 90, 101
2, 41764, Note_on_c, 0, 88, 0
2, 41764, Note_on_c, 0, 57, 0
2, 41764, Note_on_c, 0, 62, 0
2, 41765, Note_on_c, 0, 83, 0
2, 41765, Note_on_c, 0, 85, 0
2, 41765, Note_on_c, 0, 87, 0
2, 41766, Note_on_c, 0, 54, 0
2, 41766, Note_on_c, 0, 80, 0
2, 41769, Control_c, 0, 64, 0
2, 41794, Note_on_c, 0, 50, 0
2, 41802, Note_on_c, 0, 92, 0
2, 41813, Note_on_c, 0, 50, 70
2, 41839, Note_on_c, 0, 87, 87
2, 41840, Note_on_c, 0, 40, 0
2, 41840, Control_c, 0, 64, 127
2, 41918, Note_on_c, 0, 54, 65
2, 41921, Note_on_c, 0, 88, 85
2, 41925, Note_on_c, 0, 78, 0
2, 41999, Note_on_c, 0, 57, 69
2, 42000, Note_on_c, 0, 83, 76
2, 42067, Note_on_c, 0, 62, 73
2, 42081, Note_on_c, 0, 85, 83
2, 42140, Note_on_c, 0, 54, 0
2, 42140, Note_on_c, 0, 83, 0
2, 42149, Note_on_c, 0, 83, 77
2, 42150, Note_on_c, 0, 54, 63
2, 42224, Note_on_c, 0, 85, 0
2, 42233, Note_on_c, 0, 85, 80
2, 42263, Note_on_c, 0, 50, 0
2, 42272, Note_on_c, 0, 50, 65
2, 42309, Note_on_c, 0, 83, 0
2, 42313, Note_on_c, 0, 83, 69
2, 42370, Note_on_c, 0, 88, 0
2, 42374, Note_on_c, 0, 40, 86
2, 42376, Note_on_c, 0, 88, 103
2, 42381, Note_on_c, 0, 76, 101
2, 42382, Note_on_c, 0, 80, 88
2, 42388, Note_on_c, 0, 50, 0
2, 42388, Note_on_c, 0, 57, 0
2, 42389, Note_on_c, 0, 83, 0
2, 42390, Note_on_c, 0, 87, 0
2, 42390, Note_on_c, 0, 62, 0
2, 42391, Control_c, 0, 64, 0
2, 42393, Note_on_c, 0, 90, 0
2, 42408, Note_on_c, 0, 54, 0
2, 42416, Note_on_c, 0, 85, 0
2, 42447, Control_c, 0, 64, 127
2, 42467, Note_on_c, 0, 47, 77
2, 42473, Note_on_c, 0, 87, 90
2, 42527, Note_on_c, 0, 52, 72
2, 42562, Note_on_c, 0, 88, 0
2, 42571, Note_on_c, 0, 88, 86
2, 42610, Note_on_c, 0, 83, 76
2, 42615, Note_on_c, 0, 56, 66
2, 42683, Note_on_c, 0, 59, 71
2, 42688, Note_on_c, 0, 85, 83
2, 42739, Note_on_c, 0, 56, 0
2, 42744, Note_on_c, 0, 56, 71
2, 42777, Note_on_c, 0, 83, 0
2, 42781, Note_on_c, 0, 83, 75
2, 42816, Note_on_c, 0, 52, 0
2, 42820, Note_on_c, 0, 52, 68
2, 42839, Note_on_c, 0, 85, 0
2, 42849, Note_on_c, 0, 85, 80
2, 42923, Note_on_c, 0, 47, 0
2, 42923, Note_on_c, 0, 83, 0
2, 42927, Note_on_c, 0, 47, 68
2, 42933, Note_on_c, 0, 83, 75
2, 42999, Control_c, 0, 64, 0
2, 43000, Note_on_c, 0, 40, 0
2, 43000, Note_on_c, 0, 88, 0
2, 43004, Note_on_c, 0, 40, 84
2, 43011, Note_on_c, 0, 88, 96
2, 43038, Control_c, 0, 64, 127
2, 43069, Note_on_c, 0, 47, 0
2, 43077, Note_on_c, 0, 87, 0
2, 43078, Note_on_c, 0, 47, 69
2, 43082, Note_on_c, 0, 87, 83
2, 43153, Note_on_c, 0, 52, 0
2, 43160, Note_on_c, 0, 52, 67
2, 43161, Note_on_c, 0, 88, 0
2, 43172, Note_on_c, 0, 88, 88
2, 43238, Note_on_c, 0, 56, 0
2, 43238, Note_on_c, 0, 83, 0
2, 43243, Note_on_c, 0, 56, 73
2, 43248, Note_on_c, 0, 83, 76
2, 43307, Note_on_c, 0, 59, 0
2, 43307, Note_on_c, 0, 85, 0
2, 43312, Note_on_c, 0, 59, 70
2, 43318, Note_on_c, 0, 85, 84
2, 43353, Note_on_c, 0, 56, 0
2, 43359, Note_on_c, 0, 56, 74
2, 43399, Note_on_c, 0, 76, 0
2, 43399, Note_on_c, 0, 83, 0
2, 43403, Note_on_c, 0, 83, 71
2, 43453, Note_on_c, 0, 85, 0
2, 43461, Note_on_c, 0, 52, 0
2, 43461, Note_on_c, 0, 85, 85
2, 43465, Note_on_c, 0, 52, 71
2, 43530, Note_on_c, 0, 47, 0
2, 43536, Note_on_c, 0, 47, 71
2, 43537, Note_on_c, 0, 83, 0
2, 43548, Note_on_c, 0, 83, 72
2, 43614, Note_on_c, 0, 40, 0
2, 43622, Note_on_c, 0, 88, 0
2, 43624, Note_on_c, 0, 40, 81
2, 43625, Control_c, 0, 64, 0
2, 43633, Note_on_c, 0, 88, 94
2, 43668, Control_c, 0, 64, 127
2, 43699, Note_on_c, 0, 47, 0
2, 43699, Note_on_c, 0, 87, 0
2, 43703, Note_on_c, 0, 47, 73
2, 43704, Note_on_c, 0, 87, 85
2, 43760, Note_on_c, 0, 52, 0
2, 43767, Note_on_c, 0, 52, 69
2, 43799, Note_on_c, 0, 88, 0
2, 43804, Note_on_c, 0, 88, 85
2, 43852, Note_on_c, 0, 56, 0
2, 43852, Note_on_c, 0, 83, 0
2, 43861, Note_on_c, 0, 56, 74
2, 43863, Note_on_c, 0, 83, 75
2, 43921, Note_on_c, 0, 59, 0
2, 43921, Note_on_c, 0, 85, 0
2, 43930, Note_on_c, 0, 59, 68
2, 43933, Note_on_c, 0, 85, 85
2, 43968, Note_on_c, 0, 56, 0
2, 43973, Note_on_c, 0, 56, 76
2, 44014, Note_on_c, 0, 83, 0
2, 44024, Note_on_c, 0, 83, 62
2, 44044, Note_on_c, 0, 52, 0
2, 44051, Note_on_c, 0, 52, 73
2, 44106, Note_on_c, 0, 83, 0
2, 44111, Note_on_c, 0, 71, 55
2, 44117, Note_on_c, 0, 83, 57
2, 44121, Note_on_c, 0, 71, 0
2, 44136, Note_on_c, 0, 47, 0
2, 44144, Note_on_c, 0, 47, 72
2, 44206, Note_on_c, 0, 88, 0
2, 44212, Note_on_c, 0, 88, 91
2, 44229, Note_on_c, 0, 40, 0
2, 44240, Note_on_c, 0, 40, 89
2, 44298, Note_on_c, 0, 47, 0
2, 44309, Note_on_c, 0, 47, 62
2, 44335, Note_on_c, 0, 71, 79
2, 44375, Note_on_c, 0, 52, 0
2, 44383, Note_on_c, 0, 52, 73
2, 44427, Note_on_c, 0, 73, 72
2, 44474, Note_on_c, 0, 56, 0
2, 44484, Note_on_c, 0, 56, 75
2, 44486, Note_on_c, 0, 75, 86
2, 44544, Note_on_c, 0, 59, 0
2, 44548, Note_on_c, 0, 59, 94
2, 44558, Note_on_c, 0, 76, 96
2, 44638, Note_on_c, 0, 78, 95
2, 44720, Note_on_c, 0, 80, 0
2, 44725, Note_on_c, 0, 80, 76
2, 44774, Note_on_c, 0, 81, 81
2, 44866, Note_on_c, 0, 83, 0
2, 44874, Note_on_c, 0, 71, 0
2, 44874, Note_on_c, 0, 80, 0
2, 44876, Note_on_c, 0, 32, 98
2, 44877, Note_on_c, 0, 83, 101
2, 44881, Note_on_c, 0, 71, 103
2, 44881, Note_on_c, 0, 75, 0
2, 44883, Note_on_c, 0, 80, 103
2, 44886, Note_on_c, 0, 75, 104
2, 44894, Note_on_c, 0, 87, 0
2, 44894, Control_c, 0, 64, 0
2, 44896, Note_on_c, 0, 59, 0
2, 44896, Note_on_c, 0, 73, 0
2, 44898, Note_on_c, 0, 81, 0
2, 44898, Note_on_c, 0, 78, 0
2, 44899, Note_on_c, 0, 76, 0
2, 44899, Note_on_c, 0, 88, 0
2, 44899, Note_on_c, 0, 52, 0
2, 44900, Note_on_c, 0, 56, 0
2, 44912, Note_on_c, 0, 47, 0
2, 44912, Note_on_c, 0, 85, 0
2, 44920, Note_on_c, 0, 40, 0
2, 45020, Control_c, 0, 64, 127
2, 45032, Note_on_c, 0, 44, 82
2, 45210, Note_on_c, 0, 63, 83
2, 45214, Note_on_c, 0, 51, 78
2, 45291, Note_on_c, 0, 59, 70
2, 45361, Note_on_c, 0, 56, 80
2, 45362, Note_on_c, 0, 47, 67
2, 45411, Note_on_c, 0, 59, 0
2, 45416, Note_on_c, 0, 59, 74
2, 45511, Note_on_c, 0, 56, 0
2, 45517, Note_on_c, 0, 56, 85
2, 45520, Note_on_c, 0, 68, 95
2, 45588, Note_on_c, 0, 63, 0
2, 45594, Note_on_c, 0, 63, 73
2, 45649, Note_on_c, 0, 59, 0
2, 45657, Note_on_c, 0, 51, 0
2, 45660, Note_on_c, 0, 59, 78
2, 45664, Note_on_c, 0, 51, 72
2, 45726, Note_on_c, 0, 63, 0
2, 45731, Note_on_c, 0, 63, 78
2, 45811, Note_on_c, 0, 59, 0
2, 45811, Note_on_c, 0, 71, 0
2, 45815, Note_on_c, 0, 71, 96
2, 45820, Note_on_c, 0, 59, 86
2, 45888, Note_on_c, 0, 68, 0
2, 45892, Note_on_c, 0, 68, 71
2, 45934, Note_on_c, 0, 63, 0
2, 45940, Note_on_c, 0, 63, 71
2, 45949, Note_on_c, 0, 56, 0
2, 45953, Note_on_c, 0, 56, 84
2, 46010, Note_on_c, 0, 68, 0
2, 46021, Note_on_c, 0, 68, 72
2, 46133, Note_on_c, 0, 32, 0
2, 46133, Note_on_c, 0, 75, 0
2, 46136, Note_on_c, 0, 47, 0
2, 46137, Note_on_c, 0, 63, 0
2, 46137, Note_on_c, 0, 75, 103
2, 46137, Note_on_c, 0, 44, 0
2, 46137, Note_on_c, 0, 56, 0
2, 46138, Control_c, 0, 64, 0
2, 46139, Note_on_c, 0, 51, 0
2, 46141, Note_on_c, 0, 68, 0
2, 46141, Note_on_c, 0, 71, 0
2, 46144, Note_on_c, 0, 32, 90
2, 46145, Note_on_c, 0, 68, 86
2, 46146, Note_on_c, 0, 71, 90
2, 46156, Note_on_c, 0, 59, 0
2, 46156, Note_on_c, 0, 80, 0
2, 46172, Note_on_c, 0, 83, 0
2, 46210, Control_c, 0, 64, 127
2, 46230, Note_on_c, 0, 44, 89
2, 46352, Note_on_c, 0, 47, 70
2, 46433, Note_on_c, 0, 71, 0
2, 46433, Note_on_c, 0, 75, 0
2, 46436, Note_on_c, 0, 83, 98
2, 46441, Note_on_c, 0, 51, 72
2, 46441, Note_on_c, 0, 71, 88
2, 46443, Note_on_c, 0, 75, 74
2, 46510, Note_on_c, 0, 56, 87
2, 46612, Note_on_c, 0, 59, 78
2, 46691, Note_on_c, 0, 63, 73
2, 46740, Note_on_c, 0, 32, 0
2, 46748, Note_on_c, 0, 68, 0
2, 46748, Note_on_c, 0, 71, 0
2, 46748, Note_on_c, 0, 75, 0
2, 46748, Note_on_c, 0, 81, 100
2, 46752, Note_on_c, 0, 71, 96
2, 46752, Note_on_c, 0, 75, 98
2, 46752, Note_on_c, 0, 68, 95
2, 46824, Note_on_c, 0, 63, 0
2, 46830, Note_on_c, 0, 63, 71
2, 46886, Note_on_c, 0, 59, 0
2, 46892, Note_on_c, 0, 59, 74
2, 46986, Note_on_c, 0, 56, 0
2, 46990, Note_on_c, 0, 56, 69
2, 47070, Note_on_c, 0, 51, 0
2, 47078, Note_on_c, 0, 51, 65
2, 47139, Note_on_c, 0, 47, 0
2, 47149, Note_on_c, 0, 47, 70
2, 47224, Note_on_c, 0, 44, 0
2, 47230, Note_on_c, 0, 44, 86
2, 47232, Note_on_c, 0, 68, 0
2, 47235, Note_on_c, 0, 80, 99
2, 47243, Note_on_c, 0, 68, 91
2, 47390, Control_c, 0, 64, 0
2, 47394, Note_on_c, 0, 76, 106
2, 47395, Note_on_c, 0, 33, 84
2, 47403, Note_on_c, 0, 64, 98
2, 47404, Note_on_c, 0, 51, 0
2, 47404, Note_on_c, 0, 63, 0
2, 47405, Note_on_c, 0, 68, 0
2, 47405, Note_on_c, 0, 71, 0
2, 47405, Note_on_c, 0, 83, 0
2, 47405, Note_on_c, 0, 44, 0
2, 47405, Note_on_c, 0, 80, 0
2, 47406, Note_on_c, 0, 75, 0
2, 47406, Note_on_c, 0, 56, 0
2, 47406, Note_on_c, 0, 47, 0
2, 47407, Note_on_c, 0, 69, 91
2, 47408, Note_on_c, 0, 81, 0
2, 47409, Note_on_c, 0, 59, 0
2, 47428, Note_on_c, 0, 73, 72
2, 47558, Note_on_c, 0, 40, 80
2, 47616, Control_c, 0, 64, 127
2, 47728, Note_on_c, 0, 45, 67
2, 47730, Note_on_c, 0, 57, 70
2, 47796, Note_on_c, 0, 59, 81
2, 47874, Note_on_c, 0, 49, 74
2, 47877, Note_on_c, 0, 61, 73
2, 47884, Note_on_c, 0, 61, 0
2, 47932, Note_on_c, 0, 63, 81
2, 48000, Note_on_c, 0, 64, 0
2, 48005, Note_on_c, 0, 64, 94
2, 48020, Note_on_c, 0, 52, 83
2, 48069, Note_on_c, 0, 63, 0
2, 48079, Note_on_c, 0, 63, 85
2, 48156, Note_on_c, 0, 61, 80
2, 48184, Note_on_c, 0, 45, 0
2, 48194, Note_on_c, 0, 45, 76
2, 48215, Note_on_c, 0, 59, 0
2, 48221, Note_on_c, 0, 59, 79
2, 48307, Note_on_c, 0, 61, 0
2, 48318, Note_on_c, 0, 61, 80
2, 48345, Note_on_c, 0, 49, 0
2, 48351, Note_on_c, 0, 49, 74
2, 48391, Note_on_c, 0, 64, 0
2, 48402, Note_on_c, 0, 64, 83
2, 48468, Note_on_c, 0, 52, 0
2, 48479, Note_on_c, 0, 52, 70
2, 48480, Note_on_c, 0, 66, 83
2, 48554, Note_on_c, 0, 68, 80
2, 48614, Note_on_c, 0, 57, 0
2, 48614, Note_on_c, 0, 69, 0
2, 48619, Note_on_c, 0, 69, 93
2, 48619, Note_on_c, 0, 57, 88
2, 48691, Note_on_c, 0, 68, 0
2, 48699, Note_on_c, 0, 68, 90
2, 48752, Note_on_c, 0, 66, 0
2, 48759, Note_on_c, 0, 66, 83
2, 48775, Note_on_c, 0, 45, 0
2, 48783, Note_on_c, 0, 45, 84
2, 48837, Note_on_c, 0, 64, 0
2, 48841, Note_on_c, 0, 64, 79
2, 48906, Note_on_c, 0, 66, 0
2, 48913, Note_on_c, 0, 66, 77
2, 48936, Note_on_c, 0, 52, 0
2, 48943, Note_on_c, 0, 52, 78
2, 48983, Note_on_c, 0, 68, 0
2, 48994, Note_on_c, 0, 68, 81
2, 49052, Note_on_c, 0, 69, 0
2, 49057, Note_on_c, 0, 69, 76
2, 49082, Note_on_c, 0, 57, 0
2, 49094, Note_on_c, 0, 57, 81
2, 49128, Note_on_c, 0, 71, 85
2, 49205, Note_on_c, 0, 73, 0
2, 49210, Note_on_c, 0, 73, 88
2, 49236, Note_on_c, 0, 61, 0
2, 49243, Note_on_c, 0, 61, 96
2, 49274, Note_on_c, 0, 71, 0
2, 49283, Note_on_c, 0, 71, 78
2, 49351, Note_on_c, 0, 69, 0
2, 49360, Note_on_c, 0, 69, 80
2, 49374, Note_on_c, 0, 57, 0
2, 49379, Note_on_c, 0, 57, 82
2, 49428, Note_on_c, 0, 71, 0
2, 49439, Note_on_c, 0, 71, 78
2, 49505, Note_on_c, 0, 73, 0
2, 49510, Note_on_c, 0, 73, 77
2, 49543, Note_on_c, 0, 52, 0
2, 49554, Note_on_c, 0, 52, 73
2, 49557, Note_on_c, 0, 75, 82
2, 49620, Note_on_c, 0, 76, 0
2, 49627, Note_on_c, 0, 76, 91
2, 49689, Note_on_c, 0, 45, 0
2, 49692, Note_on_c, 0, 78, 85
2, 49693, Note_on_c, 0, 45, 79
2, 49747, Note_on_c, 0, 80, 79
2, 49773, Note_on_c, 0, 81, 86
2, 49863, Note_on_c, 0, 83, 105
2, 49866, Note_on_c, 0, 71, 0
2, 49866, Note_on_c, 0, 76, 0
2, 49873, Note_on_c, 0, 80, 0
2, 49874, Note_on_c, 0, 37, 100
2, 49874, Note_on_c, 0, 71, 96
2, 49877, Note_on_c, 0, 76, 98
2, 49877, Note_on_c, 0, 40, 0
2, 49877, Note_on_c, 0, 45, 0
2, 49877, Note_on_c, 0, 59, 0
2, 49878, Note_on_c, 0, 52, 0
2, 49878, Note_on_c, 0, 64, 0
2, 49878, Note_on_c, 0, 73, 0
2, 49878, Note_on_c, 0, 69, 0
2, 49878, Note_on_c, 0, 78, 0
2, 49878, Control_c, 0, 64, 0
2, 49878, Note_on_c, 0, 75, 0
2, 49878, Note_on_c, 0, 57, 0
2, 49878, Note_on_c, 0, 61, 0
2, 49878, Note_on_c, 0, 49, 0
2, 49879, Note_on_c, 0, 80, 94
2, 49879, Note_on_c, 0, 81, 0
2, 49896, Note_on_c, 0, 63, 0
2, 49896, Note_on_c, 0, 66, 0
2, 49904, Note_on_c, 0, 33, 0
2, 49904, Note_on_c, 0, 68, 0
2, 49958, Control_c, 0, 64, 127
2, 50016, Note_on_c, 0, 44, 80
2, 50180, Note_on_c, 0, 64, 82
2, 50183, Note_on_c, 0, 52, 74
2, 50250, Note_on_c, 0, 59, 71
2, 50334, Note_on_c, 0, 56, 79
2, 50340, Note_on_c, 0, 49, 74
2, 50380, Note_on_c, 0, 59, 0
2, 50387, Note_on_c, 0, 59, 78
2, 50480, Note_on_c, 0, 56, 0
2, 50489, Note_on_c, 0, 56, 79
2, 50491, Note_on_c, 0, 68, 96
2, 50565, Note_on_c, 0, 64, 0
2, 50570, Note_on_c, 0, 64, 54
2, 50603, Note_on_c, 0, 59, 0
2, 50607, Note_on_c, 0, 59, 78
2, 50641, Note_on_c, 0, 52, 0
2, 50647, Note_on_c, 0, 52, 75
2, 50664, Note_on_c, 0, 64, 0
2, 50674, Note_on_c, 0, 64, 76
2, 50787, Note_on_c, 0, 71, 0
2, 50792, Note_on_c, 0, 71, 98
2, 50795, Note_on_c, 0, 59, 0
2, 50801, Note_on_c, 0, 59, 95
2, 50841, Note_on_c, 0, 68, 0
2, 50851, Note_on_c, 0, 68, 77
2, 50910, Note_on_c, 0, 64, 0
2, 50922, Note_on_c, 0, 64, 69
2, 50941, Note_on_c, 0, 56, 0
2, 50945, Note_on_c, 0, 56, 85
2, 50979, Note_on_c, 0, 68, 0
2, 50985, Note_on_c, 0, 68, 76
2, 51033, Note_on_c, 0, 71, 0
2, 51037, Note_on_c, 0, 71, 44
2, 51092, Control_c, 0, 64, 0
2, 51095, Note_on_c, 0, 83, 0
2, 51096, Note_on_c, 0, 80, 0
2, 51096, Note_on_c, 0, 44, 0
2, 51096, Note_on_c, 0, 68, 0
2, 51096, Note_on_c, 0, 56, 0
2, 51096, Note_on_c, 0, 37, 0
2, 51097, Note_on_c, 0, 71, 0
2, 51097, Note_on_c, 0, 59, 0
2, 51097, Note_on_c, 0, 49, 0
2, 51102, Note_on_c, 0, 76, 0
2, 51106, Note_on_c, 0, 81, 104
2, 51110, Note_on_c, 0, 52, 0
2, 51110, Note_on_c, 0, 64, 0
2, 51113, Note_on_c, 0, 76, 98
2, 51114, Note_on_c, 0, 30, 101
2, 51115, Note_on_c, 0, 69, 94
2, 51122, Note_on_c, 0, 73, 83
2, 51156, Control_c, 0, 64, 127
2, 51202, Note_on_c, 0, 42, 97
2, 51323, Note_on_c, 0, 45, 78
2, 51419, Note_on_c, 0, 49, 74
2, 51490, Note_on_c, 0, 54, 74
2, 51591, Note_on_c, 0, 57, 73
2, 51689, Note_on_c, 0, 61, 68
2, 51737, Note_on_c, 0, 80, 103
2, 51740, Note_on_c, 0, 73, 0
2, 51740, Note_on_c, 0, 76, 0
2, 51748, Note_on_c, 0, 68, 103
2, 51748, Note_on_c, 0, 73, 95
2, 51750, Note_on_c, 0, 76, 96
2, 51752, Note_on_c, 0, 66, 94
2, 51901, Note_on_c, 0, 57, 0
2, 51912, Note_on_c, 0, 57, 78
2, 52001, Note_on_c, 0, 54, 0
2, 52012, Note_on_c, 0, 54, 71
2, 52093, Note_on_c, 0, 49, 0
2, 52093, Note_on_c, 0, 57, 0
2, 52097, Note_on_c, 0, 57, 71
2, 52098, Note_on_c, 0, 49, 75
2, 52177, Note_on_c, 0, 45, 0
2, 52183, Note_on_c, 0, 45, 74
2, 52216, Note_on_c, 0, 42, 0
2, 52226, Note_on_c, 0, 42, 85
2, 52368, Note_on_c, 0, 78, 109
2, 52369, Note_on_c, 0, 66, 0
2, 52380, Note_on_c, 0, 66, 104
2, 52381, Note_on_c, 0, 75, 103
2, 52382, Note_on_c, 0, 71, 89
2, 52387, Control_c, 0, 64, 0
2, 52388, Note_on_c, 0, 35, 91
2, 52389, Note_on_c, 0, 80, 0
2, 52389, Note_on_c, 0, 54, 0
2, 52389, Note_on_c, 0, 68, 0
2, 52389, Note_on_c, 0, 42, 0
2, 52390, Note_on_c, 0, 69, 0
2, 52390, Note_on_c, 0, 49, 0
2, 52390, Note_on_c, 0, 81, 0
2, 52390, Note_on_c, 0, 57, 0
2, 52390, Note_on_c, 0, 45, 0
2, 52392, Note_on_c, 0, 30, 0
2, 52408, Note_on_c, 0, 61, 0
2, 52408, Note_on_c, 0, 76, 0
2, 52416, Note_on_c, 0, 73, 0
2, 52520, Note_on_c, 0, 42, 85
2, 52523, Control_c, 0, 64, 127
2, 52711, Note_on_c, 0, 47, 68
2, 52713, Note_on_c, 0, 59, 83
2, 52786, Note_on_c, 0, 61, 79
2, 52856, Note_on_c, 0, 63, 79
2, 52857, Note_on_c, 0, 51, 71
2, 52934, Note_on_c, 0, 64, 82
2, 52999, Note_on_c, 0, 66, 0
2, 53004, Note_on_c, 0, 66, 101
2, 53009, Note_on_c, 0, 54, 88
2, 53022, Note_on_c, 0, 35, 0
2, 53040, Note_on_c, 0, 75, 0
2, 53041, Note_on_c, 0, 42, 0
2, 53041, Note_on_c, 0, 61, 0
2, 53041, Note_on_c, 0, 63, 0
2, 53042, Note_on_c, 0, 47, 0
2, 53042, Note_on_c, 0, 59, 0
2, 53042, Note_on_c, 0, 71, 0
2, 53042, Note_on_c, 0, 51, 0
2, 53046, Control_c, 0, 64, 0
2, 53084, Note_on_c, 0, 64, 0
2, 53084, Control_c, 0, 64, 127
2, 53090, Note_on_c, 0, 64, 85
2, 53166, Note_on_c, 0, 47, 70
2, 53167, Note_on_c, 0, 63, 82
2, 53247, Note_on_c, 0, 61, 79
2, 53314, Note_on_c, 0, 63, 0
2, 53322, Note_on_c, 0, 63, 83
2, 53333, Note_on_c, 0, 51, 76
2, 53399, Note_on_c, 0, 64, 0
2, 53410, Note_on_c, 0, 64, 79
2, 53460, Note_on_c, 0, 54, 0
2, 53470, Note_on_c, 0, 54, 73
2, 53483, Note_on_c, 0, 66, 0
2, 53492, Note_on_c, 0, 66, 84
2, 53563, Note_on_c, 0, 68, 70
2, 53618, Note_on_c, 0, 69, 92
2, 53624, Note_on_c, 0, 59, 89
2, 53679, Note_on_c, 0, 47, 0
2, 53679, Note_on_c, 0, 51, 0
2, 53679, Note_on_c, 0, 63, 0
2, 53679, Note_on_c, 0, 66, 0
2, 53680, Note_on_c, 0, 61, 0
2, 53682, Control_c, 0, 64, 0
2, 53683, Note_on_c, 0, 78, 0
2, 53690, Note_on_c, 0, 68, 0
2, 53695, Note_on_c, 0, 68, 87
2, 53706, Note_on_c, 0, 54, 0
2, 53706, Note_on_c, 0, 64, 0
2, 53706, Control_c, 0, 64, 127
2, 53767, Note_on_c, 0, 66, 86
2, 53798, Note_on_c, 0, 47, 84
2, 53841, Note_on_c, 0, 64, 80
2, 53913, Note_on_c, 0, 66, 0
2, 53917, Note_on_c, 0, 66, 83
2, 53947, Note_on_c, 0, 54, 78
2, 53998, Note_on_c, 0, 68, 0
2, 54003, Note_on_c, 0, 68, 83
2, 54082, Note_on_c, 0, 59, 0
2, 54090, Note_on_c, 0, 69, 0
2, 54093, Note_on_c, 0, 59, 91
2, 54098, Note_on_c, 0, 69, 79
2, 54164, Note_on_c, 0, 71, 85
2, 54234, Note_on_c, 0, 33, 96
2, 54241, Note_on_c, 0, 73, 97
2, 54254, Note_on_c, 0, 47, 0
2, 54254, Note_on_c, 0, 71, 0
2, 54254, Note_on_c, 0, 68, 0
2, 54254, Note_on_c, 0, 54, 0
2, 54255, Note_on_c, 0, 59, 0
2, 54255, Note_on_c, 0, 64, 0
2, 54255, Note_on_c, 0, 66, 0
2, 54256, Control_c, 0, 64, 0
2, 54274, Note_on_c, 0, 69, 0
2, 54317, Note_on_c, 0, 71, 87
2, 54320, Control_c, 0, 64, 127
2, 54386, Note_on_c, 0, 45, 81
2, 54388, Note_on_c, 0, 69, 86
2, 54443, Note_on_c, 0, 71, 0
2, 54454, Note_on_c, 0, 71, 81
2, 54504, Note_on_c, 0, 73, 0
2, 54514, Note_on_c, 0, 73, 92
2, 54539, Note_on_c, 0, 52, 81
2, 54547, Note_on_c, 0, 75, 69
2, 54606, Note_on_c, 0, 76, 97
2, 54676, Note_on_c, 0, 78, 76
2, 54677, Note_on_c, 0, 57, 80
2, 54681, Note_on_c, 0, 78, 0
2, 54701, Note_on_c, 0, 77, 79
2, 54730, Note_on_c, 0, 80, 78
2, 54761, Note_on_c, 0, 81, 88
2, 54842, Note_on_c, 0, 71, 0
2, 54842, Note_on_c, 0, 80, 0
2, 54848, Note_on_c, 0, 44, 103
2, 54850, Note_on_c, 0, 83, 101
2, 54850, Note_on_c, 0, 75, 0
2, 54851, Note_on_c, 0, 80, 107
2, 54851, Note_on_c, 0, 32, 96
2, 54853, Note_on_c, 0, 71, 106
2, 54855, Note_on_c, 0, 75, 106
2, 54857, Control_c, 0, 64, 0
2, 54866, Note_on_c, 0, 77, 0
2, 54867, Note_on_c, 0, 52, 0
2, 54867, Note_on_c, 0, 45, 0
2, 54868, Note_on_c, 0, 76, 0
2, 54868, Note_on_c, 0, 81, 0
2, 54868, Note_on_c, 0, 57, 0
2, 54869, Note_on_c, 0, 33, 0
2, 54869, Note_on_c, 0, 69, 0
2, 54881, Note_on_c, 0, 73, 0
2, 54942, Note_on_c, 0, 44, 0
2, 54942, Control_c, 0, 64, 127
2, 54992, Note_on_c, 0, 44, 74
2, 55183, Note_on_c, 0, 51, 74
2, 55185, Note_on_c, 0, 63, 75
2, 55261, Note_on_c, 0, 59, 70
2, 55308, Note_on_c, 0, 56, 77
2, 55311, Note_on_c, 0, 44, 0
2, 55322, Note_on_c, 0, 44, 74
2, 55323, Note_on_c, 0, 47, 69
2, 55365, Note_on_c, 0, 59, 0
2, 55370, Note_on_c, 0, 59, 80
2, 55464, Note_on_c, 0, 56, 0
2, 55476, Note_on_c, 0, 56, 88
2, 55479, Note_on_c, 0, 68, 95
2, 55541, Note_on_c, 0, 63, 0
2, 55552, Note_on_c, 0, 63, 59
2, 55595, Note_on_c, 0, 59, 0
2, 55605, Note_on_c, 0, 59, 75
2, 55626, Note_on_c, 0, 51, 0
2, 55630, Note_on_c, 0, 51, 85
2, 55672, Note_on_c, 0, 63, 0
2, 55682, Note_on_c, 0, 63, 75
2, 55779, Note_on_c, 0, 71, 0
2, 55787, Note_on_c, 0, 59, 0
2, 55788, Note_on_c, 0, 71, 98
2, 55794, Note_on_c, 0, 59, 97
2, 55841, Note_on_c, 0, 68, 0
2, 55849, Note_on_c, 0, 68, 46
2, 55902, Note_on_c, 0, 63, 0
2, 55909, Note_on_c, 0, 63, 77
2, 55925, Note_on_c, 0, 56, 0
2, 55930, Note_on_c, 0, 56, 86
2, 55971, Note_on_c, 0, 68, 0
2, 55976, Note_on_c, 0, 68, 80
2, 56087, Control_c, 0, 64, 0
2, 56093, Note_on_c, 0, 47, 0
2, 56094, Note_on_c, 0, 63, 0
2, 56095, Note_on_c, 0, 59, 0
2, 56095, Note_on_c, 0, 68, 0
2, 56095, Note_on_c, 0, 56, 0
2, 56096, Note_on_c, 0, 83, 0
2, 56096, Note_on_c, 0, 44, 0
2, 56096, Note_on_c, 0, 51, 0
2, 56105, Note_on_c, 0, 33, 90
2, 56108, Note_on_c, 0, 76, 106
2, 56110, Note_on_c, 0, 32, 0
2, 56110, Note_on_c, 0, 71, 0
2, 56110, Note_on_c, 0, 75, 0
2, 56110, Note_on_c, 0, 80, 0
2, 56122, Note_on_c, 0, 69, 92
2, 56123, Note_on_c, 0, 73, 84
2, 56163, Control_c, 0, 64, 127
2, 56192, Note_on_c, 0, 45, 82
2, 56285, Note_on_c, 0, 49, 79
2, 56380, Note_on_c, 0, 52, 82
2, 56412, Note_on_c, 0, 83, 101
2, 56412, Note_on_c, 0, 71, 96
2, 56459, Note_on_c, 0, 57, 87
2, 56558, Note_on_c, 0, 61, 78
2, 56643, Note_on_c, 0, 64, 75
2, 56716, Note_on_c, 0, 76, 0
2, 56721, Note_on_c, 0, 81, 99
2, 56724, Note_on_c, 0, 69, 0
2, 56724, Note_on_c, 0, 73, 0
2, 56728, Note_on_c, 0, 76, 98
2, 56728, Note_on_c, 0, 73, 97
2, 56728, Note_on_c, 0, 69, 87
2, 56801, Note_on_c, 0, 52, 0
2, 56801, Note_on_c, 0, 64, 0
2, 56807, Note_on_c, 0, 52, 63
2, 56812, Note_on_c, 0, 64, 57
2, 56878, Note_on_c, 0, 61, 0
2, 56885, Note_on_c, 0, 61, 81
2, 56993, Note_on_c, 0, 57, 0
2, 57001, Note_on_c, 0, 57, 71
2, 57054, Note_on_c, 0, 52, 0
2, 57061, Note_on_c, 0, 52, 71
2, 57116, Note_on_c, 0, 49, 0
2, 57124, Note_on_c, 0, 49, 75
2, 57200, Note_on_c, 0, 45, 0
2, 57204, Note_on_c, 0, 80, 101
2, 57209, Note_on_c, 0, 45, 86
2, 57212, Note_on_c, 0, 68, 99
2, 57285, Note_on_c, 0, 49, 0
2, 57291, Note_on_c, 0, 49, 41
2, 57346, Note_on_c, 0, 76, 0
2, 57351, Note_on_c, 0, 37, 97
2, 57357, Note_on_c, 0, 76, 107
2, 57359, Control_c, 0, 64, 0
2, 57361, Note_on_c, 0, 71, 0
2, 57365, Note_on_c, 0, 73, 0
2, 57365, Note_on_c, 0, 52, 0
2, 57365, Note_on_c, 0, 80, 0
2, 57365, Note_on_c, 0, 57, 0
2, 57365, Note_on_c, 0, 49, 0
2, 57365, Note_on_c, 0, 61, 0
2, 57366, Note_on_c, 0, 69, 0
2, 57366, Note_on_c, 0, 81, 0
2, 57367, Note_on_c, 0, 83, 0
2, 57369, Note_on_c, 0, 64, 0
2, 57369, Note_on_c, 0, 68, 0
2, 57371, Note_on_c, 0, 71, 89
2, 57373, Note_on_c, 0, 68, 83
2, 57377, Note_on_c, 0, 33, 0
2, 57378, Note_on_c, 0, 64, 91
2, 57384, Note_on_c, 0, 45, 0
2, 57431, Control_c, 0, 64, 127
2, 57438, Note_on_c, 0, 44, 72
2, 57517, Note_on_c, 0, 49, 80
2, 57595, Note_on_c, 0, 52, 77
2, 57638, Note_on_c, 0, 37, 0
2, 57668, Note_on_c, 0, 56, 81
2, 57753, Note_on_c, 0, 49, 0
2, 57759, Note_on_c, 0, 49, 76
2, 57838, Note_on_c, 0, 52, 0
2, 57847, Note_on_c, 0, 52, 67
2, 57907, Note_on_c, 0, 56, 0
2, 57918, Note_on_c, 0, 56, 76
2, 57984, Note_on_c, 0, 71, 0
2, 57991, Note_on_c, 0, 68, 0
2, 57995, Note_on_c, 0, 71, 103
2, 57999, Note_on_c, 0, 64, 0
2, 58002, Note_on_c, 0, 61, 89
2, 58003, Note_on_c, 0, 68, 100
2, 58005, Note_on_c, 0, 64, 83
2, 58114, Note_on_c, 0, 52, 0
2, 58125, Note_on_c, 0, 52, 70
2, 58206, Note_on_c, 0, 49, 0
2, 58211, Note_on_c, 0, 49, 74
2, 58306, Note_on_c, 0, 56, 0
2, 58313, Note_on_c, 0, 56, 81
2, 58375, Note_on_c, 0, 52, 0
2, 58385, Note_on_c, 0, 52, 49
2, 58437, Note_on_c, 0, 49, 0
2, 58441, Note_on_c, 0, 49, 77
2, 58498, Note_on_c, 0, 44, 0
2, 58509, Note_on_c, 0, 44, 76
2, 58611, Note_on_c, 0, 80, 107
2, 58613, Note_on_c, 0, 68, 0
2, 58620, Note_on_c, 0, 73, 95
2, 58621, Note_on_c, 0, 68, 104
2, 58623, Note_on_c, 0, 42, 100
2, 58623, Note_on_c, 0, 70, 98
2, 58656, Control_c, 0, 64, 0
2, 58656, Note_on_c, 0, 64, 0
2, 58656, Note_on_c, 0, 56, 0
2, 58656, Note_on_c, 0, 52, 0
2, 58656, Note_on_c, 0, 49, 0
2, 58657, Note_on_c, 0, 71, 0
2, 58675, Note_on_c, 0, 44, 0
2, 58675, Note_on_c, 0, 61, 0
2, 58675, Note_on_c, 0, 76, 0
2, 58708, Note_on_c, 0, 49, 30
2, 58736, Control_c, 0, 64, 127
2, 58772, Note_on_c, 0, 54, 82
2, 58866, Note_on_c, 0, 58, 72
2, 58950, Note_on_c, 0, 61, 71
2, 59028, Note_on_c, 0, 54, 0
2, 59033, Note_on_c, 0, 54, 69
2, 59105, Note_on_c, 0, 58, 0
2, 59115, Note_on_c, 0, 58, 71
2, 59174, Note_on_c, 0, 61, 0
2, 59180, Note_on_c, 0, 61, 69
2, 59235, Note_on_c, 0, 78, 105
2, 59235, Note_on_c, 0, 70, 0
2, 59235, Note_on_c, 0, 73, 0
2, 59242, Note_on_c, 0, 73, 91
2, 59245, Note_on_c, 0, 70, 95
2, 59253, Note_on_c, 0, 66, 93
2, 59304, Note_on_c, 0, 49, 0
2, 59310, Note_on_c, 0, 49, 55
2, 59374, Note_on_c, 0, 58, 0
2, 59385, Note_on_c, 0, 58, 70
2, 59435, Note_on_c, 0, 54, 0
2, 59442, Note_on_c, 0, 54, 67
2, 59558, Note_on_c, 0, 61, 0
2, 59567, Note_on_c, 0, 61, 83
2, 59627, Note_on_c, 0, 58, 0
2, 59634, Note_on_c, 0, 58, 72
2, 59688, Note_on_c, 0, 54, 0
2, 59698, Note_on_c, 0, 54, 53
2, 59719, Note_on_c, 0, 49, 0
2, 59728, Note_on_c, 0, 49, 76
2, 59859, Note_on_c, 0, 80, 0
2, 59859, Note_on_c, 0, 58, 0
2, 59860, Note_on_c, 0, 54, 0
2, 59860, Note_on_c, 0, 66, 0
2, 59860, Note_on_c, 0, 49, 0
2, 59861, Control_c, 0, 64, 0
2, 59861, Note_on_c, 0, 61, 0
2, 59861, Note_on_c, 0, 70, 0
2, 59861, Note_on_c, 0, 78, 0
2, 59872, Note_on_c, 0, 81, 102
2, 59873, Note_on_c, 0, 42, 0
2, 59873, Note_on_c, 0, 68, 0
2, 59880, Note_on_c, 0, 73, 0
2, 59883, Note_on_c, 0, 76, 99
2, 59884, Note_on_c, 0, 42, 100
2, 59886, Note_on_c, 0, 30, 100
2, 59886, Note_on_c, 0, 73, 91
2, 59950, Control_c, 0, 64, 127
2, 59976, Note_on_c, 0, 69, 78
2, 60081, Note_on_c, 0, 64, 77
2, 60151, Note_on_c, 0, 61, 81
2, 60209, Note_on_c, 0, 57, 76
2, 60226, Note_on_c, 0, 30, 0
2, 60255, Note_on_c, 0, 52, 70
2, 60314, Note_on_c, 0, 49, 72
2, 60382, Note_on_c, 0, 45, 85
2, 60506, Control_c, 0, 64, 0
2, 60515, Note_on_c, 0, 80, 108
2, 60519, Note_on_c, 0, 45, 0
2, 60519, Note_on_c, 0, 69, 0
2, 60520, Note_on_c, 0, 61, 0
2, 60520, Note_on_c, 0, 52, 0
2, 60520, Note_on_c, 0, 64, 0
2, 60521, Note_on_c, 0, 81, 0
2, 60521, Note_on_c, 0, 42, 0
2, 60521, Note_on_c, 0, 73, 0
2, 60521, Note_on_c, 0, 57, 0
2, 60526, Note_on_c, 0, 49, 0
2, 60526, Note_on_c, 0, 76, 0
2, 60530, Note_on_c, 0, 44, 100
2, 60535, Note_on_c, 0, 32, 94
2, 60536, Note_on_c, 0, 76, 91
2, 60537, Note_on_c, 0, 71, 89
2, 60595, Control_c, 0, 64, 127
2, 60623, Note_on_c, 0, 68, 80
2, 60737, Note_on_c, 0, 64, 63
2, 60782, Note_on_c, 0, 59, 75
2, 60836, Note_on_c, 0, 56, 74
2, 60883, Note_on_c, 0, 52, 73
2, 60961, Note_on_c, 0, 47, 57
2, 60971, Note_on_c, 0, 47, 0
2, 61017, Note_on_c, 0, 52, 0
2, 61028, Note_on_c, 0, 52, 67
2, 61048, Note_on_c, 0, 44, 0
2, 61052, Note_on_c, 0, 44, 75
2, 61148, Note_on_c, 0, 76, 0
2, 61159, Note_on_c, 0, 76, 108
2, 61164, Note_on_c, 0, 73, 99
2, 61164, Control_c, 0, 64, 0
2, 61165, Note_on_c, 0, 69, 93
2, 61166, Note_on_c, 0, 81, 91
2, 61169, Note_on_c, 0, 45, 93
2, 61170, Note_on_c, 0, 33, 91
2, 61175, Note_on_c, 0, 44, 0
2, 61175, Note_on_c, 0, 56, 0
2, 61175, Note_on_c, 0, 71, 0
2, 61175, Note_on_c, 0, 68, 0
2, 61175, Note_on_c, 0, 80, 0
2, 61175, Note_on_c, 0, 59, 0
2, 61176, Note_on_c, 0, 52, 0
2, 61186, Note_on_c, 0, 32, 0
2, 61186, Note_on_c, 0, 64, 0
2, 61255, Control_c, 0, 64, 127
2, 61259, Note_on_c, 0, 64, 82
2, 61367, Note_on_c, 0, 61, 71
2, 61427, Note_on_c, 0, 57, 68
2, 61494, Note_on_c, 0, 52, 81
2, 61545, Note_on_c, 0, 49, 71
2, 61624, Note_on_c, 0, 52, 0
2, 61632, Note_on_c, 0, 52, 71
2, 61690, Note_on_c, 0, 40, 76
2, 61796, Note_on_c, 0, 71, 98
2, 61797, Control_c, 0, 64, 0
2, 61805, Note_on_c, 0, 66, 96
2, 61807, Note_on_c, 0, 52, 0
2, 61807, Note_on_c, 0, 49, 0
2, 61808, Note_on_c, 0, 61, 0
2, 61808, Note_on_c, 0, 45, 0
2, 61808, Note_on_c, 0, 69, 0
2, 61809, Note_on_c, 0, 57, 0
2, 61809, Note_on_c, 0, 73, 0
2, 61810, Note_on_c, 0, 64, 0
2, 61810, Note_on_c, 0, 81, 0
2, 61812, Note_on_c, 0, 63, 84
2, 61815, Note_on_c, 0, 47, 96
2, 61816, Note_on_c, 0, 35, 92
2, 61831, Note_on_c, 0, 33, 0
2, 61831, Note_on_c, 0, 40, 0
2, 61831, Note_on_c, 0, 76, 0
2, 61869, Note_on_c, 0, 61, 61
2, 61900, Control_c, 0, 64, 127
2, 61933, Note_on_c, 0, 59, 74
2, 62022, Note_on_c, 0, 54, 72
2, 62094, Note_on_c, 0, 51, 67
2, 62154, Note_on_c, 0, 49, 72
2, 62257, Note_on_c, 0, 48, 64
2, 62261, Note_on_c, 0, 48, 0
2, 62340, Note_on_c, 0, 42, 83
2, 62416, Control_c, 0, 64, 0
2, 62419, Note_on_c, 0, 66, 0
2, 62419, Note_on_c, 0, 51, 0
2, 62419, Note_on_c, 0, 59, 0
2, 62419, Note_on_c, 0, 71, 0
2, 62419, Note_on_c, 0, 61, 0
2, 62419, Note_on_c, 0, 86, 107
2, 62419, Note_on_c, 0, 42, 0
2, 62419, Note_on_c, 0, 54, 0
2, 62420, Note_on_c, 0, 49, 0
2, 62420, Note_on_c, 0, 47, 0
2, 62420, Note_on_c, 0, 63, 0
2, 62425, Note_on_c, 0, 81, 106
2, 62434, Note_on_c, 0, 78, 104
2, 62444, Note_on_c, 0, 36, 101
2, 62446, Note_on_c, 0, 35, 0
2, 62449, Note_on_c, 0, 48, 93
2, 62507, Control_c, 0, 64, 127
2, 62527, Note_on_c, 0, 74, 70
2, 62626, Note_on_c, 0, 69, 77
2, 62681, Note_on_c, 0, 66, 85
2, 62746, Note_on_c, 0, 62, 72
2, 62780, Note_on_c, 0, 57, 77
2, 62855, Note_on_c, 0, 54, 75
2, 62936, Note_on_c, 0, 50, 79
2, 63040, Note_on_c, 0, 48, 0
2, 63041, Note_on_c, 0, 57, 0
2, 63041, Note_on_c, 0, 50, 0
2, 63041, Note_on_c, 0, 81, 0
2, 63041, Note_on_c, 0, 69, 0
2, 63041, Note_on_c, 0, 66, 0
2, 63042, Note_on_c, 0, 62, 0
2, 63042, Note_on_c, 0, 86, 0
2, 63042, Note_on_c, 0, 74, 0
2, 63042, Note_on_c, 0, 54, 0
2, 63049, Control_c, 0, 64, 0
2, 63052, Note_on_c, 0, 36, 0
2, 63052, Note_on_c, 0, 78, 0
2, 63063, Note_on_c, 0, 84, 101
2, 63070, Note_on_c, 0, 76, 103
2, 63075, Note_on_c, 0, 79, 94
2, 63080, Note_on_c, 0, 38, 95
2, 63086, Note_on_c, 0, 50, 95
2, 63137, Control_c, 0, 64, 127
2, 63161, Note_on_c, 0, 72, 79
2, 63268, Note_on_c, 0, 67, 72
2, 63283, Note_on_c, 0, 50, 0
2, 63320, Note_on_c, 0, 64, 82
2, 63398, Note_on_c, 0, 60, 77
2, 63465, Note_on_c, 0, 55, 74
2, 63544, Note_on_c, 0, 52, 75
2, 63582, Note_on_c, 0, 60, 0
2, 63589, Note_on_c, 0, 60, 69
2, 63592, Note_on_c, 0, 48, 67
2, 63688, Note_on_c, 0, 67, 0
2, 63688, Note_on_c, 0, 60, 0
2, 63688, Note_on_c, 0, 48, 0
2, 63688, Control_c, 0, 64, 0
2, 63689, Note_on_c, 0, 64, 0
2, 63690, Note_on_c, 0, 72, 0
2, 63691, Note_on_c, 0, 84, 0
2, 63691, Note_on_c, 0, 55, 0
2, 63697, Note_on_c, 0, 38, 0
2, 63705, Note_on_c, 0, 52, 0
2, 63705, Note_on_c, 0, 76, 0
2, 63705, Note_on_c, 0, 79, 0
2, 63710, Note_on_c, 0, 52, 93
2, 63711, Note_on_c, 0, 79, 96
2, 63711, Note_on_c, 0, 83, 97
2, 63715, Note_on_c, 0, 40, 95
2, 63716, Note_on_c, 0, 76, 98
2, 63767, Control_c, 0, 64, 127
2, 63805, Note_on_c, 0, 72, 82
2, 63820, Note_on_c, 0, 40, 0
2, 63909, Note_on_c, 0, 67, 81
2, 63973, Note_on_c, 0, 64, 74
2, 64050, Note_on_c, 0, 60, 73
2, 64119, Note_on_c, 0, 55, 70
2, 64181, Note_on_c, 0, 48, 63
2, 64197, Note_on_c, 0, 52, 0
2, 64204, Note_on_c, 0, 52, 66
2, 64243, Note_on_c, 0, 48, 0
2, 64251, Note_on_c, 0, 48, 78
2, 64345, Note_on_c, 0, 64, 0
2, 64345, Note_on_c, 0, 78, 97
2, 64346, Note_on_c, 0, 83, 0
2, 64346, Note_on_c, 0, 52, 0
2, 64346, Note_on_c, 0, 60, 0
2, 64346, Note_on_c, 0, 76, 0
2, 64346, Note_on_c, 0, 72, 0
2, 64346, Note_on_c, 0, 48, 0
2, 64346, Note_on_c, 0, 79, 0
2, 64347, Note_on_c, 0, 67, 0
2, 64347, Note_on_c, 0, 55, 0
2, 64347, Note_on_c, 0, 81, 97
2, 64348, Control_c, 0, 64, 0
2, 64357, Note_on_c, 0, 42, 97
2, 64361, Note_on_c, 0, 74, 92
2, 64419, Control_c, 0, 64, 127
2, 64447, Note_on_c, 0, 69, 84
2, 64551, Note_on_c, 0, 66, 83
2, 64605, Note_on_c, 0, 62, 68
2, 64661, Note_on_c, 0, 57, 69
2, 64684, Note_on_c, 0, 54, 52
2, 64784, Note_on_c, 0, 50, 58
2, 64842, Note_on_c, 0, 45, 64
2, 64999, Note_on_c, 0, 35, 80
2, 64999, Note_on_c, 0, 47, 78
2, 64999, Control_c, 0, 64, 0
2, 65005, Note_on_c, 0, 50, 0
2, 65005, Note_on_c, 0, 81, 0
2, 65005, Note_on_c, 0, 69, 0
2, 65006, Note_on_c, 0, 66, 0
2, 65006, Note_on_c, 0, 45, 0
2, 65006, Note_on_c, 0, 62, 0
2, 65006, Note_on_c, 0, 57, 0
2, 65006, Note_on_c, 0, 78, 0
2, 65006, Note_on_c, 0, 74, 0
2, 65006, Note_on_c, 0, 42, 0
2, 65018, Note_on_c, 0, 54, 0
2, 65103, Control_c, 0, 64, 127
2, 65121, Note_on_c, 0, 42, 70
2, 65226, Note_on_c, 0, 35, 0
2, 65226, Note_on_c, 0, 47, 0
2, 65232, Note_on_c, 0, 47, 61
2, 65233, Note_on_c, 0, 35, 63
2, 65326, Note_on_c, 0, 42, 0
2, 65336, Note_on_c, 0, 42, 59
2, 65433, Note_on_c, 0, 47, 0
2, 65442, Note_on_c, 0, 47, 56
2, 65469, Note_on_c, 0, 59, 65
2, 65556, Note_on_c, 0, 42, 0
2, 65560, Note_on_c, 0, 42, 70
2, 65566, Note_on_c, 0, 61, 76
2, 65648, Note_on_c, 0, 35, 0
2, 65659, Note_on_c, 0, 63, 80
2, 65659, Note_on_c, 0, 35, 66
2, 65748, Note_on_c, 0, 42, 0
2, 65758, Note_on_c, 0, 42, 73
2, 65771, Note_on_c, 0, 61, 0
2, 65776, Note_on_c, 0, 61, 70
2, 65863, Note_on_c, 0, 47, 0
2, 65863, Note_on_c, 0, 59, 0
2, 65868, Note_on_c, 0, 47, 67
2, 65869, Note_on_c, 0, 59, 81
2, 65955, Note_on_c, 0, 42, 0
2, 65963, Note_on_c, 0, 63, 0
2, 65965, Note_on_c, 0, 42, 74
2, 65974, Note_on_c, 0, 63, 84
2, 66071, Note_on_c, 0, 35, 0
2, 66071, Note_on_c, 0, 47, 0
2, 66071, Note_on_c, 0, 61, 0
2, 66081, Note_on_c, 0, 47, 62
2, 66081, Note_on_c, 0, 35, 67
2, 66082, Note_on_c, 0, 61, 79
2, 66163, Note_on_c, 0, 42, 0
2, 66163, Note_on_c, 0, 59, 0
2, 66167, Note_on_c, 0, 42, 71
2, 66174, Note_on_c, 0, 59, 81
2, 66278, Note_on_c, 0, 42, 0
2, 66286, Note_on_c, 0, 59, 0
2, 66286, Note_on_c, 0, 63, 0
2, 66288, Note_on_c, 0, 42, 85
2, 66291, Note_on_c, 0, 66, 95
2, 66293, Note_on_c, 0, 63, 88
2, 66296, Note_on_c, 0, 51, 83
2, 66296, Note_on_c, 0, 59, 88
2, 66314, Control_c, 0, 64, 0
2, 66339, Note_on_c, 0, 61, 0
2, 66370, Control_c, 0, 64, 127
2, 66385, Note_on_c, 0, 35, 0
2, 66408, Note_on_c, 0, 47, 0
2, 66414, Note_on_c, 0, 47, 66
2, 66501, Note_on_c, 0, 42, 0
2, 66501, Note_on_c, 0, 51, 0
2, 66510, Note_on_c, 0, 42, 74
2, 66511, Note_on_c, 0, 51, 61
2, 66593, Note_on_c, 0, 47, 0
2, 66602, Note_on_c, 0, 47, 72
2, 66723, Note_on_c, 0, 51, 0
2, 66728, Note_on_c, 0, 51, 63
2, 66754, Note_on_c, 0, 66, 0
2, 66765, Note_on_c, 0, 66, 86
2, 66816, Note_on_c, 0, 47, 0
2, 66819, Note_on_c, 0, 47, 58
2, 66861, Note_on_c, 0, 68, 89
2, 66874, Note_on_c, 0, 56, 53
2, 66938, Note_on_c, 0, 42, 0
2, 66946, Note_on_c, 0, 42, 78
2, 66946, Note_on_c, 0, 51, 0
2, 66952, Note_on_c, 0, 51, 77
2, 66957, Note_on_c, 0, 69, 94
2, 67038, Note_on_c, 0, 47, 0
2, 67046, Note_on_c, 0, 68, 0
2, 67048, Note_on_c, 0, 47, 77
2, 67053, Note_on_c, 0, 68, 96
2, 67138, Note_on_c, 0, 66, 0
2, 67146, Note_on_c, 0, 42, 0
2, 67146, Note_on_c, 0, 51, 0
2, 67149, Note_on_c, 0, 66, 90
2, 67151, Note_on_c, 0, 42, 79
2, 67155, Note_on_c, 0, 51, 79
2, 67246, Note_on_c, 0, 47, 0
2, 67253, Note_on_c, 0, 69, 0
2, 67255, Note_on_c, 0, 47, 78
2, 67258, Note_on_c, 0, 69, 100
2, 67353, Note_on_c, 0, 42, 0
2, 67361, Note_on_c, 0, 51, 0
2, 67361, Note_on_c, 0, 63, 0
2, 67361, Note_on_c, 0, 68, 0
2, 67364, Note_on_c, 0, 42, 83
2, 67365, Note_on_c, 0, 51, 73
2, 67365, Note_on_c, 0, 68, 86
2, 67367, Note_on_c, 0, 63, 75
2, 67438, Note_on_c, 0, 47, 0
2, 67438, Note_on_c, 0, 66, 0
2, 67445, Note_on_c, 0, 59, 0
2, 67449, Note_on_c, 0, 47, 76
2, 67449, Note_on_c, 0, 66, 84
2, 67452, Note_on_c, 0, 59, 75
2, 67568, Note_on_c, 0, 63, 0
2, 67572, Note_on_c, 0, 71, 103
2, 67577, Note_on_c, 0, 63, 93
2, 67584, Note_on_c, 0, 47, 0
2, 67584, Note_on_c, 0, 59, 0
2, 67584, Note_on_c, 0, 66, 0
2, 67589, Note_on_c, 0, 59, 90
2, 67593, Note_on_c, 0, 47, 88
2, 67594, Note_on_c, 0, 57, 89
2, 67594, Note_on_c, 0, 66, 97
2, 67686, Note_on_c, 0, 54, 61
2, 67799, Note_on_c, 0, 57, 0
2, 67808, Note_on_c, 0, 57, 79
2, 67898, Note_on_c, 0, 54, 0
2, 67903, Note_on_c, 0, 54, 86
2, 68006, Note_on_c, 0, 47, 0
2, 68006, Note_on_c, 0, 57, 0
2, 68014, Note_on_c, 0, 47, 75
2, 68016, Note_on_c, 0, 45, 72
2, 68017, Note_on_c, 0, 57, 77
2, 68021, Note_on_c, 0, 45, 0
2, 68044, Note_on_c, 0, 71, 0
2, 68049, Note_on_c, 0, 71, 95
2, 68106, Note_on_c, 0, 54, 0
2, 68111, Note_on_c, 0, 54, 88
2, 68140, Note_on_c, 0, 73, 100
2, 68221, Note_on_c, 0, 47, 0
2, 68226, Note_on_c, 0, 47, 88
2, 68236, Note_on_c, 0, 57, 0
2, 68240, Note_on_c, 0, 57, 93
2, 68243, Note_on_c, 0, 75, 106
2, 68321, Note_on_c, 0, 54, 0
2, 68321, Note_on_c, 0, 73, 0
2, 68331, Note_on_c, 0, 73, 98
2, 68331, Note_on_c, 0, 54, 88
2, 68428, Note_on_c, 0, 47, 0
2, 68428, Note_on_c, 0, 57, 0
2, 68428, Note_on_c, 0, 71, 0
2, 68433, Note_on_c, 0, 71, 97
2, 68434, Note_on_c, 0, 47, 83
2, 68436, Note_on_c, 0, 69, 0
2, 68437, Note_on_c, 0, 57, 91
2, 68446, Note_on_c, 0, 69, 81
2, 68520, Note_on_c, 0, 54, 0
2, 68520, Note_on_c, 0, 75, 0
2, 68524, Note_on_c, 0, 54, 85
2, 68529, Note_on_c, 0, 75, 105
2, 68613, Note_on_c, 0, 57, 0
2, 68620, Note_on_c, 0, 47, 0
2, 68624, Note_on_c, 0, 57, 85
2, 68628, Note_on_c, 0, 73, 0
2, 68631, Note_on_c, 0, 47, 81
2, 68638, Note_on_c, 0, 73, 93
2, 68705, Note_on_c, 0, 71, 0
2, 68712, Note_on_c, 0, 54, 0
2, 68716, Note_on_c, 0, 71, 89
2, 68717, Note_on_c, 0, 54, 77
2, 68820, Note_on_c, 0, 47, 0
2, 68820, Note_on_c, 0, 59, 0
2, 68828, Note_on_c, 0, 69, 0
2, 68828, Note_on_c, 0, 75, 0
2, 68830, Note_on_c, 0, 59, 104
2, 68831, Note_on_c, 0, 78, 109
2, 68831, Note_on_c, 0, 47, 95
2, 68834, Note_on_c, 0, 75, 104
2, 68837, Note_on_c, 0, 69, 106
2, 68856, Control_c, 0, 64, 0
2, 68876, Note_on_c, 0, 54, 0
2, 68876, Note_on_c, 0, 63, 0
2, 68877, Note_on_c, 0, 51, 0
2, 68877, Note_on_c, 0, 71, 0
2, 68877, Note_on_c, 0, 68, 0
2, 68881, Note_on_c, 0, 56, 0
2, 68897, Note_on_c, 0, 57, 0
2, 68897, Control_c, 0, 64, 127
2, 68912, Note_on_c, 0, 73, 0
2, 68935, Note_on_c, 0, 66, 0
2, 68942, Note_on_c, 0, 49, 86
2, 69054, Note_on_c, 0, 51, 89
2, 69152, Note_on_c, 0, 52, 87
2, 69256, Note_on_c, 0, 54, 91
2, 69265, Note_on_c, 0, 78, 0
2, 69273, Note_on_c, 0, 75, 0
2, 69276, Note_on_c, 0, 78, 104
2, 69280, Note_on_c, 0, 71, 101
2, 69282, Note_on_c, 0, 75, 104
2, 69361, Note_on_c, 0, 80, 103
2, 69365, Note_on_c, 0, 71, 0
2, 69365, Note_on_c, 0, 75, 0
2, 69370, Note_on_c, 0, 56, 98
2, 69375, Note_on_c, 0, 75, 86
2, 69376, Note_on_c, 0, 71, 91
2, 69457, Note_on_c, 0, 71, 0
2, 69457, Note_on_c, 0, 75, 0
2, 69462, Note_on_c, 0, 81, 104
2, 69464, Note_on_c, 0, 71, 92
2, 69466, Note_on_c, 0, 75, 81
2, 69466, Note_on_c, 0, 57, 99
2, 69557, Note_on_c, 0, 59, 0
2, 69557, Note_on_c, 0, 80, 0
2, 69562, Note_on_c, 0, 80, 102
2, 69565, Note_on_c, 0, 71, 0
2, 69565, Note_on_c, 0, 75, 0
2, 69568, Note_on_c, 0, 59, 97
2, 69573, Note_on_c, 0, 71, 94
2, 69574, Note_on_c, 0, 75, 75
2, 69642, Note_on_c, 0, 49, 0
2, 69642, Note_on_c, 0, 78, 0
2, 69649, Note_on_c, 0, 75, 0
2, 69652, Note_on_c, 0, 61, 96
2, 69652, Note_on_c, 0, 49, 82
2, 69653, Note_on_c, 0, 78, 102
2, 69654, Note_on_c, 0, 75, 74
2, 69742, Note_on_c, 0, 71, 0
2, 69742, Note_on_c, 0, 75, 0
2, 69742, Note_on_c, 0, 81, 0
2, 69745, Note_on_c, 0, 63, 101
2, 69746, Note_on_c, 0, 75, 100
2, 69747, Note_on_c, 0, 71, 96
2, 69749, Note_on_c, 0, 54, 0
2, 69750, Note_on_c, 0, 81, 103
2, 69754, Note_on_c, 0, 54, 78
2, 69841, Note_on_c, 0, 80, 0
2, 69846, Note_on_c, 0, 80, 102
2, 69849, Note_on_c, 0, 71, 0
2, 69853, Note_on_c, 0, 64, 90
2, 69855, Note_on_c, 0, 71, 90
2, 69934, Note_on_c, 0, 71, 0
2, 69934, Note_on_c, 0, 75, 0
2, 69941, Note_on_c, 0, 78, 0
2, 69944, Note_on_c, 0, 71, 93
2, 69945, Note_on_c, 0, 75, 93
2, 69946, Note_on_c, 0, 78, 101
2, 69946, Note_on_c, 0, 66, 98
2, 69964, Note_on_c, 0, 42, 0
2, 70072, Note_on_c, 0, 80, 0
2, 70077, Note_on_c, 0, 88, 110
2, 70080, Note_on_c, 0, 80, 109
2, 70080, Note_on_c, 0, 83, 102
2, 70080, Note_on_c, 0, 76, 111
2, 70095, Note_on_c, 0, 52, 0
2, 70099, Note_on_c, 0, 52, 99
2, 70102, Note_on_c, 0, 40, 99
2, 70146, Note_on_c, 0, 81, 0
2, 70147, Note_on_c, 0, 64, 0
2, 70147, Note_on_c, 0, 54, 0
2, 70147, Note_on_c, 0, 57, 0
2, 70147, Note_on_c, 0, 66, 0
2, 70148, Note_on_c, 0, 56, 0
2, 70148, Note_on_c, 0, 71, 0
2, 70148, Note_on_c, 0, 75, 0
2, 70148, Note_on_c, 0, 78, 0
2, 70149, Note_on_c, 0, 49, 0
2, 70149, Note_on_c, 0, 61, 0
2, 70149, Note_on_c, 0, 63, 0
2, 70151, Note_on_c, 0, 51, 0
2, 70155, Control_c, 0, 64, 0
2, 70156, Note_on_c, 0, 69, 0
2, 70164, Note_on_c, 0, 47, 0
2, 70164, Note_on_c, 0, 59, 0
2, 70333, Control_c, 0, 64, 127
2, 70765, Note_on_c, 0, 47, 87
2, 71420, Note_on_c, 0, 64, 79
2, 71427, Note_on_c, 0, 56, 76
2, 72076, Note_on_c, 0, 64, 0
2, 72080, Note_on_c, 0, 71, 72
2, 72082, Note_on_c, 0, 64, 65
2, 72084, Note_on_c, 0, 68, 69
2, 72738, Note_on_c, 0, 73, 80
2, 72744, Note_on_c, 0, 47, 0
2, 72750, Note_on_c, 0, 66, 71
2, 72750, Note_on_c, 0, 57, 65
2, 72751, Note_on_c, 0, 47, 64
2, 72755, Note_on_c, 0, 62, 63
2, 72802, Control_c, 0, 64, 0
2, 72804, Note_on_c, 0, 64, 0
2, 72804, Note_on_c, 0, 88, 0
2, 72805, Note_on_c, 0, 40, 0
2, 72805, Note_on_c, 0, 68, 0
2, 72805, Note_on_c, 0, 71, 0
2, 72807, Note_on_c, 0, 56, 0
2, 72814, Note_on_c, 0, 83, 0
2, 72821, Note_on_c, 0, 52, 0
2, 72821, Note_on_c, 0, 76, 0
2, 72821, Note_on_c, 0, 80, 0
2, 72952, Control_c, 0, 64, 127
2, 73066, Note_on_c, 0, 74, 87
2, 73389, Note_on_c, 0, 76, 90
2, 73392, Note_on_c, 0, 56, 68
2, 73459, Control_c, 0, 64, 0
2, 73461, Note_on_c, 0, 74, 0
2, 73462, Note_on_c, 0, 57, 0
2, 73462, Note_on_c, 0, 73, 0
2, 73582, Control_c, 0, 64, 127
2, 74051, Note_on_c, 0, 54, 71
2, 74119, Control_c, 0, 64, 0
2, 74204, Control_c, 0, 64, 127
2, 74715, Note_on_c, 0, 52, 69
2, 74880, Note_on_c, 0, 47, 0
2, 74880, Note_on_c, 0, 62, 0
2, 74880, Note_on_c, 0, 66, 0
2, 75392, Note_on_c, 0, 73, 78
2, 75398, Note_on_c, 0, 66, 69
2, 75409, Note_on_c, 0, 38, 56
2, 75410, Note_on_c, 0, 45, 57
2, 75413, Note_on_c, 0, 62, 57
2, 75421, Note_on_c, 0, 54, 0
2, 75422, Note_on_c, 0, 76, 0
2, 75422, Control_c, 0, 64, 0
2, 75426, Note_on_c, 0, 56, 0
2, 75427, Note_on_c, 0, 52, 0
2, 75678, Control_c, 0, 64, 127
2, 75725, Note_on_c, 0, 74, 84
2, 76044, Note_on_c, 0, 61, 74
2, 76044, Note_on_c, 0, 76, 88
2, 76719, Note_on_c, 0, 57, 60
2, 77391, Note_on_c, 0, 61, 0
2, 77397, Note_on_c, 0, 61, 63
2, 77397, Note_on_c, 0, 69, 76
2, 78062, Note_on_c, 0, 71, 77
2, 78063, Note_on_c, 0, 68, 75
2, 78064, Note_on_c, 0, 40, 61
2, 78064, Note_on_c, 0, 59, 66
2, 78067, Note_on_c, 0, 63, 66
2, 78096, Control_c, 0, 64, 0
2, 78116, Note_on_c, 0, 38, 0
2, 78117, Note_on_c, 0, 73, 0
2, 78117, Note_on_c, 0, 45, 0
2, 78117, Note_on_c, 0, 74, 0
2, 78117, Note_on_c, 0, 57, 0
2, 78118, Note_on_c, 0, 76, 0
2, 78121, Note_on_c, 0, 69, 0
2, 78124, Note_on_c, 0, 61, 0
2, 78136, Note_on_c, 0, 62, 0
2, 78443, Control_c, 0, 64, 127
2, 78720, Note_on_c, 0, 66, 0
2, 78747, Note_on_c, 0, 47, 53
2, 79401, Note_on_c, 0, 61, 68
2, 79411, Note_on_c, 0, 57, 56
2, 80058, Note_on_c, 0, 54, 52
2, 80732, Note_on_c, 0, 40, 0
2, 80739, Note_on_c, 0, 59, 0
2, 80741, Note_on_c, 0, 40, 54
2, 80745, Note_on_c, 0, 59, 70
2, 80758, Note_on_c, 0, 56, 56
2, 80758, Control_c, 0, 64, 0
2, 80779, Note_on_c, 0, 63, 0
2, 80781, Note_on_c, 0, 57, 0
2, 80782, Note_on_c, 0, 61, 0
2, 80782, Note_on_c, 0, 47, 0
2, 80782, Note_on_c, 0, 68, 0
2, 80783, Note_on_c, 0, 54, 0
2, 80816, Control_c, 0, 64, 127
2, 80824, Note_on_c, 0, 71, 0
2, 80905, Note_on_c, 0, 47, 57
2, 81063, Note_on_c, 0, 52, 64
2, 81230, Note_on_c, 0, 54, 65
2, 81384, Note_on_c, 0, 56, 0
2, 81388, Note_on_c, 0, 71, 85
2, 81395, Note_on_c, 0, 56, 70
2, 81538, Note_on_c, 0, 52, 0
2, 81547, Note_on_c, 0, 52, 58
2, 81692, Note_on_c, 0, 56, 0
2, 81697, Note_on_c, 0, 56, 74
2, 81861, Note_on_c, 0, 59, 0
2, 81870, Note_on_c, 0, 59, 69
2, 82018, Note_on_c, 0, 76, 97
2, 82020, Note_on_c, 0, 64, 71
2, 82043, Note_on_c, 0, 68, 71
2, 82168, Note_on_c, 0, 59, 0
2, 82179, Note_on_c, 0, 59, 72
2, 82321, Note_on_c, 0, 64, 0
2, 82328, Note_on_c, 0, 64, 81
2, 82467, Note_on_c, 0, 66, 79
2, 82629, Note_on_c, 0, 68, 0
2, 82632, Note_on_c, 0, 83, 98
2, 82636, Note_on_c, 0, 76, 0
2, 82636, Note_on_c, 0, 68, 80
2, 82640, Note_on_c, 0, 76, 83
2, 82665, Note_on_c, 0, 80, 73
2, 82782, Note_on_c, 0, 64, 0
2, 82790, Note_on_c, 0, 64, 76
2, 82936, Note_on_c, 0, 68, 0
2, 82945, Note_on_c, 0, 68, 80
2, 83097, Note_on_c, 0, 71, 0
2, 83103, Note_on_c, 0, 71, 88
2, 83252, Note_on_c, 0, 85, 102
2, 83269, Note_on_c, 0, 78, 83
2, 83270, Note_on_c, 0, 73, 89
2, 83281, Note_on_c, 0, 47, 0
2, 83283, Note_on_c, 0, 81, 80
2, 83285, Note_on_c, 0, 47, 75
2, 83292, Note_on_c, 0, 64, 0
2, 83292, Note_on_c, 0, 52, 0
2, 83293, Note_on_c, 0, 54, 0
2, 83293, Note_on_c, 0, 76, 0
2, 83293, Note_on_c, 0, 71, 0
2, 83293, Note_on_c, 0, 68, 0
2, 83293, Note_on_c, 0, 56, 0
2, 83293, Control_c, 0, 64, 0
2, 83293, Note_on_c, 0, 80, 0
2, 83293, Note_on_c, 0, 83, 0
2, 83293, Note_on_c, 0, 66, 0
2, 83304, Note_on_c, 0, 40, 0
2, 83304, Note_on_c, 0, 59, 0
2, 83374, Control_c, 0, 64, 127
2, 83432, Note_on_c, 0, 54, 73
2, 83569, Note_on_c, 0, 86, 100
2, 83576, Note_on_c, 0, 74, 90
2, 83591, Note_on_c, 0, 57, 69
2, 83604, Note_on_c, 0, 73, 0
2, 83737, Note_on_c, 0, 62, 67
2, 83889, Note_on_c, 0, 88, 103
2, 83896, Note_on_c, 0, 81, 0
2, 83896, Note_on_c, 0, 76, 90
2, 83902, Note_on_c, 0, 81, 85
2, 84055, Note_on_c, 0, 59, 63
2, 84203, Note_on_c, 0, 62, 0
2, 84210, Note_on_c, 0, 62, 65
2, 84334, Note_on_c, 0, 78, 0
2, 84342, Note_on_c, 0, 66, 81
2, 84343, Note_on_c, 0, 78, 71
2, 84512, Note_on_c, 0, 68, 97
2, 84687, Note_on_c, 0, 59, 0
2, 84691, Note_on_c, 0, 59, 66
2, 84848, Note_on_c, 0, 62, 0
2, 84856, Note_on_c, 0, 62, 57
2, 85009, Note_on_c, 0, 66, 0
2, 85016, Note_on_c, 0, 66, 72
2, 85132, Note_on_c, 0, 76, 0
2, 85141, Note_on_c, 0, 76, 90
2, 85169, Note_on_c, 0, 69, 77
2, 85301, Note_on_c, 0, 59, 0
2, 85307, Note_on_c, 0, 59, 78
2, 85455, Note_on_c, 0, 62, 0
2, 85465, Note_on_c, 0, 62, 46
2, 85608, Note_on_c, 0, 66, 0
2, 85616, Note_on_c, 0, 66, 76
2, 85770, Note_on_c, 0, 85, 0
2, 85779, Note_on_c, 0, 85, 99
2, 85782, Note_on_c, 0, 38, 83
2, 85789, Note_on_c, 0, 73, 90
2, 85793, Note_on_c, 0, 81, 0
2, 85797, Note_on_c, 0, 81, 78
2, 85811, Note_on_c, 0, 88, 0
2, 85811, Note_on_c, 0, 76, 0
2, 85812, Note_on_c, 0, 69, 0
2, 85812, Note_on_c, 0, 59, 0
2, 85812, Note_on_c, 0, 86, 0
2, 85812, Note_on_c, 0, 74, 0
2, 85812, Note_on_c, 0, 54, 0
2, 85812, Note_on_c, 0, 57, 0
2, 85812, Note_on_c, 0, 68, 0
2, 85812, Note_on_c, 0, 66, 0
2, 85812, Note_on_c, 0, 78, 0
2, 85816, Note_on_c, 0, 47, 0
2, 85818, Control_c, 0, 64, 0
2, 85824, Note_on_c, 0, 62, 0
2, 85885, Control_c, 0, 64, 127
2, 85935, Note_on_c, 0, 45, 72
2, 86095, Note_on_c, 0, 86, 100
2, 86095, Note_on_c, 0, 50, 73
2, 86097, Note_on_c, 0, 74, 82
2, 86249, Note_on_c, 0, 52, 45
2, 86323, Note_on_c, 0, 73, 0
2, 86403, Note_on_c, 0, 42, 70
2, 86404, Note_on_c, 0, 88, 102
2, 86407, Note_on_c, 0, 81, 0
2, 86413, Note_on_c, 0, 76, 86
2, 86415, Note_on_c, 0, 81, 86
2, 86553, Note_on_c, 0, 50, 0
2, 86564, Note_on_c, 0, 50, 66
2, 86717, Note_on_c, 0, 57, 69
2, 86869, Note_on_c, 0, 62, 77
2, 87018, Note_on_c, 0, 68, 86
2, 87168, Note_on_c, 0, 57, 0
2, 87175, Note_on_c, 0, 57, 60
2, 87336, Note_on_c, 0, 62, 0
2, 87348, Note_on_c, 0, 62, 65
2, 87508, Note_on_c, 0, 66, 73
2, 87651, Note_on_c, 0, 81, 0
2, 87662, Note_on_c, 0, 81, 90
2, 87667, Note_on_c, 0, 69, 68
2, 87813, Note_on_c, 0, 57, 0
2, 87817, Note_on_c, 0, 57, 61
2, 87966, Note_on_c, 0, 62, 0
2, 87976, Note_on_c, 0, 62, 45
2, 88112, Note_on_c, 0, 66, 0
2, 88119, Note_on_c, 0, 66, 76
2, 88293, Note_on_c, 0, 83, 88
2, 88309, Note_on_c, 0, 40, 68
2, 88315, Note_on_c, 0, 80, 84
2, 88323, Note_on_c, 0, 71, 66
2, 88340, Note_on_c, 0, 75, 59
2, 88350, Note_on_c, 0, 42, 0
2, 88356, Note_on_c, 0, 52, 0
2, 88356, Note_on_c, 0, 88, 0
2, 88357, Note_on_c, 0, 45, 0
2, 88358, Note_on_c, 0, 76, 0
2, 88359, Note_on_c, 0, 86, 0
2, 88359, Control_c, 0, 64, 0
2, 88360, Note_on_c, 0, 62, 0
2, 88360, Note_on_c, 0, 50, 0
2, 88360, Note_on_c, 0, 68, 0
2, 88360, Note_on_c, 0, 57, 0
2, 88361, Note_on_c, 0, 66, 0
2, 88361, Note_on_c, 0, 74, 0
2, 88361, Note_on_c, 0, 81, 0
2, 88361, Note_on_c, 0, 69, 0
2, 88366, Note_on_c, 0, 85, 0
2, 88381, Note_on_c, 0, 38, 0
2, 88475, Note_on_c, 0, 47, 55
2, 88496, Control_c, 0, 64, 127
2, 88626, Note_on_c, 0, 52, 55
2, 88781, Note_on_c, 0, 54, 43
2, 88937, Note_on_c, 0, 56, 66
2, 89103, Note_on_c, 0, 52, 0
2, 89108, Note_on_c, 0, 52, 54
2, 89233, Note_on_c, 0, 56, 0
2, 89239, Note_on_c, 0, 56, 67
2, 89408, Note_on_c, 0, 59, 60
2, 89558, Note_on_c, 0, 64, 60
2, 89702, Note_on_c, 0, 59, 0
2, 89711, Note_on_c, 0, 59, 66
2, 89871, Note_on_c, 0, 64, 0
2, 89875, Note_on_c, 0, 64, 53
2, 90019, Note_on_c, 0, 66, 76
2, 90190, Note_on_c, 0, 68, 61
2, 90240, Note_on_c, 0, 83, 0
2, 90347, Note_on_c, 0, 64, 0
2, 90358, Note_on_c, 0, 64, 49
2, 90508, Note_on_c, 0, 68, 0
2, 90517, Note_on_c, 0, 68, 64
2, 90685, Note_on_c, 0, 71, 0
2, 90693, Note_on_c, 0, 71, 43
2, 90895, Note_on_c, 0, 76, 78
2, 90900, Note_on_c, 0, 52, 0
2, 90900, Note_on_c, 0, 68, 0
2, 90904, Note_on_c, 0, 68, 59
2, 90905, Note_on_c, 0, 52, 46
2, 91000, Note_on_c, 0, 40, 0
2, 91001, Control_c, 0, 64, 0
2, 91009, Note_on_c, 0, 59, 0
2, 91010, Note_on_c, 0, 47, 0
2, 91011, Note_on_c, 0, 71, 0
2, 91011, Note_on_c, 0, 75, 0
2, 91011, Note_on_c, 0, 56, 0
2, 91011, Note_on_c, 0, 80, 0
2, 91012, Note_on_c, 0, 64, 0
2, 91012, Note_on_c, 0, 66, 0
2, 91012, Note_on_c, 0, 54, 0
2, 91484, Control_c, 0, 64, 127
2, 91568, Note_on_c, 0, 59, 53
2, 92235, Note_on_c, 0, 78, 71
2, 92262, Note_on_c, 0, 69, 56
2, 92920, Note_on_c, 0, 80, 76
2, 92921, Note_on_c, 0, 71, 51
2, 93603, Note_on_c, 0, 76, 0
2, 93611, Note_on_c, 0, 76, 75
2, 93619, Note_on_c, 0, 52, 0
2, 93619, Note_on_c, 0, 69, 0
2, 93629, Note_on_c, 0, 52, 53
2, 93629, Control_c, 0, 64, 0
2, 93630, Note_on_c, 0, 69, 56
2, 93632, Note_on_c, 0, 73, 49
2, 93642, Control_c, 0, 64, 127
2, 93665, Note_on_c, 0, 78, 0
2, 93665, Note_on_c, 0, 71, 0
2, 93667, Note_on_c, 0, 59, 0
2, 93680, Note_on_c, 0, 68, 0
2, 93719, Control_c, 0, 64, 0
2, 93895, Control_c, 0, 64, 127
2, 94080, Control_c, 0, 64, 0
2, 94342, Note_on_c, 0, 57, 41
2, 94456, Control_c, 0, 64, 127
2, 95016, Note_on_c, 0, 81, 76
2, 95040, Note_on_c, 0, 73, 0
2, 95045, Note_on_c, 0, 73, 56
2, 95055, Control_c, 0, 64, 0
2, 95754, Note_on_c, 0, 80, 0
2, 95758, Note_on_c, 0, 80, 69
2, 95785, Note_on_c, 0, 71, 42
2, 96207, Control_c, 0, 64, 127
2, 96499, Note_on_c, 0, 81, 0
2, 96508, Note_on_c, 0, 81, 79
2, 96514, Note_on_c, 0, 52, 0
2, 96519, Note_on_c, 0, 42, 54
2, 96524, Note_on_c, 0, 52, 47
2, 96529, Note_on_c, 0, 69, 0
2, 96529, Note_on_c, 0, 73, 0
2, 96529, Note_on_c, 0, 76, 0
2, 96534, Note_on_c, 0, 76, 59
2, 96535, Note_on_c, 0, 69, 55
2, 96537, Note_on_c, 0, 73, 48
2, 96578, Note_on_c, 0, 57, 0
2, 96579, Control_c, 0, 64, 0
2, 96898, Control_c, 0, 64, 127
2, 97198, Control_c, 0, 64, 0
2, 97251, Note_on_c, 0, 80, 0
2, 97257, Note_on_c, 0, 80, 80
2, 97274, Note_on_c, 0, 52, 0
2, 97274, Note_on_c, 0, 71, 0
2, 97274, Note_on_c, 0, 76, 0
2, 97280, Note_on_c, 0, 68, 58
2, 97280, Note_on_c, 0, 76, 63
2, 97282, Note_on_c, 0, 52, 58
2, 97284, Note_on_c, 0, 71, 62
2, 97284, Note_on_c, 0, 44, 61
2, 97323, Note_on_c, 0, 69, 0
2, 97323, Note_on_c, 0, 42, 0
2, 97344, Note_on_c, 0, 81, 0
2, 97466, Control_c, 0, 64, 127
2, 97920, Note_on_c, 0, 73, 0
2, 98081, Note_on_c, 0, 76, 0
2, 98086, Note_on_c, 0, 76, 75
2, 98088, Note_on_c, 0, 52, 0
2, 98093, Note_on_c, 0, 73, 65
2, 98097, Note_on_c, 0, 45, 50
2, 98097, Note_on_c, 0, 52, 54
2, 98099, Note_on_c, 0, 57, 51
2, 98101, Note_on_c, 0, 64, 56
2, 98104, Note_on_c, 0, 57, 0
2, 98105, Note_on_c, 0, 69, 63
2, 98150, Control_c, 0, 64, 0
2, 98163, Note_on_c, 0, 80, 0
2, 98163, Note_on_c, 0, 44, 0
2, 98163, Note_on_c, 0, 71, 0
2, 98164, Note_on_c, 0, 68, 0
2, 98896, Note_on_c, 0, 57, 49
2, 99002, Control_c, 0, 64, 127
2, 99770, Control_c, 0, 64, 0
2, 99784, Note_on_c, 0, 78, 69
2, 99793, Note_on_c, 0, 69, 0
2, 99795, Note_on_c, 0, 54, 47
2, 99798, Note_on_c, 0, 47, 42
2, 99799, Note_on_c, 0, 66, 54
2, 99804, Note_on_c, 0, 69, 57
2, 99867, Note_on_c, 0, 45, 0
2, 99868, Note_on_c, 0, 57, 0
2, 99873, Note_on_c, 0, 73, 0
2, 99893, Note_on_c, 0, 64, 0
2, 99901, Note_on_c, 0, 52, 0
2, 99909, Note_on_c, 0, 76, 0
2, 101427, Note_on_c, 0, 75, 51
2, 101452, Note_on_c, 0, 59, 48
2, 101560, Note_on_c, 0, 69, 0
2, 101760, Note_on_c, 0, 47, 0
2, 101760, Note_on_c, 0, 66, 0
2, 101760, Note_on_c, 0, 78, 0
2, 101760, Control_c, 0, 64, 127
2, 101798, Note_on_c, 0, 54, 0
2, 103357, Note_on_c, 0, 76, 62
2, 103994, Note_on_c, 0, 76, 0
2, 104000, Note_on_c, 0, 76, 69
2, 104016, Note_on_c, 0, 64, 52
2, 104018, Note_on_c, 0, 71, 56
2, 104019, Note_on_c, 0, 40, 45
2, 104021, Note_on_c, 0, 68, 53
2, 104035, Control_c, 0, 64, 0
2, 104048, Control_c, 0, 64, 127
2, 104087, Control_c, 0, 64, 0
2, 104133, Note_on_c, 0, 59, 0
2, 104133, Note_on_c, 0, 75, 0
2, 104248, Control_c, 0, 64, 127
2, 104253, Note_on_c, 0, 47, 46
2, 104286, Control_c, 0, 64, 0
2, 104371, Control_c, 0, 64, 127
2, 104441, Note_on_c, 0, 61, 62
2, 104480, Note_on_c, 0, 52, 42
2, 104543, Note_on_c, 0, 59, 43
2, 104609, Note_on_c, 0, 61, 0
2, 104617, Note_on_c, 0, 61, 62
2, 104647, Note_on_c, 0, 47, 0
2, 104656, Note_on_c, 0, 47, 50
2, 104709, Note_on_c, 0, 59, 0
2, 104717, Note_on_c, 0, 59, 54
2, 104770, Note_on_c, 0, 40, 0
2, 104778, Note_on_c, 0, 40, 56
2, 104785, Note_on_c, 0, 64, 0
2, 104791, Note_on_c, 0, 64, 75
2, 104876, Note_on_c, 0, 63, 72
2, 104939, Note_on_c, 0, 64, 0
2, 104947, Note_on_c, 0, 47, 0
2, 104949, Note_on_c, 0, 64, 70
2, 104958, Note_on_c, 0, 47, 44
2, 105016, Note_on_c, 0, 59, 0
2, 105025, Note_on_c, 0, 59, 70
2, 105100, Note_on_c, 0, 61, 0
2, 105108, Note_on_c, 0, 52, 0
2, 105111, Note_on_c, 0, 61, 80
2, 105112, Note_on_c, 0, 52, 57
2, 105185, Note_on_c, 0, 59, 0
2, 105189, Note_on_c, 0, 59, 71
2, 105262, Note_on_c, 0, 47, 0
2, 105262, Note_on_c, 0, 61, 0
2, 105269, Note_on_c, 0, 61, 76
2, 105270, Note_on_c, 0, 47, 63
2, 105354, Note_on_c, 0, 59, 0
2, 105363, Note_on_c, 0, 59, 69
2, 105384, Note_on_c, 0, 40, 0
2, 105395, Note_on_c, 0, 40, 70
2, 105415, Note_on_c, 0, 68, 0
2, 105420, Note_on_c, 0, 68, 82
2, 105450, Note_on_c, 0, 59, 0
2, 105450, Note_on_c, 0, 61, 0
2, 105451, Note_on_c, 0, 71, 0
2, 105452, Note_on_c, 0, 47, 0
2, 105452, Control_c, 0, 64, 0
2, 105452, Note_on_c, 0, 64, 0
2, 105453, Note_on_c, 0, 52, 0
2, 105453, Note_on_c, 0, 76, 0
2, 105455, Note_on_c, 0, 63, 0
2, 105484, Control_c, 0, 64, 127
2, 105502, Note_on_c, 0, 66, 78
2, 105569, Note_on_c, 0, 68, 0
2, 105575, Note_on_c, 0, 47, 66
2, 105578, Note_on_c, 0, 68, 79
2, 105653, Note_on_c, 0, 59, 70
2, 105727, Note_on_c, 0, 52, 61
2, 105732, Note_on_c, 0, 64, 76
2, 105815, Note_on_c, 0, 59, 0
2, 105825, Note_on_c, 0, 59, 79
2, 105853, Note_on_c, 0, 47, 0
2, 105863, Note_on_c, 0, 47, 70
2, 105891, Note_on_c, 0, 64, 0
2, 105895, Note_on_c, 0, 64, 69
2, 105968, Note_on_c, 0, 59, 0
2, 105975, Note_on_c, 0, 59, 76
2, 106007, Note_on_c, 0, 40, 0
2, 106012, Note_on_c, 0, 40, 75
2, 106037, Note_on_c, 0, 68, 0
2, 106043, Note_on_c, 0, 68, 90
2, 106114, Note_on_c, 0, 66, 0
2, 106124, Note_on_c, 0, 66, 80
2, 106176, Note_on_c, 0, 68, 0
2, 106181, Note_on_c, 0, 68, 81
2, 106199, Note_on_c, 0, 47, 0
2, 106202, Note_on_c, 0, 47, 71
2, 106252, Note_on_c, 0, 59, 0
2, 106257, Note_on_c, 0, 59, 75
2, 106337, Note_on_c, 0, 52, 0
2, 106337, Note_on_c, 0, 64, 0
2, 106345, Note_on_c, 0, 64, 79
2, 106347, Note_on_c, 0, 52, 76
2, 106414, Note_on_c, 0, 59, 0
2, 106419, Note_on_c, 0, 59, 79
2, 106475, Note_on_c, 0, 47, 0
2, 106475, Note_on_c, 0, 64, 0
2, 106484, Note_on_c, 0, 47, 78
2, 106486, Note_on_c, 0, 64, 85
2, 106560, Note_on_c, 0, 59, 0
2, 106565, Note_on_c, 0, 59, 81
2, 106629, Note_on_c, 0, 40, 0
2, 106635, Note_on_c, 0, 40, 81
2, 106655, Note_on_c, 0, 71, 92
2, 106721, Note_on_c, 0, 47, 0
2, 106730, Note_on_c, 0, 47, 72
2, 106739, Note_on_c, 0, 69, 74
2, 106790, Note_on_c, 0, 52, 0
2, 106798, Note_on_c, 0, 71, 0
2, 106800, Note_on_c, 0, 52, 75
2, 106802, Note_on_c, 0, 71, 76
2, 106867, Note_on_c, 0, 64, 0
2, 106875, Note_on_c, 0, 56, 80
2, 106878, Note_on_c, 0, 64, 78
2, 106936, Note_on_c, 0, 59, 0
2, 106944, Note_on_c, 0, 68, 0
2, 106946, Note_on_c, 0, 59, 76
2, 106948, Note_on_c, 0, 68, 88
2, 106990, Note_on_c, 0, 56, 0
2, 106994, Note_on_c, 0, 56, 74
2, 107036, Note_on_c, 0, 64, 0
2, 107040, Note_on_c, 0, 64, 72
2, 107066, Note_on_c, 0, 52, 0
2, 107071, Note_on_c, 0, 52, 75
2, 107097, Note_on_c, 0, 68, 0
2, 107101, Note_on_c, 0, 68, 88
2, 107159, Note_on_c, 0, 47, 0
2, 107159, Note_on_c, 0, 64, 0
2, 107162, Note_on_c, 0, 64, 85
2, 107165, Note_on_c, 0, 47, 81
2, 107243, Note_on_c, 0, 40, 0
2, 107253, Note_on_c, 0, 40, 90
2, 107254, Note_on_c, 0, 76, 101
2, 107312, Note_on_c, 0, 47, 0
2, 107321, Note_on_c, 0, 75, 90
2, 107322, Note_on_c, 0, 47, 80
2, 107397, Note_on_c, 0, 52, 0
2, 107397, Note_on_c, 0, 76, 0
2, 107407, Note_on_c, 0, 76, 89
2, 107408, Note_on_c, 0, 52, 80
2, 107473, Note_on_c, 0, 56, 0
2, 107481, Note_on_c, 0, 71, 0
2, 107482, Note_on_c, 0, 56, 80
2, 107485, Note_on_c, 0, 71, 84
2, 107550, Note_on_c, 0, 59, 0
2, 107557, Note_on_c, 0, 73, 94
2, 107559, Note_on_c, 0, 59, 82
2, 107589, Note_on_c, 0, 56, 0
2, 107600, Note_on_c, 0, 56, 80
2, 107635, Note_on_c, 0, 71, 0
2, 107639, Note_on_c, 0, 71, 86
2, 107688, Note_on_c, 0, 52, 0
2, 107693, Note_on_c, 0, 52, 80
2, 107696, Note_on_c, 0, 73, 0
2, 107702, Note_on_c, 0, 73, 95
2, 107750, Note_on_c, 0, 47, 0
2, 107761, Note_on_c, 0, 47, 90
2, 107781, Note_on_c, 0, 71, 0
2, 107789, Note_on_c, 0, 71, 95
2, 107842, Note_on_c, 0, 40, 0
2, 107853, Note_on_c, 0, 40, 94
2, 107861, Note_on_c, 0, 80, 105
2, 107919, Note_on_c, 0, 47, 0
2, 107924, Note_on_c, 0, 47, 84
2, 107930, Note_on_c, 0, 78, 90
2, 107988, Note_on_c, 0, 52, 0
2, 107996, Note_on_c, 0, 80, 0
2, 107998, Note_on_c, 0, 52, 87
2, 108002, Note_on_c, 0, 80, 100
2, 108072, Note_on_c, 0, 56, 0
2, 108072, Note_on_c, 0, 71, 0
2, 108077, Note_on_c, 0, 56, 89
2, 108078, Note_on_c, 0, 71, 91
2, 108142, Note_on_c, 0, 59, 0
2, 108142, Note_on_c, 0, 76, 0
2, 108146, Note_on_c, 0, 59, 90
2, 108147, Note_on_c, 0, 76, 101
2, 108188, Note_on_c, 0, 56, 0
2, 108193, Note_on_c, 0, 56, 85
2, 108218, Note_on_c, 0, 71, 0
2, 108230, Note_on_c, 0, 71, 88
2, 108257, Note_on_c, 0, 52, 0
2, 108267, Note_on_c, 0, 52, 91
2, 108288, Note_on_c, 0, 76, 0
2, 108299, Note_on_c, 0, 76, 102
2, 108326, Note_on_c, 0, 47, 0
2, 108336, Note_on_c, 0, 47, 80
2, 108357, Note_on_c, 0, 71, 0
2, 108367, Note_on_c, 0, 71, 96
2, 108426, Note_on_c, 0, 40, 0
2, 108432, Note_on_c, 0, 40, 99
2, 108443, Note_on_c, 0, 83, 98
2, 108487, Note_on_c, 0, 47, 0
2, 108491, Note_on_c, 0, 47, 78
2, 108512, Note_on_c, 0, 81, 88
2, 108572, Note_on_c, 0, 52, 0
2, 108579, Note_on_c, 0, 83, 0
2, 108582, Note_on_c, 0, 52, 90
2, 108588, Note_on_c, 0, 83, 89
2, 108656, Note_on_c, 0, 76, 0
2, 108660, Note_on_c, 0, 76, 100
2, 108672, Note_on_c, 0, 56, 0
2, 108679, Note_on_c, 0, 56, 82
2, 108725, Note_on_c, 0, 80, 0
2, 108733, Note_on_c, 0, 59, 0
2, 108736, Note_on_c, 0, 80, 104
2, 108744, Note_on_c, 0, 59, 97
2, 108802, Note_on_c, 0, 76, 0
2, 108812, Note_on_c, 0, 76, 102
2, 108864, Note_on_c, 0, 80, 0
2, 108874, Note_on_c, 0, 80, 101
2, 108933, Note_on_c, 0, 76, 0
2, 108942, Note_on_c, 0, 76, 91
2, 109014, Control_c, 0, 64, 0
2, 109018, Note_on_c, 0, 73, 0
2, 109019, Note_on_c, 0, 56, 0
2, 109019, Note_on_c, 0, 59, 0
2, 109020, Note_on_c, 0, 71, 0
2, 109020, Note_on_c, 0, 64, 0
2, 109020, Note_on_c, 0, 75, 0
2, 109020, Note_on_c, 0, 81, 0
2, 109021, Note_on_c, 0, 78, 0
2, 109021, Note_on_c, 0, 52, 0
2, 109021, Note_on_c, 0, 68, 0
2, 109023, Note_on_c, 0, 76, 0
2, 109025, Note_on_c, 0, 40, 0
2, 109025, Note_on_c, 0, 69, 0
2, 109025, Note_on_c, 0, 80, 0
2, 109025, Note_on_c, 0, 83, 0
2, 109029, Note_on_c, 0, 88, 108
2, 109030, Note_on_c, 0, 40, 99
2, 109031, Note_on_c, 0, 28, 103
2, 109031, Note_on_c, 0, 80, 104
2, 109032, Note_on_c, 0, 66, 0
2, 109036, Note_on_c, 0, 83, 93
2, 109040, Note_on_c, 0, 47, 0
2, 109063, Control_c, 0, 64, 127
2, 109166, Note_on_c, 0, 39, 84
2, 109217, Note_on_c, 0, 39, 0
2, 109222, Note_on_c, 0, 39, 77
2, 109227, Note_on_c, 0, 63, 75
2, 109309, Note_on_c, 0, 40, 0
2, 109320, Note_on_c, 0, 40, 75
2, 109371, Note_on_c, 0, 64, 84
2, 109374, Note_on_c, 0, 52, 82
2, 109470, Note_on_c, 0, 43, 83
2, 109519, Note_on_c, 0, 67, 92
2, 109626, Note_on_c, 0, 44, 86
2, 109673, Note_on_c, 0, 68, 92
2, 109770, Note_on_c, 0, 43, 0
2, 109780, Note_on_c, 0, 43, 98
2, 109831, Note_on_c, 0, 67, 0
2, 109842, Note_on_c, 0, 67, 82
2, 109849, Note_on_c, 0, 55, 75
2, 109923, Note_on_c, 0, 44, 0
2, 109928, Note_on_c, 0, 44, 87
2, 109977, Note_on_c, 0, 68, 0
2, 109986, Note_on_c, 0, 68, 92
2, 109988, Note_on_c, 0, 56, 83
2, 110059, Note_on_c, 0, 46, 86
2, 110119, Note_on_c, 0, 70, 94
2, 110122, Note_on_c, 0, 58, 88
2, 110189, Note_on_c, 0, 64, 0
2, 110189, Note_on_c, 0, 88, 0
2, 110189, Note_on_c, 0, 63, 0
2, 110189, Note_on_c, 0, 83, 0
2, 110189, Note_on_c, 0, 44, 0
2, 110189, Note_on_c, 0, 52, 0
2, 110189, Note_on_c, 0, 39, 0
2, 110189, Note_on_c, 0, 56, 0
2, 110189, Note_on_c, 0, 68, 0
2, 110189, Note_on_c, 0, 55, 0
2, 110189, Note_on_c, 0, 80, 0
2, 110189, Control_c, 0, 64, 0
2, 110190, Note_on_c, 0, 58, 0
2, 110190, Note_on_c, 0, 46, 0
2, 110191, Note_on_c, 0, 70, 0
2, 110208, Note_on_c, 0, 28, 0
2, 110208, Note_on_c, 0, 40, 0
2, 110208, Note_on_c, 0, 43, 0
2, 110208, Note_on_c, 0, 67, 0
2, 110213, Note_on_c, 0, 40, 99
2, 110214, Note_on_c, 0, 28, 95
2, 110215, Control_c, 0, 64, 127
2, 110264, Note_on_c, 0, 71, 95
2, 110267, Note_on_c, 0, 59, 88
2, 110366, Note_on_c, 0, 46, 91
2, 110417, Note_on_c, 0, 70, 86
2, 110424, Note_on_c, 0, 58, 85
2, 110507, Note_on_c, 0, 47, 91
2, 110545, Note_on_c, 0, 59, 0
2, 110545, Note_on_c, 0, 71, 0
2, 110550, Note_on_c, 0, 71, 95
2, 110552, Note_on_c, 0, 59, 88
2, 110641, Note_on_c, 0, 51, 85
2, 110691, Note_on_c, 0, 75, 105
2, 110695, Note_on_c, 0, 63, 92
2, 110784, Note_on_c, 0, 28, 0
2, 110784, Note_on_c, 0, 40, 0
2, 110791, Note_on_c, 0, 40, 96
2, 110793, Note_on_c, 0, 28, 97
2, 110839, Note_on_c, 0, 76, 108
2, 110841, Note_on_c, 0, 64, 97
2, 110922, Note_on_c, 0, 51, 0
2, 110932, Note_on_c, 0, 51, 89
2, 110983, Note_on_c, 0, 63, 0
2, 110983, Note_on_c, 0, 75, 0
2, 110987, Note_on_c, 0, 75, 98
2, 110992, Note_on_c, 0, 63, 83
2, 111087, Note_on_c, 0, 52, 92
2, 111114, Note_on_c, 0, 76, 0
2, 111121, Note_on_c, 0, 64, 0
2, 111125, Note_on_c, 0, 76, 104
2, 111131, Note_on_c, 0, 64, 88
2, 111229, Note_on_c, 0, 55, 82
2, 111267, Note_on_c, 0, 79, 104
2, 111277, Note_on_c, 0, 67, 93
2, 111360, Note_on_c, 0, 40, 0
2, 111360, Note_on_c, 0, 52, 0
2, 111367, Note_on_c, 0, 40, 99
2, 111369, Note_on_c, 0, 52, 94
2, 111418, Note_on_c, 0, 80, 106
2, 111418, Note_on_c, 0, 68, 108
2, 111521, Note_on_c, 0, 55, 0
2, 111527, Note_on_c, 0, 55, 91
2, 111527, Note_on_c, 0, 43, 99
2, 111559, Note_on_c, 0, 79, 0
2, 111567, Note_on_c, 0, 67, 0
2, 111571, Note_on_c, 0, 79, 101
2, 111575, Note_on_c, 0, 67, 83
2, 111663, Note_on_c, 0, 56, 95
2, 111669, Note_on_c, 0, 44, 90
2, 111713, Note_on_c, 0, 68, 0
2, 111713, Note_on_c, 0, 80, 0
2, 111717, Note_on_c, 0, 80, 105
2, 111723, Note_on_c, 0, 68, 100
2, 111813, Note_on_c, 0, 46, 0
2, 111813, Note_on_c, 0, 58, 0
2, 111819, Note_on_c, 0, 58, 99
2, 111819, Note_on_c, 0, 46, 95
2, 111859, Note_on_c, 0, 70, 0
2, 111865, Note_on_c, 0, 82, 102
2, 111869, Note_on_c, 0, 70, 100
2, 111959, Note_on_c, 0, 47, 0
2, 111959, Note_on_c, 0, 59, 0
2, 111963, Note_on_c, 0, 59, 106
2, 111964, Note_on_c, 0, 47, 99
2, 112005, Note_on_c, 0, 71, 0
2, 112008, Note_on_c, 0, 83, 107
2, 112009, Note_on_c, 0, 71, 91
2, 112097, Note_on_c, 0, 46, 0
2, 112097, Note_on_c, 0, 58, 0
2, 112107, Note_on_c, 0, 58, 95
2, 112108, Note_on_c, 0, 46, 94
2, 112158, Note_on_c, 0, 70, 0
2, 112158, Note_on_c, 0, 82, 0
2, 112164, Note_on_c, 0, 82, 106
2, 112164, Note_on_c, 0, 70, 95
2, 112243, Note_on_c, 0, 47, 0
2, 112250, Note_on_c, 0, 59, 0
2, 112253, Note_on_c, 0, 47, 88
2, 112255, Note_on_c, 0, 59, 101
2, 112289, Note_on_c, 0, 71, 0
2, 112289, Note_on_c, 0, 83, 0
2, 112295, Note_on_c, 0, 83, 106
2, 112297, Note_on_c, 0, 71, 91
2, 112373, Note_on_c, 0, 75, 0
2, 112381, Note_on_c, 0, 51, 0
2, 112381, Note_on_c, 0, 63, 0
2, 112384, Note_on_c, 0, 75, 94
2, 112386, Note_on_c, 0, 63, 92
2, 112392, Note_on_c, 0, 51, 87
2, 112427, Note_on_c, 0, 75, 0
2, 112431, Note_on_c, 0, 87, 110
2, 112435, Note_on_c, 0, 75, 104
2, 112462, Note_on_c, 0, 85, 51
2, 112521, Note_on_c, 0, 47, 0
2, 112522, Note_on_c, 0, 71, 0
2, 112522, Note_on_c, 0, 58, 0
2, 112522, Note_on_c, 0, 68, 0
2, 112522, Note_on_c, 0, 67, 0
2, 112522, Note_on_c, 0, 80, 0
2, 112522, Note_on_c, 0, 55, 0
2, 112522, Note_on_c, 0, 56, 0
2, 112522, Note_on_c, 0, 64, 0
2, 112522, Note_on_c, 0, 70, 0
2, 112522, Note_on_c, 0, 51, 0
2, 112522, Note_on_c, 0, 82, 0
2, 112522, Note_on_c, 0, 75, 0
2, 112523, Note_on_c, 0, 76, 0
2, 112523, Note_on_c, 0, 83, 0
2, 112523, Note_on_c, 0, 63, 0
2, 112523, Note_on_c, 0, 46, 0
2, 112523, Note_on_c, 0, 59, 0
2, 112523, Note_on_c, 0, 43, 0
2, 112524, Note_on_c, 0, 87, 0
2, 112527, Note_on_c, 0, 40, 0
2, 112530, Control_c, 0, 64, 0
2, 112535, Note_on_c, 0, 44, 0
2, 112535, Note_on_c, 0, 85, 0
2, 112536, Note_on_c, 0, 40, 99
2, 112542, Note_on_c, 0, 52, 0
2, 112542, Note_on_c, 0, 79, 0
2, 112546, Note_on_c, 0, 52, 92
2, 112550, Control_c, 0, 64, 127
2, 112572, Note_on_c, 0, 88, 108
2, 112578, Note_on_c, 0, 76, 110
2, 112684, Note_on_c, 0, 51, 87
2, 112684, Note_on_c, 0, 61, 96
2, 112722, Note_on_c, 0, 87, 104
2, 112723, Note_on_c, 0, 75, 100
2, 112757, Note_on_c, 0, 28, 0
2, 112819, Note_on_c, 0, 52, 0
2, 112824, Note_on_c, 0, 52, 96
2, 112830, Note_on_c, 0, 64, 92
2, 112865, Note_on_c, 0, 76, 0
2, 112865, Note_on_c, 0, 88, 0
2, 112871, Note_on_c, 0, 88, 104
2, 112875, Note_on_c, 0, 76, 107
2, 112960, Note_on_c, 0, 67, 100
2, 112961, Note_on_c, 0, 55, 97
2, 113001, Note_on_c, 0, 91, 107
2, 113001, Note_on_c, 0, 79, 103
2, 113103, Note_on_c, 0, 40, 0
2, 113108, Note_on_c, 0, 40, 94
2, 113111, Note_on_c, 0, 52, 0
2, 113116, Note_on_c, 0, 52, 88
2, 113145, Note_on_c, 0, 80, 106
2, 113148, Note_on_c, 0, 92, 109
2, 113168, Note_on_c, 0, 90, 80
2, 113252, Note_on_c, 0, 57, 102
2, 113253, Note_on_c, 0, 69, 99
2, 113299, Note_on_c, 0, 93, 106
2, 113302, Note_on_c, 0, 81, 104
2, 113384, Note_on_c, 0, 58, 91
2, 113393, Note_on_c, 0, 70, 96
2, 113425, Note_on_c, 0, 51, 0
2, 113436, Note_on_c, 0, 51, 46
2, 113437, Note_on_c, 0, 94, 109
2, 113437, Note_on_c, 0, 82, 105
2, 113464, Note_on_c, 0, 92, 0
2, 113472, Note_on_c, 0, 92, 49
2, 113528, Note_on_c, 0, 59, 104
2, 113565, Note_on_c, 0, 95, 105
2, 113567, Note_on_c, 0, 83, 103
2, 113699, Control_c, 0, 64, 0
2, 113699, Note_on_c, 0, 69, 0
2, 113700, Note_on_c, 0, 64, 0
2, 113701, Note_on_c, 0, 61, 0
2, 113701, Note_on_c, 0, 70, 0
2, 113701, Note_on_c, 0, 81, 0
2, 113701, Note_on_c, 0, 67, 0
2, 113701, Note_on_c, 0, 90, 0
2, 113701, Note_on_c, 0, 83, 0
2, 113701, Note_on_c, 0, 57, 0
2, 113702, Note_on_c, 0, 76, 0
2, 113702, Note_on_c, 0, 82, 0
2, 113702, Note_on_c, 0, 51, 0
2, 113702, Note_on_c, 0, 80, 0
2, 113703, Note_on_c, 0, 79, 0
2, 113703, Note_on_c, 0, 93, 0
2, 113703, Note_on_c, 0, 75, 0
2, 113703, Note_on_c, 0, 87, 0
2, 113703, Note_on_c, 0, 91, 0
2, 113703, Note_on_c, 0, 58, 0
2, 113704, Note_on_c, 0, 59, 0
2, 113704, Note_on_c, 0, 55, 0
2, 113707, Note_on_c, 0, 100, 112
2, 113710, Note_on_c, 0, 40, 0
2, 113710, Note_on_c, 0, 52, 0
2, 113710, Note_on_c, 0, 95, 0
2, 113717, Note_on_c, 0, 52, 105
2, 113717, Note_on_c, 0, 88, 0
2, 113721, Note_on_c, 0, 40, 104
2, 113721, Note_on_c, 0, 47, 98
2, 113721, Note_on_c, 0, 95, 99
2, 113727, Note_on_c, 0, 88, 104
2, 113733, Note_on_c, 0, 92, 0
2, 113738, Note_on_c, 0, 92, 83
2, 113779, Control_c, 0, 64, 127
2, 114240, Note_on_c, 0, 94, 0
2, 114309, Note_on_c, 0, 100, 0
2, 114315, Note_on_c, 0, 76, 105
2, 114316, Note_on_c, 0, 88, 0
2, 114316, Note_on_c, 0, 95, 0
2, 114319, Note_on_c, 0, 64, 85
2, 114319, Note_on_c, 0, 100, 105
2, 114320, Note_on_c, 0, 71, 95
2, 114321, Note_on_c, 0, 88, 104
2, 114322, Note_on_c, 0, 68, 93
2, 114324, Note_on_c, 0, 92, 0
2, 114326, Note_on_c, 0, 59, 81
2, 114328, Note_on_c, 0, 95, 103
2, 114331, Note_on_c, 0, 92, 94
2, 114915, Note_on_c, 0, 52, 0
2, 114915, Note_on_c, 0, 100, 0
2, 114921, Note_on_c, 0, 100, 111
2, 114923, Note_on_c, 0, 40, 0
2, 114923, Note_on_c, 0, 47, 0
2, 114923, Note_on_c, 0, 88, 0
2, 114923, Note_on_c, 0, 92, 0
2, 114923, Note_on_c, 0, 95, 0
2, 114925, Control_c, 0, 64, 0
2, 114927, Note_on_c, 0, 52, 96
2, 114927, Note_on_c, 0, 40, 99
2, 114927, Note_on_c, 0, 88, 105
2, 114927, Note_on_c, 0, 47, 93
2, 114929, Note_on_c, 0, 92, 98
2, 114931, Note_on_c, 0, 95, 106
2, 114954, Note_on_c, 0, 59, 0
2, 114984, Note_on_c, 0, 76, 0
2, 115015, Control_c, 0, 64, 127
2, 115530, Note_on_c, 0, 64, 0
2, 115530, Note_on_c, 0, 68, 0
2, 115530, Note_on_c, 0, 71, 0
2, 115530, Note_on_c, 0, 100, 0
2, 115533, Note_on_c, 0, 76, 107
2, 115534, Note_on_c, 0, 64, 86
2, 115534, Note_on_c, 0, 100, 105
2, 115537, Note_on_c, 0, 88, 0
2, 115537, Note_on_c, 0, 92, 0
2, 115537, Note_on_c, 0, 95, 0
2, 115539, Note_on_c, 0, 71, 96
2, 115539, Note_on_c, 0, 68, 93
2, 115540, Note_on_c, 0, 59, 80
2, 115541, Note_on_c, 0, 88, 104
2, 115544, Note_on_c, 0, 95, 105
2, 115549, Note_on_c, 0, 92, 96
2, 116167, Note_on_c, 0, 76, 0
2, 116167, Note_on_c, 0, 88, 0
2, 116175, Note_on_c, 0, 40, 0
2, 116175, Note_on_c, 0, 47, 0
2, 116175, Note_on_c, 0, 52, 0
2, 116177, Note_on_c, 0, 88, 104
2, 116178, Note_on_c, 0, 80, 100
2, 116178, Note_on_c, 0, 76, 102
2, 116179, Note_on_c, 0, 47, 93
2, 116180, Note_on_c, 0, 52, 96
2, 116185, Note_on_c, 0, 40, 94
2, 116185, Note_on_c, 0, 83, 92
2, 116204, Note_on_c, 0, 95, 0
2, 116208, Note_on_c, 0, 71, 0
2, 116215, Control_c, 0, 64, 0
2, 116267, Note_on_c, 0, 59, 0
2, 116275, Control_c, 0, 64, 127
2, 116520, Note_on_c, 0, 52, 0
2, 116520, Note_on_c, 0, 76, 0
2, 116520, Note_on_c, 0, 88, 0
2, 116526, Note_on_c, 0, 57, 97
2, 116526, Note_on_c, 0, 88, 103
2, 116529, Note_on_c, 0, 52, 86
2, 116531, Note_on_c, 0, 76, 102
2, 116532, Note_on_c, 0, 49, 89
2, 116532, Note_on_c, 0, 45, 89
2, 116533, Note_on_c, 0, 81, 95
2, 116533, Note_on_c, 0, 85, 101
2, 116551, Control_c, 0, 64, 0
2, 116555, Note_on_c, 0, 47, 0
2, 116558, Note_on_c, 0, 68, 0
2, 116574, Note_on_c, 0, 40, 0
2, 116574, Note_on_c, 0, 92, 0
2, 116582, Note_on_c, 0, 83, 0
2, 116582, Control_c, 0, 64, 127
2, 116897, Note_on_c, 0, 52, 0
2, 116897, Note_on_c, 0, 88, 0
2, 116901, Note_on_c, 0, 88, 104
2, 116903, Note_on_c, 0, 47, 94
2, 116904, Note_on_c, 0, 52, 95
2, 116904, Note_on_c, 0, 76, 0
2, 116904, Note_on_c, 0, 80, 0
2, 116905, Note_on_c, 0, 40, 93
2, 116909, Note_on_c, 0, 76, 102
2, 116909, Note_on_c, 0, 80, 98
2, 116912, Note_on_c, 0, 83, 93
2, 116932, Note_on_c, 0, 81, 0
2, 116933, Note_on_c, 0, 45, 0
2, 116935, Note_on_c, 0, 57, 0
2, 116935, Control_c, 0, 64, 0
2, 116943, Note_on_c, 0, 64, 0
2, 117027, Control_c, 0, 64, 127
2, 117757, Note_on_c, 0, 40, 0
2, 117757, Note_on_c, 0, 52, 0
2, 117759, Note_on_c, 0, 64, 99
2, 117762, Note_on_c, 0, 52, 95
2, 117768, Note_on_c, 0, 40, 97
2, 117768, Note_on_c, 0, 28, 102
2, 117784, Note_on_c, 0, 47, 0
2, 117803, Note_on_c, 0, 49, 0
2, 117820, Control_c, 0, 64, 0
2, 117826, Control_c, 0, 64, 127
2, 118464, Note_on_c, 0, 40, 0
2, 118475, Note_on_c, 0, 40, 51
2, 118517, Note_on_c, 0, 28, 0
2, 118528, Note_on_c, 0, 28, 78
2, 118571, Note_on_c, 0, 40, 0
2, 118575, Note_on_c, 0, 40, 71
2, 118625, Note_on_c, 0, 28, 0
2, 118633, Note_on_c, 0, 28, 85
2, 118656, Note_on_c, 0, 100, 0
2, 118679, Note_on_c, 0, 40, 0
2, 118689, Note_on_c, 0, 40, 69
2, 118748, Note_on_c, 0, 28, 0
2, 118758, Note_on_c, 0, 28, 89
2, 118794, Note_on_c, 0, 40, 0
2, 118804, Note_on_c, 0, 40, 76
2, 118909, Note_on_c, 0, 28, 0
2, 118909, Note_on_c, 0, 40, 0
2, 118914, Note_on_c, 0, 28, 74
2, 118919, Note_on_c, 0, 40, 71
2, 118986, Note_on_c, 0, 28, 0
2, 118990, Note_on_c, 0, 28, 78
2, 119032, Note_on_c, 0, 40, 0
2, 119038, Note_on_c, 0, 40, 76
2, 119093, Note_on_c, 0, 28, 0
2, 119102, Note_on_c, 0, 28, 77
2, 119147, Note_on_c, 0, 40, 0
2, 119154, Note_on_c, 0, 40, 73
2, 119216, Note_on_c, 0, 28, 0
2, 119227, Note_on_c, 0, 28, 73
2, 119247, Note_on_c, 0, 28, 0
2, 119254, Note_on_c, 0, 28, 67
2, 119278, Note_on_c, 0, 40, 0
2, 119282, Note_on_c, 0, 40, 79
2, 119347, Note_on_c, 0, 28, 0
2, 119351, Note_on_c, 0, 28, 73
2, 119408, Note_on_c, 0, 85, 0
2, 119424, Note_on_c, 0, 40, 0
2, 119428, Note_on_c, 0, 40, 76
2, 119523, Note_on_c, 0, 28, 0
2, 119533, Note_on_c, 0, 28, 99
2, 120960, Note_on_c, 0, 52, 0
2, 120960, Note_on_c, 0, 64, 0
2, 120960, Note_on_c, 0, 76, 0
2, 120960, Note_on_c, 0, 80, 0
2, 120960, Note_on_c, 0, 83, 0
2, 120960, Note_on_c, 0, 88, 0
2, 122390, Control_c, 0, 64, 0
2, 122626, Note_on_c, 0, 40, 0
2, 122726, Note_on_c, 0, 28, 0
2, 124800, Control_c, 0, 64, 127
2, 124823, Control_c, 0, 64, 0
2, 124907, Control_c, 0, 64, 127
2, 126236, Control_c, 0, 64, 0
2, 127180, Control_c, 0, 64, 127
2, 128217, Control_c, 0, 64, 0
2, 129507, Control_c, 0, 64, 127
2, 129523, Control_c, 0, 64, 0
2, 129607, Control_c, 0, 64, 127
2, 129991, Control_c, 0, 64, 0
2, 131059, Control_c, 0, 64, 127
2, 131151, Control_c, 0, 64, 0
2, 131435, Control_c, 0, 64, 127
2, 135513, Control_c, 0, 64, 0
2, 138048, Control_c, 0, 64, 127
2, 140160, Control_c, 0, 64, 0
2, 140559, Control_c, 0, 64, 127
2, 140567, Control_c, 0, 64, 0
2, 140797, Control_c, 0, 64, 127
2, 146058, Control_c, 0, 64, 0
2, 146059, End_track
0, 0, End_of_file
