0, 0, Header, 1, 2, 384
1, 0, Start_track
1, 0, Tempo, 500000
1, 0, Time_signature, 4, 2, 24, 8
1, 1, End_track
2, 0, Start_track
2, 1344, Control_c, 0, 64, 127
2, 1996, Control_c, 0, 64, 0
2, 2081, Control_c, 0, 64, 127
2, 2119, Control_c, 0, 64, 0
2, 2133, Note_on_c, 0, 31, 90
2, 2195, Note_on_c, 0, 43, 80
2, 2204, Control_c, 0, 64, 127
2, 2315, Note_on_c, 0, 79, 107
2, 2325, Note_on_c, 0, 70, 99
2, 2328, Note_on_c, 0, 67, 100
2, 2333, Note_on_c, 0, 74, 88
2, 2340, Note_on_c, 0, 62, 91
2, 2341, Note_on_c, 0, 55, 89
2, 2344, Note_on_c, 0, 58, 85
2, 2472, Note_on_c, 0, 67, 0
2, 2478, Note_on_c, 0, 67, 79
2, 2480, Note_on_c, 0, 62, 0
2, 2480, Note_on_c, 0, 70, 0
2, 2480, Note_on_c, 0, 74, 0
2, 2484, Note_on_c, 0, 62, 63
2, 2484, Note_on_c, 0, 70, 74
2, 2486, Note_on_c, 0, 74, 64
2, 2641, Note_on_c, 0, 67, 0
2, 2641, Note_on_c, 0, 70, 0
2, 2641, Note_on_c, 0, 74, 0
2, 2649, Note_on_c, 0, 70, 77
2, 2649, Note_on_c, 0, 67, 66
2, 2652, Note_on_c, 0, 74, 65
2, 2787, Note_on_c, 0, 74, 0
2, 2795, Note_on_c, 0, 67, 0
2, 2795, Note_on_c, 0, 70, 0
2, 2798, Note_on_c, 0, 74, 73
2, 2800, Note_on_c, 0, 67, 62
2, 2804, Note_on_c, 0, 70, 69
2, 2956, Note_on_c, 0, 67, 0
2, 2956, Note_on_c, 0, 70, 0
2, 2956, Note_on_c, 0, 74, 0
2, 2962, Note_on_c, 0, 74, 73
2, 2966, Note_on_c, 0, 67, 70
2, 2966, Note_on_c, 0, 70, 79
2, 3118, Note_on_c, 0, 74, 0
2, 3125, Note_on_c, 0, 67, 0
2, 3125, Note_on_c, 0, 70, 0
2, 3129, Note_on_c, 0, 74, 71
2, 3131, Note_on_c, 0, 67, 61
2, 3134, Note_on_c, 0, 70, 65
2, 3264, Note_on_c, 0, 67, 0
2, 3264, Note_on_c, 0, 70, 0
2, 3264, Note_on_c, 0, 74, 0
2, 3267, Note_on_c, 0, 74, 67
2, 3268, Note_on_c, 0, 67, 62
2, 3272, Note_on_c, 0, 70, 70
2, 3425, Note_on_c, 0, 67, 0
2, 3432, Note_on_c, 0, 70, 0
2, 3433, Note_on_c, 0, 67, 66
2, 3440, Note_on_c, 0, 74, 0
2, 3444, Note_on_c, 0, 70, 63
2, 3444, Note_on_c, 0, 74, 71
2, 3595, Note_on_c, 0, 72, 82
2, 3604, Note_on_c, 0, 65, 56
2, 3606, Note_on_c, 0, 69, 62
2, 3747, Note_on_c, 0, 69, 0
2, 3747, Note_on_c, 0, 72, 0
2, 3755, Note_on_c, 0, 65, 0
2, 3755, Note_on_c, 0, 72, 67
2, 3759, Note_on_c, 0, 69, 49
2, 3761, Note_on_c, 0, 65, 46
2, 3901, Note_on_c, 0, 65, 0
2, 3901, Note_on_c, 0, 72, 0
2, 3909, Note_on_c, 0, 70, 0
2, 3911, Note_on_c, 0, 72, 71
2, 3911, Note_on_c, 0, 65, 45
2, 3916, Note_on_c, 0, 70, 55
2, 4047, Note_on_c, 0, 72, 0
2, 4051, Note_on_c, 0, 53, 92
2, 4052, Note_on_c, 0, 41, 90
2, 4055, Note_on_c, 0, 67, 0
2, 4057, Note_on_c, 0, 72, 83
2, 4058, Note_on_c, 0, 67, 75
2, 4070, Note_on_c, 0, 65, 0
2, 4074, Note_on_c, 0, 65, 66
2, 4200, Note_on_c, 0, 72, 0
2, 4208, Note_on_c, 0, 65, 0
2, 4208, Note_on_c, 0, 67, 0
2, 4208, Note_on_c, 0, 72, 72
2, 4214, Note_on_c, 0, 67, 54
2, 4214, Note_on_c, 0, 65, 66
2, 4361, Note_on_c, 0, 50, 86
2, 4362, Note_on_c, 0, 65, 0
2, 4362, Note_on_c, 0, 72, 0
2, 4364, Note_on_c, 0, 38, 87
2, 4367, Note_on_c, 0, 65, 69
2, 4369, Note_on_c, 0, 67, 0
2, 4371, Note_on_c, 0, 72, 84
2, 4380, Note_on_c, 0, 67, 60
2, 4515, Note_on_c, 0, 41, 0
2, 4515, Note_on_c, 0, 53, 0
2, 4515, Note_on_c, 0, 72, 0
2, 4523, Note_on_c, 0, 62, 0
2, 4523, Note_on_c, 0, 65, 0
2, 4525, Note_on_c, 0, 53, 86
2, 4525, Note_on_c, 0, 41, 80
2, 4526, Note_on_c, 0, 72, 87
2, 4528, Note_on_c, 0, 65, 83
2, 4529, Note_on_c, 0, 62, 70
2, 4666, Note_on_c, 0, 41, 0
2, 4666, Note_on_c, 0, 70, 0
2, 4666, Note_on_c, 0, 58, 0
2, 4666, Note_on_c, 0, 72, 0
2, 4666, Control_c, 0, 64, 0
2, 4666, Note_on_c, 0, 53, 0
2, 4666, Note_on_c, 0, 74, 0
2, 4666, Note_on_c, 0, 67, 0
2, 4668, Note_on_c, 0, 55, 0
2, 4677, Note_on_c, 0, 50, 0
2, 4684, Note_on_c, 0, 31, 0
2, 4684, Note_on_c, 0, 38, 0
2, 4684, Note_on_c, 0, 43, 0
2, 4684, Note_on_c, 0, 62, 0
2, 4684, Note_on_c, 0, 65, 0
2, 4684, Note_on_c, 0, 69, 0
2, 4684, Note_on_c, 0, 79, 0
2, 4689, Note_on_c, 0, 31, 84
2, 4689, Note_on_c, 0, 43, 85
2, 4693, Note_on_c, 0, 62, 75
2, 4694, Note_on_c, 0, 65, 70
2, 4830, Control_c, 0, 64, 127
2, 5014, Note_on_c, 0, 74, 74
2, 5025, Note_on_c, 0, 67, 59
2, 5028, Note_on_c, 0, 70, 50
2, 5160, Note_on_c, 0, 62, 0
2, 5160, Note_on_c, 0, 74, 0
2, 5165, Note_on_c, 0, 62, 89
2, 5168, Note_on_c, 0, 67, 0
2, 5168, Note_on_c, 0, 70, 0
2, 5170, Note_on_c, 0, 55, 81
2, 5171, Note_on_c, 0, 74, 84
2, 5172, Note_on_c, 0, 58, 81
2, 5172, Note_on_c, 0, 67, 74
2, 5172, Note_on_c, 0, 70, 79
2, 5329, Note_on_c, 0, 67, 0
2, 5329, Note_on_c, 0, 74, 0
2, 5334, Note_on_c, 0, 67, 73
2, 5337, Note_on_c, 0, 70, 0
2, 5338, Note_on_c, 0, 74, 66
2, 5342, Note_on_c, 0, 70, 61
2, 5475, Note_on_c, 0, 74, 0
2, 5483, Note_on_c, 0, 67, 0
2, 5483, Note_on_c, 0, 70, 0
2, 5484, Note_on_c, 0, 74, 72
2, 5494, Note_on_c, 0, 67, 59
2, 5494, Note_on_c, 0, 70, 54
2, 5644, Note_on_c, 0, 67, 0
2, 5644, Note_on_c, 0, 70, 0
2, 5644, Note_on_c, 0, 74, 0
2, 5649, Note_on_c, 0, 67, 63
2, 5653, Note_on_c, 0, 74, 62
2, 5656, Note_on_c, 0, 70, 50
2, 5790, Note_on_c, 0, 74, 0
2, 5797, Note_on_c, 0, 74, 77
2, 5806, Note_on_c, 0, 67, 0
2, 5813, Note_on_c, 0, 65, 0
2, 5813, Note_on_c, 0, 70, 0
2, 5817, Note_on_c, 0, 67, 64
2, 5818, Note_on_c, 0, 70, 58
2, 5821, Note_on_c, 0, 65, 42
2, 5952, Note_on_c, 0, 67, 0
2, 5952, Note_on_c, 0, 74, 0
2, 5959, Note_on_c, 0, 70, 0
2, 5962, Note_on_c, 0, 74, 80
2, 5963, Note_on_c, 0, 67, 64
2, 5965, Note_on_c, 0, 70, 64
2, 6120, Note_on_c, 0, 72, 82
2, 6136, Note_on_c, 0, 65, 0
2, 6140, Note_on_c, 0, 65, 60
2, 6142, Note_on_c, 0, 69, 55
2, 6282, Note_on_c, 0, 72, 0
2, 6289, Note_on_c, 0, 65, 0
2, 6289, Note_on_c, 0, 69, 0
2, 6291, Note_on_c, 0, 72, 74
2, 6293, Note_on_c, 0, 65, 53
2, 6293, Note_on_c, 0, 69, 40
2, 6435, Note_on_c, 0, 65, 0
2, 6435, Note_on_c, 0, 72, 0
2, 6440, Note_on_c, 0, 72, 73
2, 6443, Note_on_c, 0, 69, 0
2, 6446, Note_on_c, 0, 65, 41
2, 6454, Note_on_c, 0, 69, 48
2, 6581, Note_on_c, 0, 31, 0
2, 6581, Note_on_c, 0, 67, 0
2, 6589, Note_on_c, 0, 65, 0
2, 6589, Note_on_c, 0, 72, 0
2, 6592, Note_on_c, 0, 67, 67
2, 6593, Note_on_c, 0, 60, 70
2, 6594, Note_on_c, 0, 41, 83
2, 6594, Note_on_c, 0, 53, 86
2, 6595, Note_on_c, 0, 65, 73
2, 6597, Note_on_c, 0, 69, 0
2, 6598, Note_on_c, 0, 72, 80
2, 6601, Note_on_c, 0, 69, 64
2, 6604, Note_on_c, 0, 60, 0
2, 6612, Note_on_c, 0, 62, 0
2, 6616, Note_on_c, 0, 62, 59
2, 6750, Note_on_c, 0, 65, 0
2, 6758, Note_on_c, 0, 72, 0
2, 6762, Note_on_c, 0, 65, 60
2, 6762, Note_on_c, 0, 72, 72
2, 6896, Note_on_c, 0, 72, 0
2, 6904, Note_on_c, 0, 65, 0
2, 6906, Note_on_c, 0, 38, 83
2, 6907, Note_on_c, 0, 60, 71
2, 6907, Note_on_c, 0, 72, 78
2, 6912, Note_on_c, 0, 58, 0
2, 6912, Note_on_c, 0, 65, 63
2, 6922, Note_on_c, 0, 58, 67
2, 7065, Note_on_c, 0, 41, 0
2, 7069, Note_on_c, 0, 41, 64
2, 7073, Note_on_c, 0, 62, 0
2, 7073, Note_on_c, 0, 65, 0
2, 7073, Note_on_c, 0, 67, 0
2, 7077, Note_on_c, 0, 53, 0
2, 7078, Note_on_c, 0, 67, 59
2, 7079, Note_on_c, 0, 65, 65
2, 7080, Note_on_c, 0, 62, 53
2, 7215, Control_c, 0, 64, 0
2, 7215, Note_on_c, 0, 41, 0
2, 7215, Note_on_c, 0, 70, 0
2, 7215, Note_on_c, 0, 74, 0
2, 7216, Note_on_c, 0, 72, 0
2, 7216, Note_on_c, 0, 67, 0
2, 7216, Note_on_c, 0, 58, 0
2, 7216, Note_on_c, 0, 38, 0
2, 7226, Note_on_c, 0, 43, 0
2, 7226, Note_on_c, 0, 55, 0
2, 7226, Note_on_c, 0, 65, 0
2, 7226, Note_on_c, 0, 69, 0
2, 7234, Note_on_c, 0, 43, 81
2, 7234, Note_on_c, 0, 60, 0
2, 7234, Note_on_c, 0, 62, 0
2, 7234, Note_on_c, 0, 31, 83
2, 7237, Note_on_c, 0, 65, 64
2, 7238, Note_on_c, 0, 62, 61
2, 7295, Note_on_c, 0, 31, 0
2, 7342, Control_c, 0, 64, 127
2, 7580, Note_on_c, 0, 62, 0
2, 7581, Note_on_c, 0, 74, 73
2, 7584, Note_on_c, 0, 58, 59
2, 7584, Note_on_c, 0, 62, 62
2, 7718, Note_on_c, 0, 74, 0
2, 7726, Note_on_c, 0, 62, 0
2, 7726, Note_on_c, 0, 74, 75
2, 7733, Note_on_c, 0, 58, 0
2, 7733, Note_on_c, 0, 65, 0
2, 7735, Note_on_c, 0, 62, 62
2, 7739, Note_on_c, 0, 65, 47
2, 7740, Note_on_c, 0, 58, 52
2, 7872, Note_on_c, 0, 74, 0
2, 7878, Note_on_c, 0, 74, 82
2, 7879, Note_on_c, 0, 58, 0
2, 7887, Note_on_c, 0, 62, 0
2, 7887, Note_on_c, 0, 65, 0
2, 7890, Note_on_c, 0, 58, 58
2, 7891, Note_on_c, 0, 65, 48
2, 7892, Note_on_c, 0, 62, 58
2, 8033, Note_on_c, 0, 58, 0
2, 8033, Note_on_c, 0, 62, 0
2, 8040, Note_on_c, 0, 65, 0
2, 8040, Note_on_c, 0, 74, 0
2, 8042, Note_on_c, 0, 62, 60
2, 8044, Note_on_c, 0, 58, 60
2, 8045, Note_on_c, 0, 74, 77
2, 8045, Note_on_c, 0, 65, 47
2, 8179, Note_on_c, 0, 58, 0
2, 8186, Note_on_c, 0, 62, 0
2, 8189, Note_on_c, 0, 58, 63
2, 8193, Note_on_c, 0, 62, 54
2, 8340, Note_on_c, 0, 58, 0
2, 8340, Note_on_c, 0, 62, 0
2, 8344, Note_on_c, 0, 58, 57
2, 8345, Note_on_c, 0, 62, 57
2, 8494, Note_on_c, 0, 74, 0
2, 8498, Note_on_c, 0, 74, 83
2, 8501, Note_on_c, 0, 58, 0
2, 8501, Note_on_c, 0, 62, 0
2, 8507, Note_on_c, 0, 62, 63
2, 8507, Note_on_c, 0, 58, 59
2, 8660, Note_on_c, 0, 72, 85
2, 8663, Note_on_c, 0, 57, 69
2, 8678, Note_on_c, 0, 65, 0
2, 8682, Note_on_c, 0, 65, 43
2, 8689, Note_on_c, 0, 60, 61
2, 8801, Note_on_c, 0, 60, 0
2, 8808, Note_on_c, 0, 57, 0
2, 8812, Note_on_c, 0, 60, 59
2, 8813, Note_on_c, 0, 57, 60
2, 8962, Note_on_c, 0, 57, 0
2, 8962, Note_on_c, 0, 60, 0
2, 8965, Note_on_c, 0, 69, 79
2, 8969, Note_on_c, 0, 57, 63
2, 8969, Note_on_c, 0, 60, 67
2, 9108, Note_on_c, 0, 60, 0
2, 9116, Note_on_c, 0, 57, 0
2, 9116, Note_on_c, 0, 65, 0
2, 9119, Note_on_c, 0, 60, 70
2, 9121, Note_on_c, 0, 57, 66
2, 9124, Note_on_c, 0, 65, 70
2, 9277, Note_on_c, 0, 57, 0
2, 9277, Note_on_c, 0, 60, 0
2, 9284, Note_on_c, 0, 60, 59
2, 9288, Note_on_c, 0, 57, 53
2, 9412, Note_on_c, 0, 53, 77
2, 9413, Note_on_c, 0, 41, 78
2, 9429, Note_on_c, 0, 69, 0
2, 9431, Note_on_c, 0, 57, 0
2, 9431, Note_on_c, 0, 60, 0
2, 9435, Note_on_c, 0, 60, 78
2, 9437, Note_on_c, 0, 57, 69
2, 9569, Note_on_c, 0, 57, 0
2, 9569, Note_on_c, 0, 60, 0
2, 9573, Note_on_c, 0, 38, 81
2, 9573, Note_on_c, 0, 60, 81
2, 9577, Note_on_c, 0, 57, 72
2, 9676, Note_on_c, 0, 43, 0
2, 9681, Note_on_c, 0, 74, 0
2, 9681, Note_on_c, 0, 58, 0
2, 9682, Note_on_c, 0, 57, 0
2, 9682, Note_on_c, 0, 72, 0
2, 9684, Note_on_c, 0, 60, 0
2, 9687, Control_c, 0, 64, 0
2, 9692, Note_on_c, 0, 53, 0
2, 9699, Note_on_c, 0, 41, 0
2, 9699, Note_on_c, 0, 62, 0
2, 9707, Note_on_c, 0, 38, 0
2, 9707, Note_on_c, 0, 65, 0
2, 9722, Note_on_c, 0, 67, 87
2, 9726, Note_on_c, 0, 31, 79
2, 9727, Note_on_c, 0, 43, 73
2, 9776, Control_c, 0, 64, 127
2, 9838, Note_on_c, 0, 31, 0
2, 9878, Note_on_c, 0, 74, 92
2, 10037, Note_on_c, 0, 67, 0
2, 10040, Note_on_c, 0, 62, 68
2, 10041, Note_on_c, 0, 58, 64
2, 10042, Note_on_c, 0, 67, 48
2, 10160, Note_on_c, 0, 43, 0
2, 10176, Note_on_c, 0, 62, 0
2, 10176, Note_on_c, 0, 74, 0
2, 10183, Note_on_c, 0, 58, 0
2, 10183, Note_on_c, 0, 67, 0
2, 10186, Note_on_c, 0, 62, 72
2, 10187, Note_on_c, 0, 74, 86
2, 10187, Note_on_c, 0, 58, 63
2, 10190, Note_on_c, 0, 67, 56
2, 10337, Note_on_c, 0, 58, 0
2, 10337, Note_on_c, 0, 62, 0
2, 10348, Note_on_c, 0, 62, 69
2, 10348, Note_on_c, 0, 58, 76
2, 10490, Note_on_c, 0, 58, 0
2, 10497, Note_on_c, 0, 58, 69
2, 10498, Note_on_c, 0, 62, 0
2, 10509, Note_on_c, 0, 72, 88
2, 10509, Note_on_c, 0, 62, 59
2, 10644, Note_on_c, 0, 62, 0
2, 10652, Note_on_c, 0, 58, 0
2, 10652, Note_on_c, 0, 62, 73
2, 10659, Note_on_c, 0, 70, 86
2, 10662, Note_on_c, 0, 58, 70
2, 10805, Note_on_c, 0, 58, 0
2, 10805, Note_on_c, 0, 72, 0
2, 10813, Note_on_c, 0, 62, 0
2, 10813, Note_on_c, 0, 58, 69
2, 10816, Note_on_c, 0, 72, 89
2, 10817, Note_on_c, 0, 62, 66
2, 10959, Note_on_c, 0, 58, 0
2, 10963, Note_on_c, 0, 58, 63
2, 10963, Note_on_c, 0, 57, 55
2, 10974, Note_on_c, 0, 57, 0
2, 11126, Note_on_c, 0, 57, 74
2, 11127, Note_on_c, 0, 60, 71
2, 11274, Note_on_c, 0, 57, 0
2, 11274, Note_on_c, 0, 60, 0
2, 11279, Note_on_c, 0, 60, 64
2, 11280, Note_on_c, 0, 58, 0
2, 11283, Note_on_c, 0, 57, 56
2, 11427, Note_on_c, 0, 57, 0
2, 11427, Note_on_c, 0, 60, 0
2, 11432, Note_on_c, 0, 60, 69
2, 11434, Note_on_c, 0, 57, 65
2, 11562, Note_on_c, 0, 74, 0
2, 11562, Note_on_c, 0, 72, 0
2, 11562, Control_c, 0, 64, 0
2, 11562, Note_on_c, 0, 70, 0
2, 11573, Note_on_c, 0, 62, 0
2, 11573, Note_on_c, 0, 67, 0
2, 11589, Note_on_c, 0, 57, 0
2, 11589, Note_on_c, 0, 60, 0
2, 11589, Note_on_c, 0, 53, 92
2, 11592, Note_on_c, 0, 41, 91
2, 11594, Note_on_c, 0, 60, 77
2, 11595, Note_on_c, 0, 57, 71
2, 11635, Control_c, 0, 64, 127
2, 11727, Note_on_c, 0, 60, 0
2, 11735, Note_on_c, 0, 57, 0
2, 11737, Note_on_c, 0, 60, 72
2, 11739, Note_on_c, 0, 57, 70
2, 11885, Control_c, 0, 64, 0
2, 11886, Note_on_c, 0, 53, 0
2, 11887, Note_on_c, 0, 60, 0
2, 11896, Note_on_c, 0, 41, 0
2, 11896, Note_on_c, 0, 57, 0
2, 11900, Note_on_c, 0, 48, 95
2, 11901, Note_on_c, 0, 36, 93
2, 11904, Note_on_c, 0, 57, 80
2, 11942, Control_c, 0, 64, 127
2, 12034, Note_on_c, 0, 57, 0
2, 12044, Note_on_c, 0, 57, 75
2, 12045, Note_on_c, 0, 60, 75
2, 12165, Note_on_c, 0, 36, 0
2, 12206, Note_on_c, 0, 51, 96
2, 12207, Note_on_c, 0, 39, 86
2, 12207, Note_on_c, 0, 55, 70
2, 12207, Note_on_c, 0, 63, 74
2, 12211, Note_on_c, 0, 55, 0
2, 12212, Note_on_c, 0, 58, 72
2, 12218, Note_on_c, 0, 48, 0
2, 12218, Note_on_c, 0, 58, 0
2, 12230, Note_on_c, 0, 60, 0
2, 12231, Note_on_c, 0, 57, 0
2, 12232, Control_c, 0, 64, 0
2, 12239, Note_on_c, 0, 51, 0
2, 12245, Note_on_c, 0, 39, 0
2, 12272, Note_on_c, 0, 63, 0
2, 12362, Note_on_c, 0, 51, 93
2, 12364, Control_c, 0, 64, 127
2, 12366, Note_on_c, 0, 39, 81
2, 12688, Note_on_c, 0, 75, 100
2, 12691, Note_on_c, 0, 63, 79
2, 12691, Note_on_c, 0, 58, 76
2, 12696, Note_on_c, 0, 55, 71
2, 12833, Note_on_c, 0, 55, 0
2, 12833, Note_on_c, 0, 58, 0
2, 12833, Note_on_c, 0, 63, 0
2, 12839, Note_on_c, 0, 55, 63
2, 12841, Note_on_c, 0, 63, 68
2, 12844, Note_on_c, 0, 58, 64
2, 12986, Note_on_c, 0, 55, 0
2, 12994, Note_on_c, 0, 58, 0
2, 12994, Note_on_c, 0, 63, 0
2, 12994, Note_on_c, 0, 75, 0
2, 12996, Note_on_c, 0, 55, 71
2, 12998, Note_on_c, 0, 58, 63
2, 13000, Note_on_c, 0, 63, 64
2, 13005, Note_on_c, 0, 75, 93
2, 13148, Note_on_c, 0, 55, 0
2, 13148, Note_on_c, 0, 58, 0
2, 13148, Note_on_c, 0, 63, 0
2, 13154, Note_on_c, 0, 58, 70
2, 13154, Note_on_c, 0, 63, 63
2, 13154, Note_on_c, 0, 55, 62
2, 13294, Note_on_c, 0, 58, 0
2, 13294, Note_on_c, 0, 75, 0
2, 13301, Note_on_c, 0, 55, 0
2, 13301, Note_on_c, 0, 63, 0
2, 13304, Note_on_c, 0, 75, 90
2, 13305, Note_on_c, 0, 58, 68
2, 13305, Note_on_c, 0, 63, 68
2, 13306, Note_on_c, 0, 55, 68
2, 13440, Note_on_c, 0, 55, 0
2, 13445, Note_on_c, 0, 55, 71
2, 13447, Note_on_c, 0, 58, 0
2, 13447, Note_on_c, 0, 63, 0
2, 13451, Note_on_c, 0, 63, 62
2, 13452, Note_on_c, 0, 58, 79
2, 13467, Note_on_c, 0, 74, 97
2, 13555, Note_on_c, 0, 51, 0
2, 13558, Note_on_c, 0, 39, 0
2, 13558, Control_c, 0, 64, 0
2, 13558, Note_on_c, 0, 55, 0
2, 13558, Note_on_c, 0, 63, 0
2, 13559, Note_on_c, 0, 75, 0
2, 13559, Note_on_c, 0, 58, 0
2, 13617, Note_on_c, 0, 46, 96
2, 13619, Note_on_c, 0, 34, 94
2, 13639, Control_c, 0, 64, 127
2, 13646, Note_on_c, 0, 46, 0
2, 13775, Note_on_c, 0, 72, 89
2, 13782, Note_on_c, 0, 62, 77
2, 13783, Note_on_c, 0, 53, 76
2, 13783, Note_on_c, 0, 46, 74
2, 13784, Note_on_c, 0, 58, 71
2, 13800, Note_on_c, 0, 34, 0
2, 13916, Note_on_c, 0, 46, 0
2, 13916, Note_on_c, 0, 58, 0
2, 13916, Note_on_c, 0, 62, 0
2, 13921, Note_on_c, 0, 58, 62
2, 13921, Note_on_c, 0, 46, 63
2, 13922, Note_on_c, 0, 62, 62
2, 14077, Note_on_c, 0, 53, 0
2, 14077, Note_on_c, 0, 62, 0
2, 14081, Note_on_c, 0, 34, 72
2, 14083, Note_on_c, 0, 62, 71
2, 14085, Note_on_c, 0, 58, 0
2, 14087, Note_on_c, 0, 53, 71
2, 14089, Note_on_c, 0, 58, 69
2, 14091, Note_on_c, 0, 70, 90
2, 14223, Note_on_c, 0, 58, 0
2, 14223, Note_on_c, 0, 62, 0
2, 14233, Note_on_c, 0, 62, 68
2, 14233, Note_on_c, 0, 58, 72
2, 14238, Note_on_c, 0, 53, 0
2, 14250, Note_on_c, 0, 53, 58
2, 14376, Note_on_c, 0, 53, 0
2, 14381, Note_on_c, 0, 53, 70
2, 14392, Note_on_c, 0, 62, 0
2, 14400, Note_on_c, 0, 58, 0
2, 14401, Note_on_c, 0, 62, 61
2, 14404, Note_on_c, 0, 58, 67
2, 14538, Note_on_c, 0, 58, 0
2, 14545, Note_on_c, 0, 53, 0
2, 14545, Note_on_c, 0, 62, 0
2, 14549, Note_on_c, 0, 58, 69
2, 14550, Note_on_c, 0, 53, 70
2, 14551, Note_on_c, 0, 62, 64
2, 14676, Note_on_c, 0, 58, 0
2, 14684, Note_on_c, 0, 53, 0
2, 14684, Note_on_c, 0, 62, 0
2, 14687, Note_on_c, 0, 58, 77
2, 14688, Note_on_c, 0, 53, 64
2, 14691, Note_on_c, 0, 70, 0
2, 14694, Note_on_c, 0, 62, 54
2, 14695, Note_on_c, 0, 70, 91
2, 14806, Control_c, 0, 64, 0
2, 14809, Note_on_c, 0, 53, 0
2, 14809, Note_on_c, 0, 34, 0
2, 14809, Note_on_c, 0, 72, 0
2, 14809, Note_on_c, 0, 46, 0
2, 14809, Note_on_c, 0, 62, 0
2, 14809, Note_on_c, 0, 58, 0
2, 14810, Note_on_c, 0, 70, 0
2, 14814, Note_on_c, 0, 74, 0
2, 14852, Note_on_c, 0, 74, 97
2, 14854, Note_on_c, 0, 46, 94
2, 14857, Note_on_c, 0, 65, 85
2, 14858, Note_on_c, 0, 34, 89
2, 14858, Note_on_c, 0, 70, 89
2, 14883, Control_c, 0, 64, 127
2, 14885, Note_on_c, 0, 46, 0
2, 14889, Note_on_c, 0, 34, 0
2, 15020, Note_on_c, 0, 62, 79
2, 15025, Note_on_c, 0, 58, 48
2, 15152, Note_on_c, 0, 58, 0
2, 15152, Note_on_c, 0, 62, 0
2, 15152, Note_on_c, 0, 74, 0
2, 15157, Note_on_c, 0, 62, 67
2, 15158, Note_on_c, 0, 58, 82
2, 15161, Note_on_c, 0, 46, 77
2, 15163, Note_on_c, 0, 74, 92
2, 15168, Note_on_c, 0, 46, 0
2, 15280, Control_c, 0, 64, 0
2, 15280, Note_on_c, 0, 70, 0
2, 15280, Note_on_c, 0, 65, 0
2, 15280, Note_on_c, 0, 62, 0
2, 15281, Note_on_c, 0, 58, 0
2, 15298, Note_on_c, 0, 74, 0
2, 15323, Note_on_c, 0, 72, 100
2, 15325, Note_on_c, 0, 48, 89
2, 15326, Note_on_c, 0, 36, 89
2, 15326, Note_on_c, 0, 65, 84
2, 15326, Note_on_c, 0, 67, 92
2, 15358, Note_on_c, 0, 48, 0
2, 15359, Note_on_c, 0, 36, 0
2, 15360, Control_c, 0, 64, 127
2, 15471, Note_on_c, 0, 60, 66
2, 15631, Note_on_c, 0, 55, 63
2, 15639, Note_on_c, 0, 70, 81
2, 15757, Control_c, 0, 64, 0
2, 15759, Note_on_c, 0, 65, 0
2, 15760, Note_on_c, 0, 67, 0
2, 15761, Note_on_c, 0, 55, 0
2, 15761, Note_on_c, 0, 72, 0
2, 15762, Note_on_c, 0, 60, 0
2, 15762, Note_on_c, 0, 70, 0
2, 15794, Note_on_c, 0, 74, 99
2, 15799, Note_on_c, 0, 69, 88
2, 15801, Note_on_c, 0, 67, 83
2, 15801, Note_on_c, 0, 50, 96
2, 15808, Note_on_c, 0, 38, 93
2, 15843, Control_c, 0, 64, 127
2, 16089, Note_on_c, 0, 38, 0
2, 16089, Note_on_c, 0, 50, 0
2, 16089, Note_on_c, 0, 67, 0
2, 16100, Note_on_c, 0, 67, 78
2, 16100, Note_on_c, 0, 50, 73
2, 16101, Note_on_c, 0, 38, 70
2, 16258, Note_on_c, 0, 69, 0
2, 16265, Note_on_c, 0, 69, 87
2, 16266, Note_on_c, 0, 67, 0
2, 16268, Note_on_c, 0, 62, 86
2, 16269, Note_on_c, 0, 57, 86
2, 16269, Note_on_c, 0, 55, 84
2, 16271, Note_on_c, 0, 67, 76
2, 16419, Note_on_c, 0, 67, 0
2, 16419, Note_on_c, 0, 69, 0
2, 16428, Note_on_c, 0, 69, 74
2, 16431, Note_on_c, 0, 67, 66
2, 16550, Note_on_c, 0, 50, 0
2, 16558, Note_on_c, 0, 38, 0
2, 16558, Note_on_c, 0, 67, 0
2, 16560, Note_on_c, 0, 50, 81
2, 16566, Note_on_c, 0, 38, 73
2, 16569, Note_on_c, 0, 67, 70
2, 16719, Note_on_c, 0, 62, 0
2, 16719, Note_on_c, 0, 67, 0
2, 16723, Note_on_c, 0, 62, 82
2, 16725, Note_on_c, 0, 54, 88
2, 16725, Note_on_c, 0, 67, 76
2, 16727, Note_on_c, 0, 57, 0
2, 16731, Note_on_c, 0, 57, 76
2, 16872, Note_on_c, 0, 38, 0
2, 16872, Note_on_c, 0, 50, 0
2, 16878, Note_on_c, 0, 50, 89
2, 16879, Note_on_c, 0, 38, 89
2, 17022, Note_on_c, 0, 41, 86
2, 17022, Note_on_c, 0, 53, 83
2, 17034, Note_on_c, 0, 74, 0
2, 17039, Control_c, 0, 64, 0
2, 17045, Note_on_c, 0, 55, 0
2, 17047, Note_on_c, 0, 54, 0
2, 17047, Note_on_c, 0, 50, 0
2, 17049, Note_on_c, 0, 62, 0
2, 17050, Note_on_c, 0, 67, 0
2, 17051, Note_on_c, 0, 57, 0
2, 17051, Note_on_c, 0, 38, 0
2, 17054, Note_on_c, 0, 53, 0
2, 17061, Note_on_c, 0, 41, 0
2, 17064, Note_on_c, 0, 69, 0
2, 17189, Note_on_c, 0, 55, 90
2, 17191, Note_on_c, 0, 43, 87
2, 17272, Control_c, 0, 64, 127
2, 17518, Note_on_c, 0, 55, 0
2, 17525, Note_on_c, 0, 43, 0
2, 17526, Note_on_c, 0, 55, 68
2, 17530, Note_on_c, 0, 43, 59
2, 17646, Note_on_c, 0, 86, 88
2, 17659, Note_on_c, 0, 67, 76
2, 17660, Note_on_c, 0, 74, 70
2, 17665, Note_on_c, 0, 79, 73
2, 17668, Note_on_c, 0, 58, 66
2, 17794, Note_on_c, 0, 86, 0
2, 17802, Note_on_c, 0, 55, 0
2, 17805, Note_on_c, 0, 86, 81
2, 17807, Note_on_c, 0, 55, 73
2, 17955, Note_on_c, 0, 86, 0
2, 17962, Note_on_c, 0, 86, 93
2, 17969, Note_on_c, 0, 62, 71
2, 17971, Note_on_c, 0, 74, 0
2, 17971, Note_on_c, 0, 70, 74
2, 17975, Note_on_c, 0, 74, 58
2, 18109, Note_on_c, 0, 55, 0
2, 18109, Note_on_c, 0, 74, 0
2, 18109, Note_on_c, 0, 86, 0
2, 18115, Note_on_c, 0, 55, 66
2, 18115, Note_on_c, 0, 86, 90
2, 18120, Note_on_c, 0, 74, 68
2, 18270, Note_on_c, 0, 58, 0
2, 18270, Note_on_c, 0, 67, 0
2, 18274, Note_on_c, 0, 67, 66
2, 18278, Note_on_c, 0, 79, 0
2, 18280, Note_on_c, 0, 58, 69
2, 18286, Note_on_c, 0, 74, 0
2, 18287, Note_on_c, 0, 79, 72
2, 18290, Note_on_c, 0, 74, 54
2, 18401, Note_on_c, 0, 55, 0
2, 18410, Note_on_c, 0, 55, 67
2, 18424, Note_on_c, 0, 86, 0
2, 18433, Note_on_c, 0, 86, 86
2, 18583, Note_on_c, 0, 84, 86
2, 18589, Note_on_c, 0, 60, 76
2, 18590, Note_on_c, 0, 69, 74
2, 18716, Note_on_c, 0, 55, 0
2, 18727, Note_on_c, 0, 55, 71
2, 18881, Note_on_c, 0, 65, 73
2, 18881, Note_on_c, 0, 81, 87
2, 18887, Note_on_c, 0, 57, 74
2, 19023, Note_on_c, 0, 55, 0
2, 19031, Note_on_c, 0, 55, 75
2, 19034, Note_on_c, 0, 77, 85
2, 19040, Note_on_c, 0, 72, 75
2, 19176, Note_on_c, 0, 60, 0
2, 19188, Note_on_c, 0, 60, 69
2, 19333, Note_on_c, 0, 41, 86
2, 19485, Note_on_c, 0, 50, 90
2, 19486, Note_on_c, 0, 38, 89
2, 19635, Control_c, 0, 64, 0
2, 19636, Note_on_c, 0, 70, 0
2, 19636, Note_on_c, 0, 58, 0
2, 19636, Note_on_c, 0, 86, 0
2, 19636, Note_on_c, 0, 55, 0
2, 19637, Note_on_c, 0, 84, 0
2, 19637, Note_on_c, 0, 74, 0
2, 19637, Note_on_c, 0, 81, 0
2, 19637, Note_on_c, 0, 72, 0
2, 19637, Note_on_c, 0, 67, 0
2, 19637, Note_on_c, 0, 79, 0
2, 19637, Note_on_c, 0, 62, 0
2, 19638, Note_on_c, 0, 77, 0
2, 19638, Note_on_c, 0, 41, 0
2, 19638, Note_on_c, 0, 60, 0
2, 19638, Note_on_c, 0, 65, 0
2, 19638, Note_on_c, 0, 69, 0
2, 19639, Note_on_c, 0, 57, 0
2, 19645, Note_on_c, 0, 43, 0
2, 19646, Note_on_c, 0, 79, 92
2, 19647, Note_on_c, 0, 31, 87
2, 19648, Note_on_c, 0, 67, 78
2, 19649, Note_on_c, 0, 43, 84
2, 19653, Note_on_c, 0, 50, 0
2, 19655, Note_on_c, 0, 38, 0
2, 19722, Control_c, 0, 64, 127
2, 19760, Note_on_c, 0, 31, 0
2, 19796, Note_on_c, 0, 86, 95
2, 19802, Note_on_c, 0, 82, 90
2, 19803, Note_on_c, 0, 74, 85
2, 19944, Note_on_c, 0, 74, 0
2, 19944, Note_on_c, 0, 86, 0
2, 19952, Note_on_c, 0, 86, 91
2, 19952, Note_on_c, 0, 82, 0
2, 19955, Note_on_c, 0, 55, 73
2, 19955, Note_on_c, 0, 74, 81
2, 19957, Note_on_c, 0, 82, 83
2, 20090, Note_on_c, 0, 67, 0
2, 20098, Note_on_c, 0, 58, 81
2, 20099, Note_on_c, 0, 67, 79
2, 20236, Note_on_c, 0, 86, 0
2, 20248, Note_on_c, 0, 86, 91
2, 20252, Note_on_c, 0, 55, 0
2, 20256, Note_on_c, 0, 55, 75
2, 20403, Note_on_c, 0, 84, 88
2, 20405, Note_on_c, 0, 81, 83
2, 20409, Note_on_c, 0, 62, 74
2, 20409, Note_on_c, 0, 72, 79
2, 20414, Note_on_c, 0, 70, 83
2, 20551, Note_on_c, 0, 55, 0
2, 20556, Note_on_c, 0, 55, 74
2, 20705, Note_on_c, 0, 82, 0
2, 20713, Note_on_c, 0, 82, 86
2, 20720, Note_on_c, 0, 58, 0
2, 20720, Note_on_c, 0, 67, 0
2, 20726, Note_on_c, 0, 58, 64
2, 20732, Note_on_c, 0, 67, 69
2, 20736, Note_on_c, 0, 79, 0
2, 20739, Note_on_c, 0, 60, 43
2, 20745, Note_on_c, 0, 79, 62
2, 20755, Note_on_c, 0, 77, 45
2, 20858, Note_on_c, 0, 55, 0
2, 20863, Note_on_c, 0, 55, 79
2, 20874, Note_on_c, 0, 84, 0
2, 20878, Note_on_c, 0, 84, 91
2, 20881, Note_on_c, 0, 72, 0
2, 20881, Note_on_c, 0, 81, 0
2, 20887, Note_on_c, 0, 81, 81
2, 20890, Note_on_c, 0, 72, 78
2, 21020, Note_on_c, 0, 60, 0
2, 21025, Note_on_c, 0, 69, 79
2, 21027, Note_on_c, 0, 60, 74
2, 21166, Note_on_c, 0, 55, 0
2, 21171, Note_on_c, 0, 55, 78
2, 21317, Note_on_c, 0, 65, 76
2, 21322, Note_on_c, 0, 57, 77
2, 21462, Note_on_c, 0, 81, 0
2, 21462, Note_on_c, 0, 74, 0
2, 21462, Note_on_c, 0, 86, 0
2, 21462, Note_on_c, 0, 62, 0
2, 21462, Note_on_c, 0, 69, 0
2, 21462, Note_on_c, 0, 84, 0
2, 21462, Note_on_c, 0, 67, 0
2, 21462, Note_on_c, 0, 77, 0
2, 21462, Note_on_c, 0, 43, 0
2, 21462, Control_c, 0, 64, 0
2, 21463, Note_on_c, 0, 58, 0
2, 21463, Note_on_c, 0, 72, 0
2, 21463, Note_on_c, 0, 60, 0
2, 21463, Note_on_c, 0, 55, 0
2, 21463, Note_on_c, 0, 57, 0
2, 21463, Note_on_c, 0, 65, 0
2, 21468, Note_on_c, 0, 41, 92
2, 21468, Note_on_c, 0, 53, 95
2, 21473, Note_on_c, 0, 70, 0
2, 21473, Note_on_c, 0, 79, 0
2, 21473, Note_on_c, 0, 82, 0
2, 21542, Control_c, 0, 64, 127
2, 21615, Note_on_c, 0, 48, 85
2, 21772, Note_on_c, 0, 48, 0
2, 21782, Note_on_c, 0, 48, 94
2, 21783, Note_on_c, 0, 36, 94
2, 21793, Note_on_c, 0, 41, 0
2, 21834, Note_on_c, 0, 53, 0
2, 21923, Note_on_c, 0, 43, 81
2, 22008, Note_on_c, 0, 36, 0
2, 22010, Control_c, 0, 64, 0
2, 22012, Note_on_c, 0, 43, 0
2, 22026, Note_on_c, 0, 48, 0
2, 22078, Note_on_c, 0, 51, 97
2, 22079, Note_on_c, 0, 39, 89
2, 22115, Note_on_c, 0, 51, 0
2, 22117, Note_on_c, 0, 39, 0
2, 22210, Control_c, 0, 64, 127
2, 22231, Note_on_c, 0, 51, 100
2, 22232, Note_on_c, 0, 39, 94
2, 22397, Note_on_c, 0, 87, 79
2, 22406, Note_on_c, 0, 79, 72
2, 22533, Note_on_c, 0, 87, 0
2, 22542, Note_on_c, 0, 63, 80
2, 22544, Note_on_c, 0, 87, 88
2, 22549, Note_on_c, 0, 58, 80
2, 22552, Note_on_c, 0, 55, 67
2, 22679, Note_on_c, 0, 87, 0
2, 22686, Note_on_c, 0, 51, 0
2, 22686, Note_on_c, 0, 79, 0
2, 22690, Note_on_c, 0, 87, 94
2, 22691, Note_on_c, 0, 51, 77
2, 22696, Note_on_c, 0, 79, 77
2, 22832, Note_on_c, 0, 87, 0
2, 22840, Note_on_c, 0, 58, 0
2, 22840, Note_on_c, 0, 79, 0
2, 22842, Note_on_c, 0, 87, 96
2, 22848, Note_on_c, 0, 55, 0
2, 22850, Note_on_c, 0, 79, 78
2, 22851, Note_on_c, 0, 58, 68
2, 22853, Note_on_c, 0, 55, 74
2, 22993, Note_on_c, 0, 51, 0
2, 23005, Note_on_c, 0, 51, 77
2, 23147, Note_on_c, 0, 58, 0
2, 23147, Note_on_c, 0, 63, 0
2, 23155, Note_on_c, 0, 55, 0
2, 23155, Note_on_c, 0, 63, 87
2, 23158, Note_on_c, 0, 58, 81
2, 23158, Note_on_c, 0, 67, 74
2, 23159, Note_on_c, 0, 55, 73
2, 23278, Note_on_c, 0, 51, 0
2, 23284, Note_on_c, 0, 63, 0
2, 23285, Note_on_c, 0, 79, 0
2, 23285, Note_on_c, 0, 87, 0
2, 23286, Note_on_c, 0, 51, 77
2, 23292, Note_on_c, 0, 87, 91
2, 23294, Note_on_c, 0, 79, 84
2, 23396, Control_c, 0, 64, 0
2, 23397, Note_on_c, 0, 55, 0
2, 23397, Note_on_c, 0, 51, 0
2, 23397, Note_on_c, 0, 58, 0
2, 23397, Note_on_c, 0, 87, 0
2, 23397, Note_on_c, 0, 39, 0
2, 23397, Note_on_c, 0, 79, 0
2, 23408, Note_on_c, 0, 67, 0
2, 23444, Note_on_c, 0, 86, 100
2, 23449, Note_on_c, 0, 46, 97
2, 23451, Note_on_c, 0, 34, 90
2, 23451, Note_on_c, 0, 77, 88
2, 23470, Control_c, 0, 64, 127
2, 23758, Note_on_c, 0, 62, 78
2, 23759, Note_on_c, 0, 84, 88
2, 23760, Note_on_c, 0, 58, 80
2, 23771, Note_on_c, 0, 53, 63
2, 23774, Note_on_c, 0, 75, 78
2, 23907, Note_on_c, 0, 46, 0
2, 23913, Note_on_c, 0, 82, 94
2, 23918, Note_on_c, 0, 74, 85
2, 23919, Note_on_c, 0, 46, 81
2, 24061, Note_on_c, 0, 53, 0
2, 24061, Note_on_c, 0, 62, 0
2, 24066, Note_on_c, 0, 53, 79
2, 24068, Note_on_c, 0, 62, 61
2, 24207, Note_on_c, 0, 34, 0
2, 24207, Note_on_c, 0, 46, 0
2, 24212, Note_on_c, 0, 46, 87
2, 24218, Note_on_c, 0, 34, 70
2, 24345, Note_on_c, 0, 58, 0
2, 24345, Note_on_c, 0, 62, 0
2, 24352, Note_on_c, 0, 62, 91
2, 24353, Note_on_c, 0, 82, 0
2, 24356, Note_on_c, 0, 58, 96
2, 24357, Note_on_c, 0, 82, 101
2, 24366, Note_on_c, 0, 70, 88
2, 24506, Note_on_c, 0, 84, 0
2, 24510, Note_on_c, 0, 84, 100
2, 24511, Note_on_c, 0, 72, 96
2, 24603, Note_on_c, 0, 34, 0
2, 24603, Note_on_c, 0, 46, 0
2, 24603, Note_on_c, 0, 77, 0
2, 24603, Note_on_c, 0, 62, 0
2, 24603, Note_on_c, 0, 82, 0
2, 24603, Note_on_c, 0, 86, 0
2, 24603, Note_on_c, 0, 72, 0
2, 24603, Note_on_c, 0, 84, 0
2, 24603, Note_on_c, 0, 53, 0
2, 24603, Note_on_c, 0, 75, 0
2, 24604, Note_on_c, 0, 74, 0
2, 24605, Control_c, 0, 64, 0
2, 24622, Note_on_c, 0, 58, 0
2, 24629, Note_on_c, 0, 70, 0
2, 24656, Note_on_c, 0, 86, 105
2, 24659, Note_on_c, 0, 34, 97
2, 24659, Note_on_c, 0, 46, 104
2, 24659, Note_on_c, 0, 77, 98
2, 24663, Note_on_c, 0, 82, 99
2, 24668, Control_c, 0, 64, 127
2, 24815, Note_on_c, 0, 58, 70
2, 24948, Note_on_c, 0, 53, 75
2, 24952, Note_on_c, 0, 86, 0
2, 24960, Note_on_c, 0, 77, 0
2, 24963, Note_on_c, 0, 86, 93
2, 24965, Note_on_c, 0, 77, 67
2, 24968, Note_on_c, 0, 74, 80
2, 25075, Note_on_c, 0, 46, 0
2, 25075, Control_c, 0, 64, 0
2, 25076, Note_on_c, 0, 82, 0
2, 25077, Note_on_c, 0, 77, 0
2, 25077, Note_on_c, 0, 53, 0
2, 25078, Note_on_c, 0, 86, 0
2, 25078, Note_on_c, 0, 74, 0
2, 25082, Note_on_c, 0, 34, 0
2, 25090, Note_on_c, 0, 58, 0
2, 25116, Note_on_c, 0, 84, 101
2, 25116, Note_on_c, 0, 48, 101
2, 25117, Note_on_c, 0, 72, 101
2, 25117, Note_on_c, 0, 77, 92
2, 25117, Note_on_c, 0, 36, 101
2, 25121, Note_on_c, 0, 79, 94
2, 25144, Control_c, 0, 64, 127
2, 25280, Note_on_c, 0, 60, 60
2, 25314, Note_on_c, 0, 55, 43
2, 25320, Note_on_c, 0, 55, 0
2, 25412, Note_on_c, 0, 55, 74
2, 25431, Note_on_c, 0, 82, 98
2, 25432, Note_on_c, 0, 70, 89
2, 25543, Note_on_c, 0, 36, 0
2, 25551, Note_on_c, 0, 77, 0
2, 25551, Control_c, 0, 64, 0
2, 25552, Note_on_c, 0, 82, 0
2, 25552, Note_on_c, 0, 72, 0
2, 25552, Note_on_c, 0, 55, 0
2, 25552, Note_on_c, 0, 70, 0
2, 25552, Note_on_c, 0, 79, 0
2, 25553, Note_on_c, 0, 84, 0
2, 25559, Note_on_c, 0, 60, 0
2, 25566, Note_on_c, 0, 48, 0
2, 25585, Note_on_c, 0, 50, 104
2, 25586, Note_on_c, 0, 86, 105
2, 25586, Note_on_c, 0, 38, 100
2, 25587, Note_on_c, 0, 81, 93
2, 25591, Note_on_c, 0, 78, 90
2, 25591, Note_on_c, 0, 74, 102
2, 25628, Control_c, 0, 64, 127
2, 25881, Note_on_c, 0, 81, 0
2, 25888, Note_on_c, 0, 81, 82
2, 25889, Note_on_c, 0, 74, 0
2, 25894, Note_on_c, 0, 74, 80
2, 25895, Note_on_c, 0, 69, 73
2, 25896, Note_on_c, 0, 50, 0
2, 25904, Note_on_c, 0, 69, 0
2, 25905, Note_on_c, 0, 79, 77
2, 25906, Note_on_c, 0, 50, 82
2, 25906, Note_on_c, 0, 67, 70
2, 25912, Note_on_c, 0, 67, 0
2, 26035, Note_on_c, 0, 38, 0
2, 26042, Note_on_c, 0, 38, 88
2, 26046, Note_on_c, 0, 55, 91
2, 26047, Note_on_c, 0, 62, 96
2, 26050, Note_on_c, 0, 74, 0
2, 26050, Note_on_c, 0, 79, 0
2, 26052, Note_on_c, 0, 57, 93
2, 26056, Note_on_c, 0, 74, 90
2, 26061, Note_on_c, 0, 79, 84
2, 26196, Note_on_c, 0, 74, 0
2, 26196, Note_on_c, 0, 79, 0
2, 26196, Note_on_c, 0, 81, 0
2, 26202, Note_on_c, 0, 74, 81
2, 26203, Note_on_c, 0, 79, 85
2, 26203, Note_on_c, 0, 81, 88
2, 26342, Note_on_c, 0, 50, 0
2, 26342, Note_on_c, 0, 74, 0
2, 26342, Note_on_c, 0, 78, 0
2, 26342, Note_on_c, 0, 79, 0
2, 26342, Note_on_c, 0, 81, 0
2, 26346, Note_on_c, 0, 81, 91
2, 26346, Note_on_c, 0, 74, 90
2, 26348, Note_on_c, 0, 50, 98
2, 26351, Note_on_c, 0, 79, 86
2, 26352, Note_on_c, 0, 78, 81
2, 26496, Note_on_c, 0, 57, 0
2, 26496, Note_on_c, 0, 62, 0
2, 26496, Note_on_c, 0, 74, 0
2, 26496, Note_on_c, 0, 81, 0
2, 26500, Note_on_c, 0, 62, 97
2, 26503, Note_on_c, 0, 81, 102
2, 26503, Note_on_c, 0, 78, 0
2, 26503, Note_on_c, 0, 57, 100
2, 26505, Note_on_c, 0, 54, 96
2, 26506, Note_on_c, 0, 74, 93
2, 26509, Note_on_c, 0, 78, 92
2, 26649, Note_on_c, 0, 74, 0
2, 26649, Note_on_c, 0, 86, 0
2, 26658, Note_on_c, 0, 86, 108
2, 26660, Note_on_c, 0, 74, 105
2, 26699, Control_c, 0, 64, 0
2, 26700, Note_on_c, 0, 54, 0
2, 26701, Note_on_c, 0, 55, 0
2, 26701, Note_on_c, 0, 74, 0
2, 26701, Note_on_c, 0, 81, 0
2, 26701, Note_on_c, 0, 78, 0
2, 26701, Note_on_c, 0, 62, 0
2, 26701, Note_on_c, 0, 57, 0
2, 26702, Note_on_c, 0, 38, 0
2, 26703, Note_on_c, 0, 79, 0
2, 26706, Note_on_c, 0, 86, 0
2, 26718, Note_on_c, 0, 50, 0
2, 26801, Note_on_c, 0, 89, 108
2, 26802, Note_on_c, 0, 77, 108
2, 26833, Note_on_c, 0, 77, 0
2, 26834, Note_on_c, 0, 89, 0
2, 26952, Note_on_c, 0, 91, 114
2, 26956, Note_on_c, 0, 39, 103
2, 26957, Note_on_c, 0, 87, 98
2, 26958, Note_on_c, 0, 82, 103
2, 26958, Note_on_c, 0, 27, 103
2, 26959, Note_on_c, 0, 79, 107
2, 26961, Note_on_c, 0, 34, 89
2, 26967, Note_on_c, 0, 85, 90
2, 26979, Control_c, 0, 64, 127
2, 27270, Note_on_c, 0, 51, 72
2, 27272, Note_on_c, 0, 63, 71
2, 27273, Note_on_c, 0, 58, 56
2, 27279, Note_on_c, 0, 58, 0
2, 27417, Note_on_c, 0, 51, 0
2, 27417, Note_on_c, 0, 63, 0
2, 27421, Note_on_c, 0, 86, 107
2, 27423, Note_on_c, 0, 55, 94
2, 27424, Note_on_c, 0, 63, 95
2, 27425, Note_on_c, 0, 79, 0
2, 27425, Note_on_c, 0, 85, 0
2, 27427, Note_on_c, 0, 58, 93
2, 27428, Note_on_c, 0, 51, 83
2, 27429, Note_on_c, 0, 74, 103
2, 27430, Note_on_c, 0, 79, 84
2, 27436, Note_on_c, 0, 85, 83
2, 27563, Note_on_c, 0, 51, 0
2, 27567, Note_on_c, 0, 51, 74
2, 27717, Note_on_c, 0, 55, 0
2, 27726, Note_on_c, 0, 55, 84
2, 27728, Note_on_c, 0, 89, 106
2, 27731, Note_on_c, 0, 77, 100
2, 27878, Note_on_c, 0, 51, 0
2, 27878, Note_on_c, 0, 79, 0
2, 27878, Note_on_c, 0, 91, 0
2, 27882, Note_on_c, 0, 51, 70
2, 27882, Note_on_c, 0, 91, 111
2, 27886, Note_on_c, 0, 79, 106
2, 28016, Note_on_c, 0, 58, 0
2, 28024, Note_on_c, 0, 55, 0
2, 28024, Note_on_c, 0, 63, 0
2, 28027, Note_on_c, 0, 58, 97
2, 28031, Note_on_c, 0, 63, 95
2, 28033, Note_on_c, 0, 55, 79
2, 28177, Note_on_c, 0, 91, 0
2, 28185, Note_on_c, 0, 82, 0
2, 28185, Note_on_c, 0, 87, 0
2, 28188, Note_on_c, 0, 91, 113
2, 28193, Note_on_c, 0, 79, 0
2, 28195, Note_on_c, 0, 87, 105
2, 28196, Note_on_c, 0, 82, 104
2, 28197, Note_on_c, 0, 79, 102
2, 28216, Note_on_c, 0, 88, 53
2, 28262, Note_on_c, 0, 34, 0
2, 28285, Note_on_c, 0, 27, 0
2, 28287, Control_c, 0, 64, 0
2, 28290, Note_on_c, 0, 77, 0
2, 28290, Note_on_c, 0, 39, 0
2, 28291, Note_on_c, 0, 85, 0
2, 28291, Note_on_c, 0, 55, 0
2, 28291, Note_on_c, 0, 63, 0
2, 28292, Note_on_c, 0, 89, 0
2, 28293, Note_on_c, 0, 74, 0
2, 28300, Note_on_c, 0, 51, 0
2, 28316, Note_on_c, 0, 58, 0
2, 28327, Note_on_c, 0, 46, 108
2, 28328, Note_on_c, 0, 34, 108
2, 28339, Control_c, 0, 64, 127
2, 28485, Note_on_c, 0, 82, 0
2, 28492, Note_on_c, 0, 86, 0
2, 28496, Note_on_c, 0, 82, 105
2, 28496, Note_on_c, 0, 89, 101
2, 28497, Note_on_c, 0, 86, 95
2, 28497, Note_on_c, 0, 77, 101
2, 28633, Note_on_c, 0, 62, 95
2, 28635, Note_on_c, 0, 58, 87
2, 28640, Note_on_c, 0, 53, 78
2, 28797, Note_on_c, 0, 72, 95
2, 28807, Note_on_c, 0, 46, 0
2, 28807, Note_on_c, 0, 62, 0
2, 28809, Note_on_c, 0, 65, 81
2, 28815, Note_on_c, 0, 62, 69
2, 28816, Note_on_c, 0, 46, 74
2, 28819, Note_on_c, 0, 70, 60
2, 28953, Note_on_c, 0, 53, 0
2, 28953, Note_on_c, 0, 62, 0
2, 28953, Note_on_c, 0, 65, 0
2, 28963, Note_on_c, 0, 53, 70
2, 28964, Note_on_c, 0, 62, 68
2, 28964, Note_on_c, 0, 65, 67
2, 29099, Note_on_c, 0, 46, 0
2, 29099, Note_on_c, 0, 65, 0
2, 29107, Note_on_c, 0, 58, 0
2, 29107, Note_on_c, 0, 62, 0
2, 29107, Note_on_c, 0, 70, 0
2, 29109, Note_on_c, 0, 46, 79
2, 29110, Note_on_c, 0, 65, 75
2, 29111, Note_on_c, 0, 70, 90
2, 29118, Note_on_c, 0, 58, 77
2, 29118, Note_on_c, 0, 62, 52
2, 29237, Note_on_c, 0, 62, 0
2, 29245, Note_on_c, 0, 34, 0
2, 29245, Note_on_c, 0, 46, 0
2, 29245, Note_on_c, 0, 53, 0
2, 29245, Note_on_c, 0, 58, 0
2, 29249, Note_on_c, 0, 62, 95
2, 29250, Note_on_c, 0, 53, 89
2, 29253, Note_on_c, 0, 58, 87
2, 29253, Note_on_c, 0, 46, 85
2, 29256, Note_on_c, 0, 34, 83
2, 29383, Note_on_c, 0, 46, 0
2, 29392, Note_on_c, 0, 46, 78
2, 29521, Note_on_c, 0, 88, 0
2, 29525, Note_on_c, 0, 86, 0
2, 29525, Note_on_c, 0, 34, 0
2, 29525, Note_on_c, 0, 72, 0
2, 29525, Note_on_c, 0, 89, 0
2, 29526, Note_on_c, 0, 77, 0
2, 29526, Note_on_c, 0, 70, 0
2, 29526, Note_on_c, 0, 53, 0
2, 29526, Note_on_c, 0, 65, 0
2, 29526, Control_c, 0, 64, 0
2, 29537, Note_on_c, 0, 87, 0
2, 29544, Note_on_c, 0, 58, 0
2, 29544, Note_on_c, 0, 62, 0
2, 29544, Note_on_c, 0, 91, 0
2, 29552, Note_on_c, 0, 46, 0
2, 29560, Note_on_c, 0, 51, 104
2, 29560, Note_on_c, 0, 82, 0
2, 29561, Note_on_c, 0, 39, 93
2, 29591, Note_on_c, 0, 79, 0
2, 29614, Control_c, 0, 64, 127
2, 29859, Note_on_c, 0, 51, 0
2, 29865, Note_on_c, 0, 63, 85
2, 29870, Note_on_c, 0, 51, 76
2, 29872, Note_on_c, 0, 58, 80
2, 29878, Note_on_c, 0, 55, 78
2, 30021, Note_on_c, 0, 51, 0
2, 30021, Note_on_c, 0, 58, 0
2, 30027, Note_on_c, 0, 91, 106
2, 30028, Note_on_c, 0, 55, 0
2, 30029, Note_on_c, 0, 58, 72
2, 30032, Note_on_c, 0, 51, 79
2, 30032, Note_on_c, 0, 82, 95
2, 30033, Note_on_c, 0, 79, 95
2, 30036, Note_on_c, 0, 87, 88
2, 30040, Note_on_c, 0, 55, 72
2, 30063, Note_on_c, 0, 89, 49
2, 30159, Note_on_c, 0, 79, 0
2, 30159, Note_on_c, 0, 91, 0
2, 30167, Note_on_c, 0, 55, 0
2, 30167, Note_on_c, 0, 82, 0
2, 30167, Note_on_c, 0, 87, 0
2, 30169, Note_on_c, 0, 91, 104
2, 30170, Note_on_c, 0, 79, 102
2, 30174, Note_on_c, 0, 87, 93
2, 30177, Note_on_c, 0, 55, 85
2, 30177, Note_on_c, 0, 82, 89
2, 30305, Note_on_c, 0, 51, 0
2, 30310, Note_on_c, 0, 51, 90
2, 30312, Note_on_c, 0, 93, 109
2, 30314, Note_on_c, 0, 84, 94
2, 30315, Note_on_c, 0, 81, 100
2, 30451, Note_on_c, 0, 55, 0
2, 30451, Note_on_c, 0, 58, 0
2, 30451, Note_on_c, 0, 63, 0
2, 30451, Note_on_c, 0, 82, 0
2, 30460, Note_on_c, 0, 82, 106
2, 30460, Note_on_c, 0, 94, 109
2, 30461, Note_on_c, 0, 55, 87
2, 30462, Note_on_c, 0, 63, 90
2, 30462, Note_on_c, 0, 58, 78
2, 30566, Note_on_c, 0, 51, 0
2, 30570, Note_on_c, 0, 51, 90
2, 30612, Note_on_c, 0, 81, 0
2, 30612, Note_on_c, 0, 84, 0
2, 30612, Note_on_c, 0, 93, 0
2, 30617, Note_on_c, 0, 93, 112
2, 30620, Note_on_c, 0, 81, 106
2, 30621, Note_on_c, 0, 84, 101
2, 30712, Note_on_c, 0, 39, 0
2, 30715, Note_on_c, 0, 94, 0
2, 30715, Note_on_c, 0, 51, 0
2, 30715, Note_on_c, 0, 63, 0
2, 30715, Note_on_c, 0, 82, 0
2, 30715, Note_on_c, 0, 55, 0
2, 30715, Note_on_c, 0, 58, 0
2, 30715, Note_on_c, 0, 87, 0
2, 30716, Note_on_c, 0, 89, 0
2, 30718, Control_c, 0, 64, 0
2, 30735, Note_on_c, 0, 79, 0
2, 30765, Note_on_c, 0, 53, 99
2, 30766, Note_on_c, 0, 41, 100
2, 30781, Control_c, 0, 64, 127
2, 30912, Note_on_c, 0, 91, 0
2, 30916, Note_on_c, 0, 91, 107
2, 30921, Note_on_c, 0, 82, 101
2, 30922, Note_on_c, 0, 79, 101
2, 31056, Note_on_c, 0, 65, 93
2, 31057, Note_on_c, 0, 60, 85
2, 31068, Note_on_c, 0, 57, 84
2, 31211, Note_on_c, 0, 53, 0
2, 31211, Note_on_c, 0, 81, 0
2, 31215, Note_on_c, 0, 89, 109
2, 31215, Note_on_c, 0, 53, 96
2, 31215, Note_on_c, 0, 81, 105
2, 31215, Note_on_c, 0, 77, 104
2, 31357, Note_on_c, 0, 57, 0
2, 31362, Note_on_c, 0, 57, 89
2, 31517, Note_on_c, 0, 50, 105
2, 31519, Note_on_c, 0, 74, 104
2, 31520, Note_on_c, 0, 62, 102
2, 31521, Note_on_c, 0, 38, 98
2, 31560, Note_on_c, 0, 91, 0
2, 31560, Note_on_c, 0, 41, 0
2, 31561, Note_on_c, 0, 79, 0
2, 31561, Control_c, 0, 64, 0
2, 31561, Note_on_c, 0, 53, 0
2, 31561, Note_on_c, 0, 82, 0
2, 31561, Note_on_c, 0, 57, 0
2, 31561, Note_on_c, 0, 60, 0
2, 31562, Note_on_c, 0, 65, 0
2, 31562, Note_on_c, 0, 81, 0
2, 31562, Note_on_c, 0, 77, 0
2, 31563, Note_on_c, 0, 50, 0
2, 31565, Note_on_c, 0, 62, 0
2, 31567, Note_on_c, 0, 38, 0
2, 31572, Note_on_c, 0, 93, 0
2, 31580, Note_on_c, 0, 84, 0
2, 31580, Note_on_c, 0, 89, 0
2, 31587, Note_on_c, 0, 74, 0
2, 31660, Note_on_c, 0, 77, 103
2, 31660, Note_on_c, 0, 65, 100
2, 31661, Note_on_c, 0, 53, 94
2, 31661, Note_on_c, 0, 41, 95
2, 31686, Note_on_c, 0, 65, 0
2, 31688, Note_on_c, 0, 53, 0
2, 31691, Note_on_c, 0, 77, 0
2, 31710, Note_on_c, 0, 41, 0
2, 31817, Note_on_c, 0, 79, 109
2, 31820, Note_on_c, 0, 67, 108
2, 31821, Note_on_c, 0, 31, 101
2, 31821, Note_on_c, 0, 70, 108
2, 31821, Note_on_c, 0, 74, 96
2, 31822, Note_on_c, 0, 43, 102
2, 31833, Control_c, 0, 64, 127
2, 32114, Note_on_c, 0, 55, 59
2, 32279, Note_on_c, 0, 67, 0
2, 32285, Note_on_c, 0, 67, 101
2, 32286, Note_on_c, 0, 55, 0
2, 32286, Note_on_c, 0, 79, 0
2, 32287, Note_on_c, 0, 91, 111
2, 32287, Note_on_c, 0, 86, 98
2, 32288, Note_on_c, 0, 82, 103
2, 32290, Note_on_c, 0, 58, 89
2, 32290, Note_on_c, 0, 79, 100
2, 32292, Note_on_c, 0, 55, 88
2, 32448, Note_on_c, 0, 74, 0
2, 32586, Note_on_c, 0, 58, 0
2, 32594, Note_on_c, 0, 58, 86
2, 32747, Note_on_c, 0, 55, 0
2, 32757, Note_on_c, 0, 55, 73
2, 32885, Note_on_c, 0, 58, 0
2, 32893, Note_on_c, 0, 67, 0
2, 32895, Note_on_c, 0, 58, 90
2, 32896, Note_on_c, 0, 89, 104
2, 32897, Note_on_c, 0, 67, 90
2, 32897, Note_on_c, 0, 77, 99
2, 32993, Note_on_c, 0, 55, 0
2, 33003, Note_on_c, 0, 55, 82
2, 33039, Note_on_c, 0, 79, 0
2, 33039, Note_on_c, 0, 91, 0
2, 33044, Note_on_c, 0, 91, 102
2, 33048, Note_on_c, 0, 79, 99
2, 33153, Note_on_c, 0, 67, 0
2, 33153, Note_on_c, 0, 86, 0
2, 33154, Note_on_c, 0, 82, 0
2, 33155, Note_on_c, 0, 77, 0
2, 33155, Note_on_c, 0, 43, 0
2, 33156, Note_on_c, 0, 91, 0
2, 33156, Note_on_c, 0, 79, 0
2, 33159, Control_c, 0, 64, 0
2, 33162, Note_on_c, 0, 31, 0
2, 33162, Note_on_c, 0, 70, 0
2, 33169, Note_on_c, 0, 55, 0
2, 33169, Note_on_c, 0, 58, 0
2, 33185, Note_on_c, 0, 89, 0
2, 33189, Note_on_c, 0, 45, 95
2, 33189, Note_on_c, 0, 33, 91
2, 33189, Note_on_c, 0, 84, 92
2, 33190, Note_on_c, 0, 81, 96
2, 33191, Note_on_c, 0, 89, 100
2, 33192, Note_on_c, 0, 77, 97
2, 33231, Control_c, 0, 64, 127
2, 33349, Note_on_c, 0, 86, 103
2, 33351, Note_on_c, 0, 74, 89
2, 33509, Note_on_c, 0, 65, 84
2, 33509, Note_on_c, 0, 69, 90
2, 33511, Note_on_c, 0, 60, 81
2, 33653, Note_on_c, 0, 84, 0
2, 33660, Note_on_c, 0, 84, 96
2, 33661, Note_on_c, 0, 65, 0
2, 33661, Note_on_c, 0, 77, 0
2, 33661, Note_on_c, 0, 81, 0
2, 33664, Note_on_c, 0, 57, 84
2, 33664, Note_on_c, 0, 72, 93
2, 33666, Note_on_c, 0, 77, 84
2, 33666, Note_on_c, 0, 81, 86
2, 33666, Note_on_c, 0, 65, 72
2, 33799, Note_on_c, 0, 60, 0
2, 33810, Note_on_c, 0, 60, 85
2, 33953, Note_on_c, 0, 57, 0
2, 33963, Note_on_c, 0, 57, 83
2, 34099, Note_on_c, 0, 69, 0
2, 34106, Note_on_c, 0, 60, 0
2, 34106, Note_on_c, 0, 65, 0
2, 34108, Note_on_c, 0, 69, 91
2, 34111, Note_on_c, 0, 60, 89
2, 34111, Note_on_c, 0, 65, 74
2, 34256, Note_on_c, 0, 70, 76
2, 34291, Note_on_c, 0, 72, 0
2, 34295, Note_on_c, 0, 72, 84
2, 34360, Note_on_c, 0, 69, 0
2, 34360, Control_c, 0, 64, 0
2, 34360, Note_on_c, 0, 86, 0
2, 34361, Note_on_c, 0, 65, 0
2, 34361, Note_on_c, 0, 81, 0
2, 34361, Note_on_c, 0, 60, 0
2, 34362, Note_on_c, 0, 72, 0
2, 34368, Note_on_c, 0, 89, 0
2, 34375, Note_on_c, 0, 33, 0
2, 34375, Note_on_c, 0, 57, 0
2, 34375, Note_on_c, 0, 84, 0
2, 34383, Note_on_c, 0, 45, 0
2, 34383, Note_on_c, 0, 77, 0
2, 34391, Note_on_c, 0, 70, 0
2, 34391, Note_on_c, 0, 74, 0
2, 34400, Note_on_c, 0, 74, 101
2, 34403, Note_on_c, 0, 68, 77
2, 34403, Note_on_c, 0, 65, 93
2, 34405, Note_on_c, 0, 46, 100
2, 34410, Note_on_c, 0, 34, 85
2, 34437, Control_c, 0, 64, 127
2, 34579, Note_on_c, 0, 62, 74
2, 34698, Note_on_c, 0, 46, 0
2, 34698, Note_on_c, 0, 74, 0
2, 34705, Note_on_c, 0, 58, 88
2, 34708, Note_on_c, 0, 46, 81
2, 34709, Note_on_c, 0, 74, 91
2, 34828, Note_on_c, 0, 34, 0
2, 34831, Note_on_c, 0, 46, 0
2, 34832, Note_on_c, 0, 74, 0
2, 34832, Note_on_c, 0, 62, 0
2, 34832, Note_on_c, 0, 58, 0
2, 34832, Control_c, 0, 64, 0
2, 34836, Note_on_c, 0, 68, 0
2, 34859, Note_on_c, 0, 65, 0
2, 34861, Note_on_c, 0, 72, 100
2, 34863, Note_on_c, 0, 48, 99
2, 34863, Note_on_c, 0, 36, 99
2, 34864, Note_on_c, 0, 67, 91
2, 34864, Note_on_c, 0, 65, 83
2, 34896, Note_on_c, 0, 36, 0
2, 34897, Note_on_c, 0, 48, 0
2, 34913, Control_c, 0, 64, 127
2, 35024, Note_on_c, 0, 60, 67
2, 35149, Note_on_c, 0, 55, 70
2, 35151, Note_on_c, 0, 67, 0
2, 35156, Note_on_c, 0, 67, 73
2, 35171, Note_on_c, 0, 70, 96
2, 35287, Note_on_c, 0, 67, 0
2, 35288, Control_c, 0, 64, 0
2, 35288, Note_on_c, 0, 65, 0
2, 35288, Note_on_c, 0, 55, 0
2, 35290, Note_on_c, 0, 70, 0
2, 35290, Note_on_c, 0, 72, 0
2, 35290, Note_on_c, 0, 60, 0
2, 35326, Note_on_c, 0, 74, 104
2, 35329, Note_on_c, 0, 50, 101
2, 35331, Note_on_c, 0, 38, 96
2, 35331, Note_on_c, 0, 67, 89
2, 35334, Note_on_c, 0, 69, 91
2, 35374, Control_c, 0, 64, 127
2, 35466, Note_on_c, 0, 69, 0
2, 35477, Note_on_c, 0, 69, 85
2, 35489, Note_on_c, 0, 67, 0
2, 35496, Note_on_c, 0, 67, 64
2, 35627, Note_on_c, 0, 50, 0
2, 35635, Note_on_c, 0, 38, 0
2, 35635, Note_on_c, 0, 69, 0
2, 35638, Note_on_c, 0, 50, 87
2, 35639, Note_on_c, 0, 38, 73
2, 35641, Note_on_c, 0, 69, 82
2, 35788, Note_on_c, 0, 67, 0
2, 35788, Note_on_c, 0, 69, 0
2, 35792, Note_on_c, 0, 55, 87
2, 35792, Note_on_c, 0, 69, 88
2, 35793, Note_on_c, 0, 67, 85
2, 35793, Note_on_c, 0, 62, 91
2, 35794, Note_on_c, 0, 57, 91
2, 35942, Note_on_c, 0, 67, 0
2, 35942, Note_on_c, 0, 69, 0
2, 35948, Note_on_c, 0, 67, 83
2, 35949, Note_on_c, 0, 69, 78
2, 36080, Note_on_c, 0, 69, 0
2, 36088, Note_on_c, 0, 50, 0
2, 36088, Note_on_c, 0, 67, 0
2, 36091, Note_on_c, 0, 69, 89
2, 36094, Note_on_c, 0, 67, 82
2, 36099, Note_on_c, 0, 50, 96
2, 36238, Note_on_c, 0, 55, 0
2, 36241, Note_on_c, 0, 57, 0
2, 36241, Note_on_c, 0, 62, 0
2, 36241, Note_on_c, 0, 67, 0
2, 36241, Note_on_c, 0, 69, 0
2, 36245, Note_on_c, 0, 57, 99
2, 36245, Note_on_c, 0, 67, 89
2, 36246, Note_on_c, 0, 62, 98
2, 36246, Note_on_c, 0, 54, 96
2, 36248, Note_on_c, 0, 69, 83
2, 36395, Note_on_c, 0, 74, 0
2, 36400, Note_on_c, 0, 86, 107
2, 36402, Note_on_c, 0, 74, 100
2, 36490, Note_on_c, 0, 54, 0
2, 36490, Note_on_c, 0, 67, 0
2, 36490, Note_on_c, 0, 74, 0
2, 36490, Note_on_c, 0, 62, 0
2, 36490, Note_on_c, 0, 69, 0
2, 36490, Note_on_c, 0, 38, 0
2, 36490, Note_on_c, 0, 57, 0
2, 36491, Note_on_c, 0, 86, 0
2, 36492, Control_c, 0, 64, 0
2, 36503, Note_on_c, 0, 50, 0
2, 36550, Note_on_c, 0, 89, 104
2, 36550, Note_on_c, 0, 77, 105
2, 36576, Note_on_c, 0, 77, 0
2, 36579, Note_on_c, 0, 89, 0
2, 36701, Note_on_c, 0, 91, 114
2, 36704, Note_on_c, 0, 79, 109
2, 36705, Note_on_c, 0, 82, 106
2, 36707, Note_on_c, 0, 39, 93
2, 36707, Note_on_c, 0, 87, 96
2, 36709, Note_on_c, 0, 85, 95
2, 36709, Note_on_c, 0, 27, 97
2, 36725, Control_c, 0, 64, 127
2, 37005, Note_on_c, 0, 51, 63
2, 37159, Note_on_c, 0, 74, 107
2, 37160, Note_on_c, 0, 63, 93
2, 37163, Note_on_c, 0, 51, 0
2, 37164, Note_on_c, 0, 67, 83
2, 37167, Note_on_c, 0, 51, 75
2, 37168, Note_on_c, 0, 55, 87
2, 37168, Note_on_c, 0, 58, 85
2, 37455, Note_on_c, 0, 55, 0
2, 37459, Note_on_c, 0, 77, 102
2, 37461, Note_on_c, 0, 55, 79
2, 37608, Note_on_c, 0, 39, 0
2, 37608, Note_on_c, 0, 51, 0
2, 37608, Note_on_c, 0, 79, 0
2, 37614, Note_on_c, 0, 79, 108
2, 37615, Note_on_c, 0, 39, 71
2, 37616, Note_on_c, 0, 51, 79
2, 37770, Note_on_c, 0, 55, 0
2, 37770, Note_on_c, 0, 58, 0
2, 37770, Note_on_c, 0, 63, 0
2, 37774, Note_on_c, 0, 63, 95
2, 37775, Note_on_c, 0, 58, 95
2, 37777, Note_on_c, 0, 55, 82
2, 37916, Note_on_c, 0, 91, 0
2, 37923, Note_on_c, 0, 79, 0
2, 37923, Note_on_c, 0, 82, 0
2, 37926, Note_on_c, 0, 91, 114
2, 37927, Note_on_c, 0, 82, 107
2, 37928, Note_on_c, 0, 79, 105
2, 38035, Note_on_c, 0, 55, 0
2, 38036, Note_on_c, 0, 79, 0
2, 38037, Note_on_c, 0, 39, 0
2, 38037, Control_c, 0, 64, 0
2, 38038, Note_on_c, 0, 58, 0
2, 38038, Note_on_c, 0, 77, 0
2, 38046, Note_on_c, 0, 27, 0
2, 38046, Note_on_c, 0, 51, 0
2, 38046, Note_on_c, 0, 74, 0
2, 38054, Note_on_c, 0, 63, 0
2, 38054, Note_on_c, 0, 67, 0
2, 38062, Note_on_c, 0, 85, 0
2, 38069, Note_on_c, 0, 87, 0
2, 38072, Note_on_c, 0, 41, 100
2, 38073, Note_on_c, 0, 29, 90
2, 38100, Control_c, 0, 64, 127
2, 38227, Note_on_c, 0, 81, 102
2, 38227, Note_on_c, 0, 89, 108
2, 38228, Note_on_c, 0, 77, 104
2, 38380, Note_on_c, 0, 65, 90
2, 38380, Note_on_c, 0, 60, 85
2, 38381, Note_on_c, 0, 57, 88
2, 38522, Note_on_c, 0, 41, 0
2, 38532, Note_on_c, 0, 53, 83
2, 38532, Note_on_c, 0, 41, 79
2, 38533, Note_on_c, 0, 79, 104
2, 38541, Note_on_c, 0, 70, 98
2, 38684, Note_on_c, 0, 57, 0
2, 38692, Note_on_c, 0, 57, 84
2, 38830, Note_on_c, 0, 77, 0
2, 38835, Note_on_c, 0, 77, 98
2, 38841, Note_on_c, 0, 69, 93
2, 38845, Note_on_c, 0, 41, 0
2, 38850, Note_on_c, 0, 72, 73
2, 38851, Note_on_c, 0, 41, 76
2, 38999, Note_on_c, 0, 60, 0
2, 38999, Note_on_c, 0, 65, 0
2, 39006, Note_on_c, 0, 57, 0
2, 39008, Note_on_c, 0, 65, 86
2, 39009, Note_on_c, 0, 60, 82
2, 39012, Note_on_c, 0, 57, 82
2, 39129, Note_on_c, 0, 53, 0
2, 39137, Note_on_c, 0, 77, 0
2, 39140, Note_on_c, 0, 53, 89
2, 39141, Note_on_c, 0, 41, 0
2, 39148, Note_on_c, 0, 77, 86
2, 39237, Note_on_c, 0, 79, 0
2, 39241, Note_on_c, 0, 79, 100
2, 39244, Note_on_c, 0, 70, 0
2, 39251, Note_on_c, 0, 70, 92
2, 39281, Note_on_c, 0, 65, 0
2, 39281, Note_on_c, 0, 57, 0
2, 39281, Note_on_c, 0, 60, 0
2, 39281, Note_on_c, 0, 89, 0
2, 39281, Control_c, 0, 64, 0
2, 39282, Note_on_c, 0, 81, 0
2, 39283, Note_on_c, 0, 91, 0
2, 39298, Note_on_c, 0, 29, 0
2, 39298, Note_on_c, 0, 53, 0
2, 39306, Note_on_c, 0, 69, 0
2, 39313, Note_on_c, 0, 72, 0
2, 39326, Note_on_c, 0, 43, 100
2, 39327, Note_on_c, 0, 31, 97
2, 39344, Control_c, 0, 64, 127
2, 39352, Note_on_c, 0, 82, 0
2, 39641, Note_on_c, 0, 67, 88
2, 39647, Note_on_c, 0, 62, 76
2, 39647, Note_on_c, 0, 58, 82
2, 39650, Note_on_c, 0, 55, 76
2, 39667, Note_on_c, 0, 77, 0
2, 39795, Note_on_c, 0, 91, 106
2, 39797, Note_on_c, 0, 55, 0
2, 39797, Note_on_c, 0, 62, 0
2, 39797, Note_on_c, 0, 79, 0
2, 39801, Note_on_c, 0, 82, 97
2, 39802, Note_on_c, 0, 79, 94
2, 39802, Note_on_c, 0, 62, 59
2, 39803, Note_on_c, 0, 55, 77
2, 39928, Note_on_c, 0, 91, 0
2, 39936, Note_on_c, 0, 58, 0
2, 39936, Note_on_c, 0, 79, 0
2, 39936, Note_on_c, 0, 82, 0
2, 39939, Note_on_c, 0, 91, 106
2, 39940, Note_on_c, 0, 58, 90
2, 39943, Note_on_c, 0, 82, 97
2, 39945, Note_on_c, 0, 79, 95
2, 40081, Note_on_c, 0, 55, 0
2, 40087, Note_on_c, 0, 93, 104
2, 40088, Note_on_c, 0, 84, 92
2, 40089, Note_on_c, 0, 81, 96
2, 40092, Note_on_c, 0, 55, 82
2, 40120, Note_on_c, 0, 62, 0
2, 40124, Note_on_c, 0, 62, 48
2, 40235, Note_on_c, 0, 67, 0
2, 40235, Note_on_c, 0, 82, 0
2, 40238, Note_on_c, 0, 94, 107
2, 40239, Note_on_c, 0, 67, 98
2, 40239, Note_on_c, 0, 82, 103
2, 40243, Note_on_c, 0, 58, 0
2, 40243, Note_on_c, 0, 62, 0
2, 40247, Note_on_c, 0, 62, 80
2, 40251, Note_on_c, 0, 58, 78
2, 40253, Note_on_c, 0, 86, 87
2, 40358, Note_on_c, 0, 55, 0
2, 40362, Note_on_c, 0, 55, 77
2, 40389, Note_on_c, 0, 81, 0
2, 40389, Note_on_c, 0, 84, 0
2, 40389, Note_on_c, 0, 93, 0
2, 40397, Note_on_c, 0, 93, 110
2, 40399, Note_on_c, 0, 81, 105
2, 40400, Note_on_c, 0, 84, 98
2, 40488, Note_on_c, 0, 31, 0
2, 40496, Note_on_c, 0, 86, 0
2, 40497, Note_on_c, 0, 94, 0
2, 40497, Note_on_c, 0, 62, 0
2, 40498, Note_on_c, 0, 82, 0
2, 40498, Note_on_c, 0, 79, 0
2, 40499, Note_on_c, 0, 67, 0
2, 40499, Note_on_c, 0, 43, 0
2, 40499, Control_c, 0, 64, 0
2, 40499, Note_on_c, 0, 58, 0
2, 40499, Note_on_c, 0, 55, 0
2, 40504, Note_on_c, 0, 70, 0
2, 40527, Note_on_c, 0, 91, 0
2, 40545, Note_on_c, 0, 45, 101
2, 40546, Note_on_c, 0, 33, 98
2, 40550, Control_c, 0, 64, 127
2, 40700, Note_on_c, 0, 91, 107
2, 40705, Note_on_c, 0, 82, 98
2, 40706, Note_on_c, 0, 79, 94
2, 40853, Note_on_c, 0, 69, 91
2, 40854, Note_on_c, 0, 60, 81
2, 40855, Note_on_c, 0, 65, 81
2, 40993, Note_on_c, 0, 57, 82
2, 41003, Note_on_c, 0, 81, 0
2, 41010, Note_on_c, 0, 89, 104
2, 41014, Note_on_c, 0, 77, 100
2, 41014, Note_on_c, 0, 81, 101
2, 41164, Note_on_c, 0, 60, 0
2, 41169, Note_on_c, 0, 60, 77
2, 41303, Note_on_c, 0, 57, 0
2, 41308, Note_on_c, 0, 57, 81
2, 41456, Note_on_c, 0, 60, 0
2, 41456, Note_on_c, 0, 65, 0
2, 41456, Note_on_c, 0, 69, 0
2, 41461, Note_on_c, 0, 69, 92
2, 41462, Note_on_c, 0, 60, 86
2, 41462, Note_on_c, 0, 65, 83
2, 41564, Note_on_c, 0, 57, 0
2, 41574, Note_on_c, 0, 57, 85
2, 41594, Note_on_c, 0, 77, 0
2, 41604, Note_on_c, 0, 77, 98
2, 41697, Control_c, 0, 64, 0
2, 41698, Note_on_c, 0, 33, 0
2, 41698, Note_on_c, 0, 91, 0
2, 41698, Note_on_c, 0, 82, 0
2, 41698, Note_on_c, 0, 69, 0
2, 41698, Note_on_c, 0, 65, 0
2, 41698, Note_on_c, 0, 60, 0
2, 41698, Note_on_c, 0, 45, 0
2, 41698, Note_on_c, 0, 93, 0
2, 41698, Note_on_c, 0, 79, 0
2, 41699, Note_on_c, 0, 81, 0
2, 41699, Note_on_c, 0, 77, 0
2, 41699, Note_on_c, 0, 89, 0
2, 41710, Note_on_c, 0, 84, 0
2, 41717, Note_on_c, 0, 57, 0
2, 41752, Note_on_c, 0, 48, 99
2, 41752, Note_on_c, 0, 36, 98
2, 41753, Note_on_c, 0, 75, 100
2, 41754, Note_on_c, 0, 79, 85
2, 41754, Note_on_c, 0, 67, 92
2, 41755, Note_on_c, 0, 70, 98
2, 41763, Control_c, 0, 64, 127
2, 41911, Note_on_c, 0, 82, 102
2, 42063, Note_on_c, 0, 48, 0
2, 42070, Note_on_c, 0, 48, 80
2, 42216, Note_on_c, 0, 82, 0
2, 42224, Note_on_c, 0, 70, 0
2, 42224, Note_on_c, 0, 75, 0
2, 42225, Note_on_c, 0, 82, 107
2, 42227, Note_on_c, 0, 63, 101
2, 42228, Note_on_c, 0, 75, 104
2, 42230, Note_on_c, 0, 70, 98
2, 42230, Note_on_c, 0, 55, 88
2, 42232, Note_on_c, 0, 58, 89
2, 42508, Note_on_c, 0, 48, 0
2, 42519, Note_on_c, 0, 48, 79
2, 42670, Note_on_c, 0, 63, 0
2, 42670, Note_on_c, 0, 67, 0
2, 42677, Note_on_c, 0, 55, 0
2, 42677, Note_on_c, 0, 58, 0
2, 42680, Note_on_c, 0, 63, 94
2, 42681, Note_on_c, 0, 67, 85
2, 42681, Note_on_c, 0, 55, 81
2, 42682, Note_on_c, 0, 58, 84
2, 42685, Note_on_c, 0, 75, 0
2, 42690, Note_on_c, 0, 87, 101
2, 42695, Note_on_c, 0, 75, 100
2, 42854, Note_on_c, 0, 82, 0
2, 42858, Note_on_c, 0, 89, 106
2, 42858, Note_on_c, 0, 77, 106
2, 42858, Note_on_c, 0, 82, 105
2, 42858, Note_on_c, 0, 86, 94
2, 42934, Note_on_c, 0, 48, 0
2, 42934, Note_on_c, 0, 87, 0
2, 42935, Note_on_c, 0, 70, 0
2, 42935, Note_on_c, 0, 67, 0
2, 42935, Note_on_c, 0, 58, 0
2, 42935, Note_on_c, 0, 55, 0
2, 42935, Note_on_c, 0, 63, 0
2, 42936, Note_on_c, 0, 79, 0
2, 42936, Note_on_c, 0, 75, 0
2, 42938, Note_on_c, 0, 36, 0
2, 42940, Control_c, 0, 64, 0
2, 42977, Control_c, 0, 64, 127
2, 42983, Note_on_c, 0, 50, 102
2, 42984, Note_on_c, 0, 38, 99
2, 43138, Note_on_c, 0, 82, 0
2, 43143, Note_on_c, 0, 94, 109
2, 43144, Note_on_c, 0, 82, 101
2, 43284, Note_on_c, 0, 50, 0
2, 43288, Note_on_c, 0, 50, 85
2, 43453, Note_on_c, 0, 94, 0
2, 43461, Note_on_c, 0, 82, 0
2, 43461, Note_on_c, 0, 86, 0
2, 43461, Note_on_c, 0, 89, 0
2, 43461, Control_c, 0, 64, 0
2, 43462, Note_on_c, 0, 94, 113
2, 43464, Note_on_c, 0, 65, 99
2, 43464, Note_on_c, 0, 62, 98
2, 43465, Note_on_c, 0, 82, 105
2, 43465, Note_on_c, 0, 86, 98
2, 43467, Note_on_c, 0, 58, 99
2, 43470, Note_on_c, 0, 89, 88
2, 43490, Note_on_c, 0, 92, 53
2, 43491, Control_c, 0, 64, 127
2, 43745, Note_on_c, 0, 58, 0
2, 43754, Note_on_c, 0, 58, 98
2, 43904, Note_on_c, 0, 53, 89
2, 44046, Note_on_c, 0, 46, 90
2, 44160, Note_on_c, 0, 77, 0
2, 44181, Control_c, 0, 64, 0
2, 44183, Note_on_c, 0, 92, 0
2, 44185, Note_on_c, 0, 50, 0
2, 44185, Note_on_c, 0, 62, 0
2, 44185, Note_on_c, 0, 53, 0
2, 44186, Note_on_c, 0, 65, 0
2, 44186, Note_on_c, 0, 86, 0
2, 44186, Note_on_c, 0, 89, 0
2, 44190, Note_on_c, 0, 38, 0
2, 44198, Note_on_c, 0, 58, 0
2, 44198, Note_on_c, 0, 94, 0
2, 44206, Note_on_c, 0, 46, 0
2, 44206, Note_on_c, 0, 82, 0
2, 44213, Control_c, 0, 64, 127
2, 44215, Note_on_c, 0, 77, 95
2, 44215, Note_on_c, 0, 82, 107
2, 44215, Note_on_c, 0, 74, 98
2, 44217, Note_on_c, 0, 46, 104
2, 44218, Note_on_c, 0, 70, 101
2, 44219, Note_on_c, 0, 34, 95
2, 44494, Note_on_c, 0, 58, 88
2, 44497, Note_on_c, 0, 46, 0
2, 44501, Note_on_c, 0, 46, 81
2, 44502, Note_on_c, 0, 53, 74
2, 44677, Control_c, 0, 64, 0
2, 44679, Note_on_c, 0, 53, 0
2, 44679, Note_on_c, 0, 46, 0
2, 44679, Note_on_c, 0, 58, 0
2, 44680, Note_on_c, 0, 34, 0
2, 44680, Note_on_c, 0, 77, 0
2, 44680, Note_on_c, 0, 74, 0
2, 44682, Note_on_c, 0, 82, 0
2, 44689, Note_on_c, 0, 70, 0
2, 44690, Note_on_c, 0, 82, 107
2, 44693, Note_on_c, 0, 72, 103
2, 44694, Note_on_c, 0, 75, 99
2, 44696, Note_on_c, 0, 36, 96
2, 44697, Note_on_c, 0, 48, 97
2, 44728, Control_c, 0, 64, 127
2, 44958, Note_on_c, 0, 36, 0
2, 45002, Note_on_c, 0, 60, 75
2, 45003, Note_on_c, 0, 55, 75
2, 45162, Note_on_c, 0, 75, 0
2, 45162, Note_on_c, 0, 55, 0
2, 45163, Control_c, 0, 64, 0
2, 45164, Note_on_c, 0, 60, 0
2, 45165, Note_on_c, 0, 72, 0
2, 45166, Note_on_c, 0, 82, 0
2, 45170, Note_on_c, 0, 82, 103
2, 45181, Note_on_c, 0, 48, 0
2, 45181, Note_on_c, 0, 38, 102
2, 45182, Note_on_c, 0, 50, 103
2, 45183, Note_on_c, 0, 70, 101
2, 45184, Note_on_c, 0, 78, 94
2, 45219, Control_c, 0, 64, 127
2, 45345, Note_on_c, 0, 81, 107
2, 45346, Note_on_c, 0, 69, 99
2, 45634, Note_on_c, 0, 50, 0
2, 45645, Note_on_c, 0, 50, 86
2, 45786, Note_on_c, 0, 86, 107
2, 45788, Note_on_c, 0, 78, 0
2, 45788, Note_on_c, 0, 57, 98
2, 45790, Note_on_c, 0, 62, 101
2, 45791, Note_on_c, 0, 74, 102
2, 45792, Note_on_c, 0, 54, 92
2, 45793, Note_on_c, 0, 78, 83
2, 46087, Note_on_c, 0, 38, 0
2, 46087, Note_on_c, 0, 50, 0
2, 46095, Note_on_c, 0, 50, 104
2, 46098, Note_on_c, 0, 38, 90
2, 46099, Note_on_c, 0, 89, 106
2, 46100, Note_on_c, 0, 77, 105
2, 46252, Note_on_c, 0, 91, 110
2, 46253, Note_on_c, 0, 45, 89
2, 46256, Note_on_c, 0, 33, 82
2, 46259, Note_on_c, 0, 79, 108
2, 46264, Note_on_c, 0, 33, 0
2, 46387, Note_on_c, 0, 38, 0
2, 46391, Note_on_c, 0, 38, 89
2, 46556, Note_on_c, 0, 79, 0
2, 46556, Note_on_c, 0, 82, 0
2, 46556, Note_on_c, 0, 91, 0
2, 46562, Note_on_c, 0, 91, 112
2, 46566, Note_on_c, 0, 79, 106
2, 46567, Note_on_c, 0, 82, 103
2, 46568, Note_on_c, 0, 87, 95
2, 46660, Note_on_c, 0, 45, 0
2, 46660, Note_on_c, 0, 69, 0
2, 46660, Note_on_c, 0, 81, 0
2, 46660, Note_on_c, 0, 74, 0
2, 46660, Note_on_c, 0, 57, 0
2, 46660, Note_on_c, 0, 86, 0
2, 46660, Note_on_c, 0, 77, 0
2, 46660, Note_on_c, 0, 50, 0
2, 46660, Note_on_c, 0, 89, 0
2, 46661, Note_on_c, 0, 54, 0
2, 46661, Note_on_c, 0, 62, 0
2, 46661, Note_on_c, 0, 38, 0
2, 46662, Control_c, 0, 64, 0
2, 46663, Note_on_c, 0, 70, 0
2, 46671, Note_on_c, 0, 78, 0
2, 46706, Note_on_c, 0, 39, 102
2, 46707, Note_on_c, 0, 27, 107
2, 46717, Control_c, 0, 64, 127
2, 47034, Note_on_c, 0, 74, 107
2, 47037, Note_on_c, 0, 62, 103
2, 47185, Control_c, 0, 64, 0
2, 47185, Note_on_c, 0, 91, 0
2, 47193, Note_on_c, 0, 87, 0
2, 47194, Note_on_c, 0, 41, 99
2, 47196, Note_on_c, 0, 29, 97
2, 47208, Note_on_c, 0, 79, 0
2, 47224, Control_c, 0, 64, 127
2, 47278, Note_on_c, 0, 27, 0
2, 47324, Note_on_c, 0, 39, 0
2, 47341, Note_on_c, 0, 77, 103
2, 47342, Note_on_c, 0, 65, 104
2, 47496, Note_on_c, 0, 79, 105
2, 47497, Note_on_c, 0, 67, 107
2, 47646, Note_on_c, 0, 65, 0
2, 47651, Note_on_c, 0, 60, 95
2, 47651, Note_on_c, 0, 65, 100
2, 47651, Note_on_c, 0, 57, 95
2, 47808, Note_on_c, 0, 82, 0
2, 47812, Note_on_c, 0, 82, 103
2, 47813, Note_on_c, 0, 70, 100
2, 47953, Note_on_c, 0, 67, 0
2, 47953, Note_on_c, 0, 79, 0
2, 47964, Note_on_c, 0, 79, 108
2, 47965, Note_on_c, 0, 67, 109
2, 48184, Note_on_c, 0, 62, 0
2, 48187, Note_on_c, 0, 41, 0
2, 48187, Note_on_c, 0, 29, 0
2, 48188, Note_on_c, 0, 77, 0
2, 48188, Note_on_c, 0, 70, 0
2, 48188, Note_on_c, 0, 79, 0
2, 48188, Note_on_c, 0, 57, 0
2, 48188, Note_on_c, 0, 67, 0
2, 48188, Note_on_c, 0, 82, 0
2, 48188, Note_on_c, 0, 60, 0
2, 48188, Control_c, 0, 64, 0
2, 48199, Note_on_c, 0, 74, 0
2, 48207, Note_on_c, 0, 65, 0
2, 48292, Note_on_c, 0, 50, 101
2, 48294, Note_on_c, 0, 86, 105
2, 48295, Note_on_c, 0, 38, 94
2, 48295, Note_on_c, 0, 74, 102
2, 48320, Note_on_c, 0, 74, 0
2, 48330, Note_on_c, 0, 50, 0
2, 48333, Note_on_c, 0, 86, 0
2, 48333, Note_on_c, 0, 38, 0
2, 48442, Note_on_c, 0, 53, 101
2, 48443, Note_on_c, 0, 41, 93
2, 48446, Note_on_c, 0, 89, 105
2, 48446, Note_on_c, 0, 77, 105
2, 48471, Note_on_c, 0, 77, 0
2, 48472, Note_on_c, 0, 89, 0
2, 48473, Note_on_c, 0, 53, 0
2, 48475, Note_on_c, 0, 41, 0
2, 48599, Control_c, 0, 64, 127
2, 48602, Note_on_c, 0, 91, 110
2, 48603, Note_on_c, 0, 55, 102
2, 48603, Note_on_c, 0, 79, 108
2, 48605, Note_on_c, 0, 43, 102
2, 48946, Note_on_c, 0, 31, 94
2, 49006, Note_on_c, 0, 43, 0
2, 49015, Note_on_c, 0, 43, 78
2, 49082, Note_on_c, 0, 43, 0
2, 49082, Note_on_c, 0, 55, 0
2, 49089, Note_on_c, 0, 55, 103
2, 49090, Note_on_c, 0, 31, 0
2, 49093, Note_on_c, 0, 43, 92
2, 49094, Note_on_c, 0, 50, 95
2, 49094, Note_on_c, 0, 46, 100
2, 49094, Note_on_c, 0, 58, 89
2, 49095, Note_on_c, 0, 31, 90
2, 49098, Note_on_c, 0, 50, 0
2, 49100, Note_on_c, 0, 65, 90
2, 49397, Note_on_c, 0, 58, 0
2, 49401, Note_on_c, 0, 91, 0
2, 49402, Note_on_c, 0, 31, 0
2, 49402, Note_on_c, 0, 43, 0
2, 49402, Note_on_c, 0, 79, 0
2, 49403, Note_on_c, 0, 55, 0
2, 49403, Note_on_c, 0, 46, 0
2, 49406, Control_c, 0, 64, 0
2, 49436, Note_on_c, 0, 65, 0
2, 54842, Control_c, 0, 64, 127
2, 55077, Note_on_c, 0, 86, 66
2, 55078, Note_on_c, 0, 67, 64
2, 55330, Note_on_c, 0, 84, 67
2, 55546, Note_on_c, 0, 83, 68
2, 55752, Note_on_c, 0, 64, 65
2, 55753, Note_on_c, 0, 81, 74
2, 55973, Note_on_c, 0, 91, 90
2, 56185, Note_on_c, 0, 88, 72
2, 56392, Note_on_c, 0, 66, 71
2, 56397, Note_on_c, 0, 90, 82
2, 56494, Note_on_c, 0, 86, 0
2, 56586, Note_on_c, 0, 88, 0
2, 56590, Note_on_c, 0, 88, 75
2, 56609, Note_on_c, 0, 84, 0
2, 56807, Note_on_c, 0, 81, 0
2, 56811, Note_on_c, 0, 90, 0
2, 56812, Note_on_c, 0, 66, 0
2, 56812, Note_on_c, 0, 64, 0
2, 56815, Control_c, 0, 64, 0
2, 56816, Note_on_c, 0, 67, 0
2, 56816, Note_on_c, 0, 83, 0
2, 56821, Note_on_c, 0, 86, 80
2, 56822, Note_on_c, 0, 67, 71
2, 56824, Note_on_c, 0, 91, 0
2, 56908, Control_c, 0, 64, 127
2, 57470, Note_on_c, 0, 64, 69
2, 57501, Note_on_c, 0, 83, 74
2, 57695, Note_on_c, 0, 79, 77
2, 57884, Note_on_c, 0, 79, 0
2, 57895, Note_on_c, 0, 79, 88
2, 58109, Note_on_c, 0, 59, 64
2, 58117, Note_on_c, 0, 81, 82
2, 58133, Control_c, 0, 64, 0
2, 58145, Note_on_c, 0, 88, 0
2, 58176, Note_on_c, 0, 86, 0
2, 58183, Control_c, 0, 64, 127
2, 58314, Note_on_c, 0, 83, 0
2, 58323, Note_on_c, 0, 83, 83
2, 58533, Note_on_c, 0, 59, 0
2, 58533, Note_on_c, 0, 79, 0
2, 58533, Note_on_c, 0, 84, 82
2, 58533, Note_on_c, 0, 64, 0
2, 58533, Note_on_c, 0, 67, 0
2, 58534, Note_on_c, 0, 81, 0
2, 58535, Note_on_c, 0, 60, 66
2, 58535, Note_on_c, 0, 83, 0
2, 58539, Control_c, 0, 64, 0
2, 58629, Control_c, 0, 64, 127
2, 58740, Note_on_c, 0, 79, 70
2, 58956, Note_on_c, 0, 78, 71
2, 59152, Note_on_c, 0, 62, 65
2, 59158, Note_on_c, 0, 76, 57
2, 59200, Control_c, 0, 64, 0
2, 59201, Note_on_c, 0, 79, 0
2, 59201, Note_on_c, 0, 78, 0
2, 59201, Note_on_c, 0, 60, 0
2, 59281, Control_c, 0, 64, 127
2, 59368, Note_on_c, 0, 78, 60
2, 59389, Note_on_c, 0, 84, 0
2, 59567, Note_on_c, 0, 74, 77
2, 59769, Note_on_c, 0, 79, 85
2, 59779, Note_on_c, 0, 66, 64
2, 59967, Note_on_c, 0, 81, 84
2, 60177, Note_on_c, 0, 67, 67
2, 60178, Note_on_c, 0, 83, 81
2, 60193, Note_on_c, 0, 79, 0
2, 60193, Note_on_c, 0, 76, 0
2, 60193, Note_on_c, 0, 74, 0
2, 60193, Note_on_c, 0, 66, 0
2, 60194, Control_c, 0, 64, 0
2, 60194, Note_on_c, 0, 81, 0
2, 60194, Note_on_c, 0, 78, 0
2, 60280, Control_c, 0, 64, 127
2, 60395, Note_on_c, 0, 74, 57
2, 60578, Note_on_c, 0, 79, 72
2, 60798, Note_on_c, 0, 84, 76
2, 60803, Note_on_c, 0, 64, 67
2, 60835, Control_c, 0, 64, 0
2, 60835, Note_on_c, 0, 74, 0
2, 60836, Note_on_c, 0, 83, 0
2, 60836, Note_on_c, 0, 79, 0
2, 60887, Control_c, 0, 64, 127
2, 60912, Note_on_c, 0, 83, 74
2, 61009, Note_on_c, 0, 81, 81
2, 61171, Note_on_c, 0, 84, 0
2, 61198, Note_on_c, 0, 79, 68
2, 61399, Note_on_c, 0, 66, 64
2, 61406, Note_on_c, 0, 78, 62
2, 61412, Control_c, 0, 64, 0
2, 61414, Note_on_c, 0, 79, 0
2, 61414, Note_on_c, 0, 81, 0
2, 61415, Note_on_c, 0, 83, 0
2, 61418, Note_on_c, 0, 64, 0
2, 61463, Control_c, 0, 64, 127
2, 61593, Note_on_c, 0, 67, 0
2, 61603, Note_on_c, 0, 74, 65
2, 61693, Note_on_c, 0, 62, 0
2, 61823, Note_on_c, 0, 86, 88
2, 61823, Note_on_c, 0, 67, 80
2, 61826, Note_on_c, 0, 66, 0
2, 61826, Note_on_c, 0, 74, 0
2, 61827, Control_c, 0, 64, 0
2, 61839, Note_on_c, 0, 78, 0
2, 61893, Control_c, 0, 64, 127
2, 62041, Note_on_c, 0, 84, 74
2, 62231, Note_on_c, 0, 83, 84
2, 62415, Note_on_c, 0, 86, 0
2, 62426, Note_on_c, 0, 86, 83
2, 62438, Note_on_c, 0, 64, 75
2, 62471, Note_on_c, 0, 84, 0
2, 62471, Note_on_c, 0, 83, 0
2, 62473, Note_on_c, 0, 67, 0
2, 62476, Control_c, 0, 64, 0
2, 62545, Control_c, 0, 64, 127
2, 62636, Note_on_c, 0, 91, 90
2, 62844, Note_on_c, 0, 90, 85
2, 63037, Note_on_c, 0, 90, 0
2, 63042, Note_on_c, 0, 90, 85
2, 63042, Note_on_c, 0, 66, 79
2, 63137, Note_on_c, 0, 86, 0
2, 63214, Note_on_c, 0, 91, 0
2, 63220, Note_on_c, 0, 91, 82
2, 63433, Note_on_c, 0, 88, 77
2, 63436, Note_on_c, 0, 67, 71
2, 63442, Note_on_c, 0, 91, 0
2, 63442, Note_on_c, 0, 64, 0
2, 63443, Control_c, 0, 64, 0
2, 63443, Note_on_c, 0, 66, 0
2, 63445, Note_on_c, 0, 90, 0
2, 63521, Control_c, 0, 64, 127
2, 63645, Note_on_c, 0, 81, 62
2, 63840, Note_on_c, 0, 83, 69
2, 64051, Note_on_c, 0, 64, 70
2, 64051, Note_on_c, 0, 86, 85
2, 64062, Control_c, 0, 64, 0
2, 64089, Control_c, 0, 64, 127
2, 64266, Note_on_c, 0, 86, 0
2, 64270, Note_on_c, 0, 86, 89
2, 64450, Note_on_c, 0, 83, 0
2, 64459, Note_on_c, 0, 83, 77
2, 64652, Note_on_c, 0, 59, 68
2, 64653, Note_on_c, 0, 79, 69
2, 64796, Note_on_c, 0, 81, 0
2, 64839, Note_on_c, 0, 74, 71
2, 65053, Control_c, 0, 64, 0
2, 65053, Note_on_c, 0, 74, 0
2, 65054, Note_on_c, 0, 86, 0
2, 65054, Note_on_c, 0, 79, 0
2, 65054, Note_on_c, 0, 59, 0
2, 65054, Note_on_c, 0, 67, 0
2, 65055, Note_on_c, 0, 83, 0
2, 65055, Note_on_c, 0, 64, 0
2, 65058, Note_on_c, 0, 60, 69
2, 65061, Note_on_c, 0, 76, 63
2, 65072, Note_on_c, 0, 88, 0
2, 65134, Control_c, 0, 64, 127
2, 65262, Note_on_c, 0, 84, 76
2, 65458, Note_on_c, 0, 83, 86
2, 65669, Note_on_c, 0, 81, 85
2, 65672, Note_on_c, 0, 62, 68
2, 65713, Control_c, 0, 64, 0
2, 65714, Note_on_c, 0, 84, 0
2, 65715, Note_on_c, 0, 60, 0
2, 65715, Note_on_c, 0, 76, 0
2, 65786, Control_c, 0, 64, 127
2, 65882, Note_on_c, 0, 86, 83
2, 66048, Note_on_c, 0, 83, 0
2, 66073, Note_on_c, 0, 84, 84
2, 66282, Note_on_c, 0, 83, 79
2, 66286, Note_on_c, 0, 66, 68
2, 66478, Note_on_c, 0, 81, 0
2, 66483, Note_on_c, 0, 81, 83
2, 66671, Note_on_c, 0, 84, 0
2, 66671, Note_on_c, 0, 86, 0
2, 66672, Note_on_c, 0, 66, 0
2, 66673, Note_on_c, 0, 81, 0
2, 66673, Note_on_c, 0, 62, 0
2, 66674, Control_c, 0, 64, 0
2, 66674, Note_on_c, 0, 83, 0
2, 66713, Note_on_c, 0, 79, 79
2, 66715, Note_on_c, 0, 67, 71
2, 66939, Note_on_c, 0, 62, 65
2, 67021, Note_on_c, 0, 62, 0
2, 67142, Note_on_c, 0, 59, 67
2, 67208, Note_on_c, 0, 59, 0
2, 67365, Note_on_c, 0, 62, 66
2, 67403, Note_on_c, 0, 62, 0
2, 67641, Note_on_c, 0, 55, 48
2, 67752, Control_c, 0, 64, 127
2, 68090, Note_on_c, 0, 67, 0
2, 68102, Note_on_c, 0, 67, 66
2, 68160, Note_on_c, 0, 79, 0
2, 68364, Note_on_c, 0, 69, 76
2, 68453, Note_on_c, 0, 55, 0
2, 68457, Control_c, 0, 64, 0
2, 68572, Note_on_c, 0, 71, 83
2, 68623, Note_on_c, 0, 69, 0
2, 68807, Note_on_c, 0, 72, 83
2, 68813, Note_on_c, 0, 71, 0
2, 68821, Note_on_c, 0, 64, 66
2, 68828, Note_on_c, 0, 48, 59
2, 68994, Note_on_c, 0, 48, 0
2, 69022, Note_on_c, 0, 60, 71
2, 69081, Note_on_c, 0, 60, 0
2, 69216, Note_on_c, 0, 55, 72
2, 69257, Note_on_c, 0, 55, 0
2, 69312, Note_on_c, 0, 67, 0
2, 69409, Note_on_c, 0, 60, 77
2, 69446, Note_on_c, 0, 60, 0
2, 69453, Note_on_c, 0, 64, 0
2, 69488, Note_on_c, 0, 72, 0
2, 69602, Note_on_c, 0, 74, 84
2, 69610, Note_on_c, 0, 50, 73
2, 69615, Note_on_c, 0, 66, 76
2, 69799, Note_on_c, 0, 62, 76
2, 69835, Note_on_c, 0, 50, 0
2, 69836, Note_on_c, 0, 62, 0
2, 69980, Note_on_c, 0, 74, 0
2, 70002, Note_on_c, 0, 57, 73
2, 70046, Note_on_c, 0, 57, 0
2, 70175, Note_on_c, 0, 66, 0
2, 70184, Note_on_c, 0, 72, 77
2, 70204, Note_on_c, 0, 62, 69
2, 70258, Note_on_c, 0, 62, 0
2, 70291, Note_on_c, 0, 74, 66
2, 70330, Note_on_c, 0, 72, 0
2, 70370, Note_on_c, 0, 71, 86
2, 70391, Note_on_c, 0, 55, 70
2, 70402, Note_on_c, 0, 67, 64
2, 70410, Note_on_c, 0, 74, 0
2, 70569, Note_on_c, 0, 62, 74
2, 70590, Note_on_c, 0, 55, 0
2, 70608, Note_on_c, 0, 62, 0
2, 70783, Note_on_c, 0, 59, 64
2, 70820, Note_on_c, 0, 59, 0
2, 70971, Note_on_c, 0, 62, 70
2, 71000, Note_on_c, 0, 62, 0
2, 71166, Note_on_c, 0, 43, 69
2, 71362, Note_on_c, 0, 67, 0
2, 71370, Note_on_c, 0, 55, 70
2, 71372, Note_on_c, 0, 67, 83
2, 71398, Note_on_c, 0, 43, 0
2, 71401, Note_on_c, 0, 55, 0
2, 71409, Note_on_c, 0, 67, 0
2, 71550, Note_on_c, 0, 69, 83
2, 71554, Note_on_c, 0, 71, 0
2, 71557, Note_on_c, 0, 50, 69
2, 71598, Note_on_c, 0, 69, 0
2, 71608, Note_on_c, 0, 50, 0
2, 71737, Note_on_c, 0, 71, 81
2, 71737, Note_on_c, 0, 55, 69
2, 71773, Note_on_c, 0, 55, 0
2, 71778, Note_on_c, 0, 71, 0
2, 71927, Note_on_c, 0, 72, 86
2, 71937, Note_on_c, 0, 48, 68
2, 71946, Note_on_c, 0, 64, 70
2, 72119, Note_on_c, 0, 60, 68
2, 72153, Note_on_c, 0, 72, 0
2, 72309, Note_on_c, 0, 72, 85
2, 72313, Note_on_c, 0, 55, 66
2, 72334, Note_on_c, 0, 64, 0
2, 72443, Note_on_c, 0, 55, 0
2, 72453, Note_on_c, 0, 60, 0
2, 72455, Note_on_c, 0, 48, 0
2, 72488, Note_on_c, 0, 72, 0
2, 72495, Note_on_c, 0, 60, 71
2, 72547, Note_on_c, 0, 60, 0
2, 72681, Note_on_c, 0, 71, 88
2, 72703, Note_on_c, 0, 63, 69
2, 72703, Note_on_c, 0, 66, 72
2, 72706, Note_on_c, 0, 47, 70
2, 72885, Note_on_c, 0, 59, 69
2, 72921, Note_on_c, 0, 47, 0
2, 72998, Note_on_c, 0, 59, 0
2, 73084, Note_on_c, 0, 51, 73
2, 73117, Note_on_c, 0, 51, 0
2, 73128, Note_on_c, 0, 63, 0
2, 73179, Note_on_c, 0, 66, 0
2, 73236, Note_on_c, 0, 71, 0
2, 73275, Note_on_c, 0, 69, 73
2, 73289, Note_on_c, 0, 59, 71
2, 73332, Note_on_c, 0, 59, 0
2, 73360, Note_on_c, 0, 71, 79
2, 73368, Note_on_c, 0, 69, 0
2, 73465, Note_on_c, 0, 67, 85
2, 73472, Note_on_c, 0, 71, 0
2, 73484, Note_on_c, 0, 52, 66
2, 73485, Note_on_c, 0, 64, 72
2, 73650, Note_on_c, 0, 59, 70
2, 73709, Note_on_c, 0, 59, 0
2, 73719, Note_on_c, 0, 64, 0
2, 73852, Note_on_c, 0, 55, 74
2, 73902, Note_on_c, 0, 55, 0
2, 74021, Note_on_c, 0, 59, 75
2, 74069, Note_on_c, 0, 59, 0
2, 74212, Note_on_c, 0, 64, 76
2, 74229, Note_on_c, 0, 67, 0
2, 74239, Note_on_c, 0, 64, 0
2, 74408, Note_on_c, 0, 71, 81
2, 74408, Note_on_c, 0, 59, 70
2, 74446, Note_on_c, 0, 71, 0
2, 74451, Note_on_c, 0, 59, 0
2, 74557, Note_on_c, 0, 52, 0
2, 74586, Note_on_c, 0, 69, 82
2, 74607, Note_on_c, 0, 55, 60
2, 74647, Note_on_c, 0, 69, 0
2, 74717, Note_on_c, 0, 55, 0
2, 74783, Note_on_c, 0, 67, 88
2, 74788, Note_on_c, 0, 52, 65
2, 74816, Note_on_c, 0, 67, 0
2, 74820, Note_on_c, 0, 52, 0
2, 74967, Note_on_c, 0, 69, 80
2, 74982, Note_on_c, 0, 64, 64
2, 74984, Note_on_c, 0, 60, 66
2, 74985, Note_on_c, 0, 45, 66
2, 75173, Note_on_c, 0, 57, 66
2, 75355, Note_on_c, 0, 52, 68
2, 75365, Note_on_c, 0, 60, 0
2, 75406, Note_on_c, 0, 52, 0
2, 75409, Note_on_c, 0, 57, 0
2, 75425, Note_on_c, 0, 64, 0
2, 75535, Note_on_c, 0, 57, 75
2, 75545, Note_on_c, 0, 45, 0
2, 75573, Note_on_c, 0, 57, 0
2, 75594, Note_on_c, 0, 69, 0
2, 75726, Note_on_c, 0, 64, 82
2, 75736, Note_on_c, 0, 45, 72
2, 75738, Note_on_c, 0, 60, 71
2, 75906, Note_on_c, 0, 57, 64
2, 75920, Note_on_c, 0, 60, 0
2, 75935, Note_on_c, 0, 64, 0
2, 76084, Note_on_c, 0, 71, 86
2, 76099, Note_on_c, 0, 52, 64
2, 76147, Note_on_c, 0, 57, 0
2, 76258, Note_on_c, 0, 71, 0
2, 76268, Note_on_c, 0, 52, 0
2, 76271, Note_on_c, 0, 57, 70
2, 76314, Note_on_c, 0, 57, 0
2, 76323, Note_on_c, 0, 45, 0
2, 76458, Note_on_c, 0, 69, 79
2, 76472, Note_on_c, 0, 61, 67
2, 76472, Note_on_c, 0, 45, 72
2, 76473, Note_on_c, 0, 64, 68
2, 76656, Note_on_c, 0, 57, 75
2, 76682, Note_on_c, 0, 57, 0
2, 76843, Note_on_c, 0, 52, 69
2, 76886, Note_on_c, 0, 52, 0
2, 76945, Note_on_c, 0, 64, 0
2, 77007, Note_on_c, 0, 61, 0
2, 77007, Note_on_c, 0, 69, 0
2, 77030, Note_on_c, 0, 57, 76
2, 77057, Note_on_c, 0, 45, 0
2, 77063, Note_on_c, 0, 57, 0
2, 77221, Note_on_c, 0, 67, 84
2, 77228, Note_on_c, 0, 64, 72
2, 77235, Note_on_c, 0, 61, 67
2, 77242, Note_on_c, 0, 45, 71
2, 77420, Note_on_c, 0, 57, 72
2, 77468, Note_on_c, 0, 57, 0
2, 77616, Note_on_c, 0, 52, 62
2, 77657, Note_on_c, 0, 52, 0
2, 77726, Note_on_c, 0, 61, 0
2, 77764, Note_on_c, 0, 67, 0
2, 77770, Note_on_c, 0, 45, 0
2, 77775, Note_on_c, 0, 64, 0
2, 77786, Note_on_c, 0, 64, 83
2, 77794, Note_on_c, 0, 57, 70
2, 77832, Note_on_c, 0, 64, 0
2, 77840, Note_on_c, 0, 57, 0
2, 77980, Note_on_c, 0, 66, 81
2, 77985, Note_on_c, 0, 50, 68
2, 78001, Note_on_c, 0, 62, 63
2, 78164, Note_on_c, 0, 57, 73
2, 78205, Note_on_c, 0, 57, 0
2, 78355, Note_on_c, 0, 54, 74
2, 78400, Note_on_c, 0, 54, 0
2, 78493, Note_on_c, 0, 62, 0
2, 78493, Note_on_c, 0, 50, 0
2, 78535, Note_on_c, 0, 57, 79
2, 78573, Note_on_c, 0, 57, 0
2, 78737, Note_on_c, 0, 67, 84
2, 78746, Note_on_c, 0, 50, 76
2, 78749, Note_on_c, 0, 62, 73
2, 78919, Note_on_c, 0, 66, 0
2, 78933, Note_on_c, 0, 59, 78
2, 78968, Note_on_c, 0, 59, 0
2, 79116, Note_on_c, 0, 55, 77
2, 79147, Note_on_c, 0, 55, 0
2, 79224, Note_on_c, 0, 50, 0
2, 79230, Note_on_c, 0, 62, 0
2, 79290, Note_on_c, 0, 59, 87
2, 79342, Note_on_c, 0, 59, 0
2, 79497, Note_on_c, 0, 68, 88
2, 79502, Note_on_c, 0, 50, 77
2, 79506, Note_on_c, 0, 65, 73
2, 79557, Note_on_c, 0, 67, 0
2, 79696, Note_on_c, 0, 60, 80
2, 79736, Note_on_c, 0, 60, 0
2, 79877, Note_on_c, 0, 57, 84
2, 79930, Note_on_c, 0, 57, 0
2, 79998, Note_on_c, 0, 50, 0
2, 80055, Note_on_c, 0, 60, 85
2, 80087, Note_on_c, 0, 65, 0
2, 80112, Note_on_c, 0, 60, 0
2, 80125, Note_on_c, 0, 68, 0
2, 80251, Note_on_c, 0, 50, 68
2, 80253, Note_on_c, 0, 69, 79
2, 80273, Note_on_c, 0, 66, 75
2, 80355, Control_c, 0, 64, 127
2, 80436, Note_on_c, 0, 62, 74
2, 80636, Note_on_c, 0, 57, 71
2, 80846, Note_on_c, 0, 71, 84
2, 80855, Note_on_c, 0, 62, 0
2, 80864, Note_on_c, 0, 62, 65
2, 80954, Note_on_c, 0, 72, 81
2, 81059, Note_on_c, 0, 71, 0
2, 81060, Note_on_c, 0, 62, 0
2, 81060, Note_on_c, 0, 69, 0
2, 81060, Note_on_c, 0, 57, 0
2, 81060, Note_on_c, 0, 66, 0
2, 81062, Note_on_c, 0, 50, 0
2, 81065, Control_c, 0, 64, 0
2, 81068, Note_on_c, 0, 72, 0
2, 81090, Note_on_c, 0, 59, 70
2, 81091, Note_on_c, 0, 55, 72
2, 81093, Note_on_c, 0, 74, 79
2, 81302, Note_on_c, 0, 72, 76
2, 81361, Control_c, 0, 64, 127
2, 81369, Note_on_c, 0, 74, 0
2, 81487, Note_on_c, 0, 71, 77
2, 81676, Note_on_c, 0, 55, 0
2, 81681, Note_on_c, 0, 69, 78
2, 81683, Note_on_c, 0, 55, 68
2, 81684, Note_on_c, 0, 52, 62
2, 81703, Control_c, 0, 64, 0
2, 81704, Note_on_c, 0, 71, 0
2, 81704, Note_on_c, 0, 72, 0
2, 81704, Note_on_c, 0, 59, 0
2, 81830, Control_c, 0, 64, 127
2, 81871, Note_on_c, 0, 79, 84
2, 82076, Note_on_c, 0, 76, 81
2, 82258, Note_on_c, 0, 52, 0
2, 82258, Control_c, 0, 64, 0
2, 82263, Note_on_c, 0, 79, 0
2, 82263, Note_on_c, 0, 69, 0
2, 82272, Note_on_c, 0, 57, 73
2, 82273, Note_on_c, 0, 54, 68
2, 82273, Note_on_c, 0, 76, 0
2, 82274, Note_on_c, 0, 78, 86
2, 82275, Note_on_c, 0, 55, 0
2, 82337, Control_c, 0, 64, 127
2, 82457, Note_on_c, 0, 76, 77
2, 82659, Note_on_c, 0, 74, 83
2, 82662, Note_on_c, 0, 54, 0
2, 82662, Control_c, 0, 64, 0
2, 82662, Note_on_c, 0, 57, 0
2, 82663, Note_on_c, 0, 78, 0
2, 82663, Note_on_c, 0, 76, 0
2, 82682, Note_on_c, 0, 55, 63
2, 82744, Control_c, 0, 64, 127
2, 82870, Note_on_c, 0, 57, 61
2, 83059, Note_on_c, 0, 59, 65
2, 83243, Note_on_c, 0, 55, 0
2, 83252, Note_on_c, 0, 71, 82
2, 83254, Note_on_c, 0, 55, 60
2, 83255, Note_on_c, 0, 52, 59
2, 83257, Note_on_c, 0, 57, 0
2, 83258, Control_c, 0, 64, 0
2, 83261, Note_on_c, 0, 74, 0
2, 83320, Control_c, 0, 64, 127
2, 83448, Note_on_c, 0, 67, 81
2, 83635, Note_on_c, 0, 67, 0
2, 83644, Note_on_c, 0, 67, 85
2, 83814, Note_on_c, 0, 47, 64
2, 83842, Note_on_c, 0, 69, 82
2, 84003, Note_on_c, 0, 71, 0
2, 84008, Note_on_c, 0, 71, 80
2, 84197, Control_c, 0, 64, 0
2, 84198, Note_on_c, 0, 47, 0
2, 84198, Note_on_c, 0, 69, 0
2, 84198, Note_on_c, 0, 67, 0
2, 84199, Note_on_c, 0, 71, 0
2, 84200, Note_on_c, 0, 72, 83
2, 84203, Note_on_c, 0, 59, 0
2, 84207, Note_on_c, 0, 48, 59
2, 84211, Note_on_c, 0, 55, 0
2, 84218, Note_on_c, 0, 52, 0
2, 84229, Note_on_c, 0, 52, 53
2, 84288, Control_c, 0, 64, 127
2, 84387, Note_on_c, 0, 55, 68
2, 84582, Note_on_c, 0, 54, 68
2, 84764, Note_on_c, 0, 55, 0
2, 84775, Note_on_c, 0, 55, 78
2, 84777, Note_on_c, 0, 50, 67
2, 84798, Control_c, 0, 64, 0
2, 84801, Note_on_c, 0, 54, 0
2, 84801, Note_on_c, 0, 52, 0
2, 84801, Note_on_c, 0, 48, 0
2, 84917, Control_c, 0, 64, 127
2, 84980, Note_on_c, 0, 57, 73
2, 85169, Note_on_c, 0, 62, 80
2, 85360, Control_c, 0, 64, 0
2, 85368, Note_on_c, 0, 54, 68
2, 85369, Note_on_c, 0, 67, 77
2, 85378, Note_on_c, 0, 55, 0
2, 85409, Control_c, 0, 64, 127
2, 85463, Note_on_c, 0, 72, 0
2, 85550, Note_on_c, 0, 69, 76
2, 85734, Note_on_c, 0, 62, 0
2, 85734, Control_c, 0, 64, 0
2, 85734, Note_on_c, 0, 57, 0
2, 85734, Note_on_c, 0, 67, 0
2, 85735, Note_on_c, 0, 54, 0
2, 85736, Note_on_c, 0, 69, 0
2, 85743, Note_on_c, 0, 71, 80
2, 85744, Note_on_c, 0, 55, 71
2, 85744, Note_on_c, 0, 43, 55
2, 85762, Note_on_c, 0, 50, 0
2, 85824, Control_c, 0, 64, 127
2, 85946, Note_on_c, 0, 43, 0
2, 85949, Note_on_c, 0, 59, 61
2, 86137, Note_on_c, 0, 62, 67
2, 86318, Note_on_c, 0, 62, 0
2, 86319, Control_c, 0, 64, 0
2, 86320, Note_on_c, 0, 59, 0
2, 86328, Note_on_c, 0, 72, 78
2, 86330, Note_on_c, 0, 55, 0
2, 86336, Note_on_c, 0, 52, 61
2, 86336, Note_on_c, 0, 55, 62
2, 86423, Control_c, 0, 64, 127
2, 86430, Note_on_c, 0, 71, 0
2, 86436, Note_on_c, 0, 71, 77
2, 86521, Note_on_c, 0, 69, 84
2, 86719, Note_on_c, 0, 67, 70
2, 86900, Control_c, 0, 64, 0
2, 86900, Note_on_c, 0, 66, 71
2, 86902, Note_on_c, 0, 72, 0
2, 86902, Note_on_c, 0, 55, 0
2, 86903, Note_on_c, 0, 67, 0
2, 86903, Note_on_c, 0, 52, 0
2, 86903, Note_on_c, 0, 71, 0
2, 86910, Note_on_c, 0, 54, 61
2, 86913, Note_on_c, 0, 57, 64
2, 86913, Note_on_c, 0, 45, 54
2, 86968, Control_c, 0, 64, 127
2, 86983, Note_on_c, 0, 45, 0
2, 87087, Note_on_c, 0, 62, 75
2, 87291, Note_on_c, 0, 57, 0
2, 87291, Note_on_c, 0, 66, 0
2, 87292, Note_on_c, 0, 62, 0
2, 87292, Note_on_c, 0, 54, 0
2, 87292, Control_c, 0, 64, 0
2, 87306, Note_on_c, 0, 69, 0
2, 87309, Note_on_c, 0, 55, 78
2, 87310, Note_on_c, 0, 59, 78
2, 87310, Note_on_c, 0, 74, 84
2, 87390, Control_c, 0, 64, 127
2, 87502, Note_on_c, 0, 72, 81
2, 87689, Note_on_c, 0, 71, 87
2, 87874, Note_on_c, 0, 55, 0
2, 87874, Note_on_c, 0, 74, 0
2, 87880, Note_on_c, 0, 74, 86
2, 87884, Note_on_c, 0, 55, 82
2, 87890, Note_on_c, 0, 52, 74
2, 87915, Note_on_c, 0, 72, 0
2, 87915, Control_c, 0, 64, 0
2, 87918, Note_on_c, 0, 59, 0
2, 87922, Note_on_c, 0, 71, 0
2, 88020, Control_c, 0, 64, 127
2, 88093, Note_on_c, 0, 79, 97
2, 88288, Note_on_c, 0, 78, 94
2, 88461, Note_on_c, 0, 52, 0
2, 88462, Control_c, 0, 64, 0
2, 88463, Note_on_c, 0, 79, 0
2, 88473, Note_on_c, 0, 78, 0
2, 88479, Note_on_c, 0, 78, 91
2, 88481, Note_on_c, 0, 55, 0
2, 88483, Note_on_c, 0, 54, 78
2, 88484, Note_on_c, 0, 57, 75
2, 88527, Note_on_c, 0, 74, 0
2, 88558, Control_c, 0, 64, 127
2, 88660, Note_on_c, 0, 79, 85
2, 88879, Note_on_c, 0, 76, 80
2, 88884, Note_on_c, 0, 59, 68
2, 88884, Note_on_c, 0, 55, 67
2, 88888, Control_c, 0, 64, 0
2, 88892, Note_on_c, 0, 54, 0
2, 88892, Note_on_c, 0, 79, 0
2, 88892, Note_on_c, 0, 57, 0
2, 88893, Note_on_c, 0, 78, 0
2, 89003, Control_c, 0, 64, 127
2, 89077, Note_on_c, 0, 69, 69
2, 89264, Note_on_c, 0, 71, 79
2, 89441, Note_on_c, 0, 55, 0
2, 89447, Note_on_c, 0, 74, 82
2, 89452, Note_on_c, 0, 55, 76
2, 89455, Note_on_c, 0, 52, 64
2, 89468, Control_c, 0, 64, 0
2, 89470, Note_on_c, 0, 69, 0
2, 89471, Note_on_c, 0, 71, 0
2, 89471, Note_on_c, 0, 59, 0
2, 89474, Note_on_c, 0, 76, 0
2, 89548, Control_c, 0, 64, 127
2, 89648, Note_on_c, 0, 74, 0
2, 89653, Note_on_c, 0, 74, 76
2, 89816, Note_on_c, 0, 71, 76
2, 90014, Note_on_c, 0, 47, 63
2, 90028, Note_on_c, 0, 67, 72
2, 90219, Note_on_c, 0, 62, 68
2, 90408, Note_on_c, 0, 52, 0
2, 90415, Note_on_c, 0, 48, 59
2, 90417, Note_on_c, 0, 64, 69
2, 90419, Control_c, 0, 64, 0
2, 90419, Note_on_c, 0, 52, 57
2, 90420, Note_on_c, 0, 47, 0
2, 90420, Note_on_c, 0, 67, 0
2, 90420, Note_on_c, 0, 74, 0
2, 90420, Note_on_c, 0, 71, 0
2, 90420, Note_on_c, 0, 62, 0
2, 90439, Note_on_c, 0, 55, 0
2, 90508, Control_c, 0, 64, 127
2, 90609, Note_on_c, 0, 72, 76
2, 90804, Note_on_c, 0, 71, 80
2, 91001, Control_c, 0, 64, 0
2, 91002, Note_on_c, 0, 69, 75
2, 91004, Note_on_c, 0, 54, 58
2, 91004, Note_on_c, 0, 64, 0
2, 91008, Note_on_c, 0, 52, 0
2, 91010, Note_on_c, 0, 72, 0
2, 91011, Note_on_c, 0, 48, 0
2, 91011, Note_on_c, 0, 50, 60
2, 91012, Note_on_c, 0, 71, 0
2, 91092, Control_c, 0, 64, 127
2, 91204, Note_on_c, 0, 74, 70
2, 91403, Note_on_c, 0, 72, 74
2, 91617, Note_on_c, 0, 71, 73
2, 91618, Note_on_c, 0, 60, 66
2, 91814, Note_on_c, 0, 69, 0
2, 91819, Note_on_c, 0, 69, 75
2, 92054, Note_on_c, 0, 55, 63
2, 92054, Note_on_c, 0, 67, 79
2, 92070, Note_on_c, 0, 54, 0
2, 92071, Note_on_c, 0, 50, 0
2, 92071, Note_on_c, 0, 60, 0
2, 92085, Note_on_c, 0, 71, 0
2, 92086, Note_on_c, 0, 74, 0
2, 92088, Note_on_c, 0, 72, 0
2, 92095, Note_on_c, 0, 69, 0
2, 92107, Control_c, 0, 64, 0
2, 92269, Note_on_c, 0, 62, 64
2, 92485, Note_on_c, 0, 62, 0
2, 92492, Note_on_c, 0, 60, 60
2, 92570, Note_on_c, 0, 60, 0
2, 92696, Note_on_c, 0, 62, 65
2, 92758, Note_on_c, 0, 62, 0
2, 92924, Note_on_c, 0, 59, 60
2, 93142, Note_on_c, 0, 62, 65
2, 93160, Note_on_c, 0, 59, 0
2, 93384, Note_on_c, 0, 62, 0
2, 93398, Note_on_c, 0, 60, 55
2, 93470, Note_on_c, 0, 60, 0
2, 93681, Note_on_c, 0, 62, 53
2, 93733, Note_on_c, 0, 62, 0
2, 93995, Note_on_c, 0, 59, 54
2, 94080, Note_on_c, 0, 55, 0
2, 94080, Note_on_c, 0, 67, 0
2, 94118, Control_c, 0, 64, 127
2, 94477, Note_on_c, 0, 62, 50
2, 94987, Note_on_c, 0, 67, 53
2, 95589, Note_on_c, 0, 74, 49
2, 96348, Note_on_c, 0, 79, 55
2, 97920, Note_on_c, 0, 59, 0
2, 97920, Note_on_c, 0, 62, 0
2, 97920, Note_on_c, 0, 67, 0
2, 97920, Note_on_c, 0, 74, 0
2, 98348, Note_on_c, 0, 79, 0
2, 98366, Control_c, 0, 64, 0
2, 98515, Note_on_c, 0, 57, 58
2, 98559, Note_on_c, 0, 61, 61
2, 98599, Note_on_c, 0, 64, 77
2, 98605, Note_on_c, 0, 69, 70
2, 98618, Control_c, 0, 64, 127
2, 98639, Note_on_c, 0, 73, 80
2, 98666, Note_on_c, 0, 76, 74
2, 98699, Note_on_c, 0, 81, 90
2, 100180, Note_on_c, 0, 64, 0
2, 100180, Note_on_c, 0, 69, 0
2, 100181, Note_on_c, 0, 57, 0
2, 100181, Note_on_c, 0, 81, 0
2, 100181, Note_on_c, 0, 61, 0
2, 100181, Note_on_c, 0, 76, 0
2, 100182, Note_on_c, 0, 73, 0
2, 100183, Control_c, 0, 64, 0
2, 100506, Note_on_c, 0, 74, 74
2, 100604, Note_on_c, 0, 76, 70
2, 100669, Note_on_c, 0, 74, 0
2, 100670, Note_on_c, 0, 62, 75
2, 100671, Note_on_c, 0, 78, 89
2, 100673, Note_on_c, 0, 76, 0
2, 100697, Note_on_c, 0, 78, 0
2, 100700, Note_on_c, 0, 62, 0
2, 100845, Note_on_c, 0, 78, 82
2, 100879, Note_on_c, 0, 78, 0
2, 101028, Note_on_c, 0, 78, 90
2, 101029, Note_on_c, 0, 61, 76
2, 101064, Note_on_c, 0, 78, 0
2, 101065, Note_on_c, 0, 61, 0
2, 101216, Note_on_c, 0, 74, 76
2, 101319, Note_on_c, 0, 76, 80
2, 101376, Note_on_c, 0, 59, 82
2, 101399, Note_on_c, 0, 78, 95
2, 101407, Note_on_c, 0, 76, 0
2, 101412, Note_on_c, 0, 74, 0
2, 101414, Note_on_c, 0, 59, 0
2, 101429, Note_on_c, 0, 78, 0
2, 101578, Note_on_c, 0, 78, 88
2, 101647, Note_on_c, 0, 78, 0
2, 101740, Note_on_c, 0, 78, 91
2, 101740, Note_on_c, 0, 57, 83
2, 101776, Note_on_c, 0, 57, 0
2, 101778, Note_on_c, 0, 78, 0
2, 101919, Note_on_c, 0, 74, 84
2, 102027, Note_on_c, 0, 76, 80
2, 102034, Note_on_c, 0, 74, 0
2, 102101, Note_on_c, 0, 62, 89
2, 102103, Note_on_c, 0, 78, 93
2, 102115, Note_on_c, 0, 76, 0
2, 102133, Note_on_c, 0, 78, 0
2, 102147, Note_on_c, 0, 62, 0
2, 102269, Note_on_c, 0, 78, 96
2, 102347, Note_on_c, 0, 78, 0
2, 102445, Note_on_c, 0, 57, 82
2, 102447, Note_on_c, 0, 79, 94
2, 102479, Note_on_c, 0, 57, 0
2, 102541, Note_on_c, 0, 78, 85
2, 102565, Note_on_c, 0, 79, 0
2, 102616, Note_on_c, 0, 76, 88
2, 102624, Note_on_c, 0, 78, 0
2, 102710, Note_on_c, 0, 78, 85
2, 102712, Note_on_c, 0, 76, 0
2, 102785, Note_on_c, 0, 59, 91
2, 102796, Note_on_c, 0, 76, 88
2, 102811, Note_on_c, 0, 78, 0
2, 102817, Note_on_c, 0, 59, 0
2, 103154, Note_on_c, 0, 60, 88
2, 103185, Note_on_c, 0, 60, 0
2, 103245, Note_on_c, 0, 76, 0
2, 103340, Note_on_c, 0, 73, 86
2, 103437, Note_on_c, 0, 74, 75
2, 103438, Note_on_c, 0, 73, 0
2, 103499, Note_on_c, 0, 74, 0
2, 103507, Note_on_c, 0, 76, 89
2, 103508, Note_on_c, 0, 61, 90
2, 103538, Note_on_c, 0, 61, 0
2, 103557, Note_on_c, 0, 76, 0
2, 103684, Note_on_c, 0, 76, 94
2, 103715, Note_on_c, 0, 76, 0
2, 103867, Note_on_c, 0, 57, 87
2, 103867, Note_on_c, 0, 76, 89
2, 103898, Note_on_c, 0, 76, 0
2, 103899, Note_on_c, 0, 57, 0
2, 104049, Note_on_c, 0, 73, 93
2, 104134, Note_on_c, 0, 74, 85
2, 104138, Note_on_c, 0, 73, 0
2, 104213, Note_on_c, 0, 74, 0
2, 104214, Note_on_c, 0, 76, 88
2, 104217, Note_on_c, 0, 59, 87
2, 104251, Note_on_c, 0, 76, 0
2, 104251, Note_on_c, 0, 59, 0
2, 104395, Note_on_c, 0, 76, 94
2, 104448, Note_on_c, 0, 76, 0
2, 104573, Note_on_c, 0, 60, 90
2, 104573, Note_on_c, 0, 76, 89
2, 104616, Note_on_c, 0, 76, 0
2, 104625, Note_on_c, 0, 60, 0
2, 104749, Note_on_c, 0, 73, 93
2, 104840, Note_on_c, 0, 74, 83
2, 104863, Note_on_c, 0, 73, 0
2, 104915, Note_on_c, 0, 74, 0
2, 104923, Note_on_c, 0, 76, 92
2, 104924, Note_on_c, 0, 61, 88
2, 104957, Note_on_c, 0, 61, 0
2, 104959, Note_on_c, 0, 76, 0
2, 105090, Note_on_c, 0, 76, 91
2, 105127, Note_on_c, 0, 76, 0
2, 105268, Note_on_c, 0, 78, 95
2, 105270, Note_on_c, 0, 57, 80
2, 105346, Note_on_c, 0, 78, 0
2, 105351, Note_on_c, 0, 76, 79
2, 105361, Note_on_c, 0, 57, 0
2, 105381, Note_on_c, 0, 76, 0
2, 105434, Note_on_c, 0, 76, 87
2, 105510, Note_on_c, 0, 76, 0
2, 105535, Note_on_c, 0, 78, 92
2, 105626, Note_on_c, 0, 74, 89
2, 105627, Note_on_c, 0, 62, 89
2, 105638, Note_on_c, 0, 78, 0
2, 105677, Note_on_c, 0, 62, 0
2, 105730, Note_on_c, 0, 74, 0
2, 105796, Note_on_c, 0, 69, 85
2, 105966, Note_on_c, 0, 69, 0
2, 105979, Note_on_c, 0, 57, 87
2, 105980, Note_on_c, 0, 78, 93
2, 106018, Note_on_c, 0, 57, 0
2, 106178, Note_on_c, 0, 74, 86
2, 106218, Note_on_c, 0, 78, 0
2, 106270, Note_on_c, 0, 76, 85
2, 106307, Note_on_c, 0, 74, 0
2, 106344, Note_on_c, 0, 62, 83
2, 106344, Note_on_c, 0, 78, 91
2, 106345, Note_on_c, 0, 66, 91
2, 106355, Note_on_c, 0, 76, 0
2, 106473, Note_on_c, 0, 62, 0
2, 106478, Note_on_c, 0, 66, 0
2, 106513, Note_on_c, 0, 78, 0
2, 106519, Note_on_c, 0, 78, 87
2, 106542, Note_on_c, 0, 78, 0
2, 106694, Note_on_c, 0, 78, 93
2, 106695, Note_on_c, 0, 61, 80
2, 106718, Note_on_c, 0, 78, 0
2, 106730, Note_on_c, 0, 61, 0
2, 106877, Note_on_c, 0, 74, 80
2, 106962, Note_on_c, 0, 76, 80
2, 107028, Note_on_c, 0, 74, 0
2, 107039, Note_on_c, 0, 76, 0
2, 107047, Note_on_c, 0, 78, 93
2, 107048, Note_on_c, 0, 62, 78
2, 107048, Note_on_c, 0, 66, 87
2, 107053, Note_on_c, 0, 59, 78
2, 107097, Note_on_c, 0, 78, 0
2, 107224, Note_on_c, 0, 78, 94
2, 107270, Note_on_c, 0, 78, 0
2, 107277, Note_on_c, 0, 59, 0
2, 107277, Note_on_c, 0, 66, 0
2, 107301, Note_on_c, 0, 62, 0
2, 107394, Note_on_c, 0, 78, 92
2, 107395, Note_on_c, 0, 57, 81
2, 107424, Note_on_c, 0, 78, 0
2, 107439, Note_on_c, 0, 57, 0
2, 107580, Note_on_c, 0, 74, 85
2, 107669, Note_on_c, 0, 76, 81
2, 107746, Note_on_c, 0, 78, 93
2, 107749, Note_on_c, 0, 66, 94
2, 107749, Note_on_c, 0, 62, 80
2, 107771, Note_on_c, 0, 76, 0
2, 107781, Note_on_c, 0, 74, 0
2, 107834, Note_on_c, 0, 78, 0
2, 107924, Note_on_c, 0, 78, 87
2, 107968, Note_on_c, 0, 66, 0
2, 107969, Note_on_c, 0, 78, 0
2, 107985, Note_on_c, 0, 62, 0
2, 108081, Note_on_c, 0, 79, 96
2, 108082, Note_on_c, 0, 57, 70
2, 108146, Note_on_c, 0, 57, 0
2, 108187, Note_on_c, 0, 78, 84
2, 108207, Note_on_c, 0, 79, 0
2, 108252, Note_on_c, 0, 76, 85
2, 108261, Note_on_c, 0, 78, 0
2, 108344, Note_on_c, 0, 78, 87
2, 108348, Note_on_c, 0, 76, 0
2, 108430, Note_on_c, 0, 78, 0
2, 108433, Note_on_c, 0, 76, 87
2, 108436, Note_on_c, 0, 59, 83
2, 108438, Note_on_c, 0, 64, 87
2, 108766, Note_on_c, 0, 60, 90
2, 108768, Note_on_c, 0, 59, 0
2, 108772, Note_on_c, 0, 64, 0
2, 108809, Note_on_c, 0, 60, 0
2, 108833, Note_on_c, 0, 76, 0
2, 108974, Note_on_c, 0, 73, 95
2, 109065, Note_on_c, 0, 74, 85
2, 109131, Note_on_c, 0, 74, 0
2, 109134, Note_on_c, 0, 73, 0
2, 109137, Note_on_c, 0, 64, 91
2, 109138, Note_on_c, 0, 61, 81
2, 109140, Note_on_c, 0, 76, 90
2, 109171, Note_on_c, 0, 76, 0
2, 109171, Note_on_c, 0, 64, 0
2, 109180, Note_on_c, 0, 61, 0
2, 109321, Note_on_c, 0, 79, 95
2, 109490, Note_on_c, 0, 57, 79
2, 109491, Note_on_c, 0, 78, 90
2, 109658, Note_on_c, 0, 76, 78
2, 109668, Note_on_c, 0, 57, 0
2, 109812, Note_on_c, 0, 76, 0
2, 109816, Note_on_c, 0, 79, 0
2, 109820, Note_on_c, 0, 78, 0
2, 109850, Note_on_c, 0, 74, 88
2, 109851, Note_on_c, 0, 59, 80
2, 109851, Note_on_c, 0, 64, 80
2, 110030, Note_on_c, 0, 73, 88
2, 110037, Note_on_c, 0, 74, 0
2, 110132, Note_on_c, 0, 59, 0
2, 110188, Note_on_c, 0, 64, 0
2, 110189, Note_on_c, 0, 73, 0
2, 110196, Note_on_c, 0, 60, 81
2, 110201, Note_on_c, 0, 71, 91
2, 110243, Note_on_c, 0, 60, 0
2, 110349, Note_on_c, 0, 71, 0
2, 110380, Note_on_c, 0, 73, 93
2, 110553, Note_on_c, 0, 73, 0
2, 110559, Note_on_c, 0, 83, 99
2, 110564, Note_on_c, 0, 64, 89
2, 110565, Note_on_c, 0, 61, 74
2, 110599, Control_c, 0, 64, 127
2, 110908, Note_on_c, 0, 81, 95
2, 110909, Note_on_c, 0, 57, 82
2, 110989, Note_on_c, 0, 79, 91
2, 111083, Note_on_c, 0, 78, 88
2, 111132, Control_c, 0, 64, 0
2, 111137, Note_on_c, 0, 79, 0
2, 111137, Note_on_c, 0, 57, 0
2, 111138, Note_on_c, 0, 61, 0
2, 111138, Note_on_c, 0, 81, 0
2, 111139, Note_on_c, 0, 64, 0
2, 111144, Note_on_c, 0, 83, 0
2, 111176, Note_on_c, 0, 76, 81
2, 111258, Note_on_c, 0, 66, 91
2, 111264, Note_on_c, 0, 62, 84
2, 111268, Note_on_c, 0, 74, 90
2, 111276, Note_on_c, 0, 76, 0
2, 111283, Note_on_c, 0, 78, 0
2, 111336, Control_c, 0, 64, 127
2, 111466, Note_on_c, 0, 57, 75
2, 111541, Note_on_c, 0, 54, 76
2, 111615, Note_on_c, 0, 50, 86
2, 111656, Control_c, 0, 64, 0
2, 111660, Note_on_c, 0, 62, 0
2, 111660, Note_on_c, 0, 54, 0
2, 111660, Note_on_c, 0, 50, 0
2, 111661, Note_on_c, 0, 74, 0
2, 111661, Note_on_c, 0, 57, 0
2, 111667, Note_on_c, 0, 66, 0
2, 111823, Note_on_c, 0, 78, 94
2, 111908, Note_on_c, 0, 79, 86
2, 111931, Note_on_c, 0, 78, 0
2, 111984, Note_on_c, 0, 79, 0
2, 111986, Note_on_c, 0, 81, 99
2, 112001, Note_on_c, 0, 54, 76
2, 112029, Note_on_c, 0, 81, 0
2, 112169, Note_on_c, 0, 81, 96
2, 112179, Note_on_c, 0, 62, 77
2, 112201, Note_on_c, 0, 57, 67
2, 112214, Note_on_c, 0, 81, 0
2, 112303, Note_on_c, 0, 62, 0
2, 112307, Note_on_c, 0, 57, 0
2, 112345, Note_on_c, 0, 78, 91
2, 112370, Note_on_c, 0, 78, 0
2, 112519, Note_on_c, 0, 74, 89
2, 112526, Note_on_c, 0, 54, 0
2, 112530, Note_on_c, 0, 57, 76
2, 112530, Note_on_c, 0, 62, 77
2, 112568, Note_on_c, 0, 74, 0
2, 112570, Note_on_c, 0, 57, 0
2, 112699, Note_on_c, 0, 86, 99
2, 112700, Note_on_c, 0, 55, 86
2, 112701, Note_on_c, 0, 62, 0
2, 112763, Note_on_c, 0, 86, 0
2, 112872, Note_on_c, 0, 62, 81
2, 112874, Note_on_c, 0, 85, 94
2, 112876, Note_on_c, 0, 59, 76
2, 112981, Note_on_c, 0, 59, 0
2, 112998, Note_on_c, 0, 62, 0
2, 113061, Note_on_c, 0, 83, 96
2, 113149, Control_c, 0, 64, 127
2, 113241, Note_on_c, 0, 62, 78
2, 113243, Note_on_c, 0, 59, 72
2, 113303, Note_on_c, 0, 85, 0
2, 113313, Note_on_c, 0, 85, 83
2, 113398, Control_c, 0, 64, 0
2, 113399, Note_on_c, 0, 62, 0
2, 113399, Note_on_c, 0, 59, 0
2, 113400, Note_on_c, 0, 55, 0
2, 113401, Note_on_c, 0, 85, 0
2, 113420, Note_on_c, 0, 81, 93
2, 113421, Note_on_c, 0, 57, 85
2, 113425, Note_on_c, 0, 83, 0
2, 113606, Note_on_c, 0, 62, 72
2, 113606, Note_on_c, 0, 66, 78
2, 113608, Note_on_c, 0, 78, 89
2, 113620, Note_on_c, 0, 81, 0
2, 113652, Note_on_c, 0, 66, 0
2, 113688, Note_on_c, 0, 62, 0
2, 113740, Note_on_c, 0, 78, 0
2, 113777, Note_on_c, 0, 74, 82
2, 113952, Note_on_c, 0, 66, 82
2, 113955, Note_on_c, 0, 62, 72
2, 113956, Note_on_c, 0, 78, 88
2, 113990, Note_on_c, 0, 66, 0
2, 114001, Note_on_c, 0, 74, 0
2, 114024, Note_on_c, 0, 78, 0
2, 114040, Note_on_c, 0, 62, 0
2, 114055, Note_on_c, 0, 57, 0
2, 114120, Note_on_c, 0, 57, 72
2, 114123, Note_on_c, 0, 76, 89
2, 114301, Note_on_c, 0, 64, 78
2, 114362, Control_c, 0, 64, 127
2, 114393, Note_on_c, 0, 61, 79
2, 114478, Note_on_c, 0, 57, 0
2, 114484, Note_on_c, 0, 57, 70
2, 114674, Note_on_c, 0, 78, 96
2, 114767, Note_on_c, 0, 79, 85
2, 114773, Control_c, 0, 64, 0
2, 114776, Note_on_c, 0, 64, 0
2, 114776, Note_on_c, 0, 76, 0
2, 114777, Note_on_c, 0, 57, 0
2, 114777, Note_on_c, 0, 61, 0
2, 114780, Note_on_c, 0, 78, 0
2, 114835, Note_on_c, 0, 79, 0
2, 114840, Note_on_c, 0, 81, 101
2, 114842, Note_on_c, 0, 54, 81
2, 114888, Note_on_c, 0, 81, 0
2, 115019, Note_on_c, 0, 81, 96
2, 115026, Note_on_c, 0, 62, 78
2, 115026, Note_on_c, 0, 57, 82
2, 115066, Note_on_c, 0, 81, 0
2, 115122, Note_on_c, 0, 62, 0
2, 115126, Note_on_c, 0, 57, 0
2, 115195, Note_on_c, 0, 78, 97
2, 115226, Note_on_c, 0, 78, 0
2, 115365, Note_on_c, 0, 74, 90
2, 115368, Note_on_c, 0, 57, 77
2, 115371, Note_on_c, 0, 62, 84
2, 115372, Note_on_c, 0, 54, 0
2, 115405, Note_on_c, 0, 57, 0
2, 115433, Note_on_c, 0, 74, 0
2, 115480, Note_on_c, 0, 62, 0
2, 115537, Note_on_c, 0, 55, 88
2, 115540, Note_on_c, 0, 86, 101
2, 115716, Note_on_c, 0, 85, 96
2, 115718, Note_on_c, 0, 62, 86
2, 115721, Note_on_c, 0, 59, 83
2, 115878, Note_on_c, 0, 62, 0
2, 115880, Note_on_c, 0, 59, 0
2, 115887, Note_on_c, 0, 83, 100
2, 115983, Control_c, 0, 64, 127
2, 116075, Note_on_c, 0, 62, 79
2, 116076, Note_on_c, 0, 59, 69
2, 116144, Note_on_c, 0, 85, 0
2, 116148, Note_on_c, 0, 85, 86
2, 116203, Control_c, 0, 64, 0
2, 116208, Note_on_c, 0, 85, 0
2, 116209, Note_on_c, 0, 83, 0
2, 116209, Note_on_c, 0, 59, 0
2, 116210, Note_on_c, 0, 55, 0
2, 116213, Note_on_c, 0, 86, 0
2, 116236, Note_on_c, 0, 62, 0
2, 116245, Note_on_c, 0, 81, 97
2, 116245, Note_on_c, 0, 62, 86
2, 116246, Note_on_c, 0, 57, 90
2, 116413, Note_on_c, 0, 62, 0
2, 116417, Note_on_c, 0, 81, 0
2, 116424, Note_on_c, 0, 86, 97
2, 116454, Note_on_c, 0, 57, 0
2, 116516, Note_on_c, 0, 86, 0
2, 116594, Note_on_c, 0, 61, 95
2, 116595, Note_on_c, 0, 57, 84
2, 116601, Note_on_c, 0, 85, 100
2, 116708, Note_on_c, 0, 61, 0
2, 116709, Note_on_c, 0, 57, 0
2, 116775, Note_on_c, 0, 88, 94
2, 116795, Note_on_c, 0, 85, 0
2, 116950, Note_on_c, 0, 86, 104
2, 116951, Note_on_c, 0, 62, 88
2, 117024, Note_on_c, 0, 57, 80
2, 117037, Note_on_c, 0, 62, 0
2, 117096, Note_on_c, 0, 88, 0
2, 117127, Note_on_c, 0, 54, 80
2, 117131, Note_on_c, 0, 57, 0
2, 117158, Control_c, 0, 64, 127
2, 117230, Note_on_c, 0, 57, 77
2, 117310, Note_on_c, 0, 50, 85
2, 117473, Control_c, 0, 64, 0
2, 117479, Note_on_c, 0, 54, 0
2, 117482, Note_on_c, 0, 50, 0
2, 117483, Note_on_c, 0, 57, 0
2, 117484, Note_on_c, 0, 86, 0
2, 117497, Note_on_c, 0, 74, 77
2, 117586, Note_on_c, 0, 76, 71
2, 117626, Note_on_c, 0, 74, 0
2, 117653, Note_on_c, 0, 76, 0
2, 117669, Note_on_c, 0, 62, 76
2, 117669, Note_on_c, 0, 78, 85
2, 117693, Note_on_c, 0, 78, 0
2, 117841, Note_on_c, 0, 62, 0
2, 117849, Note_on_c, 0, 78, 86
2, 117869, Note_on_c, 0, 66, 67
2, 117870, Note_on_c, 0, 69, 57
2, 117895, Note_on_c, 0, 78, 0
2, 117934, Note_on_c, 0, 78, 84
2, 117981, Note_on_c, 0, 66, 0
2, 117991, Note_on_c, 0, 69, 0
2, 118010, Note_on_c, 0, 78, 0
2, 118017, Note_on_c, 0, 78, 86
2, 118022, Note_on_c, 0, 61, 75
2, 118040, Note_on_c, 0, 78, 0
2, 118185, Note_on_c, 0, 61, 0
2, 118213, Note_on_c, 0, 74, 81
2, 118219, Note_on_c, 0, 66, 68
2, 118221, Note_on_c, 0, 69, 69
2, 118306, Note_on_c, 0, 76, 78
2, 118334, Note_on_c, 0, 66, 0
2, 118338, Note_on_c, 0, 69, 0
2, 118341, Note_on_c, 0, 74, 0
2, 118365, Note_on_c, 0, 76, 0
2, 118375, Note_on_c, 0, 78, 90
2, 118380, Note_on_c, 0, 59, 78
2, 118398, Note_on_c, 0, 78, 0
2, 118513, Note_on_c, 0, 59, 0
2, 118549, Note_on_c, 0, 78, 91
2, 118576, Note_on_c, 0, 66, 65
2, 118579, Note_on_c, 0, 69, 63
2, 118625, Note_on_c, 0, 78, 0
2, 118633, Note_on_c, 0, 78, 84
2, 118652, Note_on_c, 0, 66, 0
2, 118652, Note_on_c, 0, 69, 0
2, 118679, Note_on_c, 0, 78, 0
2, 118721, Note_on_c, 0, 78, 88
2, 118722, Note_on_c, 0, 57, 77
2, 118751, Note_on_c, 0, 78, 0
2, 118852, Note_on_c, 0, 57, 0
2, 118905, Note_on_c, 0, 74, 82
2, 118911, Note_on_c, 0, 69, 70
2, 118920, Note_on_c, 0, 66, 69
2, 118953, Note_on_c, 0, 66, 0
2, 118998, Note_on_c, 0, 76, 78
2, 119001, Note_on_c, 0, 74, 0
2, 119009, Note_on_c, 0, 69, 0
2, 119067, Note_on_c, 0, 78, 88
2, 119074, Note_on_c, 0, 62, 79
2, 119075, Note_on_c, 0, 76, 0
2, 119090, Note_on_c, 0, 78, 0
2, 119248, Note_on_c, 0, 78, 83
2, 119267, Note_on_c, 0, 69, 72
2, 119271, Note_on_c, 0, 66, 73
2, 119279, Note_on_c, 0, 62, 0
2, 119308, Note_on_c, 0, 78, 0
2, 119320, Note_on_c, 0, 69, 0
2, 119328, Note_on_c, 0, 66, 0
2, 119421, Note_on_c, 0, 79, 92
2, 119421, Note_on_c, 0, 57, 77
2, 119516, Note_on_c, 0, 78, 85
2, 119596, Note_on_c, 0, 69, 76
2, 119597, Note_on_c, 0, 76, 83
2, 119598, Note_on_c, 0, 64, 81
2, 119601, Note_on_c, 0, 79, 0
2, 119665, Note_on_c, 0, 57, 0
2, 119674, Note_on_c, 0, 64, 0
2, 119681, Note_on_c, 0, 76, 0
2, 119685, Note_on_c, 0, 78, 0
2, 119689, Note_on_c, 0, 78, 62
2, 119731, Note_on_c, 0, 69, 0
2, 119731, Note_on_c, 0, 78, 0
2, 119749, Note_on_c, 0, 76, 84
2, 119751, Note_on_c, 0, 59, 78
2, 119946, Note_on_c, 0, 69, 74
2, 119949, Note_on_c, 0, 64, 70
2, 119961, Note_on_c, 0, 59, 0
2, 120012, Note_on_c, 0, 69, 0
2, 120084, Note_on_c, 0, 64, 0
2, 120103, Note_on_c, 0, 60, 80
2, 120228, Note_on_c, 0, 60, 0
2, 120231, Note_on_c, 0, 76, 0
2, 120286, Note_on_c, 0, 73, 86
2, 120294, Note_on_c, 0, 69, 71
2, 120295, Note_on_c, 0, 64, 69
2, 120334, Note_on_c, 0, 64, 0
2, 120380, Note_on_c, 0, 73, 0
2, 120389, Note_on_c, 0, 74, 82
2, 120452, Note_on_c, 0, 74, 0
2, 120457, Note_on_c, 0, 61, 83
2, 120458, Note_on_c, 0, 76, 90
2, 120476, Note_on_c, 0, 69, 0
2, 120502, Note_on_c, 0, 76, 0
2, 120612, Note_on_c, 0, 61, 0
2, 120634, Note_on_c, 0, 76, 84
2, 120641, Note_on_c, 0, 64, 74
2, 120645, Note_on_c, 0, 69, 69
2, 120678, Note_on_c, 0, 64, 0
2, 120714, Note_on_c, 0, 76, 0
2, 120718, Note_on_c, 0, 76, 89
2, 120744, Note_on_c, 0, 69, 0
2, 120755, Note_on_c, 0, 76, 0
2, 120794, Note_on_c, 0, 57, 80
2, 120811, Note_on_c, 0, 76, 83
2, 120842, Note_on_c, 0, 76, 0
2, 120939, Note_on_c, 0, 57, 0
2, 120987, Note_on_c, 0, 73, 92
2, 120988, Note_on_c, 0, 64, 76
2, 120991, Note_on_c, 0, 69, 68
2, 121050, Note_on_c, 0, 64, 0
2, 121059, Note_on_c, 0, 73, 0
2, 121064, Note_on_c, 0, 74, 85
2, 121098, Note_on_c, 0, 69, 0
2, 121148, Note_on_c, 0, 59, 84
2, 121149, Note_on_c, 0, 76, 89
2, 121153, Note_on_c, 0, 74, 0
2, 121185, Note_on_c, 0, 76, 0
2, 121332, Note_on_c, 0, 76, 88
2, 121349, Note_on_c, 0, 59, 0
2, 121353, Note_on_c, 0, 69, 68
2, 121354, Note_on_c, 0, 64, 68
2, 121413, Note_on_c, 0, 76, 0
2, 121418, Note_on_c, 0, 76, 85
2, 121436, Note_on_c, 0, 64, 0
2, 121474, Note_on_c, 0, 69, 0
2, 121489, Note_on_c, 0, 76, 0
2, 121499, Note_on_c, 0, 76, 92
2, 121500, Note_on_c, 0, 60, 81
2, 121532, Note_on_c, 0, 76, 0
2, 121623, Note_on_c, 0, 60, 0
2, 121684, Note_on_c, 0, 64, 77
2, 121685, Note_on_c, 0, 73, 91
2, 121692, Note_on_c, 0, 69, 67
2, 121730, Note_on_c, 0, 64, 0
2, 121747, Note_on_c, 0, 73, 0
2, 121772, Note_on_c, 0, 74, 84
2, 121844, Note_on_c, 0, 74, 0
2, 121845, Note_on_c, 0, 76, 90
2, 121846, Note_on_c, 0, 61, 87
2, 121877, Note_on_c, 0, 76, 0
2, 122004, Note_on_c, 0, 61, 0
2, 122012, Note_on_c, 0, 76, 84
2, 122019, Note_on_c, 0, 69, 0
2, 122029, Note_on_c, 0, 64, 67
2, 122030, Note_on_c, 0, 69, 68
2, 122057, Note_on_c, 0, 64, 0
2, 122081, Note_on_c, 0, 76, 0
2, 122087, Note_on_c, 0, 76, 82
2, 122154, Note_on_c, 0, 76, 0
2, 122178, Note_on_c, 0, 57, 80
2, 122180, Note_on_c, 0, 78, 91
2, 122270, Note_on_c, 0, 78, 0
2, 122270, Note_on_c, 0, 76, 67
2, 122334, Note_on_c, 0, 69, 0
2, 122334, Note_on_c, 0, 76, 0
2, 122340, Note_on_c, 0, 69, 70
2, 122341, Note_on_c, 0, 76, 77
2, 122342, Note_on_c, 0, 64, 70
2, 122388, Control_c, 0, 64, 127
2, 122455, Note_on_c, 0, 78, 93
2, 122467, Control_c, 0, 64, 0
2, 122477, Note_on_c, 0, 64, 0
2, 122478, Note_on_c, 0, 76, 0
2, 122481, Note_on_c, 0, 69, 0
2, 122482, Note_on_c, 0, 57, 0
2, 122537, Note_on_c, 0, 78, 0
2, 122537, Note_on_c, 0, 74, 92
2, 122538, Note_on_c, 0, 62, 85
2, 122626, Note_on_c, 0, 74, 0
2, 122707, Note_on_c, 0, 69, 85
2, 122713, Note_on_c, 0, 66, 77
2, 122764, Note_on_c, 0, 62, 0
2, 122768, Note_on_c, 0, 66, 0
2, 122883, Note_on_c, 0, 57, 79
2, 122884, Note_on_c, 0, 78, 97
2, 122941, Control_c, 0, 64, 127
2, 123058, Note_on_c, 0, 74, 86
2, 123077, Note_on_c, 0, 66, 77
2, 123151, Note_on_c, 0, 76, 82
2, 123161, Note_on_c, 0, 57, 0
2, 123162, Note_on_c, 0, 74, 0
2, 123166, Note_on_c, 0, 66, 0
2, 123167, Note_on_c, 0, 78, 0
2, 123176, Control_c, 0, 64, 0
2, 123187, Note_on_c, 0, 69, 0
2, 123226, Note_on_c, 0, 62, 86
2, 123228, Note_on_c, 0, 78, 95
2, 123245, Note_on_c, 0, 76, 0
2, 123279, Note_on_c, 0, 78, 0
2, 123357, Note_on_c, 0, 62, 0
2, 123409, Note_on_c, 0, 78, 90
2, 123411, Note_on_c, 0, 69, 74
2, 123413, Note_on_c, 0, 66, 75
2, 123486, Note_on_c, 0, 78, 0
2, 123493, Note_on_c, 0, 78, 84
2, 123509, Note_on_c, 0, 66, 0
2, 123515, Note_on_c, 0, 69, 0
2, 123571, Note_on_c, 0, 78, 0
2, 123572, Note_on_c, 0, 61, 77
2, 123575, Note_on_c, 0, 78, 96
2, 123624, Note_on_c, 0, 78, 0
2, 123722, Note_on_c, 0, 61, 0
2, 123761, Note_on_c, 0, 69, 72
2, 123762, Note_on_c, 0, 74, 85
2, 123762, Note_on_c, 0, 66, 72
2, 123800, Note_on_c, 0, 66, 0
2, 123850, Note_on_c, 0, 76, 88
2, 123909, Note_on_c, 0, 74, 0
2, 123916, Note_on_c, 0, 76, 0
2, 123917, Note_on_c, 0, 78, 96
2, 123919, Note_on_c, 0, 59, 84
2, 123921, Note_on_c, 0, 69, 0
2, 123978, Note_on_c, 0, 78, 0
2, 124090, Note_on_c, 0, 59, 0
2, 124107, Note_on_c, 0, 78, 93
2, 124121, Note_on_c, 0, 69, 71
2, 124128, Note_on_c, 0, 66, 72
2, 124185, Note_on_c, 0, 78, 0
2, 124194, Note_on_c, 0, 78, 90
2, 124214, Note_on_c, 0, 66, 0
2, 124254, Note_on_c, 0, 78, 0
2, 124265, Note_on_c, 0, 78, 99
2, 124283, Note_on_c, 0, 57, 83
2, 124354, Control_c, 0, 64, 127
2, 124459, Note_on_c, 0, 74, 88
2, 124464, Control_c, 0, 64, 0
2, 124469, Note_on_c, 0, 69, 0
2, 124477, Note_on_c, 0, 69, 67
2, 124480, Note_on_c, 0, 66, 73
2, 124515, Note_on_c, 0, 78, 0
2, 124518, Note_on_c, 0, 66, 0
2, 124545, Note_on_c, 0, 74, 0
2, 124550, Note_on_c, 0, 76, 83
2, 124612, Note_on_c, 0, 78, 90
2, 124618, Note_on_c, 0, 62, 85
2, 124619, Note_on_c, 0, 76, 0
2, 124638, Note_on_c, 0, 57, 0
2, 124669, Note_on_c, 0, 69, 0
2, 124677, Note_on_c, 0, 78, 0
2, 124788, Note_on_c, 0, 78, 93
2, 124793, Note_on_c, 0, 62, 0
2, 124816, Note_on_c, 0, 66, 72
2, 124817, Note_on_c, 0, 69, 67
2, 124859, Note_on_c, 0, 66, 0
2, 124869, Note_on_c, 0, 78, 0
2, 124874, Note_on_c, 0, 78, 84
2, 124942, Note_on_c, 0, 78, 0
2, 124961, Note_on_c, 0, 69, 0
2, 124969, Note_on_c, 0, 79, 93
2, 124972, Note_on_c, 0, 57, 79
2, 125045, Control_c, 0, 64, 127
2, 125058, Note_on_c, 0, 78, 82
2, 125142, Note_on_c, 0, 76, 87
2, 125142, Note_on_c, 0, 69, 78
2, 125142, Note_on_c, 0, 64, 77
2, 125222, Note_on_c, 0, 78, 0
2, 125227, Control_c, 0, 64, 0
2, 125228, Note_on_c, 0, 57, 0
2, 125228, Note_on_c, 0, 64, 0
2, 125230, Note_on_c, 0, 78, 89
2, 125230, Note_on_c, 0, 69, 0
2, 125232, Note_on_c, 0, 76, 0
2, 125233, Note_on_c, 0, 79, 0
2, 125302, Note_on_c, 0, 59, 82
2, 125306, Note_on_c, 0, 76, 87
2, 125310, Note_on_c, 0, 78, 0
2, 125492, Note_on_c, 0, 69, 75
2, 125494, Note_on_c, 0, 64, 70
2, 125539, Note_on_c, 0, 59, 0
2, 125653, Note_on_c, 0, 60, 78
2, 125690, Control_c, 0, 64, 127
2, 125821, Note_on_c, 0, 69, 0
2, 125825, Note_on_c, 0, 73, 91
2, 125831, Note_on_c, 0, 69, 70
2, 125835, Note_on_c, 0, 60, 0
2, 125905, Control_c, 0, 64, 0
2, 125913, Note_on_c, 0, 64, 0
2, 125937, Note_on_c, 0, 73, 0
2, 125938, Note_on_c, 0, 74, 85
2, 125952, Note_on_c, 0, 76, 0
2, 125998, Note_on_c, 0, 69, 0
2, 126001, Note_on_c, 0, 64, 90
2, 126003, Note_on_c, 0, 61, 81
2, 126003, Note_on_c, 0, 74, 0
2, 126003, Note_on_c, 0, 69, 83
2, 126009, Note_on_c, 0, 76, 86
2, 126197, Note_on_c, 0, 83, 92
2, 126255, Note_on_c, 0, 76, 0
2, 126261, Note_on_c, 0, 61, 0
2, 126266, Note_on_c, 0, 64, 0
2, 126274, Note_on_c, 0, 69, 0
2, 126285, Note_on_c, 0, 81, 89
2, 126318, Note_on_c, 0, 83, 0
2, 126356, Note_on_c, 0, 79, 88
2, 126378, Note_on_c, 0, 81, 0
2, 126456, Note_on_c, 0, 78, 87
2, 126485, Note_on_c, 0, 79, 0
2, 126536, Note_on_c, 0, 78, 0
2, 126551, Note_on_c, 0, 76, 73
2, 126608, Note_on_c, 0, 76, 0
2, 126618, Note_on_c, 0, 78, 83
2, 126703, Note_on_c, 0, 78, 0
2, 126704, Note_on_c, 0, 76, 90
2, 126710, Note_on_c, 0, 67, 84
2, 126717, Note_on_c, 0, 64, 81
2, 126723, Note_on_c, 0, 57, 72
2, 126723, Note_on_c, 0, 61, 73
2, 126830, Note_on_c, 0, 76, 0
2, 126852, Note_on_c, 0, 67, 0
2, 126853, Note_on_c, 0, 57, 0
2, 126865, Note_on_c, 0, 61, 0
2, 126873, Note_on_c, 0, 64, 0
2, 126907, Note_on_c, 0, 81, 95
2, 126997, Note_on_c, 0, 79, 93
2, 127007, Note_on_c, 0, 81, 0
2, 127087, Note_on_c, 0, 78, 86
2, 127128, Note_on_c, 0, 79, 0
2, 127178, Note_on_c, 0, 76, 78
2, 127206, Note_on_c, 0, 78, 0
2, 127253, Note_on_c, 0, 76, 0
2, 127269, Note_on_c, 0, 74, 78
2, 127311, Note_on_c, 0, 74, 0
2, 127341, Note_on_c, 0, 76, 74
2, 127396, Note_on_c, 0, 76, 0
2, 127422, Note_on_c, 0, 74, 84
2, 127430, Note_on_c, 0, 62, 79
2, 127432, Note_on_c, 0, 59, 69
2, 127437, Note_on_c, 0, 66, 83
2, 127462, Note_on_c, 0, 74, 0
2, 127572, Note_on_c, 0, 66, 0
2, 127573, Note_on_c, 0, 59, 0
2, 127580, Note_on_c, 0, 62, 0
2, 127621, Note_on_c, 0, 78, 98
2, 127711, Note_on_c, 0, 76, 79
2, 127752, Note_on_c, 0, 78, 0
2, 127784, Note_on_c, 0, 74, 84
2, 127834, Note_on_c, 0, 76, 0
2, 127843, Note_on_c, 0, 74, 0
2, 127873, Note_on_c, 0, 73, 81
2, 127934, Note_on_c, 0, 73, 0
2, 127954, Note_on_c, 0, 71, 85
2, 128016, Note_on_c, 0, 71, 0
2, 128033, Note_on_c, 0, 73, 84
2, 128128, Note_on_c, 0, 71, 91
2, 128136, Note_on_c, 0, 73, 0
2, 128146, Note_on_c, 0, 59, 80
2, 128150, Note_on_c, 0, 62, 79
2, 128151, Note_on_c, 0, 52, 72
2, 128151, Note_on_c, 0, 64, 72
2, 128153, Note_on_c, 0, 56, 71
2, 128156, Note_on_c, 0, 64, 0
2, 128275, Note_on_c, 0, 71, 0
2, 128275, Note_on_c, 0, 62, 0
2, 128288, Note_on_c, 0, 52, 0
2, 128299, Note_on_c, 0, 59, 0
2, 128307, Note_on_c, 0, 56, 0
2, 128333, Note_on_c, 0, 76, 91
2, 128417, Note_on_c, 0, 74, 85
2, 128453, Note_on_c, 0, 76, 0
2, 128499, Note_on_c, 0, 73, 83
2, 128555, Control_c, 0, 64, 127
2, 128581, Note_on_c, 0, 71, 79
2, 128660, Note_on_c, 0, 69, 79
2, 128671, Control_c, 0, 64, 0
2, 128675, Note_on_c, 0, 71, 0
2, 128681, Note_on_c, 0, 73, 0
2, 128686, Note_on_c, 0, 74, 0
2, 128743, Note_on_c, 0, 69, 0
2, 128748, Note_on_c, 0, 68, 80
2, 128813, Note_on_c, 0, 68, 0
2, 128835, Note_on_c, 0, 69, 84
2, 128845, Note_on_c, 0, 57, 75
2, 128847, Note_on_c, 0, 45, 69
2, 128893, Control_c, 0, 64, 127
2, 129038, Note_on_c, 0, 61, 65
2, 129113, Note_on_c, 0, 64, 77
2, 129185, Note_on_c, 0, 69, 0
2, 129196, Note_on_c, 0, 69, 76
2, 129392, Note_on_c, 0, 64, 0
2, 129401, Note_on_c, 0, 64, 78
2, 129469, Note_on_c, 0, 69, 0
2, 129476, Note_on_c, 0, 69, 77
2, 129478, Note_on_c, 0, 61, 0
2, 129483, Control_c, 0, 64, 0
2, 129553, Control_c, 0, 64, 127
2, 129554, Note_on_c, 0, 73, 94
2, 129753, Note_on_c, 0, 69, 0
2, 129759, Note_on_c, 0, 69, 76
2, 129830, Note_on_c, 0, 73, 0
2, 129834, Note_on_c, 0, 73, 80
2, 129835, Control_c, 0, 64, 0
2, 129876, Control_c, 0, 64, 127
2, 129912, Note_on_c, 0, 76, 91
2, 130106, Note_on_c, 0, 73, 0
2, 130115, Note_on_c, 0, 73, 90
2, 130183, Note_on_c, 0, 76, 0
2, 130191, Note_on_c, 0, 76, 85
2, 130274, Note_on_c, 0, 81, 95
2, 130520, Control_c, 0, 64, 0
2, 130534, Note_on_c, 0, 69, 0
2, 130534, Note_on_c, 0, 76, 0
2, 130534, Note_on_c, 0, 73, 0
2, 130537, Note_on_c, 0, 81, 0
2, 130560, Note_on_c, 0, 64, 0
2, 130648, Note_on_c, 0, 81, 81
2, 130707, Note_on_c, 0, 81, 0
2, 130990, Note_on_c, 0, 57, 0
2, 131020, Note_on_c, 0, 81, 82
2, 131061, Note_on_c, 0, 81, 0
2, 131414, Note_on_c, 0, 81, 70
2, 131427, Note_on_c, 0, 45, 0
2, 131472, Note_on_c, 0, 81, 0
2, 131830, Note_on_c, 0, 81, 70
2, 131834, Control_c, 0, 64, 127
2, 131853, Note_on_c, 0, 62, 51
2, 131854, Note_on_c, 0, 66, 47
2, 132043, Note_on_c, 0, 69, 50
2, 132234, Note_on_c, 0, 62, 0
2, 132234, Note_on_c, 0, 66, 0
2, 132239, Note_on_c, 0, 62, 39
2, 132239, Note_on_c, 0, 66, 45
2, 132410, Note_on_c, 0, 69, 0
2, 132416, Note_on_c, 0, 69, 51
2, 132564, Note_on_c, 0, 66, 0
2, 132574, Note_on_c, 0, 66, 61
2, 132587, Note_on_c, 0, 62, 0
2, 132598, Note_on_c, 0, 62, 55
2, 132779, Note_on_c, 0, 69, 0
2, 132783, Note_on_c, 0, 69, 52
2, 132940, Note_on_c, 0, 66, 0
2, 132948, Note_on_c, 0, 62, 0
2, 132950, Note_on_c, 0, 66, 64
2, 132955, Note_on_c, 0, 62, 59
2, 133118, Note_on_c, 0, 79, 65
2, 133125, Note_on_c, 0, 69, 0
2, 133130, Note_on_c, 0, 69, 61
2, 133192, Note_on_c, 0, 78, 68
2, 133251, Note_on_c, 0, 66, 0
2, 133251, Note_on_c, 0, 81, 0
2, 133251, Note_on_c, 0, 79, 0
2, 133252, Note_on_c, 0, 69, 0
2, 133252, Note_on_c, 0, 62, 0
2, 133252, Control_c, 0, 64, 0
2, 133297, Note_on_c, 0, 57, 56
2, 133306, Note_on_c, 0, 76, 66
2, 133312, Note_on_c, 0, 64, 61
2, 133347, Note_on_c, 0, 78, 0
2, 133363, Control_c, 0, 64, 127
2, 133492, Note_on_c, 0, 73, 63
2, 133492, Note_on_c, 0, 67, 70
2, 133624, Note_on_c, 0, 57, 0
2, 133635, Note_on_c, 0, 57, 57
2, 133826, Note_on_c, 0, 69, 67
2, 133835, Note_on_c, 0, 59, 62
2, 133839, Note_on_c, 0, 67, 0
2, 133845, Note_on_c, 0, 67, 65
2, 134018, Note_on_c, 0, 61, 68
2, 134169, Note_on_c, 0, 59, 0
2, 134174, Note_on_c, 0, 59, 66
2, 134177, Note_on_c, 0, 69, 0
2, 134182, Note_on_c, 0, 69, 67
2, 134192, Note_on_c, 0, 67, 0
2, 134198, Note_on_c, 0, 67, 67
2, 134353, Note_on_c, 0, 61, 0
2, 134364, Note_on_c, 0, 61, 74
2, 134507, Note_on_c, 0, 57, 0
2, 134513, Note_on_c, 0, 57, 70
2, 134522, Note_on_c, 0, 67, 0
2, 134522, Note_on_c, 0, 69, 0
2, 134526, Note_on_c, 0, 69, 65
2, 134528, Note_on_c, 0, 67, 75
2, 134662, Control_c, 0, 64, 0
2, 134662, Note_on_c, 0, 73, 0
2, 134663, Note_on_c, 0, 69, 0
2, 134663, Note_on_c, 0, 59, 0
2, 134663, Note_on_c, 0, 61, 0
2, 134663, Note_on_c, 0, 64, 0
2, 134663, Note_on_c, 0, 67, 0
2, 134664, Note_on_c, 0, 76, 0
2, 134691, Note_on_c, 0, 57, 0
2, 134696, Note_on_c, 0, 57, 64
2, 134703, Note_on_c, 0, 67, 51
2, 134704, Note_on_c, 0, 73, 81
2, 134760, Control_c, 0, 64, 127
2, 134776, Note_on_c, 0, 67, 0
2, 134880, Note_on_c, 0, 76, 77
2, 134880, Note_on_c, 0, 67, 67
2, 134880, Note_on_c, 0, 64, 70
2, 135029, Note_on_c, 0, 57, 0
2, 135035, Note_on_c, 0, 57, 72
2, 135229, Note_on_c, 0, 67, 0
2, 135233, Note_on_c, 0, 83, 87
2, 135237, Note_on_c, 0, 64, 0
2, 135240, Note_on_c, 0, 67, 72
2, 135241, Note_on_c, 0, 64, 68
2, 135383, Note_on_c, 0, 57, 0
2, 135393, Note_on_c, 0, 57, 69
2, 135569, Note_on_c, 0, 81, 90
2, 135582, Note_on_c, 0, 67, 0
2, 135587, Note_on_c, 0, 67, 69
2, 135590, Note_on_c, 0, 64, 0
2, 135597, Note_on_c, 0, 64, 67
2, 135667, Note_on_c, 0, 83, 0
2, 135673, Note_on_c, 0, 83, 77
2, 135728, Note_on_c, 0, 57, 0
2, 135736, Note_on_c, 0, 81, 0
2, 135740, Note_on_c, 0, 57, 75
2, 135740, Note_on_c, 0, 81, 84
2, 135823, Note_on_c, 0, 79, 85
2, 135912, Note_on_c, 0, 67, 0
2, 135916, Note_on_c, 0, 78, 86
2, 135923, Note_on_c, 0, 67, 72
2, 135928, Note_on_c, 0, 64, 0
2, 135932, Note_on_c, 0, 64, 66
2, 135997, Note_on_c, 0, 76, 0
2, 136007, Note_on_c, 0, 76, 76
2, 136041, Control_c, 0, 64, 0
2, 136044, Note_on_c, 0, 64, 0
2, 136045, Note_on_c, 0, 81, 0
2, 136045, Note_on_c, 0, 57, 0
2, 136045, Note_on_c, 0, 83, 0
2, 136045, Note_on_c, 0, 79, 0
2, 136045, Note_on_c, 0, 78, 0
2, 136045, Note_on_c, 0, 67, 0
2, 136046, Note_on_c, 0, 73, 0
2, 136104, Note_on_c, 0, 62, 69
2, 136110, Note_on_c, 0, 79, 92
2, 136135, Note_on_c, 0, 76, 0
2, 136166, Control_c, 0, 64, 127
2, 136284, Note_on_c, 0, 78, 86
2, 136285, Note_on_c, 0, 69, 69
2, 136287, Note_on_c, 0, 66, 74
2, 136435, Note_on_c, 0, 62, 0
2, 136446, Note_on_c, 0, 62, 68
2, 136627, Note_on_c, 0, 66, 0
2, 136627, Note_on_c, 0, 69, 0
2, 136635, Note_on_c, 0, 66, 70
2, 136636, Note_on_c, 0, 69, 68
2, 136790, Note_on_c, 0, 57, 67
2, 136860, Note_on_c, 0, 66, 0
2, 136861, Note_on_c, 0, 78, 0
2, 136862, Control_c, 0, 64, 0
2, 136896, Note_on_c, 0, 62, 0
2, 136896, Control_c, 0, 64, 127
2, 136965, Note_on_c, 0, 69, 0
2, 136969, Note_on_c, 0, 69, 74
2, 136974, Note_on_c, 0, 64, 67
2, 136975, Note_on_c, 0, 67, 70
2, 137126, Note_on_c, 0, 57, 0
2, 137132, Note_on_c, 0, 57, 64
2, 137137, Note_on_c, 0, 71, 83
2, 137264, Note_on_c, 0, 79, 0
2, 137308, Note_on_c, 0, 73, 84
2, 137318, Note_on_c, 0, 64, 0
2, 137318, Note_on_c, 0, 67, 0
2, 137327, Note_on_c, 0, 64, 66
2, 137328, Note_on_c, 0, 67, 62
2, 137436, Note_on_c, 0, 69, 0
2, 137436, Note_on_c, 0, 64, 0
2, 137436, Note_on_c, 0, 71, 0
2, 137436, Control_c, 0, 64, 0
2, 137437, Note_on_c, 0, 67, 0
2, 137437, Note_on_c, 0, 73, 0
2, 137437, Note_on_c, 0, 57, 0
2, 137483, Note_on_c, 0, 74, 86
2, 137490, Note_on_c, 0, 62, 77
2, 137571, Control_c, 0, 64, 127
2, 137661, Note_on_c, 0, 78, 87
2, 137684, Note_on_c, 0, 69, 56
2, 137688, Note_on_c, 0, 66, 65
2, 137825, Note_on_c, 0, 62, 0
2, 137832, Note_on_c, 0, 74, 0
2, 137836, Note_on_c, 0, 62, 68
2, 137836, Note_on_c, 0, 74, 82
2, 138017, Note_on_c, 0, 66, 0
2, 138017, Note_on_c, 0, 69, 0
2, 138019, Note_on_c, 0, 81, 92
2, 138028, Note_on_c, 0, 69, 73
2, 138028, Note_on_c, 0, 66, 70
2, 138178, Note_on_c, 0, 62, 0
2, 138187, Note_on_c, 0, 62, 67
2, 138371, Note_on_c, 0, 79, 91
2, 138378, Note_on_c, 0, 66, 0
2, 138378, Note_on_c, 0, 69, 0
2, 138387, Note_on_c, 0, 69, 75
2, 138388, Note_on_c, 0, 66, 70
2, 138531, Note_on_c, 0, 62, 0
2, 138542, Note_on_c, 0, 62, 69
2, 138708, Note_on_c, 0, 78, 0
2, 138716, Note_on_c, 0, 66, 0
2, 138720, Note_on_c, 0, 78, 90
2, 138722, Note_on_c, 0, 66, 73
2, 138723, Note_on_c, 0, 69, 0
2, 138727, Note_on_c, 0, 69, 70
2, 138857, Note_on_c, 0, 81, 0
2, 138857, Note_on_c, 0, 62, 0
2, 138857, Note_on_c, 0, 74, 0
2, 138857, Note_on_c, 0, 66, 0
2, 138857, Note_on_c, 0, 79, 0
2, 138858, Note_on_c, 0, 78, 0
2, 138858, Control_c, 0, 64, 0
2, 138881, Note_on_c, 0, 76, 81
2, 138883, Note_on_c, 0, 57, 71
2, 138938, Control_c, 0, 64, 127
2, 139057, Note_on_c, 0, 73, 87
2, 139072, Note_on_c, 0, 67, 69
2, 139073, Note_on_c, 0, 64, 68
2, 139207, Note_on_c, 0, 57, 0
2, 139215, Note_on_c, 0, 57, 67
2, 139246, Note_on_c, 0, 69, 0
2, 139399, Note_on_c, 0, 67, 0
2, 139402, Note_on_c, 0, 69, 69
2, 139403, Note_on_c, 0, 59, 71
2, 139403, Note_on_c, 0, 67, 68
2, 139580, Note_on_c, 0, 61, 80
2, 139737, Note_on_c, 0, 59, 0
2, 139741, Note_on_c, 0, 59, 71
2, 139752, Note_on_c, 0, 69, 0
2, 139756, Note_on_c, 0, 69, 71
2, 139760, Note_on_c, 0, 67, 0
2, 139771, Note_on_c, 0, 67, 66
2, 139921, Note_on_c, 0, 61, 0
2, 139926, Note_on_c, 0, 61, 80
2, 140075, Note_on_c, 0, 57, 0
2, 140080, Note_on_c, 0, 57, 80
2, 140098, Note_on_c, 0, 67, 0
2, 140098, Note_on_c, 0, 69, 0
2, 140108, Note_on_c, 0, 67, 79
2, 140109, Note_on_c, 0, 69, 73
2, 140248, Control_c, 0, 64, 0
2, 140249, Note_on_c, 0, 69, 0
2, 140249, Note_on_c, 0, 64, 0
2, 140249, Note_on_c, 0, 59, 0
2, 140249, Note_on_c, 0, 61, 0
2, 140249, Note_on_c, 0, 67, 0
2, 140251, Note_on_c, 0, 76, 0
2, 140275, Note_on_c, 0, 57, 0
2, 140275, Note_on_c, 0, 73, 0
2, 140279, Note_on_c, 0, 57, 67
2, 140280, Note_on_c, 0, 73, 83
2, 140375, Control_c, 0, 64, 127
2, 140448, Note_on_c, 0, 69, 74
2, 140450, Note_on_c, 0, 67, 68
2, 140454, Note_on_c, 0, 64, 67
2, 140613, Note_on_c, 0, 57, 0
2, 140613, Note_on_c, 0, 73, 0
2, 140617, Note_on_c, 0, 57, 75
2, 140622, Note_on_c, 0, 73, 79
2, 140793, Note_on_c, 0, 78, 86
2, 140797, Note_on_c, 0, 64, 0
2, 140797, Note_on_c, 0, 67, 0
2, 140801, Control_c, 0, 64, 0
2, 140805, Note_on_c, 0, 67, 67
2, 140805, Note_on_c, 0, 69, 0
2, 140807, Note_on_c, 0, 64, 65
2, 140851, Control_c, 0, 64, 127
2, 140943, Note_on_c, 0, 57, 0
2, 140949, Note_on_c, 0, 57, 70
2, 141143, Note_on_c, 0, 64, 0
2, 141143, Note_on_c, 0, 67, 0
2, 141143, Note_on_c, 0, 76, 82
2, 141147, Note_on_c, 0, 64, 73
2, 141147, Note_on_c, 0, 67, 74
2, 141312, Note_on_c, 0, 57, 0
2, 141322, Note_on_c, 0, 57, 68
2, 141473, Note_on_c, 0, 73, 0
2, 141477, Note_on_c, 0, 73, 81
2, 141488, Note_on_c, 0, 64, 0
2, 141488, Note_on_c, 0, 67, 0
2, 141499, Note_on_c, 0, 64, 63
2, 141499, Note_on_c, 0, 67, 60
2, 141629, Control_c, 0, 64, 0
2, 141631, Note_on_c, 0, 64, 0
2, 141631, Note_on_c, 0, 73, 0
2, 141632, Note_on_c, 0, 76, 0
2, 141633, Note_on_c, 0, 78, 0
2, 141649, Note_on_c, 0, 67, 0
2, 141661, Note_on_c, 0, 74, 82
2, 141665, Note_on_c, 0, 57, 0
2, 141665, Note_on_c, 0, 62, 77
2, 141772, Control_c, 0, 64, 127
2, 141821, Note_on_c, 0, 67, 73
2, 142005, Note_on_c, 0, 66, 75
2, 142075, Control_c, 0, 64, 0
2, 142095, Control_c, 0, 64, 127
2, 142161, Note_on_c, 0, 66, 0
2, 142170, Note_on_c, 0, 64, 75
2, 142179, Control_c, 0, 64, 0
2, 142302, Control_c, 0, 64, 127
2, 142339, Note_on_c, 0, 66, 83
2, 142387, Control_c, 0, 64, 0
2, 142394, Control_c, 0, 64, 127
2, 142510, Note_on_c, 0, 62, 0
2, 142510, Note_on_c, 0, 67, 0
2, 142520, Note_on_c, 0, 62, 88
2, 142586, Note_on_c, 0, 64, 0
2, 142681, Note_on_c, 0, 57, 83
2, 142851, Note_on_c, 0, 55, 72
2, 142977, Note_on_c, 0, 57, 0
2, 142977, Note_on_c, 0, 66, 0
2, 142977, Note_on_c, 0, 62, 0
2, 142978, Note_on_c, 0, 55, 0
2, 142980, Control_c, 0, 64, 0
2, 142993, Note_on_c, 0, 74, 0
2, 143027, Note_on_c, 0, 78, 92
2, 143027, Note_on_c, 0, 50, 75
2, 143035, Note_on_c, 0, 66, 82
2, 143035, Note_on_c, 0, 69, 79
2, 143035, Note_on_c, 0, 74, 75
2, 143086, Control_c, 0, 64, 127
2, 143170, Note_on_c, 0, 50, 0
2, 143197, Note_on_c, 0, 64, 70
2, 143372, Note_on_c, 0, 62, 80
2, 143560, Note_on_c, 0, 57, 74
2, 143680, Note_on_c, 0, 62, 0
2, 143680, Note_on_c, 0, 69, 0
2, 143680, Note_on_c, 0, 64, 0
2, 143680, Note_on_c, 0, 66, 0
2, 143680, Control_c, 0, 64, 0
2, 143718, Note_on_c, 0, 81, 94
2, 143731, Note_on_c, 0, 78, 0
2, 143740, Note_on_c, 0, 69, 74
2, 143741, Note_on_c, 0, 62, 78
2, 143742, Note_on_c, 0, 78, 78
2, 143746, Control_c, 0, 64, 127
2, 143906, Note_on_c, 0, 64, 71
2, 144076, Note_on_c, 0, 66, 69
2, 144245, Note_on_c, 0, 69, 0
2, 144257, Note_on_c, 0, 69, 77
2, 144389, Note_on_c, 0, 57, 0
2, 144389, Note_on_c, 0, 66, 0
2, 144390, Note_on_c, 0, 62, 0
2, 144390, Note_on_c, 0, 81, 0
2, 144391, Note_on_c, 0, 64, 0
2, 144391, Note_on_c, 0, 78, 0
2, 144392, Control_c, 0, 64, 0
2, 144399, Note_on_c, 0, 74, 0
2, 144407, Note_on_c, 0, 69, 0
2, 144423, Note_on_c, 0, 79, 91
2, 144426, Note_on_c, 0, 71, 86
2, 144426, Note_on_c, 0, 55, 72
2, 144468, Control_c, 0, 64, 127
2, 144597, Note_on_c, 0, 67, 65
2, 144601, Note_on_c, 0, 62, 61
2, 144701, Note_on_c, 0, 81, 85
2, 144752, Note_on_c, 0, 55, 0
2, 144752, Note_on_c, 0, 79, 0
2, 144757, Note_on_c, 0, 79, 91
2, 144760, Note_on_c, 0, 55, 81
2, 144921, Note_on_c, 0, 67, 0
2, 144929, Note_on_c, 0, 62, 0
2, 144932, Note_on_c, 0, 78, 90
2, 144932, Note_on_c, 0, 67, 80
2, 144934, Note_on_c, 0, 62, 67
2, 145093, Note_on_c, 0, 79, 0
2, 145093, Note_on_c, 0, 81, 0
2, 145093, Control_c, 0, 64, 0
2, 145098, Note_on_c, 0, 55, 0
2, 145098, Note_on_c, 0, 67, 0
2, 145100, Note_on_c, 0, 76, 87
2, 145102, Note_on_c, 0, 67, 75
2, 145103, Note_on_c, 0, 55, 69
2, 145159, Control_c, 0, 64, 127
2, 145274, Note_on_c, 0, 62, 0
2, 145281, Note_on_c, 0, 62, 68
2, 145413, Note_on_c, 0, 78, 0
2, 145455, Note_on_c, 0, 66, 89
2, 145459, Note_on_c, 0, 55, 0
2, 145463, Note_on_c, 0, 55, 65
2, 145597, Note_on_c, 0, 62, 0
2, 145603, Note_on_c, 0, 62, 67
2, 145758, Note_on_c, 0, 71, 0
2, 145762, Note_on_c, 0, 67, 0
2, 145762, Note_on_c, 0, 66, 0
2, 145762, Note_on_c, 0, 62, 0
2, 145762, Note_on_c, 0, 55, 0
2, 145763, Note_on_c, 0, 76, 0
2, 145763, Control_c, 0, 64, 0
2, 145790, Note_on_c, 0, 73, 91
2, 145794, Note_on_c, 0, 64, 82
2, 145799, Note_on_c, 0, 69, 78
2, 145799, Note_on_c, 0, 45, 72
2, 145800, Note_on_c, 0, 57, 76
2, 145843, Control_c, 0, 64, 127
2, 145847, Note_on_c, 0, 45, 0
2, 145966, Note_on_c, 0, 62, 84
2, 146145, Note_on_c, 0, 61, 69
2, 146310, Note_on_c, 0, 59, 75
2, 146488, Note_on_c, 0, 57, 0
2, 146493, Note_on_c, 0, 57, 81
2, 146497, Note_on_c, 0, 76, 89
2, 146503, Note_on_c, 0, 64, 0
2, 146508, Note_on_c, 0, 59, 0
2, 146508, Note_on_c, 0, 62, 0
2, 146508, Note_on_c, 0, 61, 0
2, 146510, Control_c, 0, 64, 0
2, 146511, Note_on_c, 0, 69, 0
2, 146511, Note_on_c, 0, 73, 0
2, 146515, Note_on_c, 0, 73, 64
2, 146515, Note_on_c, 0, 69, 68
2, 146611, Control_c, 0, 64, 127
2, 146664, Note_on_c, 0, 61, 81
2, 146821, Note_on_c, 0, 64, 80
2, 146999, Note_on_c, 0, 67, 79
2, 147172, Note_on_c, 0, 57, 0
2, 147172, Note_on_c, 0, 61, 0
2, 147173, Note_on_c, 0, 73, 0
2, 147173, Note_on_c, 0, 64, 0
2, 147173, Note_on_c, 0, 67, 0
2, 147174, Control_c, 0, 64, 0
2, 147174, Note_on_c, 0, 76, 0
2, 147179, Note_on_c, 0, 69, 0
2, 147184, Note_on_c, 0, 78, 96
2, 147188, Note_on_c, 0, 69, 85
2, 147189, Note_on_c, 0, 50, 73
2, 147237, Note_on_c, 0, 50, 0
2, 147240, Control_c, 0, 64, 127
2, 147353, Note_on_c, 0, 62, 69
2, 147359, Note_on_c, 0, 57, 66
2, 147438, Note_on_c, 0, 79, 82
2, 147486, Note_on_c, 0, 78, 0
2, 147496, Note_on_c, 0, 78, 92
2, 147529, Note_on_c, 0, 50, 70
2, 147673, Note_on_c, 0, 76, 80
2, 147701, Note_on_c, 0, 57, 0
2, 147701, Note_on_c, 0, 62, 0
2, 147705, Note_on_c, 0, 62, 69
2, 147709, Note_on_c, 0, 57, 73
2, 147847, Note_on_c, 0, 50, 0
2, 147852, Control_c, 0, 64, 0
2, 147854, Note_on_c, 0, 57, 0
2, 147855, Note_on_c, 0, 62, 0
2, 147855, Note_on_c, 0, 79, 0
2, 147856, Note_on_c, 0, 74, 89
2, 147858, Note_on_c, 0, 50, 78
2, 147866, Note_on_c, 0, 66, 83
2, 147870, Note_on_c, 0, 69, 0
2, 147878, Note_on_c, 0, 78, 0
2, 147924, Control_c, 0, 64, 127
2, 147947, Note_on_c, 0, 76, 0
2, 148032, Note_on_c, 0, 57, 71
2, 148209, Control_c, 0, 64, 0
2, 148210, Note_on_c, 0, 65, 86
2, 148212, Note_on_c, 0, 45, 74
2, 148213, Note_on_c, 0, 57, 0
2, 148216, Note_on_c, 0, 66, 0
2, 148218, Note_on_c, 0, 74, 0
2, 148254, Control_c, 0, 64, 127
2, 148364, Note_on_c, 0, 57, 63
2, 148477, Note_on_c, 0, 50, 0
2, 148507, Control_c, 0, 64, 0
2, 148507, Note_on_c, 0, 45, 0
2, 148507, Note_on_c, 0, 57, 0
2, 148515, Note_on_c, 0, 65, 0
2, 148547, Note_on_c, 0, 78, 99
2, 148550, Note_on_c, 0, 74, 81
2, 148551, Note_on_c, 0, 66, 91
2, 148552, Note_on_c, 0, 50, 78
2, 148577, Control_c, 0, 64, 127
2, 148700, Note_on_c, 0, 50, 0
2, 148724, Note_on_c, 0, 64, 76
2, 148896, Note_on_c, 0, 62, 78
2, 149067, Note_on_c, 0, 57, 76
2, 149241, Note_on_c, 0, 81, 98
2, 149253, Note_on_c, 0, 62, 0
2, 149256, Note_on_c, 0, 62, 73
2, 149259, Note_on_c, 0, 69, 82
2, 149260, Note_on_c, 0, 74, 0
2, 149260, Note_on_c, 0, 78, 0
2, 149264, Note_on_c, 0, 74, 68
2, 149265, Note_on_c, 0, 78, 76
2, 149406, Note_on_c, 0, 64, 0
2, 149411, Note_on_c, 0, 64, 80
2, 149575, Note_on_c, 0, 66, 0
2, 149586, Note_on_c, 0, 66, 76
2, 149744, Note_on_c, 0, 69, 0
2, 149751, Note_on_c, 0, 69, 76
2, 149904, Note_on_c, 0, 57, 0
2, 149904, Note_on_c, 0, 69, 0
2, 149905, Note_on_c, 0, 81, 0
2, 149905, Note_on_c, 0, 74, 0
2, 149905, Note_on_c, 0, 62, 0
2, 149906, Control_c, 0, 64, 0
2, 149907, Note_on_c, 0, 78, 0
2, 149907, Note_on_c, 0, 64, 0
2, 149913, Note_on_c, 0, 66, 0
2, 149939, Note_on_c, 0, 79, 95
2, 149942, Note_on_c, 0, 55, 69
2, 149946, Note_on_c, 0, 71, 82
2, 149982, Control_c, 0, 64, 127
2, 150107, Note_on_c, 0, 67, 79
2, 150109, Note_on_c, 0, 62, 66
2, 150208, Note_on_c, 0, 78, 68
2, 150266, Note_on_c, 0, 55, 0
2, 150278, Note_on_c, 0, 55, 75
2, 150297, Note_on_c, 0, 79, 0
2, 150301, Note_on_c, 0, 79, 92
2, 150458, Note_on_c, 0, 67, 0
2, 150461, Note_on_c, 0, 81, 89
2, 150463, Note_on_c, 0, 67, 76
2, 150466, Note_on_c, 0, 62, 0
2, 150470, Note_on_c, 0, 62, 63
2, 150630, Note_on_c, 0, 71, 0
2, 150630, Note_on_c, 0, 67, 0
2, 150630, Note_on_c, 0, 62, 0
2, 150630, Control_c, 0, 64, 0
2, 150631, Note_on_c, 0, 81, 0
2, 150631, Note_on_c, 0, 78, 0
2, 150639, Note_on_c, 0, 83, 96
2, 150643, Note_on_c, 0, 55, 0
2, 150643, Note_on_c, 0, 79, 0
2, 150648, Note_on_c, 0, 55, 81
2, 150648, Note_on_c, 0, 74, 84
2, 150649, Note_on_c, 0, 79, 85
2, 150704, Control_c, 0, 64, 127
2, 150797, Note_on_c, 0, 67, 78
2, 150817, Note_on_c, 0, 62, 72
2, 150979, Note_on_c, 0, 56, 85
2, 150987, Control_c, 0, 64, 0
2, 150991, Note_on_c, 0, 55, 0
2, 150991, Note_on_c, 0, 62, 0
2, 151011, Control_c, 0, 64, 127
2, 151153, Note_on_c, 0, 62, 71
2, 151153, Note_on_c, 0, 64, 77
2, 151320, Control_c, 0, 64, 0
2, 151321, Note_on_c, 0, 56, 0
2, 151321, Note_on_c, 0, 62, 0
2, 151322, Note_on_c, 0, 64, 0
2, 151323, Note_on_c, 0, 83, 0
2, 151326, Note_on_c, 0, 74, 0
2, 151328, Note_on_c, 0, 81, 97
2, 151329, Note_on_c, 0, 57, 81
2, 151334, Note_on_c, 0, 67, 0
2, 151335, Note_on_c, 0, 74, 75
2, 151380, Control_c, 0, 64, 127
2, 151480, Note_on_c, 0, 79, 0
2, 151492, Note_on_c, 0, 69, 73
2, 151494, Note_on_c, 0, 66, 73
2, 151664, Note_on_c, 0, 57, 0
2, 151669, Note_on_c, 0, 57, 74
2, 151676, Note_on_c, 0, 79, 86
2, 151833, Note_on_c, 0, 66, 0
2, 151841, Note_on_c, 0, 69, 0
2, 151843, Note_on_c, 0, 78, 84
2, 151845, Note_on_c, 0, 66, 76
2, 151849, Note_on_c, 0, 69, 66
2, 152002, Note_on_c, 0, 57, 0
2, 152002, Note_on_c, 0, 79, 0
2, 152013, Note_on_c, 0, 79, 97
2, 152013, Note_on_c, 0, 57, 75
2, 152022, Note_on_c, 0, 69, 0
2, 152023, Note_on_c, 0, 81, 0
2, 152023, Note_on_c, 0, 74, 0
2, 152025, Note_on_c, 0, 78, 0
2, 152031, Control_c, 0, 64, 0
2, 152032, Note_on_c, 0, 73, 71
2, 152040, Note_on_c, 0, 66, 0
2, 152148, Control_c, 0, 64, 127
2, 152189, Note_on_c, 0, 59, 70
2, 152351, Note_on_c, 0, 61, 77
2, 152524, Note_on_c, 0, 57, 0
2, 152531, Note_on_c, 0, 57, 81
2, 152680, Control_c, 0, 64, 0
2, 152685, Note_on_c, 0, 61, 0
2, 152685, Note_on_c, 0, 57, 0
2, 152686, Note_on_c, 0, 59, 0
2, 152709, Note_on_c, 0, 78, 97
2, 152709, Note_on_c, 0, 62, 78
2, 152724, Note_on_c, 0, 79, 0
2, 152762, Control_c, 0, 64, 127
2, 152878, Note_on_c, 0, 69, 66
2, 152880, Note_on_c, 0, 66, 68
2, 152965, Note_on_c, 0, 79, 86
2, 153047, Note_on_c, 0, 78, 0
2, 153054, Note_on_c, 0, 62, 0
2, 153058, Note_on_c, 0, 78, 89
2, 153060, Note_on_c, 0, 62, 78
2, 153239, Note_on_c, 0, 66, 0
2, 153239, Note_on_c, 0, 69, 0
2, 153242, Note_on_c, 0, 69, 74
2, 153244, Note_on_c, 0, 66, 77
2, 153247, Note_on_c, 0, 76, 84
2, 153392, Note_on_c, 0, 62, 0
2, 153402, Note_on_c, 0, 62, 76
2, 153420, Note_on_c, 0, 74, 87
2, 153561, Note_on_c, 0, 66, 0
2, 153567, Note_on_c, 0, 66, 74
2, 153750, Note_on_c, 0, 57, 76
2, 153757, Note_on_c, 0, 65, 78
2, 153914, Note_on_c, 0, 62, 0
2, 153920, Note_on_c, 0, 62, 69
2, 154081, Control_c, 0, 64, 0
2, 154082, Note_on_c, 0, 57, 0
2, 154082, Note_on_c, 0, 69, 0
2, 154084, Note_on_c, 0, 62, 0
2, 154084, Note_on_c, 0, 65, 0
2, 154084, Note_on_c, 0, 79, 0
2, 154084, Note_on_c, 0, 78, 0
2, 154085, Note_on_c, 0, 76, 0
2, 154091, Note_on_c, 0, 66, 0
2, 154091, Note_on_c, 0, 73, 0
2, 154091, Note_on_c, 0, 74, 0
2, 154096, Note_on_c, 0, 74, 86
2, 154101, Note_on_c, 0, 66, 85
2, 154109, Note_on_c, 0, 50, 76
2, 154160, Control_c, 0, 64, 127
2, 154279, Note_on_c, 0, 78, 89
2, 154280, Note_on_c, 0, 62, 70
2, 154283, Note_on_c, 0, 50, 0
2, 154289, Note_on_c, 0, 50, 58
2, 154290, Note_on_c, 0, 69, 72
2, 154437, Note_on_c, 0, 50, 0
2, 154437, Note_on_c, 0, 66, 0
2, 154437, Note_on_c, 0, 74, 0
2, 154441, Note_on_c, 0, 74, 83
2, 154446, Note_on_c, 0, 66, 85
2, 154448, Note_on_c, 0, 50, 80
2, 154613, Note_on_c, 0, 62, 0
2, 154619, Note_on_c, 0, 62, 78
2, 154620, Note_on_c, 0, 57, 81
2, 154621, Note_on_c, 0, 81, 92
2, 154621, Note_on_c, 0, 74, 0
2, 154626, Note_on_c, 0, 74, 77
2, 154790, Note_on_c, 0, 50, 0
2, 154796, Note_on_c, 0, 50, 69
2, 154970, Note_on_c, 0, 79, 97
2, 154974, Note_on_c, 0, 62, 0
2, 154977, Note_on_c, 0, 71, 87
2, 154978, Note_on_c, 0, 62, 71
2, 154982, Note_on_c, 0, 57, 0
2, 154988, Note_on_c, 0, 57, 61
2, 155151, Note_on_c, 0, 50, 0
2, 155159, Note_on_c, 0, 50, 71
2, 155320, Note_on_c, 0, 62, 0
2, 155320, Note_on_c, 0, 69, 0
2, 155320, Note_on_c, 0, 78, 0
2, 155324, Note_on_c, 0, 78, 89
2, 155326, Note_on_c, 0, 62, 71
2, 155328, Note_on_c, 0, 57, 0
2, 155329, Note_on_c, 0, 50, 0
2, 155330, Note_on_c, 0, 69, 79
2, 155333, Note_on_c, 0, 57, 71
2, 155469, Note_on_c, 0, 81, 0
2, 155469, Note_on_c, 0, 57, 0
2, 155470, Note_on_c, 0, 69, 0
2, 155470, Note_on_c, 0, 79, 0
2, 155470, Note_on_c, 0, 71, 0
2, 155470, Note_on_c, 0, 78, 0
2, 155470, Control_c, 0, 64, 0
2, 155473, Note_on_c, 0, 66, 0
2, 155473, Note_on_c, 0, 74, 0
2, 155481, Note_on_c, 0, 62, 0
2, 155500, Note_on_c, 0, 76, 80
2, 155506, Note_on_c, 0, 45, 75
2, 155507, Note_on_c, 0, 67, 70
2, 155535, Control_c, 0, 64, 127
2, 155672, Note_on_c, 0, 73, 88
2, 155678, Note_on_c, 0, 61, 78
2, 155682, Note_on_c, 0, 64, 79
2, 155685, Note_on_c, 0, 52, 71
2, 155689, Note_on_c, 0, 57, 55
2, 155850, Note_on_c, 0, 45, 0
2, 155854, Note_on_c, 0, 45, 76
2, 156019, Note_on_c, 0, 57, 0
2, 156025, Note_on_c, 0, 57, 68
2, 156026, Note_on_c, 0, 52, 0
2, 156029, Note_on_c, 0, 59, 64
2, 156031, Note_on_c, 0, 52, 65
2, 156180, Note_on_c, 0, 45, 0
2, 156180, Note_on_c, 0, 61, 0
2, 156187, Note_on_c, 0, 45, 65
2, 156188, Note_on_c, 0, 61, 81
2, 156357, Note_on_c, 0, 59, 0
2, 156364, Note_on_c, 0, 52, 0
2, 156366, Note_on_c, 0, 59, 74
2, 156372, Note_on_c, 0, 45, 0
2, 156374, Note_on_c, 0, 52, 65
2, 156383, Note_on_c, 0, 45, 58
2, 156533, Note_on_c, 0, 45, 0
2, 156533, Note_on_c, 0, 61, 0
2, 156538, Note_on_c, 0, 61, 81
2, 156542, Note_on_c, 0, 45, 69
2, 156679, Note_on_c, 0, 57, 0
2, 156689, Note_on_c, 0, 57, 77
2, 156710, Note_on_c, 0, 52, 0
2, 156716, Note_on_c, 0, 52, 62
2, 156856, Control_c, 0, 64, 0
2, 156857, Note_on_c, 0, 52, 0
2, 156858, Note_on_c, 0, 57, 0
2, 156858, Note_on_c, 0, 59, 0
2, 156858, Note_on_c, 0, 61, 0
2, 156858, Note_on_c, 0, 67, 0
2, 156859, Note_on_c, 0, 76, 0
2, 156864, Note_on_c, 0, 45, 0
2, 156871, Note_on_c, 0, 64, 0
2, 156871, Note_on_c, 0, 73, 0
2, 156871, Note_on_c, 0, 45, 68
2, 156875, Note_on_c, 0, 73, 88
2, 156881, Note_on_c, 0, 64, 83
2, 156925, Control_c, 0, 64, 127
2, 157044, Note_on_c, 0, 69, 81
2, 157045, Note_on_c, 0, 55, 71
2, 157047, Note_on_c, 0, 61, 82
2, 157051, Note_on_c, 0, 52, 66
2, 157201, Note_on_c, 0, 64, 0
2, 157209, Note_on_c, 0, 45, 0
2, 157209, Note_on_c, 0, 73, 0
2, 157212, Note_on_c, 0, 64, 77
2, 157214, Note_on_c, 0, 73, 83
2, 157214, Note_on_c, 0, 45, 74
2, 157377, Note_on_c, 0, 64, 0
2, 157386, Note_on_c, 0, 52, 0
2, 157386, Note_on_c, 0, 55, 0
2, 157391, Note_on_c, 0, 78, 93
2, 157391, Note_on_c, 0, 55, 69
2, 157392, Note_on_c, 0, 52, 73
2, 157393, Note_on_c, 0, 69, 0
2, 157404, Note_on_c, 0, 69, 78
2, 157409, Note_on_c, 0, 61, 0
2, 157547, Note_on_c, 0, 45, 0
2, 157557, Note_on_c, 0, 45, 78
2, 157737, Note_on_c, 0, 76, 90
2, 157739, Note_on_c, 0, 52, 0
2, 157739, Note_on_c, 0, 55, 0
2, 157743, Note_on_c, 0, 67, 78
2, 157743, Note_on_c, 0, 55, 73
2, 157745, Note_on_c, 0, 52, 68
2, 157754, Control_c, 0, 64, 0
2, 157756, Note_on_c, 0, 78, 0
2, 157839, Control_c, 0, 64, 127
2, 157908, Note_on_c, 0, 45, 0
2, 157913, Note_on_c, 0, 45, 71
2, 158069, Note_on_c, 0, 52, 0
2, 158072, Note_on_c, 0, 64, 75
2, 158074, Note_on_c, 0, 67, 0
2, 158077, Note_on_c, 0, 55, 0
2, 158078, Note_on_c, 0, 61, 53
2, 158081, Note_on_c, 0, 52, 66
2, 158086, Note_on_c, 0, 55, 64
2, 158230, Control_c, 0, 64, 0
2, 158231, Note_on_c, 0, 52, 0
2, 158231, Note_on_c, 0, 55, 0
2, 158232, Note_on_c, 0, 73, 0
2, 158232, Note_on_c, 0, 45, 0
2, 158233, Note_on_c, 0, 76, 0
2, 158238, Note_on_c, 0, 69, 0
2, 158246, Note_on_c, 0, 64, 0
2, 158250, Note_on_c, 0, 50, 75
2, 158254, Note_on_c, 0, 61, 0
2, 158256, Note_on_c, 0, 74, 82
2, 158267, Note_on_c, 0, 66, 78
2, 158315, Control_c, 0, 64, 127
2, 158434, Note_on_c, 0, 78, 94
2, 158435, Note_on_c, 0, 69, 79
2, 158436, Note_on_c, 0, 57, 76
2, 158438, Note_on_c, 0, 62, 71
2, 158538, Note_on_c, 0, 50, 0
2, 158589, Note_on_c, 0, 50, 69
2, 158760, Note_on_c, 0, 74, 0
2, 158763, Note_on_c, 0, 67, 75
2, 158768, Note_on_c, 0, 57, 0
2, 158775, Note_on_c, 0, 57, 63
2, 158776, Note_on_c, 0, 62, 0
2, 158783, Note_on_c, 0, 62, 54
2, 158922, Note_on_c, 0, 66, 0
2, 158931, Note_on_c, 0, 66, 79
2, 158933, Note_on_c, 0, 45, 74
2, 158952, Note_on_c, 0, 78, 0
2, 159108, Note_on_c, 0, 64, 81
2, 159110, Note_on_c, 0, 55, 65
2, 159267, Note_on_c, 0, 62, 0
2, 159272, Note_on_c, 0, 62, 82
2, 159275, Note_on_c, 0, 45, 0
2, 159280, Note_on_c, 0, 66, 0
2, 159282, Note_on_c, 0, 50, 0
2, 159282, Control_c, 0, 64, 0
2, 159282, Note_on_c, 0, 45, 76
2, 159283, Note_on_c, 0, 67, 0
2, 159290, Note_on_c, 0, 57, 0
2, 159298, Control_c, 0, 64, 127
2, 159444, Note_on_c, 0, 61, 79
2, 159444, Note_on_c, 0, 55, 0
2, 159449, Note_on_c, 0, 55, 63
2, 159454, Note_on_c, 0, 52, 62
2, 159587, Note_on_c, 0, 52, 0
2, 159587, Note_on_c, 0, 45, 0
2, 159587, Control_c, 0, 64, 0
2, 159587, Note_on_c, 0, 61, 0
2, 159588, Note_on_c, 0, 55, 0
2, 159598, Note_on_c, 0, 64, 0
2, 159598, Note_on_c, 0, 69, 0
2, 159605, Note_on_c, 0, 62, 0
2, 159618, Note_on_c, 0, 74, 89
2, 159619, Note_on_c, 0, 50, 77
2, 159623, Note_on_c, 0, 66, 82
2, 159667, Control_c, 0, 64, 127
2, 159797, Note_on_c, 0, 78, 94
2, 159799, Note_on_c, 0, 62, 74
2, 159800, Note_on_c, 0, 57, 79
2, 159806, Note_on_c, 0, 69, 77
2, 159951, Note_on_c, 0, 50, 0
2, 159951, Note_on_c, 0, 74, 0
2, 159957, Note_on_c, 0, 74, 85
2, 159959, Note_on_c, 0, 66, 0
2, 159960, Note_on_c, 0, 50, 81
2, 159963, Note_on_c, 0, 66, 87
2, 160135, Note_on_c, 0, 57, 0
2, 160135, Note_on_c, 0, 62, 0
2, 160135, Note_on_c, 0, 74, 0
2, 160143, Note_on_c, 0, 81, 97
2, 160144, Note_on_c, 0, 57, 76
2, 160145, Note_on_c, 0, 62, 78
2, 160147, Note_on_c, 0, 74, 85
2, 160157, Control_c, 0, 64, 0
2, 160167, Note_on_c, 0, 66, 0
2, 160204, Control_c, 0, 64, 127
2, 160312, Note_on_c, 0, 50, 0
2, 160317, Note_on_c, 0, 50, 75
2, 160320, Note_on_c, 0, 69, 0
2, 160499, Note_on_c, 0, 79, 98
2, 160504, Note_on_c, 0, 62, 0
2, 160505, Note_on_c, 0, 71, 87
2, 160511, Note_on_c, 0, 62, 72
2, 160512, Note_on_c, 0, 57, 0
2, 160513, Note_on_c, 0, 45, 69
2, 160515, Note_on_c, 0, 57, 70
2, 160519, Note_on_c, 0, 45, 0
2, 160673, Note_on_c, 0, 50, 0
2, 160681, Note_on_c, 0, 50, 74
2, 160842, Note_on_c, 0, 57, 0
2, 160842, Note_on_c, 0, 62, 0
2, 160842, Note_on_c, 0, 78, 0
2, 160851, Note_on_c, 0, 78, 90
2, 160852, Note_on_c, 0, 57, 77
2, 160853, Note_on_c, 0, 62, 76
2, 160855, Note_on_c, 0, 69, 84
2, 160861, Note_on_c, 0, 50, 0
2, 161004, Control_c, 0, 64, 0
2, 161004, Note_on_c, 0, 69, 0
2, 161004, Note_on_c, 0, 71, 0
2, 161004, Note_on_c, 0, 79, 0
2, 161005, Note_on_c, 0, 81, 0
2, 161005, Note_on_c, 0, 78, 0
2, 161011, Note_on_c, 0, 62, 0
2, 161011, Note_on_c, 0, 74, 0
2, 161018, Note_on_c, 0, 76, 87
2, 161018, Note_on_c, 0, 57, 0
2, 161026, Note_on_c, 0, 67, 73
2, 161035, Note_on_c, 0, 45, 71
2, 161072, Control_c, 0, 64, 127
2, 161198, Note_on_c, 0, 73, 89
2, 161204, Note_on_c, 0, 61, 60
2, 161206, Note_on_c, 0, 64, 79
2, 161207, Note_on_c, 0, 55, 67
2, 161207, Note_on_c, 0, 52, 67
2, 161356, Note_on_c, 0, 45, 0
2, 161365, Note_on_c, 0, 45, 75
2, 161529, Note_on_c, 0, 59, 75
2, 161533, Note_on_c, 0, 52, 0
2, 161538, Note_on_c, 0, 52, 66
2, 161679, Note_on_c, 0, 45, 0
2, 161686, Note_on_c, 0, 45, 68
2, 161694, Note_on_c, 0, 61, 0
2, 161703, Note_on_c, 0, 61, 67
2, 161710, Note_on_c, 0, 55, 0
2, 161720, Note_on_c, 0, 55, 41
2, 161856, Note_on_c, 0, 59, 0
2, 161863, Note_on_c, 0, 52, 0
2, 161863, Note_on_c, 0, 55, 0
2, 161865, Note_on_c, 0, 59, 64
2, 161867, Note_on_c, 0, 52, 58
2, 161868, Note_on_c, 0, 55, 57
2, 162009, Note_on_c, 0, 45, 0
2, 162019, Note_on_c, 0, 45, 71
2, 162032, Note_on_c, 0, 61, 0
2, 162039, Note_on_c, 0, 61, 69
2, 162209, Note_on_c, 0, 52, 0
2, 162209, Note_on_c, 0, 55, 0
2, 162213, Note_on_c, 0, 57, 57
2, 162214, Note_on_c, 0, 55, 64
2, 162220, Note_on_c, 0, 52, 54
2, 162370, Note_on_c, 0, 52, 0
2, 162370, Note_on_c, 0, 45, 0
2, 162371, Note_on_c, 0, 61, 0
2, 162371, Note_on_c, 0, 59, 0
2, 162371, Note_on_c, 0, 67, 0
2, 162372, Control_c, 0, 64, 0
2, 162372, Note_on_c, 0, 55, 0
2, 162372, Note_on_c, 0, 76, 0
2, 162378, Note_on_c, 0, 73, 0
2, 162378, Note_on_c, 0, 45, 66
2, 162386, Note_on_c, 0, 73, 86
2, 162401, Note_on_c, 0, 64, 0
2, 162411, Note_on_c, 0, 64, 63
2, 162447, Control_c, 0, 64, 127
2, 162563, Note_on_c, 0, 61, 77
2, 162565, Note_on_c, 0, 69, 78
2, 162567, Note_on_c, 0, 55, 60
2, 162570, Note_on_c, 0, 52, 55
2, 162716, Note_on_c, 0, 45, 0
2, 162716, Note_on_c, 0, 64, 0
2, 162720, Note_on_c, 0, 64, 64
2, 162723, Note_on_c, 0, 45, 68
2, 162731, Note_on_c, 0, 73, 0
2, 162742, Note_on_c, 0, 73, 83
2, 162898, Note_on_c, 0, 78, 90
2, 162900, Note_on_c, 0, 55, 0
2, 162904, Note_on_c, 0, 55, 65
2, 162908, Note_on_c, 0, 52, 0
2, 162912, Note_on_c, 0, 52, 56
2, 162915, Note_on_c, 0, 69, 0
2, 162924, Note_on_c, 0, 69, 64
2, 162969, Note_on_c, 0, 57, 0
2, 163054, Note_on_c, 0, 45, 0
2, 163064, Note_on_c, 0, 45, 64
2, 163244, Note_on_c, 0, 76, 81
2, 163251, Note_on_c, 0, 67, 76
2, 163253, Note_on_c, 0, 52, 0
2, 163260, Note_on_c, 0, 52, 59
2, 163261, Note_on_c, 0, 55, 0
2, 163265, Note_on_c, 0, 55, 61
2, 163279, Note_on_c, 0, 61, 0
2, 163280, Note_on_c, 0, 78, 0
2, 163422, Note_on_c, 0, 45, 0
2, 163433, Note_on_c, 0, 45, 69
2, 163584, Note_on_c, 0, 52, 0
2, 163584, Note_on_c, 0, 55, 0
2, 163584, Note_on_c, 0, 64, 0
2, 163584, Note_on_c, 0, 73, 0
2, 163585, Note_on_c, 0, 67, 0
2, 163588, Note_on_c, 0, 73, 72
2, 163590, Note_on_c, 0, 64, 64
2, 163593, Note_on_c, 0, 55, 59
2, 163593, Note_on_c, 0, 61, 50
2, 163595, Note_on_c, 0, 52, 56
2, 163768, Note_on_c, 0, 45, 0
2, 163768, Note_on_c, 0, 73, 0
2, 163771, Control_c, 0, 64, 0
2, 163771, Note_on_c, 0, 61, 0
2, 163772, Note_on_c, 0, 55, 0
2, 163772, Note_on_c, 0, 64, 0
2, 163772, Note_on_c, 0, 76, 0
2, 163774, Note_on_c, 0, 45, 58
2, 163776, Note_on_c, 0, 69, 0
2, 163778, Note_on_c, 0, 73, 68
2, 163780, Note_on_c, 0, 57, 60
2, 163791, Note_on_c, 0, 52, 0
2, 163829, Control_c, 0, 64, 127
2, 163941, Note_on_c, 0, 69, 63
2, 163942, Note_on_c, 0, 64, 57
2, 163944, Note_on_c, 0, 67, 59
2, 164098, Note_on_c, 0, 57, 0
2, 164106, Note_on_c, 0, 73, 0
2, 164108, Note_on_c, 0, 57, 54
2, 164111, Note_on_c, 0, 73, 71
2, 164290, Note_on_c, 0, 64, 0
2, 164290, Note_on_c, 0, 67, 0
2, 164294, Note_on_c, 0, 78, 79
2, 164301, Note_on_c, 0, 64, 48
2, 164301, Note_on_c, 0, 67, 60
2, 164451, Note_on_c, 0, 57, 0
2, 164462, Note_on_c, 0, 57, 57
2, 164636, Note_on_c, 0, 64, 0
2, 164636, Note_on_c, 0, 67, 0
2, 164640, Note_on_c, 0, 64, 60
2, 164645, Note_on_c, 0, 67, 56
2, 164645, Note_on_c, 0, 76, 62
2, 164805, Note_on_c, 0, 57, 0
2, 164814, Note_on_c, 0, 57, 62
2, 164966, Note_on_c, 0, 64, 0
2, 164966, Note_on_c, 0, 73, 0
2, 164973, Note_on_c, 0, 64, 56
2, 164974, Note_on_c, 0, 67, 0
2, 164977, Note_on_c, 0, 73, 63
2, 164985, Note_on_c, 0, 67, 57
2, 165166, Note_on_c, 0, 73, 0
2, 165170, Note_on_c, 0, 73, 63
2, 165327, Note_on_c, 0, 67, 0
2, 165327, Note_on_c, 0, 69, 0
2, 165337, Note_on_c, 0, 69, 49
2, 165337, Note_on_c, 0, 67, 35
2, 165445, Control_c, 0, 64, 0
2, 165504, Note_on_c, 0, 73, 0
2, 165510, Note_on_c, 0, 73, 62
2, 165572, Note_on_c, 0, 64, 0
2, 165576, Note_on_c, 0, 67, 0
2, 165577, Note_on_c, 0, 57, 0
2, 165696, Note_on_c, 0, 76, 0
2, 165703, Note_on_c, 0, 78, 0
2, 165714, Note_on_c, 0, 78, 72
2, 165734, Note_on_c, 0, 73, 0
2, 166049, Note_on_c, 0, 45, 0
2, 166069, Note_on_c, 0, 76, 58
2, 166142, Note_on_c, 0, 78, 0
2, 166145, Note_on_c, 0, 69, 0
2, 166460, Note_on_c, 0, 73, 48
2, 166491, Note_on_c, 0, 76, 0
2, 166627, Note_on_c, 0, 73, 0
2, 168268, Control_c, 0, 64, 127
2, 168308, Note_on_c, 0, 83, 100
2, 168312, Note_on_c, 0, 68, 82
2, 168314, Note_on_c, 0, 64, 78
2, 168319, Note_on_c, 0, 76, 85
2, 168473, Note_on_c, 0, 71, 74
2, 168637, Note_on_c, 0, 83, 0
2, 168648, Note_on_c, 0, 83, 103
2, 168652, Note_on_c, 0, 64, 0
2, 168652, Note_on_c, 0, 68, 0
2, 168660, Note_on_c, 0, 76, 0
2, 168661, Note_on_c, 0, 68, 79
2, 168661, Note_on_c, 0, 64, 81
2, 168665, Note_on_c, 0, 76, 78
2, 168837, Note_on_c, 0, 71, 0
2, 168843, Note_on_c, 0, 71, 64
2, 168990, Note_on_c, 0, 64, 0
2, 168990, Note_on_c, 0, 83, 0
2, 168996, Note_on_c, 0, 83, 96
2, 168998, Note_on_c, 0, 68, 0
2, 168998, Note_on_c, 0, 76, 0
2, 169002, Note_on_c, 0, 64, 86
2, 169004, Note_on_c, 0, 68, 79
2, 169005, Note_on_c, 0, 76, 86
2, 169152, Note_on_c, 0, 71, 0
2, 169158, Note_on_c, 0, 80, 92
2, 169161, Note_on_c, 0, 71, 84
2, 169328, Note_on_c, 0, 64, 0
2, 169333, Note_on_c, 0, 64, 90
2, 169338, Note_on_c, 0, 88, 94
2, 169692, Note_on_c, 0, 100, 96
2, 169811, Control_c, 0, 64, 0
2, 169816, Note_on_c, 0, 88, 0
2, 169816, Note_on_c, 0, 68, 0
2, 169816, Note_on_c, 0, 80, 0
2, 169816, Note_on_c, 0, 76, 0
2, 169816, Note_on_c, 0, 64, 0
2, 169817, Note_on_c, 0, 83, 0
2, 169835, Note_on_c, 0, 71, 0
2, 170396, Note_on_c, 0, 100, 0
2, 171041, Control_c, 0, 64, 127
2, 171043, Note_on_c, 0, 57, 99
2, 171044, Note_on_c, 0, 45, 92
2, 171206, Note_on_c, 0, 59, 73
2, 171255, Note_on_c, 0, 61, 83
2, 171366, Note_on_c, 0, 50, 97
2, 171368, Note_on_c, 0, 38, 92
2, 171374, Note_on_c, 0, 62, 95
2, 171374, Note_on_c, 0, 74, 99
2, 171487, Note_on_c, 0, 57, 0
2, 171487, Note_on_c, 0, 45, 0
2, 171488, Note_on_c, 0, 74, 0
2, 171488, Note_on_c, 0, 59, 0
2, 171488, Note_on_c, 0, 62, 0
2, 171489, Note_on_c, 0, 38, 0
2, 171489, Note_on_c, 0, 50, 0
2, 171489, Note_on_c, 0, 61, 0
2, 171490, Control_c, 0, 64, 0
2, 171547, Note_on_c, 0, 78, 88
2, 171548, Note_on_c, 0, 54, 82
2, 171548, Note_on_c, 0, 57, 87
2, 171551, Note_on_c, 0, 66, 81
2, 171555, Note_on_c, 0, 66, 0
2, 171575, Note_on_c, 0, 78, 0
2, 171576, Note_on_c, 0, 54, 0
2, 171581, Note_on_c, 0, 57, 0
2, 171719, Note_on_c, 0, 50, 88
2, 171721, Note_on_c, 0, 74, 89
2, 171721, Note_on_c, 0, 62, 86
2, 171749, Note_on_c, 0, 50, 0
2, 171749, Note_on_c, 0, 62, 0
2, 171751, Note_on_c, 0, 74, 0
2, 171891, Note_on_c, 0, 81, 99
2, 171891, Note_on_c, 0, 57, 87
2, 171895, Note_on_c, 0, 69, 88
2, 171896, Note_on_c, 0, 54, 77
2, 171924, Note_on_c, 0, 57, 0
2, 171926, Note_on_c, 0, 54, 0
2, 172059, Note_on_c, 0, 50, 81
2, 172104, Note_on_c, 0, 50, 0
2, 172125, Note_on_c, 0, 81, 0
2, 172147, Note_on_c, 0, 69, 0
2, 172234, Note_on_c, 0, 79, 98
2, 172235, Note_on_c, 0, 67, 89
2, 172235, Note_on_c, 0, 57, 74
2, 172237, Note_on_c, 0, 54, 70
2, 172277, Note_on_c, 0, 57, 0
2, 172277, Note_on_c, 0, 54, 0
2, 172405, Note_on_c, 0, 50, 73
2, 172451, Note_on_c, 0, 67, 0
2, 172454, Note_on_c, 0, 79, 0
2, 172461, Note_on_c, 0, 50, 0
2, 172583, Note_on_c, 0, 57, 80
2, 172585, Note_on_c, 0, 78, 90
2, 172587, Note_on_c, 0, 45, 67
2, 172588, Note_on_c, 0, 54, 72
2, 172589, Note_on_c, 0, 66, 74
2, 172620, Note_on_c, 0, 57, 0
2, 172621, Note_on_c, 0, 66, 0
2, 172624, Note_on_c, 0, 54, 0
2, 172626, Note_on_c, 0, 45, 0
2, 172626, Note_on_c, 0, 78, 0
2, 172745, Note_on_c, 0, 76, 90
2, 172748, Note_on_c, 0, 45, 77
2, 172749, Note_on_c, 0, 64, 86
2, 172780, Note_on_c, 0, 64, 0
2, 172783, Note_on_c, 0, 76, 0
2, 172790, Note_on_c, 0, 45, 0
2, 172926, Note_on_c, 0, 73, 93
2, 172933, Note_on_c, 0, 61, 80
2, 172934, Note_on_c, 0, 55, 74
2, 172936, Note_on_c, 0, 52, 70
2, 172965, Note_on_c, 0, 55, 0
2, 172972, Note_on_c, 0, 52, 0
2, 173091, Control_c, 0, 64, 127
2, 173104, Note_on_c, 0, 45, 77
2, 173268, Note_on_c, 0, 55, 71
2, 173269, Note_on_c, 0, 59, 75
2, 173272, Note_on_c, 0, 52, 65
2, 173437, Note_on_c, 0, 45, 0
2, 173437, Note_on_c, 0, 61, 0
2, 173441, Note_on_c, 0, 45, 71
2, 173442, Note_on_c, 0, 61, 66
2, 173525, Control_c, 0, 64, 0
2, 173531, Note_on_c, 0, 45, 0
2, 173614, Note_on_c, 0, 52, 0
2, 173614, Note_on_c, 0, 55, 0
2, 173614, Note_on_c, 0, 59, 0
2, 173614, Note_on_c, 0, 61, 0
2, 173619, Note_on_c, 0, 59, 75
2, 173619, Note_on_c, 0, 55, 64
2, 173619, Note_on_c, 0, 45, 59
2, 173622, Note_on_c, 0, 52, 60
2, 173662, Note_on_c, 0, 59, 0
2, 173664, Note_on_c, 0, 55, 0
2, 173667, Note_on_c, 0, 52, 0
2, 173698, Control_c, 0, 64, 127
2, 173783, Note_on_c, 0, 45, 0
2, 173792, Note_on_c, 0, 45, 79
2, 173793, Note_on_c, 0, 61, 76
2, 173948, Note_on_c, 0, 57, 81
2, 173952, Note_on_c, 0, 45, 0
2, 173956, Note_on_c, 0, 52, 63
2, 173958, Note_on_c, 0, 45, 65
2, 173961, Note_on_c, 0, 55, 71
2, 174021, Note_on_c, 0, 45, 0
2, 174022, Note_on_c, 0, 55, 0
2, 174023, Note_on_c, 0, 52, 0
2, 174023, Note_on_c, 0, 57, 0
2, 174024, Note_on_c, 0, 61, 0
2, 174027, Control_c, 0, 64, 0
2, 174059, Note_on_c, 0, 73, 0
2, 174130, Note_on_c, 0, 73, 94
2, 174132, Note_on_c, 0, 61, 91
2, 174132, Note_on_c, 0, 45, 73
2, 174159, Note_on_c, 0, 61, 0
2, 174160, Note_on_c, 0, 73, 0
2, 174167, Note_on_c, 0, 45, 0
2, 174301, Note_on_c, 0, 57, 89
2, 174301, Note_on_c, 0, 69, 87
2, 174308, Note_on_c, 0, 52, 74
2, 174309, Note_on_c, 0, 55, 81
2, 174339, Note_on_c, 0, 55, 0
2, 174342, Note_on_c, 0, 52, 0
2, 174359, Note_on_c, 0, 57, 0
2, 174468, Note_on_c, 0, 73, 92
2, 174470, Note_on_c, 0, 61, 86
2, 174471, Note_on_c, 0, 45, 73
2, 174497, Note_on_c, 0, 69, 0
2, 174500, Note_on_c, 0, 73, 0
2, 174501, Note_on_c, 0, 61, 0
2, 174515, Note_on_c, 0, 45, 0
2, 174648, Note_on_c, 0, 78, 93
2, 174655, Note_on_c, 0, 55, 74
2, 174655, Note_on_c, 0, 52, 66
2, 174659, Note_on_c, 0, 66, 83
2, 174689, Note_on_c, 0, 55, 0
2, 174692, Note_on_c, 0, 52, 0
2, 174823, Note_on_c, 0, 45, 76
2, 174877, Note_on_c, 0, 66, 0
2, 174881, Note_on_c, 0, 45, 0
2, 174882, Note_on_c, 0, 78, 0
2, 174984, Note_on_c, 0, 76, 94
2, 174986, Note_on_c, 0, 64, 90
2, 174998, Note_on_c, 0, 55, 71
2, 174999, Note_on_c, 0, 52, 66
2, 175032, Note_on_c, 0, 55, 0
2, 175037, Note_on_c, 0, 52, 0
2, 175127, Control_c, 0, 64, 127
2, 175162, Note_on_c, 0, 45, 84
2, 175323, Note_on_c, 0, 55, 75
2, 175324, Note_on_c, 0, 73, 89
2, 175335, Note_on_c, 0, 61, 80
2, 175468, Control_c, 0, 64, 0
2, 175468, Note_on_c, 0, 55, 0
2, 175469, Note_on_c, 0, 61, 0
2, 175469, Note_on_c, 0, 45, 0
2, 175469, Note_on_c, 0, 64, 0
2, 175469, Note_on_c, 0, 73, 0
2, 175469, Note_on_c, 0, 76, 0
2, 175502, Note_on_c, 0, 74, 94
2, 175507, Note_on_c, 0, 62, 89
2, 175508, Note_on_c, 0, 50, 91
2, 175509, Note_on_c, 0, 66, 85
2, 175510, Note_on_c, 0, 38, 85
2, 175513, Note_on_c, 0, 69, 86
2, 175545, Note_on_c, 0, 50, 0
2, 175547, Note_on_c, 0, 38, 0
2, 175685, Note_on_c, 0, 45, 73
2, 175730, Note_on_c, 0, 45, 0
2, 175857, Note_on_c, 0, 42, 78
2, 175893, Note_on_c, 0, 42, 0
2, 176033, Note_on_c, 0, 45, 79
2, 176075, Note_on_c, 0, 45, 0
2, 176201, Note_on_c, 0, 38, 81
2, 176212, Note_on_c, 0, 62, 0
2, 176215, Note_on_c, 0, 74, 0
2, 176221, Note_on_c, 0, 69, 0
2, 176224, Note_on_c, 0, 66, 0
2, 176232, Note_on_c, 0, 38, 0
2, 176998, Note_on_c, 0, 74, 79
2, 177013, Note_on_c, 0, 38, 63
2, 177013, Note_on_c, 0, 62, 67
2, 177013, Note_on_c, 0, 65, 65
2, 177013, Note_on_c, 0, 70, 76
2, 177019, Note_on_c, 0, 46, 60
2, 177054, Note_on_c, 0, 38, 0
2, 177068, Note_on_c, 0, 46, 0
2, 177182, Note_on_c, 0, 46, 72
2, 177225, Note_on_c, 0, 46, 0
2, 177358, Note_on_c, 0, 41, 67
2, 177396, Note_on_c, 0, 41, 0
2, 177535, Note_on_c, 0, 46, 68
2, 177571, Note_on_c, 0, 46, 0
2, 177757, Note_on_c, 0, 38, 45
2, 177798, Note_on_c, 0, 62, 0
2, 177802, Note_on_c, 0, 65, 0
2, 177804, Note_on_c, 0, 70, 0
2, 177805, Note_on_c, 0, 38, 0
2, 177809, Note_on_c, 0, 74, 0
2, 178571, Note_on_c, 0, 74, 80
2, 178574, Note_on_c, 0, 36, 64
2, 178581, Note_on_c, 0, 67, 70
2, 178585, Note_on_c, 0, 64, 65
2, 178610, Note_on_c, 0, 36, 0
2, 178758, Note_on_c, 0, 43, 66
2, 178804, Note_on_c, 0, 43, 0
2, 178949, Note_on_c, 0, 40, 66
2, 178986, Note_on_c, 0, 40, 0
2, 179140, Note_on_c, 0, 43, 64
2, 179178, Note_on_c, 0, 43, 0
2, 179182, Note_on_c, 0, 67, 0
2, 179189, Note_on_c, 0, 64, 0
2, 179197, Note_on_c, 0, 74, 0
2, 179365, Note_on_c, 0, 36, 57
2, 179370, Note_on_c, 0, 76, 79
2, 179386, Note_on_c, 0, 64, 67
2, 179408, Note_on_c, 0, 36, 0
2, 179410, Note_on_c, 0, 76, 0
2, 179435, Note_on_c, 0, 64, 0
2, 179870, Note_on_c, 0, 79, 76
2, 179874, Note_on_c, 0, 67, 78
2, 179908, Note_on_c, 0, 67, 0
2, 179911, Note_on_c, 0, 79, 0
2, 180463, Note_on_c, 0, 84, 66
2, 180483, Note_on_c, 0, 72, 58
2, 180484, Note_on_c, 0, 64, 43
2, 180486, Note_on_c, 0, 67, 49
2, 180491, Note_on_c, 0, 60, 47
2, 180595, Control_c, 0, 64, 127
2, 182400, Note_on_c, 0, 84, 0
2, 183233, Note_on_c, 0, 60, 0
2, 183239, Note_on_c, 0, 64, 0
2, 183244, Note_on_c, 0, 72, 0
2, 183252, Note_on_c, 0, 67, 0
2, 183259, Note_on_c, 0, 67, 75
2, 183323, Control_c, 0, 64, 0
2, 183338, Note_on_c, 0, 69, 72
2, 183350, Note_on_c, 0, 67, 0
2, 183407, Note_on_c, 0, 69, 0
2, 183422, Note_on_c, 0, 71, 87
2, 183439, Note_on_c, 0, 65, 61
2, 183440, Note_on_c, 0, 67, 71
2, 183575, Control_c, 0, 64, 127
2, 183971, Note_on_c, 0, 69, 77
2, 184051, Note_on_c, 0, 71, 0
2, 184057, Note_on_c, 0, 71, 81
2, 184128, Note_on_c, 0, 67, 0
2, 184131, Note_on_c, 0, 72, 89
2, 184132, Note_on_c, 0, 67, 84
2, 184134, Note_on_c, 0, 64, 75
2, 184142, Note_on_c, 0, 71, 0
2, 184147, Note_on_c, 0, 69, 0
2, 184148, Control_c, 0, 64, 0
2, 184151, Note_on_c, 0, 65, 0
2, 184162, Note_on_c, 0, 72, 0
2, 184164, Note_on_c, 0, 64, 0
2, 184181, Note_on_c, 0, 67, 0
2, 184339, Note_on_c, 0, 67, 75
2, 184396, Control_c, 0, 64, 127
2, 184657, Note_on_c, 0, 67, 0
2, 184668, Note_on_c, 0, 67, 81
2, 184742, Note_on_c, 0, 67, 0
2, 184753, Note_on_c, 0, 67, 72
2, 184834, Note_on_c, 0, 67, 0
2, 184839, Note_on_c, 0, 67, 71
2, 184842, Control_c, 0, 64, 0
2, 184869, Note_on_c, 0, 67, 0
2, 185020, Note_on_c, 0, 67, 79
2, 185057, Note_on_c, 0, 67, 0
2, 185172, Control_c, 0, 64, 127
2, 185178, Note_on_c, 0, 67, 70
2, 185510, Note_on_c, 0, 67, 0
2, 185521, Note_on_c, 0, 67, 77
2, 185521, Note_on_c, 0, 64, 72
2, 185543, Control_c, 0, 64, 0
2, 185554, Note_on_c, 0, 64, 0
2, 185579, Note_on_c, 0, 67, 0
2, 185716, Note_on_c, 0, 67, 75
2, 185756, Control_c, 0, 64, 127
2, 186040, Note_on_c, 0, 67, 0
2, 186049, Note_on_c, 0, 67, 80
2, 186132, Note_on_c, 0, 67, 0
2, 186138, Note_on_c, 0, 67, 75
2, 186175, Control_c, 0, 64, 0
2, 186216, Note_on_c, 0, 67, 0
2, 186221, Note_on_c, 0, 67, 90
2, 186260, Note_on_c, 0, 67, 0
2, 186408, Note_on_c, 0, 67, 76
2, 186438, Note_on_c, 0, 67, 0
2, 186567, Note_on_c, 0, 67, 81
2, 186600, Control_c, 0, 64, 127
2, 186751, Note_on_c, 0, 55, 61
2, 186898, Control_c, 0, 64, 0
2, 186903, Note_on_c, 0, 55, 0
2, 186904, Note_on_c, 0, 67, 0
2, 186919, Note_on_c, 0, 72, 88
2, 186927, Note_on_c, 0, 60, 66
2, 187084, Control_c, 0, 64, 127
2, 187112, Note_on_c, 0, 67, 73
2, 187112, Note_on_c, 0, 64, 71
2, 187430, Note_on_c, 0, 64, 0
2, 187430, Note_on_c, 0, 67, 0
2, 187434, Note_on_c, 0, 67, 77
2, 187438, Note_on_c, 0, 64, 66
2, 187530, Note_on_c, 0, 64, 0
2, 187530, Note_on_c, 0, 67, 0
2, 187536, Note_on_c, 0, 67, 80
2, 187539, Note_on_c, 0, 64, 80
2, 187568, Note_on_c, 0, 60, 0
2, 187579, Note_on_c, 0, 72, 0
2, 187580, Control_c, 0, 64, 0
2, 187591, Note_on_c, 0, 64, 0
2, 187607, Note_on_c, 0, 67, 0
2, 187626, Note_on_c, 0, 76, 85
2, 187793, Note_on_c, 0, 67, 73
2, 187795, Note_on_c, 0, 64, 57
2, 187826, Note_on_c, 0, 67, 0
2, 187826, Note_on_c, 0, 64, 0
2, 187977, Note_on_c, 0, 67, 73
2, 187977, Note_on_c, 0, 64, 65
2, 188136, Control_c, 0, 64, 127
2, 188141, Note_on_c, 0, 55, 74
2, 188324, Note_on_c, 0, 60, 78
2, 188490, Note_on_c, 0, 64, 0
2, 188490, Note_on_c, 0, 67, 0
2, 188494, Note_on_c, 0, 67, 73
2, 188495, Note_on_c, 0, 64, 65
2, 188582, Note_on_c, 0, 64, 0
2, 188582, Note_on_c, 0, 67, 0
2, 188587, Control_c, 0, 64, 0
2, 188588, Note_on_c, 0, 67, 69
2, 188593, Note_on_c, 0, 55, 0
2, 188593, Note_on_c, 0, 64, 69
2, 188624, Note_on_c, 0, 76, 0
2, 188626, Note_on_c, 0, 60, 0
2, 188659, Note_on_c, 0, 64, 0
2, 188672, Note_on_c, 0, 72, 86
2, 188697, Note_on_c, 0, 67, 0
2, 188840, Note_on_c, 0, 67, 81
2, 188842, Note_on_c, 0, 64, 69
2, 188846, Note_on_c, 0, 79, 89
2, 188866, Note_on_c, 0, 72, 0
2, 188889, Note_on_c, 0, 64, 0
2, 188920, Note_on_c, 0, 67, 0
2, 188926, Note_on_c, 0, 67, 84
2, 188930, Note_on_c, 0, 64, 86
2, 188956, Note_on_c, 0, 64, 0
2, 188981, Note_on_c, 0, 67, 0
2, 189015, Note_on_c, 0, 77, 91
2, 189027, Note_on_c, 0, 64, 77
2, 189030, Note_on_c, 0, 67, 74
2, 189062, Note_on_c, 0, 64, 0
2, 189068, Note_on_c, 0, 67, 0
2, 189190, Note_on_c, 0, 67, 83
2, 189191, Note_on_c, 0, 64, 80
2, 189194, Note_on_c, 0, 76, 85
2, 189219, Note_on_c, 0, 77, 0
2, 189242, Note_on_c, 0, 79, 0
2, 189246, Note_on_c, 0, 67, 0
2, 189363, Note_on_c, 0, 76, 0
2, 189365, Note_on_c, 0, 64, 0
2, 189369, Note_on_c, 0, 64, 83
2, 189370, Note_on_c, 0, 67, 76
2, 189371, Note_on_c, 0, 74, 88
2, 189411, Control_c, 0, 64, 127
2, 189540, Note_on_c, 0, 55, 66
2, 189543, Note_on_c, 0, 72, 85
2, 189690, Note_on_c, 0, 55, 0
2, 189691, Note_on_c, 0, 72, 0
2, 189691, Control_c, 0, 64, 0
2, 189696, Note_on_c, 0, 64, 0
2, 189696, Note_on_c, 0, 67, 0
2, 189703, Note_on_c, 0, 74, 0
2, 189727, Note_on_c, 0, 74, 90
2, 189729, Note_on_c, 0, 58, 80
2, 189916, Note_on_c, 0, 65, 73
2, 189917, Note_on_c, 0, 62, 69
2, 189918, Control_c, 0, 64, 127
2, 190256, Note_on_c, 0, 65, 0
2, 190260, Note_on_c, 0, 65, 64
2, 190264, Note_on_c, 0, 62, 0
2, 190272, Note_on_c, 0, 62, 60
2, 190333, Note_on_c, 0, 62, 0
2, 190333, Note_on_c, 0, 65, 0
2, 190344, Note_on_c, 0, 65, 78
2, 190344, Note_on_c, 0, 62, 59
2, 190378, Control_c, 0, 64, 0
2, 190381, Note_on_c, 0, 65, 0
2, 190402, Note_on_c, 0, 74, 0
2, 190461, Note_on_c, 0, 77, 87
2, 190602, Note_on_c, 0, 62, 0
2, 190607, Note_on_c, 0, 65, 74
2, 190613, Note_on_c, 0, 62, 64
2, 190639, Note_on_c, 0, 65, 0
2, 190641, Note_on_c, 0, 62, 0
2, 190671, Note_on_c, 0, 77, 0
2, 190790, Note_on_c, 0, 65, 79
2, 190791, Note_on_c, 0, 62, 69
2, 190955, Note_on_c, 0, 62, 0
2, 190960, Note_on_c, 0, 53, 73
2, 190961, Note_on_c, 0, 62, 57
2, 191000, Note_on_c, 0, 58, 0
2, 191040, Note_on_c, 0, 62, 0
2, 191137, Note_on_c, 0, 70, 88
2, 191143, Note_on_c, 0, 58, 73
2, 191178, Note_on_c, 0, 65, 0
2, 191183, Note_on_c, 0, 53, 0
2, 191278, Control_c, 0, 64, 127
2, 191322, Note_on_c, 0, 65, 74
2, 191325, Note_on_c, 0, 62, 73
2, 191639, Note_on_c, 0, 65, 0
2, 191650, Note_on_c, 0, 65, 67
2, 191654, Note_on_c, 0, 62, 0
2, 191663, Note_on_c, 0, 62, 59
2, 191731, Note_on_c, 0, 65, 0
2, 191736, Note_on_c, 0, 65, 77
2, 191738, Note_on_c, 0, 62, 0
2, 191749, Note_on_c, 0, 62, 79
2, 191780, Control_c, 0, 64, 0
2, 191788, Note_on_c, 0, 62, 0
2, 191791, Note_on_c, 0, 58, 0
2, 191792, Note_on_c, 0, 70, 0
2, 191792, Note_on_c, 0, 65, 0
2, 191841, Note_on_c, 0, 69, 87
2, 191991, Note_on_c, 0, 65, 78
2, 191994, Note_on_c, 0, 62, 68
2, 192028, Note_on_c, 0, 65, 0
2, 192030, Note_on_c, 0, 62, 0
2, 192169, Note_on_c, 0, 65, 70
2, 192199, Control_c, 0, 64, 127
2, 192329, Note_on_c, 0, 58, 80
2, 192503, Note_on_c, 0, 72, 92
2, 192506, Note_on_c, 0, 60, 78
2, 192518, Control_c, 0, 64, 0
2, 192520, Note_on_c, 0, 58, 0
2, 192522, Note_on_c, 0, 69, 0
2, 192526, Note_on_c, 0, 65, 0
2, 192683, Control_c, 0, 64, 127
2, 192683, Note_on_c, 0, 67, 76
2, 192686, Note_on_c, 0, 64, 72
2, 193021, Note_on_c, 0, 64, 0
2, 193021, Note_on_c, 0, 67, 0
2, 193029, Note_on_c, 0, 64, 70
2, 193030, Note_on_c, 0, 67, 73
2, 193113, Note_on_c, 0, 64, 0
2, 193113, Note_on_c, 0, 67, 0
2, 193118, Note_on_c, 0, 64, 74
2, 193124, Note_on_c, 0, 67, 81
2, 193163, Control_c, 0, 64, 0
2, 193171, Note_on_c, 0, 64, 0
2, 193173, Note_on_c, 0, 60, 0
2, 193174, Note_on_c, 0, 72, 0
2, 193174, Note_on_c, 0, 67, 0
2, 193196, Note_on_c, 0, 76, 84
2, 193374, Note_on_c, 0, 67, 75
2, 193378, Note_on_c, 0, 64, 64
2, 193404, Note_on_c, 0, 67, 0
2, 193404, Note_on_c, 0, 64, 0
2, 193537, Note_on_c, 0, 64, 73
2, 193539, Note_on_c, 0, 67, 78
2, 193605, Control_c, 0, 64, 127
2, 193705, Note_on_c, 0, 55, 76
2, 193880, Note_on_c, 0, 60, 85
2, 194050, Note_on_c, 0, 64, 0
2, 194050, Note_on_c, 0, 67, 0
2, 194056, Note_on_c, 0, 67, 79
2, 194057, Note_on_c, 0, 64, 73
2, 194105, Note_on_c, 0, 76, 0
2, 194107, Control_c, 0, 64, 0
2, 194119, Note_on_c, 0, 55, 0
2, 194135, Note_on_c, 0, 64, 0
2, 194135, Note_on_c, 0, 67, 0
2, 194145, Note_on_c, 0, 67, 78
2, 194146, Note_on_c, 0, 64, 79
2, 194204, Note_on_c, 0, 64, 0
2, 194209, Note_on_c, 0, 67, 0
2, 194237, Note_on_c, 0, 72, 86
2, 194398, Note_on_c, 0, 67, 81
2, 194402, Note_on_c, 0, 64, 69
2, 194416, Note_on_c, 0, 79, 93
2, 194431, Note_on_c, 0, 64, 0
2, 194431, Note_on_c, 0, 67, 0
2, 194434, Note_on_c, 0, 60, 0
2, 194442, Note_on_c, 0, 72, 0
2, 194489, Note_on_c, 0, 67, 82
2, 194491, Note_on_c, 0, 64, 80
2, 194524, Note_on_c, 0, 64, 0
2, 194549, Note_on_c, 0, 67, 0
2, 194590, Note_on_c, 0, 67, 87
2, 194590, Note_on_c, 0, 64, 76
2, 194590, Note_on_c, 0, 77, 94
2, 194645, Note_on_c, 0, 64, 0
2, 194646, Note_on_c, 0, 67, 0
2, 194672, Note_on_c, 0, 79, 0
2, 194746, Note_on_c, 0, 67, 87
2, 194753, Note_on_c, 0, 64, 74
2, 194774, Note_on_c, 0, 76, 86
2, 194802, Note_on_c, 0, 64, 0
2, 194805, Note_on_c, 0, 67, 0
2, 194895, Note_on_c, 0, 77, 0
2, 194899, Note_on_c, 0, 76, 0
2, 194930, Note_on_c, 0, 67, 79
2, 194931, Note_on_c, 0, 64, 74
2, 194936, Note_on_c, 0, 74, 87
2, 194995, Control_c, 0, 64, 127
2, 195107, Note_on_c, 0, 55, 72
2, 195108, Note_on_c, 0, 72, 86
2, 195252, Note_on_c, 0, 64, 0
2, 195252, Control_c, 0, 64, 0
2, 195253, Note_on_c, 0, 55, 0
2, 195253, Note_on_c, 0, 72, 0
2, 195279, Note_on_c, 0, 74, 0
2, 195290, Note_on_c, 0, 74, 90
2, 195296, Note_on_c, 0, 58, 79
2, 195325, Note_on_c, 0, 67, 0
2, 195471, Note_on_c, 0, 65, 78
2, 195472, Note_on_c, 0, 62, 72
2, 195479, Control_c, 0, 64, 127
2, 195809, Note_on_c, 0, 65, 0
2, 195816, Note_on_c, 0, 65, 75
2, 195824, Note_on_c, 0, 62, 0
2, 195830, Note_on_c, 0, 62, 61
2, 195893, Note_on_c, 0, 65, 0
2, 195904, Note_on_c, 0, 65, 81
2, 195909, Note_on_c, 0, 62, 0
2, 195914, Note_on_c, 0, 62, 74
2, 195941, Control_c, 0, 64, 0
2, 195952, Note_on_c, 0, 58, 0
2, 195959, Note_on_c, 0, 74, 0
2, 195978, Note_on_c, 0, 65, 0
2, 195985, Note_on_c, 0, 62, 0
2, 195990, Note_on_c, 0, 77, 89
2, 196162, Note_on_c, 0, 65, 80
2, 196162, Note_on_c, 0, 62, 75
2, 196199, Note_on_c, 0, 65, 0
2, 196218, Note_on_c, 0, 62, 0
2, 196335, Note_on_c, 0, 65, 74
2, 196337, Note_on_c, 0, 62, 73
2, 196500, Note_on_c, 0, 62, 0
2, 196503, Note_on_c, 0, 53, 75
2, 196504, Note_on_c, 0, 62, 56
2, 196538, Note_on_c, 0, 62, 0
2, 196561, Note_on_c, 0, 77, 0
2, 196584, Note_on_c, 0, 65, 0
2, 196679, Note_on_c, 0, 70, 85
2, 196680, Note_on_c, 0, 46, 61
2, 196681, Note_on_c, 0, 58, 76
2, 196726, Note_on_c, 0, 53, 0
2, 196730, Note_on_c, 0, 46, 0
2, 196858, Note_on_c, 0, 65, 75
2, 196858, Note_on_c, 0, 62, 77
2, 196899, Control_c, 0, 64, 127
2, 197184, Note_on_c, 0, 65, 0
2, 197191, Note_on_c, 0, 62, 0
2, 197195, Note_on_c, 0, 65, 63
2, 197196, Note_on_c, 0, 62, 57
2, 197276, Note_on_c, 0, 62, 0
2, 197276, Note_on_c, 0, 65, 0
2, 197280, Note_on_c, 0, 65, 75
2, 197280, Note_on_c, 0, 62, 77
2, 197310, Control_c, 0, 64, 0
2, 197315, Note_on_c, 0, 62, 0
2, 197321, Note_on_c, 0, 65, 0
2, 197323, Note_on_c, 0, 70, 0
2, 197325, Note_on_c, 0, 58, 0
2, 197381, Note_on_c, 0, 74, 86
2, 197534, Note_on_c, 0, 62, 75
2, 197535, Note_on_c, 0, 65, 77
2, 197577, Note_on_c, 0, 62, 0
2, 197579, Note_on_c, 0, 65, 0
2, 197690, Control_c, 0, 64, 127
2, 197702, Note_on_c, 0, 65, 75
2, 197703, Note_on_c, 0, 62, 69
2, 197874, Note_on_c, 0, 58, 77
2, 197877, Note_on_c, 0, 72, 84
2, 197952, Note_on_c, 0, 74, 0
2, 197958, Note_on_c, 0, 74, 85
2, 198034, Note_on_c, 0, 62, 0
2, 198036, Note_on_c, 0, 58, 0
2, 198038, Control_c, 0, 64, 0
2, 198039, Note_on_c, 0, 74, 0
2, 198040, Note_on_c, 0, 72, 0
2, 198040, Note_on_c, 0, 65, 0
2, 198053, Note_on_c, 0, 60, 83
2, 198055, Note_on_c, 0, 76, 90
2, 198227, Note_on_c, 0, 74, 86
2, 198227, Note_on_c, 0, 67, 82
2, 198228, Note_on_c, 0, 64, 78
2, 198282, Control_c, 0, 64, 127
2, 198389, Note_on_c, 0, 76, 0
2, 198398, Note_on_c, 0, 76, 80
2, 198574, Note_on_c, 0, 64, 0
2, 198574, Note_on_c, 0, 67, 0
2, 198580, Note_on_c, 0, 67, 83
2, 198581, Note_on_c, 0, 72, 87
2, 198582, Note_on_c, 0, 64, 67
2, 198614, Note_on_c, 0, 74, 0
2, 198615, Note_on_c, 0, 60, 0
2, 198617, Note_on_c, 0, 76, 0
2, 198631, Control_c, 0, 64, 0
2, 198658, Note_on_c, 0, 64, 0
2, 198658, Note_on_c, 0, 67, 0
2, 198669, Note_on_c, 0, 67, 88
2, 198669, Note_on_c, 0, 64, 84
2, 198707, Note_on_c, 0, 67, 0
2, 198707, Note_on_c, 0, 64, 0
2, 198762, Note_on_c, 0, 64, 73
2, 198763, Note_on_c, 0, 67, 72
2, 198809, Note_on_c, 0, 64, 0
2, 198827, Note_on_c, 0, 67, 0
2, 198919, Note_on_c, 0, 67, 82
2, 198922, Note_on_c, 0, 64, 74
2, 198975, Note_on_c, 0, 64, 0
2, 198975, Note_on_c, 0, 67, 0
2, 199073, Control_c, 0, 64, 127
2, 199098, Note_on_c, 0, 67, 84
2, 199099, Note_on_c, 0, 64, 76
2, 199256, Note_on_c, 0, 71, 83
2, 199277, Note_on_c, 0, 60, 76
2, 199342, Note_on_c, 0, 72, 0
2, 199345, Note_on_c, 0, 72, 87
2, 199422, Note_on_c, 0, 64, 0
2, 199422, Note_on_c, 0, 71, 0
2, 199422, Control_c, 0, 64, 0
2, 199424, Note_on_c, 0, 67, 0
2, 199426, Note_on_c, 0, 60, 0
2, 199438, Note_on_c, 0, 74, 89
2, 199448, Note_on_c, 0, 55, 74
2, 199464, Note_on_c, 0, 72, 0
2, 199580, Note_on_c, 0, 74, 0
2, 199616, Note_on_c, 0, 67, 89
2, 199629, Note_on_c, 0, 59, 69
2, 199629, Note_on_c, 0, 62, 72
2, 199680, Control_c, 0, 64, 127
2, 199956, Note_on_c, 0, 59, 0
2, 199956, Note_on_c, 0, 62, 0
2, 199967, Note_on_c, 0, 59, 73
2, 199968, Note_on_c, 0, 62, 75
2, 199972, Note_on_c, 0, 79, 92
2, 200048, Note_on_c, 0, 59, 0
2, 200048, Note_on_c, 0, 62, 0
2, 200058, Note_on_c, 0, 59, 85
2, 200059, Note_on_c, 0, 62, 84
2, 200109, Control_c, 0, 64, 0
2, 200133, Note_on_c, 0, 59, 0
2, 200133, Note_on_c, 0, 62, 0
2, 200138, Note_on_c, 0, 62, 82
2, 200139, Note_on_c, 0, 59, 84
2, 200191, Note_on_c, 0, 59, 0
2, 200192, Note_on_c, 0, 62, 0
2, 200194, Note_on_c, 0, 55, 0
2, 200305, Note_on_c, 0, 59, 75
2, 200305, Note_on_c, 0, 62, 80
2, 200366, Note_on_c, 0, 62, 0
2, 200369, Note_on_c, 0, 59, 0
2, 200471, Control_c, 0, 64, 127
2, 200473, Note_on_c, 0, 62, 81
2, 200475, Note_on_c, 0, 59, 82
2, 200635, Note_on_c, 0, 55, 71
2, 200662, Note_on_c, 0, 77, 93
2, 200752, Note_on_c, 0, 76, 88
2, 200787, Control_c, 0, 64, 0
2, 200787, Note_on_c, 0, 67, 0
2, 200787, Note_on_c, 0, 62, 0
2, 200788, Note_on_c, 0, 79, 0
2, 200788, Note_on_c, 0, 59, 0
2, 200789, Note_on_c, 0, 77, 0
2, 200818, Note_on_c, 0, 76, 0
2, 200824, Note_on_c, 0, 55, 0
2, 200842, Note_on_c, 0, 58, 87
2, 200842, Note_on_c, 0, 77, 94
2, 201034, Note_on_c, 0, 65, 66
2, 201035, Note_on_c, 0, 62, 70
2, 201035, Note_on_c, 0, 76, 79
2, 201093, Control_c, 0, 64, 127
2, 201369, Note_on_c, 0, 65, 0
2, 201374, Note_on_c, 0, 65, 78
2, 201377, Note_on_c, 0, 62, 0
2, 201381, Note_on_c, 0, 72, 80
2, 201385, Note_on_c, 0, 62, 70
2, 201429, Note_on_c, 0, 76, 0
2, 201454, Note_on_c, 0, 65, 0
2, 201456, Control_c, 0, 64, 0
2, 201463, Note_on_c, 0, 65, 80
2, 201469, Note_on_c, 0, 62, 0
2, 201479, Note_on_c, 0, 62, 76
2, 201500, Note_on_c, 0, 77, 0
2, 201504, Note_on_c, 0, 62, 0
2, 201515, Note_on_c, 0, 65, 0
2, 201564, Note_on_c, 0, 65, 76
2, 201579, Note_on_c, 0, 62, 66
2, 201617, Note_on_c, 0, 65, 0
2, 201638, Note_on_c, 0, 62, 0
2, 201722, Note_on_c, 0, 62, 61
2, 201722, Note_on_c, 0, 65, 74
2, 201781, Note_on_c, 0, 62, 0
2, 201822, Note_on_c, 0, 65, 0
2, 201830, Control_c, 0, 64, 127
2, 201891, Note_on_c, 0, 58, 0
2, 201899, Note_on_c, 0, 65, 73
2, 201901, Note_on_c, 0, 58, 61
2, 201904, Note_on_c, 0, 62, 73
2, 202064, Note_on_c, 0, 53, 69
2, 202174, Note_on_c, 0, 72, 0
2, 202175, Note_on_c, 0, 58, 0
2, 202175, Note_on_c, 0, 62, 0
2, 202177, Note_on_c, 0, 53, 0
2, 202178, Note_on_c, 0, 65, 0
2, 202178, Control_c, 0, 64, 0
2, 202233, Note_on_c, 0, 69, 86
2, 202235, Note_on_c, 0, 58, 80
2, 202383, Control_c, 0, 64, 127
2, 202404, Note_on_c, 0, 65, 74
2, 202409, Note_on_c, 0, 62, 66
2, 202490, Note_on_c, 0, 65, 0
2, 202502, Note_on_c, 0, 65, 74
2, 202506, Note_on_c, 0, 62, 0
2, 202510, Note_on_c, 0, 62, 73
2, 202598, Note_on_c, 0, 62, 0
2, 202598, Note_on_c, 0, 65, 0
2, 202603, Note_on_c, 0, 62, 72
2, 202604, Note_on_c, 0, 65, 76
2, 202762, Note_on_c, 0, 53, 72
2, 202921, Note_on_c, 0, 58, 0
2, 202921, Note_on_c, 0, 53, 0
2, 202922, Note_on_c, 0, 62, 0
2, 202923, Note_on_c, 0, 69, 0
2, 202923, Note_on_c, 0, 65, 0
2, 202923, Control_c, 0, 64, 0
2, 202932, Note_on_c, 0, 71, 91
2, 202934, Note_on_c, 0, 55, 79
2, 203028, Control_c, 0, 64, 127
2, 203102, Note_on_c, 0, 67, 80
2, 203108, Note_on_c, 0, 62, 70
2, 203115, Note_on_c, 0, 59, 59
2, 203189, Note_on_c, 0, 62, 0
2, 203189, Note_on_c, 0, 67, 0
2, 203194, Note_on_c, 0, 67, 84
2, 203197, Note_on_c, 0, 59, 0
2, 203201, Note_on_c, 0, 62, 82
2, 203204, Note_on_c, 0, 59, 67
2, 203281, Note_on_c, 0, 67, 0
2, 203292, Note_on_c, 0, 67, 89
2, 203312, Note_on_c, 0, 62, 0
2, 203318, Note_on_c, 0, 62, 53
2, 203351, Note_on_c, 0, 59, 0
2, 203358, Note_on_c, 0, 59, 40
2, 203443, Note_on_c, 0, 55, 0
2, 203454, Note_on_c, 0, 55, 77
2, 203623, Note_on_c, 0, 67, 0
2, 203623, Note_on_c, 0, 62, 0
2, 203623, Control_c, 0, 64, 0
2, 203623, Note_on_c, 0, 59, 0
2, 203623, Note_on_c, 0, 71, 0
2, 203635, Note_on_c, 0, 55, 0
2, 203638, Note_on_c, 0, 72, 96
2, 203644, Note_on_c, 0, 60, 85
2, 203647, Note_on_c, 0, 48, 77
2, 203735, Control_c, 0, 64, 127
2, 203742, Note_on_c, 0, 48, 0
2, 203830, Note_on_c, 0, 67, 82
2, 203831, Note_on_c, 0, 64, 75
2, 204149, Note_on_c, 0, 64, 0
2, 204149, Note_on_c, 0, 67, 0
2, 204154, Note_on_c, 0, 67, 75
2, 204159, Note_on_c, 0, 64, 65
2, 204241, Note_on_c, 0, 64, 0
2, 204241, Note_on_c, 0, 67, 0
2, 204251, Note_on_c, 0, 64, 77
2, 204252, Note_on_c, 0, 67, 74
2, 204320, Note_on_c, 0, 72, 0
2, 204320, Note_on_c, 0, 60, 0
2, 204321, Note_on_c, 0, 64, 0
2, 204325, Control_c, 0, 64, 0
2, 204338, Note_on_c, 0, 76, 90
2, 204372, Note_on_c, 0, 67, 0
2, 204508, Note_on_c, 0, 67, 84
2, 204510, Note_on_c, 0, 64, 81
2, 204546, Note_on_c, 0, 67, 0
2, 204556, Note_on_c, 0, 64, 0
2, 204676, Note_on_c, 0, 67, 87
2, 204681, Note_on_c, 0, 64, 80
2, 204741, Control_c, 0, 64, 127
2, 204838, Note_on_c, 0, 43, 80
2, 204841, Note_on_c, 0, 55, 77
2, 205019, Note_on_c, 0, 48, 85
2, 205019, Note_on_c, 0, 60, 82
2, 205178, Note_on_c, 0, 64, 0
2, 205178, Note_on_c, 0, 67, 0
2, 205189, Note_on_c, 0, 67, 83
2, 205190, Note_on_c, 0, 64, 69
2, 205263, Note_on_c, 0, 64, 0
2, 205263, Note_on_c, 0, 67, 0
2, 205270, Note_on_c, 0, 64, 78
2, 205272, Note_on_c, 0, 67, 86
2, 205359, Note_on_c, 0, 72, 95
2, 205524, Note_on_c, 0, 64, 0
2, 205524, Note_on_c, 0, 67, 0
2, 205532, Note_on_c, 0, 67, 79
2, 205535, Note_on_c, 0, 64, 66
2, 205561, Note_on_c, 0, 79, 90
2, 205596, Note_on_c, 0, 43, 0
2, 205597, Note_on_c, 0, 60, 0
2, 205597, Note_on_c, 0, 48, 0
2, 205597, Control_c, 0, 64, 0
2, 205598, Note_on_c, 0, 55, 0
2, 205599, Note_on_c, 0, 72, 0
2, 205601, Note_on_c, 0, 64, 0
2, 205601, Note_on_c, 0, 67, 0
2, 205606, Note_on_c, 0, 76, 0
2, 205611, Note_on_c, 0, 67, 94
2, 205612, Note_on_c, 0, 64, 89
2, 205647, Note_on_c, 0, 79, 0
2, 205662, Note_on_c, 0, 64, 0
2, 205670, Note_on_c, 0, 67, 0
2, 205711, Note_on_c, 0, 64, 92
2, 205711, Note_on_c, 0, 67, 95
2, 205712, Note_on_c, 0, 77, 93
2, 205751, Note_on_c, 0, 64, 0
2, 205751, Note_on_c, 0, 67, 0
2, 205885, Note_on_c, 0, 67, 83
2, 205885, Note_on_c, 0, 77, 0
2, 205885, Note_on_c, 0, 64, 82
2, 205886, Note_on_c, 0, 76, 84
2, 205944, Note_on_c, 0, 67, 0
2, 206023, Note_on_c, 0, 64, 0
2, 206033, Note_on_c, 0, 76, 0
2, 206034, Note_on_c, 0, 64, 73
2, 206035, Note_on_c, 0, 67, 76
2, 206058, Note_on_c, 0, 74, 87
2, 206063, Note_on_c, 0, 64, 0
2, 206100, Note_on_c, 0, 67, 0
2, 206200, Control_c, 0, 64, 127
2, 206220, Note_on_c, 0, 48, 76
2, 206221, Note_on_c, 0, 60, 81
2, 206226, Note_on_c, 0, 72, 88
2, 206331, Control_c, 0, 64, 0
2, 206334, Note_on_c, 0, 60, 0
2, 206334, Note_on_c, 0, 48, 0
2, 206334, Note_on_c, 0, 72, 0
2, 206346, Note_on_c, 0, 74, 0
2, 206397, Note_on_c, 0, 74, 92
2, 206402, Note_on_c, 0, 46, 80
2, 206433, Note_on_c, 0, 46, 0
2, 206438, Control_c, 0, 64, 127
2, 206461, Note_on_c, 0, 74, 0
2, 206583, Note_on_c, 0, 65, 77
2, 206583, Note_on_c, 0, 62, 81
2, 206922, Note_on_c, 0, 62, 0
2, 206922, Note_on_c, 0, 65, 0
2, 206933, Note_on_c, 0, 62, 67
2, 206933, Note_on_c, 0, 65, 64
2, 207006, Note_on_c, 0, 62, 0
2, 207006, Note_on_c, 0, 65, 0
2, 207014, Note_on_c, 0, 62, 82
2, 207017, Note_on_c, 0, 65, 82
2, 207082, Note_on_c, 0, 62, 0
2, 207084, Note_on_c, 0, 65, 0
2, 207085, Control_c, 0, 64, 0
2, 207086, Note_on_c, 0, 77, 91
2, 207267, Note_on_c, 0, 65, 81
2, 207270, Note_on_c, 0, 62, 80
2, 207305, Note_on_c, 0, 62, 0
2, 207310, Note_on_c, 0, 65, 0
2, 207375, Note_on_c, 0, 77, 0
2, 207406, Control_c, 0, 64, 127
2, 207430, Note_on_c, 0, 65, 79
2, 207432, Note_on_c, 0, 62, 70
2, 207603, Note_on_c, 0, 53, 74
2, 207603, Note_on_c, 0, 41, 78
2, 207747, Note_on_c, 0, 41, 0
2, 207747, Note_on_c, 0, 53, 0
2, 207747, Control_c, 0, 64, 0
2, 207748, Note_on_c, 0, 62, 0
2, 207783, Note_on_c, 0, 70, 89
2, 207786, Note_on_c, 0, 46, 82
2, 207793, Note_on_c, 0, 58, 78
2, 207813, Note_on_c, 0, 65, 0
2, 207816, Note_on_c, 0, 46, 0
2, 207817, Note_on_c, 0, 58, 0
2, 207843, Control_c, 0, 64, 127
2, 207968, Note_on_c, 0, 65, 73
2, 207969, Note_on_c, 0, 62, 75
2, 208304, Note_on_c, 0, 62, 0
2, 208304, Note_on_c, 0, 65, 0
2, 208312, Note_on_c, 0, 65, 74
2, 208315, Note_on_c, 0, 62, 69
2, 208389, Note_on_c, 0, 62, 0
2, 208396, Note_on_c, 0, 65, 0
2, 208400, Note_on_c, 0, 62, 68
2, 208403, Note_on_c, 0, 65, 76
2, 208484, Note_on_c, 0, 69, 88
2, 208518, Note_on_c, 0, 62, 0
2, 208521, Note_on_c, 0, 70, 0
2, 208522, Note_on_c, 0, 65, 0
2, 208522, Control_c, 0, 64, 0
2, 208660, Note_on_c, 0, 65, 73
2, 208664, Note_on_c, 0, 62, 68
2, 208692, Note_on_c, 0, 65, 0
2, 208711, Note_on_c, 0, 62, 0
2, 208788, Control_c, 0, 64, 127
2, 208815, Note_on_c, 0, 62, 64
2, 208815, Note_on_c, 0, 65, 66
2, 208992, Note_on_c, 0, 46, 79
2, 208993, Note_on_c, 0, 58, 77
2, 209121, Note_on_c, 0, 62, 0
2, 209121, Note_on_c, 0, 58, 0
2, 209121, Note_on_c, 0, 69, 0
2, 209122, Note_on_c, 0, 46, 0
2, 209122, Note_on_c, 0, 65, 0
2, 209123, Control_c, 0, 64, 0
2, 209172, Note_on_c, 0, 72, 90
2, 209175, Note_on_c, 0, 60, 77
2, 209175, Note_on_c, 0, 48, 74
2, 209210, Control_c, 0, 64, 127
2, 209256, Note_on_c, 0, 48, 0
2, 209264, Note_on_c, 0, 60, 0
2, 209360, Note_on_c, 0, 64, 74
2, 209361, Note_on_c, 0, 67, 73
2, 209710, Note_on_c, 0, 64, 0
2, 209710, Note_on_c, 0, 67, 0
2, 209715, Note_on_c, 0, 67, 73
2, 209715, Note_on_c, 0, 64, 71
2, 209786, Note_on_c, 0, 64, 0
2, 209786, Note_on_c, 0, 67, 0
2, 209797, Note_on_c, 0, 64, 74
2, 209797, Note_on_c, 0, 67, 83
2, 209884, Note_on_c, 0, 76, 87
2, 209952, Control_c, 0, 64, 0
2, 209957, Note_on_c, 0, 72, 0
2, 209957, Note_on_c, 0, 64, 0
2, 209958, Note_on_c, 0, 67, 0
2, 210052, Note_on_c, 0, 67, 80
2, 210052, Note_on_c, 0, 64, 81
2, 210091, Note_on_c, 0, 67, 0
2, 210117, Note_on_c, 0, 64, 0
2, 210117, Control_c, 0, 64, 127
2, 210221, Note_on_c, 0, 67, 72
2, 210226, Note_on_c, 0, 64, 67
2, 210397, Note_on_c, 0, 55, 76
2, 210402, Note_on_c, 0, 43, 72
2, 210529, Control_c, 0, 64, 0
2, 210530, Note_on_c, 0, 55, 0
2, 210530, Note_on_c, 0, 43, 0
2, 210530, Note_on_c, 0, 67, 0
2, 210531, Note_on_c, 0, 64, 0
2, 210536, Note_on_c, 0, 76, 0
2, 210581, Note_on_c, 0, 60, 71
2, 210590, Note_on_c, 0, 47, 56
2, 210592, Note_on_c, 0, 48, 62
2, 210593, Control_c, 0, 64, 127
2, 210631, Note_on_c, 0, 47, 0
2, 210751, Note_on_c, 0, 67, 72
2, 210751, Note_on_c, 0, 64, 71
2, 210846, Note_on_c, 0, 64, 0
2, 210846, Note_on_c, 0, 67, 0
2, 210850, Note_on_c, 0, 67, 78
2, 210852, Note_on_c, 0, 64, 58
2, 210937, Note_on_c, 0, 72, 85
2, 211092, Note_on_c, 0, 64, 0
2, 211096, Note_on_c, 0, 64, 70
2, 211103, Note_on_c, 0, 79, 90
2, 211161, Note_on_c, 0, 64, 0
2, 211168, Note_on_c, 0, 64, 83
2, 211184, Note_on_c, 0, 67, 0
2, 211188, Note_on_c, 0, 67, 81
2, 211207, Note_on_c, 0, 48, 0
2, 211211, Note_on_c, 0, 60, 0
2, 211212, Note_on_c, 0, 64, 0
2, 211213, Note_on_c, 0, 72, 0
2, 211216, Control_c, 0, 64, 0
2, 211253, Note_on_c, 0, 67, 0
2, 211274, Note_on_c, 0, 77, 91
2, 211295, Note_on_c, 0, 67, 78
2, 211296, Note_on_c, 0, 64, 77
2, 211323, Note_on_c, 0, 67, 0
2, 211324, Note_on_c, 0, 64, 0
2, 211353, Note_on_c, 0, 79, 0
2, 211448, Note_on_c, 0, 77, 0
2, 211459, Note_on_c, 0, 76, 86
2, 211463, Note_on_c, 0, 64, 76
2, 211464, Note_on_c, 0, 67, 83
2, 211496, Note_on_c, 0, 64, 0
2, 211501, Note_on_c, 0, 67, 0
2, 211624, Note_on_c, 0, 67, 81
2, 211624, Note_on_c, 0, 64, 81
2, 211628, Note_on_c, 0, 74, 90
2, 211668, Control_c, 0, 64, 127
2, 211802, Note_on_c, 0, 72, 89
2, 211802, Note_on_c, 0, 60, 82
2, 211803, Note_on_c, 0, 48, 76
2, 211904, Note_on_c, 0, 64, 0
2, 211905, Note_on_c, 0, 74, 0
2, 211906, Note_on_c, 0, 76, 0
2, 211907, Note_on_c, 0, 48, 0
2, 211907, Note_on_c, 0, 60, 0
2, 211907, Control_c, 0, 64, 0
2, 211908, Note_on_c, 0, 72, 0
2, 211914, Note_on_c, 0, 67, 0
2, 211969, Note_on_c, 0, 74, 94
2, 211972, Note_on_c, 0, 58, 83
2, 211974, Note_on_c, 0, 46, 81
2, 212003, Note_on_c, 0, 58, 0
2, 212009, Note_on_c, 0, 46, 0
2, 212044, Control_c, 0, 64, 127
2, 212151, Note_on_c, 0, 62, 80
2, 212151, Note_on_c, 0, 65, 78
2, 212505, Note_on_c, 0, 62, 0
2, 212505, Note_on_c, 0, 65, 0
2, 212509, Note_on_c, 0, 65, 68
2, 212511, Note_on_c, 0, 62, 70
2, 212590, Note_on_c, 0, 65, 0
2, 212600, Note_on_c, 0, 65, 82
2, 212613, Note_on_c, 0, 62, 0
2, 212617, Note_on_c, 0, 62, 75
2, 212650, Note_on_c, 0, 65, 0
2, 212650, Note_on_c, 0, 62, 0
2, 212654, Control_c, 0, 64, 0
2, 212655, Note_on_c, 0, 74, 0
2, 212664, Note_on_c, 0, 77, 92
2, 212828, Control_c, 0, 64, 127
2, 212838, Note_on_c, 0, 65, 77
2, 212846, Note_on_c, 0, 62, 72
2, 213004, Note_on_c, 0, 65, 0
2, 213009, Note_on_c, 0, 65, 75
2, 213012, Note_on_c, 0, 62, 0
2, 213017, Note_on_c, 0, 62, 61
2, 213184, Note_on_c, 0, 53, 72
2, 213189, Note_on_c, 0, 41, 69
2, 213322, Control_c, 0, 64, 0
2, 213323, Note_on_c, 0, 53, 0
2, 213324, Note_on_c, 0, 65, 0
2, 213324, Note_on_c, 0, 62, 0
2, 213325, Note_on_c, 0, 41, 0
2, 213327, Note_on_c, 0, 77, 0
2, 213354, Note_on_c, 0, 70, 89
2, 213362, Note_on_c, 0, 46, 78
2, 213396, Control_c, 0, 64, 127
2, 213427, Note_on_c, 0, 46, 0
2, 213528, Note_on_c, 0, 62, 82
2, 213529, Note_on_c, 0, 65, 76
2, 213888, Note_on_c, 0, 62, 0
2, 213888, Note_on_c, 0, 65, 0
2, 213892, Note_on_c, 0, 65, 66
2, 213894, Note_on_c, 0, 62, 70
2, 213972, Note_on_c, 0, 62, 0
2, 213980, Note_on_c, 0, 65, 0
2, 213982, Note_on_c, 0, 62, 85
2, 213988, Note_on_c, 0, 65, 78
2, 214049, Note_on_c, 0, 74, 88
2, 214092, Control_c, 0, 64, 0
2, 214103, Note_on_c, 0, 70, 0
2, 214104, Note_on_c, 0, 62, 0
2, 214105, Note_on_c, 0, 65, 0
2, 214212, Note_on_c, 0, 65, 75
2, 214213, Note_on_c, 0, 62, 70
2, 214245, Note_on_c, 0, 62, 0
2, 214261, Note_on_c, 0, 65, 0
2, 214383, Note_on_c, 0, 65, 78
2, 214385, Note_on_c, 0, 62, 77
2, 214387, Control_c, 0, 64, 127
2, 214546, Note_on_c, 0, 46, 77
2, 214551, Note_on_c, 0, 58, 68
2, 214608, Note_on_c, 0, 72, 80
2, 214671, Note_on_c, 0, 74, 0
2, 214682, Note_on_c, 0, 74, 84
2, 214701, Control_c, 0, 64, 0
2, 214703, Note_on_c, 0, 62, 0
2, 214703, Note_on_c, 0, 46, 0
2, 214705, Note_on_c, 0, 58, 0
2, 214705, Note_on_c, 0, 72, 0
2, 214706, Note_on_c, 0, 65, 0
2, 214734, Note_on_c, 0, 48, 79
2, 214734, Note_on_c, 0, 60, 87
2, 214759, Note_on_c, 0, 74, 0
2, 214766, Note_on_c, 0, 76, 89
2, 214832, Control_c, 0, 64, 127
2, 214922, Note_on_c, 0, 74, 79
2, 215093, Note_on_c, 0, 76, 0
2, 215099, Note_on_c, 0, 76, 79
2, 215255, Note_on_c, 0, 60, 0
2, 215263, Note_on_c, 0, 72, 89
2, 215264, Note_on_c, 0, 60, 78
2, 215366, Note_on_c, 0, 62, 74
2, 215441, Note_on_c, 0, 64, 77
2, 215592, Note_on_c, 0, 62, 0
2, 215603, Note_on_c, 0, 62, 74
2, 215777, Note_on_c, 0, 64, 0
2, 215785, Note_on_c, 0, 64, 75
2, 215951, Note_on_c, 0, 71, 82
2, 215952, Note_on_c, 0, 55, 73
2, 216015, Note_on_c, 0, 72, 0
2, 216021, Note_on_c, 0, 72, 79
2, 216104, Note_on_c, 0, 71, 0
2, 216105, Note_on_c, 0, 48, 0
2, 216105, Note_on_c, 0, 76, 0
2, 216105, Note_on_c, 0, 64, 0
2, 216105, Note_on_c, 0, 62, 0
2, 216105, Control_c, 0, 64, 0
2, 216106, Note_on_c, 0, 60, 0
2, 216106, Note_on_c, 0, 72, 0
2, 216122, Note_on_c, 0, 55, 0
2, 216122, Note_on_c, 0, 74, 0
2, 216128, Note_on_c, 0, 55, 81
2, 216130, Note_on_c, 0, 74, 86
2, 216134, Note_on_c, 0, 43, 77
2, 216207, Control_c, 0, 64, 127
2, 216309, Note_on_c, 0, 67, 82
2, 216649, Note_on_c, 0, 79, 94
2, 216657, Note_on_c, 0, 59, 80
2, 216764, Note_on_c, 0, 60, 63
2, 216818, Note_on_c, 0, 62, 88
2, 216967, Note_on_c, 0, 55, 0
2, 216978, Note_on_c, 0, 55, 77
2, 217152, Note_on_c, 0, 67, 0
2, 217157, Note_on_c, 0, 67, 85
2, 217341, Note_on_c, 0, 77, 86
2, 217422, Note_on_c, 0, 76, 79
2, 217475, Control_c, 0, 64, 0
2, 217475, Note_on_c, 0, 60, 0
2, 217476, Note_on_c, 0, 62, 0
2, 217476, Note_on_c, 0, 59, 0
2, 217476, Note_on_c, 0, 67, 0
2, 217476, Note_on_c, 0, 79, 0
2, 217477, Note_on_c, 0, 43, 0
2, 217481, Note_on_c, 0, 76, 0
2, 217489, Note_on_c, 0, 55, 0
2, 217489, Note_on_c, 0, 74, 0
2, 217497, Note_on_c, 0, 77, 0
2, 217503, Note_on_c, 0, 77, 94
2, 217508, Note_on_c, 0, 46, 90
2, 217589, Control_c, 0, 64, 127
2, 217724, Note_on_c, 0, 76, 89
2, 218025, Note_on_c, 0, 72, 87
2, 218029, Note_on_c, 0, 65, 79
2, 218125, Note_on_c, 0, 64, 78
2, 218181, Note_on_c, 0, 65, 0
2, 218186, Note_on_c, 0, 65, 77
2, 218380, Note_on_c, 0, 64, 0
2, 218386, Note_on_c, 0, 64, 90
2, 218547, Note_on_c, 0, 60, 86
2, 218911, Note_on_c, 0, 69, 89
2, 219072, Note_on_c, 0, 46, 0
2, 219076, Note_on_c, 0, 46, 60
2, 219256, Note_on_c, 0, 53, 61
2, 219421, Note_on_c, 0, 62, 68
2, 219601, Note_on_c, 0, 62, 0
2, 219605, Note_on_c, 0, 71, 88
2, 219613, Note_on_c, 0, 62, 67
2, 219617, Note_on_c, 0, 65, 0
2, 219622, Note_on_c, 0, 67, 70
2, 219626, Note_on_c, 0, 65, 51
2, 219713, Control_c, 0, 64, 0
2, 219713, Note_on_c, 0, 60, 0
2, 219714, Note_on_c, 0, 46, 0
2, 219714, Note_on_c, 0, 64, 0
2, 219714, Note_on_c, 0, 72, 0
2, 219715, Note_on_c, 0, 69, 0
2, 219715, Note_on_c, 0, 53, 0
2, 219718, Note_on_c, 0, 76, 0
2, 219720, Note_on_c, 0, 77, 0
2, 219776, Note_on_c, 0, 43, 69
2, 219847, Control_c, 0, 64, 127
2, 219954, Note_on_c, 0, 50, 71
2, 220117, Note_on_c, 0, 59, 75
2, 220295, Control_c, 0, 64, 0
2, 220300, Note_on_c, 0, 72, 93
2, 220302, Note_on_c, 0, 59, 0
2, 220303, Note_on_c, 0, 67, 0
2, 220304, Note_on_c, 0, 71, 0
2, 220304, Note_on_c, 0, 50, 0
2, 220305, Note_on_c, 0, 48, 76
2, 220308, Note_on_c, 0, 65, 0
2, 220339, Note_on_c, 0, 43, 0
2, 220339, Note_on_c, 0, 62, 0
2, 220385, Control_c, 0, 64, 127
2, 220483, Note_on_c, 0, 60, 70
2, 220483, Note_on_c, 0, 67, 75
2, 220489, Note_on_c, 0, 64, 68
2, 220838, Note_on_c, 0, 64, 0
2, 220838, Note_on_c, 0, 67, 0
2, 220843, Note_on_c, 0, 67, 69
2, 220847, Note_on_c, 0, 64, 56
2, 220866, Control_c, 0, 64, 0
2, 220915, Note_on_c, 0, 67, 0
2, 220922, Note_on_c, 0, 64, 0
2, 220924, Note_on_c, 0, 67, 75
2, 220933, Note_on_c, 0, 64, 64
2, 220992, Note_on_c, 0, 67, 0
2, 221000, Note_on_c, 0, 67, 85
2, 221007, Note_on_c, 0, 64, 0
2, 221012, Note_on_c, 0, 64, 64
2, 221039, Note_on_c, 0, 67, 0
2, 221052, Note_on_c, 0, 60, 0
2, 221055, Note_on_c, 0, 48, 0
2, 221061, Note_on_c, 0, 64, 0
2, 221174, Note_on_c, 0, 64, 72
2, 221174, Note_on_c, 0, 67, 81
2, 221205, Note_on_c, 0, 64, 0
2, 221211, Note_on_c, 0, 67, 0
2, 221337, Note_on_c, 0, 72, 0
2, 221364, Note_on_c, 0, 64, 76
2, 221365, Note_on_c, 0, 67, 78
2, 221523, Note_on_c, 0, 43, 71
2, 221561, Note_on_c, 0, 43, 0
2, 221707, Note_on_c, 0, 48, 76
2, 221708, Note_on_c, 0, 60, 77
2, 221712, Note_on_c, 0, 64, 0
2, 221713, Note_on_c, 0, 60, 0
2, 221767, Control_c, 0, 64, 127
2, 221875, Note_on_c, 0, 67, 0
2, 221880, Note_on_c, 0, 67, 74
2, 221882, Note_on_c, 0, 64, 68
2, 222228, Note_on_c, 0, 64, 0
2, 222228, Note_on_c, 0, 67, 0
2, 222235, Note_on_c, 0, 67, 78
2, 222239, Note_on_c, 0, 64, 66
2, 222320, Note_on_c, 0, 67, 0
2, 222328, Note_on_c, 0, 64, 0
2, 222329, Note_on_c, 0, 67, 84
2, 222337, Note_on_c, 0, 64, 65
2, 222354, Note_on_c, 0, 60, 45
2, 222355, Control_c, 0, 64, 0
2, 222382, Note_on_c, 0, 48, 0
2, 222405, Note_on_c, 0, 67, 0
2, 222409, Note_on_c, 0, 67, 72
2, 222428, Note_on_c, 0, 64, 0
2, 222433, Note_on_c, 0, 64, 54
2, 222451, Note_on_c, 0, 60, 0
2, 222458, Note_on_c, 0, 67, 0
2, 222474, Note_on_c, 0, 64, 0
2, 222565, Note_on_c, 0, 64, 73
2, 222566, Note_on_c, 0, 67, 67
2, 222598, Note_on_c, 0, 64, 0
2, 222603, Note_on_c, 0, 67, 0
2, 222737, Note_on_c, 0, 67, 78
2, 222739, Note_on_c, 0, 64, 76
2, 222923, Note_on_c, 0, 43, 64
2, 222925, Note_on_c, 0, 55, 62
2, 222954, Note_on_c, 0, 55, 0
2, 222957, Note_on_c, 0, 43, 0
2, 223078, Note_on_c, 0, 64, 0
2, 223110, Note_on_c, 0, 48, 77
2, 223112, Note_on_c, 0, 60, 79
2, 223134, Control_c, 0, 64, 127
2, 223265, Note_on_c, 0, 67, 0
2, 223274, Note_on_c, 0, 67, 76
2, 223278, Note_on_c, 0, 64, 69
2, 223610, Note_on_c, 0, 64, 0
2, 223615, Control_c, 0, 64, 0
2, 223621, Note_on_c, 0, 67, 0
2, 223622, Note_on_c, 0, 64, 64
2, 223622, Note_on_c, 0, 65, 58
2, 223623, Note_on_c, 0, 55, 68
2, 223625, Note_on_c, 0, 60, 0
2, 223627, Note_on_c, 0, 48, 0
2, 223629, Note_on_c, 0, 43, 67
2, 223633, Note_on_c, 0, 65, 0
2, 223662, Note_on_c, 0, 55, 0
2, 223667, Note_on_c, 0, 43, 0
2, 223703, Note_on_c, 0, 64, 0
2, 223706, Note_on_c, 0, 67, 76
2, 223707, Note_on_c, 0, 64, 68
2, 223735, Note_on_c, 0, 67, 0
2, 223756, Note_on_c, 0, 64, 0
2, 223816, Note_on_c, 0, 60, 78
2, 223817, Note_on_c, 0, 48, 78
2, 223918, Control_c, 0, 64, 127
2, 224005, Note_on_c, 0, 67, 67
2, 224006, Note_on_c, 0, 64, 65
2, 224309, Note_on_c, 0, 67, 0
2, 224321, Note_on_c, 0, 67, 70
2, 224332, Note_on_c, 0, 64, 0
2, 224339, Note_on_c, 0, 64, 55
2, 224342, Note_on_c, 0, 43, 63
2, 224409, Note_on_c, 0, 67, 0
2, 224417, Note_on_c, 0, 67, 76
2, 224517, Note_on_c, 0, 60, 0
2, 224517, Note_on_c, 0, 67, 0
2, 224524, Note_on_c, 0, 48, 0
2, 224524, Note_on_c, 0, 64, 0
2, 224527, Note_on_c, 0, 72, 78
2, 224527, Note_on_c, 0, 60, 72
2, 224528, Note_on_c, 0, 67, 84
2, 224529, Note_on_c, 0, 48, 75
2, 224529, Note_on_c, 0, 36, 70
2, 224535, Note_on_c, 0, 64, 53
2, 224542, Control_c, 0, 64, 0
2, 224545, Note_on_c, 0, 43, 0
2, 224568, Note_on_c, 0, 36, 0
2, 224570, Note_on_c, 0, 64, 0
2, 224578, Note_on_c, 0, 48, 0
2, 224578, Note_on_c, 0, 60, 0
2, 224593, Note_on_c, 0, 67, 0
2, 225254, Note_on_c, 0, 72, 0
2, 225259, Note_on_c, 0, 72, 62
2, 225304, Note_on_c, 0, 72, 0
2, 225986, Note_on_c, 0, 72, 64
2, 226041, Note_on_c, 0, 72, 0
2, 226764, Note_on_c, 0, 72, 62
2, 226809, Note_on_c, 0, 72, 0
2, 227551, Note_on_c, 0, 72, 63
2, 227592, Note_on_c, 0, 72, 0
2, 227928, Note_on_c, 0, 79, 64
2, 227975, Note_on_c, 0, 79, 0
2, 228287, Note_on_c, 0, 83, 72
2, 228331, Note_on_c, 0, 83, 0
2, 228659, Note_on_c, 0, 78, 77
2, 228697, Note_on_c, 0, 78, 0
2, 229026, Note_on_c, 0, 72, 70
2, 229067, Note_on_c, 0, 72, 0
2, 229392, Note_on_c, 0, 79, 79
2, 229432, Note_on_c, 0, 79, 0
2, 229765, Note_on_c, 0, 83, 77
2, 229802, Note_on_c, 0, 83, 0
2, 230133, Note_on_c, 0, 78, 79
2, 230165, Note_on_c, 0, 78, 0
2, 230496, Note_on_c, 0, 67, 60
2, 230498, Note_on_c, 0, 72, 65
2, 230502, Note_on_c, 0, 64, 55
2, 230540, Note_on_c, 0, 72, 0
2, 230862, Note_on_c, 0, 79, 74
2, 230904, Note_on_c, 0, 79, 0
2, 231001, Note_on_c, 0, 64, 0
2, 231033, Note_on_c, 0, 67, 0
2, 231227, Note_on_c, 0, 83, 79
2, 231231, Note_on_c, 0, 64, 67
2, 231232, Note_on_c, 0, 67, 68
2, 231272, Note_on_c, 0, 83, 0
2, 231595, Note_on_c, 0, 78, 80
2, 231628, Note_on_c, 0, 78, 0
2, 231679, Note_on_c, 0, 64, 0
2, 231714, Note_on_c, 0, 67, 0
2, 231956, Note_on_c, 0, 64, 63
2, 231957, Note_on_c, 0, 72, 60
2, 231961, Note_on_c, 0, 62, 60
2, 232002, Note_on_c, 0, 72, 0
2, 232325, Note_on_c, 0, 79, 82
2, 232366, Note_on_c, 0, 79, 0
2, 232514, Note_on_c, 0, 62, 0
2, 232517, Note_on_c, 0, 64, 0
2, 232685, Note_on_c, 0, 64, 71
2, 232685, Note_on_c, 0, 83, 80
2, 232687, Note_on_c, 0, 62, 62
2, 232736, Note_on_c, 0, 83, 0
2, 233043, Note_on_c, 0, 78, 85
2, 233071, Note_on_c, 0, 78, 0
2, 233171, Note_on_c, 0, 62, 0
2, 233183, Note_on_c, 0, 64, 0
2, 233398, Note_on_c, 0, 67, 78
2, 233400, Note_on_c, 0, 72, 73
2, 233400, Note_on_c, 0, 64, 65
2, 233401, Note_on_c, 0, 60, 69
2, 233441, Note_on_c, 0, 72, 0
2, 233753, Note_on_c, 0, 79, 78
2, 233756, Note_on_c, 0, 67, 0
2, 233760, Note_on_c, 0, 66, 70
2, 233766, Note_on_c, 0, 67, 69
2, 233800, Note_on_c, 0, 79, 0
2, 233806, Note_on_c, 0, 67, 0
2, 233821, Note_on_c, 0, 64, 0
2, 233924, Note_on_c, 0, 60, 0
2, 234106, Note_on_c, 0, 83, 82
2, 234113, Note_on_c, 0, 64, 75
2, 234116, Note_on_c, 0, 60, 71
2, 234151, Note_on_c, 0, 66, 0
2, 234224, Note_on_c, 0, 83, 0
2, 234469, Note_on_c, 0, 78, 81
2, 234469, Note_on_c, 0, 71, 76
2, 234504, Note_on_c, 0, 78, 0
2, 234644, Note_on_c, 0, 60, 0
2, 234645, Note_on_c, 0, 64, 0
2, 234819, Note_on_c, 0, 64, 72
2, 234823, Note_on_c, 0, 72, 72
2, 234830, Note_on_c, 0, 61, 68
2, 234836, Note_on_c, 0, 71, 0
2, 234866, Note_on_c, 0, 72, 0
2, 235194, Note_on_c, 0, 79, 75
2, 235233, Note_on_c, 0, 79, 0
2, 235380, Note_on_c, 0, 64, 0
2, 235381, Note_on_c, 0, 61, 0
2, 235531, Note_on_c, 0, 64, 74
2, 235532, Note_on_c, 0, 83, 84
2, 235533, Note_on_c, 0, 61, 68
2, 235588, Note_on_c, 0, 83, 0
2, 235903, Note_on_c, 0, 78, 81
2, 235935, Note_on_c, 0, 78, 0
2, 236012, Note_on_c, 0, 61, 0
2, 236017, Note_on_c, 0, 64, 0
2, 236240, Note_on_c, 0, 72, 76
2, 236240, Note_on_c, 0, 67, 71
2, 236241, Note_on_c, 0, 64, 68
2, 236293, Note_on_c, 0, 72, 0
2, 236616, Note_on_c, 0, 79, 83
2, 236654, Note_on_c, 0, 79, 0
2, 236786, Note_on_c, 0, 64, 0
2, 236796, Note_on_c, 0, 67, 0
2, 236952, Note_on_c, 0, 64, 71
2, 236953, Note_on_c, 0, 83, 85
2, 236954, Note_on_c, 0, 67, 76
2, 237006, Note_on_c, 0, 83, 0
2, 237322, Note_on_c, 0, 78, 83
2, 237353, Note_on_c, 0, 78, 0
2, 237422, Note_on_c, 0, 64, 0
2, 237475, Note_on_c, 0, 67, 0
2, 237663, Note_on_c, 0, 64, 72
2, 237667, Note_on_c, 0, 72, 71
2, 237669, Note_on_c, 0, 62, 69
2, 237709, Note_on_c, 0, 72, 0
2, 238024, Note_on_c, 0, 79, 84
2, 238061, Note_on_c, 0, 79, 0
2, 238230, Note_on_c, 0, 62, 0
2, 238265, Note_on_c, 0, 64, 0
2, 238369, Note_on_c, 0, 83, 84
2, 238369, Note_on_c, 0, 64, 80
2, 238371, Note_on_c, 0, 62, 69
2, 238411, Note_on_c, 0, 83, 0
2, 238739, Note_on_c, 0, 78, 83
2, 238772, Note_on_c, 0, 78, 0
2, 238835, Note_on_c, 0, 62, 0
2, 238884, Note_on_c, 0, 64, 0
2, 239091, Note_on_c, 0, 64, 72
2, 239095, Note_on_c, 0, 60, 72
2, 239097, Note_on_c, 0, 71, 70
2, 239098, Note_on_c, 0, 72, 77
2, 239185, Note_on_c, 0, 72, 0
2, 239448, Note_on_c, 0, 67, 79
2, 239449, Note_on_c, 0, 79, 83
2, 239488, Note_on_c, 0, 79, 0
2, 239577, Note_on_c, 0, 64, 0
2, 239628, Note_on_c, 0, 60, 0
2, 239643, Note_on_c, 0, 67, 0
2, 239684, Note_on_c, 0, 71, 0
2, 239802, Note_on_c, 0, 66, 79
2, 239802, Note_on_c, 0, 83, 85
2, 239803, Note_on_c, 0, 64, 77
2, 239809, Note_on_c, 0, 60, 69
2, 239858, Note_on_c, 0, 83, 0
2, 240157, Note_on_c, 0, 79, 86
2, 240163, Note_on_c, 0, 71, 78
2, 240197, Note_on_c, 0, 79, 0
2, 240201, Note_on_c, 0, 60, 0
2, 240224, Note_on_c, 0, 64, 0
2, 240241, Note_on_c, 0, 66, 0
2, 240500, Note_on_c, 0, 71, 0
2, 240513, Note_on_c, 0, 72, 79
2, 240517, Note_on_c, 0, 64, 78
2, 240518, Note_on_c, 0, 61, 80
2, 240554, Note_on_c, 0, 72, 0
2, 240874, Note_on_c, 0, 79, 87
2, 240911, Note_on_c, 0, 79, 0
2, 241088, Note_on_c, 0, 64, 0
2, 241115, Note_on_c, 0, 61, 0
2, 241226, Note_on_c, 0, 64, 73
2, 241227, Note_on_c, 0, 83, 77
2, 241229, Note_on_c, 0, 61, 66
2, 241582, Control_c, 0, 64, 127
2, 241593, Note_on_c, 0, 78, 75
2, 241920, Note_on_c, 0, 83, 0
2, 241946, Control_c, 0, 64, 0
2, 241948, Note_on_c, 0, 78, 0
2, 241952, Note_on_c, 0, 61, 0
2, 241952, Note_on_c, 0, 91, 87
2, 241958, Note_on_c, 0, 64, 0
2, 241963, Note_on_c, 0, 64, 65
2, 241965, Note_on_c, 0, 79, 71
2, 241967, Note_on_c, 0, 60, 61
2, 242050, Control_c, 0, 64, 127
2, 242316, Note_on_c, 0, 67, 71
2, 242641, Note_on_c, 0, 64, 0
2, 242652, Note_on_c, 0, 64, 73
2, 242657, Note_on_c, 0, 91, 0
2, 242661, Note_on_c, 0, 91, 90
2, 242664, Note_on_c, 0, 79, 0
2, 242672, Note_on_c, 0, 60, 0
2, 242675, Note_on_c, 0, 71, 70
2, 242676, Note_on_c, 0, 79, 74
2, 242676, Note_on_c, 0, 60, 61
2, 243034, Note_on_c, 0, 66, 74
2, 243378, Note_on_c, 0, 88, 78
2, 243379, Note_on_c, 0, 64, 0
2, 243384, Note_on_c, 0, 64, 70
2, 243384, Note_on_c, 0, 60, 0
2, 243385, Note_on_c, 0, 61, 59
2, 243386, Note_on_c, 0, 71, 0
2, 243386, Control_c, 0, 64, 0
2, 243387, Note_on_c, 0, 66, 0
2, 243387, Note_on_c, 0, 67, 0
2, 243388, Note_on_c, 0, 79, 0
2, 243394, Note_on_c, 0, 91, 0
2, 243395, Note_on_c, 0, 76, 67
2, 243486, Control_c, 0, 64, 127
2, 243722, Note_on_c, 0, 67, 72
2, 244062, Note_on_c, 0, 88, 0
2, 244068, Note_on_c, 0, 88, 78
2, 244070, Note_on_c, 0, 61, 0
2, 244070, Note_on_c, 0, 64, 0
2, 244073, Control_c, 0, 64, 0
2, 244075, Note_on_c, 0, 64, 70
2, 244081, Note_on_c, 0, 61, 59
2, 244085, Note_on_c, 0, 71, 64
2, 244085, Note_on_c, 0, 76, 0
2, 244089, Note_on_c, 0, 76, 65
2, 244147, Control_c, 0, 64, 127
2, 244452, Note_on_c, 0, 66, 74
2, 244763, Control_c, 0, 64, 0
2, 244765, Note_on_c, 0, 71, 0
2, 244766, Note_on_c, 0, 66, 0
2, 244767, Note_on_c, 0, 61, 0
2, 244768, Note_on_c, 0, 76, 0
2, 244784, Note_on_c, 0, 67, 0
2, 244784, Note_on_c, 0, 88, 0
2, 244792, Note_on_c, 0, 64, 0
2, 244801, Note_on_c, 0, 91, 90
2, 244803, Note_on_c, 0, 64, 69
2, 244803, Note_on_c, 0, 60, 67
2, 244803, Note_on_c, 0, 79, 84
2, 244853, Control_c, 0, 64, 127
2, 245139, Note_on_c, 0, 67, 80
2, 245141, Note_on_c, 0, 90, 85
2, 245148, Note_on_c, 0, 78, 82
2, 245490, Control_c, 0, 64, 0
2, 245498, Note_on_c, 0, 60, 0
2, 245498, Note_on_c, 0, 64, 0
2, 245501, Note_on_c, 0, 88, 76
2, 245503, Note_on_c, 0, 71, 77
2, 245504, Note_on_c, 0, 60, 72
2, 245504, Note_on_c, 0, 64, 69
2, 245505, Note_on_c, 0, 76, 74
2, 245529, Control_c, 0, 64, 127
2, 245535, Note_on_c, 0, 78, 0
2, 245535, Note_on_c, 0, 91, 0
2, 245536, Note_on_c, 0, 79, 0
2, 245845, Note_on_c, 0, 95, 92
2, 245856, Note_on_c, 0, 66, 72
2, 245856, Note_on_c, 0, 83, 76
2, 246217, Note_on_c, 0, 85, 84
2, 246220, Note_on_c, 0, 64, 0
2, 246220, Note_on_c, 0, 90, 0
2, 246224, Note_on_c, 0, 61, 63
2, 246224, Note_on_c, 0, 73, 67
2, 246227, Note_on_c, 0, 64, 68
2, 246228, Note_on_c, 0, 76, 0
2, 246232, Note_on_c, 0, 76, 54
2, 246239, Note_on_c, 0, 71, 0
2, 246240, Note_on_c, 0, 95, 0
2, 246240, Note_on_c, 0, 67, 0
2, 246240, Note_on_c, 0, 88, 0
2, 246240, Note_on_c, 0, 83, 0
2, 246241, Note_on_c, 0, 66, 0
2, 246241, Control_c, 0, 64, 0
2, 246243, Note_on_c, 0, 60, 0
2, 246336, Control_c, 0, 64, 127
2, 246443, Note_on_c, 0, 76, 0
2, 246578, Note_on_c, 0, 67, 64
2, 246927, Note_on_c, 0, 61, 0
2, 246927, Note_on_c, 0, 64, 0
2, 246932, Note_on_c, 0, 61, 67
2, 246933, Note_on_c, 0, 71, 73
2, 246933, Note_on_c, 0, 64, 70
2, 246968, Control_c, 0, 64, 0
2, 246973, Control_c, 0, 64, 127
2, 247298, Note_on_c, 0, 66, 73
2, 247623, Note_on_c, 0, 66, 0
2, 247623, Note_on_c, 0, 73, 0
2, 247623, Note_on_c, 0, 71, 0
2, 247623, Note_on_c, 0, 67, 0
2, 247624, Note_on_c, 0, 61, 0
2, 247626, Note_on_c, 0, 85, 0
2, 247629, Control_c, 0, 64, 0
2, 247633, Note_on_c, 0, 64, 0
2, 247643, Note_on_c, 0, 64, 69
2, 247643, Note_on_c, 0, 91, 92
2, 247653, Note_on_c, 0, 79, 78
2, 247653, Note_on_c, 0, 60, 64
2, 247703, Control_c, 0, 64, 127
2, 247987, Note_on_c, 0, 67, 69
2, 248309, Note_on_c, 0, 64, 0
2, 248317, Note_on_c, 0, 64, 73
2, 248332, Note_on_c, 0, 60, 0
2, 248332, Note_on_c, 0, 91, 0
2, 248338, Note_on_c, 0, 91, 91
2, 248340, Note_on_c, 0, 60, 69
2, 248340, Note_on_c, 0, 79, 0
2, 248346, Note_on_c, 0, 79, 75
2, 248351, Note_on_c, 0, 71, 71
2, 248354, Control_c, 0, 64, 0
2, 248394, Control_c, 0, 64, 127
2, 248686, Note_on_c, 0, 66, 72
2, 249038, Note_on_c, 0, 88, 78
2, 249050, Note_on_c, 0, 61, 60
2, 249054, Note_on_c, 0, 64, 0
2, 249055, Control_c, 0, 64, 0
2, 249057, Note_on_c, 0, 60, 0
2, 249057, Note_on_c, 0, 71, 0
2, 249058, Note_on_c, 0, 79, 0
2, 249058, Note_on_c, 0, 66, 0
2, 249058, Note_on_c, 0, 64, 69
2, 249058, Note_on_c, 0, 67, 0
2, 249059, Note_on_c, 0, 76, 63
2, 249070, Note_on_c, 0, 91, 0
2, 249146, Control_c, 0, 64, 127
2, 249401, Note_on_c, 0, 67, 67
2, 249730, Note_on_c, 0, 61, 0
2, 249730, Note_on_c, 0, 64, 0
2, 249734, Note_on_c, 0, 64, 73
2, 249740, Note_on_c, 0, 71, 67
2, 249741, Note_on_c, 0, 61, 61
2, 249745, Note_on_c, 0, 88, 0
2, 249751, Note_on_c, 0, 88, 75
2, 249753, Note_on_c, 0, 76, 0
2, 249759, Note_on_c, 0, 76, 70
2, 250104, Note_on_c, 0, 66, 70
2, 250460, Note_on_c, 0, 64, 0
2, 250465, Note_on_c, 0, 95, 91
2, 250465, Note_on_c, 0, 64, 75
2, 250466, Note_on_c, 0, 66, 0
2, 250467, Note_on_c, 0, 71, 0
2, 250467, Note_on_c, 0, 61, 0
2, 250467, Note_on_c, 0, 76, 0
2, 250468, Note_on_c, 0, 67, 0
2, 250470, Control_c, 0, 64, 0
2, 250470, Note_on_c, 0, 88, 0
2, 250471, Note_on_c, 0, 60, 70
2, 250479, Note_on_c, 0, 83, 77
2, 250529, Control_c, 0, 64, 127
2, 250817, Note_on_c, 0, 67, 74
2, 250824, Note_on_c, 0, 91, 91
2, 250828, Note_on_c, 0, 79, 81
2, 251151, Note_on_c, 0, 64, 0
2, 251161, Note_on_c, 0, 64, 74
2, 251162, Note_on_c, 0, 71, 81
2, 251163, Note_on_c, 0, 90, 86
2, 251170, Note_on_c, 0, 78, 85
2, 251174, Note_on_c, 0, 60, 0
2, 251179, Note_on_c, 0, 60, 66
2, 251512, Note_on_c, 0, 95, 0
2, 251516, Note_on_c, 0, 95, 94
2, 251527, Note_on_c, 0, 83, 0
2, 251531, Note_on_c, 0, 66, 74
2, 251531, Note_on_c, 0, 83, 77
2, 251880, Note_on_c, 0, 64, 0
2, 251886, Note_on_c, 0, 61, 72
2, 251887, Note_on_c, 0, 85, 83
2, 251891, Note_on_c, 0, 64, 71
2, 251903, Note_on_c, 0, 60, 0
2, 251903, Note_on_c, 0, 78, 0
2, 251903, Note_on_c, 0, 79, 0
2, 251904, Note_on_c, 0, 91, 0
2, 251906, Note_on_c, 0, 90, 0
2, 251906, Note_on_c, 0, 83, 0
2, 251906, Note_on_c, 0, 67, 0
2, 251907, Note_on_c, 0, 66, 0
2, 251907, Control_c, 0, 64, 0
2, 251919, Note_on_c, 0, 71, 0
2, 251919, Note_on_c, 0, 95, 0
2, 251980, Control_c, 0, 64, 127
2, 252236, Note_on_c, 0, 67, 77
2, 252579, Note_on_c, 0, 61, 0
2, 252587, Note_on_c, 0, 64, 0
2, 252590, Note_on_c, 0, 61, 70
2, 252591, Note_on_c, 0, 71, 80
2, 252596, Note_on_c, 0, 64, 73
2, 252612, Control_c, 0, 64, 0
2, 252614, Note_on_c, 0, 85, 0
2, 252687, Control_c, 0, 64, 127
2, 252935, Note_on_c, 0, 66, 91
2, 253278, Note_on_c, 0, 67, 0
2, 253283, Control_c, 0, 64, 0
2, 253283, Note_on_c, 0, 71, 0
2, 253283, Note_on_c, 0, 66, 0
2, 253286, Note_on_c, 0, 64, 0
2, 253286, Note_on_c, 0, 67, 93
2, 253294, Note_on_c, 0, 61, 0
2, 253297, Note_on_c, 0, 64, 90
2, 253303, Note_on_c, 0, 95, 94
2, 253327, Note_on_c, 0, 94, 59
2, 253347, Control_c, 0, 64, 127
2, 253562, Note_on_c, 0, 94, 0
2, 253659, Note_on_c, 0, 91, 93
2, 253665, Note_on_c, 0, 79, 81
2, 253680, Note_on_c, 0, 90, 63
2, 254000, Note_on_c, 0, 64, 0
2, 254000, Note_on_c, 0, 67, 0
2, 254008, Note_on_c, 0, 90, 0
2, 254010, Note_on_c, 0, 64, 89
2, 254010, Note_on_c, 0, 67, 93
2, 254019, Note_on_c, 0, 90, 89
2, 254019, Note_on_c, 0, 78, 88
2, 254033, Note_on_c, 0, 89, 62
2, 254039, Note_on_c, 0, 89, 0
2, 254369, Note_on_c, 0, 95, 0
2, 254373, Note_on_c, 0, 95, 96
2, 254379, Note_on_c, 0, 83, 82
2, 254386, Note_on_c, 0, 94, 78
2, 254392, Note_on_c, 0, 94, 0
2, 254730, Note_on_c, 0, 64, 0
2, 254730, Note_on_c, 0, 95, 0
2, 254733, Note_on_c, 0, 78, 0
2, 254734, Note_on_c, 0, 67, 0
2, 254734, Note_on_c, 0, 90, 0
2, 254739, Note_on_c, 0, 95, 99
2, 254740, Note_on_c, 0, 64, 97
2, 254741, Control_c, 0, 64, 0
2, 254745, Note_on_c, 0, 62, 86
2, 254745, Note_on_c, 0, 83, 0
2, 254745, Note_on_c, 0, 91, 0
2, 254753, Note_on_c, 0, 79, 0
2, 254755, Note_on_c, 0, 94, 82
2, 254757, Note_on_c, 0, 83, 85
2, 254814, Control_c, 0, 64, 127
2, 255088, Note_on_c, 0, 91, 92
2, 255094, Note_on_c, 0, 79, 85
2, 255102, Note_on_c, 0, 90, 75
2, 255106, Note_on_c, 0, 94, 0
2, 255429, Note_on_c, 0, 62, 0
2, 255429, Note_on_c, 0, 64, 0
2, 255435, Note_on_c, 0, 64, 93
2, 255440, Note_on_c, 0, 62, 87
2, 255444, Note_on_c, 0, 90, 0
2, 255449, Note_on_c, 0, 90, 83
2, 255456, Note_on_c, 0, 78, 76
2, 255790, Note_on_c, 0, 95, 0
2, 255797, Note_on_c, 0, 83, 0
2, 255801, Note_on_c, 0, 95, 100
2, 255808, Note_on_c, 0, 83, 82
2, 255808, Note_on_c, 0, 94, 82
2, 255813, Note_on_c, 0, 94, 0
2, 256121, Note_on_c, 0, 78, 0
2, 256121, Note_on_c, 0, 62, 0
2, 256122, Note_on_c, 0, 79, 0
2, 256123, Note_on_c, 0, 90, 0
2, 256125, Control_c, 0, 64, 0
2, 256128, Note_on_c, 0, 64, 0
2, 256128, Note_on_c, 0, 95, 0
2, 256133, Note_on_c, 0, 64, 85
2, 256133, Note_on_c, 0, 67, 92
2, 256135, Note_on_c, 0, 83, 0
2, 256138, Note_on_c, 0, 95, 100
2, 256139, Note_on_c, 0, 60, 81
2, 256146, Note_on_c, 0, 83, 87
2, 256151, Note_on_c, 0, 91, 0
2, 256189, Control_c, 0, 64, 127
2, 256492, Note_on_c, 0, 91, 92
2, 256503, Note_on_c, 0, 66, 88
2, 256515, Note_on_c, 0, 79, 72
2, 256826, Note_on_c, 0, 60, 0
2, 256826, Note_on_c, 0, 64, 0
2, 256834, Note_on_c, 0, 60, 90
2, 256835, Note_on_c, 0, 64, 87
2, 256837, Note_on_c, 0, 90, 89
2, 256838, Note_on_c, 0, 78, 85
2, 256840, Note_on_c, 0, 95, 0
2, 256841, Note_on_c, 0, 83, 0
2, 256842, Note_on_c, 0, 67, 0
2, 256845, Note_on_c, 0, 79, 0
2, 257183, Note_on_c, 0, 71, 94
2, 257187, Note_on_c, 0, 95, 91
2, 257201, Note_on_c, 0, 83, 76
2, 257207, Note_on_c, 0, 94, 70
2, 257218, Note_on_c, 0, 94, 0
2, 257511, Control_c, 0, 64, 0
2, 257511, Note_on_c, 0, 71, 0
2, 257512, Note_on_c, 0, 60, 0
2, 257513, Note_on_c, 0, 91, 0
2, 257518, Note_on_c, 0, 64, 0
2, 257518, Note_on_c, 0, 66, 0
2, 257525, Note_on_c, 0, 78, 0
2, 257525, Note_on_c, 0, 95, 0
2, 257527, Note_on_c, 0, 64, 95
2, 257532, Note_on_c, 0, 61, 88
2, 257533, Note_on_c, 0, 90, 0
2, 257537, Note_on_c, 0, 95, 94
2, 257537, Note_on_c, 0, 94, 83
2, 257541, Note_on_c, 0, 83, 0
2, 257546, Note_on_c, 0, 83, 79
2, 257587, Control_c, 0, 64, 127
2, 257897, Note_on_c, 0, 91, 92
2, 257909, Note_on_c, 0, 79, 77
2, 257914, Note_on_c, 0, 90, 59
2, 258117, Note_on_c, 0, 94, 0
2, 258247, Note_on_c, 0, 61, 0
2, 258247, Note_on_c, 0, 64, 0
2, 258247, Note_on_c, 0, 90, 0
2, 258252, Note_on_c, 0, 64, 85
2, 258255, Note_on_c, 0, 90, 88
2, 258257, Note_on_c, 0, 61, 81
2, 258258, Note_on_c, 0, 78, 90
2, 258585, Note_on_c, 0, 83, 0
2, 258585, Note_on_c, 0, 95, 0
2, 258590, Note_on_c, 0, 95, 98
2, 258595, Note_on_c, 0, 83, 86
2, 258938, Note_on_c, 0, 64, 0
2, 258943, Note_on_c, 0, 67, 92
2, 258945, Note_on_c, 0, 64, 90
2, 258946, Note_on_c, 0, 95, 0
2, 258947, Control_c, 0, 64, 0
2, 258951, Note_on_c, 0, 95, 100
2, 258951, Note_on_c, 0, 61, 0
2, 258953, Note_on_c, 0, 78, 0
2, 258954, Note_on_c, 0, 83, 0
2, 258954, Note_on_c, 0, 90, 0
2, 258954, Note_on_c, 0, 79, 0
2, 258962, Note_on_c, 0, 83, 90
2, 258984, Note_on_c, 0, 91, 0
2, 259015, Control_c, 0, 64, 127
2, 259298, Note_on_c, 0, 91, 97
2, 259303, Note_on_c, 0, 79, 84
2, 259306, Note_on_c, 0, 90, 78
2, 259637, Note_on_c, 0, 67, 0
2, 259644, Note_on_c, 0, 67, 94
2, 259645, Note_on_c, 0, 64, 0
2, 259645, Note_on_c, 0, 90, 0
2, 259649, Note_on_c, 0, 64, 88
2, 259650, Note_on_c, 0, 90, 94
2, 259650, Note_on_c, 0, 78, 90
2, 259991, Note_on_c, 0, 95, 0
2, 259995, Note_on_c, 0, 95, 97
2, 259998, Note_on_c, 0, 83, 0
2, 260002, Note_on_c, 0, 83, 83
2, 260009, Note_on_c, 0, 94, 84
2, 260014, Note_on_c, 0, 94, 0
2, 260336, Note_on_c, 0, 64, 0
2, 260341, Note_on_c, 0, 64, 99
2, 260352, Note_on_c, 0, 95, 0
2, 260352, Note_on_c, 0, 62, 89
2, 260356, Note_on_c, 0, 95, 100
2, 260359, Note_on_c, 0, 83, 0
2, 260368, Note_on_c, 0, 94, 90
2, 260368, Control_c, 0, 64, 0
2, 260368, Note_on_c, 0, 90, 0
2, 260369, Note_on_c, 0, 78, 0
2, 260369, Note_on_c, 0, 83, 88
2, 260375, Note_on_c, 0, 91, 0
2, 260382, Note_on_c, 0, 79, 0
2, 260390, Note_on_c, 0, 67, 0
2, 260444, Note_on_c, 0, 94, 0
2, 260444, Control_c, 0, 64, 127
2, 260696, Note_on_c, 0, 91, 97
2, 260706, Note_on_c, 0, 79, 79
2, 260723, Note_on_c, 0, 90, 63
2, 261035, Note_on_c, 0, 62, 0
2, 261035, Note_on_c, 0, 64, 0
2, 261035, Note_on_c, 0, 90, 0
2, 261041, Note_on_c, 0, 90, 95
2, 261043, Note_on_c, 0, 64, 92
2, 261045, Note_on_c, 0, 91, 0
2, 261045, Note_on_c, 0, 62, 90
2, 261047, Note_on_c, 0, 78, 89
2, 261047, Note_on_c, 0, 79, 0
2, 261073, Note_on_c, 0, 95, 0
2, 261396, Note_on_c, 0, 83, 0
2, 261398, Note_on_c, 0, 95, 96
2, 261401, Note_on_c, 0, 83, 82
2, 261408, Note_on_c, 0, 94, 79
2, 261723, Note_on_c, 0, 94, 0
2, 261723, Note_on_c, 0, 78, 0
2, 261723, Note_on_c, 0, 62, 0
2, 261724, Note_on_c, 0, 90, 0
2, 261727, Control_c, 0, 64, 0
2, 261742, Note_on_c, 0, 64, 0
2, 261742, Note_on_c, 0, 95, 0
2, 261745, Note_on_c, 0, 95, 99
2, 261747, Note_on_c, 0, 64, 92
2, 261749, Note_on_c, 0, 83, 0
2, 261752, Note_on_c, 0, 71, 95
2, 261753, Note_on_c, 0, 83, 87
2, 261753, Note_on_c, 0, 60, 86
2, 261754, Note_on_c, 0, 94, 84
2, 261795, Control_c, 0, 64, 127
2, 261949, Note_on_c, 0, 94, 0
2, 262102, Note_on_c, 0, 67, 88
2, 262106, Note_on_c, 0, 91, 94
2, 262111, Note_on_c, 0, 79, 87
2, 262127, Note_on_c, 0, 90, 63
2, 262443, Control_c, 0, 64, 0
2, 262456, Note_on_c, 0, 60, 0
2, 262456, Note_on_c, 0, 64, 0
2, 262456, Note_on_c, 0, 90, 0
2, 262459, Note_on_c, 0, 66, 94
2, 262461, Note_on_c, 0, 95, 0
2, 262461, Note_on_c, 0, 64, 81
2, 262462, Note_on_c, 0, 83, 0
2, 262463, Note_on_c, 0, 78, 91
2, 262463, Note_on_c, 0, 90, 91
2, 262464, Note_on_c, 0, 60, 87
2, 262464, Note_on_c, 0, 91, 0
2, 262466, Note_on_c, 0, 71, 0
2, 262467, Note_on_c, 0, 79, 0
2, 262494, Control_c, 0, 64, 127
2, 262804, Note_on_c, 0, 95, 96
2, 262807, Note_on_c, 0, 71, 91
2, 262810, Note_on_c, 0, 83, 86
2, 263155, Note_on_c, 0, 64, 0
2, 263155, Note_on_c, 0, 95, 0
2, 263159, Note_on_c, 0, 73, 97
2, 263159, Note_on_c, 0, 64, 97
2, 263160, Control_c, 0, 64, 0
2, 263162, Note_on_c, 0, 83, 0
2, 263166, Note_on_c, 0, 95, 101
2, 263166, Note_on_c, 0, 70, 82
2, 263167, Note_on_c, 0, 61, 91
2, 263168, Note_on_c, 0, 71, 0
2, 263168, Note_on_c, 0, 60, 0
2, 263170, Note_on_c, 0, 67, 0
2, 263171, Note_on_c, 0, 66, 0
2, 263173, Note_on_c, 0, 94, 86
2, 263173, Note_on_c, 0, 83, 94
2, 263177, Note_on_c, 0, 82, 71
2, 263178, Note_on_c, 0, 78, 0
2, 263185, Note_on_c, 0, 90, 0
2, 263216, Control_c, 0, 64, 127
2, 263527, Note_on_c, 0, 91, 91
2, 263531, Note_on_c, 0, 79, 82
2, 263534, Note_on_c, 0, 90, 67
2, 263869, Note_on_c, 0, 90, 0
2, 263877, Note_on_c, 0, 61, 0
2, 263877, Note_on_c, 0, 64, 0
2, 263879, Note_on_c, 0, 90, 87
2, 263881, Note_on_c, 0, 64, 80
2, 263882, Note_on_c, 0, 78, 88
2, 263885, Note_on_c, 0, 61, 78
2, 263915, Note_on_c, 0, 94, 0
2, 263969, Note_on_c, 0, 73, 0
2, 264238, Note_on_c, 0, 95, 0
2, 264245, Note_on_c, 0, 83, 0
2, 264248, Note_on_c, 0, 95, 91
2, 264251, Note_on_c, 0, 83, 76
2, 264252, Note_on_c, 0, 94, 79
2, 264261, Note_on_c, 0, 70, 0
2, 264591, Note_on_c, 0, 95, 0
2, 264597, Note_on_c, 0, 95, 96
2, 264599, Note_on_c, 0, 83, 0
2, 264603, Note_on_c, 0, 83, 82
2, 264944, Note_on_c, 0, 91, 0
2, 264952, Note_on_c, 0, 79, 0
2, 264952, Note_on_c, 0, 90, 0
2, 264953, Note_on_c, 0, 91, 87
2, 264958, Note_on_c, 0, 79, 76
2, 264962, Note_on_c, 0, 90, 71
2, 265305, Note_on_c, 0, 78, 0
2, 265305, Note_on_c, 0, 90, 0
2, 265311, Note_on_c, 0, 90, 80
2, 265316, Note_on_c, 0, 78, 79
2, 265323, Note_on_c, 0, 89, 70
2, 265658, Note_on_c, 0, 83, 0
2, 265658, Note_on_c, 0, 95, 0
2, 265667, Note_on_c, 0, 95, 80
2, 265667, Note_on_c, 0, 83, 72
2, 265671, Note_on_c, 0, 66, 41
2, 265681, Note_on_c, 0, 66, 0
2, 266019, Note_on_c, 0, 95, 0
2, 266025, Note_on_c, 0, 95, 90
2, 266027, Note_on_c, 0, 83, 0
2, 266027, Note_on_c, 0, 94, 0
2, 266031, Note_on_c, 0, 94, 75
2, 266037, Note_on_c, 0, 83, 67
2, 266038, Note_on_c, 0, 82, 0
2, 266373, Note_on_c, 0, 91, 0
2, 266381, Note_on_c, 0, 91, 85
2, 266396, Note_on_c, 0, 78, 0
2, 266396, Note_on_c, 0, 79, 0
2, 266396, Note_on_c, 0, 90, 0
2, 266400, Note_on_c, 0, 79, 64
2, 266404, Note_on_c, 0, 78, 58
2, 266404, Note_on_c, 0, 90, 66
2, 266726, Note_on_c, 0, 90, 0
2, 266731, Note_on_c, 0, 90, 81
2, 266734, Note_on_c, 0, 78, 0
2, 266734, Note_on_c, 0, 89, 0
2, 266742, Note_on_c, 0, 78, 73
2, 266744, Note_on_c, 0, 89, 68
2, 266880, Note_on_c, 0, 61, 0
2, 266880, Note_on_c, 0, 64, 0
2, 266880, Note_on_c, 0, 94, 0
2, 267087, Note_on_c, 0, 95, 0
2, 267095, Note_on_c, 0, 83, 0
2, 267096, Note_on_c, 0, 95, 79
2, 267103, Note_on_c, 0, 83, 62
2, 267440, Note_on_c, 0, 95, 0
2, 267446, Note_on_c, 0, 95, 86
2, 267456, Note_on_c, 0, 83, 0
2, 267460, Note_on_c, 0, 94, 68
2, 267461, Note_on_c, 0, 83, 63
2, 267486, Note_on_c, 0, 94, 0
2, 267793, Note_on_c, 0, 79, 0
2, 267801, Note_on_c, 0, 79, 74
2, 268162, Note_on_c, 0, 78, 0
2, 268166, Note_on_c, 0, 78, 68
2, 268523, Note_on_c, 0, 83, 0
2, 268528, Note_on_c, 0, 83, 71
2, 268892, Note_on_c, 0, 83, 0
2, 268903, Note_on_c, 0, 83, 71
2, 269276, Note_on_c, 0, 79, 0
2, 269284, Note_on_c, 0, 79, 68
2, 269637, Note_on_c, 0, 78, 0
2, 269643, Note_on_c, 0, 78, 73
2, 269713, Note_on_c, 0, 89, 0
2, 269998, Note_on_c, 0, 83, 0
2, 270006, Note_on_c, 0, 83, 71
2, 270349, Control_c, 0, 64, 0
2, 270374, Note_on_c, 0, 83, 0
2, 270383, Note_on_c, 0, 83, 73
2, 270412, Control_c, 0, 64, 127
2, 270451, Note_on_c, 0, 78, 0
2, 270451, Note_on_c, 0, 79, 0
2, 270458, Note_on_c, 0, 91, 0
2, 270720, Note_on_c, 0, 90, 0
2, 270720, Note_on_c, 0, 95, 0
2, 270757, Note_on_c, 0, 79, 69
2, 271126, Note_on_c, 0, 77, 76
2, 271472, Note_on_c, 0, 83, 0
2, 271478, Note_on_c, 0, 83, 72
2, 271833, Note_on_c, 0, 83, 0
2, 271842, Note_on_c, 0, 83, 63
2, 272176, Control_c, 0, 64, 0
2, 272217, Note_on_c, 0, 79, 0
2, 272221, Note_on_c, 0, 79, 69
2, 272279, Note_on_c, 0, 77, 0
2, 272325, Control_c, 0, 64, 127
2, 272606, Note_on_c, 0, 77, 73
2, 272793, Note_on_c, 0, 83, 0
2, 273007, Note_on_c, 0, 83, 70
2, 273384, Note_on_c, 0, 83, 0
2, 273396, Note_on_c, 0, 83, 75
2, 273776, Note_on_c, 0, 79, 0
2, 273780, Note_on_c, 0, 79, 69
2, 273783, Note_on_c, 0, 74, 51
2, 274168, Note_on_c, 0, 77, 0
2, 274175, Note_on_c, 0, 77, 68
2, 274178, Note_on_c, 0, 71, 61
2, 274583, Note_on_c, 0, 83, 0
2, 274594, Note_on_c, 0, 83, 71
2, 274622, Note_on_c, 0, 67, 60
2, 275059, Note_on_c, 0, 83, 0
2, 275070, Note_on_c, 0, 83, 73
2, 275094, Note_on_c, 0, 65, 55
2, 275589, Note_on_c, 0, 79, 0
2, 275592, Note_on_c, 0, 62, 59
2, 275592, Note_on_c, 0, 79, 66
2, 276211, Note_on_c, 0, 77, 0
2, 276221, Note_on_c, 0, 77, 64
2, 276223, Note_on_c, 0, 55, 49
2, 277002, Note_on_c, 0, 83, 0
2, 277011, Note_on_c, 0, 83, 61
2, 278392, Note_on_c, 0, 74, 0
2, 278400, Note_on_c, 0, 55, 0
2, 278400, Note_on_c, 0, 62, 0
2, 278400, Note_on_c, 0, 65, 0
2, 278400, Note_on_c, 0, 67, 0
2, 278400, Note_on_c, 0, 71, 0
2, 278400, Note_on_c, 0, 77, 0
2, 278400, Note_on_c, 0, 79, 0
2, 279164, Control_c, 0, 64, 0
2, 279206, Note_on_c, 0, 83, 0
2, 279412, Note_on_c, 0, 67, 83
2, 279449, Note_on_c, 0, 67, 0
2, 279577, Note_on_c, 0, 60, 79
2, 279578, Note_on_c, 0, 76, 89
2, 279684, Note_on_c, 0, 60, 0
2, 279724, Note_on_c, 0, 67, 79
2, 279731, Note_on_c, 0, 64, 67
2, 279731, Note_on_c, 0, 76, 0
2, 279780, Note_on_c, 0, 67, 0
2, 279782, Note_on_c, 0, 64, 0
2, 279876, Note_on_c, 0, 77, 89
2, 279877, Note_on_c, 0, 55, 75
2, 279962, Note_on_c, 0, 55, 0
2, 280041, Note_on_c, 0, 67, 75
2, 280047, Note_on_c, 0, 64, 66
2, 280053, Note_on_c, 0, 77, 0
2, 280084, Note_on_c, 0, 64, 0
2, 280094, Note_on_c, 0, 67, 0
2, 280187, Note_on_c, 0, 79, 92
2, 280191, Note_on_c, 0, 60, 75
2, 280318, Note_on_c, 0, 60, 0
2, 280324, Note_on_c, 0, 79, 0
2, 280347, Note_on_c, 0, 67, 74
2, 280347, Note_on_c, 0, 64, 70
2, 280388, Note_on_c, 0, 64, 0
2, 280402, Note_on_c, 0, 67, 0
2, 280501, Note_on_c, 0, 84, 94
2, 280505, Note_on_c, 0, 55, 74
2, 280654, Note_on_c, 0, 67, 71
2, 280654, Note_on_c, 0, 64, 62
2, 280678, Note_on_c, 0, 55, 0
2, 280690, Note_on_c, 0, 67, 0
2, 280704, Note_on_c, 0, 64, 0
2, 280807, Note_on_c, 0, 83, 96
2, 280810, Note_on_c, 0, 53, 79
2, 280915, Note_on_c, 0, 53, 0
2, 280959, Note_on_c, 0, 60, 71
2, 280960, Note_on_c, 0, 57, 69
2, 280988, Note_on_c, 0, 84, 0
2, 281004, Note_on_c, 0, 60, 0
2, 281013, Note_on_c, 0, 57, 0
2, 281096, Note_on_c, 0, 48, 83
2, 281184, Note_on_c, 0, 83, 0
2, 281185, Note_on_c, 0, 48, 0
2, 281258, Note_on_c, 0, 81, 89
2, 281267, Note_on_c, 0, 60, 71
2, 281267, Note_on_c, 0, 57, 76
2, 281330, Note_on_c, 0, 60, 0
2, 281331, Note_on_c, 0, 81, 0
2, 281331, Note_on_c, 0, 83, 80
2, 281397, Note_on_c, 0, 81, 92
2, 281408, Note_on_c, 0, 53, 81
2, 281427, Note_on_c, 0, 83, 0
2, 281443, Note_on_c, 0, 81, 0
2, 281495, Note_on_c, 0, 57, 0
2, 281514, Note_on_c, 0, 53, 0
2, 281558, Note_on_c, 0, 76, 83
2, 281560, Note_on_c, 0, 60, 75
2, 281562, Note_on_c, 0, 57, 77
2, 281591, Note_on_c, 0, 76, 0
2, 281602, Note_on_c, 0, 60, 0
2, 281602, Note_on_c, 0, 57, 0
2, 281706, Note_on_c, 0, 48, 78
2, 281708, Note_on_c, 0, 74, 85
2, 281738, Note_on_c, 0, 74, 0
2, 281833, Note_on_c, 0, 48, 0
2, 281859, Note_on_c, 0, 60, 75
2, 281860, Note_on_c, 0, 77, 91
2, 281890, Note_on_c, 0, 60, 0
2, 282005, Note_on_c, 0, 62, 82
2, 282089, Note_on_c, 0, 62, 0
2, 282096, Note_on_c, 0, 77, 0
2, 282161, Note_on_c, 0, 69, 81
2, 282166, Note_on_c, 0, 74, 82
2, 282167, Note_on_c, 0, 65, 68
2, 282199, Note_on_c, 0, 69, 0
2, 282203, Note_on_c, 0, 65, 0
2, 282206, Note_on_c, 0, 74, 0
2, 282312, Note_on_c, 0, 57, 82
2, 282314, Note_on_c, 0, 77, 86
2, 282348, Note_on_c, 0, 77, 0
2, 282382, Note_on_c, 0, 57, 0
2, 282464, Note_on_c, 0, 81, 91
2, 282472, Note_on_c, 0, 69, 76
2, 282474, Note_on_c, 0, 65, 65
2, 282502, Note_on_c, 0, 81, 0
2, 282503, Note_on_c, 0, 69, 0
2, 282507, Note_on_c, 0, 65, 0
2, 282609, Note_on_c, 0, 62, 85
2, 282611, Note_on_c, 0, 86, 98
2, 282668, Note_on_c, 0, 86, 0
2, 282690, Note_on_c, 0, 62, 0
2, 282757, Note_on_c, 0, 84, 97
2, 282758, Note_on_c, 0, 69, 76
2, 282758, Note_on_c, 0, 65, 74
2, 282792, Note_on_c, 0, 69, 0
2, 282794, Note_on_c, 0, 65, 0
2, 282801, Note_on_c, 0, 84, 0
2, 282903, Note_on_c, 0, 83, 97
2, 282904, Note_on_c, 0, 57, 88
2, 282956, Note_on_c, 0, 83, 0
2, 283004, Note_on_c, 0, 57, 0
2, 283052, Note_on_c, 0, 81, 94
2, 283056, Note_on_c, 0, 69, 83
2, 283113, Note_on_c, 0, 83, 93
2, 283128, Note_on_c, 0, 69, 0
2, 283135, Note_on_c, 0, 81, 0
2, 283193, Note_on_c, 0, 84, 101
2, 283194, Note_on_c, 0, 64, 91
2, 283199, Note_on_c, 0, 83, 0
2, 283268, Note_on_c, 0, 64, 0
2, 283337, Note_on_c, 0, 72, 81
2, 283341, Note_on_c, 0, 67, 72
2, 283379, Note_on_c, 0, 72, 0
2, 283383, Note_on_c, 0, 67, 0
2, 283487, Note_on_c, 0, 60, 83
2, 283575, Note_on_c, 0, 60, 0
2, 283640, Note_on_c, 0, 81, 98
2, 283641, Note_on_c, 0, 72, 88
2, 283645, Note_on_c, 0, 67, 76
2, 283688, Note_on_c, 0, 67, 0
2, 283774, Note_on_c, 0, 64, 82
2, 283791, Note_on_c, 0, 84, 0
2, 283801, Note_on_c, 0, 79, 100
2, 283814, Control_c, 0, 64, 127
2, 283845, Note_on_c, 0, 64, 0
2, 283875, Note_on_c, 0, 81, 0
2, 283930, Note_on_c, 0, 48, 82
2, 284067, Note_on_c, 0, 72, 0
2, 284069, Note_on_c, 0, 50, 76
2, 284085, Note_on_c, 0, 82, 96
2, 284226, Note_on_c, 0, 52, 79
2, 284309, Note_on_c, 0, 48, 0
2, 284310, Note_on_c, 0, 50, 0
2, 284311, Note_on_c, 0, 52, 0
2, 284314, Control_c, 0, 64, 0
2, 284328, Note_on_c, 0, 79, 0
2, 284372, Note_on_c, 0, 53, 85
2, 284495, Note_on_c, 0, 53, 0
2, 284527, Note_on_c, 0, 84, 94
2, 284532, Note_on_c, 0, 60, 83
2, 284535, Note_on_c, 0, 57, 80
2, 284551, Note_on_c, 0, 82, 0
2, 284597, Note_on_c, 0, 57, 0
2, 284605, Note_on_c, 0, 60, 0
2, 284678, Note_on_c, 0, 48, 77
2, 284678, Note_on_c, 0, 83, 93
2, 284705, Note_on_c, 0, 84, 0
2, 284820, Note_on_c, 0, 84, 95
2, 284823, Note_on_c, 0, 48, 0
2, 284826, Note_on_c, 0, 83, 0
2, 284832, Note_on_c, 0, 60, 74
2, 284839, Note_on_c, 0, 57, 73
2, 284878, Note_on_c, 0, 57, 0
2, 284893, Note_on_c, 0, 60, 0
2, 284951, Control_c, 0, 64, 127
2, 284967, Note_on_c, 0, 81, 93
2, 284970, Note_on_c, 0, 53, 80
2, 285125, Note_on_c, 0, 65, 79
2, 285126, Note_on_c, 0, 60, 76
2, 285129, Note_on_c, 0, 57, 75
2, 285160, Note_on_c, 0, 84, 0
2, 285162, Note_on_c, 0, 53, 0
2, 285164, Note_on_c, 0, 65, 0
2, 285164, Note_on_c, 0, 81, 0
2, 285166, Note_on_c, 0, 57, 0
2, 285166, Control_c, 0, 64, 0
2, 285167, Note_on_c, 0, 60, 0
2, 285269, Note_on_c, 0, 64, 85
2, 285275, Note_on_c, 0, 48, 73
2, 285308, Note_on_c, 0, 64, 0
2, 285373, Note_on_c, 0, 48, 0
2, 285418, Note_on_c, 0, 65, 85
2, 285423, Note_on_c, 0, 60, 69
2, 285457, Note_on_c, 0, 65, 0
2, 285458, Note_on_c, 0, 60, 0
2, 285565, Note_on_c, 0, 67, 95
2, 285572, Note_on_c, 0, 52, 77
2, 285573, Control_c, 0, 64, 127
2, 285711, Note_on_c, 0, 52, 0
2, 285715, Note_on_c, 0, 60, 85
2, 285721, Note_on_c, 0, 55, 77
2, 285722, Note_on_c, 0, 52, 68
2, 285724, Note_on_c, 0, 84, 93
2, 285757, Note_on_c, 0, 67, 0
2, 285827, Note_on_c, 0, 55, 0
2, 285828, Note_on_c, 0, 52, 0
2, 285829, Note_on_c, 0, 84, 0
2, 285829, Note_on_c, 0, 60, 0
2, 285832, Control_c, 0, 64, 0
2, 285875, Note_on_c, 0, 48, 77
2, 285877, Note_on_c, 0, 83, 91
2, 285944, Note_on_c, 0, 83, 0
2, 285971, Note_on_c, 0, 48, 0
2, 286021, Note_on_c, 0, 84, 91
2, 286026, Note_on_c, 0, 60, 74
2, 286047, Note_on_c, 0, 55, 58
2, 286086, Note_on_c, 0, 55, 0
2, 286091, Note_on_c, 0, 60, 0
2, 286168, Note_on_c, 0, 79, 93
2, 286170, Note_on_c, 0, 52, 76
2, 286179, Note_on_c, 0, 84, 0
2, 286179, Control_c, 0, 64, 127
2, 286316, Note_on_c, 0, 60, 77
2, 286317, Note_on_c, 0, 64, 88
2, 286325, Note_on_c, 0, 55, 67
2, 286400, Note_on_c, 0, 79, 0
2, 286401, Note_on_c, 0, 64, 0
2, 286401, Note_on_c, 0, 52, 0
2, 286404, Note_on_c, 0, 55, 0
2, 286405, Note_on_c, 0, 60, 0
2, 286406, Control_c, 0, 64, 0
2, 286461, Note_on_c, 0, 48, 81
2, 286462, Note_on_c, 0, 62, 88
2, 286498, Note_on_c, 0, 62, 0
2, 286566, Note_on_c, 0, 48, 0
2, 286612, Note_on_c, 0, 60, 79
2, 286613, Note_on_c, 0, 55, 69
2, 286614, Note_on_c, 0, 64, 84
2, 286645, Note_on_c, 0, 55, 0
2, 286647, Note_on_c, 0, 60, 0
2, 286654, Note_on_c, 0, 64, 0
2, 286755, Note_on_c, 0, 65, 88
2, 286755, Control_c, 0, 64, 127
2, 286759, Note_on_c, 0, 50, 83
2, 286904, Note_on_c, 0, 57, 83
2, 286905, Note_on_c, 0, 84, 94
2, 286905, Note_on_c, 0, 53, 77
2, 287030, Note_on_c, 0, 65, 0
2, 287030, Control_c, 0, 64, 0
2, 287030, Note_on_c, 0, 53, 0
2, 287034, Note_on_c, 0, 57, 0
2, 287040, Note_on_c, 0, 50, 0
2, 287053, Note_on_c, 0, 45, 79
2, 287103, Note_on_c, 0, 45, 0
2, 287204, Note_on_c, 0, 57, 78
2, 287205, Note_on_c, 0, 53, 70
2, 287206, Note_on_c, 0, 88, 89
2, 287245, Note_on_c, 0, 57, 0
2, 287245, Note_on_c, 0, 53, 0
2, 287247, Note_on_c, 0, 84, 0
2, 287350, Note_on_c, 0, 50, 86
2, 287352, Note_on_c, 0, 86, 102
2, 287450, Note_on_c, 0, 50, 0
2, 287493, Note_on_c, 0, 57, 87
2, 287505, Note_on_c, 0, 53, 66
2, 287509, Note_on_c, 0, 84, 91
2, 287535, Note_on_c, 0, 86, 0
2, 287540, Note_on_c, 0, 53, 0
2, 287542, Note_on_c, 0, 57, 0
2, 287546, Note_on_c, 0, 88, 0
2, 287647, Note_on_c, 0, 45, 87
2, 287649, Note_on_c, 0, 83, 93
2, 287662, Control_c, 0, 64, 127
2, 287777, Note_on_c, 0, 84, 0
2, 287786, Note_on_c, 0, 84, 90
2, 287787, Note_on_c, 0, 57, 82
2, 287938, Note_on_c, 0, 86, 100
2, 287942, Note_on_c, 0, 55, 82
2, 287947, Note_on_c, 0, 81, 81
2, 287959, Note_on_c, 0, 77, 69
2, 287968, Note_on_c, 0, 45, 0
2, 287970, Note_on_c, 0, 84, 0
2, 287970, Note_on_c, 0, 57, 0
2, 287972, Note_on_c, 0, 83, 0
2, 287972, Control_c, 0, 64, 0
2, 288088, Note_on_c, 0, 62, 80
2, 288135, Note_on_c, 0, 62, 0
2, 288246, Note_on_c, 0, 65, 77
2, 288308, Note_on_c, 0, 65, 0
2, 288400, Note_on_c, 0, 69, 78
2, 288554, Note_on_c, 0, 65, 72
2, 288583, Note_on_c, 0, 69, 0
2, 288695, Note_on_c, 0, 74, 77
2, 288760, Control_c, 0, 64, 127
2, 288837, Note_on_c, 0, 69, 84
2, 288844, Note_on_c, 0, 65, 0
2, 288983, Note_on_c, 0, 86, 0
2, 288987, Note_on_c, 0, 86, 95
2, 288989, Note_on_c, 0, 65, 79
2, 289034, Note_on_c, 0, 84, 87
2, 289085, Control_c, 0, 64, 0
2, 289085, Note_on_c, 0, 69, 0
2, 289086, Note_on_c, 0, 74, 0
2, 289086, Note_on_c, 0, 77, 0
2, 289086, Note_on_c, 0, 81, 0
2, 289086, Note_on_c, 0, 55, 0
2, 289087, Note_on_c, 0, 65, 0
2, 289087, Note_on_c, 0, 86, 0
2, 289131, Note_on_c, 0, 83, 96
2, 289143, Note_on_c, 0, 79, 92
2, 289148, Note_on_c, 0, 55, 90
2, 289154, Note_on_c, 0, 74, 79
2, 289159, Note_on_c, 0, 74, 0
2, 289159, Note_on_c, 0, 84, 0
2, 289228, Control_c, 0, 64, 127
2, 289295, Note_on_c, 0, 62, 79
2, 289441, Note_on_c, 0, 67, 76
2, 289574, Note_on_c, 0, 79, 0
2, 289582, Note_on_c, 0, 79, 91
2, 289601, Note_on_c, 0, 71, 75
2, 289737, Note_on_c, 0, 77, 92
2, 289881, Note_on_c, 0, 67, 0
2, 289892, Note_on_c, 0, 67, 78
2, 290041, Note_on_c, 0, 76, 89
2, 290042, Note_on_c, 0, 62, 0
2, 290049, Note_on_c, 0, 62, 69
2, 290188, Note_on_c, 0, 55, 0
2, 290188, Note_on_c, 0, 77, 0
2, 290192, Note_on_c, 0, 74, 83
2, 290193, Note_on_c, 0, 55, 77
2, 290193, Note_on_c, 0, 77, 70
2, 290272, Control_c, 0, 64, 0
2, 290273, Note_on_c, 0, 83, 0
2, 290274, Note_on_c, 0, 74, 0
2, 290275, Note_on_c, 0, 62, 0
2, 290275, Note_on_c, 0, 71, 0
2, 290275, Note_on_c, 0, 67, 0
2, 290276, Note_on_c, 0, 79, 0
2, 290277, Note_on_c, 0, 76, 0
2, 290277, Note_on_c, 0, 77, 0
2, 290277, Note_on_c, 0, 55, 0
2, 290344, Note_on_c, 0, 77, 91
2, 290346, Note_on_c, 0, 59, 80
2, 290442, Note_on_c, 0, 59, 0
2, 290509, Note_on_c, 0, 67, 82
2, 290510, Note_on_c, 0, 62, 71
2, 290547, Note_on_c, 0, 62, 0
2, 290547, Note_on_c, 0, 67, 0
2, 290607, Note_on_c, 0, 77, 0
2, 290654, Note_on_c, 0, 55, 77
2, 290746, Note_on_c, 0, 55, 0
2, 290798, Note_on_c, 0, 67, 82
2, 290800, Note_on_c, 0, 77, 89
2, 290806, Note_on_c, 0, 62, 66
2, 290839, Note_on_c, 0, 77, 0
2, 290844, Note_on_c, 0, 67, 0
2, 290845, Note_on_c, 0, 62, 0
2, 290946, Note_on_c, 0, 59, 81
2, 290950, Note_on_c, 0, 79, 88
2, 290985, Note_on_c, 0, 79, 0
2, 291032, Note_on_c, 0, 59, 0
2, 291094, Note_on_c, 0, 77, 95
2, 291096, Note_on_c, 0, 67, 83
2, 291098, Note_on_c, 0, 62, 69
2, 291132, Note_on_c, 0, 77, 0
2, 291138, Note_on_c, 0, 67, 0
2, 291138, Note_on_c, 0, 62, 0
2, 291242, Note_on_c, 0, 76, 84
2, 291243, Note_on_c, 0, 55, 80
2, 291276, Note_on_c, 0, 76, 0
2, 291339, Note_on_c, 0, 55, 0
2, 291383, Note_on_c, 0, 74, 86
2, 291389, Note_on_c, 0, 67, 79
2, 291413, Note_on_c, 0, 74, 0
2, 291415, Note_on_c, 0, 67, 0
2, 291537, Note_on_c, 0, 76, 91
2, 291538, Note_on_c, 0, 60, 83
2, 291640, Control_c, 0, 64, 127
2, 291697, Note_on_c, 0, 67, 75
2, 291697, Note_on_c, 0, 64, 71
2, 291724, Control_c, 0, 64, 0
2, 291727, Note_on_c, 0, 60, 0
2, 291730, Note_on_c, 0, 67, 0
2, 291755, Note_on_c, 0, 64, 0
2, 291837, Note_on_c, 0, 55, 79
2, 291857, Note_on_c, 0, 76, 0
2, 291889, Note_on_c, 0, 55, 0
2, 291977, Note_on_c, 0, 76, 89
2, 291982, Note_on_c, 0, 67, 82
2, 291997, Note_on_c, 0, 64, 68
2, 292016, Note_on_c, 0, 76, 0
2, 292021, Note_on_c, 0, 67, 0
2, 292039, Note_on_c, 0, 64, 0
2, 292126, Note_on_c, 0, 60, 85
2, 292127, Note_on_c, 0, 77, 92
2, 292163, Note_on_c, 0, 77, 0
2, 292207, Note_on_c, 0, 60, 0
2, 292275, Note_on_c, 0, 67, 81
2, 292275, Note_on_c, 0, 64, 76
2, 292276, Note_on_c, 0, 76, 84
2, 292307, Note_on_c, 0, 64, 0
2, 292313, Note_on_c, 0, 76, 0
2, 292318, Note_on_c, 0, 67, 0
2, 292411, Note_on_c, 0, 74, 85
2, 292428, Note_on_c, 0, 55, 78
2, 292451, Note_on_c, 0, 74, 0
2, 292565, Note_on_c, 0, 72, 90
2, 292569, Note_on_c, 0, 67, 74
2, 292602, Note_on_c, 0, 72, 0
2, 292603, Note_on_c, 0, 67, 0
2, 292626, Note_on_c, 0, 55, 0
2, 292705, Note_on_c, 0, 77, 94
2, 292710, Note_on_c, 0, 59, 84
2, 292756, Note_on_c, 0, 77, 0
2, 292788, Note_on_c, 0, 59, 0
2, 292850, Note_on_c, 0, 67, 81
2, 292855, Note_on_c, 0, 62, 69
2, 292855, Note_on_c, 0, 76, 85
2, 292891, Note_on_c, 0, 62, 0
2, 292894, Note_on_c, 0, 67, 0
2, 292895, Note_on_c, 0, 76, 0
2, 292990, Note_on_c, 0, 74, 87
2, 292993, Note_on_c, 0, 55, 82
2, 293025, Note_on_c, 0, 74, 0
2, 293142, Note_on_c, 0, 77, 93
2, 293142, Note_on_c, 0, 67, 85
2, 293188, Note_on_c, 0, 77, 0
2, 293290, Note_on_c, 0, 59, 79
2, 293295, Note_on_c, 0, 79, 99
2, 293300, Note_on_c, 0, 74, 86
2, 293306, Note_on_c, 0, 55, 0
2, 293329, Note_on_c, 0, 67, 0
2, 293337, Note_on_c, 0, 59, 0
2, 293429, Note_on_c, 0, 55, 86
2, 293506, Note_on_c, 0, 74, 0
2, 293518, Note_on_c, 0, 55, 0
2, 293577, Note_on_c, 0, 57, 81
2, 293578, Note_on_c, 0, 81, 85
2, 293598, Note_on_c, 0, 79, 0
2, 293633, Note_on_c, 0, 81, 0
2, 293717, Note_on_c, 0, 57, 0
2, 293725, Note_on_c, 0, 59, 77
2, 293727, Note_on_c, 0, 77, 90
2, 293770, Note_on_c, 0, 77, 0
2, 293772, Note_on_c, 0, 59, 0
2, 293869, Note_on_c, 0, 60, 85
2, 293877, Note_on_c, 0, 76, 86
2, 293911, Note_on_c, 0, 76, 0
2, 293912, Note_on_c, 0, 60, 0
2, 294023, Note_on_c, 0, 67, 90
2, 294023, Note_on_c, 0, 79, 98
2, 294039, Note_on_c, 0, 64, 65
2, 294062, Note_on_c, 0, 67, 0
2, 294063, Note_on_c, 0, 64, 0
2, 294172, Note_on_c, 0, 55, 75
2, 294253, Note_on_c, 0, 55, 0
2, 294297, Note_on_c, 0, 79, 0
2, 294317, Note_on_c, 0, 77, 91
2, 294332, Note_on_c, 0, 64, 72
2, 294333, Note_on_c, 0, 67, 72
2, 294416, Note_on_c, 0, 77, 0
2, 294468, Note_on_c, 0, 60, 85
2, 294468, Note_on_c, 0, 76, 94
2, 294474, Control_c, 0, 64, 127
2, 294608, Note_on_c, 0, 48, 78
2, 294762, Note_on_c, 0, 58, 90
2, 294763, Note_on_c, 0, 55, 79
2, 294929, Note_on_c, 0, 81, 93
2, 294984, Note_on_c, 0, 83, 92
2, 295036, Control_c, 0, 64, 0
2, 295037, Note_on_c, 0, 67, 0
2, 295037, Note_on_c, 0, 58, 0
2, 295037, Note_on_c, 0, 55, 0
2, 295038, Note_on_c, 0, 48, 0
2, 295038, Note_on_c, 0, 81, 0
2, 295039, Note_on_c, 0, 76, 0
2, 295039, Note_on_c, 0, 60, 0
2, 295047, Note_on_c, 0, 83, 0
2, 295053, Note_on_c, 0, 84, 104
2, 295057, Note_on_c, 0, 64, 0
2, 295068, Note_on_c, 0, 53, 90
2, 295099, Note_on_c, 0, 84, 0
2, 295159, Note_on_c, 0, 53, 0
2, 295206, Note_on_c, 0, 83, 98
2, 295211, Note_on_c, 0, 60, 82
2, 295216, Note_on_c, 0, 57, 80
2, 295256, Note_on_c, 0, 83, 0
2, 295257, Note_on_c, 0, 60, 0
2, 295260, Note_on_c, 0, 57, 0
2, 295349, Note_on_c, 0, 81, 96
2, 295353, Note_on_c, 0, 48, 81
2, 295399, Note_on_c, 0, 48, 0
2, 295399, Note_on_c, 0, 81, 0
2, 295491, Note_on_c, 0, 84, 100
2, 295499, Note_on_c, 0, 60, 79
2, 295505, Note_on_c, 0, 57, 74
2, 295542, Note_on_c, 0, 60, 0
2, 295542, Note_on_c, 0, 84, 0
2, 295546, Note_on_c, 0, 57, 0
2, 295643, Note_on_c, 0, 83, 102
2, 295644, Note_on_c, 0, 53, 90
2, 295719, Note_on_c, 0, 53, 0
2, 295783, Note_on_c, 0, 60, 84
2, 295790, Note_on_c, 0, 57, 71
2, 295826, Note_on_c, 0, 60, 0
2, 295828, Note_on_c, 0, 57, 0
2, 295944, Note_on_c, 0, 48, 86
2, 295944, Note_on_c, 0, 81, 97
2, 295975, Note_on_c, 0, 83, 0
2, 295979, Note_on_c, 0, 48, 0
2, 296033, Note_on_c, 0, 81, 0
2, 296087, Note_on_c, 0, 79, 98
2, 296088, Note_on_c, 0, 60, 83
2, 296129, Note_on_c, 0, 60, 0
2, 296244, Note_on_c, 0, 52, 77
2, 296339, Note_on_c, 0, 52, 0
2, 296381, Note_on_c, 0, 58, 94
2, 296391, Note_on_c, 0, 82, 100
2, 296396, Note_on_c, 0, 55, 70
2, 296435, Note_on_c, 0, 58, 0
2, 296435, Note_on_c, 0, 55, 0
2, 296526, Note_on_c, 0, 45, 84
2, 296577, Note_on_c, 0, 45, 0
2, 296642, Note_on_c, 0, 82, 0
2, 296655, Note_on_c, 0, 79, 0
2, 296674, Note_on_c, 0, 58, 81
2, 296675, Note_on_c, 0, 81, 98
2, 296679, Note_on_c, 0, 55, 76
2, 296713, Note_on_c, 0, 58, 0
2, 296719, Note_on_c, 0, 55, 0
2, 296826, Note_on_c, 0, 52, 85
2, 296905, Note_on_c, 0, 52, 0
2, 296972, Note_on_c, 0, 55, 82
2, 296973, Note_on_c, 0, 57, 85
2, 296975, Note_on_c, 0, 79, 95
2, 296998, Note_on_c, 0, 81, 0
2, 297007, Note_on_c, 0, 55, 0
2, 297100, Note_on_c, 0, 57, 0
2, 297120, Note_on_c, 0, 45, 74
2, 297120, Note_on_c, 0, 77, 89
2, 297145, Note_on_c, 0, 79, 0
2, 297182, Note_on_c, 0, 45, 0
2, 297182, Note_on_c, 0, 77, 0
2, 297265, Note_on_c, 0, 57, 78
2, 297267, Note_on_c, 0, 76, 85
2, 297308, Note_on_c, 0, 76, 0
2, 297392, Note_on_c, 0, 57, 0
2, 297411, Note_on_c, 0, 81, 99
2, 297412, Note_on_c, 0, 50, 73
2, 297427, Note_on_c, 0, 74, 79
2, 297432, Note_on_c, 0, 77, 70
2, 297477, Control_c, 0, 64, 127
2, 297555, Note_on_c, 0, 57, 71
2, 297640, Note_on_c, 0, 79, 91
2, 297695, Note_on_c, 0, 53, 72
2, 297830, Note_on_c, 0, 50, 0
2, 297836, Note_on_c, 0, 50, 74
2, 297845, Note_on_c, 0, 77, 0
2, 297850, Note_on_c, 0, 77, 85
2, 297985, Note_on_c, 0, 53, 0
2, 297985, Note_on_c, 0, 57, 0
2, 297986, Note_on_c, 0, 50, 0
2, 297987, Note_on_c, 0, 81, 0
2, 297987, Note_on_c, 0, 77, 0
2, 297987, Control_c, 0, 64, 0
2, 298007, Note_on_c, 0, 79, 0
2, 298007, Note_on_c, 0, 83, 98
2, 298014, Note_on_c, 0, 74, 0
2, 298015, Note_on_c, 0, 79, 87
2, 298018, Note_on_c, 0, 74, 80
2, 298019, Note_on_c, 0, 52, 74
2, 298051, Note_on_c, 0, 74, 0
2, 298083, Control_c, 0, 64, 127
2, 298162, Note_on_c, 0, 59, 77
2, 298234, Note_on_c, 0, 81, 95
2, 298305, Note_on_c, 0, 55, 76
2, 298429, Note_on_c, 0, 52, 0
2, 298438, Note_on_c, 0, 52, 74
2, 298452, Note_on_c, 0, 79, 0
2, 298458, Note_on_c, 0, 79, 91
2, 298564, Note_on_c, 0, 79, 0
2, 298564, Control_c, 0, 64, 0
2, 298564, Note_on_c, 0, 83, 0
2, 298564, Note_on_c, 0, 55, 0
2, 298564, Note_on_c, 0, 52, 0
2, 298564, Note_on_c, 0, 59, 0
2, 298587, Note_on_c, 0, 84, 99
2, 298590, Note_on_c, 0, 81, 0
2, 298601, Note_on_c, 0, 53, 84
2, 298601, Note_on_c, 0, 81, 83
2, 298603, Note_on_c, 0, 77, 83
2, 298667, Control_c, 0, 64, 127
2, 298746, Note_on_c, 0, 60, 88
2, 298814, Note_on_c, 0, 83, 100
2, 298895, Note_on_c, 0, 57, 80
2, 299013, Note_on_c, 0, 81, 0
2, 299020, Note_on_c, 0, 53, 0
2, 299024, Note_on_c, 0, 81, 94
2, 299024, Note_on_c, 0, 53, 87
2, 299143, Note_on_c, 0, 77, 0
2, 299145, Note_on_c, 0, 84, 0
2, 299145, Note_on_c, 0, 57, 0
2, 299146, Note_on_c, 0, 53, 0
2, 299146, Note_on_c, 0, 83, 0
2, 299146, Note_on_c, 0, 60, 0
2, 299147, Control_c, 0, 64, 0
2, 299182, Note_on_c, 0, 81, 0
2, 299184, Note_on_c, 0, 86, 103
2, 299187, Note_on_c, 0, 81, 87
2, 299190, Note_on_c, 0, 74, 95
2, 299192, Note_on_c, 0, 78, 92
2, 299195, Note_on_c, 0, 54, 85
2, 299251, Control_c, 0, 64, 127
2, 299335, Note_on_c, 0, 62, 85
2, 299415, Note_on_c, 0, 88, 99
2, 299416, Note_on_c, 0, 76, 98
2, 299486, Note_on_c, 0, 57, 80
2, 299604, Note_on_c, 0, 54, 0
2, 299612, Note_on_c, 0, 74, 0
2, 299613, Note_on_c, 0, 84, 96
2, 299615, Note_on_c, 0, 54, 83
2, 299616, Note_on_c, 0, 72, 92
2, 299622, Note_on_c, 0, 74, 80
2, 299769, Note_on_c, 0, 88, 0
2, 299769, Note_on_c, 0, 76, 0
2, 299770, Note_on_c, 0, 62, 0
2, 299771, Control_c, 0, 64, 0
2, 299771, Note_on_c, 0, 74, 0
2, 299772, Note_on_c, 0, 57, 0
2, 299773, Note_on_c, 0, 78, 0
2, 299773, Note_on_c, 0, 86, 0
2, 299774, Note_on_c, 0, 72, 0
2, 299774, Note_on_c, 0, 84, 0
2, 299781, Note_on_c, 0, 81, 0
2, 299784, Note_on_c, 0, 86, 103
2, 299785, Note_on_c, 0, 81, 86
2, 299785, Note_on_c, 0, 55, 87
2, 299786, Note_on_c, 0, 77, 87
2, 299788, Note_on_c, 0, 54, 0
2, 299943, Note_on_c, 0, 62, 64
2, 300093, Note_on_c, 0, 65, 78
2, 300238, Note_on_c, 0, 69, 80
2, 300257, Note_on_c, 0, 65, 0
2, 300395, Note_on_c, 0, 65, 73
2, 300456, Note_on_c, 0, 62, 0
2, 300547, Note_on_c, 0, 74, 83
2, 300572, Control_c, 0, 64, 127
2, 300683, Note_on_c, 0, 84, 96
2, 300687, Note_on_c, 0, 69, 0
2, 300698, Note_on_c, 0, 69, 79
2, 300825, Note_on_c, 0, 65, 0
2, 300831, Note_on_c, 0, 65, 75
2, 300949, Control_c, 0, 64, 0
2, 300979, Note_on_c, 0, 55, 0
2, 300981, Note_on_c, 0, 83, 98
2, 300986, Note_on_c, 0, 55, 90
2, 300989, Note_on_c, 0, 79, 86
2, 301009, Note_on_c, 0, 77, 0
2, 301010, Note_on_c, 0, 69, 0
2, 301011, Note_on_c, 0, 74, 0
2, 301048, Note_on_c, 0, 81, 0
2, 301063, Note_on_c, 0, 84, 0
2, 301117, Control_c, 0, 64, 127
2, 301125, Note_on_c, 0, 86, 0
2, 301150, Note_on_c, 0, 62, 77
2, 301186, Note_on_c, 0, 65, 0
2, 301293, Note_on_c, 0, 67, 73
2, 301442, Note_on_c, 0, 69, 78
2, 301585, Note_on_c, 0, 71, 81
2, 301708, Control_c, 0, 64, 0
2, 301731, Note_on_c, 0, 67, 0
2, 301735, Note_on_c, 0, 72, 85
2, 301736, Note_on_c, 0, 67, 78
2, 301756, Note_on_c, 0, 83, 0
2, 301870, Note_on_c, 0, 62, 0
2, 301877, Note_on_c, 0, 62, 81
2, 301878, Note_on_c, 0, 74, 89
2, 302016, Note_on_c, 0, 55, 0
2, 302020, Note_on_c, 0, 55, 74
2, 302026, Note_on_c, 0, 77, 87
2, 302058, Note_on_c, 0, 72, 0
2, 302062, Note_on_c, 0, 71, 0
2, 302066, Note_on_c, 0, 74, 0
2, 302100, Note_on_c, 0, 55, 0
2, 302100, Note_on_c, 0, 69, 0
2, 302108, Note_on_c, 0, 62, 0
2, 302108, Note_on_c, 0, 79, 0
2, 302115, Note_on_c, 0, 77, 0
2, 302171, Note_on_c, 0, 76, 89
2, 302172, Note_on_c, 0, 60, 87
2, 302208, Note_on_c, 0, 67, 0
2, 302248, Note_on_c, 0, 74, 80
2, 302299, Note_on_c, 0, 76, 0
2, 302319, Note_on_c, 0, 67, 84
2, 302320, Note_on_c, 0, 72, 82
2, 302320, Note_on_c, 0, 64, 76
2, 302323, Note_on_c, 0, 74, 0
2, 302338, Note_on_c, 0, 60, 0
2, 302361, Note_on_c, 0, 67, 0
2, 302367, Note_on_c, 0, 72, 0
2, 302376, Note_on_c, 0, 64, 0
2, 302389, Note_on_c, 0, 74, 81
2, 302450, Note_on_c, 0, 74, 0
2, 302466, Note_on_c, 0, 76, 81
2, 302468, Note_on_c, 0, 55, 81
2, 302505, Note_on_c, 0, 55, 0
2, 302508, Note_on_c, 0, 76, 0
2, 302543, Note_on_c, 0, 74, 80
2, 302593, Note_on_c, 0, 74, 0
2, 302616, Note_on_c, 0, 67, 82
2, 302617, Note_on_c, 0, 64, 77
2, 302617, Note_on_c, 0, 76, 75
2, 302645, Note_on_c, 0, 64, 0
2, 302649, Note_on_c, 0, 67, 0
2, 302675, Note_on_c, 0, 77, 75
2, 302737, Note_on_c, 0, 76, 0
2, 302742, Note_on_c, 0, 77, 0
2, 302756, Note_on_c, 0, 79, 92
2, 302761, Note_on_c, 0, 60, 92
2, 302803, Note_on_c, 0, 60, 0
2, 302836, Note_on_c, 0, 77, 80
2, 302911, Note_on_c, 0, 67, 85
2, 302917, Note_on_c, 0, 64, 75
2, 302917, Note_on_c, 0, 77, 0
2, 302919, Note_on_c, 0, 76, 81
2, 302937, Note_on_c, 0, 79, 0
2, 302943, Note_on_c, 0, 67, 0
2, 302946, Note_on_c, 0, 64, 0
2, 302992, Note_on_c, 0, 76, 0
2, 303002, Note_on_c, 0, 77, 75
2, 303056, Note_on_c, 0, 79, 92
2, 303057, Note_on_c, 0, 77, 0
2, 303058, Note_on_c, 0, 55, 86
2, 303097, Note_on_c, 0, 79, 0
2, 303141, Note_on_c, 0, 76, 81
2, 303211, Note_on_c, 0, 79, 94
2, 303211, Note_on_c, 0, 67, 82
2, 303242, Note_on_c, 0, 76, 0
2, 303248, Note_on_c, 0, 55, 0
2, 303260, Note_on_c, 0, 67, 0
2, 303298, Note_on_c, 0, 84, 84
2, 303299, Note_on_c, 0, 79, 0
2, 303355, Note_on_c, 0, 83, 102
2, 303356, Note_on_c, 0, 84, 0
2, 303358, Note_on_c, 0, 53, 92
2, 303395, Note_on_c, 0, 53, 0
2, 303503, Note_on_c, 0, 60, 83
2, 303507, Note_on_c, 0, 57, 78
2, 303536, Note_on_c, 0, 60, 0
2, 303540, Note_on_c, 0, 57, 0
2, 303647, Note_on_c, 0, 48, 87
2, 303679, Note_on_c, 0, 48, 0
2, 303799, Note_on_c, 0, 81, 86
2, 303813, Note_on_c, 0, 60, 78
2, 303818, Note_on_c, 0, 57, 77
2, 303849, Note_on_c, 0, 60, 0
2, 303851, Note_on_c, 0, 83, 0
2, 303858, Note_on_c, 0, 83, 91
2, 303862, Note_on_c, 0, 81, 0
2, 303889, Note_on_c, 0, 57, 0
2, 303937, Note_on_c, 0, 81, 96
2, 303940, Note_on_c, 0, 53, 89
2, 303954, Note_on_c, 0, 83, 0
2, 304010, Note_on_c, 0, 53, 0
2, 304094, Note_on_c, 0, 60, 79
2, 304095, Note_on_c, 0, 77, 89
2, 304097, Note_on_c, 0, 57, 78
2, 304125, Note_on_c, 0, 60, 0
2, 304143, Note_on_c, 0, 81, 0
2, 304158, Note_on_c, 0, 57, 0
2, 304162, Note_on_c, 0, 76, 83
2, 304164, Note_on_c, 0, 77, 0
2, 304223, Note_on_c, 0, 76, 0
2, 304230, Note_on_c, 0, 74, 93
2, 304240, Note_on_c, 0, 48, 84
2, 304248, Note_on_c, 0, 74, 0
2, 304356, Note_on_c, 0, 48, 0
2, 304384, Note_on_c, 0, 77, 99
2, 304385, Note_on_c, 0, 60, 85
2, 304416, Note_on_c, 0, 60, 0
2, 304532, Note_on_c, 0, 62, 92
2, 304562, Note_on_c, 0, 62, 0
2, 304645, Note_on_c, 0, 77, 0
2, 304668, Note_on_c, 0, 74, 91
2, 304677, Note_on_c, 0, 65, 75
2, 304678, Note_on_c, 0, 69, 85
2, 304703, Note_on_c, 0, 65, 0
2, 304706, Note_on_c, 0, 74, 0
2, 304747, Note_on_c, 0, 76, 82
2, 304821, Note_on_c, 0, 77, 86
2, 304821, Note_on_c, 0, 57, 88
2, 304823, Note_on_c, 0, 76, 0
2, 304876, Note_on_c, 0, 77, 0
2, 304900, Note_on_c, 0, 74, 88
2, 304957, Note_on_c, 0, 69, 0
2, 304960, Note_on_c, 0, 74, 0
2, 304967, Note_on_c, 0, 69, 83
2, 304969, Note_on_c, 0, 77, 86
2, 304976, Note_on_c, 0, 65, 73
2, 305003, Note_on_c, 0, 57, 0
2, 305029, Note_on_c, 0, 81, 93
2, 305039, Note_on_c, 0, 77, 0
2, 305064, Note_on_c, 0, 65, 0
2, 305080, Note_on_c, 0, 69, 0
2, 305091, Note_on_c, 0, 81, 0
2, 305102, Note_on_c, 0, 86, 101
2, 305103, Note_on_c, 0, 62, 94
2, 305182, Note_on_c, 0, 77, 87
2, 305237, Note_on_c, 0, 69, 81
2, 305239, Note_on_c, 0, 65, 79
2, 305241, Control_c, 0, 64, 127
2, 305256, Note_on_c, 0, 84, 85
2, 305272, Control_c, 0, 64, 0
2, 305303, Note_on_c, 0, 86, 0
2, 305318, Note_on_c, 0, 77, 0
2, 305325, Note_on_c, 0, 77, 88
2, 305385, Note_on_c, 0, 57, 90
2, 305387, Control_c, 0, 64, 127
2, 305390, Note_on_c, 0, 83, 92
2, 305505, Note_on_c, 0, 81, 89
2, 305518, Note_on_c, 0, 69, 0
2, 305527, Note_on_c, 0, 69, 79
2, 305579, Note_on_c, 0, 83, 0
2, 305584, Note_on_c, 0, 83, 87
2, 305634, Note_on_c, 0, 69, 0
2, 305634, Note_on_c, 0, 57, 0
2, 305635, Note_on_c, 0, 62, 0
2, 305636, Note_on_c, 0, 77, 0
2, 305636, Note_on_c, 0, 65, 0
2, 305637, Note_on_c, 0, 83, 0
2, 305637, Note_on_c, 0, 81, 0
2, 305640, Note_on_c, 0, 84, 0
2, 305647, Note_on_c, 0, 84, 87
2, 305661, Note_on_c, 0, 64, 87
2, 305711, Note_on_c, 0, 86, 97
2, 305779, Note_on_c, 0, 84, 0
2, 305790, Note_on_c, 0, 84, 83
2, 305797, Note_on_c, 0, 67, 78
2, 305797, Note_on_c, 0, 72, 80
2, 305852, Note_on_c, 0, 83, 87
2, 305902, Control_c, 0, 64, 0
2, 305925, Note_on_c, 0, 84, 0
2, 305934, Note_on_c, 0, 84, 92
2, 305945, Note_on_c, 0, 60, 83
2, 305945, Note_on_c, 0, 72, 0
2, 305960, Note_on_c, 0, 64, 0
2, 305960, Note_on_c, 0, 83, 0
2, 305971, Note_on_c, 0, 86, 0
2, 306001, Note_on_c, 0, 84, 0
2, 306049, Note_on_c, 0, 60, 0
2, 306080, Note_on_c, 0, 81, 92
2, 306103, Note_on_c, 0, 72, 79
2, 306109, Note_on_c, 0, 67, 0
2, 306114, Note_on_c, 0, 67, 71
2, 306159, Note_on_c, 0, 78, 91
2, 306167, Note_on_c, 0, 81, 0
2, 306229, Note_on_c, 0, 64, 87
2, 306229, Note_on_c, 0, 79, 102
2, 306247, Note_on_c, 0, 67, 0
2, 306247, Note_on_c, 0, 72, 0
2, 306252, Note_on_c, 0, 78, 0
2, 306259, Note_on_c, 0, 64, 0
2, 306374, Note_on_c, 0, 48, 91
2, 306418, Note_on_c, 0, 48, 0
2, 306424, Control_c, 0, 64, 127
2, 306470, Control_c, 0, 64, 0
2, 306527, Note_on_c, 0, 82, 97
2, 306528, Note_on_c, 0, 50, 87
2, 306675, Note_on_c, 0, 52, 77
2, 306718, Note_on_c, 0, 50, 0
2, 306727, Note_on_c, 0, 52, 0
2, 306731, Note_on_c, 0, 79, 0
2, 306820, Note_on_c, 0, 53, 95
2, 306930, Note_on_c, 0, 53, 0
2, 306967, Note_on_c, 0, 60, 88
2, 306970, Note_on_c, 0, 86, 94
2, 306972, Note_on_c, 0, 57, 84
2, 306977, Note_on_c, 0, 82, 0
2, 307015, Note_on_c, 0, 60, 0
2, 307035, Note_on_c, 0, 84, 84
2, 307069, Note_on_c, 0, 57, 0
2, 307112, Note_on_c, 0, 84, 0
2, 307119, Note_on_c, 0, 48, 83
2, 307119, Note_on_c, 0, 83, 86
2, 307138, Note_on_c, 0, 86, 0
2, 307176, Note_on_c, 0, 83, 0
2, 307179, Note_on_c, 0, 84, 88
2, 307187, Note_on_c, 0, 48, 0
2, 307251, Note_on_c, 0, 84, 0
2, 307257, Note_on_c, 0, 83, 92
2, 307262, Note_on_c, 0, 60, 82
2, 307273, Note_on_c, 0, 57, 69
2, 307303, Note_on_c, 0, 60, 0
2, 307328, Note_on_c, 0, 84, 85
2, 307353, Note_on_c, 0, 57, 0
2, 307399, Control_c, 0, 64, 127
2, 307410, Note_on_c, 0, 81, 99
2, 307412, Note_on_c, 0, 53, 90
2, 307430, Note_on_c, 0, 83, 0
2, 307568, Note_on_c, 0, 74, 89
2, 307570, Note_on_c, 0, 60, 83
2, 307572, Note_on_c, 0, 57, 81
2, 307589, Note_on_c, 0, 84, 0
2, 307592, Note_on_c, 0, 81, 0
2, 307594, Note_on_c, 0, 53, 0
2, 307599, Control_c, 0, 64, 0
2, 307622, Note_on_c, 0, 74, 0
2, 307627, Note_on_c, 0, 72, 87
2, 307645, Note_on_c, 0, 57, 0
2, 307645, Note_on_c, 0, 60, 0
2, 307677, Note_on_c, 0, 72, 0
2, 307716, Note_on_c, 0, 48, 81
2, 307718, Note_on_c, 0, 71, 87
2, 307769, Note_on_c, 0, 71, 0
2, 307784, Note_on_c, 0, 48, 0
2, 307787, Note_on_c, 0, 72, 84
2, 307818, Note_on_c, 0, 72, 0
2, 307860, Note_on_c, 0, 71, 86
2, 307861, Note_on_c, 0, 60, 78
2, 307865, Note_on_c, 0, 57, 70
2, 307901, Note_on_c, 0, 60, 0
2, 307907, Note_on_c, 0, 57, 0
2, 307910, Note_on_c, 0, 71, 0
2, 307918, Note_on_c, 0, 72, 84
2, 307983, Control_c, 0, 64, 127
2, 307996, Note_on_c, 0, 67, 98
2, 308017, Note_on_c, 0, 52, 80
2, 308152, Note_on_c, 0, 52, 0
2, 308157, Note_on_c, 0, 86, 97
2, 308158, Note_on_c, 0, 60, 87
2, 308161, Note_on_c, 0, 52, 73
2, 308163, Note_on_c, 0, 55, 84
2, 308210, Note_on_c, 0, 72, 0
2, 308211, Control_c, 0, 64, 0
2, 308215, Note_on_c, 0, 52, 0
2, 308216, Note_on_c, 0, 55, 0
2, 308217, Note_on_c, 0, 67, 0
2, 308217, Note_on_c, 0, 60, 0
2, 308226, Note_on_c, 0, 84, 86
2, 308236, Note_on_c, 0, 86, 0
2, 308285, Note_on_c, 0, 84, 0
2, 308295, Note_on_c, 0, 83, 94
2, 308299, Note_on_c, 0, 48, 80
2, 308349, Note_on_c, 0, 48, 0
2, 308361, Note_on_c, 0, 83, 0
2, 308372, Note_on_c, 0, 84, 87
2, 308427, Note_on_c, 0, 84, 0
2, 308441, Note_on_c, 0, 83, 89
2, 308443, Note_on_c, 0, 60, 81
2, 308447, Note_on_c, 0, 55, 81
2, 308485, Note_on_c, 0, 60, 0
2, 308488, Note_on_c, 0, 55, 0
2, 308524, Note_on_c, 0, 84, 84
2, 308540, Note_on_c, 0, 83, 0
2, 308581, Note_on_c, 0, 84, 0
2, 308585, Note_on_c, 0, 79, 99
2, 308591, Note_on_c, 0, 52, 88
2, 308605, Control_c, 0, 64, 127
2, 308735, Note_on_c, 0, 60, 83
2, 308740, Note_on_c, 0, 55, 81
2, 308754, Note_on_c, 0, 76, 76
2, 308797, Note_on_c, 0, 72, 87
2, 308825, Note_on_c, 0, 52, 0
2, 308825, Control_c, 0, 64, 0
2, 308825, Note_on_c, 0, 76, 0
2, 308826, Note_on_c, 0, 60, 0
2, 308826, Note_on_c, 0, 79, 0
2, 308826, Note_on_c, 0, 55, 0
2, 308832, Note_on_c, 0, 72, 0
2, 308879, Note_on_c, 0, 71, 82
2, 308886, Note_on_c, 0, 48, 80
2, 308926, Note_on_c, 0, 71, 0
2, 308946, Note_on_c, 0, 72, 83
2, 308973, Note_on_c, 0, 48, 0
2, 308986, Note_on_c, 0, 72, 0
2, 309015, Note_on_c, 0, 60, 86
2, 309016, Note_on_c, 0, 71, 87
2, 309057, Note_on_c, 0, 60, 0
2, 309094, Note_on_c, 0, 71, 0
2, 309095, Note_on_c, 0, 72, 86
2, 309147, Note_on_c, 0, 72, 0
2, 309171, Note_on_c, 0, 65, 89
2, 309173, Control_c, 0, 64, 127
2, 309177, Note_on_c, 0, 50, 91
2, 309331, Note_on_c, 0, 57, 86
2, 309332, Note_on_c, 0, 84, 87
2, 309336, Note_on_c, 0, 53, 75
2, 309403, Note_on_c, 0, 77, 84
2, 309451, Control_c, 0, 64, 0
2, 309456, Note_on_c, 0, 65, 0
2, 309457, Note_on_c, 0, 53, 0
2, 309460, Note_on_c, 0, 57, 0
2, 309465, Note_on_c, 0, 50, 0
2, 309465, Note_on_c, 0, 84, 0
2, 309471, Note_on_c, 0, 45, 83
2, 309472, Note_on_c, 0, 84, 95
2, 309476, Note_on_c, 0, 77, 0
2, 309527, Note_on_c, 0, 84, 0
2, 309567, Note_on_c, 0, 45, 0
2, 309614, Note_on_c, 0, 84, 92
2, 309623, Note_on_c, 0, 57, 82
2, 309630, Note_on_c, 0, 53, 75
2, 309691, Note_on_c, 0, 89, 82
2, 309692, Note_on_c, 0, 88, 83
2, 309755, Note_on_c, 0, 86, 101
2, 309757, Note_on_c, 0, 57, 0
2, 309757, Note_on_c, 0, 84, 0
2, 309759, Note_on_c, 0, 50, 91
2, 309780, Note_on_c, 0, 53, 0
2, 309798, Note_on_c, 0, 89, 0
2, 309803, Note_on_c, 0, 88, 0
2, 309807, Note_on_c, 0, 86, 0
2, 309867, Note_on_c, 0, 50, 0
2, 309912, Note_on_c, 0, 57, 87
2, 309913, Note_on_c, 0, 86, 100
2, 309918, Note_on_c, 0, 53, 76
2, 309960, Note_on_c, 0, 53, 0
2, 309983, Note_on_c, 0, 84, 90
2, 310043, Note_on_c, 0, 57, 0
2, 310051, Note_on_c, 0, 83, 100
2, 310052, Note_on_c, 0, 45, 93
2, 310064, Control_c, 0, 64, 127
2, 310187, Note_on_c, 0, 45, 0
2, 310187, Note_on_c, 0, 84, 0
2, 310197, Note_on_c, 0, 84, 93
2, 310198, Note_on_c, 0, 57, 91
2, 310199, Note_on_c, 0, 45, 78
2, 310341, Note_on_c, 0, 86, 0
2, 310342, Note_on_c, 0, 45, 0
2, 310343, Note_on_c, 0, 55, 92
2, 310344, Note_on_c, 0, 57, 0
2, 310345, Note_on_c, 0, 84, 0
2, 310345, Note_on_c, 0, 86, 98
2, 310345, Note_on_c, 0, 81, 92
2, 310346, Note_on_c, 0, 83, 0
2, 310346, Note_on_c, 0, 77, 86
2, 310346, Control_c, 0, 64, 0
2, 310486, Note_on_c, 0, 62, 82
2, 310546, Note_on_c, 0, 62, 0
2, 310646, Note_on_c, 0, 65, 79
2, 310713, Note_on_c, 0, 65, 0
2, 310798, Note_on_c, 0, 69, 82
2, 310886, Note_on_c, 0, 69, 0
2, 310954, Note_on_c, 0, 65, 78
2, 310995, Note_on_c, 0, 65, 0
2, 311093, Control_c, 0, 64, 127
2, 311095, Note_on_c, 0, 74, 83
2, 311247, Note_on_c, 0, 69, 81
2, 311385, Note_on_c, 0, 86, 0
2, 311393, Note_on_c, 0, 86, 90
2, 311395, Note_on_c, 0, 65, 84
2, 311397, Note_on_c, 0, 84, 84
2, 311508, Control_c, 0, 64, 0
2, 311509, Note_on_c, 0, 69, 0
2, 311511, Note_on_c, 0, 74, 0
2, 311511, Note_on_c, 0, 55, 0
2, 311512, Note_on_c, 0, 65, 0
2, 311512, Note_on_c, 0, 81, 0
2, 311512, Note_on_c, 0, 86, 0
2, 311512, Note_on_c, 0, 77, 0
2, 311539, Note_on_c, 0, 84, 0
2, 311550, Note_on_c, 0, 84, 95
2, 311556, Note_on_c, 0, 77, 86
2, 311558, Note_on_c, 0, 55, 82
2, 311710, Note_on_c, 0, 62, 73
2, 311746, Note_on_c, 0, 62, 0
2, 311792, Control_c, 0, 64, 127
2, 311852, Note_on_c, 0, 65, 71
2, 312003, Note_on_c, 0, 69, 81
2, 312110, Control_c, 0, 64, 0
2, 312111, Note_on_c, 0, 84, 0
2, 312111, Note_on_c, 0, 55, 0
2, 312112, Note_on_c, 0, 77, 0
2, 312112, Note_on_c, 0, 69, 0
2, 312130, Note_on_c, 0, 65, 0
2, 312151, Note_on_c, 0, 83, 100
2, 312161, Note_on_c, 0, 55, 91
2, 312162, Note_on_c, 0, 74, 85
2, 312165, Note_on_c, 0, 79, 82
2, 312261, Control_c, 0, 64, 127
2, 312310, Note_on_c, 0, 62, 81
2, 312471, Note_on_c, 0, 67, 80
2, 312603, Note_on_c, 0, 71, 81
2, 312714, Note_on_c, 0, 74, 0
2, 312715, Control_c, 0, 64, 0
2, 312718, Note_on_c, 0, 62, 0
2, 312718, Note_on_c, 0, 67, 0
2, 312718, Note_on_c, 0, 79, 0
2, 312719, Note_on_c, 0, 83, 0
2, 312719, Note_on_c, 0, 71, 0
2, 312720, Note_on_c, 0, 55, 0
2, 312759, Note_on_c, 0, 84, 94
2, 312761, Note_on_c, 0, 48, 79
2, 312764, Note_on_c, 0, 72, 87
2, 312766, Note_on_c, 0, 79, 79
2, 312767, Note_on_c, 0, 76, 77
2, 312791, Control_c, 0, 64, 127
2, 312913, Note_on_c, 0, 72, 0
2, 312913, Note_on_c, 0, 76, 0
2, 312913, Note_on_c, 0, 79, 0
2, 312916, Note_on_c, 0, 60, 81
2, 312917, Note_on_c, 0, 79, 73
2, 312919, Note_on_c, 0, 76, 74
2, 312923, Note_on_c, 0, 72, 73
2, 312946, Control_c, 0, 64, 0
2, 312952, Note_on_c, 0, 48, 0
2, 312961, Note_on_c, 0, 60, 0
2, 313063, Note_on_c, 0, 43, 72
2, 313105, Note_on_c, 0, 76, 0
2, 313213, Note_on_c, 0, 72, 0
2, 313213, Note_on_c, 0, 79, 0
2, 313215, Note_on_c, 0, 55, 69
2, 313218, Note_on_c, 0, 76, 67
2, 313218, Note_on_c, 0, 79, 73
2, 313219, Note_on_c, 0, 72, 68
2, 313247, Note_on_c, 0, 43, 0
2, 313247, Note_on_c, 0, 55, 0
2, 313248, Note_on_c, 0, 72, 0
2, 313251, Note_on_c, 0, 84, 0
2, 313252, Note_on_c, 0, 76, 0
2, 313254, Note_on_c, 0, 79, 0
2, 313361, Note_on_c, 0, 46, 91
2, 313365, Note_on_c, 0, 72, 76
2, 313371, Note_on_c, 0, 76, 70
2, 313372, Note_on_c, 0, 79, 77
2, 313409, Note_on_c, 0, 76, 0
2, 313501, Note_on_c, 0, 58, 83
2, 313512, Note_on_c, 0, 72, 0
2, 313520, Note_on_c, 0, 79, 0
2, 313521, Note_on_c, 0, 76, 73
2, 313523, Note_on_c, 0, 72, 80
2, 313524, Note_on_c, 0, 79, 64
2, 313543, Note_on_c, 0, 46, 0
2, 313559, Note_on_c, 0, 58, 0
2, 313582, Note_on_c, 0, 76, 0
2, 313589, Note_on_c, 0, 72, 0
2, 313628, Note_on_c, 0, 79, 0
2, 313661, Note_on_c, 0, 43, 84
2, 313807, Note_on_c, 0, 79, 83
2, 313808, Note_on_c, 0, 55, 79
2, 313816, Note_on_c, 0, 72, 78
2, 313818, Note_on_c, 0, 76, 62
2, 313844, Note_on_c, 0, 55, 0
2, 313844, Note_on_c, 0, 43, 0
2, 313847, Note_on_c, 0, 79, 0
2, 313848, Note_on_c, 0, 76, 0
2, 313873, Note_on_c, 0, 72, 0
2, 313959, Note_on_c, 0, 45, 92
2, 313961, Note_on_c, 0, 81, 88
2, 313964, Note_on_c, 0, 72, 79
2, 313970, Note_on_c, 0, 77, 66
2, 314096, Note_on_c, 0, 81, 0
2, 314104, Note_on_c, 0, 72, 0
2, 314104, Note_on_c, 0, 77, 0
2, 314107, Note_on_c, 0, 81, 78
2, 314107, Note_on_c, 0, 57, 83
2, 314109, Note_on_c, 0, 72, 82
2, 314110, Note_on_c, 0, 77, 77
2, 314142, Note_on_c, 0, 45, 0
2, 314147, Note_on_c, 0, 57, 0
2, 314149, Note_on_c, 0, 72, 0
2, 314153, Note_on_c, 0, 77, 0
2, 314157, Note_on_c, 0, 81, 0
2, 314254, Note_on_c, 0, 43, 87
2, 314399, Note_on_c, 0, 81, 91
2, 314400, Note_on_c, 0, 55, 81
2, 314400, Note_on_c, 0, 72, 86
2, 314404, Note_on_c, 0, 77, 77
2, 314432, Note_on_c, 0, 77, 0
2, 314433, Note_on_c, 0, 43, 0
2, 314436, Note_on_c, 0, 72, 0
2, 314437, Note_on_c, 0, 55, 0
2, 314445, Note_on_c, 0, 81, 0
2, 314551, Note_on_c, 0, 80, 91
2, 314551, Note_on_c, 0, 44, 91
2, 314553, Note_on_c, 0, 72, 90
2, 314555, Note_on_c, 0, 75, 85
2, 314591, Note_on_c, 0, 72, 0
2, 314592, Note_on_c, 0, 75, 0
2, 314597, Note_on_c, 0, 80, 0
2, 314697, Note_on_c, 0, 80, 90
2, 314699, Note_on_c, 0, 56, 88
2, 314700, Note_on_c, 0, 72, 85
2, 314702, Note_on_c, 0, 75, 82
2, 314733, Note_on_c, 0, 72, 0
2, 314734, Note_on_c, 0, 56, 0
2, 314749, Note_on_c, 0, 44, 0
2, 314755, Note_on_c, 0, 80, 0
2, 314780, Note_on_c, 0, 75, 0
2, 314843, Note_on_c, 0, 42, 98
2, 314984, Note_on_c, 0, 80, 82
2, 314987, Note_on_c, 0, 54, 83
2, 314991, Note_on_c, 0, 72, 84
2, 314995, Note_on_c, 0, 75, 82
2, 315045, Note_on_c, 0, 54, 0
2, 315045, Note_on_c, 0, 72, 0
2, 315045, Note_on_c, 0, 42, 0
2, 315047, Note_on_c, 0, 75, 0
2, 315050, Note_on_c, 0, 80, 0
2, 315145, Note_on_c, 0, 79, 99
2, 315145, Note_on_c, 0, 43, 83
2, 315149, Note_on_c, 0, 76, 90
2, 315149, Note_on_c, 0, 72, 91
2, 315233, Control_c, 0, 64, 127
2, 315302, Control_c, 0, 64, 0
2, 315307, Note_on_c, 0, 72, 0
2, 315308, Note_on_c, 0, 43, 0
2, 315312, Note_on_c, 0, 79, 0
2, 315313, Note_on_c, 0, 76, 0
2, 315790, Note_on_c, 0, 84, 96
2, 315795, Note_on_c, 0, 72, 90
2, 315800, Note_on_c, 0, 43, 79
2, 315800, Note_on_c, 0, 77, 82
2, 315804, Note_on_c, 0, 79, 91
2, 315805, Note_on_c, 0, 76, 81
2, 315824, Control_c, 0, 64, 127
2, 315886, Note_on_c, 0, 77, 0
2, 315933, Note_on_c, 0, 72, 0
2, 315934, Control_c, 0, 64, 0
2, 315935, Note_on_c, 0, 84, 0
2, 315936, Note_on_c, 0, 79, 0
2, 315939, Note_on_c, 0, 76, 0
2, 315947, Note_on_c, 0, 43, 0
2, 316465, Note_on_c, 0, 86, 102
2, 316465, Note_on_c, 0, 53, 91
2, 316466, Note_on_c, 0, 41, 83
2, 316468, Note_on_c, 0, 74, 94
2, 316468, Note_on_c, 0, 81, 89
2, 316468, Note_on_c, 0, 77, 93
2, 316500, Control_c, 0, 64, 127
2, 316646, Note_on_c, 0, 74, 0
2, 316647, Note_on_c, 0, 41, 0
2, 316650, Note_on_c, 0, 81, 0
2, 316651, Control_c, 0, 64, 0
2, 316651, Note_on_c, 0, 86, 0
2, 316657, Note_on_c, 0, 77, 0
2, 316661, Note_on_c, 0, 53, 0
2, 317151, Note_on_c, 0, 87, 103
2, 317152, Note_on_c, 0, 77, 100
2, 317156, Note_on_c, 0, 41, 86
2, 317156, Note_on_c, 0, 53, 94
2, 317156, Note_on_c, 0, 81, 95
2, 317158, Note_on_c, 0, 75, 98
2, 317184, Control_c, 0, 64, 127
2, 317391, Note_on_c, 0, 77, 0
2, 317396, Note_on_c, 0, 41, 0
2, 317402, Note_on_c, 0, 81, 0
2, 317404, Note_on_c, 0, 87, 0
2, 317406, Note_on_c, 0, 53, 0
2, 317410, Control_c, 0, 64, 0
2, 317414, Note_on_c, 0, 75, 0
2, 317951, Note_on_c, 0, 88, 97
2, 317953, Note_on_c, 0, 84, 90
2, 317955, Note_on_c, 0, 40, 78
2, 317956, Note_on_c, 0, 76, 91
2, 317957, Note_on_c, 0, 81, 90
2, 318266, Control_c, 0, 64, 127
2, 319725, Note_on_c, 0, 52, 54
2, 320067, Note_on_c, 0, 57, 66
2, 320260, Note_on_c, 0, 60, 73
2, 320419, Note_on_c, 0, 64, 81
2, 320576, Note_on_c, 0, 69, 77
2, 320640, Note_on_c, 0, 40, 0
2, 320640, Note_on_c, 0, 76, 0
2, 320640, Note_on_c, 0, 81, 0
2, 320640, Note_on_c, 0, 84, 0
2, 320640, Note_on_c, 0, 88, 0
2, 320765, Note_on_c, 0, 72, 75
2, 321139, Note_on_c, 0, 76, 83
2, 323055, Note_on_c, 0, 68, 66
2, 323079, Note_on_c, 0, 62, 46
2, 323079, Note_on_c, 0, 59, 46
2, 323134, Control_c, 0, 64, 0
2, 323136, Note_on_c, 0, 64, 0
2, 323136, Note_on_c, 0, 60, 0
2, 323137, Note_on_c, 0, 69, 0
2, 323138, Note_on_c, 0, 72, 0
2, 323139, Note_on_c, 0, 57, 0
2, 323139, Note_on_c, 0, 76, 0
2, 323312, Control_c, 0, 64, 127
2, 323552, Note_on_c, 0, 66, 62
2, 323907, Note_on_c, 0, 64, 68
2, 324334, Note_on_c, 0, 52, 0
2, 324377, Note_on_c, 0, 74, 66
2, 324500, Control_c, 0, 64, 0
2, 324533, Control_c, 0, 64, 127
2, 325502, Note_on_c, 0, 71, 65
2, 326270, Note_on_c, 0, 57, 57
2, 326272, Note_on_c, 0, 76, 67
2, 326317, Control_c, 0, 64, 0
2, 326324, Note_on_c, 0, 62, 0
2, 326324, Note_on_c, 0, 64, 0
2, 326325, Note_on_c, 0, 71, 0
2, 326325, Note_on_c, 0, 68, 0
2, 326325, Note_on_c, 0, 66, 0
2, 326326, Note_on_c, 0, 59, 0
2, 326326, Note_on_c, 0, 74, 0
2, 326423, Control_c, 0, 64, 127
2, 326700, Note_on_c, 0, 61, 50
2, 326703, Note_on_c, 0, 64, 52
2, 326976, Note_on_c, 0, 64, 0
2, 326986, Note_on_c, 0, 64, 53
2, 327014, Note_on_c, 0, 61, 0
2, 327021, Note_on_c, 0, 61, 48
2, 327242, Note_on_c, 0, 73, 76
2, 327252, Note_on_c, 0, 57, 0
2, 327258, Note_on_c, 0, 57, 48
2, 327278, Control_c, 0, 64, 0
2, 327280, Note_on_c, 0, 64, 0
2, 327281, Note_on_c, 0, 61, 0
2, 327313, Control_c, 0, 64, 127
2, 327490, Note_on_c, 0, 64, 65
2, 327522, Note_on_c, 0, 61, 50
2, 327744, Note_on_c, 0, 61, 0
2, 327744, Note_on_c, 0, 64, 0
2, 327749, Note_on_c, 0, 61, 53
2, 327751, Note_on_c, 0, 64, 63
2, 327859, Note_on_c, 0, 76, 0
2, 327865, Note_on_c, 0, 76, 74
2, 327995, Note_on_c, 0, 74, 70
2, 327999, Note_on_c, 0, 59, 58
2, 328010, Control_c, 0, 64, 0
2, 328012, Note_on_c, 0, 61, 0
2, 328013, Note_on_c, 0, 73, 0
2, 328014, Note_on_c, 0, 64, 0
2, 328015, Note_on_c, 0, 76, 0
2, 328028, Note_on_c, 0, 57, 0
2, 328112, Control_c, 0, 64, 127
2, 328229, Note_on_c, 0, 62, 64
2, 328235, Note_on_c, 0, 64, 56
2, 328435, Note_on_c, 0, 64, 0
2, 328445, Note_on_c, 0, 64, 50
2, 328450, Note_on_c, 0, 59, 0
2, 328465, Note_on_c, 0, 62, 0
2, 328471, Note_on_c, 0, 62, 49
2, 328683, Note_on_c, 0, 59, 60
2, 328683, Note_on_c, 0, 71, 72
2, 328698, Control_c, 0, 64, 0
2, 328750, Control_c, 0, 64, 127
2, 328888, Note_on_c, 0, 64, 0
2, 328896, Note_on_c, 0, 62, 0
2, 328898, Note_on_c, 0, 64, 65
2, 328899, Note_on_c, 0, 62, 56
2, 329111, Note_on_c, 0, 64, 0
2, 329120, Note_on_c, 0, 64, 65
2, 329149, Note_on_c, 0, 62, 0
2, 329154, Note_on_c, 0, 62, 54
2, 329356, Note_on_c, 0, 74, 0
2, 329361, Note_on_c, 0, 74, 79
2, 329364, Note_on_c, 0, 59, 0
2, 329368, Note_on_c, 0, 56, 66
2, 329371, Note_on_c, 0, 59, 47
2, 329374, Control_c, 0, 64, 0
2, 329377, Note_on_c, 0, 64, 0
2, 329378, Note_on_c, 0, 71, 0
2, 329378, Note_on_c, 0, 62, 0
2, 329441, Control_c, 0, 64, 127
2, 329602, Note_on_c, 0, 59, 0
2, 329603, Note_on_c, 0, 64, 64
2, 329608, Note_on_c, 0, 62, 53
2, 329612, Note_on_c, 0, 59, 55
2, 329794, Note_on_c, 0, 62, 0
2, 329800, Note_on_c, 0, 62, 50
2, 329825, Note_on_c, 0, 64, 0
2, 329830, Note_on_c, 0, 64, 72
2, 330060, Note_on_c, 0, 71, 78
2, 330067, Note_on_c, 0, 52, 57
2, 330286, Note_on_c, 0, 64, 0
2, 330289, Note_on_c, 0, 78, 90
2, 330297, Note_on_c, 0, 64, 61
2, 330301, Note_on_c, 0, 59, 0
2, 330308, Note_on_c, 0, 59, 56
2, 330339, Note_on_c, 0, 56, 0
2, 330343, Note_on_c, 0, 56, 21
2, 330501, Note_on_c, 0, 56, 0
2, 330501, Note_on_c, 0, 59, 0
2, 330501, Note_on_c, 0, 64, 0
2, 330510, Note_on_c, 0, 56, 58
2, 330511, Note_on_c, 0, 64, 72
2, 330511, Note_on_c, 0, 59, 61
2, 330627, Note_on_c, 0, 75, 80
2, 330728, Control_c, 0, 64, 0
2, 330732, Note_on_c, 0, 57, 64
2, 330732, Note_on_c, 0, 78, 0
2, 330732, Note_on_c, 0, 62, 0
2, 330733, Note_on_c, 0, 74, 0
2, 330733, Note_on_c, 0, 71, 0
2, 330733, Note_on_c, 0, 56, 0
2, 330733, Note_on_c, 0, 52, 0
2, 330733, Note_on_c, 0, 64, 0
2, 330734, Note_on_c, 0, 76, 82
2, 330746, Note_on_c, 0, 59, 0
2, 330785, Note_on_c, 0, 75, 0
2, 330831, Control_c, 0, 64, 127
2, 330932, Note_on_c, 0, 64, 62
2, 330943, Note_on_c, 0, 61, 58
2, 331138, Note_on_c, 0, 61, 0
2, 331138, Note_on_c, 0, 64, 0
2, 331145, Note_on_c, 0, 64, 73
2, 331149, Note_on_c, 0, 61, 57
2, 331368, Note_on_c, 0, 57, 0
2, 331375, Note_on_c, 0, 57, 56
2, 331376, Note_on_c, 0, 61, 0
2, 331380, Note_on_c, 0, 73, 81
2, 331384, Note_on_c, 0, 61, 46
2, 331402, Note_on_c, 0, 64, 0
2, 331403, Control_c, 0, 64, 0
2, 331406, Note_on_c, 0, 76, 0
2, 331491, Control_c, 0, 64, 127
2, 331576, Note_on_c, 0, 61, 0
2, 331596, Note_on_c, 0, 64, 64
2, 331599, Note_on_c, 0, 61, 61
2, 331799, Note_on_c, 0, 64, 0
2, 331808, Note_on_c, 0, 64, 79
2, 331822, Note_on_c, 0, 61, 0
2, 331829, Note_on_c, 0, 61, 61
2, 332052, Note_on_c, 0, 57, 0
2, 332058, Note_on_c, 0, 76, 83
2, 332062, Note_on_c, 0, 57, 64
2, 332063, Control_c, 0, 64, 0
2, 332067, Note_on_c, 0, 61, 0
2, 332067, Note_on_c, 0, 73, 0
2, 332106, Note_on_c, 0, 64, 0
2, 332136, Control_c, 0, 64, 127
2, 332264, Note_on_c, 0, 64, 54
2, 332280, Note_on_c, 0, 61, 60
2, 332482, Note_on_c, 0, 64, 0
2, 332490, Note_on_c, 0, 61, 0
2, 332494, Note_on_c, 0, 64, 62
2, 332497, Note_on_c, 0, 61, 58
2, 332712, Note_on_c, 0, 57, 0
2, 332717, Note_on_c, 0, 73, 79
2, 332717, Note_on_c, 0, 57, 62
2, 332733, Control_c, 0, 64, 0
2, 332735, Note_on_c, 0, 61, 0
2, 332812, Control_c, 0, 64, 127
2, 332820, Note_on_c, 0, 64, 0
2, 332909, Note_on_c, 0, 64, 76
2, 332946, Note_on_c, 0, 61, 58
2, 333112, Note_on_c, 0, 64, 0
2, 333120, Note_on_c, 0, 61, 0
2, 333123, Note_on_c, 0, 64, 76
2, 333128, Note_on_c, 0, 61, 64
2, 333219, Note_on_c, 0, 76, 0
2, 333228, Note_on_c, 0, 76, 75
2, 333312, Note_on_c, 0, 57, 0
2, 333320, Note_on_c, 0, 57, 64
2, 333347, Note_on_c, 0, 78, 88
2, 333347, Control_c, 0, 64, 0
2, 333350, Note_on_c, 0, 73, 0
2, 333373, Note_on_c, 0, 61, 0
2, 333378, Note_on_c, 0, 76, 0
2, 333381, Note_on_c, 0, 64, 0
2, 333434, Control_c, 0, 64, 127
2, 333561, Note_on_c, 0, 66, 71
2, 333564, Note_on_c, 0, 59, 57
2, 333567, Note_on_c, 0, 62, 61
2, 333772, Note_on_c, 0, 66, 0
2, 333780, Note_on_c, 0, 66, 69
2, 333788, Note_on_c, 0, 59, 0
2, 333788, Note_on_c, 0, 62, 0
2, 333792, Note_on_c, 0, 62, 57
2, 333796, Note_on_c, 0, 59, 62
2, 334010, Note_on_c, 0, 57, 0
2, 334014, Note_on_c, 0, 74, 83
2, 334017, Note_on_c, 0, 57, 74
2, 334030, Control_c, 0, 64, 0
2, 334037, Note_on_c, 0, 78, 0
2, 334038, Note_on_c, 0, 59, 0
2, 334038, Note_on_c, 0, 62, 0
2, 334042, Note_on_c, 0, 66, 0
2, 334095, Control_c, 0, 64, 127
2, 334227, Note_on_c, 0, 62, 65
2, 334228, Note_on_c, 0, 66, 70
2, 334235, Note_on_c, 0, 59, 64
2, 334433, Note_on_c, 0, 59, 0
2, 334437, Note_on_c, 0, 59, 58
2, 334448, Note_on_c, 0, 66, 0
2, 334452, Note_on_c, 0, 66, 76
2, 334456, Note_on_c, 0, 62, 0
2, 334467, Note_on_c, 0, 62, 75
2, 334686, Note_on_c, 0, 78, 94
2, 334687, Note_on_c, 0, 56, 72
2, 334699, Control_c, 0, 64, 0
2, 334700, Note_on_c, 0, 62, 0
2, 334702, Note_on_c, 0, 74, 0
2, 334702, Note_on_c, 0, 66, 0
2, 334702, Note_on_c, 0, 59, 0
2, 334717, Note_on_c, 0, 57, 0
2, 334771, Control_c, 0, 64, 127
2, 334905, Note_on_c, 0, 66, 75
2, 334907, Note_on_c, 0, 62, 69
2, 334912, Note_on_c, 0, 59, 61
2, 335093, Note_on_c, 0, 66, 0
2, 335103, Note_on_c, 0, 66, 79
2, 335116, Note_on_c, 0, 62, 0
2, 335127, Note_on_c, 0, 62, 55
2, 335320, Note_on_c, 0, 62, 0
2, 335320, Control_c, 0, 64, 0
2, 335320, Note_on_c, 0, 56, 0
2, 335331, Note_on_c, 0, 66, 0
2, 335336, Note_on_c, 0, 76, 84
2, 335339, Note_on_c, 0, 59, 0
2, 335344, Note_on_c, 0, 52, 65
2, 335354, Note_on_c, 0, 78, 0
2, 335393, Control_c, 0, 64, 127
2, 335565, Note_on_c, 0, 78, 90
2, 335573, Note_on_c, 0, 64, 73
2, 335581, Note_on_c, 0, 59, 68
2, 335589, Note_on_c, 0, 56, 54
2, 335769, Note_on_c, 0, 64, 0
2, 335775, Note_on_c, 0, 64, 65
2, 335846, Note_on_c, 0, 76, 0
2, 335851, Note_on_c, 0, 76, 73
2, 336002, Note_on_c, 0, 81, 96
2, 336003, Note_on_c, 0, 57, 83
2, 336030, Note_on_c, 0, 73, 70
2, 336036, Note_on_c, 0, 59, 0
2, 336036, Note_on_c, 0, 56, 0
2, 336036, Note_on_c, 0, 78, 0
2, 336040, Note_on_c, 0, 64, 0
2, 336041, Note_on_c, 0, 76, 0
2, 336044, Note_on_c, 0, 52, 0
2, 336045, Control_c, 0, 64, 0
2, 336095, Note_on_c, 0, 57, 0
2, 336220, Note_on_c, 0, 59, 78
2, 336293, Note_on_c, 0, 59, 0
2, 336439, Note_on_c, 0, 60, 73
2, 336486, Note_on_c, 0, 60, 0
2, 336698, Note_on_c, 0, 61, 71
2, 336760, Control_c, 0, 64, 127
2, 337232, Note_on_c, 0, 71, 71
2, 337291, Note_on_c, 0, 74, 74
2, 337338, Note_on_c, 0, 78, 76
2, 337370, Note_on_c, 0, 83, 92
2, 337378, Note_on_c, 0, 62, 82
2, 337381, Control_c, 0, 64, 0
2, 337388, Note_on_c, 0, 81, 0
2, 337391, Note_on_c, 0, 71, 0
2, 337393, Note_on_c, 0, 61, 0
2, 337394, Note_on_c, 0, 73, 0
2, 337394, Note_on_c, 0, 74, 0
2, 337401, Note_on_c, 0, 78, 0
2, 337417, Note_on_c, 0, 83, 0
2, 337441, Note_on_c, 0, 62, 0
2, 337591, Note_on_c, 0, 81, 93
2, 337609, Note_on_c, 0, 69, 75
2, 337611, Note_on_c, 0, 66, 75
2, 337647, Note_on_c, 0, 66, 0
2, 337652, Note_on_c, 0, 69, 0
2, 337816, Note_on_c, 0, 69, 64
2, 337817, Note_on_c, 0, 66, 68
2, 337900, Note_on_c, 0, 74, 81
2, 337925, Note_on_c, 0, 69, 0
2, 337926, Note_on_c, 0, 81, 0
2, 338014, Note_on_c, 0, 66, 0
2, 338023, Note_on_c, 0, 78, 92
2, 338026, Note_on_c, 0, 74, 0
2, 338026, Note_on_c, 0, 62, 79
2, 338104, Control_c, 0, 64, 127
2, 338238, Note_on_c, 0, 69, 76
2, 338354, Note_on_c, 0, 66, 75
2, 338419, Note_on_c, 0, 62, 0
2, 338428, Note_on_c, 0, 62, 78
2, 338557, Note_on_c, 0, 69, 0
2, 338561, Note_on_c, 0, 69, 71
2, 338608, Note_on_c, 0, 73, 67
2, 338635, Note_on_c, 0, 62, 0
2, 338637, Note_on_c, 0, 66, 0
2, 338637, Note_on_c, 0, 69, 0
2, 338637, Control_c, 0, 64, 0
2, 338639, Note_on_c, 0, 78, 0
2, 338653, Note_on_c, 0, 76, 89
2, 338653, Note_on_c, 0, 57, 86
2, 338680, Note_on_c, 0, 73, 0
2, 338685, Note_on_c, 0, 76, 0
2, 338691, Note_on_c, 0, 57, 0
2, 338870, Note_on_c, 0, 78, 93
2, 338874, Note_on_c, 0, 64, 79
2, 338876, Note_on_c, 0, 61, 68
2, 338900, Note_on_c, 0, 64, 0
2, 338904, Note_on_c, 0, 61, 0
2, 339077, Note_on_c, 0, 64, 76
2, 339081, Note_on_c, 0, 61, 64
2, 339121, Note_on_c, 0, 64, 0
2, 339123, Note_on_c, 0, 61, 0
2, 339182, Note_on_c, 0, 76, 79
2, 339189, Note_on_c, 0, 78, 0
2, 339297, Note_on_c, 0, 73, 91
2, 339298, Note_on_c, 0, 57, 77
2, 339312, Note_on_c, 0, 76, 0
2, 339379, Control_c, 0, 64, 127
2, 339496, Note_on_c, 0, 64, 79
2, 339613, Note_on_c, 0, 61, 72
2, 339701, Note_on_c, 0, 57, 0
2, 339711, Note_on_c, 0, 57, 75
2, 339828, Note_on_c, 0, 68, 75
2, 339875, Note_on_c, 0, 71, 76
2, 339907, Control_c, 0, 64, 0
2, 339907, Note_on_c, 0, 61, 0
2, 339908, Note_on_c, 0, 64, 0
2, 339909, Note_on_c, 0, 73, 0
2, 339910, Note_on_c, 0, 57, 0
2, 339911, Note_on_c, 0, 68, 0
2, 339920, Note_on_c, 0, 74, 97
2, 339923, Note_on_c, 0, 52, 79
2, 339950, Note_on_c, 0, 71, 0
2, 339950, Note_on_c, 0, 74, 0
2, 340001, Note_on_c, 0, 52, 0
2, 340136, Note_on_c, 0, 73, 91
2, 340145, Note_on_c, 0, 68, 71
2, 340150, Note_on_c, 0, 62, 73
2, 340150, Note_on_c, 0, 59, 73
2, 340152, Note_on_c, 0, 56, 63
2, 340182, Note_on_c, 0, 62, 0
2, 340184, Note_on_c, 0, 59, 0
2, 340188, Note_on_c, 0, 56, 0
2, 340239, Note_on_c, 0, 68, 0
2, 340300, Control_c, 0, 64, 127
2, 340340, Note_on_c, 0, 62, 72
2, 340350, Note_on_c, 0, 56, 56
2, 340350, Note_on_c, 0, 59, 55
2, 340390, Note_on_c, 0, 62, 0
2, 340397, Note_on_c, 0, 56, 0
2, 340400, Control_c, 0, 64, 0
2, 340421, Note_on_c, 0, 71, 83
2, 340439, Note_on_c, 0, 59, 0
2, 340459, Note_on_c, 0, 73, 0
2, 340467, Note_on_c, 0, 71, 0
2, 340547, Note_on_c, 0, 52, 78
2, 340552, Note_on_c, 0, 78, 96
2, 340581, Note_on_c, 0, 68, 70
2, 340585, Note_on_c, 0, 52, 0
2, 340766, Note_on_c, 0, 54, 76
2, 340798, Note_on_c, 0, 54, 0
2, 340980, Note_on_c, 0, 56, 89
2, 341004, Note_on_c, 0, 68, 0
2, 341007, Control_c, 0, 64, 127
2, 341161, Note_on_c, 0, 69, 70
2, 341173, Control_c, 0, 64, 0
2, 341174, Note_on_c, 0, 73, 74
2, 341180, Note_on_c, 0, 78, 0
2, 341184, Note_on_c, 0, 56, 0
2, 341190, Note_on_c, 0, 57, 83
2, 341194, Note_on_c, 0, 76, 90
2, 341221, Note_on_c, 0, 69, 0
2, 341221, Note_on_c, 0, 73, 0
2, 341225, Note_on_c, 0, 57, 0
2, 341226, Note_on_c, 0, 76, 0
2, 341416, Note_on_c, 0, 64, 86
2, 341417, Note_on_c, 0, 75, 97
2, 341419, Note_on_c, 0, 61, 73
2, 341453, Note_on_c, 0, 64, 0
2, 341456, Note_on_c, 0, 61, 0
2, 341498, Control_c, 0, 64, 127
2, 341623, Note_on_c, 0, 64, 75
2, 341625, Note_on_c, 0, 61, 63
2, 341706, Note_on_c, 0, 76, 80
2, 341775, Control_c, 0, 64, 0
2, 341776, Note_on_c, 0, 61, 0
2, 341777, Note_on_c, 0, 64, 0
2, 341777, Note_on_c, 0, 75, 0
2, 341778, Note_on_c, 0, 76, 0
2, 341818, Note_on_c, 0, 57, 82
2, 341822, Note_on_c, 0, 81, 99
2, 341841, Note_on_c, 0, 73, 72
2, 341843, Note_on_c, 0, 69, 68
2, 341860, Note_on_c, 0, 57, 0
2, 342051, Note_on_c, 0, 59, 73
2, 342087, Note_on_c, 0, 59, 0
2, 342263, Note_on_c, 0, 61, 76
2, 342282, Control_c, 0, 64, 127
2, 342401, Note_on_c, 0, 71, 71
2, 342423, Note_on_c, 0, 74, 68
2, 342453, Note_on_c, 0, 78, 75
2, 342474, Note_on_c, 0, 62, 78
2, 342481, Note_on_c, 0, 83, 94
2, 342499, Note_on_c, 0, 81, 0
2, 342500, Note_on_c, 0, 69, 0
2, 342500, Control_c, 0, 64, 0
2, 342500, Note_on_c, 0, 71, 0
2, 342501, Note_on_c, 0, 73, 0
2, 342501, Note_on_c, 0, 61, 0
2, 342501, Note_on_c, 0, 74, 0
2, 342503, Note_on_c, 0, 78, 0
2, 342508, Note_on_c, 0, 62, 0
2, 342512, Note_on_c, 0, 83, 0
2, 342703, Note_on_c, 0, 81, 89
2, 342706, Note_on_c, 0, 66, 82
2, 342707, Note_on_c, 0, 69, 84
2, 342739, Note_on_c, 0, 66, 0
2, 342904, Note_on_c, 0, 69, 0
2, 342907, Note_on_c, 0, 66, 77
2, 342909, Note_on_c, 0, 69, 66
2, 342947, Note_on_c, 0, 66, 0
2, 342997, Note_on_c, 0, 74, 79
2, 343039, Note_on_c, 0, 81, 0
2, 343088, Note_on_c, 0, 74, 0
2, 343103, Note_on_c, 0, 78, 93
2, 343130, Note_on_c, 0, 62, 82
2, 343165, Control_c, 0, 64, 127
2, 343326, Note_on_c, 0, 69, 0
2, 343331, Note_on_c, 0, 69, 77
2, 343437, Note_on_c, 0, 66, 70
2, 343495, Note_on_c, 0, 62, 0
2, 343506, Note_on_c, 0, 62, 84
2, 343656, Note_on_c, 0, 69, 0
2, 343662, Note_on_c, 0, 69, 61
2, 343699, Note_on_c, 0, 73, 63
2, 343719, Note_on_c, 0, 66, 0
2, 343720, Note_on_c, 0, 69, 0
2, 343721, Control_c, 0, 64, 0
2, 343722, Note_on_c, 0, 78, 0
2, 343730, Note_on_c, 0, 76, 90
2, 343732, Note_on_c, 0, 57, 86
2, 343741, Note_on_c, 0, 62, 0
2, 343768, Note_on_c, 0, 73, 0
2, 343774, Note_on_c, 0, 76, 0
2, 343777, Note_on_c, 0, 57, 0
2, 343953, Note_on_c, 0, 78, 91
2, 343954, Note_on_c, 0, 64, 84
2, 343958, Note_on_c, 0, 61, 79
2, 343988, Note_on_c, 0, 73, 53
2, 343990, Note_on_c, 0, 64, 0
2, 343991, Note_on_c, 0, 61, 0
2, 344064, Control_c, 0, 64, 127
2, 344167, Note_on_c, 0, 64, 81
2, 344169, Note_on_c, 0, 61, 76
2, 344232, Note_on_c, 0, 78, 0
2, 344236, Note_on_c, 0, 78, 67
2, 344237, Note_on_c, 0, 76, 78
2, 344368, Note_on_c, 0, 81, 100
2, 344378, Note_on_c, 0, 61, 0
2, 344378, Note_on_c, 0, 76, 0
2, 344380, Note_on_c, 0, 64, 0
2, 344383, Note_on_c, 0, 78, 0
2, 344386, Note_on_c, 0, 73, 0
2, 344388, Note_on_c, 0, 76, 74
2, 344388, Note_on_c, 0, 57, 82
2, 344390, Control_c, 0, 64, 0
2, 344392, Note_on_c, 0, 73, 63
2, 344486, Control_c, 0, 64, 127
2, 344576, Note_on_c, 0, 64, 92
2, 344690, Note_on_c, 0, 61, 82
2, 344770, Note_on_c, 0, 57, 0
2, 344776, Note_on_c, 0, 57, 85
2, 344915, Note_on_c, 0, 71, 74
2, 344931, Note_on_c, 0, 76, 0
2, 344942, Note_on_c, 0, 76, 70
2, 344967, Note_on_c, 0, 80, 98
2, 344969, Control_c, 0, 64, 0
2, 344974, Note_on_c, 0, 57, 0
2, 344974, Note_on_c, 0, 61, 0
2, 344975, Note_on_c, 0, 73, 0
2, 344975, Note_on_c, 0, 64, 0
2, 344976, Note_on_c, 0, 81, 0
2, 344977, Note_on_c, 0, 71, 0
2, 344983, Note_on_c, 0, 52, 89
2, 345018, Note_on_c, 0, 52, 0
2, 345039, Note_on_c, 0, 76, 0
2, 345185, Note_on_c, 0, 80, 0
2, 345211, Note_on_c, 0, 78, 96
2, 345214, Note_on_c, 0, 59, 88
2, 345218, Note_on_c, 0, 56, 84
2, 345246, Note_on_c, 0, 56, 0
2, 345269, Note_on_c, 0, 59, 0
2, 345417, Note_on_c, 0, 59, 79
2, 345418, Note_on_c, 0, 68, 70
2, 345418, Note_on_c, 0, 56, 72
2, 345462, Note_on_c, 0, 59, 0
2, 345470, Note_on_c, 0, 56, 0
2, 345497, Note_on_c, 0, 76, 82
2, 345515, Note_on_c, 0, 68, 0
2, 345530, Note_on_c, 0, 78, 0
2, 345540, Note_on_c, 0, 76, 0
2, 345619, Note_on_c, 0, 52, 82
2, 345623, Note_on_c, 0, 80, 100
2, 345635, Note_on_c, 0, 71, 82
2, 345641, Note_on_c, 0, 76, 76
2, 345664, Note_on_c, 0, 52, 0
2, 345832, Note_on_c, 0, 54, 86
2, 345863, Note_on_c, 0, 54, 0
2, 346043, Note_on_c, 0, 56, 80
2, 346082, Note_on_c, 0, 56, 0
2, 346220, Note_on_c, 0, 69, 65
2, 346242, Note_on_c, 0, 73, 69
2, 346252, Note_on_c, 0, 76, 0
2, 346257, Note_on_c, 0, 71, 0
2, 346257, Note_on_c, 0, 76, 69
2, 346265, Note_on_c, 0, 57, 87
2, 346268, Note_on_c, 0, 81, 98
2, 346274, Note_on_c, 0, 69, 0
2, 346288, Note_on_c, 0, 73, 0
2, 346297, Note_on_c, 0, 57, 0
2, 346298, Note_on_c, 0, 80, 0
2, 346326, Note_on_c, 0, 81, 0
2, 346391, Note_on_c, 0, 76, 0
2, 346486, Note_on_c, 0, 80, 90
2, 346502, Note_on_c, 0, 64, 75
2, 346504, Note_on_c, 0, 69, 54
2, 346505, Note_on_c, 0, 61, 68
2, 346552, Note_on_c, 0, 64, 0
2, 346560, Note_on_c, 0, 61, 0
2, 346606, Control_c, 0, 64, 127
2, 346692, Note_on_c, 0, 64, 73
2, 346724, Note_on_c, 0, 61, 54
2, 346782, Note_on_c, 0, 81, 82
2, 346917, Note_on_c, 0, 61, 0
2, 346919, Note_on_c, 0, 64, 0
2, 346919, Control_c, 0, 64, 0
2, 346920, Note_on_c, 0, 80, 0
2, 346920, Note_on_c, 0, 81, 0
2, 346926, Note_on_c, 0, 57, 68
2, 346939, Note_on_c, 0, 85, 92
2, 346949, Note_on_c, 0, 73, 63
2, 346956, Note_on_c, 0, 76, 61
2, 346997, Note_on_c, 0, 69, 0
2, 347128, Control_c, 0, 64, 127
2, 347180, Note_on_c, 0, 64, 69
2, 347420, Note_on_c, 0, 69, 58
2, 347750, Note_on_c, 0, 73, 0
2, 347759, Note_on_c, 0, 73, 64
2, 347759, Note_on_c, 0, 88, 72
2, 347880, Note_on_c, 0, 85, 0
2, 347891, Note_on_c, 0, 85, 79
2, 348020, Note_on_c, 0, 81, 72
2, 348142, Note_on_c, 0, 76, 0
2, 348147, Note_on_c, 0, 76, 49
2, 348234, Note_on_c, 0, 73, 0
2, 348238, Note_on_c, 0, 73, 59
2, 348341, Note_on_c, 0, 69, 0
2, 348350, Note_on_c, 0, 69, 65
2, 348456, Note_on_c, 0, 85, 0
2, 348467, Note_on_c, 0, 85, 87
2, 348564, Note_on_c, 0, 81, 0
2, 348570, Note_on_c, 0, 81, 71
2, 348679, Note_on_c, 0, 76, 0
2, 348686, Note_on_c, 0, 76, 70
2, 348787, Note_on_c, 0, 73, 0
2, 348797, Note_on_c, 0, 73, 61
2, 348887, Note_on_c, 0, 88, 0
2, 348891, Note_on_c, 0, 88, 79
2, 348894, Note_on_c, 0, 69, 0
2, 348903, Note_on_c, 0, 69, 74
2, 349009, Note_on_c, 0, 76, 0
2, 349020, Note_on_c, 0, 76, 61
2, 349114, Note_on_c, 0, 81, 0
2, 349114, Note_on_c, 0, 73, 0
2, 349115, Note_on_c, 0, 57, 0
2, 349116, Note_on_c, 0, 64, 0
2, 349116, Note_on_c, 0, 88, 0
2, 349119, Control_c, 0, 64, 0
2, 349128, Note_on_c, 0, 86, 90
2, 349129, Note_on_c, 0, 59, 77
2, 349132, Note_on_c, 0, 76, 0
2, 349132, Note_on_c, 0, 85, 0
2, 349148, Note_on_c, 0, 69, 0
2, 349186, Control_c, 0, 64, 127
2, 349243, Note_on_c, 0, 81, 78
2, 349361, Note_on_c, 0, 78, 71
2, 349445, Note_on_c, 0, 74, 66
2, 349552, Note_on_c, 0, 71, 57
2, 349652, Note_on_c, 0, 69, 69
2, 349753, Note_on_c, 0, 83, 94
2, 349877, Note_on_c, 0, 78, 0
2, 349883, Note_on_c, 0, 78, 78
2, 349977, Note_on_c, 0, 74, 0
2, 349988, Note_on_c, 0, 74, 75
2, 350077, Note_on_c, 0, 71, 0
2, 350088, Note_on_c, 0, 71, 56
2, 350177, Note_on_c, 0, 69, 0
2, 350182, Note_on_c, 0, 69, 68
2, 350287, Note_on_c, 0, 66, 60
2, 350394, Note_on_c, 0, 59, 0
2, 350394, Note_on_c, 0, 81, 0
2, 350395, Note_on_c, 0, 69, 0
2, 350395, Note_on_c, 0, 74, 0
2, 350396, Note_on_c, 0, 66, 0
2, 350396, Note_on_c, 0, 78, 0
2, 350396, Note_on_c, 0, 83, 0
2, 350396, Note_on_c, 0, 71, 0
2, 350398, Control_c, 0, 64, 0
2, 350415, Note_on_c, 0, 86, 0
2, 350419, Note_on_c, 0, 86, 89
2, 350426, Note_on_c, 0, 52, 72
2, 350476, Control_c, 0, 64, 127
2, 350531, Note_on_c, 0, 83, 82
2, 350553, Note_on_c, 0, 52, 0
2, 350650, Note_on_c, 0, 80, 78
2, 350746, Note_on_c, 0, 74, 65
2, 350849, Note_on_c, 0, 71, 75
2, 350961, Note_on_c, 0, 68, 71
2, 351052, Note_on_c, 0, 83, 0
2, 351056, Note_on_c, 0, 83, 88
2, 351144, Note_on_c, 0, 80, 0
2, 351156, Note_on_c, 0, 80, 80
2, 351258, Note_on_c, 0, 90, 93
2, 351260, Note_on_c, 0, 74, 0
2, 351264, Note_on_c, 0, 74, 81
2, 351367, Note_on_c, 0, 71, 0
2, 351376, Note_on_c, 0, 71, 75
2, 351459, Note_on_c, 0, 68, 0
2, 351463, Note_on_c, 0, 87, 89
2, 351466, Note_on_c, 0, 68, 85
2, 351673, Note_on_c, 0, 88, 91
2, 351679, Note_on_c, 0, 74, 0
2, 351679, Control_c, 0, 64, 0
2, 351680, Note_on_c, 0, 71, 0
2, 351680, Note_on_c, 0, 80, 0
2, 351681, Note_on_c, 0, 83, 0
2, 351681, Note_on_c, 0, 86, 0
2, 351683, Note_on_c, 0, 90, 0
2, 351686, Note_on_c, 0, 57, 69
2, 351697, Note_on_c, 0, 68, 0
2, 351705, Note_on_c, 0, 87, 0
2, 351744, Control_c, 0, 64, 127
2, 351785, Note_on_c, 0, 85, 90
2, 351901, Note_on_c, 0, 81, 79
2, 351995, Note_on_c, 0, 76, 69
2, 352089, Note_on_c, 0, 73, 79
2, 352202, Note_on_c, 0, 69, 67
2, 352312, Note_on_c, 0, 85, 0
2, 352320, Note_on_c, 0, 85, 97
2, 352412, Note_on_c, 0, 81, 0
2, 352416, Note_on_c, 0, 81, 77
2, 352527, Note_on_c, 0, 76, 0
2, 352536, Note_on_c, 0, 76, 74
2, 352611, Note_on_c, 0, 73, 0
2, 352616, Note_on_c, 0, 73, 76
2, 352734, Note_on_c, 0, 69, 0
2, 352738, Note_on_c, 0, 69, 76
2, 352843, Note_on_c, 0, 64, 79
2, 352946, Note_on_c, 0, 81, 0
2, 352946, Note_on_c, 0, 73, 0
2, 352946, Note_on_c, 0, 85, 0
2, 352947, Control_c, 0, 64, 0
2, 352948, Note_on_c, 0, 76, 0
2, 352957, Note_on_c, 0, 57, 0
2, 352957, Note_on_c, 0, 88, 0
2, 352961, Note_on_c, 0, 57, 80
2, 352962, Note_on_c, 0, 88, 90
2, 353018, Control_c, 0, 64, 127
2, 353052, Note_on_c, 0, 85, 90
2, 353166, Note_on_c, 0, 81, 76
2, 353279, Note_on_c, 0, 76, 64
2, 353378, Note_on_c, 0, 73, 75
2, 353418, Note_on_c, 0, 69, 0
2, 353483, Note_on_c, 0, 69, 77
2, 353587, Note_on_c, 0, 85, 0
2, 353596, Note_on_c, 0, 85, 97
2, 353679, Note_on_c, 0, 81, 0
2, 353685, Note_on_c, 0, 81, 79
2, 353794, Note_on_c, 0, 76, 0
2, 353801, Note_on_c, 0, 76, 75
2, 353902, Note_on_c, 0, 73, 0
2, 353906, Note_on_c, 0, 73, 70
2, 353994, Note_on_c, 0, 69, 0
2, 353994, Note_on_c, 0, 88, 0
2, 354004, Note_on_c, 0, 88, 95
2, 354005, Note_on_c, 0, 69, 80
2, 354094, Note_on_c, 0, 76, 0
2, 354098, Note_on_c, 0, 76, 68
2, 354182, Note_on_c, 0, 81, 0
2, 354183, Control_c, 0, 64, 0
2, 354183, Note_on_c, 0, 85, 0
2, 354183, Note_on_c, 0, 73, 0
2, 354184, Note_on_c, 0, 57, 0
2, 354184, Note_on_c, 0, 76, 0
2, 354201, Note_on_c, 0, 64, 0
2, 354209, Note_on_c, 0, 69, 0
2, 354219, Note_on_c, 0, 59, 83
2, 354222, Note_on_c, 0, 90, 97
2, 354263, Control_c, 0, 64, 127
2, 354323, Note_on_c, 0, 86, 87
2, 354434, Note_on_c, 0, 81, 84
2, 354447, Note_on_c, 0, 88, 0
2, 354547, Note_on_c, 0, 78, 72
2, 354632, Note_on_c, 0, 74, 75
2, 354741, Note_on_c, 0, 69, 66
2, 354743, Note_on_c, 0, 66, 43
2, 354754, Note_on_c, 0, 66, 0
2, 354831, Note_on_c, 0, 86, 0
2, 354841, Note_on_c, 0, 86, 97
2, 354946, Note_on_c, 0, 81, 0
2, 354954, Note_on_c, 0, 81, 80
2, 355046, Note_on_c, 0, 78, 0
2, 355057, Note_on_c, 0, 78, 83
2, 355130, Note_on_c, 0, 74, 0
2, 355140, Note_on_c, 0, 74, 65
2, 355215, Note_on_c, 0, 69, 0
2, 355225, Note_on_c, 0, 69, 74
2, 355321, Note_on_c, 0, 66, 64
2, 355433, Control_c, 0, 64, 0
2, 355433, Note_on_c, 0, 81, 0
2, 355433, Note_on_c, 0, 59, 0
2, 355433, Note_on_c, 0, 69, 0
2, 355433, Note_on_c, 0, 86, 0
2, 355434, Note_on_c, 0, 66, 0
2, 355434, Note_on_c, 0, 74, 0
2, 355434, Note_on_c, 0, 78, 0
2, 355453, Note_on_c, 0, 90, 0
2, 355462, Note_on_c, 0, 90, 99
2, 355465, Note_on_c, 0, 52, 79
2, 355507, Control_c, 0, 64, 127
2, 355558, Note_on_c, 0, 86, 87
2, 355677, Note_on_c, 0, 83, 82
2, 355761, Note_on_c, 0, 80, 86
2, 355867, Note_on_c, 0, 74, 77
2, 355954, Note_on_c, 0, 71, 82
2, 356063, Note_on_c, 0, 88, 92
2, 356189, Note_on_c, 0, 76, 79
2, 356267, Note_on_c, 0, 90, 0
2, 356272, Note_on_c, 0, 90, 96
2, 356275, Note_on_c, 0, 71, 0
2, 356286, Note_on_c, 0, 71, 80
2, 356287, Note_on_c, 0, 78, 79
2, 356406, Note_on_c, 0, 68, 80
2, 356474, Note_on_c, 0, 76, 0
2, 356474, Note_on_c, 0, 88, 0
2, 356478, Note_on_c, 0, 88, 89
2, 356485, Note_on_c, 0, 64, 78
2, 356485, Note_on_c, 0, 76, 80
2, 356692, Note_on_c, 0, 93, 96
2, 356693, Note_on_c, 0, 57, 79
2, 356700, Note_on_c, 0, 64, 0
2, 356700, Note_on_c, 0, 68, 0
2, 356700, Note_on_c, 0, 74, 0
2, 356700, Note_on_c, 0, 71, 0
2, 356700, Note_on_c, 0, 80, 0
2, 356700, Note_on_c, 0, 86, 0
2, 356701, Note_on_c, 0, 81, 81
2, 356701, Note_on_c, 0, 90, 0
2, 356701, Note_on_c, 0, 52, 0
2, 356701, Note_on_c, 0, 83, 0
2, 356701, Note_on_c, 0, 78, 0
2, 356702, Control_c, 0, 64, 0
2, 356707, Note_on_c, 0, 85, 85
2, 356712, Note_on_c, 0, 76, 0
2, 356720, Note_on_c, 0, 88, 0
2, 356730, Note_on_c, 0, 88, 64
2, 356789, Control_c, 0, 64, 127
2, 356842, Note_on_c, 0, 64, 71
2, 356942, Note_on_c, 0, 69, 73
2, 357041, Note_on_c, 0, 71, 70
2, 357149, Note_on_c, 0, 73, 72
2, 357272, Note_on_c, 0, 76, 55
2, 357365, Note_on_c, 0, 81, 0
2, 357371, Note_on_c, 0, 81, 80
2, 357934, Note_on_c, 0, 71, 0
2, 357944, Note_on_c, 0, 71, 70
2, 357999, Note_on_c, 0, 74, 68
2, 358026, Note_on_c, 0, 78, 86
2, 358030, Note_on_c, 0, 83, 96
2, 358041, Note_on_c, 0, 93, 0
2, 358042, Note_on_c, 0, 50, 87
2, 358062, Note_on_c, 0, 71, 0
2, 358063, Control_c, 0, 64, 0
2, 358067, Note_on_c, 0, 81, 0
2, 358067, Note_on_c, 0, 76, 0
2, 358067, Note_on_c, 0, 73, 0
2, 358068, Note_on_c, 0, 85, 0
2, 358068, Note_on_c, 0, 64, 0
2, 358068, Note_on_c, 0, 78, 0
2, 358068, Note_on_c, 0, 74, 0
2, 358069, Note_on_c, 0, 69, 0
2, 358071, Note_on_c, 0, 57, 0
2, 358075, Note_on_c, 0, 83, 0
2, 358080, Note_on_c, 0, 88, 0
2, 358091, Note_on_c, 0, 50, 0
2, 358263, Note_on_c, 0, 81, 100
2, 358283, Note_on_c, 0, 57, 82
2, 358283, Note_on_c, 0, 66, 87
2, 358311, Note_on_c, 0, 66, 0
2, 358363, Note_on_c, 0, 57, 0
2, 358483, Note_on_c, 0, 66, 82
2, 358487, Note_on_c, 0, 57, 68
2, 358520, Note_on_c, 0, 66, 0
2, 358562, Note_on_c, 0, 74, 81
2, 358573, Note_on_c, 0, 57, 0
2, 358581, Note_on_c, 0, 81, 0
2, 358625, Note_on_c, 0, 74, 0
2, 358676, Note_on_c, 0, 78, 99
2, 358679, Note_on_c, 0, 50, 73
2, 358682, Note_on_c, 0, 69, 77
2, 358732, Control_c, 0, 64, 127
2, 358880, Note_on_c, 0, 66, 77
2, 358989, Note_on_c, 0, 57, 74
2, 359070, Note_on_c, 0, 50, 0
2, 359079, Note_on_c, 0, 50, 71
2, 359247, Note_on_c, 0, 69, 0
2, 359253, Note_on_c, 0, 69, 69
2, 359278, Control_c, 0, 64, 0
2, 359282, Note_on_c, 0, 66, 0
2, 359282, Note_on_c, 0, 50, 0
2, 359283, Note_on_c, 0, 57, 0
2, 359283, Note_on_c, 0, 78, 0
2, 359287, Note_on_c, 0, 73, 71
2, 359288, Note_on_c, 0, 76, 86
2, 359297, Note_on_c, 0, 45, 78
2, 359324, Note_on_c, 0, 69, 0
2, 359341, Note_on_c, 0, 76, 0
2, 359342, Note_on_c, 0, 73, 0
2, 359356, Note_on_c, 0, 45, 0
2, 359510, Note_on_c, 0, 78, 100
2, 359527, Note_on_c, 0, 61, 80
2, 359530, Note_on_c, 0, 52, 76
2, 359557, Note_on_c, 0, 61, 0
2, 359565, Note_on_c, 0, 52, 0
2, 359709, Note_on_c, 0, 61, 82
2, 359713, Note_on_c, 0, 52, 70
2, 359744, Note_on_c, 0, 61, 0
2, 359765, Note_on_c, 0, 78, 0
2, 359777, Note_on_c, 0, 52, 0
2, 359802, Note_on_c, 0, 76, 77
2, 359919, Note_on_c, 0, 45, 76
2, 359920, Note_on_c, 0, 73, 93
2, 359921, Note_on_c, 0, 76, 0
2, 359925, Note_on_c, 0, 69, 84
2, 359969, Control_c, 0, 64, 127
2, 360112, Note_on_c, 0, 61, 75
2, 360248, Note_on_c, 0, 52, 66
2, 360291, Note_on_c, 0, 45, 0
2, 360300, Note_on_c, 0, 45, 76
2, 360511, Control_c, 0, 64, 0
2, 360511, Note_on_c, 0, 68, 68
2, 360512, Note_on_c, 0, 61, 0
2, 360514, Note_on_c, 0, 69, 0
2, 360515, Note_on_c, 0, 73, 0
2, 360522, Note_on_c, 0, 52, 0
2, 360524, Note_on_c, 0, 74, 95
2, 360533, Note_on_c, 0, 52, 76
2, 360537, Note_on_c, 0, 45, 0
2, 360564, Note_on_c, 0, 74, 0
2, 360599, Note_on_c, 0, 52, 0
2, 360606, Note_on_c, 0, 68, 0
2, 360748, Note_on_c, 0, 62, 82
2, 360748, Note_on_c, 0, 73, 92
2, 360755, Note_on_c, 0, 59, 73
2, 360757, Note_on_c, 0, 68, 66
2, 360760, Control_c, 0, 64, 127
2, 360782, Note_on_c, 0, 56, 43
2, 360929, Note_on_c, 0, 56, 0
2, 360929, Note_on_c, 0, 62, 0
2, 360933, Note_on_c, 0, 56, 65
2, 360937, Note_on_c, 0, 62, 69
2, 361033, Note_on_c, 0, 71, 84
2, 361117, Note_on_c, 0, 73, 0
2, 361118, Note_on_c, 0, 62, 0
2, 361118, Control_c, 0, 64, 0
2, 361118, Note_on_c, 0, 56, 0
2, 361119, Note_on_c, 0, 68, 0
2, 361122, Note_on_c, 0, 59, 0
2, 361144, Note_on_c, 0, 71, 0
2, 361147, Note_on_c, 0, 78, 98
2, 361151, Note_on_c, 0, 52, 77
2, 361155, Note_on_c, 0, 71, 70
2, 361157, Note_on_c, 0, 68, 80
2, 361206, Note_on_c, 0, 52, 0
2, 361259, Note_on_c, 0, 64, 79
2, 361327, Note_on_c, 0, 64, 0
2, 361358, Note_on_c, 0, 54, 77
2, 361393, Note_on_c, 0, 54, 0
2, 361463, Note_on_c, 0, 64, 76
2, 361489, Control_c, 0, 64, 127
2, 361561, Note_on_c, 0, 56, 88
2, 361651, Note_on_c, 0, 64, 0
2, 361658, Note_on_c, 0, 64, 84
2, 361738, Control_c, 0, 64, 0
2, 361745, Note_on_c, 0, 68, 0
2, 361745, Note_on_c, 0, 56, 0
2, 361746, Note_on_c, 0, 64, 0
2, 361746, Note_on_c, 0, 71, 0
2, 361749, Note_on_c, 0, 78, 0
2, 361758, Note_on_c, 0, 73, 87
2, 361760, Note_on_c, 0, 69, 80
2, 361761, Note_on_c, 0, 57, 84
2, 361765, Note_on_c, 0, 76, 84
2, 361800, Note_on_c, 0, 73, 0
2, 361801, Note_on_c, 0, 57, 0
2, 361807, Note_on_c, 0, 76, 0
2, 361807, Note_on_c, 0, 69, 0
2, 361983, Note_on_c, 0, 75, 96
2, 361984, Note_on_c, 0, 64, 88
2, 361985, Note_on_c, 0, 61, 74
2, 362019, Control_c, 0, 64, 127
2, 362165, Note_on_c, 0, 64, 0
2, 362173, Note_on_c, 0, 64, 73
2, 362181, Note_on_c, 0, 61, 0
2, 362191, Note_on_c, 0, 61, 64
2, 362273, Note_on_c, 0, 76, 73
2, 362353, Note_on_c, 0, 61, 0
2, 362353, Note_on_c, 0, 75, 0
2, 362354, Control_c, 0, 64, 0
2, 362354, Note_on_c, 0, 76, 0
2, 362373, Note_on_c, 0, 64, 0
2, 362381, Note_on_c, 0, 81, 101
2, 362382, Note_on_c, 0, 57, 86
2, 362389, Note_on_c, 0, 69, 86
2, 362392, Note_on_c, 0, 73, 77
2, 362447, Note_on_c, 0, 57, 0
2, 362506, Note_on_c, 0, 64, 87
2, 362564, Note_on_c, 0, 64, 0
2, 362610, Note_on_c, 0, 59, 79
2, 362654, Note_on_c, 0, 59, 0
2, 362657, Control_c, 0, 64, 127
2, 362698, Note_on_c, 0, 64, 78
2, 362820, Note_on_c, 0, 61, 72
2, 362910, Note_on_c, 0, 64, 0
2, 362915, Note_on_c, 0, 64, 75
2, 363046, Control_c, 0, 64, 0
2, 363052, Note_on_c, 0, 61, 0
2, 363053, Note_on_c, 0, 64, 0
2, 363055, Note_on_c, 0, 73, 0
2, 363059, Note_on_c, 0, 81, 0
2, 363060, Note_on_c, 0, 69, 0
2, 363067, Note_on_c, 0, 74, 79
2, 363084, Note_on_c, 0, 50, 58
2, 363104, Note_on_c, 0, 74, 0
2, 363133, Note_on_c, 0, 50, 0
2, 363275, Note_on_c, 0, 74, 61
2, 363281, Note_on_c, 0, 62, 67
2, 363283, Note_on_c, 0, 57, 65
2, 363290, Note_on_c, 0, 54, 54
2, 363306, Note_on_c, 0, 62, 0
2, 363333, Note_on_c, 0, 57, 0
2, 363340, Note_on_c, 0, 54, 0
2, 363348, Note_on_c, 0, 74, 0
2, 363386, Note_on_c, 0, 76, 70
2, 363425, Note_on_c, 0, 76, 0
2, 363465, Note_on_c, 0, 62, 68
2, 363472, Note_on_c, 0, 54, 60
2, 363474, Note_on_c, 0, 57, 61
2, 363475, Note_on_c, 0, 78, 80
2, 363498, Note_on_c, 0, 62, 0
2, 363499, Note_on_c, 0, 54, 0
2, 363506, Note_on_c, 0, 57, 0
2, 363569, Note_on_c, 0, 80, 76
2, 363601, Note_on_c, 0, 78, 0
2, 363665, Note_on_c, 0, 80, 0
2, 363670, Note_on_c, 0, 81, 88
2, 363674, Note_on_c, 0, 50, 82
2, 363710, Note_on_c, 0, 50, 0
2, 363740, Note_on_c, 0, 81, 0
2, 363774, Note_on_c, 0, 80, 85
2, 363810, Note_on_c, 0, 80, 0
2, 363878, Note_on_c, 0, 83, 90
2, 363883, Note_on_c, 0, 62, 75
2, 363893, Note_on_c, 0, 57, 71
2, 363895, Note_on_c, 0, 54, 65
2, 363911, Note_on_c, 0, 62, 0
2, 363939, Note_on_c, 0, 54, 0
2, 363939, Note_on_c, 0, 57, 0
2, 363981, Note_on_c, 0, 81, 83
2, 363993, Note_on_c, 0, 83, 0
2, 364039, Note_on_c, 0, 81, 0
2, 364071, Note_on_c, 0, 80, 88
2, 364074, Note_on_c, 0, 62, 88
2, 364076, Note_on_c, 0, 54, 79
2, 364103, Note_on_c, 0, 54, 0
2, 364103, Note_on_c, 0, 62, 0
2, 364127, Note_on_c, 0, 80, 0
2, 364184, Note_on_c, 0, 78, 85
2, 364211, Note_on_c, 0, 78, 0
2, 364283, Note_on_c, 0, 45, 79
2, 364288, Note_on_c, 0, 76, 80
2, 364326, Note_on_c, 0, 76, 0
2, 364335, Note_on_c, 0, 45, 0
2, 364395, Note_on_c, 0, 75, 83
2, 364421, Note_on_c, 0, 75, 0
2, 364488, Note_on_c, 0, 52, 77
2, 364488, Note_on_c, 0, 76, 89
2, 364489, Note_on_c, 0, 61, 78
2, 364522, Note_on_c, 0, 61, 0
2, 364527, Note_on_c, 0, 52, 0
2, 364586, Note_on_c, 0, 80, 85
2, 364588, Note_on_c, 0, 76, 0
2, 364626, Note_on_c, 0, 80, 0
2, 364684, Note_on_c, 0, 81, 94
2, 364704, Note_on_c, 0, 61, 85
2, 364714, Note_on_c, 0, 52, 71
2, 364735, Note_on_c, 0, 61, 0
2, 364784, Note_on_c, 0, 81, 0
2, 364793, Note_on_c, 0, 52, 0
2, 364803, Note_on_c, 0, 76, 71
2, 364879, Note_on_c, 0, 76, 0
2, 364883, Note_on_c, 0, 45, 83
2, 364885, Note_on_c, 0, 85, 93
2, 364928, Note_on_c, 0, 85, 0
2, 364944, Note_on_c, 0, 45, 0
2, 364989, Note_on_c, 0, 81, 84
2, 365053, Note_on_c, 0, 81, 0
2, 365095, Note_on_c, 0, 88, 93
2, 365102, Note_on_c, 0, 61, 87
2, 365104, Note_on_c, 0, 52, 78
2, 365139, Note_on_c, 0, 61, 0
2, 365142, Note_on_c, 0, 52, 0
2, 365193, Note_on_c, 0, 85, 98
2, 365282, Note_on_c, 0, 61, 83
2, 365287, Note_on_c, 0, 52, 67
2, 365299, Control_c, 0, 64, 127
2, 365310, Note_on_c, 0, 81, 87
2, 365415, Note_on_c, 0, 77, 77
2, 365429, Note_on_c, 0, 88, 0
2, 365502, Note_on_c, 0, 85, 0
2, 365504, Control_c, 0, 64, 0
2, 365507, Note_on_c, 0, 81, 0
2, 365510, Note_on_c, 0, 77, 0
2, 365517, Note_on_c, 0, 74, 97
2, 365521, Note_on_c, 0, 52, 0
2, 365522, Note_on_c, 0, 62, 93
2, 365522, Note_on_c, 0, 59, 86
2, 365527, Note_on_c, 0, 56, 83
2, 365527, Note_on_c, 0, 52, 80
2, 365529, Note_on_c, 0, 61, 0
2, 365563, Note_on_c, 0, 74, 0
2, 365626, Note_on_c, 0, 76, 85
2, 365692, Note_on_c, 0, 52, 0
2, 365693, Note_on_c, 0, 62, 0
2, 365694, Note_on_c, 0, 56, 0
2, 365706, Note_on_c, 0, 59, 0
2, 365706, Note_on_c, 0, 76, 0
2, 365740, Note_on_c, 0, 78, 71
2, 365772, Note_on_c, 0, 78, 0
2, 365829, Note_on_c, 0, 76, 88
2, 365859, Note_on_c, 0, 76, 0
2, 365952, Note_on_c, 0, 72, 71
2, 365953, Note_on_c, 0, 74, 56
2, 365975, Note_on_c, 0, 72, 0
2, 365998, Note_on_c, 0, 74, 0
2, 366039, Note_on_c, 0, 73, 80
2, 366071, Note_on_c, 0, 73, 0
2, 366140, Note_on_c, 0, 71, 94
2, 366145, Note_on_c, 0, 62, 88
2, 366147, Note_on_c, 0, 59, 86
2, 366149, Note_on_c, 0, 52, 74
2, 366153, Note_on_c, 0, 56, 78
2, 366177, Note_on_c, 0, 71, 0
2, 366228, Note_on_c, 0, 59, 0
2, 366239, Note_on_c, 0, 73, 87
2, 366278, Note_on_c, 0, 62, 0
2, 366279, Note_on_c, 0, 73, 0
2, 366286, Note_on_c, 0, 56, 0
2, 366312, Note_on_c, 0, 52, 0
2, 366342, Note_on_c, 0, 74, 81
2, 366369, Note_on_c, 0, 74, 0
2, 366437, Note_on_c, 0, 73, 88
2, 366471, Note_on_c, 0, 73, 0
2, 366547, Note_on_c, 0, 71, 83
2, 366574, Note_on_c, 0, 71, 0
2, 366646, Note_on_c, 0, 69, 80
2, 366677, Note_on_c, 0, 69, 0
2, 366749, Note_on_c, 0, 68, 98
2, 366751, Note_on_c, 0, 59, 82
2, 366753, Note_on_c, 0, 62, 82
2, 366755, Note_on_c, 0, 52, 70
2, 366769, Note_on_c, 0, 56, 71
2, 366865, Note_on_c, 0, 69, 78
2, 366919, Note_on_c, 0, 59, 0
2, 366931, Note_on_c, 0, 69, 0
2, 366947, Note_on_c, 0, 56, 0
2, 366948, Note_on_c, 0, 71, 89
2, 366950, Note_on_c, 0, 68, 0
2, 366958, Note_on_c, 0, 52, 0
2, 366958, Note_on_c, 0, 62, 0
2, 366974, Note_on_c, 0, 71, 0
2, 367059, Note_on_c, 0, 69, 77
2, 367089, Note_on_c, 0, 69, 0
2, 367138, Note_on_c, 0, 68, 84
2, 367192, Note_on_c, 0, 68, 0
2, 367253, Note_on_c, 0, 66, 78
2, 367286, Note_on_c, 0, 66, 0
2, 367354, Note_on_c, 0, 64, 89
2, 367371, Note_on_c, 0, 62, 79
2, 367375, Note_on_c, 0, 52, 66
2, 367376, Note_on_c, 0, 59, 76
2, 367380, Note_on_c, 0, 56, 71
2, 367409, Note_on_c, 0, 64, 0
2, 367468, Note_on_c, 0, 66, 86
2, 367526, Note_on_c, 0, 66, 0
2, 367578, Note_on_c, 0, 64, 79
2, 367594, Note_on_c, 0, 56, 0
2, 367598, Note_on_c, 0, 52, 0
2, 367599, Note_on_c, 0, 62, 0
2, 367600, Note_on_c, 0, 59, 0
2, 367608, Note_on_c, 0, 64, 0
2, 367682, Note_on_c, 0, 63, 77
2, 367714, Note_on_c, 0, 63, 0
2, 367786, Note_on_c, 0, 64, 77
2, 367820, Note_on_c, 0, 64, 0
2, 367888, Note_on_c, 0, 66, 80
2, 367921, Note_on_c, 0, 66, 0
2, 367992, Note_on_c, 0, 68, 91
2, 368047, Note_on_c, 0, 68, 0
2, 368106, Note_on_c, 0, 69, 75
2, 368137, Note_on_c, 0, 69, 0
2, 368203, Note_on_c, 0, 68, 82
2, 368258, Note_on_c, 0, 68, 0
2, 368320, Note_on_c, 0, 66, 79
2, 368362, Note_on_c, 0, 66, 0
2, 368433, Note_on_c, 0, 68, 78
2, 368466, Note_on_c, 0, 68, 0
2, 368548, Note_on_c, 0, 69, 76
2, 368586, Note_on_c, 0, 69, 0
2, 368678, Note_on_c, 0, 71, 83
2, 368754, Note_on_c, 0, 71, 0
2, 368809, Note_on_c, 0, 73, 78
2, 368847, Note_on_c, 0, 73, 0
2, 368937, Note_on_c, 0, 71, 75
2, 368974, Note_on_c, 0, 71, 0
2, 369076, Note_on_c, 0, 70, 73
2, 369110, Note_on_c, 0, 70, 0
2, 369237, Note_on_c, 0, 71, 75
2, 369272, Note_on_c, 0, 71, 0
2, 369405, Note_on_c, 0, 73, 78
2, 369442, Note_on_c, 0, 73, 0
2, 369678, Note_on_c, 0, 74, 69
2, 371011, Note_on_c, 0, 75, 54
2, 371109, Note_on_c, 0, 74, 0
2, 372765, Note_on_c, 0, 76, 46
2, 374400, Note_on_c, 0, 75, 0
2, 375229, Control_c, 0, 64, 127
2, 376348, Note_on_c, 0, 69, 56
2, 376539, Note_on_c, 0, 64, 62
2, 376704, Note_on_c, 0, 69, 0
2, 376713, Note_on_c, 0, 69, 62
2, 376796, Control_c, 0, 64, 0
2, 376965, Control_c, 0, 64, 127
2, 377044, Note_on_c, 0, 71, 78
2, 377187, Note_on_c, 0, 76, 0
2, 377362, Note_on_c, 0, 74, 81
2, 377676, Note_on_c, 0, 73, 83
2, 377713, Control_c, 0, 64, 0
2, 377756, Control_c, 0, 64, 127
2, 377825, Note_on_c, 0, 74, 0
2, 377832, Note_on_c, 0, 74, 67
2, 377917, Note_on_c, 0, 73, 0
2, 377922, Note_on_c, 0, 73, 81
2, 377971, Note_on_c, 0, 71, 0
2, 377973, Control_c, 0, 64, 0
2, 377977, Note_on_c, 0, 71, 80
2, 378024, Note_on_c, 0, 69, 0
2, 378129, Note_on_c, 0, 69, 81
2, 378209, Note_on_c, 0, 73, 0
2, 378286, Note_on_c, 0, 71, 0
2, 378292, Note_on_c, 0, 71, 84
2, 378320, Note_on_c, 0, 69, 0
2, 378362, Note_on_c, 0, 74, 0
2, 378611, Note_on_c, 0, 68, 81
2, 378616, Control_c, 0, 64, 127
2, 378929, Note_on_c, 0, 69, 81
2, 378970, Note_on_c, 0, 71, 0
2, 378972, Note_on_c, 0, 68, 0
2, 378973, Control_c, 0, 64, 0
2, 379000, Note_on_c, 0, 64, 0
2, 379097, Note_on_c, 0, 71, 81
2, 379260, Note_on_c, 0, 73, 91
2, 379282, Note_on_c, 0, 71, 0
2, 379595, Note_on_c, 0, 74, 91
2, 379641, Note_on_c, 0, 73, 0
2, 379902, Note_on_c, 0, 73, 91
2, 380061, Note_on_c, 0, 71, 84
2, 380107, Note_on_c, 0, 74, 0
2, 380217, Note_on_c, 0, 76, 89
2, 380344, Control_c, 0, 64, 127
2, 380525, Note_on_c, 0, 74, 88
2, 380674, Note_on_c, 0, 73, 0
2, 380685, Note_on_c, 0, 73, 88
2, 380835, Note_on_c, 0, 71, 0
2, 380846, Note_on_c, 0, 71, 85
2, 381125, Control_c, 0, 64, 0
2, 381128, Note_on_c, 0, 76, 0
2, 381129, Note_on_c, 0, 74, 0
2, 381135, Note_on_c, 0, 69, 0
2, 381143, Note_on_c, 0, 73, 0
2, 381154, Note_on_c, 0, 62, 88
2, 381154, Note_on_c, 0, 73, 88
2, 381196, Control_c, 0, 64, 127
2, 381312, Note_on_c, 0, 71, 0
2, 381318, Note_on_c, 0, 71, 88
2, 381471, Note_on_c, 0, 61, 77
2, 381473, Note_on_c, 0, 69, 85
2, 381483, Note_on_c, 0, 62, 0
2, 381485, Control_c, 0, 64, 0
2, 381490, Note_on_c, 0, 73, 0
2, 381491, Note_on_c, 0, 71, 0
2, 381616, Note_on_c, 0, 61, 0
2, 381627, Note_on_c, 0, 64, 83
2, 381634, Note_on_c, 0, 57, 71
2, 381649, Control_c, 0, 64, 127
2, 381780, Note_on_c, 0, 69, 0
2, 381784, Note_on_c, 0, 69, 81
2, 381785, Note_on_c, 0, 61, 85
2, 382095, Note_on_c, 0, 61, 0
2, 382097, Note_on_c, 0, 64, 0
2, 382097, Note_on_c, 0, 57, 0
2, 382098, Control_c, 0, 64, 0
2, 382100, Note_on_c, 0, 71, 87
2, 382101, Note_on_c, 0, 56, 79
2, 382179, Control_c, 0, 64, 127
2, 382410, Note_on_c, 0, 69, 0
2, 382417, Note_on_c, 0, 52, 75
2, 382420, Note_on_c, 0, 74, 88
2, 382680, Control_c, 0, 64, 0
2, 382680, Note_on_c, 0, 71, 0
2, 382681, Note_on_c, 0, 52, 0
2, 382681, Note_on_c, 0, 56, 0
2, 382682, Note_on_c, 0, 74, 0
2, 382716, Note_on_c, 0, 57, 86
2, 382718, Note_on_c, 0, 45, 76
2, 382720, Note_on_c, 0, 73, 91
2, 382723, Note_on_c, 0, 64, 81
2, 382771, Control_c, 0, 64, 127
2, 382884, Note_on_c, 0, 74, 77
2, 382955, Note_on_c, 0, 73, 0
2, 382961, Note_on_c, 0, 73, 87
2, 383000, Note_on_c, 0, 50, 86
2, 383036, Note_on_c, 0, 71, 72
2, 383168, Note_on_c, 0, 69, 84
2, 383285, Note_on_c, 0, 45, 0
2, 383300, Control_c, 0, 64, 0
2, 383301, Note_on_c, 0, 74, 0
2, 383301, Note_on_c, 0, 73, 0
2, 383302, Note_on_c, 0, 50, 0
2, 383302, Note_on_c, 0, 69, 0
2, 383303, Note_on_c, 0, 57, 0
2, 383308, Note_on_c, 0, 71, 0
2, 383315, Note_on_c, 0, 71, 91
2, 383324, Note_on_c, 0, 64, 0
2, 383329, Note_on_c, 0, 52, 73
2, 383330, Note_on_c, 0, 64, 69
2, 383343, Note_on_c, 0, 68, 74
2, 383416, Control_c, 0, 64, 127
2, 383495, Note_on_c, 0, 54, 72
2, 383623, Note_on_c, 0, 68, 0
2, 383628, Note_on_c, 0, 68, 91
2, 383631, Note_on_c, 0, 56, 82
2, 383769, Note_on_c, 0, 52, 0
2, 383774, Note_on_c, 0, 52, 72
2, 383897, Note_on_c, 0, 52, 0
2, 383897, Note_on_c, 0, 56, 0
2, 383897, Note_on_c, 0, 68, 0
2, 383898, Control_c, 0, 64, 0
2, 383898, Note_on_c, 0, 71, 0
2, 383898, Note_on_c, 0, 64, 0
2, 383923, Note_on_c, 0, 54, 0
2, 383929, Note_on_c, 0, 69, 83
2, 383933, Note_on_c, 0, 54, 75
2, 383935, Note_on_c, 0, 66, 81
2, 383939, Note_on_c, 0, 61, 77
2, 384007, Control_c, 0, 64, 127
2, 384089, Note_on_c, 0, 71, 83
2, 384238, Note_on_c, 0, 73, 93
2, 384386, Note_on_c, 0, 52, 73
2, 384485, Note_on_c, 0, 66, 0
2, 384485, Note_on_c, 0, 71, 0
2, 384485, Note_on_c, 0, 61, 0
2, 384486, Note_on_c, 0, 54, 0
2, 384486, Note_on_c, 0, 73, 0
2, 384486, Note_on_c, 0, 69, 0
2, 384486, Control_c, 0, 64, 0
2, 384534, Note_on_c, 0, 74, 89
2, 384541, Note_on_c, 0, 62, 81
2, 384541, Note_on_c, 0, 50, 76
2, 384543, Note_on_c, 0, 66, 83
2, 384583, Control_c, 0, 64, 127
2, 384703, Note_on_c, 0, 47, 78
2, 384826, Note_on_c, 0, 73, 91
2, 384835, Note_on_c, 0, 49, 82
2, 384975, Note_on_c, 0, 50, 0
2, 384982, Note_on_c, 0, 50, 89
2, 384982, Note_on_c, 0, 71, 86
2, 385117, Control_c, 0, 64, 0
2, 385117, Note_on_c, 0, 47, 0
2, 385117, Note_on_c, 0, 66, 0
2, 385118, Note_on_c, 0, 73, 0
2, 385118, Note_on_c, 0, 49, 0
2, 385118, Note_on_c, 0, 52, 0
2, 385118, Note_on_c, 0, 50, 0
2, 385118, Note_on_c, 0, 74, 0
2, 385144, Note_on_c, 0, 62, 0
2, 385153, Note_on_c, 0, 52, 85
2, 385155, Note_on_c, 0, 76, 91
2, 385163, Note_on_c, 0, 64, 86
2, 385169, Note_on_c, 0, 68, 84
2, 385213, Control_c, 0, 64, 127
2, 385439, Note_on_c, 0, 76, 0
2, 385440, Control_c, 0, 64, 0
2, 385443, Note_on_c, 0, 71, 0
2, 385452, Note_on_c, 0, 74, 88
2, 385454, Note_on_c, 0, 54, 84
2, 385497, Control_c, 0, 64, 127
2, 385593, Note_on_c, 0, 73, 81
2, 385764, Note_on_c, 0, 56, 83
2, 385773, Note_on_c, 0, 71, 90
2, 385789, Note_on_c, 0, 64, 0
2, 385789, Note_on_c, 0, 68, 0
2, 385794, Note_on_c, 0, 64, 74
2, 385794, Note_on_c, 0, 68, 80
2, 385996, Note_on_c, 0, 52, 0
2, 386065, Note_on_c, 0, 73, 0
2, 386074, Note_on_c, 0, 73, 89
2, 386088, Note_on_c, 0, 52, 73
2, 386211, Note_on_c, 0, 71, 0
2, 386216, Note_on_c, 0, 71, 89
2, 386397, Note_on_c, 0, 61, 88
2, 386397, Note_on_c, 0, 69, 88
2, 386417, Note_on_c, 0, 74, 0
2, 386419, Note_on_c, 0, 54, 0
2, 386420, Note_on_c, 0, 68, 0
2, 386421, Note_on_c, 0, 56, 0
2, 386421, Note_on_c, 0, 73, 0
2, 386421, Note_on_c, 0, 52, 0
2, 386422, Note_on_c, 0, 71, 0
2, 386422, Note_on_c, 0, 57, 84
2, 386422, Note_on_c, 0, 45, 88
2, 386430, Control_c, 0, 64, 0
2, 386442, Note_on_c, 0, 64, 0
2, 386511, Control_c, 0, 64, 127
2, 386546, Note_on_c, 0, 64, 85
2, 386680, Note_on_c, 0, 69, 0
2, 386689, Note_on_c, 0, 69, 80
2, 386833, Note_on_c, 0, 64, 0
2, 386840, Note_on_c, 0, 40, 87
2, 386842, Note_on_c, 0, 64, 69
2, 386843, Note_on_c, 0, 52, 81
2, 386984, Note_on_c, 0, 45, 0
2, 386984, Note_on_c, 0, 61, 0
2, 386984, Note_on_c, 0, 69, 0
2, 386986, Note_on_c, 0, 57, 0
2, 386989, Control_c, 0, 64, 0
2, 387002, Note_on_c, 0, 40, 0
2, 387002, Note_on_c, 0, 52, 0
2, 387002, Note_on_c, 0, 64, 0
2, 387008, Note_on_c, 0, 71, 91
2, 387008, Note_on_c, 0, 40, 82
2, 387009, Note_on_c, 0, 52, 89
2, 387011, Note_on_c, 0, 68, 87
2, 387012, Note_on_c, 0, 64, 87
2, 387079, Control_c, 0, 64, 127
2, 387316, Note_on_c, 0, 74, 87
2, 387475, Note_on_c, 0, 50, 87
2, 387475, Note_on_c, 0, 38, 88
2, 387584, Note_on_c, 0, 68, 0
2, 387584, Note_on_c, 0, 71, 0
2, 387585, Note_on_c, 0, 40, 0
2, 387586, Note_on_c, 0, 38, 0
2, 387586, Note_on_c, 0, 74, 0
2, 387587, Note_on_c, 0, 64, 0
2, 387588, Note_on_c, 0, 52, 0
2, 387589, Control_c, 0, 64, 0
2, 387601, Note_on_c, 0, 50, 0
2, 387628, Note_on_c, 0, 50, 93
2, 387631, Note_on_c, 0, 38, 87
2, 387634, Note_on_c, 0, 73, 89
2, 387635, Note_on_c, 0, 66, 87
2, 387686, Control_c, 0, 64, 127
2, 387833, Note_on_c, 0, 74, 91
2, 387886, Note_on_c, 0, 73, 0
2, 387895, Note_on_c, 0, 73, 95
2, 387995, Note_on_c, 0, 71, 80
2, 388093, Note_on_c, 0, 38, 0
2, 388093, Note_on_c, 0, 50, 0
2, 388093, Note_on_c, 0, 66, 0
2, 388096, Note_on_c, 0, 69, 90
2, 388100, Note_on_c, 0, 50, 93
2, 388100, Note_on_c, 0, 66, 75
2, 388104, Note_on_c, 0, 38, 83
2, 388247, Note_on_c, 0, 71, 0
2, 388248, Note_on_c, 0, 73, 0
2, 388248, Note_on_c, 0, 66, 0
2, 388249, Note_on_c, 0, 74, 0
2, 388249, Note_on_c, 0, 38, 0
2, 388249, Note_on_c, 0, 50, 0
2, 388249, Note_on_c, 0, 69, 0
2, 388250, Control_c, 0, 64, 0
2, 388257, Note_on_c, 0, 71, 98
2, 388270, Note_on_c, 0, 52, 90
2, 388271, Note_on_c, 0, 64, 84
2, 388271, Note_on_c, 0, 68, 84
2, 388272, Note_on_c, 0, 40, 88
2, 388369, Control_c, 0, 64, 127
2, 388531, Note_on_c, 0, 68, 0
2, 388542, Note_on_c, 0, 68, 98
2, 388704, Note_on_c, 0, 53, 88
2, 388705, Note_on_c, 0, 41, 88
2, 388824, Note_on_c, 0, 52, 0
2, 388824, Note_on_c, 0, 40, 0
2, 388824, Note_on_c, 0, 41, 0
2, 388825, Note_on_c, 0, 53, 0
2, 388826, Note_on_c, 0, 71, 0
2, 388827, Control_c, 0, 64, 0
2, 388838, Note_on_c, 0, 64, 0
2, 388846, Note_on_c, 0, 68, 0
2, 388859, Note_on_c, 0, 69, 92
2, 388864, Note_on_c, 0, 42, 86
2, 388867, Note_on_c, 0, 61, 85
2, 388868, Note_on_c, 0, 66, 88
2, 388930, Control_c, 0, 64, 127
2, 389027, Note_on_c, 0, 71, 90
2, 389171, Note_on_c, 0, 73, 91
2, 389308, Note_on_c, 0, 52, 78
2, 389310, Note_on_c, 0, 40, 78
2, 389424, Note_on_c, 0, 66, 0
2, 389425, Note_on_c, 0, 52, 0
2, 389425, Control_c, 0, 64, 0
2, 389425, Note_on_c, 0, 61, 0
2, 389425, Note_on_c, 0, 71, 0
2, 389425, Note_on_c, 0, 69, 0
2, 389425, Note_on_c, 0, 73, 0
2, 389426, Note_on_c, 0, 40, 0
2, 389429, Note_on_c, 0, 42, 0
2, 389477, Note_on_c, 0, 74, 101
2, 389479, Note_on_c, 0, 62, 92
2, 389480, Note_on_c, 0, 50, 93
2, 389482, Note_on_c, 0, 38, 92
2, 389484, Note_on_c, 0, 66, 92
2, 389521, Control_c, 0, 64, 127
2, 389675, Note_on_c, 0, 62, 0
2, 389752, Control_c, 0, 64, 0
2, 389752, Note_on_c, 0, 50, 0
2, 389755, Note_on_c, 0, 66, 0
2, 389755, Note_on_c, 0, 74, 0
2, 389756, Note_on_c, 0, 38, 0
2, 389778, Note_on_c, 0, 47, 84
2, 389779, Note_on_c, 0, 73, 96
2, 389779, Note_on_c, 0, 35, 85
2, 389813, Control_c, 0, 64, 127
2, 389882, Note_on_c, 0, 35, 0
2, 389919, Note_on_c, 0, 71, 87
2, 390030, Control_c, 0, 64, 0
2, 390030, Note_on_c, 0, 73, 0
2, 390031, Note_on_c, 0, 71, 0
2, 390036, Note_on_c, 0, 47, 0
2, 390078, Note_on_c, 0, 73, 97
2, 390078, Note_on_c, 0, 49, 81
2, 390079, Note_on_c, 0, 37, 79
2, 390086, Note_on_c, 0, 65, 73
2, 390086, Note_on_c, 0, 68, 81
2, 390117, Note_on_c, 0, 37, 0
2, 390128, Control_c, 0, 64, 127
2, 390144, Note_on_c, 0, 49, 0
2, 390218, Note_on_c, 0, 49, 79
2, 390382, Note_on_c, 0, 53, 76
2, 390544, Note_on_c, 0, 56, 75
2, 390551, Note_on_c, 0, 74, 81
2, 390620, Note_on_c, 0, 73, 0
2, 390630, Note_on_c, 0, 73, 88
2, 390659, Note_on_c, 0, 53, 0
2, 390661, Control_c, 0, 64, 0
2, 390664, Note_on_c, 0, 74, 0
2, 390693, Note_on_c, 0, 59, 80
2, 390716, Note_on_c, 0, 71, 90
2, 390735, Note_on_c, 0, 73, 0
2, 390896, Control_c, 0, 64, 127
2, 391334, Note_on_c, 0, 65, 0
2, 391349, Note_on_c, 0, 56, 0
2, 391353, Control_c, 0, 64, 0
2, 391353, Note_on_c, 0, 59, 0
2, 391354, Note_on_c, 0, 71, 0
2, 391357, Note_on_c, 0, 49, 0
2, 391362, Note_on_c, 0, 64, 60
2, 391364, Note_on_c, 0, 45, 53
2, 391365, Note_on_c, 0, 57, 61
2, 391369, Note_on_c, 0, 50, 49
2, 391369, Note_on_c, 0, 54, 56
2, 391380, Note_on_c, 0, 68, 0
2, 391523, Note_on_c, 0, 73, 76
2, 391557, Control_c, 0, 64, 127
2, 391679, Note_on_c, 0, 71, 70
2, 391818, Note_on_c, 0, 54, 0
2, 391818, Note_on_c, 0, 57, 0
2, 391818, Note_on_c, 0, 64, 0
2, 391818, Note_on_c, 0, 73, 0
2, 391823, Note_on_c, 0, 64, 63
2, 391823, Note_on_c, 0, 73, 74
2, 391824, Note_on_c, 0, 54, 52
2, 391827, Note_on_c, 0, 57, 59
2, 391861, Control_c, 0, 64, 0
2, 391876, Note_on_c, 0, 54, 0
2, 391878, Note_on_c, 0, 64, 0
2, 391879, Note_on_c, 0, 57, 0
2, 391879, Note_on_c, 0, 45, 0
2, 391881, Note_on_c, 0, 50, 0
2, 391884, Note_on_c, 0, 71, 0
2, 391975, Note_on_c, 0, 54, 60
2, 391976, Note_on_c, 0, 57, 59
2, 391982, Note_on_c, 0, 64, 69
2, 392110, Control_c, 0, 64, 127
2, 392144, Note_on_c, 0, 74, 76
2, 392294, Note_on_c, 0, 73, 0
2, 392303, Note_on_c, 0, 73, 83
2, 392432, Note_on_c, 0, 54, 0
2, 392440, Note_on_c, 0, 57, 0
2, 392444, Note_on_c, 0, 54, 58
2, 392444, Note_on_c, 0, 57, 69
2, 392448, Note_on_c, 0, 64, 0
2, 392448, Note_on_c, 0, 74, 0
2, 392454, Note_on_c, 0, 74, 82
2, 392459, Note_on_c, 0, 64, 65
2, 392571, Note_on_c, 0, 57, 0
2, 392571, Control_c, 0, 64, 0
2, 392571, Note_on_c, 0, 64, 0
2, 392572, Note_on_c, 0, 73, 0
2, 392572, Note_on_c, 0, 74, 0
2, 392586, Note_on_c, 0, 54, 0
2, 392604, Note_on_c, 0, 50, 65
2, 392605, Note_on_c, 0, 76, 75
2, 392626, Note_on_c, 0, 59, 75
2, 392636, Note_on_c, 0, 56, 59
2, 392771, Note_on_c, 0, 71, 80
2, 392793, Control_c, 0, 64, 127
2, 392914, Note_on_c, 0, 69, 75
2, 393052, Note_on_c, 0, 64, 77
2, 393057, Note_on_c, 0, 68, 74
2, 393184, Control_c, 0, 64, 0
2, 393185, Note_on_c, 0, 68, 0
2, 393185, Note_on_c, 0, 56, 0
2, 393185, Note_on_c, 0, 76, 0
2, 393185, Note_on_c, 0, 71, 0
2, 393186, Note_on_c, 0, 69, 0
2, 393216, Note_on_c, 0, 64, 0
2, 393223, Note_on_c, 0, 64, 72
2, 393226, Note_on_c, 0, 68, 75
2, 393277, Control_c, 0, 64, 127
2, 393373, Note_on_c, 0, 69, 72
2, 393512, Note_on_c, 0, 71, 78
2, 393630, Note_on_c, 0, 50, 0
2, 393642, Note_on_c, 0, 50, 58
2, 393669, Note_on_c, 0, 64, 0
2, 393674, Note_on_c, 0, 64, 68
2, 393806, Note_on_c, 0, 68, 0
2, 393807, Note_on_c, 0, 59, 0
2, 393807, Control_c, 0, 64, 0
2, 393808, Note_on_c, 0, 69, 0
2, 393818, Note_on_c, 0, 59, 68
2, 393822, Note_on_c, 0, 49, 60
2, 393828, Note_on_c, 0, 56, 63
2, 393830, Note_on_c, 0, 50, 0
2, 393922, Control_c, 0, 64, 127
2, 393973, Note_on_c, 0, 68, 77
2, 394134, Note_on_c, 0, 66, 74
2, 394275, Note_on_c, 0, 56, 0
2, 394275, Note_on_c, 0, 59, 0
2, 394275, Note_on_c, 0, 64, 0
2, 394275, Note_on_c, 0, 68, 0
2, 394282, Note_on_c, 0, 56, 66
2, 394284, Note_on_c, 0, 59, 68
2, 394286, Note_on_c, 0, 64, 60
2, 394286, Note_on_c, 0, 68, 69
2, 394383, Note_on_c, 0, 71, 0
2, 394391, Note_on_c, 0, 49, 0
2, 394391, Note_on_c, 0, 59, 0
2, 394391, Note_on_c, 0, 66, 0
2, 394392, Note_on_c, 0, 64, 0
2, 394395, Control_c, 0, 64, 0
2, 394437, Note_on_c, 0, 56, 0
2, 394444, Note_on_c, 0, 56, 61
2, 394448, Note_on_c, 0, 59, 64
2, 394449, Note_on_c, 0, 64, 72
2, 394450, Note_on_c, 0, 49, 50
2, 394460, Note_on_c, 0, 49, 0
2, 394506, Control_c, 0, 64, 127
2, 394593, Note_on_c, 0, 69, 77
2, 394736, Note_on_c, 0, 68, 0
2, 394741, Note_on_c, 0, 68, 77
2, 394883, Note_on_c, 0, 49, 64
2, 394891, Note_on_c, 0, 71, 85
2, 395009, Note_on_c, 0, 49, 0
2, 395009, Control_c, 0, 64, 0
2, 395009, Note_on_c, 0, 68, 0
2, 395009, Note_on_c, 0, 56, 0
2, 395009, Note_on_c, 0, 69, 0
2, 395010, Note_on_c, 0, 64, 0
2, 395010, Note_on_c, 0, 59, 0
2, 395014, Note_on_c, 0, 71, 0
2, 395049, Note_on_c, 0, 57, 73
2, 395050, Note_on_c, 0, 61, 75
2, 395053, Note_on_c, 0, 73, 81
2, 395053, Note_on_c, 0, 54, 65
2, 395143, Control_c, 0, 64, 127
2, 395207, Note_on_c, 0, 69, 75
2, 395363, Note_on_c, 0, 68, 75
2, 395496, Note_on_c, 0, 57, 0
2, 395496, Note_on_c, 0, 61, 0
2, 395504, Note_on_c, 0, 54, 0
2, 395507, Note_on_c, 0, 61, 78
2, 395508, Note_on_c, 0, 57, 74
2, 395508, Note_on_c, 0, 66, 72
2, 395508, Note_on_c, 0, 54, 62
2, 395620, Note_on_c, 0, 69, 0
2, 395622, Note_on_c, 0, 66, 0
2, 395622, Note_on_c, 0, 68, 0
2, 395622, Note_on_c, 0, 54, 0
2, 395622, Note_on_c, 0, 61, 0
2, 395622, Note_on_c, 0, 57, 0
2, 395623, Control_c, 0, 64, 0
2, 395635, Note_on_c, 0, 73, 0
2, 395669, Note_on_c, 0, 66, 75
2, 395670, Note_on_c, 0, 61, 73
2, 395673, Note_on_c, 0, 57, 56
2, 395712, Control_c, 0, 64, 127
2, 395836, Note_on_c, 0, 68, 72
2, 395992, Note_on_c, 0, 64, 72
2, 396130, Note_on_c, 0, 52, 69
2, 396280, Note_on_c, 0, 57, 0
2, 396288, Note_on_c, 0, 50, 68
2, 396288, Note_on_c, 0, 45, 59
2, 396290, Note_on_c, 0, 54, 66
2, 396291, Note_on_c, 0, 57, 70
2, 396295, Note_on_c, 0, 45, 0
2, 396300, Control_c, 0, 64, 0
2, 396301, Note_on_c, 0, 52, 0
2, 396301, Note_on_c, 0, 66, 0
2, 396301, Note_on_c, 0, 61, 0
2, 396302, Note_on_c, 0, 64, 0
2, 396302, Note_on_c, 0, 68, 0
2, 396395, Control_c, 0, 64, 127
2, 396442, Note_on_c, 0, 66, 73
2, 396580, Note_on_c, 0, 64, 75
2, 396718, Note_on_c, 0, 57, 0
2, 396725, Note_on_c, 0, 54, 0
2, 396726, Note_on_c, 0, 57, 77
2, 396733, Note_on_c, 0, 66, 0
2, 396736, Note_on_c, 0, 54, 72
2, 396738, Note_on_c, 0, 66, 77
2, 396885, Note_on_c, 0, 59, 84
2, 396896, Control_c, 0, 64, 0
2, 396898, Note_on_c, 0, 50, 0
2, 396898, Note_on_c, 0, 64, 0
2, 396906, Note_on_c, 0, 66, 0
2, 396940, Note_on_c, 0, 57, 0
2, 396948, Note_on_c, 0, 54, 0
2, 396979, Control_c, 0, 64, 127
2, 397048, Note_on_c, 0, 68, 83
2, 397188, Note_on_c, 0, 66, 80
2, 397309, Note_on_c, 0, 59, 0
2, 397314, Note_on_c, 0, 59, 69
2, 397317, Note_on_c, 0, 68, 0
2, 397325, Note_on_c, 0, 68, 77
2, 397466, Control_c, 0, 64, 0
2, 397466, Note_on_c, 0, 59, 0
2, 397466, Note_on_c, 0, 66, 0
2, 397486, Note_on_c, 0, 68, 0
2, 397490, Note_on_c, 0, 69, 78
2, 397505, Note_on_c, 0, 49, 71
2, 397505, Note_on_c, 0, 52, 65
2, 397547, Control_c, 0, 64, 127
2, 397636, Note_on_c, 0, 64, 77
2, 397767, Control_c, 0, 64, 0
2, 397785, Note_on_c, 0, 52, 0
2, 397800, Control_c, 0, 64, 127
2, 397807, Note_on_c, 0, 61, 79
2, 397813, Note_on_c, 0, 47, 69
2, 397916, Note_on_c, 0, 49, 0
2, 397953, Note_on_c, 0, 59, 83
2, 398075, Control_c, 0, 64, 0
2, 398075, Note_on_c, 0, 64, 0
2, 398075, Note_on_c, 0, 61, 0
2, 398077, Note_on_c, 0, 69, 0
2, 398110, Note_on_c, 0, 45, 71
2, 398112, Note_on_c, 0, 57, 86
2, 398137, Note_on_c, 0, 59, 0
2, 398144, Note_on_c, 0, 47, 0
2, 398264, Note_on_c, 0, 59, 82
2, 398303, Note_on_c, 0, 57, 0
2, 398384, Control_c, 0, 64, 127
2, 398411, Note_on_c, 0, 52, 65
2, 398417, Note_on_c, 0, 61, 83
2, 398417, Note_on_c, 0, 49, 60
2, 398446, Note_on_c, 0, 59, 0
2, 398561, Note_on_c, 0, 64, 86
2, 398701, Control_c, 0, 64, 0
2, 398702, Note_on_c, 0, 61, 0
2, 398702, Note_on_c, 0, 52, 0
2, 398702, Note_on_c, 0, 49, 0
2, 398702, Note_on_c, 0, 64, 0
2, 398707, Note_on_c, 0, 45, 0
2, 398712, Note_on_c, 0, 45, 58
2, 398713, Note_on_c, 0, 54, 70
2, 398714, Note_on_c, 0, 50, 72
2, 398791, Note_on_c, 0, 45, 0
2, 398830, Control_c, 0, 64, 127
2, 398871, Note_on_c, 0, 66, 83
2, 399017, Note_on_c, 0, 64, 77
2, 399160, Note_on_c, 0, 50, 0
2, 399160, Note_on_c, 0, 54, 0
2, 399160, Note_on_c, 0, 66, 0
2, 399164, Note_on_c, 0, 66, 81
2, 399164, Note_on_c, 0, 54, 75
2, 399167, Note_on_c, 0, 50, 75
2, 399291, Note_on_c, 0, 50, 0
2, 399292, Note_on_c, 0, 54, 0
2, 399293, Note_on_c, 0, 64, 0
2, 399294, Control_c, 0, 64, 0
2, 399294, Note_on_c, 0, 66, 0
2, 399325, Note_on_c, 0, 45, 62
2, 399326, Note_on_c, 0, 51, 74
2, 399326, Note_on_c, 0, 57, 75
2, 399398, Note_on_c, 0, 45, 0
2, 399398, Control_c, 0, 64, 127
2, 399482, Note_on_c, 0, 68, 86
2, 399631, Note_on_c, 0, 69, 86
2, 399759, Note_on_c, 0, 51, 0
2, 399769, Note_on_c, 0, 45, 73
2, 399769, Note_on_c, 0, 51, 76
2, 399776, Note_on_c, 0, 71, 90
2, 399901, Control_c, 0, 64, 0
2, 399902, Note_on_c, 0, 68, 0
2, 399902, Note_on_c, 0, 71, 0
2, 399902, Note_on_c, 0, 69, 0
2, 399920, Note_on_c, 0, 45, 0
2, 399920, Note_on_c, 0, 51, 0
2, 399920, Note_on_c, 0, 57, 0
2, 399926, Note_on_c, 0, 45, 69
2, 399926, Note_on_c, 0, 73, 91
2, 399929, Note_on_c, 0, 57, 83
2, 399930, Note_on_c, 0, 52, 74
2, 400091, Note_on_c, 0, 74, 80
2, 400158, Note_on_c, 0, 73, 0
2, 400170, Note_on_c, 0, 73, 89
2, 400202, Note_on_c, 0, 74, 0
2, 400243, Note_on_c, 0, 71, 84
2, 400254, Note_on_c, 0, 73, 0
2, 400388, Note_on_c, 0, 73, 92
2, 400411, Note_on_c, 0, 71, 0
2, 400512, Note_on_c, 0, 45, 0
2, 400545, Note_on_c, 0, 59, 74
2, 400546, Note_on_c, 0, 76, 87
2, 400549, Note_on_c, 0, 56, 70
2, 400555, Note_on_c, 0, 57, 0
2, 400575, Note_on_c, 0, 73, 0
2, 400701, Note_on_c, 0, 74, 83
2, 400707, Note_on_c, 0, 76, 0
2, 400796, Control_c, 0, 64, 127
2, 400855, Note_on_c, 0, 73, 85
2, 401011, Note_on_c, 0, 71, 81
2, 401160, Control_c, 0, 64, 0
2, 401164, Note_on_c, 0, 73, 0
2, 401165, Note_on_c, 0, 71, 0
2, 401165, Note_on_c, 0, 74, 0
2, 401166, Note_on_c, 0, 59, 0
2, 401166, Note_on_c, 0, 56, 0
2, 401167, Note_on_c, 0, 52, 0
2, 401170, Note_on_c, 0, 69, 80
2, 401174, Note_on_c, 0, 61, 65
2, 401323, Note_on_c, 0, 64, 75
2, 401325, Note_on_c, 0, 57, 60
2, 401330, Note_on_c, 0, 61, 0
2, 401346, Note_on_c, 0, 69, 0
2, 401482, Note_on_c, 0, 69, 79
2, 401483, Note_on_c, 0, 61, 62
2, 401514, Note_on_c, 0, 64, 0
2, 401561, Note_on_c, 0, 57, 0
2, 401797, Note_on_c, 0, 71, 84
2, 401800, Note_on_c, 0, 62, 64
2, 401829, Note_on_c, 0, 61, 0
2, 401832, Note_on_c, 0, 69, 0
2, 402120, Note_on_c, 0, 74, 81
2, 402128, Note_on_c, 0, 59, 60
2, 402129, Note_on_c, 0, 71, 0
2, 402460, Note_on_c, 0, 74, 0
2, 402462, Note_on_c, 0, 76, 73
2, 402473, Note_on_c, 0, 52, 52
2, 402585, Control_c, 0, 64, 127
2, 402769, Note_on_c, 0, 59, 0
2, 403123, Note_on_c, 0, 76, 0
2, 403132, Note_on_c, 0, 76, 59
2, 403155, Note_on_c, 0, 88, 68
2, 403883, Note_on_c, 0, 81, 78
2, 403886, Note_on_c, 0, 73, 64
2, 404031, Note_on_c, 0, 69, 58
2, 404052, Note_on_c, 0, 76, 0
2, 404061, Note_on_c, 0, 76, 69
2, 404079, Note_on_c, 0, 81, 0
2, 404081, Note_on_c, 0, 73, 0
2, 404081, Control_c, 0, 64, 0
2, 404090, Note_on_c, 0, 52, 0
2, 404152, Note_on_c, 0, 88, 0
2, 404183, Control_c, 0, 64, 127
2, 404213, Note_on_c, 0, 62, 0
2, 404217, Note_on_c, 0, 73, 60
2, 404218, Note_on_c, 0, 81, 77
2, 404565, Note_on_c, 0, 83, 81
2, 404567, Note_on_c, 0, 74, 65
2, 404930, Note_on_c, 0, 86, 84
2, 404939, Note_on_c, 0, 71, 57
2, 405338, Note_on_c, 0, 88, 68
2, 405341, Note_on_c, 0, 64, 67
2, 406225, Note_on_c, 0, 83, 0
2, 406225, Note_on_c, 0, 88, 0
2, 406229, Note_on_c, 0, 88, 33
2, 406230, Note_on_c, 0, 83, 21
2, 406230, Note_on_c, 0, 95, 28
2, 406241, Note_on_c, 0, 95, 0
2, 406298, Note_on_c, 0, 100, 70
2, 406319, Note_on_c, 0, 65, 32
2, 406325, Note_on_c, 0, 65, 0
2, 408460, Note_on_c, 0, 69, 0
2, 408466, Note_on_c, 0, 69, 61
2, 408668, Note_on_c, 0, 76, 0
2, 408668, Note_on_c, 0, 100, 0
2, 408675, Note_on_c, 0, 64, 0
2, 408682, Note_on_c, 0, 64, 63
2, 408700, Note_on_c, 0, 88, 0
2, 408706, Note_on_c, 0, 81, 0
2, 408714, Note_on_c, 0, 83, 0
2, 408721, Note_on_c, 0, 71, 0
2, 408729, Note_on_c, 0, 86, 0
2, 408768, Note_on_c, 0, 73, 0
2, 408860, Note_on_c, 0, 74, 0
2, 408883, Note_on_c, 0, 69, 0
2, 408888, Note_on_c, 0, 69, 58
2, 408960, Control_c, 0, 64, 0
2, 409289, Note_on_c, 0, 71, 77
2, 409700, Note_on_c, 0, 74, 77
2, 409774, Control_c, 0, 64, 127
2, 410129, Note_on_c, 0, 57, 75
2, 410132, Note_on_c, 0, 73, 71
2, 410147, Control_c, 0, 64, 0
2, 410319, Control_c, 0, 64, 127
2, 410327, Note_on_c, 0, 74, 0
2, 410331, Note_on_c, 0, 74, 72
2, 410361, Note_on_c, 0, 52, 63
2, 410442, Note_on_c, 0, 73, 0
2, 410452, Note_on_c, 0, 73, 73
2, 410519, Note_on_c, 0, 57, 0
2, 410528, Note_on_c, 0, 57, 76
2, 410534, Note_on_c, 0, 71, 0
2, 410543, Note_on_c, 0, 71, 78
2, 410749, Note_on_c, 0, 69, 0
2, 410754, Note_on_c, 0, 69, 77
2, 410952, Control_c, 0, 64, 0
2, 410958, Note_on_c, 0, 69, 0
2, 410958, Note_on_c, 0, 57, 0
2, 410959, Note_on_c, 0, 73, 0
2, 410961, Note_on_c, 0, 52, 0
2, 410995, Note_on_c, 0, 71, 0
2, 411006, Note_on_c, 0, 59, 70
2, 411006, Note_on_c, 0, 71, 75
2, 411006, Note_on_c, 0, 56, 65
2, 411010, Note_on_c, 0, 64, 0
2, 411010, Note_on_c, 0, 74, 0
2, 411156, Control_c, 0, 64, 127
2, 411484, Control_c, 0, 64, 0
2, 411502, Note_on_c, 0, 62, 74
2, 411505, Note_on_c, 0, 68, 68
2, 411578, Control_c, 0, 64, 127
2, 412085, Note_on_c, 0, 59, 0
2, 412096, Note_on_c, 0, 69, 76
2, 412125, Note_on_c, 0, 57, 56
2, 412127, Note_on_c, 0, 61, 57
2, 412128, Note_on_c, 0, 66, 58
2, 412141, Note_on_c, 0, 54, 50
2, 412151, Note_on_c, 0, 62, 0
2, 412153, Control_c, 0, 64, 0
2, 412157, Note_on_c, 0, 68, 0
2, 412158, Note_on_c, 0, 71, 0
2, 412162, Note_on_c, 0, 56, 0
2, 412561, Control_c, 0, 64, 127
2, 413333, Note_on_c, 0, 78, 91
2, 413345, Note_on_c, 0, 57, 0
2, 413351, Note_on_c, 0, 57, 57
2, 413352, Note_on_c, 0, 66, 0
2, 413356, Note_on_c, 0, 50, 52
2, 413357, Note_on_c, 0, 74, 66
2, 413361, Note_on_c, 0, 66, 61
2, 413386, Control_c, 0, 64, 0
2, 413391, Note_on_c, 0, 54, 0
2, 413395, Note_on_c, 0, 69, 0
2, 413396, Note_on_c, 0, 61, 0
2, 414773, Control_c, 0, 64, 127
2, 415793, Note_on_c, 0, 76, 66
2, 415797, Note_on_c, 0, 73, 63
2, 415799, Note_on_c, 0, 69, 55
2, 415802, Note_on_c, 0, 57, 0
2, 415804, Note_on_c, 0, 64, 62
2, 415809, Note_on_c, 0, 52, 45
2, 415814, Note_on_c, 0, 57, 50
2, 415821, Note_on_c, 0, 61, 49
2, 415858, Control_c, 0, 64, 0
2, 415861, Note_on_c, 0, 74, 0
2, 415863, Note_on_c, 0, 50, 0
2, 415865, Note_on_c, 0, 78, 0
2, 415879, Note_on_c, 0, 66, 0
2, 416302, Control_c, 0, 64, 127
2, 417122, Note_on_c, 0, 74, 69
2, 417561, Note_on_c, 0, 73, 0
2, 417563, Note_on_c, 0, 56, 50
2, 417571, Note_on_c, 0, 73, 72
2, 417578, Note_on_c, 0, 59, 45
2, 417583, Note_on_c, 0, 62, 52
2, 417605, Control_c, 0, 64, 0
2, 417608, Note_on_c, 0, 74, 0
2, 417609, Note_on_c, 0, 69, 0
2, 417609, Note_on_c, 0, 76, 0
2, 417610, Note_on_c, 0, 64, 0
2, 417610, Note_on_c, 0, 61, 0
2, 417630, Note_on_c, 0, 57, 0
2, 418084, Note_on_c, 0, 74, 67
2, 418337, Note_on_c, 0, 73, 0
2, 418345, Note_on_c, 0, 73, 70
2, 418400, Note_on_c, 0, 74, 0
2, 418652, Note_on_c, 0, 71, 68
2, 418683, Note_on_c, 0, 73, 0
2, 419372, Note_on_c, 0, 69, 57
2, 419394, Note_on_c, 0, 71, 0
2, 419581, Control_c, 0, 64, 127
2, 420418, Note_on_c, 0, 52, 0
2, 420480, Note_on_c, 0, 56, 0
2, 420480, Note_on_c, 0, 59, 0
2, 420480, Note_on_c, 0, 62, 0
2, 420672, Note_on_c, 0, 69, 0
2, 420682, Note_on_c, 0, 64, 53
2, 420683, Note_on_c, 0, 69, 54
2, 420699, Note_on_c, 0, 57, 39
2, 420700, Note_on_c, 0, 45, 43
2, 420702, Note_on_c, 0, 61, 44
2, 420743, Control_c, 0, 64, 0
2, 421086, Control_c, 0, 64, 127
2, 422269, Note_on_c, 0, 45, 0
2, 422280, Note_on_c, 0, 45, 46
2, 423713, Note_on_c, 0, 45, 0
2, 423724, Note_on_c, 0, 45, 47
2, 423725, Note_on_c, 0, 64, 0
2, 424320, Note_on_c, 0, 57, 0
2, 424320, Note_on_c, 0, 61, 0
2, 424320, Note_on_c, 0, 69, 0
2, 424412, Note_on_c, 0, 45, 0
2, 424419, Note_on_c, 0, 45, 53
2, 425064, Note_on_c, 0, 45, 0
2, 425069, Note_on_c, 0, 45, 58
2, 425157, Control_c, 0, 64, 0
2, 425222, Note_on_c, 0, 45, 0
2, 425719, Note_on_c, 0, 45, 58
2, 425785, Note_on_c, 0, 45, 0
2, 426009, Control_c, 0, 64, 127
2, 426030, Note_on_c, 0, 46, 60
2, 426319, Control_c, 0, 64, 0
2, 426320, Note_on_c, 0, 46, 0
2, 426351, Note_on_c, 0, 45, 67
2, 426353, Note_on_c, 0, 33, 50
2, 426398, Note_on_c, 0, 45, 0
2, 426400, Note_on_c, 0, 33, 0
2, 426642, Note_on_c, 0, 45, 65
2, 426697, Note_on_c, 0, 45, 0
2, 426962, Note_on_c, 0, 45, 68
2, 426965, Note_on_c, 0, 33, 58
2, 427010, Note_on_c, 0, 45, 0
2, 427011, Note_on_c, 0, 33, 0
2, 427257, Note_on_c, 0, 45, 73
2, 427307, Note_on_c, 0, 45, 0
2, 427559, Note_on_c, 0, 45, 79
2, 427561, Note_on_c, 0, 33, 71
2, 427603, Note_on_c, 0, 45, 0
2, 427604, Note_on_c, 0, 33, 0
2, 427864, Note_on_c, 0, 45, 81
2, 427919, Note_on_c, 0, 45, 0
2, 428163, Note_on_c, 0, 45, 76
2, 428163, Note_on_c, 0, 33, 70
2, 428205, Note_on_c, 0, 45, 0
2, 428208, Note_on_c, 0, 33, 0
2, 428456, Note_on_c, 0, 48, 77
2, 428456, Note_on_c, 0, 36, 75
2, 428459, Control_c, 0, 64, 127
2, 428763, Note_on_c, 0, 52, 72
2, 428763, Note_on_c, 0, 45, 72
2, 428764, Note_on_c, 0, 57, 79
2, 428766, Note_on_c, 0, 33, 74
2, 428768, Control_c, 0, 64, 0
2, 428772, Note_on_c, 0, 36, 0
2, 428776, Note_on_c, 0, 48, 0
2, 428807, Note_on_c, 0, 52, 0
2, 428818, Note_on_c, 0, 57, 0
2, 428821, Note_on_c, 0, 33, 0
2, 428824, Note_on_c, 0, 45, 0
2, 428921, Note_on_c, 0, 45, 68
2, 428977, Note_on_c, 0, 45, 0
2, 429056, Note_on_c, 0, 57, 73
2, 429066, Note_on_c, 0, 33, 58
2, 429105, Note_on_c, 0, 57, 0
2, 429204, Note_on_c, 0, 45, 69
2, 429270, Note_on_c, 0, 45, 0
2, 429273, Note_on_c, 0, 33, 0
2, 429349, Note_on_c, 0, 45, 76
2, 429351, Note_on_c, 0, 57, 85
2, 429354, Note_on_c, 0, 52, 76
2, 429354, Note_on_c, 0, 33, 76
2, 429384, Note_on_c, 0, 52, 0
2, 429390, Note_on_c, 0, 45, 0
2, 429390, Note_on_c, 0, 57, 0
2, 429427, Note_on_c, 0, 33, 0
2, 429500, Note_on_c, 0, 45, 65
2, 429574, Note_on_c, 0, 45, 0
2, 429652, Note_on_c, 0, 57, 75
2, 429653, Note_on_c, 0, 33, 64
2, 429699, Note_on_c, 0, 57, 0
2, 429772, Note_on_c, 0, 33, 0
2, 429799, Note_on_c, 0, 45, 62
2, 429895, Note_on_c, 0, 45, 0
2, 429940, Note_on_c, 0, 45, 80
2, 429943, Note_on_c, 0, 52, 80
2, 429943, Note_on_c, 0, 33, 79
2, 429944, Note_on_c, 0, 57, 90
2, 429977, Note_on_c, 0, 45, 0
2, 429977, Note_on_c, 0, 52, 0
2, 429978, Note_on_c, 0, 57, 0
2, 430018, Note_on_c, 0, 33, 0
2, 430108, Note_on_c, 0, 45, 66
2, 430241, Note_on_c, 0, 57, 83
2, 430256, Note_on_c, 0, 33, 68
2, 430280, Note_on_c, 0, 57, 0
2, 430318, Note_on_c, 0, 45, 0
2, 430382, Note_on_c, 0, 45, 64
2, 430425, Note_on_c, 0, 33, 0
2, 430536, Note_on_c, 0, 33, 79
2, 430536, Note_on_c, 0, 57, 79
2, 430563, Control_c, 0, 64, 127
2, 430578, Note_on_c, 0, 45, 0
2, 430582, Note_on_c, 0, 57, 0
2, 430602, Control_c, 0, 64, 0
2, 430625, Note_on_c, 0, 33, 0
2, 430651, Note_on_c, 0, 45, 70
2, 430786, Note_on_c, 0, 45, 0
2, 430820, Note_on_c, 0, 53, 82
2, 430821, Note_on_c, 0, 58, 95
2, 430822, Note_on_c, 0, 34, 86
2, 430840, Control_c, 0, 64, 127
2, 430949, Note_on_c, 0, 46, 70
2, 431074, Note_on_c, 0, 34, 0
2, 431074, Note_on_c, 0, 46, 0
2, 431076, Note_on_c, 0, 58, 0
2, 431077, Note_on_c, 0, 53, 0
2, 431080, Control_c, 0, 64, 0
2, 431122, Note_on_c, 0, 33, 79
2, 431123, Note_on_c, 0, 57, 86
2, 431127, Note_on_c, 0, 52, 78
2, 431161, Note_on_c, 0, 57, 0
2, 431165, Note_on_c, 0, 33, 0
2, 431178, Note_on_c, 0, 52, 0
2, 431245, Note_on_c, 0, 45, 73
2, 431347, Note_on_c, 0, 45, 0
2, 431412, Note_on_c, 0, 57, 83
2, 431420, Note_on_c, 0, 33, 66
2, 431449, Note_on_c, 0, 57, 0
2, 431493, Note_on_c, 0, 33, 0
2, 431551, Note_on_c, 0, 45, 63
2, 431703, Note_on_c, 0, 57, 85
2, 431704, Note_on_c, 0, 52, 81
2, 431705, Note_on_c, 0, 33, 80
2, 431738, Note_on_c, 0, 45, 0
2, 431739, Note_on_c, 0, 52, 0
2, 431742, Note_on_c, 0, 57, 0
2, 431745, Note_on_c, 0, 33, 0
2, 431837, Note_on_c, 0, 45, 67
2, 431892, Note_on_c, 0, 45, 0
2, 431994, Note_on_c, 0, 57, 79
2, 431996, Note_on_c, 0, 33, 61
2, 432029, Note_on_c, 0, 57, 0
2, 432099, Note_on_c, 0, 33, 0
2, 432135, Note_on_c, 0, 45, 59
2, 432253, Note_on_c, 0, 45, 0
2, 432286, Note_on_c, 0, 52, 87
2, 432287, Note_on_c, 0, 33, 81
2, 432295, Note_on_c, 0, 57, 81
2, 432319, Note_on_c, 0, 52, 0
2, 432327, Note_on_c, 0, 57, 0
2, 432360, Note_on_c, 0, 33, 0
2, 432427, Note_on_c, 0, 45, 60
2, 432499, Note_on_c, 0, 45, 0
2, 432573, Note_on_c, 0, 57, 89
2, 432579, Note_on_c, 0, 33, 75
2, 432618, Note_on_c, 0, 57, 0
2, 432637, Control_c, 0, 64, 127
2, 432660, Control_c, 0, 64, 0
2, 432704, Note_on_c, 0, 45, 62
2, 432775, Note_on_c, 0, 33, 0
2, 432852, Note_on_c, 0, 57, 92
2, 432858, Note_on_c, 0, 33, 80
2, 432875, Control_c, 0, 64, 127
2, 432913, Note_on_c, 0, 45, 0
2, 432992, Note_on_c, 0, 45, 68
2, 432994, Control_c, 0, 64, 0
2, 432999, Note_on_c, 0, 57, 0
2, 433029, Note_on_c, 0, 33, 0
2, 433044, Note_on_c, 0, 45, 0
2, 433133, Note_on_c, 0, 36, 95
2, 433135, Note_on_c, 0, 60, 91
2, 433152, Control_c, 0, 64, 127
2, 433271, Note_on_c, 0, 48, 78
2, 433425, Note_on_c, 0, 59, 102
2, 433428, Note_on_c, 0, 48, 0
2, 433429, Note_on_c, 0, 35, 91
2, 433432, Control_c, 0, 64, 0
2, 433436, Note_on_c, 0, 36, 0
2, 433436, Note_on_c, 0, 60, 0
2, 433468, Note_on_c, 0, 59, 0
2, 433470, Note_on_c, 0, 35, 0
2, 433586, Note_on_c, 0, 47, 71
2, 433630, Note_on_c, 0, 47, 0
2, 433729, Note_on_c, 0, 35, 70
2, 433785, Note_on_c, 0, 35, 0
2, 433862, Note_on_c, 0, 47, 70
2, 433900, Note_on_c, 0, 47, 0
2, 434005, Note_on_c, 0, 47, 85
2, 434006, Note_on_c, 0, 59, 98
2, 434008, Note_on_c, 0, 54, 84
2, 434008, Note_on_c, 0, 35, 84
2, 434035, Note_on_c, 0, 47, 0
2, 434039, Note_on_c, 0, 59, 0
2, 434041, Note_on_c, 0, 35, 0
2, 434046, Note_on_c, 0, 54, 0
2, 434151, Note_on_c, 0, 47, 73
2, 434209, Note_on_c, 0, 47, 0
2, 434287, Note_on_c, 0, 35, 71
2, 434339, Note_on_c, 0, 35, 0
2, 434428, Note_on_c, 0, 47, 70
2, 434466, Note_on_c, 0, 47, 0
2, 434578, Note_on_c, 0, 47, 85
2, 434581, Note_on_c, 0, 59, 100
2, 434583, Note_on_c, 0, 35, 84
2, 434587, Note_on_c, 0, 54, 86
2, 434611, Note_on_c, 0, 47, 0
2, 434622, Note_on_c, 0, 35, 0
2, 434622, Note_on_c, 0, 59, 0
2, 434629, Note_on_c, 0, 54, 0
2, 434708, Note_on_c, 0, 47, 73
2, 434785, Note_on_c, 0, 47, 0
2, 434851, Note_on_c, 0, 35, 75
2, 434904, Note_on_c, 0, 35, 0
2, 434984, Note_on_c, 0, 47, 71
2, 435038, Note_on_c, 0, 47, 0
2, 435135, Note_on_c, 0, 59, 94
2, 435136, Note_on_c, 0, 54, 82
2, 435136, Note_on_c, 0, 35, 86
2, 435174, Note_on_c, 0, 35, 0
2, 435177, Note_on_c, 0, 59, 0
2, 435178, Note_on_c, 0, 54, 0
2, 435270, Note_on_c, 0, 47, 68
2, 435323, Note_on_c, 0, 47, 0
2, 435409, Note_on_c, 0, 55, 87
2, 435413, Note_on_c, 0, 60, 90
2, 435413, Note_on_c, 0, 36, 91
2, 435417, Note_on_c, 0, 54, 79
2, 435417, Note_on_c, 0, 55, 0
2, 435425, Note_on_c, 0, 54, 0
2, 435432, Control_c, 0, 64, 127
2, 435544, Note_on_c, 0, 48, 75
2, 435678, Control_c, 0, 64, 0
2, 435682, Note_on_c, 0, 36, 0
2, 435682, Note_on_c, 0, 48, 0
2, 435694, Note_on_c, 0, 60, 0
2, 435701, Note_on_c, 0, 59, 101
2, 435704, Note_on_c, 0, 35, 88
2, 435704, Note_on_c, 0, 54, 89
2, 435746, Note_on_c, 0, 54, 0
2, 435747, Note_on_c, 0, 35, 0
2, 435749, Note_on_c, 0, 59, 0
2, 435839, Note_on_c, 0, 47, 72
2, 435947, Note_on_c, 0, 47, 0
2, 435989, Note_on_c, 0, 35, 76
2, 435989, Note_on_c, 0, 59, 85
2, 436033, Note_on_c, 0, 35, 0
2, 436036, Note_on_c, 0, 59, 0
2, 436133, Note_on_c, 0, 47, 69
2, 436194, Note_on_c, 0, 47, 0
2, 436268, Note_on_c, 0, 59, 95
2, 436271, Note_on_c, 0, 35, 85
2, 436272, Note_on_c, 0, 54, 81
2, 436310, Note_on_c, 0, 35, 0
2, 436312, Note_on_c, 0, 54, 0
2, 436313, Note_on_c, 0, 59, 0
2, 436409, Note_on_c, 0, 47, 75
2, 436510, Note_on_c, 0, 47, 0
2, 436555, Note_on_c, 0, 59, 84
2, 436555, Note_on_c, 0, 35, 72
2, 436596, Note_on_c, 0, 35, 0
2, 436598, Note_on_c, 0, 59, 0
2, 436678, Note_on_c, 0, 47, 70
2, 436783, Note_on_c, 0, 47, 0
2, 436832, Note_on_c, 0, 59, 101
2, 436834, Note_on_c, 0, 35, 83
2, 436837, Note_on_c, 0, 54, 85
2, 436872, Note_on_c, 0, 35, 0
2, 436873, Note_on_c, 0, 59, 0
2, 436874, Note_on_c, 0, 54, 0
2, 436989, Note_on_c, 0, 47, 73
2, 437111, Note_on_c, 0, 59, 95
2, 437131, Note_on_c, 0, 35, 82
2, 437143, Note_on_c, 0, 47, 0
2, 437191, Note_on_c, 0, 35, 0
2, 437191, Note_on_c, 0, 59, 0
2, 437256, Note_on_c, 0, 47, 72
2, 437387, Note_on_c, 0, 59, 94
2, 437390, Note_on_c, 0, 54, 81
2, 437401, Note_on_c, 0, 35, 88
2, 437422, Note_on_c, 0, 47, 0
2, 437428, Note_on_c, 0, 35, 0
2, 437429, Note_on_c, 0, 54, 0
2, 437468, Note_on_c, 0, 59, 0
2, 437523, Note_on_c, 0, 47, 77
2, 437572, Note_on_c, 0, 47, 0
2, 437663, Note_on_c, 0, 62, 99
2, 437665, Note_on_c, 0, 38, 88
2, 437678, Note_on_c, 0, 57, 83
2, 437698, Control_c, 0, 64, 127
2, 437794, Note_on_c, 0, 50, 81
2, 437901, Note_on_c, 0, 62, 0
2, 437902, Note_on_c, 0, 57, 0
2, 437902, Note_on_c, 0, 38, 0
2, 437903, Control_c, 0, 64, 0
2, 437928, Note_on_c, 0, 50, 0
2, 437947, Note_on_c, 0, 59, 91
2, 437953, Note_on_c, 0, 35, 81
2, 437954, Note_on_c, 0, 54, 77
2, 437987, Note_on_c, 0, 35, 0
2, 437987, Note_on_c, 0, 59, 0
2, 437998, Note_on_c, 0, 54, 0
2, 438082, Note_on_c, 0, 59, 90
2, 438084, Note_on_c, 0, 47, 80
2, 438119, Note_on_c, 0, 47, 0
2, 438120, Note_on_c, 0, 59, 0
2, 438223, Note_on_c, 0, 66, 101
2, 438224, Note_on_c, 0, 35, 76
2, 438225, Note_on_c, 0, 63, 65
2, 438229, Note_on_c, 0, 59, 74
2, 438251, Control_c, 0, 64, 127
2, 438343, Note_on_c, 0, 35, 0
2, 438365, Note_on_c, 0, 47, 72
2, 438438, Note_on_c, 0, 47, 0
2, 438440, Note_on_c, 0, 66, 0
2, 438442, Control_c, 0, 64, 0
2, 438443, Note_on_c, 0, 59, 0
2, 438458, Note_on_c, 0, 63, 0
2, 438502, Note_on_c, 0, 47, 77
2, 438503, Note_on_c, 0, 35, 78
2, 438503, Note_on_c, 0, 59, 81
2, 438509, Note_on_c, 0, 54, 74
2, 438542, Note_on_c, 0, 35, 0
2, 438545, Note_on_c, 0, 47, 0
2, 438548, Note_on_c, 0, 54, 0
2, 438554, Note_on_c, 0, 59, 0
2, 438632, Note_on_c, 0, 54, 75
2, 438637, Note_on_c, 0, 47, 80
2, 438640, Note_on_c, 0, 59, 85
2, 438679, Note_on_c, 0, 47, 0
2, 438684, Note_on_c, 0, 59, 0
2, 438686, Note_on_c, 0, 54, 0
2, 438778, Note_on_c, 0, 67, 99
2, 438783, Note_on_c, 0, 47, 87
2, 438784, Note_on_c, 0, 59, 97
2, 438784, Note_on_c, 0, 35, 78
2, 438804, Control_c, 0, 64, 127
2, 438827, Note_on_c, 0, 47, 0
2, 438914, Note_on_c, 0, 47, 71
2, 439040, Note_on_c, 0, 67, 0
2, 439041, Control_c, 0, 64, 0
2, 439050, Note_on_c, 0, 59, 0
2, 439054, Note_on_c, 0, 59, 77
2, 439057, Note_on_c, 0, 35, 0
2, 439057, Note_on_c, 0, 47, 0
2, 439063, Note_on_c, 0, 47, 71
2, 439066, Note_on_c, 0, 66, 67
2, 439068, Note_on_c, 0, 35, 74
2, 439070, Note_on_c, 0, 54, 72
2, 439103, Note_on_c, 0, 47, 0
2, 439104, Note_on_c, 0, 54, 0
2, 439111, Note_on_c, 0, 59, 0
2, 439150, Note_on_c, 0, 35, 0
2, 439187, Note_on_c, 0, 54, 71
2, 439191, Note_on_c, 0, 47, 78
2, 439191, Note_on_c, 0, 59, 89
2, 439221, Note_on_c, 0, 54, 0
2, 439226, Note_on_c, 0, 66, 0
2, 439227, Note_on_c, 0, 59, 0
2, 439230, Note_on_c, 0, 47, 0
2, 439330, Note_on_c, 0, 66, 104
2, 439340, Note_on_c, 0, 35, 74
2, 439343, Note_on_c, 0, 59, 78
2, 439349, Control_c, 0, 64, 127
2, 439470, Note_on_c, 0, 47, 78
2, 439603, Note_on_c, 0, 35, 0
2, 439603, Note_on_c, 0, 47, 0
2, 439603, Note_on_c, 0, 59, 0
2, 439609, Note_on_c, 0, 47, 86
2, 439612, Note_on_c, 0, 59, 99
2, 439613, Note_on_c, 0, 35, 85
2, 439615, Note_on_c, 0, 66, 0
2, 439651, Note_on_c, 0, 35, 0
2, 439656, Note_on_c, 0, 47, 0
2, 439665, Control_c, 0, 64, 0
2, 439687, Note_on_c, 0, 59, 0
2, 439737, Note_on_c, 0, 47, 82
2, 439772, Note_on_c, 0, 47, 0
2, 439875, Note_on_c, 0, 65, 99
2, 439878, Note_on_c, 0, 38, 83
2, 439881, Note_on_c, 0, 61, 93
2, 439902, Control_c, 0, 64, 127
2, 440013, Note_on_c, 0, 50, 81
2, 440136, Note_on_c, 0, 61, 0
2, 440137, Note_on_c, 0, 38, 0
2, 440137, Note_on_c, 0, 50, 0
2, 440143, Control_c, 0, 64, 0
2, 440148, Note_on_c, 0, 65, 0
2, 440167, Note_on_c, 0, 47, 84
2, 440168, Note_on_c, 0, 59, 89
2, 440169, Note_on_c, 0, 35, 87
2, 440169, Note_on_c, 0, 66, 75
2, 440210, Note_on_c, 0, 47, 0
2, 440210, Note_on_c, 0, 35, 0
2, 440215, Note_on_c, 0, 59, 0
2, 440301, Note_on_c, 0, 59, 82
2, 440301, Note_on_c, 0, 47, 84
2, 440332, Note_on_c, 0, 66, 0
2, 440344, Note_on_c, 0, 47, 0
2, 440347, Note_on_c, 0, 59, 0
2, 440439, Note_on_c, 0, 66, 107
2, 440447, Note_on_c, 0, 59, 87
2, 440451, Note_on_c, 0, 35, 77
2, 440463, Control_c, 0, 64, 127
2, 440571, Note_on_c, 0, 47, 80
2, 440711, Note_on_c, 0, 47, 0
2, 440711, Control_c, 0, 64, 0
2, 440712, Note_on_c, 0, 66, 0
2, 440716, Note_on_c, 0, 35, 0
2, 440716, Note_on_c, 0, 59, 0
2, 440721, Note_on_c, 0, 59, 93
2, 440722, Note_on_c, 0, 35, 84
2, 440769, Note_on_c, 0, 59, 0
2, 440785, Note_on_c, 0, 35, 0
2, 440852, Note_on_c, 0, 47, 83
2, 440852, Note_on_c, 0, 59, 89
2, 440857, Note_on_c, 0, 35, 73
2, 440893, Note_on_c, 0, 47, 0
2, 440896, Note_on_c, 0, 35, 0
2, 440939, Note_on_c, 0, 59, 0
2, 440990, Note_on_c, 0, 70, 100
2, 440995, Note_on_c, 0, 47, 83
2, 440996, Note_on_c, 0, 58, 96
2, 440998, Note_on_c, 0, 35, 81
2, 441008, Control_c, 0, 64, 127
2, 441123, Note_on_c, 0, 47, 0
2, 441129, Note_on_c, 0, 47, 75
2, 441249, Note_on_c, 0, 70, 0
2, 441251, Note_on_c, 0, 58, 0
2, 441251, Control_c, 0, 64, 0
2, 441269, Note_on_c, 0, 47, 0
2, 441277, Note_on_c, 0, 35, 0
2, 441279, Note_on_c, 0, 59, 98
2, 441280, Note_on_c, 0, 47, 81
2, 441281, Note_on_c, 0, 35, 80
2, 441287, Note_on_c, 0, 69, 73
2, 441292, Note_on_c, 0, 69, 0
2, 441308, Control_c, 0, 64, 127
2, 441354, Note_on_c, 0, 47, 0
2, 441400, Note_on_c, 0, 35, 0
2, 441400, Note_on_c, 0, 59, 0
2, 441404, Note_on_c, 0, 59, 75
2, 441405, Note_on_c, 0, 47, 72
2, 441405, Note_on_c, 0, 35, 68
2, 441526, Control_c, 0, 64, 0
2, 441530, Note_on_c, 0, 47, 0
2, 441538, Note_on_c, 0, 35, 0
2, 441538, Note_on_c, 0, 59, 0
2, 441542, Note_on_c, 0, 71, 101
2, 441543, Note_on_c, 0, 59, 100
2, 441548, Note_on_c, 0, 35, 80
2, 441584, Control_c, 0, 64, 127
2, 441607, Note_on_c, 0, 59, 0
2, 441679, Note_on_c, 0, 47, 77
2, 441805, Note_on_c, 0, 71, 0
2, 441806, Control_c, 0, 64, 0
2, 441815, Note_on_c, 0, 47, 0
2, 441822, Note_on_c, 0, 59, 99
2, 441822, Note_on_c, 0, 35, 0
2, 441825, Note_on_c, 0, 47, 85
2, 441826, Note_on_c, 0, 35, 85
2, 441853, Control_c, 0, 64, 127
2, 441933, Note_on_c, 0, 54, 79
2, 441945, Note_on_c, 0, 47, 0
2, 441945, Note_on_c, 0, 59, 0
2, 441950, Note_on_c, 0, 59, 92
2, 441953, Note_on_c, 0, 35, 0
2, 441956, Note_on_c, 0, 47, 87
2, 441963, Note_on_c, 0, 35, 77
2, 442075, Control_c, 0, 64, 0
2, 442076, Note_on_c, 0, 54, 0
2, 442083, Note_on_c, 0, 35, 0
2, 442088, Note_on_c, 0, 63, 106
2, 442088, Note_on_c, 0, 75, 106
2, 442088, Note_on_c, 0, 35, 87
2, 442099, Note_on_c, 0, 47, 0
2, 442099, Note_on_c, 0, 59, 0
2, 442114, Control_c, 0, 64, 127
2, 442233, Note_on_c, 0, 47, 76
2, 442349, Note_on_c, 0, 63, 0
2, 442349, Control_c, 0, 64, 0
2, 442360, Note_on_c, 0, 47, 0
2, 442360, Note_on_c, 0, 75, 0
2, 442368, Note_on_c, 0, 35, 0
2, 442369, Note_on_c, 0, 47, 86
2, 442371, Note_on_c, 0, 59, 94
2, 442372, Note_on_c, 0, 35, 86
2, 442398, Control_c, 0, 64, 127
2, 442421, Note_on_c, 0, 47, 0
2, 442490, Note_on_c, 0, 59, 0
2, 442498, Note_on_c, 0, 35, 0
2, 442501, Note_on_c, 0, 59, 79
2, 442502, Note_on_c, 0, 47, 78
2, 442503, Note_on_c, 0, 35, 75
2, 442629, Note_on_c, 0, 35, 0
2, 442630, Control_c, 0, 64, 0
2, 442633, Note_on_c, 0, 66, 111
2, 442634, Note_on_c, 0, 78, 110
2, 442636, Note_on_c, 0, 35, 85
2, 442637, Note_on_c, 0, 69, 81
2, 442644, Control_c, 0, 64, 127
2, 442759, Note_on_c, 0, 47, 0
2, 442767, Note_on_c, 0, 47, 77
2, 442898, Note_on_c, 0, 78, 0
2, 442899, Control_c, 0, 64, 0
2, 442899, Note_on_c, 0, 66, 0
2, 442913, Note_on_c, 0, 35, 0
2, 442913, Note_on_c, 0, 47, 0
2, 442913, Note_on_c, 0, 59, 0
2, 442913, Note_on_c, 0, 69, 0
2, 442919, Note_on_c, 0, 47, 85
2, 442921, Note_on_c, 0, 59, 97
2, 442921, Note_on_c, 0, 35, 81
2, 442944, Control_c, 0, 64, 127
2, 442967, Note_on_c, 0, 47, 0
2, 443036, Note_on_c, 0, 59, 0
2, 443040, Note_on_c, 0, 47, 81
2, 443040, Note_on_c, 0, 59, 89
2, 443182, Note_on_c, 0, 35, 0
2, 443186, Note_on_c, 0, 83, 104
2, 443187, Note_on_c, 0, 35, 85
2, 443190, Note_on_c, 0, 71, 103
2, 443297, Note_on_c, 0, 47, 0
2, 443307, Note_on_c, 0, 47, 91
2, 443458, Note_on_c, 0, 35, 0
2, 443458, Note_on_c, 0, 47, 0
2, 443458, Note_on_c, 0, 59, 0
2, 443463, Note_on_c, 0, 59, 99
2, 443463, Note_on_c, 0, 47, 79
2, 443464, Note_on_c, 0, 35, 78
2, 443581, Note_on_c, 0, 47, 0
2, 443581, Note_on_c, 0, 59, 0
2, 443586, Note_on_c, 0, 59, 103
2, 443592, Note_on_c, 0, 47, 85
2, 443735, Note_on_c, 0, 71, 0
2, 443735, Note_on_c, 0, 83, 0
2, 443741, Note_on_c, 0, 83, 107
2, 443742, Note_on_c, 0, 35, 0
2, 443745, Note_on_c, 0, 71, 107
2, 443746, Note_on_c, 0, 75, 101
2, 443746, Note_on_c, 0, 78, 103
2, 443749, Note_on_c, 0, 35, 87
2, 443754, Note_on_c, 0, 59, 0
2, 443754, Control_c, 0, 64, 0
2, 443773, Control_c, 0, 64, 127
2, 443880, Note_on_c, 0, 47, 0
2, 443891, Note_on_c, 0, 47, 86
2, 444049, Note_on_c, 0, 35, 0
2, 444057, Note_on_c, 0, 47, 0
2, 444060, Note_on_c, 0, 59, 101
2, 444061, Note_on_c, 0, 35, 96
2, 444062, Note_on_c, 0, 47, 92
2, 444234, Note_on_c, 0, 35, 0
2, 444234, Note_on_c, 0, 47, 0
2, 444234, Note_on_c, 0, 59, 0
2, 444238, Note_on_c, 0, 59, 99
2, 444239, Note_on_c, 0, 47, 91
2, 444241, Note_on_c, 0, 35, 85
2, 444449, Note_on_c, 0, 35, 0
2, 444449, Note_on_c, 0, 71, 0
2, 444449, Note_on_c, 0, 75, 0
2, 444449, Note_on_c, 0, 78, 0
2, 444449, Note_on_c, 0, 83, 0
2, 444453, Note_on_c, 0, 83, 107
2, 444455, Note_on_c, 0, 71, 105
2, 444458, Control_c, 0, 64, 0
2, 444460, Note_on_c, 0, 75, 105
2, 444460, Note_on_c, 0, 35, 100
2, 444460, Note_on_c, 0, 78, 100
2, 444495, Control_c, 0, 64, 127
2, 444702, Note_on_c, 0, 47, 0
2, 444710, Note_on_c, 0, 35, 0
2, 444714, Note_on_c, 0, 47, 98
2, 444719, Note_on_c, 0, 35, 87
2, 445117, Note_on_c, 0, 83, 0
2, 445123, Note_on_c, 0, 80, 106
2, 445126, Note_on_c, 0, 83, 105
2, 445127, Note_on_c, 0, 76, 110
2, 445128, Note_on_c, 0, 88, 107
2, 445128, Note_on_c, 0, 74, 106
2, 445129, Note_on_c, 0, 40, 102
2, 445129, Note_on_c, 0, 28, 106
2, 445130, Note_on_c, 0, 71, 0
2, 445130, Note_on_c, 0, 78, 0
2, 445132, Note_on_c, 0, 35, 0
2, 445132, Note_on_c, 0, 59, 0
2, 445132, Control_c, 0, 64, 0
2, 445140, Note_on_c, 0, 75, 0
2, 445148, Note_on_c, 0, 47, 0
2, 445240, Control_c, 0, 64, 127
2, 445578, Note_on_c, 0, 83, 0
2, 445582, Note_on_c, 0, 83, 82
2, 445639, Note_on_c, 0, 88, 0
2, 445645, Note_on_c, 0, 88, 86
2, 445693, Note_on_c, 0, 28, 0
2, 445731, Note_on_c, 0, 74, 0
2, 445736, Note_on_c, 0, 86, 108
2, 445738, Note_on_c, 0, 81, 99
2, 445739, Note_on_c, 0, 50, 109
2, 445740, Note_on_c, 0, 74, 107
2, 445741, Note_on_c, 0, 78, 102
2, 445742, Note_on_c, 0, 38, 104
2, 445742, Note_on_c, 0, 40, 0
2, 445742, Note_on_c, 0, 80, 0
2, 445743, Note_on_c, 0, 88, 0
2, 445743, Note_on_c, 0, 76, 0
2, 445743, Note_on_c, 0, 83, 0
2, 445747, Control_c, 0, 64, 0
2, 445808, Control_c, 0, 64, 127
2, 446138, Note_on_c, 0, 74, 0
2, 446144, Note_on_c, 0, 83, 93
2, 446150, Note_on_c, 0, 74, 68
2, 446215, Note_on_c, 0, 86, 0
2, 446225, Note_on_c, 0, 86, 96
2, 446306, Note_on_c, 0, 81, 0
2, 446310, Note_on_c, 0, 50, 0
2, 446310, Note_on_c, 0, 78, 0
2, 446311, Note_on_c, 0, 38, 0
2, 446311, Note_on_c, 0, 83, 0
2, 446311, Note_on_c, 0, 74, 0
2, 446315, Control_c, 0, 64, 0
2, 446326, Note_on_c, 0, 33, 97
2, 446326, Note_on_c, 0, 45, 106
2, 446326, Note_on_c, 0, 85, 109
2, 446328, Note_on_c, 0, 73, 103
2, 446329, Note_on_c, 0, 76, 94
2, 446330, Note_on_c, 0, 86, 0
2, 446376, Control_c, 0, 64, 127
2, 446776, Note_on_c, 0, 33, 0
2, 446776, Note_on_c, 0, 45, 0
2, 446785, Note_on_c, 0, 45, 83
2, 446786, Note_on_c, 0, 33, 75
2, 446845, Note_on_c, 0, 33, 0
2, 446845, Note_on_c, 0, 45, 0
2, 446855, Note_on_c, 0, 45, 88
2, 446856, Note_on_c, 0, 33, 85
2, 446932, Note_on_c, 0, 33, 0
2, 446933, Note_on_c, 0, 45, 0
2, 446934, Note_on_c, 0, 76, 0
2, 446934, Note_on_c, 0, 73, 0
2, 446935, Control_c, 0, 64, 0
2, 446941, Note_on_c, 0, 47, 104
2, 446943, Note_on_c, 0, 35, 99
2, 446991, Control_c, 0, 64, 127
2, 447253, Note_on_c, 0, 51, 92
2, 447255, Note_on_c, 0, 87, 107
2, 447256, Note_on_c, 0, 59, 88
2, 447256, Note_on_c, 0, 54, 76
2, 447257, Note_on_c, 0, 75, 98
2, 447258, Note_on_c, 0, 78, 90
2, 447267, Note_on_c, 0, 78, 0
2, 447528, Note_on_c, 0, 35, 0
2, 447540, Control_c, 0, 64, 0
2, 447543, Note_on_c, 0, 47, 0
2, 447544, Note_on_c, 0, 87, 0
2, 447544, Note_on_c, 0, 51, 0
2, 447546, Note_on_c, 0, 59, 0
2, 447546, Note_on_c, 0, 75, 0
2, 447552, Note_on_c, 0, 85, 0
2, 447559, Note_on_c, 0, 54, 0
2, 447578, Note_on_c, 0, 52, 103
2, 447578, Note_on_c, 0, 83, 104
2, 447579, Note_on_c, 0, 40, 98
2, 447579, Note_on_c, 0, 80, 107
2, 447579, Note_on_c, 0, 76, 110
2, 447579, Note_on_c, 0, 88, 106
2, 447636, Control_c, 0, 64, 127
2, 447893, Note_on_c, 0, 59, 85
2, 447896, Note_on_c, 0, 56, 90
2, 448066, Note_on_c, 0, 52, 0
2, 448074, Note_on_c, 0, 40, 0
2, 448077, Note_on_c, 0, 52, 69
2, 448081, Note_on_c, 0, 40, 59
2, 448166, Note_on_c, 0, 56, 0
2, 448166, Note_on_c, 0, 59, 0
2, 448172, Note_on_c, 0, 56, 84
2, 448177, Note_on_c, 0, 59, 74
2, 448207, Note_on_c, 0, 64, 96
2, 448343, Note_on_c, 0, 40, 0
2, 448352, Note_on_c, 0, 40, 83
2, 448504, Note_on_c, 0, 56, 0
2, 448510, Note_on_c, 0, 71, 98
2, 448511, Note_on_c, 0, 47, 88
2, 448514, Note_on_c, 0, 56, 87
2, 448650, Note_on_c, 0, 76, 0
2, 448655, Note_on_c, 0, 76, 98
2, 448776, Note_on_c, 0, 47, 0
2, 448776, Note_on_c, 0, 83, 0
2, 448776, Note_on_c, 0, 71, 0
2, 448776, Note_on_c, 0, 88, 0
2, 448776, Note_on_c, 0, 80, 0
2, 448776, Note_on_c, 0, 40, 0
2, 448776, Note_on_c, 0, 56, 0
2, 448777, Note_on_c, 0, 64, 0
2, 448777, Control_c, 0, 64, 0
2, 448777, Note_on_c, 0, 76, 0
2, 448796, Note_on_c, 0, 52, 0
2, 448796, Note_on_c, 0, 59, 0
2, 448815, Note_on_c, 0, 78, 108
2, 448818, Note_on_c, 0, 69, 96
2, 448820, Note_on_c, 0, 50, 102
2, 448822, Note_on_c, 0, 38, 98
2, 448854, Note_on_c, 0, 69, 0
2, 448880, Note_on_c, 0, 78, 0
2, 448934, Control_c, 0, 64, 127
2, 449041, Note_on_c, 0, 38, 0
2, 449057, Note_on_c, 0, 62, 95
2, 449060, Note_on_c, 0, 66, 90
2, 449134, Note_on_c, 0, 62, 0
2, 449134, Note_on_c, 0, 66, 0
2, 449137, Note_on_c, 0, 74, 104
2, 449142, Note_on_c, 0, 66, 104
2, 449145, Note_on_c, 0, 62, 88
2, 449287, Note_on_c, 0, 50, 0
2, 449298, Note_on_c, 0, 50, 79
2, 449441, Note_on_c, 0, 66, 0
2, 449447, Note_on_c, 0, 66, 103
2, 449447, Note_on_c, 0, 54, 94
2, 449452, Note_on_c, 0, 57, 91
2, 449679, Note_on_c, 0, 62, 0
2, 449684, Note_on_c, 0, 62, 80
2, 449725, Note_on_c, 0, 50, 0
2, 449730, Note_on_c, 0, 50, 97
2, 449797, Note_on_c, 0, 45, 86
2, 449894, Note_on_c, 0, 38, 82
2, 450059, Note_on_c, 0, 50, 0
2, 450059, Note_on_c, 0, 54, 0
2, 450059, Note_on_c, 0, 66, 0
2, 450059, Note_on_c, 0, 38, 0
2, 450059, Note_on_c, 0, 57, 0
2, 450059, Note_on_c, 0, 62, 0
2, 450060, Control_c, 0, 64, 0
2, 450075, Note_on_c, 0, 76, 106
2, 450078, Note_on_c, 0, 45, 0
2, 450078, Note_on_c, 0, 74, 0
2, 450083, Note_on_c, 0, 64, 85
2, 450085, Note_on_c, 0, 40, 102
2, 450086, Note_on_c, 0, 74, 90
2, 450088, Note_on_c, 0, 28, 103
2, 450140, Control_c, 0, 64, 127
2, 450410, Note_on_c, 0, 59, 94
2, 450425, Note_on_c, 0, 56, 86
2, 450565, Note_on_c, 0, 52, 74
2, 450647, Note_on_c, 0, 56, 0
2, 450657, Note_on_c, 0, 56, 83
2, 450670, Note_on_c, 0, 59, 0
2, 450678, Note_on_c, 0, 59, 73
2, 450700, Note_on_c, 0, 64, 0
2, 450711, Note_on_c, 0, 64, 98
2, 450862, Note_on_c, 0, 40, 0
2, 450868, Note_on_c, 0, 40, 77
2, 451012, Note_on_c, 0, 47, 87
2, 451016, Note_on_c, 0, 71, 99
2, 451153, Note_on_c, 0, 76, 0
2, 451161, Note_on_c, 0, 76, 91
2, 451268, Note_on_c, 0, 74, 0
2, 451268, Note_on_c, 0, 71, 0
2, 451268, Note_on_c, 0, 47, 0
2, 451269, Note_on_c, 0, 28, 0
2, 451269, Note_on_c, 0, 64, 0
2, 451269, Note_on_c, 0, 52, 0
2, 451270, Note_on_c, 0, 76, 0
2, 451270, Note_on_c, 0, 40, 0
2, 451272, Control_c, 0, 64, 0
2, 451284, Note_on_c, 0, 56, 0
2, 451284, Note_on_c, 0, 59, 0
2, 451305, Note_on_c, 0, 50, 105
2, 451306, Note_on_c, 0, 38, 105
2, 451310, Note_on_c, 0, 74, 102
2, 451345, Control_c, 0, 64, 127
2, 451461, Note_on_c, 0, 74, 0
2, 451472, Note_on_c, 0, 74, 83
2, 451563, Note_on_c, 0, 76, 76
2, 451622, Note_on_c, 0, 50, 0
2, 451626, Note_on_c, 0, 69, 87
2, 451628, Note_on_c, 0, 50, 65
2, 451628, Note_on_c, 0, 78, 107
2, 451653, Note_on_c, 0, 38, 0
2, 451657, Note_on_c, 0, 38, 59
2, 451752, Note_on_c, 0, 38, 0
2, 451752, Note_on_c, 0, 50, 0
2, 451759, Note_on_c, 0, 38, 68
2, 451759, Note_on_c, 0, 50, 87
2, 451917, Note_on_c, 0, 45, 75
2, 451917, Note_on_c, 0, 57, 85
2, 451918, Note_on_c, 0, 54, 88
2, 451918, Note_on_c, 0, 66, 96
2, 452060, Note_on_c, 0, 66, 0
2, 452065, Note_on_c, 0, 66, 94
2, 452136, Note_on_c, 0, 68, 79
2, 452206, Note_on_c, 0, 50, 0
2, 452206, Note_on_c, 0, 69, 0
2, 452215, Note_on_c, 0, 50, 94
2, 452216, Note_on_c, 0, 69, 83
2, 452282, Note_on_c, 0, 66, 0
2, 452290, Note_on_c, 0, 45, 0
2, 452293, Note_on_c, 0, 66, 96
2, 452293, Note_on_c, 0, 62, 83
2, 452295, Note_on_c, 0, 45, 84
2, 452519, Note_on_c, 0, 50, 0
2, 452519, Note_on_c, 0, 45, 0
2, 452519, Note_on_c, 0, 69, 0
2, 452519, Note_on_c, 0, 57, 0
2, 452519, Note_on_c, 0, 68, 0
2, 452519, Note_on_c, 0, 38, 0
2, 452519, Note_on_c, 0, 74, 0
2, 452519, Note_on_c, 0, 54, 0
2, 452520, Note_on_c, 0, 62, 0
2, 452520, Note_on_c, 0, 76, 0
2, 452520, Note_on_c, 0, 66, 0
2, 452520, Note_on_c, 0, 78, 0
2, 452521, Control_c, 0, 64, 0
2, 452552, Note_on_c, 0, 80, 109
2, 452556, Note_on_c, 0, 40, 101
2, 452557, Note_on_c, 0, 71, 96
2, 452560, Note_on_c, 0, 52, 104
2, 452561, Note_on_c, 0, 76, 95
2, 452597, Control_c, 0, 64, 127
2, 452863, Note_on_c, 0, 59, 94
2, 452865, Note_on_c, 0, 56, 93
2, 453073, Note_on_c, 0, 52, 0
2, 453084, Note_on_c, 0, 52, 76
2, 453158, Note_on_c, 0, 56, 0
2, 453168, Note_on_c, 0, 56, 94
2, 453186, Note_on_c, 0, 64, 93
2, 453339, Note_on_c, 0, 41, 72
2, 453496, Note_on_c, 0, 52, 0
2, 453500, Note_on_c, 0, 78, 106
2, 453506, Note_on_c, 0, 52, 85
2, 453507, Note_on_c, 0, 47, 80
2, 453642, Note_on_c, 0, 80, 0
2, 453647, Note_on_c, 0, 80, 101
2, 453786, Control_c, 0, 64, 0
2, 453786, Note_on_c, 0, 64, 0
2, 453787, Note_on_c, 0, 71, 0
2, 453787, Note_on_c, 0, 52, 0
2, 453788, Note_on_c, 0, 47, 0
2, 453789, Note_on_c, 0, 76, 0
2, 453789, Note_on_c, 0, 78, 0
2, 453789, Note_on_c, 0, 80, 0
2, 453790, Note_on_c, 0, 41, 0
2, 453795, Note_on_c, 0, 40, 0
2, 453795, Note_on_c, 0, 59, 0
2, 453803, Note_on_c, 0, 56, 0
2, 453807, Note_on_c, 0, 81, 107
2, 453809, Note_on_c, 0, 50, 105
2, 453812, Note_on_c, 0, 38, 103
2, 453813, Note_on_c, 0, 74, 98
2, 453864, Control_c, 0, 64, 127
2, 454026, Note_on_c, 0, 74, 0
2, 454032, Note_on_c, 0, 78, 96
2, 454036, Note_on_c, 0, 74, 75
2, 454103, Note_on_c, 0, 74, 0
2, 454103, Note_on_c, 0, 78, 0
2, 454106, Note_on_c, 0, 74, 98
2, 454107, Note_on_c, 0, 78, 105
2, 454287, Note_on_c, 0, 50, 0
2, 454296, Note_on_c, 0, 50, 86
2, 454425, Note_on_c, 0, 74, 0
2, 454425, Note_on_c, 0, 78, 0
2, 454429, Note_on_c, 0, 54, 91
2, 454429, Note_on_c, 0, 78, 104
2, 454429, Note_on_c, 0, 57, 96
2, 454434, Note_on_c, 0, 74, 90
2, 454648, Note_on_c, 0, 74, 0
2, 454648, Note_on_c, 0, 81, 0
2, 454652, Note_on_c, 0, 81, 97
2, 454657, Note_on_c, 0, 69, 88
2, 454659, Note_on_c, 0, 74, 82
2, 454663, Note_on_c, 0, 78, 0
2, 454668, Note_on_c, 0, 78, 75
2, 454725, Note_on_c, 0, 69, 0
2, 454725, Note_on_c, 0, 81, 0
2, 454730, Note_on_c, 0, 81, 107
2, 454732, Note_on_c, 0, 74, 0
2, 454732, Note_on_c, 0, 78, 0
2, 454735, Note_on_c, 0, 69, 102
2, 454737, Note_on_c, 0, 78, 95
2, 454740, Note_on_c, 0, 50, 0
2, 454740, Note_on_c, 0, 74, 91
2, 454744, Note_on_c, 0, 50, 95
2, 454812, Note_on_c, 0, 45, 74
2, 455047, Control_c, 0, 64, 0
2, 455050, Note_on_c, 0, 50, 0
2, 455050, Note_on_c, 0, 57, 0
2, 455050, Note_on_c, 0, 81, 0
2, 455050, Note_on_c, 0, 69, 0
2, 455050, Note_on_c, 0, 74, 0
2, 455050, Note_on_c, 0, 78, 0
2, 455050, Note_on_c, 0, 54, 0
2, 455063, Note_on_c, 0, 38, 0
2, 455063, Note_on_c, 0, 45, 0
2, 455075, Note_on_c, 0, 80, 107
2, 455083, Note_on_c, 0, 52, 100
2, 455083, Note_on_c, 0, 40, 96
2, 455087, Note_on_c, 0, 71, 89
2, 455088, Note_on_c, 0, 76, 89
2, 455162, Control_c, 0, 64, 127
2, 455398, Note_on_c, 0, 59, 91
2, 455402, Note_on_c, 0, 56, 88
2, 455577, Note_on_c, 0, 52, 0
2, 455584, Note_on_c, 0, 52, 77
2, 455654, Note_on_c, 0, 56, 0
2, 455665, Note_on_c, 0, 56, 83
2, 455692, Note_on_c, 0, 59, 0
2, 455703, Note_on_c, 0, 59, 73
2, 455719, Note_on_c, 0, 64, 94
2, 455854, Note_on_c, 0, 40, 0
2, 455864, Note_on_c, 0, 40, 79
2, 456030, Note_on_c, 0, 40, 0
2, 456038, Note_on_c, 0, 78, 102
2, 456039, Note_on_c, 0, 40, 74
2, 456042, Note_on_c, 0, 74, 86
2, 456168, Note_on_c, 0, 80, 0
2, 456170, Note_on_c, 0, 47, 78
2, 456179, Note_on_c, 0, 80, 99
2, 456192, Note_on_c, 0, 74, 0
2, 456196, Note_on_c, 0, 74, 67
2, 456296, Note_on_c, 0, 52, 0
2, 456297, Note_on_c, 0, 71, 0
2, 456297, Note_on_c, 0, 64, 0
2, 456297, Note_on_c, 0, 80, 0
2, 456297, Control_c, 0, 64, 0
2, 456297, Note_on_c, 0, 40, 0
2, 456297, Note_on_c, 0, 74, 0
2, 456297, Note_on_c, 0, 76, 0
2, 456298, Note_on_c, 0, 78, 0
2, 456307, Note_on_c, 0, 47, 0
2, 456307, Note_on_c, 0, 56, 0
2, 456307, Note_on_c, 0, 59, 0
2, 456330, Note_on_c, 0, 50, 104
2, 456331, Note_on_c, 0, 38, 100
2, 456333, Note_on_c, 0, 81, 106
2, 456334, Note_on_c, 0, 74, 92
2, 456384, Control_c, 0, 64, 127
2, 456488, Note_on_c, 0, 78, 89
2, 456552, Note_on_c, 0, 81, 0
2, 456564, Note_on_c, 0, 81, 94
2, 456637, Note_on_c, 0, 74, 0
2, 456637, Note_on_c, 0, 78, 0
2, 456641, Note_on_c, 0, 86, 104
2, 456646, Note_on_c, 0, 74, 93
2, 456646, Note_on_c, 0, 78, 91
2, 456768, Note_on_c, 0, 50, 0
2, 456778, Note_on_c, 0, 50, 75
2, 456864, Note_on_c, 0, 54, 74
2, 456886, Note_on_c, 0, 57, 73
2, 456961, Note_on_c, 0, 66, 89
2, 457282, Note_on_c, 0, 50, 0
2, 457291, Note_on_c, 0, 50, 77
2, 457292, Note_on_c, 0, 85, 101
2, 457297, Note_on_c, 0, 78, 0
2, 457303, Note_on_c, 0, 78, 60
2, 457620, Note_on_c, 0, 38, 0
2, 457626, Note_on_c, 0, 86, 0
2, 457627, Note_on_c, 0, 81, 0
2, 457627, Note_on_c, 0, 50, 0
2, 457627, Note_on_c, 0, 74, 0
2, 457627, Note_on_c, 0, 66, 0
2, 457628, Note_on_c, 0, 57, 0
2, 457628, Note_on_c, 0, 78, 0
2, 457628, Note_on_c, 0, 54, 0
2, 457629, Control_c, 0, 64, 0
2, 457630, Note_on_c, 0, 85, 0
2, 457638, Note_on_c, 0, 83, 95
2, 457656, Note_on_c, 0, 71, 69
2, 457657, Note_on_c, 0, 52, 69
2, 457659, Note_on_c, 0, 76, 67
2, 457660, Note_on_c, 0, 80, 73
2, 457743, Control_c, 0, 64, 127
2, 457818, Note_on_c, 0, 59, 61
2, 457974, Note_on_c, 0, 64, 65
2, 458133, Note_on_c, 0, 66, 66
2, 458137, Note_on_c, 0, 88, 87
2, 458142, Note_on_c, 0, 76, 0
2, 458142, Note_on_c, 0, 80, 0
2, 458142, Note_on_c, 0, 83, 0
2, 458146, Note_on_c, 0, 83, 74
2, 458146, Note_on_c, 0, 80, 68
2, 458148, Note_on_c, 0, 76, 72
2, 458280, Note_on_c, 0, 64, 0
2, 458284, Note_on_c, 0, 64, 67
2, 458434, Note_on_c, 0, 71, 0
2, 458439, Note_on_c, 0, 71, 72
2, 458580, Note_on_c, 0, 83, 0
2, 458589, Note_on_c, 0, 83, 96
2, 458603, Note_on_c, 0, 66, 0
2, 458614, Note_on_c, 0, 66, 69
2, 458726, Note_on_c, 0, 64, 0
2, 458731, Note_on_c, 0, 64, 67
2, 458907, Note_on_c, 0, 86, 93
2, 458910, Note_on_c, 0, 50, 64
2, 458915, Note_on_c, 0, 80, 0
2, 458915, Note_on_c, 0, 64, 0
2, 458915, Note_on_c, 0, 66, 0
2, 458916, Note_on_c, 0, 59, 0
2, 458917, Note_on_c, 0, 52, 0
2, 458917, Note_on_c, 0, 71, 0
2, 458917, Note_on_c, 0, 88, 0
2, 458920, Control_c, 0, 64, 0
2, 458931, Note_on_c, 0, 81, 72
2, 458933, Note_on_c, 0, 76, 0
2, 458934, Note_on_c, 0, 78, 72
2, 458935, Note_on_c, 0, 74, 67
2, 458941, Note_on_c, 0, 83, 0
2, 458987, Control_c, 0, 64, 127
2, 459018, Note_on_c, 0, 50, 0
2, 459066, Note_on_c, 0, 57, 66
2, 459218, Note_on_c, 0, 62, 76
2, 459225, Note_on_c, 0, 85, 92
2, 459240, Note_on_c, 0, 78, 0
2, 459250, Note_on_c, 0, 78, 71
2, 459385, Note_on_c, 0, 66, 72
2, 459532, Note_on_c, 0, 62, 0
2, 459539, Note_on_c, 0, 83, 89
2, 459542, Note_on_c, 0, 62, 66
2, 459555, Note_on_c, 0, 74, 0
2, 459555, Note_on_c, 0, 78, 0
2, 459560, Note_on_c, 0, 74, 60
2, 459562, Note_on_c, 0, 78, 77
2, 459697, Note_on_c, 0, 71, 71
2, 459840, Note_on_c, 0, 81, 0
2, 459844, Note_on_c, 0, 81, 87
2, 459847, Note_on_c, 0, 66, 0
2, 459859, Note_on_c, 0, 66, 73
2, 459985, Note_on_c, 0, 62, 0
2, 459996, Note_on_c, 0, 62, 66
2, 460158, Note_on_c, 0, 80, 80
2, 460166, Note_on_c, 0, 76, 69
2, 460170, Note_on_c, 0, 86, 0
2, 460171, Note_on_c, 0, 62, 0
2, 460171, Note_on_c, 0, 83, 0
2, 460171, Control_c, 0, 64, 0
2, 460171, Note_on_c, 0, 71, 0
2, 460172, Note_on_c, 0, 81, 0
2, 460172, Note_on_c, 0, 74, 0
2, 460172, Note_on_c, 0, 66, 0
2, 460173, Note_on_c, 0, 57, 0
2, 460173, Note_on_c, 0, 78, 0
2, 460173, Note_on_c, 0, 85, 0
2, 460204, Note_on_c, 0, 52, 54
2, 460208, Note_on_c, 0, 76, 0
2, 460231, Control_c, 0, 64, 127
2, 460308, Note_on_c, 0, 80, 0
2, 460318, Note_on_c, 0, 80, 80
2, 460318, Note_on_c, 0, 76, 66
2, 460373, Note_on_c, 0, 59, 66
2, 460405, Note_on_c, 0, 81, 78
2, 460474, Note_on_c, 0, 83, 89
2, 460500, Note_on_c, 0, 76, 0
2, 460505, Note_on_c, 0, 64, 81
2, 460507, Note_on_c, 0, 76, 54
2, 460660, Note_on_c, 0, 68, 70
2, 460792, Note_on_c, 0, 64, 0
2, 460796, Note_on_c, 0, 64, 76
2, 460945, Note_on_c, 0, 83, 0
2, 460956, Note_on_c, 0, 83, 87
2, 460957, Note_on_c, 0, 71, 82
2, 460961, Note_on_c, 0, 76, 0
2, 460966, Note_on_c, 0, 76, 67
2, 461107, Note_on_c, 0, 68, 0
2, 461110, Note_on_c, 0, 88, 85
2, 461111, Note_on_c, 0, 68, 72
2, 461237, Note_on_c, 0, 64, 0
2, 461242, Note_on_c, 0, 64, 74
2, 461253, Note_on_c, 0, 83, 0
2, 461257, Note_on_c, 0, 83, 87
2, 461407, Note_on_c, 0, 68, 0
2, 461408, Note_on_c, 0, 59, 0
2, 461408, Note_on_c, 0, 81, 0
2, 461408, Note_on_c, 0, 71, 0
2, 461409, Note_on_c, 0, 64, 0
2, 461409, Note_on_c, 0, 80, 0
2, 461409, Note_on_c, 0, 52, 0
2, 461409, Note_on_c, 0, 83, 0
2, 461409, Note_on_c, 0, 76, 0
2, 461409, Note_on_c, 0, 88, 0
2, 461410, Control_c, 0, 64, 0
2, 461411, Note_on_c, 0, 86, 96
2, 461421, Note_on_c, 0, 50, 73
2, 461427, Note_on_c, 0, 78, 76
2, 461427, Note_on_c, 0, 74, 75
2, 461483, Control_c, 0, 64, 127
2, 461567, Note_on_c, 0, 57, 71
2, 461725, Note_on_c, 0, 62, 76
2, 461729, Note_on_c, 0, 85, 93
2, 461875, Note_on_c, 0, 66, 73
2, 461882, Note_on_c, 0, 50, 0
2, 462036, Note_on_c, 0, 62, 0
2, 462040, Note_on_c, 0, 83, 92
2, 462040, Note_on_c, 0, 62, 77
2, 462044, Note_on_c, 0, 74, 0
2, 462051, Note_on_c, 0, 78, 0
2, 462055, Note_on_c, 0, 74, 76
2, 462057, Note_on_c, 0, 78, 77
2, 462210, Note_on_c, 0, 71, 71
2, 462349, Note_on_c, 0, 81, 92
2, 462359, Note_on_c, 0, 66, 0
2, 462368, Note_on_c, 0, 66, 78
2, 462481, Note_on_c, 0, 62, 0
2, 462492, Note_on_c, 0, 62, 79
2, 462666, Note_on_c, 0, 83, 0
2, 462671, Note_on_c, 0, 83, 97
2, 462677, Note_on_c, 0, 80, 85
2, 462678, Note_on_c, 0, 52, 70
2, 462678, Control_c, 0, 64, 0
2, 462679, Note_on_c, 0, 71, 0
2, 462679, Note_on_c, 0, 66, 0
2, 462680, Note_on_c, 0, 81, 0
2, 462680, Note_on_c, 0, 57, 0
2, 462680, Note_on_c, 0, 76, 73
2, 462681, Note_on_c, 0, 74, 0
2, 462681, Note_on_c, 0, 86, 0
2, 462681, Note_on_c, 0, 78, 0
2, 462682, Note_on_c, 0, 85, 0
2, 462689, Note_on_c, 0, 62, 0
2, 462758, Control_c, 0, 64, 127
2, 462834, Note_on_c, 0, 59, 71
2, 462991, Note_on_c, 0, 64, 78
2, 463138, Note_on_c, 0, 88, 91
2, 463139, Note_on_c, 0, 66, 75
2, 463280, Note_on_c, 0, 64, 0
2, 463289, Note_on_c, 0, 64, 70
2, 463445, Note_on_c, 0, 71, 78
2, 463587, Note_on_c, 0, 83, 0
2, 463593, Note_on_c, 0, 83, 97
2, 463603, Note_on_c, 0, 66, 0
2, 463603, Note_on_c, 0, 76, 0
2, 463614, Note_on_c, 0, 76, 68
2, 463614, Note_on_c, 0, 66, 74
2, 463749, Note_on_c, 0, 64, 0
2, 463753, Note_on_c, 0, 64, 63
2, 463914, Note_on_c, 0, 86, 98
2, 463920, Note_on_c, 0, 59, 0
2, 463920, Note_on_c, 0, 66, 0
2, 463920, Note_on_c, 0, 80, 0
2, 463920, Note_on_c, 0, 88, 0
2, 463920, Note_on_c, 0, 64, 0
2, 463921, Note_on_c, 0, 76, 0
2, 463921, Control_c, 0, 64, 0
2, 463921, Note_on_c, 0, 71, 0
2, 463921, Note_on_c, 0, 83, 0
2, 463922, Note_on_c, 0, 52, 0
2, 463923, Note_on_c, 0, 50, 74
2, 463930, Note_on_c, 0, 78, 83
2, 463930, Note_on_c, 0, 74, 85
2, 463970, Note_on_c, 0, 50, 0
2, 463994, Control_c, 0, 64, 127
2, 464093, Note_on_c, 0, 57, 66
2, 464232, Note_on_c, 0, 85, 96
2, 464237, Note_on_c, 0, 62, 82
2, 464379, Note_on_c, 0, 66, 77
2, 464540, Note_on_c, 0, 62, 0
2, 464544, Note_on_c, 0, 83, 95
2, 464545, Note_on_c, 0, 62, 74
2, 464563, Note_on_c, 0, 78, 0
2, 464569, Note_on_c, 0, 78, 78
2, 464709, Note_on_c, 0, 71, 88
2, 464839, Note_on_c, 0, 66, 0
2, 464850, Note_on_c, 0, 66, 76
2, 464858, Note_on_c, 0, 81, 94
2, 465008, Note_on_c, 0, 62, 0
2, 465018, Note_on_c, 0, 62, 77
2, 465171, Note_on_c, 0, 80, 95
2, 465174, Note_on_c, 0, 52, 76
2, 465175, Note_on_c, 0, 76, 82
2, 465192, Note_on_c, 0, 62, 0
2, 465193, Note_on_c, 0, 86, 0
2, 465193, Note_on_c, 0, 71, 0
2, 465193, Note_on_c, 0, 66, 0
2, 465195, Note_on_c, 0, 78, 0
2, 465195, Note_on_c, 0, 81, 0
2, 465195, Note_on_c, 0, 83, 0
2, 465195, Note_on_c, 0, 57, 0
2, 465196, Note_on_c, 0, 85, 0
2, 465196, Control_c, 0, 64, 0
2, 465208, Note_on_c, 0, 74, 0
2, 465218, Note_on_c, 0, 76, 0
2, 465231, Note_on_c, 0, 80, 0
2, 465308, Control_c, 0, 64, 127
2, 465339, Note_on_c, 0, 80, 83
2, 465341, Note_on_c, 0, 76, 75
2, 465414, Note_on_c, 0, 81, 85
2, 465480, Note_on_c, 0, 64, 95
2, 465480, Note_on_c, 0, 83, 103
2, 465580, Note_on_c, 0, 59, 87
2, 465661, Note_on_c, 0, 52, 0
2, 465671, Note_on_c, 0, 52, 63
2, 465770, Note_on_c, 0, 81, 0
2, 465770, Note_on_c, 0, 80, 0
2, 465770, Note_on_c, 0, 52, 0
2, 465771, Control_c, 0, 64, 0
2, 465771, Note_on_c, 0, 64, 0
2, 465772, Note_on_c, 0, 76, 0
2, 465772, Note_on_c, 0, 59, 0
2, 465784, Note_on_c, 0, 83, 0
2, 465789, Note_on_c, 0, 83, 92
2, 465790, Note_on_c, 0, 78, 96
2, 465792, Note_on_c, 0, 74, 89
2, 465794, Note_on_c, 0, 50, 96
2, 465826, Note_on_c, 0, 50, 0
2, 465826, Note_on_c, 0, 74, 0
2, 465838, Control_c, 0, 64, 127
2, 465953, Note_on_c, 0, 78, 0
2, 465953, Note_on_c, 0, 83, 0
2, 465959, Note_on_c, 0, 83, 74
2, 465962, Note_on_c, 0, 74, 65
2, 465964, Note_on_c, 0, 78, 80
2, 466034, Note_on_c, 0, 85, 90
2, 466090, Note_on_c, 0, 66, 95
2, 466094, Note_on_c, 0, 86, 104
2, 466172, Note_on_c, 0, 57, 84
2, 466253, Note_on_c, 0, 50, 90
2, 466390, Note_on_c, 0, 50, 0
2, 466390, Note_on_c, 0, 86, 0
2, 466392, Note_on_c, 0, 83, 0
2, 466393, Note_on_c, 0, 74, 0
2, 466393, Note_on_c, 0, 57, 0
2, 466393, Note_on_c, 0, 66, 0
2, 466393, Note_on_c, 0, 78, 0
2, 466393, Note_on_c, 0, 85, 0
2, 466394, Control_c, 0, 64, 0
2, 466402, Note_on_c, 0, 52, 97
2, 466402, Note_on_c, 0, 88, 97
2, 466452, Control_c, 0, 64, 127
2, 466544, Note_on_c, 0, 88, 0
2, 466551, Note_on_c, 0, 88, 77
2, 466625, Note_on_c, 0, 90, 92
2, 466684, Note_on_c, 0, 68, 94
2, 466692, Note_on_c, 0, 92, 110
2, 466702, Note_on_c, 0, 83, 96
2, 466777, Note_on_c, 0, 59, 86
2, 466867, Note_on_c, 0, 52, 0
2, 466872, Note_on_c, 0, 52, 76
2, 466951, Note_on_c, 0, 90, 0
2, 466952, Note_on_c, 0, 68, 0
2, 466953, Control_c, 0, 64, 0
2, 466953, Note_on_c, 0, 52, 0
2, 466954, Note_on_c, 0, 92, 0
2, 466955, Note_on_c, 0, 59, 0
2, 466955, Note_on_c, 0, 83, 0
2, 466993, Note_on_c, 0, 50, 103
2, 466997, Note_on_c, 0, 88, 0
2, 467020, Control_c, 0, 64, 127
2, 467105, Note_on_c, 0, 50, 0
2, 467318, Note_on_c, 0, 81, 97
2, 467319, Note_on_c, 0, 90, 100
2, 467320, Note_on_c, 0, 78, 105
2, 467323, Note_on_c, 0, 57, 99
2, 467324, Note_on_c, 0, 86, 80
2, 467325, Note_on_c, 0, 66, 101
2, 467600, Note_on_c, 0, 86, 0
2, 467600, Note_on_c, 0, 66, 0
2, 467600, Note_on_c, 0, 90, 0
2, 467601, Note_on_c, 0, 78, 0
2, 467601, Note_on_c, 0, 57, 0
2, 467601, Note_on_c, 0, 81, 0
2, 467603, Control_c, 0, 64, 0
2, 467643, Note_on_c, 0, 80, 105
2, 467643, Note_on_c, 0, 88, 106
2, 467645, Note_on_c, 0, 76, 105
2, 467646, Note_on_c, 0, 83, 102
2, 467681, Control_c, 0, 64, 127
2, 467963, Note_on_c, 0, 52, 106
2, 467965, Note_on_c, 0, 40, 103
2, 468126, Note_on_c, 0, 83, 0
2, 468131, Note_on_c, 0, 83, 85
2, 468188, Note_on_c, 0, 88, 0
2, 468199, Note_on_c, 0, 88, 89
2, 468253, Note_on_c, 0, 80, 0
2, 468253, Note_on_c, 0, 52, 0
2, 468254, Note_on_c, 0, 83, 0
2, 468254, Note_on_c, 0, 88, 0
2, 468254, Note_on_c, 0, 76, 0
2, 468254, Note_on_c, 0, 40, 0
2, 468257, Control_c, 0, 64, 0
2, 468293, Note_on_c, 0, 86, 105
2, 468298, Note_on_c, 0, 81, 98
2, 468298, Note_on_c, 0, 74, 99
2, 468299, Note_on_c, 0, 78, 99
2, 468587, Control_c, 0, 64, 127
2, 468606, Note_on_c, 0, 50, 108
2, 468606, Note_on_c, 0, 38, 104
2, 468758, Note_on_c, 0, 83, 82
2, 468802, Note_on_c, 0, 86, 0
2, 468813, Note_on_c, 0, 86, 98
2, 468910, Note_on_c, 0, 74, 0
2, 468928, Note_on_c, 0, 50, 0
2, 468929, Note_on_c, 0, 38, 0
2, 468929, Control_c, 0, 64, 0
2, 468930, Note_on_c, 0, 83, 0
2, 468930, Note_on_c, 0, 85, 107
2, 468930, Note_on_c, 0, 86, 0
2, 468935, Note_on_c, 0, 73, 98
2, 468937, Note_on_c, 0, 76, 94
2, 468956, Note_on_c, 0, 78, 0
2, 469056, Note_on_c, 0, 81, 0
2, 469257, Note_on_c, 0, 45, 104
2, 469258, Note_on_c, 0, 33, 98
2, 469271, Control_c, 0, 64, 127
2, 469440, Note_on_c, 0, 33, 0
2, 469440, Note_on_c, 0, 45, 0
2, 469443, Note_on_c, 0, 33, 82
2, 469445, Note_on_c, 0, 45, 87
2, 469509, Note_on_c, 0, 33, 0
2, 469509, Note_on_c, 0, 45, 0
2, 469517, Note_on_c, 0, 45, 97
2, 469519, Note_on_c, 0, 33, 82
2, 469589, Note_on_c, 0, 33, 0
2, 469591, Note_on_c, 0, 45, 0
2, 469593, Note_on_c, 0, 76, 0
2, 469597, Control_c, 0, 64, 0
2, 469597, Note_on_c, 0, 47, 103
2, 469598, Note_on_c, 0, 35, 100
2, 469655, Control_c, 0, 64, 127
2, 469662, Note_on_c, 0, 73, 0
2, 469935, Note_on_c, 0, 51, 94
2, 469935, Note_on_c, 0, 59, 98
2, 469935, Note_on_c, 0, 87, 110
2, 469936, Note_on_c, 0, 54, 91
2, 469937, Note_on_c, 0, 63, 92
2, 469940, Note_on_c, 0, 75, 101
2, 469940, Note_on_c, 0, 78, 96
2, 469946, Note_on_c, 0, 78, 0
2, 469946, Control_c, 0, 64, 0
2, 470031, Control_c, 0, 64, 127
2, 470284, Note_on_c, 0, 35, 0
2, 470291, Control_c, 0, 64, 0
2, 470292, Note_on_c, 0, 85, 0
2, 470293, Note_on_c, 0, 51, 0
2, 470294, Note_on_c, 0, 47, 0
2, 470295, Note_on_c, 0, 87, 0
2, 470295, Note_on_c, 0, 75, 0
2, 470295, Note_on_c, 0, 63, 0
2, 470295, Note_on_c, 0, 59, 0
2, 470295, Note_on_c, 0, 54, 0
2, 470317, Note_on_c, 0, 80, 107
2, 470318, Note_on_c, 0, 40, 101
2, 470318, Note_on_c, 0, 52, 103
2, 470319, Note_on_c, 0, 88, 105
2, 470319, Note_on_c, 0, 83, 99
2, 470319, Note_on_c, 0, 76, 104
2, 470369, Control_c, 0, 64, 127
2, 470641, Note_on_c, 0, 59, 95
2, 470642, Note_on_c, 0, 56, 95
2, 470845, Note_on_c, 0, 52, 0
2, 470850, Note_on_c, 0, 52, 70
2, 470937, Note_on_c, 0, 56, 0
2, 470943, Note_on_c, 0, 56, 86
2, 470952, Note_on_c, 0, 59, 0
2, 470963, Note_on_c, 0, 59, 76
2, 470964, Note_on_c, 0, 64, 83
2, 471106, Note_on_c, 0, 40, 0
2, 471112, Note_on_c, 0, 40, 78
2, 471275, Note_on_c, 0, 56, 0
2, 471275, Note_on_c, 0, 59, 0
2, 471276, Note_on_c, 0, 71, 97
2, 471279, Note_on_c, 0, 47, 82
2, 471280, Note_on_c, 0, 59, 81
2, 471282, Note_on_c, 0, 56, 75
2, 471429, Note_on_c, 0, 76, 0
2, 471433, Note_on_c, 0, 76, 88
2, 471540, Note_on_c, 0, 71, 0
2, 471540, Note_on_c, 0, 52, 0
2, 471540, Note_on_c, 0, 83, 0
2, 471541, Note_on_c, 0, 88, 0
2, 471541, Note_on_c, 0, 59, 0
2, 471541, Note_on_c, 0, 64, 0
2, 471541, Note_on_c, 0, 80, 0
2, 471541, Note_on_c, 0, 76, 0
2, 471541, Note_on_c, 0, 40, 0
2, 471545, Control_c, 0, 64, 0
2, 471559, Note_on_c, 0, 47, 0
2, 471559, Note_on_c, 0, 56, 0
2, 471584, Note_on_c, 0, 50, 100
2, 471585, Note_on_c, 0, 78, 107
2, 471586, Note_on_c, 0, 69, 96
2, 471587, Note_on_c, 0, 38, 97
2, 471590, Note_on_c, 0, 50, 0
2, 471616, Note_on_c, 0, 69, 0
2, 471628, Control_c, 0, 64, 127
2, 471644, Note_on_c, 0, 78, 0
2, 471805, Note_on_c, 0, 38, 0
2, 471820, Note_on_c, 0, 62, 95
2, 471823, Note_on_c, 0, 66, 90
2, 471823, Note_on_c, 0, 74, 95
2, 471849, Note_on_c, 0, 74, 0
2, 471897, Note_on_c, 0, 62, 0
2, 471905, Note_on_c, 0, 66, 0
2, 471906, Note_on_c, 0, 74, 98
2, 471909, Note_on_c, 0, 62, 96
2, 471909, Note_on_c, 0, 66, 93
2, 472061, Note_on_c, 0, 50, 86
2, 472204, Note_on_c, 0, 66, 0
2, 472212, Note_on_c, 0, 62, 0
2, 472215, Note_on_c, 0, 66, 100
2, 472216, Note_on_c, 0, 54, 91
2, 472218, Note_on_c, 0, 57, 89
2, 472220, Note_on_c, 0, 38, 73
2, 472222, Note_on_c, 0, 62, 67
2, 472442, Note_on_c, 0, 62, 0
2, 472454, Note_on_c, 0, 62, 74
2, 472496, Note_on_c, 0, 50, 0
2, 472502, Note_on_c, 0, 50, 85
2, 472512, Note_on_c, 0, 62, 0
2, 472517, Note_on_c, 0, 62, 88
2, 472562, Note_on_c, 0, 45, 82
2, 472642, Note_on_c, 0, 38, 0
2, 472649, Note_on_c, 0, 38, 77
2, 472830, Note_on_c, 0, 74, 0
2, 472831, Note_on_c, 0, 45, 0
2, 472831, Note_on_c, 0, 50, 0
2, 472831, Note_on_c, 0, 54, 0
2, 472831, Note_on_c, 0, 62, 0
2, 472831, Note_on_c, 0, 38, 0
2, 472831, Note_on_c, 0, 57, 0
2, 472831, Note_on_c, 0, 66, 0
2, 472833, Control_c, 0, 64, 0
2, 472861, Note_on_c, 0, 76, 102
2, 472864, Note_on_c, 0, 64, 94
2, 472865, Note_on_c, 0, 71, 94
2, 472867, Note_on_c, 0, 40, 96
2, 472868, Note_on_c, 0, 52, 100
2, 472868, Note_on_c, 0, 68, 101
2, 472911, Control_c, 0, 64, 127
2, 473178, Note_on_c, 0, 59, 87
2, 473180, Note_on_c, 0, 56, 85
2, 473387, Note_on_c, 0, 52, 0
2, 473392, Note_on_c, 0, 52, 71
2, 473464, Note_on_c, 0, 56, 0
2, 473475, Note_on_c, 0, 56, 84
2, 473510, Note_on_c, 0, 64, 0
2, 473516, Note_on_c, 0, 64, 96
2, 473648, Note_on_c, 0, 40, 0
2, 473659, Note_on_c, 0, 40, 80
2, 473817, Note_on_c, 0, 56, 0
2, 473817, Note_on_c, 0, 71, 0
2, 473826, Note_on_c, 0, 56, 83
2, 473827, Note_on_c, 0, 47, 83
2, 473828, Note_on_c, 0, 71, 97
2, 473833, Note_on_c, 0, 59, 0
2, 473971, Note_on_c, 0, 76, 0
2, 473978, Note_on_c, 0, 76, 91
2, 474112, Note_on_c, 0, 68, 0
2, 474112, Note_on_c, 0, 71, 0
2, 474112, Note_on_c, 0, 47, 0
2, 474112, Note_on_c, 0, 52, 0
2, 474112, Note_on_c, 0, 64, 0
2, 474112, Note_on_c, 0, 56, 0
2, 474112, Note_on_c, 0, 40, 0
2, 474113, Note_on_c, 0, 76, 0
2, 474114, Control_c, 0, 64, 0
2, 474128, Note_on_c, 0, 74, 106
2, 474128, Note_on_c, 0, 38, 100
2, 474174, Note_on_c, 0, 74, 0
2, 474186, Control_c, 0, 64, 127
2, 474298, Note_on_c, 0, 74, 92
2, 474387, Note_on_c, 0, 76, 72
2, 474437, Note_on_c, 0, 78, 109
2, 474440, Note_on_c, 0, 69, 91
2, 474608, Note_on_c, 0, 38, 0
2, 474612, Note_on_c, 0, 50, 72
2, 474617, Note_on_c, 0, 38, 71
2, 474746, Note_on_c, 0, 66, 101
2, 474746, Note_on_c, 0, 38, 0
2, 474751, Note_on_c, 0, 62, 81
2, 474756, Note_on_c, 0, 38, 69
2, 474757, Note_on_c, 0, 54, 83
2, 474758, Note_on_c, 0, 57, 87
2, 474908, Note_on_c, 0, 62, 0
2, 474915, Note_on_c, 0, 66, 0
2, 474916, Note_on_c, 0, 62, 79
2, 474920, Note_on_c, 0, 66, 77
2, 474995, Note_on_c, 0, 68, 82
2, 475038, Note_on_c, 0, 50, 0
2, 475038, Note_on_c, 0, 66, 0
2, 475038, Note_on_c, 0, 69, 0
2, 475047, Note_on_c, 0, 50, 79
2, 475049, Note_on_c, 0, 66, 75
2, 475049, Note_on_c, 0, 69, 88
2, 475054, Note_on_c, 0, 38, 0
2, 475058, Note_on_c, 0, 38, 69
2, 475100, Note_on_c, 0, 62, 0
2, 475106, Note_on_c, 0, 45, 62
2, 475107, Note_on_c, 0, 62, 83
2, 475107, Note_on_c, 0, 66, 0
2, 475116, Note_on_c, 0, 66, 94
2, 475161, Note_on_c, 0, 38, 0
2, 475167, Note_on_c, 0, 38, 68
2, 475375, Note_on_c, 0, 45, 0
2, 475376, Note_on_c, 0, 38, 0
2, 475376, Note_on_c, 0, 57, 0
2, 475376, Note_on_c, 0, 74, 0
2, 475376, Note_on_c, 0, 54, 0
2, 475376, Note_on_c, 0, 68, 0
2, 475376, Note_on_c, 0, 62, 0
2, 475377, Note_on_c, 0, 66, 0
2, 475377, Note_on_c, 0, 78, 0
2, 475377, Control_c, 0, 64, 0
2, 475384, Note_on_c, 0, 50, 0
2, 475384, Note_on_c, 0, 69, 0
2, 475397, Note_on_c, 0, 80, 108
2, 475399, Note_on_c, 0, 76, 0
2, 475403, Note_on_c, 0, 74, 87
2, 475404, Note_on_c, 0, 71, 89
2, 475404, Note_on_c, 0, 40, 100
2, 475406, Note_on_c, 0, 76, 95
2, 475407, Note_on_c, 0, 74, 0
2, 475445, Control_c, 0, 64, 127
2, 475713, Note_on_c, 0, 59, 93
2, 475717, Note_on_c, 0, 56, 91
2, 475920, Note_on_c, 0, 52, 74
2, 475998, Note_on_c, 0, 56, 0
2, 475998, Note_on_c, 0, 59, 0
2, 476009, Note_on_c, 0, 59, 75
2, 476009, Note_on_c, 0, 56, 92
2, 476038, Note_on_c, 0, 64, 91
2, 476175, Note_on_c, 0, 40, 0
2, 476185, Note_on_c, 0, 40, 79
2, 476344, Note_on_c, 0, 56, 0
2, 476353, Note_on_c, 0, 56, 79
2, 476357, Note_on_c, 0, 78, 101
2, 476358, Note_on_c, 0, 47, 85
2, 476359, Note_on_c, 0, 74, 92
2, 476505, Note_on_c, 0, 80, 0
2, 476509, Note_on_c, 0, 80, 98
2, 476520, Note_on_c, 0, 74, 0
2, 476531, Note_on_c, 0, 74, 68
2, 476643, Note_on_c, 0, 71, 0
2, 476643, Note_on_c, 0, 52, 0
2, 476643, Control_c, 0, 64, 0
2, 476643, Note_on_c, 0, 56, 0
2, 476643, Note_on_c, 0, 64, 0
2, 476644, Note_on_c, 0, 47, 0
2, 476644, Note_on_c, 0, 80, 0
2, 476644, Note_on_c, 0, 74, 0
2, 476644, Note_on_c, 0, 76, 0
2, 476645, Note_on_c, 0, 40, 0
2, 476645, Note_on_c, 0, 78, 0
2, 476659, Note_on_c, 0, 59, 0
2, 476667, Note_on_c, 0, 78, 93
2, 476668, Note_on_c, 0, 81, 108
2, 476670, Note_on_c, 0, 50, 104
2, 476670, Note_on_c, 0, 38, 102
2, 476673, Note_on_c, 0, 74, 93
2, 476720, Control_c, 0, 64, 127
2, 476789, Note_on_c, 0, 74, 0
2, 476897, Note_on_c, 0, 78, 0
2, 476903, Note_on_c, 0, 78, 97
2, 476904, Note_on_c, 0, 74, 88
2, 476974, Note_on_c, 0, 74, 0
2, 476974, Note_on_c, 0, 78, 0
2, 476979, Note_on_c, 0, 78, 111
2, 476983, Note_on_c, 0, 74, 90
2, 477135, Note_on_c, 0, 50, 0
2, 477145, Note_on_c, 0, 50, 60
2, 477258, Note_on_c, 0, 38, 0
2, 477296, Note_on_c, 0, 74, 0
2, 477296, Note_on_c, 0, 78, 0
2, 477296, Note_on_c, 0, 81, 0
2, 477297, Control_c, 0, 64, 0
2, 477298, Note_on_c, 0, 85, 100
2, 477300, Note_on_c, 0, 54, 81
2, 477301, Note_on_c, 0, 57, 88
2, 477303, Note_on_c, 0, 78, 99
2, 477303, Note_on_c, 0, 86, 84
2, 477305, Note_on_c, 0, 62, 87
2, 477307, Note_on_c, 0, 81, 86
2, 477308, Note_on_c, 0, 74, 87
2, 477365, Control_c, 0, 64, 127
2, 477527, Note_on_c, 0, 81, 0
2, 477534, Note_on_c, 0, 74, 0
2, 477534, Note_on_c, 0, 78, 0
2, 477537, Note_on_c, 0, 81, 92
2, 477538, Note_on_c, 0, 69, 82
2, 477538, Note_on_c, 0, 74, 79
2, 477543, Note_on_c, 0, 78, 79
2, 477596, Note_on_c, 0, 81, 0
2, 477603, Note_on_c, 0, 50, 0
2, 477603, Note_on_c, 0, 69, 0
2, 477603, Note_on_c, 0, 78, 0
2, 477607, Note_on_c, 0, 81, 106
2, 477611, Note_on_c, 0, 69, 104
2, 477614, Note_on_c, 0, 50, 92
2, 477615, Note_on_c, 0, 78, 92
2, 477643, Note_on_c, 0, 45, 58
2, 477934, Note_on_c, 0, 85, 0
2, 477939, Note_on_c, 0, 50, 0
2, 477939, Note_on_c, 0, 45, 0
2, 477939, Control_c, 0, 64, 0
2, 477940, Note_on_c, 0, 69, 0
2, 477940, Note_on_c, 0, 74, 0
2, 477940, Note_on_c, 0, 81, 0
2, 477940, Note_on_c, 0, 57, 0
2, 477940, Note_on_c, 0, 54, 0
2, 477940, Note_on_c, 0, 62, 0
2, 477942, Note_on_c, 0, 78, 0
2, 477949, Note_on_c, 0, 86, 0
2, 477963, Note_on_c, 0, 80, 106
2, 477969, Note_on_c, 0, 40, 97
2, 477969, Note_on_c, 0, 71, 92
2, 477974, Note_on_c, 0, 52, 99
2, 477975, Note_on_c, 0, 76, 85
2, 478018, Control_c, 0, 64, 127
2, 478305, Note_on_c, 0, 59, 92
2, 478312, Note_on_c, 0, 56, 81
2, 478487, Note_on_c, 0, 52, 0
2, 478495, Note_on_c, 0, 52, 74
2, 478602, Note_on_c, 0, 56, 0
2, 478612, Note_on_c, 0, 56, 86
2, 478625, Note_on_c, 0, 59, 0
2, 478629, Note_on_c, 0, 59, 89
2, 478636, Note_on_c, 0, 64, 91
2, 478778, Note_on_c, 0, 52, 0
2, 478789, Note_on_c, 0, 52, 77
2, 478924, Note_on_c, 0, 56, 0
2, 478935, Note_on_c, 0, 56, 89
2, 478938, Note_on_c, 0, 78, 102
2, 479086, Note_on_c, 0, 80, 0
2, 479091, Note_on_c, 0, 80, 95
2, 479253, Note_on_c, 0, 59, 0
2, 479253, Note_on_c, 0, 56, 0
2, 479253, Note_on_c, 0, 80, 0
2, 479253, Note_on_c, 0, 64, 0
2, 479253, Control_c, 0, 64, 0
2, 479254, Note_on_c, 0, 71, 0
2, 479255, Note_on_c, 0, 76, 0
2, 479256, Note_on_c, 0, 78, 0
2, 479262, Note_on_c, 0, 40, 0
2, 479268, Note_on_c, 0, 81, 104
2, 479273, Note_on_c, 0, 40, 96
2, 479274, Note_on_c, 0, 72, 95
2, 479274, Note_on_c, 0, 69, 98
2, 479278, Note_on_c, 0, 52, 0
2, 479278, Note_on_c, 0, 77, 86
2, 479324, Control_c, 0, 64, 127
2, 479610, Note_on_c, 0, 57, 79
2, 479610, Note_on_c, 0, 60, 82
2, 479777, Note_on_c, 0, 52, 73
2, 479854, Note_on_c, 0, 57, 0
2, 479865, Note_on_c, 0, 57, 78
2, 479900, Note_on_c, 0, 60, 0
2, 479911, Note_on_c, 0, 60, 66
2, 479940, Note_on_c, 0, 65, 98
2, 480107, Note_on_c, 0, 52, 0
2, 480113, Note_on_c, 0, 52, 73
2, 480268, Note_on_c, 0, 81, 0
2, 480276, Note_on_c, 0, 57, 0
2, 480276, Note_on_c, 0, 60, 0
2, 480276, Note_on_c, 0, 69, 0
2, 480276, Note_on_c, 0, 72, 0
2, 480277, Note_on_c, 0, 81, 103
2, 480280, Note_on_c, 0, 60, 90
2, 480280, Note_on_c, 0, 72, 96
2, 480281, Note_on_c, 0, 69, 97
2, 480282, Note_on_c, 0, 57, 89
2, 480399, Note_on_c, 0, 69, 0
2, 480399, Note_on_c, 0, 72, 0
2, 480399, Note_on_c, 0, 81, 0
2, 480403, Note_on_c, 0, 81, 93
2, 480407, Note_on_c, 0, 69, 87
2, 480409, Note_on_c, 0, 72, 80
2, 480499, Note_on_c, 0, 81, 0
2, 480506, Note_on_c, 0, 69, 0
2, 480509, Note_on_c, 0, 81, 94
2, 480511, Note_on_c, 0, 69, 93
2, 480600, Control_c, 0, 64, 0
2, 480605, Note_on_c, 0, 52, 0
2, 480605, Note_on_c, 0, 69, 0
2, 480606, Note_on_c, 0, 65, 0
2, 480606, Note_on_c, 0, 57, 0
2, 480606, Note_on_c, 0, 77, 0
2, 480606, Note_on_c, 0, 60, 0
2, 480614, Note_on_c, 0, 40, 0
2, 480622, Note_on_c, 0, 72, 0
2, 480622, Note_on_c, 0, 81, 0
2, 480646, Note_on_c, 0, 40, 95
2, 480647, Note_on_c, 0, 71, 100
2, 480648, Note_on_c, 0, 81, 104
2, 480649, Note_on_c, 0, 74, 91
2, 480649, Note_on_c, 0, 69, 91
2, 480675, Control_c, 0, 64, 127
2, 480984, Note_on_c, 0, 68, 74
2, 480985, Note_on_c, 0, 59, 85
2, 480986, Note_on_c, 0, 62, 88
2, 481142, Note_on_c, 0, 52, 72
2, 481236, Note_on_c, 0, 59, 0
2, 481243, Note_on_c, 0, 59, 73
2, 481297, Note_on_c, 0, 62, 0
2, 481303, Note_on_c, 0, 62, 56
2, 481345, Note_on_c, 0, 67, 102
2, 481505, Note_on_c, 0, 52, 0
2, 481510, Note_on_c, 0, 52, 66
2, 481697, Note_on_c, 0, 59, 0
2, 481697, Note_on_c, 0, 62, 0
2, 481697, Note_on_c, 0, 69, 0
2, 481697, Note_on_c, 0, 71, 0
2, 481697, Note_on_c, 0, 74, 0
2, 481697, Note_on_c, 0, 81, 0
2, 481702, Note_on_c, 0, 81, 104
2, 481705, Note_on_c, 0, 59, 87
2, 481707, Note_on_c, 0, 69, 99
2, 481708, Note_on_c, 0, 71, 93
2, 481708, Note_on_c, 0, 62, 84
2, 481708, Note_on_c, 0, 74, 84
2, 481835, Note_on_c, 0, 81, 0
2, 481843, Note_on_c, 0, 69, 0
2, 481843, Note_on_c, 0, 71, 0
2, 481846, Note_on_c, 0, 81, 97
2, 481848, Note_on_c, 0, 69, 89
2, 481853, Note_on_c, 0, 71, 83
2, 481958, Note_on_c, 0, 69, 0
2, 481958, Note_on_c, 0, 74, 0
2, 481958, Note_on_c, 0, 81, 0
2, 481963, Note_on_c, 0, 81, 101
2, 481968, Note_on_c, 0, 74, 75
2, 481969, Note_on_c, 0, 69, 96
2, 481973, Note_on_c, 0, 71, 0
2, 481977, Note_on_c, 0, 71, 79
2, 482083, Control_c, 0, 64, 0
2, 482084, Note_on_c, 0, 67, 0
2, 482084, Note_on_c, 0, 52, 0
2, 482084, Note_on_c, 0, 62, 0
2, 482084, Note_on_c, 0, 71, 0
2, 482084, Note_on_c, 0, 74, 0
2, 482084, Note_on_c, 0, 59, 0
2, 482088, Note_on_c, 0, 68, 0
2, 482104, Note_on_c, 0, 40, 0
2, 482104, Note_on_c, 0, 69, 0
2, 482104, Note_on_c, 0, 81, 0
2, 482112, Note_on_c, 0, 81, 103
2, 482115, Note_on_c, 0, 69, 102
2, 482115, Note_on_c, 0, 40, 91
2, 482115, Note_on_c, 0, 72, 98
2, 482116, Note_on_c, 0, 77, 90
2, 482150, Control_c, 0, 64, 127
2, 482492, Note_on_c, 0, 60, 91
2, 482492, Note_on_c, 0, 57, 85
2, 482715, Note_on_c, 0, 52, 77
2, 482772, Note_on_c, 0, 57, 0
2, 482783, Note_on_c, 0, 57, 86
2, 482803, Note_on_c, 0, 60, 0
2, 482814, Note_on_c, 0, 60, 81
2, 482905, Note_on_c, 0, 65, 98
2, 482910, Note_on_c, 0, 69, 0
2, 482910, Note_on_c, 0, 72, 0
2, 482910, Note_on_c, 0, 81, 0
2, 482918, Note_on_c, 0, 77, 0
2, 482919, Note_on_c, 0, 81, 107
2, 482922, Note_on_c, 0, 69, 100
2, 482922, Note_on_c, 0, 72, 100
2, 482922, Note_on_c, 0, 77, 94
2, 483141, Note_on_c, 0, 52, 0
2, 483148, Note_on_c, 0, 40, 0
2, 483152, Note_on_c, 0, 52, 88
2, 483158, Note_on_c, 0, 40, 72
2, 483417, Note_on_c, 0, 57, 0
2, 483417, Note_on_c, 0, 60, 0
2, 483427, Note_on_c, 0, 60, 93
2, 483427, Note_on_c, 0, 57, 89
2, 483724, Note_on_c, 0, 52, 0
2, 483732, Note_on_c, 0, 40, 0
2, 483735, Note_on_c, 0, 52, 82
2, 483738, Note_on_c, 0, 40, 66
2, 484210, Note_on_c, 0, 80, 102
2, 484216, Note_on_c, 0, 40, 0
2, 484219, Note_on_c, 0, 76, 92
2, 484220, Note_on_c, 0, 68, 102
2, 484220, Note_on_c, 0, 71, 94
2, 484220, Note_on_c, 0, 40, 93
2, 484220, Note_on_c, 0, 28, 96
2, 484224, Note_on_c, 0, 60, 0
2, 484224, Note_on_c, 0, 57, 0
2, 484225, Note_on_c, 0, 69, 0
2, 484226, Note_on_c, 0, 81, 0
2, 484231, Control_c, 0, 64, 0
2, 484239, Note_on_c, 0, 65, 0
2, 484239, Note_on_c, 0, 77, 0
2, 484254, Note_on_c, 0, 52, 0
2, 484254, Note_on_c, 0, 72, 0
2, 484300, Control_c, 0, 64, 127
2, 484773, Note_on_c, 0, 47, 87
2, 484775, Note_on_c, 0, 35, 86
2, 484913, Note_on_c, 0, 52, 73
2, 485001, Note_on_c, 0, 56, 84
2, 485119, Note_on_c, 0, 59, 77
2, 485184, Note_on_c, 0, 40, 0
2, 485184, Note_on_c, 0, 52, 0
2, 485194, Note_on_c, 0, 52, 99
2, 485195, Note_on_c, 0, 40, 91
2, 485306, Note_on_c, 0, 59, 0
2, 485311, Note_on_c, 0, 59, 68
2, 485406, Note_on_c, 0, 56, 0
2, 485417, Note_on_c, 0, 56, 65
2, 485514, Note_on_c, 0, 59, 0
2, 485518, Note_on_c, 0, 59, 55
2, 485560, Note_on_c, 0, 47, 0
2, 485568, Note_on_c, 0, 35, 0
2, 485568, Note_on_c, 0, 68, 0
2, 485569, Note_on_c, 0, 47, 98
2, 485571, Note_on_c, 0, 68, 81
2, 485572, Note_on_c, 0, 35, 95
2, 485689, Note_on_c, 0, 64, 76
2, 485760, Note_on_c, 0, 59, 0
2, 485760, Note_on_c, 0, 68, 0
2, 485765, Note_on_c, 0, 68, 46
2, 485767, Note_on_c, 0, 59, 55
2, 485836, Note_on_c, 0, 64, 0
2, 485842, Note_on_c, 0, 64, 75
2, 485933, Control_c, 0, 64, 0
2, 485936, Note_on_c, 0, 64, 0
2, 485936, Note_on_c, 0, 71, 0
2, 485941, Note_on_c, 0, 47, 0
2, 485942, Note_on_c, 0, 35, 0
2, 485944, Note_on_c, 0, 40, 0
2, 485944, Note_on_c, 0, 52, 0
2, 485944, Note_on_c, 0, 68, 0
2, 485944, Note_on_c, 0, 59, 0
2, 485944, Note_on_c, 0, 76, 0
2, 485945, Note_on_c, 0, 71, 85
2, 485946, Note_on_c, 0, 64, 85
2, 485948, Note_on_c, 0, 40, 94
2, 485949, Note_on_c, 0, 68, 80
2, 485952, Note_on_c, 0, 28, 0
2, 485952, Note_on_c, 0, 56, 0
2, 485952, Note_on_c, 0, 52, 94
2, 485959, Note_on_c, 0, 80, 0
2, 486005, Control_c, 0, 64, 127
2, 486021, Note_on_c, 0, 68, 0
2, 486025, Note_on_c, 0, 68, 85
2, 486113, Note_on_c, 0, 64, 0
2, 486119, Note_on_c, 0, 64, 77
2, 486197, Note_on_c, 0, 68, 0
2, 486208, Note_on_c, 0, 68, 77
2, 486317, Note_on_c, 0, 47, 96
2, 486317, Note_on_c, 0, 76, 84
2, 486318, Note_on_c, 0, 35, 97
2, 486412, Note_on_c, 0, 71, 0
2, 486423, Note_on_c, 0, 71, 84
2, 486520, Note_on_c, 0, 68, 0
2, 486524, Note_on_c, 0, 68, 83
2, 486620, Note_on_c, 0, 71, 0
2, 486627, Note_on_c, 0, 71, 72
2, 486685, Note_on_c, 0, 71, 0
2, 486686, Note_on_c, 0, 76, 0
2, 486686, Note_on_c, 0, 47, 0
2, 486687, Note_on_c, 0, 35, 0
2, 486690, Control_c, 0, 64, 0
2, 486704, Note_on_c, 0, 52, 0
2, 486704, Note_on_c, 0, 64, 0
2, 486712, Note_on_c, 0, 40, 0
2, 486712, Note_on_c, 0, 68, 0
2, 486715, Note_on_c, 0, 52, 108
2, 486716, Note_on_c, 0, 40, 99
2, 486717, Note_on_c, 0, 68, 90
2, 486758, Control_c, 0, 64, 127
2, 486817, Note_on_c, 0, 76, 78
2, 486896, Note_on_c, 0, 71, 82
2, 486988, Note_on_c, 0, 76, 0
2, 486996, Note_on_c, 0, 76, 72
2, 487141, Note_on_c, 0, 83, 96
2, 487144, Note_on_c, 0, 47, 95
2, 487145, Note_on_c, 0, 35, 89
2, 487276, Note_on_c, 0, 80, 89
2, 487411, Note_on_c, 0, 76, 0
2, 487416, Note_on_c, 0, 76, 80
2, 487541, Note_on_c, 0, 80, 0
2, 487547, Note_on_c, 0, 80, 89
2, 487756, Note_on_c, 0, 40, 0
2, 487757, Control_c, 0, 64, 0
2, 487758, Note_on_c, 0, 47, 0
2, 487759, Note_on_c, 0, 68, 0
2, 487759, Note_on_c, 0, 52, 0
2, 487759, Note_on_c, 0, 71, 0
2, 487759, Note_on_c, 0, 83, 0
2, 487760, Note_on_c, 0, 80, 0
2, 487760, Note_on_c, 0, 35, 0
2, 487767, Note_on_c, 0, 40, 75
2, 487787, Note_on_c, 0, 76, 0
2, 487802, Control_c, 0, 64, 127
2, 487873, Note_on_c, 0, 48, 67
2, 488059, Note_on_c, 0, 88, 107
2, 488060, Note_on_c, 0, 84, 103
2, 488060, Note_on_c, 0, 79, 102
2, 488062, Note_on_c, 0, 76, 104
2, 488062, Note_on_c, 0, 55, 91
2, 491309, Control_c, 0, 64, 0
2, 491473, Control_c, 0, 64, 127
2, 492241, Control_c, 0, 64, 0
2, 492280, Note_on_c, 0, 48, 0
2, 492372, Note_on_c, 0, 40, 0
2, 492380, Note_on_c, 0, 55, 0
2, 492664, Note_on_c, 0, 84, 0
2, 492664, Note_on_c, 0, 88, 0
2, 492672, Note_on_c, 0, 76, 0
2, 492672, Note_on_c, 0, 79, 0
2, 493532, Control_c, 0, 64, 127
2, 494252, Note_on_c, 0, 78, 54
2, 495051, Note_on_c, 0, 79, 52
2, 495608, Note_on_c, 0, 81, 69
2, 496483, Note_on_c, 0, 86, 75
2, 497280, Note_on_c, 0, 78, 0
2, 497280, Note_on_c, 0, 79, 0
2, 498019, Note_on_c, 0, 84, 59
2, 498706, Note_on_c, 0, 83, 52
2, 500213, Note_on_c, 0, 81, 0
2, 501089, Note_on_c, 0, 86, 0
2, 501120, Note_on_c, 0, 83, 0
2, 501120, Note_on_c, 0, 84, 0
2, 501217, Note_on_c, 0, 81, 59
2, 501666, Note_on_c, 0, 83, 58
2, 502029, Note_on_c, 0, 84, 68
2, 502382, Note_on_c, 0, 86, 71
2, 502390, Note_on_c, 0, 67, 64
2, 502416, Control_c, 0, 64, 0
2, 502448, Control_c, 0, 64, 127
2, 502679, Note_on_c, 0, 84, 0
2, 502683, Note_on_c, 0, 84, 74
2, 502924, Note_on_c, 0, 83, 0
2, 502930, Note_on_c, 0, 83, 70
2, 503170, Note_on_c, 0, 81, 0
2, 503177, Note_on_c, 0, 81, 68
2, 503181, Note_on_c, 0, 64, 58
2, 503190, Note_on_c, 0, 86, 0
2, 503191, Note_on_c, 0, 83, 0
2, 503191, Note_on_c, 0, 84, 0
2, 503193, Control_c, 0, 64, 0
2, 503255, Control_c, 0, 64, 127
2, 503422, Note_on_c, 0, 91, 85
2, 503665, Note_on_c, 0, 88, 76
2, 503889, Note_on_c, 0, 66, 71
2, 503911, Note_on_c, 0, 90, 78
2, 503919, Note_on_c, 0, 64, 0
2, 503919, Control_c, 0, 64, 0
2, 503920, Note_on_c, 0, 81, 0
2, 503926, Note_on_c, 0, 91, 0
2, 503930, Control_c, 0, 64, 127
2, 504130, Note_on_c, 0, 88, 0
2, 504134, Note_on_c, 0, 88, 74
2, 504238, Note_on_c, 0, 67, 0
2, 504393, Note_on_c, 0, 90, 0
2, 504393, Note_on_c, 0, 66, 0
2, 504401, Control_c, 0, 64, 0
2, 504401, Note_on_c, 0, 86, 80
2, 504403, Note_on_c, 0, 67, 61
2, 504499, Control_c, 0, 64, 127
2, 504906, Note_on_c, 0, 88, 0
2, 505188, Note_on_c, 0, 64, 66
2, 505193, Note_on_c, 0, 83, 67
2, 505434, Note_on_c, 0, 79, 78
2, 505658, Note_on_c, 0, 79, 0
2, 505668, Note_on_c, 0, 79, 82
2, 505878, Note_on_c, 0, 59, 59
2, 505892, Note_on_c, 0, 81, 78
2, 505910, Control_c, 0, 64, 0
2, 505935, Note_on_c, 0, 86, 0
2, 505958, Control_c, 0, 64, 127
2, 506112, Note_on_c, 0, 83, 0
2, 506117, Note_on_c, 0, 83, 76
2, 506348, Note_on_c, 0, 81, 0
2, 506348, Control_c, 0, 64, 0
2, 506349, Note_on_c, 0, 59, 0
2, 506349, Note_on_c, 0, 67, 0
2, 506352, Note_on_c, 0, 83, 0
2, 506352, Note_on_c, 0, 64, 0
2, 506352, Note_on_c, 0, 79, 0
2, 506361, Note_on_c, 0, 84, 73
2, 506368, Note_on_c, 0, 60, 63
2, 506457, Control_c, 0, 64, 127
2, 506596, Note_on_c, 0, 79, 63
2, 506824, Note_on_c, 0, 78, 70
2, 507053, Note_on_c, 0, 76, 59
2, 507059, Note_on_c, 0, 62, 59
2, 507100, Control_c, 0, 64, 0
2, 507102, Note_on_c, 0, 79, 0
2, 507103, Note_on_c, 0, 60, 0
2, 507103, Note_on_c, 0, 78, 0
2, 507141, Note_on_c, 0, 84, 0
2, 507202, Control_c, 0, 64, 127
2, 507291, Note_on_c, 0, 78, 63
2, 507521, Note_on_c, 0, 74, 70
2, 507764, Note_on_c, 0, 79, 83
2, 507765, Note_on_c, 0, 66, 69
2, 507987, Note_on_c, 0, 81, 80
2, 508221, Note_on_c, 0, 67, 70
2, 508225, Note_on_c, 0, 83, 78
2, 508254, Note_on_c, 0, 76, 0
2, 508258, Note_on_c, 0, 66, 0
2, 508258, Note_on_c, 0, 79, 0
2, 508259, Note_on_c, 0, 78, 0
2, 508259, Note_on_c, 0, 81, 0
2, 508259, Control_c, 0, 64, 0
2, 508260, Note_on_c, 0, 74, 0
2, 508260, Note_on_c, 0, 62, 0
2, 508346, Control_c, 0, 64, 127
2, 508463, Note_on_c, 0, 74, 54
2, 508677, Note_on_c, 0, 79, 65
2, 508919, Note_on_c, 0, 84, 72
2, 508923, Note_on_c, 0, 64, 62
2, 508949, Note_on_c, 0, 67, 0
2, 508949, Note_on_c, 0, 74, 0
2, 508949, Note_on_c, 0, 79, 0
2, 508950, Control_c, 0, 64, 0
2, 508950, Note_on_c, 0, 83, 0
2, 509007, Control_c, 0, 64, 127
2, 509034, Note_on_c, 0, 83, 72
2, 509155, Note_on_c, 0, 81, 80
2, 509214, Note_on_c, 0, 84, 0
2, 509371, Note_on_c, 0, 79, 67
2, 509602, Note_on_c, 0, 66, 61
2, 509615, Note_on_c, 0, 78, 58
2, 509617, Note_on_c, 0, 83, 0
2, 509617, Note_on_c, 0, 64, 0
2, 509617, Note_on_c, 0, 79, 0
2, 509619, Control_c, 0, 64, 0
2, 509698, Control_c, 0, 64, 127
2, 509844, Note_on_c, 0, 74, 56
2, 510109, Note_on_c, 0, 67, 74
2, 510111, Note_on_c, 0, 86, 79
2, 510124, Note_on_c, 0, 81, 0
2, 510124, Control_c, 0, 64, 0
2, 510124, Note_on_c, 0, 66, 0
2, 510124, Note_on_c, 0, 78, 0
2, 510125, Note_on_c, 0, 74, 0
2, 510205, Control_c, 0, 64, 127
2, 510346, Note_on_c, 0, 84, 75
2, 510563, Note_on_c, 0, 83, 85
2, 510796, Note_on_c, 0, 86, 0
2, 510803, Note_on_c, 0, 86, 91
2, 510808, Note_on_c, 0, 64, 76
2, 510840, Note_on_c, 0, 83, 0
2, 510840, Note_on_c, 0, 84, 0
2, 510843, Note_on_c, 0, 67, 0
2, 510845, Control_c, 0, 64, 0
2, 510942, Control_c, 0, 64, 127
2, 511036, Note_on_c, 0, 91, 94
2, 511267, Note_on_c, 0, 90, 84
2, 511503, Note_on_c, 0, 90, 0
2, 511508, Note_on_c, 0, 66, 73
2, 511508, Note_on_c, 0, 90, 79
2, 511534, Note_on_c, 0, 86, 0
2, 511541, Control_c, 0, 64, 0
2, 511587, Control_c, 0, 64, 127
2, 511703, Note_on_c, 0, 91, 0
2, 511707, Note_on_c, 0, 91, 82
2, 511947, Note_on_c, 0, 88, 71
2, 511962, Note_on_c, 0, 67, 66
2, 511988, Note_on_c, 0, 91, 0
2, 511990, Control_c, 0, 64, 0
2, 511991, Note_on_c, 0, 64, 0
2, 511991, Note_on_c, 0, 66, 0
2, 512002, Note_on_c, 0, 90, 0
2, 512094, Control_c, 0, 64, 127
2, 512188, Note_on_c, 0, 81, 62
2, 512426, Note_on_c, 0, 83, 70
2, 512651, Note_on_c, 0, 64, 68
2, 512659, Note_on_c, 0, 86, 79
2, 512669, Note_on_c, 0, 81, 0
2, 512670, Note_on_c, 0, 83, 0
2, 512673, Note_on_c, 0, 88, 0
2, 512674, Control_c, 0, 64, 0
2, 512747, Control_c, 0, 64, 127
2, 512885, Note_on_c, 0, 86, 0
2, 512896, Note_on_c, 0, 86, 83
2, 513109, Note_on_c, 0, 83, 78
2, 513365, Note_on_c, 0, 59, 59
2, 513366, Note_on_c, 0, 79, 66
2, 513622, Note_on_c, 0, 74, 51
2, 513918, Note_on_c, 0, 60, 61
2, 513929, Note_on_c, 0, 76, 56
2, 513940, Note_on_c, 0, 86, 0
2, 513940, Note_on_c, 0, 79, 0
2, 513940, Control_c, 0, 64, 0
2, 513940, Note_on_c, 0, 74, 0
2, 513940, Note_on_c, 0, 83, 0
2, 513940, Note_on_c, 0, 59, 0
2, 513943, Note_on_c, 0, 64, 0
2, 514053, Control_c, 0, 64, 127
2, 514356, Note_on_c, 0, 84, 64
2, 514633, Control_c, 0, 64, 0
2, 514687, Note_on_c, 0, 83, 76
2, 514931, Note_on_c, 0, 81, 83
2, 515036, Note_on_c, 0, 84, 0
2, 515172, Note_on_c, 0, 80, 80
2, 515210, Note_on_c, 0, 83, 0
2, 515214, Note_on_c, 0, 81, 0
2, 515444, Note_on_c, 0, 81, 80
2, 515504, Control_c, 0, 64, 127
2, 515736, Note_on_c, 0, 83, 86
2, 516096, Note_on_c, 0, 81, 0
2, 516104, Note_on_c, 0, 81, 78
2, 516480, Note_on_c, 0, 60, 0
2, 516480, Note_on_c, 0, 67, 0
2, 516480, Note_on_c, 0, 76, 0
2, 516545, Note_on_c, 0, 62, 47
2, 516582, Note_on_c, 0, 69, 39
2, 516602, Note_on_c, 0, 80, 0
2, 516651, Note_on_c, 0, 72, 48
2, 516760, Note_on_c, 0, 84, 70
2, 516762, Note_on_c, 0, 76, 51
2, 516827, Control_c, 0, 64, 0
2, 516831, Note_on_c, 0, 83, 0
2, 516836, Note_on_c, 0, 81, 0
2, 517647, Control_c, 0, 64, 127
2, 518482, Note_on_c, 0, 81, 65
2, 518501, Note_on_c, 0, 74, 41
2, 518504, Note_on_c, 0, 78, 45
2, 518534, Control_c, 0, 64, 0
2, 518540, Note_on_c, 0, 84, 0
2, 518541, Note_on_c, 0, 76, 0
2, 518561, Note_on_c, 0, 72, 0
2, 518668, Control_c, 0, 64, 127
2, 519498, Note_on_c, 0, 78, 0
2, 519502, Note_on_c, 0, 78, 66
2, 519503, Note_on_c, 0, 72, 50
2, 520320, Note_on_c, 0, 62, 0
2, 520320, Note_on_c, 0, 69, 0
2, 520704, Note_on_c, 0, 81, 0
2, 520710, Note_on_c, 0, 81, 70
2, 520711, Note_on_c, 0, 72, 0
2, 520716, Note_on_c, 0, 72, 53
2, 520734, Note_on_c, 0, 74, 0
2, 520738, Note_on_c, 0, 74, 37
2, 520738, Note_on_c, 0, 62, 41
2, 520739, Note_on_c, 0, 55, 40
2, 520774, Control_c, 0, 64, 0
2, 520777, Note_on_c, 0, 78, 0
2, 520896, Control_c, 0, 64, 127
2, 521156, Note_on_c, 0, 60, 54
2, 521486, Note_on_c, 0, 59, 57
2, 521491, Note_on_c, 0, 79, 62
2, 521492, Note_on_c, 0, 71, 50
2, 521497, Control_c, 0, 64, 0
2, 521525, Note_on_c, 0, 74, 0
2, 521533, Note_on_c, 0, 62, 0
2, 521533, Note_on_c, 0, 72, 0
2, 521564, Note_on_c, 0, 60, 0
2, 521671, Note_on_c, 0, 81, 0
2, 521710, Control_c, 0, 64, 127
2, 521791, Note_on_c, 0, 62, 59
2, 522052, Note_on_c, 0, 67, 61
2, 522209, Note_on_c, 0, 55, 0
2, 522298, Note_on_c, 0, 64, 67
2, 522566, Note_on_c, 0, 66, 57
2, 522819, Note_on_c, 0, 69, 61
2, 523092, Note_on_c, 0, 67, 0
2, 523096, Note_on_c, 0, 74, 62
2, 523098, Note_on_c, 0, 67, 61
2, 523127, Note_on_c, 0, 59, 0
2, 523127, Note_on_c, 0, 79, 0
2, 523127, Note_on_c, 0, 71, 0
2, 523127, Note_on_c, 0, 62, 0
2, 523128, Note_on_c, 0, 69, 0
2, 523128, Note_on_c, 0, 66, 0
2, 523128, Note_on_c, 0, 64, 0
2, 523128, Control_c, 0, 64, 0
2, 523246, Control_c, 0, 64, 127
2, 523361, Note_on_c, 0, 72, 66
2, 523520, Control_c, 0, 64, 0
2, 523553, Control_c, 0, 64, 127
2, 523590, Note_on_c, 0, 71, 70
2, 523653, Note_on_c, 0, 74, 0
2, 523836, Note_on_c, 0, 74, 71
2, 524075, Note_on_c, 0, 72, 0
2, 524078, Note_on_c, 0, 79, 73
2, 524080, Control_c, 0, 64, 0
2, 524086, Note_on_c, 0, 72, 61
2, 524152, Control_c, 0, 64, 127
2, 524321, Note_on_c, 0, 76, 74
2, 524474, Note_on_c, 0, 74, 0
2, 524567, Note_on_c, 0, 78, 89
2, 524570, Note_on_c, 0, 74, 59
2, 524823, Note_on_c, 0, 81, 87
2, 525089, Note_on_c, 0, 67, 0
2, 525096, Note_on_c, 0, 74, 0
2, 525100, Note_on_c, 0, 67, 64
2, 525101, Note_on_c, 0, 74, 60
2, 525103, Note_on_c, 0, 86, 84
2, 525115, Note_on_c, 0, 71, 0
2, 525117, Note_on_c, 0, 76, 0
2, 525117, Note_on_c, 0, 81, 0
2, 525117, Control_c, 0, 64, 0
2, 525119, Note_on_c, 0, 78, 0
2, 525127, Note_on_c, 0, 72, 0
2, 525127, Note_on_c, 0, 79, 0
2, 525131, Note_on_c, 0, 79, 55
2, 525212, Control_c, 0, 64, 127
2, 525392, Note_on_c, 0, 84, 70
2, 525641, Note_on_c, 0, 83, 77
2, 525934, Note_on_c, 0, 86, 0
2, 525940, Note_on_c, 0, 86, 84
2, 526259, Note_on_c, 0, 91, 78
2, 526286, Control_c, 0, 64, 0
2, 526287, Note_on_c, 0, 79, 0
2, 526287, Note_on_c, 0, 84, 0
2, 526291, Note_on_c, 0, 79, 43
2, 526292, Note_on_c, 0, 84, 54
2, 526318, Control_c, 0, 64, 127
2, 526620, Note_on_c, 0, 88, 65
2, 526640, Note_on_c, 0, 79, 0
2, 526646, Note_on_c, 0, 79, 23
2, 527024, Note_on_c, 0, 90, 69
2, 527034, Note_on_c, 0, 81, 57
2, 527040, Note_on_c, 0, 86, 0
2, 527045, Note_on_c, 0, 86, 66
2, 527077, Control_c, 0, 64, 0
2, 527093, Note_on_c, 0, 83, 0
2, 527094, Note_on_c, 0, 84, 0
2, 527096, Note_on_c, 0, 79, 0
2, 527178, Note_on_c, 0, 91, 0
2, 527431, Control_c, 0, 64, 127
2, 527574, Note_on_c, 0, 93, 68
2, 527587, Note_on_c, 0, 65, 28
2, 527592, Note_on_c, 0, 65, 0
2, 528000, Note_on_c, 0, 67, 0
2, 528000, Note_on_c, 0, 74, 0
2, 528000, Note_on_c, 0, 88, 0
2, 528440, Note_on_c, 0, 67, 51
2, 528528, Note_on_c, 0, 74, 54
2, 528629, Note_on_c, 0, 86, 0
2, 528632, Note_on_c, 0, 78, 52
2, 528705, Note_on_c, 0, 83, 56
2, 528760, Note_on_c, 0, 90, 0
2, 528766, Note_on_c, 0, 90, 55
2, 528768, Note_on_c, 0, 93, 0
2, 528868, Note_on_c, 0, 95, 68
2, 531640, Note_on_c, 0, 81, 0
2, 531840, Note_on_c, 0, 67, 0
2, 531840, Note_on_c, 0, 74, 0
2, 531840, Note_on_c, 0, 78, 0
2, 531840, Note_on_c, 0, 83, 0
2, 531840, Note_on_c, 0, 90, 0
2, 531840, Note_on_c, 0, 95, 0
2, 534674, Control_c, 0, 64, 0
2, 535007, Note_on_c, 0, 76, 90
2, 535007, Note_on_c, 0, 68, 90
2, 535010, Note_on_c, 0, 64, 86
2, 535038, Note_on_c, 0, 76, 0
2, 535039, Note_on_c, 0, 68, 0
2, 535057, Note_on_c, 0, 64, 0
2, 535100, Note_on_c, 0, 64, 91
2, 535100, Note_on_c, 0, 68, 83
2, 535101, Note_on_c, 0, 76, 93
2, 535139, Note_on_c, 0, 76, 0
2, 535139, Note_on_c, 0, 68, 0
2, 535140, Note_on_c, 0, 64, 0
2, 535197, Note_on_c, 0, 64, 91
2, 535197, Note_on_c, 0, 76, 93
2, 535198, Note_on_c, 0, 68, 85
2, 535233, Note_on_c, 0, 64, 0
2, 535234, Note_on_c, 0, 68, 0
2, 535236, Note_on_c, 0, 76, 0
2, 535296, Note_on_c, 0, 64, 84
2, 535299, Note_on_c, 0, 68, 93
2, 535300, Note_on_c, 0, 76, 90
2, 535301, Note_on_c, 0, 83, 102
2, 535316, Note_on_c, 0, 71, 85
2, 535342, Control_c, 0, 64, 127
2, 535671, Note_on_c, 0, 76, 0
2, 535671, Note_on_c, 0, 68, 0
2, 535672, Note_on_c, 0, 64, 0
2, 535673, Note_on_c, 0, 71, 0
2, 535673, Note_on_c, 0, 83, 0
2, 535689, Control_c, 0, 64, 0
2, 535690, End_track
0, 0, End_of_file
